<svg width="24" height="24" viewBox="0 0 24 24" fill="none" xmlns="http://www.w3.org/2000/svg">
<path d="M18.9297 11.0006L17.9398 11.1421C18.0111 11.6413 18.4429 12.0092 18.947 12.0005L18.9297 11.0006ZM5.66895 9.01082L5.73426 10.0087C6.09664 9.98496 6.41768 9.76665 6.57294 9.43836L5.66895 9.01082ZM9 12C8.44772 12 8 12.4477 8 13C8 13.5523 8.44772 14 9 14V12ZM15 14C15.5523 14 16 13.5523 16 13C16 12.4477 15.5523 12 15 12V14ZM24 15C24 12.2386 21.7614 10 19 10V12C20.6569 12 22 13.3431 22 15H24ZM19 10C18.9703 10 18.9414 10.0003 18.9123 10.0008L18.947 12.0005C18.9651 12.0002 18.9824 12 19 12V10ZM19.9196 10.8591C19.3652 6.98083 16.0313 4 12 4V6C15.0221 6 17.5242 8.23521 17.9398 11.1421L19.9196 10.8591ZM12 4C8.80225 4 6.04525 5.8762 4.76495 8.58328L6.57294 9.43836C7.53513 7.40388 9.60445 6 12 6V4ZM5.60363 8.01295C2.47454 8.21776 0 10.8194 0 14H2C2 11.8805 3.64959 10.1451 5.73426 10.0087L5.60363 8.01295ZM0 14C0 17.3137 2.68629 20 6 20V18C3.79086 18 2 16.2091 2 14H0ZM6 20H19V18H6V20ZM19 20C21.7614 20 24 17.7614 24 15H22C22 16.6569 20.6569 18 19 18V20ZM9 14H15V12H9V14Z" fill="black"/>
</svg>
