<svg width="24" height="24" viewBox="0 0 24 24" fill="none" xmlns="http://www.w3.org/2000/svg">
<path d="M20 8V16.8C20 17.9201 20.0002 18.4801 19.7822 18.908C19.5905 19.2843 19.2841 19.5902 18.9078 19.782C18.48 20 17.9203 20 16.8002 20H7.2002C6.08009 20 5.51962 20 5.0918 19.782C4.71547 19.5902 4.40973 19.2843 4.21799 18.908C4 18.4801 4 17.9201 4 16.8V8M20 8H4M20 8L18.6357 5.61237C18.3002 5.02513 18.1322 4.73149 17.8965 4.51788C17.6879 4.32889 17.442 4.18605 17.1744 4.09871C16.8719 4 16.5334 4 15.8571 4H8.14258C7.46623 4 7.12861 4 6.82617 4.09871C6.55859 4.18605 6.31195 4.32889 6.10336 4.51788C5.8676 4.7315 5.69993 5.02513 5.36437 5.61237L4 8M12 11L12 17M12 17L15 15M12 17L9 15" stroke="black" stroke-width="2" stroke-linecap="round" stroke-linejoin="round"/>
</svg>
