<svg width="24" height="24" viewBox="0 0 24 24" fill="none" xmlns="http://www.w3.org/2000/svg">
<path d="M3 6H18C18.9319 6 19.3978 6 19.7654 6.15224C20.2554 6.35523 20.6447 6.74456 20.8477 7.23462C20.9999 7.60216 20.9999 8.0681 20.9999 8.99998M3 6V16.8C3 17.9201 3 18.4801 3.21799 18.908C3.40973 19.2843 3.71547 19.5902 4.0918 19.782C4.51962 20 5.08009 20 6.2002 20H7.0002M3 6V5.59998C3 5.03992 3 4.75993 3.10899 4.54602C3.20487 4.35786 3.35774 4.20487 3.5459 4.10899C3.75981 4 4.03956 4 4.59961 4H9.33687C9.58146 4 9.7038 4 9.81889 4.02763C9.92092 4.05213 10.0189 4.09251 10.1084 4.14734C10.2093 4.20918 10.2958 4.29568 10.4688 4.46863L12.0001 6M16 14L18 16M11 21V18.5L18.5 11L21 13.5L13.5 21H11Z" stroke="black" stroke-width="2" stroke-linecap="round" stroke-linejoin="round"/>
</svg>
