<svg width="24" height="24" viewBox="0 0 24 24" fill="none" xmlns="http://www.w3.org/2000/svg">
<path d="M3 11V19.4C3 19.9601 3 20.2401 3.10899 20.454C3.20487 20.6422 3.35774 20.7951 3.5459 20.891C3.75981 21 4.03956 21 4.59961 21H15.3996C15.9597 21 16.2405 21 16.4544 20.891C16.6425 20.7951 16.7948 20.6422 16.8906 20.454C16.9996 20.2401 16.9996 19.9601 16.9996 19.4V12.6C16.9996 12.04 16.9996 11.7599 16.8906 11.546C16.7948 11.3579 16.6425 11.2049 16.4544 11.109C16.2405 11 15.9601 11 15.4 11H3ZM3 11V10.6C3 10.0399 3 9.75993 3.10899 9.54602C3.20487 9.35786 3.35774 9.20487 3.5459 9.10899C3.75981 9 4.03956 9 4.59961 9H7.66152C7.9487 9 8.09288 9 8.22511 9.03701C8.34224 9.0698 8.45201 9.12365 8.5498 9.19598C8.66021 9.27764 8.74849 9.39099 8.9248 9.61768L9.99993 11M17 15H19.4C19.9601 15 20.2405 15 20.4544 14.891C20.6425 14.7951 20.7948 14.6422 20.8906 14.454C20.9996 14.2401 20.9996 13.9601 20.9996 13.4V6.60001C20.9996 6.03996 20.9996 5.75993 20.8906 5.54602C20.7948 5.35786 20.6425 5.20487 20.4544 5.10899C20.2405 5 19.9601 5 19.4 5H7M7 5V9M7 5V4.59998C7 4.03992 7 3.75993 7.10899 3.54602C7.20487 3.35786 7.35774 3.20487 7.5459 3.10899C7.75981 3 8.03956 3 8.59961 3H11.6615C11.9487 3 12.0929 3 12.2251 3.03701C12.3422 3.0698 12.452 3.12365 12.5498 3.19598C12.6602 3.27764 12.7485 3.39099 12.9248 3.61768L13.9999 4.99998" stroke="black" stroke-width="2" stroke-linecap="round" stroke-linejoin="round"/>
</svg>
