<svg width="24" height="24" viewBox="0 0 24 24" fill="none" xmlns="http://www.w3.org/2000/svg">
<path d="M20.0001 13H14.6001C14.04 13 13.7598 13 13.5459 13.109C13.3577 13.2049 13.2049 13.3579 13.109 13.546C13 13.7599 13 14.0399 13 14.6V20M20 7.20001V12.6745C20 13.1637 20.0001 13.4083 19.9448 13.6384C19.8958 13.8425 19.8147 14.0376 19.705 14.2166C19.5814 14.4184 19.4089 14.5914 19.063 14.9373L14.9375 19.0627C14.5916 19.4086 14.4186 19.5816 14.2168 19.7053C14.0379 19.8149 13.8423 19.8958 13.6383 19.9448C13.4081 20 13.1639 20 12.6747 20H7.2002C6.08009 20 5.51962 20 5.0918 19.782C4.71547 19.5902 4.40973 19.2843 4.21799 18.908C4 18.4801 4 17.9201 4 16.8V7.20001C4 6.07991 4 5.51986 4.21799 5.09204C4.40973 4.71572 4.71547 4.40973 5.0918 4.21799C5.51962 4 6.08009 4 7.2002 4H16.8002C17.9203 4 18.48 4 18.9078 4.21799C19.2841 4.40973 19.5905 4.71572 19.7822 5.09204C20.0002 5.51986 20 6.07991 20 7.20001Z" stroke="black" stroke-width="2" stroke-linecap="round" stroke-linejoin="round"/>
</svg>
