<svg width="30" height="31" viewBox="0 0 30 31" fill="none" xmlns="http://www.w3.org/2000/svg">
<g clip-path="url(#clip0_201_5979)">
<path d="M9.38402 16.2099H11.5252L10.4546 13.1268L9.38402 16.2099ZM20.6505 15.283C19.8841 15.283 19.2602 15.9069 19.2602 16.6733C19.2602 17.4398 19.8841 18.0637 20.6505 18.0637C21.417 18.0637 22.0409 17.4398 22.0409 16.6733C22.0409 15.9069 21.417 15.283 20.6505 15.283ZM27.1388 4.16016H3.03938C1.50419 4.16016 0.258667 5.40568 0.258667 6.94086V23.6251C0.258667 25.1603 1.50419 26.4058 3.03938 26.4058H27.1388C28.674 26.4058 29.9196 25.1603 29.9196 23.6251V6.94086C29.9196 5.40568 28.674 4.16016 27.1388 4.16016ZM14.7751 20.8444H13.7938C13.3993 20.8444 13.0476 20.5941 12.9178 20.2216L12.4909 18.9906H8.41889L7.99135 20.2216C7.92815 20.4036 7.80984 20.5613 7.65286 20.6729C7.49589 20.7845 7.30804 20.8445 7.11543 20.8444H6.13407C5.49625 20.8444 5.04902 20.2159 5.25815 19.6134L8.36907 10.6554C8.46385 10.3826 8.64123 10.1461 8.87659 9.97878C9.11195 9.81142 9.39358 9.72152 9.68237 9.72157H11.2268C11.5157 9.72152 11.7974 9.81149 12.0328 9.97896C12.2681 10.1464 12.4455 10.3831 12.5401 10.656L15.6505 19.6134C15.8596 20.2159 15.4124 20.8444 14.7751 20.8444ZM24.8216 19.9175C24.8216 20.4296 24.4068 20.8444 23.8947 20.8444H22.9678C22.6868 20.8444 22.4441 20.7129 22.2738 20.5154C21.7744 20.7274 21.2258 20.8444 20.6505 20.8444C18.3507 20.8444 16.4795 18.9732 16.4795 16.6733C16.4795 14.3735 18.3507 12.5023 20.6505 12.5023C21.1406 12.5023 21.6041 12.6025 22.0409 12.7583V10.6485C22.0409 10.1364 22.4557 9.72157 22.9678 9.72157H23.8947C24.4068 9.72157 24.8216 10.1364 24.8216 10.6485V19.9175Z" fill="black"/>
</g>
<defs>
<clipPath id="clip0_201_5979">
<rect width="29.6609" height="29.6609" fill="white" transform="translate(0.258667 0.452881)"/>
</clipPath>
</defs>
</svg>
