<svg width="34" height="31" viewBox="0 0 34 31" fill="none" xmlns="http://www.w3.org/2000/svg">
<g clip-path="url(#clip0_201_5975)">
<path d="M30.8645 2.3064H3.05744C1.52226 2.3064 0.276733 3.55192 0.276733 5.0871V25.479C0.276733 27.0141 1.52226 28.2597 3.05744 28.2597H30.8645C32.3997 28.2597 33.6452 27.0141 33.6452 25.479V5.0871C33.6452 3.55192 32.3997 2.3064 30.8645 2.3064ZM10.4727 7.86781C12.5176 7.86781 14.1803 9.53045 14.1803 11.5754C14.1803 13.6204 12.5176 15.283 10.4727 15.283C8.42768 15.283 6.76505 13.6204 6.76505 11.5754C6.76505 9.53045 8.42768 7.86781 10.4727 7.86781ZM16.961 21.586C16.961 22.2 16.3817 22.6983 15.6633 22.6983H5.28201C4.56366 22.6983 3.98434 22.2 3.98434 21.586V20.4737C3.98434 18.6315 5.72808 17.1368 7.87734 17.1368H8.16699C8.87955 17.4323 9.65583 17.6003 10.4727 17.6003C11.2895 17.6003 12.0716 17.4323 12.7783 17.1368H13.068C15.2172 17.1368 16.961 18.6315 16.961 20.4737V21.586ZM29.9376 18.5272C29.9376 18.7821 29.7291 18.9906 29.4742 18.9906H21.132C20.8771 18.9906 20.6686 18.7821 20.6686 18.5272V17.6003C20.6686 17.3454 20.8771 17.1368 21.132 17.1368H29.4742C29.7291 17.1368 29.9376 17.3454 29.9376 17.6003V18.5272ZM29.9376 14.8196C29.9376 15.0745 29.7291 15.283 29.4742 15.283H21.132C20.8771 15.283 20.6686 15.0745 20.6686 14.8196V13.8927C20.6686 13.6378 20.8771 13.4292 21.132 13.4292H29.4742C29.7291 13.4292 29.9376 13.6378 29.9376 13.8927V14.8196ZM29.9376 11.112C29.9376 11.3669 29.7291 11.5754 29.4742 11.5754H21.132C20.8771 11.5754 20.6686 11.3669 20.6686 11.112V10.1851C20.6686 9.93017 20.8771 9.72162 21.132 9.72162H29.4742C29.7291 9.72162 29.9376 9.93017 29.9376 10.1851V11.112Z" fill="black"/>
</g>
<defs>
<clipPath id="clip0_201_5975">
<rect width="33.3685" height="29.6609" fill="white" transform="translate(0.276855 0.452881)"/>
</clipPath>
</defs>
</svg>
