<svg width="30" height="31" viewBox="0 0 30 31" fill="none" xmlns="http://www.w3.org/2000/svg">
<g clip-path="url(#clip0_201_5971)">
<path d="M13.2718 9.72166H5.85658C2.78622 9.72166 0.295166 12.2127 0.295166 15.2831V28.2597C0.295166 29.2808 1.12793 30.1135 2.14897 30.1135H16.9794C18.0005 30.1135 18.8332 29.2808 18.8332 28.2597V15.2831C18.8332 12.2127 16.3422 9.72166 13.2718 9.72166ZM9.56419 24.5521C7.00797 24.5521 4.92968 22.4738 4.92968 19.9176C4.92968 17.3614 7.00797 15.2831 9.56419 15.2831C12.1204 15.2831 14.1987 17.3614 14.1987 19.9176C14.1987 22.4738 12.1204 24.5521 9.56419 24.5521ZM13.2718 2.30644C13.2718 1.2854 12.439 0.452637 11.418 0.452637H7.71039C6.68935 0.452637 5.85658 1.2854 5.85658 2.30644V7.86786H13.2718V2.30644ZM22.4123 3.44062C22.4829 3.40534 22.5408 3.31207 22.5408 3.23335C22.5408 3.15369 22.4829 3.06135 22.4123 3.02607L20.687 2.30644L19.9665 0.581187C19.9321 0.510568 19.8398 0.452637 19.7601 0.452637C19.6805 0.452637 19.5881 0.510568 19.5519 0.581187L18.8332 2.30644L17.108 3.02607C17.0373 3.06135 16.9794 3.15369 16.9794 3.23335C16.9794 3.31207 17.0373 3.40534 17.108 3.44062L18.8332 4.16025L19.5519 5.8855C19.5881 5.95612 19.6805 6.01405 19.7601 6.01405C19.8398 6.01405 19.9321 5.95612 19.9665 5.8855L20.687 4.16025L22.4123 3.44062ZM26.2484 4.16025L26.9671 5.8855C27.0033 5.95612 27.0957 6.01405 27.1753 6.01405C27.255 6.01405 27.3473 5.95612 27.3817 5.8855L28.1022 4.16025L29.8275 3.44062C29.8981 3.40534 29.9561 3.31207 29.9561 3.23335C29.9561 3.15369 29.8981 3.06135 29.8275 3.02607L28.1022 2.30644L27.3817 0.581187C27.3473 0.510568 27.255 0.452637 27.1753 0.452637C27.0957 0.452637 27.0033 0.510568 26.9671 0.581187L26.2484 2.30644L24.5232 3.02607C24.4526 3.06135 24.3946 3.15369 24.3946 3.23335C24.3946 3.31207 24.4526 3.40534 24.5232 3.44062L26.2484 4.16025ZM28.1022 13.4293L27.3817 11.704C27.3473 11.6334 27.255 11.5755 27.1753 11.5755C27.0957 11.5755 27.0033 11.6334 26.9671 11.704L26.2484 13.4293L24.5232 14.1489C24.4526 14.1842 24.3946 14.2765 24.3946 14.3562C24.3946 14.4349 24.4526 14.5282 24.5232 14.5635L26.2484 15.2831L26.9671 17.0083C27.0033 17.079 27.0957 17.1369 27.1753 17.1369C27.255 17.1369 27.3473 17.079 27.3817 17.0083L28.1022 15.2831L29.8275 14.5635C29.8981 14.5282 29.9561 14.4349 29.9561 14.3562C29.9561 14.2765 29.8981 14.1842 29.8275 14.1489L28.1022 13.4293ZM26.1199 9.00204C26.1905 8.96676 26.2484 8.87349 26.2484 8.79476C26.2484 8.71511 26.1905 8.62276 26.1199 8.58748L24.3946 7.86786L23.6741 6.1426C23.6397 6.07198 23.5474 6.01405 23.4677 6.01405C23.3881 6.01405 23.2957 6.07198 23.2595 6.1426L22.5408 7.86786L20.8156 8.58748C20.745 8.62276 20.687 8.71511 20.687 8.79476C20.687 8.87349 20.745 8.96676 20.8156 9.00204L22.5408 9.72166L23.2595 11.4469C23.2957 11.5175 23.3881 11.5755 23.4677 11.5755C23.5474 11.5755 23.6397 11.5175 23.6741 11.4469L24.3946 9.72166L26.1199 9.00204Z" fill="black"/>
</g>
<defs>
<clipPath id="clip0_201_5971">
<rect width="29.6609" height="29.6609" fill="white" transform="translate(0.295166 0.452881)"/>
</clipPath>
</defs>
</svg>
