<svg width="27" height="31" viewBox="0 0 27 31" fill="none" xmlns="http://www.w3.org/2000/svg">
<g clip-path="url(#clip0_201_5965)">
<path d="M1.68857 20.8445H16.8863C16.9839 20.8445 17.0806 20.8254 17.1708 20.788C17.261 20.7507 17.343 20.696 17.412 20.6269C17.4811 20.5579 17.5358 20.4759 17.5731 20.3857C17.6105 20.2955 17.6296 20.1988 17.6296 20.1012V17.8801C17.6296 17.7825 17.6105 17.6858 17.5731 17.5956C17.5358 17.5054 17.4811 17.4234 17.412 17.3544C17.343 17.2853 17.261 17.2306 17.1708 17.1933C17.0806 17.1559 16.9839 17.1368 16.8863 17.1368H1.68857C1.59095 17.1368 1.49426 17.1559 1.40405 17.1933C1.31384 17.2306 1.23187 17.2853 1.16284 17.3544C1.09381 17.4234 1.03906 17.5054 1.00173 17.5956C0.96441 17.6858 0.945237 17.7825 0.945313 17.8801V20.1012C0.945237 20.1988 0.96441 20.2955 1.00173 20.3857C1.03906 20.4759 1.09381 20.5579 1.16284 20.6269C1.23187 20.696 1.31384 20.7507 1.40405 20.788C1.49426 20.8254 1.59095 20.8445 1.68857 20.8445ZM1.68857 6.01401H16.8863C16.9839 6.01408 17.0806 5.99491 17.1708 5.95759C17.261 5.92026 17.343 5.86551 17.412 5.79648C17.4811 5.72745 17.5358 5.64548 17.5731 5.55527C17.6105 5.46506 17.6296 5.36838 17.6296 5.27075V3.04966C17.6296 2.95203 17.6105 2.85534 17.5731 2.76513C17.5358 2.67492 17.4811 2.59296 17.412 2.52392C17.343 2.45489 17.261 2.40014 17.1708 2.36282C17.0806 2.32549 16.9839 2.30632 16.8863 2.3064H1.68857C1.59095 2.30632 1.49426 2.32549 1.40405 2.36282C1.31384 2.40014 1.23187 2.45489 1.16284 2.52392C1.09381 2.59296 1.03906 2.67492 1.00173 2.76513C0.96441 2.85534 0.945237 2.95203 0.945313 3.04966V5.27075C0.945237 5.36838 0.96441 5.46506 1.00173 5.55527C1.03906 5.64548 1.09381 5.72745 1.16284 5.79648C1.23187 5.86551 1.31384 5.92026 1.40405 5.95759C1.49426 5.99491 1.59095 6.01408 1.68857 6.01401ZM25.9717 9.72162H1.87222C1.62639 9.72162 1.39062 9.81927 1.2168 9.9931C1.04297 10.1669 0.945313 10.4027 0.945313 10.6485V12.5023C0.945313 12.7482 1.04297 12.9839 1.2168 13.1577C1.39062 13.3316 1.62639 13.4292 1.87222 13.4292H25.9717C26.2175 13.4292 26.4533 13.3316 26.6271 13.1577C26.8009 12.9839 26.8986 12.7482 26.8986 12.5023V10.6485C26.8986 10.4027 26.8009 10.1669 26.6271 9.9931C26.4533 9.81927 26.2175 9.72162 25.9717 9.72162ZM25.9717 24.5521H1.87222C1.62639 24.5521 1.39062 24.6497 1.2168 24.8235C1.04297 24.9974 0.945313 25.2331 0.945313 25.479V27.3328C0.945313 27.5786 1.04297 27.8144 1.2168 27.9882C1.39062 28.162 1.62639 28.2597 1.87222 28.2597H25.9717C26.2175 28.2597 26.4533 28.162 26.6271 27.9882C26.8009 27.8144 26.8986 27.5786 26.8986 27.3328V25.479C26.8986 25.2331 26.8009 24.9974 26.6271 24.8235C26.4533 24.6497 26.2175 24.5521 25.9717 24.5521Z" fill="black"/>
</g>
<defs>
<clipPath id="clip0_201_5965">
<rect width="25.9533" height="29.6609" fill="white" transform="translate(0.945312 0.452881)"/>
</clipPath>
</defs>
</svg>
