<svg width="27" height="31" viewBox="0 0 27 31" fill="none" xmlns="http://www.w3.org/2000/svg">
<g clip-path="url(#clip0_201_5963)">
<path d="M1.08901 13.4292H25.1885C25.4343 13.4292 25.6701 13.3316 25.8439 13.1577C26.0177 12.9839 26.1154 12.7482 26.1154 12.5023V10.6485C26.1154 10.4027 26.0177 10.1669 25.8439 9.9931C25.6701 9.81927 25.4343 9.72162 25.1885 9.72162H1.08901C0.843182 9.72162 0.607421 9.81927 0.433593 9.9931C0.259765 10.1669 0.162109 10.4027 0.162109 10.6485L0.162109 12.5023C0.162109 12.7482 0.259765 12.9839 0.433593 13.1577C0.607421 13.3316 0.843182 13.4292 1.08901 13.4292ZM25.1885 24.5521H1.08901C0.843182 24.5521 0.607421 24.6497 0.433593 24.8235C0.259765 24.9974 0.162109 25.2331 0.162109 25.479L0.162109 27.3328C0.162109 27.5786 0.259765 27.8144 0.433593 27.9882C0.607421 28.162 0.843182 28.2597 1.08901 28.2597H25.1885C25.4343 28.2597 25.6701 28.162 25.8439 27.9882C26.0177 27.8144 26.1154 27.5786 26.1154 27.3328V25.479C26.1154 25.2331 26.0177 24.9974 25.8439 24.8235C25.6701 24.6497 25.4343 24.5521 25.1885 24.5521ZM25.3721 2.3064H10.1744C10.0768 2.30632 9.98008 2.32549 9.88987 2.36282C9.79966 2.40014 9.7177 2.45489 9.64866 2.52392C9.57963 2.59296 9.52489 2.67492 9.48756 2.76513C9.45023 2.85534 9.43106 2.95203 9.43114 3.04966V5.27075C9.43106 5.36838 9.45023 5.46506 9.48756 5.55527C9.52489 5.64548 9.57963 5.72745 9.64866 5.79648C9.7177 5.86551 9.79966 5.92026 9.88987 5.95759C9.98008 5.99491 10.0768 6.01408 10.1744 6.01401H25.3721C25.4698 6.01408 25.5664 5.99491 25.6567 5.95759C25.7469 5.92026 25.8288 5.86551 25.8979 5.79648C25.9669 5.72745 26.0216 5.64548 26.059 5.55527C26.0963 5.46506 26.1155 5.36838 26.1154 5.27075V3.04966C26.1155 2.95203 26.0963 2.85534 26.059 2.76513C26.0216 2.67492 25.9669 2.59296 25.8979 2.52392C25.8288 2.45489 25.7469 2.40014 25.6567 2.36282C25.5664 2.32549 25.4698 2.30632 25.3721 2.3064ZM25.3721 17.1368H10.1744C10.0768 17.1368 9.98008 17.1559 9.88987 17.1933C9.79966 17.2306 9.7177 17.2853 9.64866 17.3544C9.57963 17.4234 9.52489 17.5054 9.48756 17.5956C9.45023 17.6858 9.43106 17.7825 9.43114 17.8801V20.1012C9.43106 20.1988 9.45023 20.2955 9.48756 20.3857C9.52489 20.4759 9.57963 20.5579 9.64866 20.6269C9.7177 20.696 9.79966 20.7507 9.88987 20.788C9.98008 20.8254 10.0768 20.8445 10.1744 20.8445H25.3721C25.4698 20.8445 25.5664 20.8254 25.6567 20.788C25.7469 20.7507 25.8288 20.696 25.8979 20.6269C25.9669 20.5579 26.0216 20.4759 26.059 20.3857C26.0963 20.2955 26.1155 20.1988 26.1154 20.1012V17.8801C26.1155 17.7825 26.0963 17.6858 26.059 17.5956C26.0216 17.5054 25.9669 17.4234 25.8979 17.3544C25.8288 17.2853 25.7469 17.2306 25.6567 17.1933C25.5664 17.1559 25.4698 17.1368 25.3721 17.1368Z" fill="black"/>
</g>
<defs>
<clipPath id="clip0_201_5963">
<rect width="25.9533" height="29.6609" fill="white" transform="translate(0.162109 0.452881)"/>
</clipPath>
</defs>
</svg>
