<svg width="27" height="31" viewBox="0 0 27 31" fill="none" xmlns="http://www.w3.org/2000/svg">
<g clip-path="url(#clip0_201_5961)">
<path d="M24.4777 6.94096C23.4581 6.94096 22.6239 7.77517 22.6239 8.79476V12.9658C22.6239 13.2207 22.4154 13.4293 22.1605 13.4293H21.2336C20.9787 13.4293 20.7701 13.2207 20.7701 12.9658V4.16025C20.7701 3.14065 19.9359 2.30644 18.9163 2.30644C17.8967 2.30644 17.0625 3.14065 17.0625 4.16025V12.9658C17.0625 13.2207 16.8539 13.4293 16.599 13.4293H15.6721C15.4172 13.4293 15.2087 13.2207 15.2087 12.9658V2.30644C15.2087 1.28685 14.3745 0.452637 13.3549 0.452637C12.3353 0.452637 11.5011 1.28685 11.5011 2.30644V12.9658C11.5011 13.2207 11.2925 13.4293 11.0376 13.4293H10.1107C9.85582 13.4293 9.64727 13.2207 9.64727 12.9658V4.16025C9.64727 3.14065 8.81306 2.30644 7.79346 2.30644C6.77387 2.30644 5.93966 3.14065 5.93966 4.16025V18.1217L4.57247 16.2389C3.81937 15.202 2.37108 14.976 1.33411 15.7292C0.297136 16.4823 0.0712035 17.9305 0.824312 18.9675L8.1005 28.9723C8.62188 29.6906 9.46189 30.1193 10.3482 30.1193H21.7955C23.0874 30.1193 24.2054 29.233 24.5009 27.9759L26.0361 21.447C26.2214 20.6533 26.3199 19.8075 26.3315 18.9965V8.79476C26.3315 7.77517 25.4973 6.94096 24.4777 6.94096ZM10.5742 24.5521C10.0644 24.5521 9.64727 24.135 9.64727 23.6252C9.64727 23.1154 10.0644 22.6983 10.5742 22.6983C11.084 22.6983 11.5011 23.1154 11.5011 23.6252C11.5011 24.135 11.084 24.5521 10.5742 24.5521ZM10.5742 18.9907C10.0644 18.9907 9.64727 18.5736 9.64727 18.0638C9.64727 17.554 10.0644 17.1369 10.5742 17.1369C11.084 17.1369 11.5011 17.554 11.5011 18.0638C11.5011 18.5736 11.084 18.9907 10.5742 18.9907ZM14.2818 26.4059C13.772 26.4059 13.3549 25.9888 13.3549 25.479C13.3549 24.9692 13.772 24.5521 14.2818 24.5521C14.7916 24.5521 15.2087 24.9692 15.2087 25.479C15.2087 25.9888 14.7916 26.4059 14.2818 26.4059ZM14.2818 20.8445C13.772 20.8445 13.3549 20.4274 13.3549 19.9176C13.3549 19.4078 13.772 18.9907 14.2818 18.9907C14.7916 18.9907 15.2087 19.4078 15.2087 19.9176C15.2087 20.4274 14.7916 20.8445 14.2818 20.8445ZM17.9894 22.6983C17.4796 22.6983 17.0625 22.2812 17.0625 21.7714C17.0625 21.2616 17.4796 20.8445 17.9894 20.8445C18.4992 20.8445 18.9163 21.2616 18.9163 21.7714C18.9163 22.2812 18.4992 22.6983 17.9894 22.6983ZM19.8432 26.4059C19.3334 26.4059 18.9163 25.9888 18.9163 25.479C18.9163 24.9692 19.3334 24.5521 19.8432 24.5521C20.353 24.5521 20.7701 24.9692 20.7701 25.479C20.7701 25.9888 20.353 26.4059 19.8432 26.4059ZM21.697 18.9907C21.1872 18.9907 20.7701 18.5736 20.7701 18.0638C20.7701 17.554 21.1872 17.1369 21.697 17.1369C22.2068 17.1369 22.6239 17.554 22.6239 18.0638C22.6239 18.5736 22.2068 18.9907 21.697 18.9907Z" fill="black"/>
</g>
<defs>
<clipPath id="clip0_201_5961">
<rect width="25.9533" height="29.6609" fill="white" transform="translate(0.378784 0.452881)"/>
</clipPath>
</defs>
</svg>
