<svg width="38" height="31" viewBox="0 0 38 31" fill="none" xmlns="http://www.w3.org/2000/svg">
<g clip-path="url(#clip0_201_5959)">
<path d="M36.6219 20.8445H35.695V14.5821C35.695 13.8464 35.3995 13.1396 34.8781 12.6182L29.0908 6.83089C28.5694 6.3095 27.8626 6.01405 27.1269 6.01405H24.5721V3.23335C24.5721 1.69816 23.3266 0.452637 21.7914 0.452637H3.25336C1.71818 0.452637 0.472656 1.69816 0.472656 3.23335V21.7714C0.472656 23.3066 1.71818 24.5521 3.25336 24.5521H4.18027C4.18027 27.6225 6.67132 30.1135 9.74168 30.1135C12.812 30.1135 15.3031 27.6225 15.3031 24.5521H22.7183C22.7183 27.6225 25.2094 30.1135 28.2797 30.1135C31.3501 30.1135 33.8412 27.6225 33.8412 24.5521H36.6219C37.1317 24.5521 37.5488 24.135 37.5488 23.6252V21.7714C37.5488 21.2616 37.1317 20.8445 36.6219 20.8445ZM9.74168 27.3328C8.2065 27.3328 6.96098 26.0873 6.96098 24.5521C6.96098 23.0169 8.2065 21.7714 9.74168 21.7714C11.2769 21.7714 12.5224 23.0169 12.5224 24.5521C12.5224 26.0873 11.2769 27.3328 9.74168 27.3328ZM18.0838 12.9658C18.0838 13.2207 17.8753 13.4293 17.6204 13.4293H14.3762V16.6734C14.3762 16.9283 14.1676 17.1369 13.9127 17.1369H11.132C10.8771 17.1369 10.6686 16.9283 10.6686 16.6734V13.4293H7.42443C7.16953 13.4293 6.96098 13.2207 6.96098 12.9658V10.1851C6.96098 9.93022 7.16953 9.72166 7.42443 9.72166H10.6686V6.4775C10.6686 6.22261 10.8771 6.01405 11.132 6.01405H13.9127C14.1676 6.01405 14.3762 6.22261 14.3762 6.4775V9.72166H17.6204C17.8753 9.72166 18.0838 9.93022 18.0838 10.1851V12.9658ZM28.2797 27.3328C26.7446 27.3328 25.499 26.0873 25.499 24.5521C25.499 23.0169 26.7446 21.7714 28.2797 21.7714C29.8149 21.7714 31.0604 23.0169 31.0604 24.5521C31.0604 26.0873 29.8149 27.3328 28.2797 27.3328ZM32.9143 15.2831H24.5721V8.79476H27.1269L32.9143 14.5821V15.2831Z" fill="black"/>
</g>
<defs>
<clipPath id="clip0_201_5959">
<rect width="37.0761" height="29.6609" fill="white" transform="translate(0.472656 0.452881)"/>
</clipPath>
</defs>
</svg>
