<svg width="34" height="31" viewBox="0 0 34 31" fill="none" xmlns="http://www.w3.org/2000/svg">
<g clip-path="url(#clip0_201_5955)">
<path d="M1.11956 20.8445H2.99619C4.2595 26.7961 10.9084 30.1135 17.0524 30.1135C23.2064 30.1135 29.8467 26.7894 31.1086 20.8445H32.9852C33.6045 20.8445 33.9147 20.0957 33.4767 19.6577L29.5937 15.7747C29.3222 15.5032 28.882 15.5032 28.6105 15.7747L24.7274 19.6577C24.2895 20.0957 24.5996 20.8445 25.219 20.8445H27.255C26.0796 23.9911 22.333 25.8606 18.9061 26.2909V15.2831H21.9186C22.3025 15.2831 22.6137 14.9718 22.6137 14.5879V12.2706C22.6137 11.8867 22.3025 11.5754 21.9186 11.5754H18.9061V11.2586C21.0659 10.4951 22.6135 8.43585 22.6137 6.01472C22.6141 2.98839 20.1578 0.495366 17.1318 0.453192C14.0239 0.409801 11.491 2.91615 11.491 6.01403C11.491 8.43545 13.0387 10.495 15.1986 11.2586V11.5754H12.1861C11.8022 11.5754 11.491 11.8867 11.491 12.2706V14.5879C11.491 14.9718 11.8022 15.2831 12.1861 15.2831H15.1986V26.2909C11.7843 25.8623 8.02551 23.9922 6.84968 20.8445H8.88573C9.50508 20.8445 9.81524 20.0957 9.37728 19.6577L5.4942 15.7747C5.22273 15.5032 4.78257 15.5032 4.51104 15.7747L0.627957 19.6577C0.190053 20.0957 0.500218 20.8445 1.11956 20.8445ZM17.0524 4.16022C18.0746 4.16022 18.9062 4.99183 18.9062 6.01403C18.9062 7.03623 18.0746 7.86783 17.0524 7.86783C16.0302 7.86783 15.1986 7.03623 15.1986 6.01403C15.1986 4.99183 16.0302 4.16022 17.0524 4.16022Z" fill="black"/>
</g>
<defs>
<clipPath id="clip0_201_5955">
<rect width="33.3685" height="29.6609" fill="white" transform="translate(0.368042 0.452881)"/>
</clipPath>
</defs>
</svg>
