<svg width="27" height="31" viewBox="0 0 27 31" fill="none" xmlns="http://www.w3.org/2000/svg">
<path d="M13.2555 14.6374L21.1342 6.75876C21.6787 6.2142 22.5593 6.2142 23.0981 6.75876L24.4073 8.06801C24.9519 8.61256 24.9519 9.49312 24.4073 10.0319L18.8285 15.6223L24.4131 21.2069C24.9577 21.7514 24.9577 22.632 24.4131 23.1707L23.1038 24.4858C22.5593 25.0303 21.6787 25.0303 21.14 24.4858L13.2613 16.6071C12.7109 16.0625 12.7109 15.182 13.2555 14.6374ZM2.13267 16.6071L10.0113 24.4858C10.5559 25.0303 11.4365 25.0303 11.9752 24.4858L13.2845 23.1765C13.829 22.632 13.829 21.7514 13.2845 21.2126L7.70567 15.6223L13.2903 10.0377C13.8348 9.49312 13.8348 8.61256 13.2903 8.0738L11.981 6.75876C11.4365 6.2142 10.5559 6.2142 10.0171 6.75876L2.13846 14.6374C1.58812 15.182 1.58812 16.0625 2.13267 16.6071Z" fill="black"/>
</svg>
