<svg width="19" height="31" viewBox="0 0 19 31" fill="none" xmlns="http://www.w3.org/2000/svg">
<g clip-path="url(#clip0_201_5953)">
<path d="M8.28416 15.3005L0.405487 7.42178C-0.139069 6.87722 -0.139069 5.99666 0.405487 5.4579L1.71474 4.14865C2.25929 3.6041 3.13985 3.6041 3.67861 4.14865L9.2632 9.73324L14.8478 4.14865C15.3923 3.6041 16.2729 3.6041 16.8117 4.14865L18.1325 5.45211C18.6771 5.99666 18.6771 6.87722 18.1325 7.41598L10.2538 15.2947C9.70927 15.845 8.82872 15.845 8.28416 15.3005ZM10.2538 26.4233L18.1325 18.5446C18.6771 18.0001 18.6771 17.1195 18.1325 16.5807L16.8233 15.2715C16.2787 14.7269 15.3981 14.7269 14.8594 15.2715L9.269 20.8503L3.68441 15.2657C3.13985 14.7211 2.25929 14.7211 1.72053 15.2657L0.405487 16.5749C-0.139069 17.1195 -0.139069 18.0001 0.405487 18.5388L8.28416 26.4175C8.82872 26.9678 9.70927 26.9678 10.2538 26.4233Z" fill="black"/>
</g>
<defs>
<clipPath id="clip0_201_5953">
<rect width="18.5381" height="29.6609" fill="white" transform="translate(0 0.452881)"/>
</clipPath>
</defs>
</svg>
