<svg width="27" height="31" viewBox="0 0 27 31" fill="none" xmlns="http://www.w3.org/2000/svg">
<path d="M13.5078 16.6071L5.62908 24.4858C5.08453 25.0303 4.20397 25.0303 3.66521 24.4858L2.35596 23.1765C1.8114 22.632 1.8114 21.7514 2.35596 21.2126L7.94055 15.6281L2.35596 10.0435C1.8114 9.49891 1.8114 8.61836 2.35596 8.07959L3.65941 6.75876C4.20397 6.2142 5.08453 6.2142 5.62329 6.75876L13.502 14.6374C14.0523 15.182 14.0523 16.0625 13.5078 16.6071ZM24.6306 14.6374L16.7519 6.75876C16.2074 6.2142 15.3268 6.2142 14.788 6.75876L13.4788 8.06801C12.9342 8.61256 12.9342 9.49312 13.4788 10.0319L19.0634 15.6165L13.4788 21.2011C12.9342 21.7456 12.9342 22.6262 13.4788 23.1649L14.788 24.4742C15.3326 25.0187 16.2132 25.0187 16.7519 24.4742L24.6306 16.5955C25.1751 16.0625 25.1751 15.182 24.6306 14.6374Z" fill="black"/>
</svg>
