<svg width="30" height="31" viewBox="0 0 30 31" fill="none" xmlns="http://www.w3.org/2000/svg">
<g clip-path="url(#clip0_201_5937)">
<path d="M14.8921 1.25513C6.95547 1.25513 0.525085 7.68552 0.525085 15.6221C0.525085 23.5587 6.95547 29.9891 14.8921 29.9891C22.8287 29.9891 29.2591 23.5587 29.2591 15.6221C29.2591 7.68552 22.8287 1.25513 14.8921 1.25513ZM8.40376 14.6952C8.40376 14.1565 8.64128 13.6814 9.01204 13.3396L7.21617 12.8009C6.72375 12.656 6.44568 12.1346 6.5963 11.648C6.74113 11.1556 7.25672 10.8833 7.74913 11.0282L12.3836 12.4185C12.8761 12.5633 13.1541 13.0847 13.0035 13.5713C12.8819 13.9711 12.5169 14.2318 12.1172 14.2318C12.0882 14.2318 12.0534 14.2202 12.0187 14.2202C12.0592 14.3766 12.1172 14.5272 12.1172 14.6952C12.1172 15.7206 11.2887 16.549 10.2634 16.549C9.23797 16.549 8.40376 15.7206 8.40376 14.6952ZM18.1362 23.6282C16.5257 21.6933 13.2584 21.6933 11.6421 23.6282C10.8601 24.5725 9.42915 23.3849 10.217 22.4407C11.3756 21.0503 13.0788 20.2508 14.8863 20.2508C16.6937 20.2508 18.3969 21.0503 19.5556 22.4407C20.355 23.3965 18.9125 24.5609 18.1362 23.6282ZM22.5738 12.8009L20.7779 13.3396C21.1429 13.6756 21.3862 14.1565 21.3862 14.6952C21.3862 15.7206 20.5578 16.549 19.5324 16.549C18.507 16.549 17.6786 15.7206 17.6786 14.6952C17.6786 14.5272 17.7307 14.3708 17.7771 14.2202C17.7423 14.226 17.7133 14.2318 17.6786 14.2318C17.2789 14.2318 16.9139 13.9711 16.7922 13.5713C16.6474 13.0789 16.9255 12.5633 17.4121 12.4185L22.0466 11.0282C22.5332 10.8833 23.0546 11.1614 23.1994 11.648C23.3443 12.1404 23.0662 12.656 22.5738 12.8009Z" fill="black"/>
</g>
<defs>
<clipPath id="clip0_201_5937">
<rect width="28.734" height="29.6609" fill="white" transform="translate(0.525024 0.791992)"/>
</clipPath>
</defs>
</svg>
