<svg width="19" height="31" viewBox="0 0 19 31" fill="none" xmlns="http://www.w3.org/2000/svg">
<g clip-path="url(#clip0_201_5935)">
<path d="M17.3047 15.6224H14.7198C15.941 13.6533 16.8412 11.3152 16.8412 9.13412C16.8412 4.01472 13.5212 0.791992 9.42601 0.791992C5.33084 0.791992 2.01079 4.01472 2.01079 9.13412C2.01079 11.3152 2.91104 13.6533 4.13224 15.6224H1.54734C0.779745 15.6224 0.156982 16.2446 0.156982 17.0128V18.8666C0.156982 19.6342 0.779745 20.257 1.54734 20.257H7.10875V29.0625C7.10875 29.8301 7.73152 30.4529 8.49911 30.4529H10.3529C11.1205 30.4529 11.7433 29.8301 11.7433 29.0625V20.257H17.3047C18.0723 20.257 18.695 19.6342 18.695 18.8666V17.0128C18.695 16.2446 18.0723 15.6224 17.3047 15.6224ZM9.42601 5.42651C11.1414 5.42651 12.2067 6.84698 12.2067 9.13412C12.2067 11.142 10.6345 13.6609 9.42601 14.9777C8.21756 13.6615 6.6453 11.142 6.6453 9.13412C6.6453 6.84698 7.71066 5.42651 9.42601 5.42651Z" fill="black"/>
</g>
<defs>
<clipPath id="clip0_201_5935">
<rect width="18.5381" height="29.6609" fill="white" transform="translate(0.156982 0.791992)"/>
</clipPath>
</defs>
</svg>
