<svg width="27" height="31" viewBox="0 0 27 31" fill="none" xmlns="http://www.w3.org/2000/svg">
<g clip-path="url(#clip0_201_5933)">
<path d="M20.6994 8.26515C22.2039 8.53569 23.4378 9.34673 24.4024 10.6983C25.2511 11.8957 25.8298 13.4019 26.138 15.2169C26.4086 16.8778 26.3883 18.5381 26.0801 20.199C25.6172 22.9409 24.6915 25.2391 23.3029 27.0929C21.6437 29.3331 19.5611 30.4529 17.0538 30.4529C16.4363 30.4529 15.7619 30.26 15.0285 29.8736C14.5268 29.5648 13.9678 29.4101 13.3502 29.4101C12.7327 29.4101 12.1742 29.5648 11.672 29.8736C10.9386 30.26 10.2642 30.4529 9.64669 30.4529C7.13942 30.4529 5.05678 29.3331 3.39763 27.0929C2.00901 25.2391 1.08327 22.9409 0.620395 20.199C0.3122 18.5381 0.291924 16.8778 0.562464 15.2169C0.870659 13.4019 1.44939 11.8957 2.29809 10.6983C3.26265 9.34673 4.49659 8.53569 6.00107 8.26515C6.92681 8.11047 8.19956 8.24603 9.81991 8.67067C11.2085 9.05707 12.3851 9.52052 13.3497 10.061C14.3142 9.52052 15.4908 9.05707 16.8794 8.67067C18.5003 8.24603 19.7737 8.11047 20.6994 8.26515ZM17.5167 5.88996C16.9768 6.39222 16.2625 6.75893 15.3755 6.99065C14.758 7.18357 14.0837 7.28031 13.3502 7.28031L12.4824 7.22238C12.4054 6.68188 12.4054 6.06375 12.4824 5.36857C12.6371 3.97822 13.0803 2.91634 13.8131 2.18235C14.353 1.68008 15.0673 1.31337 15.9543 1.08165C16.5718 0.888738 17.2461 0.791992 17.9795 0.791992L18.8474 0.849924L18.9053 1.71889C18.9053 2.45289 18.8085 3.12837 18.6162 3.74649C18.3851 4.63458 18.0189 5.34946 17.5167 5.88996Z" fill="black"/>
</g>
<defs>
<clipPath id="clip0_201_5933">
<rect width="25.9533" height="29.6609" fill="white" transform="translate(0.373657 0.791992)"/>
</clipPath>
</defs>
</svg>
