<svg width="35" height="31" viewBox="0 0 35 31" fill="none" xmlns="http://www.w3.org/2000/svg">
<g clip-path="url(#clip0_201_5929)">
<path d="M33.1259 26.7453H32.199V6.35341H2.53813V26.7453H1.61239C1.10027 26.7453 0.685485 27.1601 0.685485 27.6722V29.526C0.685485 30.0381 1.10027 30.4529 1.61239 30.4529H10.8803C11.3924 30.4529 11.8072 30.0381 11.8072 29.526V19.33C11.8072 16.2585 14.2971 13.7686 17.3686 13.7686C20.4401 13.7686 22.93 16.2585 22.93 19.33L22.9312 28.5991V29.526C22.9312 30.0381 23.3459 30.4529 23.8581 30.4529H33.1259C33.638 30.4529 34.0528 30.0381 34.0528 29.526V27.6722C34.0528 27.1601 33.638 26.7453 33.1259 26.7453ZM33.1259 0.791992H1.61123C1.09912 0.791992 0.684326 1.20678 0.684326 1.71889V3.5727C0.684326 4.08481 1.09912 4.4996 1.61123 4.4996H33.1259C33.638 4.4996 34.0528 4.08481 34.0528 3.5727V1.71889C34.0528 1.20678 33.638 0.791992 33.1259 0.791992Z" fill="black"/>
</g>
<defs>
<clipPath id="clip0_201_5929">
<rect width="33.3685" height="29.6609" fill="white" transform="translate(0.684326 0.791992)"/>
</clipPath>
</defs>
</svg>
