<svg width="31" height="31" viewBox="0 0 31 31" fill="none" xmlns="http://www.w3.org/2000/svg">
<g clip-path="url(#clip0_201_5931)">
<path d="M2.73747 26.7452C2.73747 27.7706 3.56589 28.599 4.59128 28.599H26.8369C27.8623 28.599 28.6908 27.7706 28.6908 26.7452V10.061H2.73747V26.7452ZM12.0065 14.4638C12.0065 14.0814 12.3193 13.7686 12.7017 13.7686H18.7265C19.1089 13.7686 19.4217 14.0814 19.4217 14.4638V14.9272C19.4217 15.3096 19.1089 15.6224 18.7265 15.6224H12.7017C12.3193 15.6224 12.0065 15.3096 12.0065 14.9272V14.4638ZM28.6908 2.64575H2.73747C1.71209 2.64575 0.883667 3.47417 0.883667 4.49956V7.28027C0.883667 7.79006 1.30077 8.20717 1.81057 8.20717H29.6177C30.1274 8.20717 30.5446 7.79006 30.5446 7.28027V4.49956C30.5446 3.47417 29.7161 2.64575 28.6908 2.64575Z" fill="black"/>
</g>
<defs>
<clipPath id="clip0_201_5931">
<rect width="29.6609" height="29.6609" fill="white" transform="translate(0.882812 0.791992)"/>
</clipPath>
</defs>
</svg>
