<svg width="27" height="31" viewBox="0 0 27 31" fill="none" xmlns="http://www.w3.org/2000/svg">
<g clip-path="url(#clip0_201_5911)">
<path d="M24.9049 13.6817L26.191 14.9678C26.7356 15.5123 26.7356 16.3929 26.191 16.9316L14.9349 28.1935C14.3904 28.7381 13.5098 28.7381 12.9711 28.1935L1.7092 16.9316C1.16464 16.3871 1.16464 15.5065 1.7092 14.9678L2.99528 13.6817C3.54562 13.1313 4.44356 13.1429 4.98232 13.7049L11.6329 20.6856V4.03611C11.6329 3.26562 12.2527 2.64575 13.0232 2.64575H14.877C15.6475 2.64575 16.2674 3.26562 16.2674 4.03611V20.6856L22.9179 13.7049C23.4567 13.1371 24.3546 13.1255 24.9049 13.6817Z" fill="black"/>
</g>
<defs>
<clipPath id="clip0_201_5911">
<rect width="25.9533" height="29.6609" fill="white" transform="translate(0.973877 0.791992)"/>
</clipPath>
</defs>
</svg>
