<svg width="30" height="31" viewBox="0 0 30 31" fill="none" xmlns="http://www.w3.org/2000/svg">
<g clip-path="url(#clip0_201_5919)">
<path d="M29.4277 15.6221C29.4277 23.5587 22.9973 29.9891 15.0607 29.9891C7.12411 29.9891 0.693726 23.5587 0.693726 15.6221C0.693726 7.68552 7.12411 1.25513 15.0607 1.25513C22.9973 1.25513 29.4277 7.68552 29.4277 15.6221ZM21.1088 13.9479L16.9145 18.3217V7.74345C16.9145 6.97296 16.2947 6.35309 15.5242 6.35309H14.5973C13.8268 6.35309 13.2069 6.97296 13.2069 7.74345V18.3217L9.01268 13.9479C8.47392 13.386 7.57598 13.3744 7.02563 13.9247L6.39418 14.562C5.84962 15.1065 5.84962 15.9871 6.39418 16.5259L14.0759 24.2134C14.6204 24.7579 15.501 24.7579 16.0398 24.2134L23.7273 16.5259C24.2718 15.9813 24.2718 15.1007 23.7273 14.562L23.0958 13.9247C22.5455 13.3744 21.6475 13.386 21.1088 13.9479Z" fill="black"/>
</g>
<defs>
<clipPath id="clip0_201_5919">
<rect width="29.6609" height="29.6609" fill="white" transform="translate(0.229858 0.791992)"/>
</clipPath>
</defs>
</svg>
