<svg width="27" height="31" viewBox="0 0 27 31" fill="none" xmlns="http://www.w3.org/2000/svg">
<g clip-path="url(#clip0_201_5907)">
<path d="M11.4432 4.66739L12.7292 3.38132C13.2738 2.83676 14.1544 2.83676 14.6931 3.38132L25.955 14.6374C26.4995 15.1819 26.4995 16.0625 25.955 16.6013L14.6931 27.8631C14.1486 28.4077 13.268 28.4077 12.7292 27.8631L11.4432 26.5771C10.8928 26.0267 10.9044 25.1288 11.4663 24.59L18.4471 17.9395H1.79758C1.02709 17.9395 0.407227 17.3196 0.407227 16.5491V14.6953C0.407227 13.9248 1.02709 13.305 1.79758 13.305H18.4471L11.4663 6.65444C10.8986 6.11568 10.887 5.21774 11.4432 4.66739Z" fill="black"/>
</g>
<defs>
<clipPath id="clip0_201_5907">
<rect width="25.9533" height="29.6609" fill="white" transform="translate(0.407227 0.791992)"/>
</clipPath>
</defs>
</svg>
