<svg width="31" height="31" viewBox="0 0 31 31" fill="none" xmlns="http://www.w3.org/2000/svg">
<path d="M1.22095 15.6221C1.22095 7.68552 7.65134 1.25513 15.5879 1.25513C23.5245 1.25513 29.9549 7.68552 29.9549 15.6221C29.9549 23.5587 23.5245 29.9891 15.5879 29.9891C7.65134 29.9891 1.22095 23.5587 1.22095 15.6221ZM9.5399 17.2963L13.7341 12.9225V23.5008C13.7341 24.2713 14.354 24.8911 15.1245 24.8911H16.0514C16.8219 24.8911 17.4417 24.2713 17.4417 23.5008V12.9225L21.636 17.2963C22.1747 17.8583 23.0727 17.8699 23.623 17.3195L24.2545 16.6823C24.799 16.1377 24.799 15.2572 24.2545 14.7184L16.5728 7.03089C16.0282 6.48633 15.1477 6.48633 14.6089 7.03089L6.91561 14.7184C6.37105 15.2629 6.37105 16.1435 6.91561 16.6823L7.54706 17.3195C8.1032 17.8699 9.00114 17.8583 9.5399 17.2963Z" fill="black"/>
</svg>
