<svg width="31" height="31" viewBox="0 0 31 31" fill="none" xmlns="http://www.w3.org/2000/svg">
<g clip-path="url(#clip0_201_5899)">
<path d="M21.3852 25.4575L16.7973 30.0455C16.2543 30.5885 15.374 30.5885 14.831 30.0455L10.2431 25.4575C9.36725 24.5817 9.98758 23.084 11.2263 23.0841H14.1902L14.1901 17.2443H8.35038V20.2082C8.35038 21.4469 6.85279 22.0672 5.97687 21.1914L1.38893 16.6034C0.845942 16.0604 0.845942 15.1801 1.38893 14.6372L5.97687 10.0492C6.85274 9.17337 8.35038 9.7937 8.35038 11.0324V14.0002H14.1901V8.16044H11.2223C9.98358 8.16044 9.36325 6.66285 10.2391 5.78693L14.8271 1.19899C15.37 0.656 16.2503 0.656 16.7933 1.19899L21.3812 5.78693C22.2571 6.66279 21.6368 8.16044 20.3981 8.16044H17.4342V14.0002H23.2739V11.0363C23.2739 9.79758 24.7715 9.17725 25.6474 10.0531L30.2353 14.6411C30.7783 15.184 30.7783 16.0644 30.2353 16.6073L25.6474 21.1952C24.7715 22.0711 23.2739 21.4508 23.2739 20.2121V17.2443H17.4343V23.084H20.4021C21.6408 23.084 22.2611 24.5816 21.3852 25.4575Z" fill="black"/>
</g>
<defs>
<clipPath id="clip0_201_5899">
<rect width="29.6609" height="29.6609" fill="white" transform="translate(0.981689 0.791992)"/>
</clipPath>
</defs>
</svg>
