<svg width="30" height="31" viewBox="0 0 30 31" fill="none" xmlns="http://www.w3.org/2000/svg">
<g clip-path="url(#clip0_201_5915)">
<path d="M15.0779 1.25513C23.0145 1.25513 29.4449 7.68552 29.4449 15.6221C29.4449 23.5587 23.0145 29.9891 15.0779 29.9891C7.14133 29.9891 0.710938 23.5587 0.710938 15.6221C0.710938 7.68552 7.14133 1.25513 15.0779 1.25513ZM13.4037 9.57408L17.7775 13.7683H7.19926C6.42877 13.7683 5.8089 14.3882 5.8089 15.1587V16.0856C5.8089 16.8561 6.42877 17.4759 7.19926 17.4759H17.7775L13.4037 21.6702C12.8418 22.2089 12.8302 23.1069 13.3805 23.6572L14.0178 24.2887C14.5623 24.8332 15.4429 24.8332 15.9817 24.2887L23.6692 16.607C24.2137 16.0624 24.2137 15.1818 23.6692 14.6431L15.9817 6.94979C15.4371 6.40523 14.5565 6.40523 14.0178 6.94979L13.3805 7.58124C12.8302 8.13738 12.8418 9.03532 13.4037 9.57408Z" fill="black"/>
</g>
<defs>
<clipPath id="clip0_201_5915">
<rect width="29.6609" height="29.6609" fill="white" transform="translate(0.248047 0.791992)"/>
</clipPath>
</defs>
</svg>
