<svg width="31" height="31" viewBox="0 0 31 31" fill="none" xmlns="http://www.w3.org/2000/svg">
<path d="M1.18359 15.6221C1.18359 7.68552 7.61398 1.25513 15.5506 1.25513C23.4872 1.25513 29.9176 7.68552 29.9176 15.6221C29.9176 23.5587 23.4872 29.9891 15.5506 29.9891C7.61398 29.9891 1.18359 23.5587 1.18359 15.6221ZM18.0996 22.3422V15.6221H22.2069C22.8268 15.6221 23.1396 14.869 22.6993 14.4345L16.043 7.81296C15.7707 7.54069 15.3362 7.54069 15.064 7.81296L8.40185 14.4345C7.96157 14.8748 8.2744 15.6221 8.89427 15.6221H13.0016V22.3422C13.0016 22.7245 13.3144 23.0373 13.6968 23.0373H17.4044C17.7867 23.0373 18.0996 22.7245 18.0996 22.3422Z" fill="black"/>
</svg>
