<svg width="31" height="31" viewBox="0 0 31 31" fill="none" xmlns="http://www.w3.org/2000/svg">
<path d="M15.5334 29.9891C7.59677 29.9891 1.16638 23.5587 1.16638 15.6221C1.16638 7.68552 7.59677 1.25513 15.5334 1.25513C23.47 1.25513 29.9004 7.68552 29.9004 15.6221C29.9004 23.5587 23.47 29.9891 15.5334 29.9891ZM22.2534 13.0731H15.5334V8.9658C15.5334 8.34593 14.7803 8.0331 14.3458 8.47338L7.72422 15.1297C7.45194 15.402 7.45194 15.8365 7.72422 16.1087L14.3458 22.7651C14.7861 23.2053 15.5334 22.8925 15.5334 22.2726V18.1711H22.2534C22.6358 18.1711 22.9486 17.8583 22.9486 17.4759V13.7683C22.9486 13.386 22.6358 13.0731 22.2534 13.0731Z" fill="black"/>
</svg>
