<svg width="27" height="31" viewBox="0 0 27 31" fill="none" xmlns="http://www.w3.org/2000/svg">
<g clip-path="url(#clip0_201_5909)">
<path d="M15.1081 26.5771L13.822 27.8631C13.2775 28.4077 12.3969 28.4077 11.8582 27.8631L0.596283 16.6071C0.0517274 16.0625 0.0517274 15.1819 0.596283 14.6432L11.8582 3.38132C12.4027 2.83676 13.2833 2.83676 13.822 3.38132L15.1081 4.66739C15.6585 5.21774 15.6469 6.11568 15.0849 6.65444L8.1042 13.305H24.7537C25.5242 13.305 26.144 13.9248 26.144 14.6953V16.5491C26.144 17.3196 25.5242 17.9395 24.7537 17.9395H8.1042L15.0849 24.59C15.6527 25.1288 15.6642 26.0267 15.1081 26.5771Z" fill="black"/>
</g>
<defs>
<clipPath id="clip0_201_5909">
<rect width="25.9533" height="29.6609" fill="white" transform="translate(0.190552 0.791992)"/>
</clipPath>
</defs>
</svg>
