<svg width="30" height="31" viewBox="0 0 30 31" fill="none" xmlns="http://www.w3.org/2000/svg">
<g clip-path="url(#clip0_201_5927)">
<path d="M29.3912 15.6221C29.3912 23.5587 22.9608 29.9891 15.0242 29.9891C7.08762 29.9891 0.657227 23.5587 0.657227 15.6221C0.657227 7.68552 7.08762 1.25513 15.0242 1.25513C22.9608 1.25513 29.3912 7.68552 29.3912 15.6221ZM12.4752 8.90208V15.6221H8.3679C7.74803 15.6221 7.4352 16.3752 7.87548 16.8097L14.5318 23.4313C14.8041 23.7036 15.2386 23.7036 15.5108 23.4313L22.1672 16.8097C22.6074 16.3694 22.2946 15.6221 21.6747 15.6221H17.5732V8.90208C17.5732 8.51973 17.2604 8.2069 16.878 8.2069H13.1704C12.7881 8.2069 12.4752 8.51973 12.4752 8.90208Z" fill="black"/>
</g>
<defs>
<clipPath id="clip0_201_5927">
<rect width="29.6609" height="29.6609" fill="white" transform="translate(0.193359 0.791992)"/>
</clipPath>
</defs>
</svg>
