<svg width="30" height="31" viewBox="0 0 30 31" fill="none" xmlns="http://www.w3.org/2000/svg">
<g clip-path="url(#clip0_201_5923)">
<path d="M15.0425 1.25513C22.9791 1.25513 29.4095 7.68552 29.4095 15.6221C29.4095 23.5587 22.9791 29.9891 15.0425 29.9891C7.10593 29.9891 0.675537 23.5587 0.675537 15.6221C0.675537 7.68552 7.10593 1.25513 15.0425 1.25513ZM8.32249 18.1711H15.0425V22.2784C15.0425 22.8983 15.7956 23.2111 16.2301 22.7709L22.8517 16.1145C23.124 15.8423 23.124 15.4078 22.8517 15.1355L16.2301 8.47338C15.7898 8.0331 15.0425 8.34593 15.0425 8.9658V13.0731H8.32249C7.94014 13.0731 7.62731 13.386 7.62731 13.7683V17.4759C7.62731 17.8583 7.94014 18.1711 8.32249 18.1711Z" fill="black"/>
</g>
<defs>
<clipPath id="clip0_201_5923">
<rect width="29.6609" height="29.6609" fill="white" transform="translate(0.21167 0.791992)"/>
</clipPath>
</defs>
</svg>
