<svg width="31" height="30" viewBox="0 0 31 30" fill="none" xmlns="http://www.w3.org/2000/svg">
<g clip-path="url(#clip0_201_5893)">
<path d="M15.7398 0.594238C7.79977 0.594238 1.3728 7.01993 1.3728 14.9612C1.3728 22.9013 7.7985 29.3282 15.7398 29.3282C18.5294 29.3282 21.2631 28.5091 23.5842 26.9981C24.2796 26.5453 24.4314 25.591 23.9058 24.9489L23.3162 24.2286C22.8718 23.6858 22.0893 23.5528 21.4988 23.9315C19.7904 25.0272 17.7856 25.6206 15.7398 25.6206C9.86219 25.6206 5.08041 20.8388 5.08041 14.9612C5.08041 9.08363 9.86219 4.30185 15.7398 4.30185C21.541 4.30185 26.3992 7.6398 26.3992 13.5709C26.3992 15.8178 25.1772 18.1904 23.0293 18.4193C22.0243 18.393 22.0497 17.6745 22.2486 16.68L23.6061 9.66393C23.7722 8.80602 23.1149 8.00946 22.2412 8.00946H19.6353C19.4429 8.00946 19.2573 8.08028 19.1137 8.20842C18.9702 8.33657 18.8789 8.51306 18.8572 8.70423L18.8566 8.70956C18.0052 7.67253 16.5134 7.44811 15.3824 7.44811C11.0619 7.44811 7.39767 11.0534 7.39767 16.2224C7.39767 20.0055 9.52868 22.3556 12.9591 22.3556C14.5223 22.3556 16.2826 21.4497 17.3034 20.1349C17.855 22.1106 19.6562 22.1105 21.3998 22.1105C27.709 22.1105 30.1068 17.962 30.1068 13.5709C30.1068 5.6721 23.7357 0.594238 15.7398 0.594238ZM14.4838 18.2303C13.1949 18.2303 12.3943 17.3252 12.3943 15.8684C12.3943 13.2619 14.1773 11.6551 15.7908 11.6551C17.0822 11.6551 17.8532 12.538 17.8532 14.0169C17.8532 16.6274 15.8908 18.2303 14.4838 18.2303Z" fill="black"/>
</g>
<defs>
<clipPath id="clip0_201_5893">
<rect width="29.6609" height="29.6609" fill="white" transform="translate(0.909912 0.131104)"/>
</clipPath>
</defs>
</svg>
