<svg width="27" height="30" viewBox="0 0 27 30" fill="none" xmlns="http://www.w3.org/2000/svg">
<g clip-path="url(#clip0_201_5891)">
<path d="M18.5709 12.1808H16.3063C16.22 13.7467 15.9274 15.1556 15.4831 16.2598C17.0884 15.4928 18.265 13.9895 18.5709 12.1808ZM18.5709 10.327C18.2644 8.51842 17.0884 7.01509 15.4831 6.24808C15.928 7.35226 16.22 8.76115 16.3063 10.327H18.5709ZM13.1033 5.76841C12.6578 6.2 11.9001 7.76241 11.746 10.327H14.4612C14.3065 7.76299 13.5488 6.2 13.1033 5.76841ZM10.7235 6.24808C9.11818 7.01509 7.9416 8.51842 7.63572 10.327H9.90026C9.98658 8.76115 10.2786 7.35226 10.7235 6.24808ZM10.7235 16.2598C10.2786 15.1556 9.98658 13.7467 9.90026 12.1808H7.63572C7.9416 13.9895 9.11818 15.4928 10.7235 16.2598ZM14.4606 12.1808H11.7454C11.8995 14.7449 12.6572 16.3079 13.1027 16.7395C13.5488 16.3079 14.3065 14.7449 14.4606 12.1808ZM26.0799 20.8937V1.61415C26.0799 0.687245 25.5238 0.131104 24.5969 0.131104H5.68806C2.5366 0.131104 0.126648 2.54105 0.126648 5.69252V24.2306C0.126648 27.382 2.5366 29.792 5.68806 29.792H24.5969C25.3384 29.792 26.0799 29.2358 26.0799 28.3089V27.382C26.0799 27.0113 25.8945 26.6405 25.5238 26.2698C25.3384 25.3429 25.3384 22.7475 25.5238 22.006C25.8945 21.8206 26.0799 21.4499 26.0799 20.8937ZM13.1033 3.83871C17.1985 3.83871 20.5185 7.15876 20.5185 11.2539C20.5185 15.3491 17.1985 18.6692 13.1033 18.6692C9.00811 18.6692 5.68806 15.3491 5.68806 11.2539C5.68806 7.15876 9.00811 3.83871 13.1033 3.83871ZM22.3723 26.0844H5.68806C4.57578 26.0844 3.83426 25.3429 3.83426 24.2306C3.83426 23.1183 4.76116 22.3768 5.68806 22.3768H22.3723V26.0844Z" fill="black"/>
</g>
<defs>
<clipPath id="clip0_201_5891">
<rect width="25.9533" height="29.6609" fill="white" transform="translate(0.126587 0.131104)"/>
</clipPath>
</defs>
</svg>
