<svg width="31" height="30" viewBox="0 0 31 30" fill="none" xmlns="http://www.w3.org/2000/svg">
<g clip-path="url(#clip0_201_5887)">
<path d="M10.2911 13.9598L10.8021 15.7357H9.31876L9.84251 13.9599C9.91649 13.7038 9.99609 13.381 10.0668 13.0768C10.1375 13.381 10.2171 13.7038 10.2911 13.9598ZM19.9352 12.1002H19.0938V17.8227H19.9352C21.6601 17.8227 22.6101 16.7986 22.6101 14.9392C22.6101 13.0715 21.5969 12.1002 19.9352 12.1002ZM30.5135 6.61933V23.3036C30.5135 24.8393 29.2685 26.0843 27.7328 26.0843H3.63331C2.09755 26.0843 0.8526 24.8393 0.8526 23.3036V6.61933C0.8526 5.08357 2.09755 3.83862 3.63331 3.83862H27.7328C29.2685 3.83862 30.5135 5.08357 30.5135 6.61933ZM15.0724 19.604L11.7647 9.87154C11.7179 9.73406 11.6293 9.61465 11.5113 9.53009C11.3932 9.44552 11.2517 9.40005 11.1065 9.40004H9.02707C8.88186 9.40005 8.74029 9.44552 8.62224 9.53009C8.50419 9.61465 8.41559 9.73406 8.36885 9.87154L5.06114 19.604C4.90797 20.0549 5.24317 20.5229 5.71936 20.5229H7.40708C7.55804 20.5229 7.70489 20.4737 7.82545 20.3829C7.94601 20.292 8.03371 20.1644 8.07532 20.0193L8.57202 18.2868H11.5478L12.0572 20.0234C12.0995 20.1675 12.1873 20.2941 12.3076 20.3842C12.4278 20.4742 12.574 20.5229 12.7243 20.5229H14.4142C14.8904 20.5229 15.2256 20.0549 15.0724 19.604ZM25.7724 14.9391C25.7724 11.5225 23.5757 9.40004 20.0395 9.40004H16.7162C16.3323 9.40004 16.021 9.71131 16.021 10.0952V19.8277C16.021 20.2116 16.3323 20.5229 16.7162 20.5229H20.0395C23.5757 20.5229 25.7724 18.3833 25.7724 14.9391Z" fill="black"/>
</g>
<defs>
<clipPath id="clip0_201_5887">
<rect width="29.6609" height="29.6609" fill="white" transform="translate(0.852417 0.131104)"/>
</clipPath>
</defs>
</svg>
