<svg width="24" height="30" viewBox="0 0 24 30" fill="none" xmlns="http://www.w3.org/2000/svg">
<g clip-path="url(#clip0_201_5885)">
<path d="M6.40315 21.1385C5.89972 20.6351 6.16215 20.777 4.94791 20.452C4.39698 20.3043 3.91268 20.0204 3.47471 19.6804L0.846366 26.1247C0.592047 26.7486 1.06708 27.4264 1.74025 27.4009L4.79265 27.2845L6.89209 29.5021C7.35554 29.991 8.1689 29.8387 8.42322 29.2147L11.4385 21.8215C10.8106 22.1714 10.1137 22.3765 9.39299 22.3765C8.26332 22.3765 7.20202 21.9368 6.40315 21.1385ZM22.953 26.1247L20.3246 19.6804C19.8867 20.021 19.4024 20.3043 18.8515 20.452C17.6308 20.7788 17.8985 20.6362 17.3962 21.1385C16.5973 21.9368 15.5355 22.3765 14.4058 22.3765C13.6851 22.3765 12.9882 22.1708 12.3602 21.8215L15.3756 29.2147C15.6299 29.8387 16.4438 29.991 16.9067 29.5021L19.0067 27.2845L22.0591 27.4009C22.7323 27.4264 23.2073 26.748 22.953 26.1247ZM16.0128 19.8275C16.898 18.9267 16.9994 19.0043 18.26 18.6608C19.0646 18.4412 19.6938 17.8011 19.9093 16.9819C20.3426 15.3367 20.2302 15.5354 21.4126 14.3316C22.0018 13.732 22.2318 12.8578 22.0162 12.0386C21.5835 10.3945 21.5829 10.624 22.0162 8.97812C22.2318 8.15897 22.0018 7.28479 21.4126 6.6852C20.2302 5.48138 20.3426 5.67951 19.9093 4.03484C19.6938 3.21569 19.0646 2.57554 18.26 2.35598C16.6448 1.91513 16.8395 2.03041 15.656 0.826015C15.0668 0.226425 14.2077 -0.00819722 13.403 0.211363C11.7885 0.651642 12.0138 0.652221 10.3964 0.211363C9.59169 -0.00819722 8.73257 0.225846 8.14341 0.826015C6.96103 2.02983 7.15568 1.91513 5.53997 2.35598C4.7353 2.57554 4.10617 3.21569 3.89066 4.03484C3.45791 5.67951 3.56972 5.48138 2.38734 6.6852C1.79818 7.28479 1.56761 8.15897 1.7837 8.97812C2.21644 10.6211 2.21702 10.3917 1.7837 12.0381C1.56819 12.8572 1.79818 13.7314 2.38734 14.3316C3.56972 15.5354 3.45733 15.3367 3.89066 16.9819C4.10617 17.8011 4.7353 18.4412 5.53997 18.6608C6.83647 19.0142 6.93322 18.9585 7.78655 19.8275C8.55298 20.6079 9.74695 20.7475 10.6681 20.1647C11.0364 19.9308 11.4637 19.8067 11.9 19.8067C12.3363 19.8067 12.7635 19.9308 13.1319 20.1647C14.0524 20.7475 15.2464 20.6079 16.0128 19.8275ZM6.43443 10.3245C6.43443 7.25235 8.88145 4.76188 11.8997 4.76188C14.9179 4.76188 17.3649 7.25235 17.3649 10.3245C17.3649 13.3966 14.9179 15.887 11.8997 15.887C8.88145 15.887 6.43443 13.3966 6.43443 10.3245Z" fill="black"/>
</g>
<defs>
<clipPath id="clip0_201_5885">
<rect width="22.2457" height="29.6609" fill="white" transform="translate(0.776733 0.131104)"/>
</clipPath>
</defs>
</svg>
