<svg width="30" height="30" viewBox="0 0 30 30" fill="none" xmlns="http://www.w3.org/2000/svg">
<g clip-path="url(#clip0_201_5883)">
<path d="M8.67436 1.11581C8.01973 0.0846352 6.51931 -0.205022 5.54606 0.571259C2.33087 3.13762 0.285889 6.96689 0.285889 11.2538H15.1163L8.67436 1.11581ZM29.0199 5.6924H26.2392C24.1942 5.6924 22.5316 7.35503 22.5316 9.40001V13.1076H0.285889C0.285889 16.0389 1.61831 18.6922 3.77915 20.6793C1.77473 21.1948 0.285889 22.9965 0.285889 25.1574C0.285889 27.7179 2.35983 29.7919 4.9204 29.7919C7.48097 29.7919 9.55492 27.7179 9.55492 25.1574C9.55492 24.6418 9.45064 24.1609 9.30002 23.6975C10.5513 24.0393 11.8838 24.2305 13.2625 24.2305C14.6413 24.2305 15.9795 24.0393 17.225 23.6975C17.0686 24.1609 16.9701 24.6418 16.9701 25.1574C16.9701 27.7179 19.0441 29.7919 21.6047 29.7919C24.1652 29.7919 26.2392 27.7179 26.2392 25.1574C26.2392 22.9965 24.7503 21.1948 22.7459 20.6793C24.9067 18.6922 26.2392 16.0389 26.2392 13.1076V9.40001H29.0199C29.5297 9.40001 29.9468 8.9829 29.9468 8.4731V6.6193C29.9468 6.1095 29.5297 5.6924 29.0199 5.6924ZM4.9204 27.0112C3.90081 27.0112 3.0666 26.1769 3.0666 25.1574C3.0666 24.1378 3.90081 23.3036 4.9204 23.3036C5.94 23.3036 6.77421 24.1378 6.77421 25.1574C6.77421 26.1769 5.94 27.0112 4.9204 27.0112ZM23.4585 25.1574C23.4585 26.1769 22.6242 27.0112 21.6047 27.0112C20.5851 27.0112 19.7508 26.1769 19.7508 25.1574C19.7508 24.1378 20.5851 23.3036 21.6047 23.3036C22.6242 23.3036 23.4585 24.1378 23.4585 25.1574Z" fill="black"/>
</g>
<defs>
<clipPath id="clip0_201_5883">
<rect width="29.6609" height="29.6609" fill="white" transform="translate(0.285889 0.131104)"/>
</clipPath>
</defs>
</svg>
