<svg width="34" height="30" viewBox="0 0 34 30" fill="none" xmlns="http://www.w3.org/2000/svg">
<g clip-path="url(#clip0_201_5875)">
<path d="M13.298 19.6189C15.3192 17.5977 15.8586 16.1604 16.4292 14.6368C17.0438 12.998 17.6799 11.3035 19.9844 8.9978C22.289 6.69213 23.9846 6.05662 25.6241 5.44197C27.0075 4.92058 28.326 4.41774 30.0726 2.81362L27.8903 0.647562C27.5855 0.347482 27.1835 0.166088 26.7568 0.136032C26.33 0.105976 25.9066 0.229234 25.5627 0.483616C24.7725 1.06872 24.1057 1.31725 23.1875 1.65962C14.9247 4.7381 12.7384 11.2131 12.2396 12.5345C10.5161 17.1012 7.05183 18.0195 6.5206 18.217C5.08043 18.7535 3.35002 19.3976 1.24479 21.1344C0.44186 21.7977 0.405363 23.0143 1.14109 23.7448L3.21272 25.802C5.25017 23.9134 6.81432 23.3127 8.32053 22.7472C9.84239 22.1772 11.2785 21.6396 13.298 19.6189ZM33.4581 6.17885L31.3871 4.12171C29.3485 6.01201 27.7849 6.61276 26.2746 7.17991C24.7534 7.75053 23.3167 8.28988 21.2954 10.3082C19.2742 12.3265 18.7354 13.7661 18.1671 15.2903C17.5507 16.9315 16.9141 18.6243 14.609 20.9288C12.3039 23.2333 10.6117 23.8676 8.97226 24.4811C7.59002 25.0025 6.27208 25.5042 4.52776 27.1072L6.71062 29.2755C7.01557 29.5755 7.41759 29.7568 7.84431 29.7868C8.27104 29.8167 8.69444 29.6934 9.0383 29.4389C9.82617 28.8561 10.4918 28.6082 11.41 28.2664C19.6479 25.196 21.8377 18.7598 22.3556 17.3932C24.0779 12.8288 27.5422 11.9089 28.0751 11.7096C29.5159 11.1725 31.2463 10.5278 33.3533 8.78924C34.1579 8.12883 34.1944 6.90937 33.4587 6.17943L33.4581 6.17885Z" fill="black"/>
</g>
<defs>
<clipPath id="clip0_201_5875">
<rect width="33.3685" height="29.6609" fill="white" transform="translate(0.614746 0.131104)"/>
</clipPath>
</defs>
</svg>
