<svg width="31" height="30" viewBox="0 0 31 30" fill="none" xmlns="http://www.w3.org/2000/svg">
<g clip-path="url(#clip0_201_5869)">
<path d="M29.4753 11.8634L23.1029 10.9689L25.5255 4.92435C25.9119 3.96037 24.8535 3.06012 23.9851 3.61336L18.5373 7.08287L16.5624 0.873784C16.4054 0.378471 15.9813 0.131104 15.5573 0.131104C15.1332 0.131104 14.7092 0.378471 14.5522 0.873784L12.5773 7.08345L7.12942 3.61394C6.26103 3.0607 5.2032 3.96095 5.58903 4.92493L8.01172 10.9695L1.63926 11.8634C0.623143 12.0059 0.383307 13.3852 1.28993 13.8719L6.97648 16.9225L2.66175 21.7621C2.02914 22.4718 2.56211 23.5539 3.43166 23.5539C3.50755 23.5539 3.58634 23.5458 3.66744 23.5279L9.95706 22.1578L9.71896 28.678C9.69405 29.3529 10.2328 29.7914 10.7855 29.7914C11.0838 29.7914 11.3874 29.6634 11.6081 29.3755L15.5579 24.2254L19.5076 29.3755C19.7283 29.6634 20.0313 29.7914 20.3303 29.7914C20.8829 29.7914 21.4217 29.3529 21.3968 28.678L21.1587 22.1578L27.4483 23.5279C28.454 23.7457 29.1405 22.5314 28.4534 21.7615L24.1387 16.9219L29.8252 13.8713C30.7313 13.3852 30.4914 12.0059 29.4753 11.8634ZM20.3372 18.1872L17.3311 17.5325L17.4453 20.6487L15.5573 18.1872L13.6693 20.6487L13.7828 17.5325L10.7768 18.1872L12.8391 15.874L10.121 14.4158L13.1665 13.9883L12.0084 11.0993L14.6124 12.7573L15.5573 9.78943L16.501 12.7573L19.105 11.0993L17.947 13.9883L20.9924 14.4158L18.2743 15.874L20.3372 18.1872Z" fill="black"/>
</g>
<defs>
<clipPath id="clip0_201_5869">
<rect width="29.6609" height="29.6609" fill="white" transform="translate(0.726807 0.131104)"/>
</clipPath>
</defs>
</svg>
