<svg width="38" height="30" viewBox="0 0 38 30" fill="none" xmlns="http://www.w3.org/2000/svg">
<g clip-path="url(#clip0_201_5863)">
<path d="M14.8389 19.5963H14.8377C14.8377 18.659 14.9153 19.0906 9.91064 9.08117C8.88815 7.03677 5.9603 7.03272 4.93607 9.08117C-0.110916 19.1763 0.00958148 18.6885 0.00958148 19.5963H0.00842285C0.00842285 22.1557 3.32847 24.2308 7.42365 24.2308C11.5188 24.2308 14.8389 22.1557 14.8389 19.5963ZM7.42365 10.3273L11.5947 18.6694H3.25258L7.42365 10.3273ZM37.0834 19.5963C37.0834 18.659 37.161 19.0906 32.1563 9.08117C31.1338 7.03677 28.206 7.03272 27.1817 9.08117C22.1348 19.1763 22.2552 18.6885 22.2552 19.5963H22.2541C22.2541 22.1557 25.5741 24.2308 29.6693 24.2308C33.7645 24.2308 37.0845 22.1557 37.0845 19.5963H37.0834ZM25.4982 18.6694L29.6693 10.3273L33.8404 18.6694H25.4982ZM30.5962 26.0846H20.4003V9.00934C21.7623 8.41322 22.7847 7.18566 23.0877 5.69276H30.5962C31.1083 5.69276 31.5231 5.27798 31.5231 4.76586V2.91206C31.5231 2.39994 31.1083 1.98515 30.5962 1.98515H22.2332C21.3874 0.865918 20.0579 0.131348 18.5465 0.131348C17.035 0.131348 15.7055 0.865918 14.8597 1.98515H6.49674C5.98463 1.98515 5.56984 2.39994 5.56984 2.91206V4.76586C5.56984 5.27798 5.98463 5.69276 6.49674 5.69276H14.0052C14.3082 7.18508 15.3301 8.41322 16.6927 9.00934V26.0846H6.49674C5.98463 26.0846 5.56984 26.4994 5.56984 27.0115V28.8653C5.56984 29.3774 5.98463 29.7922 6.49674 29.7922H30.5962C31.1083 29.7922 31.5231 29.3774 31.5231 28.8653V27.0115C31.5231 26.4994 31.1083 26.0846 30.5962 26.0846Z" fill="black"/>
</g>
<defs>
<clipPath id="clip0_201_5863">
<rect width="37.0761" height="29.6609" fill="white" transform="translate(0.00842285 0.131104)"/>
</clipPath>
</defs>
</svg>
