<svg width="38" height="30" viewBox="0 0 38 30" fill="none" xmlns="http://www.w3.org/2000/svg">
<g clip-path="url(#clip0_201_5865)">
<path d="M6.47597 27.0113V28.8651C6.47597 29.3772 6.89076 29.792 7.40287 29.792H20.3795C20.8916 29.792 21.3064 29.3772 21.3064 28.8651V9.0091C21.5706 8.89323 21.8232 8.7571 22.0589 8.59663L30.2881 11.3559C30.7736 11.5187 31.299 11.2568 31.4618 10.772L32.051 9.01431C32.2137 8.52885 31.9519 8.00341 31.467 7.84062L24.0286 5.34667C24.0529 5.15434 24.0871 4.96433 24.0871 4.76562C24.0871 2.20621 22.012 0.131107 19.4526 0.131107C17.7326 0.131107 16.249 1.07886 15.449 2.4698L8.61711 0.17919C8.13165 0.0164027 7.60621 0.278253 7.44342 0.763139L6.85426 2.52078C6.69147 3.00624 6.95332 3.53168 7.43821 3.69447L15.0852 6.25851C15.5069 7.48956 16.4153 8.49119 17.5982 9.00852V26.0844H7.40287C6.89076 26.0844 6.47597 26.4992 6.47597 27.0113ZM0.914551 17.7423C0.914551 20.3017 4.2346 22.3768 8.32977 22.3768C12.4249 22.3768 15.745 20.3017 15.745 17.7423H15.7438C15.7438 16.8345 15.8643 17.3223 10.8168 7.22713C9.79254 5.17867 6.86469 5.18273 5.8422 7.22713C0.838081 17.2365 0.915709 16.8049 0.915709 17.7423H0.914551ZM4.15871 16.8154L8.32977 8.47323L12.5008 16.8154H4.15871ZM23.1614 25.1575H23.1602C23.1602 27.7169 26.4803 29.792 30.5754 29.792C34.6706 29.792 37.9907 27.7169 37.9907 25.1575H37.9895C37.9895 24.2497 38.11 24.7375 33.0624 14.6423C32.0382 12.5939 29.1104 12.5979 28.0879 14.6423C23.0837 24.6517 23.1614 24.2202 23.1614 25.1575ZM26.4044 24.2306L30.5754 15.8885L34.7465 24.2306H26.4044Z" fill="black"/>
</g>
<defs>
<clipPath id="clip0_201_5865">
<rect width="37.0761" height="29.6609" fill="white" transform="translate(0.914551 0.131104)"/>
</clipPath>
</defs>
</svg>
