<svg width="38" height="30" viewBox="0 0 38 30" fill="none" xmlns="http://www.w3.org/2000/svg">
<g clip-path="url(#clip0_201_5867)">
<path d="M31.4087 26.0844H21.2128V9.00909C22.3957 8.49119 23.3041 7.49013 23.7258 6.25909L31.3728 3.69504C31.8583 3.53226 32.1195 3.00682 31.9567 2.52135L31.3676 0.763715C31.2048 0.278249 30.6794 0.0169786 30.1939 0.179766L23.3626 2.46979C22.5626 1.07886 21.079 0.131104 19.359 0.131104C16.7996 0.131104 14.7245 2.20621 14.7245 4.76562C14.7245 4.96432 14.7586 5.15434 14.783 5.34667L7.34516 7.84062C6.85969 8.0034 6.59842 8.52884 6.76121 9.01431L7.35037 10.7719C7.51316 11.2574 8.0386 11.5187 8.52406 11.3559L16.7532 8.59662C16.989 8.75709 17.2416 8.89323 17.5058 9.00909V28.8651C17.5058 29.3772 17.9205 29.792 18.4327 29.792H31.4093C31.9214 29.792 32.3362 29.3772 32.3362 28.8651V27.0113C32.3356 26.4992 31.9208 26.0844 31.4087 26.0844ZM37.8959 17.7423C37.8959 16.8049 37.9735 17.2365 32.9688 7.22712C31.9463 5.18272 29.0185 5.17867 27.9942 7.22712C22.9473 17.3223 23.0677 16.8345 23.0677 17.7423H23.0666C23.0666 20.3017 26.3866 22.3768 30.4818 22.3768C34.577 22.3768 37.897 20.3017 37.897 17.7423H37.8959ZM26.3107 16.8154L30.4818 8.47323L34.6529 16.8154H26.3107ZM10.7231 14.6423C9.70065 12.5979 6.7728 12.5939 5.74857 14.6423C0.701584 24.7375 0.822081 24.2497 0.822081 25.1575H0.820923C0.820923 27.7169 4.14097 29.792 8.23615 29.792C12.3313 29.792 15.6514 27.7169 15.6514 25.1575H15.6502C15.6502 24.2201 15.7278 24.6517 10.7231 14.6423ZM4.06508 24.2306L8.23615 15.8885L12.4072 24.2306H4.06508Z" fill="black"/>
</g>
<defs>
<clipPath id="clip0_201_5867">
<rect width="37.0761" height="29.6609" fill="white" transform="translate(0.820679 0.131104)"/>
</clipPath>
</defs>
</svg>
