<svg width="31" height="30" viewBox="0 0 31 30" fill="none" xmlns="http://www.w3.org/2000/svg">
<g clip-path="url(#clip0_201_5861)">
<path d="M15.3486 0.594482C7.41393 0.594482 0.981567 7.02678 0.981567 14.9615C0.981567 22.8962 7.41393 29.3285 15.3486 29.3285C23.2832 29.3285 29.7156 22.8961 29.7156 14.9615C29.7156 7.02684 23.2833 0.594482 15.3486 0.594482ZM22.8859 7.42413C26.6774 11.2156 26.9411 17.0107 24.0838 21.0749L9.23506 6.22634C13.3021 3.36708 19.0965 3.63478 22.8859 7.42413ZM7.81122 22.4988C4.01972 18.7073 3.75602 12.9123 6.61337 8.84803L21.4621 23.6966C17.3951 26.5559 11.6006 26.2882 7.81122 22.4988Z" fill="black"/>
</g>
<defs>
<clipPath id="clip0_201_5861">
<rect width="29.6609" height="29.6609" fill="white" transform="translate(0.517578 0.131104)"/>
</clipPath>
</defs>
</svg>
