<svg width="38" height="30" viewBox="0 0 38 30" fill="none" xmlns="http://www.w3.org/2000/svg">
<g clip-path="url(#clip0_201_5859)">
<path d="M0.611328 9.40024V20.5231C0.611328 22.5681 2.27396 24.2307 4.31894 24.2307H9.88036V5.69263H4.31894C2.27396 5.69263 0.611328 7.35526 0.611328 9.40024ZM33.9798 5.69263H28.4184V24.2307H33.9798C36.0248 24.2307 37.6874 22.5681 37.6874 20.5231V9.40024C37.6874 7.35526 36.0248 5.69263 33.9798 5.69263ZM11.7342 24.2307H26.5646V5.69263H11.7342V24.2307ZM21.9301 10.7906C22.7006 10.7906 23.3204 11.4105 23.3204 12.1809C23.3204 12.9514 22.7006 13.5713 21.9301 13.5713C21.1596 13.5713 20.5397 12.9514 20.5397 12.1809C20.5397 11.4105 21.1596 10.7906 21.9301 10.7906ZM21.9301 16.352C22.7006 16.352 23.3204 16.9719 23.3204 17.7424C23.3204 18.5129 22.7006 19.1327 21.9301 19.1327C21.1596 19.1327 20.5397 18.5129 20.5397 17.7424C20.5397 16.9719 21.1596 16.352 21.9301 16.352ZM16.3687 10.7906C17.1392 10.7906 17.759 11.4105 17.759 12.1809C17.759 12.9514 17.1392 13.5713 16.3687 13.5713C15.5982 13.5713 14.9783 12.9514 14.9783 12.1809C14.9783 11.4105 15.5982 10.7906 16.3687 10.7906ZM16.3687 16.352C17.1392 16.352 17.759 16.9719 17.759 17.7424C17.759 18.5129 17.1392 19.1327 16.3687 19.1327C15.5982 19.1327 14.9783 18.5129 14.9783 17.7424C14.9783 16.9719 15.5982 16.352 16.3687 16.352Z" fill="black"/>
</g>
<defs>
<clipPath id="clip0_201_5859">
<rect width="37.0761" height="29.6609" fill="white" transform="translate(0.611328 0.131104)"/>
</clipPath>
</defs>
</svg>
