<svg width="27" height="30" viewBox="0 0 27 30" fill="none" xmlns="http://www.w3.org/2000/svg">
<g clip-path="url(#clip0_201_5855)">
<path d="M1.26418 7.778H25.3637C25.8756 7.778 26.2906 7.36303 26.2906 6.85109V4.53384C26.2906 4.0219 25.8756 3.60693 25.3637 3.60693H1.26418C0.752243 3.60693 0.33728 4.0219 0.33728 4.53384V6.85109C0.33728 7.36303 0.752243 7.778 1.26418 7.778ZM1.26418 17.047H25.3637C25.8756 17.047 26.2906 16.6321 26.2906 16.1201V13.8029C26.2906 13.2909 25.8756 12.876 25.3637 12.876H1.26418C0.752243 12.876 0.33728 13.2909 0.33728 13.8029V16.1201C0.33728 16.6321 0.752243 17.047 1.26418 17.047ZM1.26418 26.3161H25.3637C25.8756 26.3161 26.2906 25.9011 26.2906 25.3891V23.0719C26.2906 22.56 25.8756 22.145 25.3637 22.145H1.26418C0.752243 22.145 0.33728 22.56 0.33728 23.0719V25.3891C0.33728 25.9011 0.752243 26.3161 1.26418 26.3161Z" fill="black"/>
</g>
<defs>
<clipPath id="clip0_201_5855">
<rect width="25.9533" height="29.6609" fill="white" transform="translate(0.337158 0.131104)"/>
</clipPath>
</defs>
</svg>
