<svg width="30" height="30" viewBox="0 0 30 30" fill="none" xmlns="http://www.w3.org/2000/svg">
<g clip-path="url(#clip0_201_5853)">
<path d="M22.1209 21.2123L23.7893 20.407C24.4324 21.7337 25.2956 22.9097 26.3441 23.9351C28.3138 21.473 29.5014 18.3563 29.5014 14.9615C29.5014 11.5725 28.3196 8.46157 26.3615 6.00528C25.3303 7.00749 24.4729 8.15453 23.8357 9.4522L22.1731 8.63536C22.9146 7.12915 23.911 5.79672 25.116 4.6381C22.5322 2.14125 19.0216 0.594482 15.1402 0.594482C11.2646 0.594482 7.75393 2.13546 5.17019 4.6323C6.36937 5.78514 7.36579 7.11756 8.10731 8.61798L6.44468 9.43482C5.80743 8.14295 4.95584 6.9959 3.92466 5.99369C1.95499 8.45578 0.773193 11.5667 0.773193 14.9615C0.773193 18.3563 1.95499 21.4672 3.92466 23.9235C4.97901 22.8981 5.84799 21.7221 6.49102 20.3897L8.15945 21.1949C7.41213 22.7417 6.40413 24.1088 5.17598 25.2906C7.75393 27.7875 11.2646 29.3285 15.1402 29.3285C19.01 29.3285 22.5149 27.7933 25.0986 25.3022C23.8762 24.1204 22.8682 22.759 22.1209 21.2123ZM8.89518 19.3585L7.12827 18.7907C7.99145 16.1027 7.864 13.3568 7.09351 11.0279L8.85463 10.4486C9.7236 13.0903 9.89739 16.236 8.89518 19.3585ZM21.4257 10.4718L23.1869 11.0511C22.4222 13.3742 22.2889 16.1201 23.1521 18.8139L21.3852 19.3816C20.383 16.2533 20.5568 13.1077 21.4257 10.4718Z" fill="black"/>
</g>
<defs>
<clipPath id="clip0_201_5853">
<rect width="28.734" height="29.6609" fill="white" transform="translate(0.773193 0.131104)"/>
</clipPath>
</defs>
</svg>
