<svg width="29" height="30" viewBox="0 0 29 30" fill="none" xmlns="http://www.w3.org/2000/svg">
<g clip-path="url(#clip0_201_5851)">
<path d="M12.5071 0.727725C9.9697 1.09269 7.5134 2.12387 5.42787 3.84444L9.91177 8.32833C11.5223 6.25438 12.4202 3.6243 12.5071 0.727725ZM14.5752 12.9918L23.7226 3.84444C21.2663 1.81684 18.3002 0.745104 15.2936 0.594482C15.2241 4.2963 14.0481 7.6795 11.893 10.3096L14.5752 12.9918ZM3.4582 5.8141C1.73764 7.89964 0.706462 10.3559 0.341494 12.8933C3.23807 12.8064 5.87395 11.9085 7.9421 10.298L3.4582 5.8141ZM19.2271 17.6437C21.8514 15.4944 25.2346 14.3184 28.9422 14.2431C28.7916 11.2365 27.7199 8.2704 25.6923 5.8141L16.5449 14.9615L19.2271 17.6437ZM14.5752 16.9311L5.42787 26.0785C7.88417 28.1003 10.8503 29.1778 13.8569 29.3285C13.9322 25.6209 15.1082 22.2377 17.2575 19.6134L14.5752 16.9311ZM25.6923 24.1088C27.4128 22.0233 28.444 19.567 28.809 17.0296C25.9066 17.1223 23.2765 18.0203 21.2084 19.625L25.6923 24.1088ZM9.92335 12.2793C7.29327 14.4343 3.91007 15.6161 0.208252 15.6798C0.358874 18.6865 1.4306 21.6526 3.4582 24.1088L12.6056 14.9615L9.92335 12.2793ZM16.6434 29.1952C19.1808 28.8303 21.6371 27.7991 23.7226 26.0785L19.2387 21.5946C17.634 23.6628 16.7361 26.2987 16.6434 29.1952Z" fill="black"/>
</g>
<defs>
<clipPath id="clip0_201_5851">
<rect width="28.734" height="29.6609" fill="white" transform="translate(0.209229 0.131104)"/>
</clipPath>
</defs>
</svg>
