<svg width="38" height="30" viewBox="0 0 38 30" fill="none" xmlns="http://www.w3.org/2000/svg">
<g clip-path="url(#clip0_201_5845)">
<path d="M32.4206 9.40024V13.1078H34.2744V16.8155H32.4206V20.5231H4.61349V9.40024H32.4206ZM33.3475 5.69263H3.68659C2.15083 5.69263 0.905884 6.93757 0.905884 8.47334V21.45C0.905884 22.9857 2.15083 24.2307 3.68659 24.2307H33.3475C34.8832 24.2307 36.1282 22.9857 36.1282 21.45V20.5231H36.5916C37.3595 20.5231 37.982 19.9006 37.982 19.1327V10.7906C37.982 10.0227 37.3595 9.40024 36.5916 9.40024H36.1282V8.47334C36.1282 6.93757 34.8832 5.69263 33.3475 5.69263ZM30.5668 11.254H6.4673V18.6693H30.5668V11.254Z" fill="black"/>
</g>
<defs>
<clipPath id="clip0_201_5845">
<rect width="37.0761" height="29.6609" fill="white" transform="translate(0.906128 0.131104)"/>
</clipPath>
</defs>
</svg>
