<svg width="38" height="30" viewBox="0 0 38 30" fill="none" xmlns="http://www.w3.org/2000/svg">
<g clip-path="url(#clip0_201_5843)">
<path d="M31.5147 9.40024V13.1078H33.3685V16.8155H31.5147V20.5231H3.70761V9.40024H31.5147ZM32.4416 5.69263H2.78071C1.24495 5.69263 0 6.93757 0 8.47334V21.45C0 22.9857 1.24495 24.2307 2.78071 24.2307H32.4416C33.9774 24.2307 35.2223 22.9857 35.2223 21.45V20.5231H35.6858C36.4536 20.5231 37.0761 19.9006 37.0761 19.1327V10.7906C37.0761 10.0227 36.4536 9.40024 35.6858 9.40024H35.2223V8.47334C35.2223 6.93757 33.9774 5.69263 32.4416 5.69263ZM18.5381 11.254H5.56142V18.6693H18.5381V11.254Z" fill="black"/>
</g>
<defs>
<clipPath id="clip0_201_5843">
<rect width="37.0761" height="29.6609" fill="white" transform="translate(0 0.131104)"/>
</clipPath>
</defs>
</svg>
