<svg width="38" height="30" viewBox="0 0 38 30" fill="none" xmlns="http://www.w3.org/2000/svg">
<g clip-path="url(#clip0_201_5847)">
<path d="M32.3271 9.40024V13.1078H34.1809V16.8155H32.3271V20.5231H4.51999V9.40024H32.3271ZM33.254 5.69263H3.59309C2.05732 5.69263 0.812378 6.93757 0.812378 8.47334V21.45C0.812378 22.9857 2.05732 24.2307 3.59309 24.2307H33.254C34.7897 24.2307 36.0347 22.9857 36.0347 21.45V20.5231H36.4981C37.266 20.5231 37.8885 19.9006 37.8885 19.1327V10.7906C37.8885 10.0227 37.266 9.40024 36.4981 9.40024H36.0347V8.47334C36.0347 6.93757 34.7897 5.69263 33.254 5.69263Z" fill="black"/>
</g>
<defs>
<clipPath id="clip0_201_5847">
<rect width="37.0761" height="29.6609" fill="white" transform="translate(0.812256 0.131104)"/>
</clipPath>
</defs>
</svg>
