<svg width="38" height="31" viewBox="0 0 38 31" fill="none" xmlns="http://www.w3.org/2000/svg">
<g clip-path="url(#clip0_201_5837)">
<path d="M10.7791 15.3008C13.3344 15.3008 15.4136 13.2217 15.4136 10.6663C15.4136 8.11094 13.3344 6.03178 10.7791 6.03178C8.22371 6.03178 6.14455 8.11094 6.14455 10.6663C6.14455 13.2217 8.22371 15.3008 10.7791 15.3008ZM31.1709 7.88559H18.1943C17.6822 7.88559 17.2674 8.30038 17.2674 8.81249V17.1546H4.29074V5.10488C4.29074 4.59277 3.87595 4.17798 3.36384 4.17798H1.51003C0.997919 4.17798 0.58313 4.59277 0.58313 5.10488V25.4967C0.58313 26.0089 0.997919 26.4236 1.51003 26.4236H3.36384C3.87595 26.4236 4.29074 26.0089 4.29074 25.4967V22.716H33.9516V25.4967C33.9516 26.0089 34.3664 26.4236 34.8785 26.4236H36.7323C37.2445 26.4236 37.6592 26.0089 37.6592 25.4967V14.3739C37.6592 10.7903 34.7546 7.88559 31.1709 7.88559Z" fill="black"/>
</g>
<defs>
<clipPath id="clip0_201_5837">
<rect width="37.0761" height="29.6609" fill="white" transform="translate(0.58313 0.470215)"/>
</clipPath>
</defs>
</svg>
