<svg width="27" height="31" viewBox="0 0 27 31" fill="none" xmlns="http://www.w3.org/2000/svg">
<g clip-path="url(#clip0_201_5835)">
<path d="M22.1184 6.03183H19.3377V3.71457C19.3377 2.94669 18.7152 2.32422 17.9473 2.32422H2.18998C1.42209 2.32422 0.799622 2.94669 0.799622 3.71457V26.8871C0.799622 27.655 1.42209 28.2775 2.18998 28.2775H17.9473C18.7152 28.2775 19.3377 27.655 19.3377 26.8871V24.4477L24.0073 22.3635C25.6751 21.619 26.7529 19.9578 26.7529 18.1314V10.6663C26.7529 8.11087 24.6739 6.03183 22.1184 6.03183ZM23.0453 18.1314C23.0452 18.3104 22.9932 18.4856 22.8958 18.6358C22.7984 18.7859 22.6596 18.9047 22.4962 18.9778L19.3377 20.3875V9.73944H22.1184C22.6295 9.73944 23.0453 10.1553 23.0453 10.6663V18.1314ZM12.8494 22.7161C12.3375 22.7161 11.9225 22.3011 11.9225 21.7892V8.81254C11.9225 8.30066 12.3375 7.88564 12.8494 7.88564C13.3612 7.88564 13.7763 8.30066 13.7763 8.81254V21.7892C13.7763 22.3011 13.3612 22.7161 12.8494 22.7161ZM7.28794 22.7161C6.77606 22.7161 6.36104 22.3011 6.36104 21.7892V8.81254C6.36104 8.30066 6.77606 7.88564 7.28794 7.88564C7.79982 7.88564 8.21484 8.30066 8.21484 8.81254V21.7892C8.21484 22.3011 7.79982 22.7161 7.28794 22.7161Z" fill="black"/>
</g>
<defs>
<clipPath id="clip0_201_5835">
<rect width="25.9533" height="29.6609" fill="white" transform="translate(0.799805 0.470215)"/>
</clipPath>
</defs>
</svg>
