<svg width="38" height="31" viewBox="0 0 38 31" fill="none" xmlns="http://www.w3.org/2000/svg">
<g clip-path="url(#clip0_201_5833)">
<path d="M37.6117 27.0088L32.362 22.9507C32.373 22.8708 32.4083 22.7967 32.4083 22.7155C32.4112 22.2782 32.2571 21.8309 31.9095 21.4579C30.7903 20.2552 28.6961 18.446 28.6961 12.5196C28.6961 8.01834 25.54 4.41501 21.2843 3.53098V2.32426C21.2843 1.30062 20.4548 0.470459 19.4317 0.470459C18.4086 0.470459 17.579 1.30062 17.579 2.32426V3.53156C15.2427 4.01702 13.2539 5.33149 11.9255 7.15633L3.52777 0.665688C3.12341 0.3517 2.54062 0.424114 2.22663 0.828475L1.08885 2.2924C0.774866 2.69618 0.84728 3.2784 1.25164 3.59296L35.3356 29.9361C35.74 30.2507 36.3222 30.1777 36.6367 29.7733L37.7745 28.3094C38.0885 27.9056 38.0161 27.3234 37.6117 27.0088ZM10.0022 15.0425C9.50339 18.9795 7.8929 20.4493 6.95383 21.4584C6.60624 21.8321 6.45215 22.2787 6.45504 22.7161C6.46141 23.6662 7.20699 24.5699 8.31464 24.5699H22.3294L10.0022 15.0425ZM19.4317 30.1313C21.4778 30.1313 23.1376 28.4716 23.1376 26.4237H15.7258C15.7258 28.4716 17.3855 30.1313 19.4317 30.1313Z" fill="black"/>
</g>
<defs>
<clipPath id="clip0_201_5833">
<rect width="37.0761" height="29.6609" fill="white" transform="translate(0.893677 0.470215)"/>
</clipPath>
</defs>
</svg>
