<svg width="27" height="31" viewBox="0 0 27 31" fill="none" xmlns="http://www.w3.org/2000/svg">
<g clip-path="url(#clip0_201_5831)">
<path d="M13.087 30.1309C15.1332 30.1309 16.7929 28.4711 16.7929 26.4232H9.38116C9.38116 28.4711 11.0409 30.1309 13.087 30.1309ZM25.5649 21.4579C24.4456 20.2553 22.3514 18.4461 22.3514 12.5197C22.3514 8.01844 19.1953 4.4151 14.9397 3.53107V2.32378C14.9397 1.30013 14.1101 0.469971 13.087 0.469971C12.064 0.469971 11.2344 1.30013 11.2344 2.32378V3.53107C6.97874 4.4151 3.82264 8.01844 3.82264 12.5197C3.82264 18.4461 1.72842 20.2553 0.609181 21.4579C0.261593 21.8316 0.107495 22.2783 0.110392 22.7156C0.116764 23.6657 0.862341 24.5694 1.96999 24.5694H24.2041C25.3117 24.5694 26.0579 23.6657 26.0637 22.7156C26.0666 22.2783 25.9125 21.831 25.5649 21.4579Z" fill="black"/>
</g>
<defs>
<clipPath id="clip0_201_5831">
<rect width="25.9533" height="29.6609" fill="white" transform="translate(0.110352 0.470215)"/>
</clipPath>
</defs>
</svg>
