<svg width="38" height="31" viewBox="0 0 38 31" fill="none" xmlns="http://www.w3.org/2000/svg">
<g clip-path="url(#clip0_201_5829)">
<path d="M21.523 2.32373H15.9616C14.938 2.32373 14.1078 3.15389 14.1078 4.17754V9.73895C14.1078 10.7626 14.938 11.5928 15.9616 11.5928H21.523C22.5467 11.5928 23.3769 10.7626 23.3769 9.73895V4.17754C23.3769 3.15389 22.5467 2.32373 21.523 2.32373ZM12.254 5.56789H7.34433C6.79398 4.20998 5.46677 3.25063 3.9119 3.25063C1.8646 3.25063 0.204285 4.91037 0.204285 6.95824C0.204285 9.00612 1.8646 10.6659 3.9119 10.6659C5.46677 10.6659 6.79398 9.70651 7.34433 8.3486H11.9632C8.75554 10.2325 6.4099 13.4072 5.6174 17.1542H8.47921C9.13383 14.7436 10.6093 12.6813 12.5947 11.2707C12.3803 10.8026 12.254 10.2864 12.254 9.73895V5.56789ZM9.47331 19.008H3.9119C2.88825 19.008 2.05809 19.8381 2.05809 20.8618V26.4232C2.05809 27.4468 2.88825 28.277 3.9119 28.277H9.47331C10.497 28.277 11.3271 27.4468 11.3271 26.4232V20.8618C11.3271 19.8381 10.497 19.008 9.47331 19.008ZM33.5728 3.25063C32.0179 3.25063 30.6907 4.20998 30.1403 5.56789H25.2307V9.73895C25.2307 10.2864 25.1038 10.8026 24.89 11.2707C26.8753 12.6813 28.3508 14.7436 29.0055 17.1542H31.8673C31.0748 13.4072 28.7291 10.2325 25.5215 8.3486H30.1403C30.6907 9.70651 32.0179 10.6659 33.5728 10.6659C35.6201 10.6659 37.2804 9.00612 37.2804 6.95824C37.2804 4.91037 35.6201 3.25063 33.5728 3.25063ZM33.5728 19.008H28.0114C26.9877 19.008 26.1576 19.8381 26.1576 20.8618V26.4232C26.1576 27.4468 26.9877 28.277 28.0114 28.277H33.5728C34.5964 28.277 35.4266 27.4468 35.4266 26.4232V20.8618C35.4266 19.8381 34.5964 19.008 33.5728 19.008Z" fill="black"/>
</g>
<defs>
<clipPath id="clip0_201_5829">
<rect width="37.0761" height="29.6609" fill="white" transform="translate(0.204224 0.470215)"/>
</clipPath>
</defs>
</svg>
