<svg width="27" height="31" viewBox="0 0 27 31" fill="none" xmlns="http://www.w3.org/2000/svg">
<g clip-path="url(#clip0_201_5827)">
<path d="M26.3742 21.2326V1.95302C26.3742 1.02611 25.818 0.469971 24.8911 0.469971H5.98232C2.83085 0.469971 0.420898 2.87992 0.420898 6.03139V24.5694C0.420898 27.7209 2.83085 30.1309 5.98232 30.1309H24.8911C25.6327 30.1309 26.3742 29.5747 26.3742 28.6478V27.7209C26.3742 27.3502 26.1888 26.9794 25.818 26.6086C25.6327 25.6817 25.6327 23.0864 25.818 22.3449C26.1888 22.1595 26.3742 21.7887 26.3742 21.2326ZM8.76302 8.8121C8.76302 8.29998 9.17781 7.88519 9.68993 7.88519H12.4706V5.10448C12.4706 4.59237 12.8854 4.17758 13.3975 4.17758H15.2513C15.7635 4.17758 16.1782 4.59237 16.1782 5.10448V7.88519H18.959C19.4711 7.88519 19.8859 8.29998 19.8859 8.8121V10.6659C19.8859 11.178 19.4711 11.5928 18.959 11.5928H16.1782V18.0811C16.1782 18.5932 15.7635 19.008 15.2513 19.008H13.3975C12.8854 19.008 12.4706 18.5932 12.4706 18.0811V11.5928H9.68993C9.17781 11.5928 8.76302 11.178 8.76302 10.6659V8.8121ZM22.4812 26.4232H5.98232C4.87003 26.4232 4.12851 25.6817 4.12851 24.5694C4.12851 23.4572 5.05541 22.7156 5.98232 22.7156H22.4812V26.4232Z" fill="black"/>
</g>
<defs>
<clipPath id="clip0_201_5827">
<rect width="25.9533" height="29.6609" fill="white" transform="translate(0.420898 0.470215)"/>
</clipPath>
</defs>
</svg>
