<svg width="38" height="31" viewBox="0 0 38 31" fill="none" xmlns="http://www.w3.org/2000/svg">
<g clip-path="url(#clip0_201_5823)">
<path d="M23.7812 6.03139C24.3312 6.03139 24.8688 5.8683 25.3261 5.56275C25.7834 5.25721 26.1398 4.82292 26.3503 4.31481C26.5607 3.8067 26.6158 3.2476 26.5085 2.70819C26.4012 2.16879 26.1364 1.67331 25.7475 1.28442C25.3586 0.895534 24.8631 0.630697 24.3237 0.523402C23.7843 0.416108 23.2252 0.471176 22.7171 0.681641C22.209 0.892106 21.7747 1.24852 21.4691 1.7058C21.1636 2.16309 21.0005 2.70071 21.0005 3.25068C21.0005 3.98817 21.2935 4.69545 21.815 5.21694C22.3364 5.73842 23.0437 6.03139 23.7812 6.03139ZM23.5495 13.0411C23.8782 13.3043 24.287 13.4474 24.7081 13.4466H28.4157C28.9074 13.4466 29.3789 13.2513 29.7266 12.9036C30.0742 12.556 30.2695 12.0845 30.2695 11.5928C30.2695 11.1011 30.0742 10.6296 29.7266 10.282C29.3789 9.93431 28.9074 9.739 28.4157 9.739H25.3581L21.2322 6.43691C20.8955 6.16656 20.4748 6.02251 20.043 6.02971C19.6113 6.0369 19.1956 6.19489 18.8681 6.4763L12.3797 12.0377C12.1624 12.2241 11.9912 12.4582 11.8795 12.7218C11.7678 12.9854 11.7187 13.2712 11.7359 13.557C11.7532 13.8427 11.8365 14.1206 11.9791 14.3688C12.1218 14.617 12.32 14.8288 12.5582 14.9876L17.2929 18.146V24.5694C17.2929 25.0611 17.4882 25.5326 17.8359 25.8803C18.1835 26.2279 18.655 26.4233 19.1467 26.4233C19.6384 26.4233 20.1099 26.2279 20.4575 25.8803C20.8052 25.5326 21.0005 25.0611 21.0005 24.5694V17.1542C21.0005 16.8491 20.9251 16.5487 20.7811 16.2797C20.6371 16.0107 20.4289 15.7813 20.175 15.6121L17.7789 14.0149L21.1534 11.123L23.5495 13.0411ZM30.2695 15.3004C28.8029 15.3004 27.3693 15.7353 26.1499 16.5501C24.9304 17.3649 23.98 18.523 23.4188 19.878C22.8575 21.2329 22.7107 22.7239 22.9968 24.1623C23.2829 25.6007 23.9891 26.922 25.0262 27.959C26.0632 28.996 27.3845 29.7023 28.8229 29.9884C30.2613 30.2745 31.7523 30.1277 33.1072 29.5664C34.4622 29.0052 35.6203 28.0547 36.4351 26.8353C37.2499 25.6159 37.6848 24.1822 37.6848 22.7156C37.6848 20.749 36.9035 18.8629 35.5129 17.4723C34.1223 16.0817 32.2362 15.3004 30.2695 15.3004ZM30.2695 26.4233C29.5362 26.4233 28.8194 26.2058 28.2097 25.7984C27.6 25.391 27.1248 24.812 26.8441 24.1345C26.5635 23.457 26.4901 22.7115 26.6332 21.9923C26.7762 21.2731 27.1293 20.6125 27.6479 20.094C28.1664 19.5754 28.827 19.2223 29.5462 19.0793C30.2654 18.9362 31.0109 19.0096 31.6884 19.2903C32.3659 19.5709 32.9449 20.0461 33.3523 20.6558C33.7597 21.2655 33.9771 21.9823 33.9771 22.7156C33.9771 23.699 33.5865 24.642 32.8912 25.3373C32.1959 26.0326 31.2529 26.4233 30.2695 26.4233ZM8.02387 15.3004C6.55728 15.3004 5.12362 15.7353 3.90419 16.5501C2.68476 17.3649 1.73434 18.523 1.1731 19.878C0.611855 21.2329 0.465009 22.7239 0.751127 24.1623C1.03725 25.6007 1.74348 26.922 2.78051 27.959C3.81755 28.996 5.13882 29.7023 6.57723 29.9884C8.01564 30.2745 9.5066 30.1277 10.8616 29.5664C12.2165 29.0052 13.3746 28.0547 14.1894 26.8353C15.0042 25.6159 15.4391 24.1822 15.4391 22.7156C15.4391 20.749 14.6578 18.8629 13.2672 17.4723C11.8766 16.0817 9.99051 15.3004 8.02387 15.3004ZM8.02387 26.4233C7.29057 26.4233 6.57374 26.2058 5.96403 25.7984C5.35432 25.391 4.8791 24.812 4.59848 24.1345C4.31786 23.457 4.24444 22.7115 4.3875 21.9923C4.53056 21.2731 4.88367 20.6125 5.40219 20.094C5.92071 19.5754 6.58134 19.2223 7.30055 19.0793C8.01976 18.9362 8.76523 19.0096 9.44271 19.2903C10.1202 19.5709 10.6992 20.0461 11.1066 20.6558C11.514 21.2655 11.7315 21.9823 11.7315 22.7156C11.7315 23.699 11.3409 24.642 10.6455 25.3373C9.95023 26.0326 9.00719 26.4233 8.02387 26.4233Z" fill="black"/>
</g>
<defs>
<clipPath id="clip0_201_5823">
<rect width="37.0761" height="29.6609" fill="white" transform="translate(0.608643 0.470215)"/>
</clipPath>
</defs>
</svg>
