<svg width="30" height="31" viewBox="0 0 30 31" fill="none" xmlns="http://www.w3.org/2000/svg">
<g clip-path="url(#clip0_201_5821)">
<path d="M24.2171 3.25063C24.2171 2.73852 23.8024 2.32373 23.2902 2.32373H19.5826C19.0705 2.32373 18.6557 2.73852 18.6557 3.25063V6.03134H24.2171V3.25063ZM3.82007 9.73837C3.67467 15.1752 0.318119 16.3559 0.117676 23.8742V26.4232C0.117676 27.4468 0.947833 28.277 1.97148 28.277H7.5329C8.55655 28.277 9.3867 27.4468 9.3867 26.4232V17.1542H11.2405V7.88515H5.66982C4.64849 7.88515 3.84788 8.71762 3.82007 9.73837ZM26.0762 9.73837C26.0484 8.71762 25.2477 7.88515 24.2264 7.88515H18.6557V17.1542H20.5095V26.4232C20.5095 27.4468 21.3397 28.277 22.3633 28.277H27.9248C28.9484 28.277 29.7786 27.4468 29.7786 26.4232V23.8742C29.5781 16.3559 26.2216 15.1752 26.0762 9.73837ZM10.3136 2.32373H6.606C6.09388 2.32373 5.67909 2.73852 5.67909 3.25063V6.03134H11.2405V3.25063C11.2405 2.73852 10.8257 2.32373 10.3136 2.32373ZM13.0943 17.1542H16.8019V7.88515H13.0943V17.1542Z" fill="black"/>
</g>
<defs>
<clipPath id="clip0_201_5821">
<rect width="29.6609" height="29.6609" fill="white" transform="translate(0.117676 0.470215)"/>
</clipPath>
</defs>
</svg>
