<svg width="35" height="31" viewBox="0 0 35 31" fill="none" xmlns="http://www.w3.org/2000/svg">
<g clip-path="url(#clip0_201_5819)">
<path d="M17.5976 6.95839C18.6751 6.95839 19.6947 7.17853 20.6563 7.51453C21.4268 6.91784 22.0235 6.1068 22.3653 5.15672C20.9055 4.52527 19.295 4.17189 17.6034 4.17189C15.9176 4.17189 14.3071 4.51947 12.8472 5.15093C13.189 6.101 13.7857 6.91204 14.5562 7.50874C15.512 7.17853 16.5258 6.95839 17.5976 6.95839ZM10.3967 25.8846C11.0919 25.201 11.5785 24.3552 11.816 23.4283C9.91007 21.8989 8.64137 19.6454 8.40385 17.079C7.91143 16.9168 7.40743 16.8125 6.87446 16.8125C6.43418 16.8125 5.9939 16.8705 5.571 16.9921C5.80852 20.6302 7.64495 23.828 10.3967 25.8846ZM23.3849 23.4167C23.6224 24.3436 24.1091 25.1952 24.8042 25.8788C27.5502 23.8222 29.3866 20.6244 29.6125 16.9863C29.1954 16.8705 28.761 16.8125 28.3265 16.8125C27.7935 16.8125 27.2837 16.9226 26.7855 17.0848C26.548 19.6454 25.2793 21.8873 23.3849 23.4167ZM29.9601 11.5408C28.9405 10.9383 27.8572 10.5791 26.7565 10.3879C27.1041 9.36254 27.3358 8.27922 27.3358 7.13218C27.3358 4.75699 26.4958 2.45132 24.9607 0.632276C24.8158 0.458482 24.5783 0.41793 24.3813 0.527999C24.1902 0.638069 24.1033 0.875588 24.1728 1.08993C24.4335 1.88939 24.5551 2.61353 24.5551 3.32029C24.5551 7.24804 21.4384 10.4401 17.6034 10.4401C13.7683 10.4401 10.6516 7.24804 10.6516 3.32029C10.6516 2.61932 10.779 1.88939 11.0339 1.08993C11.1035 0.875588 11.0166 0.638069 10.8254 0.527999C10.6284 0.41793 10.3909 0.458482 10.2461 0.632276C8.71668 2.45132 7.87088 4.75699 7.87088 7.13218C7.87088 8.27922 8.09681 9.36254 8.45019 10.3879C7.35529 10.5791 6.26618 10.9383 5.24659 11.5408C3.24216 12.7284 1.71277 14.6285 0.942281 16.8936C0.866971 17.108 0.953868 17.3397 1.14504 17.4614C1.33622 17.5772 1.57953 17.5367 1.72436 17.3687C2.26891 16.743 2.82505 16.2622 3.41595 15.9146C6.73542 13.9507 10.9934 15.1209 12.9109 18.5215C14.8284 21.9221 13.6872 26.2843 10.3677 28.2482C9.77682 28.6016 9.09323 28.8507 8.29378 29.0245C8.07943 29.0708 7.92302 29.2678 7.92302 29.4937C7.92881 29.7254 8.07943 29.9166 8.29957 29.9572C10.5995 30.409 12.9688 30.0035 14.9733 28.8159C16.016 28.2018 16.8792 27.3966 17.5976 26.4929C18.3159 27.3966 19.1791 28.2018 20.2219 28.8159C22.2263 30.0035 24.5957 30.409 26.8956 29.9572C27.1157 29.9166 27.2663 29.7254 27.2721 29.4937C27.2721 29.2678 27.1215 29.0708 26.9014 29.0245C26.0961 28.8565 25.4183 28.6016 24.8274 28.2482C21.5079 26.2843 20.3667 21.9221 22.2842 18.5215C24.2017 15.1209 28.4597 13.9507 31.7792 15.9146C32.3701 16.268 32.9262 16.743 33.4708 17.3687C33.6156 17.5367 33.8589 17.5772 34.0501 17.4614C34.2413 17.3455 34.3282 17.108 34.2529 16.8936C33.4939 14.6285 31.9646 12.7226 29.9601 11.5408ZM17.5976 19.0139C16.0624 19.0139 14.8169 17.7684 14.8169 16.2332C14.8169 14.698 16.0624 13.4525 17.5976 13.4525C19.1327 13.4525 20.3783 14.698 20.3783 16.2332C20.3783 17.7684 19.1327 19.0139 17.5976 19.0139Z" fill="black"/>
</g>
<defs>
<clipPath id="clip0_201_5819">
<rect width="33.3685" height="29.6609" fill="white" transform="translate(0.919189 0.470215)"/>
</clipPath>
</defs>
</svg>
