<svg width="27" height="31" viewBox="0 0 27 31" fill="none" xmlns="http://www.w3.org/2000/svg">
<g clip-path="url(#clip0_201_5817)">
<path d="M26.0893 22.7156C24.466 22.7156 24.2783 20.8618 21.7734 20.8618C19.2574 20.8618 19.0607 22.7156 17.443 22.7156C15.8386 22.7156 15.6208 20.8618 13.1126 20.8618C10.6307 20.8618 10.3772 22.7156 8.79673 22.7156C7.16608 22.7156 6.98916 20.8618 4.46636 20.8618C1.94362 20.8618 1.76369 22.7156 0.135986 22.7156V18.0811C0.135986 16.5459 1.38151 15.3004 2.91669 15.3004H3.8436V6.95829H7.55121V15.3004H11.2588V6.95829H14.9664V15.3004H18.674V6.95829H22.3817V15.3004H23.3086C24.8437 15.3004 26.0893 16.5459 26.0893 18.0811V22.7156ZM26.0893 30.1309H0.135986V24.5694C2.64766 24.5694 2.84527 22.7156 4.46636 22.7156C6.0856 22.7156 6.27689 24.5694 8.79673 24.5694C11.2787 24.5694 11.5321 22.7156 13.1126 22.7156C14.7433 22.7156 14.9201 24.5694 17.443 24.5694C19.9547 24.5694 20.1523 22.7156 21.7734 22.7156C23.3658 22.7156 23.5838 24.5694 26.0893 24.5694V30.1309ZM5.6974 6.03139C4.66912 6.03139 3.8436 5.20586 3.8436 4.17758C3.8436 2.38171 5.6974 2.84516 5.6974 0.469971C6.39258 0.469971 7.55121 2.17895 7.55121 3.71413C7.55121 5.24931 6.72569 6.03139 5.6974 6.03139ZM13.1126 6.03139C12.0843 6.03139 11.2588 5.20586 11.2588 4.17758C11.2588 2.38171 13.1126 2.84516 13.1126 0.469971C13.8078 0.469971 14.9664 2.17895 14.9664 3.71413C14.9664 5.24931 14.1409 6.03139 13.1126 6.03139ZM20.5278 6.03139C19.4996 6.03139 18.674 5.20586 18.674 4.17758C18.674 2.38171 20.5278 2.84516 20.5278 0.469971C21.223 0.469971 22.3817 2.17895 22.3817 3.71413C22.3817 5.24931 21.5561 6.03139 20.5278 6.03139Z" fill="black"/>
</g>
<defs>
<clipPath id="clip0_201_5817">
<rect width="25.9533" height="29.6609" fill="white" transform="translate(0.135986 0.470215)"/>
</clipPath>
</defs>
</svg>
