<svg width="35" height="31" viewBox="0 0 35 31" fill="none" xmlns="http://www.w3.org/2000/svg">
<g clip-path="url(#clip0_201_5815)">
<path d="M23.6459 4.17763H33.2938L34.3053 0.470017H12.0596V20.8619H28.7439L29.7554 17.1543H23.6459C23.3899 17.1543 23.1825 16.9469 23.1825 16.6908V15.7639C23.1825 15.5079 23.3899 15.3005 23.6459 15.3005H30.2605L31.272 11.5929H23.6459C23.3899 11.5929 23.1825 11.3855 23.1825 11.1294V10.2025C23.1825 9.94644 23.3899 9.73905 23.6459 9.73905H31.7772L32.7887 6.03143H23.6459C23.3899 6.03143 23.1825 5.82404 23.1825 5.56798V4.64108C23.1825 4.38502 23.3899 4.17763 23.6459 4.17763ZM10.1363 19.8776L8.64284 16.2129C8.48179 15.8184 8.07511 15.5762 7.6441 15.6185L5.03545 15.8746C4.0344 13.1553 4.01296 10.0942 5.03545 7.31693L7.6441 7.57299C8.07453 7.61528 8.48179 7.37255 8.64284 6.97861L10.1363 3.31387C10.3113 2.88576 10.1479 2.39566 9.74933 2.15119L7.47379 0.75504C6.64363 0.245823 5.57653 0.441052 4.93117 1.16346C-0.431537 7.16515 -0.398516 16.1996 5.05283 22.163C5.62461 22.7887 6.73979 22.886 7.46567 22.4411L9.74875 21.0403C10.1479 20.7958 10.3107 20.3063 10.1363 19.8776ZM28.7439 22.7157H12.0596C10.0118 22.7157 8.35203 24.3754 8.35203 26.4233V28.2771C8.35203 29.3007 9.18218 30.1309 10.2058 30.1309H30.5977C31.6213 30.1309 32.4515 29.3007 32.4515 28.2771V26.4233C32.4515 24.3754 30.7918 22.7157 28.7439 22.7157ZM20.4018 28.2771C19.3781 28.2771 18.548 27.4469 18.548 26.4233C18.548 25.3996 19.3781 24.5695 20.4018 24.5695C21.4254 24.5695 22.2556 25.3996 22.2556 26.4233C22.2556 27.4469 21.4254 28.2771 20.4018 28.2771Z" fill="black"/>
</g>
<defs>
<clipPath id="clip0_201_5815">
<rect width="33.3685" height="29.6609" fill="white" transform="translate(0.9375 0.470215)"/>
</clipPath>
</defs>
</svg>
