<svg width="23" height="31" viewBox="0 0 23 31" fill="none" xmlns="http://www.w3.org/2000/svg">
<g clip-path="url(#clip0_201_5811)">
<path d="M22.3935 30.0635C22.2884 30.1273 22.1623 30.1467 22.0429 30.1175C21.9236 30.0883 21.8207 30.0129 21.7569 29.9078L14.4963 17.9492C14.7893 17.833 15.0477 17.6439 15.247 17.3997L22.5491 29.4268C22.5807 29.4788 22.6018 29.5365 22.611 29.5967C22.6203 29.6568 22.6177 29.7182 22.6032 29.7774C22.5887 29.8365 22.5628 29.8922 22.5268 29.9413C22.4908 29.9904 22.4455 30.0319 22.3935 30.0635ZM8.64363 18.68L6.75854 23.864L8.85103 28.9785C9.23876 29.9262 10.3212 30.38 11.2687 29.9923C12.2163 29.6047 12.6702 28.5223 12.2825 27.5746L8.64363 18.68ZM5.93227 5.56794C7.34006 5.56794 8.48125 4.42674 8.48125 3.01895C8.48125 1.61116 7.34006 0.469971 5.93227 0.469971C4.52448 0.469971 3.38328 1.61116 3.38328 3.01895C3.38328 4.42674 4.52448 5.56794 5.93227 5.56794ZM14.9022 15.3658L7.95042 6.56019C7.67623 6.21289 7.26973 6.03255 6.85917 6.03231V6.03139H5.00536V6.03289C4.59139 6.03307 4.18175 6.21601 3.90791 6.56818L0.37085 11.1158V16.6595C0.37085 17.439 1.00873 18.0957 1.78808 18.0809C2.54357 18.0665 3.15156 17.4497 3.15156 16.6908V12.0698L4.07846 10.8781V19.0289L0.945935 27.643C0.596029 28.6052 1.09239 29.6688 2.05463 30.0187C3.0164 30.3686 4.08037 29.8725 4.43034 28.91L8.24952 18.4077V12.1977L6.43013 9.89107C6.41122 9.86722 6.39719 9.83988 6.38885 9.81062C6.38051 9.78135 6.37801 9.75073 6.3815 9.72049C6.38499 9.69026 6.3944 9.66101 6.4092 9.63442C6.42399 9.60782 6.44388 9.5844 6.46773 9.56549C6.49157 9.54659 6.51891 9.53256 6.54818 9.52421C6.57744 9.51587 6.60807 9.51337 6.6383 9.51686C6.69936 9.52391 6.75511 9.55493 6.7933 9.60309L12.7197 17.0888C13.2495 17.7599 14.1314 17.7457 14.6724 17.3185C15.2755 16.8426 15.3768 15.9667 14.9022 15.3658Z" fill="black"/>
</g>
<defs>
<clipPath id="clip0_201_5811">
<rect width="22.2457" height="29.6609" fill="white" transform="translate(0.37085 0.470215)"/>
</clipPath>
</defs>
</svg>
