<svg width="31" height="31" viewBox="0 0 31 31" fill="none" xmlns="http://www.w3.org/2000/svg">
<g clip-path="url(#clip0_201_5809)">
<path d="M10.8558 13.609C10.01 13.441 9.22213 14.1246 9.22213 14.9878V17.9075C9.22213 18.4984 9.63344 18.9735 10.1896 19.182C11.2439 19.5759 12.0028 20.5955 12.0028 21.7889C12.0028 23.3241 10.7573 24.5696 9.22213 24.5696C7.68695 24.5696 6.44142 23.3241 6.44142 21.7889V7.42193C6.44142 6.65144 5.82156 6.03157 5.05107 6.03157H2.27036C1.49987 6.03157 0.880005 6.65144 0.880005 7.42193V21.7889C0.880005 26.9738 5.63617 31.0695 11.018 29.9399C14.1695 29.2795 16.7127 26.7305 17.3731 23.5848C18.3811 18.7823 15.2296 14.478 10.8558 13.609ZM12.9877 0.470154C12.4547 0.441188 12.0028 0.864088 12.0028 1.39706V3.22769C12.0028 3.72011 12.3852 4.12563 12.8718 4.1488C20.3681 4.55432 26.393 10.6371 26.8275 18.1392C26.8565 18.6259 27.262 19.0082 27.7486 19.0082H29.6082C30.1412 19.0082 30.5641 18.5563 30.5351 18.0234C30.0427 8.56897 22.4421 0.968364 12.9877 0.470154ZM13.0051 6.03157C12.4663 5.99102 12.0028 6.41971 12.0028 6.96427V8.82386C12.0028 9.31049 12.3794 9.71022 12.8602 9.74498C17.3094 10.1099 20.8548 13.6959 21.2545 18.1566C21.3008 18.6374 21.6948 19.0082 22.1756 19.0082H24.041C24.5798 19.0082 25.0142 18.5448 24.9737 18.006C24.4871 11.6277 19.3833 6.52399 13.0051 6.03157Z" fill="black"/>
</g>
<defs>
<clipPath id="clip0_201_5809">
<rect width="29.6609" height="29.6609" fill="white" transform="translate(0.880005 0.470215)"/>
</clipPath>
</defs>
</svg>
