<svg width="24" height="31" viewBox="0 0 24 31" fill="none" xmlns="http://www.w3.org/2000/svg">
<g clip-path="url(#clip0_201_5807)">
<path d="M20.1231 14.2576C21.0053 13.18 21.5494 11.8657 21.6872 10.4799C22.1148 6.05973 18.6464 2.32373 14.3259 2.32373H2.77322C2.52739 2.32373 2.29162 2.42139 2.1178 2.59521C1.94397 2.76904 1.84631 3.0048 1.84631 3.25063V6.03134C1.84631 6.27717 1.94397 6.51293 2.1178 6.68676C2.29162 6.86059 2.52739 6.95824 2.77322 6.95824H4.61949V23.6425H2.77322C2.52739 23.6425 2.29162 23.7401 2.1178 23.914C1.94397 24.0878 1.84631 24.3236 1.84631 24.5694V27.3501C1.84631 27.5959 1.94397 27.8317 2.1178 28.0055C2.29162 28.1794 2.52739 28.277 2.77322 28.277H14.8994C19.001 28.277 22.6703 25.2791 23.0678 21.1862C23.3423 18.3794 22.1183 15.853 20.1231 14.2576ZM9.24184 6.95824H14.3259C15.0634 6.95824 15.7707 7.25121 16.2922 7.7727C16.8136 8.29418 17.1066 9.00146 17.1066 9.73895C17.1066 10.4764 16.8136 11.1837 16.2922 11.7052C15.7707 12.2267 15.0634 12.5197 14.3259 12.5197H9.24184V6.95824ZM14.3259 23.6425H9.24184V17.1542H14.3259C15.1863 17.1542 16.0115 17.496 16.6199 18.1044C17.2283 18.7128 17.5701 19.5379 17.5701 20.3983C17.5701 21.2587 17.2283 22.0839 16.6199 22.6923C16.0115 23.3007 15.1863 23.6425 14.3259 23.6425Z" fill="black"/>
</g>
<defs>
<clipPath id="clip0_201_5807">
<rect width="22.2457" height="29.6609" fill="white" transform="translate(0.804321 0.470215)"/>
</clipPath>
</defs>
</svg>
