<svg width="31" height="31" viewBox="0 0 31 31" fill="none" xmlns="http://www.w3.org/2000/svg">
<g clip-path="url(#clip0_201_5803)">
<path d="M26.4642 5.5969L23.4518 8.60934L24.987 10.1445C25.5315 10.6891 25.5315 11.5696 24.987 12.1084L23.979 13.1164C24.6626 14.6284 25.0449 16.3084 25.0449 18.0753C25.0449 24.7317 19.6515 30.1251 12.9952 30.1251C6.33885 30.1251 0.945435 24.7374 0.945435 18.0811C0.945435 11.4248 6.33885 6.03139 12.9952 6.03139C14.7621 6.03139 16.4421 6.41373 17.9541 7.09733L18.9621 6.08932C19.5067 5.54476 20.3872 5.54476 20.926 6.08932L22.4612 7.6245L25.4736 4.61207L26.4642 5.5969ZM29.9111 3.94586H28.5208C28.1384 3.94586 27.8256 4.25869 27.8256 4.64103C27.8256 5.02338 28.1384 5.33621 28.5208 5.33621H29.9111C30.2935 5.33621 30.6063 5.02338 30.6063 4.64103C30.6063 4.25869 30.2935 3.94586 29.9111 3.94586ZM26.4353 0.469971C26.0529 0.469971 25.7401 0.7828 25.7401 1.16515V2.5555C25.7401 2.93785 26.0529 3.25068 26.4353 3.25068C26.8176 3.25068 27.1304 2.93785 27.1304 2.5555V1.16515C27.1304 0.7828 26.8176 0.469971 26.4353 0.469971ZM28.3991 3.6562L29.384 2.67136C29.6562 2.39909 29.6562 1.95881 29.384 1.68653C29.1117 1.41425 28.6714 1.41425 28.3991 1.68653L27.4143 2.67136C27.142 2.94364 27.142 3.38392 27.4143 3.6562C27.6924 3.92848 28.1327 3.92848 28.3991 3.6562ZM24.4714 3.6562C24.7437 3.92848 25.1839 3.92848 25.4562 3.6562C25.7285 3.38392 25.7285 2.94364 25.4562 2.67136L24.4714 1.68653C24.1991 1.41425 23.7588 1.41425 23.4866 1.68653C23.2143 1.95881 23.2143 2.39909 23.4866 2.67136L24.4714 3.6562ZM28.3991 5.62587C28.1269 5.35359 27.6866 5.35359 27.4143 5.62587C27.142 5.89815 27.142 6.33842 27.4143 6.6107L28.3991 7.59554C28.6714 7.86781 29.1117 7.86781 29.384 7.59554C29.6562 7.32326 29.6562 6.88298 29.384 6.6107L28.3991 5.62587ZM7.43375 16.2273C7.43375 14.1823 9.09639 12.5197 11.1414 12.5197C11.6512 12.5197 12.0683 12.1026 12.0683 11.5928C12.0683 11.083 11.6512 10.6659 11.1414 10.6659C8.07679 10.6659 5.57995 13.1627 5.57995 16.2273C5.57995 16.7371 5.99705 17.1542 6.50685 17.1542C7.01665 17.1542 7.43375 16.7371 7.43375 16.2273Z" fill="black"/>
</g>
<defs>
<clipPath id="clip0_201_5803">
<rect width="29.6609" height="29.6609" fill="white" transform="translate(0.945312 0.470215)"/>
</clipPath>
</defs>
</svg>
