<svg width="27" height="31" viewBox="0 0 27 31" fill="none" xmlns="http://www.w3.org/2000/svg">
<g clip-path="url(#clip0_201_5799)">
<path d="M17.7802 30.1309C19.1231 30.1309 20.3541 29.4021 21.0244 28.2388C21.9623 26.6121 22.5016 24.7288 22.5016 22.7156C22.5016 20.6232 21.9177 18.6714 20.912 17.0024L23.4286 14.4859L23.9719 15.0293C24.334 15.3914 24.9209 15.3914 25.2829 15.0293L25.9376 14.3735C26.2996 14.0114 26.2996 13.4246 25.9376 13.0625L22.8852 10.0101C22.5231 9.64805 21.9362 9.64805 21.5742 10.0101L20.919 10.6653C20.5569 11.0274 20.5569 11.6142 20.919 11.9763L21.4624 12.5197L19.1793 14.8028C18.5096 14.1441 17.7582 13.5671 16.9402 13.0932V4.16252L17.8654 4.16136C18.3764 4.16078 18.7906 3.74657 18.7911 3.23562L18.7935 1.39803C18.794 0.88534 18.3781 0.469392 17.8654 0.469971L4.89223 0.485033C4.38128 0.485613 3.96707 0.899822 3.96649 1.41078L3.96417 3.24894C3.96359 3.76163 4.37954 4.177 4.89223 4.17642L5.8174 4.17527V13.0926C2.49619 15.0166 0.255981 18.6008 0.255981 22.7156C0.255981 24.7288 0.795323 26.6127 1.73323 28.2388C2.40408 29.4021 3.63512 30.1309 4.97739 30.1309H17.7802ZM7.21123 15.4991L8.59811 14.6956V4.17237L14.1595 4.166V14.6956L15.5464 15.4991C16.9837 16.3316 18.1023 17.569 18.823 19.008H3.93463C4.65587 17.569 5.77395 16.3316 7.21123 15.4991Z" fill="black"/>
</g>
<defs>
<clipPath id="clip0_201_5799">
<rect width="25.9533" height="29.6609" fill="white" transform="translate(0.255981 0.470215)"/>
</clipPath>
</defs>
</svg>
