<svg width="34" height="31" viewBox="0 0 34 31" fill="none" xmlns="http://www.w3.org/2000/svg">
<g clip-path="url(#clip0_201_5793)">
<path d="M31.9024 2.32663C28.7278 2.5068 22.4179 3.16258 18.5226 5.54704C18.2538 5.71157 18.1014 6.00412 18.1014 6.31V27.3895C18.1014 28.0586 18.8331 28.4815 19.4501 28.171C23.4578 26.1538 29.2538 25.6035 32.1197 25.4529C33.0981 25.4013 33.8588 24.6169 33.8588 23.6767V4.10513C33.8593 3.07916 32.9695 2.26638 31.9024 2.32663ZM15.827 5.54704C11.9323 3.16258 5.62241 2.50738 2.44777 2.32663C1.38067 2.26638 0.490845 3.07916 0.490845 4.10513V23.6773C0.490845 24.6181 1.25148 25.4025 2.22995 25.4534C5.09697 25.6041 10.8959 26.155 14.9036 28.1733C15.5188 28.4832 16.2482 28.0609 16.2482 27.3936V6.29957C16.2482 5.99311 16.0964 5.71214 15.827 5.54704Z" fill="black"/>
</g>
<defs>
<clipPath id="clip0_201_5793">
<rect width="33.3685" height="29.6609" fill="white" transform="translate(0.490845 0.470215)"/>
</clipPath>
</defs>
</svg>
