<svg width="27" height="31" viewBox="0 0 27 31" fill="none" xmlns="http://www.w3.org/2000/svg">
<g clip-path="url(#clip0_201_5783)">
<path d="M14.2934 13.7857H12.4396C12.1937 13.7857 11.958 13.8833 11.7841 14.0572C11.6103 14.231 11.5127 14.4667 11.5127 14.7126V16.5664C11.5127 16.8122 11.6103 17.048 11.7841 17.2218C11.958 17.3956 12.1937 17.4933 12.4396 17.4933H14.2934C14.5392 17.4933 14.775 17.3956 14.9488 17.2218C15.1226 17.048 15.2203 16.8122 15.2203 16.5664V14.7126C15.2203 14.4667 15.1226 14.231 14.9488 14.0572C14.775 13.8833 14.5392 13.7857 14.2934 13.7857ZM19.8548 13.7857H18.001C17.7552 13.7857 17.5194 13.8833 17.3456 14.0572C17.1717 14.231 17.0741 14.4667 17.0741 14.7126V16.5664C17.0741 16.8122 17.1717 17.048 17.3456 17.2218C17.5194 17.3956 17.7552 17.4933 18.001 17.4933H19.8548C20.1006 17.4933 20.3364 17.3956 20.5102 17.2218C20.684 17.048 20.7817 16.8122 20.7817 16.5664V14.7126C20.7817 14.4667 20.684 14.231 20.5102 14.0572C20.3364 13.8833 20.1006 13.7857 19.8548 13.7857ZM25.4162 13.7857H23.5624C23.3166 13.7857 23.0808 13.8833 22.907 14.0572C22.7332 14.231 22.6355 14.4667 22.6355 14.7126V16.5664C22.6355 16.8122 22.7332 17.048 22.907 17.2218C23.0808 17.3956 23.3166 17.4933 23.5624 17.4933H25.4162C25.662 17.4933 25.8978 17.3956 26.0716 17.2218C26.2455 17.048 26.3431 16.8122 26.3431 16.5664V14.7126C26.3431 14.4667 26.2455 14.231 26.0716 14.0572C25.8978 13.8833 25.662 13.7857 25.4162 13.7857ZM8.73196 13.7857H6.87815C6.63232 13.7857 6.39656 13.8833 6.22273 14.0572C6.0489 14.231 5.95125 14.4667 5.95125 14.7126V16.5664C5.95125 16.8122 6.0489 17.048 6.22273 17.2218C6.39656 17.3956 6.63232 17.4933 6.87815 17.4933H8.73196C8.97779 17.4933 9.21355 17.3956 9.38738 17.2218C9.5612 17.048 9.65886 16.8122 9.65886 16.5664V14.7126C9.65886 14.4667 9.5612 14.231 9.38738 14.0572C9.21355 13.8833 8.97779 13.7857 8.73196 13.7857ZM14.2934 24.9085H12.4396C12.1937 24.9085 11.958 25.0062 11.7841 25.18C11.6103 25.3538 11.5127 25.5896 11.5127 25.8354V27.6892C11.5127 27.935 11.6103 28.1708 11.7841 28.3446C11.958 28.5185 12.1937 28.6161 12.4396 28.6161H14.2934C14.5392 28.6161 14.775 28.5185 14.9488 28.3446C15.1226 28.1708 15.2203 27.935 15.2203 27.6892V25.8354C15.2203 25.5896 15.1226 25.3538 14.9488 25.18C14.775 25.0062 14.5392 24.9085 14.2934 24.9085ZM19.8548 24.9085H18.001C17.7552 24.9085 17.5194 25.0062 17.3456 25.18C17.1717 25.3538 17.0741 25.5896 17.0741 25.8354V27.6892C17.0741 27.935 17.1717 28.1708 17.3456 28.3446C17.5194 28.5185 17.7552 28.6161 18.001 28.6161H19.8548C20.1006 28.6161 20.3364 28.5185 20.5102 28.3446C20.684 28.1708 20.7817 27.935 20.7817 27.6892V25.8354C20.7817 25.5896 20.684 25.3538 20.5102 25.18C20.3364 25.0062 20.1006 24.9085 19.8548 24.9085ZM25.4162 24.9085H23.5624C23.3166 24.9085 23.0808 25.0062 22.907 25.18C22.7332 25.3538 22.6355 25.5896 22.6355 25.8354V27.6892C22.6355 27.935 22.7332 28.1708 22.907 28.3446C23.0808 28.5185 23.3166 28.6161 23.5624 28.6161H25.4162C25.662 28.6161 25.8978 28.5185 26.0716 28.3446C26.2455 28.1708 26.3431 27.935 26.3431 27.6892V25.8354C26.3431 25.5896 26.2455 25.3538 26.0716 25.18C25.8978 25.0062 25.662 24.9085 25.4162 24.9085ZM25.4162 19.3471H23.5624C23.3166 19.3471 23.0808 19.4447 22.907 19.6186C22.7332 19.7924 22.6355 20.0282 22.6355 20.274V22.1278C22.6355 22.3736 22.7332 22.6094 22.907 22.7832C23.0808 22.957 23.3166 23.0547 23.5624 23.0547H25.4162C25.662 23.0547 25.8978 22.957 26.0716 22.7832C26.2455 22.6094 26.3431 22.3736 26.3431 22.1278V20.274C26.3431 20.0282 26.2455 19.7924 26.0716 19.6186C25.8978 19.4447 25.662 19.3471 25.4162 19.3471ZM25.4162 8.22426H23.5624C23.3166 8.22426 23.0808 8.32191 22.907 8.49574C22.7332 8.66957 22.6355 8.90533 22.6355 9.15116V11.005C22.6355 11.2508 22.7332 11.4866 22.907 11.6604C23.0808 11.8342 23.3166 11.9319 23.5624 11.9319H25.4162C25.662 11.9319 25.8978 11.8342 26.0716 11.6604C26.2455 11.4866 26.3431 11.2508 26.3431 11.005V9.15116C26.3431 8.90533 26.2455 8.66957 26.0716 8.49574C25.8978 8.32191 25.662 8.22426 25.4162 8.22426ZM14.2934 19.3471H12.4396C12.1937 19.3471 11.958 19.4447 11.7841 19.6186C11.6103 19.7924 11.5127 20.0282 11.5127 20.274V22.1278C11.5127 22.3736 11.6103 22.6094 11.7841 22.7832C11.958 22.957 12.1937 23.0547 12.4396 23.0547H14.2934C14.5392 23.0547 14.775 22.957 14.9488 22.7832C15.1226 22.6094 15.2203 22.3736 15.2203 22.1278V20.274C15.2203 20.0282 15.1226 19.7924 14.9488 19.6186C14.775 19.4447 14.5392 19.3471 14.2934 19.3471ZM14.2934 8.22426H12.4396C12.1937 8.22426 11.958 8.32191 11.7841 8.49574C11.6103 8.66957 11.5127 8.90533 11.5127 9.15116V11.005C11.5127 11.2508 11.6103 11.4866 11.7841 11.6604C11.958 11.8342 12.1937 11.9319 12.4396 11.9319H14.2934C14.5392 11.9319 14.775 11.8342 14.9488 11.6604C15.1226 11.4866 15.2203 11.2508 15.2203 11.005V9.15116C15.2203 8.90533 15.1226 8.66957 14.9488 8.49574C14.775 8.32191 14.5392 8.22426 14.2934 8.22426ZM8.73196 24.9085H6.87815C6.63232 24.9085 6.39656 25.0062 6.22273 25.18C6.0489 25.3538 5.95125 25.5896 5.95125 25.8354V27.6892C5.95125 27.935 6.0489 28.1708 6.22273 28.3446C6.39656 28.5185 6.63232 28.6161 6.87815 28.6161H8.73196C8.97779 28.6161 9.21355 28.5185 9.38738 28.3446C9.5612 28.1708 9.65886 27.935 9.65886 27.6892V25.8354C9.65886 25.5896 9.5612 25.3538 9.38738 25.18C9.21355 25.0062 8.97779 24.9085 8.73196 24.9085ZM14.2934 2.66284H12.4396C12.1937 2.66284 11.958 2.7605 11.7841 2.93433C11.6103 3.10815 11.5127 3.34391 11.5127 3.58974V5.44355C11.5127 5.68938 11.6103 5.92514 11.7841 6.09897C11.958 6.2728 12.1937 6.37045 12.4396 6.37045H14.2934C14.5392 6.37045 14.775 6.2728 14.9488 6.09897C15.1226 5.92514 15.2203 5.68938 15.2203 5.44355V3.58974C15.2203 3.34391 15.1226 3.10815 14.9488 2.93433C14.775 2.7605 14.5392 2.66284 14.2934 2.66284ZM19.8548 2.66284H18.001C17.7552 2.66284 17.5194 2.7605 17.3456 2.93433C17.1717 3.10815 17.0741 3.34391 17.0741 3.58974V5.44355C17.0741 5.68938 17.1717 5.92514 17.3456 6.09897C17.5194 6.2728 17.7552 6.37045 18.001 6.37045H19.8548C20.1006 6.37045 20.3364 6.2728 20.5102 6.09897C20.684 5.92514 20.7817 5.68938 20.7817 5.44355V3.58974C20.7817 3.34391 20.684 3.10815 20.5102 2.93433C20.3364 2.7605 20.1006 2.66284 19.8548 2.66284ZM25.4162 2.66284H23.5624C23.3166 2.66284 23.0808 2.7605 22.907 2.93433C22.7332 3.10815 22.6355 3.34391 22.6355 3.58974V5.44355C22.6355 5.68938 22.7332 5.92514 22.907 6.09897C23.0808 6.2728 23.3166 6.37045 23.5624 6.37045H25.4162C25.662 6.37045 25.8978 6.2728 26.0716 6.09897C26.2455 5.92514 26.3431 5.68938 26.3431 5.44355V3.58974C26.3431 3.34391 26.2455 3.10815 26.0716 2.93433C25.8978 2.7605 25.662 2.66284 25.4162 2.66284ZM3.17054 13.7857H1.31673C1.0709 13.7857 0.835143 13.8833 0.661315 14.0572C0.487487 14.231 0.389832 14.4667 0.389832 14.7126L0.389832 16.5664C0.389832 16.8122 0.487487 17.048 0.661315 17.2218C0.835143 17.3956 1.0709 17.4933 1.31673 17.4933H3.17054C3.41637 17.4933 3.65213 17.3956 3.82596 17.2218C3.99979 17.048 4.09744 16.8122 4.09744 16.5664V14.7126C4.09744 14.4667 3.99979 14.231 3.82596 14.0572C3.65213 13.8833 3.41637 13.7857 3.17054 13.7857ZM3.17054 24.9085H1.31673C1.0709 24.9085 0.835143 25.0062 0.661315 25.18C0.487487 25.3538 0.389832 25.5896 0.389832 25.8354L0.389832 27.6892C0.389832 27.935 0.487487 28.1708 0.661315 28.3446C0.835143 28.5185 1.0709 28.6161 1.31673 28.6161H3.17054C3.41637 28.6161 3.65213 28.5185 3.82596 28.3446C3.99979 28.1708 4.09744 27.935 4.09744 27.6892V25.8354C4.09744 25.5896 3.99979 25.3538 3.82596 25.18C3.65213 25.0062 3.41637 24.9085 3.17054 24.9085ZM3.17054 19.3471H1.31673C1.0709 19.3471 0.835143 19.4447 0.661315 19.6186C0.487487 19.7924 0.389832 20.0282 0.389832 20.274L0.389832 22.1278C0.389832 22.3736 0.487487 22.6094 0.661315 22.7832C0.835143 22.957 1.0709 23.0547 1.31673 23.0547H3.17054C3.41637 23.0547 3.65213 22.957 3.82596 22.7832C3.99979 22.6094 4.09744 22.3736 4.09744 22.1278V20.274C4.09744 20.0282 3.99979 19.7924 3.82596 19.6186C3.65213 19.4447 3.41637 19.3471 3.17054 19.3471ZM3.17054 8.22426H1.31673C1.0709 8.22426 0.835143 8.32191 0.661315 8.49574C0.487487 8.66957 0.389832 8.90533 0.389832 9.15116L0.389832 11.005C0.389832 11.2508 0.487487 11.4866 0.661315 11.6604C0.835143 11.8342 1.0709 11.9319 1.31673 11.9319H3.17054C3.41637 11.9319 3.65213 11.8342 3.82596 11.6604C3.99979 11.4866 4.09744 11.2508 4.09744 11.005V9.15116C4.09744 8.90533 3.99979 8.66957 3.82596 8.49574C3.65213 8.32191 3.41637 8.22426 3.17054 8.22426ZM3.17054 2.66284H1.31673C1.0709 2.66284 0.835143 2.7605 0.661315 2.93433C0.487487 3.10815 0.389832 3.34391 0.389832 3.58974L0.389832 5.44355C0.389832 5.68938 0.487487 5.92514 0.661315 6.09897C0.835143 6.2728 1.0709 6.37045 1.31673 6.37045H3.17054C3.41637 6.37045 3.65213 6.2728 3.82596 6.09897C3.99979 5.92514 4.09744 5.68938 4.09744 5.44355V3.58974C4.09744 3.34391 3.99979 3.10815 3.82596 2.93433C3.65213 2.7605 3.41637 2.66284 3.17054 2.66284ZM8.73196 2.66284H6.87815C6.63232 2.66284 6.39656 2.7605 6.22273 2.93433C6.0489 3.10815 5.95125 3.34391 5.95125 3.58974V5.44355C5.95125 5.68938 6.0489 5.92514 6.22273 6.09897C6.39656 6.2728 6.63232 6.37045 6.87815 6.37045H8.73196C8.97779 6.37045 9.21355 6.2728 9.38738 6.09897C9.5612 5.92514 9.65886 5.68938 9.65886 5.44355V3.58974C9.65886 3.34391 9.5612 3.10815 9.38738 2.93433C9.21355 2.7605 8.97779 2.66284 8.73196 2.66284Z" fill="black"/>
</g>
<defs>
<clipPath id="clip0_201_5783">
<rect width="25.9533" height="29.6609" fill="white" transform="translate(0.389893 0.809326)"/>
</clipPath>
</defs>
</svg>
