<svg width="27" height="31" viewBox="0 0 27 31" fill="none" xmlns="http://www.w3.org/2000/svg">
<g clip-path="url(#clip0_201_5785)">
<path d="M24.2727 2.66284H2.02702C1.53536 2.66284 1.06384 2.85815 0.716185 3.20581C0.368529 3.55346 0.173218 4.02499 0.173218 4.51665L0.173218 26.7623C0.173218 27.254 0.368529 27.7255 0.716185 28.0732C1.06384 28.4208 1.53536 28.6161 2.02702 28.6161H24.2727C24.7643 28.6161 25.2359 28.4208 25.5835 28.0732C25.9312 27.7255 26.1265 27.254 26.1265 26.7623V4.51665C26.1265 4.02499 25.9312 3.55346 25.5835 3.20581C25.2359 2.85815 24.7643 2.66284 24.2727 2.66284ZM22.4189 6.37045V13.7857H15.0037V6.37045H22.4189ZM11.2961 6.37045V13.7857H3.88083V6.37045H11.2961ZM3.88083 24.9085V17.4933H11.2961V24.9085H3.88083ZM15.0037 24.9085V17.4933H22.4189V24.9085H15.0037Z" fill="black"/>
</g>
<defs>
<clipPath id="clip0_201_5785">
<rect width="25.9533" height="29.6609" fill="white" transform="translate(0.173218 0.809326)"/>
</clipPath>
</defs>
</svg>
