<svg width="27" height="31" viewBox="0 0 27 31" fill="none" xmlns="http://www.w3.org/2000/svg">
<g clip-path="url(#clip0_201_5781)">
<path d="M14.5104 24.9085H12.6565C12.4107 24.9085 12.175 25.0062 12.0011 25.18C11.8273 25.3538 11.7296 25.5896 11.7296 25.8354V27.6892C11.7296 27.935 11.8273 28.1708 12.0011 28.3446C12.175 28.5185 12.4107 28.6161 12.6565 28.6161H14.5104C14.7562 28.6161 14.9919 28.5185 15.1658 28.3446C15.3396 28.1708 15.4373 27.935 15.4373 27.6892V25.8354C15.4373 25.5896 15.3396 25.3538 15.1658 25.18C14.9919 25.0062 14.7562 24.9085 14.5104 24.9085ZM8.94894 24.9085H7.09513C6.8493 24.9085 6.61354 25.0062 6.43971 25.18C6.26588 25.3538 6.16823 25.5896 6.16823 25.8354V27.6892C6.16823 27.935 6.26588 28.1708 6.43971 28.3446C6.61354 28.5185 6.8493 28.6161 7.09513 28.6161H8.94894C9.19477 28.6161 9.43053 28.5185 9.60436 28.3446C9.77818 28.1708 9.87584 27.935 9.87584 27.6892V25.8354C9.87584 25.5896 9.77818 25.3538 9.60436 25.18C9.43053 25.0062 9.19477 24.9085 8.94894 24.9085ZM20.0718 24.9085H18.218C17.9721 24.9085 17.7364 25.0062 17.5625 25.18C17.3887 25.3538 17.2911 25.5896 17.2911 25.8354V27.6892C17.2911 27.935 17.3887 28.1708 17.5625 28.3446C17.7364 28.5185 17.9721 28.6161 18.218 28.6161H20.0718C20.3176 28.6161 20.5534 28.5185 20.7272 28.3446C20.901 28.1708 20.9987 27.935 20.9987 27.6892V25.8354C20.9987 25.5896 20.901 25.3538 20.7272 25.18C20.5534 25.0062 20.3176 24.9085 20.0718 24.9085ZM25.6332 13.7857H23.7794C23.5336 13.7857 23.2978 13.8833 23.124 14.0572C22.9501 14.231 22.8525 14.4667 22.8525 14.7126V16.5664C22.8525 16.8122 22.9501 17.048 23.124 17.2218C23.2978 17.3956 23.5336 17.4933 23.7794 17.4933H25.6332C25.879 17.4933 26.1148 17.3956 26.2886 17.2218C26.4624 17.048 26.5601 16.8122 26.5601 16.5664V14.7126C26.5601 14.4667 26.4624 14.231 26.2886 14.0572C26.1148 13.8833 25.879 13.7857 25.6332 13.7857ZM25.6332 19.3471H23.7794C23.5336 19.3471 23.2978 19.4447 23.124 19.6186C22.9501 19.7924 22.8525 20.0282 22.8525 20.274V22.1278C22.8525 22.3736 22.9501 22.6094 23.124 22.7832C23.2978 22.957 23.5336 23.0547 23.7794 23.0547H25.6332C25.879 23.0547 26.1148 22.957 26.2886 22.7832C26.4624 22.6094 26.5601 22.3736 26.5601 22.1278V20.274C26.5601 20.0282 26.4624 19.7924 26.2886 19.6186C26.1148 19.4447 25.879 19.3471 25.6332 19.3471ZM25.6332 24.9085H23.7794C23.5336 24.9085 23.2978 25.0062 23.124 25.18C22.9501 25.3538 22.8525 25.5896 22.8525 25.8354V27.6892C22.8525 27.935 22.9501 28.1708 23.124 28.3446C23.2978 28.5185 23.5336 28.6161 23.7794 28.6161H25.6332C25.879 28.6161 26.1148 28.5185 26.2886 28.3446C26.4624 28.1708 26.5601 27.935 26.5601 27.6892V25.8354C26.5601 25.5896 26.4624 25.3538 26.2886 25.18C26.1148 25.0062 25.879 24.9085 25.6332 24.9085ZM25.6332 8.22426H23.7794C23.5336 8.22426 23.2978 8.32191 23.124 8.49574C22.9501 8.66957 22.8525 8.90533 22.8525 9.15116V11.005C22.8525 11.2508 22.9501 11.4866 23.124 11.6604C23.2978 11.8342 23.5336 11.9319 23.7794 11.9319H25.6332C25.879 11.9319 26.1148 11.8342 26.2886 11.6604C26.4624 11.4866 26.5601 11.2508 26.5601 11.005V9.15116C26.5601 8.90533 26.4624 8.66957 26.2886 8.49574C26.1148 8.32191 25.879 8.22426 25.6332 8.22426ZM25.6332 2.66284H2.46062C1.96896 2.66284 1.49743 2.85815 1.14978 3.20581C0.802123 3.55346 0.606812 4.02499 0.606812 4.51665L0.606812 27.6892C0.606812 27.935 0.704467 28.1708 0.878295 28.3446C1.05212 28.5185 1.28788 28.6161 1.53371 28.6161H3.38752C3.63335 28.6161 3.86911 28.5185 4.04294 28.3446C4.21677 28.1708 4.31442 27.935 4.31442 27.6892V6.37045H25.6332C25.879 6.37045 26.1148 6.2728 26.2886 6.09897C26.4624 5.92514 26.5601 5.68938 26.5601 5.44355V3.58974C26.5601 3.34391 26.4624 3.10815 26.2886 2.93433C26.1148 2.7605 25.879 2.66284 25.6332 2.66284Z" fill="black"/>
</g>
<defs>
<clipPath id="clip0_201_5781">
<rect width="25.9533" height="29.6609" fill="white" transform="translate(0.606567 0.809326)"/>
</clipPath>
</defs>
</svg>
