<svg width="29" height="31" viewBox="0 0 29 31" fill="none" xmlns="http://www.w3.org/2000/svg">
<g clip-path="url(#clip0_201_5779)">
<path d="M14.4096 1.27271C6.47299 1.27271 0.0426025 7.70309 0.0426025 15.6397C0.0426025 23.5763 6.47299 30.0067 14.4096 30.0067C22.3462 30.0067 28.7766 23.5763 28.7766 15.6397C28.7766 7.70309 22.3462 1.27271 14.4096 1.27271ZM6.99437 11.9321C5.96899 11.9321 5.14057 11.1037 5.14057 10.0783C5.14057 9.0529 5.96899 8.22448 6.99437 8.22448C8.01976 8.22448 8.84818 9.0529 8.84818 10.0783C8.84818 11.1037 8.01976 11.9321 6.99437 11.9321ZM10.702 6.37067C10.702 5.34528 11.5304 4.51687 12.5558 4.51687C13.5812 4.51687 14.4096 5.34528 14.4096 6.37067C14.4096 7.39606 13.5812 8.22448 12.5558 8.22448C11.5304 8.22448 10.702 7.39606 10.702 6.37067ZM13.4827 14.7128C12.4573 14.7128 11.6289 13.8844 11.6289 12.859C11.6289 11.8336 12.4573 11.0052 13.4827 11.0052C14.5081 11.0052 15.3365 11.8336 15.3365 12.859C15.3365 13.8844 14.5081 14.7128 13.4827 14.7128Z" fill="black"/>
</g>
<defs>
<clipPath id="clip0_201_5779">
<rect width="28.734" height="29.6609" fill="white" transform="translate(0.0426025 0.809326)"/>
</clipPath>
</defs>
</svg>
