<svg width="38" height="31" viewBox="0 0 38 31" fill="none" xmlns="http://www.w3.org/2000/svg">
<g clip-path="url(#clip0_201_5777)">
<path d="M24.7984 15.6399C23.8193 15.6399 22.8982 15.1185 22.4 14.2843L18.675 8.10883L14.9558 14.2843C14.4518 15.1243 13.5307 15.6457 12.5517 15.6457C12.291 15.6457 12.0303 15.6109 11.7812 15.5356L3.84458 13.2647V23.5765C3.84458 24.4281 4.4239 25.1696 5.24653 25.3724L17.7713 28.5065C18.3622 28.6513 18.9821 28.6513 19.5672 28.5065L32.1035 25.3724C32.9262 25.1638 33.5055 24.4223 33.5055 23.5765V13.2647L25.5689 15.5298C25.3198 15.6052 25.0591 15.6399 24.7984 15.6399ZM37.1146 9.14001L34.1311 3.18466C33.9515 2.82548 33.5634 2.61693 33.1637 2.66907L18.675 4.51708L23.9873 13.3284C24.2075 13.6934 24.6478 13.8672 25.0591 13.7513L36.5237 10.4782C37.0972 10.3102 37.3753 9.67298 37.1146 9.14001ZM3.21893 3.18466L0.235457 9.14001C-0.0310277 9.67298 0.252836 10.3102 0.820564 10.4724L12.2852 13.7456C12.6965 13.8614 13.1368 13.6876 13.3569 13.3227L18.675 4.51708L4.18059 2.66907C3.78086 2.62272 3.39851 2.82548 3.21893 3.18466Z" fill="black"/>
</g>
<defs>
<clipPath id="clip0_201_5777">
<rect width="37.0761" height="29.6609" fill="white" transform="translate(0.136475 0.809326)"/>
</clipPath>
</defs>
</svg>
