<svg width="30" height="31" viewBox="0 0 30 31" fill="none" xmlns="http://www.w3.org/2000/svg">
<g clip-path="url(#clip0_201_5773)">
<path d="M29.6708 11.5035L26.7395 2.70948C26.363 1.57402 25.3028 0.809326 24.1036 0.809326H15.9121V11.9322H29.7404C29.7172 11.7873 29.7172 11.6425 29.6708 11.5035ZM14.0583 0.809326H5.86682C4.66764 0.809326 3.6075 1.57402 3.23094 2.70948L0.299614 11.5035C0.253269 11.6425 0.253269 11.7873 0.230096 11.9322H14.0583V0.809326ZM0.154785 13.786V27.6895C0.154785 29.2247 1.40031 30.4702 2.93549 30.4702H27.035C28.5701 30.4702 29.8157 29.2247 29.8157 27.6895V13.786H0.154785Z" fill="black"/>
</g>
<defs>
<clipPath id="clip0_201_5773">
<rect width="29.6609" height="29.6609" fill="white" transform="translate(0.154785 0.809326)"/>
</clipPath>
</defs>
</svg>
