<svg width="35" height="31" viewBox="0 0 35 31" fill="none" xmlns="http://www.w3.org/2000/svg">
<g clip-path="url(#clip0_201_5771)">
<path d="M33.3979 17.4936H28.7634V23.055L26.9096 21.8211L25.0558 23.055V17.4936H20.4213C19.9115 17.4936 19.4944 17.9107 19.4944 18.4205V29.5433C19.4944 30.0531 19.9115 30.4702 20.4213 30.4702H33.3979C33.9077 30.4702 34.3248 30.0531 34.3248 29.5433V18.4205C34.3248 17.9107 33.9077 17.4936 33.3979 17.4936ZM11.1522 13.786H24.1289C24.6387 13.786 25.0558 13.3689 25.0558 12.8591V1.73623C25.0558 1.22643 24.6387 0.809326 24.1289 0.809326H19.4944V6.37074L17.6405 5.1368L15.7867 6.37074V0.809326H11.1522C10.6424 0.809326 10.2253 1.22643 10.2253 1.73623V12.8591C10.2253 13.3689 10.6424 13.786 11.1522 13.786ZM14.8598 17.4936H10.2253V23.055L8.37152 21.8211L6.51772 23.055V17.4936H1.8832C1.37341 17.4936 0.956299 17.9107 0.956299 18.4205V29.5433C0.956299 30.0531 1.37341 30.4702 1.8832 30.4702H14.8598C15.3696 30.4702 15.7867 30.0531 15.7867 29.5433V18.4205C15.7867 17.9107 15.3696 17.4936 14.8598 17.4936Z" fill="black"/>
</g>
<defs>
<clipPath id="clip0_201_5771">
<rect width="33.3685" height="29.6609" fill="white" transform="translate(0.956299 0.809326)"/>
</clipPath>
</defs>
</svg>
