<svg width="35" height="31" viewBox="0 0 35 31" fill="none" xmlns="http://www.w3.org/2000/svg">
<g clip-path="url(#clip0_201_5767)">
<path d="M12.9015 0.80957C11.1694 0.80957 9.73269 1.99716 9.32138 3.60187C9.27504 3.60187 9.24028 3.59028 9.19393 3.59028C7.14895 3.59028 5.48632 5.25291 5.48632 7.29789C5.48632 7.57596 5.52108 7.84824 5.5848 8.10893C3.89321 8.80411 2.70561 10.4609 2.70561 12.3959C2.70561 13.1258 2.89099 13.8036 3.18644 14.4177C1.79609 15.2171 0.851807 16.7002 0.851807 18.4207C0.851807 20.3498 2.03361 22.0067 3.71362 22.7019C3.66148 22.9683 3.63251 23.2406 3.63251 23.5187C3.63251 25.8244 5.49791 27.6898 7.80358 27.6898C8.0411 27.6898 8.27282 27.6608 8.49875 27.6202C9.0549 29.2713 10.5959 30.4705 12.4381 30.4705C14.7438 30.4705 16.6092 28.6051 16.6092 26.2994V4.51718C16.6092 2.4722 14.9465 0.80957 12.9015 0.80957ZM34.2203 18.4207C34.2203 16.7002 33.276 15.2171 31.8857 14.4177C32.1869 13.8036 32.3665 13.1258 32.3665 12.3959C32.3665 10.4609 31.1789 8.80411 29.4873 8.10893C29.5452 7.84824 29.5858 7.57596 29.5858 7.29789C29.5858 5.25291 27.9232 3.59028 25.8782 3.59028C25.8318 3.59028 25.7913 3.60187 25.7507 3.60187C25.3394 1.99716 23.9027 0.80957 22.1706 0.80957C20.1256 0.80957 18.463 2.46641 18.463 4.51718V26.2994C18.463 28.6051 20.3284 30.4705 22.634 30.4705C24.4762 30.4705 26.0172 29.2713 26.5734 27.6202C26.7993 27.6608 27.031 27.6898 27.2685 27.6898C29.5742 27.6898 31.4396 25.8244 31.4396 23.5187C31.4396 23.2406 31.4106 22.9683 31.3585 22.7019C33.0385 22.0067 34.2203 20.3498 34.2203 18.4207Z" fill="black"/>
</g>
<defs>
<clipPath id="clip0_201_5767">
<rect width="33.3685" height="29.6609" fill="white" transform="translate(0.851807 0.809326)"/>
</clipPath>
</defs>
</svg>
