<svg width="38" height="31" viewBox="0 0 38 31" fill="none" xmlns="http://www.w3.org/2000/svg">
<g clip-path="url(#clip0_201_5769)">
<path d="M7.46552 15.6397C7.46552 17.6874 5.80555 19.3473 3.7579 19.3473C1.71026 19.3473 0.050293 17.6874 0.050293 15.6397C0.050293 13.5921 1.71026 11.9321 3.7579 11.9321C5.80555 11.9321 7.46552 13.5921 7.46552 15.6397ZM3.7579 23.0549C2.73408 23.0549 1.9041 23.8849 1.9041 24.9088C1.9041 25.9326 2.73408 26.7626 3.7579 26.7626C4.78173 26.7626 5.61171 25.9326 5.61171 24.9088C5.61171 23.8849 4.78173 23.0549 3.7579 23.0549ZM3.7579 2.66309C1.71026 2.66309 0.050293 4.32305 0.050293 6.3707C0.050293 8.41834 1.71026 10.0783 3.7579 10.0783C5.80555 10.0783 7.46552 8.41834 7.46552 6.3707C7.46552 4.32305 5.80555 2.66309 3.7579 2.66309ZM13.0269 13.7859C12.0031 13.7859 11.1731 14.6159 11.1731 15.6397C11.1731 16.6635 12.0031 17.4935 13.0269 17.4935C14.0508 17.4935 14.8807 16.6635 14.8807 15.6397C14.8807 14.6159 14.0508 13.7859 13.0269 13.7859ZM13.0269 23.0549C12.0031 23.0549 11.1731 23.8849 11.1731 24.9088C11.1731 25.9326 12.0031 26.7626 13.0269 26.7626C14.0508 26.7626 14.8807 25.9326 14.8807 24.9088C14.8807 23.8849 14.0508 23.0549 13.0269 23.0549ZM13.0269 2.66309C10.9793 2.66309 9.31932 4.32305 9.31932 6.3707C9.31932 8.41834 10.9793 10.0783 13.0269 10.0783C15.0746 10.0783 16.7345 8.41834 16.7345 6.3707C16.7345 4.32305 15.0746 2.66309 13.0269 2.66309ZM26.0036 13.7859C24.9797 13.7859 24.1498 14.6159 24.1498 15.6397C24.1498 16.6635 24.9797 17.4935 26.0036 17.4935C27.0274 17.4935 27.8574 16.6635 27.8574 15.6397C27.8574 14.6159 27.0274 13.7859 26.0036 13.7859ZM26.0036 23.0549C24.9797 23.0549 24.1498 23.8849 24.1498 24.9088C24.1498 25.9326 24.9797 26.7626 26.0036 26.7626C27.0274 26.7626 27.8574 25.9326 27.8574 24.9088C27.8574 23.8849 27.0274 23.0549 26.0036 23.0549ZM26.0036 2.66309C23.9559 2.66309 22.296 4.32305 22.296 6.3707C22.296 8.41834 23.9559 10.0783 26.0036 10.0783C28.0512 10.0783 29.7112 8.41834 29.7112 6.3707C29.7112 4.32305 28.0512 2.66309 26.0036 2.66309ZM35.2726 13.7859C34.2488 13.7859 33.4188 14.6159 33.4188 15.6397C33.4188 16.6635 34.2488 17.4935 35.2726 17.4935C36.2964 17.4935 37.1264 16.6635 37.1264 15.6397C37.1264 14.6159 36.2964 13.7859 35.2726 13.7859ZM35.2726 23.0549C34.2488 23.0549 33.4188 23.8849 33.4188 24.9088C33.4188 25.9326 34.2488 26.7626 35.2726 26.7626C36.2964 26.7626 37.1264 25.9326 37.1264 24.9088C37.1264 23.8849 36.2964 23.0549 35.2726 23.0549ZM35.2726 4.51689C34.2488 4.51689 33.4188 5.34687 33.4188 6.3707C33.4188 7.39452 34.2488 8.2245 35.2726 8.2245C36.2964 8.2245 37.1264 7.39452 37.1264 6.3707C37.1264 5.34687 36.2964 4.51689 35.2726 4.51689Z" fill="black"/>
</g>
<defs>
<clipPath id="clip0_201_5769">
<rect width="37.0761" height="29.6609" fill="white" transform="translate(0.050293 0.809326)"/>
</clipPath>
</defs>
</svg>
