<svg width="30" height="31" viewBox="0 0 30 31" fill="none" xmlns="http://www.w3.org/2000/svg">
<g clip-path="url(#clip0_201_5763)">
<path d="M27.0424 8.2245H22.4079V5.44379C22.4079 3.90861 21.1624 2.66309 19.6272 2.66309H10.3582C8.82298 2.66309 7.57745 3.90861 7.57745 5.44379V8.2245H2.94294C1.40776 8.2245 0.162231 9.47003 0.162231 11.0052V27.6895C0.162231 29.2246 1.40776 30.4702 2.94294 30.4702H27.0424C28.5776 30.4702 29.8231 29.2246 29.8231 27.6895V11.0052C29.8231 9.47003 28.5776 8.2245 27.0424 8.2245ZM11.2851 6.3707H18.7003V8.2245H11.2851V6.3707ZM20.5541 20.7377C20.5541 20.9926 20.3455 21.2011 20.0906 21.2011H16.8465V24.4453C16.8465 24.7002 16.6379 24.9088 16.383 24.9088H13.6023C13.3474 24.9088 13.1389 24.7002 13.1389 24.4453V21.2011H9.89471C9.63981 21.2011 9.43126 20.9926 9.43126 20.7377V17.957C9.43126 17.7021 9.63981 17.4935 9.89471 17.4935H13.1389V14.2494C13.1389 13.9945 13.3474 13.7859 13.6023 13.7859H16.383C16.6379 13.7859 16.8465 13.9945 16.8465 14.2494V17.4935H20.0906C20.3455 17.4935 20.5541 17.7021 20.5541 17.957V20.7377Z" fill="black"/>
</g>
<defs>
<clipPath id="clip0_201_5763">
<rect width="29.6609" height="29.6609" fill="white" transform="translate(0.162354 0.809326)"/>
</clipPath>
</defs>
</svg>
