<svg width="38" height="31" viewBox="0 0 38 31" fill="none" xmlns="http://www.w3.org/2000/svg">
<g clip-path="url(#clip0_201_5759)">
<path d="M9.50955 11.9322H11.4636C12.1014 11.9322 12.5417 11.3048 12.3244 10.7052C12.0388 9.91846 11.8871 9.08425 11.8871 8.22455C11.8871 7.36485 12.0388 6.53063 12.3244 5.74392C12.5423 5.14433 12.1014 4.51694 11.4636 4.51694H9.50955C9.10345 4.51694 8.72979 4.77705 8.61683 5.16751C8.33354 6.15118 8.1806 7.17483 8.1806 8.22455C8.1806 9.27427 8.33354 10.2979 8.61741 11.281C8.72979 11.6715 9.10345 11.9322 9.50955 11.9322ZM5.97457 2.16145C6.30131 1.54621 5.86161 0.809326 5.16585 0.809326H3.11913C2.7559 0.809326 2.41585 1.0173 2.26523 1.34867C1.30994 3.44752 0.765381 5.77115 0.765381 8.22455C0.765381 9.65835 0.946127 12.183 2.31157 15.1103C2.46335 15.4364 2.79935 15.6398 3.15795 15.6398H5.17628C5.87262 15.6398 6.31231 14.9017 5.98442 14.2859C3.1006 8.87975 5.01639 3.96543 5.97457 2.16145ZM36.3387 1.34751C36.1881 1.01672 35.8487 0.809326 35.4854 0.809326H33.4335C32.7395 0.809326 32.2946 1.54274 32.6213 2.15623C33.6797 4.1427 35.4263 9.0744 32.6375 14.2772C32.3061 14.8959 32.7418 15.6398 33.4433 15.6398H35.4843C35.8475 15.6398 36.187 15.4324 36.3376 15.1016C37.2952 13.0027 37.8415 10.6785 37.8415 8.22455C37.8415 5.77057 37.2958 3.44636 36.3387 1.34751ZM29.0973 4.51694H27.1433C26.5055 4.51694 26.0652 5.14433 26.2824 5.74392C26.568 6.53063 26.7198 7.36485 26.7198 8.22455C26.7198 9.08425 26.568 9.91846 26.2824 10.7052C26.0646 11.3048 26.5055 11.9322 27.1433 11.9322H29.0973C29.504 11.9322 29.8771 11.672 29.99 11.281C30.2739 10.2979 30.4263 9.27427 30.4263 8.22455C30.4263 7.17483 30.2733 6.15118 29.9895 5.16809C29.8771 4.77705 29.5034 4.51694 29.0973 4.51694ZM22.3599 10.317C22.7683 9.72092 23.0087 9.00141 23.0087 8.22455C23.0087 6.17667 21.3502 4.51694 19.3034 4.51694C17.2573 4.51694 15.5981 6.17667 15.5981 8.22455C15.5981 9.00141 15.8386 9.72092 16.247 10.317L8.68692 28.4733C8.48996 28.9455 8.71357 29.4883 9.18571 29.6852L10.8953 30.3984C11.3674 30.5953 11.9102 30.3717 12.1066 29.8996L14.9563 23.055H23.65L26.5003 29.8996C26.6972 30.3723 27.2395 30.5953 27.7116 30.3984L29.4212 29.6852C29.8933 29.4883 30.1163 28.9455 29.9199 28.4733L22.3599 10.317ZM16.5007 19.3474L19.3034 12.6163L22.1062 19.3474H16.5007Z" fill="black"/>
</g>
<defs>
<clipPath id="clip0_201_5759">
<rect width="37.0761" height="29.6609" fill="white" transform="translate(0.765381 0.809326)"/>
</clipPath>
</defs>
</svg>
