<svg width="38" height="31" viewBox="0 0 38 31" fill="none" xmlns="http://www.w3.org/2000/svg">
<g clip-path="url(#clip0_201_5757)">
<path d="M15.7168 13.3671L20.7412 19.6921C20.7412 19.6921 19.7795 25.6219 16.3054 28.3887C12.8312 31.1567 0.859131 30.3654 0.859131 30.3654C0.859131 30.3654 1.07927 29.0248 1.49638 27.1542L6.97785 20.6561C7.20784 20.3838 6.92745 19.9829 6.5926 20.1057L3.09355 21.3854C3.93008 18.972 4.98906 16.7486 6.2566 15.7388C9.73075 12.972 15.7168 13.3671 15.7168 13.3671ZM37.7342 2.60694L36.5837 1.15865C36.2657 0.758927 35.6846 0.692306 35.2855 1.01035L21.8176 11.3106L19.8398 8.82124C19.5449 8.4499 18.9627 8.51942 18.7628 8.94927L17.2954 12.1094L22.3198 18.4344L25.7262 17.7131C26.1896 17.6152 26.3878 17.0643 26.0935 16.6935L24.1186 14.2071L37.5865 3.90692C37.9856 3.58946 38.0523 3.00725 37.7342 2.60694Z" fill="black"/>
</g>
<defs>
<clipPath id="clip0_201_5757">
<rect width="37.0761" height="29.6609" fill="white" transform="translate(0.859131 0.809326)"/>
</clipPath>
</defs>
</svg>
