<svg width="24" height="31" viewBox="0 0 24 31" fill="none" xmlns="http://www.w3.org/2000/svg">
<g clip-path="url(#clip0_201_5755)">
<path d="M21.1753 0.809326H2.63725C1.6136 0.809326 0.783447 1.63948 0.783447 2.66313V15.6398H23.0291V2.66313C23.0291 1.63948 22.199 0.809326 21.1753 0.809326ZM0.783447 19.3474C0.783447 21.3953 2.44376 23.055 4.49106 23.055H8.19867V26.7626C8.19867 28.8105 9.85898 30.4702 11.9063 30.4702C13.9536 30.4702 15.6139 28.8105 15.6139 26.7626V23.055H19.3215C21.3688 23.055 23.0291 21.3953 23.0291 19.3474V17.4936H0.783447V19.3474ZM11.9063 25.3722C12.6739 25.3722 13.2966 25.9944 13.2966 26.7626C13.2966 27.5302 12.6739 28.153 11.9063 28.153C11.1387 28.153 10.5159 27.5302 10.5159 26.7626C10.5159 25.9944 11.1387 25.3722 11.9063 25.3722Z" fill="black"/>
</g>
<defs>
<clipPath id="clip0_201_5755">
<rect width="22.2457" height="29.6609" fill="white" transform="translate(0.783447 0.809326)"/>
</clipPath>
</defs>
</svg>
