<svg width="30" height="31" viewBox="0 0 30 31" fill="none" xmlns="http://www.w3.org/2000/svg">
<g clip-path="url(#clip0_201_5743)">
<path d="M28.4508 8.22479H27.9874V5.44408C27.9874 2.84876 22.2406 0.80957 15.0107 0.80957C7.7809 0.80957 2.0341 2.84876 2.0341 5.44408V8.22479H1.57065C0.803061 8.22479 0.180298 8.84698 0.180298 9.61515V14.2497C0.180298 15.0173 0.803061 15.64 1.57065 15.64H2.0341V24.909C2.0341 25.9327 2.86426 26.7628 3.88791 26.7628V28.6167C3.88791 29.6403 4.71807 30.4705 5.74171 30.4705H7.59552C8.61917 30.4705 9.44933 29.6403 9.44933 28.6167V26.7628H20.5722V28.6167C20.5722 29.6403 21.4023 30.4705 22.426 30.4705H24.2798C25.3034 30.4705 26.1336 29.6403 26.1336 28.6167V26.7628H26.5043C27.4312 26.7628 27.9874 26.0213 27.9874 25.2798V15.64H28.4508C29.2184 15.64 29.8412 15.0173 29.8412 14.2497V9.61515C29.8412 8.84698 29.2184 8.22479 28.4508 8.22479ZM9.44933 4.98063C9.44933 4.72458 9.65672 4.51718 9.91278 4.51718H20.1087C20.3648 4.51718 20.5722 4.72458 20.5722 4.98063V5.90754C20.5722 6.16359 20.3648 6.37099 20.1087 6.37099H9.91278C9.65672 6.37099 9.44933 6.16359 9.44933 5.90754V4.98063ZM6.66862 23.9821C5.64497 23.9821 4.81481 23.152 4.81481 22.1283C4.81481 21.1047 5.64497 20.2745 6.66862 20.2745C7.69227 20.2745 8.52242 21.1047 8.52242 22.1283C8.52242 23.152 7.69227 23.9821 6.66862 23.9821ZM14.0838 17.4938H7.59552C6.57187 17.4938 5.74171 16.6637 5.74171 15.64V10.0786C5.74171 9.05495 6.57187 8.22479 7.59552 8.22479H14.0838V17.4938ZM15.9376 17.4938V8.22479H22.426C23.4496 8.22479 24.2798 9.05495 24.2798 10.0786V15.64C24.2798 16.6637 23.4496 17.4938 22.426 17.4938H15.9376ZM23.3529 23.9821C22.3292 23.9821 21.4991 23.152 21.4991 22.1283C21.4991 21.1047 22.3292 20.2745 23.3529 20.2745C24.3765 20.2745 25.2067 21.1047 25.2067 22.1283C25.2067 23.152 24.3765 23.9821 23.3529 23.9821Z" fill="black"/>
</g>
<defs>
<clipPath id="clip0_201_5743">
<rect width="29.6609" height="29.6609" fill="white" transform="translate(0.180298 0.809326)"/>
</clipPath>
</defs>
</svg>
