<svg width="31" height="31" viewBox="0 0 31 31" fill="none" xmlns="http://www.w3.org/2000/svg">
<g clip-path="url(#clip0_201_5741)">
<path d="M28.9602 8.22455H28.4968V5.44384C28.4968 2.84851 22.75 0.809326 15.5201 0.809326C8.2903 0.809326 2.5435 2.84851 2.5435 5.44384V8.22455H2.08005C1.31246 8.22455 0.689697 8.84673 0.689697 9.6149V14.2494C0.689697 15.017 1.31246 15.6398 2.08005 15.6398H2.5435V24.9088C2.5435 25.9324 3.37366 26.7626 4.39731 26.7626V28.6164C4.39731 29.6401 5.22747 30.4702 6.25111 30.4702H8.10492C9.12857 30.4702 9.95872 29.6401 9.95872 28.6164V26.7626H21.0816V28.6164C21.0816 29.6401 21.9117 30.4702 22.9354 30.4702H24.7892C25.8128 30.4702 26.643 29.6401 26.643 28.6164V26.7626H27.0137C27.9406 26.7626 28.4968 26.0211 28.4968 25.2796V15.6398H28.9602C29.7278 15.6398 30.3506 15.017 30.3506 14.2494V9.6149C30.3506 8.84673 29.7278 8.22455 28.9602 8.22455ZM7.17802 23.9819C6.15437 23.9819 5.32421 23.1517 5.32421 22.1281C5.32421 21.1044 6.15437 20.2743 7.17802 20.2743C8.20166 20.2743 9.03182 21.1044 9.03182 22.1281C9.03182 23.1517 8.20166 23.9819 7.17802 23.9819ZM8.10492 17.4936C7.08127 17.4936 6.25111 16.6634 6.25111 15.6398V8.22455C6.25111 7.2009 7.08127 6.37074 8.10492 6.37074H22.9354C23.959 6.37074 24.7892 7.2009 24.7892 8.22455V15.6398C24.7892 16.6634 23.959 17.4936 22.9354 17.4936H8.10492ZM23.8623 23.9819C22.8386 23.9819 22.0085 23.1517 22.0085 22.1281C22.0085 21.1044 22.8386 20.2743 23.8623 20.2743C24.8859 20.2743 25.7161 21.1044 25.7161 22.1281C25.7161 23.1517 24.8859 23.9819 23.8623 23.9819Z" fill="black"/>
</g>
<defs>
<clipPath id="clip0_201_5741">
<rect width="29.6609" height="29.6609" fill="white" transform="translate(0.689453 0.809326)"/>
</clipPath>
</defs>
</svg>
