<svg width="38" height="31" viewBox="0 0 38 31" fill="none" xmlns="http://www.w3.org/2000/svg">
<g clip-path="url(#clip0_201_5739)">
<path d="M29.5169 13.7862C24.9062 13.7862 21.1748 17.5176 21.1748 22.1283C21.1748 26.7391 24.9062 30.4705 29.5169 30.4705C34.1277 30.4705 37.8591 26.7391 37.8591 22.1283C37.8591 17.5176 34.1277 13.7862 29.5169 13.7862ZM33.2246 22.4927C33.2246 22.8021 32.9714 23.0552 32.662 23.0552H29.1531C28.8438 23.0552 28.5906 22.8021 28.5906 22.4927V18.0569C28.5906 17.7476 28.8438 17.4944 29.1531 17.4944H29.8813C30.1907 17.4944 30.4438 17.7476 30.4438 18.0569V21.2014H32.662C32.9714 21.2014 33.2246 21.4546 33.2246 21.7639V22.4927ZM29.5169 11.9324C29.8298 11.9324 30.138 11.9515 30.4438 11.9793V9.1517C30.4438 7.66865 29.1462 6.37099 27.6631 6.37099H23.0286V3.59028C23.0286 2.10723 21.731 0.80957 20.2479 0.80957H10.9789C9.49584 0.80957 8.19818 2.10723 8.19818 3.59028V6.37099H3.56367C2.08062 6.37099 0.782959 7.66865 0.782959 9.1517V13.7862H23.6728C25.3297 12.6224 27.3428 11.9324 29.5169 11.9324ZM19.321 6.37099H11.9058V4.51718H19.321V6.37099ZM19.7161 19.3476H12.8327C12.3206 19.3476 11.9058 18.9328 11.9058 18.4207V15.64H0.782959V23.9821C0.782959 25.4652 2.08062 26.7628 3.56367 26.7628H20.4466C19.7323 25.3702 19.321 23.7979 19.321 22.1283C19.321 21.1632 19.4647 20.2328 19.7161 19.3476Z" fill="black"/>
</g>
<defs>
<clipPath id="clip0_201_5739">
<rect width="37.0761" height="29.6609" fill="white" transform="translate(0.783203 0.809326)"/>
</clipPath>
</defs>
</svg>
