<svg width="27" height="30" viewBox="0 0 27 30" fill="none" xmlns="http://www.w3.org/2000/svg">
<g clip-path="url(#clip0_201_5727)">
<path d="M25.7883 9.41747H1.22533C0.842981 9.41747 0.530151 9.10464 0.530151 8.72229V6.63676C0.530151 5.10157 1.77568 3.85605 3.31086 3.85605H6.09157V0.843615C6.09157 0.461267 6.4044 0.148438 6.78675 0.148438H9.104C9.48635 0.148438 9.79918 0.461267 9.79918 0.843615V3.85605H17.2144V0.843615C17.2144 0.461267 17.5272 0.148438 17.9096 0.148438H20.2268C20.6092 0.148438 20.922 0.461267 20.922 0.843615V3.85605H23.7027C25.2379 3.85605 26.4834 5.10157 26.4834 6.63676V8.72229C26.4834 9.10464 26.1706 9.41747 25.7883 9.41747ZM1.22533 11.2713H25.7883C26.1706 11.2713 26.4834 11.5841 26.4834 11.9664V27.0286C26.4834 28.5638 25.2379 29.8093 23.7027 29.8093H3.31086C1.77568 29.8093 0.530151 28.5638 0.530151 27.0286V11.9664C0.530151 11.5841 0.842981 11.2713 1.22533 11.2713ZM19.5317 19.3817C19.5317 18.9993 19.2188 18.6865 18.8365 18.6865H15.3606V15.2106C15.3606 14.8283 15.0478 14.5154 14.6654 14.5154H12.3482C11.9658 14.5154 11.653 14.8283 11.653 15.2106V18.6865H8.1771C7.79475 18.6865 7.48192 18.9993 7.48192 19.3817V21.6989C7.48192 22.0813 7.79475 22.3941 8.1771 22.3941H11.653V25.87C11.653 26.2523 11.9658 26.5652 12.3482 26.5652H14.6654C15.0478 26.5652 15.3606 26.2523 15.3606 25.87V22.3941H18.8365C19.2188 22.3941 19.5317 22.0813 19.5317 21.6989V19.3817Z" fill="black"/>
</g>
<defs>
<clipPath id="clip0_201_5727">
<rect width="25.9533" height="29.6609" fill="white" transform="translate(0.530151 0.148438)"/>
</clipPath>
</defs>
</svg>
