<svg width="27" height="30" viewBox="0 0 27 30" fill="none" xmlns="http://www.w3.org/2000/svg">
<g clip-path="url(#clip0_201_5731)">
<path d="M0.0969849 27.0286C0.0969849 28.5638 1.34251 29.8093 2.87769 29.8093H23.2696C24.8047 29.8093 26.0503 28.5638 26.0503 27.0286V11.2713H0.0969849V27.0286ZM3.8046 15.9058C3.8046 15.396 4.2217 14.9789 4.7315 14.9789H10.2929C10.8027 14.9789 11.2198 15.396 11.2198 15.9058V21.4672C11.2198 21.977 10.8027 22.3941 10.2929 22.3941H4.7315C4.2217 22.3941 3.8046 21.977 3.8046 21.4672V15.9058ZM23.2696 3.85605H20.4888V1.07534C20.4888 0.565544 20.0717 0.148438 19.5619 0.148438H17.7081C17.1983 0.148438 16.7812 0.565544 16.7812 1.07534V3.85605H9.36601V1.07534C9.36601 0.565544 8.94891 0.148438 8.43911 0.148438H6.5853C6.07551 0.148438 5.6584 0.565544 5.6584 1.07534V3.85605H2.87769C1.34251 3.85605 0.0969849 5.10157 0.0969849 6.63676V9.41747H26.0503V6.63676C26.0503 5.10157 24.8047 3.85605 23.2696 3.85605Z" fill="black"/>
</g>
<defs>
<clipPath id="clip0_201_5731">
<rect width="25.9533" height="29.6609" fill="white" transform="translate(0.0968018 0.148438)"/>
</clipPath>
</defs>
</svg>
