<svg width="27" height="30" viewBox="0 0 27 30" fill="none" xmlns="http://www.w3.org/2000/svg">
<g clip-path="url(#clip0_201_5721)">
<path d="M0.875353 11.271H25.4383C25.8206 11.271 26.1335 11.5839 26.1335 11.9662V27.0284C26.1335 28.5636 24.8879 29.8091 23.3527 29.8091H2.96088C1.4257 29.8091 0.180176 28.5636 0.180176 27.0284V11.9662C0.180176 11.5839 0.493005 11.271 0.875353 11.271ZM26.1335 8.72204V6.63651C26.1335 5.10133 24.8879 3.8558 23.3527 3.8558H20.572V0.84337C20.572 0.461023 20.2592 0.148193 19.8769 0.148193H17.5596C17.1773 0.148193 16.8644 0.461023 16.8644 0.84337V3.8558H9.4492V0.84337C9.4492 0.461023 9.13637 0.148193 8.75403 0.148193H6.43677C6.05442 0.148193 5.74159 0.461023 5.74159 0.84337V3.8558H2.96088C1.4257 3.8558 0.180176 5.10133 0.180176 6.63651V8.72204C0.180176 9.10439 0.493005 9.41722 0.875353 9.41722H25.4383C25.8206 9.41722 26.1335 9.10439 26.1335 8.72204Z" fill="black"/>
</g>
<defs>
<clipPath id="clip0_201_5721">
<rect width="25.9533" height="29.6609" fill="white" transform="translate(0.180176 0.148438)"/>
</clipPath>
</defs>
</svg>
