<svg width="27" height="30" viewBox="0 0 27 30" fill="none" xmlns="http://www.w3.org/2000/svg">
<g clip-path="url(#clip0_201_5733)">
<path d="M26.1381 9.41747H1.57515C1.19124 9.41747 0.879974 9.1062 0.879974 8.72229V6.63676C0.879974 5.101 2.12492 3.85605 3.66068 3.85605H6.44139V0.843615C6.44139 0.459703 6.75266 0.148438 7.13657 0.148438H9.45382C9.83774 0.148438 10.149 0.459703 10.149 0.843615V3.85605H17.5642V0.843615C17.5642 0.459703 17.8755 0.148438 18.2594 0.148438H20.5767C20.9606 0.148438 21.2718 0.459703 21.2718 0.843615V3.85605H24.0525C25.5883 3.85605 26.8333 5.101 26.8333 6.63676V8.72229C26.8333 9.1062 26.522 9.41747 26.1381 9.41747ZM1.57515 11.2713H26.1381C26.522 11.2713 26.8333 11.5825 26.8333 11.9664V27.0286C26.8333 28.5644 25.5883 29.8093 24.0525 29.8093H3.66068C2.12492 29.8093 0.879974 28.5644 0.879974 27.0286V11.9664C0.879974 11.5825 1.19124 11.2713 1.57515 11.2713ZM20.8835 16.8296L19.2516 15.1845C18.9812 14.9119 18.5411 14.9101 18.2685 15.1805L12.1256 21.274L9.46194 18.5888C9.19157 18.3162 8.75135 18.3144 8.47878 18.5848L6.8337 20.2168C6.56114 20.4871 6.55934 20.9273 6.82976 21.1998L11.615 26.0237C11.8853 26.2963 12.3255 26.2981 12.5981 26.0277L20.8795 17.8127C21.1521 17.5423 21.1539 17.1022 20.8835 16.8296Z" fill="black"/>
</g>
<defs>
<clipPath id="clip0_201_5733">
<rect width="25.9533" height="29.6609" fill="white" transform="translate(0.880127 0.148438)"/>
</clipPath>
</defs>
</svg>
