<svg width="27" height="30" viewBox="0 0 27 30" fill="none" xmlns="http://www.w3.org/2000/svg">
<g clip-path="url(#clip0_201_5735)">
<path d="M0.663239 27.0289C0.663239 28.564 1.90876 29.8096 3.44395 29.8096H23.8358C25.371 29.8096 26.6165 28.564 26.6165 27.0289V11.2715H0.663239V27.0289ZM19.2013 15.6743C19.2013 15.292 19.5141 14.9791 19.8965 14.9791H22.2137C22.5961 14.9791 22.9089 15.292 22.9089 15.6743V17.9916C22.9089 18.3739 22.5961 18.6867 22.2137 18.6867H19.8965C19.5141 18.6867 19.2013 18.3739 19.2013 17.9916V15.6743ZM19.2013 23.0895C19.2013 22.7072 19.5141 22.3943 19.8965 22.3943H22.2137C22.5961 22.3943 22.9089 22.7072 22.9089 23.0895V25.4068C22.9089 25.7891 22.5961 26.102 22.2137 26.102H19.8965C19.5141 26.102 19.2013 25.7891 19.2013 25.4068V23.0895ZM11.7861 15.6743C11.7861 15.292 12.0989 14.9791 12.4812 14.9791H14.7985C15.1809 14.9791 15.4937 15.292 15.4937 15.6743V17.9916C15.4937 18.3739 15.1809 18.6867 14.7985 18.6867H12.4812C12.0989 18.6867 11.7861 18.3739 11.7861 17.9916V15.6743ZM11.7861 23.0895C11.7861 22.7072 12.0989 22.3943 12.4812 22.3943H14.7985C15.1809 22.3943 15.4937 22.7072 15.4937 23.0895V25.4068C15.4937 25.7891 15.1809 26.102 14.7985 26.102H12.4812C12.0989 26.102 11.7861 25.7891 11.7861 25.4068V23.0895ZM4.37085 15.6743C4.37085 15.292 4.68368 14.9791 5.06603 14.9791H7.38328C7.76563 14.9791 8.07846 15.292 8.07846 15.6743V17.9916C8.07846 18.3739 7.76563 18.6867 7.38328 18.6867H5.06603C4.68368 18.6867 4.37085 18.3739 4.37085 17.9916V15.6743ZM4.37085 23.0895C4.37085 22.7072 4.68368 22.3943 5.06603 22.3943H7.38328C7.76563 22.3943 8.07846 22.7072 8.07846 23.0895V25.4068C8.07846 25.7891 7.76563 26.102 7.38328 26.102H5.06603C4.68368 26.102 4.37085 25.7891 4.37085 25.4068V23.0895ZM23.8358 3.85629H21.0551V1.07558C21.0551 0.565788 20.638 0.148682 20.1282 0.148682H18.2744C17.7646 0.148682 17.3475 0.565788 17.3475 1.07558V3.85629H9.93227V1.07558C9.93227 0.565788 9.51516 0.148682 9.00536 0.148682H7.15156C6.64176 0.148682 6.22466 0.565788 6.22466 1.07558V3.85629H3.44395C1.90876 3.85629 0.663239 5.10182 0.663239 6.637V9.41771H26.6165V6.637C26.6165 5.10182 25.371 3.85629 23.8358 3.85629Z" fill="black"/>
</g>
<defs>
<clipPath id="clip0_201_5735">
<rect width="25.9533" height="29.6609" fill="white" transform="translate(0.663452 0.148438)"/>
</clipPath>
</defs>
</svg>
