<svg width="27" height="30" viewBox="0 0 27 30" fill="none" xmlns="http://www.w3.org/2000/svg">
<g clip-path="url(#clip0_201_5723)">
<path d="M0.963501 27.0284C0.963501 28.5636 2.20903 29.8091 3.74421 29.8091H24.1361C25.6713 29.8091 26.9168 28.5636 26.9168 27.0284V11.271H0.963501V27.0284ZM4.67111 15.9055C4.67111 15.3957 5.08822 14.9786 5.59801 14.9786H22.2823C22.7921 14.9786 23.2092 15.3957 23.2092 15.9055V19.6132C23.2092 20.1229 22.7921 20.5401 22.2823 20.5401H5.59801C5.08822 20.5401 4.67111 20.1229 4.67111 19.6132V15.9055ZM24.1361 3.8558H21.3554V1.0751C21.3554 0.5653 20.9383 0.148193 20.4285 0.148193H18.5747C18.0649 0.148193 17.6478 0.5653 17.6478 1.0751V3.8558H10.2325V1.0751C10.2325 0.5653 9.81542 0.148193 9.30563 0.148193H7.45182C6.94202 0.148193 6.52492 0.5653 6.52492 1.0751V3.8558H3.74421C2.20903 3.8558 0.963501 5.10133 0.963501 6.63651V9.41722H26.9168V6.63651C26.9168 5.10133 25.6713 3.8558 24.1361 3.8558Z" fill="black"/>
</g>
<defs>
<clipPath id="clip0_201_5723">
<rect width="25.9533" height="29.6609" fill="white" transform="translate(0.963501 0.148438)"/>
</clipPath>
</defs>
</svg>
