<svg width="30" height="30" viewBox="0 0 30 30" fill="none" xmlns="http://www.w3.org/2000/svg">
<g clip-path="url(#clip0_201_5717)">
<path d="M29.8592 8.49027V25.1745C29.8592 26.7097 28.6137 27.9552 27.0785 27.9552H2.97901C1.44383 27.9552 0.198303 26.7097 0.198303 25.1745V8.49027C0.198303 6.95509 1.44383 5.70956 2.97901 5.70956H8.07698L8.78953 3.80362C9.19505 2.7203 10.232 2.00195 11.3907 2.00195H18.661C19.8197 2.00195 20.8566 2.7203 21.2622 3.80362L21.9805 5.70956H27.0785C28.6137 5.70956 29.8592 6.95509 29.8592 8.49027ZM21.9805 16.8324C21.9805 12.9973 18.8638 9.88063 15.0287 9.88063C11.1937 9.88063 8.07698 12.9973 8.07698 16.8324C8.07698 20.6675 11.1937 23.7842 15.0287 23.7842C18.8638 23.7842 21.9805 20.6675 21.9805 16.8324ZM20.1267 16.8324C20.1267 19.6421 17.8384 21.9304 15.0287 21.9304C12.2191 21.9304 9.93078 19.6421 9.93078 16.8324C9.93078 14.0227 12.2191 11.7344 15.0287 11.7344C17.8384 11.7344 20.1267 14.0227 20.1267 16.8324Z" fill="black"/>
</g>
<defs>
<clipPath id="clip0_201_5717">
<rect width="29.6609" height="29.6609" fill="white" transform="translate(0.198486 0.148438)"/>
</clipPath>
</defs>
</svg>
