<svg width="31" height="30" viewBox="0 0 31 30" fill="none" xmlns="http://www.w3.org/2000/svg">
<g clip-path="url(#clip0_201_5719)">
<path d="M3.4701 2.00195C1.93492 2.00195 0.689392 3.24748 0.689392 4.78266V25.1745C0.689392 26.7097 1.93492 27.9552 3.4701 27.9552H27.5696C29.1048 27.9552 30.3503 26.7097 30.3503 25.1745V4.78266C30.3503 3.24748 29.1048 2.00195 27.5696 2.00195H3.4701ZM3.4701 3.85576H9.61083C9.802 3.85576 9.95842 4.01217 9.95842 4.20335V5.36198C9.95842 5.55315 9.802 5.70956 9.61083 5.70956H2.89079C2.69961 5.70956 2.5432 5.55315 2.5432 5.36198V4.78266C2.5432 4.27286 2.9603 3.85576 3.4701 3.85576ZM28.1489 9.41718H2.89079C2.69961 9.41718 2.5432 9.26076 2.5432 9.06959V6.98406C2.5432 6.79288 2.69961 6.63647 2.89079 6.63647H10.8853L12.6349 4.01217C12.6986 3.91369 12.8086 3.85576 12.9245 3.85576H27.5696C28.0794 3.85576 28.4965 4.27286 28.4965 4.78266V9.06959C28.4965 9.26076 28.3401 9.41718 28.1489 9.41718ZM15.5198 24.7111C11.6848 24.7111 8.56807 21.5944 8.56807 17.7593C8.56807 13.9242 11.6848 10.8075 15.5198 10.8075C19.3549 10.8075 22.4716 13.9242 22.4716 17.7593C22.4716 21.5944 19.3549 24.7111 15.5198 24.7111ZM15.5198 12.6613C12.7102 12.6613 10.4219 14.9496 10.4219 17.7593C10.4219 20.569 12.7102 22.8573 15.5198 22.8573C18.3295 22.8573 20.6178 20.569 20.6178 17.7593C20.6178 14.9496 18.3295 12.6613 15.5198 12.6613ZM12.7391 18.6862C12.2293 18.6862 11.8122 18.2691 11.8122 17.7593C11.8122 15.7143 13.4749 14.0517 15.5198 14.0517C16.0296 14.0517 16.4467 14.4688 16.4467 14.9786C16.4467 15.4884 16.0296 15.9055 15.5198 15.9055C14.5002 15.9055 13.666 16.7397 13.666 17.7593C13.666 18.2691 13.2489 18.6862 12.7391 18.6862Z" fill="black"/>
</g>
<defs>
<clipPath id="clip0_201_5719">
<rect width="29.6609" height="29.6609" fill="white" transform="translate(0.689331 0.148438)"/>
</clipPath>
</defs>
</svg>
