<svg width="31" height="30" viewBox="0 0 31 30" fill="none" xmlns="http://www.w3.org/2000/svg">
<g clip-path="url(#clip0_201_5713)">
<path d="M29.6227 5.47788C28.0065 2.06572 24.658 0.148193 21.2169 0.148193C19.6006 0.148193 17.9611 0.571093 16.4781 1.45744L14.885 2.40752C14.0044 2.93469 13.7206 4.07015 14.2477 4.95071L16.1479 8.13114C16.4955 8.71046 17.1096 9.03487 17.741 9.03487C18.0654 9.03487 18.3898 8.94798 18.6911 8.77418L20.2842 7.82411C20.5796 7.64452 20.9099 7.56342 21.2343 7.56342C21.8657 7.56342 22.4798 7.88783 22.8274 8.46715C23.3546 9.34191 23.0649 10.4832 22.1901 11.0103L1.70559 23.1817C0.825031 23.7089 0.541167 24.8444 1.06834 25.7249L2.96849 28.9054C3.31608 29.4847 3.93016 29.8091 4.56161 29.8091C4.88602 29.8091 5.21044 29.7222 5.51168 29.5484L25.6313 17.5856C29.785 15.1003 31.6909 9.85171 29.6227 5.47788ZM19.3283 6.23099L19.1835 6.31789L17.9959 2.75511C18.5578 2.48283 19.1429 2.28586 19.7512 2.16421L20.9446 5.74437C20.3769 5.79071 19.8207 5.93554 19.3283 6.23099ZM9.25405 25.163L5.7492 22.9326L7.53349 21.8725L11.0383 24.1028L9.25405 25.163ZM15.4817 21.4612L11.9768 19.2308L13.7611 18.1707L17.266 20.401L15.4817 21.4612ZM21.9063 17.6435L18.4014 15.4131L20.1857 14.353L23.6906 16.5833L21.9063 17.6435ZM23.0881 6.21361L25.7529 3.54877C26.2395 3.92532 26.6798 4.3656 27.0622 4.85802L24.4147 7.50548C24.0845 6.96672 23.621 6.52644 23.0881 6.21361ZM27.8442 12.4586L24.3973 11.3116C24.5827 11.0045 24.7333 10.6801 24.826 10.321C24.8897 10.0603 24.9245 9.79378 24.9303 9.53308L28.4294 10.6975C28.3077 11.3 28.1107 11.8909 27.8442 12.4586Z" fill="black"/>
</g>
<defs>
<clipPath id="clip0_201_5713">
<rect width="29.6609" height="29.6609" fill="white" transform="translate(0.801514 0.148438)"/>
</clipPath>
</defs>
</svg>
