<svg width="30" height="30" viewBox="0 0 30 30" fill="none" xmlns="http://www.w3.org/2000/svg">
<g clip-path="url(#clip0_201_5711)">
<path d="M29.4774 21.018C29.3871 20.9705 27.601 20.0395 25.0294 19.5228C28.7515 15.171 29.8986 10.157 29.9496 9.92702C30.0179 9.61824 29.9241 9.29556 29.7005 9.07137C29.5249 8.89526 29.288 8.79909 29.0447 8.79909C28.9786 8.79909 28.912 8.80604 28.8454 8.82111C28.6206 8.87035 23.832 9.95598 19.5428 13.4417C19.5433 13.3571 19.5433 13.272 19.5433 13.1868C19.5433 6.30515 16.0686 0.805715 15.9209 0.575148C15.8372 0.444242 15.7219 0.336514 15.5856 0.261897C15.4494 0.18728 15.2965 0.148177 15.1411 0.148193C14.8254 0.148193 14.5311 0.309243 14.3608 0.575148C14.2131 0.805715 10.7383 6.30515 10.7383 13.1868C10.7383 13.272 10.7389 13.3571 10.7389 13.4417C6.45026 9.95656 1.66165 8.87093 1.4363 8.82111C1.37026 8.80662 1.30363 8.79909 1.23701 8.79909C0.993701 8.79909 0.756762 8.89526 0.58123 9.07137C0.471199 9.18159 0.390742 9.31778 0.347301 9.46734C0.303861 9.6169 0.29884 9.775 0.332704 9.92702C0.383684 10.157 1.53073 15.171 5.25282 19.5228C2.68124 20.0395 0.895797 20.9705 0.804845 21.018C0.655813 21.0967 0.53106 21.2146 0.444005 21.3589C0.35695 21.5032 0.310885 21.6685 0.310766 21.8371C0.310647 22.0056 0.356477 22.171 0.443329 22.3155C0.53018 22.4599 0.654766 22.5779 0.803686 22.6569C0.945618 22.7316 4.3236 24.4945 8.53695 24.4945C8.89265 24.4945 9.22981 24.4887 9.55075 24.4765C8.89207 25.7643 8.59373 26.6958 8.57693 26.7486C8.47265 27.0776 8.56013 27.4374 8.80344 27.6818C8.923 27.8018 9.07313 27.8868 9.23754 27.9275C9.40195 27.9683 9.57438 27.9632 9.73613 27.913C9.84215 27.88 11.9213 27.2184 14.2142 25.6369V29.3456C14.2142 29.6017 14.4216 29.8091 14.6777 29.8091H15.6046C15.8606 29.8091 16.068 29.6017 16.068 29.3456V25.6374C18.361 27.219 20.4401 27.88 20.5461 27.9136C20.7079 27.9638 20.8803 27.9689 21.0447 27.9281C21.2091 27.8874 21.3593 27.8024 21.4788 27.6824C21.7221 27.438 21.8096 27.0782 21.7053 26.7491C21.6885 26.6964 21.3896 25.7649 20.7315 24.4771C21.0525 24.4892 21.3902 24.495 21.7453 24.495C25.9581 24.495 29.3366 22.7322 29.4786 22.6574C29.7821 22.4964 29.9722 22.1813 29.9716 21.8377C29.971 21.4936 29.781 21.1779 29.4774 21.018Z" fill="black"/>
</g>
<defs>
<clipPath id="clip0_201_5711">
<rect width="29.6609" height="29.6609" fill="white" transform="translate(0.310547 0.148438)"/>
</clipPath>
</defs>
</svg>
