<svg width="34" height="30" viewBox="0 0 34 30" fill="none" xmlns="http://www.w3.org/2000/svg">
<g clip-path="url(#clip0_201_5709)">
<path d="M32.2814 17.5334L24.6866 6.68281C23.3947 4.84059 21.3381 3.85576 19.2526 3.85576C17.9434 3.85576 16.6167 4.2439 15.4581 5.05494C14.3168 5.85439 13.5058 6.95509 13.0539 8.17165C12.8859 4.73632 10.0763 2.00195 6.60038 2.00195C3.01442 2.00195 0.112061 4.90432 0.112061 8.49027V21.4669C0.112061 25.0529 3.01442 27.9552 6.60038 27.9552C10.1863 27.9552 13.0887 25.0529 13.0887 21.4669V12.8293C13.2799 13.3275 13.5116 13.82 13.8302 14.2776L21.4308 25.1282C22.7169 26.9704 24.7735 27.9552 26.8648 27.9552C28.1798 27.9552 29.5007 27.5671 30.6593 26.7561C33.6544 24.6589 34.3785 20.5284 32.2814 17.5334ZM9.38109 14.9786H3.81967V8.49027C3.81967 6.95509 5.0652 5.70956 6.60038 5.70956C8.13556 5.70956 9.38109 6.95509 9.38109 8.49027V14.9786ZM20.6661 17.5797L16.8658 12.1515C16.4198 11.5143 16.246 10.738 16.385 9.97332C16.5182 9.20862 16.9469 8.53662 17.5842 8.09055C18.0766 7.74296 18.6559 7.56337 19.2526 7.56337C20.2085 7.56337 21.1006 8.02682 21.6452 8.8089L25.4455 14.2371L20.6661 17.5797Z" fill="black"/>
</g>
<defs>
<clipPath id="clip0_201_5709">
<rect width="33.3685" height="29.6609" fill="white" transform="translate(0.112061 0.148438)"/>
</clipPath>
</defs>
</svg>
