<svg width="29" height="30" viewBox="0 0 29 30" fill="none" xmlns="http://www.w3.org/2000/svg">
<g clip-path="url(#clip0_201_5707)">
<path d="M25.8873 12.4487L25.2361 10.8208L24.0816 7.93408C23.0904 5.45636 20.7262 3.85571 18.0573 3.85571H10.7C8.03167 3.85571 5.66691 5.45636 4.67571 7.93408L3.52113 10.8208L2.86998 12.4487C1.47268 12.9799 0.475098 14.3216 0.475098 15.9054V18.6862C0.475098 19.62 0.831955 20.4629 1.402 21.1152V24.2476C1.402 25.2712 2.23216 26.1014 3.25581 26.1014H5.10961C6.13326 26.1014 6.96342 25.2712 6.96342 24.2476V22.3938H21.7939V24.2476C21.7939 25.2712 22.624 26.1014 23.6477 26.1014H25.5015C26.5251 26.1014 27.3553 25.2712 27.3553 24.2476V21.1152C27.9253 20.4635 28.2822 19.6206 28.2822 18.6862V15.9054C28.2822 14.3216 27.2846 12.9799 25.8873 12.4487ZM8.11799 9.31111C8.54031 8.2556 9.5628 7.56332 10.7 7.56332H18.0573C19.1945 7.56332 20.217 8.2556 20.6393 9.31111L21.7939 12.1978H6.96342L8.11799 9.31111ZM5.10961 18.6746C3.99733 18.6746 3.25581 17.9354 3.25581 16.8266C3.25581 15.7178 3.99733 14.9785 5.10961 14.9785C6.22189 14.9785 7.89032 16.6418 7.89032 17.7506C7.89032 18.8594 6.22189 18.6746 5.10961 18.6746ZM23.6477 18.6746C22.5354 18.6746 20.867 18.8594 20.867 17.7506C20.867 16.6418 22.5354 14.9785 23.6477 14.9785C24.76 14.9785 25.5015 15.7178 25.5015 16.8266C25.5015 17.9354 24.76 18.6746 23.6477 18.6746Z" fill="black"/>
</g>
<defs>
<clipPath id="clip0_201_5707">
<rect width="27.8071" height="29.6609" fill="white" transform="translate(0.475098 0.148438)"/>
</clipPath>
</defs>
</svg>
