<svg width="38" height="30" viewBox="0 0 38 30" fill="none" xmlns="http://www.w3.org/2000/svg">
<g clip-path="url(#clip0_201_5701)">
<path d="M31.6877 11.271H30.7608L24.459 3.39347C24.1115 2.95932 23.6709 2.60885 23.1697 2.36798C22.6686 2.12712 22.1196 2.00202 21.5636 2.00195H9.17146C7.6554 2.00195 6.29227 2.9248 5.72918 4.33253L2.95368 11.4019C1.35709 11.8155 0.172974 13.2528 0.172974 14.9786V21.4669C0.172974 21.979 0.587763 22.3938 1.09988 22.3938H3.88058C3.88058 25.4653 6.37048 27.9552 9.442 27.9552C12.5135 27.9552 15.0034 25.4653 15.0034 22.3938H22.4186C22.4186 25.4653 24.9085 27.9552 27.9801 27.9552C31.0516 27.9552 33.5415 25.4653 33.5415 22.3938H36.3222C36.8343 22.3938 37.2491 21.979 37.2491 21.4669V16.8324C37.2491 13.7609 34.7592 11.271 31.6877 11.271ZM9.442 25.1745C7.90856 25.1745 6.66129 23.9273 6.66129 22.3938C6.66129 20.8604 7.90856 19.6131 9.442 19.6131C10.9754 19.6131 12.2227 20.8604 12.2227 22.3938C12.2227 23.9273 10.9754 25.1745 9.442 25.1745ZM13.6131 11.271H6.9469L9.17146 5.70956H13.6131V11.271ZM16.3938 11.271V5.70956H21.5636L26.0127 11.271H16.3938ZM27.9801 25.1745C26.4466 25.1745 25.1993 23.9273 25.1993 22.3938C25.1993 20.8604 26.4466 19.6131 27.9801 19.6131C29.5135 19.6131 30.7608 20.8604 30.7608 22.3938C30.7608 23.9273 29.5135 25.1745 27.9801 25.1745Z" fill="black"/>
</g>
<defs>
<clipPath id="clip0_201_5701">
<rect width="37.0761" height="29.6609" fill="white" transform="translate(0.171875 0.148438)"/>
</clipPath>
</defs>
</svg>
