<svg width="38" height="30" viewBox="0 0 38 30" fill="none" xmlns="http://www.w3.org/2000/svg">
<g clip-path="url(#clip0_201_5703)">
<path d="M8.37681 12.9398L7.6573 15.6261C7.48293 16.2778 7.44701 16.9522 7.51769 17.6184L5.4785 19.2972C5.09789 19.6106 4.53364 19.2723 4.63154 18.7892L5.526 14.347C5.58741 14.0423 5.37191 13.7515 5.06255 13.7219L0.552011 13.2845C0.0613323 13.237 -0.0985585 12.5992 0.312175 12.3263L4.08641 9.81791C4.34478 9.64585 4.39808 9.28784 4.20111 9.048L1.32134 5.54836C1.00793 5.16776 1.34625 4.60408 1.82998 4.70141L6.27216 5.59587C6.57688 5.65728 6.8677 5.44177 6.89782 5.13242L7.3352 0.621876C7.38271 0.130618 8.02053 -0.0286938 8.29397 0.38204L10.8024 4.15569C10.9745 4.41407 11.3325 4.46736 11.5723 4.2704L15.0714 1.39063C15.452 1.07722 16.0156 1.41554 15.9183 1.89868L15.262 5.15211C15.105 5.3288 14.9474 5.50492 14.8037 5.69667L12.9412 8.18598L12.3208 9.01556C10.4247 9.52304 8.8924 11.0159 8.37681 12.9398ZM37.028 20.6163L36.3084 23.302C36.1271 23.9787 35.765 24.5539 35.2917 25.0029C35.1342 25.152 34.9645 25.2877 34.7843 25.4084L33.9738 28.4342C33.9078 28.6815 33.7942 28.9034 33.6465 29.0934C33.2022 29.6635 32.445 29.9439 31.7035 29.7452L29.9128 29.2655C28.9239 29.0007 28.3371 27.984 28.6018 26.9952L29.0815 25.2045L14.7562 21.366L14.2765 23.1566C14.0118 24.1455 12.9951 24.7324 12.0062 24.4676L10.2156 23.9879C9.47403 23.7892 8.95844 23.1676 8.8588 22.4522C8.82578 22.2135 8.83852 21.9644 8.90456 21.7176L9.71502 18.6918C9.61916 18.4971 9.5399 18.2946 9.47809 18.0865C9.2927 17.4614 9.26664 16.7818 9.44796 16.1052L10.1675 13.4189C10.4751 12.2719 11.289 11.4012 12.3046 10.9736C12.646 10.8298 13.0071 10.7376 13.3757 10.7002L14.426 9.29653L16.2885 6.80721C16.4884 6.54015 16.705 6.29163 16.9373 6.06337C17.4008 5.6063 17.9239 5.22685 18.4864 4.93313C18.768 4.78599 19.0594 4.66028 19.3583 4.55716C19.9567 4.34976 20.5859 4.231 21.226 4.20725C21.8661 4.1835 22.5184 4.25476 23.1626 4.42739L30.2697 6.3316C30.9139 6.50423 31.514 6.7684 32.0569 7.10962C32.8669 7.61824 33.5534 8.301 34.0665 9.10825C34.5775 9.91234 34.9146 10.8369 35.0328 11.8304L35.4012 14.9176L35.6092 16.6585C36.2108 17.0928 36.6694 17.6964 36.9266 18.3923C37.1809 19.0806 37.233 19.8516 37.028 20.6163ZM14.8842 13.7236C13.8096 13.4357 12.9024 13.9577 12.6151 15.0288C12.3277 16.1 12.8532 17.0055 13.9272 17.2934C15.0018 17.5813 16.5654 18.1919 16.8522 17.1207C17.1395 16.0496 15.9583 14.0116 14.8842 13.7236ZM31.7197 15.3556L31.3513 12.2684C31.3177 11.9863 31.2418 11.7163 31.13 11.4655C30.794 10.713 30.1335 10.1325 29.3097 9.91176L22.2027 8.00755C21.6659 7.86375 21.0983 7.88408 20.5731 8.06591C20.0479 8.24775 19.5893 8.58276 19.2563 9.02773L17.3938 11.517L27.358 14.1865L31.7197 15.3556ZM32.7908 18.5215C31.7162 18.2336 29.6741 19.4085 29.3874 20.479C29.1006 21.5502 30.7598 21.8033 31.8344 22.0913C32.909 22.3792 33.8162 21.8572 34.1036 20.7861C34.3903 19.7155 33.8655 18.8094 32.7908 18.5215Z" fill="black"/>
</g>
<defs>
<clipPath id="clip0_201_5703">
<rect width="37.0761" height="29.6609" fill="white" transform="translate(0.0780029 0.148438)"/>
</clipPath>
</defs>
</svg>
