<svg width="31" height="30" viewBox="0 0 31 30" fill="none" xmlns="http://www.w3.org/2000/svg">
<g clip-path="url(#clip0_201_5705)">
<path d="M28.7919 7.56332H26.9381V4.78262C26.9381 4.2705 26.5234 3.85571 26.0112 3.85571H20.4498C19.9377 3.85571 19.5229 4.2705 19.5229 4.78262V7.56332H12.1077V4.78262C12.1077 4.2705 11.6929 3.85571 11.1808 3.85571H5.61938C5.10726 3.85571 4.69247 4.2705 4.69247 4.78262V7.56332H2.83867C1.81502 7.56332 0.984863 8.39348 0.984863 9.41713V24.2476C0.984863 25.2712 1.81502 26.1014 2.83867 26.1014H28.7919C29.8156 26.1014 30.6458 25.2712 30.6458 24.2476V9.41713C30.6458 8.39348 29.8156 7.56332 28.7919 7.56332ZM12.1077 15.442C12.1077 15.6981 11.9003 15.9054 11.6442 15.9054H5.15593C4.89987 15.9054 4.69247 15.6981 4.69247 15.442V14.5151C4.69247 14.259 4.89987 14.0516 5.15593 14.0516H11.6442C11.9003 14.0516 12.1077 14.259 12.1077 14.5151V15.442ZM26.9381 15.442C26.9381 15.6981 26.7307 15.9054 26.4747 15.9054H24.1574V18.2227C24.1574 18.4788 23.95 18.6862 23.694 18.6862H22.7671C22.511 18.6862 22.3036 18.4788 22.3036 18.2227V15.9054H19.9864C19.7303 15.9054 19.5229 15.6981 19.5229 15.442V14.5151C19.5229 14.259 19.7303 14.0516 19.9864 14.0516H22.3036V11.7344C22.3036 11.4783 22.511 11.2709 22.7671 11.2709H23.694C23.95 11.2709 24.1574 11.4783 24.1574 11.7344V14.0516H26.4747C26.7307 14.0516 26.9381 14.259 26.9381 14.5151V15.442Z" fill="black"/>
</g>
<defs>
<clipPath id="clip0_201_5705">
<rect width="29.6609" height="29.6609" fill="white" transform="translate(0.984131 0.148438)"/>
</clipPath>
</defs>
</svg>
