<svg width="31" height="30" viewBox="0 0 31 30" fill="none" xmlns="http://www.w3.org/2000/svg">
<g clip-path="url(#clip0_201_5699)">
<path d="M29.6457 10.344H26.1774L25.2134 7.93408C24.2227 5.45636 21.8586 3.85571 19.1897 3.85571H11.8324C9.16405 3.85571 6.79929 5.45636 5.80809 7.93408L4.84411 10.344H1.37633C0.923887 10.344 0.59194 10.7692 0.70201 11.2078L1.0496 12.5981C1.12665 12.9075 1.40472 13.1247 1.72392 13.1247H2.8866C2.10859 13.8043 1.60748 14.792 1.60748 15.9054V18.6862C1.60748 19.62 1.96434 20.4629 2.53438 21.1152V24.2476C2.53438 25.2712 3.36454 26.1014 4.38819 26.1014H6.24199C7.26564 26.1014 8.0958 25.2712 8.0958 24.2476V22.3938H22.9262V24.2476C22.9262 25.2712 23.7564 26.1014 24.78 26.1014H26.6339C27.6575 26.1014 28.4877 25.2712 28.4877 24.2476V21.1152C29.0577 20.4635 29.4146 19.6206 29.4146 18.6862V15.9054C29.4146 14.792 28.9135 13.8043 28.136 13.1247H29.2987C29.6179 13.1247 29.896 12.9075 29.973 12.5981L30.3206 11.2078C30.4301 10.7692 30.0982 10.344 29.6457 10.344ZM9.25037 9.31111C9.67269 8.2556 10.6952 7.56332 11.8324 7.56332H19.1897C20.3269 7.56332 21.3493 8.2556 21.7717 9.31111L22.9262 12.1978H8.0958L9.25037 9.31111ZM6.24199 18.6746C5.12971 18.6746 4.38819 17.9354 4.38819 16.8266C4.38819 15.7178 5.12971 14.9785 6.24199 14.9785C7.35428 14.9785 9.0227 16.6418 9.0227 17.7506C9.0227 18.8594 7.35428 18.6746 6.24199 18.6746ZM24.78 18.6746C23.6678 18.6746 21.9993 18.8594 21.9993 17.7506C21.9993 16.6418 23.6678 14.9785 24.78 14.9785C25.8923 14.9785 26.6339 15.7178 26.6339 16.8266C26.6339 17.9354 25.8923 18.6746 24.78 18.6746Z" fill="black"/>
</g>
<defs>
<clipPath id="clip0_201_5699">
<rect width="29.6609" height="29.6609" fill="white" transform="translate(0.680908 0.148438)"/>
</clipPath>
</defs>
</svg>
