<svg width="38" height="30" viewBox="0 0 38 30" fill="none" xmlns="http://www.w3.org/2000/svg">
<g clip-path="url(#clip0_201_5697)">
<path d="M24.8744 12.1979C24.691 12.1979 24.5118 12.2523 24.3594 12.3541C24.207 12.456 24.0882 12.6008 24.018 12.7701C23.9479 12.9395 23.9295 13.1259 23.9653 13.3057C24.001 13.4855 24.0893 13.6506 24.219 13.7803C24.3486 13.9099 24.5137 13.9982 24.6935 14.0339C24.8733 14.0697 25.0597 14.0513 25.2291 13.9812C25.3985 13.911 25.5432 13.7922 25.6451 13.6398C25.7469 13.4874 25.8013 13.3082 25.8013 13.1248C25.8013 12.879 25.7036 12.6432 25.5298 12.4694C25.356 12.2956 25.1202 12.1979 24.8744 12.1979ZM36.9241 18.6862H34.1434V9.41722C34.1434 6.95892 33.1668 4.60131 31.4286 2.86303C29.6903 1.12475 27.3327 0.148193 24.8744 0.148193L4.48251 0.148193C3.49919 0.148193 2.55615 0.538816 1.86084 1.23413C1.16552 1.92944 0.774902 2.87248 0.774902 3.8558L0.774902 18.6862C0.774902 19.6696 1.16552 20.6126 1.86084 21.3079C2.55615 22.0032 3.49919 22.3939 4.48251 22.3939H6.33632C6.33632 23.8688 6.92225 25.2834 7.96522 26.3264C9.00819 27.3693 10.4228 27.9553 11.8977 27.9553C13.3727 27.9553 14.7873 27.3693 15.8303 26.3264C16.8732 25.2834 17.4592 23.8688 17.4592 22.3939H36.9241C37.1699 22.3939 37.4057 22.2962 37.5795 22.1224C37.7534 21.9485 37.851 21.7128 37.851 21.467V19.6132C37.851 19.3673 37.7534 19.1316 37.5795 18.9577C37.4057 18.7839 37.1699 18.6862 36.9241 18.6862ZM11.8977 25.1746C11.3478 25.1746 10.8101 25.0115 10.3529 24.7059C9.89557 24.4004 9.53916 23.9661 9.3287 23.458C9.11823 22.9499 9.06316 22.3908 9.17046 21.8514C9.27775 21.312 9.54259 20.8165 9.93148 20.4276C10.3204 20.0387 10.8158 19.7739 11.3552 19.6666C11.8947 19.5593 12.4538 19.6144 12.9619 19.8248C13.47 20.0353 13.9043 20.3917 14.2098 20.849C14.5154 21.3063 14.6784 21.8439 14.6784 22.3939C14.6777 23.1311 14.3845 23.838 13.8631 24.3593C13.3418 24.8806 12.635 25.1738 11.8977 25.1746ZM15.6053 11.271C15.6053 11.7627 15.41 12.2342 15.0624 12.5819C14.7147 12.9295 14.2432 13.1248 13.7515 13.1248H6.33632C5.84466 13.1248 5.37314 12.9295 5.02548 12.5819C4.67782 12.2342 4.48251 11.7627 4.48251 11.271V7.56342C4.48251 7.07176 4.67782 6.60023 5.02548 6.25258C5.37314 5.90492 5.84466 5.70961 6.33632 5.70961H13.7515C14.2432 5.70961 14.7147 5.90492 15.0624 6.25258C15.41 6.60023 15.6053 7.07176 15.6053 7.56342V11.271ZM26.7282 18.6862H19.313V7.56342C19.313 7.07176 19.5083 6.60023 19.8559 6.25258C20.2036 5.90492 20.6751 5.70961 21.1668 5.70961H24.8744C25.366 5.70961 25.8376 5.90492 26.1852 6.25258C26.5329 6.60023 26.7282 7.07176 26.7282 7.56342V18.6862Z" fill="black"/>
</g>
<defs>
<clipPath id="clip0_201_5697">
<rect width="37.0761" height="29.6609" fill="white" transform="translate(0.774902 0.148438)"/>
</clipPath>
</defs>
</svg>
