<svg width="27" height="30" viewBox="0 0 27 30" fill="none" xmlns="http://www.w3.org/2000/svg">
<g clip-path="url(#clip0_201_5689)">
<path d="M26.6712 4.78266V25.1745C26.6712 26.7097 25.4256 27.9552 23.8905 27.9552H3.4986C1.96342 27.9552 0.717896 26.7097 0.717896 25.1745V4.78266C0.717896 3.24748 1.96342 2.00195 3.4986 2.00195H23.8905C25.4256 2.00195 26.6712 3.24748 26.6712 4.78266ZM6.07655 12.922L13.2021 20.0476C13.4744 20.3199 13.9147 20.3199 14.187 20.0476L21.3125 12.922C21.7528 12.4817 21.44 11.7344 20.8201 11.7344H6.56897C5.9491 11.7344 5.63627 12.4817 6.07655 12.922Z" fill="black"/>
</g>
<defs>
<clipPath id="clip0_201_5689">
<rect width="25.9533" height="29.6609" fill="white" transform="translate(0.717896 0.148438)"/>
</clipPath>
</defs>
</svg>
