<svg width="27" height="30" viewBox="0 0 27 30" fill="none" xmlns="http://www.w3.org/2000/svg">
<g clip-path="url(#clip0_201_5687)">
<path d="M24.1062 27.9552H3.7143C2.17854 27.9552 0.933594 26.7103 0.933594 25.1745V4.78266C0.933594 3.2469 2.17854 2.00195 3.7143 2.00195H24.1062C25.6419 2.00195 26.8869 3.2469 26.8869 4.78266V25.1745C26.8869 26.7103 25.6419 27.9552 24.1062 27.9552ZM15.9677 7.35974L8.84036 14.487C8.5689 14.7585 8.5689 15.1987 8.84036 15.4702L15.9676 22.5974C16.4056 23.0354 17.1543 22.7252 17.1543 22.1059V7.85135C17.1544 7.232 16.4056 6.92184 15.9677 7.35974Z" fill="black"/>
</g>
<defs>
<clipPath id="clip0_201_5687">
<rect width="25.9533" height="29.6609" fill="white" transform="translate(0.93457 0.148438)"/>
</clipPath>
</defs>
</svg>
