<svg width="27" height="30" viewBox="0 0 27 30" fill="none" xmlns="http://www.w3.org/2000/svg">
<g clip-path="url(#clip0_201_5685)">
<path d="M2.93208 2.00195H23.3239C24.8597 2.00195 26.1046 3.2469 26.1046 4.78266V25.1745C26.1046 26.7103 24.8597 27.9552 23.3239 27.9552H2.93208C1.39631 27.9552 0.151367 26.7103 0.151367 25.1745V4.78266C0.151367 3.2469 1.39631 2.00195 2.93208 2.00195ZM11.0706 22.5974L18.1978 15.4702C18.4693 15.1987 18.4693 14.7586 18.1978 14.487L11.0706 7.35974C10.6326 6.92178 9.88385 7.23194 9.88385 7.85129V22.1058C9.88385 22.7252 10.6327 23.0353 11.0706 22.5974Z" fill="black"/>
</g>
<defs>
<clipPath id="clip0_201_5685">
<rect width="25.9533" height="29.6609" fill="white" transform="translate(0.151367 0.148438)"/>
</clipPath>
</defs>
</svg>
