<svg width="31" height="31" viewBox="0 0 31 31" fill="none" xmlns="http://www.w3.org/2000/svg">
<g clip-path="url(#clip0_201_5679)">
<path d="M17.6467 9.55937C14.5938 8.07053 11.0136 8.95109 8.94544 11.4595L12.1433 14.6573C12.5082 15.0223 12.5082 15.6074 12.1433 15.9666C11.9637 16.1462 11.7261 16.2389 11.4886 16.2389C11.2511 16.2389 11.0136 16.1462 10.834 15.9666L7.92585 13.0584L0.504833 28.277C0.336831 28.6246 0.325245 29.0475 0.504833 29.4183C0.817662 30.0613 1.59974 30.3278 2.24278 30.015L9.98241 26.2378L7.13219 23.3876C6.76722 23.0284 6.76722 22.4375 7.13219 22.0783C7.49716 21.7192 8.08226 21.7192 8.44144 22.0783L11.7435 25.3804L17.6525 22.4955C19.0429 21.8177 20.2305 20.6822 20.9604 19.1876C22.7042 15.6132 21.2211 11.3031 17.6467 9.55937ZM22.9822 7.53756C24.1119 5.17975 23.5268 2.39325 21.2269 0.487305C18.313 2.90305 18.1855 6.71493 20.7692 9.28709L21.2327 9.75054C23.8049 12.3343 27.6225 12.2068 30.0325 9.29288C28.1265 6.993 25.34 6.4079 22.9822 7.53756Z" fill="black"/>
</g>
<defs>
<clipPath id="clip0_201_5679">
<rect width="29.6609" height="29.6609" fill="white" transform="translate(0.371338 0.487549)"/>
</clipPath>
</defs>
</svg>
