<svg width="34" height="31" viewBox="0 0 34 31" fill="none" xmlns="http://www.w3.org/2000/svg">
<g clip-path="url(#clip0_201_5677)">
<path d="M29.4118 19.0254H12.4295L12.8087 20.8792H28.3585C29.2507 20.8792 29.912 21.7076 29.7143 22.5777L29.3947 23.984C30.4775 24.5096 31.2241 25.6196 31.2241 26.904C31.2241 28.7116 29.7457 30.1739 27.9322 30.1478C26.2045 30.123 24.7836 28.7209 24.737 26.9937C24.7115 26.0501 25.0895 25.1949 25.7104 24.5867H13.5652C14.1664 25.1756 14.5398 25.996 14.5398 26.904C14.5398 28.747 13.003 30.2311 11.141 30.1446C9.48765 30.0678 8.143 28.7319 8.0561 27.079C7.98902 25.8026 8.66067 24.6775 9.68114 24.0906L5.61163 4.19492H1.56321C0.795325 4.19492 0.172852 3.57244 0.172852 2.80456V1.87766C0.172852 1.10978 0.795325 0.487305 1.56321 0.487305H7.50286C8.16333 0.487305 8.73263 0.951973 8.865 1.59901L9.396 4.19492H32.1504C33.0426 4.19492 33.7039 5.02339 33.5062 5.89341L30.7676 17.9431C30.6238 18.5762 30.061 19.0254 29.4118 19.0254ZM23.5209 11.6101H21.0282V8.13425C21.0282 7.75034 20.7169 7.43908 20.333 7.43908H18.9426C18.5587 7.43908 18.2475 7.75034 18.2475 8.13425V11.6101H15.7547C15.1354 11.6101 14.8252 12.359 15.2632 12.7969L19.1463 16.6799C19.4177 16.9514 19.8579 16.9514 20.1294 16.6799L24.0125 12.7969C24.4504 12.359 24.1402 11.6101 23.5209 11.6101Z" fill="black"/>
</g>
<defs>
<clipPath id="clip0_201_5677">
<rect width="33.3685" height="29.6609" fill="white" transform="translate(0.172852 0.487549)"/>
</clipPath>
</defs>
</svg>
