<svg width="35" height="31" viewBox="0 0 35 31" fill="none" xmlns="http://www.w3.org/2000/svg">
<g clip-path="url(#clip0_201_5675)">
<path d="M30.2133 19.0254H13.231L13.6101 20.8792H29.16C30.0522 20.8792 30.7135 21.7076 30.5157 22.5777L30.1961 23.984C31.2789 24.5096 32.0255 25.6196 32.0255 26.904C32.0255 28.7116 30.5472 30.1739 28.7337 30.1478C27.006 30.123 25.5851 28.7209 25.5384 26.9937C25.513 26.0501 25.891 25.1949 26.5119 24.5867H14.3667C14.9678 25.1756 15.3413 25.996 15.3413 26.904C15.3413 28.747 13.8045 30.2311 11.9425 30.1446C10.2891 30.0678 8.94445 28.7319 8.85755 27.079C8.79047 25.8026 9.46213 24.6775 10.4826 24.0906L6.41308 4.19492H2.36466C1.59678 4.19492 0.974304 3.57244 0.974304 2.80456V1.87766C0.974304 1.10978 1.59678 0.487305 2.36466 0.487305H8.30431C8.96479 0.487305 9.53408 0.951973 9.66645 1.59901L10.1974 4.19492H32.9519C33.8441 4.19492 34.5054 5.02339 34.3076 5.89341L31.569 17.9431C31.4252 18.5762 30.8625 19.0254 30.2133 19.0254ZM24.6103 10.2198H21.8296V7.90253C21.8296 7.39059 21.4147 6.97562 20.9027 6.97562H19.9758C19.4639 6.97562 19.0489 7.39059 19.0489 7.90253V10.2198H16.2682C15.7563 10.2198 15.3413 10.6347 15.3413 11.1467V12.0736C15.3413 12.5855 15.7563 13.0005 16.2682 13.0005H19.0489V15.3177C19.0489 15.8297 19.4639 16.2447 19.9758 16.2447H20.9027C21.4147 16.2447 21.8296 15.8297 21.8296 15.3177V13.0005H24.6103C25.1223 13.0005 25.5372 12.5855 25.5372 12.0736V11.1467C25.5372 10.6347 25.1223 10.2198 24.6103 10.2198Z" fill="black"/>
</g>
<defs>
<clipPath id="clip0_201_5675">
<rect width="33.3685" height="29.6609" fill="white" transform="translate(0.974365 0.487549)"/>
</clipPath>
</defs>
</svg>
