<svg width="31" height="31" viewBox="0 0 31 31" fill="none" xmlns="http://www.w3.org/2000/svg">
<g clip-path="url(#clip0_201_5673)">
<path d="M30.0922 22.4317L28.5454 13.1627C28.3948 12.2706 27.6243 11.6159 26.7148 11.6159H12.5332V7.90832H18.0946C18.6044 7.90832 19.0215 7.49121 19.0215 6.98142V1.41421C19.0215 0.904411 18.6044 0.487305 18.0946 0.487305H3.26416C2.75437 0.487305 2.33726 0.904411 2.33726 1.41421V6.97562C2.33726 7.48542 2.75437 7.90253 3.26416 7.90253H8.82558V11.6101H3.9072C3.00347 11.6101 2.22719 12.2648 2.07657 13.1569L0.529799 22.4259C0.495041 22.6287 0.477661 22.8315 0.477661 23.0342V28.2944C0.477661 29.3198 1.30608 30.1482 2.33147 30.1482H28.2847C29.3101 30.1482 30.1385 29.3198 30.1385 28.2944V23.04C30.1443 22.8372 30.127 22.6345 30.0922 22.4317ZM16.7043 14.8543C16.7043 14.3445 17.1214 13.9274 17.6312 13.9274H18.5581C19.0679 13.9274 19.485 14.3445 19.485 14.8543V15.7812C19.485 16.291 19.0679 16.7081 18.5581 16.7081H17.6312C17.1214 16.7081 16.7043 16.291 16.7043 15.7812V14.8543ZM14.8504 18.5619H15.7774C16.2871 18.5619 16.7043 18.979 16.7043 19.4888V20.4157C16.7043 20.9255 16.2871 21.3426 15.7774 21.3426H14.8504C14.3407 21.3426 13.9235 20.9255 13.9235 20.4157V19.4888C13.9235 18.979 14.3407 18.5619 14.8504 18.5619ZM12.9966 13.9274C13.5064 13.9274 13.9235 14.3445 13.9235 14.8543V15.7812C13.9235 16.291 13.5064 16.7081 12.9966 16.7081H12.0697C11.5599 16.7081 11.1428 16.291 11.1428 15.7812V14.8543C11.1428 14.3445 11.5599 13.9274 12.0697 13.9274H12.9966ZM5.11797 5.12182V3.26801H16.2408V5.12182H5.11797ZM7.43523 16.7081H6.50832C5.99853 16.7081 5.58142 16.291 5.58142 15.7812V14.8543C5.58142 14.3445 5.99853 13.9274 6.50832 13.9274H7.43523C7.94502 13.9274 8.36213 14.3445 8.36213 14.8543V15.7812C8.36213 16.291 7.94502 16.7081 7.43523 16.7081ZM8.36213 20.4157V19.4888C8.36213 18.979 8.77923 18.5619 9.28903 18.5619H10.2159C10.7257 18.5619 11.1428 18.979 11.1428 19.4888V20.4157C11.1428 20.9255 10.7257 21.3426 10.2159 21.3426H9.28903C8.77923 21.3426 8.36213 20.9255 8.36213 20.4157ZM20.8753 26.904C20.8753 27.1589 20.6668 27.3675 20.4119 27.3675H10.2159C9.96104 27.3675 9.75248 27.1589 9.75248 26.904V25.9771C9.75248 25.7222 9.96104 25.5137 10.2159 25.5137H20.4119C20.6668 25.5137 20.8753 25.7222 20.8753 25.9771V26.904ZM22.2657 20.4157C22.2657 20.9255 21.8486 21.3426 21.3388 21.3426H20.4119C19.9021 21.3426 19.485 20.9255 19.485 20.4157V19.4888C19.485 18.979 19.9021 18.5619 20.4119 18.5619H21.3388C21.8486 18.5619 22.2657 18.979 22.2657 19.4888V20.4157ZM25.0464 15.7812C25.0464 16.291 24.6293 16.7081 24.1195 16.7081H23.1926C22.6828 16.7081 22.2657 16.291 22.2657 15.7812V14.8543C22.2657 14.3445 22.6828 13.9274 23.1926 13.9274H24.1195C24.6293 13.9274 25.0464 14.3445 25.0464 14.8543V15.7812Z" fill="black"/>
</g>
<defs>
<clipPath id="clip0_201_5673">
<rect width="29.6609" height="29.6609" fill="white" transform="translate(0.483521 0.487549)"/>
</clipPath>
</defs>
</svg>
