<svg width="30" height="31" viewBox="0 0 30 31" fill="none" xmlns="http://www.w3.org/2000/svg">
<g clip-path="url(#clip0_201_5671)">
<path d="M26.5613 15.3131L29.2253 12.7059C30.0194 11.9542 29.6491 10.6181 28.6075 10.369L24.9781 9.44272L26.0012 5.8501C26.2904 4.81672 25.3159 3.84202 24.2829 4.13122L20.6915 5.15469L19.7655 1.52407C19.5205 0.498743 18.1695 0.123753 17.4295 0.906059L14.8231 3.59072L12.2168 0.906117C11.4852 0.132674 10.1286 0.487041 9.88076 1.52413L8.95478 5.15475L5.36332 4.13127C4.33 3.84197 3.35594 4.81701 3.64502 5.85016L4.66815 9.44277L1.03874 10.3691C-0.00332893 10.6183 -0.372873 11.9545 0.420903 12.7059L3.08488 15.3131L0.420903 17.9203C-0.373221 18.6721 -0.0029233 20.0081 1.03868 20.2572L4.66809 21.1835L3.64496 24.7761C3.35582 25.8095 4.33023 26.7842 5.36326 26.495L8.95467 25.4715L9.88064 29.1021C10.1378 30.1782 11.4851 30.4935 12.2167 29.7202L14.8231 27.0553L17.4294 29.7202C18.1535 30.5015 19.5142 30.1538 19.7655 29.1021L20.6915 25.4715L24.2829 26.495C25.3161 26.7843 26.2902 25.8093 26.0012 24.7761L24.978 21.1835L28.6074 20.2572C29.6494 20.008 30.019 18.6718 29.2252 17.9203L26.5613 15.3131Z" fill="black"/>
</g>
<defs>
<clipPath id="clip0_201_5671">
<rect width="29.6609" height="29.6609" fill="white" transform="translate(-0.00732422 0.487549)"/>
</clipPath>
</defs>
</svg>
