<svg width="27" height="31" viewBox="0 0 27 31" fill="none" xmlns="http://www.w3.org/2000/svg">
<g clip-path="url(#clip0_201_5667)">
<path d="M7.20725 7.90277C7.20725 6.19379 8.14574 4.71654 9.5245 3.9113V15.318H12.3052V3.26826H15.0859V15.318H17.8666V3.9113C19.2454 4.71654 20.1839 6.19379 20.1839 7.90277V15.318H22.9646V7.90277C22.9646 3.80702 19.6451 0.487549 15.5494 0.487549H11.8418C7.74601 0.487549 4.42654 3.80702 4.42654 7.90277V15.318H7.20725V7.90277ZM26.5737 20.2943L25.9539 18.4405C25.699 17.6816 24.9922 17.1718 24.1927 17.1718H3.1926C2.39315 17.1718 1.68638 17.6816 1.43148 18.4405L0.811618 20.2943C0.417684 21.4935 1.30983 22.7332 2.57273 22.7332V29.2215C2.57273 29.7313 2.98984 30.1484 3.49964 30.1484H5.35344C5.86324 30.1484 6.28034 29.7313 6.28034 29.2215V22.7332H21.1108V29.2215C21.1108 29.7313 21.5279 30.1484 22.0377 30.1484H23.8915C24.4013 30.1484 24.8184 29.7313 24.8184 29.2215V22.7332C26.0813 22.7332 26.9734 21.4935 26.5737 20.2943Z" fill="black"/>
</g>
<defs>
<clipPath id="clip0_201_5667">
<rect width="25.9533" height="29.6609" fill="white" transform="translate(0.718506 0.487549)"/>
</clipPath>
</defs>
</svg>
