<svg width="38" height="31" viewBox="0 0 38 31" fill="none" xmlns="http://www.w3.org/2000/svg">
<g clip-path="url(#clip0_201_5665)">
<path d="M12.8612 20.8794C12.7228 20.8794 12.5843 20.8997 12.4522 20.9426C11.7014 21.1864 10.9118 21.3429 10.0805 21.3429C9.24921 21.3429 8.4596 21.1864 7.70823 20.9426C7.57615 20.8997 7.43827 20.8794 7.29981 20.8794C3.70459 20.8794 0.792378 23.8038 0.811495 27.4036C0.819605 28.9249 2.07034 30.1484 3.5922 30.1484H16.5688C18.0907 30.1484 19.3414 28.9249 19.3496 27.4036C19.3687 23.8038 16.4565 20.8794 12.8612 20.8794ZM10.0805 19.0256C13.152 19.0256 15.6419 16.5357 15.6419 13.4642C15.6419 10.3927 13.152 7.90277 10.0805 7.90277C7.009 7.90277 4.51911 10.3927 4.51911 13.4642C4.51911 16.5357 7.009 19.0256 10.0805 19.0256ZM35.1069 0.487549H12.8612C11.3278 0.487549 10.0805 1.77652 10.0805 3.36037V6.04897C11.4373 6.04897 12.6932 6.44174 13.7881 7.08014V4.19516H34.18V20.8794H30.4724V17.1718H23.0572V20.8794H18.6405C19.747 21.8463 20.5592 23.1231 20.9398 24.587H35.1069C36.6403 24.587 37.8876 23.298 37.8876 21.7142V3.36037C37.8876 1.77652 36.6403 0.487549 35.1069 0.487549Z" fill="black"/>
</g>
<defs>
<clipPath id="clip0_201_5665">
<rect width="37.0761" height="29.6609" fill="white" transform="translate(0.812378 0.487549)"/>
</clipPath>
</defs>
</svg>
