<svg width="31" height="31" viewBox="0 0 31 31" fill="none" xmlns="http://www.w3.org/2000/svg">
<g clip-path="url(#clip0_201_5657)">
<path d="M20.0044 19.0255H22.229C22.5998 19.0255 22.9705 18.6548 22.9705 18.284V10.498C22.9705 10.1272 22.5998 9.75648 22.229 9.75648H20.0044C19.6337 9.75648 19.2629 10.1272 19.2629 10.498V18.284C19.2629 18.6548 19.6337 19.0255 20.0044 19.0255ZM25.5658 19.0255H27.7904C28.1612 19.0255 28.5319 18.6548 28.5319 18.284V4.93659C28.5319 4.56583 28.1612 4.19507 27.7904 4.19507H25.5658C25.1951 4.19507 24.8243 4.56583 24.8243 4.93659V18.284C24.8243 18.6548 25.1951 19.0255 25.5658 19.0255ZM8.8816 19.0255H11.1062C11.4769 19.0255 11.8477 18.6548 11.8477 18.284V14.2056C11.8477 13.8349 11.4769 13.4641 11.1062 13.4641H8.8816C8.51084 13.4641 8.14008 13.8349 8.14008 14.2056V18.284C8.14008 18.6548 8.51084 19.0255 8.8816 19.0255ZM14.443 19.0255H16.6676C17.0383 19.0255 17.4091 18.6548 17.4091 18.284V6.7904C17.4091 6.41964 17.0383 6.04887 16.6676 6.04887H14.443C14.0723 6.04887 13.7015 6.41964 13.7015 6.7904V18.284C13.7015 18.6548 14.0723 19.0255 14.443 19.0255ZM29.4588 22.7331H4.43246V5.12197C4.43246 4.60986 4.01768 4.19507 3.50556 4.19507H1.65176C1.13964 4.19507 0.724854 4.60986 0.724854 5.12197V24.5869C0.724854 25.6106 1.55501 26.4407 2.57866 26.4407H29.4588C29.971 26.4407 30.3857 26.0259 30.3857 25.5138V23.66C30.3857 23.1479 29.971 22.7331 29.4588 22.7331Z" fill="black"/>
</g>
<defs>
<clipPath id="clip0_201_5657">
<rect width="29.6609" height="29.6609" fill="white" transform="translate(0.72583 0.487549)"/>
</clipPath>
</defs>
</svg>
