<svg width="30" height="31" viewBox="0 0 30 31" fill="none" xmlns="http://www.w3.org/2000/svg">
<g clip-path="url(#clip0_201_5659)">
<path d="M29.1825 22.7331C29.5649 22.7331 29.8777 23.046 29.8777 23.4283V25.7456C29.8777 26.1279 29.5649 26.4407 29.1825 26.4407H0.911974C0.529627 26.4407 0.216797 26.1279 0.216797 25.7456V4.89025C0.216797 4.5079 0.529627 4.19507 0.911974 4.19507H3.22923C3.61158 4.19507 3.92441 4.5079 3.92441 4.89025V22.7331H29.1825ZM21.8078 9.72752L16.901 13.0006L11.9595 6.41384C11.664 6.01991 11.0616 6.04887 10.8067 6.47177L5.77821 14.8545V20.8793H28.0239L22.8158 9.9998C22.6305 9.62324 22.1554 9.49579 21.8078 9.72752Z" fill="black"/>
</g>
<defs>
<clipPath id="clip0_201_5659">
<rect width="29.6609" height="29.6609" fill="white" transform="translate(0.216797 0.487549)"/>
</clipPath>
</defs>
</svg>
