<svg width="35" height="31" viewBox="0 0 35 31" fill="none" xmlns="http://www.w3.org/2000/svg">
<g clip-path="url(#clip0_201_5661)">
<path d="M20.1728 26.4408H1.63479C1.12267 26.4408 0.707886 26.8556 0.707886 27.3677V29.2215C0.707886 29.7336 1.12267 30.1484 1.63479 30.1484H20.1728C20.685 30.1484 21.0997 29.7336 21.0997 29.2215V27.3677C21.0997 26.8556 20.685 26.4408 20.1728 26.4408ZM32.2226 7.90277V5.12206C32.2226 4.60995 31.8078 4.19516 31.2957 4.19516C30.7836 4.19516 30.3688 4.60995 30.3688 5.12206V7.90277H28.515V5.12206C28.515 4.60995 28.1002 4.19516 27.5881 4.19516C27.076 4.19516 26.6612 4.60995 26.6612 5.12206V7.90277H25.7343C25.2221 7.90277 24.8074 8.31756 24.8074 8.82967V10.6835C24.8074 12.7551 26.1757 14.489 28.0515 15.0822V21.9465C28.0515 22.7547 27.5012 23.506 26.704 23.6375C25.6891 23.8049 24.8074 23.0223 24.8074 22.038V20.416C24.8074 17.6005 22.5249 15.318 19.7094 15.318H19.2459V4.19516C19.2459 2.14728 17.5862 0.487549 15.5383 0.487549H6.2693C4.22143 0.487549 2.56169 2.14728 2.56169 4.19516V24.587H19.2459V18.0987H19.7094C20.9891 18.0987 22.0266 19.1363 22.0266 20.416V21.8417C22.0266 24.1398 23.702 26.1958 25.9897 26.4188C28.614 26.6754 30.8322 24.6108 30.8322 22.038V15.0822C32.708 14.489 34.0764 12.7551 34.0764 10.6835V8.82967C34.0764 8.31756 33.6616 7.90277 33.1495 7.90277H32.2226ZM15.7753 10.6696L10.3471 18.722C10.2196 18.915 9.98734 19.0256 9.74519 19.0256C9.30085 19.0256 8.96485 18.6618 9.06913 18.2771L10.4027 13.4642H6.96448C6.54448 13.4642 6.22006 13.1404 6.27567 12.7754L7.20258 6.57672C7.24834 6.2749 7.54263 6.04897 7.89138 6.04897H11.8307C12.2872 6.04897 12.6197 6.42784 12.5027 6.81424L11.8307 9.75658H15.1734C15.7086 9.75658 16.0429 10.2652 15.7753 10.6696Z" fill="black"/>
</g>
<defs>
<clipPath id="clip0_201_5661">
<rect width="33.3685" height="29.6609" fill="white" transform="translate(0.707764 0.487549)"/>
</clipPath>
</defs>
</svg>
