<svg width="27" height="31" viewBox="0 0 27 31" fill="none" xmlns="http://www.w3.org/2000/svg">
<g clip-path="url(#clip0_201_5647)">
<path d="M23.2978 28.2946H2.90595C1.37019 28.2946 0.125244 27.0496 0.125244 25.5139V5.12202C0.125244 3.58625 1.37019 2.34131 2.90595 2.34131H23.2978C24.8336 2.34131 26.0785 3.58625 26.0785 5.12202V25.5139C26.0785 27.0496 24.8336 28.2946 23.2978 28.2946ZM11.4401 22.6139L22.0994 11.9545C22.4614 11.5926 22.4614 11.0056 22.0994 10.6437L20.7886 9.33288C20.4267 8.97092 19.8398 8.97086 19.4778 9.33288L10.7846 18.026L6.72601 13.9673C6.36405 13.6054 5.77715 13.6054 5.41514 13.9673L4.10432 15.2781C3.74237 15.6401 3.74237 16.227 4.10432 16.589L10.1292 22.6138C10.4912 22.9759 11.078 22.9759 11.4401 22.6139Z" fill="black"/>
</g>
<defs>
<clipPath id="clip0_201_5647">
<rect width="25.9533" height="29.6609" fill="white" transform="translate(0.125244 0.487549)"/>
</clipPath>
</defs>
</svg>
