<svg width="31" height="31" viewBox="0 0 31 31" fill="none" xmlns="http://www.w3.org/2000/svg">
<g clip-path="url(#clip0_201_5649)">
<path d="M30.1638 10.6139L27.8697 8.31986C27.3251 7.7753 26.4446 7.7753 25.9058 8.31986L12.0312 22.1944L5.57769 15.7351C5.03313 15.1905 4.15257 15.1905 3.61381 15.7351L1.31393 18.035C0.769379 18.5795 0.769379 19.4601 1.31393 20.0046L11.0464 29.7429C11.591 30.2875 12.4715 30.2875 13.0103 29.7429L30.158 12.5836C30.7025 12.0333 30.7025 11.1527 30.1638 10.6139ZM11.3766 16.7547C11.7358 17.1196 12.3267 17.1196 12.6859 16.7547L24.7356 4.69335C25.0948 4.32839 25.0948 3.74328 24.7356 3.3841L22.1171 0.75981C21.7579 0.394842 21.167 0.394842 20.8079 0.75981L12.0312 9.53642L8.82185 6.32123C8.46267 5.95626 7.87177 5.95626 7.5126 6.32123L4.8883 8.94552C4.52913 9.31049 4.52913 9.8956 4.8883 10.2548L11.3766 16.7547Z" fill="black"/>
</g>
<defs>
<clipPath id="clip0_201_5649">
<rect width="29.6609" height="29.6609" fill="white" transform="translate(0.908447 0.487549)"/>
</clipPath>
</defs>
</svg>
