<svg width="31" height="31" viewBox="0 0 31 31" fill="none" xmlns="http://www.w3.org/2000/svg">
<g clip-path="url(#clip0_201_5651)">
<path d="M29.5963 15.3182C29.5963 23.2529 23.164 29.6852 15.2293 29.6852C7.29461 29.6852 0.862305 23.2529 0.862305 15.3182C0.862305 7.38347 7.29461 0.951172 15.2293 0.951172C23.164 0.951172 29.5963 7.38347 29.5963 15.3182ZM13.5675 22.9254L24.2269 12.266C24.5888 11.904 24.5888 11.3171 24.2269 10.9552L22.916 9.64436C22.5541 9.28235 21.9672 9.28235 21.6052 9.64436L12.912 18.3374L8.85342 14.2788C8.49147 13.9169 7.90456 13.9169 7.54255 14.2788L6.23174 15.5896C5.86978 15.9516 5.86978 16.5385 6.23174 16.9004L12.2566 22.9253C12.6186 23.2873 13.2055 23.2873 13.5675 22.9254Z" fill="black"/>
</g>
<defs>
<clipPath id="clip0_201_5651">
<rect width="29.6609" height="29.6609" fill="white" transform="translate(0.399414 0.487549)"/>
</clipPath>
</defs>
</svg>
