<svg width="20" height="31" viewBox="0 0 20 31" fill="none" xmlns="http://www.w3.org/2000/svg">
<g clip-path="url(#clip0_201_5641)">
<path d="M1.23884 17.1648C1.23884 20.1564 2.52144 21.4419 4.483 22.0658V24.587H15.6058V22.0658C17.5674 21.4419 18.85 20.1541 18.85 17.1648C18.85 15.3916 18.2284 13.2776 17.3038 11.2234L11.4927 17.0357C11.4058 17.1225 11.288 17.1713 11.1651 17.1713C11.0422 17.1713 10.9244 17.1225 10.8375 17.0357L10.1823 16.3805C10.0954 16.2935 10.0467 16.1757 10.0467 16.0529C10.0467 15.93 10.0954 15.8122 10.1823 15.7253L16.4325 9.47271C15.2275 7.27653 13.7404 5.29586 12.3269 4.10884C13.138 3.91072 13.752 3.21322 13.752 2.34135C13.752 1.84969 13.5567 1.37817 13.2091 1.03052C12.8614 0.68286 12.3899 0.487549 11.8982 0.487549L8.19061 0.487549C7.69895 0.487549 7.22743 0.68286 6.87977 1.03052C6.53212 1.37817 6.33681 1.84969 6.33681 2.34135C6.33681 3.21033 6.95088 3.91072 7.76192 4.10884C4.70372 6.67462 1.23884 12.9138 1.23884 17.1648ZM18.3865 26.4408H1.70229C1.45646 26.4408 1.2207 26.5385 1.04687 26.7123C0.873046 26.8861 0.775391 27.1219 0.775391 27.3677L0.775391 29.2215C0.775391 29.4674 0.873046 29.7031 1.04687 29.877C1.2207 30.0508 1.45646 30.1484 1.70229 30.1484H18.3865C18.6324 30.1484 18.8681 30.0508 19.042 29.877C19.2158 29.7031 19.3134 29.4674 19.3134 29.2215V27.3677C19.3134 27.1219 19.2158 26.8861 19.042 26.7123C18.8681 26.5385 18.6324 26.4408 18.3865 26.4408Z" fill="black"/>
</g>
<defs>
<clipPath id="clip0_201_5641">
<rect width="18.5381" height="29.6609" fill="white" transform="translate(0.775391 0.487549)"/>
</clipPath>
</defs>
</svg>
