<svg width="31" height="31" viewBox="0 0 31 31" fill="none" xmlns="http://www.w3.org/2000/svg">
<g clip-path="url(#clip0_201_5631)">
<path d="M15.3968 6.97587C16.0384 6.97587 16.6656 6.7856 17.1991 6.42913C17.7326 6.07266 18.1484 5.56599 18.394 4.9732C18.6395 4.3804 18.7038 3.72811 18.5786 3.09881C18.4534 2.4695 18.1444 1.89145 17.6907 1.43774C17.237 0.984039 16.659 0.675063 16.0297 0.549886C15.4004 0.424709 14.7481 0.488954 14.1553 0.734497C13.5625 0.98004 13.0558 1.39585 12.6994 1.92935C12.3429 2.46285 12.1526 3.09008 12.1526 3.73171C12.1526 4.59211 12.4944 5.41728 13.1028 6.02568C13.7112 6.63408 14.5364 6.97587 15.3968 6.97587ZM25.5927 26.4408H5.20085C4.95502 26.4408 4.71926 26.5385 4.54543 26.7123C4.3716 26.8861 4.27395 27.1219 4.27395 27.3677V29.2215C4.27395 29.4674 4.3716 29.7031 4.54543 29.877C4.71926 30.0508 4.95502 30.1484 5.20085 30.1484H25.5927C25.8385 30.1484 26.0743 30.0508 26.2481 29.877C26.422 29.7031 26.5196 29.4674 26.5196 29.2215V27.3677C26.5196 27.1219 26.422 26.8861 26.2481 26.7123C26.0743 26.5385 25.8385 26.4408 25.5927 26.4408ZM29.8142 11.1562L28.1625 10.2339C27.7315 9.94428 27.1829 10.0914 26.8713 10.5051C26.5608 10.9207 26.1393 11.2403 25.6553 11.4271C25.1713 11.6139 24.6444 11.6604 24.1352 11.5611C22.7946 11.3126 21.8851 10.0422 21.8851 8.67905C21.8851 8.47317 21.8033 8.27572 21.6577 8.13014C21.5121 7.98456 21.3147 7.90277 21.1088 7.90277H18.8628C18.5152 7.90277 18.1902 8.1345 18.1178 8.47687C17.9864 9.10118 17.6442 9.66129 17.1488 10.0633C16.6534 10.4652 16.0348 10.6846 15.3968 10.6846C14.7588 10.6846 14.1402 10.4652 13.6448 10.0633C13.1493 9.66129 12.8072 9.10118 12.6757 8.47687C12.6033 8.13392 12.2806 7.90277 11.9307 7.90277H9.68474C9.47886 7.90277 9.28141 7.98456 9.13583 8.13014C8.99025 8.27572 8.90846 8.47317 8.90846 8.67905C8.90846 10.1673 7.80776 11.5032 6.32066 11.604C5.85859 11.6366 5.39577 11.552 4.97509 11.3581C4.55442 11.1641 4.18951 10.8671 3.91419 10.4946C3.60831 10.0839 3.06086 9.94717 2.63449 10.2316L0.979385 11.1585C0.791341 11.2838 0.655536 11.4735 0.597501 11.6918C0.539467 11.9102 0.5632 12.1423 0.664238 12.3444L6.60511 24.587H24.1885L30.1293 12.3421C30.2304 12.1399 30.2541 11.9079 30.1961 11.6895C30.138 11.4711 30.0022 11.2815 29.8142 11.1562Z" fill="black"/>
</g>
<defs>
<clipPath id="clip0_201_5631">
<rect width="29.6609" height="29.6609" fill="white" transform="translate(0.566528 0.487549)"/>
</clipPath>
</defs>
</svg>
