<svg width="23" height="31" viewBox="0 0 23 31" fill="none" xmlns="http://www.w3.org/2000/svg">
<g clip-path="url(#clip0_201_5635)">
<path d="M1.52612 16.2721L3.87987 17.3183C4.10612 17.4189 4.35023 17.4731 4.59778 17.4778C4.84533 17.4825 5.09131 17.4375 5.3212 17.3455L6.06157 17.0489C6.32034 16.9454 6.55244 16.7849 6.7406 16.5793C6.92876 16.3737 7.06814 16.1283 7.14836 15.8613L7.68249 14.0857C7.7311 13.8911 7.82124 13.7093 7.94674 13.5528C8.07224 13.3963 8.23011 13.2688 8.40953 13.1791L9.69097 12.5372V15.4529C9.69107 15.9694 9.54734 16.4757 9.27588 16.915C9.00442 17.3544 8.61597 17.7095 8.15405 17.9405L4.83921 19.6002C4.0697 19.9854 3.42263 20.5773 2.97049 21.3095C2.51834 22.0417 2.27899 22.8853 2.27922 23.7458V24.587H20.8092V13.4641C20.8092 7.32341 15.8317 2.34131 9.69097 2.34131H1.1206C0.936224 2.34131 0.759403 2.41455 0.629032 2.54492C0.498661 2.67529 0.425419 2.85211 0.425419 3.03649C0.425325 3.18894 0.460834 3.3393 0.529116 3.47561L1.35232 5.12202L0.830939 5.6434C0.701938 5.77285 0.599722 5.92646 0.530139 6.09545C0.460556 6.26443 0.424971 6.44548 0.425419 6.62823V14.577C0.425199 14.9358 0.529076 15.2869 0.724452 15.5877C0.919827 15.8886 1.19831 16.1263 1.52612 16.2721ZM3.43785 7.90273C3.66701 7.90273 3.89102 7.97068 4.08155 8.09799C4.27209 8.2253 4.42059 8.40625 4.50829 8.61797C4.59598 8.82968 4.61892 9.06264 4.57422 9.28739C4.52951 9.51214 4.41916 9.71859 4.25713 9.88063C4.09509 10.0427 3.88864 10.153 3.66389 10.1977C3.43914 10.2424 3.20618 10.2195 2.99447 10.1318C2.78275 10.0441 2.6018 9.89559 2.47449 9.70505C2.34718 9.51452 2.27922 9.29051 2.27922 9.06135C2.27922 8.75407 2.40129 8.45936 2.61858 8.24208C2.83586 8.02479 3.13057 7.90273 3.43785 7.90273ZM21.7442 26.4408H1.35232C1.10649 26.4408 0.870731 26.5384 0.696903 26.7123C0.523075 26.8861 0.425419 27.1219 0.425419 27.3677V29.2215C0.425419 29.4673 0.523075 29.7031 0.696903 29.8769C0.870731 30.0507 1.10649 30.1484 1.35232 30.1484H21.7442C21.99 30.1484 22.2258 30.0507 22.3996 29.8769C22.5734 29.7031 22.6711 29.4673 22.6711 29.2215V27.3677C22.6711 27.1219 22.5734 26.8861 22.3996 26.7123C22.2258 26.5384 21.99 26.4408 21.7442 26.4408Z" fill="black"/>
</g>
<defs>
<clipPath id="clip0_201_5635">
<rect width="22.2457" height="29.6609" fill="white" transform="translate(0.425537 0.487549)"/>
</clipPath>
</defs>
</svg>
