<svg width="30" height="31" viewBox="0 0 30 31" fill="none" xmlns="http://www.w3.org/2000/svg">
<g clip-path="url(#clip0_201_5627)">
<path d="M4.28693 12.5373H3.70761C3.46178 12.5373 3.22602 12.6349 3.05219 12.8088C2.87836 12.9826 2.78071 13.2184 2.78071 13.4642V14.3911C2.78071 14.6369 2.87836 14.8727 3.05219 15.0465C3.22602 15.2203 3.46178 15.318 3.70761 15.318H4.63104C4.62297 17.8179 4.31292 20.3077 3.70761 22.7332H11.1228C10.5175 20.3077 10.2075 17.8179 10.1994 15.318H11.1228C11.3687 15.318 11.6044 15.2203 11.7783 15.0465C11.9521 14.8727 12.0497 14.6369 12.0497 14.3911V13.4642C12.0497 13.2184 11.9521 12.9826 11.7783 12.8088C11.6044 12.6349 11.3687 12.5373 11.1228 12.5373H10.5435L12.5068 7.30144C12.5595 7.16112 12.5773 7.01012 12.5588 6.86139C12.5403 6.71266 12.486 6.57064 12.4005 6.4475C12.3151 6.32436 12.2011 6.22377 12.0682 6.15436C11.9354 6.08495 11.7877 6.04878 11.6378 6.04897H8.34212V4.19516H9.73248C9.85539 4.19516 9.97328 4.14633 10.0602 4.05942C10.1471 3.9725 10.1959 3.85462 10.1959 3.73171V2.80481C10.1959 2.68189 10.1471 2.56401 10.0602 2.4771C9.97328 2.39018 9.85539 2.34135 9.73248 2.34135H8.34212V0.951C8.34212 0.828085 8.2933 0.710205 8.20638 0.623291C8.11947 0.536377 8.00159 0.487549 7.87867 0.487549H6.95177C6.82886 0.487549 6.71098 0.536377 6.62406 0.623291C6.53715 0.710205 6.48832 0.828085 6.48832 0.951V2.34135H5.09797C4.97505 2.34135 4.85717 2.39018 4.77026 2.4771C4.68334 2.56401 4.63451 2.68189 4.63451 2.80481V3.73171C4.63451 3.85462 4.68334 3.9725 4.77026 4.05942C4.85717 4.14633 4.97505 4.19516 5.09797 4.19516H6.48832V6.04897H3.19144C3.04157 6.04878 2.89388 6.08495 2.76105 6.15436C2.62821 6.22377 2.51419 6.32436 2.42875 6.4475C2.34332 6.57064 2.28902 6.71266 2.27051 6.86139C2.252 7.01012 2.26983 7.16112 2.32247 7.30144L4.28693 12.5373ZM14.3183 27.1117L12.9766 26.4408V25.5139C12.9766 25.2681 12.879 25.0323 12.7052 24.8585C12.5313 24.6847 12.2956 24.587 12.0497 24.587H2.78071C2.53488 24.587 2.29912 24.6847 2.12529 24.8585C1.95146 25.0323 1.85381 25.2681 1.85381 25.5139V26.4408L0.512693 27.1117C0.358678 27.1886 0.229133 27.3069 0.138578 27.4533C0.0480237 27.5998 3.81202e-05 27.7685 0 27.9407L0 29.2215C0 29.4674 0.0976556 29.7031 0.271484 29.877C0.445312 30.0508 0.681073 30.1484 0.926903 30.1484H13.9035C14.1494 30.1484 14.3851 30.0508 14.559 29.877C14.7328 29.7031 14.8304 29.4674 14.8304 29.2215V27.9407C14.8305 27.7686 14.7826 27.5999 14.6921 27.4534C14.6017 27.307 14.4722 27.1887 14.3183 27.1117ZM19.6926 17.9713L19.502 22.7332H26.8431L26.6525 17.9707L28.0776 16.7663C28.2835 16.5921 28.4489 16.375 28.5623 16.1303C28.6757 15.8855 28.7343 15.619 28.734 15.3493V11.958C28.734 11.8658 28.6974 11.7774 28.6322 11.7122C28.567 11.647 28.4786 11.6104 28.3864 11.6104H26.8582C26.766 11.6104 26.6776 11.647 26.6124 11.7122C26.5472 11.7774 26.5106 11.8658 26.5106 11.958V13.4642H25.0791V11.958C25.0791 11.8658 25.0425 11.7774 24.9773 11.7122C24.9121 11.647 24.8237 11.6104 24.7315 11.6104H21.6142C21.522 11.6104 21.4336 11.647 21.3684 11.7122C21.3032 11.7774 21.2666 11.8658 21.2666 11.958V13.4642H19.8351V11.958C19.8351 11.8658 19.7985 11.7774 19.7333 11.7122C19.6681 11.647 19.5797 11.6104 19.4876 11.6104H17.9587C17.8666 11.6104 17.7781 11.647 17.713 11.7122C17.6478 11.7774 17.6112 11.8658 17.6112 11.958V15.3528C17.6116 15.622 17.6707 15.888 17.7844 16.1321C17.898 16.3762 18.0635 16.5926 18.2693 16.7663L19.6926 17.9713ZM22.2457 18.0987C22.2457 17.8529 22.3433 17.6171 22.5171 17.4433C22.691 17.2695 22.9267 17.1718 23.1726 17.1718C23.4184 17.1718 23.6542 17.2695 23.828 17.4433C24.0018 17.6171 24.0995 17.8529 24.0995 18.0987V19.9525H22.2457V18.0987ZM29.1488 27.1117L27.8071 26.4408V25.5139C27.8071 25.2681 27.7094 25.0323 27.5356 24.8585C27.3618 24.6847 27.126 24.587 26.8802 24.587H19.465C19.2191 24.587 18.9834 24.6847 18.8095 24.8585C18.6357 25.0323 18.5381 25.2681 18.5381 25.5139V26.4408L17.1969 27.1117C17.0429 27.1886 16.9134 27.3069 16.8228 27.4533C16.7323 27.5998 16.6843 27.7685 16.6842 27.9407V29.2215C16.6842 29.4674 16.7819 29.7031 16.9557 29.877C17.1296 30.0508 17.3653 30.1484 17.6112 30.1484H28.734C28.9798 30.1484 29.2156 30.0508 29.3894 29.877C29.5632 29.7031 29.6609 29.4674 29.6609 29.2215V27.9407C29.6609 27.7686 29.613 27.5999 29.5226 27.4534C29.4321 27.307 29.3027 27.1887 29.1488 27.1117Z" fill="black"/>
</g>
<defs>
<clipPath id="clip0_201_5627">
<rect width="29.6609" height="29.6609" fill="white" transform="translate(0 0.487549)"/>
</clipPath>
</defs>
</svg>
