<svg width="27" height="31" viewBox="0 0 27 31" fill="none" xmlns="http://www.w3.org/2000/svg">
<g clip-path="url(#clip0_201_5637)">
<path d="M23.6733 26.4408H3.28147C3.03564 26.4408 2.79987 26.5385 2.62605 26.7123C2.45222 26.8861 2.35456 27.1219 2.35456 27.3677V29.2215C2.35456 29.4674 2.45222 29.7031 2.62605 29.877C2.79987 30.0508 3.03564 30.1484 3.28147 30.1484H23.6733C23.9192 30.1484 24.1549 30.0508 24.3287 29.877C24.5026 29.7031 24.6002 29.4674 24.6002 29.2215V27.3677C24.6002 27.1219 24.5026 26.8861 24.3287 26.7123C24.1549 26.5385 23.9192 26.4408 23.6733 26.4408ZM24.6002 9.75658H15.3312V6.97587H17.6485C17.7714 6.97587 17.8893 6.92704 17.9762 6.84013C18.0631 6.75321 18.1119 6.63533 18.1119 6.51242V3.73171C18.1119 3.60879 18.0631 3.49091 17.9762 3.404C17.8893 3.31709 17.7714 3.26826 17.6485 3.26826H15.3312V0.951C15.3312 0.828085 15.2824 0.710205 15.1955 0.623291C15.1085 0.536377 14.9907 0.487549 14.8678 0.487549H12.087C11.9641 0.487549 11.8462 0.536377 11.7593 0.623291C11.6724 0.710205 11.6236 0.828085 11.6236 0.951V3.26826H9.30633C9.18342 3.26826 9.06554 3.31709 8.97862 3.404C8.89171 3.49091 8.84288 3.60879 8.84288 3.73171V6.51242C8.84288 6.63533 8.89171 6.75321 8.97862 6.84013C9.06554 6.92704 9.18342 6.97587 9.30633 6.97587H11.6236V9.75658H2.35456C2.06393 9.7568 1.77741 9.82536 1.51815 9.95672C1.25889 10.0881 1.03415 10.2786 0.862069 10.5128C0.689986 10.747 0.575385 11.0184 0.527515 11.3051C0.479646 11.5917 0.49985 11.8856 0.586496 12.163L4.82012 24.587H22.1347L26.3683 12.163C26.4549 11.8856 26.4751 11.5917 26.4273 11.3051C26.3794 11.0184 26.2648 10.747 26.0927 10.5128C25.9206 10.2786 25.6959 10.0881 25.4366 9.95672C25.1774 9.82536 24.8909 9.7568 24.6002 9.75658Z" fill="black"/>
</g>
<defs>
<clipPath id="clip0_201_5637">
<rect width="25.9533" height="29.6609" fill="white" transform="translate(0.501221 0.487549)"/>
</clipPath>
</defs>
</svg>
