<svg width="23" height="31" viewBox="0 0 23 31" fill="none" xmlns="http://www.w3.org/2000/svg">
<g clip-path="url(#clip0_201_5629)">
<path d="M21.8096 2.34131H18.5654C18.3196 2.34131 18.0839 2.43896 17.91 2.61279C17.7362 2.78662 17.6385 3.02238 17.6385 3.26821V6.04892H14.8578V3.26821C14.8578 3.02238 14.7602 2.78662 14.5864 2.61279C14.4125 2.43896 14.1768 2.34131 13.9309 2.34131H9.29642C9.05059 2.34131 8.81483 2.43896 8.641 2.61279C8.46717 2.78662 8.36952 3.02238 8.36952 3.26821V6.04892H5.5946V3.26821C5.5946 3.02238 5.49695 2.78662 5.32312 2.61279C5.14929 2.43896 4.91353 2.34131 4.6677 2.34131H1.41775C1.17192 2.34131 0.936156 2.43896 0.762328 2.61279C0.5885 2.78662 0.490845 3.02238 0.490845 3.26821L0.490845 13.4641L4.19846 15.3179C4.19846 18.1178 4.10924 20.8214 3.43318 24.587H19.7942C19.1181 20.8214 19.0289 18.0824 19.0289 15.3179L22.7365 13.4641V3.26821C22.7365 3.02238 22.6389 2.78662 22.465 2.61279C22.2912 2.43896 22.0554 2.34131 21.8096 2.34131ZM13.4675 19.0256H9.75987V15.3179C9.75987 14.8263 9.95518 14.3548 10.3028 14.0071C10.6505 13.6595 11.122 13.4641 11.6137 13.4641C12.1053 13.4641 12.5769 13.6595 12.9245 14.0071C13.2722 14.3548 13.4675 14.8263 13.4675 15.3179V19.0256ZM21.8096 26.4408H1.41775C1.17192 26.4408 0.936156 26.5384 0.762328 26.7123C0.5885 26.8861 0.490845 27.1219 0.490845 27.3677L0.490845 29.2215C0.490845 29.4673 0.5885 29.7031 0.762328 29.8769C0.936156 30.0507 1.17192 30.1484 1.41775 30.1484H21.8096C22.0554 30.1484 22.2912 30.0507 22.465 29.8769C22.6389 29.7031 22.7365 29.4673 22.7365 29.2215V27.3677C22.7365 27.1219 22.6389 26.8861 22.465 26.7123C22.2912 26.5384 22.0554 26.4408 21.8096 26.4408Z" fill="black"/>
</g>
<defs>
<clipPath id="clip0_201_5629">
<rect width="22.2457" height="29.6609" fill="white" transform="translate(0.490845 0.487549)"/>
</clipPath>
</defs>
</svg>
