<svg width="30" height="31" viewBox="0 0 30 31" fill="none" xmlns="http://www.w3.org/2000/svg">
<g clip-path="url(#clip0_201_5639)">
<path d="M15.1091 0.499023H11.4015V4.20663H15.1091V0.499023ZM0.284424 4.2049V7.91251H3.99203V4.2049H0.284424ZM7.69965 0.499023H3.99203V4.20663H7.69965V0.499023ZM11.4073 15.3237V19.0313H15.1149V15.3237H11.4073ZM0.284424 11.6172V15.3248H3.99203V11.6172H0.284424ZM22.5214 0.499023H18.8138V4.20663H22.5214V0.499023ZM29.9366 0.499023H26.229V4.20663H29.9366V0.499023ZM7.69965 15.3237H3.99203V19.0313H7.69965V15.3237ZM29.9337 26.4407V22.7331H26.2261V26.4407H29.9337ZM29.9337 19.0255V15.3179H26.2261V19.0255H29.9337ZM22.5214 30.1483H26.229V26.4407H22.5214V30.1483ZM29.9366 11.6172V7.90961H26.229V11.6172H29.9366ZM7.69965 30.1483H11.4073V26.4407H7.69965V30.1483ZM0.284424 30.1483H3.99203V26.4407H0.284424V30.1483ZM15.1091 30.1483H18.8167V26.4407H15.1091V30.1483ZM0.284424 19.0295V22.7372H3.99203V19.0295H0.284424ZM18.8155 7.91135V4.20374H15.1079V7.91135H18.8155ZM15.1079 15.3266H18.8155V11.619H15.1079V15.3266ZM11.4003 22.7418V26.4494H15.1079V22.7418H11.4003ZM18.8155 19.0342H22.5231V15.3266H18.8155V19.0342ZM18.8155 11.6219H22.5231V7.91425H18.8155V11.6219ZM18.8155 22.7406V26.4482H22.5231V22.7406H18.8155ZM3.99203 22.736V26.4436H7.69965V22.736H3.99203ZM11.4073 7.91135V4.20374H7.69965V7.91135H11.4073ZM22.5255 22.736H26.2331V19.0284H22.5255V22.736ZM15.1102 11.6172V7.90961H11.4026V11.6172H15.1102ZM22.5255 4.2049V7.91251H26.2331V4.2049H22.5255ZM15.1102 19.0295V22.7372H18.8178V19.0295H15.1102ZM11.4026 11.6172H7.69965V15.3248H11.4073L11.4026 11.6172ZM22.5208 15.3248H26.2284V11.6172H22.5208V15.3248ZM7.69965 7.91135H3.99203V11.619H7.69965V7.91135ZM7.69965 19.0295V22.7372H11.4073V19.0295H7.69965Z" fill="black"/>
</g>
<defs>
<clipPath id="clip0_201_5639">
<rect width="29.6609" height="29.6609" fill="white" transform="translate(0.284424 0.487549)"/>
</clipPath>
</defs>
</svg>
