<svg width="30" height="31" viewBox="0 0 30 31" fill="none" xmlns="http://www.w3.org/2000/svg">
<g clip-path="url(#clip0_201_5619)">
<path d="M0.508179 15.6573C0.508179 7.72067 6.93857 1.29028 14.8752 1.29028C22.8118 1.29028 29.2422 7.72067 29.2422 15.6573C29.2422 23.5939 22.8118 30.0243 14.8752 30.0243C6.93857 30.0243 0.508179 23.5939 0.508179 15.6573ZM13.8903 9.05889L6.04063 16.9086C5.49607 17.4532 5.49607 18.3337 6.04063 18.8725L7.02546 19.8573C7.57002 20.4019 8.45058 20.4019 8.98934 19.8573L14.8752 13.9715L20.761 19.8573C21.3056 20.4019 22.1861 20.4019 22.7249 19.8573L23.7097 18.8725C24.2543 18.3279 24.2543 17.4474 23.7097 16.9086L15.86 9.05889C15.3155 8.51433 14.4349 8.51433 13.8903 9.05889Z" fill="black"/>
</g>
<defs>
<clipPath id="clip0_201_5619">
<rect width="29.6609" height="29.6609" fill="white" transform="translate(0.0450439 0.82666)"/>
</clipPath>
</defs>
</svg>
