<svg width="31" height="31" viewBox="0 0 31 31" fill="none" xmlns="http://www.w3.org/2000/svg">
<g clip-path="url(#clip0_201_5625)">
<path d="M29.7153 15.6573C29.7153 23.5939 23.285 30.0243 15.3483 30.0243C7.41174 30.0243 0.981354 23.5939 0.981354 15.6573C0.981354 7.72067 7.41174 1.29028 15.3483 1.29028C23.285 1.29028 29.7153 7.72067 29.7153 15.6573ZM16.3332 22.2557L24.1829 14.406C24.7274 13.8614 24.7274 12.9808 24.1829 12.4421L23.1981 11.4572C22.6535 10.9127 21.7729 10.9127 21.2342 11.4572L15.3483 17.3431L9.46251 11.4572C8.91796 10.9127 8.0374 10.9127 7.49864 11.4572L6.5138 12.4421C5.96925 12.9866 5.96925 13.8672 6.5138 14.406L14.3635 22.2557C14.9081 22.8002 15.7886 22.8002 16.3332 22.2557Z" fill="black"/>
</g>
<defs>
<clipPath id="clip0_201_5625">
<rect width="29.6609" height="29.6609" fill="white" transform="translate(0.517578 0.82666)"/>
</clipPath>
</defs>
</svg>
