<svg width="30" height="31" viewBox="0 0 30 31" fill="none" xmlns="http://www.w3.org/2000/svg">
<g clip-path="url(#clip0_201_5623)">
<path d="M14.8576 30.0243C6.92099 30.0243 0.490601 23.5939 0.490601 15.6573C0.490601 7.72067 6.92099 1.29028 14.8576 1.29028C22.7942 1.29028 29.2246 7.72067 29.2246 15.6573C29.2246 23.5939 22.7942 30.0243 14.8576 30.0243ZM8.25921 16.6421L16.1089 24.4918C16.6535 25.0364 17.534 25.0364 18.0728 24.4918L19.0576 23.507C19.6022 22.9624 19.6022 22.0819 19.0576 21.5431L13.1718 15.6573L19.0576 9.77144C19.6022 9.22689 19.6022 8.34633 19.0576 7.80757L18.0728 6.82273C17.5282 6.27818 16.6477 6.27818 16.1089 6.82273L8.25921 14.6724C7.71465 15.217 7.71465 16.0976 8.25921 16.6421Z" fill="black"/>
</g>
<defs>
<clipPath id="clip0_201_5623">
<rect width="29.6609" height="29.6609" fill="white" transform="translate(0.0267334 0.82666)"/>
</clipPath>
</defs>
</svg>
