<svg width="31" height="31" viewBox="0 0 31 31" fill="none" xmlns="http://www.w3.org/2000/svg">
<g clip-path="url(#clip0_201_5621)">
<path d="M15.3658 1.29028C23.3024 1.29028 29.7328 7.72067 29.7328 15.6573C29.7328 23.5939 23.3024 30.0243 15.3658 30.0243C7.42917 30.0243 0.998779 23.5939 0.998779 15.6573C0.998779 7.72067 7.42917 1.29028 15.3658 1.29028ZM21.9642 14.6724L14.1145 6.82273C13.5699 6.27818 12.6893 6.27818 12.1506 6.82273L11.1657 7.80757C10.6212 8.35212 10.6212 9.23268 11.1657 9.77144L17.0516 15.6573L11.1657 21.5431C10.6212 22.0877 10.6212 22.9682 11.1657 23.507L12.1506 24.4918C12.6951 25.0364 13.5757 25.0364 14.1145 24.4918L21.9642 16.6421C22.5087 16.0976 22.5087 15.217 21.9642 14.6724Z" fill="black"/>
</g>
<defs>
<clipPath id="clip0_201_5621">
<rect width="29.6609" height="29.6609" fill="white" transform="translate(0.535889 0.82666)"/>
</clipPath>
</defs>
</svg>
