<svg width="30" height="31" viewBox="0 0 30 31" fill="none" xmlns="http://www.w3.org/2000/svg">
<g clip-path="url(#clip0_201_5605)">
<path d="M16.9532 3.0894V4.05448C16.9532 4.68038 17.375 5.22232 17.9778 5.39073C22.4686 6.64512 25.7588 10.7631 25.7588 15.6573C25.7588 21.5483 20.9914 26.3167 15.0994 26.3167C9.20846 26.3167 4.44006 21.5492 4.44006 15.6573C4.44006 10.7638 7.72976 6.64524 12.2209 5.39073C12.8238 5.22232 13.2456 4.68026 13.2456 4.05431V3.08987C13.2456 2.17982 12.3863 1.51686 11.505 1.74389C5.28603 3.34581 0.697344 9.0071 0.732624 15.7344C0.774335 23.6741 7.19065 30.041 15.1304 30.0242C23.0508 30.0075 29.4664 23.5816 29.4664 15.6573C29.4664 8.9585 24.8817 3.33069 18.679 1.74007C17.8036 1.51558 16.9532 2.18567 16.9532 3.0894Z" fill="black"/>
</g>
<defs>
<clipPath id="clip0_201_5605">
<rect width="29.6609" height="29.6609" fill="white" transform="translate(0.269531 0.82666)"/>
</clipPath>
</defs>
</svg>
