<svg width="38" height="31" viewBox="0 0 38 31" fill="none" xmlns="http://www.w3.org/2000/svg">
<g clip-path="url(#clip0_201_5601)">
<path d="M36.5583 11.9496H28.6796V2.21714C28.6796 1.44897 28.0575 0.826782 27.2893 0.826782H18.9472C18.179 0.826782 17.5568 1.44897 17.5568 2.21714V6.3882H13.8492V1.75368C13.8492 1.24157 13.4344 0.826782 12.9223 0.826782H11.9954C11.4833 0.826782 11.0685 1.24157 11.0685 1.75368V6.3882H7.36088V1.75368C7.36088 1.24157 6.94609 0.826782 6.43398 0.826782H5.50707C4.99496 0.826782 4.58017 1.24157 4.58017 1.75368V6.3882H2.26291C1.49474 6.3882 0.872559 7.01038 0.872559 7.77855V28.6339C0.872559 29.6575 1.70272 30.4877 2.72636 30.4877H36.0949C37.1185 30.4877 37.9487 29.6575 37.9487 28.6339V13.34C37.9487 12.5718 37.3259 11.9496 36.5583 11.9496ZM8.28778 24.2311C8.28778 24.6152 7.97669 24.9263 7.5926 24.9263H5.27535C4.89126 24.9263 4.58017 24.6152 4.58017 24.2311V21.9138C4.58017 21.5297 4.89126 21.2186 5.27535 21.2186H7.5926C7.97669 21.2186 8.28778 21.5297 8.28778 21.9138V24.2311ZM8.28778 18.6697C8.28778 19.0537 7.97669 19.3648 7.5926 19.3648H5.27535C4.89126 19.3648 4.58017 19.0537 4.58017 18.6697V16.3524C4.58017 15.9683 4.89126 15.6572 5.27535 15.6572H7.5926C7.97669 15.6572 8.28778 15.9683 8.28778 16.3524V18.6697ZM8.28778 13.1082C8.28778 13.4923 7.97669 13.8034 7.5926 13.8034H5.27535C4.89126 13.8034 4.58017 13.4923 4.58017 13.1082V10.791C4.58017 10.4069 4.89126 10.0958 5.27535 10.0958H7.5926C7.97669 10.0958 8.28778 10.4069 8.28778 10.791V13.1082ZM15.703 24.2311C15.703 24.6152 15.3919 24.9263 15.0078 24.9263H12.6906C12.3065 24.9263 11.9954 24.6152 11.9954 24.2311V21.9138C11.9954 21.5297 12.3065 21.2186 12.6906 21.2186H15.0078C15.3919 21.2186 15.703 21.5297 15.703 21.9138V24.2311ZM15.703 18.6697C15.703 19.0537 15.3919 19.3648 15.0078 19.3648H12.6906C12.3065 19.3648 11.9954 19.0537 11.9954 18.6697V16.3524C11.9954 15.9683 12.3065 15.6572 12.6906 15.6572H15.0078C15.3919 15.6572 15.703 15.9683 15.703 16.3524V18.6697ZM15.703 13.1082C15.703 13.4923 15.3919 13.8034 15.0078 13.8034H12.6906C12.3065 13.8034 11.9954 13.4923 11.9954 13.1082V10.791C11.9954 10.4069 12.3065 10.0958 12.6906 10.0958H15.0078C15.3919 10.0958 15.703 10.4069 15.703 10.791V13.1082ZM24.972 18.6697C24.972 19.0537 24.6609 19.3648 24.2769 19.3648H21.9596C21.5755 19.3648 21.2644 19.0537 21.2644 18.6697V16.3524C21.2644 15.9683 21.5755 15.6572 21.9596 15.6572H24.2769C24.6609 15.6572 24.972 15.9683 24.972 16.3524V18.6697ZM24.972 13.1082C24.972 13.4923 24.6609 13.8034 24.2769 13.8034H21.9596C21.5755 13.8034 21.2644 13.4923 21.2644 13.1082V10.791C21.2644 10.4069 21.5755 10.0958 21.9596 10.0958H24.2769C24.6609 10.0958 24.972 10.4069 24.972 10.791V13.1082ZM24.972 7.54683C24.972 7.93091 24.6609 8.242 24.2769 8.242H21.9596C21.5755 8.242 21.2644 7.93091 21.2644 7.54683V5.22957C21.2644 4.84549 21.5755 4.53439 21.9596 4.53439H24.2769C24.6609 4.53439 24.972 4.84549 24.972 5.22957V7.54683ZM34.2411 24.2311C34.2411 24.6152 33.93 24.9263 33.5459 24.9263H31.2286C30.8445 24.9263 30.5334 24.6152 30.5334 24.2311V21.9138C30.5334 21.5297 30.8445 21.2186 31.2286 21.2186H33.5459C33.93 21.2186 34.2411 21.5297 34.2411 21.9138V24.2311ZM34.2411 18.6697C34.2411 19.0537 33.93 19.3648 33.5459 19.3648H31.2286C30.8445 19.3648 30.5334 19.0537 30.5334 18.6697V16.3524C30.5334 15.9683 30.8445 15.6572 31.2286 15.6572H33.5459C33.93 15.6572 34.2411 15.9683 34.2411 16.3524V18.6697Z" fill="black"/>
</g>
<defs>
<clipPath id="clip0_201_5601">
<rect width="37.0761" height="29.6609" fill="white" transform="translate(0.872559 0.82666)"/>
</clipPath>
</defs>
</svg>
