<svg width="35" height="31" viewBox="0 0 35 31" fill="none" xmlns="http://www.w3.org/2000/svg">
<g clip-path="url(#clip0_201_5599)">
<path d="M17.3579 7.48874L4.69817 18.6527C4.60432 18.7373 4.4844 18.7767 4.38128 18.8468V29.5606C4.38128 29.8064 4.47894 30.0422 4.65277 30.216C4.8266 30.3899 5.06236 30.4875 5.30819 30.4875H29.4077C29.6535 30.4875 29.8893 30.3899 30.0631 30.216C30.2369 30.0422 30.3346 29.8064 30.3346 29.5606V18.8491C30.2361 18.7819 30.1191 18.7437 30.0298 18.6637L17.3579 7.48874ZM22.9193 22.6088C22.9193 22.7318 22.8705 22.8496 22.7836 22.9366C22.6967 23.0235 22.5788 23.0723 22.4559 23.0723H19.2117V26.3165C19.2117 26.4394 19.1629 26.5572 19.076 26.6442C18.9891 26.7311 18.8712 26.7799 18.7483 26.7799H15.9676C15.8447 26.7799 15.7268 26.7311 15.6399 26.6442C15.5529 26.5572 15.5041 26.4394 15.5041 26.3165V23.0723H12.26C12.137 23.0723 12.0192 23.0235 11.9322 22.9366C11.8453 22.8496 11.7965 22.7318 11.7965 22.6088V19.8281C11.7965 19.7052 11.8453 19.5873 11.9322 19.5004C12.0192 19.4135 12.137 19.3647 12.26 19.3647H15.5041V16.1205C15.5041 15.9976 15.5529 15.8797 15.6399 15.7928C15.7268 15.7059 15.8447 15.6571 15.9676 15.6571H18.7483C18.8712 15.6571 18.9891 15.7059 19.076 15.7928C19.1629 15.8797 19.2117 15.9976 19.2117 16.1205V19.3647H22.4559C22.5788 19.3647 22.6967 19.4135 22.7836 19.5004C22.8705 19.5873 22.9193 19.7052 22.9193 19.8281V22.6088ZM33.7346 14.5147L18.9076 1.42216C18.4832 1.03848 17.9315 0.82605 17.3594 0.82605C16.7873 0.82605 16.2355 1.03848 15.8112 1.42216L0.980708 14.5147C0.890116 14.596 0.816438 14.6944 0.763885 14.8042C0.711331 14.9141 0.680931 15.0332 0.674421 15.1548C0.667912 15.2763 0.68542 15.398 0.725947 15.5128C0.766473 15.6277 0.829223 15.7334 0.910611 15.8239L2.15092 17.2038C2.23227 17.2944 2.33067 17.3681 2.4405 17.4207C2.55033 17.4732 2.66944 17.5036 2.79103 17.5101C2.91261 17.5166 3.03428 17.4991 3.1491 17.4586C3.26391 17.4181 3.36962 17.3553 3.46017 17.2739L16.745 5.55557C16.9143 5.40618 17.1324 5.32374 17.3582 5.32374C17.584 5.32374 17.8021 5.40618 17.9714 5.55557L31.2563 17.2734C31.3468 17.3547 31.4525 17.4175 31.5673 17.458C31.6821 17.4985 31.8038 17.5161 31.9254 17.5095C32.047 17.503 32.1661 17.4726 32.2759 17.4201C32.3857 17.3675 32.4842 17.2939 32.5655 17.2033L33.8052 15.8233C33.9694 15.6404 34.0541 15.3998 34.0409 15.1544C34.0276 14.909 33.9174 14.6789 33.7346 14.5147Z" fill="black"/>
</g>
<defs>
<clipPath id="clip0_201_5599">
<rect width="33.3685" height="29.6609" fill="white" transform="translate(0.674072 0.82666)"/>
</clipPath>
</defs>
</svg>
