<svg width="23" height="31" viewBox="0 0 23 31" fill="none" xmlns="http://www.w3.org/2000/svg">
<g clip-path="url(#clip0_201_5597)">
<path d="M20.0635 4.53439H15.429C15.429 2.48941 13.7663 0.826782 11.7213 0.826782C9.67636 0.826782 8.01373 2.48941 8.01373 4.53439H3.37922C1.84404 4.53439 0.598511 5.77992 0.598511 7.3151V27.707C0.598511 29.2421 1.84404 30.4877 3.37922 30.4877H20.0635C21.5987 30.4877 22.8442 29.2421 22.8442 27.707V7.3151C22.8442 5.77992 21.5987 4.53439 20.0635 4.53439ZM6.15993 25.3897C5.38944 25.3897 4.76957 24.7698 4.76957 23.9994C4.76957 23.2289 5.38944 22.609 6.15993 22.609C6.93042 22.609 7.55028 23.2289 7.55028 23.9994C7.55028 24.7698 6.93042 25.3897 6.15993 25.3897ZM6.15993 19.8283C5.38944 19.8283 4.76957 19.2084 4.76957 18.4379C4.76957 17.6674 5.38944 17.0476 6.15993 17.0476C6.93042 17.0476 7.55028 17.6674 7.55028 18.4379C7.55028 19.2084 6.93042 19.8283 6.15993 19.8283ZM6.15993 14.2669C5.38944 14.2669 4.76957 13.647 4.76957 12.8765C4.76957 12.106 5.38944 11.4862 6.15993 11.4862C6.93042 11.4862 7.55028 12.106 7.55028 12.8765C7.55028 13.647 6.93042 14.2669 6.15993 14.2669ZM11.7213 3.14404C12.4918 3.14404 13.1117 3.76391 13.1117 4.53439C13.1117 5.30488 12.4918 5.92475 11.7213 5.92475C10.9509 5.92475 10.331 5.30488 10.331 4.53439C10.331 3.76391 10.9509 3.14404 11.7213 3.14404ZM19.1366 24.4628C19.1366 24.7177 18.928 24.9263 18.6731 24.9263H10.331C10.0761 24.9263 9.86754 24.7177 9.86754 24.4628V23.5359C9.86754 23.281 10.0761 23.0724 10.331 23.0724H18.6731C18.928 23.0724 19.1366 23.281 19.1366 23.5359V24.4628ZM19.1366 18.9014C19.1366 19.1563 18.928 19.3648 18.6731 19.3648H10.331C10.0761 19.3648 9.86754 19.1563 9.86754 18.9014V17.9745C9.86754 17.7196 10.0761 17.511 10.331 17.511H18.6731C18.928 17.511 19.1366 17.7196 19.1366 17.9745V18.9014ZM19.1366 13.34C19.1366 13.5949 18.928 13.8034 18.6731 13.8034H10.331C10.0761 13.8034 9.86754 13.5949 9.86754 13.34V12.4131C9.86754 12.1582 10.0761 11.9496 10.331 11.9496H18.6731C18.928 11.9496 19.1366 12.1582 19.1366 12.4131V13.34Z" fill="black"/>
</g>
<defs>
<clipPath id="clip0_201_5597">
<rect width="22.2457" height="29.6609" fill="white" transform="translate(0.598389 0.82666)"/>
</clipPath>
</defs>
</svg>
