<svg width="23" height="31" viewBox="0 0 23 31" fill="none" xmlns="http://www.w3.org/2000/svg">
<g clip-path="url(#clip0_201_5593)">
<path d="M22.6927 7.3151V27.707C22.6927 29.2427 21.4477 30.4877 19.912 30.4877H3.22773C1.69197 30.4877 0.447021 29.2427 0.447021 27.707V7.3151C0.447021 5.77934 1.69197 4.53439 3.22773 4.53439H7.86224C7.86224 2.48999 9.52545 0.826782 11.5699 0.826782C13.6143 0.826782 15.2775 2.48999 15.2775 4.53439H19.912C21.4477 4.53439 22.6927 5.77934 22.6927 7.3151ZM11.5699 3.14404C10.802 3.14404 10.1795 3.76651 10.1795 4.53439C10.1795 5.30227 10.802 5.92475 11.5699 5.92475C12.3377 5.92475 12.9602 5.30227 12.9602 4.53439C12.9602 3.76651 12.3377 3.14404 11.5699 3.14404ZM17.1313 9.74822V8.58959C17.1313 8.49741 17.0947 8.409 17.0295 8.34381C16.9643 8.27863 16.8759 8.242 16.7837 8.242H6.35603C6.26384 8.242 6.17543 8.27863 6.11024 8.34381C6.04506 8.409 6.00844 8.49741 6.00844 8.58959V9.74822C6.00844 9.84041 6.04506 9.92882 6.11024 9.994C6.17543 10.0592 6.26384 10.0958 6.35603 10.0958H16.7837C16.8759 10.0958 16.9643 10.0592 17.0295 9.994C17.0947 9.92882 17.1313 9.84041 17.1313 9.74822Z" fill="black"/>
</g>
<defs>
<clipPath id="clip0_201_5593">
<rect width="22.2457" height="29.6609" fill="white" transform="translate(0.447021 0.82666)"/>
</clipPath>
</defs>
</svg>
