<svg width="23" height="31" viewBox="0 0 23 31" fill="none" xmlns="http://www.w3.org/2000/svg">
<g clip-path="url(#clip0_201_5595)">
<path d="M19.9877 4.53439H15.3531C15.3531 2.48941 13.6905 0.826782 11.6455 0.826782C9.60056 0.826782 7.93793 2.48941 7.93793 4.53439H3.30341C1.76823 4.53439 0.522705 5.77992 0.522705 7.3151V27.707C0.522705 29.2421 1.76823 30.4877 3.30341 30.4877H19.9877C21.5228 30.4877 22.7684 29.2421 22.7684 27.707V7.3151C22.7684 5.77992 21.5228 4.53439 19.9877 4.53439ZM11.6455 3.14404C12.416 3.14404 13.0359 3.76391 13.0359 4.53439C13.0359 5.30488 12.416 5.92475 11.6455 5.92475C10.8751 5.92475 10.2552 5.30488 10.2552 4.53439C10.2552 3.76391 10.8751 3.14404 11.6455 3.14404ZM18.6668 16.5725L10.3826 24.7872C10.1104 25.0595 9.67008 25.0537 9.3978 24.7814L4.61266 19.9557C4.34039 19.6835 4.34618 19.2432 4.61846 18.9709L6.26371 17.3372C6.53599 17.065 6.97627 17.0708 7.24854 17.343L9.91339 20.031L16.0541 13.9367C16.3264 13.6644 16.7667 13.6702 17.039 13.9425L18.6726 15.5877C18.9449 15.8658 18.9391 16.3003 18.6668 16.5725Z" fill="black"/>
</g>
<defs>
<clipPath id="clip0_201_5595">
<rect width="22.2457" height="29.6609" fill="white" transform="translate(0.522705 0.82666)"/>
</clipPath>
</defs>
</svg>
