<svg width="31" height="31" viewBox="0 0 31 31" fill="none" xmlns="http://www.w3.org/2000/svg">
<g clip-path="url(#clip0_201_5591)">
<path d="M15.7869 1.29041C7.85031 1.29041 1.41992 7.72079 1.41992 15.6574C1.41992 23.594 7.85031 30.0244 15.7869 30.0244C23.7235 30.0244 30.1539 23.594 30.1539 15.6574C30.1539 7.72079 23.7235 1.29041 15.7869 1.29041ZM21.145 19.4229L19.9864 20.8712C19.9103 20.9663 19.8163 21.0454 19.7097 21.1042C19.6031 21.1629 19.4859 21.2 19.3649 21.2135C19.2439 21.2269 19.1215 21.2164 19.0046 21.1826C18.8876 21.1487 18.7785 21.0921 18.6835 21.0161L14.8021 18.1357C14.5309 17.9186 14.312 17.6432 14.1616 17.3301C14.0111 17.0169 13.9331 16.6739 13.9331 16.3265V7.31527C13.9331 7.06944 14.0308 6.83368 14.2046 6.65985C14.3784 6.48603 14.6142 6.38837 14.86 6.38837H16.7138C16.9596 6.38837 17.1954 6.48603 17.3692 6.65985C17.5431 6.83368 17.6407 7.06944 17.6407 7.31527V15.6574L21.0007 18.1195C21.0958 18.1956 21.175 18.2896 21.2337 18.3963C21.2925 18.503 21.3296 18.6203 21.343 18.7413C21.3564 18.8624 21.3458 18.9849 21.3118 19.1018C21.2778 19.2188 21.2212 19.3279 21.145 19.4229Z" fill="black"/>
</g>
<defs>
<clipPath id="clip0_201_5591">
<rect width="29.6609" height="29.6609" fill="white" transform="translate(0.956055 0.82666)"/>
</clipPath>
</defs>
</svg>
