<svg width="31" height="31" viewBox="0 0 31 31" fill="none" xmlns="http://www.w3.org/2000/svg">
<g clip-path="url(#clip0_201_5589)">
<path d="M27.3454 0.826782C28.8812 0.826782 30.1261 2.07173 30.1261 3.60749V20.2917C30.1261 21.8275 28.8812 23.0724 27.3454 23.0724H10.6611C9.12538 23.0724 7.88043 21.8275 7.88043 20.2917V3.60749C7.88043 2.07173 9.12538 0.826782 10.6611 0.826782H27.3454ZM10.6611 24.9263C8.10567 24.9263 6.02663 22.8472 6.02663 20.2917V8.242H3.24592C1.71016 8.242 0.46521 9.48695 0.46521 11.0227V27.707C0.46521 29.2427 1.71016 30.4877 3.24592 30.4877H19.9302C21.4659 30.4877 22.7109 29.2427 22.7109 27.707V24.9263H10.6611Z" fill="black"/>
</g>
<defs>
<clipPath id="clip0_201_5589">
<rect width="29.6609" height="29.6609" fill="white" transform="translate(0.46521 0.82666)"/>
</clipPath>
</defs>
</svg>
