<svg width="31" height="31" viewBox="0 0 31 31" fill="none" xmlns="http://www.w3.org/2000/svg">
<g clip-path="url(#clip0_201_5587)">
<path d="M27.8544 4.53442H3.75495C2.21977 4.53442 0.974243 5.77995 0.974243 7.31513V23.9994C0.974243 25.5346 2.21977 26.7801 3.75495 26.7801H27.8544C29.3896 26.7801 30.6351 25.5346 30.6351 23.9994V7.31513C30.6351 5.77995 29.3896 4.53442 27.8544 4.53442ZM13.6091 17.4937C13.7713 17.3489 14.0204 17.372 14.1421 17.5458L15.2717 19.1505C15.3702 19.2896 15.3586 19.4749 15.2428 19.5966C12.1376 22.8871 5.2322 21.4562 5.2322 15.6631C5.2322 10.0263 12.2825 8.74024 15.2254 11.6021C15.347 11.7179 15.3702 11.7874 15.2833 11.9323L14.2695 13.6992C14.1594 13.8788 13.9103 13.9309 13.7423 13.7977C11.3787 11.9439 8.26202 12.9345 8.26202 15.6051C8.26781 18.3858 11.2223 19.6893 13.6091 17.4937ZM24.6392 17.4937C24.8014 17.3489 25.0505 17.372 25.1722 17.5458L26.3019 19.1505C26.4003 19.2896 26.3888 19.4749 26.2729 19.5966C23.1736 22.8929 16.2681 21.4562 16.2681 15.6631C16.2681 10.0263 23.3184 8.74024 26.2613 11.6021C26.383 11.7179 26.4061 11.7874 26.3192 11.9323L25.3054 13.6992C25.1954 13.8788 24.9463 13.9309 24.7783 13.7977C22.4147 11.9439 19.298 12.9345 19.298 15.6051C19.298 18.3858 22.2525 19.6893 24.6392 17.4937Z" fill="black"/>
</g>
<defs>
<clipPath id="clip0_201_5587">
<rect width="29.6609" height="29.6609" fill="white" transform="translate(0.974365 0.82666)"/>
</clipPath>
</defs>
</svg>
