<svg width="34" height="31" viewBox="0 0 34 31" fill="none" xmlns="http://www.w3.org/2000/svg">
<g clip-path="url(#clip0_201_5581)">
<path d="M20.2377 21.2592C20.5679 20.7031 20.7706 20.06 20.7706 19.3648C20.7706 17.3199 19.108 15.6572 17.063 15.6572C16.0666 15.6572 15.1629 16.057 14.4967 16.6942C13.5524 14.9794 11.7449 13.8034 9.64781 13.8034C6.57745 13.8034 4.0864 16.2945 4.0864 19.3648C4.0864 19.4807 4.11536 19.585 4.12115 19.695C1.94873 20.4539 0.378784 22.4989 0.378784 24.9263C0.378784 27.9966 2.86984 30.4877 5.9402 30.4877H19.8437C22.4043 30.4877 24.4783 28.4137 24.4783 25.8532C24.4783 23.4258 22.6071 21.462 20.2377 21.2592ZM33.1274 18.1135C27.734 19.1389 22.7867 15.0026 22.7867 9.55705C22.7867 6.41716 24.4667 3.53218 27.1952 1.97962C27.6181 1.7421 27.5081 1.10485 27.033 1.01216C26.3552 0.890507 25.6774 0.826782 24.9996 0.826782C18.8647 0.826782 13.8826 5.80309 13.8826 11.9496C13.8826 12.442 13.9232 12.9229 13.9869 13.3979C14.3287 13.647 14.6589 13.9135 14.9543 14.2205C15.6147 13.9482 16.3273 13.8034 17.063 13.8034C20.1276 13.8034 22.6245 16.3003 22.6245 19.3648C22.6245 19.5734 22.6129 19.7819 22.5897 19.9847C23.9569 20.6104 25.046 21.6937 25.689 23.0319C28.8405 22.8349 31.6965 21.3345 33.6314 18.9535C33.9385 18.577 33.6025 18.0208 33.1274 18.1135Z" fill="black"/>
</g>
<defs>
<clipPath id="clip0_201_5581">
<rect width="33.3685" height="29.6609" fill="white" transform="translate(0.378784 0.82666)"/>
</clipPath>
</defs>
</svg>
