<svg width="31" height="31" viewBox="0 0 31 31" fill="none" xmlns="http://www.w3.org/2000/svg">
<g clip-path="url(#clip0_201_5583)">
<path d="M3.35798 21.2186C1.8228 21.2186 0.577271 22.4642 0.577271 23.9994C0.577271 25.5345 1.8228 26.7801 3.35798 26.7801C4.89316 26.7801 6.13869 25.5345 6.13869 23.9994C6.13869 22.4642 4.89316 21.2186 3.35798 21.2186ZM27.4575 21.2186C25.9223 21.2186 24.6767 22.4642 24.6767 23.9994C24.6767 25.5345 25.9223 26.7801 27.4575 26.7801C28.9926 26.7801 30.2382 25.5345 30.2382 23.9994C30.2382 22.4642 28.9926 21.2186 27.4575 21.2186ZM20.5636 21.8617C20.8301 21.0217 20.6563 20.0774 19.9959 19.4112C19.3297 18.745 18.3854 18.577 17.5454 18.8377C17.1399 18.0556 16.3462 17.5052 15.4077 17.5052C14.4692 17.5052 13.6756 18.0556 13.27 18.8377C12.43 18.5712 11.4858 18.745 10.8195 19.4112C10.1533 20.0774 9.98533 21.0217 10.246 21.8617C9.46395 22.2672 8.9136 23.0609 8.9136 23.9994C8.9136 24.9378 9.46395 25.7315 10.246 26.137C9.97954 26.977 10.1533 27.9213 10.8195 28.5875C11.2946 29.0626 11.9144 29.3001 12.5401 29.3001C12.7892 29.3001 13.0325 29.2364 13.27 29.1552C13.6756 29.9373 14.4692 30.4877 15.4077 30.4877C16.3462 30.4877 17.1399 29.9373 17.5454 29.1552C17.7829 29.2306 18.0262 29.3001 18.2753 29.3001C18.901 29.3001 19.5208 29.0626 19.9959 28.5875C20.6621 27.9213 20.8301 26.977 20.5636 26.137C21.3457 25.7315 21.896 24.9378 21.896 23.9994C21.896 23.0609 21.3457 22.2672 20.5636 21.8617ZM30.2382 13.8034C30.2382 10.7331 27.7471 8.242 24.6767 8.242C24.642 8.242 24.613 8.25359 24.5841 8.25359C24.6478 7.95235 24.6767 7.63952 24.6767 7.3151C24.6767 4.75453 22.6028 2.68059 20.0422 2.68059C18.6171 2.68059 17.36 3.33521 16.5084 4.34901C15.4309 2.26348 13.2816 0.826782 10.7732 0.826782C7.18725 0.826782 4.28488 3.72915 4.28488 7.3151C4.28488 7.738 4.33123 8.14352 4.40654 8.54325C2.18776 9.27318 0.577271 11.3413 0.577271 13.8034C0.577271 16.8738 3.06832 19.3648 6.13869 19.3648H8.65291C8.86146 18.9014 9.13953 18.4727 9.5103 18.1019C10.2924 17.3199 11.3351 16.8796 12.4532 16.868C13.2353 16.1033 14.2896 15.6572 15.4077 15.6572C16.5258 15.6572 17.5801 16.1033 18.3622 16.868C19.4803 16.8796 20.5231 17.3199 21.3051 18.1019C21.6759 18.4727 21.9598 18.9014 22.1625 19.3648H24.6767C27.7471 19.3648 30.2382 16.8738 30.2382 13.8034Z" fill="black"/>
</g>
<defs>
<clipPath id="clip0_201_5583">
<rect width="29.6609" height="29.6609" fill="white" transform="translate(0.577271 0.82666)"/>
</clipPath>
</defs>
</svg>
