<svg width="34" height="31" viewBox="0 0 34 31" fill="none" xmlns="http://www.w3.org/2000/svg">
<g clip-path="url(#clip0_201_5573)">
<path d="M29.574 13.8903C29.1743 11.7353 27.2973 10.0958 25.0264 10.0958C24.3138 10.0958 23.6418 10.2696 23.0393 10.5593C22.0313 9.16311 20.3977 8.242 18.5381 8.242C15.4677 8.242 12.9766 10.7331 12.9766 13.8034C12.9766 13.8324 12.9882 13.8671 12.9882 13.8961C10.8679 14.3248 9.26903 16.1902 9.26903 18.4379C9.26903 20.9985 11.343 23.0724 13.9035 23.0724H28.734C31.2946 23.0724 33.3685 20.9985 33.3685 18.4379C33.3685 16.167 31.7348 14.2843 29.574 13.8903ZM7.18929 15.8832C5.02265 13.7165 5.02265 10.1885 7.18929 8.01607C9.19372 6.01164 12.351 5.8842 14.5292 7.58738C15.6878 6.84006 17.055 6.3882 18.5381 6.3882C18.5786 6.3882 18.6134 6.39979 18.6539 6.39979L19.1695 4.85302C19.3665 4.26212 18.8045 3.70597 18.2136 3.90294L13.8514 5.35702L11.7948 1.24389C11.5168 0.687747 10.7231 0.687747 10.445 1.24389L8.38847 5.35702L4.02623 3.90294C3.43533 3.70597 2.87919 4.26791 3.07616 4.85881L4.53024 9.22105L0.417106 11.2776C-0.139035 11.5557 -0.139035 12.3493 0.417106 12.6274L4.53024 14.684L3.07616 19.0462C2.87919 19.6371 3.44113 20.1933 4.03203 20.0021L7.46157 18.8608C7.44998 18.7218 7.42102 18.5886 7.42102 18.4437C7.42102 17.7196 7.55426 17.0244 7.78019 16.364C7.57164 16.2076 7.36888 16.0627 7.18929 15.8832ZM11.2329 12.5231C11.482 11.1038 12.1482 9.83512 13.0809 8.81553C12.5132 8.45635 11.8412 8.242 11.1228 8.242C9.07785 8.242 7.41522 9.90464 7.41522 11.9496C7.41522 13.0329 7.89026 14.0004 8.63758 14.6782C9.2922 13.7571 10.1786 13.004 11.2329 12.5231ZM30.385 25.0479C29.9448 24.7988 29.377 24.9436 29.1221 25.3955L27.0018 29.1031C26.7469 29.5492 26.9034 30.1111 27.3494 30.366C27.4943 30.4471 27.6507 30.4877 27.8071 30.4877C28.1257 30.4877 28.4385 30.3197 28.6123 30.0184L30.7326 26.3108C30.9817 25.8647 30.8311 25.3028 30.385 25.0479ZM24.8236 25.0479C24.3833 24.7988 23.8156 24.9436 23.5607 25.3955L21.4404 29.1031C21.1855 29.5492 21.3419 30.1111 21.788 30.366C21.9328 30.4471 22.0893 30.4877 22.2457 30.4877C22.5643 30.4877 22.8771 30.3197 23.0509 30.0184L25.1712 26.3108C25.4203 25.8647 25.2697 25.3028 24.8236 25.0479ZM19.2622 25.0479C18.8219 24.7988 18.2542 24.9436 17.9993 25.3955L15.879 29.1031C15.6241 29.5492 15.7805 30.1111 16.2266 30.366C16.3714 30.4471 16.5278 30.4877 16.6842 30.4877C17.0029 30.4877 17.3157 30.3197 17.4895 30.0184L19.6098 26.3108C19.8589 25.8647 19.7083 25.3028 19.2622 25.0479ZM13.7008 25.0479C13.2605 24.7988 12.6928 24.9436 12.4379 25.3955L10.3176 29.1031C10.0627 29.5492 10.2191 30.1111 10.6652 30.366C10.81 30.4471 10.9664 30.4877 11.1228 30.4877C11.4415 30.4877 11.7543 30.3197 11.9281 30.0184L14.0484 26.3108C14.2975 25.8647 14.1469 25.3028 13.7008 25.0479Z" fill="black"/>
</g>
<defs>
<clipPath id="clip0_201_5573">
<rect width="33.3685" height="29.6609" fill="white" transform="translate(0 0.82666)"/>
</clipPath>
</defs>
</svg>
