<svg width="34" height="31" viewBox="0 0 34 31" fill="none" xmlns="http://www.w3.org/2000/svg">
<g clip-path="url(#clip0_201_5579)">
<path d="M20.4853 13.8902C20.0855 11.7351 18.2086 10.0957 15.9376 10.0957C15.2251 10.0957 14.5531 10.2695 13.9506 10.5591C12.9426 9.16299 11.3089 8.24188 9.44933 8.24188C6.37896 8.24188 3.88791 10.7329 3.88791 13.8033C3.88791 13.8323 3.8995 13.867 3.8995 13.896C1.77921 14.3189 0.180298 16.1901 0.180298 18.4378C0.180298 20.9984 2.25424 23.0723 4.81481 23.0723H19.6453C22.2058 23.0723 24.2798 20.9984 24.2798 18.4378C24.2798 16.1669 22.6461 14.2841 20.4853 13.8902ZM33.0796 13.7917C29.0012 14.5622 25.2588 11.4571 25.2588 7.37291C25.2588 5.0209 26.5275 2.85426 28.5899 1.68984C28.9085 1.51025 28.8274 1.02942 28.4682 0.965696C27.9642 0.873005 27.4486 0.82666 26.933 0.82666C22.4202 0.82666 18.7589 4.37206 18.5677 8.8154C20.1145 9.50479 21.36 10.7735 21.9799 12.3898C24.1291 13.2182 25.6875 15.1357 26.0467 17.4182C26.3421 17.4472 26.626 17.5051 26.9272 17.5051C29.5168 17.5051 31.8862 16.3349 33.4503 14.4174C33.6936 14.1393 33.4387 13.7222 33.0796 13.7917ZM21.2963 25.0478C20.856 24.7987 20.2883 24.9435 20.0334 25.3954L17.9131 29.103C17.6582 29.5491 17.8146 30.111 18.2607 30.3659C18.4055 30.447 18.5619 30.4875 18.7184 30.4875C19.037 30.4875 19.3498 30.3195 19.5236 30.0183L21.6439 26.3107C21.893 25.8646 21.7424 25.3027 21.2963 25.0478ZM15.7349 25.0478C15.2946 24.7987 14.7269 24.9435 14.472 25.3954L12.3517 29.103C12.0968 29.5491 12.2532 30.111 12.6993 30.3659C12.8441 30.447 13.0005 30.4875 13.1569 30.4875C13.4756 30.4875 13.7884 30.3195 13.9622 30.0183L16.0825 26.3107C16.3316 25.8646 16.181 25.3027 15.7349 25.0478ZM10.1735 25.0478C9.73319 24.7987 9.16546 24.9435 8.91056 25.3954L6.79027 29.103C6.53538 29.5491 6.69179 30.111 7.13786 30.3659C7.28269 30.447 7.43911 30.4875 7.59552 30.4875C7.91414 30.4875 8.22697 30.3195 8.40077 30.0183L10.5211 26.3107C10.7702 25.8646 10.6195 25.3027 10.1735 25.0478ZM4.61205 25.0478C4.17177 24.7987 3.60405 24.9435 3.34915 25.3954L1.22886 29.103C0.973958 29.5491 1.13037 30.111 1.57645 30.3659C1.72127 30.447 1.87769 30.4875 2.0341 30.4875C2.35273 30.4875 2.66556 30.3195 2.83935 30.0183L4.95964 26.3107C5.20875 25.8646 5.05812 25.3027 4.61205 25.0478Z" fill="black"/>
</g>
<defs>
<clipPath id="clip0_201_5579">
<rect width="33.3685" height="29.6609" fill="white" transform="translate(0.180298 0.82666)"/>
</clipPath>
</defs>
</svg>
