<svg width="38" height="31" viewBox="0 0 38 31" fill="none" xmlns="http://www.w3.org/2000/svg">
<g clip-path="url(#clip0_201_5585)">
<path d="M31.212 13.9541C31.4496 13.3343 31.5828 12.6565 31.5828 11.9497C31.5828 8.87933 29.0918 6.38828 26.0214 6.38828C24.8801 6.38828 23.8142 6.73586 22.9336 7.32676C21.3289 4.54606 18.3339 2.68066 14.8986 2.68066C9.77742 2.68066 5.62953 6.82855 5.62953 11.9497C5.62953 12.1061 5.63532 12.2625 5.64112 12.4189C2.39696 13.5602 0.0681152 16.6537 0.0681152 20.2918C0.0681152 24.8974 3.80469 28.6339 8.41024 28.6339H29.729C33.8248 28.6339 37.1442 25.3145 37.1442 21.2187C37.1442 17.6328 34.5952 14.6377 31.212 13.9541ZM23.513 19.0926L17.407 25.1986C17.0478 25.5578 16.4569 25.5578 16.0977 25.1986L9.99177 19.0926C9.40666 18.5075 9.82377 17.5111 10.6464 17.5111H14.4351V11.0228C14.4351 10.513 14.8522 10.0959 15.362 10.0959H18.1427C18.6525 10.0959 19.0696 10.513 19.0696 11.0228V17.5111H22.8583C23.681 17.5111 24.0981 18.5075 23.513 19.0926Z" fill="black"/>
</g>
<defs>
<clipPath id="clip0_201_5585">
<rect width="37.0761" height="29.6609" fill="white" transform="translate(0.0681152 0.82666)"/>
</clipPath>
</defs>
</svg>
