<svg width="38" height="30" viewBox="0 0 38 30" fill="none" xmlns="http://www.w3.org/2000/svg">
<g clip-path="url(#clip0_201_5571)">
<path d="M33.5243 19.0342C33.5359 18.9241 33.5706 18.8198 33.5706 18.7097C33.5706 16.6648 31.908 15.0021 29.863 15.0021C29.1331 15.0021 28.4611 15.2223 27.8876 15.5814C26.868 13.3337 24.6145 11.758 21.9844 11.758C18.4042 11.758 15.496 14.6603 15.496 18.2463C15.496 18.4201 15.5366 18.5823 15.5482 18.7503C12.6748 18.9646 10.3981 21.3398 10.3981 24.2712C10.3981 27.3415 12.8891 29.8326 15.9595 29.8326H31.7168C34.7872 29.8326 37.2783 27.3415 37.2783 24.2712C37.2783 21.8322 35.7025 19.7873 33.5243 19.0342ZM8.59062 17.7249C6.05902 15.1933 6.05902 11.0802 8.59062 8.55436C11.1222 6.02276 15.2354 6.02276 17.767 8.55436C18.3289 9.1163 18.746 9.76513 19.0588 10.4487C19.6266 10.2344 20.2232 10.1011 20.8373 10.0142L22.5637 4.86413C22.7954 4.17475 22.1408 3.52592 21.4514 3.75185L16.365 5.44924L13.9609 0.652517C13.6422 0.00368556 12.7153 0.00368556 12.3909 0.652517L9.99256 5.44924L4.90039 3.75185C4.2168 3.52592 3.56217 4.18054 3.7881 4.86413L5.48549 9.95051L0.688772 12.3547C0.0399404 12.6791 0.0399404 13.6002 0.688772 13.9246L5.48549 16.323L3.7881 21.4093C3.55638 22.0987 4.211 22.7476 4.90039 22.5216L9.30897 21.056C9.66235 20.3376 10.12 19.683 10.6762 19.1153C9.91725 18.8024 9.20469 18.339 8.59062 17.7249ZM8.31255 13.1367C8.31255 15.5003 10.0099 17.47 12.2461 17.9045C12.7095 17.6322 13.1904 17.3947 13.706 17.2267C14.0188 14.6603 15.5018 12.4474 17.6105 11.1439C16.8458 9.45809 15.1485 8.27629 13.1788 8.27629C10.4966 8.27629 8.31255 10.4545 8.31255 13.1367Z" fill="black"/>
</g>
<defs>
<clipPath id="clip0_201_5571">
<rect width="37.0761" height="29.6609" fill="white" transform="translate(0.202271 0.165771)"/>
</clipPath>
</defs>
</svg>
