<svg width="38" height="30" viewBox="0 0 38 30" fill="none" xmlns="http://www.w3.org/2000/svg">
<g clip-path="url(#clip0_201_5567)">
<path d="M31.5339 13.2932C31.7715 12.6734 31.9047 11.9956 31.9047 11.2888C31.9047 8.21844 29.4137 5.72739 26.3433 5.72739C25.202 5.72739 24.1361 6.07498 23.2555 6.66588C21.6508 3.88517 18.6558 2.01978 15.2205 2.01978C10.0993 2.01978 5.95143 6.16767 5.95143 11.2888C5.95143 11.4452 5.95722 11.6016 5.96302 11.758C2.71886 12.8993 0.390015 15.9928 0.390015 19.6309C0.390015 24.2365 4.12659 27.9731 8.73214 27.9731H30.0509C34.1467 27.9731 37.4661 24.6536 37.4661 20.5578C37.4661 16.9719 34.9171 13.9768 31.5339 13.2932Z" fill="black"/>
</g>
<defs>
<clipPath id="clip0_201_5567">
<rect width="37.0761" height="29.6609" fill="white" transform="translate(0.390015 0.165771)"/>
</clipPath>
</defs>
</svg>
