<svg width="31" height="31" viewBox="0 0 31 31" fill="none" xmlns="http://www.w3.org/2000/svg">
<g clip-path="url(#clip0_201_5577)">
<path d="M24.7892 8.242C24.7544 8.242 24.7254 8.25359 24.6965 8.25359C24.7602 7.95235 24.7892 7.63952 24.7892 7.3151C24.7892 4.75453 22.7152 2.68059 20.1547 2.68059C18.7295 2.68059 17.4724 3.33521 16.6208 4.34901C15.5433 2.26348 13.3941 0.826782 10.8856 0.826782C7.29967 0.826782 4.39731 3.72915 4.39731 7.3151C4.39731 7.738 4.44365 8.14352 4.51896 8.54325C2.30019 9.27318 0.689697 11.3413 0.689697 13.8034C0.689697 16.8738 3.18075 19.3648 6.25111 19.3648H24.7892C27.8595 19.3648 30.3506 16.8738 30.3506 13.8034C30.3506 10.7331 27.8595 8.242 24.7892 8.242ZM5.78766 22.5047C5.04614 25.0769 3.47041 25.7721 3.47041 27.5853C3.47041 29.19 4.71593 30.4877 6.25111 30.4877C7.7863 30.4877 9.03182 29.19 9.03182 27.5853C9.03182 25.7663 7.45609 25.0885 6.71457 22.5047C6.58712 22.0355 5.93249 22.0123 5.78766 22.5047ZM15.0567 22.5047C14.3152 25.0769 12.7394 25.7721 12.7394 27.5853C12.7394 29.19 13.985 30.4877 15.5201 30.4877C17.0553 30.4877 18.3008 29.19 18.3008 27.5853C18.3008 25.7663 16.7251 25.0885 15.9836 22.5047C15.8561 22.0355 15.2015 22.0123 15.0567 22.5047ZM24.3257 22.5047C23.5842 25.0769 22.0085 25.7721 22.0085 27.5853C22.0085 29.19 23.254 30.4877 24.7892 30.4877C26.3244 30.4877 27.5699 29.19 27.5699 27.5853C27.5699 25.7663 25.9941 25.0885 25.2526 22.5047C25.1252 22.0355 24.4705 22.0123 24.3257 22.5047Z" fill="black"/>
</g>
<defs>
<clipPath id="clip0_201_5577">
<rect width="29.6609" height="29.6609" fill="white" transform="translate(0.689453 0.82666)"/>
</clipPath>
</defs>
</svg>
