<svg width="38" height="30" viewBox="0 0 38 30" fill="none" xmlns="http://www.w3.org/2000/svg">
<g clip-path="url(#clip0_201_5561)">
<path d="M16.3664 29.7977L12.8326 28.7724C12.4618 28.6681 12.2533 28.2799 12.3576 27.9092L20.2652 0.669819C20.3695 0.299057 20.7576 0.0905043 21.1284 0.194781L24.6622 1.22017C25.0329 1.32444 25.2415 1.71258 25.1372 2.08335L17.2296 29.3227C17.1195 29.6935 16.7372 29.9078 16.3664 29.7977ZM9.76223 23.2978L12.2822 20.6098C12.5487 20.326 12.5313 19.8741 12.2359 19.6134L6.98731 14.9963L12.2359 10.3791C12.5313 10.1184 12.5545 9.66657 12.2822 9.38271L9.76223 6.69469C9.50153 6.41662 9.06125 6.39924 8.77739 6.66572L0.429473 14.4865C0.134023 14.7587 0.134023 15.228 0.429473 15.5003L8.77739 23.3268C9.06125 23.5933 9.50153 23.5817 9.76223 23.2978ZM28.7174 23.3326L37.0653 15.5061C37.3608 15.2338 37.3608 14.7645 37.0653 14.4923L28.7174 6.65993C28.4393 6.39924 27.999 6.41082 27.7326 6.68889L25.2125 9.37691C24.9461 9.66078 24.9634 10.1126 25.2589 10.3733L30.5075 14.9963L25.2589 19.6134C24.9634 19.8741 24.9403 20.326 25.2125 20.6098L27.7326 23.2978C27.9932 23.5817 28.4335 23.5933 28.7174 23.3326Z" fill="black"/>
</g>
<defs>
<clipPath id="clip0_201_5561">
<rect width="37.0761" height="29.6609" fill="white" transform="translate(0.209717 0.165771)"/>
</clipPath>
</defs>
</svg>
