<svg width="23" height="30" viewBox="0 0 23 30" fill="none" xmlns="http://www.w3.org/2000/svg">
<g clip-path="url(#clip0_201_5563)">
<path d="M22.3615 8.50802C22.3615 5.94745 20.2876 3.8735 17.727 3.8735C15.1664 3.8735 13.0925 5.94745 13.0925 8.50802C13.0925 10.6167 14.5002 12.3952 16.4235 12.9572C16.3888 13.8898 16.1802 14.6082 15.7863 15.0948C14.8942 16.2071 12.9303 16.3925 10.8505 16.5837C9.21687 16.7343 7.52527 16.8965 6.14071 17.5627V9.22058C8.02348 8.62967 9.38487 6.87435 9.38487 4.80041C9.38487 2.23984 7.31093 0.165894 4.75036 0.165894C2.18979 0.165894 0.115845 2.23984 0.115845 4.80041C0.115845 6.87435 1.47723 8.62967 3.36 9.22058V20.7663C1.47723 21.363 0.115845 23.1183 0.115845 25.1923C0.115845 27.7528 2.18979 29.8268 4.75036 29.8268C7.31093 29.8268 9.38487 27.7528 9.38487 25.1923C9.38487 23.2226 8.15673 21.5368 6.41878 20.8706C6.59837 20.5693 6.87065 20.3029 7.28196 20.0943C8.22045 19.6193 9.62239 19.4918 11.1112 19.3528C13.5559 19.1268 16.3251 18.8662 17.9587 16.8386C18.7698 15.8305 19.1811 14.5329 19.21 12.905C21.0407 12.2794 22.3615 10.5472 22.3615 8.50802ZM4.75036 3.8735C5.26016 3.8735 5.67726 4.29061 5.67726 4.80041C5.67726 5.3102 5.26016 5.72731 4.75036 5.72731C4.24056 5.72731 3.82346 5.3102 3.82346 4.80041C3.82346 4.29061 4.24056 3.8735 4.75036 3.8735ZM4.75036 26.1192C4.24056 26.1192 3.82346 25.7021 3.82346 25.1923C3.82346 24.6825 4.24056 24.2654 4.75036 24.2654C5.26016 24.2654 5.67726 24.6825 5.67726 25.1923C5.67726 25.7021 5.26016 26.1192 4.75036 26.1192ZM17.727 7.58112C18.2368 7.58112 18.6539 7.99822 18.6539 8.50802C18.6539 9.01781 18.2368 9.43492 17.727 9.43492C17.2172 9.43492 16.8001 9.01781 16.8001 8.50802C16.8001 7.99822 17.2172 7.58112 17.727 7.58112Z" fill="black"/>
</g>
<defs>
<clipPath id="clip0_201_5563">
<rect width="22.2457" height="29.6609" fill="white" transform="translate(0.115845 0.165771)"/>
</clipPath>
</defs>
</svg>
