<svg width="38" height="30" viewBox="0 0 38 30" fill="none" xmlns="http://www.w3.org/2000/svg">
<g clip-path="url(#clip0_201_5559)">
<path d="M11.4265 22.4113H22.5493C25.6197 22.4113 28.1107 19.9202 28.1107 16.8499H29.9645C34.0545 16.8499 37.3798 13.5246 37.3798 9.43463C37.3798 5.34467 34.0545 2.01941 29.9645 2.01941H7.25542C6.48494 2.01941 5.86507 2.63928 5.86507 3.40976V16.8499C5.86507 19.9202 8.35612 22.4113 11.4265 22.4113ZM29.9645 5.72702C32.0095 5.72702 33.6722 7.38965 33.6722 9.43463C33.6722 11.4796 32.0095 13.1422 29.9645 13.1422H28.1107V5.72702H29.9645ZM32.7279 27.9727H3.10174C0.344206 27.9727 -0.432075 24.2651 1.01621 24.2651H34.8076C36.2559 24.2651 35.4912 27.9727 32.7279 27.9727Z" fill="black"/>
</g>
<defs>
<clipPath id="clip0_201_5559">
<rect width="37.0761" height="29.6609" fill="white" transform="translate(0.303589 0.165771)"/>
</clipPath>
</defs>
</svg>
