<svg width="38" height="30" viewBox="0 0 38 30" fill="none" xmlns="http://www.w3.org/2000/svg">
<g clip-path="url(#clip0_201_5555)">
<path d="M30.5728 11.2306L30.0978 12.0591C29.924 12.3661 29.5532 12.4935 29.223 12.3719C28.5394 12.117 27.9138 11.752 27.3634 11.2944C27.0969 11.0742 27.0274 10.6861 27.2012 10.3848L27.6762 9.55642C27.2765 9.09296 26.9637 8.5542 26.7551 7.96909H25.7993C25.4517 7.96909 25.1504 7.71999 25.0925 7.3724C24.9766 6.67722 24.9708 5.94729 25.0925 5.22314C25.1504 4.87556 25.4517 4.62066 25.7993 4.62066H26.7551C26.9637 4.03555 27.2765 3.49679 27.6762 3.03334L27.2012 2.20492C27.0274 1.90367 27.0911 1.51553 27.3634 1.29539C27.9138 0.837735 28.5452 0.472767 29.223 0.217869C29.5532 0.096213 29.924 0.223662 30.0978 0.530699L30.5728 1.35912C31.1811 1.24905 31.801 1.24905 32.4092 1.35912L32.8843 0.530699C33.0581 0.223662 33.4288 0.096213 33.759 0.217869C34.4426 0.472767 35.0683 0.837735 35.6186 1.29539C35.8851 1.51553 35.9546 1.90367 35.7808 2.20492L35.3058 3.03334C35.7055 3.49679 36.0184 4.03555 36.2269 4.62066H37.1828C37.5304 4.62066 37.8316 4.86976 37.8895 5.21735C38.0054 5.91253 38.0112 6.64246 37.8895 7.36661C37.8316 7.7142 37.5304 7.96909 37.1828 7.96909H36.2269C36.0184 8.5542 35.7055 9.09296 35.3058 9.55642L35.7808 10.3848C35.9546 10.6861 35.8909 11.0742 35.6186 11.2944C35.0683 11.752 34.4368 12.117 33.759 12.3719C33.4288 12.4935 33.0581 12.3661 32.8843 12.0591L32.4092 11.2306C31.8067 11.3407 31.1811 11.3407 30.5728 11.2306ZM29.9645 7.82427C32.1949 9.53904 34.7381 6.99585 33.0233 4.76549C30.7929 3.04492 28.2498 5.59391 29.9645 7.82427ZM23.285 16.7399L25.2373 17.7132C25.8224 18.0492 26.0773 18.7617 25.8456 19.399C25.33 20.8009 24.3162 22.087 23.3777 23.2109C22.949 23.7264 22.2075 23.8539 21.6224 23.5179L19.9366 22.5446C19.0097 23.3383 17.9322 23.9698 16.7562 24.3811V26.3276C16.7562 26.9996 16.2753 27.5789 15.6149 27.6947C14.1898 27.9381 12.6952 27.9496 11.2179 27.6947C10.5517 27.5789 10.0593 27.0054 10.0593 26.3276V24.3811C8.88328 23.964 7.80576 23.3383 6.87885 22.5446L5.19305 23.5121C4.61373 23.8481 3.86642 23.7206 3.43773 23.2051C2.49924 22.0812 1.50861 20.7951 0.99302 19.399C0.761294 18.7675 1.01619 18.055 1.6013 17.7132L3.53042 16.7399C3.30448 15.5291 3.30448 14.2836 3.53042 13.0671L1.6013 12.088C1.01619 11.752 0.755501 11.0395 0.99302 10.408C1.50861 9.00607 2.49924 7.71999 3.43773 6.59612C3.86642 6.08053 4.60794 5.95308 5.19305 6.28908L6.87885 7.26233C7.80576 6.46867 8.88328 5.83722 10.0593 5.4259V3.47362C10.0593 2.8074 10.5343 2.22809 11.1947 2.11223C12.6199 1.86891 14.1203 1.85733 15.5975 2.10643C16.2637 2.2223 16.7562 2.79582 16.7562 3.47362V5.42011C17.9322 5.83722 19.0097 6.46288 19.9366 7.25654L21.6224 6.28329C22.2017 5.94729 22.949 6.07474 23.3777 6.59033C24.3162 7.7142 25.301 9.00027 25.8166 10.4022C26.0484 11.0337 25.8224 11.7462 25.2373 12.088L23.285 13.0613C23.511 14.2778 23.511 15.5234 23.285 16.7399ZM16.4723 17.9623C19.9018 13.5015 14.8097 8.40937 10.3489 11.8389C6.9194 16.2996 12.0116 21.3918 16.4723 17.9623ZM30.5728 28.5463L30.0978 29.3748C29.924 29.6818 29.5532 29.8092 29.223 29.6876C28.5394 29.4327 27.9138 29.0677 27.3634 28.6101C27.0969 28.3899 27.0274 28.0018 27.2012 27.7005L27.6762 26.8721C27.2765 26.4087 26.9637 25.8699 26.7551 25.2848H25.7993C25.4517 25.2848 25.1504 25.0357 25.0925 24.6881C24.9766 23.9929 24.9708 23.263 25.0925 22.5388C25.1504 22.1913 25.4517 21.9364 25.7993 21.9364H26.7551C26.9637 21.3513 27.2765 20.8125 27.6762 20.349L27.2012 19.5206C27.0274 19.2194 27.0911 18.8312 27.3634 18.6111C27.9138 18.1534 28.5452 17.7885 29.223 17.5336C29.5532 17.4119 29.924 17.5394 30.0978 17.8464L30.5728 18.6748C31.1811 18.5648 31.801 18.5648 32.4092 18.6748L32.8843 17.8464C33.0581 17.5394 33.4288 17.4119 33.759 17.5336C34.4426 17.7885 35.0683 18.1534 35.6186 18.6111C35.8851 18.8312 35.9546 19.2194 35.7808 19.5206L35.3058 20.349C35.7055 20.8125 36.0184 21.3513 36.2269 21.9364H37.1828C37.5304 21.9364 37.8316 22.1855 37.8895 22.5331C38.0054 23.2282 38.0112 23.9582 37.8895 24.6823C37.8316 25.0299 37.5304 25.2848 37.1828 25.2848H36.2269C36.0184 25.8699 35.7055 26.4087 35.3058 26.8721L35.7808 27.7005C35.9546 28.0018 35.8909 28.3899 35.6186 28.6101C35.0683 29.0677 34.4368 29.4327 33.759 29.6876C33.4288 29.8092 33.0581 29.6818 32.8843 29.3748L32.4092 28.5463C31.8067 28.6564 31.1811 28.6564 30.5728 28.5463ZM29.9645 25.1342C32.1949 26.8489 34.7381 24.3058 33.0233 22.0754C30.7929 20.3606 28.2498 22.9038 29.9645 25.1342Z" fill="black"/>
</g>
<defs>
<clipPath id="clip0_201_5555">
<rect width="37.0761" height="29.6609" fill="white" transform="translate(0.906616 0.165771)"/>
</clipPath>
</defs>
</svg>
