<svg width="31" height="30" viewBox="0 0 31 30" fill="none" xmlns="http://www.w3.org/2000/svg">
<g clip-path="url(#clip0_201_5553)">
<path d="M0.415771 23.6455V26.1192C0.415771 28.1642 5.39787 29.8268 11.5386 29.8268C17.6793 29.8268 22.6614 28.1642 22.6614 26.1192V23.6455C20.2689 25.3313 15.895 26.1192 11.5386 26.1192C7.18216 26.1192 2.80834 25.3313 0.415771 23.6455ZM18.9538 7.58112C25.0946 7.58112 30.0767 5.91848 30.0767 3.8735C30.0767 1.82853 25.0946 0.165894 18.9538 0.165894C12.8131 0.165894 7.83099 1.82853 7.83099 3.8735C7.83099 5.91848 12.8131 7.58112 18.9538 7.58112ZM0.415771 17.5685V20.5578C0.415771 22.6027 5.39787 24.2654 11.5386 24.2654C17.6793 24.2654 22.6614 22.6027 22.6614 20.5578V17.5685C20.2689 19.5382 15.8893 20.5578 11.5386 20.5578C7.18795 20.5578 2.80834 19.5382 0.415771 17.5685ZM24.5152 18.2057C27.8347 17.5627 30.0767 16.3693 30.0767 14.9963V12.5227C28.7327 13.4727 26.7572 14.1216 24.5152 14.5213V18.2057ZM11.5386 9.43492C5.39787 9.43492 0.415771 11.5089 0.415771 14.0694C0.415771 16.63 5.39787 18.7039 11.5386 18.7039C17.6793 18.7039 22.6614 16.63 22.6614 14.0694C22.6614 11.5089 17.6793 9.43492 11.5386 9.43492ZM24.243 12.6965C27.7189 12.0708 30.0767 10.8427 30.0767 9.43492V6.96125C28.0201 8.41533 24.4863 9.1974 20.7671 9.38278C22.4761 10.2112 23.7332 11.3235 24.243 12.6965Z" fill="black"/>
</g>
<defs>
<clipPath id="clip0_201_5553">
<rect width="29.6609" height="29.6609" fill="white" transform="translate(0.415771 0.165771)"/>
</clipPath>
</defs>
</svg>
