<svg width="31" height="30" viewBox="0 0 31 30" fill="none" xmlns="http://www.w3.org/2000/svg">
<g clip-path="url(#clip0_201_5539)">
<path d="M15.3947 2.01941C7.20315 2.01941 0.564209 7.41282 0.564209 14.0691C0.564209 16.9425 1.80394 19.5726 3.8663 21.6408C3.14216 24.5605 0.720624 27.1616 0.691658 27.1906C0.564209 27.3239 0.52945 27.5208 0.604761 27.6946C0.680072 27.8684 0.84228 27.9727 1.02766 27.9727C4.86851 27.9727 7.74771 26.1305 9.17282 24.995C11.0672 25.7076 13.1701 26.1189 15.3947 26.1189C23.5862 26.1189 30.2251 20.7255 30.2251 14.0691C30.2251 7.41282 23.5862 2.01941 15.3947 2.01941Z" fill="black"/>
</g>
<defs>
<clipPath id="clip0_201_5539">
<rect width="29.6609" height="29.6609" fill="white" transform="translate(0.564209 0.165771)"/>
</clipPath>
</defs>
</svg>
