<svg width="31" height="30" viewBox="0 0 31 30" fill="none" xmlns="http://www.w3.org/2000/svg">
<g clip-path="url(#clip0_201_5543)">
<path d="M15.7915 2.01941C7.60116 2.01941 0.96106 7.41398 0.96106 14.0691C0.96106 16.9402 2.20137 19.5726 4.26315 21.6431C3.53669 24.5576 1.11747 27.1616 1.08851 27.1906C1.02627 27.2564 0.984642 27.3389 0.968778 27.428C0.952914 27.5172 0.963506 27.609 0.999244 27.6922C1.03498 27.7754 1.0943 27.8463 1.16988 27.8961C1.24545 27.946 1.33398 27.9726 1.42451 27.9727C5.26305 27.9727 8.14456 26.1334 9.56967 24.9962C11.5591 25.7418 13.6669 26.1222 15.7915 26.1189C23.9824 26.1189 30.6219 20.7243 30.6219 14.0691C30.6219 7.41398 23.9824 2.01941 15.7915 2.01941ZM21.3529 15.4595C21.3529 15.5824 21.3041 15.7003 21.2172 15.7872C21.1303 15.8741 21.0124 15.923 20.8895 15.923H17.6453V19.1671C17.6453 19.29 17.5965 19.4079 17.5096 19.4948C17.4227 19.5817 17.3048 19.6306 17.1819 19.6306H14.4011C14.2782 19.6306 14.1604 19.5817 14.0734 19.4948C13.9865 19.4079 13.9377 19.29 13.9377 19.1671V15.923H10.6935C10.5706 15.923 10.4527 15.8741 10.3658 15.7872C10.2789 15.7003 10.2301 15.5824 10.2301 15.4595V12.6788C10.2301 12.5559 10.2789 12.438 10.3658 12.3511C10.4527 12.2642 10.5706 12.2153 10.6935 12.2153H13.9377V8.97118C13.9377 8.84827 13.9865 8.73038 14.0734 8.64347C14.1604 8.55656 14.2782 8.50773 14.4011 8.50773H17.1819C17.3048 8.50773 17.4227 8.55656 17.5096 8.64347C17.5965 8.73038 17.6453 8.84827 17.6453 8.97118V12.2153H20.8895C21.0124 12.2153 21.1303 12.2642 21.2172 12.3511C21.3041 12.438 21.3529 12.5559 21.3529 12.6788V15.4595Z" fill="black"/>
</g>
<defs>
<clipPath id="clip0_201_5543">
<rect width="29.6609" height="29.6609" fill="white" transform="translate(0.961182 0.165771)"/>
</clipPath>
</defs>
</svg>
