<svg width="31" height="30" viewBox="0 0 31 30" fill="none" xmlns="http://www.w3.org/2000/svg">
<g clip-path="url(#clip0_201_5545)">
<path d="M15.2827 2.01941C7.09121 2.01941 0.452271 7.41282 0.452271 14.0691C0.452271 16.9425 1.692 19.5726 3.75436 21.6408C3.03022 24.5605 0.608685 27.1616 0.57972 27.1906C0.452271 27.3239 0.417512 27.5208 0.492823 27.6946C0.568133 27.8684 0.730341 27.9727 0.915722 27.9727C4.75658 27.9727 7.63577 26.1305 9.06088 24.995C10.9552 25.7076 13.0581 26.1189 15.2827 26.1189C23.4742 26.1189 30.1132 20.7255 30.1132 14.0691C30.1132 7.41282 23.4742 2.01941 15.2827 2.01941ZM7.86749 15.923C6.84211 15.923 6.01369 15.0945 6.01369 14.0691C6.01369 13.0438 6.84211 12.2153 7.86749 12.2153C8.89288 12.2153 9.7213 13.0438 9.7213 14.0691C9.7213 15.0945 8.89288 15.923 7.86749 15.923ZM15.2827 15.923C14.2573 15.923 13.4289 15.0945 13.4289 14.0691C13.4289 13.0438 14.2573 12.2153 15.2827 12.2153C16.3081 12.2153 17.1365 13.0438 17.1365 14.0691C17.1365 15.0945 16.3081 15.923 15.2827 15.923ZM22.6979 15.923C21.6726 15.923 20.8441 15.0945 20.8441 14.0691C20.8441 13.0438 21.6726 12.2153 22.6979 12.2153C23.7233 12.2153 24.5517 13.0438 24.5517 14.0691C24.5517 15.0945 23.7233 15.923 22.6979 15.923Z" fill="black"/>
</g>
<defs>
<clipPath id="clip0_201_5545">
<rect width="29.6609" height="29.6609" fill="white" transform="translate(0.452148 0.165771)"/>
</clipPath>
</defs>
</svg>
