<svg width="38" height="30" viewBox="0 0 38 30" fill="none" xmlns="http://www.w3.org/2000/svg">
<g clip-path="url(#clip0_201_5541)">
<path d="M3.76194 14.0692C3.76194 16.9426 5.00167 19.5727 7.06403 21.6408C6.33409 24.5548 3.91835 27.1559 3.88938 27.1907C3.76194 27.3239 3.72718 27.5209 3.80249 27.6947C3.8778 27.8627 4.04001 27.9727 4.22539 27.9727C8.06624 27.9727 10.9454 26.1305 12.3705 24.9951C14.2649 25.7076 16.3678 26.1189 18.5924 26.1189C20.1797 26.1189 21.7033 25.9104 23.1342 25.5396L4.27753 10.9641C3.95311 11.9547 3.76194 12.9917 3.76194 14.0692ZM36.7713 26.704L30.1439 21.5829C32.1831 19.5205 33.4228 16.9194 33.4228 14.0692C33.4228 7.41287 26.7839 2.01946 18.5924 2.01946C14.821 2.01946 11.3973 3.18388 8.7788 5.07244L2.6902 0.362619C2.28468 0.0497896 1.70537 0.119307 1.38675 0.524827L0.251291 1.9847C-0.0615386 2.39022 0.00797912 2.96953 0.413499 3.28236L34.5004 29.6238C34.9059 29.9366 35.4852 29.8671 35.8038 29.4616L36.9393 27.9959C37.2521 27.602 37.1768 27.0169 36.7713 26.704Z" fill="black"/>
</g>
<defs>
<clipPath id="clip0_201_5541">
<rect width="37.0761" height="29.6609" fill="white" transform="translate(0.0551758 0.165771)"/>
</clipPath>
</defs>
</svg>
