<svg width="31" height="30" viewBox="0 0 31 30" fill="none" xmlns="http://www.w3.org/2000/svg">
<g clip-path="url(#clip0_201_5547)">
<path d="M15.7745 2.01941C7.58419 2.01941 0.944092 7.41398 0.944092 14.0691C0.944092 16.9402 2.1844 19.5732 4.24734 21.6431C3.51972 24.5576 1.10051 27.1599 1.07154 27.1906C1.00916 27.2563 0.96742 27.3389 0.951481 27.428C0.935542 27.5172 0.946108 27.6091 0.981869 27.6924C1.01763 27.7756 1.07702 27.8465 1.15268 27.8963C1.22834 27.9462 1.31695 27.9727 1.40754 27.9727C5.24608 27.9727 8.12701 26.1334 9.5527 24.9962C11.4465 25.7093 13.5494 26.1189 15.7745 26.1189C23.9649 26.1189 30.605 20.7243 30.605 14.0691C30.605 7.41398 23.9649 2.01941 15.7745 2.01941ZM17.1649 19.5402V20.5575C17.1649 21.0696 16.7501 21.4844 16.238 21.4844H15.3111C14.799 21.4844 14.3842 21.0696 14.3842 20.5575V19.5303C13.7226 19.4521 13.0935 19.2297 12.5431 18.8664C12.1828 18.6283 12.148 18.107 12.4533 17.8017L13.4683 16.7867C13.6849 16.57 14.0076 16.5411 14.2857 16.6691C14.4699 16.7537 14.6715 16.7977 14.8801 16.7977H16.7791C17.049 16.7977 17.268 16.5787 17.268 16.3099C17.268 16.0927 17.122 15.8998 16.9135 15.8401L14.0128 15.0117C12.7239 14.6438 11.695 13.5802 11.527 12.2501C11.2924 10.3922 12.6294 8.80723 14.3842 8.59752V7.58083C14.3842 7.06871 14.799 6.65392 15.3111 6.65392H16.238C16.7501 6.65392 17.1649 7.06871 17.1649 7.58083V8.60795C17.8265 8.68616 18.4556 8.90861 19.006 9.27184C19.3663 9.50994 19.401 10.0313 19.0957 10.3366L18.0808 11.3516C17.8641 11.5682 17.5414 11.5972 17.2634 11.4692C17.0769 11.3839 16.8741 11.34 16.669 11.3406H14.77C14.5 11.3406 14.2811 11.5596 14.2811 11.8284C14.2811 12.0456 14.4271 12.2385 14.6356 12.2982L17.5362 13.1266C18.8252 13.495 19.8541 14.5581 20.0221 15.8882C20.2567 17.7455 18.9196 19.3305 17.1649 19.5402Z" fill="black"/>
</g>
<defs>
<clipPath id="clip0_201_5547">
<rect width="29.6609" height="29.6609" fill="white" transform="translate(0.943115 0.165771)"/>
</clipPath>
</defs>
</svg>
