<svg width="34" height="30" viewBox="0 0 34 30" fill="none" xmlns="http://www.w3.org/2000/svg">
<g clip-path="url(#clip0_201_5535)">
<path d="M24.2665 11.2884C24.2665 6.1673 18.873 2.01941 12.2167 2.01941C5.56041 2.01941 0.166992 6.1673 0.166992 11.2884C0.166992 13.2755 0.983825 15.1061 2.36839 16.6181C1.59211 18.3677 0.311821 19.758 0.294441 19.7754C0.166992 19.9086 0.132233 20.1056 0.207544 20.2794C0.282855 20.4532 0.445063 20.5575 0.630444 20.5575C2.75073 20.5575 4.50606 19.8449 5.76896 19.1092C7.63435 20.0187 9.84154 20.5575 12.2167 20.5575C18.873 20.5575 24.2665 16.4096 24.2665 11.2884ZM31.3341 24.0333C32.7187 22.5271 33.5355 20.6907 33.5355 18.7037C33.5355 14.828 30.4362 11.5086 26.045 10.124C26.0971 10.5064 26.1203 10.8945 26.1203 11.2884C26.1203 17.4234 19.8811 22.4113 12.2167 22.4113C11.5911 22.4113 10.9828 22.3649 10.3803 22.3012C12.2051 25.6323 16.4921 27.9727 21.4858 27.9727C23.8609 27.9727 26.0681 27.4397 27.9335 26.5244C29.1964 27.2601 30.9517 27.9727 33.072 27.9727C33.2574 27.9727 33.4254 27.8626 33.4949 27.6946C33.5703 27.5266 33.5355 27.3296 33.408 27.1906C33.3907 27.1732 32.1104 25.7887 31.3341 24.0333Z" fill="black"/>
</g>
<defs>
<clipPath id="clip0_201_5535">
<rect width="33.3685" height="29.6609" fill="white" transform="translate(0.167236 0.165771)"/>
</clipPath>
</defs>
</svg>
