<svg width="27" height="30" viewBox="0 0 27 30" fill="none" xmlns="http://www.w3.org/2000/svg">
<g clip-path="url(#clip0_201_5525)">
<path d="M26.2399 11.2884H19.0564C18.2859 11.2884 17.6661 10.6686 17.6661 9.89808V2.71459C17.6661 2.33224 17.9789 2.01941 18.3612 2.01941H20.6785C21.0608 2.01941 21.3737 2.33224 21.3737 2.71459V7.58083H26.2399C26.6223 7.58083 26.9351 7.89366 26.9351 8.276V10.5933C26.9351 10.9756 26.6223 11.2884 26.2399 11.2884ZM10.2508 9.89808V2.71459C10.2508 2.33224 9.93801 2.01941 9.55566 2.01941H7.23841C6.85606 2.01941 6.54323 2.33224 6.54323 2.71459V7.58083H1.67699C1.29464 7.58083 0.981812 7.89366 0.981812 8.276V10.5933C0.981812 10.9756 1.29464 11.2884 1.67699 11.2884H8.86049C9.63097 11.2884 10.2508 10.6686 10.2508 9.89808ZM10.2508 27.2775V20.094C10.2508 19.3235 9.63097 18.7037 8.86049 18.7037H1.67699C1.29464 18.7037 0.981812 19.0165 0.981812 19.3988V21.7161C0.981812 22.0984 1.29464 22.4113 1.67699 22.4113H6.54323V27.2775C6.54323 27.6599 6.85606 27.9727 7.23841 27.9727H9.55566C9.93801 27.9727 10.2508 27.6599 10.2508 27.2775ZM21.3737 27.2775V22.4113H26.2399C26.6223 22.4113 26.9351 22.0984 26.9351 21.7161V19.3988C26.9351 19.0165 26.6223 18.7037 26.2399 18.7037H19.0564C18.2859 18.7037 17.6661 19.3235 17.6661 20.094V27.2775C17.6661 27.6599 17.9789 27.9727 18.3612 27.9727H20.6785C21.0608 27.9727 21.3737 27.6599 21.3737 27.2775Z" fill="black"/>
</g>
<defs>
<clipPath id="clip0_201_5525">
<rect width="25.9533" height="29.6609" fill="white" transform="translate(0.981812 0.165771)"/>
</clipPath>
</defs>
</svg>
