<svg width="30" height="30" viewBox="0 0 30 30" fill="none" xmlns="http://www.w3.org/2000/svg">
<g clip-path="url(#clip0_201_5533)">
<path d="M14.9703 0.629272C7.03366 0.629272 0.603271 7.05966 0.603271 14.9963C0.603271 22.9329 7.03366 29.3633 14.9703 29.3633C22.9069 29.3633 29.3373 22.9329 29.3373 14.9963C29.3373 7.05966 22.9069 0.629272 14.9703 0.629272ZM5.70124 14.9963H3.84743C3.84743 8.86133 8.83533 3.87343 14.9703 3.87343V5.72724C9.86071 5.72724 5.70124 9.88671 5.70124 14.9963ZM14.9703 20.5577C11.8999 20.5577 9.40885 18.0666 9.40885 14.9963C9.40885 11.9259 11.8999 9.43485 14.9703 9.43485C18.0406 9.43485 20.5317 11.9259 20.5317 14.9963C20.5317 18.0666 18.0406 20.5577 14.9703 20.5577ZM14.9703 13.1425C13.9449 13.1425 13.1165 13.9709 13.1165 14.9963C13.1165 16.0217 13.9449 16.8501 14.9703 16.8501C15.9957 16.8501 16.8241 16.0217 16.8241 14.9963C16.8241 13.9709 15.9957 13.1425 14.9703 13.1425Z" fill="black"/>
</g>
<defs>
<clipPath id="clip0_201_5533">
<rect width="28.734" height="29.6609" fill="white" transform="translate(0.603271 0.165771)"/>
</clipPath>
</defs>
</svg>
