<svg width="31" height="30" viewBox="0 0 31 30" fill="none" xmlns="http://www.w3.org/2000/svg">
<g clip-path="url(#clip0_201_5527)">
<path d="M12.3517 16.8502H5.86338C4.62365 16.8502 4.00378 18.3448 4.87854 19.2254L6.78449 21.0212L1.03769 26.7738C0.678517 27.133 0.678517 27.7239 1.03769 28.0831L2.50915 29.5545C2.86832 29.9137 3.45923 29.9137 3.8184 29.5545L9.57099 23.8019L11.3727 25.7137C12.2474 26.5884 13.7421 25.9686 13.7421 24.7289V18.2405C13.7421 17.47 13.1222 16.8502 12.3517 16.8502ZM18.84 13.1426H25.3283C26.5681 13.1426 27.1879 11.6421 26.3132 10.7674L24.4014 8.9715L30.154 3.21891C30.5132 2.85974 30.5132 2.26884 30.154 1.90966L28.6826 0.438204C28.3234 0.0790295 27.7325 0.0790295 27.3733 0.438204L21.6207 6.19079L19.8191 4.27906C18.9443 3.40429 17.4497 4.02416 17.4497 5.26389V11.7522C17.4497 12.5227 18.0695 13.1426 18.84 13.1426ZM24.4014 21.0212L26.3132 19.2196C27.1879 18.3448 26.5681 16.8502 25.3283 16.8502H18.84C18.0695 16.8502 17.4497 17.47 17.4497 18.2405V24.7289C17.4497 25.9686 18.9501 26.5884 19.8249 25.7137L21.6207 23.8077L27.3733 29.5603C27.7325 29.9195 28.3234 29.9195 28.6826 29.5603L30.154 28.0889C30.5132 27.7297 30.5132 27.1388 30.154 26.7796L24.4014 21.0212ZM11.3669 4.28485L9.57099 6.19079L3.8184 0.438204C3.45923 0.0790295 2.86832 0.0790295 2.50915 0.438204L1.03769 1.90966C0.678517 2.26884 0.678517 2.85974 1.03769 3.21891L6.79028 8.9715L4.87854 10.7732C4.00378 11.6479 4.62365 13.1426 5.86338 13.1426H12.3517C13.1222 13.1426 13.7421 12.5227 13.7421 11.7522V5.26389C13.7421 4.02995 12.2416 3.41009 11.3669 4.28485Z" fill="black"/>
</g>
<defs>
<clipPath id="clip0_201_5527">
<rect width="29.6609" height="29.6609" fill="white" transform="translate(0.765137 0.165771)"/>
</clipPath>
</defs>
</svg>
