<svg width="30" height="31" viewBox="0 0 30 31" fill="none" xmlns="http://www.w3.org/2000/svg">
<g clip-path="url(#clip0_201_5519)">
<path d="M29.8904 15.2654L29.1906 10.8476C28.9372 9.24692 28.1836 7.76757 27.0379 6.62146L23.8655 3.44971C22.7226 2.3073 21.2482 1.55535 19.6534 1.30335L15.21 0.599484C13.6163 0.346903 11.9838 0.605856 10.5454 1.33869L6.54116 3.37845C5.09964 4.1131 3.9277 5.28525 3.1933 6.72689L1.15991 10.7172C0.423471 12.1626 0.163491 13.804 0.417224 15.4062L1.11704 19.8246C1.37048 21.4252 2.12404 22.9046 3.26977 24.0507L6.44209 27.2225C7.58441 28.3646 9.05887 29.1159 10.6543 29.3688L15.0976 30.0721C16.6913 30.3247 18.3238 30.0657 19.7623 29.3335L23.7665 27.2937C25.2079 26.5589 26.3798 25.3868 27.1143 23.9453L29.1477 19.9555C29.884 18.5096 30.1442 16.8678 29.8904 15.2654ZM10.5199 21.8238C9.49624 21.8238 8.66608 20.9937 8.66608 19.97C8.66608 18.9464 9.49624 18.1162 10.5199 18.1162C11.5435 18.1162 12.3737 18.9464 12.3737 19.97C12.3737 20.9937 11.5435 21.8238 10.5199 21.8238ZM12.3737 12.5548C11.35 12.5548 10.5199 11.7246 10.5199 10.701C10.5199 9.67734 11.35 8.84718 12.3737 8.84718C13.3973 8.84718 14.2275 9.67734 14.2275 10.701C14.2275 11.7246 13.3973 12.5548 12.3737 12.5548ZM21.6427 19.97C20.6191 19.97 19.7889 19.1399 19.7889 18.1162C19.7889 17.0926 20.6191 16.2624 21.6427 16.2624C22.6664 16.2624 23.4965 17.0926 23.4965 18.1162C23.4965 19.1399 22.6664 19.97 21.6427 19.97Z" fill="black"/>
</g>
<defs>
<clipPath id="clip0_201_5519">
<rect width="29.6609" height="29.6609" fill="white" transform="translate(0.324463 0.504883)"/>
</clipPath>
</defs>
</svg>
