<svg width="30" height="31" viewBox="0 0 30 31" fill="none" xmlns="http://www.w3.org/2000/svg">
<g clip-path="url(#clip0_201_5515)">
<path d="M14.8812 0.968384C6.94646 0.968384 0.51416 7.40068 0.51416 15.3354C0.51416 23.2701 6.94646 29.7024 14.8812 29.7024C22.8158 29.7024 29.2481 23.2701 29.2481 15.3354C29.2481 7.40068 22.8158 0.968384 14.8812 0.968384ZM21.6669 21.0563C21.5747 21.1644 19.3626 23.7055 15.3031 23.7055C10.3967 23.7055 6.9329 20.0408 6.9329 15.2726C6.9329 10.5626 10.5249 6.96521 15.2612 6.96521C19.1402 6.96521 21.1682 9.12692 21.2526 9.21898C21.3566 9.33234 21.4201 9.477 21.4331 9.6303C21.4461 9.7836 21.4078 9.93687 21.3243 10.0661L20.0278 12.0737C19.7933 12.4368 19.2878 12.4996 18.9715 12.2067C18.958 12.1943 17.4347 10.8233 15.3867 10.8233C12.7152 10.8233 11.1047 12.7683 11.1047 15.2308C11.1047 17.525 12.5827 19.8475 15.4076 19.8475C17.6494 19.8475 19.1894 18.2058 19.2047 18.1892C19.502 17.8668 20.0192 17.8976 20.2769 18.2502L21.6989 20.1951C21.7912 20.3213 21.8383 20.475 21.8324 20.6312C21.8266 20.7875 21.7683 20.9372 21.6669 21.0563Z" fill="black"/>
</g>
<defs>
<clipPath id="clip0_201_5515">
<rect width="29.6609" height="29.6609" fill="white" transform="translate(0.050293 0.504883)"/>
</clipPath>
</defs>
</svg>
