<svg width="38" height="31" viewBox="0 0 38 31" fill="none" xmlns="http://www.w3.org/2000/svg">
<g clip-path="url(#clip0_201_5513)">
<path d="M9.41331 13.4814V17.189H27.9514V13.4814C27.9514 11.4365 29.614 9.77382 31.659 9.77382H33.5128C33.5128 6.70345 31.0217 4.2124 27.9514 4.2124H9.41331C6.34295 4.2124 3.8519 6.70345 3.8519 9.77382H5.7057C7.75068 9.77382 9.41331 11.4365 9.41331 13.4814ZM33.5128 11.6276H31.659C30.6336 11.6276 29.8052 12.456 29.8052 13.4814V19.0428H7.55951V13.4814C7.55951 12.456 6.73109 11.6276 5.7057 11.6276H3.8519C1.80692 11.6276 0.144287 13.2903 0.144287 15.3352C0.144287 16.7024 0.897396 17.8842 1.99809 18.5273V25.5312C1.99809 26.041 2.4152 26.4581 2.925 26.4581H6.63261C7.1424 26.4581 7.55951 26.041 7.55951 25.5312V24.6043H29.8052V25.5312C29.8052 26.041 30.2223 26.4581 30.7321 26.4581H34.4397C34.9495 26.4581 35.3666 26.041 35.3666 25.5312V18.5273C36.4673 17.8842 37.2204 16.7024 37.2204 15.3352C37.2204 13.2903 35.5578 11.6276 33.5128 11.6276Z" fill="black"/>
</g>
<defs>
<clipPath id="clip0_201_5513">
<rect width="37.0761" height="29.6609" fill="white" transform="translate(0.144287 0.504883)"/>
</clipPath>
</defs>
</svg>
