<svg width="35" height="31" viewBox="0 0 35 31" fill="none" xmlns="http://www.w3.org/2000/svg">
<g clip-path="url(#clip0_201_5511)">
<path d="M0.945984 25.5313C0.945984 27.0665 2.19151 28.312 3.72669 28.312H31.5338C33.069 28.312 34.3145 27.0665 34.3145 25.5313V15.3354H0.945984V25.5313ZM12.0688 21.592C12.0688 21.2097 12.3816 20.8968 12.764 20.8968H20.6427C21.025 20.8968 21.3378 21.2097 21.3378 21.592V23.9093C21.3378 24.2916 21.025 24.6044 20.6427 24.6044H12.764C12.3816 24.6044 12.0688 24.2916 12.0688 23.9093V21.592ZM4.65359 21.592C4.65359 21.2097 4.96642 20.8968 5.34877 20.8968H9.51983C9.90218 20.8968 10.215 21.2097 10.215 21.592V23.9093C10.215 24.2916 9.90218 24.6044 9.51983 24.6044H5.34877C4.96642 24.6044 4.65359 24.2916 4.65359 23.9093V21.592ZM34.3145 5.13947V7.92018H0.945984V5.13947C0.945984 3.60429 2.19151 2.35876 3.72669 2.35876H31.5338C33.069 2.35876 34.3145 3.60429 34.3145 5.13947Z" fill="black"/>
</g>
<defs>
<clipPath id="clip0_201_5511">
<rect width="33.3685" height="29.6609" fill="white" transform="translate(0.945801 0.504883)"/>
</clipPath>
</defs>
</svg>
