<svg width="31" height="31" viewBox="0 0 31 31" fill="none" xmlns="http://www.w3.org/2000/svg">
<g clip-path="url(#clip0_201_5507)">
<path d="M29.2345 20.8969H26.9173V6.83401L30.3532 3.3981C30.7153 3.03603 30.7153 2.44918 30.3532 2.08711L29.0428 0.776703C28.6807 0.414632 28.0939 0.414632 27.7318 0.776703L24.2959 4.21262H12.0868V9.77403H18.7345L10.233 18.2755V1.89536C10.233 1.12719 9.61025 0.505005 8.84266 0.505005H6.06195C5.29436 0.505005 4.6716 1.12719 4.6716 1.89536V4.21262H2.35434C1.58675 4.21262 0.963989 4.8348 0.963989 5.60297V8.38368C0.963989 9.15127 1.58675 9.77403 2.35434 9.77403H4.6716V25.0679C4.6716 25.8355 5.29436 26.4583 6.06195 26.4583H19.502V20.8969H12.8544L21.3559 12.3954V28.7755C21.3559 29.5431 21.9786 30.1659 22.7462 30.1659H25.5269C26.2945 30.1659 26.9173 29.5431 26.9173 28.7755V26.4583H29.2345C30.0021 26.4583 30.6249 25.8355 30.6249 25.0679V22.2872C30.6249 21.519 30.0021 20.8969 29.2345 20.8969Z" fill="black"/>
</g>
<defs>
<clipPath id="clip0_201_5507">
<rect width="29.6609" height="29.6609" fill="white" transform="translate(0.963989 0.504883)"/>
</clipPath>
</defs>
</svg>
