<svg width="31" height="31" viewBox="0 0 31 31" fill="none" xmlns="http://www.w3.org/2000/svg">
<g clip-path="url(#clip0_201_5509)">
<path d="M28.7253 20.8969H26.4081V6.06642C26.4081 5.04277 25.5779 4.21262 24.5542 4.21262H11.5776V9.77403H20.8466V28.7755C20.8466 29.5431 21.4694 30.1659 22.237 30.1659H25.0177C25.7853 30.1659 26.4081 29.5431 26.4081 28.7755V26.4583H28.7253C29.4929 26.4583 30.1157 25.8355 30.1157 25.0679V22.2872C30.1157 21.519 29.4929 20.8969 28.7253 20.8969ZM9.7238 1.89536C9.7238 1.12719 9.10104 0.505005 8.33345 0.505005H5.55274C4.78515 0.505005 4.16238 1.12719 4.16238 1.89536V4.21262H1.84513C1.07754 4.21262 0.454773 4.8348 0.454773 5.60297V8.38368C0.454773 9.15127 1.07754 9.77403 1.84513 9.77403H4.16238V24.6045C4.16238 25.6281 4.99254 26.4583 6.01619 26.4583H18.9928V20.8969H9.7238V1.89536Z" fill="black"/>
</g>
<defs>
<clipPath id="clip0_201_5509">
<rect width="29.6609" height="29.6609" fill="white" transform="translate(0.454834 0.504883)"/>
</clipPath>
</defs>
</svg>
