<svg width="31" height="31" viewBox="0 0 31 31" fill="none" xmlns="http://www.w3.org/2000/svg">
<g clip-path="url(#clip0_201_5503)">
<path d="M29.3631 13.4814H27.6041C26.7981 8.05467 22.5084 3.76491 17.0816 2.95897V1.19994C17.0816 0.816026 16.7704 0.504761 16.3865 0.504761H14.0692C13.6853 0.504761 13.374 0.816026 13.374 1.19994V2.95897C7.94731 3.76491 3.65755 8.05467 2.85161 13.4814H1.09258C0.708665 13.4814 0.3974 13.7927 0.3974 14.1766V16.4938C0.3974 16.8777 0.708665 17.189 1.09258 17.189H2.85161C3.65755 22.6157 7.94731 26.9055 13.374 27.7114V29.4705C13.374 29.8544 13.6853 30.1656 14.0692 30.1656H16.3865C16.7704 30.1656 17.0816 29.8544 17.0816 29.4705V27.7114C22.5084 26.9055 26.7981 22.6157 27.6041 17.189H29.3631C29.747 17.189 30.0583 16.8777 30.0583 16.4938V14.1766C30.0583 13.7927 29.747 13.4814 29.3631 13.4814ZM17.0816 23.9458V21.5918C17.0816 21.2079 16.7704 20.8966 16.3865 20.8966H14.0692C13.6853 20.8966 13.374 21.2079 13.374 21.5918V23.9458C10.0039 23.2273 7.3366 20.5631 6.61726 17.189H8.97125C9.35516 17.189 9.66643 16.8777 9.66643 16.4938V14.1766C9.66643 13.7927 9.35516 13.4814 8.97125 13.4814H6.61726C7.33573 10.1113 9.99994 7.44396 13.374 6.72463V9.07861C13.374 9.46252 13.6853 9.77379 14.0692 9.77379H16.3865C16.7704 9.77379 17.0816 9.46252 17.0816 9.07861V6.72463C20.4518 7.44309 23.1191 10.1073 23.8384 13.4814H21.4844C21.1005 13.4814 20.7893 13.7927 20.7893 14.1766V16.4938C20.7893 16.8777 21.1005 17.189 21.4844 17.189H23.8384C23.12 20.5591 20.4557 23.2264 17.0816 23.9458ZM17.0816 15.3352C17.0816 16.359 16.2517 17.189 15.2278 17.189C14.204 17.189 13.374 16.359 13.374 15.3352C13.374 14.3114 14.204 13.4814 15.2278 13.4814C16.2517 13.4814 17.0816 14.3114 17.0816 15.3352Z" fill="black"/>
</g>
<defs>
<clipPath id="clip0_201_5503">
<rect width="29.6609" height="29.6609" fill="white" transform="translate(0.397461 0.504883)"/>
</clipPath>
</defs>
</svg>
