<svg width="24" height="31" viewBox="0 0 24 31" fill="none" xmlns="http://www.w3.org/2000/svg">
<g clip-path="url(#clip0_201_5505)">
<path d="M21.2802 7.92023H15.7188V2.35881C15.7188 1.33516 14.8886 0.505005 13.8649 0.505005H10.1573C9.13369 0.505005 8.30353 1.33516 8.30353 2.35881V7.92023H2.74211C1.71846 7.92023 0.888306 8.75038 0.888306 9.77403V13.4816C0.888306 14.5053 1.71846 15.3354 2.74211 15.3354H8.30353V28.3121C8.30353 29.3357 9.13369 30.1659 10.1573 30.1659H13.8649C14.8886 30.1659 15.7188 29.3357 15.7188 28.3121V15.3354H21.2802C22.3038 15.3354 23.134 14.5053 23.134 13.4816V9.77403C23.134 8.75038 22.3038 7.92023 21.2802 7.92023Z" fill="black"/>
</g>
<defs>
<clipPath id="clip0_201_5505">
<rect width="22.2457" height="29.6609" fill="white" transform="translate(0.888306 0.504883)"/>
</clipPath>
</defs>
</svg>
