<svg width="38" height="31" viewBox="0 0 38 31" fill="none" xmlns="http://www.w3.org/2000/svg">
<g clip-path="url(#clip0_201_5501)">
<path d="M32.006 2.35881H31.0583C30.2125 1.23958 28.8829 0.505005 27.3715 0.505005C24.8121 0.505005 22.737 2.58011 22.737 5.13952V6.35492L1.19172 23.3051C0.974308 23.4681 0.797829 23.6795 0.676263 23.9225C0.554697 24.1655 0.491382 24.4335 0.491333 24.7053C0.491333 26.0064 1.86083 26.8528 3.02467 26.2712L10.0657 22.7507H15.6555L18.2282 29.7082C18.3597 30.0691 18.7583 30.2551 19.1192 30.1236L20.4255 29.648C20.7864 29.5165 20.9724 29.1179 20.8409 28.757L18.6204 22.7507H20.8832C20.9938 22.7507 21.101 22.7373 21.2111 22.7339L23.7896 29.7077C23.9211 30.0686 24.3197 30.2545 24.6806 30.123L25.987 29.6474C26.3479 29.5159 26.5338 29.1173 26.4023 28.7564L24.0132 22.2953C28.6309 20.9432 32.006 16.6829 32.006 11.6278V6.99332L37.5674 6.06642C37.5674 4.01855 35.0776 2.35881 32.006 2.35881ZM27.3715 6.52987C26.6039 6.52987 25.9812 5.90711 25.9812 5.13952C25.9812 4.37135 26.6039 3.74916 27.3715 3.74916C28.1391 3.74916 28.7619 4.37135 28.7619 5.13952C28.7619 5.90711 28.1391 6.52987 27.3715 6.52987Z" fill="black"/>
</g>
<defs>
<clipPath id="clip0_201_5501">
<rect width="37.0761" height="29.6609" fill="white" transform="translate(0.491333 0.504883)"/>
</clipPath>
</defs>
</svg>
