<svg width="38" height="31" viewBox="0 0 38 31" fill="none" xmlns="http://www.w3.org/2000/svg">
<g clip-path="url(#clip0_201_5499)">
<path d="M31.173 26.4583H7.07352C6.56373 26.4583 6.14662 26.8754 6.14662 27.3852V29.239C6.14662 29.7488 6.56373 30.1659 7.07352 30.1659H31.173C31.6828 30.1659 32.0999 29.7488 32.0999 29.239V27.3852C32.0999 26.8754 31.6828 26.4583 31.173 26.4583ZM34.8806 7.92023C33.3454 7.92023 32.0999 9.16575 32.0999 10.7009C32.0999 11.1122 32.1926 11.4946 32.3548 11.848L28.1606 14.3622C27.2684 14.8952 26.1156 14.5939 25.6 13.6902L20.8786 5.42918C21.4984 4.91938 21.904 4.15468 21.904 3.28571C21.904 1.75053 20.6584 0.505005 19.1233 0.505005C17.5881 0.505005 16.3426 1.75053 16.3426 3.28571C16.3426 4.15468 16.7481 4.91938 17.3679 5.42918L12.6465 13.6902C12.1309 14.5939 10.9723 14.8952 10.086 14.3622L5.89752 11.848C6.05393 11.5004 6.15241 11.1122 6.15241 10.7009C6.15241 9.16575 4.90689 7.92023 3.37171 7.92023C1.83652 7.92023 0.585205 9.16575 0.585205 10.7009C0.585205 12.2361 1.83073 13.4816 3.36591 13.4816C3.51654 13.4816 3.66716 13.4585 3.81199 13.4353L8.00043 24.6045H30.2461L34.4345 13.4353C34.5794 13.4585 34.73 13.4816 34.8806 13.4816C36.4158 13.4816 37.6613 12.2361 37.6613 10.7009C37.6613 9.16575 36.4158 7.92023 34.8806 7.92023Z" fill="black"/>
</g>
<defs>
<clipPath id="clip0_201_5499">
<rect width="37.0761" height="29.6609" fill="white" transform="translate(0.585205 0.504883)"/>
</clipPath>
</defs>
</svg>
