<svg width="30" height="31" viewBox="0 0 30 31" fill="none" xmlns="http://www.w3.org/2000/svg">
<g clip-path="url(#clip0_201_5493)">
<path d="M28.4178 14.9995L22.8217 12.9024V6.61683C22.8217 5.74786 22.2829 4.97158 21.4661 4.66454L15.6729 2.49211C15.2037 2.31253 14.6823 2.31253 14.2073 2.49211L8.41412 4.66454C7.59729 4.97158 7.05853 5.74786 7.05853 6.61683V12.9024L1.46235 14.9995C0.651311 15.3065 0.112549 16.0828 0.112549 16.9518V23.33C0.112549 24.1179 0.558621 24.8421 1.26538 25.1954L7.05853 28.092C7.64363 28.3875 8.33881 28.3875 8.92392 28.092L14.943 25.0796L20.9621 28.092C21.5472 28.3875 22.2424 28.3875 22.8275 28.092L28.6206 25.1954C29.3274 24.8421 29.7734 24.1179 29.7734 23.33V16.9518C29.7734 16.0828 29.2347 15.3065 28.4178 14.9995ZM20.852 12.9487L15.9278 14.7967V10.8458L20.852 8.70236V12.9487ZM9.03399 6.53573L14.943 4.32275L20.852 6.53573V6.57048L14.943 8.96885L9.03399 6.57048V6.53573ZM13.9002 23.3996L8.97606 25.8616V21.2793L13.9002 19.0315V23.3996ZM13.9002 16.9112L7.99122 19.3096L2.08222 16.9112V16.8765L7.99122 14.6635L13.9002 16.8765V16.9112ZM27.8038 23.3996L22.8796 25.8616V21.2793L27.8038 19.0315V23.3996ZM27.8038 16.9112L21.8948 19.3096L15.9858 16.9112V16.8765L21.8948 14.6635L27.8038 16.8765V16.9112Z" fill="black"/>
</g>
<defs>
<clipPath id="clip0_201_5493">
<rect width="29.6609" height="29.6609" fill="white" transform="translate(0.112549 0.504883)"/>
</clipPath>
</defs>
</svg>
