<svg width="27" height="31" viewBox="0 0 27 31" fill="none" xmlns="http://www.w3.org/2000/svg">
<g clip-path="url(#clip0_201_5491)">
<path d="M16.4378 15.3354L26.0787 5.69388C26.3504 5.42218 26.3504 4.9819 26.0787 4.71078C24.1786 2.81063 21.0972 2.81063 19.197 4.71078L12.5054 11.403L11.0652 9.96284C11.3149 9.33023 11.4522 8.64143 11.4522 7.92018C11.4522 4.84866 8.96229 2.35876 5.89076 2.35876C2.81924 2.35876 0.329346 4.84866 0.329346 7.92018C0.329346 10.9917 2.81924 13.4816 5.89076 13.4816C6.15377 13.4816 6.41157 13.4631 6.66473 13.4277L8.57241 15.3354L6.66473 17.2431C6.41157 17.2077 6.15319 17.1892 5.89076 17.1892C2.81924 17.1892 0.329346 19.6791 0.329346 22.7506C0.329346 25.8221 2.81924 28.312 5.89076 28.312C8.96229 28.312 11.4522 25.8221 11.4522 22.7506C11.4522 22.0294 11.3149 21.3406 11.0652 20.708L12.5054 19.2678L19.197 25.96C21.0972 27.8602 24.1786 27.8602 26.0787 25.96C26.3504 25.6889 26.3504 25.2486 26.0787 24.9769L16.4378 15.3354ZM5.89076 9.77399C4.86885 9.77399 4.03696 8.94209 4.03696 7.92018C4.03696 6.89827 4.86885 6.06638 5.89076 6.06638C6.91267 6.06638 7.74457 6.89827 7.74457 7.92018C7.74457 8.94209 6.91267 9.77399 5.89076 9.77399ZM5.89076 24.6044C4.86885 24.6044 4.03696 23.7725 4.03696 22.7506C4.03696 21.7287 4.86885 20.8968 5.89076 20.8968C6.91267 20.8968 7.74457 21.7287 7.74457 22.7506C7.74457 23.7725 6.91267 24.6044 5.89076 24.6044Z" fill="black"/>
</g>
<defs>
<clipPath id="clip0_201_5491">
<rect width="25.9533" height="29.6609" fill="white" transform="translate(0.329346 0.504883)"/>
</clipPath>
</defs>
</svg>
