<svg width="27" height="31" viewBox="0 0 27 31" fill="none" xmlns="http://www.w3.org/2000/svg">
<g clip-path="url(#clip0_201_5489)">
<path d="M26.4993 4.74228V7.39056C26.4993 9.72439 20.6869 11.6278 13.5227 11.6278C6.35845 11.6278 0.546021 9.72439 0.546021 7.39056V4.74228C0.546021 2.40846 6.35845 0.505005 13.5227 0.505005C20.6869 0.505005 26.4993 2.40846 26.4993 4.74228ZM26.4993 10.7009V16.6596C26.4993 18.9934 20.6869 20.8969 13.5227 20.8969C6.35845 20.8969 0.546021 18.9934 0.546021 16.6596V10.7009C3.33397 12.621 8.43674 13.5148 13.5227 13.5148C18.6086 13.5148 23.7113 12.621 26.4993 10.7009ZM26.4993 19.97V25.9286C26.4993 28.2624 20.6869 30.1659 13.5227 30.1659C6.35845 30.1659 0.546021 28.2624 0.546021 25.9286V19.97C3.33397 21.89 8.43674 22.7838 13.5227 22.7838C18.6086 22.7838 23.7113 21.89 26.4993 19.97Z" fill="black"/>
</g>
<defs>
<clipPath id="clip0_201_5489">
<rect width="25.9533" height="29.6609" fill="white" transform="translate(0.546021 0.504883)"/>
</clipPath>
</defs>
</svg>
