<svg width="38" height="31" viewBox="0 0 38 31" fill="none" xmlns="http://www.w3.org/2000/svg">
<g clip-path="url(#clip0_201_5485)">
<path d="M37.0691 15.3872L35.9336 13.684C34.2999 11.2335 31.5714 9.77365 28.6284 9.77365H14.9798L10.2758 5.06961C11.4402 3.90519 11.585 2.10932 10.7103 0.788482C10.5133 0.487239 10.0846 0.446687 9.8297 0.701585L7.40817 3.12312L4.92291 0.643654C4.71436 0.435101 4.36677 0.46986 4.20456 0.713171C3.492 1.7907 3.60787 3.26215 4.55794 4.21223C4.74912 4.4034 4.98084 4.51927 5.21257 4.64672C5.08512 4.7452 4.94029 4.8263 4.84181 4.95955L0.520122 10.7121C0.0972222 11.2741 0.0334976 12.0272 0.346327 12.6528L1.17475 14.3097C1.48758 14.9353 2.13061 15.3351 2.83159 15.3351H4.62746C5.11988 15.3351 5.58912 15.1381 5.93671 14.7905L8.1439 12.7861L11.2722 19.0427H31.6641V14.5356C32.6025 15.2424 32.7242 15.5552 33.9871 17.4496C34.271 17.8783 34.8445 17.9883 35.2732 17.7045L36.8142 16.6791C37.2371 16.3894 37.3529 15.8159 37.0691 15.3872ZM17.3086 14.5993L16.3528 15.532L16.5787 16.8471C16.6193 17.0846 16.3702 17.2642 16.1616 17.1541L14.9798 16.5342L13.798 17.1541C13.5895 17.2642 13.3403 17.0846 13.3809 16.8471L13.6068 15.532L12.651 14.5993C12.4772 14.4313 12.5757 14.1417 12.8132 14.1069L14.134 13.9157L14.7249 12.7166C14.8292 12.5022 15.1362 12.5022 15.2463 12.7166L15.8372 13.9157L17.158 14.1069C17.3898 14.1417 17.4824 14.4313 17.3086 14.5993ZM23.797 14.5993L22.8411 15.532L23.067 16.8471C23.1076 17.0846 22.8585 17.2642 22.6499 17.1541L21.4681 16.5342L20.2863 17.1541C20.0778 17.2642 19.8287 17.0846 19.8692 16.8471L20.0951 15.532L19.1393 14.5993C18.9655 14.4313 19.064 14.1417 19.3015 14.1069L20.6223 13.9157L21.2132 12.7166C21.3175 12.5022 21.6245 12.5022 21.7346 12.7166L22.3255 13.9157L23.6463 14.1069C23.8781 14.1417 23.9708 14.4313 23.797 14.5993ZM30.2853 14.5993L29.3294 15.532L29.5554 16.8471C29.5959 17.0846 29.3468 17.2642 29.1382 17.1541L27.9564 16.5342L26.7746 17.1541C26.5661 17.2642 26.317 17.0846 26.3575 16.8471L26.5835 15.532L25.6276 14.5993C25.4538 14.4313 25.5523 14.1417 25.7898 14.1069L27.1106 13.9157L27.7015 12.7166C27.8058 12.5022 28.1129 12.5022 28.2229 12.7166L28.8138 13.9157L30.1347 14.1069C30.3664 14.1417 30.4591 14.4313 30.2853 14.5993ZM11.2722 29.2386C11.2722 29.7484 11.6893 30.1655 12.1991 30.1655H15.9067C16.4165 30.1655 16.8336 29.7484 16.8336 29.2386V24.6041H26.1026V29.2386C26.1026 29.7484 26.5197 30.1655 27.0295 30.1655H30.7372C31.247 30.1655 31.6641 29.7484 31.6641 29.2386V20.8965H11.2722V29.2386Z" fill="black"/>
</g>
<defs>
<clipPath id="clip0_201_5485">
<rect width="37.0761" height="29.6609" fill="white" transform="translate(0.148926 0.504883)"/>
</clipPath>
</defs>
</svg>
