<svg width="35" height="31" viewBox="0 0 35 31" fill="none" xmlns="http://www.w3.org/2000/svg">
<g clip-path="url(#clip0_201_5483)">
<path d="M31.5382 0.505005H3.73115C2.19597 0.505005 0.950439 1.75053 0.950439 3.28571V21.8238C0.950439 23.359 2.19597 24.6045 3.73115 24.6045H14.854L13.9271 27.3852H9.75602C8.98553 27.3852 8.36566 28.0051 8.36566 28.7755C8.36566 29.546 8.98553 30.1659 9.75602 30.1659H25.5134C26.2839 30.1659 26.9037 29.546 26.9037 28.7755C26.9037 28.0051 26.2839 27.3852 25.5134 27.3852H21.3423L20.4154 24.6045H31.5382C33.0734 24.6045 34.3189 23.359 34.3189 21.8238V3.28571C34.3189 1.75053 33.0734 0.505005 31.5382 0.505005ZM30.6113 20.8969H4.65805V4.21262H30.6113V20.8969Z" fill="black"/>
</g>
<defs>
<clipPath id="clip0_201_5483">
<rect width="33.3685" height="29.6609" fill="white" transform="translate(0.950439 0.504883)"/>
</clipPath>
</defs>
</svg>
