<svg width="31" height="31" viewBox="0 0 31 31" fill="none" xmlns="http://www.w3.org/2000/svg">
<g clip-path="url(#clip0_201_5481)">
<path d="M29.1347 13.5431L28.1371 13.6056C27.8318 11.3179 26.9327 9.22368 25.5962 7.47416L26.3464 6.812C26.7473 6.45804 26.7664 5.83933 26.3887 5.46162L25.1629 4.23579C24.7846 3.8575 24.1659 3.87719 23.8125 4.27808L23.1504 5.02771C21.4008 3.69181 19.3066 2.79272 17.0195 2.48684L17.0815 1.48984C17.1151 0.956291 16.691 0.505005 16.1563 0.505005H14.4218C13.8871 0.505005 13.4636 0.956291 13.4967 1.48984L13.5592 2.48742C11.2715 2.79272 9.1773 3.69181 7.42835 5.02829L6.76619 4.27808C6.41223 3.87719 5.79352 3.85808 5.41581 4.23579L4.1894 5.46162C3.81111 5.83991 3.83081 6.45862 4.23169 6.812L4.9819 7.47416C3.64601 9.22368 2.74691 11.3179 2.44103 13.6056L1.44345 13.5431C0.909904 13.5095 0.458618 13.9335 0.458618 14.4682V16.2027C0.458618 16.7374 0.909904 17.1609 1.44345 17.1278L2.44103 17.0653C2.74633 19.353 3.64543 21.4472 4.9819 23.1962L4.23169 23.8583C3.83081 24.2123 3.81169 24.831 4.1894 25.2087L5.41581 26.4351C5.7941 26.8134 6.41281 26.7937 6.76619 26.3928L7.42835 25.6426C9.17788 26.9785 11.2721 27.8776 13.5598 28.1835L13.4967 29.1811C13.4631 29.7146 13.8871 30.1659 14.4218 30.1659H16.1563C16.691 30.1659 17.1145 29.7146 17.0815 29.1811L17.0189 28.1835C19.3066 27.8782 21.4008 26.9791 23.1504 25.6426L23.8125 26.3928C24.1665 26.7937 24.7852 26.8128 25.1629 26.4351L26.3893 25.2087C26.7676 24.8304 26.7479 24.2117 26.347 23.8583L25.5968 23.1962C26.9327 21.4466 27.8318 19.3524 28.1377 17.0653L29.1353 17.1278C29.6688 17.1614 30.1201 16.7374 30.1201 16.2027V14.4682C30.1195 13.9335 29.6682 13.51 29.1347 13.5431ZM16.786 6.21762C18.2233 6.4534 19.5453 7.00897 20.6807 7.82696L18.2117 10.6245C17.706 10.3093 17.1504 10.0718 16.5537 9.93219L16.786 6.21762ZM13.7921 6.21762L14.0244 9.93219C13.4283 10.0718 12.8722 10.3099 12.3664 10.6245L9.89738 7.82696C11.0328 7.00897 12.3548 6.4534 13.7921 6.21762ZM7.78057 9.94435L10.5787 12.4128C10.2635 12.9186 10.026 13.4747 9.8858 14.0708L6.17124 13.8385C6.40702 12.4012 6.96258 11.0798 7.78057 9.94435ZM6.17124 16.8324L9.8858 16.6001C10.0254 17.1962 10.2635 17.7523 10.5781 18.2581L7.78057 20.7271C6.96258 19.5917 6.40702 18.2697 6.17124 16.8324ZM13.7921 24.4533C12.3548 24.2175 11.0328 23.6619 9.89738 22.8439L12.3658 20.0459C12.8716 20.361 13.4277 20.5985 14.0238 20.7387L13.7921 24.4533ZM15.2891 17.1893C14.2654 17.1893 13.4353 16.3591 13.4353 15.3354C13.4353 14.3118 14.2654 13.4816 15.2891 13.4816C16.3127 13.4816 17.1429 14.3118 17.1429 15.3354C17.1429 16.3591 16.3127 17.1893 15.2891 17.1893ZM16.786 24.4533L16.5537 20.7387C17.1498 20.5991 17.706 20.361 18.2117 20.0459L20.6802 22.8439C19.5447 23.6619 18.2233 24.2175 16.786 24.4533ZM22.7976 20.7265L20 18.2575C20.3152 17.7518 20.5527 17.1962 20.6923 16.5995L24.4069 16.8318C24.1711 18.2697 23.6155 19.5917 22.7976 20.7265ZM20.6923 14.0708C20.5527 13.4747 20.3146 12.9186 19.9995 12.4128L22.7976 9.94435C23.6155 11.0798 24.1711 12.4018 24.4069 13.8391L20.6923 14.0708Z" fill="black"/>
</g>
<defs>
<clipPath id="clip0_201_5481">
<rect width="29.6609" height="29.6609" fill="white" transform="translate(0.459595 0.504883)"/>
</clipPath>
</defs>
</svg>
