<svg width="29" height="31" viewBox="0 0 29 31" fill="none" xmlns="http://www.w3.org/2000/svg">
<g clip-path="url(#clip0_201_5477)">
<path d="M7.10081 12.9637L0.986144 21.9947C0.807715 22.2843 0.991937 22.6609 1.32968 22.698L13.3945 23.9765L7.10081 12.9637ZM1.3459 18.7783L5.70755 11.6904L1.26769 9.02672C1.11301 8.93403 0.916626 9.04526 0.916626 9.22542V18.6572C0.916626 18.8907 1.22308 18.9776 1.3459 18.7783ZM1.97387 25.0448L13.2357 30.123C13.5428 30.265 13.8933 30.0402 13.8933 29.7024V25.8981L2.10132 24.6062C1.84353 24.5772 1.74041 24.9301 1.97387 25.0448ZM6.67906 10.1112L11.3095 1.83048C11.5609 1.42148 11.1015 0.947022 10.685 1.18512L1.94838 6.89774C1.80529 6.99159 1.80993 7.20246 1.95592 7.29051L6.67906 10.1112ZM14.8202 10.7009H21.1469L15.6098 0.946442C15.4284 0.652151 15.1243 0.505005 14.8202 0.505005C14.516 0.505005 14.2119 0.652151 14.0306 0.946442L8.49348 10.7009H14.8202ZM28.3726 9.02672L23.9328 11.691L28.2944 18.7789C28.4167 18.9782 28.7237 18.8913 28.7237 18.6572V9.22542C28.7237 9.04526 28.5273 8.93403 28.3726 9.02672ZM22.9613 10.1112L27.6844 7.28993C27.831 7.20188 27.835 6.99101 27.6919 6.89716L18.9553 1.18512C18.5388 0.947022 18.0794 1.42148 18.3308 1.83048L22.9613 10.1112ZM27.539 24.6062L15.7471 25.8975V29.7019C15.7471 30.0402 16.0976 30.2644 16.4046 30.1224L27.6665 25.0442C27.8999 24.9301 27.7968 24.5772 27.539 24.6062ZM22.5395 12.9637L16.2464 23.9765L28.3112 22.698C28.649 22.6603 28.8332 22.2843 28.6548 21.9947L22.5395 12.9637ZM14.8202 12.5547H9.00212L14.8202 22.7362L20.6382 12.5547H14.8202Z" fill="black"/>
</g>
<defs>
<clipPath id="clip0_201_5477">
<rect width="27.8071" height="29.6609" fill="white" transform="translate(0.916382 0.504883)"/>
</clipPath>
</defs>
</svg>
