<svg width="27" height="31" viewBox="0 0 27 31" fill="none" xmlns="http://www.w3.org/2000/svg">
<g clip-path="url(#clip0_201_5465)">
<path d="M22.8135 2.69788H4.27548C2.22761 2.69788 0.567871 4.35761 0.567871 6.40549V24.9435C0.567871 26.9914 2.22761 28.6512 4.27548 28.6512H22.8135C24.8614 28.6512 26.5211 26.9914 26.5211 24.9435V6.40549C26.5211 4.35761 24.8614 2.69788 22.8135 2.69788ZM7.98309 11.9669C6.95944 11.9669 6.12929 11.1367 6.12929 10.1131C6.12929 9.08945 6.95944 8.25929 7.98309 8.25929C9.00674 8.25929 9.8369 9.08945 9.8369 10.1131C9.8369 11.1367 9.00674 11.9669 7.98309 11.9669ZM13.5445 17.5283C12.5209 17.5283 11.6907 16.6982 11.6907 15.6745C11.6907 14.6509 12.5209 13.8207 13.5445 13.8207C14.5682 13.8207 15.3983 14.6509 15.3983 15.6745C15.3983 16.6982 14.5682 17.5283 13.5445 17.5283ZM19.1059 23.0897C18.0823 23.0897 17.2521 22.2596 17.2521 21.2359C17.2521 20.2123 18.0823 19.3821 19.1059 19.3821C20.1296 19.3821 20.9597 20.2123 20.9597 21.2359C20.9597 22.2596 20.1296 23.0897 19.1059 23.0897Z" fill="black"/>
</g>
<defs>
<clipPath id="clip0_201_5465">
<rect width="25.9533" height="29.6609" fill="white" transform="translate(0.567871 0.843994)"/>
</clipPath>
</defs>
</svg>
