<svg width="27" height="31" viewBox="0 0 27 31" fill="none" xmlns="http://www.w3.org/2000/svg">
<g clip-path="url(#clip0_201_5473)">
<path d="M22.5955 2.35876H4.05746C2.00959 2.35876 0.349854 4.0185 0.349854 6.06638V24.6044C0.349854 26.6523 2.00959 28.312 4.05746 28.312H22.5955C24.6434 28.312 26.3031 26.6523 26.3031 24.6044V6.06638C26.3031 4.0185 24.6434 2.35876 22.5955 2.35876ZM7.76508 22.7506C6.74143 22.7506 5.91127 21.9205 5.91127 20.8968C5.91127 19.8732 6.74143 19.043 7.76508 19.043C8.78872 19.043 9.61888 19.8732 9.61888 20.8968C9.61888 21.9205 8.78872 22.7506 7.76508 22.7506ZM7.76508 11.6278C6.74143 11.6278 5.91127 10.7976 5.91127 9.77399C5.91127 8.75034 6.74143 7.92018 7.76508 7.92018C8.78872 7.92018 9.61888 8.75034 9.61888 9.77399C9.61888 10.7976 8.78872 11.6278 7.76508 11.6278ZM13.3265 17.1892C12.3028 17.1892 11.4727 16.3591 11.4727 15.3354C11.4727 14.3118 12.3028 13.4816 13.3265 13.4816C14.3501 13.4816 15.1803 14.3118 15.1803 15.3354C15.1803 16.3591 14.3501 17.1892 13.3265 17.1892ZM18.8879 22.7506C17.8643 22.7506 17.0341 21.9205 17.0341 20.8968C17.0341 19.8732 17.8643 19.043 18.8879 19.043C19.9116 19.043 20.7417 19.8732 20.7417 20.8968C20.7417 21.9205 19.9116 22.7506 18.8879 22.7506ZM18.8879 11.6278C17.8643 11.6278 17.0341 10.7976 17.0341 9.77399C17.0341 8.75034 17.8643 7.92018 18.8879 7.92018C19.9116 7.92018 20.7417 8.75034 20.7417 9.77399C20.7417 10.7976 19.9116 11.6278 18.8879 11.6278Z" fill="black"/>
</g>
<defs>
<clipPath id="clip0_201_5473">
<rect width="25.9533" height="29.6609" fill="white" transform="translate(0.349854 0.504883)"/>
</clipPath>
</defs>
</svg>
