<svg width="27" height="31" viewBox="0 0 27 31" fill="none" xmlns="http://www.w3.org/2000/svg">
<g clip-path="url(#clip0_201_5475)">
<path d="M24.5914 6.87449L14.9759 1.03037C13.8225 0.329396 12.3968 0.329396 11.2434 1.03037L1.62851 6.87449C1.32032 7.06161 1.32205 7.52738 1.63199 7.71218L13.1099 14.5562L24.5885 7.71218C24.8984 7.52738 24.9001 7.06219 24.5914 6.87449ZM25.3931 9.45997L14.0368 16.231V29.1972C14.0368 29.9434 14.8125 30.4086 15.4301 30.0332L24.2449 24.6757C25.385 23.9828 26.0866 22.7095 26.0866 21.333V9.87997C26.0866 9.50863 25.7019 9.27575 25.3931 9.45997ZM0.133301 9.87997V21.333C0.133301 22.71 0.83485 23.9828 1.97494 24.6757L10.7898 30.0326C11.4079 30.408 12.183 29.9434 12.183 29.1966V16.231L0.82674 9.45997C0.517965 9.27575 0.133301 9.50863 0.133301 9.87997Z" fill="black"/>
</g>
<defs>
<clipPath id="clip0_201_5475">
<rect width="25.9533" height="29.6609" fill="white" transform="translate(0.133057 0.504883)"/>
</clipPath>
</defs>
</svg>
