<svg width="27" height="31" viewBox="0 0 27 31" fill="none" xmlns="http://www.w3.org/2000/svg">
<g clip-path="url(#clip0_201_5469)">
<path d="M23.0291 2.35876H4.49106C2.44318 2.35876 0.783447 4.0185 0.783447 6.06638V24.6044C0.783447 26.6523 2.44318 28.312 4.49106 28.312H23.0291C25.077 28.312 26.7367 26.6523 26.7367 24.6044V6.06638C26.7367 4.0185 25.077 2.35876 23.0291 2.35876ZM13.7601 17.1892C12.7364 17.1892 11.9063 16.3591 11.9063 15.3354C11.9063 14.3118 12.7364 13.4816 13.7601 13.4816C14.7837 13.4816 15.6139 14.3118 15.6139 15.3354C15.6139 16.3591 14.7837 17.1892 13.7601 17.1892Z" fill="black"/>
</g>
<defs>
<clipPath id="clip0_201_5469">
<rect width="25.9533" height="29.6609" fill="white" transform="translate(0.783325 0.504883)"/>
</clipPath>
</defs>
</svg>
