<svg width="38" height="31" viewBox="0 0 38 31" fill="none" xmlns="http://www.w3.org/2000/svg">
<g clip-path="url(#clip0_201_5461)">
<path d="M35.1738 11.9668H28.295C29.0302 13.681 28.7075 15.744 27.3102 17.1413L19.4165 25.035V27.7242C19.4165 29.2599 20.6614 30.5049 22.1972 30.5049H35.1738C36.7096 30.5049 37.9545 29.2599 37.9545 27.7242V14.7475C37.9545 13.2118 36.7096 11.9668 35.1738 11.9668ZM28.6855 22.6262C27.9179 22.6262 27.2951 22.0034 27.2951 21.2359C27.2951 20.4677 27.9179 19.8455 28.6855 19.8455C29.4531 19.8455 30.0759 20.4677 30.0759 21.2359C30.0759 22.0034 29.4531 22.6262 28.6855 22.6262ZM25.9992 11.8104L15.8653 1.67647C14.7553 0.566503 12.9554 0.566503 11.8454 1.67647L1.71089 11.8104C0.600926 12.9204 0.600926 14.7203 1.71089 15.8303L11.8448 25.9648C12.9548 27.0748 14.7547 27.0748 15.8647 25.9648L25.9992 15.8309C27.1092 14.7203 27.1092 12.9204 25.9992 11.8104ZM6.43983 15.211C5.67224 15.211 5.04948 14.5882 5.04948 13.8206C5.04948 13.0525 5.67224 12.4303 6.43983 12.4303C7.20743 12.4303 7.83019 13.0525 7.83019 13.8206C7.83019 14.5882 7.20743 15.211 6.43983 15.211ZM13.8551 22.6262C13.0875 22.6262 12.4647 22.0034 12.4647 21.2359C12.4647 20.4677 13.0875 19.8455 13.8551 19.8455C14.6226 19.8455 15.2454 20.4677 15.2454 21.2359C15.2454 22.0034 14.6226 22.6262 13.8551 22.6262ZM13.8551 15.211C13.0875 15.211 12.4647 14.5882 12.4647 13.8206C12.4647 13.0525 13.0875 12.4303 13.8551 12.4303C14.6226 12.4303 15.2454 13.0525 15.2454 13.8206C15.2454 14.5882 14.6226 15.211 13.8551 15.211ZM13.8551 7.79576C13.0875 7.79576 12.4647 7.173 12.4647 6.40541C12.4647 5.63724 13.0875 5.01506 13.8551 5.01506C14.6226 5.01506 15.2454 5.63724 15.2454 6.40541C15.2454 7.173 14.6226 7.79576 13.8551 7.79576ZM21.2703 15.211C20.5027 15.211 19.8799 14.5882 19.8799 13.8206C19.8799 13.0525 20.5027 12.4303 21.2703 12.4303C22.0379 12.4303 22.6606 13.0525 22.6606 13.8206C22.6606 14.5882 22.0379 15.211 21.2703 15.211Z" fill="black"/>
</g>
<defs>
<clipPath id="clip0_201_5461">
<rect width="37.0761" height="29.6609" fill="white" transform="translate(0.878418 0.843994)"/>
</clipPath>
</defs>
</svg>
