<svg width="39" height="31" viewBox="0 0 39 31" fill="none" xmlns="http://www.w3.org/2000/svg">
<g clip-path="url(#clip0_201_5459)">
<path d="M36.1944 6.40515H2.82591C1.80226 6.40515 0.972107 7.23531 0.972107 8.25896V23.0894C0.972107 24.113 1.80226 24.9432 2.82591 24.9432H36.1944C37.2181 24.9432 38.0482 24.113 38.0482 23.0894V8.25896C38.0482 7.23531 37.2181 6.40515 36.1944 6.40515ZM18.5833 21.2356C18.5833 21.4917 18.3759 21.699 18.1198 21.699H5.14317C4.88711 21.699 4.67972 21.4917 4.67972 21.2356V20.7721C4.67972 20.5161 4.88711 20.3087 5.14317 20.3087H18.1198C18.3759 20.3087 18.5833 20.5161 18.5833 20.7721V21.2356ZM5.14317 17.528V16.6011C5.14317 16.345 5.35056 16.1376 5.60662 16.1376H6.53352C6.78958 16.1376 6.99697 16.345 6.99697 16.6011V17.528C6.99697 17.784 6.78958 17.9914 6.53352 17.9914H5.60662C5.35056 17.9914 5.14317 17.784 5.14317 17.528ZM8.85078 17.528V16.6011C8.85078 16.345 9.05818 16.1376 9.31423 16.1376H10.2411C10.4972 16.1376 10.7046 16.345 10.7046 16.6011V17.528C10.7046 17.784 10.4972 17.9914 10.2411 17.9914H9.31423C9.05818 17.9914 8.85078 17.784 8.85078 17.528ZM12.5584 17.528V16.6011C12.5584 16.345 12.7658 16.1376 13.0218 16.1376H13.9487C14.2048 16.1376 14.4122 16.345 14.4122 16.6011V17.528C14.4122 17.784 14.2048 17.9914 13.9487 17.9914H13.0218C12.7658 17.9914 12.5584 17.784 12.5584 17.528ZM16.266 17.528V16.6011C16.266 16.345 16.4734 16.1376 16.7295 16.1376H17.6564C17.9124 16.1376 18.1198 16.345 18.1198 16.6011V17.528C18.1198 17.784 17.9124 17.9914 17.6564 17.9914H16.7295C16.4734 17.9914 16.266 17.784 16.266 17.528ZM18.5833 13.8204C18.5833 14.3325 18.1685 14.7473 17.6564 14.7473H5.60662C5.09451 14.7473 4.67972 14.3325 4.67972 13.8204V11.0397C4.67972 10.5276 5.09451 10.1128 5.60662 10.1128H17.6564C18.1685 10.1128 18.5833 10.5276 18.5833 11.0397V13.8204ZM34.3406 21.2356C34.3406 21.4917 34.1332 21.699 33.8772 21.699H20.9005C20.6445 21.699 20.4371 21.4917 20.4371 21.2356V20.7721C20.4371 20.5161 20.6445 20.3087 20.9005 20.3087H33.8772C34.1332 20.3087 34.3406 20.5161 34.3406 20.7721V21.2356Z" fill="black"/>
</g>
<defs>
<clipPath id="clip0_201_5459">
<rect width="37.0761" height="29.6609" fill="white" transform="translate(0.97229 0.843994)"/>
</clipPath>
</defs>
</svg>
