<svg width="30" height="31" viewBox="0 0 30 31" fill="none" xmlns="http://www.w3.org/2000/svg">
<g clip-path="url(#clip0_201_5455)">
<path d="M27.351 12.1927L23.4661 10.8603C22.3492 10.4779 21.5231 9.64833 21.2566 8.6409L20.3297 5.13894C19.6589 2.60329 15.8939 1.82932 13.9573 3.82853L11.2872 6.59302C10.519 7.38726 9.34418 7.80553 8.14732 7.71168L3.98205 7.3861C0.969613 7.15032 -1.05393 9.98665 0.564093 12.1851L2.79677 15.2219C3.43865 16.0949 3.53945 17.1835 3.06557 18.1324L1.41858 21.4345C0.222298 23.8236 2.74 26.3505 5.67422 25.7098L9.72942 24.8246C10.8944 24.5703 12.1307 24.8246 13.0356 25.5042L16.1824 27.8695C18.4603 29.5819 22.0335 28.308 22.2333 25.7133L22.5056 22.1297C22.5838 21.0985 23.2471 20.1675 24.2801 19.6386L27.8718 17.7999C30.4695 16.4698 30.163 13.1555 27.351 12.1927ZM9.2596 15.6744C8.89295 15.6744 8.53454 15.5656 8.22968 15.3619C7.92482 15.1582 7.68722 14.8687 7.54691 14.53C7.4066 14.1912 7.36989 13.8185 7.44141 13.4589C7.51294 13.0993 7.6895 12.769 7.94876 12.5097C8.20802 12.2505 8.53834 12.0739 8.89794 12.0024C9.25754 11.9308 9.63028 11.9675 9.96902 12.1079C10.3078 12.2482 10.5973 12.4858 10.801 12.7906C11.0047 13.0955 11.1134 13.4539 11.1134 13.8205C11.1134 14.3122 10.9181 14.7837 10.5704 15.1314C10.2228 15.479 9.75126 15.6744 9.2596 15.6744ZM16.6748 21.2358C16.3082 21.2358 15.9498 21.127 15.6449 20.9233C15.34 20.7196 15.1024 20.4301 14.9621 20.0914C14.8218 19.7526 14.7851 19.3799 14.8566 19.0203C14.9282 18.6607 15.1047 18.3304 15.364 18.0711C15.6232 17.8119 15.9536 17.6353 16.3132 17.5638C16.6728 17.4922 17.0455 17.529 17.3842 17.6693C17.723 17.8096 18.0125 18.0472 18.2162 18.352C18.4199 18.6569 18.5286 19.0153 18.5286 19.382C18.5286 19.8736 18.3333 20.3451 17.9857 20.6928C17.638 21.0405 17.1665 21.2358 16.6748 21.2358ZM17.6017 13.8205C17.4184 13.8205 17.2392 13.7662 17.0868 13.6643C16.9343 13.5625 16.8155 13.4177 16.7454 13.2484C16.6752 13.079 16.6569 12.8926 16.6926 12.7128C16.7284 12.533 16.8167 12.3679 16.9463 12.2382C17.0759 12.1086 17.2411 12.0203 17.4209 11.9846C17.6007 11.9488 17.7871 11.9671 17.9564 12.0373C18.1258 12.1075 18.2706 12.2263 18.3724 12.3787C18.4743 12.5311 18.5286 12.7103 18.5286 12.8936C18.5286 13.1395 18.431 13.3752 18.2571 13.5491C18.0833 13.7229 17.8476 13.8205 17.6017 13.8205Z" fill="black"/>
</g>
<defs>
<clipPath id="clip0_201_5455">
<rect width="29.6609" height="29.6609" fill="white" transform="translate(-0.00939941 0.843994)"/>
</clipPath>
</defs>
</svg>
