<svg width="27" height="31" viewBox="0 0 27 31" fill="none" xmlns="http://www.w3.org/2000/svg">
<g clip-path="url(#clip0_201_5453)">
<path d="M13.1839 21.2357C11.136 21.2357 9.4763 22.8954 9.4763 24.9433C9.4763 26.9912 11.136 28.6509 13.1839 28.6509C15.2318 28.6509 16.8915 26.9912 16.8915 24.9433C16.8915 22.8954 15.2318 21.2357 13.1839 21.2357ZM13.1839 10.1129C15.2318 10.1129 16.8915 8.45312 16.8915 6.40524C16.8915 4.35737 15.2318 2.69763 13.1839 2.69763C11.136 2.69763 9.4763 4.35737 9.4763 6.40524C9.4763 8.45312 11.136 10.1129 13.1839 10.1129ZM24.3067 12.8936H2.06108C1.03743 12.8936 0.207275 13.7237 0.207275 14.7474V16.6012C0.207275 17.6248 1.03743 18.455 2.06108 18.455H24.3067C25.3304 18.455 26.1606 17.6248 26.1606 16.6012V14.7474C26.1606 13.7237 25.3304 12.8936 24.3067 12.8936Z" fill="black"/>
</g>
<defs>
<clipPath id="clip0_201_5453">
<rect width="25.9533" height="29.6609" fill="white" transform="translate(0.207275 0.843994)"/>
</clipPath>
</defs>
</svg>
