<svg width="30" height="31" viewBox="0 0 30 31" fill="none" xmlns="http://www.w3.org/2000/svg">
<g clip-path="url(#clip0_201_5451)">
<path d="M15.0103 1.30725C7.0737 1.30725 0.643311 7.73764 0.643311 15.6742C0.643311 23.6109 7.0737 30.0412 15.0103 30.0412C22.9469 30.0412 29.3773 23.6109 29.3773 15.6742C29.3773 7.73764 22.9469 1.30725 15.0103 1.30725ZM9.44889 13.2759L7.78626 14.9385C6.92887 15.7959 5.59645 14.504 6.47701 13.6293L8.13964 11.9666L6.47701 10.304C5.60803 9.43503 6.92308 8.12578 7.78626 8.99475L9.44889 10.6574L11.1115 8.99475C11.9805 8.12578 13.2897 9.44082 12.4208 10.304L10.7581 11.9666L12.4208 13.6293C13.3013 14.5098 11.9631 15.7959 11.1115 14.9385L9.44889 13.2759ZM15.0103 24.9433C12.9653 24.9433 11.3027 23.2806 11.3027 21.2357C11.3027 19.1907 12.9653 17.5281 15.0103 17.5281C17.0553 17.5281 18.7179 19.1907 18.7179 21.2357C18.7179 23.2806 17.0553 24.9433 15.0103 24.9433ZM23.5436 13.6293C24.4242 14.5098 23.0859 15.7959 22.2344 14.9385L20.5717 13.2759L18.9091 14.9385C18.0517 15.7959 16.7193 14.504 17.5998 13.6293L19.2625 11.9666L17.5998 10.304C16.7309 9.43503 18.0459 8.12578 18.9091 8.99475L20.5717 10.6574L22.2344 8.99475C23.1033 8.12578 24.4126 9.44082 23.5436 10.304L21.881 11.9666L23.5436 13.6293Z" fill="black"/>
</g>
<defs>
<clipPath id="clip0_201_5451">
<rect width="28.734" height="29.6609" fill="white" transform="translate(0.643311 0.843994)"/>
</clipPath>
</defs>
</svg>
