<svg width="35" height="31" viewBox="0 0 35 31" fill="none" xmlns="http://www.w3.org/2000/svg">
<g clip-path="url(#clip0_201_5447)">
<path d="M17.9282 13.8204L26.6145 16.9226V29.5778C26.6145 29.8236 26.5168 30.0594 26.343 30.2332C26.1692 30.407 25.9334 30.5047 25.6876 30.5047H21.98C21.7341 30.5047 21.4984 30.407 21.3246 30.2332C21.1507 30.0594 21.0531 29.8236 21.0531 29.5778V23.0894H11.784V29.5778C11.784 29.8236 11.6864 30.0594 11.5126 30.2332C11.3387 30.407 11.103 30.5047 10.8571 30.5047H7.14953C6.9037 30.5047 6.66794 30.407 6.49411 30.2332C6.32028 30.0594 6.22263 29.8236 6.22263 29.5778V17.1856C4.06989 16.4181 2.51501 14.38 2.51501 11.9666C2.51501 11.4749 2.71033 11.0034 3.05798 10.6558C3.40564 10.3081 3.87716 10.1128 4.36882 10.1128C4.86048 10.1128 5.332 10.3081 5.67966 10.6558C6.02731 11.0034 6.22263 11.4749 6.22263 11.9666C6.22354 12.458 6.41915 12.929 6.76661 13.2764C7.11406 13.6239 7.58505 13.8195 8.07643 13.8204H17.9282ZM32.1759 7.33209V9.1859C32.1759 10.1692 31.7853 11.1123 31.09 11.8076C30.3947 12.5029 29.4516 12.8935 28.4683 12.8935H26.6145V14.9547L19.1993 12.3067V3.62448C19.1993 2.79896 20.1968 2.38533 20.7814 2.96928L22.3617 4.55138H25.4686C26.1006 4.55138 26.8445 5.0102 27.1266 5.57619L27.5414 6.40519H31.249C31.4948 6.40519 31.7306 6.50285 31.9044 6.67667C32.0782 6.8505 32.1759 7.08626 32.1759 7.33209ZM25.6876 7.33209C25.6876 7.14877 25.6332 6.96956 25.5314 6.81713C25.4295 6.6647 25.2848 6.5459 25.1154 6.47575C24.946 6.40559 24.7597 6.38724 24.5799 6.423C24.4 6.45876 24.2349 6.54704 24.1053 6.67667C23.9756 6.8063 23.8874 6.97146 23.8516 7.15126C23.8158 7.33106 23.8342 7.51743 23.9043 7.6868C23.9745 7.85617 24.0933 8.00093 24.2457 8.10278C24.3981 8.20463 24.5774 8.259 24.7607 8.259C25.0065 8.259 25.2423 8.16134 25.4161 7.98751C25.5899 7.81368 25.6876 7.57792 25.6876 7.33209Z" fill="black"/>
</g>
<defs>
<clipPath id="clip0_201_5447">
<rect width="33.3685" height="29.6609" fill="white" transform="translate(0.661499 0.843994)"/>
</clipPath>
</defs>
</svg>
