<svg width="17" height="31" viewBox="0 0 17 31" fill="none" xmlns="http://www.w3.org/2000/svg">
<g clip-path="url(#clip0_201_5445)">
<path d="M12.2662 14.3651L6.0096 12.5344C5.28545 12.3259 4.78145 11.6481 4.78145 10.895C4.78145 9.95069 5.54615 9.186 6.49043 9.186H10.3313C11.038 9.186 11.7332 9.40034 12.3125 9.79428C12.6659 10.0318 13.141 9.97386 13.4422 9.67841L15.4582 7.70875C15.8695 7.30902 15.8116 6.64281 15.3539 6.28943C13.9346 5.17714 12.1619 4.55728 10.3429 4.55148V1.77077C10.3429 1.26098 9.92576 0.843872 9.41597 0.843872H7.56216C7.05236 0.843872 6.63526 1.26098 6.63526 1.77077V4.55148H6.49043C2.8002 4.55148 -0.165892 7.72033 0.175903 11.4801C0.419215 14.1507 2.4584 16.3231 5.03056 17.0763L10.9685 18.8142C11.6927 19.0285 12.1967 19.7006 12.1967 20.4537C12.1967 21.3979 11.432 22.1626 10.4877 22.1626H6.64684C5.94008 22.1626 5.2449 21.9483 4.66559 21.5544C4.31221 21.3168 3.83717 21.3748 3.53593 21.6702L1.51991 23.6399C1.1086 24.0396 1.16653 24.7058 1.62419 25.0592C3.04351 26.1715 4.81621 26.7914 6.63526 26.7971V29.5779C6.63526 30.0877 7.05236 30.5048 7.56216 30.5048H9.41597C9.92576 30.5048 10.3429 30.0877 10.3429 29.5779V26.7856C13.0425 26.7334 15.5741 25.1287 16.4662 22.5739C17.7117 19.0054 15.6204 15.3441 12.2662 14.3651Z" fill="black"/>
</g>
<defs>
<clipPath id="clip0_201_5445">
<rect width="16.6842" height="29.6609" fill="white" transform="translate(0.147217 0.843994)"/>
</clipPath>
</defs>
</svg>
