<svg width="34" height="31" viewBox="0 0 34 31" fill="none" xmlns="http://www.w3.org/2000/svg">
<g clip-path="url(#clip0_201_5441)">
<path d="M17.086 16.9314C18.1288 17.2211 19.0962 17.7077 19.9536 18.3623L29.3096 15.2456C29.7962 15.0834 30.0569 14.5562 29.8947 14.0754L26.3956 3.57824C26.2334 3.09161 25.7062 2.83092 25.2254 2.99313L21.6858 4.17493L23.6033 9.93331L20.0869 11.0977L18.1693 5.33935L14.6008 6.52694C14.1141 6.68915 13.8535 7.21633 14.0157 7.69716L17.086 16.9314ZM33.3648 19.7527L32.7739 17.9916C32.6116 17.5049 32.0845 17.2443 31.6036 17.4065L19.2353 21.5312C18.2389 20.2567 16.7095 19.4225 14.9773 19.3877L9.21894 2.11257C8.96404 1.35367 8.25728 0.843872 7.45782 0.843872H0.969505C0.459709 0.843872 0.0426025 1.26098 0.0426025 1.77077V3.62458C0.0426025 4.13438 0.459709 4.55148 0.969505 4.55148H6.11961L11.4609 20.5811C9.94888 21.7629 9.04515 23.6862 9.37535 25.8239C9.72874 28.1064 11.571 30.0123 13.8535 30.4121C17.3409 31.0319 20.3592 28.3961 20.4229 25.0476L32.7796 20.9229C33.2605 20.7607 33.527 20.2393 33.3648 19.7527ZM14.873 27.7241C13.3379 27.7241 12.0923 26.4785 12.0923 24.9433C12.0923 23.4082 13.3379 22.1626 14.873 22.1626C16.4082 22.1626 17.6538 23.4082 17.6538 24.9433C17.6538 26.4785 16.4082 27.7241 14.873 27.7241Z" fill="black"/>
</g>
<defs>
<clipPath id="clip0_201_5441">
<rect width="33.3685" height="29.6609" fill="white" transform="translate(0.0426025 0.843994)"/>
</clipPath>
</defs>
</svg>
