<svg width="38" height="31" viewBox="0 0 38 31" fill="none" xmlns="http://www.w3.org/2000/svg">
<g clip-path="url(#clip0_201_5443)">
<path d="M12.2908 19.3819H34.5365C35.0463 19.3819 35.4634 18.9648 35.4634 18.455V3.62458C35.4634 3.11478 35.0463 2.69768 34.5365 2.69768H26.1944V10.1129L23.4137 8.25909L20.6329 10.1129V2.69768H12.2908C11.781 2.69768 11.3639 3.11478 11.3639 3.62458V18.455C11.3639 18.9648 11.781 19.3819 12.2908 19.3819ZM36.3903 23.0895H7.65631V1.77077C7.65631 1.26098 7.2392 0.843872 6.72941 0.843872H1.16799C0.658195 0.843872 0.241089 1.26098 0.241089 1.77077V3.62458C0.241089 4.13438 0.658195 4.55148 1.16799 4.55148H3.9487V25.8702C3.9487 26.38 4.36581 26.7971 4.8756 26.7971H9.67812C9.57384 27.0868 9.51012 27.3996 9.51012 27.7241C9.51012 29.2592 10.7556 30.5048 12.2908 30.5048C13.826 30.5048 15.0715 29.2592 15.0715 27.7241C15.0715 27.3996 15.002 27.0868 14.9035 26.7971H26.3682C26.2639 27.0868 26.2002 27.3996 26.2002 27.7241C26.2002 29.2592 27.4457 30.5048 28.9809 30.5048C30.5161 30.5048 31.7616 29.2592 31.7616 27.7241C31.7616 27.3996 31.6921 27.0868 31.5936 26.7971H36.3903C36.9001 26.7971 37.3172 26.38 37.3172 25.8702V24.0164C37.3172 23.5066 36.9001 23.0895 36.3903 23.0895Z" fill="black"/>
</g>
<defs>
<clipPath id="clip0_201_5443">
<rect width="37.0761" height="29.6609" fill="white" transform="translate(0.241089 0.843994)"/>
</clipPath>
</defs>
</svg>
