<svg width="31" height="31" viewBox="0 0 31 31" fill="none" xmlns="http://www.w3.org/2000/svg">
<g clip-path="url(#clip0_201_5439)">
<path d="M15.3822 24.9435C22.0385 24.9435 27.4319 19.5501 27.4319 12.8937C27.4319 6.23741 22.0385 0.843994 15.3822 0.843994C8.72588 0.843994 3.33247 6.23741 3.33247 12.8937C3.33247 19.5501 8.72588 24.9435 15.3822 24.9435ZM14.0961 6.48652V5.51327C14.0961 4.9803 14.5248 4.55161 15.0578 4.55161H15.7008C16.2338 4.55161 16.6625 4.9803 16.6625 5.51327V6.4981C17.5604 6.54445 18.4294 6.85148 19.1535 7.39024C19.478 7.62776 19.5127 8.1028 19.2231 8.38087L18.2788 9.27881C18.0586 9.49316 17.7284 9.49895 17.4677 9.33674C17.1549 9.13977 16.8073 9.04129 16.4366 9.04129H14.183C13.6616 9.04129 13.2387 9.51633 13.2387 10.1014C13.2387 10.5765 13.5284 10.9994 13.9397 11.121L17.5488 12.2043C19.0377 12.6504 20.0804 14.0813 20.0804 15.686C20.0804 17.6557 18.5511 19.2488 16.6567 19.3009V20.2742C16.6567 20.8072 16.228 21.2359 15.695 21.2359H15.052C14.519 21.2359 14.0903 20.8072 14.0903 20.2742V19.2894C13.1924 19.243 12.3234 18.936 11.5993 18.3972C11.2749 18.1597 11.2401 17.6847 11.5298 17.4066L12.474 16.5087C12.6942 16.2943 13.0244 16.2885 13.2851 16.4507C13.5979 16.6477 13.9455 16.7462 14.3163 16.7462H16.5698C17.0912 16.7462 17.5141 16.2711 17.5141 15.686C17.5141 15.211 17.2244 14.7881 16.8131 14.6664L13.204 13.5831C11.7151 13.137 10.6724 11.7061 10.6724 10.1014C10.6782 8.13177 12.2018 6.53865 14.0961 6.48652ZM28.3588 21.2359H26.4761C25.3406 22.7421 23.8923 23.9992 22.2471 24.9435H25.9431C26.2501 24.9435 26.4992 25.152 26.4992 25.4069V26.3338C26.4992 26.5887 26.2501 26.7973 25.9431 26.7973H4.81551C4.50847 26.7973 4.25937 26.5887 4.25937 26.3338V25.4069C4.25937 25.152 4.50847 24.9435 4.81551 24.9435H8.51154C6.86628 23.9992 5.42379 22.7421 4.28254 21.2359H2.40556C1.38018 21.2359 0.551758 22.0643 0.551758 23.0897V28.6511C0.551758 29.6765 1.38018 30.5049 2.40556 30.5049H28.3588C29.3842 30.5049 30.2126 29.6765 30.2126 28.6511V23.0897C30.2126 22.0643 29.3842 21.2359 28.3588 21.2359Z" fill="black"/>
</g>
<defs>
<clipPath id="clip0_201_5439">
<rect width="29.6609" height="29.6609" fill="white" transform="translate(0.551758 0.843994)"/>
</clipPath>
</defs>
</svg>
