<svg width="38" height="31" viewBox="0 0 38 31" fill="none" xmlns="http://www.w3.org/2000/svg">
<g clip-path="url(#clip0_201_5435)">
<path d="M36.8887 26.7972H32.2542V7.41626C32.2542 5.83705 31.0069 4.55155 29.4735 4.55155H22.9852V8.25916H28.5466V30.5048H36.8887C37.4008 30.5048 37.8156 30.09 37.8156 29.5779V27.7241C37.8156 27.212 37.4008 26.7972 36.8887 26.7972ZM18.828 0.902448L7.70518 3.78396C6.87965 3.99772 6.30092 4.7659 6.30092 5.64761V26.7972H1.6664C1.15429 26.7972 0.739502 27.212 0.739502 27.7241V29.5779C0.739502 30.09 1.15429 30.5048 1.6664 30.5048H21.1314V2.7661C21.1314 1.51594 19.9982 0.598888 18.828 0.902448ZM16.0334 17.5282C15.2658 17.5282 14.643 16.698 14.643 15.6744C14.643 14.6507 15.2658 13.8206 16.0334 13.8206C16.801 13.8206 17.4238 14.6507 17.4238 15.6744C17.4238 16.698 16.801 17.5282 16.0334 17.5282Z" fill="black"/>
</g>
<defs>
<clipPath id="clip0_201_5435">
<rect width="37.0761" height="29.6609" fill="white" transform="translate(0.739502 0.843994)"/>
</clipPath>
</defs>
</svg>
