<svg width="38" height="31" viewBox="0 0 38 31" fill="none" xmlns="http://www.w3.org/2000/svg">
<g clip-path="url(#clip0_201_5437)">
<path d="M36.7946 26.7971H30.3063V3.78679C30.3063 2.16355 29.059 0.843872 27.5256 0.843872H10.8407C9.30729 0.843872 8.06003 2.16355 8.06003 3.78679V26.7971H1.57229C1.06017 26.7971 0.645386 27.2119 0.645386 27.7241V29.5779C0.645386 30.09 1.06017 30.5048 1.57229 30.5048H36.7946C37.3067 30.5048 37.7215 30.09 37.7215 29.5779V27.7241C37.7215 27.2119 37.3067 26.7971 36.7946 26.7971ZM24.7443 17.5281C23.7206 17.5281 22.8905 16.698 22.8905 15.6743C22.8905 14.6507 23.7206 13.8205 24.7443 13.8205C25.7679 13.8205 26.5981 14.6507 26.5981 15.6743C26.5987 16.698 25.7685 17.5281 24.7443 17.5281Z" fill="black"/>
</g>
<defs>
<clipPath id="clip0_201_5437">
<rect width="37.0761" height="29.6609" fill="white" transform="translate(0.645508 0.843994)"/>
</clipPath>
</defs>
</svg>
