<svg width="31" height="31" viewBox="0 0 31 31" fill="none" xmlns="http://www.w3.org/2000/svg">
<g clip-path="url(#clip0_201_5431)">
<path d="M17.4418 10.5302V8.9023C15.8081 6.79938 14.7132 4.30833 14.3077 1.64928C14.186 0.867207 13.207 0.56017 12.6972 1.16845C11.4749 2.61094 10.5132 4.30254 9.86436 6.17952C11.8456 8.39829 14.4989 9.92189 17.4418 10.5302ZM23.9301 4.55165C21.3695 4.55165 19.2956 6.63138 19.2956 9.19195V12.6331C13.2476 12.2739 8.11483 8.54891 5.79758 3.26557C5.47895 2.54142 4.45357 2.50087 4.11757 3.21343C3.1559 5.24682 2.61135 7.51773 2.61135 9.91609C2.61135 14.0176 4.58681 17.8469 7.54131 20.6855C8.30601 21.4213 9.05332 22.0296 9.79484 22.5857L1.45851 24.6712C0.838647 24.8276 0.560576 25.546 0.908165 26.0848C1.91617 27.6431 4.40722 30.2848 9.78326 30.5049C10.2467 30.5223 10.7102 30.3543 11.0635 30.0473L14.8407 26.7973H19.2956C24.4167 26.7973 28.5646 22.6552 28.5646 17.5341V8.25926L30.4184 4.55165H23.9301ZM23.9301 10.1189C23.4203 10.1189 23.0032 9.70175 23.0032 9.19195C23.0032 8.68216 23.4203 8.26505 23.9301 8.26505C24.4399 8.26505 24.857 8.68216 24.857 9.19195C24.857 9.70175 24.4399 10.1189 23.9301 10.1189Z" fill="black"/>
</g>
<defs>
<clipPath id="clip0_201_5431">
<rect width="29.6609" height="29.6609" fill="white" transform="translate(0.757568 0.843994)"/>
</clipPath>
</defs>
</svg>
