<svg width="31" height="31" viewBox="0 0 31 31" fill="none" xmlns="http://www.w3.org/2000/svg">
<g clip-path="url(#clip0_201_5427)">
<path d="M27.2511 20.7967C25.7999 21.9745 24.2022 22.9506 22.4695 23.6383L25.6198 29.0948L28.7452 30.4296C29.3135 30.6723 29.9554 30.3015 30.0295 29.6881L30.4362 26.3135L27.2511 20.7967ZM29.7126 15.3187C29.9942 14.8744 29.8221 14.2766 29.3621 14.0217L27.736 13.1197C27.3027 12.8792 26.7738 13.0351 26.5044 13.451C24.1228 17.1314 20.0236 19.3821 15.6063 19.3821C14.22 19.3821 12.8702 19.1358 11.5853 18.7141L15.4876 11.9547C15.5281 11.9558 15.5652 11.9668 15.6057 11.9668C15.6463 11.9668 15.684 11.9558 15.7239 11.9547L18.6836 17.0816C20.4928 16.5625 22.134 15.5899 23.4694 14.2476L20.4691 9.05056C20.9007 8.26095 21.1677 7.36881 21.1677 6.40541C21.1677 3.33389 18.6778 0.843994 15.6063 0.843994C12.5348 0.843994 10.0449 3.33389 10.0449 6.40541C10.0449 7.36881 10.312 8.26095 10.743 9.05056L6.78626 15.9044C6.05923 15.2318 5.39823 14.4799 4.83513 13.6451C4.55764 13.2338 4.02583 13.0878 3.59656 13.3363L1.98896 14.2673C1.5342 14.5303 1.37315 15.1305 1.66223 15.569C2.56422 16.9385 3.67187 18.1302 4.90523 19.1619L0.775879 26.3141L1.18256 29.6886C1.25671 30.3021 1.89859 30.6729 2.4669 30.4302L5.5923 29.0954L9.69384 21.9913C11.5587 22.7004 13.5567 23.0897 15.6063 23.0897C21.3444 23.0897 26.6643 20.1346 29.7126 15.3187ZM15.6063 4.55161C16.63 4.55161 17.4601 5.38176 17.4601 6.40541C17.4601 7.42906 16.63 8.25922 15.6063 8.25922C14.5827 8.25922 13.7525 7.42906 13.7525 6.40541C13.7525 5.38176 14.5827 4.55161 15.6063 4.55161Z" fill="black"/>
</g>
<defs>
<clipPath id="clip0_201_5427">
<rect width="29.6609" height="29.6609" fill="white" transform="translate(0.775879 0.843994)"/>
</clipPath>
</defs>
</svg>
