<svg width="38" height="31" viewBox="0 0 38 31" fill="none" xmlns="http://www.w3.org/2000/svg">
<g clip-path="url(#clip0_201_5425)">
<path d="M1.93093 15.6616L11.9925 13.8182L6.70448 17.7975C6.12053 18.3815 6.53416 19.3796 7.35969 19.3796H20.261C19.7141 17.8502 19.4077 16.2241 19.4077 14.5493V12.1005L12.4716 7.02573C11.0916 6.10578 9.26853 6.21412 8.00736 7.29164L1.20621 14.0314C0.489019 14.6298 1.00635 15.7937 1.93093 15.6616ZM34.1912 17.637L28.3598 14.7225C27.8981 14.4916 27.5097 14.1367 27.2382 13.6976C26.9668 13.2584 26.823 12.7524 26.8229 12.2361V10.1106H30.5305L32.1578 11.4216C32.5054 11.7692 32.977 11.9644 33.4688 11.9644H35.2629C35.6072 11.9644 35.9447 11.8685 36.2375 11.6875C36.5303 11.5065 36.767 11.2475 36.9209 10.9396L37.7499 9.28158C37.9039 8.97366 37.969 8.62896 37.9381 8.2861C37.9072 7.94323 37.7815 7.61574 37.575 7.3403L33.2574 1.58308C32.9069 1.11615 32.3577 0.843872 31.7743 0.843872H18.0185C17.6054 0.843872 17.3986 1.34034 17.6906 1.63232L21.2615 4.54917L17.8099 5.98818C17.4681 6.15908 17.4681 6.64628 17.8099 6.81718L21.2615 8.25678V14.5493C21.2615 18.725 23.3488 22.6243 26.8229 24.941C15.4921 25.3355 6.86206 27.3168 1.67488 28.4696C1.20447 28.5739 0.869629 28.9916 0.869629 29.4736C0.869629 30.0413 1.33018 30.5048 1.89849 30.5048H30.8109C34.4774 30.5053 37.7401 27.7495 37.9359 24.0883C38.0819 21.3493 36.6191 18.8513 34.1912 17.637ZM29.2085 4.68183L31.8531 5.34283C31.6938 5.97486 31.1307 6.43715 30.4552 6.40065C29.7044 6.35952 28.9577 5.67477 29.2085 4.68183Z" fill="black"/>
</g>
<defs>
<clipPath id="clip0_201_5425">
<rect width="37.0761" height="29.6609" fill="white" transform="translate(0.869629 0.843994)"/>
</clipPath>
</defs>
</svg>
