<svg width="27" height="31" viewBox="0 0 27 31" fill="none" xmlns="http://www.w3.org/2000/svg">
<g clip-path="url(#clip0_201_5423)">
<path d="M22.3321 21.2357C22.3118 21.2357 22.2933 21.2415 22.273 21.2415L20.0021 17.4574C20.2958 16.9262 20.4783 16.3243 20.4783 15.6743C20.4783 15.0243 20.2964 14.4224 20.0021 13.8911L22.273 10.1071C22.2933 10.1076 22.3118 10.1129 22.3321 10.1129C24.38 10.1129 26.0397 8.45312 26.0397 6.40524C26.0397 4.35737 24.38 2.69763 22.3321 2.69763C20.9632 2.69763 19.7808 3.44784 19.1389 4.55144H6.98722C6.34534 3.44784 5.16296 2.69763 3.79404 2.69763C1.74616 2.69763 0.0864258 4.35737 0.0864258 6.40524C0.0864258 7.77416 0.836638 8.95654 1.94023 9.59842V21.7495C0.836638 22.392 0.0864258 23.5744 0.0864258 24.9433C0.0864258 26.9912 1.74616 28.6509 3.79404 28.6509C5.16296 28.6509 6.34534 27.9007 6.98722 26.7971H19.1383C19.7808 27.9007 20.9626 28.6509 22.3315 28.6509C24.3794 28.6509 26.0391 26.9912 26.0391 24.9433C26.0397 22.8954 24.38 21.2357 22.3321 21.2357ZM5.64784 21.7501V9.59842C6.20302 9.27584 6.66463 8.81423 6.98722 8.25905H19.0578L16.8298 11.9725C16.8095 11.9719 16.791 11.9667 16.7707 11.9667C14.7228 11.9667 13.0631 13.6264 13.0631 15.6743C13.0631 17.7221 14.7228 19.3819 16.7707 19.3819C16.791 19.3819 16.8095 19.3761 16.8298 19.3761L19.0578 23.0895H6.98722C6.66479 22.5342 6.20315 22.0725 5.64784 21.7501ZM15.8438 15.6743C15.8438 15.1633 16.2597 14.7474 16.7707 14.7474C17.2816 14.7474 17.6976 15.1633 17.6976 15.6743C17.6976 16.1852 17.2816 16.6012 16.7707 16.6012C16.2597 16.6012 15.8438 16.1852 15.8438 15.6743ZM23.259 6.40524C23.259 6.9162 22.843 7.33215 22.3321 7.33215C21.8211 7.33215 21.4052 6.9162 21.4052 6.40524C21.4052 5.89429 21.8211 5.47834 22.3321 5.47834C22.843 5.47834 23.259 5.89429 23.259 6.40524ZM3.79404 5.47834C4.30499 5.47834 4.72094 5.89429 4.72094 6.40524C4.72094 6.9162 4.30499 7.33215 3.79404 7.33215C3.28308 7.33215 2.86713 6.9162 2.86713 6.40524C2.86713 5.89429 3.28308 5.47834 3.79404 5.47834ZM2.86713 24.9433C2.86713 24.4323 3.28308 24.0164 3.79404 24.0164C4.30499 24.0164 4.72094 24.4323 4.72094 24.9433C4.72094 25.4543 4.30499 25.8702 3.79404 25.8702C3.28308 25.8702 2.86713 25.4543 2.86713 24.9433ZM22.3321 25.8702C21.8211 25.8702 21.4052 25.4543 21.4052 24.9433C21.4052 24.4323 21.8211 24.0164 22.3321 24.0164C22.843 24.0164 23.259 24.4323 23.259 24.9433C23.259 25.4543 22.843 25.8702 22.3321 25.8702Z" fill="black"/>
</g>
<defs>
<clipPath id="clip0_201_5423">
<rect width="25.9533" height="29.6609" fill="white" transform="translate(0.0864258 0.843994)"/>
</clipPath>
</defs>
</svg>
