<svg width="35" height="31" viewBox="0 0 35 31" fill="none" xmlns="http://www.w3.org/2000/svg">
<g clip-path="url(#clip0_201_5421)">
<path d="M17.5721 2.69763C8.3575 2.69763 0.887817 6.01768 0.887817 10.1129V21.2357C0.887817 25.3309 8.3575 28.6509 17.5721 28.6509C26.7866 28.6509 34.2563 25.3309 34.2563 21.2357V10.1129C34.2563 6.01768 26.7866 2.69763 17.5721 2.69763ZM12.7643 11.8717C12.5065 12.8339 11.922 13.6426 11.1243 14.2167C6.69428 13.4416 3.66853 11.896 3.66853 10.1129C3.66853 8.36564 6.57147 6.8461 10.8543 6.05592L12.3374 8.6246C12.9086 9.61464 13.0604 10.7675 12.7643 11.8717ZM17.5721 14.7474C16.3509 14.7474 15.1731 14.6894 14.0446 14.591C14.5115 13.0772 15.9071 11.9667 17.5721 11.9667C19.237 11.9667 20.6326 13.0772 21.0995 14.591C19.971 14.6894 18.7933 14.7474 17.5721 14.7474ZM21.2797 6.40524C21.2797 8.44964 19.6165 10.1129 17.5721 10.1129C15.5277 10.1129 13.8645 8.44964 13.8645 6.40524V5.64982C15.0463 5.54091 16.286 5.47834 17.5721 5.47834C18.8581 5.47834 20.0979 5.54091 21.2797 5.64982V6.40524ZM23.9984 14.2202C23.1984 13.6461 22.6115 12.8356 22.3531 11.8717C22.0571 10.7675 22.2089 9.61464 22.7807 8.62518L24.2666 6.05186C28.5628 6.83973 31.4756 8.36275 31.4756 10.1129C31.4756 11.8989 28.44 13.4462 23.9984 14.2202Z" fill="black"/>
</g>
<defs>
<clipPath id="clip0_201_5421">
<rect width="33.3685" height="29.6609" fill="white" transform="translate(0.887939 0.843994)"/>
</clipPath>
</defs>
</svg>
