<svg width="31" height="31" viewBox="0 0 31 31" fill="none" xmlns="http://www.w3.org/2000/svg">
<g clip-path="url(#clip0_201_5417)">
<path d="M27.7161 3.71553C25.8756 1.87689 23.3804 0.844116 20.7789 0.844116C18.1773 0.844116 15.6821 1.87689 13.8416 3.71553C11.7862 5.76804 10.182 8.25909 10.182 11.9667V16.939L7.82887 19.2904C7.26693 19.8517 6.43851 19.9317 5.69815 19.638C4.95057 19.3395 4.12287 19.3082 3.35489 19.5494C2.5869 19.7906 1.92572 20.2895 1.48304 20.9618C1.04037 21.6341 0.843341 22.4386 0.925251 23.2394C1.00716 24.0402 1.36298 24.7882 1.93261 25.357C2.81722 26.2404 4.04768 26.4901 5.18372 26.23C4.92303 27.3655 5.17329 28.5953 6.05848 29.4799C6.62707 30.0511 7.37552 30.4083 8.17718 30.4911C8.97884 30.5738 9.78448 30.3771 10.4578 29.9341C11.131 29.4912 11.6306 28.8292 11.8719 28.0603C12.1133 27.2913 12.0815 26.4626 11.7821 25.7144C11.4872 24.9769 11.5666 24.1503 12.1297 23.5854L14.4823 21.2357H19.458C20.6772 21.2448 21.8892 21.049 23.0434 20.6564C20.747 18.1138 20.736 14.2706 23.1042 11.9047C25.0959 9.91419 28.1304 9.61874 30.5623 10.9315C30.6376 8.32687 29.7043 5.70142 27.7161 3.71553Z" fill="black"/>
</g>
<defs>
<clipPath id="clip0_201_5417">
<rect width="29.6609" height="29.6609" fill="white" transform="translate(0.906128 0.843994)"/>
</clipPath>
</defs>
</svg>
