<svg width="38" height="30" viewBox="0 0 38 30" fill="none" xmlns="http://www.w3.org/2000/svg">
<g clip-path="url(#clip0_201_5413)">
<path d="M25.188 6.21365L25.1996 6.20207L24.3654 2.03101H18.5433V9.44623H22.0655C23.004 8.32815 24.0468 7.23325 25.188 6.21365ZM16.6895 2.0368H10.8674L9.38432 9.45202H16.6895V2.0368ZM27.6559 6.21365C28.7102 7.15794 29.7125 8.16594 30.6162 9.19712C30.9464 8.87271 31.2766 8.55408 31.6184 8.25284L32.8523 7.15214L34.0863 8.25284C34.15 8.30498 34.2079 8.3745 34.2659 8.43243C34.2601 8.38608 34.2775 8.34553 34.2659 8.29919L32.8755 2.73777C32.777 2.32646 32.4063 2.0368 31.9834 2.0368H26.254L26.9665 5.59958L27.6559 6.21365ZM1.85903 9.45202H7.49576L8.9788 2.0368H3.24939C2.82649 2.0368 2.45573 2.32646 2.35145 2.73777L0.961095 8.29919C0.816266 8.88429 1.25654 9.45202 1.85903 9.45202ZM20.6636 11.3058H2.78593L3.01766 13.1596H1.85903C1.34924 13.1596 0.932129 13.5767 0.932129 14.0865V15.9403C0.932129 16.4501 1.34924 16.8672 1.85903 16.8672H3.48111L4.63974 26.1363V27.0632C4.63974 27.573 5.05685 27.9901 5.56664 27.9901H7.42045C7.93025 27.9901 8.34735 27.573 8.34735 27.0632V26.1363H20.4434C18.6939 24.184 17.6164 21.6234 17.6164 18.8137C17.6164 16.734 18.7692 14.0112 20.6636 11.3058ZM32.8581 9.6374C31.995 10.4079 31.2187 11.2131 30.5293 12.0242C29.3996 10.5295 28.0035 9.01174 26.4162 7.59822C22.3494 11.2305 19.4644 15.9577 19.4644 18.8137C19.4644 23.8827 23.6123 27.9901 28.7334 27.9901C33.8546 27.9901 38.0024 23.8827 38.0024 18.8137C38.0082 16.6935 35.859 12.3138 32.8581 9.6374ZM31.7806 22.9269C30.929 23.5467 29.8747 23.9117 28.7392 23.9117C25.9006 23.9117 23.5891 21.971 23.5891 18.8137C23.5891 17.2438 24.545 15.8592 26.4509 13.4898C26.7232 13.8143 30.3381 18.5936 30.3381 18.5936L32.6438 15.8708C32.806 16.1489 32.9566 16.4212 33.0899 16.6819C34.1674 18.8079 33.7155 21.5249 31.7806 22.9269Z" fill="black"/>
</g>
<defs>
<clipPath id="clip0_201_5413">
<rect width="37.0761" height="29.6609" fill="white" transform="translate(0.932129 0.183105)"/>
</clipPath>
</defs>
</svg>
