<svg width="35" height="30" viewBox="0 0 35 30" fill="none" xmlns="http://www.w3.org/2000/svg">
<g clip-path="url(#clip0_201_5411)">
<path d="M33.1752 9.45197C33.7777 9.45197 34.218 8.88424 34.0732 8.29913L32.6828 2.73771C32.5785 2.3264 32.2078 2.03674 31.7849 2.03674H26.0555L27.5385 9.45197H33.1752ZM16.491 2.03674H10.6689L9.18584 9.45197H16.491V2.03674ZM24.1669 2.03674H18.3448V9.45197H25.6499L24.1669 2.03674ZM1.66055 9.45197H7.29727L8.78032 2.03674H3.0509C2.628 2.03674 2.25724 2.3264 2.15296 2.73771L0.762608 8.29913C0.61778 8.88424 1.05806 9.45197 1.66055 9.45197ZM33.1752 13.1596H32.0166L32.2483 11.3058H2.58745L2.81917 13.1596H1.66055C1.15075 13.1596 0.733643 13.5767 0.733643 14.0865V15.9403C0.733643 16.4501 1.15075 16.8672 1.66055 16.8672H3.28263L4.44125 26.1362V27.0631C4.44125 27.5729 4.85836 27.99 5.36816 27.99H7.22196C7.73176 27.99 8.14886 27.5729 8.14886 27.0631V26.1362H26.6869V27.0631C26.6869 27.5729 27.104 27.99 27.6138 27.99H29.4676C29.9774 27.99 30.3945 27.5729 30.3945 27.0631V26.1362L31.5532 16.8672H33.1752C33.685 16.8672 34.1021 16.4501 34.1021 15.9403V14.0865C34.1021 13.5767 33.685 13.1596 33.1752 13.1596Z" fill="black"/>
</g>
<defs>
<clipPath id="clip0_201_5411">
<rect width="33.3685" height="29.6609" fill="white" transform="translate(0.733643 0.183105)"/>
</clipPath>
</defs>
</svg>
