<svg width="34" height="30" viewBox="0 0 34 30" fill="none" xmlns="http://www.w3.org/2000/svg">
<g clip-path="url(#clip0_201_5407)">
<path d="M23.3675 5.00307L28.5929 10.2285C28.8131 10.4486 28.8131 10.8078 28.5929 11.0279L15.9407 23.6802L10.5647 24.2768C9.84631 24.358 9.23803 23.7497 9.31913 23.0313L9.91583 17.6553L22.568 5.00307C22.7882 4.78293 23.1474 4.78293 23.3675 5.00307ZM32.7524 3.67644L29.9253 0.849383C29.0448 -0.0311746 27.6139 -0.0311746 26.7275 0.849383L24.6768 2.90016C24.4566 3.1203 24.4566 3.47947 24.6768 3.69961L29.9022 8.92502C30.1223 9.14516 30.4815 9.14516 30.7016 8.92502L32.7524 6.87425C33.6329 5.9879 33.6329 4.55699 32.7524 3.67644ZM22.29 20.239V26.1364H3.75192V7.59839H17.0646C17.2499 7.59839 17.4237 7.52308 17.557 7.39563L19.8742 5.07838C20.3145 4.6381 20.0017 3.89078 19.3818 3.89078H2.82502C1.28984 3.89078 0.0443115 5.13631 0.0443115 6.67149V27.0634C0.0443115 28.5985 1.28984 29.8441 2.82502 29.8441H23.2169C24.7521 29.8441 25.9976 28.5985 25.9976 27.0634V17.9218C25.9976 17.3019 25.2503 16.9949 24.81 17.4294L22.4927 19.7466C22.3653 19.8799 22.29 20.0536 22.29 20.239Z" fill="black"/>
</g>
<defs>
<clipPath id="clip0_201_5407">
<rect width="33.3685" height="29.6609" fill="white" transform="translate(0.0443115 0.183105)"/>
</clipPath>
</defs>
</svg>
