<svg width="27" height="30" viewBox="0 0 27 30" fill="none" xmlns="http://www.w3.org/2000/svg">
<g clip-path="url(#clip0_201_5403)">
<path d="M26.1386 22.4288V26.1364C26.1386 27.1603 25.3086 27.9902 24.2848 27.9902H2.03912C1.0153 27.9902 0.185315 27.1603 0.185315 26.1364V22.4288C0.185315 21.405 1.0153 20.575 2.03912 20.575H24.2848C25.3086 20.575 26.1386 21.405 26.1386 22.4288ZM2.96909 18.7212H23.3544C25.7673 18.7212 27.0377 15.8435 25.4041 14.0615L15.2117 2.93826C14.1102 1.73659 12.2137 1.73653 11.1121 2.93826L0.919306 14.0615C-0.711173 15.8402 0.551674 18.7212 2.96909 18.7212Z" fill="black"/>
</g>
<defs>
<clipPath id="clip0_201_5403">
<rect width="25.9533" height="29.6609" fill="white" transform="translate(0.185303 0.183105)"/>
</clipPath>
</defs>
</svg>
