<svg width="12" height="30" viewBox="0 0 12 30" fill="none" xmlns="http://www.w3.org/2000/svg">
<g clip-path="url(#clip0_201_5399)">
<path d="M6.30235 10.8425C8.60802 10.8425 10.4734 12.7079 10.4734 15.0136C10.4734 17.3193 8.60802 19.1847 6.30235 19.1847C3.99668 19.1847 2.13129 17.3193 2.13129 15.0136C2.13129 12.7079 3.99668 10.8425 6.30235 10.8425ZM2.13129 4.81767C2.13129 7.12334 3.99668 8.98873 6.30235 8.98873C8.60802 8.98873 10.4734 7.12334 10.4734 4.81767C10.4734 2.512 8.60802 0.646606 6.30235 0.646606C3.99668 0.646606 2.13129 2.512 2.13129 4.81767ZM2.13129 25.2095C2.13129 27.5152 3.99668 29.3806 6.30235 29.3806C8.60802 29.3806 10.4734 27.5152 10.4734 25.2095C10.4734 22.9039 8.60802 21.0385 6.30235 21.0385C3.99668 21.0385 2.13129 22.9039 2.13129 25.2095Z" fill="black"/>
</g>
<defs>
<clipPath id="clip0_201_5399">
<rect width="11.1228" height="29.6609" fill="white" transform="translate(0.741577 0.183105)"/>
</clipPath>
</defs>
</svg>
