<svg width="31" height="30" viewBox="0 0 31 30" fill="none" xmlns="http://www.w3.org/2000/svg">
<g clip-path="url(#clip0_201_5395)">
<path d="M30.4208 27.0633C30.4208 28.5991 29.1759 29.844 27.6401 29.844H3.54066C2.00489 29.844 0.759949 28.5991 0.759949 27.0633V11.8113C0.759954 11.3897 0.855854 10.9735 1.04039 10.5944C1.22493 10.2153 1.49328 9.88306 1.82513 9.62292C3.26838 8.49158 4.46107 7.57418 11.3375 2.58362C12.3122 1.87297 14.2462 0.163012 15.5904 0.183288C16.9343 0.162781 18.8691 1.87326 19.8433 2.58356C26.719 7.5736 27.9133 8.49228 29.3557 9.62292C29.6875 9.88306 29.9559 10.2153 30.1404 10.5944C30.3249 10.9735 30.4208 11.3897 30.4208 11.8113V27.0633ZM26.6167 15.6737C26.4682 15.4577 26.1706 15.4075 25.9598 15.5632C24.6364 16.5407 22.7468 17.9213 19.8433 20.0285C18.8686 20.7391 16.9346 22.4489 15.5904 22.4286C14.2457 22.4485 12.3139 20.7403 11.3375 20.0285C8.4343 17.9215 6.54457 16.5408 5.22096 15.5632C5.01015 15.4075 4.71255 15.4577 4.56407 15.6737L4.03852 16.4382C3.9704 16.5372 3.94343 16.6588 3.96331 16.7774C3.98319 16.8959 4.04836 17.0021 4.14506 17.0735C5.47093 18.0525 7.35758 19.4307 10.2454 21.5266C11.4199 22.3828 13.5199 24.2964 15.5904 24.2825C17.6599 24.2965 19.7592 22.3841 20.9353 21.5266C23.8232 19.4307 25.7099 18.0524 27.0357 17.0735C27.1324 17.0021 27.1975 16.8959 27.2174 16.7774C27.2373 16.6588 27.2103 16.5372 27.1422 16.4382L26.6167 15.6737Z" fill="black"/>
</g>
<defs>
<clipPath id="clip0_201_5395">
<rect width="29.6609" height="29.6609" fill="white" transform="translate(0.759888 0.183105)"/>
</clipPath>
</defs>
</svg>
