<svg width="30" height="30" viewBox="0 0 30 30" fill="none" xmlns="http://www.w3.org/2000/svg">
<g clip-path="url(#clip0_201_5397)">
<path d="M10.4467 12.6961H19.7157C20.2278 12.6961 20.6426 12.2813 20.6426 11.7692V10.8423C20.6426 10.3302 20.2278 9.9154 19.7157 9.9154H10.4467C9.93455 9.9154 9.51976 10.3302 9.51976 10.8423V11.7692C9.51976 12.2813 9.93455 12.6961 10.4467 12.6961ZM9.51976 17.3306C9.51976 17.8427 9.93455 18.2575 10.4467 18.2575H19.7157C20.2278 18.2575 20.6426 17.8427 20.6426 17.3306V16.4037C20.6426 15.8916 20.2278 15.4768 19.7157 15.4768H10.4467C9.93455 15.4768 9.51976 15.8916 9.51976 16.4037V17.3306ZM15.0812 24.3479C14.1299 24.3479 13.1787 24.0547 12.3665 23.4679L0.250732 14.7156V27.0631C0.250732 28.5989 1.49568 29.8438 3.03144 29.8438H27.1309C28.6667 29.8438 29.9116 28.5989 29.9116 27.0631V14.7156L17.7958 23.4679C16.9836 24.0541 16.0324 24.3479 15.0812 24.3479ZM28.8463 9.62284C28.3336 9.2208 27.8475 8.84251 27.1309 8.30143V5.74433C27.1309 4.20857 25.886 2.96363 24.3502 2.96363H19.8576C19.6815 2.83618 19.5176 2.71684 19.3339 2.5836C18.3601 1.87278 16.4252 0.162642 15.0812 0.182918C13.7372 0.162642 11.8028 1.87278 10.8284 2.5836C10.6448 2.71684 10.4808 2.83618 10.3047 2.96363H5.81215C4.27639 2.96363 3.03144 4.20857 3.03144 5.74433V8.30143C2.31483 8.84193 1.82878 9.2208 1.31609 9.62284C0.984236 9.88291 0.715872 10.2151 0.531302 10.5941C0.346732 10.9732 0.25079 11.3893 0.250732 11.8109L0.250732 12.4279L5.81215 16.4454V5.74433H24.3502V16.4454L29.9116 12.4279V11.8109C29.9116 10.957 29.5188 10.15 28.8463 9.62284Z" fill="black"/>
</g>
<defs>
<clipPath id="clip0_201_5397">
<rect width="29.6609" height="29.6609" fill="white" transform="translate(0.250732 0.183105)"/>
</clipPath>
</defs>
</svg>
