<svg width="31" height="30" viewBox="0 0 31 30" fill="none" xmlns="http://www.w3.org/2000/svg">
<g clip-path="url(#clip0_201_5391)">
<path d="M29.5848 11.2365C29.8107 11.0569 30.1467 11.2249 30.1467 11.5087V23.3557C30.1467 24.8909 28.9012 26.1364 27.366 26.1364H3.26655C1.73137 26.1364 0.48584 24.8909 0.48584 23.3557V11.5145C0.48584 11.2249 0.816049 11.0627 1.04777 11.2422C2.34544 12.2503 4.066 13.5305 9.97501 17.8233C11.1974 18.7154 13.2597 20.5924 15.3163 20.5808C17.3844 20.5982 19.4873 18.6806 20.6634 17.8233C26.5724 13.5305 28.2871 12.2445 29.5848 11.2365ZM15.3163 18.7212C16.6603 18.7444 18.5952 17.0296 19.5685 16.3228C27.2559 10.744 27.8411 10.2574 29.6138 8.86706C29.9498 8.60636 30.1467 8.20084 30.1467 7.77215V6.67146C30.1467 5.13627 28.9012 3.89075 27.366 3.89075H3.26655C1.73137 3.89075 0.48584 5.13627 0.48584 6.67146V7.77215C0.48584 8.20084 0.682807 8.60057 1.01881 8.86706C2.79151 10.2516 3.37662 10.744 11.0641 16.3228C12.0374 17.0296 13.9723 18.7444 15.3163 18.7212Z" fill="black"/>
</g>
<defs>
<clipPath id="clip0_201_5391">
<rect width="29.6609" height="29.6609" fill="white" transform="translate(0.485718 0.183105)"/>
</clipPath>
</defs>
</svg>
