<svg width="31" height="30" viewBox="0 0 31 30" fill="none" xmlns="http://www.w3.org/2000/svg">
<g clip-path="url(#clip0_201_5385)">
<path d="M29.4547 11.306H26.674V8.52526C26.674 8.01546 26.2569 7.59836 25.7471 7.59836H22.9664V4.81765C22.9664 4.30785 22.5493 3.89075 22.0395 3.89075H9.06283C8.55303 3.89075 8.13593 4.30785 8.13593 4.81765V7.59836H5.35522C4.84542 7.59836 4.42831 8.01546 4.42831 8.52526V11.306H1.64761C1.13781 11.306 0.720703 11.7231 0.720703 12.2329V25.2095C0.720703 25.7193 1.13781 26.1364 1.64761 26.1364H6.28212V18.7212H8.13593V26.1364H11.8435V18.7212H13.6973V26.1364H17.405V18.7212H19.2588V26.1364H22.9664V18.7212H24.8202V26.1364H29.4547C29.9645 26.1364 30.3816 25.7193 30.3816 25.2095V12.2329C30.3816 11.7231 29.9645 11.306 29.4547 11.306Z" fill="black"/>
</g>
<defs>
<clipPath id="clip0_201_5385">
<rect width="29.6609" height="29.6609" fill="white" transform="translate(0.720703 0.183105)"/>
</clipPath>
</defs>
</svg>
