<svg width="31" height="30" viewBox="0 0 31 30" fill="none" xmlns="http://www.w3.org/2000/svg">
<g clip-path="url(#clip0_201_5381)">
<path d="M0.861572 9.91561V8.98871C0.861572 8.22083 1.48405 7.59835 2.25193 7.59835H23.1072V4.81764C23.1072 3.57982 24.6076 2.96141 25.4807 3.83449L30.1153 8.469C30.6582 9.012 30.6582 9.89232 30.1153 10.4353L25.4807 15.0698C24.6109 15.9394 23.1072 15.3296 23.1072 14.0867V11.306H2.25193C1.48405 11.306 0.861572 10.6835 0.861572 9.91561ZM29.1321 18.7212H8.27679V15.9405C8.27679 14.7057 6.77857 14.082 5.90329 14.9573L1.26877 19.5918C0.725839 20.1348 0.725839 21.0152 1.26877 21.5581L5.90329 26.1926C6.77388 27.0631 8.27679 26.4514 8.27679 25.2095V22.4288H29.1321C29.9 22.4288 30.5225 21.8063 30.5225 21.0384V20.1115C30.5225 19.3437 29.9 18.7212 29.1321 18.7212Z" fill="black"/>
</g>
<defs>
<clipPath id="clip0_201_5381">
<rect width="29.6609" height="29.6609" fill="white" transform="translate(0.861694 0.183105)"/>
</clipPath>
</defs>
</svg>
