<svg width="34" height="30" viewBox="0 0 34 30" fill="none" xmlns="http://www.w3.org/2000/svg">
<g clip-path="url(#clip0_201_5377)">
<path d="M33.1653 25.6737C34.2346 27.5271 32.8924 29.844 30.7567 29.844H2.95622C0.816404 29.844 -0.519611 27.5236 0.547602 25.6737L14.448 1.57259C15.5178 -0.281736 18.1973 -0.278376 19.2652 1.57259L33.1653 25.6737ZM16.8566 20.6908C15.3849 20.6908 14.1918 21.8839 14.1918 23.3557C14.1918 24.8274 15.3849 26.0205 16.8566 26.0205C18.3284 26.0205 19.5215 24.8274 19.5215 23.3557C19.5215 21.8839 18.3284 20.6908 16.8566 20.6908ZM14.3266 11.1121L14.7563 18.9908C14.7764 19.3594 15.0813 19.6481 15.4505 19.6481H18.2628C18.632 19.6481 18.9368 19.3594 18.9569 18.9908L19.3867 11.1121C19.4084 10.7139 19.0913 10.379 18.6925 10.379H15.0207C14.6219 10.379 14.3049 10.7139 14.3266 11.1121Z" fill="black"/>
</g>
<defs>
<clipPath id="clip0_201_5377">
<rect width="33.3685" height="29.6609" fill="white" transform="translate(0.172363 0.183105)"/>
</clipPath>
</defs>
</svg>
