<svg width="12" height="30" viewBox="0 0 12 30" fill="none" xmlns="http://www.w3.org/2000/svg">
<g clip-path="url(#clip0_201_5375)">
<path d="M10.4162 25.2095C10.4162 27.765 8.3372 29.844 5.78173 29.844C3.22626 29.844 1.14722 27.765 1.14722 25.2095C1.14722 22.654 3.22626 20.575 5.78173 20.575C8.3372 20.575 10.4162 22.654 10.4162 25.2095ZM1.68366 1.64292L2.47153 17.4003C2.50855 18.1402 3.11926 18.7212 3.86015 18.7212H7.70332C8.4442 18.7212 9.05491 18.1402 9.09193 17.4003L9.8798 1.64292C9.91948 0.848737 9.28635 0.183105 8.49118 0.183105H3.07228C2.27711 0.183105 1.64398 0.848737 1.68366 1.64292Z" fill="black"/>
</g>
<defs>
<clipPath id="clip0_201_5375">
<rect width="11.1228" height="29.6609" fill="white" transform="translate(0.219482 0.183105)"/>
</clipPath>
</defs>
</svg>
