<svg width="27" height="30" viewBox="0 0 27 30" fill="none" xmlns="http://www.w3.org/2000/svg">
<g clip-path="url(#clip0_201_5373)">
<path d="M12.7575 18.4498L7.38805 23.8192L9.29527 25.6168C10.1712 26.4927 9.55086 27.9903 8.31217 27.9903H1.82385C1.05597 27.9903 0.436279 27.3678 0.436279 26.5999V20.1116C0.436279 18.8729 1.93108 18.2526 2.80695 19.1284L4.60734 21.0385L9.97677 15.6691C10.3387 15.3071 10.9256 15.3071 11.2876 15.6691L12.7575 17.139C13.1195 17.5009 13.1195 18.0878 12.7575 18.4498ZM14.0684 11.5775L19.4378 6.20805L17.5306 4.4105C16.6546 3.53457 17.275 2.03699 18.5137 2.03699H25.002C25.7699 2.03699 26.3896 2.65946 26.3896 3.42734V9.91566C26.3896 11.1544 24.8948 11.7747 24.0189 10.8988L22.2185 8.98876L16.8491 14.3582C16.4871 14.7201 15.9002 14.7201 15.5382 14.3582L14.0684 12.8883C13.7063 12.5263 13.7063 11.9395 14.0684 11.5775Z" fill="black"/>
</g>
<defs>
<clipPath id="clip0_201_5373">
<rect width="25.9533" height="29.6609" fill="white" transform="translate(0.436279 0.183105)"/>
</clipPath>
</defs>
</svg>
