<svg width="27" height="30" viewBox="0 0 27 30" fill="none" xmlns="http://www.w3.org/2000/svg">
<g clip-path="url(#clip0_201_5371)">
<path d="M26.6062 20.1116V26.5999C26.6067 26.7826 26.571 26.9636 26.5013 27.1325C26.4316 27.3014 26.3292 27.4549 26.2 27.5841C26.0708 27.7133 25.9174 27.8157 25.7485 27.8854C25.5796 27.9551 25.3986 27.9907 25.2159 27.9903H18.7276C17.4884 27.9903 16.8685 26.4898 17.7427 25.6151L19.8398 23.518L13.6296 17.3077L7.41761 23.5238L9.51647 25.6151C10.3907 26.4898 9.77078 27.9903 8.53163 27.9903H2.04331C1.8606 27.9907 1.6796 27.9551 1.51071 27.8854C1.34181 27.8157 1.18836 27.7133 1.05916 27.5841C0.929964 27.4549 0.827568 27.3014 0.757859 27.1325C0.68815 26.9636 0.6525 26.7826 0.652958 26.5999V20.1116C0.652958 18.8719 2.1528 18.252 3.02815 19.1268L5.12468 21.2239L11.339 15.0136L5.12411 8.79759L3.02815 10.9005C2.15338 11.7753 0.652958 11.1554 0.652958 9.91566V3.42735C0.6525 3.24463 0.68815 3.06363 0.757859 2.89474C0.827568 2.72585 0.929964 2.57239 1.05916 2.44319C1.18836 2.314 1.34181 2.2116 1.51071 2.14189C1.6796 2.07218 1.8606 2.03653 2.04331 2.03699H8.53163C9.77078 2.03699 10.3907 3.53742 9.51647 4.41218L7.41935 6.5093L13.6296 12.7195L19.8416 6.5035L17.7427 4.41218C16.8685 3.53742 17.4884 2.03699 18.7276 2.03699H25.2159C25.3986 2.03653 25.5796 2.07218 25.7485 2.14189C25.9174 2.2116 26.0708 2.314 26.2 2.44319C26.3292 2.57239 26.4316 2.72585 26.5013 2.89474C26.571 3.06363 26.6067 3.24463 26.6062 3.42735V9.91566C26.6062 11.1554 25.1064 11.7753 24.231 10.9005L22.1345 8.80338L15.9202 15.0136L22.1351 21.2297L24.231 19.1326C25.1058 18.252 26.6062 18.8719 26.6062 20.1116Z" fill="black"/>
</g>
<defs>
<clipPath id="clip0_201_5371">
<rect width="25.9533" height="29.6609" fill="white" transform="translate(0.652954 0.183105)"/>
</clipPath>
</defs>
</svg>
