<svg width="27" height="30" viewBox="0 0 27 30" fill="none" xmlns="http://www.w3.org/2000/svg">
<g clip-path="url(#clip0_201_5369)">
<path d="M0.869629 10.6108V3.42734C0.869629 2.65685 1.4895 2.03699 2.25998 2.03699H9.44348C9.82583 2.03699 10.1387 2.34982 10.1387 2.73216V5.04942C10.1387 5.43177 9.82583 5.7446 9.44348 5.7446H4.57724V10.6108C4.57724 10.9932 4.26441 11.306 3.88206 11.306H1.56481C1.18246 11.306 0.869629 10.9932 0.869629 10.6108ZM17.5539 2.73216V5.04942C17.5539 5.43177 17.8667 5.7446 18.2491 5.7446H23.1153V10.6108C23.1153 10.9932 23.4281 11.306 23.8105 11.306H26.1277C26.5101 11.306 26.8229 10.9932 26.8229 10.6108V3.42734C26.8229 2.65685 26.203 2.03699 25.4326 2.03699H18.2491C17.8667 2.03699 17.5539 2.34982 17.5539 2.73216ZM26.1277 18.7212H23.8105C23.4281 18.7212 23.1153 19.0341 23.1153 19.4164V24.2827H18.2491C17.8667 24.2827 17.5539 24.5955 17.5539 24.9778V27.2951C17.5539 27.6774 17.8667 27.9903 18.2491 27.9903H25.4326C26.203 27.9903 26.8229 27.3704 26.8229 26.5999V19.4164C26.8229 19.0341 26.5101 18.7212 26.1277 18.7212ZM10.1387 27.2951V24.9778C10.1387 24.5955 9.82583 24.2827 9.44348 24.2827H4.57724V19.4164C4.57724 19.0341 4.26441 18.7212 3.88206 18.7212H1.56481C1.18246 18.7212 0.869629 19.0341 0.869629 19.4164V26.5999C0.869629 27.3704 1.4895 27.9903 2.25998 27.9903H9.44348C9.82583 27.9903 10.1387 27.6774 10.1387 27.2951Z" fill="black"/>
</g>
<defs>
<clipPath id="clip0_201_5369">
<rect width="25.9533" height="29.6609" fill="white" transform="translate(0.869629 0.183105)"/>
</clipPath>
</defs>
</svg>
