<svg width="27" height="30" viewBox="0 0 27 30" fill="none" xmlns="http://www.w3.org/2000/svg">
<g clip-path="url(#clip0_201_5365)">
<path d="M26.5485 4.8177V25.2096C26.5485 26.7453 25.3035 27.9903 23.7678 27.9903H3.37592C1.84016 27.9903 0.595215 26.7453 0.595215 25.2096V4.8177C0.595215 3.28193 1.84016 2.03699 3.37592 2.03699H23.7678C25.3035 2.03699 26.5485 3.28193 26.5485 4.8177ZM21.4505 5.7446H14.9639C13.7292 5.7446 13.1054 7.24276 13.9807 8.11811L15.8336 9.97116L4.50645 21.2983C4.23499 21.5698 4.23499 22.0099 4.50645 22.2815L6.30401 24.079C6.57553 24.3505 7.0157 24.3505 7.28716 24.079L18.6143 12.7519L20.4674 14.6052C21.338 15.4757 22.8409 14.8645 22.8409 13.6221V7.13495C22.8409 6.36707 22.2184 5.7446 21.4505 5.7446Z" fill="black"/>
</g>
<defs>
<clipPath id="clip0_201_5365">
<rect width="25.9533" height="29.6609" fill="white" transform="translate(0.595459 0.183105)"/>
</clipPath>
</defs>
</svg>
