<svg width="31" height="30" viewBox="0 0 31 30" fill="none" xmlns="http://www.w3.org/2000/svg">
<g clip-path="url(#clip0_201_5367)">
<path d="M25.4052 18.7212H23.5514C23.3055 18.7212 23.0698 18.8188 22.8959 18.9926C22.7221 19.1665 22.6245 19.4022 22.6245 19.6481V26.1364H4.0864V7.59833H12.4285C12.6743 7.59833 12.9101 7.50067 13.0839 7.32684C13.2578 7.15302 13.3554 6.91725 13.3554 6.67142V4.81762C13.3554 4.57179 13.2578 4.33603 13.0839 4.1622C12.9101 3.98837 12.6743 3.89072 12.4285 3.89072H3.15949C2.422 3.89072 1.71472 4.18368 1.19323 4.70517C0.671751 5.22665 0.378784 5.93394 0.378784 6.67142L0.378784 27.0633C0.378784 27.8008 0.671751 28.5081 1.19323 29.0295C1.71472 29.551 2.422 29.844 3.15949 29.844H23.5514C24.2888 29.844 24.9961 29.551 25.5176 29.0295C26.0391 28.5081 26.3321 27.8008 26.3321 27.0633V19.6481C26.3321 19.4022 26.2344 19.1665 26.0606 18.9926C25.8868 18.8188 25.651 18.7212 25.4052 18.7212ZM28.6493 0.183105H21.2341C19.9961 0.183105 19.3774 1.68411 20.2493 2.55829L22.3192 4.62818L8.19953 18.7426C8.06991 18.8718 7.96706 19.0252 7.89689 19.1943C7.82671 19.3632 7.79059 19.5444 7.79059 19.7274C7.79059 19.9104 7.82671 20.0916 7.89689 20.2606C7.96706 20.4296 8.06991 20.5831 8.19953 20.7123L9.51283 22.0233C9.642 22.1529 9.79549 22.2557 9.96449 22.3259C10.1335 22.3961 10.3147 22.4322 10.4977 22.4322C10.6807 22.4322 10.8618 22.3961 11.0308 22.3259C11.1998 22.2557 11.3533 22.1529 11.4825 22.0233L25.5952 7.90652L27.6645 9.97352C28.5335 10.8425 30.0397 10.2342 30.0397 8.98868V1.57346C30.0397 1.20471 29.8932 0.851073 29.6324 0.590331C29.3717 0.329589 29.0181 0.183105 28.6493 0.183105Z" fill="black"/>
</g>
<defs>
<clipPath id="clip0_201_5367">
<rect width="29.6609" height="29.6609" fill="white" transform="translate(0.378784 0.183105)"/>
</clipPath>
</defs>
</svg>
