<svg width="34" height="30" viewBox="0 0 34 30" fill="none" xmlns="http://www.w3.org/2000/svg">
<g clip-path="url(#clip0_201_5359)">
<path d="M33.168 14.1678C30.0263 8.03806 23.8068 3.89075 16.6853 3.89075C9.56381 3.89075 3.34255 8.04095 0.202668 14.1684C0.0701455 14.4305 0.00109863 14.7201 0.00109863 15.0139C0.00109863 15.3076 0.0701455 15.5972 0.202668 15.8594C3.34429 21.9891 9.56381 26.1364 16.6853 26.1364C23.8068 26.1364 30.0281 21.9862 33.168 15.8588C33.3005 15.5967 33.3695 15.307 33.3695 15.0133C33.3695 14.7196 33.3005 14.4299 33.168 14.1678ZM16.6853 23.3557C15.0354 23.3557 13.4225 22.8664 12.0507 21.9498C10.6788 21.0332 9.60959 19.7303 8.9782 18.206C8.3468 16.6816 8.1816 15.0043 8.50348 13.3861C8.82537 11.7679 9.61988 10.2815 10.7865 9.11481C11.9532 7.94814 13.4396 7.15363 15.0578 6.83175C16.6761 6.50986 18.3534 6.67507 19.8777 7.30646C21.402 7.93786 22.7049 9.00709 23.6215 10.3789C24.5382 11.7508 25.0274 13.3637 25.0274 15.0136C25.028 16.1092 24.8126 17.1943 24.3935 18.2066C23.9745 19.219 23.36 20.1388 22.5853 20.9135C21.8105 21.6883 20.8907 22.3027 19.8783 22.7218C18.866 23.1408 17.781 23.3562 16.6853 23.3557ZM16.6853 9.45216C16.1889 9.4591 15.6957 9.53295 15.2191 9.67172C15.612 10.2057 15.8005 10.8627 15.7505 11.5238C15.7005 12.1848 15.4153 12.806 14.9465 13.2748C14.4777 13.7435 13.8565 14.0288 13.1955 14.0788C12.5345 14.1288 11.8774 13.9402 11.3435 13.5473C11.0394 14.6675 11.0943 15.8548 11.5004 16.9421C11.9065 18.0294 12.6433 18.9621 13.6072 19.6087C14.5711 20.2553 15.7135 20.5834 16.8736 20.5467C18.0337 20.5101 19.1531 20.1106 20.0742 19.4044C20.9954 18.6982 21.6719 17.721 22.0085 16.6102C22.3452 15.4994 22.325 14.311 21.9509 13.2122C21.5767 12.1135 20.8675 11.1598 19.9229 10.4853C18.9783 9.81075 17.846 9.44943 16.6853 9.45216Z" fill="black"/>
</g>
<defs>
<clipPath id="clip0_201_5359">
<rect width="33.3685" height="29.6609" fill="white" transform="translate(0 0.183105)"/>
</clipPath>
</defs>
</svg>
