<svg width="31" height="31" viewBox="0 0 31 31" fill="none" xmlns="http://www.w3.org/2000/svg">
<g clip-path="url(#clip0_201_5357)">
<path d="M20.8177 7.93754C19.1904 7.93754 17.6842 8.19939 16.3535 8.68254L17.0724 1.5506C17.135 0.945792 16.6026 0.453954 15.9955 0.529845C11.3783 1.10916 7.80802 5.02011 7.80802 9.75832C7.80802 11.3856 8.06987 12.8918 8.55302 14.2225L1.42108 13.5036C0.816276 13.441 0.324438 13.9734 0.400328 14.5805C0.979642 19.1977 4.89059 22.768 9.6288 22.768C11.2561 22.768 12.7623 22.5061 14.093 22.023L13.3741 29.1549C13.3132 29.7591 13.8439 30.2516 14.451 30.1757C19.0682 29.5964 22.6385 25.6854 22.6385 20.9472C22.6385 19.3199 22.3766 17.8137 21.8935 16.483L29.0254 17.2019C29.6302 17.2628 30.122 16.7321 30.0462 16.125C29.4668 11.5078 25.5559 7.93754 20.8177 7.93754ZM15.2232 17.2066C14.8566 17.2066 14.4982 17.0978 14.1933 16.8941C13.8885 16.6904 13.6509 16.4009 13.5105 16.0622C13.3702 15.7234 13.3335 15.3507 13.4051 14.9911C13.4766 14.6315 13.6531 14.3012 13.9124 14.0419C14.1717 13.7827 14.502 13.6061 14.8616 13.5346C15.2212 13.463 15.5939 13.4998 15.9327 13.6401C16.2714 13.7804 16.5609 14.018 16.7646 14.3228C16.9683 14.6277 17.077 14.9861 17.077 15.3528C17.077 15.8444 16.8817 16.3159 16.5341 16.6636C16.1864 17.0113 15.7149 17.2066 15.2232 17.2066Z" fill="black"/>
</g>
<defs>
<clipPath id="clip0_201_5357">
<rect width="29.6609" height="29.6609" fill="white" transform="translate(0.393555 0.522217)"/>
</clipPath>
</defs>
</svg>
