<svg width="31" height="31" viewBox="0 0 31 31" fill="none" xmlns="http://www.w3.org/2000/svg">
<g clip-path="url(#clip0_201_5353)">
<path d="M30.0728 4.92504V25.7803C30.0728 26.1627 29.7599 26.4755 29.3776 26.4755H27.0603C26.678 26.4755 26.3651 26.1627 26.3651 25.7803V16.9806L16.4299 26.0468C15.2365 27.0433 13.3885 26.209 13.3885 24.6217V16.9806L3.45326 26.0468C2.25988 27.0433 0.411865 26.209 0.411865 24.6217V6.08367C0.411865 4.49634 2.25988 3.66793 3.45326 4.65855L13.3885 13.6611V6.08367C13.3885 4.49634 15.2365 3.66793 16.4299 4.65855L26.3651 13.6611V4.92504C26.3651 4.54269 26.678 4.22986 27.0603 4.22986H29.3776C29.7599 4.22986 30.0728 4.54269 30.0728 4.92504Z" fill="black"/>
</g>
<defs>
<clipPath id="clip0_201_5353">
<rect width="29.6609" height="29.6609" fill="white" transform="translate(0.411865 0.522217)"/>
</clipPath>
</defs>
</svg>
