<svg width="31" height="31" viewBox="0 0 31 31" fill="none" xmlns="http://www.w3.org/2000/svg">
<g clip-path="url(#clip0_201_5355)">
<path d="M0.902832 25.7804V4.92504C0.902832 4.54269 1.21566 4.22986 1.59801 4.22986H3.91527C4.29761 4.22986 4.61044 4.54269 4.61044 4.92504V13.7248L14.5457 4.65855C15.7391 3.66793 17.5871 4.49634 17.5871 6.08367V13.7248L27.5223 4.65855C28.7157 3.66793 30.5637 4.49634 30.5637 6.08367V24.6217C30.5637 26.209 28.7157 27.0375 27.5223 26.0468L17.5871 17.0501V24.6217C17.5871 26.209 15.7391 27.0375 14.5457 26.0468L4.61044 17.0501V25.7804C4.61044 26.1627 4.29761 26.4755 3.91527 26.4755H1.59801C1.21566 26.4755 0.902832 26.1627 0.902832 25.7804Z" fill="black"/>
</g>
<defs>
<clipPath id="clip0_201_5355">
<rect width="29.6609" height="29.6609" fill="white" transform="translate(0.902832 0.522217)"/>
</clipPath>
</defs>
</svg>
