<svg width="31" height="31" viewBox="0 0 31 31" fill="none" xmlns="http://www.w3.org/2000/svg">
<g clip-path="url(#clip0_201_5351)">
<path d="M21.3129 15.3523H19.0762C18.166 14.5737 17.0219 14.0158 15.7515 13.7302V10.975L13.8977 10.7792L12.0439 10.975V13.7302C10.7734 14.0199 9.62927 14.576 8.71917 15.3523H1.84792C1.60209 15.3523 1.36633 15.45 1.1925 15.6238C1.01868 15.7976 0.921021 16.0334 0.921021 16.2792L0.921021 21.8406C0.921021 22.0865 1.01868 22.3222 1.1925 22.4961C1.36633 22.6699 1.60209 22.7675 1.84792 22.7675H7.22338C8.41619 24.9533 10.9432 26.4752 13.8977 26.4752C16.8522 26.4752 19.3791 24.9533 20.5719 22.7675H21.3129C21.8045 22.7675 22.2761 22.9629 22.6237 23.3105C22.9714 23.6582 23.1667 24.1297 23.1667 24.6214C23.1667 25.113 23.362 25.5845 23.7097 25.9322C24.0573 26.2798 24.5288 26.4752 25.0205 26.4752H28.7281C29.2198 26.4752 29.6913 26.2798 30.0389 25.9322C30.3866 25.5845 30.5819 25.113 30.5819 24.6214C30.5819 22.1631 29.6054 19.8054 27.8671 18.0672C26.1288 16.3289 23.7712 15.3523 21.3129 15.3523ZM5.64764 9.7857L13.8977 8.91672L22.1477 9.7857C22.6934 9.84363 23.1667 9.39118 23.1667 8.81245V7.06176C23.1667 6.48245 22.6934 6.03058 22.1477 6.08793L15.7515 6.76341V5.15639C15.7515 4.91057 15.6538 4.6748 15.48 4.50098C15.3062 4.32715 15.0704 4.22949 14.8246 4.22949H12.9708C12.7249 4.22949 12.4892 4.32715 12.3153 4.50098C12.1415 4.6748 12.0439 4.91057 12.0439 5.15639V6.76341L5.64764 6.08793C5.10193 6.03058 4.62863 6.48302 4.62863 7.06176V8.81245C4.62863 9.39118 5.10193 9.84363 5.64764 9.7857Z" fill="black"/>
</g>
<defs>
<clipPath id="clip0_201_5351">
<rect width="29.6609" height="29.6609" fill="white" transform="translate(0.921021 0.522217)"/>
</clipPath>
</defs>
</svg>
