<svg width="31" height="31" viewBox="0 0 31 31" fill="none" xmlns="http://www.w3.org/2000/svg">
<g clip-path="url(#clip0_201_5345)">
<path d="M27.5103 3.11951C23.8867 -0.500043 18.1445 -0.633286 12.8953 4.61009C8.34135 9.15886 9.36268 8.13927 7.92772 9.57249C4.42519 13.071 3.84993 18.3103 4.24097 21.8059L14.5783 11.4796C14.9409 11.1175 15.5283 11.1175 15.8904 11.4796C16.2525 11.8417 16.2525 12.4285 15.8904 12.7906L0.856034 27.8093C0.312637 28.3521 0.312637 29.2327 0.856034 29.7755C1.39943 30.3183 2.28115 30.3183 2.82454 29.7755L6.65381 25.9503C9.68363 26.8604 16.6111 27.0029 20.953 22.7675H15.2647L23.8137 19.9208C26.7097 17.0283 25.9212 17.8248 26.4965 17.2061H20.8319L28.4522 14.6687C31.0847 10.3551 30.4399 6.04621 27.5103 3.11951Z" fill="black"/>
</g>
<defs>
<clipPath id="clip0_201_5345">
<rect width="29.6609" height="29.6609" fill="white" transform="translate(0.448486 0.522217)"/>
</clipPath>
</defs>
</svg>
