<svg width="31" height="31" viewBox="0 0 31 31" fill="none" xmlns="http://www.w3.org/2000/svg">
<g clip-path="url(#clip0_201_5347)">
<path d="M30.5999 0.521973C27.6002 0.728209 6.52595 2.73495 5.05275 17.1836C4.87374 18.7281 4.77236 20.2795 4.70574 21.832L15.0679 11.4803C15.43 11.1182 16.018 11.1182 16.3801 11.4803C16.7422 11.8424 16.7422 12.4292 16.3801 12.7913L1.34688 27.8094C0.803482 28.3522 0.803482 29.2328 1.34688 29.7756C1.89028 30.3184 2.77141 30.3184 3.31539 29.7756L6.62501 26.4695C9.06334 26.4613 11.4999 26.3229 13.9221 26.0431C17.0202 25.7279 19.5426 24.5096 21.6026 22.7676H15.7544L24.2582 19.936C24.9099 19.0734 25.4962 18.1569 26.0222 17.2062H21.3216L27.4936 14.1237C29.9216 8.21874 30.4951 2.04325 30.5999 0.521973Z" fill="black"/>
</g>
<defs>
<clipPath id="clip0_201_5347">
<rect width="29.6609" height="29.6609" fill="white" transform="translate(0.939331 0.522217)"/>
</clipPath>
</defs>
</svg>
