<svg width="16" height="31" viewBox="0 0 16 31" fill="none" xmlns="http://www.w3.org/2000/svg">
<g clip-path="url(#clip0_201_5343)">
<path d="M8.20333 0.521973C10.251 0.521973 11.9109 2.18194 11.9109 4.22958C11.9109 6.27723 10.251 7.93719 8.20333 7.93719C6.15569 7.93719 4.49572 6.27723 4.49572 4.22958C4.49572 2.18194 6.15569 0.521973 8.20333 0.521973ZM15.1136 21.0401L12.3329 9.91723C12.2577 9.61643 12.0841 9.34939 11.8397 9.15857C11.5953 8.96775 11.2941 8.8641 10.984 8.8641H10.3259C9.01026 9.46908 7.45312 9.4952 6.08073 8.8641H5.42263C5.11256 8.8641 4.8114 8.96775 4.567 9.15857C4.32261 9.34939 4.14901 9.61643 4.07381 9.91723L1.2931 21.0401C1.074 21.9163 1.7372 22.7676 2.64192 22.7676H5.88608V28.7925C5.88608 29.5604 6.50855 30.1829 7.27643 30.1829H9.13024C9.89812 30.1829 10.5206 29.5604 10.5206 28.7925V22.7676H13.7648C14.668 22.7676 15.333 21.9177 15.1136 21.0401Z" fill="black"/>
</g>
<defs>
<clipPath id="clip0_201_5343">
<rect width="14.8304" height="29.6609" fill="white" transform="translate(0.788086 0.522217)"/>
</clipPath>
</defs>
</svg>
