<svg width="38" height="31" viewBox="0 0 38 31" fill="none" xmlns="http://www.w3.org/2000/svg">
<g clip-path="url(#clip0_201_5341)">
<path d="M32.3969 13.4986L24.9817 12.5717L22.201 11.6448H20.8106L14.0418 3.07091H16.3306C17.0064 3.07091 17.5665 2.91884 17.5665 2.72332C17.5665 2.5278 17.0064 2.37573 16.3306 2.37573H9.68778V3.07091H10.6147V12.5717H7.83397L3.97186 7.93715H1.96361L1.34565 8.5551V12.5717H1.8091V13.4986H4.58981V13.653L0.882202 14.1165V16.5882L4.58981 17.0517V17.2062H1.8091V18.1331H1.34565V22.1496L1.96361 22.7676H3.97192L7.83397 18.1331H10.6147V27.6338H9.68778V28.329H16.3306C17.0065 28.329 17.5665 28.1769 17.5665 27.9814C17.5665 27.7859 17.0064 27.6338 16.3306 27.6338H14.0418L20.8106 19.06H22.201L24.9817 18.1331L32.3969 17.2062C37.9583 15.9703 37.9583 15.6662 37.9583 15.3524C37.9583 15.0386 37.9583 14.7344 32.3969 13.4986Z" fill="black"/>
</g>
<defs>
<clipPath id="clip0_201_5341">
<rect width="37.0761" height="29.6609" fill="white" transform="translate(0.881958 0.522217)"/>
</clipPath>
</defs>
</svg>
