<svg width="23" height="31" viewBox="0 0 23 31" fill="none" xmlns="http://www.w3.org/2000/svg">
<g clip-path="url(#clip0_201_5333)">
<path d="M22.825 7.58619V7.93719H15.4098V0.521973H15.7608C16.1295 0.521973 16.4832 0.668481 16.7439 0.929173L22.4178 6.60303C22.6785 6.8638 22.825 7.21744 22.825 7.58619ZM14.9463 9.791C14.1816 9.791 13.556 9.16534 13.556 8.40065V0.521973H1.9697C1.20182 0.521973 0.579346 1.14445 0.579346 1.91233V28.7925C0.579346 29.5604 1.20182 30.1829 1.9697 30.1829H21.4347C22.2025 30.1829 22.825 29.5604 22.825 28.7925V9.791H14.9463ZM7.71684 23.7238C7.68875 23.7538 7.65502 23.7779 7.61759 23.7948C7.58016 23.8118 7.53976 23.8212 7.4987 23.8225C7.45764 23.8238 7.41672 23.8171 7.37828 23.8026C7.33984 23.7881 7.30462 23.7661 7.27465 23.738L3.51687 20.2151C3.48567 20.1859 3.46079 20.1505 3.44378 20.1113C3.42678 20.072 3.418 20.0297 3.418 19.9869C3.418 19.9441 3.42678 19.9018 3.44378 19.8625C3.46079 19.8233 3.48567 19.7879 3.51687 19.7587L7.27465 16.2358C7.30462 16.2077 7.33984 16.1857 7.37828 16.1712C7.41672 16.1568 7.45764 16.15 7.4987 16.1513C7.53976 16.1526 7.58016 16.162 7.61759 16.179C7.65502 16.1959 7.68875 16.22 7.71684 16.25L8.85108 17.4599C8.87975 17.4905 8.90198 17.5265 8.91645 17.5658C8.93092 17.6052 8.93734 17.647 8.93533 17.6889C8.93332 17.7307 8.92292 17.7718 8.90475 17.8095C8.88657 17.8473 8.86099 17.881 8.82953 17.9087L6.46807 19.9869L8.82953 22.0652C8.86099 22.0928 8.88657 22.1266 8.90475 22.1643C8.92292 22.2021 8.93332 22.2431 8.93533 22.285C8.93734 22.3269 8.93092 22.3687 8.91645 22.408C8.90198 22.4474 8.87975 22.4834 8.85108 22.514L7.71684 23.7238ZM10.6884 26.6481L9.09805 26.1864C9.01837 26.1633 8.95115 26.1094 8.91116 26.0367C8.87117 25.964 8.86169 25.8784 8.8848 25.7987L12.4441 13.5389C12.4673 13.4593 12.5211 13.392 12.5938 13.352C12.6665 13.3121 12.7521 13.3026 12.8318 13.3257L14.4221 13.7874C14.4616 13.7989 14.4984 13.818 14.5304 13.8437C14.5625 13.8693 14.5892 13.9011 14.609 13.9371C14.6288 13.9731 14.6413 14.0126 14.6458 14.0535C14.6503 14.0943 14.6468 14.1356 14.6353 14.1751L11.076 26.4349C11.0646 26.4743 11.0455 26.5112 11.0198 26.5432C10.9941 26.5753 10.9624 26.602 10.9264 26.6218C10.8904 26.6416 10.8509 26.6541 10.81 26.6586C10.7692 26.6632 10.7279 26.6596 10.6884 26.6481ZM20.0033 20.2151L16.2456 23.738C16.2156 23.7661 16.1804 23.7881 16.1419 23.8026C16.1035 23.8171 16.0626 23.8238 16.0215 23.8225C15.9805 23.8212 15.9401 23.8118 15.9026 23.7948C15.8652 23.7779 15.8315 23.7538 15.8034 23.7238L14.6691 22.5139C14.6404 22.4833 14.6182 22.4473 14.6037 22.408C14.5892 22.3686 14.5828 22.3268 14.5848 22.2849C14.5868 22.2431 14.5972 22.202 14.6154 22.1643C14.6336 22.1265 14.6592 22.0928 14.6906 22.0651L17.0521 19.9869L14.6907 17.9087C14.6592 17.881 14.6336 17.8473 14.6155 17.8095C14.5973 17.7718 14.5869 17.7307 14.5849 17.6889C14.5829 17.647 14.5893 17.6052 14.6038 17.5658C14.6182 17.5265 14.6405 17.4905 14.6691 17.4599L15.8034 16.25C15.8315 16.22 15.8653 16.1959 15.9027 16.179C15.9401 16.162 15.9805 16.1526 16.0216 16.1513C16.0626 16.15 16.1036 16.1568 16.142 16.1712C16.1804 16.1857 16.2157 16.2077 16.2456 16.2358L20.0034 19.7587C20.0346 19.7879 20.0595 19.8233 20.0765 19.8626C20.0935 19.9018 20.1023 19.9441 20.1022 19.9869C20.1022 20.0297 20.0935 20.072 20.0765 20.1113C20.0594 20.1505 20.0346 20.1859 20.0033 20.2151Z" fill="black"/>
</g>
<defs>
<clipPath id="clip0_201_5333">
<rect width="22.2457" height="29.6609" fill="white" transform="translate(0.579346 0.522217)"/>
</clipPath>
</defs>
</svg>
