<svg width="23" height="31" viewBox="0 0 23 31" fill="none" xmlns="http://www.w3.org/2000/svg">
<g clip-path="url(#clip0_201_5315)">
<path d="M17.0441 15.3524H5.92128V19.06H17.0441V15.3524ZM22.2 6.60477L16.5285 0.927493C16.2678 0.666801 15.9145 0.521973 15.5437 0.521973H15.1903V7.93719H22.6055V7.58381C22.6055 7.21885 22.4607 6.86546 22.2 6.60477ZM13.3365 8.40065V0.521973H1.75022C0.979729 0.521973 0.359863 1.14184 0.359863 1.91233V28.7925C0.359863 29.563 0.979729 30.1829 1.75022 30.1829H21.2152C21.9857 30.1829 22.6055 29.563 22.6055 28.7925V9.791H14.7269C13.9622 9.791 13.3365 9.16534 13.3365 8.40065ZM4.06747 4.69304C4.06747 4.43698 4.27487 4.22958 4.53093 4.22958H9.16544C9.4215 4.22958 9.62889 4.43698 9.62889 4.69304V5.61994C9.62889 5.87599 9.4215 6.08339 9.16544 6.08339H4.53093C4.27487 6.08339 4.06747 5.87599 4.06747 5.61994V4.69304ZM4.06747 8.40065C4.06747 8.14459 4.27487 7.93719 4.53093 7.93719H9.16544C9.4215 7.93719 9.62889 8.14459 9.62889 8.40065V9.32755C9.62889 9.58361 9.4215 9.791 9.16544 9.791H4.53093C4.27487 9.791 4.06747 9.58361 4.06747 9.32755V8.40065ZM18.8979 26.0118C18.8979 26.2679 18.6905 26.4753 18.4345 26.4753H13.8C13.5439 26.4753 13.3365 26.2679 13.3365 26.0118V25.0849C13.3365 24.8288 13.5439 24.6214 13.8 24.6214H18.4345C18.6905 24.6214 18.8979 24.8288 18.8979 25.0849V26.0118ZM18.8979 14.4255V19.9869C18.8979 20.499 18.4831 20.9138 17.971 20.9138H4.99438C4.48226 20.9138 4.06747 20.499 4.06747 19.9869V14.4255C4.06747 13.9134 4.48226 13.4986 4.99438 13.4986H17.971C18.4831 13.4986 18.8979 13.9134 18.8979 14.4255Z" fill="black"/>
</g>
<defs>
<clipPath id="clip0_201_5315">
<rect width="22.2457" height="29.6609" fill="white" transform="translate(0.360107 0.522217)"/>
</clipPath>
</defs>
</svg>
