<svg width="23" height="31" viewBox="0 0 23 31" fill="none" xmlns="http://www.w3.org/2000/svg">
<g clip-path="url(#clip0_201_5305)">
<path d="M13.2507 8.40065V0.521973H1.6644C0.893914 0.521973 0.274048 1.14184 0.274048 1.91233V28.7925C0.274048 29.563 0.893914 30.1829 1.6644 30.1829H21.1294C21.8998 30.1829 22.5197 29.563 22.5197 28.7925V9.791H14.641C13.8763 9.791 13.2507 9.16534 13.2507 8.40065ZM17.2207 18.7982L17.8759 19.4534C18.238 19.8155 18.238 20.4023 17.8759 20.7644L16.1438 22.4965L17.8852 24.2379C18.2473 24.6 18.2473 25.1869 17.8852 25.5489L17.23 26.2041C16.8679 26.5662 16.2811 26.5662 15.919 26.2041L14.1776 24.4621L12.4362 26.2036C12.0741 26.5656 11.4873 26.5656 11.1252 26.2036L10.47 25.5483C10.1079 25.1863 10.1079 24.5994 10.47 24.2374L12.2114 22.4959L8.77491 19.06H7.68927V21.8407C7.68927 22.3528 7.27448 22.7676 6.76237 22.7676H5.83546C5.32335 22.7676 4.90856 22.3528 4.90856 21.8407V12.5717C4.90856 12.0596 5.32335 11.6448 5.83546 11.6448H10.47C12.5179 11.6448 14.1776 13.3045 14.1776 15.3524C14.1776 16.7555 13.3886 17.9622 12.2392 18.5919L14.1776 20.5303L15.9097 18.7982C16.2718 18.4361 16.8587 18.4361 17.2207 18.7982ZM10.47 16.2793H7.68927V14.4255H10.47C10.9809 14.4255 11.3969 14.8415 11.3969 15.3524C11.3969 15.8634 10.9809 16.2793 10.47 16.2793ZM22.5197 7.58381V7.93719H15.1045V0.521973H15.4579C15.8286 0.521973 16.182 0.666801 16.4427 0.927493L22.1142 6.60477C22.3749 6.86546 22.5197 7.21885 22.5197 7.58381Z" fill="black"/>
</g>
<defs>
<clipPath id="clip0_201_5305">
<rect width="22.2457" height="29.6609" fill="white" transform="translate(0.27417 0.522217)"/>
</clipPath>
</defs>
</svg>
