<svg width="23" height="31" viewBox="0 0 23 31" fill="none" xmlns="http://www.w3.org/2000/svg">
<g clip-path="url(#clip0_201_5317)">
<path d="M22.2758 6.60502L16.6043 0.927737C16.3436 0.667045 15.9903 0.522217 15.6195 0.522217H15.2661V7.93744H22.6813V7.58406C22.6813 7.21909 22.5365 6.86571 22.2758 6.60502ZM13.4123 8.40089V0.522217H1.82602C1.05554 0.522217 0.435669 1.14208 0.435669 1.91257V28.7928C0.435669 29.5632 1.05554 30.1831 1.82602 30.1831H21.291C22.0615 30.1831 22.6813 29.5632 22.6813 28.7928V9.79124H14.8027C14.038 9.79124 13.4123 9.16559 13.4123 8.40089ZM4.14328 4.69328C4.14328 4.43722 4.35067 4.22983 4.60673 4.22983H9.24125C9.4973 4.22983 9.7047 4.43722 9.7047 4.69328V5.62018C9.7047 5.87624 9.4973 6.08363 9.24125 6.08363H4.60673C4.35067 6.08363 4.14328 5.87624 4.14328 5.62018V4.69328ZM4.14328 9.32779V8.40089C4.14328 8.14483 4.35067 7.93744 4.60673 7.93744H9.24125C9.4973 7.93744 9.7047 8.14483 9.7047 8.40089V9.32779C9.7047 9.58385 9.4973 9.79124 9.24125 9.79124H4.60673C4.35067 9.79124 4.14328 9.58385 4.14328 9.32779ZM12.4854 24.6147V26.012C12.4854 26.2681 12.278 26.4755 12.022 26.4755H11.0951C10.839 26.4755 10.6316 26.2681 10.6316 26.012V24.6049C9.97755 24.5713 9.34147 24.343 8.81429 23.9474C8.58836 23.7776 8.57677 23.4393 8.78127 23.2441L9.46196 22.5947C9.62243 22.4417 9.86111 22.4348 10.0488 22.5524C10.273 22.6926 10.5273 22.7679 10.7915 22.7679H12.4199C12.7965 22.7679 13.1035 22.4249 13.1035 22.0038C13.1035 21.6591 12.8944 21.3555 12.5955 21.2663L9.98856 20.4842C8.91162 20.161 8.15909 19.1275 8.15909 17.9706C8.15909 16.5501 9.26268 15.3961 10.631 15.3596V13.9623C10.631 13.7063 10.8384 13.4989 11.0945 13.4989H12.0214C12.2774 13.4989 12.4848 13.7063 12.4848 13.9623V15.3695C13.1389 15.4031 13.775 15.6307 14.3021 16.027C14.5281 16.1967 14.5397 16.535 14.3352 16.7303L13.6545 17.3797C13.494 17.5326 13.2553 17.5396 13.0676 17.422C12.8434 17.2812 12.5891 17.2065 12.3249 17.2065H10.6965C10.3199 17.2065 10.0129 17.5494 10.0129 17.9706C10.0129 18.3153 10.222 18.6188 10.521 18.708L13.1279 19.4901C14.2048 19.8134 14.9573 20.8469 14.9573 22.0038C14.9573 23.4248 13.8537 24.5782 12.4854 24.6147Z" fill="black"/>
</g>
<defs>
<clipPath id="clip0_201_5317">
<rect width="22.2457" height="29.6609" fill="white" transform="translate(0.435791 0.522217)"/>
</clipPath>
</defs>
</svg>
