<svg width="23" height="31" viewBox="0 0 23 31" fill="none" xmlns="http://www.w3.org/2000/svg">
<g clip-path="url(#clip0_201_5307)">
<path d="M11.5712 16.233C12.081 16.233 12.4691 16.3894 12.7472 16.7022C13.3033 17.3337 13.3149 18.5966 12.7356 19.257C12.4517 19.5814 12.0462 19.7494 11.5132 19.7494H9.95488V16.233H11.5712ZM22.19 6.60477L16.5127 0.927493C16.252 0.666801 15.8986 0.521973 15.5279 0.521973H15.1803V7.93719H22.5955V7.58381C22.5955 7.21885 22.4507 6.86546 22.19 6.60477ZM13.3265 8.40065V0.521973H1.74021C0.96972 0.521973 0.349854 1.14184 0.349854 1.91233V28.7925C0.349854 29.563 0.96972 30.1829 1.74021 30.1829H21.2052C21.9757 30.1829 22.5955 29.563 22.5955 28.7925V9.791H14.7168C13.9522 9.791 13.3265 9.16534 13.3265 8.40065ZM16.3969 17.9709C16.3969 23.2021 11.2525 22.4664 9.96068 22.4664V25.7801C9.96068 26.1624 9.64785 26.4753 9.2655 26.4753H7.48121C7.09886 26.4753 6.78603 26.1624 6.78603 25.7801V14.2054C6.78603 13.823 7.09886 13.5102 7.48121 13.5102H12.1737C14.7516 13.5102 16.3969 15.4103 16.3969 17.9709Z" fill="black"/>
</g>
<defs>
<clipPath id="clip0_201_5307">
<rect width="22.2457" height="29.6609" fill="white" transform="translate(0.349854 0.522217)"/>
</clipPath>
</defs>
</svg>
