<svg width="24" height="31" viewBox="0 0 24 31" fill="none" xmlns="http://www.w3.org/2000/svg">
<g clip-path="url(#clip0_201_5339)">
<path d="M13.783 8.40065V0.521973H2.19669C1.4262 0.521973 0.806335 1.14184 0.806335 1.91233V28.7925C0.806335 29.563 1.4262 30.1829 2.19669 30.1829H21.6616C22.4321 30.1829 23.052 29.563 23.052 28.7925V9.791H15.1733C14.4086 9.791 13.783 9.16534 13.783 8.40065ZM17.4906 22.0725C17.4906 22.4548 17.1778 22.7676 16.7954 22.7676H7.06293C6.68058 22.7676 6.36775 22.4548 6.36775 22.0725V21.609C6.36775 21.2267 6.68058 20.9138 7.06293 20.9138H16.7954C17.1778 20.9138 17.4906 21.2267 17.4906 21.609V22.0725ZM17.4906 18.3649C17.4906 18.7472 17.1778 19.06 16.7954 19.06H7.06293C6.68058 19.06 6.36775 18.7472 6.36775 18.3649V17.9014C6.36775 17.5191 6.68058 17.2062 7.06293 17.2062H16.7954C17.1778 17.2062 17.4906 17.5191 17.4906 17.9014V18.3649ZM17.4906 14.1938V14.6572C17.4906 15.0396 17.1778 15.3524 16.7954 15.3524H7.06293C6.68058 15.3524 6.36775 15.0396 6.36775 14.6572V14.1938C6.36775 13.8114 6.68058 13.4986 7.06293 13.4986H16.7954C17.1778 13.4986 17.4906 13.8114 17.4906 14.1938ZM23.052 7.58381V7.93719H15.6368V0.521973H15.9902C16.3609 0.521973 16.7143 0.666801 16.975 0.927493L22.6465 6.60477C22.9072 6.86546 23.052 7.21885 23.052 7.58381Z" fill="black"/>
</g>
<defs>
<clipPath id="clip0_201_5339">
<rect width="22.2457" height="29.6609" fill="white" transform="translate(0.806274 0.522217)"/>
</clipPath>
</defs>
</svg>
