<svg width="23" height="31" viewBox="0 0 23 31" fill="none" xmlns="http://www.w3.org/2000/svg">
<g clip-path="url(#clip0_201_5325)">
<path d="M13.2533 8.40065V0.521973H1.66697C0.896478 0.521973 0.276611 1.14184 0.276611 1.91233V28.7925C0.276611 29.563 0.896478 30.1829 1.66697 30.1829H21.1319C21.9024 30.1829 22.5223 29.563 22.5223 28.7925V9.791H14.6436C13.8789 9.791 13.2533 9.16534 13.2533 8.40065ZM16.7349 14.5703L13.2533 19.9869L16.7349 25.4035C17.0304 25.867 16.7002 26.4753 16.1498 26.4753H14.128C13.8731 26.4753 13.6356 26.3362 13.5139 26.1103C12.3785 24.0132 11.3994 22.1304 11.3994 22.1304C11.0287 22.9878 10.8201 23.289 9.27915 26.1161C9.1575 26.342 8.92577 26.481 8.67087 26.481H6.64907C6.09872 26.481 5.76851 25.8728 6.06396 25.4093L9.55723 19.9927L6.06396 14.5761C5.76272 14.1127 6.09872 13.5044 6.64907 13.5044H8.66508C8.91998 13.5044 9.1575 13.6434 9.27915 13.8694C10.7912 16.6964 10.4378 15.8159 11.3994 17.8377C11.3994 17.8377 11.7528 17.1599 13.5197 13.8694C13.6414 13.6434 13.8789 13.5044 14.1338 13.5044H16.1498C16.7002 13.4986 17.0304 14.1069 16.7349 14.5703ZM22.5223 7.58381V7.93719H15.1071V0.521973H15.4604C15.8312 0.521973 16.1846 0.666801 16.4453 0.927493L22.1168 6.60477C22.3774 6.86546 22.5223 7.21885 22.5223 7.58381Z" fill="black"/>
</g>
<defs>
<clipPath id="clip0_201_5325">
<rect width="22.2457" height="29.6609" fill="white" transform="translate(0.276611 0.522217)"/>
</clipPath>
</defs>
</svg>
