<svg width="23" height="31" viewBox="0 0 23 31" fill="none" xmlns="http://www.w3.org/2000/svg">
<g clip-path="url(#clip0_201_5329)">
<path d="M13.4046 8.40065V0.521973H1.81833C1.04784 0.521973 0.427979 1.14184 0.427979 1.91233V28.7925C0.427979 29.563 1.04784 30.1829 1.81833 30.1829H21.2833C22.0538 30.1829 22.6736 29.563 22.6736 28.7925V9.791H14.795C14.0303 9.791 13.4046 9.16534 13.4046 8.40065ZM7.8432 16.7428C7.8432 16.9988 7.63581 17.2062 7.37975 17.2062H6.9163C6.40418 17.2062 5.9894 17.621 5.9894 18.1331V19.9869C5.9894 20.499 6.40418 20.9138 6.9163 20.9138H7.37975C7.63581 20.9138 7.8432 21.1212 7.8432 21.3773V22.3042C7.8432 22.5602 7.63581 22.7676 7.37975 22.7676H6.9163C5.38054 22.7676 4.13559 21.5227 4.13559 19.9869V18.1331C4.13559 16.5974 5.38054 15.3524 6.9163 15.3524H7.37975C7.63581 15.3524 7.8432 15.5598 7.8432 15.8159V16.7428ZM10.4078 22.7676H9.69701C9.44095 22.7676 9.23355 22.5602 9.23355 22.3042V21.3773C9.23355 21.1212 9.44095 20.9138 9.69701 20.9138H10.4078C10.7525 20.9138 11.0109 20.7111 11.0109 20.5303C11.0109 20.455 10.9674 20.3762 10.8881 20.3079L9.61996 19.2205C9.12928 18.8022 8.84773 18.2079 8.84773 17.5903C8.84773 16.3564 9.94959 15.353 11.3046 15.353H12.0143C12.2703 15.353 12.4777 15.5604 12.4777 15.8164V16.7434C12.4777 16.9994 12.2703 17.2068 12.0143 17.2068H11.3034C10.9588 17.2068 10.7004 17.4096 10.7004 17.5903C10.7004 17.6656 10.7438 17.7444 10.8232 17.8128L12.0913 18.9001C12.582 19.3184 12.8635 19.9128 12.8635 20.5303C12.8641 21.7637 11.7628 22.7676 10.4078 22.7676ZM15.2584 15.8159V17.0208C15.2584 18.1951 15.5886 19.3479 16.1853 20.316C16.782 19.3485 17.1122 18.1951 17.1122 17.0208V15.8159C17.1122 15.5598 17.3196 15.3524 17.5757 15.3524H18.5026C18.7586 15.3524 18.966 15.5598 18.966 15.8159V17.0208C18.966 19.0762 18.2199 21.0117 16.8643 22.4716C16.6893 22.6599 16.4431 22.7676 16.1853 22.7676C15.9275 22.7676 15.6813 22.6599 15.5064 22.4716C14.1508 21.0117 13.4046 19.0762 13.4046 17.0208V15.8159C13.4046 15.5598 13.612 15.3524 13.8681 15.3524H14.795C15.051 15.3524 15.2584 15.5598 15.2584 15.8159ZM22.2681 6.60477L16.5966 0.927493C16.3359 0.666801 15.9826 0.521973 15.6118 0.521973H15.2584V7.93719H22.6736V7.58381C22.6736 7.21885 22.5288 6.86546 22.2681 6.60477Z" fill="black"/>
</g>
<defs>
<clipPath id="clip0_201_5329">
<rect width="22.2457" height="29.6609" fill="white" transform="translate(0.427979 0.522217)"/>
</clipPath>
</defs>
</svg>
