<svg width="23" height="31" viewBox="0 0 23 31" fill="none" xmlns="http://www.w3.org/2000/svg">
<g clip-path="url(#clip0_201_5335)">
<path d="M13.6317 8.40065V0.521973H2.04538C1.2749 0.521973 0.655029 1.14184 0.655029 1.91233V28.7925C0.655029 29.563 1.2749 30.1829 2.04538 30.1829H21.5103C22.2808 30.1829 22.9007 29.563 22.9007 28.7925V9.791H15.022C14.2573 9.791 13.6317 9.16534 13.6317 8.40065ZM9.92406 23.9263C9.92406 24.5461 9.17674 24.8532 8.73646 24.4187L6.6799 22.3042H5.05782C4.67547 22.3042 4.36264 21.9914 4.36264 21.609V18.3649C4.36264 17.9825 4.67547 17.6697 5.05782 17.6697H6.6799L8.73646 15.5552C9.17674 15.1149 9.92406 15.4277 9.92406 16.0476V23.9263ZM11.8474 21.1687C12.3746 20.63 12.3746 19.7726 11.8474 19.2338C10.5671 17.913 12.5541 15.9781 13.8402 17.2931C15.416 18.9094 15.416 21.4874 13.8402 23.1094C12.5773 24.4013 10.5439 22.5069 11.8474 21.1687ZM16.8295 14.385C19.981 17.6233 19.981 22.7734 16.8295 26.0176C15.5666 27.3153 13.5274 25.4209 14.8366 24.0769C16.9338 21.9218 16.9396 18.4865 14.8366 16.3257C13.5564 15.0048 15.5492 13.0641 16.8295 14.385ZM22.9007 7.58381V7.93719H15.4855V0.521973H15.8389C16.2096 0.521973 16.563 0.666801 16.8237 0.927493L22.4952 6.60477C22.7559 6.86546 22.9007 7.21885 22.9007 7.58381Z" fill="black"/>
</g>
<defs>
<clipPath id="clip0_201_5335">
<rect width="22.2457" height="29.6609" fill="white" transform="translate(0.655029 0.522217)"/>
</clipPath>
</defs>
</svg>
