<svg width="23" height="31" viewBox="0 0 23 31" fill="none" xmlns="http://www.w3.org/2000/svg">
<g clip-path="url(#clip0_201_5299)">
<path d="M22.2571 7.9253V8.27631H14.8419V0.861084H15.1929C15.5616 0.861084 15.9153 1.00759 16.176 1.26828L21.8499 6.94215C22.1106 7.20292 22.2571 7.55656 22.2571 7.9253ZM12.9881 8.73976V0.861084H1.4018C0.633917 0.861084 0.0114441 1.48356 0.0114441 2.25144V29.1316C0.0114441 29.8995 0.633917 30.522 1.4018 30.522H20.8668C21.6346 30.522 22.2571 29.8995 22.2571 29.1316V10.1301H14.3784C13.6137 10.1301 12.9881 9.50445 12.9881 8.73976ZM18.5495 17.0828V23.569C18.5495 24.8113 17.0466 25.4227 16.176 24.5521L12.9881 21.3654V23.5702C12.9881 24.3381 12.3656 24.9606 11.5977 24.9606H5.10941C4.34153 24.9606 3.71906 24.3381 3.71906 23.5702V17.0819C3.71906 16.314 4.34153 15.6915 5.10941 15.6915H11.5977C12.3656 15.6915 12.9881 16.314 12.9881 17.0819V19.2867L16.176 16.0997C17.0456 15.2302 18.5495 15.8395 18.5495 17.0828Z" fill="black"/>
</g>
<defs>
<clipPath id="clip0_201_5299">
<rect width="22.2457" height="29.6609" fill="white" transform="translate(0.0115967 0.861328)"/>
</clipPath>
</defs>
</svg>
