<svg width="34" height="31" viewBox="0 0 34 31" fill="none" xmlns="http://www.w3.org/2000/svg">
<g clip-path="url(#clip0_201_5303)">
<path d="M12.7147 25.093C12.5438 24.7501 12.246 24.7153 12.1255 24.7153C12.005 24.7153 11.7073 24.7495 11.5451 25.0739L11.1007 25.9626C10.7317 26.7029 9.65071 26.6212 9.39292 25.8415L8.41793 22.9177L7.80328 24.7645C7.46206 25.7876 6.50677 26.4753 5.42809 26.4753H4.71032C4.19821 26.4753 3.78342 26.0605 3.78342 25.5483C3.78342 25.0362 4.19821 24.6214 4.71032 24.6214H5.42809C5.7079 24.6214 5.95584 24.443 6.04448 24.1777L7.09825 21.0123C7.28943 20.444 7.81892 20.0617 8.41793 20.0617C9.01694 20.0617 9.54644 20.4434 9.73703 21.0123L10.5411 23.4246C11.6853 22.4867 13.6729 22.8626 14.3646 24.2449C14.4741 24.4639 14.6826 24.5896 14.9068 24.6075V19.8502L22.3221 12.4877V9.791H14.4428C13.6781 9.791 13.0524 9.16534 13.0524 8.40065V0.521973H1.46616C0.695672 0.521973 0.0758057 1.14184 0.0758057 1.91233V28.7925C0.0758057 29.563 0.695672 30.1829 1.46616 30.1829H20.9311C21.7016 30.1829 22.3215 29.563 22.3215 28.7925V26.4753L14.9062 26.4689C13.9724 26.4509 13.1347 25.9313 12.7147 25.093ZM22.3215 7.58381C22.3215 7.21885 22.1766 6.86546 21.916 6.60477L16.2445 0.927493C15.9838 0.666801 15.6304 0.521973 15.2596 0.521973H14.9062V7.93719H22.3215V7.58381ZM16.7601 20.6219V24.6214H20.7567L30.1231 15.1914L26.1907 11.259L16.7601 20.6219ZM33.0121 10.2156L31.1659 8.36936C30.59 7.79353 29.6556 7.79353 29.0798 8.36936L27.5011 9.948L31.4335 13.8804L33.0121 12.3017C33.5886 11.7259 33.5886 10.7915 33.0121 10.2156Z" fill="black"/>
</g>
<defs>
<clipPath id="clip0_201_5303">
<rect width="33.3685" height="29.6609" fill="white" transform="translate(0.0756836 0.522217)"/>
</clipPath>
</defs>
</svg>
