<svg width="34" height="31" viewBox="0 0 34 31" fill="none" xmlns="http://www.w3.org/2000/svg">
<g clip-path="url(#clip0_201_5323)">
<path d="M22.3238 7.58381C22.3238 7.21885 22.179 6.86546 21.9183 6.60477L16.2468 0.927493C15.9861 0.666801 15.6327 0.521973 15.262 0.521973H14.9086V7.93719H22.3238V7.58381ZM33.157 18.3649L27.6129 12.7803C27.0278 12.1952 26.0256 12.6065 26.0256 13.4349V17.2062H22.318V20.9138H26.0256V24.691C26.0256 25.5194 27.0278 25.9307 27.6129 25.3456L33.157 19.7552C33.5393 19.3729 33.5393 18.7472 33.157 18.3649ZM11.201 19.9869V18.1331C11.201 17.6233 11.6181 17.2062 12.1279 17.2062H22.3238V9.791H14.4451C13.6804 9.791 13.0548 9.16534 13.0548 8.40065V0.521973H1.46848C0.697991 0.521973 0.078125 1.14184 0.078125 1.91233V28.7925C0.078125 29.563 0.697991 30.1829 1.46848 30.1829H20.9334C21.7039 30.1829 22.3238 29.563 22.3238 28.7925V20.9138H12.1279C11.6181 20.9138 11.201 20.4967 11.201 19.9869Z" fill="black"/>
</g>
<defs>
<clipPath id="clip0_201_5323">
<rect width="33.3685" height="29.6609" fill="white" transform="translate(0.078125 0.522217)"/>
</clipPath>
</defs>
</svg>
