<svg width="23" height="31" viewBox="0 0 23 31" fill="none" xmlns="http://www.w3.org/2000/svg">
<g clip-path="url(#clip0_201_5337)">
<path d="M22.5709 6.60477L16.8994 0.927493C16.6387 0.666801 16.2853 0.521973 15.9145 0.521973H15.5612V7.93719H22.9764V7.58381C22.9764 7.21885 22.8316 6.86546 22.5709 6.60477ZM8.16911 19.9869C7.13213 19.9869 6.29213 20.6879 6.29213 21.5511C6.29213 22.4201 7.13793 23.1152 8.1749 23.1152C9.21187 23.1152 10.0519 22.4143 10.0519 21.5511C10.0519 20.6879 9.20608 19.9869 8.16911 19.9869ZM13.7074 8.40065V0.521973H10.0229V2.37578H8.16911V0.521973H2.12107C1.35058 0.521973 0.730713 1.14184 0.730713 1.91233V28.7925C0.730713 29.563 1.35058 30.1829 2.12107 30.1829H21.586C22.3565 30.1829 22.9764 29.563 22.9764 28.7925V9.791H15.0977C14.333 9.791 13.7074 9.16534 13.7074 8.40065ZM6.28634 2.37578H8.14014V4.22958H6.28634V2.37578ZM8.15752 24.6214C6.2342 24.6214 4.7975 22.8603 5.17985 20.9776L6.3153 15.3524V13.4986H8.16911V11.6448H6.3153V9.791H8.16911V7.93719H6.3153V6.08339H8.16911V4.22958H10.0229V6.08339H8.16911V7.93719H10.0229V9.791H8.16911V11.6448H10.0229V13.4986H8.16911V15.3524H9.44939C9.7796 15.3524 10.0693 15.5899 10.133 15.9144L11.1352 20.9949C11.506 22.8719 10.0693 24.6214 8.15752 24.6214Z" fill="black"/>
</g>
<defs>
<clipPath id="clip0_201_5337">
<rect width="22.2457" height="29.6609" fill="white" transform="translate(0.730713 0.522217)"/>
</clipPath>
</defs>
</svg>
