<svg width="35" height="31" viewBox="0 0 35 31" fill="none" xmlns="http://www.w3.org/2000/svg">
<g clip-path="url(#clip0_201_5293)">
<path d="M30.3225 19.3991C30.3225 19.3991 26.6149 24.7665 26.6149 26.8144C26.6149 28.8622 28.2752 30.522 30.3225 30.522C32.3698 30.522 34.0301 28.8622 34.0301 26.8144C34.0301 24.7665 30.3225 19.3991 30.3225 19.3991ZM29.7797 13.4357L17.7479 1.4039C17.3858 1.04183 16.9114 0.861084 16.4369 0.861084C15.9624 0.861084 15.488 1.04183 15.1265 1.4039L10.4004 6.12995L5.40792 1.13684C5.04585 0.774766 4.459 0.774766 4.09751 1.13684L2.7871 2.44725C2.42561 2.80932 2.42561 3.39616 2.7871 3.75766L7.78021 8.75018L2.29063 14.2398C0.118781 16.411 0.118781 19.9321 2.29063 22.104L9.07961 28.8929C10.1652 29.9786 11.5886 30.522 13.0114 30.522C14.4348 30.522 15.8576 29.9792 16.9432 28.8929L29.7791 16.0571C30.5032 15.3329 30.5032 14.1598 29.7797 13.4357ZM23.0469 17.5471H4.48102C4.5598 17.3246 4.68783 17.0848 4.91145 16.8617L5.67325 16.0999L10.401 11.3722L13.7958 14.7669C14.5194 15.4905 15.6931 15.4905 16.4166 14.7669C17.1402 14.0434 17.1402 12.8697 16.4166 12.1461L13.0218 8.75134L16.4369 5.33629L25.8473 14.7467L23.0469 17.5471Z" fill="black"/>
</g>
<defs>
<clipPath id="clip0_201_5293">
<rect width="33.3685" height="29.6609" fill="white" transform="translate(0.661743 0.861328)"/>
</clipPath>
</defs>
</svg>
