<svg width="31" height="31" viewBox="0 0 31 31" fill="none" xmlns="http://www.w3.org/2000/svg">
<g clip-path="url(#clip0_201_5285)">
<path d="M15.5361 15.1101C14.7685 15.1101 14.1458 15.7323 14.1458 16.5005C14.2118 20.686 13.6742 24.721 12.5411 28.7559C12.3829 29.319 12.6656 30.5222 13.8805 30.5222C14.4876 30.5222 15.0455 30.1213 15.2181 29.5073C16.0019 26.7318 17.0163 22.2421 16.9259 16.5005C16.9265 15.7329 16.3043 15.1101 15.5361 15.1101ZM15.4863 10.3754C11.9374 10.3713 9.46086 13.1022 9.51011 16.2317C9.55355 19.0089 9.29286 21.7879 8.73556 24.4898C8.57973 25.2418 9.06403 25.9781 9.8154 26.1328C10.5714 26.2874 11.3025 25.8049 11.4583 25.0529C12.0573 22.1511 12.3372 19.1682 12.2908 16.1882C12.2671 14.6849 13.4448 13.1474 15.4452 13.1561C17.259 13.1833 18.756 14.6241 18.7832 16.3696C18.8278 19.1532 18.6204 21.9501 18.1685 24.6856C18.0428 25.4422 18.5561 26.1582 19.3133 26.2834C20.4702 26.4763 20.8664 25.4086 20.911 25.1381C21.3907 22.2398 21.6097 19.2748 21.5639 16.3261C21.5129 13.0935 18.7867 10.4241 15.4863 10.3754ZM9.07388 9.22952C8.47719 8.74637 7.60416 8.83559 7.11812 9.43112C5.63391 11.256 4.8362 13.5605 4.87327 15.9194C4.90745 18.0965 4.73018 20.2799 4.34552 22.4107C4.20996 23.1667 4.71107 23.8896 5.46707 24.0264C6.63207 24.2291 7.03527 23.1684 7.08278 22.9048C7.4993 20.5968 7.69106 18.2321 7.65398 15.876C7.62675 14.145 8.18695 12.5229 9.27606 11.1853C9.75979 10.5897 9.66942 9.71441 9.07388 9.22952ZM15.4156 5.61865C14.5229 5.5949 13.6273 5.70207 12.7635 5.90657C12.0168 6.08384 11.5545 6.83232 11.7306 7.58021C11.9079 8.32695 12.6575 8.78692 13.4043 8.61313C14.0444 8.46193 14.706 8.39473 15.3739 8.39936C19.7437 8.46482 23.3528 11.9621 23.4194 16.1958C23.4536 18.3902 23.3453 20.6049 23.0962 22.7785C23.0093 23.5415 23.5567 24.2314 24.3191 24.3183C25.2877 24.4313 25.7969 23.6301 25.8589 23.0954C26.1222 20.7908 26.2361 18.4716 26.2001 16.1523C26.1098 10.4316 21.2719 5.70555 15.4156 5.61865ZM30.0184 12.6544C29.8527 11.906 29.1199 11.4263 28.361 11.596C27.6114 11.7617 27.1375 12.5032 27.3032 13.2534C27.576 14.4937 27.5876 15.4207 27.5754 16.822C27.5691 17.5908 28.1866 18.2176 28.9542 18.224H28.9658C29.7288 18.224 30.3498 17.6093 30.3561 16.8452C30.3666 15.5603 30.3793 14.2898 30.0184 12.6544ZM27.6942 7.39889C24.8729 3.37902 20.2564 0.936056 15.3444 0.862483C11.3013 0.813821 7.56187 2.3044 4.78058 5.08684C2.0943 7.7766 0.646597 11.3492 0.706846 15.1501L0.699894 16.3939C0.677301 17.1615 1.28095 17.8022 2.04854 17.8242C2.06186 17.8254 2.07634 17.8254 2.09025 17.8254C2.83872 17.8254 3.45685 17.2287 3.47886 16.4756L3.48813 15.1061C3.44005 12.0647 4.5981 9.20519 6.74851 7.05361C8.99394 4.80588 12.04 3.59685 15.3038 3.64377C19.3272 3.70344 23.1089 5.70381 25.4198 8.99606C25.8607 9.62519 26.7267 9.77523 27.3559 9.33553C27.9839 8.8941 28.1356 8.02686 27.6942 7.39889Z" fill="black"/>
</g>
<defs>
<clipPath id="clip0_201_5285">
<rect width="29.6609" height="29.6609" fill="white" transform="translate(0.698364 0.861328)"/>
</clipPath>
</defs>
</svg>
