<svg width="23" height="31" viewBox="0 0 23 31" fill="none" xmlns="http://www.w3.org/2000/svg">
<g clip-path="url(#clip0_201_5279)">
<path d="M12.5692 2.24361C12.5692 0.864841 10.7936 0.345196 10.0115 1.48818C2.83674 11.9755 13.0327 12.4476 13.0327 17.5456C13.0327 19.6097 11.3463 21.2799 9.27582 21.2526C7.23837 21.2266 5.61745 19.528 5.61745 17.4906V12.5369C5.61745 11.2798 4.084 10.6697 3.21735 11.581C1.66652 13.21 0.0560303 16.0006 0.0560303 19.3994C0.0560303 25.5326 5.04566 30.5223 11.1789 30.5223C17.3121 30.5223 22.3017 25.5326 22.3017 19.3994C22.3017 9.53428 12.5692 8.21866 12.5692 2.24361Z" fill="black"/>
</g>
<defs>
<clipPath id="clip0_201_5279">
<rect width="22.2457" height="29.6609" fill="white" transform="translate(0.0560303 0.861328)"/>
</clipPath>
</defs>
</svg>
