<svg width="27" height="31" viewBox="0 0 27 31" fill="none" xmlns="http://www.w3.org/2000/svg">
<g clip-path="url(#clip0_201_5283)">
<path d="M19.6593 3.82742C18.4544 4.94549 17.3664 6.12092 16.4024 7.30156C14.8232 5.12624 12.8651 2.91963 10.6475 0.861328C4.95518 6.14294 0.915039 13.0246 0.915039 17.1748C0.915039 24.5466 6.72498 30.5222 13.8917 30.5222C21.0584 30.5222 26.8683 24.5466 26.8683 17.1748C26.8683 14.0888 23.857 7.72388 19.6593 3.82742ZM18.5314 23.5618C17.2766 24.44 15.7293 24.9608 14.0574 24.9608C9.87761 24.9608 6.47646 22.1952 6.47646 17.7049C6.47646 15.4682 7.88477 13.4973 10.6933 10.1304C11.0947 10.5926 16.4186 17.3915 16.4186 17.3915L19.8152 13.517C20.055 13.9139 20.2734 14.302 20.4681 14.6739C22.0525 17.6974 21.3839 21.566 18.5314 23.5618Z" fill="black"/>
</g>
<defs>
<clipPath id="clip0_201_5283">
<rect width="25.9533" height="29.6609" fill="white" transform="translate(0.915039 0.861328)"/>
</clipPath>
</defs>
</svg>
