<svg width="35" height="31" viewBox="0 0 35 31" fill="none" xmlns="http://www.w3.org/2000/svg">
<g clip-path="url(#clip0_201_5277)">
<path d="M0.857544 5.4958V25.8877C0.857544 27.4228 2.10307 28.6684 3.63825 28.6684H6.41896V2.71509H3.63825C2.10307 2.71509 0.857544 3.96061 0.857544 5.4958ZM8.27277 28.6684H26.8108V2.71509H8.27277V28.6684ZM11.9804 14.3014C11.9804 14.0465 12.1889 13.8379 12.4438 13.8379H15.688V10.5938C15.688 10.3389 15.8965 10.1303 16.1514 10.1303H18.9321C19.187 10.1303 19.3956 10.3389 19.3956 10.5938V13.8379H22.6398C22.8947 13.8379 23.1032 14.0465 23.1032 14.3014V17.0821C23.1032 17.337 22.8947 17.5455 22.6398 17.5455H19.3956V20.7897C19.3956 21.0446 19.187 21.2531 18.9321 21.2531H16.1514C15.8965 21.2531 15.688 21.0446 15.688 20.7897V17.5455H12.4438C12.1889 17.5455 11.9804 17.337 11.9804 17.0821V14.3014ZM31.4453 2.71509H28.6646V28.6684H31.4453C32.9805 28.6684 34.226 27.4228 34.226 25.8877V5.4958C34.226 3.96061 32.9805 2.71509 31.4453 2.71509Z" fill="black"/>
</g>
<defs>
<clipPath id="clip0_201_5277">
<rect width="33.3685" height="29.6609" fill="white" transform="translate(0.857544 0.861328)"/>
</clipPath>
</defs>
</svg>
