<svg width="35" height="31" viewBox="0 0 35 31" fill="none" xmlns="http://www.w3.org/2000/svg">
<g clip-path="url(#clip0_201_5275)">
<path d="M19.6084 6.42261C14.3963 6.42261 9.84461 9.59551 7.31127 12.3102L2.25212 8.48381C1.54941 7.952 0.500276 8.51857 0.679863 9.33308L2.08065 15.6916L0.679284 22.0508C0.499697 22.8653 1.54883 23.4313 2.25154 22.9L7.31069 19.0737C9.84404 21.7878 14.3963 24.9607 19.6084 24.9607C27.5716 24.9607 34.0275 17.5454 34.0275 15.6916C34.0275 13.8378 27.5716 6.42261 19.6084 6.42261ZM24.6733 17.082C23.9057 17.082 23.283 16.4592 23.283 15.6916C23.283 14.9235 23.9057 14.3013 24.6733 14.3013C25.4415 14.3013 26.0637 14.9235 26.0637 15.6916C26.0637 16.4592 25.4409 17.082 24.6733 17.082Z" fill="black"/>
</g>
<defs>
<clipPath id="clip0_201_5275">
<rect width="33.3685" height="29.6609" fill="white" transform="translate(0.659058 0.861328)"/>
</clipPath>
</defs>
</svg>
