<svg width="23" height="31" viewBox="0 0 23 31" fill="none" xmlns="http://www.w3.org/2000/svg">
<g clip-path="url(#clip0_201_5273)">
<path d="M15.4124 10.1304V1.78823C15.4124 1.27612 14.9976 0.861328 14.4855 0.861328H12.6317C12.1196 0.861328 11.7048 1.27612 11.7048 1.78823V10.3001C11.9956 10.197 12.3038 10.1304 12.63 10.1304H15.4124ZM22.8276 15.6912C22.8271 13.6439 21.1673 11.9842 19.1206 11.9842H12.6242C12.1155 11.9842 11.7031 12.3937 11.7031 12.9024V12.9348C11.7031 14.4567 12.937 15.6918 14.4589 15.6918H16.5015C17.0623 15.6918 17.2662 15.8992 17.2662 16.1552V17.0937C17.2662 17.3422 17.0582 17.5444 16.8097 17.5572C14.2306 17.6892 13.0928 18.9886 11.2454 21.7601L10.8799 22.3087C10.8461 22.3593 10.8028 22.4029 10.7522 22.4367C10.7017 22.4706 10.6449 22.4942 10.5853 22.5061C10.5256 22.5181 10.4642 22.5182 10.4045 22.5063C10.3448 22.4945 10.288 22.4711 10.2374 22.4373L9.46633 21.9229C9.41568 21.8892 9.37218 21.8458 9.3383 21.7952C9.30442 21.7447 9.28084 21.688 9.26889 21.6283C9.25695 21.5686 9.25688 21.5072 9.26869 21.4475C9.2805 21.3878 9.30396 21.331 9.33773 21.2804L9.70327 20.7318C10.6145 19.3646 11.4528 18.2257 12.444 17.3671C11.4435 17.0479 10.625 16.3174 10.1922 15.3714C9.81045 15.569 9.38349 15.6912 8.92525 15.6912H7.07145C6.35658 15.6912 5.71064 15.4125 5.21764 14.9682C4.72407 15.4131 4.07813 15.6918 3.36384 15.6918H1.51003C1.1833 15.6918 0.874525 15.6252 0.58313 15.5209V20.0355C0.58313 22.0022 1.36405 23.8879 2.75498 25.2788L4.29016 26.8146V30.5222H19.1194V26.8169L21.1998 24.736C22.243 23.6926 22.829 22.2774 22.8288 20.8019L22.8276 15.6912ZM20.9733 10.4722V3.64204C20.9733 3.12992 20.5585 2.71513 20.0464 2.71513H18.1925C17.6804 2.71513 17.2656 3.12992 17.2656 3.64204V10.1304H19.1194C19.7729 10.1304 20.3905 10.2642 20.9733 10.4722ZM1.51003 13.838H3.36384C3.87595 13.838 4.29074 13.4232 4.29074 12.9111V5.49584C4.29074 4.98373 3.87595 4.56894 3.36384 4.56894H1.51003C0.997919 4.56894 0.58313 4.98373 0.58313 5.49584V12.9111C0.58313 13.4232 0.997919 13.838 1.51003 13.838ZM7.07087 13.838H8.92468C9.43679 13.838 9.85158 13.4232 9.85158 12.9111V3.64204C9.85158 3.12992 9.43679 2.71513 8.92468 2.71513H7.07087C6.55876 2.71513 6.14397 3.12992 6.14397 3.64204V12.9111C6.14397 13.4232 6.55876 13.838 7.07087 13.838Z" fill="black"/>
</g>
<defs>
<clipPath id="clip0_201_5273">
<rect width="22.2457" height="29.6609" fill="white" transform="translate(0.583374 0.861328)"/>
</clipPath>
</defs>
</svg>
