<svg width="31" height="31" viewBox="0 0 31 31" fill="none" xmlns="http://www.w3.org/2000/svg">
<g clip-path="url(#clip0_201_5269)">
<path d="M2.45537 0.861313C1.42998 0.861313 0.601562 1.68973 0.601562 2.71512V29.5953C0.601562 30.1051 1.01867 30.5222 1.52847 30.5222H3.38227C3.89207 30.5222 4.30917 30.1051 4.30917 29.5953V2.71512C4.30917 1.68973 3.48075 0.861313 2.45537 0.861313ZM17.9752 18.4493C14.6615 17.5745 11.5043 16.7809 6.16298 19.0923V23.107C16.9208 17.7657 19.0064 26.1947 29.1907 21.7688C29.8511 21.4791 30.2625 20.8129 30.2625 20.1003V18.0148C27.7366 19.017 25.6164 19.411 23.7683 19.411C21.6017 19.4052 19.7769 18.9243 17.9752 18.4493ZM17.9752 12.8879C14.6615 12.0131 11.5043 11.2195 6.16298 13.5309V17.0937C11.6549 14.9155 15.1192 15.7787 18.4502 16.6534C21.7639 17.5282 24.9212 18.3218 30.2625 16.0104V12.4476C27.7366 13.4498 25.6164 13.8437 23.7683 13.8437C21.6017 13.8437 19.7769 13.3629 17.9752 12.8879ZM18.5255 5.59431C21.5264 6.49804 24.1681 7.27432 30.2625 4.42989V2.6456C30.2625 1.19152 28.7099 0.438413 27.4006 1.10462C17.477 6.16204 18.2938 -2.74202 6.16298 2.73829V11.5381C11.6549 9.36565 15.1192 10.223 18.4502 11.0978C21.7639 11.9668 24.9212 12.7604 30.2625 10.4548V6.46328C27.1573 7.82467 24.8574 8.28233 22.9573 8.28233C21.0571 8.28233 19.5393 7.83046 17.9926 7.36122C17.7609 7.2917 17.5233 7.22218 17.2916 7.15846V5.23514C17.7087 5.351 18.12 5.47265 18.5255 5.59431ZM9.87059 8.28233C9.36079 8.28233 8.94369 7.87102 8.94369 7.35543C8.94369 6.84563 9.36079 6.42852 9.87059 6.42852C10.3804 6.42852 10.7975 6.83984 10.7975 7.35543C10.7975 7.87102 10.3804 8.28233 9.87059 8.28233ZM9.87059 5.04976C9.36079 5.04976 8.94369 4.63844 8.94369 4.12285C8.94369 3.61306 9.36079 3.19595 9.87059 3.19595C10.3804 3.19595 10.7975 3.60726 10.7975 4.12285C10.7975 4.63265 10.3804 5.04976 9.87059 5.04976ZM13.5782 7.82467C13.0684 7.82467 12.6513 7.41336 12.6513 6.89777C12.6513 6.38797 13.0684 5.97086 13.5782 5.97086C14.088 5.97086 14.5051 6.38218 14.5051 6.89777C14.5051 7.40756 14.088 7.82467 13.5782 7.82467ZM13.5782 4.5863C13.0684 4.5863 12.6513 4.17499 12.6513 3.6594C12.6513 3.1496 13.0684 2.7325 13.5782 2.7325C14.088 2.7325 14.5051 3.14381 14.5051 3.6594C14.5051 4.1692 14.088 4.5863 13.5782 4.5863Z" fill="black"/>
</g>
<defs>
<clipPath id="clip0_201_5269">
<rect width="29.6609" height="29.6609" fill="white" transform="translate(0.601562 0.861328)"/>
</clipPath>
</defs>
</svg>
