<svg width="27" height="31" viewBox="0 0 27 31" fill="none" xmlns="http://www.w3.org/2000/svg">
<g clip-path="url(#clip0_201_5265)">
<path d="M25.6554 24.2367L18.8659 13.3166V4.56894H19.3293C20.0998 4.56894 20.7197 3.94907 20.7197 3.17859V2.25168C20.7197 1.48119 20.0998 0.861328 19.3293 0.861328H7.2796C6.50911 0.861328 5.88924 1.48119 5.88924 2.25168V3.17859C5.88924 3.94907 6.50911 4.56894 7.2796 4.56894H7.74305V13.3166L0.953485 24.2367C-0.743905 26.9652 1.21418 30.5222 4.43516 30.5222H22.1738C25.4005 30.5222 27.3528 26.9594 25.6554 24.2367ZM8.31657 19.3994L11.1089 14.9039C11.3232 14.6027 11.4449 14.2319 11.4449 13.838V4.56894H15.1525V13.838C15.1525 14.2377 15.2799 14.6027 15.4885 14.9039L18.2808 19.3994H8.31657Z" fill="black"/>
</g>
<defs>
<clipPath id="clip0_201_5265">
<rect width="25.9533" height="29.6609" fill="white" transform="translate(0.327393 0.861328)"/>
</clipPath>
</defs>
</svg>
