<svg width="30" height="31" viewBox="0 0 30 31" fill="none" xmlns="http://www.w3.org/2000/svg">
<g clip-path="url(#clip0_201_5261)">
<path d="M27.1528 8.27646H16.0299L12.3223 4.56885H3.05329C1.51753 4.56885 0.272583 5.81379 0.272583 7.34956V24.0338C0.272583 25.5696 1.51753 26.8145 3.05329 26.8145H27.1528C28.6885 26.8145 29.9335 25.5696 29.9335 24.0338V11.0572C29.9335 9.52141 28.6885 8.27646 27.1528 8.27646ZM21.5913 18.0089C21.5913 18.5211 21.1766 18.9358 20.6644 18.9358H9.54161C9.0295 18.9358 8.61471 18.5211 8.61471 18.0089V17.082C8.61471 16.5699 9.0295 16.1551 9.54161 16.1551H20.6644C21.1766 16.1551 21.5913 16.5699 21.5913 17.082V18.0089Z" fill="black"/>
</g>
<defs>
<clipPath id="clip0_201_5261">
<rect width="29.6609" height="29.6609" fill="white" transform="translate(0.272461 0.861328)"/>
</clipPath>
</defs>
</svg>
