<svg width="31" height="31" viewBox="0 0 31 31" fill="none" xmlns="http://www.w3.org/2000/svg">
<g clip-path="url(#clip0_201_5257)">
<path d="M27.4634 8.27646H16.3406L12.633 4.56885H3.36396C2.62647 4.56885 1.91919 4.86181 1.3977 5.3833C0.876219 5.90478 0.583252 6.61207 0.583252 7.34956L0.583252 24.0338C0.583252 24.7713 0.876219 25.4786 1.3977 26.0001C1.91919 26.5215 2.62647 26.8145 3.36396 26.8145H27.4634C28.2009 26.8145 28.9082 26.5215 29.4297 26.0001C29.9512 25.4786 30.2441 24.7713 30.2441 24.0338V11.0572C30.2441 10.3197 29.9512 9.61239 29.4297 9.09091C28.9082 8.56943 28.2009 8.27646 27.4634 8.27646ZM21.4096 18.0089C21.4096 18.2548 21.3119 18.4905 21.1381 18.6644C20.9643 18.8382 20.7285 18.9358 20.4827 18.9358H16.7751V22.6435C16.7751 22.8893 16.6774 23.125 16.5036 23.2989C16.3298 23.4727 16.094 23.5704 15.8482 23.5704H14.9213C14.6754 23.5704 14.4397 23.4727 14.2659 23.2989C14.092 23.125 13.9944 22.8893 13.9944 22.6435V18.9358H10.2868C10.0409 18.9358 9.80517 18.8382 9.63135 18.6644C9.45752 18.4905 9.35986 18.2548 9.35986 18.0089V17.082C9.35986 16.8362 9.45752 16.6004 9.63135 16.4266C9.80517 16.2528 10.0409 16.1551 10.2868 16.1551H13.9944V12.4475C13.9944 12.2017 14.092 11.9659 14.2659 11.7921C14.4397 11.6183 14.6754 11.5206 14.9213 11.5206H15.8482C16.094 11.5206 16.3298 11.6183 16.5036 11.7921C16.6774 11.9659 16.7751 12.2017 16.7751 12.4475V16.1551H20.4827C20.7285 16.1551 20.9643 16.2528 21.1381 16.4266C21.3119 16.6004 21.4096 16.8362 21.4096 17.082V18.0089Z" fill="black"/>
</g>
<defs>
<clipPath id="clip0_201_5257">
<rect width="29.6609" height="29.6609" fill="white" transform="translate(0.58313 0.861328)"/>
</clipPath>
</defs>
</svg>
