<svg width="232" height="31" viewBox="0 0 232 31" fill="none" xmlns="http://www.w3.org/2000/svg">
<g clip-path="url(#clip0_201_5253)">
<path d="M26.3356 0.861206H3.32526C1.50042 0.861206 0 2.36163 0 4.18647V27.2026C0 29.0217 1.50042 30.5221 3.32526 30.5221H26.3414C28.1605 30.5221 29.6667 29.0217 29.6667 27.1968V4.18647C29.6609 2.36163 28.1605 0.861206 26.3356 0.861206ZM22.9235 19.6831C22.9235 19.9612 22.6859 20.0829 22.4079 20.1987C21.2956 20.668 20.108 21.1082 18.8451 21.1082C16.4989 21.1082 14.8652 18.5129 9.39068 21.2531V24.2539C9.39068 26.0092 6.74322 26.0034 6.74322 24.2539V9.77106C6.22184 9.36554 5.87425 8.73409 5.87425 8.01574C5.87425 6.79918 6.86487 5.80276 8.08723 5.80276C9.30379 5.80276 10.3002 6.79338 10.3002 8.01574C10.3002 8.7225 9.9642 9.35975 9.43703 9.76527V10.9818C11.5863 10.2866 13.2315 8.98899 17.9008 10.7849C19.4418 11.4453 21.8807 9.87534 22.3326 9.87534C22.6512 9.87534 22.9293 10.1129 22.9293 10.3909V19.6831H22.9235ZM48.002 9.59147H40.0654V13.6525H47.7934C50.0991 13.6525 50.1339 17.2558 47.7934 17.2558H40.0654V23.3734C40.0654 26.0092 35.9696 26.0614 35.9696 23.3734V8.29381C35.9696 7.01932 37.0124 5.98814 38.2753 5.98814H47.9962C50.2903 5.98814 50.3424 9.59147 48.002 9.59147ZM59.0727 10.9471C49.2649 10.9471 49.2765 25.569 59.0727 25.569C68.9152 25.569 68.9152 10.9471 59.0727 10.9471ZM59.0727 22.3074C54.3455 22.3074 54.3165 14.2086 59.0727 14.2086C63.852 14.2086 63.8462 22.3074 59.0727 22.3074ZM80.6463 25.401C79.6325 25.401 78.8273 24.5957 78.8273 23.5819V16.8039C78.8273 13.189 74.6215 13.7625 73.0863 15.8539V23.5819C73.0863 25.9861 69.4192 26.0034 69.4192 23.5819V12.9109C69.4192 10.5937 73.0747 10.501 73.0747 12.9109V13.1079C75.5831 10.1186 82.4828 9.60885 82.4828 15.3846V23.5819C82.5001 25.343 80.6579 25.401 80.6463 25.401ZM91.0566 25.569C88.4902 25.569 87.0999 24.2423 87.0999 21.7571V14.4867H86.202C84.1396 14.4867 84.0759 11.2831 86.202 11.2831H87.0999V9.12223C87.0999 6.72966 90.7959 6.68331 90.7959 9.12223V11.2947H92.2384C94.2892 11.2947 94.3066 14.4983 92.2384 14.4983H90.7959V20.7838C90.7959 22.4986 92.3079 22.3074 92.3832 22.3074C94.2023 22.3074 95.4304 25.569 91.0566 25.569ZM115.399 7.98677C114.27 5.07861 109.867 5.0902 108.766 7.98677C102.55 23.9585 103.002 22.626 103.002 23.2111C103.002 25.6906 106.379 26.1772 107.179 24.0454L107.961 21.9656H116.21L116.964 24.0454C117.786 26.2294 121.14 25.6211 121.14 23.2111C121.14 22.626 121.447 23.6051 115.399 7.98677ZM109.091 18.3623L112.086 10.0839L115.087 18.3623H109.091ZM143.346 13.4034L140.235 23.6167C139.516 26.0034 136.064 25.9919 135.368 23.6167L132.918 15.7438L130.467 23.6167C129.749 25.9861 126.296 26.0034 125.572 23.6167L122.432 13.4034C121.708 11.1209 125.317 10.1534 125.92 12.4243L128.202 20.6738L130.827 12.5923C131.458 10.698 134.279 10.5821 134.951 12.5923L137.576 20.6738L139.852 12.4243C140.449 10.2055 144.058 11.0456 143.346 13.4034ZM159.3 17.754C159.3 15.2977 157.336 10.9471 152.377 10.9471C148.136 10.9471 145.17 14.2086 145.17 18.2464C145.17 22.7187 148.374 25.569 152.615 25.569C154.451 25.569 158.002 24.9027 158.002 23.2633C158.002 22.2031 156.78 21.4384 155.725 21.9656C152.864 23.4834 149.411 22.4522 149.011 19.4282H157.602C158.547 19.4282 159.3 18.6519 159.3 17.754ZM148.942 16.9488C149.492 12.6966 155.54 12.9747 155.812 16.9488H148.942ZM167.289 25.569C165.47 25.569 162.561 24.9607 161.692 23.7209C160.974 22.7361 161.837 21.4153 162.955 21.4153C163.9 21.4153 165.087 22.7419 167.457 22.7419C169.044 22.7419 169.797 22.1047 169.797 21.2473C169.797 18.9416 161.519 20.8186 161.519 15.3383C161.519 12.9978 163.564 10.9529 167.231 10.9529C169.05 10.9529 171.523 11.5264 172.305 12.656C172.931 13.5134 172.224 14.7532 171.095 14.7532C170.22 14.7532 169.548 13.7509 167.26 13.7509C165.933 13.7509 165.07 14.3592 165.07 15.1297C165.07 17.2095 173.319 15.4773 173.319 21.1024C173.313 23.634 171.153 25.569 167.289 25.569ZM182.745 10.9471C172.937 10.9471 172.948 25.569 182.745 25.569C192.599 25.569 192.57 10.9471 182.745 10.9471ZM182.745 22.3074C178.006 22.3074 177.994 14.2086 182.745 14.2086C187.524 14.2086 187.518 22.3074 182.745 22.3074ZM210.372 23.5819V16.4274C210.372 13.3107 206.815 13.7741 205.407 15.8191V23.5819C205.407 25.9745 201.711 26.0208 201.711 23.5819V16.4274C201.711 13.4092 198.264 13.6814 196.747 15.8423V23.5819C196.747 25.9861 193.08 26.0034 193.08 23.5819V12.9109C193.08 10.5937 196.735 10.501 196.735 12.9109V13.1079C197.309 12.2737 199.157 10.9471 201.289 10.9471C203.334 10.9471 204.631 11.8971 205.153 13.4845C205.958 12.2216 207.806 10.9471 209.938 10.9471C212.504 10.9471 214.033 12.3027 214.033 15.1587V23.5761C214.062 24.5783 213.251 25.3952 212.185 25.3952C212.388 25.401 210.372 25.4589 210.372 23.5819ZM231.262 17.754C231.262 15.2977 229.385 10.9471 224.432 10.9471C220.192 10.9471 217.046 14.2086 217.046 18.2464C217.046 22.7187 220.423 25.569 224.67 25.569C226.506 25.569 229.97 24.9027 229.97 23.2633C229.97 22.2031 228.748 21.4384 227.694 21.9656C224.832 23.4834 221.292 22.4522 220.887 19.4282H229.565C230.509 19.4282 231.251 18.6519 231.262 17.754ZM220.806 16.9488C221.368 12.6387 227.52 12.992 227.763 16.9488H220.806Z" fill="black"/>
</g>
<defs>
<clipPath id="clip0_201_5253">
<rect width="231.262" height="29.6609" fill="white" transform="translate(0 0.861328)"/>
</clipPath>
</defs>
</svg>
