<svg width="34" height="30" viewBox="0 0 34 30" fill="none" xmlns="http://www.w3.org/2000/svg">
<g clip-path="url(#clip0_201_5245)">
<path d="M26.1718 5.8449C25.7744 3.68985 23.8928 2.05444 21.6224 2.05444C19.3498 2.05444 17.4676 3.69332 17.0725 5.85127C7.64648 6.74457 0.274708 14.6904 0.303674 24.3569C0.310046 26.3798 1.98832 28.0077 4.01128 28.0077H21.6224C22.1346 28.0077 22.5493 27.5929 22.5493 27.0808C22.5493 26.0572 21.7192 25.227 20.6955 25.227H16.0906L18.1645 22.4272C19.563 20.3283 18.7641 17.313 16.2116 16.2517C14.8277 15.6764 13.2253 15.9823 12.0267 16.882L10.1288 18.3065C9.71985 18.6141 9.13879 18.533 8.8306 18.1217C8.52356 17.7116 8.60583 17.1305 9.0154 16.8235L11.0303 15.312C13.1644 13.7097 16.1444 13.712 18.2792 15.312C18.9089 15.7842 20.9365 17.5749 20.6428 20.7118L27.5094 28.0077H32.7453C33.2574 28.0077 33.6722 27.5929 33.6722 27.0808C33.6722 26.0572 32.842 25.227 31.8184 25.227H28.7115L23.0041 19.1628L31.951 14.143C32.4731 13.8502 32.9078 13.4236 33.2103 12.907C33.5128 12.3905 33.6722 11.8027 33.6722 11.2041C33.6722 9.9644 32.9932 8.83184 31.9064 8.23631C29.5567 6.94907 26.1718 5.8449 26.1718 5.8449ZM21.6224 8.07931C20.8543 8.07931 20.2321 7.45655 20.2321 6.68896C20.2321 5.92079 20.8543 5.2986 21.6224 5.2986C22.39 5.2986 23.0128 5.92079 23.0128 6.68896C23.0128 7.45655 22.39 8.07931 21.6224 8.07931Z" fill="black"/>
</g>
<defs>
<clipPath id="clip0_201_5245">
<rect width="33.3685" height="29.6609" fill="white" transform="translate(0.303589 0.200439)"/>
</clipPath>
</defs>
</svg>
