<svg width="30" height="30" viewBox="0 0 30 30" fill="none" xmlns="http://www.w3.org/2000/svg">
<g clip-path="url(#clip0_201_5243)">
<path d="M15.1066 0.664062C7.17001 0.664062 0.739624 7.09445 0.739624 15.0311C0.739624 22.9677 7.17001 29.3981 15.1066 29.3981C23.0432 29.3981 29.4736 22.9677 29.4736 15.0311C29.4736 7.09445 23.0432 0.664062 15.1066 0.664062ZM8.6183 12.2503C8.6183 11.225 9.44672 10.3965 10.4721 10.3965C11.4975 10.3965 12.3259 11.225 12.3259 12.2503C12.3259 13.2757 11.4975 14.1042 10.4721 14.1042C9.44672 14.1042 8.6183 13.2757 8.6183 12.2503ZM19.4689 22.8692C17.6614 22.313 16.0277 21.9828 15.1066 21.9828C14.1855 21.9828 12.5518 22.313 10.7444 22.8692C10.0782 23.0719 9.44092 22.5042 9.55679 21.8206C9.96231 19.5034 13.0385 18.2752 15.1066 18.2752C17.1748 18.2752 20.2509 19.5092 20.6564 21.8206C20.7723 22.51 20.1293 23.0719 19.4689 22.8692ZM19.7411 14.1042C18.7157 14.1042 17.8873 13.2757 17.8873 12.2503C17.8873 11.225 18.7157 10.3965 19.7411 10.3965C20.7665 10.3965 21.5949 11.225 21.5949 12.2503C21.5949 13.2757 20.7665 14.1042 19.7411 14.1042Z" fill="black"/>
</g>
<defs>
<clipPath id="clip0_201_5243">
<rect width="28.734" height="29.6609" fill="white" transform="translate(0.739624 0.200439)"/>
</clipPath>
</defs>
</svg>
