<svg width="38" height="30" viewBox="0 0 38 30" fill="none" xmlns="http://www.w3.org/2000/svg">
<g clip-path="url(#clip0_201_5239)">
<path d="M25.3814 9.81382L31.244 3.33304C32.3998 2.1773 31.5812 0.200684 29.9464 0.200684H2.10917C0.474345 0.200684 -0.344226 2.1773 0.811506 3.33304L11.3933 15.0311V24.0638C11.3933 24.7932 11.7368 25.4796 12.3202 25.9176L16.9541 29.3935C18.1625 30.2995 19.762 29.7973 20.3848 28.6074C18.2755 26.5815 16.9547 23.7411 16.9547 20.5925C16.9547 15.3909 20.5493 11.024 25.3814 9.81382ZM28.0775 11.3235C22.9581 11.3235 18.8085 15.4731 18.8085 20.5925C18.8085 25.7119 22.9581 29.8616 28.0775 29.8616C33.1969 29.8616 37.3465 25.7119 37.3465 20.5925C37.3465 15.4731 33.1969 11.3235 28.0775 11.3235ZM29.0044 25.2201V26.154C29.0044 26.41 28.797 26.6174 28.541 26.6174H27.6141C27.358 26.6174 27.1506 26.41 27.1506 26.154V25.2103C26.4966 25.1767 25.8605 24.9484 25.3333 24.5527C25.1074 24.383 25.0958 24.0447 25.3003 23.8494L25.981 23.2C26.1414 23.0471 26.3801 23.0401 26.5678 23.1577C26.792 23.2979 27.0463 23.3733 27.3105 23.3733H28.939C29.3155 23.3733 29.6225 23.0303 29.6225 22.6091C29.6225 22.2644 29.4134 21.9609 29.1145 21.8717L26.5076 21.0896C25.4306 20.7663 24.6781 19.7328 24.6781 18.576C24.6781 17.1555 25.7817 16.0015 27.15 15.965V15.0311C27.15 14.7751 27.3574 14.5677 27.6135 14.5677H28.5404C28.7964 14.5677 29.0038 14.7751 29.0038 15.0311V15.9748C29.6579 16.0084 30.294 16.2361 30.8211 16.6324C31.0471 16.8021 31.0587 17.1404 30.8542 17.3356L30.1735 17.9851C30.013 18.138 29.7743 18.1449 29.5866 18.0273C29.3624 17.8866 29.1081 17.8118 28.8439 17.8118H27.2155C26.8389 17.8118 26.5319 18.1548 26.5319 18.576C26.5319 18.9206 26.741 19.2242 27.04 19.3134L29.6469 20.0955C30.7238 20.4188 31.4763 21.4522 31.4763 22.6091C31.4763 24.0302 30.3733 25.1836 29.0044 25.2201Z" fill="black"/>
</g>
<defs>
<clipPath id="clip0_201_5239">
<rect width="37.0761" height="29.6609" fill="white" transform="translate(0.269531 0.200439)"/>
</clipPath>
</defs>
</svg>
