<svg width="31" height="30" viewBox="0 0 31 30" fill="none" xmlns="http://www.w3.org/2000/svg">
<g clip-path="url(#clip0_201_5237)">
<path d="M29.9765 15.0311C29.9765 22.9657 23.5442 29.3981 15.6095 29.3981C7.67485 29.3981 1.24255 22.9657 1.24255 15.0311C1.24255 7.09636 7.67485 0.664062 15.6095 0.664062C23.5442 0.664062 29.9765 7.09636 29.9765 15.0311ZM27.1958 15.0311L27.1957 15.0147L25.6857 16.3321L22.0547 12.9431L23.0079 8.05634L24.9951 8.23431C23.5532 6.25213 21.519 4.75327 19.1609 3.99715L19.9517 5.84742L15.6095 8.25308L11.2674 5.84748L12.0582 3.99721C9.70442 4.75194 7.66819 6.249 6.22402 8.23437L8.22642 8.05634L9.16444 12.9431L5.53342 16.3321L4.02349 15.0147L4.02332 15.0311C4.02332 17.523 4.80522 19.8945 6.25206 21.8664L6.69836 19.9027L11.6305 20.5079L13.7335 25.0165L12.0012 26.0469C14.3302 26.8071 16.8843 26.8086 19.2179 26.0469L17.4856 25.0165L19.5886 20.5079L24.5207 19.9027L24.967 21.8664C26.4139 19.8945 27.1958 17.523 27.1958 15.0311ZM12.8229 19.0614L11.0911 13.7716L15.6095 10.4969L20.128 13.7716L18.4119 19.0614H12.8229Z" fill="black"/>
</g>
<defs>
<clipPath id="clip0_201_5237">
<rect width="29.6609" height="29.6609" fill="white" transform="translate(0.778687 0.200439)"/>
</clipPath>
</defs>
</svg>
