<svg width="38" height="30" viewBox="0 0 38 30" fill="none" xmlns="http://www.w3.org/2000/svg">
<g clip-path="url(#clip0_201_5235)">
<path d="M28.684 5.76196H10.1419C8.61366 5.76174 7.10904 6.13942 5.76203 6.86136C4.41502 7.5833 3.26742 8.62711 2.4214 9.89985C1.57537 11.1726 1.05718 12.6348 0.912953 14.1562C0.768725 15.6777 1.00294 17.2112 1.59473 18.6203C2.18653 20.0293 3.11756 21.2702 4.30492 22.2323C5.49228 23.1945 6.89913 23.8482 8.40023 24.1352C9.90132 24.4221 11.4501 24.3335 12.9086 23.8771C14.3672 23.4207 15.6902 22.6107 16.76 21.5193H22.0619C23.1316 22.6106 24.4545 23.4205 25.9128 23.8769C27.3712 24.3333 28.9197 24.4221 30.4207 24.1354C31.9217 23.8486 33.3284 23.1952 34.5158 22.2333C35.7032 21.2714 36.6344 20.0309 37.2264 18.6221C37.8184 17.2134 38.053 15.6801 37.9092 14.1588C37.7654 12.6374 37.2477 11.1753 36.4022 9.90239C35.5567 8.62951 34.4096 7.58541 33.063 6.86304C31.7164 6.14066 30.2122 5.76241 28.684 5.76196ZM15.2399 15.7262C15.2399 15.9105 15.1667 16.0874 15.0363 16.2177C14.9059 16.3481 14.7291 16.4213 14.5447 16.4213H11.5323V19.4338C11.5323 19.6182 11.459 19.795 11.3287 19.9253C11.1983 20.0557 11.0215 20.129 10.8371 20.129H9.44676C9.26239 20.129 9.08557 20.0557 8.95519 19.9253C8.82482 19.795 8.75158 19.6182 8.75158 19.4338V16.4213H5.73915C5.55478 16.4213 5.37795 16.3481 5.24758 16.2177C5.11721 16.0874 5.04397 15.9105 5.04397 15.7262V14.3358C5.04397 14.1514 5.11721 13.9746 5.24758 13.8442C5.37795 13.7139 5.55478 13.6406 5.73915 13.6406H8.75158V10.6282C8.75158 10.4438 8.82482 10.267 8.95519 10.1366C9.08557 10.0063 9.26239 9.93303 9.44676 9.93303H10.8371C11.0215 9.93303 11.1983 10.0063 11.3287 10.1366C11.459 10.267 11.5323 10.4438 11.5323 10.6282V13.6406H14.5447C14.7291 13.6406 14.9059 13.7139 15.0363 13.8442C15.1667 13.9746 15.2399 14.1514 15.2399 14.3358V15.7262ZM27.7531 20.129C27.2948 20.129 26.8468 19.9931 26.4657 19.7384C26.0846 19.4838 25.7876 19.1219 25.6122 18.6985C25.4368 18.2751 25.3909 17.8091 25.4804 17.3596C25.5698 16.9101 25.7905 16.4972 26.1145 16.1732C26.4386 15.8491 26.8515 15.6284 27.301 15.539C27.7505 15.4496 28.2164 15.4954 28.6399 15.6708C29.0633 15.8462 29.4252 16.1432 29.6798 16.5243C29.9344 16.9054 30.0703 17.3534 30.0703 17.8117C30.0703 18.4263 29.8262 19.0157 29.3916 19.4502C28.9571 19.8848 28.3677 20.129 27.7531 20.129ZM31.4607 14.5675C31.0024 14.5675 30.5544 14.4316 30.1733 14.177C29.7922 13.9224 29.4952 13.5605 29.3198 13.1371C29.1444 12.7136 29.0986 12.2477 29.188 11.7982C29.2774 11.3487 29.4981 10.9358 29.8222 10.6117C30.1462 10.2877 30.5591 10.067 31.0086 9.97755C31.4581 9.88814 31.9241 9.93403 32.3475 10.1094C32.7709 10.2848 33.1328 10.5818 33.3874 10.9629C33.6421 11.344 33.778 11.792 33.778 12.2503C33.778 12.8649 33.5338 13.4543 33.0993 13.8888C32.6647 14.3234 32.0753 14.5675 31.4607 14.5675Z" fill="black"/>
</g>
<defs>
<clipPath id="clip0_201_5235">
<rect width="37.0761" height="29.6609" fill="white" transform="translate(0.872559 0.200439)"/>
</clipPath>
</defs>
</svg>
