<svg width="31" height="30" viewBox="0 0 31 30" fill="none" xmlns="http://www.w3.org/2000/svg">
<g clip-path="url(#clip0_201_5233)">
<path d="M19.8465 26.154H1.30849C0.798698 26.154 0.381592 26.5711 0.381592 27.0809V28.9347C0.381592 29.4445 0.798698 29.8616 1.30849 29.8616H19.8465C20.3563 29.8616 20.7735 29.4445 20.7735 28.9347V27.0809C20.7735 26.5711 20.3563 26.154 19.8465 26.154ZM28.9534 6.41673L24.2609 1.72428C23.9018 1.36511 23.3109 1.36511 22.9517 1.72428L22.297 2.37891C21.9379 2.73808 21.9379 3.32898 22.297 3.68816L24.4811 5.87217V9.46971C24.4811 11.0976 25.6918 12.4416 27.2618 12.6675V21.9829C27.2618 22.7476 26.6361 23.3733 25.8714 23.3733C25.1067 23.3733 24.4811 22.7476 24.4811 21.9829V20.1291C24.4811 17.3136 22.1986 15.0311 19.3831 15.0311H18.9196V3.90829C18.9196 1.86332 17.257 0.200684 15.212 0.200684H5.94301C3.89803 0.200684 2.2354 1.86332 2.2354 3.90829V24.3002H18.9196V17.8118H19.3831C20.6634 17.8118 21.7004 18.8488 21.7004 20.1291V21.7396C21.7004 23.9236 23.2645 25.9107 25.4369 26.1366C27.928 26.3857 30.0425 24.4276 30.0425 21.9829V9.04102C30.0425 8.05618 29.6485 7.1119 28.9534 6.41673ZM15.212 11.3235H5.94301V3.90829H15.212V11.3235Z" fill="black"/>
</g>
<defs>
<clipPath id="clip0_201_5233">
<rect width="29.6609" height="29.6609" fill="white" transform="translate(0.381592 0.200439)"/>
</clipPath>
</defs>
</svg>
