<svg width="31" height="30" viewBox="0 0 31 30" fill="none" xmlns="http://www.w3.org/2000/svg">
<g clip-path="url(#clip0_201_5231)">
<path d="M30.1454 11.7501L28.8346 10.4392C28.2916 9.89625 27.4113 9.89625 26.8683 10.4392L26.5406 10.767L19.9864 4.21277L20.3141 3.88505C20.8571 3.34206 20.8571 2.46173 20.3141 1.9188L19.0033 0.607927C18.4603 0.0649358 17.58 0.0649358 17.037 0.607927L9.8274 7.81755C9.28441 8.36054 9.28441 9.24087 9.8274 9.7838L11.1382 11.0946C11.6812 11.6376 12.5615 11.6376 13.1045 11.0946L13.4322 10.7669L15.7262 13.0609L11.0314 17.7556L10.7037 17.4279C9.9797 16.7039 8.80595 16.7039 8.08198 17.4279L1.4347 24.0753C0.710731 24.7993 0.710731 25.973 1.4347 26.697L4.05639 29.3187C4.78036 30.0427 5.9541 30.0427 6.67807 29.3187L13.3254 22.6713C14.0494 21.9474 14.0494 20.7736 13.3254 20.0497L12.9977 19.7219L17.6925 15.0272L19.9864 17.3211L19.6587 17.6489C19.1157 18.1919 19.1157 19.0722 19.6587 19.6151L20.9695 20.9259C21.5125 21.4689 22.3928 21.4689 22.9358 20.9259L30.1454 13.7163C30.6883 13.1734 30.6883 12.293 30.1454 11.7501Z" fill="black"/>
</g>
<defs>
<clipPath id="clip0_201_5231">
<rect width="29.6609" height="29.6609" fill="white" transform="translate(0.890747 0.200439)"/>
</clipPath>
</defs>
</svg>
