<svg width="31" height="30" viewBox="0 0 31 30" fill="none" xmlns="http://www.w3.org/2000/svg">
<g clip-path="url(#clip0_201_5223)">
<path d="M2.46513 26.1539C2.46513 27.1793 3.29355 28.0077 4.31894 28.0077H13.588V18.7387H2.46513V26.1539ZM17.2956 28.0077H26.5646C27.59 28.0077 28.4184 27.1793 28.4184 26.1539V18.7387H17.2956V28.0077ZM28.4184 9.46967H25.9795C26.3387 8.7687 26.5646 7.99241 26.5646 7.15241C26.5646 4.34273 24.2763 2.05444 21.4666 2.05444C19.0567 2.05444 17.4983 3.28838 15.4997 6.01116C13.5011 3.28838 11.9427 2.05444 9.53277 2.05444C6.72309 2.05444 4.4348 4.34273 4.4348 7.15241C4.4348 7.99241 4.65494 8.7687 5.01991 9.46967H2.46513C1.43975 9.46967 0.611328 10.2981 0.611328 11.3235V15.958C0.611328 16.4678 1.02843 16.8849 1.53823 16.8849H29.3453C29.8551 16.8849 30.2722 16.4678 30.2722 15.958V11.3235C30.2722 10.2981 29.4438 9.46967 28.4184 9.46967ZM9.52697 9.46967C8.24669 9.46967 7.20972 8.43269 7.20972 7.15241C7.20972 5.87212 8.24669 4.83515 9.52697 4.83515C10.6798 4.83515 11.5314 5.02633 14.5149 9.46967H9.52697ZM21.4666 9.46967H16.4787C19.4564 5.03791 20.2848 4.83515 21.4666 4.83515C22.7469 4.83515 23.7839 5.87212 23.7839 7.15241C23.7839 8.43269 22.7469 9.46967 21.4666 9.46967Z" fill="black"/>
</g>
<defs>
<clipPath id="clip0_201_5223">
<rect width="29.6609" height="29.6609" fill="white" transform="translate(0.611328 0.200439)"/>
</clipPath>
</defs>
</svg>
