<svg width="34" height="30" viewBox="0 0 34 30" fill="none" xmlns="http://www.w3.org/2000/svg">
<g clip-path="url(#clip0_201_5211)">
<path d="M33.3864 16.4429L30.7592 5.91622C30.4168 4.54324 29.5084 3.36434 28.2681 2.68306C27.0261 2.00353 25.5471 1.86565 24.2019 2.31636L23.3185 2.61065C22.8324 2.77228 22.57 3.29772 22.7322 3.78318L23.0253 4.66258C23.187 5.14805 23.7118 5.41048 24.1973 5.24885L24.9608 4.99453C25.5905 4.78482 26.2932 4.78771 26.8818 5.09475C27.4779 5.40584 27.8997 5.93823 28.0619 6.59054L30.2899 15.5016C29.0044 15.107 27.4055 14.7797 25.5859 14.7797C23.5716 14.7797 21.3001 15.1864 18.9325 16.3288H14.693C12.3254 15.1852 10.0539 14.7791 8.03904 14.7791C6.21884 14.7791 4.61993 15.1065 3.33443 15.501L5.56248 6.58938C5.7241 5.93765 6.147 5.40468 6.74312 5.09417C7.3317 4.78713 8.03383 4.78424 8.66355 4.99395L9.4265 5.24827C9.91197 5.4099 10.4368 5.14747 10.5985 4.662L10.8916 3.7826C11.0538 3.29714 10.7914 2.7717 10.3053 2.61007L9.42187 2.31578C8.0767 1.86507 6.59771 2.00237 5.35566 2.68249C4.11535 3.36434 3.20698 4.54266 2.86461 5.91506L0.237999 16.4429C0.164965 16.7365 0.128002 17.0378 0.12793 17.3403L0.12793 21.41C0.12793 25.0539 3.11603 28.0078 6.80163 28.0078H8.95204C12.4442 28.0078 15.3459 25.3464 15.6072 21.9036L15.7769 19.6657H17.848L18.0177 21.9036C18.2784 25.3464 21.1802 28.0078 24.6723 28.0078H26.8227C30.5083 28.0078 33.4964 25.0539 33.4964 21.4106V17.3409C33.4964 17.0379 33.4594 16.7366 33.3864 16.4429ZM11.91 21.6232C11.7959 23.1242 10.4965 24.3002 8.95204 24.3002H6.80163C5.16623 24.3002 3.83554 23.0037 3.83554 21.41V19.2352C4.88526 18.8593 6.35092 18.4868 8.0402 18.4868C9.42245 18.4868 10.778 18.7376 12.0913 19.2352L11.91 21.6232ZM29.7888 21.4106C29.7888 23.0042 28.4581 24.3002 26.8227 24.3002H24.6723C23.1273 24.3002 21.8279 23.1242 21.7143 21.6232L21.533 19.2352C22.8463 18.7376 24.2025 18.4868 25.5853 18.4868C27.2723 18.4868 28.7385 18.8598 29.7882 19.2358V21.4106H29.7888Z" fill="black"/>
</g>
<defs>
<clipPath id="clip0_201_5211">
<rect width="33.3685" height="29.6609" fill="white" transform="translate(0.12793 0.200439)"/>
</clipPath>
</defs>
</svg>
