<svg width="30" height="30" viewBox="0 0 30 30" fill="none" xmlns="http://www.w3.org/2000/svg">
<g clip-path="url(#clip0_201_5217)">
<path d="M29.3926 3.53753C30.6236 2.30591 29.7517 0.200684 28.0109 0.200684H2.26617C0.525332 0.200684 -0.346536 2.30591 0.884507 3.53753L13.2847 15.9372V27.0809H10.0406C8.76086 27.0809 7.72331 28.1184 7.72331 29.3981C7.72331 29.6542 7.93071 29.8616 8.18676 29.8616H22.0903C22.3464 29.8616 22.5538 29.6542 22.5538 29.3981C22.5538 28.1184 21.5162 27.0809 20.2365 27.0809H16.9923V15.9372L29.3926 3.53753ZM26.0163 2.98139L23.2356 5.7621H7.04204L4.26133 2.98139H26.0163Z" fill="black"/>
</g>
<defs>
<clipPath id="clip0_201_5217">
<rect width="29.6609" height="29.6609" fill="white" transform="translate(0.30835 0.200439)"/>
</clipPath>
</defs>
</svg>
