<svg width="30" height="30" viewBox="0 0 30 30" fill="none" xmlns="http://www.w3.org/2000/svg">
<g clip-path="url(#clip0_201_5209)">
<path d="M14.9308 0.664062C6.99597 0.664062 0.563843 7.09619 0.563843 15.0311C0.563843 22.9659 6.99597 29.3981 14.9308 29.3981C22.8657 29.3981 29.2978 22.9659 29.2978 15.0311C29.2978 7.09619 22.8657 0.664062 14.9308 0.664062ZM24.1999 13.1483V13.5497C24.1999 13.8898 24.0075 14.2009 23.7034 14.3527L22.8118 14.7988C22.6702 14.8696 22.5124 14.9017 22.3544 14.8919C22.1964 14.882 22.0438 14.8305 21.9122 14.7426L20.8572 14.0393C20.7434 13.9635 20.6138 13.9146 20.4783 13.8965C20.3428 13.8783 20.2049 13.8913 20.0751 13.9344L19.9216 13.9854C19.3597 14.1725 19.1303 14.8422 19.4588 15.3352L20.2258 16.4857C20.392 16.7354 20.6724 16.8854 20.9725 16.8854H21.4481C21.944 16.8854 22.3461 17.2875 22.3461 17.7834V18.4403C22.3461 18.6344 22.2829 18.8238 22.1665 18.9791L21.0808 20.4262C20.9986 20.5363 20.9424 20.6637 20.9169 20.7987L20.6678 22.1213C20.6319 22.3119 20.5351 22.4857 20.392 22.6172C19.843 23.1199 19.3567 23.6871 18.9437 24.3065L18.1889 25.439C18.0421 25.6592 17.8432 25.8398 17.6098 25.9647C17.3765 26.0896 17.1159 26.155 16.8513 26.155C16.2424 26.155 15.6857 25.8109 15.4134 25.2664C15.096 24.6316 14.9308 23.9317 14.9308 23.222V21.4904C14.9308 20.9945 14.5288 20.5925 14.0329 20.5925H12.5336C11.6942 20.5925 10.8895 20.2588 10.2957 19.6656C9.70239 19.0719 9.369 18.267 9.36884 17.4277V16.6132C9.36884 15.6173 9.83808 14.6794 10.6346 14.0816L12.2324 12.883C12.7803 12.4721 13.4466 12.2499 14.1314 12.2498H14.1829C14.6742 12.2498 15.1591 12.3639 15.5982 12.584L16.451 13.0104C16.6641 13.117 16.9104 13.1344 17.1363 13.0591L19.877 12.1455C20.2437 12.0233 20.4911 11.6803 20.4911 11.2939C20.4911 10.798 20.0891 10.396 19.5932 10.396H19.0086C18.7705 10.396 18.5423 10.3015 18.3737 10.133L17.9728 9.73207C17.8895 9.64867 17.7905 9.58251 17.6815 9.53739C17.5726 9.49226 17.4558 9.46904 17.3379 9.46906H12.1212C11.6253 9.46906 11.2232 9.06702 11.2232 8.57112V8.31622C11.2232 7.90433 11.5036 7.54516 11.9033 7.44494L12.7404 7.2358C12.9571 7.18135 13.146 7.04869 13.2699 6.86273L13.738 6.16118C13.9043 5.91149 14.1847 5.76145 14.4848 5.76145H15.8873C16.3832 5.76145 16.7852 5.3594 16.7852 4.86351V3.6064C21.3745 4.35024 25.0607 7.79079 26.1655 12.2503H25.0978C24.6019 12.2503 24.1999 12.6524 24.1999 13.1483Z" fill="black"/>
</g>
<defs>
<clipPath id="clip0_201_5209">
<rect width="28.734" height="29.6609" fill="white" transform="translate(0.563965 0.200439)"/>
</clipPath>
</defs>
</svg>
