<svg width="30" height="31" viewBox="0 0 30 31" fill="none" xmlns="http://www.w3.org/2000/svg">
<g clip-path="url(#clip0_201_5205)">
<path d="M14.8853 1.00317C6.95044 1.00317 0.518311 7.4353 0.518311 15.3702C0.518311 23.305 6.95044 29.7372 14.8853 29.7372C22.8202 29.7372 29.2523 23.305 29.2523 15.3702C29.2523 7.4353 22.8202 1.00317 14.8853 1.00317ZM14.2284 14.92C14.0609 15.1993 13.7591 15.3702 13.4335 15.3702H13.4156C13.17 15.3702 12.9342 15.4681 12.7604 15.6419L12.4325 15.9698C12.2517 16.1505 12.2517 16.4442 12.4325 16.625L12.7604 16.9529C12.9342 17.1266 13.0321 17.3624 13.0321 17.6081V18.1509C13.0321 18.663 12.6173 19.0778 12.1052 19.0778H11.7512C11.4001 19.0778 11.0792 18.8797 10.9222 18.5651L9.61181 15.9448C9.47045 15.6621 9.09332 15.6007 8.86971 15.8243L7.74178 16.9517C7.56799 17.1255 7.3322 17.2234 7.08658 17.2234H3.46181C3.3639 16.6186 3.29902 16.0028 3.29902 15.3702C3.29902 8.98149 8.49663 3.78388 14.8853 3.78388C16.1314 3.78388 17.33 3.98722 18.4556 4.35277L15.5498 6.58487C15.2537 6.78241 15.2816 7.22559 15.5996 7.3849L16.227 7.69831C16.541 7.8553 16.7391 8.17624 16.7391 8.52731V13.0529C16.7391 13.309 16.5317 13.5164 16.2757 13.5164H16.0984C15.9229 13.5164 15.7624 13.4173 15.6842 13.2603C15.5938 13.0796 15.3389 13.0697 15.2346 13.2429L14.2284 14.92ZM24.1543 21.3041C24.1543 21.5497 24.0564 21.7855 23.8826 21.9593L23.3282 22.5137C23.1544 22.6875 22.9187 22.7854 22.673 22.7854H21.7948C21.5492 22.7854 21.3134 22.6875 21.1396 22.5137L20.3859 21.76C20.1965 21.5707 19.9614 21.4336 19.7033 21.3621C19.4452 21.2906 19.1731 21.2872 18.9133 21.3522L17.6811 21.6604C17.6075 21.6789 17.5322 21.6882 17.4563 21.6882H16.8573C16.6117 21.6882 16.3759 21.5903 16.2021 21.4165L15.5121 20.7265C15.4253 20.6395 15.3765 20.5216 15.3766 20.3986V19.8077C15.3766 19.6183 15.4918 19.448 15.668 19.3773L17.947 18.4654C18.0617 18.4197 18.1706 18.36 18.2708 18.2888L19.6444 17.3103C19.7228 17.2544 19.8168 17.2244 19.9132 17.2246H20.6136C20.8007 17.2246 20.9698 17.3369 21.0417 17.5102L21.3516 18.2546C21.3692 18.2968 21.3989 18.3328 21.4369 18.3582C21.475 18.3835 21.5197 18.3971 21.5654 18.3971H21.7855C21.8886 18.3971 21.9796 18.3287 22.008 18.2302L22.2513 17.392C22.2803 17.2929 22.3706 17.2251 22.4737 17.2251H22.8248C22.9528 17.2251 23.0565 17.3288 23.0565 17.4569V18.2059C23.0565 18.3287 23.1052 18.4469 23.1921 18.5338L23.8821 19.2238C24.0558 19.3976 24.1538 19.6333 24.1538 19.879V21.3041H24.1543Z" fill="black"/>
</g>
<defs>
<clipPath id="clip0_201_5205">
<rect width="28.734" height="29.6609" fill="white" transform="translate(0.518311 0.539551)"/>
</clipPath>
</defs>
</svg>
