<svg width="30" height="31" viewBox="0 0 30 31" fill="none" xmlns="http://www.w3.org/2000/svg">
<g clip-path="url(#clip0_201_5203)">
<path d="M15.3213 1.00317C7.3847 1.00317 0.954315 7.43356 0.954315 15.3702C0.954315 23.3068 7.3847 29.7372 15.3213 29.7372C23.2579 29.7372 29.6883 23.3068 29.6883 15.3702C29.6883 7.43356 23.2579 1.00317 15.3213 1.00317ZM26.9076 15.3702C26.9076 16.6736 26.6817 17.9307 26.2819 19.101H25.1059C24.8568 19.101 24.6193 19.0025 24.4455 18.8229L22.5917 16.9343C22.331 16.6678 22.331 16.2333 22.5975 15.9669L23.3216 15.2427V14.7387C23.3216 14.5649 23.2521 14.3969 23.1305 14.2753L22.5859 13.7307C22.4643 13.6091 22.2963 13.5395 22.1225 13.5395H21.1956C20.8364 13.5395 20.5409 13.2441 20.5409 12.8849C20.5409 12.7111 20.6104 12.5431 20.7321 12.4215L21.2767 11.8769C21.3983 11.7552 21.5663 11.6857 21.7401 11.6857H23.5939C23.9531 11.6857 24.2485 11.3903 24.2485 11.0311V10.4865C24.2485 10.1274 23.9531 9.83192 23.5939 9.83192H21.4678C20.958 9.83192 20.5409 10.249 20.5409 10.7588V11.0195C20.5409 11.4192 20.286 11.7726 19.9095 11.9001L18.0788 12.5084C17.8877 12.5721 17.7602 12.7459 17.7602 12.9486V13.0761C17.7602 13.331 17.5517 13.5395 17.2968 13.5395H16.3699C16.115 13.5395 15.9064 13.331 15.9064 13.0761C15.9064 12.8212 15.6979 12.6126 15.443 12.6126H15.2634C15.0896 12.6126 14.9274 12.7111 14.8463 12.8675L14.3017 13.9508C14.1453 14.2637 13.8267 14.4606 13.4733 14.4606H12.193C11.6832 14.4606 11.2661 14.0435 11.2661 13.5337V12.0681C11.2661 11.8248 11.3646 11.5872 11.5384 11.4135L12.7028 10.249C12.9693 9.98254 13.1199 9.61758 13.1199 9.23523C13.1199 9.03826 13.2474 8.85868 13.4385 8.79495L15.7558 8.02446C15.8543 7.9897 15.9412 7.93757 16.0107 7.86805L17.5633 6.31549C17.6849 6.19383 17.7544 6.02583 17.7544 5.85203C17.7544 5.49286 17.459 5.19741 17.0998 5.19741H15.9006L14.9737 6.12431V6.58776C14.9737 6.84266 14.7652 7.05121 14.5103 7.05121H13.5834C13.3285 7.05121 13.1199 6.84266 13.1199 6.58776V5.42913C13.1199 5.28431 13.1894 5.14527 13.3053 5.05837L14.9795 3.80126C15.0896 3.79547 15.1997 3.78388 15.3097 3.78388C21.7111 3.78388 26.9076 8.98033 26.9076 15.3702ZM8.49119 9.1773C8.49119 9.0035 8.56071 8.8355 8.68237 8.71385L10.1538 7.24239C10.2755 7.12073 10.4435 7.05121 10.6173 7.05121C10.9765 7.05121 11.2719 7.34666 11.2719 7.70584V8.63274C11.2719 8.80654 11.2024 8.97454 11.0807 9.09619L10.5362 9.64075C10.4145 9.76241 10.2465 9.83192 10.0727 9.83192H9.14582C8.78664 9.83192 8.49119 9.53647 8.49119 9.1773ZM15.9064 26.9275V26.5162C15.9064 26.0064 15.4893 25.5893 14.9795 25.5893H13.8093C13.1836 25.5893 12.2625 25.2822 11.7585 24.9057L10.4724 23.9382C9.80624 23.44 9.4181 22.6579 9.4181 21.8295V20.445C9.4181 19.5181 9.90472 18.6607 10.6984 18.1856L13.1836 16.6968C13.595 16.4535 14.0642 16.3202 14.5392 16.3202H16.3467C16.9781 16.3202 17.5864 16.5462 18.0615 16.9517L20.5641 19.101H21.6242C22.1167 19.101 22.5859 19.2979 22.9335 19.6455L23.9357 20.6477C24.1327 20.8447 24.405 20.9548 24.683 20.9548H25.4593C23.5823 24.3669 20.0253 26.7189 15.9064 26.9275Z" fill="black"/>
</g>
<defs>
<clipPath id="clip0_201_5203">
<rect width="28.734" height="29.6609" fill="white" transform="translate(0.954346 0.539551)"/>
</clipPath>
</defs>
</svg>
