<svg width="30" height="31" viewBox="0 0 30 31" fill="none" xmlns="http://www.w3.org/2000/svg">
<g clip-path="url(#clip0_201_5201)">
<path d="M19.8845 9.80875C19.0445 4.63547 17.0633 1.00317 14.7576 1.00317C12.4519 1.00317 10.4707 4.63547 9.63066 9.80875H19.8845ZM9.19617 15.3702C9.19617 16.6562 9.26569 17.8902 9.38734 19.0778H20.122C20.2437 17.8902 20.3132 16.6562 20.3132 15.3702C20.3132 14.0841 20.2437 12.8502 20.122 11.6626H9.38734C9.26569 12.8502 9.19617 14.0841 9.19617 15.3702ZM28.0065 9.80875C26.3497 5.87521 22.9954 2.83381 18.8533 1.60566C20.2669 3.56374 21.2401 6.51245 21.7499 9.80875H28.0065ZM10.656 1.60566C6.51974 2.83381 3.15972 5.87521 1.50867 9.80875H7.76526C8.26927 6.51245 9.24252 3.56374 10.656 1.60566ZM28.6264 11.6626H21.9816C22.1033 12.8791 22.1728 14.1246 22.1728 15.3702C22.1728 16.6157 22.1033 17.8612 21.9816 19.0778H28.6206C28.9392 17.8902 29.1188 16.6562 29.1188 15.3702C29.1188 14.0841 28.9392 12.8502 28.6264 11.6626ZM7.34236 15.3702C7.34236 14.1246 7.41188 12.8791 7.53354 11.6626H0.888805C0.575975 12.8502 0.390594 14.0841 0.390594 15.3702C0.390594 16.6562 0.575975 17.8902 0.888805 19.0778H7.52775C7.41188 17.8612 7.34236 16.6157 7.34236 15.3702ZM9.63066 20.9316C10.4707 26.1049 12.4519 29.7372 14.7576 29.7372C17.0633 29.7372 19.0445 26.1049 19.8845 20.9316H9.63066ZM18.8591 29.1347C22.9954 27.9065 26.3555 24.8651 28.0123 20.9316H21.7557C21.2459 24.2279 20.2727 27.1766 18.8591 29.1347ZM1.50867 20.9316C3.16551 24.8651 6.51974 27.9065 10.6618 29.1347C9.24831 27.1766 8.27506 24.2279 7.76526 20.9316H1.50867Z" fill="black"/>
</g>
<defs>
<clipPath id="clip0_201_5201">
<rect width="28.734" height="29.6609" fill="white" transform="translate(0.390381 0.539551)"/>
</clipPath>
</defs>
</svg>
