<svg width="30" height="31" viewBox="0 0 30 31" fill="none" xmlns="http://www.w3.org/2000/svg">
<g clip-path="url(#clip0_201_5195)">
<path d="M28.797 20.9315H27.8701V14.4432C27.8701 13.9334 27.453 13.5163 26.9432 13.5163H26.0163V8.8818C26.0163 8.372 25.5992 7.9549 25.0894 7.9549H24.1625V1.46658C24.1625 0.956779 23.7454 0.539673 23.2356 0.539673C22.7258 0.539673 22.3087 0.956779 22.3087 1.46658V2.39348H18.601V1.46658C18.601 0.956779 18.1839 0.539673 17.6741 0.539673C17.1643 0.539673 16.7472 0.956779 16.7472 1.46658V2.39348H13.0396V1.46658C13.0396 0.956779 12.6225 0.539673 12.1127 0.539673C11.6029 0.539673 11.1858 0.956779 11.1858 1.46658V2.39348H7.47821V1.46658C7.47821 0.956779 7.0611 0.539673 6.55131 0.539673C6.04151 0.539673 5.6244 0.956779 5.6244 1.46658V7.9549H4.6975C4.18771 7.9549 3.7706 8.372 3.7706 8.8818V13.5163H2.8437C2.3339 13.5163 1.91679 13.9334 1.91679 14.4432V20.9315H0.989891C0.480095 20.9315 0.0629883 21.3486 0.0629883 21.8584V29.2737C0.0629883 29.7835 0.480095 30.2006 0.989891 30.2006H5.6244V20.9315H7.47821V13.5163H9.33202V7.9549H11.1858V13.5163H9.33202V20.9315H7.47821V30.2006H12.1127V25.566C12.1127 25.0563 12.5298 24.6391 13.0396 24.6391H16.7472C17.257 24.6391 17.6741 25.0563 17.6741 25.566V30.2006H22.3087V20.9315H20.4548V13.5163H18.601V7.9549H20.4548V13.5163H22.3087V20.9315H24.1625V30.2006H28.797C29.3068 30.2006 29.7239 29.7835 29.7239 29.2737V21.8584C29.7239 21.3486 29.3068 20.9315 28.797 20.9315ZM13.5031 10.7356C13.5031 10.2258 13.9202 9.8087 14.43 9.8087H15.3569C15.8667 9.8087 16.2838 10.2258 16.2838 10.7356V13.5163H13.5031V10.7356ZM16.7472 20.9315H13.0396V17.2239C13.0396 16.7141 13.4567 16.297 13.9665 16.297H15.8203C16.3301 16.297 16.7472 16.7141 16.7472 17.2239V20.9315Z" fill="black"/>
</g>
<defs>
<clipPath id="clip0_201_5195">
<rect width="29.6609" height="29.6609" fill="white" transform="translate(0.0639648 0.539551)"/>
</clipPath>
</defs>
</svg>
