<svg width="38" height="31" viewBox="0 0 38 31" fill="none" xmlns="http://www.w3.org/2000/svg">
<g clip-path="url(#clip0_201_5197)">
<path d="M36.6076 9.41482L20.4482 4.4501C19.5676 4.17956 18.6175 4.17956 17.7376 4.4501L1.57759 9.41482C0.213883 9.83366 0.213883 11.6371 1.57759 12.0559L4.39479 12.9214C3.77667 13.6855 3.39664 14.6176 3.35898 15.6384C2.8011 15.9582 2.40833 16.5352 2.40833 17.224C2.40833 17.8485 2.73738 18.3739 3.21126 18.7099L1.73227 25.3651C1.60366 25.9438 2.04394 26.493 2.63658 26.493H5.88711C6.48033 26.493 6.9206 25.9438 6.792 25.3651L5.31301 18.7099C5.78689 18.3739 6.11594 17.8485 6.11594 17.224C6.11594 16.5537 5.74112 15.9929 5.20873 15.6674C5.25276 14.7972 5.69767 14.0279 6.40733 13.5401L17.737 17.0212C18.2618 17.1823 19.2687 17.3833 20.4476 17.0212L36.6076 12.0565C37.9718 11.6371 37.9718 9.83424 36.6076 9.41482ZM20.9921 18.7933C19.3394 19.3008 17.9311 19.0204 17.1924 18.7933L8.79121 16.2125L7.96974 22.7854C7.96974 24.8333 12.9495 26.493 19.0926 26.493C25.2356 26.493 30.2154 24.8333 30.2154 22.7854L29.3939 16.2119L20.9921 18.7933Z" fill="black"/>
</g>
<defs>
<clipPath id="clip0_201_5197">
<rect width="37.0761" height="29.6609" fill="white" transform="translate(0.55481 0.539551)"/>
</clipPath>
</defs>
</svg>
