<svg width="23" height="31" viewBox="0 0 23 31" fill="none" xmlns="http://www.w3.org/2000/svg">
<g clip-path="url(#clip0_201_5191)">
<path d="M21.3802 12.6964L3.63577 4.42144C2.7054 3.98753 1.59948 4.39016 1.16558 5.32054L0.379449 7.00518C-0.0544578 7.93556 0.348166 9.04147 1.27854 9.47538L13.9325 15.3757L1.27623 21.2783C0.348166 21.7111 -0.0532992 22.8141 0.379449 23.7421L1.16268 25.4222C1.59543 26.3502 2.69844 26.7517 3.62651 26.3189L21.3807 18.04C21.7006 17.8908 21.9712 17.6536 22.1609 17.356C22.3505 17.0584 22.4513 16.7128 22.4513 16.3599V14.377C22.4507 13.6557 22.0336 13.0005 21.3802 12.6964Z" fill="black"/>
</g>
<defs>
<clipPath id="clip0_201_5191">
<rect width="22.2457" height="29.6609" fill="white" transform="translate(0.204834 0.539551)"/>
</clipPath>
</defs>
</svg>
