<svg width="27" height="31" viewBox="0 0 27 31" fill="none" xmlns="http://www.w3.org/2000/svg">
<g clip-path="url(#clip0_201_5193)">
<path d="M3.47955 6.77805L13.65 10.7226L3.4865 14.6648C2.42114 15.0142 1.87138 16.0778 2.25836 17.04L2.95875 18.7826C3.34573 19.7448 4.52232 20.2419 5.58768 19.892L23.0488 12.9483C23.8465 12.6865 24.3801 11.9861 24.3801 11.2005V10.2759C24.3801 9.4904 23.8465 8.79001 23.0488 8.52816L5.56972 1.57754C4.51015 1.22996 3.33878 1.72411 2.95411 2.68172L2.2572 4.41502C1.87253 5.37263 2.41999 6.43046 3.47955 6.77805ZM24.8435 23.712H1.67093C0.903341 23.712 0.280579 24.3342 0.280579 25.1023V27.883C0.280579 28.6506 0.903341 29.2734 1.67093 29.2734H24.8435C25.6111 29.2734 26.2339 28.6506 26.2339 27.883V25.1023C26.2339 24.3342 25.6111 23.712 24.8435 23.712Z" fill="black"/>
</g>
<defs>
<clipPath id="clip0_201_5193">
<rect width="25.9533" height="29.6609" fill="white" transform="translate(0.280518 0.539551)"/>
</clipPath>
</defs>
</svg>
