<svg width="30" height="31" viewBox="0 0 30 31" fill="none" xmlns="http://www.w3.org/2000/svg">
<g clip-path="url(#clip0_201_5163)">
<path d="M14.9439 1.00293C7.00729 1.00293 0.576904 7.43332 0.576904 15.3699C0.576904 23.3065 7.00729 29.7369 14.9439 29.7369C22.8805 29.7369 29.3109 23.3065 29.3109 15.3699C29.3109 7.43332 22.8805 1.00293 14.9439 1.00293ZM19.5784 10.7354C20.6038 10.7354 21.4322 11.5638 21.4322 12.5892C21.4322 13.6146 20.6038 14.443 19.5784 14.443C18.553 14.443 17.7246 13.6146 17.7246 12.5892C17.7246 11.5638 18.553 10.7354 19.5784 10.7354ZM10.3094 10.7354C11.3348 10.7354 12.1632 11.5638 12.1632 12.5892C12.1632 13.6146 11.3348 14.443 10.3094 14.443C9.284 14.443 8.45558 13.6146 8.45558 12.5892C8.45558 11.5638 9.284 10.7354 10.3094 10.7354ZM14.9439 25.5659C11.4333 25.5659 7.15212 23.3471 6.61336 20.1609C6.4975 19.4773 7.15212 18.9095 7.81254 19.1239C9.56207 19.6858 12.1632 20.0044 14.9439 20.0044C17.7246 20.0044 20.3257 19.6858 22.0753 19.1239C22.7299 18.9095 23.3845 19.4773 23.2744 20.1609C22.7357 23.3471 18.4545 25.5659 14.9439 25.5659Z" fill="black"/>
</g>
<defs>
<clipPath id="clip0_201_5163">
<rect width="28.734" height="29.6609" fill="white" transform="translate(0.576904 0.539551)"/>
</clipPath>
</defs>
</svg>
