<svg width="30" height="31" viewBox="0 0 30 31" fill="none" xmlns="http://www.w3.org/2000/svg">
<g clip-path="url(#clip0_201_5171)">
<path d="M17.8125 22.2406C16.9783 21.864 16.0108 22.368 15.808 23.2602L15.7038 23.712C15.5821 24.245 14.8232 24.245 14.7015 23.712L14.5973 23.2602C14.3945 22.368 13.4271 21.864 12.5928 22.2406C12.5407 22.2638 12.6102 22.229 11.4979 22.7851V26.4348C11.4979 28.474 13.12 30.1714 15.1534 30.1946C17.2216 30.2235 18.9132 28.5493 18.9132 26.487V22.7794C17.7835 22.2232 17.8588 22.2638 17.8125 22.2406ZM15.1998 1.00293C7.26315 1.00293 0.832764 7.43332 0.832764 15.3699C0.832764 21.528 4.71417 26.765 10.1597 28.81C9.83531 28.1032 9.63834 27.3212 9.63834 26.4928V23.8569C8.20743 22.9184 7.11832 21.6497 6.86922 20.1609C6.75336 19.4773 7.40219 18.9153 8.0684 19.1239C9.81793 19.6858 12.419 20.0044 15.1998 20.0044C17.9805 20.0044 20.5816 19.6858 22.3311 19.1239C22.9915 18.9095 23.6404 19.4773 23.5303 20.1609C23.2812 21.6497 22.1921 22.9184 20.7612 23.8569V26.4928C20.7612 27.3212 20.5642 28.1032 20.2398 28.81C25.6853 26.765 29.5668 21.528 29.5668 15.3699C29.5668 7.43332 23.1364 1.00293 15.1998 1.00293ZM13.2417 13.1859L8.60716 15.9666C7.94095 16.3605 7.21681 15.5263 7.71502 14.9239L9.66151 12.5892L7.71502 10.2546C7.21681 9.65788 7.93516 8.81209 8.60716 9.21181L13.2417 11.9925C13.6877 12.2648 13.6877 12.9136 13.2417 13.1859ZM22.6845 14.9239C23.1885 15.5263 22.4586 16.3605 21.7924 15.9666L17.1578 13.1859C16.706 12.9136 16.706 12.2648 17.1578 11.9925L21.7924 9.21181C22.4701 8.81209 23.1769 9.65788 22.6845 10.2546L20.738 12.5892L22.6845 14.9239Z" fill="black"/>
</g>
<defs>
<clipPath id="clip0_201_5171">
<rect width="28.734" height="29.6609" fill="white" transform="translate(0.832764 0.539551)"/>
</clipPath>
</defs>
</svg>
