<svg width="30" height="31" viewBox="0 0 30 31" fill="none" xmlns="http://www.w3.org/2000/svg">
<g clip-path="url(#clip0_201_5177)">
<path d="M15.2336 1.00293C7.29697 1.00293 0.866577 7.43332 0.866577 15.3699C0.866577 23.3065 7.29697 29.7369 15.2336 29.7369C23.1702 29.7369 29.6006 23.3065 29.6006 15.3699C29.6006 7.43332 23.1702 1.00293 15.2336 1.00293ZM17.1917 11.9925L21.8262 9.21181C22.4982 8.81209 23.2165 9.65788 22.7183 10.2546L20.7718 12.5892L22.7183 14.9239C23.2223 15.5263 22.4924 16.3605 21.8262 15.9666L17.1917 13.1859C16.7456 12.9136 16.7456 12.2648 17.1917 11.9925ZM7.74883 10.2546C7.25062 9.65788 7.96897 8.81209 8.64097 9.21181L13.2755 11.9925C13.7274 12.2648 13.7274 12.9136 13.2755 13.1859L8.64097 15.9666C7.97476 16.3605 7.25062 15.5263 7.74883 14.9239L9.69533 12.5892L7.74883 10.2546ZM15.2336 25.5659C11.7229 25.5659 7.44179 23.3471 6.90303 20.1609C6.78717 19.4715 7.44759 18.9095 8.10221 19.1239C9.85174 19.6858 12.4529 20.0044 15.2336 20.0044C18.0143 20.0044 20.6154 19.6858 22.3649 19.1239C23.0311 18.9095 23.6742 19.4831 23.5641 20.1609C23.0253 23.3471 18.7442 25.5659 15.2336 25.5659Z" fill="black"/>
</g>
<defs>
<clipPath id="clip0_201_5177">
<rect width="28.734" height="29.6609" fill="white" transform="translate(0.866821 0.539551)"/>
</clipPath>
</defs>
</svg>
