<svg width="31" height="31" viewBox="0 0 31 31" fill="none" xmlns="http://www.w3.org/2000/svg">
<g clip-path="url(#clip0_201_5179)">
<path d="M24.1593 7.02197C25.4685 6.83659 28.4173 6.3268 29.2746 5.46941C30.3869 4.35713 30.3695 2.53808 29.2341 1.40262C28.0986 0.267169 26.268 0.249789 25.1615 1.36207C24.3041 2.21946 23.8001 5.16817 23.6089 6.47742C23.5626 6.79604 23.8349 7.06832 24.1593 7.02197ZM6.36276 23.7178C5.05351 23.9032 2.1048 24.413 1.24741 25.2704C0.140924 26.3769 0.158304 28.2017 1.29376 29.3372C2.42922 30.4726 4.24826 30.49 5.36055 29.3777C6.21793 28.5203 6.72193 25.5716 6.91311 24.2624C6.95945 23.9437 6.68718 23.6715 6.36276 23.7178ZM24.42 8.8584C22.5082 9.08433 21.6045 7.40432 21.7725 6.21093C21.9695 4.82058 22.2012 3.77202 22.4387 2.93781C16.9468 -0.236834 9.80389 0.510481 5.09985 5.20872C0.401616 9.90696 -0.3457 17.0499 2.82894 22.5476C3.66315 22.3101 4.70592 22.0841 6.10207 21.8814C8.02539 21.6555 8.91753 23.3413 8.74953 24.5289C8.55257 25.9192 8.32084 26.9678 8.08332 27.802C13.5752 30.9766 20.7182 30.2293 25.4222 25.5311C30.1262 20.8328 30.8678 13.6899 27.6931 8.19219C26.8589 8.42971 25.8103 8.65564 24.42 8.8584ZM15.2436 6.68018C15.4348 5.91548 16.5413 6.01397 16.6108 6.78445L16.8889 9.81427L19.9187 10.0923C20.695 10.1619 20.7819 11.2683 20.023 11.4595L14.7802 12.7688C14.2646 12.8962 13.8127 12.427 13.9402 11.9288L15.2436 6.68018ZM9.97768 20.0218L9.69961 16.992L6.6698 16.7139C5.89351 16.6444 5.80662 15.5379 6.56552 15.3467L11.8083 14.0375C12.3181 13.91 12.7758 14.3735 12.6483 14.8775L11.3391 20.1203C11.1595 20.885 10.053 20.7981 9.97768 20.0218ZM22.4735 22.5824C20.7761 24.2797 18.0881 25.5021 15.7129 25.5021C14.618 25.5021 13.5926 25.2414 12.7584 24.6505C12.1907 24.2508 12.2544 23.3876 12.8743 23.0748C14.5137 22.229 16.5761 20.6185 18.5399 18.6546C20.5038 16.6907 22.1143 14.6226 22.9601 12.9889C23.2729 12.3806 24.1303 12.2995 24.5416 12.873C26.4128 15.4973 24.953 20.0971 22.4735 22.5824Z" fill="black"/>
</g>
<defs>
<clipPath id="clip0_201_5179">
<rect width="29.6609" height="29.6609" fill="white" transform="translate(0.430786 0.539551)"/>
</clipPath>
</defs>
</svg>
