<svg width="30" height="31" viewBox="0 0 30 31" fill="none" xmlns="http://www.w3.org/2000/svg">
<g clip-path="url(#clip0_201_5167)">
<path d="M15.0716 1.00293C7.13498 1.00293 0.70459 7.43332 0.70459 15.3699C0.70459 21.528 4.586 26.765 10.0315 28.81C9.70713 28.1032 9.51017 27.3212 9.51017 26.4928V23.8569C8.07926 22.9184 6.99015 21.6497 6.74104 20.1609C6.62518 19.4773 7.27981 18.9153 7.94023 19.1239C9.68975 19.6858 12.2909 20.0044 15.0716 20.0044C17.8523 20.0044 20.4534 19.6858 22.2029 19.1239C22.8634 18.9153 23.5122 19.4773 23.4021 20.1609C23.153 21.6497 22.0639 22.9184 20.633 23.8569V26.4928C20.633 27.3212 20.436 28.1032 20.1116 28.81C25.5572 26.765 29.4386 21.528 29.4386 15.3699C29.4386 7.43332 23.0082 1.00293 15.0716 1.00293ZM10.4371 14.443C9.41168 14.443 8.58326 13.6146 8.58326 12.5892C8.58326 11.5638 9.41168 10.7354 10.4371 10.7354C11.4625 10.7354 12.2909 11.5638 12.2909 12.5892C12.2909 13.6146 11.4625 14.443 10.4371 14.443ZM19.7061 14.443C18.6807 14.443 17.8523 13.6146 17.8523 12.5892C17.8523 11.5638 18.6807 10.7354 19.7061 10.7354C20.7315 10.7354 21.5599 11.5638 21.5599 12.5892C21.5599 13.6146 20.7315 14.443 19.7061 14.443ZM17.6843 22.2406C16.8501 21.864 15.8826 22.368 15.6799 23.2602L15.5756 23.712C15.4539 24.245 14.695 24.245 14.5734 23.712L14.4691 23.2602C14.2663 22.368 13.2989 21.864 12.4647 22.2406C12.4125 22.2638 12.482 22.229 11.3698 22.7851V26.4348C11.3698 28.474 12.9918 30.1714 15.0252 30.1946C17.0934 30.2235 18.785 28.5493 18.785 26.487V22.7794C17.6553 22.2232 17.7306 22.2638 17.6843 22.2406Z" fill="black"/>
</g>
<defs>
<clipPath id="clip0_201_5167">
<rect width="28.734" height="29.6609" fill="white" transform="translate(0.704834 0.539551)"/>
</clipPath>
</defs>
</svg>
