<svg width="30" height="31" viewBox="0 0 30 31" fill="none" xmlns="http://www.w3.org/2000/svg">
<g clip-path="url(#clip0_201_5185)">
<path d="M26.4662 7.95463C28.0014 7.95463 29.2469 6.73807 29.2469 5.23186C29.2469 4.07323 27.5959 1.7328 26.837 0.724793C26.6516 0.475688 26.2808 0.475688 26.0955 0.724793C25.3366 1.7328 23.6855 4.07323 23.6855 5.23186C23.6855 6.73807 24.931 7.95463 26.4662 7.95463ZM26.4662 9.80844C23.9115 9.80844 21.8317 7.75767 21.8317 5.23186C21.8317 4.97696 21.8491 4.40923 22.301 3.36647C20.0358 1.87763 17.3304 1.00286 14.4165 1.00286C6.47989 1.00286 0.0494995 7.43325 0.0494995 15.3699C0.0494995 23.3065 6.47989 29.7369 14.4165 29.7369C22.3531 29.7369 28.7835 23.3065 28.7835 15.3699C28.7835 13.3365 28.3548 11.4073 27.5959 9.65782C27.2309 9.74471 26.8602 9.80844 26.4662 9.80844ZM19.051 9.34499C20.4298 9.34499 22.104 11.0424 22.2952 13.4813C22.3357 13.9795 21.6695 14.1765 21.432 13.742L20.8816 12.7571C20.4356 11.9635 19.7694 11.5058 19.0568 11.5058C18.3442 11.5058 17.678 11.9635 17.232 12.7571L16.6816 13.742C16.4441 14.1707 15.7779 13.9737 15.8184 13.4813C15.998 11.0424 17.6722 9.34499 19.051 9.34499ZM9.78198 9.34499C11.1607 9.34499 12.835 11.0424 13.0261 13.4813C13.0667 13.9795 12.4005 14.1765 12.163 13.742L11.6126 12.7571C11.1665 11.9635 10.5003 11.5058 9.78777 11.5058C9.07522 11.5058 8.40901 11.9635 7.96293 12.7571L7.41258 13.742C7.16927 14.1707 6.50885 13.9737 6.54941 13.4813C6.72899 11.0424 8.40321 9.34499 9.78198 9.34499ZM14.4165 25.5658C10.9058 25.5658 6.62472 23.347 6.08595 20.1608C5.97009 19.4772 6.62472 18.9095 7.28513 19.1238C9.03466 19.6857 11.6358 20.0044 14.4165 20.0044C17.1972 20.0044 19.7983 19.6857 21.5479 19.1238C22.2141 18.9095 22.8571 19.483 22.747 20.1608C22.2083 23.347 17.9271 25.5658 14.4165 25.5658Z" fill="black"/>
</g>
<defs>
<clipPath id="clip0_201_5185">
<rect width="29.1974" height="29.6609" fill="white" transform="translate(0.0495605 0.539551)"/>
</clipPath>
</defs>
</svg>
