<svg width="30" height="31" viewBox="0 0 30 31" fill="none" xmlns="http://www.w3.org/2000/svg">
<g clip-path="url(#clip0_201_5181)">
<path d="M15.2886 1.00293C7.35202 1.00293 0.921631 7.43332 0.921631 15.3699C0.921631 23.3065 7.35202 29.7369 15.2886 29.7369C23.2252 29.7369 29.6556 23.3065 29.6556 15.3699C29.6556 7.43332 23.2252 1.00293 15.2886 1.00293ZM6.15863 11.1757C6.54677 10.1561 7.7054 9.62892 8.75975 9.90699L9.17107 10.0171L9.28693 9.60575C9.57659 8.55719 10.6078 7.81567 11.6911 7.98946C12.9308 8.18643 13.6839 9.3914 13.3595 10.5674L12.2356 14.6168C12.1661 14.8775 11.8938 15.0339 11.6274 14.9644L7.56057 13.9101C6.37877 13.5972 5.71256 12.3459 6.15863 11.1757ZM15.2886 25.5659C11.778 25.5659 7.49685 23.3471 6.95809 20.1609C6.84222 19.4773 7.49105 18.9153 8.15727 19.1239C9.9068 19.6858 12.5079 20.0044 15.2886 20.0044C18.0693 20.0044 20.6705 19.6858 22.42 19.1239C23.0804 18.9153 23.7292 19.4773 23.6192 20.1609C23.0804 23.3471 18.7993 25.5659 15.2886 25.5659ZM23.0167 13.9043L18.9499 14.9586C18.6892 15.0281 18.4169 14.8717 18.3416 14.611L17.2177 10.5616C16.8933 9.38561 17.6464 8.18063 18.8862 7.98367C19.9637 7.80987 20.9949 8.55139 21.2903 9.59995L21.4062 10.0113L21.8175 9.9012C22.8718 9.62892 24.0305 10.1503 24.4186 11.1699C24.8647 12.3459 24.1985 13.5972 23.0167 13.9043Z" fill="black"/>
</g>
<defs>
<clipPath id="clip0_201_5181">
<rect width="28.734" height="29.6609" fill="white" transform="translate(0.921631 0.539551)"/>
</clipPath>
</defs>
</svg>
