<svg width="30" height="31" viewBox="0 0 30 31" fill="none" xmlns="http://www.w3.org/2000/svg">
<g clip-path="url(#clip0_201_5175)">
<path d="M14.6699 1.00293C6.73324 1.00293 0.302856 7.43332 0.302856 15.3699C0.302856 23.3065 6.73324 29.7369 14.6699 29.7369C22.6065 29.7369 29.0368 23.3065 29.0368 15.3699C29.0368 7.43332 22.6065 1.00293 14.6699 1.00293ZM5.78317 10.3241L7.80498 10.0344L8.70291 8.20381C8.87091 7.8678 9.34016 7.8678 9.50816 8.20381L10.4061 10.0344L12.4279 10.3241C12.7871 10.382 12.9435 10.8223 12.677 11.0888L11.2056 12.5139L11.5531 14.5357C11.6111 14.8949 11.2461 15.173 10.9159 14.9934L9.10843 14.0549L7.29518 14.9992C6.96497 15.1788 6.6 14.9007 6.65793 14.5415L7.00552 12.5197L5.53406 11.0946C5.26758 10.8223 5.42399 10.382 5.78317 10.3241ZM14.6699 25.5659C11.1592 25.5659 6.87807 23.3471 6.33931 20.1609C6.22345 19.4773 6.87807 18.9153 7.53849 19.1239C9.28802 19.6858 11.8891 20.0044 14.6699 20.0044C17.4506 20.0044 20.0517 19.6858 21.8012 19.1239C22.4674 18.9095 23.1105 19.4773 23.0004 20.1609C22.4616 23.3471 18.1805 25.5659 14.6699 25.5659ZM23.8056 11.0888L22.3342 12.5139L22.6818 14.5357C22.7397 14.8949 22.3747 15.173 22.0445 14.9934L20.2313 14.0549L18.418 14.9992C18.0878 15.1788 17.7228 14.9007 17.7808 14.5415L18.1284 12.5197L16.6569 11.0946C16.3962 10.8281 16.5468 10.3878 16.906 10.3299L18.9278 10.0402L19.8257 8.2096C19.9937 7.8736 20.463 7.8736 20.631 8.2096L21.5289 10.0402L23.5507 10.3299C23.9157 10.382 24.0721 10.8223 23.8056 11.0888Z" fill="black"/>
</g>
<defs>
<clipPath id="clip0_201_5175">
<rect width="28.734" height="29.6609" fill="white" transform="translate(0.302856 0.539551)"/>
</clipPath>
</defs>
</svg>
