<svg width="30" height="31" viewBox="0 0 30 31" fill="none" xmlns="http://www.w3.org/2000/svg">
<g clip-path="url(#clip0_201_5183)">
<path d="M14.8526 1.00293C6.91598 1.00293 0.485596 7.43332 0.485596 15.3699C0.485596 23.3065 6.91598 29.7369 14.8526 29.7369C22.7892 29.7369 29.2196 23.3065 29.2196 15.3699C29.2196 7.43332 22.7892 1.00293 14.8526 1.00293ZM19.4871 9.34506C20.8659 9.34506 22.5401 11.0424 22.7313 13.4814C22.7718 13.9796 22.1056 14.1707 21.8681 13.7421L21.3177 12.7572C20.8717 11.9636 20.2055 11.5059 19.4929 11.5059C18.7803 11.5059 18.1141 11.9636 17.6681 12.7572L17.1177 13.7421C16.8802 14.1649 16.214 13.9738 16.2545 13.4814C16.4341 11.0424 18.1083 9.34506 19.4871 9.34506ZM10.2181 9.34506C11.5968 9.34506 13.2711 11.0424 13.4622 13.4814C13.5028 13.9796 12.8366 14.1707 12.5991 13.7421L12.0487 12.7572C11.6026 11.9636 10.9364 11.5059 10.2239 11.5059C9.51131 11.5059 8.8451 11.9636 8.39903 12.7572L7.84868 13.7421C7.60537 14.1707 6.94495 13.9738 6.9855 13.4814C7.16509 11.0424 8.83931 9.34506 10.2181 9.34506ZM14.8526 25.5659C11.3419 25.5659 7.06081 23.3471 6.52205 20.1609C6.40619 19.4715 7.06661 18.9095 7.72123 19.1239C9.47076 19.6858 12.0719 20.0044 14.8526 20.0044C17.6333 20.0044 20.2344 19.6858 21.9839 19.1239C22.6444 18.9095 23.2932 19.4773 23.1831 20.1609C22.6444 23.3471 18.3632 25.5659 14.8526 25.5659Z" fill="black"/>
</g>
<defs>
<clipPath id="clip0_201_5183">
<rect width="28.734" height="29.6609" fill="white" transform="translate(0.485596 0.539551)"/>
</clipPath>
</defs>
</svg>
