<svg width="27" height="31" viewBox="0 0 27 31" fill="none" xmlns="http://www.w3.org/2000/svg">
<g clip-path="url(#clip0_201_5161)">
<path d="M6.35487 17.2238H2.64726C1.62361 17.2238 0.793457 18.0539 0.793457 19.0776V22.7852C0.793457 23.8088 1.62361 24.639 2.64726 24.639H6.35487C7.37852 24.639 8.20868 23.8088 8.20868 22.7852V19.0776C8.20868 18.0539 7.37852 17.2238 6.35487 17.2238ZM15.6239 17.2238H11.9163C10.8926 17.2238 10.0625 18.0539 10.0625 19.0776V22.7852C10.0625 23.8088 10.8926 24.639 11.9163 24.639H15.6239C16.6475 24.639 17.4777 23.8088 17.4777 22.7852V19.0776C17.4777 18.0539 16.6475 17.2238 15.6239 17.2238ZM24.8929 17.2238H21.1853C20.1617 17.2238 19.3315 18.0539 19.3315 19.0776V22.7852C19.3315 23.8088 20.1617 24.639 21.1853 24.639H24.8929C25.9166 24.639 26.7467 23.8088 26.7467 22.7852V19.0776C26.7467 18.0539 25.9166 17.2238 24.8929 17.2238ZM6.35487 6.10095H2.64726C1.62361 6.10095 0.793457 6.93111 0.793457 7.95476V11.6624C0.793457 12.686 1.62361 13.5162 2.64726 13.5162H6.35487C7.37852 13.5162 8.20868 12.686 8.20868 11.6624V7.95476C8.20868 6.93111 7.37852 6.10095 6.35487 6.10095ZM15.6239 6.10095H11.9163C10.8926 6.10095 10.0625 6.93111 10.0625 7.95476V11.6624C10.0625 12.686 10.8926 13.5162 11.9163 13.5162H15.6239C16.6475 13.5162 17.4777 12.686 17.4777 11.6624V7.95476C17.4777 6.93111 16.6475 6.10095 15.6239 6.10095ZM24.8929 6.10095H21.1853C20.1617 6.10095 19.3315 6.93111 19.3315 7.95476V11.6624C19.3315 12.686 20.1617 13.5162 21.1853 13.5162H24.8929C25.9166 13.5162 26.7467 12.686 26.7467 11.6624V7.95476C26.7467 6.93111 25.9166 6.10095 24.8929 6.10095Z" fill="black"/>
</g>
<defs>
<clipPath id="clip0_201_5161">
<rect width="25.9533" height="29.6609" fill="white" transform="translate(0.793579 0.539551)"/>
</clipPath>
</defs>
</svg>
