<svg width="15" height="31" viewBox="0 0 15 31" fill="none" xmlns="http://www.w3.org/2000/svg">
<g clip-path="url(#clip0_201_5159)">
<path d="M5.69394 29.2734V1.46633C5.69394 0.956535 5.27683 0.539429 4.76704 0.539429H2.91323C2.40343 0.539429 1.98633 0.956535 1.98633 1.46633V29.2734C1.98633 29.7832 2.40343 30.2003 2.91323 30.2003H4.76704C5.27683 30.2003 5.69394 29.7832 5.69394 29.2734ZM13.1092 29.2734V1.46633C13.1092 0.956535 12.6921 0.539429 12.1823 0.539429H10.3285C9.81866 0.539429 9.40155 0.956535 9.40155 1.46633V29.2734C9.40155 29.7832 9.81866 30.2003 10.3285 30.2003H12.1823C12.6921 30.2003 13.1092 29.7832 13.1092 29.2734Z" fill="black"/>
</g>
<defs>
<clipPath id="clip0_201_5159">
<rect width="14.8304" height="29.6609" fill="white" transform="translate(0.133057 0.539551)"/>
</clipPath>
</defs>
</svg>
