<svg width="19" height="31" viewBox="0 0 19 31" fill="none" xmlns="http://www.w3.org/2000/svg">
<g clip-path="url(#clip0_201_5155)">
<path d="M5.83559 2.39319H2.12798C1.10433 2.39319 0.27417 3.22335 0.27417 4.24699V7.95461C0.27417 8.97825 1.10433 9.80841 2.12798 9.80841H5.83559C6.85923 9.80841 7.68939 8.97825 7.68939 7.95461V4.24699C7.68939 3.22335 6.85923 2.39319 5.83559 2.39319ZM5.83559 11.6622H2.12798C1.10433 11.6622 0.27417 12.4924 0.27417 13.516V17.2236C0.27417 18.2473 1.10433 19.0774 2.12798 19.0774H5.83559C6.85923 19.0774 7.68939 18.2473 7.68939 17.2236V13.516C7.68939 12.4924 6.85923 11.6622 5.83559 11.6622ZM5.83559 20.9312H2.12798C1.10433 20.9312 0.27417 21.7614 0.27417 22.785V26.4927C0.27417 27.5163 1.10433 28.3465 2.12798 28.3465H5.83559C6.85923 28.3465 7.68939 27.5163 7.68939 26.4927V22.785C7.68939 21.7614 6.85923 20.9312 5.83559 20.9312ZM16.9584 2.39319H13.2508C12.2272 2.39319 11.397 3.22335 11.397 4.24699V7.95461C11.397 8.97825 12.2272 9.80841 13.2508 9.80841H16.9584C17.9821 9.80841 18.8122 8.97825 18.8122 7.95461V4.24699C18.8122 3.22335 17.9821 2.39319 16.9584 2.39319ZM16.9584 11.6622H13.2508C12.2272 11.6622 11.397 12.4924 11.397 13.516V17.2236C11.397 18.2473 12.2272 19.0774 13.2508 19.0774H16.9584C17.9821 19.0774 18.8122 18.2473 18.8122 17.2236V13.516C18.8122 12.4924 17.9821 11.6622 16.9584 11.6622ZM16.9584 20.9312H13.2508C12.2272 20.9312 11.397 21.7614 11.397 22.785V26.4927C11.397 27.5163 12.2272 28.3465 13.2508 28.3465H16.9584C17.9821 28.3465 18.8122 27.5163 18.8122 26.4927V22.785C18.8122 21.7614 17.9821 20.9312 16.9584 20.9312Z" fill="black"/>
</g>
<defs>
<clipPath id="clip0_201_5155">
<rect width="18.5381" height="29.6609" fill="white" transform="translate(0.27417 0.539551)"/>
</clipPath>
</defs>
</svg>
