<svg width="31" height="31" viewBox="0 0 31 31" fill="none" xmlns="http://www.w3.org/2000/svg">
<g clip-path="url(#clip0_201_5157)">
<path d="M29.3762 17.2238H1.56911C1.05932 17.2238 0.642212 17.6409 0.642212 18.1507V20.0045C0.642212 20.5143 1.05932 20.9314 1.56911 20.9314H29.3762C29.886 20.9314 30.3031 20.5143 30.3031 20.0045V18.1507C30.3031 17.6409 29.886 17.2238 29.3762 17.2238ZM29.3762 9.80859H1.56911C1.05932 9.80859 0.642212 10.2257 0.642212 10.7355V12.5893C0.642212 13.0991 1.05932 13.5162 1.56911 13.5162H29.3762C29.886 13.5162 30.3031 13.0991 30.3031 12.5893V10.7355C30.3031 10.2257 29.886 9.80859 29.3762 9.80859Z" fill="black"/>
</g>
<defs>
<clipPath id="clip0_201_5157">
<rect width="29.6609" height="29.6609" fill="white" transform="translate(0.642212 0.539551)"/>
</clipPath>
</defs>
</svg>
