<svg width="31" height="31" viewBox="0 0 31 31" fill="none" xmlns="http://www.w3.org/2000/svg">
<g clip-path="url(#clip0_201_5153)">
<path d="M29.9015 2.79881L28.185 1.0823C28.0129 0.910115 27.8085 0.773527 27.5836 0.680338C27.3586 0.587149 27.1175 0.539185 26.874 0.539185C26.6306 0.539185 26.3895 0.587149 26.1645 0.680338C25.9396 0.773527 25.7352 0.910115 25.5631 1.0823L22.882 3.76626C22.6572 3.99039 22.488 4.26396 22.3878 4.56514L21.6834 6.68021L17.2655 11.0981C16.5611 10.5906 15.7883 10.1862 14.9425 9.98926C13.0047 9.53855 11.0611 9.93828 9.73562 11.2637C9.1949 11.8067 8.79274 12.4717 8.56308 13.2027C8.21549 14.2779 7.2185 15.0965 6.12127 15.199C4.7483 15.3305 3.47207 15.8623 2.49419 16.8466C-0.149803 19.4831 0.325814 24.2334 3.53985 27.4457C6.75389 30.658 11.5008 31.1273 14.1401 28.4926C15.125 27.5147 15.6556 26.239 15.7883 24.8597C15.8903 23.7677 16.7088 22.7666 17.7829 22.4184C18.514 22.1884 19.1792 21.7861 19.7224 21.2453C21.0473 19.9199 21.4453 17.9803 20.9969 16.046C20.8005 15.1979 20.3962 14.4239 19.8869 13.7171L24.3036 9.30045L26.417 8.59601C26.7181 8.49582 26.9917 8.3266 27.2158 8.10185L29.8998 5.41847C30.2471 5.07113 30.4423 4.60016 30.4426 4.109C30.443 3.61783 30.2484 3.14661 29.9015 2.79881ZM12.8332 20.9313C12.2832 20.9313 11.7456 20.7683 11.2883 20.4627C10.831 20.1572 10.4746 19.7229 10.2642 19.2148C10.0537 18.7067 9.99864 18.1476 10.1059 17.6081C10.2132 17.0687 10.4781 16.5733 10.867 16.1844C11.2558 15.7955 11.7513 15.5307 12.2907 15.4234C12.8301 15.3161 13.3892 15.3711 13.8973 15.5816C14.4054 15.7921 14.8397 16.1485 15.1453 16.6058C15.4508 17.063 15.6139 17.6007 15.6139 18.1506C15.6139 18.8881 15.321 19.5954 14.7995 20.1169C14.278 20.6384 13.5707 20.9313 12.8332 20.9313Z" fill="black"/>
</g>
<defs>
<clipPath id="clip0_201_5153">
<rect width="29.6609" height="29.6609" fill="white" transform="translate(0.783325 0.539551)"/>
</clipPath>
</defs>
</svg>
