<svg width="26" height="31" viewBox="0 0 26 31" fill="none" xmlns="http://www.w3.org/2000/svg">
<g clip-path="url(#clip0_201_5151)">
<path d="M25.953 5.1739V25.5658C25.953 27.1015 24.7081 28.3465 23.1723 28.3465H2.78046C1.2447 28.3465 -0.000244141 27.1015 -0.000244141 25.5658V5.1739C-0.000244141 3.63813 1.2447 2.39319 2.78046 2.39319H23.1723C24.7081 2.39319 25.953 3.63813 25.953 5.1739ZM19.4647 7.95461H17.6109C17.099 7.95461 16.684 8.36957 16.684 8.88151V13.516H9.26878V8.88151C9.26878 8.36957 8.85382 7.95461 8.34188 7.95461H6.48808C5.97614 7.95461 5.56117 8.36957 5.56117 8.88151V21.8581C5.56117 22.3701 5.97614 22.785 6.48808 22.785H8.34188C8.85382 22.785 9.26878 22.3701 9.26878 21.8581V17.2236H16.684V21.8581C16.684 22.3701 17.099 22.785 17.6109 22.785H19.4647C19.9767 22.785 20.3916 22.3701 20.3916 21.8581V8.88151C20.3916 8.36957 19.9767 7.95461 19.4647 7.95461Z" fill="black"/>
</g>
<defs>
<clipPath id="clip0_201_5151">
<rect width="25.9533" height="29.6609" fill="white" transform="translate(0 0.539551)"/>
</clipPath>
</defs>
</svg>
