<svg width="30" height="31" viewBox="0 0 30 31" fill="none" xmlns="http://www.w3.org/2000/svg">
<g clip-path="url(#clip0_201_5149)">
<path d="M26.9361 15.7089H2.83662C2.09913 15.7089 1.39184 16.0019 0.870359 16.5234C0.348875 17.0449 0.0559082 17.7522 0.0559082 18.4896C0.0559082 19.2271 0.348875 19.9344 0.870359 20.4559C1.39184 20.9774 2.09913 21.2704 2.83662 21.2704H26.9361C27.6736 21.2704 28.3809 20.9774 28.9023 20.4559C29.4238 19.9344 29.7168 19.2271 29.7168 18.4896C29.7168 17.7522 29.4238 17.0449 28.9023 16.5234C28.3809 16.0019 27.6736 15.7089 26.9361 15.7089ZM27.863 23.1242H1.90971C1.66388 23.1242 1.42812 23.2218 1.25429 23.3956C1.08047 23.5695 0.982811 23.8052 0.982811 24.0511V24.978C0.982811 25.9613 1.37343 26.9043 2.06875 27.5996C2.76406 28.295 3.7071 28.6856 4.69042 28.6856H25.0823C26.0656 28.6856 27.0086 28.295 27.704 27.5996C28.3993 26.9043 28.7899 25.9613 28.7899 24.978V24.0511C28.7899 23.8052 28.6922 23.5695 28.5184 23.3956C28.3446 23.2218 28.1088 23.1242 27.863 23.1242ZM3.45301 13.8551H26.3197C28.3224 13.8551 29.4839 11.3119 28.3369 9.4593C26.0092 5.69839 20.8852 2.73809 14.8864 2.7323C8.88813 2.73809 3.76352 5.69839 1.43583 9.45872C0.287634 11.3114 1.45032 13.8551 3.45301 13.8551ZM22.3016 7.36681C22.4849 7.36681 22.6641 7.42118 22.8165 7.52303C22.969 7.62487 23.0878 7.76964 23.1579 7.93901C23.2281 8.10838 23.2464 8.29474 23.2107 8.47455C23.1749 8.65435 23.0866 8.81951 22.957 8.94914C22.8274 9.07877 22.6622 9.16704 22.4824 9.20281C22.3026 9.23857 22.1162 9.22022 21.9469 9.15006C21.7775 9.07991 21.6327 8.9611 21.5309 8.80868C21.429 8.65625 21.3747 8.47704 21.3747 8.29372C21.3747 8.04789 21.4723 7.81213 21.6462 7.6383C21.82 7.46447 22.0557 7.36681 22.3016 7.36681ZM14.8864 5.51301C15.0697 5.51301 15.2489 5.56737 15.4013 5.66922C15.5537 5.77107 15.6725 5.91583 15.7427 6.0852C15.8129 6.25457 15.8312 6.44094 15.7954 6.62074C15.7597 6.80054 15.6714 6.9657 15.5418 7.09533C15.4121 7.22496 15.247 7.31324 15.0672 7.349C14.8874 7.38477 14.701 7.36641 14.5316 7.29626C14.3623 7.2261 14.2175 7.1073 14.1157 6.95487C14.0138 6.80244 13.9594 6.62323 13.9594 6.43991C13.9594 6.19408 14.0571 5.95832 14.2309 5.78449C14.4048 5.61066 14.6405 5.51301 14.8864 5.51301ZM7.47113 7.36681C7.65445 7.36681 7.83366 7.42118 7.98609 7.52303C8.13852 7.62487 8.25732 7.76964 8.32748 7.93901C8.39763 8.10838 8.41599 8.29474 8.38022 8.47455C8.34446 8.65435 8.25618 8.81951 8.12655 8.94914C7.99692 9.07877 7.83176 9.16704 7.65196 9.20281C7.47216 9.23857 7.28579 9.22022 7.11642 9.15006C6.94705 9.07991 6.80229 8.9611 6.70044 8.80868C6.59859 8.65625 6.54423 8.47704 6.54423 8.29372C6.54423 8.04789 6.64188 7.81213 6.81571 7.6383C6.98954 7.46447 7.2253 7.36681 7.47113 7.36681Z" fill="black"/>
</g>
<defs>
<clipPath id="clip0_201_5149">
<rect width="29.6609" height="29.6609" fill="white" transform="translate(0.0559082 0.878662)"/>
</clipPath>
</defs>
</svg>
