<svg width="35" height="31" viewBox="0 0 35 31" fill="none" xmlns="http://www.w3.org/2000/svg">
<g clip-path="url(#clip0_201_5147)">
<path d="M33.954 12.1138L32.643 10.8028C32.281 10.4407 31.6941 10.4407 31.3321 10.8028L30.6769 11.458L29.0026 9.78376C29.3288 8.54924 29.0235 7.18264 28.0555 6.2146L25.4341 3.59321C21.8145 -0.0263488 15.9455 -0.0263488 12.3253 3.59321L17.5687 6.2146V7.30082C17.5687 8.28391 17.9592 9.22704 18.6549 9.92222L21.5017 12.769C22.4697 13.737 23.8363 14.0423 25.0708 13.7161L26.745 15.3904L26.0898 16.0456C25.7278 16.4076 25.7278 16.9945 26.0898 17.3566L27.4008 18.6675C27.7629 19.0296 28.3497 19.0296 28.7118 18.6675L33.9552 13.4242C34.3161 13.0627 34.3161 12.4758 33.954 12.1138ZM17.3439 11.2332C17.1296 11.0189 16.9477 10.7819 16.7733 10.5409L1.995 24.3384C0.513696 25.7219 0.473724 28.0571 1.90637 29.4903C3.33901 30.9235 5.67481 30.8835 7.05821 29.4017L20.8534 14.6251C20.624 14.4565 20.3958 14.285 20.1907 14.08L17.3439 11.2332Z" fill="black"/>
</g>
<defs>
<clipPath id="clip0_201_5147">
<rect width="33.3685" height="29.6609" fill="white" transform="translate(0.857422 0.878662)"/>
</clipPath>
</defs>
</svg>
