<svg width="35" height="31" viewBox="0 0 35 31" fill="none" xmlns="http://www.w3.org/2000/svg">
<g clip-path="url(#clip0_201_5105)">
<path d="M29.4529 13.8554C30.0029 13.8554 30.5405 13.6923 30.9978 13.3868C31.4551 13.0812 31.8115 12.647 32.022 12.1388C32.2324 11.6307 32.2875 11.0716 32.1802 10.5322C32.0729 9.99282 31.8081 9.49735 31.4192 9.10846C31.0303 8.71957 30.5348 8.45473 29.9954 8.34744C29.456 8.24014 28.8969 8.29521 28.3888 8.50568C27.8807 8.71614 27.4464 9.07255 27.1409 9.52984C26.8353 9.98712 26.6722 10.5247 26.6722 11.0747C26.6722 11.8122 26.9652 12.5195 27.4867 13.041C28.0082 13.5625 28.7154 13.8554 29.4529 13.8554ZM18.7628 11.2166C19.0733 11.1224 19.396 11.0745 19.7205 11.0747C20.0963 11.0778 20.4687 11.1463 20.8212 11.2769L21.7104 8.46085C21.7729 8.26423 21.7909 8.05617 21.763 7.85174C21.7352 7.64731 21.6622 7.45165 21.5493 7.27894C21.4364 7.10623 21.2865 6.9608 21.1105 6.85321C20.9345 6.74561 20.7367 6.67854 20.5315 6.65687C19.8635 6.57866 19.2448 7.02994 19.0421 7.67124L17.8313 11.5046L18.7628 11.2166ZM6.14423 23.2594C6.19057 23.2484 6.23344 23.2281 6.28036 23.2183V21.73C6.28188 19.8304 6.88195 17.9796 7.99533 16.4404C9.10871 14.9013 10.6788 13.7521 12.4825 13.1562L16.752 11.8377L18.731 5.57413C18.7932 5.3777 18.811 5.16991 18.783 4.96577C18.7551 4.76164 18.6821 4.56626 18.5694 4.39379C18.4567 4.22131 18.307 4.07604 18.1313 3.96848C17.9556 3.86093 17.7581 3.79377 17.5532 3.77188C16.8853 3.69425 16.266 4.14554 16.0632 4.78684L14.1254 10.9519C14.0883 11.0691 14.0062 11.1668 13.897 11.2235C13.7879 11.2801 13.6607 11.2911 13.5435 11.254C13.4263 11.2169 13.3286 11.1348 13.2719 11.0256C13.2153 10.9165 13.2043 10.7893 13.2414 10.6721L15.7539 2.68972C15.8161 2.4933 15.8339 2.2855 15.8059 2.08137C15.778 1.87723 15.705 1.68186 15.5923 1.50938C15.4796 1.3369 15.3299 1.19163 15.1542 1.08408C14.9785 0.97652 14.781 0.909367 14.5761 0.887475C13.9082 0.809847 13.2901 1.26113 13.0867 1.90185L10.3101 10.6906C10.273 10.8079 10.191 10.9056 10.0819 10.9623C9.97281 11.019 9.84567 11.0301 9.72844 10.993C9.61121 10.956 9.51349 10.8739 9.45678 10.7648C9.40007 10.6558 9.38901 10.5286 9.42604 10.4114L11.6599 3.34377C11.7221 3.14734 11.7399 2.93955 11.7119 2.73541C11.684 2.53128 11.611 2.3359 11.4983 2.16343C11.3856 1.99095 11.2359 1.84568 11.0602 1.73812C10.8845 1.63057 10.687 1.56341 10.4821 1.54152C9.81418 1.4581 9.19547 1.9117 8.99271 2.553L5.51683 13.5513L5.39749 10.6518C5.39863 10.4692 5.36379 10.2881 5.29493 10.119C5.22608 9.94979 5.12457 9.79585 4.99621 9.66593C4.86785 9.53601 4.71515 9.43265 4.54683 9.36176C4.37852 9.29087 4.19788 9.25383 4.01525 9.25277C3.24881 9.24988 2.58318 9.86337 2.57275 10.635V17.1656C2.591 18.4033 2.92958 19.6152 3.55548 20.6832C4.18139 21.7511 5.07327 22.6387 6.14423 23.2594ZM30.7911 20.3437H21.5743C21.4513 20.3437 21.3335 20.2949 21.2466 20.208C21.1596 20.1211 21.1108 20.0032 21.1108 19.8803C21.1108 19.7574 21.1596 19.6395 21.2466 19.5526C21.3335 19.4657 21.4513 19.4168 21.5743 19.4168H28.9895C29.1955 19.417 29.399 19.3713 29.5853 19.2832C29.7715 19.195 29.9359 19.0666 30.0664 18.9071C30.1969 18.7477 30.2903 18.5612 30.3399 18.3612C30.3895 18.1612 30.3941 17.9527 30.3532 17.7507C30.2263 17.0903 29.6099 16.6361 28.9373 16.6361H17.4032L20.1312 15.6478C20.3057 15.5939 20.4679 15.5061 20.6085 15.3895C20.7491 15.2729 20.8653 15.1297 20.9506 14.9682C21.0359 14.8066 21.0885 14.6298 21.1054 14.448C21.1224 14.2661 21.1033 14.0827 21.0494 13.9081C20.9955 13.7336 20.9077 13.5714 20.7911 13.4308C20.6744 13.2902 20.5313 13.174 20.3697 13.0887C20.2082 13.0035 20.0314 12.9509 19.8496 12.9339C19.6677 12.917 19.4842 12.936 19.3097 12.9899L13.0693 14.9161C11.6336 15.3882 10.3835 16.3014 9.49734 17.5257C8.61115 18.75 8.13409 20.2227 8.13417 21.7341V23.22C8.80262 23.3547 9.433 23.6355 9.9801 24.0425C10.5272 24.4495 10.9775 24.9725 11.2986 25.574C11.6198 26.1755 11.8039 26.8406 11.8377 27.5217C11.8715 28.2027 11.7542 28.8828 11.4942 29.5131C12.574 30.1796 13.817 30.5349 15.0859 30.5397H27.1357C27.3417 30.5398 27.5452 30.4942 27.7315 30.406C27.9177 30.3178 28.082 30.1894 28.2126 30.0299C28.3431 29.8705 28.4365 29.684 28.4861 29.484C28.5357 29.284 28.5403 29.0755 28.4994 28.8736C28.3725 28.2131 27.7561 27.759 27.0835 27.759H21.5743C21.4513 27.759 21.3335 27.7101 21.2466 27.6232C21.1596 27.5363 21.1108 27.4184 21.1108 27.2955C21.1108 27.1726 21.1596 27.0547 21.2466 26.9678C21.3335 26.8809 21.4513 26.8321 21.5743 26.8321H28.9895C29.1955 26.8322 29.399 26.7865 29.5853 26.6984C29.7715 26.6102 29.9359 26.4818 30.0664 26.3223C30.1969 26.1629 30.2903 25.9764 30.3399 25.7764C30.3895 25.5764 30.3941 25.3679 30.3532 25.166C30.2263 24.5055 29.6099 24.0514 28.9373 24.0514H21.5743C21.4513 24.0514 21.3335 24.0025 21.2466 23.9156C21.1596 23.8287 21.1108 23.7108 21.1108 23.5879C21.1108 23.465 21.1596 23.3471 21.2466 23.2602C21.3335 23.1733 21.4513 23.1245 21.5743 23.1245H30.8433C31.0493 23.1246 31.2529 23.0789 31.4391 22.9908C31.6253 22.9026 31.7897 22.7742 31.9202 22.6147C32.0507 22.4553 32.1441 22.2688 32.1937 22.0688C32.2433 21.8688 32.2479 21.6603 32.207 21.4583C32.0801 20.7979 31.4637 20.3437 30.7911 20.3437ZM24.8184 4.5864C25.1851 4.5864 25.5435 4.47767 25.8483 4.27397C26.1532 4.07027 26.3908 3.78075 26.5311 3.44201C26.6714 3.10327 26.7081 2.73053 26.6366 2.37093C26.5651 2.01133 26.3885 1.68101 26.1293 1.42175C25.87 1.16249 25.5397 0.985935 25.1801 0.914405C24.8205 0.842876 24.4477 0.879587 24.109 1.0199C23.7703 1.16021 23.4807 1.39781 23.277 1.70267C23.0733 2.00753 22.9646 2.36594 22.9646 2.73259C22.9646 3.22425 23.1599 3.69577 23.5076 4.04343C23.8552 4.39109 24.3268 4.5864 24.8184 4.5864ZM7.20727 24.9783C6.6573 24.9783 6.11967 25.1413 5.66239 25.4469C5.2051 25.7524 4.84869 26.1867 4.63823 26.6948C4.42776 27.2029 4.3727 27.7621 4.47999 28.3015C4.58728 28.8409 4.85212 29.3363 5.24101 29.7252C5.6299 30.1141 6.12537 30.3789 6.66478 30.4862C7.20418 30.5935 7.76329 30.5385 8.2714 30.328C8.77951 30.1175 9.21379 29.7611 9.51934 29.3038C9.82489 28.8466 9.98798 28.3089 9.98798 27.759C9.98798 27.0215 9.69501 26.3142 9.17353 25.7927C8.65204 25.2712 7.94476 24.9783 7.20727 24.9783Z" fill="black"/>
</g>
<defs>
<clipPath id="clip0_201_5105">
<rect width="33.3685" height="29.6609" fill="white" transform="translate(0.718262 0.878662)"/>
</clipPath>
</defs>
</svg>
