<svg width="23" height="31" viewBox="0 0 23 31" fill="none" xmlns="http://www.w3.org/2000/svg">
<g clip-path="url(#clip0_201_5125)">
<path d="M5.36209 27.9443V19.299C4.88427 19.6374 4.40286 19.9113 3.91856 20.1189C2.07576 20.9087 0.0416697 19.5456 0.0424807 17.563C0.0429442 16.4846 0.673759 15.6975 1.72782 15.2458C3.36647 14.5435 5.45449 10.6896 6.20725 9.01618C6.66816 7.9817 7.68329 7.36786 8.74726 7.36722L8.74731 7.3671H18.6841C19.3683 7.3671 19.9526 7.86508 20.0572 8.54132C20.4772 11.2546 22.2866 12.1192 22.2768 15.7092C22.2764 15.867 22.2881 16.4771 22.2881 16.6361C22.2881 19.5706 21.0066 21.3618 18.1598 20.842C17.6212 21.9193 15.8723 22.6226 14.5498 21.7949C13.323 23.2226 11.4275 23.1064 10.4399 22.1598V27.9443C10.4399 29.3434 9.26962 30.5397 7.90099 30.5397C6.55218 30.5397 5.36209 29.3028 5.36209 27.9443ZM6.5308 5.04985V2.26914C6.5308 1.50126 7.15327 0.878784 7.92115 0.878784H19.044C19.8119 0.878784 20.4343 1.50126 20.4343 2.26914V5.04985C20.4343 5.81773 19.8119 6.4402 19.044 6.4402H7.92115C7.15327 6.4402 6.5308 5.81773 6.5308 5.04985ZM18.8123 3.65949C18.8123 3.01958 18.2935 2.50086 17.6536 2.50086C17.0137 2.50086 16.495 3.01958 16.495 3.65949C16.495 4.2994 17.0137 4.81812 17.6536 4.81812C18.2935 4.81812 18.8123 4.2994 18.8123 3.65949Z" fill="black"/>
</g>
<defs>
<clipPath id="clip0_201_5125">
<rect width="22.2457" height="29.6609" fill="white" transform="translate(0.0424805 0.878662)"/>
</clipPath>
</defs>
</svg>
