<svg width="38" height="31" viewBox="0 0 38 31" fill="none" xmlns="http://www.w3.org/2000/svg">
<g clip-path="url(#clip0_201_5101)">
<path d="M21.6798 12.2101L30.1152 19.0576C30.7921 19.6129 31.2484 20.3918 31.4018 21.2538H37.0553C37.3009 21.2531 37.5363 21.1552 37.7099 20.9815C37.8836 20.8078 37.9815 20.5725 37.9822 20.3269V9.21567C37.9809 8.97075 37.8826 8.73632 37.7089 8.56362C37.5352 8.39092 37.3003 8.29398 37.0553 8.29398H30.567L27.4045 5.13151C27.0575 4.7833 26.5863 4.58721 26.0947 4.58637H21.119C20.6554 4.58655 20.2088 4.76037 19.8671 5.07357L14.7622 9.74748L13.2739 8.59754L17.6535 4.58637H12.7994C12.308 4.58737 11.8371 4.78344 11.4902 5.13151L10.3119 6.30751L3.54027 1.07457C3.44415 0.999694 3.3342 0.944506 3.21673 0.912161C3.09926 0.879817 2.97656 0.870951 2.85566 0.88607C2.73476 0.90119 2.61802 0.939998 2.51213 1.00028C2.40624 1.06055 2.31328 1.14112 2.23855 1.23736L1.10194 2.70128C0.951082 2.89534 0.883485 3.14138 0.914013 3.38527C0.94454 3.62917 1.07069 3.85095 1.26472 4.00184L35.3487 30.3444C35.4448 30.4192 35.5547 30.4743 35.6721 30.5066C35.7895 30.5389 35.9121 30.5477 36.033 30.5326C36.1538 30.5175 36.2705 30.4787 36.3763 30.4185C36.4822 30.3583 36.5751 30.2778 36.6498 30.1816L37.7876 28.7177C37.9384 28.5236 38.006 28.2776 37.9755 28.0337C37.945 27.7898 37.8188 27.568 37.6248 27.4171L18.4825 12.6226L20.3763 10.8893L21.9404 9.4584C22.1218 9.29239 22.3617 9.20523 22.6074 9.21609C22.853 9.22696 23.0843 9.33496 23.2503 9.51634C23.4163 9.69771 23.5035 9.93761 23.4926 10.1832C23.4817 10.4289 23.3737 10.6602 23.1923 10.8262L21.6798 12.2101ZM1.83303 8.29398C1.58744 8.29475 1.35212 8.39265 1.17846 8.56631C1.00479 8.73997 0.906892 8.97529 0.906128 9.22089V20.3385C0.906128 20.5843 1.00378 20.8201 1.17761 20.9939C1.35144 21.1677 1.5872 21.2654 1.83303 21.2654H9.3815L14.6243 26.0094C15.3873 26.629 16.3651 26.9204 17.3427 26.8193C18.3204 26.7183 19.218 26.2332 19.8381 25.4706L19.8497 25.4591L20.8873 26.357C21.1066 26.5355 21.359 26.669 21.63 26.7499C21.901 26.8308 22.1853 26.8575 22.4666 26.8285C22.7479 26.7995 23.0207 26.7154 23.2695 26.5809C23.5183 26.4464 23.7381 26.2642 23.9165 26.0448L24.4263 25.4179L2.27099 8.29398H1.83303Z" fill="black"/>
</g>
<defs>
<clipPath id="clip0_201_5101">
<rect width="37.0761" height="29.6609" fill="white" transform="translate(0.906128 0.878662)"/>
</clipPath>
</defs>
</svg>
