<svg width="31" height="31" viewBox="0 0 31 31" fill="none" xmlns="http://www.w3.org/2000/svg">
<g clip-path="url(#clip0_201_5123)">
<path d="M3.14696 9.90592H11.7923C11.4539 9.4281 11.18 8.94669 10.9724 8.46238C10.1826 6.61958 11.5457 4.58549 13.5283 4.5863C14.6067 4.58677 15.3938 5.21758 15.8455 6.27165C16.5478 7.91029 20.4017 9.99832 22.0751 10.7511C23.1096 11.212 23.7235 12.2271 23.7241 13.2911L23.7242 13.2911V23.2279C23.7242 23.9122 23.2262 24.4964 22.55 24.601C19.8367 25.021 18.9721 26.8304 15.3821 26.8207C15.2243 26.8203 14.6143 26.832 14.4552 26.832C11.5207 26.832 9.72948 25.5504 10.2494 22.7036C9.172 22.165 8.46866 20.4161 9.29638 19.0936C7.86866 17.8668 7.98487 15.9713 8.93147 14.9837H3.14696C1.74792 14.9837 0.551636 13.8134 0.551636 12.4448C0.551636 11.096 1.78847 9.90592 3.14696 9.90592ZM26.0415 11.0746H28.8222C29.5901 11.0746 30.2125 11.6971 30.2125 12.465V23.5878C30.2125 24.3557 29.5901 24.9782 28.8222 24.9782H26.0415C25.2736 24.9782 24.6511 24.3557 24.6511 23.5878V12.465C24.6511 11.6971 25.2736 11.0746 26.0415 11.0746ZM27.4318 23.3561C28.0717 23.3561 28.5904 22.8374 28.5904 22.1975C28.5904 21.5575 28.0717 21.0388 27.4318 21.0388C26.7919 21.0388 26.2732 21.5575 26.2732 22.1975C26.2732 22.8374 26.7919 23.3561 27.4318 23.3561Z" fill="black"/>
</g>
<defs>
<clipPath id="clip0_201_5123">
<rect width="29.6609" height="29.6609" fill="white" transform="translate(0.551636 0.878662)"/>
</clipPath>
</defs>
</svg>
