<svg width="31" height="31" viewBox="0 0 31 31" fill="none" xmlns="http://www.w3.org/2000/svg">
<g clip-path="url(#clip0_201_5117)">
<path d="M27.4208 5.5132C25.8624 5.49003 24.5937 6.74135 24.5937 8.29391H24.1303V6.48645C24.1303 4.96285 22.9195 3.68836 21.3959 3.6594C19.8376 3.63622 18.5689 4.88754 18.5689 6.44011V8.29391H18.1054V5.55955C18.1054 4.03595 16.8946 2.76146 15.3711 2.73249C13.8127 2.70932 12.544 3.96064 12.544 5.5132V8.29391H12.0805V6.48645C12.0805 4.96285 10.8698 3.68836 9.34618 3.6594C7.78783 3.63622 6.51913 4.88754 6.51913 6.44011V14.3188L6.05568 13.9075V11.121C6.05568 9.59737 4.84491 8.32288 3.32132 8.29391C1.76296 8.27074 0.494263 9.52206 0.494263 11.0746V14.9213C0.494263 16.5086 1.17206 18.0206 2.35965 19.0807L8.83059 24.8333C9.42149 25.3605 9.76329 26.1194 9.76329 26.9131V27.3012C9.76329 28.0717 10.3832 28.6916 11.1536 28.6916H25.0572C25.8277 28.6916 26.4475 28.0717 26.4475 27.3012V27.1332C26.4475 26.3917 26.5982 25.656 26.882 24.9724L29.7207 18.2349C30.0103 17.5514 30.1552 16.8156 30.1552 16.0741V8.34026C30.1552 6.81666 28.9444 5.53638 27.4208 5.5132Z" fill="black"/>
</g>
<defs>
<clipPath id="clip0_201_5117">
<rect width="29.6609" height="29.6609" fill="white" transform="translate(0.494141 0.878662)"/>
</clipPath>
</defs>
</svg>
