<svg width="34" height="31" viewBox="0 0 34 31" fill="none" xmlns="http://www.w3.org/2000/svg">
<g clip-path="url(#clip0_201_5133)">
<path d="M22.4214 28.6858H33.5442V21.9529C33.5442 20.9017 33.2463 19.872 32.6849 18.9832L23.2398 4.02835C22.9891 3.63149 22.6421 3.30453 22.231 3.07795C21.8199 2.85137 21.3581 2.73255 20.8888 2.73254H1.56607C0.798193 2.73254 0.17572 3.35502 0.17572 4.1229V5.0498C0.17572 6.8415 1.62818 8.29396 3.41988 8.29396H16.743C17.4871 8.29396 17.9918 9.05095 17.7055 9.73779L16.4652 12.7146C16.3245 13.0524 16.0868 13.341 15.7823 13.544C15.4778 13.747 15.12 13.8554 14.754 13.8554H7.59094C5.5433 13.8554 3.88333 15.5153 3.88333 17.563V18.0264C3.88333 18.7943 4.5058 19.4168 5.27369 19.4168H13.8131C14.3402 19.4168 14.8563 19.5666 15.3015 19.8487L21.7752 23.9509C21.9732 24.0763 22.1362 24.2497 22.2492 24.4551C22.3621 24.6604 22.4214 24.8909 22.4214 25.1253V28.6858Z" fill="black"/>
</g>
<defs>
<clipPath id="clip0_201_5133">
<rect width="33.3685" height="29.6609" fill="white" transform="translate(0.175659 0.878662)"/>
</clipPath>
</defs>
</svg>
