<svg width="35" height="31" viewBox="0 0 35 31" fill="none" xmlns="http://www.w3.org/2000/svg">
<g clip-path="url(#clip0_201_5139)">
<path d="M16.474 9.23829L19.618 10.0667C19.7247 10.0917 19.8203 10.1512 19.8897 10.2361C19.9592 10.3209 19.9987 10.4263 20.002 10.536C20.002 10.8024 19.7651 11.0226 19.4737 11.0226H17.4113C17.1891 11.0219 16.969 10.9787 16.7631 10.8951C16.4595 10.7677 16.1096 10.7966 15.8767 11.011L14.776 12.0248C14.7251 12.0694 14.6812 12.1213 14.6457 12.1789C14.6003 12.2534 14.57 12.3362 14.5567 12.4225C14.5434 12.5088 14.5473 12.5968 14.5682 12.6816C14.5891 12.7664 14.6266 12.8462 14.6785 12.9164C14.7303 12.9866 14.7956 13.0458 14.8705 13.0907C15.48 13.4566 16.1625 13.684 16.8697 13.7569V14.7823C16.8697 15.2921 17.3233 15.7092 17.876 15.7092H18.8822C19.4355 15.7092 19.8891 15.2921 19.8891 14.7823V13.7627C21.7968 13.5542 23.2398 11.9669 22.9884 10.1131C22.8059 8.78063 21.6873 7.72049 20.2911 7.34972L17.1472 6.52131C17.0404 6.49634 16.9449 6.4368 16.8754 6.35194C16.8059 6.26709 16.7665 6.16167 16.7631 6.05206C16.7631 5.78558 17 5.56544 17.2914 5.56544H19.3538C19.5768 5.56578 19.7977 5.60905 20.0044 5.69289C20.3073 5.82033 20.6578 5.79137 20.8907 5.57702L21.9914 4.56322C22.0406 4.51961 22.083 4.46883 22.1171 4.4126C22.1629 4.33809 22.1936 4.25523 22.2072 4.16881C22.2208 4.0824 22.2172 3.99414 22.1965 3.90914C22.1758 3.82414 22.1385 3.74408 22.0867 3.67359C22.0349 3.6031 21.9696 3.54357 21.8947 3.49844C21.2849 3.13263 20.6022 2.9052 19.8949 2.83223V1.80569C19.8949 1.29589 19.4418 0.878784 18.8886 0.878784H17.8823C17.3291 0.878784 16.8761 1.29589 16.8761 1.80569V2.82528C14.9707 3.03383 13.5247 4.62115 13.7761 6.47496C13.958 7.80738 15.0802 8.86753 16.474 9.23829ZM33.518 19.8861C32.8344 19.2662 31.7685 19.3068 31.0501 19.8861L25.6973 24.1672C25.0402 24.6944 24.2224 24.9806 23.38 24.9783H16.5285C16.2826 24.9783 16.0469 24.8806 15.873 24.7068C15.6992 24.5329 15.6016 24.2972 15.6016 24.0514C15.6016 23.8055 15.6992 23.5698 15.873 23.3959C16.0469 23.2221 16.2826 23.1245 16.5285 23.1245H21.0639C21.985 23.1245 22.843 22.493 22.9901 21.5835C23.0083 21.479 23.0172 21.3732 23.0168 21.2672C23.0159 20.7761 22.8201 20.3055 22.4726 19.9586C22.125 19.6117 21.654 19.4168 21.163 19.4168H11.894C10.3307 19.4173 8.81516 19.955 7.60123 20.9399L4.90742 23.1245H1.69802C1.45219 23.1245 1.21643 23.2221 1.0426 23.3959C0.868774 23.5698 0.771118 23.8055 0.771118 24.0514L0.771118 29.6128C0.771118 29.8586 0.868774 30.0944 1.0426 30.2682C1.21643 30.442 1.45219 30.5397 1.69802 30.5397H22.3662C23.2083 30.5403 24.0256 30.2543 24.6835 29.7286L33.4444 22.7189C33.6552 22.5504 33.8266 22.3378 33.9467 22.0962C34.0668 21.8545 34.1326 21.5895 34.1397 21.3197C34.1468 21.05 34.0948 20.7819 33.9876 20.5343C33.8803 20.2867 33.7202 20.0654 33.5186 19.8861H33.518Z" fill="black"/>
</g>
<defs>
<clipPath id="clip0_201_5139">
<rect width="33.3685" height="29.6609" fill="white" transform="translate(0.771118 0.878662)"/>
</clipPath>
</defs>
</svg>
