<svg width="24" height="31" viewBox="0 0 24 31" fill="none" xmlns="http://www.w3.org/2000/svg">
<g clip-path="url(#clip0_201_5119)">
<path d="M8.84362 0.878784C10.2123 0.878784 11.3825 2.07507 11.3825 3.47411V9.25862C12.3701 8.31202 14.2655 8.19581 15.4924 9.62353C16.8149 8.79581 18.5638 9.49915 19.1024 10.5765C21.9492 10.0566 23.2308 11.8479 23.2308 14.7823C23.2308 14.9414 23.219 15.5514 23.2195 15.7092C23.2292 19.2993 21.4198 20.1638 20.9998 22.8771C20.8952 23.5534 20.311 24.0514 19.6266 24.0514H9.68994L9.68988 24.0512C8.62591 24.0506 7.61078 23.4368 7.14988 22.4023C6.39712 20.7289 4.30904 16.8749 2.67045 16.1727C1.61639 15.721 0.985571 14.9339 0.985108 13.8554C0.984297 11.8729 3.01838 10.5098 4.86118 11.2995C5.34543 11.5071 5.8269 11.7811 6.30472 12.1194V3.47411C6.30472 2.11562 7.4948 0.878784 8.84362 0.878784ZM8.86378 24.9783H19.9866C20.7545 24.9783 21.377 25.6007 21.377 26.3686V29.1493C21.377 29.9172 20.7545 30.5397 19.9866 30.5397H8.86378C8.0959 30.5397 7.47343 29.9172 7.47343 29.1493V26.3686C7.47343 25.6007 8.0959 24.9783 8.86378 24.9783ZM18.5963 26.6003C17.9564 26.6003 17.4376 27.1191 17.4376 27.759C17.4376 28.3989 17.9564 28.9176 18.5963 28.9176C19.2362 28.9176 19.7549 28.3989 19.7549 27.759C19.7549 27.1191 19.2362 26.6003 18.5963 26.6003Z" fill="black"/>
</g>
<defs>
<clipPath id="clip0_201_5119">
<rect width="22.2457" height="29.6609" fill="white" transform="translate(0.985107 0.878662)"/>
</clipPath>
</defs>
</svg>
