<svg width="34" height="31" viewBox="0 0 34 31" fill="none" xmlns="http://www.w3.org/2000/svg">
<g clip-path="url(#clip0_201_5143)">
<path d="M16.1166 15.3906C16.5221 15.8193 17.1825 15.8193 17.5939 15.3906L23.9026 8.77486C25.7332 6.85154 25.629 3.66531 23.5782 1.89261C21.7939 0.345843 19.1348 0.623914 17.5012 2.33868L16.8523 3.01648L16.2093 2.34448C14.5756 0.623914 11.9166 0.345843 10.1323 1.89261C8.08732 3.66531 7.97725 6.85154 9.80788 8.77486L16.1166 15.3906ZM32.9167 19.8861C32.2331 19.2662 31.1672 19.3068 30.4488 19.8861L25.096 24.1672C24.4414 24.6944 23.6245 24.9783 22.7787 24.9783H15.9254C15.4156 24.9783 14.9985 24.5612 14.9985 24.0514C14.9985 23.5416 15.4156 23.1245 15.9254 23.1245H20.4615C21.3826 23.1245 22.24 22.493 22.3906 21.5835C22.5818 20.4249 21.6896 19.4169 20.56 19.4169H11.2909C9.72678 19.4169 8.21477 19.9556 6.99821 20.9405L4.30439 23.1245H1.09499C0.585197 23.1245 0.168091 23.5416 0.168091 24.0514V29.6128C0.168091 30.1226 0.585197 30.5397 1.09499 30.5397H21.7649C22.6049 30.5397 23.4218 30.2558 24.0822 29.7287L32.8414 22.719C33.722 22.018 33.7915 20.674 32.9167 19.8861Z" fill="black"/>
</g>
<defs>
<clipPath id="clip0_201_5143">
<rect width="33.3685" height="29.6609" fill="white" transform="translate(0.168091 0.878662)"/>
</clipPath>
</defs>
</svg>
