<svg width="30" height="31" viewBox="0 0 30 31" fill="none" xmlns="http://www.w3.org/2000/svg">
<g clip-path="url(#clip0_201_5121)">
<path d="M29.7217 12.4448C29.7217 13.8134 28.5254 14.9837 27.1264 14.9837H21.3418C22.2884 15.9713 22.4046 17.8667 20.9769 19.0936C21.8047 20.4161 21.1013 22.165 20.024 22.7036C20.5438 25.5504 18.7526 26.832 15.8181 26.832C15.6591 26.832 15.049 26.8202 14.8912 26.8207C11.3012 26.8304 10.4367 25.021 7.72332 24.601C7.04709 24.4963 6.54911 23.9122 6.54911 23.2278V13.2911L6.54923 13.2911C6.54986 12.2271 7.1637 11.212 8.19819 10.7511C9.87159 9.99832 13.7256 7.91024 14.4278 6.27165C14.8795 5.21764 15.6666 4.58677 16.745 4.5863C18.7276 4.58549 20.0907 6.61958 19.3009 8.46238C19.0933 8.94663 18.8194 9.4281 18.481 9.90592H27.1264C28.4848 9.90592 29.7217 11.096 29.7217 12.4448ZM5.62221 12.465V23.5878C5.62221 24.3557 4.99973 24.9782 4.23185 24.9782H1.45115C0.683264 24.9782 0.060791 24.3557 0.060791 23.5878V12.465C0.060791 11.6971 0.683264 11.0746 1.45115 11.0746H4.23185C4.99973 11.0746 5.62221 11.6971 5.62221 12.465ZM4.00013 22.1975C4.00013 21.5575 3.48141 21.0388 2.8415 21.0388C2.20159 21.0388 1.68287 21.5575 1.68287 22.1975C1.68287 22.8374 2.20159 23.3561 2.8415 23.3561C3.48141 23.3561 4.00013 22.8374 4.00013 22.1975Z" fill="black"/>
</g>
<defs>
<clipPath id="clip0_201_5121">
<rect width="29.6609" height="29.6609" fill="white" transform="translate(0.060791 0.878662)"/>
</clipPath>
</defs>
</svg>
