<svg width="34" height="31" viewBox="0 0 34 31" fill="none" xmlns="http://www.w3.org/2000/svg">
<g clip-path="url(#clip0_201_5135)">
<path d="M33.1226 19.886C32.439 19.2661 31.3731 19.3067 30.6547 19.886L25.3019 24.1671C24.6472 24.6943 23.8304 24.9782 22.9846 24.9782H16.1313C15.6215 24.9782 15.2044 24.5611 15.2044 24.0513C15.2044 23.5415 15.6215 23.1244 16.1313 23.1244H20.6673C21.5884 23.1244 22.4458 22.4929 22.5965 21.5834C22.7876 20.4248 21.8955 19.4167 20.7658 19.4167H11.4968C9.93265 19.4167 8.42064 19.9555 7.20408 20.9403L4.51027 23.1244H1.30087C0.791069 23.1244 0.373962 23.5415 0.373962 24.0513V29.6127C0.373962 30.1225 0.791069 30.5396 1.30087 30.5396H21.9708C22.8108 30.5396 23.6276 30.2557 24.2881 29.7285L33.0473 22.7188C33.9278 22.0179 33.9974 20.6739 33.1226 19.886Z" fill="black"/>
</g>
<defs>
<clipPath id="clip0_201_5135">
<rect width="33.3685" height="29.6609" fill="white" transform="translate(0.374146 0.878662)"/>
</clipPath>
</defs>
</svg>
