<svg width="31" height="31" viewBox="0 0 31 31" fill="none" xmlns="http://www.w3.org/2000/svg">
<g clip-path="url(#clip0_201_5131)">
<path d="M28.4876 19.25C28.4873 18.7679 28.3259 18.2998 28.0291 17.9199C27.7322 17.5401 27.317 17.2703 26.8493 17.1534L24.7841 16.6361V13.7633C24.7841 13.1006 24.2227 12.5299 23.4429 12.3996L21.2184 12.0288C20.186 11.8568 19.2226 12.5149 19.2226 13.392V15.2458C19.2226 15.3687 19.1738 15.4866 19.0869 15.5735C19 15.6604 18.8821 15.7092 18.7592 15.7092C18.6363 15.7092 18.5184 15.6604 18.4315 15.5735C18.3446 15.4866 18.2957 15.3687 18.2957 15.2458V3.77533C18.2957 2.2529 17.1226 0.925109 15.6008 0.878764C15.2285 0.867278 14.8576 0.930715 14.5103 1.06531C14.163 1.1999 13.8462 1.4029 13.5788 1.66227C13.3115 1.92163 13.099 2.23207 12.9539 2.57516C12.8088 2.91824 12.7341 3.28698 12.7343 3.65947V15.2458C12.7343 15.3687 12.6855 15.4866 12.5986 15.5735C12.5117 15.6604 12.3938 15.7092 12.2709 15.7092C12.148 15.7092 12.0301 15.6604 11.9432 15.5735C11.8562 15.4866 11.8074 15.3687 11.8074 15.2458V13.392C11.8074 12.5143 10.844 11.8562 9.81168 12.0282L8.03435 12.3249C6.99158 12.4986 6.246 13.2587 6.246 14.1427V22.661C6.246 22.7839 6.19717 22.9018 6.11026 22.9887C6.02335 23.0756 5.90547 23.1244 5.78255 23.1244C5.65964 23.1244 5.54176 23.0756 5.45484 22.9887C5.36793 22.9018 5.3191 22.7839 5.3191 22.661V18.2582L3.7341 19.1272C3.37478 19.3068 3.07259 19.583 2.8614 19.9248C2.65021 20.2665 2.53836 20.6603 2.53839 21.0621V25.3183C2.53835 25.6022 2.59425 25.8834 2.70289 26.1457C2.81154 26.408 2.9708 26.6464 3.17158 26.8471L4.9634 28.6389C6.18006 29.8558 7.83025 30.5395 9.55099 30.5397H22.0062C23.7266 30.5389 25.3761 29.855 26.5923 28.6382C27.8085 27.4215 28.4917 25.7716 28.4917 24.0513L28.4876 19.25Z" fill="black"/>
</g>
<defs>
<clipPath id="clip0_201_5131">
<rect width="29.6609" height="29.6609" fill="white" transform="translate(0.684814 0.878662)"/>
</clipPath>
</defs>
</svg>
