<svg width="38" height="31" viewBox="0 0 38 31" fill="none" xmlns="http://www.w3.org/2000/svg">
<g clip-path="url(#clip0_201_5111)">
<path d="M6.49171 10.764H6.49692L9.36743 9.56767C9.42931 9.53232 9.48128 9.48194 9.51854 9.42119C9.5558 9.36043 9.57715 9.29127 9.58061 9.22009C9.57731 9.14886 9.55603 9.07964 9.51875 9.01886C9.48147 8.95808 9.42941 8.90773 9.36743 8.8725L6.49577 7.67505H6.49171L5.29485 4.79934C5.26284 4.73516 5.21358 4.68117 5.15259 4.64343C5.0916 4.60569 5.0213 4.5857 4.94958 4.5857C4.87785 4.5857 4.80755 4.60569 4.74656 4.64343C4.68558 4.68117 4.63631 4.73516 4.6043 4.79934L3.40512 7.67448H3.40223L0.52709 8.87308C0.464887 8.90816 0.412598 8.95845 0.375112 9.01924C0.337626 9.08003 0.316168 9.14933 0.312744 9.22066C0.316208 9.29185 0.337557 9.36101 0.374818 9.42177C0.412079 9.48252 0.464051 9.5329 0.525932 9.56825L3.39875 10.7616H3.40281L4.59967 13.6385C4.63152 13.7029 4.68073 13.7571 4.74174 13.7949C4.80275 13.8328 4.87313 13.8529 4.94494 13.8529C5.01675 13.8529 5.08713 13.8328 5.14814 13.7949C5.20915 13.7571 5.25836 13.7029 5.29021 13.6385L6.48881 10.764H6.49171ZM27.6205 27.9563L27.5625 27.9319L27.5046 27.903C27.133 27.7167 26.8206 27.4307 26.6022 27.0771C26.3839 26.7234 26.2683 26.3159 26.2683 25.9003C26.2683 25.4846 26.3839 25.0772 26.6022 24.7235C26.8206 24.3698 27.133 24.0839 27.5046 23.8976L27.5625 23.8692L27.6205 23.8443L29.7923 22.9388L30.6978 20.7676L30.7215 20.7096L30.7488 20.6546C30.9718 20.2062 31.3617 19.865 31.8118 19.6501C31.8118 19.573 31.8263 19.4942 31.8274 19.4183V9.22066C31.8274 8.72901 31.6321 8.25748 31.2845 7.90983C30.9368 7.56217 30.4653 7.36686 29.9736 7.36686C29.482 7.36686 29.0105 7.56217 28.6628 7.90983C28.3151 8.25748 28.1198 8.72901 28.1198 9.22066V13.3917C28.1198 13.5146 28.071 13.6325 27.9841 13.7194C27.8972 13.8064 27.7793 13.8552 27.6564 13.8552H26.7295C26.6066 13.8552 26.4887 13.8064 26.4018 13.7194C26.3148 13.6325 26.266 13.5146 26.266 13.3917V4.58615C26.266 4.09449 26.0707 3.62297 25.7231 3.27531C25.3754 2.92766 24.9039 2.73235 24.4122 2.73235C23.9206 2.73235 23.449 2.92766 23.1014 3.27531C22.7537 3.62297 22.5584 4.09449 22.5584 4.58615V13.3917C22.5584 13.5146 22.5096 13.6325 22.4227 13.7194C22.3358 13.8064 22.2179 13.8552 22.095 13.8552H21.1681C21.0451 13.8552 20.9273 13.8064 20.8403 13.7194C20.7534 13.6325 20.7046 13.5146 20.7046 13.3917V2.73235C20.7046 2.24069 20.5093 1.76916 20.1616 1.42151C19.814 1.07385 19.3425 0.87854 18.8508 0.87854C18.3591 0.87854 17.8876 1.07385 17.54 1.42151C17.1923 1.76916 16.997 2.24069 16.997 2.73235V13.3917C16.997 13.5146 16.9482 13.6325 16.8613 13.7194C16.7743 13.8064 16.6565 13.8552 16.5335 13.8552H15.6066C15.4837 13.8552 15.3658 13.8064 15.2789 13.7194C15.192 13.6325 15.1432 13.5146 15.1432 13.3917V4.58615C15.1432 4.09449 14.9479 3.62297 14.6002 3.27531C14.2526 2.92766 13.781 2.73235 13.2894 2.73235C12.7977 2.73235 12.3262 2.92766 11.9785 3.27531C11.6309 3.62297 11.4356 4.09449 11.4356 4.58615V18.5476L10.069 16.6654C9.70722 16.1683 9.16281 15.8353 8.55549 15.7396C7.94818 15.6438 7.32772 15.7933 6.83061 16.1551C6.33349 16.5168 6.00045 17.0612 5.90473 17.6685C5.80902 18.2758 5.95848 18.8963 6.32023 19.3934L13.5964 29.393C13.8543 29.7474 14.1922 30.036 14.5827 30.2353C14.9732 30.4345 15.4052 30.5387 15.8436 30.5394H27.2914C28.406 30.5394 29.3567 29.8599 29.7964 28.8716L29.7923 28.8617L27.6205 27.9563ZM20.5766 20.5474L18.8508 21.2663L18.1313 22.9915C18.112 23.03 18.0824 23.0622 18.0459 23.0848C18.0093 23.1074 17.9672 23.1193 17.9242 23.1193C17.8812 23.1193 17.8391 23.1074 17.8025 23.0848C17.7659 23.0622 17.7364 23.03 17.7171 22.9915L16.997 21.2663L15.2712 20.5474C15.2327 20.5282 15.2002 20.4986 15.1775 20.462C15.1549 20.4253 15.1429 20.3831 15.1429 20.34C15.1429 20.2969 15.1549 20.2547 15.1775 20.2181C15.2002 20.1814 15.2327 20.1518 15.2712 20.1326L16.997 19.4131L17.7165 17.6879C17.7358 17.6495 17.7654 17.6172 17.8019 17.5947C17.8385 17.5721 17.8806 17.5601 17.9236 17.5601C17.9666 17.5601 18.0087 17.5721 18.0453 17.5947C18.0819 17.6172 18.1114 17.6495 18.1307 17.6879L18.8508 19.4131L20.5766 20.1326C20.6151 20.1518 20.6476 20.1814 20.6702 20.2181C20.6929 20.2547 20.7049 20.2969 20.7049 20.34C20.7049 20.3831 20.6929 20.4253 20.6702 20.462C20.6476 20.4986 20.6151 20.5282 20.5766 20.5474ZM37.3889 25.8997C37.3856 25.8285 37.3643 25.7592 37.3271 25.6984C37.2898 25.6376 37.2377 25.5873 37.1757 25.5521L34.304 24.3547H34.2999L33.1019 21.4807C33.0699 21.4165 33.0207 21.3625 32.9597 21.3248C32.8987 21.287 32.8284 21.2671 32.7567 21.2671C32.6849 21.2671 32.6146 21.287 32.5536 21.3248C32.4927 21.3625 32.4434 21.4165 32.4114 21.4807L31.2122 24.3558H31.2093L28.3342 25.5573C28.2722 25.5925 28.2201 25.6429 28.1828 25.7036C28.1455 25.7644 28.1242 25.8337 28.121 25.9049C28.1248 25.9756 28.1463 26.0443 28.1835 26.1045C28.2208 26.1647 28.2726 26.2146 28.3342 26.2496L31.2058 27.447H31.2099L32.4068 30.3199C32.4386 30.3842 32.4878 30.4384 32.5488 30.4763C32.6098 30.5142 32.6802 30.5342 32.752 30.5342C32.8238 30.5342 32.8942 30.5142 32.9552 30.4763C33.0162 30.4384 33.0654 30.3842 33.0973 30.3199L34.2959 27.4453H34.3011L37.1716 26.2484C37.2332 26.2135 37.285 26.1636 37.3223 26.1033C37.3595 26.0431 37.381 25.9745 37.3848 25.9038L37.3889 25.8997Z" fill="black"/>
</g>
<defs>
<clipPath id="clip0_201_5111">
<rect width="37.0761" height="29.6609" fill="white" transform="translate(0.313843 0.878662)"/>
</clipPath>
</defs>
</svg>
