<svg width="38" height="30" viewBox="0 0 38 30" fill="none" xmlns="http://www.w3.org/2000/svg">
<g clip-path="url(#clip0_201_5097)">
<path d="M26.0927 3.92548H21.1164C20.653 3.92548 20.2069 4.09927 19.8651 4.4121L14.1704 9.62593C14.1647 9.63172 14.1589 9.64331 14.1531 9.6491C13.1914 10.5528 13.2088 11.9953 14.0314 12.8933C14.7671 13.6985 16.3139 13.9129 17.2814 13.0497C17.2872 13.0439 17.2987 13.0439 17.3045 13.0381L21.9333 8.79751C22.3098 8.45571 22.9007 8.47889 23.2425 8.85544C23.5901 9.23199 23.5611 9.8171 23.1846 10.1647L21.6726 11.5493L30.1074 18.3967C30.2754 18.5358 30.426 18.6864 30.565 18.8428V7.63309L27.402 4.47003C27.0602 4.12244 26.5851 3.92548 26.0927 3.92548ZM32.4246 7.64467V20.6155C32.4246 21.6409 33.2531 22.4693 34.2784 22.4693H37.9861V7.64467H32.4246ZM35.2053 20.6155C34.6955 20.6155 34.2784 20.1984 34.2784 19.6886C34.2784 19.1788 34.6955 18.7617 35.2053 18.7617C35.7151 18.7617 36.1322 19.1788 36.1322 19.6886C36.1322 20.1984 35.7151 20.6155 35.2053 20.6155ZM0.909943 22.4635H4.61755C5.64294 22.4635 6.47136 21.6351 6.47136 20.6097V7.64467H0.909943V22.4635ZM3.69065 18.7617C4.20045 18.7617 4.61755 19.1788 4.61755 19.6886C4.61755 20.1984 4.20045 20.6155 3.69065 20.6155C3.18085 20.6155 2.76375 20.1984 2.76375 19.6886C2.76375 19.173 3.18085 18.7617 3.69065 18.7617ZM28.943 19.8392L20.2938 12.8179L18.5559 14.4111C16.8353 15.981 14.1994 15.8304 12.6642 14.1562C11.1059 12.453 11.2275 9.8171 12.9191 8.26454L17.6579 3.92548H12.8033C12.3108 3.92548 11.8416 4.12244 11.494 4.47003L8.32516 7.63309V20.6039H9.38531L14.6281 25.3485C16.2154 26.6404 18.5501 26.3971 19.8419 24.8098L19.8535 24.7982L20.8905 25.6961C21.8116 26.4492 23.173 26.3044 23.9203 25.3833L25.7394 23.1471L26.0522 23.402C26.8458 24.0451 28.0161 23.9292 28.6591 23.1297L29.2094 22.4519C29.8583 21.6525 29.7366 20.4881 28.943 19.8392Z" fill="black"/>
</g>
<defs>
<clipPath id="clip0_201_5097">
<rect width="37.0761" height="29.6609" fill="white" transform="translate(0.909912 0.217773)"/>
</clipPath>
</defs>
</svg>
