<svg width="38" height="30" viewBox="0 0 38 30" fill="none" xmlns="http://www.w3.org/2000/svg">
<g clip-path="url(#clip0_201_5095)">
<path d="M13.4437 9.48674C13.1877 9.48674 12.9803 9.69413 12.9803 9.95019V16.902H14.8341V9.95019C14.8341 9.69413 14.6267 9.48674 14.3706 9.48674H13.4437ZM9.73611 9.48674C9.48005 9.48674 9.27266 9.69413 9.27266 9.95019V16.902H11.1265V9.95019C11.1265 9.69413 10.9191 9.48674 10.663 9.48674H9.73611ZM22.7127 9.48674C22.4567 9.48674 22.2493 9.69413 22.2493 9.95019V16.902H24.1031V9.95019C24.1031 9.69413 23.8957 9.48674 23.6397 9.48674H22.7127ZM26.4204 9.48674C26.1643 9.48674 25.9569 9.69413 25.9569 9.95019V16.902H27.8107V9.95019C27.8107 9.69413 27.6033 9.48674 27.3473 9.48674H26.4204ZM31.5183 9.95019C31.5183 9.69413 31.3109 9.48674 31.0549 9.48674H30.128C29.8719 9.48674 29.6645 9.69413 29.6645 9.95019V16.902H31.5183V9.95019ZM6.0285 9.48674C5.77244 9.48674 5.56505 9.69413 5.56505 9.95019V16.902H7.41885V9.95019C7.41885 9.69413 7.21146 9.48674 6.9554 9.48674H6.0285ZM36.1528 9.48674H34.299C33.7869 9.48674 33.3721 9.90153 33.3721 10.4136V16.902C33.3721 17.9256 32.542 18.7558 31.5183 18.7558H20.3955V7.63293C20.3955 7.12082 19.9807 6.70603 19.4686 6.70603H17.6148C17.1027 6.70603 16.6879 7.12082 16.6879 7.63293V18.7558H5.56505C4.5414 18.7558 3.71124 17.9256 3.71124 16.902V10.4136C3.71124 9.90153 3.29645 9.48674 2.78434 9.48674H0.930534C0.418421 9.48674 0.00363159 9.90153 0.00363159 10.4136V16.902C0.00363159 19.9735 2.49352 22.4634 5.56505 22.4634H16.6879V26.171H6.49195C5.97984 26.171 5.56505 26.5858 5.56505 27.0979V28.9517C5.56505 29.4638 5.97984 29.8786 6.49195 29.8786H30.5914C31.1035 29.8786 31.5183 29.4638 31.5183 28.9517V27.0979C31.5183 26.5858 31.1035 26.171 30.5914 26.171H20.3955V22.4634H31.5183C34.5899 22.4634 37.0797 19.9735 37.0797 16.902V10.4136C37.0797 9.90153 36.665 9.48674 36.1528 9.48674ZM35.2259 7.63293C35.9935 7.63293 36.6163 6.94123 36.6163 6.0879C36.6163 5.23457 35.2259 2.99842 35.2259 2.99842C35.2259 2.99842 33.8356 5.23515 33.8356 6.0879C33.8356 6.94065 34.4583 7.63293 35.2259 7.63293ZM1.85744 7.63293C2.62503 7.63293 3.24779 6.94123 3.24779 6.0879C3.24779 5.23457 1.85744 2.99842 1.85744 2.99842C1.85744 2.99842 0.467083 5.23515 0.467083 6.0879C0.467083 6.94065 1.08985 7.63293 1.85744 7.63293ZM18.5417 4.85223C19.3093 4.85223 19.932 4.16053 19.932 3.3072C19.932 2.45387 18.5417 0.217712 18.5417 0.217712C18.5417 0.217712 17.1513 2.45444 17.1513 3.3072C17.1513 4.15995 17.7741 4.85223 18.5417 4.85223ZM6.49195 7.63293C7.25954 7.63293 7.88231 6.94123 7.88231 6.0879C7.88231 5.23457 6.49195 2.99842 6.49195 2.99842C6.49195 2.99842 5.1016 5.23515 5.1016 6.0879C5.1016 6.94065 5.72436 7.63293 6.49195 7.63293ZM10.1996 7.63293C10.9672 7.63293 11.5899 6.94123 11.5899 6.0879C11.5899 5.23457 10.1996 2.99842 10.1996 2.99842C10.1996 2.99842 8.80921 5.23515 8.80921 6.0879C8.80921 6.94065 9.43197 7.63293 10.1996 7.63293ZM13.9072 7.63293C14.6748 7.63293 15.2975 6.94123 15.2975 6.0879C15.2975 5.23457 13.9072 2.99842 13.9072 2.99842C13.9072 2.99842 12.5168 5.23515 12.5168 6.0879C12.5168 6.94065 13.1396 7.63293 13.9072 7.63293ZM23.1762 7.63293C23.9438 7.63293 24.5666 6.94123 24.5666 6.0879C24.5666 5.23457 23.1762 2.99842 23.1762 2.99842C23.1762 2.99842 21.7858 5.23515 21.7858 6.0879C21.7858 6.94065 22.4086 7.63293 23.1762 7.63293ZM26.8838 7.63293C27.6514 7.63293 28.2742 6.94123 28.2742 6.0879C28.2742 5.23457 26.8838 2.99842 26.8838 2.99842C26.8838 2.99842 25.4935 5.23515 25.4935 6.0879C25.4935 6.94065 26.1162 7.63293 26.8838 7.63293ZM30.5914 7.63293C31.359 7.63293 31.9818 6.94123 31.9818 6.0879C31.9818 5.23457 30.5914 2.99842 30.5914 2.99842C30.5914 2.99842 29.2011 5.23515 29.2011 6.0879C29.2011 6.94065 29.8238 7.63293 30.5914 7.63293Z" fill="black"/>
</g>
<defs>
<clipPath id="clip0_201_5095">
<rect width="37.0761" height="29.6609" fill="white" transform="translate(0.00378418 0.217773)"/>
</clipPath>
</defs>
</svg>
