<svg width="31" height="30" viewBox="0 0 31 30" fill="none" xmlns="http://www.w3.org/2000/svg">
<g clip-path="url(#clip0_201_5093)">
<path d="M28.32 16.9021C28.32 12.2531 25.4652 8.27491 21.4152 6.61227L19.051 11.3406V4.85232C19.051 4.60649 18.9533 4.37073 18.7795 4.1969C18.6057 4.02307 18.3699 3.92542 18.1241 3.92542H12.5627C12.3168 3.92542 12.0811 4.02307 11.9073 4.1969C11.7334 4.37073 11.6358 4.60649 11.6358 4.85232V11.3406L9.27159 6.61227C5.22161 8.27491 2.36674 12.2531 2.36674 16.9021V20.6097H28.32V16.9021ZM29.2469 22.4635H1.43984C1.19401 22.4635 0.958251 22.5611 0.784423 22.735C0.610595 22.9088 0.512939 23.1445 0.512939 23.3904L0.512939 25.2442C0.512939 25.49 0.610595 25.7258 0.784423 25.8996C0.958251 26.0734 1.19401 26.1711 1.43984 26.1711H29.2469C29.4928 26.1711 29.7285 26.0734 29.9023 25.8996C30.0762 25.7258 30.1738 25.49 30.1738 25.2442V23.3904C30.1738 23.1445 30.0762 22.9088 29.9023 22.735C29.7285 22.5611 29.4928 22.4635 29.2469 22.4635Z" fill="black"/>
</g>
<defs>
<clipPath id="clip0_201_5093">
<rect width="29.6609" height="29.6609" fill="white" transform="translate(0.512939 0.217773)"/>
</clipPath>
</defs>
</svg>
