<svg width="38" height="30" viewBox="0 0 38 30" fill="none" xmlns="http://www.w3.org/2000/svg">
<g clip-path="url(#clip0_201_5089)">
<path d="M15.9321 17.079C14.2736 15.7501 12.3404 15.0479 10.3475 15.0479C5.86365 15.0479 2.06741 18.6814 0.906463 24.0887C0.700806 25.0504 0.881552 26.0485 1.40294 26.8289C1.90984 27.5884 2.66758 28.0246 3.48151 28.0246H35.119C29.1399 28.0246 26.1397 25.8771 21.61 21.9731L15.9321 17.079ZM29.5257 16.0194L27.9587 6.94912C27.8744 6.45694 27.6915 5.98687 27.421 5.5671C27.1505 5.14734 26.7981 4.78654 26.3847 4.50634C25.9714 4.22615 25.5057 4.03234 25.0156 3.93654C24.5255 3.84074 24.0212 3.84493 23.5327 3.94886L12.4591 6.30029C11.6943 6.46261 11.0003 6.86261 10.4764 7.44308C9.95252 8.02356 9.62557 8.75481 9.5423 9.53229L9.14315 13.31C9.54288 13.2619 9.93681 13.1941 10.3475 13.1941C12.7685 13.1941 15.0979 14.037 17.1423 15.6748L22.8196 20.5688C26.9368 24.1165 29.4939 26.1708 35.119 26.1708C35.8565 26.1708 36.5638 25.8778 37.0853 25.3563C37.6068 24.8348 37.8997 24.1276 37.8997 23.3901C37.8997 21.9192 36.185 16.4771 29.5257 16.0194Z" fill="black"/>
</g>
<defs>
<clipPath id="clip0_201_5089">
<rect width="37.0761" height="29.6609" fill="white" transform="translate(0.823486 0.217773)"/>
</clipPath>
</defs>
</svg>
