<svg width="38" height="30" viewBox="0 0 38 30" fill="none" xmlns="http://www.w3.org/2000/svg">
<g clip-path="url(#clip0_201_5087)">
<path d="M29.3042 17.4174C28.7544 14.0927 27.0164 3.92517 23.6443 3.92517C22.8332 3.92517 22.1097 4.2687 21.5008 4.73621C20.9133 5.18404 20.1951 5.42659 19.4564 5.42659C18.7177 5.42659 17.9995 5.18404 17.412 4.73621C16.8031 4.27276 16.0796 3.92517 15.2685 3.92517C11.8969 3.92517 10.159 14.0904 9.60805 17.4162C11.8558 18.1456 15.0374 18.7556 19.4558 18.7556C23.8742 18.7556 27.0582 18.1468 29.3042 17.4174ZM37.5826 15.2635C37.4098 15.1474 37.203 15.0929 36.9954 15.1086C36.7879 15.1244 36.5917 15.2096 36.4384 15.3504C36.3805 15.4025 30.5717 20.6094 19.4552 20.6094C8.40076 20.6094 2.52652 15.3991 2.46743 15.3469C2.31376 15.2082 2.11806 15.1248 1.91152 15.1103C1.70499 15.0957 1.49952 15.1507 1.32787 15.2664C1.15622 15.3822 1.02828 15.5521 0.964455 15.7491C0.900626 15.9461 0.904583 16.1587 0.975693 16.3532C1.01798 16.4702 5.45495 28.0246 19.4558 28.0246C33.4567 28.0246 37.8937 16.4702 37.9359 16.3532C38.0077 16.1583 38.012 15.9449 37.948 15.7473C37.884 15.5497 37.7555 15.3794 37.5831 15.2635H37.5826Z" fill="black"/>
</g>
<defs>
<clipPath id="clip0_201_5087">
<rect width="37.0761" height="29.6609" fill="white" transform="translate(0.917358 0.217773)"/>
</clipPath>
</defs>
</svg>
