<svg width="31" height="30" viewBox="0 0 31 30" fill="none" xmlns="http://www.w3.org/2000/svg">
<g clip-path="url(#clip0_201_5085)">
<path d="M29.1606 26.1709H1.35348C0.841364 26.1709 0.426575 26.5857 0.426575 27.0978V28.9516C0.426575 29.4637 0.841364 29.8785 1.35348 29.8785H29.1606C29.6727 29.8785 30.0875 29.4637 30.0875 28.9516V27.0978C30.0875 26.5857 29.6727 26.1709 29.1606 26.1709ZM11.5494 22.4633L7.8418 20.6095L11.5494 18.7556L13.4032 15.048L15.257 18.7556L18.9646 20.6095L15.257 22.4633L14.3301 24.3171H26.3799L21.374 12.6363C21.0161 11.8018 20.9771 10.8648 21.2645 10.0034L24.526 0.21759L13.6593 6.42726C12.2884 7.2106 11.2034 8.41108 10.5623 9.8539L4.13419 24.3171H12.4763L11.5494 22.4633ZM15.257 9.48662L16.1839 7.63281L17.1108 9.48662L18.9646 10.4135L17.1108 11.3404L16.1839 13.1942L15.257 11.3404L13.4032 10.4135L15.257 9.48662Z" fill="black"/>
</g>
<defs>
<clipPath id="clip0_201_5085">
<rect width="29.6609" height="29.6609" fill="white" transform="translate(0.426514 0.217773)"/>
</clipPath>
</defs>
</svg>
