<svg width="34" height="30" viewBox="0 0 34 30" fill="none" xmlns="http://www.w3.org/2000/svg">
<g clip-path="url(#clip0_201_5083)">
<path d="M33.5965 17.8287V23.3901C33.5965 24.9259 32.3516 26.1708 30.8158 26.1708H3.00874C1.47297 26.1708 0.228027 24.9259 0.228027 23.3901V17.8287C0.228027 16.293 1.47297 15.048 3.00874 15.048H30.8158C32.3516 15.048 33.5965 16.293 33.5965 17.8287ZM30.8158 13.1942C31.428 13.1937 32.0341 13.3151 32.5988 13.5513L27.0068 5.1634C26.7529 4.78251 26.4088 4.47021 26.0052 4.2542C25.6016 4.0382 25.1509 3.92518 24.6931 3.92517H9.13145C8.67367 3.92517 8.22298 4.03819 7.81937 4.25419C7.41576 4.4702 7.07172 4.78251 6.81778 5.1634L1.22578 13.5513C1.79048 13.3151 2.3966 13.1937 3.00874 13.1942H30.8158ZM28.0351 18.7556C27.0113 18.7556 26.1813 19.5856 26.1813 20.6094C26.1813 21.6332 27.0113 22.4632 28.0351 22.4632C29.0589 22.4632 29.8889 21.6332 29.8889 20.6094C29.8889 19.5856 29.0589 18.7556 28.0351 18.7556ZM22.4737 18.7556C21.4499 18.7556 20.6199 19.5856 20.6199 20.6094C20.6199 21.6332 21.4499 22.4632 22.4737 22.4632C23.4975 22.4632 24.3275 21.6332 24.3275 20.6094C24.3275 19.5856 23.4975 18.7556 22.4737 18.7556Z" fill="black"/>
</g>
<defs>
<clipPath id="clip0_201_5083">
<rect width="33.3685" height="29.6609" fill="white" transform="translate(0.228027 0.217773)"/>
</clipPath>
</defs>
</svg>
