<svg width="31" height="30" viewBox="0 0 31 30" fill="none" xmlns="http://www.w3.org/2000/svg">
<path d="M26.8953 5.77902V24.3171H28.7491C28.9949 24.3171 29.2307 24.4147 29.4045 24.5886C29.5783 24.7624 29.676 24.9981 29.676 25.244V27.0978C29.676 27.3436 29.5783 27.5794 29.4045 27.7532C29.2307 27.927 28.9949 28.0247 28.7491 28.0247H19.48C19.2342 28.0247 18.9985 27.927 18.8246 27.7532C18.6508 27.5794 18.5531 27.3436 18.5531 27.0978V25.244C18.5531 24.9981 18.6508 24.7624 18.8246 24.5886C18.9985 24.4147 19.2342 24.3171 19.48 24.3171H21.3339V16.9019H10.211V24.3171H12.0648C12.3107 24.3171 12.5464 24.4147 12.7202 24.5886C12.8941 24.7624 12.9917 24.9981 12.9917 25.244V27.0978C12.9917 27.3436 12.8941 27.5794 12.7202 27.7532C12.5464 27.927 12.3107 28.0247 12.0648 28.0247H2.7958C2.54997 28.0247 2.31421 27.927 2.14038 27.7532C1.96655 27.5794 1.8689 27.3436 1.8689 27.0978V25.244C1.8689 24.9981 1.96655 24.7624 2.14038 24.5886C2.31421 24.4147 2.54997 24.3171 2.7958 24.3171H4.6496V5.77902H2.7958C2.54997 5.77902 2.31421 5.68137 2.14038 5.50754C1.96655 5.33371 1.8689 5.09795 1.8689 4.85212V2.99831C1.8689 2.75248 1.96655 2.51672 2.14038 2.34289C2.31421 2.16907 2.54997 2.07141 2.7958 2.07141H12.0648C12.3107 2.07141 12.5464 2.16907 12.7202 2.34289C12.8941 2.51672 12.9917 2.75248 12.9917 2.99831V4.85212C12.9917 5.09795 12.8941 5.33371 12.7202 5.50754C12.5464 5.68137 12.3107 5.77902 12.0648 5.77902H10.211V13.1942H21.3339V5.77902H19.48C19.2342 5.77902 18.9985 5.68137 18.8246 5.50754C18.6508 5.33371 18.5531 5.09795 18.5531 4.85212V2.99831C18.5531 2.75248 18.6508 2.51672 18.8246 2.34289C18.9985 2.16907 19.2342 2.07141 19.48 2.07141H28.7491C28.9949 2.07141 29.2307 2.16907 29.4045 2.34289C29.5783 2.51672 29.676 2.75248 29.676 2.99831V4.85212C29.676 5.09795 29.5783 5.33371 29.4045 5.50754C29.2307 5.68137 28.9949 5.77902 28.7491 5.77902H26.8953Z" fill="black"/>
</svg>
