<svg width="31" height="30" viewBox="0 0 31 30" fill="none" xmlns="http://www.w3.org/2000/svg">
<g clip-path="url(#clip0_201_5077)">
<path d="M0.933485 10.9013C0.799084 14.365 2.25722 17.4846 4.63241 19.6177V29.8785H13.9014V18.5535L1.1374 9.26937C1.02711 9.80722 0.95893 10.3529 0.933485 10.9013ZM30.4246 16.1487C29.2081 13.419 27.615 7.35764 26.1887 5.33004C25.0766 3.75155 23.6016 2.46326 21.8879 1.57359C20.1742 0.683908 18.2718 0.218866 16.3409 0.21759L12.5111 0.21759C7.70277 0.21759 3.38572 3.14718 1.69239 7.38081L14.7826 16.9018H30.5718C30.5769 16.6432 30.5268 16.3864 30.4246 16.1487ZM19.4629 13.1942C19.0962 13.1942 18.7378 13.0855 18.4329 12.8818C18.1281 12.6781 17.8905 12.3886 17.7502 12.0498C17.6098 11.7111 17.5731 11.3384 17.6447 10.9788C17.7162 10.6192 17.8928 10.2888 18.152 10.0296C18.4113 9.77033 18.7416 9.59377 19.1012 9.52224C19.4608 9.45071 19.8335 9.48742 20.1723 9.62773C20.511 9.76804 20.8005 10.0056 21.0042 10.3105C21.2079 10.6154 21.3167 10.9738 21.3167 11.3404C21.3156 11.8318 21.1199 12.3027 20.7725 12.6501C20.4251 12.9975 19.9542 13.1932 19.4629 13.1942ZM20.3898 21.5364H29.6588L30.5857 18.7556H15.7552V29.8785H24.2063C24.9844 29.8784 25.7427 29.6336 26.3739 29.1786C27.0051 28.7236 27.4772 28.0816 27.7233 27.3434L27.805 27.0978H20.3898C20.1439 27.0978 19.9082 27.0001 19.7343 26.8263C19.5605 26.6525 19.4629 26.4167 19.4629 26.1709C19.4629 25.925 19.5605 25.6893 19.7343 25.5154C19.9082 25.3416 20.1439 25.244 20.3898 25.244H28.4231L29.0412 23.3902H20.3898C20.1439 23.3902 19.9082 23.2925 19.7343 23.1187C19.5605 22.9448 19.4629 22.7091 19.4629 22.4633C19.4629 22.2174 19.5605 21.9817 19.7343 21.8078C19.9082 21.634 20.1439 21.5364 20.3898 21.5364Z" fill="black"/>
</g>
<defs>
<clipPath id="clip0_201_5077">
<rect width="29.6609" height="29.6609" fill="white" transform="translate(0.924805 0.217773)"/>
</clipPath>
</defs>
</svg>
