<svg width="38" height="30" viewBox="0 0 38 30" fill="none" xmlns="http://www.w3.org/2000/svg">
<g clip-path="url(#clip0_201_5079)">
<path d="M36.1015 17.8289C36.3765 17.8289 36.6453 17.7473 36.8739 17.5945C37.1026 17.4418 37.2808 17.2246 37.386 16.9706C37.4912 16.7165 37.5188 16.437 37.4651 16.1673C37.4115 15.8976 37.279 15.6498 37.0846 15.4554C36.8902 15.2609 36.6424 15.1285 36.3727 15.0749C36.103 15.0212 35.8235 15.0488 35.5694 15.154C35.3153 15.2592 35.0982 15.4374 34.9454 15.6661C34.7927 15.8947 34.7111 16.1635 34.7111 16.4385C34.7111 16.8073 34.8576 17.1609 35.1183 17.4216C35.3791 17.6824 35.7327 17.8289 36.1015 17.8289ZM32.3939 24.3172C32.1189 24.3172 31.8501 24.3987 31.6214 24.5515C31.3928 24.7043 31.2146 24.9214 31.1093 25.1755C31.0041 25.4295 30.9766 25.7091 31.0302 25.9788C31.0839 26.2485 31.2163 26.4962 31.4107 26.6907C31.6052 26.8851 31.8529 27.0175 32.1226 27.0712C32.3923 27.1248 32.6719 27.0973 32.9259 26.9921C33.18 26.8868 33.3971 26.7086 33.5499 26.48C33.7027 26.2513 33.7842 25.9825 33.7842 25.7075C33.7842 25.3388 33.6377 24.9852 33.377 24.7244C33.1162 24.4637 32.7626 24.3172 32.3939 24.3172ZM28.6862 21.073C28.4113 21.073 28.1424 21.1546 27.9138 21.3073C27.6852 21.4601 27.507 21.6773 27.4017 21.9313C27.2965 22.1854 27.269 22.4649 27.3226 22.7346C27.3763 23.0043 27.5087 23.2521 27.7031 23.4465C27.8976 23.641 28.1453 23.7734 28.415 23.827C28.6847 23.8807 28.9643 23.8531 29.2183 23.7479C29.4724 23.6427 29.6895 23.4645 29.8423 23.2358C29.9951 23.0072 30.0766 22.7384 30.0766 22.4634C30.0766 22.0946 29.9301 21.741 29.6694 21.4803C29.4086 21.2195 29.055 21.073 28.6862 21.073ZM36.1015 27.0979C35.8265 27.0979 35.5577 27.1794 35.329 27.3322C35.1004 27.485 34.9222 27.7021 34.8169 27.9562C34.7117 28.2102 34.6842 28.4898 34.7378 28.7595C34.7915 29.0292 34.9239 29.2769 35.1183 29.4714C35.3128 29.6658 35.5605 29.7982 35.8302 29.8519C36.0999 29.9055 36.3795 29.878 36.6335 29.7728C36.8876 29.6675 37.1047 29.4893 37.2575 29.2607C37.4103 29.032 37.4918 28.7632 37.4918 28.4882C37.4918 28.1195 37.3453 27.7659 37.0846 27.5051C36.8239 27.2444 36.4702 27.0979 36.1015 27.0979ZM36.1015 21.073C35.8265 21.073 35.5577 21.1546 35.329 21.3073C35.1004 21.4601 34.9222 21.6773 34.8169 21.9313C34.7117 22.1854 34.6842 22.4649 34.7378 22.7346C34.7915 23.0043 34.9239 23.2521 35.1183 23.4465C35.3128 23.641 35.5605 23.7734 35.8302 23.827C36.0999 23.8807 36.3795 23.8531 36.6335 23.7479C36.8876 23.6427 37.1047 23.4645 37.2575 23.2358C37.4103 23.0072 37.4918 22.7384 37.4918 22.4634C37.4918 22.0946 37.3453 21.741 37.0846 21.4803C36.8239 21.2195 36.4702 21.073 36.1015 21.073ZM32.3939 18.7558C32.1189 18.7558 31.8501 18.8373 31.6214 18.9901C31.3928 19.1429 31.2146 19.36 31.1093 19.6141C31.0041 19.8681 30.9766 20.1477 31.0302 20.4174C31.0839 20.6871 31.2163 20.9348 31.4107 21.1292C31.6052 21.3237 31.8529 21.4561 32.1226 21.5098C32.3923 21.5634 32.6719 21.5359 32.9259 21.4306C33.18 21.3254 33.3971 21.1472 33.5499 20.9186C33.7027 20.6899 33.7842 20.4211 33.7842 20.1461C33.7842 19.7774 33.6377 19.4237 33.377 19.163C33.1162 18.9023 32.7626 18.7558 32.3939 18.7558ZM28.0617 16.1489C26.8452 13.4191 25.2521 7.35776 23.8258 5.33016C22.7136 3.75166 21.2385 2.46338 19.5247 1.5737C17.8109 0.684031 15.9084 0.218991 13.9775 0.217712L11.5385 0.217712C5.39781 0.217712 0.41571 5.19981 0.41571 11.3405C0.41571 14.6282 1.84951 17.5751 4.12332 19.6178V29.8786H17.1V28.0248H20.8076C21.7909 28.0248 22.7339 27.6342 23.4292 26.9389C24.1246 26.2435 24.5152 25.3005 24.5152 24.3172H18.9538C18.4621 24.3172 17.9906 24.1219 17.6429 23.7742C17.2953 23.4266 17.1 22.955 17.1 22.4634C17.1 21.9717 17.2953 21.5002 17.6429 21.1525C17.9906 20.8049 18.4621 20.6096 18.9538 20.6096H24.5152V18.7558H26.369C26.6778 18.7556 26.9816 18.6782 27.2529 18.5308C27.5242 18.3834 27.7544 18.1705 27.9226 17.9115C28.0908 17.6526 28.1916 17.3557 28.2159 17.0479C28.2402 16.74 28.1872 16.431 28.0617 16.1489ZM17.1 13.1944C16.7333 13.1944 16.3749 13.0856 16.07 12.8819C15.7652 12.6782 15.5276 12.3887 15.3873 12.05C15.247 11.7112 15.2102 11.3385 15.2818 10.9789C15.3533 10.6193 15.5299 10.289 15.7891 10.0297C16.0484 9.77045 16.3787 9.59389 16.7383 9.52236C17.0979 9.45083 17.4706 9.48754 17.8094 9.62785C18.1481 9.76816 18.4376 10.0058 18.6413 10.3106C18.845 10.6155 18.9538 10.9739 18.9538 11.3405C18.9527 11.8319 18.757 12.3028 18.4096 12.6502C18.0622 12.9976 17.5913 13.1933 17.1 13.1944Z" fill="black"/>
</g>
<defs>
<clipPath id="clip0_201_5079">
<rect width="37.0761" height="29.6609" fill="white" transform="translate(0.415771 0.217773)"/>
</clipPath>
</defs>
</svg>
