<svg width="31" height="30" viewBox="0 0 31 30" fill="none" xmlns="http://www.w3.org/2000/svg">
<g clip-path="url(#clip0_201_5067)">
<path d="M11.5932 12.2673C11.5932 11.2437 10.763 10.4135 9.73936 10.4135H8.81246C6.76459 10.4135 5.10485 12.0733 5.10485 14.1211V16.9018C5.10485 18.9497 6.76459 20.6095 8.81246 20.6095H9.73936C10.763 20.6095 11.5932 19.7793 11.5932 18.7556V12.2673ZM21.7891 20.6095C23.837 20.6095 25.4967 18.9497 25.4967 16.9018V14.1211C25.4967 12.0733 23.837 10.4135 21.7891 10.4135H20.8622C19.8386 10.4135 19.0084 11.2437 19.0084 12.2673V18.7556C19.0084 19.7793 19.8386 20.6095 20.8622 20.6095H21.7891ZM15.3008 0.21759C7.02701 0.21759 0.735663 7.10158 0.470337 15.048V15.9749C0.470337 16.4871 0.885126 16.9018 1.39724 16.9018H2.32414C2.83626 16.9018 3.25105 16.4871 3.25105 15.9749V15.048C3.25105 8.40388 8.65663 2.9983 15.3008 2.9983C21.9449 2.9983 27.3505 8.40388 27.3505 15.048H27.3436C27.3482 15.1888 27.3505 24.6484 27.3505 24.6484C27.3505 26.0011 26.2539 27.0978 24.9012 27.0978H19.0084C19.0084 25.562 17.7634 24.3171 16.2277 24.3171H14.3739C12.8381 24.3171 11.5932 25.562 11.5932 27.0978C11.5932 28.6335 12.8381 29.8785 14.3739 29.8785H24.9012C27.7896 29.8785 30.1312 27.5369 30.1312 24.6484V15.048C29.8659 7.10158 23.5745 0.21759 15.3008 0.21759Z" fill="black"/>
</g>
<defs>
<clipPath id="clip0_201_5067">
<rect width="29.6609" height="29.6609" fill="white" transform="translate(0.470337 0.217773)"/>
</clipPath>
</defs>
</svg>
