<svg width="31" height="30" viewBox="0 0 31 30" fill="none" xmlns="http://www.w3.org/2000/svg">
<g clip-path="url(#clip0_201_5071)">
<path d="M9.72118 16.9019H8.79427C6.7464 16.9019 5.08666 18.5645 5.08666 20.6164V24.3101C5.08666 26.3615 6.7464 28.0247 8.79427 28.0247H9.72118C10.7448 28.0247 11.575 27.1928 11.575 26.1674V18.7591C11.575 17.7332 10.7448 16.9019 9.72118 16.9019ZM21.7709 16.9019H20.844C19.8204 16.9019 18.9902 17.7332 18.9902 18.7591V26.1674C18.9902 27.1928 19.8204 28.0247 20.844 28.0247H21.7709C23.8188 28.0247 25.4785 26.3615 25.4785 24.3101V20.6164C25.4785 18.5651 23.8188 16.9019 21.7709 16.9019ZM15.2826 2.07141C6.99319 2.07141 0.716895 8.97278 0.452148 16.9019V23.3902C0.452148 23.9023 0.866937 24.3171 1.37905 24.3171H2.30595C2.81807 24.3171 3.23286 23.9023 3.23286 23.3902V16.9019C3.23286 10.2589 8.6396 4.86371 15.2826 4.86255C21.9256 4.86371 27.3323 10.2589 27.3323 16.9019V23.3902C27.3323 23.9023 27.7471 24.3171 28.2592 24.3171H29.1861C29.6982 24.3171 30.113 23.9023 30.113 23.3902V16.9019C29.8483 8.97278 23.572 2.07141 15.2826 2.07141Z" fill="black"/>
</g>
<defs>
<clipPath id="clip0_201_5071">
<rect width="29.6609" height="29.6609" fill="white" transform="translate(0.452148 0.217773)"/>
</clipPath>
</defs>
</svg>
