<svg width="38" height="30" viewBox="0 0 38 30" fill="none" xmlns="http://www.w3.org/2000/svg">
<g clip-path="url(#clip0_201_5059)">
<path d="M17.7026 22.4634H33.4599C34.4835 22.4634 35.3137 21.6333 35.3137 20.6096C35.3137 13.4429 29.5038 7.633 22.3371 7.633V3.92538H32.533C33.0451 3.92538 33.4599 3.5106 33.4599 2.99848V1.14468C33.4599 0.632562 33.0451 0.217773 32.533 0.217773H8.43352C7.92141 0.217773 7.50662 0.632562 7.50662 1.14468V2.99848C7.50662 3.5106 7.92141 3.92538 8.43352 3.92538H18.6295V7.633H6.57972L4.07708 4.29615C3.90213 4.06268 3.62695 3.92538 3.33556 3.92538H1.01888C0.415815 3.92538 -0.026781 4.49195 0.119786 5.07706L1.9452 11.3406L11.2142 15.0482L16.2195 21.7219C16.3922 21.9522 16.6161 22.1391 16.8735 22.2678C17.1309 22.3965 17.4147 22.4635 17.7026 22.4634ZM24.1909 11.5439C27.8145 12.2849 30.6809 15.1316 31.4201 18.7558H24.1909V11.5439ZM36.8993 26.7973L35.6161 25.5112C35.254 25.1486 34.6753 25.1578 34.3045 25.5118C33.8938 25.904 33.5028 26.1635 32.8771 26.1635H13.9949C13.4828 26.1635 13.068 26.5795 13.068 27.0922V28.9494C13.068 29.4621 13.4828 29.8781 13.9949 29.8781H32.8771C33.7391 29.8781 34.9221 29.8509 36.8425 28.1679C37.2492 27.8123 37.2811 27.1802 36.8993 26.7973Z" fill="black"/>
</g>
<defs>
<clipPath id="clip0_201_5059">
<rect width="37.0761" height="29.6609" fill="white" transform="translate(0.0915527 0.217773)"/>
</clipPath>
</defs>
</svg>
