<svg width="33" height="30" viewBox="0 0 33 30" fill="none" xmlns="http://www.w3.org/2000/svg">
<g clip-path="url(#clip0_201_5057)">
<path d="M0.746948 28.0235L6.53546 29.8784L8.58912 27.8248L4.7054 23.941L0.746948 28.0235ZM7.96578 14.1194C7.66081 14.3885 7.43972 14.7397 7.32889 15.1311C7.21805 15.5224 7.22215 15.9374 7.3407 16.3265L8.09671 18.8077L5.14626 21.7588L10.721 27.3335L13.6674 24.3871L16.1434 25.1449C16.9388 25.3882 17.8031 25.1443 18.3535 24.5204L20.4129 22.1081L10.3711 12.0663L7.96578 14.1194ZM31.3301 4.80977L27.6688 1.1485C26.4818 -0.0385112 24.5765 -0.0981805 23.317 1.01236L11.7858 10.8584L21.6208 20.694L31.4662 9.16216C32.5774 7.90273 32.5177 5.99736 31.3301 4.80977Z" fill="black"/>
</g>
<defs>
<clipPath id="clip0_201_5057">
<rect width="31.5147" height="29.6609" fill="white" transform="translate(0.746826 0.217773)"/>
</clipPath>
</defs>
</svg>
