<svg width="30" height="30" viewBox="0 0 30 30" fill="none" xmlns="http://www.w3.org/2000/svg">
<g clip-path="url(#clip0_201_5051)">
<path d="M29.4723 15.0209C29.4869 22.9367 23.0315 29.4095 15.1157 29.415C11.6969 29.4175 8.55653 28.2257 6.08871 26.2339C5.44701 25.716 5.39904 24.7543 5.98218 24.1712L6.63489 23.5185C7.13362 23.0197 7.92983 22.9652 8.48238 23.4035C10.3006 24.8463 12.6015 25.7075 15.1053 25.7075C20.9972 25.7075 25.7647 20.9391 25.7647 15.0481C25.7647 9.15617 20.9963 4.3887 15.1053 4.3887C12.2774 4.3887 9.70902 5.4876 7.80198 7.28133L10.7422 10.2216C11.3262 10.8055 10.9126 11.8039 10.0868 11.8039H1.66518C1.15324 11.8039 0.738281 11.389 0.738281 10.877V2.45536C0.738281 1.6296 1.73667 1.21603 2.32062 1.79992L5.18081 4.66011C7.76009 2.19519 11.2558 0.681091 15.1053 0.681091C23.0309 0.681091 29.4576 7.09873 29.4723 15.0209ZM18.9918 19.585L19.5608 18.8533C20.0323 18.2472 19.9231 17.3736 19.3169 16.9022L16.9591 15.0683V9.02322C16.9591 8.25534 16.3366 7.63286 15.5687 7.63286H14.6418C13.8739 7.63286 13.2515 8.25534 13.2515 9.02322V16.8817L17.0407 19.8289C17.6468 20.3003 18.5203 20.1911 18.9918 19.585Z" fill="black"/>
</g>
<defs>
<clipPath id="clip0_201_5051">
<rect width="29.6609" height="29.6609" fill="white" transform="translate(0.27417 0.217773)"/>
</clipPath>
</defs>
</svg>
