<svg width="26" height="30" viewBox="0 0 26 30" fill="none" xmlns="http://www.w3.org/2000/svg">
<g clip-path="url(#clip0_201_5047)">
<path d="M8.34243 11.3405C9.87761 11.3405 11.1231 10.095 11.1231 8.55984C11.1231 7.02465 9.87761 5.77913 8.34243 5.77913C6.80725 5.77913 5.56172 7.02465 5.56172 8.55984C5.56172 10.095 6.80725 11.3405 8.34243 11.3405ZM14.8308 8.55984C14.8308 10.095 16.0763 11.3405 17.6115 11.3405C19.1466 11.3405 20.3922 10.095 20.3922 8.55984C20.3922 7.02465 19.1466 5.77913 17.6115 5.77913C16.0763 5.77913 14.8308 7.02465 14.8308 8.55984ZM12.9769 5.77913C14.5121 5.77913 15.7577 4.5336 15.7577 2.99842C15.7577 1.46324 14.5121 0.217712 12.9769 0.217712C11.4418 0.217712 10.1962 1.46324 10.1962 2.99842C10.1962 4.5336 11.4418 5.77913 12.9769 5.77913ZM12.0385 13.8374C12.0443 13.119 11.2796 12.673 10.6597 13.0437C8.67264 14.2197 6.52339 14.9381 4.36254 15.1408C3.80061 15.193 3.45881 15.7955 3.69054 16.3111C4.04971 17.1163 4.33358 17.9679 4.54213 18.8485C4.75068 19.729 4.23509 20.6212 3.37192 20.8819C2.50874 21.1425 1.62818 21.3221 0.747622 21.409C0.185687 21.467 -0.161901 22.0637 0.0698246 22.5792C0.938796 24.4794 1.39645 26.6055 1.40225 28.8185C1.40804 29.6527 2.28281 30.1567 3.00115 29.7454C4.92448 28.6447 6.99263 27.9785 9.07237 27.7815C9.6343 27.7293 9.9761 27.1269 9.74437 26.6113C9.3852 25.806 9.10133 24.9544 8.89278 24.0739C8.68423 23.1933 9.19982 22.3012 10.063 22.0405C10.9262 21.7798 11.8067 21.6002 12.6873 21.5133C13.2492 21.4554 13.5968 20.8587 13.3651 20.3431C12.4671 18.3618 12.0153 16.1431 12.0385 13.8374ZM25.2005 21.3974C24.3199 21.3048 23.4452 21.1252 22.5762 20.8703C21.713 20.6096 21.1974 19.7174 21.406 18.8369C21.6145 17.9563 21.8984 17.1105 22.2576 16.2995C22.4893 15.7839 22.1475 15.1814 21.5856 15.1293C19.4247 14.9265 17.2755 14.2082 15.2884 13.0321C14.6685 12.6672 13.9038 13.1132 13.9096 13.8258C13.9096 13.9185 13.8981 14.0112 13.8981 14.1097C13.9096 16.0388 14.3036 17.9158 15.0509 19.5552C15.3811 20.2736 15.3521 21.0962 15.0161 21.8088C15.3 21.8783 15.5897 21.9362 15.8735 22.0231C16.7367 22.2838 17.2523 23.1759 17.0437 24.0565C16.8352 24.9371 16.5513 25.7829 16.1921 26.5939C15.9604 27.1095 16.3022 27.712 16.8641 27.7641C18.9439 27.9611 21.012 28.6273 22.9354 29.728C23.6595 30.1393 24.5343 29.6353 24.5343 28.8011C24.5459 26.5881 24.9977 24.4562 25.8667 22.5619C26.1158 22.0579 25.7624 21.4554 25.2005 21.3974Z" fill="black"/>
</g>
<defs>
<clipPath id="clip0_201_5047">
<rect width="25.9533" height="29.6609" fill="white" transform="translate(0 0.217773)"/>
</clipPath>
</defs>
</svg>
