<svg width="35" height="31" viewBox="0 0 35 31" fill="none" xmlns="http://www.w3.org/2000/svg">
<g clip-path="url(#clip0_201_5045)">
<path d="M17.0521 9.14566L6.37124 17.9425V27.4369C6.37124 27.6828 6.4689 27.9185 6.64273 28.0924C6.81656 28.2662 7.05232 28.3638 7.29815 28.3638L13.7899 28.347C14.035 28.3458 14.2695 28.2476 14.4424 28.0739C14.6152 27.9002 14.7122 27.6652 14.7122 27.4201V21.8755C14.7122 21.6297 14.8099 21.3939 14.9837 21.2201C15.1575 21.0463 15.3933 20.9486 15.6391 20.9486H19.3467C19.5926 20.9486 19.8283 21.0463 20.0021 21.2201C20.176 21.3939 20.2736 21.6297 20.2736 21.8755V27.4161C20.2732 27.538 20.2969 27.6589 20.3433 27.7717C20.3898 27.8845 20.458 27.987 20.5441 28.0734C20.6302 28.1597 20.7325 28.2283 20.8451 28.275C20.9578 28.3218 21.0786 28.3459 21.2005 28.3459L27.69 28.3638C27.9358 28.3638 28.1716 28.2662 28.3454 28.0924C28.5193 27.9185 28.6169 27.6828 28.6169 27.4369V17.9362L17.9384 9.14566C17.8129 9.04447 17.6565 8.98929 17.4952 8.98929C17.334 8.98929 17.1776 9.04447 17.0521 9.14566ZM33.9234 15.1248L29.0804 11.1327V3.10863C29.0804 2.92426 29.0071 2.74744 28.8768 2.61706C28.7464 2.48669 28.5696 2.41345 28.3852 2.41345H25.141C24.9567 2.41345 24.7798 2.48669 24.6495 2.61706C24.5191 2.74744 24.4458 2.92426 24.4458 3.10863V7.31503L19.2592 3.0478C18.7615 2.63821 18.1369 2.41427 17.4923 2.41427C16.8477 2.41427 16.2232 2.63821 15.7254 3.0478L1.06125 15.1248C0.990857 15.1829 0.932617 15.2544 0.889859 15.3351C0.847101 15.4158 0.820663 15.5042 0.812055 15.5951C0.803447 15.686 0.812838 15.7777 0.839692 15.865C0.866546 15.9523 0.910336 16.0334 0.96856 16.1038L2.44581 17.8997C2.50388 17.9703 2.5753 18.0287 2.65599 18.0717C2.73667 18.1147 2.82504 18.1413 2.91604 18.1501C3.00703 18.1589 3.09886 18.1496 3.18627 18.1228C3.27368 18.0961 3.35495 18.0523 3.42543 17.9941L17.0521 6.77047C17.1776 6.66928 17.334 6.6141 17.4952 6.6141C17.6565 6.6141 17.8129 6.66928 17.9384 6.77047L31.5656 17.9941C31.636 18.0523 31.7171 18.0961 31.8044 18.123C31.8917 18.1498 31.9834 18.1592 32.0743 18.1506C32.1653 18.142 32.2536 18.1156 32.3343 18.0728C32.415 18.0301 32.4865 17.9718 32.5447 17.9014L34.0219 16.1055C34.0801 16.0348 34.1237 15.9532 34.1502 15.8655C34.1768 15.7779 34.1857 15.6858 34.1766 15.5947C34.1674 15.5035 34.1403 15.4151 34.0969 15.3345C34.0534 15.2538 33.9945 15.1826 33.9234 15.1248Z" fill="black"/>
</g>
<defs>
<clipPath id="clip0_201_5045">
<rect width="33.3685" height="29.6609" fill="white" transform="translate(0.809814 0.556885)"/>
</clipPath>
</defs>
</svg>
