<svg width="30" height="31" viewBox="0 0 30 31" fill="none" xmlns="http://www.w3.org/2000/svg">
<g clip-path="url(#clip0_201_5043)">
<path d="M29.8524 19.8189L25.803 10.3008C24.9398 7.914 22.8833 6.18764 20.4154 5.71261C21.4581 5.09853 23.0976 3.63287 22.3966 0.944849C22.3213 0.655192 21.9853 0.487191 21.7015 0.591467L9.98772 4.97688C2.39871 7.70545 0.31897 14.3965 0.31897 23.6598V28.3638C0.31897 29.3892 1.14739 30.2176 2.17278 30.2176H15.8562C17.2349 30.2176 18.1329 28.7693 17.513 27.5354L15.1494 22.8024V22.7618C12.5077 22.5591 10.2484 20.9833 9.10717 18.7298C9.01448 18.5502 9.05503 18.3301 9.19986 18.191L9.90083 17.4901C10.1268 17.2641 10.5149 17.3337 10.6481 17.6291C11.5055 19.5814 13.4404 20.9544 15.7113 20.9544C16.7078 20.9544 17.6231 20.6589 18.4225 20.1897L21.0874 23.8915C21.435 24.3781 21.9969 24.662 22.5936 24.662H25.5076C26 24.662 26.4692 24.465 26.8168 24.1174L29.4411 21.8117C29.9567 21.2846 30.1189 20.5025 29.8524 19.8189ZM19.3205 13.5333C18.55 13.5333 17.9301 12.9135 17.9301 12.143C17.9301 11.3725 18.55 10.7526 19.3205 10.7526C20.091 10.7526 20.7108 11.3725 20.7108 12.143C20.7108 12.9135 20.091 13.5333 19.3205 13.5333Z" fill="black"/>
</g>
<defs>
<clipPath id="clip0_201_5043">
<rect width="29.6609" height="29.6609" fill="white" transform="translate(0.31897 0.556885)"/>
</clipPath>
</defs>
</svg>
