<svg width="34" height="31" viewBox="0 0 34 31" fill="none" xmlns="http://www.w3.org/2000/svg">
<g clip-path="url(#clip0_201_5041)">
<path d="M33.4843 4.99437C33.4838 4.52339 33.3094 4.075 32.9873 3.73147C32.7683 3.498 32.4902 3.20313 32.1942 2.89146C32.8349 2.49521 33.3239 1.87824 33.4791 1.11528C33.5382 0.827943 33.3129 0.556824 33.0197 0.556824H26.0691C21.974 0.556824 18.6539 3.87687 18.6539 7.97205H9.38951C7.71877 7.97205 6.23804 8.724 5.21845 9.89016V9.82585C2.40704 9.82585 0.120483 12.1124 0.120483 14.9238V18.168C0.120483 18.6801 0.535272 19.0949 1.04739 19.0949H1.97429C2.4864 19.0949 2.90119 18.6801 2.90119 18.168V14.9238C2.90119 14.158 3.29918 13.5109 3.87328 13.0885C3.86112 13.238 3.82809 13.3811 3.82809 13.5335C3.82809 15.1347 4.514 16.5668 5.59732 17.5817L4.10732 21.5558C3.84325 22.2597 3.79961 23.0273 3.98219 23.7566L5.42179 29.5156C5.47172 29.7161 5.5873 29.8942 5.75013 30.0214C5.91295 30.1486 6.11366 30.2177 6.3203 30.2177H10.1415C10.7445 30.2177 11.1871 29.6511 11.0406 29.066L9.51638 22.9682L10.8975 19.2843L18.6585 20.5779V29.2908C18.6585 29.8029 19.0733 30.2177 19.5854 30.2177H23.2931C23.8052 30.2177 24.22 29.8029 24.22 29.2908V18.9918C25.3635 17.8221 26.0738 16.2255 26.0738 14.4604C26.0738 14.4476 26.0697 14.436 26.0691 14.4233V8.48706L26.996 8.89895L28.0909 11.083C28.5225 11.9444 29.5421 12.3314 30.4366 11.9734L32.3222 11.2191C32.6666 11.0815 32.9617 10.8437 33.1695 10.5366C33.3773 10.2294 33.4882 9.86704 33.4878 9.49622L33.4843 4.99437ZM29.7767 6.11824C29.2646 6.11824 28.8498 5.70345 28.8498 5.19134C28.8498 4.67922 29.2646 4.26443 29.7767 4.26443C30.2889 4.26443 30.7036 4.67922 30.7036 5.19134C30.7036 5.70345 30.2889 6.11824 29.7767 6.11824Z" fill="black"/>
</g>
<defs>
<clipPath id="clip0_201_5041">
<rect width="33.3685" height="29.6609" fill="white" transform="translate(0.120483 0.556885)"/>
</clipPath>
</defs>
</svg>
