<svg width="27" height="31" viewBox="0 0 27 31" fill="none" xmlns="http://www.w3.org/2000/svg">
<g clip-path="url(#clip0_201_5033)">
<path d="M26.695 29.0591V30.2178H0.741699V29.0591C0.741699 28.6752 1.05296 28.364 1.43688 28.364H2.5955V7.50866C2.5955 6.74077 3.21798 6.1183 3.98586 6.1183H9.08382V1.94724C9.08382 1.17936 9.7063 0.556885 10.4742 0.556885H16.9625C17.7304 0.556885 18.3529 1.17936 18.3529 1.94724V6.1183H23.4508C24.2187 6.1183 24.8412 6.74077 24.8412 7.50866V28.364H25.9998C26.3837 28.364 26.695 28.6752 26.695 29.0591ZM18.5846 11.6797H16.2673C15.8834 11.6797 15.5721 11.991 15.5721 12.3749V14.6922C15.5721 15.0761 15.8834 15.3873 16.2673 15.3873H18.5846C18.9685 15.3873 19.2798 15.0761 19.2798 14.6922V12.3749C19.2798 11.991 18.9685 11.6797 18.5846 11.6797ZM8.8521 15.3873H11.1694C11.5533 15.3873 11.8645 15.0761 11.8645 14.6922V12.3749C11.8645 11.991 11.5533 11.6797 11.1694 11.6797H8.8521C8.46819 11.6797 8.15692 11.991 8.15692 12.3749V14.6922C8.15692 15.0761 8.46819 15.3873 8.8521 15.3873ZM14.877 22.8026H12.5597C12.1758 22.8026 11.8645 23.1138 11.8645 23.4977V28.364H15.5721V23.4977C15.5721 23.1138 15.2609 22.8026 14.877 22.8026ZM18.5846 17.2411H16.2673C15.8834 17.2411 15.5721 17.5524 15.5721 17.9363V20.2536C15.5721 20.6375 15.8834 20.9487 16.2673 20.9487H18.5846C18.9685 20.9487 19.2798 20.6375 19.2798 20.2536V17.9363C19.2798 17.5524 18.9685 17.2411 18.5846 17.2411ZM11.8645 17.9363C11.8645 17.5524 11.5533 17.2411 11.1694 17.2411H8.8521C8.46819 17.2411 8.15692 17.5524 8.15692 17.9363V20.2536C8.15692 20.6375 8.46819 20.9487 8.8521 20.9487H11.1694C11.5533 20.9487 11.8645 20.6375 11.8645 20.2536V17.9363ZM11.2852 6.1183H12.7914V7.62452C12.7914 7.7167 12.8281 7.80511 12.8932 7.8703C12.9584 7.93549 13.0468 7.97211 13.139 7.97211H14.2977C14.3898 7.97211 14.4782 7.93549 14.5434 7.8703C14.6086 7.80511 14.6452 7.7167 14.6452 7.62452V6.1183H16.1515C16.2436 6.1183 16.3321 6.08168 16.3972 6.01649C16.4624 5.95131 16.499 5.8629 16.499 5.77071V4.61208C16.499 4.5199 16.4624 4.43149 16.3972 4.3663C16.3321 4.30112 16.2436 4.2645 16.1515 4.2645H14.6452V2.75828C14.6452 2.66609 14.6086 2.57768 14.5434 2.5125C14.4782 2.44731 14.3898 2.41069 14.2977 2.41069H13.139C13.0468 2.41069 12.9584 2.44731 12.8932 2.5125C12.8281 2.57768 12.7914 2.66609 12.7914 2.75828V4.2645H11.2852C11.193 4.2645 11.1046 4.30112 11.0394 4.3663C10.9742 4.43149 10.9376 4.5199 10.9376 4.61208V5.77071C10.9376 5.8629 10.9742 5.95131 11.0394 6.01649C11.1046 6.08168 11.193 6.1183 11.2852 6.1183Z" fill="black"/>
</g>
<defs>
<clipPath id="clip0_201_5033">
<rect width="25.9533" height="29.6609" fill="white" transform="translate(0.741699 0.556885)"/>
</clipPath>
</defs>
</svg>
