<svg width="35" height="31" viewBox="0 0 35 31" fill="none" xmlns="http://www.w3.org/2000/svg">
<g clip-path="url(#clip0_201_5039)">
<path d="M32.4366 6.11842H25.0213V2.41081C25.0213 1.38543 24.1929 0.557007 23.1675 0.557007H12.0447C11.0193 0.557007 10.1909 1.38543 10.1909 2.41081V6.11842H2.77568C1.75029 6.11842 0.921875 6.94684 0.921875 7.97223V29.291C0.921875 29.8008 1.33898 30.2179 1.84878 30.2179H33.3635C33.8733 30.2179 34.2904 29.8008 34.2904 29.291V7.97223C34.2904 6.94684 33.462 6.11842 32.4366 6.11842ZM10.1909 25.8151C10.1909 26.1975 9.87807 26.5103 9.49573 26.5103H7.17847C6.79612 26.5103 6.48329 26.1975 6.48329 25.8151V23.4979C6.48329 23.1155 6.79612 22.8027 7.17847 22.8027H9.49573C9.87807 22.8027 10.1909 23.1155 10.1909 23.4979V25.8151ZM10.1909 18.3999C10.1909 18.7822 9.87807 19.0951 9.49573 19.0951H7.17847C6.79612 19.0951 6.48329 18.7822 6.48329 18.3999V16.0826C6.48329 15.7003 6.79612 15.3875 7.17847 15.3875H9.49573C9.87807 15.3875 10.1909 15.7003 10.1909 16.0826V18.3999ZM19.4599 25.8151C19.4599 26.1975 19.1471 26.5103 18.7648 26.5103H16.4475C16.0651 26.5103 15.7523 26.1975 15.7523 25.8151V23.4979C15.7523 23.1155 16.0651 22.8027 16.4475 22.8027H18.7648C19.1471 22.8027 19.4599 23.1155 19.4599 23.4979V25.8151ZM19.4599 18.3999C19.4599 18.7822 19.1471 19.0951 18.7648 19.0951H16.4475C16.0651 19.0951 15.7523 18.7822 15.7523 18.3999V16.0826C15.7523 15.7003 16.0651 15.3875 16.4475 15.3875H18.7648C19.1471 15.3875 19.4599 15.7003 19.4599 16.0826V18.3999ZM20.3868 8.55154C20.3868 8.74272 20.2304 8.89913 20.0392 8.89913H18.533V10.4053C18.533 10.5965 18.3766 10.7529 18.1854 10.7529H17.0268C16.8356 10.7529 16.6792 10.5965 16.6792 10.4053V8.89913H15.173C14.9818 8.89913 14.8254 8.74272 14.8254 8.55154V7.39291C14.8254 7.20174 14.9818 7.04533 15.173 7.04533H16.6792V5.53911C16.6792 5.34794 16.8356 5.19152 17.0268 5.19152H18.1854C18.3766 5.19152 18.533 5.34794 18.533 5.53911V7.04533H20.0392C20.2304 7.04533 20.3868 7.20174 20.3868 7.39291V8.55154ZM28.729 25.8151C28.729 26.1975 28.4161 26.5103 28.0338 26.5103H25.7165C25.3342 26.5103 25.0213 26.1975 25.0213 25.8151V23.4979C25.0213 23.1155 25.3342 22.8027 25.7165 22.8027H28.0338C28.4161 22.8027 28.729 23.1155 28.729 23.4979V25.8151ZM28.729 18.3999C28.729 18.7822 28.4161 19.0951 28.0338 19.0951H25.7165C25.3342 19.0951 25.0213 18.7822 25.0213 18.3999V16.0826C25.0213 15.7003 25.3342 15.3875 25.7165 15.3875H28.0338C28.4161 15.3875 28.729 15.7003 28.729 16.0826V18.3999Z" fill="black"/>
</g>
<defs>
<clipPath id="clip0_201_5039">
<rect width="33.3685" height="29.6609" fill="white" transform="translate(0.921997 0.556885)"/>
</clipPath>
</defs>
</svg>
