<svg width="31" height="31" viewBox="0 0 31 31" fill="none" xmlns="http://www.w3.org/2000/svg">
<g clip-path="url(#clip0_201_5037)">
<path d="M15.2616 0.556946C7.07009 0.556946 0.431152 7.19589 0.431152 15.3874C0.431152 23.5789 7.07009 30.2178 15.2616 30.2178C23.4531 30.2178 30.092 23.5789 30.092 15.3874C30.092 7.19589 23.4531 0.556946 15.2616 0.556946ZM21.7499 22.3392C21.7499 22.5941 21.5414 22.8026 21.2865 22.8026H18.5058C18.2509 22.8026 18.0423 22.5941 18.0423 22.3392V17.2412H12.4809V22.3392C12.4809 22.5941 12.2723 22.8026 12.0174 22.8026H9.23673C8.98183 22.8026 8.77328 22.5941 8.77328 22.3392V8.43562C8.77328 8.18072 8.98183 7.97217 9.23673 7.97217H12.0174C12.2723 7.97217 12.4809 8.18072 12.4809 8.43562V13.5336H18.0423V8.43562C18.0423 8.18072 18.2509 7.97217 18.5058 7.97217H21.2865C21.5414 7.97217 21.7499 8.18072 21.7499 8.43562V22.3392Z" fill="black"/>
</g>
<defs>
<clipPath id="clip0_201_5037">
<rect width="29.6609" height="29.6609" fill="white" transform="translate(0.431152 0.556885)"/>
</clipPath>
</defs>
</svg>
