<svg width="31" height="31" viewBox="0 0 31 31" fill="none" xmlns="http://www.w3.org/2000/svg">
<g clip-path="url(#clip0_201_5029)">
<path d="M29.0634 1.91491C28.1943 1.04607 27.0157 0.557988 25.7868 0.557988C24.5578 0.557988 23.3793 1.04607 22.5102 1.91491L2.11829 22.3068C1.67565 22.7343 1.32258 23.2457 1.07969 23.8111C0.836801 24.3765 0.708953 24.9847 0.703605 25.6001C0.698258 26.2154 0.815519 26.8257 1.04855 27.3953C1.28157 27.9648 1.6257 28.4823 2.06085 28.9174C2.496 29.3526 3.01345 29.6967 3.58301 29.9297C4.15258 30.1627 4.76285 30.28 5.37822 30.2747C5.99358 30.2693 6.60172 30.1415 7.16715 29.8986C7.73258 29.6557 8.24398 29.3026 8.6715 28.86L29.0634 8.46811C29.9322 7.59901 30.4203 6.42042 30.4203 5.19151C30.4203 3.96261 29.9322 2.78401 29.0634 1.91491ZM26.1708 7.4294C25.0354 8.56428 23.9973 8.74271 23.1625 8.8858C22.4128 9.01499 21.8706 9.10768 21.1522 9.82603C20.4339 10.5444 20.3412 11.0866 20.212 11.8368C20.0683 12.671 19.8905 13.7097 18.755 14.8446C17.6196 15.9795 16.5815 16.1579 15.7472 16.3016C14.997 16.4302 14.4554 16.5229 13.737 17.2412C13.0187 17.9596 12.926 18.5013 12.7968 19.2515C12.6537 20.0857 12.4759 21.1244 11.3404 22.2593C10.2049 23.3941 9.16623 23.5732 8.33202 23.7162C7.58239 23.8454 7.04015 23.9381 6.3218 24.6565C6.14795 24.8303 5.91216 24.928 5.6663 24.928C5.42044 24.928 5.18466 24.8303 5.01081 24.6565C4.83696 24.4826 4.73929 24.2468 4.73929 24.001C4.73929 23.7551 4.83696 23.5193 5.01081 23.3455C6.14627 22.2106 7.1844 22.0322 8.01861 21.8891C8.77172 21.7605 9.31048 21.6678 10.0294 20.9489C10.7483 20.2299 10.8404 19.6889 10.9691 18.9386C11.1127 18.1044 11.2906 17.0657 12.426 15.9308C13.5615 14.796 14.5996 14.6175 15.4338 14.4744C16.1869 14.3458 16.7257 14.2526 17.4441 13.5342C18.1624 12.8159 18.2551 12.2736 18.3849 11.5234C18.528 10.6892 18.7058 9.65049 19.8413 8.51562C20.9767 7.38074 22.0148 7.20173 22.8491 7.05864C23.5993 6.92946 24.1409 6.83734 24.8599 6.11841C25.0337 5.94457 25.2695 5.8469 25.5153 5.8469C25.7612 5.8469 25.997 5.94457 26.1708 6.11841C26.3447 6.29226 26.4424 6.52805 26.4424 6.77391C26.4424 7.01977 26.3447 7.25556 26.1708 7.4294ZM2.58174 19.2213L19.4247 2.37836L18.7562 1.70925C17.3079 0.260969 15.0573 0.164803 13.7283 1.49375L1.69713 13.5249C0.368184 14.8539 0.46493 17.1045 1.91264 18.5522L2.58174 19.2213ZM28.5999 11.5535L11.7569 28.3965L12.4255 29.0656C13.8737 30.5139 16.1244 30.6101 17.4533 29.2811L29.4845 17.2499C30.8135 15.921 30.7167 13.6704 29.269 12.2221L28.5999 11.5535Z" fill="black"/>
</g>
<defs>
<clipPath id="clip0_201_5029">
<rect width="29.6609" height="29.6609" fill="white" transform="translate(0.76001 0.556885)"/>
</clipPath>
</defs>
</svg>
