<svg width="34" height="31" viewBox="0 0 34 31" fill="none" xmlns="http://www.w3.org/2000/svg">
<g clip-path="url(#clip0_201_5027)">
<path d="M33.0031 4.26456C33.5152 4.26456 33.93 3.84977 33.93 3.33765V1.48385C33.93 0.971735 33.5152 0.556946 33.0031 0.556946H1.48843C0.976312 0.556946 0.561523 0.971735 0.561523 1.48385V3.33765C0.561523 3.84977 0.976312 4.26456 1.48843 4.26456H2.41417V26.5102H1.48843C0.976312 26.5102 0.561523 26.925 0.561523 27.4371V29.2909C0.561523 29.803 0.976312 30.2178 1.48843 30.2178H15.392V25.5833C15.392 25.0735 15.8091 24.6564 16.3189 24.6564H18.1727C18.6825 24.6564 19.0996 25.0735 19.0996 25.5833V30.2178H33.0031C33.5152 30.2178 33.93 29.803 33.93 29.2909V27.4371C33.93 26.925 33.5152 26.5102 33.0031 26.5102H32.0762V4.26456H33.0031ZM15.392 6.85988C15.392 6.48912 15.7627 6.11836 16.1335 6.11836H18.3581C18.7288 6.11836 19.0996 6.48912 19.0996 6.85988V9.08445C19.0996 9.45521 18.7288 9.82597 18.3581 9.82597H16.1335C15.7627 9.82597 15.392 9.45521 15.392 9.08445V6.85988ZM15.392 12.4213C15.392 12.0505 15.7627 11.6798 16.1335 11.6798H18.3581C18.7288 11.6798 19.0996 12.0505 19.0996 12.4213V14.6459C19.0996 15.0166 18.7288 15.3874 18.3581 15.3874H16.1335C15.7627 15.3874 15.392 15.0166 15.392 14.6459V12.4213ZM7.97675 6.85988C7.97675 6.48912 8.34751 6.11836 8.71827 6.11836H10.9428C11.3136 6.11836 11.6844 6.48912 11.6844 6.85988V9.08445C11.6844 9.45521 11.3136 9.82597 10.9428 9.82597H8.71827C8.34751 9.82597 7.97675 9.45521 7.97675 9.08445V6.85988ZM10.9428 15.3874H8.71827C8.34751 15.3874 7.97675 15.0166 7.97675 14.6459V12.4213C7.97675 12.0505 8.34751 11.6798 8.71827 11.6798H10.9428C11.3136 11.6798 11.6844 12.0505 11.6844 12.4213V14.6459C11.6844 15.0166 11.3136 15.3874 10.9428 15.3874ZM11.6844 22.8026C11.6844 19.7311 14.1742 17.2412 17.2458 17.2412C20.3173 17.2412 22.8072 19.7311 22.8072 22.8026H11.6844ZM26.5148 14.6459C26.5148 15.0166 26.144 15.3874 25.7733 15.3874H23.5487C23.1779 15.3874 22.8072 15.0166 22.8072 14.6459V12.4213C22.8072 12.0505 23.1779 11.6798 23.5487 11.6798H25.7733C26.144 11.6798 26.5148 12.0505 26.5148 12.4213V14.6459ZM26.5148 9.08445C26.5148 9.45521 26.144 9.82597 25.7733 9.82597H23.5487C23.1779 9.82597 22.8072 9.45521 22.8072 9.08445V6.85988C22.8072 6.48912 23.1779 6.11836 23.5487 6.11836H25.7733C26.144 6.11836 26.5148 6.48912 26.5148 6.85988V9.08445Z" fill="black"/>
</g>
<defs>
<clipPath id="clip0_201_5027">
<rect width="33.3685" height="29.6609" fill="white" transform="translate(0.561523 0.556885)"/>
</clipPath>
</defs>
</svg>
