<svg width="23" height="31" viewBox="0 0 23 31" fill="none" xmlns="http://www.w3.org/2000/svg">
<g clip-path="url(#clip0_201_5021)">
<path d="M21.1898 0.556824H1.72483C0.956946 0.556824 0.334473 1.1793 0.334473 1.94718V2.87408C0.334473 3.64196 0.956946 4.26443 1.72483 4.26443C1.72483 9.53417 4.68026 13.9815 8.72538 15.3873C4.68026 16.793 1.72483 21.2404 1.72483 26.5101C0.956946 26.5101 0.334473 27.1326 0.334473 27.9005V28.8274C0.334473 29.5952 0.956946 30.2177 1.72483 30.2177H21.1898C21.9577 30.2177 22.5801 29.5952 22.5801 28.8274V27.9005C22.5801 27.1326 21.9577 26.5101 21.1898 26.5101C21.1898 21.2404 18.2344 16.793 14.1892 15.3873C18.2344 13.9815 21.1898 9.53417 21.1898 4.26443C21.9577 4.26443 22.5801 3.64196 22.5801 2.87408V1.94718C22.5801 1.1793 21.9577 0.556824 21.1898 0.556824ZM17.4822 26.5101H5.43244C5.43244 22.0229 8.1091 18.168 11.4573 18.168C14.8049 18.168 17.4822 22.0214 17.4822 26.5101Z" fill="black"/>
</g>
<defs>
<clipPath id="clip0_201_5021">
<rect width="22.2457" height="29.6609" fill="white" transform="translate(0.334473 0.556885)"/>
</clipPath>
</defs>
</svg>
