<svg width="23" height="31" viewBox="0 0 23 31" fill="none" xmlns="http://www.w3.org/2000/svg">
<g clip-path="url(#clip0_201_5023)">
<path d="M21.2655 0.556946H1.80051C1.03263 0.556946 0.410156 1.17942 0.410156 1.9473V2.8742C0.410156 3.64208 1.03263 4.26456 1.80051 4.26456C1.80051 9.53429 4.75594 13.9816 8.80106 15.3874C4.75594 16.7932 1.80051 21.2405 1.80051 26.5102C1.03263 26.5102 0.410156 27.1327 0.410156 27.9006V28.8275C0.410156 29.5954 1.03263 30.2178 1.80051 30.2178H21.2655C22.0333 30.2178 22.6558 29.5954 22.6558 28.8275V27.9006C22.6558 27.1327 22.0333 26.5102 21.2655 26.5102C21.2655 21.2405 18.31 16.7932 14.2649 15.3874C18.31 13.9816 21.2655 9.53429 21.2655 4.26456C22.0333 4.26456 22.6558 3.64208 22.6558 2.8742V1.9473C22.6558 1.17942 22.0333 0.556946 21.2655 0.556946ZM16.9161 22.8026H6.15C7.13825 20.0916 9.168 18.1681 11.533 18.1681C13.8978 18.1681 15.9278 20.0912 16.9161 22.8026ZM16.9172 7.97217H6.14989C5.73915 6.84529 5.50812 5.58238 5.50812 4.26456H17.5579C17.5579 5.58568 17.3269 6.84755 16.9172 7.97217Z" fill="black"/>
</g>
<defs>
<clipPath id="clip0_201_5023">
<rect width="22.2457" height="29.6609" fill="white" transform="translate(0.410156 0.556885)"/>
</clipPath>
</defs>
</svg>
