<svg width="23" height="31" viewBox="0 0 23 31" fill="none" xmlns="http://www.w3.org/2000/svg">
<g clip-path="url(#clip0_201_5025)">
<path d="M21.341 4.26456C22.1089 4.26456 22.7314 3.64208 22.7314 2.8742V1.9473C22.7314 1.17942 22.1089 0.556946 21.341 0.556946H1.87607C1.10819 0.556946 0.485718 1.17942 0.485718 1.9473V2.8742C0.485718 3.64208 1.10819 4.26456 1.87607 4.26456C1.87607 9.53429 4.8315 13.9816 8.87662 15.3874C4.8315 16.7932 1.87607 21.2405 1.87607 26.5102C1.10819 26.5102 0.485718 27.1327 0.485718 27.9006V28.8275C0.485718 29.5954 1.10819 30.2178 1.87607 30.2178H21.341C22.1089 30.2178 22.7314 29.5954 22.7314 28.8275V27.9006C22.7314 27.1327 22.1089 26.5102 21.341 26.5102C21.341 21.2405 18.3856 16.7932 14.3405 15.3874C18.3856 13.9816 21.341 9.53429 21.341 4.26456ZM11.6086 12.6067C8.26087 12.6067 5.58368 8.7532 5.58368 4.26456H17.6334C17.6334 8.78002 14.939 12.6067 11.6086 12.6067Z" fill="black"/>
</g>
<defs>
<clipPath id="clip0_201_5025">
<rect width="22.2457" height="29.6609" fill="white" transform="translate(0.48584 0.556885)"/>
</clipPath>
</defs>
</svg>
