<svg width="23" height="31" viewBox="0 0 23 31" fill="none" xmlns="http://www.w3.org/2000/svg">
<g clip-path="url(#clip0_201_5019)">
<path d="M21.1141 4.26456C21.882 4.26456 22.5045 3.64208 22.5045 2.8742V1.9473C22.5045 1.17942 21.882 0.556946 21.1141 0.556946H1.64914C0.881262 0.556946 0.258789 1.17942 0.258789 1.9473V2.8742C0.258789 3.64208 0.881262 4.26456 1.64914 4.26456C1.64914 9.53429 4.60457 13.9816 8.64969 15.3874C4.60457 16.7932 1.64914 21.2405 1.64914 26.5102C0.881262 26.5102 0.258789 27.1327 0.258789 27.9006V28.8275C0.258789 29.5954 0.881262 30.2178 1.64914 30.2178H21.1141C21.882 30.2178 22.5045 29.5954 22.5045 28.8275V27.9006C22.5045 27.1327 21.882 26.5102 21.1141 26.5102C21.1141 21.2405 18.1587 16.7932 14.1136 15.3874C18.1587 13.9816 21.1141 9.53429 21.1141 4.26456Z" fill="black"/>
</g>
<defs>
<clipPath id="clip0_201_5019">
<rect width="22.2457" height="29.6609" fill="white" transform="translate(0.258789 0.556885)"/>
</clipPath>
</defs>
</svg>
