<svg width="35" height="31" viewBox="0 0 35 31" fill="none" xmlns="http://www.w3.org/2000/svg">
<g clip-path="url(#clip0_201_5015)">
<path d="M33.9226 14.2444L30.5226 11.2418V3.33765C30.5226 3.09182 30.4249 2.85606 30.2511 2.68223C30.0773 2.50841 29.8415 2.41075 29.5957 2.41075H25.8881C25.6422 2.41075 25.4065 2.50841 25.2326 2.68223C25.0588 2.85606 24.9612 3.09182 24.9612 3.33765V6.33097L19.0973 1.15364C18.7335 0.82401 18.0401 0.556946 17.5459 0.556946C17.0518 0.556946 16.3607 0.82401 15.9969 1.15364L1.16641 14.2461C0.983688 14.4308 0.875232 14.6761 0.861694 14.9355C0.873534 15.1621 0.956436 15.3792 1.09863 15.556L2.33895 16.9342C2.53225 17.1076 2.7757 17.2152 3.03412 17.2412C3.25817 17.2188 3.47207 17.1366 3.65341 17.0031L4.57452 16.1921V28.364C4.57452 28.8557 4.76983 29.3272 5.11749 29.6749C5.46514 30.0225 5.93666 30.2178 6.42832 30.2178H28.6688C29.1604 30.2178 29.632 30.0225 29.9796 29.6749C30.3273 29.3272 30.5226 28.8557 30.5226 28.364V16.1915L31.4443 17.0025C31.6264 17.1358 31.8408 17.2182 32.0653 17.2412C32.3214 17.2144 32.5623 17.1067 32.7529 16.9336L33.9933 15.5542C34.1264 15.3728 34.2082 15.1589 34.2302 14.9349C34.2036 14.6779 34.0958 14.4361 33.9226 14.2444ZM17.5459 10.7529C18.2792 10.7529 18.9961 10.9703 19.6058 11.3777C20.2155 11.7851 20.6907 12.3642 20.9713 13.0416C21.252 13.7191 21.3254 14.4646 21.1823 15.1838C21.0393 15.903 20.6861 16.5636 20.1676 17.0822C19.6491 17.6007 18.9885 17.9538 18.2693 18.0969C17.5501 18.2399 16.8046 18.1665 16.1271 17.8859C15.4496 17.6053 14.8706 17.13 14.4632 16.5203C14.0558 15.9106 13.8383 15.1938 13.8383 14.4605C13.8383 13.4772 14.229 12.5341 14.9243 11.8388C15.6196 11.1435 16.5626 10.7529 17.5459 10.7529ZM24.0343 26.5102H11.0576C10.8118 26.5102 10.576 26.4126 10.4022 26.2387C10.2284 26.0649 10.1307 25.8292 10.1307 25.5833C10.1307 24.1083 10.7167 22.6938 11.7596 21.6508C12.8026 20.6078 14.2172 20.0219 15.6921 20.0219H19.3997C20.8747 20.0219 22.2893 20.6078 23.3323 21.6508C24.3752 22.6938 24.9612 24.1083 24.9612 25.5833C24.9612 25.8292 24.8635 26.0649 24.6897 26.2387C24.5159 26.4126 24.2801 26.5102 24.0343 26.5102Z" fill="black"/>
</g>
<defs>
<clipPath id="clip0_201_5015">
<rect width="33.3685" height="29.6609" fill="white" transform="translate(0.861816 0.556885)"/>
</clipPath>
</defs>
</svg>
