<svg width="24" height="31" viewBox="0 0 24 31" fill="none" xmlns="http://www.w3.org/2000/svg">
<g clip-path="url(#clip0_201_5013)">
<path d="M22.1049 14.4604C22.617 14.4604 23.0318 14.0457 23.0318 13.5335V11.6797C23.0318 11.1676 22.617 10.7528 22.1049 10.7528H19.6799C20.4567 9.09425 20.4759 7.08403 19.4406 5.30438C18.3591 3.4442 16.2596 2.41071 14.108 2.41071H9.54189C8.133 2.41071 6.76929 2.90486 5.68713 3.80627L5.00528 4.37458C4.41554 4.86642 4.33559 5.74292 4.82743 6.33266L6.01444 7.7572C6.50628 8.34752 7.38278 8.42688 7.9731 7.93505L8.65264 7.36848C8.9029 7.15992 9.21863 7.0458 9.5442 7.0458H14.3884C15.0656 7.0458 15.6166 7.59731 15.6166 8.27395C15.6166 8.61632 15.4729 8.94479 15.2221 9.17652L13.5137 10.7528H1.71304C1.20092 10.7528 0.786133 11.1676 0.786133 11.6797V13.5335C0.786133 14.0457 1.20092 14.4604 1.71304 14.4604H9.49728L7.4888 16.3142H1.71304C1.20092 16.3142 0.786133 16.729 0.786133 17.2411V19.095C0.786133 19.6071 1.20092 20.0219 1.71304 20.0219H4.13805C3.36118 21.6804 3.34207 23.6907 4.3773 25.4703C5.45888 27.3299 7.55832 28.364 9.70989 28.364H14.276C15.6849 28.364 17.0486 27.8698 18.1308 26.9684L18.8127 26.4001C19.4024 25.9083 19.4823 25.0318 18.9905 24.442L17.8035 23.0175C17.3117 22.4272 16.4351 22.3478 15.8448 22.8396L15.1641 23.4074C14.9143 23.6155 14.5995 23.7295 14.2743 23.7295H9.4295C8.75228 23.7295 8.20135 23.178 8.20135 22.5013C8.20135 22.1589 8.34502 21.8305 8.59587 21.5988L10.3043 20.0219H22.1049C22.617 20.0219 23.0318 19.6071 23.0318 19.095V17.2411C23.0318 16.729 22.617 16.3142 22.1049 16.3142H14.3207L16.3291 14.4604H22.1049Z" fill="black"/>
</g>
<defs>
<clipPath id="clip0_201_5013">
<rect width="22.2457" height="29.6609" fill="white" transform="translate(0.786133 0.556885)"/>
</clipPath>
</defs>
</svg>
