<svg width="31" height="31" viewBox="0 0 31 31" fill="none" xmlns="http://www.w3.org/2000/svg">
<g clip-path="url(#clip0_201_5005)">
<path d="M7.1183 13.2642C7.20309 13.3527 7.30493 13.4232 7.41768 13.4713C7.53044 13.5195 7.65177 13.5443 7.77437 13.5443C7.89697 13.5443 8.0183 13.5195 8.13106 13.4713C8.24381 13.4232 8.34565 13.3527 8.43044 13.2642L14.0353 7.48086C15.6661 5.80085 15.5705 3.01435 13.7509 1.46295C12.1641 0.110827 9.80342 0.354139 8.34702 1.85688L7.77582 2.4443L7.20519 1.85688C5.75111 0.354139 3.38751 0.110827 1.80077 1.46295C-0.018855 3.01435 -0.110966 5.79911 1.51111 7.48086L7.1183 13.2642ZM15.4558 19.0857H12.6751L12.2649 18.2607C12.1515 17.9581 11.9484 17.6973 11.6828 17.5132C11.4171 17.3291 11.1016 17.2306 10.7784 17.2307H6.62414C6.30095 17.2306 5.98542 17.3291 5.71977 17.5132C5.45412 17.6973 5.25102 17.9581 5.13762 18.2607L4.7321 19.0857H1.95139C1.74246 19.0856 1.53557 19.1267 1.34253 19.2066C1.14949 19.2865 0.974094 19.4037 0.82636 19.5514C0.678625 19.6992 0.561451 19.8746 0.481533 20.0676C0.401615 20.2607 0.36052 20.4676 0.360596 20.6765L0.360596 28.6276C0.36052 28.8363 0.401562 29.043 0.481378 29.2359C0.561195 29.4288 0.678223 29.6041 0.82578 29.7518C0.973338 29.8994 1.14854 30.0166 1.34137 30.0966C1.53421 30.1765 1.7409 30.2177 1.94965 30.2178H15.4558C15.8773 30.2175 16.2815 30.0498 16.5795 29.7516C16.8775 29.4534 17.0448 29.0491 17.0448 28.6276V20.6765C17.045 20.2548 16.8777 19.8504 16.5797 19.5521C16.2817 19.2537 15.8774 19.086 15.4558 19.0857ZM8.70272 27.6688C8.10692 27.6688 7.52449 27.4921 7.0291 27.1611C6.53371 26.8301 6.1476 26.3596 5.91959 25.8092C5.69159 25.2587 5.63193 24.653 5.74817 24.0687C5.86441 23.4843 6.15131 22.9476 6.57261 22.5263C6.9939 22.105 7.53067 21.8181 8.11502 21.7018C8.69938 21.5856 9.30508 21.6452 9.85553 21.8732C10.406 22.1012 10.8765 22.4874 11.2075 22.9828C11.5385 23.4781 11.7152 24.0606 11.7152 24.6564C11.7152 25.4553 11.3978 26.2215 10.8328 26.7865C10.2679 27.3514 9.50167 27.6688 8.70272 27.6688ZM29.2915 20.9546H25.7821L27.0774 18.0145C27.1991 17.6293 26.8497 17.2493 26.3718 17.2493H21.9928C21.6278 17.2493 21.3173 17.4752 21.2686 17.7764L20.2954 23.971C20.2374 24.336 20.5781 24.6598 21.0195 24.6598H24.6292L23.2273 29.4682C23.1178 29.8534 23.4706 30.2155 23.9358 30.2155C24.0578 30.2187 24.1788 30.1928 24.2889 30.1399C24.3989 30.087 24.4947 30.0086 24.5684 29.9113L29.9213 21.8641C30.204 21.4638 29.8541 20.9546 29.2915 20.9546ZM28.0564 0.576016L19.4496 1.89917C18.6015 2.02952 17.9717 2.81159 17.9717 3.73328V9.91862C17.6667 9.85594 17.3563 9.82296 17.0448 9.82013C14.997 9.82013 13.3372 11.0645 13.3372 12.6008C13.3372 14.1372 14.997 15.3815 17.0448 15.3815C19.084 15.3815 20.7368 14.1465 20.7525 12.6205V6.33034L27.2408 5.33277V8.06597C26.9357 8.00329 26.6253 7.97031 26.3139 7.96749C24.266 7.96749 22.6063 9.21185 22.6063 10.7482C22.6063 12.2845 24.266 13.5289 26.3139 13.5289C28.3531 13.5289 30.0058 12.2938 30.0215 10.7679V2.4107C30.0215 1.2822 29.0946 0.416705 28.0564 0.576016Z" fill="black"/>
</g>
<defs>
<clipPath id="clip0_201_5005">
<rect width="29.6609" height="29.6609" fill="white" transform="translate(0.360596 0.556885)"/>
</clipPath>
</defs>
</svg>
