<svg width="35" height="31" viewBox="0 0 35 31" fill="none" xmlns="http://www.w3.org/2000/svg">
<g clip-path="url(#clip0_201_4999)">
<path d="M31.4757 2.41071H3.66865C2.13347 2.41071 0.887939 3.65623 0.887939 5.19141V6.11832H34.2564V5.19141C34.2564 3.65623 33.0109 2.41071 31.4757 2.41071ZM0.887939 25.5833C0.887939 27.1185 2.13347 28.364 3.66865 28.364H31.4757C33.0109 28.364 34.2564 27.1185 34.2564 25.5833V7.97212H0.887939V25.5833ZM21.2798 12.1432C21.2798 11.8883 21.4884 11.6797 21.7433 11.6797H30.0854C30.3403 11.6797 30.5488 11.8883 30.5488 12.1432V13.0701C30.5488 13.325 30.3403 13.5335 30.0854 13.5335H21.7433C21.4884 13.5335 21.2798 13.325 21.2798 13.0701V12.1432ZM21.2798 15.8508C21.2798 15.5959 21.4884 15.3873 21.7433 15.3873H30.0854C30.3403 15.3873 30.5488 15.5959 30.5488 15.8508V16.7777C30.5488 17.0326 30.3403 17.2411 30.0854 17.2411H21.7433C21.4884 17.2411 21.2798 17.0326 21.2798 16.7777V15.8508ZM21.2798 19.5584C21.2798 19.3035 21.4884 19.095 21.7433 19.095H30.0854C30.3403 19.095 30.5488 19.3035 30.5488 19.5584V20.4853C30.5488 20.7402 30.3403 20.9488 30.0854 20.9488H21.7433C21.4884 20.9488 21.2798 20.7402 21.2798 20.4853V19.5584ZM11.0839 11.6797C13.1288 11.6797 14.7915 13.3424 14.7915 15.3873C14.7915 17.4323 13.1288 19.095 11.0839 19.095C9.03889 19.095 7.37626 17.4323 7.37626 15.3873C7.37626 13.3424 9.03889 11.6797 11.0839 11.6797ZM4.77514 23.5093C5.26176 22.0205 6.65791 20.9488 8.30316 20.9488H8.7782C9.49076 21.2442 10.267 21.4122 11.0839 21.4122C11.9007 21.4122 12.6828 21.2442 13.3895 20.9488H13.8646C15.5098 20.9488 16.906 22.0205 17.3926 23.5093C17.578 24.0829 17.0914 24.6564 16.4889 24.6564H5.67887C5.07638 24.6564 4.58976 24.0771 4.77514 23.5093Z" fill="black"/>
</g>
<defs>
<clipPath id="clip0_201_4999">
<rect width="33.3685" height="29.6609" fill="white" transform="translate(0.887939 0.556885)"/>
</clipPath>
</defs>
</svg>
