<svg width="35" height="31" viewBox="0 0 35 31" fill="none" xmlns="http://www.w3.org/2000/svg">
<g clip-path="url(#clip0_201_4997)">
<path d="M19.2275 2.52078C18.6192 2.45126 17.9994 2.41071 17.3737 2.41071C11.5921 2.41071 6.49418 5.35362 3.50492 9.82593H19.2275V2.52078ZM6.25087 11.6797H2.44478C1.33249 13.9159 0.689453 16.4301 0.689453 19.095H6.25087V11.6797ZM21.0813 2.8394V9.82593H31.2425C28.9136 6.34425 25.2987 3.79527 21.0813 2.8394ZM28.4965 19.095H34.058C34.058 16.4301 33.4149 13.9159 32.3026 11.6797H28.4965V19.095ZM24.7889 22.8026V28.364H32.2041C33.2295 28.364 34.058 27.5356 34.058 26.5102V20.9488H24.5282C24.6789 21.5455 24.7889 22.1595 24.7889 22.8026ZM26.6427 11.6797H8.10468V19.095H10.9897C12.2757 16.8878 14.6393 15.3873 17.3737 15.3873C20.1081 15.3873 22.4717 16.8878 23.7577 19.095H26.6427V11.6797ZM0.689453 26.5102C0.689453 27.5356 1.51787 28.364 2.54326 28.364H9.95848V22.8026C9.95848 22.1595 10.0686 21.5455 10.2192 20.9488H0.689453V26.5102ZM17.3737 17.2411C14.3033 17.2411 11.8123 19.7322 11.8123 22.8026V28.364H22.9351V22.8026C22.9351 19.7322 20.4441 17.2411 17.3737 17.2411Z" fill="black"/>
</g>
<defs>
<clipPath id="clip0_201_4997">
<rect width="33.3685" height="29.6609" fill="white" transform="translate(0.689453 0.556885)"/>
</clipPath>
</defs>
</svg>
