<svg width="34" height="31" viewBox="0 0 34 31" fill="none" xmlns="http://www.w3.org/2000/svg">
<g clip-path="url(#clip0_201_4993)">
<path d="M27.8071 24.6564V25.5833C27.8071 27.119 26.5621 28.364 25.0264 28.364H2.78071C1.24495 28.364 0 27.119 0 25.5833V10.7528C0 9.21707 1.24495 7.97212 2.78071 7.97212H3.70761V20.0219C3.70761 22.5773 5.78665 24.6564 8.34212 24.6564H27.8071ZM33.3685 20.0219V5.19141C33.3685 3.65565 32.1236 2.41071 30.5878 2.41071H8.34212C6.80636 2.41071 5.56142 3.65565 5.56142 5.19141V20.0219C5.56142 21.5576 6.80636 22.8026 8.34212 22.8026H30.5878C32.1236 22.8026 33.3685 21.5576 33.3685 20.0219ZM14.8304 7.97212C14.8304 9.50788 13.5855 10.7528 12.0497 10.7528C10.514 10.7528 9.26903 9.50788 9.26903 7.97212C9.26903 6.43636 10.514 5.19141 12.0497 5.19141C13.5855 5.19141 14.8304 6.43636 14.8304 7.97212ZM9.26903 16.3142L12.4851 13.0982C12.7566 12.8267 13.1967 12.8267 13.4682 13.0982L15.7573 15.3873L23.6079 7.53677C23.8794 7.2653 24.3196 7.2653 24.5911 7.53677L29.6609 12.6066V19.095H9.26903V16.3142Z" fill="black"/>
</g>
<defs>
<clipPath id="clip0_201_4993">
<rect width="33.3685" height="29.6609" fill="white" transform="translate(0 0.556885)"/>
</clipPath>
</defs>
</svg>
