<svg width="30" height="31" viewBox="0 0 30 31" fill="none" xmlns="http://www.w3.org/2000/svg">
<g clip-path="url(#clip0_201_4995)">
<path d="M27.0787 26.5102H2.97919C1.44343 26.5102 0.198486 25.2652 0.198486 23.7295V7.04523C0.198486 5.50947 1.44343 4.26453 2.97919 4.26453H27.0787C28.6144 4.26453 29.8594 5.50947 29.8594 7.04523V23.7295C29.8594 25.2652 28.6144 26.5102 27.0787 26.5102ZM6.68681 7.50869C4.8951 7.50869 3.44265 8.96114 3.44265 10.7528C3.44265 12.5445 4.8951 13.997 6.68681 13.997C8.47851 13.997 9.93097 12.5445 9.93097 10.7528C9.93097 8.96114 8.47851 7.50869 6.68681 7.50869ZM3.9061 22.8026H26.1518V16.3143L21.0819 11.2444C20.8104 10.9729 20.3703 10.9729 20.0987 11.2444L12.2482 19.095L9.03216 15.8789C8.76069 15.6074 8.32053 15.6074 8.04901 15.8789L3.9061 20.0219V22.8026Z" fill="black"/>
</g>
<defs>
<clipPath id="clip0_201_4995">
<rect width="29.6609" height="29.6609" fill="white" transform="translate(0.198486 0.556885)"/>
</clipPath>
</defs>
</svg>
