<svg width="27" height="31" viewBox="0 0 27 31" fill="none" xmlns="http://www.w3.org/2000/svg">
<g clip-path="url(#clip0_201_4989)">
<path d="M2.56087 21.9425L8.12228 16.3811C8.29598 16.2073 8.39355 15.9716 8.39355 15.7259C8.39355 15.4802 8.29598 15.2445 8.12228 15.0707L2.56087 9.50925C1.97924 8.92878 0.97876 9.34125 0.97876 10.165V21.2879C0.97876 22.1169 1.98271 22.5218 2.56087 21.9425ZM26.0051 24.9955H1.90566C1.65983 24.9955 1.42407 25.0931 1.25024 25.267C1.07642 25.4408 0.97876 25.6766 0.97876 25.9224L0.97876 27.7762C0.97876 28.022 1.07642 28.2578 1.25024 28.4316C1.42407 28.6054 1.65983 28.7031 1.90566 28.7031H26.0051C26.251 28.7031 26.4867 28.6054 26.6606 28.4316C26.8344 28.2578 26.932 28.022 26.932 27.7762V25.9224C26.932 25.6766 26.8344 25.4408 26.6606 25.267C26.4867 25.0931 26.251 24.9955 26.0051 24.9955ZM26.1888 17.5803H12.8449C12.7472 17.5802 12.6505 17.5994 12.5603 17.6367C12.4701 17.674 12.3882 17.7288 12.3191 17.7978C12.2501 17.8668 12.1953 17.9488 12.158 18.039C12.1207 18.1292 12.1015 18.2259 12.1016 18.3235V20.5446C12.1015 20.6422 12.1207 20.7389 12.158 20.8291C12.1953 20.9193 12.2501 21.0013 12.3191 21.0703C12.3882 21.1394 12.4701 21.1941 12.5603 21.2315C12.6505 21.2688 12.7472 21.2879 12.8449 21.2879H26.1888C26.2864 21.2879 26.3831 21.2688 26.4733 21.2315C26.5635 21.1941 26.6455 21.1394 26.7145 21.0703C26.7835 21.0013 26.8383 20.9193 26.8756 20.8291C26.9129 20.7389 26.9321 20.6422 26.932 20.5446V18.3235C26.9321 18.2259 26.9129 18.1292 26.8756 18.039C26.8383 17.9488 26.7835 17.8668 26.7145 17.7978C26.6455 17.7288 26.5635 17.674 26.4733 17.6367C26.3831 17.5994 26.2864 17.5802 26.1888 17.5803ZM26.1888 10.165H12.8449C12.7472 10.165 12.6505 10.1841 12.5603 10.2215C12.4701 10.2588 12.3882 10.3135 12.3191 10.3826C12.2501 10.4516 12.1953 10.5336 12.158 10.6238C12.1207 10.714 12.1015 10.8107 12.1016 10.9083V13.1294C12.1015 13.227 12.1207 13.3237 12.158 13.4139C12.1953 13.5041 12.2501 13.5861 12.3191 13.6551C12.3882 13.7242 12.4701 13.7789 12.5603 13.8162C12.6505 13.8536 12.7472 13.8727 12.8449 13.8727H26.1888C26.2864 13.8727 26.3831 13.8536 26.4733 13.8162C26.5635 13.7789 26.6455 13.7242 26.7145 13.6551C26.7835 13.5861 26.8383 13.5041 26.8756 13.4139C26.9129 13.3237 26.9321 13.227 26.932 13.1294V10.9083C26.9321 10.8107 26.9129 10.714 26.8756 10.6238C26.8383 10.5336 26.7835 10.4516 26.7145 10.3826C26.6455 10.3135 26.5635 10.2588 26.4733 10.2215C26.3831 10.1841 26.2864 10.165 26.1888 10.165ZM26.0051 2.74982H1.90566C1.65983 2.74982 1.42407 2.84747 1.25024 3.0213C1.07642 3.19513 0.97876 3.43089 0.97876 3.67672L0.97876 5.53053C0.97876 5.77636 1.07642 6.01212 1.25024 6.18594C1.42407 6.35977 1.65983 6.45743 1.90566 6.45743H26.0051C26.251 6.45743 26.4867 6.35977 26.6606 6.18594C26.8344 6.01212 26.932 5.77636 26.932 5.53053V3.67672C26.932 3.43089 26.8344 3.19513 26.6606 3.0213C26.4867 2.84747 26.251 2.74982 26.0051 2.74982Z" fill="black"/>
</g>
<defs>
<clipPath id="clip0_201_4989">
<rect width="25.9533" height="29.6609" fill="white" transform="translate(0.97876 0.895996)"/>
</clipPath>
</defs>
</svg>
