<svg width="30" height="31" viewBox="0 0 30 31" fill="none" xmlns="http://www.w3.org/2000/svg">
<g clip-path="url(#clip0_201_4983)">
<path d="M14.9217 1.35919C6.98757 1.35919 0.554688 7.79439 0.554688 15.7262C0.554688 23.6626 6.98757 30.0932 14.9217 30.0932C22.8558 30.0932 29.2887 23.6626 29.2887 15.7262C29.2887 7.79439 22.8558 1.35919 14.9217 1.35919ZM14.9217 7.73165C16.2655 7.73165 17.3548 8.82099 17.3548 10.1648C17.3548 11.5085 16.2655 12.5979 14.9217 12.5979C13.5779 12.5979 12.4886 11.5085 12.4886 10.1648C12.4886 8.82099 13.5779 7.73165 14.9217 7.73165ZM18.1658 22.4462C18.1658 22.8301 17.8546 23.1414 17.4707 23.1414H12.3727C11.9888 23.1414 11.6775 22.8301 11.6775 22.4462V21.0559C11.6775 20.672 11.9888 20.3607 12.3727 20.3607H13.0679V16.6531H12.3727C11.9888 16.6531 11.6775 16.3418 11.6775 15.9579V14.5676C11.6775 14.1836 11.9888 13.8724 12.3727 13.8724H16.0803C16.4642 13.8724 16.7755 14.1836 16.7755 14.5676V20.3607H17.4707C17.8546 20.3607 18.1658 20.672 18.1658 21.0559V22.4462Z" fill="black"/>
</g>
<defs>
<clipPath id="clip0_201_4983">
<rect width="29.6609" height="29.6609" fill="white" transform="translate(0.0909424 0.895996)"/>
</clipPath>
</defs>
</svg>
