<svg width="20" height="31" viewBox="0 0 20 31" fill="none" xmlns="http://www.w3.org/2000/svg">
<g clip-path="url(#clip0_201_4979)">
<path d="M19.3078 3.67648V5.53028C19.3078 5.77611 19.2102 6.01187 19.0363 6.1857C18.8625 6.35953 18.6268 6.45718 18.3809 6.45718H14.7452L10.1106 24.9952H12.8195C13.0653 24.9952 13.3011 25.0929 13.4749 25.2667C13.6488 25.4405 13.7464 25.6763 13.7464 25.9221V27.7759C13.7464 28.0218 13.6488 28.2575 13.4749 28.4314C13.3011 28.6052 13.0653 28.7029 12.8195 28.7029H1.69668C1.45085 28.7029 1.21509 28.6052 1.04126 28.4314C0.867431 28.2575 0.769775 28.0218 0.769775 27.7759V25.9221C0.769775 25.6763 0.867431 25.4405 1.04126 25.2667C1.21509 25.0929 1.45085 24.9952 1.69668 24.9952H5.33245L9.96697 6.45718H7.25809C7.01226 6.45718 6.7765 6.35953 6.60268 6.1857C6.42885 6.01187 6.33119 5.77611 6.33119 5.53028V3.67648C6.33119 3.43065 6.42885 3.19488 6.60268 3.02106C6.7765 2.84723 7.01226 2.74957 7.25809 2.74957H18.3809C18.6268 2.74957 18.8625 2.84723 19.0363 3.02106C19.2102 3.19488 19.3078 3.43065 19.3078 3.67648Z" fill="black"/>
</g>
<defs>
<clipPath id="clip0_201_4979">
<rect width="18.5381" height="29.6609" fill="white" transform="translate(0.77002 0.895996)"/>
</clipPath>
</defs>
</svg>
