<svg width="38" height="31" viewBox="0 0 38 31" fill="none" xmlns="http://www.w3.org/2000/svg">
<g clip-path="url(#clip0_201_4975)">
<path d="M26.4067 11.3871C27.7032 12.2955 28.4725 13.7716 28.4725 15.3606V17.1166C28.4725 17.3726 28.6799 17.58 28.9359 17.58H31.7166C31.9727 17.58 32.1801 17.3726 32.1801 17.1166V15.3606C32.1801 12.8557 30.963 10.5286 28.9162 9.10058C27.5369 8.13834 26.6187 6.65066 26.6187 4.96891V1.3592C26.6187 1.10315 26.4113 0.895752 26.1552 0.895752H23.3745C23.1185 0.895752 22.9111 1.10315 22.9111 1.3592V5.20585C22.9111 7.73687 24.3339 9.93479 26.4067 11.3871ZM11.9603 21.692C7.9665 22.3344 4.12333 23.7607 0.665405 25.9221C5.51137 28.9508 11.1104 30.5566 16.8248 30.5566H21.9558L15.4258 22.9381C14.5718 21.9417 13.2562 21.4834 11.9603 21.692ZM32.7177 5.941C32.3892 5.72086 32.1801 5.364 32.1801 4.96891V1.3592C32.1801 1.10315 31.9727 0.895752 31.7166 0.895752H28.9359C28.6799 0.895752 28.4725 1.10315 28.4725 1.3592V4.96891C28.4725 6.24456 29.0617 7.48371 30.1316 8.17773C32.5735 9.76158 34.0339 12.4554 34.0339 15.3606V17.1166C34.0339 17.3726 34.2413 17.58 34.4974 17.58H37.2781C37.5341 17.58 37.7415 17.3726 37.7415 17.1166V15.3606C37.7415 11.5696 35.864 8.05028 32.7177 5.941ZM21.5723 21.2905C19.5794 21.294 16.5432 21.2992 16.4621 21.3004L23.2865 29.2619C23.6345 29.668 24.0663 29.994 24.5521 30.2175C25.038 30.441 25.5665 30.5567 26.1014 30.5566H31.2254L24.3924 22.5853C24.0439 22.1784 23.6113 21.852 23.1244 21.6284C22.6375 21.4049 22.108 21.2896 21.5723 21.2905ZM36.3512 21.2876H25.6918L32.5271 29.2619C32.8751 29.668 33.3069 29.994 33.7928 30.2175C34.2787 30.441 34.8072 30.5567 35.342 30.5566H36.3512C37.1188 30.5566 37.7415 29.9339 37.7415 29.1663V22.678C37.7415 21.9098 37.1188 21.2876 36.3512 21.2876Z" fill="black"/>
</g>
<defs>
<clipPath id="clip0_201_4975">
<rect width="37.0761" height="29.6609" fill="white" transform="translate(0.665405 0.895996)"/>
</clipPath>
</defs>
</svg>
