<svg width="35" height="31" viewBox="0 0 35 31" fill="none" xmlns="http://www.w3.org/2000/svg">
<g clip-path="url(#clip0_201_4971)">
<path d="M32.7847 5.73371L19.1268 1.18145C17.9853 0.800844 16.7512 0.800844 15.6097 1.18145L1.95126 5.73371C1.58216 5.8568 1.26114 6.09289 1.03365 6.40855C0.806162 6.7242 0.68374 7.10342 0.683716 7.4925L0.683716 10.3317L16.0367 5.72559C16.9074 5.4649 17.8279 5.4649 18.7004 5.72559L34.0522 10.3317V7.4925C34.0522 6.69479 33.5418 5.98629 32.7847 5.73371ZM16.5697 7.50177L0.683716 12.2678V25.4982C0.683716 26.3671 1.28736 27.1191 2.13548 27.3079L16.1618 30.4247C16.9564 30.6013 17.7801 30.6013 18.5747 30.4247L32.601 27.3079C33.4492 27.1197 34.0528 26.3671 34.0528 25.4982V12.2672L18.168 7.50177C17.6443 7.3442 17.0911 7.3442 16.5697 7.50177ZM8.09894 14.2265C8.09894 14.4356 7.95932 14.6186 7.75772 14.6737L3.12321 15.9377C2.82834 16.0177 2.53752 15.7958 2.53752 15.4905V14.53C2.53752 14.3209 2.67714 14.1378 2.87874 14.0828L7.51325 12.8187C7.80812 12.7382 8.09894 12.9601 8.09894 13.2659V14.2265ZM16.4411 11.9509C16.4411 12.16 16.3014 12.3431 16.0998 12.3981L10.5384 13.9148C10.2436 13.9953 9.95274 13.7734 9.95274 13.4675V12.507C9.95274 12.2979 10.0924 12.1149 10.294 12.0598L15.8554 10.5432C16.1502 10.4626 16.4411 10.6845 16.4411 10.9904V11.9509ZM26.637 13.2659C26.637 12.9601 26.9278 12.7382 27.2227 12.8187L31.8572 14.0828C32.0588 14.1378 32.1984 14.3209 32.1984 14.53V15.4905C32.1984 15.7964 31.9076 16.0183 31.6127 15.9377L26.9782 14.6737C26.8801 14.6469 26.7936 14.5886 26.732 14.5078C26.6703 14.427 26.6369 14.3281 26.637 14.2265V13.2659ZM18.2949 10.991C18.2949 10.6851 18.5857 10.4632 18.8806 10.5438L24.442 12.0604C24.6436 12.1154 24.7832 12.2985 24.7832 12.5076V13.4681C24.7832 13.774 24.4924 13.9959 24.1975 13.9154L18.6361 12.3987C18.538 12.3719 18.4515 12.3136 18.3898 12.2328C18.3282 12.152 18.2948 12.0531 18.2949 11.9515V10.991Z" fill="black"/>
</g>
<defs>
<clipPath id="clip0_201_4971">
<rect width="33.3685" height="29.6609" fill="white" transform="translate(0.683594 0.895996)"/>
</clipPath>
</defs>
</svg>
