<svg width="34" height="31" viewBox="0 0 34 31" fill="none" xmlns="http://www.w3.org/2000/svg">
<g clip-path="url(#clip0_201_4967)">
<path d="M30.5819 26.849H2.77485C1.23909 26.849 -0.00585938 25.6041 -0.00585938 24.0683V7.38404C-0.00585938 5.84828 1.23909 4.60333 2.77485 4.60333H30.5819C32.1177 4.60333 33.3626 5.84828 33.3626 7.38404V24.0683C33.3626 25.6041 32.1177 26.849 30.5819 26.849ZM7.40936 11.3234V9.00612C7.40936 8.62221 7.0981 8.31094 6.71419 8.31094H4.39693C4.01302 8.31094 3.70175 8.62221 3.70175 9.00612V11.3234C3.70175 11.7073 4.01302 12.0186 4.39693 12.0186H6.71419C7.0981 12.0186 7.40936 11.7073 7.40936 11.3234ZM12.9708 11.3234V9.00612C12.9708 8.62221 12.6595 8.31094 12.2756 8.31094H9.95835C9.57443 8.31094 9.26317 8.62221 9.26317 9.00612V11.3234C9.26317 11.7073 9.57443 12.0186 9.95835 12.0186H12.2756C12.6595 12.0186 12.9708 11.7073 12.9708 11.3234ZM18.5322 11.3234V9.00612C18.5322 8.62221 18.2209 8.31094 17.837 8.31094H15.5198C15.1359 8.31094 14.8246 8.62221 14.8246 9.00612V11.3234C14.8246 11.7073 15.1359 12.0186 15.5198 12.0186H17.837C18.2209 12.0186 18.5322 11.7073 18.5322 11.3234ZM24.0936 11.3234V9.00612C24.0936 8.62221 23.7823 8.31094 23.3984 8.31094H21.0812C20.6973 8.31094 20.386 8.62221 20.386 9.00612V11.3234C20.386 11.7073 20.6973 12.0186 21.0812 12.0186H23.3984C23.7823 12.0186 24.0936 11.7073 24.0936 11.3234ZM29.655 11.3234V9.00612C29.655 8.62221 29.3438 8.31094 28.9599 8.31094H26.6426C26.2587 8.31094 25.9474 8.62221 25.9474 9.00612V11.3234C25.9474 11.7073 26.2587 12.0186 26.6426 12.0186H28.9599C29.3438 12.0186 29.655 11.7073 29.655 11.3234ZM10.1901 16.8848V14.5675C10.1901 14.1836 9.87881 13.8724 9.49489 13.8724H7.17764C6.79373 13.8724 6.48246 14.1836 6.48246 14.5675V16.8848C6.48246 17.2687 6.79373 17.58 7.17764 17.58H9.49489C9.87881 17.58 10.1901 17.2687 10.1901 16.8848ZM15.7515 16.8848V14.5675C15.7515 14.1836 15.4402 13.8724 15.0563 13.8724H12.7391C12.3551 13.8724 12.0439 14.1836 12.0439 14.5675V16.8848C12.0439 17.2687 12.3551 17.58 12.7391 17.58H15.0563C15.4402 17.58 15.7515 17.2687 15.7515 16.8848ZM21.3129 16.8848V14.5675C21.3129 14.1836 21.0016 13.8724 20.6177 13.8724H18.3005C17.9166 13.8724 17.6053 14.1836 17.6053 14.5675V16.8848C17.6053 17.2687 17.9166 17.58 18.3005 17.58H20.6177C21.0016 17.58 21.3129 17.2687 21.3129 16.8848ZM26.8743 16.8848V14.5675C26.8743 14.1836 26.5631 13.8724 26.1791 13.8724H23.8619C23.478 13.8724 23.1667 14.1836 23.1667 14.5675V16.8848C23.1667 17.2687 23.478 17.58 23.8619 17.58H26.1791C26.5631 17.58 26.8743 17.2687 26.8743 16.8848ZM7.40936 22.4462V20.129C7.40936 19.745 7.0981 19.4338 6.71419 19.4338H4.39693C4.01302 19.4338 3.70175 19.745 3.70175 20.129V22.4462C3.70175 22.8301 4.01302 23.1414 4.39693 23.1414H6.71419C7.0981 23.1414 7.40936 22.8301 7.40936 22.4462ZM24.0936 22.4462V20.129C24.0936 19.745 23.7823 19.4338 23.3984 19.4338H9.95835C9.57443 19.4338 9.26317 19.745 9.26317 20.129V22.4462C9.26317 22.8301 9.57443 23.1414 9.95835 23.1414H23.3984C23.7823 23.1414 24.0936 22.8301 24.0936 22.4462ZM29.655 22.4462V20.129C29.655 19.745 29.3438 19.4338 28.9599 19.4338H26.6426C26.2587 19.4338 25.9474 19.745 25.9474 20.129V22.4462C25.9474 22.8301 26.2587 23.1414 26.6426 23.1414H28.9599C29.3438 23.1414 29.655 22.8301 29.655 22.4462Z" fill="black"/>
</g>
<defs>
<clipPath id="clip0_201_4967">
<rect width="33.3685" height="29.6609" fill="white" transform="translate(-0.0057373 0.895996)"/>
</clipPath>
</defs>
</svg>
