<svg width="31" height="31" viewBox="0 0 31 31" fill="none" xmlns="http://www.w3.org/2000/svg">
<g clip-path="url(#clip0_201_4965)">
<path d="M24.5919 4.71923C24.2228 4.51647 23.7594 4.58425 23.4703 4.89418C23.3288 5.04354 23.241 5.23581 23.221 5.44061C23.201 5.6454 23.2498 5.85104 23.3597 6.025C24.315 7.54049 24.8195 9.29175 24.8195 11.0888C24.8085 14.1736 23.2687 17.0378 20.6908 18.7595L16.2515 21.8501V20.6857L18.8034 18.595C19.0304 18.3516 19.093 18.0104 18.9661 17.7098L18.5114 16.711C20.4718 15.5953 21.81 13.5103 21.81 11.0923C21.81 8.72924 20.5343 6.68194 18.6475 5.54765L18.9499 4.88491C19.0855 4.56455 19.0038 4.19958 18.7431 3.95569L15.3257 0.895752L11.9084 3.95511C11.6477 4.199 11.5666 4.56397 11.7015 4.88433L12.0039 5.54707C10.1171 6.68136 8.84147 8.72924 8.84147 11.0923C8.84147 13.5109 10.1791 15.5953 12.1401 16.711L11.6853 17.7098C11.5585 18.0099 11.6216 18.3511 11.8481 18.595L14.4 20.6857V21.8385L9.96302 18.7491C7.39839 17.0366 5.85858 14.1731 5.84815 11.0917C5.84815 9.29117 6.35273 7.53991 7.30802 6.02442C7.53222 5.66756 7.44706 5.22671 7.15798 4.91909C6.86832 4.60974 6.36548 4.55991 5.99819 4.76267C1.44884 7.24504 -0.788474 12.7891 1.27736 18.0429C1.68694 19.0851 2.31375 20.0346 3.04195 20.885L6.28437 24.6714C6.5665 25.001 7.0398 25.0908 7.42273 24.8869L12.0196 22.4404L13.7118 23.6182L10.9844 25.5172C10.8876 25.4958 10.7972 25.4587 10.6941 25.4587C9.92652 25.4587 9.30434 26.0809 9.30434 26.849C9.30434 27.6166 9.92652 28.2394 10.6941 28.2394C11.3951 28.2394 11.9506 27.7116 12.0457 27.0367L14.3994 25.3984V27.1335C13.8554 27.4562 13.4731 28.0245 13.4731 28.7034C13.4731 29.7271 14.3027 30.5572 15.3257 30.5572C16.3488 30.5572 17.1784 29.7271 17.1784 28.7034C17.1784 28.025 16.7955 27.4567 16.2521 27.1335V25.3868L18.622 27.0367C18.7176 27.7116 19.2732 28.2394 19.9736 28.2394C20.7412 28.2394 21.3633 27.6166 21.3633 26.849C21.3633 26.0809 20.7412 25.4587 19.9736 25.4587C19.8705 25.4587 19.7801 25.4958 19.6833 25.5172L16.9559 23.6182L18.6481 22.4399L23.245 24.8863C23.6279 25.0902 24.1012 25.0004 24.3833 24.6714L27.4253 21.1196C28.5185 19.844 29.395 18.3679 29.815 16.7406C31.0674 11.894 28.862 7.05039 24.5919 4.71923ZM19.031 11.0917C19.031 12.3836 18.3654 13.5202 17.3609 14.1841L17.0336 13.4651C16.5266 12.0447 16.5266 10.5083 17.0336 9.08783L17.4872 8.09257C18.4181 8.76747 19.031 9.85658 19.031 11.0917ZM11.6199 11.0917C11.6199 9.85658 12.2328 8.76747 13.1643 8.09315L13.6179 9.08841C14.1248 10.5089 14.1248 12.0447 13.6179 13.4657L13.2906 14.1846C12.2861 13.5207 11.6199 12.3836 11.6199 11.0917Z" fill="black"/>
</g>
<defs>
<clipPath id="clip0_201_4965">
<rect width="29.6609" height="29.6609" fill="white" transform="translate(0.503418 0.895996)"/>
</clipPath>
</defs>
</svg>
