<svg width="31" height="31" viewBox="0 0 31 31" fill="none" xmlns="http://www.w3.org/2000/svg">
<g clip-path="url(#clip0_201_4961)">
<path d="M29.9413 24.2131C29.4778 23.0082 28.1165 22.3883 26.8651 22.7127L26.3785 22.8402L26.2453 22.3535C25.9035 21.1138 24.6811 20.239 23.4066 20.4418C21.9468 20.6735 21.0546 22.0986 21.437 23.489L22.7636 28.2741C22.8505 28.5812 23.1691 28.7666 23.4819 28.6854L28.2903 27.4399C29.6864 27.075 30.4743 25.5977 29.9413 24.2131ZM19.6527 23.9814C19.3283 22.8054 19.5194 21.5483 20.1741 20.5229C21.8946 17.8407 25.8919 17.887 27.5777 20.772C27.9485 20.7778 28.3076 20.8531 28.6552 20.94C29.2867 19.3237 29.6459 17.5684 29.6459 15.7262C29.6459 7.78958 23.2155 1.35919 15.2789 1.35919C7.34225 1.35919 0.911865 7.78958 0.911865 15.7262C0.911865 23.6628 7.34225 30.0932 15.2789 30.0932C17.3296 30.0932 19.2703 29.6587 21.0372 28.8824C21.0199 28.8419 19.6527 23.9814 19.6527 23.9814ZM10.6443 14.7993C9.61896 14.7993 8.79054 13.9709 8.79054 12.9455C8.79054 11.9201 9.61896 11.0917 10.6443 11.0917C11.6697 11.0917 12.4981 11.9201 12.4981 12.9455C12.4981 13.9709 11.6697 14.7993 10.6443 14.7993ZM17.5961 23.8366C17.5961 24.9489 15.9335 26.2407 13.454 26.3856C12.9616 26.4319 12.753 25.702 13.2455 25.4934L14.2303 25.0763C14.9834 24.7577 15.4353 24.2942 15.4353 23.8308C15.4353 23.3673 14.9834 22.9039 14.2303 22.5853L13.2455 22.1682C12.8979 22.0233 12.9153 21.4556 13.2455 21.3108L14.2303 20.8937C14.9834 20.575 15.4353 20.1116 15.4353 19.6481C15.4353 19.1847 14.9834 18.7212 14.2303 18.4026L13.2455 17.9855C12.7357 17.7712 12.979 17.0239 13.454 17.0934C15.9335 17.2382 17.5961 18.5301 17.5961 19.6424C17.5961 20.3955 16.8198 21.2239 15.5569 21.7279C16.8198 22.2551 17.5961 23.0835 17.5961 23.8366ZM18.523 13.4669C18.0422 13.8956 17.2717 13.49 17.376 12.8412C17.6077 11.3813 19.3572 10.4023 20.8461 10.4023C22.3349 10.4023 24.0844 11.3813 24.3162 12.8412C24.4146 13.4842 23.6615 13.9013 23.1691 13.4669L22.6188 12.9744C21.7614 12.2097 19.9423 12.2097 19.085 12.9744L18.523 13.4669Z" fill="black"/>
</g>
<defs>
<clipPath id="clip0_201_4961">
<rect width="29.1974" height="29.6609" fill="white" transform="translate(0.911865 0.895996)"/>
</clipPath>
</defs>
</svg>
