<svg width="30" height="31" viewBox="0 0 30 31" fill="none" xmlns="http://www.w3.org/2000/svg">
<g clip-path="url(#clip0_201_4959)">
<path d="M14.7149 1.35919C6.77829 1.35919 0.3479 7.78958 0.3479 15.7262C0.3479 23.6628 6.77829 30.0932 14.7149 30.0932C22.6515 30.0932 29.0819 23.6628 29.0819 15.7262C29.0819 7.78958 22.6515 1.35919 14.7149 1.35919ZM10.0804 14.7993C9.05499 14.7993 8.22657 13.9709 8.22657 12.9455C8.22657 11.9201 9.05499 11.0917 10.0804 11.0917C11.1058 11.0917 11.9342 11.9201 11.9342 12.9455C11.9342 13.9709 11.1058 14.7993 10.0804 14.7993ZM17.9591 23.8366C17.9591 24.9489 16.2964 26.2407 13.817 26.3856C13.3245 26.4319 13.116 25.702 13.6084 25.4934L14.5932 25.0763C15.3463 24.7577 15.7982 24.2942 15.7982 23.8308C15.7982 23.3673 15.3463 22.9039 14.5932 22.5853L13.6084 22.1682C13.2608 22.0233 13.255 21.4614 13.6084 21.3108L14.5932 20.8937C15.3463 20.575 15.7982 20.1116 15.7982 19.6481C15.7982 19.1847 15.3463 18.7212 14.5932 18.4026L13.6084 17.9855C13.1102 17.777 13.3303 17.0296 13.817 17.0934C16.2964 17.2382 17.9591 18.5301 17.9591 19.6424C17.9591 20.3955 17.1828 21.2239 15.9199 21.7279C17.1828 22.2551 17.9591 23.0835 17.9591 23.8366ZM19.3494 14.7993C18.324 14.7993 17.4956 13.9709 17.4956 12.9455C17.4956 11.9201 18.324 11.0917 19.3494 11.0917C20.3748 11.0917 21.2032 11.9201 21.2032 12.9455C21.2032 13.9709 20.3748 14.7993 19.3494 14.7993Z" fill="black"/>
</g>
<defs>
<clipPath id="clip0_201_4959">
<rect width="28.734" height="29.6609" fill="white" transform="translate(0.3479 0.895996)"/>
</clipPath>
</defs>
</svg>
