<svg width="31" height="31" viewBox="0 0 31 31" fill="none" xmlns="http://www.w3.org/2000/svg">
<g clip-path="url(#clip0_201_4955)">
<path d="M29.7181 6.23181L16.1402 1.01393C15.7206 0.856359 15.258 0.856359 14.8384 1.01393L1.2599 6.23181C1.08327 6.29809 0.931059 6.41668 0.82361 6.57174C0.716161 6.72681 0.658583 6.91097 0.658569 7.09963V9.23787C0.658569 9.74999 1.07336 10.1648 1.58547 10.1648H29.3926C29.9047 10.1648 30.3195 9.74999 30.3195 9.23787V7.09963C30.3195 6.71322 30.0796 6.36737 29.7181 6.23181ZM4.36618 12.0186V21.2876H3.43928C2.92716 21.2876 2.51237 21.7024 2.51237 22.2145V24.9952H28.4657V22.2145C28.4657 21.7024 28.0509 21.2876 27.5387 21.2876H26.6118V12.0186H22.9042V21.2876H17.3428V12.0186H13.6352V21.2876H8.07379V12.0186H4.36618ZM29.3926 26.849H1.58547C1.07336 26.849 0.658569 27.2638 0.658569 27.7759V29.6297C0.658569 30.1418 1.07336 30.5566 1.58547 30.5566H29.3926C29.9047 30.5566 30.3195 30.1418 30.3195 29.6297V27.7759C30.3195 27.2638 29.9047 26.849 29.3926 26.849Z" fill="black"/>
</g>
<defs>
<clipPath id="clip0_201_4955">
<rect width="29.6609" height="29.6609" fill="white" transform="translate(0.658569 0.895996)"/>
</clipPath>
</defs>
</svg>
