<svg width="38" height="31" viewBox="0 0 38 31" fill="none" xmlns="http://www.w3.org/2000/svg">
<g clip-path="url(#clip0_201_4953)">
<path d="M9.56381 14.5791C9.36105 13.8781 9.11195 12.6558 9.11195 12.6558H9.08298C9.08298 12.6558 8.83387 13.8781 8.63111 14.5791L7.98808 16.7515H10.1953L9.56381 14.5791ZM36.4382 6.45709H20.2174V24.9951H36.4382C37.2087 24.9951 37.8286 24.3753 37.8286 23.6048V7.84745C37.8286 7.07696 37.2087 6.45709 36.4382 6.45709ZM35.0478 13.4089C35.0478 13.7912 34.735 14.104 34.3527 14.104H33.6922C33.2925 15.4712 32.4351 16.85 31.2186 18.1534C31.7052 18.5242 32.2092 18.8776 32.7306 19.1962C33.0492 19.3932 33.1535 19.8045 32.9681 20.1347L32.5104 20.9399C32.3135 21.2817 31.879 21.3918 31.543 21.1891C30.8131 20.7372 30.1237 20.2564 29.4922 19.7466C28.8608 20.2506 28.1772 20.7372 27.4414 21.1891C27.1054 21.3918 26.671 21.2817 26.474 20.9399L26.0163 20.1347C25.831 19.8103 25.9352 19.3932 26.2596 19.1962C26.7984 18.866 27.3024 18.5184 27.7717 18.1534C27.314 17.6668 26.9085 17.1686 26.5551 16.6646C26.3234 16.3344 26.4276 15.8767 26.7694 15.674L27.146 15.448L27.5689 15.1989C27.8817 15.0136 28.2872 15.1005 28.4958 15.3959C28.7855 15.8014 29.1215 16.207 29.5038 16.6067C30.2859 15.7841 30.8826 14.9325 31.2417 14.104H24.6202C24.2378 14.104 23.925 13.7912 23.925 13.4089V12.482C23.925 12.0996 24.2378 11.7868 24.6202 11.7868H28.3278V10.8599C28.3278 10.4775 28.6406 10.1647 29.023 10.1647H29.9499C30.3322 10.1647 30.6451 10.4775 30.6451 10.8599V11.7868H34.3527C34.735 11.7868 35.0478 12.0996 35.0478 12.482V13.4089ZM0.752441 7.84745V23.6048C0.752441 24.3753 1.37231 24.9951 2.1428 24.9951H18.3636V6.45709H2.1428C1.37231 6.45709 0.752441 7.07696 0.752441 7.84745ZM4.1646 20.3664L7.49566 10.5702C7.59414 10.2864 7.85483 10.101 8.15608 10.101H10.0388C10.3343 10.101 10.6008 10.2922 10.6993 10.5702L14.0303 20.3664C14.1809 20.8183 13.8507 21.2875 13.3699 21.2875H12.0433C11.8934 21.2874 11.7475 21.2389 11.6274 21.1491C11.5074 21.0593 11.4195 20.9331 11.3771 20.7893L10.8325 18.9413H7.34504L6.81786 20.7835C6.73096 21.079 6.45869 21.2875 6.15165 21.2875H4.82502C4.34998 21.2875 4.01398 20.8183 4.1646 20.3664Z" fill="black"/>
</g>
<defs>
<clipPath id="clip0_201_4953">
<rect width="37.0761" height="29.6609" fill="white" transform="translate(0.752441 0.895996)"/>
</clipPath>
</defs>
</svg>
