<svg width="39" height="31" viewBox="0 0 39 31" fill="none" xmlns="http://www.w3.org/2000/svg">
<g clip-path="url(#clip0_201_4949)">
<path d="M16.6975 17.58H12.9899C12.7441 17.58 12.5083 17.4823 12.3345 17.3085C12.1607 17.1347 12.063 16.8989 12.063 16.6531V12.9455C12.063 12.6997 12.1607 12.4639 12.3345 12.2901C12.5083 12.1162 12.7441 12.0186 12.9899 12.0186H16.6975C16.9434 12.0186 17.1791 12.1162 17.353 12.2901C17.5268 12.4639 17.6244 12.6997 17.6244 12.9455V15.0959C18.2681 14.3497 19.1886 13.8724 20.2198 13.8724H28.1529L28.5381 13.4362C28.6636 13.2797 28.7368 13.0878 28.7473 12.8876C28.7341 12.6558 28.6362 12.437 28.4721 12.2729L25.0397 9.23788V3.67646C25.0397 3.43063 24.942 3.19487 24.7682 3.02104C24.5943 2.84721 24.3586 2.74956 24.1128 2.74956H22.2589C22.0131 2.74956 21.7774 2.84721 21.6035 3.02104C21.4297 3.19487 21.332 3.43063 21.332 3.67646V5.95317L16.2051 1.4125C15.8865 1.12748 15.2753 0.895752 14.8466 0.895752C14.4179 0.895752 13.8079 1.12748 13.487 1.4125L1.2171 12.2746C1.05201 12.4376 0.953326 12.656 0.940186 12.8876C0.950192 13.0859 1.02212 13.2762 1.14584 13.4315L2.23437 14.6661C2.39868 14.8319 2.61882 14.9306 2.85192 14.943C3.04874 14.9331 3.23772 14.8627 3.393 14.7414L4.6478 13.6337V23.1414C4.6478 23.6331 4.84311 24.1046 5.19076 24.4523C5.53842 24.7999 6.00994 24.9952 6.5016 24.9952H16.6975V17.58ZM37.3982 26.849H35.2356V17.58C35.2356 16.5564 34.4889 15.7262 33.5672 15.7262H20.2198C19.2981 15.7262 18.5513 16.5564 18.5513 17.58V26.849H16.3888C16.2248 26.849 16.0676 26.9142 15.9517 27.0301C15.8358 27.146 15.7706 27.3032 15.7706 27.4672V28.0847C15.7729 28.7389 16.0335 29.3657 16.4957 29.8287C16.9579 30.2916 17.5843 30.5533 18.2385 30.5566H35.5484C36.2026 30.5533 36.829 30.2916 37.2912 29.8287C37.7534 29.3657 38.014 28.7389 38.0163 28.0847V27.4672C38.0163 27.3032 37.9512 27.146 37.8353 27.0301C37.7193 26.9142 37.5621 26.849 37.3982 26.849ZM32.4549 26.849H21.332V18.5069H32.4549V26.849Z" fill="black"/>
</g>
<defs>
<clipPath id="clip0_201_4949">
<rect width="37.0761" height="29.6609" fill="white" transform="translate(0.940186 0.895996)"/>
</clipPath>
</defs>
</svg>
