<svg width="38" height="31" viewBox="0 0 38 31" fill="none" xmlns="http://www.w3.org/2000/svg">
<g clip-path="url(#clip0_201_4945)">
<path d="M36.2771 24.9952H22.2311C22.1882 26.1428 21.3789 26.849 20.3344 26.849H16.8122C15.7294 26.849 14.8993 25.837 14.9138 24.9952H1.05483C0.545036 24.9952 0.12793 25.4123 0.12793 25.9221V26.849C0.12793 28.8882 1.79635 30.5566 3.83554 30.5566H33.4964C35.5356 30.5566 37.204 28.8882 37.204 26.849V25.9221C37.204 25.4123 36.7869 24.9952 36.2771 24.9952ZM33.4964 3.67646C33.4964 2.14707 32.2451 0.895752 30.7157 0.895752H6.61625C5.08686 0.895752 3.83554 2.14707 3.83554 3.67646V23.1414H33.4964V3.67646ZM29.7888 19.4338H7.54315V4.60336H29.7888V19.4338Z" fill="black"/>
</g>
<defs>
<clipPath id="clip0_201_4945">
<rect width="37.0761" height="29.6609" fill="white" transform="translate(0.12793 0.895996)"/>
</clipPath>
</defs>
</svg>
