<svg width="38" height="31" viewBox="0 0 38 31" fill="none" xmlns="http://www.w3.org/2000/svg">
<g clip-path="url(#clip0_201_4947)">
<path d="M13.4741 13.8724H16.7183V17.1166C16.7183 17.2395 16.7671 17.3573 16.854 17.4443C16.941 17.5312 17.0588 17.58 17.1818 17.58H19.9625C20.0854 17.58 20.2033 17.5312 20.2902 17.4443C20.3771 17.3573 20.4259 17.2395 20.4259 17.1166V13.8724H23.6701C23.793 13.8724 23.9109 13.8236 23.9978 13.7366C24.0847 13.6497 24.1335 13.5319 24.1335 13.4089V10.6282C24.1335 10.5053 24.0847 10.3874 23.9978 10.3005C23.9109 10.2136 23.793 10.1648 23.6701 10.1648H20.4259V6.92062C20.4259 6.79771 20.3771 6.67982 20.2902 6.59291C20.2033 6.506 20.0854 6.45717 19.9625 6.45717H17.1818C17.0588 6.45717 16.941 6.506 16.854 6.59291C16.7671 6.67982 16.7183 6.79771 16.7183 6.92062V10.1648H13.4741C13.3512 10.1648 13.2334 10.2136 13.1464 10.3005C13.0595 10.3874 13.0107 10.5053 13.0107 10.6282V13.4089C13.0107 13.5319 13.0595 13.6497 13.1464 13.7366C13.2334 13.8236 13.3512 13.8724 13.4741 13.8724ZM33.4026 3.67646C33.4004 2.93963 33.1068 2.23359 32.5857 1.71257C32.0647 1.19155 31.3587 0.897892 30.6218 0.895752L6.52238 0.895752C5.78555 0.897892 5.0795 1.19155 4.55848 1.71257C4.03746 2.23359 3.74381 2.93963 3.74167 3.67646V23.1414H33.4026V3.67646ZM29.6949 19.4338H7.44928V4.60336H29.6949V19.4338ZM36.1833 24.9952H22.1372C22.0943 26.1428 21.285 26.849 20.2405 26.849H16.7183C15.6356 26.849 14.8066 25.837 14.8199 24.9952H0.96096C0.715131 24.9952 0.479369 25.0929 0.305541 25.2667C0.131713 25.4405 0.0340576 25.6763 0.0340576 25.9221L0.0340576 26.849C0.0369613 27.8315 0.428516 28.7728 1.1232 29.4675C1.81788 30.1622 2.75924 30.5537 3.74167 30.5566H33.4026C34.385 30.5537 35.3263 30.1622 36.021 29.4675C36.7157 28.7728 37.1073 27.8315 37.1102 26.849V25.9221C37.1102 25.6763 37.0125 25.4405 36.8387 25.2667C36.6649 25.0929 36.4291 24.9952 36.1833 24.9952Z" fill="black"/>
</g>
<defs>
<clipPath id="clip0_201_4947">
<rect width="37.0761" height="29.6609" fill="white" transform="translate(0.0340576 0.895996)"/>
</clipPath>
</defs>
</svg>
