<svg width="38" height="31" viewBox="0 0 38 31" fill="none" xmlns="http://www.w3.org/2000/svg">
<g clip-path="url(#clip0_201_4951)">
<path d="M15.6206 16.0536C15.9826 16.4156 16.5695 16.4156 16.9316 16.0536L17.5868 15.3984C17.9488 15.0363 17.9488 14.4494 17.5868 14.0874L15.5174 12.0186L17.5862 9.94934C17.9482 9.58726 17.9482 9.00042 17.5862 8.63835L16.931 7.98314C16.5689 7.62107 15.9821 7.62107 15.62 7.98314L12.2403 11.3629C11.8782 11.7249 11.8782 12.3118 12.2403 12.6739L15.6206 16.0536ZM21.1826 15.3989L21.8378 16.0541C22.1998 16.4162 22.7867 16.4162 23.1488 16.0541L26.5285 12.6744C26.8905 12.3124 26.8905 11.7255 26.5285 11.3634L23.1488 7.98372C22.7867 7.62165 22.1998 7.62165 21.8378 7.98372L21.1826 8.63893C20.8205 9.001 20.8205 9.58784 21.1826 9.94991L23.2513 12.0186L21.1826 14.088C20.8205 14.45 20.8205 15.0369 21.1826 15.3989ZM36.9955 24.9953H22.9495C22.9066 26.1429 22.0973 26.8491 21.0528 26.8491H17.5306C16.4478 26.8491 15.6177 25.837 15.6322 24.9953H1.77322C1.26342 24.9953 0.846313 25.4124 0.846313 25.9222V26.8491C0.846313 28.8883 2.51474 30.5567 4.55392 30.5567H34.2148C36.254 30.5567 37.9224 28.8883 37.9224 26.8491V25.9222C37.9224 25.4124 37.5053 24.9953 36.9955 24.9953ZM34.2148 3.67652C34.2148 2.14713 32.9635 0.895813 31.4341 0.895813H7.33463C5.80524 0.895813 4.55392 2.14713 4.55392 3.67652V23.1415H34.2148V3.67652ZM30.5072 19.4339H8.26154V4.60342H30.5072V19.4339Z" fill="black"/>
</g>
<defs>
<clipPath id="clip0_201_4951">
<rect width="37.0761" height="29.6609" fill="white" transform="translate(0.846313 0.895996)"/>
</clipPath>
</defs>
</svg>
