<svg width="30" height="30" viewBox="0 0 30 30" fill="none" xmlns="http://www.w3.org/2000/svg">
<g clip-path="url(#clip0_201_4939)">
<path d="M15.2261 0.698303C7.28952 0.698303 0.859131 7.12869 0.859131 15.0653C0.859131 23.0019 7.28952 29.4323 15.2261 29.4323C23.1627 29.4323 29.5931 23.0019 29.5931 15.0653C29.5931 7.12869 23.1627 0.698303 15.2261 0.698303ZM16.3905 12.1745C16.6223 10.7146 18.3718 9.73561 19.8606 9.73561C21.3495 9.73561 23.099 10.7146 23.3307 12.1745C23.4292 12.8176 22.6703 13.2347 22.1837 12.8002L21.6333 12.3078C20.776 11.5431 18.9569 11.5431 18.0995 12.3078L17.5434 12.806C17.0568 13.2347 16.2921 12.8234 16.3905 12.1745ZM10.5916 9.50388C11.617 9.50388 12.4454 10.3323 12.4454 11.3577C12.4454 12.3831 11.617 13.2115 10.5916 13.2115C9.56622 13.2115 8.7378 12.3831 8.7378 11.3577C8.7378 10.3323 9.56622 9.50388 10.5916 9.50388ZM23.968 17.9619C23.4524 22.075 19.9417 25.2612 15.6896 25.2612H14.7627C10.5105 25.2612 6.99986 22.075 6.48427 17.9619C6.41475 17.4115 6.84924 16.9191 7.40538 16.9191H23.0469C23.603 16.9191 24.0375 17.4057 23.968 17.9619Z" fill="black"/>
</g>
<defs>
<clipPath id="clip0_201_4939">
<rect width="28.734" height="29.6609" fill="white" transform="translate(0.859131 0.235107)"/>
</clipPath>
</defs>
</svg>
