<svg width="29" height="31" viewBox="0 0 29 31" fill="none" xmlns="http://www.w3.org/2000/svg">
<g clip-path="url(#clip0_201_4941)">
<path d="M14.3672 1.35919C6.43063 1.35919 0.000244141 7.78958 0.000244141 15.7262C0.000244141 23.6628 6.43063 30.0932 14.3672 30.0932C22.3038 30.0932 28.7342 23.6628 28.7342 15.7262C28.7342 7.78958 22.3038 1.35919 14.3672 1.35919ZM16.3253 10.7267L20.9598 7.94599C21.6318 7.54627 22.3502 8.39207 21.852 8.98876L19.9055 11.3234L21.852 13.658C22.356 14.2605 21.626 15.0947 20.9598 14.7008L16.3253 11.9201C15.8792 11.6478 15.8792 10.999 16.3253 10.7267ZM6.8825 8.98876C6.38429 8.39207 7.10264 7.54627 7.77464 7.94599L12.4092 10.7267C12.861 10.999 12.861 11.6478 12.4092 11.9201L7.77464 14.7008C7.10843 15.0947 6.38429 14.2605 6.8825 13.658L8.82899 11.3234L6.8825 8.98876ZM23.1091 18.6228C22.5935 22.7359 19.0829 25.9221 14.8307 25.9221H13.9038C9.65162 25.9221 6.14098 22.7359 5.62539 18.6228C5.55587 18.0724 5.99035 17.58 6.5465 17.58H22.188C22.7441 17.58 23.1786 18.0666 23.1091 18.6228Z" fill="black"/>
</g>
<defs>
<clipPath id="clip0_201_4941">
<rect width="28.734" height="29.6609" fill="white" transform="translate(0 0.895996)"/>
</clipPath>
</defs>
</svg>
