<svg width="30" height="31" viewBox="0 0 30 31" fill="none" xmlns="http://www.w3.org/2000/svg">
<g clip-path="url(#clip0_201_4943)">
<path d="M14.931 1.35919C6.99435 1.35919 0.563965 7.78958 0.563965 15.7262C0.563965 23.6628 6.99435 30.0932 14.931 30.0932C22.8676 30.0932 29.298 23.6628 29.298 15.7262C29.298 7.78958 22.8676 1.35919 14.931 1.35919ZM16.3213 12.9107C16.5125 10.4718 18.1867 8.77441 19.5655 8.77441C20.9442 8.77441 22.6185 10.4718 22.8096 12.9107C22.8502 13.4089 22.184 13.6001 21.9465 13.1714L21.3961 12.1866C20.95 11.3929 20.2838 10.9353 19.5713 10.9353C18.8587 10.9353 18.1925 11.3929 17.7464 12.1866L17.1961 13.1714C16.9528 13.6001 16.2808 13.4089 16.3213 12.9107ZM7.05228 12.9107C7.24346 10.4718 8.91768 8.77441 10.2964 8.77441C11.6752 8.77441 13.3494 10.4718 13.5406 12.9107C13.5812 13.4089 12.9149 13.6001 12.6774 13.1714L12.1271 12.1866C11.681 11.3929 11.0148 10.9353 10.3022 10.9353C9.58968 10.9353 8.92347 11.3929 8.4774 12.1866L7.92705 13.1714C7.67794 13.6001 7.01173 13.4031 7.05228 12.9107ZM23.6728 18.6228C23.1572 22.7359 19.6466 25.9221 15.3944 25.9221H14.4675C10.2153 25.9221 6.7047 22.7359 6.18911 18.6228C6.11959 18.0724 6.55407 17.58 7.11022 17.58H22.7517C23.3078 17.58 23.7423 18.0666 23.6728 18.6228Z" fill="black"/>
</g>
<defs>
<clipPath id="clip0_201_4943">
<rect width="28.734" height="29.6609" fill="white" transform="translate(0.563965 0.895996)"/>
</clipPath>
</defs>
</svg>
