<svg width="31" height="30" viewBox="0 0 31 30" fill="none" xmlns="http://www.w3.org/2000/svg">
<g clip-path="url(#clip0_201_4935)">
<path d="M1.5234 8.80988L15.0179 14.9315C15.4119 15.1105 15.8574 15.1105 16.2513 14.9315L29.7458 8.80988C30.7046 8.37481 30.7046 6.92595 29.7458 6.49088L16.2519 0.36869C16.0583 0.280223 15.848 0.234436 15.6352 0.234436C15.4224 0.234436 15.2121 0.280223 15.0185 0.36869L1.5234 6.4903C0.56463 6.92537 0.56463 8.37481 1.5234 8.80988ZM29.7464 13.9241L26.3812 12.3987L17.0172 16.6434C16.5792 16.8421 16.114 16.9429 15.6349 16.9429C15.1558 16.9429 14.6912 16.8421 14.2527 16.6434L4.88921 12.3987L1.5234 13.9241C0.56463 14.3586 0.56463 15.8068 1.5234 16.2413L15.0179 22.3583C15.4119 22.5367 15.8574 22.5367 16.2513 22.3583L29.7464 16.2413C30.7052 15.8068 30.7052 14.3586 29.7464 13.9241ZM29.7464 21.3277L26.3939 19.8082L17.0172 24.0586C16.5792 24.2573 16.114 24.3581 15.6349 24.3581C15.1558 24.3581 14.6912 24.2573 14.2527 24.0586L4.87647 19.8082L1.5234 21.3277C0.56463 21.7622 0.56463 23.2105 1.5234 23.645L15.0179 29.7619C15.4119 29.9404 15.8574 29.9404 16.2513 29.7619L29.7464 23.645C30.7052 23.2105 30.7052 21.7622 29.7464 21.3277Z" fill="black"/>
</g>
<defs>
<clipPath id="clip0_201_4935">
<rect width="29.6609" height="29.6609" fill="white" transform="translate(0.804321 0.235107)"/>
</clipPath>
</defs>
</svg>
