<svg width="34" height="30" viewBox="0 0 34 30" fill="none" xmlns="http://www.w3.org/2000/svg">
<g clip-path="url(#clip0_201_4933)">
<path d="M32.2477 0.79713C31.9233 0.0729877 30.9964 0.044022 30.6083 0.727613C28.8124 3.85012 25.5972 5.79661 21.9244 5.79661H17.2898C11.1491 5.79661 6.16701 10.7787 6.16701 16.9194C6.16701 17.325 6.21336 17.7131 6.25391 18.107C9.94993 15.4596 15.2854 13.2118 22.8513 13.2118C23.3611 13.2118 23.7782 13.6289 23.7782 14.1387C23.7782 14.6485 23.3611 15.0656 22.8513 15.0656C8.2873 15.0656 2.11181 23.9929 0.74463 27.3471C0.362283 28.2914 0.814148 29.3689 1.75843 29.757C2.70851 30.151 3.78603 29.6933 4.17996 28.7548C4.26686 28.5463 5.39073 25.9799 8.34523 23.5062C10.2222 26.0494 13.7908 28.4768 18.4774 27.9786C27.5727 27.3181 33.9741 19.1614 33.9741 9.17401C33.9741 6.26586 33.3484 3.25342 32.2477 0.79713Z" fill="black"/>
</g>
<defs>
<clipPath id="clip0_201_4933">
<rect width="33.3685" height="29.6609" fill="white" transform="translate(0.605835 0.235107)"/>
</clipPath>
</defs>
</svg>
