<svg width="30" height="30" viewBox="0 0 30 30" fill="none" xmlns="http://www.w3.org/2000/svg">
<g clip-path="url(#clip0_201_4931)">
<path d="M28.4457 1.56544C27.1078 0.227634 25.2948 -0.108368 24.0955 0.590227C20.683 2.57797 13.5955 -2.4846 5.49533 5.61555C-2.60482 13.7157 2.45781 20.8032 0.470064 24.2156C-0.228531 25.4149 0.107413 27.228 1.44522 28.5658C2.78315 29.9038 4.59623 30.2395 5.79558 29.5409C9.2078 27.5533 16.2954 32.6159 24.3955 24.5158C32.4956 16.4157 27.4331 9.32808 29.4208 5.91569C30.1194 4.71639 29.7835 2.90331 28.4457 1.56544ZM14.2434 5.76889C10.8724 6.61162 6.49169 10.9917 5.64879 14.3635C5.54352 14.7846 5.16552 15.0658 4.75021 15.0658C4.67583 15.0658 4.60017 15.0568 4.52468 15.038C4.0281 14.9138 3.72616 14.4106 3.85025 13.9139C4.85964 9.87652 9.74993 4.98149 13.7937 3.97047C14.2905 3.84632 14.7937 4.14826 14.9178 4.64491C15.0418 5.14155 14.74 5.64474 14.2434 5.76889Z" fill="black"/>
</g>
<defs>
<clipPath id="clip0_201_4931">
<rect width="29.6609" height="29.6609" fill="white" transform="translate(0.11499 0.235107)"/>
</clipPath>
</defs>
</svg>
