<svg width="23" height="30" viewBox="0 0 23 30" fill="none" xmlns="http://www.w3.org/2000/svg">
<g clip-path="url(#clip0_201_4927)">
<path d="M21.4276 20.9595L8.77422 15.0591L21.4305 9.15709C22.3586 8.72435 22.76 7.62133 22.3273 6.69327L21.544 5.01326C21.1113 4.0852 20.0083 3.68373 19.0802 4.11648L1.32655 12.3955C1.00677 12.5446 0.736182 12.7819 0.546551 13.0795C0.356921 13.3771 0.25612 13.7226 0.255981 14.0755L0.255981 16.059C0.255981 16.7797 0.673667 17.4349 1.32655 17.7391L19.0715 26.0134C20.0019 26.4473 21.1078 26.0447 21.5417 25.1143L22.3273 23.4297C22.7612 22.4993 22.3586 21.3934 21.4276 20.9595Z" fill="black"/>
</g>
<defs>
<clipPath id="clip0_201_4927">
<rect width="22.2457" height="29.6609" fill="white" transform="translate(0.255981 0.235107)"/>
</clipPath>
</defs>
</svg>
