<svg width="27" height="30" viewBox="0 0 27 30" fill="none" xmlns="http://www.w3.org/2000/svg">
<g clip-path="url(#clip0_201_4929)">
<path d="M3.51661 12.6441L20.9777 19.5883C22.0431 19.9377 23.2202 19.4412 23.6066 18.4789L24.307 16.7364C24.694 15.7741 24.1437 14.7105 23.0783 14.3612L12.9148 10.4189L23.0853 6.4744C24.1448 6.12681 24.6923 5.0684 24.3076 4.11138L23.6107 2.37807C23.226 1.42046 22.0547 0.926305 20.9951 1.27389L3.51661 8.22335C2.7189 8.4852 2.18535 9.18559 2.18535 9.97172V10.8963C2.18535 11.6819 2.7189 12.3822 3.51661 12.6441ZM24.8945 23.4078H1.7219C0.954306 23.4078 0.331543 24.0299 0.331543 24.7981V27.5788C0.331543 28.3464 0.954306 28.9692 1.7219 28.9692H24.8945C25.6621 28.9692 26.2848 28.3464 26.2848 27.5788V24.7981C26.2848 24.0299 25.6621 23.4078 24.8945 23.4078Z" fill="black"/>
</g>
<defs>
<clipPath id="clip0_201_4929">
<rect width="25.9533" height="29.6609" fill="white" transform="translate(0.331665 0.235107)"/>
</clipPath>
</defs>
</svg>
