<svg width="20" height="30" viewBox="0 0 20 30" fill="none" xmlns="http://www.w3.org/2000/svg">
<g clip-path="url(#clip0_201_4925)">
<path d="M19.0523 22.9634L13.0294 29.4519C12.48 30.0436 11.542 30.0445 10.9918 29.4519L4.96833 22.9634C4.14536 22.077 4.77276 20.627 5.98717 20.627H9.69334V4.86962H4.82849C4.7372 4.86963 4.6468 4.85165 4.56245 4.81671C4.47811 4.78177 4.40148 4.73056 4.33694 4.66599L1.09278 1.42183C0.654818 0.983929 0.964983 0.235107 1.58433 0.235107H12.9375C13.7054 0.235107 14.3279 0.857581 14.3279 1.62546V20.627H18.0335C19.243 20.627 19.8787 22.0735 19.0523 22.9634Z" fill="black"/>
</g>
<defs>
<clipPath id="clip0_201_4925">
<rect width="18.5381" height="29.6609" fill="white" transform="translate(0.887939 0.235107)"/>
</clipPath>
</defs>
</svg>
