<svg width="30" height="30" viewBox="0 0 30 30" fill="none" xmlns="http://www.w3.org/2000/svg">
<g clip-path="url(#clip0_201_4921)">
<path d="M14.8599 0.698547C6.92522 0.698547 0.49292 7.13085 0.49292 15.0655C0.49292 23.0002 6.92522 29.4325 14.8599 29.4325C22.7946 29.4325 29.2269 23.0002 29.2269 15.0655C29.2269 7.13085 22.7946 0.698547 14.8599 0.698547ZM24.9224 7.62477L21.2496 11.2976C20.6131 10.2224 19.7045 9.3133 18.6279 8.67588L22.3007 5.00308C23.2986 5.7435 24.182 6.62688 24.9224 7.62477ZM14.8599 20.627C11.7884 20.627 9.2985 18.137 9.2985 15.0655C9.2985 11.9941 11.7884 9.50412 14.8599 9.50412C17.9314 9.50412 20.4213 11.9941 20.4213 15.0655C20.4213 18.137 17.9314 20.627 14.8599 20.627ZM7.41914 5.00308L11.0919 8.67588C10.0168 9.31237 9.10767 10.2209 8.47025 11.2976L4.79746 7.62477C5.53785 6.62686 6.42124 5.74348 7.41914 5.00308ZM4.79746 22.5063L8.47025 18.8335C9.10674 19.9087 10.0153 20.8178 11.0919 21.4552L7.41914 25.128C6.42125 24.3876 5.53787 23.5042 4.79746 22.5063ZM22.3007 25.128L18.6279 21.4552C19.703 20.8187 20.6122 19.9102 21.2496 18.8335L24.9224 22.5063C24.182 23.5042 23.2986 24.3876 22.3007 25.128Z" fill="black"/>
</g>
<defs>
<clipPath id="clip0_201_4921">
<rect width="29.6609" height="29.6609" fill="white" transform="translate(0.0290527 0.235107)"/>
</clipPath>
</defs>
</svg>
