<svg width="22" height="30" viewBox="0 0 22 30" fill="none" xmlns="http://www.w3.org/2000/svg">
<g clip-path="url(#clip0_201_4919)">
<path d="M6.37202 26.5564C6.3726 26.9208 6.48035 27.2776 6.68253 27.5812L7.67258 29.0694C7.84171 29.3238 8.07111 29.5325 8.34036 29.6768C8.60962 29.8212 8.91038 29.8967 9.21587 29.8967H12.7908C13.0963 29.8967 13.3971 29.8212 13.6663 29.6768C13.9356 29.5325 14.165 29.3238 14.3341 29.0694L15.3242 27.5812C15.5263 27.2776 15.6343 26.9211 15.6347 26.5564L15.637 24.3347H6.36912L6.37202 26.5564ZM0.807129 10.4311C0.807129 13.0016 1.7601 15.3466 3.33062 17.1384C4.28765 18.2305 5.7846 20.5118 6.35522 22.4363C6.35754 22.4513 6.35928 22.4664 6.36159 22.4815H15.6445C15.6468 22.4664 15.6486 22.4519 15.6509 22.4363C16.2215 20.5118 17.7185 18.2305 18.6755 17.1384C20.246 15.3466 21.199 13.0016 21.199 10.4311C21.199 4.78921 16.6172 0.217838 10.9712 0.235218C5.06161 0.253177 0.807129 5.04179 0.807129 10.4311ZM11.0031 5.79664C8.4477 5.79664 6.36855 7.87579 6.36855 10.4311C6.36855 10.9433 5.95376 11.3581 5.44164 11.3581C4.92953 11.3581 4.51474 10.9433 4.51474 10.4311C4.51474 6.8533 7.42521 3.94283 11.0031 3.94283C11.5152 3.94283 11.93 4.35762 11.93 4.86973C11.93 5.38185 11.5152 5.79664 11.0031 5.79664Z" fill="black"/>
</g>
<defs>
<clipPath id="clip0_201_4919">
<rect width="20.3919" height="29.6609" fill="white" transform="translate(0.807129 0.235107)"/>
</clipPath>
</defs>
</svg>
