<svg width="30" height="30" viewBox="0 0 30 30" fill="none" xmlns="http://www.w3.org/2000/svg">
<g clip-path="url(#clip0_201_4917)">
<path d="M19.2373 10.9751C22.6985 14.4399 22.651 19.9949 19.2581 23.4066C19.2518 23.4136 19.2442 23.4211 19.2373 23.428L15.3443 27.321C11.9107 30.7546 6.32443 30.7542 2.89136 27.321C-0.542237 23.888 -0.542237 18.3011 2.89136 14.8681L5.04096 12.7185C5.61101 12.1484 6.59271 12.5273 6.62214 13.3329C6.65968 14.3596 6.84379 15.391 7.1835 16.3871C7.29855 16.7244 7.21635 17.0975 6.96434 17.3495L6.20619 18.1076C4.58261 19.7312 4.53169 22.3748 6.13928 24.0143C7.76275 25.6699 10.4312 25.6798 12.0671 24.0438L15.9601 20.1514C17.5933 18.5183 17.5864 15.8786 15.9601 14.2523C15.7457 14.0383 15.5297 13.872 15.361 13.7559C15.2417 13.6739 15.1432 13.5652 15.0733 13.4384C15.0034 13.3116 14.9641 13.1702 14.9586 13.0256C14.9356 12.4134 15.1525 11.7826 15.6363 11.2989L16.856 10.0791C17.1758 9.75929 17.6775 9.72002 18.0484 9.97885C18.4732 10.2754 18.871 10.6088 19.2373 10.9751ZM27.4019 2.81013C23.9688 -0.623002 18.3825 -0.623465 14.9489 2.81013L11.0559 6.70312C11.049 6.71007 11.0414 6.7176 11.0351 6.72456C7.64226 10.1363 7.59469 15.6912 11.0559 19.1561C11.4222 19.5223 11.82 19.8557 12.2447 20.1522C12.6156 20.4111 13.1174 20.3718 13.4372 20.052L14.6569 18.8322C15.1406 18.3485 15.3575 17.7177 15.3346 17.1055C15.329 16.9609 15.2897 16.8195 15.2199 16.6927C15.15 16.5659 15.0515 16.4572 14.9321 16.3752C14.7634 16.2591 14.5475 16.0928 14.333 15.8788C12.7067 14.2525 12.6999 11.6128 14.333 9.97966L18.226 6.08725C19.862 4.45133 22.5303 4.46118 24.1539 6.1168C25.7615 7.75626 25.7106 10.3999 24.087 12.0235L23.3288 12.7816C23.0768 13.0336 22.9946 13.4067 23.1097 13.744C23.4494 14.7401 23.6335 15.7715 23.671 16.7982C23.7005 17.6038 24.6821 17.9827 25.2522 17.4126L27.4018 15.263C30.8354 11.8301 30.8354 6.24315 27.4019 2.81013Z" fill="black"/>
</g>
<defs>
<clipPath id="clip0_201_4917">
<rect width="29.6609" height="29.6609" fill="white" transform="translate(0.316162 0.235107)"/>
</clipPath>
</defs>
</svg>
