<svg width="23" height="30" viewBox="0 0 23 30" fill="none" xmlns="http://www.w3.org/2000/svg">
<g clip-path="url(#clip0_201_4915)">
<path d="M21.7906 15.0655H19.0088C18.6418 15.0655 18.3151 15.3501 18.3151 15.717C18.3151 21.5538 13.5751 24.3345 8.5826 24.3345V15.1108L16.3803 13.3779C16.5347 13.3436 16.6728 13.2577 16.7718 13.1343C16.8708 13.0109 16.9247 12.8575 16.9247 12.6993V10.3255C16.9247 9.88076 16.5129 9.55038 16.0788 9.64689L8.5826 11.3126V9.54928L16.3803 7.81643C16.5347 7.78212 16.6728 7.69618 16.7718 7.57281C16.8708 7.44943 16.9247 7.29599 16.9247 7.13782V4.76408C16.9247 4.31934 16.5129 3.98896 16.0788 4.08547L8.5826 5.75123V2.78404C8.5826 2.40013 8.27134 2.08887 7.88743 2.08887H4.64327C4.25936 2.08887 3.94809 2.40013 3.94809 2.78404V6.78114L0.78486 7.48408C0.630457 7.51839 0.49237 7.60433 0.393397 7.7277C0.294423 7.85108 0.240482 8.00452 0.240479 8.16269L0.240479 10.5365C0.240479 10.9812 0.652313 11.3116 1.08645 11.2151L3.94809 10.5792V12.3426L0.78486 13.0455C0.630457 13.0798 0.49237 13.1657 0.393397 13.2891C0.294423 13.4125 0.240482 13.5659 0.240479 13.7241V16.0979C0.240479 16.5426 0.652313 16.873 1.08645 16.7765L3.94809 16.1406V27.347C3.94809 27.7309 4.25936 28.0421 4.64327 28.0421H9.25362C17.0217 28.0421 22.1871 23.5331 22.4856 15.7843C22.5007 15.3914 22.1837 15.0655 21.7906 15.0655Z" fill="black"/>
</g>
<defs>
<clipPath id="clip0_201_4915">
<rect width="22.2457" height="29.6609" fill="white" transform="translate(0.240479 0.235107)"/>
</clipPath>
</defs>
</svg>
