<svg width="31" height="30" viewBox="0 0 31 30" fill="none" xmlns="http://www.w3.org/2000/svg">
<g clip-path="url(#clip0_201_4913)">
<path d="M27.6301 28.0421H3.53059C1.99482 28.0421 0.749878 26.7972 0.749878 25.2614V4.86958C0.749878 3.33381 1.99482 2.08887 3.53059 2.08887H27.6301C29.1658 2.08887 30.4108 3.33381 30.4108 4.86958V25.2614C30.4108 26.7972 29.1658 28.0421 27.6301 28.0421ZM8.1651 7.18683C6.88534 7.18683 5.84784 8.22433 5.84784 9.50409C5.84784 10.7839 6.88534 11.8213 8.1651 11.8213C9.44486 11.8213 10.4824 10.7839 10.4824 9.50409C10.4824 8.22433 9.44486 7.18683 8.1651 7.18683ZM8.1651 12.7482C6.88534 12.7482 5.84784 13.7857 5.84784 15.0655C5.84784 16.3453 6.88534 17.3828 8.1651 17.3828C9.44486 17.3828 10.4824 16.3453 10.4824 15.0655C10.4824 13.7857 9.44486 12.7482 8.1651 12.7482ZM8.1651 18.3097C6.88534 18.3097 5.84784 19.3472 5.84784 20.6269C5.84784 21.9067 6.88534 22.9442 8.1651 22.9442C9.44486 22.9442 10.4824 21.9067 10.4824 20.6269C10.4824 19.3472 9.44486 18.3097 8.1651 18.3097ZM24.8493 10.431V8.57719C24.8493 8.19327 24.5381 7.88201 24.1542 7.88201H12.5679C12.184 7.88201 11.8727 8.19327 11.8727 8.57719V10.431C11.8727 10.8149 12.184 11.1262 12.5679 11.1262H24.1542C24.5381 11.1262 24.8493 10.8149 24.8493 10.431ZM24.8493 15.9924V14.1386C24.8493 13.7547 24.5381 13.4434 24.1542 13.4434H12.5679C12.184 13.4434 11.8727 13.7547 11.8727 14.1386V15.9924C11.8727 16.3763 12.184 16.6876 12.5679 16.6876H24.1542C24.5381 16.6876 24.8493 16.3763 24.8493 15.9924ZM24.8493 21.5538V19.7C24.8493 19.3161 24.5381 19.0048 24.1542 19.0048H12.5679C12.184 19.0048 11.8727 19.3161 11.8727 19.7V21.5538C11.8727 21.9377 12.184 22.249 12.5679 22.249H24.1542C24.5381 22.249 24.8493 21.9377 24.8493 21.5538Z" fill="black"/>
</g>
<defs>
<clipPath id="clip0_201_4913">
<rect width="29.6609" height="29.6609" fill="white" transform="translate(0.749634 0.235107)"/>
</clipPath>
</defs>
</svg>
