<svg width="30" height="30" viewBox="0 0 30 30" fill="none" xmlns="http://www.w3.org/2000/svg">
<g clip-path="url(#clip0_201_4911)">
<path d="M3.83721 23.4656L4.85101 22.2982C5.05278 22.0733 5.15824 21.7781 5.14472 21.4762V21.2844C5.14472 20.8586 4.92227 20.6269 4.48778 20.6269H1.18569C1.06278 20.6269 0.944896 20.6758 0.857982 20.7627C0.771068 20.8496 0.72224 20.9675 0.72224 21.0904V22.0173C0.72224 22.1402 0.771068 22.2581 0.857982 22.345C0.944896 22.4319 1.06278 22.4807 1.18569 22.4807H2.50827C2.28352 22.7071 2.07082 22.9452 1.87102 23.1939L1.54603 23.5994C1.3143 23.8931 1.24189 24.1862 1.38382 24.4614L1.44465 24.5732C1.61844 24.9069 1.80903 25.0297 2.15431 25.0297H2.42832C3.02675 25.0297 3.35175 25.1711 3.35175 25.5563C3.35175 25.8297 3.10844 26.0325 2.51985 26.0325C2.21231 26.0301 1.90809 25.9687 1.62365 25.8518C1.24768 25.627 0.943538 25.649 0.719923 26.0325L0.396087 26.5718C0.180582 26.927 0.211285 27.2508 0.548446 27.4953C0.995097 27.767 1.72909 28.0421 2.69191 28.0421C4.67085 28.0421 5.50158 26.7242 5.50158 25.4862C5.49985 24.6532 4.97325 23.7622 3.83721 23.4656ZM28.9928 13.2117H10.4547C10.2089 13.2117 9.97313 13.3094 9.7993 13.4832C9.62547 13.657 9.52782 13.8928 9.52782 14.1386V15.9924C9.52782 16.2382 9.62547 16.474 9.7993 16.6478C9.97313 16.8217 10.2089 16.9193 10.4547 16.9193H28.9928C29.2386 16.9193 29.4744 16.8217 29.6482 16.6478C29.822 16.474 29.9197 16.2382 29.9197 15.9924V14.1386C29.9197 13.8928 29.822 13.657 29.6482 13.4832C29.4744 13.3094 29.2386 13.2117 28.9928 13.2117ZM28.9928 3.94267H10.4547C10.2089 3.94267 9.97313 4.04033 9.7993 4.21416C9.62547 4.38798 9.52782 4.62375 9.52782 4.86958V6.72338C9.52782 6.96921 9.62547 7.20497 9.7993 7.3788C9.97313 7.55263 10.2089 7.65028 10.4547 7.65028H28.9928C29.2386 7.65028 29.4744 7.55263 29.6482 7.3788C29.822 7.20497 29.9197 6.96921 29.9197 6.72338V4.86958C29.9197 4.62375 29.822 4.38798 29.6482 4.21416C29.4744 4.04033 29.2386 3.94267 28.9928 3.94267ZM28.9928 22.4807H10.4547C10.2089 22.4807 9.97313 22.5784 9.7993 22.7522C9.62547 22.926 9.52782 23.1618 9.52782 23.4076V25.2614C9.52782 25.5073 9.62547 25.743 9.7993 25.9169C9.97313 26.0907 10.2089 26.1883 10.4547 26.1883H28.9928C29.2386 26.1883 29.4744 26.0907 29.6482 25.9169C29.822 25.743 29.9197 25.5073 29.9197 25.2614V23.4076C29.9197 23.1618 29.822 22.926 29.6482 22.7522C29.4744 22.5784 29.2386 22.4807 28.9928 22.4807ZM1.18569 9.50409H4.8933C5.01622 9.50409 5.1341 9.45526 5.22101 9.36835C5.30793 9.28143 5.35675 9.16355 5.35675 9.04064V8.11374C5.35675 7.99082 5.30793 7.87294 5.22101 7.78603C5.1341 7.69911 5.01622 7.65028 4.8933 7.65028H3.9664V2.55232C3.9664 2.4294 3.91757 2.31152 3.83066 2.22461C3.74374 2.1377 3.62586 2.08887 3.50295 2.08887H2.11259C2.02669 2.08902 1.94252 2.11305 1.86948 2.15826C1.79644 2.20348 1.73741 2.2681 1.69896 2.34492L1.23551 3.27183C1.20019 3.34242 1.18348 3.42087 1.18697 3.49974C1.19047 3.5786 1.21405 3.65526 1.25548 3.72246C1.29691 3.78965 1.35482 3.84515 1.42371 3.88369C1.49261 3.92223 1.5702 3.94253 1.64914 3.94267H2.11259V7.65028H1.18569C1.06278 7.65028 0.944896 7.69911 0.857982 7.78603C0.771068 7.87294 0.72224 7.99082 0.72224 8.11374V9.04064C0.72224 9.16355 0.771068 9.28143 0.857982 9.36835C0.944896 9.45526 1.06278 9.50409 1.18569 9.50409ZM0.95918 18.7731H4.8933C5.01622 18.7731 5.1341 18.7243 5.22101 18.6374C5.30793 18.5505 5.35675 18.4326 5.35675 18.3097V17.3828C5.35675 17.2598 5.30793 17.142 5.22101 17.0551C5.1341 16.9681 5.01622 16.9193 4.8933 16.9193H2.65252C2.84311 16.3232 5.45292 15.8372 5.45292 13.6497C5.45292 11.9662 4.00463 11.3579 2.87671 11.3579C1.63929 11.3579 0.918628 11.9372 0.532805 12.4441C0.279644 12.7679 0.35901 13.0721 0.695013 13.3345L1.19206 13.7331C1.51706 13.9973 1.82931 13.8762 2.12592 13.5917C2.27222 13.4484 2.46912 13.3685 2.67395 13.3693C2.86686 13.3693 3.21155 13.4596 3.21155 13.8762C3.21329 14.6131 0.258789 15.1414 0.258789 17.8804V18.1121C0.258789 18.5414 0.553081 18.7731 0.95918 18.7731Z" fill="black"/>
</g>
<defs>
<clipPath id="clip0_201_4911">
<rect width="29.6609" height="29.6609" fill="white" transform="translate(0.258789 0.235107)"/>
</clipPath>
</defs>
</svg>
