<svg width="34" height="30" viewBox="0 0 34 30" fill="none" xmlns="http://www.w3.org/2000/svg">
<g clip-path="url(#clip0_201_4903)">
<path d="M25.1216 0.235225C20.2554 0.252605 16.345 4.26146 16.345 9.1277V13.2119H3.36835C1.83317 13.2119 0.587646 14.4574 0.587646 15.9926V27.1154C0.587646 28.6506 1.83317 29.8961 3.36835 29.8961H23.7602C25.2954 29.8961 26.5409 28.6506 26.5409 27.1154V15.9926C26.5409 14.4574 25.2954 13.2119 23.7602 13.2119H20.9795V9.09294C20.9795 6.79886 22.8159 4.89291 25.11 4.86974C27.4273 4.84657 29.3216 6.72934 29.3216 9.0408V13.6753C29.3216 14.4458 29.9415 15.0657 30.712 15.0657H32.5658C33.3363 15.0657 33.9561 14.4458 33.9561 13.6753V9.0408C33.9561 4.17456 29.9878 0.217846 25.1216 0.235225Z" fill="black"/>
</g>
<defs>
<clipPath id="clip0_201_4903">
<rect width="33.3685" height="29.6609" fill="white" transform="translate(0.587524 0.235107)"/>
</clipPath>
</defs>
</svg>
