<svg width="31" height="31" viewBox="0 0 31 31" fill="none" xmlns="http://www.w3.org/2000/svg">
<g clip-path="url(#clip0_201_4883)">
<path d="M13.5435 6.13564L14.4704 4.28183L16.3242 3.35493L14.4704 2.42802L13.5435 0.574219L12.6166 2.42802L10.7628 3.35493L12.6166 4.28183L13.5435 6.13564ZM5.20141 9.84325L6.74586 6.75376L9.83592 5.20873L6.74586 3.6637L5.20141 0.574219L3.65696 3.6637L0.566895 5.20873L3.65696 6.75376L5.20141 9.84325ZM25.5933 17.2585L24.0488 20.348L20.9588 21.893L24.0488 23.438L25.5933 26.5275L27.1377 23.438L30.2278 21.893L27.1377 20.348L25.5933 17.2585ZM29.6844 6.0331L24.7689 1.11762C24.4074 0.754965 23.933 0.574219 23.4585 0.574219C22.984 0.574219 22.5096 0.754965 22.1475 1.11762L1.11029 22.1548C0.386148 22.879 0.386148 24.0527 1.11029 24.7762L6.02577 29.6917C6.38784 30.0538 6.8623 30.2345 7.33618 30.2345C7.81064 30.2345 8.2851 30.0538 8.64717 29.6917L29.6844 8.65392C30.4085 7.93093 30.4085 6.75666 29.6844 6.0331ZM21.3903 12.3609L18.4411 9.41166L23.4579 4.3948L26.4072 7.34409L21.3903 12.3609Z" fill="black"/>
</g>
<defs>
<clipPath id="clip0_201_4883">
<rect width="29.6609" height="29.6609" fill="white" transform="translate(0.566895 0.574219)"/>
</clipPath>
</defs>
</svg>
