<svg width="30" height="31" viewBox="0 0 30 31" fill="none" xmlns="http://www.w3.org/2000/svg">
<g clip-path="url(#clip0_201_4881)">
<path d="M9.58086 9.15393H0.771227C0.586854 9.15393 0.410033 9.08068 0.279662 8.95031C0.149291 8.81994 0.0760498 8.64312 0.0760498 8.45875L0.0760498 3.82423C0.0760498 3.27112 0.295775 2.74065 0.686888 2.34954C1.078 1.95843 1.60846 1.7387 2.16158 1.7387H8.18645C8.73957 1.7387 9.27003 1.95843 9.66114 2.34954C10.0523 2.74065 10.272 3.27112 10.272 3.82423V8.45875C10.2728 8.54993 10.2556 8.64038 10.2212 8.72484C10.1868 8.8093 10.136 8.88609 10.0717 8.95076C10.0074 9.01543 9.9309 9.06668 9.84665 9.10156C9.76239 9.13644 9.67205 9.15424 9.58086 9.15393ZM29.7369 8.45875V3.81844C29.7369 3.26532 29.5172 2.73486 29.1261 2.34375C28.735 1.95264 28.2045 1.73291 27.6514 1.73291H21.6265C21.0734 1.73291 20.543 1.95264 20.1518 2.34375C19.7607 2.73486 19.541 3.26532 19.541 3.81844V8.45296C19.541 8.63733 19.6142 8.81415 19.7446 8.94452C19.875 9.07489 20.0518 9.14813 20.2362 9.14813H29.0418C29.1328 9.14897 29.2231 9.13176 29.3074 9.09749C29.3918 9.06321 29.4685 9.01256 29.5331 8.94845C29.5978 8.88434 29.6491 8.80806 29.6841 8.724C29.719 8.63995 29.737 8.54979 29.7369 8.45875ZM20.2362 11.0077C20.0518 11.0077 19.875 11.081 19.7446 11.2113C19.6142 11.3417 19.541 11.5185 19.541 11.7029V14.7153C19.541 22.1364 10.272 22.1248 10.272 14.7153V11.7029C10.272 11.5185 10.1987 11.3417 10.0684 11.2113C9.938 11.081 9.76118 11.0077 9.5768 11.0077H0.77702C0.685239 11.0077 0.594365 11.0259 0.509642 11.0612C0.42492 11.0965 0.348025 11.1482 0.283396 11.2134C0.218767 11.2786 0.167681 11.3559 0.133088 11.4409C0.0984948 11.5259 0.0810781 11.6169 0.0818429 11.7087C0.0876361 12.9484 0.116602 14.0433 0.0818429 14.7964C0.0818429 23.5209 7.97037 29.0823 14.9557 29.0823C21.9411 29.0823 29.7282 23.5209 29.7282 14.7907C29.6935 14.0491 29.7167 12.8789 29.7282 11.7087C29.729 11.6169 29.7116 11.5259 29.677 11.4409C29.6424 11.3559 29.5913 11.2786 29.5267 11.2134C29.4621 11.1482 29.3852 11.0965 29.3004 11.0612C29.2157 11.0259 29.1249 11.0077 29.0331 11.0077H20.2362Z" fill="black"/>
</g>
<defs>
<clipPath id="clip0_201_4881">
<rect width="29.6609" height="29.6609" fill="white" transform="translate(0.0760498 0.574219)"/>
</clipPath>
</defs>
</svg>
