<svg width="13" height="31" viewBox="0 0 13 31" fill="none" xmlns="http://www.w3.org/2000/svg">
<g clip-path="url(#clip0_201_4877)">
<path d="M6.48708 0.574158C8.53472 0.574158 10.1947 2.23412 10.1947 4.28177C10.1947 6.32941 8.53472 7.98938 6.48708 7.98938C4.43943 7.98938 2.77946 6.32941 2.77946 4.28177C2.77946 2.23412 4.43943 0.574158 6.48708 0.574158ZM9.26778 8.91628H8.60968C7.294 9.52126 5.73686 9.54739 4.36447 8.91628H3.70637C2.17061 8.91628 0.925659 10.1612 0.925659 11.697V19.5757C0.925659 20.3435 1.54813 20.966 2.31601 20.966H3.24292V28.8447C3.24292 29.6126 3.86539 30.235 4.63327 30.235H8.34088C9.10876 30.235 9.73124 29.6126 9.73124 28.8447V20.966H10.6581C11.426 20.966 12.0485 20.3435 12.0485 19.5757V11.697C12.0485 10.1612 10.8035 8.91628 9.26778 8.91628Z" fill="black"/>
</g>
<defs>
<clipPath id="clip0_201_4877">
<rect width="11.1228" height="29.6609" fill="white" transform="translate(0.924683 0.574219)"/>
</clipPath>
</defs>
</svg>
