<svg width="34" height="31" viewBox="0 0 34 31" fill="none" xmlns="http://www.w3.org/2000/svg">
<g clip-path="url(#clip0_201_4873)">
<path d="M17.2121 0.57428C13.1806 0.57428 9.91272 3.84219 9.91272 7.87364C9.91272 11.1329 14.6834 17.0731 16.5111 19.2294C16.8813 19.6662 17.5434 19.6662 17.9131 19.2294C19.7408 17.0731 24.5114 11.1329 24.5114 7.87364C24.5114 3.84219 21.2435 0.57428 17.2121 0.57428ZM1.69341 13.0846C1.3494 13.2222 1.0545 13.4597 0.84675 13.7664C0.638996 14.0732 0.527914 14.4352 0.527832 14.8057L0.527832 29.3071C0.527832 29.9629 1.18999 30.4113 1.79885 30.168L9.79686 26.5276V13.0249C9.28475 12.0992 8.8659 11.1977 8.56582 10.3357L1.69341 13.0846ZM17.2121 21.4105C16.397 21.4105 15.6259 21.0525 15.097 20.428C13.9581 19.0839 12.7467 17.5534 11.6507 15.9835V26.527L22.7735 30.2346V15.984C21.6774 17.5534 20.4667 19.0845 19.3272 20.4285C18.7982 21.0525 18.0272 21.4105 17.2121 21.4105ZM32.6253 9.91051L24.6273 13.5509V30.2352L32.7308 26.9939C33.0748 26.8564 33.3698 26.6189 33.5775 26.3121C33.7853 26.0053 33.8963 25.6433 33.8963 25.2728V10.7714C33.8963 10.1156 33.2342 9.6672 32.6253 9.91051Z" fill="black"/>
</g>
<defs>
<clipPath id="clip0_201_4873">
<rect width="33.3685" height="29.6609" fill="white" transform="translate(0.52771 0.574219)"/>
</clipPath>
</defs>
</svg>
