<svg width="31" height="31" viewBox="0 0 31 31" fill="none" xmlns="http://www.w3.org/2000/svg">
<g clip-path="url(#clip0_201_4865)">
<path d="M29.7603 5.48043L27.2513 2.97084C26.9037 2.62325 26.4321 2.42802 25.9403 2.42802H17.0553V1.50112C17.0553 0.989008 16.6405 0.574219 16.1284 0.574219H14.2746C13.7625 0.574219 13.3477 0.989008 13.3477 1.50112V2.42802H3.61523C2.84764 2.42802 2.22488 3.05079 2.22488 3.81838V8.45289C2.22488 9.22048 2.84764 9.84325 3.61523 9.84325H25.9403C26.4321 9.84325 26.9031 9.64802 27.2513 9.30043L29.7603 6.79142C30.1223 6.42877 30.1223 5.8425 29.7603 5.48043ZM13.3477 29.3082C13.3477 29.8203 13.7625 30.2351 14.2746 30.2351H16.1284C16.6405 30.2351 17.0553 29.8203 17.0553 29.3082V22.8199H13.3477V29.3082ZM26.7878 13.5509H17.0553V11.6971H13.3477V13.5509H4.46277C3.97093 13.5509 3.49995 13.7461 3.15178 14.0937L0.642769 16.6033C0.280698 16.9653 0.280698 17.5522 0.642769 17.9143L3.15178 20.4233C3.49937 20.7709 3.97093 20.9661 4.46277 20.9661H26.7878C27.5554 20.9661 28.1782 20.3433 28.1782 19.5757V14.9412C28.1782 14.1736 27.5554 13.5509 26.7878 13.5509Z" fill="black"/>
</g>
<defs>
<clipPath id="clip0_201_4865">
<rect width="29.6609" height="29.6609" fill="white" transform="translate(0.371216 0.574219)"/>
</clipPath>
</defs>
</svg>
