<svg width="18" height="31" viewBox="0 0 18 31" fill="none" xmlns="http://www.w3.org/2000/svg">
<g clip-path="url(#clip0_201_4867)">
<path d="M7.35044 18.9349V28.0122L8.62609 29.9251C8.90127 30.3376 9.50781 30.3376 9.78298 29.9251L11.0581 28.0122V18.9349C10.4561 19.0462 9.83802 19.1122 9.20425 19.1122C8.57048 19.1122 7.95235 19.0462 7.35044 18.9349ZM9.20425 0.574158C4.59696 0.574158 0.862122 4.309 0.862122 8.91628C0.862122 13.5236 4.59696 17.2584 9.20425 17.2584C13.8115 17.2584 17.5464 13.5236 17.5464 8.91628C17.5464 4.309 13.8115 0.574158 9.20425 0.574158ZM9.20425 4.97695C7.03182 4.97695 5.26491 6.74385 5.26491 8.91628C5.26491 9.29979 4.95324 9.61146 4.56973 9.61146C4.18623 9.61146 3.87456 9.29979 3.87456 8.91628C3.87456 5.97742 6.26596 3.58659 9.20425 3.58659C9.58775 3.58659 9.89942 3.89826 9.89942 4.28177C9.89942 4.66528 9.58775 4.97695 9.20425 4.97695Z" fill="black"/>
</g>
<defs>
<clipPath id="clip0_201_4867">
<rect width="16.6842" height="29.6609" fill="white" transform="translate(0.862061 0.574219)"/>
</clipPath>
</defs>
</svg>
