<svg width="35" height="31" viewBox="0 0 35 31" fill="none" xmlns="http://www.w3.org/2000/svg">
<g clip-path="url(#clip0_201_4875)">
<path d="M17.4104 0.574158C13.379 0.574158 10.1111 3.84207 10.1111 7.87352C10.1111 11.1327 14.8817 17.073 16.7095 19.2292C17.0797 19.666 17.7418 19.666 18.1114 19.2292C19.9392 17.073 24.7098 11.1327 24.7098 7.87352C24.7098 3.84207 21.4419 0.574158 17.4104 0.574158ZM17.4104 10.3066C16.0664 10.3066 14.9773 9.21753 14.9773 7.87352C14.9773 6.52951 16.0664 5.4404 17.4104 5.4404C18.7545 5.4404 19.8436 6.52951 19.8436 7.87352C19.8436 9.21753 18.7545 10.3066 17.4104 10.3066ZM1.89178 13.0844C1.54777 13.222 1.25287 13.4595 1.04511 13.7663C0.83736 14.0731 0.726279 14.4351 0.726196 14.8056L0.726196 29.307C0.726196 29.9628 1.38835 30.4112 1.99721 30.1678L9.99522 26.5274V13.0248C9.48311 12.099 9.06427 11.1976 8.76418 10.3356L1.89178 13.0844ZM17.4104 21.4104C16.5954 21.4104 15.8243 21.0523 15.2954 20.4278C14.1564 19.0838 12.9451 17.5533 11.849 15.9833V26.5269L22.9719 30.2345V15.9839C21.8758 17.5533 20.665 19.0844 19.5255 20.4284C18.9966 21.0523 18.2255 21.4104 17.4104 21.4104ZM32.8237 9.91039L24.8257 13.5508V30.235L32.9291 26.9938C33.2732 26.8563 33.5681 26.6188 33.7759 26.312C33.9836 26.0052 34.0947 25.6432 34.0947 25.2726V10.7712C34.0947 10.1155 33.4325 9.66707 32.8237 9.91039Z" fill="black"/>
</g>
<defs>
<clipPath id="clip0_201_4875">
<rect width="33.3685" height="29.6609" fill="white" transform="translate(0.726196 0.574219)"/>
</clipPath>
</defs>
</svg>
