<svg width="34" height="31" viewBox="0 0 34 31" fill="none" xmlns="http://www.w3.org/2000/svg">
<g clip-path="url(#clip0_201_4863)">
<path d="M0.172791 7.39038V27.4532C0.172791 28.109 0.834947 28.5574 1.44381 28.3141L9.44182 24.6736V2.42798L1.33837 5.66924C0.994361 5.80684 0.699463 6.04434 0.491709 6.35112C0.283954 6.65789 0.172873 7.01988 0.172791 7.39038ZM11.2956 24.6736L22.4185 28.3813V6.13559L11.2956 2.42798V24.6736ZM32.2703 2.49518L24.2723 6.13559V28.3813L32.3757 25.14C32.7198 25.0025 33.0147 24.765 33.2225 24.4582C33.4302 24.1514 33.5413 23.7894 33.5413 23.4188V3.35604C33.5413 2.70026 32.8791 2.25187 32.2703 2.49518Z" fill="black"/>
</g>
<defs>
<clipPath id="clip0_201_4863">
<rect width="33.3685" height="29.6609" fill="white" transform="translate(0.172729 0.574219)"/>
</clipPath>
</defs>
</svg>
