<svg width="31" height="31" viewBox="0 0 31 31" fill="none" xmlns="http://www.w3.org/2000/svg">
<g clip-path="url(#clip0_201_4861)">
<path d="M6.12432 17.376C3.08311 20.4173 1.16718 24.4028 0.691508 28.6773L0.68977 28.6906C0.591286 29.5758 1.33918 30.3243 2.22437 30.2264C6.50442 29.7538 10.4958 27.8372 13.5407 24.7924L17.9087 20.4244L10.4923 13.008L6.12432 17.376ZM28.8068 2.10994C26.7589 0.0620667 23.4383 0.0620667 21.3904 2.10994L20.1298 3.37053L18.0118 1.25314C17.107 0.348248 15.6396 0.348248 14.7352 1.25314L8.70342 7.28496C8.34135 7.64703 8.34135 8.23387 8.70342 8.59595L10.0138 9.90635C10.3759 10.2684 10.9627 10.2684 11.3248 9.90635L16.3735 4.85763L17.5084 5.99251L11.8033 11.697L19.2197 19.1134L28.8068 9.52632C30.8547 7.47845 30.8547 4.1584 28.8068 2.10994Z" fill="black"/>
</g>
<defs>
<clipPath id="clip0_201_4861">
<rect width="29.6609" height="29.6609" fill="white" transform="translate(0.681885 0.574219)"/>
</clipPath>
</defs>
</svg>
