<svg width="29" height="31" viewBox="0 0 29 31" fill="none" xmlns="http://www.w3.org/2000/svg">
<g clip-path="url(#clip0_201_4857)">
<path d="M28.1408 14.9122L24.9024 11.6738C24.4622 11.2335 23.7148 11.5464 23.7148 12.1662V13.5508H22.3361V12.3922C22.3361 12.0098 22.0233 11.697 21.6409 11.697H19.3236C18.9413 11.697 18.6285 12.0098 18.6285 12.3922V13.5508H17.0296C16.6936 12.0677 15.9462 10.66 14.7934 9.50718C11.5377 6.25143 6.25432 6.25143 2.99857 9.50718C-0.257174 12.7629 -0.257174 18.0463 2.99857 21.302C6.25432 24.5578 11.5377 24.5578 14.7934 21.302C15.9462 20.1492 16.6936 18.7414 17.0296 17.2584H18.6285V18.417C18.6285 18.7994 18.9413 19.1122 19.3236 19.1122H21.6409C22.0233 19.1122 22.3361 18.7994 22.3361 18.417V17.2584H23.7206V18.643C23.7206 19.2628 24.468 19.5699 24.9082 19.1354L28.1466 15.897C28.4131 15.6247 28.4131 15.1845 28.1408 14.9122ZM12.1749 18.6835C10.3674 20.491 7.43033 20.491 5.62287 18.6835C3.81541 16.8761 3.81541 13.9389 5.62287 12.1315C7.43033 10.324 10.3674 10.324 12.1749 12.1315C13.9824 13.9331 13.9824 16.8761 12.1749 18.6835Z" fill="black"/>
</g>
<defs>
<clipPath id="clip0_201_4857">
<rect width="27.8071" height="29.6609" fill="white" transform="translate(0.553833 0.574219)"/>
</clipPath>
</defs>
</svg>
