<svg width="17" height="31" viewBox="0 0 17 31" fill="none" xmlns="http://www.w3.org/2000/svg">
<g clip-path="url(#clip0_201_4855)">
<path d="M14.2791 14.1417C13.1263 12.9889 11.7186 12.2416 10.2355 11.9056V10.4341H11.3941C11.7765 10.4341 12.0893 10.1213 12.0893 9.73892V7.42166C12.0893 7.03931 11.7765 6.72648 11.3941 6.72648H10.2355V5.28978H11.6201C12.2399 5.28978 12.547 4.54247 12.1125 4.10219L8.87413 0.869614C8.60185 0.597336 8.16157 0.597336 7.88929 0.869614L4.65092 4.10798C4.21065 4.54826 4.52348 5.29557 5.14334 5.29557H6.5279V6.72648H5.36927C4.98693 6.72648 4.6741 7.03931 4.6741 7.42166V9.73892C4.6741 10.1213 4.98693 10.4341 5.36927 10.4341H6.5279V11.9056C5.04486 12.2416 3.63713 12.9889 2.48429 14.1417C-0.771456 17.3974 -0.771456 22.6808 2.48429 25.9365C5.74004 29.1923 11.0234 29.1923 14.2791 25.9365C17.5407 22.6808 17.5407 17.3974 14.2791 14.1417ZM11.6606 23.318C9.85317 25.1255 6.91604 25.1255 5.10858 23.318C3.30112 21.5106 3.30112 18.5735 5.10858 16.766C6.91604 14.9585 9.85317 14.9585 11.6606 16.766C13.4681 18.5677 13.4681 21.5106 11.6606 23.318Z" fill="black"/>
</g>
<defs>
<clipPath id="clip0_201_4855">
<rect width="16.6842" height="29.6609" fill="white" transform="translate(0.0395508 0.574219)"/>
</clipPath>
</defs>
</svg>
