<svg width="24" height="31" viewBox="0 0 24 31" fill="none" xmlns="http://www.w3.org/2000/svg">
<g clip-path="url(#clip0_201_4851)">
<path d="M22.4387 4.28174H17.8621C17.2422 4.28174 16.9352 5.02905 17.3697 5.46933L18.3487 6.44837L17.3349 7.46217L16.5181 6.64534C16.2458 6.37306 15.8055 6.37306 15.5332 6.64534L13.8938 8.27901C13.6215 8.55128 13.6215 8.99156 13.8938 9.26384L14.7106 10.0807L13.6679 11.1234C12.3818 10.3124 10.8582 9.84315 9.22452 9.84315C4.62476 9.84315 0.888184 13.5797 0.888184 18.1853C0.888184 22.7908 4.62476 26.5274 9.23031 26.5274C13.8359 26.5274 17.5724 22.7908 17.5724 18.1853C17.5724 16.5516 17.1032 15.028 16.2921 13.7419L17.3349 12.6992L18.1517 13.516C18.424 13.7883 18.8643 13.7883 19.1366 13.516L20.776 11.8765C21.0483 11.6043 21.0483 11.164 20.776 10.8917L19.9592 10.0749L20.973 9.06108L21.9521 10.0401C22.3923 10.4804 23.1396 10.1676 23.1396 9.5477V4.97692C23.1339 4.59457 22.821 4.28174 22.4387 4.28174ZM9.23031 22.8198C6.67553 22.8198 4.59579 20.7401 4.59579 18.1853C4.59579 15.6305 6.67553 13.5508 9.23031 13.5508C11.7851 13.5508 13.8648 15.6305 13.8648 18.1853C13.8648 20.7401 11.7851 22.8198 9.23031 22.8198Z" fill="black"/>
</g>
<defs>
<clipPath id="clip0_201_4851">
<rect width="22.2457" height="29.6609" fill="white" transform="translate(0.888184 0.574219)"/>
</clipPath>
</defs>
</svg>
