<svg width="30" height="31" viewBox="0 0 30 31" fill="none" xmlns="http://www.w3.org/2000/svg">
<g clip-path="url(#clip0_201_4859)">
<path d="M19.8886 0.574097H15.312C14.6921 0.574097 14.3851 1.32141 14.8196 1.76169L15.7986 2.74073L12.9774 5.56199C11.6913 4.75095 10.1677 4.28171 8.53402 4.28171C3.92847 4.28171 0.191895 8.01828 0.191895 12.6238C0.191895 17.2294 3.92847 20.966 8.53402 20.966C13.1396 20.966 16.8761 17.2294 16.8761 12.6238C16.8761 10.9902 16.4069 9.46657 15.5959 8.18049L18.4171 5.35923L19.3962 6.33827C19.5352 6.47731 19.7148 6.54103 19.8828 6.54103C20.242 6.54103 20.5838 6.26296 20.5838 5.84586V1.26927C20.5838 0.886926 20.2709 0.574097 19.8886 0.574097ZM8.53402 17.2583C5.97924 17.2583 3.89951 15.1786 3.89951 12.6238C3.89951 10.0691 5.97924 7.98932 8.53402 7.98932C11.0888 7.98932 13.1685 10.0691 13.1685 12.6238C13.1685 15.1786 11.0888 17.2583 8.53402 17.2583ZM29.1576 9.83733H24.581C23.9612 9.83733 23.6541 10.5846 24.0886 11.0249L25.0676 12.004L22.2464 14.8252C21.192 14.1648 19.9871 13.7303 18.6836 13.5913C18.5619 14.8542 18.2086 16.0997 17.6177 17.2583C17.6814 17.2583 17.7451 17.2526 17.803 17.2526C20.3578 17.2526 22.4376 19.3323 22.4376 21.8871C22.4376 24.4418 20.3578 26.5216 17.803 26.5216C15.2483 26.5216 13.1685 24.4418 13.1685 21.8871C13.1685 21.8233 13.1685 21.7596 13.1743 21.7017C12.0157 22.2926 10.7702 22.6518 9.50727 22.7676C9.94755 26.9677 13.4929 30.235 17.803 30.235C22.4086 30.235 26.1452 26.4984 26.1452 21.8929C26.1452 20.2592 25.6759 18.7356 24.8649 17.4495L27.6861 14.6283L28.6652 15.6073C28.8042 15.7463 28.978 15.8101 29.1518 15.8101C29.511 15.8101 29.8528 15.532 29.8528 15.1149V10.5383C29.8528 10.1502 29.54 9.83733 29.1576 9.83733Z" fill="black"/>
</g>
<defs>
<clipPath id="clip0_201_4859">
<rect width="29.6609" height="29.6609" fill="white" transform="translate(0.190918 0.574219)"/>
</clipPath>
</defs>
</svg>
