<svg width="24" height="31" viewBox="0 0 24 31" fill="none" xmlns="http://www.w3.org/2000/svg">
<g clip-path="url(#clip0_201_4853)">
<path d="M22.5142 4.28174H17.9377C17.3178 4.28174 17.0107 5.02905 17.4452 5.46933L18.4243 6.44837L13.7492 11.1234C12.4631 10.3124 10.9395 9.84315 9.30587 9.84315C4.70032 9.84315 0.963745 13.5797 0.963745 18.1853C0.963745 22.7908 4.70032 26.5274 9.30587 26.5274C13.9114 26.5274 17.648 22.7908 17.648 18.1853C17.648 16.5516 17.1788 15.028 16.3677 13.7419L21.0428 9.06687L22.0218 10.0459C22.4621 10.4862 23.2094 10.1734 23.2094 9.5535V4.97692C23.2094 4.59457 22.8966 4.28174 22.5142 4.28174ZM9.30587 22.8198C6.75109 22.8198 4.67136 20.7401 4.67136 18.1853C4.67136 15.6305 6.75109 13.5508 9.30587 13.5508C11.8606 13.5508 13.9404 15.6305 13.9404 18.1853C13.9404 20.7401 11.8606 22.8198 9.30587 22.8198Z" fill="black"/>
</g>
<defs>
<clipPath id="clip0_201_4853">
<rect width="22.2457" height="29.6609" fill="white" transform="translate(0.963867 0.574219)"/>
</clipPath>
</defs>
</svg>
