<svg width="39" height="31" viewBox="0 0 39 31" fill="none" xmlns="http://www.w3.org/2000/svg">
<g clip-path="url(#clip0_201_4849)">
<path d="M19.559 4.28174C-6.08146 4.28174 -1.15555 26.5274 10.3792 26.5274C12.6906 26.5274 14.8671 25.3288 16.2546 23.2914L17.7452 21.1021C18.6524 19.7703 20.4662 19.7703 21.3734 21.1021L22.864 23.2914C24.2509 25.3288 26.4273 26.5274 28.7388 26.5274C39.7377 26.5274 45.5754 4.28174 19.559 4.28174ZM11.6415 18.4379C9.26283 18.4379 7.71606 16.9513 7.00235 16.0598C6.69937 15.6815 6.69937 15.1277 7.00235 14.7488C7.71606 13.8566 9.26225 12.3707 11.6415 12.3707C14.0207 12.3707 15.5669 13.8572 16.2806 14.7488C16.5836 15.1271 16.5836 15.6809 16.2806 16.0598C15.5669 16.9519 14.0202 18.4379 11.6415 18.4379ZM27.3988 18.4379C25.0202 18.4379 23.4734 16.9513 22.7597 16.0598C22.4567 15.6815 22.4567 15.1277 22.7597 14.7488C23.4734 13.8566 25.0196 12.3707 27.3988 12.3707C29.7781 12.3707 31.3243 13.8572 32.038 14.7488C32.341 15.1271 32.341 15.6809 32.038 16.0598C31.3243 16.9519 29.7775 18.4379 27.3988 18.4379Z" fill="black"/>
</g>
<defs>
<clipPath id="clip0_201_4849">
<rect width="37.0761" height="29.6609" fill="white" transform="translate(0.982056 0.574219)"/>
</clipPath>
</defs>
</svg>
