<svg width="31" height="31" viewBox="0 0 31 31" fill="none" xmlns="http://www.w3.org/2000/svg">
<g clip-path="url(#clip0_201_4847)">
<path d="M13.4532 8.14869L9.4484 1.47441C9.28374 1.19985 9.05077 0.972621 8.77219 0.814853C8.49361 0.657086 8.17892 0.574162 7.85877 0.574158H1.41969C0.669476 0.574158 0.230356 1.41822 0.660207 2.03287L7.10624 11.2416C8.82796 9.63289 11.0178 8.52872 13.4532 8.14869ZM29.2233 0.574158H22.7842C22.1331 0.574158 21.5294 0.915953 21.1946 1.47441L17.1898 8.14869C19.6252 8.52872 21.815 9.63289 23.5367 11.2411L29.9828 2.03287C30.4126 1.41822 29.9735 0.574158 29.2233 0.574158ZM15.3215 9.84319C9.69056 9.84319 5.12556 14.4082 5.12556 20.0391C5.12556 25.67 9.69056 30.235 15.3215 30.235C20.9524 30.235 25.5174 25.67 25.5174 20.0391C25.5174 14.4082 20.9524 9.84319 15.3215 9.84319ZM20.6813 18.9535L18.484 21.0946L19.0036 24.1198C19.0963 24.662 18.5251 25.0763 18.0391 24.8202L15.3215 23.3922L12.6045 24.8202C12.1179 25.078 11.5473 24.6615 11.6399 24.1198L12.1596 21.0946L9.96226 18.9535C9.56716 18.5688 9.78556 17.8974 10.3301 17.8186L13.3675 17.376L14.7248 14.6231C14.847 14.3752 15.0834 14.2529 15.3203 14.2529C15.5584 14.2529 15.7965 14.3769 15.9188 14.6231L17.2761 17.376L20.3134 17.8186C20.858 17.8974 21.0764 18.5688 20.6813 18.9535Z" fill="black"/>
</g>
<defs>
<clipPath id="clip0_201_4847">
<rect width="29.6609" height="29.6609" fill="white" transform="translate(0.491211 0.574219)"/>
</clipPath>
</defs>
</svg>
