<svg width="30" height="31" viewBox="0 0 30 31" fill="none" xmlns="http://www.w3.org/2000/svg">
<g clip-path="url(#clip0_201_4845)">
<path d="M5.56166 28.3813H24.0997V7.9894H22.2459V5.20869C22.2459 3.67292 21.001 2.42798 19.4652 2.42798H10.1962C8.66041 2.42798 7.41547 3.67292 7.41547 5.20869V7.9894H5.56166V28.3813ZM11.1231 6.13559H18.5383V7.9894H11.1231V6.13559ZM29.6611 10.7701V25.6005C29.6611 27.1363 28.4162 28.3813 26.8804 28.3813H25.9535V7.9894H26.8804C28.4162 7.9894 29.6611 9.23434 29.6611 10.7701ZM3.70786 28.3813H2.78095C1.24519 28.3813 0.000244141 27.1363 0.000244141 25.6005V10.7701C0.000244141 9.23434 1.24519 7.9894 2.78095 7.9894H3.70786V28.3813ZM20.3921 16.3315V18.1853C20.3921 18.6973 19.9771 19.1122 19.4652 19.1122H16.6845V21.8929C16.6845 22.4049 16.2695 22.8198 15.7576 22.8198H13.9038C13.3918 22.8198 12.9769 22.4049 12.9769 21.8929V19.1122H10.1962C9.68423 19.1122 9.26927 18.6973 9.26927 18.1853V16.3315C9.26927 15.8196 9.68423 15.4046 10.1962 15.4046H12.9769V12.6239C12.9769 12.112 13.3918 11.697 13.9038 11.697H15.7576C16.2695 11.697 16.6845 12.112 16.6845 12.6239V15.4046H19.4652C19.9771 15.4046 20.3921 15.8196 20.3921 16.3315Z" fill="black"/>
</g>
<defs>
<clipPath id="clip0_201_4845">
<rect width="29.6609" height="29.6609" fill="white" transform="translate(0.000244141 0.574219)"/>
</clipPath>
</defs>
</svg>
