<svg width="30" height="31" viewBox="0 0 30 31" fill="none" xmlns="http://www.w3.org/2000/svg">
<g clip-path="url(#clip0_201_4841)">
<path d="M15.2393 1.0376C7.3027 1.0376 0.872314 7.46799 0.872314 15.4046C0.872314 23.3412 7.3027 29.7716 15.2393 29.7716C23.1759 29.7716 29.6063 23.3412 29.6063 15.4046C29.6063 7.46799 23.1759 1.0376 15.2393 1.0376ZM5.97028 13.5508C5.97028 12.1431 6.76394 10.9323 7.91678 10.3066C7.87622 10.4572 7.82409 10.6079 7.82409 10.7701C7.82409 11.7955 8.6525 12.6239 9.67789 12.6239C10.7033 12.6239 11.5317 11.7955 11.5317 10.7701C11.5317 10.6079 11.4796 10.4572 11.439 10.3066C12.5918 10.9323 13.3855 12.1431 13.3855 13.5508C13.3855 15.5958 11.7229 17.2584 9.67789 17.2584C7.63291 17.2584 5.97028 15.5958 5.97028 13.5508ZM18.9469 23.7467H11.5317C10.3036 23.7467 10.3036 21.8929 11.5317 21.8929H18.9469C20.1751 21.8929 20.1751 23.7467 18.9469 23.7467ZM20.8007 17.2584C18.7557 17.2584 17.0931 15.5958 17.0931 13.5508C17.0931 12.1431 17.8868 10.9323 19.0396 10.3066C18.9991 10.4572 18.9469 10.6079 18.9469 10.7701C18.9469 11.7955 19.7753 12.6239 20.8007 12.6239C21.8261 12.6239 22.6545 11.7955 22.6545 10.7701C22.6545 10.6079 22.6024 10.4572 22.5618 10.3066C23.7147 10.9323 24.5083 12.1431 24.5083 13.5508C24.5083 15.5958 22.8457 17.2584 20.8007 17.2584Z" fill="black"/>
</g>
<defs>
<clipPath id="clip0_201_4841">
<rect width="28.734" height="29.6609" fill="white" transform="translate(0.872314 0.574219)"/>
</clipPath>
</defs>
</svg>
