<svg width="30" height="31" viewBox="0 0 30 31" fill="none" xmlns="http://www.w3.org/2000/svg">
<g clip-path="url(#clip0_201_4843)">
<path d="M14.8041 1.0376C6.86752 1.0376 0.437134 7.46799 0.437134 15.4046C0.437134 23.3412 6.86752 29.7716 14.8041 29.7716C22.7407 29.7716 29.1711 23.3412 29.1711 15.4046C29.1711 7.46799 22.7407 1.0376 14.8041 1.0376ZM10.1696 14.4777C9.14423 14.4777 8.31581 13.6493 8.31581 12.6239C8.31581 11.5985 9.14423 10.7701 10.1696 10.7701C11.195 10.7701 12.0234 11.5985 12.0234 12.6239C12.0234 13.6493 11.195 14.4777 10.1696 14.4777ZM19.4386 14.4777C18.4133 14.4777 17.5848 13.6493 17.5848 12.6239C17.5848 11.5985 18.4133 10.7701 19.4386 10.7701C20.464 10.7701 21.2924 11.5985 21.2924 12.6239C21.2924 13.6493 20.464 14.4777 19.4386 14.4777Z" fill="black"/>
</g>
<defs>
<clipPath id="clip0_201_4843">
<rect width="28.734" height="29.6609" fill="white" transform="translate(0.436279 0.574219)"/>
</clipPath>
</defs>
</svg>
