<svg width="18" height="31" viewBox="0 0 18 31" fill="none" xmlns="http://www.w3.org/2000/svg">
<g clip-path="url(#clip0_201_4833)">
<path d="M17.6658 12.6239C17.6658 10.0633 16.513 7.77503 14.6997 6.24564C14.8446 6.14137 14.9836 6.0255 15.1168 5.90964C16.5477 4.6815 17.4225 3.08259 17.6195 1.34465C17.6716 0.933333 17.3472 0.574158 16.9301 0.574158H14.5839C14.2479 0.574158 13.964 0.811677 13.9003 1.14189C13.7612 1.86603 13.3441 2.54962 12.7011 3.09997C11.8147 3.86466 10.6156 4.28177 9.32369 4.28177C8.03182 4.28177 6.83264 3.86466 5.9405 3.09997C5.29746 2.54962 4.88615 1.86603 4.74132 1.14189C4.67759 0.811677 4.39373 0.574158 4.06352 0.574158H1.7173C1.30019 0.574158 0.975774 0.933333 1.02791 1.34465C1.22488 3.08838 2.09385 4.68729 3.53055 5.91543C3.66379 6.0313 3.80283 6.14137 3.94766 6.25144C2.1344 7.77503 0.981567 10.0633 0.981567 12.6239C0.981567 16.5922 3.75648 19.9175 7.46989 20.7575V23.7467H5.38436C5.00201 23.7467 4.68918 24.0596 4.68918 24.4419V26.7592C4.68918 27.1415 5.00201 27.4543 5.38436 27.4543H7.46989V29.5399C7.46989 29.9222 7.78272 30.235 8.16506 30.235H10.4823C10.8647 30.235 11.1775 29.9222 11.1775 29.5399V27.4543H13.263C13.6454 27.4543 13.9582 27.1415 13.9582 26.7592V24.4419C13.9582 24.0596 13.6454 23.7467 13.263 23.7467H11.1775V20.7575C14.8909 19.9175 17.6658 16.5922 17.6658 12.6239ZM4.68918 12.6239C4.68918 10.0691 6.76892 7.98938 9.32369 7.98938C11.8785 7.98938 13.9582 10.0691 13.9582 12.6239C13.9582 15.1787 11.8785 17.2584 9.32369 17.2584C6.76892 17.2584 4.68918 15.1787 4.68918 12.6239Z" fill="black"/>
</g>
<defs>
<clipPath id="clip0_201_4833">
<rect width="16.6842" height="29.6609" fill="white" transform="translate(0.981812 0.574219)"/>
</clipPath>
</defs>
</svg>
