<svg width="31" height="31" viewBox="0 0 31 31" fill="none" xmlns="http://www.w3.org/2000/svg">
<g clip-path="url(#clip0_201_4831)">
<path d="M30.1127 1.77939C29.4402 4.02149 28.1252 8.25043 26.5613 12.6532C26.9668 12.7745 27.3378 12.8849 27.6392 12.9772C27.7705 13.0172 27.8914 13.0859 27.9931 13.1781C28.0948 13.2704 28.1749 13.384 28.2275 13.5109C28.2801 13.6377 28.3039 13.7746 28.2974 13.9118C28.2908 14.0489 28.2539 14.183 28.1895 14.3042C26.9088 16.7545 23.3991 23.1558 19.9355 26.7249C19.8776 26.7883 19.8196 26.8697 19.7617 26.9277C18.7138 27.9759 17.4696 28.8074 16.1003 29.3748C14.731 29.9422 13.2634 30.2343 11.7812 30.2345C10.299 30.2347 8.83124 29.9429 7.46179 29.3759C6.09234 28.8089 4.84798 27.9776 3.79977 26.9297C2.75156 25.8818 1.92002 24.6376 1.35263 23.2683C0.78524 21.899 0.49311 20.4313 0.49292 18.9491C0.49273 17.4669 0.784484 15.9992 1.35152 14.6298C1.91856 13.2603 2.74978 12.016 3.79773 10.9677C3.85565 10.9098 3.9371 10.8519 4.00046 10.7939C7.56903 7.32354 13.9631 3.81873 16.4194 2.53882C16.5406 2.47434 16.6746 2.4375 16.8118 2.43093C16.949 2.42437 17.0859 2.44824 17.2127 2.50085C17.3395 2.55346 17.4531 2.6335 17.5454 2.73522C17.6376 2.83693 17.7062 2.95781 17.7462 3.08917C17.8385 3.38425 17.9489 3.7608 18.0702 4.16632C22.4669 2.60219 26.7007 1.28698 28.9424 0.615347C29.1044 0.566353 29.2766 0.562115 29.4408 0.603082C29.605 0.644049 29.7551 0.728694 29.875 0.848037C29.995 0.967381 30.0805 1.11697 30.1223 1.28095C30.1641 1.44492 30.1608 1.61716 30.1127 1.77939ZM19.0259 19.1124C19.0257 17.6461 18.5907 16.2128 17.7759 14.9937C16.9611 13.7746 15.8031 12.8245 14.4484 12.2635C13.0936 11.7025 11.6029 11.5558 10.1648 11.842C8.72666 12.1282 7.40569 12.8344 6.36892 13.8713C5.33215 14.9082 4.62613 16.2293 4.34014 17.6674C4.05415 19.1056 4.20103 20.5963 4.76222 21.951C5.3234 23.3057 6.27368 24.4635 7.4929 25.2781C8.71212 26.0928 10.1455 26.5276 11.6118 26.5276C12.5856 26.5276 13.5498 26.3358 14.4494 25.9632C15.349 25.5905 16.1664 25.0443 16.8548 24.3557C17.5433 23.6672 18.0894 22.8497 18.4619 21.95C18.8345 21.0504 19.0261 20.0862 19.0259 19.1124ZM11.6118 17.2587C11.6118 17.6252 11.503 17.9836 11.2993 18.2883C11.0956 18.5931 10.8061 18.8307 10.4675 18.9709C10.1288 19.1111 9.75609 19.1478 9.39655 19.0763C9.03702 19.0047 8.70678 18.8282 8.44759 18.5689C8.1884 18.3097 8.01189 17.9794 7.94039 17.6199C7.8689 17.2604 7.90562 16.8877 8.04591 16.549C8.18621 16.2104 8.42378 15.9209 8.72858 15.7172C9.03339 15.5136 9.39174 15.4049 9.75832 15.4049C10.0018 15.4046 10.243 15.4524 10.468 15.5454C10.693 15.6385 10.8975 15.775 11.0697 15.9472C11.2418 16.1194 11.3784 16.3239 11.4714 16.5489C11.5644 16.774 11.6122 17.0151 11.6118 17.2587ZM13.4654 21.8931C13.4653 22.0764 13.411 22.2556 13.3091 22.408C13.2073 22.5603 13.0625 22.6791 12.8932 22.7492C12.7238 22.8194 12.5375 22.8377 12.3577 22.8019C12.178 22.7661 12.0128 22.6779 11.8832 22.5483C11.7536 22.4186 11.6654 22.2535 11.6296 22.0737C11.5939 21.894 11.6123 21.7076 11.6824 21.5383C11.7525 21.369 11.8713 21.2242 12.0237 21.1224C12.1761 21.0206 12.3553 20.9662 12.5386 20.9662C12.7842 20.967 13.0195 21.0649 13.1931 21.2386C13.3667 21.4122 13.4646 21.6475 13.4654 21.8931Z" fill="black"/>
</g>
<defs>
<clipPath id="clip0_201_4831">
<rect width="29.6609" height="29.6609" fill="white" transform="translate(0.490967 0.574219)"/>
</clipPath>
</defs>
</svg>
