<svg width="38" height="31" viewBox="0 0 38 31" fill="none" xmlns="http://www.w3.org/2000/svg">
<g clip-path="url(#clip0_201_4827)">
<path d="M36.7735 27.4515L27.6458 20.3972C28.3688 18.9999 28.7894 17.4225 28.7894 15.7436V12.9629C28.7894 12.4508 28.3746 12.036 27.8625 12.036H26.9356C26.4235 12.036 26.0087 12.4508 26.0087 12.9629V15.7436C26.0087 16.7817 25.7793 17.7596 25.3877 18.6518L23.8496 17.463C24.0292 16.9184 24.1555 16.3496 24.1555 15.7442H21.6256L19.2273 13.8904H24.1549V12.0366H19.2116C18.8704 12.0366 18.5935 11.8292 18.5935 11.5731V10.6462C18.5935 10.3902 18.8704 10.1828 19.2116 10.1828H24.1549V8.32896H19.2116C18.8704 8.32896 18.5935 8.12156 18.5935 7.86551V6.9386C18.5935 6.68255 18.8704 6.47515 19.2116 6.47515H24.1549C24.1549 3.40363 21.665 0.913736 18.5935 0.913736C15.522 0.913736 13.0321 3.40363 13.0321 6.47515V9.10292L2.68957 1.10839C2.28521 0.794397 1.70242 0.866812 1.38843 1.27117L0.250658 2.7351C-0.0633298 3.13888 0.00908446 3.72109 0.413446 4.03566L34.498 30.3788C34.9023 30.6934 35.4845 30.6204 35.7991 30.216L36.9369 28.7521C37.2503 28.3483 37.1779 27.7661 36.7735 27.4515ZM23.228 27.7933H19.9838V25.8364C20.6622 25.7426 21.3221 25.5885 21.9512 25.3683L19.0314 23.1113C18.6427 23.1345 18.2546 23.1617 17.8525 23.1229C14.6171 22.8072 12.1324 20.3057 11.4117 17.2226L8.39755 14.8926V15.2894C8.39755 20.4824 12.1034 25.1117 17.2031 25.815V27.7933H13.959C13.4469 27.7933 13.0321 28.2081 13.0321 28.7202V29.6471C13.0321 30.1593 13.4469 30.574 13.959 30.574H23.228C23.7401 30.574 24.1549 30.1593 24.1549 29.6471V28.7202C24.1549 28.2081 23.7401 27.7933 23.228 27.7933Z" fill="black"/>
</g>
<defs>
<clipPath id="clip0_201_4827">
<rect width="37.0761" height="29.6609" fill="white" transform="translate(0.0556641 0.91333)"/>
</clipPath>
</defs>
</svg>
