<svg width="38" height="31" viewBox="0 0 38 31" fill="none" xmlns="http://www.w3.org/2000/svg">
<g clip-path="url(#clip0_201_4823)">
<path d="M37.6458 27.4517L28.5042 20.3863C29.2336 18.9954 29.6617 17.4243 29.6617 15.7437V12.963C29.6617 12.4509 29.2469 12.0361 28.7348 12.0361H27.8079C27.2957 12.0361 26.881 12.4509 26.881 12.963V15.7437C26.881 16.7818 26.6516 17.7597 26.2599 18.6519L24.7219 17.4631C24.9014 16.9186 25.0277 16.3497 25.0277 15.7443V6.47469C25.0277 3.40316 22.5378 0.913269 19.4663 0.913269C16.3948 0.913269 13.9049 3.40316 13.9049 6.47469V9.10246L3.56183 1.1085C3.15746 0.79451 2.57467 0.866924 2.26069 1.27129L1.12291 2.73521C0.808924 3.13899 0.881338 3.72121 1.2857 4.03577L35.3702 30.3789C35.7746 30.6935 36.3568 30.6205 36.6714 30.2161L37.8091 28.7522C38.1226 28.3484 38.0501 27.7662 37.6458 27.4517ZM24.1003 27.7935H20.8561V25.8371C21.5316 25.7444 22.1798 25.5741 22.8066 25.3557L19.9037 23.112C19.515 23.1352 19.1268 23.1624 18.7248 23.1236C15.4893 22.8079 13.0046 20.3064 12.284 17.2233L9.26981 14.8927V15.2895C9.26981 20.4825 12.9757 25.1118 18.0754 25.8151V27.7935H14.8312C14.3191 27.7935 13.9043 28.2082 13.9043 28.7204V29.6473C13.9043 30.1594 14.3191 30.5742 14.8312 30.5742H24.1003C24.6124 30.5742 25.0272 30.1594 25.0272 29.6473V28.7204C25.0272 28.2082 24.6124 27.7935 24.1003 27.7935Z" fill="black"/>
</g>
<defs>
<clipPath id="clip0_201_4823">
<rect width="37.0761" height="29.6609" fill="white" transform="translate(0.927734 0.91333)"/>
</clipPath>
</defs>
</svg>
