<svg width="22" height="31" viewBox="0 0 22 31" fill="none" xmlns="http://www.w3.org/2000/svg">
<g clip-path="url(#clip0_201_4825)">
<path d="M20.2988 12.036H19.3719C18.8598 12.036 18.445 12.4508 18.445 12.9629V15.7437C18.445 20.0769 14.709 23.554 10.2888 23.123C6.43641 22.747 3.61457 19.2838 3.61457 15.4134V12.9629C3.61457 12.4508 3.19978 12.036 2.68767 12.036H1.76077C1.24865 12.036 0.833862 12.4508 0.833862 12.9629V15.2895C0.833862 20.4824 4.53974 25.1117 9.63944 25.815V27.7934H6.39528C5.88317 27.7934 5.46838 28.2082 5.46838 28.7203V29.6472C5.46838 30.1593 5.88317 30.5741 6.39528 30.5741H15.6643C16.1764 30.5741 16.5912 30.1593 16.5912 29.6472V28.7203C16.5912 28.2082 16.1764 27.7934 15.6643 27.7934H12.4201V25.837C17.3854 25.1558 21.2257 20.8938 21.2257 15.7437V12.9629C21.2257 12.4508 20.8109 12.036 20.2988 12.036ZM11.0298 21.3051C14.1013 21.3051 16.5912 18.8152 16.5912 15.7437H11.6479C11.3067 15.7437 11.0298 15.5363 11.0298 15.2802V14.3533C11.0298 14.0972 11.3067 13.8898 11.6479 13.8898H16.5912V12.036H11.6479C11.3067 12.036 11.0298 11.8286 11.0298 11.5726V10.6457C11.0298 10.3896 11.3067 10.1822 11.6479 10.1822H16.5912V8.32843H11.6479C11.3067 8.32843 11.0298 8.12104 11.0298 7.86498V6.93808C11.0298 6.68202 11.3067 6.47462 11.6479 6.47462H16.5912C16.5912 3.4031 14.1013 0.913208 11.0298 0.913208C7.95827 0.913208 5.46838 3.4031 5.46838 6.47462V15.7437C5.46838 18.8152 7.95827 21.3051 11.0298 21.3051Z" fill="black"/>
</g>
<defs>
<clipPath id="clip0_201_4825">
<rect width="20.3919" height="29.6609" fill="white" transform="translate(0.833862 0.91333)"/>
</clipPath>
</defs>
</svg>
