<svg width="30" height="31" viewBox="0 0 30 31" fill="none" xmlns="http://www.w3.org/2000/svg">
<g clip-path="url(#clip0_201_4819)">
<path d="M9.48412 19.4514H10.1793V20.3783C10.1793 20.8905 10.5941 21.3053 11.1062 21.3053H13.4235C13.9356 21.3053 14.3504 20.8905 14.3504 20.3783V19.4514H15.0455C16.0692 19.4514 16.8993 18.6213 16.8993 17.5976V4.621C16.8993 3.59735 16.0692 2.7672 15.0455 2.7672V1.84029C15.0455 1.32818 14.6307 0.913391 14.1186 0.913391H10.411C9.8989 0.913391 9.48412 1.32818 9.48412 1.84029V2.7672C8.46047 2.7672 7.63031 3.59735 7.63031 4.621V17.5976C7.63031 18.6213 8.46047 19.4514 9.48412 19.4514ZM27.0953 26.8667H27.0205C28.7892 24.8964 29.876 22.3017 29.876 19.4514C29.876 13.3177 24.8869 8.32861 18.7531 8.32861V12.0362C22.8419 12.0362 26.1684 15.3626 26.1684 19.4514C26.1684 23.5402 22.8419 26.8667 18.7531 26.8667H2.9958C1.46003 26.8667 0.215088 28.1116 0.215088 29.6474C0.215088 30.1595 0.629877 30.5743 1.14199 30.5743H28.9491C29.4612 30.5743 29.876 30.1595 29.876 29.6474C29.876 28.1116 28.631 26.8667 27.0953 26.8667ZM6.23996 25.0129H18.2897C18.5457 25.0129 18.7531 24.8055 18.7531 24.5494V23.6225C18.7531 23.3665 18.5457 23.1591 18.2897 23.1591H6.23996C5.9839 23.1591 5.7765 23.3665 5.7765 23.6225V24.5494C5.7765 24.8055 5.9839 25.0129 6.23996 25.0129Z" fill="black"/>
</g>
<defs>
<clipPath id="clip0_201_4819">
<rect width="29.6609" height="29.6609" fill="white" transform="translate(0.215088 0.91333)"/>
</clipPath>
</defs>
</svg>
