<svg width="30" height="31" viewBox="0 0 30 31" fill="none" xmlns="http://www.w3.org/2000/svg">
<g clip-path="url(#clip0_201_4829)">
<path d="M24.0995 3.35493V27.4544C24.0995 28.9902 22.8545 30.2351 21.3188 30.2351H8.34212C6.80636 30.2351 5.56142 28.9902 5.56142 27.4544V3.35493C5.56142 1.81916 6.80636 0.574219 8.34212 0.574219H21.3188C22.8545 0.574219 24.0995 1.81916 24.0995 3.35493ZM29.6609 6.71495V7.41013C29.6609 7.50231 29.6243 7.59072 29.5591 7.65591C29.4939 7.72109 29.4055 7.75772 29.3133 7.75772H28.2705V8.1053C28.2705 8.19749 28.2339 8.2859 28.1687 8.35109C28.1035 8.41627 28.0151 8.45289 27.9229 8.45289H25.4898V5.67218H27.9229C28.0151 5.67218 28.1035 5.70881 28.1687 5.77399C28.2339 5.83918 28.2705 5.92759 28.2705 6.01977V6.36736H29.3133C29.4055 6.36736 29.4939 6.40398 29.5591 6.46917C29.6243 6.53435 29.6609 6.62276 29.6609 6.71495ZM29.6609 12.2764V12.9715C29.6609 13.0637 29.6243 13.1521 29.5591 13.2173C29.4939 13.2825 29.4055 13.3191 29.3133 13.3191H28.2705V13.6667C28.2705 13.7589 28.2339 13.8473 28.1687 13.9125C28.1035 13.9777 28.0151 14.0143 27.9229 14.0143H25.4898V11.2336H27.9229C28.0151 11.2336 28.1035 11.2702 28.1687 11.3354C28.2339 11.4006 28.2705 11.489 28.2705 11.5812V11.9288H29.3133C29.4055 11.9288 29.4939 11.9654 29.5591 12.0306C29.6243 12.0958 29.6609 12.1842 29.6609 12.2764ZM29.6609 17.8378V18.533C29.6609 18.6251 29.6243 18.7136 29.5591 18.7787C29.4939 18.8439 29.4055 18.8805 29.3133 18.8805H28.2705V19.2281C28.2705 19.3203 28.2339 19.4087 28.1687 19.4739C28.1035 19.5391 28.0151 19.5757 27.9229 19.5757H25.4898V16.795H27.9229C28.0151 16.795 28.1035 16.8316 28.1687 16.8968C28.2339 16.962 28.2705 17.0504 28.2705 17.1426V17.4902H29.3133C29.4055 17.4902 29.4939 17.5268 29.5591 17.592C29.6243 17.6572 29.6609 17.7456 29.6609 17.8378ZM29.6609 23.3992V24.0944C29.6609 24.1866 29.6243 24.275 29.5591 24.3402C29.4939 24.4053 29.4055 24.442 29.3133 24.442H28.2705V24.7896C28.2705 24.8817 28.2339 24.9701 28.1687 25.0353C28.1035 25.1005 28.0151 25.1371 27.9229 25.1371H25.4898V22.3564H27.9229C28.0151 22.3564 28.1035 22.3931 28.1687 22.4582C28.2339 22.5234 28.2705 22.6118 28.2705 22.704V23.0516H29.3133C29.4055 23.0516 29.4939 23.0882 29.5591 23.1534C29.6243 23.2186 29.6609 23.307 29.6609 23.3992ZM1.73794 22.3564H4.17106V25.1371H1.73794C1.64576 25.1371 1.55735 25.1005 1.49216 25.0353C1.42697 24.9701 1.39035 24.8817 1.39035 24.7896V24.442H0.347589C0.255402 24.442 0.166992 24.4053 0.101806 24.3402C0.0366208 24.275 0 24.1866 0 24.0944L0 23.3992C0 23.307 0.0366208 23.2186 0.101806 23.1534C0.166992 23.0882 0.255402 23.0516 0.347589 23.0516H1.39035V22.704C1.39035 22.6118 1.42697 22.5234 1.49216 22.4582C1.55735 22.3931 1.64576 22.3564 1.73794 22.3564ZM1.73794 16.795H4.17106V19.5757H1.73794C1.64576 19.5757 1.55735 19.5391 1.49216 19.4739C1.42697 19.4087 1.39035 19.3203 1.39035 19.2281V18.8805H0.347589C0.255402 18.8805 0.166992 18.8439 0.101806 18.7787C0.0366208 18.7136 0 18.6251 0 18.533L0 17.8378C0 17.7456 0.0366208 17.6572 0.101806 17.592C0.166992 17.5268 0.255402 17.4902 0.347589 17.4902H1.39035V17.1426C1.39035 17.0504 1.42697 16.962 1.49216 16.8968C1.55735 16.8316 1.64576 16.795 1.73794 16.795ZM1.73794 11.2336H4.17106V14.0143H1.73794C1.64576 14.0143 1.55735 13.9777 1.49216 13.9125C1.42697 13.8473 1.39035 13.7589 1.39035 13.6667V13.3191H0.347589C0.255402 13.3191 0.166992 13.2825 0.101806 13.2173C0.0366208 13.1521 0 13.0637 0 12.9715L0 12.2764C0 12.1842 0.0366208 12.0958 0.101806 12.0306C0.166992 11.9654 0.255402 11.9288 0.347589 11.9288H1.39035V11.5812C1.39035 11.489 1.42697 11.4006 1.49216 11.3354C1.55735 11.2702 1.64576 11.2336 1.73794 11.2336ZM1.73794 5.67218H4.17106V8.45289H1.73794C1.64576 8.45289 1.55735 8.41627 1.49216 8.35109C1.42697 8.2859 1.39035 8.19749 1.39035 8.1053V7.75772H0.347589C0.255402 7.75772 0.166992 7.72109 0.101806 7.65591C0.0366208 7.59072 0 7.50231 0 7.41013L0 6.71495C0 6.62276 0.0366208 6.53435 0.101806 6.46917C0.166992 6.40398 0.255402 6.36736 0.347589 6.36736H1.39035V6.01977C1.39035 5.92759 1.42697 5.83918 1.49216 5.77399C1.55735 5.70881 1.64576 5.67218 1.73794 5.67218Z" fill="black"/>
</g>
<defs>
<clipPath id="clip0_201_4829">
<rect width="29.6609" height="29.6609" fill="white" transform="translate(0 0.574219)"/>
</clipPath>
</defs>
</svg>
