<svg width="22" height="31" viewBox="0 0 22 31" fill="none" xmlns="http://www.w3.org/2000/svg">
<g clip-path="url(#clip0_201_4821)">
<path d="M10.903 21.3053C13.9745 21.3053 16.4644 18.8154 16.4644 15.7438V6.47481C16.4644 3.40328 13.9745 0.913391 10.903 0.913391C7.83144 0.913391 5.34155 3.40328 5.34155 6.47481V15.7438C5.34155 18.8154 7.83144 21.3053 10.903 21.3053ZM20.172 12.0362H19.2451C18.733 12.0362 18.3182 12.451 18.3182 12.9631V15.7438C18.3182 20.0771 14.5822 23.5541 10.162 23.1231C6.30958 22.7472 3.48774 19.284 3.48774 15.4136V12.9631C3.48774 12.451 3.07295 12.0362 2.56084 12.0362H1.63393C1.12182 12.0362 0.707031 12.451 0.707031 12.9631V15.2897C0.707031 20.4826 4.4129 25.1119 9.51261 25.8152V27.7936H6.26845C5.75633 27.7936 5.34155 28.2084 5.34155 28.7205V29.6474C5.34155 30.1595 5.75633 30.5743 6.26845 30.5743H15.5375C16.0496 30.5743 16.4644 30.1595 16.4644 29.6474V28.7205C16.4644 28.2084 16.0496 27.7936 15.5375 27.7936H12.2933V25.8372C17.2586 25.156 21.0989 20.8939 21.0989 15.7438V12.9631C21.0989 12.451 20.6841 12.0362 20.172 12.0362Z" fill="black"/>
</g>
<defs>
<clipPath id="clip0_201_4821">
<rect width="20.3919" height="29.6609" fill="white" transform="translate(0.706055 0.91333)"/>
</clipPath>
</defs>
</svg>
