<svg width="27" height="31" viewBox="0 0 27 31" fill="none" xmlns="http://www.w3.org/2000/svg">
<g clip-path="url(#clip0_201_4811)">
<path d="M21.6926 25.0129H3.15454C2.64474 25.0129 2.22764 25.43 2.22764 25.9398V29.6474C2.22764 30.1572 2.64474 30.5743 3.15454 30.5743H21.6926C22.2024 30.5743 22.6195 30.1572 22.6195 29.6474V25.9398C22.6195 25.43 22.2024 25.0129 21.6926 25.0129ZM24.9947 12.8994C23.419 11.5902 21.0843 11.7987 19.7751 13.3744L18.5643 14.8227L16.8495 7.38434C15.8068 2.89465 11.3229 0.0907702 6.83898 1.12774C2.35509 2.16472 -0.448795 6.64281 0.588177 11.1325L3.36309 23.1591H21.2639L25.4639 18.119C26.779 16.5433 26.5646 14.2087 24.9947 12.8994Z" fill="black"/>
</g>
<defs>
<clipPath id="clip0_201_4811">
<rect width="25.9533" height="29.6609" fill="white" transform="translate(0.374268 0.91333)"/>
</clipPath>
</defs>
</svg>
