<svg width="20" height="31" viewBox="0 0 20 31" fill="none" xmlns="http://www.w3.org/2000/svg">
<g clip-path="url(#clip0_201_4807)">
<path d="M16.3957 0.913361H3.41908C1.88389 0.913361 0.638367 2.15889 0.638367 3.69407V27.7935C0.638367 29.3287 1.88389 30.5742 3.41908 30.5742H16.3957C17.9309 30.5742 19.1764 29.3287 19.1764 27.7935V3.69407C19.1764 2.15889 17.9309 0.913361 16.3957 0.913361ZM9.90739 28.7204C8.88201 28.7204 8.05359 27.892 8.05359 26.8666C8.05359 25.8413 8.88201 25.0128 9.90739 25.0128C10.9328 25.0128 11.7612 25.8413 11.7612 26.8666C11.7612 27.892 10.9328 28.7204 9.90739 28.7204Z" fill="black"/>
</g>
<defs>
<clipPath id="clip0_201_4807">
<rect width="18.5381" height="29.6609" fill="white" transform="translate(0.638184 0.91333)"/>
</clipPath>
</defs>
</svg>
