<svg width="19" height="31" viewBox="0 0 19 31" fill="none" xmlns="http://www.w3.org/2000/svg">
<g clip-path="url(#clip0_201_4809)">
<path d="M15.7625 0.913361H2.78584C1.25065 0.913361 0.00512695 2.15889 0.00512695 3.69407V27.7935C0.00512695 29.3287 1.25065 30.5742 2.78584 30.5742H15.7625C17.2977 30.5742 18.5432 29.3287 18.5432 27.7935V3.69407C18.5432 2.15889 17.2977 0.913361 15.7625 0.913361ZM9.27415 28.7204C8.24877 28.7204 7.42035 27.892 7.42035 26.8666C7.42035 25.8413 8.24877 25.0128 9.27415 25.0128C10.2995 25.0128 11.128 25.8413 11.128 26.8666C11.128 27.892 10.2995 28.7204 9.27415 28.7204ZM15.7625 22.4639C15.7625 22.8462 15.4496 23.159 15.0673 23.159H3.48101C3.09866 23.159 2.78584 22.8462 2.78584 22.4639V4.38925C2.78584 4.0069 3.09866 3.69407 3.48101 3.69407H15.0673C15.4496 3.69407 15.7625 4.0069 15.7625 4.38925V22.4639Z" fill="black"/>
</g>
<defs>
<clipPath id="clip0_201_4809">
<rect width="18.5381" height="29.6609" fill="white" transform="translate(0.00622559 0.91333)"/>
</clipPath>
</defs>
</svg>
