<svg width="38" height="31" viewBox="0 0 38 31" fill="none" xmlns="http://www.w3.org/2000/svg">
<g clip-path="url(#clip0_201_4799)">
<path d="M35.2359 4.621H1.86736C0.843707 4.621 0.0135498 5.45116 0.0135498 6.47481V25.0129C0.0135498 26.0365 0.843707 26.8667 1.86736 26.8667H35.2359C36.2595 26.8667 37.0897 26.0365 37.0897 25.0129V6.47481C37.0897 5.45116 36.2595 4.621 35.2359 4.621ZM2.79426 24.086V20.3783C4.84213 20.3783 6.50187 22.0381 6.50187 24.086H2.79426ZM2.79426 11.1093V7.40171H6.50187C6.50187 9.44959 4.84213 11.1093 2.79426 11.1093ZM18.5516 21.3053C15.9916 21.3053 13.9171 18.8148 13.9171 15.7438C13.9171 12.6723 15.9922 10.1824 18.5516 10.1824C21.111 10.1824 23.1861 12.6723 23.1861 15.7438C23.1861 18.8159 21.1104 21.3053 18.5516 21.3053ZM34.309 24.086H30.6013C30.6013 22.0381 32.2611 20.3783 34.309 20.3783V24.086ZM34.309 11.1093C32.2611 11.1093 30.6013 9.44959 30.6013 7.40171H34.309V11.1093Z" fill="black"/>
</g>
<defs>
<clipPath id="clip0_201_4799">
<rect width="37.0761" height="29.6609" fill="white" transform="translate(0.0136719 0.91333)"/>
</clipPath>
</defs>
</svg>
