<svg width="38" height="31" viewBox="0 0 38 31" fill="none" xmlns="http://www.w3.org/2000/svg">
<g clip-path="url(#clip0_201_4801)">
<path d="M36.9046 4.06829C34.6574 3.12575 32.4085 2.76715 30.1608 2.76715C23.0254 2.76657 15.8906 6.3786 8.75515 6.3786C6.96565 6.3786 5.1773 6.1515 3.3878 5.58378C3.18678 5.52005 2.98518 5.48993 2.78821 5.48993C1.79121 5.48993 0.919922 6.26157 0.919922 7.33273V25.712C0.919922 26.4437 1.33877 27.1372 2.01135 27.4187C4.25851 28.3618 6.50741 28.7204 8.75515 28.7204C15.8906 28.7204 23.026 25.1084 30.1614 25.1084C31.9509 25.1084 33.7392 25.3355 35.5287 25.9032C35.7298 25.9669 35.9314 25.9971 36.1283 25.9971C37.1253 25.9971 37.9966 25.2254 37.9966 24.1543V5.77553C37.996 5.04328 37.5772 4.35042 36.9046 4.06829ZM3.70063 8.57304C4.86621 8.86501 6.08277 9.01158 7.33409 9.09037C6.99345 10.793 5.4965 12.0762 3.70063 12.0762V8.57304ZM3.70063 25.0835V22.3155C5.69173 22.3155 7.30281 23.8953 7.39144 25.8725C6.08625 25.7677 4.86621 25.507 3.70063 25.0835ZM19.458 21.3052C16.898 21.3052 14.8235 18.8147 14.8235 15.7438C14.8235 12.6723 16.8986 10.1824 19.458 10.1824C22.0174 10.1824 24.0925 12.6723 24.0925 15.7438C24.0925 18.8159 22.0168 21.3052 19.458 21.3052ZM35.2153 22.9145C34.2004 22.6602 33.1466 22.5177 32.0685 22.4256C32.4085 20.9147 33.6616 19.7677 35.2153 19.5707V22.9145ZM35.2153 9.23635C33.4258 9.00984 32.0372 7.51579 31.9822 5.67067C33.1142 5.79639 34.1888 6.03159 35.2153 6.40409V9.23635Z" fill="black"/>
</g>
<defs>
<clipPath id="clip0_201_4801">
<rect width="37.0761" height="29.6609" fill="white" transform="translate(0.919678 0.91333)"/>
</clipPath>
</defs>
</svg>
