<svg width="38" height="31" viewBox="0 0 38 31" fill="none" xmlns="http://www.w3.org/2000/svg">
<g clip-path="url(#clip0_201_4795)">
<path d="M0.201416 26.8666C0.201416 27.8903 1.03157 28.7204 2.05522 28.7204H35.4237C36.4474 28.7204 37.2775 27.8903 37.2775 26.8666V8.32857H0.201416V26.8666ZM26.1547 14.8169C26.1547 14.3048 26.5695 13.89 27.0816 13.89H32.643C33.1551 13.89 33.5699 14.3048 33.5699 14.8169V16.6707C33.5699 17.1828 33.1551 17.5976 32.643 17.5976H27.0816C26.5695 17.5976 26.1547 17.1828 26.1547 16.6707V14.8169ZM26.1547 21.7687C26.1547 21.5126 26.3621 21.3052 26.6181 21.3052H33.1065C33.3625 21.3052 33.5699 21.5126 33.5699 21.7687V22.6956C33.5699 22.9516 33.3625 23.159 33.1065 23.159H26.6181C26.3621 23.159 26.1547 22.9516 26.1547 22.6956V21.7687ZM3.90903 16.2072C3.90903 15.9512 4.11642 15.7438 4.37248 15.7438H21.9836C22.2397 15.7438 22.4471 15.9512 22.4471 16.2072V17.1341C22.4471 17.3902 22.2397 17.5976 21.9836 17.5976H4.37248C4.11642 17.5976 3.90903 17.3902 3.90903 17.1341V16.2072ZM3.90903 21.7687C3.90903 21.5126 4.11642 21.3052 4.37248 21.3052H14.5684C14.8245 21.3052 15.0319 21.5126 15.0319 21.7687V22.6956C15.0319 22.9516 14.8245 23.159 14.5684 23.159H4.37248C4.11642 23.159 3.90903 22.9516 3.90903 22.6956V21.7687ZM36.3506 2.76715H1.12832C0.616205 2.76715 0.201416 3.18194 0.201416 3.69405V6.47476H37.2775V3.69405C37.2775 3.18194 36.8627 2.76715 36.3506 2.76715Z" fill="black"/>
</g>
<defs>
<clipPath id="clip0_201_4795">
<rect width="37.0761" height="29.6609" fill="white" transform="translate(0.201416 0.91333)"/>
</clipPath>
</defs>
</svg>
