<svg width="30" height="31" viewBox="0 0 30 31" fill="none" xmlns="http://www.w3.org/2000/svg">
<g clip-path="url(#clip0_201_4789)">
<path d="M29.1987 4.44197C30.1963 3.44439 29.9234 1.76264 28.6617 1.13177C28.3183 0.96015 27.9339 0.887513 27.5515 0.921994C27.1692 0.956474 26.804 1.09671 26.4968 1.327L14.6898 10.1824H23.4589L29.1987 4.44197ZM28.8778 12.0362H1.0707C0.558588 12.0362 0.143799 12.451 0.143799 12.9631V14.8169C0.143799 15.329 0.558588 15.7438 1.0707 15.7438H1.9976C1.9976 20.4351 4.90576 24.4399 9.01484 26.0741C8.27563 27.0515 7.75657 28.206 7.56945 29.4741C7.48487 30.0488 7.91935 30.5737 8.50041 30.5737H21.4481C22.0291 30.5737 22.4636 30.0488 22.379 29.4741C22.1925 28.206 21.6734 27.0515 20.9336 26.0741C25.0427 24.4399 27.9509 20.4351 27.9509 15.7438H28.8778C29.3899 15.7438 29.8047 15.329 29.8047 14.8169V12.9631C29.8047 12.451 29.3899 12.0362 28.8778 12.0362Z" fill="black"/>
</g>
<defs>
<clipPath id="clip0_201_4789">
<rect width="29.6609" height="29.6609" fill="white" transform="translate(0.143799 0.91333)"/>
</clipPath>
</defs>
</svg>
