<svg width="38" height="31" viewBox="0 0 38 31" fill="none" xmlns="http://www.w3.org/2000/svg">
<g clip-path="url(#clip0_201_4783)">
<path d="M37.2074 27.7182L20.5232 1.76495C20.182 1.2343 19.5945 0.913361 18.9637 0.913361C18.3328 0.913361 17.7454 1.2343 17.4041 1.76495L0.719889 27.7182C0.53984 27.9983 0.438532 28.3217 0.426605 28.6544C0.414679 28.9871 0.492574 29.3169 0.652109 29.6091C0.811718 29.9013 1.04705 30.1451 1.33338 30.3149C1.61972 30.4847 1.94649 30.5743 2.2794 30.5742H35.6479C36.3263 30.5742 36.9502 30.2041 37.2752 29.6085C37.4347 29.3164 37.5126 28.9867 37.5007 28.6541C37.4888 28.3215 37.3875 27.9982 37.2074 27.7182ZM18.9637 6.19555L23.9104 13.89H18.9637L15.256 17.5976L13.0512 15.3927L18.9637 6.19555Z" fill="black"/>
</g>
<defs>
<clipPath id="clip0_201_4783">
<rect width="37.0761" height="29.6609" fill="white" transform="translate(0.425537 0.91333)"/>
</clipPath>
</defs>
</svg>
