<svg width="24" height="31" viewBox="0 0 24 31" fill="none" xmlns="http://www.w3.org/2000/svg">
<g clip-path="url(#clip0_201_4779)">
<path d="M0.981812 21.3053C0.981812 23.7636 1.95837 26.1212 3.69665 27.8594C5.43493 29.5977 7.79254 30.5743 10.2508 30.5743H13.9585C15.1757 30.5743 16.381 30.3345 17.5056 29.8687C18.6301 29.4029 19.6519 28.7202 20.5126 27.8594C21.3734 26.9987 22.0561 25.9769 22.5219 24.8524C22.9877 23.7278 23.2275 22.5225 23.2275 21.3053V13.89H0.981812V21.3053ZM11.1777 0.913391H10.2508C7.79254 0.913391 5.43493 1.88995 3.69665 3.62823C1.95837 5.36651 0.981812 7.72412 0.981812 10.1824L0.981812 12.0362H11.1777V0.913391ZM13.9585 0.913391H13.0315V12.0362H23.2275V10.1824C23.2275 8.96519 22.9877 7.75989 22.5219 6.63532C22.0561 5.51075 21.3734 4.48894 20.5126 3.62823C19.6519 2.76752 18.6301 2.08477 17.5056 1.61895C16.381 1.15314 15.1757 0.913391 13.9585 0.913391Z" fill="black"/>
</g>
<defs>
<clipPath id="clip0_201_4779">
<rect width="22.2457" height="29.6609" fill="white" transform="translate(0.981812 0.91333)"/>
</clipPath>
</defs>
</svg>
