<svg width="31" height="31" viewBox="0 0 31 31" fill="none" xmlns="http://www.w3.org/2000/svg">
<g clip-path="url(#clip0_201_4777)">
<path d="M7.85393 9.40034C7.92924 9.84642 8.31738 10.1824 8.78083 10.1824H9.7367C10.3044 10.1824 10.7563 9.69 10.681 9.13965C10.4608 7.50599 9.73091 5.99977 8.56069 4.81218C7.72648 3.96058 7.19351 2.88306 7.0313 1.71284C6.96758 1.25519 6.57364 0.913391 6.09861 0.913391H5.14853C4.5808 0.913391 4.14052 1.40581 4.20425 1.95616C4.43018 3.80417 5.24701 5.50735 6.55626 6.84557C7.25144 7.55233 7.69751 8.43868 7.85393 9.40034ZM14.3422 9.40034C14.4176 9.84642 14.8057 10.1824 15.2692 10.1824H16.225C16.7927 10.1824 17.2446 9.69 17.1693 9.13965C16.9492 7.50599 16.2192 5.99977 15.049 4.81218C14.2148 3.96058 13.6818 2.88306 13.5196 1.71284C13.4559 1.25519 13.062 0.913391 12.5869 0.913391H11.6369C11.0691 0.913391 10.6231 1.40581 10.6926 1.95616C10.9185 3.80417 11.7353 5.50735 13.0446 6.84557C13.7398 7.55233 14.1858 8.43868 14.3422 9.40034ZM23.6634 12.0362H2.34465C1.31926 12.0362 0.490845 12.8646 0.490845 13.89V25.0129C0.490845 28.0832 2.9819 30.5743 6.05226 30.5743H17.1751C20.2455 30.5743 22.7365 28.0832 22.7365 25.0129H23.6634C27.2436 25.0129 30.1517 22.1047 30.1517 18.5245C30.1517 14.9444 27.2436 12.0362 23.6634 12.0362ZM23.6634 21.3053H22.7365V15.7438H23.6634C25.1986 15.7438 26.4441 16.9894 26.4441 18.5245C26.4441 20.0597 25.1986 21.3053 23.6634 21.3053Z" fill="black"/>
</g>
<defs>
<clipPath id="clip0_201_4777">
<rect width="29.6609" height="29.6609" fill="white" transform="translate(0.490845 0.91333)"/>
</clipPath>
</defs>
</svg>
