<svg width="30" height="31" viewBox="0 0 30 31" fill="none" xmlns="http://www.w3.org/2000/svg">
<g clip-path="url(#clip0_201_4775)">
<path d="M27.25 1.00085L8.71371 6.47479C8.33744 6.59299 8.00867 6.82811 7.77519 7.14597C7.54172 7.46384 7.4157 7.84788 7.41547 8.24228V23.3861C6.80843 23.2388 6.18631 23.1626 5.56166 23.159C2.4913 23.159 0.000244141 24.8194 0.000244141 26.8667C0.000244141 28.914 2.4913 30.5743 5.56166 30.5743C8.63203 30.5743 11.1231 28.914 11.1231 26.8667V13.3292L25.9535 8.98438V19.6791C25.3466 19.5313 24.7244 19.4548 24.0997 19.4514C21.0294 19.4514 18.5383 21.1117 18.5383 23.159C18.5383 25.2063 21.0294 26.8667 24.0997 26.8667C27.1701 26.8667 29.6611 25.2069 29.6611 23.159V2.76718C29.6609 2.47616 29.5921 2.18929 29.4603 1.92978C29.3286 1.67028 29.1376 1.44544 28.9029 1.27345C28.6681 1.10146 28.3961 0.987168 28.109 0.93981C27.8218 0.892452 27.5276 0.913364 27.25 1.00085Z" fill="black"/>
</g>
<defs>
<clipPath id="clip0_201_4775">
<rect width="29.6609" height="29.6609" fill="white" transform="translate(0 0.91333)"/>
</clipPath>
</defs>
</svg>
