<svg width="17" height="30" viewBox="0 0 17 30" fill="none" xmlns="http://www.w3.org/2000/svg">
<g clip-path="url(#clip0_201_4771)">
<path d="M16.9566 10.4484C16.9566 5.84284 13.22 2.10626 8.61446 2.10626C4.00892 2.10626 0.272339 5.84284 0.272339 10.4484C0.272339 14.4167 3.04725 17.742 6.76066 18.582V27.3644C6.76066 27.7467 7.07349 28.0595 7.45584 28.0595H9.77309C10.1554 28.0595 10.4683 27.7467 10.4683 27.3644V18.582C14.1817 17.742 16.9566 14.4167 16.9566 10.4484ZM8.61446 15.0829C6.05969 15.0829 3.97995 13.0032 3.97995 10.4484C3.97995 7.89361 6.05969 5.81387 8.61446 5.81387C11.1692 5.81387 13.249 7.89361 13.249 10.4484C13.249 13.0032 11.1692 15.0829 8.61446 15.0829Z" fill="black"/>
</g>
<defs>
<clipPath id="clip0_201_4771">
<rect width="16.6842" height="29.6609" fill="white" transform="translate(0.272339 0.252441)"/>
</clipPath>
</defs>
</svg>
