<svg width="34" height="30" viewBox="0 0 34 30" fill="none" xmlns="http://www.w3.org/2000/svg">
<g clip-path="url(#clip0_201_4769)">
<path d="M32.052 3.96014H5.17182C4.40394 3.96014 3.78146 4.58262 3.78146 5.3505V5.81395H1.46421C0.696326 5.81395 0.0738525 6.43642 0.0738525 7.2043V22.9617C0.0738525 24.7534 1.52631 26.2058 3.31801 26.2058H30.6616C32.1974 26.2058 33.4424 24.9609 33.4424 23.4251V5.3505C33.4424 4.58262 32.8199 3.96014 32.052 3.96014ZM3.31801 23.4251C3.1951 23.4251 3.07722 23.3763 2.9903 23.2894C2.90339 23.2024 2.85456 23.0846 2.85456 22.9617V8.59466H3.78146V22.9617C3.78146 23.0846 3.73264 23.2024 3.64572 23.2894C3.55881 23.3763 3.44093 23.4251 3.31801 23.4251ZM16.9898 22.4982H8.18425C7.80034 22.4982 7.48907 22.1869 7.48907 21.803V21.3396C7.48907 20.9557 7.80034 20.6444 8.18425 20.6444H16.9898C17.3737 20.6444 17.685 20.9557 17.685 21.3396V21.803C17.685 22.1869 17.3737 22.4982 16.9898 22.4982ZM29.0396 22.4982H20.234C19.8501 22.4982 19.5388 22.1869 19.5388 21.803V21.3396C19.5388 20.9557 19.8501 20.6444 20.234 20.6444H29.0396C29.4235 20.6444 29.7347 20.9557 29.7347 21.3396V21.803C29.7347 22.1869 29.4235 22.4982 29.0396 22.4982ZM16.9898 16.9368H8.18425C7.80034 16.9368 7.48907 16.6255 7.48907 16.2416V15.7782C7.48907 15.3942 7.80034 15.083 8.18425 15.083H16.9898C17.3737 15.083 17.685 15.3942 17.685 15.7782V16.2416C17.685 16.6255 17.3737 16.9368 16.9898 16.9368ZM29.0396 16.9368H20.234C19.8501 16.9368 19.5388 16.6255 19.5388 16.2416V15.7782C19.5388 15.3942 19.8501 15.083 20.234 15.083H29.0396C29.4235 15.083 29.7347 15.3942 29.7347 15.7782V16.2416C29.7347 16.6255 29.4235 16.9368 29.0396 16.9368ZM29.0396 11.3754H8.18425C7.80034 11.3754 7.48907 11.0641 7.48907 10.6802V8.36293C7.48907 7.97902 7.80034 7.66776 8.18425 7.66776H29.0396C29.4235 7.66776 29.7347 7.97902 29.7347 8.36293V10.6802C29.7347 11.0641 29.4235 11.3754 29.0396 11.3754Z" fill="black"/>
</g>
<defs>
<clipPath id="clip0_201_4769">
<rect width="33.3685" height="29.6609" fill="white" transform="translate(0.0738525 0.252441)"/>
</clipPath>
</defs>
</svg>
