<svg width="27" height="30" viewBox="0 0 27 30" fill="none" xmlns="http://www.w3.org/2000/svg">
<g clip-path="url(#clip0_201_4767)">
<path d="M24.389 12.3021C25.4127 12.3021 26.2428 11.472 26.2428 10.4483V8.59451C26.2428 7.57086 25.4127 6.7407 24.389 6.7407H23.0056L26.0105 2.87031C26.3216 2.46363 26.2446 1.882 25.8385 1.5709L24.3664 0.443558C23.9597 0.131887 23.3781 0.209515 23.0665 0.615615L18.3114 6.7407H2.14336C1.11971 6.7407 0.289551 7.57086 0.289551 8.59451V10.4483C0.289551 11.472 1.11971 12.3021 2.14336 12.3021H13.9938L9.67618 17.8635H2.14336C1.11971 17.8635 0.289551 18.6937 0.289551 19.7173V21.5711C0.289551 22.5948 1.11971 23.425 2.14336 23.425H5.35797L2.35307 27.2954C2.04198 27.7015 2.11903 28.2831 2.52512 28.5948L3.99716 29.7221C4.40384 30.0338 4.98547 29.9561 5.29656 29.55L10.0522 23.425H24.389C25.4127 23.425 26.2428 22.5948 26.2428 21.5711V19.7173C26.2428 18.6937 25.4127 17.8635 24.389 17.8635H14.3698L18.6874 12.3021H24.389Z" fill="black"/>
</g>
<defs>
<clipPath id="clip0_201_4767">
<rect width="25.9533" height="29.6609" fill="white" transform="translate(0.290527 0.252441)"/>
</clipPath>
</defs>
</svg>
