<svg width="31" height="30" viewBox="0 0 31 30" fill="none" xmlns="http://www.w3.org/2000/svg">
<g clip-path="url(#clip0_201_4763)">
<path d="M28.5311 7.66762V5.81381H29.6897C30.0736 5.81381 30.3849 5.50255 30.3849 5.11864V2.80138C30.3849 2.41747 30.0736 2.1062 29.6897 2.1062H27.3725C26.9885 2.1062 26.6773 2.41747 26.6773 2.80138V3.96001H4.43161V2.80138C4.43161 2.41747 4.12034 2.1062 3.73643 2.1062H1.41918C1.03526 2.1062 0.723999 2.41747 0.723999 2.80138V5.11864C0.723999 5.50255 1.03526 5.81381 1.41918 5.81381H2.5778V24.3519H1.41918C1.03526 24.3519 0.723999 24.6631 0.723999 25.047V27.3643C0.723999 27.7482 1.03526 28.0595 1.41918 28.0595H3.73643C4.12034 28.0595 4.43161 27.7482 4.43161 27.3643V26.2057H26.6773V27.3643C26.6773 27.7482 26.9885 28.0595 27.3725 28.0595H29.6897C30.0736 28.0595 30.3849 27.7482 30.3849 27.3643V25.047C30.3849 24.6631 30.0736 24.3519 29.6897 24.3519H28.5311V7.66762ZM6.28542 16.2415V8.36279C6.28542 7.97888 6.59668 7.66762 6.98059 7.66762H16.7131C17.097 7.66762 17.4082 7.97888 17.4082 8.36279V16.2415C17.4082 16.6254 17.097 16.9366 16.7131 16.9366H6.98059C6.59668 16.9366 6.28542 16.6254 6.28542 16.2415ZM24.8235 21.8029C24.8235 22.1868 24.5122 22.4981 24.1283 22.4981H14.3958C14.0119 22.4981 13.7006 22.1868 13.7006 21.8029V18.7905H17.8717C18.6396 18.7905 19.2621 18.168 19.2621 17.4001V13.229H24.1283C24.5122 13.229 24.8235 13.5403 24.8235 13.9242V21.8029Z" fill="black"/>
</g>
<defs>
<clipPath id="clip0_201_4763">
<rect width="29.6609" height="29.6609" fill="white" transform="translate(0.723999 0.252441)"/>
</clipPath>
</defs>
</svg>
