<svg width="30" height="30" viewBox="0 0 30 30" fill="none" xmlns="http://www.w3.org/2000/svg">
<g clip-path="url(#clip0_201_4757)">
<path d="M21.0188 3.78277C21.0749 3.83897 21.1416 3.88355 21.2149 3.91396C21.2883 3.94438 21.3669 3.96003 21.4463 3.96003C21.5258 3.96003 21.6044 3.94438 21.6777 3.91396C21.7511 3.88355 21.8178 3.83897 21.8739 3.78277L23.1235 2.53377C23.1796 2.47766 23.2242 2.41101 23.2546 2.33765C23.2851 2.26429 23.3007 2.18565 23.3007 2.10624C23.3007 2.02682 23.2851 1.94819 23.2546 1.87483C23.2242 1.80147 23.1796 1.73482 23.1235 1.67871L21.8733 0.429704C21.6369 0.193923 21.2546 0.193923 21.0182 0.429704L19.7686 1.67871C19.7125 1.73482 19.6679 1.80147 19.6375 1.87483C19.607 1.94819 19.5914 2.02682 19.5914 2.10624C19.5914 2.18565 19.607 2.26429 19.6375 2.33765C19.6679 2.41101 19.7125 2.47766 19.7686 2.53377L21.0188 3.78277ZM24.0028 11.3753C22.4567 11.3753 21.0037 11.9772 19.9106 13.0698L18.5057 14.4746C18.113 14.8668 17.5916 15.0829 17.0354 15.0829H14.3219C14.9325 13.8026 15.1428 12.2958 14.7697 10.7247C14.1846 8.25972 12.084 6.31554 9.58372 5.90538C7.4895 5.56185 5.47638 6.19736 4.02172 7.57265C3.59535 7.97585 3.61794 8.66466 4.08661 9.01688L5.60151 10.1541C5.93288 10.4032 6.39286 10.4043 6.7138 10.1419C7.20332 9.74218 7.81565 9.52146 8.46738 9.52146C10.0008 9.52146 11.2487 10.7687 11.2487 12.3022C11.2487 13.8356 10.0008 15.0829 8.46738 15.0829H6.61937C5.92651 15.0829 5.4758 15.8117 5.78574 16.4315L6.71785 18.2952C6.86442 18.5883 7.15813 18.7644 7.48081 18.7905H9.39428C11.4393 18.7905 13.1025 20.4531 13.1025 22.4981C13.1025 24.5431 11.4393 26.2057 9.39428 26.2057C3.83171 26.2057 2.30637 23.0763 0.985537 20.8743C0.723108 20.4369 0.12989 20.6669 0.128732 21.1767C0.123518 24.3519 2.51145 29.9133 9.39428 29.9133C13.4837 29.9133 16.8107 26.5869 16.8107 22.4981C16.8107 21.1413 16.4179 19.8854 15.7789 18.7905H17.0354C18.5816 18.7905 20.0345 18.1886 21.1277 17.096L22.5326 15.6912C22.9253 15.299 23.4467 15.0829 24.0028 15.0829C25.1487 15.0829 26.0814 16.015 26.0814 17.1615V22.9616C26.0814 23.728 24.9941 24.3519 24.227 24.3519C21.9445 24.3519 20.3648 22.9476 19.4871 21.8672C19.2108 21.5272 18.6645 21.7201 18.6645 22.158V24.3519C18.6645 24.3519 18.6645 28.0595 24.227 28.0595C27.039 28.0595 29.7896 25.773 29.7896 22.9616V17.1615C29.7896 13.9706 27.1943 11.3753 24.0028 11.3753ZM26.4464 4.14948C21.4904 7.92198 16.6531 4.30879 16.4486 4.15238C16.0998 3.88473 15.6121 3.89864 15.2819 4.18424C14.9493 4.46926 14.8607 4.9472 15.0698 5.33128C15.1631 5.50218 17.4085 9.52204 21.9521 9.52204C26.582 9.52204 27.6745 7.70531 27.8466 7.34034C27.9057 7.21753 27.9352 7.08139 27.9352 6.94467V4.88695C27.9352 4.12109 27.0582 3.68835 26.4464 4.14948Z" fill="black"/>
</g>
<defs>
<clipPath id="clip0_201_4757">
<rect width="29.6609" height="29.6609" fill="white" transform="translate(0.12854 0.252441)"/>
</clipPath>
</defs>
</svg>
