<svg width="38" height="30" viewBox="0 0 38 30" fill="none" xmlns="http://www.w3.org/2000/svg">
<g clip-path="url(#clip0_201_4755)">
<path d="M35.4448 2.10625H33.591L32.8234 1.33866C32.4792 0.994209 32.0704 0.720986 31.6205 0.534606C31.1706 0.348226 30.6884 0.252344 30.2014 0.252441H29.0144C28.3691 0.252441 27.7353 0.421022 27.1751 0.740803L18.2971 5.81386H15.0529C8.9099 5.81386 3.93011 10.7936 3.93011 16.9367V17.03C3.93011 18.9272 3.00321 20.6298 1.63835 21.9478C0.584572 22.9662 0.010472 24.4782 0.294915 26.1072C0.686532 28.355 2.78017 29.9133 5.06151 29.9133H11.3453C12.369 29.9133 13.1991 29.0832 13.1991 28.0595C13.1991 27.0359 12.369 26.2057 11.3453 26.2057H4.85702C4.34548 26.2057 3.93011 25.7903 3.93011 25.2788C3.93011 24.7673 4.34548 24.3519 4.85702 24.3519H17.8337C18.3458 24.3519 18.7606 23.9371 18.7606 23.425V22.4981C18.7606 21.4745 17.9304 20.6443 16.9068 20.6443H13.1991L21.8593 15.9808L26.1758 24.3519H30.8103C31.3224 24.3519 31.7372 23.9371 31.7372 23.425V22.4981C31.7372 21.4745 30.907 20.6443 29.8834 20.6443H28.2486L25.056 14.2597L30.4129 11.3753H31.7372C34.8087 11.3753 37.2986 8.88538 37.2986 5.81386V3.96005C37.2986 2.9364 36.4685 2.10625 35.4448 2.10625ZM29.8834 3.03315C30.3955 3.03315 30.8103 3.44794 30.8103 3.96005C30.8103 4.47217 30.3955 4.88696 29.8834 4.88696C29.3713 4.88696 28.9565 4.47217 28.9565 3.96005C28.9565 3.44794 29.3713 3.03315 29.8834 3.03315ZM31.7372 8.59457H29.7119L23.8122 11.7715L23.0145 10.1755L29.8834 6.74076H34.347C33.9635 7.81713 32.9439 8.59457 31.7372 8.59457Z" fill="black"/>
</g>
<defs>
<clipPath id="clip0_201_4755">
<rect width="37.0761" height="29.6609" fill="white" transform="translate(0.222412 0.252441)"/>
</clipPath>
</defs>
</svg>
