<svg width="27" height="30" viewBox="0 0 27 30" fill="none" xmlns="http://www.w3.org/2000/svg">
<g clip-path="url(#clip0_201_4753)">
<path d="M6.27208 21.2983C6.85139 21.8776 7.85419 21.4681 7.85419 20.6431V9.52145C7.85419 8.69188 6.85024 8.28694 6.27208 8.86625L0.710663 14.4277C0.536967 14.6015 0.439394 14.8371 0.439394 15.0829C0.439394 15.3286 0.536967 15.5643 0.710663 15.7381L6.27208 21.2983ZM25.4653 24.3519H1.36587C1.12004 24.3519 0.884276 24.4496 0.710448 24.6234C0.53662 24.7972 0.438965 25.033 0.438965 25.2788L0.438965 27.1326C0.438965 27.3784 0.53662 27.6142 0.710448 27.788C0.884276 27.9619 1.12004 28.0595 1.36587 28.0595H25.4653C25.7112 28.0595 25.9469 27.9619 26.1208 27.788C26.2946 27.6142 26.3922 27.3784 26.3922 27.1326V25.2788C26.3922 25.033 26.2946 24.7972 26.1208 24.6234C25.9469 24.4496 25.7112 24.3519 25.4653 24.3519ZM25.649 16.9367H12.3051C12.2074 16.9366 12.1107 16.9558 12.0205 16.9931C11.9303 17.0304 11.8484 17.0852 11.7793 17.1542C11.7103 17.2232 11.6555 17.3052 11.6182 17.3954C11.5809 17.4856 11.5617 17.5823 11.5618 17.6799V19.901C11.5617 19.9987 11.5809 20.0953 11.6182 20.1856C11.6555 20.2758 11.7103 20.3577 11.7793 20.4268C11.8484 20.4958 11.9303 20.5505 12.0205 20.5879C12.1107 20.6252 12.2074 20.6444 12.3051 20.6443H25.649C25.7466 20.6444 25.8433 20.6252 25.9335 20.5879C26.0237 20.5505 26.1057 20.4958 26.1747 20.4268C26.2437 20.3577 26.2985 20.2758 26.3358 20.1856C26.3731 20.0953 26.3923 19.9987 26.3922 19.901V17.6799C26.3923 17.5823 26.3731 17.4856 26.3358 17.3954C26.2985 17.3052 26.2437 17.2232 26.1747 17.1542C26.1057 17.0852 26.0237 17.0304 25.9335 16.9931C25.8433 16.9558 25.7466 16.9366 25.649 16.9367ZM25.649 9.52145H12.3051C12.2074 9.52138 12.1107 9.54055 12.0205 9.57788C11.9303 9.6152 11.8484 9.66995 11.7793 9.73898C11.7103 9.80801 11.6555 9.88998 11.6182 9.98019C11.5809 10.0704 11.5617 10.1671 11.5618 10.2647V12.4858C11.5617 12.5834 11.5809 12.6801 11.6182 12.7703C11.6555 12.8605 11.7103 12.9425 11.7793 13.0115C11.8484 13.0806 11.9303 13.1353 12.0205 13.1726C12.1107 13.21 12.2074 13.2291 12.3051 13.2291H25.649C25.7466 13.2291 25.8433 13.21 25.9335 13.1726C26.0237 13.1353 26.1057 13.0806 26.1747 13.0115C26.2437 12.9425 26.2985 12.8605 26.3358 12.7703C26.3731 12.6801 26.3923 12.5834 26.3922 12.4858V10.2647C26.3923 10.1671 26.3731 10.0704 26.3358 9.98019C26.2985 9.88998 26.2437 9.80801 26.1747 9.73898C26.1057 9.66995 26.0237 9.6152 25.9335 9.57788C25.8433 9.54055 25.7466 9.52138 25.649 9.52145ZM25.4653 2.10623H1.36587C1.12004 2.10623 0.884276 2.20389 0.710448 2.37772C0.53662 2.55154 0.438965 2.7873 0.438965 3.03313L0.438965 4.88694C0.438965 5.13277 0.53662 5.36853 0.710448 5.54236C0.884276 5.71619 1.12004 5.81384 1.36587 5.81384H25.4653C25.7112 5.81384 25.9469 5.71619 26.1208 5.54236C26.2946 5.36853 26.3922 5.13277 26.3922 4.88694V3.03313C26.3922 2.7873 26.2946 2.55154 26.1208 2.37772C25.9469 2.20389 25.7112 2.10623 25.4653 2.10623Z" fill="black"/>
</g>
<defs>
<clipPath id="clip0_201_4753">
<rect width="25.9533" height="29.6609" fill="white" transform="translate(0.439087 0.252441)"/>
</clipPath>
</defs>
</svg>
