<svg width="31" height="30" viewBox="0 0 31 30" fill="none" xmlns="http://www.w3.org/2000/svg">
<g clip-path="url(#clip0_201_4751)">
<path d="M26.9015 3.96002H4.65585C3.67253 3.96002 2.72949 4.35064 2.03418 5.04596C1.33886 5.74127 0.948242 6.68431 0.948242 7.66763L0.948242 22.4981C0.948242 23.4814 1.33886 24.4244 2.03418 25.1198C2.72949 25.8151 3.67253 26.2057 4.65585 26.2057H26.9015C27.8848 26.2057 28.8279 25.8151 29.5232 25.1198C30.2185 24.4244 30.6091 23.4814 30.6091 22.4981V7.66763C30.6091 6.68431 30.2185 5.74127 29.5232 5.04596C28.8279 4.35064 27.8848 3.96002 26.9015 3.96002ZM10.2173 21.5712H5.58276C5.33693 21.5712 5.10116 21.4735 4.92734 21.2997C4.75351 21.1259 4.65585 20.8901 4.65585 20.6443V19.7174C4.65585 19.4715 4.75351 19.2358 4.92734 19.0619C5.10116 18.8881 5.33693 18.7905 5.58276 18.7905H10.2173V21.5712ZM17.6325 20.6443C17.6325 20.8901 17.5348 21.1259 17.361 21.2997C17.1872 21.4735 16.9514 21.5712 16.7056 21.5712H12.0711V18.7905H16.7056C16.9514 18.7905 17.1872 18.8881 17.361 19.0619C17.5348 19.2358 17.6325 19.4715 17.6325 19.7174V20.6443ZM26.9015 13.229C26.9015 13.7207 26.7062 14.1922 26.3586 14.5399C26.0109 14.8875 25.5394 15.0829 25.0477 15.0829H6.50966C6.018 15.0829 5.54648 14.8875 5.19882 14.5399C4.85116 14.1922 4.65585 13.7207 4.65585 13.229V9.52144C4.65585 9.02978 4.85116 8.55826 5.19882 8.2106C5.54648 7.86294 6.018 7.66763 6.50966 7.66763H25.0477C25.5394 7.66763 26.0109 7.86294 26.3586 8.2106C26.7062 8.55826 26.9015 9.02978 26.9015 9.52144V13.229Z" fill="black"/>
</g>
<defs>
<clipPath id="clip0_201_4751">
<rect width="29.6609" height="29.6609" fill="white" transform="translate(0.948242 0.252441)"/>
</clipPath>
</defs>
</svg>
