<svg width="31" height="30" viewBox="0 0 31 30" fill="none" xmlns="http://www.w3.org/2000/svg">
<g clip-path="url(#clip0_201_4749)">
<path d="M10.1336 18.1729C7.80935 18.3224 5.70007 19.2076 4.50321 22.3614C4.36707 22.7211 4.03975 22.9395 3.65799 22.9395C3.01437 22.9395 1.02442 21.3366 0.457275 20.9496C0.457855 25.7203 2.65519 29.9133 7.87308 29.9133C12.2678 29.9133 15.2883 27.3777 15.2883 22.9506C15.2883 22.7704 15.2506 22.5983 15.2321 22.4216L10.1336 18.1729ZM26.9841 0.252441C26.1058 0.252441 25.2826 0.641161 24.6547 1.20541C12.8129 11.7837 11.5807 12.0322 11.5807 15.146C11.5807 15.9397 11.769 16.6963 12.0864 17.388L15.7836 20.4688C16.2013 20.573 16.6317 20.6443 17.0807 20.6443C20.6788 20.6443 22.7644 18.0102 29.3135 5.78721C29.741 4.95589 30.1187 4.05796 30.1187 3.12294C30.1187 1.44815 28.6125 0.252441 26.9841 0.252441Z" fill="black"/>
</g>
<defs>
<clipPath id="clip0_201_4749">
<rect width="29.6609" height="29.6609" fill="white" transform="translate(0.457275 0.252441)"/>
</clipPath>
</defs>
</svg>
