<svg width="31" height="30" viewBox="0 0 31 30" fill="none" xmlns="http://www.w3.org/2000/svg">
<g clip-path="url(#clip0_201_4745)">
<path d="M12.3111 0.542054C6.55274 1.66592 1.91243 6.29464 0.776977 12.0356C-1.36649 22.8688 8.40655 30.9445 15.7696 29.8032C18.1564 29.4325 19.3266 26.6402 18.2317 24.4909C16.8935 21.8608 18.8052 18.7905 21.7597 18.7905H26.3769C28.4508 18.7905 30.1308 17.0757 30.1366 15.0075C30.1077 5.87754 21.8003 -1.30596 12.3111 0.542054ZM6.03715 18.7905C5.01176 18.7905 4.18334 17.962 4.18334 16.9366C4.18334 15.9113 5.01176 15.0828 6.03715 15.0828C7.06254 15.0828 7.89096 15.9113 7.89096 16.9366C7.89096 17.962 7.06254 18.7905 6.03715 18.7905ZM7.89096 11.3752C6.86557 11.3752 6.03715 10.5468 6.03715 9.52142C6.03715 8.49604 6.86557 7.66762 7.89096 7.66762C8.91634 7.66762 9.74476 8.49604 9.74476 9.52142C9.74476 10.5468 8.91634 11.3752 7.89096 11.3752ZM15.3062 7.66762C14.2808 7.66762 13.4524 6.8392 13.4524 5.81381C13.4524 4.78843 14.2808 3.96001 15.3062 3.96001C16.3316 3.96001 17.16 4.78843 17.16 5.81381C17.16 6.8392 16.3316 7.66762 15.3062 7.66762ZM22.7214 11.3752C21.696 11.3752 20.8676 10.5468 20.8676 9.52142C20.8676 8.49604 21.696 7.66762 22.7214 7.66762C23.7468 7.66762 24.5752 8.49604 24.5752 9.52142C24.5752 10.5468 23.7468 11.3752 22.7214 11.3752Z" fill="black"/>
</g>
<defs>
<clipPath id="clip0_201_4745">
<rect width="29.6609" height="29.6609" fill="white" transform="translate(0.475464 0.252441)"/>
</clipPath>
</defs>
</svg>
