<svg width="38" height="30" viewBox="0 0 38 30" fill="none" xmlns="http://www.w3.org/2000/svg">
<g clip-path="url(#clip0_201_4743)">
<path d="M8.91146 15.0829H29.3033C29.8131 15.0829 30.2302 14.6658 30.2302 14.156V1.17934C30.2302 0.669548 29.8131 0.252441 29.3033 0.252441H22.815V7.66766L19.1074 5.81386L15.3998 7.66766V0.252441H8.91146C8.40166 0.252441 7.98456 0.669548 7.98456 1.17934V14.156C7.98456 14.6658 8.40166 15.0829 8.91146 15.0829ZM36.7185 22.4981C37.2283 22.4981 37.6454 22.081 37.6454 21.5712V19.7174C37.6454 19.2076 37.2283 18.7905 36.7185 18.7905H1.49624C0.986442 18.7905 0.569336 19.2076 0.569336 19.7174V21.5712C0.569336 22.081 0.986442 22.4981 1.49624 22.4981H4.27695V26.2057H1.49624C0.986442 26.2057 0.569336 26.6228 0.569336 27.1326V28.9864C0.569336 29.4962 0.986442 29.9133 1.49624 29.9133H36.7185C37.2283 29.9133 37.6454 29.4962 37.6454 28.9864V27.1326C37.6454 26.6228 37.2283 26.2057 36.7185 26.2057H33.9378V22.4981H36.7185ZM17.2536 26.2057H7.98456V22.4981H17.2536V26.2057ZM30.2302 26.2057H20.9612V22.4981H30.2302V26.2057Z" fill="black"/>
</g>
<defs>
<clipPath id="clip0_201_4743">
<rect width="37.0761" height="29.6609" fill="white" transform="translate(0.569336 0.252441)"/>
</clipPath>
</defs>
</svg>
