<svg width="27" height="30" viewBox="0 0 27 30" fill="none" xmlns="http://www.w3.org/2000/svg">
<g clip-path="url(#clip0_201_4739)">
<path d="M2.80046 27.2566C-0.584478 23.764 -0.52139 18.1318 2.88075 14.6518L15.0324 2.22202C17.5997 -0.404131 21.7728 -0.404362 24.3403 2.22202C26.883 4.82279 26.886 9.01905 24.3403 11.6229L13.7476 22.4475C12.0181 24.2166 9.19232 24.1919 7.49209 22.3897C5.85408 20.6535 5.90662 17.9016 7.57621 16.1937L15.9034 7.68738C16.2616 7.3216 16.8484 7.31535 17.2142 7.67342L18.5386 8.96987C18.9044 9.328 18.9106 9.91485 18.5525 10.2806L10.2262 18.7862C9.94044 19.0784 9.92283 19.5641 10.1886 19.8459C10.4419 20.1143 10.8401 20.1188 11.0975 19.8554L21.6902 9.03087C22.8264 7.86865 22.8264 5.97644 21.6895 4.81358C20.5779 3.67656 18.7954 3.67598 17.6833 4.81358L5.53157 17.2433C3.5177 19.3034 3.48665 22.6379 5.46258 24.6767C7.43283 26.7097 10.6176 26.7122 12.5915 24.6933L22.5592 14.4974C22.917 14.1313 23.5039 14.1247 23.8699 14.4826L25.1952 15.7781C25.5613 16.136 25.568 16.7228 25.2101 17.0889L15.2424 27.2847C11.7911 30.8149 6.20839 30.7731 2.80046 27.2566Z" fill="black"/>
</g>
<defs>
<clipPath id="clip0_201_4739">
<rect width="25.9533" height="29.6609" fill="white" transform="translate(0.295166 0.252441)"/>
</clipPath>
</defs>
</svg>
