<svg width="26" height="30" viewBox="0 0 26 30" fill="none" xmlns="http://www.w3.org/2000/svg">
<g clip-path="url(#clip0_201_4735)">
<path d="M25.9737 3.03313V4.88694C25.9737 5.13277 25.8761 5.36853 25.7023 5.54236C25.5284 5.71619 25.2927 5.81384 25.0468 5.81384H22.2661V27.1326C22.2661 27.3784 22.1685 27.6142 21.9946 27.788C21.8208 27.9619 21.5851 28.0595 21.3392 28.0595H19.4854C19.2396 28.0595 19.0038 27.9619 18.83 27.788C18.6562 27.6142 18.5585 27.3784 18.5585 27.1326V5.81384H16.7047V27.1326C16.7047 27.3784 16.6071 27.6142 16.4332 27.788C16.2594 27.9619 16.0236 28.0595 15.7778 28.0595H13.924C13.6782 28.0595 13.4424 27.9619 13.2686 27.788C13.0948 27.6142 12.9971 27.3784 12.9971 27.1326V20.6443H11.1433C8.685 20.6443 6.32738 19.6677 4.5891 17.9295C2.85082 16.1912 1.87427 13.8336 1.87427 11.3753C1.87427 8.91696 2.85082 6.55935 4.5891 4.82107C6.32738 3.08279 8.685 2.10623 11.1433 2.10623H25.0468C25.2927 2.10623 25.5284 2.20389 25.7023 2.37772C25.8761 2.55154 25.9737 2.7873 25.9737 3.03313Z" fill="black"/>
</g>
<defs>
<clipPath id="clip0_201_4735">
<rect width="25.9533" height="29.6609" fill="white" transform="translate(0.0209961 0.252441)"/>
</clipPath>
</defs>
</svg>
