<svg width="31" height="30" viewBox="0 0 31 30" fill="none" xmlns="http://www.w3.org/2000/svg">
<g clip-path="url(#clip0_201_4737)">
<path d="M30.4594 10.3904C29.9323 6.01083 25.9176 2.72032 21.2889 1.19672C23.3976 3.47922 24.9038 7.02462 24.9038 11.3753H26.5317L19.7769 18.8774C19.6321 18.8426 19.4988 18.7905 19.3424 18.7905H16.5617V11.3753H23.05C23.05 4.70157 19.0585 0.252441 15.6348 0.252441C12.2111 0.252441 8.21958 4.70157 8.21958 11.3753H14.7079V18.7905H11.9272C11.7708 18.7905 11.6375 18.8426 11.4927 18.8774L4.7379 11.3753H6.36577C6.36577 7.02462 7.87199 3.47922 9.98069 1.19672C5.35197 2.72611 1.33732 6.01662 0.810147 10.3904C0.746422 10.9176 1.20408 11.3753 1.73705 11.3753H2.24105L10.1603 20.1751C10.1197 20.3257 10.0676 20.4763 10.0676 20.6443V28.0595C10.0676 29.0849 10.896 29.9133 11.9214 29.9133H19.3366C20.362 29.9133 21.1904 29.0849 21.1904 28.0595V20.6443C21.1904 20.4763 21.1383 20.3315 21.0977 20.1751L29.0228 11.3753H29.5268C30.0655 11.3753 30.5232 10.9234 30.4594 10.3904Z" fill="black"/>
</g>
<defs>
<clipPath id="clip0_201_4737">
<rect width="29.6609" height="29.6609" fill="white" transform="translate(0.804199 0.252441)"/>
</clipPath>
</defs>
</svg>
