<svg width="27" height="30" viewBox="0 0 27 30" fill="none" xmlns="http://www.w3.org/2000/svg">
<g clip-path="url(#clip0_201_4731)">
<path d="M7.96366 10.4484H10.2282C10.3145 8.88249 10.6071 7.47359 11.0514 6.36942C9.44613 7.13643 8.26954 8.63975 7.96366 10.4484ZM7.96366 12.3022C8.27012 14.1108 9.44613 15.6141 11.0514 16.3811C10.6065 15.277 10.3145 13.8681 10.2282 12.3022H7.96366ZM13.4312 16.8608C13.8767 16.4292 14.6345 14.8668 14.7886 12.3022H12.0733C12.228 14.8662 12.9857 16.4292 13.4312 16.8608ZM12.0739 10.4484H14.7891C14.635 7.88433 13.8773 6.32134 13.4318 5.88975C12.9857 6.32134 12.228 7.88433 12.0739 10.4484ZM15.8111 16.3811C17.4163 15.6141 18.5929 14.1108 18.8988 12.3022H16.6343C16.5479 13.8681 16.256 15.277 15.8111 16.3811ZM24.5541 0.252441H4.1622C2.11433 0.252441 0.45459 1.91218 0.45459 3.96005V26.2057C0.45459 28.2536 2.11433 29.9133 4.1622 29.9133H24.5541C25.5777 29.9133 26.4079 29.0832 26.4079 28.0595V2.10625C26.4079 1.0826 25.5777 0.252441 24.5541 0.252441ZM19.9195 24.3519H6.94291C6.43311 24.3519 6.01601 23.9348 6.01601 23.425C6.01601 22.9152 6.43311 22.4981 6.94291 22.4981H19.9195C20.4293 22.4981 20.8465 22.9152 20.8465 23.425C20.8465 23.9348 20.4293 24.3519 19.9195 24.3519ZM13.4312 18.7905C9.33606 18.7905 6.01601 15.4704 6.01601 11.3753C6.01601 7.2801 9.33606 3.96005 13.4312 3.96005C17.5264 3.96005 20.8465 7.2801 20.8465 11.3753C20.8465 15.4704 17.5264 18.7905 13.4312 18.7905ZM15.8111 6.36942C16.256 7.47359 16.5479 8.88249 16.6343 10.4484H18.8988C18.5929 8.63975 17.4163 7.13643 15.8111 6.36942Z" fill="black"/>
</g>
<defs>
<clipPath id="clip0_201_4731">
<rect width="25.9533" height="29.6609" fill="white" transform="translate(0.454468 0.252441)"/>
</clipPath>
</defs>
</svg>
