<svg width="30" height="30" viewBox="0 0 30 30" fill="none" xmlns="http://www.w3.org/2000/svg">
<g clip-path="url(#clip0_201_4725)">
<path d="M15.1041 0.715881C7.16745 0.715881 0.737061 7.14627 0.737061 15.0829C0.737061 23.0195 7.16745 29.4499 15.1041 29.4499C23.0407 29.4499 29.471 23.0195 29.471 15.0829C29.471 7.14627 23.0407 0.715881 15.1041 0.715881ZM14.1772 19.7174C14.1772 20.2272 13.76 20.6443 13.2502 20.6443H10.4695C9.95974 20.6443 9.54264 20.2272 9.54264 19.7174V10.4484C9.54264 9.93856 9.95974 9.52146 10.4695 9.52146H13.2502C13.76 9.52146 14.1772 9.93856 14.1772 10.4484V19.7174ZM20.6655 19.7174C20.6655 20.2272 20.2484 20.6443 19.7386 20.6443H16.9579C16.4481 20.6443 16.031 20.2272 16.031 19.7174V10.4484C16.031 9.93856 16.4481 9.52146 16.9579 9.52146H19.7386C20.2484 9.52146 20.6655 9.93856 20.6655 10.4484V19.7174Z" fill="black"/>
</g>
<defs>
<clipPath id="clip0_201_4725">
<rect width="29.6609" height="29.6609" fill="white" transform="translate(0.27417 0.252441)"/>
</clipPath>
</defs>
</svg>
