<svg width="27" height="30" viewBox="0 0 27 30" fill="none" xmlns="http://www.w3.org/2000/svg">
<g clip-path="url(#clip0_201_4723)">
<path d="M8.83297 28.0016H3.27155C1.73637 28.0016 0.490845 26.756 0.490845 25.2208V4.82899C0.490845 3.2938 1.73637 2.04828 3.27155 2.04828H8.83297C10.3682 2.04828 11.6137 3.2938 11.6137 4.82899V25.2208C11.6137 26.756 10.3682 28.0016 8.83297 28.0016ZM26.4441 25.2208V4.82899C26.4441 3.2938 25.1986 2.04828 23.6634 2.04828H18.102C16.5668 2.04828 15.3213 3.2938 15.3213 4.82899V25.2208C15.3213 26.756 16.5668 28.0016 18.102 28.0016H23.6634C25.1986 28.0016 26.4441 26.756 26.4441 25.2208Z" fill="black"/>
</g>
<defs>
<clipPath id="clip0_201_4723">
<rect width="25.9533" height="29.6609" fill="white" transform="translate(0.490967 0.252441)"/>
</clipPath>
</defs>
</svg>
