<svg width="30" height="30" viewBox="0 0 30 30" fill="none" xmlns="http://www.w3.org/2000/svg">
<g clip-path="url(#clip0_201_4721)">
<path d="M14.8299 13.229C10.2296 13.229 3.70708 20.3407 3.70708 24.8298C3.70708 26.8516 5.26022 28.0595 7.86308 28.0595C10.6925 28.0595 12.5607 26.6066 14.8299 26.6066C17.1188 26.6066 18.9923 28.0595 21.7967 28.0595C24.3996 28.0595 25.9527 26.8516 25.9527 24.8298C25.9527 20.3407 19.4302 13.229 14.8299 13.229ZM6.29777 12.4985C5.69529 10.4912 3.83916 9.19123 2.1522 9.59443C0.465237 9.99763 -0.413583 11.9517 0.188904 13.959C0.79139 15.9663 2.64751 17.2663 4.33448 16.8631C6.02144 16.4599 6.90026 14.5059 6.29777 12.4985ZM11.2057 11.2947C12.9981 10.8232 13.8949 8.40162 13.209 5.88624C12.5231 3.37086 10.514 1.7146 8.72162 2.18616C6.92922 2.65772 6.03245 5.07925 6.71835 7.59464C7.40426 10.11 9.4139 11.7669 11.2057 11.2947ZM27.507 9.59501C25.8201 9.19181 23.9645 10.4918 23.3615 12.4991C22.759 14.5064 23.6378 16.4605 25.3248 16.8637C27.0117 17.2669 28.8673 15.9669 29.4703 13.9596C30.0728 11.9522 29.194 9.99821 27.507 9.59501ZM18.4541 11.2947C20.2465 11.7663 22.2556 10.11 22.9415 7.59464C23.6274 5.07925 22.7306 2.6583 20.9382 2.18616C19.1458 1.71402 17.1367 3.37086 16.4508 5.88624C15.7649 8.40162 16.6617 10.8232 18.4541 11.2947Z" fill="black"/>
</g>
<defs>
<clipPath id="clip0_201_4721">
<rect width="29.6609" height="29.6609" fill="white" transform="translate(0 0.252441)"/>
</clipPath>
</defs>
</svg>
