<svg width="30" height="31" viewBox="0 0 30 31" fill="none" xmlns="http://www.w3.org/2000/svg">
<g clip-path="url(#clip0_201_4719)">
<path d="M14.8846 1.05499C6.94977 1.05499 0.517639 7.48712 0.517639 15.422C0.517639 23.3569 6.94977 29.789 14.8846 29.789C22.8195 29.789 29.2516 23.3569 29.2516 15.422C29.2516 7.48712 22.8195 1.05499 14.8846 1.05499ZM25.544 15.422C25.544 17.2717 25.069 19.012 24.2365 20.5298L16.7384 14.5316V4.93466C21.7339 5.8158 25.544 10.1775 25.544 15.422ZM13.0308 25.9093C11.0693 25.5635 9.29483 24.6812 7.85813 23.4171L13.0308 19.2785V25.9093ZM16.7384 19.2785L21.9111 23.4165C20.4744 24.6806 18.7 25.5629 16.7384 25.9087V19.2785ZM13.0308 4.93466V14.5316L5.53276 20.5298C4.70029 19.012 4.22525 17.2717 4.22525 15.422C4.22525 10.1775 8.0354 5.8158 13.0308 4.93466Z" fill="black"/>
</g>
<defs>
<clipPath id="clip0_201_4719">
<rect width="28.734" height="29.6609" fill="white" transform="translate(0.5177 0.591553)"/>
</clipPath>
</defs>
</svg>
