<svg width="27" height="31" viewBox="0 0 27 31" fill="none" xmlns="http://www.w3.org/2000/svg">
<g clip-path="url(#clip0_201_4711)">
<path d="M23.4344 28.3986H3.04255C1.50737 28.3986 0.261841 27.1531 0.261841 25.6179V5.22602C0.261841 3.69084 1.50737 2.44531 3.04255 2.44531H23.4344C24.9696 2.44531 26.2151 3.69084 26.2151 5.22602V25.6179C26.2151 27.1531 24.9696 28.3986 23.4344 28.3986ZM14.0553 10.8975L6.19402 18.7588L5.82905 22.0667C5.78271 22.507 6.15347 22.8835 6.59954 22.8372L9.90742 22.4722L17.7687 14.6109C17.902 14.4777 17.902 14.2575 17.7687 14.1185L14.5535 10.9033C14.4087 10.7643 14.1886 10.7643 14.0553 10.8975ZM20.2482 10.156L18.5044 8.41225C17.9599 7.86769 17.0793 7.86769 16.5406 8.41225L15.2024 9.75047C15.0691 9.88371 15.0691 10.1038 15.2024 10.2429L18.4175 13.4581C18.5508 13.5913 18.7709 13.5913 18.91 13.4581L20.2482 12.1199C20.7869 11.5811 20.7869 10.7005 20.2482 10.156Z" fill="black"/>
</g>
<defs>
<clipPath id="clip0_201_4711">
<rect width="25.9533" height="29.6609" fill="white" transform="translate(0.261841 0.591553)"/>
</clipPath>
</defs>
</svg>
