<svg width="30" height="31" viewBox="0 0 30 31" fill="none" xmlns="http://www.w3.org/2000/svg">
<g clip-path="url(#clip0_201_4717)">
<path d="M28.8729 4.88817L25.3906 1.40591C24.3044 0.319694 22.5427 0.319694 21.4565 1.40591L18.1805 4.68193L25.5969 12.0983L28.8729 8.82229C29.9591 7.73608 29.9591 5.97496 28.8729 4.88817ZM14.5754 3.69883C13.6705 2.79395 12.2037 2.79395 11.2988 3.69883L4.41771 10.5805C4.05564 10.9426 4.05564 11.5294 4.41771 11.8909L5.7287 13.2019C6.09077 13.564 6.67761 13.564 7.03969 13.2019L12.9383 7.30333L14.2493 8.61374L5.46916 17.3932C2.42796 20.4345 0.512033 24.42 0.0363564 28.6945L0.0346185 28.7078C-0.063865 29.593 0.68403 30.3415 1.56922 30.2436C5.84927 29.771 9.84062 27.8544 12.8855 24.8096L24.2859 13.4093L19.4909 8.61432L14.5754 3.69883Z" fill="black"/>
</g>
<defs>
<clipPath id="clip0_201_4717">
<rect width="29.6609" height="29.6609" fill="white" transform="translate(0.0268555 0.591553)"/>
</clipPath>
</defs>
</svg>
