<svg width="30" height="31" viewBox="0 0 30 31" fill="none" xmlns="http://www.w3.org/2000/svg">
<g clip-path="url(#clip0_201_4707)">
<path d="M29.1248 8.8236L26.4541 11.4942C26.1819 11.7665 25.7416 11.7665 25.4693 11.4942L19.0389 5.06385C18.7666 4.79157 18.7666 4.35129 19.0389 4.07901L21.7096 1.40837C22.7929 0.325057 24.554 0.325057 25.6431 1.40837L29.1248 4.89005C30.2139 5.97337 30.2139 7.73449 29.1248 8.8236ZM16.7448 6.3731L1.53205 21.5859L0.303904 28.6246C0.135903 29.5746 0.964323 30.3973 1.9144 30.2351L8.95307 29.0011L24.1659 13.7883C24.4381 13.516 24.4381 13.0758 24.1659 12.8035L17.7355 6.3731C17.4574 6.10082 17.0171 6.10082 16.7448 6.3731ZM7.47002 20.2824C7.1514 19.9638 7.1514 19.454 7.47002 19.1354L16.3915 10.214C16.7101 9.89533 17.2199 9.89533 17.5385 10.214C17.8571 10.5326 17.8571 11.0424 17.5385 11.361L8.61706 20.2824C8.29844 20.6011 7.78864 20.6011 7.47002 20.2824ZM5.3787 25.1545H8.15941V27.2574L4.42283 27.912L2.62116 26.1103L3.27579 22.3738H5.3787V25.1545Z" fill="black"/>
</g>
<defs>
<clipPath id="clip0_201_4707">
<rect width="29.6609" height="29.6609" fill="white" transform="translate(0.280151 0.591553)"/>
</clipPath>
</defs>
</svg>
