<svg width="31" height="31" viewBox="0 0 31 31" fill="none" xmlns="http://www.w3.org/2000/svg">
<g clip-path="url(#clip0_201_4705)">
<path d="M7.13053 14.7291L14.9269 6.93385L12.371 4.37792L8.7978 7.95113C8.75519 7.99382 8.70457 8.02769 8.64886 8.05081C8.59314 8.07392 8.53341 8.08581 8.47309 8.08581C8.41277 8.08581 8.35304 8.07392 8.29733 8.05081C8.24161 8.02769 8.191 7.99382 8.14838 7.95113L7.49897 7.30172C7.31939 7.12213 7.31939 6.83132 7.49897 6.65231L11.0722 3.0791L9.12337 1.1297C8.4056 0.411934 7.24234 0.411934 6.52457 1.1297L1.32754 6.32673C0.610347 7.0445 0.609768 8.20777 1.32754 8.92554L7.13053 14.7291ZM29.6352 7.96272C30.7219 6.87592 30.7214 5.11423 29.6352 4.02743L27.0138 1.40604C25.927 0.319244 24.1647 0.319244 23.0773 1.40604L20.4113 4.07146L26.9691 10.6293L29.6352 7.96272ZM19.1003 5.38303L1.89469 22.5863L0.807894 28.8105C0.661327 29.6499 1.39242 30.381 2.23243 30.2333L8.45716 29.1419L25.6582 11.9403L19.1003 5.38303ZM29.9121 21.9184L27.9633 19.9696L24.39 23.5428C24.2105 23.7224 23.9196 23.7224 23.7406 23.5428L23.0912 22.8934C22.9122 22.7138 22.9122 22.423 23.0912 22.244L26.6644 18.6708L24.1073 16.1137L16.3109 23.9089L22.1162 29.7137C22.834 30.4314 23.9973 30.4314 24.715 29.7137L29.9121 24.5172C30.6298 23.7994 30.6298 22.6362 29.9121 21.9184Z" fill="black"/>
</g>
<defs>
<clipPath id="clip0_201_4705">
<rect width="29.6609" height="29.6609" fill="white" transform="translate(0.789307 0.591553)"/>
</clipPath>
</defs>
</svg>
