<svg width="38" height="31" viewBox="0 0 38 31" fill="none" xmlns="http://www.w3.org/2000/svg">
<g clip-path="url(#clip0_201_4701)">
<path d="M8.10005 6.15297C9.63523 6.15297 10.8808 4.90744 10.8808 3.37226C10.8808 1.83708 9.63523 0.591553 8.10005 0.591553C6.56487 0.591553 5.31934 1.83708 5.31934 3.37226C5.31934 4.90744 6.56487 6.15297 8.10005 6.15297ZM30.3457 6.15297C31.8809 6.15297 33.1264 4.90744 33.1264 3.37226C33.1264 1.83708 31.8809 0.591553 30.3457 0.591553C28.8105 0.591553 27.565 1.83708 27.565 3.37226C27.565 4.90744 28.8105 6.15297 30.3457 6.15297ZM37.6277 27.7093L35.0787 21.3368L32.6977 24.0248L32.5819 25.0792L34.1866 29.088C34.4762 29.8122 35.1714 30.2524 35.9071 30.2524C36.1389 30.2524 36.3706 30.2119 36.5965 30.1192C37.5466 29.7369 38.01 28.6593 37.6277 27.7093ZM35.6464 15.5552L34.5747 10.9091C34.3082 9.75051 33.4972 8.77726 32.4023 8.30802C31.3305 7.84457 30.143 7.91988 29.1523 8.49919C27.8373 9.27547 26.8525 10.4978 26.3658 11.9403L25.7112 13.9042L24.7843 14.4951V8.93368C24.7843 8.42388 24.3672 8.00677 23.8574 8.00677H14.5884C14.0786 8.00677 13.6615 8.42388 13.6615 8.93368V14.4951L12.7288 13.9042L12.0741 11.9403C11.5933 10.492 10.6027 9.27547 9.28764 8.49919C8.29122 7.91988 7.10942 7.84457 6.03769 8.30802C4.94279 8.77726 4.13175 9.75051 3.86526 10.9091L2.79932 15.5552C2.53284 16.7139 2.83988 17.942 3.63354 18.84L7.52653 23.2369L8.11164 28.6014C8.21591 29.5457 9.01537 30.2524 9.95386 30.2524C10.0234 30.2524 10.0871 30.2466 10.1566 30.2409C11.1762 30.1308 11.9061 29.2155 11.7961 28.1959L11.211 22.8198C11.1241 22.0667 10.8112 21.3658 10.3072 20.7922L7.79881 17.9536L8.8184 13.881L9.21233 15.0628C9.44985 15.787 9.90172 16.4184 10.6317 16.9514L13.5919 18.8342C13.8584 19.0022 14.2929 19.1006 14.5884 19.1238H23.8574C24.1528 19.1006 24.5873 19.0022 24.8538 18.8342L27.8141 16.9514C28.544 16.4184 28.9959 15.7928 29.2334 15.0628L29.6274 13.881L30.647 17.9536L28.1385 20.7922C27.6345 21.3658 27.3217 22.0667 27.2348 22.8198L26.6497 28.1959C26.5396 29.2155 27.2754 30.1308 28.2892 30.2409C28.3587 30.2466 28.4224 30.2524 28.4919 30.2524C29.4246 30.2524 30.2299 29.5515 30.3341 28.6014L30.9192 23.2369L34.8122 18.84C35.6001 17.942 35.9129 16.7139 35.6464 15.5552ZM3.36705 21.3368L0.81807 27.7093C0.435722 28.6593 0.899174 29.7369 1.84925 30.1192C2.8225 30.5015 3.88264 30.0207 4.2592 29.088L5.8639 25.0792L5.74803 24.0248L3.36705 21.3368Z" fill="black"/>
</g>
<defs>
<clipPath id="clip0_201_4701">
<rect width="37.0761" height="29.6609" fill="white" transform="translate(0.684814 0.591553)"/>
</clipPath>
</defs>
</svg>
