<svg width="34" height="31" viewBox="0 0 34 31" fill="none" xmlns="http://www.w3.org/2000/svg">
<g clip-path="url(#clip0_201_4703)">
<path d="M6.15224 8.00681C6.88553 8.00681 7.60236 7.78936 8.21207 7.38196C8.82179 6.97456 9.297 6.39551 9.57762 5.71804C9.85824 5.04056 9.93167 4.29508 9.78861 3.57588C9.64555 2.85667 9.29243 2.19604 8.77391 1.67752C8.2554 1.159 7.59476 0.805885 6.87556 0.662826C6.15635 0.519767 5.41087 0.59319 4.7334 0.87381C4.05592 1.15443 3.47687 1.62964 3.06947 2.23936C2.66207 2.84907 2.44463 3.5659 2.44463 4.2992C2.44463 5.28252 2.83525 6.22556 3.53056 6.92087C4.22587 7.61619 5.16892 8.00681 6.15224 8.00681ZM6.15224 18.2074C6.15141 17.8609 6.22103 17.518 6.35687 17.1993C6.49271 16.8806 6.69193 16.5929 6.94242 16.3536L11.121 12.4096C11.2166 12.3198 11.3394 12.2758 11.446 12.2028C11.1734 11.5126 10.6996 10.9203 10.0862 10.5026C9.47286 10.085 8.74812 9.86132 8.00604 9.86061H4.29843C3.31511 9.86061 2.37207 10.2512 1.67675 10.9465C0.981443 11.6419 0.59082 12.5849 0.59082 13.5682L0.59082 19.1296C0.59082 19.6213 0.786131 20.0928 1.13379 20.4405C1.48144 20.7881 1.95297 20.9834 2.44463 20.9834V28.3987C2.44463 28.8903 2.63994 29.3619 2.98759 29.7095C3.33525 30.0572 3.80677 30.2525 4.29843 30.2525H8.00604C8.4977 30.2525 8.96922 30.0572 9.31688 29.7095C9.66454 29.3619 9.85985 28.8903 9.85985 28.3987V22.8147L6.94242 20.0612C6.69185 19.8219 6.49258 19.5342 6.35673 19.2155C6.22089 18.8968 6.15131 18.5538 6.15224 18.2074ZM28.3979 8.00681C29.1312 8.00681 29.848 7.78936 30.4577 7.38196C31.0675 6.97456 31.5427 6.39551 31.8233 5.71804C32.1039 5.04056 32.1773 4.29508 32.0343 3.57588C31.8912 2.85667 31.5381 2.19604 31.0196 1.67752C30.5011 1.159 29.8404 0.805885 29.1212 0.662826C28.402 0.519767 27.6565 0.59319 26.9791 0.87381C26.3016 1.15443 25.7225 1.62964 25.3151 2.23936C24.9077 2.84907 24.6903 3.5659 24.6903 4.2992C24.6903 5.28252 25.0809 6.22556 25.7762 6.92087C26.4715 7.61619 27.4146 8.00681 28.3979 8.00681ZM30.2517 9.86061H26.5441C25.8021 9.86127 25.0774 10.0849 24.464 10.5024C23.8506 10.9199 23.3769 11.5121 23.1041 12.2022C23.2107 12.2758 23.3359 12.3181 23.4297 12.4102L27.6077 16.353C27.8575 16.5929 28.0561 16.8807 28.1919 17.1993C28.3276 17.5178 28.3976 17.8605 28.3976 18.2068C28.3976 18.5531 28.3276 18.8958 28.1919 19.2143C28.0561 19.5329 27.8575 19.8207 27.6077 20.0606L24.6903 22.8152V28.3987C24.6903 28.8903 24.8856 29.3619 25.2333 29.7095C25.5809 30.0572 26.0524 30.2525 26.5441 30.2525H30.2517C30.7434 30.2525 31.2149 30.0572 31.5625 29.7095C31.9102 29.3619 32.1055 28.8903 32.1055 28.3987V20.9834C32.5972 20.9834 33.0687 20.7881 33.4164 20.4405C33.764 20.0928 33.9593 19.6213 33.9593 19.1296V13.5682C33.9593 12.5849 33.5687 11.6419 32.8734 10.9465C32.1781 10.2512 31.235 9.86061 30.2517 9.86061ZM26.3355 17.7011L22.1575 13.7582C22.0589 13.6642 21.9348 13.6013 21.8007 13.5772C21.6666 13.5531 21.5284 13.569 21.4033 13.6228C21.2781 13.6766 21.1715 13.766 21.0967 13.8799C21.0219 13.9938 20.9823 14.1272 20.9827 14.2634V16.3489H13.5675V14.2634C13.568 14.1271 13.5284 13.9937 13.4537 13.8797C13.3789 13.7657 13.2723 13.6762 13.1472 13.6223C13.022 13.5684 12.8837 13.5525 12.7495 13.5766C12.6154 13.6006 12.4913 13.6636 12.3926 13.7577L8.2146 17.7011C8.08105 17.8356 8.00611 18.0175 8.00611 18.2071C8.00611 18.3967 8.08105 18.5786 8.2146 18.7131L12.3926 22.6565C12.4913 22.7506 12.6155 22.8136 12.7497 22.8376C12.8839 22.8617 13.0222 22.8457 13.1474 22.7917C13.2726 22.7378 13.3792 22.6482 13.4539 22.5341C13.5286 22.42 13.5681 22.2865 13.5675 22.1502V20.0565H20.9827V22.1502C20.9821 22.2865 21.0216 22.42 21.0962 22.5341C21.1709 22.6482 21.2775 22.7378 21.4027 22.7917C21.5279 22.8457 21.6662 22.8617 21.8005 22.8376C21.9347 22.8136 22.0588 22.7506 22.1575 22.6565L26.3355 18.7131C26.4691 18.5786 26.544 18.3967 26.544 18.2071C26.544 18.0175 26.4691 17.8356 26.3355 17.7011Z" fill="black"/>
</g>
<defs>
<clipPath id="clip0_201_4703">
<rect width="33.3685" height="29.6609" fill="white" transform="translate(0.59082 0.591553)"/>
</clipPath>
</defs>
</svg>
