<svg width="30" height="31" viewBox="0 0 30 31" fill="none" xmlns="http://www.w3.org/2000/svg">
<g clip-path="url(#clip0_201_4699)">
<path d="M19.3502 15.8345V10.6369L16.2943 9.23378C12.9064 13.2647 11.6401 23.7641 3.43813 23.7641C2.57772 23.7641 1.75256 24.1059 1.14416 24.7143C0.535764 25.3227 0.19397 26.1479 0.19397 27.0083C0.19397 27.8687 0.535764 28.6939 1.14416 29.3023C1.75256 29.9107 2.57772 30.2525 3.43813 30.2525C15.7567 30.2525 24.9104 23.1344 27.7218 18.0672L25.5755 15.8345H19.3502ZM26.9444 8.39783C28.8075 4.93122 27.8377 2.1256 26.7625 0.765367C26.7215 0.714497 26.6702 0.672875 26.6119 0.643232C26.5537 0.61359 26.4898 0.596597 26.4246 0.59337C26.3593 0.590142 26.2941 0.600752 26.2332 0.624504C26.1724 0.648256 26.1172 0.684612 26.0714 0.731187L24.7447 2.06361C24.6686 2.14099 24.6218 2.24249 24.6124 2.35066C24.6029 2.45882 24.6315 2.56688 24.6932 2.65625C25.0906 3.25642 25.6809 4.68964 24.6121 6.84585C23.5678 6.38934 22.4404 6.15345 21.3007 6.15299C19.6786 6.15299 18.1724 6.64772 16.8782 7.46166L21.204 9.44813V13.9807H26.3651L29.5328 17.2758C29.7216 16.5447 29.8549 15.791 29.8549 14.9985C29.856 13.7563 29.5977 12.5275 29.0965 11.3909C28.5954 10.2543 27.8623 9.2348 26.9444 8.39783Z" fill="black"/>
</g>
<defs>
<clipPath id="clip0_201_4699">
<rect width="29.6609" height="29.6609" fill="white" transform="translate(0.193848 0.591553)"/>
</clipPath>
</defs>
</svg>
