<svg width="23" height="31" viewBox="0 0 23 31" fill="none" xmlns="http://www.w3.org/2000/svg">
<g clip-path="url(#clip0_201_4695)">
<path d="M6.66411 10.6282C8.11182 9.18046 8.11182 6.8325 6.66411 5.38479C5.21641 3.93708 2.86845 3.93708 1.42074 5.38479C-0.0269656 6.8325 -0.0269656 9.18046 1.42074 10.6282C2.86903 12.0764 5.21641 12.0764 6.66411 10.6282ZM21.4946 20.2152C20.0469 18.7675 17.6989 18.7675 16.2512 20.2152C14.8035 21.6629 14.8035 24.0109 16.2512 25.4586C17.6989 26.9063 20.0469 26.9063 21.4946 25.4586C22.9428 24.0109 22.9428 21.6635 21.4946 20.2152ZM21.3822 6.80817L20.0718 5.49776C19.3476 4.77361 18.1739 4.77361 17.4504 5.49776L1.53371 21.4144C0.809564 22.1386 0.809564 23.3123 1.53371 24.0358L2.84412 25.3462C3.56826 26.0704 4.74195 26.0704 5.46551 25.3462L21.3822 9.42956C22.1063 8.706 22.1063 7.53231 21.3822 6.80817Z" fill="black"/>
</g>
<defs>
<clipPath id="clip0_201_4695">
<rect width="22.2457" height="29.6609" fill="white" transform="translate(0.334961 0.591553)"/>
</clipPath>
</defs>
</svg>
