<svg width="27" height="31" viewBox="0 0 27 31" fill="none" xmlns="http://www.w3.org/2000/svg">
<g clip-path="url(#clip0_201_4697)">
<path d="M6.89896 13.5682C10.4849 13.5682 13.3873 10.6658 13.3873 7.07984C13.3873 3.49389 10.4849 0.591522 6.89896 0.591522C3.31301 0.591522 0.410645 3.49389 0.410645 7.07984C0.410645 10.6658 3.31301 13.5682 6.89896 13.5682ZM6.89896 4.29913C8.43415 4.29913 9.67967 5.54466 9.67967 7.07984C9.67967 8.61502 8.43415 9.86055 6.89896 9.86055C5.36378 9.86055 4.11826 8.61502 4.11826 7.07984C4.11826 5.54466 5.36378 4.29913 6.89896 4.29913ZM19.8756 17.2758C16.2896 17.2758 13.3873 20.1781 13.3873 23.7641C13.3873 27.35 16.2896 30.2524 19.8756 30.2524C23.4616 30.2524 26.3639 27.35 26.3639 23.7641C26.3639 20.1781 23.4616 17.2758 19.8756 17.2758ZM19.8756 26.5448C18.3404 26.5448 17.0949 25.2993 17.0949 23.7641C17.0949 22.2289 18.3404 20.9834 19.8756 20.9834C21.4108 20.9834 22.6563 22.2289 22.6563 23.7641C22.6563 25.2993 21.4108 26.5448 19.8756 26.5448ZM23.1371 0.603109L24.9678 0.597315C26.0916 0.591522 26.7579 1.86022 26.109 2.78712L4.89454 29.6499C4.76662 29.8323 4.59666 29.9813 4.39902 30.0841C4.20138 30.187 3.98188 30.2407 3.75908 30.2408L1.82417 30.2466C0.694508 30.2466 0.0340903 28.9779 0.682922 28.0568L22.0017 1.19401C22.2624 0.823248 22.6853 0.603109 23.1371 0.603109Z" fill="black"/>
</g>
<defs>
<clipPath id="clip0_201_4697">
<rect width="25.9533" height="29.6609" fill="white" transform="translate(0.410645 0.591553)"/>
</clipPath>
</defs>
</svg>
