<svg width="23" height="31" viewBox="0 0 23 31" fill="none" xmlns="http://www.w3.org/2000/svg">
<g clip-path="url(#clip0_201_4683)">
<path d="M5.73582 29.9609C-1.78797 22.4371 -1.77679 10.2496 5.73582 2.73701C6.06591 2.40692 6.57739 2.35281 6.96761 2.5967L10.7226 4.94368C10.9205 5.06742 11.0688 5.2568 11.1413 5.47873C11.2138 5.70066 11.206 5.94102 11.1193 6.1578L9.24188 10.8515C9.16168 11.052 9.01847 11.221 8.83384 11.333C8.64921 11.445 8.43317 11.4939 8.21829 11.4724L4.98514 11.1492C3.76563 14.5243 3.79106 18.2441 4.98514 21.5487L8.21835 21.2254C8.43323 21.2039 8.64927 21.2529 8.8339 21.3649C9.01853 21.4769 9.16174 21.6459 9.24194 21.8464L11.1194 26.5401C11.2061 26.7569 11.2139 26.9972 11.1413 27.2192C11.0688 27.4411 10.9206 27.6305 10.7226 27.7542L6.96767 30.1012C6.77672 30.2205 6.55097 30.2716 6.32724 30.2461C6.10352 30.2207 5.89504 30.1201 5.73582 29.9609ZM14.4135 6.12252C15.099 7.28388 15.099 8.7299 14.4135 9.89125C14.1847 10.279 13.6542 10.3523 13.3292 10.0408L12.983 9.70906C12.7565 9.49193 12.7054 9.15164 12.8521 8.87427C12.9932 8.60694 13.067 8.3092 13.067 8.00689C13.067 7.70458 12.9932 7.40684 12.8521 7.13951C12.7053 6.86213 12.7565 6.52185 12.983 6.30472L13.3292 5.973C13.6542 5.66145 14.1847 5.73479 14.4135 6.12252ZM19.7309 0.839932C23.2149 4.98805 23.2121 11.029 19.7309 15.1738C19.4717 15.4824 19.005 15.5067 18.7141 15.2278L18.3782 14.9059C18.114 14.6527 18.0899 14.238 18.3243 13.9571C21.2028 10.5079 21.2004 5.50295 18.3243 2.05667C18.0899 1.7757 18.114 1.36103 18.3782 1.10781L18.7141 0.785882C19.005 0.507058 19.4717 0.531331 19.7309 0.839932ZM17.0677 3.44343C19.1561 6.12693 19.1595 9.88245 17.0677 12.5703C16.8133 12.8971 16.3321 12.9324 16.0332 12.6458L15.6962 12.3226C15.4413 12.0782 15.4067 11.6799 15.6218 11.3997C17.159 9.39739 17.1589 6.61622 15.6218 4.61399C15.4067 4.33383 15.4413 3.93556 15.6962 3.69108L16.0332 3.36789C16.3321 3.0813 16.8133 3.11664 17.0677 3.44343Z" fill="black"/>
</g>
<defs>
<clipPath id="clip0_201_4683">
<rect width="22.2457" height="29.6609" fill="white" transform="translate(0.097168 0.591553)"/>
</clipPath>
</defs>
</svg>
