<svg width="38" height="31" viewBox="0 0 38 31" fill="none" xmlns="http://www.w3.org/2000/svg">
<g clip-path="url(#clip0_201_4689)">
<path d="M16.2761 22.6866L13.4027 19.176C13.0088 18.6952 12.3484 18.533 11.7806 18.7763L5.2923 21.557C4.67244 21.8235 4.33644 22.4897 4.48706 23.1501L5.87741 29.175C6.02224 29.8006 6.57838 30.2525 7.23301 30.2525C13.0667 30.2525 18.4543 28.3755 22.8571 25.2182L18.2226 21.6381C17.5911 22.0146 16.9423 22.3738 16.2761 22.6866ZM37.4558 27.13L28.2621 20.0276C31.9002 15.4452 34.1074 9.68104 34.1074 3.37231C34.1074 2.72348 33.6613 2.16154 33.0299 2.01671L27.005 0.626358C26.3504 0.475737 25.6784 0.817532 25.4119 1.4316L22.6312 7.91992C22.3879 8.48765 22.5501 9.15386 23.0309 9.542L26.5416 12.4154C25.8348 13.9274 24.9253 15.3294 23.8767 16.6328L3.37477 0.788566C2.96925 0.475737 2.38994 0.545254 2.07132 0.950774L0.935861 2.41065C0.623032 2.81617 0.692549 3.39548 1.09807 3.70831L35.1849 30.0497C35.5904 30.3626 36.1698 30.293 36.4884 29.8875L37.6238 28.4219C37.9367 28.0279 37.8614 27.4428 37.4558 27.13Z" fill="black"/>
</g>
<defs>
<clipPath id="clip0_201_4689">
<rect width="37.0761" height="29.6609" fill="white" transform="translate(0.73938 0.591553)"/>
</clipPath>
</defs>
</svg>
