<svg width="27" height="31" viewBox="0 0 27 31" fill="none" xmlns="http://www.w3.org/2000/svg">
<g clip-path="url(#clip0_201_4685)">
<path d="M23.3454 2.44531H2.95356C1.4178 2.44531 0.172852 3.69026 0.172852 5.22602V25.6179C0.172852 27.1536 1.4178 28.3986 2.95356 28.3986H23.3454C24.8812 28.3986 26.1261 27.1536 26.1261 25.6179V5.22602C26.1261 3.69026 24.8812 2.44531 23.3454 2.44531ZM5.61841 24.691C5.21097 24.691 4.86199 24.4087 4.77168 24.0174L3.90282 20.2519C3.85701 20.0533 3.88242 19.845 3.97462 19.6633C4.06682 19.4816 4.21994 19.338 4.40723 19.2578L8.46232 17.5199C8.63554 17.4456 8.8282 17.4297 9.01125 17.4746C9.1943 17.5194 9.35782 17.6225 9.47716 17.7683L11.2729 19.9631C14.1083 18.6328 16.388 16.3216 17.6906 13.5454L15.4958 11.7497C15.3499 11.6304 15.2468 11.4669 15.202 11.2838C15.1572 11.1008 15.1731 10.9081 15.2473 10.7349L16.9852 6.67981C17.0655 6.49252 17.209 6.3394 17.3908 6.2472C17.5725 6.15499 17.7808 6.12958 17.9793 6.1754L21.7449 7.04426C21.9364 7.0884 22.1072 7.19615 22.2296 7.34991C22.3519 7.50367 22.4185 7.69437 22.4185 7.89087C22.4185 17.1768 14.8906 24.691 5.61841 24.691Z" fill="black"/>
</g>
<defs>
<clipPath id="clip0_201_4685">
<rect width="25.9533" height="29.6609" fill="white" transform="translate(0.172852 0.591553)"/>
</clipPath>
</defs>
</svg>
