<svg width="31" height="31" viewBox="0 0 31 31" fill="none" xmlns="http://www.w3.org/2000/svg">
<g clip-path="url(#clip0_201_4681)">
<path d="M29.1891 2.01653L23.1642 0.626175C22.5096 0.475553 21.8376 0.817349 21.5711 1.43142L18.7904 7.91974C18.5471 8.48747 18.7093 9.15368 19.1901 9.54182L22.7008 12.4152C20.6152 16.8586 16.9713 20.5546 12.4353 22.6807L9.5619 19.17C9.16797 18.6892 8.50755 18.527 7.93982 18.7703L1.4515 21.551C0.831639 21.8233 0.489843 22.4953 0.640465 23.1499L2.03082 29.1748C2.17565 29.8004 2.73179 30.2523 3.38641 30.2523C18.2227 30.2523 30.2666 18.2315 30.2666 3.37212C30.2666 2.72329 29.8205 2.16136 29.1891 2.01653Z" fill="black"/>
</g>
<defs>
<clipPath id="clip0_201_4681">
<rect width="29.6609" height="29.6609" fill="white" transform="translate(0.606201 0.591553)"/>
</clipPath>
</defs>
</svg>
