<svg width="27" height="31" viewBox="0 0 27 31" fill="none" xmlns="http://www.w3.org/2000/svg">
<g clip-path="url(#clip0_201_4687)">
<path d="M24.1286 2.44531H3.73676C2.99927 2.44531 2.29199 2.73828 1.77051 3.25976C1.24902 3.78125 0.956055 4.48853 0.956055 5.22602L0.956055 25.6179C0.956055 26.3554 1.24902 27.0627 1.77051 27.5841C2.29199 28.1056 2.99927 28.3986 3.73676 28.3986H24.1286C24.8661 28.3986 25.5734 28.1056 26.0949 27.5841C26.6164 27.0627 26.9093 26.3554 26.9093 25.6179V5.22602C26.9093 4.48853 26.6164 3.78125 26.0949 3.25976C25.5734 2.73828 24.8661 2.44531 24.1286 2.44531ZM23.1791 20.2517L22.3102 24.0172C22.266 24.2087 22.1583 24.3795 22.0046 24.5019C21.8509 24.6242 21.6602 24.6909 21.4638 24.691C12.1948 24.691 4.66367 17.1767 4.66367 7.89087C4.67056 7.69625 4.73974 7.50898 4.86102 7.35662C4.98231 7.20426 5.14929 7.09485 5.33741 7.04449L9.10295 6.17552C9.16718 6.16193 9.23254 6.15437 9.29818 6.15292C9.46622 6.16141 9.62893 6.21471 9.76941 6.30731C9.90989 6.39991 10.023 6.52843 10.0971 6.67952L11.835 10.7347C11.8776 10.8441 11.9013 10.9598 11.9051 11.0771C11.8909 11.3343 11.7766 11.5758 11.5865 11.7497L9.39145 13.5456C10.7214 16.3644 12.9902 18.6332 15.8091 19.9632L17.605 17.7682C17.7789 17.5781 18.0203 17.4637 18.2775 17.4496C18.3948 17.4533 18.5106 17.477 18.6199 17.5196L22.6751 19.2576C22.8263 19.3315 22.9549 19.4446 23.0475 19.5851C23.1401 19.7256 23.1934 19.8884 23.2017 20.0565C23.2006 20.1221 23.193 20.1875 23.1791 20.2517Z" fill="black"/>
</g>
<defs>
<clipPath id="clip0_201_4687">
<rect width="25.9533" height="29.6609" fill="white" transform="translate(0.956055 0.591553)"/>
</clipPath>
</defs>
</svg>
