<svg width="38" height="31" viewBox="0 0 38 31" fill="none" xmlns="http://www.w3.org/2000/svg">
<g clip-path="url(#clip0_201_4679)">
<path d="M35.9225 0.591522H9.96922C9.47756 0.591522 9.00604 0.786833 8.65838 1.13449C8.31073 1.48215 8.11542 1.95367 8.11542 2.44533V8.00674H17.3844V4.29913H28.5073V22.8372H35.9225C36.4142 22.8372 36.8857 22.6419 37.2333 22.2942C37.581 21.9466 37.7763 21.475 37.7763 20.9834V2.44533C37.7763 1.95367 37.581 1.48215 37.2333 1.13449C36.8857 0.786833 36.4142 0.591522 35.9225 0.591522ZM14.1403 6.55846C14.1403 6.69674 14.0854 6.82935 13.9876 6.92713C13.8898 7.02491 13.7572 7.07984 13.6189 7.07984H11.881C11.7427 7.07984 11.6101 7.02491 11.5123 6.92713C11.4145 6.82935 11.3596 6.69674 11.3596 6.55846V4.82052C11.3596 4.68224 11.4145 4.54962 11.5123 4.45184C11.6101 4.35406 11.7427 4.29913 11.881 4.29913H13.6189C13.7572 4.29913 13.8898 4.35406 13.9876 4.45184C14.0854 4.54962 14.1403 4.68224 14.1403 4.82052V6.55846ZM34.5321 18.6082C34.5321 18.7465 34.4772 18.8791 34.3794 18.9769C34.2817 19.0746 34.149 19.1296 34.0108 19.1296H32.2728C32.1345 19.1296 32.0019 19.0746 31.9041 18.9769C31.8064 18.8791 31.7514 18.7465 31.7514 18.6082V16.8703C31.7514 16.732 31.8064 16.5994 31.9041 16.5016C32.0019 16.4038 32.1345 16.3489 32.2728 16.3489H34.0108C34.149 16.3489 34.2817 16.4038 34.3794 16.5016C34.4772 16.5994 34.5321 16.732 34.5321 16.8703V18.6082ZM34.5321 12.5833C34.5321 12.7216 34.4772 12.8542 34.3794 12.952C34.2817 13.0498 34.149 13.1047 34.0108 13.1047H32.2728C32.1345 13.1047 32.0019 13.0498 31.9041 12.952C31.8064 12.8542 31.7514 12.7216 31.7514 12.5833V10.8454C31.7514 10.7071 31.8064 10.5745 31.9041 10.4767C32.0019 10.3789 32.1345 10.324 32.2728 10.324H34.0108C34.149 10.324 34.2817 10.3789 34.3794 10.4767C34.4772 10.5745 34.5321 10.7071 34.5321 10.8454V12.5833ZM34.5321 6.55846C34.5321 6.69674 34.4772 6.82935 34.3794 6.92713C34.2817 7.02491 34.149 7.07984 34.0108 7.07984H32.2728C32.1345 7.07984 32.0019 7.02491 31.9041 6.92713C31.8064 6.82935 31.7514 6.69674 31.7514 6.55846V4.82052C31.7514 4.68224 31.8064 4.54962 31.9041 4.45184C32.0019 4.35406 32.1345 4.29913 32.2728 4.29913H34.0108C34.149 4.29913 34.2817 4.35406 34.3794 4.45184C34.4772 4.54962 34.5321 4.68224 34.5321 4.82052V6.55846ZM24.7997 9.86055H2.554C2.06234 9.86055 1.59082 10.0559 1.24316 10.4035C0.895506 10.7512 0.700195 11.2227 0.700195 11.7144L0.700195 28.3986C0.700195 28.8903 0.895506 29.3618 1.24316 29.7094C1.59082 30.0571 2.06234 30.2524 2.554 30.2524H24.7997C25.2913 30.2524 25.7628 30.0571 26.1105 29.7094C26.4582 29.3618 26.6535 28.8903 26.6535 28.3986V11.7144C26.6535 11.2227 26.4582 10.7512 26.1105 10.4035C25.7628 10.0559 25.2913 9.86055 24.7997 9.86055ZM6.26161 13.5682C6.62826 13.5682 6.98667 13.6769 7.29153 13.8806C7.59639 14.0843 7.83399 14.3738 7.97431 14.7125C8.11462 15.0513 8.15133 15.424 8.0798 15.7836C8.00827 16.1432 7.83171 16.4735 7.57245 16.7328C7.31319 16.9921 6.98287 17.1686 6.62327 17.2402C6.26367 17.3117 5.89093 17.275 5.55219 17.1347C5.21345 16.9944 4.92393 16.7567 4.72023 16.4519C4.51653 16.147 4.40781 15.7886 4.40781 15.422C4.40781 14.9303 4.60312 14.4588 4.95077 14.1111C5.29843 13.7635 5.76995 13.5682 6.26161 13.5682ZM22.9459 26.5448H4.40781V24.691L8.11542 20.9834L9.96922 22.8372L17.3844 15.422L22.9459 20.9834V26.5448Z" fill="black"/>
</g>
<defs>
<clipPath id="clip0_201_4679">
<rect width="37.0761" height="29.6609" fill="white" transform="translate(0.700195 0.591553)"/>
</clipPath>
</defs>
</svg>
