<svg width="34" height="31" viewBox="0 0 34 31" fill="none" xmlns="http://www.w3.org/2000/svg">
<g clip-path="url(#clip0_201_4677)">
<path d="M32.9427 13.5682H31.2338C30.724 12.4095 29.9824 11.3841 29.0671 10.5268L30.162 6.15294H28.3082C26.605 6.15294 25.0988 6.93501 24.0792 8.13999C23.6389 8.07626 23.2045 8.00674 22.7468 8.00674H15.3316C10.8477 8.00674 7.11111 11.193 6.24793 15.422H3.7453C2.88791 15.422 2.21011 14.6399 2.38391 13.7535C2.51136 13.0931 3.13122 12.6413 3.80323 12.6413H3.86116C4.05233 12.6413 4.20875 12.4848 4.20875 12.2937V11.135C4.20875 10.9439 4.05233 10.7875 3.86116 10.7875C2.21011 10.7875 0.738654 11.9693 0.530101 13.6029C0.275203 15.5842 1.81618 17.2758 3.7453 17.2758H6.06255C6.06255 20.2998 7.53401 22.9588 9.77016 24.6504V29.3255C9.77016 29.8353 10.1873 30.2524 10.6971 30.2524H14.4047C14.9145 30.2524 15.3316 29.8353 15.3316 29.3255V26.5448H22.7468V29.3255C22.7468 29.8353 23.1639 30.2524 23.6737 30.2524H27.3813C27.8911 30.2524 28.3082 29.8353 28.3082 29.3255V24.6504C28.9918 24.1349 29.6001 23.5266 30.1215 22.8372H32.9427C33.4525 22.8372 33.8696 22.4201 33.8696 21.9103V14.4951C33.8696 13.9853 33.4525 13.5682 32.9427 13.5682ZM25.5275 17.2758C25.0177 17.2758 24.6006 16.8587 24.6006 16.3489C24.6006 15.8391 25.0177 15.422 25.5275 15.422C26.0373 15.422 26.4544 15.8391 26.4544 16.3489C26.4544 16.8587 26.0373 17.2758 25.5275 17.2758ZM15.3316 6.15294H22.7468C23.0596 6.15294 23.3667 6.17611 23.6679 6.19928C23.6679 6.1819 23.6737 6.17032 23.6737 6.15294C23.6737 3.08257 21.1827 0.591522 18.1123 0.591522C15.0419 0.591522 12.5509 3.08257 12.5509 6.15294C12.5509 6.27459 12.5798 6.39046 12.5856 6.51211C13.4662 6.28618 14.3815 6.15294 15.3316 6.15294Z" fill="black"/>
</g>
<defs>
<clipPath id="clip0_201_4677">
<rect width="33.3685" height="29.6609" fill="white" transform="translate(0.501587 0.591553)"/>
</clipPath>
</defs>
</svg>
