<svg width="34" height="31" viewBox="0 0 34 31" fill="none" xmlns="http://www.w3.org/2000/svg">
<g clip-path="url(#clip0_201_4675)">
<path d="M6.79118 2.44531C3.20522 2.44531 0.302856 5.34768 0.302856 8.93363V21.9103C0.302856 25.4962 3.20522 28.3986 6.79118 28.3986C10.3771 28.3986 13.2795 25.4962 13.2795 21.9103V8.93363C13.2795 5.34768 10.3771 2.44531 6.79118 2.44531ZM9.57189 15.422H4.01047V8.93363C4.01047 7.39845 5.25599 6.15292 6.79118 6.15292C8.32636 6.15292 9.57189 7.39845 9.57189 8.93363V15.422ZM17.6649 13.7014C17.4621 13.4986 17.1203 13.5218 16.9523 13.7477C14.3281 17.3684 14.6119 22.4432 17.8735 25.7048C21.135 28.9663 26.2098 29.2502 29.8305 26.6259C30.0622 26.4579 30.0796 26.1161 29.8769 25.9133L17.6649 13.7014ZM30.9775 12.6007C27.716 9.33915 22.6412 9.05529 19.0205 11.6796C18.7888 11.8476 18.7714 12.1894 18.9742 12.3921L31.1861 24.6041C31.3889 24.8068 31.7307 24.7837 31.8987 24.5577C34.523 20.9312 34.2449 15.8622 30.9775 12.6007Z" fill="black"/>
</g>
<defs>
<clipPath id="clip0_201_4675">
<rect width="33.3685" height="29.6609" fill="white" transform="translate(0.303101 0.591553)"/>
</clipPath>
</defs>
</svg>
