<svg width="31" height="31" viewBox="0 0 31 31" fill="none" xmlns="http://www.w3.org/2000/svg">
<g clip-path="url(#clip0_201_4673)">
<path d="M10.0152 0.600228C9.07898 0.512172 8.20769 1.08801 7.96844 1.99753L7.11047 5.25733C17.9796 5.57538 25.3322 12.8238 25.7922 23.6216L29.0908 22.7074C30.0015 22.4549 30.5675 21.5673 30.4592 20.6277C29.2495 10.1549 20.5535 1.59491 10.0152 0.600228ZM6.6279 7.08855L0.843451 29.0729C0.8014 29.2327 0.802211 29.4006 0.845803 29.5599C0.889394 29.7192 0.974225 29.8642 1.09174 29.9802C1.20925 30.0963 1.35528 30.1793 1.51511 30.2209C1.67494 30.2624 1.84291 30.2611 2.00208 30.2171L23.9581 24.1285C23.7107 13.9969 16.8279 7.20441 6.6279 7.09086V7.08855ZM8.22681 24.691C7.86016 24.691 7.50175 24.5823 7.19689 24.3786C6.89204 24.1749 6.65443 23.8854 6.51412 23.5466C6.37381 23.2079 6.3371 22.8351 6.40863 22.4755C6.48016 22.1159 6.65671 21.7856 6.91597 21.5264C7.17523 21.2671 7.50555 21.0905 7.86515 21.019C8.22475 20.9475 8.59749 20.9842 8.93623 21.1245C9.27497 21.2648 9.5645 21.5024 9.76819 21.8073C9.97189 22.1121 10.0806 22.4706 10.0806 22.8372C10.0806 23.3289 9.8853 23.8004 9.53765 24.148C9.18999 24.4957 8.71847 24.691 8.22681 24.691ZM11.0075 15.8854C10.6409 15.8854 10.2825 15.7767 9.9776 15.573C9.67274 15.3693 9.43514 15.0798 9.29483 14.741C9.15452 14.4023 9.1178 14.0296 9.18933 13.67C9.26086 13.3104 9.43742 12.9801 9.69668 12.7208C9.95594 12.4615 10.2863 12.285 10.6459 12.2134C11.0055 12.1419 11.3782 12.1786 11.7169 12.3189C12.0557 12.4592 12.3452 12.6969 12.5489 13.0017C12.7526 13.3066 12.8613 13.665 12.8613 14.0316C12.8613 14.5233 12.666 14.9948 12.3184 15.3425C11.9707 15.6901 11.4992 15.8854 11.0075 15.8854ZM17.0324 21.9103C16.6657 21.9103 16.3073 21.8016 16.0025 21.5979C15.6976 21.3942 15.46 21.1047 15.3197 20.7659C15.1794 20.4272 15.1427 20.0544 15.2142 19.6948C15.2857 19.3352 15.4623 19.0049 15.7215 18.7457C15.9808 18.4864 16.3111 18.3098 16.6707 18.2383C17.0303 18.1668 17.4031 18.2035 17.7418 18.3438C18.0805 18.4841 18.3701 18.7217 18.5738 19.0266C18.7775 19.3314 18.8862 19.6898 18.8862 20.0565C18.8862 20.5482 18.6909 21.0197 18.3432 21.3673C17.9956 21.715 17.524 21.9103 17.0324 21.9103Z" fill="black"/>
</g>
<defs>
<clipPath id="clip0_201_4673">
<rect width="29.6609" height="29.6609" fill="white" transform="translate(0.812256 0.591553)"/>
</clipPath>
</defs>
</svg>
