<svg width="38" height="31" viewBox="0 0 38 31" fill="none" xmlns="http://www.w3.org/2000/svg">
<g clip-path="url(#clip0_201_4665)">
<path d="M2.12481 9.49753L3.95081 15.7611L2.12481 22.0252C2.09076 22.1618 2.08827 22.3044 2.11753 22.4421C2.1468 22.5798 2.20704 22.709 2.2937 22.82C2.38036 22.9309 2.49116 23.0207 2.61768 23.0824C2.7442 23.1441 2.88312 23.1763 3.0239 23.1763H5.34116C5.48511 23.1762 5.62706 23.1426 5.75577 23.0782C5.88448 23.0137 5.9964 22.9202 6.08268 22.805L8.58532 19.4687H14.5436L11.7049 29.4091C11.6654 29.547 11.6584 29.6921 11.6845 29.8331C11.7105 29.9741 11.769 30.1072 11.8551 30.2218C11.9413 30.3363 12.0529 30.4294 12.1812 30.4936C12.3094 30.5577 12.4508 30.5913 12.5942 30.5915H16.3887C16.5521 30.5915 16.7125 30.5483 16.8538 30.4663C16.9951 30.3843 17.1123 30.2664 17.1933 30.1246L21.0516 23.3733L2.23314 8.829C2.11098 9.0291 2.07209 9.2691 2.12481 9.49753ZM36.9613 27.4684L26.6101 19.4687H29.9041C31.9514 19.4687 35.4655 17.8084 35.4655 15.7611C35.4655 13.7138 31.9514 12.0535 29.9041 12.0535H23.2825L17.1945 1.39756C17.0468 1.13977 16.6864 0.930634 16.3893 0.930634H12.5942C12.4508 0.930687 12.3093 0.964016 12.181 1.028C12.0526 1.09198 11.9409 1.18487 11.8545 1.29936C11.7682 1.41386 11.7095 1.54682 11.6833 1.68781C11.657 1.82879 11.6638 1.97395 11.7032 2.11186L13.8432 9.60181L2.87676 1.12644C2.78065 1.05166 2.67075 0.996542 2.55333 0.964248C2.43592 0.931954 2.31329 0.923113 2.19246 0.938231C2.07162 0.953349 1.95495 0.992129 1.84911 1.05235C1.74327 1.11258 1.65034 1.19307 1.57562 1.28923L0.438423 2.75258C0.363638 2.84868 0.308524 2.95858 0.27623 3.076C0.243935 3.19342 0.235095 3.31604 0.250212 3.43688C0.26533 3.55771 0.30411 3.67438 0.364336 3.78022C0.424561 3.88606 0.505053 3.979 0.60121 4.05372L34.6857 30.3963C34.7819 30.471 34.8918 30.5261 35.0093 30.5584C35.1267 30.5906 35.2493 30.5994 35.3702 30.5842C35.491 30.5691 35.6077 30.5302 35.7135 30.4699C35.8193 30.4097 35.9122 30.3291 35.9869 30.2329L37.1247 28.7696C37.1994 28.6734 37.2545 28.5635 37.2867 28.4461C37.319 28.3286 37.3278 28.206 37.3126 28.0852C37.2974 27.9643 37.2586 27.8477 37.1983 27.7418C37.138 27.636 37.0575 27.5431 36.9613 27.4684Z" fill="black"/>
</g>
<defs>
<clipPath id="clip0_201_4665">
<rect width="37.0761" height="29.6609" fill="white" transform="translate(0.243042 0.930664)"/>
</clipPath>
</defs>
</svg>
