<svg width="34" height="31" viewBox="0 0 34 31" fill="none" xmlns="http://www.w3.org/2000/svg">
<g clip-path="url(#clip0_201_4663)">
<path d="M27.8515 12.0535H21.2305L15.1419 1.39762C15.0607 1.25575 14.9435 1.13785 14.8021 1.05586C14.6607 0.973862 14.5001 0.930684 14.3367 0.930695L10.5422 0.930695C9.92634 0.930695 9.48201 1.51986 9.65117 2.11192L12.4915 12.0535H6.53272L4.03008 8.71668C3.85513 8.48321 3.57996 8.34592 3.28856 8.34592H0.971884C0.368818 8.34592 -0.073778 8.91249 0.0727884 9.49759L1.89821 15.7611L0.0727884 22.0247C-0.073778 22.6098 0.368818 23.1764 0.971884 23.1764H3.28856C3.58054 23.1764 3.85513 23.0391 4.03008 22.8056L6.53272 19.4688H12.4915L9.65117 29.4098C9.48201 30.0018 9.92634 30.5916 10.5422 30.5916H14.3367C14.6692 30.5916 14.9762 30.4132 15.1413 30.1247L21.2305 19.4688H27.8515C29.8994 19.4688 33.4129 17.809 33.4129 15.7611C33.4129 13.7133 29.8994 12.0535 27.8515 12.0535Z" fill="black"/>
</g>
<defs>
<clipPath id="clip0_201_4663">
<rect width="33.3685" height="29.6609" fill="white" transform="translate(0.0445557 0.930664)"/>
</clipPath>
</defs>
</svg>
