<svg width="38" height="31" viewBox="0 0 38 31" fill="none" xmlns="http://www.w3.org/2000/svg">
<g clip-path="url(#clip0_201_4667)">
<path d="M36.2984 26.884H1.07607C0.563959 26.884 0.14917 27.2987 0.14917 27.8109V29.6647C0.14917 30.1768 0.563959 30.5916 1.07607 30.5916H36.2984C36.8105 30.5916 37.2253 30.1768 37.2253 29.6647V27.8109C37.2253 27.2987 36.8105 26.884 36.2984 26.884ZM2.74508 12.8449L7.88591 17.4794C8.30773 17.8603 8.81315 18.1367 9.36143 18.2864L26.0225 22.8253C27.5565 23.243 29.1832 23.3304 30.7149 22.9041C32.4338 22.425 33.2315 21.6753 33.4522 20.8353C33.6741 19.9953 33.352 18.9404 32.0984 17.6514C30.9814 16.5032 29.5291 15.7519 27.9951 15.3342L22.3462 13.7955L16.5322 2.68137C16.4447 2.34478 16.1875 2.08178 15.8567 1.9914L12.0859 0.964279C11.4742 0.797437 10.8752 1.27247 10.8862 1.91667L13.6623 11.4296L7.74166 9.81678L6.14333 5.88439C6.03153 5.60111 5.79517 5.38792 5.50493 5.30914L3.20331 4.68174C2.6043 4.51837 2.01398 4.9714 2.00298 5.60169L2.0163 11.4979C2.02731 12.0141 2.36563 12.5025 2.74508 12.8449Z" fill="black"/>
</g>
<defs>
<clipPath id="clip0_201_4667">
<rect width="37.0761" height="29.6609" fill="white" transform="translate(0.14917 0.930664)"/>
</clipPath>
</defs>
</svg>
