<svg width="38" height="31" viewBox="0 0 38 31" fill="none" xmlns="http://www.w3.org/2000/svg">
<g clip-path="url(#clip0_201_4669)">
<path d="M36.1493 26.5448H0.926945C0.414832 26.5448 4.26066e-05 26.9596 4.26066e-05 27.4717V29.3255C4.26066e-05 29.8376 0.414832 30.2524 0.926945 30.2524H36.1493C36.6614 30.2524 37.0762 29.8376 37.0762 29.3255V27.4717C37.0762 26.9596 36.6614 26.5448 36.1493 26.5448ZM4.66642 20.3618C5.03023 20.758 5.54118 20.9828 6.07589 20.9822L13.6383 20.9718C14.2351 20.971 14.8233 20.8297 15.3553 20.5593L32.2111 12.0057C33.7602 11.2196 35.1488 10.0975 36.0936 8.62774C37.1544 6.97786 37.2696 5.78389 36.8508 4.94041C36.4331 4.09635 35.4176 3.47648 33.4763 3.35019C31.747 3.2378 30.0271 3.69315 28.478 4.4787L22.7711 7.37469L10.1015 2.62084C9.94921 2.51821 9.77223 2.45815 9.58891 2.44684C9.40558 2.43554 9.22257 2.4734 9.05878 2.55653L5.24979 4.4897C4.63166 4.80311 4.4822 5.62806 4.95028 6.14249L14.0003 11.8256L8.02123 14.86L3.82989 12.7472C3.68549 12.6744 3.52599 12.6366 3.36427 12.6368C3.20256 12.637 3.04315 12.6752 2.89893 12.7484L0.574143 13.9285C-0.030661 14.2355 -0.189972 15.0361 0.251465 15.5552L4.66642 20.3618Z" fill="black"/>
</g>
<defs>
<clipPath id="clip0_201_4669">
<rect width="37.0761" height="29.6609" fill="white" transform="translate(0 0.591553)"/>
</clipPath>
</defs>
</svg>
