<svg width="23" height="31" viewBox="0 0 23 31" fill="none" xmlns="http://www.w3.org/2000/svg">
<g clip-path="url(#clip0_201_4657)">
<path d="M19.2328 2.78453C19.2328 2.29287 19.0374 1.82135 18.6898 1.47369C18.3421 1.12604 17.8706 0.930725 17.379 0.930725C16.8873 0.930725 16.4158 1.12604 16.0681 1.47369C15.7205 1.82135 15.5251 2.29287 15.5251 2.78453V8.34595H19.2328V2.78453ZM22.0135 10.1998H1.6216C1.37578 10.1998 1.14001 10.2974 0.966186 10.4712C0.792358 10.6451 0.694702 10.8808 0.694702 11.1267L0.694702 12.9805C0.694702 13.2263 0.792358 13.4621 0.966186 13.6359C1.14001 13.8097 1.37578 13.9074 1.6216 13.9074H2.54851V15.7612C2.54883 17.8978 3.28696 19.9687 4.63809 21.6238C5.98922 23.279 7.87046 24.4167 9.96373 24.8448V30.5916H13.6713V24.8448C15.7646 24.4167 17.6458 23.279 18.997 21.6238C20.3481 19.9687 21.0862 17.8978 21.0866 15.7612V13.9074H22.0135C22.2593 13.9074 22.4951 13.8097 22.6689 13.6359C22.8427 13.4621 22.9404 13.2263 22.9404 12.9805V11.1267C22.9404 10.8808 22.8427 10.6451 22.6689 10.4712C22.4951 10.2974 22.2593 10.1998 22.0135 10.1998ZM8.10992 2.78453C8.10992 2.29287 7.91461 1.82135 7.56696 1.47369C7.2193 1.12604 6.74778 0.930725 6.25612 0.930725C5.76446 0.930725 5.29294 1.12604 4.94528 1.47369C4.59762 1.82135 4.40231 2.29287 4.40231 2.78453V8.34595H8.10992V2.78453Z" fill="black"/>
</g>
<defs>
<clipPath id="clip0_201_4657">
<rect width="22.2457" height="29.6609" fill="white" transform="translate(0.694702 0.930664)"/>
</clipPath>
</defs>
</svg>
