<svg width="27" height="31" viewBox="0 0 27 31" fill="none" xmlns="http://www.w3.org/2000/svg">
<g clip-path="url(#clip0_201_4653)">
<path d="M23.5931 2.78452H3.20124C1.66606 2.78452 0.420532 4.03004 0.420532 5.56522V25.9571C0.420532 27.4923 1.66606 28.7378 3.20124 28.7378H23.5931C25.1283 28.7378 26.3738 27.4923 26.3738 25.9571V5.56522C26.3738 4.03004 25.1283 2.78452 23.5931 2.78452ZM21.7393 17.3832C21.7393 17.7656 21.4265 18.0784 21.0441 18.0784H15.7144V23.4081C15.7144 23.7904 15.4016 24.1033 15.0193 24.1033H11.7751C11.3927 24.1033 11.0799 23.7904 11.0799 23.4081V18.0784H5.75022C5.36788 18.0784 5.05505 17.7656 5.05505 17.3832V14.1391C5.05505 13.7567 5.36788 13.4439 5.75022 13.4439H11.0799V8.11421C11.0799 7.73186 11.3927 7.41903 11.7751 7.41903H15.0193C15.4016 7.41903 15.7144 7.73186 15.7144 8.11421V13.4439H21.0441C21.4265 13.4439 21.7393 13.7567 21.7393 14.1391V17.3832Z" fill="black"/>
</g>
<defs>
<clipPath id="clip0_201_4653">
<rect width="25.9533" height="29.6609" fill="white" transform="translate(0.420532 0.930664)"/>
</clipPath>
</defs>
</svg>
