<svg width="27" height="31" viewBox="0 0 27 31" fill="none" xmlns="http://www.w3.org/2000/svg">
<g clip-path="url(#clip0_201_4651)">
<path d="M24.7377 12.9804H16.3955V4.63832C16.3955 3.61467 15.5654 2.78452 14.5417 2.78452H12.6879C11.6643 2.78452 10.8341 3.61467 10.8341 4.63832V12.9804H2.49199C1.46834 12.9804 0.638184 13.8106 0.638184 14.8343V16.6881C0.638184 17.7117 1.46834 18.5419 2.49199 18.5419H10.8341V26.884C10.8341 27.9076 11.6643 28.7378 12.6879 28.7378H14.5417C15.5654 28.7378 16.3955 27.9076 16.3955 26.884V18.5419H24.7377C25.7613 18.5419 26.5915 17.7117 26.5915 16.6881V14.8343C26.5915 13.8106 25.7613 12.9804 24.7377 12.9804Z" fill="black"/>
</g>
<defs>
<clipPath id="clip0_201_4651">
<rect width="25.9533" height="29.6609" fill="white" transform="translate(0.637207 0.930664)"/>
</clipPath>
</defs>
</svg>
