<svg width="27" height="31" viewBox="0 0 27 31" fill="none" xmlns="http://www.w3.org/2000/svg">
<g clip-path="url(#clip0_201_4649)">
<path d="M16.3463 29.2339C16.0484 30.3351 14.9229 30.5916 13.8304 30.5916C12.738 30.5916 11.6124 30.3351 11.3146 29.2339C10.8717 27.5869 10.1228 23.4601 10.1228 21.5398C10.1228 19.5032 11.9269 19.0053 13.8304 19.0053C15.7339 19.0053 17.538 19.5032 17.538 21.5398C17.538 23.4486 16.7924 27.5751 16.3463 29.2339ZM9.94129 17.6471C8.85838 16.5865 8.20578 15.0881 8.27379 13.4413C8.39278 10.5607 10.7298 8.23003 13.6107 8.11851C16.7769 7.99593 19.3918 10.5362 19.3918 13.6756C19.3918 15.2298 18.7509 16.6369 17.7196 17.647C17.5646 17.7987 17.5805 18.0517 17.7559 18.1792C18.2954 18.5711 18.7095 19.068 18.9861 19.6485C19.0869 19.8602 19.3624 19.9184 19.5335 19.758C21.2034 18.1914 22.2303 15.9471 22.17 13.4687C22.0625 9.05398 18.4858 5.46212 14.0716 5.33693C9.36209 5.20334 5.48827 8.99565 5.48827 13.6756C5.48827 16.0717 6.50393 18.2348 8.12705 19.7578C8.29812 19.9183 8.57376 19.8603 8.67468 19.6485C8.95124 19.068 9.36539 18.5711 9.90485 18.1792C10.0803 18.0517 10.0963 17.7988 9.94129 17.6471ZM13.8304 0.930725C6.65872 0.930725 0.85376 6.73458 0.85376 13.9074C0.85376 19.1207 3.90107 23.5035 8.138 25.5752C8.38902 25.6979 8.67485 25.4858 8.63244 25.2097C8.49445 24.311 8.38091 23.4169 8.31927 22.641C8.31081 22.5347 8.2527 22.4391 8.16413 22.3797C5.41818 20.5371 3.6128 17.3966 3.63464 13.8436C3.66894 8.26849 8.22802 3.72603 13.8033 3.71149C19.4378 3.69678 24.0263 8.27626 24.0263 13.9074C24.0263 17.4952 22.1634 20.6558 19.3542 22.4735C19.2963 23.2867 19.1764 24.2455 19.0284 25.2096C18.9859 25.4858 19.2718 25.6979 19.5228 25.5752C23.7498 23.5082 26.807 19.132 26.807 13.9074C26.807 6.73574 21.0032 0.930725 13.8304 0.930725ZM13.8304 10.1998C11.7828 10.1998 10.1228 11.8597 10.1228 13.9074C10.1228 15.955 11.7828 17.615 13.8304 17.615C15.878 17.615 17.538 15.955 17.538 13.9074C17.538 11.8597 15.878 10.1998 13.8304 10.1998Z" fill="black"/>
</g>
<defs>
<clipPath id="clip0_201_4649">
<rect width="25.9533" height="29.6609" fill="white" transform="translate(0.853882 0.930664)"/>
</clipPath>
</defs>
</svg>
