<svg width="27" height="31" viewBox="0 0 27 31" fill="none" xmlns="http://www.w3.org/2000/svg">
<g clip-path="url(#clip0_201_4645)">
<path d="M23.4599 2.78452H3.06806C1.53288 2.78452 0.287354 4.03004 0.287354 5.56522V25.9571C0.287354 27.4923 1.53288 28.7378 3.06806 28.7378H23.4599C24.9951 28.7378 26.2406 27.4923 26.2406 25.9571V5.56522C26.2406 4.03004 24.9951 2.78452 23.4599 2.78452ZM9.55638 22.2495C9.55638 22.7616 9.14159 23.1764 8.62948 23.1764H6.77567C6.26356 23.1764 5.84877 22.7616 5.84877 22.2495V14.8343C5.84877 14.3221 6.26356 13.9073 6.77567 13.9073H8.62948C9.14159 13.9073 9.55638 14.3221 9.55638 14.8343V22.2495ZM15.1178 22.2495C15.1178 22.7616 14.703 23.1764 14.1909 23.1764H12.3371C11.825 23.1764 11.4102 22.7616 11.4102 22.2495V9.27283C11.4102 8.76072 11.825 8.34593 12.3371 8.34593H14.1909C14.703 8.34593 15.1178 8.76072 15.1178 9.27283V22.2495ZM20.6792 22.2495C20.6792 22.7616 20.2644 23.1764 19.7523 23.1764H17.8985C17.3864 23.1764 16.9716 22.7616 16.9716 22.2495V18.5419C16.9716 18.0297 17.3864 17.615 17.8985 17.615H19.7523C20.2644 17.615 20.6792 18.0297 20.6792 18.5419V22.2495Z" fill="black"/>
</g>
<defs>
<clipPath id="clip0_201_4645">
<rect width="25.9533" height="29.6609" fill="white" transform="translate(0.287354 0.930664)"/>
</clipPath>
</defs>
</svg>
