<svg width="27" height="31" viewBox="0 0 27 31" fill="none" xmlns="http://www.w3.org/2000/svg">
<g clip-path="url(#clip0_201_4643)">
<path d="M18.347 20.3956H15.0044L16.0066 16.6358C16.1225 16.1956 15.7923 15.7611 15.3346 15.7611H11.3953C11.0477 15.7611 10.7522 16.0218 10.7059 16.3636L9.77897 23.3153C9.72104 23.7324 10.0455 24.1032 10.4684 24.1032H13.9037L12.5713 29.7341C12.467 30.1744 12.803 30.5915 13.2491 30.5915C13.4924 30.5915 13.7241 30.4641 13.8516 30.2439L18.9495 21.4384C19.216 20.9749 18.88 20.3956 18.347 20.3956ZM22.1937 13.9478C22.5355 13.3917 22.7498 12.7544 22.7498 12.0535C22.7498 10.0085 21.0872 8.34586 19.0422 8.34586H18.7004C18.909 7.76075 19.0422 7.14668 19.0422 6.49205C19.0422 3.42168 16.5512 0.930634 13.4808 0.930634C13.1795 0.930634 12.8899 0.971186 12.606 1.01753C13.1506 1.77643 13.4808 2.70334 13.4808 3.71134C13.4808 6.27191 11.4068 8.34586 8.84628 8.34586H7.91937C5.87439 8.34586 4.21176 10.0085 4.21176 12.0535C4.21176 12.7544 4.42611 13.3917 4.7679 13.9478C2.39271 14.139 0.50415 16.1203 0.50415 18.5418C0.50415 21.0908 2.58968 23.1763 5.13866 23.1763H7.93675C7.94255 23.1415 7.93675 23.1068 7.93675 23.072L8.86366 16.1203C9.03745 14.8573 10.1208 13.9073 11.3953 13.9073H15.3346C16.134 13.9073 16.8698 14.2722 17.3564 14.9037C17.843 15.5351 18.0052 16.3404 17.7967 17.1109L17.4143 18.5418H18.3412C19.2508 18.5418 20.0966 19.0284 20.5484 19.8163C21.0003 20.6041 21.0003 21.5832 20.5484 22.3653L20.0792 23.1763H21.8171C24.3661 23.1763 26.4516 21.0908 26.4516 18.5418C26.4574 16.1203 24.5689 14.139 22.1937 13.9478Z" fill="black"/>
</g>
<defs>
<clipPath id="clip0_201_4643">
<rect width="25.9533" height="29.6609" fill="white" transform="translate(0.50415 0.930664)"/>
</clipPath>
</defs>
</svg>
