<svg width="30" height="31" viewBox="0 0 30 31" fill="none" xmlns="http://www.w3.org/2000/svg">
<g clip-path="url(#clip0_201_4641)">
<path d="M26.1635 22.3131C27.1658 21.5542 27.8204 20.3608 27.8204 19.0053C27.8204 16.6996 25.955 14.8342 23.6493 14.8342H22.8325C23.6088 14.1564 24.1128 13.1658 24.1128 12.0535C24.1128 10.0085 22.4501 8.34587 20.4052 8.34587H20.0634C20.2719 7.76076 20.4052 7.14669 20.4052 6.49207C20.4052 3.4217 17.9141 0.930649 14.8438 0.930649C14.5425 0.930649 14.2528 0.971201 13.969 1.01755C14.5135 1.77645 14.8438 2.70335 14.8438 3.71136C14.8438 6.27193 12.7698 8.34587 10.2092 8.34587H9.28233C7.23735 8.34587 5.57472 10.0085 5.57472 12.0535C5.57472 13.1658 6.07873 14.1564 6.85501 14.8342H6.03817C3.7325 14.8342 1.86711 16.6996 1.86711 19.0053C1.86711 20.3608 2.52174 21.5542 3.52395 22.3131C1.5369 22.6318 0.0133057 24.3407 0.0133057 26.4205C0.0133057 28.7261 1.8787 30.5915 4.18437 30.5915H25.5031C27.8088 30.5915 29.6742 28.7261 29.6742 26.4205C29.6742 24.3407 28.1506 22.6318 26.1635 22.3131ZM11.1361 15.7611C12.1615 15.7611 12.9899 16.5895 12.9899 17.6149C12.9899 18.6403 12.1615 19.4687 11.1361 19.4687C10.1108 19.4687 9.28233 18.6403 9.28233 17.6149C9.28233 16.5895 10.1108 15.7611 11.1361 15.7611ZM20.3762 23.8136C19.7679 25.4298 16.9872 26.8839 14.8438 26.8839C12.7003 26.8839 9.91958 25.4298 9.3113 23.8136C9.19544 23.5065 9.42716 23.1763 9.76316 23.1763H19.9243C20.2603 23.1763 20.4921 23.5065 20.3762 23.8136ZM18.5514 19.4687C17.526 19.4687 16.6976 18.6403 16.6976 17.6149C16.6976 16.5895 17.526 15.7611 18.5514 15.7611C19.5767 15.7611 20.4052 16.5895 20.4052 17.6149C20.4052 18.6403 19.5767 19.4687 18.5514 19.4687Z" fill="black"/>
</g>
<defs>
<clipPath id="clip0_201_4641">
<rect width="29.6609" height="29.6609" fill="white" transform="translate(0.0131836 0.930664)"/>
</clipPath>
</defs>
</svg>
