<svg width="31" height="31" viewBox="0 0 31 31" fill="none" xmlns="http://www.w3.org/2000/svg">
<g clip-path="url(#clip0_201_4639)">
<path d="M26.6703 22.3155C27.6725 21.5537 28.3294 20.3615 28.3294 19.0053C28.3294 16.7014 26.4617 14.8343 24.1584 14.8343H23.3433C24.1207 14.1547 24.6218 13.167 24.6218 12.0536C24.6218 10.0057 22.9621 8.34595 20.9142 8.34595H20.5736C20.7804 7.76374 20.9142 7.14561 20.9142 6.49214C20.9142 3.42062 18.4243 0.930725 15.3528 0.930725C15.0533 0.930725 14.7648 0.973594 14.4774 1.01878C15.0232 1.77884 15.3528 2.70459 15.3528 3.71143C15.3528 6.27084 13.2777 8.34595 10.7183 8.34595H9.79137C7.74349 8.34595 6.08376 10.0057 6.08376 12.0536C6.08376 13.167 6.58486 14.1547 7.3623 14.8343H6.54721C4.24385 14.8343 2.37614 16.7014 2.37614 19.0053C2.37614 20.3615 3.03309 21.5537 4.0353 22.3155C2.04651 22.633 0.522339 24.342 0.522339 26.4206C0.522339 28.7239 2.39005 30.5916 4.6934 30.5916H26.0122C28.3155 30.5916 30.1832 28.7239 30.1832 26.4206C30.1832 24.342 28.6591 22.633 26.6703 22.3155Z" fill="black"/>
</g>
<defs>
<clipPath id="clip0_201_4639">
<rect width="29.6609" height="29.6609" fill="white" transform="translate(0.522217 0.930664)"/>
</clipPath>
</defs>
</svg>
