<svg width="19" height="31" viewBox="0 0 19 31" fill="none" xmlns="http://www.w3.org/2000/svg">
<g clip-path="url(#clip0_201_4635)">
<path d="M17.9215 21.3226H15.2859C14.902 21.3226 14.5907 21.6338 14.5907 22.0177V24.9634H7.49384V17.615H12.3601C12.744 17.615 13.0553 17.3037 13.0553 16.9198V14.6025C13.0553 14.2186 12.744 13.9073 12.3601 13.9073H7.49384V10.2255C7.49384 8.35624 8.91675 6.91839 11.0735 6.91839C12.4441 6.91839 13.7313 7.58489 14.4134 8.01034C14.7118 8.19647 15.1021 8.12915 15.3222 7.85479L16.9729 5.79747C17.2181 5.49182 17.1628 5.04407 16.8501 4.80794C15.9011 4.09145 13.7838 2.78452 10.9657 2.78452C6.22085 2.78452 2.85932 5.83993 2.85932 10.0816V13.9073H1.23724C0.85333 13.9073 0.542065 14.2186 0.542065 14.6025V16.9198C0.542065 17.3037 0.85333 17.615 1.23724 17.615H2.85932V25.0302H0.77379C0.389879 25.0302 0.0786133 25.3414 0.0786133 25.7254V28.0426C0.0786133 28.4265 0.389879 28.7378 0.77379 28.7378H17.9215C18.3054 28.7378 18.6167 28.4265 18.6167 28.0426V22.0177C18.6167 21.6338 18.3054 21.3226 17.9215 21.3226Z" fill="black"/>
</g>
<defs>
<clipPath id="clip0_201_4635">
<rect width="18.5381" height="29.6609" fill="white" transform="translate(0.0786133 0.930664)"/>
</clipPath>
</defs>
</svg>
