<svg width="38" height="31" viewBox="0 0 38 31" fill="none" xmlns="http://www.w3.org/2000/svg">
<g clip-path="url(#clip0_201_4629)">
<path d="M16.3632 12.0484C15.3436 12.0484 14.5094 12.8826 14.5094 13.9022V18.5367C14.5094 19.0488 14.0946 19.4636 13.5825 19.4636C13.0704 19.4636 12.6556 19.0488 12.6556 18.5367V14.102C12.6556 13.0946 12.929 12.1051 13.4487 11.2408L17.9528 3.73345C18.4794 2.85521 18.1956 1.71686 17.3173 1.18968C16.4802 0.687419 15.4218 0.94058 14.8668 1.72323C14.8552 1.73656 14.8309 1.7354 14.821 1.75104L8.02801 11.9412C7.41625 12.8588 7.09415 13.9253 7.09415 15.0249V19.6727L1.87337 21.413C1.50422 21.5358 1.1831 21.7717 0.955587 22.0873C0.72807 22.4029 0.6057 22.7821 0.605835 23.1712V28.7326C0.605835 29.3594 1.09941 30.5864 2.45964 30.5864C2.61548 30.5864 2.77305 30.5667 2.92657 30.5267L13.3073 27.826C16.1987 26.9993 18.217 24.3234 18.217 21.3174V13.9022C18.217 12.8826 17.3828 12.0484 16.3632 12.0484ZM36.4144 21.4176L31.1936 19.6773V15.0295C31.1936 13.93 30.8715 12.8634 30.2598 11.9458L23.4667 1.75625C23.4563 1.74061 23.4326 1.74235 23.421 1.72845C22.866 0.945794 21.8076 0.692633 20.9705 1.1949C20.0922 1.7215 19.8084 2.86043 20.335 3.73867L24.8391 11.246C25.3588 12.1103 25.6322 13.0998 25.6322 14.1072V18.5419C25.6322 19.054 25.2174 19.4688 24.7053 19.4688C24.1932 19.4688 23.7784 19.054 23.7784 18.5419V13.9074C23.7784 12.8878 22.9442 12.0536 21.9246 12.0536C20.905 12.0536 20.0708 12.8878 20.0708 13.9074V21.3226C20.0708 24.3287 22.0891 27.0045 24.9805 27.8306L35.3612 30.5314C35.5153 30.5713 35.6729 30.591 35.8281 30.591C37.1884 30.591 37.6819 29.3641 37.6819 28.7372V23.1758C37.6819 22.3781 37.1716 21.6702 36.4144 21.4176Z" fill="black"/>
</g>
<defs>
<clipPath id="clip0_201_4629">
<rect width="37.0761" height="29.6609" fill="white" transform="translate(0.605835 0.930664)"/>
</clipPath>
</defs>
</svg>
