<svg width="23" height="31" viewBox="0 0 23 31" fill="none" xmlns="http://www.w3.org/2000/svg">
<g clip-path="url(#clip0_201_4625)">
<path d="M2.3084 12.0536H9.26017C9.51506 12.0536 9.72362 12.2621 9.72362 12.517V13.4439C9.72362 13.6988 9.51506 13.9074 9.26017 13.9074H2.3084V17.615H9.26017C9.51506 17.615 9.72362 17.8235 9.72362 18.0784V19.0053C9.72362 19.2602 9.51506 19.4688 9.26017 19.4688H2.3084V23.1764H9.26017C9.51506 23.1764 9.72362 23.3849 9.72362 23.6398V24.5667C9.72362 24.8216 9.51506 25.0302 9.26017 25.0302H2.3084V28.7378C2.3084 29.7574 3.14261 30.5916 4.1622 30.5916H18.9926C20.0122 30.5916 20.8465 29.7574 20.8465 28.7378V8.34595H2.3084V12.0536ZM21.3099 0.930725H1.84494C1.08025 0.930725 0.45459 1.55638 0.45459 2.32108V5.10179C0.45459 5.86648 1.08025 6.49214 1.84494 6.49214H21.3099C22.0746 6.49214 22.7003 5.86648 22.7003 5.10179V2.32108C22.7003 1.55638 22.0746 0.930725 21.3099 0.930725Z" fill="black"/>
</g>
<defs>
<clipPath id="clip0_201_4625">
<rect width="22.2457" height="29.6609" fill="white" transform="translate(0.454468 0.930664)"/>
</clipPath>
</defs>
</svg>
