<svg width="23" height="31" viewBox="0 0 23 31" fill="none" xmlns="http://www.w3.org/2000/svg">
<g clip-path="url(#clip0_201_4623)">
<path d="M17.8312 21.3226L22.3533 16.8004C22.7154 16.4384 22.7154 15.8515 22.3533 15.4895L21.0423 14.1785C20.6803 13.8164 20.0934 13.8164 19.7314 14.1785L15.2092 18.7006L10.3453 13.8367C13.0837 13.4902 15.2092 11.1782 15.2092 8.34593C15.2092 5.27441 12.7193 2.78452 9.64781 2.78452H1.30569C0.793573 2.78452 0.378784 3.1993 0.378784 3.71142V18.5419C0.378784 19.054 0.793573 19.4688 1.30569 19.4688H3.15949C3.67161 19.4688 4.0864 19.054 4.0864 18.5419V13.9073H5.17261L12.5878 21.3226L8.0657 25.8447C7.70363 26.2068 7.70363 26.7936 8.0657 27.1557L9.37669 28.4667C9.73876 28.8287 10.3256 28.8287 10.6877 28.4667L15.2092 23.944L19.7314 28.4661C20.0934 28.8282 20.6803 28.8282 21.0423 28.4661L22.3533 27.1551C22.7154 26.793 22.7154 26.2062 22.3533 25.8441L17.8312 21.3226ZM4.0864 6.49213H9.64781C10.6697 6.49213 11.5016 7.32402 11.5016 8.34593C11.5016 9.36784 10.6697 10.1997 9.64781 10.1997H4.0864V6.49213Z" fill="black"/>
</g>
<defs>
<clipPath id="clip0_201_4623">
<rect width="22.2457" height="29.6609" fill="white" transform="translate(0.378784 0.930664)"/>
</clipPath>
</defs>
</svg>
