<svg width="31" height="31" viewBox="0 0 31 31" fill="none" xmlns="http://www.w3.org/2000/svg">
<g clip-path="url(#clip0_201_4621)">
<path d="M26.8422 12.0535V5.4059C26.8422 4.91406 26.647 4.44308 26.2994 4.09491L23.6774 1.47351C23.3298 1.12592 22.8582 0.930695 22.3664 0.930695H6.45033C5.42668 0.930695 4.59653 1.76085 4.59653 2.7845V12.0535C2.54865 12.0535 0.888916 13.7133 0.888916 15.7611V22.2495C0.888916 22.7616 1.30371 23.1764 1.81582 23.1764H4.59653V28.7378C4.59653 29.7614 5.42668 30.5916 6.45033 30.5916H24.9884C26.012 30.5916 26.8422 29.7614 26.8422 28.7378V23.1764H29.6229C30.135 23.1764 30.5498 22.7616 30.5498 22.2495V15.7611C30.5498 13.7133 28.8901 12.0535 26.8422 12.0535ZM23.1346 26.884H8.30414V21.3226H23.1346V26.884ZM23.1346 13.9073H8.30414V4.63831H19.427V7.41901C19.427 7.93113 19.8418 8.34592 20.3539 8.34592H23.1346V13.9073ZM25.9153 18.0784C25.1477 18.0784 24.5249 17.4556 24.5249 16.688C24.5249 15.9199 25.1477 15.2977 25.9153 15.2977C26.6829 15.2977 27.3056 15.9199 27.3056 16.688C27.3056 17.4556 26.6829 18.0784 25.9153 18.0784Z" fill="black"/>
</g>
<defs>
<clipPath id="clip0_201_4621">
<rect width="29.6609" height="29.6609" fill="white" transform="translate(0.887939 0.930664)"/>
</clipPath>
</defs>
</svg>
