<svg width="39" height="31" viewBox="0 0 39 31" fill="none" xmlns="http://www.w3.org/2000/svg">
<g clip-path="url(#clip0_201_4619)">
<path d="M31.5697 13.9074H16.7393C16.2295 13.9074 15.8124 14.3245 15.8124 14.8343V23.1764H4.68954V9.27286C4.68954 8.76307 4.27244 8.34596 3.76264 8.34596H1.90884C1.39904 8.34596 0.981934 8.76307 0.981934 9.27286V29.6647C0.981934 30.1745 1.39904 30.5916 1.90884 30.5916H3.76264C4.27244 30.5916 4.68954 30.1745 4.68954 29.6647V26.884H34.3504V29.6647C34.3504 30.1745 34.7675 30.5916 35.2773 30.5916H37.1311C37.6409 30.5916 38.058 30.1745 38.058 29.6647V20.3957C38.058 16.8097 35.1557 13.9074 31.5697 13.9074ZM8.86061 6.49216H16.1658L17.7647 9.68997C18.1065 10.3736 19.0797 10.3736 19.4215 9.68997L22.3007 3.93159L23.581 6.49216H30.6428C31.1526 6.49216 31.5697 6.07505 31.5697 5.56525C31.5697 5.05546 31.1526 4.63835 30.6428 4.63835H24.728L23.1291 1.44053C22.7873 0.756943 21.8141 0.756943 21.4723 1.44053L18.5931 7.19892L17.4403 4.89325C17.3591 4.73683 17.2027 4.63835 17.0231 4.63835H8.86061C8.60571 4.63835 8.39716 4.8469 8.39716 5.1018V6.0287C8.39716 6.2836 8.60571 6.49216 8.86061 6.49216ZM10.251 21.3226C12.2959 21.3226 13.9586 19.66 13.9586 17.615C13.9586 15.57 12.2959 13.9074 10.251 13.9074C8.20598 13.9074 6.54335 15.57 6.54335 17.615C6.54335 19.66 8.20598 21.3226 10.251 21.3226Z" fill="black"/>
</g>
<defs>
<clipPath id="clip0_201_4619">
<rect width="37.0761" height="29.6609" fill="white" transform="translate(0.981812 0.930664)"/>
</clipPath>
</defs>
</svg>
