<svg width="23" height="30" viewBox="0 0 23 30" fill="none" xmlns="http://www.w3.org/2000/svg">
<g clip-path="url(#clip0_201_4613)">
<path d="M13.8061 9.53886H5.0434C4.11812 9.53883 3.22627 9.88477 2.54303 10.5087C1.85979 11.1327 1.43455 11.9896 1.35085 12.9111L0.171363 25.8877C0.124759 26.4007 0.185572 26.9178 0.349924 27.406C0.514276 27.8942 0.77856 28.3428 1.12592 28.7232C1.47329 29.1036 1.89611 29.4075 2.36742 29.6154C2.83873 29.8233 3.3482 29.9307 3.86333 29.9307H14.9862C15.5013 29.9307 16.0109 29.8234 16.4823 29.6155C16.9536 29.4077 17.3765 29.1038 17.724 28.7234C18.0714 28.343 18.3357 27.8944 18.5001 27.4062C18.6645 26.9179 18.7253 26.4008 18.6787 25.8877L17.4992 12.9111C17.4155 11.9895 16.9902 11.1325 16.3068 10.5085C15.6235 9.88456 14.7315 9.53868 13.8061 9.53886ZM9.42475 24.3693C7.50606 24.3693 5.94886 22.844 5.94886 20.9658C5.94886 19.5176 8.01701 16.5938 8.9613 15.3308C9.01535 15.259 9.08539 15.2007 9.16588 15.1605C9.24638 15.1204 9.3351 15.0996 9.42504 15.0997C9.51497 15.0998 9.60365 15.1209 9.68404 15.1612C9.76443 15.2015 9.83433 15.26 9.8882 15.332C10.8342 16.5949 12.9006 19.5187 12.9006 20.967C12.9006 22.844 11.3434 24.3693 9.42475 24.3693ZM22.1297 5.71887L19.6207 3.20928C18.9254 2.51414 17.9825 2.12364 16.9993 2.12364H13.1324C13.1324 1.63198 12.937 1.16046 12.5894 0.812804C12.2417 0.465148 11.7702 0.269836 11.2786 0.269836L7.57094 0.269836C7.07928 0.269836 6.60776 0.465148 6.26011 0.812804C5.91245 1.16046 5.71714 1.63198 5.71714 2.12364V7.68506H13.1324V5.83125H16.9993L19.5083 8.34026C19.5944 8.42636 19.6966 8.49465 19.809 8.54125C19.9215 8.58784 20.042 8.61182 20.1638 8.61182C20.2855 8.61182 20.4061 8.58784 20.5185 8.54125C20.631 8.49465 20.7332 8.42636 20.8193 8.34026L22.1297 7.02985C22.2158 6.94378 22.2841 6.84159 22.3307 6.72912C22.3773 6.61665 22.4012 6.4961 22.4012 6.37436C22.4012 6.25262 22.3773 6.13207 22.3307 6.0196C22.2841 5.90713 22.2158 5.80494 22.1297 5.71887Z" fill="black"/>
</g>
<defs>
<clipPath id="clip0_201_4613">
<rect width="22.2457" height="29.6609" fill="white" transform="translate(0.155029 0.269775)"/>
</clipPath>
</defs>
</svg>
