<svg width="35" height="30" viewBox="0 0 35 30" fill="none" xmlns="http://www.w3.org/2000/svg">
<g clip-path="url(#clip0_201_4611)">
<path d="M31.0486 16.9917C28.6433 16.9917 27.6016 18.8219 26.2948 18.8219C22.8204 18.8219 25.9829 8.61187 25.9829 8.61187C25.9829 8.61187 14.6117 13.2464 14.6117 8.42087C14.6117 6.34536 16.7139 5.74154 16.7139 3.43964C16.7139 1.38296 15.0851 0.269745 13.1534 0.269745C11.1458 0.269745 9.30869 1.36413 9.30869 3.53395C9.30869 5.93022 11.1458 6.96795 11.1458 8.26984C11.1458 12.3032 0.956543 9.93027 0.956543 9.93027V29.2352C0.956543 29.2352 11.3051 31.6131 11.3051 27.5747C11.3051 26.2728 8.98787 25.2513 8.98787 22.855C8.98787 20.6851 10.6824 19.5908 12.671 19.5908C14.6217 19.5908 16.2504 20.704 16.2504 22.7606C16.2504 25.0625 14.1482 25.6664 14.1482 27.7419C14.1482 31.2643 21.6605 29.2324 24.6471 29.2324C24.6471 29.2324 22.6355 22.2748 26.1433 22.2748C28.2267 22.2748 28.8327 24.3692 31.1433 24.3692C33.2077 24.3692 34.325 22.7466 34.325 20.8031C34.325 18.8219 33.2265 16.9917 31.0486 16.9917Z" fill="black"/>
</g>
<defs>
<clipPath id="clip0_201_4611">
<rect width="33.3685" height="29.6609" fill="white" transform="translate(0.956543 0.269775)"/>
</clipPath>
</defs>
</svg>
