<svg width="27" height="30" viewBox="0 0 27 30" fill="none" xmlns="http://www.w3.org/2000/svg">
<g clip-path="url(#clip0_201_4609)">
<path d="M0.173218 13.2465H11.2961V2.12363H0.173218V13.2465ZM3.88083 5.83124H7.58844V9.53885H3.88083V5.83124ZM15.0037 2.12363V13.2465H26.1265V2.12363H15.0037ZM22.4189 9.53885H18.7113V5.83124H22.4189V9.53885ZM0.173218 28.0769H11.2961V16.9541H0.173218V28.0769ZM3.88083 20.6617H7.58844V24.3693H3.88083V20.6617ZM24.2727 16.9541H26.1265V24.3693H20.5651V22.5155H18.7113V28.0769H15.0037V16.9541H20.5651V18.8079H24.2727V16.9541ZM24.2727 26.2231H26.1265V28.0769H24.2727V26.2231ZM20.5651 26.2231H22.4189V28.0769H20.5651V26.2231Z" fill="black"/>
</g>
<defs>
<clipPath id="clip0_201_4609">
<rect width="25.9533" height="29.6609" fill="white" transform="translate(0.173218 0.269775)"/>
</clipPath>
</defs>
</svg>
