<svg width="31" height="30" viewBox="0 0 31 30" fill="none" xmlns="http://www.w3.org/2000/svg">
<g clip-path="url(#clip0_201_4607)">
<path d="M29.8804 15.1003C29.8804 23.0367 23.4475 29.4673 15.5134 29.4673C7.5793 29.4673 1.14642 23.0367 1.14642 15.1003C1.14642 7.16848 7.5793 0.733284 15.5134 0.733284C23.4475 0.733284 29.8804 7.16848 29.8804 15.1003ZM15.899 5.48366C12.7419 5.48366 10.7283 6.81359 9.1471 9.17725C8.94226 9.48348 9.01079 9.89647 9.30439 10.1191L11.3145 11.6433C11.6161 11.8719 12.0457 11.8175 12.28 11.5203C13.3149 10.2077 14.0245 9.44658 15.5996 9.44658C16.7831 9.44658 18.247 10.2083 18.247 11.3559C18.247 12.2235 17.5308 12.669 16.3622 13.3242C14.9994 14.0881 13.1962 15.0389 13.1962 17.4175V17.6493C13.1962 18.0332 13.5074 18.3444 13.8913 18.3444H17.1355C17.5194 18.3444 17.8307 18.0332 17.8307 17.6493V17.572C17.8307 15.9232 22.6498 15.8545 22.6498 11.3927C22.6498 8.03253 19.1643 5.48366 15.899 5.48366ZM15.5134 19.8507C14.044 19.8507 12.8486 21.0461 12.8486 22.5155C12.8486 23.9849 14.044 25.1803 15.5134 25.1803C16.9828 25.1803 18.1783 23.9849 18.1783 22.5155C18.1783 21.0461 16.9828 19.8507 15.5134 19.8507Z" fill="black"/>
</g>
<defs>
<clipPath id="clip0_201_4607">
<rect width="29.6609" height="29.6609" fill="white" transform="translate(0.682373 0.269775)"/>
</clipPath>
</defs>
</svg>
