<svg width="23" height="30" viewBox="0 0 23 30" fill="none" xmlns="http://www.w3.org/2000/svg">
<g clip-path="url(#clip0_201_4605)">
<path d="M12.3096 0.269806C7.68556 0.269806 4.69057 2.16434 2.33919 5.54307C1.91264 6.15599 2.04414 6.99634 2.63916 7.44751L5.1382 9.34239C5.73913 9.79802 6.59414 9.69148 7.0646 9.10209C8.51572 7.28414 9.59214 6.23744 11.8588 6.23744C13.641 6.23744 15.8454 7.38442 15.8454 9.11263C15.8454 10.4191 14.7669 11.0901 13.0072 12.0766C10.9551 13.2272 8.2395 14.659 8.2395 18.2408V18.8079C8.2395 19.5757 8.86198 20.1982 9.62986 20.1982H13.8282C14.5961 20.1982 15.2186 19.5757 15.2186 18.8079V18.4734C15.2186 15.9905 22.4755 15.8871 22.4755 9.16807C22.4756 4.10811 17.2269 0.269806 12.3096 0.269806ZM11.7291 21.9048C9.51631 21.9048 7.71609 23.705 7.71609 25.9178C7.71609 28.1305 9.51631 29.9307 11.7291 29.9307C13.9418 29.9307 15.742 28.1305 15.742 25.9177C15.742 23.705 13.9418 21.9048 11.7291 21.9048Z" fill="black"/>
</g>
<defs>
<clipPath id="clip0_201_4605">
<rect width="22.2457" height="29.6609" fill="white" transform="translate(0.606689 0.269775)"/>
</clipPath>
</defs>
</svg>
