<svg width="38" height="30" viewBox="0 0 38 30" fill="none" xmlns="http://www.w3.org/2000/svg">
<g clip-path="url(#clip0_201_4603)">
<path d="M15.56 12.8293L20.5826 19.1554C20.5826 19.1554 19.621 25.0876 16.1451 27.8509C12.675 30.6142 0.700562 29.8264 0.700562 29.8264C0.700562 29.8264 0.920701 28.4882 1.33781 26.617L6.81812 20.1171C7.04985 19.8448 6.76598 19.4451 6.43577 19.5667L2.93671 20.847C3.77093 18.4313 4.83107 16.2125 6.09977 15.1987C9.56986 12.4296 15.56 12.8293 15.56 12.8293ZM29.3477 20.65C26.7987 20.65 24.7247 22.724 24.7247 25.2788C24.7247 27.8335 26.7929 29.9075 29.3477 29.9075C31.9024 29.9075 33.9706 27.8335 33.9706 25.2788C33.9706 22.7182 31.8966 20.65 29.3477 20.65ZM37.5739 2.06563L36.4269 0.617346C36.1082 0.217619 35.5289 0.153895 35.1292 0.466724L21.6602 10.7727L19.6847 8.28167C19.3892 7.91091 18.8099 7.98043 18.6072 8.40912L17.1415 11.5722L22.1642 17.8983L25.5705 17.1799C26.034 17.0815 26.2309 16.5311 25.9355 16.1603L23.96 13.6751L37.4291 3.36909C37.8288 3.05047 37.8925 2.46536 37.5739 2.06563Z" fill="black"/>
</g>
<defs>
<clipPath id="clip0_201_4603">
<rect width="37.0761" height="29.6609" fill="white" transform="translate(0.700562 0.269775)"/>
</clipPath>
</defs>
</svg>
