<svg width="31" height="30" viewBox="0 0 31 30" fill="none" xmlns="http://www.w3.org/2000/svg">
<g clip-path="url(#clip0_201_4599)">
<path d="M27.5988 2.12358H20.1836C18.6484 2.12358 17.4029 3.36911 17.4029 4.90429V12.3195C17.4029 13.8547 18.6484 15.1002 20.1836 15.1002H24.8181V18.8078C24.8181 20.8528 23.1555 22.5154 21.1105 22.5154H20.647C19.8765 22.5154 19.2567 23.1353 19.2567 23.9058V26.6865C19.2567 27.457 19.8765 28.0769 20.647 28.0769H21.1105C26.2316 28.0769 30.3795 23.929 30.3795 18.8078V4.90429C30.3795 3.36911 29.134 2.12358 27.5988 2.12358ZM10.9146 2.12358H3.49934C1.96415 2.12358 0.718628 3.36911 0.718628 4.90429V12.3195C0.718628 13.8547 1.96415 15.1002 3.49934 15.1002H8.13385V18.8078C8.13385 20.8528 6.47122 22.5154 4.42624 22.5154H3.96279C3.1923 22.5154 2.57243 23.1353 2.57243 23.9058V26.6865C2.57243 27.457 3.1923 28.0769 3.96279 28.0769H4.42624C9.54738 28.0769 13.6953 23.929 13.6953 18.8078V4.90429C13.6953 3.36911 12.4497 2.12358 10.9146 2.12358Z" fill="black"/>
</g>
<defs>
<clipPath id="clip0_201_4599">
<rect width="29.6609" height="29.6609" fill="white" transform="translate(0.718872 0.269775)"/>
</clipPath>
</defs>
</svg>
