<svg width="30" height="30" viewBox="0 0 30 30" fill="none" xmlns="http://www.w3.org/2000/svg">
<g clip-path="url(#clip0_201_4601)">
<path d="M27.0899 15.1002H22.4554V11.3926C22.4554 9.34764 24.118 7.68501 26.163 7.68501H26.6264C27.3969 7.68501 28.0168 7.06515 28.0168 6.29466V3.51395C28.0168 2.74346 27.3969 2.1236 26.6264 2.1236H26.163C21.0419 2.1236 16.894 6.27149 16.894 11.3926V25.2962C16.894 26.8313 18.1395 28.0769 19.6747 28.0769H27.0899C28.6251 28.0769 29.8706 26.8313 29.8706 25.2962V17.8809C29.8706 16.3458 28.6251 15.1002 27.0899 15.1002ZM10.4056 15.1002H5.77113V11.3926C5.77113 9.34764 7.43377 7.68501 9.47874 7.68501H9.9422C10.7127 7.68501 11.3326 7.06515 11.3326 6.29466V3.51395C11.3326 2.74346 10.7127 2.1236 9.9422 2.1236H9.47874C4.35761 2.1236 0.209717 6.27149 0.209717 11.3926V25.2962C0.209717 26.8313 1.45524 28.0769 2.99043 28.0769H10.4056C11.9408 28.0769 13.1864 26.8313 13.1864 25.2962V17.8809C13.1864 16.3458 11.9408 15.1002 10.4056 15.1002Z" fill="black"/>
</g>
<defs>
<clipPath id="clip0_201_4601">
<rect width="29.6609" height="29.6609" fill="white" transform="translate(0.209717 0.269775)"/>
</clipPath>
</defs>
</svg>
