<svg width="27" height="30" viewBox="0 0 27 30" fill="none" xmlns="http://www.w3.org/2000/svg">
<g clip-path="url(#clip0_201_4597)">
<path d="M26.8889 21.0324V1.75285C26.8889 0.825948 26.3327 0.269806 25.4058 0.269806H6.49702C3.34556 0.269806 0.935608 2.67975 0.935608 5.83122V24.3693C0.935608 27.5207 3.34556 29.9307 6.49702 29.9307H25.4058C26.1474 29.9307 26.8889 29.3746 26.8889 28.4476V27.5207C26.8889 27.15 26.7035 26.7792 26.3327 26.4085C26.1474 25.4816 26.1474 22.8862 26.3327 22.1447C26.7035 21.9593 26.8889 21.5886 26.8889 21.0324ZM18.3776 8.71737C18.4124 8.64727 18.4796 8.61193 18.5468 8.61193C18.614 8.61193 18.6812 8.64727 18.7159 8.71737L19.3636 10.0295L20.8119 10.2398C20.9666 10.2624 21.0285 10.4524 20.9167 10.5619L19.8688 11.5832L20.1161 13.0251C20.137 13.1474 20.0402 13.2464 19.9302 13.2464C19.9012 13.2464 19.8711 13.2395 19.8421 13.2244L18.5468 12.5437L17.2514 13.2244C17.2224 13.2395 17.1923 13.2464 17.1634 13.2464C17.0533 13.2464 16.9565 13.1474 16.9774 13.0251L17.2248 11.5832L16.1768 10.5619C16.0644 10.4524 16.1264 10.2624 16.2816 10.2398L17.7293 10.0295L18.3776 8.71737ZM15.024 4.71952C15.8159 4.71952 16.6032 4.86377 17.3632 5.14879C17.4207 5.14883 17.4774 5.16148 17.5294 5.18586C17.5815 5.21023 17.6275 5.24572 17.6643 5.28984C17.7011 5.33395 17.7278 5.38561 17.7424 5.44116C17.7571 5.49671 17.7594 5.5548 17.7491 5.61133C17.7389 5.66786 17.7163 5.72145 17.6831 5.76831C17.6499 5.81518 17.6067 5.85417 17.5568 5.88255C17.5068 5.91092 17.4513 5.92799 17.394 5.93253C17.3367 5.93708 17.2792 5.92899 17.2253 5.90885C17.1865 5.90885 17.0463 5.89668 16.9861 5.89668C13.9557 5.89668 11.4907 8.36167 11.4907 11.3921C11.4907 14.4219 13.9557 16.8874 16.9861 16.8874C17.0458 16.8874 17.1877 16.8753 17.2253 16.8753C17.453 16.8753 17.6193 17.0572 17.6193 17.268C17.6193 17.4407 17.5069 17.5872 17.3516 17.64C16.5945 17.9221 15.8112 18.0652 15.0234 18.0652C11.3441 18.0658 8.35083 15.0719 8.35083 11.3926C8.35083 7.71284 11.3441 4.71952 15.024 4.71952ZM22.9959 26.2231H6.49702C5.38474 26.2231 4.64322 25.4816 4.64322 24.3693C4.64322 23.257 5.57012 22.5155 6.49702 22.5155H22.9959V26.2231Z" fill="black"/>
</g>
<defs>
<clipPath id="clip0_201_4597">
<rect width="25.9533" height="29.6609" fill="white" transform="translate(0.935547 0.269775)"/>
</clipPath>
</defs>
</svg>
