<svg width="30" height="30" viewBox="0 0 30 30" fill="none" xmlns="http://www.w3.org/2000/svg">
<g clip-path="url(#clip0_201_4595)">
<path d="M18.4462 15.1002H23.0286C23.5615 15.1002 24.0076 14.6542 23.9555 14.127C23.689 11.6012 22.3913 9.3882 20.5085 7.88198C20.0683 7.5286 19.4194 7.62129 19.1182 8.10212L16.7025 11.9719C17.7452 12.6208 18.4462 13.7794 18.4462 15.1002ZM12.7805 18.2343L10.359 22.1099C10.0751 22.5618 10.2199 23.1759 10.695 23.4134C11.9173 24.0159 13.2845 24.3693 14.7386 24.3693C16.1927 24.3693 17.5598 24.0159 18.788 23.4134C19.263 23.1759 19.4021 22.5618 19.124 22.1099L16.7025 18.2343C16.1347 18.5935 15.4627 18.8079 14.7444 18.8079C14.026 18.8079 13.3482 18.5935 12.7805 18.2343ZM6.44859 15.1002H11.031C11.031 13.7794 11.7319 12.6208 12.7805 11.9661L10.3648 8.09633C10.0635 7.6155 9.41468 7.52281 8.9744 7.87619C7.08583 9.38241 5.79396 11.5954 5.52748 14.1212C5.46375 14.6542 5.91562 15.1002 6.44859 15.1002ZM14.7386 29.4672C22.6752 29.4672 29.1056 23.0368 29.1056 15.1002C29.1056 7.16363 22.6752 0.733246 14.7386 0.733246C6.80197 0.733246 0.371582 7.16363 0.371582 15.1002C0.371582 23.0368 6.80197 29.4672 14.7386 29.4672ZM14.7386 4.44086C20.6186 4.44086 25.398 9.2202 25.398 15.1002C25.398 20.9803 20.6186 25.7596 14.7386 25.7596C8.85854 25.7596 4.07919 20.9803 4.07919 15.1002C4.07919 9.2202 8.85854 4.44086 14.7386 4.44086ZM14.7386 16.954C15.764 16.954 16.5924 16.1256 16.5924 15.1002C16.5924 14.0749 15.764 13.2464 14.7386 13.2464C13.7132 13.2464 12.8848 14.0749 12.8848 15.1002C12.8848 16.1256 13.7132 16.954 14.7386 16.954Z" fill="black"/>
</g>
<defs>
<clipPath id="clip0_201_4595">
<rect width="28.734" height="29.6609" fill="white" transform="translate(0.371582 0.269775)"/>
</clipPath>
</defs>
</svg>
