<svg width="34" height="30" viewBox="0 0 34 30" fill="none" xmlns="http://www.w3.org/2000/svg">
<g clip-path="url(#clip0_201_4591)">
<path d="M16.1523 2.16416C7.29454 2.75506 0.609253 10.5179 0.609253 19.3988V27.15C0.609253 27.6598 1.02636 28.0769 1.53616 28.0769H3.38996C3.89976 28.0769 4.31686 27.6598 4.31686 27.15V18.8079C4.31686 11.0914 11.089 4.9217 19.0025 5.94129C25.5429 6.7813 30.2701 12.6671 30.2701 19.2597V27.15C30.2701 27.6598 30.6872 28.0769 31.197 28.0769H33.0508C33.5606 28.0769 33.9778 27.6598 33.9778 27.15V18.8079C33.9778 9.2318 25.8674 1.50954 16.1523 2.16416ZM15.8278 7.77772C10.2259 8.49607 6.17067 13.5419 6.17067 19.196V27.15C6.17067 27.6598 6.58778 28.0769 7.09757 28.0769H8.95138C9.46117 28.0769 9.87828 27.6598 9.87828 27.15V18.8079C9.87828 14.4746 13.6149 10.9987 18.035 11.4274C21.8875 11.804 24.7087 15.2625 24.7087 19.1381V27.15C24.7087 27.6598 25.1258 28.0769 25.6356 28.0769H27.4894C27.9992 28.0769 28.4163 27.6598 28.4163 27.15V18.8079C28.4163 12.1921 22.6116 6.90875 15.8278 7.77772ZM16.187 13.3565C13.5453 13.8721 11.7321 16.34 11.7321 19.028V27.15C11.7321 27.6598 12.1492 28.0769 12.659 28.0769H14.5128C15.0226 28.0769 15.4397 27.6598 15.4397 27.15V18.8079C15.4397 17.7883 16.2681 16.9541 17.2935 16.9541C18.3189 16.9541 19.1473 17.7883 19.1473 18.8079V27.15C19.1473 27.6598 19.5644 28.0769 20.0742 28.0769H21.928C22.4378 28.0769 22.8549 27.6598 22.8549 27.15V18.8079C22.8549 15.3783 19.7382 12.6671 16.187 13.3565Z" fill="black"/>
</g>
<defs>
<clipPath id="clip0_201_4591">
<rect width="33.3685" height="29.6609" fill="white" transform="translate(0.609131 0.269775)"/>
</clipPath>
</defs>
</svg>
