<svg width="30" height="30" viewBox="0 0 30 30" fill="none" xmlns="http://www.w3.org/2000/svg">
<g clip-path="url(#clip0_201_4589)">
<path d="M29.3717 21.0688C29.9147 21.6118 29.9147 22.4921 29.3717 23.0351L24.7372 27.6687C23.8677 28.5382 22.3637 27.9288 22.3637 26.6855V24.3692H18.9582C18.8629 24.3692 18.7686 24.3496 18.6811 24.3116C18.5937 24.2736 18.515 24.2181 18.45 24.1484L14.3626 19.769L17.4522 16.4587L20.5099 19.7347H22.3637V17.4186C22.3637 16.1766 23.8666 15.5649 24.7372 16.4354L29.3717 21.0688ZM0.813219 10.4657H5.67946L8.73714 13.7418L11.8268 10.4314L7.73938 6.05202C7.67434 5.98233 7.59566 5.92676 7.50823 5.88877C7.42079 5.85078 7.32648 5.83118 7.23115 5.83119H0.813219C0.429308 5.83119 0.118042 6.14245 0.118042 6.52637V9.77053C0.118042 10.1544 0.429308 10.4657 0.813219 10.4657ZM22.3637 10.4657V12.782C22.3637 14.0252 23.8677 14.6347 24.7372 13.7652L29.3717 9.1316C29.9147 8.58861 29.9147 7.70828 29.3717 7.16535L24.7372 2.53194C23.8666 1.66134 22.3637 2.27316 22.3637 3.51503V5.83119H18.9582C18.8629 5.8312 18.7686 5.85081 18.6811 5.8888C18.5937 5.92679 18.515 5.98234 18.45 6.05202L5.67946 19.7347H0.813219C0.429308 19.7347 0.118042 20.046 0.118042 20.4299V23.6741C0.118042 24.058 0.429308 24.3692 0.813219 24.3692H7.23115C7.42383 24.3692 7.60788 24.2892 7.73938 24.1484L20.5099 10.4657H22.3637Z" fill="black"/>
</g>
<defs>
<clipPath id="clip0_201_4589">
<rect width="29.6609" height="29.6609" fill="white" transform="translate(0.118164 0.269775)"/>
</clipPath>
</defs>
</svg>
