<svg width="23" height="30" viewBox="0 0 23 30" fill="none" xmlns="http://www.w3.org/2000/svg">
<g clip-path="url(#clip0_201_4587)">
<path d="M20.8051 0.45519L18.5805 3.05052L15.4291 0.45519C15.269 0.333959 15.0737 0.268349 14.8729 0.268349C14.6721 0.268349 14.4768 0.333959 14.3168 0.45519L11.1653 3.05052L8.01384 0.45519C7.85378 0.333959 7.65849 0.268349 7.4577 0.268349C7.25691 0.268349 7.06162 0.333959 6.90156 0.45519L3.75009 3.05052L1.52552 0.45519C0.911452 -0.0024679 0.0424805 0.432018 0.0424805 1.19671V29.0038C0.0424805 29.7685 0.911452 30.203 1.52552 29.7453L3.75009 27.15L6.90156 29.7453C7.06162 29.8666 7.25691 29.9322 7.4577 29.9322C7.65849 29.9322 7.85378 29.8666 8.01384 29.7453L11.1653 27.15L14.3168 29.7453C14.4768 29.8666 14.6721 29.9322 14.8729 29.9322C15.0737 29.9322 15.269 29.8666 15.4291 29.7453L18.5805 27.15L20.8051 29.7453C21.4134 30.203 22.2881 29.7685 22.2881 29.0038V1.19671C22.2881 0.432018 21.4192 -0.0024679 20.8051 0.45519ZM18.5805 21.1251C18.5805 21.38 18.372 21.5886 18.1171 21.5886H4.21354C3.95864 21.5886 3.75009 21.38 3.75009 21.1251V20.1982C3.75009 19.9433 3.95864 19.7348 4.21354 19.7348H18.1171C18.372 19.7348 18.5805 19.9433 18.5805 20.1982V21.1251ZM18.5805 15.5637C18.5805 15.8186 18.372 16.0272 18.1171 16.0272H4.21354C3.95864 16.0272 3.75009 15.8186 3.75009 15.5637V14.6368C3.75009 14.3819 3.95864 14.1734 4.21354 14.1734H18.1171C18.372 14.1734 18.5805 14.3819 18.5805 14.6368V15.5637ZM18.5805 10.0023C18.5805 10.2572 18.372 10.4657 18.1171 10.4657H4.21354C3.95864 10.4657 3.75009 10.2572 3.75009 10.0023V9.07539C3.75009 8.82049 3.95864 8.61193 4.21354 8.61193H18.1171C18.372 8.61193 18.5805 8.82049 18.5805 9.07539V10.0023Z" fill="black"/>
</g>
<defs>
<clipPath id="clip0_201_4587">
<rect width="22.2457" height="29.6609" fill="white" transform="translate(0.0424805 0.269775)"/>
</clipPath>
</defs>
</svg>
