<svg width="31" height="30" viewBox="0 0 31 30" fill="none" xmlns="http://www.w3.org/2000/svg">
<g clip-path="url(#clip0_201_4585)">
<path d="M15.3825 9.07537C14.1909 9.07537 13.026 9.42872 12.0353 10.0907C11.0445 10.7528 10.2723 11.6937 9.81624 12.7946C9.36024 13.8955 9.24092 15.1069 9.4734 16.2756C9.70587 17.4443 10.2797 18.5179 11.1223 19.3605C11.9649 20.2031 13.0384 20.7769 14.2071 21.0093C15.3758 21.2418 16.5872 21.1225 17.6881 20.6665C18.789 20.2105 19.73 19.4383 20.392 18.4475C21.054 17.4567 21.4074 16.2918 21.4074 15.1002C21.4074 13.5023 20.7726 11.9699 19.6427 10.84C18.5128 9.71013 16.9804 9.07537 15.3825 9.07537ZM15.3825 16.4906C15.1075 16.4906 14.8387 16.4091 14.6101 16.2563C14.3814 16.1035 14.2032 15.8864 14.098 15.6323C13.9927 15.3783 13.9652 15.0987 14.0189 14.829C14.0725 14.5593 14.2049 14.3116 14.3994 14.1171C14.5938 13.9227 14.8415 13.7902 15.1113 13.7366C15.381 13.683 15.6605 13.7105 15.9146 13.8157C16.1686 13.921 16.3858 14.0992 16.5385 14.3278C16.6913 14.5564 16.7729 14.8253 16.7729 15.1002C16.7729 15.469 16.6264 15.8226 16.3656 16.0834C16.1049 16.3441 15.7512 16.4906 15.3825 16.4906ZM15.3825 0.733246C7.44589 0.733246 1.0155 7.16363 1.0155 15.1002C1.0155 23.0368 7.44589 29.4672 15.3825 29.4672C23.3191 29.4672 29.7495 23.0368 29.7495 15.1002C29.7495 7.16363 23.3191 0.733246 15.3825 0.733246ZM15.3825 22.5155C13.9159 22.5155 12.4822 22.0806 11.2628 21.2658C10.0434 20.451 9.09297 19.2929 8.53172 17.9379C7.97048 16.583 7.82364 15.092 8.10976 13.6536C8.39587 12.2152 9.10211 10.8939 10.1391 9.85688C11.1762 8.81985 12.4974 8.11362 13.9359 7.8275C15.3743 7.54138 16.8652 7.68823 18.2202 8.24947C19.5751 8.81071 20.7332 9.76114 21.548 10.9806C22.3628 12.2 22.7977 13.6336 22.7977 15.1002C22.7977 17.0669 22.0165 18.953 20.6259 20.3436C19.2352 21.7342 17.3491 22.5155 15.3825 22.5155Z" fill="black"/>
</g>
<defs>
<clipPath id="clip0_201_4585">
<rect width="29.6609" height="29.6609" fill="white" transform="translate(0.551636 0.269775)"/>
</clipPath>
</defs>
</svg>
