<svg width="30" height="30" viewBox="0 0 30 30" fill="none" xmlns="http://www.w3.org/2000/svg">
<g clip-path="url(#clip0_201_4583)">
<path d="M10.7527 15.4422C10.9399 16.2531 10.0504 16.8694 9.35836 16.4368L6.99847 14.9621L4.05167 19.6779C3.28211 20.9092 4.17159 22.5155 5.62288 22.5155H8.63462C9.01853 22.5155 9.3298 22.8267 9.3298 23.2106V25.5279C9.3298 25.9118 9.01853 26.2231 8.63462 26.2231H5.62885C1.26465 26.2231 -1.39835 21.412 0.91277 17.7141L3.85696 12.9992L1.4977 11.525C0.797834 11.0877 0.97829 10.021 1.78035 9.83579L8.16654 8.36143C8.66538 8.24627 9.16302 8.5573 9.27818 9.05603L10.7527 15.4422ZM16.4624 4.84569L18.8544 8.67357L16.4942 10.1483C15.7961 10.5844 15.9729 11.6518 16.7769 11.8375L23.1631 13.3118C23.6655 13.4277 24.1604 13.1127 24.2747 12.6173L25.7491 6.23106C25.9343 5.42906 25.0545 4.79906 24.3548 5.2365L21.9977 6.70935L19.6073 2.88112C17.4337 -0.596675 12.3538 -0.60467 10.1751 2.88112L9.13451 4.54758C8.93117 4.87315 9.03024 5.3019 9.35581 5.50536L11.3208 6.73321C11.6464 6.93667 12.0753 6.83766 12.2787 6.51209L13.3192 4.84697C14.0557 3.66858 15.7508 3.70711 16.4624 4.84569ZM28.8694 17.7141L27.2754 15.1614C27.072 14.8356 26.643 14.7365 26.3173 14.94L24.3557 16.1658C24.0301 16.3692 23.9311 16.7981 24.1345 17.1237L25.7313 19.6792C26.4993 20.908 25.6122 22.5155 24.1593 22.5155H18.5988V19.7359C18.5988 18.9125 17.6 18.4972 17.0165 19.0805L12.382 23.714C12.02 24.0759 12.02 24.6628 12.382 25.0248L17.0165 29.6586C17.596 30.2382 18.5988 29.8322 18.5988 29.0032V26.2231H24.1533C28.514 26.2231 31.1824 21.4149 28.8694 17.7141Z" fill="black"/>
</g>
<defs>
<clipPath id="clip0_201_4583">
<rect width="29.6609" height="29.6609" fill="white" transform="translate(0.060791 0.269775)"/>
</clipPath>
</defs>
</svg>
