<svg width="31" height="30" viewBox="0 0 31 30" fill="none" xmlns="http://www.w3.org/2000/svg">
<g clip-path="url(#clip0_201_4581)">
<path d="M15.4259 0.733269C19.265 0.740163 22.7506 2.25298 25.3241 4.71229L27.3931 2.64327C28.269 1.7674 29.7666 2.38773 29.7666 3.62642V11.3927C29.7666 12.1605 29.1441 12.783 28.3762 12.783H20.61C19.3713 12.783 18.751 11.2854 19.6268 10.4095L22.0455 7.99086C20.2575 6.3167 17.9439 5.38933 15.4859 5.36813C10.1332 5.3219 5.62117 9.65372 5.66745 15.1841C5.71137 20.4305 9.96469 24.8327 15.3996 24.8327C17.7821 24.8327 20.0339 23.9824 21.8085 22.4253C22.0833 22.1843 22.4982 22.1989 22.7567 22.4574L25.0544 24.7551C25.3366 25.0373 25.3227 25.4974 25.0265 25.765C22.4789 28.0661 19.1029 29.4673 15.3996 29.4673C7.46495 29.4673 1.03265 23.035 1.03259 15.1004C1.03253 7.17484 7.5004 0.719076 15.4259 0.733269Z" fill="black"/>
</g>
<defs>
<clipPath id="clip0_201_4581">
<rect width="29.6609" height="29.6609" fill="white" transform="translate(0.569824 0.269775)"/>
</clipPath>
</defs>
</svg>
