<svg width="38" height="30" viewBox="0 0 38 30" fill="none" xmlns="http://www.w3.org/2000/svg">
<g clip-path="url(#clip0_201_4575)">
<path d="M20.1467 24.3693H19.4996L20.0361 22.7605L16.1495 19.7579L14.6137 24.3693H12.7315C12.4857 24.3693 12.2499 24.4669 12.0761 24.6407C11.9022 24.8146 11.8046 25.0503 11.8046 25.2962V27.15C11.8046 27.3958 11.9022 27.6316 12.0761 27.8054C12.2499 27.9792 12.4857 28.0769 12.7315 28.0769H20.1467C20.3925 28.0769 20.6283 27.9792 20.8021 27.8054C20.976 27.6316 21.0736 27.3958 21.0736 27.15V25.2962C21.0736 25.0503 20.976 24.8146 20.8021 24.6407C20.6283 24.4669 20.3925 24.3693 20.1467 24.3693ZM37.3999 26.8082L22.5219 15.3082L25.3704 6.75811H32.1965V8.61192C32.1965 8.85775 32.2941 9.09351 32.4679 9.26734C32.6418 9.44116 32.8775 9.53882 33.1234 9.53882H34.9772C35.223 9.53882 35.4588 9.44116 35.6326 9.26734C35.8064 9.09351 35.9041 8.85775 35.9041 8.61192V3.0505C35.9041 2.80467 35.8064 2.56891 35.6326 2.39508C35.4588 2.22125 35.223 2.1236 34.9772 2.1236H10.8777C10.6319 2.1236 10.3961 2.22125 10.2223 2.39508C10.0484 2.56891 9.95079 2.80467 9.95079 3.0505V5.59369L3.31532 0.465599C3.21922 0.390814 3.10931 0.335699 2.9919 0.303405C2.87448 0.271111 2.75186 0.262271 2.63102 0.277388C2.51019 0.292506 2.39352 0.331286 2.28768 0.391511C2.18184 0.451737 2.0889 0.532229 2.01418 0.628386L0.876988 2.09231C0.726134 2.28637 0.658537 2.53241 0.689065 2.7763C0.719592 3.0202 0.845745 3.24198 1.03978 3.39287L35.1243 29.7355C35.2204 29.8102 35.3303 29.8654 35.4477 29.8976C35.5652 29.9299 35.6878 29.9388 35.8086 29.9237C35.9294 29.9085 36.0461 29.8698 36.152 29.8095C36.2578 29.7493 36.3507 29.6688 36.4255 29.5727L37.5632 28.1087C37.714 27.9146 37.7815 27.6685 37.7509 27.4246C37.7202 27.1807 37.594 26.959 37.3999 26.8082ZM18.6353 12.3056L13.6584 8.45898V6.75811H20.4845L18.6353 12.3056Z" fill="black"/>
</g>
<defs>
<clipPath id="clip0_201_4575">
<rect width="37.0761" height="29.6609" fill="white" transform="translate(0.681885 0.269775)"/>
</clipPath>
</defs>
</svg>
