<svg width="34" height="30" viewBox="0 0 34 30" fill="none" xmlns="http://www.w3.org/2000/svg">
<g clip-path="url(#clip0_201_4573)">
<path d="M8.38021 11.2673L18.5764 2.46261C19.4689 1.69183 20.8755 2.3176 20.8755 3.51487V8.30945C28.3592 8.90215 33.8521 11.3342 33.8521 18.9426C33.8521 22.502 31.5591 26.0282 29.0245 27.8717C28.2336 28.4471 27.1064 27.725 27.398 26.7924C29.629 19.6575 27.1708 16.9741 20.8755 16.248V21.1244C20.8755 22.3236 19.4678 22.9465 18.5764 22.1767L8.38021 13.3718C7.73885 12.818 7.73798 11.822 8.38021 11.2673ZM0.964988 13.3718L11.1611 22.1766C12.0525 22.9465 13.4603 22.3236 13.4603 21.1243V20.208L7.16857 14.7749C6.81583 14.4704 6.53288 14.0934 6.33899 13.6697C6.14511 13.246 6.04485 12.7854 6.04505 12.3195C6.04486 11.8535 6.14512 11.393 6.33899 10.9694C6.53287 10.5457 6.8158 10.1688 7.16852 9.86433L13.4603 4.43117V3.51487C13.4603 2.3176 12.0537 1.69183 11.1611 2.46261L0.964988 11.2673C0.32276 11.822 0.323629 12.818 0.964988 13.3718Z" fill="black"/>
</g>
<defs>
<clipPath id="clip0_201_4573">
<rect width="33.3685" height="29.6609" fill="white" transform="translate(0.483398 0.269775)"/>
</clipPath>
</defs>
</svg>
