<svg width="38" height="30" viewBox="0 0 38 30" fill="none" xmlns="http://www.w3.org/2000/svg">
<g clip-path="url(#clip0_201_4569)">
<path d="M31.6011 11.3926C31.6011 6.27149 27.4532 2.1236 22.3321 2.1236H9.35545C4.23432 2.1236 0.0864258 6.27149 0.0864258 11.3926V15.1002H31.6011V11.3926ZM10.2997 10.1413L9.15269 11.2594L9.42497 12.8409C9.47132 13.1248 9.17587 13.3391 8.92097 13.2059L7.50165 12.4586L6.08233 13.2059C5.83322 13.3391 5.53198 13.1248 5.57832 12.8409L5.8506 11.2594L4.70356 10.1413C4.49501 9.93854 4.61087 9.59096 4.89473 9.5504L6.48206 9.31868L7.18882 7.88198C7.31627 7.62129 7.68703 7.62708 7.80868 7.88198L8.51545 9.31868L10.1028 9.5504C10.3924 9.59096 10.5025 9.93854 10.2997 10.1413ZM18.6419 10.1413L17.4948 11.2594L17.7671 12.8409C17.8134 13.1248 17.518 13.3391 17.2631 13.2059L15.8438 12.4586L14.4245 13.2059C14.1753 13.3391 13.8741 13.1248 13.9205 12.8409L14.1927 11.2594L13.0457 10.1413C12.8371 9.93854 12.953 9.59096 13.2369 9.5504L14.8242 9.31868L15.5309 7.88198C15.6584 7.62129 16.0292 7.62708 16.1508 7.88198L16.8576 9.31868L18.4449 9.5504C18.7346 9.59096 18.8446 9.93854 18.6419 10.1413ZM26.984 10.1413L25.8369 11.2594L26.1092 12.8409C26.1556 13.1248 25.8601 13.3391 25.6052 13.2059L24.1859 12.4586L22.7666 13.2059C22.5175 13.3391 22.2162 13.1248 22.2626 12.8409L22.5349 11.2594L21.3878 10.1413C21.1793 9.93854 21.2951 9.59096 21.579 9.5504L23.1663 9.31868L23.8731 7.88198C24.0005 7.62129 24.3713 7.62708 24.4929 7.88198L25.1997 9.31868L26.787 9.5504C27.0767 9.59096 27.1867 9.93854 26.984 10.1413ZM36.2356 18.8078H34.3818C33.872 18.8078 33.4549 19.225 33.4549 19.7347V23.4424C33.4549 23.9522 33.0378 24.3693 32.528 24.3693C32.0182 24.3693 31.6011 23.9522 31.6011 23.4424V16.954H0.0864258V27.15C0.0864258 27.6598 0.503532 28.0769 1.01333 28.0769H6.57475C7.08454 28.0769 7.50165 27.6598 7.50165 27.15V22.5155H18.6245V27.15C18.6245 27.6598 19.0416 28.0769 19.5514 28.0769H25.1128C25.6226 28.0769 26.0397 27.6598 26.0397 27.15V20.6617H27.8935V23.1701C27.8935 25.5916 29.6315 27.8104 32.0414 28.0537C34.8105 28.3376 37.1625 26.1593 37.1625 23.4424V19.7347C37.1625 19.225 36.7454 18.8078 36.2356 18.8078Z" fill="black"/>
</g>
<defs>
<clipPath id="clip0_201_4569">
<rect width="37.0761" height="29.6609" fill="white" transform="translate(0.0864258 0.269775)"/>
</clipPath>
</defs>
</svg>
