<svg width="38" height="30" viewBox="0 0 38 30" fill="none" xmlns="http://www.w3.org/2000/svg">
<g clip-path="url(#clip0_201_4567)">
<path d="M7.59621 7.68503C9.64119 7.68503 11.3038 6.0224 11.3038 3.97742C11.3038 1.93244 9.64119 0.269806 7.59621 0.269806C5.55123 0.269806 3.8886 1.93244 3.8886 3.97742C3.8886 6.0224 5.55123 7.68503 7.59621 7.68503ZM29.8419 7.68503C31.8869 7.68503 33.5495 6.0224 33.5495 3.97742C33.5495 1.93244 31.8869 0.269806 29.8419 0.269806C27.7969 0.269806 26.1343 1.93244 26.1343 3.97742C26.1343 6.0224 27.7969 7.68503 29.8419 7.68503ZM37.2165 20.8065L34.5749 10.0428C34.3837 9.26076 33.6769 8.71041 32.8485 8.6409C31.9795 9.20283 30.9484 9.53883 29.8361 9.53883C28.7238 9.53883 27.6926 9.20283 26.8236 8.6409C25.9952 8.71041 25.2885 9.26076 25.0973 10.0428L22.4556 20.8065C22.2529 21.6813 22.948 22.5155 23.8865 22.5155H27.0612V28.5403C27.0612 29.3108 27.681 29.9307 28.4515 29.9307H31.2322C32.0027 29.9307 32.6226 29.3108 32.6226 28.5403V22.5155H35.7972C36.7357 22.5155 37.4309 21.6813 37.2165 20.8065ZM19.6459 0.269806H17.7921C17.2823 0.269806 16.8652 0.686912 16.8652 1.19671V29.0038C16.8652 29.5136 17.2823 29.9307 17.7921 29.9307H19.6459C20.1557 29.9307 20.5728 29.5136 20.5728 29.0038V1.19671C20.5728 0.686912 20.1557 0.269806 19.6459 0.269806ZM10.6144 8.6351C9.74546 9.20283 8.70849 9.53883 7.59621 9.53883C6.48392 9.53883 5.44695 9.20283 4.57798 8.6351C3.15287 8.75676 2.03479 9.93856 2.03479 11.3926V19.2713C2.03479 20.0418 2.65466 20.6617 3.42514 20.6617H3.8886V28.5403C3.8886 29.3108 4.50846 29.9307 5.27895 29.9307H9.91346C10.684 29.9307 11.3038 29.3108 11.3038 28.5403V20.6617H11.7673C12.5378 20.6617 13.1576 20.0418 13.1576 19.2713V11.3926C13.1576 9.93856 12.0395 8.75676 10.6144 8.6351Z" fill="black"/>
</g>
<defs>
<clipPath id="clip0_201_4567">
<rect width="37.0761" height="29.6609" fill="white" transform="translate(0.180298 0.269775)"/>
</clipPath>
</defs>
</svg>
