<svg width="38" height="30" viewBox="0 0 38 30" fill="none" xmlns="http://www.w3.org/2000/svg">
<g clip-path="url(#clip0_201_4565)">
<path d="M36.7515 20.175L30.9187 26.0078C30.3757 26.5508 29.4954 26.5508 28.9524 26.0078L23.1195 20.175C22.5765 19.632 22.5765 18.7516 23.1195 18.2087L23.7465 17.5817C24.3004 17.0278 25.2024 17.0406 25.7404 17.6102L28.0817 20.0892V9.53887H17.2167C16.848 9.53885 16.4943 9.39238 16.2336 9.13167L15.3067 8.20477C14.4308 7.32884 15.0511 5.83126 16.2898 5.83126H30.399C31.1668 5.83126 31.7893 6.45373 31.7893 7.22161V20.0892L34.1307 17.6102C34.6686 17.0407 35.5706 17.0278 36.1246 17.5817L36.7516 18.2087C37.2945 18.7516 37.2945 19.632 36.7515 20.175ZM21.3917 21.0689C21.2626 20.9398 21.1093 20.8374 20.9406 20.7675C20.7719 20.6977 20.5911 20.6617 20.4086 20.6617H9.54364V10.1113L11.885 12.5903C12.4229 13.1598 13.3249 13.1727 13.8789 12.6187L14.5059 11.9918C15.0489 11.4488 15.0489 10.5685 14.5059 10.0256L8.67299 4.19273C8.13 3.64974 7.24967 3.64974 6.70674 4.19273L0.873796 10.0256C0.330805 10.5686 0.330805 11.4489 0.873796 11.9919L1.50073 12.6188C2.05467 13.1727 2.95672 13.1599 3.49467 12.5904L5.83603 10.1113V22.979C5.83603 23.7468 6.4585 24.3693 7.22638 24.3693H21.3355C22.5742 24.3693 23.1945 22.8717 22.3187 21.9958L21.3917 21.0689Z" fill="black"/>
</g>
<defs>
<clipPath id="clip0_201_4565">
<rect width="37.0761" height="29.6609" fill="white" transform="translate(0.27417 0.269775)"/>
</clipPath>
</defs>
</svg>
