<svg width="27" height="30" viewBox="0 0 27 30" fill="none" xmlns="http://www.w3.org/2000/svg">
<g clip-path="url(#clip0_201_4563)">
<path d="M0.843702 26.0088C0.28756 26.6344 0.409216 27.6077 1.10439 28.0769L5.09008 29.6932C5.6636 30.0813 6.43988 29.9829 6.90333 29.4731L12.2214 23.5699L7.63327 18.4777L0.843702 26.0088ZM26.0902 26.0088C26.0902 26.0088 9.17424 7.20423 8.97727 6.8856C9.86942 6.39898 11.3061 5.84863 13.467 5.84863C15.6278 5.84863 17.0645 6.39898 17.9566 6.8856C17.7655 7.21002 14.7125 10.628 14.7125 10.628L19.2949 15.7086L21.2761 13.5072C22.9387 11.6592 23.2052 8.95376 21.9365 6.81609L19.4049 2.55813C19.1558 2.14102 18.8314 1.78764 18.4317 1.51536C16.0739 -0.0835465 11.0512 -0.205203 8.50224 1.51536C8.10251 1.78764 7.77809 2.14102 7.52899 2.55813L5.00318 6.79871C4.91628 6.94353 2.85392 10.402 5.66939 13.5188L20.0422 29.4673C20.5056 29.9829 21.2819 30.0756 21.8554 29.6874L25.8411 28.0711C26.5305 27.6077 26.6522 26.6344 26.0902 26.0088Z" fill="black"/>
</g>
<defs>
<clipPath id="clip0_201_4563">
<rect width="25.9533" height="29.6609" fill="white" transform="translate(0.490967 0.269775)"/>
</clipPath>
</defs>
</svg>
