<svg width="38" height="31" viewBox="0 0 38 31" fill="none" xmlns="http://www.w3.org/2000/svg">
<g clip-path="url(#clip0_201_4557)">
<path d="M2.75734 13.5855H4.61115V24.7083H2.75734C2.51381 24.7086 2.27262 24.6608 2.04757 24.5678C1.82253 24.4747 1.61805 24.3382 1.44585 24.166C1.27365 23.9938 1.13711 23.7893 1.04405 23.5643C0.950994 23.3392 0.903243 23.098 0.903535 22.8545V15.4393C0.903243 15.1957 0.950994 14.9546 1.04405 14.7295C1.13711 14.5045 1.27365 14.3 1.44585 14.1278C1.61805 13.9556 1.82253 13.819 2.04757 13.726C2.27262 13.6329 2.51381 13.5852 2.75734 13.5855ZM32.4182 10.8048V26.5621C32.4173 27.5451 32.0263 28.4876 31.3312 29.1827C30.6361 29.8778 29.6936 30.2687 28.7106 30.2697H10.1726C9.18954 30.2687 8.24706 29.8778 7.55196 29.1827C6.85686 28.4876 6.46592 27.5451 6.46495 26.5621V10.8048C6.46475 10.1961 6.58449 9.59335 6.81733 9.03097C7.05017 8.4686 7.39153 7.95761 7.82193 7.52722C8.25232 7.09683 8.76331 6.75546 9.32568 6.52262C9.88805 6.28979 10.4908 6.17005 11.0995 6.17025H17.5878V2.46263C17.5878 1.97097 17.7831 1.49945 18.1308 1.1518C18.4784 0.80414 18.9499 0.608829 19.4416 0.608829C19.9333 0.608829 20.4048 0.80414 20.7524 1.1518C21.1001 1.49945 21.2954 1.97097 21.2954 2.46263V6.17025H27.7837C28.3924 6.17005 28.9951 6.28979 29.5575 6.52262C30.1199 6.75546 30.6309 7.09683 31.0613 7.52722C31.4916 7.95761 31.833 8.4686 32.0658 9.03097C32.2987 9.59335 32.4184 10.1961 32.4182 10.8048ZM16.1974 15.4393C16.1974 14.981 16.0615 14.5329 15.8069 14.1519C15.5523 13.7708 15.1904 13.4738 14.767 13.2984C14.3435 13.123 13.8776 13.0771 13.4281 13.1665C12.9786 13.256 12.5657 13.4767 12.2416 13.8007C11.9176 14.1248 11.6969 14.5377 11.6074 14.9872C11.518 15.4367 11.5639 15.9026 11.7393 16.326C11.9147 16.7495 12.2117 17.1114 12.5928 17.366C12.9738 17.6206 13.4219 17.7565 13.8802 17.7565C14.1845 17.7566 14.4858 17.6966 14.767 17.5802C15.0481 17.4637 15.3036 17.2931 15.5188 17.0779C15.734 16.8627 15.9046 16.6072 16.0211 16.3261C16.1375 16.0449 16.1975 15.7436 16.1974 15.4393ZM15.734 22.8545H12.0264V24.7083H15.734V22.8545ZM21.2954 22.8545H17.5878V24.7083H21.2954V22.8545ZM27.3203 15.4393C27.3203 14.981 27.1844 14.5329 26.9297 14.1519C26.6751 13.7708 26.3132 13.4738 25.8898 13.2984C25.4664 13.123 25.0004 13.0771 24.5509 13.1665C24.1014 13.256 23.6885 13.4767 23.3645 13.8007C23.0404 14.1248 22.8197 14.5377 22.7303 14.9872C22.6409 15.4367 22.6868 15.9026 22.8621 16.326C23.0375 16.7495 23.3345 17.1114 23.7156 17.366C24.0967 17.6206 24.5447 17.7565 25.003 17.7565C25.3073 17.7566 25.6087 17.6966 25.8898 17.5802C26.171 17.4637 26.4264 17.2931 26.6416 17.0779C26.8568 16.8627 27.0275 16.6072 27.1439 16.3261C27.2604 16.0449 27.3203 15.7436 27.3203 15.4393ZM26.8568 22.8545H23.1492V24.7083H26.8568V22.8545ZM37.9796 15.4393V22.8545C37.9799 23.098 37.9322 23.3392 37.8391 23.5643C37.7461 23.7893 37.6095 23.9938 37.4373 24.166C37.2651 24.3382 37.0606 24.4747 36.8356 24.5678C36.6106 24.6608 36.3694 24.7086 36.1258 24.7083H34.272V13.5855H36.1258C36.3694 13.5852 36.6106 13.6329 36.8356 13.726C37.0606 13.819 37.2651 13.9556 37.4373 14.1278C37.6095 14.3 37.7461 14.5045 37.8391 14.7295C37.9322 14.9546 37.9799 15.1957 37.9796 15.4393Z" fill="black"/>
</g>
<defs>
<clipPath id="clip0_201_4557">
<rect width="37.0761" height="29.6609" fill="white" transform="translate(0.903687 0.608887)"/>
</clipPath>
</defs>
</svg>
