<svg width="31" height="31" viewBox="0 0 31 31" fill="none" xmlns="http://www.w3.org/2000/svg">
<g clip-path="url(#clip0_201_4555)">
<path d="M29.6752 1.71503C29.6063 1.3946 29.2895 1.07778 28.968 1.00899C27.1028 0.608902 25.6424 0.608902 24.1883 0.608902C18.2079 0.608902 14.6216 3.8069 11.9442 8.02412H5.90693C4.95988 8.02503 3.84708 8.71206 3.42244 9.5584L0.558575 15.2828C0.470072 15.478 0.420566 15.6886 0.412842 15.9028C0.412975 16.2716 0.559547 16.6252 0.820333 16.8859C1.08112 17.1466 1.43477 17.2931 1.80353 17.2932H7.81741L6.51543 18.5948C5.85703 19.253 5.76255 20.4635 6.51543 21.2162L9.46438 24.1653C10.1107 24.8134 11.3272 24.9274 12.0874 24.1653L13.3893 22.8636V28.8794C13.3895 29.2482 13.536 29.6018 13.7968 29.8625C14.0576 30.1233 14.4113 30.2697 14.78 30.2698C14.9943 30.2619 15.2049 30.2124 15.4003 30.1241L21.1198 27.2628C21.9673 26.8401 22.6554 25.7276 22.6554 24.7799V18.7297C26.8611 16.0467 30.0727 12.4495 30.0727 6.50071C30.0781 5.04066 30.0781 3.5806 29.6752 1.71503ZM22.6608 10.3414C22.2026 10.3413 21.7546 10.2053 21.3736 9.95058C20.9926 9.69589 20.6957 9.33395 20.5204 8.91051C20.3451 8.48708 20.2993 8.02117 20.3887 7.57171C20.4782 7.12224 20.699 6.7094 21.0231 6.38538C21.3472 6.06136 21.76 5.84072 22.2095 5.75135C22.659 5.66199 23.1249 5.70791 23.5483 5.88331C23.9717 6.05872 24.3336 6.35572 24.5882 6.73678C24.8428 7.11784 24.9787 7.56584 24.9787 8.02412C24.9783 8.63869 24.734 9.22797 24.2994 9.66248C23.8647 10.097 23.2754 10.3412 22.6608 10.3414Z" fill="black"/>
</g>
<defs>
<clipPath id="clip0_201_4555">
<rect width="29.6609" height="29.6609" fill="white" transform="translate(0.412842 0.608887)"/>
</clipPath>
</defs>
</svg>
