<svg width="27" height="31" viewBox="0 0 27 31" fill="none" xmlns="http://www.w3.org/2000/svg">
<g clip-path="url(#clip0_201_4551)">
<path d="M23.3113 2.4627H2.91944C1.38368 2.4627 0.138733 3.70765 0.138733 5.24341V25.6353C0.138733 27.171 1.38368 28.416 2.91944 28.416H23.3113C24.8471 28.416 26.092 27.171 26.092 25.6353V5.24341C26.092 3.70765 24.8471 2.4627 23.3113 2.4627ZM6.62705 24.7084C5.09129 24.7084 3.84634 23.4634 3.84634 21.9277C3.84634 20.3919 5.09129 19.147 6.62705 19.147C8.16281 19.147 9.40776 20.3919 9.40776 21.9277C9.40776 23.4634 8.16281 24.7084 6.62705 24.7084ZM15.7532 24.7084H13.7641C13.4159 24.7084 13.1239 24.4398 13.1012 24.0923C12.7992 19.4549 9.08989 15.7548 4.46233 15.4534C4.11491 15.4308 3.84634 15.1388 3.84634 14.7906V12.8016C3.84634 12.423 4.16311 12.1193 4.54117 12.1397C10.9453 12.4858 16.0694 17.6163 16.415 24.0135C16.4354 24.3916 16.1317 24.7084 15.7532 24.7084ZM21.7217 24.7084H19.7326C19.3757 24.7084 19.0853 24.4255 19.0707 24.0689C18.7464 16.1593 12.3967 9.80847 4.48585 9.48411C4.12917 9.46945 3.84634 9.17898 3.84634 8.82207V6.83305C3.84634 6.45916 4.15558 6.15734 4.52918 6.17078C14.2518 6.51982 22.0366 14.3502 22.3839 24.0255C22.3974 24.3991 22.0956 24.7084 21.7217 24.7084Z" fill="black"/>
</g>
<defs>
<clipPath id="clip0_201_4551">
<rect width="25.9533" height="29.6609" fill="white" transform="translate(0.138672 0.608887)"/>
</clipPath>
</defs>
</svg>
