<svg width="34" height="31" viewBox="0 0 34 31" fill="none" xmlns="http://www.w3.org/2000/svg">
<g clip-path="url(#clip0_201_4543)">
<path d="M32.105 8.02414H29.3243V13.1221C29.3243 13.3782 29.1169 13.5856 28.8609 13.5856H27.934C27.6779 13.5856 27.4705 13.3782 27.4705 13.1221V8.02414H23.7629V13.1221C23.7629 13.3782 23.5555 13.5856 23.2994 13.5856H22.3725C22.1165 13.5856 21.9091 13.3782 21.9091 13.1221V8.02414H18.2015V13.1221C18.2015 13.3782 17.9941 13.5856 17.738 13.5856H16.8111C16.5551 13.5856 16.3477 13.3782 16.3477 13.1221V8.02414H12.6401V13.1221C12.6401 13.3782 12.4327 13.5856 12.1766 13.5856H11.2497C10.9937 13.5856 10.7863 13.3782 10.7863 13.1221V8.02414H7.07865V13.1221C7.07865 13.3782 6.87126 13.5856 6.6152 13.5856H5.6883C5.43224 13.5856 5.22485 13.3782 5.22485 13.1221V8.02414H2.44414C1.42049 8.02414 0.590332 8.8543 0.590332 9.87794V21.0008C0.590332 22.0244 1.42049 22.8546 2.44414 22.8546H32.105C33.1287 22.8546 33.9588 22.0244 33.9588 21.0008V9.87794C33.9588 8.8543 33.1287 8.02414 32.105 8.02414Z" fill="black"/>
</g>
<defs>
<clipPath id="clip0_201_4543">
<rect width="33.3685" height="29.6609" fill="white" transform="translate(0.590332 0.608887)"/>
</clipPath>
</defs>
</svg>
