<svg width="16" height="31" viewBox="0 0 16 31" fill="none" xmlns="http://www.w3.org/2000/svg">
<g clip-path="url(#clip0_201_4541)">
<path d="M10.6623 24.7084C10.4062 24.7084 10.1988 24.501 10.1988 24.2449V23.318C10.1988 23.062 10.4062 22.8546 10.6623 22.8546H15.7603V19.147H10.6623C10.4062 19.147 10.1988 18.9396 10.1988 18.6835V17.7566C10.1988 17.5006 10.4062 17.2932 10.6623 17.2932H15.7603V13.5856H10.6623C10.4062 13.5856 10.1988 13.3782 10.1988 13.1221V12.1952C10.1988 11.9391 10.4062 11.7318 10.6623 11.7318H15.7603V8.02414H10.6623C10.4062 8.02414 10.1988 7.81675 10.1988 7.56069V6.63379C10.1988 6.37773 10.4062 6.17034 10.6623 6.17034H15.7603V2.46273C15.7603 1.43908 14.9301 0.608921 13.9064 0.608921H2.78362C1.75997 0.608921 0.92981 1.43908 0.92981 2.46273V28.416C0.92981 29.4397 1.75997 30.2698 2.78362 30.2698H13.9064C14.9301 30.2698 15.7603 29.4397 15.7603 28.416V24.7084H10.6623Z" fill="black"/>
</g>
<defs>
<clipPath id="clip0_201_4541">
<rect width="14.8304" height="29.6609" fill="white" transform="translate(0.929932 0.608887)"/>
</clipPath>
</defs>
</svg>
