<svg width="31" height="31" viewBox="0 0 31 31" fill="none" xmlns="http://www.w3.org/2000/svg">
<g clip-path="url(#clip0_201_4545)">
<path d="M10.0579 17.2932H6.81375C6.55769 17.2932 6.3503 17.0858 6.3503 16.8297V15.9028C6.3503 15.6468 6.55769 15.4394 6.81375 15.4394H10.0579V11.7318H6.81375C6.55769 11.7318 6.3503 11.5244 6.3503 11.2683V10.3414C6.3503 10.0853 6.55769 9.87795 6.81375 9.87795H10.0579V6.17034H6.81375C6.55769 6.17034 6.3503 5.96294 6.3503 5.70689V4.77998C6.3503 4.52393 6.55769 4.31653 6.81375 4.31653H10.0579V2.46273C10.0579 1.43908 9.22775 0.608921 8.2041 0.608921H2.64268C1.61904 0.608921 0.788879 1.43908 0.788879 2.46273V28.416C0.788879 28.5765 0.841597 28.7196 0.879832 28.8679L10.0579 19.6904V17.2932ZM28.596 21.0008H26.7422V24.2449C26.7422 24.501 26.5348 24.7084 26.2787 24.7084H25.3518C25.0957 24.7084 24.8884 24.501 24.8884 24.2449V21.0008H21.1807V24.2449C21.1807 24.501 20.9733 24.7084 20.7173 24.7084H19.7904C19.5343 24.7084 19.3269 24.501 19.3269 24.2449V21.0008H15.6193V24.2449C15.6193 24.501 15.4119 24.7084 15.1559 24.7084H14.229C13.9729 24.7084 13.7655 24.501 13.7655 24.2449V21.0008H11.3689L2.19082 30.1789C2.33912 30.2171 2.48279 30.2698 2.64268 30.2698H28.596C29.6196 30.2698 30.4498 29.4397 30.4498 28.416V22.8546C30.4498 21.8309 29.6196 21.0008 28.596 21.0008Z" fill="black"/>
</g>
<defs>
<clipPath id="clip0_201_4545">
<rect width="29.6609" height="29.6609" fill="white" transform="translate(0.788818 0.608887)"/>
</clipPath>
</defs>
</svg>
