<svg width="38" height="31" viewBox="0 0 38 31" fill="none" xmlns="http://www.w3.org/2000/svg">
<g clip-path="url(#clip0_201_4539)">
<path d="M36.8504 10.2951L32.239 2.44536C31.7292 1.57639 30.5996 1.28094 29.719 1.77915L25.7217 4.04427L29.1802 9.93589C29.3077 10.156 29.2324 10.4283 29.0122 10.5558L28.2128 11.0076C27.9927 11.1351 27.7088 11.0598 27.5813 10.8396L24.1228 4.95379L20.925 6.76704L22.5413 9.51299C22.6688 9.73313 22.5934 10.0054 22.3733 10.1329L21.5738 10.5847C21.3537 10.7122 21.0698 10.6369 20.9424 10.4167L19.3261 7.67657L16.1283 9.48982L19.5926 15.3814C19.72 15.5958 19.6447 15.8739 19.4246 16.0013L18.6251 16.4532C18.405 16.5806 18.1211 16.5053 17.9937 16.2852L14.5352 10.3935L11.3374 12.2068L12.9537 14.9528C13.0811 15.1729 13.0058 15.4452 12.7857 15.5726L11.9862 16.0245C11.7661 16.1519 11.4822 16.0766 11.3547 15.8565L9.73846 13.1047L6.54064 14.918L9.99915 20.8096C10.1266 21.024 10.0513 21.302 9.83115 21.4295L9.0317 21.8814C8.81156 22.0088 8.52769 21.9335 8.40024 21.7134L4.94174 15.8391L0.944469 18.1042C0.0639118 18.6082 -0.243125 19.7147 0.266672 20.5837L4.87801 28.4392C5.38781 29.3082 6.51747 29.6036 7.39803 29.1054L36.1784 12.7745C37.0589 12.2763 37.3602 11.164 36.8504 10.2951Z" fill="black"/>
</g>
<defs>
<clipPath id="clip0_201_4539">
<rect width="37.0761" height="29.6609" fill="white" transform="translate(0.0238037 0.608887)"/>
</clipPath>
</defs>
</svg>
