<svg width="25" height="31" viewBox="0 0 25 31" fill="none" xmlns="http://www.w3.org/2000/svg">
<g clip-path="url(#clip0_201_4537)">
<path d="M15.8517 6.1703C17.3875 6.1703 18.6324 4.92535 18.6324 3.38959C18.6324 1.85383 17.3875 0.608882 15.8517 0.608882C14.3159 0.608882 13.071 1.85383 13.071 3.38959C13.071 4.92535 14.3159 6.1703 15.8517 6.1703ZM6.68058 19.0004L5.8232 21.0002H1.94817C0.924518 21.0002 0.0943604 21.8303 0.0943604 22.854C0.0943604 23.8776 0.924518 24.7078 1.94817 24.7078H6.43495C7.55013 24.7078 8.55409 24.045 8.99031 23.0225L9.49953 21.8338L8.8814 21.4688C7.87803 20.8762 7.13998 19.9991 6.68058 19.0004ZM22.34 13.5849H19.7893L18.2796 10.5001C17.5555 9.01995 16.2259 7.93779 14.7006 7.54907L10.5828 6.3244C8.94339 5.93046 7.23615 6.29253 5.89967 7.31734L3.60153 9.07904C2.78875 9.7018 2.63465 10.8651 3.25857 11.6778C3.8825 12.4906 5.04518 12.643 5.85738 12.0208L8.15668 10.2591C8.60101 9.91788 9.167 9.79565 9.6206 9.9034L10.4722 10.1566L8.30208 15.2192C7.57099 16.927 8.22619 18.9274 9.82568 19.8717L14.7487 22.7781L13.1573 27.8604C12.8514 28.8371 13.3954 29.877 14.3721 30.1829C14.5569 30.2408 14.7435 30.2686 14.9271 30.2686C15.7156 30.2686 16.4467 29.7606 16.6952 28.9681L18.5281 23.1135C18.8705 21.9103 18.3607 20.6178 17.2745 19.9626L13.7268 17.869L15.5406 13.3341L16.7149 15.7342C17.1783 16.6808 18.1585 17.292 19.2123 17.292H22.34C23.3637 17.292 24.1938 16.4618 24.1938 15.4382C24.1938 14.4145 23.3637 13.5849 22.34 13.5849Z" fill="black"/>
</g>
<defs>
<clipPath id="clip0_201_4537">
<rect width="24.0995" height="29.6609" fill="white" transform="translate(0.0943604 0.608887)"/>
</clipPath>
</defs>
</svg>
