<svg width="20" height="31" viewBox="0 0 20 31" fill="none" xmlns="http://www.w3.org/2000/svg">
<g clip-path="url(#clip0_201_4535)">
<path d="M18.5692 6.17032C18.9531 6.17032 19.2644 5.85905 19.2644 5.47514V3.15788C19.2644 2.77397 18.9531 2.46271 18.5692 2.46271H1.4215C1.03758 2.46271 0.726318 2.77397 0.726318 3.15788V5.7502C0.726318 6.13411 1.03758 6.44538 1.4215 6.44538H6.36189C7.94388 6.44538 9.15772 7.02226 9.89397 8.02412H1.4215C1.03758 8.02412 0.726318 8.33539 0.726318 8.7193V11.0366C0.726318 11.4205 1.03758 11.7317 1.4215 11.7317H10.6185C10.2584 13.8222 8.70904 15.1284 6.28773 15.1284H1.4215C1.03758 15.1284 0.726318 15.4396 0.726318 15.8235V18.8946C0.726318 19.0886 0.807422 19.2738 0.949992 19.4054L10.5117 28.2316C10.6401 28.3502 10.8084 28.416 10.9832 28.416H15.7661C16.399 28.416 16.7026 27.6392 16.2376 27.21L7.49682 19.1415C11.9285 19.006 15.0942 16.0483 15.5098 11.7317H18.5692C18.9531 11.7317 19.2644 11.4205 19.2644 11.0366V8.7193C19.2644 8.33539 18.9531 8.02412 18.5692 8.02412H15.1692C14.9673 7.35554 14.6895 6.73538 14.3436 6.17032H18.5692Z" fill="black"/>
</g>
<defs>
<clipPath id="clip0_201_4535">
<rect width="18.5381" height="29.6609" fill="white" transform="translate(0.726318 0.608887)"/>
</clipPath>
</defs>
</svg>
