<svg width="29" height="31" viewBox="0 0 29 31" fill="none" xmlns="http://www.w3.org/2000/svg">
<g clip-path="url(#clip0_201_4533)">
<path d="M14.5292 1.07237C6.59262 1.07237 0.162231 7.50276 0.162231 15.4394C0.162231 20.659 2.95453 25.2124 7.114 27.7266V17.2932C7.114 16.7834 7.53111 16.3663 8.04091 16.3663C8.5507 16.3663 8.96781 16.7834 8.96781 17.2932V28.6883C10.6768 29.4066 12.5596 29.8064 14.5292 29.8064C16.4989 29.8064 18.3817 29.4066 20.0906 28.6883V17.2932C20.0906 16.7834 20.5077 16.3663 21.0175 16.3663C21.5273 16.3663 21.9444 16.7834 21.9444 17.2932V27.7266C26.1039 25.2124 28.8962 20.6532 28.8962 15.4394C28.8962 7.50276 22.4658 1.07237 14.5292 1.07237ZM10.7347 13.6145C9.87733 12.8498 8.05828 12.8498 7.2009 13.6145L6.65055 14.1069C6.43041 14.2981 6.11179 14.3387 5.85689 14.1996C5.60199 14.0606 5.45716 13.7709 5.50351 13.4813C5.73523 12.0214 7.48476 11.0424 8.9736 11.0424C10.4624 11.0424 12.212 12.0214 12.4437 13.4813C12.49 13.7709 12.3452 14.0606 12.0903 14.1996C11.7543 14.3792 11.4415 14.2402 11.2967 14.1069L10.7347 13.6145ZM14.5292 24.7084C12.994 24.7084 11.7485 23.0458 11.7485 21.0008C11.7485 18.9558 12.994 17.2932 14.5292 17.2932C16.0644 17.2932 17.3099 18.9558 17.3099 21.0008C17.3099 23.0458 16.0644 24.7084 14.5292 24.7084ZM23.2074 14.1938C22.8713 14.3734 22.5585 14.2344 22.4137 14.1011L21.8633 13.6087C21.006 12.844 19.1869 12.844 18.3295 13.6087L17.7734 14.1069C17.5532 14.2981 17.2346 14.3387 16.9797 14.1996C16.7248 14.0606 16.58 13.7709 16.6263 13.4813C16.8581 12.0214 18.6076 11.0424 20.0964 11.0424C21.5853 11.0424 23.3348 12.0214 23.5665 13.4813C23.6013 13.7651 23.4622 14.0548 23.2074 14.1938Z" fill="black"/>
</g>
<defs>
<clipPath id="clip0_201_4533">
<rect width="28.734" height="29.6609" fill="white" transform="translate(0.162354 0.608887)"/>
</clipPath>
</defs>
</svg>
