<svg width="30" height="31" viewBox="0 0 30 31" fill="none" xmlns="http://www.w3.org/2000/svg">
<g clip-path="url(#clip0_201_4531)">
<path d="M14.9655 1.07237C7.0289 1.07237 0.598511 7.50276 0.598511 15.4394C0.598511 23.376 7.0289 29.8064 14.9655 29.8064C22.9021 29.8064 29.3325 23.376 29.3325 15.4394C29.3325 7.50276 22.9021 1.07237 14.9655 1.07237ZM19.6 10.8048C20.6254 10.8048 21.4538 11.6333 21.4538 12.6587C21.4538 13.684 20.6254 14.5125 19.6 14.5125C18.5746 14.5125 17.7462 13.684 17.7462 12.6587C17.7462 11.6333 18.5746 10.8048 19.6 10.8048ZM9.40409 24.7084C7.8689 24.7084 6.62338 23.4918 6.62338 21.9856C6.62338 20.827 8.27443 18.4866 9.03333 17.4785C9.21871 17.2294 9.58947 17.2294 9.77485 17.4785C10.5338 18.4866 12.1848 20.827 12.1848 21.9856C12.1848 23.4918 10.9393 24.7084 9.40409 24.7084ZM10.331 14.5125C9.3056 14.5125 8.47718 13.684 8.47718 12.6587C8.47718 11.6333 9.3056 10.8048 10.331 10.8048C11.3564 10.8048 12.1848 11.6333 12.1848 12.6587C12.1848 13.684 11.3564 14.5125 10.331 14.5125ZM20.1909 23.4455C18.8933 21.8929 16.9873 21.0008 14.9655 21.0008C13.7374 21.0008 13.7374 19.147 14.9655 19.147C17.5377 19.147 19.965 20.2824 21.6102 22.2637C22.4097 23.2138 20.9614 24.3782 20.1909 23.4455Z" fill="black"/>
</g>
<defs>
<clipPath id="clip0_201_4531">
<rect width="28.734" height="29.6609" fill="white" transform="translate(0.598389 0.608887)"/>
</clipPath>
</defs>
</svg>
