<svg width="31" height="31" viewBox="0 0 31 31" fill="none" xmlns="http://www.w3.org/2000/svg">
<g clip-path="url(#clip0_201_4527)">
<path d="M29.7335 18.5701L24.1313 24.173C23.7851 24.518 23.3163 24.7117 22.8276 24.7117C22.3389 24.7117 21.8701 24.518 21.5239 24.173L16.8705 19.5143L16.2974 20.0883C16.9977 21.6306 17.3336 23.3133 17.2793 25.0062C17.225 26.6991 16.7819 28.3569 15.9842 29.8511C15.7235 30.3435 15.0345 30.4069 14.6398 30.0131L8.41108 23.7846L7.37991 24.8158C7.42065 24.967 7.47316 25.1055 7.47316 25.2675C7.47317 25.6342 7.36444 25.9927 7.16072 26.2976C6.95699 26.6026 6.66742 26.8402 6.32862 26.9806C5.98983 27.1209 5.61703 27.1576 5.25736 27.0861C4.89769 27.0146 4.56731 26.838 4.308 26.5787C4.04869 26.3194 3.8721 25.989 3.80055 25.6293C3.729 25.2697 3.76572 24.8969 3.90605 24.5581C4.04638 24.2193 4.28403 23.9297 4.58894 23.7259C4.89385 23.5222 5.25233 23.4135 5.61904 23.4135C5.78109 23.4135 5.91961 23.466 6.0708 23.5067L7.10197 22.4756L0.873287 16.2471C0.479469 15.8524 0.542841 15.1689 1.03534 14.9027C2.52962 14.1051 4.1874 13.662 5.88037 13.6077C7.57334 13.5533 9.25611 13.8893 10.7984 14.5895L11.3661 14.0219L6.71359 9.36319C6.3687 9.01589 6.17514 8.5463 6.17514 8.05684C6.17514 7.56739 6.3687 7.09779 6.71359 6.75049L12.3167 1.14758C12.4876 0.976111 12.6908 0.840219 12.9146 0.747763C13.1384 0.655307 13.3783 0.608119 13.6204 0.608927C14.1108 0.608237 14.5815 0.801927 14.9295 1.14758L19.5829 5.79993L22.3523 3.02518C22.7174 2.66041 23.2123 2.45552 23.7284 2.45552C24.2445 2.45552 24.7394 2.66041 25.1045 3.02518L27.8567 5.77729C28.2211 6.14255 28.4257 6.63742 28.4257 7.15335C28.4257 7.66928 28.2211 8.16415 27.8567 8.52941L25.0873 11.3042L29.7398 15.9628C29.9108 16.1343 30.0463 16.3378 30.1386 16.5618C30.2309 16.7857 30.278 17.0256 30.2775 17.2678C30.2769 17.51 30.2285 17.7497 30.1352 17.9731C30.0418 18.1966 29.9053 18.3995 29.7335 18.5701ZM13.3361 12.0465L17.6129 7.76986L13.6204 3.77838L9.34448 8.05412L13.3361 12.0465ZM27.1089 17.2665L23.1173 13.2741L18.8405 17.5507L22.833 21.5422L27.1089 17.2665Z" fill="black"/>
</g>
<defs>
<clipPath id="clip0_201_4527">
<rect width="29.6609" height="29.6609" fill="white" transform="translate(0.616577 0.608887)"/>
</clipPath>
</defs>
</svg>
