<svg width="30" height="31" viewBox="0 0 30 31" fill="none" xmlns="http://www.w3.org/2000/svg">
<g clip-path="url(#clip0_201_4529)">
<path d="M17.8024 27.4074C18.2306 27.8302 18.1609 28.5716 17.6286 28.8559C13.1266 31.2776 7.39065 30.5887 3.58932 26.7873C-0.211105 22.9868 -0.900939 17.2562 1.52163 12.7487C1.80498 12.2218 2.54642 12.1521 2.9701 12.5749L9.73717 19.342L11.3241 17.755C11.2843 17.6038 11.2318 17.4653 11.2318 17.3024C11.2318 16.9357 11.3406 16.5772 11.5443 16.2723C11.748 15.9674 12.0376 15.7298 12.3764 15.5895C12.7151 15.4492 13.0879 15.4125 13.4476 15.484C13.8072 15.5555 14.1376 15.7321 14.3969 15.9914C14.6561 16.2507 14.8327 16.5811 14.9043 16.9407C14.9758 17.3004 14.9391 17.6731 14.7988 18.0119C14.6584 18.3507 14.4208 18.6403 14.1159 18.844C13.811 19.0477 13.4525 19.1564 13.0858 19.1564C12.9238 19.1564 12.7844 19.1048 12.6341 19.0641L11.0462 20.652L17.8024 27.4074ZM29.7668 18.166C29.7739 18.2924 29.7551 18.4188 29.7118 18.5377C29.6685 18.6566 29.6014 18.7654 29.5147 18.8575C29.428 18.9496 29.3234 19.0232 29.2074 19.0736C29.0914 19.1241 28.9663 19.1504 28.8398 19.151H26.9794C26.7442 19.1503 26.5181 19.0601 26.3471 18.8986C26.1761 18.7372 26.073 18.5167 26.0587 18.2819C25.6242 10.7787 19.5985 4.69507 12.1009 4.28949C11.8654 4.27695 11.6437 4.17423 11.4819 4.00263C11.3201 3.83104 11.2305 3.60374 11.2318 3.36789V1.53736C11.2323 1.41081 11.2586 1.2857 11.309 1.16963C11.3595 1.05357 11.433 0.948986 11.5251 0.862255C11.6173 0.775523 11.7261 0.708459 11.845 0.665147C11.9639 0.621836 12.0904 0.603183 12.2168 0.610325C21.6726 1.10824 29.2743 8.71011 29.7668 18.166ZM24.2047 18.1488C24.2133 18.2769 24.1956 18.4053 24.1526 18.5263C24.1096 18.6472 24.0424 18.758 23.9549 18.8519C23.8674 18.9459 23.7617 19.0208 23.6441 19.0723C23.5265 19.1237 23.3996 19.1505 23.2713 19.151H21.4055C21.1735 19.1493 20.9504 19.061 20.7801 18.9034C20.6098 18.7458 20.5045 18.5303 20.4848 18.2991C20.0847 13.8378 16.5386 10.2518 12.0891 9.8861C11.8563 9.86939 11.6385 9.76514 11.4794 9.59433C11.3204 9.42351 11.2319 9.19881 11.2318 8.9654V7.105C11.2318 6.97655 11.2582 6.84947 11.3095 6.7317C11.3608 6.61393 11.4358 6.50798 11.5298 6.42049C11.6238 6.33299 11.7349 6.26581 11.856 6.22315C11.9772 6.18049 12.1059 6.16326 12.234 6.17253C18.6136 6.66502 23.7176 11.7691 24.2047 18.1488Z" fill="black"/>
</g>
<defs>
<clipPath id="clip0_201_4529">
<rect width="29.6609" height="29.6609" fill="white" transform="translate(0.107422 0.608887)"/>
</clipPath>
</defs>
</svg>
