<svg width="27" height="31" viewBox="0 0 27 31" fill="none" xmlns="http://www.w3.org/2000/svg">
<g clip-path="url(#clip0_201_4525)">
<path d="M25.9721 8.13656L21.1127 3.27716C20.5912 2.75568 19.8839 2.46271 19.1464 2.4627H3.61396C2.0782 2.4627 0.833252 3.70765 0.833252 5.24341V25.6353C0.833252 27.171 2.0782 28.416 3.61396 28.416H24.0058C25.5416 28.416 26.7865 27.171 26.7865 25.6353V10.1028C26.7865 9.36533 26.4936 8.65805 25.9721 8.13656ZM13.8099 24.7084C11.7622 24.7084 10.1023 23.0484 10.1023 21.0008C10.1023 18.9531 11.7622 17.2931 13.8099 17.2931C15.8575 17.2931 17.5175 18.9531 17.5175 21.0008C17.5175 23.0484 15.8575 24.7084 13.8099 24.7084ZM19.3713 7.06709V12.8904C19.3713 13.2743 19.06 13.5855 18.6761 13.5855H5.23604C4.85213 13.5855 4.54086 13.2743 4.54086 12.8904V6.86549C4.54086 6.48158 4.85213 6.17031 5.23604 6.17031H18.4745C18.6589 6.17031 18.8357 6.24354 18.9661 6.37394L19.1677 6.57555C19.2322 6.64009 19.2835 6.71672 19.3184 6.80106C19.3533 6.8854 19.3713 6.9758 19.3713 7.06709Z" fill="black"/>
</g>
<defs>
<clipPath id="clip0_201_4525">
<rect width="25.9533" height="29.6609" fill="white" transform="translate(0.833252 0.608887)"/>
</clipPath>
</defs>
</svg>
