<svg width="38" height="31" viewBox="0 0 38 31" fill="none" xmlns="http://www.w3.org/2000/svg">
<g clip-path="url(#clip0_201_4523)">
<path d="M0.927246 13.5856V29.3429C0.927246 29.855 1.34204 30.2698 1.85415 30.2698H6.48866V11.7318H2.78105C1.7574 11.7318 0.927246 12.5619 0.927246 13.5856ZM21.7826 10.8049H20.3922V8.4876C20.3922 8.23154 20.1848 8.02414 19.9288 8.02414H19.0019C18.7458 8.02414 18.5384 8.23154 18.5384 8.4876V12.1952C18.5384 12.4513 18.7458 12.6587 19.0019 12.6587H21.7826C22.0386 12.6587 22.246 12.4513 22.246 12.1952V11.2683C22.246 11.0122 22.0386 10.8049 21.7826 10.8049ZM29.7626 7.09956L20.4936 0.920014C20.189 0.717156 19.8312 0.608917 19.4653 0.608917C19.0994 0.608917 18.7416 0.717156 18.437 0.920014L9.16799 7.09956C8.91411 7.26882 8.70593 7.49813 8.56192 7.76715C8.41791 8.03616 8.34253 8.33656 8.34247 8.64169V30.2698H15.7577V21.9277C15.7577 21.4156 16.1725 21.0008 16.6846 21.0008H22.246C22.7581 21.0008 23.1729 21.4156 23.1729 21.9277V30.2698H30.5881V8.64227C30.5881 8.02241 30.2782 7.44309 29.7626 7.09956ZM19.4653 15.4394C16.9059 15.4394 14.8308 13.3643 14.8308 10.8049C14.8308 8.24544 16.9059 6.17034 19.4653 6.17034C22.0247 6.17034 24.0998 8.24544 24.0998 10.8049C24.0998 13.3643 22.0247 15.4394 19.4653 15.4394ZM36.1496 11.7318H32.4419V30.2698H37.0765C37.5886 30.2698 38.0034 29.855 38.0034 29.3429V13.5856C38.0034 12.5619 37.1732 11.7318 36.1496 11.7318Z" fill="black"/>
</g>
<defs>
<clipPath id="clip0_201_4523">
<rect width="37.0761" height="29.6609" fill="white" transform="translate(0.927246 0.608887)"/>
</clipPath>
</defs>
</svg>
