<svg width="31" height="31" viewBox="0 0 31 31" fill="none" xmlns="http://www.w3.org/2000/svg">
<g clip-path="url(#clip0_201_4521)">
<path d="M26.3902 0.608921L18.975 6.17034V9.76556L14.165 14.5756C14.5583 14.8218 14.9337 15.1005 15.2697 15.437C15.6057 15.7731 15.8849 16.1484 16.1311 16.5418L20.9412 11.7318H24.5364L30.0978 4.31653L26.3902 0.608921ZM7.85217 16.748L1.06955 23.5306C0.226652 24.3736 0.226652 25.7407 1.06955 26.5842L4.12254 29.6372C4.96602 30.4807 6.33262 30.4807 7.17611 29.6372L13.9587 22.8546C15.6451 21.1682 15.6451 18.4344 13.9587 16.748C12.2723 15.0617 9.53855 15.0617 7.85217 16.748Z" fill="black"/>
</g>
<defs>
<clipPath id="clip0_201_4521">
<rect width="29.6609" height="29.6609" fill="white" transform="translate(0.436279 0.608887)"/>
</clipPath>
</defs>
</svg>
