<svg width="31" height="31" viewBox="0 0 31 31" fill="none" xmlns="http://www.w3.org/2000/svg">
<g clip-path="url(#clip0_201_4509)">
<path d="M18.1021 11.7318V13.5856C18.1021 13.9679 17.7893 14.2807 17.4069 14.2807H14.1628V17.5249C14.1628 17.9072 13.85 18.2201 13.4676 18.2201H11.6138C11.2315 18.2201 10.9186 17.9072 10.9186 17.5249V14.2807H7.67446C7.29212 14.2807 6.97929 13.9679 6.97929 13.5856V11.7318C6.97929 11.3494 7.29212 11.0366 7.67446 11.0366H10.9186V7.79241C10.9186 7.41007 11.2315 7.09724 11.6138 7.09724H13.4676C13.85 7.09724 14.1628 7.41007 14.1628 7.79241V11.0366H17.4069C17.7893 11.0366 18.1021 11.3494 18.1021 11.7318ZM29.7463 28.2248L28.1069 29.8643C27.5623 30.4088 26.6818 30.4088 26.143 29.8643L20.3614 24.0885C20.1008 23.8278 19.9559 23.4745 19.9559 23.1037V22.1594C17.9109 23.7583 15.3388 24.7084 12.5407 24.7084C5.88438 24.7084 0.490967 19.315 0.490967 12.6587C0.490967 6.00233 5.88438 0.608917 12.5407 0.608917C19.197 0.608917 24.5904 6.00233 24.5904 12.6587C24.5904 15.4567 23.6404 18.0289 22.0415 20.0739H22.9857C23.3565 20.0739 23.7099 20.2187 23.9706 20.4794L29.7463 26.2552C30.2851 26.7997 30.2851 27.6803 29.7463 28.2248ZM20.4194 12.6587C20.4194 8.30221 16.8971 4.77998 12.5407 4.77998C8.18426 4.77998 4.66203 8.30221 4.66203 12.6587C4.66203 17.0151 8.18426 20.5373 12.5407 20.5373C16.8971 20.5373 20.4194 17.0151 20.4194 12.6587Z" fill="black"/>
</g>
<defs>
<clipPath id="clip0_201_4509">
<rect width="29.6609" height="29.6609" fill="white" transform="translate(0.490967 0.608887)"/>
</clipPath>
</defs>
</svg>
