<svg width="31" height="31" viewBox="0 0 31 31" fill="none" xmlns="http://www.w3.org/2000/svg">
<g clip-path="url(#clip0_201_4513)">
<path d="M29.7303 26.2528L23.954 20.4776C23.6933 20.2169 23.3399 20.0721 22.9692 20.0721H22.0249C23.6238 18.0271 24.5739 15.4555 24.5739 12.6575C24.5739 6.00172 19.1799 0.608882 12.5236 0.608882C5.86723 0.608882 0.472656 6.00172 0.472656 12.6575C0.472656 19.3132 5.86665 24.706 12.5236 24.706C15.3216 24.706 17.8944 23.756 19.9394 22.1571V23.1013C19.9394 23.4721 20.0842 23.8255 20.3449 24.0862L26.1212 29.8614C26.6658 30.4059 27.5463 30.4059 28.0851 29.8614L29.7245 28.2219C30.2691 27.6773 30.2691 26.7974 29.7303 26.2528ZM12.5236 20.9984C7.91569 20.9984 4.18143 17.2711 4.18143 12.6575C4.18143 8.05017 7.90931 4.31649 12.5236 4.31649C17.1314 4.31649 20.8657 8.0438 20.8657 12.6575C20.8657 17.2647 17.1378 20.9984 12.5236 20.9984ZM12.5247 7.0972C10.1623 7.0972 8.24705 9.01184 8.24705 11.3743C8.24705 13.2837 11.0428 16.7648 12.114 18.0283C12.1642 18.0884 12.227 18.1367 12.298 18.1699C12.369 18.2031 12.4464 18.2203 12.5247 18.2203C12.6031 18.2203 12.6804 18.2031 12.7514 18.1699C12.8224 18.1367 12.8852 18.0884 12.9354 18.0283C14.0066 16.7648 16.8024 13.2843 16.8024 11.3743C16.8024 9.01184 14.8872 7.0972 12.5247 7.0972ZM12.5247 12.6586C11.7565 12.6586 11.1344 12.0359 11.1344 11.2683C11.1344 10.5001 11.7571 9.87791 12.5247 9.87791C13.2923 9.87791 13.9151 10.5001 13.9151 11.2683C13.9151 12.0359 13.2923 12.6586 12.5247 12.6586Z" fill="black"/>
</g>
<defs>
<clipPath id="clip0_201_4513">
<rect width="29.6609" height="29.6609" fill="white" transform="translate(0.472656 0.608887)"/>
</clipPath>
</defs>
</svg>
