<svg width="31" height="31" viewBox="0 0 31 31" fill="none" xmlns="http://www.w3.org/2000/svg">
<g clip-path="url(#clip0_201_4515)">
<path d="M30.2223 26.2528L24.4459 20.4776C24.1853 20.217 23.8319 20.0721 23.4611 20.0721H22.5168C24.1157 18.0271 25.0658 15.4556 25.0658 12.6575C25.0658 6.00174 19.6718 0.608902 13.0155 0.608902C6.35917 0.608902 0.9646 6.00174 0.9646 12.6575C0.9646 19.3132 6.35859 24.7061 13.0155 24.7061C15.8136 24.7061 18.3863 23.756 20.4313 22.1571V23.1014C20.4313 23.4721 20.5761 23.8255 20.8368 24.0862L26.6132 29.8614C27.1577 30.4059 28.0383 30.4059 28.577 29.8614L30.2165 28.2219C30.761 27.6774 30.761 26.7974 30.2223 26.2528ZM13.0155 20.9984C8.40763 20.9984 4.67337 17.2711 4.67337 12.6575C4.67337 8.05019 8.40126 4.31651 13.0155 4.31651C17.6234 4.31651 21.3576 8.04382 21.3576 12.6575C21.3576 17.2648 17.6297 20.9984 13.0155 20.9984ZM14.586 12.1616L11.9785 11.3795C11.6796 11.2897 11.4705 10.9867 11.4705 10.642C11.4705 10.2209 11.7775 9.87793 12.1541 9.87793H13.7825C14.0467 9.87793 14.3016 9.95266 14.5252 10.0934C14.7129 10.211 14.9516 10.2041 15.112 10.0511L15.7927 9.40173C15.9972 9.2065 15.9856 8.86819 15.7597 8.69845C15.2325 8.30277 14.5964 8.07452 13.9424 8.04092V7.09722C13.9424 6.84116 13.735 6.63377 13.4789 6.63377H12.552C12.296 6.63377 12.0886 6.84116 12.0886 7.09722V8.03108C10.7197 8.06757 9.61608 9.22157 9.61608 10.642C9.61608 11.7989 10.3686 12.8324 11.4456 13.1557L14.053 13.9378C14.352 14.0276 14.5611 14.3305 14.5611 14.6752C14.5611 15.0964 14.2541 15.4393 13.8775 15.4393H12.2496C11.9855 15.4393 11.7306 15.3646 11.507 15.2238C11.3193 15.1062 11.0806 15.1132 10.9201 15.2661L10.2394 15.9155C10.0349 16.1108 10.0465 16.4491 10.2724 16.6188C10.7996 17.0145 11.4357 17.2428 12.0897 17.2764V18.2201C12.0897 18.4761 12.2971 18.6835 12.5532 18.6835H13.4801C13.7362 18.6835 13.9436 18.4761 13.9436 18.2201V17.2862C15.3125 17.2497 16.4161 16.0963 16.4161 14.6752C16.4161 13.5183 15.6635 12.4848 14.586 12.1616Z" fill="black"/>
</g>
<defs>
<clipPath id="clip0_201_4515">
<rect width="29.6609" height="29.6609" fill="white" transform="translate(0.963623 0.608887)"/>
</clipPath>
</defs>
</svg>
