<svg width="31" height="31" viewBox="0 0 31 31" fill="none" xmlns="http://www.w3.org/2000/svg">
<g clip-path="url(#clip0_201_4501)">
<path d="M8.36664 15.7785C6.90005 15.7785 5.46639 16.2134 4.24696 17.0281C3.02754 17.8429 2.07711 19.001 1.51587 20.356C0.954629 21.711 0.807783 23.2019 1.0939 24.6403C1.38002 26.0787 2.08625 27.4 3.12329 28.437C4.16033 29.4741 5.48159 30.1803 6.92 30.4664C8.35842 30.7525 9.84937 30.6057 11.2043 30.0445C12.5593 29.4832 13.7174 28.5328 14.5322 27.3134C15.347 26.0939 15.7819 24.6603 15.7819 23.1937C15.7819 21.227 15.0006 19.3409 13.61 17.9503C12.2194 16.5597 10.3333 15.7785 8.36664 15.7785ZM30.3227 12.6003L24.128 2.00758C23.9371 1.68477 23.6654 1.41729 23.3396 1.23148C23.0138 1.04567 22.6452 0.947952 22.2702 0.947952C21.8951 0.947952 21.5266 1.04567 21.2008 1.23148C20.875 1.41729 20.6033 1.68477 20.4123 2.00758L14.2177 12.6003C13.3928 14.0127 14.4251 15.7785 16.0767 15.7785H28.4636C30.1153 15.7785 31.1476 14.0127 30.3227 12.6003ZM28.7585 17.6323H19.4895C18.9978 17.6323 18.5263 17.8276 18.1786 18.1752C17.831 18.5229 17.6357 18.9944 17.6357 19.4861V28.7551C17.6357 29.2468 17.831 29.7183 18.1786 30.0659C18.5263 30.4136 18.9978 30.6089 19.4895 30.6089H28.7585C29.2502 30.6089 29.7217 30.4136 30.0693 30.0659C30.417 29.7183 30.6123 29.2468 30.6123 28.7551V19.4861C30.6123 18.9944 30.417 18.5229 30.0693 18.1752C29.7217 17.8276 29.2502 17.6323 28.7585 17.6323Z" fill="black"/>
</g>
<defs>
<clipPath id="clip0_201_4501">
<rect width="29.6609" height="29.6609" fill="white" transform="translate(0.951416 0.947998)"/>
</clipPath>
</defs>
</svg>
