<svg width="27" height="31" viewBox="0 0 27 31" fill="none" xmlns="http://www.w3.org/2000/svg">
<g clip-path="url(#clip0_201_4497)">
<path d="M20.7766 19.4861C19.4669 19.4861 18.2632 19.939 17.3129 20.6965L11.3757 16.9858C11.5516 16.1905 11.5516 15.3664 11.3757 14.571L17.3129 10.8603C18.2632 11.6179 19.4669 12.0708 20.7766 12.0708C23.8481 12.0708 26.338 9.58088 26.338 6.50941C26.338 3.43795 23.8481 0.947998 20.7766 0.947998C17.7052 0.947998 15.2152 3.43795 15.2152 6.50941C15.2152 6.92409 15.261 7.32799 15.3471 7.71676L9.4099 11.4275C8.45965 10.67 7.2559 10.217 5.94618 10.217C2.87472 10.217 0.384766 12.707 0.384766 15.7784C0.384766 18.8499 2.87472 21.3399 5.94618 21.3399C7.2559 21.3399 8.45965 20.8869 9.4099 20.1294L15.3471 23.8401C15.2593 24.2366 15.2151 24.6414 15.2152 25.0475C15.2152 28.1189 17.7052 30.6089 20.7766 30.6089C23.8481 30.6089 26.338 28.1189 26.338 25.0475C26.338 21.976 23.8481 19.4861 20.7766 19.4861Z" fill="black"/>
</g>
<defs>
<clipPath id="clip0_201_4497">
<rect width="25.9533" height="29.6609" fill="white" transform="translate(0.384766 0.947998)"/>
</clipPath>
</defs>
</svg>
