<svg width="27" height="31" viewBox="0 0 27 31" fill="none" xmlns="http://www.w3.org/2000/svg">
<g clip-path="url(#clip0_201_4499)">
<path d="M26.1214 5.58253V25.9744C26.1214 27.5102 24.8764 28.7551 23.3407 28.7551H2.9488C1.41304 28.7551 0.168091 27.5102 0.168091 25.9744V5.58253C0.168091 4.04677 1.41304 2.80182 2.9488 2.80182H23.3407C24.8764 2.80182 26.1214 4.04677 26.1214 5.58253ZM17.7792 18.0957C16.9356 18.0957 16.1674 18.4179 15.5904 18.9456L11.6535 16.5835C11.788 16.0552 11.788 15.5017 11.6535 14.9734L15.5904 12.6112C16.1674 13.139 16.9356 13.4612 17.7792 13.4612C19.5709 13.4612 21.0234 12.0087 21.0234 10.217C21.0234 8.42534 19.5709 6.97288 17.7792 6.97288C15.9875 6.97288 14.5351 8.42534 14.5351 10.217C14.5351 10.4949 14.5701 10.7647 14.6359 11.0221L10.699 13.3843C10.122 12.8565 9.35381 12.5343 8.51022 12.5343C6.71851 12.5343 5.26606 13.9868 5.26606 15.7785C5.26606 17.5702 6.71851 19.0226 8.51022 19.0226C9.35381 19.0226 10.122 18.7005 10.699 18.1727L14.6359 20.5349C14.5688 20.798 14.535 21.0684 14.5351 21.3399C14.5351 23.1316 15.9876 24.5841 17.7793 24.5841C19.571 24.5841 21.0235 23.1316 21.0235 21.3399C21.0234 19.5482 19.5709 18.0957 17.7792 18.0957Z" fill="black"/>
</g>
<defs>
<clipPath id="clip0_201_4499">
<rect width="25.9533" height="29.6609" fill="white" transform="translate(0.167969 0.947998)"/>
</clipPath>
</defs>
</svg>
