<svg width="34" height="31" viewBox="0 0 34 31" fill="none" xmlns="http://www.w3.org/2000/svg">
<g clip-path="url(#clip0_201_4495)">
<path d="M33.1193 11.2278L24.777 19.1056C23.8976 19.9361 22.4319 19.3204 22.4319 18.0948V13.9259C14.0565 13.9821 10.5232 15.9601 12.8863 23.8526C13.146 24.7201 12.1421 25.3917 11.4377 24.8566C9.18025 23.1418 7.13805 19.8619 7.13805 16.5512C7.13805 8.21273 13.9507 6.55803 22.4319 6.51099V2.33906C22.4319 1.11242 23.8986 0.498695 24.777 1.32827L33.1193 9.20625C33.6997 9.75446 33.7002 10.6792 33.1193 11.2278ZM22.4319 22.9114V26.9013H3.89389V8.36323H6.84353C6.93714 8.36317 7.02978 8.34419 7.11587 8.30743C7.20196 8.27066 7.27974 8.21687 7.34452 8.14929C8.21077 7.24742 9.21205 6.53359 10.2998 5.96667C10.9446 5.63061 10.7057 4.65562 9.9786 4.65562H2.96699C1.43123 4.65562 0.186279 5.90057 0.186279 7.43633V27.8282C0.186279 29.364 1.43123 30.6089 2.96699 30.6089H23.3588C24.8946 30.6089 26.1396 29.364 26.1396 27.8282V22.6835C26.1396 22.2034 25.6647 21.8687 25.212 22.0288C24.5774 22.2533 23.8977 22.3204 23.2314 22.2244C22.8102 22.1638 22.4319 22.4859 22.4319 22.9114Z" fill="black"/>
</g>
<defs>
<clipPath id="clip0_201_4495">
<rect width="33.3685" height="29.6609" fill="white" transform="translate(0.186279 0.947998)"/>
</clipPath>
</defs>
</svg>
