<svg width="27" height="31" viewBox="0 0 27 31" fill="none" xmlns="http://www.w3.org/2000/svg">
<g clip-path="url(#clip0_201_4491)">
<path d="M15.2791 10.6805V20.413C15.2791 20.9251 15.6939 21.3399 16.206 21.3399H18.9867C19.4988 21.3399 19.9136 20.9251 19.9136 20.413V10.6805C19.9136 6.32926 16.3862 2.80182 12.0349 2.80182H2.30246C1.53487 2.80182 0.912109 3.424 0.912109 4.19217V27.8282C0.912109 28.3403 1.3269 28.7551 1.83901 28.7551H4.61972C5.13183 28.7551 5.54662 28.3403 5.54662 27.8282V7.43633H12.0349C13.8268 7.43633 15.2791 8.88867 15.2791 10.6805ZM25.9385 2.80182H23.1578C22.6457 2.80182 22.2309 3.21661 22.2309 3.72872V20.8764C22.2309 22.6682 20.7785 24.1206 18.9867 24.1206H12.4984V11.1439C12.4984 10.6318 12.0836 10.217 11.5715 10.217H8.79078C8.27867 10.217 7.86388 10.6318 7.86388 11.1439V27.3647C7.86388 28.1323 8.48664 28.7551 9.25423 28.7551H18.9867C23.3379 28.7551 26.8654 25.2277 26.8654 20.8764V3.72872C26.8654 3.21661 26.4506 2.80182 25.9385 2.80182Z" fill="black"/>
</g>
<defs>
<clipPath id="clip0_201_4491">
<rect width="25.9533" height="29.6609" fill="white" transform="translate(0.912109 0.947998)"/>
</clipPath>
</defs>
</svg>
