<svg width="31" height="31" viewBox="0 0 31 31" fill="none" xmlns="http://www.w3.org/2000/svg">
<g clip-path="url(#clip0_201_4489)">
<path d="M27.4461 5.79685L16.3233 1.16234C15.9845 1.02179 15.6213 0.94944 15.2545 0.94944C14.8876 0.94944 14.5244 1.02179 14.1856 1.16234L3.06279 5.79685C2.02582 6.22555 1.34802 7.23935 1.34802 8.36322C1.34802 19.8626 7.98117 27.8108 14.1798 30.3945C14.8634 30.6784 15.6339 30.6784 16.3175 30.3945C21.2822 28.3264 29.1551 21.1834 29.1551 8.36322C29.1551 7.23935 28.4773 6.22555 27.4461 5.79685ZM15.2574 26.8028L15.2516 4.73092L25.4417 8.97729C25.2505 17.7481 20.6855 24.1032 15.2574 26.8028Z" fill="black"/>
</g>
<defs>
<clipPath id="clip0_201_4489">
<rect width="29.6609" height="29.6609" fill="white" transform="translate(0.421265 0.947998)"/>
</clipPath>
</defs>
</svg>
