<svg width="38" height="31" viewBox="0 0 38 31" fill="none" xmlns="http://www.w3.org/2000/svg">
<g clip-path="url(#clip0_201_4483)">
<path d="M36.2674 21.3399H35.3405V15.0775C35.3405 14.3417 35.045 13.635 34.5236 13.1136L28.7363 7.32625C28.2149 6.80486 27.5081 6.50941 26.7724 6.50941H24.2176V3.72871C24.2176 2.19352 22.9721 0.947998 21.4369 0.947998H6.60648C5.0713 0.947998 3.82578 2.19352 3.82578 3.72871V6.50941H0.581615C0.326717 6.50941 0.118164 6.71797 0.118164 6.97287V7.89977C0.118164 8.15467 0.326717 8.36322 0.581615 8.36322H16.339C16.5939 8.36322 16.8024 8.57177 16.8024 8.82667V9.75357C16.8024 10.0085 16.5939 10.217 16.339 10.217H2.43542C2.18052 10.217 1.97197 10.4256 1.97197 10.6805V11.6074C1.97197 11.8623 2.18052 12.0708 2.43542 12.0708H14.4852C14.7401 12.0708 14.9486 12.2794 14.9486 12.5343V13.4612C14.9486 13.7161 14.7401 13.9246 14.4852 13.9246H0.581615C0.326717 13.9246 0.118164 14.1332 0.118164 14.3881V15.315C0.118164 15.5699 0.326717 15.7784 0.581615 15.7784H12.6314C12.8862 15.7784 13.0948 15.987 13.0948 16.2419V17.1688C13.0948 17.4237 12.8862 17.6322 12.6314 17.6322H3.82578V25.0475C3.82578 28.1178 6.31683 30.6089 9.38719 30.6089C12.4576 30.6089 14.9486 28.1178 14.9486 25.0475H22.3638C22.3638 28.1178 24.8549 30.6089 27.9252 30.6089C30.9956 30.6089 33.4867 28.1178 33.4867 25.0475H36.2674C36.7772 25.0475 37.1943 24.6304 37.1943 24.1206V22.2668C37.1943 21.757 36.7772 21.3399 36.2674 21.3399ZM9.38719 27.8282C7.85201 27.8282 6.60648 26.5827 6.60648 25.0475C6.60648 23.5123 7.85201 22.2668 9.38719 22.2668C10.9224 22.2668 12.1679 23.5123 12.1679 25.0475C12.1679 26.5827 10.9224 27.8282 9.38719 27.8282ZM27.9252 27.8282C26.3901 27.8282 25.1445 26.5827 25.1445 25.0475C25.1445 23.5123 26.3901 22.2668 27.9252 22.2668C29.4604 22.2668 30.706 23.5123 30.706 25.0475C30.706 26.5827 29.4604 27.8282 27.9252 27.8282ZM32.5598 15.7784H24.2176V9.29012H26.7724L32.5598 15.0775V15.7784Z" fill="black"/>
</g>
<defs>
<clipPath id="clip0_201_4483">
<rect width="37.0761" height="29.6609" fill="white" transform="translate(0.118164 0.947998)"/>
</clipPath>
</defs>
</svg>
