<svg width="38" height="31" viewBox="0 0 38 31" fill="none" xmlns="http://www.w3.org/2000/svg">
<g clip-path="url(#clip0_201_4485)">
<path d="M28.794 22.5355L32.8499 18.4796C33.8288 17.5006 33.4258 15.828 32.1063 15.4039L29.6852 14.6257V6.50941C29.6852 5.48559 28.8552 4.65561 27.8314 4.65561H24.1238V2.33835C24.1238 1.57047 23.5013 0.947998 22.7334 0.947998H14.3913C13.6234 0.947998 13.0009 1.57047 13.0009 2.33835V4.65561H9.29332C8.2695 4.65561 7.43951 5.48559 7.43951 6.50941V14.6257L5.01844 15.4039C3.70033 15.8276 3.29475 17.4995 4.27484 18.4796L8.33073 22.5355C7.31369 25.0641 4.98247 26.9013 1.41465 26.9013C0.646765 26.9013 0.024292 27.5237 0.024292 28.2916V29.2185C0.024292 29.9864 0.646765 30.6089 1.41465 30.6089C4.9498 30.6089 7.64222 29.4149 9.71379 27.168C10.5491 29.1856 12.5387 30.6089 14.8547 30.6089H22.27C24.586 30.6089 26.5756 29.1856 27.4109 27.168C29.4821 29.4146 32.1744 30.6089 35.71 30.6089C36.4779 30.6089 37.1004 29.9864 37.1004 29.2185V28.2916C37.1004 27.5237 36.4779 26.9013 35.71 26.9013C32.1868 26.9013 29.8276 25.1053 28.794 22.5355ZM11.1471 8.36322H25.9776V13.434L19.1296 11.2329C18.7607 11.1143 18.364 11.1143 17.9951 11.2329L11.1471 13.434V8.36322Z" fill="black"/>
</g>
<defs>
<clipPath id="clip0_201_4485">
<rect width="37.0761" height="29.6609" fill="white" transform="translate(0.024292 0.947998)"/>
</clipPath>
</defs>
</svg>
