<svg width="38" height="31" viewBox="0 0 38 31" fill="none" xmlns="http://www.w3.org/2000/svg">
<g clip-path="url(#clip0_201_4481)">
<path d="M11.3349 10.217H13.1887V2.80179H11.3349C9.28699 2.80179 7.62726 4.46152 7.62726 6.5094C7.62726 8.55727 9.28699 10.217 11.3349 10.217ZM0.212036 25.0475C0.212036 27.0953 1.87177 28.7551 3.91965 28.7551H5.77345V21.3398H3.91965C1.87177 21.3398 0.212036 22.9996 0.212036 25.0475ZM19.7616 17.6322C17.7392 17.6322 15.3495 18.3923 13.6944 19.486C12.2583 20.435 11.1153 21.3398 7.62726 21.3398V28.7551L10.9601 29.6802C12.4784 30.102 14.031 30.4403 15.6125 30.5521C17.5063 30.6859 19.4128 30.5909 21.2655 30.1929C27.6078 28.8304 29.8729 25.8133 29.8729 23.1936C29.8729 19.486 24.9963 17.6322 19.7616 17.6322ZM28.6807 1.36451C26.8281 0.96652 24.9215 0.870933 23.0277 1.00533C21.4462 1.11714 19.8937 1.45546 18.3753 1.87662L15.0425 2.80179V10.217C18.53 10.217 19.6735 11.1219 21.1096 12.0708C22.7647 13.1646 25.1544 13.9246 27.1768 13.9246C32.4115 13.9246 37.2881 12.0708 37.2881 8.3632C37.2881 5.74355 35.023 2.72648 28.6807 1.36451Z" fill="black"/>
</g>
<defs>
<clipPath id="clip0_201_4481">
<rect width="37.0761" height="29.6609" fill="white" transform="translate(0.212036 0.947998)"/>
</clipPath>
</defs>
</svg>
