<svg width="34" height="31" viewBox="0 0 34 31" fill="none" xmlns="http://www.w3.org/2000/svg">
<g clip-path="url(#clip0_201_4477)">
<path d="M33.5987 13.4612V14.3881C33.5987 15.1559 32.9762 15.7784 32.2084 15.7784H31.7449L30.2322 26.3676C30.0365 27.7375 28.8632 28.7551 27.4794 28.7551H6.34952C4.96571 28.7551 3.79249 27.7375 3.59674 26.3676L2.08403 15.7784H1.62058C0.852698 15.7784 0.230225 15.1559 0.230225 14.3881V13.4612C0.230225 12.6933 0.852698 12.0708 1.62058 12.0708H5.52174L11.7077 3.56526C12.3099 2.7373 13.4692 2.55418 14.2972 3.15638C15.1253 3.75857 15.3083 4.91795 14.7061 5.74597L10.1062 12.0708H23.7227L19.1228 5.74591C18.5206 4.91795 18.7037 3.75851 19.5318 3.15632C20.3597 2.55412 21.5192 2.73718 22.1214 3.5652L28.3072 12.0708H32.2084C32.9762 12.0708 33.5987 12.6933 33.5987 13.4612ZM18.3048 23.6571V17.1688C18.3048 16.4009 17.6824 15.7784 16.9145 15.7784C16.1466 15.7784 15.5241 16.4009 15.5241 17.1688V23.6571C15.5241 24.425 16.1466 25.0474 16.9145 25.0474C17.6824 25.0474 18.3048 24.425 18.3048 23.6571ZM24.7931 23.6571V17.1688C24.7931 16.4009 24.1707 15.7784 23.4028 15.7784C22.6349 15.7784 22.0124 16.4009 22.0124 17.1688V23.6571C22.0124 24.425 22.6349 25.0474 23.4028 25.0474C24.1707 25.0474 24.7931 24.425 24.7931 23.6571ZM11.8165 23.6571V17.1688C11.8165 16.4009 11.194 15.7784 10.4262 15.7784C9.65827 15.7784 9.0358 16.4009 9.0358 17.1688V23.6571C9.0358 24.425 9.65827 25.0474 10.4262 25.0474C11.194 25.0474 11.8165 24.425 11.8165 23.6571Z" fill="black"/>
</g>
<defs>
<clipPath id="clip0_201_4477">
<rect width="33.3685" height="29.6609" fill="white" transform="translate(0.230225 0.947998)"/>
</clipPath>
</defs>
</svg>
