<svg width="27" height="31" viewBox="0 0 27 31" fill="none" xmlns="http://www.w3.org/2000/svg">
<g clip-path="url(#clip0_201_4479)">
<path d="M20.8207 10.2171V8.36328C20.8207 4.27448 17.4942 0.948059 13.4055 0.948059C9.31667 0.948059 5.99025 4.27448 5.99025 8.36328V10.2171H0.428833V25.9744C0.428833 28.534 2.50376 30.6089 5.06335 30.6089H21.7476C24.3072 30.6089 26.3821 28.534 26.3821 25.9744V10.2171H20.8207ZM9.69786 8.36328C9.69786 6.31888 11.3611 4.65567 13.4055 4.65567C15.4499 4.65567 17.1131 6.31888 17.1131 8.36328V10.2171H9.69786V8.36328ZM18.9669 15.3151C18.199 15.3151 17.5765 14.6926 17.5765 13.9247C17.5765 13.1568 18.199 12.5343 18.9669 12.5343C19.7348 12.5343 20.3572 13.1568 20.3572 13.9247C20.3572 14.6926 19.7348 15.3151 18.9669 15.3151ZM7.84406 15.3151C7.07617 15.3151 6.4537 14.6926 6.4537 13.9247C6.4537 13.1568 7.07617 12.5343 7.84406 12.5343C8.61194 12.5343 9.23441 13.1568 9.23441 13.9247C9.23441 14.6926 8.61194 15.3151 7.84406 15.3151Z" fill="black"/>
</g>
<defs>
<clipPath id="clip0_201_4479">
<rect width="25.9533" height="29.6609" fill="white" transform="translate(0.428711 0.947998)"/>
</clipPath>
</defs>
</svg>
