<svg width="34" height="31" viewBox="0 0 34 31" fill="none" xmlns="http://www.w3.org/2000/svg">
<g clip-path="url(#clip0_201_4475)">
<path d="M30.6265 18.4039L33.3651 6.35416C33.5628 5.48415 32.9015 4.65567 32.0093 4.65567H9.25488L8.72389 2.05976C8.59157 1.41273 8.02222 0.948059 7.36174 0.948059H1.42209C0.654211 0.948059 0.0317383 1.57053 0.0317383 2.33841V3.26532C0.0317383 4.0332 0.654211 4.65567 1.42209 4.65567H5.47051L9.54008 24.5513C8.56649 25.1113 7.91041 26.1611 7.91041 27.3648C7.91041 29.1565 9.36287 30.6089 11.1546 30.6089C12.9463 30.6089 14.3987 29.1565 14.3987 27.3648C14.3987 26.4568 14.0252 25.6364 13.4241 25.0475H25.5692C24.9681 25.6364 24.5947 26.4568 24.5947 27.3648C24.5947 29.1565 26.0471 30.6089 27.8388 30.6089C29.6305 30.6089 31.083 29.1565 31.083 27.3648C31.083 26.0803 30.3364 24.9704 29.2536 24.4448L29.5732 23.0384C29.7709 22.1684 29.1096 21.3399 28.2174 21.3399H12.6676L12.2884 19.4861H29.2707C29.9199 19.4861 30.4826 19.0369 30.6265 18.4039Z" fill="black"/>
</g>
<defs>
<clipPath id="clip0_201_4475">
<rect width="33.3685" height="29.6609" fill="white" transform="translate(0.0317383 0.947998)"/>
</clipPath>
</defs>
</svg>
