<svg width="31" height="31" viewBox="0 0 31 31" fill="none" xmlns="http://www.w3.org/2000/svg">
<g clip-path="url(#clip0_201_4473)">
<path d="M18.152 19.486C17.9687 19.486 17.7895 19.5404 17.6371 19.6422C17.4847 19.7441 17.3659 19.8889 17.2957 20.0582C17.2255 20.2276 17.2072 20.414 17.243 20.5938C17.2787 20.7736 17.367 20.9387 17.4966 21.0684C17.6263 21.198 17.7914 21.2863 17.9712 21.322C18.151 21.3578 18.3374 21.3394 18.5068 21.2693C18.6761 21.1991 18.8209 21.0803 18.9227 20.9279C19.0246 20.7755 19.0789 20.5963 19.0789 20.4129C19.0789 20.1671 18.9813 19.9313 18.8075 19.7575C18.6336 19.5837 18.3979 19.486 18.152 19.486ZM20.0059 13.9246C19.8225 13.9246 19.6433 13.979 19.4909 14.0808C19.3385 14.1827 19.2197 14.3274 19.1495 14.4968C19.0793 14.6662 19.061 14.8526 19.0968 15.0324C19.1325 15.2122 19.2208 15.3773 19.3504 15.5069C19.4801 15.6366 19.6452 15.7249 19.825 15.7606C20.0048 15.7964 20.1912 15.778 20.3606 15.7079C20.5299 15.6377 20.6747 15.5189 20.7765 15.3665C20.8784 15.2141 20.9328 15.0348 20.9328 14.8515C20.9328 14.6057 20.8351 14.3699 20.6613 14.1961C20.4874 14.0223 20.2517 13.9246 20.0059 13.9246ZM21.8597 17.6322C22.043 17.6322 22.2222 17.5779 22.3746 17.476C22.527 17.3742 22.6458 17.2294 22.716 17.06C22.7862 16.8907 22.8045 16.7043 22.7687 16.5245C22.733 16.3447 22.6447 16.1795 22.5151 16.0499C22.3854 15.9203 22.2203 15.832 22.0405 15.7962C21.8607 15.7605 21.6743 15.7788 21.5049 15.849C21.3356 15.9191 21.1908 16.0379 21.089 16.1904C20.9871 16.3428 20.9328 16.522 20.9328 16.7053C20.9328 16.9512 21.0304 17.1869 21.2042 17.3608C21.3781 17.5346 21.6138 17.6322 21.8597 17.6322ZM20.0059 19.486C20.1892 19.486 20.3684 19.4317 20.5208 19.3298C20.6732 19.228 20.792 19.0832 20.8622 18.9138C20.9324 18.7445 20.9507 18.5581 20.9149 18.3783C20.8792 18.1985 20.7909 18.0333 20.6613 17.9037C20.5316 17.7741 20.3665 17.6858 20.1867 17.65C20.0069 17.6143 19.8205 17.6326 19.6511 17.7028C19.4818 17.7729 19.337 17.8917 19.2352 18.0442C19.1333 18.1966 19.0789 18.3758 19.0789 18.5591C19.0789 18.805 19.1766 19.0407 19.3504 19.2146C19.5243 19.3884 19.76 19.486 20.0059 19.486ZM18.152 15.7784C17.9687 15.7784 17.7895 15.8328 17.6371 15.9346C17.4847 16.0365 17.3659 16.1813 17.2957 16.3506C17.2255 16.52 17.2072 16.7064 17.243 16.8862C17.2787 17.066 17.367 17.2311 17.4966 17.3608C17.6263 17.4904 17.7914 17.5787 17.9712 17.6144C18.151 17.6502 18.3374 17.6318 18.5068 17.5617C18.6761 17.4915 18.8209 17.3727 18.9227 17.2203C19.0246 17.0679 19.0789 16.8887 19.0789 16.7053C19.0789 16.4595 18.9813 16.2237 18.8075 16.0499C18.6336 15.8761 18.3979 15.7784 18.152 15.7784ZM25.5673 13.9246C25.7506 13.9246 25.9298 13.8703 26.0822 13.7684C26.2347 13.6666 26.3535 13.5218 26.4236 13.3524C26.4938 13.1831 26.5121 12.9967 26.4764 12.8169C26.4406 12.6371 26.3523 12.4719 26.2227 12.3423C26.0931 12.2127 25.9279 12.1244 25.7481 12.0886C25.5683 12.0529 25.3819 12.0712 25.2126 12.1414C25.0432 12.2115 24.8984 12.3303 24.7966 12.4828C24.6947 12.6352 24.6404 12.8144 24.6404 12.9977C24.6404 13.2435 24.738 13.4793 24.9118 13.6531C25.0857 13.827 25.3214 13.9246 25.5673 13.9246ZM22.7866 14.8515C22.7866 15.0348 22.8409 15.2141 22.9428 15.3665C23.0446 15.5189 23.1894 15.6377 23.3588 15.7079C23.5281 15.778 23.7145 15.7964 23.8943 15.7606C24.0741 15.7249 24.2393 15.6366 24.3689 15.5069C24.4985 15.3773 24.5868 15.2122 24.6226 15.0324C24.6583 14.8526 24.64 14.6662 24.5698 14.4968C24.4997 14.3274 24.3809 14.1827 24.2284 14.0808C24.076 13.979 23.8968 13.9246 23.7135 13.9246C23.4676 13.9246 23.2319 14.0223 23.058 14.1961C22.8842 14.3699 22.7866 14.6057 22.7866 14.8515ZM21.8597 12.0708C21.6763 12.0708 21.4971 12.1252 21.3447 12.227C21.1923 12.3289 21.0735 12.4736 21.0033 12.643C20.9332 12.8124 20.9148 12.9987 20.9506 13.1785C20.9863 13.3584 21.0746 13.5235 21.2042 13.6531C21.3339 13.7828 21.499 13.871 21.6788 13.9068C21.8586 13.9426 22.045 13.9242 22.2144 13.8541C22.3837 13.7839 22.5285 13.6651 22.6304 13.5127C22.7322 13.3603 22.7866 13.181 22.7866 12.9977C22.7866 12.7519 22.6889 12.5161 22.5151 12.3423C22.3412 12.1685 22.1055 12.0708 21.8597 12.0708ZM27.4211 13.9246C27.2377 13.9246 27.0585 13.979 26.9061 14.0808C26.7537 14.1827 26.6349 14.3274 26.5647 14.4968C26.4946 14.6662 26.4762 14.8526 26.512 15.0324C26.5477 15.2122 26.636 15.3773 26.7657 15.5069C26.8953 15.6366 27.0604 15.7249 27.2402 15.7606C27.42 15.7964 27.6064 15.778 27.7758 15.7079C27.9452 15.6377 28.0899 15.5189 28.1918 15.3665C28.2936 15.2141 28.348 15.0348 28.348 14.8515C28.348 14.6057 28.2503 14.3699 28.0765 14.1961C27.9027 14.0223 27.6669 13.9246 27.4211 13.9246ZM29.2749 12.0708C29.0916 12.0708 28.9123 12.1252 28.7599 12.227C28.6075 12.3289 28.4887 12.4736 28.4185 12.643C28.3484 12.8124 28.33 12.9987 28.3658 13.1785C28.4016 13.3584 28.4898 13.5235 28.6195 13.6531C28.7491 13.7828 28.9142 13.871 29.094 13.9068C29.2738 13.9426 29.4602 13.9242 29.6296 13.8541C29.799 13.7839 29.9437 13.6651 30.0456 13.5127C30.1474 13.3603 30.2018 13.181 30.2018 12.9977C30.2018 12.7519 30.1041 12.5161 29.9303 12.3423C29.7565 12.1685 29.5207 12.0708 29.2749 12.0708ZM25.5673 15.7784C25.3839 15.7784 25.2047 15.8328 25.0523 15.9346C24.8999 16.0365 24.7811 16.1813 24.7109 16.3506C24.6408 16.52 24.6224 16.7064 24.6582 16.8862C24.6939 17.066 24.7822 17.2311 24.9118 17.3608C25.0415 17.4904 25.2066 17.5787 25.3864 17.6144C25.5662 17.6502 25.7526 17.6318 25.922 17.5617C26.0913 17.4915 26.2361 17.3727 26.338 17.2203C26.4398 17.0679 26.4942 16.8887 26.4942 16.7053C26.4942 16.4595 26.3965 16.2237 26.2227 16.0499C26.0489 15.8761 25.8131 15.7784 25.5673 15.7784ZM23.7135 17.6322C23.5301 17.6322 23.3509 17.6866 23.1985 17.7884C23.0461 17.8903 22.9273 18.0351 22.8571 18.2044C22.787 18.3738 22.7686 18.5602 22.8044 18.74C22.8401 18.9198 22.9284 19.0849 23.058 19.2146C23.1877 19.3442 23.3528 19.4325 23.5326 19.4682C23.7124 19.504 23.8988 19.4856 24.0682 19.4155C24.2375 19.3453 24.3823 19.2265 24.4842 19.0741C24.586 18.9217 24.6404 18.7425 24.6404 18.5591C24.6404 18.3133 24.5427 18.0775 24.3689 17.9037C24.1951 17.7299 23.9593 17.6322 23.7135 17.6322ZM20.0059 21.3398C19.8225 21.3398 19.6433 21.3942 19.4909 21.4961C19.3385 21.5979 19.2197 21.7427 19.1495 21.912C19.0793 22.0814 19.061 22.2678 19.0968 22.4476C19.1325 22.6274 19.2208 22.7925 19.3504 22.9222C19.4801 23.0518 19.6452 23.1401 19.825 23.1758C20.0048 23.2116 20.1912 23.1932 20.3606 23.1231C20.5299 23.0529 20.6747 22.9341 20.7765 22.7817C20.8784 22.6293 20.9328 22.4501 20.9328 22.2667C20.9328 22.0209 20.8351 21.7852 20.6613 21.6113C20.4874 21.4375 20.2517 21.3398 20.0059 21.3398ZM18.152 23.1936C17.9687 23.1936 17.7895 23.248 17.6371 23.3499C17.4847 23.4517 17.3659 23.5965 17.2957 23.7658C17.2255 23.9352 17.2072 24.1216 17.243 24.3014C17.2787 24.4812 17.367 24.6463 17.4966 24.776C17.6263 24.9056 17.7914 24.9939 17.9712 25.0296C18.151 25.0654 18.3374 25.0471 18.5068 24.9769C18.6761 24.9067 18.8209 24.7879 18.9227 24.6355C19.0246 24.4831 19.0789 24.3039 19.0789 24.1206C19.0789 23.8747 18.9813 23.639 18.8075 23.4651C18.6336 23.2913 18.3979 23.1936 18.152 23.1936ZM21.8597 19.486C21.6763 19.486 21.4971 19.5404 21.3447 19.6422C21.1923 19.7441 21.0735 19.8889 21.0033 20.0582C20.9332 20.2276 20.9148 20.414 20.9506 20.5938C20.9863 20.7736 21.0746 20.9387 21.2042 21.0684C21.3339 21.198 21.499 21.2863 21.6788 21.322C21.8586 21.3578 22.045 21.3394 22.2144 21.2693C22.3837 21.1991 22.5285 21.0803 22.6304 20.9279C22.7322 20.7755 22.7866 20.5963 22.7866 20.4129C22.7866 20.1671 22.6889 19.9313 22.5151 19.7575C22.3412 19.5837 22.1055 19.486 21.8597 19.486ZM23.1139 6.83671L22.4592 6.18151C22.3732 6.09541 22.271 6.02712 22.1585 5.98053C22.046 5.93393 21.9255 5.90995 21.8038 5.90995C21.682 5.90995 21.5615 5.93393 21.449 5.98053C21.3365 6.02712 21.2343 6.09541 21.1483 6.18151L20.8198 6.5094C19.6146 5.32154 17.9904 4.65563 16.2982 4.65559C15.1836 4.65559 14.1501 4.96263 13.2337 5.45794L12.6544 4.87863C11.3397 3.55779 9.55554 2.81111 7.69195 2.80179C3.75551 2.77282 0.540894 6.33039 0.540894 10.2663V27.8282C0.540894 28.074 0.638549 28.3098 0.812377 28.4836C0.986205 28.6574 1.22197 28.7551 1.4678 28.7551H3.3216C3.56743 28.7551 3.80319 28.6574 3.97702 28.4836C4.15085 28.3098 4.2485 28.074 4.2485 27.8282V10.1243C4.2485 8.37769 5.46506 6.75271 7.20301 6.53663C7.71792 6.46917 8.24144 6.52119 8.73301 6.68866C9.22457 6.85613 9.67097 7.13455 10.0376 7.50234L10.6169 8.08166C10.117 8.99582 9.80992 10.0293 9.80992 11.1439C9.81021 12.836 10.4761 14.4601 11.6637 15.6655L11.3358 15.9939C11.1621 16.1677 11.0646 16.4034 11.0646 16.6491C11.0646 16.8949 11.1621 17.1305 11.3358 17.3043L11.9905 17.9595C12.0765 18.0456 12.1787 18.1139 12.2912 18.1605C12.4037 18.2071 12.5242 18.2311 12.646 18.2311C12.7677 18.2311 12.8882 18.2071 13.0007 18.1605C13.1132 18.1139 13.2154 18.0456 13.3014 17.9595L23.1139 8.1477C23.2 8.06163 23.2683 7.95944 23.3149 7.84696C23.3614 7.73449 23.3854 7.61395 23.3854 7.49221C23.3854 7.37047 23.3614 7.24992 23.3149 7.13745C23.2683 7.02498 23.2 6.92279 23.1139 6.83671Z" fill="black"/>
</g>
<defs>
<clipPath id="clip0_201_4473">
<rect width="29.6609" height="29.6609" fill="white" transform="translate(0.540894 0.947998)"/>
</clipPath>
</defs>
</svg>
