<svg width="38" height="31" viewBox="0 0 38 31" fill="none" xmlns="http://www.w3.org/2000/svg">
<g clip-path="url(#clip0_201_4471)">
<path d="M37.0667 13.1513L29.2755 3.80229C29.0145 3.48921 28.6879 3.23732 28.3188 3.06443C27.9497 2.89154 27.5471 2.80189 27.1395 2.80182H2.48857C1.46492 2.80182 0.634766 3.63198 0.634766 4.65562V21.3399C0.634766 22.3635 1.46492 23.1937 2.48857 23.1937H4.34238C4.34238 26.2652 6.83227 28.7551 9.90379 28.7551C12.9753 28.7551 15.4652 26.2652 15.4652 23.1937H22.8804C22.8804 26.2652 25.3703 28.7551 28.4418 28.7551C31.5134 28.7551 34.0033 26.2652 34.0033 23.1937H35.8571C36.8807 23.1937 37.7109 22.3635 37.7109 21.3399V14.9315C37.7109 14.2809 37.4826 13.6512 37.0667 13.1513ZM4.34238 12.0708V6.50943H9.90379V12.0708H4.34238ZM9.90379 25.9744C8.36803 25.9744 7.12309 24.7294 7.12309 23.1937C7.12309 21.6579 8.36803 20.413 9.90379 20.413C11.4396 20.413 12.6845 21.6579 12.6845 23.1937C12.6845 24.7294 11.4396 25.9744 9.90379 25.9744ZM19.1728 12.0708H13.6114V6.50943H19.1728V12.0708ZM28.4418 25.9744C26.9061 25.9744 25.6611 24.7294 25.6611 23.1937C25.6611 21.6579 26.9061 20.413 28.4418 20.413C29.9776 20.413 31.2226 21.6579 31.2226 23.1937C31.2226 24.7294 29.9776 25.9744 28.4418 25.9744ZM22.8804 12.0708V6.50943H26.7051L31.3396 12.0708H22.8804Z" fill="black"/>
</g>
<defs>
<clipPath id="clip0_201_4471">
<rect width="37.0761" height="29.6609" fill="white" transform="translate(0.634766 0.947998)"/>
</clipPath>
</defs>
</svg>
