<svg width="30" height="31" viewBox="0 0 30 31" fill="none" xmlns="http://www.w3.org/2000/svg">
<g clip-path="url(#clip0_201_4469)">
<path d="M24.2433 26.9013H19.377C18.9947 26.9013 18.6819 26.5884 18.6819 26.2061V23.8888C18.6819 23.5065 18.9947 23.1937 19.377 23.1937H24.2433C25.2687 23.1937 26.0971 22.3652 26.0971 21.3399V10.217C26.0971 9.19163 25.2687 8.36321 24.2433 8.36321H19.377C18.9947 8.36321 18.6819 8.05038 18.6819 7.66804V5.35078C18.6819 4.96843 18.9947 4.6556 19.377 4.6556H24.2433C27.3136 4.6556 29.8047 7.14665 29.8047 10.217V21.3399C29.8047 24.4102 27.3136 26.9013 24.2433 26.9013ZM21.5205 15.2571L11.788 5.52457C10.919 4.6556 9.41283 5.26388 9.41283 6.50941V12.0708H1.53415C0.763665 12.0708 0.143799 12.6907 0.143799 13.4612V19.0226C0.143799 19.7931 0.763665 20.4129 1.53415 20.4129H9.41283V25.9744C9.41283 27.2199 10.919 27.8282 11.788 26.9592L21.5205 17.2267C22.0593 16.6822 22.0593 15.8016 21.5205 15.2571Z" fill="black"/>
</g>
<defs>
<clipPath id="clip0_201_4469">
<rect width="29.6609" height="29.6609" fill="white" transform="translate(0.143799 0.947998)"/>
</clipPath>
</defs>
</svg>
