<svg width="31" height="31" viewBox="0 0 31 31" fill="none" xmlns="http://www.w3.org/2000/svg">
<g clip-path="url(#clip0_201_4465)">
<path d="M29.6613 16.7633L19.9288 26.4958C19.0599 27.3647 17.5536 26.7564 17.5536 25.5109V19.9495H9.67496C8.90447 19.9495 8.28461 19.3296 8.28461 18.5591V12.9977C8.28461 12.2272 8.90447 11.6074 9.67496 11.6074H17.5536V6.04596C17.5536 4.80623 19.0541 4.19215 19.9288 5.06113L29.6613 14.7936C30.2001 15.3382 30.2001 16.2187 29.6613 16.7633ZM11.9922 26.2061V23.8888C11.9922 23.5065 11.6794 23.1937 11.297 23.1937H6.4308C5.40542 23.1937 4.577 22.3652 4.577 21.3399V10.217C4.577 9.19164 5.40542 8.36322 6.4308 8.36322H11.297C11.6794 8.36322 11.9922 8.05039 11.9922 7.66804V5.35078C11.9922 4.96843 11.6794 4.65561 11.297 4.65561H6.4308C3.36044 4.65561 0.869385 7.14666 0.869385 10.217V21.3399C0.869385 24.4102 3.36044 26.9013 6.4308 26.9013H11.297C11.6794 26.9013 11.9922 26.5884 11.9922 26.2061Z" fill="black"/>
</g>
<defs>
<clipPath id="clip0_201_4465">
<rect width="29.6609" height="29.6609" fill="white" transform="translate(0.869629 0.947998)"/>
</clipPath>
</defs>
</svg>
