<svg width="27" height="31" viewBox="0 0 27 31" fill="none" xmlns="http://www.w3.org/2000/svg">
<g clip-path="url(#clip0_201_4467)">
<path d="M5.65745 28.9861C5.63966 28.0581 6.41687 27.2986 7.34499 27.2986H10.9537V26.9676H3.66223C2.73411 26.9676 1.95691 26.208 1.97469 25.2801C1.9919 24.3807 2.72618 23.6571 3.6295 23.6571H10.9537V23.3261H2.04844C1.12032 23.3261 0.34311 22.5666 0.360895 21.6386C0.378101 20.7394 1.11244 20.0158 2.01576 20.0158H10.9538V19.6848H3.7036C2.77548 19.6848 1.99827 18.9252 2.01605 17.9973C2.03326 17.0981 2.7676 16.3744 3.67092 16.3744H13.4362L11.6354 15.0648C10.8961 14.5272 10.7326 13.4921 11.2703 12.7527C11.808 12.0134 12.8431 11.85 13.5825 12.3876L20.7289 17.5849C20.9823 17.7692 21.1885 18.0108 21.3307 18.2899C21.4728 18.5691 21.5469 18.878 21.5469 19.1912V27.3674C21.5469 28.2891 20.9128 29.0898 20.0156 29.3009L15.3538 30.3977C14.7574 30.5381 14.1468 30.6089 13.5342 30.6089H7.31232C6.40899 30.6089 5.67465 29.8853 5.65745 28.9861ZM9.90087 15.9109H12.0109L11.3628 15.4395C10.2865 14.6568 10.1861 13.0709 11.1792 12.1643L10.4258 11.1969C9.85562 10.4646 8.77885 10.318 8.05761 10.9021C7.35866 11.4682 7.23886 12.4922 7.79384 13.2049L9.90087 15.9109ZM26.3127 15.789L26.0229 6.95728C25.9929 6.04365 25.228 5.32732 24.3143 5.35728C23.4006 5.38728 22.6843 6.15221 22.7143 7.06585L22.7874 9.29128L16.7879 1.58635C16.2329 0.873615 15.2108 0.738809 14.4907 1.27769C13.7476 1.83377 13.6259 2.91367 14.1961 3.64598L18.6504 9.36642L18.3892 9.56982L12.8978 2.51759C12.3429 1.80486 11.3208 1.67006 10.6007 2.20893C9.85759 2.76502 9.73582 3.84492 10.306 4.57723L15.7773 11.6036L15.516 11.807L11.0162 6.02812C10.4612 5.31539 9.43915 5.18058 8.71907 5.71946C7.97598 6.27555 7.85421 7.35545 8.42443 8.08776L11.4399 11.9604C12.1639 11.4821 13.1231 11.4805 13.8551 12.0128L21.0015 17.21C21.6332 17.6694 22.0104 18.4101 22.0104 19.1912V20.176L25.5479 17.4214C25.7951 17.2289 25.9932 16.9807 26.1262 16.697C26.2591 16.4133 26.323 16.1022 26.3127 15.789Z" fill="black"/>
</g>
<defs>
<clipPath id="clip0_201_4467">
<rect width="25.9533" height="29.6609" fill="white" transform="translate(0.360596 0.947998)"/>
</clipPath>
</defs>
</svg>
