<svg width="38" height="31" viewBox="0 0 38 31" fill="none" xmlns="http://www.w3.org/2000/svg">
<g clip-path="url(#clip0_201_4459)">
<path d="M36.6698 12.0708C33.6689 12.2736 29.3878 15.2397 27.2212 16.2129C25.5354 16.9718 24.0813 17.6264 22.8126 17.6264C21.5033 17.6264 21.3064 16.688 21.5786 14.6198C21.6424 14.1564 22.2564 10.0316 19.105 10.2112C17.6509 10.2981 15.38 11.6479 9.28559 17.5106L11.6897 11.5031C13.4509 7.10609 8.60779 2.72648 4.17604 5.54774L0.995602 7.68541C0.56691 7.95769 0.43946 8.53121 0.711738 8.96569L1.70816 10.5298C1.98044 10.9643 2.55396 11.0918 2.98844 10.8137L6.34847 8.56017C7.4144 7.88238 8.70627 8.97728 8.24282 10.1301L2.55396 24.3581C2.16002 25.3371 2.71037 26.9013 4.27452 26.9013C4.75535 26.9013 5.23039 26.7159 5.58377 26.3567C8.02848 23.912 14.5458 17.6264 17.8189 15.0137C17.6914 16.6648 17.6972 18.4259 19.0123 19.8684C19.8986 20.8416 21.1731 21.3341 22.8068 21.3341C24.8691 21.3341 26.7461 20.4883 28.7332 19.5961C30.6449 18.7387 34.4684 15.9696 36.7509 15.7842C37.2433 15.7437 37.6314 15.3613 37.6314 14.8689V13.0093C37.643 12.4821 37.1969 12.0361 36.6698 12.0708Z" fill="black"/>
</g>
<defs>
<clipPath id="clip0_201_4459">
<rect width="37.0761" height="29.6609" fill="white" transform="translate(0.566528 0.947998)"/>
</clipPath>
</defs>
</svg>
