<svg width="27" height="30" viewBox="0 0 27 30" fill="none" xmlns="http://www.w3.org/2000/svg">
<g clip-path="url(#clip0_201_4451)">
<path d="M23.834 0.287109C22.2989 0.287109 21.0533 1.53263 21.0533 3.06782C21.0533 4.603 22.2989 5.84853 23.834 5.84853C25.3692 5.84853 26.6147 4.603 26.6147 3.06782C26.6147 1.53263 25.3692 0.287109 23.834 0.287109ZM23.834 26.2404C23.3242 26.2404 22.9071 26.6575 22.9071 27.1673C22.9071 27.6771 22.49 28.0942 21.9802 28.0942H16.4188C15.909 28.0942 15.4919 28.5113 15.4919 29.0211C15.4919 29.5309 15.909 29.948 16.4188 29.948H21.9802C23.5154 29.948 24.7609 28.7025 24.7609 27.1673C24.7609 26.6575 24.3438 26.2404 23.834 26.2404ZM7.48579 26.7386C7.12662 27.0978 6.53572 27.1036 6.17654 26.7386L2.243 22.8051C1.88382 22.4459 1.29292 22.4459 0.933749 22.8051C0.574574 23.1642 0.574574 23.7551 0.933749 24.1143L4.86729 28.0478C5.41185 28.5924 6.1244 28.8589 6.83696 28.8589C7.54952 28.8589 8.26207 28.5866 8.80084 28.0478C9.16001 27.6887 9.16001 27.0978 8.80084 26.7386C8.44166 26.3794 7.85076 26.3736 7.48579 26.7386ZM10.7357 16.3225L5.30757 21.7507C4.58343 22.4748 4.58343 23.6509 5.30757 24.3692C5.66675 24.7284 6.14178 24.9138 6.61682 24.9138C7.09186 24.9138 7.5669 24.7342 7.92607 24.3692L13.25 19.0453L11.5004 17.2958C11.2108 17.0061 10.9559 16.6759 10.7357 16.3225ZM8.07669 9.55614H14.1885L13.024 10.5526C12.242 11.2188 11.7727 12.1978 11.7322 13.2232C11.6916 14.2544 12.0855 15.2624 12.8155 15.9865L17.3457 20.5168V25.3135C17.3457 26.3389 18.1741 27.1673 19.1995 27.1673C20.2249 27.1673 21.0533 26.3389 21.0533 25.3135V20.1344C21.0533 19.4045 20.7579 18.6861 20.2365 18.1705L16.7027 14.6367C16.7316 14.6136 16.7722 14.602 16.8012 14.573L21.5689 9.80524C22.2351 9.13903 22.4321 8.1484 22.0729 7.27943C21.7138 6.41046 20.8737 5.84853 19.9295 5.84853H8.07669C7.05131 5.84853 6.22289 6.67695 6.22289 7.70233C6.22289 8.72772 7.05131 9.55614 8.07669 9.55614Z" fill="black"/>
</g>
<defs>
<clipPath id="clip0_201_4451">
<rect width="25.9533" height="29.6609" fill="white" transform="translate(0.661499 0.287109)"/>
</clipPath>
</defs>
</svg>
