<svg width="31" height="30" viewBox="0 0 31 30" fill="none" xmlns="http://www.w3.org/2000/svg">
<g clip-path="url(#clip0_201_4447)">
<path d="M25.9983 5.8485C27.5335 5.8485 28.779 4.60297 28.779 3.06779C28.779 1.5326 27.5335 0.287079 25.9983 0.287079C24.4631 0.287079 23.2176 1.5326 23.2176 3.06779C23.2176 4.60297 24.4631 5.8485 25.9983 5.8485ZM30.2273 26.4779C29.6827 25.9333 28.8022 25.9333 28.2634 26.4779C27.5624 27.1788 26.4965 27.37 25.6507 26.9819L17.7836 22.9151L20.6338 18.6398C21.3696 17.5391 21.2247 16.0618 20.2862 15.1291L17.9458 12.7829L11.7472 9.70673C11.5792 10.8596 11.9441 12.024 12.7725 12.8582L17.1232 17.2146L14.4641 21.2003L2.99951 15.2739C2.32171 14.9264 1.4817 15.187 1.12832 15.8706C0.774941 16.5542 1.04143 17.3942 1.72502 17.7418L24.4283 29.4729C25.1177 29.7916 25.8477 29.9422 26.5776 29.9422C27.9216 29.9422 29.2424 29.4208 30.2273 28.436C30.766 27.8972 30.766 27.0166 30.2273 26.4779ZM7.92368 5.5936L7.25747 6.89705C8.09168 7.31995 9.06493 7.18092 9.73693 6.61898L12.4713 7.97458C12.4655 7.98037 12.4655 7.98617 12.4597 7.99196L19.0929 11.2825L20.9698 10.5294L21.3406 11.6358C21.5723 12.3368 22.0705 12.9103 22.7309 13.2405L26.0968 14.9206C27.0179 15.3782 28.1244 15.0075 28.582 14.0921C29.0397 13.1768 28.6689 12.0645 27.7536 11.6069L24.7354 10.0949L23.7447 7.12878C23.2755 5.72684 21.3754 3.84986 18.8495 4.85787L14.1455 6.74064L10.5248 4.94477C10.5422 4.10476 10.1077 3.28793 9.31403 2.88241L8.67099 4.13952H8.65941L6.66657 3.734C6.56229 3.71083 6.45222 3.74558 6.37691 3.83248C6.26684 3.95993 6.27843 4.1511 6.40587 4.26117L7.92368 5.5936Z" fill="black"/>
</g>
<defs>
<clipPath id="clip0_201_4447">
<rect width="29.6609" height="29.6609" fill="white" transform="translate(0.972168 0.287109)"/>
</clipPath>
</defs>
</svg>
