<svg width="38" height="30" viewBox="0 0 38 30" fill="none" xmlns="http://www.w3.org/2000/svg">
<g clip-path="url(#clip0_201_4439)">
<path d="M36.3801 20.6036L35.8414 20.175C35.4417 19.8563 34.8565 19.9201 34.5379 20.3198L33.9586 21.0439C33.64 21.4436 33.7037 22.0288 34.1034 22.3474L34.6422 22.7761C34.984 23.0484 35.1752 23.4539 35.1752 23.8884C35.1752 24.6762 34.5379 25.3135 33.7501 25.3135H3.66627C3.15647 25.3135 2.73936 25.7306 2.73936 26.2404V27.1673C2.73936 27.6771 3.15647 28.0942 3.66627 28.0942H33.5589C35.8182 28.0942 37.8284 26.3968 37.9559 24.1375C38.037 22.7587 37.4519 21.4552 36.3801 20.6036ZM2.73936 13.2637C2.73936 16.7164 5.10876 19.5898 8.30078 20.4183V23.4597H12.0084V20.679H23.1312V23.4597H26.8388V20.679C29.9092 20.679 32.4003 18.1879 32.4003 15.1175V9.55612C33.4256 9.55612 34.2541 8.7277 34.2541 7.70232C34.2541 6.67693 33.4256 5.84851 32.4003 5.84851H26.8388V9.55612C26.8388 11.6011 25.1762 13.2637 23.1312 13.2637H21.932C18.1202 13.2637 14.6385 11.1087 12.9353 7.70232C11.2321 4.29595 7.74464 2.1409 3.93855 2.1409H2.73936C1.71398 2.1409 0.885559 2.96932 0.885559 3.99471C0.885559 5.02009 1.71398 5.84851 2.73936 5.84851V13.2637Z" fill="black"/>
</g>
<defs>
<clipPath id="clip0_201_4439">
<rect width="37.0761" height="29.6609" fill="white" transform="translate(0.885742 0.287109)"/>
</clipPath>
</defs>
</svg>
