<svg width="31" height="30" viewBox="0 0 31 30" fill="none" xmlns="http://www.w3.org/2000/svg">
<g clip-path="url(#clip0_201_4437)">
<path d="M29.1289 22.5328H9.66393V21.6059C9.66393 21.0961 9.24682 20.679 8.73702 20.679H6.88322C6.37342 20.679 5.95631 21.0961 5.95631 21.6059V22.5328H1.3218C0.812004 22.5328 0.394897 22.9499 0.394897 23.4597V25.3135C0.394897 25.8233 0.812004 26.2404 1.3218 26.2404H5.95631V27.1673C5.95631 27.6771 6.37342 28.0942 6.88322 28.0942H8.73702C9.24682 28.0942 9.66393 27.6771 9.66393 27.1673V26.2404H29.1289C29.6387 26.2404 30.0558 25.8233 30.0558 25.3135V23.4597C30.0558 22.9499 29.6387 22.5328 29.1289 22.5328ZM29.1289 13.2637H24.4944V12.3368C24.4944 11.827 24.0773 11.4099 23.5675 11.4099H21.7137C21.2039 11.4099 20.7868 11.827 20.7868 12.3368V13.2637H1.3218C0.812004 13.2637 0.394897 13.6808 0.394897 14.1906V16.0444C0.394897 16.5542 0.812004 16.9713 1.3218 16.9713H20.7868V17.8982C20.7868 18.408 21.2039 18.8251 21.7137 18.8251H23.5675C24.0773 18.8251 24.4944 18.408 24.4944 17.8982V16.9713H29.1289C29.6387 16.9713 30.0558 16.5542 30.0558 16.0444V14.1906C30.0558 13.6808 29.6387 13.2637 29.1289 13.2637ZM29.1289 3.99471H17.0791V3.0678C17.0791 2.55801 16.662 2.1409 16.1522 2.1409H14.2984C13.7886 2.1409 13.3715 2.55801 13.3715 3.0678V3.99471H1.3218C0.812004 3.99471 0.394897 4.41181 0.394897 4.92161V6.77541C0.394897 7.28521 0.812004 7.70232 1.3218 7.70232H13.3715V8.62922C13.3715 9.13902 13.7886 9.55612 14.2984 9.55612H16.1522C16.662 9.55612 17.0791 9.13902 17.0791 8.62922V7.70232H29.1289C29.6387 7.70232 30.0558 7.28521 30.0558 6.77541V4.92161C30.0558 4.41181 29.6387 3.99471 29.1289 3.99471Z" fill="black"/>
</g>
<defs>
<clipPath id="clip0_201_4437">
<rect width="29.6609" height="29.6609" fill="white" transform="translate(0.394897 0.287109)"/>
</clipPath>
</defs>
</svg>
