<svg width="30" height="30" viewBox="0 0 30 30" fill="none" xmlns="http://www.w3.org/2000/svg">
<g clip-path="url(#clip0_201_4431)">
<path d="M15.07 0.750519C7.13339 0.750519 0.703003 7.18091 0.703003 15.1175C0.703003 23.0541 7.13339 29.4845 15.07 29.4845C23.0066 29.4845 29.437 23.0541 29.437 15.1175C29.437 7.18091 23.0066 0.750519 15.07 0.750519ZM19.7045 10.483C20.7299 10.483 21.5583 11.3114 21.5583 12.3368C21.5583 13.3622 20.7299 14.1906 19.7045 14.1906C18.6791 14.1906 17.8507 13.3622 17.8507 12.3368C17.8507 11.3114 18.6791 10.483 19.7045 10.483ZM10.4355 10.483C11.4609 10.483 12.2893 11.3114 12.2893 12.3368C12.2893 13.3622 11.4609 14.1906 10.4355 14.1906C9.4101 14.1906 8.58168 13.3622 8.58168 12.3368C8.58168 11.3114 9.4101 10.483 10.4355 10.483ZM21.7205 20.3429C20.0695 22.3242 17.6479 23.4596 15.07 23.4596C12.492 23.4596 10.0705 22.3242 8.41947 20.3429C7.6316 19.3986 9.05672 18.2168 9.84458 19.1553C11.1422 20.7137 13.0424 21.6 15.07 21.6C17.0976 21.6 18.9977 20.7079 20.2954 19.1553C21.0717 18.2168 22.5026 19.3986 21.7205 20.3429Z" fill="black"/>
</g>
<defs>
<clipPath id="clip0_201_4431">
<rect width="28.734" height="29.6609" fill="white" transform="translate(0.703003 0.287109)"/>
</clipPath>
</defs>
</svg>
