<svg width="29" height="30" viewBox="0 0 29 30" fill="none" xmlns="http://www.w3.org/2000/svg">
<g clip-path="url(#clip0_201_4433)">
<path d="M0.266968 15.1175C0.266968 23.0541 6.69736 29.4845 14.634 29.4845C22.5706 29.4845 29.001 23.0541 29.001 15.1175C29.001 7.18091 22.5706 0.750519 14.634 0.750519C6.69736 0.750519 0.266968 7.18091 0.266968 15.1175ZM11.8533 12.3368C11.8533 13.3622 11.0248 14.1906 9.99945 14.1906C8.97406 14.1906 8.14564 13.3622 8.14564 12.3368C8.14564 11.3114 8.97406 10.483 9.99945 10.483C11.0248 10.483 11.8533 11.3114 11.8533 12.3368ZM21.0354 13.2927C20.178 12.528 18.359 12.528 17.5016 13.2927L16.9512 13.7851C16.4704 14.2138 15.6999 13.8083 15.8042 13.1594C16.0359 11.6996 17.7854 10.7205 19.2743 10.7205C20.7631 10.7205 22.5126 11.6996 22.7444 13.1594C22.8428 13.8025 22.0839 14.2196 21.5973 13.7851L21.0354 13.2927ZM9.40855 19.1611C10.7062 20.7195 12.6064 21.6058 14.634 21.6058C16.6616 21.6058 18.5617 20.7137 19.8594 19.1611C20.6472 18.2226 22.0666 19.4044 21.2845 20.3487C19.6334 22.3242 17.2119 23.4596 14.634 23.4596C12.056 23.4596 9.63448 22.3242 7.98343 20.3429C7.20136 19.3986 8.63227 18.2168 9.40855 19.1611Z" fill="black"/>
</g>
<defs>
<clipPath id="clip0_201_4433">
<rect width="28.734" height="29.6609" fill="white" transform="translate(0.266968 0.287109)"/>
</clipPath>
</defs>
</svg>
