<svg width="38" height="30" viewBox="0 0 38 30" fill="none" xmlns="http://www.w3.org/2000/svg">
<g clip-path="url(#clip0_201_4429)">
<path d="M36.9462 21.6059H5.43151C4.92171 21.6059 4.50461 22.023 4.50461 22.5328V23.4597C4.50461 23.9695 4.92171 24.3866 5.43151 24.3866H36.9462C37.456 24.3866 37.8731 23.9695 37.8731 23.4597V22.5328C37.8731 22.023 37.456 21.6059 36.9462 21.6059ZM9.13912 27.1673H1.7239C1.2141 27.1673 0.796997 27.5844 0.796997 28.0942V29.0211C0.796997 29.5309 1.2141 29.948 1.7239 29.948H9.13912C9.64892 29.948 10.066 29.5309 10.066 29.0211V28.0942C10.066 27.5844 9.64892 27.1673 9.13912 27.1673ZM33.2386 27.1673H13.7736C13.2638 27.1673 12.8467 27.5844 12.8467 28.0942V29.0211C12.8467 29.5309 13.2638 29.948 13.7736 29.948H33.2386C33.7484 29.948 34.1655 29.5309 34.1655 29.0211V28.0942C34.1655 27.5844 33.7484 27.1673 33.2386 27.1673ZM9.13912 16.9713H18.1822C19.4857 18.1126 21.1715 18.8251 23.0427 18.8251C24.9138 18.8251 26.5939 18.1126 27.9031 16.9713H31.3848C34.9707 16.9713 37.8731 14.069 37.8731 10.483C37.8731 6.89707 34.9707 3.99471 31.3848 3.99471C30.342 3.99471 29.3746 4.26119 28.5056 4.69568C27.0979 2.08297 24.3635 0.287094 21.1889 0.287094C18.8137 0.287094 16.6818 1.28931 15.164 2.88242C13.6462 1.28931 11.5143 0.287094 9.13912 0.287094C4.53357 0.287094 0.796997 4.02367 0.796997 8.62922C0.796997 13.2348 4.53357 16.9713 9.13912 16.9713Z" fill="black"/>
</g>
<defs>
<clipPath id="clip0_201_4429">
<rect width="37.0761" height="29.6609" fill="white" transform="translate(0.796875 0.287109)"/>
</clipPath>
</defs>
</svg>
