<svg width="30" height="30" viewBox="0 0 30 30" fill="none" xmlns="http://www.w3.org/2000/svg">
<g clip-path="url(#clip0_201_4427)">
<path d="M5.86745 17.8982C5.86745 18.408 6.28455 18.8251 6.79435 18.8251H13.6013L8.03988 13.2637H6.79435C6.28455 13.2637 5.86745 13.6808 5.86745 14.1906V17.8982ZM15.1365 0.287079C6.94497 0.287079 0.30603 6.92602 0.30603 15.1175C0.30603 23.309 6.94497 29.948 15.1365 29.948C23.328 29.948 29.9669 23.309 29.9669 15.1175C29.9669 6.92602 23.328 0.287079 15.1365 0.287079ZM15.1365 26.2404C9.00154 26.2404 4.01364 21.2525 4.01364 15.1175C4.01364 12.7192 4.78413 10.5004 6.08179 8.68134L21.5727 24.1722C19.7536 25.4699 17.5348 26.2404 15.1365 26.2404ZM17.755 15.1175H22.5517V16.9713H19.6088L17.755 15.1175ZM24.1912 21.5537L21.4626 18.8251H23.4786C23.9884 18.8251 24.4055 18.408 24.4055 17.8982V14.1906C24.4055 13.6808 23.9884 13.2637 23.4786 13.2637H15.9012L8.70029 6.06284C10.5193 4.76518 12.7381 3.99469 15.1365 3.99469C21.2714 3.99469 26.2593 8.98258 26.2593 15.1175C26.2593 17.5159 25.4888 19.7347 24.1912 21.5537ZM18.8788 7.7023C17.9751 7.7023 17.222 7.05347 17.0598 6.20188C17.0192 5.99332 16.8281 5.8485 16.6137 5.8485H15.6752C15.3856 5.8485 15.1712 6.10919 15.2118 6.39305C15.4783 8.18313 17.0192 9.55611 18.8788 9.55611C19.7826 9.55611 20.5357 10.2049 20.6979 11.0565C20.7384 11.2651 20.9296 11.4099 21.144 11.4099H22.0825C22.3721 11.4099 22.5865 11.1492 22.5459 10.8654C22.2794 9.07528 20.7384 7.7023 18.8788 7.7023Z" fill="black"/>
</g>
<defs>
<clipPath id="clip0_201_4427">
<rect width="29.6609" height="29.6609" fill="white" transform="translate(0.305908 0.287109)"/>
</clipPath>
</defs>
</svg>
