<svg width="31" height="30" viewBox="0 0 31 30" fill="none" xmlns="http://www.w3.org/2000/svg">
<g clip-path="url(#clip0_201_4423)">
<path d="M15.7394 2.1409C7.54788 2.1409 0.908936 7.53432 0.908936 14.1906C0.908936 17.064 2.14867 19.6941 4.21103 21.7623C3.48688 24.682 1.06535 27.2831 1.03638 27.3121C0.908936 27.4453 0.874177 27.6423 0.949488 27.8161C1.0248 27.9899 1.18701 28.0942 1.37239 28.0942C5.21324 28.0942 8.09243 26.252 9.51755 25.1165C11.4119 25.8291 13.5148 26.2404 15.7394 26.2404C23.9309 26.2404 30.5698 20.847 30.5698 14.1906C30.5698 7.53432 23.9309 2.1409 15.7394 2.1409ZM8.33574 17.8982H7.62898C7.37408 17.8982 7.16553 17.6897 7.16553 17.4348V16.5079C7.16553 16.253 7.37408 16.0444 7.62898 16.0444H8.34154C8.68913 16.0444 8.94402 15.8417 8.94402 15.6621C8.94402 15.5868 8.89768 15.5057 8.82237 15.442L7.55367 14.3528C7.06125 13.9357 6.78318 13.339 6.78318 12.725C6.78318 11.491 7.88388 10.4888 9.23947 10.4888H9.94624C10.2011 10.4888 10.4097 10.6974 10.4097 10.9523V11.8792C10.4097 12.1341 10.2011 12.3426 9.94624 12.3426H9.23368C8.88609 12.3426 8.63119 12.5454 8.63119 12.725C8.63119 12.8003 8.67754 12.8814 8.75285 12.9451L10.0215 14.0342C10.514 14.4513 10.792 15.048 10.792 15.6621C10.7978 16.896 9.69134 17.8982 8.33574 17.8982ZM19.447 17.4348C19.447 17.6897 19.2384 17.8982 18.9835 17.8982H18.0566C17.8017 17.8982 17.5932 17.6897 17.5932 17.4348V13.4839L16.1565 16.7164C15.9885 17.0582 15.4961 17.0582 15.3281 16.7164L13.8856 13.4839V17.4348C13.8856 17.6897 13.677 17.8982 13.4221 17.8982H12.4952C12.2403 17.8982 12.0318 17.6897 12.0318 17.4348V11.4099C12.0318 10.9001 12.4489 10.483 12.9587 10.483H13.8856C14.239 10.483 14.5576 10.68 14.714 10.9928L15.7394 13.0436L16.7648 10.9928C16.9212 10.68 17.2456 10.483 17.5932 10.483H18.5201C19.0299 10.483 19.447 10.9001 19.447 11.4099V17.4348ZM22.2451 17.8982H21.5325C21.2776 17.8982 21.0691 17.6897 21.0691 17.4348V16.5079C21.0691 16.253 21.2776 16.0444 21.5325 16.0444H22.2451C22.5927 16.0444 22.8476 15.8417 22.8476 15.6621C22.8476 15.5868 22.8012 15.5057 22.7259 15.442L21.4572 14.3528C20.9648 13.9357 20.6867 13.339 20.6867 12.725C20.6867 11.491 21.7874 10.4888 23.143 10.4888H23.8498C24.1047 10.4888 24.3132 10.6974 24.3132 10.9523V11.8792C24.3132 12.1341 24.1047 12.3426 23.8498 12.3426H23.1372C22.7896 12.3426 22.5347 12.5454 22.5347 12.725C22.5347 12.8003 22.5811 12.8814 22.6564 12.9451L23.9251 14.0342C24.4175 14.4513 24.6956 15.048 24.6956 15.6621C24.7014 16.896 23.6007 17.8982 22.2451 17.8982Z" fill="black"/>
</g>
<defs>
<clipPath id="clip0_201_4423">
<rect width="29.6609" height="29.6609" fill="white" transform="translate(0.908936 0.287109)"/>
</clipPath>
</defs>
</svg>
