<svg width="27" height="30" viewBox="0 0 27 30" fill="none" xmlns="http://www.w3.org/2000/svg">
<g clip-path="url(#clip0_201_4419)">
<path d="M26.142 20.285L24.1839 19.1553L25.6901 18.7498C26.1652 18.6224 26.449 18.13 26.3216 17.6549L26.0898 16.7917C25.9624 16.3167 25.47 16.0328 24.9949 16.1603L20.8934 17.261L17.1916 15.1175L20.8876 12.9799L24.9891 14.0806C25.4642 14.208 25.9566 13.9241 26.084 13.4491L26.3158 12.5859C26.4432 12.1109 26.1594 11.6185 25.6843 11.491L24.1781 11.0855L26.1362 9.95583C26.5649 9.70673 26.7097 9.16217 26.4664 8.73348L25.5685 7.18092C25.3194 6.75223 24.7748 6.6074 24.3461 6.85071L22.388 7.98037L22.7935 6.47415C22.921 5.99912 22.6371 5.5067 22.1621 5.37925L21.2989 5.14753C20.8239 5.02008 20.3315 5.30394 20.204 5.77898L19.1033 9.88052L15.4652 11.9776V7.48796L18.5761 4.37704C18.9353 4.01786 18.9353 3.42696 18.5761 3.06779L17.9215 2.41316C17.5623 2.05399 16.9714 2.05399 16.6123 2.41316L15.4652 3.55441V1.21398C15.4652 0.704185 15.0481 0.287079 14.5383 0.287079H12.6845C12.1747 0.287079 11.7576 0.704185 11.7576 1.21398V3.55441L10.6164 2.41316C10.2572 2.05399 9.66628 2.05399 9.30711 2.41316L8.64669 3.06779C8.28172 3.42696 8.28172 4.01786 8.64669 4.37704L11.7576 7.48796V11.9776L8.11951 9.88052L7.01882 5.77898C6.89137 5.30394 6.39895 5.02008 5.92391 5.14753L5.06074 5.37925C4.5857 5.5067 4.30183 5.99912 4.42928 6.47415L4.8348 7.98037L2.87672 6.85071C2.44803 6.6016 1.90347 6.75223 1.65437 7.18092L0.756431 8.72769C0.507326 9.15638 0.657948 9.70094 1.08664 9.95004L3.04472 11.0797L1.53851 11.4852C1.05767 11.6127 0.773811 12.1051 0.90126 12.5859L1.13299 13.4491C1.26043 13.9241 1.75285 14.208 2.22789 14.0806L6.32943 12.9799L10.0255 15.1175L6.32943 17.2552L2.22789 16.1545C1.75285 16.027 1.26043 16.3109 1.13299 16.7859L0.90126 17.6491C0.773811 18.1242 1.05767 18.6166 1.53271 18.744L3.03893 19.1496L1.08085 20.285C0.652155 20.5341 0.507326 21.0787 0.750638 21.5074L1.64858 23.0599C1.89768 23.4886 2.44224 23.6334 2.87093 23.3901L4.82901 22.2605L4.42349 23.7667C4.29604 24.2417 4.57991 24.7341 5.05494 24.8616L5.91812 25.0933C6.39316 25.2208 6.88558 24.9369 7.01302 24.4619L8.11372 20.3603L11.7518 18.2632V22.7529L8.6409 25.8638C8.27593 26.223 8.27593 26.8139 8.6409 27.1731L9.29552 27.8277C9.6547 28.1869 10.2456 28.1869 10.6048 27.8277L11.746 26.6864V29.0211C11.746 29.5309 12.1631 29.948 12.6729 29.948H14.5267C15.0365 29.948 15.4536 29.5309 15.4536 29.0211V26.6806L16.5949 27.8219C16.9541 28.1811 17.545 28.1811 17.9041 27.8219L18.5588 27.1673C18.9179 26.8081 18.9179 26.2172 18.5588 25.858L15.4652 22.7471V18.2574L19.1033 20.3545L20.204 24.4561C20.3315 24.9311 20.8239 25.215 21.2989 25.0875L22.1621 24.8558C22.6371 24.7283 22.921 24.2359 22.7935 23.7609L22.388 22.2547L24.3461 23.3843C24.7748 23.6334 25.3194 23.4828 25.5685 23.0541L26.4664 21.5016C26.7155 21.0787 26.5707 20.5283 26.142 20.285Z" fill="black"/>
</g>
<defs>
<clipPath id="clip0_201_4419">
<rect width="25.9533" height="29.6609" fill="white" transform="translate(0.634766 0.287109)"/>
</clipPath>
</defs>
</svg>
