<svg width="31" height="30" viewBox="0 0 31 30" fill="none" xmlns="http://www.w3.org/2000/svg">
<g clip-path="url(#clip0_201_4421)">
<path d="M25.4447 5.8485C26.9799 5.8485 28.2255 4.60297 28.2255 3.06779C28.2255 1.5326 26.9799 0.287079 25.4447 0.287079C23.9096 0.287079 22.664 1.5326 22.664 3.06779C22.664 4.60297 23.9096 5.8485 25.4447 5.8485ZM27.1132 14.7468C27.4492 14.9959 27.8373 15.1175 28.2255 15.1175C28.7874 15.1175 29.3435 14.8626 29.7085 14.376C30.3226 13.5592 30.1604 12.3947 29.3377 11.7807L22.8842 6.9434C22.0847 6.34671 21.1984 5.87746 20.2541 5.56463L16.5639 4.33649L15.0518 1.31826C14.5942 0.402942 13.4819 0.0321806 12.5666 0.489839C11.6513 0.947497 11.2805 2.05978 11.7382 2.9751L13.424 6.34091C13.7542 7.00133 14.3277 7.49375 15.0287 7.73127L15.9787 8.04989L13.592 9.24328C12.3291 9.87473 11.5412 11.1434 11.5412 12.557V15.6331L7.24848 17.064C6.27523 17.3884 5.75385 18.437 6.07827 19.4102C6.17675 19.7115 6.36213 19.9548 6.58227 20.1576L4.34032 19.3407C3.77839 19.138 3.33232 18.7267 3.07742 18.1821C2.753 17.4869 1.92458 17.1857 1.22941 17.5101C0.53423 17.8345 0.232986 18.6629 0.557402 19.3581C1.12513 20.5747 2.12734 21.4958 3.39025 21.9534L24.5236 29.6409C25.0856 29.8437 25.6649 29.948 26.2442 29.948C26.9683 29.948 27.6867 29.7916 28.3587 29.4729C29.0539 29.1485 29.3551 28.3201 29.0307 27.6249C28.7063 26.9297 27.8779 26.6285 27.1827 26.9529C26.6439 27.2078 26.0356 27.231 25.4737 27.0282L20.2135 25.1107C20.7175 24.8732 21.1173 24.4271 21.2447 23.842L22.5134 17.933C22.7393 16.8786 22.328 15.7779 21.4649 15.1291L18.4524 12.8698L22.2759 11.1029L27.1132 14.7468ZM18.7479 17.7418L17.6066 23.0715C17.5197 23.4828 17.6008 23.8768 17.7688 24.2301L7.95525 20.6616C8.11166 20.65 8.26807 20.6384 8.4187 20.5862L13.3429 18.941C14.4783 18.5644 15.243 17.5043 15.243 16.3051V15.1175L18.7479 17.7418Z" fill="black"/>
</g>
<defs>
<clipPath id="clip0_201_4421">
<rect width="29.6609" height="29.6609" fill="white" transform="translate(0.417969 0.287109)"/>
</clipPath>
</defs>
</svg>
