<svg width="38" height="30" viewBox="0 0 38 30" fill="none" xmlns="http://www.w3.org/2000/svg">
<g clip-path="url(#clip0_201_4415)">
<path d="M7.18969 22.0693C6.4192 22.0693 5.79933 22.6892 5.79933 23.4596C5.79933 24.2301 6.4192 24.85 7.18969 24.85C7.96017 24.85 8.58004 24.2301 8.58004 23.4596C8.58004 22.6892 7.96017 22.0693 7.18969 22.0693ZM11.8242 22.0693C11.0537 22.0693 10.4338 22.6892 10.4338 23.4596C10.4338 24.2301 11.0537 24.85 11.8242 24.85C12.5947 24.85 13.2146 24.2301 13.2146 23.4596C13.2146 22.6892 12.5947 22.0693 11.8242 22.0693ZM16.4587 22.0693C15.6882 22.0693 15.0684 22.6892 15.0684 23.4596C15.0684 24.2301 15.6882 24.85 16.4587 24.85C17.2292 24.85 17.8491 24.2301 17.8491 23.4596C17.8491 22.6892 17.2292 22.0693 16.4587 22.0693ZM21.0932 22.0693C20.3227 22.0693 19.7029 22.6892 19.7029 23.4596C19.7029 24.2301 20.3227 24.85 21.0932 24.85C21.8637 24.85 22.4836 24.2301 22.4836 23.4596C22.4836 22.6892 21.8637 22.0693 21.0932 22.0693ZM34.9157 24.9311C34.0757 24.0911 33.6064 22.9556 33.6064 21.768V15.8822C33.6064 14.6946 34.0757 13.5592 34.9157 12.7192L37.0417 10.5931C37.4009 10.2339 37.4009 9.643 37.0417 9.28383L35.7325 7.97458C35.3733 7.6154 34.7824 7.6154 34.4232 7.97458L32.2972 10.1007C30.762 11.6358 29.8988 13.7156 29.8988 15.888V16.9713H26.1912V14.0226C26.1912 13.5186 26.0869 13.0262 25.8899 12.5627L21.3539 1.97288C20.9136 0.947497 19.9114 0.287079 18.7933 0.287079H10.4338C8.89866 0.287079 7.65314 1.5326 7.65314 3.06779V9.55611H6.72623C5.19105 9.55611 3.94553 10.8016 3.94553 12.3368V17.6202C1.76151 18.6629 0.237915 20.8759 0.237915 23.4596C0.237915 27.0456 3.14028 29.948 6.72623 29.948H21.5567C25.1426 29.948 28.045 27.0456 28.045 23.4596C28.045 22.4574 27.8017 21.5247 27.3962 20.6789H29.8988V21.7623C29.8988 23.9347 30.762 26.0144 32.2972 27.5496L34.4232 29.6757C34.7824 30.0349 35.3733 30.0349 35.7325 29.6757L37.0417 28.3664C37.4009 28.0073 37.4009 27.4164 37.0417 27.0572L34.9157 24.9311ZM11.3607 3.99469H18.1851L22.1592 13.2637H15.0684L11.3607 9.55611V3.99469ZM21.5567 26.2404H6.72623C5.19105 26.2404 3.94553 24.9948 3.94553 23.4596C3.94553 21.9245 5.19105 20.6789 6.72623 20.6789H21.5567C23.0919 20.6789 24.3374 21.9245 24.3374 23.4596C24.3374 24.9948 23.0919 26.2404 21.5567 26.2404Z" fill="black"/>
</g>
<defs>
<clipPath id="clip0_201_4415">
<rect width="37.0761" height="29.6609" fill="white" transform="translate(0.237793 0.287109)"/>
</clipPath>
</defs>
</svg>
