<svg width="31" height="30" viewBox="0 0 31 30" fill="none" xmlns="http://www.w3.org/2000/svg">
<g clip-path="url(#clip0_201_4413)">
<path d="M24.8463 11.4099C24.8453 12.175 24.6854 12.9316 24.3769 13.6317C24.0684 14.3318 23.6179 14.9603 23.0539 15.4773C24.2801 15.9249 25.3092 16.7905 25.9604 17.9218C26.6117 19.053 26.8433 20.3777 26.6146 21.6628C26.3859 22.948 25.7116 24.1114 24.7101 24.9486C23.7086 25.7858 22.444 26.2432 21.1387 26.2404H10.0159C8.54087 26.2404 7.12631 25.6544 6.08334 24.6115C5.04037 23.5685 4.45444 22.1539 4.45444 20.6789C4.45444 19.204 5.04037 17.7894 6.08334 16.7464C7.12631 15.7035 8.54087 15.1175 10.0159 15.1175H15.1665C14.2414 14.1039 13.727 12.7822 13.7235 11.4099H6.30824C4.83326 11.4099 3.4187 11.9958 2.37573 13.0388C1.33276 14.0818 0.746826 15.4964 0.746826 16.9713L0.746826 24.3866C0.746826 25.8615 1.33276 27.2761 2.37573 28.3191C3.4187 29.362 4.83326 29.948 6.30824 29.948H24.8463C26.3213 29.948 27.7358 29.362 28.7788 28.3191C29.8218 27.2761 30.4077 25.8615 30.4077 24.3866V16.9713C30.4077 15.4964 29.8218 14.0818 28.7788 13.0388C27.7358 11.9958 26.3213 11.4099 24.8463 11.4099ZM19.2849 15.1175C20.0182 15.1175 20.735 14.9001 21.3447 14.4927C21.9544 14.0853 22.4296 13.5062 22.7103 12.8288C22.9909 12.1513 23.0643 11.4058 22.9213 10.6866C22.7782 9.96739 22.4251 9.30676 21.9066 8.78824C21.388 8.26972 20.7274 7.9166 20.0082 7.77354C19.289 7.63048 18.5435 7.70391 17.866 7.98453C17.1886 8.26515 16.6095 8.74036 16.2021 9.35007C15.7947 9.95979 15.5773 10.6766 15.5773 11.4099C15.5773 12.3932 15.9679 13.3363 16.6632 14.0316C17.3585 14.7269 18.3016 15.1175 19.2849 15.1175ZM12.7966 5.8485C13.3465 5.8485 13.8842 5.68541 14.3414 5.37986C14.7987 5.07431 15.1551 4.64003 15.3656 4.13192C15.5761 3.62381 15.6311 3.0647 15.5238 2.5253C15.4165 1.98589 15.1517 1.49042 14.7628 1.10153C14.3739 0.712642 13.8785 0.447805 13.3391 0.340511C12.7996 0.233216 12.2405 0.288284 11.7324 0.498749C11.2243 0.709214 10.79 1.06562 10.4845 1.52291C10.1789 1.98019 10.0159 2.51782 10.0159 3.06779C10.0159 3.80528 10.3088 4.51256 10.8303 5.03405C11.3518 5.55553 12.0591 5.8485 12.7966 5.8485ZM22.9925 3.99469C23.3591 3.99469 23.7176 3.88597 24.0224 3.68227C24.3273 3.47857 24.5649 3.18904 24.7052 2.85031C24.8455 2.51157 24.8822 2.13883 24.8107 1.77923C24.7391 1.41962 24.5626 1.08931 24.3033 0.830047C24.0441 0.570788 23.7138 0.39423 23.3542 0.3227C22.9945 0.251171 22.6218 0.287883 22.2831 0.428193C21.9443 0.568503 21.6548 0.80611 21.4511 1.11097C21.2474 1.41582 21.1387 1.77424 21.1387 2.14089C21.1387 2.63255 21.334 3.10407 21.6817 3.45172C22.0293 3.79938 22.5008 3.99469 22.9925 3.99469ZM10.0159 16.9713C9.03253 16.9713 8.08949 17.362 7.39418 18.0573C6.69886 18.7526 6.30824 19.6956 6.30824 20.6789C6.30824 21.6623 6.69886 22.6053 7.39418 23.3006C8.08949 23.9959 9.03253 24.3866 10.0159 24.3866H21.1387C22.122 24.3866 23.0651 23.9959 23.7604 23.3006C24.4557 22.6053 24.8463 21.6623 24.8463 20.6789C24.8463 19.6956 24.4557 18.7526 23.7604 18.0573C23.0651 17.362 22.122 16.9713 21.1387 16.9713H10.0159Z" fill="black"/>
</g>
<defs>
<clipPath id="clip0_201_4413">
<rect width="29.6609" height="29.6609" fill="white" transform="translate(0.746826 0.287109)"/>
</clipPath>
</defs>
</svg>
