<svg width="38" height="30" viewBox="0 0 38 30" fill="none" xmlns="http://www.w3.org/2000/svg">
<g clip-path="url(#clip0_201_4409)">
<path d="M25.3743 26.2409L22.5953 26.2438V24.3866H15.1801V26.2525L12.4005 26.2554C11.8896 26.256 11.4754 26.6702 11.4748 27.1817L11.4719 29.0199C11.4713 29.5326 11.8873 29.9485 12.4 29.948L25.3743 29.9329C25.8852 29.9323 26.2994 29.5181 26.3 29.0072L26.3023 27.169C26.3029 26.6563 25.887 26.2404 25.3743 26.2409ZM34.2505 1.83617C34.0988 0.942283 33.3115 0.287079 32.3886 0.287079H5.38505C4.4622 0.287079 3.67491 0.942283 3.52313 1.83617C0.156737 21.673 0.351386 20.4518 0.350807 20.6789C0.349069 21.6823 1.17865 22.5327 2.23937 22.5327H35.5349C36.591 22.5327 37.4182 21.6893 37.4229 20.6911C37.424 20.4547 37.6169 21.673 34.2505 1.83617ZM15.4014 3.99469H22.3723L22.9383 9.55611H14.8354L15.4014 3.99469ZM11.0467 18.8251H4.46741L5.56869 12.3368H11.7077L11.0467 18.8251ZM11.9904 9.55611H6.04025L6.98395 3.99469H12.5564L11.9904 9.55611ZM13.8917 18.8251L14.5521 12.3368H23.2216L23.882 18.8251H13.8917ZM25.2173 3.99469H30.7897L31.7334 9.55611H25.7833L25.2173 3.99469ZM26.727 18.8251L26.0666 12.3368H32.2056L33.3068 18.8251H26.727Z" fill="black"/>
</g>
<defs>
<clipPath id="clip0_201_4409">
<rect width="37.0761" height="29.6609" fill="white" transform="translate(0.349854 0.287109)"/>
</clipPath>
</defs>
</svg>
