<svg width="31" height="31" viewBox="0 0 31 31" fill="none" xmlns="http://www.w3.org/2000/svg">
<g clip-path="url(#clip0_201_4397)">
<path d="M18.0491 24.7257H14.3415C14.0956 24.7257 13.8599 24.8233 13.686 24.9972C13.5122 25.171 13.4145 25.4067 13.4145 25.6526V27.5064C13.4145 27.7522 13.5122 27.988 13.686 28.1618C13.8599 28.3356 14.0956 28.4333 14.3415 28.4333H18.0491C18.2949 28.4333 18.5307 28.3356 18.7045 28.1618C18.8783 27.988 18.976 27.7522 18.976 27.5064V25.6526C18.976 25.4067 18.8783 25.171 18.7045 24.9972C18.5307 24.8233 18.2949 24.7257 18.0491 24.7257ZM10.6338 21.0181H7.85313V3.40691C7.85313 3.16108 7.75548 2.92532 7.58165 2.75149C7.40782 2.57767 7.17206 2.48001 6.92623 2.48001H5.07242C4.82659 2.48001 4.59083 2.57767 4.41701 2.75149C4.24318 2.92532 4.14552 3.16108 4.14552 3.40691V21.0181H1.36481C0.542767 21.0181 0.126819 22.0168 0.710768 22.6002L5.34528 28.1616C5.51909 28.3353 5.75476 28.4329 6.00049 28.4329C6.24621 28.4329 6.48188 28.3353 6.65569 28.1616L11.2902 22.6002C11.8707 22.018 11.4576 21.0181 10.6338 21.0181ZM25.4643 9.89523H14.3415C14.0956 9.89523 13.8599 9.99289 13.686 10.1667C13.5122 10.3405 13.4145 10.5763 13.4145 10.8221V12.6759C13.4145 12.9218 13.5122 13.1575 13.686 13.3314C13.8599 13.5052 14.0956 13.6028 14.3415 13.6028H25.4643C25.7101 13.6028 25.9459 13.5052 26.1197 13.3314C26.2935 13.1575 26.3912 12.9218 26.3912 12.6759V10.8221C26.3912 10.5763 26.2935 10.3405 26.1197 10.1667C25.9459 9.99289 25.7101 9.89523 25.4643 9.89523ZM21.7567 17.3105H14.3415C14.0956 17.3105 13.8599 17.4081 13.686 17.5819C13.5122 17.7558 13.4145 17.9915 13.4145 18.2374V20.0912C13.4145 20.337 13.5122 20.5728 13.686 20.7466C13.8599 20.9204 14.0956 21.0181 14.3415 21.0181H21.7567C22.0025 21.0181 22.2383 20.9204 22.4121 20.7466C22.5859 20.5728 22.6836 20.337 22.6836 20.0912V18.2374C22.6836 17.9915 22.5859 17.7558 22.4121 17.5819C22.2383 17.4081 22.0025 17.3105 21.7567 17.3105ZM29.1719 2.48001H14.3415C14.0956 2.48001 13.8599 2.57767 13.686 2.75149C13.5122 2.92532 13.4145 3.16108 13.4145 3.40691V5.26072C13.4145 5.50655 13.5122 5.74231 13.686 5.91614C13.8599 6.08997 14.0956 6.18762 14.3415 6.18762H29.1719C29.4177 6.18762 29.6535 6.08997 29.8273 5.91614C30.0011 5.74231 30.0988 5.50655 30.0988 5.26072V3.40691C30.0988 3.16108 30.0011 2.92532 29.8273 2.75149C29.6535 2.57767 29.4177 2.48001 29.1719 2.48001Z" fill="black"/>
</g>
<defs>
<clipPath id="clip0_201_4397">
<rect width="29.6609" height="29.6609" fill="white" transform="translate(0.437866 0.626221)"/>
</clipPath>
</defs>
</svg>
