<svg width="27" height="31" viewBox="0 0 27 31" fill="none" xmlns="http://www.w3.org/2000/svg">
<g clip-path="url(#clip0_201_4383)">
<path d="M20.0823 15.6252C19.3271 15.832 18.6376 16.2291 18.0798 16.7786C17.5219 17.328 17.1144 18.0114 16.8961 18.7633C16.0694 21.7207 18.1236 24.4273 20.8835 24.703C20.5196 25.01 20.1126 25.262 19.6756 25.4509C19.2371 25.6479 19.05 26.1733 19.2018 26.6292L19.7753 27.7879C19.9415 28.2878 20.5012 28.5694 20.986 28.362C24.3461 26.9276 25.9826 24.7928 25.9826 20.715V20.0911C25.9815 17.1244 23.1787 14.7996 20.0823 15.6252ZM21.347 21.2497C21.1178 21.2497 20.8938 21.1818 20.7033 21.0545C20.5127 20.9272 20.3642 20.7462 20.2765 20.5345C20.1888 20.3228 20.1659 20.0898 20.2106 19.8651C20.2553 19.6403 20.3656 19.4339 20.5277 19.2718C20.6897 19.1098 20.8962 18.9994 21.1209 18.9547C21.3457 18.91 21.5786 18.933 21.7903 19.0207C22.0021 19.1084 22.183 19.2569 22.3103 19.4474C22.4376 19.6379 22.5056 19.8619 22.5056 20.0911C22.5056 20.3984 22.3835 20.6931 22.1662 20.9104C21.9489 21.1277 21.6542 21.2497 21.347 21.2497ZM18.5662 6.18756H19.4931V9.89517H18.5662C18.3204 9.89517 18.0847 9.99283 17.9108 10.1667C17.737 10.3405 17.6393 10.5762 17.6393 10.8221V12.6759C17.6393 12.9217 17.737 13.1575 17.9108 13.3313C18.0847 13.5051 18.3204 13.6028 18.5662 13.6028H24.1277C24.3735 13.6028 24.6093 13.5051 24.7831 13.3313C24.9569 13.1575 25.0546 12.9217 25.0546 12.6759V10.8221C25.0546 10.5762 24.9569 10.3405 24.7831 10.1667C24.6093 9.99283 24.3735 9.89517 24.1277 9.89517H23.2008V3.40685C23.2008 3.16102 23.1031 2.92526 22.9293 2.75143C22.7554 2.57761 22.5197 2.47995 22.2739 2.47995H19.4931C19.3213 2.4801 19.1529 2.52801 19.0067 2.61834C18.8605 2.70867 18.7423 2.83786 18.6653 2.99148L17.7384 4.84529C17.6676 4.98655 17.6341 5.14356 17.641 5.30142C17.648 5.45928 17.6952 5.61274 17.7781 5.74722C17.8611 5.88171 17.977 5.99277 18.1149 6.06983C18.2529 6.1469 18.4082 6.18743 18.5662 6.18756ZM7.17171 2.75165C6.9979 2.57795 6.76223 2.48038 6.51651 2.48038C6.27078 2.48038 6.03511 2.57795 5.8613 2.75165L1.22679 8.31307C0.645159 8.89528 1.05821 9.89517 1.88199 9.89517H4.6627V27.5063C4.6627 27.7522 4.76036 27.9879 4.93419 28.1617C5.10801 28.3356 5.34378 28.4332 5.58961 28.4332H7.44341C7.68924 28.4332 7.925 28.3356 8.09883 28.1617C8.27266 27.9879 8.37031 27.7522 8.37031 27.5063V9.89517H11.151C11.9742 9.89517 12.3896 8.89643 11.8062 8.31307L7.17171 2.75165Z" fill="black"/>
</g>
<defs>
<clipPath id="clip0_201_4383">
<rect width="25.9533" height="29.6609" fill="white" transform="translate(0.954834 0.626221)"/>
</clipPath>
</defs>
</svg>
