<svg width="31" height="31" viewBox="0 0 31 31" fill="none" xmlns="http://www.w3.org/2000/svg">
<g clip-path="url(#clip0_201_4399)">
<path d="M14.8323 6.18762H18.5399C18.7857 6.18762 19.0215 6.08997 19.1953 5.91614C19.3692 5.74231 19.4668 5.50655 19.4668 5.26072V3.40691C19.4668 3.16108 19.3692 2.92532 19.1953 2.75149C19.0215 2.57767 18.7857 2.48001 18.5399 2.48001H14.8323C14.5865 2.48001 14.3507 2.57767 14.1769 2.75149C14.0031 2.92532 13.9054 3.16108 13.9054 3.40691V5.26072C13.9054 5.50655 14.0031 5.74231 14.1769 5.91614C14.3507 6.08997 14.5865 6.18762 14.8323 6.18762ZM14.8323 13.6028H22.2475C22.4933 13.6028 22.7291 13.5052 22.9029 13.3314C23.0768 13.1575 23.1744 12.9218 23.1744 12.6759V10.8221C23.1744 10.5763 23.0768 10.3405 22.9029 10.1667C22.7291 9.99289 22.4933 9.89523 22.2475 9.89523H14.8323C14.5865 9.89523 14.3507 9.99289 14.1769 10.1667C14.0031 10.3405 13.9054 10.5763 13.9054 10.8221V12.6759C13.9054 12.9218 14.0031 13.1575 14.1769 13.3314C14.3507 13.5052 14.5865 13.6028 14.8323 13.6028ZM29.6627 24.7257H14.8323C14.5865 24.7257 14.3507 24.8233 14.1769 24.9972C14.0031 25.171 13.9054 25.4067 13.9054 25.6526V27.5064C13.9054 27.7522 14.0031 27.988 14.1769 28.1618C14.3507 28.3356 14.5865 28.4333 14.8323 28.4333H29.6627C29.9086 28.4333 30.1443 28.3356 30.3182 28.1618C30.492 27.988 30.5896 27.7522 30.5896 27.5064V25.6526C30.5896 25.4067 30.492 25.171 30.3182 24.9972C30.1443 24.8233 29.9086 24.7257 29.6627 24.7257ZM14.8323 21.0181H25.9551C26.201 21.0181 26.4367 20.9204 26.6105 20.7466C26.7844 20.5728 26.882 20.337 26.882 20.0912V18.2374C26.882 17.9915 26.7844 17.7558 26.6105 17.5819C26.4367 17.4081 26.201 17.3105 25.9551 17.3105H14.8323C14.5865 17.3105 14.3507 17.4081 14.1769 17.5819C14.0031 17.7558 13.9054 17.9915 13.9054 18.2374V20.0912C13.9054 20.337 14.0031 20.5728 14.1769 20.7466C14.3507 20.9204 14.5865 21.0181 14.8323 21.0181ZM11.1247 21.0181H8.34398V3.40691C8.34398 3.16108 8.24632 2.92532 8.07249 2.75149C7.89867 2.57767 7.6629 2.48001 7.41708 2.48001H5.56327C5.31744 2.48001 5.08168 2.57767 4.90785 2.75149C4.73402 2.92532 4.63637 3.16108 4.63637 3.40691V21.0181H1.85566C1.03361 21.0181 0.617664 22.0168 1.20161 22.6002L5.83613 28.1616C6.00994 28.3353 6.24561 28.4329 6.49133 28.4329C6.73706 28.4329 6.97272 28.3353 7.14654 28.1616L11.781 22.6002C12.3615 22.018 11.9485 21.0181 11.1247 21.0181Z" fill="black"/>
</g>
<defs>
<clipPath id="clip0_201_4399">
<rect width="29.6609" height="29.6609" fill="white" transform="translate(0.928711 0.626221)"/>
</clipPath>
</defs>
</svg>
