<svg width="27" height="31" viewBox="0 0 27 31" fill="none" xmlns="http://www.w3.org/2000/svg">
<g clip-path="url(#clip0_201_4385)">
<path d="M6.95522 2.75166C6.78141 2.57796 6.54574 2.48039 6.30002 2.48039C6.05429 2.48039 5.81862 2.57796 5.64481 2.75166L1.0103 8.31308C0.428667 8.89529 0.841718 9.89518 1.6655 9.89518H4.44621V27.5063C4.44621 27.7522 4.54387 27.9879 4.71769 28.1618C4.89152 28.3356 5.12728 28.4332 5.37311 28.4332H7.22692C7.47275 28.4332 7.70851 28.3356 7.88234 28.1618C8.05617 27.9879 8.15382 27.7522 8.15382 27.5063V9.89518H10.9345C11.7577 9.89518 12.1731 8.89645 11.5897 8.31308L6.95522 2.75166ZM23.9112 24.7256H22.9843V18.2373C22.9843 17.9915 22.8866 17.7557 22.7128 17.5819C22.539 17.4081 22.3032 17.3104 22.0574 17.3104H19.2767C19.1048 17.3106 18.9364 17.3585 18.7902 17.4488C18.644 17.5391 18.5258 17.6683 18.4488 17.8219L17.5219 19.6757C17.4511 19.817 17.4176 19.974 17.4245 20.1319C17.4315 20.2897 17.4787 20.4432 17.5616 20.5777C17.6446 20.7122 17.7605 20.8232 17.8985 20.9003C18.0364 20.9774 18.1917 21.0179 18.3498 21.018H19.2767V24.7256H18.3498C18.1039 24.7256 17.8682 24.8233 17.6943 24.9971C17.5205 25.1709 17.4229 25.4067 17.4229 25.6525V27.5063C17.4229 27.7522 17.5205 27.9879 17.6943 28.1618C17.8682 28.3356 18.1039 28.4332 18.3498 28.4332H23.9112C24.157 28.4332 24.3928 28.3356 24.5666 28.1618C24.7404 27.9879 24.8381 27.7522 24.8381 27.5063V25.6525C24.8381 25.4067 24.7404 25.1709 24.5666 24.9971C24.3928 24.8233 24.157 24.7256 23.9112 24.7256ZM19.8658 2.64854C19.1106 2.85537 18.4211 3.25249 17.8633 3.80193C17.3054 4.35136 16.8979 5.03474 16.6796 5.78669C15.8529 8.74409 17.9072 11.4506 20.667 11.7264C20.3031 12.0334 19.8962 12.2854 19.4591 12.4743C19.0206 12.6713 18.8335 13.1967 18.9853 13.6526L19.5588 14.8112C19.725 15.3112 20.2847 15.5927 20.7695 15.3853C24.1296 13.9504 25.7661 11.8162 25.7661 7.7384V7.11448C25.765 4.14781 22.9623 1.82302 19.8658 2.64854ZM21.1305 8.2731C20.9013 8.2731 20.6773 8.20515 20.4868 8.07784C20.2962 7.95053 20.1477 7.76958 20.06 7.55786C19.9723 7.34615 19.9494 7.11319 19.9941 6.88844C20.0388 6.66369 20.1492 6.45724 20.3112 6.2952C20.4732 6.13316 20.6797 6.02282 20.9044 5.97811C21.1292 5.9334 21.3621 5.95635 21.5739 6.04404C21.7856 6.13174 21.9665 6.28024 22.0938 6.47078C22.2211 6.66131 22.2891 6.88532 22.2891 7.11448C22.2891 7.42176 22.167 7.71647 21.9497 7.93375C21.7325 8.15104 21.4377 8.2731 21.1305 8.2731Z" fill="black"/>
</g>
<defs>
<clipPath id="clip0_201_4385">
<rect width="25.9533" height="29.6609" fill="white" transform="translate(0.738159 0.626221)"/>
</clipPath>
</defs>
</svg>
