<svg width="27" height="31" viewBox="0 0 27 31" fill="none" xmlns="http://www.w3.org/2000/svg">
<g clip-path="url(#clip0_201_4401)">
<path d="M1.34574 9.89523H4.12645V27.5064C4.12645 27.7522 4.2241 27.988 4.39793 28.1618C4.57176 28.3356 4.80752 28.4333 5.05335 28.4333H6.90716C7.15299 28.4333 7.38875 28.3356 7.56258 28.1618C7.7364 27.988 7.83406 27.7522 7.83406 27.5064V9.89523H10.6148C11.438 9.89523 11.8533 8.8965 11.27 8.31313L6.63546 2.75171C6.46165 2.57801 6.22598 2.48044 5.98025 2.48044C5.73453 2.48044 5.49886 2.57801 5.32505 2.75171L0.690535 8.31313C0.108904 8.89534 0.521955 9.89523 1.34574 9.89523ZM24.5183 17.3105H17.1031C16.8573 17.3105 16.6215 17.4081 16.4477 17.5819C16.2738 17.7558 16.1762 17.9915 16.1762 18.2374V20.0912C16.1762 20.337 16.2738 20.5728 16.4477 20.7466C16.6215 20.9204 16.8573 21.0181 17.1031 21.0181H20.3472L16.7984 25.0993C16.6027 25.2733 16.4461 25.4867 16.3388 25.7255C16.2316 25.9644 16.1762 26.2232 16.1762 26.4851V27.5064C16.1762 27.7522 16.2738 27.988 16.4477 28.1618C16.6215 28.3356 16.8573 28.4333 17.1031 28.4333H24.5183C24.7641 28.4333 24.9999 28.3356 25.1737 28.1618C25.3476 27.988 25.4452 27.7522 25.4452 27.5064V25.6526C25.4452 25.4067 25.3476 25.171 25.1737 24.9972C24.9999 24.8233 24.7641 24.7257 24.5183 24.7257H21.2742L24.823 20.6444C25.0187 20.4705 25.1753 20.257 25.2826 20.0182C25.3898 19.7794 25.4452 19.5205 25.4452 19.2587V18.2374C25.4452 17.9915 25.3476 17.7558 25.1737 17.5819C24.9999 17.4081 24.7641 17.3105 24.5183 17.3105ZM26.3177 12.3643L22.8841 3.09524C22.8198 2.91517 22.7014 2.75939 22.5451 2.64925C22.3888 2.5391 22.2022 2.47999 22.011 2.48001H19.6104C19.4192 2.47999 19.2326 2.5391 19.0763 2.64925C18.92 2.75939 18.8016 2.91517 18.7373 3.09524L15.3037 12.3643C15.2538 12.5041 15.2382 12.6539 15.2582 12.801C15.2783 12.9482 15.3334 13.0883 15.4189 13.2097C15.5044 13.3311 15.6178 13.4302 15.7496 13.4986C15.8814 13.567 16.0277 13.6028 16.1762 13.6028H17.6146C17.8107 13.6029 18.0017 13.5408 18.1602 13.4255C18.3188 13.3101 18.4366 13.1475 18.4969 12.961L18.753 12.2125H22.8661L23.1216 12.961C23.182 13.1479 23.3002 13.3108 23.4592 13.4262C23.6182 13.5415 23.8098 13.6034 24.0062 13.6028H25.4452C25.5937 13.6028 25.74 13.567 25.8718 13.4986C26.0036 13.4302 26.117 13.3311 26.2025 13.2097C26.288 13.0883 26.3431 12.9482 26.3632 12.801C26.3832 12.6539 26.3676 12.5041 26.3177 12.3643ZM19.8612 8.96833L20.8107 6.18762L21.7602 8.96833H19.8612Z" fill="black"/>
</g>
<defs>
<clipPath id="clip0_201_4401">
<rect width="25.9533" height="29.6609" fill="white" transform="translate(0.419556 0.626221)"/>
</clipPath>
</defs>
</svg>
