<svg width="27" height="31" viewBox="0 0 27 31" fill="none" xmlns="http://www.w3.org/2000/svg">
<g clip-path="url(#clip0_201_4387)">
<path d="M18.1323 6.18756H19.0592V9.89517H18.1323C17.8865 9.89517 17.6507 9.99283 17.4769 10.1667C17.3031 10.3405 17.2054 10.5762 17.2054 10.8221V12.6759C17.2054 12.9217 17.3031 13.1575 17.4769 13.3313C17.6507 13.5051 17.8865 13.6028 18.1323 13.6028H23.6937C23.9395 13.6028 24.1753 13.5051 24.3491 13.3313C24.523 13.1575 24.6206 12.9217 24.6206 12.6759V10.8221C24.6206 10.5762 24.523 10.3405 24.3491 10.1667C24.1753 9.99283 23.9395 9.89517 23.6937 9.89517H22.7668V3.40685C22.7668 3.16102 22.6692 2.92526 22.4953 2.75143C22.3215 2.57761 22.0857 2.47995 21.8399 2.47995H19.0592C18.8874 2.4801 18.7189 2.52801 18.5728 2.61834C18.4266 2.70867 18.3084 2.83786 18.2314 2.99148L17.3045 4.84529C17.2337 4.98655 17.2001 5.14356 17.2071 5.30142C17.214 5.45928 17.2612 5.61274 17.3442 5.74722C17.4271 5.88171 17.5431 5.99277 17.681 6.06983C17.8189 6.1469 17.9743 6.18743 18.1323 6.18756ZM19.6472 15.6252C18.892 15.832 18.2025 16.2291 17.6447 16.7786C17.0868 17.328 16.6793 18.0114 16.461 18.7633C15.6355 21.7207 17.6897 24.4273 20.4496 24.703C20.0857 25.01 19.6787 25.262 19.2417 25.4509C18.8031 25.6479 18.616 26.1733 18.7678 26.6292L19.3413 27.7879C19.5076 28.2878 20.0672 28.5694 20.5521 28.362C23.9121 26.9276 25.5487 24.7928 25.5487 20.715V20.0911C25.5475 17.1244 22.7448 14.7996 19.6484 15.6252H19.6472ZM20.913 21.2497C20.6839 21.2497 20.4598 21.1818 20.2693 21.0545C20.0788 20.9272 19.9303 20.7462 19.8426 20.5345C19.7549 20.3228 19.7319 20.0898 19.7766 19.8651C19.8214 19.6403 19.9317 19.4339 20.0937 19.2718C20.2558 19.1098 20.4622 18.9994 20.687 18.9547C20.9117 18.91 21.1447 18.933 21.3564 19.0207C21.5681 19.1084 21.7491 19.2569 21.8764 19.4474C22.0037 19.6379 22.0716 19.8619 22.0716 20.0911C22.0716 20.3984 21.9496 20.6931 21.7323 20.9104C21.515 21.1277 21.2203 21.2497 20.913 21.2497ZM10.7171 21.018H7.93637V3.40685C7.93637 3.16102 7.83872 2.92526 7.66489 2.75143C7.49106 2.57761 7.2553 2.47995 7.00947 2.47995H5.15566C4.90983 2.47995 4.67407 2.57761 4.50024 2.75143C4.32642 2.92526 4.22876 3.16102 4.22876 3.40685V21.018H1.44805C0.626006 21.018 0.210637 22.0167 0.794007 22.6001L5.42852 28.1615C5.60233 28.3352 5.838 28.4328 6.08372 28.4328C6.32945 28.4328 6.56512 28.3352 6.73893 28.1615L11.3734 22.6001C11.9539 22.0179 11.5409 21.018 10.7171 21.018Z" fill="black"/>
</g>
<defs>
<clipPath id="clip0_201_4387">
<rect width="25.9533" height="29.6609" fill="white" transform="translate(0.521484 0.626221)"/>
</clipPath>
</defs>
</svg>
