<svg width="34" height="31" viewBox="0 0 34 31" fill="none" xmlns="http://www.w3.org/2000/svg">
<g clip-path="url(#clip0_201_4377)">
<path d="M32.9397 11.749C31.2574 11.7565 25.1184 12.1059 20.5516 16.5573C18.6329 18.2738 17.4604 20.2244 16.7044 22.0527C15.9484 20.2244 14.7759 18.2738 12.8572 16.5573C8.29045 12.1059 2.15146 11.7565 0.46913 11.749C0.213653 11.7478 0.0178447 11.946 0.020162 12.202C0.0334862 13.8195 0.433792 19.5095 5.16273 23.7478C10.0301 28.4877 14.8506 28.4332 16.7044 28.4332C18.5582 28.4332 23.3775 28.4883 28.2461 23.7478C32.9756 19.5089 33.3753 13.8195 33.3887 12.202C33.391 11.946 33.1952 11.7478 32.9397 11.749ZM16.7033 18.1562C17.4459 17.0642 18.3022 16.0834 19.2575 15.2295C20.3634 14.1514 21.5504 13.3004 22.7484 12.6122C21.796 8.52801 19.7522 4.9044 17.1447 2.63522C16.9066 2.42783 16.5063 2.42783 16.2676 2.63522C13.6613 4.90266 11.6175 8.52279 10.6633 12.6035C11.8434 13.2813 13.0095 14.1178 14.094 15.1751C15.0812 16.0596 15.9573 17.0606 16.7033 18.1562Z" fill="black"/>
</g>
<defs>
<clipPath id="clip0_201_4377">
<rect width="33.3685" height="29.6609" fill="white" transform="translate(0.0202637 0.626221)"/>
</clipPath>
</defs>
</svg>
