<svg width="38" height="31" viewBox="0 0 38 31" fill="none" xmlns="http://www.w3.org/2000/svg">
<g clip-path="url(#clip0_201_4375)">
<path d="M34.4443 12.69C32.5401 11.7974 29.9936 11.2855 27.4575 11.2855H10.9081C10.6212 10.9058 10.2949 10.5916 9.93947 10.3586H21.8961C13.3893 8.60602 12.8242 2.47995 5.67548 2.47995H5.67531V9.89517H4.74841V2.47995C3.21264 2.47995 1.9677 4.13992 1.9677 6.18756V9.89517C0.623862 9.89517 0.113892 10.4763 0.113892 11.2855V13.6028C0.113892 14.4128 0.624789 14.9931 1.9677 14.9931V15.92C0.623862 15.92 0.113892 16.5012 0.113892 17.3104V19.6277C0.113892 20.4377 0.624789 21.018 1.9677 21.018V24.7256C1.9677 26.7733 3.21264 28.4332 4.74841 28.4332V21.018H5.67531V28.4332H5.67548C12.8242 28.4332 13.3893 22.3072 21.8961 20.5546H9.93941C10.2948 20.3216 10.6211 20.0074 10.908 19.6277H27.4575C29.9936 19.6277 32.5401 19.1158 34.4443 18.2232C36.1636 17.4173 37.19 16.383 37.19 15.4566C37.19 14.5301 36.1636 13.4959 34.4443 12.69ZM28.3844 17.7738C28.2615 17.7738 28.1436 17.725 28.0567 17.6381C27.9698 17.5512 27.921 17.4333 27.921 17.3104V13.6028C27.921 13.4799 27.9698 13.362 28.0567 13.2751C28.1436 13.1882 28.2615 13.1393 28.3844 13.1393C30.233 13.1393 30.2349 17.7738 28.3844 17.7738Z" fill="black"/>
</g>
<defs>
<clipPath id="clip0_201_4375">
<rect width="37.0761" height="29.6609" fill="white" transform="translate(0.114014 0.626221)"/>
</clipPath>
</defs>
</svg>
