<svg width="35" height="31" viewBox="0 0 35 31" fill="none" xmlns="http://www.w3.org/2000/svg">
<g clip-path="url(#clip0_201_4373)">
<path d="M16.6722 15.4566H21.9648C24.4674 15.4566 26.7152 13.5912 26.8606 11.0921C26.9005 10.4129 26.79 9.73328 26.5371 9.10172C26.2841 8.47015 25.8949 7.90218 25.3972 7.43831C25.8227 6.64101 26.0052 5.73651 25.9221 4.83662C25.7037 2.39712 23.4675 0.62616 21.017 0.62616H16.6722C16.4264 0.62616 16.1906 0.723815 16.0168 0.897643C15.8429 1.07147 15.7453 1.30723 15.7453 1.55306V14.5297C15.7453 14.7755 15.8429 15.0113 16.0168 15.1851C16.1906 15.3589 16.4264 15.4566 16.6722 15.4566ZM18.9894 3.87032H21.3067C21.6754 3.87032 22.0291 4.0168 22.2898 4.27754C22.5506 4.53829 22.6971 4.89193 22.6971 5.26067C22.6971 5.62942 22.5506 5.98306 22.2898 6.2438C22.0291 6.50454 21.6754 6.65103 21.3067 6.65103H18.9894V3.87032ZM18.9894 9.43174H22.2336C22.6024 9.43174 22.956 9.57822 23.2167 9.83896C23.4775 10.0997 23.624 10.4533 23.624 10.8221C23.624 11.1908 23.4775 11.5445 23.2167 11.8052C22.956 12.066 22.6024 12.2124 22.2336 12.2124H18.9894V9.43174ZM9.90117 1.91513C9.78144 1.54088 9.54589 1.21434 9.22852 0.982661C8.91114 0.750981 8.52836 0.626141 8.13542 0.62616L6.67091 0.62616C6.27797 0.626141 5.89518 0.750981 5.57781 0.982661C5.26043 1.21434 5.02488 1.54088 4.90516 1.91513L0.949023 14.2823C0.910918 14.4199 0.905118 14.5645 0.932074 14.7047C0.959031 14.8449 1.01802 14.977 1.10443 15.0907C1.19084 15.2043 1.30234 15.2965 1.43024 15.36C1.55813 15.4234 1.69896 15.4565 1.84175 15.4566H3.28598C3.4887 15.4566 3.68583 15.3902 3.84718 15.2674C4.00852 15.1447 4.12518 14.9724 4.17928 14.7771L4.87098 12.6759H9.93535L10.627 14.7771C10.6811 14.9724 10.7978 15.1447 10.9592 15.2674C11.1205 15.3902 11.3176 15.4566 11.5203 15.4566H12.9646C13.1074 15.4566 13.2483 15.4236 13.3763 15.3602C13.5042 15.2967 13.6158 15.2046 13.7023 15.0909C13.7888 14.9772 13.8478 14.8451 13.8748 14.7048C13.9018 14.5646 13.896 14.42 13.8579 14.2823L9.90117 1.91513ZM6.09218 8.96828L7.40316 4.9884L8.71415 8.96828H6.09218ZM34.0151 16.643L31.396 14.0187C31.3105 13.9322 31.2086 13.8634 31.0963 13.8165C30.9839 13.7696 30.8634 13.7454 30.7417 13.7454C30.62 13.7454 30.4995 13.7696 30.3871 13.8165C30.2748 13.8634 30.1729 13.9322 30.0874 14.0187L21.3108 22.7954L18.1008 19.5802C18.0152 19.4936 17.9133 19.4248 17.801 19.3779C17.6887 19.331 17.5682 19.3069 17.4464 19.3069C17.3247 19.3069 17.2042 19.331 17.0919 19.3779C16.9796 19.4248 16.8777 19.4936 16.7921 19.5802L14.1678 22.2045C13.9946 22.3782 13.8974 22.6135 13.8974 22.8588C13.8974 23.1041 13.9946 23.3394 14.1678 23.5131L20.6561 30.0136C20.7417 30.1002 20.8437 30.169 20.9561 30.2159C21.0684 30.2628 21.189 30.287 21.3108 30.287C21.4325 30.287 21.5531 30.2628 21.6655 30.2159C21.7778 30.169 21.8798 30.1002 21.9654 30.0136L34.0151 17.9517C34.1881 17.7778 34.2852 17.5424 34.2849 17.2971C34.2847 17.0518 34.1873 16.8166 34.014 16.643H34.0151Z" fill="black"/>
</g>
<defs>
<clipPath id="clip0_201_4373">
<rect width="33.3685" height="29.6609" fill="white" transform="translate(0.915527 0.626221)"/>
</clipPath>
</defs>
</svg>
