<svg width="35" height="31" viewBox="0 0 35 31" fill="none" xmlns="http://www.w3.org/2000/svg">
<g clip-path="url(#clip0_201_4371)">
<path d="M9.4745 10.321L10.9767 10.8221H11.2472L11.5496 9.30891C11.5913 9.10151 11.6539 8.86979 11.7356 8.62589L10.5601 6.27504L11.9389 2.13931C12.1005 1.65385 11.8387 1.12899 11.3526 0.966781L10.4738 0.673648C9.98835 0.51144 9.46291 0.773869 9.30128 1.25991L7.80144 5.76003C7.64611 6.22644 7.68215 6.73542 7.90166 7.17529L9.4745 10.321ZM33.9297 20.8662L30.8738 16.2827C30.7045 16.0288 30.4752 15.8206 30.2062 15.6766C29.9372 15.5326 29.6368 15.4572 29.3317 15.4572H24.8165L28.8132 14.046C29.2043 13.9155 29.5408 13.6584 29.7696 13.3154L32.8747 8.65718C33.1586 8.23138 33.0433 7.65554 32.6175 7.37168L31.8465 6.85725C31.4207 6.57338 30.8448 6.68867 30.561 7.11446L27.6319 11.5074L24.1271 12.6759H22.0358L21.435 9.67214C21.3082 9.03663 20.4288 6.18756 17.4013 6.18756C14.3738 6.18756 13.4944 9.03663 13.3675 9.67214L12.7667 12.6759H10.6754L7.17115 11.5074L4.24155 7.11446C3.95769 6.68867 3.38243 6.57338 2.95606 6.85725L2.18499 7.37168C1.75919 7.65554 1.64391 8.2308 1.92777 8.65718L5.0329 13.3154C5.2617 13.6584 5.59822 13.9155 5.98935 14.046L9.98603 15.4566H5.47086C5.16564 15.4567 4.86516 15.532 4.59605 15.676C4.32694 15.82 4.09753 16.0282 3.92814 16.2821L0.872841 20.8662C0.588977 21.292 0.703681 21.8679 1.13006 22.1517L1.90112 22.6662C2.32692 22.95 2.90276 22.8347 3.18662 22.4089L5.96733 18.2379H8.69358L5.16962 23.8763C4.98552 24.171 4.88796 24.5114 4.88807 24.8589V29.3601C4.88807 29.8722 5.30286 30.287 5.81497 30.287H6.74187C7.25399 30.287 7.66878 29.8722 7.66878 29.3601V25.1248L11.9603 18.2582C11.9018 19.0721 11.8398 19.8866 11.8398 20.7034C11.8398 23.7779 14.2011 26.5794 17.4013 26.5794C20.6014 26.5794 22.9627 23.7779 22.9627 20.7034C22.9627 19.8866 22.9001 19.0721 22.8422 18.2582L27.1337 25.1248V29.3601C27.1337 29.8722 27.5485 30.287 28.0606 30.287H28.9875C29.4997 30.287 29.9144 29.8722 29.9144 29.3601V24.8583C29.9144 24.5107 29.8165 24.1701 29.6329 23.8758L26.1089 18.2373H28.8352L31.6159 22.4084C31.8998 22.8342 32.4756 22.9494 32.9014 22.6656L33.6725 22.1511C34.0988 21.8673 34.2135 21.292 33.9297 20.8662ZM24.2424 6.27504L23.0669 8.62589C23.1486 8.86979 23.2112 9.10151 23.2529 9.30891L23.5553 10.8221H23.8259L25.328 10.321L26.9009 7.17529C27.0097 6.95753 27.0745 6.72046 27.0917 6.47763C27.1089 6.2348 27.0781 5.99095 27.0011 5.76003L25.5012 1.25991C25.3396 0.774449 24.8142 0.51144 24.3287 0.673648L23.4499 0.966781C22.9644 1.12899 22.702 1.65385 22.8636 2.13931L24.2424 6.27504Z" fill="black"/>
</g>
<defs>
<clipPath id="clip0_201_4371">
<rect width="33.3685" height="29.6609" fill="white" transform="translate(0.717041 0.626221)"/>
</clipPath>
</defs>
</svg>
