<svg width="30" height="31" viewBox="0 0 30 31" fill="none" xmlns="http://www.w3.org/2000/svg">
<g clip-path="url(#clip0_201_4365)">
<path d="M13.221 2.47997C13.221 1.45632 12.3909 0.62616 11.3672 0.62616H7.65961C6.63596 0.62616 5.8058 1.45632 5.8058 2.47997V8.04138H13.221V2.47997ZM28.0515 8.04138C27.0278 8.04138 26.1977 8.87154 26.1977 9.89519C26.1977 10.9188 27.0278 11.749 28.0515 11.749C29.0751 11.749 29.9053 10.9188 29.9053 9.89519C29.9053 8.87154 29.0751 8.04138 28.0515 8.04138ZM13.221 9.89519H5.8058C2.73428 9.89519 0.244385 12.3851 0.244385 15.4566V28.4332C0.244385 29.4569 1.07454 30.287 2.09819 30.287H16.9286C17.9523 30.287 18.7824 29.4569 18.7824 28.4332V15.4566C18.7824 12.3851 16.2925 9.89519 13.221 9.89519ZM9.51341 24.7256C6.954 24.7256 4.8789 22.6505 4.8789 20.0911C4.8789 17.5317 6.954 15.4566 9.51341 15.4566C12.0728 15.4566 14.1479 17.5317 14.1479 20.0911C14.1479 22.6505 12.0728 24.7256 9.51341 24.7256ZM28.0515 6.18758C29.0751 6.18758 29.9053 5.35742 29.9053 4.33377C29.9053 3.31012 29.0751 2.47997 28.0515 2.47997C27.0278 2.47997 26.1977 3.31012 26.1977 4.33377C26.1977 5.35742 27.0278 6.18758 28.0515 6.18758ZM22.4901 8.04138C21.4664 8.04138 20.6362 8.87154 20.6362 9.89519C20.6362 10.9188 21.4664 11.749 22.4901 11.749C23.5137 11.749 24.3439 10.9188 24.3439 9.89519C24.3439 8.87154 23.5137 8.04138 22.4901 8.04138ZM16.9286 2.47997C15.905 2.47997 15.0748 3.31012 15.0748 4.33377C15.0748 5.35742 15.905 6.18758 16.9286 6.18758C17.9523 6.18758 18.7824 5.35742 18.7824 4.33377C18.7824 3.31012 17.9523 2.47997 16.9286 2.47997ZM22.4901 2.47997C21.4664 2.47997 20.6362 3.31012 20.6362 4.33377C20.6362 5.35742 21.4664 6.18758 22.4901 6.18758C23.5137 6.18758 24.3439 5.35742 24.3439 4.33377C24.3439 3.31012 23.5137 2.47997 22.4901 2.47997ZM28.0515 13.6028C27.0278 13.6028 26.1977 14.433 26.1977 15.4566C26.1977 16.4803 27.0278 17.3104 28.0515 17.3104C29.0751 17.3104 29.9053 16.4803 29.9053 15.4566C29.9053 14.433 29.0751 13.6028 28.0515 13.6028Z" fill="black"/>
</g>
<defs>
<clipPath id="clip0_201_4365">
<rect width="29.6609" height="29.6609" fill="white" transform="translate(0.244385 0.626221)"/>
</clipPath>
</defs>
</svg>
