<svg width="30" height="31" viewBox="0 0 30 31" fill="none" xmlns="http://www.w3.org/2000/svg">
<g clip-path="url(#clip0_201_4357)">
<path d="M2.13469 30.287H28.088V26.5794H2.13469V30.287ZM24.3804 15.4566H20.5244C19.5825 15.4566 18.8189 14.6931 18.8189 13.7511V13.2031C18.8189 11.6175 19.3334 10.109 20.0621 8.70064C20.5899 7.68047 20.8095 6.47665 20.5864 5.20042C20.1942 2.95384 18.3578 1.10467 16.1106 0.713634C12.5983 0.102457 9.54991 2.78874 9.54991 6.18757C9.54991 7.00788 9.73066 7.78301 10.0533 8.4805C10.8256 10.1518 11.4037 11.9054 11.4037 13.747V13.7511C11.4037 14.6931 10.6402 15.4566 9.69822 15.4566H5.8423C2.77078 15.4566 0.280884 17.9465 0.280884 21.018V22.8718C0.280884 23.8955 1.11104 24.7256 2.13469 24.7256H28.088C29.1116 24.7256 29.9418 23.8955 29.9418 22.8718V21.018C29.9418 17.9465 27.4519 15.4566 24.3804 15.4566Z" fill="black"/>
</g>
<defs>
<clipPath id="clip0_201_4357">
<rect width="29.6609" height="29.6609" fill="white" transform="translate(0.280762 0.626221)"/>
</clipPath>
</defs>
</svg>
