<svg width="32" height="31" viewBox="0 0 32 31" fill="none" xmlns="http://www.w3.org/2000/svg">
<g clip-path="url(#clip0_201_4353)">
<path d="M30.369 10.562L21.8896 9.32746L18.1003 1.65792C17.7596 0.97259 17.0952 0.62616 16.4307 0.62616C15.7703 0.62616 15.1104 0.967955 14.7686 1.65792L10.9782 9.32688L2.49819 10.5602C0.97749 10.7804 0.368052 12.651 1.47049 13.7227L7.60485 19.6897L6.15308 28.1175C5.94685 29.3213 6.90793 30.287 7.9843 30.287C8.2699 30.287 8.56361 30.2193 8.84574 30.0698L16.4319 26.0911L24.0174 30.071C24.2989 30.2187 24.5921 30.2859 24.8765 30.2859C25.954 30.2859 26.9169 29.3236 26.7106 28.1193L25.2606 19.6908L31.3961 13.725C32.4991 12.6533 31.8897 10.7821 30.369 10.562ZM23.3164 17.6991L22.2667 18.7199L22.5147 20.1612L23.6455 26.7335L17.7289 23.629L16.4324 22.9489L16.4342 4.57361L19.3904 10.5573L20.0381 11.8683L21.487 12.0792L28.1045 13.0426L23.3164 17.6991Z" fill="black"/>
</g>
<defs>
<clipPath id="clip0_201_4353">
<rect width="31.0512" height="29.6609" fill="white" transform="translate(0.908691 0.626221)"/>
</clipPath>
</defs>
</svg>
