<svg width="27" height="31" viewBox="0 0 27 31" fill="none" xmlns="http://www.w3.org/2000/svg">
<g clip-path="url(#clip0_201_4349)">
<path d="M23.5021 15.4566L26.5846 10.2781C27.4194 8.87559 26.387 7.11448 24.7302 7.11448H18.5362L15.2949 1.67008C14.8807 0.974328 14.1606 0.62616 13.4405 0.62616C12.7204 0.62616 12.0003 0.974328 11.5861 1.67008L8.34487 7.11448H2.15027C0.493428 7.11448 -0.53891 8.87559 0.295882 10.2781L3.37899 15.4566L0.295882 20.6351C-0.53891 22.0376 0.493428 23.7987 2.15027 23.7987H8.34487L11.5861 29.2431C12.0003 29.9389 12.7204 30.287 13.4405 30.287C14.1606 30.287 14.8807 29.9389 15.2949 29.2431L18.5362 23.7987H24.7308C26.3876 23.7987 27.42 22.0376 26.5852 20.6351L23.5021 15.4566ZM22.7617 10.3586L21.6146 12.2854L20.4676 10.3586H22.7617ZM19.7267 15.4566L16.6916 20.5546H10.1894L7.15438 15.4566L10.1888 10.3586H16.6916L19.7267 15.4566ZM13.4405 4.89686L14.7608 7.11448H12.1208L13.4405 4.89686ZM4.11936 10.3586H6.41344L5.2664 12.2854L4.11936 10.3586ZM4.11936 20.5546L5.2664 18.6278L6.41344 20.5546H4.11936ZM13.4405 26.0163L12.1203 23.7987H14.7602L13.4405 26.0163ZM20.467 20.5546L21.6141 18.6278L22.7617 20.5546H20.467Z" fill="black"/>
</g>
<defs>
<clipPath id="clip0_201_4349">
<rect width="26.8802" height="29.6609" fill="white" transform="translate(0 0.626221)"/>
</clipPath>
</defs>
</svg>
