<svg width="31" height="31" viewBox="0 0 31 31" fill="none" xmlns="http://www.w3.org/2000/svg">
<g clip-path="url(#clip0_201_4339)">
<path d="M26.5066 7.45365C24.5254 7.48262 22.8975 9.0989 22.8569 11.0802C22.828 12.4879 23.5811 13.7218 24.7107 14.3707V20.8937C24.7107 24.2132 21.8026 26.9186 18.2224 26.9186C14.7465 26.9186 11.8963 24.3638 11.7399 21.1718C15.9573 20.3028 19.1435 16.5605 19.1435 12.0882V3.08562C19.1435 2.4252 18.6743 1.85168 18.0254 1.72423L14.3816 0.994296C13.6285 0.843675 12.8985 1.3303 12.7479 2.08341L12.5625 2.99293C12.4119 3.74604 12.8985 4.47598 13.6516 4.6266L15.4301 4.97998V12.0129C15.4301 15.0774 12.9854 17.6148 9.92084 17.6438C6.8273 17.6728 4.30729 15.1701 4.30729 12.0824V4.98577L6.08578 4.63239C6.83889 4.48177 7.32551 3.75183 7.17489 2.99872L6.99531 2.0892C6.84468 1.33609 6.11475 0.849468 5.36164 1.00009L1.72355 1.71844C1.07471 1.85168 0.605469 2.41941 0.605469 3.08562V12.0882C0.605469 16.5663 3.79749 20.3144 8.02648 21.1718C8.17711 26.4088 12.69 30.6262 18.2166 30.6262C23.836 30.6262 28.4126 26.2582 28.4126 20.8937V14.3707C29.519 13.7276 30.2664 12.5342 30.2664 11.1613C30.2664 9.09311 28.5748 7.42469 26.5066 7.45365ZM26.5587 12.0882C26.049 12.0882 25.6318 11.6711 25.6318 11.1613C25.6318 10.6515 26.049 10.2344 26.5587 10.2344C27.0685 10.2344 27.4856 10.6515 27.4856 11.1613C27.4856 11.6711 27.0685 12.0882 26.5587 12.0882Z" fill="black"/>
</g>
<defs>
<clipPath id="clip0_201_4339">
<rect width="29.6609" height="29.6609" fill="white" transform="translate(0.605469 0.965332)"/>
</clipPath>
</defs>
</svg>
