<svg width="30" height="31" viewBox="0 0 30 31" fill="none" xmlns="http://www.w3.org/2000/svg">
<g clip-path="url(#clip0_201_4335)">
<path d="M15.1614 1.4288C7.22476 1.4288 0.794373 7.85919 0.794373 15.7958C0.794373 23.7324 7.22476 30.1628 15.1614 30.1628C23.098 30.1628 29.5284 23.7324 29.5284 15.7958C29.5284 7.85919 23.098 1.4288 15.1614 1.4288ZM20.7228 20.4303C20.7228 20.9401 20.3057 21.3572 19.7959 21.3572H10.5269C10.0171 21.3572 9.59995 20.9401 9.59995 20.4303V11.1613C9.59995 10.6515 10.0171 10.2344 10.5269 10.2344H19.7959C20.3057 10.2344 20.7228 10.6515 20.7228 11.1613V20.4303Z" fill="black"/>
</g>
<defs>
<clipPath id="clip0_201_4335">
<rect width="29.6609" height="29.6609" fill="white" transform="translate(0.331299 0.965332)"/>
</clipPath>
</defs>
</svg>
