<svg width="38" height="31" viewBox="0 0 38 31" fill="none" xmlns="http://www.w3.org/2000/svg">
<g clip-path="url(#clip0_201_4325)">
<path d="M18.7072 23.211H7.58437V13.942H3.87676V28.7724C3.87676 29.7978 4.70518 30.6262 5.73057 30.6262H20.561C21.5864 30.6262 22.4148 29.7978 22.4148 28.7724V13.942H18.7072V23.211ZM36.9324 9.20318L31.9909 1.78796C31.6433 1.27237 31.064 0.965332 30.4441 0.965332H6.9703C6.35044 0.965332 5.77112 1.27237 5.42933 1.78796L0.487776 9.20318C-0.33485 10.4371 0.545708 12.0882 2.02875 12.0882H35.3915C36.8687 12.0882 37.7493 10.4371 36.9324 9.20318ZM29.83 29.6993C29.83 30.2091 30.2471 30.6262 30.7569 30.6262H32.6107C33.1205 30.6262 33.5377 30.2091 33.5377 29.6993V13.942H29.83V29.6993Z" fill="black"/>
</g>
<defs>
<clipPath id="clip0_201_4325">
<rect width="37.0761" height="29.6609" fill="white" transform="translate(0.169067 0.965332)"/>
</clipPath>
</defs>
</svg>
