<svg width="37" height="31" viewBox="0 0 37 31" fill="none" xmlns="http://www.w3.org/2000/svg">
<g clip-path="url(#clip0_201_4321)">
<path d="M35.6226 7.83597L31.8628 1.83427C31.5268 1.29551 30.9301 0.965302 30.2929 0.965302H6.88857C6.25132 0.965302 5.65463 1.29551 5.31863 1.83427L1.55888 7.83597C-0.381825 10.9353 1.33874 15.2454 4.96525 15.7378C5.22594 15.7726 5.49242 15.79 5.75891 15.79C7.47368 15.79 8.99148 15.0368 10.0342 13.8724C11.077 15.0368 12.6006 15.79 14.3096 15.79C16.0244 15.79 17.5422 15.0368 18.5849 13.8724C19.6277 15.0368 21.1513 15.79 22.8603 15.79C24.575 15.79 26.0928 15.0368 27.1356 13.8724C28.1842 15.0368 29.702 15.79 31.4109 15.79C31.6832 15.79 31.9439 15.7726 32.2046 15.7378C35.8427 15.2512 37.569 10.9411 35.6226 7.83597ZM31.4225 17.6496C30.8432 17.6496 30.2697 17.5627 29.7136 17.4294V23.211H7.46788V17.4294C6.91174 17.5569 6.33822 17.6496 5.75891 17.6496C5.41132 17.6496 5.05794 17.6264 4.71614 17.58C4.39172 17.5337 4.0731 17.4584 3.76606 17.3715V28.7724C3.76606 29.7978 4.59448 30.6262 5.61987 30.6262H31.5731C32.5985 30.6262 33.427 29.7978 33.427 28.7724V17.3715C33.1141 17.4642 32.8013 17.5395 32.4769 17.58C32.1235 17.6264 31.7759 17.6496 31.4225 17.6496Z" fill="black"/>
</g>
<defs>
<clipPath id="clip0_201_4321">
<rect width="35.6858" height="29.6609" fill="white" transform="translate(0.747192 0.965332)"/>
</clipPath>
</defs>
</svg>
