<svg width="30" height="31" viewBox="0 0 30 31" fill="none" xmlns="http://www.w3.org/2000/svg">
<g clip-path="url(#clip0_201_4319)">
<path d="M1.18337 8.38054H25.2828C25.795 8.38054 26.2097 7.96575 26.2097 7.45364V3.74603C26.2097 3.23391 25.795 2.81912 25.2828 2.81912H1.18337C0.671259 2.81912 0.25647 3.23391 0.25647 3.74603V7.45364C0.25647 7.96575 0.671259 8.38054 1.18337 8.38054ZM28.9905 13.0151H4.89098C4.37887 13.0151 3.96408 13.4298 3.96408 13.942V17.6496C3.96408 18.1617 4.37887 18.5765 4.89098 18.5765H28.9905C29.5026 18.5765 29.9174 18.1617 29.9174 17.6496V13.942C29.9174 13.4298 29.5026 13.0151 28.9905 13.0151ZM25.2828 23.211H1.18337C0.671259 23.211 0.25647 23.6258 0.25647 24.1379V27.8455C0.25647 28.3576 0.671259 28.7724 1.18337 28.7724H25.2828C25.795 28.7724 26.2097 28.3576 26.2097 27.8455V24.1379C26.2097 23.6258 25.795 23.211 25.2828 23.211Z" fill="black"/>
</g>
<defs>
<clipPath id="clip0_201_4319">
<rect width="29.6609" height="29.6609" fill="white" transform="translate(0.256348 0.965332)"/>
</clipPath>
</defs>
</svg>
