<svg width="31" height="31" viewBox="0 0 31 31" fill="none" xmlns="http://www.w3.org/2000/svg">
<g clip-path="url(#clip0_201_4317)">
<path d="M22.0784 20.0688C21.8107 20.3759 21.5118 20.6539 21.1572 20.8596V22.1885C25.0108 22.7296 27.6456 23.8135 27.6456 25.0648C27.6456 26.8567 22.251 28.309 15.5958 28.309C8.94066 28.309 3.54609 26.8567 3.54609 25.0648C3.54609 23.8135 6.18081 22.7302 10.0344 22.1885V20.8596C9.67987 20.6539 9.38094 20.3759 9.1133 20.0688C4.1758 20.9714 0.765381 22.8663 0.765381 25.0648C0.765381 28.1364 7.40548 30.6263 15.5958 30.6263C23.7862 30.6263 30.4263 28.1364 30.4263 25.0648C30.4263 22.8663 27.0158 20.9714 22.0784 20.0688ZM15.5958 8.38058C17.6437 8.38058 19.3034 6.72085 19.3034 4.67297C19.3034 2.6251 17.6437 0.965363 15.5958 0.965363C13.5479 0.965363 11.8882 2.6251 11.8882 4.67297C11.8882 6.72085 13.5479 8.38058 15.5958 8.38058ZM11.8882 19.5034V25.0648C11.8882 26.0885 12.7184 26.9186 13.742 26.9186H17.4496C18.4733 26.9186 19.3034 26.0885 19.3034 25.0648V19.5034C20.3271 19.5034 21.1572 18.6733 21.1572 17.6496V12.0882C21.1572 10.5524 19.9123 9.30749 18.3765 9.30749H17.6929C17.0516 9.59888 16.3455 9.77094 15.5958 9.77094C14.8462 9.77094 14.14 9.59888 13.4987 9.30749H12.8151C11.2794 9.30749 10.0344 10.5524 10.0344 12.0882V17.6496C10.0344 18.6733 10.8646 19.5034 11.8882 19.5034Z" fill="black"/>
</g>
<defs>
<clipPath id="clip0_201_4317">
<rect width="29.6609" height="29.6609" fill="white" transform="translate(0.765381 0.965332)"/>
</clipPath>
</defs>
</svg>
