<svg width="30" height="31" viewBox="0 0 30 31" fill="none" xmlns="http://www.w3.org/2000/svg">
<g clip-path="url(#clip0_201_4315)">
<path d="M29.0084 13.942H17.3005L12.2506 12.3877C11.6733 12.2099 11.179 11.8308 10.8575 11.3195C10.536 10.8081 10.4086 10.1984 10.4985 9.60106C10.5884 9.00375 10.8896 8.45852 11.3474 8.06447C11.8052 7.67041 12.3892 7.45368 12.9933 7.45367H16.8625C17.3996 7.45328 17.9262 7.60257 18.3832 7.88479C18.8402 8.16701 19.2095 8.57099 19.4497 9.05142C19.5597 9.27114 19.7525 9.4382 19.9856 9.51587C20.2187 9.59354 20.4731 9.57547 20.6929 9.46562L23.1805 8.22184C23.4003 8.11195 23.5675 7.91925 23.6453 7.68611C23.7231 7.45298 23.7051 7.1985 23.5953 6.97863L23.5646 6.9207C22.9489 5.68822 22.0021 4.65163 20.8303 3.92717C19.6584 3.20271 18.308 2.81903 16.9303 2.81915H12.9909C11.9921 2.81996 11.0044 3.02961 10.0914 3.43464C9.17835 3.83967 8.36008 4.43113 7.6891 5.17106C7.01812 5.91099 6.50927 6.78304 6.1952 7.73123C5.88113 8.67942 5.76879 9.6828 5.86538 10.677C5.98124 11.8872 6.45048 12.9844 7.12712 13.942H1.20132C0.955487 13.942 0.719726 14.0396 0.545898 14.2135C0.37207 14.3873 0.274414 14.6231 0.274414 14.8689L0.274414 16.7227C0.274414 16.9685 0.37207 17.2043 0.545898 17.3781C0.719726 17.5519 0.955487 17.6496 1.20132 17.6496H29.0084C29.2542 17.6496 29.49 17.5519 29.6638 17.3781C29.8376 17.2043 29.9353 16.9685 29.9353 16.7227V14.8689C29.9353 14.6231 29.8376 14.3873 29.6638 14.2135C29.49 14.0396 29.2542 13.942 29.0084 13.942ZM18.5668 19.5034C18.9253 19.727 19.221 20.0382 19.4261 20.4076C19.6313 20.777 19.7391 21.1925 19.7394 21.615C19.7388 22.2839 19.4728 22.9253 18.9998 23.3983C18.5267 23.8713 17.8854 24.1373 17.2165 24.1379H13.3472C12.8101 24.1383 12.2835 23.989 11.8265 23.7068C11.3695 23.4246 11.0002 23.0206 10.76 22.5402C10.65 22.3204 10.4573 22.1534 10.2241 22.0757C9.99102 21.998 9.73659 22.0161 9.51679 22.126L7.02922 23.3697C6.80939 23.4796 6.6422 23.6723 6.56442 23.9055C6.48664 24.1386 6.50462 24.3931 6.61443 24.613L6.64513 24.6709C7.26079 25.9034 8.20762 26.94 9.37944 27.6644C10.5513 28.3889 11.9018 28.7726 13.2794 28.7724H17.2188C18.2176 28.7716 19.2053 28.562 20.1183 28.1569C21.0314 27.7519 21.8496 27.1604 22.5206 26.4205C23.1916 25.6806 23.7004 24.8085 24.0145 23.8604C24.3286 22.9122 24.4409 21.9088 24.3443 20.9146C24.293 20.4343 24.1893 19.9611 24.035 19.5034H18.5668Z" fill="black"/>
</g>
<defs>
<clipPath id="clip0_201_4315">
<rect width="29.6609" height="29.6609" fill="white" transform="translate(0.274414 0.965332)"/>
</clipPath>
</defs>
</svg>
