<svg width="31" height="31" viewBox="0 0 31 31" fill="none" xmlns="http://www.w3.org/2000/svg">
<g clip-path="url(#clip0_201_4313)">
<path d="M11.6816 13.1738L9.05965 15.7957L11.681 18.4171L14.303 15.7957L11.6816 13.1738ZM18.2354 11.8634L15.614 9.24138L12.9926 11.8628L15.614 14.4848L18.2354 11.8634ZM12.9926 19.7281L15.614 22.3501L18.236 19.7281L15.614 17.1067L12.9926 19.7281ZM15.614 0.965302C7.42367 0.965302 0.783569 7.6054 0.783569 15.7957C0.783569 23.9861 7.42367 30.6262 15.614 30.6262C23.8044 30.6262 30.4445 23.9861 30.4445 15.7957C30.4445 7.6054 23.8044 0.965302 15.614 0.965302ZM26.4287 18.0898L25.7734 18.745C25.5927 18.9258 25.299 18.9258 25.1182 18.745L23.4794 17.1062L20.858 19.7276L22.8242 21.6937L23.8073 20.7106C23.988 20.5299 24.2817 20.5299 24.4625 20.7106L25.1177 21.3659C25.2984 21.5466 25.2984 21.8403 25.1177 22.0211L24.1346 23.0042L25.1177 23.9872C25.2984 24.168 25.2984 24.4617 25.1177 24.6425L24.4625 25.2977C24.2817 25.4784 23.988 25.4784 23.8073 25.2977L22.8242 24.3146L21.8411 25.2977C21.6603 25.4784 21.3666 25.4784 21.1859 25.2977L20.5307 24.6425C20.3499 24.4617 20.3499 24.168 20.5307 23.9872L21.5138 23.0042L19.5476 21.038L16.9256 23.6599L18.5645 25.2988C18.7452 25.4796 18.7452 25.7733 18.5645 25.954L17.9093 26.6092C17.7285 26.79 17.4348 26.79 17.2541 26.6092L15.614 24.9715L13.9751 26.6104C13.7944 26.7911 13.5007 26.7911 13.3199 26.6104L12.6647 25.9552C12.484 25.7744 12.484 25.4807 12.6647 25.3L14.3036 23.6611L11.6822 21.0391L9.71602 23.0053L10.6991 23.9884C10.8799 24.1692 10.8799 24.4629 10.6991 24.6436L10.0439 25.2988C9.86316 25.4796 9.56945 25.4796 9.3887 25.2988L8.40561 24.3157L7.42251 25.2988C7.24176 25.4796 6.94805 25.4796 6.76731 25.2988L6.1121 24.6436C5.93136 24.4629 5.93136 24.1692 6.1121 23.9884L7.0952 23.0053L6.1121 22.0222C5.93136 21.8415 5.93136 21.5478 6.1121 21.367L6.76731 20.7118C6.94805 20.5311 7.24176 20.5311 7.42251 20.7118L8.40561 21.6949L10.3718 19.7287L7.7504 17.1073L6.11152 18.7462C5.93078 18.9269 5.63706 18.9269 5.45632 18.7462L4.79938 18.0898C4.61863 17.9091 4.61863 17.6154 4.79938 17.4346L6.43826 15.7957L4.79938 14.1569C4.61863 13.9761 4.61863 13.6824 4.79938 13.5017L5.45458 12.8465C5.63533 12.6657 5.92904 12.6657 6.10978 12.8465L7.74866 14.4853L10.3701 11.8634L8.40387 9.89717L7.42077 10.8803C7.24003 11.061 6.94631 11.061 6.76557 10.8803L6.11036 10.2251C5.92962 10.0443 5.92962 9.7506 6.11036 9.56986L7.09346 8.58676L6.11036 7.60366C5.92962 7.42292 5.92962 7.1292 6.11036 6.94846L6.76557 6.29325C6.94631 6.11251 7.24003 6.11251 7.42077 6.29325L8.40387 7.27635L9.38696 6.29325C9.56771 6.11251 9.86142 6.11251 10.0422 6.29325L10.6974 6.94846C10.8781 7.1292 10.8781 7.42292 10.6974 7.60366L9.71428 8.58676L11.6805 10.553L14.3024 7.93156L12.6636 6.29268C12.4828 6.11193 12.4828 5.81822 12.6636 5.63747L13.3188 4.98227C13.4995 4.80152 13.7932 4.80152 13.974 4.98227L15.614 6.61999L17.2529 4.98111C17.4336 4.80036 17.7274 4.80036 17.9081 4.98111L18.5633 5.63631C18.744 5.81706 18.744 6.11077 18.5633 6.29152L16.9244 7.9304L19.5464 10.5518L21.5126 8.5856L20.5295 7.6025C20.3487 7.42176 20.3487 7.12805 20.5295 6.9473L21.1847 6.2921C21.3654 6.11135 21.6592 6.11135 21.8399 6.2921L22.823 7.27519L23.8061 6.2921C23.9868 6.11135 24.2806 6.11135 24.4613 6.2921L25.1165 6.9473C25.2973 7.12805 25.2973 7.42176 25.1165 7.6025L24.1334 8.5856L25.1165 9.5687C25.2973 9.74944 25.2973 10.0432 25.1165 10.2239L24.4613 10.8791C24.2806 11.0599 23.9868 11.0599 23.8061 10.8791L22.823 9.89601L20.8568 11.8622L23.4782 14.4842L25.1171 12.8453C25.2978 12.6646 25.5915 12.6646 25.7723 12.8453L26.4275 13.5005C26.6082 13.6812 26.6082 13.975 26.4275 14.1557L24.7898 15.7957L26.4287 17.434C26.5155 17.5211 26.5642 17.639 26.5642 17.7619C26.5642 17.8849 26.5155 18.0028 26.4287 18.0898ZM16.925 15.7957L19.547 18.4171L22.1684 15.7957L19.547 13.1738L16.925 15.7957Z" fill="black"/>
</g>
<defs>
<clipPath id="clip0_201_4313">
<rect width="29.6609" height="29.6609" fill="white" transform="translate(0.783569 0.965332)"/>
</clipPath>
</defs>
</svg>
