<svg width="31" height="31" viewBox="0 0 31 31" fill="none" xmlns="http://www.w3.org/2000/svg">
<g clip-path="url(#clip0_201_4305)">
<path d="M8.35797 28.7724H23.1884V5.59983C23.1884 4.06465 21.9429 2.81912 20.4077 2.81912H11.1387C9.6035 2.81912 8.35797 4.06465 8.35797 5.59983V28.7724ZM12.0656 6.52673H19.4808V8.38054H12.0656V6.52673ZM30.6036 11.1612V25.9917C30.6036 27.5269 29.3581 28.7724 27.8229 28.7724H25.0422V8.38054H27.8229C29.3581 8.38054 30.6036 9.62606 30.6036 11.1612ZM6.50417 28.7724H3.72346C2.18827 28.7724 0.942749 27.5269 0.942749 25.9917V11.1612C0.942749 9.62606 2.18827 8.38054 3.72346 8.38054H6.50417V28.7724Z" fill="black"/>
</g>
<defs>
<clipPath id="clip0_201_4305">
<rect width="29.6609" height="29.6609" fill="white" transform="translate(0.942871 0.965332)"/>
</clipPath>
</defs>
</svg>
