<svg width="31" height="31" viewBox="0 0 31 31" fill="none" xmlns="http://www.w3.org/2000/svg">
<g clip-path="url(#clip0_201_4301)">
<path d="M29.6952 10.2344H28.7683V1.89227C28.7683 1.64644 28.6706 1.41067 28.4968 1.23685C28.323 1.06302 28.0872 0.965363 27.8414 0.965363H25.0607C24.8888 0.965508 24.7204 1.01342 24.5742 1.10375C24.428 1.19408 24.3098 1.32327 24.2328 1.4769L23.3059 3.3307C23.2351 3.47196 23.2016 3.62897 23.2085 3.78683C23.2155 3.94469 23.2627 4.09815 23.3456 4.23264C23.4286 4.36713 23.5445 4.47818 23.6824 4.55525C23.8204 4.63231 23.9757 4.67284 24.1338 4.67297H25.0607V10.2344H24.1338C23.8879 10.2344 23.6522 10.332 23.4783 10.5059C23.3045 10.6797 23.2068 10.9155 23.2068 11.1613V13.0151C23.2068 13.2609 23.3045 13.4967 23.4783 13.6705C23.6522 13.8443 23.8879 13.942 24.1338 13.942H29.6952C29.941 13.942 30.1768 13.8443 30.3506 13.6705C30.5244 13.4967 30.6221 13.2609 30.6221 13.0151V11.1613C30.6221 10.9155 30.5244 10.6797 30.3506 10.5059C30.1768 10.332 29.941 10.2344 29.6952 10.2344ZM20.4261 4.67297H16.5447C16.3952 4.67297 16.2478 4.70916 16.1152 4.77847C15.9827 4.84777 15.8689 4.94813 15.7835 5.07096L11.1548 11.7331L6.52607 5.07096C6.44117 4.94877 6.32809 4.84881 6.1964 4.77954C6.06472 4.71026 5.91828 4.67371 5.76949 4.67297H1.88808C1.64225 4.67297 1.40649 4.77063 1.23267 4.94446C1.05884 5.11829 0.961182 5.35405 0.961182 5.59988L0.961182 8.38058C0.961182 8.62641 1.05884 8.86218 1.23267 9.036C1.40649 9.20983 1.64225 9.30749 1.88808 9.30749H3.82763L8.33527 15.7958L3.82763 22.2841H1.88808C1.64225 22.2841 1.40649 22.3818 1.23267 22.5556C1.05884 22.7294 0.961182 22.9652 0.961182 23.211L0.961182 25.9917C0.961182 26.2376 1.05884 26.4733 1.23267 26.6472C1.40649 26.821 1.64225 26.9186 1.88808 26.9186H5.76949C5.91907 26.9186 6.06643 26.8825 6.19898 26.8131C6.33154 26.7438 6.44535 26.6435 6.53071 26.5207L11.1594 19.8585L15.7881 26.5207C15.8731 26.6428 15.9861 26.7428 16.1178 26.8121C16.2495 26.8813 16.3959 26.9179 16.5447 26.9186H20.4261C20.672 26.9186 20.9077 26.821 21.0816 26.6472C21.2554 26.4733 21.353 26.2376 21.353 25.9917V23.211C21.353 22.9652 21.2554 22.7294 21.0816 22.5556C20.9077 22.3818 20.672 22.2841 20.4261 22.2841H18.4866L13.979 15.7958L18.4866 9.30749H20.4261C20.672 9.30749 20.9077 9.20983 21.0816 9.036C21.2554 8.86218 21.353 8.62641 21.353 8.38058V5.59988C21.353 5.35405 21.2554 5.11829 21.0816 4.94446C20.9077 4.77063 20.672 4.67297 20.4261 4.67297Z" fill="black"/>
</g>
<defs>
<clipPath id="clip0_201_4301">
<rect width="29.6609" height="29.6609" fill="white" transform="translate(0.960938 0.965332)"/>
</clipPath>
</defs>
</svg>
