<svg width="30" height="31" viewBox="0 0 30 31" fill="none" xmlns="http://www.w3.org/2000/svg">
<g clip-path="url(#clip0_201_4299)">
<path d="M14.764 1.42877C6.82736 1.42877 0.396973 7.85916 0.396973 15.7958C0.396973 23.7324 6.82736 30.1628 14.764 30.1628C22.7006 30.1628 29.131 23.7324 29.131 15.7958C29.131 7.85916 22.7006 1.42877 14.764 1.42877ZM8.27565 13.0151C8.27565 11.9897 9.10407 11.1613 10.1295 11.1613C11.1548 11.1613 11.9833 11.9897 11.9833 13.0151C11.9833 14.0404 11.1548 14.8689 10.1295 14.8689C9.10407 14.8689 8.27565 14.0404 8.27565 13.0151ZM14.764 25.0648C12.719 25.0648 11.0564 23.4022 11.0564 21.3572C11.0564 19.3122 12.719 17.6496 14.764 17.6496C16.8089 17.6496 18.4716 19.3122 18.4716 21.3572C18.4716 23.4022 16.8089 25.0648 14.764 25.0648ZM19.3985 14.8689C18.3731 14.8689 17.5447 14.0404 17.5447 13.0151C17.5447 11.9897 18.3731 11.1613 19.3985 11.1613C20.4239 11.1613 21.2523 11.9897 21.2523 13.0151C21.2523 14.0404 20.4239 14.8689 19.3985 14.8689Z" fill="black"/>
</g>
<defs>
<clipPath id="clip0_201_4299">
<rect width="28.734" height="29.6609" fill="white" transform="translate(0.396973 0.965332)"/>
</clipPath>
</defs>
</svg>
