<svg width="31" height="31" viewBox="0 0 31 31" fill="none" xmlns="http://www.w3.org/2000/svg">
<g clip-path="url(#clip0_201_4297)">
<path d="M26.0866 10.681L20.8635 5.44688C20.5183 5.10078 20.0497 4.90594 19.5609 4.90518C19.072 4.90442 18.6029 5.09781 18.2566 5.44282L18.2525 5.44688L13.8828 9.82186V25.5282L26.0866 13.2989C26.4331 12.9514 26.6277 12.4807 26.6277 11.9899C26.6277 11.4992 26.4331 11.0285 26.0866 10.681ZM28.7132 19.5034H22.5198L11.7208 30.3081C11.6014 30.4281 11.4601 30.5155 11.3338 30.6262H28.7132C29.2049 30.6262 29.6764 30.4309 30.024 30.0832C30.3717 29.7356 30.567 29.264 30.567 28.7724V21.3572C30.567 20.8655 30.3717 20.394 30.024 20.0463C29.6764 19.6987 29.2049 19.5034 28.7132 19.5034ZM12.029 2.81911C12.029 2.32745 11.8336 1.85592 11.486 1.50827C11.1383 1.16061 10.6668 0.965302 10.1752 0.965302H2.75993C2.26827 0.965302 1.79675 1.16061 1.4491 1.50827C1.10144 1.85592 0.906128 2.32745 0.906128 2.81911L0.906128 25.0648C0.906128 26.5398 1.49206 27.9543 2.53503 28.9973C3.578 30.0403 4.99257 30.6262 6.46754 30.6262C7.94252 30.6262 9.35709 30.0403 10.4001 28.9973C11.443 27.9543 12.029 26.5398 12.029 25.0648V2.81911ZM6.46754 26.4551C6.19256 26.4551 5.92375 26.3736 5.69511 26.2208C5.46646 26.068 5.28826 25.8509 5.18302 25.5968C5.07779 25.3428 5.05026 25.0632 5.10391 24.7935C5.15755 24.5238 5.28997 24.2761 5.48442 24.0816C5.67886 23.8872 5.9266 23.7548 6.1963 23.7011C6.466 23.6475 6.74556 23.675 6.99961 23.7803C7.25366 23.8855 7.47081 24.0637 7.62358 24.2923C7.77636 24.521 7.8579 24.7898 7.8579 25.0648C7.8579 25.4335 7.71142 25.7872 7.45067 26.0479C7.18993 26.3086 6.83629 26.4551 6.46754 26.4551ZM8.32135 15.7957H4.61374V12.0881H8.32135V15.7957ZM8.32135 8.38052H4.61374V4.67291H8.32135V8.38052Z" fill="black"/>
</g>
<defs>
<clipPath id="clip0_201_4297">
<rect width="29.6609" height="29.6609" fill="white" transform="translate(0.906128 0.965332)"/>
</clipPath>
</defs>
</svg>
