<svg width="38" height="31" viewBox="0 0 38 31" fill="none" xmlns="http://www.w3.org/2000/svg">
<g clip-path="url(#clip0_201_4295)">
<path d="M10.9845 18.9577C11.1896 19.1465 11.8691 19.5034 12.9768 19.5034C14.0844 19.5034 14.7645 19.1465 14.969 18.9577C15.8971 18.102 16.9677 17.6496 18.066 17.6496H19.0103C20.1087 17.6496 21.1798 18.102 22.1073 18.9577C22.3124 19.1465 22.9919 19.5034 24.0996 19.5034C25.2072 19.5034 25.8874 19.1465 26.0919 18.9577C26.9527 18.1634 27.9387 17.7342 28.9531 17.6739L22.4161 13.0047L23.4589 12.2597C23.6697 12.1102 23.9385 12.0557 24.19 12.1085L30.0034 13.3557C31.5044 13.6761 32.9834 12.7202 33.3055 11.2192C33.627 9.71762 32.6711 8.23921 31.169 7.91711L25.3555 6.66985C23.5753 6.28866 21.7047 6.6768 20.2251 7.73463L15.5895 11.0466C14.9881 11.4747 14.4679 11.999 14.0415 12.6072L10.0657 18.2868C10.3826 18.474 10.6925 18.6883 10.9845 18.9577ZM36.1493 21.3572H35.2224C33.7139 21.3572 32.5692 20.8694 31.9731 20.3202C31.4575 19.8446 30.8341 19.5034 30.1326 19.5034H29.1883C28.4867 19.5034 27.8634 19.8446 27.3478 20.3202C26.7529 20.8694 25.6081 21.3572 24.0996 21.3572C22.5911 21.3572 21.4463 20.8694 20.8502 20.3202C20.3346 19.8446 19.7113 19.5034 19.0097 19.5034H18.0655C17.3639 19.5034 16.7406 19.8446 16.225 20.3202C15.63 20.8694 14.4853 21.3572 12.9768 21.3572C11.4682 21.3572 10.3235 20.8694 9.72739 20.3202C9.2118 19.8446 8.58846 19.5034 7.88691 19.5034H6.94262C6.24107 19.5034 5.61773 19.8446 5.10214 20.3202C4.50719 20.8694 3.36246 21.3572 1.85393 21.3572H0.927025C0.414911 21.3572 0.00012207 21.772 0.00012207 22.2841V24.1379C0.00012207 24.65 0.414911 25.0648 0.927025 25.0648H1.85393C4.09124 25.0648 6.0667 24.3586 7.41534 23.2203C8.76399 24.3592 10.7394 25.0648 12.9768 25.0648C15.2141 25.0648 17.1895 24.3586 18.5382 23.2203C19.8868 24.3592 21.8623 25.0648 24.0996 25.0648C26.3369 25.0648 28.3124 24.3586 29.661 23.2203C31.0097 24.3592 32.9851 25.0648 35.2224 25.0648H36.1493C36.6614 25.0648 37.0762 24.65 37.0762 24.1379V22.2841C37.0762 21.772 36.6614 21.3572 36.1493 21.3572ZM6.48844 15.7958C9.04785 15.7958 11.123 13.7207 11.123 11.1613C11.123 8.60186 9.04785 6.52676 6.48844 6.52676C3.92903 6.52676 1.85393 8.60186 1.85393 11.1613C1.85393 13.7207 3.92903 15.7958 6.48844 15.7958Z" fill="black"/>
</g>
<defs>
<clipPath id="clip0_201_4295">
<rect width="37.0761" height="29.6609" fill="white" transform="translate(0 0.965332)"/>
</clipPath>
</defs>
</svg>
