<svg width="38" height="30" viewBox="0 0 38 30" fill="none" xmlns="http://www.w3.org/2000/svg">
<g clip-path="url(#clip0_201_4293)">
<path d="M36.205 24.4039H35.2781C33.7696 24.4039 32.6249 23.9161 32.0287 23.3669C31.5132 22.8913 30.8898 22.5501 30.1883 22.5501H29.244C28.5424 22.5501 27.9191 22.8913 27.4035 23.3669C26.8085 23.9161 25.6638 24.4039 24.1553 24.4039C22.6468 24.4039 21.502 23.9161 20.9059 23.3669C20.3903 22.8913 19.767 22.5501 19.0654 22.5501H18.1212C17.4196 22.5501 16.7963 22.8913 16.2807 23.3669C15.6857 23.9161 14.541 24.4039 13.0325 24.4039C11.5239 24.4039 10.3792 23.9161 9.78308 23.3669C9.26749 22.8913 8.64415 22.5501 7.9426 22.5501H6.99832C6.29677 22.5501 5.67343 22.8913 5.15784 23.3669C4.56288 23.9161 3.41816 24.4039 1.90962 24.4039H0.982719C0.470606 24.4039 0.0558167 24.8187 0.0558167 25.3308V27.1846C0.0558167 27.6967 0.470606 28.1115 0.982719 28.1115H1.90962C4.14693 28.1115 6.1224 27.4053 7.47104 26.267C8.81968 27.4059 10.7951 28.1115 13.0325 28.1115C15.2698 28.1115 17.2452 27.4053 18.5939 26.267C19.9425 27.4059 21.918 28.1115 24.1553 28.1115C26.3926 28.1115 28.3681 27.4053 29.7167 26.267C31.0653 27.4059 33.0408 28.1115 35.2781 28.1115H36.205C36.7171 28.1115 37.1319 27.6967 37.1319 27.1846V25.3308C37.1319 24.8187 36.7171 24.4039 36.205 24.4039ZM13.0325 22.5501V16.9887H24.1553V22.5501C25.2629 22.5501 25.9431 22.1932 26.1476 22.0044C26.6788 21.5143 27.2598 21.1736 27.8629 20.9576V7.71965C27.8629 6.69774 28.6948 5.86584 29.7167 5.86584C30.7386 5.86584 31.5705 6.69774 31.5705 7.71965V8.64655C31.5705 9.15867 31.9853 9.57346 32.4974 9.57346H34.3512C34.8633 9.57346 35.2781 9.15867 35.2781 8.64655V7.71965C35.2781 4.65276 32.7836 2.15823 29.7167 2.15823C26.6498 2.15823 24.1553 4.65276 24.1553 7.71965V13.2811H13.0325V7.71965C13.0325 6.69774 13.8644 5.86584 14.8863 5.86584C15.9082 5.86584 16.7401 6.69774 16.7401 7.71965V8.64655C16.7401 9.15867 17.1549 9.57346 17.667 9.57346H19.5208C20.0329 9.57346 20.4477 9.15867 20.4477 8.64655V7.71965C20.4477 4.65276 17.9531 2.15823 14.8863 2.15823C11.8194 2.15823 9.32484 4.65276 9.32484 7.71965V20.957C9.92791 21.1731 10.509 21.5143 11.0402 22.0038C11.2447 22.1932 11.9248 22.5501 13.0325 22.5501Z" fill="black"/>
</g>
<defs>
<clipPath id="clip0_201_4293">
<rect width="37.0761" height="29.6609" fill="white" transform="translate(0.0560303 0.304443)"/>
</clipPath>
</defs>
</svg>
