<svg width="38" height="30" viewBox="0 0 38 30" fill="none" xmlns="http://www.w3.org/2000/svg">
<g clip-path="url(#clip0_201_4291)">
<path d="M4.2051 11.6886L0.536305 15.8469C0.287222 16.129 0.149806 16.4924 0.149902 16.8688V29.9654H7.56512V14.1837L5.36373 11.6886C5.05611 11.3404 4.51272 11.3404 4.2051 11.6886ZM36.8396 15.8469L33.1708 11.6886C32.8632 11.3398 32.3198 11.3398 32.0122 11.6886L29.8108 14.1837V29.9654H37.226V16.8688C37.226 16.4922 37.0887 16.129 36.8396 15.8469ZM19.846 0.710565C19.1688 0.168907 18.2071 0.168907 17.5299 0.710565L10.1147 6.64274C9.89759 6.81644 9.72234 7.03675 9.6019 7.28734C9.48147 7.53794 9.41893 7.81241 9.41893 8.09045V29.9654H14.9803V24.6026C14.9803 22.7558 16.2421 21.0439 18.0652 20.7473C20.3877 20.369 22.3956 22.1521 22.3956 24.4039V29.9654H27.957V8.09045C27.957 7.52736 27.7009 6.99439 27.2612 6.64274L19.846 0.710565ZM22.8625 13.1977C22.9772 13.3802 22.8457 13.6171 22.6308 13.6171H20.3749L18.9197 15.9338C18.8125 16.1047 18.5634 16.1047 18.4562 15.9338L17.001 13.6177H14.7451C14.5296 13.6177 14.3987 13.3807 14.5134 13.1983L15.6257 11.4279L14.5134 9.65749C14.3987 9.47501 14.5302 9.23807 14.7451 9.23807H17.001L18.4562 6.92081C18.5634 6.74992 18.8125 6.74992 18.9197 6.92081L20.3749 9.23691H22.6313C22.8463 9.23691 22.9778 9.47385 22.8631 9.65634L21.7508 11.4273L22.8625 13.1977Z" fill="black"/>
</g>
<defs>
<clipPath id="clip0_201_4291">
<rect width="37.0761" height="29.6609" fill="white" transform="translate(0.149902 0.304443)"/>
</clipPath>
</defs>
</svg>
