<svg width="30" height="30" viewBox="0 0 30 30" fill="none" xmlns="http://www.w3.org/2000/svg">
<g clip-path="url(#clip0_201_4287)">
<path d="M25.6956 1.0327L25.9274 5.82769C24.5814 4.23992 22.9055 2.9647 21.0163 2.09085C19.1272 1.21701 17.0702 0.765561 14.9887 0.767956C7.97325 0.767956 2.13261 5.80336 0.880129 12.4597C0.861601 12.56 0.865367 12.6631 0.891161 12.7618C0.916954 12.8605 0.964143 12.9522 1.02938 13.0306C1.09462 13.109 1.1763 13.1721 1.26865 13.2154C1.36099 13.2587 1.46173 13.2811 1.56372 13.2811H4.40526C4.5619 13.281 4.7139 13.2279 4.83661 13.1305C4.95932 13.0332 5.04555 12.8972 5.08132 12.7447C5.54473 10.8215 6.5579 9.0747 7.99721 7.71752C9.43652 6.36034 11.2397 5.45143 13.1868 5.10169C15.134 4.75195 17.1408 4.97649 18.9624 5.74793C20.7841 6.51937 22.3418 7.80435 23.4456 9.44608L17.5679 9.16454C17.4738 9.16006 17.3799 9.17474 17.2917 9.20767C17.2035 9.24059 17.1229 9.29109 17.0548 9.3561C16.9867 9.4211 16.9325 9.49926 16.8955 9.58583C16.8586 9.6724 16.8396 9.76558 16.8397 9.85971V12.6062C16.8397 12.7906 16.9129 12.9674 17.0433 13.0978C17.1736 13.2282 17.3505 13.3014 17.5348 13.3014H29.1339C29.3182 13.3014 29.4951 13.2282 29.6254 13.0978C29.7558 12.9674 29.829 12.7906 29.829 12.6062V0.999681C29.829 0.815309 29.7558 0.638488 29.6254 0.508117C29.4951 0.377746 29.3182 0.304504 29.1339 0.304504L26.3897 0.304504C26.2956 0.304555 26.2026 0.323685 26.1161 0.360738C26.0297 0.39779 25.9517 0.451994 25.8868 0.520069C25.8219 0.588144 25.7715 0.668676 25.7387 0.756789C25.7058 0.844903 25.6912 0.938768 25.6956 1.0327ZM14.9887 25.3309C13.3172 25.3323 11.671 24.9218 10.1958 24.1357C8.72056 23.3496 7.46179 22.2121 6.53076 20.8238L12.4282 21.1059C12.5222 21.1104 12.6162 21.0957 12.7044 21.0628C12.7926 21.0299 12.8731 20.9794 12.9412 20.9144C13.0093 20.8494 13.0635 20.7712 13.1005 20.6847C13.1375 20.5981 13.1565 20.5049 13.1564 20.4108V17.6648C13.1564 17.4804 13.0831 17.3036 12.9528 17.1733C12.8224 17.0429 12.6456 16.9696 12.4612 16.9696H0.863329C0.678957 16.9696 0.502135 17.0429 0.371764 17.1733C0.241394 17.3036 0.168152 17.4804 0.168152 17.6648L0.168152 29.2702C0.168152 29.4546 0.241394 29.6314 0.371764 29.7618C0.502135 29.8922 0.678957 29.9654 0.863329 29.9654H3.60638C3.70067 29.9655 3.794 29.9464 3.8807 29.9094C3.96739 29.8723 4.04563 29.8179 4.11066 29.7496C4.17568 29.6814 4.22614 29.6006 4.25896 29.5122C4.29178 29.4238 4.30627 29.3296 4.30156 29.2355L4.06114 24.4521C5.40683 26.0366 7.0814 27.3091 8.96849 28.1811C10.8556 29.0532 12.9099 29.5039 14.9887 29.5019C22.0048 29.5019 27.8455 24.4665 29.0979 17.8102C29.1165 17.7099 29.1127 17.6068 29.0869 17.5081C29.0611 17.4094 29.0139 17.3177 28.9487 17.2393C28.8835 17.1609 28.8018 17.0978 28.7094 17.0545C28.6171 17.0112 28.5163 16.9888 28.4144 16.9888H25.5728C25.4162 16.9889 25.2642 17.042 25.1415 17.1394C25.0188 17.2367 24.9325 17.3727 24.8968 17.5252C24.3617 19.7499 23.0934 21.7298 21.296 23.1458C19.4986 24.5618 17.2769 25.3315 14.9887 25.3309Z" fill="black"/>
</g>
<defs>
<clipPath id="clip0_201_4287">
<rect width="29.6609" height="29.6609" fill="white" transform="translate(0.168213 0.304443)"/>
</clipPath>
</defs>
</svg>
