<svg width="31" height="30" viewBox="0 0 31 30" fill="none" xmlns="http://www.w3.org/2000/svg">
<g clip-path="url(#clip0_201_4289)">
<path d="M22.1357 8.02559C20.3246 6.32982 17.9744 5.40026 15.481 5.40246C10.9937 5.4064 7.11986 8.48314 6.05028 12.7511C5.97242 13.0617 5.69562 13.2811 5.37532 13.2811H2.05567C1.6213 13.2811 1.29133 12.8868 1.37168 12.4599C2.62514 5.80358 8.46926 0.767944 15.4898 0.767944C19.3392 0.767944 22.835 2.28204 25.4143 4.74696L27.4833 2.67794C28.3592 1.80208 29.8568 2.42241 29.8568 3.6611V11.4273C29.8568 12.1952 29.2343 12.8177 28.4664 12.8177H20.7002C19.4615 12.8177 18.8412 11.3201 19.7171 10.4442L22.1357 8.02559ZM2.51316 17.4522H10.2794C11.5181 17.4522 12.1384 18.9498 11.2625 19.8257L8.8439 22.2443C10.655 23.9402 13.0054 24.8697 15.4988 24.8675C19.9838 24.8634 23.8592 21.7888 24.9293 17.5189C25.0072 17.2082 25.284 16.9889 25.6043 16.9889H28.924C29.3583 16.9889 29.6883 17.3832 29.608 17.8101C28.3545 24.4663 22.5103 29.5019 15.4898 29.5019C11.6404 29.5019 8.14461 27.9878 5.56527 25.5229L3.49625 27.5919C2.62039 28.4678 1.1228 27.8475 1.1228 26.6088V18.8426C1.1228 18.0747 1.74528 17.4522 2.51316 17.4522Z" fill="black"/>
</g>
<defs>
<clipPath id="clip0_201_4289">
<rect width="29.6609" height="29.6609" fill="white" transform="translate(0.659058 0.304443)"/>
</clipPath>
</defs>
</svg>
