<svg width="30" height="30" viewBox="0 0 30 30" fill="none" xmlns="http://www.w3.org/2000/svg">
<g clip-path="url(#clip0_201_4283)">
<path d="M28.9316 17.4812C30.7564 12.9741 29.8469 7.61547 26.1972 3.95999C21.3368 -0.912039 13.4523 -0.912039 8.59184 3.95999L5.34768 7.20995L17.6002 19.4624C20.2708 15.8649 25.2182 14.9786 28.9316 17.4812ZM16.3083 22.0983L3.54022 9.33603C1.95869 11.9603 2.28311 15.4188 4.54244 17.6839L6.54107 19.6884L0.574133 24.8674C0.075923 25.3019 0.0469573 26.0666 0.516202 26.5359L3.60974 29.6352C4.07319 30.1044 4.83789 30.0755 5.27237 29.5773L10.4456 23.593L12.5138 25.6611C13.655 26.8024 15.0975 27.428 16.5864 27.5902C16.1751 26.6054 15.9491 25.5279 15.9491 24.3982C15.9433 23.5987 16.094 22.8341 16.3083 22.0983ZM24.2855 18.8426C21.2151 18.8426 18.724 21.3336 18.724 24.404C18.724 27.4744 21.2151 29.9654 24.2855 29.9654C27.3558 29.9654 29.8469 27.4744 29.8469 24.404C29.8469 21.3336 27.3558 18.8426 24.2855 18.8426Z" fill="black"/>
</g>
<defs>
<clipPath id="clip0_201_4283">
<rect width="29.6609" height="29.6609" fill="white" transform="translate(0.186523 0.304443)"/>
</clipPath>
</defs>
</svg>
