<svg width="27" height="30" viewBox="0 0 27 30" fill="none" xmlns="http://www.w3.org/2000/svg">
<g clip-path="url(#clip0_201_4277)">
<path d="M23.3016 0.304504H2.90974C1.37455 0.304504 0.129028 1.55003 0.129028 3.08521V27.1847C0.129028 28.7199 1.37455 29.9654 2.90974 29.9654H23.3016C24.8368 29.9654 26.0823 28.7199 26.0823 27.1847V3.08521C26.0823 1.55003 24.8368 0.304504 23.3016 0.304504ZM13.1057 28.1116C12.0803 28.1116 11.2519 27.2832 11.2519 26.2578C11.2519 25.2324 12.0803 24.404 13.1057 24.404C14.1311 24.404 14.9595 25.2324 14.9595 26.2578C14.9595 27.2832 14.1311 28.1116 13.1057 28.1116Z" fill="black"/>
</g>
<defs>
<clipPath id="clip0_201_4277">
<rect width="25.9533" height="29.6609" fill="white" transform="translate(0.129028 0.304443)"/>
</clipPath>
</defs>
</svg>
