<svg width="38" height="30" viewBox="0 0 38 30" fill="none" xmlns="http://www.w3.org/2000/svg">
<g clip-path="url(#clip0_201_4275)">
<path d="M9.49219 11.4273C4.79395 11.4273 0.947302 14.8163 0.228952 19.2307C0.182607 19.5088 0.420126 19.7695 0.709783 19.7695H18.2804C18.57 19.7695 18.8076 19.5088 18.7612 19.2307C18.0371 14.8163 14.1904 11.4273 9.49219 11.4273ZM18.2746 21.6233H0.709783C0.420126 21.6233 0.182607 21.8839 0.228952 22.162C0.947302 26.5764 4.79395 29.9654 9.49219 29.9654C14.1904 29.9654 18.0371 26.5764 18.7554 22.162C18.8018 21.8839 18.5642 21.6233 18.2746 21.6233ZM34.5997 3.0041C31.3265 -0.269028 26.246 -0.552892 22.6137 2.07719C22.3819 2.2452 22.3645 2.59278 22.5673 2.78975L34.8082 15.0365C35.011 15.2392 35.3586 15.2218 35.5208 14.9901C38.1567 11.3578 37.8728 6.27722 34.5997 3.0041ZM21.2523 4.11059C21.0495 3.90783 20.7019 3.92521 20.5397 4.15693C17.9096 7.78923 18.1935 12.8698 21.4608 16.1429C24.7339 19.4161 29.8145 19.6999 33.4468 17.0641C33.6786 16.8961 33.6959 16.5485 33.4932 16.3515L21.2523 4.11059Z" fill="black"/>
</g>
<defs>
<clipPath id="clip0_201_4275">
<rect width="37.0761" height="29.6609" fill="white" transform="translate(0.2229 0.304443)"/>
</clipPath>
</defs>
</svg>
