<svg width="34" height="30" viewBox="0 0 34 30" fill="none" xmlns="http://www.w3.org/2000/svg">
<g clip-path="url(#clip0_201_4273)">
<path d="M16.7087 2.15829C7.49409 2.15829 0.0244141 9.62797 0.0244141 18.8425C0.0244141 21.9013 0.849937 24.7666 2.28722 27.231C2.61221 27.7883 3.2315 28.1116 3.87685 28.1116H29.5405C30.1858 28.1116 30.8051 27.7883 31.1301 27.231C32.5674 24.7666 33.3929 21.9013 33.3929 18.8425C33.3929 9.62797 25.9232 2.15829 16.7087 2.15829ZM16.7087 5.86591C17.5608 5.86591 18.2485 6.45275 18.4651 7.23598C18.4008 7.36691 18.3122 7.48103 18.2653 7.62239L17.7312 9.22535C17.434 9.42753 17.0956 9.57352 16.7092 9.57352C15.6856 9.57352 14.8554 8.74336 14.8554 7.71971C14.8554 6.69606 15.685 5.86591 16.7087 5.86591ZM5.58583 22.5502C4.56218 22.5502 3.73203 21.72 3.73203 20.6964C3.73203 19.6727 4.56218 18.8425 5.58583 18.8425C6.60948 18.8425 7.43964 19.6727 7.43964 20.6964C7.43964 21.72 6.60948 22.5502 5.58583 22.5502ZM8.36654 13.2811C7.34289 13.2811 6.51273 12.451 6.51273 11.4273C6.51273 10.4037 7.34289 9.57352 8.36654 9.57352C9.39019 9.57352 10.2203 10.4037 10.2203 11.4273C10.2203 12.451 9.39019 13.2811 8.36654 13.2811ZM22.6623 9.08631L19.1093 19.7457C19.9024 20.4258 20.4163 21.4228 20.4163 22.5502C20.4163 23.2291 20.2205 23.8565 19.9018 24.404H13.5155C13.1969 23.8565 13.0011 23.2291 13.0011 22.5502C13.0011 20.584 14.5362 18.9914 16.4711 18.8663L20.0247 8.20634C20.2662 7.47872 21.0518 7.07957 21.7835 7.32752C22.5117 7.57025 22.9044 8.35812 22.6623 9.08631ZM23.5116 12.4L24.4106 9.70328C24.6117 9.62855 24.8237 9.5741 25.0508 9.5741C26.0744 9.5741 26.9046 10.4043 26.9046 11.4279C26.9046 12.4515 26.0744 13.2817 25.0508 13.2817C24.3915 13.2811 23.8406 12.9179 23.5116 12.4ZM27.8315 22.5502C26.8078 22.5502 25.9777 21.72 25.9777 20.6964C25.9777 19.6727 26.8078 18.8425 27.8315 18.8425C28.8551 18.8425 29.6853 19.6727 29.6853 20.6964C29.6853 21.72 28.8551 22.5502 27.8315 22.5502Z" fill="black"/>
</g>
<defs>
<clipPath id="clip0_201_4273">
<rect width="33.3685" height="29.6609" fill="white" transform="translate(0.0244141 0.304443)"/>
</clipPath>
</defs>
</svg>
