<svg width="38" height="30" viewBox="0 0 38 30" fill="none" xmlns="http://www.w3.org/2000/svg">
<g clip-path="url(#clip0_201_4267)">
<path d="M13.6978 11.4273C11.6529 11.4273 9.99022 13.09 9.99022 15.1349C9.99022 17.1799 11.6529 18.8425 13.6978 18.8425C15.7428 18.8425 17.4054 17.1799 17.4054 15.1349C17.4054 13.09 15.7428 11.4273 13.6978 11.4273ZM36.8704 24.404H22.7699C25.174 22.0462 26.6745 18.7672 26.6745 15.1349C26.6745 7.96882 20.8639 2.15829 13.6978 2.15829C6.53171 2.15829 0.721191 7.96882 0.721191 15.1349C0.721191 22.3011 6.53171 28.1116 13.6978 28.1116H36.8704C37.3802 28.1116 37.7973 27.6945 37.7973 27.1847V25.3309C37.7973 24.8211 37.3802 24.404 36.8704 24.404ZM13.6978 20.6964C10.6275 20.6964 8.13641 18.2053 8.13641 15.1349C8.13641 12.0646 10.6275 9.57352 13.6978 9.57352C16.7682 9.57352 19.2592 12.0646 19.2592 15.1349C19.2592 18.2053 16.7682 20.6964 13.6978 20.6964Z" fill="black"/>
</g>
<defs>
<clipPath id="clip0_201_4267">
<rect width="37.0761" height="29.6609" fill="white" transform="translate(0.721191 0.304443)"/>
</clipPath>
</defs>
</svg>
