<svg width="30" height="30" viewBox="0 0 30 30" fill="none" xmlns="http://www.w3.org/2000/svg">
<g clip-path="url(#clip0_201_4265)">
<path d="M8.31812 2.36108C8.25354 2.29627 8.1768 2.24485 8.0923 2.20976C8.0078 2.17468 7.9172 2.15662 7.82571 2.15662C7.73421 2.15662 7.64362 2.17468 7.55911 2.20976C7.47462 2.24485 7.39787 2.29627 7.33329 2.36108L3.64421 6.02872L2.32917 4.74728C2.26459 4.68247 2.18784 4.63105 2.10334 4.59596C2.01884 4.56087 1.92825 4.54281 1.83675 4.54281C1.74526 4.54281 1.65466 4.56087 1.57016 4.59596C1.48566 4.63105 1.40892 4.68247 1.34434 4.74728L0.434813 5.65796C0.370004 5.72255 0.318582 5.79929 0.283495 5.88379C0.248408 5.96829 0.230347 6.05888 0.230347 6.15038C0.230347 6.24187 0.248408 6.33247 0.283495 6.41697C0.318582 6.50147 0.370004 6.57821 0.434813 6.6428L3.19177 9.38874C3.32938 9.51956 3.51199 9.5925 3.70186 9.5925C3.89172 9.5925 4.07433 9.51956 4.21194 9.38874L5.11509 8.48386L9.29774 4.30179C9.42806 4.17136 9.5017 3.99481 9.50268 3.81044C9.50365 3.62607 9.43189 3.44875 9.30296 3.31695L8.31812 2.36108ZM8.31812 11.5832C8.25354 11.5184 8.1768 11.467 8.0923 11.4319C8.0078 11.3968 7.9172 11.3787 7.82571 11.3787C7.73421 11.3787 7.64362 11.3968 7.55911 11.4319C7.47462 11.467 7.39787 11.5184 7.33329 11.5832L3.64421 15.2746L2.32917 13.9943C2.26459 13.9295 2.18784 13.8781 2.10334 13.843C2.01884 13.8079 1.92825 13.7898 1.83675 13.7898C1.74526 13.7898 1.65466 13.8079 1.57016 13.843C1.48566 13.8781 1.40892 13.9295 1.34434 13.9943L0.434813 14.9032C0.370004 14.9678 0.318582 15.0446 0.283495 15.1291C0.248408 15.2136 0.230347 15.3042 0.230347 15.3957C0.230347 15.4871 0.248408 15.5777 0.283495 15.6622C0.318582 15.7467 0.370004 15.8235 0.434813 15.8881L3.18482 18.6398C3.32233 18.7706 3.50485 18.8435 3.69461 18.8435C3.88438 18.8435 4.0669 18.7706 4.20441 18.6398L5.11393 17.7309L9.29658 13.5471C9.4264 13.4176 9.4998 13.242 9.50077 13.0586C9.50175 12.8752 9.43023 12.6989 9.3018 12.568L8.31812 11.5832ZM3.93793 21.6233C2.40332 21.6233 1.12304 22.8688 1.12304 24.404C1.12304 25.9392 2.40448 27.1847 3.93793 27.1847C4.67542 27.1847 5.3827 26.8917 5.90418 26.3702C6.42567 25.8488 6.71864 25.1415 6.71864 24.404C6.71864 23.6665 6.42567 22.9592 5.90418 22.4377C5.3827 21.9162 4.67542 21.6233 3.93793 21.6233ZM28.9643 22.5502H12.2801C12.0342 22.5502 11.7985 22.6478 11.6246 22.8217C11.4508 22.9955 11.3531 23.2313 11.3531 23.4771V25.3309C11.3531 25.5767 11.4508 25.8125 11.6246 25.9863C11.7985 26.1601 12.0342 26.2578 12.2801 26.2578H28.9643C29.2101 26.2578 29.4459 26.1601 29.6197 25.9863C29.7936 25.8125 29.8912 25.5767 29.8912 25.3309V23.4771C29.8912 23.2313 29.7936 22.9955 29.6197 22.8217C29.4459 22.6478 29.2101 22.5502 28.9643 22.5502ZM28.9643 4.01213H12.2801C12.0342 4.01213 11.7985 4.10978 11.6246 4.28361C11.4508 4.45744 11.3531 4.6932 11.3531 4.93903V6.79284C11.3531 7.03867 11.4508 7.27443 11.6246 7.44826C11.7985 7.62208 12.0342 7.71974 12.2801 7.71974H28.9643C29.2101 7.71974 29.4459 7.62208 29.6197 7.44826C29.7936 7.27443 29.8912 7.03867 29.8912 6.79284V4.93903C29.8912 4.6932 29.7936 4.45744 29.6197 4.28361C29.4459 4.10978 29.2101 4.01213 28.9643 4.01213ZM28.9643 13.2812H12.2801C12.0342 13.2812 11.7985 13.3788 11.6246 13.5526C11.4508 13.7265 11.3531 13.9622 11.3531 14.2081V16.0619C11.3531 16.3077 11.4508 16.5435 11.6246 16.7173C11.7985 16.8911 12.0342 16.9888 12.2801 16.9888H28.9643C29.2101 16.9888 29.4459 16.8911 29.6197 16.7173C29.7936 16.5435 29.8912 16.3077 29.8912 16.0619V14.2081C29.8912 13.9622 29.7936 13.7265 29.6197 13.5526C29.4459 13.3788 29.2101 13.2812 28.9643 13.2812Z" fill="black"/>
</g>
<defs>
<clipPath id="clip0_201_4265">
<rect width="29.6609" height="29.6609" fill="white" transform="translate(0.230347 0.304443)"/>
</clipPath>
</defs>
</svg>
