<svg width="31" height="30" viewBox="0 0 31 30" fill="none" xmlns="http://www.w3.org/2000/svg">
<g clip-path="url(#clip0_201_4263)">
<path d="M27.5036 14.303L26.2291 9.38814C25.6729 7.34895 23.8191 5.86591 21.78 5.86591H21.1311V4.0121C21.1311 2.98845 20.301 2.15829 19.2773 2.15829H11.8621C10.8384 2.15829 10.0083 2.98845 10.0083 4.0121V5.86591H9.35945C7.32027 5.86591 5.46646 7.34895 4.91032 9.38814L3.63583 14.303C1.97957 14.6738 0.739258 16.147 0.739258 17.9156V20.6964C0.739258 22.0653 1.48947 23.2477 2.59306 23.8895V26.2578C2.59306 27.2814 3.42322 28.1116 4.44687 28.1116H6.30067C7.32432 28.1116 8.15448 27.2814 8.15448 26.2578V24.404H22.9849V26.2578C22.9849 27.2814 23.8151 28.1116 24.8387 28.1116H26.6925C27.7162 28.1116 28.5463 27.2814 28.5463 26.2578V23.8895C29.6499 23.2471 30.4001 22.0647 30.4001 20.6964V17.9156C30.4001 16.147 29.1598 14.6738 27.5036 14.303ZM6.30067 20.6964C5.27703 20.6964 4.44687 19.8662 4.44687 18.8425C4.44687 17.8189 5.27703 16.9887 6.30067 16.9887C7.32432 16.9887 8.15448 17.8189 8.15448 18.8425C8.15448 19.8662 7.32432 20.6964 6.30067 20.6964ZM7.49117 14.208L8.48759 10.3637C8.61677 9.89098 9.04315 9.57352 9.36003 9.57352H21.7805C22.0974 9.57352 22.5238 9.89098 22.6408 10.3185L23.6482 14.208H7.49117ZM24.8387 20.6964C23.8151 20.6964 22.9849 19.8662 22.9849 18.8425C22.9849 17.8189 23.8151 16.9887 24.8387 16.9887C25.8624 16.9887 26.6925 17.8189 26.6925 18.8425C26.6925 19.8662 25.8624 20.6964 24.8387 20.6964Z" fill="black"/>
</g>
<defs>
<clipPath id="clip0_201_4263">
<rect width="29.6609" height="29.6609" fill="white" transform="translate(0.739502 0.304443)"/>
</clipPath>
</defs>
</svg>
