<svg width="31" height="30" viewBox="0 0 31 30" fill="none" xmlns="http://www.w3.org/2000/svg">
<g clip-path="url(#clip0_201_4257)">
<path d="M24.5358 0.304474C21.4712 0.304474 18.9743 2.80132 18.9743 5.86589C18.9743 8.93046 21.4712 11.4273 24.5358 11.4273C27.6003 11.4273 30.0972 8.93046 30.0972 5.86589C30.0972 2.80132 27.6003 0.304474 24.5358 0.304474ZM24.5358 7.7197C23.5104 7.7197 22.6819 6.89128 22.6819 5.86589C22.6819 4.8405 23.5104 4.01208 24.5358 4.01208C25.5611 4.01208 26.3896 4.8405 26.3896 5.86589C26.3896 6.89128 25.5611 7.7197 24.5358 7.7197ZM15.2667 6.79279C15.2667 3.20684 12.3644 0.304474 8.7784 0.304474C5.19245 0.304474 2.29008 3.20684 2.29008 6.79279V16.4384C1.14884 17.8693 0.436279 19.6536 0.436279 21.6232C0.436279 26.2288 4.17286 29.9654 8.7784 29.9654C13.384 29.9654 17.1205 26.2288 17.1205 21.6232C17.1205 19.6536 16.408 17.8635 15.2667 16.4384V6.79279ZM8.7784 26.2578C6.22363 26.2578 4.14389 24.178 4.14389 21.6232C4.14389 20.146 4.85065 18.7904 5.9977 17.9272V6.79279C5.9977 5.25761 7.24322 4.01208 8.7784 4.01208C10.3136 4.01208 11.5591 5.25761 11.5591 6.79279V17.9272C12.7062 18.7846 13.4129 20.146 13.4129 21.6232C13.4129 24.178 11.3332 26.2578 8.7784 26.2578ZM9.70531 19.0105V6.79279C9.70531 6.283 9.2882 5.86589 8.7784 5.86589C8.26861 5.86589 7.8515 6.283 7.8515 6.79279V19.0105C6.77398 19.3929 5.9977 20.4125 5.9977 21.6232C5.9977 23.1584 7.24322 24.4039 8.7784 24.4039C10.3136 24.4039 11.5591 23.1584 11.5591 21.6232C11.5591 20.4125 10.7828 19.3929 9.70531 19.0105Z" fill="black"/>
</g>
<defs>
<clipPath id="clip0_201_4257">
<rect width="29.6609" height="29.6609" fill="white" transform="translate(0.436279 0.304443)"/>
</clipPath>
</defs>
</svg>
