<svg width="31" height="30" viewBox="0 0 31 30" fill="none" xmlns="http://www.w3.org/2000/svg">
<g clip-path="url(#clip0_201_4255)">
<path d="M25.0447 0.304474C21.9801 0.304474 19.4832 2.80132 19.4832 5.86589C19.4832 8.93046 21.9801 11.4273 25.0447 11.4273C28.1092 11.4273 30.6061 8.93046 30.6061 5.86589C30.6061 2.80132 28.1092 0.304474 25.0447 0.304474ZM25.0447 7.7197C24.0193 7.7197 23.1909 6.89128 23.1909 5.86589C23.1909 4.8405 24.0193 4.01208 25.0447 4.01208C26.07 4.01208 26.8985 4.8405 26.8985 5.86589C26.8985 6.89128 26.07 7.7197 25.0447 7.7197ZM15.7756 6.79279C15.7756 3.20684 12.8733 0.304474 9.28732 0.304474C5.70136 0.304474 2.799 3.20684 2.799 6.79279V16.4384C1.65775 17.8693 0.94519 19.6536 0.94519 21.6232C0.94519 26.2288 4.68177 29.9654 9.28732 29.9654C13.8929 29.9654 17.6294 26.2288 17.6294 21.6232C17.6294 19.6536 16.9169 17.8635 15.7756 16.4384V6.79279ZM9.28732 26.2578C6.73254 26.2578 4.6528 24.178 4.6528 21.6232C4.6528 20.146 5.35956 18.7904 6.50661 17.9272V6.79279C6.50661 5.25761 7.75213 4.01208 9.28732 4.01208C10.8225 4.01208 12.068 5.25761 12.068 6.79279V17.9272C13.2151 18.7846 13.9218 20.146 13.9218 21.6232C13.9218 24.178 11.8421 26.2578 9.28732 26.2578ZM10.2142 19.0105V17.9156C10.2142 17.4058 9.79711 16.9887 9.28732 16.9887C8.77752 16.9887 8.36041 17.4058 8.36041 17.9156V19.0105C7.28289 19.3929 6.50661 20.4125 6.50661 21.6232C6.50661 23.1584 7.75213 24.4039 9.28732 24.4039C10.8225 24.4039 12.068 23.1584 12.068 21.6232C12.068 20.4125 11.2917 19.3929 10.2142 19.0105Z" fill="black"/>
</g>
<defs>
<clipPath id="clip0_201_4255">
<rect width="29.6609" height="29.6609" fill="white" transform="translate(0.945312 0.304443)"/>
</clipPath>
</defs>
</svg>
