<svg width="24" height="30" viewBox="0 0 24 30" fill="none" xmlns="http://www.w3.org/2000/svg">
<g clip-path="url(#clip0_201_4253)">
<path d="M22.4201 9.57352H1.56481C1.18246 9.57352 0.869629 9.88635 0.869629 10.2687V13.5129C0.869629 13.8952 1.18246 14.208 1.56481 14.208H9.67521V27.4164C9.67521 27.7987 9.98804 28.1116 10.3704 28.1116H13.6145C13.9969 28.1116 14.3097 27.7987 14.3097 27.4164V14.208H22.4201C22.8025 14.208 23.1153 13.8952 23.1153 13.5129V10.2687C23.1153 9.88635 22.8025 9.57352 22.4201 9.57352ZM22.4201 2.15829H1.56481C1.18246 2.15829 0.869629 2.47112 0.869629 2.85347V6.09763C0.869629 6.47998 1.18246 6.79281 1.56481 6.79281H22.4201C22.8025 6.79281 23.1153 6.47998 23.1153 6.09763V2.85347C23.1153 2.47112 22.8025 2.15829 22.4201 2.15829Z" fill="black"/>
</g>
<defs>
<clipPath id="clip0_201_4253">
<rect width="22.2457" height="29.6609" fill="white" transform="translate(0.869629 0.304443)"/>
</clipPath>
</defs>
</svg>
