<svg width="39" height="30" viewBox="0 0 39 30" fill="none" xmlns="http://www.w3.org/2000/svg">
<g clip-path="url(#clip0_201_4251)">
<path d="M15.9089 16.1181L4.65029 27.3767C4.1073 27.9196 3.22698 27.9196 2.68404 27.3767L1.37085 26.0635C0.828789 25.5215 0.827746 24.6429 1.36854 24.0996L10.2912 15.1349L1.36859 6.17033C0.827804 5.62699 0.828847 4.74846 1.37091 4.2064L2.68404 2.89327C3.22703 2.35028 4.10736 2.35028 4.65029 2.89327L15.9089 14.1518C16.4518 14.6948 16.4518 15.5751 15.9089 16.1181ZM38.0398 26.7212V24.8674C38.0398 24.0995 37.4173 23.4771 36.6494 23.4771H19.0383C18.2704 23.4771 17.6479 24.0995 17.6479 24.8674V26.7212C17.6479 27.4891 18.2704 28.1116 19.0383 28.1116H36.6494C37.4173 28.1116 38.0398 27.4891 38.0398 26.7212Z" fill="black"/>
</g>
<defs>
<clipPath id="clip0_201_4251">
<rect width="37.0761" height="29.6609" fill="white" transform="translate(0.963623 0.304443)"/>
</clipPath>
</defs>
</svg>
