<svg width="27" height="30" viewBox="0 0 27 30" fill="none" xmlns="http://www.w3.org/2000/svg">
<g clip-path="url(#clip0_201_4247)">
<path d="M26.0078 2.15829H1.90835C1.66252 2.15829 1.42676 2.25595 1.25293 2.42978C1.0791 2.60361 0.981445 2.83937 0.981445 3.0852L0.981445 7.71971C0.981445 7.96554 1.0791 8.2013 1.25293 8.37513C1.42676 8.54896 1.66252 8.64661 1.90835 8.64661H3.76215C4.00798 8.64661 4.24374 8.54896 4.41757 8.37513C4.5914 8.2013 4.68906 7.96554 4.68906 7.71971V6.79281H11.6408V13.2811H10.2505C10.0046 13.2811 9.76888 13.3788 9.59505 13.5526C9.42123 13.7264 9.32357 13.9622 9.32357 14.208V16.0618C9.32357 16.3077 9.42123 16.5434 9.59505 16.7173C9.76888 16.8911 10.0046 16.9887 10.2505 16.9887H17.6657C17.9115 16.9887 18.1473 16.8911 18.3211 16.7173C18.4949 16.5434 18.5926 16.3077 18.5926 16.0618V14.208C18.5926 13.9622 18.4949 13.7264 18.3211 13.5526C18.1473 13.3788 17.9115 13.2811 17.6657 13.2811H16.2753V6.79281H23.2271V7.71971C23.2271 7.96554 23.3248 8.2013 23.4986 8.37513C23.6724 8.54896 23.9082 8.64661 24.154 8.64661H26.0078C26.2537 8.64661 26.4894 8.54896 26.6632 8.37513C26.8371 8.2013 26.9347 7.96554 26.9347 7.71971V3.0852C26.9347 2.83937 26.8371 2.60361 26.6632 2.42978C26.4894 2.25595 26.2537 2.15829 26.0078 2.15829ZM22.0285 17.2604C21.4892 16.7199 20.4464 17.0096 20.4464 17.9156V20.6964H7.46976V17.9156C7.46976 17.0866 6.46697 16.6805 5.88766 17.2604L1.25314 21.895C1.07945 22.0688 0.981875 22.3044 0.981875 22.5502C0.981875 22.7959 1.07945 23.0316 1.25314 23.2054L5.88766 27.8399C6.427 28.3804 7.46976 28.0907 7.46976 27.1847V24.404H20.4464V27.1847C20.4464 28.0137 21.4492 28.4203 22.0285 27.8399L26.663 23.2054C26.8367 23.0316 26.9343 22.7959 26.9343 22.5502C26.9343 22.3044 26.8367 22.0688 26.663 21.895L22.0285 17.2604Z" fill="black"/>
</g>
<defs>
<clipPath id="clip0_201_4247">
<rect width="25.9533" height="29.6609" fill="white" transform="translate(0.981689 0.304443)"/>
</clipPath>
</defs>
</svg>
