<svg width="35" height="30" viewBox="0 0 35 30" fill="none" xmlns="http://www.w3.org/2000/svg">
<g clip-path="url(#clip0_201_4249)">
<path d="M18.3763 2.15829H1.69204C1.44621 2.15829 1.21045 2.25595 1.03662 2.42978C0.862792 2.60361 0.765137 2.83937 0.765137 3.0852L0.765137 8.64661C0.765137 8.89244 0.862792 9.12821 1.03662 9.30203C1.21045 9.47586 1.44621 9.57352 1.69204 9.57352H3.54584C3.79167 9.57352 4.02744 9.47586 4.20126 9.30203C4.37509 9.12821 4.47275 8.89244 4.47275 8.64661V6.79281H7.71691V24.404H5.39965C5.15382 24.404 4.91806 24.5016 4.74423 24.6754C4.5704 24.8493 4.47275 25.085 4.47275 25.3309V27.1847C4.47275 27.4305 4.5704 27.6663 4.74423 27.8401C4.91806 28.0139 5.15382 28.1116 5.39965 28.1116H14.6687C14.9145 28.1116 15.1503 28.0139 15.3241 27.8401C15.4979 27.6663 15.5956 27.4305 15.5956 27.1847V25.3309C15.5956 25.085 15.4979 24.8493 15.3241 24.6754C15.1503 24.5016 14.9145 24.404 14.6687 24.404H12.3514V6.79281H15.5956V8.64661C15.5956 8.89244 15.6932 9.12821 15.8671 9.30203C16.0409 9.47586 16.2767 9.57352 16.5225 9.57352H18.3763C18.6221 9.57352 18.8579 9.47586 19.0317 9.30203C19.2055 9.12821 19.3032 8.89244 19.3032 8.64661V3.0852C19.3032 2.83937 19.2055 2.60361 19.0317 2.42978C18.8579 2.25595 18.6221 2.15829 18.3763 2.15829ZM33.2067 21.6233H30.426V8.64661H33.2067C34.0357 8.64661 34.4424 7.64382 33.8619 7.06451L29.2274 2.42999C29.0536 2.2563 28.8179 2.15872 28.5722 2.15872C28.3265 2.15872 28.0908 2.2563 27.917 2.42999L23.2825 7.06451C22.742 7.60385 23.0317 8.64661 23.9377 8.64661H26.7184V21.6233H23.9377C23.1087 21.6233 22.7026 22.626 23.2825 23.2054L27.917 27.8399C28.0908 28.0136 28.3265 28.1111 28.5722 28.1111C28.8179 28.1111 29.0536 28.0136 29.2274 27.8399L33.8619 23.2054C34.4024 22.666 34.1128 21.6233 33.2067 21.6233Z" fill="black"/>
</g>
<defs>
<clipPath id="clip0_201_4249">
<rect width="33.3685" height="29.6609" fill="white" transform="translate(0.765137 0.304443)"/>
</clipPath>
</defs>
</svg>
