<svg width="30" height="30" viewBox="0 0 30 30" fill="none" xmlns="http://www.w3.org/2000/svg">
<g clip-path="url(#clip0_201_4243)">
<path d="M8.65107 12.8177V17.4522C8.65107 18.2201 8.0286 18.8425 7.26072 18.8425H1.39035C0.622473 18.8425 0 18.2201 0 17.4522V12.8177C0 12.0498 0.622473 11.4273 1.39035 11.4273H7.26072C8.0286 11.4273 8.65107 12.0498 8.65107 12.8177ZM0 22.0867V26.7212C0 27.4891 0.622473 28.1116 1.39035 28.1116H7.26072C8.0286 28.1116 8.65107 27.4891 8.65107 26.7212V22.0867C8.65107 21.3188 8.0286 20.6964 7.26072 20.6964H1.39035C0.622473 20.6964 0 21.3188 0 22.0867ZM7.26072 2.15829H1.39035C0.622473 2.15829 0 2.78077 0 3.54865V8.18316C0 8.95104 0.622473 9.57352 1.39035 9.57352H7.26072C8.0286 9.57352 8.65107 8.95104 8.65107 8.18316V3.54865C8.65107 2.78077 8.0286 2.15829 7.26072 2.15829ZM11.8952 28.1116H28.2705C29.0384 28.1116 29.6609 27.4891 29.6609 26.7212V22.0867C29.6609 21.3188 29.0384 20.6964 28.2705 20.6964H11.8952C11.1274 20.6964 10.5049 21.3188 10.5049 22.0867V26.7212C10.5049 27.4891 11.1274 28.1116 11.8952 28.1116ZM10.5049 3.54865V8.18316C10.5049 8.95104 11.1274 9.57352 11.8952 9.57352H28.2705C29.0384 9.57352 29.6609 8.95104 29.6609 8.18316V3.54865C29.6609 2.78077 29.0384 2.15829 28.2705 2.15829H11.8952C11.1274 2.15829 10.5049 2.78077 10.5049 3.54865ZM11.8952 18.8425H28.2705C29.0384 18.8425 29.6609 18.2201 29.6609 17.4522V12.8177C29.6609 12.0498 29.0384 11.4273 28.2705 11.4273H11.8952C11.1274 11.4273 10.5049 12.0498 10.5049 12.8177V17.4522C10.5049 18.2201 11.1274 18.8425 11.8952 18.8425Z" fill="black"/>
</g>
<defs>
<clipPath id="clip0_201_4243">
<rect width="29.6609" height="29.6609" fill="white" transform="translate(0 0.304443)"/>
</clipPath>
</defs>
</svg>
