<svg width="31" height="30" viewBox="0 0 31 30" fill="none" xmlns="http://www.w3.org/2000/svg">
<g clip-path="url(#clip0_201_4245)">
<path d="M17.6387 2.15829H28.7615C29.5294 2.15829 30.1519 2.78077 30.1519 3.54865V12.8177C30.1519 13.5856 29.5294 14.208 28.7615 14.208H17.6387C16.8708 14.208 16.2483 13.5856 16.2483 12.8177V3.54865C16.2483 2.78077 16.8708 2.15829 17.6387 2.15829ZM13.0042 2.15829H1.88132C1.11344 2.15829 0.490967 2.78077 0.490967 3.54865V12.8177C0.490967 13.5856 1.11344 14.208 1.88132 14.208H13.0042C13.772 14.208 14.3945 13.5856 14.3945 12.8177V3.54865C14.3945 2.78077 13.772 2.15829 13.0042 2.15829ZM0.490967 17.4522V26.7212C0.490967 27.4891 1.11344 28.1116 1.88132 28.1116H13.0042C13.772 28.1116 14.3945 27.4891 14.3945 26.7212V17.4522C14.3945 16.6843 13.772 16.0618 13.0042 16.0618H1.88132C1.11344 16.0618 0.490967 16.6843 0.490967 17.4522ZM17.6387 28.1116H28.7615C29.5294 28.1116 30.1519 27.4891 30.1519 26.7212V17.4522C30.1519 16.6843 29.5294 16.0618 28.7615 16.0618H17.6387C16.8708 16.0618 16.2483 16.6843 16.2483 17.4522V26.7212C16.2483 27.4891 16.8708 28.1116 17.6387 28.1116Z" fill="black"/>
</g>
<defs>
<clipPath id="clip0_201_4245">
<rect width="29.6609" height="29.6609" fill="white" transform="translate(0.490967 0.304443)"/>
</clipPath>
</defs>
</svg>
