<svg width="30" height="31" viewBox="0 0 30 31" fill="none" xmlns="http://www.w3.org/2000/svg">
<g clip-path="url(#clip0_201_4241)">
<path d="M8.65586 3.88779V8.5223C8.65586 9.29019 8.03339 9.91266 7.26551 9.91266H1.39515C0.627264 9.91266 0.00479126 9.29019 0.00479126 8.5223V3.88779C0.00479126 3.11991 0.627264 2.49744 1.39515 2.49744H7.26551C8.03339 2.49744 8.65586 3.11991 8.65586 3.88779ZM19.1608 17.7913V13.1568C19.1608 12.3889 18.5383 11.7665 17.7704 11.7665H11.9C11.1321 11.7665 10.5097 12.3889 10.5097 13.1568V17.7913C10.5097 18.5592 11.1321 19.1817 11.9 19.1817H17.7704C18.5383 19.1817 19.1608 18.5592 19.1608 17.7913ZM21.0146 3.88779V8.5223C21.0146 9.29019 21.6371 9.91266 22.405 9.91266H28.2753C29.0432 9.91266 29.6657 9.29019 29.6657 8.5223V3.88779C29.6657 3.11991 29.0432 2.49744 28.2753 2.49744H22.405C21.6371 2.49744 21.0146 3.11991 21.0146 3.88779ZM19.1608 8.5223V3.88779C19.1608 3.11991 18.5383 2.49744 17.7704 2.49744H11.9C11.1321 2.49744 10.5097 3.11991 10.5097 3.88779V8.5223C10.5097 9.29019 11.1321 9.91266 11.9 9.91266H17.7704C18.5383 9.91266 19.1608 9.29019 19.1608 8.5223ZM7.26551 11.7665H1.39515C0.627264 11.7665 0.00479126 12.3889 0.00479126 13.1568V17.7913C0.00479126 18.5592 0.627264 19.1817 1.39515 19.1817H7.26551C8.03339 19.1817 8.65586 18.5592 8.65586 17.7913V13.1568C8.65586 12.3889 8.03339 11.7665 7.26551 11.7665ZM0.00479126 22.4258V27.0604C0.00479126 27.8282 0.627264 28.4507 1.39515 28.4507H7.26551C8.03339 28.4507 8.65586 27.8282 8.65586 27.0604V22.4258C8.65586 21.658 8.03339 21.0355 7.26551 21.0355H1.39515C0.627264 21.0355 0.00479126 21.658 0.00479126 22.4258ZM22.405 19.1817H28.2753C29.0432 19.1817 29.6657 18.5592 29.6657 17.7913V13.1568C29.6657 12.3889 29.0432 11.7665 28.2753 11.7665H22.405C21.6371 11.7665 21.0146 12.3889 21.0146 13.1568V17.7913C21.0146 18.5592 21.6371 19.1817 22.405 19.1817ZM22.405 28.4507H28.2753C29.0432 28.4507 29.6657 27.8282 29.6657 27.0604V22.4258C29.6657 21.658 29.0432 21.0355 28.2753 21.0355H22.405C21.6371 21.0355 21.0146 21.658 21.0146 22.4258V27.0604C21.0146 27.8282 21.6371 28.4507 22.405 28.4507ZM10.5097 22.4258V27.0604C10.5097 27.8282 11.1321 28.4507 11.9 28.4507H17.7704C18.5383 28.4507 19.1607 27.8282 19.1607 27.0604V22.4258C19.1607 21.658 18.5383 21.0355 17.7704 21.0355H11.9C11.1321 21.0355 10.5097 21.658 10.5097 22.4258Z" fill="black"/>
</g>
<defs>
<clipPath id="clip0_201_4241">
<rect width="29.6609" height="29.6609" fill="white" transform="translate(0.00500488 0.643555)"/>
</clipPath>
</defs>
</svg>
