<svg width="38" height="31" viewBox="0 0 38 31" fill="none" xmlns="http://www.w3.org/2000/svg">
<g clip-path="url(#clip0_201_4239)">
<path d="M12.0827 14.8455C10.0041 15.4509 8.60972 17.2323 8.74992 19.1382C9.41033 18.4013 10.4189 17.7652 11.6407 17.347L12.0827 14.8455ZM5.64943 17.7334L3.81126 7.33412C3.79446 7.24027 3.82748 7.18234 3.82516 7.1806C7.17128 5.32332 10.9577 4.34138 14.7748 4.34138C14.8681 4.34138 14.9619 4.35123 15.0558 4.35239C15.8639 3.57205 16.8939 3.02981 18.0444 2.84617C19.1388 2.67122 20.2487 2.58258 21.357 2.53797C20.7782 1.72983 19.9388 1.13429 18.9372 0.973825C17.552 0.753106 16.1599 0.643616 14.7742 0.643616C10.3332 0.643616 5.95125 1.76864 2.02234 3.94918C0.622137 4.72662 -0.128075 6.3487 0.159844 7.97658L1.99801 18.3758C2.82237 23.0405 9.8958 26.6067 13.8421 26.6067C14.0501 26.6067 14.2331 26.5801 14.422 26.5604C13.6387 25.5709 12.7454 24.2153 12.1337 22.6454C9.37558 21.8934 5.98948 19.655 5.64943 17.7334ZM11.3006 9.77013C11.2583 9.53145 11.1714 9.31421 11.0649 9.10971C10.5869 9.62588 9.86741 10.0221 9.01872 10.171C8.17002 10.3205 7.35782 10.1942 6.73158 9.87151C6.70146 10.0998 6.69451 10.3338 6.7368 10.5725C6.95925 11.8296 8.16075 12.669 9.42134 12.4477C10.6813 12.2264 11.5231 11.0272 11.3006 9.77013ZM35.2518 7.64752C30.0971 4.78687 24.162 3.74237 18.337 4.67275C16.7549 4.92533 15.4937 6.19403 15.2064 7.8219L13.3682 18.2212C12.4766 23.2641 18.8879 29.5914 22.5393 30.2332C26.1908 30.8757 34.3846 27.1171 35.2761 22.0742L37.1143 11.6749C37.4022 10.0465 36.652 8.42439 35.2518 7.64752ZM19.4226 13.2553C19.6451 11.9982 20.8466 11.1587 22.1072 11.3806C23.3678 11.6025 24.2089 12.8011 23.987 14.0582C23.9447 14.2969 23.8579 14.5141 23.7513 14.7186C23.2733 14.2025 22.5538 13.8062 21.7051 13.6573C20.8564 13.5079 20.0442 13.6342 19.418 13.9568C19.3873 13.728 19.3803 13.494 19.4226 13.2553ZM23.505 24.7697C20.2794 24.2026 18.0873 21.3361 18.3468 18.2293C19.5402 19.7088 21.6032 20.904 24.1104 21.3448C26.6177 21.7857 28.9662 21.3663 30.5947 20.3832C29.7732 23.3921 26.7301 25.3369 23.505 24.7697ZM31.0535 16.0024C30.5756 15.4862 29.8555 15.09 29.0068 14.9411C28.1581 14.7916 27.3459 14.9179 26.7197 15.2406C26.6895 15.0123 26.6826 14.7783 26.7249 14.5396C26.9473 13.2825 28.1488 12.4431 29.4094 12.6644C30.6694 12.8863 31.5112 14.0849 31.2893 15.342C31.247 15.5812 31.1601 15.7985 31.0535 16.0024Z" fill="black"/>
</g>
<defs>
<clipPath id="clip0_201_4239">
<rect width="37.0761" height="29.6609" fill="white" transform="translate(0.098877 0.643555)"/>
</clipPath>
</defs>
</svg>
