<svg width="16" height="31" viewBox="0 0 16 31" fill="none" xmlns="http://www.w3.org/2000/svg">
<g clip-path="url(#clip0_201_4231)">
<path d="M11.5801 22.8892C11.5801 24.9369 9.92012 26.5968 7.87248 26.5968C5.82483 26.5968 4.16487 24.9369 4.16487 22.8892C4.16487 21.5171 4.91079 20.32 6.01867 19.6788V17.3278C6.01867 16.304 6.84866 15.474 7.87248 15.474C8.8963 15.474 9.72628 16.304 9.72628 17.3278V19.6788C10.8342 20.32 11.5801 21.5171 11.5801 22.8892ZM13.4339 17.9852C14.5874 19.2923 15.2877 21.0088 15.2877 22.8892C15.2877 26.9847 11.9681 30.3044 7.87248 30.3044C7.85516 30.3044 7.8372 30.3044 7.81982 30.3043C3.74712 30.276 0.436575 26.9233 0.457373 22.8506C0.466874 20.9853 1.16547 19.2833 2.31106 17.9852V6.20497C2.31106 3.13351 4.80101 0.643555 7.87248 0.643555C10.9439 0.643555 13.4339 3.13351 13.4339 6.20497V17.9852ZM12.507 22.8892C12.507 20.8999 11.3849 19.8658 10.6532 19.0367V6.20497C10.6532 4.6717 9.40575 3.42426 7.87248 3.42426C6.33921 3.42426 5.09177 4.6717 5.09177 6.20497V19.0367C4.35419 19.8725 3.2481 20.8963 3.23802 22.8648C3.22505 25.4066 5.29824 27.506 7.83911 27.5236L7.87248 27.5237C10.4279 27.5237 12.507 25.4447 12.507 22.8892Z" fill="black"/>
</g>
<defs>
<clipPath id="clip0_201_4231">
<rect width="14.8304" height="29.6609" fill="white" transform="translate(0.457275 0.643555)"/>
</clipPath>
</defs>
</svg>
