<svg width="16" height="31" viewBox="0 0 16 31" fill="none" xmlns="http://www.w3.org/2000/svg">
<g clip-path="url(#clip0_201_4235)">
<path d="M13.7547 6.20497C13.7547 3.13351 11.2647 0.643555 8.19328 0.643555C5.12181 0.643555 2.63186 3.13351 2.63186 6.20497V17.9852C1.48627 19.2833 0.787674 20.9854 0.778174 22.8506C0.757376 26.9233 4.06793 30.276 8.14062 30.3043C8.15794 30.3044 8.17596 30.3044 8.19328 30.3044C12.2889 30.3044 15.6085 26.9847 15.6085 22.8892C15.6085 21.0088 14.9082 19.2923 13.7547 17.9852V6.20497ZM8.19328 27.5237L8.15991 27.5236C5.61904 27.506 3.54585 25.4066 3.55882 22.8648C3.56885 20.8963 4.67493 19.8725 5.41257 19.0367V6.20497C5.41257 4.6717 6.66001 3.42426 8.19328 3.42426C9.72655 3.42426 10.974 4.6717 10.974 6.20497V19.0367C11.7057 19.8658 12.8278 20.9 12.8278 22.8892C12.8278 25.4447 10.7488 27.5237 8.19328 27.5237ZM11.9009 22.8892C11.9009 24.9369 10.2409 26.5968 8.19328 26.5968C6.14564 26.5968 4.48567 24.9369 4.48567 22.8892C4.48567 21.5171 5.23159 20.32 6.33947 19.6788V6.20497C6.33947 5.18115 7.16946 4.35117 8.19328 4.35117C9.2171 4.35117 10.0471 5.18115 10.0471 6.20497V19.6788C11.155 20.32 11.9009 21.5171 11.9009 22.8892Z" fill="black"/>
</g>
<defs>
<clipPath id="clip0_201_4235">
<rect width="14.8304" height="29.6609" fill="white" transform="translate(0.778076 0.643555)"/>
</clipPath>
</defs>
</svg>
