<svg width="30" height="31" viewBox="0 0 30 31" fill="none" xmlns="http://www.w3.org/2000/svg">
<g clip-path="url(#clip0_201_4227)">
<path d="M27.9277 1.82542C25.7553 0.0469254 22.3952 0.301824 20.2865 2.41632L17.6391 5.08117L20.5646 8.0067C20.7442 8.18629 20.7442 8.48174 20.5646 8.66133L19.91 9.31595C19.7304 9.49554 19.435 9.49554 19.2554 9.31595L16.3356 6.39042L13.7229 9.0205L16.6369 11.9402C16.8165 12.1198 16.8165 12.4153 16.6369 12.5949L15.9822 13.2495C15.8027 13.4291 15.5072 13.4291 15.3276 13.2495L12.4137 10.3413L9.80096 12.9714L12.7033 15.8796C12.8829 16.0592 12.8829 16.3546 12.7033 16.5342L12.0487 17.1888C11.8691 17.3684 11.5737 17.3684 11.3941 17.1888L8.49171 14.2807L5.86741 16.9281V22.7734L0.711517 27.9293C0.166962 28.4739 0.166962 29.3544 0.711517 29.8932C1.25607 30.4377 2.13663 30.4377 2.67539 29.8932L7.83129 24.7373H13.6186L28.3448 10.0633C30.3666 8.04146 30.7895 4.18323 27.9277 1.82542Z" fill="black"/>
</g>
<defs>
<clipPath id="clip0_201_4227">
<rect width="29.6609" height="29.6609" fill="white" transform="translate(0.30603 0.643555)"/>
</clipPath>
</defs>
</svg>
