<svg width="16" height="31" viewBox="0 0 16 31" fill="none" xmlns="http://www.w3.org/2000/svg">
<g clip-path="url(#clip0_201_4237)">
<path d="M11.5613 22.8892C11.5613 24.9369 9.90132 26.5968 7.85368 26.5968C5.80604 26.5968 4.14607 24.9369 4.14607 22.8892C4.14607 20.8416 5.80604 19.1816 7.85368 19.1816C9.90132 19.1816 11.5613 20.8416 11.5613 22.8892ZM13.4151 17.9852C14.5686 19.2923 15.2689 21.0088 15.2689 22.8892C15.2689 26.9847 11.9493 30.3044 7.85368 30.3044C7.83636 30.3044 7.8184 30.3044 7.80102 30.3043C3.72833 30.276 0.417777 26.9233 0.438574 22.8506C0.448075 20.9853 1.14667 19.2833 2.29226 17.9852V6.20497C2.29226 3.13351 4.78221 0.643555 7.85368 0.643555C10.9251 0.643555 13.4151 3.13351 13.4151 6.20497V17.9852ZM12.4882 22.8892C12.4882 20.8999 11.3661 19.8658 10.6344 19.0367V6.20497C10.6344 4.6717 9.38695 3.42426 7.85368 3.42426C6.32041 3.42426 5.07297 4.6717 5.07297 6.20497V19.0367C4.33539 19.8725 3.2293 20.8963 3.21922 22.8648C3.20625 25.4066 5.27944 27.506 7.82031 27.5236L7.85368 27.5237C10.4092 27.5237 12.4882 25.4447 12.4882 22.8892Z" fill="black"/>
</g>
<defs>
<clipPath id="clip0_201_4237">
<rect width="14.8304" height="29.6609" fill="white" transform="translate(0.438477 0.643555)"/>
</clipPath>
</defs>
</svg>
