<svg width="23" height="31" viewBox="0 0 23 31" fill="none" xmlns="http://www.w3.org/2000/svg">
<g clip-path="url(#clip0_201_4221)">
<path d="M17.514 13.0564L16.8052 6.20503H19.2503C20.0182 6.20503 20.6406 5.58256 20.6406 4.81468V2.03397C20.6406 1.26609 20.0182 0.643616 19.2503 0.643616H3.49294C2.72506 0.643616 2.10258 1.26609 2.10258 2.03397V4.81468C2.10258 5.58256 2.72506 6.20503 3.49294 6.20503H5.93805L5.22926 13.0564C2.41918 14.3629 0.248779 16.7057 0.248779 19.6451C0.248779 20.413 0.871252 21.0355 1.63913 21.0355H9.51781V27.0607C9.51781 27.1327 9.53455 27.2037 9.56676 27.268L10.9571 30.0487C11.1275 30.3895 11.6154 30.3901 11.7862 30.0487L13.1765 27.268C13.2087 27.2037 13.2255 27.1327 13.2255 27.0607V21.0355H21.1041C21.872 21.0355 22.4945 20.413 22.4945 19.6451C22.4944 16.68 20.2941 14.349 17.514 13.0564Z" fill="black"/>
</g>
<defs>
<clipPath id="clip0_201_4221">
<rect width="22.2457" height="29.6609" fill="white" transform="translate(0.248657 0.643555)"/>
</clipPath>
</defs>
</svg>
