<svg width="21" height="31" viewBox="0 0 21 31" fill="none" xmlns="http://www.w3.org/2000/svg">
<g clip-path="url(#clip0_201_4215)">
<path d="M14.3985 15.474L20.1957 9.67681C20.9071 8.96541 20.9071 7.812 20.1957 7.10002L18.9073 5.81162C18.1959 5.10023 17.0425 5.10023 16.3305 5.81162L10.5333 11.6088L4.73614 5.81162C4.02474 5.10023 2.87132 5.10023 2.15935 5.81162L0.870951 7.10002C0.159553 7.81142 0.159553 8.96483 0.870951 9.67681L6.66815 15.474L0.870951 21.2712C0.159553 21.9826 0.159553 23.136 0.870951 23.848L2.15935 25.1364C2.87074 25.8478 4.02474 25.8478 4.73614 25.1364L10.5333 19.3392L16.3305 25.1364C17.0419 25.8478 18.1959 25.8478 18.9073 25.1364L20.1957 23.848C20.9071 23.1366 20.9071 21.9832 20.1957 21.2712L14.3985 15.474Z" fill="black"/>
</g>
<defs>
<clipPath id="clip0_201_4215">
<rect width="20.3919" height="29.6609" fill="white" transform="translate(0.337402 0.643555)"/>
</clipPath>
</defs>
</svg>
