<svg width="38" height="31" viewBox="0 0 38 31" fill="none" xmlns="http://www.w3.org/2000/svg">
<g clip-path="url(#clip0_201_4213)">
<path d="M37.1493 27.182L29.1055 20.9648C29.1357 20.6421 29.1652 20.3183 29.1652 19.9875C29.1652 13.5131 23.3842 11.1043 20.662 1.92334C20.2021 0.256075 17.7979 0.178447 17.2765 1.92334C16.3774 4.95547 15.1406 7.25072 13.8881 9.20416L3.06537 0.838865C2.661 0.524877 2.07821 0.597291 1.76423 1.00165L0.626452 2.46558C0.312464 2.86936 0.384878 3.45157 0.789239 3.76614L34.8738 30.1093C35.2781 30.4239 35.8603 30.3509 36.1749 29.9465L37.3127 28.4826C37.6261 28.0788 37.5537 27.4966 37.1493 27.182ZM8.77335 19.9875C8.77335 25.6903 13.3337 30.3045 18.9693 30.3045C21.5594 30.3045 23.9149 29.322 25.7125 27.715L9.85782 15.4613C9.19683 16.8227 8.77335 18.2623 8.77335 19.9875Z" fill="black"/>
</g>
<defs>
<clipPath id="clip0_201_4213">
<rect width="37.0761" height="29.6609" fill="white" transform="translate(0.431274 0.643555)"/>
</clipPath>
</defs>
</svg>
