<svg width="21" height="31" viewBox="0 0 21 31" fill="none" xmlns="http://www.w3.org/2000/svg">
<g clip-path="url(#clip0_201_4211)">
<path d="M12.0982 1.92322C11.6382 0.255953 9.23403 0.178325 8.71265 1.92322C6.00319 11.0625 0.209473 13.546 0.209473 19.9874C0.209473 25.6902 4.76983 30.3044 10.4054 30.3044C16.041 30.3044 20.6013 25.6902 20.6013 19.9874C20.6013 13.5136 14.8204 11.1042 12.0982 1.92322ZM10.4054 26.5968C6.82814 26.5968 3.91708 23.6857 3.91708 20.1085C3.91708 19.5964 4.33187 19.1816 4.84399 19.1816C5.3561 19.1816 5.77089 19.5964 5.77089 20.1085C5.77089 22.6638 7.85005 24.743 10.4054 24.743C10.9175 24.743 11.3323 25.1578 11.3323 25.6699C11.3323 26.182 10.9175 26.5968 10.4054 26.5968Z" fill="black"/>
</g>
<defs>
<clipPath id="clip0_201_4211">
<rect width="20.3919" height="29.6609" fill="white" transform="translate(0.209473 0.643555)"/>
</clipPath>
</defs>
</svg>
