<svg width="30" height="31" viewBox="0 0 30 31" fill="none" xmlns="http://www.w3.org/2000/svg">
<g clip-path="url(#clip0_201_4209)">
<path d="M15.0125 1.10706C7.0759 1.10706 0.645508 7.53744 0.645508 15.474C0.645508 23.4107 7.0759 29.841 15.0125 29.841C22.9491 29.841 29.3795 23.4107 29.3795 15.474C29.3795 7.53744 22.9491 1.10706 15.0125 1.10706ZM16.9706 12.0966L21.6051 9.31594C22.2771 8.91621 22.9955 9.76201 22.4972 10.3587L20.5507 12.6933L22.4972 15.028C23.0012 15.6305 22.2713 16.4647 21.6051 16.0707L16.9706 13.29C16.5245 13.0178 16.5245 12.3689 16.9706 12.0966ZM7.52776 10.3587C7.02955 9.76201 7.7479 8.91621 8.41991 9.31594L13.0544 12.0966C13.5063 12.3689 13.5063 13.0178 13.0544 13.29L8.41991 16.0707C7.75369 16.4647 7.02955 15.6305 7.52776 15.028L9.47426 12.6933L7.52776 10.3587ZM15.0125 17.3279C18.0191 17.3279 21.692 19.8653 22.1497 23.5091C22.2481 24.297 21.6862 24.9343 21.1243 24.6909C19.6238 24.0479 17.3935 23.6829 15.0125 23.6829C12.6315 23.6829 10.4012 24.0479 8.90074 24.6909C8.33301 24.9343 7.77687 24.2854 7.87535 23.5091C8.33301 19.8653 12.0059 17.3279 15.0125 17.3279Z" fill="black"/>
</g>
<defs>
<clipPath id="clip0_201_4209">
<rect width="28.734" height="29.6609" fill="white" transform="translate(0.645508 0.643555)"/>
</clipPath>
</defs>
</svg>
