<svg width="34" height="31" viewBox="0 0 34 31" fill="none" xmlns="http://www.w3.org/2000/svg">
<g clip-path="url(#clip0_201_4207)">
<path d="M22.6927 4.3512H11.5699C5.42686 4.3512 0.447021 9.33104 0.447021 15.474C0.447021 21.617 5.42686 26.5969 11.5699 26.5969H22.6927C28.8357 26.5969 33.8155 21.617 33.8155 15.474C33.8155 9.33104 28.8357 4.3512 22.6927 4.3512ZM4.15463 15.474C4.15463 11.3759 7.47115 8.05881 11.5699 8.05881C15.668 8.05881 18.9851 11.3753 18.9851 15.474C18.9851 19.5722 15.6686 22.8893 11.5699 22.8893C7.47173 22.8893 4.15463 19.5727 4.15463 15.474ZM22.6927 22.8893H19.8596C23.6377 18.6685 23.6388 12.2808 19.8596 8.05881H22.6927C26.7908 8.05881 30.1079 11.3753 30.1079 15.474C30.1079 19.5721 26.7914 22.8893 22.6927 22.8893Z" fill="black"/>
</g>
<defs>
<clipPath id="clip0_201_4207">
<rect width="33.3685" height="29.6609" fill="white" transform="translate(0.447021 0.643555)"/>
</clipPath>
</defs>
</svg>
