<svg width="34" height="31" viewBox="0 0 34 31" fill="none" xmlns="http://www.w3.org/2000/svg">
<g clip-path="url(#clip0_201_4205)">
<path d="M22.4932 4.3512H11.3704C5.22966 4.3512 0.247559 9.3333 0.247559 15.474C0.247559 21.6148 5.22966 26.5969 11.3704 26.5969H22.4932C28.634 26.5969 33.6161 21.6148 33.6161 15.474C33.6161 9.3333 28.634 4.3512 22.4932 4.3512ZM22.4932 22.8893C18.3917 22.8893 15.078 19.5698 15.078 15.474C15.078 11.3725 18.3975 8.05881 22.4932 8.05881C26.5948 8.05881 29.9084 11.3783 29.9084 15.474C29.9084 19.5756 26.589 22.8893 22.4932 22.8893Z" fill="black"/>
</g>
<defs>
<clipPath id="clip0_201_4205">
<rect width="33.3685" height="29.6609" fill="white" transform="translate(0.248535 0.643555)"/>
</clipPath>
</defs>
</svg>
