<svg width="23" height="31" viewBox="0 0 23 31" fill="none" xmlns="http://www.w3.org/2000/svg">
<g clip-path="url(#clip0_201_4199)">
<path d="M21.3869 3.42439C21.8967 3.42439 22.3138 3.00728 22.3138 2.49748V1.57058C22.3138 1.06078 21.8967 0.643677 21.3869 0.643677H0.995018C0.485221 0.643677 0.0681152 1.06078 0.0681152 1.57058V2.49748C0.0681152 3.00728 0.485221 3.42439 0.995018 3.42439H1.92192V12.5022C0.751706 13.0873 0.0681152 13.7883 0.0681152 14.5472C0.0681152 18.4402 2.07254 21.8582 5.09656 23.8452L3.85683 27.912C3.49186 29.0996 4.38401 30.3046 5.62953 30.3046H16.7524C17.9979 30.3046 18.89 29.0996 18.5251 27.912L17.2853 23.8452C20.3094 21.8582 22.3138 18.4402 22.3138 14.5472C22.3138 13.7883 21.6302 13.0873 20.46 12.5022V3.42439H21.3869ZM4.70263 4.81474C4.70263 4.55984 4.91118 4.35129 5.16608 4.35129H7.94679C8.20169 4.35129 8.41024 4.55984 8.41024 4.81474V5.74164C8.41024 5.99654 8.20169 6.20509 7.94679 6.20509H5.16608C4.91118 6.20509 4.70263 5.99654 4.70263 5.74164V4.81474ZM11.1909 16.401C6.72444 16.401 3.10372 15.5726 3.10372 14.5472C3.10372 13.5218 6.72444 12.6934 11.1909 12.6934C15.6575 12.6934 19.2782 13.5218 19.2782 14.5472C19.2782 15.5726 15.6575 16.401 11.1909 16.401Z" fill="black"/>
</g>
<defs>
<clipPath id="clip0_201_4199">
<rect width="22.2457" height="29.6609" fill="white" transform="translate(0.0681152 0.643555)"/>
</clipPath>
</defs>
</svg>
