<svg width="30" height="31" viewBox="0 0 30 31" fill="none" xmlns="http://www.w3.org/2000/svg">
<g clip-path="url(#clip0_201_4195)">
<path d="M29.1158 23.567L22.3321 16.7833C20.9938 15.445 18.9952 15.1843 17.3847 15.978L11.2092 9.80251V6.20497L3.794 0.643555L0.0863926 4.35117L5.64781 11.7664H9.24535L15.4208 17.9419C14.633 19.5524 14.8879 21.551 16.2261 22.8892L23.0099 29.673C23.8557 30.5188 25.2228 30.5188 26.0628 29.673L29.1158 26.62C29.9558 25.7742 29.9558 24.407 29.1158 23.567ZM19.3022 13.6781C20.9417 13.6781 22.4827 14.3154 23.6413 15.474L24.7652 16.5979C25.6805 16.1981 26.5495 15.642 27.3026 14.8889C29.4518 12.7396 30.1818 9.71562 29.4982 6.96967C29.3707 6.44828 28.7161 6.2687 28.3338 6.65104L24.0237 10.9611L20.0901 10.3065L19.4355 6.37297L23.7456 2.06287C24.1279 1.68053 23.9426 1.0259 23.4154 0.89266C20.6694 0.214862 17.6454 0.944798 15.5019 3.08826C13.8509 4.73931 13.0746 6.91753 13.1152 9.08996L17.8713 13.8461C18.3406 13.7361 18.8272 13.6781 19.3022 13.6781ZM13.2832 18.4285L9.99846 15.1438L1.16971 23.9783C-0.278575 25.4266 -0.278575 27.7728 1.16971 29.2211C2.618 30.6694 4.96422 30.6694 6.4125 29.2211L13.5728 22.0608C13.1325 20.908 12.9993 19.6509 13.2832 18.4285ZM3.794 27.9872C3.02931 27.9872 2.40365 27.3615 2.40365 26.5968C2.40365 25.8263 3.02352 25.2065 3.794 25.2065C4.56449 25.2065 5.18436 25.8263 5.18436 26.5968C5.18436 27.3615 4.56449 27.9872 3.794 27.9872Z" fill="black"/>
</g>
<defs>
<clipPath id="clip0_201_4195">
<rect width="29.6609" height="29.6609" fill="white" transform="translate(0.0864258 0.643555)"/>
</clipPath>
</defs>
</svg>
