<svg width="31" height="31" viewBox="0 0 31 31" fill="none" xmlns="http://www.w3.org/2000/svg">
<g clip-path="url(#clip0_201_4197)">
<path d="M29.6953 13.0774L27.0739 10.456C26.7264 10.1084 26.2548 9.91318 25.763 9.91318H22.8229V5.27808C22.8229 3.74232 21.578 2.49738 20.0422 2.49738H10.7732C9.23744 2.49738 7.99249 3.74232 7.99249 5.27808V9.9126H5.05247C4.56064 9.9126 4.08965 10.1078 3.74148 10.4554L1.12009 13.0774C0.772499 13.425 0.577271 13.8965 0.577271 14.3884V19.1816H7.99249V18.2547C7.99249 17.7426 8.40728 17.3278 8.9194 17.3278H10.7732C11.2853 17.3278 11.7001 17.7426 11.7001 18.2547V19.1816H19.1153V18.2547C19.1153 17.7426 19.5301 17.3278 20.0422 17.3278H21.896C22.4081 17.3278 22.8229 17.7426 22.8229 18.2547V19.1816H30.2382V14.3878C30.2382 13.8965 30.0429 13.425 29.6953 13.0774ZM19.1153 9.9126H11.7001V6.20499H19.1153V9.9126ZM22.8229 21.9623C22.8229 22.4744 22.4081 22.8892 21.896 22.8892H20.0422C19.5301 22.8892 19.1153 22.4744 19.1153 21.9623V21.0354H11.7001V21.9623C11.7001 22.4744 11.2853 22.8892 10.7732 22.8892H8.9194C8.40728 22.8892 7.99249 22.4744 7.99249 21.9623V21.0354H0.577271V26.5968C0.577271 27.6205 1.40743 28.4507 2.43108 28.4507H28.3844C29.408 28.4507 30.2382 27.6205 30.2382 26.5968V21.0354H22.8229V21.9623Z" fill="black"/>
</g>
<defs>
<clipPath id="clip0_201_4197">
<rect width="29.6609" height="29.6609" fill="white" transform="translate(0.577271 0.643555)"/>
</clipPath>
</defs>
</svg>
