<svg width="38" height="31" viewBox="0 0 38 31" fill="none" xmlns="http://www.w3.org/2000/svg">
<g clip-path="url(#clip0_201_4191)">
<path d="M18.9377 21.8743L19.9642 20.1572H17.91L18.9377 21.8743ZM24.6851 12.2577H22.5497L23.6191 14.0432L24.6851 12.2577ZM3.17744 0.643616C1.64167 0.643616 0.396729 1.47377 0.396729 2.49742V28.4507C0.396729 29.4743 1.64167 30.3045 3.17744 30.3045C4.7132 30.3045 5.95815 29.4743 5.95815 28.4507V2.49742C5.95815 1.47377 4.7132 0.643616 3.17744 0.643616ZM13.1845 18.6893H15.3193L14.2499 16.9038L13.1845 18.6893ZM22.5526 18.6893H24.688L23.6191 16.905L22.5526 18.6893ZM7.81195 27.5238H30.0576V3.42432H7.81195V27.5238ZM11.68 11.4113C11.7877 11.2225 11.9435 11.0656 12.1316 10.9566C12.3196 10.8476 12.5332 10.7904 12.7506 10.7909H16.1946L17.8822 7.96904C17.9906 7.78573 18.1451 7.63389 18.3302 7.52854C18.5153 7.42318 18.7247 7.36794 18.9377 7.3683C19.1475 7.36758 19.354 7.4218 19.5364 7.52557C19.7188 7.62933 19.8709 7.77902 19.9776 7.95978L21.672 10.7903H25.1201C25.3367 10.7903 25.5494 10.8478 25.7365 10.957C25.9236 11.0661 26.0783 11.2229 26.185 11.4114C26.2916 11.6 26.3463 11.8134 26.3434 12.03C26.3406 12.2465 26.2803 12.4585 26.1687 12.6441L24.4748 15.4741L26.1762 18.3127C26.2882 18.4966 26.3486 18.7073 26.351 18.9225C26.3535 19.1378 26.2979 19.3498 26.1901 19.5362C26.0824 19.725 25.9266 19.882 25.7385 19.991C25.5505 20.1001 25.3369 20.1575 25.1195 20.1572H21.6744L19.9868 22.9785C19.8789 23.1616 19.7251 23.3135 19.5406 23.4191C19.3562 23.5248 19.1474 23.5806 18.9348 23.581C18.7244 23.582 18.5174 23.5278 18.3345 23.424C18.1515 23.3201 17.999 23.1701 17.892 22.9889L16.1975 20.1572H12.7506C12.5339 20.1574 12.3211 20.1 12.1339 19.9909C11.9468 19.8818 11.7919 19.725 11.6852 19.5364C11.5786 19.3478 11.5239 19.1343 11.5269 18.9176C11.5298 18.701 11.5903 18.489 11.702 18.3034L13.3942 15.4741L11.6934 12.6354C11.5814 12.4514 11.5211 12.2406 11.5187 12.0252C11.5164 11.8098 11.5721 11.5978 11.68 11.4113ZM34.6921 0.643616C33.1564 0.643616 31.9114 1.47377 31.9114 2.49742V28.4507C31.9114 29.4743 33.1564 30.3045 34.6921 30.3045C36.2279 30.3045 37.4728 29.4743 37.4728 28.4507V2.49742C37.4728 1.47377 36.2279 0.643616 34.6921 0.643616ZM18.9348 9.07438L17.9048 10.7903H19.959L18.9348 9.07438ZM15.317 12.2606H13.1845L14.2528 14.0449L15.317 12.2606ZM17.0306 18.691H20.8419L22.7635 15.4741L20.8384 12.2577H17.0271L15.1055 15.4741L17.0306 18.691Z" fill="black"/>
</g>
<defs>
<clipPath id="clip0_201_4191">
<rect width="37.0761" height="29.6609" fill="white" transform="translate(0.396973 0.643555)"/>
</clipPath>
</defs>
</svg>
