<svg width="38" height="31" viewBox="0 0 38 31" fill="none" xmlns="http://www.w3.org/2000/svg">
<g clip-path="url(#clip0_201_4187)">
<path d="M30.5877 20.1086C27.7722 20.1086 25.4897 22.3911 25.4897 25.2065C25.4897 28.022 27.7722 30.3045 30.5877 30.3045C33.4031 30.3045 35.6856 28.022 35.6856 25.2065C35.6856 22.3911 33.4031 20.1086 30.5877 20.1086ZM30.5877 26.5969C29.8212 26.5969 29.1973 25.973 29.1973 25.2065C29.1973 24.4401 29.8212 23.8162 30.5877 23.8162C31.3541 23.8162 31.978 24.4401 31.978 25.2065C31.978 25.973 31.3541 26.5969 30.5877 26.5969ZM35.2222 9.91265H31.5146V7.5838C31.5146 6.76581 31.7869 5.97563 32.2764 5.33375C32.5324 4.99774 32.482 4.51923 32.1999 4.20466L30.9468 2.80446C30.561 2.37287 29.8855 2.40357 29.5159 2.84965C28.4199 4.17164 27.807 5.84644 27.807 7.5838V9.91265H21.8788L18.6295 2.33174C18.416 1.83053 18.0598 1.40322 17.6052 1.10304C17.1506 0.802856 16.6177 0.64308 16.073 0.643617H8.342C6.80856 0.643617 5.56129 1.89088 5.56129 3.42433V11.9124C5.06135 11.5226 4.34705 11.5382 3.88766 11.9976L2.08541 13.7998C1.58778 14.2975 1.58778 15.1045 2.08541 15.6021L2.37854 15.8952C2.08946 16.4317 1.85948 16.9855 1.68858 17.559H1.27437C0.570502 17.559 -0.00012207 18.1296 -0.00012207 18.8335V21.3825C-0.00012207 22.0864 0.570502 22.657 1.27437 22.657H1.688C1.85948 23.2311 2.08889 23.7843 2.37796 24.3213L2.08483 24.6145C1.5872 25.1121 1.5872 25.9191 2.08483 26.4167L3.88708 28.219C4.38471 28.7166 5.19169 28.7166 5.68932 28.219L5.98246 27.9258C6.5189 28.2149 7.07273 28.4449 7.64625 28.6158V29.03C7.64625 29.7339 8.21687 30.3045 8.92074 30.3045H11.4697C12.1736 30.3045 12.7442 29.7339 12.7442 29.03V28.6164C13.3177 28.4455 13.8716 28.2155 14.408 27.9264L14.7011 28.2196C15.1988 28.7172 16.0058 28.7172 16.5034 28.2196L18.3056 26.4173C18.8033 25.9197 18.8033 25.1127 18.3056 24.6151L18.0125 24.3219C18.3016 23.7855 18.5316 23.2317 18.7025 22.6581H19.1172C19.8211 22.6581 20.3917 22.0875 20.3917 21.3836V21.0361H25.0575C26.3268 19.3566 28.3202 18.2554 30.5877 18.2554C31.6675 18.2554 32.6773 18.5224 33.5885 18.9621L36.5326 16.018C36.8802 15.6705 37.0754 15.1989 37.0754 14.707V11.7665C37.076 10.7428 36.2458 9.91265 35.2222 9.91265ZM10.1958 24.7431C7.6364 24.7431 5.56129 22.668 5.56129 20.1086C5.56129 17.5492 7.6364 15.4741 10.1958 15.4741C12.7552 15.4741 14.8303 17.5492 14.8303 20.1086C14.8303 22.668 12.7552 24.7431 10.1958 24.7431ZM11.4703 9.91265H9.26891V4.35123H15.4612L17.8451 9.91265H11.4703Z" fill="black"/>
</g>
<defs>
<clipPath id="clip0_201_4187">
<rect width="37.0761" height="29.6609" fill="white" transform="translate(0 0.643555)"/>
</clipPath>
</defs>
</svg>
