<svg width="38" height="31" viewBox="0 0 38 31" fill="none" xmlns="http://www.w3.org/2000/svg">
<g clip-path="url(#clip0_201_4185)">
<path d="M15.1766 6.54413H0.774889C0.392542 6.54413 0.0797119 6.85696 0.0797119 7.23931V9.73615C0.0797119 10.1185 0.392542 10.4313 0.774889 10.4313H5.70485V24.387C5.70485 24.7694 6.01768 25.0822 6.40003 25.0822H9.54571C9.92805 25.0822 10.2409 24.7694 10.2409 24.387V10.4313H15.1708C15.5532 10.4313 15.866 10.1185 15.866 9.73615V7.23931C15.8718 6.85696 15.559 6.54413 15.1766 6.54413ZM37.1558 24.3291L35.7655 7.18137C35.7365 6.8222 35.4353 6.54413 35.0703 6.54413H31.2816C30.9861 6.54413 30.7196 6.7353 30.627 7.01337L28.0896 14.3765C27.6724 15.5698 27.1569 17.4352 27.1569 17.4352H27.1047C27.1047 17.4352 26.5891 15.5698 26.172 14.3765L23.6346 7.01337C23.5361 6.7353 23.2755 6.54413 22.98 6.54413H19.1913C18.8321 6.54413 18.5309 6.8222 18.4961 7.18137L17.0826 24.3291C17.0478 24.7346 17.3664 25.0822 17.7778 25.0822H20.935C21.3 25.0822 21.6012 24.7983 21.6302 24.4334L22.1574 16.7343C22.2617 15.3323 22.1574 13.6233 22.1574 13.6233H22.2095C22.2095 13.6233 22.8294 15.5698 23.2465 16.7343L25.025 21.6411C25.1235 21.9133 25.3842 22.0987 25.6796 22.0987H28.5936C28.889 22.0987 29.1497 21.9133 29.2482 21.6411L31.0267 16.7343C31.4438 15.5698 32.0637 13.6233 32.0637 13.6233H32.1158C32.1158 13.6233 32.0115 15.3323 32.1158 16.7343L32.643 24.4334C32.6661 24.7983 32.9732 25.0822 33.3381 25.0822H36.4606C36.8662 25.0822 37.1848 24.7346 37.1558 24.3291Z" fill="black"/>
</g>
<defs>
<clipPath id="clip0_201_4185">
<rect width="37.0761" height="29.6609" fill="white" transform="translate(0.0797119 0.982666)"/>
</clipPath>
</defs>
</svg>
