<svg width="23" height="31" viewBox="0 0 23 31" fill="none" xmlns="http://www.w3.org/2000/svg">
<g clip-path="url(#clip0_201_4183)">
<path d="M22.2497 12.1055H18.5421V9.91106C20.6971 9.1452 22.2497 7.10834 22.2497 4.69028H18.5421V2.83647C18.5421 1.81282 17.7119 0.982666 16.6883 0.982666H5.56544C4.5418 0.982666 3.71164 1.81282 3.71164 2.83647V4.69028H0.00402832C0.00402832 7.10834 1.55659 9.1452 3.71164 9.91106V12.1055H0.00402832C0.00402832 14.5236 1.55659 16.5604 3.71164 17.3263V19.5207H0.00402832C0.00402832 22.0025 1.64059 24.0793 3.88485 24.7954C4.60494 28.1363 7.56987 30.6436 11.1269 30.6436C14.6839 30.6436 17.6488 28.1363 18.3689 24.7954C20.6131 24.0793 22.2497 22.0025 22.2497 19.5207H18.5421V17.3263C20.6971 16.5604 22.2497 14.5236 22.2497 12.1055ZM11.1269 25.0821C9.5911 25.0821 8.34615 23.8372 8.34615 22.3014C8.34615 20.7657 9.5911 19.5207 11.1269 19.5207C12.6626 19.5207 13.9076 20.7657 13.9076 22.3014C13.9076 23.8372 12.6626 25.0821 11.1269 25.0821ZM11.1269 17.6669C9.5911 17.6669 8.34615 16.422 8.34615 14.8862C8.34615 13.3504 9.5911 12.1055 11.1269 12.1055C12.6626 12.1055 13.9076 13.3504 13.9076 14.8862C13.9076 16.422 12.6626 17.6669 11.1269 17.6669ZM11.1269 10.2517C9.5911 10.2517 8.34615 9.00675 8.34615 7.47099C8.34615 5.93522 9.5911 4.69028 11.1269 4.69028C12.6626 4.69028 13.9076 5.93522 13.9076 7.47099C13.9076 9.00675 12.6626 10.2517 11.1269 10.2517Z" fill="black"/>
</g>
<defs>
<clipPath id="clip0_201_4183">
<rect width="22.2457" height="29.6609" fill="white" transform="translate(0.00402832 0.982666)"/>
</clipPath>
</defs>
</svg>
