<svg width="27" height="31" viewBox="0 0 27 31" fill="none" xmlns="http://www.w3.org/2000/svg">
<g clip-path="url(#clip0_201_4179)">
<path d="M26.2679 6.54402V21.3745C26.2679 24.3762 22.6979 26.9359 18.7355 26.9359L22.384 29.8163C22.7285 30.0883 22.5349 30.6435 22.0968 30.6435H4.48564C4.04663 30.6435 3.85465 30.0877 4.19847 29.8163L7.84693 26.9359C3.8959 26.9359 0.314575 24.3842 0.314575 21.3745V6.54402C0.314575 3.47256 4.02219 0.982605 7.7298 0.982605H18.8526C22.6182 0.982605 26.2679 3.47256 26.2679 6.54402ZM23.4871 14.4227V7.93438C23.4871 7.16649 22.8647 6.54402 22.0968 6.54402H4.48564C3.71776 6.54402 3.09528 7.16649 3.09528 7.93438V14.4227C3.09528 15.1906 3.71776 15.813 4.48564 15.813H22.0968C22.8647 15.813 23.4871 15.1906 23.4871 14.4227ZM13.2912 18.1303C11.4995 18.1303 10.0471 19.5828 10.0471 21.3745C10.0471 23.1662 11.4995 24.6186 13.2912 24.6186C15.0829 24.6186 16.5354 23.1662 16.5354 21.3745C16.5354 19.5828 15.0829 18.1303 13.2912 18.1303Z" fill="black"/>
</g>
<defs>
<clipPath id="clip0_201_4179">
<rect width="25.9533" height="29.6609" fill="white" transform="translate(0.314575 0.982666)"/>
</clipPath>
</defs>
</svg>
