<svg width="31" height="31" viewBox="0 0 31 31" fill="none" xmlns="http://www.w3.org/2000/svg">
<g clip-path="url(#clip0_201_4177)">
<path d="M17.5081 4.69022C18.5335 4.69022 19.3619 3.8618 19.3619 2.83641C19.3619 1.81102 18.5335 0.982605 17.5081 0.982605C16.4828 0.982605 15.6543 1.81102 15.6543 2.83641C15.6543 3.8618 16.4828 4.69022 17.5081 4.69022ZM30.4558 3.98925C30.3226 3.49104 29.8186 3.20138 29.3204 3.33462L1.51327 10.7498C1.02086 10.8831 0.725407 11.3871 0.85865 11.8853C0.968719 12.2966 1.33948 12.5689 1.75079 12.5689C1.8319 12.5689 1.913 12.5573 1.98831 12.5399L14.7274 9.13935V13.9592H4.5315C3.50612 13.9592 2.6777 14.7877 2.6777 15.813V28.7897C2.6777 29.8151 3.50612 30.6435 4.5315 30.6435H26.7772C27.8026 30.6435 28.631 29.8151 28.631 28.7897V15.813C28.631 14.7877 27.8026 13.9592 26.7772 13.9592H16.5812V8.64693L29.7954 5.1247C30.2936 4.99146 30.5833 4.48166 30.4558 3.98925ZM11.0198 23.2283H5.4584V17.6669H11.0198V23.2283ZM20.2888 17.6669H25.8503V23.2283H20.2888V17.6669ZM18.435 17.6669V23.2283H12.8736V17.6669H18.435ZM11.9467 6.54402C12.9721 6.54402 13.8005 5.7156 13.8005 4.69022C13.8005 3.66483 12.9721 2.83641 11.9467 2.83641C10.9213 2.83641 10.0929 3.66483 10.0929 4.69022C10.0929 5.7156 10.9213 6.54402 11.9467 6.54402Z" fill="black"/>
</g>
<defs>
<clipPath id="clip0_201_4177">
<rect width="29.6609" height="29.6609" fill="white" transform="translate(0.82373 0.982666)"/>
</clipPath>
</defs>
</svg>
