<svg width="23" height="31" viewBox="0 0 23 31" fill="none" xmlns="http://www.w3.org/2000/svg">
<g clip-path="url(#clip0_201_4173)">
<path d="M21.6605 0.982666H17.0839C16.464 0.982666 16.157 1.72998 16.5915 2.17026L17.5705 3.1493L12.8955 7.82437C11.6094 7.01333 10.0858 6.54408 8.45211 6.54408C3.84656 6.54408 0.109985 10.2807 0.109985 14.8862C0.109985 18.8545 2.8849 22.1798 6.5983 23.0198V24.6187H4.51277C4.13043 24.6187 3.8176 24.9315 3.8176 25.3139V27.6311C3.8176 28.0135 4.13043 28.3263 4.51277 28.3263H6.5983V29.9484C6.5983 30.3307 6.91113 30.6436 7.29348 30.6436H9.61074C9.99309 30.6436 10.3059 30.3307 10.3059 29.9484V28.3263H12.3914C12.7738 28.3263 13.0866 28.0135 13.0866 27.6311V25.3139C13.0866 24.9315 12.7738 24.6187 12.3914 24.6187H10.3059V23.0198C14.0193 22.174 16.7942 18.8545 16.7942 14.8862C16.7942 13.2525 16.325 11.7289 15.514 10.4429L20.189 5.7678L21.1681 6.74684C21.6083 7.18712 22.3557 6.87429 22.3557 6.25443V1.67784C22.3557 1.2955 22.0428 0.982666 21.6605 0.982666ZM8.45211 19.5207C5.89733 19.5207 3.8176 17.441 3.8176 14.8862C3.8176 12.3314 5.89733 10.2517 8.45211 10.2517C11.0069 10.2517 13.0866 12.3314 13.0866 14.8862C13.0866 17.441 11.0069 19.5207 8.45211 19.5207Z" fill="black"/>
</g>
<defs>
<clipPath id="clip0_201_4173">
<rect width="22.2457" height="29.6609" fill="white" transform="translate(0.110962 0.982666)"/>
</clipPath>
</defs>
</svg>
