<svg width="28" height="31" viewBox="0 0 28 31" fill="none" xmlns="http://www.w3.org/2000/svg">
<g clip-path="url(#clip0_201_4175)">
<path d="M27.2986 0.982605H22.722C22.1021 0.982605 21.7951 1.72992 22.2296 2.1702L23.2086 3.14924L18.5335 7.82431C17.2474 7.01327 15.7239 6.54402 14.0902 6.54402C12.4565 6.54402 10.9329 7.01327 9.64685 7.82431L8.69098 6.86844L9.83802 5.7214C10.1103 5.44912 10.1103 5.00884 9.83802 4.73656L8.19856 3.0971C7.92628 2.82482 7.486 2.82482 7.21373 3.0971L6.06668 4.24414L4.96599 3.14345L5.94503 2.16441C6.3911 1.72992 6.07827 0.982605 5.45841 0.982605H0.881823C0.499475 0.982605 0.186646 1.29543 0.186646 1.67778V6.25436C0.186646 6.87423 0.933961 7.18127 1.37424 6.74678L2.35328 5.76774L3.45398 6.86844L2.30694 8.01548C2.03466 8.28776 2.03466 8.72804 2.30694 9.00031L3.94639 10.6398C4.21867 10.9121 4.65895 10.9121 4.93123 10.6398L6.07827 9.49273L7.03414 10.4486C6.21731 11.7289 5.74806 13.2525 5.74806 14.8861C5.74806 18.8544 8.52298 22.1797 12.2364 23.0197V24.6186H10.1509C9.7685 24.6186 9.45567 24.9315 9.45567 25.3138V27.6311C9.45567 28.0134 9.7685 28.3262 10.1509 28.3262H12.2364V29.9483C12.2364 30.3307 12.5492 30.6435 12.9316 30.6435H15.2488C15.6312 30.6435 15.944 30.3307 15.944 29.9483V28.3262H18.0295C18.4119 28.3262 18.7247 28.0134 18.7247 27.6311V25.3138C18.7247 24.9315 18.4119 24.6186 18.0295 24.6186H15.944V23.0197C19.6574 22.1739 22.4323 18.8544 22.4323 14.8861C22.4323 13.2525 21.9631 11.7289 21.152 10.4428L25.8271 5.76774L26.8061 6.74678C27.2464 7.18706 27.9937 6.87423 27.9937 6.25436V1.67778C27.9937 1.29543 27.6809 0.982605 27.2986 0.982605ZM14.0902 19.5207C11.5354 19.5207 9.45567 17.4409 9.45567 14.8861C9.45567 12.3314 11.5354 10.2516 14.0902 10.2516C16.645 10.2516 18.7247 12.3314 18.7247 14.8861C18.7247 17.4409 16.645 19.5207 14.0902 19.5207Z" fill="black"/>
</g>
<defs>
<clipPath id="clip0_201_4175">
<rect width="27.8071" height="29.6609" fill="white" transform="translate(0.186646 0.982666)"/>
</clipPath>
</defs>
</svg>
