<svg width="27" height="31" viewBox="0 0 27 31" fill="none" xmlns="http://www.w3.org/2000/svg">
<g clip-path="url(#clip0_201_4165)">
<path d="M26.004 2.83642H19.0523L18.5077 1.7531C18.3924 1.5215 18.2147 1.32668 17.9946 1.19056C17.7746 1.05445 17.5209 0.98243 17.2622 0.982615H10.6406C10.3825 0.981623 10.1293 1.05337 9.90999 1.18964C9.69073 1.32591 9.51429 1.52119 9.40089 1.7531L8.85633 2.83642H1.90456C1.65873 2.83642 1.42297 2.93408 1.24914 3.1079C1.07532 3.28173 0.977661 3.51749 0.977661 3.76332L0.977661 5.61713C0.977661 5.86296 1.07532 6.09872 1.24914 6.27255C1.42297 6.44638 1.65873 6.54403 1.90456 6.54403H26.004C26.2499 6.54403 26.4856 6.44638 26.6595 6.27255C26.8333 6.09872 26.9309 5.86296 26.9309 5.61713V3.76332C26.9309 3.51749 26.8333 3.28173 26.6595 3.1079C26.4856 2.93408 26.2499 2.83642 26.004 2.83642ZM4.05961 28.0366C4.10382 28.7425 4.4154 29.4051 4.93093 29.8894C5.44646 30.3738 6.12718 30.6434 6.83453 30.6435H21.0741C21.7814 30.6434 22.4621 30.3738 22.9777 29.8894C23.4932 29.4051 23.8048 28.7425 23.849 28.0366L25.0771 8.39784H2.83147L4.05961 28.0366Z" fill="black"/>
</g>
<defs>
<clipPath id="clip0_201_4165">
<rect width="25.9533" height="29.6609" fill="white" transform="translate(0.977661 0.982666)"/>
</clipPath>
</defs>
</svg>
