<svg width="27" height="31" viewBox="0 0 27 31" fill="none" xmlns="http://www.w3.org/2000/svg">
<g clip-path="url(#clip0_201_4169)">
<path d="M2.39812 27.8628C2.39812 28.6003 2.69108 29.3076 3.21257 29.8291C3.73405 30.3505 4.44134 30.6435 5.17883 30.6435H21.8631C22.6006 30.6435 23.3078 30.3505 23.8293 29.8291C24.3508 29.3076 24.6438 28.6003 24.6438 27.8628V8.39784H2.39812V27.8628ZM7.68784 17.8522L12.8657 12.3916C12.9493 12.3013 13.0507 12.2293 13.1634 12.18C13.2762 12.1307 13.3979 12.1053 13.521 12.1053C13.644 12.1053 13.7657 12.1307 13.8785 12.18C13.9912 12.2293 14.0926 12.3013 14.1762 12.3916L19.3541 17.8522C19.938 18.4675 19.5244 19.5207 18.6983 19.5207H15.3748V26.009C15.3748 26.2548 15.2771 26.4906 15.1033 26.6644C14.9294 26.8382 14.6937 26.9359 14.4479 26.9359H12.594C12.3482 26.9359 12.1125 26.8382 11.9386 26.6644C11.7648 26.4906 11.6671 26.2548 11.6671 26.009V19.5207H8.34362C7.51752 19.5207 7.10389 18.4675 7.68784 17.8522ZM25.5707 2.83642H18.6189L18.0744 1.7531C17.959 1.5215 17.7813 1.32668 17.5613 1.19056C17.3412 1.05445 17.0876 0.98243 16.8288 0.982615H10.2073C9.94912 0.981623 9.69591 1.05337 9.47664 1.18964C9.25738 1.32591 9.08094 1.52119 8.96754 1.7531L8.42299 2.83642H1.47121C1.22538 2.83642 0.989623 2.93408 0.815795 3.1079C0.641967 3.28173 0.544312 3.51749 0.544312 3.76332L0.544312 5.61713C0.544312 5.86296 0.641967 6.09872 0.815795 6.27255C0.989623 6.44638 1.22538 6.54403 1.47121 6.54403H25.5707C25.8165 6.54403 26.0523 6.44638 26.2261 6.27255C26.3999 6.09872 26.4976 5.86296 26.4976 5.61713V3.76332C26.4976 3.51749 26.3999 3.28173 26.2261 3.1079C26.0523 2.93408 25.8165 2.83642 25.5707 2.83642Z" fill="black"/>
</g>
<defs>
<clipPath id="clip0_201_4169">
<rect width="25.9533" height="29.6609" fill="white" transform="translate(0.544312 0.982666)"/>
</clipPath>
</defs>
</svg>
