<svg width="27" height="31" viewBox="0 0 27 31" fill="none" xmlns="http://www.w3.org/2000/svg">
<g clip-path="url(#clip0_201_4167)">
<path d="M3.84282 28.0366C3.88702 28.7425 4.19861 29.4051 4.71414 29.8894C5.22967 30.3738 5.91039 30.6434 6.61773 30.6435H20.8573C21.5646 30.6434 22.2453 30.3738 22.7609 29.8894C23.2764 29.4051 23.588 28.7425 23.6322 28.0366L24.8603 8.39784H2.61467L3.84282 28.0366ZM7.90439 17.8522L13.0823 12.3916C13.1659 12.3013 13.2672 12.2293 13.38 12.18C13.4927 12.1307 13.6145 12.1053 13.7375 12.1053C13.8606 12.1053 13.9823 12.1307 14.095 12.18C14.2078 12.2293 14.3091 12.3013 14.3927 12.3916L19.5706 17.8522C20.1546 18.4675 19.7409 19.5207 18.9148 19.5207H15.5913V26.009C15.5913 26.2548 15.4937 26.4906 15.3198 26.6644C15.146 26.8382 14.9102 26.9359 14.6644 26.9359H12.8106C12.5648 26.9359 12.329 26.8382 12.1552 26.6644C11.9814 26.4906 11.8837 26.2548 11.8837 26.009V19.5207H8.56017C7.73407 19.5207 7.32044 18.4675 7.90439 17.8522ZM25.7872 2.83642H18.8355L18.2909 1.7531C18.1756 1.5215 17.9979 1.32668 17.7778 1.19056C17.5578 1.05445 17.3041 0.98243 17.0454 0.982615H10.4238C10.1657 0.981623 9.91246 1.05337 9.6932 1.18964C9.47394 1.32591 9.2975 1.52119 9.18409 1.7531L8.63954 2.83642H1.68777C1.44194 2.83642 1.20618 2.93408 1.03235 3.1079C0.85852 3.28173 0.760864 3.51749 0.760864 3.76332L0.760864 5.61713C0.760864 5.86296 0.85852 6.09872 1.03235 6.27255C1.20618 6.44638 1.44194 6.54403 1.68777 6.54403H25.7872C26.0331 6.54403 26.2688 6.44638 26.4427 6.27255C26.6165 6.09872 26.7141 5.86296 26.7141 5.61713V3.76332C26.7141 3.51749 26.6165 3.28173 26.4427 3.1079C26.2688 2.93408 26.0331 2.83642 25.7872 2.83642Z" fill="black"/>
</g>
<defs>
<clipPath id="clip0_201_4167">
<rect width="25.9533" height="29.6609" fill="white" transform="translate(0.760986 0.982666)"/>
</clipPath>
</defs>
</svg>
