<svg width="27" height="31" viewBox="0 0 27 31" fill="none" xmlns="http://www.w3.org/2000/svg">
<g clip-path="url(#clip0_201_4171)">
<path d="M2.18169 27.8628C2.18169 28.6003 2.47465 29.3076 2.99614 29.8291C3.51762 30.3505 4.22491 30.6435 4.96239 30.6435H21.6466C22.3841 30.6435 23.0914 30.3505 23.6129 29.8291C24.1344 29.3076 24.4274 28.6003 24.4274 27.8628V8.39784H2.18169V27.8628ZM17.939 13.0324C17.939 12.7865 18.0367 12.5508 18.2105 12.3769C18.3843 12.2031 18.6201 12.1054 18.8659 12.1054C19.1118 12.1054 19.3475 12.2031 19.5214 12.3769C19.6952 12.5508 19.7928 12.7865 19.7928 13.0324V26.009C19.7928 26.2548 19.6952 26.4906 19.5214 26.6644C19.3475 26.8382 19.1118 26.9359 18.8659 26.9359C18.6201 26.9359 18.3843 26.8382 18.2105 26.6644C18.0367 26.4906 17.939 26.2548 17.939 26.009V13.0324ZM12.3776 13.0324C12.3776 12.7865 12.4753 12.5508 12.6491 12.3769C12.8229 12.2031 13.0587 12.1054 13.3045 12.1054C13.5503 12.1054 13.7861 12.2031 13.9599 12.3769C14.1338 12.5508 14.2314 12.7865 14.2314 13.0324V26.009C14.2314 26.2548 14.1338 26.4906 13.9599 26.6644C13.7861 26.8382 13.5503 26.9359 13.3045 26.9359C13.0587 26.9359 12.8229 26.8382 12.6491 26.6644C12.4753 26.4906 12.3776 26.2548 12.3776 26.009V13.0324ZM6.8162 13.0324C6.8162 12.7865 6.91386 12.5508 7.08768 12.3769C7.26151 12.2031 7.49727 12.1054 7.7431 12.1054C7.98893 12.1054 8.22469 12.2031 8.39852 12.3769C8.57235 12.5508 8.67001 12.7865 8.67001 13.0324V26.009C8.67001 26.2548 8.57235 26.4906 8.39852 26.6644C8.22469 26.8382 7.98893 26.9359 7.7431 26.9359C7.49727 26.9359 7.26151 26.8382 7.08768 26.6644C6.91386 26.4906 6.8162 26.2548 6.8162 26.009V13.0324ZM25.3543 2.83642H18.4025L17.8579 1.7531C17.7426 1.5215 17.5649 1.32668 17.3448 1.19056C17.1248 1.05445 16.8711 0.98243 16.6124 0.982615H9.99084C9.73269 0.981623 9.47948 1.05337 9.26021 1.18964C9.04095 1.32591 8.86451 1.52119 8.75111 1.7531L8.20655 2.83642H1.25478C1.00895 2.83642 0.773192 2.93408 0.599364 3.1079C0.425536 3.28173 0.327881 3.51749 0.327881 3.76332L0.327881 5.61713C0.327881 5.86296 0.425536 6.09872 0.599364 6.27255C0.773192 6.44638 1.00895 6.54403 1.25478 6.54403H25.3543C25.6001 6.54403 25.8358 6.44638 26.0097 6.27255C26.1835 6.09872 26.2812 5.86296 26.2812 5.61713V3.76332C26.2812 3.51749 26.1835 3.28173 26.0097 3.1079C25.8358 2.93408 25.6001 2.83642 25.3543 2.83642Z" fill="black"/>
</g>
<defs>
<clipPath id="clip0_201_4171">
<rect width="25.9533" height="29.6609" fill="white" transform="translate(0.327637 0.982666)"/>
</clipPath>
</defs>
</svg>
