<svg width="24" height="31" viewBox="0 0 24 31" fill="none" xmlns="http://www.w3.org/2000/svg">
<g clip-path="url(#clip0_201_4163)">
<path d="M22.8178 22.9091L18.1896 17.6669H19.9641C20.486 17.6669 20.9477 17.3772 21.1679 16.9103C21.388 16.4445 21.3156 15.9104 20.9779 15.517L16.4517 10.2516H18.1253C18.6525 10.2516 19.1275 9.94171 19.3338 9.46319C19.5377 8.99221 19.4415 8.44418 19.0881 8.0682L12.7 1.26242C12.3507 0.888763 11.699 0.888763 11.3491 1.26242L4.96039 8.0682C4.60701 8.44418 4.51143 8.99221 4.71477 9.46319C4.921 9.94171 5.39662 10.2516 5.92379 10.2516H7.59743L3.07067 15.5182C2.73409 15.911 2.66168 16.4445 2.88124 16.9109C3.10138 17.3772 3.56251 17.6669 4.08505 17.6669H5.85949L1.23135 22.9091C0.883761 23.3024 0.804974 23.8412 1.02511 24.3145C1.24236 24.7808 1.72029 25.0821 2.24225 25.0821H10.1707V26.4985L8.416 29.3024C8.10781 29.9188 8.5562 30.6441 9.245 30.6441H14.8041C15.4929 30.6441 15.9413 29.9188 15.6331 29.3024L13.8784 26.4985V25.0821H21.8069C22.3288 25.0821 22.8067 24.7808 23.024 24.3145C23.2441 23.8412 23.1653 23.3024 22.8178 22.9091Z" fill="black"/>
</g>
<defs>
<clipPath id="clip0_201_4163">
<rect width="22.2457" height="29.6609" fill="white" transform="translate(0.901978 0.982666)"/>
</clipPath>
</defs>
</svg>
