<svg width="38" height="31" viewBox="0 0 38 31" fill="none" xmlns="http://www.w3.org/2000/svg">
<g clip-path="url(#clip0_201_4153)">
<path d="M36.2282 17.6669H35.3013V13.9593C35.3013 12.9356 34.4711 12.1055 33.4475 12.1055H30.6668L24.365 4.22794C24.0175 3.79379 23.5769 3.44332 23.0757 3.20246C22.5746 2.96159 22.0256 2.8365 21.4696 2.83643H14.9094C13.8858 2.83643 13.0556 3.66658 13.0556 4.69023V12.1055H3.78659C2.76294 12.1055 1.93279 12.9356 1.93279 13.9593V17.6669H1.00588C0.493768 17.6669 0.0789795 18.0817 0.0789795 18.5938V20.4476C0.0789795 20.9597 0.493768 21.3745 1.00588 21.3745H3.87986C3.83583 21.6798 3.78659 21.9839 3.78659 22.3014C3.78659 25.885 6.69127 28.7897 10.2749 28.7897C13.8585 28.7897 16.7632 25.885 16.7632 22.3014C16.7632 21.9839 16.714 21.6798 16.67 21.3745H20.5647C20.5207 21.6798 20.4714 21.9839 20.4714 22.3014C20.4714 25.885 23.3761 28.7897 26.9597 28.7897C30.5434 28.7897 33.4481 25.885 33.4481 22.3014C33.4481 21.9839 33.3988 21.6798 33.3548 21.3745H36.2282C36.7403 21.3745 37.1551 20.9597 37.1551 20.4476V18.5938C37.1551 18.0817 36.7403 17.6669 36.2282 17.6669ZM16.7632 6.54404H21.4696L25.9187 12.1055H16.7632V6.54404ZM10.2749 25.0821C8.74147 25.0821 7.4942 23.8348 7.4942 22.3014C7.4942 20.7679 8.74147 19.5207 10.2749 19.5207C11.8084 19.5207 13.0556 20.7679 13.0556 22.3014C13.0556 23.8348 11.8084 25.0821 10.2749 25.0821ZM26.9592 25.0821C25.4257 25.0821 24.1785 23.8348 24.1785 22.3014C24.1785 20.7679 25.4257 19.5207 26.9592 19.5207C28.4926 19.5207 29.7399 20.7679 29.7399 22.3014C29.7399 23.8348 28.4926 25.0821 26.9592 25.0821Z" fill="black"/>
</g>
<defs>
<clipPath id="clip0_201_4153">
<rect width="37.0761" height="29.6609" fill="white" transform="translate(0.0789795 0.982666)"/>
</clipPath>
</defs>
</svg>
