<svg width="38" height="31" viewBox="0 0 38 31" fill="none" xmlns="http://www.w3.org/2000/svg">
<g clip-path="url(#clip0_201_4151)">
<path d="M36.3221 21.3745H35.3952V15.1121C35.3952 14.3763 35.0997 13.6696 34.5783 13.1482L28.791 7.36085C28.2696 6.83947 27.5628 6.54402 26.8271 6.54402H24.2723V3.76331C24.2723 2.22813 23.0268 0.982605 21.4916 0.982605H2.95356C1.41838 0.982605 0.172852 2.22813 0.172852 3.76331V22.3014C0.172852 23.8366 1.41838 25.0821 2.95356 25.0821H3.88046C3.88046 28.1524 6.37151 30.6435 9.44188 30.6435C12.5122 30.6435 15.0033 28.1524 15.0033 25.0821H22.4185C22.4185 28.1524 24.9096 30.6435 27.9799 30.6435C31.0503 30.6435 33.5414 28.1524 33.5414 25.0821H36.3221C36.8319 25.0821 37.249 24.665 37.249 24.1552V22.3014C37.249 21.7916 36.8319 21.3745 36.3221 21.3745ZM9.44188 27.8628C7.9067 27.8628 6.66117 26.6173 6.66117 25.0821C6.66117 23.5469 7.9067 22.3014 9.44188 22.3014C10.9771 22.3014 12.2226 23.5469 12.2226 25.0821C12.2226 26.6173 10.9771 27.8628 9.44188 27.8628ZM27.9799 27.8628C26.4448 27.8628 25.1992 26.6173 25.1992 25.0821C25.1992 23.5469 26.4448 22.3014 27.9799 22.3014C29.5151 22.3014 30.7606 23.5469 30.7606 25.0821C30.7606 26.6173 29.5151 27.8628 27.9799 27.8628ZM32.6144 15.813H24.2723V9.32473H26.8271L32.6144 15.1121V15.813Z" fill="black"/>
</g>
<defs>
<clipPath id="clip0_201_4151">
<rect width="37.0761" height="29.6609" fill="white" transform="translate(0.172852 0.982666)"/>
</clipPath>
</defs>
</svg>
