<svg width="39" height="31" viewBox="0 0 39 31" fill="none" xmlns="http://www.w3.org/2000/svg">
<g clip-path="url(#clip0_201_4155)">
<path d="M36.9779 14.7297L33.5889 11.3408C32.8937 10.6456 31.9495 10.2574 30.9646 10.2574H28.7922V4.69023C28.7922 3.66485 27.9638 2.83643 26.9384 2.83643H2.83891C1.81353 2.83643 0.985107 3.66485 0.985107 4.69023V24.1552C0.985107 26.7158 3.05905 28.7897 5.61962 28.7897C7.14322 28.7897 8.48143 28.0424 9.32723 26.9127C10.173 28.0482 11.5112 28.7897 13.0348 28.7897C15.5954 28.7897 17.6694 26.7158 17.6694 24.1552C17.6694 23.8366 17.6346 23.5295 17.5767 23.2283H27.0311C26.9674 23.5295 26.9384 23.8366 26.9384 24.1552C26.9384 26.7158 29.0123 28.7897 31.5729 28.7897C34.1335 28.7897 36.2074 26.7158 36.2074 24.1552C36.2074 23.8366 36.1727 23.5295 36.1147 23.2283H37.1343C37.6441 23.2283 38.0612 22.8112 38.0612 22.3014V17.3482C38.0612 16.3634 37.6731 15.4249 36.9779 14.7297ZM5.61962 26.009C4.60003 26.009 3.76582 25.1748 3.76582 24.1552C3.76582 23.1356 4.60003 22.3014 5.61962 22.3014C6.63921 22.3014 7.47343 23.1356 7.47343 24.1552C7.47343 25.1748 6.63921 26.009 5.61962 26.009ZM13.0348 26.009C12.0153 26.009 11.181 25.1748 11.181 24.1552C11.181 23.1356 12.0153 22.3014 13.0348 22.3014C14.0544 22.3014 14.8886 23.1356 14.8886 24.1552C14.8886 25.1748 14.0544 26.009 13.0348 26.009ZM28.7922 13.0324H30.9646C31.2137 13.0324 31.4454 13.1308 31.6192 13.3046L34.1277 15.8131H28.7922V13.0324ZM31.5729 26.009C30.5533 26.009 29.7191 25.1748 29.7191 24.1552C29.7191 23.1356 30.5533 22.3014 31.5729 22.3014C32.5925 22.3014 33.4267 23.1356 33.4267 24.1552C33.4267 25.1748 32.5925 26.009 31.5729 26.009Z" fill="black"/>
</g>
<defs>
<clipPath id="clip0_201_4155">
<rect width="37.0761" height="29.6609" fill="white" transform="translate(0.985107 0.982666)"/>
</clipPath>
</defs>
</svg>
