<svg width="38" height="31" viewBox="0 0 38 31" fill="none" xmlns="http://www.w3.org/2000/svg">
<g clip-path="url(#clip0_201_4157)">
<path d="M37.0404 13.9593H36.1135V10.2517C36.1135 9.22805 35.2834 8.39789 34.2597 8.39789H29.996L25.1772 2.37418C24.8298 1.94003 24.3892 1.58956 23.888 1.3487C23.3868 1.10783 22.8379 0.982736 22.2818 0.982666L15.7217 0.982666C14.698 0.982666 13.8679 1.81282 13.8679 2.83647V8.39789H3.67194C3.15983 8.39789 2.74504 8.81268 2.74504 9.32479V13.9593H1.81814C1.30602 13.9593 0.891235 14.3741 0.891235 14.8862V16.74C0.891235 17.2521 1.30602 17.6669 1.81814 17.6669H2.78675C4.47893 15.4279 7.1374 13.9593 10.1603 13.9593C13.1831 13.9593 15.8416 15.4279 17.5338 17.6669H21.3254C23.0176 15.4279 25.676 13.9593 28.6989 13.9593C31.7218 13.9593 34.3802 15.4279 36.0724 17.6669H37.0404C37.5526 17.6669 37.9673 17.2521 37.9673 16.74V14.8862C37.9673 14.3741 37.5526 13.9593 37.0404 13.9593ZM17.5755 8.39789V4.69028H22.2818L25.2479 8.39789H17.5755ZM35.1866 21.3745H34.8854C34.7579 20.9499 34.5917 20.5473 34.3843 20.1643L34.5969 19.9517C34.959 19.5897 34.959 19.0028 34.5969 18.6407L33.2859 17.3298C32.9238 16.9677 32.337 16.9677 31.9749 17.3298L31.7623 17.5424C31.3771 17.3345 30.9715 17.1666 30.5521 17.0413V16.74C30.5521 16.2279 30.1373 15.8131 29.6252 15.8131H27.7714C27.2593 15.8131 26.8445 16.2279 26.8445 16.74V17.0413C26.4199 17.1687 26.0173 17.335 25.6343 17.5424L25.4217 17.3298C25.0596 16.9677 24.4728 16.9677 24.1107 17.3298L22.7997 18.6407C22.4377 19.0028 22.4377 19.5897 22.7997 19.9517L23.0124 20.1643C22.8045 20.5496 22.6366 20.9551 22.5112 21.3745H22.21C21.6979 21.3745 21.2831 21.7893 21.2831 22.3014V24.1552C21.2831 24.6673 21.6979 25.0821 22.21 25.0821H22.5112C22.6387 25.5068 22.805 25.9094 23.0124 26.2923L22.7997 26.5049C22.4377 26.867 22.4377 27.4538 22.7997 27.8159L24.1107 29.1269C24.4728 29.489 25.0596 29.489 25.4217 29.1269L25.6343 28.9143C26.0173 29.1211 26.4205 29.288 26.8451 29.4154V29.7167C26.8451 30.2288 27.2599 30.6436 27.772 30.6436H29.6258C30.1379 30.6436 30.5527 30.2288 30.5527 29.7167V29.4154C30.9773 29.288 31.38 29.1217 31.7635 28.9143L31.9761 29.1269C32.3382 29.489 32.925 29.489 33.2871 29.1269L34.5981 27.8159C34.9601 27.4538 34.9601 26.867 34.5981 26.5049L34.3854 26.2923C34.5933 25.9071 34.7612 25.5016 34.8866 25.0821H35.1878C35.6999 25.0821 36.1147 24.6673 36.1147 24.1552V22.3014C36.1135 21.7893 35.6988 21.3745 35.1866 21.3745ZM28.6983 26.009C27.1626 26.009 25.9176 24.7641 25.9176 23.2283C25.9176 21.6926 27.1626 20.4476 28.6983 20.4476C30.2341 20.4476 31.479 21.6926 31.479 23.2283C31.479 24.7641 30.2341 26.009 28.6983 26.009ZM16.6486 21.3745H16.3473C16.2199 20.9499 16.0536 20.5473 15.8462 20.1643L16.0588 19.9517C16.4209 19.5897 16.4209 19.0028 16.0588 18.6407L14.7479 17.3298C14.3858 16.9677 13.7989 16.9677 13.4369 17.3298L13.2243 17.5424C12.839 17.3345 12.4335 17.1666 12.0141 17.0413V16.74C12.0141 16.2279 11.5993 15.8131 11.0872 15.8131H9.23336C8.72125 15.8131 8.30646 16.2279 8.30646 16.74V17.0413C7.88182 17.1687 7.4792 17.335 7.09627 17.5424L6.88366 17.3298C6.52159 16.9677 5.93474 16.9677 5.57267 17.3298L4.26169 18.6402C3.89961 19.0022 3.89961 19.5891 4.26169 19.9512L4.47429 20.1638C4.26645 20.549 4.09854 20.9545 3.97319 21.3739H3.67194C3.15983 21.3739 2.74504 21.7887 2.74504 22.3008V24.1547C2.74504 24.6668 3.15983 25.0816 3.67194 25.0816H3.97319C4.10064 25.5062 4.2669 25.9088 4.47429 26.2917L4.26169 26.5044C3.89961 26.8664 3.89961 27.4533 4.26169 27.8153L5.57267 29.1263C5.93474 29.4884 6.52159 29.4884 6.88366 29.1263L7.09627 28.9137C7.4792 29.1205 7.8824 29.2874 8.30704 29.4148V29.7161C8.30704 30.2282 8.72183 30.643 9.23394 30.643H11.0877C11.5999 30.643 12.0146 30.2282 12.0146 29.7161V29.4148C12.4393 29.2874 12.8419 29.1211 13.2254 28.9137L13.438 29.1263C13.8001 29.4884 14.3869 29.4884 14.749 29.1263L16.06 27.8153C16.4221 27.4533 16.4221 26.8664 16.06 26.5044L15.8474 26.2917C16.0552 25.9065 16.2231 25.501 16.3485 25.0816H16.6497C17.1619 25.0816 17.5766 24.6668 17.5766 24.1547V22.3008C17.5755 21.7893 17.1607 21.3745 16.6486 21.3745ZM10.1603 26.009C8.6245 26.009 7.37955 24.7641 7.37955 23.2283C7.37955 21.6926 8.6245 20.4476 10.1603 20.4476C11.696 20.4476 12.941 21.6926 12.941 23.2283C12.941 24.7641 11.696 26.009 10.1603 26.009Z" fill="black"/>
</g>
<defs>
<clipPath id="clip0_201_4157">
<rect width="37.0761" height="29.6609" fill="white" transform="translate(0.891235 0.982666)"/>
</clipPath>
</defs>
</svg>
