<svg width="38" height="31" viewBox="0 0 38 31" fill="none" xmlns="http://www.w3.org/2000/svg">
<g clip-path="url(#clip0_201_4159)">
<path d="M3.70555 22.7417C3.83879 23.2341 4.34859 23.5296 4.84101 23.3963L17.3774 20.0363C17.8698 19.9031 18.1652 19.3933 18.032 18.9009L15.1528 8.15458C15.0196 7.66216 14.5098 7.36671 14.0173 7.49995L9.54504 8.70492L10.9817 14.0752L7.40158 15.031L5.96488 9.66079L1.48678 10.86C0.994362 10.9932 0.698912 11.503 0.832154 11.9954L3.70555 22.7417ZM23.0431 0.982666C22.0177 0.982666 21.1893 1.81109 21.1893 2.83647V21.5831L1.13919 27.0518C0.890085 27.1213 0.745257 27.3762 0.814774 27.6195L1.54471 30.3018C1.61423 30.5509 1.86913 30.6957 2.11244 30.6262L24.92 24.4043C25.0591 27.8686 27.8861 30.6436 31.3852 30.6436C34.9711 30.6436 37.8735 27.7412 37.8735 24.1552V0.982666H23.0431ZM31.3852 26.9359C29.85 26.9359 28.6045 25.6904 28.6045 24.1552C28.6045 22.6201 29.85 21.3745 31.3852 21.3745C32.9204 21.3745 34.1659 22.6201 34.1659 24.1552C34.1659 25.6904 32.9204 26.9359 31.3852 26.9359Z" fill="black"/>
</g>
<defs>
<clipPath id="clip0_201_4159">
<rect width="37.0761" height="29.6609" fill="white" transform="translate(0.797363 0.982666)"/>
</clipPath>
</defs>
</svg>
