<svg width="38" height="31" viewBox="0 0 38 31" fill="none" xmlns="http://www.w3.org/2000/svg">
<g clip-path="url(#clip0_201_4149)">
<path d="M36.8336 6.57299L25.5544 0.982605C24.3899 2.5931 21.812 3.71697 18.8053 3.71697C15.7987 3.71697 13.2208 2.5931 12.0563 0.982605L0.77708 6.57299C0.319422 6.80471 0.134041 7.36085 0.359974 7.81851L3.67365 14.4517C3.90538 14.9093 4.46152 15.0947 4.91918 14.8688L8.1981 13.2641C8.81217 12.9628 9.53052 13.4089 9.53052 14.0983V28.7897C9.53052 29.8151 10.3589 30.6435 11.3843 30.6435H26.2148C27.2402 30.6435 28.0686 29.8151 28.0686 28.7897V14.0925C28.0686 13.4089 28.7869 12.957 29.401 13.2583L32.6799 14.863C33.1376 15.0947 33.6937 14.9093 33.9254 14.4459L37.2449 7.81851C37.4766 7.36085 37.2913 6.79892 36.8336 6.57299Z" fill="black"/>
</g>
<defs>
<clipPath id="clip0_201_4149">
<rect width="37.0761" height="29.6609" fill="white" transform="translate(0.266724 0.982666)"/>
</clipPath>
</defs>
</svg>
