<svg width="31" height="31" viewBox="0 0 31 31" fill="none" xmlns="http://www.w3.org/2000/svg">
<g clip-path="url(#clip0_201_4147)">
<path d="M1.08671 6.99715C9.11207 -1.02821 22.1121 -1.01627 30.1255 6.99715C30.4776 7.34925 30.5353 7.89485 30.2752 8.31109L27.7717 12.3164C27.6397 12.5276 27.4377 12.6857 27.201 12.763C26.9642 12.8404 26.7078 12.8321 26.4766 12.7395L21.4701 10.7369C21.2562 10.6514 21.0759 10.4986 20.9565 10.3017C20.837 10.1048 20.7848 9.87433 20.8077 9.64514L21.1525 6.19642C17.5523 4.89563 13.5845 4.92274 10.0596 6.19642L10.4045 9.64519C10.4274 9.87439 10.3752 10.1048 10.2557 10.3018C10.1362 10.4987 9.95595 10.6514 9.74207 10.737L4.73546 12.7395C4.50423 12.832 4.24784 12.8403 4.01111 12.763C3.77437 12.6856 3.57235 12.5275 3.44035 12.3164L0.937073 8.31103C0.809785 8.10737 0.755281 7.86658 0.782458 7.62796C0.809634 7.38934 0.916886 7.16697 1.08671 6.99715ZM6.33704 18.8255V16.5082C6.33704 16.1243 6.02577 15.813 5.64186 15.813H3.3246C2.94069 15.813 2.62942 16.1243 2.62942 16.5082V18.8255C2.62942 19.2094 2.94069 19.5206 3.3246 19.5206H5.64186C6.02577 19.5206 6.33704 19.2094 6.33704 18.8255ZM11.8985 18.8255V16.5082C11.8985 16.1243 11.5872 15.813 11.2033 15.813H8.88602C8.50211 15.813 8.19084 16.1243 8.19084 16.5082V18.8255C8.19084 19.2094 8.50211 19.5206 8.88602 19.5206H11.2033C11.5872 19.5206 11.8985 19.2094 11.8985 18.8255ZM17.4599 18.8255V16.5082C17.4599 16.1243 17.1486 15.813 16.7647 15.813H14.4474C14.0635 15.813 13.7523 16.1243 13.7523 16.5082V18.8255C13.7523 19.2094 14.0635 19.5206 14.4474 19.5206H16.7647C17.1486 19.5206 17.4599 19.2094 17.4599 18.8255ZM23.0213 18.8255V16.5082C23.0213 16.1243 22.71 15.813 22.3261 15.813H20.0089C19.6249 15.813 19.3137 16.1243 19.3137 16.5082V18.8255C19.3137 19.2094 19.6249 19.5206 20.0089 19.5206H22.3261C22.71 19.5206 23.0213 19.2094 23.0213 18.8255ZM28.5827 18.8255V16.5082C28.5827 16.1243 28.2714 15.813 27.8875 15.813H25.5703C25.1864 15.813 24.8751 16.1243 24.8751 16.5082V18.8255C24.8751 19.2094 25.1864 19.5206 25.5703 19.5206H27.8875C28.2714 19.5206 28.5827 19.2094 28.5827 18.8255ZM9.11774 24.3869V22.0696C9.11774 21.6857 8.80648 21.3745 8.42257 21.3745H6.10531C5.7214 21.3745 5.41013 21.6857 5.41013 22.0696V24.3869C5.41013 24.7708 5.7214 25.0821 6.10531 25.0821H8.42257C8.80648 25.0821 9.11774 24.7708 9.11774 24.3869ZM14.6792 24.3869V22.0696C14.6792 21.6857 14.3679 21.3745 13.984 21.3745H11.6667C11.2828 21.3745 10.9715 21.6857 10.9715 22.0696V24.3869C10.9715 24.7708 11.2828 25.0821 11.6667 25.0821H13.984C14.3679 25.0821 14.6792 24.7708 14.6792 24.3869ZM20.2406 24.3869V22.0696C20.2406 21.6857 19.9293 21.3745 19.5454 21.3745H17.2281C16.8442 21.3745 16.533 21.6857 16.533 22.0696V24.3869C16.533 24.7708 16.8442 25.0821 17.2281 25.0821H19.5454C19.9293 25.0821 20.2406 24.7708 20.2406 24.3869ZM25.802 24.3869V22.0696C25.802 21.6857 25.4907 21.3745 25.1068 21.3745H22.7896C22.4056 21.3745 22.0944 21.6857 22.0944 22.0696V24.3869C22.0944 24.7708 22.4056 25.0821 22.7896 25.0821H25.1068C25.4907 25.0821 25.802 24.7708 25.802 24.3869ZM6.33704 29.9483V27.631C6.33704 27.2471 6.02577 26.9359 5.64186 26.9359H3.3246C2.94069 26.9359 2.62942 27.2471 2.62942 27.631V29.9483C2.62942 30.3322 2.94069 30.6435 3.3246 30.6435H5.64186C6.02577 30.6435 6.33704 30.3322 6.33704 29.9483ZM23.0213 29.9483V27.631C23.0213 27.2471 22.71 26.9359 22.3261 26.9359H8.88602C8.50211 26.9359 8.19084 27.2471 8.19084 27.631V29.9483C8.19084 30.3322 8.50211 30.6435 8.88602 30.6435H22.3261C22.71 30.6435 23.0213 30.3322 23.0213 29.9483ZM28.5827 29.9483V27.631C28.5827 27.2471 28.2714 26.9359 27.8875 26.9359H25.5703C25.1864 26.9359 24.8751 27.2471 24.8751 27.631V29.9483C24.8751 30.3322 25.1864 30.6435 25.5703 30.6435H27.8875C28.2714 30.6435 28.5827 30.3322 28.5827 29.9483Z" fill="black"/>
</g>
<defs>
<clipPath id="clip0_201_4147">
<rect width="29.6609" height="29.6609" fill="white" transform="translate(0.775879 0.982666)"/>
</clipPath>
</defs>
</svg>
