<svg width="38" height="31" viewBox="0 0 38 31" fill="none" xmlns="http://www.w3.org/2000/svg">
<g clip-path="url(#clip0_201_4145)">
<path d="M35.165 0.982605H3.65034C2.91285 0.982605 2.20556 1.27557 1.68408 1.79706C1.1626 2.31854 0.869629 3.02582 0.869629 3.76331L0.869629 22.3014C0.869629 23.0389 1.1626 23.7461 1.68408 24.2676C2.20556 24.7891 2.91285 25.0821 3.65034 25.0821H17.5539V26.9359H7.35795C7.11212 26.9359 6.87636 27.0335 6.70253 27.2074C6.5287 27.3812 6.43105 27.617 6.43105 27.8628V29.7166C6.43105 29.9624 6.5287 30.1982 6.70253 30.372C6.87636 30.5458 7.11212 30.6435 7.35795 30.6435H31.4574C31.7033 30.6435 31.939 30.5458 32.1128 30.372C32.2867 30.1982 32.3843 29.9624 32.3843 29.7166V27.8628C32.3843 27.617 32.2867 27.3812 32.1128 27.2074C31.939 27.0335 31.7033 26.9359 31.4574 26.9359H21.2615V25.0821H35.165C35.9025 25.0821 36.6098 24.7891 37.1313 24.2676C37.6528 23.7461 37.9457 23.0389 37.9457 22.3014V3.76331C37.9457 3.02582 37.6528 2.31854 37.1313 1.79706C36.6098 1.27557 35.9025 0.982605 35.165 0.982605ZM34.2381 21.3745H4.57724V4.69022H34.2381V21.3745Z" fill="black"/>
</g>
<defs>
<clipPath id="clip0_201_4145">
<rect width="37.0761" height="29.6609" fill="white" transform="translate(0.869629 0.982666)"/>
</clipPath>
</defs>
</svg>
