<svg width="39" height="31" viewBox="0 0 39 31" fill="none" xmlns="http://www.w3.org/2000/svg">
<g clip-path="url(#clip0_201_4143)">
<path d="M7.64775 8.91326L13.5631 11.0671C15.6017 6.34342 18.5574 2.70822 21.6156 1.00446C16.0611 0.721176 10.6793 3.14561 7.2179 7.48119C6.83034 7.96782 7.0638 8.70065 7.64775 8.91326ZM15.3092 11.7032L29.1247 16.7334C31.1963 9.70171 30.208 3.31303 26.6551 2.02C26.2264 1.86358 25.7785 1.78827 25.3174 1.78827C21.9562 1.78885 17.8866 5.79539 15.3092 11.7032ZM31.1737 4.4873C31.534 5.43158 31.8011 6.49173 31.9384 7.68453C32.2709 10.5747 31.8561 13.9545 30.8406 17.3579L36.7855 19.5222C37.37 19.7348 38.02 19.3235 38.0351 18.7014C38.1695 13.1579 35.6072 7.84269 31.1737 4.4873ZM33.4052 26.9346H19.5631L23.3252 16.595L19.8412 15.3263L15.618 26.934H1.89053C1.37841 26.934 0.963623 27.3488 0.963623 27.8615V29.7159C0.963623 30.228 1.37841 30.6433 1.89053 30.6433H33.4052C33.9173 30.6433 34.3321 30.228 34.3321 29.7159V27.8615C34.3321 27.3494 33.9173 26.9346 33.4052 26.9346Z" fill="black"/>
</g>
<defs>
<clipPath id="clip0_201_4143">
<rect width="37.0761" height="29.6609" fill="white" transform="translate(0.963623 0.982666)"/>
</clipPath>
</defs>
</svg>
