<svg width="35" height="31" viewBox="0 0 35 31" fill="none" xmlns="http://www.w3.org/2000/svg">
<g clip-path="url(#clip0_201_4141)">
<path d="M34.1168 17.2497C32.46 9.35369 26.0991 4.60911 19.3037 3.87338V2.83641C19.3037 1.81102 18.4753 0.982605 17.4499 0.982605C16.4245 0.982605 15.5961 1.81102 15.5961 2.83641V3.87338C8.77759 4.60911 2.47465 9.35369 0.783053 17.2497C0.655604 17.8349 1.27547 18.4837 1.86637 17.9102C4.87881 14.7239 8.10559 14.8746 11.0543 20.0536C11.3613 20.604 11.9175 20.5518 12.1955 20.0536C13.3658 18.0029 14.7967 15.813 17.4499 15.813C20.8389 15.813 22.5595 19.7987 22.7043 20.0536C22.9824 20.5518 23.5385 20.604 23.8456 20.0536C26.8001 14.8688 30.05 14.7587 33.0335 17.9102C33.6302 18.4895 34.2442 17.8349 34.1168 17.2497ZM15.5961 18.4605V26.009C15.5961 26.5188 15.179 26.9359 14.6692 26.9359C14.2174 26.9359 13.9045 26.6288 13.7945 26.316C13.4527 25.3486 12.3983 24.8446 11.4309 25.1864C10.4634 25.5281 9.95939 26.5883 10.3012 27.55C10.95 29.398 12.7111 30.6377 14.6692 30.6377C17.224 30.6377 19.3037 28.558 19.3037 26.0032V18.4547C18.7766 17.9971 18.1567 17.6669 17.4499 17.6669C16.7374 17.6726 16.1523 17.9449 15.5961 18.4605Z" fill="black"/>
</g>
<defs>
<clipPath id="clip0_201_4141">
<rect width="33.3685" height="29.6609" fill="white" transform="translate(0.765137 0.982666)"/>
</clipPath>
</defs>
</svg>
