<svg width="27" height="31" viewBox="0 0 27 31" fill="none" xmlns="http://www.w3.org/2000/svg">
<g clip-path="url(#clip0_201_4139)">
<path d="M2.83562 4.69028H4.68942V13.9593C4.68942 19.07 8.84774 23.2283 13.9585 23.2283C19.0692 23.2283 23.2275 19.07 23.2275 13.9593V4.69028H25.0813C25.3271 4.69028 25.5629 4.59262 25.7367 4.41879C25.9105 4.24497 26.0082 4.0092 26.0082 3.76337V1.90957C26.0082 1.66374 25.9105 1.42798 25.7367 1.25415C25.5629 1.08032 25.3271 0.982666 25.0813 0.982666H16.7392C16.4933 0.982666 16.2576 1.08032 16.0837 1.25415C15.9099 1.42798 15.8123 1.66374 15.8123 1.90957V3.76337C15.8123 4.0092 15.9099 4.24497 16.0837 4.41879C16.2576 4.59262 16.4933 4.69028 16.7392 4.69028H18.593V13.9593C18.593 15.1885 18.1047 16.3673 17.2355 17.2364C16.3664 18.1055 15.1876 18.5938 13.9585 18.5938C12.7293 18.5938 11.5505 18.1055 10.6814 17.2364C9.81221 16.3673 9.32394 15.1885 9.32394 13.9593V4.69028H11.1777C11.4236 4.69028 11.6593 4.59262 11.8332 4.41879C12.007 4.24497 12.1046 4.0092 12.1046 3.76337V1.90957C12.1046 1.66374 12.007 1.42798 11.8332 1.25415C11.6593 1.08032 11.4236 0.982666 11.1777 0.982666H2.83562C2.58979 0.982666 2.35403 1.08032 2.1802 1.25415C2.00637 1.42798 1.90871 1.66374 1.90871 1.90957V3.76337C1.90871 4.0092 2.00637 4.24497 2.1802 4.41879C2.35403 4.59262 2.58979 4.69028 2.83562 4.69028ZM26.0082 26.9359H1.90871C1.66288 26.9359 1.42712 27.0336 1.2533 27.2074C1.07947 27.3813 0.981812 27.617 0.981812 27.8628L0.981812 29.7167C0.981812 29.9625 1.07947 30.1982 1.2533 30.3721C1.42712 30.5459 1.66288 30.6436 1.90871 30.6436H26.0082C26.254 30.6436 26.4898 30.5459 26.6636 30.3721C26.8374 30.1982 26.9351 29.9625 26.9351 29.7167V27.8628C26.9351 27.617 26.8374 27.3813 26.6636 27.2074C26.4898 27.0336 26.254 26.9359 26.0082 26.9359Z" fill="black"/>
</g>
<defs>
<clipPath id="clip0_201_4139">
<rect width="25.9533" height="29.6609" fill="white" transform="translate(0.981812 0.982666)"/>
</clipPath>
</defs>
</svg>
