<svg width="31" height="31" viewBox="0 0 31 31" fill="none" xmlns="http://www.w3.org/2000/svg">
<g clip-path="url(#clip0_201_4137)">
<path d="M15.2956 1.44607C11.4565 1.45296 7.97086 2.96578 5.39743 5.42509L3.32846 3.35613C2.45254 2.4802 0.954956 3.10053 0.954956 4.33922V12.1054C0.954956 12.8733 1.57743 13.4958 2.34531 13.4958H10.1115C11.3502 13.4958 11.9706 11.9982 11.0947 11.1223L8.67606 8.70366C10.4641 7.0295 12.7777 6.10213 15.2356 6.08093C20.5884 6.0347 25.1004 10.3665 25.0541 15.8969C25.0102 21.1433 20.7568 25.5455 15.3219 25.5455C12.9394 25.5455 10.6876 24.6952 8.913 23.1381C8.63823 22.8971 8.22326 22.9117 7.96477 23.1702L5.6671 25.4679C5.38486 25.7501 5.39882 26.2102 5.69502 26.4778C8.24261 28.7789 11.6186 30.1801 15.3219 30.1801C23.2566 30.1801 29.6889 23.7478 29.6889 15.8132C29.689 7.88764 23.2211 1.43188 15.2956 1.44607Z" fill="black"/>
</g>
<defs>
<clipPath id="clip0_201_4137">
<rect width="29.6609" height="29.6609" fill="white" transform="translate(0.490845 0.982666)"/>
</clipPath>
</defs>
</svg>
