<svg width="30" height="31" viewBox="0 0 30 31" fill="none" xmlns="http://www.w3.org/2000/svg">
<g clip-path="url(#clip0_201_4135)">
<path d="M12.3006 13.9785H0.695055C0.311143 13.9785 -0.00012207 13.6673 -0.00012207 13.2834V1.67778C-0.00012207 1.29387 0.311143 0.982605 0.695055 0.982605H3.47576C3.85968 0.982605 4.17094 1.29387 4.17094 1.67778V6.20292C6.82264 3.25809 10.6743 1.41535 14.9563 1.44646C22.8875 1.50405 29.2334 7.91294 29.2166 15.8443C29.1997 23.7646 22.7739 30.18 14.8496 30.18C11.1368 30.18 7.75325 28.7716 5.20345 26.46C4.90806 26.1922 4.89445 25.7327 5.1764 25.4508L7.14416 23.4831C7.40334 23.2239 7.81975 23.2098 8.09429 23.4526C9.89225 25.0436 12.257 26.009 14.8496 26.009C20.4845 26.009 25.0455 21.4489 25.0455 15.8131C25.0455 10.1782 20.4854 5.61712 14.8496 5.61712C11.4609 5.61712 8.46094 7.26677 6.60748 9.80747H12.3006C12.6845 9.80747 12.9958 10.1187 12.9958 10.5026V13.2834C12.9958 13.6673 12.6845 13.9785 12.3006 13.9785Z" fill="black"/>
</g>
<defs>
<clipPath id="clip0_201_4135">
<rect width="29.6609" height="29.6609" fill="white" transform="translate(0 0.982666)"/>
</clipPath>
</defs>
</svg>
