<svg width="31" height="30" viewBox="0 0 31 30" fill="none" xmlns="http://www.w3.org/2000/svg">
<g clip-path="url(#clip0_201_4133)">
<path d="M15.3742 3.10241C22.0336 3.10241 27.4239 8.49172 27.4239 15.1522C27.4239 21.8115 22.0346 27.2019 15.3742 27.2019C8.7148 27.2019 3.32446 21.8126 3.32446 15.1522C3.32446 8.49276 8.71376 3.10241 15.3742 3.10241ZM15.3742 0.785156C7.4395 0.785156 1.0072 7.21746 1.0072 15.1522C1.0072 23.0868 7.4395 29.5191 15.3742 29.5191C23.3089 29.5191 29.7412 23.0868 29.7412 15.1522C29.7412 7.21746 23.3089 0.785156 15.3742 0.785156ZM15.3742 4.02932C9.2312 4.02932 4.25136 9.00916 4.25136 15.1522C4.25136 21.2951 9.2312 26.275 15.3742 26.275C21.5172 26.275 26.497 21.2951 26.497 15.1522C26.497 9.00916 21.5172 4.02932 15.3742 4.02932ZM15.3742 6.5783C16.526 6.5783 17.4597 7.51204 17.4597 8.66383C17.4597 9.81562 16.526 10.7494 15.3742 10.7494C14.2224 10.7494 13.2887 9.81562 13.2887 8.66383C13.2887 7.51204 14.2224 6.5783 15.3742 6.5783ZM22.1951 12.2569C20.5318 12.6496 18.9793 12.9954 17.4366 13.1726C17.4859 19.025 18.1495 20.3012 18.887 22.188C19.0966 22.7244 18.8316 23.3291 18.2952 23.5387C17.7587 23.7482 17.154 23.4832 16.9444 22.9468C16.4401 21.6544 15.9546 20.5927 15.6548 18.3963H15.0937C14.7944 20.5891 14.3096 21.6525 13.804 22.9468C13.5946 23.4829 12.9901 23.7483 12.4534 23.5387C11.9169 23.3291 11.6519 22.7244 11.8615 22.188C12.5979 20.3028 13.2625 19.0283 13.3119 13.1726C11.7692 12.9955 10.2167 12.6497 8.55335 12.2569C8.05514 12.1393 7.7466 11.6401 7.86426 11.1418C7.98191 10.6435 8.48105 10.335 8.97938 10.4527C14.5805 11.7752 16.1793 11.7725 21.7692 10.4527C22.2673 10.3351 22.7667 10.6435 22.8843 11.1418C23.0019 11.6401 22.6933 12.1393 22.1951 12.2569Z" fill="black"/>
</g>
<defs>
<clipPath id="clip0_201_4133">
<rect width="29.6609" height="29.6609" fill="white" transform="translate(0.544312 0.321777)"/>
</clipPath>
</defs>
</svg>
