<svg width="30" height="30" viewBox="0 0 30 30" fill="none" xmlns="http://www.w3.org/2000/svg">
<g clip-path="url(#clip0_201_4131)">
<path d="M28.7873 7.73697V8.66387C28.7873 8.78679 28.7385 8.90467 28.6516 8.99158C28.5647 9.0785 28.4468 9.12732 28.3239 9.12732H26.9335V9.8225C26.9335 10.2064 26.6222 10.5177 26.2383 10.5177H3.52921C3.1453 10.5177 2.83403 10.2064 2.83403 9.8225V9.12732H1.44368C1.32076 9.12732 1.20288 9.0785 1.11597 8.99158C1.02905 8.90467 0.980225 8.78679 0.980225 8.66387V7.73697C0.980225 7.64528 1.00742 7.55565 1.05837 7.47943C1.10933 7.4032 1.18174 7.3438 1.26646 7.30874L14.7066 2.21078C14.82 2.16379 14.9475 2.16379 15.061 2.21078L28.5011 7.30874C28.5858 7.3438 28.6582 7.4032 28.7092 7.47943C28.7601 7.55565 28.7873 7.64528 28.7873 7.73697ZM27.397 25.3481H2.37058C1.6027 25.3481 0.980225 25.9706 0.980225 26.7385V27.6654C0.980225 27.7883 1.02905 27.9062 1.11597 27.9931C1.20288 28.08 1.32076 28.1288 1.44368 28.1288H28.3239C28.4468 28.1288 28.5647 28.08 28.6516 27.9931C28.7385 27.9062 28.7873 27.7883 28.7873 27.6654V26.7385C28.7873 25.9706 28.1648 25.3481 27.397 25.3481ZM5.61474 11.4446V22.5674H3.52921C3.1453 22.5674 2.83403 22.8787 2.83403 23.2626V24.4212H26.9335V23.2626C26.9335 22.8787 26.6222 22.5674 26.2383 22.5674H24.1528V11.4446H20.4452V22.5674H16.7376V11.4446H13.03V22.5674H9.32235V11.4446H5.61474Z" fill="black"/>
</g>
<defs>
<clipPath id="clip0_201_4131">
<rect width="29.6609" height="29.6609" fill="white" transform="translate(0.0534668 0.321777)"/>
</clipPath>
</defs>
</svg>
