<svg width="31" height="30" viewBox="0 0 31 30" fill="none" xmlns="http://www.w3.org/2000/svg">
<g clip-path="url(#clip0_201_4129)">
<path d="M18.1787 23.8365C18.4502 24.108 18.4502 24.5482 18.1787 24.8197L15.5907 27.4077C12.1575 30.8408 6.5712 30.8411 3.13772 27.4077C-0.295524 23.9744 -0.295524 18.388 3.13772 14.9548L5.72581 12.3667C5.99728 12.0952 6.43744 12.0952 6.70896 12.3667L9.00293 14.6607C9.2744 14.9321 9.2744 15.3723 9.00293 15.6438L6.41485 18.2318C4.7886 19.8582 4.7886 22.5043 6.41485 24.1306C8.0411 25.7568 10.6873 25.7569 12.3137 24.1306L14.9017 21.5426C15.1732 21.2711 15.6133 21.2711 15.8848 21.5426L18.1787 23.8365ZM14.9017 8.76185C15.1732 9.03331 15.6133 9.03331 15.8848 8.76185L18.4729 6.17382C20.0991 4.54739 22.7453 4.54751 24.3717 6.17382C25.9979 7.80013 25.9979 10.4463 24.3717 12.0726L21.7836 14.6606C21.5121 14.9321 21.5121 15.3722 21.7836 15.6438L24.0776 17.9377C24.349 18.2092 24.7892 18.2092 25.0607 17.9377L27.6488 15.3496C31.0821 11.9163 31.0821 6.33 27.6488 2.8967C24.2154 -0.536552 18.6292 -0.536552 15.1958 2.8967L12.6078 5.48472C12.3363 5.75619 12.3363 6.19635 12.6078 6.46788L14.9017 8.76185ZM28.5056 29.5755L29.8164 28.2646C30.3594 27.7216 30.3594 26.8413 29.8164 26.2984L4.24711 0.72896C3.70412 0.185968 2.82379 0.185968 2.28086 0.72896L0.969988 2.03983C0.426996 2.58282 0.426996 3.46315 0.969988 4.00608L26.5394 29.5755C27.0823 30.1184 27.9627 30.1184 28.5056 29.5755Z" fill="black"/>
</g>
<defs>
<clipPath id="clip0_201_4129">
<rect width="29.6609" height="29.6609" fill="white" transform="translate(0.562622 0.321777)"/>
</clipPath>
</defs>
</svg>
