<svg width="26" height="30" viewBox="0 0 26 30" fill="none" xmlns="http://www.w3.org/2000/svg">
<g clip-path="url(#clip0_201_4125)">
<path d="M23.1685 15.1522H8.80149V9.17949C8.80149 6.8854 10.6379 4.97946 12.932 4.95629C15.2493 4.93311 17.1436 6.81589 17.1436 9.12735V10.0543C17.1436 10.8247 17.7635 11.4446 18.534 11.4446H20.3878C21.1583 11.4446 21.7781 10.8247 21.7781 10.0543V9.12735C21.7781 4.26111 17.8098 0.304394 12.9436 0.321773C8.07734 0.339153 4.16697 4.34801 4.16697 9.21425V15.1522H2.77662C1.24144 15.1522 -0.00408936 16.3977 -0.00408936 17.9329V27.202C-0.00408936 28.7371 1.24144 29.9827 2.77662 29.9827H23.1685C24.7037 29.9827 25.9492 28.7371 25.9492 27.202V17.9329C25.9492 16.3977 24.7037 15.1522 23.1685 15.1522Z" fill="black"/>
</g>
<defs>
<clipPath id="clip0_201_4125">
<rect width="25.9533" height="29.6609" fill="white" transform="translate(-0.00402832 0.321777)"/>
</clipPath>
</defs>
</svg>
