<svg width="31" height="30" viewBox="0 0 31 30" fill="none" xmlns="http://www.w3.org/2000/svg">
<g clip-path="url(#clip0_201_4123)">
<path d="M17.6527 22.5675H13.0182C12.2477 22.5675 11.6278 21.9476 11.6278 21.1771V11.4447H6.54725C5.51607 11.4447 5.00048 10.1991 5.73042 9.4692L14.5418 0.652036C14.9763 0.21755 15.6888 0.21755 16.1233 0.652036L24.9405 9.4692C25.6704 10.1991 25.1548 11.4447 24.1236 11.4447H19.0431V21.1771C19.0431 21.9476 18.4232 22.5675 17.6527 22.5675ZM30.1659 22.104V28.5924C30.1659 29.3628 29.546 29.9827 28.7755 29.9827H1.89536C1.12487 29.9827 0.505005 29.3628 0.505005 28.5924V22.104C0.505005 21.3336 1.12487 20.7137 1.89536 20.7137H9.77403V21.1771C9.77403 22.9672 11.2281 24.4213 13.0182 24.4213H17.6527C19.4428 24.4213 20.8969 22.9672 20.8969 21.1771V20.7137H28.7755C29.546 20.7137 30.1659 21.3336 30.1659 22.104ZM22.9824 27.202C22.9824 26.5648 22.461 26.0434 21.8238 26.0434C21.1865 26.0434 20.6651 26.5648 20.6651 27.202C20.6651 27.8393 21.1865 28.3606 21.8238 28.3606C22.461 28.3606 22.9824 27.8393 22.9824 27.202ZM26.69 27.202C26.69 26.5648 26.1686 26.0434 25.5314 26.0434C24.8941 26.0434 24.3728 26.5648 24.3728 27.202C24.3728 27.8393 24.8941 28.3606 25.5314 28.3606C26.1686 28.3606 26.69 27.8393 26.69 27.202Z" fill="black"/>
</g>
<defs>
<clipPath id="clip0_201_4123">
<rect width="29.6609" height="29.6609" fill="white" transform="translate(0.505127 0.321777)"/>
</clipPath>
</defs>
</svg>
