<svg width="38" height="31" viewBox="0 0 38 31" fill="none" xmlns="http://www.w3.org/2000/svg">
<g clip-path="url(#clip0_201_4071)">
<path d="M8.60202 12.9609L3.01512 8.64268C2.85733 9.05367 2.77472 9.48969 2.77123 9.92992C2.76951 10.6084 2.9545 11.2744 3.30594 11.8548C3.65738 12.4352 4.16173 12.9078 4.76378 13.2207C5.36582 13.5337 6.04236 13.675 6.71934 13.6291C7.39632 13.5833 8.04765 13.3521 8.60202 12.9609ZM10.9448 16.5689C10.2512 15.8778 9.31171 15.4903 8.33264 15.4913H4.62503C3.64199 15.4923 2.69948 15.8832 2.00437 16.5783C1.30926 17.2734 0.91834 18.2159 0.917419 19.1989V21.0527C0.917419 21.5444 1.11273 22.0159 1.46039 22.3636C1.80804 22.7112 2.27957 22.9066 2.77123 22.9066H6.58949C6.76578 21.5821 7.25207 20.3178 8.00883 19.2166C8.76559 18.1154 9.77149 17.2082 10.9448 16.5689ZM32.4321 13.6375C33.1654 13.6375 33.8822 13.4201 34.492 13.0127C35.1017 12.6053 35.5769 12.0262 35.8575 11.3488C36.1381 10.6713 36.2115 9.9258 36.0685 9.2066C35.9254 8.48739 35.5723 7.82676 35.0538 7.30824C34.5353 6.78972 33.8746 6.4366 33.1554 6.29355C32.4362 6.15049 31.6908 6.22391 31.0133 6.50453C30.3358 6.78515 29.7567 7.26036 29.3493 7.87008C28.942 8.47979 28.7245 9.19662 28.7245 9.92992C28.7254 10.913 29.1163 11.8555 29.8115 12.5506C30.5066 13.2457 31.4491 13.6366 32.4321 13.6375ZM29.9156 21.2329C29.4695 20.2517 28.7906 19.3943 27.9378 18.7353C27.0849 18.0762 26.0841 17.6354 25.0221 17.4512L21.8307 14.9833C24.2325 14.039 25.9438 11.7437 25.9438 9.00301C25.9443 8.15081 25.7769 7.30685 25.451 6.51941C25.1251 5.73197 24.6472 5.01649 24.0446 4.41389C23.442 3.81129 22.7265 3.33338 21.9391 3.0075C21.1516 2.68162 20.3077 2.51416 19.4555 2.51469C16.1453 2.51469 13.4486 4.9959 13.0483 8.19661L3.55098 0.856697C3.45488 0.781912 3.34497 0.726797 3.22756 0.694503C3.11014 0.662209 2.98752 0.653369 2.86668 0.668486C2.74585 0.683604 2.62918 0.722384 2.52334 0.782609C2.4175 0.842835 2.32456 0.923327 2.24984 1.01948L1.11265 2.48341C0.961794 2.67747 0.894197 2.92351 0.924725 3.1674C0.955252 3.4113 1.0814 3.63308 1.27544 3.78397L35.3594 30.1265C35.4555 30.2014 35.5655 30.2566 35.6829 30.289C35.8004 30.3213 35.9231 30.3302 36.044 30.315C36.1649 30.2999 36.2816 30.2611 36.3875 30.2008C36.4934 30.1406 36.5864 30.06 36.6611 29.9638L37.7989 28.4998C37.9497 28.3058 38.0173 28.0597 37.9868 27.8158C37.9563 27.5719 37.8301 27.3502 37.6361 27.1993L29.9156 21.2329ZM8.33264 24.0194V25.6873C8.33264 26.4248 8.62561 27.132 9.14709 27.6535C9.66858 28.175 10.3759 28.468 11.1134 28.468H27.7976C28.0441 28.4647 28.289 28.4282 28.5258 28.3596L14.3575 17.4106C10.9824 17.7408 8.33264 20.5557 8.33264 24.0194ZM34.2859 15.4913H30.5783C29.5992 15.4903 28.6598 15.8778 27.9662 16.5689C29.1395 17.2076 30.1451 18.1147 30.9011 19.2161C31.6571 20.3175 32.142 21.5821 32.3163 22.9066H36.1397C36.6314 22.9066 37.1029 22.7112 37.4506 22.3636C37.7982 22.0159 37.9935 21.5444 37.9935 21.0527V19.1989C37.9926 18.2159 37.6017 17.2734 36.9066 16.5783C36.2115 15.8832 35.269 15.4923 34.2859 15.4913Z" fill="black"/>
</g>
<defs>
<clipPath id="clip0_201_4071">
<rect width="37.0761" height="29.6609" fill="white" transform="translate(0.917236 0.660889)"/>
</clipPath>
</defs>
</svg>
