<svg width="27" height="30" viewBox="0 0 27 30" fill="none" xmlns="http://www.w3.org/2000/svg">
<g clip-path="url(#clip0_201_4097)">
<path d="M13.951 15.1522C18.0468 15.1522 21.3662 11.8328 21.3662 7.737C21.3662 3.64125 18.0468 0.321777 13.951 0.321777C9.85525 0.321777 6.53578 3.64125 6.53578 7.737C6.53578 11.8328 9.85525 15.1522 13.951 15.1522ZM6.99923 24.8847C6.99923 25.6552 7.6191 26.2751 8.38959 26.2751C9.16008 26.2751 9.77994 25.6552 9.77994 24.8847C9.77994 24.1142 9.16008 23.4943 8.38959 23.4943C7.6191 23.4943 6.99923 24.1142 6.99923 24.8847ZM19.5124 17.0408V19.8794C21.6269 20.3081 23.22 22.1851 23.22 24.4212V26.837C23.22 27.2773 22.9072 27.6596 22.4727 27.7465L20.6073 28.1173C20.3582 28.1694 20.1149 28.0072 20.0628 27.7523L19.8832 26.8428C19.831 26.5937 19.9933 26.3446 20.2481 26.2982L21.3662 26.0723V24.4212C21.3662 20.7832 15.8048 20.6499 15.8048 24.5313V26.0781L16.9229 26.304C17.172 26.3562 17.3342 26.5995 17.2879 26.8486L17.1083 27.7581C17.0561 28.0072 16.8128 28.1694 16.5637 28.1231L14.7563 27.8798C14.2986 27.816 13.9568 27.4279 13.9568 26.9586V24.4212C13.9568 22.1851 15.5499 20.3139 17.6644 19.8794V17.2609C17.537 17.3015 17.4095 17.3246 17.2821 17.371C16.2393 17.736 15.1212 17.9387 13.9568 17.9387C12.7924 17.9387 11.6743 17.736 10.6315 17.371C10.2028 17.2204 9.76836 17.1277 9.32228 17.0698V21.797C10.6605 22.1967 11.6395 23.4248 11.6395 24.8905C11.6395 26.6806 10.1855 28.1347 8.39538 28.1347C6.6053 28.1347 5.15122 26.6806 5.15122 24.8905C5.15122 23.4248 6.13026 22.1967 7.46848 21.797V17.1393C3.78404 17.7591 0.974365 20.9338 0.974365 24.792V27.3873C0.974365 28.8182 2.13879 29.9827 3.56969 29.9827H24.3323C25.7632 29.9827 26.9276 28.8182 26.9276 27.3873V24.792C26.9276 20.6209 23.6371 17.2435 19.5124 17.0408Z" fill="black"/>
</g>
<defs>
<clipPath id="clip0_201_4097">
<rect width="25.9533" height="29.6609" fill="white" transform="translate(0.974365 0.321777)"/>
</clipPath>
</defs>
</svg>
