<svg width="38" height="30" viewBox="0 0 38 30" fill="none" xmlns="http://www.w3.org/2000/svg">
<g clip-path="url(#clip0_201_4115)">
<path d="M13.3952 15.1522C17.4909 15.1522 20.8104 11.8328 20.8104 7.737C20.8104 3.64125 17.4909 0.321777 13.3952 0.321777C9.29941 0.321777 5.97994 3.64125 5.97994 7.737C5.97994 11.8328 9.29941 15.1522 13.3952 15.1522ZM18.5858 17.006H17.6184C16.3323 17.5969 14.9014 17.9329 13.3952 17.9329C11.8889 17.9329 10.4638 17.5969 9.17196 17.006H8.2045C3.90599 17.006 0.418518 20.4935 0.418518 24.792V27.202C0.418518 28.7371 1.66404 29.9827 3.19923 29.9827H23.5911C25.1263 29.9827 26.3718 28.7371 26.3718 27.202V24.792C26.3718 20.4935 22.8843 17.006 18.5858 17.006ZM37.2977 9.56763L35.6872 7.93976C35.4207 7.66748 34.9862 7.66748 34.7139 7.93397L28.6427 13.9588L26.0068 11.3056C25.7403 11.0333 25.3059 11.0333 25.0336 11.2998L23.4057 12.9161C23.1334 13.1826 23.1334 13.617 23.3999 13.8893L28.1329 18.6571C28.3994 18.9293 28.8339 18.9293 29.1062 18.6629L37.2919 10.5409C37.5584 10.2686 37.5641 9.83412 37.2977 9.56763Z" fill="black"/>
</g>
<defs>
<clipPath id="clip0_201_4115">
<rect width="37.0761" height="29.6609" fill="white" transform="translate(0.418701 0.321777)"/>
</clipPath>
</defs>
</svg>
