<svg width="38" height="30" viewBox="0 0 38 30" fill="none" xmlns="http://www.w3.org/2000/svg">
<g clip-path="url(#clip0_201_4107)">
<path d="M13.114 15.1522C17.2097 15.1522 20.5292 11.8328 20.5292 7.737C20.5292 3.64125 17.2097 0.321777 13.114 0.321777C9.01822 0.321777 5.69875 3.64125 5.69875 7.737C5.69875 11.8328 9.01822 15.1522 13.114 15.1522ZM18.3046 17.006H17.3372C16.0511 17.5969 14.6202 17.9329 13.114 17.9329C11.6078 17.9329 10.1826 17.5969 8.89077 17.006H7.92331C3.6248 17.006 0.137329 20.4935 0.137329 24.792V27.202C0.137329 28.7371 1.38285 29.9827 2.91804 29.9827H18.8434C18.7043 29.5887 18.6464 29.1716 18.6928 28.7487L19.0867 25.2207L19.1562 24.5777L19.6139 24.12L24.092 19.6419C22.6727 18.0372 20.6161 17.006 18.3046 17.006ZM20.9289 25.4235L20.535 28.9573C20.4713 29.5482 20.9695 30.0464 21.5546 29.9769L25.0826 29.5829L33.0713 21.5942L28.9177 17.4405L20.9289 25.4235ZM36.8079 15.8995L34.6123 13.7039C34.0736 13.1652 33.193 13.1652 32.6542 13.7039L30.4644 15.8937L30.2269 16.1313L34.3864 20.2849L36.8079 17.8634C37.3467 17.3189 37.3467 16.4441 36.8079 15.8995Z" fill="black"/>
</g>
<defs>
<clipPath id="clip0_201_4107">
<rect width="37.0761" height="29.6609" fill="white" transform="translate(0.136353 0.321777)"/>
</clipPath>
</defs>
</svg>
