<svg width="38" height="30" viewBox="0 0 38 30" fill="none" xmlns="http://www.w3.org/2000/svg">
<g clip-path="url(#clip0_201_4083)">
<path d="M36.7172 26.8602L20.9888 14.7062C23.8738 13.6866 25.9535 10.9696 25.9535 7.737C25.9535 3.64125 22.6341 0.321777 18.5383 0.321777C14.6511 0.321777 11.4996 3.32263 11.1868 7.12293L2.63613 0.518744C2.23061 0.205914 1.65129 0.275432 1.33267 0.680952L0.197214 2.14082C-0.115616 2.54634 -0.046098 3.12566 0.359422 3.43849L34.4463 29.7799C34.8518 30.0927 35.4311 30.0232 35.7497 29.6177L36.8852 28.152C37.198 27.7581 37.1227 27.173 36.7172 26.8602ZM5.56166 24.792V27.202C5.56166 28.7371 6.80719 29.9827 8.34237 29.9827H28.63L12.0152 17.1393C8.35396 17.7765 5.56166 20.9454 5.56166 24.792Z" fill="black"/>
</g>
<defs>
<clipPath id="clip0_201_4083">
<rect width="37.0761" height="29.6609" fill="white" transform="translate(0 0.321777)"/>
</clipPath>
</defs>
</svg>
