<svg width="30" height="30" viewBox="0 0 30 30" fill="none" xmlns="http://www.w3.org/2000/svg">
<g clip-path="url(#clip0_201_4119)">
<path d="M14.9384 17.006C19.544 17.006 23.2805 13.2695 23.2805 8.6639C23.2805 4.05835 19.544 0.321777 14.9384 0.321777C10.3329 0.321777 6.59629 4.05835 6.59629 8.6639C6.59629 13.2695 10.3329 17.006 14.9384 17.006ZM22.3536 18.8598H19.1616C17.8755 19.4507 16.4446 19.7867 14.9384 19.7867C13.4322 19.7867 12.0071 19.4507 10.7152 18.8598H7.52319C3.42744 18.8598 0.107971 22.1793 0.107971 26.2751V27.202C0.107971 28.7371 1.3535 29.9827 2.88868 29.9827H26.9882C28.5233 29.9827 29.7689 28.7371 29.7689 27.202V26.2751C29.7689 22.1793 26.4494 18.8598 22.3536 18.8598Z" fill="black"/>
</g>
<defs>
<clipPath id="clip0_201_4119">
<rect width="29.6609" height="29.6609" fill="white" transform="translate(0.108154 0.321777)"/>
</clipPath>
</defs>
</svg>
