<svg width="27" height="30" viewBox="0 0 27 30" fill="none" xmlns="http://www.w3.org/2000/svg">
<g clip-path="url(#clip0_201_4091)">
<path d="M19.0055 18.8598L13.4782 24.3859L7.95099 18.8598C3.80947 19.0394 0.501587 22.4284 0.501587 26.6105C0.501587 27.5048 0.85687 28.3626 1.48928 28.995C2.12169 29.6274 2.97942 29.9827 3.87378 29.9827H23.0827C23.977 29.9827 24.8348 29.6274 25.4672 28.995C26.0996 28.3626 26.4549 27.5048 26.4549 26.6105C26.4549 22.4284 23.147 19.0394 19.0055 18.8598ZM13.4782 17.9329C15.4449 17.9329 17.331 17.1517 18.7216 15.7611C20.1122 14.3704 20.8934 12.4843 20.8934 10.5177V4.13482C20.8939 3.75711 20.779 3.38827 20.564 3.07768C20.3491 2.76708 20.0444 2.52955 19.6908 2.39688L14.7799 0.557559C13.9407 0.242858 13.0158 0.242858 12.1765 0.557559L7.26566 2.3992C6.91239 2.53173 6.60797 2.76891 6.39306 3.07904C6.17816 3.38918 6.06302 3.75751 6.063 4.13482V10.5177C6.063 12.4843 6.84425 14.3704 8.23487 15.7611C9.62549 17.1517 11.5116 17.9329 13.4782 17.9329ZM11.161 4.47372C11.161 4.3969 11.1915 4.32323 11.2458 4.2689C11.3001 4.21458 11.3738 4.18407 11.4506 4.18407H12.706V2.92869C12.706 2.85187 12.7365 2.77819 12.7908 2.72387C12.8452 2.66955 12.9188 2.63903 12.9957 2.63903H13.9608C14.0376 2.63903 14.1113 2.66955 14.1656 2.72387C14.2199 2.77819 14.2505 2.85187 14.2505 2.92869V4.18407H15.5058C15.5826 4.18407 15.6563 4.21458 15.7106 4.2689C15.765 4.32323 15.7955 4.3969 15.7955 4.47372V5.43886C15.7955 5.51568 15.765 5.58936 15.7106 5.64368C15.6563 5.698 15.5826 5.72852 15.5058 5.72852H14.2505V6.98389C14.2505 7.06071 14.2199 7.13439 14.1656 7.18871C14.1113 7.24303 14.0376 7.27355 13.9608 7.27355H12.9957C12.9188 7.27355 12.8452 7.24303 12.7908 7.18871C12.7365 7.13439 12.706 7.06071 12.706 6.98389V5.72852H11.4506C11.3738 5.72852 11.3001 5.698 11.2458 5.64368C11.1915 5.58936 11.161 5.51568 11.161 5.43886V4.47372ZM8.84371 9.59081H18.1127V10.5177C18.1127 11.7469 17.6245 12.9257 16.7553 13.7948C15.8862 14.6639 14.7074 15.1522 13.4782 15.1522C12.2491 15.1522 11.0703 14.6639 10.2011 13.7948C9.33199 12.9257 8.84371 11.7469 8.84371 10.5177V9.59081Z" fill="black"/>
</g>
<defs>
<clipPath id="clip0_201_4091">
<rect width="25.9533" height="29.6609" fill="white" transform="translate(0.501587 0.321777)"/>
</clipPath>
</defs>
</svg>
