<svg width="38" height="30" viewBox="0 0 38 30" fill="none" xmlns="http://www.w3.org/2000/svg">
<g clip-path="url(#clip0_201_4109)">
<path d="M35.4096 21.9476C35.5602 21.1307 35.5602 20.2965 35.4096 19.4797L36.9042 18.6165C37.078 18.518 37.1533 18.3153 37.0954 18.1241C36.7073 16.8728 36.0411 15.7373 35.1721 14.7988C35.0389 14.654 34.8245 14.6193 34.6507 14.7177L33.1561 15.5809C32.5246 15.0422 31.8005 14.625 31.0184 14.347V12.6206C31.0184 12.4237 30.8794 12.2499 30.6882 12.2093C29.3963 11.9196 28.0813 11.9312 26.8531 12.2093C26.662 12.2499 26.5229 12.4237 26.5229 12.6206V14.347C25.7409 14.625 25.0167 15.0422 24.3853 15.5809L22.8906 14.7177C22.7226 14.6193 22.5025 14.654 22.3693 14.7988C21.5003 15.7373 20.8341 16.8728 20.4459 18.1241C20.388 18.3153 20.4691 18.518 20.6371 18.6165L22.1317 19.4797C21.9811 20.2965 21.9811 21.1307 22.1317 21.9476L20.6371 22.8108C20.4633 22.9092 20.388 23.112 20.4459 23.3032C20.8341 24.5545 21.5003 25.6842 22.3693 26.6284C22.5025 26.7733 22.7168 26.808 22.8906 26.7095L24.3853 25.8464C25.0167 26.3851 25.7409 26.8022 26.5229 27.0803V28.8067C26.5229 29.0036 26.662 29.1774 26.8531 29.218C28.145 29.5076 29.4601 29.496 30.6882 29.218C30.8794 29.1774 31.0184 29.0036 31.0184 28.8067V27.0803C31.8005 26.8022 32.5246 26.3851 33.1561 25.8464L34.6507 26.7095C34.8187 26.808 35.0389 26.7733 35.1721 26.6284C36.0411 25.6899 36.7073 24.5545 37.0954 23.3032C37.1533 23.112 37.0722 22.9092 36.9042 22.8108L35.4096 21.9476ZM28.7765 23.5233C27.2239 23.5233 25.9668 22.2604 25.9668 20.7136C25.9668 19.1669 27.2297 17.904 28.7765 17.904C30.3232 17.904 31.5861 19.1669 31.5861 20.7136C31.5861 22.2604 30.329 23.5233 28.7765 23.5233ZM13.0191 15.1522C17.1149 15.1522 20.4343 11.8328 20.4343 7.737C20.4343 3.64125 17.1149 0.321777 13.0191 0.321777C8.92337 0.321777 5.6039 3.64125 5.6039 7.737C5.6039 11.8328 8.92337 15.1522 13.0191 15.1522ZM24.6749 28.2737C24.5417 28.2042 24.4084 28.1231 24.281 28.0478L23.8233 28.3142C23.4757 28.5112 23.0818 28.6213 22.6879 28.6213C22.0564 28.6213 21.4481 28.3548 21.0137 27.8913C19.9535 26.7443 19.1425 25.3482 18.6848 23.8593C18.3662 22.8339 18.7949 21.7506 19.7218 21.2118L20.1794 20.9454C20.1737 20.7947 20.1737 20.6441 20.1794 20.4935L19.7218 20.227C18.7949 19.694 18.3662 18.6049 18.6848 17.5795C18.7369 17.4115 18.8123 17.2435 18.8702 17.0755C18.6501 17.0582 18.4357 17.006 18.2098 17.006H17.2423C15.9562 17.5969 14.5253 17.9329 13.0191 17.9329C11.5129 17.9329 10.0878 17.5969 8.79592 17.006H7.82846C3.52995 17.006 0.0424805 20.4935 0.0424805 24.792V27.202C0.0424805 28.7371 1.28801 29.9827 2.82319 29.9827H23.215C23.8002 29.9827 24.3447 29.7973 24.7908 29.4902C24.7213 29.2701 24.6749 29.0442 24.6749 28.8067V28.2737Z" fill="black"/>
</g>
<defs>
<clipPath id="clip0_201_4109">
<rect width="37.0761" height="29.6609" fill="white" transform="translate(0.0424805 0.321777)"/>
</clipPath>
</defs>
</svg>
