<svg width="38" height="30" viewBox="0 0 38 30" fill="none" xmlns="http://www.w3.org/2000/svg">
<g clip-path="url(#clip0_201_4105)">
<path d="M11.3528 15.1522C14.9388 15.1522 17.8411 12.2499 17.8411 8.66392C17.8411 5.07796 14.9388 2.1756 11.3528 2.1756C7.76686 2.1756 4.86449 5.07796 4.86449 8.66392C4.86449 12.2499 7.76686 15.1522 11.3528 15.1522ZM15.8019 17.006H15.3211C14.1161 17.5854 12.7779 17.9329 11.3528 17.9329C9.9277 17.9329 8.59528 17.5854 7.38451 17.006H6.90368C3.21924 17.006 0.22998 19.9953 0.22998 23.6797V25.3482C0.22998 26.8834 1.47551 28.1289 3.01069 28.1289H19.6949C21.2301 28.1289 22.4756 26.8834 22.4756 25.3482V23.6797C22.4756 19.9953 19.4864 17.006 15.8019 17.006ZM28.0371 15.1522C31.1074 15.1522 33.5985 12.6612 33.5985 9.59082C33.5985 6.52045 31.1074 4.0294 28.0371 4.0294C24.9667 4.0294 22.4756 6.52045 22.4756 9.59082C22.4756 12.6612 24.9667 15.1522 28.0371 15.1522ZM30.8178 17.006H30.5976C29.7924 17.2841 28.9408 17.4695 28.0371 17.4695C27.1333 17.4695 26.2817 17.2841 25.4765 17.006H25.2564C24.0746 17.006 22.9854 17.3478 22.0296 17.8982C23.4431 19.4218 24.3295 21.4436 24.3295 23.6797V25.9043C24.3295 26.0318 24.3005 26.1534 24.2947 26.2751H34.5254C36.0606 26.2751 37.3061 25.0295 37.3061 23.4944C37.3061 19.9084 34.4037 17.006 30.8178 17.006Z" fill="black"/>
</g>
<defs>
<clipPath id="clip0_201_4105">
<rect width="37.0761" height="29.6609" fill="white" transform="translate(0.230225 0.321777)"/>
</clipPath>
</defs>
</svg>
