<svg width="38" height="30" viewBox="0 0 38 30" fill="none" xmlns="http://www.w3.org/2000/svg">
<g clip-path="url(#clip0_201_4089)">
<path d="M36.7448 12.3715H33.0372V8.6639C33.0372 8.15411 32.6201 7.737 32.1103 7.737H30.2565C29.7467 7.737 29.3296 8.15411 29.3296 8.6639V12.3715H25.622C25.1122 12.3715 24.6951 12.7886 24.6951 13.2984V15.1522C24.6951 15.662 25.1122 16.0791 25.622 16.0791H29.3296V19.7867C29.3296 20.2965 29.7467 20.7136 30.2565 20.7136H32.1103C32.6201 20.7136 33.0372 20.2965 33.0372 19.7867V16.0791H36.7448C37.2546 16.0791 37.6717 15.662 37.6717 15.1522V13.2984C37.6717 12.7886 37.2546 12.3715 36.7448 12.3715ZM13.5722 15.1522C17.668 15.1522 20.9874 11.8328 20.9874 7.737C20.9874 3.64125 17.668 0.321777 13.5722 0.321777C9.47647 0.321777 6.157 3.64125 6.157 7.737C6.157 11.8328 9.47647 15.1522 13.5722 15.1522ZM18.7629 17.006H17.7954C16.5093 17.5969 15.0784 17.9329 13.5722 17.9329C12.066 17.9329 10.6409 17.5969 9.34902 17.006H8.38156C4.08305 17.006 0.595581 20.4935 0.595581 24.792V27.202C0.595581 28.7371 1.84111 29.9827 3.37629 29.9827H23.7682C25.3033 29.9827 26.5489 28.7371 26.5489 27.202V24.792C26.5489 20.4935 23.0614 17.006 18.7629 17.006Z" fill="black"/>
</g>
<defs>
<clipPath id="clip0_201_4089">
<rect width="37.0761" height="29.6609" fill="white" transform="translate(0.595459 0.321777)"/>
</clipPath>
</defs>
</svg>
