<svg width="38" height="30" viewBox="0 0 38 30" fill="none" xmlns="http://www.w3.org/2000/svg">
<g clip-path="url(#clip0_201_4085)">
<path d="M36.957 16.027L30.2833 13.4201C30.0458 13.3274 29.5533 13.2057 28.9972 13.4201L22.3235 16.027C21.7036 16.2703 21.2981 16.838 21.2981 17.4695C21.2981 23.9346 25.278 28.4069 28.9972 29.861C29.5533 30.0754 30.04 29.9537 30.2833 29.861C33.2552 28.7024 37.9824 24.6819 37.9824 17.4695C37.9824 16.838 37.5768 16.2703 36.957 16.027ZM29.6402 27.1093V16.1544L35.1727 18.3153C34.8483 23.3611 31.6447 26.1592 29.6402 27.1093ZM13.8829 15.1522C17.9786 15.1522 21.2981 11.8328 21.2981 7.737C21.2981 3.64125 17.9786 0.321777 13.8829 0.321777C9.78714 0.321777 6.46767 3.64125 6.46767 7.737C6.46767 11.8328 9.78714 15.1522 13.8829 15.1522ZM19.4443 17.4695C19.4443 17.3246 19.4907 17.1914 19.508 17.0524C19.3632 17.0466 19.2242 17.006 19.0735 17.006H18.1061C16.82 17.5969 15.3891 17.9329 13.8829 17.9329C12.3767 17.9329 10.9516 17.5969 9.65969 17.006H8.69223C4.39372 17.006 0.90625 20.4935 0.90625 24.792V27.202C0.90625 28.7371 2.15178 29.9827 3.68696 29.9827H24.0788C24.4728 29.9827 24.8493 29.8958 25.1911 29.7509C22.0628 27.2657 19.4443 22.9903 19.4443 17.4695Z" fill="black"/>
</g>
<defs>
<clipPath id="clip0_201_4085">
<rect width="37.0761" height="29.6609" fill="white" transform="translate(0.906128 0.321777)"/>
</clipPath>
</defs>
</svg>
