<svg width="38" height="31" viewBox="0 0 38 31" fill="none" xmlns="http://www.w3.org/2000/svg">
<g clip-path="url(#clip0_201_4073)">
<path d="M36.1904 20.4328C36.341 19.616 36.341 18.7818 36.1904 17.965L37.685 17.1018C37.8588 17.0033 37.9341 16.8005 37.8762 16.6094C37.488 15.3581 36.8218 14.2226 35.9529 13.2841C35.8196 13.1393 35.6053 13.1045 35.4315 13.203L33.9368 14.0662C33.3054 13.5274 32.5812 13.1103 31.7992 12.8322V11.1059C31.7992 10.9089 31.6601 10.7351 31.469 10.6946C30.1771 10.4049 28.8621 10.4165 27.6339 10.6946C27.4427 10.7351 27.3037 10.9089 27.3037 11.1059V12.8322C26.5216 13.1103 25.7975 13.5274 25.166 14.0662L23.6714 13.203C23.5034 13.1045 23.2833 13.1393 23.15 13.2841C22.281 14.2226 21.6148 15.3581 21.2267 16.6094C21.1688 16.8005 21.2499 17.0033 21.4179 17.1018L22.9125 17.965C22.7619 18.7818 22.7619 19.616 22.9125 20.4328L21.4179 21.296C21.2441 21.3945 21.1688 21.5973 21.2267 21.7884C21.6148 23.0398 22.281 24.1694 23.15 25.1137C23.2833 25.2585 23.4976 25.2933 23.6714 25.1948L25.166 24.3316C25.7975 24.8704 26.5216 25.2875 27.3037 25.5656V27.2919C27.3037 27.4889 27.4427 27.6627 27.6339 27.7032C28.9258 27.9929 30.2408 27.9813 31.469 27.7032C31.6601 27.6627 31.7992 27.4889 31.7992 27.2919V25.5656C32.5812 25.2875 33.3054 24.8704 33.9368 24.3316L35.4315 25.1948C35.5995 25.2933 35.8196 25.2585 35.9529 25.1137C36.8218 24.1752 37.488 23.0398 37.8762 21.7884C37.9341 21.5973 37.853 21.3945 37.685 21.296L36.1904 20.4328ZM29.5572 22.0086C28.0047 22.0086 26.7476 20.7457 26.7476 19.1989C26.7476 17.6521 28.0105 16.3892 29.5572 16.3892C31.104 16.3892 32.3669 17.6521 32.3669 19.1989C32.3669 20.7457 31.1098 22.0086 29.5572 22.0086ZM6.38466 13.6375C8.42964 13.6375 10.0923 11.9749 10.0923 9.92988C10.0923 7.8849 8.42964 6.22227 6.38466 6.22227C4.33968 6.22227 2.67705 7.8849 2.67705 9.92988C2.67705 11.9749 4.33968 13.6375 6.38466 13.6375ZM19.3613 15.4913C19.4714 15.4913 19.5756 15.4623 19.6857 15.4565C20.1665 14.1994 20.8733 13.0176 21.7886 12.027C22.2173 11.5635 22.8256 11.2971 23.4628 11.2971C23.8626 11.2971 24.2565 11.4013 24.5983 11.6041L25.056 11.8706C25.1023 11.8416 25.1486 11.8184 25.195 11.7895C25.6005 10.9437 25.8438 10.0052 25.8438 9.00877C25.8438 5.42281 22.9415 2.52045 19.3555 2.52045C15.7695 2.52045 12.873 5.41702 12.873 9.00297C12.873 12.5889 15.7753 15.4913 19.3613 15.4913ZM25.4557 26.759C25.3224 26.6894 25.1892 26.6083 25.0617 26.533C24.5867 26.8111 24.1754 27.1007 23.4686 27.1007C22.8372 27.1007 22.2289 26.8343 21.7944 26.3708C20.7343 25.2238 19.9232 23.8276 19.4656 22.3388C18.8457 20.3402 20.9081 19.4596 20.9602 19.4248C20.9544 19.2742 20.9544 19.1236 20.9602 18.973L20.5025 18.7065C20.2824 18.579 20.097 18.4168 19.9348 18.2372C19.7436 18.2488 19.5583 18.272 19.3671 18.272C17.942 18.272 16.6096 17.9244 15.3988 17.3451H14.918C11.2277 17.3451 8.23846 20.3344 8.23846 24.0188V25.6872C8.23846 27.2224 9.48399 28.4679 11.0192 28.4679H25.8149C25.6005 28.1203 25.4557 27.7264 25.4557 27.2919V26.759ZM10.8512 16.5688C10.1792 15.9026 9.25806 15.4913 8.23846 15.4913H4.53085C2.48587 15.4913 0.823242 17.1539 0.823242 19.1989V21.0527C0.823242 22.0781 1.65166 22.9065 2.67705 22.9065H6.49473C6.8597 20.1606 8.51654 17.8491 10.8512 16.5688Z" fill="black"/>
</g>
<defs>
<clipPath id="clip0_201_4073">
<rect width="37.0761" height="29.6609" fill="white" transform="translate(0.823364 0.660889)"/>
</clipPath>
</defs>
</svg>
