<svg width="38" height="30" viewBox="0 0 38 30" fill="none" xmlns="http://www.w3.org/2000/svg">
<g clip-path="url(#clip0_201_4099)">
<path d="M13.7343 15.1522C15.2009 15.1522 16.6346 14.7173 17.854 13.9025C19.0734 13.0877 20.0239 11.9296 20.5851 10.5747C21.1463 9.21973 21.2932 7.72878 21.0071 6.29037C20.721 4.85195 20.0147 3.53069 18.9777 2.49365C17.9406 1.45661 16.6194 0.75038 15.181 0.464262C13.7426 0.178144 12.2516 0.32499 10.8966 0.886231C9.54169 1.44747 8.38359 2.3979 7.5688 3.61733C6.754 4.83675 6.31911 6.27041 6.31911 7.737C6.31911 9.70364 7.10035 11.5897 8.49097 12.9804C9.8816 14.371 11.7677 15.1522 13.7343 15.1522ZM19.2957 18.8598C19.2999 18.2406 19.4614 17.6326 19.765 17.0929C19.4869 17.064 19.2146 17.006 18.925 17.006H17.9575C16.6334 17.6167 15.1925 17.9329 13.7343 17.9329C12.2761 17.9329 10.8353 17.6167 9.51113 17.006H8.54367C6.47884 17.0065 4.49872 17.8269 3.03866 19.287C1.57861 20.7471 0.758151 22.7272 0.75769 24.792L0.75769 27.202C0.75769 27.9395 1.05066 28.6467 1.57214 29.1682C2.09362 29.6897 2.80091 29.9827 3.5384 29.9827H19.8113C19.4781 29.4214 19.3002 28.7816 19.2957 28.1289V18.8598ZM35.98 17.006H34.1262V12.3715C34.1262 11.1424 33.6379 9.96356 32.7688 9.09442C31.8996 8.22528 30.7208 7.737 29.4917 7.737C28.2625 7.737 27.0837 8.22528 26.2146 9.09442C25.3454 9.96356 24.8572 11.1424 24.8572 12.3715V17.006H23.0034C22.5117 17.006 22.0402 17.2013 21.6925 17.549C21.3449 17.8967 21.1496 18.3682 21.1496 18.8598V28.1289C21.1496 28.6205 21.3449 29.092 21.6925 29.4397C22.0402 29.7874 22.5117 29.9827 23.0034 29.9827H35.98C36.4717 29.9827 36.9432 29.7874 37.2908 29.4397C37.6385 29.092 37.8338 28.6205 37.8338 28.1289V18.8598C37.8338 18.3682 37.6385 17.8967 37.2908 17.549C36.9432 17.2013 36.4717 17.006 35.98 17.006ZM29.4917 25.3482C29.125 25.3482 28.7666 25.2394 28.4618 25.0357C28.1569 24.832 27.9193 24.5425 27.779 24.2038C27.6387 23.865 27.602 23.4923 27.6735 23.1327C27.745 22.7731 27.9216 22.4428 28.1808 22.1835C28.4401 21.9243 28.7704 21.7477 29.13 21.6762C29.4896 21.6046 29.8624 21.6413 30.2011 21.7817C30.5398 21.922 30.8294 22.1596 31.0331 22.4644C31.2368 22.7693 31.3455 23.1277 31.3455 23.4944C31.3455 23.986 31.1502 24.4575 30.8025 24.8052C30.4549 25.1528 29.9833 25.3482 29.4917 25.3482ZM31.3455 17.006H27.6379V12.3715C27.6379 11.8799 27.8332 11.4083 28.1808 11.0607C28.5285 10.713 29 10.5177 29.4917 10.5177C29.9833 10.5177 30.4549 10.713 30.8025 11.0607C31.1502 11.4083 31.3455 11.8799 31.3455 12.3715V17.006Z" fill="black"/>
</g>
<defs>
<clipPath id="clip0_201_4099">
<rect width="37.0761" height="29.6609" fill="white" transform="translate(0.757568 0.321777)"/>
</clipPath>
</defs>
</svg>
