<svg width="38" height="31" viewBox="0 0 38 31" fill="none" xmlns="http://www.w3.org/2000/svg">
<g clip-path="url(#clip0_201_4077)">
<path d="M34.6692 14.5644L37.3109 11.9228C37.6758 11.5578 37.6758 10.9669 37.3109 10.6019L35.99 9.28109C35.6251 8.91612 35.0341 8.91612 34.6692 9.28109L32.0275 11.9228L29.3858 9.28109C29.0209 8.91612 28.43 8.91612 28.065 9.28109L26.7442 10.6019C26.3792 10.9669 26.3792 11.5578 26.7442 11.9228L29.3858 14.5644L26.7442 17.2061C26.3792 17.5711 26.3792 18.162 26.7442 18.5269L28.065 19.8478C28.43 20.2127 29.0209 20.2127 29.3858 19.8478L32.0275 17.2061L34.6692 19.8478C35.0341 20.2127 35.6251 20.2127 35.99 19.8478L37.3109 18.5269C37.6758 18.162 37.6758 17.5711 37.3109 17.2061L34.6692 14.5644ZM13.4895 15.4913C17.5852 15.4913 20.9047 12.1719 20.9047 8.07611C20.9047 3.98036 17.5852 0.660889 13.4895 0.660889C9.3937 0.660889 6.07423 3.98036 6.07423 8.07611C6.07423 12.1719 9.3937 15.4913 13.4895 15.4913ZM18.6801 17.3451H17.7127C16.4266 17.936 14.9957 18.272 13.4895 18.272C11.9832 18.272 10.5581 17.936 9.26626 17.3451H8.2988C4.00029 17.3451 0.512817 20.8326 0.512817 25.1311V27.5411C0.512817 29.0763 1.75834 30.3218 3.29353 30.3218H23.6854C25.2206 30.3218 26.4661 29.0763 26.4661 27.5411V25.1311C26.4661 20.8326 22.9786 17.3451 18.6801 17.3451Z" fill="black"/>
</g>
<defs>
<clipPath id="clip0_201_4077">
<rect width="37.0761" height="29.6609" fill="white" transform="translate(0.512817 0.660889)"/>
</clipPath>
</defs>
</svg>
