<svg width="39" height="30" viewBox="0 0 39 30" fill="none" xmlns="http://www.w3.org/2000/svg">
<g clip-path="url(#clip0_201_4111)">
<path d="M29.6833 13.2984C25.072 13.2984 21.3412 17.0292 21.3412 21.6405C21.3412 26.2519 25.072 29.9827 29.6833 29.9827C34.2947 29.9827 38.0255 26.2519 38.0255 21.6405C38.0255 17.0292 34.2947 13.2984 29.6833 13.2984ZM33.3909 22.0055C33.3909 22.3125 33.136 22.5674 32.829 22.5674H29.3184C29.0113 22.5674 28.7564 22.3125 28.7564 22.0055V17.568C28.7564 17.2609 29.0113 17.006 29.3184 17.006H30.0483C30.3553 17.006 30.6102 17.2609 30.6102 17.568V20.7136H32.829C33.136 20.7136 33.3909 20.9685 33.3909 21.2756V22.0055ZM19.4874 21.6405C19.4874 20.03 19.8755 18.5065 20.5417 17.1509C20.0783 17.064 19.6033 17.006 19.1166 17.006H18.1492C16.8631 17.5969 15.4322 17.9329 13.926 17.9329C12.4198 17.9329 10.9946 17.5969 9.70278 17.006H8.73532C4.43681 17.006 0.949341 20.4935 0.949341 24.792V27.202C0.949341 28.7371 2.19487 29.9827 3.73005 29.9827H23.838C21.2138 28.1347 19.4874 25.0875 19.4874 21.6405ZM13.926 15.1522C18.0217 15.1522 21.3412 11.8328 21.3412 7.737C21.3412 3.64125 18.0217 0.321777 13.926 0.321777C9.83023 0.321777 6.51076 3.64125 6.51076 7.737C6.51076 11.8328 9.83023 15.1522 13.926 15.1522Z" fill="black"/>
</g>
<defs>
<clipPath id="clip0_201_4111">
<rect width="37.0761" height="29.6609" fill="white" transform="translate(0.948608 0.321777)"/>
</clipPath>
</defs>
</svg>
