<svg width="27" height="30" viewBox="0 0 27 30" fill="none" xmlns="http://www.w3.org/2000/svg">
<g clip-path="url(#clip0_201_4101)">
<path d="M16.7321 1.0158C15.7884 0.580731 14.7474 0.321777 13.6403 0.321777C10.53 0.321777 7.87616 2.24105 6.77488 4.95629H11.4783L16.7321 1.0158ZM20.5058 4.95629C20.0481 3.82837 19.3083 2.85917 18.3919 2.08753L14.5667 4.95629H20.5058ZM13.6403 15.1522C17.7355 15.1522 21.0556 11.8322 21.0556 7.737C21.0556 7.41954 21.0005 7.11713 20.9623 6.8101H6.31838C6.27957 7.11713 6.22511 7.41954 6.22511 7.737C6.22511 11.8322 9.54516 15.1522 13.6403 15.1522ZM5.29821 17.6838V29.9827H12.7285L7.02515 17.1497C6.43052 17.2593 5.85087 17.4386 5.29821 17.6838ZM0.663696 27.202C0.663696 28.7377 1.90864 29.9827 3.4444 29.9827V18.8737C1.75744 20.3017 0.663696 22.4087 0.663696 24.792V27.202ZM15.4941 24.4212H12.2859L14.7578 29.9827H15.4941C17.0276 29.9827 18.2748 28.7354 18.2748 27.202C18.2748 25.6685 17.0276 24.4212 15.4941 24.4212ZM18.831 17.006H17.863C16.5746 17.5958 15.1471 17.9329 13.6403 17.9329C12.1335 17.9329 10.7061 17.5958 9.41771 17.006H8.99076L11.4627 22.5674H15.4941C18.0495 22.5674 20.1287 24.6466 20.1287 27.202C20.1287 28.2494 19.766 29.2058 19.178 29.9827H23.8363C25.372 29.9827 26.617 28.7377 26.617 27.202V24.792C26.617 20.4918 23.1312 17.006 18.831 17.006Z" fill="black"/>
</g>
<defs>
<clipPath id="clip0_201_4101">
<rect width="25.9533" height="29.6609" fill="white" transform="translate(0.663696 0.321777)"/>
</clipPath>
</defs>
</svg>
