<svg width="25" height="31" viewBox="0 0 25 31" fill="none" xmlns="http://www.w3.org/2000/svg">
<g clip-path="url(#clip0_201_4065)">
<path d="M12.6348 1.54147C12.6812 1.81375 13.5675 7.01599 13.5675 9.00304C13.5675 12.0328 11.957 14.1937 9.57605 15.0627L10.3234 28.8561C10.3639 29.6498 9.73246 30.3218 8.93301 30.3218H5.2254C4.43173 30.3218 3.79449 29.6556 3.83504 28.8561L4.58236 15.0627C2.19558 14.1937 0.590881 12.0271 0.590881 9.00304C0.590881 7.01019 1.47723 1.81375 1.52358 1.54147C1.70896 0.36546 4.14787 0.348081 4.29849 1.60519V9.78511C4.3738 9.98208 5.17326 9.97049 5.2254 9.78511C5.3065 8.31945 5.68305 1.72106 5.68885 1.57043C5.88002 0.36546 8.27838 0.36546 8.46376 1.57043C8.47535 1.72685 8.84611 8.31945 8.92721 9.78511C8.97935 9.97049 9.7846 9.98208 9.85412 9.78511V1.60519C10.0047 0.353874 12.4494 0.36546 12.6348 1.54147ZM19.5403 18.0925L18.6713 28.8156C18.6018 29.6266 19.2448 30.3218 20.0558 30.3218H23.3C24.0705 30.3218 24.6904 29.7019 24.6904 28.9314V2.05126C24.6904 1.28657 24.0705 0.66091 23.3 0.66091C18.5207 0.66091 10.474 11.0017 19.5403 18.0925Z" fill="black"/>
</g>
<defs>
<clipPath id="clip0_201_4065">
<rect width="24.0995" height="29.6609" fill="white" transform="translate(0.59082 0.660889)"/>
</clipPath>
</defs>
</svg>
