<svg width="30" height="31" viewBox="0 0 30 31" fill="none" xmlns="http://www.w3.org/2000/svg">
<g clip-path="url(#clip0_201_4063)">
<path d="M29.7608 8.07611V2.51469C29.7608 1.49105 28.9306 0.660889 27.907 0.660889H22.3456C21.3219 0.660889 20.4918 1.49105 20.4918 2.51469H9.36894C9.36894 1.49105 8.53878 0.660889 7.51514 0.660889H1.95372C0.930072 0.660889 0.0999146 1.49105 0.0999146 2.51469V8.07611C0.0999146 9.09976 0.930072 9.92992 1.95372 9.92992V21.0527C0.930072 21.0527 0.0999146 21.8829 0.0999146 22.9066V28.468C0.0999146 29.4916 0.930072 30.3218 1.95372 30.3218H7.51514C8.53878 30.3218 9.36894 29.4916 9.36894 28.468H20.4918C20.4918 29.4916 21.3219 30.3218 22.3456 30.3218H27.907C28.9306 30.3218 29.7608 29.4916 29.7608 28.468V22.9066C29.7608 21.8829 28.9306 21.0527 27.907 21.0527V9.92992C28.9306 9.92992 29.7608 9.09976 29.7608 8.07611ZM24.1994 4.3685H26.0532V6.22231H24.1994V4.3685ZM3.80753 4.3685H5.66133V6.22231H3.80753V4.3685ZM5.66133 26.6142H3.80753V24.7604H5.66133V26.6142ZM26.0532 26.6142H24.1994V24.7604H26.0532V26.6142ZM24.1994 21.0527H22.3456C21.3219 21.0527 20.4918 21.8829 20.4918 22.9066V24.7604H9.36894V22.9066C9.36894 21.8829 8.53878 21.0527 7.51514 21.0527H5.66133V9.92992H7.51514C8.53878 9.92992 9.36894 9.09976 9.36894 8.07611V6.22231H20.4918V8.07611C20.4918 9.09976 21.3219 9.92992 22.3456 9.92992H24.1994V21.0527Z" fill="black"/>
</g>
<defs>
<clipPath id="clip0_201_4063">
<rect width="29.6609" height="29.6609" fill="white" transform="translate(0.0998535 0.660889)"/>
</clipPath>
</defs>
</svg>
