<svg width="34" height="31" viewBox="0 0 34 31" fill="none" xmlns="http://www.w3.org/2000/svg">
<g clip-path="url(#clip0_201_4059)">
<path d="M33.0837 0.660889H28.5071C27.8873 0.660889 27.5802 1.4082 28.0147 1.84848L28.9938 2.82752L26.1725 5.64878C24.8864 4.83774 23.3628 4.3685 21.7292 4.3685C19.7769 4.3685 17.9868 5.0405 16.5617 6.15858C17.3727 7.12604 18.01 8.24411 18.4213 9.46646C19.2613 8.60908 20.4315 8.07611 21.7292 8.07611C24.2839 8.07611 26.3637 10.1558 26.3637 12.7106C26.3637 15.2654 24.2839 17.3451 21.7292 17.3451C20.4373 17.3451 19.2613 16.8122 18.4213 15.9548C18.01 17.1771 17.3785 18.2952 16.5617 19.2627C17.981 20.3865 19.7769 21.0527 21.7292 21.0527C26.3347 21.0527 30.0713 17.3162 30.0713 12.7106C30.0713 11.077 29.602 9.55336 28.791 8.26728L31.6123 5.44602L32.5913 6.42507C32.7303 6.5641 32.9041 6.62783 33.0779 6.62783C33.4371 6.62783 33.7789 6.34975 33.7789 5.93265V1.35607C33.7789 0.973718 33.4661 0.660889 33.0837 0.660889ZM8.75253 4.3685C4.14698 4.3685 0.4104 8.10508 0.4104 12.7106C0.4104 16.6789 3.18532 20.0042 6.89872 20.8442V23.8335H4.81319C4.43084 23.8335 4.11801 24.1463 4.11801 24.5286V26.8459C4.11801 27.2282 4.43084 27.5411 4.81319 27.5411H6.89872V29.6266C6.89872 30.0089 7.21155 30.3218 7.5939 30.3218H9.91115C10.2935 30.3218 10.6063 30.0089 10.6063 29.6266V27.5411H12.6919C13.0742 27.5411 13.387 27.2282 13.387 26.8459V24.5286C13.387 24.1463 13.0742 23.8335 12.6919 23.8335H10.6063V20.8442C14.3197 19.9984 17.0947 16.6789 17.0947 12.7106C17.0947 8.10508 13.3581 4.3685 8.75253 4.3685ZM8.75253 17.3451C6.19775 17.3451 4.11801 15.2654 4.11801 12.7106C4.11801 10.1558 6.19775 8.07611 8.75253 8.07611C11.3073 8.07611 13.387 10.1558 13.387 12.7106C13.387 15.2654 11.3073 17.3451 8.75253 17.3451Z" fill="black"/>
</g>
<defs>
<clipPath id="clip0_201_4059">
<rect width="33.3685" height="29.6609" fill="white" transform="translate(0.410522 0.660889)"/>
</clipPath>
</defs>
</svg>
