<svg width="31" height="31" viewBox="0 0 31 31" fill="none" xmlns="http://www.w3.org/2000/svg">
<g clip-path="url(#clip0_201_4061)">
<path d="M17.293 10.8568C17.293 6.25123 13.5564 2.51465 8.95089 2.51465C4.34534 2.51465 0.608765 6.25123 0.608765 10.8568C0.608765 14.8251 3.38368 18.1503 7.09708 18.9903V21.9796H5.01155C4.62921 21.9796 4.31638 22.2924 4.31638 22.6748V24.992C4.31638 25.3744 4.62921 25.6872 5.01155 25.6872H7.09708V27.7727C7.09708 28.1551 7.40991 28.4679 7.79226 28.4679H10.1095C10.4919 28.4679 10.8047 28.1551 10.8047 27.7727V25.6872H12.8902C13.2726 25.6872 13.5854 25.3744 13.5854 24.992V22.6748C13.5854 22.2924 13.2726 21.9796 12.8902 21.9796H10.8047V18.9903C14.5181 18.1503 17.293 14.8251 17.293 10.8568ZM4.31638 10.8568C4.31638 8.302 6.39611 6.22226 8.95089 6.22226C11.5057 6.22226 13.5854 8.302 13.5854 10.8568C13.5854 13.4115 11.5057 15.4913 8.95089 15.4913C6.39611 15.4913 4.31638 13.4115 4.31638 10.8568ZM23.7813 18.9903V21.9796H25.8669C26.2492 21.9796 26.562 22.2924 26.562 22.6748V24.992C26.562 25.3744 26.2492 25.6872 25.8669 25.6872H23.7813V27.7727C23.7813 28.1551 23.4685 28.4679 23.0862 28.4679H20.7689C20.3866 28.4679 20.0737 28.1551 20.0737 27.7727V25.6872H17.9882C17.6058 25.6872 17.293 25.3744 17.293 24.992V22.6748C17.293 22.2924 17.6058 21.9796 17.9882 21.9796H20.0737V18.9903C18.8456 18.7123 17.7217 18.1619 16.76 17.4088C17.5711 16.4414 18.2083 15.3233 18.6196 14.1009C19.4597 14.9583 20.6299 15.4913 21.9275 15.4913C24.4823 15.4913 26.562 13.4115 26.562 10.8568C26.562 8.302 24.4823 6.22226 21.9275 6.22226C20.6357 6.22226 19.4597 6.75523 18.6196 7.61261C18.2083 6.39026 17.5769 5.27218 16.76 4.30473C18.1852 3.18665 19.9752 2.51465 21.9275 2.51465C26.5331 2.51465 30.2697 6.25123 30.2697 10.8568C30.2697 14.8251 27.4947 18.1503 23.7813 18.9903Z" fill="black"/>
</g>
<defs>
<clipPath id="clip0_201_4061">
<rect width="29.6609" height="29.6609" fill="white" transform="translate(0.609009 0.660889)"/>
</clipPath>
</defs>
</svg>
