<svg width="27" height="31" viewBox="0 0 27 31" fill="none" xmlns="http://www.w3.org/2000/svg">
<g clip-path="url(#clip0_201_4053)">
<path d="M25.6605 14.5573L22.5755 9.92992V2.51469C22.5755 2.02303 22.3802 1.55151 22.0325 1.20386C21.6849 0.8562 21.2134 0.660889 20.7217 0.660889L18.8679 0.660889C18.5934 0.660974 18.3251 0.742221 18.0967 0.89441L16.6484 1.86024C15.6593 2.52152 14.4963 2.8745 13.3065 2.8745C12.1167 2.8745 10.9536 2.52152 9.96452 1.86024L8.51624 0.89441C8.28783 0.742221 8.01952 0.660974 7.74506 0.660889L5.89125 0.660889C5.39959 0.660889 4.92807 0.8562 4.58041 1.20386C4.23276 1.55151 4.03745 2.02303 4.03745 2.51469V9.92992L0.952481 14.5573C0.546479 15.1663 0.32983 15.8819 0.329834 16.6139L0.329834 28.468C0.329834 28.9596 0.525145 29.4312 0.872801 29.7788C1.22046 30.1265 1.69198 30.3218 2.18364 30.3218H11.4527V17.3451C11.4527 17.1459 11.4848 16.9479 11.5478 16.7589L12.3295 14.4138L9.03044 4.51704C10.3351 5.25583 11.8072 5.64813 13.3065 5.65655C14.8057 5.64802 16.2779 5.25568 17.5825 4.51692L13.3065 17.3451V30.3218H24.4293C24.921 30.3218 25.3925 30.1265 25.7401 29.7788C26.0878 29.4312 26.2831 28.9596 26.2831 28.468V16.6139C26.2831 15.8819 26.0665 15.1663 25.6605 14.5573ZM7.93692 22.1715L5.15622 24.9522C4.9814 25.1211 4.74726 25.2145 4.50423 25.2124C4.2612 25.2103 4.02872 25.1128 3.85687 24.9409C3.68501 24.7691 3.58753 24.5366 3.58542 24.2936C3.58331 24.0505 3.67673 23.8164 3.84558 23.6416L6.62628 20.8609C6.8011 20.692 7.03524 20.5986 7.27827 20.6007C7.5213 20.6028 7.75378 20.7003 7.92563 20.8722C8.09749 21.044 8.19497 21.2765 8.19708 21.5195C8.19919 21.7626 8.10577 21.9967 7.93692 22.1715ZM22.7674 24.9522C22.6813 25.0383 22.5792 25.1066 22.4667 25.1532C22.3543 25.1998 22.2338 25.2238 22.112 25.2238C21.9903 25.2238 21.8698 25.1998 21.7574 25.1532C21.6449 25.1066 21.5428 25.0383 21.4567 24.9522L18.676 22.1715C18.5072 21.9967 18.4137 21.7626 18.4159 21.5195C18.418 21.2765 18.5155 21.044 18.6873 20.8722C18.8592 20.7003 19.0916 20.6028 19.3347 20.6007C19.5777 20.5986 19.8118 20.692 19.9867 20.8609L22.7674 23.6416C22.8535 23.7276 22.9218 23.8298 22.9683 23.9422C23.0149 24.0547 23.0389 24.1752 23.0389 24.2969C23.0389 24.4186 23.0149 24.5391 22.9683 24.6516C22.9218 24.764 22.8535 24.8662 22.7674 24.9522Z" fill="black"/>
</g>
<defs>
<clipPath id="clip0_201_4053">
<rect width="25.9533" height="29.6609" fill="white" transform="translate(0.329834 0.660889)"/>
</clipPath>
</defs>
</svg>
