<svg width="27" height="31" viewBox="0 0 27 31" fill="none" xmlns="http://www.w3.org/2000/svg">
<g clip-path="url(#clip0_201_4055)">
<path d="M25.4435 14.5573L22.3586 9.92992V2.51469C22.3586 2.02303 22.1633 1.55151 21.8156 1.20386C21.468 0.8562 20.9964 0.660889 20.5048 0.660889H18.651C18.3765 0.660839 18.1081 0.742098 17.8798 0.89441L16.4315 1.86024C15.4424 2.52152 14.2793 2.8745 13.0896 2.8745C11.8998 2.8745 10.7367 2.52152 9.74761 1.86024L8.29932 0.89441C8.07097 0.742098 7.80262 0.660839 7.52814 0.660889H5.67433C5.18267 0.660889 4.71115 0.8562 4.36349 1.20386C4.01584 1.55151 3.82053 2.02303 3.82053 2.51469V9.92992L0.735562 14.5573C0.32956 15.1663 0.112911 15.8819 0.112915 16.6139L0.112915 28.468C0.112915 28.9596 0.308226 29.4312 0.655882 29.7788C1.00354 30.1265 1.47506 30.3218 1.96672 30.3218H11.2357V17.3451C11.2358 17.1459 11.2679 16.9479 11.3309 16.7589L12.1125 14.4138L8.81352 4.51686C10.1182 5.25557 11.5903 5.64792 13.0896 5.65655C14.5888 5.64804 16.0609 5.25578 17.3655 4.51715L13.0896 17.3451V30.3218H24.2124C24.704 30.3218 25.1756 30.1265 25.5232 29.7788C25.8709 29.4312 26.0662 28.9596 26.0662 28.468V16.6139C26.0662 15.8819 25.8495 15.1663 25.4435 14.5573ZM3.79156 16.4463C3.66316 16.3153 3.59168 16.1389 3.59269 15.9554C3.59369 15.772 3.66709 15.5964 3.79692 15.4668C3.92675 15.3372 4.1025 15.2642 4.28593 15.2635C4.46937 15.2628 4.64564 15.3346 4.77639 15.4633L5.67433 16.3612L6.57227 15.4633C6.70302 15.3346 6.8793 15.2628 7.06273 15.2635C7.24616 15.2642 7.42191 15.3372 7.55174 15.4668C7.68157 15.5964 7.75497 15.772 7.75598 15.9554C7.75698 16.1389 7.68551 16.3153 7.5571 16.4463L6.65824 17.3451L7.5571 18.244C7.68551 18.375 7.75698 18.5514 7.75598 18.7348C7.75497 18.9183 7.68157 19.0939 7.55174 19.2235C7.42191 19.3531 7.24616 19.4261 7.06273 19.4268C6.8793 19.4274 6.70302 19.3556 6.57227 19.227L5.67433 18.329L4.77639 19.227C4.64564 19.3556 4.46937 19.4274 4.28593 19.4268C4.1025 19.4261 3.92675 19.3531 3.79692 19.2235C3.66709 19.0939 3.59369 18.9183 3.59269 18.7348C3.59168 18.5514 3.66316 18.375 3.79156 18.244L4.69042 17.3451L3.79156 16.4463ZM5.67433 27.0776C5.21602 27.0776 4.768 26.9417 4.38693 26.6871C4.00586 26.4325 3.70885 26.0706 3.53347 25.6471C3.35808 25.2237 3.31219 24.7578 3.4016 24.3083C3.49101 23.8588 3.71171 23.4459 4.03578 23.1218C4.35986 22.7977 4.77275 22.577 5.22226 22.4876C5.67176 22.3982 6.13768 22.4441 6.56111 22.6195C6.98453 22.7949 7.34644 23.0919 7.60106 23.473C7.85568 23.854 7.99159 24.3021 7.99159 24.7604C7.99159 25.3749 7.74745 25.9643 7.31288 26.3989C6.87831 26.8335 6.28891 27.0776 5.67433 27.0776ZM20.9234 20.1134L18.1122 20.1258C18.0612 20.1261 18.0106 20.1162 17.9634 20.0968C17.9162 20.0773 17.8733 20.0487 17.8373 20.0127C17.8012 19.9766 17.7726 19.9337 17.7532 19.8865C17.7337 19.8393 17.7238 19.7887 17.7241 19.7377L17.7365 16.9237C17.7386 16.7241 17.782 16.5269 17.864 16.3448C17.9459 16.1627 18.0647 15.9995 18.2127 15.8655C18.3608 15.7316 18.535 15.6296 18.7244 15.5662C18.9138 15.5028 19.1142 15.4793 19.3131 15.4971C20.054 15.5644 20.5951 16.2282 20.5909 16.9697L20.5887 17.2626L20.8813 17.2605C21.6244 17.2585 22.2854 17.7978 22.3528 18.5394C22.3706 18.7384 22.3469 18.9389 22.2833 19.1283C22.2197 19.3177 22.1175 19.4919 21.9832 19.6398C21.8489 19.7877 21.6854 19.9061 21.503 19.9876C21.3206 20.0692 21.1232 20.112 20.9234 20.1134Z" fill="black"/>
</g>
<defs>
<clipPath id="clip0_201_4055">
<rect width="25.9533" height="29.6609" fill="white" transform="translate(0.113037 0.660889)"/>
</clipPath>
</defs>
</svg>
