<svg width="38" height="31" viewBox="0 0 38 31" fill="none" xmlns="http://www.w3.org/2000/svg">
<g clip-path="url(#clip0_201_4049)">
<path d="M4.95744 4.3685H6.34779V18.272C6.34779 20.8268 8.42753 22.9066 10.9823 22.9066C13.5371 22.9066 15.6168 20.8268 15.6168 18.272V4.3685H17.0072C17.2621 4.3685 17.4706 4.15995 17.4706 3.90505V1.12434C17.4706 0.869442 17.2621 0.660889 17.0072 0.660889H4.95744C4.70254 0.660889 4.49399 0.869442 4.49399 1.12434V3.90505C4.49399 4.15995 4.70254 4.3685 4.95744 4.3685ZM9.1285 4.3685H12.8361V9.92992H9.1285V4.3685ZM36.9356 26.6142H1.71328C1.20348 26.6142 0.786377 27.0313 0.786377 27.5411V29.3949C0.786377 29.9047 1.20348 30.3218 1.71328 30.3218H36.9356C37.4454 30.3218 37.8625 29.9047 37.8625 29.3949V27.5411C37.8625 27.0313 37.4454 26.6142 36.9356 26.6142ZM21.6417 4.3685H23.032V18.272C23.032 20.8268 25.1118 22.9066 27.6666 22.9066C30.2213 22.9066 32.3011 20.8268 32.3011 18.272V4.3685H33.6914C33.9463 4.3685 34.1549 4.15995 34.1549 3.90505V1.12434C34.1549 0.869442 33.9463 0.660889 33.6914 0.660889H21.6417C21.3868 0.660889 21.1782 0.869442 21.1782 1.12434V3.90505C21.1782 4.15995 21.3868 4.3685 21.6417 4.3685ZM25.8128 4.3685H29.5204V9.92992H25.8128V4.3685Z" fill="black"/>
</g>
<defs>
<clipPath id="clip0_201_4049">
<rect width="37.0761" height="29.6609" fill="white" transform="translate(0.786621 0.660889)"/>
</clipPath>
</defs>
</svg>
