<svg width="29" height="31" viewBox="0 0 29 31" fill="none" xmlns="http://www.w3.org/2000/svg">
<g clip-path="url(#clip0_201_4051)">
<path d="M28.3663 11.4419L18.6222 1.72099C18.4426 1.54141 18.1472 1.54141 17.9676 1.72099L15.9979 3.68487C15.8183 3.86446 15.8183 4.15991 15.9979 4.33949L16.6468 4.98253L2.60418 18.9961C0.356444 21.2381 -0.0085243 24.9051 2.05963 27.3093C3.25302 28.6997 4.92723 29.3948 6.60145 29.389C8.13084 29.389 9.66023 28.8097 10.8247 27.6453L25.0932 13.4116L25.742 14.0546C25.9216 14.2342 26.217 14.2342 26.3966 14.0546L28.3663 12.0907C28.5459 11.9169 28.5459 11.6215 28.3663 11.4419ZM19.1146 15.4913H10.0194L18.5933 6.93482L23.1409 11.4709L19.1146 15.4913Z" fill="black"/>
</g>
<defs>
<clipPath id="clip0_201_4051">
<rect width="27.8071" height="29.6609" fill="white" transform="translate(0.692627 0.660889)"/>
</clipPath>
</defs>
</svg>
