<svg width="38" height="31" viewBox="0 0 38 31" fill="none" xmlns="http://www.w3.org/2000/svg">
<g clip-path="url(#clip0_201_4047)">
<path d="M37.5976 27.1993L34.4113 24.7372C35.3035 24.6561 36.1029 23.9435 36.1029 22.9355V8.04715C36.1029 6.5699 34.4171 5.70672 33.1832 6.55252L26.8339 10.9321V18.8803L24.9801 17.4494V7.13763C24.9801 5.60824 23.7404 4.3685 22.211 4.3685H8.05832L3.5165 0.857859C3.11098 0.545029 2.53166 0.614547 2.21304 1.02007L1.07759 2.47994C0.764755 2.88546 0.834273 3.46477 1.23979 3.7776L3.35429 5.41127L24.9801 22.1303L35.3209 30.1248C35.7264 30.4376 36.3057 30.3681 36.6243 29.9626L37.7598 28.4969C38.0784 28.0972 38.0031 27.5121 37.5976 27.1993ZM2.73442 23.845C2.73442 25.3744 3.97416 26.6142 5.50355 26.6142H22.211C22.8598 26.6142 23.4507 26.3824 23.9257 26.0059L2.73442 9.62288V23.845Z" fill="black"/>
</g>
<defs>
<clipPath id="clip0_201_4047">
<rect width="37.0761" height="29.6609" fill="white" transform="translate(0.880371 0.660889)"/>
</clipPath>
</defs>
</svg>
