<svg width="34" height="30" viewBox="0 0 34 30" fill="none" xmlns="http://www.w3.org/2000/svg">
<g clip-path="url(#clip0_201_4025)">
<path d="M12.7268 4.11603L7.57261 9.26903H1.66013C0.891959 9.26903 0.269775 9.89121 0.269775 10.6594V19.0015C0.269775 19.7691 0.891959 20.3919 1.66013 20.3919H7.57261L12.7268 25.5449C13.5975 26.4156 15.1002 25.8038 15.1002 24.5618V5.09912C15.1002 3.85592 13.5963 3.24648 12.7268 4.11603ZM26.2433 1.15689C25.5962 0.732255 24.7267 0.911263 24.302 1.55952C23.8768 2.20661 24.0576 3.07616 24.7047 3.5008C28.5438 6.02024 30.835 10.2556 30.835 14.831C30.835 19.4065 28.5438 23.6418 24.7047 26.1613C24.0576 26.5853 23.8768 27.4554 24.302 28.102C24.7099 28.7224 25.5725 28.9454 26.2433 28.5046C30.8732 25.4655 33.6383 20.353 33.6383 14.8304C33.6383 9.30784 30.8732 4.19597 26.2433 1.15689ZM28.0769 14.8304C28.0769 11.1501 26.2196 7.76629 23.1081 5.77924C22.4598 5.36561 21.6001 5.55794 21.1894 6.21141C20.7787 6.86487 20.9704 7.72979 21.6187 8.144C23.9214 9.61488 25.2962 12.114 25.2962 14.8304C25.2962 17.5469 23.9214 20.046 21.6187 21.5169C20.9704 21.9305 20.7787 22.7954 21.1894 23.4495C21.5665 24.0497 22.4129 24.3266 23.1081 23.8817C26.2196 21.8946 28.0769 18.5114 28.0769 14.8304ZM19.8639 10.3773C19.1931 10.0106 18.3467 10.2521 17.9748 10.9247C17.6046 11.5973 17.8496 12.4425 18.5222 12.8139C19.2701 13.2246 19.7347 13.998 19.7347 14.8304C19.7347 15.6635 19.2701 16.4363 18.5228 16.847C17.8502 17.2184 17.6052 18.0636 17.9754 18.7362C18.3479 19.4117 19.1948 19.6515 19.8645 19.2836C21.4999 18.3828 22.516 16.6767 22.516 14.8299C22.516 12.983 21.4999 11.2775 19.8639 10.3773Z" fill="black"/>
</g>
<defs>
<clipPath id="clip0_201_4025">
<rect width="33.3685" height="29.6609" fill="white" transform="translate(0.269775)"/>
</clipPath>
</defs>
</svg>
