<svg width="19" height="30" viewBox="0 0 19 30" fill="none" xmlns="http://www.w3.org/2000/svg">
<g clip-path="url(#clip0_201_4019)">
<path d="M12.1397 5.56142C13.6749 5.56142 14.9204 4.31589 14.9204 2.78071C14.9204 1.24553 13.6749 0 12.1397 0C10.6045 0 9.35901 1.24553 9.35901 2.78071C9.35901 4.31589 10.6045 5.56142 12.1397 5.56142ZM17.6142 14.199L16.2644 13.5154L15.7025 11.8122C14.8509 9.22848 12.4757 7.42102 9.78191 7.41522C7.69638 7.40943 6.54354 8.00033 4.37691 8.87509C3.12559 9.3791 2.1002 10.335 1.49772 11.5515L1.10958 12.3394C0.65771 13.2547 1.02268 14.367 1.9322 14.8247C2.83593 15.2823 3.93663 14.9115 4.39429 13.9962L4.78243 13.2084C4.98519 12.8028 5.32119 12.4842 5.7383 12.3162L7.29086 11.6906L6.4103 15.207C6.10906 16.412 6.43347 17.6923 7.27348 18.6134L10.7436 22.4021C11.1607 22.8597 11.4561 23.4101 11.6068 24.0068L12.6669 28.2532C12.916 29.2438 13.924 29.8521 14.9146 29.603C15.9053 29.3539 16.5135 28.3458 16.2644 27.3552L14.9784 22.1993C14.8277 21.6026 14.5323 21.0465 14.1152 20.5946L11.4793 17.7154L12.4757 13.7355L12.7943 14.6914C13.1014 15.6241 13.7618 16.3946 14.6308 16.8349L15.9806 17.5185C16.8843 17.9761 17.985 17.6054 18.4427 16.69C18.8887 15.7805 18.5238 14.6567 17.6142 14.199ZM4.35374 22.3499C4.16835 22.8192 3.89028 23.2421 3.53111 23.5955L0.634538 26.4978C-0.089605 27.222 -0.089605 28.398 0.634538 29.1221C1.35868 29.8463 2.5289 29.8463 3.25304 29.1221L6.69416 25.681C7.04755 25.3276 7.32562 24.9047 7.51679 24.4355L8.29887 22.4774C5.09526 18.9841 6.05692 20.0559 5.55292 19.3665L4.35374 22.3499Z" fill="black"/>
</g>
<defs>
<clipPath id="clip0_201_4019">
<rect width="18.5381" height="29.6609" fill="white" transform="translate(0.0894775)"/>
</clipPath>
</defs>
</svg>
