<svg width="31" height="30" viewBox="0 0 31 30" fill="none" xmlns="http://www.w3.org/2000/svg">
<g clip-path="url(#clip0_201_4017)">
<path d="M27.3167 7.41524H5.23321C4.72109 7.41524 4.3063 7.00045 4.3063 6.48833C4.3063 5.97622 4.72109 5.56143 5.23321 5.56143H27.4789C27.991 5.56143 28.4058 5.14664 28.4058 4.63453C28.4058 3.09877 27.1608 1.85382 25.6251 1.85382H4.3063C2.25843 1.85382 0.598694 3.51356 0.598694 5.56143V24.0995C0.598694 26.1474 2.25843 27.8071 4.3063 27.8071H27.3167C28.9399 27.8071 30.2596 26.5598 30.2596 25.0264V10.1959C30.2596 8.6625 28.9399 7.41524 27.3167 7.41524ZM24.6982 19.465C23.6745 19.465 22.8444 18.6348 22.8444 17.6112C22.8444 16.5875 23.6745 15.7574 24.6982 15.7574C25.7218 15.7574 26.552 16.5875 26.552 17.6112C26.552 18.6348 25.7218 19.465 24.6982 19.465Z" fill="black"/>
</g>
<defs>
<clipPath id="clip0_201_4017">
<rect width="29.6609" height="29.6609" fill="white" transform="translate(0.598633)"/>
</clipPath>
</defs>
</svg>
