<svg width="38" height="30" viewBox="0 0 38 30" fill="none" xmlns="http://www.w3.org/2000/svg">
<g clip-path="url(#clip0_201_4015)">
<path d="M29.8899 20.3919H8.59435C8.33945 20.3919 8.1309 20.6004 8.1309 20.8553L8.12511 23.636C8.12511 23.8909 8.33366 24.0995 8.58856 24.0995H29.8899C30.1448 24.0995 30.3534 23.8909 30.3534 23.636V20.8553C30.3534 20.6004 30.1448 20.3919 29.8899 20.3919ZM29.8899 25.9533H8.57697C8.32207 25.9533 8.11352 26.1619 8.11352 26.4168L8.10773 29.1975C8.10773 29.4524 8.31628 29.6609 8.57118 29.6609H29.8899C30.1448 29.6609 30.3534 29.4524 30.3534 29.1975V26.4168C30.3534 26.1619 30.1448 25.9533 29.8899 25.9533ZM29.8899 14.8305H8.60594C8.35104 14.8305 8.14249 15.039 8.14249 15.2939L8.13669 18.0746C8.13669 18.3295 8.34525 18.5381 8.60014 18.5381H29.8899C30.1448 18.5381 30.3534 18.3295 30.3534 18.0746V15.2939C30.3534 15.039 30.1448 14.8305 29.8899 14.8305ZM36.0596 6.778L20.2965 0.214367C19.9577 0.0738127 19.5945 0.00146484 19.2277 0.00146484C18.8609 0.00146484 18.4976 0.0738127 18.1588 0.214367L2.40148 6.778C1.3703 7.21248 0.692505 8.22049 0.692505 9.34436V29.1975C0.692505 29.4524 0.901058 29.6609 1.15596 29.6609H5.79047C6.04537 29.6609 6.25392 29.4524 6.25392 29.1975V14.8305C6.25392 13.8109 7.09972 12.9767 8.14249 12.9767H30.3186C31.3614 12.9767 32.2072 13.8109 32.2072 14.8305V29.1975C32.2072 29.4524 32.4158 29.6609 32.6707 29.6609H37.3052C37.5601 29.6609 37.7686 29.4524 37.7686 29.1975V9.34436C37.7686 8.22049 37.0908 7.21248 36.0596 6.778Z" fill="black"/>
</g>
<defs>
<clipPath id="clip0_201_4015">
<rect width="37.0761" height="29.6609" fill="white" transform="translate(0.692505)"/>
</clipPath>
</defs>
</svg>
