<svg width="34" height="30" viewBox="0 0 34 30" fill="none" xmlns="http://www.w3.org/2000/svg">
<g clip-path="url(#clip0_201_4013)">
<path d="M33.0583 22.2399C31.8127 22.1009 30.6193 21.6316 29.704 20.9133C28.8872 20.2702 27.7228 20.2587 26.9117 20.9133C24.7161 22.6744 20.7015 22.6744 18.4711 20.8264C17.689 20.1776 16.5594 20.2992 15.7657 20.9307C13.5643 22.6744 9.57285 22.6686 7.35408 20.8322C6.572 20.1833 5.42496 20.3166 4.62551 20.948C3.72757 21.6548 2.53997 22.1125 1.28286 22.2457C0.825204 22.292 0.494995 22.6976 0.494995 23.1552V25.0206C0.494995 25.5478 0.935274 25.9939 1.46245 25.9475C3.13088 25.8027 4.7124 25.2871 6.06221 24.4471C9.33533 26.4515 13.9988 26.4226 17.185 24.4471C20.4582 26.4515 25.1216 26.4226 28.3079 24.4471C29.6577 25.2697 31.2566 25.7969 32.8903 25.9417C33.4174 25.9881 33.8577 25.542 33.8577 25.0148V23.1842C33.8635 22.7207 33.5275 22.292 33.0583 22.2399ZM33.0583 13.8978C31.8127 13.7587 30.6193 13.2895 29.704 12.5712C28.8872 11.9281 27.7228 11.9165 26.9117 12.5712C24.7161 14.3323 20.7015 14.3323 18.4711 12.4843C17.689 11.8354 16.5594 11.9571 15.7657 12.5885C13.5643 14.3323 9.57285 14.3265 7.35408 12.4901C6.572 11.8412 5.42496 11.9745 4.62551 12.6059C3.72757 13.3127 2.53997 13.7703 1.28286 13.9036C0.825204 13.9499 0.494995 14.3554 0.494995 14.8131V16.6785C0.494995 17.2057 0.935274 17.6517 1.46245 17.6054C3.13088 17.4606 4.7124 16.945 6.06221 16.105C9.33533 18.1094 13.9988 18.0804 17.185 16.105C20.4582 18.1094 25.1216 18.0804 28.3079 16.105C29.6577 16.9276 31.2566 17.4548 32.8903 17.5996C33.4174 17.6459 33.8577 17.1999 33.8577 16.6727V14.8421C33.8635 14.3786 33.5275 13.9499 33.0583 13.8978ZM33.0583 5.55566C31.8127 5.41083 30.6193 4.94738 29.704 4.22903C28.8872 3.58599 27.7228 3.57441 26.9117 4.22903C24.7161 5.99015 20.7015 5.99015 18.4711 4.14213C17.689 3.4933 16.5594 3.61496 15.7657 4.24641C13.5643 5.99015 9.57285 5.98435 7.35408 4.14793C6.572 3.49909 5.42496 3.63234 4.62551 4.26379C3.72757 4.97055 2.53997 5.42821 1.28286 5.56145C0.825204 5.6078 0.494995 6.01332 0.494995 6.47098V8.33637C0.494995 8.86354 0.935274 9.30962 1.46245 9.26327C3.13088 9.11844 4.7124 8.60285 6.06221 7.76285C9.33533 9.76727 13.9988 9.73831 17.185 7.76285C20.4582 9.76727 25.1216 9.73831 28.3079 7.76285C29.6577 8.58547 31.2566 9.11265 32.8903 9.25748C33.4174 9.30382 33.8577 8.85775 33.8577 8.33058V6.49994C33.8635 6.03649 33.5275 5.6078 33.0583 5.55566Z" fill="black"/>
</g>
<defs>
<clipPath id="clip0_201_4013">
<rect width="33.3685" height="29.6609" fill="white" transform="translate(0.494019)"/>
</clipPath>
</defs>
</svg>
