<svg width="38" height="30" viewBox="0 0 38 30" fill="none" xmlns="http://www.w3.org/2000/svg">
<g clip-path="url(#clip0_201_4011)">
<path d="M28.1632 27.8071H19.3577C18.8046 27.8071 18.2741 27.5874 17.883 27.1963C17.4919 26.8051 17.2721 26.2747 17.2721 25.7216V5.56143H11.7107V14.5987C11.7107 15.1519 11.491 15.6823 11.0999 16.0734C10.7088 16.4645 10.1783 16.6843 9.62519 16.6843H1.51479C1.26896 16.6843 1.0332 16.5866 0.859374 16.4128C0.685546 16.239 0.587891 16.0032 0.587891 15.7574V13.9036C0.587891 13.6577 0.685546 13.422 0.859374 13.2481C1.0332 13.0743 1.26896 12.9767 1.51479 12.9767H8.00311V3.93935C8.00311 3.38623 8.22284 2.85577 8.61395 2.46466C9.00506 2.07355 9.53553 1.85382 10.0886 1.85382H18.8942C19.4473 1.85382 19.9778 2.07355 20.3689 2.46466C20.76 2.85577 20.9798 3.38623 20.9798 3.93935V24.0995H26.5412V15.0622C26.5412 14.5091 26.7609 13.9786 27.152 13.5875C27.5431 13.1964 28.0736 12.9767 28.6267 12.9767H36.7371C36.9829 12.9767 37.2187 13.0743 37.3925 13.2481C37.5663 13.422 37.664 13.6577 37.664 13.9036V15.7574C37.664 16.0032 37.5663 16.239 37.3925 16.4128C37.2187 16.5866 36.9829 16.6843 36.7371 16.6843H30.2488V25.7216C30.2488 26.2747 30.0291 26.8051 29.6379 27.1963C29.2468 27.5874 28.7164 27.8071 28.1632 27.8071Z" fill="black"/>
</g>
<defs>
<clipPath id="clip0_201_4011">
<rect width="37.0761" height="29.6609" fill="white" transform="translate(0.587891)"/>
</clipPath>
</defs>
</svg>
