<svg width="31" height="30" viewBox="0 0 31 30" fill="none" xmlns="http://www.w3.org/2000/svg">
<g clip-path="url(#clip0_201_4007)">
<path d="M26.5592 3.70767H25.0542C26.0054 5.34597 26.5592 7.24207 26.5592 9.26909C26.5592 15.4023 21.5696 20.3919 15.4364 20.3919C9.3032 20.3919 4.31357 15.4023 4.31357 9.26909C4.31357 7.24207 4.86739 5.34597 5.81863 3.70767H4.31357C2.26917 3.70767 0.605957 5.37088 0.605957 7.41528V25.9533C0.605957 27.9977 2.26917 29.6609 4.31357 29.6609H26.5592C28.6036 29.6609 30.2668 27.9977 30.2668 25.9533V7.41528C30.2668 5.37088 28.6036 3.70767 26.5592 3.70767ZM15.4364 18.5381C20.5558 18.5381 24.7054 14.3885 24.7054 9.26909C24.7054 4.14969 20.5558 6.10352e-05 15.4364 6.10352e-05C10.317 6.10352e-05 6.16737 4.14969 6.16737 9.26909C6.16737 14.3885 10.317 18.5381 15.4364 18.5381ZM15.419 9.73602L17.3644 5.19651C17.5671 4.72321 18.114 4.50597 18.5827 4.70931C19.0531 4.91091 19.2709 5.45604 19.0699 5.92587L17.1193 10.4764C17.5063 10.8912 17.7537 11.4386 17.7537 12.0498C17.7537 13.3295 16.7161 14.3671 15.4364 14.3671C14.1567 14.3671 13.1191 13.3295 13.1191 12.0498C13.1191 10.7765 14.148 9.74586 15.419 9.73602Z" fill="black"/>
</g>
<defs>
<clipPath id="clip0_201_4007">
<rect width="29.6609" height="29.6609" fill="white" transform="translate(0.606201)"/>
</clipPath>
</defs>
</svg>
