<svg width="30" height="30" viewBox="0 0 30 30" fill="none" xmlns="http://www.w3.org/2000/svg">
<g clip-path="url(#clip0_201_4005)">
<path d="M28.8551 22.3424L29.6793 24.0028C29.9069 24.4614 29.7196 25.0176 29.2611 25.2452L25.4686 27.1503C24.5389 27.6119 23.4088 27.2195 22.9666 26.2782L19.3299 18.5381H11.2381C10.3155 18.5381 9.53338 17.8597 9.40286 16.9464C7.43968 3.20407 7.55247 4.05775 7.53046 3.70761C7.53046 1.60134 9.28682 -0.0947202 11.4149 0.00411077C13.3423 0.0936148 14.8935 1.67862 14.9443 3.6075C14.9946 5.51536 13.6031 7.10789 11.7808 7.37531L12.0514 9.26908H19.5802C20.0921 9.26908 20.5071 9.68405 20.5071 10.196V12.0498C20.5071 12.5617 20.0921 12.9767 19.5802 12.9767H12.581L12.8459 14.8305H20.5071C20.8591 14.8305 21.2037 14.9307 21.5009 15.1194C21.798 15.3081 22.0352 15.5774 22.1849 15.896L25.5168 22.9872L27.6127 21.9242C28.0712 21.6966 28.6275 21.8838 28.8551 22.3424ZM18.1526 20.3919H16.733C16.2818 23.532 13.5741 25.9533 10.3112 25.9533C6.73349 25.9533 3.82285 23.0426 3.82285 19.465C3.82285 17.0605 5.13754 14.9574 7.08577 13.8366C6.87073 12.3324 6.68929 11.064 6.53612 9.9938C2.77753 11.4973 0.115234 15.1759 0.115234 19.465C0.115234 25.087 4.68909 29.6609 10.3112 29.6609C14.4747 29.6609 18.0627 27.152 19.6445 23.567L18.1526 20.3919Z" fill="black"/>
</g>
<defs>
<clipPath id="clip0_201_4005">
<rect width="29.6609" height="29.6609" fill="white" transform="translate(0.115234)"/>
</clipPath>
</defs>
</svg>
