<svg width="38" height="30" viewBox="0 0 38 30" fill="none" xmlns="http://www.w3.org/2000/svg">
<g clip-path="url(#clip0_201_4003)">
<path d="M36.9903 8.97243C26.7266 -0.520788 10.7636 -0.517312 0.503928 8.97243C0.118105 9.32929 0.110574 9.93352 0.483652 10.3037L2.46722 12.2716C2.82292 12.625 3.39529 12.6325 3.76489 12.2936C12.2182 4.54937 25.2748 4.54763 33.7299 12.2936C34.0995 12.6325 34.6719 12.6244 35.0276 12.2716L37.0112 10.3037C37.3837 9.93352 37.3761 9.32929 36.9903 8.97243ZM18.7471 20.3919C16.6992 20.3919 15.0395 22.0516 15.0395 24.0995C15.0395 26.1474 16.6992 27.8071 18.7471 27.8071C20.795 27.8071 22.4547 26.1474 22.4547 24.0995C22.4547 22.0516 20.795 20.3919 18.7471 20.3919ZM30.4881 15.5494C23.8109 9.64444 13.6758 9.65081 7.00615 15.5494C6.60642 15.9028 6.59368 16.5163 6.97313 16.8905L8.96829 18.8596C9.31588 19.2025 9.87549 19.2257 10.2457 18.9059C15.109 14.7019 22.3962 14.7111 27.248 18.9059C27.6182 19.2257 28.1778 19.2031 28.5254 18.8596L30.5205 16.8905C30.9005 16.5163 30.8872 15.9022 30.4881 15.5494Z" fill="black"/>
</g>
<defs>
<clipPath id="clip0_201_4003">
<rect width="37.0761" height="29.6609" fill="white" transform="translate(0.209106)"/>
</clipPath>
</defs>
</svg>
