<svg width="30" height="30" viewBox="0 0 30 30" fill="none" xmlns="http://www.w3.org/2000/svg">
<g clip-path="url(#clip0_201_3999)">
<path d="M27.1074 1.85382H3.00788C1.4727 1.85382 0.227173 3.09935 0.227173 4.63453V25.0264C0.227173 26.5616 1.4727 27.8071 3.00788 27.8071H27.1074C28.6425 27.8071 29.8881 26.5616 29.8881 25.0264V4.63453C29.8881 3.09935 28.6425 1.85382 27.1074 1.85382ZM22.2643 18.6829C22.5424 18.961 22.5424 19.4128 22.2643 19.6909L19.9181 22.0371C19.64 22.3152 19.1881 22.3152 18.9101 22.0371L15.0576 18.1499L11.2052 22.0371C10.9271 22.3152 10.4752 22.3152 10.1972 22.0371L7.85095 19.6909C7.57288 19.4128 7.57288 18.961 7.85095 18.6829L11.7381 14.8305L7.85095 10.978C7.57288 10.6999 7.57288 10.2481 7.85095 9.97001L10.1972 7.62379C10.4752 7.34572 10.9271 7.34572 11.2052 7.62379L15.0576 11.511L18.9101 7.62379C19.1881 7.34572 19.64 7.34572 19.9181 7.62379L22.2643 9.97001C22.5424 10.2481 22.5424 10.6999 22.2643 10.978L18.3771 14.8305L22.2643 18.6829Z" fill="black"/>
</g>
<defs>
<clipPath id="clip0_201_3999">
<rect width="29.6609" height="29.6609" fill="white" transform="translate(0.227295)"/>
</clipPath>
</defs>
</svg>
