<svg width="31" height="30" viewBox="0 0 31 30" fill="none" xmlns="http://www.w3.org/2000/svg">
<g clip-path="url(#clip0_201_3993)">
<path d="M30.4155 2.78071V19.465C30.4155 21.0001 29.17 22.2457 27.6348 22.2457H24.8541V10.1959C24.8541 7.64115 22.7744 5.56142 20.2196 5.56142H8.16986V2.78071C8.16986 1.24553 9.41539 0 10.9506 0H27.6348C29.17 0 30.4155 1.24553 30.4155 2.78071ZM23.0003 10.1959V26.8802C23.0003 28.4154 21.7548 29.6609 20.2196 29.6609H3.53535C2.00016 29.6609 0.754639 28.4154 0.754639 26.8802V10.1959C0.754639 8.66075 2.00016 7.41522 3.53535 7.41522H20.2196C21.7548 7.41522 23.0003 8.66075 23.0003 10.1959ZM19.061 11.818C19.061 11.4357 18.7481 11.1228 18.3658 11.1228H5.15743C4.77508 11.1228 4.46225 11.4357 4.46225 11.818V14.8304H19.061V11.818Z" fill="black"/>
</g>
<defs>
<clipPath id="clip0_201_3993">
<rect width="29.6609" height="29.6609" fill="white" transform="translate(0.754639)"/>
</clipPath>
</defs>
</svg>
