<svg width="30" height="30" viewBox="0 0 30 30" fill="none" xmlns="http://www.w3.org/2000/svg">
<g clip-path="url(#clip0_201_3991)">
<path d="M29.6527 4.20418L25.7203 0.271798C25.3582 -0.0902737 24.7714 -0.0902737 24.4093 0.271798L23.0983 1.58279C22.7362 1.94486 22.7362 2.5317 23.0983 2.89377L18.6567 7.33538C15.9583 6.19413 12.7245 6.71377 10.5249 8.91285L1.3497 18.088C-0.0980105 19.5357 -0.0980105 21.8837 1.3497 23.3314L6.59307 28.5748C8.04078 30.0225 10.3887 30.0225 11.8364 28.5748L21.0122 19.399C23.2113 17.1999 23.7309 13.9656 22.5897 11.2672L27.0313 6.82558C27.3933 7.18765 27.9802 7.18765 28.3423 6.82558L29.6533 5.51459C30.0147 5.1531 30.0147 4.56625 29.6527 4.20418ZM10.646 24.5219L5.40258 19.2785L12.4725 12.2086L17.7159 17.4519L10.646 24.5219Z" fill="black"/>
</g>
<defs>
<clipPath id="clip0_201_3991">
<rect width="29.6609" height="29.6609" fill="white" transform="translate(0.263672)"/>
</clipPath>
</defs>
</svg>
