<svg width="18" height="30" viewBox="0 0 18 30" fill="none" xmlns="http://www.w3.org/2000/svg">
<g clip-path="url(#clip0_201_3989)">
<path d="M13.2634 26.8802H10.9462V20.0912C14.9127 19.1707 17.785 15.4619 17.3997 11.1605L16.4757 0.842902C16.4329 0.365547 16.0383 0 15.5656 0H2.61911C2.14697 0 1.75187 0.365547 1.70958 0.842902L0.784998 11.1611C0.399754 15.4625 3.27199 19.1712 7.23856 20.0918V26.8802H4.9213C3.6416 26.8802 2.60404 27.9177 2.60404 29.1974C2.60404 29.4535 2.81144 29.6609 3.0675 29.6609H15.1172C15.3733 29.6609 15.5807 29.4535 15.5807 29.1974C15.5807 27.9177 14.5431 26.8802 13.2634 26.8802ZM4.3275 2.78071H13.8572L14.2726 7.41522H3.91214L4.3275 2.78071Z" fill="black"/>
</g>
<defs>
<clipPath id="clip0_201_3989">
<rect width="16.6842" height="29.6609" fill="white" transform="translate(0.74939)"/>
</clipPath>
</defs>
</svg>
