<svg width="34" height="30" viewBox="0 0 34 30" fill="none" xmlns="http://www.w3.org/2000/svg">
<g clip-path="url(#clip0_201_3985)">
<path d="M32.7098 11.1228C33.0922 11.1228 33.405 10.81 33.405 10.4276V8.11039C33.405 7.72804 33.0922 7.41521 32.7098 7.41521H29.9291L31.0066 2.74594C31.1051 2.31145 30.7749 1.89435 30.3288 1.89435H27.6582C27.328 1.89435 27.0441 2.12607 26.9804 2.4447L26.1462 7.41521H19.7795L18.6383 2.43311C18.563 2.11449 18.2849 1.89435 17.9605 1.89435H15.4115C15.0871 1.89435 14.809 2.11449 14.7337 2.43311L13.5751 7.41521H7.27793L6.26413 2.45049C6.2004 2.12607 5.91075 1.89435 5.58054 1.89435H3.14162C2.69555 1.89435 2.36534 2.30566 2.46383 2.74015L3.51238 7.41521H0.731676C0.349329 7.41521 0.036499 7.72804 0.036499 8.11039V10.4276C0.036499 10.81 0.349329 11.1228 0.731676 11.1228H4.3408L4.75791 12.9766H0.731676C0.349329 12.9766 0.036499 13.2895 0.036499 13.6718V15.9891C0.036499 16.3714 0.349329 16.6842 0.731676 16.6842H5.59212L7.96152 27.2625C8.03104 27.5811 8.3149 27.8071 8.63932 27.8071H11.9298C12.2542 27.8071 12.5323 27.5811 12.6076 27.2683L15.0581 16.6842H18.2501L20.7064 27.2683C20.7817 27.5811 21.0598 27.8071 21.3842 27.8071H24.6747C24.9991 27.8071 25.2772 27.5811 25.3525 27.2683L27.7914 16.6842H32.7098C33.0922 16.6842 33.405 16.3714 33.405 15.9891V13.6718C33.405 13.2895 33.0922 12.9766 32.7098 12.9766H28.6488L29.0775 11.1228H32.7098ZM10.6843 19.8125C10.3251 21.3072 10.2904 22.5469 10.2614 22.5469H10.1977C10.1977 22.5469 10.0992 21.2724 9.80374 19.8125L9.16649 16.6842H11.4142L10.6843 19.8125ZM12.2774 12.9766H8.40759L8.03104 11.1228H12.7119L12.2774 12.9766ZM15.9213 12.9766L16.0372 12.4784C16.1472 12.015 16.2399 11.5515 16.3152 11.1228H16.9988C17.0741 11.5515 17.1668 12.015 17.2769 12.4784L17.3928 12.9766H15.9213ZM23.5045 19.8125C23.2091 21.2724 23.1106 22.5469 23.1106 22.5469H23.0469C23.0121 22.5469 22.9831 21.3072 22.624 19.8125L21.9056 16.6842H24.1707L23.5045 19.8125ZM24.9644 12.9766H21.0598L20.6369 11.1228H25.3641L24.9644 12.9766Z" fill="black"/>
</g>
<defs>
<clipPath id="clip0_201_3985">
<rect width="33.3685" height="29.6609" fill="white" transform="translate(0.0366211)"/>
</clipPath>
</defs>
</svg>
