<svg width="38" height="30" viewBox="0 0 38 30" fill="none" xmlns="http://www.w3.org/2000/svg">
<g clip-path="url(#clip0_201_3981)">
<path d="M14.5432 22.2457C14.0334 22.2457 13.6163 22.6628 13.6163 23.1726C13.6163 23.6824 14.0334 24.0995 14.5432 24.0995C15.053 24.0995 15.4701 23.6824 15.4701 23.1726C15.4701 22.6628 15.053 22.2457 14.5432 22.2457ZM23.8122 24.0995C24.322 24.0995 24.7391 23.6824 24.7391 23.1726C24.7391 22.6628 24.322 22.2457 23.8122 22.2457C23.3024 22.2457 22.8853 22.6628 22.8853 23.1726C22.8853 23.6824 23.3024 24.0995 23.8122 24.0995ZM36.7889 0H1.56655C1.05675 0 0.639648 0.417106 0.639648 0.926903V2.78071C0.639648 3.2905 1.05675 3.70761 1.56655 3.70761H36.7889C37.2987 3.70761 37.7158 3.2905 37.7158 2.78071V0.926903C37.7158 0.417106 37.2987 0 36.7889 0ZM36.7889 25.9533H34.0081V5.56142H4.34726V25.9533H1.56655C1.05675 25.9533 0.639648 26.3704 0.639648 26.8802V28.734C0.639648 29.2438 1.05675 29.6609 1.56655 29.6609H36.7889C37.2987 29.6609 37.7158 29.2438 37.7158 28.734V26.8802C37.7158 26.3704 37.2987 25.9533 36.7889 25.9533ZM28.4467 14.367C28.4467 14.6219 28.2382 14.8304 27.9833 14.8304H20.1046V16.6842H26.1295C26.3844 16.6842 26.5929 16.8928 26.5929 17.1477V18.0746C26.5929 18.3295 26.3844 18.5381 26.1295 18.5381H20.1046V20.3919H23.8122C25.3474 20.3919 26.5929 21.6374 26.5929 23.1726C26.5929 24.7078 25.3474 25.9533 23.8122 25.9533C22.277 25.9533 21.0315 24.7078 21.0315 23.1726V22.2457H17.3239V23.1726C17.3239 24.7078 16.0784 25.9533 14.5432 25.9533C13.008 25.9533 11.7625 24.7078 11.7625 23.1726C11.7625 21.6374 13.008 20.3919 14.5432 20.3919H18.2508V18.5381H12.2259C11.971 18.5381 11.7625 18.3295 11.7625 18.0746V17.1477C11.7625 16.8928 11.971 16.6842 12.2259 16.6842H18.2508V14.8304H10.3721C10.1172 14.8304 9.90868 14.6219 9.90868 14.367V13.4401C9.90868 13.1852 10.1172 12.9766 10.3721 12.9766H18.2508V11.1228H12.2259C11.971 11.1228 11.7625 10.9143 11.7625 10.6594V9.73248C11.7625 9.47758 11.971 9.26903 12.2259 9.26903H18.2508V7.87867C18.2508 7.62378 18.4594 7.41522 18.7143 7.41522H19.6412C19.8961 7.41522 20.1046 7.62378 20.1046 7.87867V9.26903H26.1295C26.3844 9.26903 26.5929 9.47758 26.5929 9.73248V10.6594C26.5929 10.9143 26.3844 11.1228 26.1295 11.1228H20.1046V12.9766H27.9833C28.2382 12.9766 28.4467 13.1852 28.4467 13.4401V14.367Z" fill="black"/>
</g>
<defs>
<clipPath id="clip0_201_3981">
<rect width="37.0761" height="29.6609" fill="white" transform="translate(0.639648)"/>
</clipPath>
</defs>
</svg>
