<svg width="23" height="30" viewBox="0 0 23 30" fill="none" xmlns="http://www.w3.org/2000/svg">
<path d="M20.9099 1.85382H17.127C16.8605 1.85382 16.6172 2.00444 16.5013 2.24196L13.2919 8.7998C12.4519 10.81 11.722 12.9651 11.722 12.9651H11.6467C11.6467 12.9651 10.9168 10.81 10.0768 8.7998L6.86735 2.24196C6.75149 2.00444 6.50818 1.85382 6.24169 1.85382H2.46457C1.93739 1.85382 1.60718 2.41576 1.85049 2.87341L6.4908 11.5863H3.1134C2.73105 11.5863 2.41822 11.8991 2.41822 12.2815V14.1353C2.41822 14.5176 2.73105 14.8305 3.1134 14.8305H8.22295L9.36999 16.9855V18.5381H3.1134C2.73105 18.5381 2.41822 18.8509 2.41822 19.2332V21.0871C2.41822 21.4694 2.73105 21.7822 3.1134 21.7822H9.36999V27.1119C9.36999 27.4943 9.68282 27.8071 10.0652 27.8071H13.3093C13.6917 27.8071 14.0045 27.4943 14.0045 27.1119V21.7822H20.2611C20.6434 21.7822 20.9563 21.4694 20.9563 21.0871V19.2332C20.9563 18.8509 20.6434 18.5381 20.2611 18.5381H14.0045V16.9855L15.1515 14.8305H20.2611C20.6434 14.8305 20.9563 14.5176 20.9563 14.1353V12.2815C20.9563 11.8991 20.6434 11.5863 20.2611 11.5863H16.8837L21.524 2.87341C21.7731 2.41576 21.4371 1.85382 20.9099 1.85382Z" fill="black"/>
</svg>
