<svg width="29" height="30" viewBox="0 0 29 30" fill="none" xmlns="http://www.w3.org/2000/svg">
<g clip-path="url(#clip0_201_3977)">
<path d="M14.367 0.46344C6.43213 0.46344 0 6.89557 0 14.8304C0 22.7653 6.43213 29.1974 14.367 29.1974C22.3019 29.1974 28.734 22.7653 28.734 14.8304C28.734 6.89557 22.3019 0.46344 14.367 0.46344ZM14.367 22.2457C13.3433 22.2457 12.5132 21.4155 12.5132 20.3919C12.5132 19.3682 13.3433 18.538 14.367 18.538C15.3906 18.538 16.2208 19.3682 16.2208 20.3919C16.2208 21.4155 15.3906 22.2457 14.367 22.2457ZM14.367 14.8304C11.2955 14.8304 8.80558 17.3203 8.80558 20.3919C8.80558 23.4634 11.2955 25.9533 14.367 25.9533C8.22395 25.9533 3.24416 20.9735 3.24416 14.8304C3.24416 8.68739 8.22395 3.7076 14.367 3.7076C17.4385 3.7076 19.9284 6.19749 19.9284 9.26902C19.9284 12.3405 17.4385 14.8304 14.367 14.8304ZM14.367 7.41521C13.3433 7.41521 12.5132 8.24537 12.5132 9.26902C12.5132 10.2927 13.3433 11.1228 14.367 11.1228C15.3906 11.1228 16.2208 10.2927 16.2208 9.26902C16.2208 8.24537 15.3906 7.41521 14.367 7.41521Z" fill="black"/>
</g>
<defs>
<clipPath id="clip0_201_3977">
<rect width="28.734" height="29.6609" fill="white"/>
</clipPath>
</defs>
</svg>
