<svg width="24" height="24" viewBox="0 0 24 24" fill="none" xmlns="http://www.w3.org/2000/svg">
<path d="M8.43395 20.566C9.76895 20.566 11.0249 20.046 11.9689 19.102L19.1029 11.969C20.0388 11.0301 20.5643 9.75847 20.5641 8.43281C20.5639 7.10714 20.0381 5.83564 19.1019 4.89701C18.6385 4.43155 18.0874 4.06259 17.4804 3.81147C16.8735 3.56035 16.2228 3.43206 15.5659 3.43401C14.2309 3.43401 12.9759 3.95401 12.0319 4.89801L4.89795 12.031C3.96229 12.9699 3.43683 14.2413 3.43665 15.5668C3.43646 16.8923 3.96156 18.1639 4.89695 19.103C5.36058 19.5685 5.91188 19.9375 6.51899 20.1886C7.1261 20.4397 7.77696 20.568 8.43395 20.566ZM13.4449 6.31201C13.7227 6.03278 14.0531 5.81141 14.417 5.6607C14.7809 5.51 15.1711 5.43295 15.5649 5.43401C16.3669 5.43401 17.1209 5.74601 17.6869 6.31201C18.2488 6.87502 18.5645 7.63789 18.5647 8.43331C18.5648 9.22872 18.2496 9.99174 17.6879 10.555L14.7949 13.447L10.5529 9.20301L13.4449 6.31201Z" fill="black"/>
</svg>
