<svg width="24" height="24" viewBox="0 0 24 24" fill="none" xmlns="http://www.w3.org/2000/svg">
<path d="M20.772 13.155L19.404 9.05101C19.2056 8.45349 18.8238 7.93371 18.3131 7.56551C17.8024 7.19732 17.1886 6.99945 16.559 7.00001H7.441C6.81139 6.99945 6.19761 7.19732 5.68688 7.56551C5.17615 7.93371 4.79445 8.45349 4.596 9.05101L3.228 13.155C2.8643 13.3073 2.55371 13.5637 2.33523 13.892C2.11676 14.2202 2.00013 14.6057 2 15V18C2 18.738 2.404 19.376 3 19.723V21C3 21.2652 3.10536 21.5196 3.29289 21.7071C3.48043 21.8946 3.73478 22 4 22H5C5.26522 22 5.51957 21.8946 5.70711 21.7071C5.89464 21.5196 6 21.2652 6 21V20H18V21C18 21.2652 18.1054 21.5196 18.2929 21.7071C18.4804 21.8946 18.7348 22 19 22H20C20.2652 22 20.5196 21.8946 20.7071 21.7071C20.8946 21.5196 21 21.2652 21 21V19.723C21.3034 19.549 21.5556 19.2981 21.7311 18.9956C21.9067 18.6932 21.9994 18.3497 22 18V15C22 14.169 21.493 13.458 20.772 13.155ZM7.441 9.00001H16.558C16.768 8.99996 16.9726 9.066 17.143 9.18876C17.3133 9.31153 17.4407 9.4848 17.507 9.68401L18.613 13H5.387L6.492 9.68401C6.629 9.27501 7.011 9.00001 7.441 9.00001ZM5.5 18C5.30295 17.9999 5.10785 17.9611 4.92582 17.8856C4.7438 17.8101 4.57842 17.6995 4.43913 17.5602C4.15783 17.2787 3.99987 16.897 4 16.499C4.00013 16.101 4.15835 15.7194 4.43984 15.4381C4.72133 15.1568 5.10304 14.9989 5.501 14.999C5.89896 14.9991 6.28056 15.1574 6.56187 15.4388C6.84317 15.7203 7.00113 16.102 7.001 16.5C7.00087 16.898 6.84265 17.2796 6.56116 17.5609C6.27967 17.8422 5.89796 18.0001 5.5 18ZM18.5 18C18.102 17.9999 17.7204 17.8417 17.4391 17.5602C17.1578 17.2787 16.9999 16.897 17 16.499C17.0001 16.101 17.1583 15.7194 17.4398 15.4381C17.7213 15.1568 18.103 14.9989 18.501 14.999C18.899 14.9991 19.2806 15.1574 19.5619 15.4388C19.8432 15.7203 20.0011 16.102 20.001 16.5C20.0009 16.898 19.8427 17.2796 19.5612 17.5609C19.2797 17.8422 18.898 18.0001 18.5 18ZM9 4.37801C9.005 3.29001 7.963 2.32701 7.613 2.03401C7.58118 2.00695 7.54077 1.9921 7.499 1.9921C7.45723 1.9921 7.41682 2.00695 7.385 2.03401C7.033 2.32501 5.995 3.27101 6 4.37701C6 5.27201 6.673 6.00001 7.5 6.00001C8.327 6.00001 9 5.27201 9 4.37801ZM13.5 4.37801C13.505 3.29001 12.463 2.32601 12.113 2.03401C12.0812 2.00695 12.0408 1.9921 11.999 1.9921C11.9572 1.9921 11.9168 2.00695 11.885 2.03401C11.532 2.32501 10.494 3.27201 10.499 4.37801C10.5 5.27201 11.173 6.00001 12 6.00001C12.827 6.00001 13.5 5.27201 13.5 4.37801ZM18 4.37801C18.005 3.29001 16.963 2.32601 16.613 2.03401C16.5812 2.00695 16.5408 1.9921 16.499 1.9921C16.4572 1.9921 16.4168 2.00695 16.385 2.03401C16.033 2.32501 14.995 3.27101 15 4.37701C15 5.27201 15.673 6.00001 16.5 6.00001C17.327 6.00001 18 5.27201 18 4.37801Z" fill="black"/>
</svg>
