<svg width="24" height="24" viewBox="0 0 24 24" fill="none" xmlns="http://www.w3.org/2000/svg">
<path d="M19.9999 14C19.9079 14.064 17.9999 16.083 17.9999 17.5C17.9999 18.994 18.9489 19.948 19.9999 20C20.9059 20.044 21.9999 19.109 21.9999 17.5C21.9999 16 20.0919 14.064 19.9999 14ZM9.58594 20C9.96394 20.378 10.4659 20.586 10.9999 20.586C11.5339 20.586 12.0359 20.378 12.4139 20L19.4139 13L18.7069 12.293L10.9999 4.586L8.70694 2.293L7.29294 3.707L9.58594 6L3.99994 11.586C3.62194 11.964 3.41394 12.466 3.41394 13C3.41394 13.534 3.62194 14.036 3.99994 14.414L9.58594 20ZM10.9999 7.414L16.5859 13H5.41394L10.9999 7.414Z" fill="black"/>
</svg>
