<svg width="24" height="24" viewBox="0 0 24 24" fill="none" xmlns="http://www.w3.org/2000/svg">
<path d="M11.445 21.832C11.6093 21.9416 11.8024 22.0001 12 22.0001C12.1975 22.0001 12.3906 21.9416 12.555 21.832L21.555 15.832C21.6683 15.7567 21.7651 15.6591 21.8393 15.545C21.9135 15.431 21.9637 15.303 21.9866 15.1689C22.0096 15.0347 22.0048 14.8974 21.9727 14.7651C21.9406 14.6329 21.8818 14.5086 21.8 14.4L12.8 2.39997C12.423 1.89597 11.577 1.89597 11.2 2.39997L2.19995 14.4C2.11835 14.5087 2.05979 14.633 2.02785 14.7652C1.99591 14.8974 1.99127 15.0347 2.0142 15.1687C2.03713 15.3027 2.08716 15.4307 2.16122 15.5447C2.23529 15.6588 2.33183 15.7565 2.44495 15.832L11.445 21.832ZM19.565 14.754L12 19.798V4.66697L19.565 14.754Z" fill="black"/>
</svg>
