<svg width="24" height="24" viewBox="0 0 24 24" fill="none" xmlns="http://www.w3.org/2000/svg">
<path d="M10.9999 17.916V20H8.99991V22H14.9999V20H12.9999V17.916C16.1619 17.514 18.8489 15.256 19.7129 12.123C19.9769 11.171 20.0249 10.093 19.8559 8.917L18.9899 2.858C18.9557 2.6198 18.8368 2.40191 18.655 2.24431C18.4731 2.08671 18.2406 1.99997 17.9999 2H5.99991C5.75928 1.99997 5.5267 2.08671 5.34485 2.24431C5.163 2.40191 5.04409 2.6198 5.00992 2.858L4.14491 8.916C3.97591 10.093 4.02391 11.171 4.28791 12.122C5.15091 15.256 7.83791 17.514 10.9999 17.916ZM17.1329 4L17.7029 8H6.29591L6.86691 4H17.1329Z" fill="black"/>
</svg>
