<svg width="24" height="24" viewBox="0 0 24 24" fill="none" xmlns="http://www.w3.org/2000/svg">
<path d="M23 6.99999C21.2373 6.903 19.4886 7.36116 18 8.30999C17.64 7.89999 17.27 7.48999 16.88 7.09999L16.59 6.82999L16.73 6.70999C17.219 6.29019 17.5675 5.7305 17.7284 5.10642C17.8894 4.48235 17.855 3.82392 17.63 3.21999C17.3049 2.53817 16.7888 1.96542 16.1444 1.57132C15.5 1.17723 14.755 0.978747 14 0.999986V2.99999C14.3558 2.99503 14.7064 3.08509 15.0158 3.26088C15.3252 3.43666 15.5821 3.69181 15.76 3.99999C15.93 4.39999 15.76 4.83999 15.29 5.30999L15.06 5.51999C14.0169 4.65084 12.8718 3.91206 11.65 3.31999C9.11996 2.17999 7.81996 2.70999 7.17996 3.31999C6.98494 3.51547 6.82884 3.74623 6.71996 3.99999L6.53996 4.52999L5.09996 8.86999C6.23996 11.71 8.99996 16.76 15 18.94L20 17.28C20.1686 17.2172 20.3171 17.1101 20.43 16.97L20.64 16.79C22.07 15.35 21.15 12.58 19.23 9.88999C20.37 9.22464 21.6827 8.91474 23 8.99999V6.99999ZM19.21 15.37H19.15C18.46 15.74 15.6 14.8 12.36 11.56C12.02 11.22 11.7 10.89 11.41 10.56C11.31 10.45 11.22 10.33 11.12 10.21L10.59 9.56999L10.31 9.17999C10.17 8.98999 10.03 8.79999 9.90996 8.61999C9.78996 8.43999 9.74996 8.35999 9.66996 8.22999C9.58996 8.09999 9.44996 7.88999 9.35996 7.71999C9.26996 7.54999 9.22996 7.47999 9.16996 7.34999C9.10996 7.21999 8.99996 7.06999 8.93996 6.92999C8.87996 6.78999 8.84996 6.69999 8.79996 6.58999C8.74996 6.47999 8.68996 6.31999 8.64996 6.18999C8.60996 6.05999 8.59996 5.99999 8.57996 5.89999C8.55996 5.79999 8.51996 5.65999 8.49996 5.55999C8.49515 5.48006 8.49515 5.39991 8.49996 5.31999C8.49013 5.2336 8.49013 5.14637 8.49996 5.05999L8.60996 4.74999C8.77996 4.56999 9.51996 4.51999 10.84 5.11999C11.7221 5.54377 12.5568 6.06 13.33 6.65999C12.9085 6.84602 12.459 6.96091 12 6.99999V8.99999C13.0623 8.93971 14.0931 8.61672 15 8.05999L15.49 8.51999C15.93 8.94999 16.32 9.37999 16.68 9.78999C16.077 10.8181 15.8375 12.0192 16 13.2L18 12.81C17.9324 12.433 17.9324 12.047 18 11.67C19.29 13.64 19.53 15.06 19.21 15.37ZM4.39996 11L2.16996 17.7C2.009 18.1919 1.96674 18.7149 2.04663 19.2263C2.12652 19.7376 2.32629 20.2228 2.6296 20.6422C2.93292 21.0616 3.33117 21.4032 3.79181 21.6392C4.25245 21.8752 4.76239 21.9988 5.27996 22C5.62019 21.9967 5.95774 21.9393 6.27996 21.83L12.8 19.66C9.12009 17.7806 6.16629 14.7354 4.39996 11Z" fill="black"/>
</svg>
