<svg width="24" height="24" viewBox="0 0 24 24" fill="none" xmlns="http://www.w3.org/2000/svg">
<path d="M2.04698 14.667C2.0806 14.794 2.1391 14.913 2.2191 15.0172C2.29909 15.1214 2.39899 15.2087 2.51298 15.274L4.42198 16.378V18.577C4.42198 18.8422 4.52734 19.0966 4.71488 19.2841C4.90241 19.4716 5.15677 19.577 5.42198 19.577H7.62098L8.72498 21.487C8.85797 21.7163 9.07638 21.8835 9.3324 21.9521C9.58841 22.0207 9.86118 21.9851 10.091 21.853L12 20.75L13.91 21.854C14.1398 21.9861 14.4126 22.0217 14.6686 21.9531C14.9246 21.8845 15.143 21.7173 15.276 21.488L16.379 19.579H18.578C18.8432 19.579 19.0976 19.4736 19.2851 19.2861C19.4726 19.0986 19.578 18.8442 19.578 18.579V16.38L21.487 15.276C21.6008 15.2104 21.7006 15.1231 21.7806 15.0189C21.8606 14.9147 21.9193 14.7958 21.9533 14.6689C21.9873 14.542 21.9959 14.4097 21.9787 14.2795C21.9615 14.1492 21.9188 14.0237 21.853 13.91L20.75 12L21.854 10.091C21.9866 9.86132 22.0225 9.58838 21.9539 9.3322C21.8852 9.07603 21.7177 8.85762 21.488 8.725L19.579 7.621V5.422C19.579 5.15679 19.4736 4.90243 19.2861 4.7149C19.0986 4.52736 18.8442 4.422 18.579 4.422H16.38L15.277 2.513C15.1441 2.28363 14.9259 2.11611 14.67 2.047C14.5431 2.01267 14.4107 2.00384 14.2805 2.021C14.1502 2.03817 14.0246 2.08099 13.911 2.147L12 3.25L10.091 2.146C9.97738 2.08004 9.85188 2.03715 9.72167 2.01979C9.59146 2.00244 9.45911 2.01096 9.3322 2.04487C9.20529 2.07878 9.08632 2.13742 8.98212 2.2174C8.87792 2.29739 8.79054 2.39717 8.72498 2.511L7.62098 4.421H5.42198C5.15677 4.421 4.90241 4.52636 4.71488 4.7139C4.52734 4.90143 4.42198 5.15579 4.42198 5.421V7.62L2.51298 8.725C2.28368 8.85797 2.11648 9.07646 2.04806 9.33254C1.97963 9.58862 2.01557 9.86138 2.14798 10.091L3.25098 12L2.14698 13.909C2.01488 14.1386 1.97893 14.411 2.04698 14.667Z" fill="black"/>
</svg>
