<svg width="24" height="24" viewBox="0 0 24 24" fill="none" xmlns="http://www.w3.org/2000/svg">
<path d="M2.00194 9.53801C1.97894 9.94901 2.20894 10.332 2.58294 10.504L10.0869 13.946L13.5289 21.449C13.6929 21.805 14.0489 22.032 14.4379 22.032L14.4949 22.03C14.6956 22.0188 14.8883 21.9473 15.0478 21.8249C15.2072 21.7025 15.3261 21.535 15.3889 21.344L20.9839 4.31201C21.1009 3.95401 21.0069 3.55901 20.7409 3.29201C20.4749 3.02501 20.0809 2.93401 19.7209 3.04901L2.68794 8.64501C2.49693 8.70739 2.32921 8.82603 2.2068 8.98538C2.08438 9.14474 2.01298 9.33736 2.00194 9.53801Z" fill="black"/>
</svg>
