<svg width="24" height="24" viewBox="0 0 24 24" fill="none" xmlns="http://www.w3.org/2000/svg">
<path d="M20.2469 3.03401C20.1779 3.01601 18.5049 2.60101 16.1949 2.60101C13.3529 2.60101 9.32691 3.24101 6.28491 6.28801C0.944914 11.637 2.94491 19.898 3.03291 20.248C3.07716 20.4236 3.16825 20.5839 3.29647 20.7117C3.42468 20.8396 3.58521 20.9303 3.76091 20.974C3.82991 20.992 5.48691 21.4 7.77891 21.4C10.6279 21.4 14.6629 20.759 17.7109 17.712C23.0459 12.377 21.0619 4.11201 20.9749 3.76301C20.9306 3.58712 20.8396 3.42648 20.7114 3.29813C20.5833 3.16979 20.4228 3.07852 20.2469 3.03401ZM16.7099 12.296L15.2959 13.71L13.5029 11.918L11.9169 13.504L13.7089 15.297L12.2949 16.711L10.5029 14.918L8.70991 16.711L7.29591 15.297L9.08891 13.504L7.29591 11.71L8.70991 10.296L10.5029 12.09L12.0889 10.504L10.2949 8.71101L11.7089 7.29701L13.5029 9.09001L15.2959 7.29701L16.7099 8.71101L14.9169 10.504L16.7099 12.296Z" fill="black"/>
</svg>
