<svg width="24" height="24" viewBox="0 0 24 24" fill="none" xmlns="http://www.w3.org/2000/svg">
<path d="M21.5981 11.064C21.4777 10.9732 21.3385 10.9105 21.1907 10.8808C21.0428 10.851 20.8902 10.8548 20.7441 10.892C20.5017 10.9597 20.2517 10.996 20.0001 11C18.3461 11 17.0001 9.65401 16.9971 8.06201C17.0021 8.02801 17.0131 7.92801 17.0141 7.89401C17.0206 7.73767 16.9903 7.58199 16.9255 7.43953C16.8608 7.29708 16.7635 7.17184 16.6414 7.07393C16.5194 6.97601 16.376 6.90817 16.2229 6.87587C16.0698 6.84358 15.9113 6.84773 15.7601 6.88801C15.5126 6.95773 15.2572 6.99538 15.0001 7.00001C13.3461 7.00001 12.0001 5.65401 12.0001 4.00001C12.0001 3.78301 12.0311 3.55601 12.0991 3.28401C12.1376 3.12875 12.1383 2.96652 12.1011 2.81094C12.0639 2.65536 11.99 2.51097 11.8854 2.38989C11.7809 2.26881 11.6489 2.17457 11.5004 2.11508C11.3519 2.05559 11.1913 2.03259 11.0321 2.04801C8.55554 2.27883 6.2551 3.42827 4.58353 5.27011C2.91196 7.11195 1.99034 9.51276 2.00008 12C2.00008 17.514 6.48608 22 12.0001 22C17.5141 22 22.0001 17.514 22.0001 12C22.0001 11.951 21.9971 11.903 21.9931 11.84C21.9897 11.6893 21.9525 11.5413 21.8841 11.407C21.8157 11.2726 21.7179 11.1554 21.5981 11.064ZM8.50008 6.00001C8.8979 6.00001 9.27943 6.15804 9.56074 6.43935C9.84204 6.72065 10.0001 7.10218 10.0001 7.50001C10.0001 7.89783 9.84204 8.27936 9.56074 8.56067C9.27943 8.84197 8.8979 9.00001 8.50008 9.00001C8.10225 9.00001 7.72072 8.84197 7.43942 8.56067C7.15811 8.27936 7.00008 7.89783 7.00008 7.50001C7.00008 7.10218 7.15811 6.72065 7.43942 6.43935C7.72072 6.15804 8.10225 6.00001 8.50008 6.00001ZM6.50008 14C6.30309 14 6.10804 13.9612 5.92605 13.8858C5.74406 13.8104 5.5787 13.7 5.43942 13.5607C5.30013 13.4214 5.18964 13.256 5.11426 13.074C5.03887 12.892 5.00008 12.697 5.00008 12.5C5.00008 12.303 5.03887 12.108 5.11426 11.926C5.18964 11.744 5.30013 11.5786 5.43942 11.4393C5.5787 11.3001 5.74406 11.1896 5.92605 11.1142C6.10804 11.0388 6.30309 11 6.50008 11C6.8979 11 7.27943 11.158 7.56074 11.4393C7.84204 11.7207 8.00008 12.1022 8.00008 12.5C8.00008 12.8978 7.84204 13.2794 7.56074 13.5607C7.27943 13.842 6.8979 14 6.50008 14ZM9.50008 18C9.10225 18 8.72072 17.842 8.43942 17.5607C8.15811 17.2794 8.00008 16.8978 8.00008 16.5C8.00008 16.1022 8.15811 15.7207 8.43942 15.4393C8.72072 15.158 9.10225 15 9.50008 15C9.8979 15 10.2794 15.158 10.5607 15.4393C10.842 15.7207 11.0001 16.1022 11.0001 16.5C11.0001 16.8978 10.842 17.2794 10.5607 17.5607C10.2794 17.842 9.8979 18 9.50008 18ZM12.0001 11.5C12.0001 11.1022 12.1581 10.7207 12.4394 10.4393C12.7207 10.158 13.1023 10 13.5001 10C13.8979 10 14.2794 10.158 14.5607 10.4393C14.842 10.7207 15.0001 11.1022 15.0001 11.5C15.0001 11.8978 14.842 12.2794 14.5607 12.5607C14.2794 12.842 13.8979 13 13.5001 13C13.1023 13 12.7207 12.842 12.4394 12.5607C12.1581 12.2794 12.0001 11.8978 12.0001 11.5ZM15.5001 18C15.1023 18 14.7207 17.842 14.4394 17.5607C14.1581 17.2794 14.0001 16.8978 14.0001 16.5C14.0001 16.1022 14.1581 15.7207 14.4394 15.4393C14.7207 15.158 15.1023 15 15.5001 15C15.8979 15 16.2794 15.158 16.5607 15.4393C16.842 15.7207 17.0001 16.1022 17.0001 16.5C17.0001 16.8978 16.842 17.2794 16.5607 17.5607C16.2794 17.842 15.8979 18 15.5001 18Z" fill="black"/>
</svg>
