<svg width="24" height="24" viewBox="0 0 24 24" fill="none" xmlns="http://www.w3.org/2000/svg">
<path d="M3.67001 16.26L4.21001 16.79L3.59001 17.4C3.84093 17.7911 4.12177 18.1622 4.43001 18.51L18.51 4.42C18.1612 4.12047 17.7938 3.84325 17.41 3.59L16.79 4.19999L16.26 3.67L16.74 3.19C14.8462 2.17157 12.6745 1.79072 10.5472 2.10394C8.41979 2.41716 6.45005 3.40777 4.93012 4.92882C3.41019 6.44988 2.42104 8.42035 2.10938 10.5479C1.79773 12.6755 2.18018 14.8469 3.20001 16.74L3.67001 16.26ZM14.86 5.07L15.39 5.59999L14 7L13.47 6.47L14.86 5.07ZM12.07 7.87L12.59 8.39999L11.2 9.8L10.67 9.27L12.07 7.87ZM9.27001 10.67L9.80001 11.2L8.40001 12.59L7.87001 12.06L9.27001 10.67ZM6.47001 13.46L7.00001 14L5.60001 15.4L5.07001 14.87L6.47001 13.46ZM6.59001 20.41L7.21001 19.8L7.74001 20.33L7.26001 20.81C9.15384 21.8284 11.3255 22.2093 13.4529 21.896C15.5802 21.5828 17.55 20.5922 19.0699 19.0712C20.5898 17.5501 21.579 15.5796 21.8906 13.4521C22.2023 11.3245 21.8198 9.15307 20.8 7.26L20.33 7.74L19.79 7.21L20.41 6.6C20.1591 6.20886 19.8782 5.83775 19.57 5.48999L5.49001 19.58C5.83885 19.8795 6.20625 20.1567 6.59001 20.41ZM18.4 8.60999L18.93 9.14L17.53 10.54L17 10L18.4 8.60999ZM15.6 11.41L16.13 11.94L14.73 13.33L14.2 12.8L15.6 11.41ZM12.8 14.2L13.33 14.73L11.94 16.13L11.4 15.6L12.8 14.2ZM10 17L10.53 17.53L9.13001 18.93L8.60001 18.4L10 17Z" fill="black"/>
</svg>
