<svg width="24" height="24" viewBox="0 0 24 24" fill="none" xmlns="http://www.w3.org/2000/svg">
<path d="M21.986 9.74001C21.9837 9.71064 21.9811 9.6813 21.978 9.65201C21.8893 8.39119 21.3267 7.21065 20.4033 6.34767C19.4798 5.48468 18.2639 5.00321 17 5.00001H7C5.71833 4.99421 4.48398 5.48378 3.5547 6.36647C2.62542 7.24917 2.07307 8.45673 2.013 9.73701C2.003 9.81601 2 9.89801 2 9.99001V16.5C2 17.425 2.373 18.328 3.022 18.976C3.68081 19.6305 4.57134 19.9985 5.5 20C7.3 20 8.004 19 9 17C9.146 16.708 9.992 15 12 15C13.996 15 14.853 16.707 15 17C16.004 19 16.7 20 18.5 20C19.425 20 20.328 19.627 20.976 18.978C21.6305 18.3192 21.9985 17.4287 22 16.5V10C22 9.90501 21.996 9.82001 21.986 9.74001ZM7 12.031C6.73366 12.037 6.4688 11.9898 6.22098 11.892C5.97315 11.7943 5.74735 11.648 5.55683 11.4618C5.36631 11.2756 5.21491 11.0532 5.11153 10.8077C5.00814 10.5621 4.95485 10.2984 4.95478 10.032C4.95472 9.76561 5.00788 9.50187 5.11114 9.25629C5.2144 9.01071 5.36569 8.78824 5.55611 8.60193C5.74654 8.41562 5.97227 8.26924 6.22005 8.17137C6.46782 8.0735 6.73266 8.02611 6.999 8.032C7.52156 8.04356 8.01883 8.25923 8.38437 8.63284C8.74991 9.00646 8.95465 9.50833 8.95478 10.031C8.95492 10.5537 8.75042 11.0557 8.38507 11.4295C8.01972 11.8033 7.52256 12.0192 7 12.031ZM17 7.03101C17.2652 7.03101 17.5196 7.13636 17.7071 7.3239C17.8946 7.51143 18 7.76579 18 8.03101C18 8.29622 17.8946 8.55058 17.7071 8.73811C17.5196 8.92565 17.2652 9.03101 17 9.03101C16.7348 9.03101 16.4804 8.92565 16.2929 8.73811C16.1054 8.55058 16 8.29622 16 8.03101C16 7.76579 16.1054 7.51143 16.2929 7.3239C16.4804 7.13636 16.7348 7.03101 17 7.03101ZM15 11.031C14.7348 11.031 14.4804 10.9256 14.2929 10.7381C14.1054 10.5506 14 10.2962 14 10.031C14 9.76579 14.1054 9.51144 14.2929 9.3239C14.4804 9.13636 14.7348 9.03101 15 9.03101C15.2652 9.03101 15.5196 9.13636 15.7071 9.3239C15.8946 9.51144 16 9.76579 16 10.031C16 10.2962 15.8946 10.5506 15.7071 10.7381C15.5196 10.9256 15.2652 11.031 15 11.031ZM17 13.031C16.7348 13.031 16.4804 12.9256 16.2929 12.7381C16.1054 12.5506 16 12.2962 16 12.031C16 11.7658 16.1054 11.5114 16.2929 11.3239C16.4804 11.1364 16.7348 11.031 17 11.031C17.2652 11.031 17.5196 11.1364 17.7071 11.3239C17.8946 11.5114 18 11.7658 18 12.031C18 12.2962 17.8946 12.5506 17.7071 12.7381C17.5196 12.9256 17.2652 13.031 17 13.031ZM19 11.031C18.7348 11.031 18.4804 10.9256 18.2929 10.7381C18.1054 10.5506 18 10.2962 18 10.031C18 9.76579 18.1054 9.51144 18.2929 9.3239C18.4804 9.13636 18.7348 9.03101 19 9.03101C19.2652 9.03101 19.5196 9.13636 19.7071 9.3239C19.8946 9.51144 20 9.76579 20 10.031C20 10.2962 19.8946 10.5506 19.7071 10.7381C19.5196 10.9256 19.2652 11.031 19 11.031Z" fill="black"/>
</svg>
