<svg width="24" height="24" viewBox="0 0 24 24" fill="none" xmlns="http://www.w3.org/2000/svg">
<path d="M20 4.00003C19.35 3.34994 18.5783 2.83426 17.729 2.48244C16.8797 2.13061 15.9694 1.94952 15.0501 1.94952C14.1307 1.94952 13.2204 2.13061 12.3711 2.48244C11.5218 2.83426 10.7501 3.34994 10.1001 4.00003L2.28005 11.82C2.0938 12.0074 1.98926 12.2608 1.98926 12.525C1.98926 12.7892 2.0938 13.0427 2.28005 13.23L5.82005 16.77L2.28005 20.3L3.70005 21.72L7.23005 18.18L10.7701 21.72C10.9574 21.9063 11.2109 22.0108 11.4751 22.0108C11.7392 22.0108 11.9927 21.9063 12.1801 21.72L20 13.94C20.6561 13.2893 21.1769 12.5151 21.5323 11.6621C21.8877 10.809 22.0706 9.89411 22.0706 8.97003C22.0706 8.04595 21.8877 7.13101 21.5323 6.27799C21.1769 5.42498 20.6561 4.65077 20 4.00003ZM17.3 6.70003C16.6805 6.10831 15.8568 5.77812 15.0001 5.77812C14.1433 5.77812 13.3196 6.10831 12.7001 6.70003L11.6401 5.64003C12.5322 4.75092 13.7405 4.25168 15.0001 4.25168C16.2596 4.25168 17.4679 4.75092 18.3601 5.64003L17.3 6.70003Z" fill="black"/>
</svg>
