<svg width="24" height="24" viewBox="0 0 24 24" fill="none" xmlns="http://www.w3.org/2000/svg">
<path d="M13.5069 2.138C13.3277 2.0329 13.1201 1.98624 12.9131 2.00452C12.7061 2.0228 12.51 2.10511 12.3519 2.24L4.19593 9.197C1.27193 12.121 1.27193 16.879 4.19593 19.803C4.89144 20.4994 5.7177 21.0516 6.62724 21.4278C7.53678 21.8039 8.51167 21.9967 9.49593 21.995C11.4199 21.995 13.3459 21.261 14.8129 19.793L21.7159 12.697C21.8529 12.5561 21.9453 12.378 21.9816 12.1849C22.0179 11.9918 21.9966 11.7923 21.9202 11.6113C21.8438 11.4302 21.7158 11.2757 21.5521 11.167C21.3885 11.0583 21.1964 11.0002 20.9999 11H17.6989L21.8739 3.486C21.9785 3.29608 22.0186 3.07734 21.9881 2.86269C21.9577 2.64804 21.8583 2.44907 21.7051 2.29571C21.5519 2.14235 21.353 2.04289 21.1383 2.01229C20.9237 1.98168 20.7049 2.02159 20.5149 2.126L13.4049 6.076L13.9809 3.197C14.0215 2.99313 13.9977 2.78166 13.9128 2.59192C13.8279 2.40217 13.686 2.24354 13.5069 2.138ZM13.9999 14.5C13.9999 15.6935 13.5258 16.8381 12.6819 17.682C11.838 18.5259 10.6934 19 9.49993 19C8.30646 19 7.16186 18.5259 6.31795 17.682C5.47404 16.8381 4.99993 15.6935 4.99993 14.5C4.99993 12.93 5.80693 11.551 7.02493 10.746C7.01493 10.83 6.99993 10.913 6.99993 11C6.99993 11.296 7.06565 11.5884 7.19234 11.8559C7.31903 12.1235 7.50353 12.3596 7.73253 12.5472C7.96154 12.7348 8.22933 12.8692 8.51658 12.9407C8.80384 13.0123 9.10339 13.0191 9.39363 12.9609C9.68387 12.9026 9.95755 12.7806 10.1949 12.6037C10.4323 12.4269 10.6275 12.1995 10.7663 11.938C10.9051 11.6766 10.9842 11.3876 10.9978 11.0919C11.0114 10.7961 10.9592 10.5011 10.8449 10.228C12.6689 10.802 13.9999 12.486 13.9999 14.5Z" fill="black"/>
</svg>
