<svg width="24" height="24" viewBox="0 0 24 24" fill="none" xmlns="http://www.w3.org/2000/svg">
<path d="M11.4879 21.754C11.7819 21.911 12.1509 21.91 12.4449 21.753C20.4569 17.449 21.0259 9.03998 21.0189 6.64898C21.0181 6.45681 20.9614 6.26904 20.8555 6.10865C20.7496 5.94826 20.5993 5.82223 20.4229 5.74598L12.3729 2.17998C12.2448 2.12351 12.1063 2.09443 11.9663 2.09461C11.8263 2.09478 11.6879 2.1242 11.5599 2.18098L3.56591 5.74698C3.3921 5.82327 3.24389 5.94791 3.13893 6.10606C3.03397 6.26421 2.97669 6.4492 2.97391 6.63898C2.93991 9.01798 3.41891 17.445 11.4879 21.754ZM8.67391 10.293L10.9669 12.586L15.2599 8.29298L16.6739 9.70698L10.9669 15.414L7.25991 11.707L8.67391 10.293Z" fill="black"/>
</svg>
