<svg width="24" height="24" viewBox="0 0 24 24" fill="none" xmlns="http://www.w3.org/2000/svg">
<path d="M9.37996 21.646C10.2337 21.8796 11.1148 21.9986 12 22L12.141 21.999C12.6463 21.9927 13.1418 21.8588 13.5815 21.6096C14.0212 21.3605 14.3908 21.0042 14.656 20.574C15.198 19.698 15.256 18.621 14.809 17.694L14.611 17.279C14.158 16.337 14.514 15.483 14.999 14.998C15.484 14.513 16.34 14.157 17.279 14.61H17.28L17.693 14.809C18.1471 15.0286 18.6494 15.1297 19.1531 15.103C19.6569 15.0762 20.1456 14.9224 20.574 14.656C21.0045 14.3911 21.361 14.0215 21.6103 13.5818C21.8596 13.1421 21.9936 12.6464 22 12.141C22.0125 11.209 21.8936 10.2798 21.647 9.38099C20.609 5.55399 17.294 2.62699 13.401 2.09599C10.252 1.66899 7.15996 2.69799 4.92996 4.92899C2.69996 7.15999 1.66596 10.247 2.09596 13.4C2.62596 17.294 5.55396 20.608 9.37996 21.646ZM15.5 5.99999C15.8978 5.99999 16.2793 6.15802 16.5606 6.43933C16.8419 6.72063 17 7.10216 17 7.49999C17 7.89781 16.8419 8.27934 16.5606 8.56065C16.2793 8.84195 15.8978 8.99999 15.5 8.99999C15.1021 8.99999 14.7206 8.84195 14.4393 8.56065C14.158 8.27934 14 7.89781 14 7.49999C14 7.10216 14.158 6.72063 14.4393 6.43933C14.7206 6.15802 15.1021 5.99999 15.5 5.99999ZM10.5 4.99999C10.8978 4.99999 11.2793 5.15802 11.5606 5.43933C11.8419 5.72063 12 6.10216 12 6.49999C12 6.89781 11.8419 7.27934 11.5606 7.56065C11.2793 7.84195 10.8978 7.99999 10.5 7.99999C10.1021 7.99999 9.7206 7.84195 9.4393 7.56065C9.15799 7.27934 8.99996 6.89781 8.99996 6.49999C8.99996 6.10216 9.15799 5.72063 9.4393 5.43933C9.7206 5.15802 10.1021 4.99999 10.5 4.99999ZM8.99996 15.506C8.99996 15.9038 8.84192 16.2853 8.56062 16.5666C8.27931 16.848 7.89778 17.006 7.49996 17.006C7.10213 17.006 6.7206 16.848 6.4393 16.5666C6.15799 16.2853 5.99996 15.9038 5.99996 15.506C5.99996 15.1082 6.15799 14.7266 6.4393 14.4453C6.7206 14.164 7.10213 14.006 7.49996 14.006C7.89778 14.006 8.27931 14.164 8.56062 14.4453C8.84192 14.7266 8.99996 15.1082 8.99996 15.506ZM6.49996 9.00599C6.89791 9.00612 7.27952 9.16433 7.56082 9.44583C7.84213 9.72732 8.00009 10.109 7.99996 10.507C7.99982 10.9049 7.84161 11.2866 7.56012 11.5679C7.27862 11.8492 6.89691 12.0071 6.49896 12.007C6.101 12.0069 5.71939 11.8486 5.43809 11.5671C5.15678 11.2857 4.99882 10.9039 4.99896 10.506C4.99909 10.108 5.1573 9.72642 5.4388 9.44512C5.72029 9.16381 6.102 9.00585 6.49996 9.00599Z" fill="black"/>
</svg>
