<svg width="24" height="24" viewBox="0 0 24 24" fill="none" xmlns="http://www.w3.org/2000/svg">
<path d="M21.4501 8.74C21.3628 8.45215 21.3346 8.1496 21.3672 7.85058C21.3999 7.55155 21.4927 7.26222 21.6401 7C22.0182 6.23336 22.1035 5.35509 21.8801 4.53C21.715 3.94634 21.4032 3.4147 20.9743 2.9858C20.5454 2.5569 20.0138 2.24505 19.4301 2.08C18.6127 1.87894 17.7503 1.97831 17.0001 2.36C16.7432 2.502 16.4608 2.59188 16.169 2.62448C15.8773 2.65709 15.582 2.63177 15.3001 2.55C13.1839 1.82466 10.8863 1.82466 8.77009 2.55C7.32539 3.02989 6.01128 3.83746 4.93051 4.90955C3.84974 5.98165 3.03161 7.28921 2.54009 8.73C1.81476 10.8462 1.81476 13.1438 2.54009 15.26C2.62892 15.5472 2.65876 15.8494 2.62783 16.1484C2.5969 16.4474 2.50583 16.7371 2.36009 17C1.982 17.7666 1.89666 18.6449 2.12009 19.47C2.28515 20.0537 2.597 20.5853 3.0259 21.0142C3.45479 21.4431 3.98643 21.7549 4.57009 21.92C5.38747 22.1211 6.24987 22.0217 7.00009 21.64C7.25701 21.498 7.53942 21.4081 7.83115 21.3755C8.12288 21.3429 8.41817 21.3682 8.70009 21.45C9.76059 21.8205 10.8767 22.0066 12.0001 22C13.1121 21.9972 14.2163 21.8148 15.2701 21.46C16.7085 20.9738 18.0153 20.1624 19.0889 19.0888C20.1625 18.0152 20.9739 16.7084 21.4601 15.27C22.1822 13.1526 22.1787 10.8551 21.4501 8.74ZM12.0001 7C10.674 7 9.40224 7.52678 8.46456 8.46446C7.52688 9.40215 7.00009 10.6739 7.00009 12H5.00009C5.00009 10.1435 5.73759 8.363 7.05035 7.05025C8.3631 5.7375 10.1436 5 12.0001 5V7Z" fill="black"/>
</svg>
