<svg width="24" height="24" viewBox="0 0 24 24" fill="none" xmlns="http://www.w3.org/2000/svg">
<path d="M19.0621 4.93801C18.1392 4.00821 17.0415 3.26998 15.8323 2.76578C14.6231 2.26157 13.3262 2.00133 12.0161 2.00001H11.9901C10.6758 1.99792 9.37408 2.25651 8.16035 2.76082C6.94662 3.26512 5.84495 4.00513 4.91911 4.93801C1.02111 8.83601 1.02111 15.181 4.91911 19.081C6.81411 20.976 9.3241 22.019 11.9901 22.019C14.6561 22.019 17.1671 20.976 19.0611 19.081C22.9611 15.182 22.9611 8.83801 19.0621 4.93801ZM13.5001 15C13.8981 15.0001 14.2797 15.1584 14.561 15.4399C14.8423 15.7213 15.0002 16.1031 15.0001 16.501C15 16.899 14.8418 17.2806 14.5603 17.5619C14.2788 17.8432 13.8971 18.0011 13.4991 18.001C13.1011 18.0009 12.7195 17.8427 12.4382 17.5612C12.1569 17.2797 11.999 16.898 11.9991 16.5C11.9992 16.1021 12.1575 15.7204 12.4389 15.4391C12.7204 15.1578 13.1021 14.9999 13.5001 15ZM6.33311 6.35301C7.07363 5.60626 7.9549 5.01379 8.92592 4.6099C9.89695 4.206 10.9384 3.99871 11.9901 4.00001L12.0161 4.00101C13.6681 4.00901 15.2581 5.06701 15.5661 6.37201C15.9321 7.92401 14.4681 9.65001 11.5481 11.109C6.43511 13.664 6.23611 16.442 6.57311 17.871L6.58111 17.892C6.49911 17.817 6.41211 17.746 6.33211 17.666C3.21411 14.547 3.21411 9.47201 6.33311 6.35301Z" fill="black"/>
<path d="M10.5 9C11.3284 9 12 8.32843 12 7.5C12 6.67157 11.3284 6 10.5 6C9.67157 6 9 6.67157 9 7.5C9 8.32843 9.67157 9 10.5 9Z" fill="black"/>
</svg>
