<svg width="24" height="24" viewBox="0 0 24 24" fill="none" xmlns="http://www.w3.org/2000/svg">
<path d="M6.22694 11H17.7739C18.6359 11 19.0939 9.97997 18.5209 9.33497L12.7479 2.83997C12.6543 2.73428 12.5393 2.64966 12.4105 2.5917C12.2818 2.53375 12.1422 2.50378 12.0009 2.50378C11.8597 2.50378 11.7201 2.53375 11.5914 2.5917C11.4626 2.64966 11.3476 2.73428 11.2539 2.83997L5.47894 9.33497C4.90594 9.97997 5.36394 11 6.22694 11ZM11.2529 21.159C11.3466 21.2647 11.4616 21.3493 11.5904 21.4072C11.7191 21.4652 11.8587 21.4952 11.9999 21.4952C12.1412 21.4952 12.2808 21.4652 12.4095 21.4072C12.5383 21.3493 12.6533 21.2647 12.7469 21.159L18.5199 14.664C19.0939 14.02 18.6359 13 17.7729 13H6.22694C5.36494 13 4.90694 14.02 5.47994 14.665L11.2529 21.159Z" fill="black"/>
</svg>
