<svg width="24" height="24" viewBox="0 0 24 24" fill="none" xmlns="http://www.w3.org/2000/svg">
<path d="M21.4839 7.12499L12.4619 2.12499C12.3137 2.04332 12.1472 2.00049 11.9779 2.00049C11.8087 2.00049 11.6422 2.04332 11.4939 2.12499L2.51594 7.08499C2.35998 7.17136 2.22994 7.29785 2.13929 7.45136C2.04864 7.60487 2.00067 7.77983 2.00037 7.95811C2.00006 8.13639 2.04742 8.31151 2.13754 8.46534C2.22767 8.61916 2.35727 8.7461 2.51294 8.83299L11.5349 13.873C11.6835 13.9564 11.8509 14.0004 12.0213 14.0005C12.1917 14.0007 12.3592 13.9571 12.5079 13.874L21.4859 8.87399C21.6419 8.78726 21.7718 8.66037 21.8622 8.50649C21.9526 8.35262 22.0001 8.17736 21.9999 7.9989C21.9997 7.82045 21.9518 7.6453 21.861 7.49163C21.7703 7.33796 21.6401 7.21137 21.4839 7.12499Z" fill="black"/>
<path d="M12 15.856L3.48504 11.126L2.51404 12.874L11.514 17.874C11.6626 17.9565 11.8296 17.9998 11.9995 17.9998C12.1694 17.9998 12.3365 17.9565 12.485 17.874L21.485 12.874L20.514 11.126L12 15.856Z" fill="black"/>
<path d="M12 19.856L3.48504 15.126L2.51404 16.874L11.514 21.874C11.6626 21.9565 11.8296 21.9998 11.9995 21.9998C12.1694 21.9998 12.3365 21.9565 12.485 21.874L21.485 16.874L20.514 15.126L12 19.856Z" fill="black"/>
</svg>
