<svg width="24" height="24" viewBox="0 0 24 24" fill="none" xmlns="http://www.w3.org/2000/svg">
<path d="M11.6461 3.86799L3.86809 11.646C2.74467 12.7721 2.11377 14.2978 2.11377 15.8885C2.11377 17.4792 2.74467 19.0049 3.86809 20.131C4.42492 20.6882 5.08628 21.1299 5.81422 21.4309C6.54217 21.7319 7.32238 21.8862 8.11009 21.885C8.89798 21.8863 9.67838 21.7321 10.4065 21.4311C11.1346 21.1301 11.7961 20.6883 12.3531 20.131L20.1311 12.353C21.2545 11.2269 21.8854 9.70115 21.8854 8.11049C21.8854 6.51983 21.2545 4.9941 20.1311 3.86799C19.0049 2.74481 17.4792 2.11407 15.8886 2.11407C14.298 2.11407 12.7723 2.74481 11.6461 3.86799ZM9.00009 13C8.73488 13 8.48052 12.8946 8.29299 12.7071C8.10545 12.5196 8.00009 12.2652 8.00009 12C8.00009 11.7348 8.10545 11.4804 8.29299 11.2929C8.48052 11.1053 8.73488 11 9.00009 11C9.26531 11 9.51966 11.1053 9.7072 11.2929C9.89474 11.4804 10.0001 11.7348 10.0001 12C10.0001 12.2652 9.89474 12.5196 9.7072 12.7071C9.51966 12.8946 9.26531 13 9.00009 13ZM12.0001 16C11.7349 16 11.4805 15.8946 11.293 15.7071C11.1055 15.5196 11.0001 15.2652 11.0001 15C11.0001 14.7348 11.1055 14.4804 11.293 14.2929C11.4805 14.1053 11.7349 14 12.0001 14C12.2653 14 12.5197 14.1053 12.7072 14.2929C12.8947 14.4804 13.0001 14.7348 13.0001 15C13.0001 15.2652 12.8947 15.5196 12.7072 15.7071C12.5197 15.8946 12.2653 16 12.0001 16ZM12.0001 9.99999C11.7349 9.99999 11.4805 9.89463 11.293 9.70709C11.1055 9.51956 11.0001 9.2652 11.0001 8.99999C11.0001 8.73477 11.1055 8.48042 11.293 8.29288C11.4805 8.10534 11.7349 7.99999 12.0001 7.99999C12.2653 7.99999 12.5197 8.10534 12.7072 8.29288C12.8947 8.48042 13.0001 8.73477 13.0001 8.99999C13.0001 9.2652 12.8947 9.51956 12.7072 9.70709C12.5197 9.89463 12.2653 9.99999 12.0001 9.99999ZM15.0001 13C14.7349 13 14.4805 12.8946 14.293 12.7071C14.1055 12.5196 14.0001 12.2652 14.0001 12C14.0001 11.7348 14.1055 11.4804 14.293 11.2929C14.4805 11.1053 14.7349 11 15.0001 11C15.2653 11 15.5197 11.1053 15.7072 11.2929C15.8947 11.4804 16.0001 11.7348 16.0001 12C16.0001 12.2652 15.8947 12.5196 15.7072 12.7071C15.5197 12.8946 15.2653 13 15.0001 13Z" fill="black"/>
</svg>
