<svg width="24" height="24" viewBox="0 0 24 24" fill="none" xmlns="http://www.w3.org/2000/svg">
<path d="M21.868 11.504L17.868 4.504C17.7806 4.35095 17.6543 4.22372 17.5019 4.13521C17.3494 4.0467 17.1763 4.00006 17 4H3.00004C2.82493 4.00006 2.65289 4.0461 2.50116 4.13352C2.34942 4.22094 2.2233 4.34667 2.13542 4.49814C2.04753 4.64961 2.00096 4.8215 2.00037 4.99662C1.99978 5.17174 2.04518 5.34394 2.13204 5.496L5.84904 12L2.13204 18.504C2.04518 18.6561 1.99978 18.8283 2.00037 19.0034C2.00096 19.1785 2.04753 19.3504 2.13542 19.5019C2.2233 19.6533 2.34942 19.7791 2.50116 19.8665C2.65289 19.9539 2.82493 19.9999 3.00004 20H17C17.1763 19.9999 17.3494 19.9533 17.5019 19.8648C17.6543 19.7763 17.7806 19.6491 17.868 19.496L21.868 12.496C21.9545 12.345 22 12.174 22 12C22 11.826 21.9545 11.655 21.868 11.504Z" fill="black"/>
</svg>
