<svg width="24" height="24" viewBox="0 0 24 24" fill="none" xmlns="http://www.w3.org/2000/svg">
<g clip-path="url(#clip0_2_21078)">
<path d="M12 22H12.01" stroke="black" stroke-width="2" stroke-linecap="round" stroke-linejoin="round"/>
<path d="M16 20H16.01" stroke="black" stroke-width="2" stroke-linecap="round" stroke-linejoin="round"/>
<path d="M8 20H8.01" stroke="black" stroke-width="2" stroke-linecap="round" stroke-linejoin="round"/>
<path d="M12 18H12.01" stroke="black" stroke-width="2" stroke-linecap="round" stroke-linejoin="round"/>
<path d="M20 17.58C21.0512 17.1196 21.9121 16.3116 22.4381 15.2915C22.964 14.2715 23.1231 13.1016 22.8886 11.9782C22.654 10.8548 22.0402 9.84621 21.15 9.12183C20.2599 8.39746 19.1476 8.00135 18 8H16.74C16.423 6.77252 15.8188 5.63795 14.9773 4.6898C14.1357 3.74165 13.0809 3.00708 11.8997 2.54662C10.7186 2.08617 9.44488 1.91302 8.18365 2.04144C6.92243 2.16987 5.70978 2.5962 4.64567 3.28528C3.58155 3.97437 2.69644 4.90648 2.06328 6.0048C1.43012 7.10311 1.06704 8.33617 1.00398 9.60235C0.940923 10.8685 1.17968 12.1316 1.70058 13.2874C2.22147 14.4431 3.00959 15.4586 3.99997 16.25" stroke="black" stroke-width="2" stroke-linecap="round" stroke-linejoin="round"/>
<path d="M16 16H16.01" stroke="black" stroke-width="2" stroke-linecap="round" stroke-linejoin="round"/>
<path d="M8 16H8.01" stroke="black" stroke-width="2" stroke-linecap="round" stroke-linejoin="round"/>
</g>
<defs>
<clipPath id="clip0_2_21078">
<rect width="24" height="24" fill="white"/>
</clipPath>
</defs>
</svg>
