<svg width="24" height="24" viewBox="0 0 24 24" fill="none" xmlns="http://www.w3.org/2000/svg">
<path fill-rule="evenodd" clip-rule="evenodd" d="M6.06668 3.87387C5.36399 3.79534 4.636 3.79534 3.93331 3.87387C3.92026 3.87533 3.90735 3.88124 3.89674 3.8917C3.88637 3.90192 3.88233 3.91225 3.8813 3.92101C3.79746 4.63789 3.79746 5.36209 3.8813 6.07896C3.88233 6.08773 3.88637 6.09805 3.89674 6.10827C3.90735 6.11873 3.92026 6.12464 3.93331 6.1261C4.636 6.20463 5.36399 6.20463 6.06668 6.1261C6.07973 6.12464 6.09264 6.11873 6.10325 6.10827C6.11362 6.09805 6.11766 6.08773 6.11869 6.07896C6.20253 5.36209 6.20253 4.63789 6.11869 3.92101C6.11766 3.91225 6.11362 3.90192 6.10325 3.8917C6.09264 3.88124 6.07973 3.87533 6.06668 3.87387ZM3.7667 2.38315C4.58012 2.29224 5.41988 2.29224 6.23329 2.38315C6.94561 2.46277 7.52391 3.0232 7.60853 3.74676C7.70592 4.57941 7.70592 5.42056 7.60853 6.25321C7.52391 6.97677 6.94561 7.5372 6.23329 7.61682C5.41988 7.70773 4.58012 7.70773 3.76671 7.61682C3.05438 7.5372 2.47609 6.97677 2.39146 6.25321C2.29407 5.42056 2.29407 4.57941 2.39146 3.74676C2.47609 3.0232 3.05438 2.46277 3.7667 2.38315Z" fill="black"/>
<path fill-rule="evenodd" clip-rule="evenodd" d="M13.0667 3.87387C12.364 3.79534 11.636 3.79534 10.9333 3.87387C10.9203 3.87533 10.9074 3.88124 10.8967 3.8917C10.8864 3.90192 10.8823 3.91225 10.8813 3.92101C10.7975 4.63789 10.7975 5.36209 10.8813 6.07896C10.8823 6.08773 10.8864 6.09805 10.8967 6.10827C10.9074 6.11873 10.9203 6.12464 10.9333 6.1261C11.636 6.20463 12.364 6.20463 13.0667 6.1261C13.0797 6.12464 13.0926 6.11873 13.1033 6.10827C13.1136 6.09805 13.1177 6.08773 13.1187 6.07896C13.2025 5.36209 13.2025 4.63789 13.1187 3.92101C13.1177 3.91225 13.1136 3.90192 13.1033 3.8917C13.0926 3.88124 13.0797 3.87533 13.0667 3.87387ZM10.7667 2.38315C11.5801 2.29224 12.4199 2.29224 13.2333 2.38315C13.9456 2.46277 14.5239 3.0232 14.6085 3.74676C14.7059 4.57941 14.7059 5.42056 14.6085 6.25321C14.5239 6.97677 13.9456 7.5372 13.2333 7.61682C12.4199 7.70773 11.5801 7.70773 10.7667 7.61682C10.0544 7.5372 9.47609 6.97677 9.39146 6.25321C9.29407 5.42056 9.29407 4.57941 9.39146 3.74676C9.47609 3.0232 10.0544 2.46277 10.7667 2.38315Z" fill="black"/>
<path fill-rule="evenodd" clip-rule="evenodd" d="M20.0667 3.87387C19.364 3.79534 18.636 3.79534 17.9333 3.87387C17.9203 3.87533 17.9074 3.88124 17.8967 3.8917C17.8864 3.90192 17.8823 3.91225 17.8813 3.92101C17.7975 4.63789 17.7975 5.36209 17.8813 6.07896C17.8823 6.08773 17.8864 6.09805 17.8967 6.10827C17.9074 6.11873 17.9203 6.12464 17.9333 6.1261C18.636 6.20463 19.364 6.20463 20.0667 6.1261C20.0797 6.12464 20.0926 6.11873 20.1033 6.10827C20.1136 6.09805 20.1177 6.08773 20.1187 6.07896C20.2025 5.36209 20.2025 4.63789 20.1187 3.92101C20.1177 3.91225 20.1136 3.90192 20.1033 3.8917C20.0926 3.88124 20.0797 3.87533 20.0667 3.87387ZM17.7667 2.38315C18.5801 2.29224 19.4199 2.29224 20.2333 2.38315C20.9456 2.46277 21.5239 3.0232 21.6085 3.74676C21.7059 4.57941 21.7059 5.42056 21.6085 6.25321C21.5239 6.97677 20.9456 7.5372 20.2333 7.61682C19.4199 7.70773 18.5801 7.70773 17.7667 7.61682C17.0544 7.5372 16.4761 6.97677 16.3915 6.25321C16.2941 5.42056 16.2941 4.57941 16.3915 3.74676C16.4761 3.0232 17.0544 2.46277 17.7667 2.38315Z" fill="black"/>
<path fill-rule="evenodd" clip-rule="evenodd" d="M6.06668 10.8739C5.36399 10.7953 4.636 10.7953 3.93331 10.8739C3.92026 10.8753 3.90735 10.8812 3.89674 10.8917C3.88637 10.9019 3.88233 10.9122 3.8813 10.921C3.79746 11.6379 3.79746 12.3621 3.8813 13.079C3.88233 13.0877 3.88637 13.0981 3.89674 13.1083C3.90735 13.1187 3.92026 13.1246 3.93331 13.1261C4.636 13.2046 5.36399 13.2046 6.06668 13.1261C6.07973 13.1246 6.09264 13.1187 6.10325 13.1083C6.11362 13.0981 6.11766 13.0877 6.11869 13.079C6.20253 12.3621 6.20253 11.6379 6.11869 10.921C6.11766 10.9122 6.11362 10.9019 6.10325 10.8917C6.09264 10.8812 6.07973 10.8753 6.06668 10.8739ZM3.7667 9.38315C4.58012 9.29224 5.41988 9.29224 6.23329 9.38315C6.94561 9.46277 7.52391 10.0232 7.60853 10.7468C7.70592 11.5794 7.70592 12.4206 7.60853 13.2532C7.52391 13.9768 6.94561 14.5372 6.23329 14.6168C5.41988 14.7077 4.58012 14.7077 3.76671 14.6168C3.05438 14.5372 2.47609 13.9768 2.39146 13.2532C2.29407 12.4206 2.29407 11.5794 2.39146 10.7468C2.47609 10.0232 3.05438 9.46277 3.7667 9.38315Z" fill="black"/>
<path fill-rule="evenodd" clip-rule="evenodd" d="M13.0667 10.8739C12.364 10.7953 11.636 10.7953 10.9333 10.8739C10.9203 10.8753 10.9074 10.8812 10.8967 10.8917C10.8864 10.9019 10.8823 10.9122 10.8813 10.921C10.7975 11.6379 10.7975 12.3621 10.8813 13.079C10.8823 13.0877 10.8864 13.0981 10.8967 13.1083C10.9074 13.1187 10.9203 13.1246 10.9333 13.1261C11.636 13.2046 12.364 13.2046 13.0667 13.1261C13.0797 13.1246 13.0926 13.1187 13.1033 13.1083C13.1136 13.0981 13.1177 13.0877 13.1187 13.079C13.2025 12.3621 13.2025 11.6379 13.1187 10.921C13.1177 10.9122 13.1136 10.9019 13.1033 10.8917C13.0926 10.8812 13.0797 10.8753 13.0667 10.8739ZM10.7667 9.38315C11.5801 9.29224 12.4199 9.29224 13.2333 9.38315C13.9456 9.46277 14.5239 10.0232 14.6085 10.7468C14.7059 11.5794 14.7059 12.4206 14.6085 13.2532C14.5239 13.9768 13.9456 14.5372 13.2333 14.6168C12.4199 14.7077 11.5801 14.7077 10.7667 14.6168C10.0544 14.5372 9.47609 13.9768 9.39146 13.2532C9.29407 12.4206 9.29407 11.5794 9.39146 10.7468C9.47609 10.0232 10.0544 9.46277 10.7667 9.38315Z" fill="black"/>
<path fill-rule="evenodd" clip-rule="evenodd" d="M20.0667 10.8739C19.364 10.7953 18.636 10.7953 17.9333 10.8739C17.9203 10.8753 17.9074 10.8812 17.8967 10.8917C17.8864 10.9019 17.8823 10.9122 17.8813 10.921C17.7975 11.6379 17.7975 12.3621 17.8813 13.079C17.8823 13.0877 17.8864 13.0981 17.8967 13.1083C17.9074 13.1187 17.9203 13.1246 17.9333 13.1261C18.636 13.2046 19.364 13.2046 20.0667 13.1261C20.0797 13.1246 20.0926 13.1187 20.1033 13.1083C20.1136 13.0981 20.1177 13.0877 20.1187 13.079C20.2025 12.3621 20.2025 11.6379 20.1187 10.921C20.1177 10.9122 20.1136 10.9019 20.1033 10.8917C20.0926 10.8812 20.0797 10.8753 20.0667 10.8739ZM17.7667 9.38315C18.5801 9.29224 19.4199 9.29224 20.2333 9.38315C20.9456 9.46277 21.5239 10.0232 21.6085 10.7468C21.7059 11.5794 21.7059 12.4206 21.6085 13.2532C21.5239 13.9768 20.9456 14.5372 20.2333 14.6168C19.4199 14.7077 18.5801 14.7077 17.7667 14.6168C17.0544 14.5372 16.4761 13.9768 16.3915 13.2532C16.2941 12.4206 16.2941 11.5794 16.3915 10.7468C16.4761 10.0232 17.0544 9.46277 17.7667 9.38315Z" fill="black"/>
<path fill-rule="evenodd" clip-rule="evenodd" d="M6.06668 17.8739C5.36399 17.7953 4.636 17.7953 3.93331 17.8739C3.92026 17.8753 3.90735 17.8812 3.89674 17.8917C3.88637 17.9019 3.88233 17.9122 3.8813 17.921C3.79746 18.6379 3.79746 19.3621 3.8813 20.079C3.88233 20.0877 3.88637 20.0981 3.89674 20.1083C3.90735 20.1187 3.92026 20.1246 3.93331 20.1261C4.636 20.2046 5.36399 20.2046 6.06668 20.1261C6.07973 20.1246 6.09264 20.1187 6.10325 20.1083C6.11362 20.0981 6.11766 20.0877 6.11869 20.079C6.20253 19.3621 6.20253 18.6379 6.11869 17.921C6.11766 17.9122 6.11362 17.9019 6.10325 17.8917C6.09264 17.8812 6.07973 17.8753 6.06668 17.8739ZM3.7667 16.3832C4.58012 16.2922 5.41988 16.2922 6.23329 16.3832C6.94561 16.4628 7.52391 17.0232 7.60853 17.7468C7.70592 18.5794 7.70592 19.4206 7.60853 20.2532C7.52391 20.9768 6.94561 21.5372 6.23329 21.6168C5.41988 21.7077 4.58012 21.7077 3.76671 21.6168C3.05438 21.5372 2.47609 20.9768 2.39146 20.2532C2.29407 19.4206 2.29407 18.5794 2.39146 17.7468C2.47609 17.0232 3.05438 16.4628 3.7667 16.3832Z" fill="black"/>
<path fill-rule="evenodd" clip-rule="evenodd" d="M13.0667 17.8739C12.364 17.7953 11.636 17.7953 10.9333 17.8739C10.9203 17.8753 10.9074 17.8812 10.8967 17.8917C10.8864 17.9019 10.8823 17.9122 10.8813 17.921C10.7975 18.6379 10.7975 19.3621 10.8813 20.079C10.8823 20.0877 10.8864 20.0981 10.8967 20.1083C10.9074 20.1187 10.9203 20.1246 10.9333 20.1261C11.636 20.2046 12.364 20.2046 13.0667 20.1261C13.0797 20.1246 13.0926 20.1187 13.1033 20.1083C13.1136 20.0981 13.1177 20.0877 13.1187 20.079C13.2025 19.3621 13.2025 18.6379 13.1187 17.921C13.1177 17.9122 13.1136 17.9019 13.1033 17.8917C13.0926 17.8812 13.0797 17.8753 13.0667 17.8739ZM10.7667 16.3832C11.5801 16.2922 12.4199 16.2922 13.2333 16.3832C13.9456 16.4628 14.5239 17.0232 14.6085 17.7468C14.7059 18.5794 14.7059 19.4206 14.6085 20.2532C14.5239 20.9768 13.9456 21.5372 13.2333 21.6168C12.4199 21.7077 11.5801 21.7077 10.7667 21.6168C10.0544 21.5372 9.47609 20.9768 9.39146 20.2532C9.29407 19.4206 9.29407 18.5794 9.39146 17.7468C9.47609 17.0232 10.0544 16.4628 10.7667 16.3832Z" fill="black"/>
<path fill-rule="evenodd" clip-rule="evenodd" d="M20.0667 17.8739C19.364 17.7953 18.636 17.7953 17.9333 17.8739C17.9203 17.8753 17.9074 17.8812 17.8967 17.8917C17.8864 17.9019 17.8823 17.9122 17.8813 17.921C17.7975 18.6379 17.7975 19.3621 17.8813 20.079C17.8823 20.0877 17.8864 20.0981 17.8967 20.1083C17.9074 20.1187 17.9203 20.1246 17.9333 20.1261C18.636 20.2046 19.364 20.2046 20.0667 20.1261C20.0797 20.1246 20.0926 20.1187 20.1033 20.1083C20.1136 20.0981 20.1177 20.0877 20.1187 20.079C20.2025 19.3621 20.2025 18.6379 20.1187 17.921C20.1177 17.9122 20.1136 17.9019 20.1033 17.8917C20.0926 17.8812 20.0797 17.8753 20.0667 17.8739ZM17.7667 16.3832C18.5801 16.2922 19.4199 16.2922 20.2333 16.3832C20.9456 16.4628 21.5239 17.0232 21.6085 17.7468C21.7059 18.5794 21.7059 19.4206 21.6085 20.2532C21.5239 20.9768 20.9456 21.5372 20.2333 21.6168C19.4199 21.7077 18.5801 21.7077 17.7667 21.6168C17.0544 21.5372 16.4761 20.9768 16.3915 20.2532C16.2941 19.4206 16.2941 18.5794 16.3915 17.7468C16.4761 17.0232 17.0544 16.4628 17.7667 16.3832Z" fill="black"/>
</svg>
