<svg width="24" height="24" viewBox="0 0 24 24" fill="none" xmlns="http://www.w3.org/2000/svg">
<path fill-rule="evenodd" clip-rule="evenodd" d="M8.92916 4.4703C7.65795 4.32822 6.34204 4.32822 5.07082 4.4703C4.76193 4.50482 4.51833 4.74941 4.48359 5.04647C4.33178 6.34441 4.33178 7.65562 4.48359 8.95356C4.51833 9.25062 4.76193 9.49521 5.07082 9.52973C6.34204 9.67181 7.65795 9.67181 8.92916 9.52973C9.23805 9.49521 9.48165 9.25062 9.5164 8.95356C9.6682 7.65562 9.6682 6.34441 9.5164 5.04647C9.48165 4.74941 9.23805 4.50482 8.92916 4.4703ZM4.90421 2.97958C6.28616 2.82513 7.71383 2.82513 9.09577 2.97958C10.0866 3.09032 10.8891 3.87031 11.0062 4.87222C11.1716 6.28593 11.1716 7.7141 11.0062 9.12781C10.8891 10.1297 10.0866 10.9097 9.09577 11.0204C7.71383 11.1749 6.28616 11.1749 4.90421 11.0204C3.91337 10.9097 3.11093 10.1297 2.99375 9.12781C2.8284 7.7141 2.8284 6.28593 2.99375 4.87222C3.11093 3.87031 3.91337 3.09032 4.90421 2.97958Z" fill="black"/>
<path fill-rule="evenodd" clip-rule="evenodd" d="M8.92916 14.4703C7.65795 14.3282 6.34204 14.3282 5.07082 14.4703C4.76193 14.5048 4.51833 14.7494 4.48359 15.0465C4.33178 16.3444 4.33178 17.6556 4.48359 18.9536C4.51833 19.2506 4.76193 19.4952 5.07082 19.5297C6.34204 19.6718 7.65795 19.6718 8.92916 19.5297C9.23805 19.4952 9.48165 19.2506 9.5164 18.9536C9.6682 17.6556 9.6682 16.3444 9.5164 15.0465C9.48165 14.7494 9.23805 14.5048 8.92916 14.4703ZM4.90421 12.9796C6.28616 12.8251 7.71383 12.8251 9.09577 12.9796C10.0866 13.0903 10.8891 13.8703 11.0062 14.8722C11.1716 16.2859 11.1716 17.7141 11.0062 19.1278C10.8891 20.1297 10.0866 20.9097 9.09577 21.0205C7.71383 21.1749 6.28616 21.1749 4.90421 21.0205C3.91337 20.9097 3.11093 20.1297 2.99375 19.1278C2.8284 17.7141 2.8284 16.2859 2.99375 14.8722C3.11093 13.8703 3.91337 13.0903 4.90421 12.9796Z" fill="black"/>
<path fill-rule="evenodd" clip-rule="evenodd" d="M18.9292 4.4703C17.6579 4.32822 16.342 4.32822 15.0708 4.4703C14.7619 4.50482 14.5183 4.74941 14.4836 5.04647C14.3318 6.34441 14.3318 7.65562 14.4836 8.95356C14.5183 9.25062 14.7619 9.49521 15.0708 9.52973C16.342 9.67181 17.6579 9.67181 18.9292 9.52973C19.2381 9.49521 19.4817 9.25062 19.5164 8.95356C19.6682 7.65562 19.6682 6.34441 19.5164 5.04647C19.4817 4.74941 19.2381 4.50482 18.9292 4.4703ZM14.9042 2.97958C16.2862 2.82513 17.7138 2.82513 19.0958 2.97958C20.0866 3.09032 20.8891 3.87031 21.0062 4.87222C21.1716 6.28593 21.1716 7.7141 21.0062 9.12781C20.8891 10.1297 20.0866 10.9097 19.0958 11.0204C17.7138 11.1749 16.2862 11.1749 14.9042 11.0204C13.9134 10.9097 13.1109 10.1297 12.9937 9.12781C12.8284 7.7141 12.8284 6.28593 12.9937 4.87222C13.1109 3.87031 13.9134 3.09032 14.9042 2.97958Z" fill="black"/>
<path fill-rule="evenodd" clip-rule="evenodd" d="M18.9292 14.4703C17.6579 14.3282 16.342 14.3282 15.0708 14.4703C14.7619 14.5048 14.5183 14.7494 14.4836 15.0465C14.3318 16.3444 14.3318 17.6556 14.4836 18.9536C14.5183 19.2506 14.7619 19.4952 15.0708 19.5297C16.342 19.6718 17.6579 19.6718 18.9292 19.5297C19.2381 19.4952 19.4817 19.2506 19.5164 18.9536C19.6682 17.6556 19.6682 16.3444 19.5164 15.0465C19.4817 14.7494 19.2381 14.5048 18.9292 14.4703ZM14.9042 12.9796C16.2862 12.8251 17.7138 12.8251 19.0958 12.9796C20.0866 13.0903 20.8891 13.8703 21.0062 14.8722C21.1716 16.2859 21.1716 17.7141 21.0062 19.1278C20.8891 20.1297 20.0866 20.9097 19.0958 21.0205C17.7138 21.1749 16.2862 21.1749 14.9042 21.0205C13.9134 20.9097 13.1109 20.1297 12.9937 19.1278C12.8284 17.7141 12.8284 16.2859 12.9937 14.8722C13.1109 13.8703 13.9134 13.0903 14.9042 12.9796Z" fill="black"/>
</svg>
