<svg width="24" height="24" viewBox="0 0 24 24" fill="none" xmlns="http://www.w3.org/2000/svg">
<path d="M6 7.50001V7.20001C6 6.07991 6 5.51986 6.21799 5.09204C6.40973 4.71572 6.71547 4.40973 7.0918 4.21799C7.51962 4 8.08009 4 9.2002 4H17.8002C18.9203 4 19.48 4 19.9078 4.21799C20.2841 4.40973 20.5905 4.71572 20.7822 5.09204C21.0002 5.51986 21 6.07991 21 7.20001V13.8C21 14.9201 21.0002 15.4801 20.7822 15.908C20.5905 16.2843 20.2841 16.5902 19.9078 16.782C19.48 17 18.9201 17 17.8 17H10.5M10 11.2V16.8C10 17.9201 10.0002 18.4801 9.78223 18.908C9.59048 19.2843 9.28411 19.5902 8.90779 19.782C8.47996 20 7.9203 20 6.80019 20H6.2002C5.08009 20 4.51962 20 4.0918 19.782C3.71547 19.5902 3.40973 19.2843 3.21799 18.908C3 18.4801 3 17.9201 3 16.8V11.2C3 10.0799 3 9.51986 3.21799 9.09204C3.40973 8.71572 3.71547 8.40973 4.0918 8.21799C4.51962 8 5.08009 8 6.2002 8H6.80019C7.9203 8 8.47996 8 8.90779 8.21799C9.28411 8.40973 9.59048 8.71572 9.78223 9.09204C10.0002 9.51986 10 10.0799 10 11.2Z" stroke="black" stroke-width="2" stroke-linecap="round" stroke-linejoin="round"/>
</svg>
