<svg width="24" height="24" viewBox="0 0 24 24" fill="none" xmlns="http://www.w3.org/2000/svg">
<path d="M18 15H19M9 15H15M6 15H5M5 12H19M5 9H19M22 9.20001V14.8C22 15.9201 22.0002 16.4801 21.7822 16.908C21.5905 17.2843 21.2841 17.5902 20.9078 17.782C20.48 18 19.9203 18 18.8002 18H5.2002C4.08009 18 3.51962 18 3.0918 17.782C2.71547 17.5902 2.40973 17.2843 2.21799 16.908C2 16.4801 2 15.9201 2 14.8V9.20001C2 8.07991 2 7.51986 2.21799 7.09204C2.40973 6.71572 2.71547 6.40973 3.0918 6.21799C3.51962 6 4.08009 6 5.2002 6H18.8002C19.9203 6 20.48 6 20.9078 6.21799C21.2841 6.40973 21.5905 6.71572 21.7822 7.09204C22.0002 7.51986 22 8.07991 22 9.20001Z" stroke="black" stroke-width="2" stroke-linecap="round" stroke-linejoin="round"/>
</svg>
