<svg width="24" height="24" viewBox="0 0 24 24" fill="none" xmlns="http://www.w3.org/2000/svg">
<path d="M17 17.8V6.20001V6.19673C17 5.07881 17 4.51945 16.7822 4.09204C16.5905 3.71572 16.2841 3.40973 15.9078 3.21799C15.48 3 14.9203 3 13.8002 3H10.2002C9.08009 3 8.51962 3 8.0918 3.21799C7.71547 3.40973 7.40973 3.71572 7.21799 4.09204C7 4.51986 7 5.07991 7 6.20001V17.8C7 18.9201 7 19.4801 7.21799 19.908C7.40973 20.2843 7.71547 20.5902 8.0918 20.782C8.51962 21 9.08009 21 10.2002 21H13.8002C14.9203 21 15.48 21 15.9078 20.782C16.2841 20.5902 16.5905 20.2843 16.7822 19.908C17 19.4806 17 18.9212 17 17.8033V17.8Z" stroke="black" stroke-width="2" stroke-linecap="round" stroke-linejoin="round"/>
</svg>
