<svg width="24" height="24" viewBox="0 0 24 24" fill="none" xmlns="http://www.w3.org/2000/svg">
<path d="M20.1788 7.08728L19.4355 7.75625L20.1788 7.08728ZM17.4536 4.05933L16.7103 4.72829L17.4536 4.05933ZM3.21799 19.908L2.32698 20.362H2.32698L3.21799 19.908ZM4.0918 20.782L4.54579 19.891H4.54579L4.0918 20.782ZM4.0918 3.21799L4.54579 4.10899L4.0918 3.21799ZM3.21799 4.09204L4.10899 4.54603L3.21799 4.09204ZM16.7163 3.33435L17.2698 2.50152L17.2698 2.50152L16.7163 3.33435ZM16.1067 3.06287L16.3554 2.0943L16.1067 3.06287ZM20.9517 8.3313L19.9757 8.54938L20.9517 8.3313ZM20.7428 7.78595L19.8715 8.27672L20.7428 7.78595ZM20.7822 19.908L19.8912 19.454L20.7822 19.908ZM19.9078 20.782L19.4538 19.891L19.9078 20.782ZM17 21L17 22C17.2652 22 17.5196 21.8947 17.7071 21.7071C17.8946 21.5196 18 21.2652 18 21H17ZM7 21H6C6 21.5523 6.44771 22 7 22L7 21ZM7.21799 15.092L8.10899 15.546L7.21799 15.092ZM8.0918 14.218L8.54579 15.109L8.0918 14.218ZM16.7822 15.092L15.8912 15.546L16.7822 15.092ZM15.9078 14.218L16.3618 13.327L15.9078 14.218ZM15 8C15.5523 8 16 7.55228 16 7C16 6.44772 15.5523 6 15 6V8ZM9 6C8.44772 6 8 6.44772 8 7C8 7.55228 8.44772 8 9 8V6ZM22 17.8V9.22797H20V17.8H22ZM20.9221 6.41832L18.1969 3.39036L16.7103 4.72829L19.4355 7.75625L20.9221 6.41832ZM15.075 2H6.2002V4H15.075V2ZM2 6.20001V17.8H4V6.20001H2ZM6.2002 22H17.8002V20H6.2002V22ZM2 17.8C2 18.3436 1.99922 18.8114 2.03057 19.195C2.06287 19.5904 2.13419 19.9836 2.32698 20.362L4.10899 19.454C4.0838 19.4045 4.04612 19.3038 4.02393 19.0322C4.00078 18.7488 4 18.3766 4 17.8H2ZM6.2002 20C5.62367 20 5.25127 19.9992 4.96782 19.9761C4.69598 19.9538 4.59519 19.9161 4.54579 19.891L3.63781 21.673C4.01623 21.8658 4.40959 21.9371 4.80496 21.9694C5.18873 22.0008 5.65662 22 6.2002 22V20ZM2.32698 20.362C2.61449 20.9262 3.07311 21.3853 3.63781 21.673L4.54579 19.891C4.35784 19.7952 4.20498 19.6424 4.10899 19.454L2.32698 20.362ZM6.2002 2C5.65663 2 5.18874 1.99922 4.80498 2.03057C4.40962 2.06286 4.01624 2.13416 3.63781 2.32698L4.54579 4.10899C4.59517 4.08383 4.69595 4.04613 4.9678 4.02393C5.25126 4.00078 5.62365 4 6.2002 4V2ZM4 6.20001C4 5.62346 4.00078 5.25119 4.02393 4.96785C4.04612 4.69619 4.0838 4.59548 4.10899 4.54603L2.32698 3.63805C2.13419 4.01643 2.06287 4.40964 2.03057 4.80499C1.99922 5.18866 2 5.65646 2 6.20001H4ZM3.63781 2.32698C3.07306 2.61473 2.61447 3.07382 2.32698 3.63805L4.10899 4.54603C4.205 4.35761 4.35788 4.20474 4.54579 4.10899L3.63781 2.32698ZM18.1969 3.39036C17.8798 3.03802 17.61 2.7276 17.2698 2.50152L16.1628 4.16719C16.2436 4.22088 16.3253 4.3005 16.7103 4.72829L18.1969 3.39036ZM15.075 4C15.6511 4 15.7641 4.00733 15.8579 4.03143L16.3554 2.0943C15.9597 1.99267 15.5485 2 15.075 2V4ZM17.2698 2.50152C16.9899 2.31549 16.6807 2.17785 16.3554 2.0943L15.8579 4.03143C15.9665 4.05932 16.0696 4.10525 16.1628 4.16719L17.2698 2.50152ZM22 9.22797C22 8.81701 22.0053 8.46114 21.9276 8.11322L19.9757 8.54938C19.9943 8.6323 20 8.73063 20 9.22797H22ZM19.4355 7.75625C19.7686 8.12635 19.8298 8.20281 19.8715 8.27672L21.614 7.29518C21.439 6.98444 21.1966 6.72334 20.9221 6.41832L19.4355 7.75625ZM21.9276 8.11322C21.8638 7.82777 21.7587 7.55205 21.614 7.29518L19.8715 8.27672C19.9189 8.36099 19.9541 8.45271 19.9757 8.54938L21.9276 8.11322ZM20 17.8C20 18.3767 19.9993 18.7489 19.9762 19.0323C19.954 19.304 19.9164 19.4046 19.8912 19.454L21.6732 20.362C21.8661 19.9835 21.9373 19.5902 21.9695 19.1949C22.0008 18.8113 22 18.3435 22 17.8H20ZM17.8002 22C18.3438 22 18.8115 22.0008 19.1951 21.9694C19.5904 21.9371 19.9835 21.8657 20.3618 21.673L19.4538 19.891C19.4043 19.9162 19.3036 19.9539 19.0321 19.9761C18.7489 19.9992 18.3767 20 17.8002 20V22ZM19.8912 19.454C19.7956 19.6417 19.6424 19.7949 19.4538 19.891L20.3618 21.673C20.9258 21.3856 21.3854 20.9269 21.6732 20.362L19.8912 19.454ZM16 17.2V21H18V17.2H16ZM17 20L7 20L7 22L17 22L17 20ZM8 21V17.2H6V21H8ZM10.2002 15H13.8002V13H10.2002V15ZM8 17.2C8 16.6235 8.00078 16.2512 8.02393 15.9679C8.04612 15.6962 8.0838 15.5955 8.10899 15.546L6.32698 14.6381C6.13419 15.0164 6.06287 15.4096 6.03057 15.805C5.99922 16.1887 6 16.6565 6 17.2H8ZM10.2002 13C9.65663 13 9.18874 12.9992 8.80498 13.0306C8.40962 13.0629 8.01624 13.1342 7.63781 13.327L8.54579 15.109C8.59517 15.0838 8.69595 15.0461 8.9678 15.0239C9.25126 15.0008 9.62365 15 10.2002 15V13ZM8.10899 15.546C8.205 15.3576 8.35788 15.2047 8.54579 15.109L7.63781 13.327C7.07306 13.6147 6.61447 14.0738 6.32698 14.6381L8.10899 15.546ZM18 17.2C18 16.6566 18.0008 16.1888 17.9696 15.8051C17.9373 15.4099 17.8661 15.0165 17.6732 14.6381L15.8912 15.546C15.9164 15.5954 15.954 15.696 15.9762 15.9677C15.9993 16.2511 16 16.6234 16 17.2H18ZM13.8002 15C14.3768 15 14.7489 15.0008 15.0321 15.0239C15.3036 15.0461 15.4043 15.0838 15.4538 15.109L16.3618 13.327C15.9835 13.1342 15.5904 13.0629 15.1951 13.0306C14.8115 12.9992 14.3437 13 13.8002 13V15ZM17.6732 14.6381C17.3854 14.0732 16.9259 13.6144 16.3618 13.327L15.4538 15.109C15.6424 15.2051 15.7956 15.3583 15.8912 15.546L17.6732 14.6381ZM15 6H9V8H15V6Z" fill="black"/>
</svg>
