<svg width="24" height="24" viewBox="0 0 24 24" fill="none" xmlns="http://www.w3.org/2000/svg">
<path d="M20 17.8V6.20001V6.19673C20 5.07881 20 4.51945 19.7822 4.09204C19.5905 3.71572 19.2841 3.40973 18.9078 3.21799C18.48 3 17.9203 3 16.8002 3H7.2002C6.08009 3 5.51962 3 5.0918 3.21799C4.71547 3.40973 4.40973 3.71572 4.21799 4.09204C4 4.51986 4 5.07991 4 6.20001V17.8C4 18.9201 4 19.4801 4.21799 19.908C4.40973 20.2843 4.71547 20.5902 5.0918 20.782C5.51962 21 6.08009 21 7.2002 21H16.8002C17.9203 21 18.48 21 18.9078 20.782C19.2841 20.5902 19.5905 20.2843 19.7822 19.908C20 19.4806 20 18.9212 20 17.8033V17.8Z" stroke="black" stroke-width="2" stroke-linecap="round" stroke-linejoin="round"/>
</svg>
