<svg width="24" height="24" viewBox="0 0 24 24" fill="none" xmlns="http://www.w3.org/2000/svg">
<path d="M17 15H12M7 10L10 12.5L7 15M21 8.20001V15.8C21 16.9201 21.0002 17.4801 20.7822 17.908C20.5905 18.2843 20.2841 18.5902 19.9078 18.782C19.48 19 18.9203 19 17.8002 19H6.2002C5.08009 19 4.51962 19 4.0918 18.782C3.71547 18.5902 3.40973 18.2843 3.21799 17.908C3 17.4801 3 16.9201 3 15.8V8.20001C3 7.07991 3 6.51986 3.21799 6.09204C3.40973 5.71572 3.71547 5.40973 4.0918 5.21799C4.51962 5 5.08009 5 6.2002 5H17.8002C18.9203 5 19.48 5 19.9078 5.21799C20.2841 5.40973 20.5905 5.71572 20.7822 6.09204C21.0002 6.51986 21 7.07991 21 8.20001Z" stroke="black" stroke-width="2" stroke-linecap="round" stroke-linejoin="round"/>
</svg>
