<svg width="24" height="24" viewBox="0 0 24 24" fill="none" xmlns="http://www.w3.org/2000/svg">
<path d="M8.34326 14.59C8.8091 14.0905 9.37236 13.6917 9.99828 13.4182C10.6242 13.1447 11.2993 13.0024 11.9823 13C12.6654 12.9976 13.3418 13.1352 13.9696 13.4043C14.5974 13.6734 15.1636 14.0682 15.6329 14.5645M6.14941 11.544C6.89476 10.7447 7.79597 10.1067 8.79745 9.66912C9.79893 9.23158 10.8794 9.00386 11.9722 9.00005C13.0651 8.99623 14.1471 9.21637 15.1516 9.6469C16.1561 10.0774 17.062 10.7092 17.8129 11.5033M12 19C11.4477 19 11 18.5523 11 18C11 17.4477 11.4477 17 12 17C12.5523 17 13 17.4477 13 18C13 18.5523 12.5523 19 12 19Z" stroke="black" stroke-width="2" stroke-linecap="round" stroke-linejoin="round"/>
</svg>
