<svg width="24" height="24" viewBox="0 0 24 24" fill="none" xmlns="http://www.w3.org/2000/svg">
<path d="M7.61191 13.908C7.23525 14.312 7.25735 14.9447 7.66126 15.3214C8.06518 15.698 8.69796 15.6759 9.07462 15.272L7.61191 13.908ZM9.99828 13.4182L9.59794 12.5019L9.99828 13.4182ZM11.9823 13L11.9788 12L11.9823 13ZM14.9063 15.2516C15.2858 15.6529 15.9187 15.6706 16.32 15.2911C16.7213 14.9116 16.7389 14.2787 16.3595 13.8774L14.9063 15.2516ZM5.41806 10.8621C5.0414 11.266 5.0635 11.8987 5.46742 12.2754C5.87133 12.6521 6.50411 12.63 6.88077 12.226L5.41806 10.8621ZM11.9634 10.0001C12.5157 9.99719 12.961 9.54712 12.9581 8.99485C12.9552 8.44257 12.5052 7.99722 11.9529 8.00014L11.9634 10.0001ZM2.49228 8.134C2.11562 8.53792 2.13772 9.1707 2.54163 9.54736C2.94555 9.92401 3.57833 9.90192 3.95499 9.498L2.49228 8.134ZM7.19618 6.00342L6.79587 5.08704V5.08704L7.19618 6.00342ZM11.9626 6.00006C12.5148 5.99818 12.961 5.54894 12.9592 4.99666C12.9573 4.44438 12.508 3.99819 11.9558 4.00007L11.9626 6.00006ZM15.2929 8.29286C14.9024 8.68338 14.9024 9.31655 15.2929 9.70707C15.6834 10.0976 16.3166 10.0976 16.7071 9.70707L15.2929 8.29286ZM20.7071 5.70711C21.0976 5.31658 21.0976 4.68342 20.7071 4.29289C20.3165 3.90237 19.6834 3.90237 19.2929 4.29289L20.7071 5.70711ZM16.7071 4.29295C16.3166 3.90243 15.6834 3.90243 15.2929 4.29295C14.9024 4.68348 14.9024 5.31664 15.2929 5.70717L16.7071 4.29295ZM19.2929 9.70713C19.6834 10.0977 20.3165 10.0977 20.7071 9.70714C21.0976 9.31661 21.0976 8.68345 20.7071 8.29292L19.2929 9.70713ZM9.07462 15.272C9.44729 14.8724 9.89789 14.5533 10.3986 14.3346L9.59794 12.5019C8.84683 12.83 8.17092 13.3086 7.61191 13.908L9.07462 15.272ZM10.3986 14.3346C10.8995 14.1158 11.4395 14.0019 11.9858 14L11.9788 12C11.1591 12.0029 10.3489 12.1737 9.59794 12.5019L10.3986 14.3346ZM11.9858 14C12.5323 13.9981 13.0734 14.1082 13.5756 14.3235L14.3635 12.4852C13.6102 12.1623 12.7985 11.9971 11.9788 12L11.9858 14ZM13.5756 14.3235C14.078 14.5388 14.5309 14.8547 14.9063 15.2516L16.3595 13.8774C15.7962 13.2818 15.1168 12.808 14.3635 12.4852L13.5756 14.3235ZM6.88077 12.226C7.53151 11.5282 8.31805 10.9708 9.19208 10.588L8.38975 8.75599C7.266 9.24814 6.25473 9.96483 5.41806 10.8621L6.88077 12.226ZM9.19208 10.588C10.0661 10.2052 11.0093 10.0051 11.9634 10.0001L11.9529 8.00014C10.7261 8.00661 9.51349 8.26385 8.38975 8.75599L9.19208 10.588ZM3.95499 9.498C4.97995 8.39886 6.21927 7.52141 7.59649 6.9198L6.79587 5.08704C5.16825 5.79804 3.7036 6.83502 2.49228 8.134L3.95499 9.498ZM7.59649 6.9198C8.97369 6.31819 10.4597 6.00517 11.9626 6.00006L11.9558 4.00007C10.1797 4.00611 8.4235 4.37603 6.79587 5.08704L7.59649 6.9198ZM12 18H10C10 19.1046 10.8954 20 12 20V18ZM12 18V20C13.1046 20 14 19.1046 14 18H12ZM12 18H14C14 16.8954 13.1046 16 12 16V18ZM12 16C10.8954 16 10 16.8954 10 18H12V16ZM16.7071 9.70707L20.7071 5.70711L19.2929 4.29289L15.2929 8.29286L16.7071 9.70707ZM15.2929 5.70717L19.2929 9.70713L20.7071 8.29292L16.7071 4.29295L15.2929 5.70717Z" fill="black"/>
</svg>
