<svg width="24" height="24" viewBox="0 0 24 24" fill="none" xmlns="http://www.w3.org/2000/svg">
<path d="M8.34326 14.59C8.8091 14.0905 9.37236 13.6917 9.99828 13.4182C10.6242 13.1448 11.2993 13.0024 11.9823 13C12.6654 12.9976 13.3418 13.1353 13.9696 13.4043C14.5974 13.6734 15.1636 14.0683 15.6329 14.5645M6.14941 11.5441C6.89476 10.7448 7.79597 10.1067 8.79745 9.66914C9.79893 9.2316 10.8794 9.00389 11.9722 9.00007C13.0651 8.99626 14.1471 9.2164 15.1516 9.64693C16.1561 10.0775 17.062 10.7092 17.8129 11.5033M3.22363 8.81605C4.34165 7.61712 5.69347 6.65998 7.19569 6.00367C8.69791 5.34737 10.3188 5.0058 11.9581 5.00007C13.5974 4.99435 15.2204 5.32459 16.7272 5.97039C18.234 6.61619 19.5923 7.56389 20.7186 8.75498M12 19C11.4477 19 11 18.5523 11 18C11 17.4477 11.4477 17 12 17C12.5523 17 13 17.4477 13 18C13 18.5523 12.5523 19 12 19Z" stroke="black" stroke-width="2" stroke-linecap="round" stroke-linejoin="round"/>
</svg>
