<svg width="24" height="24" viewBox="0 0 24 24" fill="none" xmlns="http://www.w3.org/2000/svg">
<path d="M4 6L20 6M16 16H13M8 12L10 14L8 16M3 16.8V7.20001C3 6.07991 3 5.51986 3.21799 5.09204C3.40973 4.71572 3.71547 4.40973 4.0918 4.21799C4.51962 4 5.08009 4 6.2002 4H17.8002C18.9203 4 19.48 4 19.9078 4.21799C20.2841 4.40973 20.5905 4.71572 20.7822 5.09204C21.0002 5.51986 21 6.07991 21 7.20001V16.8C21 17.9201 21.0002 18.4801 20.7822 18.908C20.5905 19.2843 20.2841 19.5903 19.9078 19.782C19.48 20 18.9203 20 17.8002 20L6.2002 20C5.08009 20 4.51962 20 4.0918 19.782C3.71547 19.5903 3.40973 19.2843 3.21799 18.908C3 18.4801 3 17.9201 3 16.8Z" stroke="black" stroke-width="2" stroke-linecap="round" stroke-linejoin="round"/>
</svg>
