<svg width="11" height="10" viewBox="0 0 11 10" fill="none" xmlns="http://www.w3.org/2000/svg">
<g clip-path="url(#clip0_201_8731)">
<path d="M9.50168 2.14185C8.22805 2.48341 7.22298 2.75178 5.84204 2.75178C4.4611 2.75178 3.45604 2.48341 2.18241 2.14185L1.87744 3.11394C2.79235 3.50525 3.72079 3.78411 4.68316 4.12796L3.70726 9.46111L4.78227 9.76608L5.65144 6.41142H6.03265L6.90181 9.76608L7.97683 9.46111L7.00093 4.12796C7.96272 3.81784 8.89174 3.50525 9.80664 3.133L9.50168 2.14185Z" fill="black"/>
<path d="M5.84181 2.14187C5.6307 2.14187 5.42433 2.07927 5.2488 1.96198C5.07326 1.84469 4.93645 1.67799 4.85566 1.48295C4.77488 1.28791 4.75374 1.07329 4.79492 0.866236C4.83611 0.659182 4.93777 0.46899 5.08705 0.319713C5.23632 0.170435 5.42652 0.0687758 5.63357 0.0275902C5.84062 -0.0135954 6.05524 0.00754257 6.25028 0.088331C6.44532 0.169119 6.61203 0.30593 6.72931 0.481462C6.8466 0.656994 6.9092 0.863363 6.9092 1.07447C6.9089 1.35747 6.79634 1.62879 6.59623 1.8289C6.39612 2.02901 6.1248 2.14156 5.84181 2.14187Z" fill="black"/>
</g>
<defs>
<clipPath id="clip0_201_8731">
<rect width="9.75902" height="9.75902" fill="white" transform="translate(0.962402 0.00708008)"/>
</clipPath>
</defs>
</svg>
