<svg width="11" height="10" viewBox="0 0 11 10" fill="none" xmlns="http://www.w3.org/2000/svg">
<g clip-path="url(#clip0_201_8728)">
<path d="M5.43283 1.83686C5.85391 1.83686 6.19526 1.49551 6.19526 1.07444C6.19526 0.65336 5.85391 0.312012 5.43283 0.312012C5.01176 0.312012 4.67041 0.65336 4.67041 1.07444C4.67041 1.49551 5.01176 1.83686 5.43283 1.83686Z" stroke="black" stroke-width="0.609939" stroke-linejoin="round"/>
<path d="M4.44623 5.23818C4.50151 4.89394 4.52628 4.56115 4.4367 4.33108C4.36046 4.13324 4.19463 4.02249 3.99449 3.94701L2.23082 3.37634C2.00209 3.3001 1.78842 3.17239 1.77336 2.92003C1.7543 2.596 2.04021 2.38633 2.32612 2.46257C2.32612 2.46257 4.00345 3.05612 5.433 3.05612C6.86254 3.05612 8.52081 2.46524 8.52081 2.46524C8.8639 2.36994 9.09263 2.63679 9.09263 2.91869C9.09263 3.18955 8.88296 3.28485 8.63518 3.375L6.95784 3.98323C6.80536 4.04041 6.55757 4.15477 6.46227 4.32975C6.34791 4.53465 6.36697 4.89261 6.42224 5.23684L6.5347 5.80161L7.24775 8.92564C7.30112 9.17629 7.12767 9.41054 6.87798 9.45438C6.62829 9.49822 6.42415 9.32782 6.35019 9.08537L5.63428 6.87567C5.59984 6.7697 5.56934 6.66251 5.54279 6.55412L5.433 6.10658L5.33198 6.51924C5.29995 6.65076 5.2631 6.78088 5.22142 6.9096L4.51809 9.08346C4.44185 9.32839 4.24171 9.49803 3.99202 9.45438C3.74232 9.41073 3.56506 9.15722 3.6211 8.92564L4.33377 5.80294L4.44623 5.23818Z" stroke="black" stroke-width="0.609939" stroke-linejoin="round"/>
</g>
<defs>
<clipPath id="clip0_201_8728">
<rect width="9.75902" height="9.75902" fill="white" transform="translate(0.553223 0.00708008)"/>
</clipPath>
</defs>
</svg>
