<svg width="11" height="10" viewBox="0 0 11 10" fill="none" xmlns="http://www.w3.org/2000/svg">
<g clip-path="url(#clip0_201_8734)">
<path d="M5.25148 2.14187C5.04037 2.14187 4.834 2.07927 4.65846 1.96198C4.48293 1.84469 4.34612 1.67799 4.26533 1.48295C4.18454 1.28791 4.16341 1.07329 4.20459 0.866236C4.24578 0.659182 4.34744 0.46899 4.49671 0.319713C4.64599 0.170435 4.83618 0.0687758 5.04324 0.0275902C5.25029 -0.0135954 5.46491 0.00754257 5.65995 0.088331C5.85499 0.169119 6.02169 0.30593 6.13898 0.481462C6.25627 0.656994 6.31887 0.863363 6.31887 1.07447C6.31857 1.35747 6.20601 1.62879 6.0059 1.8289C5.80579 2.02901 5.53447 2.14156 5.25148 2.14187Z" fill="black"/>
<path d="M8.60618 2.15707L8.59761 2.15935L8.5896 2.16183C8.57054 2.16717 8.55148 2.17289 8.53242 2.1788C8.1777 2.28287 6.45615 2.76815 5.24333 2.76815C4.11627 2.76815 2.55045 2.34882 2.04953 2.20643C1.99968 2.18716 1.94877 2.17074 1.89705 2.15726C1.5349 2.06195 1.28711 2.42982 1.28711 2.76605C1.28711 3.09904 1.58636 3.25763 1.88847 3.37142V3.37675L3.70342 3.94362C3.88888 4.01471 3.93844 4.08733 3.96264 4.15023C4.04136 4.35208 3.97846 4.75178 3.95616 4.89131L3.84561 5.74903L3.23205 9.10732C3.23015 9.11647 3.22843 9.12581 3.22691 9.13534L3.22252 9.15955C3.1783 9.46737 3.40436 9.76605 3.83246 9.76605C4.20605 9.76605 4.37092 9.50816 4.4424 9.15726C4.4424 9.15726 4.9761 6.15388 5.24294 6.15388C5.50979 6.15388 6.0595 9.15726 6.0595 9.15726C6.13098 9.50816 6.29585 9.76605 6.66944 9.76605C7.09868 9.76605 7.32474 9.46604 7.27938 9.15726C7.27537 9.13096 7.27061 9.10503 7.26489 9.07987L6.64294 5.74942L6.53258 4.89169C6.45272 4.39211 6.51695 4.22705 6.53868 4.18835C6.53926 4.18744 6.53977 4.18649 6.54021 4.18549C6.56079 4.14737 6.65457 4.06198 6.87339 3.97983L8.57512 3.38495C8.58557 3.38217 8.59587 3.37886 8.60599 3.37504C8.91096 3.26068 9.21593 3.10247 9.21593 2.76643C9.21593 2.4304 8.96834 2.06195 8.60618 2.15707Z" fill="black"/>
</g>
<defs>
<clipPath id="clip0_201_8734">
<rect width="9.75902" height="9.75902" fill="white" transform="translate(0.37207 0.00708008)"/>
</clipPath>
</defs>
</svg>
