<svg width="11" height="10" viewBox="0 0 11 10" fill="none" xmlns="http://www.w3.org/2000/svg">
<g clip-path="url(#clip0_201_8743)">
<path d="M5.47974 0.921997C3.29368 0.921997 1.51514 2.70054 1.51514 4.8866C1.51514 7.07266 3.29368 8.8512 5.47974 8.8512C7.6658 8.8512 9.44434 7.07266 9.44434 4.8866C9.44434 2.70054 7.6658 0.921997 5.47974 0.921997ZM7.00459 5.19157H5.78471V6.41145C5.78471 6.49233 5.75258 6.5699 5.69538 6.62709C5.63819 6.68429 5.56062 6.71642 5.47974 6.71642C5.39886 6.71642 5.32129 6.68429 5.26409 6.62709C5.2069 6.5699 5.17477 6.49233 5.17477 6.41145V5.19157H3.95489C3.87401 5.19157 3.79644 5.15944 3.73925 5.10225C3.68205 5.04505 3.64992 4.96748 3.64992 4.8866C3.64992 4.80572 3.68205 4.72815 3.73925 4.67095C3.79644 4.61376 3.87401 4.58163 3.95489 4.58163H5.17477V3.36175C5.17477 3.28087 5.2069 3.2033 5.26409 3.14611C5.32129 3.08891 5.39886 3.05678 5.47974 3.05678C5.56062 3.05678 5.63819 3.08891 5.69538 3.14611C5.75258 3.2033 5.78471 3.28087 5.78471 3.36175V4.58163H7.00459C7.08547 4.58163 7.16304 4.61376 7.22023 4.67095C7.27742 4.72815 7.30955 4.80572 7.30955 4.8866C7.30955 4.96748 7.27742 5.04505 7.22023 5.10225C7.16304 5.15944 7.08547 5.19157 7.00459 5.19157Z" fill="black"/>
</g>
<defs>
<clipPath id="clip0_201_8743">
<rect width="9.75902" height="9.75902" fill="white" transform="translate(0.600098 0.00708008)"/>
</clipPath>
</defs>
</svg>
