<svg width="10" height="10" viewBox="0 0 10 10" fill="none" xmlns="http://www.w3.org/2000/svg">
<g clip-path="url(#clip0_201_8758)">
<path d="M3.61423 8.8512H3.10683C3.05585 8.85118 3.00569 8.83839 2.96093 8.81398C2.91617 8.78957 2.87824 8.75433 2.85062 8.71148C2.82299 8.66863 2.80655 8.61954 2.80279 8.56869C2.79904 8.51785 2.80809 8.46688 2.82912 8.42043L4.05777 5.70906L2.21289 5.66808L1.54005 6.4833C1.41178 6.64456 1.30942 6.71642 1.04829 6.71642H0.706724C0.652644 6.71816 0.598941 6.70683 0.550166 6.68341C0.501392 6.65998 0.458983 6.62515 0.426534 6.58185C0.381169 6.52066 0.336568 6.41697 0.380026 6.26906L0.757807 4.91576C0.760666 4.90566 0.764097 4.89556 0.767909 4.88565C0.768099 4.8847 0.768099 4.88373 0.767909 4.88279C0.763972 4.87288 0.7606 4.86277 0.757807 4.85248L0.379645 3.4906C0.338664 3.34555 0.383457 3.24415 0.42844 3.18449C0.458646 3.14441 0.497836 3.11197 0.542857 3.08979C0.587879 3.06761 0.637477 3.05631 0.687664 3.05678H1.04829C1.24328 3.05678 1.43255 3.14427 1.54387 3.28551L2.20279 4.08701L4.05777 4.05956L2.8295 1.35296C2.80844 1.30654 2.79936 1.25557 2.80307 1.20473C2.80679 1.1539 2.82319 1.1048 2.85077 1.06193C2.87836 1.01906 2.91625 0.983797 2.96098 0.959352C3.00571 0.934906 3.05586 0.922063 3.10683 0.921997H3.61975C3.69131 0.923435 3.76163 0.940974 3.82548 0.973312C3.88933 1.00565 3.94507 1.05196 3.98858 1.10879L6.3721 4.006L7.47323 3.97703C7.55386 3.97264 7.77725 3.97112 7.8289 3.97112C8.88219 3.97169 9.51119 4.31364 9.51119 4.8866C9.51119 5.06691 9.43914 5.40124 8.9571 5.61395C8.67252 5.73975 8.29284 5.80341 7.82852 5.80341C7.77744 5.80341 7.55462 5.80189 7.47285 5.7975L6.37191 5.76815L3.98248 8.66536C3.93894 8.72195 3.88324 8.76802 3.8195 8.80019C3.75576 8.83236 3.68561 8.84979 3.61423 8.8512Z" fill="black"/>
</g>
<defs>
<clipPath id="clip0_201_8758">
<rect width="9.75902" height="9.75902" fill="white" transform="translate(0.0571289 0.00708008)"/>
</clipPath>
</defs>
</svg>
