<svg width="11" height="10" viewBox="0 0 11 10" fill="none" xmlns="http://www.w3.org/2000/svg">
<path d="M8.39675 5.19154C8.39675 4.58837 8.21789 3.99874 7.88279 3.49722C7.54768 2.9957 7.07138 2.60482 6.51413 2.37399C5.95687 2.14317 5.34368 2.08277 4.75209 2.20045C4.16051 2.31812 3.61711 2.60857 3.1906 3.03508C2.76409 3.46159 2.47364 4.00499 2.35596 4.59658C2.23829 5.18816 2.29868 5.80135 2.52951 6.35861C2.76033 6.91587 3.15122 7.39216 3.65274 7.72727C4.15426 8.06237 4.74389 8.24123 5.34706 8.24123C6.15589 8.24123 6.93159 7.91993 7.50352 7.348C8.07545 6.77607 8.39675 6.00037 8.39675 5.19154Z" stroke="black" stroke-width="0.609939" stroke-miterlimit="10"/>
<path d="M3.17518 1.74565C3.01515 1.60871 2.81171 1.53299 2.60108 1.53198L2.5479 1.53351C2.0609 1.56286 1.68617 1.98944 1.6875 2.50407C1.6875 2.75586 1.77633 2.87328 1.89488 3.02309C1.90225 3.03272 1.91155 3.0407 1.92219 3.04651C1.93282 3.05232 1.94456 3.05583 1.95664 3.05683H1.97341C1.98286 3.05666 1.99214 3.05432 2.00053 3.04999C2.00893 3.04566 2.01621 3.03946 2.02183 3.03186L3.18014 1.89413C3.19003 1.88413 3.19776 1.8722 3.20284 1.85908C3.20792 1.84597 3.21025 1.83195 3.20968 1.81789C3.2092 1.80413 3.20589 1.79061 3.19996 1.77818C3.19402 1.76575 3.18559 1.75468 3.17518 1.74565V1.74565Z" stroke="black" stroke-width="0.609939" stroke-miterlimit="10"/>
<path d="M7.51652 1.74565C7.67655 1.60871 7.87999 1.53299 8.09062 1.53198L8.1438 1.53351C8.6308 1.56286 9.00553 1.98944 9.0042 2.50407C9.0042 2.75586 8.91537 2.87328 8.79682 3.02309C8.78943 3.03268 8.78012 3.04062 8.76949 3.0464C8.75885 3.05218 8.74712 3.05567 8.73506 3.05664H8.71829C8.70884 3.05647 8.69956 3.05413 8.69117 3.0498C8.68277 3.04547 8.67549 3.03927 8.66987 3.03167L7.51156 1.89413C7.50167 1.88413 7.49394 1.8722 7.48886 1.85908C7.48378 1.84597 7.48145 1.83195 7.48202 1.81789C7.4825 1.80413 7.48581 1.79061 7.49174 1.77818C7.49768 1.76575 7.50611 1.75468 7.51652 1.74565V1.74565Z" stroke="black" stroke-width="0.609939" stroke-miterlimit="10"/>
<path d="M5.34711 3.05676V5.19155H3.82227" stroke="black" stroke-width="0.609939" stroke-linecap="round" stroke-linejoin="round"/>
<path d="M8.3967 8.24131L7.63428 7.47888" stroke="black" stroke-width="0.609939" stroke-linecap="round" stroke-linejoin="round"/>
<path d="M2.29736 8.24131L3.05979 7.47888" stroke="black" stroke-width="0.609939" stroke-linecap="round" stroke-linejoin="round"/>
</svg>
