<svg width="11" height="10" viewBox="0 0 11 10" fill="none" xmlns="http://www.w3.org/2000/svg">
<path d="M8.57225 1.22896L8.50992 1.22705H8.50001C8.21925 1.22705 7.95583 1.3397 7.72768 1.51296C7.49952 1.68622 7.43262 1.8368 7.43262 1.8368L9.10995 3.47601C9.10995 3.47601 9.32438 3.36717 9.44561 3.21202C9.56683 3.05687 9.71779 2.8674 9.71855 2.50468C9.71989 1.82822 9.21669 1.26784 8.57225 1.22896Z" fill="black"/>
<path d="M2.9383 1.22896L3.00063 1.22705H3.01054C3.2913 1.22705 3.55472 1.3397 3.78287 1.51296C4.01103 1.68622 4.07793 1.8368 4.07793 1.8368L2.4006 3.47601C2.4006 3.47601 2.18617 3.36717 2.06494 3.21202C1.94372 3.05687 1.79276 2.86741 1.79199 2.50392C1.79066 1.82822 2.29386 1.26784 2.9383 1.22896Z" fill="black"/>
<path d="M8.33437 7.33773C8.33418 7.33752 8.33407 7.33725 8.33407 7.33697C8.33407 7.33669 8.33418 7.33642 8.33437 7.33621C8.97671 6.56387 9.28168 5.50106 9.01483 4.37629C8.75484 3.27992 7.6297 2.17117 6.53047 1.92395C4.34499 1.43257 2.40214 3.08932 2.40214 5.19151C2.40137 5.9755 2.67654 6.73475 3.17943 7.33621C3.17962 7.33642 3.17972 7.33669 3.17972 7.33697C3.17972 7.33725 3.17962 7.33752 3.17943 7.33773L2.26738 8.24121C2.26719 8.24142 2.26709 8.24169 2.26709 8.24197C2.26709 8.24225 2.26719 8.24252 2.26738 8.24273L2.70577 8.67178C2.70598 8.67197 2.70626 8.67208 2.70654 8.67208C2.70682 8.67208 2.70709 8.67197 2.7073 8.67178L3.61134 7.76888C3.61155 7.7687 3.61182 7.76859 3.61211 7.76859C3.61239 7.76859 3.61266 7.7687 3.61287 7.76888C4.21475 8.27108 4.97378 8.54615 5.75766 8.54615C6.54154 8.54615 7.30057 8.27108 7.90245 7.76888H7.90379L8.80516 8.67178C8.80537 8.67197 8.80564 8.67208 8.80592 8.67208C8.80621 8.67208 8.80648 8.67197 8.80669 8.67178L9.26262 8.24121L8.33437 7.33773ZM6.06177 5.49648H3.92699H3.92565V4.88845L3.92661 4.88749H5.45145V4.88654V2.75176H6.06139L6.06177 5.49648Z" fill="black"/>
</svg>
