<svg width="11" height="10" viewBox="0 0 11 10" fill="none" xmlns="http://www.w3.org/2000/svg">
<path d="M3.21245 2.11248C3.25252 2.07283 3.28394 2.02531 3.30473 1.9729C3.32552 1.9205 3.33522 1.86436 3.33323 1.80803C3.33125 1.75169 3.31761 1.69637 3.29318 1.64557C3.26875 1.59476 3.23406 1.54957 3.19129 1.51284C2.97608 1.32916 2.70265 1.22785 2.41972 1.22693L2.35739 1.22864H2.34824C1.70304 1.26791 1.19984 1.82829 1.20117 2.50399C1.20117 2.86614 1.35366 3.05789 1.47412 3.21133C1.50793 3.25422 1.5503 3.2896 1.59854 3.3152C1.64679 3.3408 1.69984 3.35606 1.75431 3.36C1.75927 3.36 1.76766 3.36095 1.79243 3.36095C1.84143 3.36088 1.88991 3.3509 1.93495 3.3316C1.97999 3.31231 2.02066 3.28411 2.05452 3.24869L3.21245 2.11248Z" fill="black"/>
<path d="M7.98168 1.22908L7.91936 1.22717H7.90944C7.62625 1.22791 7.35252 1.32924 7.13711 1.51308C7.0944 1.54981 7.05976 1.59498 7.03537 1.64575C7.01098 1.69652 6.99736 1.75179 6.99537 1.80808C6.99338 1.86437 7.00307 1.92047 7.02382 1.97283C7.04458 2.0252 7.07594 2.0727 7.11595 2.11235L8.27426 3.24931C8.30819 3.28486 8.34898 3.31315 8.39416 3.33248C8.43934 3.35181 8.48797 3.36177 8.53711 3.36177C8.56151 3.36177 8.56989 3.36177 8.57523 3.36081C8.62967 3.35685 8.68269 3.34158 8.73089 3.31598C8.7791 3.29038 8.82145 3.25502 8.85523 3.21214C8.97646 3.0587 9.12742 2.86753 9.12818 2.5048C9.12932 1.82834 8.62612 1.26796 7.98168 1.22908Z" fill="black"/>
<path d="M5.16582 1.83679C3.31695 1.83679 1.81116 3.34163 1.81116 5.19146C1.81051 5.97576 2.08588 6.73527 2.58902 7.33692L1.90056 8.02557C1.87156 8.05374 1.84846 8.0874 1.83259 8.12458C1.81672 8.16175 1.8084 8.20172 1.80811 8.24214C1.80783 8.28256 1.81558 8.32264 1.83092 8.36004C1.84626 8.39744 1.86889 8.43142 1.89748 8.46C1.92607 8.48857 1.96005 8.51118 1.99746 8.52651C2.03487 8.54183 2.07495 8.54957 2.11537 8.54926C2.15579 8.54896 2.19575 8.54062 2.23292 8.52473C2.2701 8.50885 2.30374 8.48573 2.3319 8.45672L3.02036 7.76826C3.62233 8.27084 4.38163 8.54614 5.16582 8.54614C5.95001 8.54614 6.70932 8.27084 7.31128 7.76826L7.99994 8.45672C8.0281 8.48573 8.06174 8.50885 8.09891 8.52473C8.13609 8.54062 8.17605 8.54896 8.21647 8.54926C8.25689 8.54957 8.29697 8.54183 8.33438 8.52651C8.37179 8.51118 8.40577 8.48857 8.43436 8.46C8.46295 8.43142 8.48558 8.39744 8.50092 8.36004C8.51626 8.32264 8.52401 8.28256 8.52373 8.24214C8.52344 8.20172 8.51512 8.16175 8.49925 8.12458C8.48338 8.0874 8.46028 8.05374 8.43128 8.02557L7.74263 7.33692C8.24586 6.73532 8.52124 5.97577 8.52049 5.19146C8.52049 3.34258 7.01565 1.83679 5.16582 1.83679ZM5.47079 5.19146C5.47079 5.27234 5.43866 5.34991 5.38147 5.4071C5.32428 5.46429 5.24671 5.49642 5.16582 5.49642H3.64098C3.56009 5.49642 3.48252 5.46429 3.42533 5.4071C3.36814 5.34991 3.33601 5.27234 3.33601 5.19146C3.33601 5.11057 3.36814 5.033 3.42533 4.97581C3.48252 4.91862 3.56009 4.88649 3.64098 4.88649H4.86086V3.05667C4.86086 2.97579 4.89299 2.89822 4.95018 2.84102C5.00737 2.78383 5.08494 2.7517 5.16582 2.7517C5.24671 2.7517 5.32428 2.78383 5.38147 2.84102C5.43866 2.89822 5.47079 2.97579 5.47079 3.05667V5.19146Z" fill="black"/>
</svg>
