<svg width="11" height="10" viewBox="0 0 11 10" fill="none" xmlns="http://www.w3.org/2000/svg">
<g clip-path="url(#clip0_201_8794)">
<path d="M5.62183 0.921997C3.43577 0.921997 1.65723 2.70054 1.65723 4.8866C1.65723 7.07266 3.43577 8.8512 5.62183 8.8512C7.80789 8.8512 9.58643 7.07266 9.58643 4.8866C9.58643 2.70054 7.80789 0.921997 5.62183 0.921997ZM5.62183 7.01967C5.54643 7.01967 5.47273 6.99731 5.41004 6.95542C5.34735 6.91354 5.29849 6.854 5.26963 6.78434C5.24078 6.71468 5.23323 6.63803 5.24794 6.56409C5.26265 6.49014 5.29896 6.42221 5.35227 6.3689C5.40558 6.31559 5.47351 6.27928 5.54746 6.26457C5.62141 6.24986 5.69805 6.25741 5.76771 6.28626C5.83737 6.31512 5.89691 6.36398 5.93879 6.42667C5.98068 6.48936 6.00304 6.56306 6.00304 6.63846C6.00304 6.73956 5.96288 6.83652 5.89139 6.90802C5.81989 6.97951 5.72293 7.01967 5.62183 7.01967ZM6.03582 3.18563L5.92642 5.51102C5.92642 5.59191 5.89429 5.66948 5.83709 5.72667C5.7799 5.78386 5.70233 5.81599 5.62145 5.81599C5.54056 5.81599 5.46299 5.78386 5.4058 5.72667C5.34861 5.66948 5.31648 5.59191 5.31648 5.51102L5.20707 3.18678V3.18582C5.20467 3.12996 5.2136 3.07419 5.23333 3.02187C5.25305 2.96956 5.28316 2.92177 5.32184 2.8814C5.36052 2.84102 5.40697 2.80889 5.45839 2.78694C5.50982 2.76499 5.56515 2.75368 5.62107 2.75368C5.67698 2.75368 5.73231 2.76499 5.78374 2.78694C5.83516 2.80889 5.88161 2.84102 5.92029 2.8814C5.95897 2.92177 5.98908 2.96956 6.0088 3.02187C6.02853 3.07419 6.03746 3.12996 6.03506 3.18582L6.03582 3.18563Z" fill="black"/>
</g>
<defs>
<clipPath id="clip0_201_8794">
<rect width="9.75902" height="9.75902" fill="white" transform="translate(0.742188 0.00708008)"/>
</clipPath>
</defs>
</svg>
