<svg width="11" height="10" viewBox="0 0 11 10" fill="none" xmlns="http://www.w3.org/2000/svg">
<path d="M5.84997 1.53198C5.68491 1.53198 5.53395 1.67227 5.54501 1.83695L5.69749 5.95404C5.69749 5.99448 5.71356 6.03327 5.74215 6.06186C5.77075 6.09046 5.80953 6.10652 5.84997 6.10652C5.89042 6.10652 5.9292 6.09046 5.9578 6.06186C5.98639 6.03327 6.00246 5.99448 6.00246 5.95404L6.15494 1.83695C6.166 1.67227 6.01504 1.53198 5.84997 1.53198Z" stroke="black" stroke-width="0.609939" stroke-linecap="round" stroke-linejoin="round"/>
<path d="M5.84989 8.24116C6.01832 8.24116 6.15486 8.10462 6.15486 7.9362C6.15486 7.76777 6.01832 7.63123 5.84989 7.63123C5.68146 7.63123 5.54492 7.76777 5.54492 7.9362C5.54492 8.10462 5.68146 8.24116 5.84989 8.24116Z" stroke="black" stroke-width="0.609939" stroke-linecap="round" stroke-linejoin="round"/>
</svg>
