<svg width="10" height="10" viewBox="0 0 10 10" fill="none" xmlns="http://www.w3.org/2000/svg">
<g clip-path="url(#clip0_201_8817)">
<path d="M2.5253 2.33362C1.67958 3.17934 1.25377 4.2513 1.03857 5.10274L4.86213 8.92553C5.71356 8.7111 6.78553 8.28529 7.63125 7.43881C8.47697 6.59233 8.90278 5.52112 9.11798 4.66968L5.29442 0.847656C4.44299 1.06209 3.37102 1.4879 2.5253 2.33362ZM5.92933 3.60953L6.35533 3.18467C6.41254 3.13277 6.48752 3.10486 6.56474 3.10674C6.64196 3.10861 6.71551 3.14012 6.77012 3.19474C6.82474 3.24936 6.85626 3.3229 6.85813 3.40013C6.86001 3.47735 6.8321 3.55233 6.7802 3.60953L6.35533 4.03554L6.56805 4.24845C6.62447 4.30486 6.65616 4.38138 6.65616 4.46116C6.65616 4.54095 6.62447 4.61746 6.56805 4.67388C6.51163 4.73029 6.43512 4.76199 6.35533 4.76199C6.27555 4.76199 6.19903 4.73029 6.14262 4.67388L5.9299 4.46116L5.50371 4.88659L5.71642 5.09931C5.77284 5.15573 5.80453 5.23224 5.80453 5.31203C5.80453 5.39181 5.77284 5.46833 5.71642 5.52474C5.66001 5.58116 5.58349 5.61285 5.50371 5.61285C5.42392 5.61285 5.34741 5.58116 5.29099 5.52474L5.07828 5.31203L4.65284 5.73765L4.86556 5.95037C4.89349 5.9783 4.91565 6.01146 4.93077 6.04796C4.94589 6.08446 4.95367 6.12358 4.95367 6.16308C4.95367 6.20259 4.94589 6.2417 4.93077 6.2782C4.91565 6.3147 4.89349 6.34786 4.86556 6.3758C4.83762 6.40373 4.80446 6.42589 4.76796 6.44101C4.73147 6.45613 4.69235 6.46391 4.65284 6.46391C4.61334 6.46391 4.57422 6.45613 4.53772 6.44101C4.50122 6.42589 4.46806 6.40373 4.44013 6.3758L4.22722 6.16365L3.80122 6.58851C3.74401 6.64042 3.66903 6.66833 3.59181 6.66645C3.51459 6.66458 3.44105 6.63306 3.38643 6.57844C3.33181 6.52382 3.30029 6.45028 3.29842 6.37306C3.29654 6.29584 3.32445 6.22086 3.37636 6.16365L3.80122 5.73765L3.5885 5.52474C3.53208 5.46833 3.50039 5.39181 3.50039 5.31203C3.50039 5.23224 3.53208 5.15573 3.5885 5.09931C3.64492 5.04289 3.72143 5.0112 3.80122 5.0112C3.881 5.0112 3.95752 5.04289 4.01393 5.09931L4.22665 5.31203L4.65284 4.88659L4.44013 4.67388C4.41219 4.64594 4.39003 4.61278 4.37492 4.57628C4.3598 4.53979 4.35202 4.50067 4.35202 4.46116C4.35202 4.42166 4.3598 4.38254 4.37492 4.34604C4.39003 4.30954 4.41219 4.27638 4.44013 4.24845C4.46806 4.22051 4.50122 4.19835 4.53772 4.18323C4.57422 4.16812 4.61334 4.16034 4.65284 4.16034C4.69235 4.16034 4.73147 4.16812 4.76796 4.18323C4.80446 4.19835 4.83762 4.22051 4.86556 4.24845L5.07828 4.46116L5.50371 4.03554L5.29099 3.82282C5.23458 3.76641 5.20288 3.68989 5.20288 3.61011C5.20288 3.53032 5.23458 3.45381 5.29099 3.39739C5.34741 3.34097 5.42392 3.30928 5.50371 3.30928C5.58349 3.30928 5.66001 3.34097 5.71642 3.39739L5.92933 3.60953Z" fill="black"/>
<path d="M9.28217 3.81206C9.42151 2.77269 9.35841 1.51983 8.90096 1.06333C8.44351 0.606831 7.19161 0.542978 6.15223 0.68212C6.10439 0.688601 6.05388 0.695844 6.00146 0.70404L9.26082 3.9634C9.26845 3.91041 9.27569 3.8599 9.28217 3.81206Z" fill="black"/>
<path d="M0.874158 5.9611C0.734825 7.00048 0.797915 8.25333 1.25537 8.70983C1.57444 9.02909 2.28293 9.15623 3.03582 9.15623C3.3596 9.15571 3.68299 9.13387 4.00391 9.09085C4.05175 9.08437 4.10226 9.07713 4.15468 9.06893L0.895315 5.80957C0.887881 5.86275 0.880638 5.91326 0.874158 5.9611Z" fill="black"/>
</g>
<defs>
<clipPath id="clip0_201_8817">
<rect width="9.75902" height="9.75902" fill="white" transform="translate(0.19873 0.00708008)"/>
</clipPath>
</defs>
</svg>
