<svg width="10" height="10" viewBox="0 0 10 10" fill="none" xmlns="http://www.w3.org/2000/svg">
<g clip-path="url(#clip0_201_8829)">
<path d="M8.59466 2.4469C8.45837 2.44694 8.32396 2.47876 8.20211 2.53983C8.08026 2.60089 7.97433 2.68952 7.89272 2.79868C7.81111 2.90784 7.75607 3.03452 7.73197 3.16867C7.70788 3.30282 7.71538 3.44074 7.7539 3.57147L6.39355 4.93164C6.21414 4.87187 6.0202 4.87187 5.84079 4.93164L4.83229 3.92314C4.86548 3.79365 4.86862 3.65828 4.84146 3.52739C4.81431 3.39649 4.75759 3.27354 4.67563 3.16793C4.59367 3.06232 4.48865 2.97685 4.3686 2.91806C4.24854 2.85926 4.11663 2.82869 3.98296 2.82869C3.84928 2.82869 3.71737 2.85926 3.59731 2.91806C3.47726 2.97685 3.37224 3.06232 3.29028 3.16793C3.20832 3.27354 3.1516 3.39649 3.12445 3.52739C3.09729 3.65828 3.10043 3.79365 3.13362 3.92314L1.44694 5.60867C1.25969 5.55324 1.0593 5.5618 0.877447 5.63299C0.695598 5.70419 0.542664 5.83396 0.442816 6.0018C0.342968 6.16963 0.301903 6.36595 0.326112 6.55974C0.35032 6.75352 0.438421 6.93371 0.576489 7.07182C0.714557 7.20993 0.894717 7.29809 1.08849 7.32236C1.28227 7.34663 1.4786 7.30563 1.64647 7.20584C1.81434 7.10604 1.94416 6.95315 2.01541 6.77132C2.08666 6.5895 2.09529 6.38911 2.03992 6.20184L3.70524 4.5367C3.88464 4.59651 4.0786 4.59651 4.258 4.5367L5.26669 5.54539C5.2335 5.67488 5.23036 5.81025 5.25752 5.94114C5.28467 6.07204 5.34139 6.19499 5.42335 6.3006C5.50531 6.40621 5.61033 6.49168 5.73038 6.55047C5.85044 6.60927 5.98235 6.63984 6.11603 6.63984C6.2497 6.63984 6.38162 6.60927 6.50167 6.55047C6.62172 6.49168 6.72674 6.40621 6.8087 6.3006C6.89066 6.19499 6.94738 6.07204 6.97453 5.94114C7.00169 5.81025 6.99855 5.67488 6.96536 5.54539L8.34688 4.16464C8.46748 4.20022 8.59433 4.20944 8.71882 4.19168C8.8433 4.17392 8.96251 4.12959 9.06836 4.0617C9.1742 3.99381 9.2642 3.90395 9.33226 3.79821C9.40031 3.69247 9.44483 3.57333 9.46278 3.44887C9.48073 3.32441 9.47171 3.19755 9.43631 3.07689C9.40092 2.95622 9.33998 2.84459 9.25764 2.74955C9.1753 2.65451 9.07348 2.5783 8.95909 2.52608C8.8447 2.47386 8.72041 2.44685 8.59466 2.4469Z" fill="black"/>
</g>
<defs>
<clipPath id="clip0_201_8829">
<rect width="9.75902" height="9.75902" fill="white" transform="translate(0.0175781 0.00708008)"/>
</clipPath>
</defs>
</svg>
