<svg width="11" height="10" viewBox="0 0 11 10" fill="none" xmlns="http://www.w3.org/2000/svg">
<g clip-path="url(#clip0_201_8831)">
<path d="M9.11825 2.4469C8.99411 2.44693 8.87186 2.47727 8.76212 2.53529C8.65237 2.5933 8.55845 2.67724 8.48852 2.7798C8.41859 2.88236 8.37475 3.00045 8.36083 3.1238C8.34691 3.24715 8.36331 3.37204 8.40862 3.48761L6.80429 5.09194C6.62545 5.02154 6.42657 5.02154 6.24772 5.09194L5.10085 3.94506C5.14626 3.82947 5.16275 3.70452 5.14887 3.5811C5.135 3.45769 5.09118 3.33952 5.02124 3.2369C4.95129 3.13427 4.85733 3.05028 4.74753 2.99224C4.63773 2.93419 4.51542 2.90385 4.39122 2.90385C4.26702 2.90385 4.14471 2.93419 4.03491 2.99224C3.92511 3.05028 3.83115 3.13427 3.7612 3.2369C3.69126 3.33952 3.64744 3.45769 3.63357 3.5811C3.61969 3.70452 3.63618 3.82947 3.68159 3.94506L1.7723 5.85436C1.60924 5.7904 1.42913 5.78453 1.26225 5.83774C1.09537 5.89095 0.951904 6 0.85597 6.14655C0.760037 6.2931 0.717488 6.46821 0.735479 6.64244C0.753469 6.81667 0.830901 6.97939 0.954755 7.10324C1.07861 7.2271 1.24133 7.30453 1.41556 7.32252C1.58979 7.34051 1.7649 7.29796 1.91145 7.20203C2.058 7.10609 2.16705 6.96263 2.22026 6.79575C2.27347 6.62887 2.2676 6.44876 2.20364 6.2857L4.11294 4.3764C4.29178 4.4468 4.49066 4.4468 4.6695 4.3764L5.81638 5.52328C5.77097 5.63887 5.75448 5.76382 5.76835 5.88724C5.78223 6.01065 5.82604 6.12882 5.89599 6.23145C5.96593 6.33407 6.05989 6.41806 6.16969 6.4761C6.27949 6.53415 6.40181 6.56449 6.52601 6.56449C6.6502 6.56449 6.77252 6.53415 6.88232 6.4761C6.99212 6.41806 7.08608 6.33407 7.15602 6.23145C7.22597 6.12882 7.26978 6.01065 7.28366 5.88724C7.29753 5.76382 7.28104 5.63887 7.23563 5.52328L8.83996 3.91895C8.94436 3.95996 9.05652 3.97744 9.16845 3.97012C9.28037 3.96281 9.38931 3.93089 9.48748 3.87665C9.58566 3.8224 9.67066 3.74716 9.73641 3.65629C9.80217 3.56542 9.84706 3.46116 9.8679 3.35095C9.88873 3.24073 9.885 3.12728 9.85695 3.01868C9.8289 2.91008 9.77724 2.809 9.70564 2.72266C9.63404 2.63632 9.54428 2.56683 9.44275 2.51917C9.34121 2.4715 9.23041 2.44683 9.11825 2.4469Z" fill="black"/>
</g>
<defs>
<clipPath id="clip0_201_8831">
<rect width="9.75902" height="9.75902" fill="white" transform="translate(0.426758 0.00708008)"/>
</clipPath>
</defs>
</svg>
