<svg width="11" height="10" viewBox="0 0 11 10" fill="none" xmlns="http://www.w3.org/2000/svg">
<g clip-path="url(#clip0_201_8821)">
<path d="M7.16455 5.34396L8.84188 3.66663" stroke="black" stroke-width="0.609939" stroke-linecap="round" stroke-linejoin="round"/>
<path d="M5.02979 4.12415L6.24966 5.34402" stroke="black" stroke-width="0.609939" stroke-linecap="round" stroke-linejoin="round"/>
<path d="M2.13281 6.10645L4.11511 4.12415" stroke="black" stroke-width="0.609939" stroke-linecap="round" stroke-linejoin="round"/>
<path d="M9.29974 3.66662C9.55238 3.66662 9.75719 3.46181 9.75719 3.20916C9.75719 2.95652 9.55238 2.75171 9.29974 2.75171C9.04709 2.75171 8.84229 2.95652 8.84229 3.20916C8.84229 3.46181 9.04709 3.66662 9.29974 3.66662Z" stroke="black" stroke-width="0.609939" stroke-linecap="round" stroke-linejoin="round"/>
<path d="M6.70745 6.2589C6.9601 6.2589 7.16491 6.05409 7.16491 5.80145C7.16491 5.5488 6.9601 5.34399 6.70745 5.34399C6.45481 5.34399 6.25 5.5488 6.25 5.80145C6.25 6.05409 6.45481 6.2589 6.70745 6.2589Z" stroke="black" stroke-width="0.609939" stroke-linecap="round" stroke-linejoin="round"/>
<path d="M4.57269 4.12414C4.82533 4.12414 5.03014 3.91933 5.03014 3.66668C5.03014 3.41404 4.82533 3.20923 4.57269 3.20923C4.32004 3.20923 4.11523 3.41404 4.11523 3.66668C4.11523 3.91933 4.32004 4.12414 4.57269 4.12414Z" stroke="black" stroke-width="0.609939" stroke-linecap="round" stroke-linejoin="round"/>
<path d="M1.67523 7.02135C1.92787 7.02135 2.13268 6.81654 2.13268 6.5639C2.13268 6.31125 1.92787 6.10645 1.67523 6.10645C1.42258 6.10645 1.21777 6.31125 1.21777 6.5639C1.21777 6.81654 1.42258 7.02135 1.67523 7.02135Z" stroke="black" stroke-width="0.609939" stroke-linecap="round" stroke-linejoin="round"/>
</g>
<defs>
<clipPath id="clip0_201_8821">
<rect width="9.75902" height="9.75902" fill="white" transform="translate(0.60791 0.00708008)"/>
</clipPath>
</defs>
</svg>
