<svg width="11" height="10" viewBox="0 0 11 10" fill="none" xmlns="http://www.w3.org/2000/svg">
<g clip-path="url(#clip0_201_8833)">
<path d="M9.37542 4.88656C9.37542 2.86614 7.73621 1.22693 5.71579 1.22693C3.69536 1.22693 2.05615 2.86614 2.05615 4.88656C2.05615 6.90698 3.69536 8.54619 5.71579 8.54619C7.73621 8.54619 9.37542 6.90698 9.37542 4.88656Z" stroke="black" stroke-width="0.609939" stroke-miterlimit="10"/>
<path d="M7.69824 1.81006V5.64905" stroke="black" stroke-width="0.609939" stroke-linecap="round" stroke-linejoin="round"/>
<path d="M9.2829 4.06458L6.47852 6.86896" stroke="black" stroke-width="0.609939" stroke-linecap="round" stroke-linejoin="round"/>
<path d="M8.79261 6.8689H4.95361" stroke="black" stroke-width="0.609939" stroke-linecap="round" stroke-linejoin="round"/>
<path d="M6.53818 8.45347L3.79346 5.70874" stroke="black" stroke-width="0.609939" stroke-linecap="round" stroke-linejoin="round"/>
<path d="M3.7334 7.93626V4.12415" stroke="black" stroke-width="0.609939" stroke-linecap="round" stroke-linejoin="round"/>
<path d="M2.14893 5.70871L4.89365 2.96399" stroke="black" stroke-width="0.609939" stroke-linecap="round" stroke-linejoin="round"/>
<path d="M2.63916 2.90442H6.32567" stroke="black" stroke-width="0.609939" stroke-linecap="round" stroke-linejoin="round"/>
<path d="M4.89404 1.31982L7.69843 4.12421" stroke="black" stroke-width="0.609939" stroke-linecap="round" stroke-linejoin="round"/>
</g>
<defs>
<clipPath id="clip0_201_8833">
<rect width="9.75902" height="9.75902" fill="white" transform="translate(0.836426 0.00708008)"/>
</clipPath>
</defs>
</svg>
