<svg width="11" height="10" viewBox="0 0 11 10" fill="none" xmlns="http://www.w3.org/2000/svg">
<g clip-path="url(#clip0_201_8883)">
<path d="M2.86573 3.05678C2.65462 3.05678 2.44825 2.99418 2.27272 2.8769C2.09719 2.75961 1.96038 2.5929 1.87959 2.39786C1.7988 2.20282 1.77766 1.98821 1.81885 1.78115C1.86004 1.5741 1.96169 1.38391 2.11097 1.23463C2.26025 1.08535 2.45044 0.983693 2.6575 0.942507C2.86455 0.901322 3.07917 0.92246 3.27421 1.00325C3.46925 1.08404 3.63595 1.22085 3.75324 1.39638C3.87052 1.57191 3.93313 1.77828 3.93313 1.98939C3.93282 2.27239 3.82027 2.54371 3.62016 2.74382C3.42005 2.94393 3.14873 3.05648 2.86573 3.05678Z" fill="black"/>
<path d="M5.76271 3.05678C5.5516 3.05678 5.34523 2.99418 5.16969 2.8769C4.99416 2.75961 4.85735 2.5929 4.77656 2.39786C4.69577 2.20282 4.67464 1.98821 4.71582 1.78115C4.75701 1.5741 4.85867 1.38391 5.00795 1.23463C5.15722 1.08535 5.34741 0.983693 5.55447 0.942507C5.76152 0.901322 5.97614 0.92246 6.17118 1.00325C6.36622 1.08404 6.53292 1.22085 6.65021 1.39638C6.7675 1.57191 6.8301 1.77828 6.8301 1.98939C6.8298 2.27239 6.71724 2.54371 6.51713 2.74382C6.31702 2.94393 6.0457 3.05648 5.76271 3.05678Z" fill="black"/>
<path d="M8.66017 3.05678C8.44906 3.05678 8.24269 2.99418 8.06715 2.8769C7.89162 2.75961 7.75481 2.5929 7.67402 2.39786C7.59324 2.20282 7.5721 1.98821 7.61328 1.78115C7.65447 1.5741 7.75613 1.38391 7.90541 1.23463C8.05468 1.08535 8.24488 0.983693 8.45193 0.942507C8.65898 0.901322 8.8736 0.92246 9.06864 1.00325C9.26368 1.08404 9.43038 1.22085 9.54767 1.39638C9.66496 1.57191 9.72756 1.77828 9.72756 1.98939C9.72726 2.27239 9.6147 2.54371 9.41459 2.74382C9.21448 2.94393 8.94316 3.05648 8.66017 3.05678Z" fill="black"/>
<path d="M2.86573 5.954C2.65462 5.954 2.44825 5.8914 2.27272 5.77411C2.09719 5.65683 1.96038 5.49012 1.87959 5.29508C1.7988 5.10004 1.77766 4.88542 1.81885 4.67837C1.86004 4.47132 1.96169 4.28112 2.11097 4.13185C2.26025 3.98257 2.45044 3.88091 2.6575 3.83972C2.86455 3.79854 3.07917 3.81968 3.27421 3.90046C3.46925 3.98125 3.63595 4.11806 3.75324 4.2936C3.87052 4.46913 3.93313 4.6755 3.93313 4.88661C3.93282 5.1696 3.82027 5.44092 3.62016 5.64103C3.42005 5.84114 3.14873 5.9537 2.86573 5.954Z" fill="black"/>
<path d="M5.76271 5.954C5.5516 5.954 5.34523 5.8914 5.16969 5.77411C4.99416 5.65683 4.85735 5.49012 4.77656 5.29508C4.69577 5.10004 4.67464 4.88542 4.71582 4.67837C4.75701 4.47132 4.85867 4.28112 5.00795 4.13185C5.15722 3.98257 5.34741 3.88091 5.55447 3.83972C5.76152 3.79854 5.97614 3.81968 6.17118 3.90046C6.36622 3.98125 6.53292 4.11806 6.65021 4.2936C6.7675 4.46913 6.8301 4.6755 6.8301 4.88661C6.8298 5.1696 6.71724 5.44092 6.51713 5.64103C6.31702 5.84114 6.0457 5.9537 5.76271 5.954Z" fill="black"/>
<path d="M8.66017 5.954C8.44906 5.954 8.24269 5.8914 8.06715 5.77411C7.89162 5.65683 7.75481 5.49012 7.67402 5.29508C7.59324 5.10004 7.5721 4.88542 7.61328 4.67837C7.65447 4.47132 7.75613 4.28112 7.90541 4.13185C8.05468 3.98257 8.24488 3.88091 8.45193 3.83972C8.65898 3.79854 8.8736 3.81968 9.06864 3.90046C9.26368 3.98125 9.43038 4.11806 9.54767 4.2936C9.66496 4.46913 9.72756 4.6755 9.72756 4.88661C9.72726 5.1696 9.6147 5.44092 9.41459 5.64103C9.21448 5.84114 8.94316 5.9537 8.66017 5.954Z" fill="black"/>
<path d="M2.86573 8.85122C2.65462 8.85122 2.44825 8.78862 2.27272 8.67133C2.09719 8.55404 1.96038 8.38734 1.87959 8.1923C1.7988 7.99726 1.77766 7.78264 1.81885 7.57559C1.86004 7.36853 1.96169 7.17834 2.11097 7.02906C2.26025 6.87979 2.45044 6.77813 2.6575 6.73694C2.86455 6.69576 3.07917 6.71689 3.27421 6.79768C3.46925 6.87847 3.63595 7.01528 3.75324 7.19081C3.87052 7.36634 3.93313 7.57271 3.93313 7.78382C3.93282 8.06682 3.82027 8.33814 3.62016 8.53825C3.42005 8.73836 3.14873 8.85091 2.86573 8.85122Z" fill="black"/>
<path d="M5.76271 8.85122C5.5516 8.85122 5.34523 8.78862 5.16969 8.67133C4.99416 8.55404 4.85735 8.38734 4.77656 8.1923C4.69577 7.99726 4.67464 7.78264 4.71582 7.57559C4.75701 7.36853 4.85867 7.17834 5.00795 7.02906C5.15722 6.87979 5.34741 6.77813 5.55447 6.73694C5.76152 6.69576 5.97614 6.71689 6.17118 6.79768C6.36622 6.87847 6.53292 7.01528 6.65021 7.19081C6.7675 7.36634 6.8301 7.57271 6.8301 7.78382C6.8298 8.06682 6.71724 8.33814 6.51713 8.53825C6.31702 8.73836 6.0457 8.85091 5.76271 8.85122Z" fill="black"/>
<path d="M8.66017 8.85122C8.44906 8.85122 8.24269 8.78862 8.06715 8.67133C7.89162 8.55404 7.75481 8.38734 7.67402 8.1923C7.59324 7.99726 7.5721 7.78264 7.61328 7.57559C7.65447 7.36853 7.75613 7.17834 7.90541 7.02906C8.05468 6.87979 8.24488 6.77813 8.45193 6.73694C8.65898 6.69576 8.8736 6.71689 9.06864 6.79768C9.26368 6.87847 9.43038 7.01528 9.54767 7.19081C9.66496 7.36634 9.72756 7.57271 9.72756 7.78382C9.72726 8.06682 9.6147 8.33814 9.41459 8.53825C9.21448 8.73836 8.94316 8.85091 8.66017 8.85122Z" fill="black"/>
</g>
<defs>
<clipPath id="clip0_201_8883">
<rect width="9.75902" height="9.75902" fill="white" transform="translate(0.883301 0.00708008)"/>
</clipPath>
</defs>
</svg>
