<svg width="11" height="10" viewBox="0 0 11 10" fill="none" xmlns="http://www.w3.org/2000/svg">
<g clip-path="url(#clip0_201_8873)">
<path d="M3.37146 0.921997H1.54164C1.45743 0.921997 1.38916 0.990267 1.38916 1.07448V2.9043C1.38916 2.98851 1.45743 3.05678 1.54164 3.05678H3.37146C3.45568 3.05678 3.52395 2.98851 3.52395 2.9043V1.07448C3.52395 0.990267 3.45568 0.921997 3.37146 0.921997Z" fill="black"/>
<path d="M6.26843 0.921997H4.43862C4.3544 0.921997 4.28613 0.990267 4.28613 1.07448V2.9043C4.28613 2.98851 4.3544 3.05678 4.43862 3.05678H6.26843C6.35265 3.05678 6.42092 2.98851 6.42092 2.9043V1.07448C6.42092 0.990267 6.35265 0.921997 6.26843 0.921997Z" fill="black"/>
<path d="M9.16589 0.921997H7.33608C7.25186 0.921997 7.18359 0.990267 7.18359 1.07448V2.9043C7.18359 2.98851 7.25186 3.05678 7.33608 3.05678H9.16589C9.25011 3.05678 9.31838 2.98851 9.31838 2.9043V1.07448C9.31838 0.990267 9.25011 0.921997 9.16589 0.921997Z" fill="black"/>
<path d="M3.37146 3.81921H1.54164C1.45743 3.81921 1.38916 3.88748 1.38916 3.9717V5.80151C1.38916 5.88573 1.45743 5.954 1.54164 5.954H3.37146C3.45568 5.954 3.52395 5.88573 3.52395 5.80151V3.9717C3.52395 3.88748 3.45568 3.81921 3.37146 3.81921Z" fill="black"/>
<path d="M6.26843 3.81921H4.43862C4.3544 3.81921 4.28613 3.88748 4.28613 3.9717V5.80151C4.28613 5.88573 4.3544 5.954 4.43862 5.954H6.26843C6.35265 5.954 6.42092 5.88573 6.42092 5.80151V3.9717C6.42092 3.88748 6.35265 3.81921 6.26843 3.81921Z" fill="black"/>
<path d="M9.16589 3.81921H7.33608C7.25186 3.81921 7.18359 3.88748 7.18359 3.9717V5.80151C7.18359 5.88573 7.25186 5.954 7.33608 5.954H9.16589C9.25011 5.954 9.31838 5.88573 9.31838 5.80151V3.9717C9.31838 3.88748 9.25011 3.81921 9.16589 3.81921Z" fill="black"/>
<path d="M3.37146 6.71643H1.54164C1.45743 6.71643 1.38916 6.7847 1.38916 6.86892V8.69873C1.38916 8.78295 1.45743 8.85122 1.54164 8.85122H3.37146C3.45568 8.85122 3.52395 8.78295 3.52395 8.69873V6.86892C3.52395 6.7847 3.45568 6.71643 3.37146 6.71643Z" fill="black"/>
<path d="M6.26843 6.71643H4.43862C4.3544 6.71643 4.28613 6.7847 4.28613 6.86892V8.69873C4.28613 8.78295 4.3544 8.85122 4.43862 8.85122H6.26843C6.35265 8.85122 6.42092 8.78295 6.42092 8.69873V6.86892C6.42092 6.7847 6.35265 6.71643 6.26843 6.71643Z" fill="black"/>
<path d="M9.16589 6.71643H7.33608C7.25186 6.71643 7.18359 6.7847 7.18359 6.86892V8.69873C7.18359 8.78295 7.25186 8.85122 7.33608 8.85122H9.16589C9.25011 8.85122 9.31838 8.78295 9.31838 8.69873V6.86892C9.31838 6.7847 9.25011 6.71643 9.16589 6.71643Z" fill="black"/>
</g>
<defs>
<clipPath id="clip0_201_8873">
<rect width="9.75902" height="9.75902" fill="white" transform="translate(0.474121 0.00708008)"/>
</clipPath>
</defs>
</svg>
