<svg width="10" height="10" viewBox="0 0 10 10" fill="none" xmlns="http://www.w3.org/2000/svg">
<g clip-path="url(#clip0_201_8863)">
<path d="M2.80903 1.98935C2.80903 1.56828 2.46768 1.22693 2.0466 1.22693C1.62553 1.22693 1.28418 1.56828 1.28418 1.98935C1.28418 2.41043 1.62553 2.75178 2.0466 2.75178C2.46768 2.75178 2.80903 2.41043 2.80903 1.98935Z" stroke="black" stroke-width="0.609939" stroke-miterlimit="10"/>
<path d="M5.70649 1.98935C5.70649 1.56828 5.36514 1.22693 4.94406 1.22693C4.52299 1.22693 4.18164 1.56828 4.18164 1.98935C4.18164 2.41043 4.52299 2.75178 4.94406 2.75178C5.36514 2.75178 5.70649 2.41043 5.70649 1.98935Z" stroke="black" stroke-width="0.609939" stroke-miterlimit="10"/>
<path d="M8.60346 1.98935C8.60346 1.56828 8.26211 1.22693 7.84104 1.22693C7.41996 1.22693 7.07861 1.56828 7.07861 1.98935C7.07861 2.41043 7.41996 2.75178 7.84104 2.75178C8.26211 2.75178 8.60346 2.41043 8.60346 1.98935Z" stroke="black" stroke-width="0.609939" stroke-miterlimit="10"/>
<path d="M2.80903 4.88657C2.80903 4.46549 2.46768 4.12415 2.0466 4.12415C1.62553 4.12415 1.28418 4.46549 1.28418 4.88657C1.28418 5.30764 1.62553 5.64899 2.0466 5.64899C2.46768 5.64899 2.80903 5.30764 2.80903 4.88657Z" stroke="black" stroke-width="0.609939" stroke-miterlimit="10"/>
<path d="M5.70649 4.88657C5.70649 4.46549 5.36514 4.12415 4.94406 4.12415C4.52299 4.12415 4.18164 4.46549 4.18164 4.88657C4.18164 5.30764 4.52299 5.64899 4.94406 5.64899C5.36514 5.64899 5.70649 5.30764 5.70649 4.88657Z" stroke="black" stroke-width="0.609939" stroke-miterlimit="10"/>
<path d="M8.60346 4.88657C8.60346 4.46549 8.26211 4.12415 7.84104 4.12415C7.41996 4.12415 7.07861 4.46549 7.07861 4.88657C7.07861 5.30764 7.41996 5.64899 7.84104 5.64899C8.26211 5.64899 8.60346 5.30764 8.60346 4.88657Z" stroke="black" stroke-width="0.609939" stroke-miterlimit="10"/>
<path d="M2.80903 7.78391C2.80903 7.36283 2.46768 7.02148 2.0466 7.02148C1.62553 7.02148 1.28418 7.36283 1.28418 7.78391C1.28418 8.20498 1.62553 8.54633 2.0466 8.54633C2.46768 8.54633 2.80903 8.20498 2.80903 7.78391Z" stroke="black" stroke-width="0.609939" stroke-miterlimit="10"/>
<path d="M5.70649 7.78391C5.70649 7.36283 5.36514 7.02148 4.94406 7.02148C4.52299 7.02148 4.18164 7.36283 4.18164 7.78391C4.18164 8.20498 4.52299 8.54633 4.94406 8.54633C5.36514 8.54633 5.70649 8.20498 5.70649 7.78391Z" stroke="black" stroke-width="0.609939" stroke-miterlimit="10"/>
<path d="M8.60346 7.78391C8.60346 7.36283 8.26211 7.02148 7.84104 7.02148C7.41996 7.02148 7.07861 7.36283 7.07861 7.78391C7.07861 8.20498 7.41996 8.54633 7.84104 8.54633C8.26211 8.54633 8.60346 8.20498 8.60346 7.78391Z" stroke="black" stroke-width="0.609939" stroke-miterlimit="10"/>
</g>
<defs>
<clipPath id="clip0_201_8863">
<rect width="9.75902" height="9.75902" fill="white" transform="translate(0.0644531 0.00708008)"/>
</clipPath>
</defs>
</svg>
