<svg width="10" height="10" viewBox="0 0 10 10" fill="none" xmlns="http://www.w3.org/2000/svg">
<g clip-path="url(#clip0_201_8901)">
<path d="M1.33154 3.13301V7.78379C1.33154 8.06688 1.444 8.33837 1.64418 8.53855C1.84435 8.73872 2.11585 8.85118 2.39894 8.85118H7.58342C7.86651 8.85118 8.138 8.73872 8.33818 8.53855C8.53835 8.33837 8.65081 8.06688 8.65081 7.78379V3.13301C8.65081 3.11278 8.64278 3.09339 8.62848 3.07909C8.61418 3.0648 8.59479 3.05676 8.57457 3.05676H1.40779C1.38756 3.05676 1.36817 3.0648 1.35387 3.07909C1.33958 3.09339 1.33154 3.11278 1.33154 3.13301ZM6.42072 6.02316L5.20675 7.23694C5.14956 7.29409 5.07202 7.32619 4.99118 7.32619C4.91033 7.32619 4.83279 7.29409 4.7756 7.23694L3.56163 6.02316C3.44555 5.90708 3.43488 5.71819 3.54543 5.59659C3.57318 5.56602 3.60685 5.5414 3.6444 5.52423C3.68195 5.50705 3.72259 5.49769 3.76387 5.49669C3.80514 5.49569 3.84619 5.50308 3.88452 5.51842C3.92286 5.53376 3.95768 5.55672 3.98687 5.58591L4.68621 6.28505V4.28522C4.68621 4.12111 4.81239 3.98025 4.9765 3.97205C5.01773 3.97007 5.05894 3.97647 5.09763 3.99088C5.13631 4.00529 5.17167 4.02741 5.20156 4.05588C5.23145 4.08436 5.25524 4.11861 5.2715 4.15656C5.28776 4.19451 5.29614 4.23536 5.29615 4.27664V6.28505L5.99548 5.58591C6.02467 5.55672 6.05949 5.53376 6.09783 5.51842C6.13616 5.50308 6.17721 5.49569 6.21849 5.49669C6.25976 5.49769 6.30041 5.50705 6.33795 5.52423C6.3755 5.5414 6.40917 5.56602 6.43692 5.59659C6.54747 5.718 6.5368 5.90708 6.42072 6.02316Z" fill="black"/>
<path d="M8.65088 0.921997H1.33162C0.994759 0.921997 0.72168 1.19508 0.72168 1.53194V1.83691C0.72168 2.17377 0.994759 2.44684 1.33162 2.44684H8.65088C8.98774 2.44684 9.26082 2.17377 9.26082 1.83691V1.53194C9.26082 1.19508 8.98774 0.921997 8.65088 0.921997Z" fill="black"/>
</g>
<defs>
<clipPath id="clip0_201_8901">
<rect width="9.75902" height="9.75902" fill="white" transform="translate(0.111816 0.00708008)"/>
</clipPath>
</defs>
</svg>
