<svg width="11" height="10" viewBox="0 0 11 10" fill="none" xmlns="http://www.w3.org/2000/svg">
<g clip-path="url(#clip0_201_8910)">
<path d="M1.25488 4.8866C1.25488 7.07609 3.03 8.8512 5.21948 8.8512C7.40897 8.8512 9.18409 7.07609 9.18409 4.8866C9.18409 2.69711 7.40897 0.921997 5.21948 0.921997C3.03 0.921997 1.25488 2.69711 1.25488 4.8866ZM5.30812 3.14522C5.33656 3.17343 5.35916 3.20696 5.37464 3.24391C5.39012 3.28085 5.39816 3.32048 5.39832 3.36054C5.39848 3.40059 5.39075 3.44029 5.37557 3.47735C5.36038 3.51442 5.33805 3.54813 5.30983 3.57657L4.31258 4.58163H6.8587C6.93958 4.58163 7.01715 4.61376 7.07434 4.67095C7.13153 4.72815 7.16366 4.80572 7.16366 4.8866C7.16366 4.96748 7.13153 5.04505 7.07434 5.10225C7.01715 5.15944 6.93958 5.19157 6.8587 5.19157H4.31258L5.30983 6.19663C5.33804 6.22509 5.36037 6.25883 5.37554 6.29592C5.39071 6.33301 5.39843 6.37272 5.39825 6.41279C5.39808 6.45287 5.39001 6.49251 5.37451 6.52946C5.35901 6.56642 5.33639 6.59996 5.30793 6.62817C5.27947 6.65637 5.24573 6.6787 5.20864 6.69387C5.17155 6.70904 5.13184 6.71676 5.09177 6.71659C5.05169 6.71641 5.01205 6.70834 4.9751 6.69284C4.93814 6.67734 4.9046 6.65472 4.87639 6.62626L3.36317 5.10141C3.30649 5.04429 3.27468 4.96707 3.27468 4.8866C3.27468 4.80612 3.30649 4.72891 3.36317 4.67179L4.87639 3.14694C4.90461 3.11844 4.93817 3.09579 4.97514 3.08028C5.01212 3.06477 5.0518 3.0567 5.0919 3.05654C5.132 3.05638 5.17174 3.06413 5.20884 3.07935C5.24594 3.09457 5.27968 3.11695 5.30812 3.14522Z" fill="black"/>
</g>
<defs>
<clipPath id="clip0_201_8910">
<rect width="9.75902" height="9.75902" fill="white" transform="translate(0.339844 0.00708008)"/>
</clipPath>
</defs>
</svg>
