<svg width="11" height="11" viewBox="0 0 11 11" fill="none" xmlns="http://www.w3.org/2000/svg">
<path d="M1.58701 8.78651C1.52697 8.76583 1.47489 8.72693 1.43802 8.67523C1.40115 8.62353 1.38134 8.56162 1.38135 8.49812C1.38135 7.10479 1.66116 5.99051 2.21334 5.18596C2.88046 4.21387 3.9328 3.69047 5.34595 3.62547V2.09376C5.34595 2.03404 5.36349 1.97564 5.39639 1.9258C5.42928 1.87596 5.47608 1.83688 5.53099 1.81339C5.58589 1.78991 5.64648 1.78306 5.70524 1.7937C5.764 1.80433 5.81835 1.83199 5.86154 1.87323L9.2162 5.07541C9.24601 5.10388 9.26974 5.13811 9.28595 5.17601C9.30217 5.21392 9.31052 5.25471 9.31052 5.29594C9.31052 5.33717 9.30217 5.37796 9.28595 5.41587C9.26974 5.45377 9.24601 5.488 9.2162 5.51647L5.86154 8.71865C5.81835 8.75989 5.764 8.78755 5.70524 8.79818C5.64648 8.80882 5.58589 8.80197 5.53099 8.77849C5.47608 8.755 5.42928 8.71592 5.39639 8.66608C5.36349 8.61624 5.34595 8.55784 5.34595 8.49812V6.97766C4.48822 7.00358 3.84016 7.14253 3.32419 7.40919C2.76667 7.69738 2.3624 8.12796 1.92667 8.68625C1.88758 8.7363 1.83384 8.7729 1.77295 8.79094C1.71206 8.80898 1.64706 8.80757 1.58701 8.78689V8.78651Z" fill="black"/>
</svg>
