<svg width="11" height="11" viewBox="0 0 11 11" fill="none" xmlns="http://www.w3.org/2000/svg">
<path d="M9.62549 5.29602C9.62549 3.10653 7.85038 1.33142 5.66089 1.33142C3.4714 1.33142 1.69629 3.10653 1.69629 5.29602C1.69629 7.48551 3.4714 9.26063 5.66089 9.26063C7.85038 9.26063 9.62549 7.48551 9.62549 5.29602ZM5.57226 7.0374C5.54382 7.00919 5.52122 6.97566 5.50574 6.93871C5.49026 6.90177 5.48221 6.86214 5.48205 6.82208C5.48189 6.78203 5.48963 6.74233 5.50481 6.70527C5.51999 6.6682 5.54233 6.63449 5.57054 6.60606L6.56779 5.60099H4.02168C3.9408 5.60099 3.86323 5.56886 3.80603 5.51167C3.74884 5.45448 3.71671 5.37691 3.71671 5.29602C3.71671 5.21514 3.74884 5.13757 3.80603 5.08038C3.86323 5.02318 3.9408 4.99105 4.02168 4.99105H6.56779L5.57054 3.98599C5.54233 3.95753 5.52001 3.92379 5.50484 3.8867C5.48966 3.84961 5.48195 3.8099 5.48212 3.76983C5.4823 3.72976 5.49037 3.69011 5.50587 3.65316C5.52136 3.61621 5.54399 3.58267 5.57245 3.55446C5.60091 3.52625 5.63465 3.50392 5.67174 3.48875C5.70883 3.47358 5.74854 3.46586 5.78861 3.46604C5.86954 3.46639 5.94701 3.49889 6.00398 3.55636L7.5172 5.08121C7.57389 5.13833 7.60569 5.21555 7.60569 5.29602C7.60569 5.3765 7.57389 5.45371 7.5172 5.51084L6.00398 7.03568C5.97577 7.06418 5.94221 7.08683 5.90523 7.10234C5.86825 7.11785 5.82858 7.12592 5.78848 7.12608C5.74838 7.12624 5.70864 7.11849 5.67154 7.10327C5.63443 7.08805 5.6007 7.06567 5.57226 7.0374Z" fill="black"/>
</svg>
