<svg width="11" height="11" viewBox="0 0 11 11" fill="none" xmlns="http://www.w3.org/2000/svg">
<path d="M5.54742 6.66345V5.95211C6.6352 5.95211 7.15823 6.20885 7.61701 6.68937C7.71994 6.79706 7.90292 6.71453 7.88939 6.56681C7.78551 5.39554 7.23866 4.33501 5.54742 4.33501V3.62367C5.54729 3.5927 5.53811 3.56245 5.521 3.53664C5.50389 3.51083 5.47959 3.4906 5.45111 3.47844C5.42264 3.46628 5.39122 3.46272 5.36074 3.46821C5.33027 3.47369 5.30207 3.48798 5.27961 3.5093L3.66976 5.02919C3.65424 5.04381 3.64187 5.06144 3.63342 5.08101C3.62497 5.10058 3.62061 5.12167 3.62061 5.14299C3.62061 5.1643 3.62497 5.18539 3.63342 5.20496C3.64187 5.22453 3.65424 5.24216 3.66976 5.25678L5.27885 6.77724C5.30123 6.79879 5.32945 6.81328 5.36001 6.81893C5.39056 6.82458 5.42209 6.82113 5.4507 6.80901C5.47931 6.79689 5.50372 6.77663 5.52092 6.75075C5.53811 6.72488 5.54733 6.69452 5.54742 6.66345Z" fill="black"/>
<path d="M5.75534 1.63635C3.73491 1.63635 2.0957 3.27556 2.0957 5.29599C2.0957 7.31641 3.73491 8.95562 5.75534 8.95562C7.77576 8.95562 9.41497 7.31641 9.41497 5.29599C9.41497 3.27556 7.77576 1.63635 5.75534 1.63635Z" stroke="black" stroke-width="0.609939" stroke-miterlimit="10"/>
</svg>
