<svg width="11" height="11" viewBox="0 0 11 11" fill="none" xmlns="http://www.w3.org/2000/svg">
<path d="M9.46261 8.80316C9.41627 8.80316 9.37054 8.79261 9.3289 8.7723C9.28725 8.75199 9.25078 8.72245 9.22225 8.68594C8.78653 8.12803 8.38225 7.69746 7.82473 7.40888C7.30876 7.1426 6.6607 7.00365 5.80298 6.97773V8.49819C5.80279 8.55772 5.7852 8.61589 5.75235 8.66554C5.7195 8.71518 5.67284 8.75413 5.61813 8.77758C5.56341 8.80102 5.50303 8.80794 5.44443 8.79748C5.38583 8.78703 5.33157 8.75965 5.28834 8.71872L1.93368 5.51654C1.90387 5.48807 1.88014 5.45384 1.86393 5.41594C1.84771 5.37803 1.83936 5.33724 1.83936 5.29601C1.83936 5.25479 1.84771 5.21399 1.86393 5.17608C1.88014 5.13818 1.90387 5.10396 1.93368 5.07548L5.28834 1.8733C5.33157 1.83238 5.38583 1.805 5.44443 1.79454C5.50303 1.78408 5.56341 1.791 5.61813 1.81445C5.67284 1.83789 5.7195 1.87684 5.75235 1.92649C5.7852 1.97613 5.80279 2.03431 5.80298 2.09383V3.62554C7.21613 3.69054 8.26903 4.2147 8.93558 5.18603C9.48777 5.99058 9.76758 7.10486 9.76758 8.49819C9.76758 8.57907 9.73545 8.65664 9.67825 8.71384C9.62106 8.77103 9.54349 8.80316 9.46261 8.80316Z" fill="black"/>
</svg>
