<svg width="11" height="11" viewBox="0 0 11 11" fill="none" xmlns="http://www.w3.org/2000/svg">
<path d="M5.57447 1.33142C3.38498 1.33142 1.60986 3.10653 1.60986 5.29602C1.60986 7.48551 3.38498 9.26063 5.57447 9.26063C7.76395 9.26063 9.53907 7.48551 9.53907 5.29602C9.53907 3.10653 7.76395 1.33142 5.57447 1.33142ZM7.43611 6.68935C6.97732 6.20883 6.4543 5.95209 5.36651 5.95209V6.66343C5.36639 6.6944 5.35721 6.72465 5.3401 6.75045C5.32298 6.77626 5.29869 6.79649 5.27021 6.80866C5.24173 6.82082 5.21032 6.82438 5.17984 6.81889C5.14937 6.81341 5.12116 6.79912 5.09871 6.77779L3.48886 5.2579C3.47334 5.24329 3.46097 5.22566 3.45252 5.20609C3.44406 5.18652 3.4397 5.16543 3.4397 5.14411C3.4397 5.12279 3.44406 5.1017 3.45252 5.08213C3.46097 5.06256 3.47334 5.04493 3.48886 5.03032L5.09795 3.50986C5.1204 3.48853 5.14861 3.47424 5.17908 3.46876C5.20956 3.46327 5.24097 3.46683 5.26945 3.47899C5.29793 3.49115 5.32222 3.51139 5.33934 3.53719C5.35645 3.563 5.36563 3.59325 5.36575 3.62422V4.33556C7.057 4.33556 7.60385 5.39609 7.70773 6.56736C7.72164 6.71451 7.53904 6.79704 7.43611 6.68935Z" fill="black"/>
</svg>
