<svg width="11" height="10" viewBox="0 0 11 10" fill="none" xmlns="http://www.w3.org/2000/svg">
<g clip-path="url(#clip0_201_8927)">
<path d="M5.67603 8.8512C7.86552 8.8512 9.64063 7.07609 9.64063 4.8866C9.64063 2.69711 7.86552 0.921997 5.67603 0.921997C3.48654 0.921997 1.71143 2.69711 1.71143 4.8866C1.71143 7.07609 3.48654 8.8512 5.67603 8.8512ZM3.93465 4.79797C3.96286 4.76953 3.99639 4.74692 4.03334 4.73145C4.07028 4.71597 4.10991 4.70792 4.14997 4.70776C4.19002 4.7076 4.22972 4.71533 4.26678 4.73052C4.30385 4.7457 4.33756 4.76804 4.36599 4.79625L5.37106 5.7935V3.24739C5.37106 3.16651 5.40319 3.08894 5.46038 3.03174C5.51757 2.97455 5.59514 2.94242 5.67603 2.94242C5.75691 2.94242 5.83448 2.97455 5.89167 3.03174C5.94887 3.08894 5.981 3.16651 5.981 3.24739V5.7935L6.98606 4.79625C7.04354 4.73928 7.12129 4.70747 7.20222 4.70783C7.28315 4.70819 7.36062 4.74068 7.41759 4.79816C7.47457 4.85564 7.50637 4.93339 7.50601 5.01432C7.50566 5.09525 7.47316 5.17272 7.41569 5.22969L5.89084 6.74291C5.83372 6.79959 5.7565 6.8314 5.67603 6.8314C5.59555 6.8314 5.51834 6.79959 5.46121 6.74291L3.93637 5.22969C3.90787 5.20148 3.88522 5.16792 3.86971 5.13094C3.8542 5.09396 3.84613 5.05429 3.84597 5.01418C3.84581 4.97408 3.85356 4.93435 3.86878 4.89724C3.884 4.86014 3.90638 4.82641 3.93465 4.79797Z" fill="black"/>
</g>
<defs>
<clipPath id="clip0_201_8927">
<rect width="9.75902" height="9.75902" fill="white" transform="translate(0.796387 0.00708008)"/>
</clipPath>
</defs>
</svg>
