<svg width="11" height="11" viewBox="0 0 11 11" fill="none" xmlns="http://www.w3.org/2000/svg">
<path d="M9.32952 5.29757C9.32952 3.27715 7.69031 1.63794 5.66989 1.63794C3.64946 1.63794 2.01025 3.27715 2.01025 5.29757C2.01025 7.31799 3.64946 8.95721 5.66989 8.95721C7.69031 8.95721 9.32952 7.31857 9.32952 5.29757Z" stroke="black" stroke-width="0.609939" stroke-miterlimit="10"/>
<path d="M6.52247 7.24577C6.12544 7.3872 5.87346 7.42856 5.48958 7.42856C4.32364 7.42856 3.46172 6.4742 3.56446 5.29683C3.6672 4.11946 4.69628 3.16528 5.86164 3.16528C7.1753 3.16528 7.89712 4.03349 7.79572 5.19619C7.71948 6.06421 7.17053 6.31428 6.88291 6.26358C6.61225 6.21498 6.38886 5.96776 6.43022 5.49449L6.53734 4.64324C6.39286 4.46846 6.00155 4.30015 5.58565 4.3661C5.20653 4.425 4.77252 4.76237 4.72601 5.29607C4.67951 5.82976 5.0022 6.26511 5.4871 6.26511C5.972 6.26511 6.39934 5.91458 6.45328 5.29607" stroke="black" stroke-width="0.533696" stroke-miterlimit="10" stroke-linecap="round"/>
</svg>
