<svg width="10" height="11" viewBox="0 0 10 11" fill="none" xmlns="http://www.w3.org/2000/svg">
<g clip-path="url(#clip0_201_9001)">
<path d="M5.08618 1.34558C2.89708 1.34558 1.12158 3.12031 1.12158 5.31018C1.12158 7.50005 2.8965 9.27479 5.08618 9.27479C7.27586 9.27479 9.05079 7.49986 9.05079 5.31018C9.05079 3.1205 7.2751 1.34558 5.08618 1.34558ZM7.46514 5.21984C7.41081 5.84178 7.1453 6.16715 6.93144 6.33031C6.71758 6.49346 6.46083 6.56551 6.23897 6.52587C6.13532 6.50715 6.03643 6.46798 5.94807 6.41065C5.85971 6.35331 5.78366 6.27896 5.72433 6.19193C5.6152 6.30149 5.48525 6.38811 5.34214 6.44671C5.19902 6.5053 5.04564 6.53468 4.891 6.53311C4.75288 6.53418 4.61607 6.50617 4.48948 6.4509C4.36288 6.39564 4.24934 6.31435 4.15622 6.21232C3.93912 5.97559 3.83219 5.63364 3.86402 5.27397C3.92215 4.60685 4.45337 4.18008 4.94799 4.10212C5.46663 4.02035 5.94372 4.22678 6.1471 4.47304L6.22029 4.56186L6.09944 5.52214C6.07676 5.79547 6.16215 5.96968 6.3337 6.00056C6.37925 6.00856 6.48828 5.99808 6.60779 5.90659C6.73588 5.80843 6.89637 5.60162 6.93373 5.17333C6.97795 4.66727 6.85081 4.23574 6.56624 3.92505C6.2708 3.60293 5.82097 3.43252 5.26554 3.43252C4.23627 3.43252 3.32499 4.27939 3.23426 5.31952C3.19061 5.81891 3.34214 6.28551 3.66102 6.63337C3.97285 6.97341 4.41125 7.16173 4.89329 7.16173C5.25544 7.16173 5.47674 7.12265 5.8366 6.99438L6.08858 6.90498L6.26756 7.40761L6.01615 7.4972C5.60025 7.6453 5.31701 7.69543 4.89386 7.69543C4.25953 7.69543 3.68218 7.44649 3.26799 6.99457C2.84695 6.53502 2.64624 5.92393 2.70285 5.27359C2.75831 4.6383 3.05471 4.0417 3.53713 3.59397C4.01955 3.14623 4.63445 2.89845 5.26592 2.89845C5.97498 2.89845 6.5609 3.1287 6.96003 3.56423C7.34219 3.98185 7.52194 4.56968 7.46514 5.21984Z" fill="black"/>
<path d="M5.03069 4.62894C4.74802 4.67335 4.42933 4.93086 4.39521 5.32008C4.37615 5.53089 4.43333 5.72454 4.54922 5.8513C4.59232 5.89881 4.64507 5.93657 4.70395 5.96204C4.76282 5.98752 4.82646 6.00013 4.8906 5.99902C5.26609 5.99902 5.53484 5.71711 5.59202 5.26347L5.62538 4.99872H5.6271L5.65855 4.74883C5.46954 4.63716 5.24757 4.59471 5.03069 4.62875V4.62894Z" fill="black"/>
</g>
<defs>
<clipPath id="clip0_201_9001">
<rect width="9.75902" height="9.75902" fill="white" transform="translate(0.19873 0.416504)"/>
</clipPath>
</defs>
</svg>
