<svg width="10" height="11" viewBox="0 0 10 11" fill="none" xmlns="http://www.w3.org/2000/svg">
<path d="M6.11707 5.26301C6.03129 6.2351 5.35236 6.78785 4.58174 6.78785C3.81112 6.78785 3.2982 6.1051 3.37234 5.26301C3.44649 4.42091 4.07987 3.73816 4.85049 3.73816C5.62111 3.73816 6.19102 4.42434 6.11707 5.26301Z" stroke="black" stroke-width="0.609939" stroke-linecap="round" stroke-linejoin="round"/>
<path d="M6.1125 8.34127C5.56813 8.57 5.21132 8.61765 4.60138 8.61765C2.74869 8.61765 1.38014 7.11568 1.54235 5.26299C1.70455 3.4103 3.33995 1.90833 5.19264 1.90833C7.27958 1.90833 8.42684 3.27554 8.26559 5.10536C8.14532 6.47143 7.27234 6.86503 6.81527 6.78402C6.38526 6.70778 6.03035 6.31856 6.09592 5.57368L6.25756 3.73909" stroke="black" stroke-width="0.609939" stroke-linecap="round" stroke-linejoin="round"/>
</svg>
