<svg width="10" height="11" viewBox="0 0 10 11" fill="none" xmlns="http://www.w3.org/2000/svg">
<path d="M4.18282 4.07615V6.81801C4.18598 7.01851 4.26785 7.20972 4.41076 7.35039C4.55366 7.49105 4.74615 7.56989 4.94667 7.56989C5.14719 7.56989 5.33967 7.49105 5.48258 7.35039C5.62548 7.20972 5.70735 7.01851 5.71052 6.81801L5.713 3.22414C5.71508 3.05277 5.68312 2.88269 5.61898 2.72377C5.55484 2.56484 5.45979 2.42023 5.33934 2.29831C5.2189 2.1764 5.07545 2.0796 4.91731 2.01353C4.75918 1.94747 4.5895 1.91345 4.41812 1.91345C4.24674 1.91345 4.07706 1.94747 3.91893 2.01353C3.76079 2.0796 3.61734 2.1764 3.49689 2.29831C3.37645 2.42023 3.2814 2.56484 3.21726 2.72377C3.15312 2.88269 3.12116 3.05277 3.12324 3.22414V6.84222C3.11975 7.08348 3.16425 7.32303 3.25416 7.54693C3.34407 7.77084 3.4776 7.97464 3.64697 8.14649C3.81635 8.31833 4.01819 8.45479 4.24078 8.54793C4.46336 8.64107 4.70224 8.68904 4.94352 8.68904C5.18481 8.68904 5.42369 8.64107 5.64627 8.54793C5.86885 8.45479 6.0707 8.31833 6.24007 8.14649C6.40945 7.97464 6.54298 7.77084 6.63289 7.54693C6.7228 7.32303 6.7673 7.08348 6.76381 6.84222V3.46125" stroke="black" stroke-width="0.609939" stroke-miterlimit="10" stroke-linecap="round"/>
</svg>
