<svg width="11" height="11" viewBox="0 0 11 11" fill="none" xmlns="http://www.w3.org/2000/svg">
<path d="M4.77403 4.07613V6.81228C4.7772 7.01277 4.85907 7.20399 5.00197 7.34465C5.14488 7.48532 5.33736 7.56416 5.53788 7.56416C5.7384 7.56416 5.93089 7.48532 6.07379 7.34465C6.2167 7.20399 6.29857 7.01277 6.30173 6.81228L6.30421 3.2184C6.30629 3.04703 6.27433 2.87696 6.21019 2.71803C6.14605 2.55911 6.051 2.41449 5.93056 2.29258C5.81011 2.17066 5.66666 2.07386 5.50852 2.0078C5.35039 1.94173 5.18071 1.90771 5.00933 1.90771C4.83795 1.90771 4.66827 1.94173 4.51014 2.0078C4.352 2.07386 4.20855 2.17066 4.08811 2.29258C3.96766 2.41449 3.87261 2.55911 3.80847 2.71803C3.74433 2.87696 3.71237 3.04703 3.71445 3.2184V6.83648C3.72137 7.31469 3.9162 7.77097 4.25681 8.10669C4.59743 8.44241 5.05648 8.63062 5.53474 8.63062C6.01299 8.63062 6.47204 8.44241 6.81266 8.10669C7.15328 7.77097 7.3481 7.31469 7.35502 6.83648V3.45552" stroke="black" stroke-width="0.609939" stroke-miterlimit="10" stroke-linecap="square"/>
</svg>
