<svg width="10" height="11" viewBox="0 0 10 11" fill="none" xmlns="http://www.w3.org/2000/svg">
<path d="M4.36397 4.07615V6.81801C4.36714 7.01851 4.44901 7.20972 4.59191 7.35039C4.73482 7.49105 4.9273 7.56989 5.12782 7.56989C5.32834 7.56989 5.52082 7.49105 5.66373 7.35039C5.80664 7.20972 5.88851 7.01851 5.89167 6.81801L5.89415 3.22414C5.89623 3.05277 5.86427 2.88269 5.80013 2.72377C5.73599 2.56484 5.64094 2.42023 5.5205 2.29831C5.40005 2.1764 5.2566 2.0796 5.09846 2.01353C4.94033 1.94747 4.77065 1.91345 4.59927 1.91345C4.42789 1.91345 4.25821 1.94747 4.10008 2.01353C3.94194 2.0796 3.79849 2.1764 3.67805 2.29831C3.5576 2.42023 3.46255 2.56484 3.39841 2.72377C3.33427 2.88269 3.30231 3.05277 3.30439 3.22414V6.84222C3.3009 7.08348 3.3454 7.32303 3.43531 7.54693C3.52522 7.77084 3.65875 7.97464 3.82812 8.14649C3.9975 8.31833 4.19935 8.45479 4.42193 8.54793C4.64451 8.64107 4.88339 8.68904 5.12468 8.68904C5.36596 8.68904 5.60484 8.64107 5.82742 8.54793C6.05 8.45479 6.25185 8.31833 6.42123 8.14649C6.5906 7.97464 6.72413 7.77084 6.81404 7.54693C6.90395 7.32303 6.94845 7.08348 6.94496 6.84222V3.46125" stroke="black" stroke-width="0.609939" stroke-miterlimit="10" stroke-linecap="round"/>
</svg>
