<svg width="11" height="11" viewBox="0 0 11 11" fill="none" xmlns="http://www.w3.org/2000/svg">
<path d="M3.05115 7.85278C3.10263 7.91178 3.16614 7.95907 3.23742 7.99149C3.30869 8.0239 3.38608 8.04069 3.46438 8.04072H8.15824C8.30398 8.04007 8.44357 7.98188 8.54662 7.87883C8.64968 7.77577 8.70787 7.63618 8.70852 7.49044V3.10155C8.70787 2.95581 8.64968 2.81622 8.54662 2.71316C8.44357 2.61011 8.30398 2.55192 8.15824 2.55127H3.46438C3.38615 2.55134 3.30884 2.56811 3.23761 2.60045C3.16638 2.6328 3.10287 2.67997 3.05134 2.73883L1.35742 5.29599L3.05115 7.85221V7.85278Z" stroke="black" stroke-width="0.609939" stroke-linejoin="round"/>
<path d="M6.89115 4.0824L4.41309 6.56046" stroke="black" stroke-width="0.609939" stroke-linecap="round" stroke-linejoin="round"/>
<path d="M6.89115 6.56046L4.41309 4.0824" stroke="black" stroke-width="0.609939" stroke-linecap="round" stroke-linejoin="round"/>
<path d="M6.89115 4.0824L4.41309 6.56046" stroke="black" stroke-width="0.609939" stroke-linecap="round" stroke-linejoin="round"/>
<path d="M6.89115 6.56046L4.41309 4.0824" stroke="black" stroke-width="0.609939" stroke-linecap="round" stroke-linejoin="round"/>
</svg>
