<svg width="11" height="11" viewBox="0 0 11 11" fill="none" xmlns="http://www.w3.org/2000/svg">
<g clip-path="url(#clip0_201_9029)">
<path d="M7.977 2.24646H3.28314C3.1616 2.24661 3.04149 2.27264 2.9308 2.32283C2.82011 2.37301 2.72138 2.4462 2.64118 2.53752C2.62728 2.55336 2.61508 2.5706 2.60477 2.58898L0.903042 5.1389C0.874471 5.18638 0.859375 5.24074 0.859375 5.29615C0.859375 5.35156 0.874471 5.40593 0.903042 5.4534L2.60229 7.99933C2.61298 8.01895 2.62576 8.03735 2.64041 8.05422C2.7206 8.1457 2.81937 8.21903 2.93013 8.26931C3.0409 8.3196 3.16111 8.34569 3.28276 8.34585H7.977C8.20375 8.3456 8.42114 8.25541 8.58147 8.09507C8.74181 7.93474 8.83199 7.71735 8.83225 7.4906V3.10171C8.83199 2.87496 8.74181 2.65757 8.58147 2.49724C8.42114 2.3369 8.20375 2.24671 7.977 2.24646ZM6.92619 6.34449C6.95518 6.37266 6.97828 6.40631 6.99415 6.44349C7.01002 6.48067 7.01834 6.52063 7.01863 6.56105C7.01892 6.60148 7.01116 6.64155 6.99582 6.67895C6.98048 6.71635 6.95786 6.75033 6.92927 6.77891C6.90068 6.80749 6.86669 6.83009 6.82928 6.84542C6.79188 6.86074 6.7518 6.86848 6.71137 6.86817C6.67095 6.86787 6.63099 6.85953 6.59382 6.84365C6.55665 6.82776 6.523 6.80464 6.49485 6.77564L5.47129 5.75361L4.44831 6.77621C4.39106 6.83346 4.31341 6.86562 4.23245 6.86562C4.15149 6.86562 4.07384 6.83346 4.01659 6.77621C3.95934 6.71896 3.92718 6.64131 3.92718 6.56035C3.92718 6.47938 3.95934 6.40174 4.01659 6.34449L5.03919 5.3215L4.01583 4.29814C3.9586 4.24079 3.9265 4.16306 3.92659 4.08204C3.92668 4.00102 3.95895 3.92336 4.0163 3.86613C4.07365 3.80891 4.15139 3.77681 4.23241 3.7769C4.31342 3.77699 4.39109 3.80926 4.44831 3.86661L5.47167 4.89016L6.49466 3.86661C6.55188 3.80939 6.62949 3.77724 6.71042 3.77724C6.79135 3.77724 6.86896 3.80939 6.92619 3.86661C6.98341 3.92383 7.01556 4.00145 7.01556 4.08238C7.01556 4.1633 6.98341 4.24092 6.92619 4.29814L5.90263 5.3215L6.92619 6.34449Z" fill="black"/>
</g>
<defs>
<clipPath id="clip0_201_9029">
<rect width="9.75902" height="9.75902" fill="white" transform="translate(0.292969 0.416504)"/>
</clipPath>
</defs>
</svg>
