<svg width="10" height="11" viewBox="0 0 10 11" fill="none" xmlns="http://www.w3.org/2000/svg">
<g clip-path="url(#clip0_201_9063)">
<path d="M8.97405 3.46612H7.29672V3.2374C7.29627 2.6606 7.0707 2.10677 6.66802 1.69381C6.26534 1.28084 5.71738 1.04137 5.14078 1.02637C5.12172 1.02637 5.10418 1.02637 5.0857 1.02637C5.06721 1.02637 5.04891 1.02637 5.03061 1.02637C4.45401 1.04137 3.90605 1.28084 3.50337 1.69381C3.10069 2.10677 2.87512 2.6606 2.87467 3.2374V3.46612H1.19734C1.17712 3.46612 1.15772 3.47415 1.14342 3.48845C1.12913 3.50275 1.12109 3.52214 1.12109 3.54236V9.26054C1.12109 9.34142 1.15322 9.41899 1.21042 9.47619C1.26761 9.53338 1.34518 9.56551 1.42606 9.56551H8.74533C8.82621 9.56551 8.90378 9.53338 8.96097 9.47619C9.01817 9.41899 9.0503 9.34142 9.0503 9.26054V3.54236C9.0503 3.52214 9.04226 3.50275 9.02797 3.48845C9.01367 3.47415 8.99428 3.46612 8.97405 3.46612ZM3.63709 3.25646C3.63709 2.45896 4.27391 1.79718 5.0714 1.78879C5.26278 1.78711 5.4526 1.82332 5.62991 1.89534C5.80723 1.96737 5.96853 2.07378 6.10452 2.20845C6.24051 2.34311 6.3485 2.50336 6.42227 2.67996C6.49603 2.85656 6.53411 3.04601 6.5343 3.2374V3.46612H3.63709V3.25646ZM6.61054 6.82079H3.56085V6.21085H6.61054V6.82079Z" fill="black"/>
</g>
<defs>
<clipPath id="clip0_201_9063">
<rect width="9.75902" height="9.75902" fill="white" transform="translate(0.206055 0.416504)"/>
</clipPath>
</defs>
</svg>
