<svg width="10" height="11" viewBox="0 0 10 11" fill="none" xmlns="http://www.w3.org/2000/svg">
<path d="M8.87982 3.46624H7.20249V3.23752C7.20203 2.66073 6.97646 2.10689 6.57378 1.69393C6.17111 1.28096 5.62314 1.04149 5.04654 1.02649C5.02748 1.02649 5.00995 1.02649 4.99146 1.02649C4.97297 1.02649 4.95467 1.02649 4.93637 1.02649C4.35978 1.04149 3.81181 1.28096 3.40913 1.69393C3.00646 2.10689 2.78088 2.66073 2.78043 3.23752V3.46624H1.1031C1.08288 3.46624 1.06348 3.47428 1.04919 3.48857C1.03489 3.50287 1.02686 3.52227 1.02686 3.54249V9.26066C1.02686 9.34155 1.05899 9.41912 1.11618 9.47631C1.17337 9.5335 1.25094 9.56563 1.33182 9.56563H8.65109C8.73197 9.56563 8.80954 9.5335 8.86674 9.47631C8.92393 9.41912 8.95606 9.34155 8.95606 9.26066V3.54249C8.95606 3.52227 8.94803 3.50287 8.93373 3.48857C8.91943 3.47428 8.90004 3.46624 8.87982 3.46624ZM3.54285 3.25658C3.54285 2.45908 4.17967 1.7973 4.97716 1.78891C5.16854 1.78723 5.35836 1.82344 5.53567 1.89547C5.71299 1.96749 5.87429 2.0739 6.01028 2.20857C6.14627 2.34323 6.25427 2.50348 6.32803 2.68008C6.40179 2.85668 6.43987 3.04613 6.44006 3.23752V3.46624H3.54285V3.25658ZM6.5163 6.82091H5.29643V8.04078H4.68649V6.82091H3.46661V6.21097H4.68649V4.99109H5.29643V6.21097H6.5163V6.82091Z" fill="black"/>
</svg>
