<svg width="11" height="11" viewBox="0 0 11 11" fill="none" xmlns="http://www.w3.org/2000/svg">
<path d="M9.10784 3.46624H7.43051V3.23752C7.43006 2.66073 7.20449 2.10689 6.80181 1.69393C6.39913 1.28096 5.85117 1.04149 5.27457 1.02649C5.25551 1.02649 5.23797 1.02649 5.21948 1.02649C5.201 1.02649 5.1827 1.02649 5.1644 1.02649C4.5878 1.04149 4.03984 1.28096 3.63716 1.69393C3.23448 2.10689 3.00891 2.66073 3.00846 3.23752V3.46624H1.33113C1.3109 3.46624 1.29151 3.47428 1.27721 3.48857C1.26292 3.50287 1.25488 3.52227 1.25488 3.54249V9.26066C1.25488 9.34155 1.28701 9.41912 1.34421 9.47631C1.4014 9.5335 1.47897 9.56563 1.55985 9.56563H8.87912C8.96 9.56563 9.03757 9.5335 9.09476 9.47631C9.15196 9.41912 9.18409 9.34155 9.18409 9.26066V3.54249C9.18409 3.52227 9.17605 3.50287 9.16176 3.48857C9.14746 3.47428 9.12806 3.46624 9.10784 3.46624ZM3.77088 3.25658C3.77088 2.45908 4.40769 1.7973 5.20519 1.78891C5.39657 1.78723 5.58638 1.82344 5.7637 1.89547C5.94101 1.96749 6.10232 2.0739 6.23831 2.20857C6.3743 2.34323 6.48229 2.50348 6.55606 2.68008C6.62982 2.85668 6.6679 3.04613 6.66809 3.23752V3.46624H3.77088V3.25658ZM4.73935 8.06213L3.5696 6.69511L4.03296 6.29846L4.72391 7.1051L6.3919 5.01987L6.86842 5.40108L4.73935 8.06213Z" fill="black"/>
</svg>
