<svg width="11" height="11" viewBox="0 0 11 11" fill="none" xmlns="http://www.w3.org/2000/svg">
<path d="M9.28145 3.64529C9.22487 3.58837 9.15757 3.54322 9.08343 3.51247C9.0093 3.48172 8.9298 3.46596 8.84954 3.46612H7.62966V3.16115C7.62966 2.59497 7.40475 2.05198 7.0044 1.65163C6.60405 1.25128 6.06106 1.02637 5.49488 1.02637C4.9287 1.02637 4.3857 1.25128 3.98535 1.65163C3.585 2.05198 3.36009 2.59497 3.36009 3.16115V3.46612H2.14021C1.97845 3.46612 1.82331 3.53038 1.70892 3.64477C1.59453 3.75915 1.53027 3.91429 1.53027 4.07606V8.19315C1.53027 8.93651 2.15927 9.56551 2.90264 9.56551H8.08712C8.44669 9.56562 8.79204 9.42504 9.04929 9.17381C9.17876 9.05031 9.28185 8.90184 9.35235 8.73739C9.42285 8.57294 9.45929 8.3959 9.45948 8.21697V4.07606C9.45972 3.99606 9.44411 3.9168 9.41356 3.84287C9.383 3.76893 9.3381 3.70178 9.28145 3.64529ZM6.71475 6.82079H4.275C4.19412 6.82079 4.11655 6.78865 4.05935 6.73146C4.00216 6.67427 3.97003 6.5967 3.97003 6.51582C3.97003 6.43493 4.00216 6.35736 4.05935 6.30017C4.11655 6.24298 4.19412 6.21085 4.275 6.21085H6.71475C6.79564 6.21085 6.87321 6.24298 6.9304 6.30017C6.98759 6.35736 7.01972 6.43493 7.01972 6.51582C7.01972 6.5967 6.98759 6.67427 6.9304 6.73146C6.87321 6.78865 6.79564 6.82079 6.71475 6.82079ZM7.01972 3.46612H3.97003V3.16115C3.97003 2.75674 4.13068 2.36889 4.41665 2.08292C4.70261 1.79696 5.09046 1.63631 5.49488 1.63631C5.89929 1.63631 6.28714 1.79696 6.57311 2.08292C6.85907 2.36889 7.01972 2.75674 7.01972 3.16115V3.46612Z" fill="black"/>
</svg>
