<svg width="11" height="11" viewBox="0 0 11 11" fill="none" xmlns="http://www.w3.org/2000/svg">
<path d="M9.18721 3.64541C9.13063 3.58849 9.06333 3.54334 8.98919 3.51259C8.91506 3.48184 8.83556 3.46608 8.7553 3.46624H7.53542V3.16127C7.53542 2.59509 7.31051 2.0521 6.91016 1.65175C6.50981 1.2514 5.96682 1.02649 5.40064 1.02649C4.83446 1.02649 4.29147 1.2514 3.89112 1.65175C3.49077 2.0521 3.26585 2.59509 3.26585 3.16127V3.46624H2.04597C1.88421 3.46624 1.72907 3.53051 1.61468 3.64489C1.5003 3.75928 1.43604 3.91442 1.43604 4.07618V8.19327C1.43604 8.93663 2.06503 9.56563 2.8084 9.56563H7.99288C8.35245 9.56574 8.6978 9.42516 8.95506 9.17394C9.08452 9.05043 9.18761 8.90197 9.25811 8.73751C9.32861 8.57306 9.36505 8.39602 9.36524 8.2171V4.07618C9.36548 3.99618 9.34988 3.91693 9.31932 3.84299C9.28876 3.76905 9.24386 3.7019 9.18721 3.64541ZM6.62052 6.82091H5.70561V7.73582C5.70561 7.8167 5.67348 7.89427 5.61628 7.95146C5.55909 8.00865 5.48152 8.04078 5.40064 8.04078C5.31975 8.04078 5.24218 8.00865 5.18499 7.95146C5.1278 7.89427 5.09567 7.8167 5.09567 7.73582V6.82091H4.18076C4.09988 6.82091 4.02231 6.78878 3.96511 6.73158C3.90792 6.67439 3.87579 6.59682 3.87579 6.51594C3.87579 6.43505 3.90792 6.35748 3.96511 6.30029C4.02231 6.2431 4.09988 6.21097 4.18076 6.21097H5.09567V5.29606C5.09567 5.21518 5.1278 5.13761 5.18499 5.08041C5.24218 5.02322 5.31975 4.99109 5.40064 4.99109C5.48152 4.99109 5.55909 5.02322 5.61628 5.08041C5.67348 5.13761 5.70561 5.21518 5.70561 5.29606V6.21097H6.62052C6.7014 6.21097 6.77897 6.2431 6.83616 6.30029C6.89335 6.35748 6.92548 6.43505 6.92548 6.51594C6.92548 6.59682 6.89335 6.67439 6.83616 6.73158C6.77897 6.78878 6.7014 6.82091 6.62052 6.82091ZM6.92548 3.46624H3.87579V3.16127C3.87579 2.75686 4.03644 2.36901 4.32241 2.08305C4.60837 1.79708 4.99622 1.63643 5.40064 1.63643C5.80505 1.63643 6.1929 1.79708 6.47887 2.08305C6.76483 2.36901 6.92548 2.75686 6.92548 3.16127V3.46624Z" fill="black"/>
</svg>
