<svg width="11" height="11" viewBox="0 0 11 11" fill="none" xmlns="http://www.w3.org/2000/svg">
<path fill-rule="evenodd" clip-rule="evenodd" d="M1.9119 3.77112C1.83102 3.77112 1.75345 3.80325 1.69626 3.86044C1.63906 3.91763 1.60693 3.9952 1.60693 4.07609V8.19317C1.60693 8.76957 2.09793 9.26057 2.67433 9.26057H7.85881C8.4352 9.26057 8.9262 8.79339 8.9262 8.217V4.07609C8.9262 3.9952 8.89407 3.91763 8.83688 3.86044C8.77968 3.80325 8.70211 3.77112 8.62123 3.77112H1.9119Z" stroke="black" stroke-width="0.609939" stroke-linecap="round" stroke-linejoin="round"/>
<path d="M3.43701 3.77118V3.16124C3.43701 2.67594 3.6298 2.21052 3.97295 1.86736C4.31611 1.5242 4.78153 1.33142 5.26683 1.33142V1.33142C5.75213 1.33142 6.21755 1.5242 6.5607 1.86736C6.90386 2.21052 7.09664 2.67594 7.09664 3.16124V3.77118" stroke="black" stroke-width="0.609939" stroke-linecap="round" stroke-linejoin="round"/>
</svg>
