<svg width="11" height="11" viewBox="0 0 11 11" fill="none" xmlns="http://www.w3.org/2000/svg">
<path d="M9.33636 3.46624H7.65903V3.23752C7.65858 2.66073 7.433 2.10689 7.03033 1.69393C6.62765 1.28096 6.07968 1.04149 5.50309 1.02649C5.48403 1.02649 5.46649 1.02649 5.448 1.02649C5.42951 1.02649 5.41121 1.02649 5.39292 1.02649C4.81632 1.04149 4.26835 1.28096 3.86568 1.69393C3.463 2.10689 3.23742 2.66073 3.23697 3.23752V3.46624H1.55964C1.53942 3.46624 1.52003 3.47428 1.50573 3.48857C1.49143 3.50287 1.4834 3.52227 1.4834 3.54249V9.26066C1.4834 9.34155 1.51553 9.41912 1.57272 9.47631C1.62991 9.5335 1.70748 9.56563 1.78837 9.56563H9.10763C9.18852 9.56563 9.26609 9.5335 9.32328 9.47631C9.38047 9.41912 9.4126 9.34155 9.4126 9.26066V3.54249C9.4126 3.52227 9.40457 3.50287 9.39027 3.48857C9.37597 3.47428 9.35658 3.46624 9.33636 3.46624ZM3.9994 3.25658C3.9994 2.45908 4.63621 1.7973 5.4337 1.78891C5.62508 1.78723 5.8149 1.82344 5.99222 1.89547C6.16953 1.96749 6.33083 2.0739 6.46683 2.20857C6.60282 2.34323 6.71081 2.50348 6.78457 2.68008C6.85833 2.85668 6.89641 3.04613 6.8966 3.23752V3.46624H3.9994V3.25658ZM7.58279 4.99109C7.58279 5.55727 7.35787 6.10026 6.95752 6.50061C6.55717 6.90096 6.01418 7.12588 5.448 7.12588C4.88182 7.12588 4.33883 6.90096 3.93848 6.50061C3.53813 6.10026 3.31321 5.55727 3.31321 4.99109V4.38115H3.92315V4.99109C3.92315 5.39551 4.08381 5.78336 4.36977 6.06932C4.65574 6.35528 5.04359 6.51594 5.448 6.51594C5.85241 6.51594 6.24027 6.35528 6.52623 6.06932C6.81219 5.78336 6.97285 5.39551 6.97285 4.99109V4.38115H7.58279V4.99109Z" fill="black"/>
</svg>
