<svg width="11" height="11" viewBox="0 0 11 11" fill="none" xmlns="http://www.w3.org/2000/svg">
<path d="M9.64357 3.64541C9.58703 3.58848 9.51977 3.54332 9.44566 3.51257C9.37155 3.48181 9.29208 3.46607 9.21184 3.46624H7.99197V3.16127C7.99197 2.59509 7.76705 2.0521 7.3667 1.65175C6.96635 1.2514 6.42336 1.02649 5.85718 1.02649C5.291 1.02649 4.74801 1.2514 4.34766 1.65175C3.94731 2.0521 3.72239 2.59509 3.72239 3.16127V3.46624H2.50252C2.34075 3.46624 2.18561 3.53051 2.07123 3.64489C1.95684 3.75928 1.89258 3.91442 1.89258 4.07618V8.19327C1.89258 8.93663 2.52158 9.56563 3.26494 9.56563H8.44942C8.809 9.56574 9.15434 9.42516 9.4116 9.17394C9.54106 9.05043 9.64416 8.90197 9.71466 8.73751C9.78515 8.57306 9.8216 8.39602 9.82178 8.2171V4.07618C9.82203 3.99616 9.80641 3.91689 9.77582 3.84295C9.74523 3.76901 9.70028 3.70187 9.64357 3.64541ZM4.33233 3.16127C4.33233 2.75686 4.49299 2.36901 4.77895 2.08305C5.06492 1.79708 5.45277 1.63643 5.85718 1.63643C6.2616 1.63643 6.64945 1.79708 6.93541 2.08305C7.22137 2.36901 7.38203 2.75686 7.38203 3.16127V3.46624H4.33233V3.16127ZM7.99197 4.99109C7.99197 5.55727 7.76705 6.10026 7.3667 6.50061C6.96635 6.90096 6.42336 7.12588 5.85718 7.12588C5.291 7.12588 4.74801 6.90096 4.34766 6.50061C3.94731 6.10026 3.72239 5.55727 3.72239 4.99109V4.68612C3.72239 4.60524 3.75453 4.52767 3.81172 4.47048C3.86891 4.41328 3.94648 4.38115 4.02736 4.38115C4.10825 4.38115 4.18582 4.41328 4.24301 4.47048C4.3002 4.52767 4.33233 4.60524 4.33233 4.68612V4.99109C4.33233 5.39551 4.49299 5.78336 4.77895 6.06932C5.06492 6.35528 5.45277 6.51594 5.85718 6.51594C6.2616 6.51594 6.64945 6.35528 6.93541 6.06932C7.22137 5.78336 7.38203 5.39551 7.38203 4.99109V4.68612C7.38203 4.60524 7.41416 4.52767 7.47135 4.47048C7.52854 4.41328 7.60611 4.38115 7.687 4.38115C7.76788 4.38115 7.84545 4.41328 7.90264 4.47048C7.95984 4.52767 7.99197 4.60524 7.99197 4.68612V4.99109Z" fill="black"/>
</svg>
