<svg width="11" height="11" viewBox="0 0 11 11" fill="none" xmlns="http://www.w3.org/2000/svg">
<path d="M7.03009 5.44849L5.32226 7.58327L4.59033 6.72783" stroke="black" stroke-width="0.609939" stroke-linecap="round" stroke-linejoin="round"/>
<path fill-rule="evenodd" clip-rule="evenodd" d="M2.45536 3.77112C2.37448 3.77112 2.29691 3.80325 2.23971 3.86044C2.18252 3.91763 2.15039 3.9952 2.15039 4.07609V8.19317C2.15039 8.76957 2.64139 9.26057 3.21778 9.26057H8.40226C8.97866 9.26057 9.46966 8.79339 9.46966 8.217V4.07609C9.46966 3.9952 9.43753 3.91763 9.38033 3.86044C9.32314 3.80325 9.24557 3.77112 9.16469 3.77112H2.45536Z" stroke="black" stroke-width="0.609939" stroke-linecap="round" stroke-linejoin="round"/>
<path d="M3.98047 3.77118V3.16124C3.98047 2.67594 4.17325 2.21052 4.51641 1.86736C4.85957 1.5242 5.32499 1.33142 5.81029 1.33142V1.33142C6.29558 1.33142 6.761 1.5242 7.10416 1.86736C7.44732 2.21052 7.6401 2.67594 7.6401 3.16124V3.77118" stroke="black" stroke-width="0.609939" stroke-linecap="round" stroke-linejoin="round"/>
</svg>
