<svg width="11" height="11" viewBox="0 0 11 11" fill="none" xmlns="http://www.w3.org/2000/svg">
<path d="M7.64389 3.87555V3.64682C7.64344 3.07003 7.41786 2.51619 7.01519 2.10323C6.61251 1.69026 6.06454 1.45079 5.48795 1.43579C5.46889 1.43579 5.45135 1.43579 5.43286 1.43579C5.41437 1.43579 5.39608 1.43579 5.37778 1.43579C4.80118 1.45079 4.25321 1.69026 3.85054 2.10323C3.44786 2.51619 3.22229 3.07003 3.22184 3.64682V3.87555H1.5445C1.52428 3.87555 1.50489 3.88358 1.49059 3.89788C1.47629 3.91217 1.46826 3.93157 1.46826 3.95179V9.66996C1.46826 9.75085 1.50039 9.82842 1.55759 9.88561C1.61478 9.9428 1.69235 9.97493 1.77323 9.97493H9.0925C9.17338 9.97493 9.25095 9.9428 9.30814 9.88561C9.36533 9.82842 9.39747 9.75085 9.39747 9.66996V3.95179C9.39747 3.93157 9.38943 3.91217 9.37513 3.89788C9.36084 3.88358 9.34144 3.87555 9.32122 3.87555H7.64389ZM6.88147 3.87555H3.98426V3.66588C3.98426 2.86838 4.62107 2.2066 5.41857 2.19821C5.60995 2.19653 5.79976 2.23274 5.97708 2.30477C6.15439 2.37679 6.3157 2.48321 6.45169 2.61787C6.58768 2.75253 6.69567 2.91278 6.76943 3.08938C6.8432 3.26598 6.88127 3.45543 6.88147 3.64682V3.87555Z" fill="black"/>
</svg>
