<svg width="11" height="11" viewBox="0 0 11 11" fill="none" xmlns="http://www.w3.org/2000/svg">
<path d="M5.58154 5.29602V7.73578" stroke="black" stroke-width="0.609939" stroke-linecap="round" stroke-linejoin="round"/>
<path d="M6.80157 6.51587H4.36182" stroke="black" stroke-width="0.609939" stroke-linecap="round" stroke-linejoin="round"/>
<path fill-rule="evenodd" clip-rule="evenodd" d="M2.22684 3.77112C2.14596 3.77112 2.06839 3.80325 2.0112 3.86044C1.95401 3.91763 1.92188 3.9952 1.92188 4.07609V8.19317C1.92188 8.76957 2.41288 9.26057 2.98927 9.26057H8.17375C8.75014 9.26057 9.24114 8.79339 9.24114 8.217V4.07609C9.24114 3.9952 9.20901 3.91763 9.15182 3.86044C9.09462 3.80325 9.01705 3.77112 8.93617 3.77112H2.22684Z" stroke="black" stroke-width="0.609939" stroke-linecap="round" stroke-linejoin="round"/>
<path d="M3.75195 3.77118V3.16124C3.75195 2.67594 3.94474 2.21052 4.28789 1.86736C4.63105 1.5242 5.09647 1.33142 5.58177 1.33142V1.33142C6.06707 1.33142 6.53249 1.5242 6.87565 1.86736C7.2188 2.21052 7.41159 2.67594 7.41159 3.16124V3.77118" stroke="black" stroke-width="0.609939" stroke-linecap="round" stroke-linejoin="round"/>
</svg>
