<svg width="11" height="11" viewBox="0 0 11 11" fill="none" xmlns="http://www.w3.org/2000/svg">
<g clip-path="url(#clip0_201_9071)">
<path d="M8.26532 3.7577C8.56171 5.86542 6.96425 7.63215 5.75752 7.80198C4.5508 7.97181 2.52713 6.70599 2.23131 4.6059C2.17563 4.20975 2.19852 3.80651 2.29868 3.41921C2.39884 3.03191 2.5743 2.66813 2.81505 2.34864C3.05579 2.02914 3.35711 1.7602 3.7018 1.55716C4.04648 1.35412 4.42778 1.22095 4.82393 1.16527C5.22008 1.10959 5.62332 1.13248 6.01062 1.23264C6.39792 1.3328 6.7617 1.50826 7.0812 1.74901C7.40069 1.98975 7.66963 2.29107 7.87267 2.63576C8.07572 2.98044 8.20888 3.36174 8.26456 3.75789L8.26532 3.7577Z" stroke="black" stroke-width="0.609939" stroke-miterlimit="10"/>
<path d="M4.87134 6.69752C4.24558 6.44973 3.59275 5.87601 3.30322 5.0686" stroke="black" stroke-width="0.609939" stroke-miterlimit="10" stroke-linecap="round"/>
<path d="M7.38053 10.2759C6.75477 10.0281 6.17381 9.51229 5.88428 8.70508" stroke="black" stroke-width="0.609939" stroke-miterlimit="10" stroke-linecap="round"/>
<path d="M5.45555 7.8441L5.28076 8.78969L6.48749 8.62005L6.05881 7.75928L5.45555 7.8441Z" stroke="black" stroke-width="0.609939" stroke-linecap="round" stroke-linejoin="round"/>
</g>
<defs>
<clipPath id="clip0_201_9071">
<rect width="9.75902" height="9.75902" fill="white" transform="translate(0.37207 0.825928)"/>
</clipPath>
</defs>
</svg>
