<svg width="10" height="11" viewBox="0 0 10 11" fill="none" xmlns="http://www.w3.org/2000/svg">
<g clip-path="url(#clip0_201_9078)">
<path d="M7.64355 6.68254C8.26779 5.79909 8.53159 4.74542 8.38692 3.71519C8.32556 3.27939 8.17897 2.85994 7.9555 2.4808C7.73204 2.10166 7.43609 1.77024 7.08454 1.50547C6.73299 1.24071 6.33274 1.04778 5.90663 0.937698C5.48052 0.82762 5.0369 0.80255 4.6011 0.863919C2.77129 1.12105 1.49156 2.81915 1.74869 4.64897C1.89298 5.67615 2.43716 6.61526 3.28059 7.29344C3.7491 7.66855 4.27765 7.93197 4.77913 8.04976C4.81705 8.05887 4.85004 8.08217 4.87131 8.11485C4.89258 8.14754 4.90052 8.18714 4.89349 8.2255L4.80067 8.72832C4.78718 8.79674 4.79712 8.8677 4.82888 8.92979C4.85466 8.97929 4.89352 9.02077 4.94125 9.04971C4.98897 9.07864 5.04373 9.09393 5.09954 9.0939C5.11376 9.09393 5.12797 9.09291 5.14204 9.09085L5.48151 9.0432C5.4896 9.04207 5.49784 9.04358 5.50502 9.04749C5.51219 9.0514 5.51791 9.05751 5.52135 9.06493C5.84004 9.75702 6.38784 10.2819 7.08718 10.5585C7.12545 10.5736 7.1664 10.5809 7.20754 10.5797C7.24869 10.5786 7.28918 10.5692 7.32658 10.552C7.36397 10.5348 7.39751 10.5102 7.42516 10.4797C7.4528 10.4492 7.47399 10.4135 7.48745 10.3746C7.54139 10.2187 7.45619 10.0492 7.30294 9.98803C6.82447 9.79689 6.42568 9.44799 6.17265 8.99917C6.16945 8.99376 6.16763 8.98764 6.16737 8.98136C6.16711 8.97508 6.1684 8.96883 6.17113 8.96317C6.17387 8.95751 6.17796 8.95261 6.18305 8.94891C6.18814 8.94522 6.19406 8.94284 6.20029 8.94199L6.34133 8.92293C6.41514 8.91341 6.48319 8.8781 6.53347 8.82324C6.57413 8.77774 6.60022 8.72108 6.60834 8.66059C6.61646 8.60011 6.60625 8.53858 6.57902 8.48396L6.34915 8.02212C6.33168 7.98704 6.32839 7.94658 6.33996 7.90914C6.35153 7.8717 6.37707 7.84014 6.41129 7.82103C6.86093 7.57 7.29665 7.17297 7.64355 6.68254ZM4.69107 7.00238C4.6527 7.00238 4.61468 6.99514 4.57899 6.98103C3.79255 6.66996 3.12467 5.97654 2.8359 5.17142C2.82183 5.1336 2.8154 5.09336 2.817 5.05304C2.81859 5.01271 2.82817 4.97311 2.84518 4.93651C2.86219 4.89992 2.8863 4.86706 2.9161 4.83985C2.9459 4.81264 2.98081 4.79162 3.01879 4.778C3.05678 4.76438 3.09709 4.75843 3.13739 4.7605C3.1777 4.76258 3.21719 4.77263 3.25358 4.79007C3.28996 4.80752 3.32253 4.83202 3.34938 4.86214C3.37623 4.89227 3.39684 4.92742 3.41001 4.96557C3.68639 5.73638 4.311 6.21918 4.80334 6.41417C4.86936 6.44027 4.92422 6.48858 4.95844 6.55079C4.99267 6.61299 5.00411 6.68519 4.99081 6.75493C4.97751 6.82467 4.94029 6.88759 4.88557 6.93283C4.83086 6.97807 4.76207 7.0028 4.69107 7.00276V7.00238Z" fill="black"/>
</g>
<defs>
<clipPath id="clip0_201_9078">
<rect width="9.75902" height="9.75902" fill="white" transform="translate(0.190918 0.825928)"/>
</clipPath>
</defs>
</svg>
