<svg width="10" height="11" viewBox="0 0 10 11" fill="none" xmlns="http://www.w3.org/2000/svg">
<g clip-path="url(#clip0_201_9083)">
<path d="M7.90842 2.68632C7.51267 2.28665 7.04184 1.96912 6.523 1.75196C6.00415 1.5348 5.44752 1.4223 4.88506 1.42091C4.32261 1.41953 3.76542 1.52929 3.24551 1.74389C2.72561 1.9585 2.25323 2.27371 1.85551 2.67143C1.45779 3.06914 1.14258 3.54152 0.927974 4.06143C0.713371 4.58134 0.603609 5.13852 0.604993 5.70098C0.606378 6.26343 0.718881 6.82007 0.936041 7.33892C1.1532 7.85776 1.47074 8.32858 1.87041 8.72434C2.26616 9.12401 2.73698 9.44154 3.25583 9.6587C3.77467 9.87586 4.33131 9.98837 4.89377 9.98975C5.45622 9.99113 6.01341 9.88137 6.53331 9.66677C7.05322 9.45217 7.5256 9.13695 7.92332 8.73923C8.32103 8.34152 8.63625 7.86914 8.85085 7.34923C9.06545 6.82932 9.17522 6.27214 9.17383 5.70968C9.17245 5.14723 9.05995 4.59059 8.84278 4.07175C8.62563 3.5529 8.30809 3.08208 7.90842 2.68632ZM8.24408 5.70533C8.24479 6.437 8.00504 7.14864 7.56171 7.73071L2.86404 3.03304C3.44611 2.58971 4.15774 2.34995 4.88941 2.35067C6.73924 2.35067 8.24408 3.85645 8.24408 5.70533ZM1.53475 5.70533C1.53403 4.97366 1.77379 4.26202 2.21712 3.67995L6.91479 8.37763C6.33272 8.82095 5.62109 9.06071 4.88941 9.05999C3.04054 9.05999 1.53475 7.55516 1.53475 5.70533Z" fill="black"/>
</g>
<defs>
<clipPath id="clip0_201_9083">
<rect width="9.75902" height="9.75902" fill="white" transform="translate(0.00976562 0.825928)"/>
</clipPath>
</defs>
</svg>
