<svg width="11" height="11" viewBox="0 0 11 11" fill="none" xmlns="http://www.w3.org/2000/svg">
<g clip-path="url(#clip0_201_9099)">
<path d="M5.9043 3.81835C5.87598 3.79003 5.84235 3.76756 5.80535 3.75222C5.76834 3.73689 5.72868 3.729 5.68863 3.729C5.64857 3.729 5.60891 3.73689 5.5719 3.75222C5.5349 3.76756 5.50128 3.79003 5.47296 3.81835L3.69384 5.59747C3.66551 5.62579 3.64304 5.65941 3.62771 5.69641C3.61238 5.73342 3.60449 5.77308 3.60449 5.81314C3.60449 5.85319 3.61238 5.89286 3.62771 5.92986C3.64304 5.96687 3.66551 6.00049 3.69384 6.02881L5.20344 7.53841C5.23176 7.56673 5.26538 7.5892 5.30239 7.60453C5.33939 7.61986 5.37905 7.62775 5.41911 7.62775C5.45916 7.62775 5.49883 7.61986 5.53583 7.60453C5.57284 7.5892 5.60646 7.56673 5.63478 7.53841L7.4139 5.75929C7.44222 5.73097 7.46469 5.69735 7.48002 5.66034C7.49535 5.62334 7.50324 5.58368 7.50324 5.54362C7.50324 5.50357 7.49535 5.4639 7.48002 5.4269C7.46469 5.38989 7.44222 5.35627 7.4139 5.32795L5.9043 3.81835ZM4.82756 5.92093C4.78492 5.9636 4.73058 5.99266 4.67142 6.00445C4.61225 6.01623 4.55092 6.0102 4.49519 5.98712C4.43945 5.96405 4.39181 5.92496 4.35829 5.8748C4.32477 5.82465 4.30688 5.76568 4.30688 5.70535C4.30688 5.64502 4.32477 5.58605 4.35829 5.5359C4.39181 5.48574 4.43945 5.44665 4.49519 5.42358C4.55092 5.4005 4.61225 5.39447 4.67142 5.40626C4.73058 5.41804 4.78492 5.4471 4.82756 5.48977C4.88471 5.54696 4.91682 5.6245 4.91682 5.70535C4.91682 5.7862 4.88471 5.86374 4.82756 5.92093ZM5.74247 6.83583C5.69983 6.8785 5.64549 6.90757 5.58633 6.91935C5.52716 6.93114 5.46583 6.92511 5.4101 6.90203C5.35436 6.87896 5.30672 6.83987 5.2732 6.78971C5.23968 6.73955 5.22179 6.68058 5.22179 6.62026C5.22179 6.55993 5.23968 6.50096 5.2732 6.45081C5.30672 6.40065 5.35436 6.36156 5.4101 6.33848C5.46583 6.31541 5.52716 6.30938 5.58633 6.32116C5.64549 6.33295 5.69983 6.36201 5.74247 6.40468C5.79962 6.46187 5.83173 6.53941 5.83173 6.62026C5.83173 6.70111 5.79962 6.77865 5.74247 6.83583ZM5.74247 5.00602C5.69983 5.04869 5.64549 5.07775 5.58633 5.08954C5.52716 5.10132 5.46583 5.09529 5.4101 5.07222C5.35436 5.04914 5.30672 5.01005 5.2732 4.95989C5.23968 4.90974 5.22179 4.85077 5.22179 4.79044C5.22179 4.73012 5.23968 4.67115 5.2732 4.62099C5.30672 4.57083 5.35436 4.53174 5.4101 4.50867C5.46583 4.48559 5.52716 4.47956 5.58633 4.49135C5.64549 4.50313 5.69983 4.5322 5.74247 4.57487C5.79962 4.63205 5.83173 4.70959 5.83173 4.79044C5.83173 4.87129 5.79962 4.94883 5.74247 5.00602ZM6.65738 5.92093C6.61474 5.9636 6.5604 5.99266 6.50123 6.00445C6.44207 6.01623 6.38074 6.0102 6.325 5.98712C6.26927 5.96405 6.22162 5.92496 6.1881 5.8748C6.15459 5.82465 6.13669 5.76568 6.13669 5.70535C6.13669 5.64502 6.15459 5.58605 6.1881 5.5359C6.22162 5.48574 6.26927 5.44665 6.325 5.42358C6.38074 5.4005 6.44207 5.39447 6.50123 5.40626C6.5604 5.41804 6.61474 5.4471 6.65738 5.48977C6.71453 5.54696 6.74663 5.6245 6.74663 5.70535C6.74663 5.7862 6.71453 5.86374 6.65738 5.92093Z" fill="black"/>
<path d="M9.52226 1.71011C9.14944 1.33912 8.64488 1.13086 8.11893 1.13086C7.59297 1.13086 7.08842 1.33912 6.71559 1.71011L5.38592 3.04225C5.37372 3.05454 5.36606 3.07062 5.36421 3.08784C5.36236 3.10507 5.36643 3.12241 5.37575 3.13701C5.38507 3.15161 5.39908 3.1626 5.41548 3.16817C5.43188 3.17375 5.44969 3.17357 5.46598 3.16767C5.537 3.13913 5.61233 3.12276 5.6888 3.11926C5.80899 3.11895 5.92805 3.14248 6.03909 3.18848C6.15013 3.23448 6.25095 3.30204 6.33571 3.38725L7.84512 4.89666C7.93033 4.98142 7.99789 5.08224 8.04389 5.19328C8.08989 5.30432 8.11342 5.42338 8.11311 5.54357C8.10963 5.62004 8.09326 5.69537 8.0647 5.76639C8.0588 5.78268 8.05862 5.80049 8.06419 5.81689C8.06977 5.83329 8.08076 5.8473 8.09536 5.85662C8.10996 5.86594 8.1273 5.87001 8.14453 5.86816C8.16175 5.86631 8.17783 5.85865 8.19012 5.84645L9.52226 4.51678C9.89325 4.14395 10.1015 3.6394 10.1015 3.11344C10.1015 2.58749 9.89325 2.08293 9.52226 1.71011Z" fill="black"/>
<path d="M5.49554 8.19921C5.37546 8.19944 5.25652 8.176 5.14551 8.13021C5.0345 8.08442 4.93362 8.01719 4.84863 7.93236L3.33922 6.42219C3.26509 6.34814 3.20428 6.26187 3.15948 6.16716C3.07199 5.98227 3.13298 5.69064 3.20675 5.46382C3.21163 5.4476 3.21097 5.43021 3.20488 5.41441C3.19878 5.3986 3.18759 5.38528 3.17308 5.37654C3.15857 5.36779 3.14156 5.36413 3.12474 5.36613C3.10792 5.36813 3.09224 5.37568 3.08019 5.38758L1.60814 6.85601C1.23595 7.22819 1.02686 7.73299 1.02686 8.25934C1.02686 8.7857 1.23595 9.29049 1.60814 9.66268C1.98032 10.0349 2.48512 10.244 3.01147 10.244C3.53782 10.244 4.04262 10.0349 4.41481 9.66268L5.80147 8.27354C5.81373 8.26125 5.82143 8.24514 5.82329 8.22788C5.82515 8.21062 5.82107 8.19323 5.81171 8.17861C5.80235 8.16398 5.78828 8.15299 5.77183 8.14745C5.75537 8.1419 5.73752 8.14214 5.72122 8.14812C5.64155 8.17824 5.56111 8.19921 5.49554 8.19921Z" fill="black"/>
</g>
<defs>
<clipPath id="clip0_201_9099">
<rect width="9.75902" height="9.75902" fill="white" transform="translate(0.647461 0.825928)"/>
</clipPath>
</defs>
</svg>
