<svg width="11" height="11" viewBox="0 0 11 11" fill="none" xmlns="http://www.w3.org/2000/svg">
<g clip-path="url(#clip0_201_9088)">
<path d="M7.11239 1.9257L1.92839 7.10969C1.27246 7.76563 1.27246 8.8291 1.92839 9.48503L1.92853 9.48517C2.58446 10.1411 3.64794 10.1411 4.30387 9.48517L9.48786 4.30117C10.1438 3.64524 10.1438 2.58177 9.48786 1.92583L9.48773 1.9257C8.83179 1.26977 7.76832 1.26977 7.11239 1.9257Z" stroke="black" stroke-width="0.609939" stroke-linecap="round" stroke-linejoin="round"/>
<path d="M7.81044 5.11244L6.30092 3.60292C6.06272 3.36473 5.67653 3.36473 5.43834 3.60292L3.65926 5.382C3.42106 5.6202 3.42106 6.00639 3.65926 6.24459L5.16878 7.75411C5.40698 7.9923 5.79317 7.9923 6.03136 7.75411L7.81044 5.97503C8.04864 5.73683 8.04864 5.35064 7.81044 5.11244Z" stroke="black" stroke-width="0.609939" stroke-linecap="round" stroke-linejoin="round"/>
<path d="M5.70829 5.09541C5.87672 5.09541 6.01326 4.95887 6.01326 4.79044C6.01326 4.62201 5.87672 4.48547 5.70829 4.48547C5.53986 4.48547 5.40332 4.62201 5.40332 4.79044C5.40332 4.95887 5.53986 5.09541 5.70829 5.09541Z" fill="black"/>
<path d="M6.62284 6.01033C6.79127 6.01033 6.92781 5.87379 6.92781 5.70536C6.92781 5.53693 6.79127 5.40039 6.62284 5.40039C6.45441 5.40039 6.31787 5.53693 6.31787 5.70536C6.31787 5.87379 6.45441 6.01033 6.62284 6.01033Z" fill="black"/>
<path d="M4.79325 6.01033C4.96168 6.01033 5.09822 5.87379 5.09822 5.70536C5.09822 5.53693 4.96168 5.40039 4.79325 5.40039C4.62482 5.40039 4.48828 5.53693 4.48828 5.70536C4.48828 5.87379 4.62482 6.01033 4.79325 6.01033Z" fill="black"/>
<path d="M5.70829 6.92525C5.87672 6.92525 6.01326 6.78871 6.01326 6.62028C6.01326 6.45185 5.87672 6.31531 5.70829 6.31531C5.53986 6.31531 5.40332 6.45185 5.40332 6.62028C5.40332 6.78871 5.53986 6.92525 5.70829 6.92525Z" fill="black"/>
</g>
<defs>
<clipPath id="clip0_201_9088">
<rect width="9.75902" height="9.75902" fill="white" transform="translate(0.828613 0.825928)"/>
</clipPath>
</defs>
</svg>
