<svg width="10" height="11" viewBox="0 0 10 11" fill="none" xmlns="http://www.w3.org/2000/svg">
<g clip-path="url(#clip0_201_9106)">
<path d="M0.666992 1.43579V9.66996C0.666992 9.75085 0.699123 9.82842 0.756316 9.88561C0.813508 9.9428 0.891079 9.97493 0.971962 9.97493H9.20613" stroke="black" stroke-width="0.609939" stroke-linecap="round" stroke-linejoin="round"/>
<path d="M3.03035 5.09546H2.26793C2.05739 5.09546 1.88672 5.26613 1.88672 5.47667V8.37388C1.88672 8.58442 2.05739 8.75509 2.26793 8.75509H3.03035C3.24089 8.75509 3.41157 8.58442 3.41157 8.37388V5.47667C3.41157 5.26613 3.24089 5.09546 3.03035 5.09546Z" stroke="black" stroke-width="0.609939" stroke-linecap="round" stroke-linejoin="round"/>
<path d="M5.77547 4.18054H5.01305C4.80251 4.18054 4.63184 4.35122 4.63184 4.56175V8.37387C4.63184 8.58441 4.80251 8.75508 5.01305 8.75508H5.77547C5.98601 8.75508 6.15668 8.58441 6.15668 8.37387V4.56175C6.15668 4.35122 5.98601 4.18054 5.77547 4.18054Z" stroke="black" stroke-width="0.609939" stroke-linecap="round" stroke-linejoin="round"/>
<path d="M8.51326 2.96069H7.75084C7.5403 2.96069 7.36963 3.13137 7.36963 3.34191V8.3739C7.36963 8.58444 7.5403 8.75511 7.75084 8.75511H8.51326C8.7238 8.75511 8.89448 8.58444 8.89448 8.3739V3.34191C8.89448 3.13137 8.7238 2.96069 8.51326 2.96069Z" stroke="black" stroke-width="0.609939" stroke-linecap="round" stroke-linejoin="round"/>
</g>
<defs>
<clipPath id="clip0_201_9106">
<rect width="9.75902" height="9.75902" fill="white" transform="translate(0.0571289 0.825928)"/>
</clipPath>
</defs>
</svg>
