<svg width="11" height="11" viewBox="0 0 11 11" fill="none" xmlns="http://www.w3.org/2000/svg">
<g clip-path="url(#clip0_201_9116)">
<path d="M10.0253 10.2801H1.79109C1.62933 10.2801 1.47418 10.2158 1.3598 10.1014C1.24541 9.98703 1.18115 9.83189 1.18115 9.67013V1.43595C1.18115 1.35507 1.21328 1.2775 1.27048 1.2203C1.32767 1.16311 1.40524 1.13098 1.48612 1.13098C1.567 1.13098 1.64457 1.16311 1.70177 1.2203C1.75896 1.2775 1.79109 1.35507 1.79109 1.43595V9.67013H10.0253C10.1061 9.67013 10.1837 9.70226 10.2409 9.75945C10.2981 9.81664 10.3302 9.89421 10.3302 9.97509C10.3302 10.056 10.2981 10.1335 10.2409 10.1907C10.1837 10.2479 10.1061 10.2801 10.0253 10.2801Z" fill="black"/>
<path d="M3.84948 9.0601H3.08706C2.90507 9.0601 2.73054 8.9878 2.60186 8.85912C2.47317 8.73044 2.40088 8.5559 2.40088 8.37392V5.47671C2.40088 5.29472 2.47317 5.12019 2.60186 4.99151C2.73054 4.86282 2.90507 4.79053 3.08706 4.79053H3.84948C4.03147 4.79053 4.206 4.86282 4.33469 4.99151C4.46337 5.12019 4.53566 5.29472 4.53566 5.47671V8.37392C4.53566 8.5559 4.46337 8.73044 4.33469 8.85912C4.206 8.9878 4.03147 9.0601 3.84948 9.0601Z" fill="black"/>
<path d="M6.59411 9.06009H5.83169C5.6497 9.06009 5.47517 8.9878 5.34649 8.85911C5.2178 8.73043 5.14551 8.5559 5.14551 8.37391V4.56179C5.14551 4.3798 5.2178 4.20527 5.34649 4.07659C5.47517 3.9479 5.6497 3.87561 5.83169 3.87561H6.59411C6.7761 3.87561 6.95063 3.9479 7.07932 4.07659C7.208 4.20527 7.28029 4.3798 7.28029 4.56179V8.37391C7.28029 8.5559 7.208 8.73043 7.07932 8.85911C6.95063 8.9878 6.7761 9.06009 6.59411 9.06009Z" fill="black"/>
<path d="M9.33191 9.06024H8.56948C8.3875 9.06024 8.21296 8.98795 8.08428 8.85926C7.95559 8.73058 7.8833 8.55605 7.8833 8.37406V3.34206C7.8833 3.16008 7.95559 2.98555 8.08428 2.85686C8.21296 2.72818 8.3875 2.65588 8.56948 2.65588H9.33191C9.51389 2.65588 9.68842 2.72818 9.81711 2.85686C9.94579 2.98555 10.0181 3.16008 10.0181 3.34206V8.37406C10.0181 8.55605 9.94579 8.73058 9.81711 8.85926C9.68842 8.98795 9.51389 9.06024 9.33191 9.06024Z" fill="black"/>
</g>
<defs>
<clipPath id="clip0_201_9116">
<rect width="9.75902" height="9.75902" fill="white" transform="translate(0.875977 0.825928)"/>
</clipPath>
</defs>
</svg>
