<svg width="11" height="11" viewBox="0 0 11 11" fill="none" xmlns="http://www.w3.org/2000/svg">
<g clip-path="url(#clip0_201_9121)">
<path d="M1.2002 5.70544H9.1294" stroke="black" stroke-width="0.609939" stroke-linecap="round" stroke-linejoin="round"/>
<path d="M8.21443 3.57072C8.21443 3.40229 8.07789 3.26575 7.90946 3.26575C7.74103 3.26575 7.60449 3.40229 7.60449 3.57072V7.84029C7.60449 8.00872 7.74103 8.14526 7.90946 8.14526C8.07789 8.14526 8.21443 8.00872 8.21443 7.84029V3.57072Z" stroke="black" stroke-width="0.609939" stroke-linecap="round" stroke-linejoin="round"/>
<path d="M2.72468 3.57072C2.72468 3.40229 2.58815 3.26575 2.41972 3.26575C2.25129 3.26575 2.11475 3.40229 2.11475 3.57072V7.84029C2.11475 8.00872 2.25129 8.14526 2.41972 8.14526C2.58815 8.14526 2.72468 8.00872 2.72468 7.84029V3.57072Z" stroke="black" stroke-width="0.609939" stroke-linecap="round" stroke-linejoin="round"/>
<path d="M1.19999 4.63808C1.19999 4.55387 1.13172 4.4856 1.0475 4.4856C0.963289 4.4856 0.89502 4.55387 0.89502 4.63808V6.77287C0.89502 6.85708 0.963289 6.92535 1.0475 6.92535C1.13172 6.92535 1.19999 6.85708 1.19999 6.77287V4.63808Z" stroke="black" stroke-width="0.609939" stroke-linecap="round" stroke-linejoin="round"/>
<path d="M9.43436 4.63808C9.43436 4.55387 9.36609 4.4856 9.28188 4.4856C9.19766 4.4856 9.12939 4.55387 9.12939 4.63808V6.77287C9.12939 6.85708 9.19766 6.92535 9.28188 6.92535C9.36609 6.92535 9.43436 6.85708 9.43436 6.77287V4.63808Z" stroke="black" stroke-width="0.609939" stroke-linecap="round" stroke-linejoin="round"/>
</g>
<defs>
<clipPath id="clip0_201_9121">
<rect width="9.75902" height="9.75902" fill="white" transform="translate(0.285156 0.825928)"/>
</clipPath>
</defs>
</svg>
