<svg width="10" height="11" viewBox="0 0 10 11" fill="none" xmlns="http://www.w3.org/2000/svg">
<g clip-path="url(#clip0_201_9129)">
<path d="M9.00599 4.18049C8.91216 4.17744 8.81902 4.19759 8.73483 4.23915C8.65065 4.28071 8.57802 4.3424 8.52338 4.41875C8.51874 4.42539 8.5121 4.43039 8.50443 4.43301C8.49676 4.43562 8.48846 4.43573 8.48073 4.43331C8.47299 4.43088 8.46623 4.42606 8.46142 4.41954C8.45662 4.41301 8.45402 4.40512 8.454 4.39702V3.69845C8.454 3.30294 8.14255 2.97014 7.74723 2.9608C7.6506 2.95836 7.55446 2.97528 7.46447 3.01058C7.37449 3.04587 7.29248 3.09882 7.22327 3.1663C7.15407 3.23378 7.09907 3.31443 7.06152 3.4035C7.02397 3.49257 7.00463 3.58825 7.00463 3.68491V5.24788C7.00463 5.25799 7.00061 5.26769 6.99347 5.27484C6.98632 5.28199 6.97662 5.286 6.96651 5.286H3.00191C2.9918 5.286 2.9821 5.28199 2.97495 5.27484C2.9678 5.26769 2.96379 5.25799 2.96379 5.24788V3.69845C2.96379 3.30294 2.65234 2.97014 2.25702 2.9608C2.16045 2.95846 2.0644 2.97546 1.9745 3.0108C1.8846 3.04614 1.80268 3.09911 1.73356 3.16658C1.66443 3.23405 1.6095 3.31467 1.572 3.40368C1.5345 3.4927 1.51518 3.58832 1.51518 3.68491V4.3974C1.51516 4.4055 1.51256 4.41339 1.50776 4.41992C1.50295 4.42644 1.49619 4.43127 1.48845 4.43369C1.48072 4.43611 1.47242 4.436 1.46475 4.43339C1.45708 4.43077 1.45044 4.42577 1.4458 4.41913C1.39113 4.3426 1.3184 4.28077 1.23407 4.23914C1.14974 4.1975 1.05642 4.17736 0.962425 4.18049C0.651737 4.19021 0.409668 4.45325 0.409668 4.76412V6.64579C0.409668 6.95666 0.6525 7.2197 0.962425 7.22942C1.05626 7.23247 1.1494 7.21232 1.23358 7.17076C1.31777 7.1292 1.3904 7.06751 1.44504 6.99116C1.44956 6.98414 1.45628 6.97879 1.46414 6.97595C1.472 6.97311 1.48058 6.97293 1.48855 6.97545C1.49652 6.97796 1.50345 6.98302 1.50826 6.98986C1.51307 6.99669 1.5155 7.00492 1.51518 7.01327V7.71223C1.51518 8.10697 1.82663 8.44053 2.22195 8.45006C2.31853 8.4524 2.4146 8.43539 2.50452 8.40004C2.59443 8.36469 2.67636 8.31171 2.74548 8.24422C2.81461 8.17673 2.86953 8.09609 2.90702 8.00705C2.94452 7.91801 2.96381 7.82237 2.96379 7.72576V6.16279C2.96379 6.15268 2.9678 6.14298 2.97495 6.13583C2.9821 6.12869 2.9918 6.12467 3.00191 6.12467H6.96651C6.97662 6.12467 6.98632 6.12869 6.99347 6.13583C7.00061 6.14298 7.00463 6.15268 7.00463 6.16279V7.71223C7.00463 8.10773 7.31608 8.44053 7.7114 8.44987C7.80796 8.45221 7.90402 8.43521 7.99392 8.39987C8.08382 8.36453 8.16574 8.31157 8.23486 8.2441C8.30399 8.17662 8.35891 8.09601 8.39642 8.00699C8.43392 7.91797 8.45324 7.82235 8.45323 7.72576V7.01327C8.45325 7.00517 8.45586 6.99728 8.46066 6.99076C8.46547 6.98423 8.47223 6.97941 8.47996 6.97699C8.4877 6.97456 8.496 6.97467 8.50367 6.97729C8.51134 6.97991 8.51798 6.9849 8.52262 6.99155C8.57728 7.06807 8.65002 7.1299 8.73435 7.17154C8.81868 7.21317 8.912 7.23332 9.00599 7.23018C9.31668 7.22046 9.55875 6.95743 9.55875 6.64655V4.76451C9.55875 4.45363 9.31592 4.19059 9.00599 4.18049Z" fill="black"/>
</g>
<defs>
<clipPath id="clip0_201_9129">
<rect width="9.75902" height="9.75902" fill="white" transform="translate(0.104492 0.825928)"/>
</clipPath>
</defs>
</svg>
