<svg width="11" height="11" viewBox="0 0 11 11" fill="none" xmlns="http://www.w3.org/2000/svg">
<path d="M7.83301 8.45655L8.50261 8.45026C8.64835 8.44961 8.78794 8.39143 8.89099 8.28837C8.99405 8.18531 9.05223 8.04573 9.05289 7.89999V3.51109C9.05223 3.36535 8.99405 3.22577 8.89099 3.12271C8.78794 3.01965 8.64835 2.96147 8.50261 2.96082L7.83301 2.96711" stroke="black" stroke-width="0.609939" stroke-linecap="round" stroke-linejoin="round"/>
<path d="M2.95328 2.96082L2.25185 2.96711C1.94916 2.96711 1.7334 3.21489 1.7334 3.51738V7.90647C1.7334 8.20896 1.94916 8.45655 2.25185 8.45655L2.95328 8.45026" stroke="black" stroke-width="0.609939" stroke-linecap="round" stroke-linejoin="round"/>
<path d="M7.83301 4.4856V6.92535" stroke="black" stroke-width="0.609939" stroke-linecap="round" stroke-linejoin="round"/>
<path d="M6.61328 3.87561V7.53524" stroke="black" stroke-width="0.609939" stroke-linecap="round" stroke-linejoin="round"/>
<path d="M5.39307 4.18066V7.23036" stroke="black" stroke-width="0.609939" stroke-linecap="round" stroke-linejoin="round"/>
<path d="M4.17334 3.87561V7.53524" stroke="black" stroke-width="0.609939" stroke-linecap="round" stroke-linejoin="round"/>
<path d="M2.95361 4.4856V6.92535" stroke="black" stroke-width="0.609939" stroke-linecap="round" stroke-linejoin="round"/>
</svg>
