<svg width="11" height="11" viewBox="0 0 11 11" fill="none" xmlns="http://www.w3.org/2000/svg">
<path d="M9.02394 6.46158L9.01499 5.96467C8.76316 5.95876 8.5125 5.92857 8.26648 5.87451L8.17117 6.20521C8.16208 6.23962 8.1462 6.27187 8.12446 6.30005C8.10272 6.32823 8.07556 6.35178 8.04458 6.3693C8.0136 6.38683 7.97943 6.39798 7.94408 6.4021C7.90872 6.40623 7.8729 6.40323 7.83872 6.3933C7.80454 6.38337 7.7727 6.3667 7.74506 6.34428C7.71742 6.32186 7.69454 6.29413 7.67778 6.26273C7.66101 6.23133 7.6507 6.1969 7.64745 6.16146C7.64419 6.12601 7.64806 6.09027 7.65882 6.05635L7.75413 5.72508C7.51492 5.63735 7.28479 5.52659 7.06699 5.39437L6.868 5.6759C6.82716 5.73371 6.76502 5.77292 6.69526 5.78491C6.6255 5.7969 6.55384 5.78069 6.49603 5.73985C6.43823 5.699 6.39901 5.63687 6.38702 5.56711C6.37503 5.49735 6.39124 5.42569 6.43208 5.36788L6.63051 5.08712C6.42062 4.91682 6.22898 4.72519 6.05869 4.5153L5.77812 4.71429C5.74949 4.73452 5.71717 4.74891 5.68298 4.75664C5.6488 4.76437 5.61343 4.76529 5.57889 4.75936C5.54435 4.75342 5.51132 4.74073 5.48168 4.72203C5.45204 4.70333 5.42637 4.67897 5.40615 4.65034C5.38592 4.62172 5.37153 4.5894 5.3638 4.55521C5.35607 4.52103 5.35515 4.48566 5.36109 4.45112C5.37308 4.38136 5.41229 4.31922 5.4701 4.27838L5.75105 4.07977C5.6185 3.862 5.50755 3.63179 5.41978 3.39244L5.08965 3.48774C5.05599 3.49752 5.02074 3.50057 4.98591 3.49672C4.95108 3.49287 4.91735 3.4822 4.88664 3.46532C4.85593 3.44843 4.82885 3.42566 4.80694 3.39831C4.78503 3.37096 4.76872 3.33956 4.75895 3.30591C4.74917 3.27225 4.74612 3.237 4.74997 3.20217C4.75382 3.16734 4.76449 3.1336 4.78138 3.1029C4.79826 3.07219 4.82103 3.04511 4.84838 3.0232C4.87573 3.00129 4.90713 2.98498 4.94078 2.97521L5.27053 2.8799C5.22587 2.67542 5.19763 2.4677 5.18609 2.25872C5.18393 2.2206 5.18241 2.18248 5.18152 2.14435L4.83424 2.13806C4.76433 2.13677 4.69772 2.10808 4.64874 2.05818C4.59976 2.00827 4.57233 1.94114 4.57234 1.87122C3.86964 2.02697 3.2226 2.37108 2.70061 2.86664C2.17863 3.3622 1.8014 3.99051 1.60938 4.68418C1.6858 4.68895 1.75764 4.7223 1.81061 4.7776C1.86358 4.8329 1.89381 4.9061 1.89528 4.98267L1.90367 5.44832C1.93379 5.44927 1.9639 5.45041 1.99383 5.45213C2.20281 5.46366 2.41053 5.4919 2.61501 5.53657L2.71031 5.20682C2.73006 5.13885 2.77599 5.08151 2.83801 5.04741C2.90002 5.01331 2.97305 5.00524 3.04102 5.02498C3.10898 5.04472 3.16632 5.09065 3.20043 5.15267C3.23453 5.21469 3.24259 5.28771 3.22285 5.35568L3.12755 5.68581C3.36651 5.77364 3.59633 5.88459 3.81373 6.01708L4.01101 5.73613C4.05185 5.67832 4.11399 5.63911 4.18375 5.62712C4.25351 5.61513 4.32517 5.63134 4.38298 5.67218C4.44078 5.71303 4.48 5.77517 4.49199 5.84492C4.50398 5.91468 4.48777 5.98634 4.44692 6.04415L4.24889 6.32491C4.35382 6.41007 4.45427 6.50061 4.54985 6.59615C4.64544 6.69168 4.73597 6.79214 4.82108 6.89711L5.10185 6.69869C5.1597 6.65784 5.23142 6.64166 5.30121 6.65368C5.371 6.66571 5.43316 6.70497 5.474 6.76283C5.51485 6.82069 5.53104 6.8924 5.51901 6.96219C5.50698 7.03199 5.46772 7.09414 5.40987 7.13499L5.12853 7.33379C5.26083 7.55154 5.37171 7.78159 5.45961 8.02073L5.79089 7.92448C5.85885 7.90474 5.93188 7.9128 5.9939 7.94691C6.05592 7.98101 6.10185 8.03835 6.12159 8.10632C6.14133 8.17428 6.13326 8.24731 6.09916 8.30933C6.06506 8.37134 6.00772 8.41728 5.93975 8.43702L5.60905 8.53232C5.66167 8.77219 5.69167 9.01648 5.69863 9.26196L6.04687 9.26825C6.12772 9.2697 6.20469 9.30321 6.26084 9.3614C6.317 9.41959 6.34774 9.4977 6.34631 9.57856C6.34619 9.58614 6.34568 9.59371 6.34479 9.60124C7.04834 9.43371 7.69266 9.07693 8.208 8.56951C8.72335 8.0621 9.09008 7.42338 9.26849 6.72252C9.20266 6.71701 9.14121 6.68727 9.09604 6.63907C9.05086 6.59087 9.02518 6.52763 9.02394 6.46158Z" fill="black"/>
<path d="M6.30765 1.89715C6.30665 1.96723 6.27812 2.0341 6.22823 2.08331C6.17833 2.13253 6.11108 2.16014 6.04099 2.16018H6.03623L5.71582 2.15447C5.71677 2.17944 5.71773 2.20441 5.71906 2.22937C5.72847 2.39793 5.75038 2.56555 5.78463 2.73086L6.09513 2.64051C6.16088 2.6268 6.22939 2.6384 6.28698 2.67298C6.34456 2.70757 6.38698 2.7626 6.40578 2.82708C6.42457 2.89157 6.41835 2.96078 6.38836 3.02088C6.35837 3.08099 6.30682 3.12757 6.24399 3.15134L5.93387 3.24149C6.0032 3.42441 6.08821 3.601 6.18795 3.76928L6.45175 3.58287C6.48037 3.56264 6.5127 3.54825 6.54688 3.54052C6.58107 3.53279 6.61644 3.53187 6.65098 3.5378C6.68552 3.54374 6.71855 3.55643 6.74819 3.57513C6.77783 3.59383 6.80349 3.61819 6.82372 3.64682C6.84394 3.67544 6.85833 3.70776 6.86606 3.74195C6.87379 3.77613 6.87472 3.8115 6.86878 3.84604C6.86284 3.88058 6.85016 3.91362 6.83145 3.94326C6.81275 3.97289 6.78839 3.99856 6.75977 4.01878L6.49559 4.20539C6.5623 4.28582 6.63295 4.36327 6.70754 4.43774C6.78188 4.51226 6.86003 4.5826 6.94008 4.64931L7.12649 4.38551C7.14683 4.35689 7.17261 4.33255 7.20235 4.31389C7.23209 4.29523 7.26522 4.28261 7.29984 4.27675C7.33446 4.27089 7.3699 4.27191 7.40412 4.27974C7.43835 4.28758 7.4707 4.30208 7.49932 4.32242C7.52794 4.34276 7.55228 4.36853 7.57094 4.39827C7.5896 4.42802 7.60222 4.46114 7.60808 4.49576C7.61394 4.53038 7.61292 4.56582 7.60508 4.60005C7.59725 4.63427 7.58275 4.66662 7.56241 4.69524L7.37638 4.95828C7.54463 5.05795 7.72115 5.14296 7.90398 5.21236L7.9947 4.90205C8.01444 4.83408 8.06038 4.77674 8.12239 4.74264C8.18441 4.70854 8.25744 4.70047 8.32541 4.72021C8.39337 4.73995 8.45071 4.78589 8.48481 4.8479C8.51892 4.90992 8.52698 4.98295 8.50724 5.05091L8.41709 5.36084C8.61131 5.40126 8.80871 5.42454 9.00701 5.43041L9.00396 5.25886C9.00274 5.18812 9.02966 5.11979 9.07881 5.06889C9.12795 5.01799 9.1953 4.9887 9.26605 4.98744H9.27081C9.28737 4.98757 9.3039 4.98916 9.32018 4.99221C9.17484 4.23648 8.8127 3.5394 8.27794 2.98598C7.74317 2.43257 7.0589 2.04676 6.3086 1.87561C6.30746 1.88323 6.30784 1.8901 6.30765 1.89715Z" fill="black"/>
<path d="M4.53394 9.54712C4.53539 9.46626 4.56889 9.3893 4.62709 9.33314C4.68528 9.27699 4.76339 9.24625 4.84424 9.24768L5.1637 9.2532C5.15685 9.06131 5.13377 8.87034 5.0947 8.68234L4.78477 8.77231C4.75111 8.78208 4.71584 8.78513 4.681 8.78127C4.64616 8.77742 4.61241 8.76674 4.58169 8.74985C4.55098 8.73295 4.52389 8.71018 4.50197 8.68281C4.48006 8.65545 4.46375 8.62404 4.45398 8.59037C4.4442 8.55671 4.44115 8.52144 4.44501 8.4866C4.44886 8.45176 4.45954 8.41801 4.47643 8.38729C4.49333 8.35658 4.51611 8.32949 4.54347 8.30757C4.57083 8.28566 4.60224 8.26935 4.63591 8.25958L4.94488 8.16999C4.87556 7.98713 4.79055 7.8106 4.6908 7.64239L4.42777 7.82843C4.39914 7.84865 4.36682 7.86304 4.33264 7.87077C4.29845 7.8785 4.26308 7.87943 4.22854 7.87349C4.194 7.86755 4.16097 7.85487 4.13133 7.83616C4.10169 7.81746 4.07603 7.7931 4.0558 7.76448C4.03558 7.73585 4.02119 7.70353 4.01345 7.66934C4.00572 7.63516 4.0048 7.59979 4.01074 7.56525C4.01668 7.53071 4.02936 7.49768 4.04806 7.46804C4.06677 7.4384 4.09113 7.41273 4.11975 7.39251L4.38355 7.2061C4.31683 7.12566 4.2465 7.04789 4.17197 6.97356C4.09745 6.89922 4.01949 6.82832 3.93963 6.7616L3.75302 7.02578C3.71218 7.08359 3.65004 7.1228 3.58028 7.13479C3.51053 7.14679 3.43886 7.13058 3.38106 7.08973C3.32325 7.04889 3.28404 6.98675 3.27204 6.91699C3.26005 6.84724 3.27626 6.77557 3.31711 6.71776L3.50352 6.45397C3.33528 6.35415 3.15869 6.26913 2.97573 6.19989L2.88634 6.51C2.8666 6.578 2.82066 6.63536 2.75862 6.66948C2.69658 6.7036 2.62353 6.71168 2.55554 6.69194C2.48755 6.6722 2.43018 6.62625 2.39606 6.56422C2.36195 6.50218 2.35387 6.42913 2.37361 6.36114L2.46376 6.05064C2.29848 6.01629 2.13084 5.99438 1.96228 5.98508C1.94532 5.98412 1.92816 5.98355 1.9112 5.98279L1.91425 6.18464C1.91568 6.26549 1.88493 6.3436 1.82878 6.4018C1.77263 6.45999 1.69566 6.49349 1.61481 6.49495H1.60928C1.58394 6.49484 1.55871 6.49157 1.53418 6.48523C1.67782 7.24134 2.03844 7.93929 2.57202 8.49393C3.10561 9.04857 3.78909 9.4359 4.53908 9.60868C4.53525 9.58839 4.53352 9.56776 4.53394 9.54712Z" fill="black"/>
</svg>
