<svg width="10" height="11" viewBox="0 0 10 11" fill="none" xmlns="http://www.w3.org/2000/svg">
<path d="M5.91088 1.89717C5.90991 1.9597 5.88682 2.01987 5.84569 2.067L5.8436 2.16478L5.31543 2.15391C5.31543 2.17869 5.31714 2.20366 5.31848 2.22844C5.32784 2.39701 5.34982 2.56464 5.38424 2.72992L5.85542 2.59307L6.00428 3.10542L5.53329 3.24227C5.6026 3.42523 5.68768 3.60183 5.78756 3.77006L6.19298 3.48415L6.501 3.91988L6.0952 4.20674C6.16191 4.28717 6.2325 4.36462 6.30696 4.43909C6.38149 4.51361 6.45945 4.58395 6.5395 4.65066L6.83894 4.22713L7.27467 4.53515L6.97523 4.95734C7.14348 5.05695 7.32 5.1419 7.50282 5.21123L7.64559 4.71947L8.15813 4.86833L8.01517 5.36067C8.2097 5.40126 8.40742 5.42467 8.60605 5.43062L8.59823 4.96039L8.93008 4.95487C8.78432 4.19668 8.42036 3.49755 7.88287 2.9433C7.34538 2.38905 6.65775 2.0038 5.9044 1.83484C5.90907 1.85528 5.91124 1.87621 5.91088 1.89717Z" fill="black"/>
<path d="M4.23016 9.24392L4.76214 9.25326C4.75538 9.06136 4.7323 8.87038 4.69314 8.6824L4.23301 8.81582L4.08415 8.30347L4.5437 8.17005C4.47438 7.98719 4.38937 7.81066 4.28962 7.64245L3.90212 7.91654L3.5941 7.48082L3.98237 7.20616C3.91585 7.12572 3.84532 7.04795 3.77099 6.97362C3.69665 6.89928 3.6185 6.82838 3.53864 6.76166L3.2735 7.13678L2.83873 6.82876L3.10367 6.45403C2.93537 6.3542 2.75871 6.26919 2.5757 6.19995L2.45428 6.61814L1.94174 6.46927L2.06335 6.04994C1.89798 6.01584 1.73028 5.99418 1.56167 5.98514C1.53137 5.98342 1.50106 5.98209 1.47056 5.98132L1.47819 6.40714L1.14062 6.41324C1.28076 7.18895 1.64907 7.90524 2.19848 8.4705C2.74789 9.03576 3.45341 9.4243 4.22482 9.58644L4.23016 9.24392Z" fill="black"/>
<path d="M8.6266 6.59504L8.61611 5.96489C8.36391 5.95893 8.11286 5.92867 7.86646 5.87455L7.71836 6.38785L7.20487 6.23918L7.35411 5.72454C7.11486 5.63677 6.88467 5.52602 6.66679 5.39384L6.35496 5.83509L5.91923 5.52707L6.23049 5.08658C6.02055 4.91635 5.82891 4.72471 5.65867 4.51476L5.23572 4.81344L4.9277 4.37753L5.35027 4.07885C5.2178 3.86104 5.10685 3.63084 5.019 3.39152L4.52819 3.5341L4.37933 3.02156L4.86976 2.87917C4.84434 2.76214 4.82414 2.64371 4.80914 2.52389H4.80018L4.78532 2.25704L4.77903 2.14267L4.43708 2.13657C4.42565 2.13632 4.41425 2.1353 4.40296 2.13352L4.28193 2.13105L4.28307 2.08397C4.24896 2.05868 4.22138 2.02562 4.20262 1.98753C4.18385 1.94943 4.17445 1.90742 4.17519 1.86496C4.17534 1.85431 4.17617 1.84368 4.17767 1.83313C3.42082 2.00219 2.73017 2.38949 2.19123 2.94711C1.65228 3.50472 1.2887 4.20815 1.14551 4.97031L1.45238 4.96497L1.46096 5.44492L1.59114 5.45216L1.85799 5.46684V5.47599C1.97769 5.49086 2.09612 5.51106 2.21328 5.5366L2.34061 5.09821L2.85219 5.24802L2.72449 5.68642C2.96384 5.77419 3.19404 5.88514 3.41181 6.01769L3.68876 5.62581L4.12487 5.93421L3.84906 6.32495C4.05907 6.49511 4.25072 6.68676 4.42088 6.89677L4.82687 6.61086L5.13489 7.04658L4.72775 7.33344C4.85988 7.55133 4.97056 7.78152 5.05827 8.02077L5.53993 7.88105L5.68879 8.39302L5.2077 8.53274C5.26048 8.77272 5.2906 9.01714 5.29767 9.26276L5.85843 9.27286L5.8529 9.58698C6.5945 9.43129 7.27593 9.06628 7.81644 8.5352C8.35695 8.00411 8.73389 7.32921 8.9026 6.59046L8.6266 6.59504Z" fill="black"/>
</svg>
