<svg width="10" height="11" viewBox="0 0 10 11" fill="none" xmlns="http://www.w3.org/2000/svg">
<g clip-path="url(#clip0_201_9192)">
<path d="M4.89685 5.27427L5.55349 4.61764C4.9364 3.90058 4.59738 2.98573 4.59817 2.03969C4.59817 1.94439 4.60179 1.84813 4.60847 1.75378C3.76368 1.81331 2.96044 2.14296 2.31738 2.69404L4.89685 5.27427Z" fill="black"/>
<path d="M5.98628 4.18512L7.47662 2.69401C6.84289 2.15078 6.05325 1.82246 5.22119 1.75623C5.21337 1.84962 5.20899 1.94416 5.20899 2.03966C5.2082 2.82388 5.48337 3.58338 5.98628 4.18512Z" fill="black"/>
<path d="M6.41748 4.61645C7.01914 5.11956 7.77864 5.39493 8.56294 5.39431C8.65824 5.39431 8.75355 5.38992 8.84637 5.38211C8.78025 4.54985 8.45192 3.75999 7.90859 3.1261L6.41748 4.61645Z" fill="black"/>
<path d="M3.37664 6.79459C2.775 6.29144 2.01549 6.01607 1.23118 6.01672C1.13563 6.01672 1.04115 6.02079 0.947754 6.02892C1.01387 6.86118 1.3422 7.65104 1.88553 8.28493L3.37664 6.79459Z" fill="black"/>
<path d="M4.89736 6.13684L4.24072 6.79348C4.85781 7.51054 5.19683 8.42539 5.19604 9.37142C5.19604 9.46673 5.19242 9.56298 5.18575 9.65733C6.03054 9.59784 6.8338 9.26819 7.47683 8.71707L4.89736 6.13684Z" fill="black"/>
<path d="M8.56319 6.00427C7.61716 6.00506 6.70231 5.66604 5.98525 5.04895L5.32861 5.70559L7.90884 8.28506C8.46034 7.64215 8.7904 6.83889 8.85025 5.99397C8.75475 6.00065 8.65926 6.00427 8.56319 6.00427Z" fill="black"/>
<path d="M4.46597 5.70557L1.88574 3.1261C1.33421 3.76898 1.00415 4.57225 0.944336 5.41718C1.03964 5.41051 1.13494 5.40689 1.23024 5.40689C2.17628 5.4061 3.09113 5.74512 3.80819 6.36221L4.46597 5.70557Z" fill="black"/>
<path d="M2.31738 8.71706C2.95112 9.26028 3.74076 9.58861 4.57282 9.65484C4.58083 9.56145 4.58489 9.46697 4.58502 9.37141C4.58568 8.58711 4.3103 7.82759 3.80716 7.22595L2.31738 8.71706Z" fill="black"/>
</g>
<defs>
<clipPath id="clip0_201_9192">
<rect width="9.75902" height="9.75902" fill="white" transform="translate(0.0175781 0.82605)"/>
</clipPath>
</defs>
</svg>
