<svg width="11" height="11" viewBox="0 0 11 11" fill="none" xmlns="http://www.w3.org/2000/svg">
<path d="M6.84518 4.97348L5.25934 2.85909L3.6735 4.97348L3.18555 4.60752L5.01536 2.16776C5.04377 2.12989 5.08061 2.09915 5.12295 2.07797C5.1653 2.0568 5.21199 2.04578 5.25934 2.04578C5.30668 2.04578 5.35338 2.0568 5.39573 2.07797C5.43807 2.09915 5.47491 2.12989 5.50331 2.16776L7.33313 4.60752L6.84518 4.97348Z" fill="black"/>
<path d="M8.79688 4.4856H1.72197C1.68744 4.48558 1.65335 4.49339 1.62226 4.50843C1.59118 4.52348 1.5639 4.54536 1.54248 4.57245C1.52106 4.59953 1.50605 4.63112 1.49858 4.66484C1.49111 4.69855 1.49137 4.73352 1.49934 4.76712L2.52594 9.09826H7.9929L9.0195 4.76712C9.02748 4.73352 9.02774 4.69855 9.02026 4.66484C9.01279 4.63112 8.99778 4.59953 8.97636 4.57245C8.95494 4.54536 8.92767 4.52348 8.89658 4.50843C8.8655 4.49339 8.83141 4.48558 8.79688 4.4856ZM5.25942 7.52881C5.11737 7.52813 4.9787 7.48538 4.86093 7.40594C4.74316 7.32651 4.65157 7.21396 4.59772 7.08251C4.54387 6.95106 4.53019 6.80659 4.55838 6.66737C4.58658 6.52814 4.6554 6.40039 4.75615 6.30025C4.85691 6.20011 4.98507 6.13206 5.12447 6.10471C5.26387 6.07737 5.40824 6.09193 5.53936 6.14658C5.67049 6.20123 5.78248 6.29351 5.86119 6.41176C5.93991 6.53001 5.98182 6.66893 5.98163 6.81099C5.98052 7.00178 5.90394 7.18438 5.76861 7.31889C5.63329 7.45339 5.45022 7.52886 5.25942 7.52881Z" fill="black"/>
</svg>
