<svg width="11" height="11" viewBox="0 0 11 11" fill="none" xmlns="http://www.w3.org/2000/svg">
<path d="M8.8726 4.48553H7.65063L5.9123 2.16776C5.8839 2.12989 5.84706 2.09915 5.80471 2.07797C5.76237 2.0568 5.71567 2.04578 5.66833 2.04578C5.62098 2.04578 5.57429 2.0568 5.53194 2.07797C5.48959 2.09915 5.45276 2.12989 5.42435 2.16776L3.68603 4.48553H2.46405C2.29967 4.48528 2.14189 4.55023 2.02534 4.66615C1.90878 4.78206 1.84295 4.93947 1.8423 5.10386C1.84194 5.16197 1.85036 5.2198 1.86727 5.2754L2.7492 8.38495C2.80655 8.58761 2.92851 8.766 3.09655 8.89299C3.26458 9.01998 3.46949 9.08862 3.68012 9.08847H7.65654C7.86718 9.08782 8.07196 9.01905 8.24029 8.89242C8.40863 8.76579 8.53148 8.5881 8.59051 8.3859L9.47358 5.27216C9.47766 5.25742 9.48059 5.24238 9.48235 5.22718L9.49245 5.13321C9.4936 5.1234 9.49417 5.11354 9.49417 5.10367C9.49346 4.93935 9.42764 4.78202 9.31113 4.66615C9.19462 4.55028 9.03692 4.48533 8.8726 4.48553ZM5.66833 2.85909L6.8882 4.48553H4.44845L5.66833 2.85909ZM5.66833 7.52894C5.52635 7.52826 5.38776 7.48554 5.27004 7.40617C5.15232 7.3268 5.06076 7.21434 5.00689 7.08297C4.95303 6.95161 4.93929 6.80724 4.9674 6.66807C4.99552 6.52891 5.06422 6.40119 5.16485 6.30103C5.26548 6.20088 5.39353 6.13278 5.53283 6.10533C5.67212 6.07788 5.81643 6.09231 5.94754 6.1468C6.07864 6.20129 6.19066 6.29339 6.26947 6.41149C6.34828 6.52958 6.39034 6.66838 6.39034 6.81035C6.38928 7.00113 6.31274 7.18373 6.17745 7.31824C6.04215 7.45275 5.85911 7.52823 5.66833 7.52817V7.52894Z" fill="black"/>
</svg>
