<svg width="10" height="11" viewBox="0 0 10 11" fill="none" xmlns="http://www.w3.org/2000/svg">
<g clip-path="url(#clip0_201_9177)">
<path d="M5.07809 9.36504C7.09925 9.36504 8.73772 7.72657 8.73772 5.70541C8.73772 3.68425 7.09925 2.04578 5.07809 2.04578C3.05693 2.04578 1.41846 3.68425 1.41846 5.70541C1.41846 7.72657 3.05693 9.36504 5.07809 9.36504Z" stroke="black" stroke-width="0.609939" stroke-linecap="round" stroke-linejoin="round"/>
<path d="M8.4509 5.68741C7.56906 5.61649 6.74276 5.22851 6.12492 4.5953C5.50709 3.96208 5.13955 3.12649 5.09033 2.24316" stroke="black" stroke-width="0.609939" stroke-linecap="round" stroke-linejoin="round"/>
<path d="M5.05918 9.09083C4.99093 8.20687 4.60411 7.37775 3.9706 6.75752C3.33708 6.13729 2.49995 5.76813 1.61475 5.71863" stroke="black" stroke-width="0.609939" stroke-linecap="round" stroke-linejoin="round"/>
<path d="M2.49072 3.1178L7.66605 8.29313" stroke="black" stroke-width="0.609939" stroke-linecap="round" stroke-linejoin="round"/>
<path d="M2.49072 8.29313L7.66605 3.1178" stroke="black" stroke-width="0.609939" stroke-linecap="round" stroke-linejoin="round"/>
</g>
<defs>
<clipPath id="clip0_201_9177">
<rect width="9.75902" height="9.75902" fill="white" transform="translate(0.19873 0.825928)"/>
</clipPath>
</defs>
</svg>
