<svg width="11" height="11" viewBox="0 0 11 11" fill="none" xmlns="http://www.w3.org/2000/svg">
<g clip-path="url(#clip0_201_9169)">
<path d="M2.27411 4.4856C2.17161 4.48549 2.07323 4.5259 2.00039 4.59802C1.92756 4.67014 1.88618 4.76812 1.88528 4.87062C1.88486 4.90615 1.89001 4.94152 1.90053 4.97545L2.88596 8.4502C2.93163 8.61251 3.02924 8.75537 3.16384 8.85693C3.29844 8.95848 3.46262 9.01312 3.63123 9.01249H8.06853C8.23747 9.01263 8.40188 8.95787 8.53699 8.85646C8.6721 8.75504 8.77059 8.61246 8.81761 8.4502L9.80305 4.97545L9.81448 4.87062C9.81358 4.76812 9.7722 4.67014 9.69936 4.59802C9.62653 4.5259 9.52814 4.48549 9.42565 4.4856H2.27411ZM5.95891 7.53662C5.80048 7.53583 5.64584 7.48813 5.5145 7.39954C5.38316 7.31095 5.28101 7.18544 5.22093 7.03885C5.16085 6.89226 5.14554 6.73115 5.17693 6.57587C5.20832 6.42058 5.28501 6.27808 5.39731 6.16633C5.50961 6.05459 5.6525 5.97861 5.80794 5.94799C5.96338 5.91738 6.1244 5.93349 6.27069 5.9943C6.41698 6.0551 6.54198 6.15788 6.62992 6.28966C6.71786 6.42144 6.76479 6.57632 6.76479 6.73475C6.76378 6.9478 6.67842 7.15178 6.5274 7.30206C6.37637 7.45234 6.17196 7.53668 5.95891 7.53662V7.53662Z" stroke="black" stroke-width="0.609939" stroke-linejoin="round"/>
<path d="M4.02002 4.48553L5.84984 2.04578L7.67965 4.48553" stroke="black" stroke-width="0.609939" stroke-linejoin="round"/>
</g>
<defs>
<clipPath id="clip0_201_9169">
<rect width="9.75902" height="9.75902" fill="white" transform="translate(0.970215 0.825928)"/>
</clipPath>
</defs>
</svg>
