<svg width="11" height="11" viewBox="0 0 11 11" fill="none" xmlns="http://www.w3.org/2000/svg">
<path d="M5.48718 5.27427L6.14382 4.61764C5.52673 3.90058 5.18771 2.98573 5.1885 2.03969C5.1885 1.94439 5.19213 1.84813 5.1988 1.75378C4.35401 1.81331 3.55077 2.14296 2.90771 2.69404L5.48718 5.27427Z" fill="black"/>
<path d="M6.57661 4.18512L8.06696 2.69401C7.43322 2.15078 6.64358 1.82246 5.81152 1.75623C5.8037 1.84962 5.79932 1.94416 5.79932 2.03966C5.79854 2.82388 6.0737 3.58338 6.57661 4.18512Z" fill="black"/>
<path d="M7.00781 4.61645C7.60947 5.11956 8.36898 5.39493 9.15327 5.39431C9.24857 5.39431 9.34388 5.38992 9.4367 5.38211C9.37058 4.54985 9.04226 3.75999 8.49892 3.1261L7.00781 4.61645Z" fill="black"/>
<path d="M3.96698 6.79459C3.36533 6.29144 2.60582 6.01607 1.82152 6.01672C1.72596 6.01672 1.63148 6.02079 1.53809 6.02892C1.6042 6.86118 1.93253 7.65104 2.47587 8.28493L3.96698 6.79459Z" fill="black"/>
<path d="M5.4872 6.13684L4.83057 6.79348C5.44766 7.51054 5.78668 8.42539 5.78588 9.37142C5.78588 9.46673 5.78226 9.56298 5.77559 9.65733C6.62039 9.59784 7.42364 9.26819 8.06667 8.71707L5.4872 6.13684Z" fill="black"/>
<path d="M9.15353 6.00427C8.20749 6.00506 7.29264 5.66604 6.57558 5.04895L5.91895 5.70559L8.49918 8.28506C9.05067 7.64215 9.38073 6.83889 9.44058 5.99397C9.34509 6.00065 9.24959 6.00427 9.15353 6.00427Z" fill="black"/>
<path d="M5.05581 5.70557L2.47558 3.1261C1.92405 3.76898 1.59399 4.57225 1.53418 5.41718C1.62948 5.41051 1.72479 5.40689 1.82009 5.40689C2.76612 5.4061 3.68097 5.74512 4.39803 6.36221L5.05581 5.70557Z" fill="black"/>
<path d="M2.90771 8.71706C3.54145 9.26028 4.33109 9.58861 5.16315 9.65484C5.17116 9.56145 5.17523 9.46697 5.17535 9.37141C5.17601 8.58711 4.90064 7.82759 4.39749 7.22595L2.90771 8.71706Z" fill="black"/>
</svg>
