<svg width="11" height="11" viewBox="0 0 11 11" fill="none" xmlns="http://www.w3.org/2000/svg">
<g clip-path="url(#clip0_201_9201)">
<path d="M1.34187 6.96934V4.44191C1.34207 4.29183 1.40178 4.14796 1.5079 4.04184C1.61402 3.93572 1.75789 3.87601 1.90797 3.87581H4.52766L4.99274 3.26587H1.90797C1.59618 3.26622 1.29725 3.39024 1.07678 3.61071C0.856304 3.83119 0.732287 4.13011 0.731934 4.44191V6.96934C0.732287 7.28114 0.856304 7.58006 1.07678 7.80054C1.29725 8.02101 1.59618 8.14503 1.90797 8.14538H3.75399C3.74803 8.09891 3.74971 8.05178 3.75895 8.00586L3.7618 7.99156L3.76581 7.97765L3.8897 7.53544H1.90797C1.75789 7.53524 1.61402 7.47553 1.5079 7.36941C1.40178 7.26329 1.34207 7.11942 1.34187 6.96934Z" fill="black"/>
<path d="M7.79003 3.26587H5.9099C5.9155 3.3116 5.91376 3.35793 5.90475 3.40311L5.90189 3.41721L5.89789 3.43112L5.77323 3.87581H7.79003C7.94011 3.87601 8.08398 3.93572 8.1901 4.04184C8.29622 4.14796 8.35593 4.29183 8.35613 4.44191V6.96934C8.35593 7.11942 8.29622 7.26329 8.1901 7.36941C8.08398 7.47553 7.94011 7.53524 7.79003 7.53544H5.13489L4.66943 8.14538H7.79003C8.10183 8.14503 8.40075 8.02101 8.62123 7.80054C8.8417 7.58006 8.96572 7.28114 8.96607 6.96934V4.44191C8.96572 4.13011 8.8417 3.83119 8.62123 3.61071C8.40075 3.39024 8.10183 3.26622 7.79003 3.26587Z" fill="black"/>
<path d="M3.52724 6.43286C3.44268 6.43288 3.35971 6.40981 3.28729 6.36614C3.21488 6.32248 3.15575 6.25987 3.1163 6.18507C3.07548 6.10834 3.05643 6.02191 3.0612 5.93513C3.06597 5.84835 3.09438 5.76453 3.14336 5.69274L3.14927 5.68397L3.15556 5.67558L4.19379 4.31409H2.13658C2.03548 4.31409 1.93852 4.35425 1.86703 4.42574C1.79553 4.49723 1.75537 4.5942 1.75537 4.6953V6.71572C1.75537 6.81682 1.79553 6.91379 1.86703 6.98528C1.93852 7.05677 2.03548 7.09693 2.13658 7.09693H4.01253L4.19894 6.43248L3.52724 6.43286Z" fill="black"/>
<path d="M5.68902 6.17997L6.20499 5.50351C6.21226 5.49247 6.21725 5.48009 6.21966 5.4671C6.22045 5.46295 6.22096 5.45874 6.22119 5.45452C6.22174 5.44629 6.22123 5.43803 6.21966 5.42993C6.21744 5.41811 6.21304 5.4068 6.2067 5.39658C6.20255 5.38992 6.19755 5.38384 6.19183 5.37847C6.189 5.37579 6.18594 5.37337 6.18268 5.37123C6.17622 5.36666 6.16908 5.36312 6.16153 5.36074C6.15345 5.35818 6.14503 5.3569 6.13656 5.35693H4.96204L5.19306 4.53332L5.25462 4.31413L5.37299 3.89174L5.38271 3.85667L5.53119 3.32755C5.53179 3.32409 5.5321 3.32058 5.53215 3.31707C5.53215 3.31592 5.53215 3.31497 5.53215 3.31402C5.53215 3.31306 5.53215 3.30906 5.53119 3.30677C5.53024 3.30449 5.53119 3.30506 5.53119 3.30411C5.53043 3.30114 5.52934 3.29826 5.52795 3.29553C5.52646 3.29295 5.5248 3.29047 5.523 3.2881L5.52128 3.28619C5.51979 3.28463 5.51819 3.28317 5.51652 3.28181L5.51461 3.28028C5.51225 3.27858 5.50976 3.27705 5.50718 3.27571C5.50468 3.27454 5.50206 3.27364 5.49936 3.27304H5.49688H5.49059H5.48812C5.48526 3.27276 5.48239 3.27276 5.47954 3.27304C5.47677 3.27367 5.47408 3.27463 5.47153 3.2759L5.46906 3.27723L5.46334 3.28123L5.46124 3.28314C5.45866 3.28548 5.45636 3.2881 5.45438 3.29095L5.11129 3.74136L4.86083 4.06958L4.67309 4.31413L3.45874 5.90664C3.45554 5.91149 3.45273 5.91659 3.45035 5.92189C3.4473 5.92852 3.44506 5.9355 3.44368 5.94266C3.44204 5.95075 3.44153 5.95902 3.44215 5.96725C3.44279 5.98114 3.44655 5.99471 3.45315 6.00696C3.45975 6.0192 3.46902 6.0298 3.48027 6.03797C3.48357 6.04016 3.48701 6.04213 3.49057 6.04387C3.5018 6.04931 3.51412 6.05211 3.52659 6.05207H4.70111L4.13272 8.0805C4.13244 8.08405 4.13244 8.08762 4.13272 8.09117C4.13272 8.09117 4.13272 8.09308 4.13272 8.09403C4.1329 8.09647 4.13328 8.0989 4.13386 8.10127C4.13375 8.10216 4.13375 8.10306 4.13386 8.10394C4.13463 8.10691 4.13571 8.10979 4.1371 8.11252C4.1386 8.11504 4.14025 8.11746 4.14206 8.11976L4.14377 8.12167L4.14854 8.12624C4.14925 8.12664 4.1499 8.12716 4.15044 8.12777C4.15277 8.12948 4.15526 8.13095 4.15788 8.13215C4.16041 8.13324 4.16302 8.13413 4.16569 8.13482H4.16817C4.17026 8.13501 4.17237 8.13501 4.17446 8.13482H4.17694C4.17983 8.13472 4.1827 8.13434 4.18552 8.13368C4.18822 8.13295 4.19084 8.13192 4.19333 8.13063L4.19581 8.12929L4.20153 8.12529L4.20362 8.12358C4.2062 8.12124 4.2085 8.11862 4.21049 8.11576L4.65498 7.53537L4.98911 7.09697L5.68902 6.17997Z" fill="black"/>
<path d="M6.5168 5.72324L6.50803 5.73467L5.46866 7.09693H7.56151C7.66261 7.09693 7.75957 7.05677 7.83107 6.98528C7.90256 6.91379 7.94272 6.81682 7.94272 6.71572V4.6953C7.94272 4.5942 7.90256 4.49723 7.83107 4.42574C7.75957 4.35425 7.66261 4.31409 7.56151 4.31409H5.65049L5.46484 4.97606H6.13654C6.22031 4.97596 6.30255 4.99853 6.37453 5.04138C6.44651 5.08424 6.50555 5.14577 6.54539 5.21946C6.5868 5.29552 6.60689 5.38135 6.60354 5.46788C6.60018 5.55441 6.5735 5.63842 6.52633 5.71104L6.5168 5.72324Z" fill="black"/>
<path d="M9.57597 4.68909C9.49508 4.68909 9.41751 4.72122 9.36032 4.77841C9.30313 4.8356 9.271 4.91317 9.271 4.99406V6.41712C9.271 6.498 9.30313 6.57557 9.36032 6.63277C9.41751 6.68996 9.49508 6.72209 9.57597 6.72209C9.65685 6.72209 9.73442 6.68996 9.79161 6.63277C9.8488 6.57557 9.88093 6.498 9.88093 6.41712V4.99406C9.88093 4.91317 9.8488 4.8356 9.79161 4.77841C9.73442 4.72122 9.65685 4.68909 9.57597 4.68909Z" fill="black"/>
</g>
<defs>
<clipPath id="clip0_201_9201">
<rect width="9.75902" height="9.75902" fill="white" transform="translate(0.426758 0.82605)"/>
</clipPath>
</defs>
</svg>
