<svg width="10" height="11" viewBox="0 0 10 11" fill="none" xmlns="http://www.w3.org/2000/svg">
<g clip-path="url(#clip0_201_9215)">
<path d="M1.16072 6.96934V4.44191C1.16092 4.29183 1.22063 4.14796 1.32675 4.04184C1.43287 3.93572 1.57674 3.87601 1.72682 3.87581H4.34651L4.81158 3.26587H1.72682C1.41502 3.26622 1.1161 3.39024 0.895625 3.61071C0.675151 3.83119 0.551134 4.13011 0.550781 4.44191V6.96934C0.551134 7.28114 0.675151 7.58006 0.895625 7.80054C1.1161 8.02101 1.41502 8.14503 1.72682 8.14538H3.57284C3.56688 8.09891 3.56856 8.05178 3.57779 8.00586L3.58065 7.99156L3.58465 7.97765L3.70855 7.53544H1.72682C1.57674 7.53524 1.43287 7.47553 1.32675 7.36941C1.22063 7.26329 1.16092 7.11942 1.16072 6.96934Z" fill="black"/>
<path d="M7.60888 3.26587H5.72874C5.73435 3.3116 5.73261 3.35793 5.7236 3.40311L5.72074 3.41721L5.71674 3.43112L5.59208 3.87581H7.60888C7.75896 3.87601 7.90283 3.93572 8.00895 4.04184C8.11507 4.14796 8.17478 4.29183 8.17498 4.44191V6.96934C8.17478 7.11942 8.11507 7.26329 8.00895 7.36941C7.90283 7.47553 7.75896 7.53524 7.60888 7.53544H4.95374L4.48828 8.14538H7.60888C7.92068 8.14503 8.2196 8.02101 8.44008 7.80054C8.66055 7.58006 8.78457 7.28114 8.78492 6.96934V4.44191C8.78457 4.13011 8.66055 3.83119 8.44008 3.61071C8.2196 3.39024 7.92068 3.26622 7.60888 3.26587Z" fill="black"/>
<path d="M3.3456 6.43286C3.26104 6.43288 3.17807 6.40981 3.10565 6.36614C3.03324 6.32248 2.97411 6.25987 2.93466 6.18507C2.89384 6.10834 2.87479 6.02191 2.87956 5.93513C2.88433 5.84835 2.91274 5.76453 2.96172 5.69274L2.96763 5.68397L2.97392 5.67558L4.01215 4.31409H1.95494C1.85384 4.31409 1.75688 4.35425 1.68538 4.42574C1.61389 4.49723 1.57373 4.5942 1.57373 4.6953V6.71572C1.57373 6.81682 1.61389 6.91379 1.68538 6.98528C1.75688 7.05677 1.85384 7.09693 1.95494 7.09693H3.83089L4.0173 6.43248L3.3456 6.43286Z" fill="black"/>
<path d="M5.50786 6.17997L6.02383 5.50351C6.0311 5.49247 6.03609 5.48009 6.03851 5.4671C6.0393 5.46295 6.03981 5.45874 6.04003 5.45452C6.04059 5.44629 6.04008 5.43803 6.03851 5.42993C6.03629 5.41811 6.03189 5.4068 6.02555 5.39658C6.0214 5.38992 6.0164 5.38384 6.01068 5.37847C6.00785 5.37579 6.00479 5.37337 6.00153 5.37123C5.99507 5.36666 5.98793 5.36312 5.98037 5.36074C5.9723 5.35818 5.96388 5.3569 5.95541 5.35693H4.78089L5.01191 4.53332L5.07347 4.31413L5.19184 3.89174L5.20156 3.85667L5.35004 3.32755C5.35063 3.32409 5.35095 3.32058 5.35099 3.31707C5.35099 3.31592 5.35099 3.31497 5.35099 3.31402C5.35099 3.31306 5.35099 3.30906 5.35004 3.30677C5.34909 3.30449 5.35004 3.30506 5.35004 3.30411C5.34928 3.30114 5.34819 3.29826 5.3468 3.29553C5.3453 3.29295 5.34365 3.29047 5.34185 3.2881L5.34013 3.28619C5.33863 3.28463 5.33704 3.28317 5.33536 3.28181L5.33346 3.28028C5.3311 3.27858 5.32861 3.27705 5.32603 3.27571C5.32352 3.27454 5.3209 3.27364 5.31821 3.27304H5.31573H5.30944H5.30696C5.30411 3.27276 5.30124 3.27276 5.29839 3.27304C5.29562 3.27367 5.29293 3.27463 5.29038 3.2759L5.2879 3.27723L5.28219 3.28123L5.28009 3.28314C5.27751 3.28548 5.27521 3.2881 5.27323 3.29095L4.93014 3.74136L4.67968 4.06958L4.49193 4.31413L3.27758 5.90664C3.27439 5.91149 3.27158 5.91659 3.2692 5.92189C3.26615 5.92852 3.26391 5.9355 3.26253 5.94266C3.26089 5.95075 3.26037 5.95902 3.261 5.96725C3.26164 5.98114 3.2654 5.99471 3.272 6.00696C3.2786 6.0192 3.28787 6.0298 3.29912 6.03797C3.30242 6.04016 3.30586 6.04213 3.30941 6.04387C3.32064 6.04931 3.33296 6.05211 3.34544 6.05207H4.51995L3.95157 8.0805C3.95129 8.08405 3.95129 8.08762 3.95157 8.09117C3.95157 8.09117 3.95157 8.09308 3.95157 8.09403C3.95175 8.09647 3.95213 8.0989 3.95271 8.10127C3.9526 8.10216 3.9526 8.10306 3.95271 8.10394C3.95347 8.10691 3.95456 8.10979 3.95595 8.11252C3.95745 8.11504 3.9591 8.11746 3.96091 8.11976L3.96262 8.12167L3.96739 8.12624C3.9681 8.12664 3.96875 8.12716 3.96929 8.12777C3.97161 8.12948 3.97411 8.13095 3.97673 8.13215C3.97926 8.13324 3.98187 8.13413 3.98454 8.13482H3.98702C3.98911 8.13501 3.99122 8.13501 3.99331 8.13482H3.99579C3.99868 8.13472 4.00155 8.13434 4.00436 8.13368C4.00707 8.13295 4.00969 8.13192 4.01218 8.13063L4.01466 8.12929L4.02037 8.12529L4.02247 8.12358C4.02505 8.12124 4.02735 8.11862 4.02933 8.11576L4.47383 7.53537L4.80796 7.09697L5.50786 6.17997Z" fill="black"/>
<path d="M6.33516 5.72324L6.32639 5.73467L5.28702 7.09693H7.37987C7.48097 7.09693 7.57793 7.05677 7.64943 6.98528C7.72092 6.91379 7.76108 6.81682 7.76108 6.71572V4.6953C7.76108 4.5942 7.72092 4.49723 7.64943 4.42574C7.57793 4.35425 7.48097 4.31409 7.37987 4.31409H5.46885L5.2832 4.97606H5.9549C6.03867 4.97596 6.12091 4.99853 6.19289 5.04138C6.26487 5.08424 6.32391 5.14577 6.36375 5.21946C6.40516 5.29552 6.42525 5.38135 6.42189 5.46788C6.41854 5.55441 6.39186 5.63842 6.34469 5.71104L6.33516 5.72324Z" fill="black"/>
<path d="M9.39481 4.68909C9.31393 4.68909 9.23636 4.72122 9.17917 4.77841C9.12197 4.8356 9.08984 4.91317 9.08984 4.99406V6.41712C9.08984 6.498 9.12197 6.57557 9.17917 6.63277C9.23636 6.68996 9.31393 6.72209 9.39481 6.72209C9.4757 6.72209 9.55327 6.68996 9.61046 6.63277C9.66765 6.57557 9.69978 6.498 9.69978 6.41712V4.99406C9.69978 4.91317 9.66765 4.8356 9.61046 4.77841C9.55327 4.72122 9.4757 4.68909 9.39481 4.68909Z" fill="black"/>
</g>
<defs>
<clipPath id="clip0_201_9215">
<rect width="9.75902" height="9.75902" fill="white" transform="translate(0.245605 0.82605)"/>
</clipPath>
</defs>
</svg>
