<svg width="11" height="11" viewBox="0 0 11 11" fill="none" xmlns="http://www.w3.org/2000/svg">
<path d="M9.39457 1.86871L9.59375 1.43604H3.19702C2.66828 1.43604 2.26305 1.56126 1.9903 1.80791C1.78635 1.99394 1.66455 2.25354 1.66455 2.50343V2.96088H1.96952C2.5604 2.96088 2.57946 3.28091 2.57946 3.628V9.59397C2.57946 9.69507 2.61962 9.79203 2.69111 9.86352C2.7626 9.93501 2.85957 9.97518 2.96067 9.97518H8.90757C9.00868 9.97518 9.10564 9.93501 9.17713 9.86352C9.24862 9.79203 9.28878 9.69507 9.28878 9.59397V2.65591C9.28878 2.32883 9.33224 2.00518 9.39457 1.86871ZM8.67885 2.65591V3.87579H3.1894V3.45646C3.1894 2.76742 2.78913 2.48437 2.39324 2.43748C2.44603 2.16034 2.76435 2.04693 3.19702 2.04693H8.72307C8.69367 2.24859 8.67889 2.45212 8.67885 2.65591Z" fill="black"/>
</svg>
