<svg width="10" height="11" viewBox="0 0 10 11" fill="none" xmlns="http://www.w3.org/2000/svg">
<g clip-path="url(#clip0_201_9260)">
<path d="M8.62172 1.43604H2.59858C2.22918 1.43604 1.7237 1.51876 1.3766 1.90817C1.15321 2.15881 1.07373 2.45883 1.07373 2.65591C1.07372 2.72954 1.10035 2.80068 1.14869 2.85621C1.19704 2.91174 1.26384 2.9479 1.33677 2.95802C1.90668 3.03712 1.98864 3.07124 1.98864 3.41834V8.45033C1.98899 8.85464 2.14976 9.24228 2.43565 9.52817C2.72153 9.81406 3.10918 9.97482 3.51349 9.97518H7.17312C7.57736 9.97462 7.96489 9.81379 8.25074 9.52795C8.53658 9.2421 8.69741 8.85457 8.69797 8.45033V2.65591C8.69797 2.4167 8.84016 2.13651 8.88857 2.05817L8.89048 2.0555C8.89467 2.04883 8.90001 2.04178 8.90534 2.03454C8.94347 1.98136 9.00236 1.90111 9.00236 1.7877C9.00293 1.58452 8.82929 1.43604 8.62172 1.43604ZM1.76201 2.40965C1.86189 2.24058 2.08928 2.0475 2.6062 2.0475H8.21821C8.15093 2.21504 8.08803 2.43233 8.08803 2.65591V3.87579H2.59858V3.41834C2.59858 2.707 2.19163 2.50076 1.76201 2.40965Z" fill="black"/>
</g>
<defs>
<clipPath id="clip0_201_9260">
<rect width="9.75902" height="9.75902" fill="white" transform="translate(0.158691 0.82605)"/>
</clipPath>
</defs>
</svg>
