<svg width="11" height="11" viewBox="0 0 11 11" fill="none" xmlns="http://www.w3.org/2000/svg">
<path d="M8.82547 1.74192L7.92581 1.74097H2.77945C1.74446 1.74097 1.55957 2.42143 1.55957 2.65587C2.13711 2.73593 2.47448 2.80836 2.47448 3.4183V8.45029C2.47448 8.77383 2.603 9.08411 2.83177 9.31288C3.06054 9.54165 3.37082 9.67017 3.69436 9.67017H7.35399C7.67752 9.67017 7.9878 9.54165 8.21657 9.31288C8.44534 9.08411 8.57387 8.77383 8.57387 8.45029V2.65587C8.57387 2.29372 8.79306 1.9249 8.81403 1.89345C8.8369 1.85724 8.87884 1.80958 8.87884 1.78862C8.87884 1.76765 8.87312 1.74192 8.82547 1.74192Z" stroke="black" stroke-width="0.609939" stroke-linecap="round" stroke-linejoin="round"/>
<path d="M2.47461 4.18079H8.574" stroke="black" stroke-width="0.609939" stroke-linecap="round" stroke-linejoin="round"/>
</svg>
