<svg width="11" height="11" viewBox="0 0 11 11" fill="none" xmlns="http://www.w3.org/2000/svg">
<g clip-path="url(#clip0_201_9268)">
<path d="M9.21164 5.09568V2.65592C9.21164 2.57504 9.17951 2.49747 9.12231 2.44028C9.06512 2.38308 8.98755 2.35095 8.90667 2.35095H2.80728C2.7264 2.35095 2.64883 2.38308 2.59163 2.44028C2.53444 2.49747 2.50231 2.57504 2.50231 2.65592V5.09568C2.25966 5.09568 2.02695 5.19207 1.85537 5.36365C1.68379 5.53523 1.5874 5.76794 1.5874 6.01058V9.06028H2.27358V8.45034H9.44036V9.06028H10.1265V6.01058C10.1265 5.76794 10.0302 5.53523 9.85857 5.36365C9.687 5.19207 9.45429 5.09568 9.21164 5.09568ZM5.552 5.09568H3.26473V4.48574C3.26473 4.40486 3.29686 4.32728 3.35406 4.27009C3.41125 4.2129 3.48882 4.18077 3.5697 4.18077H5.24703C5.32792 4.18077 5.40549 4.2129 5.46268 4.27009C5.51987 4.32728 5.552 4.40486 5.552 4.48574V5.09568ZM6.16194 4.48574C6.16194 4.40486 6.19407 4.32728 6.25127 4.27009C6.30846 4.2129 6.38603 4.18077 6.46691 4.18077H8.14424C8.22513 4.18077 8.3027 4.2129 8.35989 4.27009C8.41708 4.32728 8.44921 4.40486 8.44921 4.48574V5.09568H6.16194V4.48574Z" fill="black"/>
</g>
<defs>
<clipPath id="clip0_201_9268">
<rect width="9.75902" height="9.75902" fill="white" transform="translate(0.977539 0.82605)"/>
</clipPath>
</defs>
</svg>
