<svg width="11" height="11" viewBox="0 0 11 11" fill="none" xmlns="http://www.w3.org/2000/svg">
<path d="M7.8874 5.40061H2.39795V3.41831C2.39855 3.21629 2.47907 3.02271 2.62192 2.87986C2.76478 2.73701 2.95835 2.65649 3.16037 2.65588H7.73491C7.93693 2.65649 8.13051 2.73701 8.27336 2.87986C8.41621 3.02271 8.49673 3.21629 8.49734 3.41831V5.40061H7.8874Z" stroke="black" stroke-width="0.609939" stroke-linecap="round" stroke-linejoin="round"/>
<path d="M1.4834 8.7553V6.62051C1.48435 6.29727 1.61318 5.98755 1.84175 5.75898C2.07031 5.53042 2.38004 5.40159 2.70328 5.40063H8.19272C8.51596 5.40159 8.82569 5.53042 9.05425 5.75898C9.28282 5.98755 9.41165 6.29727 9.4126 6.62051V8.7553" stroke="black" stroke-width="0.609939" stroke-linecap="round" stroke-linejoin="round"/>
<path d="M1.4834 8.7552V8.60272C1.48375 8.4815 1.53206 8.36535 1.61777 8.27964C1.70349 8.19392 1.81964 8.14562 1.94085 8.14526H8.95515C9.07636 8.14562 9.19251 8.19392 9.27823 8.27964C9.36394 8.36535 9.41225 8.4815 9.4126 8.60272V8.7552" stroke="black" stroke-width="0.609939" stroke-linecap="round" stroke-linejoin="round"/>
<path d="M2.70312 5.40063V5.09566C2.70358 4.93403 2.76798 4.77915 2.88227 4.66486C2.99656 4.55058 3.15144 4.48617 3.31306 4.48572H4.83791C4.99954 4.48617 5.15441 4.55058 5.2687 4.66486C5.38299 4.77915 5.4474 4.93403 5.44785 5.09566V5.40063" stroke="black" stroke-width="0.609939" stroke-linecap="round" stroke-linejoin="round"/>
<path d="M5.44775 5.40063V5.09566C5.44821 4.93403 5.51261 4.77915 5.6269 4.66486C5.74119 4.55058 5.89607 4.48617 6.05769 4.48572H7.58254C7.74417 4.48617 7.89904 4.55058 8.01333 4.66486C8.12762 4.77915 8.19203 4.93403 8.19248 5.09566V5.40063" stroke="black" stroke-width="0.609939" stroke-linecap="round" stroke-linejoin="round"/>
</svg>
