<svg width="11" height="11" viewBox="0 0 11 11" fill="none" xmlns="http://www.w3.org/2000/svg">
<g clip-path="url(#clip0_201_9270)">
<path d="M8.6213 5.22329C8.42905 5.13889 8.22133 5.0954 8.01137 5.09558H2.52192C2.31197 5.09538 2.10426 5.1388 1.91198 5.2231C1.64021 5.34194 1.40896 5.53739 1.24648 5.78554C1.084 6.0337 0.99733 6.32381 0.99707 6.62043V8.75521C0.99707 8.8361 1.0292 8.91367 1.08639 8.97086C1.14359 9.02805 1.22116 9.06018 1.30204 9.06018C1.38292 9.06018 1.46049 9.02805 1.51769 8.97086C1.57488 8.91367 1.60701 8.8361 1.60701 8.75521V8.60273C1.6075 8.56244 1.62373 8.52394 1.65222 8.49545C1.68071 8.46696 1.71921 8.45074 1.75949 8.45025H8.77379C8.81408 8.45074 8.85258 8.46696 8.88107 8.49545C8.90956 8.52394 8.92578 8.56244 8.92627 8.60273V8.75521C8.92627 8.8361 8.9584 8.91367 9.0156 8.97086C9.07279 9.02805 9.15036 9.06018 9.23124 9.06018C9.31213 9.06018 9.3897 9.02805 9.44689 8.97086C9.50408 8.91367 9.53621 8.8361 9.53621 8.75521V6.62043C9.53592 6.32385 9.44923 6.03377 9.28675 5.78565C9.12428 5.53754 8.89304 5.34212 8.6213 5.22329Z" fill="black"/>
<path d="M7.55404 2.35095H2.9795C2.69641 2.35095 2.42492 2.46341 2.22474 2.66358C2.02457 2.86376 1.91211 3.13525 1.91211 3.41835V4.79071C1.91212 4.80252 1.91487 4.81417 1.92015 4.82474C1.92544 4.83531 1.9331 4.84451 1.94255 4.8516C1.95199 4.8587 1.96296 4.86351 1.97458 4.86564C1.9862 4.86777 1.99816 4.86718 2.00951 4.8639C2.176 4.81521 2.34859 4.79056 2.52205 4.79071H2.60267C2.62149 4.79083 2.63969 4.78398 2.65377 4.77149C2.66784 4.759 2.6768 4.74174 2.67892 4.72304C2.69555 4.57402 2.76649 4.43636 2.87819 4.33633C2.9899 4.2363 3.13453 4.18092 3.28447 4.18077H4.35186C4.50191 4.18078 4.64668 4.2361 4.7585 4.33614C4.87032 4.43618 4.94135 4.57393 4.95799 4.72304C4.96011 4.74174 4.96907 4.759 4.98314 4.77149C4.99722 4.78398 5.01541 4.79083 5.03423 4.79071H5.50046C5.51927 4.79083 5.53747 4.78398 5.55155 4.77149C5.56562 4.759 5.57458 4.74174 5.5767 4.72304C5.59332 4.57412 5.66418 4.43653 5.77576 4.33652C5.88734 4.2365 6.03184 4.18106 6.18168 4.18077H7.24907C7.39911 4.18078 7.54389 4.2361 7.65571 4.33614C7.76753 4.43618 7.83855 4.57393 7.8552 4.72304C7.85732 4.74174 7.86627 4.759 7.88035 4.77149C7.89443 4.78398 7.91262 4.79083 7.93144 4.79071H8.0115C8.18497 4.79062 8.35756 4.81534 8.52404 4.86409C8.5354 4.86737 8.54738 4.86797 8.55901 4.86582C8.57065 4.86368 8.58162 4.85886 8.59107 4.85174C8.60052 4.84462 8.60818 4.8354 8.61345 4.8248C8.61872 4.81421 8.62146 4.80254 8.62144 4.79071V3.41835C8.62144 3.13525 8.50898 2.86376 8.3088 2.66358C8.10863 2.46341 7.83713 2.35095 7.55404 2.35095Z" fill="black"/>
</g>
<defs>
<clipPath id="clip0_201_9270">
<rect width="9.75902" height="9.75902" fill="white" transform="translate(0.387207 0.82605)"/>
</clipPath>
</defs>
</svg>
