<svg width="10" height="11" viewBox="0 0 10 11" fill="none" xmlns="http://www.w3.org/2000/svg">
<g clip-path="url(#clip0_201_9282)">
<path d="M8.74536 4.79063H7.22051V4.68122C7.37429 4.50731 7.47519 4.2931 7.51134 4.06379C7.54749 3.83448 7.51739 3.59962 7.42457 3.38684C7.33176 3.17406 7.1801 2.99222 6.98743 2.86272C6.79477 2.73321 6.56913 2.66144 6.33705 2.65584C6.23977 2.31619 6.05898 2.0063 5.81117 1.75447C5.61751 1.55626 5.38604 1.39895 5.13046 1.29185C4.87488 1.18475 4.60041 1.13005 4.3233 1.13099C3.7532 1.13099 3.22198 1.36506 2.81751 1.79182C2.61907 1.72866 2.40648 1.72493 2.20594 1.7811C2.00541 1.83726 1.82568 1.95085 1.6889 2.10789C1.55212 2.26493 1.46427 2.45855 1.43616 2.6649C1.40806 2.87125 1.44093 3.08131 1.53073 3.26921C1.51167 3.2856 1.49433 3.30238 1.47679 3.31991C1.36306 3.43342 1.27304 3.56841 1.21198 3.71704C1.15092 3.86567 1.12003 4.02496 1.12112 4.18564C1.12127 4.35299 1.15659 4.51844 1.22479 4.67126C1.29299 4.82408 1.39255 4.96086 1.51701 5.07272C1.58257 5.13233 1.65433 5.18472 1.73106 5.22902V9.97511C1.73106 10.056 1.76319 10.1336 1.82038 10.1908C1.87758 10.2479 1.95515 10.2801 2.03603 10.2801H6.91554C6.99642 10.2801 7.07399 10.2479 7.13119 10.1908C7.18838 10.1336 7.22051 10.056 7.22051 9.97511V9.0602H8.74536C8.82624 9.0602 8.90381 9.02807 8.961 8.97087C9.0182 8.91368 9.05033 8.83611 9.05033 8.75523V5.0956C9.05033 5.01471 9.0182 4.93714 8.961 4.87995C8.90381 4.82276 8.82624 4.79063 8.74536 4.79063ZM3.56088 9.0602H2.95094V5.40057H3.56088V9.0602ZM4.78075 9.0602H4.17082V5.40057H4.78075V9.0602ZM6.00063 9.0602H5.39069V5.40057H6.00063V9.0602ZM6.3056 4.48566C6.14683 4.48566 5.91391 4.38692 5.79687 4.27008L5.70767 4.18069H3.04224L2.97 4.3814C2.85926 4.68636 2.61109 4.77042 2.42239 4.7872C2.33312 4.79521 2.24316 4.78466 2.15817 4.75622C2.07318 4.72778 1.99499 4.68206 1.92853 4.62194C1.86686 4.56672 1.81749 4.49916 1.7836 4.42364C1.74971 4.34812 1.73207 4.26632 1.73182 4.18355C1.7313 4.10321 1.74675 4.02357 1.77728 3.94926C1.80781 3.87495 1.85281 3.80745 1.90966 3.75068C1.91271 3.74744 1.91595 3.74458 1.91919 3.74134C2.03228 3.63182 2.18357 3.57064 2.341 3.57075C2.34271 3.57075 2.51483 3.57723 2.65359 3.6813L2.89757 3.86428L3.26353 3.37633L3.01956 3.19335C2.82196 3.04926 2.58544 2.9682 2.341 2.96081C2.25124 2.96093 2.16176 2.97084 2.07415 2.99035C2.02971 2.88712 2.02482 2.77114 2.06042 2.66454C2.09603 2.55794 2.16963 2.46817 2.26719 2.41237C2.36475 2.35656 2.47944 2.33863 2.58938 2.36199C2.69932 2.38534 2.79681 2.44835 2.86326 2.539L2.86764 2.54567L2.87527 2.55444C2.91504 2.60637 2.94714 2.66376 2.97057 2.72484L3.07769 3.01075L3.64951 2.79651L3.54239 2.5106C3.49613 2.38898 3.43188 2.275 3.35178 2.17246C3.34454 2.16255 3.33672 2.1534 3.3291 2.14368C3.60624 1.88293 3.95429 1.74093 4.3233 1.74093C4.51941 1.74037 4.71364 1.77918 4.89447 1.85508C5.0753 1.93097 5.23905 2.0424 5.37602 2.18276C5.54732 2.35852 5.67378 2.57294 5.74471 2.8079C5.81564 3.04286 5.82896 3.29144 5.78353 3.53263L5.72635 3.83226L6.32542 3.94662L6.38261 3.64699C6.40584 3.52487 6.41834 3.40095 6.41996 3.27664C6.56904 3.30516 6.70213 3.38824 6.79322 3.50964C6.88432 3.63105 6.92688 3.78205 6.91258 3.93316C6.89829 4.08426 6.82817 4.22461 6.71593 4.32678C6.60369 4.42895 6.45738 4.4856 6.3056 4.48566ZM8.44039 8.45026H7.22051V5.40057H8.44039V8.45026Z" fill="black"/>
</g>
<defs>
<clipPath id="clip0_201_9282">
<rect width="9.75902" height="9.75902" fill="white" transform="translate(0.206055 0.82605)"/>
</clipPath>
</defs>
</svg>
