<svg width="11" height="11" viewBox="0 0 11 11" fill="none" xmlns="http://www.w3.org/2000/svg">
<g clip-path="url(#clip0_201_9284)">
<path d="M8.08704 4.79063H7.62959V4.68122C7.78336 4.50731 7.88426 4.2931 7.92041 4.06379C7.95657 3.83448 7.92646 3.59962 7.83365 3.38684C7.74084 3.17406 7.58918 2.99222 7.39651 2.86272C7.20385 2.73321 6.9782 2.66144 6.74613 2.65584C6.64885 2.31619 6.46805 2.0063 6.22025 1.75447C6.02659 1.55626 5.79511 1.39895 5.53954 1.29185C5.28396 1.18475 5.00949 1.13005 4.73238 1.13099C4.16228 1.13099 3.63106 1.36506 3.22659 1.79201C3.02808 1.72876 2.81539 1.72499 2.61476 1.78117C2.41413 1.83734 2.23433 1.951 2.09752 2.10813C1.96071 2.26527 1.87288 2.45901 1.84485 2.66546C1.81683 2.87191 1.84984 3.08205 1.93981 3.26997C1.79543 3.39812 1.68357 3.55875 1.61346 3.73862C1.54334 3.91848 1.51698 4.11244 1.53655 4.3045C1.55611 4.49655 1.62104 4.68121 1.72599 4.84325C1.83093 5.00528 1.97288 5.14005 2.14014 5.23645V9.21268C2.14044 9.49568 2.253 9.767 2.45311 9.96711C2.65321 10.1672 2.92453 10.2798 3.20753 10.2801H6.56219C6.84519 10.2798 7.11651 10.1672 7.31662 9.96711C7.51673 9.767 7.62928 9.49568 7.62959 9.21268V9.0602H8.08704C8.45089 9.05979 8.79972 8.91508 9.057 8.6578C9.31428 8.40052 9.459 8.05168 9.4594 7.68784V6.16299C9.459 5.79914 9.31428 5.45031 9.057 5.19303C8.79972 4.93575 8.45089 4.79103 8.08704 4.79063ZM3.96996 8.75523C3.96996 8.83611 3.93782 8.91368 3.88063 8.97087C3.82344 9.02807 3.74587 9.0602 3.66499 9.0602C3.5841 9.0602 3.50653 9.02807 3.44934 8.97087C3.39215 8.91368 3.36002 8.83611 3.36002 8.75523V5.70553C3.36002 5.62465 3.39215 5.54708 3.44934 5.48989C3.50653 5.4327 3.5841 5.40057 3.66499 5.40057C3.74587 5.40057 3.82344 5.4327 3.88063 5.48989C3.93782 5.54708 3.96996 5.62465 3.96996 5.70553V8.75523ZM5.18983 8.75523C5.18983 8.83611 5.1577 8.91368 5.10051 8.97087C5.04332 9.02807 4.96575 9.0602 4.88486 9.0602C4.80398 9.0602 4.72641 9.02807 4.66922 8.97087C4.61202 8.91368 4.57989 8.83611 4.57989 8.75523V5.70553C4.57989 5.62465 4.61202 5.54708 4.66922 5.48989C4.72641 5.4327 4.80398 5.40057 4.88486 5.40057C4.96575 5.40057 5.04332 5.4327 5.10051 5.48989C5.1577 5.54708 5.18983 5.62465 5.18983 5.70553V8.75523ZM6.40971 8.75523C6.40971 8.83611 6.37758 8.91368 6.32039 8.97087C6.26319 9.02807 6.18562 9.0602 6.10474 9.0602C6.02386 9.0602 5.94629 9.02807 5.88909 8.97087C5.8319 8.91368 5.79977 8.83611 5.79977 8.75523V5.70553C5.79977 5.62465 5.8319 5.54708 5.88909 5.48989C5.94629 5.4327 6.02386 5.40057 6.10474 5.40057C6.18562 5.40057 6.26319 5.4327 6.32039 5.48989C6.37758 5.54708 6.40971 5.62465 6.40971 5.70553V8.75523ZM6.71468 4.48566C6.5559 4.48566 6.32298 4.38692 6.20595 4.27008C6.14879 4.21288 6.07125 4.18072 5.99038 4.18069H3.66499C3.60251 4.18083 3.54158 4.20015 3.49045 4.23605C3.43931 4.27195 3.40044 4.32268 3.37908 4.3814C3.24889 4.73745 2.92925 4.79063 2.75008 4.79063C2.58831 4.79063 2.43317 4.72636 2.31879 4.61198C2.2044 4.49759 2.14014 4.34245 2.14014 4.18069C2.14014 4.01892 2.2044 3.86378 2.31879 3.7494C2.43317 3.63501 2.58831 3.57075 2.75008 3.57075C2.75179 3.57075 2.92391 3.57723 3.06267 3.6813C3.09471 3.70533 3.13117 3.72281 3.16997 3.73275C3.20876 3.74269 3.24914 3.74489 3.28878 3.73923C3.32843 3.73356 3.36657 3.72015 3.40103 3.69974C3.43549 3.67934 3.4656 3.65235 3.48963 3.62031C3.51366 3.58827 3.53114 3.55181 3.54108 3.51301C3.55102 3.47422 3.55322 3.43384 3.54756 3.3942C3.54189 3.35455 3.52848 3.31641 3.50807 3.28194C3.48767 3.24748 3.46067 3.21738 3.42863 3.19335C3.23104 3.04926 2.99452 2.9682 2.75008 2.96081C2.66029 2.96086 2.57079 2.9709 2.48323 2.99073C2.45297 2.92114 2.4405 2.84511 2.44694 2.76949C2.45338 2.69388 2.47853 2.62105 2.52013 2.55758C2.56173 2.49411 2.61846 2.44198 2.68522 2.4059C2.75198 2.36981 2.82667 2.3509 2.90256 2.35087C2.97461 2.35053 3.0457 2.36736 3.10994 2.39998C3.17418 2.43259 3.22972 2.48006 3.27196 2.53843C3.30633 2.58583 3.33637 2.63623 3.36173 2.68901C3.37001 2.76673 3.40781 2.8383 3.46733 2.88896C3.52685 2.93962 3.60355 2.96549 3.68159 2.96123C3.75964 2.95698 3.83307 2.92292 3.88673 2.86609C3.94039 2.80926 3.97018 2.734 3.96996 2.65584C3.96996 2.5268 3.90115 2.36669 3.76486 2.17933C3.7561 2.16732 3.7458 2.1555 3.73723 2.14387C4.01551 1.88274 4.36337 1.74093 4.73238 1.74093C4.92849 1.74037 5.12272 1.77918 5.30355 1.85508C5.48438 1.93097 5.64813 2.0424 5.78509 2.18276C5.95639 2.35852 6.08286 2.57294 6.15379 2.8079C6.22472 3.04286 6.23804 3.29144 6.19261 3.53263C6.18512 3.57198 6.18546 3.61241 6.1936 3.65163C6.20174 3.69085 6.21753 3.72808 6.24006 3.7612C6.26259 3.79432 6.29143 3.82267 6.32492 3.84464C6.35841 3.86661 6.3959 3.88177 6.43525 3.88925C6.45411 3.89279 6.47325 3.89458 6.49243 3.89459C6.56334 3.89452 6.63201 3.86974 6.68662 3.82451C6.74124 3.77929 6.77839 3.71645 6.79168 3.6468C6.81491 3.52474 6.82741 3.40088 6.82904 3.27664C6.97812 3.30516 7.11121 3.38824 7.2023 3.50964C7.2934 3.63105 7.33595 3.78205 7.32166 3.93316C7.30737 4.08426 7.23725 4.22461 7.12501 4.32678C7.01276 4.42895 6.86646 4.4856 6.71468 4.48566ZM8.84946 7.68784C8.84946 7.89004 8.76914 8.08397 8.62616 8.22695C8.48317 8.36993 8.28925 8.45026 8.08704 8.45026H7.62959V5.40057H8.08704C8.28925 5.40057 8.48317 5.48089 8.62616 5.62387C8.76914 5.76686 8.84946 5.96078 8.84946 6.16299V7.68784Z" fill="black"/>
</g>
<defs>
<clipPath id="clip0_201_9284">
<rect width="9.75902" height="9.75902" fill="white" transform="translate(0.615234 0.82605)"/>
</clipPath>
</defs>
</svg>
