<svg width="11" height="11" viewBox="0 0 11 11" fill="none" xmlns="http://www.w3.org/2000/svg">
<g clip-path="url(#clip0_201_9273)">
<path d="M7.50549 4.63818V9.21272C7.50488 9.41475 7.42436 9.60832 7.28151 9.75117C7.13866 9.89402 6.94509 9.97454 6.74306 9.97515H3.3884C3.18638 9.97454 2.9928 9.89402 2.84995 9.75117C2.7071 9.60832 2.62658 9.41475 2.62598 9.21272V5.09564" stroke="black" stroke-width="0.609939" stroke-linecap="round" stroke-linejoin="round"/>
<path d="M7.50586 5.09558H8.26828C8.55113 5.09639 8.82215 5.2091 9.02215 5.4091C9.22216 5.6091 9.33487 5.88013 9.33568 6.16297V7.68782C9.33487 7.97066 9.22216 8.24169 9.02215 8.44169C8.82215 8.64169 8.55113 8.75441 8.26828 8.75521H7.50586" stroke="black" stroke-width="0.609939" stroke-miterlimit="10" stroke-linecap="round"/>
<path d="M5.06592 5.70557V8.75526" stroke="black" stroke-width="0.609939" stroke-linecap="round" stroke-linejoin="round"/>
<path d="M6.28564 5.70557V8.75526" stroke="black" stroke-width="0.609939" stroke-linecap="round" stroke-linejoin="round"/>
<path d="M3.84619 5.70557V8.75526" stroke="black" stroke-width="0.609939" stroke-linecap="round" stroke-linejoin="round"/>
<path d="M6.89562 2.96082C7.13827 2.96082 7.37098 3.05721 7.54256 3.22879C7.71414 3.40036 7.81053 3.63307 7.81053 3.87572C7.81053 4.11837 7.71414 4.35108 7.54256 4.52266C7.37098 4.69424 7.13827 4.79063 6.89562 4.79063C6.64307 4.79063 6.33696 4.6513 6.17132 4.48566H3.84593C3.69344 4.905 3.33129 5.0956 2.93102 5.0956C2.68837 5.0956 2.45566 4.99921 2.28408 4.82763C2.11251 4.65605 2.01611 4.42334 2.01611 4.18069C2.01611 3.93804 2.11251 3.70533 2.28408 3.53376C2.45566 3.36218 2.68837 3.26578 2.93102 3.26578C3.10943 3.27328 3.28173 3.33293 3.4266 3.43733" stroke="black" stroke-width="0.609939" stroke-linecap="round" stroke-linejoin="round"/>
<path d="M2.5471 3.3503C2.47234 3.27623 2.41373 3.18748 2.37495 3.08965C2.33616 2.99181 2.31806 2.88701 2.32176 2.78184C2.32547 2.67666 2.35091 2.57339 2.39648 2.47853C2.44205 2.38367 2.50677 2.29927 2.58656 2.23065C2.66635 2.16203 2.75948 2.11066 2.86009 2.0798C2.9607 2.04893 3.06661 2.03923 3.17116 2.0513C3.2757 2.06337 3.37662 2.09695 3.46755 2.14993C3.55848 2.20291 3.63745 2.27415 3.69951 2.35915C3.69951 2.35915 3.84589 2.56062 3.84589 2.65592" stroke="black" stroke-width="0.609939" stroke-miterlimit="10" stroke-linecap="round"/>
<path d="M3.57617 2.05951C3.90764 1.68173 4.37176 1.43604 4.91365 1.43604C5.91205 1.43604 6.70535 2.25259 6.70535 3.25079C6.70541 3.36457 6.69476 3.4781 6.67352 3.58988" stroke="black" stroke-width="0.609939" stroke-miterlimit="10" stroke-linecap="round"/>
</g>
<defs>
<clipPath id="clip0_201_9273">
<rect width="9.75902" height="9.75902" fill="white" transform="translate(0.796387 0.82605)"/>
</clipPath>
</defs>
</svg>
