<svg width="11" height="10" viewBox="0 0 11 10" fill="none" xmlns="http://www.w3.org/2000/svg">
<g clip-path="url(#clip0_201_9296)">
<path d="M7.76773 8.77461C7.42091 8.77461 7.08188 8.67176 6.7935 8.47907C6.50513 8.28639 6.28037 8.01252 6.14764 7.69209C6.01492 7.37167 5.98019 7.01909 6.04786 6.67893C6.11552 6.33877 6.28253 6.02631 6.52777 5.78107C6.77301 5.53582 7.08547 5.36881 7.42563 5.30115C7.76579 5.23349 8.11838 5.26822 8.4388 5.40094C8.75922 5.53366 9.03309 5.75842 9.22578 6.0468C9.41846 6.33517 9.52131 6.67421 9.52131 7.02103C9.5208 7.48595 9.33589 7.93169 9.00714 8.26044C8.67839 8.58919 8.23266 8.7741 7.76773 8.77461ZM7.76773 5.8774C7.54155 5.8774 7.32043 5.94447 7.13236 6.07013C6.9443 6.1958 6.79771 6.37441 6.71115 6.58338C6.62459 6.79235 6.60195 7.0223 6.64607 7.24414C6.6902 7.46599 6.79912 7.66976 6.95906 7.8297C7.119 7.98964 7.32278 8.09856 7.54462 8.14269C7.76647 8.18682 7.99641 8.16417 8.20538 8.07761C8.41436 7.99105 8.59297 7.84447 8.71863 7.6564C8.8443 7.46833 8.91137 7.24722 8.91137 7.02103C8.91102 6.71783 8.79041 6.42715 8.57602 6.21275C8.36162 5.99835 8.07094 5.87775 7.76773 5.8774Z" fill="black"/>
<path d="M2.73551 8.77461C2.38868 8.77461 2.04965 8.67176 1.76127 8.47907C1.4729 8.28639 1.24814 8.01252 1.11542 7.69209C0.982693 7.37167 0.947967 7.01909 1.01563 6.67893C1.08329 6.33877 1.2503 6.02631 1.49554 5.78107C1.74079 5.53582 2.05324 5.36881 2.3934 5.30115C2.73356 5.23349 3.08615 5.26822 3.40657 5.40094C3.727 5.53366 4.00087 5.75842 4.19355 6.0468C4.38624 6.33517 4.48908 6.67421 4.48908 7.02103C4.48858 7.48595 4.30366 7.93169 3.97492 8.26044C3.64617 8.58919 3.20043 8.7741 2.73551 8.77461ZM2.73551 5.8774C2.50932 5.8774 2.28821 5.94447 2.10014 6.07013C1.91207 6.1958 1.76549 6.37441 1.67893 6.58338C1.59237 6.79235 1.56972 7.0223 1.61385 7.24414C1.65798 7.46599 1.7669 7.66976 1.92684 7.8297C2.08678 7.98964 2.29055 8.09856 2.5124 8.14269C2.73424 8.18682 2.96419 8.16417 3.17316 8.07761C3.38213 7.99105 3.56074 7.84447 3.68641 7.6564C3.81207 7.46833 3.87914 7.24722 3.87914 7.02103C3.87879 6.71783 3.75819 6.42715 3.54379 6.21275C3.32939 5.99835 3.03871 5.87775 2.73551 5.8774Z" fill="black"/>
<path d="M6.47132 2.67522C6.55165 2.6755 6.63125 2.65985 6.7055 2.62918C6.77975 2.5985 6.84719 2.55341 6.90391 2.49652C6.96062 2.43962 7.0055 2.37205 7.03594 2.2977C7.06638 2.22335 7.08179 2.14371 7.08126 2.06337C7.08214 1.98344 7.06709 1.90413 7.03697 1.83008C7.00684 1.75604 6.96226 1.68874 6.90583 1.63213C6.84939 1.57551 6.78223 1.53072 6.70828 1.50036C6.63433 1.47001 6.55507 1.4547 6.47513 1.45534C6.39503 1.45509 6.31567 1.47062 6.24157 1.50104C6.16747 1.53146 6.10009 1.57618 6.04328 1.63264C5.98646 1.6891 5.94133 1.7562 5.91044 1.83011C5.87956 1.90401 5.86353 1.98328 5.86328 2.06337C5.86303 2.14347 5.87856 2.22284 5.90898 2.29693C5.9394 2.37103 5.98412 2.43841 6.04058 2.49522C6.09704 2.55204 6.16414 2.59718 6.23805 2.62806C6.31195 2.65894 6.39122 2.67497 6.47132 2.67522Z" fill="black"/>
<path d="M7.3779 3.89515H6.54381C6.53013 3.89515 6.51669 3.89147 6.50492 3.88449C6.49315 3.87752 6.48347 3.8675 6.47691 3.8555L5.87192 2.74675C5.8293 2.66435 5.76787 2.59315 5.69261 2.5389C5.61735 2.48466 5.53038 2.4489 5.43873 2.43451C5.34708 2.42013 5.25333 2.42753 5.16508 2.45611C5.07682 2.48469 4.99653 2.53365 4.93071 2.59903L3.59914 3.94089C3.48727 4.05507 3.42377 4.20801 3.42188 4.36785C3.42187 4.6995 3.66204 4.81768 3.7745 4.88439C4.31772 5.19737 4.70027 5.42628 4.91013 5.55342C4.92128 5.56021 4.93051 5.56975 4.93691 5.58113C4.94332 5.59252 4.9467 5.60535 4.94672 5.61841V6.93588C4.94672 7.09999 5.0729 7.24085 5.23701 7.24905C5.27822 7.25103 5.31939 7.24464 5.35805 7.23025C5.39672 7.21586 5.43206 7.19378 5.46194 7.16535C5.49182 7.13691 5.51562 7.1027 5.5319 7.0648C5.54818 7.0269 5.55661 6.98609 5.55666 6.94484V5.30563C5.55669 5.25722 5.54519 5.20949 5.52311 5.1664C5.50104 5.12332 5.46903 5.0861 5.42972 5.05784L4.72448 4.55064C4.71562 4.54431 4.70823 4.53615 4.70279 4.52672C4.69735 4.51729 4.694 4.50681 4.69295 4.49597C4.69191 4.48514 4.69319 4.4742 4.69672 4.46391C4.70025 4.45361 4.70595 4.44419 4.71342 4.43628L5.51397 3.58255C5.52217 3.57377 5.53234 3.56705 5.54364 3.56295C5.55494 3.55884 5.56705 3.55747 5.57898 3.55894C5.59091 3.56041 5.60233 3.56467 5.6123 3.57139C5.62226 3.57812 5.6305 3.5871 5.63633 3.59761L6.05224 4.34822C6.07867 4.3958 6.11735 4.43544 6.16428 4.46302C6.2112 4.49061 6.26465 4.50513 6.31908 4.50508H7.38648C7.42779 4.50513 7.46869 4.49679 7.50668 4.48055C7.54467 4.46431 7.57896 4.44053 7.60748 4.41064C7.636 4.38074 7.65815 4.34537 7.67258 4.30666C7.68702 4.26795 7.69343 4.22671 7.69145 4.18544C7.68344 4.02133 7.54201 3.89515 7.3779 3.89515Z" fill="black"/>
</g>
<defs>
<clipPath id="clip0_201_9296">
<rect width="9.75902" height="9.75902" fill="white" transform="translate(0.37207 0.235474)"/>
</clipPath>
</defs>
</svg>
