<svg width="11" height="10" viewBox="0 0 11 10" fill="none" xmlns="http://www.w3.org/2000/svg">
<g clip-path="url(#clip0_201_9291)">
<path d="M7.0619 3.8951L6.49961 2.74956C6.38182 2.48462 6.38182 2.48462 5.99451 2.48462C5.74176 2.48462 5.71317 2.48462 5.55611 2.62376L4.18947 3.94085C4.03127 4.10191 4.01221 4.12097 4.01221 4.44786C4.01221 4.68936 4.08426 4.72634 4.36502 4.88435L5.53705 5.53431V7.24977H6.14699V5.07686C6.14699 5.07686 5.59424 4.75283 5.22637 4.50504L6.15843 3.52342C6.51486 4.06665 6.67878 4.50504 6.88273 4.50504H8.28178V3.8951H7.0619Z" fill="black"/>
<path d="M8.35807 8.77461C8.01124 8.77461 7.67221 8.67176 7.38383 8.47907C7.09546 8.28639 6.8707 8.01252 6.73798 7.69209C6.60525 7.37167 6.57053 7.01909 6.63819 6.67893C6.70585 6.33877 6.87286 6.02631 7.1181 5.78107C7.36334 5.53582 7.6758 5.36881 8.01596 5.30115C8.35612 5.23349 8.70871 5.26822 9.02913 5.40094C9.34955 5.53366 9.62343 5.75842 9.81611 6.0468C10.0088 6.33517 10.1116 6.67421 10.1116 7.02103C10.1111 7.48595 9.92622 7.93169 9.59747 8.26044C9.26872 8.58919 8.82299 8.7741 8.35807 8.77461ZM8.35807 5.8774C8.13188 5.8774 7.91077 5.94447 7.7227 6.07013C7.53463 6.1958 7.38804 6.37441 7.30149 6.58338C7.21493 6.79235 7.19228 7.0223 7.23641 7.24414C7.28053 7.46599 7.38945 7.66976 7.54939 7.8297C7.70933 7.98964 7.91311 8.09856 8.13495 8.14269C8.3568 8.18682 8.58675 8.16417 8.79572 8.07761C9.00469 7.99105 9.1833 7.84447 9.30896 7.6564C9.43463 7.46833 9.5017 7.24722 9.5017 7.02103C9.50135 6.71783 9.38075 6.42715 9.16635 6.21275C8.95195 5.99835 8.66127 5.87775 8.35807 5.8774Z" fill="black"/>
<path d="M3.32584 8.77461C2.97902 8.77461 2.63998 8.67176 2.35161 8.47907C2.06323 8.28639 1.83847 8.01252 1.70575 7.69209C1.57303 7.37167 1.5383 7.01909 1.60596 6.67893C1.67362 6.33877 1.84063 6.02631 2.08588 5.78107C2.33112 5.53582 2.64357 5.36881 2.98373 5.30115C3.32389 5.23349 3.67648 5.26822 3.9969 5.40094C4.31733 5.53366 4.5912 5.75842 4.78388 6.0468C4.97657 6.33517 5.07941 6.67421 5.07941 7.02103C5.07891 7.48595 4.894 7.93169 4.56525 8.26044C4.2365 8.58919 3.79076 8.7741 3.32584 8.77461ZM3.32584 5.8774C3.09965 5.8774 2.87854 5.94447 2.69047 6.07013C2.5024 6.1958 2.35582 6.37441 2.26926 6.58338C2.1827 6.79235 2.16005 7.0223 2.20418 7.24414C2.24831 7.46599 2.35723 7.66976 2.51717 7.8297C2.67711 7.98964 2.88088 8.09856 3.10273 8.14269C3.32457 8.18682 3.55452 8.16417 3.76349 8.07761C3.97246 7.99105 4.15107 7.84447 4.27674 7.6564C4.4024 7.46833 4.46948 7.24722 4.46948 7.02103C4.46912 6.71783 4.34852 6.42715 4.13412 6.21275C3.91973 5.99835 3.62904 5.87775 3.32584 5.8774Z" fill="black"/>
<path d="M7.06165 2.67522C7.14199 2.6755 7.22158 2.65985 7.29583 2.62918C7.37008 2.5985 7.43752 2.55341 7.49424 2.49652C7.55096 2.43962 7.59583 2.37205 7.62628 2.2977C7.65672 2.22335 7.67212 2.14371 7.67159 2.06337C7.67248 1.98344 7.65742 1.90413 7.6273 1.83008C7.59718 1.75604 7.55259 1.68874 7.49616 1.63213C7.43972 1.57551 7.37256 1.53072 7.29861 1.50036C7.22466 1.47001 7.1454 1.4547 7.06546 1.45534C6.98536 1.45509 6.906 1.47062 6.8319 1.50104C6.75781 1.53146 6.69043 1.57618 6.63361 1.63264C6.5768 1.6891 6.53166 1.7562 6.50077 1.83011C6.46989 1.90401 6.45387 1.98328 6.45362 2.06337C6.45337 2.14347 6.46889 2.22284 6.49932 2.29693C6.52974 2.37103 6.57445 2.43841 6.63092 2.49522C6.68738 2.55204 6.75448 2.59718 6.82838 2.62806C6.90229 2.65894 6.98155 2.67497 7.06165 2.67522Z" fill="black"/>
</g>
<defs>
<clipPath id="clip0_201_9291">
<rect width="9.75902" height="9.75902" fill="white" transform="translate(0.962402 0.235474)"/>
</clipPath>
</defs>
</svg>
