<svg width="11" height="10" viewBox="0 0 11 10" fill="none" xmlns="http://www.w3.org/2000/svg">
<g clip-path="url(#clip0_201_9305)">
<path d="M7.99549 3.29983C7.99749 3.24733 7.98862 3.19499 7.96943 3.14608C7.95024 3.09718 7.92115 3.05276 7.88398 3.01563L5.7492 0.880847C5.6959 0.827485 5.62796 0.791134 5.55399 0.776394C5.48002 0.761654 5.40334 0.769187 5.33366 0.798042C5.26397 0.826896 5.20441 0.875773 5.16251 0.938489C5.12061 1.0012 5.09826 1.07494 5.09828 1.15036V4.28621L3.59249 2.99562C3.51533 2.93294 3.41674 2.90289 3.31774 2.91186C3.21874 2.92083 3.12716 2.96812 3.06252 3.04365C2.99788 3.11917 2.9653 3.21696 2.97173 3.31616C2.97816 3.41536 3.02308 3.50813 3.09692 3.57468L4.89376 5.11497L3.09692 6.65525C3.05742 6.68734 3.02475 6.727 3.00082 6.77191C2.9769 6.81682 2.9622 6.86607 2.95761 6.91674C2.95302 6.96742 2.95862 7.01851 2.97408 7.06699C2.98954 7.11547 3.01455 7.16036 3.04764 7.19902C3.08073 7.23768 3.12122 7.26932 3.16673 7.29209C3.21224 7.31485 3.26184 7.32828 3.31262 7.33156C3.3634 7.33485 3.41433 7.32794 3.46239 7.31124C3.51046 7.29454 3.5547 7.26838 3.59249 7.23431L5.09828 5.94372V9.07957C5.0983 9.15495 5.12066 9.22864 5.16255 9.29132C5.20444 9.35399 5.26397 9.40284 5.33362 9.43169C5.40327 9.46053 5.4799 9.46808 5.55384 9.45338C5.62778 9.43868 5.69569 9.40238 5.74901 9.34909L7.88379 7.2143C7.92093 7.17714 7.94998 7.13271 7.96913 7.08379C7.98828 7.03487 7.99711 6.98252 7.99507 6.93003C7.99303 6.87754 7.98016 6.82603 7.95727 6.77875C7.93438 6.73146 7.90197 6.68942 7.86206 6.65525L6.06522 5.11497L7.86206 3.57468C7.90206 3.54055 7.93455 3.49851 7.95752 3.45121C7.98048 3.4039 7.99341 3.35237 7.99549 3.29983ZM7.05351 6.96632L5.8607 8.15932V5.94391L7.05351 6.96632ZM5.8607 4.28621V2.07061L7.0537 3.26361L5.8607 4.28621Z" fill="black"/>
</g>
<defs>
<clipPath id="clip0_201_9305">
<rect width="9.75902" height="9.75902" fill="white" transform="translate(0.600098 0.235474)"/>
</clipPath>
</defs>
</svg>
