<svg width="11" height="10" viewBox="0 0 11 10" fill="none" xmlns="http://www.w3.org/2000/svg">
<g clip-path="url(#clip0_201_9313)">
<path d="M9.52541 4.93233C9.48482 4.81796 9.38761 4.7503 9.28601 4.70455L8.65301 4.45505V1.98899C8.65301 1.88789 8.61285 1.79092 8.54136 1.71943C8.46987 1.64794 8.3729 1.60778 8.2718 1.60778H6.8232V0.99784C6.8232 0.916958 6.79107 0.839387 6.73387 0.782195C6.67668 0.725002 6.59911 0.692871 6.51823 0.692871H4.07847C3.99759 0.692871 3.92002 0.725002 3.86283 0.782195C3.80563 0.839387 3.7735 0.916958 3.7735 0.99784V1.60778H2.3249C2.22379 1.60778 2.12683 1.64794 2.05534 1.71943C1.98385 1.79092 1.94369 1.88789 1.94369 1.98899V4.45657L1.31316 4.70551C1.21157 4.75125 1.1115 4.81987 1.07071 4.93423C1.02992 5.0486 1.01048 5.15934 1.05165 5.29638L2.02469 8.1589H2.0449C2.69524 8.1589 3.26478 7.82706 3.67096 7.32367C4.07733 7.82706 4.64648 8.1265 5.29682 8.1265C5.94717 8.1265 6.5167 7.82611 6.92288 7.32271C7.32925 7.82611 7.8984 8.1589 8.54875 8.1589H8.56895L9.54581 5.29657C9.58698 5.18221 9.5662 5.04688 9.52541 4.93233ZM5.29835 3.13263L2.55362 4.21584V2.29396C2.55362 2.27374 2.56166 2.25435 2.57596 2.24005C2.59025 2.22575 2.60965 2.21772 2.62987 2.21772H7.96683C7.98705 2.21772 8.00644 2.22575 8.02074 2.24005C8.03504 2.25435 8.04307 2.27374 8.04307 2.29396V4.21451L5.29835 3.13263Z" fill="black"/>
<path d="M6.99913 7.99304C6.00321 8.68418 4.59083 8.68399 3.59491 7.99304C3.59491 7.99304 2.72498 9.19386 1.79102 9.19386L2.04509 9.21292C2.61424 9.21292 3.163 8.98934 3.67115 8.72516C4.17353 8.98561 4.73114 9.12156 5.29702 9.12156C5.8629 9.12156 6.42051 8.98561 6.92289 8.72516C7.43104 8.98953 7.9798 9.21311 8.54895 9.21311L8.80302 9.19405C7.89479 9.19386 6.99913 7.99304 6.99913 7.99304Z" fill="black"/>
</g>
<defs>
<clipPath id="clip0_201_9313">
<rect width="9.75902" height="9.75902" fill="white" transform="translate(0.418945 0.235474)"/>
</clipPath>
</defs>
</svg>
