<svg width="11" height="10" viewBox="0 0 11 10" fill="none" xmlns="http://www.w3.org/2000/svg">
<g clip-path="url(#clip0_201_9316)">
<path d="M8.75799 9.25379C8.75798 9.23037 8.75166 9.20738 8.73968 9.18726C8.72771 9.16713 8.71052 9.15061 8.68994 9.13943C8.17397 8.8621 7.70337 8.43762 7.49637 8.22452C7.46561 8.19227 7.42458 8.17175 7.38032 8.1665C7.33607 8.16124 7.29137 8.17158 7.25392 8.19574C6.2946 8.81368 5.12657 8.81406 4.16706 8.19669C4.12928 8.17229 4.08414 8.16191 4.0395 8.16734C3.99485 8.17277 3.95353 8.19368 3.9227 8.22642C3.71742 8.44143 3.25196 8.86114 2.73275 9.13657C2.7121 9.14694 2.69445 9.16242 2.68148 9.18154C2.6685 9.20065 2.66063 9.22277 2.6586 9.24578C2.65705 9.26538 2.66003 9.28506 2.6673 9.30332C2.67457 9.32158 2.68593 9.33793 2.70052 9.3511C2.71511 9.36427 2.73253 9.37391 2.75144 9.37928C2.77034 9.38465 2.79023 9.3856 2.80956 9.38207C3.20697 9.30239 3.59105 9.12132 3.95701 8.92785C3.98048 8.91549 4.00658 8.90894 4.03311 8.90874C4.05964 8.90854 4.08583 8.9147 4.10949 8.92671C4.60497 9.17861 5.15294 9.30991 5.70877 9.30991C6.2646 9.30991 6.81258 9.17861 7.30805 8.92671C7.33198 8.91458 7.35846 8.90836 7.38529 8.90856C7.41212 8.90876 7.4385 8.91537 7.46225 8.92785C7.82631 9.11846 8.20981 9.30125 8.60588 9.3815C8.6246 9.3851 8.64389 9.38448 8.66234 9.37969C8.68079 9.3749 8.69794 9.36606 8.71254 9.35381C8.72715 9.34156 8.73884 9.32621 8.74676 9.30888C8.75469 9.29154 8.75866 9.27266 8.75837 9.2536L8.75799 9.25379Z" fill="black"/>
<path d="M9.91496 4.94167C9.84844 4.78175 9.7072 4.65785 9.5166 4.5919L9.06277 4.41121V2.82766C9.06277 2.50413 8.93424 2.19384 8.70547 1.96507C8.4767 1.7363 8.16642 1.60778 7.84289 1.60778H7.23295V1.45529C7.23295 1.25309 7.15262 1.05916 7.00964 0.91618C6.86666 0.773198 6.67273 0.692871 6.47053 0.692871H4.94568C4.74347 0.692871 4.54955 0.773198 4.40656 0.91618C4.26358 1.05916 4.18326 1.25309 4.18326 1.45529V1.60778H3.57332C3.24979 1.60778 2.9395 1.7363 2.71073 1.96507C2.48196 2.19384 2.35344 2.50413 2.35344 2.82766V4.41254L1.90399 4.59152C1.71453 4.65442 1.56795 4.78213 1.50086 4.943C1.45416 5.05527 1.40079 5.22891 1.47608 5.44734L1.47799 5.45306L2.36735 7.72966C2.40012 7.8133 2.45745 7.88505 2.53179 7.93548C2.60613 7.9859 2.694 8.01263 2.78383 8.01214C2.79336 8.01214 2.80289 8.01214 2.81299 8.01118C3.40997 7.97306 3.88038 7.68201 4.19679 7.40868C4.64872 7.79885 5.18032 8.01214 5.7081 8.01214C6.23589 8.01214 6.76463 7.79866 7.21656 7.40792C7.53277 7.68163 8.00376 7.97344 8.60055 8.01118C8.69502 8.01782 8.78915 7.99415 8.86926 7.94363C8.94937 7.8931 9.01128 7.81835 9.04599 7.73023L9.93517 5.46202C9.99769 5.30782 9.99045 5.1235 9.91496 4.94167ZM5.95589 3.17475L5.93416 3.16713C5.78695 3.1208 5.62907 3.1208 5.48185 3.16713L5.4708 3.17056L3.06783 4.12797C3.05626 4.13258 3.04373 4.13428 3.03135 4.13293C3.01897 4.13158 3.00711 4.12722 2.9968 4.12022C2.98649 4.11322 2.97806 4.10381 2.97223 4.0928C2.96641 4.08179 2.96337 4.06952 2.96338 4.05706V2.82766C2.96338 2.66589 3.02764 2.51075 3.14203 2.39637C3.25641 2.28198 3.41155 2.21772 3.57332 2.21772H7.84289C8.00465 2.21772 8.15979 2.28198 8.27418 2.39637C8.38857 2.51075 8.45283 2.66589 8.45283 2.82766V4.05592C8.45284 4.06838 8.4498 4.08065 8.44397 4.09166C8.43815 4.10267 8.42971 4.11208 8.41941 4.11908C8.4091 4.12607 8.39724 4.13044 8.38485 4.13179C8.37247 4.13314 8.35995 4.13144 8.34838 4.12683L5.95589 3.17475Z" fill="black"/>
</g>
<defs>
<clipPath id="clip0_201_9316">
<rect width="9.75902" height="9.75902" fill="white" transform="translate(0.828613 0.235474)"/>
</clipPath>
</defs>
</svg>
