<svg width="10" height="10" viewBox="0 0 10 10" fill="none" xmlns="http://www.w3.org/2000/svg">
<g clip-path="url(#clip0_201_9307)">
<path d="M8.81425 5.21119C8.77613 5.12046 8.68635 5.06195 8.59181 5.03031L5.02405 3.61067C4.93611 3.58323 4.8419 3.58323 4.75396 3.61067L1.18963 5.03107C1.09433 5.0608 1.00227 5.12199 0.964529 5.21272C0.926789 5.30344 0.908491 5.39131 0.945469 5.50015L1.83236 7.77122C1.84366 7.79914 1.86354 7.82275 1.88913 7.83865C1.91472 7.85454 1.9447 7.8619 1.97474 7.85966C2.48347 7.82764 2.93368 7.56937 3.2781 7.24019C3.30518 7.21475 3.34093 7.20059 3.37808 7.20059C3.41522 7.20059 3.45098 7.21475 3.47805 7.24019C3.8463 7.59281 4.33635 7.85966 4.8891 7.85966C5.44186 7.85966 5.92905 7.59281 6.2973 7.23943C6.3244 7.21398 6.36019 7.19981 6.39737 7.19981C6.43455 7.19981 6.47033 7.21398 6.49744 7.23943C6.84186 7.56879 7.29207 7.82764 7.8008 7.85966C7.83075 7.86193 7.86064 7.85465 7.88619 7.83886C7.91174 7.82307 7.93163 7.79959 7.94299 7.77179L8.83312 5.50053C8.87086 5.40942 8.85199 5.30211 8.81425 5.21119Z" stroke="black" stroke-width="0.609939" stroke-miterlimit="10"/>
<path d="M7.93914 9.25379C7.93913 9.23039 7.93283 9.20743 7.92089 9.18731C7.90895 9.16719 7.89182 9.15065 7.87129 9.13943C7.35512 8.8621 6.88452 8.43762 6.67752 8.22452C6.64677 8.19227 6.60573 8.17175 6.56148 8.1665C6.51722 8.16124 6.47252 8.17158 6.43507 8.19574C5.47575 8.81368 4.30772 8.81406 3.34821 8.19669C3.31043 8.17229 3.26529 8.16191 3.22065 8.16734C3.17601 8.17277 3.13468 8.19368 3.10385 8.22642C2.89857 8.44143 2.43311 8.86114 1.9139 9.13657C1.8933 9.147 1.87569 9.1625 1.86272 9.1816C1.84975 9.2007 1.84185 9.22279 1.83975 9.24578C1.83821 9.26538 1.84118 9.28506 1.84845 9.30332C1.85572 9.32158 1.86709 9.33793 1.88167 9.3511C1.89626 9.36427 1.91368 9.37391 1.93259 9.37928C1.95149 9.38465 1.97138 9.3856 1.99071 9.38207C2.38813 9.30239 2.7722 9.12132 3.13816 8.92785C3.16164 8.91549 3.18773 8.90894 3.21426 8.90874C3.24079 8.90854 3.26699 8.9147 3.29065 8.92671C3.78626 9.17889 4.33446 9.31037 4.89055 9.31044C5.44663 9.31051 5.99486 9.17915 6.49054 8.92709C6.51447 8.91497 6.54095 8.90874 6.56778 8.90894C6.5946 8.90914 6.62099 8.91576 6.64474 8.92824C7.00879 9.11884 7.39229 9.30163 7.78837 9.38188C7.80703 9.38535 7.82622 9.38464 7.84456 9.37979C7.86291 9.37494 7.87995 9.36608 7.89445 9.35384C7.90895 9.3416 7.92055 9.32629 7.92841 9.30902C7.93627 9.29175 7.9402 9.27295 7.9399 9.25398L7.93914 9.25379Z" fill="black"/>
<path d="M6.10919 2.0653V1.60784C6.10884 1.48663 6.06053 1.37048 5.97481 1.28476C5.8891 1.19905 5.77295 1.15074 5.65173 1.15039H4.12689C4.00567 1.15074 3.88952 1.19905 3.80381 1.28476C3.71809 1.37048 3.66979 1.48663 3.66943 1.60784V2.0653" stroke="black" stroke-width="0.609939" stroke-linecap="round" stroke-linejoin="round"/>
<path d="M7.93923 4.67649V2.98009C7.93853 2.73766 7.84191 2.50536 7.67048 2.33393C7.49906 2.16251 7.26676 2.06589 7.02432 2.06519H2.75475C2.51232 2.06589 2.28002 2.16251 2.10859 2.33393C1.93717 2.50536 1.84055 2.73766 1.83984 2.98009V4.73367" stroke="black" stroke-width="0.609939" stroke-linecap="round" stroke-linejoin="round"/>
<path d="M4.88916 3.73499V7.79203" stroke="black" stroke-width="0.609939" stroke-linecap="round" stroke-linejoin="round"/>
</g>
<defs>
<clipPath id="clip0_201_9307">
<rect width="9.75902" height="9.75902" fill="white" transform="translate(0.00976562 0.235474)"/>
</clipPath>
</defs>
</svg>
