<svg width="10" height="10" viewBox="0 0 10 10" fill="none" xmlns="http://www.w3.org/2000/svg">
<g clip-path="url(#clip0_201_9325)">
<path d="M4.93653 2.37026C5.52604 2.37026 6.00393 1.89237 6.00393 1.30287C6.00393 0.713362 5.52604 0.235474 4.93653 0.235474C4.34703 0.235474 3.86914 0.713362 3.86914 1.30287C3.86914 1.89237 4.34703 2.37026 4.93653 2.37026Z" fill="black"/>
<path d="M8.38674 2.67513H1.4868C1.35031 2.67513 1.21941 2.72935 1.1229 2.82587C1.02639 2.92238 0.972168 3.05328 0.972168 3.18977C0.972168 3.32626 1.02639 3.45716 1.1229 3.55367C1.21941 3.65018 1.35031 3.7044 1.4868 3.7044H3.4287C3.56041 3.7044 3.71461 3.7633 3.8019 3.99031C3.90388 4.25392 3.85394 4.76303 3.79104 5.15739L3.7087 5.62342C3.70885 5.62464 3.70872 5.62587 3.70833 5.62703C3.70793 5.62818 3.70727 5.62923 3.70641 5.6301L3.04691 9.38141C3.023 9.51758 3.05399 9.65768 3.13311 9.77106C3.21223 9.88444 3.33304 9.96186 3.4691 9.98639C3.53637 9.99829 3.60534 9.99671 3.67199 9.98173C3.73864 9.96676 3.80165 9.9387 3.85737 9.89917C3.91309 9.85964 3.9604 9.80944 3.99655 9.75148C4.03271 9.69352 4.05699 9.62895 4.06799 9.56153L4.52373 6.95404C4.52373 6.95404 4.66992 6.33477 4.93677 6.33477C5.208 6.33477 5.35115 6.95404 5.35115 6.95404L5.80689 9.56382C5.81791 9.63184 5.84236 9.69698 5.87882 9.75545C5.91527 9.81392 5.963 9.86455 6.01922 9.90438C6.07544 9.94422 6.13903 9.97247 6.20627 9.98749C6.27352 10.0025 6.34309 10.004 6.41091 9.99183C6.47874 9.97969 6.54347 9.95417 6.60133 9.91676C6.65919 9.87934 6.70903 9.83079 6.74793 9.77392C6.78684 9.71705 6.81403 9.653 6.82794 9.58552C6.84184 9.51803 6.84217 9.44845 6.82891 9.38084L6.16923 5.62952C6.16937 5.62833 6.16925 5.62711 6.16889 5.62596C6.16853 5.62482 6.16793 5.62375 6.16713 5.62285L6.0846 5.15682C6.0217 4.76246 5.97176 4.25335 6.07373 3.98974C6.16065 3.7633 6.31981 3.70383 6.44122 3.70383H8.38674C8.52323 3.70383 8.65413 3.64961 8.75064 3.5531C8.84715 3.45659 8.90137 3.32569 8.90137 3.1892C8.90137 3.05271 8.84715 2.92181 8.75064 2.82529C8.65413 2.72878 8.52323 2.67456 8.38674 2.67456V2.67513Z" fill="black"/>
</g>
<defs>
<clipPath id="clip0_201_9325">
<rect width="9.75902" height="9.75902" fill="white" transform="translate(0.0571289 0.235474)"/>
</clipPath>
</defs>
</svg>
