<svg width="11" height="10" viewBox="0 0 11 10" fill="none" xmlns="http://www.w3.org/2000/svg">
<g clip-path="url(#clip0_201_9346)">
<path d="M5.49577 7.25685C5.48033 7.08092 5.32689 6.94349 5.1422 6.94349C5.0627 6.94291 4.9853 6.96902 4.92241 7.01764C4.85951 7.06627 4.81475 7.13459 4.79529 7.21167L4.44839 8.89587C4.43692 8.94505 4.43097 8.99537 4.43066 9.04587C4.43066 9.42575 4.74859 9.68955 5.1422 9.68955C5.5358 9.68955 5.85392 9.42575 5.85392 9.04587C5.85371 8.98501 5.84544 8.92444 5.82933 8.86575L5.49577 7.25685Z" fill="black"/>
<path d="M8.12006 8.01001C8.08473 7.97908 8.04679 7.95128 8.00665 7.9269L6.68137 7.00189C6.55233 6.92108 6.41452 6.92317 6.31446 7.02095C6.27079 7.06249 6.24307 7.11802 6.2361 7.17788C6.22914 7.23774 6.24337 7.29815 6.27633 7.34861L7.27701 8.66379C7.29997 8.6956 7.32546 8.7255 7.35326 8.75318C7.52671 8.94684 7.91135 8.95751 8.12273 8.75318C8.33126 8.54428 8.32878 8.17393 8.12006 8.01001Z" fill="black"/>
<path d="M9.116 6.63855H7.77375C7.68702 6.63855 7.60449 6.7024 7.60449 6.79389C7.60449 6.88538 7.66072 6.94352 7.73639 6.96849L9.00259 7.36018C9.18652 7.40231 9.43431 7.23915 9.43431 7.03463C9.43431 6.77483 9.28945 6.63855 9.116 6.63855Z" fill="black"/>
<path d="M2.72903 6.79389C2.72903 6.69954 2.6423 6.63855 2.54891 6.63855H1.20666C1.03759 6.63855 0.89502 6.82115 0.89502 7.02567C0.89502 7.23019 1.13556 7.40231 1.32007 7.36018L2.60533 6.96849C2.689 6.94352 2.72903 6.88767 2.72903 6.79389Z" fill="black"/>
<path d="M3.65039 7.00291L2.32473 7.92468C2.28356 7.94778 2.24519 7.97554 2.21037 8.0074C2.15987 8.05437 2.11959 8.11125 2.09205 8.17447C2.06451 8.2377 2.05029 8.30593 2.05029 8.37489C2.05029 8.44386 2.06451 8.51208 2.09205 8.57531C2.11959 8.63854 2.15987 8.69541 2.21037 8.74238C2.3144 8.84051 2.452 8.89516 2.59501 8.89516C2.73802 8.89516 2.87562 8.84051 2.97965 8.74238C3.00799 8.71527 3.03353 8.68539 3.05589 8.65318L4.05734 7.34505C4.12405 7.23888 4.11299 7.10717 4.01922 7.02102C3.9698 6.97488 3.90564 6.94775 3.83812 6.94444C3.7706 6.94112 3.70409 6.96184 3.65039 7.00291Z" fill="black"/>
<path d="M5.87862 4.85546C6.06923 4.75215 6.24935 4.65456 6.41823 4.54744C7.22754 4.03433 7.60437 3.42286 7.60437 2.62232C7.60437 1.38986 6.53564 0.632394 5.53019 0.544715C5.40649 0.53385 5.24428 0.53671 5.1507 0.61867C5.05711 0.700631 5.03862 0.858071 5.03347 0.982727C5.00717 1.62335 4.49253 2.1073 3.94702 2.61927C3.41332 3.12056 2.8619 3.63882 2.75173 4.35378C2.59143 5.39602 3.16611 6.00653 3.52292 6.27757C3.62868 6.35804 3.7579 6.40163 3.89079 6.40165C3.93835 6.4016 3.98575 6.39603 4.03203 6.38507C4.11932 6.36461 4.20097 6.32501 4.27109 6.26914C4.3412 6.21327 4.39802 6.14251 4.43745 6.06199C4.72164 5.48274 5.30985 5.16386 5.87862 4.85546Z" fill="black"/>
<path d="M2.95039 3.21977C3.18331 2.91938 3.46503 2.65405 3.73893 2.39731C4.11862 2.04049 4.45961 1.71913 4.62525 1.3707C4.39195 1.23023 4.10375 1.15417 3.73874 1.15417C3.39965 1.15417 3.35009 1.25291 3.35009 1.51747C3.35009 1.75687 3.22563 1.90897 3.07677 2.10168C2.91189 2.31496 2.7251 2.55646 2.7251 2.91995C2.7251 3.11494 2.74969 3.27771 2.80515 3.42258C2.84963 3.35497 2.89804 3.28737 2.95039 3.21977Z" fill="black"/>
<path d="M6.58156 4.80498C6.40372 4.91782 6.2194 5.0177 6.02403 5.12349C5.47299 5.42236 4.95264 5.70445 4.71114 6.19622C4.69894 6.22137 4.68732 6.24387 4.67531 6.26502C4.66477 6.28378 4.65832 6.30456 4.65638 6.32598C4.65444 6.34741 4.65706 6.369 4.66407 6.38935C4.67107 6.40969 4.6823 6.42832 4.69701 6.44402C4.71173 6.45971 4.7296 6.47211 4.74945 6.48041C4.98409 6.57762 5.22845 6.63804 5.4911 6.63804C6.04732 6.64172 6.58278 6.42702 6.9824 6.04011C7.1805 5.84792 7.33771 5.61768 7.44459 5.36321C7.55147 5.10874 7.60581 4.83529 7.60435 4.55929C7.60422 4.46343 7.59574 4.36777 7.579 4.27338C7.57407 4.24528 7.56137 4.21913 7.54232 4.19789C7.52327 4.17666 7.49865 4.16119 7.47125 4.15325C7.44385 4.1453 7.41477 4.14521 7.38732 4.15297C7.35987 4.16073 7.33515 4.17603 7.31596 4.19714C7.12192 4.41577 6.8789 4.61647 6.58156 4.80498Z" fill="black"/>
</g>
<defs>
<clipPath id="clip0_201_9346">
<rect width="9.75902" height="9.75902" fill="white" transform="translate(0.285156 0.235474)"/>
</clipPath>
</defs>
</svg>
