<svg width="11" height="10" viewBox="0 0 11 10" fill="none" xmlns="http://www.w3.org/2000/svg">
<g clip-path="url(#clip0_201_9337)">
<path d="M4.68598 6.63979L4.3953 6.53267C4.16488 6.42784 3.95756 6.27831 3.78537 6.09275C3.51985 5.80875 3.22708 5.3168 3.33973 4.58487C3.43884 3.94196 4.18221 3.17039 4.66139 2.71941C5.1806 2.23108 5.91939 1.46427 5.88413 0.829554L5.86983 0.540405H6.15917C7.13793 0.540405 8.19522 1.25746 8.19522 2.41616C8.19522 3.28475 7.77589 3.89545 6.88176 4.45373C6.72927 4.54904 6.5684 4.63786 6.39724 4.73068C5.81341 5.04747 4.96217 5.68047 4.76317 6.35693L4.68598 6.63979Z" fill="black"/>
<path d="M4.32975 2.40055C4.70734 2.04621 5.04872 1.72504 5.21473 1.37509C5.17966 1.35374 5.14345 1.33411 5.10609 1.31619C4.87984 1.20774 4.60861 1.15723 4.25294 1.15723H4.24493H3.93005L3.94072 1.47154C3.94968 1.73953 3.82522 1.90059 3.66759 2.10454C3.50271 2.31802 3.31592 2.5597 3.31592 2.923C3.31592 3.11799 3.34051 3.28058 3.39597 3.42544C3.44045 3.35796 3.4888 3.29042 3.54102 3.22282C3.77337 2.923 4.05661 2.6571 4.32975 2.40055Z" fill="black"/>
<path d="M7.17228 4.80712C6.99483 4.91958 6.81013 5.01946 6.61476 5.12562C5.99243 5.4628 5.4048 5.78207 5.21896 6.41107L5.20752 6.44919C5.48194 6.57462 5.7801 6.63962 6.08183 6.6398C6.64717 6.6398 7.17686 6.42765 7.57313 6.04206C7.77117 5.85003 7.92836 5.61995 8.03524 5.36564C8.14212 5.11133 8.19648 4.83804 8.19508 4.56219C8.19365 4.36059 8.15761 4.16072 8.08853 3.97131C7.87219 4.27971 7.57122 4.55419 7.17228 4.80712Z" fill="black"/>
<path d="M5.99807 7.0973H5.51317C5.49554 7.09731 5.47846 7.10343 5.46484 7.11462C5.45122 7.12581 5.44189 7.14138 5.43845 7.15867L4.95508 9.59843C4.95288 9.60948 4.95316 9.62088 4.9559 9.63181C4.95863 9.64274 4.96376 9.65293 4.9709 9.66164C4.97805 9.67035 4.98703 9.67737 4.99722 9.6822C5.0074 9.68702 5.01853 9.68953 5.02979 9.68954H6.48335C6.49462 9.68953 6.50575 9.68702 6.51593 9.6822C6.52611 9.67737 6.5351 9.67035 6.54225 9.66164C6.54939 9.65293 6.55452 9.64274 6.55725 9.63181C6.55999 9.62088 6.56027 9.60948 6.55807 9.59843L6.07374 7.15867C6.07027 7.14122 6.06081 7.12553 6.04699 7.11432C6.03317 7.10311 6.01587 7.09709 5.99807 7.0973Z" fill="black"/>
<path d="M7.08361 6.98903L6.86708 7.20556C6.8546 7.21802 6.84684 7.23443 6.8451 7.25198C6.84336 7.26953 6.84776 7.28714 6.85755 7.30181L7.99108 9.00221C7.99734 9.01161 8.0056 9.0195 8.01528 9.02531C8.02496 9.03113 8.0358 9.03472 8.04704 9.03583C8.05827 9.03694 8.06961 9.03555 8.08024 9.03174C8.09087 9.02794 8.10052 9.02182 8.1085 9.01384L8.89189 8.23045C8.89987 8.22247 8.90599 8.21282 8.9098 8.20219C8.9136 8.19156 8.915 8.18022 8.91388 8.16899C8.91277 8.15775 8.90918 8.1469 8.90336 8.13723C8.89755 8.12755 8.88966 8.11929 8.88026 8.11303L7.17987 6.9795C7.1652 6.96971 7.14758 6.96531 7.13003 6.96705C7.11248 6.96878 7.09608 6.97655 7.08361 6.98903Z" fill="black"/>
<path d="M8.27155 6.63977C8.25133 6.63977 8.23194 6.6478 8.21764 6.6621C8.20335 6.6764 8.19531 6.69579 8.19531 6.71601V6.88012C8.19529 6.89818 8.20168 6.91566 8.21334 6.92944C8.22499 6.94323 8.24117 6.95243 8.25897 6.95541L9.93631 7.23484C9.94722 7.23667 9.95841 7.2361 9.96908 7.23316C9.97975 7.23023 9.98966 7.22501 9.99811 7.21787C10.0066 7.21072 10.0134 7.20182 10.018 7.19178C10.0227 7.18174 10.0251 7.17081 10.0251 7.15974V6.71601C10.0251 6.69579 10.0171 6.6764 10.0028 6.6621C9.9885 6.6478 9.96911 6.63977 9.94889 6.63977H8.27155Z" fill="black"/>
<path d="M4.42732 6.98903L4.64385 7.20556C4.65633 7.21802 4.6641 7.23443 4.66584 7.25198C4.66757 7.26953 4.66317 7.28714 4.65338 7.30181L3.51985 9.00221C3.51359 9.01161 3.50533 9.0195 3.49565 9.02531C3.48598 9.03113 3.47513 9.03472 3.4639 9.03583C3.45266 9.03694 3.44132 9.03555 3.43069 9.03174C3.42006 9.02794 3.41041 9.02182 3.40244 9.01384L2.61905 8.23045C2.61106 8.22247 2.60494 8.21282 2.60114 8.20219C2.59733 8.19156 2.59594 8.18022 2.59705 8.16899C2.59816 8.15775 2.60176 8.1469 2.60757 8.13723C2.61339 8.12755 2.62128 8.11929 2.63067 8.11303L4.33107 6.9795C4.34574 6.96971 4.36335 6.96531 4.3809 6.96705C4.39845 6.96878 4.41486 6.97655 4.42732 6.98903Z" fill="black"/>
<path d="M3.23941 6.63977H1.56208C1.54186 6.63977 1.52247 6.6478 1.50817 6.6621C1.49387 6.6764 1.48584 6.69579 1.48584 6.71601V7.15974C1.48585 7.17081 1.48828 7.18174 1.49294 7.19178C1.49761 7.20182 1.5044 7.21072 1.51286 7.21787C1.52131 7.22501 1.53122 7.23023 1.54189 7.23316C1.55256 7.2361 1.56375 7.23667 1.57466 7.23484L3.25199 6.95541C3.2698 6.95243 3.28597 6.94323 3.29763 6.92944C3.30929 6.91566 3.31568 6.89818 3.31566 6.88012V6.71601C3.31566 6.69579 3.30762 6.6764 3.29333 6.6621C3.27903 6.6478 3.25963 6.63977 3.23941 6.63977Z" fill="black"/>
</g>
<defs>
<clipPath id="clip0_201_9337">
<rect width="9.75902" height="9.75902" fill="white" transform="translate(0.875977 0.235474)"/>
</clipPath>
</defs>
</svg>
