<svg width="10" height="10" viewBox="0 0 10 10" fill="none" xmlns="http://www.w3.org/2000/svg">
<g clip-path="url(#clip0_201_9370)">
<path d="M2.59131 1.76028V1.45531C2.59201 1.21288 2.68863 0.98058 2.86006 0.809153C3.03148 0.637727 3.26378 0.541109 3.50622 0.540405H7.77579C8.01822 0.541109 8.25052 0.637727 8.42195 0.809153C8.59337 0.98058 8.68999 1.21288 8.6907 1.45531V8.46961L7.16585 7.24973" stroke="black" stroke-width="0.609939" stroke-linejoin="round"/>
<path d="M6.2506 2.06531H2.286C2.04357 2.06601 1.81127 2.16263 1.63984 2.33406C1.46842 2.50548 1.3718 2.73778 1.37109 2.98022V9.68954L4.2683 7.24979L7.16551 9.68954V2.98022C7.16481 2.73778 7.06819 2.50548 6.89676 2.33406C6.72534 2.16263 6.49304 2.06601 6.2506 2.06531V2.06531Z" stroke="black" stroke-width="0.609939" stroke-linejoin="round"/>
</g>
<defs>
<clipPath id="clip0_201_9370">
<rect width="9.75902" height="9.75902" fill="white" transform="translate(0.151367 0.235474)"/>
</clipPath>
</defs>
</svg>
