<svg width="11" height="10" viewBox="0 0 11 10" fill="none" xmlns="http://www.w3.org/2000/svg">
<g clip-path="url(#clip0_201_9355)">
<path d="M5.57426 3.28514C5.87923 2.08127 7.03106 1.46657 9.53886 1.45532C9.57896 1.45517 9.61868 1.46296 9.65575 1.47823C9.69282 1.4935 9.7265 1.51596 9.75485 1.54431C9.7832 1.57266 9.80565 1.60634 9.82093 1.64341C9.8362 1.68048 9.84398 1.7202 9.84383 1.76029V7.24974C9.84383 7.33063 9.8117 7.4082 9.75451 7.46539C9.69732 7.52258 9.61975 7.55471 9.53886 7.55471C7.09911 7.55471 6.15656 8.04667 5.57426 8.77459C4.99539 8.05029 4.04941 7.55471 1.60966 7.55471C1.42134 7.55471 1.30469 7.40128 1.30469 7.21296V1.76029C1.30454 1.7202 1.31232 1.68048 1.3276 1.64341C1.34287 1.60634 1.36533 1.57266 1.39368 1.54431C1.42203 1.51596 1.4557 1.4935 1.49277 1.47823C1.52984 1.46296 1.56957 1.45517 1.60966 1.45532C4.11746 1.46657 5.26929 2.08127 5.57426 3.28514Z" stroke="black" stroke-width="0.609939" stroke-linecap="round" stroke-linejoin="round"/>
<path d="M5.57422 3.28516V8.77461" stroke="black" stroke-width="0.609939" stroke-linecap="round" stroke-linejoin="round"/>
</g>
<defs>
<clipPath id="clip0_201_9355">
<rect width="9.75902" height="9.75902" fill="white" transform="translate(0.694824 0.235474)"/>
</clipPath>
</defs>
</svg>
