<svg width="11" height="10" viewBox="0 0 11 10" fill="none" xmlns="http://www.w3.org/2000/svg">
<g clip-path="url(#clip0_201_9361)">
<path d="M4.36869 1.6459C3.68003 1.3171 2.71747 1.15604 1.42879 1.15032C1.30725 1.14867 1.1881 1.18411 1.08722 1.25192C1.00442 1.30788 0.93664 1.38334 0.889843 1.47165C0.843047 1.55996 0.818667 1.65841 0.818849 1.75836V7.21159C0.818849 7.58022 1.08112 7.85832 1.42879 7.85832C2.78342 7.85832 4.14225 7.98488 4.95614 8.75416C4.96727 8.76474 4.98127 8.7718 4.99638 8.77449C5.0115 8.77717 5.02707 8.77536 5.04117 8.76926C5.05526 8.76317 5.06725 8.75307 5.07565 8.74022C5.08405 8.72737 5.08849 8.71234 5.08842 8.69698V2.27147C5.08845 2.22812 5.07918 2.18526 5.06123 2.1458C5.04327 2.10634 5.01706 2.0712 4.98435 2.04274C4.79792 1.88336 4.59083 1.74988 4.36869 1.6459Z" fill="black"/>
<path d="M9.69944 1.25136C9.59851 1.18372 9.47936 1.14848 9.35787 1.15034C8.06919 1.15606 7.10663 1.31636 6.41797 1.64591C6.19584 1.7497 5.9887 1.88293 5.80212 2.04199C5.76949 2.0705 5.74334 2.10566 5.72542 2.14511C5.7075 2.18456 5.69823 2.22739 5.69824 2.27072V8.69661C5.69823 8.71137 5.70258 8.7258 5.71074 8.73809C5.7189 8.75038 5.73051 8.75999 5.7441 8.76571C5.7577 8.77143 5.77269 8.77301 5.78718 8.77024C5.80167 8.76748 5.81503 8.7605 5.82557 8.75017C6.31485 8.26413 7.17353 7.85776 9.35864 7.85795C9.5204 7.85795 9.67554 7.79369 9.78993 7.6793C9.90431 7.56492 9.96858 7.40978 9.96858 7.24801V1.75856C9.9688 1.65842 9.94436 1.55977 9.89742 1.47131C9.85049 1.38285 9.78249 1.30731 9.69944 1.25136Z" fill="black"/>
</g>
<defs>
<clipPath id="clip0_201_9361">
<rect width="9.75902" height="9.75902" fill="white" transform="translate(0.513672 0.235474)"/>
</clipPath>
</defs>
</svg>
