<svg width="11" height="10" viewBox="0 0 11 10" fill="none" xmlns="http://www.w3.org/2000/svg">
<g clip-path="url(#clip0_201_9384)">
<path d="M8.68772 2.09599C8.29196 1.69632 7.82114 1.37879 7.30229 1.16163C6.78345 0.944467 6.22681 0.831964 5.66436 0.830579C5.1019 0.829195 4.54472 0.938957 4.02481 1.15356C3.5049 1.36816 3.03252 1.68338 2.63481 2.08109C2.23709 2.47881 1.92187 2.95119 1.70727 3.4711C1.49267 3.99101 1.38291 4.54819 1.38429 5.11065C1.38567 5.6731 1.49818 6.22974 1.71534 6.74858C1.9325 7.26743 2.25003 7.73825 2.6497 8.13401C3.04546 8.53368 3.51628 8.85121 4.03513 9.06837C4.55397 9.28553 5.11061 9.39803 5.67306 9.39942C6.23552 9.4008 6.7927 9.29104 7.31261 9.07644C7.83252 8.86183 8.3049 8.54662 8.70261 8.1489C9.10033 7.75119 9.41554 7.27881 9.63015 6.7589C9.84475 6.23899 9.95451 5.68181 9.95313 5.11935C9.95175 4.5569 9.83924 4.00026 9.62208 3.48141C9.40492 2.96257 9.08739 2.49175 8.68772 2.09599ZM6.24053 4.61942C6.13497 4.61942 6.03179 4.58812 5.94402 4.52948C5.85626 4.47084 5.78785 4.38748 5.74746 4.28996C5.70706 4.19244 5.69649 4.08514 5.71709 3.98161C5.73768 3.87808 5.78851 3.78299 5.86315 3.70835C5.93779 3.63371 6.03288 3.58288 6.13641 3.56229C6.23994 3.54169 6.34724 3.55226 6.44476 3.59266C6.54228 3.63305 6.62564 3.70146 6.68428 3.78922C6.74292 3.87699 6.77422 3.98017 6.77422 4.08573C6.77422 4.22727 6.718 4.36302 6.61791 4.46311C6.51782 4.56319 6.38207 4.61942 6.24053 4.61942ZM6.39301 3.17082C6.28746 3.17082 6.18427 3.13952 6.09651 3.08087C6.00874 3.02223 5.94034 2.93888 5.89994 2.84136C5.85955 2.74384 5.84898 2.63653 5.86957 2.533C5.89016 2.42948 5.94099 2.33438 6.01563 2.25974C6.09027 2.1851 6.18537 2.13427 6.28889 2.11368C6.39242 2.09309 6.49973 2.10366 6.59725 2.14405C6.69477 2.18445 6.77812 2.25285 6.83676 2.34062C6.89541 2.42838 6.92671 2.53157 6.92671 2.63712C6.92671 2.77867 6.87048 2.91442 6.77039 3.0145C6.6703 3.11459 6.53456 3.17082 6.39301 3.17082ZM7.68913 4.00948C7.58358 4.00948 7.48039 3.97818 7.39263 3.91954C7.30486 3.8609 7.23645 3.77755 7.19606 3.68003C7.15567 3.5825 7.1451 3.4752 7.16569 3.37167C7.18628 3.26814 7.23711 3.17305 7.31175 3.09841C7.38639 3.02377 7.48149 2.97294 7.58501 2.95235C7.68854 2.93175 7.79585 2.94232 7.89337 2.98272C7.99089 3.02311 8.07424 3.09152 8.13288 3.17928C8.19153 3.26705 8.22283 3.37023 8.22283 3.47579C8.22283 3.61733 8.1666 3.75308 8.06651 3.85317C7.96642 3.95326 7.83068 4.00948 7.68913 4.00948Z" fill="black"/>
</g>
<defs>
<clipPath id="clip0_201_9384">
<rect width="9.75902" height="9.75902" fill="white" transform="translate(0.789062 0.235474)"/>
</clipPath>
</defs>
</svg>
