<svg width="10" height="10" viewBox="0 0 10 10" fill="none" xmlns="http://www.w3.org/2000/svg">
<g clip-path="url(#clip0_201_9386)">
<path d="M8.09738 2.09599C7.70163 1.69632 7.23081 1.37879 6.71196 1.16163C6.19312 0.944467 5.63648 0.831964 5.07402 0.830579C4.51157 0.829195 3.95438 0.938957 3.43448 1.15356C2.91457 1.36816 2.44219 1.68338 2.04447 2.08109C1.64676 2.47881 1.33154 2.95119 1.11694 3.4711C0.902336 3.99101 0.792574 4.54819 0.793958 5.11065C0.795343 5.6731 0.907846 6.22974 1.12501 6.74858C1.34217 7.26743 1.6597 7.73825 2.05937 8.13401C2.45513 8.53368 2.92595 8.85121 3.44479 9.06837C3.96364 9.28553 4.52028 9.39803 5.08273 9.39942C5.64518 9.4008 6.20237 9.29104 6.72228 9.07644C7.24218 8.86183 7.71456 8.54662 8.11228 8.1489C8.51 7.75119 8.82521 7.27881 9.03982 6.7589C9.25442 6.23899 9.36418 5.68181 9.3628 5.11935C9.36141 4.5569 9.24891 4.00026 9.03175 3.48141C8.81459 2.96257 8.49705 2.49175 8.09738 2.09599ZM5.68832 4.50506C5.59784 4.50506 5.5094 4.47823 5.43417 4.42797C5.35894 4.3777 5.30031 4.30625 5.26568 4.22267C5.23106 4.13908 5.222 4.0471 5.23965 3.95836C5.2573 3.86962 5.30087 3.78811 5.36485 3.72414C5.42882 3.66016 5.51033 3.61659 5.59907 3.59894C5.68781 3.58129 5.77979 3.59035 5.86338 3.62497C5.94697 3.6596 6.01841 3.71823 6.06868 3.79346C6.11894 3.86869 6.14577 3.95713 6.14577 4.04761C6.14577 4.16893 6.09757 4.28529 6.01179 4.37107C5.926 4.45686 5.80964 4.50506 5.68832 4.50506ZM5.8408 3.1327C5.75033 3.1327 5.66188 3.10587 5.58665 3.0556C5.51143 3.00534 5.45279 2.93389 5.41817 2.8503C5.38355 2.76672 5.37449 2.67474 5.39214 2.586C5.40979 2.49726 5.45336 2.41575 5.51733 2.35177C5.58131 2.2878 5.66282 2.24423 5.75156 2.22658C5.84029 2.20893 5.93227 2.21799 6.01586 2.25261C6.09945 2.28723 6.17089 2.34587 6.22116 2.4211C6.27143 2.49632 6.29826 2.58477 6.29826 2.67524C6.29826 2.79657 6.25006 2.91292 6.16427 2.99871C6.07848 3.0845 5.96213 3.1327 5.8408 3.1327ZM7.06068 3.89512C6.9702 3.89512 6.88176 3.86829 6.80653 3.81803C6.7313 3.76776 6.67267 3.69632 6.63805 3.61273C6.60342 3.52914 6.59436 3.43716 6.61201 3.34842C6.62967 3.25968 6.67323 3.17817 6.73721 3.1142C6.80119 3.05022 6.8827 3.00665 6.97143 2.989C7.06017 2.97135 7.15215 2.98041 7.23574 3.01503C7.31933 3.04966 7.39077 3.10829 7.44104 3.18352C7.4913 3.25875 7.51813 3.34719 7.51813 3.43767C7.51813 3.55899 7.46994 3.67535 7.38415 3.76114C7.29836 3.84693 7.182 3.89512 7.06068 3.89512Z" fill="black"/>
</g>
<defs>
<clipPath id="clip0_201_9386">
<rect width="9.75902" height="9.75902" fill="white" transform="translate(0.19873 0.235474)"/>
</clipPath>
</defs>
</svg>
