<svg width="11" height="10" viewBox="0 0 11 10" fill="none" xmlns="http://www.w3.org/2000/svg">
<g clip-path="url(#clip0_201_9379)">
<path d="M5.25952 9.0796C7.44911 9.0796 9.22413 7.30458 9.22413 5.11499C9.22413 2.9254 7.44911 1.15039 5.25952 1.15039C3.06993 1.15039 1.29492 2.9254 1.29492 5.11499C1.29492 7.30458 3.06993 9.0796 5.25952 9.0796Z" stroke="black" stroke-width="0.609939" stroke-miterlimit="10"/>
<path d="M5.86908 4.50512C6.12172 4.50512 6.32653 4.30031 6.32653 4.04766C6.32653 3.79502 6.12172 3.59021 5.86908 3.59021C5.61643 3.59021 5.41162 3.79502 5.41162 4.04766C5.41162 4.30031 5.61643 4.50512 5.86908 4.50512Z" fill="black"/>
<path d="M6.02191 3.13268C6.27455 3.13268 6.47936 2.92787 6.47936 2.67523C6.47936 2.42258 6.27455 2.21777 6.02191 2.21777C5.76926 2.21777 5.56445 2.42258 5.56445 2.67523C5.56445 2.92787 5.76926 3.13268 6.02191 3.13268Z" fill="black"/>
<path d="M7.24163 3.89513C7.49428 3.89513 7.69909 3.69032 7.69909 3.43768C7.69909 3.18503 7.49428 2.98022 7.24163 2.98022C6.98899 2.98022 6.78418 3.18503 6.78418 3.43768C6.78418 3.69032 6.98899 3.89513 7.24163 3.89513Z" fill="black"/>
</g>
<defs>
<clipPath id="clip0_201_9379">
<rect width="9.75902" height="9.75902" fill="white" transform="translate(0.379883 0.235474)"/>
</clipPath>
</defs>
</svg>
