<svg width="11" height="10" viewBox="0 0 11 10" fill="none" xmlns="http://www.w3.org/2000/svg">
<g clip-path="url(#clip0_201_9400)">
<path d="M8.76576 1.45532H2.66637C2.16108 1.45532 1.75146 1.86494 1.75146 2.37023V7.85968C1.75146 8.36497 2.16108 8.77459 2.66637 8.77459H8.76576C9.27105 8.77459 9.68067 8.36497 9.68067 7.85968V2.37023C9.68067 1.86494 9.27105 1.45532 8.76576 1.45532Z" stroke="black" stroke-width="0.609939" stroke-linejoin="round"/>
<path d="M8.41924 1.45532H3.01289C2.31737 1.45532 1.75146 2.03 1.75146 2.73619V3.59011H2.05643C2.05643 3.28514 2.3614 2.98017 2.66637 2.98017H8.76576C9.07073 2.98017 9.3757 3.28514 9.3757 3.59011H9.68067V2.73619C9.68067 2.03 9.11476 1.45532 8.41924 1.45532Z" fill="black"/>
</g>
<defs>
<clipPath id="clip0_201_9400">
<rect width="9.75902" height="9.75902" fill="white" transform="translate(0.836426 0.235474)"/>
</clipPath>
</defs>
</svg>
