<svg width="10" height="10" viewBox="0 0 10 10" fill="none" xmlns="http://www.w3.org/2000/svg">
<g clip-path="url(#clip0_201_9403)">
<path d="M0.855469 1.45536V8.77463C0.855469 8.85551 0.887599 8.93308 0.944792 8.99027C1.00199 9.04746 1.07956 9.0796 1.16044 9.0796H9.08964C9.17052 9.0796 9.2481 9.04746 9.30529 8.99027C9.36248 8.93308 9.39461 8.85551 9.39461 8.77463V1.45536C9.39461 1.37448 9.36248 1.29691 9.30529 1.23971C9.2481 1.18252 9.17052 1.15039 9.08964 1.15039H1.16044C1.07956 1.15039 1.00199 1.18252 0.944792 1.23971C0.887599 1.29691 0.855469 1.37448 0.855469 1.45536ZM8.63219 8.39341H1.61789C1.59767 8.39341 1.57828 8.38538 1.56398 8.37108C1.54968 8.35678 1.54165 8.33739 1.54165 8.31717V3.13269C1.54165 3.11247 1.54968 3.09308 1.56398 3.07878C1.57828 3.06448 1.59767 3.05645 1.61789 3.05645H8.63219C8.65241 3.05645 8.6718 3.06448 8.6861 3.07878C8.7004 3.09308 8.70843 3.11247 8.70843 3.13269V8.31717C8.70843 8.33739 8.7004 8.35678 8.6861 8.37108C8.6718 8.38538 8.65241 8.39341 8.63219 8.39341Z" fill="black"/>
</g>
<defs>
<clipPath id="clip0_201_9403">
<rect width="9.75902" height="9.75902" fill="white" transform="translate(0.245605 0.235474)"/>
</clipPath>
</defs>
</svg>
