<svg width="11" height="10" viewBox="0 0 11 10" fill="none" xmlns="http://www.w3.org/2000/svg">
<g clip-path="url(#clip0_201_9405)">
<path d="M8.5844 1.15051H2.48501C2.16148 1.15051 1.8512 1.27904 1.62243 1.50781C1.39366 1.73658 1.26514 2.04686 1.26514 2.37039V7.85984C1.26514 8.18337 1.39366 8.49365 1.62243 8.72242C1.8512 8.95119 2.16148 9.07972 2.48501 9.07972H8.5844C8.90793 9.07972 9.21821 8.95119 9.44699 8.72242C9.67576 8.49365 9.80428 8.18337 9.80428 7.85984V2.37039C9.80428 2.04686 9.67576 1.73658 9.44699 1.50781C9.21821 1.27904 8.90793 1.15051 8.5844 1.15051ZM9.04186 2.98033H2.02756C1.98712 2.98033 1.94833 2.96426 1.91974 2.93567C1.89114 2.90707 1.87508 2.86829 1.87508 2.82784V2.37039C1.87553 2.20876 1.93993 2.05389 2.05422 1.9396C2.16851 1.82531 2.32339 1.7609 2.48501 1.76045H8.5844C8.74603 1.7609 8.90091 1.82531 9.01519 1.9396C9.12948 2.05389 9.19389 2.20876 9.19434 2.37039V2.82784C9.19434 2.86829 9.17828 2.90707 9.14968 2.93567C9.12108 2.96426 9.0823 2.98033 9.04186 2.98033Z" fill="black"/>
</g>
<defs>
<clipPath id="clip0_201_9405">
<rect width="9.75902" height="9.75902" fill="white" transform="translate(0.655273 0.235474)"/>
</clipPath>
</defs>
</svg>
