<svg width="11" height="10" viewBox="0 0 11 10" fill="none" xmlns="http://www.w3.org/2000/svg">
<g clip-path="url(#clip0_201_9413)">
<path d="M5.32711 7.09942C5.29527 7.09955 5.26361 7.0946 5.23333 7.08475C5.17889 7.06713 5.13049 7.03455 5.09369 6.99074C5.05688 6.94692 5.03314 6.89363 5.02519 6.83696C4.98421 6.55105 4.64493 6.21825 4.32719 6.15364C4.27472 6.14279 4.22604 6.1183 4.18604 6.08265C4.14604 6.04701 4.11614 6.00145 4.09935 5.95057C4.08256 5.89969 4.07947 5.84528 4.09039 5.79283C4.10131 5.74037 4.12585 5.69172 4.16156 5.65177L8.18505 1.17063C8.18868 1.16643 8.19249 1.16243 8.1963 1.15862C8.39843 0.95706 8.67223 0.843872 8.95768 0.843872C9.24312 0.843872 9.51693 0.95706 9.71905 1.15862C9.92053 1.36023 10.0339 1.63349 10.0343 1.91851C10.0347 2.20354 9.92207 2.47711 9.72115 2.67927L5.54688 7.00603C5.51841 7.03558 5.48428 7.05908 5.44652 7.07513C5.40875 7.09118 5.36814 7.09944 5.32711 7.09942Z" fill="black"/>
<path d="M3.16864 9.38677C2.55603 9.38677 1.92113 9.06483 1.55135 8.56716C1.51765 8.52179 1.49722 8.46794 1.49235 8.41162C1.48747 8.35531 1.49835 8.29875 1.52375 8.24826C1.54915 8.19776 1.58809 8.15532 1.63622 8.12568C1.68434 8.09603 1.73976 8.08034 1.79628 8.08036C1.89806 8.08036 2.17749 7.98753 2.17749 7.68828C2.17749 6.94358 2.77599 6.33765 3.51173 6.33765C4.24747 6.33765 4.84597 6.94358 4.84597 7.68828C4.84597 8.62454 4.09346 9.38677 3.16864 9.38677Z" fill="black"/>
</g>
<defs>
<clipPath id="clip0_201_9413">
<rect width="9.75902" height="9.75902" fill="white" transform="translate(0.883301 0.235474)"/>
</clipPath>
</defs>
</svg>
