<svg width="11" height="10" viewBox="0 0 11 10" fill="none" xmlns="http://www.w3.org/2000/svg">
<g clip-path="url(#clip0_201_9416)">
<path d="M7.3457 7.44055C7.89636 7.88886 8.22249 8.31867 8.22249 9.07976" stroke="black" stroke-width="0.609939" stroke-linecap="round" stroke-linejoin="round"/>
<path d="M2.99983 7.44055C2.44917 7.88886 2.12305 8.31848 2.12305 9.07976" stroke="black" stroke-width="0.609939" stroke-linecap="round" stroke-linejoin="round"/>
<path d="M7.6123 4.20018C8.16297 3.75187 8.22224 3.13145 8.22224 2.37036" stroke="black" stroke-width="0.609939" stroke-linecap="round" stroke-linejoin="round"/>
<path d="M2.73299 4.16206C2.18233 3.71375 2.12305 3.13164 2.12305 2.37036" stroke="black" stroke-width="0.609939" stroke-linecap="round" stroke-linejoin="round"/>
<path d="M9.13715 5.72754H7.6123" stroke="black" stroke-width="0.609939" stroke-linecap="round" stroke-linejoin="round"/>
<path d="M2.73285 5.72754H1.20801" stroke="black" stroke-width="0.609939" stroke-linecap="round" stroke-linejoin="round"/>
<path d="M5.17236 3.89514V8.77465" stroke="black" stroke-width="0.609939" stroke-linecap="round" stroke-linejoin="round"/>
<path d="M5.17267 8.7748C3.8308 8.7748 2.73291 7.67691 2.73291 6.33504V4.50389C2.73291 3.26362 3.8308 2.67407 5.17267 2.67407C6.51453 2.67407 7.61242 3.16202 7.61242 4.50389V6.33504C7.61242 7.67691 6.51453 8.7748 5.17267 8.7748Z" stroke="black" stroke-width="0.609939" stroke-linecap="round" stroke-linejoin="round"/>
<path d="M3.71333 2.97118C3.67518 2.87552 3.65309 2.77422 3.64795 2.67136C3.64901 2.26833 3.80958 1.88211 4.09456 1.59712C4.37955 1.31214 4.76577 1.15157 5.16879 1.15051H5.1768C5.57983 1.15157 5.96605 1.31214 6.25103 1.59712C6.53602 1.88211 6.69659 2.26833 6.69764 2.67136C6.69396 2.765 6.67383 2.85726 6.63817 2.94392" stroke="black" stroke-width="0.609939" stroke-linecap="round" stroke-linejoin="round"/>
</g>
<defs>
<clipPath id="clip0_201_9416">
<rect width="9.75902" height="9.75902" fill="white" transform="translate(0.292969 0.235474)"/>
</clipPath>
</defs>
</svg>
