<svg width="11" height="10" viewBox="0 0 11 10" fill="none" xmlns="http://www.w3.org/2000/svg">
<g clip-path="url(#clip0_201_9426)">
<path d="M9.85115 6.03239V5.42245H8.32631V4.33733C8.88707 3.80459 8.93625 3.10297 8.93625 2.37028V2.06531H8.32631V2.37028C8.32631 2.90397 8.29085 3.28804 8.13761 3.5871C7.71637 2.67525 6.8838 2.37028 5.58158 2.37028C4.82297 2.37028 4.14842 2.50484 3.66733 2.83383C3.38333 3.02806 3.187 3.30863 3.04405 3.59092C2.87498 3.29605 2.83686 2.9196 2.83686 2.37028V2.06531H2.22692V2.37028C2.22692 3.08391 2.27629 3.76856 2.83686 4.29921V5.42245H1.31201V6.03239L2.83686 6.02991C2.83686 6.39206 2.90738 7.04184 3.0349 7.35824C2.54333 7.79797 2.22692 8.28497 2.22692 9.0796V9.38457H2.83686V9.0796C2.83686 8.55239 3.01031 8.2274 3.33567 7.91081C3.75177 8.77463 4.0758 9.0796 5.27661 9.0796V3.59015H5.88655V9.0796C7.12549 9.0796 7.4114 8.77463 7.82749 7.91081C8.15286 8.2274 8.32631 8.55258 8.32631 9.0796V9.38457H8.93625V9.0796C8.93625 8.28516 8.61984 7.79816 8.12827 7.35824C8.25578 7.04184 8.32631 6.39206 8.32631 6.02991L9.85115 6.03239Z" fill="black"/>
<path d="M5.58177 0.845459C4.66572 0.845459 3.75195 0.845459 3.75195 2.44655C4.24982 2.1797 4.8832 2.06534 5.58177 2.06534C6.04094 2.06534 6.46027 2.11585 6.82814 2.21782C7.03304 2.275 7.29818 2.38384 7.41159 2.44655C7.41159 0.845459 6.49782 0.845459 5.58177 0.845459Z" fill="black"/>
</g>
<defs>
<clipPath id="clip0_201_9426">
<rect width="9.75902" height="9.75902" fill="white" transform="translate(0.702148 0.235474)"/>
</clipPath>
</defs>
</svg>
