<svg width="10" height="10" viewBox="0 0 10 10" fill="none" xmlns="http://www.w3.org/2000/svg">
<g clip-path="url(#clip0_201_9429)">
<path d="M8.94725 5.42245H7.73595V4.50373C7.73595 4.44883 7.73423 4.39502 7.7308 4.34229C8.29442 3.81088 8.34551 3.1104 8.34589 2.37905C8.34589 2.21493 8.21932 2.07408 8.05521 2.06626C8.01406 2.06433 7.97294 2.07076 7.93433 2.08516C7.89573 2.09956 7.86045 2.12163 7.83061 2.15004C7.80077 2.17845 7.777 2.21262 7.76073 2.25047C7.74446 2.28832 7.73603 2.32908 7.73595 2.37028C7.73595 2.90397 7.7005 3.28804 7.54725 3.58711C7.1809 2.80276 6.29344 2.36894 4.99122 2.36894C4.23261 2.36894 3.57712 2.54297 3.09603 2.87195C2.81203 3.06618 2.59664 3.30863 2.45369 3.59092C2.28462 3.29757 2.2465 2.92303 2.2465 2.37905C2.2465 2.21493 2.1207 2.07408 1.95678 2.06569C1.9155 2.06362 1.87423 2.06997 1.83547 2.08434C1.79672 2.09872 1.76129 2.12082 1.73134 2.14931C1.70139 2.17779 1.67755 2.21207 1.66126 2.25006C1.64496 2.28804 1.63656 2.32894 1.63656 2.37028C1.63656 3.08753 1.68631 3.77561 2.25489 4.3074C2.24942 4.3717 2.24663 4.43714 2.2465 4.50373V5.42245H1.0352C0.871087 5.42245 0.730229 5.54863 0.722033 5.71274C0.720045 5.75401 0.726462 5.79525 0.740895 5.83396C0.755329 5.87267 0.777477 5.90805 0.805997 5.93794C0.834517 5.96783 0.868813 5.99162 0.906803 6.00785C0.944794 6.02409 0.985688 6.03244 1.027 6.03239H2.24688V6.33488C2.2466 6.68555 2.31384 7.03299 2.44492 7.35824C1.95563 7.79568 1.63999 8.27906 1.63656 9.06702C1.63656 9.23361 1.76274 9.37771 1.92933 9.38438C1.97038 9.38603 2.01134 9.37936 2.04974 9.36478C2.08815 9.35021 2.12322 9.32802 2.15284 9.29956C2.18246 9.27109 2.20602 9.23694 2.22212 9.19914C2.23821 9.16134 2.24651 9.12069 2.2465 9.0796C2.2465 8.55239 2.41995 8.22741 2.74531 7.91081C3.12051 8.44487 3.67333 8.82819 4.30504 8.99231C4.35011 9.00394 4.39723 9.00511 4.44282 8.99572C4.4884 8.98633 4.53123 8.96663 4.56802 8.93813C4.60482 8.90963 4.6346 8.87309 4.6551 8.83131C4.67559 8.78952 4.68625 8.7436 4.68625 8.69706V3.9037C4.68625 3.73959 4.81244 3.59873 4.97655 3.59054C5.01778 3.58855 5.05899 3.59496 5.09768 3.60937C5.13636 3.62378 5.17172 3.64589 5.20161 3.67437C5.23149 3.70285 5.25529 3.7371 5.27154 3.77504C5.2878 3.81299 5.29619 3.85384 5.29619 3.89512V8.69706C5.2962 8.7436 5.30686 8.78952 5.32735 8.83131C5.34784 8.87309 5.37763 8.90963 5.41442 8.93813C5.45122 8.96663 5.49405 8.98633 5.53963 8.99572C5.58521 9.00511 5.63234 9.00394 5.6774 8.99231C6.30903 8.8281 6.86176 8.4448 7.23694 7.91081C7.56097 8.22607 7.73423 8.54972 7.73576 9.07255C7.73507 9.15141 7.76445 9.22756 7.81791 9.28552C7.87138 9.34349 7.94492 9.37891 8.02357 9.38457C8.06506 9.38694 8.10659 9.3808 8.14561 9.36653C8.18464 9.35227 8.22034 9.33018 8.25052 9.30162C8.2807 9.27306 8.30473 9.23864 8.32113 9.20046C8.33753 9.16228 8.34595 9.12116 8.34589 9.0796C8.34589 8.28516 8.02948 7.79816 7.53791 7.35824C7.66899 7.03299 7.73623 6.68555 7.73595 6.33488V6.03239H8.95583C8.99714 6.03244 9.03803 6.02409 9.07603 6.00785C9.11402 5.99162 9.14831 5.96783 9.17683 5.93794C9.20535 5.90805 9.2275 5.87267 9.24193 5.83396C9.25637 5.79525 9.26278 5.75401 9.26079 5.71274C9.25279 5.54863 9.11136 5.42245 8.94725 5.42245Z" fill="black"/>
<path d="M6.2376 2.21782L6.2437 2.21954C6.50235 2.29197 6.72155 2.01845 6.5906 1.784C6.43234 1.49967 6.20103 1.26276 5.92055 1.09776C5.64008 0.932765 5.32063 0.845662 4.99523 0.845459H4.98722C4.65853 0.845682 4.33599 0.934556 4.05358 1.10272C3.77116 1.27088 3.53933 1.5121 3.38251 1.80097C3.25214 2.04075 3.48048 2.3156 3.74161 2.23669C4.1173 2.12233 4.53816 2.064 4.99123 2.064C5.4504 2.064 5.86973 2.11585 6.2376 2.21782Z" fill="black"/>
</g>
<defs>
<clipPath id="clip0_201_9429">
<rect width="9.75902" height="9.75902" fill="white" transform="translate(0.111816 0.235474)"/>
</clipPath>
</defs>
</svg>
