<svg width="11" height="10" viewBox="0 0 11 10" fill="none" xmlns="http://www.w3.org/2000/svg">
<g clip-path="url(#clip0_201_9432)">
<path d="M8.02868 3.85715C7.91405 3.97104 7.75902 4.03497 7.59743 4.03497C7.43584 4.03497 7.28081 3.97104 7.16618 3.85715L6.65974 3.35071C6.54575 3.2361 6.48176 3.08102 6.48176 2.91937C6.48176 2.75772 6.54575 2.60264 6.65974 2.48803L7.80605 1.34115C7.80832 1.33897 7.81001 1.33626 7.81097 1.33327C7.81194 1.33027 7.81215 1.32708 7.81158 1.32399C7.81102 1.32089 7.80969 1.31799 7.80773 1.31553C7.80577 1.31307 7.80322 1.31113 7.80033 1.30989C7.0604 0.992726 6.10108 1.15436 5.4919 1.75915C4.90903 2.33764 4.87587 3.20776 5.08934 3.96713C5.11967 4.07507 5.1196 4.18929 5.08913 4.29719C5.05865 4.40509 4.99897 4.50247 4.91665 4.57859L1.74116 7.47866C1.64747 7.56173 1.57176 7.66308 1.51869 7.77649C1.46562 7.8899 1.4363 8.01296 1.43254 8.13812C1.42879 8.26327 1.45067 8.38787 1.49684 8.50426C1.54302 8.62065 1.61251 8.72636 1.70105 8.8149C1.78959 8.90343 1.8953 8.97293 2.01168 9.0191C2.12807 9.06528 2.25267 9.08716 2.37783 9.0834C2.50298 9.07964 2.62605 9.05033 2.73945 8.99725C2.85286 8.94418 2.95421 8.86847 3.03728 8.77478L5.96994 5.59167C6.0451 5.51074 6.14086 5.45179 6.24697 5.42113C6.35307 5.39047 6.46552 5.38927 6.57226 5.41764C7.32591 5.61949 8.18364 5.58156 8.75889 5.01375C9.37817 4.40381 9.51178 3.32574 9.21158 2.70875C9.21022 2.70605 9.20825 2.70372 9.20582 2.70193C9.20339 2.70015 9.20057 2.69896 9.19759 2.69848C9.19462 2.698 9.19157 2.69823 9.1887 2.69915C9.18583 2.70007 9.18321 2.70167 9.18108 2.7038L8.02868 3.85715Z" stroke="black" stroke-width="0.609939" stroke-miterlimit="10" stroke-linecap="round"/>
<path d="M2.35087 8.46968C2.5193 8.46968 2.65584 8.33314 2.65584 8.16471C2.65584 7.99628 2.5193 7.85974 2.35087 7.85974C2.18244 7.85974 2.0459 7.99628 2.0459 8.16471C2.0459 8.33314 2.18244 8.46968 2.35087 8.46968Z" fill="black"/>
</g>
<defs>
<clipPath id="clip0_201_9432">
<rect width="9.75902" height="9.75902" fill="white" transform="translate(0.520996 0.235474)"/>
</clipPath>
</defs>
</svg>
