<svg width="11" height="10" viewBox="0 0 11 10" fill="none" xmlns="http://www.w3.org/2000/svg">
<g clip-path="url(#clip0_201_9449)">
<path d="M6.05756 9.07971H4.83768C4.7568 9.07971 4.67923 9.11184 4.62204 9.16904C4.56485 9.22623 4.53271 9.3038 4.53271 9.38468C4.53271 9.46556 4.56485 9.54313 4.62204 9.60033C4.67923 9.65752 4.7568 9.68965 4.83768 9.68965H6.05756C6.13844 9.68965 6.21602 9.65752 6.27321 9.60033C6.3304 9.54313 6.36253 9.46556 6.36253 9.38468C6.36253 9.3038 6.3304 9.22623 6.27321 9.16904C6.21602 9.11184 6.13844 9.07971 6.05756 9.07971Z" fill="black"/>
<path d="M6.36281 8.16479H4.533C4.45211 8.16479 4.37454 8.19693 4.31735 8.25412C4.26016 8.31131 4.22803 8.38888 4.22803 8.46976C4.22803 8.55065 4.26016 8.62822 4.31735 8.68541C4.37454 8.7426 4.45211 8.77473 4.533 8.77473H6.36281C6.4437 8.77473 6.52127 8.7426 6.57846 8.68541C6.63565 8.62822 6.66778 8.55065 6.66778 8.46976C6.66778 8.38888 6.63565 8.31131 6.57846 8.25412C6.52127 8.19693 6.4437 8.16479 6.36281 8.16479Z" fill="black"/>
<path d="M7.6095 1.43047C7.03635 0.856561 6.26859 0.540536 5.44765 0.540536C5.04689 0.539581 4.64989 0.617811 4.27946 0.770735C3.90902 0.923658 3.57244 1.14826 3.28906 1.43164C3.00568 1.71502 2.78108 2.0516 2.62816 2.42203C2.47523 2.79247 2.397 3.18947 2.39796 3.59023C2.39796 4.47884 2.73857 5.31007 3.33193 5.87064L3.41503 5.9486C3.75831 6.26958 4.22777 6.70931 4.22777 7.09738V7.55483C4.22777 7.63572 4.2599 7.71329 4.3171 7.77048C4.37429 7.82767 4.45186 7.8598 4.53274 7.8598H4.9902C5.03064 7.8598 5.06942 7.84374 5.09802 7.81514C5.12662 7.78654 5.14268 7.74776 5.14268 7.70732V5.4738C5.14269 5.44296 5.13335 5.41285 5.1159 5.38743C5.09844 5.36201 5.07369 5.34248 5.0449 5.33142C4.8688 5.25957 4.7015 5.1678 4.54628 5.0579C4.51139 5.03562 4.48141 5.00648 4.45815 4.97224C4.43489 4.93801 4.41885 4.8994 4.41099 4.85876C4.40313 4.81813 4.40363 4.77632 4.41245 4.73588C4.42127 4.69544 4.43822 4.65722 4.46229 4.62355C4.48635 4.58988 4.51702 4.56145 4.55242 4.54001C4.58782 4.51857 4.62721 4.50456 4.6682 4.49883C4.70919 4.4931 4.75092 4.49578 4.79084 4.50669C4.83077 4.51761 4.86805 4.53653 4.90042 4.56232C5.04147 4.6622 5.31308 4.81011 5.44765 4.81011C5.58222 4.81011 5.85383 4.66182 5.99526 4.56232C6.06112 4.52092 6.1403 4.50625 6.21661 4.5213C6.29292 4.53636 6.3606 4.58001 6.40579 4.64332C6.45099 4.70663 6.47028 4.78481 6.45973 4.86188C6.44918 4.93894 6.40958 5.00907 6.34903 5.0579C6.19377 5.1676 6.02648 5.25918 5.8504 5.33084C5.82162 5.34191 5.79686 5.36144 5.77941 5.38686C5.76195 5.41227 5.75261 5.44239 5.75262 5.47323V7.70732C5.75262 7.74776 5.76869 7.78654 5.79728 7.81514C5.82588 7.84374 5.86466 7.8598 5.90511 7.8598H6.36256C6.44344 7.8598 6.52101 7.82767 6.57821 7.77048C6.6354 7.71329 6.66753 7.63572 6.66753 7.55483V7.09738C6.66753 6.71845 7.13185 6.27911 7.47093 5.95813L7.56452 5.86931C8.17484 5.28662 8.49735 4.4977 8.49735 3.59023C8.49936 3.18943 8.42194 2.79221 8.26955 2.42151C8.11716 2.0508 7.89283 1.71397 7.6095 1.43047Z" fill="black"/>
</g>
<defs>
<clipPath id="clip0_201_9449">
<rect width="9.75902" height="9.75902" fill="white" transform="translate(0.568359 0.235474)"/>
</clipPath>
</defs>
</svg>
