<svg width="11" height="10" viewBox="0 0 11 10" fill="none" xmlns="http://www.w3.org/2000/svg">
<g clip-path="url(#clip0_201_9439)">
<path d="M6.54392 7.5548V7.09734C6.54392 6.54459 7.14509 6.02175 7.53507 5.64874C8.08478 5.12324 8.37374 4.41723 8.37374 3.59019C8.37374 2.06535 7.15901 0.84547 5.62901 0.84547C5.26829 0.844463 4.91092 0.914771 4.57746 1.05235C4.244 1.18993 3.94103 1.39207 3.68596 1.64714C3.43088 1.90221 3.22875 2.20518 3.09117 2.53864C2.95359 2.8721 2.88328 3.22947 2.88429 3.59019C2.88429 4.38769 3.18564 5.14154 3.72295 5.64874C4.11084 6.01489 4.7141 6.53887 4.7141 7.09734V7.5548" stroke="black" stroke-width="0.609939" stroke-linecap="round" stroke-linejoin="round"/>
<path d="M5.01904 9.38464H6.23892" stroke="black" stroke-width="0.609939" stroke-linecap="round" stroke-linejoin="round"/>
<path d="M4.71387 8.46973H6.54368" stroke="black" stroke-width="0.609939" stroke-linecap="round" stroke-linejoin="round"/>
<path d="M5.62891 7.55487V5.11511" stroke="black" stroke-width="0.609939" stroke-linecap="round" stroke-linejoin="round"/>
<path d="M6.35339 4.81018C6.35339 4.81018 5.9434 5.11515 5.62909 5.11515C5.31478 5.11515 4.90479 4.81018 4.90479 4.81018" stroke="black" stroke-width="0.609939" stroke-linecap="round" stroke-linejoin="round"/>
</g>
<defs>
<clipPath id="clip0_201_9439">
<rect width="9.75902" height="9.75902" fill="white" transform="translate(0.749512 0.235474)"/>
</clipPath>
</defs>
</svg>
