<svg width="10" height="10" viewBox="0 0 10 10" fill="none" xmlns="http://www.w3.org/2000/svg">
<g clip-path="url(#clip0_201_9445)">
<path d="M5.95286 9.07971H4.12305V9.68965H5.95286V9.07971Z" fill="black"/>
<path d="M6.25811 8.16479H3.81836V8.77473H6.25811V8.16479Z" fill="black"/>
<path d="M7.19984 1.43047C6.62668 0.856561 5.85892 0.540536 5.03798 0.540536C4.63722 0.539581 4.24022 0.617811 3.86979 0.770735C3.49935 0.923658 3.16278 1.14826 2.87939 1.43164C2.59601 1.71502 2.37141 2.0516 2.21849 2.42203C2.06557 2.79247 1.98733 3.18947 1.98829 3.59023C1.98829 4.47884 2.3289 5.31007 2.92226 5.87064L3.00536 5.9486C3.34864 6.26958 3.81811 6.70931 3.81811 7.09738V7.8598H4.73301V5.36496L3.88901 4.88635L4.23744 4.38544L5.03798 4.81011L5.825 4.38334L6.18905 4.87282L5.34295 5.36839V7.8598H6.25786V7.09738C6.25786 6.71845 6.72218 6.27911 7.06126 5.95813L7.15485 5.86931C7.76517 5.28662 8.08768 4.4977 8.08768 3.59023C8.0897 3.18943 8.01228 2.79221 7.85989 2.42151C7.7075 2.0508 7.48316 1.71397 7.19984 1.43047Z" fill="black"/>
</g>
<defs>
<clipPath id="clip0_201_9445">
<rect width="9.75902" height="9.75902" fill="white" transform="translate(0.158691 0.235474)"/>
</clipPath>
</defs>
</svg>
