<svg width="11" height="10" viewBox="0 0 11 10" fill="none" xmlns="http://www.w3.org/2000/svg">
<g clip-path="url(#clip0_201_9453)">
<path d="M8.60183 2.37036H3.11238C2.77552 2.37036 2.50244 2.64344 2.50244 2.9803V5.42006C2.50244 5.75692 2.77552 6.02999 3.11238 6.02999H8.60183C8.93869 6.02999 9.21177 5.75692 9.21177 5.42006V2.9803C9.21177 2.64344 8.93869 2.37036 8.60183 2.37036Z" stroke="black" stroke-width="0.609939" stroke-linecap="round" stroke-linejoin="round"/>
<path d="M8.60183 6.02991H3.11238C2.77552 6.02991 2.50244 6.30299 2.50244 6.63985V7.85972C2.50244 8.19658 2.77552 8.46966 3.11238 8.46966H8.60183C8.93869 8.46966 9.21177 8.19658 9.21177 7.85972V6.63985C9.21177 6.30299 8.93869 6.02991 8.60183 6.02991Z" stroke="black" stroke-width="0.609939" stroke-linecap="round" stroke-linejoin="round"/>
<path d="M8.60183 2.37039H3.11238C2.95075 2.36994 2.79588 2.30553 2.68159 2.19124C2.5673 2.07696 2.50289 1.92208 2.50244 1.76045V1.76045C2.50289 1.59882 2.5673 1.44395 2.68159 1.32966C2.79588 1.21537 2.95075 1.15097 3.11238 1.15051H8.60183C8.76346 1.15097 8.91833 1.21537 9.03262 1.32966C9.14691 1.44395 9.21131 1.59882 9.21177 1.76045V1.76045C9.21131 1.92208 9.14691 2.07696 9.03262 2.19124C8.91833 2.30553 8.76346 2.36994 8.60183 2.37039V2.37039Z" stroke="black" stroke-width="0.609939" stroke-linecap="round" stroke-linejoin="round"/>
<path d="M3.72204 8.46973V8.88906C3.72204 8.93961 3.70196 8.98809 3.66621 9.02384C3.63046 9.05958 3.58198 9.07967 3.53143 9.07967H2.99773C2.94718 9.07967 2.8987 9.05958 2.86296 9.02384C2.82721 8.98809 2.80713 8.93961 2.80713 8.88906V8.46973H3.72204Z" stroke="black" stroke-width="0.609939" stroke-linecap="round" stroke-linejoin="round"/>
<path d="M8.90661 8.46973V8.88906C8.90661 8.93961 8.88653 8.98809 8.85078 9.02384C8.81503 9.05958 8.76655 9.07967 8.716 9.07967H8.18231C8.13175 9.07967 8.08327 9.05958 8.04753 9.02384C8.01178 8.98809 7.9917 8.93961 7.9917 8.88906V8.46973H8.90661Z" stroke="black" stroke-width="0.609939" stroke-linecap="round" stroke-linejoin="round"/>
<path d="M7.99198 7.55489C8.16041 7.55489 8.29695 7.41835 8.29695 7.24992C8.29695 7.08149 8.16041 6.94495 7.99198 6.94495C7.82355 6.94495 7.68701 7.08149 7.68701 7.24992C7.68701 7.41835 7.82355 7.55489 7.99198 7.55489Z" stroke="black" stroke-width="0.609939" stroke-linejoin="round"/>
<path d="M3.72245 7.55489C3.89088 7.55489 4.02742 7.41835 4.02742 7.24992C4.02742 7.08149 3.89088 6.94495 3.72245 6.94495C3.55402 6.94495 3.41748 7.08149 3.41748 7.24992C3.41748 7.41835 3.55402 7.55489 3.72245 7.55489Z" stroke="black" stroke-width="0.609939" stroke-linejoin="round"/>
<path d="M5.85693 2.37036V6.02999" stroke="black" stroke-width="0.609939" stroke-linecap="round" stroke-linejoin="round"/>
<path d="M2.50244 1.76038V7.24983" stroke="black" stroke-width="0.609939" stroke-linecap="round" stroke-linejoin="round"/>
<path d="M9.21191 1.76038V7.24983" stroke="black" stroke-width="0.609939" stroke-linecap="round" stroke-linejoin="round"/>
</g>
<defs>
<clipPath id="clip0_201_9453">
<rect width="9.75902" height="9.75902" fill="white" transform="translate(0.977539 0.235474)"/>
</clipPath>
</defs>
</svg>
