<svg width="11" height="10" viewBox="0 0 11 10" fill="none" xmlns="http://www.w3.org/2000/svg">
<g clip-path="url(#clip0_201_9467)">
<path d="M8.42047 0.845459H2.93102C2.68837 0.845459 2.45566 0.941851 2.28408 1.11343C2.11251 1.28501 2.01611 1.51772 2.01611 1.76037V7.85975C2.0161 7.98838 2.04327 8.11555 2.09582 8.23295C2.14838 8.35034 2.22514 8.45531 2.32108 8.54098V8.88903C2.32108 9.02046 2.37329 9.14651 2.46623 9.23945C2.55917 9.33239 2.68522 9.3846 2.81666 9.3846H3.35035C3.48179 9.3846 3.60784 9.33239 3.70078 9.23945C3.79372 9.14651 3.84593 9.02046 3.84593 8.88903V8.77466H7.50556V8.88903C7.50556 9.02046 7.55778 9.14651 7.65071 9.23945C7.74365 9.33239 7.8697 9.3846 8.00114 9.3846H8.53483C8.66627 9.3846 8.79232 9.33239 8.88526 9.23945C8.9782 9.14651 9.03041 9.02046 9.03041 8.88903V8.54098C9.12635 8.45531 9.20311 8.35034 9.25567 8.23295C9.30822 8.11555 9.33539 7.98838 9.33538 7.85975V1.76037C9.33538 1.51772 9.23899 1.28501 9.06741 1.11343C8.89583 0.941851 8.66312 0.845459 8.42047 0.845459ZM3.6071 7.85632C3.48157 7.86999 3.35489 7.84435 3.24455 7.78296C3.13421 7.72156 3.04564 7.62744 2.99107 7.51356C2.9365 7.39969 2.91862 7.27169 2.93989 7.14723C2.96116 7.02276 3.02053 6.90796 3.10982 6.81867C3.19911 6.72939 3.3139 6.67001 3.43837 6.64874C3.56284 6.62747 3.69084 6.64536 3.80471 6.69993C3.91858 6.7545 4.01271 6.84307 4.0741 6.95341C4.13549 7.06375 4.16113 7.19043 4.14747 7.31596C4.13243 7.45411 4.07067 7.58299 3.9724 7.68126C3.87413 7.77952 3.74526 7.84129 3.6071 7.85632ZM5.29453 5.72497H2.93102C2.85014 5.72497 2.77257 5.69284 2.71538 5.63565C2.65818 5.57845 2.62605 5.50088 2.62605 5.42V2.98024C2.62605 2.89936 2.65818 2.82179 2.71538 2.7646C2.77257 2.70741 2.85014 2.67528 2.93102 2.67528H5.29453C5.31475 2.67528 5.33415 2.68331 5.34845 2.69761C5.36274 2.7119 5.37078 2.7313 5.37078 2.75152V5.64873C5.37078 5.66895 5.36274 5.68834 5.34845 5.70264C5.33415 5.71694 5.31475 5.72497 5.29453 5.72497ZM5.67575 2.06534H2.93979C2.77587 2.06534 2.63482 1.93954 2.62643 1.77581C2.62434 1.73451 2.63067 1.69322 2.64503 1.65444C2.65939 1.61567 2.68149 1.58022 2.70998 1.55025C2.73847 1.52028 2.77275 1.49641 2.81075 1.48011C2.84875 1.4638 2.88967 1.4554 2.93102 1.4554H8.4117C8.57562 1.4554 8.71667 1.5812 8.72506 1.74493C8.72715 1.78623 8.72083 1.82752 8.70646 1.86629C8.6921 1.90507 8.67 1.94052 8.64151 1.97049C8.61302 2.00046 8.57874 2.02432 8.54074 2.04062C8.50274 2.05693 8.46182 2.06534 8.42047 2.06534H5.67575ZM6.05696 2.67528H8.42047C8.50135 2.67528 8.57892 2.70741 8.63612 2.7646C8.69331 2.82179 8.72544 2.89936 8.72544 2.98024V5.42C8.72544 5.50088 8.69331 5.57845 8.63612 5.63565C8.57892 5.69284 8.50135 5.72497 8.42047 5.72497H6.05696C6.03674 5.72497 6.01734 5.71694 6.00305 5.70264C5.98875 5.68834 5.98072 5.66895 5.98072 5.64873V2.75152C5.98072 2.7313 5.98875 2.7119 6.00305 2.69761C6.01734 2.68331 6.03674 2.67528 6.05696 2.67528ZM7.20402 7.31596C7.19036 7.19043 7.216 7.06375 7.27739 6.95341C7.33879 6.84307 7.43291 6.7545 7.54678 6.69993C7.66065 6.64536 7.78865 6.62747 7.91312 6.64874C8.03759 6.67001 8.15239 6.72939 8.24167 6.81867C8.33096 6.90796 8.39034 7.02276 8.41161 7.14723C8.43288 7.27169 8.41499 7.39969 8.36042 7.51356C8.30585 7.62744 8.21728 7.72156 8.10694 7.78296C7.9966 7.84435 7.86992 7.86999 7.74439 7.85632C7.60624 7.84129 7.47736 7.77952 7.37909 7.68126C7.28082 7.58299 7.21906 7.45411 7.20402 7.31596Z" fill="black"/>
</g>
<defs>
<clipPath id="clip0_201_9467">
<rect width="9.75902" height="9.75902" fill="white" transform="translate(0.796387 0.235474)"/>
</clipPath>
</defs>
</svg>
