<svg width="11" height="11" viewBox="0 0 11 11" fill="none" xmlns="http://www.w3.org/2000/svg">
<g clip-path="url(#clip0_201_9498)">
<path d="M8.78732 3.99965H6.65253V1.86486C6.65253 1.62221 6.55614 1.3895 6.38456 1.21792C6.21299 1.04634 5.98028 0.949951 5.73763 0.949951H2.07799C1.83535 0.949951 1.60263 1.04634 1.43106 1.21792C1.25948 1.3895 1.16309 1.62221 1.16309 1.86486V9.79406C1.16309 9.87495 1.19522 9.95252 1.25241 10.0097C1.3096 10.0669 1.38717 10.099 1.46806 10.099H3.45036C3.4908 10.099 3.52958 10.083 3.55818 10.0544C3.58678 10.0258 3.60284 9.98699 3.60284 9.94655V8.58276C3.60284 8.41865 3.72902 8.27779 3.89313 8.2696C3.93437 8.26761 3.97558 8.27402 4.01426 8.28843C4.05295 8.30284 4.08831 8.32495 4.11819 8.35343C4.14808 8.38191 4.17187 8.41616 4.18813 8.45411C4.20439 8.49205 4.21278 8.5329 4.21278 8.57419V9.94655C4.21278 9.98699 4.22884 10.0258 4.25744 10.0544C4.28604 10.083 4.32482 10.099 4.36526 10.099H9.39726C9.47814 10.099 9.55571 10.0669 9.61291 10.0097C9.6701 9.95252 9.70223 9.87495 9.70223 9.79406V4.91455C9.70223 4.6719 9.60584 4.43919 9.43426 4.26762C9.26268 4.09604 9.02997 3.99965 8.78732 3.99965ZM2.42261 8.87668C2.35945 8.88494 2.29529 8.87321 2.23913 8.84315C2.18297 8.81309 2.13763 8.76619 2.10948 8.70905C2.08134 8.65191 2.07179 8.58739 2.08218 8.52454C2.09257 8.4617 2.12237 8.40368 2.16741 8.35864C2.21246 8.3136 2.27047 8.28379 2.33332 8.2734C2.39616 8.26301 2.46069 8.27256 2.51783 8.30071C2.57497 8.32886 2.62186 8.37419 2.65193 8.43035C2.68199 8.48651 2.69372 8.55067 2.68545 8.61383C2.67674 8.68049 2.64624 8.7424 2.59871 8.78993C2.55117 8.83746 2.48927 8.86796 2.42261 8.87668ZM2.42261 7.35183C2.35945 7.36009 2.29529 7.34837 2.23913 7.3183C2.18297 7.28824 2.13763 7.24135 2.10948 7.1842C2.08134 7.12706 2.07179 7.06254 2.08218 6.99969C2.09257 6.93685 2.12237 6.87883 2.16741 6.83379C2.21246 6.78875 2.27047 6.75894 2.33332 6.74855C2.39616 6.73816 2.46069 6.74771 2.51783 6.77586C2.57497 6.80401 2.62186 6.84934 2.65193 6.9055C2.68199 6.96166 2.69372 7.02582 2.68545 7.08898C2.67674 7.15564 2.64624 7.21755 2.59871 7.26508C2.55117 7.31262 2.48927 7.34311 2.42261 7.35183ZM2.42261 5.82698C2.35945 5.83524 2.29529 5.82352 2.23913 5.79346C2.18297 5.76339 2.13763 5.7165 2.10948 5.65936C2.08134 5.60222 2.07179 5.53769 2.08218 5.47485C2.09257 5.412 2.12237 5.35399 2.16741 5.30894C2.21246 5.2639 2.27047 5.23409 2.33332 5.2237C2.39616 5.21331 2.46069 5.22286 2.51783 5.25101C2.57497 5.27916 2.62186 5.3245 2.65193 5.38066C2.68199 5.43681 2.69372 5.50098 2.68545 5.56414C2.67674 5.63079 2.64624 5.6927 2.59871 5.74024C2.55117 5.78777 2.48927 5.81827 2.42261 5.82698ZM2.42261 4.30214C2.35945 4.3104 2.29529 4.29867 2.23913 4.26861C2.18297 4.23855 2.13763 4.19165 2.10948 4.13451C2.08134 4.07737 2.07179 4.01285 2.08218 3.95C2.09257 3.88715 2.12237 3.82914 2.16741 3.7841C2.21246 3.73905 2.27047 3.70925 2.33332 3.69886C2.39616 3.68847 2.46069 3.69802 2.51783 3.72617C2.57497 3.75432 2.62186 3.79965 2.65193 3.85581C2.68199 3.91197 2.69372 3.97613 2.68545 4.03929C2.67674 4.10595 2.64624 4.16785 2.59871 4.21539C2.55117 4.26292 2.48927 4.29342 2.42261 4.30214ZM2.42261 2.77729C2.35945 2.78555 2.29529 2.77383 2.23913 2.74376C2.18297 2.7137 2.13763 2.66681 2.10948 2.60966C2.08134 2.55252 2.07179 2.488 2.08218 2.42515C2.09257 2.36231 2.12237 2.30429 2.16741 2.25925C2.21246 2.21421 2.27047 2.1844 2.33332 2.17401C2.39616 2.16362 2.46069 2.17317 2.51783 2.20132C2.57497 2.22947 2.62186 2.2748 2.65193 2.33096C2.68199 2.38712 2.69372 2.45128 2.68545 2.51444C2.67674 2.5811 2.64624 2.64301 2.59871 2.69054C2.55117 2.73808 2.48927 2.76857 2.42261 2.77729ZM3.94746 7.35183C3.88429 7.36009 3.82013 7.34837 3.76397 7.3183C3.70782 7.28824 3.66248 7.24135 3.63433 7.1842C3.60618 7.12706 3.59663 7.06254 3.60702 6.99969C3.61741 6.93685 3.64722 6.87883 3.69226 6.83379C3.7373 6.78875 3.79532 6.75894 3.85817 6.74855C3.92101 6.73816 3.98553 6.74771 4.04268 6.77586C4.09982 6.80401 4.14671 6.84934 4.17677 6.9055C4.20684 6.96166 4.21856 7.02582 4.2103 7.08898C4.20158 7.15564 4.17109 7.21755 4.12355 7.26508C4.07602 7.31262 4.01411 7.34311 3.94746 7.35183ZM3.94746 5.82698C3.88429 5.83524 3.82013 5.82352 3.76397 5.79346C3.70782 5.76339 3.66248 5.7165 3.63433 5.65936C3.60618 5.60222 3.59663 5.53769 3.60702 5.47485C3.61741 5.412 3.64722 5.35399 3.69226 5.30894C3.7373 5.2639 3.79532 5.23409 3.85817 5.2237C3.92101 5.21331 3.98553 5.22286 4.04268 5.25101C4.09982 5.27916 4.14671 5.3245 4.17677 5.38066C4.20684 5.43681 4.21856 5.50098 4.2103 5.56414C4.20158 5.63079 4.17109 5.6927 4.12355 5.74024C4.07602 5.78777 4.01411 5.81827 3.94746 5.82698ZM3.94746 4.30214C3.88429 4.3104 3.82013 4.29867 3.76397 4.26861C3.70782 4.23855 3.66248 4.19165 3.63433 4.13451C3.60618 4.07737 3.59663 4.01285 3.60702 3.95C3.61741 3.88715 3.64722 3.82914 3.69226 3.7841C3.7373 3.73905 3.79532 3.70925 3.85817 3.69886C3.92101 3.68847 3.98553 3.69802 4.04268 3.72617C4.09982 3.75432 4.14671 3.79965 4.17677 3.85581C4.20684 3.91197 4.21856 3.97613 4.2103 4.03929C4.20158 4.10595 4.17109 4.16785 4.12355 4.21539C4.07602 4.26292 4.01411 4.29342 3.94746 4.30214ZM3.94746 2.77729C3.88429 2.78555 3.82013 2.77383 3.76397 2.74376C3.70782 2.7137 3.66248 2.66681 3.63433 2.60966C3.60618 2.55252 3.59663 2.488 3.60702 2.42515C3.61741 2.36231 3.64722 2.30429 3.69226 2.25925C3.7373 2.21421 3.79532 2.1844 3.85817 2.17401C3.92101 2.16362 3.98553 2.17317 4.04268 2.20132C4.09982 2.22947 4.14671 2.2748 4.17677 2.33096C4.20684 2.38712 4.21856 2.45128 4.2103 2.51444C4.20158 2.5811 4.17109 2.64301 4.12355 2.69054C4.07602 2.73808 4.01411 2.76857 3.94746 2.77729ZM5.4723 8.87668C5.40914 8.88494 5.34498 8.87321 5.28882 8.84315C5.23266 8.81309 5.18733 8.76619 5.15918 8.70905C5.13103 8.65191 5.12148 8.58739 5.13187 8.52454C5.14226 8.4617 5.17207 8.40368 5.21711 8.35864C5.26215 8.3136 5.32017 8.28379 5.38301 8.2734C5.44586 8.26301 5.51038 8.27256 5.56752 8.30071C5.62466 8.32886 5.67156 8.37419 5.70162 8.43035C5.73169 8.48651 5.74341 8.55067 5.73515 8.61383C5.72643 8.68049 5.69593 8.7424 5.6484 8.78993C5.60087 8.83746 5.53896 8.86796 5.4723 8.87668ZM5.4723 7.35183C5.40914 7.36009 5.34498 7.34837 5.28882 7.3183C5.23266 7.28824 5.18733 7.24135 5.15918 7.1842C5.13103 7.12706 5.12148 7.06254 5.13187 6.99969C5.14226 6.93685 5.17207 6.87883 5.21711 6.83379C5.26215 6.78875 5.32017 6.75894 5.38301 6.74855C5.44586 6.73816 5.51038 6.74771 5.56752 6.77586C5.62466 6.80401 5.67156 6.84934 5.70162 6.9055C5.73169 6.96166 5.74341 7.02582 5.73515 7.08898C5.72643 7.15564 5.69593 7.21755 5.6484 7.26508C5.60087 7.31262 5.53896 7.34311 5.4723 7.35183ZM5.4723 5.82698C5.40914 5.83524 5.34498 5.82352 5.28882 5.79346C5.23266 5.76339 5.18733 5.7165 5.15918 5.65936C5.13103 5.60222 5.12148 5.53769 5.13187 5.47485C5.14226 5.412 5.17207 5.35399 5.21711 5.30894C5.26215 5.2639 5.32017 5.23409 5.38301 5.2237C5.44586 5.21331 5.51038 5.22286 5.56752 5.25101C5.62466 5.27916 5.67156 5.3245 5.70162 5.38066C5.73169 5.43681 5.74341 5.50098 5.73515 5.56414C5.72643 5.63079 5.69593 5.6927 5.6484 5.74024C5.60087 5.78777 5.53896 5.81827 5.4723 5.82698ZM5.4723 4.30214C5.40914 4.3104 5.34498 4.29867 5.28882 4.26861C5.23266 4.23855 5.18733 4.19165 5.15918 4.13451C5.13103 4.07737 5.12148 4.01285 5.13187 3.95C5.14226 3.88715 5.17207 3.82914 5.21711 3.7841C5.26215 3.73905 5.32017 3.70925 5.38301 3.69886C5.44586 3.68847 5.51038 3.69802 5.56752 3.72617C5.62466 3.75432 5.67156 3.79965 5.70162 3.85581C5.73169 3.91197 5.74341 3.97613 5.73515 4.03929C5.72643 4.10595 5.69593 4.16785 5.6484 4.21539C5.60087 4.26292 5.53896 4.29342 5.4723 4.30214ZM5.4723 2.77729C5.40914 2.78555 5.34498 2.77383 5.28882 2.74376C5.23266 2.7137 5.18733 2.66681 5.15918 2.60966C5.13103 2.55252 5.12148 2.488 5.13187 2.42515C5.14226 2.36231 5.17207 2.30429 5.21711 2.25925C5.26215 2.21421 5.32017 2.1844 5.38301 2.17401C5.44586 2.16362 5.51038 2.17317 5.56752 2.20132C5.62466 2.22947 5.67156 2.2748 5.70162 2.33096C5.73169 2.38712 5.74341 2.45128 5.73515 2.51444C5.72643 2.5811 5.69593 2.64301 5.6484 2.69054C5.60087 2.73808 5.53896 2.76857 5.4723 2.77729ZM9.01605 9.48909H6.65253V4.60958H8.78732C8.8682 4.60958 8.94577 4.64171 9.00297 4.69891C9.06016 4.7561 9.09229 4.83367 9.09229 4.91455V9.41285C9.09229 9.43307 9.08426 9.45247 9.06996 9.46676C9.05566 9.48106 9.03627 9.48909 9.01605 9.48909Z" fill="black"/>
<path d="M8.17753 8.26917C8.11721 8.26917 8.05825 8.28705 8.0081 8.32056C7.95794 8.35407 7.91886 8.4017 7.89577 8.45743C7.87269 8.51315 7.86665 8.57447 7.87842 8.63363C7.89019 8.69279 7.91923 8.74713 7.96188 8.78978C8.00453 8.83243 8.05887 8.86148 8.11803 8.87324C8.17719 8.88501 8.23851 8.87897 8.29423 8.85589C8.34996 8.83281 8.39759 8.79372 8.4311 8.74357C8.46461 8.69341 8.4825 8.63445 8.4825 8.57413C8.4825 8.49325 8.45037 8.41568 8.39317 8.35849C8.33598 8.3013 8.25841 8.26917 8.17753 8.26917Z" fill="black"/>
<path d="M8.17753 6.74426C8.11721 6.74426 8.05825 6.76215 8.0081 6.79566C7.95794 6.82917 7.91886 6.8768 7.89577 6.93253C7.87269 6.98825 7.86665 7.04957 7.87842 7.10873C7.89019 7.16789 7.91923 7.22223 7.96188 7.26488C8.00453 7.30753 8.05887 7.33657 8.11803 7.34834C8.17719 7.36011 8.23851 7.35407 8.29423 7.33099C8.34996 7.3079 8.39759 7.26882 8.4311 7.21866C8.46461 7.16851 8.4825 7.10955 8.4825 7.04923C8.4825 6.96835 8.45037 6.89078 8.39317 6.83359C8.33598 6.77639 8.25841 6.74426 8.17753 6.74426Z" fill="black"/>
<path d="M8.17753 5.2196C8.11721 5.2196 8.05825 5.23749 8.0081 5.271C7.95794 5.30451 7.91886 5.35214 7.89577 5.40787C7.87269 5.46359 7.86665 5.52491 7.87842 5.58407C7.89019 5.64323 7.91923 5.69757 7.96188 5.74022C8.00453 5.78287 8.05887 5.81192 8.11803 5.82368C8.17719 5.83545 8.23851 5.82941 8.29423 5.80633C8.34996 5.78325 8.39759 5.74416 8.4311 5.69401C8.46461 5.64385 8.4825 5.58489 8.4825 5.52457C8.4825 5.44369 8.45037 5.36612 8.39317 5.30893C8.33598 5.25174 8.25841 5.2196 8.17753 5.2196Z" fill="black"/>
<path d="M6.9578 8.26917C6.89748 8.26917 6.83852 8.28705 6.78837 8.32056C6.73822 8.35407 6.69913 8.4017 6.67605 8.45743C6.65296 8.51315 6.64692 8.57447 6.65869 8.63363C6.67046 8.69279 6.6995 8.74713 6.74216 8.78978C6.78481 8.83243 6.83915 8.86148 6.8983 8.87324C6.95746 8.88501 7.01878 8.87897 7.07451 8.85589C7.13023 8.83281 7.17786 8.79372 7.21137 8.74357C7.24489 8.69341 7.26277 8.63445 7.26277 8.57413C7.26277 8.49325 7.23064 8.41568 7.17345 8.35849C7.11625 8.3013 7.03868 8.26917 6.9578 8.26917Z" fill="black"/>
<path d="M6.9578 6.74426C6.89748 6.74426 6.83852 6.76215 6.78837 6.79566C6.73822 6.82917 6.69913 6.8768 6.67605 6.93253C6.65296 6.98825 6.64692 7.04957 6.65869 7.10873C6.67046 7.16789 6.6995 7.22223 6.74216 7.26488C6.78481 7.30753 6.83915 7.33657 6.8983 7.34834C6.95746 7.36011 7.01878 7.35407 7.07451 7.33099C7.13023 7.3079 7.17786 7.26882 7.21137 7.21866C7.24489 7.16851 7.26277 7.10955 7.26277 7.04923C7.26277 6.96835 7.23064 6.89078 7.17345 6.83359C7.11625 6.77639 7.03868 6.74426 6.9578 6.74426Z" fill="black"/>
<path d="M6.9578 5.2196C6.89748 5.2196 6.83852 5.23749 6.78837 5.271C6.73822 5.30451 6.69913 5.35214 6.67605 5.40787C6.65296 5.46359 6.64692 5.52491 6.65869 5.58407C6.67046 5.64323 6.6995 5.69757 6.74216 5.74022C6.78481 5.78287 6.83915 5.81192 6.8983 5.82368C6.95746 5.83545 7.01878 5.82941 7.07451 5.80633C7.13023 5.78325 7.17786 5.74416 7.21137 5.69401C7.24489 5.64385 7.26277 5.58489 7.26277 5.52457C7.26277 5.44369 7.23064 5.36612 7.17345 5.30893C7.11625 5.25174 7.03868 5.2196 6.9578 5.2196Z" fill="black"/>
</g>
<defs>
<clipPath id="clip0_201_9498">
<rect width="9.75902" height="9.75902" fill="white" transform="translate(0.553223 0.644897)"/>
</clipPath>
</defs>
</svg>
