<svg width="10" height="10" viewBox="0 0 10 10" fill="none" xmlns="http://www.w3.org/2000/svg">
<g clip-path="url(#clip0_201_9469)">
<path d="M3.56104 8.16479V9.38467" stroke="black" stroke-width="0.609939" stroke-linecap="round" stroke-linejoin="round"/>
<path d="M1.73103 0.845459H5.39067C5.55243 0.845459 5.70757 0.90972 5.82196 1.02411C5.93634 1.13849 6.0006 1.29363 6.0006 1.4554V9.30836C6.0006 9.32858 5.99257 9.34797 5.97827 9.36227C5.96398 9.37657 5.94458 9.3846 5.92436 9.3846H1.12109V1.4554C1.12109 1.29363 1.18535 1.13849 1.29974 1.02411C1.41413 0.90972 1.56927 0.845459 1.73103 0.845459V0.845459Z" stroke="black" stroke-width="0.609939" stroke-linecap="round" stroke-linejoin="round"/>
<path d="M6.30546 3.89514H8.44024C8.60201 3.89514 8.75715 3.9594 8.87153 4.07379C8.98592 4.18817 9.05018 4.34331 9.05018 4.50508V9.38459H6.00049V4.20011C6.00049 4.11923 6.03262 4.04166 6.08981 3.98447C6.147 3.92727 6.22457 3.89514 6.30546 3.89514Z" stroke="black" stroke-width="0.609939" stroke-linecap="round" stroke-linejoin="round"/>
<path d="M2.07548 8.46723C2.01231 8.47549 1.94815 8.46376 1.89199 8.4337C1.83583 8.40364 1.7905 8.35674 1.76235 8.2996C1.7342 8.24246 1.72465 8.17794 1.73504 8.11509C1.74543 8.05224 1.77524 7.99423 1.82028 7.94919C1.86532 7.90415 1.92334 7.87434 1.98618 7.86395C2.04903 7.85356 2.11355 7.86311 2.17069 7.89126C2.22784 7.91941 2.27473 7.96474 2.30479 8.0209C2.33486 8.07706 2.34658 8.14122 2.33832 8.20438C2.3296 8.27104 2.29911 8.33295 2.25157 8.38048C2.20404 8.42801 2.14213 8.45851 2.07548 8.46723Z" fill="black"/>
<path d="M2.07548 6.94232C2.01231 6.95059 1.94815 6.93886 1.89199 6.9088C1.83583 6.87873 1.7905 6.83184 1.76235 6.7747C1.7342 6.71756 1.72465 6.65303 1.73504 6.59019C1.74543 6.52734 1.77524 6.46933 1.82028 6.42428C1.86532 6.37924 1.92334 6.34943 1.98618 6.33905C2.04903 6.32866 2.11355 6.33821 2.17069 6.36635C2.22784 6.3945 2.27473 6.43984 2.30479 6.496C2.33486 6.55216 2.34658 6.61632 2.33832 6.67948C2.3296 6.74613 2.29911 6.80804 2.25157 6.85558C2.20404 6.90311 2.14213 6.93361 2.07548 6.94232Z" fill="black"/>
<path d="M2.07548 5.41754C2.01231 5.4258 1.94815 5.41408 1.89199 5.38402C1.83583 5.35395 1.7905 5.30706 1.76235 5.24992C1.7342 5.19278 1.72465 5.12825 1.73504 5.06541C1.74543 5.00256 1.77524 4.94455 1.82028 4.8995C1.86532 4.85446 1.92334 4.82465 1.98618 4.81426C2.04903 4.80388 2.11355 4.81343 2.17069 4.84157C2.22784 4.86972 2.27473 4.91506 2.30479 4.97122C2.33486 5.02738 2.34658 5.09154 2.33832 5.1547C2.3296 5.22135 2.29911 5.28326 2.25157 5.3308C2.20404 5.37833 2.14213 5.40883 2.07548 5.41754Z" fill="black"/>
<path d="M2.07548 3.89264C2.01231 3.9009 1.94815 3.88918 1.89199 3.85912C1.83583 3.82905 1.7905 3.78216 1.76235 3.72502C1.7342 3.66787 1.72465 3.60335 1.73504 3.54051C1.74543 3.47766 1.77524 3.41964 1.82028 3.3746C1.86532 3.32956 1.92334 3.29975 1.98618 3.28936C2.04903 3.27897 2.11355 3.28852 2.17069 3.31667C2.22784 3.34482 2.27473 3.39016 2.30479 3.44631C2.33486 3.50247 2.34658 3.56664 2.33832 3.6298C2.3296 3.69645 2.29911 3.75836 2.25157 3.80589C2.20404 3.85343 2.14213 3.88392 2.07548 3.89264Z" fill="black"/>
<path d="M2.07548 2.36786C2.01231 2.37612 1.94815 2.3644 1.89199 2.33433C1.83583 2.30427 1.7905 2.25738 1.76235 2.20024C1.7342 2.14309 1.72465 2.07857 1.73504 2.01573C1.74543 1.95288 1.77524 1.89486 1.82028 1.84982C1.86532 1.80478 1.92334 1.77497 1.98618 1.76458C2.04903 1.75419 2.11355 1.76374 2.17069 1.79189C2.22784 1.82004 2.27473 1.86538 2.30479 1.92153C2.33486 1.97769 2.34658 2.04186 2.33832 2.10502C2.3296 2.17167 2.29911 2.23358 2.25157 2.28111C2.20404 2.32865 2.14213 2.35914 2.07548 2.36786Z" fill="black"/>
<path d="M3.60038 6.94232C3.53722 6.95059 3.47305 6.93886 3.4169 6.9088C3.36074 6.87873 3.3154 6.83184 3.28725 6.7747C3.2591 6.71756 3.24955 6.65303 3.25994 6.59019C3.27033 6.52734 3.30014 6.46933 3.34518 6.42428C3.39023 6.37924 3.44824 6.34943 3.51109 6.33905C3.57393 6.32866 3.63845 6.33821 3.6956 6.36635C3.75274 6.3945 3.79963 6.43984 3.8297 6.496C3.85976 6.55216 3.87148 6.61632 3.86322 6.67948C3.85451 6.74613 3.82401 6.80804 3.77647 6.85558C3.72894 6.90311 3.66703 6.93361 3.60038 6.94232Z" fill="black"/>
<path d="M3.60038 5.41754C3.53722 5.4258 3.47305 5.41408 3.4169 5.38402C3.36074 5.35395 3.3154 5.30706 3.28725 5.24992C3.2591 5.19278 3.24955 5.12825 3.25994 5.06541C3.27033 5.00256 3.30014 4.94455 3.34518 4.8995C3.39023 4.85446 3.44824 4.82465 3.51109 4.81426C3.57393 4.80388 3.63845 4.81343 3.6956 4.84157C3.75274 4.86972 3.79963 4.91506 3.8297 4.97122C3.85976 5.02738 3.87148 5.09154 3.86322 5.1547C3.85451 5.22135 3.82401 5.28326 3.77647 5.3308C3.72894 5.37833 3.66703 5.40883 3.60038 5.41754Z" fill="black"/>
<path d="M3.60038 3.89264C3.53722 3.9009 3.47305 3.88918 3.4169 3.85912C3.36074 3.82905 3.3154 3.78216 3.28725 3.72502C3.2591 3.66787 3.24955 3.60335 3.25994 3.54051C3.27033 3.47766 3.30014 3.41964 3.34518 3.3746C3.39023 3.32956 3.44824 3.29975 3.51109 3.28936C3.57393 3.27897 3.63845 3.28852 3.6956 3.31667C3.75274 3.34482 3.79963 3.39016 3.8297 3.44631C3.85976 3.50247 3.87148 3.56664 3.86322 3.6298C3.85451 3.69645 3.82401 3.75836 3.77647 3.80589C3.72894 3.85343 3.66703 3.88392 3.60038 3.89264Z" fill="black"/>
<path d="M3.60038 2.36786C3.53722 2.37612 3.47305 2.3644 3.4169 2.33433C3.36074 2.30427 3.3154 2.25738 3.28725 2.20024C3.2591 2.14309 3.24955 2.07857 3.25994 2.01573C3.27033 1.95288 3.30014 1.89486 3.34518 1.84982C3.39023 1.80478 3.44824 1.77497 3.51109 1.76458C3.57393 1.75419 3.63845 1.76374 3.6956 1.79189C3.75274 1.82004 3.79963 1.86538 3.8297 1.92153C3.85976 1.97769 3.87148 2.04186 3.86322 2.10502C3.85451 2.17167 3.82401 2.23358 3.77647 2.28111C3.72894 2.32865 3.66703 2.35914 3.60038 2.36786Z" fill="black"/>
<path d="M5.12528 8.46723C5.06212 8.47549 4.99796 8.46376 4.9418 8.4337C4.88564 8.40364 4.8403 8.35674 4.81216 8.2996C4.78401 8.24246 4.77446 8.17794 4.78485 8.11509C4.79524 8.05224 4.82504 7.99423 4.87009 7.94919C4.91513 7.90415 4.97314 7.87434 5.03599 7.86395C5.09884 7.85356 5.16336 7.86311 5.2205 7.89126C5.27764 7.91941 5.32453 7.96474 5.3546 8.0209C5.38466 8.07706 5.39639 8.14122 5.38813 8.20438C5.37941 8.27104 5.34891 8.33295 5.30138 8.38048C5.25384 8.42801 5.19194 8.45851 5.12528 8.46723Z" fill="black"/>
<path d="M5.12528 6.94232C5.06212 6.95059 4.99796 6.93886 4.9418 6.9088C4.88564 6.87873 4.8403 6.83184 4.81216 6.7747C4.78401 6.71756 4.77446 6.65303 4.78485 6.59019C4.79524 6.52734 4.82504 6.46933 4.87009 6.42428C4.91513 6.37924 4.97314 6.34943 5.03599 6.33905C5.09884 6.32866 5.16336 6.33821 5.2205 6.36635C5.27764 6.3945 5.32453 6.43984 5.3546 6.496C5.38466 6.55216 5.39639 6.61632 5.38813 6.67948C5.37941 6.74613 5.34891 6.80804 5.30138 6.85558C5.25384 6.90311 5.19194 6.93361 5.12528 6.94232Z" fill="black"/>
<path d="M5.12528 5.41754C5.06212 5.4258 4.99796 5.41408 4.9418 5.38402C4.88564 5.35395 4.8403 5.30706 4.81216 5.24992C4.78401 5.19278 4.77446 5.12825 4.78485 5.06541C4.79524 5.00256 4.82504 4.94455 4.87009 4.8995C4.91513 4.85446 4.97314 4.82465 5.03599 4.81426C5.09884 4.80388 5.16336 4.81343 5.2205 4.84157C5.27764 4.86972 5.32453 4.91506 5.3546 4.97122C5.38466 5.02738 5.39639 5.09154 5.38813 5.1547C5.37941 5.22135 5.34891 5.28326 5.30138 5.3308C5.25384 5.37833 5.19194 5.40883 5.12528 5.41754Z" fill="black"/>
<path d="M5.30186 3.80612C5.42058 3.68739 5.4201 3.49442 5.30078 3.3751C5.18146 3.25577 4.98848 3.25529 4.86976 3.37402C4.75103 3.49274 4.75151 3.68572 4.87084 3.80504C4.99016 3.92436 5.18313 3.92484 5.30186 3.80612Z" fill="black"/>
<path d="M5.12528 2.36786C5.06212 2.37612 4.99796 2.3644 4.9418 2.33433C4.88564 2.30427 4.8403 2.25738 4.81216 2.20024C4.78401 2.14309 4.77446 2.07857 4.78485 2.01573C4.79524 1.95288 4.82504 1.89486 4.87009 1.84982C4.91513 1.80478 4.97314 1.77497 5.03599 1.76458C5.09884 1.75419 5.16336 1.76374 5.2205 1.79189C5.27764 1.82004 5.32453 1.86538 5.3546 1.92153C5.38466 1.97769 5.39639 2.04186 5.38813 2.10502C5.37941 2.17167 5.34891 2.23358 5.30138 2.28111C5.25384 2.32865 5.19194 2.35914 5.12528 2.36786Z" fill="black"/>
<path d="M7.83036 7.85974C7.77004 7.85974 7.71108 7.87763 7.66093 7.91114C7.61078 7.94465 7.57169 7.99228 7.54861 8.048C7.52552 8.10373 7.51948 8.16505 7.53125 8.22421C7.54302 8.28337 7.57206 8.33771 7.61471 8.38036C7.65736 8.42301 7.71171 8.45205 7.77086 8.46382C7.83002 8.47559 7.89134 8.46955 7.94707 8.44647C8.00279 8.42338 8.05042 8.38429 8.08393 8.33414C8.11744 8.28399 8.13533 8.22503 8.13533 8.16471C8.13533 8.08383 8.1032 8.00626 8.04601 7.94906C7.98881 7.89187 7.91124 7.85974 7.83036 7.85974Z" fill="black"/>
<path d="M7.83036 6.33484C7.77004 6.33484 7.71108 6.35272 7.66093 6.38624C7.61078 6.41975 7.57169 6.46738 7.54861 6.5231C7.52552 6.57883 7.51948 6.64015 7.53125 6.69931C7.54302 6.75846 7.57206 6.8128 7.61471 6.85545C7.65736 6.89811 7.71171 6.92715 7.77086 6.93892C7.83002 6.95069 7.89134 6.94465 7.94707 6.92156C8.00279 6.89848 8.05042 6.85939 8.08393 6.80924C8.11744 6.75909 8.13533 6.70013 8.13533 6.63981C8.13533 6.55893 8.1032 6.48135 8.04601 6.42416C7.98881 6.36697 7.91124 6.33484 7.83036 6.33484Z" fill="black"/>
<path d="M7.83036 4.81018C7.77004 4.81018 7.71108 4.82807 7.66093 4.86158C7.61078 4.89509 7.57169 4.94272 7.54861 4.99844C7.52552 5.05417 7.51948 5.11549 7.53125 5.17465C7.54302 5.23381 7.57206 5.28815 7.61471 5.3308C7.65736 5.37345 7.71171 5.40249 7.77086 5.41426C7.83002 5.42603 7.89134 5.41999 7.94707 5.39691C8.00279 5.37382 8.05042 5.33473 8.08393 5.28458C8.11744 5.23443 8.13533 5.17547 8.13533 5.11515C8.13533 5.03427 8.1032 4.9567 8.04601 4.8995C7.98881 4.84231 7.91124 4.81018 7.83036 4.81018Z" fill="black"/>
<path d="M6.61063 7.85974C6.55032 7.85974 6.49135 7.87763 6.4412 7.91114C6.39105 7.94465 6.35196 7.99228 6.32888 8.048C6.3058 8.10373 6.29976 8.16505 6.31152 8.22421C6.32329 8.28337 6.35234 8.33771 6.39499 8.38036C6.43764 8.42301 6.49198 8.45205 6.55114 8.46382C6.6103 8.47559 6.67161 8.46955 6.72734 8.44647C6.78307 8.42338 6.8307 8.38429 6.86421 8.33414C6.89772 8.28399 6.9156 8.22503 6.9156 8.16471C6.9156 8.08383 6.88347 8.00626 6.82628 7.94906C6.76909 7.89187 6.69152 7.85974 6.61063 7.85974Z" fill="black"/>
<path d="M6.61063 6.33484C6.55032 6.33484 6.49135 6.35272 6.4412 6.38624C6.39105 6.41975 6.35196 6.46738 6.32888 6.5231C6.3058 6.57883 6.29976 6.64015 6.31152 6.69931C6.32329 6.75846 6.35234 6.8128 6.39499 6.85545C6.43764 6.89811 6.49198 6.92715 6.55114 6.93892C6.6103 6.95069 6.67161 6.94465 6.72734 6.92156C6.78307 6.89848 6.8307 6.85939 6.86421 6.80924C6.89772 6.75909 6.9156 6.70013 6.9156 6.63981C6.9156 6.55893 6.88347 6.48135 6.82628 6.42416C6.76909 6.36697 6.69152 6.33484 6.61063 6.33484Z" fill="black"/>
<path d="M6.61063 4.81018C6.55032 4.81018 6.49135 4.82807 6.4412 4.86158C6.39105 4.89509 6.35196 4.94272 6.32888 4.99844C6.3058 5.05417 6.29976 5.11549 6.31152 5.17465C6.32329 5.23381 6.35234 5.28815 6.39499 5.3308C6.43764 5.37345 6.49198 5.40249 6.55114 5.41426C6.6103 5.42603 6.67161 5.41999 6.72734 5.39691C6.78307 5.37382 6.8307 5.33473 6.86421 5.28458C6.89772 5.23443 6.9156 5.17547 6.9156 5.11515C6.9156 5.03427 6.88347 4.9567 6.82628 4.8995C6.76909 4.84231 6.69152 4.81018 6.61063 4.81018Z" fill="black"/>
</g>
<defs>
<clipPath id="clip0_201_9469">
<rect width="9.75902" height="9.75902" fill="white" transform="translate(0.206055 0.235474)"/>
</clipPath>
</defs>
</svg>
