<svg width="11" height="10" viewBox="0 0 11 10" fill="none" xmlns="http://www.w3.org/2000/svg">
<g clip-path="url(#clip0_201_9493)">
<path d="M6.71455 3.59022V0.540527H1.2251V9.68961H3.66485V7.85979H4.27479V9.68961H9.76424V3.59022H6.71455ZM2.74994 8.46973H2.14001V7.85979H2.74994V8.46973ZM2.74994 6.94488H2.14001V6.33495H2.74994V6.94488ZM2.74994 5.42004H2.14001V4.8101H2.74994V5.42004ZM2.74994 3.89519H2.14001V3.28525H2.74994V3.89519ZM2.74994 2.37034H2.14001V1.7604H2.74994V2.37034ZM5.1897 1.7604H5.79964V2.37034H5.1897V1.7604ZM4.27479 6.94488H3.66485V6.33495H4.27479V6.94488ZM4.27479 5.42004H3.66485V4.8101H4.27479V5.42004ZM4.27479 3.89519H3.66485V3.28525H4.27479V3.89519ZM4.27479 2.37034H3.66485V1.7604H4.27479V2.37034ZM5.79964 8.46973H5.1897V7.85979H5.79964V8.46973ZM5.79964 6.94488H5.1897V6.33495H5.79964V6.94488ZM5.79964 5.42004H5.1897V4.8101H5.79964V5.42004ZM5.79964 3.89519H5.1897V3.28525H5.79964V3.89519ZM9.1543 9.07967H6.71455V8.46973H7.32448V7.85979H6.71455V6.94488H7.32448V6.33495H6.71455V5.42004H7.32448V4.8101H6.71455V4.20016H9.1543V9.07967Z" fill="black"/>
<path d="M8.54451 7.85974H7.93457V8.46968H8.54451V7.85974Z" fill="black"/>
<path d="M8.54451 6.33484H7.93457V6.94478H8.54451V6.33484Z" fill="black"/>
<path d="M8.54451 4.81018H7.93457V5.42012H8.54451V4.81018Z" fill="black"/>
</g>
<defs>
<clipPath id="clip0_201_9493">
<rect width="9.75902" height="9.75902" fill="white" transform="translate(0.615234 0.235474)"/>
</clipPath>
</defs>
</svg>
