<svg width="11" height="11" viewBox="0 0 11 11" fill="none" xmlns="http://www.w3.org/2000/svg">
<path d="M8.91127 1.86487H1.89697V6.71274C1.89681 6.76282 1.9066 6.81244 1.92577 6.85871C1.94495 6.90498 1.97312 6.94697 2.00867 6.98226L2.57382 7.54759C2.60915 7.58313 2.65118 7.6113 2.69748 7.63047C2.74377 7.64964 2.79341 7.65944 2.84352 7.65929H6.74484C6.79495 7.65944 6.8446 7.64964 6.89089 7.63047C6.93719 7.6113 6.97922 7.58313 7.01455 7.54759L7.5797 6.98226C7.61524 6.94697 7.64342 6.90498 7.6626 6.85871C7.68177 6.81244 7.69156 6.76282 7.69139 6.71274V4.30462H8.30133C8.3822 4.30459 8.45974 4.27243 8.51691 4.21523L9.12685 3.60529C9.18405 3.54813 9.2162 3.47058 9.21624 3.38972V2.16984C9.21624 2.08895 9.18411 2.01138 9.12692 1.95419C9.06972 1.897 8.99215 1.86487 8.91127 1.86487ZM8.6063 3.26334L8.17496 3.69468H7.69139V2.47481H8.6063V3.26334Z" fill="black"/>
<path d="M8.30141 8.26917H1.28711V8.8791H8.30141V8.26917Z" fill="black"/>
</svg>
