<svg width="10" height="11" viewBox="0 0 10 11" fill="none" xmlns="http://www.w3.org/2000/svg">
<path d="M7.20519 1.55994H2.93562C2.59876 1.55994 2.32568 1.83302 2.32568 2.16988V8.8792C2.32568 9.21606 2.59876 9.48914 2.93562 9.48914H7.20519C7.54205 9.48914 7.81513 9.21606 7.81513 8.8792V2.16988C7.81513 1.83302 7.54205 1.55994 7.20519 1.55994Z" stroke="black" stroke-width="0.609939" stroke-linecap="round" stroke-linejoin="round"/>
<path d="M6.90016 2.77966H3.24072V3.99954H6.90016V2.77966Z" stroke="black" stroke-width="0.609939" stroke-linecap="round" stroke-linejoin="round"/>
<path d="M3.393 5.82946C3.64565 5.82946 3.85046 5.62465 3.85046 5.372C3.85046 5.11936 3.64565 4.91455 3.393 4.91455C3.14036 4.91455 2.93555 5.11936 2.93555 5.372C2.93555 5.62465 3.14036 5.82946 3.393 5.82946Z" fill="black"/>
<path d="M5.07025 5.82946C5.32289 5.82946 5.5277 5.62465 5.5277 5.372C5.5277 5.11936 5.32289 4.91455 5.07025 4.91455C4.8176 4.91455 4.61279 5.11936 4.61279 5.372C4.61279 5.62465 4.8176 5.82946 5.07025 5.82946Z" fill="black"/>
<path d="M6.74798 5.82946C7.00063 5.82946 7.20544 5.62465 7.20544 5.372C7.20544 5.11936 7.00063 4.91455 6.74798 4.91455C6.49534 4.91455 6.29053 5.11936 6.29053 5.372C6.29053 5.62465 6.49534 5.82946 6.74798 5.82946Z" fill="black"/>
<path d="M3.393 7.35424C3.64565 7.35424 3.85046 7.14943 3.85046 6.89679C3.85046 6.64414 3.64565 6.43933 3.393 6.43933C3.14036 6.43933 2.93555 6.64414 2.93555 6.89679C2.93555 7.14943 3.14036 7.35424 3.393 7.35424Z" fill="black"/>
<path d="M5.07025 7.35424C5.32289 7.35424 5.5277 7.14943 5.5277 6.89679C5.5277 6.64414 5.32289 6.43933 5.07025 6.43933C4.8176 6.43933 4.61279 6.64414 4.61279 6.89679C4.61279 7.14943 4.8176 7.35424 5.07025 7.35424Z" fill="black"/>
<path d="M3.393 8.87914C3.64565 8.87914 3.85046 8.67433 3.85046 8.42169C3.85046 8.16904 3.64565 7.96423 3.393 7.96423C3.14036 7.96423 2.93555 8.16904 2.93555 8.42169C2.93555 8.67433 3.14036 8.87914 3.393 8.87914Z" fill="black"/>
<path d="M5.07025 8.87914C5.32289 8.87914 5.5277 8.67433 5.5277 8.42169C5.5277 8.16904 5.32289 7.96423 5.07025 7.96423C4.8176 7.96423 4.61279 8.16904 4.61279 8.42169C4.61279 8.67433 4.8176 8.87914 5.07025 8.87914Z" fill="black"/>
<path d="M7.20544 6.89679C7.20544 6.64414 7.00063 6.43933 6.74798 6.43933C6.49534 6.43933 6.29053 6.64414 6.29053 6.89679V8.42163C6.29053 8.67428 6.49534 8.87909 6.74798 8.87909C7.00063 8.87909 7.20544 8.67428 7.20544 8.42163V6.89679Z" fill="black"/>
</svg>
