<svg width="10" height="11" viewBox="0 0 10 11" fill="none" xmlns="http://www.w3.org/2000/svg">
<path d="M7.93874 2.16979C7.93849 1.92722 7.84202 1.69466 7.67049 1.52313C7.49897 1.35161 7.26641 1.25514 7.02383 1.25488H2.75426C2.51169 1.25514 2.27913 1.35161 2.1076 1.52313C1.93608 1.69466 1.83961 1.92722 1.83936 2.16979V8.87912C1.83961 9.12169 1.93608 9.35425 2.1076 9.52578C2.27913 9.6973 2.51169 9.79377 2.75426 9.79403H7.02383C7.26641 9.79377 7.49897 9.6973 7.67049 9.52578C7.84202 9.35425 7.93849 9.12169 7.93874 8.87912V2.16979ZM3.21172 8.87912C3.12124 8.87912 3.0328 8.85229 2.95757 8.80202C2.88234 8.75176 2.82371 8.68031 2.78909 8.59672C2.75446 8.51313 2.7454 8.42116 2.76305 8.33242C2.7807 8.24368 2.82427 8.16217 2.88825 8.09819C2.95222 8.03422 3.03374 7.99065 3.12247 7.973C3.21121 7.95535 3.30319 7.96441 3.38678 7.99903C3.47037 8.03365 3.54181 8.09229 3.59208 8.16752C3.64234 8.24274 3.66917 8.33119 3.66917 8.42166C3.66917 8.54299 3.62098 8.65934 3.53519 8.74513C3.4494 8.83092 3.33304 8.87912 3.21172 8.87912ZM3.21172 7.35427C3.12124 7.35427 3.0328 7.32744 2.95757 7.27717C2.88234 7.22691 2.82371 7.15546 2.78909 7.07188C2.75446 6.98829 2.7454 6.89631 2.76305 6.80757C2.7807 6.71883 2.82427 6.63732 2.88825 6.57335C2.95222 6.50937 3.03374 6.4658 3.12247 6.44815C3.21121 6.4305 3.30319 6.43956 3.38678 6.47418C3.47037 6.50881 3.54181 6.56744 3.59208 6.64267C3.64234 6.7179 3.66917 6.80634 3.66917 6.89682C3.66917 7.01814 3.62098 7.1345 3.53519 7.22028C3.4494 7.30607 3.33304 7.35427 3.21172 7.35427ZM3.21172 5.82942C3.12124 5.82942 3.0328 5.80259 2.95757 5.75233C2.88234 5.70206 2.82371 5.63062 2.78909 5.54703C2.75446 5.46344 2.7454 5.37146 2.76305 5.28272C2.7807 5.19399 2.82427 5.11248 2.88825 5.0485C2.95222 4.98452 3.03374 4.94096 3.12247 4.92331C3.21121 4.90565 3.30319 4.91471 3.38678 4.94934C3.47037 4.98396 3.54181 5.04259 3.59208 5.11782C3.64234 5.19305 3.66917 5.28149 3.66917 5.37197C3.66917 5.49329 3.62098 5.60965 3.53519 5.69544C3.4494 5.78123 3.33304 5.82942 3.21172 5.82942ZM4.88905 8.87912C4.79857 8.87912 4.71013 8.85229 4.6349 8.80202C4.55967 8.75176 4.50104 8.68031 4.46642 8.59672C4.43179 8.51313 4.42273 8.42116 4.44038 8.33242C4.45804 8.24368 4.5016 8.16217 4.56558 8.09819C4.62956 8.03422 4.71107 7.99065 4.7998 7.973C4.88854 7.95535 4.98052 7.96441 5.06411 7.99903C5.1477 8.03365 5.21914 8.09229 5.26941 8.16752C5.31967 8.24274 5.3465 8.33119 5.3465 8.42166C5.3465 8.54299 5.29831 8.65934 5.21252 8.74513C5.12673 8.83092 5.01037 8.87912 4.88905 8.87912ZM4.88905 7.35427C4.79857 7.35427 4.71013 7.32744 4.6349 7.27717C4.55967 7.22691 4.50104 7.15546 4.46642 7.07188C4.43179 6.98829 4.42273 6.89631 4.44038 6.80757C4.45804 6.71883 4.5016 6.63732 4.56558 6.57335C4.62956 6.50937 4.71107 6.4658 4.7998 6.44815C4.88854 6.4305 4.98052 6.43956 5.06411 6.47418C5.1477 6.50881 5.21914 6.56744 5.26941 6.64267C5.31967 6.7179 5.3465 6.80634 5.3465 6.89682C5.3465 7.01814 5.29831 7.1345 5.21252 7.22028C5.12673 7.30607 5.01037 7.35427 4.88905 7.35427ZM4.88905 5.82942C4.79857 5.82942 4.71013 5.80259 4.6349 5.75233C4.55967 5.70206 4.50104 5.63062 4.46642 5.54703C4.43179 5.46344 4.42273 5.37146 4.44038 5.28272C4.45804 5.19399 4.5016 5.11248 4.56558 5.0485C4.62956 4.98452 4.71107 4.94096 4.7998 4.92331C4.88854 4.90565 4.98052 4.91471 5.06411 4.94934C5.1477 4.98396 5.21914 5.04259 5.26941 5.11782C5.31967 5.19305 5.3465 5.28149 5.3465 5.37197C5.3465 5.49329 5.29831 5.60965 5.21252 5.69544C5.12673 5.78123 5.01037 5.82942 4.88905 5.82942ZM7.02383 8.42166C7.02383 8.54299 6.97564 8.65934 6.88985 8.74513C6.80406 8.83092 6.68771 8.87912 6.56638 8.87912C6.44506 8.87912 6.3287 8.83092 6.24291 8.74513C6.15712 8.65934 6.10893 8.54299 6.10893 8.42166V6.89682C6.10893 6.77549 6.15712 6.65914 6.24291 6.57335C6.3287 6.48756 6.44506 6.43936 6.56638 6.43936C6.68771 6.43936 6.80406 6.48756 6.88985 6.57335C6.97564 6.65914 7.02383 6.77549 7.02383 6.89682V8.42166ZM6.56638 5.82942C6.4759 5.82942 6.38746 5.80259 6.31223 5.75233C6.23701 5.70206 6.17837 5.63062 6.14375 5.54703C6.10913 5.46344 6.10007 5.37146 6.11772 5.28272C6.13537 5.19399 6.17894 5.11248 6.24291 5.0485C6.30689 4.98452 6.3884 4.94096 6.47714 4.92331C6.56587 4.90565 6.65785 4.91471 6.74144 4.94934C6.82503 4.98396 6.89647 5.04259 6.94674 5.11782C6.99701 5.19305 7.02383 5.28149 7.02383 5.37197C7.02383 5.49329 6.97564 5.60965 6.88985 5.69544C6.80406 5.78123 6.68771 5.82942 6.56638 5.82942ZM6.93444 3.91021C6.87728 3.96741 6.79973 3.99957 6.71887 3.99961H3.05923C2.97835 3.99961 2.90078 3.96748 2.84359 3.91028C2.78639 3.85309 2.75426 3.77552 2.75426 3.69464V2.47476C2.75426 2.39388 2.78639 2.31631 2.84359 2.25911C2.90078 2.20192 2.97835 2.16979 3.05923 2.16979H6.71887C6.79975 2.16979 6.87732 2.20192 6.93451 2.25911C6.9917 2.31631 7.02383 2.39388 7.02383 2.47476V3.69464C7.0238 3.77551 6.99164 3.85305 6.93444 3.91021Z" fill="black"/>
</svg>
