<svg width="11" height="11" viewBox="0 0 11 11" fill="none" xmlns="http://www.w3.org/2000/svg">
<path d="M8.39544 1.86467H8.09047V1.56828C8.09047 1.40417 7.96429 1.26331 7.80017 1.25511C7.75894 1.25313 7.71773 1.25953 7.67905 1.27394C7.64036 1.28835 7.605 1.31047 7.57511 1.33895C7.54523 1.36743 7.52143 1.40168 7.50518 1.43962C7.48892 1.47757 7.48053 1.51842 7.48053 1.5597V1.86467H3.21096V1.56828C3.21096 1.40417 3.08478 1.26331 2.92066 1.25511C2.87943 1.25313 2.83822 1.25953 2.79954 1.27394C2.76085 1.28835 2.72549 1.31047 2.69561 1.33895C2.66572 1.36743 2.64192 1.40168 2.62567 1.43962C2.60941 1.47757 2.60102 1.51842 2.60102 1.5597V1.86467H2.29605C1.97252 1.86467 1.66224 1.99319 1.43347 2.22197C1.20469 2.45074 1.07617 2.76102 1.07617 3.08455V3.31328C1.07617 3.3335 1.0842 3.35289 1.0985 3.36719C1.1128 3.38149 1.13219 3.38952 1.15241 3.38952H9.53907C9.55929 3.38952 9.57868 3.38149 9.59298 3.36719C9.60728 3.35289 9.61531 3.3335 9.61531 3.31328V3.08455C9.61531 2.76102 9.48679 2.45074 9.25802 2.22197C9.02925 1.99319 8.71897 1.86467 8.39544 1.86467Z" fill="black"/>
<path d="M9.53907 3.99951H1.15241C1.13219 3.99951 1.1128 4.00754 1.0985 4.02184C1.0842 4.03614 1.07617 4.05553 1.07617 4.07575V8.57405C1.07617 8.89758 1.20469 9.20786 1.43347 9.43664C1.66224 9.66541 1.97252 9.79393 2.29605 9.79393H8.39544C8.71897 9.79393 9.02925 9.66541 9.25802 9.43664C9.48679 9.20786 9.61531 8.89758 9.61531 8.57405V4.07575C9.61531 4.05553 9.60728 4.03614 9.59298 4.02184C9.57868 4.00754 9.55929 3.99951 9.53907 3.99951ZM5.03277 8.29005C4.8008 8.47322 4.48478 8.57405 4.14264 8.57405C3.61142 8.57405 3.21858 8.22791 3.04361 7.93171C3.00241 7.86205 2.99057 7.77888 3.01069 7.70049C3.03082 7.6221 3.08126 7.55491 3.15092 7.51371C3.22058 7.47251 3.30375 7.46067 3.38214 7.4808C3.46053 7.50092 3.52772 7.55136 3.56892 7.62102C3.5895 7.65609 3.78144 7.96411 4.14264 7.96411C4.46019 7.96411 4.83111 7.82516 4.83111 7.43385C4.83111 7.31472 4.80785 7.14889 4.69768 7.03586C4.53491 6.86927 4.26405 6.79437 4.12377 6.79437C4.04289 6.79437 3.96532 6.76223 3.90812 6.70504C3.85093 6.64785 3.8188 6.57028 3.8188 6.4894C3.8188 6.40851 3.85093 6.33094 3.90812 6.27375C3.96532 6.21656 4.04289 6.18443 4.12377 6.18443C4.21621 6.18443 4.45561 6.13487 4.60562 5.98143C4.6462 5.94152 4.67824 5.89376 4.69976 5.84107C4.72129 5.78837 4.73187 5.73185 4.73085 5.67494C4.73085 5.23216 4.18514 5.21939 4.12301 5.21939C3.7925 5.21939 3.66936 5.42162 3.66422 5.4302C3.6444 5.46572 3.61769 5.49692 3.58563 5.52197C3.55358 5.54701 3.51684 5.56539 3.47758 5.57602C3.43832 5.58665 3.39733 5.58932 3.35702 5.58387C3.31671 5.57842 3.2779 5.56496 3.24287 5.54428C3.20784 5.52361 3.1773 5.49614 3.15305 5.46348C3.12879 5.43083 3.11132 5.39365 3.10165 5.35414C3.09198 5.31463 3.09031 5.27359 3.09674 5.23342C3.10317 5.19326 3.11758 5.15479 3.1391 5.12027C3.28472 4.87249 3.61981 4.60945 4.12301 4.60945C4.43636 4.60945 4.72837 4.70037 4.94509 4.86524C5.20031 5.05966 5.34079 5.3471 5.34079 5.67494C5.34165 5.81085 5.31558 5.9456 5.26408 6.07138C5.21259 6.19717 5.13669 6.31152 5.04077 6.40782C5.01885 6.43031 4.99579 6.45128 4.97235 6.47167C5.02961 6.51303 5.08329 6.55913 5.13284 6.60948C5.33412 6.81533 5.44047 7.10029 5.44047 7.43385C5.44105 7.77808 5.29599 8.0821 5.03277 8.29005ZM7.48053 8.19284C7.48053 8.27372 7.4484 8.35129 7.39121 8.40849C7.33401 8.46568 7.25644 8.49781 7.17556 8.49781C7.09468 8.49781 7.01711 8.46568 6.95991 8.40849C6.90272 8.35129 6.87059 8.27372 6.87059 8.19284V5.52989L6.44154 5.8461C6.4093 5.86988 6.37269 5.88708 6.3338 5.89671C6.29492 5.90634 6.25452 5.90822 6.21491 5.90224C6.17529 5.89625 6.13725 5.88253 6.10294 5.86184C6.06864 5.84116 6.03874 5.81392 6.01496 5.78168C5.99118 5.74944 5.97398 5.71283 5.96435 5.67394C5.95472 5.63506 5.95284 5.59466 5.95883 5.55505C5.96481 5.51543 5.97853 5.47739 5.99922 5.44308C6.01991 5.40878 6.04715 5.37888 6.07938 5.3551L6.907 4.74516C6.9594 4.70654 7.02278 4.6857 7.08788 4.68569H7.17556C7.25644 4.68569 7.33401 4.71782 7.39121 4.77502C7.4484 4.83221 7.48053 4.90978 7.48053 4.99066V8.19284Z" fill="black"/>
</svg>
