<svg width="11" height="11" viewBox="0 0 11 11" fill="none" xmlns="http://www.w3.org/2000/svg">
<g clip-path="url(#clip0_201_9570)">
<path d="M0.89502 9.33648C0.89502 9.4578 0.943215 9.57416 1.029 9.65995C1.11479 9.74573 1.23115 9.79393 1.35247 9.79393H8.97671C9.09803 9.79393 9.21439 9.74573 9.30018 9.65995C9.38597 9.57416 9.43416 9.4578 9.43416 9.33648V3.99951H0.89502V9.33648ZM6.99441 4.68569C6.99441 4.66547 7.00244 4.64608 7.01674 4.63178C7.03104 4.61748 7.05043 4.60945 7.07065 4.60945H7.83307C7.85329 4.60945 7.87269 4.61748 7.88698 4.63178C7.90128 4.64608 7.90932 4.66547 7.90932 4.68569V5.44812C7.90932 5.46834 7.90128 5.48773 7.88698 5.50203C7.87269 5.51633 7.85329 5.52436 7.83307 5.52436H7.07065C7.05043 5.52436 7.03104 5.51633 7.01674 5.50203C7.00244 5.48773 6.99441 5.46834 6.99441 5.44812V4.68569ZM6.99441 6.21054C6.99441 6.19032 7.00244 6.17093 7.01674 6.15663C7.03104 6.14233 7.05043 6.1343 7.07065 6.1343H7.83307C7.85329 6.1343 7.87269 6.14233 7.88698 6.15663C7.90128 6.17093 7.90932 6.19032 7.90932 6.21054V6.97296C7.90932 6.99318 7.90128 7.01258 7.88698 7.02688C7.87269 7.04117 7.85329 7.04921 7.83307 7.04921H7.07065C7.05043 7.04921 7.03104 7.04117 7.01674 7.02688C7.00244 7.01258 6.99441 6.99318 6.99441 6.97296V6.21054ZM5.46956 4.68569C5.46956 4.66547 5.47759 4.64608 5.49189 4.63178C5.50619 4.61748 5.52558 4.60945 5.5458 4.60945H6.30823C6.32845 4.60945 6.34784 4.61748 6.36214 4.63178C6.37644 4.64608 6.38447 4.66547 6.38447 4.68569V5.44812C6.38447 5.46834 6.37644 5.48773 6.36214 5.50203C6.34784 5.51633 6.32845 5.52436 6.30823 5.52436H5.5458C5.52558 5.52436 5.50619 5.51633 5.49189 5.50203C5.47759 5.48773 5.46956 5.46834 5.46956 5.44812V4.68569ZM5.46956 6.21054C5.46956 6.19032 5.47759 6.17093 5.49189 6.15663C5.50619 6.14233 5.52558 6.1343 5.5458 6.1343H6.30823C6.32845 6.1343 6.34784 6.14233 6.36214 6.15663C6.37644 6.17093 6.38447 6.19032 6.38447 6.21054V6.97296C6.38447 6.99318 6.37644 7.01258 6.36214 7.02688C6.34784 7.04117 6.32845 7.04921 6.30823 7.04921H5.5458C5.52558 7.04921 5.50619 7.04117 5.49189 7.02688C5.47759 7.01258 5.46956 6.99318 5.46956 6.97296V6.21054ZM5.46956 7.73539C5.46956 7.71517 5.47759 7.69577 5.49189 7.68148C5.50619 7.66718 5.52558 7.65914 5.5458 7.65914H6.30823C6.32845 7.65914 6.34784 7.66718 6.36214 7.68148C6.37644 7.69577 6.38447 7.71517 6.38447 7.73539V8.49781C6.38447 8.51803 6.37644 8.53742 6.36214 8.55172C6.34784 8.56602 6.32845 8.57405 6.30823 8.57405H5.5458C5.52558 8.57405 5.50619 8.56602 5.49189 8.55172C5.47759 8.53742 5.46956 8.51803 5.46956 8.49781V7.73539ZM3.94471 6.21054C3.94471 6.19032 3.95275 6.17093 3.96704 6.15663C3.98134 6.14233 4.00073 6.1343 4.02096 6.1343H4.78338C4.8036 6.1343 4.82299 6.14233 4.83729 6.15663C4.85159 6.17093 4.85962 6.19032 4.85962 6.21054V6.97296C4.85962 6.99318 4.85159 7.01258 4.83729 7.02688C4.82299 7.04117 4.8036 7.04921 4.78338 7.04921H4.02096C4.00073 7.04921 3.98134 7.04117 3.96704 7.02688C3.95275 7.01258 3.94471 6.99318 3.94471 6.97296V6.21054ZM3.94471 7.73539C3.94471 7.71517 3.95275 7.69577 3.96704 7.68148C3.98134 7.66718 4.00073 7.65914 4.02096 7.65914H4.78338C4.8036 7.65914 4.82299 7.66718 4.83729 7.68148C4.85159 7.69577 4.85962 7.71517 4.85962 7.73539V8.49781C4.85962 8.51803 4.85159 8.53742 4.83729 8.55172C4.82299 8.56602 4.8036 8.57405 4.78338 8.57405H4.02096C4.00073 8.57405 3.98134 8.56602 3.96704 8.55172C3.95275 8.53742 3.94471 8.51803 3.94471 8.49781V7.73539ZM2.41987 6.21054C2.41987 6.19032 2.4279 6.17093 2.4422 6.15663C2.4565 6.14233 2.47589 6.1343 2.49611 6.1343H3.25853C3.27875 6.1343 3.29815 6.14233 3.31244 6.15663C3.32674 6.17093 3.33477 6.19032 3.33477 6.21054V6.97296C3.33477 6.99318 3.32674 7.01258 3.31244 7.02688C3.29815 7.04117 3.27875 7.04921 3.25853 7.04921H2.49611C2.47589 7.04921 2.4565 7.04117 2.4422 7.02688C2.4279 7.01258 2.41987 6.99318 2.41987 6.97296V6.21054ZM2.41987 7.73539C2.41987 7.71517 2.4279 7.69577 2.4422 7.68148C2.4565 7.66718 2.47589 7.65914 2.49611 7.65914H3.25853C3.27875 7.65914 3.29815 7.66718 3.31244 7.68148C3.32674 7.69577 3.33477 7.71517 3.33477 7.73539V8.49781C3.33477 8.51803 3.32674 8.53742 3.31244 8.55172C3.29815 8.56602 3.27875 8.57405 3.25853 8.57405H2.49611C2.47589 8.57405 2.4565 8.56602 2.4422 8.55172C2.4279 8.53742 2.41987 8.51803 2.41987 8.49781V7.73539Z" fill="black"/>
<path d="M8.97671 1.8647H7.91084V1.25476H6.99593V1.8647H3.33325V1.25476H2.41834V1.8647H1.35247C1.29263 1.8642 1.23328 1.87554 1.17783 1.89808C1.12239 1.92061 1.07196 1.9539 1.02944 1.99601C0.986914 2.03813 0.953146 2.08824 0.930077 2.14346C0.907007 2.19868 0.895093 2.25792 0.89502 2.31777V3.38955H9.43416V2.31777C9.43409 2.25792 9.42217 2.19868 9.3991 2.14346C9.37603 2.08824 9.34227 2.03813 9.29975 1.99601C9.25722 1.9539 9.20679 1.92061 9.15135 1.89808C9.09591 1.87554 9.03655 1.8642 8.97671 1.8647Z" fill="black"/>
</g>
<defs>
<clipPath id="clip0_201_9570">
<rect width="9.75902" height="9.75902" fill="white" transform="translate(0.285156 0.644897)"/>
</clipPath>
</defs>
</svg>
