<svg width="11" height="11" viewBox="0 0 11 11" fill="none" xmlns="http://www.w3.org/2000/svg">
<g clip-path="url(#clip0_201_9556)">
<path d="M8.80531 2.16968H2.70592C2.20063 2.16968 1.79102 2.5793 1.79102 3.08459V8.57404C1.79102 9.07933 2.20063 9.48894 2.70592 9.48894H8.80531C9.3106 9.48894 9.72022 9.07933 9.72022 8.57404V3.08459C9.72022 2.5793 9.3106 2.16968 8.80531 2.16968Z" stroke="black" stroke-width="0.609939" stroke-linejoin="round"/>
<path d="M6.518 5.52441C6.77065 5.52441 6.97546 5.3196 6.97546 5.06695C6.97546 4.81431 6.77065 4.6095 6.518 4.6095C6.26536 4.6095 6.06055 4.81431 6.06055 5.06695C6.06055 5.3196 6.26536 5.52441 6.518 5.52441Z" fill="black"/>
<path d="M8.0429 5.52441C8.29555 5.52441 8.50036 5.3196 8.50036 5.06695C8.50036 4.81431 8.29555 4.6095 8.0429 4.6095C7.79026 4.6095 7.58545 4.81431 7.58545 5.06695C7.58545 5.3196 7.79026 5.52441 8.0429 5.52441Z" fill="black"/>
<path d="M6.518 7.04919C6.77065 7.04919 6.97546 6.84438 6.97546 6.59173C6.97546 6.33909 6.77065 6.13428 6.518 6.13428C6.26536 6.13428 6.06055 6.33909 6.06055 6.59173C6.06055 6.84438 6.26536 7.04919 6.518 7.04919Z" fill="black"/>
<path d="M8.0429 7.04919C8.29555 7.04919 8.50036 6.84438 8.50036 6.59173C8.50036 6.33909 8.29555 6.13428 8.0429 6.13428C7.79026 6.13428 7.58545 6.33909 7.58545 6.59173C7.58545 6.84438 7.79026 7.04919 8.0429 7.04919Z" fill="black"/>
<path d="M3.4682 7.04919C3.72084 7.04919 3.92565 6.84438 3.92565 6.59173C3.92565 6.33909 3.72084 6.13428 3.4682 6.13428C3.21555 6.13428 3.01074 6.33909 3.01074 6.59173C3.01074 6.84438 3.21555 7.04919 3.4682 7.04919Z" fill="black"/>
<path d="M4.9931 7.04919C5.24574 7.04919 5.45055 6.84438 5.45055 6.59173C5.45055 6.33909 5.24574 6.13428 4.9931 6.13428C4.74045 6.13428 4.53564 6.33909 4.53564 6.59173C4.53564 6.84438 4.74045 7.04919 4.9931 7.04919Z" fill="black"/>
<path d="M3.4682 8.57409C3.72084 8.57409 3.92565 8.36928 3.92565 8.11663C3.92565 7.86399 3.72084 7.65918 3.4682 7.65918C3.21555 7.65918 3.01074 7.86399 3.01074 8.11663C3.01074 8.36928 3.21555 8.57409 3.4682 8.57409Z" fill="black"/>
<path d="M4.9931 8.57409C5.24574 8.57409 5.45055 8.36928 5.45055 8.11663C5.45055 7.86399 5.24574 7.65918 4.9931 7.65918C4.74045 7.65918 4.53564 7.86399 4.53564 8.11663C4.53564 8.36928 4.74045 8.57409 4.9931 8.57409Z" fill="black"/>
<path d="M6.518 8.57409C6.77065 8.57409 6.97546 8.36928 6.97546 8.11663C6.97546 7.86399 6.77065 7.65918 6.518 7.65918C6.26536 7.65918 6.06055 7.86399 6.06055 8.11663C6.06055 8.36928 6.26536 8.57409 6.518 8.57409Z" fill="black"/>
<path d="M3.31592 1.55981V2.16975" stroke="black" stroke-width="0.609939" stroke-linecap="round" stroke-linejoin="round"/>
<path d="M8.19531 1.55981V2.16975" stroke="black" stroke-width="0.609939" stroke-linecap="round" stroke-linejoin="round"/>
<path d="M9.72022 3.69458H1.79102" stroke="black" stroke-width="0.609939" stroke-linejoin="round"/>
</g>
<defs>
<clipPath id="clip0_201_9556">
<rect width="9.75902" height="9.75902" fill="white" transform="translate(0.875977 0.644897)"/>
</clipPath>
</defs>
</svg>
