<svg width="11" height="11" viewBox="0 0 11 11" fill="none" xmlns="http://www.w3.org/2000/svg">
<path d="M8.5768 2.16968H2.47741C1.97212 2.16968 1.5625 2.5793 1.5625 3.08459V8.57404C1.5625 9.07933 1.97212 9.48894 2.47741 9.48894H8.5768C9.08209 9.48894 9.4917 9.07933 9.4917 8.57404V3.08459C9.4917 2.5793 9.08209 2.16968 8.5768 2.16968Z" stroke="black" stroke-width="0.609939" stroke-linejoin="round"/>
<path d="M3.0874 1.55981V2.16975" stroke="black" stroke-width="0.609939" stroke-linecap="round" stroke-linejoin="round"/>
<path d="M7.9668 1.55981V2.16975" stroke="black" stroke-width="0.609939" stroke-linecap="round" stroke-linejoin="round"/>
<path d="M9.4917 3.69458H1.5625" stroke="black" stroke-width="0.609939" stroke-linecap="round" stroke-linejoin="round"/>
<path d="M6.44189 5.60066L7.26951 4.99072H7.3568V8.1929" stroke="black" stroke-width="0.609939" stroke-linecap="round" stroke-linejoin="round"/>
<path d="M4.30473 6.48941C4.47837 6.48941 4.7963 6.40783 5.00463 6.19454C5.07287 6.12646 5.12679 6.04542 5.16322 5.95619C5.19966 5.86695 5.21787 5.77133 5.21677 5.67495C5.21677 5.17708 4.7862 4.91443 4.30396 4.91443C3.89607 4.91443 3.66505 5.13572 3.58252 5.27525" stroke="black" stroke-width="0.609939" stroke-linecap="round" stroke-linejoin="round"/>
<path d="M3.4873 7.77654C3.58032 7.93417 3.86299 8.26907 4.32368 8.26907C4.86863 8.26907 5.31712 7.96524 5.31712 7.43383C5.31712 7.19329 5.24736 6.97638 5.0964 6.82256C4.86081 6.58163 4.50076 6.48938 4.30443 6.48938" stroke="black" stroke-width="0.609939" stroke-linecap="round" stroke-linejoin="round"/>
</svg>
