<svg width="11" height="11" viewBox="0 0 11 11" fill="none" xmlns="http://www.w3.org/2000/svg">
<path d="M1.43848 9.33668C1.43848 9.45801 1.48667 9.57436 1.57246 9.66015C1.65825 9.74594 1.77461 9.79414 1.89593 9.79414H9.52016C9.64149 9.79414 9.75784 9.74594 9.84363 9.66015C9.92942 9.57436 9.97762 9.45801 9.97762 9.33668V4.30469H1.43848V9.33668Z" fill="black"/>
<path d="M9.97762 2.31789C9.97755 2.25804 9.96563 2.1988 9.94256 2.14358C9.91949 2.08836 9.88572 2.03825 9.8432 1.99613C9.80068 1.95402 9.75025 1.92074 9.69481 1.8982C9.63936 1.87566 9.58001 1.86432 9.52016 1.86482H8.4543V1.25488H7.53939V1.86482H3.87671V1.25488H2.9618V1.86482H1.89593C1.83609 1.86432 1.77673 1.87566 1.72129 1.8982C1.66585 1.92074 1.61541 1.95402 1.57289 1.99613C1.53037 2.03825 1.4966 2.08836 1.47353 2.14358C1.45046 2.1988 1.43855 2.25804 1.43848 2.31789V3.38967H9.97762V2.31789Z" fill="black"/>
</svg>
