<svg width="11" height="11" viewBox="0 0 11 11" fill="none" xmlns="http://www.w3.org/2000/svg">
<path d="M9.84383 3.08455C9.84383 2.76102 9.71531 2.45074 9.48654 2.22197C9.25776 1.99319 8.94748 1.86467 8.62395 1.86467H8.31898V1.56828C8.31898 1.40417 8.1928 1.26331 8.02869 1.25511C7.98746 1.25313 7.94625 1.25953 7.90756 1.27394C7.86888 1.28835 7.83352 1.31047 7.80363 1.33895C7.77374 1.36743 7.74995 1.40168 7.73369 1.43962C7.71743 1.47757 7.70905 1.51842 7.70904 1.5597V1.86467H3.43947V1.56828C3.43947 1.40417 3.31329 1.26331 3.14918 1.25511C3.10795 1.25313 3.06674 1.25953 3.02805 1.27394C2.98937 1.28835 2.95401 1.31047 2.92412 1.33895C2.89423 1.36743 2.87044 1.40168 2.85418 1.43962C2.83792 1.47757 2.82954 1.51842 2.82953 1.5597V1.86467H2.52456C2.20103 1.86467 1.89075 1.99319 1.66198 2.22197C1.43321 2.45074 1.30469 2.76102 1.30469 3.08455V3.31328C1.30469 3.3335 1.31272 3.35289 1.32702 3.36719C1.34132 3.38149 1.36071 3.38952 1.38093 3.38952H9.76759C9.78781 3.38952 9.8072 3.38149 9.8215 3.36719C9.8358 3.35289 9.84383 3.3335 9.84383 3.31328V3.08455Z" fill="black"/>
<path d="M1.30469 8.57405C1.30469 8.89758 1.43321 9.20786 1.66198 9.43664C1.89075 9.66541 2.20103 9.79393 2.52456 9.79393H8.62395C8.94748 9.79393 9.25776 9.66541 9.48654 9.43664C9.71531 9.20786 9.84383 8.89758 9.84383 8.57405V4.05669C9.84383 4.04153 9.8378 4.02698 9.82708 4.01626C9.81636 4.00554 9.80181 3.99951 9.78665 3.99951H1.36187C1.3467 3.99951 1.33216 4.00554 1.32144 4.01626C1.31071 4.02698 1.30469 4.04153 1.30469 4.05669V8.57405ZM7.86153 4.60945C7.952 4.60945 8.04045 4.63628 8.11568 4.68655C8.1909 4.73681 8.24954 4.80826 8.28416 4.89184C8.31878 4.97543 8.32784 5.06741 8.31019 5.15615C8.29254 5.24489 8.24897 5.3264 8.185 5.39037C8.12102 5.45435 8.03951 5.49792 7.95077 5.51557C7.86204 5.53322 7.77006 5.52416 7.68647 5.48954C7.60288 5.45491 7.53144 5.39628 7.48117 5.32105C7.4309 5.24582 7.40407 5.15738 7.40407 5.0669C7.40407 4.94558 7.45227 4.82922 7.53806 4.74344C7.62385 4.65765 7.7402 4.60945 7.86153 4.60945ZM7.86153 6.1343C7.952 6.1343 8.04045 6.16113 8.11568 6.21139C8.1909 6.26166 8.24954 6.3331 8.28416 6.41669C8.31878 6.50028 8.32784 6.59226 8.31019 6.681C8.29254 6.76973 8.24897 6.85124 8.185 6.91522C8.12102 6.9792 8.03951 7.02276 7.95077 7.04042C7.86204 7.05807 7.77006 7.04901 7.68647 7.01438C7.60288 6.97976 7.53144 6.92113 7.48117 6.8459C7.4309 6.77067 7.40407 6.68223 7.40407 6.59175C7.40407 6.47043 7.45227 6.35407 7.53806 6.26828C7.62385 6.18249 7.7402 6.1343 7.86153 6.1343ZM6.33668 4.60945C6.42716 4.60945 6.5156 4.63628 6.59083 4.68655C6.66606 4.73681 6.72469 4.80826 6.75931 4.89184C6.79394 4.97543 6.803 5.06741 6.78535 5.15615C6.7677 5.24489 6.72413 5.3264 6.66015 5.39037C6.59617 5.45435 6.51466 5.49792 6.42593 5.51557C6.33719 5.53322 6.24521 5.52416 6.16162 5.48954C6.07803 5.45491 6.00659 5.39628 5.95632 5.32105C5.90606 5.24582 5.87923 5.15738 5.87923 5.0669C5.87923 4.94558 5.92742 4.82922 6.01321 4.74344C6.099 4.65765 6.21536 4.60945 6.33668 4.60945ZM6.33668 6.1343C6.42716 6.1343 6.5156 6.16113 6.59083 6.21139C6.66606 6.26166 6.72469 6.3331 6.75931 6.41669C6.79394 6.50028 6.803 6.59226 6.78535 6.681C6.7677 6.76973 6.72413 6.85124 6.66015 6.91522C6.59617 6.9792 6.51466 7.02276 6.42593 7.04042C6.33719 7.05807 6.24521 7.04901 6.16162 7.01438C6.07803 6.97976 6.00659 6.92113 5.95632 6.8459C5.90606 6.77067 5.87923 6.68223 5.87923 6.59175C5.87923 6.47043 5.92742 6.35407 6.01321 6.26828C6.099 6.18249 6.21536 6.1343 6.33668 6.1343ZM6.33668 7.65914C6.42716 7.65914 6.5156 7.68597 6.59083 7.73624C6.66606 7.78651 6.72469 7.85795 6.75931 7.94154C6.79394 8.02513 6.803 8.11711 6.78535 8.20584C6.7677 8.29458 6.72413 8.37609 6.66015 8.44007C6.59617 8.50404 6.51466 8.54761 6.42593 8.56526C6.33719 8.58291 6.24521 8.57385 6.16162 8.53923C6.07803 8.50461 6.00659 8.44597 5.95632 8.37075C5.90606 8.29552 5.87923 8.20707 5.87923 8.1166C5.87923 7.99527 5.92742 7.87892 6.01321 7.79313C6.099 7.70734 6.21536 7.65914 6.33668 7.65914ZM4.81184 6.1343C4.90231 6.1343 4.99076 6.16113 5.06598 6.21139C5.14121 6.26166 5.19984 6.3331 5.23447 6.41669C5.26909 6.50028 5.27815 6.59226 5.2605 6.681C5.24285 6.76973 5.19928 6.85124 5.1353 6.91522C5.07133 6.9792 4.98982 7.02276 4.90108 7.04042C4.81234 7.05807 4.72036 7.04901 4.63678 7.01438C4.55319 6.97976 4.48174 6.92113 4.43148 6.8459C4.38121 6.77067 4.35438 6.68223 4.35438 6.59175C4.35438 6.47043 4.40258 6.35407 4.48837 6.26828C4.57416 6.18249 4.69051 6.1343 4.81184 6.1343ZM4.81184 7.65914C4.90231 7.65914 4.99076 7.68597 5.06598 7.73624C5.14121 7.78651 5.19984 7.85795 5.23447 7.94154C5.26909 8.02513 5.27815 8.11711 5.2605 8.20584C5.24285 8.29458 5.19928 8.37609 5.1353 8.44007C5.07133 8.50404 4.98982 8.54761 4.90108 8.56526C4.81234 8.58291 4.72036 8.57385 4.63678 8.53923C4.55319 8.50461 4.48174 8.44597 4.43148 8.37075C4.38121 8.29552 4.35438 8.20707 4.35438 8.1166C4.35438 7.99527 4.40258 7.87892 4.48837 7.79313C4.57416 7.70734 4.69051 7.65914 4.81184 7.65914ZM3.28699 6.1343C3.37746 6.1343 3.46591 6.16113 3.54114 6.21139C3.61636 6.26166 3.675 6.3331 3.70962 6.41669C3.74424 6.50028 3.7533 6.59226 3.73565 6.681C3.718 6.76973 3.67443 6.85124 3.61046 6.91522C3.54648 6.9792 3.46497 7.02276 3.37623 7.04042C3.2875 7.05807 3.19552 7.04901 3.11193 7.01438C3.02834 6.97976 2.95689 6.92113 2.90663 6.8459C2.85636 6.77067 2.82953 6.68223 2.82953 6.59175C2.82953 6.47043 2.87773 6.35407 2.96352 6.26828C3.04931 6.18249 3.16566 6.1343 3.28699 6.1343ZM3.28699 7.65914C3.37746 7.65914 3.46591 7.68597 3.54114 7.73624C3.61636 7.78651 3.675 7.85795 3.70962 7.94154C3.74424 8.02513 3.7533 8.11711 3.73565 8.20584C3.718 8.29458 3.67443 8.37609 3.61046 8.44007C3.54648 8.50404 3.46497 8.54761 3.37623 8.56526C3.2875 8.58291 3.19552 8.57385 3.11193 8.53923C3.02834 8.50461 2.95689 8.44597 2.90663 8.37075C2.85636 8.29552 2.82953 8.20707 2.82953 8.1166C2.82953 7.99527 2.87773 7.87892 2.96352 7.79313C3.04931 7.70734 3.16566 7.65914 3.28699 7.65914Z" fill="black"/>
</svg>
