<svg width="11" height="11" viewBox="0 0 11 11" fill="none" xmlns="http://www.w3.org/2000/svg">
<g clip-path="url(#clip0_201_9580)">
<path d="M8.37604 9.79385C8.00397 9.79385 7.48133 9.65928 6.6987 9.22203C5.74701 8.68833 5.01089 8.19562 4.06434 7.25155C3.15172 6.3395 2.70761 5.749 2.08604 4.61795C1.38385 3.34089 1.50355 2.67148 1.63736 2.38538C1.7967 2.04343 2.03191 1.83891 2.33593 1.63592C2.50861 1.52278 2.69134 1.4258 2.88182 1.3462C2.90088 1.338 2.91861 1.33019 2.93443 1.32313C3.02878 1.28063 3.17173 1.21639 3.35281 1.28501C3.47365 1.33038 3.58154 1.4232 3.75041 1.58998C4.09674 1.93155 4.57002 2.69226 4.74461 3.06584C4.86183 3.31763 4.93941 3.48384 4.9396 3.67025C4.9396 3.8885 4.82981 4.0568 4.69658 4.23845C4.67161 4.27257 4.64683 4.30516 4.62281 4.3368C4.47776 4.52741 4.44593 4.58249 4.4669 4.68085C4.5094 4.8785 4.82638 5.46691 5.34731 5.98669C5.86823 6.50647 6.43967 6.80343 6.63809 6.84575C6.74064 6.86767 6.79687 6.8345 6.99357 6.6843C7.02178 6.66277 7.05075 6.64047 7.08106 6.61817C7.28425 6.46701 7.44474 6.36008 7.65783 6.36008H7.65898C7.84444 6.36008 8.00321 6.44052 8.26625 6.57318C8.60934 6.74625 9.39292 7.21343 9.73658 7.56014C9.90374 7.72863 9.99695 7.83614 10.0425 7.95679C10.1111 8.13844 10.0465 8.28082 10.0044 8.37612C9.99733 8.39194 9.98951 8.40929 9.98132 8.42854C9.90109 8.61868 9.80353 8.80103 9.68988 8.97329C9.48727 9.27635 9.28198 9.51099 8.93928 9.67053C8.76329 9.75377 8.5707 9.79594 8.37604 9.79385Z" fill="black"/>
</g>
<defs>
<clipPath id="clip0_201_9580">
<rect width="9.75902" height="9.75902" fill="white" transform="translate(0.92334 0.644897)"/>
</clipPath>
</defs>
</svg>
