<svg width="11" height="11" viewBox="0 0 11 11" fill="none" xmlns="http://www.w3.org/2000/svg">
<path d="M9.64246 7.69991C9.54296 7.59393 9.19168 7.28057 8.5459 6.86601C7.89537 6.44782 7.41561 6.18707 7.27799 6.12626C7.26587 6.12088 7.2525 6.11891 7.23934 6.12056C7.22617 6.1222 7.21371 6.1274 7.20328 6.1356C6.9816 6.30848 6.6084 6.62603 6.58838 6.64319C6.45915 6.75393 6.45915 6.75393 6.35337 6.71943C6.16733 6.65844 5.58942 6.35156 5.08584 5.84684C4.58226 5.34211 4.25956 4.7499 4.19857 4.56406C4.16368 4.45808 4.16368 4.45808 4.27481 4.32885C4.29196 4.30884 4.6097 3.93563 4.78258 3.71415C4.79078 3.70372 4.79598 3.69125 4.79763 3.67809C4.79927 3.66492 4.7973 3.65156 4.79192 3.63943C4.73112 3.50162 4.47037 3.02206 4.05218 2.37152C3.63704 1.72594 3.32407 1.37465 3.21809 1.27515C3.20836 1.26598 3.19634 1.25959 3.18329 1.25667C3.17025 1.25376 3.15665 1.25441 3.14394 1.25857C2.7735 1.38587 2.41607 1.54831 2.07655 1.74366C1.74879 1.9342 1.43849 2.15329 1.14925 2.39839C1.13916 2.40698 1.13159 2.41815 1.12736 2.43071C1.12312 2.44327 1.12239 2.45674 1.12524 2.46968C1.16507 2.65533 1.35549 3.43034 1.94637 4.50383C2.54925 5.59943 2.96706 6.16076 3.85243 7.04308C4.73779 7.92539 5.31685 8.36836 6.4136 8.97125C7.48709 9.56213 8.26247 9.75273 8.44774 9.79219C8.46072 9.795 8.47421 9.79426 8.48679 9.79003C8.49938 9.7858 8.51058 9.77825 8.51922 9.76817C8.76428 9.47895 8.98331 9.16864 9.17376 8.84087C9.36908 8.50133 9.53151 8.14391 9.65885 7.77348C9.66293 7.76087 9.66356 7.7474 9.66067 7.73446C9.65779 7.72153 9.6515 7.7096 9.64246 7.69991Z" fill="black"/>
</svg>
