<svg width="11" height="11" viewBox="0 0 11 11" fill="none" xmlns="http://www.w3.org/2000/svg">
<g clip-path="url(#clip0_201_9582)">
<path d="M7.01415 3.47884L6.50676 2.67715C6.39983 2.5525 6.25325 2.47473 6.08895 2.47473H4.33537C4.17107 2.47473 4.0245 2.5525 3.91757 2.67715L3.41017 3.47884C3.30324 3.60369 3.16543 3.69461 3.00113 3.69461H1.8575C1.69573 3.69461 1.54059 3.75887 1.42621 3.87326C1.31182 3.98764 1.24756 4.14278 1.24756 4.30455V7.96418C1.24756 8.12595 1.31182 8.28109 1.42621 8.39547C1.54059 8.50986 1.69573 8.57412 1.8575 8.57412H8.56682C8.72859 8.57412 8.88373 8.50986 8.99812 8.39547C9.1125 8.28109 9.17676 8.12595 9.17676 7.96418V4.30455C9.17676 4.14278 9.1125 3.98764 8.99812 3.87326C8.88373 3.75887 8.72859 3.69461 8.56682 3.69461H7.44225C7.27737 3.69461 7.12108 3.60369 7.01415 3.47884Z" stroke="black" stroke-width="0.609939" stroke-linecap="round" stroke-linejoin="round"/>
<path d="M5.21186 7.35414C6.05401 7.35414 6.73671 6.67144 6.73671 5.82929C6.73671 4.98714 6.05401 4.30444 5.21186 4.30444C4.36971 4.30444 3.68701 4.98714 3.68701 5.82929C3.68701 6.67144 4.36971 7.35414 5.21186 7.35414Z" stroke="black" stroke-width="0.609939" stroke-miterlimit="10"/>
<path d="M2.69622 3.65639V3.23706H2.23877V3.65639" stroke="black" stroke-width="0.609939" stroke-linecap="round" stroke-linejoin="round"/>
</g>
<defs>
<clipPath id="clip0_201_9582">
<rect width="9.75902" height="9.75902" fill="white" transform="translate(0.33252 0.644897)"/>
</clipPath>
</defs>
</svg>
