<svg width="10" height="11" viewBox="0 0 10 11" fill="none" xmlns="http://www.w3.org/2000/svg">
<g clip-path="url(#clip0_201_9592)">
<path d="M8.84292 3.38956H7.26089C7.20371 3.38956 7.1328 3.35258 7.07753 3.29425L6.55698 2.47865C6.36504 2.16968 6.25068 2.16968 5.90759 2.16968H4.15401C3.81092 2.16968 3.71562 2.16968 3.50462 2.47865L2.98408 3.29425C2.94176 3.34038 2.88229 3.38956 2.81977 3.38956V3.08459C2.81977 3.04414 2.80371 3.00536 2.77511 2.97676C2.74652 2.94817 2.70773 2.9321 2.66729 2.9321H1.90487C1.86442 2.9321 1.82564 2.94817 1.79704 2.97676C1.76845 3.00536 1.75238 3.04414 1.75238 3.08459V3.38956H1.21868C1.09736 3.38956 0.981005 3.43775 0.895216 3.52354C0.809426 3.60933 0.76123 3.72569 0.76123 3.84701V8.42155C0.76123 8.54287 0.809426 8.65923 0.895216 8.74502C0.981005 8.83081 1.09736 8.879 1.21868 8.879H8.84292C8.96424 8.879 9.0806 8.83081 9.16639 8.74502C9.25218 8.65923 9.30037 8.54287 9.30037 8.42155V3.84701C9.30037 3.72569 9.25218 3.60933 9.16639 3.52354C9.0806 3.43775 8.96424 3.38956 8.84292 3.38956ZM5.0308 7.65913C4.11932 7.65913 3.35804 7.00668 3.22005 6.13428H2.38843L3.50595 5.01676L4.62348 6.13428H3.84905C3.90045 6.33272 4.00099 6.51503 4.14138 6.66439C4.28177 6.81376 4.45751 6.92539 4.65239 6.98898C4.84726 7.05257 5.05501 7.06608 5.25649 7.02827C5.45796 6.99046 5.64667 6.90254 5.80523 6.77262L6.25068 7.18261L6.18054 7.25352C5.85444 7.51531 5.44898 7.65835 5.0308 7.65913ZM6.55565 6.63291L5.43317 5.52434H6.21256C6.16054 5.32546 6.0593 5.14287 5.91817 4.99339C5.77704 4.84392 5.60056 4.73237 5.40499 4.66903C5.20942 4.60569 5.00105 4.59259 4.79908 4.63094C4.59712 4.66929 4.40806 4.75786 4.24932 4.88848L3.81092 4.45695L3.87077 4.41025C4.19736 4.14477 4.60535 3.99973 5.02623 3.99949C5.93828 3.99949 6.6845 4.65118 6.8225 5.52434H7.6787L6.55565 6.63291Z" fill="black"/>
</g>
<defs>
<clipPath id="clip0_201_9592">
<rect width="9.75902" height="9.75902" fill="white" transform="translate(0.151367 0.644897)"/>
</clipPath>
</defs>
</svg>
