<svg width="11" height="11" viewBox="0 0 11 11" fill="none" xmlns="http://www.w3.org/2000/svg">
<g clip-path="url(#clip0_201_9596)">
<path d="M5.84976 7.04925C6.52348 7.04925 7.06964 6.50309 7.06964 5.82937C7.06964 5.15565 6.52348 4.6095 5.84976 4.6095C5.17604 4.6095 4.62988 5.15565 4.62988 5.82937C4.62988 6.50309 5.17604 7.04925 5.84976 7.04925Z" fill="black"/>
<path d="M9.66177 3.38956H8.07974C8.02256 3.38956 7.95165 3.35258 7.89638 3.29425L7.3764 2.47846C7.16483 2.16968 7.06953 2.16968 6.72644 2.16968H4.97286C4.62977 2.16968 4.51541 2.16968 4.32347 2.47865L3.80292 3.29425C3.76061 3.34038 3.70114 3.38956 3.63862 3.38956V3.08459C3.63862 3.04414 3.62256 3.00536 3.59396 2.97676C3.56536 2.94817 3.52658 2.9321 3.48614 2.9321H2.72371C2.68327 2.9321 2.64449 2.94817 2.61589 2.97676C2.58729 3.00536 2.57123 3.04414 2.57123 3.08459V3.38956H2.03753C1.91621 3.38956 1.79985 3.43775 1.71406 3.52354C1.62827 3.60933 1.58008 3.72569 1.58008 3.84701V8.42155C1.58008 8.54287 1.62827 8.65923 1.71406 8.74502C1.79985 8.83081 1.91621 8.879 2.03753 8.879H9.66177C9.78309 8.879 9.89945 8.83081 9.98524 8.74502C10.071 8.65923 10.1192 8.54287 10.1192 8.42155V3.84701C10.1192 3.72569 10.071 3.60933 9.98524 3.52354C9.89945 3.43775 9.78309 3.38956 9.66177 3.38956ZM5.93561 7.65722C5.5668 7.67454 5.20137 7.57989 4.88734 7.38569C4.57332 7.1915 4.32539 6.90684 4.17613 6.56914C4.02687 6.23143 3.98326 5.85647 4.05104 5.49352C4.11881 5.13058 4.2948 4.79662 4.55588 4.53554C4.81696 4.27447 5.15091 4.09847 5.51386 4.0307C5.87681 3.96292 6.25177 4.00653 6.58948 4.15579C6.92718 4.30505 7.21183 4.55298 7.40603 4.86701C7.60023 5.18103 7.69488 5.54646 7.67756 5.91527C7.65572 6.37022 7.46518 6.80071 7.14311 7.12277C6.82105 7.44484 6.39056 7.63538 5.93561 7.65722Z" fill="black"/>
</g>
<defs>
<clipPath id="clip0_201_9596">
<rect width="9.75902" height="9.75902" fill="white" transform="translate(0.970215 0.644897)"/>
</clipPath>
</defs>
</svg>
