<svg width="11" height="11" viewBox="0 0 11 11" fill="none" xmlns="http://www.w3.org/2000/svg">
<g clip-path="url(#clip0_201_9611)">
<path d="M9.56073 5.11649C9.42102 4.93103 8.902 4.80333 8.68242 4.46957C8.46284 4.13582 8.2831 3.41305 7.72425 3.13533C7.16539 2.85762 6.09724 2.77966 5.4873 2.77966C4.87736 2.77966 3.80996 2.85591 3.25035 3.13476C2.69073 3.41362 2.51175 4.13582 2.29217 4.469C2.07259 4.80218 1.55357 4.93103 1.41386 5.11649C1.27414 5.30195 1.17579 6.47437 1.23564 7.04923C1.29549 7.6241 1.40719 7.96414 1.40719 7.96414H3.0464C3.31477 7.96414 3.40207 7.86331 3.95101 7.81166C4.55333 7.75448 5.14421 7.73542 5.4873 7.73542C5.83039 7.73542 6.44033 7.75448 7.04226 7.81166C7.5912 7.86369 7.68136 7.96414 7.94687 7.96414H9.56702C9.56702 7.96414 9.67872 7.6241 9.73857 7.04923C9.79842 6.47437 9.69969 5.30195 9.56073 5.11649Z" stroke="black" stroke-width="0.609939" stroke-linecap="round" stroke-linejoin="round"/>
<path d="M9.29933 7.96423H8.23193V8.2692H9.29933V7.96423Z" stroke="black" stroke-width="0.609939" stroke-linecap="round" stroke-linejoin="round"/>
<path d="M2.74269 7.96423H1.67529V8.2692H2.74269V7.96423Z" stroke="black" stroke-width="0.609939" stroke-linecap="round" stroke-linejoin="round"/>
<path d="M7.55482 6.53772C7.44217 6.40754 7.07506 6.29889 6.58902 6.22608C6.10297 6.15327 5.92571 6.1344 5.49113 6.1344C5.05655 6.1344 4.85889 6.16566 4.39305 6.22608C3.92721 6.2865 3.57744 6.394 3.42744 6.53772C3.20233 6.75577 3.53208 7.00051 3.79092 7.03025C4.04176 7.05884 4.54324 7.04835 5.49322 7.04835C6.4432 7.04835 6.94469 7.05884 7.19552 7.03025C7.45399 6.9988 7.7601 6.77102 7.55482 6.53772Z" fill="black"/>
<path d="M8.83403 5.27767C8.83296 5.26253 8.82633 5.24832 8.81543 5.23776C8.80452 5.22721 8.7901 5.22106 8.77494 5.22048C8.54983 5.21248 8.3213 5.22849 7.91588 5.348C7.70904 5.40838 7.51481 5.50563 7.34253 5.63505C7.29908 5.66898 7.31451 5.76066 7.36903 5.77038C7.70319 5.80958 8.03935 5.82931 8.37581 5.82947C8.57766 5.82947 8.78599 5.77229 8.82468 5.59236C8.84441 5.48861 8.84756 5.3824 8.83403 5.27767Z" fill="black"/>
<path d="M2.14106 5.27767C2.14213 5.26253 2.14875 5.24832 2.15966 5.23776C2.17056 5.22721 2.18498 5.22106 2.20015 5.22048C2.42525 5.21248 2.65379 5.22849 3.05921 5.348C3.26604 5.40838 3.46028 5.50563 3.63255 5.63505C3.67601 5.66898 3.66057 5.76066 3.60605 5.77038C3.27189 5.80958 2.93573 5.82931 2.59927 5.82947C2.39742 5.82947 2.18909 5.77229 2.1504 5.59236C2.13067 5.48861 2.12752 5.3824 2.14106 5.27767Z" fill="black"/>
<path d="M8.84229 4.30457H9.14725" stroke="black" stroke-width="0.609939" stroke-linecap="round" stroke-linejoin="round"/>
<path d="M1.82764 4.30457H2.13261" stroke="black" stroke-width="0.609939" stroke-linecap="round" stroke-linejoin="round"/>
<path d="M2.09473 4.66672C2.09473 4.66672 2.97818 4.43799 5.48751 4.43799C7.99684 4.43799 8.8803 4.66672 8.8803 4.66672" stroke="black" stroke-width="0.609939" stroke-linecap="round" stroke-linejoin="round"/>
</g>
<defs>
<clipPath id="clip0_201_9611">
<rect width="9.75902" height="9.75902" fill="white" transform="translate(0.60791 0.644897)"/>
</clipPath>
</defs>
</svg>
