<svg width="11" height="11" viewBox="0 0 11 11" fill="none" xmlns="http://www.w3.org/2000/svg">
<g clip-path="url(#clip0_201_9623)">
<path d="M9.84752 5.90983C9.7789 5.13959 9.66587 4.98959 9.62318 4.93317C9.52502 4.80279 9.36796 4.71759 9.20175 4.6282C9.19235 4.62323 9.18423 4.61614 9.17804 4.6075C9.17185 4.59885 9.16775 4.58889 9.16607 4.57839C9.16439 4.56789 9.16517 4.55715 9.16835 4.547C9.17153 4.53686 9.17703 4.52759 9.1844 4.51993C9.21518 4.48872 9.23884 4.45121 9.25375 4.40998C9.26865 4.36875 9.27445 4.32479 9.27075 4.2811C9.26358 4.20364 9.22756 4.13171 9.16984 4.07956C9.11211 4.02741 9.0369 3.99886 8.95911 3.99958H8.66176C8.64902 3.99965 8.63629 4.00048 8.62364 4.00206C8.61496 3.99829 8.60597 3.99529 8.59677 3.9931C8.42065 3.62084 8.17953 3.11116 7.67976 2.86242C6.9385 2.49379 5.57299 2.47473 5.30615 2.47473C5.0393 2.47473 3.6738 2.49379 2.93348 2.86185C2.43372 3.11059 2.1926 3.62027 2.01648 3.99253L2.01495 3.99558C2.00617 3.99681 1.99754 3.99898 1.98922 4.00206C1.97658 4.00048 1.96385 3.99965 1.9511 3.99958H1.65318C1.5754 3.99886 1.50018 4.02741 1.44246 4.07956C1.38473 4.13171 1.34871 4.20364 1.34154 4.2811C1.33816 4.32468 1.34422 4.36848 1.35932 4.4095C1.37442 4.45053 1.3982 4.4878 1.42903 4.51879C1.43641 4.52645 1.4419 4.53571 1.44509 4.54586C1.44827 4.556 1.44905 4.56675 1.44737 4.57725C1.44568 4.58775 1.44159 4.59771 1.43539 4.60635C1.4292 4.615 1.42109 4.62208 1.41169 4.62705C1.24548 4.71702 1.08766 4.80222 0.990258 4.93202C0.947562 4.9892 0.834723 5.13845 0.765914 5.90869C0.727793 6.34212 0.722075 6.79081 0.752 7.07977C0.81471 7.68018 0.932313 8.04309 0.937269 8.05815C0.955315 8.11295 0.988534 8.1615 1.03307 8.19817C1.0776 8.23485 1.13163 8.25814 1.18887 8.26534V8.26915C1.18887 8.35003 1.221 8.4276 1.27819 8.4848C1.33539 8.54199 1.41296 8.57412 1.49384 8.57412H2.56123C2.64211 8.57412 2.71968 8.54199 2.77688 8.4848C2.83407 8.4276 2.8662 8.35003 2.8662 8.26915C3.03031 8.26915 3.14449 8.2398 3.26552 8.20854C3.44026 8.16145 3.61888 8.13013 3.79922 8.11495C4.38075 8.05948 4.95905 8.04042 5.30615 8.04042C5.64619 8.04042 6.25003 8.05948 6.83252 8.11495C7.01357 8.13017 7.19289 8.16161 7.36831 8.20892C7.4842 8.23865 7.59418 8.2661 7.74647 8.26896C7.74647 8.34984 7.7786 8.42741 7.8358 8.48461C7.89299 8.5418 7.97056 8.57393 8.05144 8.57393H9.11884C9.19972 8.57393 9.27729 8.5418 9.33448 8.48461C9.39167 8.42741 9.42381 8.34984 9.42381 8.26896V8.26667C9.48118 8.25961 9.53537 8.23638 9.58005 8.1997C9.62473 8.16301 9.65806 8.11439 9.67617 8.05948C9.68112 8.04443 9.79873 7.68151 9.86144 7.0811C9.89136 6.79195 9.88602 6.34403 9.84752 5.90983ZM2.56771 4.25327C2.7202 3.92924 2.8946 3.56252 3.2051 3.40794C3.65378 3.18455 4.58375 3.08391 5.30615 3.08391C6.02854 3.08391 6.95851 3.18379 7.4072 3.40794C7.71769 3.56252 7.89133 3.92944 8.04458 4.25327L8.06364 4.29464C8.07479 4.31818 8.07971 4.34419 8.07795 4.37018C8.07619 4.39618 8.0678 4.42128 8.05358 4.44311C8.03936 4.46494 8.01978 4.48276 7.99672 4.49487C7.97366 4.50699 7.94787 4.51299 7.92183 4.51231C7.28845 4.49515 5.95421 4.44026 5.30615 4.44026C4.65809 4.44026 3.32385 4.49649 2.68951 4.51364C2.66347 4.51432 2.63768 4.50832 2.61462 4.49621C2.59156 4.48409 2.57198 4.46627 2.55776 4.44445C2.54354 4.42262 2.53515 4.39751 2.53339 4.37152C2.53162 4.34553 2.53655 4.31952 2.5477 4.29597C2.55437 4.28187 2.56142 4.26757 2.56771 4.25327ZM2.7951 5.77107C2.46723 5.81053 2.13725 5.83001 1.807 5.82939C1.60496 5.82939 1.39663 5.77221 1.35794 5.59228C1.33144 5.47125 1.3343 5.4032 1.3486 5.33477C1.3606 5.27664 1.37967 5.23432 1.47497 5.21946C1.72276 5.18133 1.86133 5.22918 2.26694 5.34869C2.53588 5.42779 2.72992 5.53319 2.84047 5.61668C2.89594 5.65785 2.86639 5.76535 2.7951 5.77107ZM7.01474 7.33404C6.7639 7.36263 6.26223 7.35215 5.31186 7.35215C4.3615 7.35215 3.86002 7.36263 3.60918 7.33404C3.35034 7.30526 3.0204 7.06052 3.2457 6.84246C3.3957 6.69875 3.74566 6.59125 4.21169 6.53082C4.67772 6.4704 4.875 6.43933 5.30996 6.43933C5.74492 6.43933 5.92218 6.45839 6.40823 6.53101C6.89427 6.60364 7.26157 6.71247 7.37422 6.84266C7.57969 7.07596 7.27339 7.30373 7.01474 7.33518V7.33404ZM9.25436 5.59209C9.21624 5.77278 9.00657 5.8292 8.80529 5.8292C8.46872 5.82928 8.13244 5.80981 7.79813 5.77088C7.7398 5.76535 7.71274 5.663 7.77182 5.61649C7.88066 5.53091 8.07679 5.4276 8.34536 5.3485C8.75097 5.22899 8.98484 5.18114 9.18574 5.22098C9.23472 5.2307 9.26065 5.28331 9.2637 5.31628C9.27714 5.4081 9.27398 5.50158 9.25436 5.59228V5.59209Z" fill="black"/>
</g>
<defs>
<clipPath id="clip0_201_9623">
<rect width="9.75902" height="9.75902" fill="white" transform="translate(0.426758 0.644897)"/>
</clipPath>
</defs>
</svg>
