<svg width="11" height="11" viewBox="0 0 11 11" fill="none" xmlns="http://www.w3.org/2000/svg">
<path d="M2.31396 4.91457L3.03407 3.23438C3.1513 2.96086 3.44998 2.77979 3.78373 2.77979H7.55353C7.88728 2.77979 8.18596 2.96086 8.30318 3.23438L9.02329 4.91457" stroke="black" stroke-width="0.609939" stroke-linecap="round" stroke-linejoin="round"/>
<path d="M9.02329 4.91455H2.31396V7.65928H9.02329V4.91455Z" stroke="black" stroke-width="0.609939" stroke-linecap="round" stroke-linejoin="round"/>
<path d="M2.9239 7.65918V8.26912H2.31396V7.65918" stroke="black" stroke-width="0.609939" stroke-linecap="round" stroke-linejoin="round"/>
<path d="M9.02302 7.65918V8.26912H8.41309V7.65918" stroke="black" stroke-width="0.609939" stroke-linecap="round" stroke-linejoin="round"/>
<path d="M3.53397 6.43941C3.7024 6.43941 3.83894 6.30287 3.83894 6.13444C3.83894 5.96601 3.7024 5.82947 3.53397 5.82947C3.36554 5.82947 3.229 5.96601 3.229 6.13444C3.229 6.30287 3.36554 6.43941 3.53397 6.43941Z" stroke="black" stroke-width="0.609939" stroke-linecap="round" stroke-linejoin="round"/>
<path d="M7.8035 6.43941C7.97193 6.43941 8.10847 6.30287 8.10847 6.13444C8.10847 5.96601 7.97193 5.82947 7.8035 5.82947C7.63507 5.82947 7.49854 5.96601 7.49854 6.13444C7.49854 6.30287 7.63507 6.43941 7.8035 6.43941Z" stroke="black" stroke-width="0.609939" stroke-linecap="round" stroke-linejoin="round"/>
</svg>
