<svg width="11" height="11" viewBox="0 0 11 11" fill="none" xmlns="http://www.w3.org/2000/svg">
<path d="M9.36932 4.85311C9.36497 4.83295 9.35858 4.81328 9.35026 4.7944L8.63015 3.11402C8.46413 2.72576 8.06024 2.47473 7.60069 2.47473H3.83089C3.37172 2.47473 2.96744 2.72576 2.80161 3.11402L2.08074 4.7944C2.06436 4.83231 2.05599 4.87319 2.05615 4.91449V8.26915C2.05615 8.35003 2.08829 8.4276 2.14548 8.4848C2.20267 8.54199 2.28024 8.57412 2.36112 8.57412H2.97106C3.05195 8.57412 3.12952 8.54199 3.18671 8.4848C3.2439 8.4276 3.27603 8.35003 3.27603 8.26915V7.96418H8.15554V8.26915C8.15554 8.35003 8.18767 8.4276 8.24487 8.4848C8.30206 8.54199 8.37963 8.57412 8.46051 8.57412H9.07045C9.15133 8.57412 9.2289 8.54199 9.2861 8.4848C9.34329 8.4276 9.37542 8.35003 9.37542 8.26915V4.91449C9.37545 4.89388 9.3734 4.87331 9.36932 4.85311ZM3.581 6.7443C3.46037 6.7443 3.34244 6.70853 3.24214 6.64151C3.14183 6.57449 3.06366 6.47923 3.01749 6.36778C2.97133 6.25633 2.95925 6.13369 2.98278 6.01537C3.00632 5.89705 3.06441 5.78837 3.14971 5.70307C3.23501 5.61777 3.34369 5.55968 3.46201 5.53615C3.58033 5.51261 3.70296 5.52469 3.81441 5.57085C3.92587 5.61702 4.02113 5.6952 4.08815 5.7955C4.15517 5.8958 4.19094 6.01373 4.19094 6.13436C4.19094 6.29613 4.12668 6.45127 4.01229 6.56566C3.89791 6.68004 3.74277 6.7443 3.581 6.7443ZM7.85057 6.7443C7.72994 6.7443 7.61201 6.70853 7.51171 6.64151C7.4114 6.57449 7.33323 6.47923 7.28706 6.36778C7.2409 6.25633 7.22882 6.13369 7.25235 6.01537C7.27589 5.89705 7.33398 5.78837 7.41928 5.70307C7.50458 5.61777 7.61326 5.55968 7.73158 5.53615C7.8499 5.51261 7.97253 5.52469 8.08399 5.57085C8.19544 5.61702 8.2907 5.6952 8.35772 5.7955C8.42474 5.8958 8.46051 6.01373 8.46051 6.13436C8.46051 6.29613 8.39625 6.45127 8.28186 6.56566C8.16748 6.68004 8.01234 6.7443 7.85057 6.7443ZM2.82353 4.60952L3.36161 3.35438C3.43061 3.19312 3.61912 3.08467 3.83089 3.08467H7.60069C7.81226 3.08467 8.00096 3.19312 8.06996 3.35438L8.60804 4.60952H2.82353Z" fill="black"/>
</svg>
