<svg width="11" height="11" viewBox="0 0 11 11" fill="none" xmlns="http://www.w3.org/2000/svg">
<path d="M1.26514 8.57422C1.26514 8.6551 1.29727 8.73267 1.35446 8.78987C1.41165 8.84706 1.48922 8.87919 1.57011 8.87919H9.49931C9.58019 8.87919 9.65776 8.84706 9.71496 8.78987C9.77215 8.73267 9.80428 8.6551 9.80428 8.57422V4.87646H1.26514V8.57422ZM2.52314 5.94386C2.52314 5.90342 2.5392 5.86463 2.5678 5.83603C2.59639 5.80744 2.63518 5.79137 2.67562 5.79137H4.42919C4.46964 5.79137 4.50842 5.80744 4.53702 5.83603C4.56561 5.86463 4.58168 5.90342 4.58168 5.94386V7.16374C4.58168 7.20418 4.56561 7.24296 4.53702 7.27156C4.50842 7.30015 4.46964 7.31622 4.42919 7.31622H2.67562C2.63518 7.31622 2.59639 7.30015 2.5678 7.27156C2.5392 7.24296 2.52314 7.20418 2.52314 7.16374V5.94386Z" fill="black"/>
<path d="M9.49931 2.1698H1.57011C1.48922 2.1698 1.41165 2.20193 1.35446 2.25912C1.29727 2.31632 1.26514 2.39389 1.26514 2.47477V3.73277H9.80428V2.47477C9.80428 2.39389 9.77215 2.31632 9.71496 2.25912C9.65776 2.20193 9.58019 2.1698 9.49931 2.1698Z" fill="black"/>
</svg>
