<svg width="10" height="11" viewBox="0 0 10 11" fill="none" xmlns="http://www.w3.org/2000/svg">
<g clip-path="url(#clip0_201_9634)">
<path d="M0.674316 7.8118C0.674316 8.09489 0.786774 8.36638 0.986948 8.56656C1.18712 8.76673 1.45862 8.87919 1.74171 8.87919H8.14607C8.42916 8.87919 8.70065 8.76673 8.90083 8.56656C9.101 8.36638 9.21346 8.09489 9.21346 7.8118V4.87646H0.674316V7.8118ZM1.93232 6.36319C1.93232 6.21154 1.99256 6.06609 2.0998 5.95885C2.20703 5.85162 2.35248 5.79137 2.50413 5.79137H3.41904C3.5707 5.79137 3.71614 5.85162 3.82338 5.95885C3.93061 6.06609 3.99086 6.21154 3.99086 6.36319V6.7444C3.99086 6.89606 3.93061 7.0415 3.82338 7.14874C3.71614 7.25598 3.5707 7.31622 3.41904 7.31622H2.50413C2.35248 7.31622 2.20703 7.25598 2.0998 7.14874C1.99256 7.0415 1.93232 6.89606 1.93232 6.7444V6.36319Z" fill="black"/>
<path d="M8.14607 2.1698H1.74171C1.45862 2.1698 1.18712 2.28226 0.986948 2.48243C0.786774 2.68261 0.674316 2.9541 0.674316 3.23719V3.73277H9.21346V3.23719C9.21346 2.9541 9.101 2.68261 8.90083 2.48243C8.70065 2.28226 8.42916 2.1698 8.14607 2.1698Z" fill="black"/>
</g>
<defs>
<clipPath id="clip0_201_9634">
<rect width="9.75902" height="9.75902" fill="white" transform="translate(0.0644531 0.644897)"/>
</clipPath>
</defs>
</svg>
