<svg width="11" height="11" viewBox="0 0 11 11" fill="none" xmlns="http://www.w3.org/2000/svg">
<path d="M7.45758 5.18575L6.04462 6.88386C6.016 6.91826 5.98016 6.94594 5.93964 6.96494C5.89912 6.98394 5.85492 6.99378 5.81017 6.99378C5.76542 6.99378 5.72122 6.98394 5.6807 6.96494C5.64019 6.94594 5.60435 6.91826 5.57573 6.88386L4.16277 5.18575C4.12573 5.14122 4.10215 5.08706 4.09477 5.02962C4.08739 4.97217 4.09652 4.91381 4.1211 4.86137C4.14567 4.80892 4.18467 4.76456 4.23353 4.73346C4.2824 4.70237 4.3391 4.68584 4.39702 4.68579H7.22332C7.28124 4.68584 7.33795 4.70237 7.38681 4.73346C7.43567 4.76456 7.47467 4.80892 7.49925 4.86137C7.52382 4.91381 7.53295 4.97217 7.52557 5.02962C7.51819 5.08706 7.49461 5.14122 7.45758 5.18575Z" fill="black"/>
<path d="M9.46966 5.5245C9.46966 3.50408 7.83045 1.86487 5.81002 1.86487C3.7896 1.86487 2.15039 3.50408 2.15039 5.5245C2.15039 7.54492 3.7896 9.18413 5.81002 9.18413C7.83045 9.18413 9.46966 7.54492 9.46966 5.5245Z" stroke="black" stroke-width="0.609939" stroke-miterlimit="10"/>
</svg>
