<svg width="10" height="11" viewBox="0 0 10 11" fill="none" xmlns="http://www.w3.org/2000/svg">
<g clip-path="url(#clip0_201_9668)">
<path d="M9.0503 5.52454C9.0503 3.33505 7.27519 1.55994 5.0857 1.55994C2.89621 1.55994 1.12109 3.33505 1.12109 5.52454C1.12109 7.71403 2.89621 9.48914 5.0857 9.48914C7.27519 9.48914 9.0503 7.71403 9.0503 5.52454ZM4.24703 6.93769V4.11139C4.24707 4.05347 4.26361 3.99676 4.2947 3.9479C4.3258 3.89904 4.37016 3.86004 4.42261 3.83546C4.47505 3.81089 4.53341 3.80176 4.59086 3.80914C4.6483 3.81652 4.70246 3.8401 4.74699 3.87713L6.4451 5.29009C6.4795 5.31871 6.50718 5.35455 6.52618 5.39507C6.54517 5.43559 6.55502 5.47979 6.55502 5.52454C6.55502 5.56929 6.54517 5.61349 6.52618 5.65401C6.50718 5.69452 6.4795 5.73036 6.4451 5.75898L4.74699 7.17195C4.70246 7.20898 4.6483 7.23256 4.59086 7.23994C4.53341 7.24732 4.47505 7.23819 4.42261 7.21361C4.37016 7.18904 4.3258 7.15004 4.2947 7.10118C4.26361 7.05231 4.24707 6.99561 4.24703 6.93769Z" fill="black"/>
</g>
<defs>
<clipPath id="clip0_201_9668">
<rect width="9.75902" height="9.75902" fill="white" transform="translate(0.206055 0.644897)"/>
</clipPath>
</defs>
</svg>
