<svg width="11" height="11" viewBox="0 0 11 11" fill="none" xmlns="http://www.w3.org/2000/svg">
<path d="M4.92818 7.17181L6.62629 5.75885C6.66069 5.73023 6.68837 5.69439 6.70737 5.65387C6.72637 5.61336 6.73622 5.56916 6.73622 5.52441C6.73622 5.47966 6.72637 5.43545 6.70737 5.39494C6.68837 5.35442 6.66069 5.31858 6.62629 5.28996L4.92818 3.877C4.88365 3.83997 4.82949 3.81638 4.77205 3.809C4.7146 3.80162 4.65624 3.81076 4.6038 3.83533C4.55135 3.8599 4.50699 3.8989 4.4759 3.94777C4.4448 3.99663 4.42827 4.05334 4.42822 4.11125V6.93756C4.42827 6.99547 4.4448 7.05218 4.4759 7.10104C4.50699 7.14991 4.55135 7.18891 4.6038 7.21348C4.65624 7.23805 4.7146 7.24719 4.77205 7.23981C4.82949 7.23243 4.88365 7.20884 4.92818 7.17181Z" fill="black"/>
<path d="M8.9262 5.5245C8.9262 3.50408 7.28699 1.86487 5.26657 1.86487C3.24614 1.86487 1.60693 3.50408 1.60693 5.5245C1.60693 7.54492 3.24614 9.18413 5.26657 9.18413C7.28699 9.18413 8.9262 7.54492 8.9262 5.5245Z" stroke="black" stroke-width="0.609939" stroke-miterlimit="10"/>
</svg>
