<svg width="11" height="10" viewBox="0 0 11 10" fill="none" xmlns="http://www.w3.org/2000/svg">
<path d="M4.00203 8.59353C4.33889 8.59353 4.61197 8.32046 4.61197 7.9836C4.61197 7.64674 4.33889 7.37366 4.00203 7.37366C3.66517 7.37366 3.39209 7.64674 3.39209 7.9836C3.39209 8.32046 3.66517 8.59353 4.00203 8.59353Z" fill="black"/>
<path d="M8.27156 8.59353C8.60842 8.59353 8.8815 8.32046 8.8815 7.9836C8.8815 7.64674 8.60842 7.37366 8.27156 7.37366C7.9347 7.37366 7.66162 7.64674 7.66162 7.9836C7.66162 8.32046 7.9347 8.59353 8.27156 8.59353Z" fill="black"/>
<path d="M9.35426 2.35643C9.31142 2.30402 9.25744 2.26181 9.19625 2.23287C9.13506 2.20392 9.06819 2.18896 9.0005 2.18908H3.19941L3.08257 1.52615C3.07011 1.45554 3.03317 1.39157 2.97823 1.34549C2.92329 1.29941 2.85388 1.27415 2.78217 1.27417H1.56229C1.48141 1.27417 1.40384 1.3063 1.34665 1.36349C1.28945 1.42069 1.25732 1.49826 1.25732 1.57914C1.25732 1.66002 1.28945 1.73759 1.34665 1.79479C1.40384 1.85198 1.48141 1.88411 1.56229 1.88411H2.52638L3.39668 6.81661C3.40914 6.88722 3.44609 6.95119 3.50102 6.99727C3.55596 7.04335 3.62537 7.0686 3.69708 7.06859H8.57659C8.65747 7.06859 8.73504 7.03646 8.79224 6.97927C8.84943 6.92207 8.88156 6.8445 8.88156 6.76362C8.88156 6.68274 8.84943 6.60517 8.79224 6.54797C8.73504 6.49078 8.65747 6.45865 8.57659 6.45865H3.95287L3.84537 5.84871H8.45155C8.55731 5.84858 8.65978 5.81191 8.74161 5.7449C8.82345 5.6779 8.87962 5.58469 8.90062 5.48103L9.44956 2.73631C9.46279 2.66988 9.4611 2.60135 9.44462 2.53565C9.42814 2.46996 9.39728 2.40875 9.35426 2.35643Z" fill="black"/>
</svg>
