<svg width="10" height="10" viewBox="0 0 10 10" fill="none" xmlns="http://www.w3.org/2000/svg">
<g clip-path="url(#clip0_201_9694)">
<path d="M3.59285 8.59353C3.92971 8.59353 4.20279 8.32046 4.20279 7.9836C4.20279 7.64674 3.92971 7.37366 3.59285 7.37366C3.25599 7.37366 2.98291 7.64674 2.98291 7.9836C2.98291 8.32046 3.25599 8.59353 3.59285 8.59353Z" fill="black"/>
<path d="M7.86238 8.59353C8.19924 8.59353 8.47232 8.32046 8.47232 7.9836C8.47232 7.64674 8.19924 7.37366 7.86238 7.37366C7.52552 7.37366 7.25244 7.64674 7.25244 7.9836C7.25244 8.32046 7.52552 8.59353 7.86238 8.59353Z" fill="black"/>
<path d="M3.43619 5.84871H8.41748L9.14941 2.18908H2.79023L2.62878 1.27417H0.848145V1.88411H2.1172L3.03211 7.06859H8.47238V6.45865H3.54369L3.43619 5.84871Z" fill="black"/>
</g>
<defs>
<clipPath id="clip0_201_9694">
<rect width="9.75902" height="9.75902" fill="white" transform="translate(0.238281 0.0543213)"/>
</clipPath>
</defs>
</svg>
