<svg width="11" height="10" viewBox="0 0 11 10" fill="none" xmlns="http://www.w3.org/2000/svg">
<g clip-path="url(#clip0_201_9711)">
<path d="M9.31055 7.0686H1.38135V7.67854H9.31055V7.0686Z" fill="black"/>
<path d="M8.70054 7.98352H1.99121V8.59346H8.70054V7.98352Z" fill="black"/>
<path d="M9.61511 3.40896C9.12998 3.4084 8.66488 3.21544 8.32185 2.8724C7.97881 2.52937 7.78585 2.06427 7.78529 1.57914V1.27417H2.90578V1.57914C2.90523 2.06427 2.71226 2.52937 2.36923 2.8724C2.02619 3.21544 1.56109 3.4084 1.07597 3.40896H0.770996V4.62883H1.07597C1.56109 4.62939 2.02619 4.82235 2.36923 5.16539C2.71226 5.50842 2.90523 5.97352 2.90578 6.45865V6.76362H7.78529V6.45865C7.78585 5.97352 7.97881 5.50842 8.32185 5.16539C8.66488 4.82235 9.12998 4.62939 9.61511 4.62883H9.92008V3.40896H9.61511ZM5.34554 5.84871C4.98363 5.84871 4.62986 5.74139 4.32895 5.54033C4.02803 5.33927 3.7935 5.05349 3.65501 4.71914C3.51651 4.38478 3.48028 4.01687 3.55088 3.66192C3.62148 3.30697 3.79576 2.98092 4.05166 2.72502C4.30757 2.46911 4.63361 2.29484 4.98856 2.22424C5.34351 2.15363 5.71142 2.18987 6.04578 2.32836C6.38013 2.46686 6.66591 2.70139 6.86697 3.0023C7.06804 3.30321 7.17535 3.65699 7.17535 4.01889C7.1748 4.50402 6.98184 4.96912 6.6388 5.31216C6.29576 5.65519 5.83066 5.84816 5.34554 5.84871Z" fill="black"/>
<path d="M2.29584 1.57914V1.27417H0.770996V2.79902H1.07597C1.39939 2.79866 1.70946 2.67003 1.93816 2.44133C2.16685 2.21264 2.29549 1.90256 2.29584 1.57914Z" fill="black"/>
<path d="M1.07597 5.23877H0.770996V6.76362H2.29584V6.45865C2.29549 6.13522 2.16685 5.82515 1.93816 5.59645C1.70946 5.36776 1.39939 5.23912 1.07597 5.23877Z" fill="black"/>
<path d="M9.61539 2.79902H9.92035V1.27417H8.39551V1.57914C8.39586 1.90256 8.5245 2.21264 8.75319 2.44133C8.98189 2.67003 9.29196 2.79866 9.61539 2.79902Z" fill="black"/>
<path d="M8.39551 6.45865V6.76362H9.92035V5.23877H9.61539C9.29196 5.23912 8.98189 5.36776 8.75319 5.59645C8.5245 5.82515 8.39586 6.13522 8.39551 6.45865Z" fill="black"/>
<path d="M5.34585 5.23883C6.01957 5.23883 6.56573 4.69267 6.56573 4.01895C6.56573 3.34523 6.01957 2.79907 5.34585 2.79907C4.67213 2.79907 4.12598 3.34523 4.12598 4.01895C4.12598 4.69267 4.67213 5.23883 5.34585 5.23883Z" fill="black"/>
</g>
<defs>
<clipPath id="clip0_201_9711">
<rect width="9.75902" height="9.75902" fill="white" transform="translate(0.466309 0.0543213)"/>
</clipPath>
</defs>
</svg>
