<svg width="11" height="10" viewBox="0 0 11 10" fill="none" xmlns="http://www.w3.org/2000/svg">
<g clip-path="url(#clip0_201_9729)">
<path d="M9.28175 1.88416H8.36684C8.28263 1.88416 8.21436 1.95242 8.21436 2.03664V7.83106C8.21436 7.91527 8.28263 7.98354 8.36684 7.98354H9.28175C9.36596 7.98354 9.43423 7.91527 9.43423 7.83106V2.03664C9.43423 1.95242 9.36596 1.88416 9.28175 1.88416Z" stroke="black" stroke-width="0.609939" stroke-linejoin="round"/>
<path d="M6.84181 3.40906H5.9269C5.84268 3.40906 5.77441 3.47733 5.77441 3.56154V7.83111C5.77441 7.91533 5.84268 7.9836 5.9269 7.9836H6.84181C6.92602 7.9836 6.99429 7.91533 6.99429 7.83111V3.56154C6.99429 3.47733 6.92602 3.40906 6.84181 3.40906Z" stroke="black" stroke-width="0.609939" stroke-linejoin="round"/>
<path d="M4.40235 4.62891H3.48745C3.40323 4.62891 3.33496 4.69718 3.33496 4.78139V7.83108C3.33496 7.9153 3.40323 7.98357 3.48745 7.98357H4.40235C4.48657 7.98357 4.55484 7.9153 4.55484 7.83108V4.78139C4.55484 4.69718 4.48657 4.62891 4.40235 4.62891Z" stroke="black" stroke-width="0.609939" stroke-linejoin="round"/>
<path d="M1.96241 5.84875H1.0475C0.963289 5.84875 0.89502 5.91702 0.89502 6.00124V7.83106C0.89502 7.91527 0.963289 7.98354 1.0475 7.98354H1.96241C2.04663 7.98354 2.1149 7.91527 2.1149 7.83106V6.00124C2.1149 5.91702 2.04663 5.84875 1.96241 5.84875Z" stroke="black" stroke-width="0.609939" stroke-linejoin="round"/>
</g>
<defs>
<clipPath id="clip0_201_9729">
<rect width="9.75902" height="9.75902" fill="white" transform="translate(0.285156 0.0543213)"/>
</clipPath>
</defs>
</svg>
