<svg width="10" height="10" viewBox="0 0 10 10" fill="none" xmlns="http://www.w3.org/2000/svg">
<g clip-path="url(#clip0_201_9739)">
<path d="M9.10088 8.28855H8.18597C8.06465 8.28855 7.94829 8.24035 7.8625 8.15456C7.77671 8.06878 7.72852 7.95242 7.72852 7.8311V2.03668C7.72852 1.91535 7.77671 1.799 7.8625 1.71321C7.94829 1.62742 8.06465 1.57922 8.18597 1.57922H9.10088C9.2222 1.57922 9.33856 1.62742 9.42435 1.71321C9.51014 1.799 9.55833 1.91535 9.55833 2.03668V7.8311C9.55833 7.95242 9.51014 8.06878 9.42435 8.15456C9.33856 8.24035 9.2222 8.28855 9.10088 8.28855Z" fill="black"/>
<path d="M6.66094 8.28861H5.74603C5.6247 8.28861 5.50835 8.24041 5.42256 8.15462C5.33677 8.06883 5.28857 7.95248 5.28857 7.83115V3.56158C5.28857 3.44026 5.33677 3.3239 5.42256 3.23811C5.50835 3.15232 5.6247 3.10413 5.74603 3.10413H6.66094C6.78226 3.10413 6.89862 3.15232 6.98441 3.23811C7.07019 3.3239 7.11839 3.44026 7.11839 3.56158V7.83115C7.11839 7.95248 7.07019 8.06883 6.98441 8.15462C6.89862 8.24041 6.78226 8.28861 6.66094 8.28861Z" fill="black"/>
<path d="M4.22148 8.28858H3.30658C3.18525 8.28858 3.0689 8.24038 2.98311 8.15459C2.89732 8.0688 2.84912 7.95245 2.84912 7.83112V4.78143C2.84912 4.6601 2.89732 4.54375 2.98311 4.45796C3.0689 4.37217 3.18525 4.32397 3.30658 4.32397H4.22148C4.34281 4.32397 4.45916 4.37217 4.54495 4.45796C4.63074 4.54375 4.67894 4.6601 4.67894 4.78143V7.83112C4.67894 7.95245 4.63074 8.0688 4.54495 8.15459C4.45916 8.24038 4.34281 8.28858 4.22148 8.28858Z" fill="black"/>
<path d="M1.78154 8.28843H0.866634C0.745309 8.28843 0.628954 8.24023 0.543165 8.15444C0.457376 8.06865 0.40918 7.9523 0.40918 7.83097V6.00116C0.40918 5.87983 0.457376 5.76348 0.543165 5.67769C0.628954 5.5919 0.745309 5.5437 0.866634 5.5437H1.78154C1.90287 5.5437 2.01922 5.5919 2.10501 5.67769C2.1908 5.76348 2.239 5.87983 2.239 6.00116V7.83097C2.239 7.9523 2.1908 8.06865 2.10501 8.15444C2.01922 8.24023 1.90287 8.28843 1.78154 8.28843Z" fill="black"/>
</g>
<defs>
<clipPath id="clip0_201_9739">
<rect width="9.75902" height="9.75902" fill="white" transform="translate(0.104492 0.0543213)"/>
</clipPath>
</defs>
</svg>
