<svg width="11" height="10" viewBox="0 0 11 10" fill="none" xmlns="http://www.w3.org/2000/svg">
<g clip-path="url(#clip0_201_9777)">
<path d="M9.37563 6.00959C9.39031 5.98843 9.40441 5.96651 9.4189 5.94593C9.78755 5.39804 9.98481 4.75284 9.98557 4.09248C9.99167 2.19976 8.39478 0.664429 6.4201 0.664429C4.69778 0.664429 3.261 1.83646 2.92439 3.39238C2.87389 3.62297 2.84833 3.85833 2.84814 4.09438C2.84814 5.989 4.38367 7.56551 6.35834 7.56551C6.67227 7.56551 7.09522 7.47115 7.32719 7.40749C7.55916 7.34383 7.78903 7.25977 7.8485 7.23709C7.90797 7.21441 8.00098 7.19116 8.07513 7.2125L9.5508 7.63908C9.56377 7.64291 9.57754 7.64322 9.59067 7.63998C9.6038 7.63674 9.61584 7.63006 9.62554 7.62063C9.63524 7.6112 9.64226 7.59936 9.64587 7.58632C9.64949 7.57329 9.64957 7.55952 9.6461 7.54644L9.30835 6.26005C9.2849 6.16474 9.28186 6.14683 9.37563 6.00959Z" fill="black"/>
<path d="M6.79357 7.97183C6.64689 7.99529 6.49874 8.00835 6.35022 8.01091C5.54148 8.01091 4.77772 7.79743 4.15825 7.39716C3.76199 7.15394 3.41802 6.83439 3.14632 6.45709C2.64922 5.79816 2.37818 4.96064 2.37818 4.08424C2.37818 4.02458 2.38028 3.9672 2.38238 3.90964C2.38313 3.89266 2.37864 3.87587 2.36951 3.86153C2.36039 3.8472 2.34707 3.83603 2.33136 3.82953C2.31566 3.82303 2.29834 3.82153 2.28175 3.82522C2.26517 3.82891 2.25012 3.83763 2.23866 3.85017C1.78226 4.34954 1.50636 4.98744 1.45502 5.662C1.40368 6.33656 1.57986 7.00887 1.95542 7.57156C2.0025 7.64342 2.02918 7.69889 2.02099 7.73586L1.75242 9.11318C1.74995 9.12628 1.75094 9.1398 1.75532 9.15239C1.7597 9.16498 1.7673 9.1762 1.77737 9.18494C1.78743 9.19367 1.79961 9.19962 1.8127 9.20218C1.82578 9.20474 1.8393 9.20382 1.85192 9.19953L3.14804 8.7375C3.18734 8.72196 3.22933 8.71433 3.27159 8.71505C3.31385 8.71577 3.35555 8.72482 3.3943 8.74169C3.78219 8.89418 4.21124 8.98795 4.64029 8.98795C5.46615 8.99065 6.26167 8.67689 6.86333 8.11117C6.87575 8.09906 6.884 8.08331 6.88688 8.0662C6.88977 8.0491 6.88714 8.03152 6.87937 8.01601C6.8716 8.00049 6.8591 7.98785 6.84368 7.97991C6.82826 7.97197 6.81071 7.96914 6.79357 7.97183Z" fill="black"/>
</g>
<defs>
<clipPath id="clip0_201_9777">
<rect width="9.75902" height="9.75902" fill="white" transform="translate(0.836426 0.0544434)"/>
</clipPath>
</defs>
</svg>
