<svg width="10" height="10" viewBox="0 0 10 10" fill="none" xmlns="http://www.w3.org/2000/svg">
<g clip-path="url(#clip0_201_9780)">
<path d="M1.39752 7.47229C1.39752 7.47362 1.39752 7.4761 1.396 7.47953C1.39657 7.47725 1.39695 7.47477 1.39752 7.47229Z" fill="black"/>
<path d="M8.63021 7.78547C8.56745 7.78411 8.50549 7.77119 8.44742 7.74734L7.36516 7.36365L7.35715 7.36041C7.33355 7.35058 7.3082 7.34565 7.28263 7.34593C7.25906 7.34595 7.23569 7.35022 7.21363 7.35851C7.18733 7.36842 6.9504 7.45743 6.70185 7.52567C6.56709 7.56265 6.09801 7.6833 5.72157 7.6833C4.75939 7.6833 3.85973 7.31352 3.18861 6.64202C2.86075 6.31617 2.60077 5.92853 2.42374 5.50153C2.2467 5.07454 2.15612 4.61667 2.15724 4.15442C2.15723 3.91357 2.18317 3.67342 2.23462 3.43813C2.40217 2.66389 2.8459 1.9596 3.48404 1.45583C4.13865 0.94234 4.94678 0.663636 5.77875 0.66443C6.7739 0.66443 7.7012 1.04564 8.39005 1.73525C9.04116 2.38846 9.39797 3.24733 9.39511 4.15347C9.39455 4.8268 9.19349 5.48471 8.81758 6.04333L8.81396 6.04867L8.79985 6.06773C8.79661 6.07211 8.79337 6.0763 8.79032 6.08069L8.78746 6.08583C8.77988 6.09873 8.77301 6.11203 8.76688 6.12567L9.06689 7.19192C9.08015 7.23591 9.08734 7.2815 9.08824 7.32744C9.08831 7.38761 9.07652 7.4472 9.05353 7.50281C9.03053 7.55841 8.9968 7.60893 8.95425 7.65148C8.91171 7.69403 8.86118 7.72776 8.80558 7.75075C8.74998 7.77374 8.69038 7.78554 8.63021 7.78547Z" fill="black"/>
<path d="M5.96124 8.16267C5.94154 8.12437 5.91383 8.09075 5.87999 8.06411C5.84615 8.03747 5.80696 8.01843 5.7651 8.00828C5.65493 7.97912 5.52647 7.98407 5.4283 7.97683C4.50145 7.91239 3.62926 7.51461 2.97292 6.85702C2.38943 6.27679 2.01021 5.52272 1.89237 4.70832C1.86569 4.52267 1.86569 4.47654 1.86569 4.47654C1.86568 4.4146 1.84681 4.35413 1.81158 4.30318C1.77636 4.25223 1.72646 4.21321 1.66852 4.19132C1.61057 4.16942 1.54734 4.16569 1.48722 4.18062C1.42711 4.19555 1.37296 4.22843 1.33199 4.27488C1.33199 4.27488 1.1818 4.43842 1.11089 4.60253C0.912027 5.06073 0.82722 5.5603 0.863737 6.05845C0.900253 6.5566 1.057 7.03847 1.32056 7.46277C1.37011 7.5453 1.37011 7.58342 1.35906 7.66919C1.30702 7.93814 1.21591 8.41255 1.16845 8.65863C1.15274 8.73843 1.15858 8.82097 1.18539 8.89776C1.21219 8.97455 1.25898 9.04281 1.32094 9.0955L1.32971 9.10293C1.41167 9.16803 1.51323 9.20349 1.6179 9.20357C1.67677 9.20362 1.73507 9.19202 1.78945 9.16945L2.80938 8.77585C2.8445 8.7625 2.88329 8.7625 2.91841 8.77585C3.32001 8.92528 3.73801 9.00458 4.13409 9.00458C4.6276 9.00504 5.11513 8.89661 5.56192 8.68703C5.66599 8.63823 5.82877 8.58524 5.92407 8.47507C5.96014 8.43234 5.98288 8.37997 5.98949 8.32444C5.99609 8.26892 5.98627 8.21267 5.96124 8.16267Z" fill="black"/>
</g>
<defs>
<clipPath id="clip0_201_9780">
<rect width="9.75902" height="9.75902" fill="white" transform="translate(0.245605 0.0544434)"/>
</clipPath>
</defs>
</svg>
