<svg width="10" height="10" viewBox="0 0 10 10" fill="none" xmlns="http://www.w3.org/2000/svg">
<g clip-path="url(#clip0_201_9772)">
<path d="M1.48195 9.20345C1.35231 9.20285 1.22821 9.15086 1.13684 9.05889C1.04548 8.96692 0.994315 8.84247 0.994569 8.71283C0.995704 8.66355 1.0034 8.61465 1.01744 8.5674L1.36854 7.29739C1.38321 7.2505 1.36663 7.20323 1.34509 7.16587L1.3409 7.15825C1.33937 7.15577 1.33213 7.14567 1.32699 7.13824C1.32184 7.1308 1.31593 7.1228 1.31059 7.11498L1.30697 7.10984C0.863652 6.43792 0.627377 5.65062 0.627462 4.84563C0.624031 3.74793 1.05347 2.71084 1.83705 1.92402C2.64788 1.11166 3.73243 0.664307 4.8936 0.664307C5.87865 0.66382 6.83448 0.99888 7.60364 1.61429C8.35558 2.21946 8.87822 3.06289 9.0753 3.99076C9.13597 4.27264 9.16652 4.56016 9.16641 4.84849C9.16641 5.97173 8.73488 7.02673 7.95111 7.81946C7.16048 8.62001 6.0988 9.05954 4.96184 9.05954C4.56157 9.05954 4.04941 8.95738 3.80353 8.888C3.50771 8.80528 3.22733 8.69739 3.19645 8.68596C3.16377 8.67344 3.12908 8.66698 3.09409 8.6669C3.05614 8.66667 3.01853 8.67412 2.98354 8.68882L2.96734 8.69511L1.68113 9.1598C1.61796 9.18639 1.55045 9.20119 1.48195 9.20345Z" fill="black"/>
</g>
<defs>
<clipPath id="clip0_201_9772">
<rect width="9.75902" height="9.75902" fill="white" transform="translate(0.0175781 0.0544434)"/>
</clipPath>
</defs>
</svg>
