<svg width="11" height="10" viewBox="0 0 11 10" fill="none" xmlns="http://www.w3.org/2000/svg">
<g clip-path="url(#clip0_201_9766)">
<path d="M8.37512 1.61416C7.60597 0.998758 6.65014 0.663698 5.66509 0.664185C4.50392 0.664185 3.41937 1.11154 2.60853 1.9239C1.82495 2.70996 1.39552 3.74781 1.39895 4.84551C1.39897 5.6503 1.63524 6.43739 2.07846 7.10914L2.08208 7.11429C2.08741 7.1221 2.09294 7.12992 2.09847 7.13754C2.104 7.14517 2.11086 7.15508 2.11238 7.15756L2.11658 7.16518C2.13812 7.2033 2.1547 7.24981 2.14002 7.2967L1.78893 8.56728C1.77488 8.61452 1.76719 8.66343 1.76605 8.71271C1.7658 8.84235 1.81696 8.96679 1.90833 9.05877C1.99969 9.15074 2.1238 9.20272 2.25343 9.20333C2.32194 9.20107 2.38944 9.18627 2.45262 9.15968L3.73901 8.69536L3.75522 8.68907C3.79021 8.67438 3.82781 8.66692 3.86577 8.66715C3.90076 8.66724 3.93544 8.6737 3.96812 8.68622C3.999 8.69822 4.27938 8.80553 4.5752 8.88826C4.82108 8.95688 5.33267 9.0598 5.73351 9.0598C6.87048 9.0598 7.93215 8.6195 8.72279 7.81972C9.50656 7.02604 9.93809 5.97103 9.93809 4.84779C9.93819 4.55946 9.90765 4.27194 9.84698 3.99007C9.64989 3.06334 9.12725 2.21934 8.37512 1.61416ZM3.8387 5.5437C3.71807 5.5437 3.60014 5.50792 3.49984 5.4409C3.39953 5.37388 3.32136 5.27862 3.27519 5.16717C3.22903 5.05572 3.21695 4.93308 3.24048 4.81476C3.26402 4.69645 3.32211 4.58777 3.40741 4.50247C3.49271 4.41716 3.60139 4.35907 3.71971 4.33554C3.83802 4.312 3.96066 4.32408 4.07211 4.37025C4.18357 4.41641 4.27883 4.49459 4.34585 4.59489C4.41287 4.6952 4.44864 4.81312 4.44864 4.93376C4.44864 5.09552 4.38438 5.25066 4.26999 5.36505C4.15561 5.47943 4.00047 5.5437 3.8387 5.5437ZM5.66852 5.5437C5.54788 5.5437 5.42996 5.50792 5.32965 5.4409C5.22935 5.37388 5.15117 5.27862 5.10501 5.16717C5.05884 5.05572 5.04676 4.93308 5.0703 4.81476C5.09383 4.69645 5.15192 4.58777 5.23723 4.50247C5.32253 4.41716 5.43121 4.35907 5.54952 4.33554C5.66784 4.312 5.79048 4.32408 5.90193 4.37025C6.01338 4.41641 6.10864 4.49459 6.17566 4.59489C6.24268 4.6952 6.27846 4.81312 6.27846 4.93376C6.27846 5.09552 6.21419 5.25066 6.09981 5.36505C5.98542 5.47943 5.83028 5.5437 5.66852 5.5437ZM7.49833 5.5437C7.3777 5.5437 7.25977 5.50792 7.15947 5.4409C7.05917 5.37388 6.98099 5.27862 6.93482 5.16717C6.88866 5.05572 6.87658 4.93308 6.90011 4.81476C6.92365 4.69645 6.98174 4.58777 7.06704 4.50247C7.15234 4.41716 7.26102 4.35907 7.37934 4.33554C7.49766 4.312 7.6203 4.32408 7.73175 4.37025C7.8432 4.41641 7.93846 4.49459 8.00548 4.59489C8.0725 4.6952 8.10827 4.81312 8.10827 4.93376C8.10827 5.09552 8.04401 5.25066 7.92963 5.36505C7.81524 5.47943 7.6601 5.5437 7.49833 5.5437Z" fill="black"/>
</g>
<defs>
<clipPath id="clip0_201_9766">
<rect width="9.75902" height="9.75902" fill="white" transform="translate(0.789062 0.0543213)"/>
</clipPath>
</defs>
</svg>
