<svg width="10" height="10" viewBox="0 0 10 10" fill="none" xmlns="http://www.w3.org/2000/svg">
<g clip-path="url(#clip0_201_9768)">
<path d="M1.86649 7.29735C1.88917 7.21387 1.83904 7.09779 1.7912 7.01411C1.7763 6.98916 1.76015 6.96499 1.74279 6.94168C1.33246 6.31941 1.11376 5.5904 1.11379 4.84502C1.10712 2.70547 2.88128 0.969238 5.07515 0.969238C6.98845 0.969238 8.58554 2.29471 8.95874 4.05419C9.01466 4.31506 9.0429 4.58109 9.04299 4.84788C9.04299 6.99048 7.33726 8.75396 5.14339 8.75396C4.79458 8.75396 4.32378 8.66628 4.06704 8.59443C3.81029 8.52257 3.55392 8.42727 3.48778 8.40172C3.42014 8.37572 3.3483 8.36235 3.27583 8.36227C3.19667 8.36197 3.11828 8.37772 3.04539 8.40859L1.75251 8.87519C1.72418 8.8874 1.69417 8.89524 1.6635 8.89844C1.63929 8.89837 1.61534 8.89349 1.59303 8.8841C1.57072 8.8747 1.55049 8.86097 1.53353 8.84371C1.51656 8.82644 1.50319 8.80598 1.49419 8.7835C1.48519 8.76103 1.48073 8.737 1.48109 8.71279C1.48268 8.69154 1.48651 8.67052 1.49252 8.65008L1.86649 7.29735Z" stroke="black" stroke-width="0.609939" stroke-miterlimit="10" stroke-linecap="round"/>
</g>
<defs>
<clipPath id="clip0_201_9768">
<rect width="9.75902" height="9.75902" fill="white" transform="translate(0.19873 0.0543213)"/>
</clipPath>
</defs>
</svg>
