<svg width="11" height="10" viewBox="0 0 11 10" fill="none" xmlns="http://www.w3.org/2000/svg">
<g clip-path="url(#clip0_201_9753)">
<path d="M8.51904 1.27417H2.72462C2.44178 1.27497 2.17075 1.38769 1.97075 1.58769C1.77075 1.78769 1.65803 2.05872 1.65723 2.34156V6.0012C1.65803 6.28404 1.77075 6.55507 1.97075 6.75507C2.17075 6.95507 2.44178 7.06778 2.72462 7.06859H3.48704V8.59344L5.2734 7.10404C5.30083 7.08113 5.33544 7.06858 5.37118 7.06859H8.51904C8.80188 7.06778 9.07291 6.95507 9.27291 6.75507C9.47291 6.55507 9.58563 6.28404 9.58643 6.0012V2.34156C9.58563 2.05872 9.47291 1.78769 9.27291 1.58769C9.07291 1.38769 8.80188 1.27497 8.51904 1.27417V1.27417Z" stroke="black" stroke-width="0.609939" stroke-linejoin="round"/>
</g>
<defs>
<clipPath id="clip0_201_9753">
<rect width="9.75902" height="9.75902" fill="white" transform="translate(0.742188 0.0543213)"/>
</clipPath>
</defs>
</svg>
