<svg width="11" height="10" viewBox="0 0 11 10" fill="none" xmlns="http://www.w3.org/2000/svg">
<g clip-path="url(#clip0_201_9744)">
<path d="M8.29052 1.27417H2.4961C2.21326 1.27497 1.94223 1.38769 1.74223 1.58769C1.54223 1.78769 1.42952 2.05872 1.42871 2.34156V6.0012C1.42952 6.28404 1.54223 6.55507 1.74223 6.75507C1.94223 6.95507 2.21326 7.06778 2.4961 7.06859H3.25853V8.59344L5.04489 7.10404C5.07232 7.08113 5.10692 7.06858 5.14267 7.06859H8.29052C8.57336 7.06778 8.84439 6.95507 9.04439 6.75507C9.24439 6.55507 9.35711 6.28404 9.35791 6.0012V2.34156C9.35711 2.05872 9.24439 1.78769 9.04439 1.58769C8.84439 1.38769 8.57336 1.27497 8.29052 1.27417V1.27417Z" stroke="black" stroke-width="0.609939" stroke-linejoin="round"/>
<path d="M3.56355 4.78128C3.90041 4.78128 4.17349 4.5082 4.17349 4.17134C4.17349 3.83448 3.90041 3.5614 3.56355 3.5614C3.22669 3.5614 2.95361 3.83448 2.95361 4.17134C2.95361 4.5082 3.22669 4.78128 3.56355 4.78128Z" fill="black"/>
<path d="M5.39314 4.78128C5.73 4.78128 6.00308 4.5082 6.00308 4.17134C6.00308 3.83448 5.73 3.5614 5.39314 3.5614C5.05628 3.5614 4.7832 3.83448 4.7832 4.17134C4.7832 4.5082 5.05628 4.78128 5.39314 4.78128Z" fill="black"/>
<path d="M7.22322 4.78128C7.56008 4.78128 7.83316 4.5082 7.83316 4.17134C7.83316 3.83448 7.56008 3.5614 7.22322 3.5614C6.88636 3.5614 6.61328 3.83448 6.61328 4.17134C6.61328 4.5082 6.88636 4.78128 7.22322 4.78128Z" fill="black"/>
</g>
<defs>
<clipPath id="clip0_201_9744">
<rect width="9.75902" height="9.75902" fill="white" transform="translate(0.513672 0.0543213)"/>
</clipPath>
</defs>
</svg>
