<svg width="11" height="10" viewBox="0 0 11 10" fill="none" xmlns="http://www.w3.org/2000/svg">
<g clip-path="url(#clip0_201_9764)">
<path d="M9.4378 3.99064C9.24071 3.06334 8.71807 2.21934 7.96594 1.61416C7.19679 0.998758 6.24096 0.663698 5.25591 0.664185C4.09474 0.664185 3.01019 1.11154 2.19935 1.9239C1.41577 2.70996 0.986336 3.74781 0.989766 4.84551C0.989793 5.6503 1.22606 6.43739 1.66928 7.10914L1.75219 7.22446L1.29474 9.20333L3.48289 8.65896C3.48289 8.65896 3.52673 8.67364 3.55913 8.68602C3.59154 8.69841 3.87039 8.80534 4.16621 8.88807C4.41209 8.95669 4.92368 9.05961 5.32452 9.05961C6.46149 9.05961 7.52316 8.61931 8.3138 7.81953C9.09738 7.02604 9.52891 5.97103 9.52891 4.84779C9.52897 4.55966 9.49843 4.27233 9.4378 3.99064ZM3.42952 5.5437C3.30889 5.5437 3.19096 5.50792 3.09066 5.4409C2.99035 5.37388 2.91218 5.27862 2.86601 5.16717C2.81985 5.05572 2.80777 4.93308 2.8313 4.81476C2.85484 4.69645 2.91293 4.58777 2.99823 4.50247C3.08353 4.41716 3.19221 4.35907 3.31053 4.33554C3.42884 4.312 3.55148 4.32408 3.66293 4.37025C3.77439 4.41641 3.86965 4.49459 3.93667 4.59489C4.00369 4.6952 4.03946 4.81312 4.03946 4.93376C4.03946 5.09552 3.9752 5.25066 3.86081 5.36505C3.74643 5.47943 3.59129 5.5437 3.42952 5.5437ZM5.25934 5.5437C5.1387 5.5437 5.02078 5.50792 4.92047 5.4409C4.82017 5.37388 4.74199 5.27862 4.69583 5.16717C4.64966 5.05572 4.63758 4.93308 4.66112 4.81476C4.68465 4.69645 4.74274 4.58777 4.82805 4.50247C4.91335 4.41716 5.02203 4.35907 5.14034 4.33554C5.25866 4.312 5.3813 4.32408 5.49275 4.37025C5.6042 4.41641 5.69946 4.49459 5.76648 4.59489C5.8335 4.6952 5.86928 4.81312 5.86928 4.93376C5.86928 5.09552 5.80502 5.25066 5.69063 5.36505C5.57624 5.47943 5.4211 5.5437 5.25934 5.5437ZM7.08915 5.5437C6.96852 5.5437 6.85059 5.50792 6.75029 5.4409C6.64999 5.37388 6.57181 5.27862 6.52564 5.16717C6.47948 5.05572 6.4674 4.93308 6.49093 4.81476C6.51447 4.69645 6.57256 4.58777 6.65786 4.50247C6.74316 4.41716 6.85184 4.35907 6.97016 4.33554C7.08848 4.312 7.21112 4.32408 7.32257 4.37025C7.43402 4.41641 7.52928 4.49459 7.5963 4.59489C7.66332 4.6952 7.69909 4.81312 7.69909 4.93376C7.69909 5.09552 7.63483 5.25066 7.52045 5.36505C7.40606 5.47943 7.25092 5.5437 7.08915 5.5437Z" fill="black"/>
</g>
<defs>
<clipPath id="clip0_201_9764">
<rect width="9.75902" height="9.75902" fill="white" transform="translate(0.379883 0.0543213)"/>
</clipPath>
</defs>
</svg>
