<svg width="10" height="10" viewBox="0 0 10 10" fill="none" xmlns="http://www.w3.org/2000/svg">
<g clip-path="url(#clip0_201_9755)">
<path d="M2.59105 8.89844V7.3736H1.21868C1.09736 7.3736 0.981005 7.3254 0.895216 7.23961C0.809426 7.15382 0.76123 7.03747 0.76123 6.91614V1.42669C0.76123 1.30537 0.809426 1.18901 0.895216 1.10322C0.981005 1.01743 1.09736 0.969238 1.21868 0.969238H8.84292C8.96424 0.969238 9.0806 1.01743 9.16639 1.10322C9.25218 1.18901 9.30037 1.30537 9.30037 1.42669V6.91614C9.30037 7.03747 9.25218 7.15382 9.16639 7.23961C9.0806 7.3254 8.96424 7.3736 8.84292 7.3736H4.83524L2.59105 8.89844Z" fill="black"/>
</g>
<defs>
<clipPath id="clip0_201_9755">
<rect width="9.75902" height="9.75902" fill="white" transform="translate(0.151367 0.0543213)"/>
</clipPath>
</defs>
</svg>
