<svg width="11" height="10" viewBox="0 0 11 10" fill="none" xmlns="http://www.w3.org/2000/svg">
<g clip-path="url(#clip0_201_9774)">
<path d="M8.64192 6.16528C8.62286 6.09666 8.66479 6.00136 8.70482 5.93274C8.71706 5.91231 8.73042 5.89259 8.74485 5.87365C9.08723 5.36489 9.27036 4.76571 9.27092 4.15248C9.27664 2.39509 7.79372 0.96936 5.9601 0.96936C4.36091 0.96936 3.02667 2.05772 2.71408 3.50251C2.66731 3.71665 2.64367 3.9352 2.64355 4.15438C2.64355 5.91368 4.06929 7.37753 5.90291 7.37753C6.19454 7.37753 6.58719 7.28985 6.80257 7.23076C7.01796 7.17168 7.23144 7.09353 7.28671 7.07256C7.34337 7.0512 7.40342 7.04022 7.46398 7.04016C7.53005 7.0399 7.5955 7.05287 7.65649 7.07828L8.73722 7.4614C8.76091 7.47142 8.78597 7.47785 8.81156 7.48046C8.852 7.48046 8.89079 7.46439 8.91938 7.4358C8.94798 7.4072 8.96404 7.36841 8.96404 7.32797C8.96271 7.31053 8.95952 7.29327 8.95451 7.27651L8.64192 6.16528Z" stroke="black" stroke-width="0.609939" stroke-miterlimit="10" stroke-linecap="round"/>
<path d="M1.69367 4.47644C1.44367 4.92555 1.32274 5.43505 1.34424 5.9486C1.36573 6.46216 1.52882 6.95977 1.81546 7.38642C1.85949 7.45294 1.88427 7.50441 1.87665 7.53891C1.86902 7.5734 1.64926 8.71818 1.64926 8.71818C1.64397 8.74497 1.64597 8.77269 1.65506 8.79844C1.66415 8.82419 1.67998 8.84703 1.70091 8.86457C1.72883 8.88682 1.76356 8.8988 1.79926 8.8985C1.81834 8.89855 1.83723 8.89466 1.85473 8.88706L2.92612 8.46773C2.99986 8.43866 3.08212 8.44003 3.15485 8.47154C3.51586 8.61221 3.91499 8.70027 4.31431 8.70027C4.85015 8.70083 5.37659 8.55951 5.84011 8.29065" stroke="black" stroke-width="0.609939" stroke-miterlimit="10" stroke-linecap="round"/>
</g>
<defs>
<clipPath id="clip0_201_9774">
<rect width="9.75902" height="9.75902" fill="white" transform="translate(0.426758 0.0544434)"/>
</clipPath>
</defs>
</svg>
