<svg width="11" height="10" viewBox="0 0 11 10" fill="none" xmlns="http://www.w3.org/2000/svg">
<g clip-path="url(#clip0_201_9749)">
<path d="M9.61489 0.969238H1.99066C1.86933 0.969238 1.75298 1.01743 1.66719 1.10322C1.5814 1.18901 1.5332 1.30537 1.5332 1.42669V6.91614C1.5332 7.03747 1.5814 7.15382 1.66719 7.23961C1.75298 7.3254 1.86933 7.3736 1.99066 7.3736H3.36302V8.89844L5.60721 7.3736H9.61489C9.73622 7.3736 9.85257 7.3254 9.93836 7.23961C10.0241 7.15382 10.0723 7.03747 10.0723 6.91614V1.42669C10.0723 1.30537 10.0241 1.18901 9.93836 1.10322C9.85257 1.01743 9.73622 0.969238 9.61489 0.969238ZM3.97296 4.78136C3.85232 4.78136 3.7344 4.74558 3.63409 4.67856C3.53379 4.61154 3.45561 4.51628 3.40945 4.40483C3.36328 4.29338 3.3512 4.17074 3.37474 4.05242C3.39827 3.93411 3.45636 3.82543 3.54167 3.74013C3.62697 3.65482 3.73565 3.59673 3.85397 3.5732C3.97228 3.54966 4.09492 3.56174 4.20637 3.60791C4.31782 3.65407 4.41308 3.73225 4.4801 3.83255C4.54712 3.93286 4.5829 4.05078 4.5829 4.17142C4.5829 4.33318 4.51864 4.48832 4.40425 4.60271C4.28986 4.71709 4.13472 4.78136 3.97296 4.78136ZM5.80277 4.78136C5.68214 4.78136 5.56421 4.74558 5.46391 4.67856C5.36361 4.61154 5.28543 4.51628 5.23926 4.40483C5.1931 4.29338 5.18102 4.17074 5.20456 4.05242C5.22809 3.93411 5.28618 3.82543 5.37148 3.74013C5.45678 3.65482 5.56546 3.59673 5.68378 3.5732C5.8021 3.54966 5.92474 3.56174 6.03619 3.60791C6.14764 3.65407 6.2429 3.73225 6.30992 3.83255C6.37694 3.93286 6.41271 4.05078 6.41271 4.17142C6.41271 4.33318 6.34845 4.48832 6.23407 4.60271C6.11968 4.71709 5.96454 4.78136 5.80277 4.78136ZM7.63259 4.78136C7.51196 4.78136 7.39403 4.74558 7.29373 4.67856C7.19342 4.61154 7.11525 4.51628 7.06908 4.40483C7.02292 4.29338 7.01084 4.17074 7.03437 4.05242C7.05791 3.93411 7.116 3.82543 7.2013 3.74013C7.2866 3.65482 7.39528 3.59673 7.5136 3.5732C7.63191 3.54966 7.75455 3.56174 7.866 3.60791C7.97746 3.65407 8.07272 3.73225 8.13974 3.83255C8.20676 3.93286 8.24253 4.05078 8.24253 4.17142C8.24253 4.33318 8.17827 4.48832 8.06388 4.60271C7.9495 4.71709 7.79436 4.78136 7.63259 4.78136Z" fill="black"/>
</g>
<defs>
<clipPath id="clip0_201_9749">
<rect width="9.75902" height="9.75902" fill="white" transform="translate(0.92334 0.0543213)"/>
</clipPath>
</defs>
</svg>
