<svg width="11" height="10" viewBox="0 0 11 10" fill="none" xmlns="http://www.w3.org/2000/svg">
<g clip-path="url(#clip0_201_9751)">
<path d="M8.10916 0.969238H2.31474C1.9509 0.969642 1.60206 1.11436 1.34478 1.37164C1.0875 1.62892 0.942786 1.97775 0.942383 2.3416V6.00123C0.942786 6.36508 1.0875 6.71391 1.34478 6.97119C1.60206 7.22848 1.9509 7.37319 2.31474 7.3736H2.7722V8.59347C2.77218 8.65146 2.7887 8.70825 2.81981 8.75718C2.85092 8.80612 2.89534 8.84517 2.94786 8.86975C3.00037 8.89434 3.05881 8.90345 3.11631 8.896C3.17382 8.88856 3.22801 8.86488 3.27254 8.82773L5.01639 7.3736H8.10916C8.47301 7.37319 8.82184 7.22848 9.07912 6.97119C9.3364 6.71391 9.48112 6.36508 9.48153 6.00123V2.3416C9.48112 1.97775 9.3364 1.62892 9.07912 1.37164C8.82184 1.11436 8.47301 0.969642 8.10916 0.969238ZM3.38214 4.78136C3.2615 4.78136 3.14358 4.74558 3.04327 4.67856C2.94297 4.61154 2.86479 4.51628 2.81863 4.40483C2.77246 4.29338 2.76038 4.17074 2.78392 4.05242C2.80745 3.93411 2.86554 3.82543 2.95085 3.74013C3.03615 3.65482 3.14483 3.59673 3.26314 3.5732C3.38146 3.54966 3.5041 3.56174 3.61555 3.60791C3.727 3.65407 3.82226 3.73225 3.88928 3.83255C3.9563 3.93286 3.99208 4.05078 3.99208 4.17142C3.99208 4.33318 3.92782 4.48832 3.81343 4.60271C3.69904 4.71709 3.5439 4.78136 3.38214 4.78136ZM5.21195 4.78136C5.09132 4.78136 4.97339 4.74558 4.87309 4.67856C4.77279 4.61154 4.69461 4.51628 4.64844 4.40483C4.60228 4.29338 4.5902 4.17074 4.61373 4.05242C4.63727 3.93411 4.69536 3.82543 4.78066 3.74013C4.86596 3.65482 4.97464 3.59673 5.09296 3.5732C5.21128 3.54966 5.33392 3.56174 5.44537 3.60791C5.55682 3.65407 5.65208 3.73225 5.7191 3.83255C5.78612 3.93286 5.82189 4.05078 5.82189 4.17142C5.82189 4.33318 5.75763 4.48832 5.64325 4.60271C5.52886 4.71709 5.37372 4.78136 5.21195 4.78136ZM7.04177 4.78136C6.92114 4.78136 6.80321 4.74558 6.70291 4.67856C6.6026 4.61154 6.52443 4.51628 6.47826 4.40483C6.4321 4.29338 6.42002 4.17074 6.44355 4.05242C6.46709 3.93411 6.52518 3.82543 6.61048 3.74013C6.69578 3.65482 6.80446 3.59673 6.92278 3.5732C7.04109 3.54966 7.16373 3.56174 7.27518 3.60791C7.38664 3.65407 7.48189 3.73225 7.54892 3.83255C7.61594 3.93286 7.65171 4.05078 7.65171 4.17142C7.65171 4.33318 7.58745 4.48832 7.47306 4.60271C7.35868 4.71709 7.20354 4.78136 7.04177 4.78136Z" fill="black"/>
</g>
<defs>
<clipPath id="clip0_201_9751">
<rect width="9.75902" height="9.75902" fill="white" transform="translate(0.33252 0.0543213)"/>
</clipPath>
</defs>
</svg>
