<svg width="11" height="10" viewBox="0 0 11 10" fill="none" xmlns="http://www.w3.org/2000/svg">
<g clip-path="url(#clip0_201_9757)">
<path d="M3.30568 8.89844C3.2248 8.89844 3.14723 8.86631 3.09004 8.80912C3.03285 8.75193 3.00071 8.67436 3.00071 8.59347V7.3736H2.54326C2.17941 7.37319 1.83058 7.22847 1.5733 6.97119C1.31602 6.71391 1.1713 6.36508 1.1709 6.00123V2.3416C1.1713 1.97775 1.31602 1.62892 1.5733 1.37164C1.83058 1.11436 2.17941 0.969642 2.54326 0.969238H8.33768C8.70153 0.969642 9.05036 1.11436 9.30764 1.37164C9.56492 1.62892 9.70964 1.97775 9.71004 2.3416V6.00123C9.70964 6.36508 9.56492 6.71391 9.30764 6.97119C9.05036 7.22847 8.70153 7.37319 8.33768 7.3736H5.24491L3.50106 8.82773C3.44618 8.87337 3.37706 8.89839 3.30568 8.89844Z" fill="black"/>
</g>
<defs>
<clipPath id="clip0_201_9757">
<rect width="9.75902" height="9.75902" fill="white" transform="translate(0.561035 0.0543213)"/>
</clipPath>
</defs>
</svg>
