<svg width="11" height="10" viewBox="0 0 11 10" fill="none" xmlns="http://www.w3.org/2000/svg">
<g clip-path="url(#clip0_201_9803)">
<path d="M5.40064 0.96936C3.21458 0.96936 1.43604 2.7479 1.43604 4.93396C1.43604 7.12002 3.21458 8.89856 5.40064 8.89856C7.5867 8.89856 9.36524 7.12002 9.36524 4.93396C9.36524 2.7479 7.5867 0.96936 5.40064 0.96936ZM6.31917 3.2837L6.77853 3.68511L5.37548 5.28811L4.91612 4.84857L6.31917 3.2837ZM4.17943 6.58518L2.83451 5.23893L3.26585 4.80759L4.61096 6.15384L4.17943 6.58518ZM5.41836 6.60024L4.05782 5.23893L4.48935 4.80778L5.38825 5.70763L7.50645 3.2837L7.96581 3.68511L5.41836 6.60024Z" fill="black"/>
</g>
<defs>
<clipPath id="clip0_201_9803">
<rect width="9.75902" height="9.75902" fill="white" transform="translate(0.520996 0.0544434)"/>
</clipPath>
</defs>
</svg>
