<svg width="11" height="10" viewBox="0 0 11 10" fill="none" xmlns="http://www.w3.org/2000/svg">
<g clip-path="url(#clip0_201_9789)">
<path d="M8.09849 0.96936H2.60904C2.28561 0.969714 1.97554 1.09835 1.74684 1.32704C1.51815 1.55574 1.38951 1.86581 1.38916 2.18924V7.67869C1.38951 8.00211 1.51815 8.31219 1.74684 8.54088C1.97554 8.76958 2.28561 8.89821 2.60904 8.89856H8.09849C8.42191 8.89821 8.73199 8.76958 8.96068 8.54088C9.18937 8.31219 9.31801 8.00211 9.31836 7.67869V2.18924C9.31801 1.86581 9.18937 1.55574 8.96068 1.32704C8.73199 1.09835 8.42191 0.969714 8.09849 0.96936ZM7.41707 3.60525L4.85533 6.65494C4.82723 6.68841 4.79226 6.71545 4.7528 6.73423C4.71334 6.75301 4.6703 6.76309 4.6266 6.76378H4.62145C4.57871 6.76376 4.53644 6.75476 4.4974 6.73736C4.45836 6.71996 4.42341 6.69454 4.39482 6.66276L3.29693 5.44288C3.26905 5.41331 3.24736 5.37846 3.23314 5.34038C3.21892 5.30231 3.21245 5.26177 3.21412 5.22116C3.21578 5.18055 3.22555 5.14068 3.24285 5.1039C3.26014 5.06712 3.28461 5.03417 3.31483 5.00698C3.34504 4.97979 3.38038 4.95892 3.41878 4.94558C3.45717 4.93225 3.49785 4.92672 3.53841 4.92933C3.57897 4.93194 3.6186 4.94263 3.65497 4.96077C3.69134 4.97892 3.72371 5.00415 3.75019 5.03498L4.61345 5.99411L6.95009 3.21298C7.0025 3.15238 7.07665 3.11485 7.15652 3.10848C7.23639 3.10212 7.31555 3.12744 7.3769 3.17897C7.43825 3.2305 7.47685 3.30411 7.48437 3.38388C7.49189 3.46364 7.46771 3.54316 7.41707 3.60525Z" fill="black"/>
</g>
<defs>
<clipPath id="clip0_201_9789">
<rect width="9.75902" height="9.75902" fill="white" transform="translate(0.474121 0.0544434)"/>
</clipPath>
</defs>
</svg>
