<svg width="11" height="10" viewBox="0 0 11 10" fill="none" xmlns="http://www.w3.org/2000/svg">
<g clip-path="url(#clip0_201_9796)">
<path d="M5.5813 0.96936C3.39524 0.96936 1.6167 2.7479 1.6167 4.93396C1.6167 7.12002 3.39524 8.89856 5.5813 8.89856C7.76736 8.89856 9.5459 7.12002 9.5459 4.93396C9.5459 2.7479 7.76736 0.96936 5.5813 0.96936ZM7.64461 3.60525L5.08287 6.65494C5.05477 6.68841 5.0198 6.71545 4.98034 6.73423C4.94087 6.75301 4.89784 6.76309 4.85414 6.76378H4.84899C4.80625 6.76376 4.76398 6.75476 4.72494 6.73736C4.6859 6.71996 4.65095 6.69454 4.62236 6.66276L3.52447 5.44288C3.49659 5.41331 3.4749 5.37846 3.46068 5.34038C3.44646 5.30231 3.43999 5.26177 3.44166 5.22116C3.44332 5.18055 3.45309 5.14068 3.47039 5.1039C3.48768 5.06712 3.51215 5.03417 3.54237 5.00698C3.57258 4.97979 3.60792 4.95892 3.64632 4.94558C3.68471 4.93225 3.72538 4.92672 3.76595 4.92933C3.80651 4.93194 3.84614 4.94263 3.88251 4.96077C3.91888 4.97892 3.95125 5.00415 3.97773 5.03498L4.84099 5.99411L7.17763 3.21298C7.23004 3.15238 7.30419 3.11485 7.38406 3.10848C7.46393 3.10212 7.54309 3.12744 7.60444 3.17897C7.66579 3.2305 7.70439 3.30411 7.71191 3.38388C7.71943 3.46364 7.69525 3.54316 7.64461 3.60525Z" fill="black"/>
</g>
<defs>
<clipPath id="clip0_201_9796">
<rect width="9.75902" height="9.75902" fill="white" transform="translate(0.702148 0.0544434)"/>
</clipPath>
</defs>
</svg>
