<svg width="11" height="10" viewBox="0 0 11 10" fill="none" xmlns="http://www.w3.org/2000/svg">
<g clip-path="url(#clip0_201_9805)">
<path d="M5.86546 0.969363C3.63575 0.939247 1.81547 2.75953 1.84558 4.98924C1.87532 7.12765 3.6165 8.86883 5.75491 8.89857C7.985 8.92906 9.8049 7.10878 9.77441 4.87907C9.74505 2.74028 8.00387 0.999097 5.86546 0.969363ZM5.54543 4.63795L6.52801 3.51338C6.58124 3.45246 6.65649 3.41519 6.7372 3.40976C6.81791 3.40432 6.89748 3.43118 6.9584 3.48441C7.01931 3.53764 7.05658 3.61289 7.06202 3.6936C7.06745 3.77431 7.0406 3.85388 6.98737 3.9148L6.00479 5.03937C5.97844 5.06953 5.9464 5.09421 5.9105 5.11199C5.87461 5.12977 5.83557 5.1403 5.7956 5.14299C5.75564 5.14568 5.71553 5.14048 5.67758 5.12767C5.63963 5.11486 5.60457 5.0947 5.57441 5.06834C5.54424 5.04199 5.51957 5.00994 5.50179 4.97405C5.48401 4.93816 5.47347 4.89911 5.47078 4.85915C5.46809 4.81918 5.4733 4.77908 5.48611 4.74113C5.49892 4.70317 5.51908 4.66812 5.54543 4.63795ZM4.80474 6.36961C4.74755 6.42676 4.67001 6.45886 4.58916 6.45886C4.50832 6.45886 4.43078 6.42676 4.37359 6.36961L3.45963 5.4547C3.43132 5.42637 3.40887 5.39273 3.39356 5.35572C3.37825 5.31871 3.37038 5.27904 3.3704 5.23899C3.37041 5.19894 3.37832 5.15928 3.39366 5.12228C3.40901 5.08528 3.43149 5.05167 3.45982 5.02336C3.48816 4.99505 3.52179 4.9726 3.5588 4.95729C3.59582 4.94198 3.63548 4.9341 3.67553 4.93412C3.71559 4.93414 3.75525 4.94205 3.79224 4.95739C3.82924 4.97273 3.86286 4.99522 3.89117 5.02355L4.80607 5.93846C4.86305 5.99582 4.89491 6.07346 4.89466 6.15431C4.89441 6.23516 4.86207 6.3126 4.80474 6.36961ZM8.17465 3.9148L6.04215 6.35455C6.01468 6.38603 5.98103 6.41153 5.94329 6.42947C5.90555 6.4474 5.86453 6.45739 5.82277 6.45881H5.81247C5.7724 6.45882 5.73272 6.45093 5.69569 6.43559C5.65867 6.42025 5.62503 6.39776 5.59671 6.36942L4.68294 5.45451C4.62577 5.39728 4.59367 5.31969 4.5937 5.2388C4.59374 5.15791 4.62591 5.08034 4.68313 5.02317C4.74036 4.96599 4.81795 4.93389 4.89884 4.93393C4.97974 4.93397 5.0573 4.96613 5.11447 5.02336L5.68248 5.59194C5.69725 5.60671 5.71489 5.61829 5.73431 5.62596C5.75374 5.63363 5.77453 5.63723 5.79541 5.63653C5.81628 5.63583 5.83679 5.63085 5.85566 5.6219C5.87453 5.61296 5.89136 5.60023 5.90511 5.5845L7.71586 3.51338C7.76909 3.45246 7.84434 3.41519 7.92506 3.40976C8.00577 3.40432 8.08534 3.43118 8.14625 3.48441C8.20717 3.53764 8.24444 3.61289 8.24987 3.6936C8.25531 3.77431 8.22845 3.85388 8.17522 3.9148H8.17465Z" fill="black"/>
</g>
<defs>
<clipPath id="clip0_201_9805">
<rect width="9.75902" height="9.75902" fill="white" transform="translate(0.930664 0.0544434)"/>
</clipPath>
</defs>
</svg>
