<svg width="11" height="11" viewBox="0 0 11 11" fill="none" xmlns="http://www.w3.org/2000/svg">
<path d="M9.44434 5.34351C9.44434 3.15402 7.66923 1.37891 5.47974 1.37891C3.29025 1.37891 1.51514 3.15402 1.51514 5.34351C1.51514 7.533 3.29025 9.30811 5.47974 9.30811C7.66923 9.30811 9.44434 7.533 9.44434 5.34351ZM7.52513 4.79666L5.69531 6.62648C5.63813 6.68363 5.56059 6.71573 5.47974 6.71573C5.39889 6.71573 5.32135 6.68363 5.26416 6.62648L3.43435 4.79666C3.37957 4.739 3.34948 4.66223 3.3505 4.5827C3.35152 4.50318 3.38356 4.4272 3.4398 4.37096C3.49603 4.31472 3.57201 4.28268 3.65154 4.28166C3.73106 4.28064 3.80784 4.31073 3.8655 4.36551L5.47974 5.97956L7.09398 4.36551C7.15164 4.31073 7.22841 4.28064 7.30794 4.28166C7.38746 4.28268 7.46344 4.31472 7.51968 4.37096C7.57592 4.4272 7.60796 4.50318 7.60898 4.5827C7.61 4.66223 7.57991 4.739 7.52513 4.79666Z" fill="black"/>
</svg>
