<svg width="10" height="11" viewBox="0 0 10 11" fill="none" xmlns="http://www.w3.org/2000/svg">
<g clip-path="url(#clip0_201_9856)">
<path d="M0.972168 5.34326C0.972168 7.53275 2.74728 9.30787 4.93677 9.30787C7.12626 9.30787 8.90137 7.53275 8.90137 5.34326C8.90137 3.15377 7.12626 1.37866 4.93677 1.37866C2.74728 1.37866 0.972168 3.15377 0.972168 5.34326ZM5.87779 5.34326L4.26374 3.72902C4.20896 3.67137 4.17887 3.59459 4.17989 3.51506C4.18091 3.43554 4.21295 3.35956 4.26919 3.30332C4.32543 3.24709 4.40141 3.21504 4.48093 3.21402C4.56046 3.21301 4.63723 3.24309 4.69489 3.29787L6.52471 5.12769C6.58186 5.18488 6.61396 5.26242 6.61396 5.34326C6.61396 5.42411 6.58186 5.50165 6.52471 5.55884L4.69489 7.38866C4.63723 7.44343 4.56046 7.47352 4.48093 7.4725C4.40141 7.47149 4.32543 7.43944 4.26919 7.38321C4.21295 7.32697 4.18091 7.25099 4.17989 7.17146C4.17887 7.09194 4.20896 7.01516 4.26374 6.95751L5.87779 5.34326Z" fill="black"/>
</g>
<defs>
<clipPath id="clip0_201_9856">
<rect width="9.75902" height="9.75902" fill="white" transform="translate(0.0571289 0.463745)"/>
</clipPath>
</defs>
</svg>
