<svg width="11" height="10" viewBox="0 0 11 10" fill="none" xmlns="http://www.w3.org/2000/svg">
<g clip-path="url(#clip0_201_9830)">
<path d="M5.49488 0.969482C3.30539 0.969482 1.53027 2.74459 1.53027 4.93408C1.53027 7.12357 3.30539 8.89869 5.49488 8.89869C7.68436 8.89869 9.45948 7.12357 9.45948 4.93408C9.45948 2.74459 7.68436 0.969482 5.49488 0.969482ZM6.1679 6.54833C6.19742 6.57636 6.22101 6.61002 6.23731 6.64733C6.25361 6.68463 6.26227 6.72481 6.26279 6.76552C6.26332 6.80622 6.25568 6.84662 6.24035 6.88432C6.22501 6.92203 6.20228 6.95628 6.1735 6.98507C6.14471 7.01385 6.11046 7.03658 6.07275 7.05192C6.03504 7.06726 5.99465 7.07489 5.95395 7.07437C5.91324 7.07384 5.87306 7.06518 5.83575 7.04888C5.79845 7.03259 5.76479 7.00899 5.73675 6.97948L3.90694 5.14966C3.84979 5.09247 3.81769 5.01493 3.81769 4.93408C3.81769 4.85324 3.84979 4.7757 3.90694 4.71851L5.73675 2.88869C5.79441 2.83391 5.87119 2.80383 5.95071 2.80484C6.03024 2.80586 6.10622 2.83791 6.16245 2.89414C6.21869 2.95038 6.25073 3.02636 6.25175 3.10589C6.25277 3.18541 6.22268 3.26219 6.1679 3.31984L4.55385 4.93408L6.1679 6.54833Z" fill="black"/>
</g>
<defs>
<clipPath id="clip0_201_9830">
<rect width="9.75902" height="9.75902" fill="white" transform="translate(0.615234 0.0544434)"/>
</clipPath>
</defs>
</svg>
