<svg width="11" height="11" viewBox="0 0 11 11" fill="none" xmlns="http://www.w3.org/2000/svg">
<path d="M5.39331 1.37866C3.20382 1.37866 1.42871 3.15377 1.42871 5.34326C1.42871 7.53275 3.20382 9.30787 5.39331 9.30787C7.5828 9.30787 9.35791 7.53275 9.35791 5.34326C9.35791 3.15377 7.5828 1.37866 5.39331 1.37866ZM7.4387 6.32126C7.38152 6.37841 7.30398 6.41052 7.22313 6.41052C7.14228 6.41052 7.06474 6.37841 7.00755 6.32126L5.39331 4.70721L3.77907 6.32126C3.72141 6.37604 3.64464 6.40613 3.56511 6.40511C3.48559 6.40409 3.40961 6.37205 3.35337 6.31581C3.29713 6.25958 3.26509 6.1836 3.26407 6.10407C3.26306 6.02455 3.29314 5.94777 3.34792 5.89011L5.17774 4.0603C5.23492 4.00315 5.31246 3.97104 5.39331 3.97104C5.47416 3.97104 5.5517 4.00315 5.60889 4.0603L7.4387 5.89011C7.49585 5.9473 7.52796 6.02484 7.52796 6.10569C7.52796 6.18654 7.49585 6.26408 7.4387 6.32126Z" fill="black"/>
</svg>
