<svg width="11" height="11" viewBox="0 0 11 11" fill="none" xmlns="http://www.w3.org/2000/svg">
<g clip-path="url(#clip0_201_9880)">
<path d="M8.56654 1.37862H7.27042V0.997404C7.27042 0.936742 7.24632 0.878564 7.20342 0.835669C7.16053 0.792775 7.10235 0.768677 7.04169 0.768677H3.83951C3.77885 0.768677 3.72067 0.792775 3.67778 0.835669C3.63488 0.878564 3.61078 0.936742 3.61078 0.997404V1.37862H2.31466C2.254 1.37862 2.19582 1.40271 2.15293 1.44561C2.11004 1.4885 2.08594 1.54668 2.08594 1.60734V9.68903C2.08594 9.74969 2.11004 9.80787 2.15293 9.85077C2.19582 9.89366 2.254 9.91776 2.31466 9.91776H8.56654C8.6272 9.91776 8.68538 9.89366 8.72827 9.85077C8.77117 9.80787 8.79526 9.74969 8.79526 9.68903V1.60734C8.79526 1.54668 8.77117 1.4885 8.72827 1.44561C8.68538 1.40271 8.6272 1.37862 8.56654 1.37862ZM6.96297 2.59849H3.91823V1.98855H6.96297V2.59849Z" fill="black"/>
</g>
<defs>
<clipPath id="clip0_201_9880">
<rect width="9.75902" height="9.75902" fill="white" transform="translate(0.561035 0.463745)"/>
</clipPath>
</defs>
</svg>
