<svg width="10" height="11" viewBox="0 0 10 11" fill="none" xmlns="http://www.w3.org/2000/svg">
<g clip-path="url(#clip0_201_9877)">
<path d="M6.5555 1.68359H7.16544C7.40809 1.68359 7.6408 1.77999 7.81237 1.95156C7.98395 2.12314 8.08034 2.35585 8.08034 2.5985V8.69789C8.08034 8.94054 7.98395 9.17325 7.81237 9.34483C7.6408 9.51641 7.40809 9.6128 7.16544 9.6128H2.89587C2.65322 9.6128 2.42051 9.51641 2.24893 9.34483C2.07735 9.17325 1.98096 8.94054 1.98096 8.69789V2.5985C1.98096 2.35585 2.07735 2.12314 2.24893 1.95156C2.42051 1.77999 2.65322 1.68359 2.89587 1.68359H3.5058" stroke="black" stroke-width="0.609939" stroke-linejoin="round"/>
<path d="M6.0575 1.07373H4.00391C3.72885 1.07373 3.50586 1.29672 3.50586 1.57178V1.79556C3.50586 2.07062 3.72885 2.29361 4.00391 2.29361H6.0575C6.33257 2.29361 6.55555 2.07062 6.55555 1.79556V1.57178C6.55555 1.29672 6.33257 1.07373 6.0575 1.07373Z" stroke="black" stroke-width="0.609939" stroke-linejoin="round"/>
</g>
<defs>
<clipPath id="clip0_201_9877">
<rect width="9.75902" height="9.75902" fill="white" transform="translate(0.151367 0.463745)"/>
</clipPath>
</defs>
</svg>
