<svg width="11" height="11" viewBox="0 0 11 11" fill="none" xmlns="http://www.w3.org/2000/svg">
<path d="M5.95333 5.34328L7.76408 3.53252C7.85002 3.44674 7.89836 3.33032 7.89847 3.2089C7.89858 3.08747 7.85044 2.97097 7.76466 2.88503C7.67887 2.7991 7.56246 2.75076 7.44103 2.75065C7.3196 2.75054 7.20311 2.79868 7.11717 2.88446L5.30641 4.69522L3.49566 2.88446C3.40972 2.79852 3.29316 2.75024 3.17163 2.75024C3.05009 2.75024 2.93353 2.79852 2.8476 2.88446C2.76166 2.9704 2.71338 3.08696 2.71338 3.20849C2.71338 3.33003 2.76166 3.44658 2.8476 3.53252L4.65835 5.34328L2.8476 7.15403C2.76166 7.23997 2.71338 7.35653 2.71338 7.47806C2.71338 7.5996 2.76166 7.71616 2.8476 7.80209C2.93353 7.88803 3.05009 7.93631 3.17163 7.93631C3.29316 7.93631 3.40972 7.88803 3.49566 7.80209L5.30641 5.99134L7.11717 7.80209C7.20311 7.88803 7.31966 7.93631 7.4412 7.93631C7.56273 7.93631 7.67929 7.88803 7.76523 7.80209C7.85117 7.71616 7.89945 7.5996 7.89945 7.47806C7.89945 7.35653 7.85117 7.23997 7.76523 7.15403L5.95333 5.34328Z" fill="black"/>
</svg>
