<svg width="10" height="11" viewBox="0 0 10 11" fill="none" xmlns="http://www.w3.org/2000/svg">
<g clip-path="url(#clip0_201_9890)">
<path d="M5.07837 1.37866C2.89231 1.37866 1.11377 3.15721 1.11377 5.34326C1.11377 7.52932 2.89231 9.30787 5.07837 9.30787C7.26443 9.30787 9.04297 7.52932 9.04297 5.34326C9.04297 3.15721 7.26443 1.37866 5.07837 1.37866ZM6.51382 6.34757C6.54333 6.3756 6.56693 6.40927 6.58323 6.44657C6.59953 6.48387 6.60819 6.52406 6.60871 6.56476C6.60924 6.60546 6.6016 6.64586 6.58627 6.68356C6.57093 6.72127 6.5482 6.75553 6.51942 6.78431C6.49063 6.81309 6.45638 6.83582 6.41867 6.85116C6.38096 6.8665 6.34057 6.87413 6.29987 6.87361C6.25916 6.87309 6.21898 6.86442 6.18167 6.84812C6.14437 6.83183 6.11071 6.80823 6.08267 6.77872L5.07837 5.77461L4.07407 6.77872C4.01641 6.8335 3.93964 6.86358 3.86011 6.86257C3.78059 6.86155 3.70461 6.8295 3.64837 6.77327C3.59213 6.71703 3.56009 6.64105 3.55907 6.56153C3.55805 6.482 3.58814 6.40522 3.64292 6.34757L4.64703 5.34326L3.64292 4.33896C3.58814 4.2813 3.55805 4.20453 3.55907 4.125C3.56009 4.04548 3.59213 3.9695 3.64837 3.91326C3.70461 3.85703 3.78059 3.82498 3.86011 3.82396C3.93964 3.82295 4.01641 3.85303 4.07407 3.90781L5.07837 4.91192L6.08267 3.90781C6.14033 3.85303 6.21711 3.82295 6.29663 3.82396C6.37616 3.82498 6.45214 3.85703 6.50837 3.91326C6.56461 3.9695 6.59665 4.04548 6.59767 4.125C6.59869 4.20453 6.5686 4.2813 6.51382 4.33896L5.50971 5.34326L6.51382 6.34757Z" fill="black"/>
</g>
<defs>
<clipPath id="clip0_201_9890">
<rect width="9.75902" height="9.75902" fill="white" transform="translate(0.19873 0.463745)"/>
</clipPath>
</defs>
</svg>
