<svg width="11" height="11" viewBox="0 0 11 11" fill="none" xmlns="http://www.w3.org/2000/svg">
<g clip-path="url(#clip0_201_9949)">
<path d="M8.34438 8.69812H3.38863C2.69406 8.69812 2.04752 8.45853 1.56815 8.02319C1.07048 7.57126 0.796387 6.94455 0.796387 6.25837C0.796387 5.56113 1.05161 4.95996 1.53441 4.51966C1.8796 4.20459 2.33915 3.9812 2.85302 3.87408C2.90039 3.86428 2.94474 3.84335 2.98243 3.81303C3.02011 3.7827 3.05004 3.74385 3.06974 3.69968C3.2527 3.28782 3.52675 2.92285 3.87124 2.63228C4.3752 2.21162 4.99925 1.9888 5.6759 1.9888C6.43704 1.98548 7.16954 2.27879 7.71805 2.8065C8.18942 3.26033 8.50906 3.86017 8.65545 4.56007C8.6672 4.61747 8.69524 4.67026 8.73621 4.71214C8.77718 4.75402 8.82934 4.78322 8.88646 4.79623C9.75486 4.98931 10.5554 5.6185 10.5554 6.71582C10.5554 7.35226 10.3221 7.87433 9.88047 8.22599C9.4924 8.53478 8.96137 8.69812 8.34438 8.69812Z" fill="black"/>
</g>
<defs>
<clipPath id="clip0_201_9949">
<rect width="9.75902" height="9.75902" fill="white" transform="translate(0.796387 0.463867)"/>
</clipPath>
</defs>
</svg>
