<svg width="11" height="11" viewBox="0 0 11 11" fill="none" xmlns="http://www.w3.org/2000/svg">
<g clip-path="url(#clip0_201_9946)">
<path d="M9.41545 4.46657C9.1486 4.26872 8.82075 4.12348 8.47461 4.04514C8.41778 4.03236 8.36576 4.00367 8.32461 3.96243C8.28347 3.92118 8.25491 3.86909 8.24227 3.81222C8.09359 3.14987 7.77357 2.58186 7.30315 2.15147C6.7563 1.65037 6.03314 1.37476 5.26672 1.37476C4.59293 1.37476 3.9706 1.58595 3.46797 1.98565C3.12732 2.25697 2.85313 2.60248 2.66628 2.99586C2.64602 3.0389 2.61598 3.07661 2.57855 3.10596C2.54112 3.13532 2.49734 3.15551 2.45071 3.16493C1.94084 3.26785 1.48052 3.48648 1.12905 3.79621C0.643763 4.22508 0.387207 4.79518 0.387207 5.4461C0.387207 6.10407 0.663395 6.7041 1.16469 7.13792C1.64349 7.55134 2.28812 7.77911 2.97945 7.77911H4.96175V4.85579L4.26241 5.55512C4.23322 5.58432 4.1984 5.60728 4.16006 5.62262C4.12173 5.63795 4.08068 5.64535 4.03941 5.64435C3.99813 5.64335 3.95749 5.63398 3.91994 5.61681C3.88239 5.59964 3.84872 5.57502 3.82097 5.54445C3.71042 5.42303 3.72109 5.23376 3.83717 5.11768L5.05114 3.90391C5.10833 3.84676 5.18587 3.81465 5.26672 3.81465C5.34757 3.81465 5.42511 3.84676 5.48229 3.90391L6.69626 5.1173C6.81596 5.23719 6.82282 5.43371 6.7037 5.55398C6.67543 5.58252 6.64181 5.60521 6.60476 5.62072C6.56771 5.63623 6.52795 5.64427 6.48779 5.64438C6.44762 5.64448 6.40782 5.63665 6.37069 5.62134C6.33356 5.60602 6.29981 5.58352 6.2714 5.55512L5.57169 4.85579V7.77911H7.9352C8.53256 7.77911 9.07712 7.61138 9.46862 7.30698C9.91197 6.96199 10.1462 6.46832 10.1462 5.88068C10.1462 5.31 9.89348 4.82072 9.41545 4.46657Z" fill="black"/>
<path d="M4.96191 9.00694C4.96191 9.08782 4.99404 9.16539 5.05124 9.22258C5.10843 9.27977 5.186 9.3119 5.26688 9.3119C5.34777 9.3119 5.42534 9.27977 5.48253 9.22258C5.53972 9.16539 5.57185 9.08782 5.57185 9.00694V7.77905H4.96191V9.00694Z" fill="black"/>
</g>
<defs>
<clipPath id="clip0_201_9946">
<rect width="9.75902" height="9.75902" fill="white" transform="translate(0.387207 0.463867)"/>
</clipPath>
</defs>
</svg>
