<svg width="11" height="11" viewBox="0 0 11 11" fill="none" xmlns="http://www.w3.org/2000/svg">
<g clip-path="url(#clip0_201_9917)">
<path d="M9.71209 4.07577C9.41169 3.88517 9.0219 3.75575 8.59533 3.70333C8.46858 2.95806 8.13368 2.32106 7.61809 1.8495C7.07124 1.34916 6.34808 1.07373 5.58166 1.07373C4.90787 1.07373 4.28554 1.28492 3.78291 1.68367C3.40148 1.98748 3.10427 2.38397 2.91966 2.83531C2.33507 2.91765 1.8332 3.11379 1.45752 3.40713C0.963279 3.79615 0.702148 4.34377 0.702148 4.99259C0.702148 6.27727 1.76802 7.17312 3.29439 7.17312H5.27669V4.42839H5.88663V7.17312H8.25014C9.6347 7.17312 10.4612 6.52048 10.4612 5.42717C10.4612 4.8544 10.2021 4.38703 9.71209 4.07577Z" fill="black"/>
<path d="M5.27643 8.45828L4.36114 7.53537L3.93018 7.97376L5.58139 9.61297L7.23261 7.97376L6.80165 7.53537L5.88636 8.45828V7.17322H5.27643V8.45828Z" fill="black"/>
</g>
<defs>
<clipPath id="clip0_201_9917">
<rect width="9.75902" height="9.75902" fill="white" transform="translate(0.702148 0.463867)"/>
</clipPath>
</defs>
</svg>
