<svg width="10" height="11" viewBox="0 0 10 11" fill="none" xmlns="http://www.w3.org/2000/svg">
<g clip-path="url(#clip0_201_9937)">
<path d="M7.70668 8.69812H2.75093C2.05636 8.69812 1.40983 8.45853 0.930455 8.02319C0.432783 7.57126 0.158691 6.94455 0.158691 6.25837C0.158691 5.56113 0.413913 4.95996 0.896717 4.51966C1.27659 4.17295 1.79485 3.93717 2.37163 3.84549C2.55187 3.37501 2.84841 2.95787 3.23355 2.63305C3.73751 2.21162 4.36155 1.9888 5.0382 1.9888C5.79934 1.98548 6.53184 2.27879 7.08035 2.8065C7.59613 3.30322 7.93026 3.97453 8.05454 4.75944C8.99442 4.89859 9.91771 5.53693 9.91771 6.71582C9.91771 7.35226 9.68441 7.87433 9.24278 8.22599C8.8547 8.53478 8.32368 8.69812 7.70668 8.69812Z" fill="black"/>
</g>
<defs>
<clipPath id="clip0_201_9937">
<rect width="9.75902" height="9.75902" fill="white" transform="translate(0.158691 0.463867)"/>
</clipPath>
</defs>
</svg>
