<svg width="11" height="11" viewBox="0 0 11 11" fill="none" xmlns="http://www.w3.org/2000/svg">
<g clip-path="url(#clip0_201_9954)">
<path d="M7.09583 9.61296H2.63566C2.07337 9.61296 1.58885 9.46372 1.23413 9.18143C0.829285 8.85892 0.615234 8.38069 0.615234 7.79839C0.615234 7.23725 0.845677 6.76435 1.28235 6.43099C1.55969 6.21884 1.91917 6.07131 2.29638 6.01165C2.41189 5.30794 2.71419 4.70543 3.17869 4.25808C3.67791 3.77778 4.34454 3.51075 5.03729 3.51357C5.65352 3.51357 6.22191 3.71657 6.68108 4.10045C7.02711 4.39235 7.29464 4.76616 7.45932 5.18785C7.97739 5.27325 8.44266 5.48672 8.78517 5.79932C9.22624 6.20112 9.45935 6.75044 9.45935 7.38668C9.45935 8.01282 9.20908 8.58502 8.75411 8.99768C8.31781 9.39453 7.72865 9.61296 7.09583 9.61296Z" fill="black"/>
<path d="M7.88775 4.65579C8.39286 4.78788 8.84078 5.02404 9.19626 5.34845C9.24569 5.39369 9.29315 5.44032 9.33864 5.48835C9.82297 5.13764 10.2053 4.63215 10.3742 4.12781C10.0647 4.26257 9.70117 4.31556 9.34207 4.31556C7.94265 4.31556 7.13238 3.50529 7.13238 2.10586C7.13238 1.74676 7.18537 1.38327 7.32013 1.07373C6.54989 1.33162 5.77622 2.08756 5.55664 2.94415C6.1152 3.03112 6.63934 3.2692 7.07234 3.63261C7.40975 3.91579 7.68701 4.26369 7.88775 4.65579Z" fill="black"/>
</g>
<defs>
<clipPath id="clip0_201_9954">
<rect width="9.75902" height="9.75902" fill="white" transform="translate(0.615234 0.463867)"/>
</clipPath>
</defs>
</svg>
