<svg width="11" height="11" viewBox="0 0 11 11" fill="none" xmlns="http://www.w3.org/2000/svg">
<g clip-path="url(#clip0_201_9964)">
<path d="M7.94803 9.10743H2.99228C2.37529 9.10743 1.84426 8.94408 1.45619 8.6353C1.01455 8.28363 0.78125 7.76156 0.78125 7.12513C0.78125 6.02781 1.58179 5.39862 2.45019 5.20477C2.50732 5.19176 2.55948 5.16256 2.60045 5.12068C2.64142 5.0788 2.66945 5.02601 2.68121 4.96861C2.82759 4.26947 3.14724 3.66963 3.61861 3.21504C4.16724 2.68761 4.89973 2.39459 5.66076 2.3981C6.33741 2.3981 6.96145 2.62092 7.46542 3.04235C7.80991 3.33292 8.08396 3.69788 8.26691 4.10974C8.2866 4.15395 8.31651 4.19284 8.3542 4.2232C8.39188 4.25356 8.43625 4.27452 8.48363 4.28434C8.99827 4.39127 9.45706 4.61466 9.80225 4.92954C10.285 5.36927 10.5403 5.97044 10.5403 6.66767C10.5403 7.35386 10.2662 7.98057 9.76851 8.43249C9.28913 8.86784 8.6426 9.10743 7.94803 9.10743Z" fill="black"/>
</g>
<defs>
<clipPath id="clip0_201_9964">
<rect width="9.75902" height="9.75902" fill="white" transform="translate(0.78125 0.873291)"/>
</clipPath>
</defs>
</svg>
