<svg width="11" height="11" viewBox="0 0 11 11" fill="none" xmlns="http://www.w3.org/2000/svg">
<g clip-path="url(#clip0_201_9957)">
<path d="M7.03382 10.0224H2.57364C2.01136 10.0224 1.52684 9.87314 1.17212 9.59085C0.767273 9.26835 0.553223 8.79012 0.553223 8.20782C0.553223 7.64667 0.783665 7.17378 1.22034 6.84041C1.45098 6.66391 1.73879 6.5322 2.04624 6.45825C2.10182 6.4445 2.15242 6.41538 2.19223 6.37422C2.23204 6.33306 2.25946 6.28153 2.27134 6.22552C2.40763 5.60529 2.69544 5.07254 3.1163 4.66731C3.61565 4.18699 4.28242 3.92002 4.97528 3.923C5.59151 3.923 6.15989 4.12599 6.61906 4.50987C6.92504 4.7678 7.17012 5.09027 7.3367 5.45414C7.35637 5.49716 7.38574 5.53505 7.42252 5.56481C7.45929 5.59458 7.50247 5.61541 7.54865 5.62568C8.0061 5.72518 8.41438 5.92646 8.72316 6.20817C9.16422 6.61054 9.39734 7.15987 9.39734 7.79611C9.39734 8.42225 9.14707 8.99445 8.69209 9.40711C8.2558 9.80395 7.66663 10.0224 7.03382 10.0224Z" fill="black"/>
<path d="M10.2841 4.872C10.3057 4.82374 10.3147 4.77078 10.3102 4.71809C10.3057 4.6654 10.2879 4.61473 10.2584 4.57084C10.2182 4.51259 10.159 4.47012 10.0909 4.45072C10.0229 4.43131 9.9502 4.43618 9.88534 4.46448C9.68139 4.55312 9.41874 4.60115 9.12444 4.60324C8.07039 4.61087 7.19208 3.74552 7.19208 2.69128C7.19208 2.39107 7.23935 2.12251 7.32894 1.91437C7.35116 1.86401 7.3596 1.80866 7.3534 1.75397C7.34721 1.69928 7.3266 1.64722 7.29367 1.60311C7.25239 1.54879 7.1941 1.50988 7.1281 1.49261C7.0621 1.47533 6.99221 1.48068 6.92962 1.50781C6.19331 1.8284 5.66819 2.48962 5.49493 3.27167C5.49274 3.28167 5.49259 3.29201 5.49448 3.30207C5.49637 3.31213 5.50027 3.32171 5.50595 3.33023C5.51162 3.33875 5.51895 3.34604 5.52751 3.35166C5.53606 3.35729 5.54566 3.36114 5.55573 3.36297C6.09174 3.45741 6.59341 3.69138 7.01024 4.04134C7.31518 4.29708 7.57119 4.60604 7.7658 4.9532C7.80531 5.02342 7.87048 5.07561 7.94764 5.09882C8.403 5.23548 8.80728 5.45906 9.13416 5.75717C9.19058 5.80889 9.24446 5.86239 9.2958 5.91766C9.30822 5.93087 9.32495 5.93923 9.34297 5.94122C9.361 5.94321 9.37914 5.93871 9.39415 5.92853C9.78558 5.66853 10.0944 5.30191 10.2841 4.872Z" fill="black"/>
</g>
<defs>
<clipPath id="clip0_201_9957">
<rect width="9.75902" height="9.75902" fill="white" transform="translate(0.553223 0.873291)"/>
</clipPath>
</defs>
</svg>
