<svg width="11" height="11" viewBox="0 0 11 11" fill="none" xmlns="http://www.w3.org/2000/svg">
<g clip-path="url(#clip0_201_9962)">
<path d="M7.53885 9.10743H2.5831C1.96611 9.10743 1.43508 8.94408 1.04701 8.6353C0.605372 8.28363 0.37207 7.76156 0.37207 7.12512C0.37207 5.94623 1.29537 5.30789 2.23524 5.16875C2.35952 4.38383 2.6927 3.71252 3.20943 3.2158C3.75794 2.68809 4.49044 2.39479 5.25158 2.3981C5.92823 2.3981 6.55228 2.62092 7.05624 3.04235C7.44137 3.36718 7.73791 3.78431 7.91816 4.25479C8.49493 4.34647 9.01319 4.58225 9.39307 4.92877C9.87587 5.36926 10.1311 5.97043 10.1311 6.66767C10.1311 7.35385 9.857 7.98056 9.35933 8.43249C8.87995 8.86783 8.23342 9.10743 7.53885 9.10743Z" fill="black"/>
</g>
<defs>
<clipPath id="clip0_201_9962">
<rect width="9.75902" height="9.75902" fill="white" transform="translate(0.37207 0.873291)"/>
</clipPath>
</defs>
</svg>
