<svg width="11" height="11" viewBox="0 0 11 11" fill="none" xmlns="http://www.w3.org/2000/svg">
<g clip-path="url(#clip0_201_9909)">
<path d="M8.36997 4.75944C8.24569 3.97453 7.91156 3.30322 7.39578 2.8065C6.84727 2.27879 6.11477 1.98548 5.35363 1.9888C4.67698 1.9888 4.05294 2.21162 3.54898 2.63305C3.16384 2.95787 2.8673 3.37501 2.68706 3.84549C2.11028 3.93717 1.59202 4.17295 1.21215 4.51966C0.729342 4.95996 0.474121 5.56113 0.474121 6.25837C0.474121 6.94455 0.748212 7.57126 1.24588 8.02319C1.72526 8.45853 2.37179 8.69812 3.06636 8.69812H8.02211C8.6391 8.69812 9.17013 8.53478 9.55821 8.22599C9.99984 7.87433 10.2331 7.35226 10.2331 6.71582C10.2331 5.53693 9.30985 4.89859 8.36997 4.75944ZM4.4696 7.33262L3.15023 5.87068L3.60311 5.46202L4.45359 6.40475L6.47954 3.99931L6.94595 4.39215L4.4696 7.33262Z" fill="black"/>
</g>
<defs>
<clipPath id="clip0_201_9909">
<rect width="9.75902" height="9.75902" fill="white" transform="translate(0.474121 0.463867)"/>
</clipPath>
</defs>
</svg>
