<svg width="11" height="11" viewBox="0 0 11 11" fill="none" xmlns="http://www.w3.org/2000/svg">
<g clip-path="url(#clip0_201_9927)">
<path d="M2.15053 1.25242L1.71924 1.68372L9.46982 9.4343L9.90111 9.00301L2.15053 1.25242Z" fill="black"/>
<path d="M1.66869 4.51951C1.18589 4.95981 0.930664 5.56098 0.930664 6.25821C0.930664 6.9444 1.20476 7.57111 1.70243 8.02303C2.1818 8.45838 2.82834 8.69797 3.5229 8.69797H7.87101L3.03705 3.86401C2.50316 3.96675 2.02512 4.19433 1.66869 4.51951Z" fill="black"/>
<path d="M10.015 8.22599C10.4566 7.87433 10.6899 7.35226 10.6899 6.71582C10.6899 5.53693 9.76663 4.89859 8.82675 4.75944C8.70248 3.97453 8.36834 3.30322 7.85257 2.8065C7.30405 2.27879 6.57155 1.98548 5.81041 1.9888C5.22964 1.9888 4.68775 2.1531 4.22705 2.46531L9.99898 8.238C10.0037 8.234 10.0098 8.23019 10.015 8.22599Z" fill="black"/>
</g>
<defs>
<clipPath id="clip0_201_9927">
<rect width="9.75902" height="9.75902" fill="white" transform="translate(0.930664 0.463867)"/>
</clipPath>
</defs>
</svg>
