<svg width="11" height="11" viewBox="0 0 11 11" fill="none" xmlns="http://www.w3.org/2000/svg">
<path d="M5.53491 1.37878C3.34542 1.37878 1.57031 3.1539 1.57031 5.34339C1.57031 7.53288 3.34542 9.30799 5.53491 9.30799C7.7244 9.30799 9.49952 7.53288 9.49952 5.34339C9.49952 3.1539 7.7244 1.37878 5.53491 1.37878ZM6.86916 6.71575H4.33505C3.73407 6.71575 3.23792 6.22818 3.2486 5.6272C3.2587 5.02222 3.69995 4.67512 4.22736 4.59221C4.25358 4.58805 4.27824 4.57705 4.29886 4.56032C4.31947 4.54359 4.33531 4.52171 4.34477 4.49691C4.50698 4.07052 4.91792 3.66605 5.53491 3.66605C6.16715 3.66605 6.71381 4.09473 6.87182 4.81369C6.8855 4.87562 6.9163 4.93245 6.96072 4.97771C7.00514 5.02297 7.06139 5.05484 7.12304 5.06968C7.47509 5.15373 7.82218 5.40457 7.82218 5.87708C7.82218 6.45424 7.39332 6.71575 6.86916 6.71575Z" fill="black"/>
</svg>
