<svg width="11" height="11" viewBox="0 0 11 11" fill="none" xmlns="http://www.w3.org/2000/svg">
<g clip-path="url(#clip0_201_9911)">
<path d="M8.97338 4.79547C8.91625 4.78246 8.86409 4.75326 8.82312 4.71138C8.78215 4.6695 8.75412 4.61671 8.74236 4.55931C8.59598 3.86017 8.27633 3.26033 7.80496 2.80574C7.25633 2.2783 6.52384 1.98528 5.76281 1.9888C5.08616 1.9888 4.46212 2.21162 3.95815 2.63305C3.61401 2.92372 3.34029 3.28868 3.15761 3.70044C3.13791 3.74462 3.10798 3.78347 3.07029 3.81379C3.03261 3.84412 2.98826 3.86504 2.94089 3.87485C2.42626 3.98197 1.96747 4.20536 1.62228 4.52043C1.13852 4.95997 0.883301 5.56114 0.883301 6.25837C0.883301 6.94455 1.15739 7.57127 1.65506 8.02319C2.13444 8.45854 2.78097 8.69813 3.47554 8.69813H8.43129C9.04828 8.69813 9.57931 8.53478 9.96739 8.226C10.409 7.87433 10.6423 7.35226 10.6423 6.71583C10.6423 5.61851 9.84178 4.98932 8.97338 4.79547ZM7.15881 4.62507L5.10408 7.06483C5.07594 7.09823 5.04096 7.1252 5.0015 7.14391C4.96204 7.16262 4.91902 7.17263 4.87535 7.17328H4.8702C4.82752 7.17329 4.78531 7.16433 4.7463 7.147C4.7073 7.12966 4.67236 7.10433 4.64376 7.07264L3.76888 6.10303C3.6589 5.98123 3.65795 5.79177 3.7746 5.67607C3.80389 5.64696 3.83878 5.6241 3.87716 5.60888C3.91554 5.59365 3.95662 5.58638 3.9979 5.5875C4.03917 5.58863 4.07979 5.59812 4.11729 5.61541C4.15479 5.6327 4.18839 5.65742 4.21604 5.68808L4.8622 6.40438L6.69201 4.23147C6.71782 4.20083 6.74941 4.17558 6.78498 4.15715C6.82054 4.13872 6.85939 4.12747 6.8993 4.12406C6.93922 4.12064 6.97941 4.12512 7.01759 4.13724C7.05577 4.14936 7.09119 4.16888 7.12183 4.19468C7.15247 4.22049 7.17772 4.25208 7.19615 4.28764C7.21458 4.32321 7.22583 4.36206 7.22924 4.40197C7.23266 4.44188 7.22818 4.48208 7.21606 4.52026C7.20394 4.55844 7.18442 4.59386 7.15862 4.6245L7.15881 4.62507Z" fill="black"/>
</g>
<defs>
<clipPath id="clip0_201_9911">
<rect width="9.75902" height="9.75902" fill="white" transform="translate(0.883301 0.463867)"/>
</clipPath>
</defs>
</svg>
