<svg width="10" height="11" viewBox="0 0 10 11" fill="none" xmlns="http://www.w3.org/2000/svg">
<g clip-path="url(#clip0_201_9951)">
<path d="M7.60756 5.64836C8.51771 5.64836 9.31863 5.11904 9.6602 4.3347C9.38935 4.45249 9.07122 4.49881 8.75711 4.49881C8.16914 4.49881 7.60525 4.26524 7.1895 3.84949C6.77374 3.43373 6.54017 2.86984 6.54017 2.28187C6.54017 1.96776 6.58649 1.64964 6.70428 1.37878C5.91994 1.72035 5.39063 2.52128 5.39063 3.43142C5.39047 3.61247 5.41249 3.79285 5.45619 3.96855" stroke="black" stroke-width="0.609939" stroke-linecap="round" stroke-linejoin="round"/>
<path d="M1.93334 6.31256C1.99705 6.30268 2.05601 6.27295 2.10184 6.2276C2.14766 6.18225 2.17801 6.12361 2.18856 6.06001C2.419 4.66039 3.43951 3.81848 4.62832 3.81848C5.7325 3.81848 6.46995 4.53802 6.76692 5.30025C6.786 5.34911 6.81748 5.39215 6.85825 5.42514C6.89903 5.45812 6.94769 5.47992 6.99945 5.48838C7.95248 5.64372 8.7454 6.28016 8.7454 7.38662C8.7454 8.51882 7.81906 9.30793 6.68686 9.30793H2.22668C1.28318 9.30793 0.51123 8.83713 0.51123 7.79833C0.51123 6.87447 1.2483 6.42178 1.93334 6.31256Z" stroke="black" stroke-width="0.609939" stroke-linejoin="round"/>
</g>
<defs>
<clipPath id="clip0_201_9951">
<rect width="9.75902" height="9.75902" fill="white" transform="translate(0.206055 0.463867)"/>
</clipPath>
</defs>
</svg>
