<svg width="10" height="11" viewBox="0 0 10 11" fill="none" xmlns="http://www.w3.org/2000/svg">
<g clip-path="url(#clip0_201_9995)">
<path d="M3.10686 8.28783C3.00993 8.28792 2.91628 8.25268 2.84345 8.18871L0.403691 6.05392C0.360782 6.01636 0.326395 5.97005 0.302836 5.91811C0.279278 5.86617 0.26709 5.8098 0.26709 5.75277C0.26709 5.69573 0.279278 5.63936 0.302836 5.58742C0.326395 5.53548 0.360782 5.48918 0.403691 5.45161L2.84345 3.31682C2.92334 3.24691 3.02774 3.2116 3.13367 3.21866C3.23961 3.22572 3.33839 3.27457 3.40831 3.35447C3.47822 3.43437 3.51353 3.53876 3.50647 3.6447C3.49941 3.75063 3.45056 3.84942 3.37066 3.91933L1.27495 5.75277L3.37047 7.58621C3.4318 7.63982 3.47531 7.71088 3.49519 7.78988C3.51507 7.86889 3.51037 7.95207 3.48172 8.02833C3.45307 8.10459 3.40183 8.17029 3.33485 8.21666C3.26786 8.26303 3.18833 8.28786 3.10686 8.28783Z" fill="black"/>
<path d="M6.76634 8.28783C6.68486 8.2879 6.6053 8.2631 6.53829 8.21674C6.47127 8.17039 6.42001 8.10469 6.39133 8.02842C6.36265 7.95215 6.35794 7.86895 6.37781 7.78993C6.39768 7.71091 6.4412 7.63983 6.50254 7.58621L8.59825 5.75277L6.50273 3.91933C6.42284 3.84942 6.37398 3.75063 6.36692 3.6447C6.35986 3.53876 6.39518 3.43437 6.46509 3.35447C6.535 3.27457 6.63379 3.22572 6.73972 3.21866C6.84565 3.2116 6.95005 3.24691 7.02995 3.31682L9.4697 5.45161C9.51261 5.48918 9.547 5.53548 9.57056 5.58742C9.59412 5.63936 9.60631 5.69573 9.60631 5.75277C9.60631 5.8098 9.59412 5.86617 9.57056 5.91811C9.547 5.97005 9.51261 6.01636 9.4697 6.05392L7.02995 8.18871C6.95709 8.25276 6.86335 8.288 6.76634 8.28783Z" fill="black"/>
<path d="M4.02177 9.2028C3.95943 9.20278 3.89796 9.18821 3.84226 9.16024C3.78655 9.13227 3.73814 9.09168 3.7009 9.0417C3.66365 8.99171 3.63859 8.93372 3.62772 8.87234C3.61685 8.81097 3.62046 8.7479 3.63827 8.68816L5.46808 2.58877C5.48187 2.53701 5.5059 2.48855 5.53875 2.44625C5.57161 2.40394 5.61262 2.36867 5.65936 2.3425C5.7061 2.31634 5.75761 2.29982 5.81085 2.29393C5.86408 2.28804 5.91796 2.29289 5.96929 2.3082C6.02062 2.32351 6.06835 2.34897 6.10966 2.38306C6.15097 2.41716 6.18502 2.4592 6.20978 2.50669C6.23455 2.55418 6.24954 2.60616 6.25385 2.65955C6.25816 2.71294 6.25171 2.76665 6.23489 2.8175L4.40507 8.91689C4.38046 8.99945 4.32987 9.07186 4.26081 9.12337C4.19175 9.17488 4.10792 9.20274 4.02177 9.2028Z" fill="black"/>
</g>
<defs>
<clipPath id="clip0_201_9995">
<rect width="9.75902" height="9.75902" fill="white" transform="translate(0.0571289 0.873291)"/>
</clipPath>
</defs>
</svg>
