<svg width="11" height="11" viewBox="0 0 11 11" fill="none" xmlns="http://www.w3.org/2000/svg">
<g clip-path="url(#clip0_201_10017)">
<path d="M3.74456 8.28795C3.64762 8.28804 3.55397 8.25281 3.48114 8.18883L1.04139 6.05405C0.998477 6.01648 0.964091 5.97017 0.940532 5.91823C0.916973 5.8663 0.904785 5.80992 0.904785 5.75289C0.904785 5.69586 0.916973 5.63948 0.940532 5.58754C0.964091 5.53561 0.998477 5.4893 1.04139 5.45173L3.48114 3.31695C3.56104 3.24703 3.66544 3.21172 3.77137 3.21878C3.8773 3.22584 3.97609 3.27469 4.046 3.35459C4.11592 3.43449 4.15123 3.53889 4.14417 3.64482C4.13711 3.75075 4.08825 3.84954 4.00836 3.91945L1.91265 5.75289L4.00817 7.58633C4.0695 7.63995 4.11301 7.711 4.13289 7.79C4.15277 7.86901 4.14807 7.95219 4.11941 8.02845C4.09076 8.10471 4.03952 8.17042 3.97254 8.21678C3.90556 8.26315 3.82602 8.28798 3.74456 8.28795Z" fill="black"/>
<path d="M7.40404 8.28795C7.32255 8.28802 7.24299 8.26322 7.17598 8.21687C7.10897 8.17051 7.0577 8.10481 7.02903 8.02854C7.00035 7.95227 6.99563 7.86907 7.01551 7.79005C7.03538 7.71103 7.07889 7.63996 7.14024 7.58633L9.23595 5.75289L7.14043 3.91945C7.06053 3.84954 7.01168 3.75075 7.00462 3.64482C6.99756 3.53889 7.03287 3.43449 7.10278 3.35459C7.1727 3.27469 7.27149 3.22584 7.37742 3.21878C7.48335 3.21172 7.58775 3.24703 7.66764 3.31695L10.1074 5.45173C10.1503 5.4893 10.1847 5.53561 10.2083 5.58754C10.2318 5.63948 10.244 5.69586 10.244 5.75289C10.244 5.80992 10.2318 5.8663 10.2083 5.91823C10.1847 5.97017 10.1503 6.01648 10.1074 6.05405L7.66764 8.18883C7.59478 8.25288 7.50105 8.28812 7.40404 8.28795Z" fill="black"/>
</g>
<defs>
<clipPath id="clip0_201_10017">
<rect width="9.75902" height="9.75902" fill="white" transform="translate(0.694824 0.873291)"/>
</clipPath>
</defs>
</svg>
