<svg width="11" height="11" viewBox="0 0 11 11" fill="none" xmlns="http://www.w3.org/2000/svg">
<g clip-path="url(#clip0_201_10005)">
<path d="M5.75534 6.24835C6.02904 6.24835 6.25092 6.02648 6.25092 5.75278C6.25092 5.47908 6.02904 5.2572 5.75534 5.2572C5.48164 5.2572 5.25977 5.47908 5.25977 5.75278C5.25977 6.02648 5.48164 6.24835 5.75534 6.24835Z" fill="black" stroke="black" stroke-width="0.190606" stroke-miterlimit="10" stroke-linecap="square"/>
<path d="M7.47116 6.24835C7.74486 6.24835 7.96674 6.02648 7.96674 5.75278C7.96674 5.47908 7.74486 5.2572 7.47116 5.2572C7.19746 5.2572 6.97559 5.47908 6.97559 5.75278C6.97559 6.02648 7.19746 6.24835 7.47116 6.24835Z" fill="black" stroke="black" stroke-width="0.190606" stroke-miterlimit="10" stroke-linecap="square"/>
<path d="M4.04001 6.24835C4.31371 6.24835 4.53558 6.02648 4.53558 5.75278C4.53558 5.47908 4.31371 5.2572 4.04001 5.2572C3.76631 5.2572 3.54443 5.47908 3.54443 5.75278C3.54443 6.02648 3.76631 6.24835 4.04001 6.24835Z" fill="black" stroke="black" stroke-width="0.190606" stroke-miterlimit="10" stroke-linecap="square"/>
<path d="M3.9256 7.88761L1.48584 5.75283L3.9256 3.61804" stroke="black" stroke-width="0.800545" stroke-miterlimit="10" stroke-linecap="square"/>
<path d="M7.58545 7.88761L10.0252 5.75283L7.58545 3.61804" stroke="black" stroke-width="0.800545" stroke-miterlimit="10" stroke-linecap="square"/>
</g>
<defs>
<clipPath id="clip0_201_10005">
<rect width="9.75902" height="9.75902" fill="white" transform="translate(0.875977 0.873291)"/>
</clipPath>
</defs>
</svg>
