<svg width="11" height="11" viewBox="0 0 11 11" fill="none" xmlns="http://www.w3.org/2000/svg">
<g clip-path="url(#clip0_201_9999)">
<path d="M5.34567 6.24835C5.61937 6.24835 5.84125 6.02648 5.84125 5.75278C5.84125 5.47908 5.61937 5.2572 5.34567 5.2572C5.07197 5.2572 4.8501 5.47908 4.8501 5.75278C4.8501 6.02648 5.07197 6.24835 5.34567 6.24835Z" fill="black"/>
<path d="M7.06149 6.24835C7.33519 6.24835 7.55707 6.02648 7.55707 5.75278C7.55707 5.47908 7.33519 5.2572 7.06149 5.2572C6.78779 5.2572 6.56592 5.47908 6.56592 5.75278C6.56592 6.02648 6.78779 6.24835 7.06149 6.24835Z" fill="black"/>
<path d="M3.63034 6.24835C3.90404 6.24835 4.12592 6.02648 4.12592 5.75278C4.12592 5.47908 3.90404 5.2572 3.63034 5.2572C3.35664 5.2572 3.13477 5.47908 3.13477 5.75278C3.13477 6.02648 3.35664 6.24835 3.63034 6.24835Z" fill="black"/>
<path d="M3.51593 7.88761L1.07617 5.75283L3.51593 3.61804" stroke="black" stroke-width="0.609939" stroke-linecap="round" stroke-linejoin="round"/>
<path d="M7.17578 7.88761L9.61554 5.75283L7.17578 3.61804" stroke="black" stroke-width="0.609939" stroke-linecap="round" stroke-linejoin="round"/>
</g>
<defs>
<clipPath id="clip0_201_9999">
<rect width="9.75902" height="9.75902" fill="white" transform="translate(0.466309 0.873291)"/>
</clipPath>
</defs>
</svg>
