<svg width="11" height="11" viewBox="0 0 11 11" fill="none" xmlns="http://www.w3.org/2000/svg">
<g clip-path="url(#clip0_201_10011)">
<path d="M5.16452 6.24835C5.43822 6.24835 5.6601 6.02648 5.6601 5.75278C5.6601 5.47908 5.43822 5.2572 5.16452 5.2572C4.89082 5.2572 4.66895 5.47908 4.66895 5.75278C4.66895 6.02648 4.89082 6.24835 5.16452 6.24835Z" fill="black" stroke="black" stroke-width="0.190606" stroke-miterlimit="10"/>
<path d="M6.87985 6.24835C7.15355 6.24835 7.37543 6.02648 7.37543 5.75278C7.37543 5.47908 7.15355 5.2572 6.87985 5.2572C6.60615 5.2572 6.38428 5.47908 6.38428 5.75278C6.38428 6.02648 6.60615 6.24835 6.87985 6.24835Z" fill="black" stroke="black" stroke-width="0.190606" stroke-miterlimit="10"/>
<path d="M3.44919 6.24847C3.72289 6.24847 3.94476 6.0266 3.94476 5.7529C3.94476 5.4792 3.72289 5.25732 3.44919 5.25732C3.17549 5.25732 2.95361 5.4792 2.95361 5.7529C2.95361 6.0266 3.17549 6.24847 3.44919 6.24847Z" fill="black" stroke="black" stroke-width="0.190606" stroke-miterlimit="10"/>
<path d="M3.33477 7.88761L0.89502 5.75283L3.33477 3.61804" stroke="black" stroke-width="0.800545" stroke-linecap="round" stroke-linejoin="round"/>
<path d="M6.99463 7.88761L9.43438 5.75283L6.99463 3.61804" stroke="black" stroke-width="0.800545" stroke-linecap="round" stroke-linejoin="round"/>
</g>
<defs>
<clipPath id="clip0_201_10011">
<rect width="9.75902" height="9.75902" fill="white" transform="translate(0.285156 0.873291)"/>
</clipPath>
</defs>
</svg>
