<svg width="11" height="11" viewBox="0 0 11 11" fill="none" xmlns="http://www.w3.org/2000/svg">
<path d="M9.35792 5.63709C9.35535 5.58952 9.33602 5.5444 9.30337 5.50973C9.27071 5.47505 9.22684 5.45305 9.17951 5.44762L8.6908 5.36852C8.66882 5.36492 8.64859 5.3543 8.63313 5.33826C8.61767 5.32222 8.60781 5.30161 8.60503 5.27951C8.59569 5.21947 8.58596 5.15714 8.57262 5.09805C8.56832 5.07656 8.57084 5.05426 8.57983 5.03427C8.58882 5.01428 8.60382 4.9976 8.62275 4.98655L9.05695 4.74543C9.10007 4.72346 9.1336 4.6864 9.15117 4.64131C9.16874 4.59622 9.16913 4.54624 9.15226 4.50089L9.07697 4.29313C9.06045 4.24761 9.02773 4.20979 8.98508 4.1869C8.94242 4.164 8.89281 4.15765 8.84576 4.16904L8.35876 4.26434C8.33699 4.26827 8.31453 4.2652 8.2946 4.25558C8.27467 4.24596 8.2583 4.23028 8.24783 4.21078C8.21943 4.1576 8.18855 4.10347 8.15634 4.05029C8.14464 4.03135 8.13916 4.00922 8.14066 3.987C8.14217 3.96479 8.15058 3.9436 8.16473 3.9264L8.48876 3.55224C8.52165 3.51685 8.54054 3.4707 8.5419 3.42241C8.54327 3.37411 8.52702 3.32697 8.49619 3.28978L8.35476 3.11995C8.32399 3.08267 8.28049 3.05814 8.23267 3.05109C8.18485 3.04405 8.13613 3.055 8.09592 3.08183L7.66953 3.33781C7.65063 3.34914 7.62858 3.35408 7.60665 3.35192C7.58472 3.34976 7.56406 3.3406 7.54773 3.3258C7.50066 3.28444 7.45338 3.2446 7.40726 3.20782C7.38992 3.19413 7.37739 3.17528 7.3715 3.154C7.3656 3.13271 7.36665 3.1101 7.37447 3.08945L7.55098 2.62437C7.5702 2.58 7.57245 2.53011 7.5573 2.48418C7.54216 2.43825 7.51067 2.39949 7.46882 2.37525L7.27669 2.26374C7.23479 2.23958 7.18544 2.23173 7.13811 2.24168C7.09077 2.25163 7.04877 2.2787 7.02014 2.31769L6.7085 2.70843C6.69734 2.7255 6.68055 2.73813 6.66105 2.74412C6.64156 2.75011 6.62058 2.74908 6.60176 2.74121C6.58994 2.73645 6.49178 2.69623 6.41535 2.67069C6.39438 2.66386 6.37615 2.65049 6.36332 2.63256C6.3505 2.61462 6.34375 2.59305 6.34406 2.571L6.35149 2.07409C6.35415 2.02557 6.33903 1.97775 6.30896 1.93957C6.27889 1.9014 6.23594 1.8755 6.18814 1.86671L5.9699 1.82859C5.92235 1.82038 5.87343 1.8297 5.83224 1.85484C5.79105 1.87998 5.76038 1.91921 5.74594 1.96526L5.58392 2.43815C5.57667 2.45921 5.5628 2.47736 5.54439 2.4899C5.52598 2.50244 5.50401 2.50869 5.48176 2.50772H5.29592C5.27388 2.50809 5.25228 2.50154 5.23416 2.48899C5.21604 2.47644 5.20231 2.45853 5.1949 2.43777L5.03364 1.96754C5.01946 1.92116 4.98885 1.88154 4.94755 1.85611C4.90626 1.83067 4.8571 1.82116 4.8093 1.82935L4.59087 1.86748C4.54334 1.87615 4.50059 1.90178 4.47054 1.93961C4.4405 1.97744 4.42521 2.02489 4.42752 2.07314L4.43514 2.57176C4.43529 2.59414 4.42821 2.61597 4.41496 2.634C4.4017 2.65204 4.38297 2.6653 4.36157 2.67183C4.31811 2.6888 4.22319 2.72482 4.1803 2.74102C4.14218 2.75475 4.10044 2.73969 4.06594 2.70099L3.75601 2.31978C3.72761 2.28081 3.68586 2.25366 3.63872 2.2435C3.59157 2.23334 3.54234 2.24088 3.50041 2.2647L3.30866 2.37582C3.26635 2.4001 3.23453 2.43919 3.21933 2.48554C3.20412 2.53189 3.20661 2.58223 3.22632 2.62685L3.40263 3.09078C3.41032 3.11148 3.41133 3.13407 3.40552 3.15537C3.39971 3.17667 3.38736 3.19561 3.37023 3.20953C3.32391 3.24765 3.27645 3.28577 3.22918 3.32809C3.21295 3.34277 3.19244 3.35188 3.17066 3.35407C3.14889 3.35627 3.12698 3.35144 3.10814 3.34029L2.68671 3.07935C2.64626 3.05298 2.59757 3.04231 2.54979 3.04933C2.50202 3.05635 2.45846 3.08058 2.4273 3.11747L2.28625 3.28711C2.25495 3.32403 2.23836 3.3712 2.23966 3.41959C2.24096 3.46798 2.26006 3.51419 2.2933 3.54938L2.61905 3.92297C2.6335 3.93982 2.64213 3.96088 2.64368 3.98302C2.64522 4.00516 2.63959 4.02722 2.62763 4.04591C2.59503 4.09775 2.56396 4.15227 2.53575 4.20678C2.5252 4.22639 2.50871 4.24215 2.48864 4.25181C2.46858 4.26147 2.44597 4.26452 2.42406 4.26053L1.93782 4.16656C1.89074 4.1552 1.84113 4.16157 1.79845 4.18446C1.75577 4.20735 1.72301 4.24515 1.70643 4.29065L1.63018 4.49803C1.61329 4.54344 1.61366 4.59347 1.63123 4.63862C1.6488 4.68378 1.68234 4.72091 1.72549 4.74296L2.15969 4.98407C2.17921 4.99485 2.1947 5.01169 2.20382 5.03204C2.21293 5.0524 2.21517 5.07517 2.2102 5.09691L2.20581 5.12055C2.19571 5.17391 2.18675 5.22443 2.1778 5.27818C2.17476 5.3 2.16491 5.32031 2.14964 5.33619C2.13437 5.35208 2.11447 5.36273 2.09279 5.36662L1.60293 5.44572C1.55508 5.45164 1.51101 5.47477 1.47896 5.51079C1.4469 5.54681 1.42904 5.59326 1.42871 5.64147V5.86219C1.42844 5.91062 1.44614 5.95743 1.47839 5.99356C1.51064 6.02969 1.55516 6.05256 1.60331 6.05775L2.09279 6.13667C2.11478 6.14024 2.13503 6.15085 2.15049 6.16689C2.16595 6.18294 2.1758 6.20357 2.17856 6.22568C2.1879 6.28591 2.19762 6.34805 2.21096 6.40713C2.21526 6.42863 2.21274 6.45092 2.20375 6.47091C2.19477 6.49091 2.17976 6.50759 2.16083 6.51864L1.72682 6.76014C1.68371 6.78211 1.65017 6.81917 1.6326 6.86426C1.61503 6.90935 1.61464 6.95933 1.63152 7.00468L1.70776 7.21244C1.72431 7.25793 1.75703 7.29572 1.79968 7.31861C1.84233 7.3415 1.89191 7.34788 1.93897 7.33653L2.42596 7.24218C2.44774 7.23826 2.4702 7.24133 2.49013 7.25095C2.51005 7.26057 2.52642 7.27625 2.5369 7.29574C2.56549 7.34911 2.59637 7.40324 2.62839 7.45623C2.64014 7.47516 2.64566 7.4973 2.64415 7.51953C2.64265 7.54176 2.6342 7.56295 2.62 7.58012L2.29597 7.95447C2.26272 7.98953 2.24341 8.03552 2.24165 8.08381C2.2399 8.1321 2.25582 8.17937 2.28644 8.21675L2.42768 8.38658C2.45845 8.42385 2.50195 8.44839 2.54977 8.45543C2.59759 8.46247 2.64631 8.45152 2.68652 8.4247L3.11291 8.16871C3.13181 8.15739 3.15386 8.15244 3.17579 8.1546C3.19772 8.15676 3.21838 8.16592 3.2347 8.18072C3.28198 8.22208 3.33001 8.26192 3.37518 8.29871C3.39252 8.31239 3.40505 8.33124 3.41094 8.35253C3.41684 8.37381 3.41579 8.39642 3.40797 8.41707L3.23146 8.88215C3.21224 8.92653 3.20999 8.97642 3.22514 9.02235C3.24028 9.06827 3.27177 9.10704 3.31362 9.13127L3.50632 9.24259C3.54817 9.26676 3.59747 9.27463 3.64478 9.26472C3.69208 9.2548 3.73406 9.22778 3.76268 9.18884L4.07814 8.80095C4.10463 8.76798 4.14675 8.7533 4.17801 8.76588C4.24415 8.79333 4.28856 8.80877 4.36728 8.83507C4.38825 8.84192 4.40649 8.85528 4.41935 8.87321C4.4322 8.89114 4.439 8.9127 4.43876 8.93476L4.43114 9.43129C4.42857 9.47979 4.44372 9.52757 4.47377 9.56573C4.50383 9.60388 4.54673 9.62981 4.59449 9.63867L4.81273 9.67679C4.86029 9.68504 4.90922 9.67573 4.95042 9.65059C4.99163 9.62545 5.02229 9.58619 5.03669 9.54012L5.19871 9.06799C5.20612 9.04703 5.22002 9.02899 5.23839 9.01647C5.25677 9.00396 5.27866 8.99764 5.30087 8.99842H5.48671C5.50876 8.99803 5.53037 9.00457 5.5485 9.01712C5.56662 9.02967 5.58035 9.0476 5.58773 9.06837L5.74918 9.5386C5.76168 9.57942 5.78694 9.61516 5.82124 9.64058C5.85555 9.666 5.89709 9.67975 5.93978 9.67984C5.95116 9.67986 5.96252 9.67884 5.97371 9.67679L6.19234 9.63867C6.23982 9.62995 6.28254 9.6043 6.31254 9.56648C6.34255 9.52865 6.35781 9.48123 6.3555 9.433L6.34787 8.93438C6.34772 8.91241 6.35457 8.89096 6.36742 8.87315C6.38027 8.85533 6.39846 8.84206 6.41935 8.83526C6.49254 8.81067 6.54381 8.79085 6.58918 8.77351L6.60061 8.76893C6.65894 8.74873 6.68696 8.7716 6.70488 8.7939L7.02414 9.18712C7.05276 9.22602 7.0947 9.253 7.14196 9.26292C7.18922 9.27283 7.23848 9.26499 7.28031 9.24087L7.47226 9.12975C7.51424 9.1055 7.54582 9.06663 7.56098 9.02058C7.57613 8.97452 7.57379 8.9245 7.55441 8.88006L7.37829 8.41612C7.37052 8.39545 7.36944 8.37286 7.37523 8.35155C7.38101 8.33024 7.39335 8.31128 7.4105 8.29737C7.45682 8.25925 7.50428 8.22113 7.55155 8.17882C7.56788 8.16409 7.58851 8.15499 7.6104 8.15287C7.63229 8.15074 7.65429 8.15569 7.67315 8.167L8.09992 8.42241C8.14037 8.44877 8.18907 8.45945 8.23684 8.45243C8.28461 8.44541 8.32818 8.42118 8.35933 8.38429L8.50038 8.21465C8.53167 8.17776 8.54825 8.13062 8.54695 8.08226C8.54565 8.0339 8.52656 7.98773 8.49333 7.95257L8.16816 7.57765C8.15371 7.56079 8.14507 7.53974 8.14353 7.51759C8.14198 7.49545 8.14761 7.4734 8.15958 7.4547C8.19217 7.40305 8.22324 7.34854 8.25145 7.29383C8.26207 7.27428 8.27857 7.25857 8.29862 7.24892C8.31867 7.23928 8.34124 7.23618 8.36315 7.24008L8.84881 7.33481C8.89589 7.34617 8.9455 7.3398 8.98818 7.31692C9.03086 7.29403 9.06362 7.25623 9.08021 7.21073L9.1555 7.00335C9.17238 6.95797 9.172 6.90796 9.15443 6.86284C9.13686 6.81772 9.10332 6.78062 9.06019 6.75861L8.62561 6.51711C8.60636 6.50623 8.59112 6.48943 8.58216 6.46921C8.5732 6.44899 8.57099 6.42642 8.57586 6.40485L8.58025 6.38102C8.59035 6.32765 8.59931 6.27733 8.60827 6.22358C8.6113 6.20176 8.62115 6.18145 8.63642 6.16557C8.65169 6.14968 8.67159 6.13903 8.69328 6.13514L9.18313 6.05623C9.2311 6.05039 9.27531 6.02728 9.30748 5.99122C9.33965 5.95516 9.35758 5.90861 9.35792 5.86029V5.63709ZM3.78441 7.75929C3.48366 7.51728 3.24116 7.21076 3.07484 6.86239C2.90853 6.51402 2.82265 6.13272 2.82356 5.74668C2.82448 5.36065 2.91216 4.97976 3.08013 4.63219C3.24809 4.28461 3.49205 3.97924 3.79394 3.73865L4.93758 5.75164L3.78441 7.75929ZM5.39332 8.32806C5.0772 8.32836 4.76379 8.26987 4.46907 8.15556L5.62204 6.14905H7.93257C7.74177 7.38151 6.6759 8.32806 5.39332 8.32806ZM5.62319 5.35652L4.4805 3.34562C4.77194 3.23425 5.08133 3.17727 5.39332 3.17751C6.6759 3.17751 7.74177 4.12406 7.93257 5.35652H5.62319Z" fill="black"/>
</svg>
