<svg width="10" height="11" viewBox="0 0 10 11" fill="none" xmlns="http://www.w3.org/2000/svg">
<path d="M8.80912 5.49122L8.31202 5.41116C8.27992 5.40576 8.25039 5.39023 8.22776 5.36684C8.20512 5.34345 8.19057 5.31343 8.18622 5.28117C8.17669 5.22018 8.16716 5.15899 8.15381 5.0999C8.14736 5.06818 8.15107 5.03523 8.16442 5.00573C8.17776 4.97624 8.20006 4.9517 8.22815 4.9356L8.66826 4.69125C8.70157 4.67421 8.72751 4.64559 8.7412 4.61077C8.75489 4.57595 8.75539 4.53732 8.74259 4.50216L8.66635 4.2925C8.6536 4.25724 8.62821 4.22797 8.59511 4.21037C8.56201 4.19276 8.52355 4.18806 8.48718 4.19719L7.9937 4.2925C7.96162 4.29871 7.92839 4.29445 7.89891 4.28034C7.86944 4.26624 7.84527 4.24304 7.82997 4.21416C7.80138 4.16079 7.77089 4.10736 7.73848 4.05386C7.72138 4.02604 7.71346 3.99355 7.71585 3.96098C7.71825 3.92841 7.73083 3.89742 7.75183 3.8724L8.08138 3.49233C8.10694 3.46514 8.12164 3.42952 8.1227 3.39221C8.12375 3.3549 8.11108 3.31851 8.0871 3.28991L7.94434 3.11837C7.92055 3.08952 7.88685 3.07058 7.84984 3.06525C7.81282 3.05993 7.77516 3.06861 7.7442 3.08958L7.31172 3.34938C7.28392 3.36585 7.2516 3.37307 7.21943 3.36999C7.18726 3.36691 7.1569 3.35368 7.13274 3.33223C7.08699 3.29201 7.03934 3.25198 6.99169 3.21367C6.96634 3.19353 6.94806 3.16585 6.9395 3.13463C6.93093 3.10341 6.93252 3.07028 6.94404 3.04003L7.12321 2.56828C7.13845 2.53405 7.14057 2.49541 7.12914 2.45973C7.11771 2.42404 7.09355 2.39382 7.06126 2.37481L6.86684 2.26216C6.8344 2.24374 6.79632 2.23785 6.75982 2.24561C6.72333 2.25338 6.69094 2.27425 6.6688 2.30429L6.35163 2.70151C6.33392 2.72651 6.30829 2.74481 6.2789 2.75346C6.2495 2.7621 6.21805 2.76059 6.18962 2.74916C6.18962 2.74916 6.08288 2.70532 6.00283 2.67845C5.97212 2.66821 5.94547 2.64848 5.92672 2.62209C5.90798 2.59571 5.89812 2.56404 5.89856 2.53168L5.90619 2.02753C5.90843 1.99003 5.89688 1.95301 5.8737 1.92344C5.85053 1.89388 5.81734 1.87381 5.78039 1.86704L5.55948 1.82892C5.5225 1.82251 5.48445 1.82985 5.45251 1.84954C5.42056 1.86924 5.39691 1.89993 5.38602 1.93585L5.2221 2.41331C5.21159 2.44409 5.1915 2.4707 5.16479 2.48925C5.13808 2.5078 5.10613 2.51733 5.07362 2.51643H4.88683C4.85436 2.51712 4.82251 2.50751 4.79584 2.48899C4.76917 2.47046 4.74904 2.44398 4.73835 2.41331L4.57443 1.93585C4.56354 1.89993 4.53989 1.86924 4.50794 1.84954C4.476 1.82985 4.43795 1.82251 4.40097 1.82892L4.18006 1.86704C4.14311 1.87381 4.10992 1.89388 4.08675 1.92344C4.06357 1.95301 4.05202 1.99003 4.05426 2.02753L4.06189 2.53168C4.06235 2.56412 4.05245 2.59587 4.03363 2.62229C4.01481 2.64872 3.98805 2.66846 3.95724 2.67864C3.9134 2.69579 3.8181 2.7322 3.77236 2.74935C3.71899 2.76841 3.65609 2.75316 3.60462 2.69389L3.28993 2.30619C3.26768 2.27628 3.23525 2.25556 3.19876 2.24794C3.16227 2.24032 3.12425 2.24633 3.09189 2.26483L2.89748 2.37748C2.8651 2.39612 2.84077 2.42608 2.82916 2.46158C2.81755 2.49709 2.81948 2.53563 2.83458 2.5698L3.01374 3.04155C3.02508 3.07183 3.02658 3.10491 3.01802 3.13609C3.00947 3.16726 2.9913 3.19495 2.96609 3.21519C2.91844 3.25331 2.87079 3.29353 2.82504 3.33375C2.80088 3.35521 2.77052 3.36843 2.73835 3.37151C2.70618 3.3746 2.67387 3.36738 2.64607 3.3509L2.21987 3.08711C2.18875 3.06663 2.15122 3.05825 2.11435 3.06356C2.07748 3.06886 2.04382 3.08747 2.01974 3.11589L1.87697 3.28743C1.85299 3.31603 1.84032 3.35242 1.84138 3.38973C1.84243 3.42704 1.85713 3.46266 1.88269 3.48986L2.21225 3.86992C2.23368 3.89472 2.24654 3.92576 2.24895 3.95844C2.25135 3.99113 2.24316 4.02372 2.22559 4.05138C2.19319 4.10221 2.16269 4.15564 2.1341 4.21168C2.11855 4.24033 2.09435 4.26334 2.06494 4.27741C2.03554 4.29148 2.00243 4.29589 1.97037 4.29002L1.47689 4.19472C1.44053 4.18585 1.40219 4.19066 1.36915 4.20823C1.33611 4.22581 1.31069 4.25492 1.29772 4.29002L1.22148 4.49969C1.20868 4.53485 1.20918 4.57347 1.22287 4.60829C1.23656 4.64311 1.2625 4.67173 1.29581 4.68877L1.73535 4.93331C1.76373 4.9491 1.78628 4.9736 1.79966 5.00318C1.81305 5.03277 1.81656 5.06588 1.80969 5.09762C1.79825 5.15861 1.78681 5.21789 1.77728 5.27888C1.77271 5.31105 1.75808 5.34095 1.73548 5.3643C1.71289 5.38764 1.68349 5.40325 1.65148 5.40888L1.15438 5.48893C1.11739 5.49349 1.0833 5.51129 1.05842 5.53904C1.03354 5.5668 1.01956 5.60262 1.01905 5.63989V5.86328C1.01859 5.90082 1.03224 5.93717 1.05731 5.96513C1.08237 5.99309 1.11701 6.01061 1.15438 6.01424L1.65148 6.0943C1.68358 6.0997 1.71311 6.11523 1.73574 6.13862C1.75838 6.16201 1.77294 6.19203 1.77728 6.22429C1.78681 6.28528 1.79635 6.34647 1.80969 6.40555C1.81614 6.43728 1.81243 6.47023 1.79908 6.49972C1.78574 6.52922 1.76344 6.55376 1.73535 6.56986L1.29524 6.81459C1.26193 6.83163 1.23599 6.86025 1.2223 6.89507C1.20861 6.92989 1.20811 6.96851 1.22091 7.00368L1.29715 7.21334C1.3099 7.2486 1.33529 7.27787 1.36839 7.29547C1.40149 7.31308 1.43995 7.31777 1.47632 7.30864L1.9698 7.21334C2.00188 7.20713 2.03511 7.21139 2.06459 7.2255C2.09406 7.2396 2.11823 7.2628 2.13353 7.29168C2.16212 7.34505 2.19261 7.39848 2.22502 7.45198C2.24212 7.4798 2.25004 7.51229 2.24765 7.54486C2.24525 7.57743 2.23267 7.60842 2.21168 7.63344L1.88212 8.01389C1.85656 8.04108 1.84186 8.07671 1.84081 8.11401C1.83975 8.15132 1.85242 8.18772 1.8764 8.21631L2.01916 8.38786C2.04295 8.4167 2.07665 8.43564 2.11366 8.44097C2.15068 8.44629 2.18834 8.43761 2.2193 8.41664L2.65178 8.15684C2.67959 8.14037 2.7119 8.13315 2.74407 8.13623C2.77624 8.13932 2.8066 8.15254 2.83076 8.174C2.87651 8.21421 2.92416 8.25424 2.97181 8.29255C2.99716 8.31269 3.01544 8.34037 3.024 8.37159C3.03257 8.40281 3.03098 8.43594 3.01946 8.46619L2.84029 8.93794C2.82529 8.97221 2.82341 9.0108 2.83501 9.04637C2.8466 9.08194 2.87087 9.112 2.90319 9.13084L3.09761 9.24348C3.13006 9.26191 3.16813 9.2678 3.20463 9.26004C3.24113 9.25227 3.27351 9.2314 3.29565 9.20136L3.61568 8.80795C3.6557 8.75839 3.72051 8.73743 3.77197 8.75839C3.83678 8.78508 3.88062 8.80033 3.96067 8.8272C3.99148 8.83738 4.01824 8.85712 4.03706 8.88354C4.05588 8.90997 4.06578 8.94172 4.06532 8.97416L4.05769 9.47831C4.05545 9.51581 4.067 9.55283 4.09018 9.5824C4.11335 9.61196 4.14654 9.63203 4.18349 9.6388L4.4044 9.67692C4.44138 9.68333 4.47943 9.67599 4.51138 9.6563C4.54332 9.6366 4.56697 9.60591 4.57786 9.56999L4.74178 9.09348C4.75229 9.0627 4.77238 9.03609 4.79909 9.01754C4.8258 8.99899 4.85775 8.98947 4.89026 8.99036H5.07705C5.10952 8.98968 5.14137 8.99928 5.16804 9.0178C5.19471 9.03633 5.21484 9.06282 5.22553 9.09348L5.38946 9.56999C5.40035 9.60591 5.42399 9.6366 5.45594 9.6563C5.48788 9.67599 5.52593 9.68333 5.56291 9.67692L5.78382 9.6388C5.82077 9.63203 5.85396 9.61196 5.87714 9.5824C5.90031 9.55283 5.91186 9.51581 5.90962 9.47831L5.902 8.97416C5.90153 8.94172 5.91143 8.90997 5.93025 8.88354C5.94907 8.85712 5.97583 8.83738 6.00664 8.8272C6.08669 8.80033 6.14006 8.77936 6.18962 8.7603C6.23918 8.74124 6.30017 8.74124 6.34782 8.80033L6.67185 9.19945C6.6941 9.22959 6.72666 9.25048 6.76333 9.25814C6.79999 9.26581 6.8382 9.25971 6.87065 9.24101L7.06507 9.12836C7.09761 9.10973 7.12207 9.07968 7.1337 9.04403C7.14532 9.00839 7.14328 8.96969 7.12797 8.93547L6.9488 8.46372C6.93748 8.43341 6.93599 8.4003 6.94454 8.3691C6.9531 8.3379 6.97126 8.31018 6.99645 8.28988C7.04411 8.25176 7.09176 8.21174 7.1375 8.17152C7.16167 8.15006 7.19203 8.13684 7.2242 8.13375C7.25636 8.13067 7.28868 8.13789 7.31648 8.15436L7.74744 8.41492C7.77856 8.4354 7.81609 8.44377 7.85297 8.43847C7.88984 8.43317 7.92349 8.41455 7.94758 8.38614L8.09034 8.21459C8.11433 8.186 8.12699 8.1496 8.12594 8.1123C8.12488 8.07499 8.11018 8.03937 8.08462 8.01217L7.75507 7.6321C7.73364 7.60731 7.72077 7.57627 7.71836 7.54358C7.71596 7.5109 7.72415 7.47831 7.74172 7.45065C7.77413 7.39918 7.80462 7.34575 7.83321 7.29035C7.84876 7.26169 7.87296 7.23869 7.90237 7.22462C7.93178 7.21055 7.96488 7.20613 7.99694 7.21201L8.49042 7.30731C8.52678 7.31618 8.56513 7.31137 8.59816 7.29379C8.6312 7.27622 8.65663 7.24711 8.66959 7.21201L8.74583 7.00234C8.75863 6.96718 8.75813 6.92856 8.74444 6.89373C8.73075 6.85891 8.70481 6.83029 8.6715 6.81326L8.23139 6.5689C8.20301 6.55312 8.18046 6.52862 8.16708 6.49903C8.15369 6.46945 8.15018 6.43634 8.15705 6.4046C8.16849 6.34361 8.17993 6.28433 8.18946 6.22333C8.19403 6.19117 8.20866 6.16127 8.23126 6.13792C8.25385 6.11457 8.28326 6.09897 8.31526 6.09334L8.81236 6.01329C8.84935 6.00873 8.88344 5.99093 8.90832 5.96317C8.9332 5.93542 8.94718 5.8996 8.94769 5.86233V5.63856C8.94561 5.60162 8.93058 5.5666 8.90523 5.53965C8.87989 5.5127 8.84585 5.49555 8.80912 5.49122ZM4.98366 3.0082C5.59245 3.00794 6.18401 3.21034 6.66504 3.58349C7.14607 3.95663 7.4892 4.47929 7.64032 5.06903C7.65156 5.114 7.6524 5.16094 7.64278 5.20629C7.63316 5.25164 7.61332 5.29419 7.58478 5.33072C7.55625 5.36726 7.51976 5.3968 7.47809 5.41711C7.43642 5.43743 7.39067 5.44797 7.34431 5.44795H5.33837C5.2845 5.44796 5.23158 5.43369 5.18501 5.40661C5.13844 5.37952 5.09988 5.34058 5.07324 5.29375L4.08018 3.5457C4.05706 3.50506 4.04359 3.45965 4.04082 3.41298C4.03804 3.3663 4.04604 3.31961 4.06418 3.27652C4.08233 3.23343 4.11014 3.19509 4.14547 3.16446C4.1808 3.13383 4.2227 3.11173 4.26793 3.09988C4.50155 3.03858 4.74213 3.00777 4.98366 3.0082ZM2.23893 5.75292C2.23859 5.38541 2.31206 5.02157 2.45497 4.68299C2.59789 4.34441 2.80735 4.03797 3.07093 3.78186C3.10421 3.74892 3.14463 3.72407 3.18906 3.70927C3.2335 3.69446 3.28074 3.69009 3.32713 3.69648C3.37353 3.70288 3.41783 3.71987 3.45659 3.74615C3.49536 3.77243 3.52756 3.80728 3.55068 3.848L4.54641 5.60044C4.57272 5.6465 4.58655 5.69863 4.58655 5.75168C4.58655 5.80473 4.57272 5.85686 4.54641 5.90293L3.54249 7.65078C3.51918 7.69139 3.48684 7.72609 3.44796 7.75218C3.40909 7.77828 3.36473 7.79507 3.31832 7.80127C3.27191 7.80746 3.2247 7.80288 3.18034 7.78789C3.13599 7.7729 3.09568 7.7479 3.06254 7.71483C2.80153 7.45913 2.59423 7.15387 2.4528 6.81697C2.31137 6.48006 2.23866 6.1183 2.23893 5.75292ZM4.98366 8.49764C4.73793 8.49827 4.49318 8.46655 4.25573 8.40329C4.21051 8.39128 4.16867 8.36902 4.13343 8.33823C4.09819 8.30745 4.07051 8.26898 4.05253 8.22578C4.03454 8.18259 4.02674 8.13584 4.02972 8.08915C4.03269 8.04245 4.04638 7.99707 4.0697 7.95651L5.07191 6.21152C5.09871 6.16509 5.13728 6.12655 5.18373 6.09978C5.23017 6.07301 5.28286 6.05895 5.33647 6.05903H7.34526C7.3916 6.05904 7.43733 6.06961 7.47898 6.08993C7.52062 6.11026 7.55709 6.13981 7.58561 6.17633C7.61412 6.21286 7.63394 6.25541 7.64355 6.30074C7.65317 6.34607 7.65232 6.393 7.64108 6.43796C7.48966 7.02758 7.1463 7.55003 6.66515 7.92296C6.184 8.29589 5.59241 8.49807 4.98366 8.49764Z" fill="black"/>
</svg>
