<svg width="11" height="11" viewBox="0 0 11 11" fill="none" xmlns="http://www.w3.org/2000/svg">
<path d="M9.76759 5.63709C9.76502 5.58952 9.74569 5.5444 9.71303 5.50973C9.68038 5.47505 9.6365 5.45305 9.58918 5.44762L9.10047 5.36852C9.07848 5.36492 9.05825 5.3543 9.0428 5.33826C9.02734 5.32222 9.01748 5.30161 9.01469 5.27951C9.00535 5.21947 8.99563 5.15714 8.98229 5.09805C8.97799 5.07656 8.98051 5.05426 8.9895 5.03427C8.99849 5.01428 9.01349 4.9976 9.03242 4.98655L9.46662 4.74543C9.50973 4.72346 9.54327 4.6864 9.56084 4.64131C9.57841 4.59622 9.5788 4.54624 9.56192 4.50089L9.48663 4.29313C9.47012 4.24761 9.4374 4.20979 9.39474 4.1869C9.35209 4.164 9.30248 4.15765 9.25543 4.16904L8.76843 4.26434C8.74666 4.26824 8.72421 4.26515 8.70429 4.25554C8.68437 4.24592 8.66799 4.23026 8.6575 4.21078C8.6291 4.1576 8.59822 4.10347 8.56601 4.05029C8.55431 4.03135 8.54883 4.00922 8.55033 3.987C8.55183 3.96479 8.56025 3.9436 8.57439 3.9264L8.89842 3.55205C8.93134 3.51671 8.95025 3.47059 8.95162 3.42232C8.95298 3.37404 8.93672 3.32692 8.90586 3.28978L8.76443 3.11995C8.73366 3.08267 8.69016 3.05814 8.64234 3.05109C8.59452 3.04405 8.54579 3.055 8.50559 3.08183L8.0792 3.33781C8.0603 3.34914 8.03825 3.35408 8.01632 3.35192C7.99439 3.34976 7.97373 3.3406 7.9574 3.3258C7.91032 3.28444 7.8621 3.2446 7.81693 3.20782C7.79959 3.19413 7.78706 3.17528 7.78117 3.154C7.77527 3.13271 7.77631 3.1101 7.78414 3.08945L7.96064 2.62437C7.97986 2.58 7.98212 2.53011 7.96697 2.48418C7.95183 2.43825 7.92034 2.39949 7.87849 2.37525L7.68617 2.26298C7.64429 2.23883 7.59498 2.23098 7.54768 2.24094C7.50037 2.25089 7.4584 2.27795 7.42981 2.31692L7.11817 2.70843C7.10696 2.72544 7.09017 2.73803 7.07069 2.74401C7.05121 2.74999 7.03025 2.749 7.01143 2.74121C6.9998 2.73645 6.90145 2.69623 6.82501 2.67069C6.80405 2.66386 6.78582 2.65049 6.77299 2.63256C6.76016 2.61462 6.75341 2.59305 6.75373 2.571L6.76116 2.07409C6.76382 2.02557 6.74869 1.97775 6.71862 1.93957C6.68856 1.9014 6.6456 1.8755 6.59781 1.86671L6.37957 1.82859C6.33202 1.82038 6.2831 1.8297 6.24191 1.85484C6.20071 1.87998 6.17005 1.91921 6.15561 1.96526L5.99359 2.43815C5.98623 2.45914 5.97234 2.47722 5.95395 2.48974C5.93557 2.50227 5.91365 2.50856 5.89143 2.50772H5.70558C5.68353 2.50817 5.66189 2.50166 5.64375 2.4891C5.62561 2.47654 5.6119 2.45857 5.60456 2.43777L5.44331 1.96754C5.42912 1.92116 5.39852 1.88154 5.35722 1.85611C5.31592 1.83067 5.26677 1.82116 5.21897 1.82935L5.00034 1.86748C4.95286 1.87619 4.91014 1.90184 4.88014 1.93966C4.85013 1.97749 4.83487 2.02491 4.83718 2.07314L4.84481 2.57176C4.84496 2.59414 4.83788 2.61597 4.82462 2.634C4.81137 2.65204 4.79264 2.6653 4.77123 2.67183C4.72759 2.6888 4.63285 2.72501 4.58978 2.74102C4.55166 2.75475 4.5101 2.73969 4.47656 2.70099L4.16663 2.31978C4.1382 2.28057 4.09627 2.25325 4.04891 2.24308C4.00155 2.23291 3.9521 2.24061 3.91008 2.2647L3.71833 2.37582C3.67602 2.4001 3.6442 2.43919 3.629 2.48554C3.61379 2.53189 3.61628 2.58223 3.63599 2.62685L3.8123 3.09078C3.81999 3.11148 3.821 3.13407 3.81519 3.15537C3.80937 3.17667 3.79703 3.19561 3.77989 3.20953C3.73358 3.24765 3.68612 3.28577 3.63885 3.32809C3.62261 3.34277 3.60211 3.35188 3.58033 3.35407C3.55855 3.35627 3.53665 3.35144 3.51781 3.34029L3.09638 3.07935C3.05591 3.05302 3.00723 3.04237 2.95947 3.04939C2.91171 3.05641 2.86815 3.08062 2.83697 3.11747L2.69611 3.28692C2.66482 3.32381 2.64824 3.37095 2.64954 3.41931C2.65084 3.46766 2.66993 3.51384 2.70316 3.549L3.02872 3.92297C3.04316 3.93982 3.0518 3.96088 3.05334 3.98302C3.05489 4.00516 3.04926 4.02722 3.03729 4.04591C3.0047 4.09775 2.97363 4.15227 2.94542 4.20678C2.93487 4.22639 2.91838 4.24215 2.89831 4.25181C2.87824 4.26147 2.85563 4.26452 2.83373 4.26053L2.34749 4.16656C2.30041 4.1552 2.2508 4.16157 2.20812 4.18446C2.16544 4.20735 2.13268 4.24515 2.11609 4.29065L2.03985 4.49803C2.023 4.54344 2.02339 4.59346 2.04096 4.6386C2.05853 4.68374 2.09204 4.72087 2.13516 4.74296L2.56936 4.98407C2.58888 4.99485 2.60437 5.01169 2.61348 5.03204C2.6226 5.0524 2.62484 5.07517 2.61987 5.09691L2.61529 5.12112C2.60538 5.1743 2.59623 5.22462 2.58746 5.27818C2.58443 5.3 2.57458 5.32031 2.55931 5.33619C2.54404 5.35208 2.52414 5.36273 2.50245 5.36662L2.01279 5.44572C1.9649 5.4516 1.92079 5.47471 1.8887 5.51073C1.8566 5.54675 1.83872 5.59323 1.83838 5.64147V5.86219C1.8381 5.91062 1.8558 5.95743 1.88806 5.99356C1.92031 6.02969 1.96483 6.05256 2.01298 6.05775L2.50245 6.13667C2.52445 6.14024 2.54469 6.15085 2.56016 6.16689C2.57562 6.18294 2.58547 6.20357 2.58823 6.22568C2.59757 6.28591 2.60729 6.34805 2.62063 6.40713C2.62493 6.42863 2.62241 6.45092 2.61342 6.47091C2.60443 6.49091 2.58943 6.50759 2.5705 6.51864L2.13649 6.76014C2.09338 6.78211 2.05984 6.81917 2.04227 6.86426C2.0247 6.90935 2.02431 6.95933 2.04119 7.00468L2.11743 7.21244C2.13398 7.25793 2.1667 7.29572 2.20935 7.31861C2.252 7.3415 2.30158 7.34788 2.34863 7.33653L2.83563 7.24218C2.85741 7.23823 2.87988 7.24128 2.89981 7.25091C2.91975 7.26053 2.93612 7.27623 2.94656 7.29574C2.97516 7.34911 3.00584 7.40305 3.03806 7.45623C3.04981 7.47516 3.05533 7.4973 3.05382 7.51953C3.05232 7.54176 3.04387 7.56295 3.02967 7.58012L2.70564 7.95428C2.67234 7.98935 2.65299 8.03538 2.65123 8.08371C2.64948 8.13204 2.66544 8.17935 2.69611 8.21675L2.83735 8.38658C2.86809 8.42389 2.9116 8.44845 2.95943 8.45549C3.00726 8.46254 3.056 8.45156 3.09619 8.4247L3.52258 8.16871C3.54148 8.15739 3.56353 8.15244 3.58546 8.1546C3.60739 8.15676 3.62804 8.16592 3.64437 8.18072C3.69164 8.22208 3.73968 8.26192 3.78485 8.29871C3.80217 8.3124 3.8147 8.33124 3.82063 8.35252C3.82655 8.37379 3.82557 8.39639 3.81782 8.41707L3.64113 8.88215C3.62191 8.92653 3.61966 8.97642 3.6348 9.02235C3.64995 9.06827 3.68144 9.10704 3.72328 9.13127L3.91599 9.24259C3.95784 9.26676 4.00714 9.27463 4.05444 9.26472C4.10175 9.2548 4.14373 9.22778 4.17235 9.18884L4.4878 8.80095C4.51449 8.76798 4.55642 8.7533 4.58749 8.76588C4.65382 8.79333 4.69823 8.80877 4.77695 8.83507C4.79792 8.84192 4.81616 8.85528 4.82901 8.87321C4.84187 8.89114 4.84867 8.9127 4.84843 8.93476L4.84081 9.43129C4.83823 9.47979 4.85339 9.52757 4.88344 9.56573C4.9135 9.60388 4.9564 9.62981 5.00415 9.63867L5.2224 9.67679C5.26996 9.68509 5.31891 9.67579 5.36013 9.65065C5.40134 9.6255 5.43199 9.58621 5.44636 9.54012L5.60838 9.06799C5.61571 9.04698 5.62959 9.02888 5.64798 9.01636C5.66638 9.00383 5.68831 8.99755 5.71054 8.99842H5.89638C5.91845 8.99794 5.9401 9.00444 5.95824 9.01701C5.97638 9.02957 5.99009 9.04755 5.9974 9.06837L6.15885 9.5386C6.17135 9.57942 6.19661 9.61516 6.23091 9.64058C6.26521 9.666 6.30676 9.67975 6.34945 9.67984C6.36083 9.67986 6.37219 9.67884 6.38338 9.67679L6.602 9.63867C6.64949 9.62995 6.6922 9.6043 6.72221 9.56648C6.75222 9.52865 6.76748 9.48123 6.76516 9.433L6.75754 8.93438C6.75739 8.91241 6.76424 8.89096 6.77709 8.87315C6.78994 8.85533 6.80812 8.84206 6.82902 8.83526C6.90221 8.81067 6.95367 8.79085 6.99885 8.77332L7.01028 8.76893C7.06937 8.74854 7.09796 8.77332 7.11454 8.7939L7.43381 9.18712C7.46242 9.22602 7.50437 9.253 7.55163 9.26292C7.59889 9.27283 7.64815 9.26499 7.68998 9.24087L7.88192 9.12975C7.92391 9.1055 7.95549 9.06663 7.97064 9.02058C7.9858 8.97452 7.98346 8.9245 7.96407 8.88006L7.78795 8.41612C7.78018 8.39545 7.77911 8.37286 7.78489 8.35155C7.79068 8.33024 7.80301 8.31128 7.82017 8.29737C7.86648 8.25925 7.91394 8.22113 7.96122 8.17882C7.97755 8.16409 7.99818 8.15499 8.02007 8.15287C8.04196 8.15074 8.06396 8.15569 8.08282 8.167L8.50959 8.42241C8.55004 8.44877 8.59873 8.45945 8.64651 8.45243C8.69428 8.44541 8.73784 8.42118 8.769 8.38429L8.91005 8.21465C8.94134 8.17776 8.95792 8.13062 8.95662 8.08226C8.95532 8.0339 8.93623 7.98773 8.903 7.95257L8.57782 7.57765C8.56338 7.56079 8.55474 7.53974 8.5532 7.51759C8.55165 7.49545 8.55728 7.4734 8.56925 7.4547C8.60184 7.40305 8.63291 7.34854 8.66112 7.29383C8.67172 7.27426 8.68822 7.25853 8.70827 7.24888C8.72832 7.23923 8.75091 7.23615 8.77281 7.24008L9.25848 7.33481C9.30556 7.34617 9.35517 7.3398 9.39785 7.31692C9.44053 7.29403 9.47329 7.25623 9.48987 7.21073L9.56516 7.00335C9.58201 6.95796 9.5816 6.90797 9.56404 6.86286C9.54647 6.81775 9.51296 6.78066 9.46986 6.75861L9.03528 6.51711C9.01603 6.50623 9.00079 6.48943 8.99183 6.46921C8.98287 6.44899 8.98066 6.42642 8.98553 6.40485L8.99011 6.38064C9.00002 6.32746 9.00917 6.27714 9.01793 6.22358C9.02097 6.20176 9.03082 6.18145 9.04609 6.16557C9.06136 6.14968 9.08126 6.13903 9.10294 6.13514L9.59261 6.05623C9.64062 6.05044 9.68487 6.02734 9.71707 5.99128C9.74928 5.95521 9.76724 5.90864 9.76759 5.86029V5.63709ZM4.38392 7.42878C4.36017 7.47008 4.32696 7.50516 4.28701 7.53113C4.24707 7.5571 4.20153 7.57322 4.15414 7.57817C4.10675 7.58312 4.05887 7.57676 4.01442 7.5596C3.96997 7.54244 3.93022 7.51499 3.89845 7.47948C3.46904 7.00469 3.23195 6.38693 3.23343 5.74676C3.23491 5.10659 3.47486 4.48993 3.90646 4.01713C3.9384 3.98164 3.97831 3.95425 4.02291 3.93721C4.06751 3.92017 4.11553 3.91398 4.16299 3.91913C4.21046 3.92429 4.25602 3.94065 4.29592 3.96687C4.33582 3.99308 4.36893 4.02841 4.3925 4.06993L5.26262 5.60144C5.28874 5.64712 5.30249 5.69883 5.30249 5.75145C5.30249 5.80407 5.28874 5.85578 5.26262 5.90146L4.38392 7.42878ZM5.80298 8.32806C5.6216 8.32811 5.44072 8.30894 5.26338 8.27088C5.21718 8.26056 5.17406 8.2395 5.13752 8.2094C5.10097 8.17931 5.07204 8.14103 5.05305 8.09767C5.03406 8.0543 5.02555 8.00708 5.02821 7.95981C5.03088 7.91255 5.04464 7.86658 5.06839 7.82562L5.94518 6.30078C5.97155 6.25483 6.00958 6.21666 6.05543 6.19012C6.10128 6.16358 6.15333 6.14961 6.20631 6.14963H7.96255C8.00986 6.14955 8.05652 6.16062 8.09875 6.18195C8.14098 6.20327 8.17759 6.23424 8.20562 6.27235C8.23365 6.31046 8.25231 6.35463 8.26008 6.4013C8.26786 6.44796 8.26453 6.4958 8.25036 6.54094C7.91699 7.57631 6.94662 8.32806 5.80298 8.32806ZM5.94613 5.20403L5.07868 3.67652C5.05517 3.6355 5.04165 3.58952 5.03919 3.54231C5.03674 3.4951 5.04543 3.44797 5.06456 3.40473C5.08369 3.3615 5.11272 3.32337 5.14932 3.29344C5.18591 3.2635 5.22903 3.24259 5.2752 3.2324C5.44874 3.19583 5.62563 3.17743 5.80298 3.17751C6.94662 3.17751 7.91699 3.92926 8.24979 4.9652C8.26395 5.01034 8.26728 5.05818 8.25951 5.10484C8.25174 5.15151 8.23308 5.19569 8.20505 5.23379C8.17702 5.2719 8.14041 5.30287 8.09818 5.3242C8.05594 5.34552 8.00928 5.35659 7.96198 5.35652H6.2084C6.1551 5.35662 6.10272 5.34256 6.05663 5.31576C6.01055 5.28897 5.97241 5.25041 5.94613 5.20403Z" fill="black"/>
</svg>
