<svg width="11" height="11" viewBox="0 0 11 11" fill="none" xmlns="http://www.w3.org/2000/svg">
<g clip-path="url(#clip0_201_10047)">
<path d="M5.21581 4.73376C5.22857 4.74262 5.24373 4.74736 5.25926 4.74736C5.2748 4.74736 5.28996 4.74262 5.30272 4.73376C5.65653 4.4917 6.05967 4.33124 6.48305 4.26396C6.90642 4.19668 7.33945 4.22427 7.75086 4.34474C7.76251 4.34824 7.77483 4.34892 7.7868 4.34669C7.79876 4.34447 7.81001 4.33941 7.81962 4.33195C7.82923 4.32448 7.83691 4.31483 7.84203 4.30379C7.84714 4.29275 7.84954 4.28065 7.84903 4.26849C7.79051 2.89118 6.65069 1.78833 5.25926 1.78833C3.86784 1.78833 2.72802 2.89118 2.6695 4.26907C2.66899 4.28122 2.67139 4.29332 2.6765 4.30436C2.68162 4.3154 2.6893 4.32506 2.69891 4.33252C2.70852 4.33998 2.71977 4.34504 2.73173 4.34726C2.74369 4.34949 2.75601 4.34882 2.76766 4.34531C3.17908 4.22484 3.61211 4.19725 4.03548 4.26453C4.45885 4.33181 4.862 4.49227 5.21581 4.73433V4.73376Z" fill="black"/>
<path d="M8.10532 4.92486C8.01963 5.36804 7.83192 5.78519 7.55706 6.14326C7.2822 6.50132 6.92775 6.79046 6.52176 6.98779C6.50852 6.99409 6.49738 7.00408 6.48967 7.01655C6.48197 7.02903 6.47802 7.04346 6.47831 7.05812C6.47831 7.08042 6.47926 7.10272 6.47926 7.12521C6.47945 7.5172 6.39987 7.90512 6.24537 8.26538C6.09086 8.62563 5.86467 8.95068 5.58055 9.22073C5.57206 9.22875 5.56552 9.23862 5.56144 9.24956C5.55736 9.26051 5.55585 9.27225 5.55703 9.28387C5.55821 9.2955 5.56204 9.30669 5.56824 9.3166C5.57443 9.32651 5.58282 9.33486 5.59275 9.34101C5.9976 9.58769 6.46263 9.71794 6.93671 9.71745C8.31041 9.71745 9.49274 8.56848 9.52895 7.19497C9.54134 6.72539 9.42596 6.26126 9.19513 5.85214C8.9643 5.44302 8.62669 5.10427 8.21835 4.87206C8.20774 4.86597 8.19582 4.86252 8.18359 4.86201C8.17137 4.86149 8.1592 4.86393 8.14812 4.8691C8.13704 4.87428 8.12736 4.88205 8.11991 4.89175C8.11246 4.90146 8.10746 4.91281 8.10532 4.92486Z" fill="black"/>
<path d="M7.82431 4.7554C7.82703 4.73762 7.82338 4.71945 7.814 4.7041C7.80461 4.68876 7.79011 4.67722 7.77304 4.67154C7.41431 4.5492 7.0331 4.50712 6.65632 4.54825C6.27954 4.58939 5.91639 4.71274 5.59251 4.9096C5.58264 4.91576 5.57432 4.9241 5.56817 4.93397C5.56202 4.94384 5.55821 4.95499 5.55703 4.96656C5.55585 4.97813 5.55734 4.98982 5.56138 5.00073C5.56541 5.01163 5.57189 5.02148 5.58031 5.0295C6.01768 5.44566 6.31404 5.98813 6.42793 6.58103C6.43019 6.59302 6.43529 6.60429 6.4428 6.6139C6.45032 6.62352 6.46003 6.63118 6.47112 6.63626C6.48221 6.64134 6.49436 6.64369 6.50655 6.6431C6.51874 6.64251 6.5306 6.639 6.54115 6.63287C6.8834 6.43772 7.17678 6.16727 7.39909 5.84201C7.62139 5.51674 7.7668 5.14516 7.82431 4.7554Z" fill="black"/>
<path d="M4.03939 7.12521C4.03939 7.10272 4.03939 7.08042 4.04034 7.05812C4.04063 7.04346 4.03668 7.02902 4.02897 7.01655C4.02127 7.00408 4.01012 6.99409 3.99688 6.98779C3.5909 6.79046 3.23644 6.50132 2.96158 6.14326C2.68673 5.78519 2.49902 5.36804 2.41333 4.92486C2.41114 4.91295 2.40614 4.90174 2.39875 4.89214C2.39136 4.88255 2.38179 4.87486 2.37084 4.8697C2.35989 4.86454 2.34786 4.86206 2.33576 4.86247C2.32366 4.86288 2.31183 4.86617 2.30125 4.87206C1.89291 5.10427 1.5553 5.44302 1.32447 5.85214C1.09365 6.26126 0.978263 6.72539 0.990648 7.19497C1.02782 8.56848 2.20957 9.71745 3.58289 9.71745C4.05664 9.71777 4.52133 9.58752 4.9259 9.34101C4.93583 9.33486 4.94422 9.32651 4.95041 9.3166C4.9566 9.30669 4.96044 9.2955 4.96162 9.28387C4.9628 9.27225 4.96129 9.26051 4.95721 9.24956C4.95313 9.23862 4.94659 9.22875 4.9381 9.22073C4.65398 8.95068 4.42778 8.62563 4.27328 8.26538C4.11878 7.90512 4.0392 7.5172 4.03939 7.12521Z" fill="black"/>
<path d="M3.58189 4.53296C3.29736 4.53271 3.01475 4.57953 2.74551 4.67153C2.72844 4.67722 2.71394 4.68875 2.70455 4.7041C2.69517 4.71945 2.69152 4.73762 2.69424 4.7554C2.75175 5.14516 2.89716 5.51673 3.11946 5.842C3.34177 6.16727 3.63515 6.43771 3.9774 6.63287C3.98795 6.63899 3.99981 6.6425 4.012 6.64309C4.02419 6.64368 4.03633 6.64134 4.04743 6.63626C4.05852 6.63118 4.06823 6.62351 4.07575 6.6139C4.08326 6.60429 4.08836 6.59301 4.09062 6.58102C4.20451 5.98813 4.50086 5.44566 4.93824 5.02949C4.94666 5.02147 4.95314 5.01163 4.95717 5.00072C4.96121 4.98981 4.96269 4.97813 4.96152 4.96655C4.96034 4.95498 4.95653 4.94384 4.95038 4.93396C4.94423 4.92409 4.93591 4.91576 4.92604 4.9096C4.52118 4.66276 4.05606 4.53243 3.58189 4.53296Z" fill="black"/>
<path d="M5.25918 7.27773C4.98358 7.27792 4.70937 7.23863 4.44491 7.16108C4.43326 7.15757 4.42094 7.1569 4.40898 7.15912C4.39702 7.16135 4.38576 7.1664 4.37615 7.17387C4.36655 7.18133 4.35886 7.19098 4.35375 7.20202C4.34863 7.21306 4.34623 7.22516 4.34675 7.23732C4.36153 7.58257 4.44535 7.92136 4.59326 8.23368C4.74117 8.546 4.95016 8.82551 5.20791 9.0557C5.22194 9.06845 5.24022 9.07551 5.25918 9.07551C5.27814 9.07551 5.29642 9.06845 5.31045 9.0557C5.56819 8.82551 5.77719 8.546 5.9251 8.23368C6.07301 7.92136 6.15683 7.58257 6.17161 7.23732C6.17213 7.22516 6.16973 7.21306 6.16461 7.20202C6.1595 7.19098 6.15181 7.18133 6.1422 7.17387C6.13259 7.1664 6.12134 7.16135 6.10938 7.15912C6.09742 7.1569 6.0851 7.15757 6.07345 7.16108C5.80898 7.23863 5.53478 7.27792 5.25918 7.27773Z" fill="black"/>
<path d="M6.14679 6.75034C6.05868 6.15011 5.76277 5.59982 5.3106 5.19537C5.29643 5.18275 5.27811 5.17578 5.25913 5.17578C5.24016 5.17578 5.22184 5.18275 5.20767 5.19537C4.7555 5.59982 4.45958 6.15011 4.37148 6.75034C4.36876 6.76812 4.37242 6.78629 4.3818 6.80164C4.39118 6.81698 4.40569 6.82852 4.42276 6.8342C4.96504 7.01896 5.55323 7.01896 6.09551 6.8342C6.11258 6.82852 6.12709 6.81698 6.13647 6.80164C6.14585 6.78629 6.14951 6.76812 6.14679 6.75034Z" fill="black"/>
</g>
<defs>
<clipPath id="clip0_201_10047">
<rect width="9.75902" height="9.75902" fill="white" transform="translate(0.379883 0.873291)"/>
</clipPath>
</defs>
</svg>
