<svg width="11" height="11" viewBox="0 0 11 11" fill="none" xmlns="http://www.w3.org/2000/svg">
<g clip-path="url(#clip0_201_10074)">
<path d="M4.25102 3.41695L2.97021 4.69775L4.45965 6.18719L5.74046 4.90639L4.25102 3.41695Z" fill="black"/>
<path d="M6.17179 5.33752L4.89111 6.6184L8.2797 10.0224L9.57582 8.72631L6.17179 5.33752Z" fill="black"/>
<path d="M2.56147 4.22803H1.03662V4.83797H2.56147V4.22803Z" fill="black"/>
<path d="M2.14711 2.16221L1.71582 2.59351L2.79405 3.67174L3.22534 3.24044L2.14711 2.16221Z" fill="black"/>
<path d="M4.39119 1.48328H3.78125V3.00812H4.39119V1.48328Z" fill="black"/>
<path d="M6.02843 2.16237L4.9502 3.2406L5.38149 3.67189L6.45972 2.59366L6.02843 2.16237Z" fill="black"/>
<path d="M2.79405 5.39675L1.71582 6.47498L2.14711 6.90627L3.22534 5.82804L2.79405 5.39675Z" fill="black"/>
</g>
<defs>
<clipPath id="clip0_201_10074">
<rect width="9.75902" height="9.75902" fill="white" transform="translate(0.426758 0.873291)"/>
</clipPath>
</defs>
</svg>
