<svg width="10" height="11" viewBox="0 0 10 11" fill="none" xmlns="http://www.w3.org/2000/svg">
<g clip-path="url(#clip0_201_10062)">
<path d="M8.12778 7.58275C7.88762 7.56674 7.72751 7.50651 7.59408 7.35402C7.32723 7.04905 7.32723 6.66784 7.69872 6.35372L8.32429 5.7983C9.28247 4.95182 9.28247 3.5642 8.32429 2.71753C7.6181 2.09597 6.67041 1.78833 5.68536 1.78833C4.53524 1.78833 3.33347 2.20766 2.40693 3.02936C0.682714 4.55421 0.682714 7.04962 2.40693 8.57352C3.26466 9.33137 4.4203 9.70934 5.56413 9.71715H5.5992C6.74284 9.71715 7.86875 9.34547 8.67177 8.63508C9.04269 8.30705 9.04269 8.21175 8.67329 7.6506C8.58523 7.50651 8.41369 7.60181 8.12778 7.58275ZM2.33336 4.83802C2.33336 4.71739 2.36913 4.59946 2.43615 4.49916C2.50318 4.39886 2.59843 4.32068 2.70989 4.27451C2.82134 4.22835 2.94398 4.21627 3.06229 4.2398C3.18061 4.26334 3.28929 4.32143 3.37459 4.40673C3.45989 4.49203 3.51798 4.60071 3.54152 4.71903C3.56505 4.83735 3.55297 4.95999 3.50681 5.07144C3.46064 5.18289 3.38247 5.27815 3.28216 5.34517C3.18186 5.41219 3.06393 5.44796 2.9433 5.44796C2.78153 5.44796 2.62639 5.3837 2.51201 5.26932C2.39762 5.15493 2.33336 4.99979 2.33336 4.83802ZM3.09578 7.4112C2.97515 7.4112 2.85722 7.37543 2.75692 7.30841C2.65662 7.24139 2.57844 7.14613 2.53227 7.03468C2.48611 6.92323 2.47403 6.80059 2.49757 6.68227C2.5211 6.56395 2.57919 6.45527 2.66449 6.36997C2.74979 6.28467 2.85847 6.22658 2.97679 6.20304C3.09511 6.17951 3.21775 6.19159 3.3292 6.23775C3.44065 6.28392 3.53591 6.3621 3.60293 6.4624C3.66995 6.5627 3.70572 6.68063 3.70572 6.80126C3.70572 6.96303 3.64146 7.11817 3.52708 7.23256C3.41269 7.34694 3.25755 7.4112 3.09578 7.4112ZM3.85821 3.61815C3.85821 3.49751 3.89398 3.37959 3.961 3.27928C4.02802 3.17898 4.12328 3.1008 4.23473 3.05464C4.34619 3.00847 4.46882 2.99639 4.58714 3.01993C4.70546 3.04346 4.81414 3.10155 4.89944 3.18685C4.98474 3.27216 5.04283 3.38084 5.06637 3.49915C5.0899 3.61747 5.07782 3.74011 5.03166 3.85156C4.98549 3.96301 4.90731 4.05827 4.80701 4.12529C4.70671 4.19231 4.58878 4.22809 4.46815 4.22809C4.30638 4.22809 4.15124 4.16382 4.03685 4.04944C3.92247 3.93505 3.85821 3.77991 3.85821 3.61815ZM5.07809 8.78357C4.89713 8.78357 4.72025 8.72991 4.56979 8.62938C4.41933 8.52884 4.30207 8.38595 4.23282 8.21878C4.16357 8.0516 4.14546 7.86764 4.18076 7.69017C4.21606 7.51269 4.3032 7.34967 4.43115 7.22172C4.5591 7.09377 4.72212 7.00663 4.8996 6.97133C5.07707 6.93603 5.26103 6.95414 5.42821 7.02339C5.59538 7.09264 5.73827 7.20991 5.8388 7.36036C5.93934 7.51082 5.99299 7.68771 5.99299 7.86866C5.99299 8.11131 5.8966 8.34402 5.72502 8.51559C5.55344 8.68717 5.32073 8.78357 5.07809 8.78357ZM6.45045 4.22809C6.32981 4.22809 6.21189 4.19231 6.11158 4.12529C6.01128 4.05827 5.9331 3.96301 5.88694 3.85156C5.84077 3.74011 5.82869 3.61747 5.85223 3.49915C5.87576 3.38084 5.93385 3.27216 6.01916 3.18685C6.10446 3.10155 6.21314 3.04346 6.33145 3.01993C6.44977 2.99639 6.57241 3.00847 6.68386 3.05464C6.79531 3.1008 6.89057 3.17898 6.95759 3.27928C7.02461 3.37959 7.06039 3.49751 7.06039 3.61815C7.06039 3.77991 6.99612 3.93505 6.88174 4.04944C6.76735 4.16382 6.61221 4.22809 6.45045 4.22809Z" fill="black"/>
</g>
<defs>
<clipPath id="clip0_201_10062">
<rect width="9.75902" height="9.75902" fill="white" transform="translate(0.19873 0.873291)"/>
</clipPath>
</defs>
</svg>
