<svg width="11" height="11" viewBox="0 0 11 11" fill="none" xmlns="http://www.w3.org/2000/svg">
<path d="M2.66617 4.83797H1.75126C1.58353 4.83797 1.44629 4.70073 1.44629 4.533C1.44629 4.36526 1.58353 4.22803 1.75126 4.22803H2.66617C2.8339 4.22803 2.97114 4.36526 2.97114 4.533C2.97114 4.70073 2.8339 4.83797 2.66617 4.83797Z" fill="black"/>
<path d="M3.20164 3.54371C3.12158 3.54371 3.04343 3.51131 2.98625 3.45413L2.3401 2.80798C2.22192 2.6898 2.22192 2.49538 2.3401 2.37721C2.45827 2.25903 2.65269 2.25903 2.77087 2.37721L3.41702 3.02336C3.5371 3.14154 3.5371 3.33595 3.41702 3.45413C3.35984 3.51131 3.2836 3.54371 3.20164 3.54371Z" fill="black"/>
<path d="M4.49589 3.00812C4.32815 3.00812 4.19092 2.87089 4.19092 2.70315V1.78825C4.19092 1.62051 4.32815 1.48328 4.49589 1.48328C4.66362 1.48328 4.80086 1.62051 4.80086 1.78825V2.70315C4.80086 2.87089 4.66362 3.00812 4.49589 3.00812Z" fill="black"/>
<path d="M5.79032 3.54371C5.62259 3.54371 5.48535 3.40648 5.48535 3.23874C5.48535 3.15869 5.51775 3.08054 5.57494 3.02336L6.22109 2.37721C6.33927 2.25903 6.53368 2.25903 6.65186 2.37721C6.77004 2.49538 6.77004 2.6898 6.65186 2.80798L6.00571 3.45413C5.94852 3.51131 5.87038 3.54371 5.79032 3.54371Z" fill="black"/>
<path d="M2.55546 6.77821C2.38772 6.77821 2.25049 6.64097 2.25049 6.47324C2.25049 6.39319 2.28289 6.31504 2.34007 6.25786L2.98623 5.6117C3.1044 5.49353 3.29882 5.49353 3.417 5.6117C3.53517 5.72988 3.53517 5.9243 3.417 6.04247L2.77084 6.68863C2.71366 6.74581 2.63551 6.77821 2.55546 6.77821Z" fill="black"/>
<path d="M5.30059 4.05646C4.94988 3.70003 4.37615 3.69431 4.01972 4.04312C3.66329 4.39193 3.65757 4.96756 4.00638 5.32399C4.01019 5.3278 4.01591 5.33352 4.01972 5.33733L4.77261 6.09023C4.8317 6.14932 4.92891 6.14932 4.988 6.09023L6.05349 5.02474C6.11257 4.96565 6.11257 4.86844 6.05349 4.80936L5.30059 4.05646Z" fill="black"/>
<path d="M9.54735 8.3031L6.6997 5.45545C6.64061 5.39636 6.5434 5.39636 6.48431 5.45545L5.41883 6.52094C5.35974 6.58002 5.35974 6.67723 5.41883 6.73632L8.26648 9.58397C8.61719 9.9404 9.19092 9.94612 9.54735 9.59731C9.90378 9.2466 9.9095 8.67288 9.56069 8.31644C9.55688 8.31263 9.55307 8.30691 9.54735 8.3031Z" fill="black"/>
</svg>
