<svg width="11" height="11" viewBox="0 0 11 11" fill="none" xmlns="http://www.w3.org/2000/svg">
<path d="M5.44059 6.6678C6.70381 6.6678 7.72786 5.64376 7.72786 4.38053C7.72786 3.11731 6.70381 2.09326 5.44059 2.09326C4.17737 2.09326 3.15332 3.11731 3.15332 4.38053C3.15332 5.64376 4.17737 6.6678 5.44059 6.6678Z" stroke="black" stroke-width="0.609939" stroke-linejoin="round"/>
<path d="M7.11784 9.41243C8.38106 9.41243 9.40511 8.38839 9.40511 7.12516C9.40511 5.86194 8.38106 4.83789 7.11784 4.83789C5.85461 4.83789 4.83057 5.86194 4.83057 7.12516C4.83057 8.38839 5.85461 9.41243 7.11784 9.41243Z" stroke="black" stroke-width="0.609939" stroke-linejoin="round"/>
<path d="M3.76334 9.41243C5.02657 9.41243 6.05061 8.38839 6.05061 7.12516C6.05061 5.86194 5.02657 4.83789 3.76334 4.83789C2.50012 4.83789 1.47607 5.86194 1.47607 7.12516C1.47607 8.38839 2.50012 9.41243 3.76334 9.41243Z" stroke="black" stroke-width="0.609939" stroke-linejoin="round"/>
</svg>
