<svg width="11" height="11" viewBox="0 0 11 11" fill="none" xmlns="http://www.w3.org/2000/svg">
<path d="M8.98735 7.50456C8.86155 7.38829 8.67666 7.3597 8.51846 7.33302C8.29926 7.2968 8.21539 7.25677 8.08769 7.14241C7.81512 6.90034 7.81512 6.54963 8.08769 6.30756L8.66522 5.79483C9.54963 5.01334 9.54963 3.73247 8.66522 2.95099C8.01335 2.37726 7.13847 2.09326 6.22928 2.09326C5.1676 2.09326 4.05828 2.48019 3.20246 3.2388C1.6109 4.64547 1.6109 6.9499 3.20246 8.35657C3.99347 9.05609 5.06087 9.4049 6.11682 9.41253H6.14923C7.20518 9.41253 8.24589 9.07134 8.98544 8.41375C9.25991 8.17168 9.21398 7.71613 8.98735 7.50456Z" stroke="black" stroke-width="0.609939" stroke-miterlimit="10"/>
<path d="M3.53377 5.44791C3.87063 5.44791 4.14371 5.17483 4.14371 4.83797C4.14371 4.50111 3.87063 4.22803 3.53377 4.22803C3.19691 4.22803 2.92383 4.50111 2.92383 4.83797C2.92383 5.17483 3.19691 5.44791 3.53377 5.44791Z" fill="black"/>
<path d="M3.68611 7.41116C4.02297 7.41116 4.29605 7.13808 4.29605 6.80122C4.29605 6.46436 4.02297 6.19128 3.68611 6.19128C3.34925 6.19128 3.07617 6.46436 3.07617 6.80122C3.07617 7.13808 3.34925 7.41116 3.68611 7.41116Z" fill="black"/>
<path d="M5.05867 4.22806C5.39553 4.22806 5.66861 3.95498 5.66861 3.61812C5.66861 3.28126 5.39553 3.00818 5.05867 3.00818C4.72181 3.00818 4.44873 3.28126 4.44873 3.61812C4.44873 3.95498 4.72181 4.22806 5.05867 4.22806Z" fill="black"/>
<path d="M5.66881 8.78355C6.1741 8.78355 6.58372 8.37393 6.58372 7.86864C6.58372 7.36335 6.1741 6.95374 5.66881 6.95374C5.16352 6.95374 4.75391 7.36335 4.75391 7.86864C4.75391 8.37393 5.16352 8.78355 5.66881 8.78355Z" fill="black"/>
<path d="M7.04109 4.22806C7.37795 4.22806 7.65103 3.95498 7.65103 3.61812C7.65103 3.28126 7.37795 3.00818 7.04109 3.00818C6.70423 3.00818 6.43115 3.28126 6.43115 3.61812C6.43115 3.95498 6.70423 4.22806 7.04109 4.22806Z" fill="black"/>
</svg>
