<svg width="11" height="11" viewBox="0 0 11 11" fill="none" xmlns="http://www.w3.org/2000/svg">
<g clip-path="url(#clip0_201_10026)">
<path d="M8.32068 7.30539C8.31363 7.29678 8.30476 7.28984 8.29471 7.28507C8.28465 7.2803 8.27367 7.27783 8.26254 7.27783C8.25141 7.27783 8.24043 7.2803 8.23037 7.28507C8.22032 7.28984 8.21145 7.29678 8.20441 7.30539C8.00427 7.54174 7.34668 8.19266 7.34668 8.78563C7.34668 9.30027 7.75648 9.71751 8.26159 9.71751C8.76669 9.71751 9.1765 9.29817 9.1765 8.78563C9.1765 8.19266 8.52272 7.54174 8.32068 7.30539Z" stroke="black" stroke-width="0.609939" stroke-miterlimit="10"/>
<path d="M7.70914 6.36092L3.29871 1.98576C3.23496 1.92179 3.15921 1.87103 3.0758 1.8364C2.9924 1.80176 2.90297 1.78394 2.81266 1.78394C2.72235 1.78394 2.63293 1.80176 2.54952 1.8364C2.46612 1.87103 2.39037 1.92179 2.32662 1.98576L2.22846 2.08392C2.16449 2.14767 2.11373 2.22342 2.0791 2.30682C2.04446 2.39023 2.02663 2.47965 2.02663 2.56996C2.02663 2.66027 2.04446 2.7497 2.0791 2.8331C2.11373 2.91651 2.16449 2.99226 2.22846 3.05601L3.23657 4.06412L4.32302 2.97767L1.40637 5.89013C1.35603 5.9402 1.31618 5.99981 1.28916 6.06548C1.26215 6.13114 1.24851 6.20154 1.24904 6.27254C1.24957 6.34354 1.26427 6.41373 1.29226 6.47898C1.32026 6.54423 1.361 6.60324 1.41209 6.65255L3.91284 9.05419C4.0127 9.14979 4.14571 9.203 4.28395 9.20264C4.4222 9.20229 4.55493 9.1484 4.6543 9.05228C5.37479 8.35466 6.90916 6.86984 7.06927 6.70973C7.17982 6.59918 7.41618 6.5744 7.61631 6.5744H7.62203C7.64678 6.57442 7.67097 6.56707 7.69152 6.55327C7.71206 6.53948 7.72803 6.51987 7.73738 6.49696C7.74673 6.47405 7.74904 6.44886 7.74401 6.42463C7.73898 6.4004 7.72684 6.37822 7.70914 6.36092V6.36092Z" stroke="black" stroke-width="0.609939" stroke-miterlimit="10"/>
</g>
<defs>
<clipPath id="clip0_201_10026">
<rect width="9.75902" height="9.75902" fill="white" transform="translate(0.33252 0.873291)"/>
</clipPath>
</defs>
</svg>
