<svg width="11" height="11" viewBox="0 0 11 11" fill="none" xmlns="http://www.w3.org/2000/svg">
<g clip-path="url(#clip0_201_10039)">
<path d="M5.84959 4.39963C6.23008 4.16518 6.65545 4.01305 7.09832 3.95304C7.54119 3.89303 7.99171 3.92647 8.42087 4.0512C8.25809 2.77624 7.16706 1.78833 5.84959 1.78833C4.53213 1.78833 3.4411 2.77624 3.27832 4.05025C3.70754 3.92566 4.1581 3.89237 4.60097 3.95255C5.04384 4.01273 5.46918 4.16502 5.84959 4.39963Z" fill="black"/>
<path d="M7.37467 7.1963C7.36553 7.61884 7.27259 8.03537 7.10124 8.42172C6.92988 8.80807 6.68353 9.15656 6.37646 9.44697C6.73384 9.6252 7.1278 9.7178 7.52715 9.71744C8.9567 9.71744 10.1194 8.55475 10.1194 7.1252C10.1192 6.7045 10.0166 6.29016 9.82048 5.91796C9.62435 5.54577 9.34058 5.2269 8.99367 4.98889C8.90307 5.45337 8.71096 5.89209 8.43108 6.27369C8.1512 6.65529 7.79047 6.97033 7.37467 7.1963Z" fill="black"/>
<path d="M6.37568 4.80342C6.86033 5.26242 7.18929 5.8615 7.31651 6.51678C7.61972 6.30853 7.87519 6.03821 8.06598 5.72373C8.25677 5.40924 8.37853 5.05779 8.42317 4.69268C8.09229 4.57076 7.74001 4.5177 7.3879 4.53674C7.03579 4.55578 6.69128 4.64653 6.37549 4.80342H6.37568Z" fill="black"/>
<path d="M4.32576 7.1963C3.90974 6.97046 3.54879 6.65547 3.2687 6.27387C2.98862 5.89226 2.79634 5.45347 2.70561 4.98889C2.35873 5.22692 2.075 5.5458 1.87891 5.91799C1.68282 6.29019 1.58025 6.70451 1.58008 7.1252C1.58008 8.55475 2.74277 9.71744 4.17232 9.71744C4.57199 9.71795 4.96629 9.62534 5.32396 9.44697C5.01689 9.15656 4.77054 8.80807 4.59919 8.42172C4.42783 8.03537 4.33489 7.61884 4.32576 7.1963Z" fill="black"/>
<path d="M4.38302 6.51686C4.51024 5.86159 4.83921 5.2625 5.32386 4.8035C5.00809 4.64664 4.66361 4.5559 4.31154 4.53686C3.95947 4.51782 3.60721 4.57087 3.27637 4.69276C3.32101 5.05787 3.44276 5.40933 3.63355 5.72381C3.82434 6.03829 4.07982 6.30862 4.38302 6.51686Z" fill="black"/>
<path d="M6.74345 7.45557C6.15954 7.62508 5.53947 7.62508 4.95557 7.45557C5.03819 8.09594 5.357 8.68238 5.84951 9.09992C6.34202 8.68238 6.66083 8.09594 6.74345 7.45557Z" fill="black"/>
<path d="M4.9541 6.8131C5.53235 7.02606 6.16755 7.02606 6.7458 6.8131C6.66696 6.16597 6.34708 5.57235 5.84995 5.15063C5.35282 5.57235 5.03293 6.16597 4.9541 6.8131Z" fill="black"/>
</g>
<defs>
<clipPath id="clip0_201_10039">
<rect width="9.75902" height="9.75902" fill="white" transform="translate(0.970215 0.873291)"/>
</clipPath>
</defs>
</svg>
