<svg width="10" height="11" viewBox="0 0 10 11" fill="none" xmlns="http://www.w3.org/2000/svg">
<g clip-path="url(#clip0_201_10032)">
<path d="M8.08072 10.0224C7.40807 10.0224 6.86084 9.46758 6.86084 8.78578C6.86084 8.15125 7.40731 7.53922 7.70103 7.21061C7.73667 7.17058 7.76755 7.13608 7.79023 7.1094C7.82591 7.06688 7.87046 7.0327 7.92076 7.00924C7.97106 6.98579 8.02589 6.97363 8.08138 6.97363C8.13688 6.97363 8.19171 6.98579 8.24201 7.00924C8.29231 7.0327 8.33686 7.06688 8.37253 7.1094C8.39407 7.13437 8.42266 7.16658 8.45564 7.20337C8.75108 7.53312 9.3006 8.14706 9.3006 8.78635C9.3006 9.46758 8.75337 10.0224 8.08072 10.0224Z" fill="black"/>
<path d="M7.74186 6.14625L3.33238 1.77337C3.14621 1.5876 2.89395 1.48328 2.63095 1.48328C2.36795 1.48328 2.11569 1.5876 1.92952 1.77337L1.84356 1.85933C1.65257 2.04719 1.54369 2.30299 1.54068 2.57086C1.53995 2.70165 1.56527 2.83127 1.61518 2.95216C1.66508 3.07305 1.73858 3.18279 1.83136 3.27496L2.62256 4.06598L1.00908 5.6766C0.929234 5.75663 0.866181 5.85181 0.823629 5.95656C0.781078 6.0613 0.759885 6.17349 0.761297 6.28653C0.762235 6.39682 0.785521 6.50577 0.829748 6.6068C0.873975 6.70784 0.938224 6.79886 1.01861 6.87436L3.52013 9.276C3.67688 9.42625 3.8858 9.50984 4.10293 9.5092C4.32006 9.50856 4.52848 9.42374 4.68435 9.27257L7.04996 6.97996C7.09274 6.93742 7.14745 6.9089 7.20682 6.89819C7.28201 6.88617 7.35809 6.88069 7.43422 6.8818H7.43994C7.52523 6.88194 7.60864 6.85669 7.67952 6.80925C7.75041 6.76181 7.80556 6.69433 7.83795 6.61543C7.87033 6.53652 7.87849 6.44976 7.86138 6.3662C7.84426 6.28264 7.80266 6.20607 7.74186 6.14625ZM3.05409 3.63425L2.26251 2.84286C2.22695 2.80744 2.19874 2.76535 2.17948 2.719C2.16023 2.67265 2.15032 2.62296 2.15032 2.57277C2.15032 2.52258 2.16023 2.47289 2.17948 2.42654C2.19874 2.38019 2.22695 2.3381 2.26251 2.30268L2.36086 2.20452C2.39639 2.16898 2.43857 2.14078 2.48499 2.12155C2.53141 2.10231 2.58117 2.09241 2.63143 2.09241C2.68168 2.09241 2.73144 2.10231 2.77786 2.12155C2.82429 2.14078 2.86647 2.16898 2.90199 2.20452L3.69663 2.99306L3.05409 3.63425Z" fill="black"/>
</g>
<defs>
<clipPath id="clip0_201_10032">
<rect width="9.75902" height="9.75902" fill="white" transform="translate(0.151367 0.873291)"/>
</clipPath>
</defs>
</svg>
