<svg width="11" height="11" viewBox="0 0 11 11" fill="none" xmlns="http://www.w3.org/2000/svg">
<path d="M5.5346 6.21032C5.78725 6.21032 5.99206 6.00551 5.99206 5.75286C5.99206 5.50022 5.78725 5.29541 5.5346 5.29541C5.28196 5.29541 5.07715 5.50022 5.07715 5.75286C5.07715 6.00551 5.28196 6.21032 5.5346 6.21032Z" fill="black"/>
<path d="M5.53491 1.78821C3.34886 1.78821 1.57031 3.56675 1.57031 5.75281C1.57031 7.93887 3.34886 9.71741 5.53491 9.71741C7.72097 9.71741 9.49952 7.93887 9.49952 5.75281C9.49952 3.56675 7.72097 1.78821 5.53491 1.78821ZM6.44982 6.66772L3.40013 7.8876L4.62001 4.8379L7.6697 3.61802L6.44982 6.66772Z" fill="black"/>
</svg>
