<svg width="11" height="11" viewBox="0 0 11 11" fill="none" xmlns="http://www.w3.org/2000/svg">
<g clip-path="url(#clip0_201_10099)">
<path d="M8.79745 4.38261C8.70043 4.47901 8.56921 4.53311 8.43244 4.53311C8.29567 4.53311 8.16445 4.47901 8.06743 4.38261L7.63895 3.95394C7.54251 3.85697 7.48838 3.72578 7.48838 3.58902C7.48838 3.45227 7.54251 3.32107 7.63895 3.22411L8.60894 2.25411C8.61081 2.25225 8.61219 2.24996 8.61297 2.24744C8.61375 2.24492 8.6139 2.24225 8.61341 2.23965C8.61292 2.23706 8.61181 2.23463 8.61016 2.23256C8.60852 2.2305 8.6064 2.22887 8.60398 2.22781C7.97803 1.95982 7.16624 2.0961 6.65084 2.60788C6.15756 3.09755 6.12954 3.8329 6.31023 4.47582C6.33591 4.56714 6.33585 4.66378 6.31005 4.75507C6.28425 4.84636 6.23372 4.92875 6.16404 4.99312L2.86656 8.0573C2.78785 8.12778 2.72435 8.21356 2.67993 8.30942C2.6355 8.40527 2.6111 8.50917 2.6082 8.61478C2.60531 8.72039 2.62398 8.82547 2.66308 8.92362C2.70218 9.02176 2.76088 9.1109 2.83561 9.18559C2.91033 9.26027 2.9995 9.31893 3.09766 9.35798C3.19583 9.39703 3.30092 9.41564 3.40653 9.41269C3.51213 9.40974 3.61603 9.38528 3.71186 9.34081C3.80769 9.29634 3.89344 9.23279 3.96387 9.15405L7.05455 5.85085C7.11823 5.78232 7.19938 5.73244 7.28929 5.70658C7.37919 5.68072 7.47444 5.67986 7.5648 5.70408C8.20257 5.87448 8.92744 5.84246 9.41501 5.36213C9.93899 4.84597 10.052 3.93373 9.79813 3.41166C9.79698 3.40937 9.7953 3.40739 9.79323 3.40587C9.79117 3.40436 9.78877 3.40335 9.78624 3.40294C9.78371 3.40253 9.78112 3.40273 9.77868 3.40352C9.77624 3.40431 9.77402 3.40566 9.77221 3.40747L8.79745 4.38261Z" stroke="black" stroke-width="0.609939" stroke-miterlimit="10" stroke-linecap="round"/>
<path d="M4.74381 6.28655C4.41063 5.96252 4.25795 5.81175 4.15293 5.7092C4.10037 5.65699 4.06586 5.58934 4.05445 5.51614C4.04303 5.44294 4.05529 5.368 4.08946 5.30226C4.10747 5.26993 4.12992 5.24029 4.15617 5.2142L4.45504 4.92276C4.48596 4.89178 4.52234 4.86677 4.56235 4.849C4.6255 4.82104 4.69559 4.81268 4.76355 4.82498C4.83151 4.83728 4.89421 4.86968 4.94356 4.918C5.04744 5.01883 5.23767 5.20391 5.58038 5.53785" stroke="black" stroke-width="0.609939" stroke-linecap="round" stroke-linejoin="round"/>
<path d="M6.51783 6.42566C7.29836 7.15187 8.2451 8.01283 8.61449 8.32047C8.64212 8.34324 8.66467 8.37155 8.68071 8.40356C8.69674 8.43557 8.70589 8.47058 8.70758 8.50635C8.70927 8.54211 8.70345 8.57783 8.6905 8.61121C8.67756 8.64459 8.65777 8.67489 8.63241 8.70016L7.99617 9.33621C7.97027 9.36151 7.9395 9.38128 7.90572 9.39431C7.87194 9.40734 7.83587 9.41336 7.79969 9.41201C7.76351 9.41065 7.72798 9.40195 7.69528 9.38643C7.66257 9.37091 7.63336 9.34889 7.60943 9.32172C7.29436 8.95614 6.44502 8.04257 5.71729 7.28224" stroke="black" stroke-width="0.609939" stroke-linecap="round" stroke-linejoin="round"/>
<path d="M0.804856 4.56161L1.36543 4.01381C1.37399 4.00539 1.38415 3.99878 1.39532 3.99436C1.40648 3.98994 1.41842 3.9878 1.43042 3.98808C1.45462 3.98781 1.47796 3.99705 1.49542 4.01381V4.01381C1.51572 4.03389 1.54033 4.04908 1.56738 4.05823C1.59443 4.06738 1.62321 4.07024 1.65153 4.06661C1.72453 4.0586 1.80249 4.03611 1.853 3.98808C1.96736 3.87752 1.83508 3.65966 1.93572 3.52033C2.0508 3.3678 2.1768 3.22383 2.31274 3.08956C2.4271 2.97748 2.88151 2.54976 3.64507 2.24232C3.88926 2.14361 4.15022 2.093 4.4136 2.09326C4.84418 2.09326 5.17602 2.28387 5.29534 2.39194C5.36696 2.46008 5.43252 2.53432 5.49128 2.61381C5.43389 2.59266 5.37527 2.57502 5.31574 2.56101C5.19052 2.53445 5.06209 2.52636 4.93452 2.53699C4.68045 2.55777 4.37395 2.67537 4.21022 2.80384C3.94528 3.01351 3.83149 3.29408 3.81357 3.65604C3.80061 3.92518 3.86541 4.07728 4.50166 4.71371C4.5234 4.73799 4.53488 4.76975 4.53367 4.80232C4.53246 4.83488 4.51866 4.86571 4.49518 4.88831L4.14789 5.2314C4.12368 5.25513 4.09122 5.26857 4.05732 5.26889C4.02342 5.26921 3.99071 5.25639 3.96605 5.23311C3.54787 4.81492 3.26748 4.6024 3.10833 4.50576C2.94917 4.40912 2.82109 4.38187 2.75952 4.3752C2.63861 4.36322 2.51695 4.38898 2.41128 4.44896C2.39274 4.45915 2.37579 4.47199 2.36096 4.48708C2.33621 4.51266 2.31678 4.54289 2.30378 4.57602C2.29077 4.60915 2.28446 4.64453 2.28521 4.68012C2.28595 4.7157 2.29374 4.75079 2.30811 4.78335C2.32249 4.81591 2.34317 4.8453 2.36897 4.86982L2.40156 4.90032C2.41002 4.90854 2.41675 4.91838 2.42134 4.92925C2.42593 4.94012 2.4283 4.9518 2.4283 4.9636C2.4283 4.9754 2.42593 4.98708 2.42134 4.99795C2.41675 5.00881 2.41002 5.01865 2.40156 5.02688L1.84156 5.57373C1.83308 5.58232 1.82295 5.58911 1.81178 5.59369C1.80061 5.59828 1.78864 5.60056 1.77657 5.60041C1.75237 5.60065 1.72904 5.59141 1.71157 5.57468L0.804856 4.6897C0.788446 4.67241 0.779297 4.64949 0.779297 4.62565C0.779297 4.60182 0.788446 4.57889 0.804856 4.56161V4.56161Z" stroke="black" stroke-width="0.609939" stroke-linecap="round" stroke-linejoin="round"/>
</g>
<defs>
<clipPath id="clip0_201_10099">
<rect width="9.75902" height="9.75902" fill="white" transform="translate(0.474121 0.873291)"/>
</clipPath>
</defs>
</svg>
