<svg width="11" height="11" viewBox="0 0 11 11" fill="none" xmlns="http://www.w3.org/2000/svg">
<g clip-path="url(#clip0_201_10104)">
<path d="M10.3591 2.99626L8.81344 4.53711L7.88747 3.61439L9.43309 2.0741C8.57118 1.65477 7.36216 1.65306 6.64644 2.36668C5.97322 3.03762 5.88916 4.09376 6.21681 4.92462L2.78114 8.33303C2.75982 8.35428 2.7429 8.37953 2.73135 8.40733C2.71981 8.43513 2.71387 8.46494 2.71387 8.49504C2.71387 8.52515 2.71981 8.55496 2.73135 8.58276C2.7429 8.61056 2.75982 8.63581 2.78114 8.65706L3.77744 9.65031C3.79869 9.67163 3.82394 9.68855 3.85174 9.70009C3.87954 9.71164 3.90935 9.71758 3.93945 9.71758C3.96956 9.71758 3.99936 9.71164 4.02717 9.70009C4.05497 9.68855 4.08022 9.67163 4.10147 9.65031L7.53237 6.20987C8.35503 6.51884 9.40031 6.43174 10.0625 5.77148C10.7772 5.05766 10.7757 3.85894 10.3591 2.99626Z" fill="black"/>
<path d="M7.8491 6.75574L6.47998 8.1281L7.91963 9.65142C7.9387 9.6717 7.96166 9.68794 7.98713 9.69916C8.01261 9.71038 8.04009 9.71635 8.06793 9.71673C8.09576 9.7171 8.12339 9.71186 8.14916 9.70133C8.17493 9.6908 8.19832 9.67519 8.21792 9.65542L9.36156 8.50302C9.38112 8.48321 9.39653 8.45969 9.40691 8.43385C9.41728 8.40802 9.4224 8.38037 9.42198 8.35253C9.42155 8.32469 9.41559 8.29722 9.40443 8.27171C9.39327 8.2462 9.37714 8.22317 9.35699 8.20396L7.8491 6.75574Z" fill="black"/>
<path d="M3.15127 4.9142C3.15127 4.82137 3.07503 4.73636 3.00927 4.67061L3.00451 4.66603L2.97515 4.63801C2.97333 4.63594 2.97195 4.63352 2.9711 4.6309C2.97024 4.62828 2.96994 4.62551 2.9702 4.62276C3.02533 4.59172 3.08869 4.57841 3.15165 4.58464C3.17586 4.58712 3.2643 4.6018 3.388 4.67823C3.45243 4.71807 4.00995 5.25443 4.22534 5.454C4.18756 5.49349 4.1667 5.54618 4.1672 5.60083C4.1677 5.65548 4.18951 5.70777 4.228 5.74658L4.36962 5.89639L5.62114 4.65421L5.46389 4.50478C5.42524 4.46613 5.37288 4.44433 5.31822 4.44411C5.26356 4.4439 5.21103 4.46529 5.17208 4.50363C4.73368 4.03322 4.61932 3.82794 4.5812 3.69451C4.49695 3.39965 4.66011 3.16082 4.84805 3.00833C4.95936 2.92027 5.18885 2.85432 5.4008 2.83679C5.47476 2.83243 5.54898 2.83626 5.6221 2.84822C5.68824 2.85775 5.74218 2.86995 5.76295 2.87491C5.83489 2.89429 5.90503 2.9198 5.97262 2.95115L6.20135 2.589C6.13073 2.46625 6.04491 2.3529 5.94593 2.25163C5.91563 2.21999 5.88284 2.18739 5.84701 2.15442C5.69872 2.01813 5.31331 1.78845 4.80649 1.78845C4.51379 1.78813 4.22386 1.84525 3.95315 1.95657C3.23952 2.24896 2.77368 2.64751 2.55963 2.85909L2.5583 2.86042C2.41446 3.00497 2.28138 3.15983 2.16012 3.32378C2.05815 3.46731 2.0692 3.6257 2.07664 3.73054C2.07664 3.73664 2.07664 3.74331 2.07797 3.7496C2.0182 3.70631 1.9463 3.68296 1.8725 3.68289C1.82678 3.68257 1.78146 3.6914 1.73921 3.70884C1.69695 3.72629 1.6586 3.752 1.62643 3.78448L0.921184 4.48762C0.896927 4.51189 0.883301 4.5448 0.883301 4.57911C0.883301 4.61343 0.896927 4.64634 0.921184 4.67061L2.122 5.86723C2.14602 5.89123 2.17858 5.90471 2.21254 5.90471C2.24649 5.90471 2.27906 5.89123 2.30308 5.86723L3.00946 5.16199C3.07503 5.09642 3.15127 5.00683 3.15127 4.9142Z" fill="black"/>
</g>
<defs>
<clipPath id="clip0_201_10104">
<rect width="9.75902" height="9.75902" fill="white" transform="translate(0.883301 0.873291)"/>
</clipPath>
</defs>
</svg>
