<svg width="11" height="11" viewBox="0 0 11 11" fill="none" xmlns="http://www.w3.org/2000/svg">
<g clip-path="url(#clip0_201_10144)">
<path d="M5.62888 1.48329C4.78444 1.48331 3.95898 1.73372 3.25687 2.20287C2.55475 2.67202 2.00752 3.33883 1.68437 4.11898C1.36123 4.89913 1.27668 5.75759 1.44141 6.5858C1.60615 7.414 2.01277 8.17476 2.60987 8.77187C3.00562 9.17154 3.47645 9.48908 3.99529 9.70624C4.51413 9.9234 5.07077 10.0359 5.63323 10.0373C6.19568 10.0387 6.75287 9.92891 7.27278 9.7143C7.79268 9.4997 8.26506 9.18448 8.66278 8.78677C9.0605 8.38905 9.37571 7.91667 9.59031 7.39676C9.80492 6.87686 9.91468 6.31967 9.9133 5.75722C9.91191 5.19476 9.79941 4.63812 9.58225 4.11928C9.36509 3.60044 9.04755 3.12961 8.64788 2.73386C8.25235 2.33614 7.78186 2.02083 7.26364 1.80617C6.74543 1.59151 6.18979 1.48177 5.62888 1.48329ZM1.96924 5.75286C1.96924 3.73492 3.61093 2.09323 5.62888 2.09323V9.4125C3.61093 9.4125 1.96924 7.77081 1.96924 5.75286Z" fill="black"/>
</g>
<defs>
<clipPath id="clip0_201_10144">
<rect width="9.75902" height="9.75902" fill="white" transform="translate(0.749512 0.873291)"/>
</clipPath>
</defs>
</svg>
