<svg width="11" height="11" viewBox="0 0 11 11" fill="none" xmlns="http://www.w3.org/2000/svg">
<g clip-path="url(#clip0_201_10142)">
<path d="M5.21928 1.48328C2.86129 1.48328 0.949707 3.39486 0.949707 5.75285C0.949707 8.11083 2.86129 10.0224 5.21928 10.0224C7.57726 10.0224 9.48885 8.11083 9.48885 5.75285C9.48885 3.39486 7.57726 1.48328 5.21928 1.48328ZM2.79325 8.17888C2.31342 7.69906 1.98665 7.08773 1.85427 6.42219C1.72188 5.75666 1.78983 5.06681 2.04951 4.43989C2.30919 3.81297 2.74894 3.27714 3.31315 2.90014C3.87737 2.52315 4.5407 2.32194 5.21928 2.32194V9.18375C4.76854 9.18499 4.32204 9.09681 3.90561 8.92433C3.48918 8.75184 3.1111 8.49847 2.79325 8.17888Z" fill="black"/>
</g>
<defs>
<clipPath id="clip0_201_10142">
<rect width="9.75902" height="9.75902" fill="white" transform="translate(0.339844 0.873291)"/>
</clipPath>
</defs>
</svg>
