<svg width="11" height="11" viewBox="0 0 11 11" fill="none" xmlns="http://www.w3.org/2000/svg">
<g clip-path="url(#clip0_201_10152)">
<path d="M8.75424 10.0225H4.48467C4.12069 10.0225 3.77163 9.87789 3.51426 9.62052C3.25689 9.36315 3.1123 9.01409 3.1123 8.65011V4.38054C3.1123 4.01657 3.25689 3.6675 3.51426 3.41013C3.77163 3.15277 4.12069 3.00818 4.48467 3.00818H8.75424C9.11821 3.00818 9.46728 3.15277 9.72465 3.41013C9.98201 3.6675 10.1266 4.01657 10.1266 4.38054V8.65011C10.1266 9.01409 9.98201 9.36315 9.72465 9.62052C9.46728 9.87789 9.11821 10.0225 8.75424 10.0225Z" fill="black"/>
<path d="M4.02716 2.39818H8.52317C8.42828 2.13081 8.25299 1.89934 8.02135 1.73554C7.7897 1.57174 7.51305 1.48362 7.22934 1.48328H2.95976C2.59579 1.48328 2.24673 1.62786 1.98936 1.88523C1.73199 2.1426 1.5874 2.49167 1.5874 2.85564V7.12521C1.58774 7.40892 1.67586 7.68558 1.83967 7.91722C2.00347 8.14887 2.23494 8.32416 2.50231 8.41904V3.92303C2.50231 3.51862 2.66296 3.13077 2.94893 2.8448C3.23489 2.55884 3.62274 2.39818 4.02716 2.39818Z" fill="black"/>
</g>
<defs>
<clipPath id="clip0_201_10152">
<rect width="9.75902" height="9.75902" fill="white" transform="translate(0.977539 0.873291)"/>
</clipPath>
</defs>
</svg>
