<svg width="10" height="11" viewBox="0 0 10 11" fill="none" xmlns="http://www.w3.org/2000/svg">
<g clip-path="url(#clip0_201_10146)">
<path d="M7.91654 3.31311H3.68509C3.08505 3.31311 2.59863 3.79953 2.59863 4.39956V8.63101C2.59863 9.23105 3.08505 9.71747 3.68509 9.71747H7.91654C8.51657 9.71747 9.00299 9.23105 9.00299 8.63101V4.39956C9.00299 3.79953 8.51657 3.31311 7.91654 3.31311Z" stroke="black" stroke-width="0.609939" stroke-linejoin="round"/>
<path d="M7.46856 3.31306L7.47809 2.8556C7.47728 2.57276 7.36457 2.30173 7.16457 2.10173C6.96457 1.90173 6.69354 1.78901 6.41069 1.78821H2.29361C1.97037 1.78916 1.66064 1.91799 1.43208 2.14656C1.20352 2.37512 1.07469 2.68485 1.07373 3.00809V7.12517C1.07454 7.40802 1.18725 7.67904 1.38725 7.87904C1.58725 8.07905 1.85828 8.19176 2.14112 8.19257H2.59858" stroke="black" stroke-width="0.609939" stroke-linecap="round" stroke-linejoin="round"/>
</g>
<defs>
<clipPath id="clip0_201_10146">
<rect width="9.75902" height="9.75902" fill="white" transform="translate(0.158691 0.873291)"/>
</clipPath>
</defs>
</svg>
