<svg width="11" height="11" viewBox="0 0 11 11" fill="none" xmlns="http://www.w3.org/2000/svg">
<path d="M9.64757 1.81109C9.60929 1.76913 9.56291 1.73536 9.51122 1.71181C9.45954 1.68826 9.40362 1.67542 9.34684 1.67407C9.29006 1.67272 9.23359 1.68287 9.18084 1.70393C9.12809 1.72499 9.08015 1.75651 9.03992 1.7966L8.69092 2.14445L9.28523 2.73724L9.62832 2.39586C9.7064 2.31973 9.75201 2.21634 9.75559 2.10735C9.75918 1.99835 9.72047 1.89219 9.64757 1.81109Z" fill="black"/>
<path d="M5.61427 7.27775H5.36134H4.76112H4.15118V6.66781V6.06759V5.81466L4.33035 5.63587L6.96338 3.00818H1.71143V9.71751H8.42075V4.46555L5.79306 7.09858L5.61427 7.27775Z" fill="black"/>
<path d="M8.42089 3.6021L9.04588 2.97577L8.45329 2.38318L7.82715 3.00818H8.42089V3.6021Z" fill="black"/>
<path d="M4.76123 6.66781H5.36145L8.42086 3.60211V3.00818H7.82713L4.76123 6.06759V6.66781Z" fill="black"/>
</svg>
