<svg width="10" height="11" viewBox="0 0 10 11" fill="none" xmlns="http://www.w3.org/2000/svg">
<g clip-path="url(#clip0_201_10164)">
<path d="M8.97299 1.88828C8.94514 1.85768 8.91137 1.83304 8.87373 1.81585C8.83609 1.79867 8.79535 1.78929 8.75398 1.7883C8.71261 1.7873 8.67147 1.7947 8.63305 1.81005C8.59462 1.8254 8.5597 1.84838 8.53041 1.87761L8.29463 2.11224C8.26605 2.14084 8.25 2.17961 8.25 2.22003C8.25 2.26046 8.26605 2.29923 8.29463 2.32782L8.51077 2.54358C8.52494 2.55782 8.54178 2.56911 8.56033 2.57682C8.57888 2.58453 8.59876 2.5885 8.61885 2.5885C8.63893 2.5885 8.65882 2.58453 8.67736 2.57682C8.69591 2.56911 8.71275 2.55782 8.72692 2.54358L8.95679 2.31486C9.07306 2.19878 9.08393 2.0097 8.97299 1.88828Z" fill="black"/>
<path d="M7.81797 2.58877L4.37716 6.02349C4.3563 6.04427 4.34113 6.07006 4.33313 6.0984L4.17397 6.57243C4.17016 6.5853 4.16989 6.59895 4.17319 6.61195C4.17649 6.62496 4.18324 6.63683 4.19273 6.64631C4.20221 6.6558 4.21408 6.66255 4.22709 6.66585C4.24009 6.66915 4.25374 6.66888 4.26661 6.66507L4.74026 6.50591C4.7686 6.49791 4.79439 6.48274 4.81517 6.46188L8.24989 3.02068C8.28166 2.98857 8.29949 2.94521 8.29949 2.90003C8.29949 2.85485 8.28166 2.81149 8.24989 2.77938L8.06023 2.58877C8.02808 2.5567 7.98452 2.5387 7.9391 2.5387C7.89369 2.5387 7.85013 2.5567 7.81797 2.58877Z" fill="black"/>
<path d="M7.57005 4.56467L5.24676 6.89254C5.15696 6.98255 5.0466 7.04934 4.92521 7.08714L4.43154 7.2524C4.31438 7.28549 4.19051 7.28673 4.07271 7.25601C3.95491 7.2253 3.84743 7.16372 3.76134 7.07764C3.67526 6.99155 3.61368 6.88407 3.58297 6.76627C3.55225 6.64847 3.55349 6.5246 3.58658 6.40744L3.75184 5.91377C3.78953 5.79242 3.85619 5.68206 3.94606 5.59222L6.27393 3.26855C6.29527 3.24723 6.30981 3.22007 6.31571 3.19049C6.32161 3.16091 6.3186 3.13025 6.30708 3.10238C6.29555 3.07451 6.27602 3.05069 6.25095 3.03392C6.22588 3.01715 6.1964 3.00819 6.16624 3.00818H2.18849C1.9054 3.00818 1.6339 3.12064 1.43373 3.32081C1.23355 3.52099 1.12109 3.79248 1.12109 4.07557V8.65011C1.12109 8.9332 1.23355 9.2047 1.43373 9.40487C1.6339 9.60505 1.9054 9.71751 2.18849 9.71751H6.76303C7.04612 9.71751 7.31761 9.60505 7.51779 9.40487C7.71796 9.2047 7.83042 8.9332 7.83042 8.65011V4.67236C7.83041 4.6422 7.82145 4.61272 7.80468 4.58765C7.78791 4.56258 7.76409 4.54305 7.73622 4.53152C7.70835 4.51999 7.67768 4.51699 7.64811 4.52289C7.61853 4.52879 7.59137 4.54333 7.57005 4.56467Z" fill="black"/>
</g>
<defs>
<clipPath id="clip0_201_10164">
<rect width="9.75902" height="9.75902" fill="white" transform="translate(0.206055 0.873291)"/>
</clipPath>
</defs>
</svg>
