<svg width="11" height="11" viewBox="0 0 11 11" fill="none" xmlns="http://www.w3.org/2000/svg">
<path d="M7.70632 5.14293V8.65007C7.70632 8.7502 7.6866 8.84934 7.64828 8.94184C7.60997 9.03434 7.55381 9.11839 7.48301 9.18919C7.41221 9.25999 7.32817 9.31615 7.23566 9.35446C7.14316 9.39278 7.04402 9.4125 6.9439 9.4125H2.36936C2.16715 9.4125 1.97322 9.33217 1.83024 9.18919C1.68726 9.04621 1.60693 8.85228 1.60693 8.65007V4.07553C1.60693 3.87333 1.68726 3.6794 1.83024 3.53642C1.97322 3.39344 2.16715 3.31311 2.36936 3.31311H5.56162" stroke="black" stroke-width="0.609939" stroke-linecap="round" stroke-linejoin="round"/>
<path d="M9.15415 1.88828C9.12629 1.85768 9.09253 1.83304 9.05488 1.81585C9.01724 1.79867 8.9765 1.78929 8.93513 1.7883C8.89377 1.7873 8.85263 1.7947 8.8142 1.81005C8.77577 1.8254 8.74085 1.84838 8.71156 1.87761L8.47578 2.11224C8.4472 2.14084 8.43115 2.17961 8.43115 2.22003C8.43115 2.26046 8.4472 2.29923 8.47578 2.32782L8.69193 2.54358C8.70609 2.55782 8.72294 2.56911 8.74148 2.57682C8.76003 2.58453 8.77991 2.5885 8.8 2.5885C8.82008 2.5885 8.83997 2.58453 8.85852 2.57682C8.87706 2.56911 8.8939 2.55782 8.90807 2.54358L9.13794 2.31486C9.25421 2.19878 9.26508 2.0097 9.15415 1.88828Z" fill="black"/>
<path d="M7.99913 2.58877L4.55831 6.02349C4.53745 6.04427 4.52228 6.07006 4.51428 6.0984L4.35512 6.57243C4.35131 6.5853 4.35104 6.59895 4.35434 6.61195C4.35764 6.62496 4.36439 6.63683 4.37388 6.64631C4.38337 6.6558 4.39524 6.66255 4.40824 6.66585C4.42124 6.66915 4.4349 6.66888 4.44776 6.66507L4.92141 6.50591C4.94975 6.49791 4.97554 6.48274 4.99632 6.46188L8.43104 3.02068C8.46282 2.98857 8.48064 2.94521 8.48064 2.90003C8.48064 2.85485 8.46282 2.81149 8.43104 2.77938L8.24139 2.58877C8.20923 2.5567 8.16567 2.5387 8.12026 2.5387C8.07484 2.5387 8.03128 2.5567 7.99913 2.58877Z" fill="black"/>
</svg>
