<svg width="10" height="11" viewBox="0 0 10 11" fill="none" xmlns="http://www.w3.org/2000/svg">
<g clip-path="url(#clip0_201_10187)">
<path d="M8.59484 2.88068C8.60634 2.87397 8.61589 2.86435 8.62253 2.8528C8.62917 2.84125 8.63266 2.82815 8.63266 2.81483C8.63266 2.8015 8.62917 2.78841 8.62253 2.77686C8.61589 2.7653 8.60634 2.75569 8.59484 2.74897L5.68352 1.05754C5.49724 0.949563 5.28575 0.8927 5.07044 0.8927C4.85513 0.8927 4.64363 0.949563 4.45735 1.05754L1.54661 2.74897C1.5351 2.75569 1.52555 2.7653 1.51892 2.77686C1.51228 2.78841 1.50879 2.8015 1.50879 2.81483C1.50879 2.82815 1.51228 2.84125 1.51892 2.8528C1.52555 2.86435 1.5351 2.87397 1.54661 2.88068L5.03241 4.93122C5.04414 4.93813 5.0575 4.94177 5.0711 4.94177C5.08471 4.94177 5.09807 4.93813 5.1098 4.93122L8.59484 2.88068Z" fill="black"/>
<path d="M1.22032 3.39938C1.2087 3.39266 1.1955 3.38914 1.18208 3.38916C1.16865 3.38918 1.15547 3.39275 1.14387 3.3995C1.13226 3.40625 1.12264 3.41594 1.11599 3.4276C1.10933 3.43926 1.10587 3.45247 1.10596 3.4659V6.78034C1.10625 6.94007 1.14834 7.09693 1.22806 7.23534C1.30778 7.37374 1.42235 7.48887 1.56036 7.56926L4.65123 9.42252C4.66281 9.42921 4.67595 9.43273 4.68933 9.43274C4.70271 9.43274 4.71585 9.42922 4.72744 9.42254C4.73902 9.41586 4.74865 9.40624 4.75535 9.39467C4.76204 9.38309 4.76558 9.36995 4.76559 9.35657V5.5111C4.76558 5.49773 4.76205 5.4846 4.75536 5.47302C4.74867 5.46145 4.73905 5.45183 4.72747 5.44515L1.22032 3.39938Z" fill="black"/>
<path d="M5.37549 5.52441V9.35559C5.3755 9.36897 5.37904 9.3821 5.38573 9.39368C5.39243 9.40526 5.40206 9.41488 5.41364 9.42156C5.42523 9.42824 5.43837 9.43176 5.45175 9.43175C5.46513 9.43175 5.47827 9.42823 5.48985 9.42154L8.58053 7.56828C8.71844 7.48799 8.83295 7.37303 8.9127 7.2348C8.99244 7.09657 9.03465 6.93989 9.03512 6.78031V3.46587C9.03507 3.45251 9.03152 3.43939 9.02481 3.42784C9.0181 3.41629 9.00847 3.4067 8.99688 3.40004C8.9853 3.39338 8.97217 3.38988 8.95881 3.38989C8.94545 3.3899 8.93233 3.39343 8.92076 3.40011L5.41361 5.45865C5.40206 5.46532 5.39246 5.4749 5.38577 5.48644C5.37908 5.49798 5.37554 5.51107 5.37549 5.52441Z" fill="black"/>
</g>
<defs>
<clipPath id="clip0_201_10187">
<rect width="9.75902" height="9.75902" fill="white" transform="translate(0.190918 0.282715)"/>
</clipPath>
</defs>
</svg>
