<svg width="11" height="11" viewBox="0 0 11 11" fill="none" xmlns="http://www.w3.org/2000/svg">
<path d="M2.58253 4.24733C3.17203 4.24733 3.64992 3.76945 3.64992 3.17994C3.64992 2.59044 3.17203 2.11255 2.58253 2.11255C1.99302 2.11255 1.51514 2.59044 1.51514 3.17994C1.51514 3.76945 1.99302 4.24733 2.58253 4.24733Z" stroke="black" stroke-width="0.609939" stroke-linecap="round" stroke-linejoin="round"/>
<path d="M2.58253 8.21193C3.17203 8.21193 3.64992 7.73405 3.64992 7.14454C3.64992 6.55504 3.17203 6.07715 2.58253 6.07715C1.99302 6.07715 1.51514 6.55504 1.51514 7.14454C1.51514 7.73405 1.99302 8.21193 2.58253 8.21193Z" stroke="black" stroke-width="0.609939" stroke-linecap="round" stroke-linejoin="round"/>
<path d="M3.59248 3.61829L3.38281 3.90419L4.08805 4.1901C4.08805 4.1901 4.154 4.06773 4.22148 3.9995L3.59248 3.61829Z" stroke="black" stroke-width="0.609939" stroke-miterlimit="10" stroke-linecap="square"/>
<path d="M3.53889 6.65722L9.36819 3.3706C9.32053 3.24289 8.83449 3.14187 8.14831 3.29436C7.59326 3.41768 5.83893 3.84807 5.11462 4.3627C4.52394 4.78223 4.92707 5.46726 4.25995 5.96284C3.77181 6.32499 3.41309 6.3978 3.41309 6.3978L3.53889 6.65722Z" stroke="black" stroke-width="0.609939" stroke-miterlimit="10" stroke-linecap="round"/>
<path d="M7.16607 5.58618L6.22314 6.12807C6.49438 6.25654 7.47238 6.76222 8.45323 6.82055C8.73762 6.83751 9.02505 6.82798 9.1966 6.70618L7.16607 5.58618Z" stroke="black" stroke-width="0.609939" stroke-miterlimit="10" stroke-linecap="round"/>
<path d="M5.47957 5.46719C5.81643 5.46719 6.08951 5.19411 6.08951 4.85725C6.08951 4.52039 5.81643 4.24731 5.47957 4.24731C5.14271 4.24731 4.86963 4.52039 4.86963 4.85725C4.86963 5.19411 5.14271 5.46719 5.47957 5.46719Z" stroke="black" stroke-width="0.609939" stroke-miterlimit="10"/>
</svg>
