<svg width="10" height="11" viewBox="0 0 10 11" fill="none" xmlns="http://www.w3.org/2000/svg">
<g clip-path="url(#clip0_201_10198)">
<path d="M9.15903 2.72239H8.24412L4.45221 4.0654L3.32516 3.46327C3.39261 3.14651 3.34612 2.8161 3.19388 2.53025C3.04163 2.2444 2.7934 2.02144 2.49291 1.90064C2.19241 1.77985 1.85893 1.76896 1.5512 1.86991C1.24346 1.97086 0.981226 2.17716 0.810671 2.45248C0.640115 2.7278 0.572185 3.05447 0.618844 3.37496C0.665503 3.69545 0.82376 3.98919 1.06574 4.20445C1.30772 4.41971 1.61789 4.54267 1.94163 4.55168C2.26537 4.5607 2.58191 4.45518 2.83549 4.25371L3.83045 4.85832L3.66958 5.56241L2.83778 6.07248C2.58348 5.87059 2.26564 5.76578 1.94114 5.7768C1.61663 5.78782 1.30664 5.91395 1.06662 6.13262C0.82661 6.3513 0.672241 6.64824 0.631141 6.97032C0.59004 7.2924 0.664889 7.6186 0.842295 7.89054C1.0197 8.16248 1.28809 8.36242 1.59942 8.45458C1.91076 8.54674 2.24474 8.52511 2.54158 8.39355C2.83843 8.262 3.07878 8.0291 3.21962 7.73655C3.36046 7.44399 3.3926 7.11086 3.31029 6.79678L9.15903 3.33233V2.72239ZM1.98234 3.94226C1.83154 3.94226 1.68414 3.89755 1.55876 3.81377C1.43338 3.73 1.33566 3.61092 1.27795 3.47161C1.22024 3.33229 1.20515 3.179 1.23456 3.0311C1.26398 2.8832 1.3366 2.74735 1.44322 2.64073C1.54985 2.5341 1.6857 2.46149 1.8336 2.43207C1.98149 2.40265 2.13479 2.41775 2.2741 2.47545C2.41342 2.53316 2.53249 2.63088 2.61627 2.75626C2.70005 2.88164 2.74476 3.02905 2.74476 3.17984C2.74476 3.27996 2.72504 3.37911 2.68672 3.47161C2.64841 3.56411 2.59225 3.64816 2.52145 3.71896C2.45065 3.78975 2.36661 3.84591 2.2741 3.88423C2.1816 3.92254 2.08246 3.94226 1.98234 3.94226ZM1.98234 7.90687C1.83154 7.90687 1.68414 7.86215 1.55876 7.77838C1.43338 7.6946 1.33566 7.57552 1.27795 7.43621C1.22024 7.2969 1.20515 7.1436 1.23456 6.9957C1.26398 6.84781 1.3366 6.71196 1.44322 6.60533C1.54985 6.4987 1.6857 6.42609 1.8336 6.39667C1.98149 6.36725 2.13479 6.38235 2.2741 6.44006C2.41342 6.49776 2.53249 6.59548 2.61627 6.72086C2.70005 6.84624 2.74476 6.99365 2.74476 7.14444C2.74476 7.24457 2.72504 7.34371 2.68672 7.43621C2.64841 7.52871 2.59225 7.61276 2.52145 7.68356C2.45065 7.75436 2.36661 7.81052 2.2741 7.84883C2.1816 7.88715 2.08246 7.90687 1.98234 7.90687ZM4.87955 5.16214C4.81923 5.16214 4.76027 5.14426 4.71011 5.11075C4.65996 5.07724 4.62087 5.02961 4.59779 4.97388C4.57471 4.91815 4.56867 4.85683 4.58044 4.79768C4.5922 4.73852 4.62125 4.68418 4.6639 4.64153C4.70655 4.59888 4.76089 4.56983 4.82005 4.55806C4.87921 4.5463 4.94053 4.55234 4.99625 4.57542C5.05198 4.5985 5.09961 4.63759 5.13312 4.68774C5.16663 4.73789 5.18452 4.79686 5.18452 4.85717C5.18452 4.89722 5.17663 4.93688 5.1613 4.97388C5.14598 5.01088 5.12351 5.0445 5.09519 5.07282C5.06687 5.10114 5.03325 5.1236 4.99625 5.13893C4.95925 5.15425 4.9196 5.16214 4.87955 5.16214Z" fill="black"/>
<path d="M6.56244 5.23596L4.96631 6.1543L8.24378 7.29698H9.15849L9.15869 6.68704L6.56244 5.23596Z" fill="black"/>
</g>
<defs>
<clipPath id="clip0_201_10198">
<rect width="9.75902" height="9.75902" fill="white" transform="translate(0.00976562 0.282715)"/>
</clipPath>
</defs>
</svg>
