<svg width="11" height="11" viewBox="0 0 11 11" fill="none" xmlns="http://www.w3.org/2000/svg">
<path d="M2.39136 4.55234C2.70138 4.55258 3.00226 4.44731 3.24451 4.25385L4.03553 4.57579L4.16552 4.33505C4.18891 4.29197 4.2165 4.25131 4.24786 4.21364L4.51891 3.93878L3.73418 3.46341C3.79275 3.18593 3.76392 2.89712 3.65165 2.63669C3.53938 2.37627 3.34919 2.15702 3.10723 2.00909C2.86527 1.86117 2.58343 1.79184 2.30045 1.81064C2.01748 1.82943 1.74728 1.93543 1.52701 2.11405C1.30674 2.29268 1.14722 2.53515 1.07038 2.80814C0.993538 3.08113 1.00316 3.37121 1.09791 3.63851C1.19267 3.90581 1.3679 4.13719 1.59952 4.30083C1.83114 4.46447 2.10777 4.55233 2.39136 4.55234ZM2.39136 2.41756C2.54216 2.41756 2.68956 2.46227 2.81494 2.54605C2.94032 2.62982 3.03804 2.7489 3.09575 2.88821C3.15346 3.02753 3.16855 3.18083 3.13914 3.32872C3.10972 3.47662 3.0371 3.61247 2.93048 3.7191C2.82385 3.82572 2.688 3.89834 2.5401 3.92775C2.39221 3.95717 2.23891 3.94207 2.0996 3.88437C1.96028 3.82666 1.84121 3.72894 1.75743 3.60356C1.67365 3.47818 1.62894 3.33077 1.62894 3.17998C1.62894 2.97777 1.70927 2.78385 1.85225 2.64087C1.99523 2.49788 2.18915 2.41756 2.39136 2.41756Z" fill="black"/>
<path d="M9.56802 3.50389L9.46281 3.26411C9.37741 3.0655 9.18185 2.95914 8.838 2.92388C8.64511 2.90482 8.32432 2.90024 7.89088 2.9965C7.50967 3.08132 5.56282 3.53401 4.74684 4.11383C4.36086 4.38811 4.28824 4.7556 4.23106 5.05085C4.17807 5.32036 4.13575 5.53327 3.88797 5.71797C3.60206 5.9303 3.36818 6.03018 3.24791 6.07249C2.99362 5.87061 2.67578 5.76579 2.35127 5.77682C2.02677 5.78784 1.71677 5.91397 1.47676 6.13264C1.23675 6.35132 1.08238 6.64826 1.04128 6.97034C1.00018 7.29242 1.07502 7.61862 1.25243 7.89056C1.42984 8.1625 1.69822 8.36244 2.00956 8.4546C2.3209 8.54676 2.65487 8.52513 2.95172 8.39357C3.24856 8.26202 3.48891 8.02912 3.62975 7.73657C3.77059 7.44401 3.80273 7.11088 3.72042 6.7968L9.56802 3.50389ZM5.28854 5.16216C5.22822 5.16216 5.16926 5.14427 5.11911 5.11076C5.06895 5.07725 5.02986 5.02962 5.00678 4.9739C4.9837 4.91817 4.97766 4.85685 4.98943 4.79769C5.0012 4.73854 5.03024 4.6842 5.07289 4.64155C5.11554 4.59889 5.16988 4.56985 5.22904 4.55808C5.2882 4.54631 5.34952 4.55235 5.40524 4.57544C5.46097 4.59852 5.5086 4.63761 5.54211 4.68776C5.57562 4.73791 5.59351 4.79687 5.59351 4.85719C5.59351 4.89724 5.58562 4.9369 5.57029 4.9739C5.55497 5.0109 5.5325 5.04452 5.50418 5.07284C5.47586 5.10116 5.44225 5.12362 5.40524 5.13895C5.36824 5.15427 5.32859 5.16216 5.28854 5.16216ZM2.39133 7.90689C2.24054 7.90689 2.09313 7.86217 1.96775 7.77839C1.84237 7.69462 1.74465 7.57554 1.68694 7.43623C1.62924 7.29691 1.61414 7.14362 1.64356 6.99572C1.67297 6.84782 1.74559 6.71197 1.85221 6.60535C1.95884 6.49872 2.09469 6.42611 2.24259 6.39669C2.39048 6.36727 2.54378 6.38237 2.6831 6.44007C2.82241 6.49778 2.94148 6.5955 3.02526 6.72088C3.10904 6.84626 3.15375 6.99367 3.15375 7.14446C3.15375 7.34667 3.07343 7.54059 2.93044 7.68358C2.78746 7.82656 2.59354 7.90689 2.39133 7.90689Z" fill="black"/>
<path d="M6.97162 5.23596L5.37549 6.1543L5.90213 6.40361L5.97113 6.43678C6.32756 6.60928 7.27564 7.06826 8.24373 7.12544C8.31787 7.12982 8.38611 7.13192 8.4492 7.13192C8.84356 7.13135 9.05323 7.03014 9.18189 6.95389L9.56786 6.68704L6.97162 5.23596Z" fill="black"/>
</svg>
