<svg width="11" height="11" viewBox="0 0 11 11" fill="none" xmlns="http://www.w3.org/2000/svg">
<g clip-path="url(#clip0_201_10212)">
<path d="M0.952637 6.99206C0.952889 7.23463 1.04936 7.46719 1.22089 7.63872C1.39241 7.81024 1.62497 7.90671 1.86754 7.90696H4.41938L4.34313 8.5169H3.39239C3.31151 8.5169 3.23394 8.54903 3.17675 8.60623C3.11955 8.66342 3.08742 8.74099 3.08742 8.82187C3.08742 8.90276 3.11955 8.98033 3.17675 9.03752C3.23394 9.09471 3.31151 9.12684 3.39239 9.12684H7.66196C7.74285 9.12684 7.82042 9.09471 7.87761 9.03752C7.9348 8.98033 7.96693 8.90276 7.96693 8.82187C7.96693 8.74099 7.9348 8.66342 7.87761 8.60623C7.82042 8.54903 7.74285 8.5169 7.66196 8.5169H6.71122L6.63498 7.90696H9.18681C9.42938 7.90671 9.66195 7.81024 9.83347 7.63872C10.005 7.46719 10.1015 7.23463 10.1017 6.99206V6.07715H0.952637V6.99206ZM5.52718 6.68709C5.58749 6.68709 5.64646 6.70497 5.69661 6.73848C5.74676 6.77199 5.78585 6.81962 5.80893 6.87535C5.83201 6.93108 5.83805 6.9924 5.82629 7.05155C5.81452 7.11071 5.78547 7.16505 5.74282 7.2077C5.70017 7.25035 5.64583 7.2794 5.58667 7.29117C5.52752 7.30293 5.4662 7.29689 5.41047 7.27381C5.35474 7.25073 5.30712 7.21164 5.2736 7.16149C5.24009 7.11134 5.22221 7.05237 5.22221 6.99206C5.22221 6.91117 5.25434 6.8336 5.31153 6.77641C5.36872 6.71922 5.44629 6.68709 5.52718 6.68709Z" fill="black"/>
<path d="M10.1017 2.11254C10.1015 1.86997 10.005 1.6374 9.83347 1.46588C9.66195 1.29436 9.42938 1.19788 9.18681 1.19763H1.86754C1.62497 1.19788 1.39241 1.29436 1.22089 1.46588C1.04936 1.6374 0.952889 1.86997 0.952637 2.11254V5.77217H10.1017V2.11254Z" fill="black"/>
</g>
<defs>
<clipPath id="clip0_201_10212">
<rect width="9.75902" height="9.75902" fill="white" transform="translate(0.647461 0.282715)"/>
</clipPath>
</defs>
</svg>
