<svg width="11" height="11" viewBox="0 0 11 11" fill="none" xmlns="http://www.w3.org/2000/svg">
<g clip-path="url(#clip0_201_10231)">
<path d="M3.19608 0.892703C3.18344 0.892587 3.17096 0.895619 3.15977 0.901527C3.14859 0.907435 3.13905 0.916033 3.13202 0.926546C3.12498 0.937059 3.12067 0.949156 3.11948 0.961749C3.11829 0.974342 3.12025 0.987033 3.12518 0.99868L3.16902 1.10218L3.94478 2.91103C3.95006 2.92333 3.95847 2.93403 3.96919 2.94205C3.97991 2.95007 3.99255 2.95512 4.00584 2.95671C4.01913 2.95829 4.0326 2.95635 4.04491 2.95107C4.05721 2.9458 4.06791 2.93738 4.07592 2.92666L5.50775 1.01469C5.51625 1.00336 5.52142 0.989895 5.52269 0.975793C5.52396 0.961691 5.52128 0.947514 5.51495 0.934849C5.50862 0.922185 5.49889 0.911534 5.48684 0.90409C5.4748 0.896646 5.46092 0.892703 5.44676 0.892703H3.19608Z" fill="black"/>
<path d="M8.87985 1.38934L8.09303 3.2262C8.08808 3.2378 8.08609 3.25044 8.08722 3.263C8.08836 3.27556 8.09259 3.28764 8.09954 3.29816C8.10649 3.30868 8.11594 3.31731 8.12705 3.32328C8.13815 3.32925 8.15057 3.33237 8.16318 3.33237H10.0883C10.1019 3.33238 10.1152 3.32875 10.127 3.32186C10.1387 3.31498 10.1483 3.30508 10.155 3.2932C10.1616 3.28132 10.1649 3.26789 10.1645 3.2543C10.1642 3.24071 10.1603 3.22746 10.1531 3.21591L9.01461 1.37923C9.00726 1.36741 8.9968 1.35782 8.98438 1.35152C8.97197 1.34522 8.95806 1.34243 8.94417 1.34348C8.93029 1.34452 8.91695 1.34934 8.90561 1.35743C8.89427 1.36551 8.88536 1.37655 8.87985 1.38934Z" fill="black"/>
<path d="M2.49626 1.38007L1.35815 3.21598C1.35098 3.22753 1.34703 3.24079 1.3467 3.25438C1.34638 3.26797 1.34969 3.2814 1.3563 3.29328C1.36291 3.30515 1.37258 3.31505 1.38429 3.32194C1.39601 3.32882 1.40936 3.33245 1.42296 3.33245H3.34808C3.36069 3.33243 3.37311 3.32928 3.38421 3.32329C3.39531 3.3173 3.40475 3.30864 3.41168 3.2981C3.41862 3.28756 3.42283 3.27546 3.42393 3.26289C3.42504 3.25032 3.42301 3.23768 3.41803 3.22609L2.62968 1.39017C2.62404 1.3777 2.61515 1.36698 2.60394 1.35913C2.59273 1.35128 2.57961 1.34659 2.56597 1.34555C2.55232 1.34452 2.53864 1.34718 2.52638 1.35325C2.51411 1.35933 2.50371 1.36859 2.49626 1.38007Z" fill="black"/>
<path d="M8.37173 0.892701H5.98058C5.97368 0.892656 5.9669 0.894543 5.96102 0.898148C5.95514 0.901752 5.95038 0.906931 5.94728 0.913098C5.94419 0.919266 5.94288 0.926176 5.94351 0.933047C5.94414 0.939918 5.94668 0.946476 5.95084 0.951979L7.47416 2.98117C7.47805 2.98638 7.48325 2.99048 7.48922 2.99304C7.4952 2.99561 7.50174 2.99655 7.5082 2.99578C7.51466 2.995 7.5208 2.99254 7.526 2.98864C7.5312 2.98473 7.53528 2.97953 7.53783 2.97355L8.3399 1.10237L8.4047 0.943402C8.40699 0.937946 8.40791 0.932017 8.4074 0.926124C8.40689 0.920231 8.40497 0.914549 8.40178 0.909565C8.39859 0.90458 8.39425 0.900443 8.38911 0.897506C8.38398 0.894569 8.37821 0.89292 8.3723 0.892701H8.37173Z" fill="black"/>
<path d="M5.43165 8.82189L3.72706 3.99023C3.72206 3.97619 3.71283 3.96406 3.70064 3.95549C3.68846 3.94692 3.67391 3.94234 3.65902 3.94238H1.36603C1.35275 3.94235 1.33972 3.94604 1.32843 3.95304C1.31715 3.96005 1.30806 3.97008 1.3022 3.982C1.29634 3.99392 1.29394 4.00725 1.29529 4.02046C1.29663 4.03368 1.30166 4.04625 1.3098 4.05675L5.42689 9.39009C5.44083 9.40814 5.46071 9.42066 5.48301 9.42545C5.5053 9.43023 5.52857 9.42695 5.54869 9.4162C5.56891 9.40556 5.58464 9.388 5.59301 9.36673C5.60137 9.34545 5.60181 9.32188 5.59424 9.30031L5.43165 8.82189Z" fill="black"/>
<path d="M10.1451 3.94238H7.85212C7.8373 3.94238 7.82285 3.94698 7.81076 3.95555C7.79867 3.96412 7.78954 3.97624 7.78464 3.99023L5.91289 9.29212C5.90503 9.31438 5.90536 9.33871 5.91381 9.36075C5.92226 9.38279 5.93829 9.4011 5.95902 9.41239C5.97976 9.42362 6.0038 9.42712 6.02688 9.42227C6.04995 9.41742 6.07056 9.40453 6.08501 9.3859L10.2013 4.05675C10.2095 4.04625 10.2145 4.03368 10.2159 4.02046C10.2172 4.00725 10.2148 3.99392 10.2089 3.982C10.2031 3.97008 10.194 3.96005 10.1827 3.95304C10.1714 3.94604 10.1584 3.94235 10.1451 3.94238Z" fill="black"/>
<path d="M5.81635 1.78709L6.88374 3.21034C6.89224 3.22167 6.89741 3.23514 6.89868 3.24924C6.89995 3.26334 6.89727 3.27752 6.89094 3.29018C6.88461 3.30285 6.87487 3.3135 6.86283 3.32094C6.85078 3.32839 6.83691 3.33233 6.82275 3.33233H4.68796C4.6738 3.33233 4.65992 3.32839 4.64788 3.32094C4.63583 3.3135 4.6261 3.30285 4.61977 3.29018C4.61344 3.27752 4.61075 3.26334 4.61203 3.24924C4.6133 3.23514 4.61847 3.22167 4.62697 3.21034L5.69436 1.78709C5.70146 1.77762 5.71067 1.76993 5.72126 1.76464C5.73184 1.75935 5.74352 1.75659 5.75535 1.75659C5.76719 1.75659 5.77886 1.75935 5.78945 1.76464C5.80004 1.76993 5.80925 1.77762 5.81635 1.78709ZM5.68292 7.70178L4.39252 4.04386C4.38847 4.03237 4.38723 4.02007 4.38891 4.008C4.39059 3.99593 4.39514 3.98443 4.40218 3.97448C4.40922 3.96453 4.41854 3.95642 4.42936 3.95081C4.44018 3.94521 4.45219 3.94228 4.46438 3.94227H7.04633C7.05851 3.94228 7.07052 3.94521 7.08134 3.95081C7.09217 3.95642 7.10149 3.96453 7.10853 3.97448C7.11556 3.98443 7.12011 3.99593 7.12179 4.008C7.12348 4.02007 7.12224 4.03237 7.11819 4.04386L5.82721 7.70178C5.82195 7.71663 5.81221 7.72948 5.79934 7.73857C5.78648 7.74766 5.77111 7.75254 5.75535 7.75254C5.7396 7.75254 5.72423 7.74766 5.71136 7.73857C5.6985 7.72948 5.68876 7.71663 5.68349 7.70178H5.68292Z" fill="black"/>
</g>
<defs>
<clipPath id="clip0_201_10231">
<rect width="9.75902" height="9.75902" fill="white" transform="translate(0.875977 0.282715)"/>
</clipPath>
</defs>
</svg>
