<svg width="11" height="11" viewBox="0 0 11 11" fill="none" xmlns="http://www.w3.org/2000/svg">
<g clip-path="url(#clip0_201_10222)">
<path d="M8.02044 0.8927H5.49854L7.10325 3.03244L8.02044 0.8927Z" fill="black"/>
<path d="M2.67139 0.8927L3.58858 3.03244L5.19329 0.8927H2.67139Z" fill="black"/>
<path d="M5.34585 1.70593L4.12598 3.33237H6.56573L5.34585 1.70593Z" fill="black"/>
<path d="M8.52812 1.25598L7.63818 3.33244H9.76801L8.52812 1.25598Z" fill="black"/>
<path d="M2.16374 1.25598L0.904785 3.33244H3.05368L2.16374 1.25598Z" fill="black"/>
<path d="M3.26218 3.94238H0.923828L5.17053 9.43183H5.18063L3.26218 3.94238Z" fill="black"/>
<path d="M7.42968 3.94238L5.51123 9.43183H5.52133L9.76803 3.94238H7.42968Z" fill="black"/>
<path d="M6.74449 3.94238H3.94678L5.34563 7.90699L6.74449 3.94238Z" fill="black"/>
</g>
<defs>
<clipPath id="clip0_201_10222">
<rect width="9.75902" height="9.75902" fill="white" transform="translate(0.466309 0.282715)"/>
</clipPath>
</defs>
</svg>
