<svg width="10" height="11" viewBox="0 0 10 11" fill="none" xmlns="http://www.w3.org/2000/svg">
<g clip-path="url(#clip0_201_10254)">
<path d="M8.50787 2.74855L5.59693 1.05693C5.41065 0.948953 5.19916 0.89209 4.98385 0.89209C4.76854 0.89209 4.55705 0.948953 4.37076 1.05693L1.46002 2.74855C1.44856 2.75528 1.43905 2.76489 1.43244 2.77642C1.42584 2.78796 1.42236 2.80102 1.42236 2.81431C1.42236 2.82761 1.42584 2.84067 1.43244 2.8522C1.43905 2.86374 1.44856 2.87335 1.46002 2.88007L4.94582 4.93061C4.95755 4.93752 4.97091 4.94116 4.98452 4.94116C4.99812 4.94116 5.01148 4.93752 5.02321 4.93061L8.50825 2.88007C8.51969 2.87331 8.52917 2.86368 8.53574 2.85212C8.54232 2.84057 8.54575 2.8275 8.54572 2.8142C8.54568 2.80091 8.54216 2.78786 8.53552 2.77634C8.52889 2.76483 8.51935 2.75525 8.50787 2.74855ZM4.98394 3.1799C4.73139 3.1799 4.52649 3.04342 4.52649 2.87493C4.52649 2.70643 4.73139 2.56996 4.98394 2.56996C5.2365 2.56996 5.4414 2.70643 5.4414 2.87493C5.4414 3.04342 5.2365 3.1799 4.98394 3.1799Z" fill="black"/>
<path d="M4.64055 5.44454L1.13341 3.39876C1.12182 3.39208 1.10868 3.38855 1.0953 3.38855C1.08193 3.38855 1.06879 3.39206 1.0572 3.39874C1.04561 3.40543 1.03598 3.41504 1.02929 3.42662C1.02259 3.4382 1.01906 3.45134 1.01904 3.46471V6.77973C1.01933 6.93945 1.06143 7.09632 1.14115 7.23472C1.22087 7.37313 1.33543 7.48826 1.47345 7.56865L4.56431 9.42191C4.5759 9.4286 4.58904 9.43212 4.60241 9.43212C4.61579 9.43213 4.62893 9.42861 4.64052 9.42193C4.65211 9.41525 4.66173 9.40563 4.66843 9.39405C4.67513 9.38247 4.67866 9.36934 4.67868 9.35596V5.51049C4.67866 5.49712 4.67513 5.48399 4.66844 5.47241C4.66175 5.46083 4.65213 5.45122 4.64055 5.44454ZM1.93395 7.29704C1.76546 7.29704 1.62898 7.09213 1.62898 6.83958C1.62898 6.58703 1.76546 6.38213 1.93395 6.38213C2.10245 6.38213 2.23892 6.58703 2.23892 6.83958C2.23892 7.09213 2.10245 7.29704 1.93395 7.29704ZM3.76377 6.6871C3.59527 6.6871 3.4588 6.4822 3.4588 6.22964C3.4588 5.97709 3.59527 5.77219 3.76377 5.77219C3.93226 5.77219 4.06874 5.97709 4.06874 6.22964C4.06874 6.4822 3.93226 6.6871 3.76377 6.6871Z" fill="black"/>
<path d="M8.83384 3.39938L5.3267 5.45887C5.31514 5.46554 5.30555 5.47512 5.29886 5.48666C5.29217 5.4982 5.28862 5.51129 5.28857 5.52463V9.35562C5.28859 9.369 5.29212 9.38213 5.29882 9.39371C5.30552 9.40529 5.31514 9.41491 5.32673 9.42159C5.33832 9.42827 5.35146 9.43179 5.36484 9.43178C5.37821 9.43178 5.39135 9.42826 5.40294 9.42157L8.49361 7.56831C8.63161 7.48797 8.74617 7.37292 8.82592 7.23458C8.90568 7.09625 8.94783 6.93945 8.94821 6.77977V3.4659C8.94829 3.45247 8.94483 3.43926 8.93818 3.4276C8.93152 3.41594 8.92191 3.40625 8.9103 3.3995C8.8987 3.39275 8.88551 3.38918 8.87209 3.38916C8.85866 3.38914 8.84547 3.39266 8.83384 3.39938ZM6.20348 8.36447C6.03499 8.36447 5.89851 8.15957 5.89851 7.90701C5.89851 7.65446 6.03499 7.44956 6.20348 7.44956C6.37198 7.44956 6.50845 7.65446 6.50845 7.90701C6.50845 8.15957 6.37198 8.36447 6.20348 8.36447ZM6.20348 6.68714C6.03499 6.68714 5.89851 6.48224 5.89851 6.22968C5.89851 5.97713 6.03499 5.77223 6.20348 5.77223C6.37198 5.77223 6.50845 5.97713 6.50845 6.22968C6.50845 6.48224 6.37198 6.68714 6.20348 6.68714ZM8.0333 7.29708C7.8648 7.29708 7.72833 7.09217 7.72833 6.83962C7.72833 6.58707 7.8648 6.38217 8.0333 6.38217C8.20179 6.38217 8.33827 6.58707 8.33827 6.83962C8.33827 7.09217 8.20179 7.29708 8.0333 7.29708ZM8.0333 5.61974C7.8648 5.61974 7.72833 5.41484 7.72833 5.16229C7.72833 4.90974 7.8648 4.70484 8.0333 4.70484C8.20179 4.70484 8.33827 4.90974 8.33827 5.16229C8.33827 5.41484 8.20179 5.61974 8.0333 5.61974Z" fill="black"/>
</g>
<defs>
<clipPath id="clip0_201_10254">
<rect width="9.75902" height="9.75902" fill="white" transform="translate(0.104492 0.282715)"/>
</clipPath>
</defs>
</svg>
