<svg width="11" height="11" viewBox="0 0 11 11" fill="none" xmlns="http://www.w3.org/2000/svg">
<g clip-path="url(#clip0_201_10239)">
<path d="M8.82415 6.78947V3.53468C8.82402 3.42815 8.79599 3.32352 8.74285 3.23119C8.68971 3.13885 8.61332 3.06205 8.52128 3.00842L5.62407 1.32232C5.48448 1.24106 5.32585 1.19824 5.16433 1.19824C5.00281 1.19824 4.84417 1.24106 4.70458 1.32232L1.80776 3.00842C1.71571 3.06205 1.63932 3.13885 1.58618 3.23119C1.53304 3.32352 1.50501 3.42815 1.50488 3.53468V6.78947C1.50495 6.89606 1.53294 7.00078 1.58608 7.09318C1.63923 7.18559 1.71565 7.26245 1.80776 7.31611L4.70496 9.00221C4.84459 9.08336 5.00321 9.12611 5.16471 9.12611C5.3262 9.12611 5.48482 9.08336 5.62445 9.00221L8.52166 7.31611C8.61369 7.2624 8.69004 7.18552 8.74311 7.09312C8.79618 7.00072 8.82412 6.89603 8.82415 6.78947Z" stroke="black" stroke-width="0.609939" stroke-linecap="round" stroke-linejoin="round"/>
<path d="M1.60059 3.21777L5.16492 5.31444L8.72925 3.21777" stroke="black" stroke-width="0.609939" stroke-linecap="round" stroke-linejoin="round"/>
<path d="M5.16455 9.12669V5.31458" stroke="black" stroke-width="0.609939" stroke-linecap="round" stroke-linejoin="round"/>
<path d="M5.16449 3.48494C5.41713 3.48494 5.62194 3.3484 5.62194 3.17997C5.62194 3.01154 5.41713 2.875 5.16449 2.875C4.91184 2.875 4.70703 3.01154 4.70703 3.17997C4.70703 3.3484 4.91184 3.48494 5.16449 3.48494Z" fill="black"/>
<path d="M4.24979 6.38207C4.41822 6.38207 4.55476 6.17726 4.55476 5.92462C4.55476 5.67197 4.41822 5.46716 4.24979 5.46716C4.08136 5.46716 3.94482 5.67197 3.94482 5.92462C3.94482 6.17726 4.08136 6.38207 4.24979 6.38207Z" fill="black"/>
<path d="M2.4202 6.99206C2.58863 6.99206 2.72517 6.78725 2.72517 6.5346C2.72517 6.28196 2.58863 6.07715 2.4202 6.07715C2.25177 6.07715 2.11523 6.28196 2.11523 6.5346C2.11523 6.78725 2.25177 6.99206 2.4202 6.99206Z" fill="black"/>
<path d="M6.07938 6.38207C6.24781 6.38207 6.38435 6.17726 6.38435 5.92462C6.38435 5.67197 6.24781 5.46716 6.07938 5.46716C5.91095 5.46716 5.77441 5.67197 5.77441 5.92462C5.77441 6.17726 5.91095 6.38207 6.07938 6.38207Z" fill="black"/>
<path d="M7.90946 5.31481C8.07789 5.31481 8.21443 5.11 8.21443 4.85736C8.21443 4.60471 8.07789 4.3999 7.90946 4.3999C7.74103 4.3999 7.60449 4.60471 7.60449 4.85736C7.60449 5.11 7.74103 5.31481 7.90946 5.31481Z" fill="black"/>
<path d="M6.07938 8.05944C6.24781 8.05944 6.38435 7.85463 6.38435 7.60199C6.38435 7.34934 6.24781 7.14453 6.07938 7.14453C5.91095 7.14453 5.77441 7.34934 5.77441 7.60199C5.77441 7.85463 5.91095 8.05944 6.07938 8.05944Z" fill="black"/>
<path d="M7.90946 6.99206C8.07789 6.99206 8.21443 6.78725 8.21443 6.5346C8.21443 6.28196 8.07789 6.07715 7.90946 6.07715C7.74103 6.07715 7.60449 6.28196 7.60449 6.5346C7.60449 6.78725 7.74103 6.99206 7.90946 6.99206Z" fill="black"/>
</g>
<defs>
<clipPath id="clip0_201_10239">
<rect width="9.75902" height="9.75902" fill="white" transform="translate(0.285156 0.282715)"/>
</clipPath>
</defs>
</svg>
