<svg width="11" height="11" viewBox="0 0 11 11" fill="none" xmlns="http://www.w3.org/2000/svg">
<g clip-path="url(#clip0_201_10262)">
<path d="M5.80281 5.77212C6.13967 5.77212 6.41275 5.49904 6.41275 5.16218C6.41275 4.82533 6.13967 4.55225 5.80281 4.55225C5.46595 4.55225 5.19287 4.82533 5.19287 5.16218C5.19287 5.49904 5.46595 5.77212 5.80281 5.77212Z" fill="black"/>
<path d="M8.82199 2.14323C8.42624 1.74356 7.95542 1.42603 7.43657 1.20887C6.91773 0.991709 6.36109 0.879205 5.79863 0.877821C5.23618 0.876436 4.67899 0.986198 4.15909 1.2008C3.63918 1.4154 3.1668 1.73062 2.76908 2.12834C2.37137 2.52605 2.05615 2.99843 1.84155 3.51834C1.62695 4.03825 1.51718 4.59543 1.51857 5.15789C1.51995 5.72034 1.63246 6.27698 1.84962 6.79583C2.06678 7.31467 2.38431 7.78549 2.78398 8.18125C3.17974 8.58092 3.65056 8.89845 4.1694 9.11561C4.68825 9.33277 5.24488 9.44528 5.80734 9.44666C6.36979 9.44804 6.92698 9.33828 7.44689 9.12368C7.96679 8.90907 8.43917 8.59386 8.83689 8.19614C9.23461 7.79843 9.54982 7.32605 9.76443 6.80614C9.97903 6.28623 10.0888 5.72905 10.0874 5.16659C10.086 4.60414 9.97352 4.0475 9.75636 3.52866C9.5392 3.00981 9.22166 2.53899 8.82199 2.14323ZM5.80299 6.68709C5.5014 6.68709 5.20659 6.59766 4.95583 6.4301C4.70507 6.26255 4.50962 6.0244 4.39421 5.74577C4.2788 5.46714 4.2486 5.16055 4.30744 4.86476C4.36628 4.56897 4.5115 4.29726 4.72476 4.08401C4.93801 3.87076 5.20971 3.72553 5.5055 3.66669C5.8013 3.60786 6.10789 3.63805 6.38652 3.75346C6.66515 3.86888 6.9033 4.06432 7.07085 4.31508C7.2384 4.56584 7.32783 4.86065 7.32783 5.16224C7.32738 5.56651 7.16658 5.9541 6.88072 6.23997C6.59485 6.52583 6.20726 6.68663 5.80299 6.68709Z" fill="black"/>
</g>
<defs>
<clipPath id="clip0_201_10262">
<rect width="9.75902" height="9.75902" fill="white" transform="translate(0.92334 0.282715)"/>
</clipPath>
</defs>
</svg>
