<svg width="11" height="11" viewBox="0 0 11 11" fill="none" xmlns="http://www.w3.org/2000/svg">
<g clip-path="url(#clip0_201_10258)">
<path d="M5.39331 9.12684C7.5829 9.12684 9.35791 7.35182 9.35791 5.16223C9.35791 2.97264 7.5829 1.19763 5.39331 1.19763C3.20372 1.19763 1.42871 2.97264 1.42871 5.16223C1.42871 7.35182 3.20372 9.12684 5.39331 9.12684Z" stroke="black" stroke-width="0.609939" stroke-miterlimit="10"/>
<path d="M5.39329 6.99203C6.40387 6.99203 7.22311 6.17279 7.22311 5.16221C7.22311 4.15163 6.40387 3.3324 5.39329 3.3324C4.38271 3.3324 3.56348 4.15163 3.56348 5.16221C3.56348 6.17279 4.38271 6.99203 5.39329 6.99203Z" stroke="black" stroke-width="0.609939" stroke-miterlimit="10"/>
<path d="M5.39314 5.77212C5.73 5.77212 6.00308 5.49904 6.00308 5.16218C6.00308 4.82533 5.73 4.55225 5.39314 4.55225C5.05628 4.55225 4.7832 4.82533 4.7832 5.16218C4.7832 5.49904 5.05628 5.77212 5.39314 5.77212Z" fill="black"/>
</g>
<defs>
<clipPath id="clip0_201_10258">
<rect width="9.75902" height="9.75902" fill="white" transform="translate(0.513672 0.282715)"/>
</clipPath>
</defs>
</svg>
