<svg width="10" height="11" viewBox="0 0 10 11" fill="none" xmlns="http://www.w3.org/2000/svg">
<g clip-path="url(#clip0_201_10291)">
<path d="M8.1282 4.49988V8.21193C8.1282 8.45458 8.0318 8.68729 7.86023 8.85887C7.68865 9.03044 7.45594 9.12684 7.21329 9.12684H2.94372C2.70107 9.12684 2.46836 9.03044 2.29678 8.85887C2.1252 8.68729 2.02881 8.45458 2.02881 8.21193V2.11254C2.02881 1.86989 2.1252 1.63718 2.29678 1.4656C2.46836 1.29402 2.70107 1.19763 2.94372 1.19763H4.82595C4.98766 1.19766 5.14274 1.2619 5.2571 1.37623L7.9496 4.06873C8.06393 4.18309 8.12817 4.33817 8.1282 4.49988Z" stroke="black" stroke-width="0.609939" stroke-linejoin="round"/>
<path d="M5.07812 1.3501V3.63737C5.07812 3.79913 5.14239 3.95427 5.25677 4.06866C5.37116 4.18305 5.5263 4.24731 5.68806 4.24731H7.97533" stroke="black" stroke-width="0.609939" stroke-linecap="round" stroke-linejoin="round"/>
</g>
<defs>
<clipPath id="clip0_201_10291">
<rect width="9.75902" height="9.75902" fill="white" transform="translate(0.19873 0.282715)"/>
</clipPath>
</defs>
</svg>
