<svg width="11" height="11" viewBox="0 0 11 11" fill="none" xmlns="http://www.w3.org/2000/svg">
<g clip-path="url(#clip0_201_10311)">
<path d="M7.05948 5.31713V8.59307C7.05948 9.05625 6.69638 9.43174 6.24083 9.43174H2.69461C2.2381 9.43174 1.875 9.05625 1.875 8.59307V3.56108C1.8763 3.33905 1.96508 3.12649 2.12208 2.96949C2.27908 2.81249 2.49164 2.72371 2.71367 2.72241H4.50765C4.56974 2.72251 4.6312 2.73496 4.68844 2.75904C4.74567 2.78313 4.79754 2.81837 4.84102 2.8627L6.92148 4.97842C7.01 5.06894 7.05954 5.19053 7.05948 5.31713V5.31713Z" stroke="black" stroke-width="0.609939" stroke-linejoin="round"/>
<path d="M4.46729 2.72241V4.78096C4.46897 4.92198 4.52574 5.05675 4.62546 5.15648C4.72519 5.2562 4.85996 5.31297 5.00098 5.31465H7.05953" stroke="black" stroke-width="0.609939" stroke-linecap="round" stroke-linejoin="round"/>
<path d="M4.00977 2.72252V1.73137C4.01107 1.50934 4.09984 1.29678 4.25684 1.13978C4.41384 0.982777 4.6264 0.894001 4.84843 0.8927H6.64013C6.70256 0.892787 6.76437 0.905227 6.82197 0.929304C6.87958 0.953381 6.93185 0.988618 6.97578 1.03299L9.05625 3.14871C9.1447 3.23826 9.19429 3.35907 9.19425 3.48494V6.76336C9.19425 7.22653 8.83114 7.60203 8.37559 7.60203H7.21194" stroke="black" stroke-width="0.609939" stroke-linejoin="round"/>
<path d="M6.60205 0.8927V2.95124C6.60373 3.09227 6.6605 3.22704 6.76023 3.32676C6.85995 3.42649 6.99472 3.48326 7.13575 3.48494H9.19429" stroke="black" stroke-width="0.609939" stroke-linecap="round" stroke-linejoin="round"/>
</g>
<defs>
<clipPath id="clip0_201_10311">
<rect width="9.75902" height="9.75902" fill="white" transform="translate(0.655273 0.282715)"/>
</clipPath>
</defs>
</svg>
