<svg width="11" height="11" viewBox="0 0 11 11" fill="none" xmlns="http://www.w3.org/2000/svg">
<g clip-path="url(#clip0_201_10305)">
<path d="M8.99441 4.55233H6.32593C6.08328 4.55233 5.85057 4.45594 5.67899 4.28436C5.50741 4.11278 5.41102 3.88007 5.41102 3.63742V0.968943C5.41102 0.948722 5.40299 0.929329 5.38869 0.915031C5.37439 0.900733 5.355 0.8927 5.33478 0.8927H3.58121C3.25767 0.8927 2.94739 1.02122 2.71862 1.24999C2.48985 1.47877 2.36133 1.78905 2.36133 2.11258V8.21197C2.36133 8.5355 2.48985 8.84578 2.71862 9.07455C2.94739 9.30332 3.25767 9.43184 3.58121 9.43184H7.85078C8.17431 9.43184 8.48459 9.30332 8.71336 9.07455C8.94213 8.84578 9.07065 8.5355 9.07065 8.21197V4.62858C9.07065 4.60835 9.06262 4.58896 9.04832 4.57466C9.03403 4.56037 9.01463 4.55233 8.99441 4.55233ZM7.24084 7.60203H4.19114C4.11026 7.60203 4.03269 7.5699 3.9755 7.5127C3.91831 7.45551 3.88617 7.37794 3.88617 7.29706C3.88617 7.21617 3.91831 7.1386 3.9755 7.08141C4.03269 7.02422 4.11026 6.99209 4.19114 6.99209H7.24084C7.32172 6.99209 7.39929 7.02422 7.45648 7.08141C7.51368 7.1386 7.54581 7.21617 7.54581 7.29706C7.54581 7.37794 7.51368 7.45551 7.45648 7.5127C7.39929 7.5699 7.32172 7.60203 7.24084 7.60203ZM7.24084 6.07718H4.19114C4.11026 6.07718 4.03269 6.04505 3.9755 5.98786C3.91831 5.93066 3.88617 5.85309 3.88617 5.77221C3.88617 5.69133 3.91831 5.61376 3.9755 5.55656C4.03269 5.49937 4.11026 5.46724 4.19114 5.46724H7.24084C7.32172 5.46724 7.39929 5.49937 7.45648 5.55656C7.51368 5.61376 7.54581 5.69133 7.54581 5.77221C7.54581 5.85309 7.51368 5.93066 7.45648 5.98786C7.39929 6.04505 7.32172 6.07718 7.24084 6.07718Z" fill="black"/>
<path d="M8.8271 3.87731L6.08599 1.13621C6.08066 1.13091 6.07388 1.1273 6.06651 1.12585C6.05914 1.12439 6.0515 1.12514 6.04455 1.12801C6.0376 1.13089 6.03166 1.13575 6.02747 1.14199C6.02328 1.14823 6.02103 1.15557 6.021 1.16308V3.63734C6.021 3.71822 6.05313 3.79579 6.11032 3.85298C6.16751 3.91018 6.24508 3.94231 6.32597 3.94231H8.80022C8.80774 3.94228 8.81508 3.94002 8.82132 3.93583C8.82756 3.93164 8.83242 3.9257 8.83529 3.91875C8.83816 3.91181 8.83892 3.90417 8.83746 3.89679C8.836 3.88942 8.83239 3.88264 8.8271 3.87731Z" fill="black"/>
</g>
<defs>
<clipPath id="clip0_201_10305">
<rect width="9.75902" height="9.75902" fill="white" transform="translate(0.836426 0.282715)"/>
</clipPath>
</defs>
</svg>
