<svg width="11" height="11" viewBox="0 0 11 11" fill="none" xmlns="http://www.w3.org/2000/svg">
<g clip-path="url(#clip0_201_10275)">
<path d="M9.32904 4.85722H6.66055C6.4179 4.85722 6.18519 4.76083 6.01362 4.58925C5.84204 4.41767 5.74565 4.18496 5.74565 3.94231V1.27383C5.74565 1.25361 5.73761 1.23421 5.72331 1.21992C5.70902 1.20562 5.68962 1.19759 5.6694 1.19759H4.65443C4.61883 1.13166 4.57736 1.06908 4.53053 1.0106C4.31076 0.737844 3.98426 0.587646 3.61086 0.587646C2.89266 0.587646 2.39098 1.15203 2.39098 1.96001V4.70473C2.39098 5.18125 2.77867 5.46716 3.15341 5.46716C3.25383 5.46825 3.35347 5.44928 3.44647 5.41136C3.53946 5.37343 3.62395 5.31731 3.69497 5.24629C3.76598 5.17528 3.8221 5.09079 3.86003 4.99779C3.89796 4.9048 3.91693 4.80516 3.91583 4.70473V1.80752C3.91583 1.72664 3.8837 1.64907 3.82651 1.59188C3.76931 1.53469 3.69174 1.50255 3.61086 1.50255C3.52998 1.50255 3.45241 1.53469 3.39521 1.59188C3.33802 1.64907 3.30589 1.72664 3.30589 1.80752V4.70473C3.30655 4.72494 3.30306 4.74506 3.29563 4.76386C3.28821 4.78266 3.277 4.79974 3.2627 4.81403C3.24841 4.82833 3.23133 4.83953 3.21253 4.84696C3.19373 4.85439 3.17361 4.85788 3.15341 4.85722C3.1109 4.85722 3.00092 4.82977 3.00092 4.70473V1.96001C3.00092 1.59138 3.16122 1.19759 3.61086 1.19759C4.17677 1.19759 4.2208 1.77226 4.2208 1.94819V4.59285C4.2208 4.92546 4.11654 5.22623 3.92707 5.44028C3.73475 5.65776 3.46733 5.77213 3.15341 5.77213C2.83948 5.77213 2.57206 5.65776 2.37974 5.44028C2.19027 5.22623 2.08601 4.92546 2.08601 4.59285V3.0274C2.08601 2.94652 2.05388 2.86895 1.99669 2.81176C1.9395 2.75456 1.86193 2.72243 1.78104 2.72243C1.70016 2.72243 1.62259 2.75456 1.5654 2.81176C1.5082 2.86895 1.47607 2.94652 1.47607 3.0274V4.59285C1.47607 5.57466 2.1087 6.30125 3.00092 6.37558V8.51685C3.00092 8.84038 3.12944 9.15066 3.35821 9.37943C3.58699 9.60821 3.89727 9.73673 4.2208 9.73673H8.1854C8.50893 9.73673 8.81921 9.60821 9.04798 9.37943C9.27676 9.15066 9.40528 8.84038 9.40528 8.51685V4.93346C9.40528 4.91324 9.39725 4.89385 9.38295 4.87955C9.36865 4.86525 9.34926 4.85722 9.32904 4.85722Z" fill="black"/>
<path d="M6.66044 4.24736H9.13469C9.14221 4.24733 9.14955 4.24508 9.15579 4.24089C9.16203 4.2367 9.16689 4.23075 9.16976 4.22381C9.17263 4.21686 9.17339 4.20922 9.17193 4.20185C9.17047 4.19447 9.16687 4.1877 9.16157 4.18236L6.42047 1.44126C6.41513 1.43596 6.40836 1.43236 6.40098 1.4309C6.39361 1.42944 6.38597 1.4302 6.37902 1.43307C6.37208 1.43594 6.36613 1.4408 6.36194 1.44704C6.35775 1.45328 6.3555 1.46062 6.35547 1.46814V3.94239C6.35547 4.02327 6.3876 4.10085 6.44479 4.15804C6.50198 4.21523 6.57956 4.24736 6.66044 4.24736Z" fill="black"/>
</g>
<defs>
<clipPath id="clip0_201_10275">
<rect width="9.75902" height="9.75902" fill="white" transform="translate(0.561035 0.282715)"/>
</clipPath>
</defs>
</svg>
