<svg width="11" height="11" viewBox="0 0 11 11" fill="none" xmlns="http://www.w3.org/2000/svg">
<g clip-path="url(#clip0_201_10321)">
<path d="M6.16171 5.00976C6.17673 5.00977 6.19142 5.00535 6.20393 4.99704C6.21645 4.98874 6.22623 4.97692 6.23206 4.96307C6.23788 4.94923 6.23948 4.93397 6.23667 4.91922C6.23385 4.90447 6.22674 4.89087 6.21622 4.88015L4.72187 3.36064C4.71125 3.34985 4.69767 3.34247 4.68284 3.33944C4.66801 3.3364 4.65262 3.33785 4.63861 3.3436C4.62461 3.34934 4.61264 3.35912 4.60421 3.37169C4.59579 3.38427 4.5913 3.39906 4.59131 3.4142V4.78103C4.59131 4.84169 4.61541 4.89987 4.6583 4.94277C4.7012 4.98566 4.75937 5.00976 4.82004 5.00976H6.16171Z" fill="black"/>
<path d="M4.22919 5.37192C4.1509 5.29468 4.08869 5.2027 4.04616 5.10128C4.00363 4.99986 3.98162 4.89102 3.9814 4.78104V3.02747H2.60904C2.2858 3.02842 1.97607 3.15725 1.74751 3.38582C1.51894 3.61438 1.39012 3.92411 1.38916 4.24734V8.51691C1.38916 8.84045 1.51768 9.15073 1.74645 9.3795C1.97523 9.60827 2.28551 9.73679 2.60904 9.73679H5.35376C5.67729 9.73679 5.98757 9.60827 6.21635 9.3795C6.44512 9.15073 6.57364 8.84045 6.57364 8.51691V5.61971H4.82007C4.71008 5.61955 4.60122 5.59757 4.49979 5.55503C4.39836 5.5125 4.30639 5.45026 4.22919 5.37192Z" fill="black"/>
<path d="M7.56466 2.56994H8.90634C8.92136 2.56995 8.93605 2.56553 8.94856 2.55722C8.96108 2.54892 8.97086 2.5371 8.97668 2.52325C8.98251 2.50941 8.98411 2.49415 8.98129 2.4794C8.97848 2.46465 8.97137 2.45105 8.96085 2.44033L7.4665 0.920817C7.45588 0.910033 7.44229 0.902654 7.42747 0.89962C7.41264 0.896585 7.39725 0.898032 7.38324 0.903776C7.36924 0.90952 7.35727 0.919301 7.34884 0.931874C7.34042 0.944447 7.33592 0.959242 7.33594 0.974377V2.34121C7.33594 2.40187 7.36004 2.46005 7.40293 2.50295C7.44582 2.54584 7.504 2.56994 7.56466 2.56994Z" fill="black"/>
<path d="M7.56477 3.17989C7.34287 3.17819 7.13053 3.08929 6.97362 2.93237C6.8167 2.77546 6.7278 2.56312 6.7261 2.34122V0.587646H4.66756C4.36436 0.588 4.07368 0.708603 3.85928 0.923C3.64488 1.1374 3.52428 1.42808 3.52393 1.73128V2.41746H4.32676C4.42923 2.41787 4.53061 2.43853 4.62508 2.47824C4.71955 2.51795 4.80524 2.57593 4.87723 2.64886L6.95788 4.76458C7.10304 4.91186 7.18409 5.11055 7.18337 5.31734V7.90691H8.19453C8.81419 7.90691 9.31815 7.3938 9.31815 6.76328V3.17989H7.56477Z" fill="black"/>
</g>
<defs>
<clipPath id="clip0_201_10321">
<rect width="9.75902" height="9.75902" fill="white" transform="translate(0.474121 0.282715)"/>
</clipPath>
</defs>
</svg>
