<svg width="10" height="11" viewBox="0 0 10 11" fill="none" xmlns="http://www.w3.org/2000/svg">
<g clip-path="url(#clip0_201_10308)">
<path d="M8.40359 4.55233H5.73511C5.49246 4.55233 5.25975 4.45594 5.08817 4.28436C4.91659 4.11278 4.8202 3.88007 4.8202 3.63742V0.968943C4.8202 0.948722 4.81217 0.929329 4.79787 0.915031C4.78357 0.900733 4.76418 0.8927 4.74396 0.8927H2.99039C2.66685 0.8927 2.35657 1.02122 2.1278 1.24999C1.89903 1.47877 1.77051 1.78905 1.77051 2.11258V8.21197C1.77051 8.5355 1.89903 8.84578 2.1278 9.07455C2.35657 9.30332 2.66685 9.43184 2.99039 9.43184H7.25996C7.58349 9.43184 7.89377 9.30332 8.12254 9.07455C8.35131 8.84578 8.47983 8.5355 8.47983 8.21197V4.62858C8.47983 4.60835 8.4718 4.58896 8.4575 4.57466C8.4432 4.56037 8.42381 4.55233 8.40359 4.55233Z" fill="black"/>
<path d="M8.23628 3.87731L5.49517 1.13621C5.48984 1.13091 5.48306 1.1273 5.47569 1.12585C5.46832 1.12439 5.46068 1.12514 5.45373 1.12801C5.44678 1.13089 5.44084 1.13575 5.43665 1.14199C5.43246 1.14823 5.43021 1.15557 5.43018 1.16308V3.63734C5.43018 3.71822 5.46231 3.79579 5.5195 3.85298C5.57669 3.91018 5.65426 3.94231 5.73515 3.94231H8.2094C8.21692 3.94228 8.22426 3.94002 8.2305 3.93583C8.23673 3.93164 8.2416 3.9257 8.24447 3.91875C8.24734 3.91181 8.2481 3.90417 8.24664 3.89679C8.24518 3.88942 8.24157 3.88264 8.23628 3.87731Z" fill="black"/>
</g>
<defs>
<clipPath id="clip0_201_10308">
<rect width="9.75902" height="9.75902" fill="white" transform="translate(0.245605 0.282715)"/>
</clipPath>
</defs>
</svg>
