<svg width="11" height="11" viewBox="0 0 11 11" fill="none" xmlns="http://www.w3.org/2000/svg">
<g clip-path="url(#clip0_201_10294)">
<path d="M5.18251 4.39985V0.8927H2.36154C2.30088 0.8927 2.2427 0.916798 2.19981 0.959693C2.15691 1.00259 2.13281 1.06077 2.13281 1.12143V9.20312C2.13281 9.26378 2.15691 9.32196 2.19981 9.36485C2.2427 9.40774 2.30088 9.43184 2.36154 9.43184H8.61341C8.67407 9.43184 8.73225 9.40774 8.77515 9.36485C8.81804 9.32196 8.84214 9.26378 8.84214 9.20312V4.55233H5.33499C5.29455 4.55233 5.25576 4.53627 5.22717 4.50767C5.19857 4.47907 5.18251 4.44029 5.18251 4.39985Z" fill="black"/>
<path d="M5.79248 1.07734V3.86609C5.79248 3.88631 5.80051 3.9057 5.81481 3.92C5.82911 3.9343 5.8485 3.94233 5.86872 3.94233H8.65748C8.66501 3.94234 8.67238 3.94011 8.67864 3.93594C8.68491 3.93176 8.6898 3.92582 8.6927 3.91887C8.69559 3.91191 8.69637 3.90426 8.69491 3.89687C8.69346 3.88947 8.68985 3.88268 8.68454 3.87734L5.85748 1.05027C5.85213 1.04496 5.84534 1.04135 5.83795 1.0399C5.83056 1.03845 5.8229 1.03922 5.81595 1.04211C5.80899 1.04501 5.80305 1.0499 5.79888 1.05617C5.7947 1.06244 5.79247 1.0698 5.79248 1.07734Z" fill="black"/>
</g>
<defs>
<clipPath id="clip0_201_10294">
<rect width="9.75902" height="9.75902" fill="white" transform="translate(0.60791 0.282715)"/>
</clipPath>
</defs>
</svg>
