<svg width="11" height="11" viewBox="0 0 11 11" fill="none" xmlns="http://www.w3.org/2000/svg">
<g clip-path="url(#clip0_201_10287)">
<path d="M6.2786 3.94231H8.75286C8.76037 3.94228 8.76771 3.94002 8.77395 3.93583C8.78019 3.93164 8.78505 3.9257 8.78793 3.91875C8.7908 3.91181 8.79155 3.90417 8.79009 3.89679C8.78864 3.88942 8.78503 3.88264 8.77973 3.87731L6.03863 1.13621C6.0333 1.13091 6.02652 1.1273 6.01915 1.12585C6.01177 1.12439 6.00413 1.12514 5.99719 1.12801C5.99024 1.13089 5.9843 1.13575 5.98011 1.14199C5.97592 1.14823 5.97366 1.15557 5.97363 1.16308V3.63734C5.97363 3.71822 6.00576 3.79579 6.06296 3.85298C6.12015 3.91018 6.19772 3.94231 6.2786 3.94231Z" fill="black"/>
<path d="M5.66874 5.46729C5.50062 5.46729 5.36377 5.58699 5.36377 5.73413V6.07722H5.97371V5.73413C5.97371 5.58699 5.83685 5.46729 5.66874 5.46729Z" fill="black"/>
<path d="M8.94705 4.55233H6.27857C6.03592 4.55233 5.80321 4.45594 5.63163 4.28436C5.46005 4.11278 5.36366 3.88007 5.36366 3.63742V0.968943C5.36366 0.948722 5.35563 0.929329 5.34133 0.915031C5.32703 0.900733 5.30764 0.8927 5.28742 0.8927H3.53384C3.21031 0.8927 2.90003 1.02122 2.67126 1.24999C2.44249 1.47877 2.31396 1.78905 2.31396 2.11258V8.21197C2.31396 8.5355 2.44249 8.84578 2.67126 9.07455C2.90003 9.30332 3.21031 9.43184 3.53384 9.43184H7.80341C8.12695 9.43184 8.43723 9.30332 8.666 9.07455C8.89477 8.84578 9.02329 8.5355 9.02329 8.21197V4.62858C9.02329 4.60835 9.01526 4.58896 9.00096 4.57466C8.98666 4.56037 8.96727 4.55233 8.94705 4.55233ZM7.19347 7.60203C7.19347 7.76379 7.12921 7.91893 7.01483 8.03332C6.90044 8.1477 6.7453 8.21197 6.58354 8.21197H4.75372C4.59195 8.21197 4.43681 8.1477 4.32243 8.03332C4.20804 7.91893 4.14378 7.76379 4.14378 7.60203V6.68712C4.14378 6.52535 4.20804 6.37021 4.32243 6.25583C4.43681 6.14144 4.59195 6.07718 4.75372 6.07718V5.73409C4.75372 5.25071 5.16409 4.8573 5.66863 4.8573C6.17316 4.8573 6.58354 5.25071 6.58354 5.73409V6.07718C6.7453 6.07718 6.90044 6.14144 7.01483 6.25583C7.12921 6.37021 7.19347 6.52535 7.19347 6.68712V7.60203Z" fill="black"/>
</g>
<defs>
<clipPath id="clip0_201_10287">
<rect width="9.75902" height="9.75902" fill="white" transform="translate(0.789062 0.282715)"/>
</clipPath>
</defs>
</svg>
