<svg width="11" height="11" viewBox="0 0 11 11" fill="none" xmlns="http://www.w3.org/2000/svg">
<g clip-path="url(#clip0_201_10278)">
<path d="M6.45962 6.07714V5.73405C6.45962 5.41707 6.18782 5.16223 5.84968 5.16223C5.51155 5.16223 5.23975 5.41707 5.23975 5.73405V6.07714" stroke="black" stroke-width="0.609939" stroke-linecap="round" stroke-linejoin="round"/>
<path d="M6.76446 8.21193H4.93465C4.77288 8.21193 4.61774 8.14767 4.50335 8.03329C4.38897 7.9189 4.32471 7.76376 4.32471 7.602V6.68709C4.32471 6.52532 4.38897 6.37018 4.50335 6.2558C4.61774 6.14141 4.77288 6.07715 4.93465 6.07715H6.76446C6.92623 6.07715 7.08137 6.14141 7.19575 6.2558C7.31014 6.37018 7.3744 6.52532 7.3744 6.68709V7.602C7.3744 7.76376 7.31014 7.9189 7.19575 8.03329C7.08137 8.14767 6.92623 8.21193 6.76446 8.21193Z" fill="black"/>
<path d="M8.89968 4.49988V8.21193C8.89968 8.45458 8.80329 8.68729 8.63171 8.85887C8.46013 9.03044 8.22742 9.12684 7.98477 9.12684H3.7152C3.47255 9.12684 3.23984 9.03044 3.06826 8.85887C2.89668 8.68729 2.80029 8.45458 2.80029 8.21193V2.11254C2.80029 1.86989 2.89668 1.63718 3.06826 1.4656C3.23984 1.29402 3.47255 1.19763 3.7152 1.19763H5.59743C5.75914 1.19766 5.91423 1.2619 6.02858 1.37623L8.72108 4.06873C8.83542 4.18309 8.89966 4.33817 8.89968 4.49988Z" stroke="black" stroke-width="0.609939" stroke-linejoin="round"/>
<path d="M5.84961 1.25256V3.63742C5.84961 3.79919 5.91387 3.95433 6.02826 4.06872C6.14264 4.1831 6.29778 4.24736 6.45955 4.24736H8.84441" stroke="black" stroke-width="0.609939" stroke-linecap="round" stroke-linejoin="round"/>
</g>
<defs>
<clipPath id="clip0_201_10278">
<rect width="9.75902" height="9.75902" fill="white" transform="translate(0.970215 0.282715)"/>
</clipPath>
</defs>
</svg>
