<svg width="10" height="11" viewBox="0 0 10 11" fill="none" xmlns="http://www.w3.org/2000/svg">
<g clip-path="url(#clip0_201_10272)">
<path d="M5.48846 4.85722C5.44802 4.85722 5.40924 4.84115 5.38064 4.81256C5.35204 4.78396 5.33598 4.74517 5.33598 4.70473V1.19759H4.24476C4.20916 1.13166 4.1677 1.06908 4.12087 1.0106C3.9011 0.737844 3.57459 0.587646 3.20119 0.587646C2.48299 0.587646 1.98131 1.15203 1.98131 1.96001V4.70473C1.98131 5.18125 2.36901 5.46716 2.74374 5.46716C2.84417 5.46825 2.9438 5.44928 3.0368 5.41136C3.1298 5.37343 3.21428 5.31731 3.2853 5.24629C3.35632 5.17528 3.41243 5.09079 3.45036 4.99779C3.48829 4.9048 3.50726 4.80516 3.50616 4.70473V1.80752H2.89622V4.70473C2.89689 4.72494 2.89339 4.74506 2.88597 4.76386C2.87854 4.78266 2.86733 4.79974 2.85304 4.81403C2.83874 4.82833 2.82167 4.83953 2.80287 4.84696C2.78407 4.85439 2.76394 4.85788 2.74374 4.85722C2.70123 4.85722 2.59125 4.82977 2.59125 4.70473V1.96001C2.59125 1.59138 2.75155 1.19759 3.20119 1.19759C3.7671 1.19759 3.81113 1.77226 3.81113 1.94819V4.59285C3.81113 4.92546 3.70687 5.22623 3.51741 5.44028C3.32509 5.65776 3.05767 5.77213 2.74374 5.77213C2.42981 5.77213 2.16239 5.65776 1.97007 5.44028C1.78061 5.22623 1.67634 4.92546 1.67634 4.59285V3.0274H1.06641V4.59285C1.06641 5.57466 1.69903 6.30125 2.59125 6.37558V9.20303C2.59125 9.26369 2.61535 9.32187 2.65825 9.36477C2.70114 9.40766 2.75932 9.43176 2.81998 9.43176H8.76688C8.82755 9.43176 8.88572 9.40766 8.92862 9.36477C8.97151 9.32187 8.99561 9.26369 8.99561 9.20303V4.85722H5.48846Z" fill="black"/>
<path d="M6.02204 4.24726H8.8108C8.81833 4.24727 8.8257 4.24504 8.83196 4.24087C8.83823 4.23669 8.84312 4.23075 8.84602 4.2238C8.84892 4.21684 8.84969 4.20919 8.84823 4.2018C8.84678 4.19441 8.84317 4.18761 8.83786 4.18227L6.0108 1.3552C6.00546 1.34989 5.99866 1.34628 5.99127 1.34483C5.98388 1.34338 5.97622 1.34415 5.96927 1.34705C5.96231 1.34994 5.95637 1.35483 5.9522 1.3611C5.94802 1.36737 5.94579 1.37474 5.9458 1.38227V4.17102C5.9458 4.19124 5.95383 4.21064 5.96813 4.22493C5.98243 4.23923 6.00182 4.24726 6.02204 4.24726Z" fill="black"/>
</g>
<defs>
<clipPath id="clip0_201_10272">
<rect width="9.75902" height="9.75902" fill="white" transform="translate(0.151367 0.282715)"/>
</clipPath>
</defs>
</svg>
