<svg width="10" height="11" viewBox="0 0 10 11" fill="none" xmlns="http://www.w3.org/2000/svg">
<g clip-path="url(#clip0_201_10316)">
<path d="M5.93407 5.00969L4.18164 3.22791V4.89533C4.18164 4.92566 4.19369 4.95475 4.21514 4.97619C4.23658 4.99764 4.26567 5.00969 4.296 5.00969H5.93407Z" fill="black"/>
<path d="M3.57173 5.39098V3.02747H1.20822C1.14756 3.02747 1.08938 3.05156 1.04648 3.09446C1.00359 3.13735 0.979492 3.19553 0.979492 3.25619V9.50807C0.979492 9.56873 1.00359 9.62691 1.04648 9.6698C1.08938 9.71269 1.14756 9.73679 1.20822 9.73679H5.93525C5.99591 9.73679 6.05408 9.71269 6.09698 9.6698C6.13987 9.62691 6.16397 9.56873 6.16397 9.50807V5.61971H3.80046C3.7398 5.61971 3.68162 5.59561 3.63872 5.55271C3.59583 5.50982 3.57173 5.45164 3.57173 5.39098Z" fill="black"/>
<path d="M7.04063 2.56999H8.6787L6.92627 0.788208V2.45563C6.92627 2.48596 6.93832 2.51505 6.95977 2.5365C6.98121 2.55794 7.0103 2.56999 7.04063 2.56999Z" fill="black"/>
<path d="M6.54516 3.17989C6.4845 3.17989 6.42632 3.15579 6.38343 3.11289C6.34053 3.07 6.31644 3.01182 6.31644 2.95116V0.587646H3.34298C3.28232 0.587646 3.22415 0.611744 3.18125 0.654639C3.13836 0.697534 3.11426 0.755711 3.11426 0.816374V2.41746H3.91709C4.01956 2.41787 4.12095 2.43853 4.21541 2.47824C4.30988 2.51795 4.39557 2.57593 4.46756 2.64886L6.54821 4.76458C6.69337 4.91186 6.77442 5.11055 6.7737 5.31734V7.90691H8.67995C8.74061 7.90691 8.79879 7.88281 8.84168 7.83992C8.88458 7.79703 8.90868 7.73885 8.90868 7.67818V3.17989H6.54516Z" fill="black"/>
</g>
<defs>
<clipPath id="clip0_201_10316">
<rect width="9.75902" height="9.75902" fill="white" transform="translate(0.0644531 0.282715)"/>
</clipPath>
</defs>
</svg>
