<svg width="10" height="11" viewBox="0 0 10 11" fill="none" xmlns="http://www.w3.org/2000/svg">
<g clip-path="url(#clip0_201_10297)">
<path d="M7.94656 4.49988V8.21193C7.94656 8.45458 7.85016 8.68729 7.67859 8.85887C7.50701 9.03044 7.2743 9.12684 7.03165 9.12684H2.76208C2.51943 9.12684 2.28672 9.03044 2.11514 8.85887C1.94356 8.68729 1.84717 8.45458 1.84717 8.21193V2.11254C1.84717 1.86989 1.94356 1.63718 2.11514 1.4656C2.28672 1.29402 2.51943 1.19763 2.76208 1.19763H4.64431C4.80602 1.19766 4.9611 1.2619 5.07546 1.37623L7.76796 4.06873C7.88229 4.18309 7.94653 4.33817 7.94656 4.49988Z" stroke="black" stroke-width="0.609939" stroke-linejoin="round"/>
<path d="M4.89697 1.3501V3.63737C4.89697 3.79913 4.96123 3.95427 5.07562 4.06866C5.19001 4.18305 5.34515 4.24731 5.50691 4.24731H7.79418" stroke="black" stroke-width="0.609939" stroke-linecap="round" stroke-linejoin="round"/>
<path d="M3.37207 5.77222H6.42176" stroke="black" stroke-width="0.609939" stroke-linecap="round" stroke-linejoin="round"/>
<path d="M3.37207 7.297H6.42176" stroke="black" stroke-width="0.609939" stroke-linecap="round" stroke-linejoin="round"/>
</g>
<defs>
<clipPath id="clip0_201_10297">
<rect width="9.75902" height="9.75902" fill="white" transform="translate(0.0175781 0.282715)"/>
</clipPath>
</defs>
</svg>
