<svg width="11" height="11" viewBox="0 0 11 11" fill="none" xmlns="http://www.w3.org/2000/svg">
<g clip-path="url(#clip0_201_10326)">
<path d="M7.28743 3.63733H8.04985C8.25206 3.63733 8.44599 3.71766 8.58897 3.86064C8.73195 4.00362 8.81228 4.19755 8.81228 4.39975V8.36436C8.81228 8.56656 8.73195 8.76049 8.58897 8.90347C8.44599 9.04645 8.25206 9.12678 8.04985 9.12678H3.47531C3.27311 9.12678 3.07918 9.04645 2.9362 8.90347C2.79322 8.76049 2.71289 8.56656 2.71289 8.36436V4.39975C2.71289 4.19755 2.79322 4.00362 2.9362 3.86064C3.07918 3.71766 3.27311 3.63733 3.47531 3.63733H4.23774" stroke="black" stroke-width="0.609939" stroke-linecap="round" stroke-linejoin="round"/>
<path d="M4.23779 5.46716L5.76264 6.99201L7.28749 5.46716" stroke="black" stroke-width="0.609939" stroke-linecap="round" stroke-linejoin="round"/>
<path d="M5.7627 1.19763V6.68708" stroke="black" stroke-width="0.609939" stroke-linecap="round" stroke-linejoin="round"/>
</g>
<defs>
<clipPath id="clip0_201_10326">
<rect width="9.75902" height="9.75902" fill="white" transform="translate(0.883301 0.282715)"/>
</clipPath>
</defs>
</svg>
