<svg width="11" height="11" viewBox="0 0 11 11" fill="none" xmlns="http://www.w3.org/2000/svg">
<g clip-path="url(#clip0_201_10330)">
<path d="M5.4775 3.3324V6.14136L6.69738 4.92148L7.12872 5.35282L5.17253 7.30901L3.21635 5.35282L3.64769 4.92148L4.86756 6.14136V3.3324H2.0466C1.98594 3.3324 1.92776 3.3565 1.88486 3.39939C1.84197 3.44228 1.81787 3.50046 1.81787 3.56112V9.20306C1.81787 9.26372 1.84197 9.3219 1.88486 9.36479C1.92776 9.40769 1.98594 9.43179 2.0466 9.43179H8.29847C8.35913 9.43179 8.41731 9.40769 8.4602 9.36479C8.5031 9.3219 8.5272 9.26372 8.5272 9.20306V3.56112C8.5272 3.50046 8.5031 3.44228 8.4602 3.39939C8.41731 3.3565 8.35913 3.3324 8.29847 3.3324H5.4775Z" fill="black"/>
<path d="M5.47761 0.8927H4.86768V3.33246H5.47761V0.8927Z" fill="black"/>
</g>
<defs>
<clipPath id="clip0_201_10330">
<rect width="9.75902" height="9.75902" fill="white" transform="translate(0.292969 0.282715)"/>
</clipPath>
</defs>
</svg>
