<svg width="11" height="11" viewBox="0 0 11 11" fill="none" xmlns="http://www.w3.org/2000/svg">
<g clip-path="url(#clip0_201_10344)">
<path d="M8.70736 2.41748H4.43779C4.07382 2.41748 3.72475 2.56207 3.46739 2.81944C3.21002 3.0768 3.06543 3.42587 3.06543 3.78984V8.05941C3.06543 8.42339 3.21002 8.77245 3.46739 9.02982C3.72475 9.28719 4.07382 9.43178 4.43779 9.43178H8.70736C9.07134 9.43178 9.4204 9.28719 9.67777 9.02982C9.93514 8.77245 10.0797 8.42339 10.0797 8.05941V3.78984C10.0797 3.42587 9.93514 3.0768 9.67777 2.81944C9.4204 2.56207 9.07134 2.41748 8.70736 2.41748ZM8.08885 6.2296H6.87755V7.4409C6.87755 7.60501 6.75137 7.74587 6.58725 7.75406C6.54602 7.75605 6.50481 7.74964 6.46613 7.73523C6.42744 7.72082 6.39208 7.69871 6.36219 7.67023C6.33231 7.64175 6.30851 7.6075 6.29226 7.56956C6.276 7.53161 6.26761 7.49076 6.26761 7.44948V6.2296H5.05631C4.8922 6.2296 4.75134 6.10342 4.74314 5.93931C4.74116 5.89807 4.74756 5.85686 4.76197 5.81818C4.77638 5.77949 4.7985 5.74413 4.82698 5.71425C4.85545 5.68436 4.8897 5.66057 4.92765 5.64431C4.9656 5.62805 5.00645 5.61966 5.04773 5.61966H6.26761V4.40836C6.26761 4.24425 6.39379 4.10339 6.5579 4.09519C6.59914 4.09321 6.64034 4.09961 6.67903 4.11402C6.71772 4.12843 6.75307 4.15055 6.78296 4.17903C6.81285 4.2075 6.83664 4.24175 6.8529 4.2797C6.86916 4.31765 6.87754 4.3585 6.87755 4.39978V5.61966H8.09742C8.13874 5.61961 8.17963 5.62796 8.21762 5.64419C8.25561 5.66043 8.28991 5.68422 8.31843 5.71411C8.34695 5.744 8.3691 5.77937 8.38353 5.81809C8.39797 5.8568 8.40438 5.89804 8.40239 5.93931C8.39439 6.10342 8.25296 6.2296 8.08885 6.2296Z" fill="black"/>
<path d="M8.47629 1.80749C8.38141 1.54011 8.20612 1.30865 7.97447 1.14484C7.74283 0.981038 7.46617 0.892921 7.18246 0.892578H2.91289C2.54892 0.892578 2.19985 1.03717 1.94248 1.29453C1.68512 1.5519 1.54053 1.90097 1.54053 2.26494V6.53451C1.54087 6.81822 1.62899 7.09488 1.79279 7.32652C1.9566 7.55817 2.18806 7.73346 2.45544 7.82834V3.33233C2.45544 2.92792 2.61609 2.54007 2.90205 2.2541C3.18802 1.96814 3.57587 1.80749 3.98028 1.80749H8.47629Z" fill="black"/>
</g>
<defs>
<clipPath id="clip0_201_10344">
<rect width="9.75902" height="9.75902" fill="white" transform="translate(0.930664 0.282715)"/>
</clipPath>
</defs>
</svg>
