<svg width="10" height="11" viewBox="0 0 10 11" fill="none" xmlns="http://www.w3.org/2000/svg">
<g clip-path="url(#clip0_201_10336)">
<path d="M7.86966 2.72241H3.63821C3.03818 2.72241 2.55176 3.20883 2.55176 3.80887V8.04032C2.55176 8.64035 3.03818 9.12677 3.63821 9.12677H7.86966C8.46969 9.12677 8.95612 8.64035 8.95612 8.04032V3.80887C8.95612 3.20883 8.46969 2.72241 7.86966 2.72241Z" stroke="black" stroke-width="0.609939" stroke-linejoin="round"/>
<path d="M7.42168 2.72248L7.43121 2.26502C7.43041 1.98218 7.31769 1.71115 7.11769 1.51115C6.91769 1.31115 6.64666 1.19844 6.36382 1.19763H2.24673C1.9235 1.19859 1.61377 1.32742 1.3852 1.55598C1.15664 1.78455 1.02781 2.09427 1.02686 2.41751V6.5346C1.02766 6.81744 1.14038 7.08847 1.34038 7.28847C1.54038 7.48847 1.81141 7.60119 2.09425 7.60199H2.5517" stroke="black" stroke-width="0.609939" stroke-linecap="round" stroke-linejoin="round"/>
<path d="M5.75391 4.39978V7.44947" stroke="black" stroke-width="0.609939" stroke-linecap="round" stroke-linejoin="round"/>
<path d="M7.2787 5.92456H4.229" stroke="black" stroke-width="0.609939" stroke-linecap="round" stroke-linejoin="round"/>
</g>
<defs>
<clipPath id="clip0_201_10336">
<rect width="9.75902" height="9.75902" fill="white" transform="translate(0.111816 0.282715)"/>
</clipPath>
</defs>
</svg>
