<svg width="11" height="11" viewBox="0 0 11 11" fill="none" xmlns="http://www.w3.org/2000/svg">
<g clip-path="url(#clip0_201_10347)">
<path d="M6.73864 6.58712C7.61561 5.99128 8.26882 5.07333 8.26882 3.94227C8.26882 3.13344 7.94751 2.35774 7.37559 1.78581C6.80366 1.21388 6.02796 0.892578 5.21913 0.892578C4.4103 0.892578 3.6346 1.21388 3.06267 1.78581C2.49074 2.35774 2.16943 3.13344 2.16943 3.94227V7.87962C2.16943 8.72324 2.85066 9.43172 3.69428 9.43172C4.5379 9.43172 4.9681 8.93729 5.16747 8.6693C5.449 8.29171 5.96249 7.11472 6.73864 6.58712Z" stroke="black" stroke-width="0.609939" stroke-linecap="round" stroke-linejoin="round"/>
<path d="M3.38965 6.07715V3.78988C3.38965 2.86735 4.21307 2.11255 5.21946 2.11255C6.22586 2.11255 7.04928 2.86735 7.04928 3.78988" stroke="black" stroke-width="0.609939" stroke-linecap="round" stroke-linejoin="round"/>
<path d="M3.38965 4.83819C3.86616 4.4951 4.91106 4.55228 4.91106 4.55228C5.40664 4.55228 5.69579 5.11304 5.40664 5.51675C5.40664 5.51675 4.70407 6.32491 4.60876 6.68707" stroke="black" stroke-width="0.609939" stroke-linecap="round" stroke-linejoin="round"/>
</g>
<defs>
<clipPath id="clip0_201_10347">
<rect width="9.75902" height="9.75902" fill="white" transform="translate(0.339844 0.282715)"/>
</clipPath>
</defs>
</svg>
