<svg width="11" height="11" viewBox="0 0 11 11" fill="none" xmlns="http://www.w3.org/2000/svg">
<g clip-path="url(#clip0_201_10351)">
<path d="M8.00174 1.58051C7.36531 0.940267 6.52264 0.587646 5.62908 0.587646C3.7802 0.587646 2.27441 2.09343 2.27441 3.94231V7.87966C2.27406 8.36799 2.46575 8.83689 2.80811 9.18511C2.97601 9.35943 3.17731 9.49812 3.40001 9.59289C3.6227 9.68767 3.86221 9.73659 4.10423 9.73673C4.48411 9.73673 4.88686 9.59015 5.30124 9.30081C5.4783 9.17761 5.64345 9.03811 5.79452 8.88415C6.98943 7.71936 8.98374 5.77327 8.98374 3.94231C8.98374 3.05618 8.63512 2.21752 8.00174 1.58051ZM7.76386 4.09479H7.15392V3.78983C7.15392 3.03312 6.46984 2.41746 5.62908 2.41746C4.78832 2.41746 4.10423 3.03312 4.10423 3.78983V4.36946C4.6284 4.22002 5.24577 4.24328 5.32906 4.24728C5.49646 4.2488 5.66022 4.29623 5.80253 4.38438C5.94484 4.47254 6.06023 4.59805 6.13615 4.74724C6.21206 4.89644 6.24559 5.0636 6.23308 5.23053C6.22056 5.39747 6.16249 5.55777 6.06518 5.69398C6.05947 5.70179 6.05356 5.70942 6.04708 5.71685C5.73162 6.079 5.3609 6.58392 5.31401 6.76518L5.23643 7.06005L4.6467 6.9049L4.72427 6.61003C4.8293 6.2109 5.42818 5.5007 5.57552 5.33011C5.60585 5.28412 5.62317 5.23077 5.62561 5.17573C5.62806 5.12069 5.61555 5.06601 5.58941 5.01751C5.56327 4.96901 5.52449 4.9285 5.47717 4.90027C5.42985 4.87205 5.37577 4.85717 5.32068 4.85722H5.3039C5.10053 4.84616 4.49078 4.85245 4.11986 5.0097L4.10423 5.01637V6.38207H3.49429V3.78983C3.49429 2.6967 4.4519 1.80752 5.62908 1.80752C6.80626 1.80752 7.76386 2.6967 7.76386 3.78983V4.09479Z" fill="black"/>
</g>
<defs>
<clipPath id="clip0_201_10351">
<rect width="9.75902" height="9.75902" fill="white" transform="translate(0.749512 0.282715)"/>
</clipPath>
</defs>
</svg>
