<svg width="10" height="11" viewBox="0 0 10 11" fill="none" xmlns="http://www.w3.org/2000/svg">
<g clip-path="url(#clip0_201_10353)">
<path d="M5.03826 0.587646C3.18938 0.587646 1.68359 2.09343 1.68359 3.94231V7.87966C1.68323 8.36799 1.87493 8.83689 2.21729 9.18511C2.3852 9.35941 2.58651 9.49809 2.8092 9.59286C3.03189 9.68763 3.27139 9.73656 3.51341 9.73673C4.21598 9.73673 4.7939 9.439 5.23115 8.85194C5.31654 8.73757 5.41318 8.57098 5.52507 8.37828C5.81707 7.87565 6.21677 7.18757 6.72912 6.83933C7.22031 6.50558 7.62935 6.08567 7.91088 5.62479C8.2311 5.10386 8.39292 4.53776 8.39292 3.94231C8.39292 2.09343 6.88809 0.587646 5.03826 0.587646ZM6.86807 4.09479C6.78719 4.09479 6.70962 4.06266 6.65243 4.00547C6.59524 3.94828 6.5631 3.87071 6.5631 3.78983C6.5631 3.03312 5.87902 2.41746 5.03826 2.41746C4.1975 2.41746 3.51341 3.03312 3.51341 3.78983V4.36965C4.03167 4.22021 4.62655 4.24156 4.73863 4.24728C4.90599 4.24887 5.0697 4.29635 5.21196 4.38453C5.35421 4.47271 5.46955 4.59823 5.54542 4.74741C5.62129 4.89659 5.65478 5.06373 5.64225 5.23063C5.62972 5.39753 5.57165 5.55779 5.47436 5.69398C5.46865 5.70179 5.46274 5.70942 5.45626 5.71685C5.1408 6.079 4.77008 6.58373 4.72319 6.76518C4.70127 6.84188 4.65017 6.90693 4.58085 6.9464C4.51153 6.98587 4.42951 6.99661 4.35236 6.97631C4.27522 6.95601 4.2091 6.9063 4.16818 6.83783C4.12726 6.76936 4.11479 6.68758 4.13345 6.61003C4.23848 6.2109 4.83736 5.5007 4.9847 5.33011C5.01503 5.28412 5.03235 5.23077 5.03479 5.17573C5.03724 5.12069 5.02473 5.06601 4.99859 5.01751C4.97245 4.96901 4.93367 4.9285 4.88635 4.90027C4.83903 4.87205 4.78495 4.85717 4.72986 4.85722H4.71308C4.39668 4.84025 3.83839 4.87247 3.51341 5.01561V6.0771C3.51341 6.15798 3.48128 6.23555 3.42409 6.29274C3.36689 6.34993 3.28932 6.38207 3.20844 6.38207C3.12756 6.38207 3.04999 6.34993 2.9928 6.29274C2.9356 6.23555 2.90347 6.15798 2.90347 6.0771V3.78983C2.90347 2.6967 3.86108 1.80752 5.03826 1.80752C6.21544 1.80752 7.17304 2.6967 7.17304 3.78983C7.17304 3.87071 7.14091 3.94828 7.08372 4.00547C7.02653 4.06266 6.94896 4.09479 6.86807 4.09479Z" fill="black"/>
</g>
<defs>
<clipPath id="clip0_201_10353">
<rect width="9.75902" height="9.75902" fill="white" transform="translate(0.158691 0.282715)"/>
</clipPath>
</defs>
</svg>
