<svg width="11" height="11" viewBox="0 0 11 11" fill="none" xmlns="http://www.w3.org/2000/svg">
<g clip-path="url(#clip0_201_10355)">
<path d="M9.4126 5.16223C9.4126 2.97274 7.63749 1.19763 5.448 1.19763C3.25851 1.19763 1.4834 2.97274 1.4834 5.16223C1.4834 7.35172 3.25851 9.12684 5.448 9.12684C7.63749 9.12684 9.4126 7.35172 9.4126 5.16223Z" stroke="black" stroke-width="0.609939" stroke-miterlimit="10"/>
<path d="M9.0613 3.56373C8.75519 3.56564 8.7853 4.1304 8.4039 3.86393C8.26228 3.7652 8.17517 3.62167 7.99734 3.57802C7.84199 3.5399 7.68284 3.57955 7.5294 3.60604C7.355 3.63616 7.14819 3.64969 7.01591 3.78178C6.88801 3.90892 6.82035 4.07951 6.68425 4.20741C6.42103 4.45519 6.3099 4.72566 6.48031 5.076C6.64423 5.4128 6.98713 5.59559 7.35709 5.57157C7.72058 5.54736 8.09817 5.33655 8.08768 5.86472C8.08387 6.05152 8.12295 6.18113 8.18032 6.35477C8.2335 6.51488 8.22988 6.67003 8.24208 6.83529C8.26457 7.14407 8.32137 7.49021 8.47462 7.76297L8.76052 7.35965C8.79579 7.30971 8.86955 7.23975 8.88709 7.18086C8.91815 7.0766 8.85697 6.89743 8.84992 6.78058C8.84287 6.66374 8.8463 6.54538 8.82838 6.42854C8.80322 6.2648 8.70639 6.11137 8.69305 5.94954C8.66846 5.64819 8.72355 5.40765 8.49139 5.15567C8.26724 4.91265 7.93863 4.85432 7.6247 4.90369C7.4665 4.92847 6.82969 5.03025 7.08529 4.66867C7.1358 4.59758 7.22405 4.53925 7.28085 4.47158C7.33022 4.41269 7.3731 4.30442 7.43105 4.25849C7.48899 4.21255 7.75508 4.15975 7.83132 4.1832C7.90756 4.20664 7.98704 4.31662 8.05319 4.36542C8.17539 4.45746 8.31799 4.51866 8.4689 4.54382C8.72926 4.58195 9.27363 4.4306 9.26944 4.09666C9.26868 3.93655 9.12001 3.71355 9.0613 3.56373Z" fill="black"/>
<path d="M6.04706 6.31147C5.94547 5.88375 5.36431 5.7408 5.05095 5.50883C4.87083 5.37541 4.71053 5.16936 4.47399 5.15259C4.36496 5.14477 4.27366 5.16841 4.16559 5.14039C4.06648 5.11485 3.98871 5.06148 3.88311 5.07539C3.68584 5.10131 3.56137 5.31212 3.34942 5.28353C3.14833 5.25647 2.94114 5.02126 2.89539 4.8297C2.83669 4.58344 3.03149 4.50357 3.2402 4.48166C3.32731 4.47251 3.42509 4.46259 3.50876 4.49443C3.61893 4.53541 3.67097 4.64329 3.76989 4.6978C3.95535 4.79939 3.9929 4.637 3.9645 4.47232C3.922 4.22567 3.87244 4.12503 4.0924 3.95539C4.24488 3.83836 4.37526 3.75373 4.35086 3.54349C4.33637 3.41998 4.26871 3.36413 4.3318 3.24119C4.37964 3.1476 4.51097 3.06317 4.59655 3.00732C4.81746 2.86322 5.54291 2.87389 5.24652 2.47057C5.15941 2.35221 4.99873 2.14063 4.84624 2.11166C4.65564 2.07564 4.57101 2.28835 4.43816 2.38213C4.30092 2.47915 4.03369 2.58932 3.89626 2.43931C3.71138 2.23746 4.01882 2.17113 4.08687 2.03027C4.15492 1.88941 3.92924 1.62314 3.8084 1.55566L3.2402 2.19286C3.22388 2.29957 3.22956 2.4085 3.2569 2.51293C3.28423 2.61736 3.33265 2.7151 3.39916 2.80013C3.51219 2.94556 3.69213 2.99226 3.70032 3.19087C3.70833 3.38148 3.67859 3.47907 3.55394 3.61306C3.49999 3.67025 3.46187 3.75144 3.40698 3.805C3.3397 3.87038 3.36466 3.85037 3.25964 3.86828C3.06217 3.90164 2.89406 3.9531 2.70326 4.00571C2.38533 4.09358 2.35598 3.57418 2.21112 3.37042L1.7346 3.75526C1.72946 3.81835 1.81275 3.93443 1.83543 4.00304C1.96562 4.39512 2.22827 4.69837 2.39791 5.07349C2.57651 5.47071 3.05607 5.36054 3.26784 5.70858C3.45577 6.01737 3.25507 6.4083 3.39573 6.73157C3.4979 6.9662 3.73882 7.01748 3.90503 7.18902C4.07486 7.36228 4.07124 7.5994 4.09716 7.82488C4.1264 8.0901 4.17384 8.353 4.23916 8.6117C4.26223 8.7011 4.28339 8.81927 4.34457 8.89304C4.3865 8.94374 4.53041 8.98739 4.47228 9.00416C4.55347 9.0175 4.69814 9.09336 4.76581 9.03771C4.85501 8.96451 4.83119 8.73922 4.84663 8.63743C4.89294 8.33437 5.04466 8.03798 5.24938 7.81116C5.45161 7.58739 5.72875 7.43586 5.89953 7.18216C6.06593 6.93475 6.11606 6.601 6.04706 6.31147ZM5.41063 6.81315C5.29626 7.01728 5.04162 7.15395 4.87788 7.31615C4.83347 7.36018 4.73893 7.51267 4.68328 7.47969C4.64344 7.45606 4.62991 7.25821 4.61523 7.21285C4.53951 6.98441 4.39497 6.785 4.20142 6.64198C4.14176 6.59681 3.99385 6.5381 3.95974 6.47615C3.92162 6.40887 3.95592 6.2501 3.95726 6.1769C3.95935 6.07016 3.91075 5.89271 3.93705 5.79569C3.96755 5.68381 3.90884 5.75128 4.00891 5.72917C4.06171 5.71735 4.27976 5.75566 4.34552 5.76939C4.44997 5.79112 4.50754 5.85611 4.58988 5.92187C4.80641 6.09551 5.04486 6.22989 5.2875 6.36293C5.47543 6.46701 5.53071 6.59871 5.41063 6.81315Z" fill="black"/>
<path d="M4.0845 1.56141C4.17484 1.64966 4.25985 1.75412 4.39461 1.76288C4.52213 1.77146 4.6424 1.70246 4.75371 1.78919C4.87723 1.88449 4.96624 2.00514 5.13016 2.03488C5.28874 2.06366 5.45667 1.97103 5.49593 1.80882C5.53405 1.65424 5.4519 1.48612 5.44695 1.33097C5.44695 1.30943 5.45857 1.21375 5.44371 1.19755C5.43265 1.18535 5.3404 1.19907 5.32629 1.19945C5.22298 1.2025 5.11993 1.20962 5.01713 1.2208C4.64237 1.26136 4.27534 1.3554 3.92725 1.50004C3.97356 1.53206 4.0317 1.54483 4.0845 1.56141Z" fill="black"/>
<path d="M7.36141 2.63235C7.52323 2.63235 7.68754 2.55992 7.63531 2.37274C7.59147 2.21587 7.51675 2.04566 7.33492 2.13029C7.21922 2.18404 7.0553 2.3209 7.04176 2.45661C7.02633 2.61062 7.25353 2.63235 7.36141 2.63235Z" fill="black"/>
<path d="M7.23224 3.4513C7.39749 3.55023 7.64261 3.50372 7.76727 3.36248C7.86467 3.25193 7.92204 3.05999 8.09721 3.06018C8.17433 3.06002 8.24841 3.09021 8.30344 3.14424C8.37587 3.21914 8.36158 3.28948 8.37702 3.38326C8.41152 3.59388 8.63738 3.39526 8.69628 3.31369C8.7344 3.26051 8.78606 3.1816 8.76871 3.11241C8.7527 3.04779 8.67722 2.97898 8.64368 2.9197C8.5457 2.74816 8.46508 2.54859 8.31831 2.41002C8.17707 2.2766 8.00343 2.29204 7.86943 2.43061C7.75964 2.54497 7.63213 2.63551 7.55703 2.77465C7.50404 2.87243 7.44438 2.91913 7.33707 2.94448C7.27798 2.9584 7.21051 2.96354 7.16095 3.00319C7.02295 3.11183 7.10148 3.37277 7.23224 3.4513Z" fill="black"/>
</g>
<defs>
<clipPath id="clip0_201_10355">
<rect width="9.75902" height="9.75902" fill="white" transform="translate(0.568359 0.282715)"/>
</clipPath>
</defs>
</svg>
