<svg width="11" height="11" viewBox="0 0 11 11" fill="none" xmlns="http://www.w3.org/2000/svg">
<g clip-path="url(#clip0_201_10370)">
<path d="M8.28586 2.14568C7.89011 1.74601 7.41928 1.42847 6.90044 1.21131C6.3816 0.99415 5.82496 0.881646 5.2625 0.880262C4.70005 0.878878 4.14286 0.98864 3.62295 1.20324C3.10305 1.41785 2.63067 1.73306 2.23295 2.13078C1.83523 2.52849 1.52002 3.00087 1.30542 3.52078C1.09081 4.04069 0.98105 4.59787 0.982435 5.16033C0.983819 5.72278 1.09632 6.27942 1.31348 6.79827C1.53064 7.31711 1.84818 7.78793 2.24785 8.18369C2.6436 8.58336 3.11443 8.90089 3.63327 9.11805C4.15211 9.33521 4.70875 9.44772 5.27121 9.4491C5.83366 9.45049 6.39085 9.34072 6.91075 9.12612C7.43066 8.91152 7.90304 8.5963 8.30076 8.19859C8.69848 7.80087 9.01369 7.32849 9.22829 6.80858C9.4429 6.28867 9.55266 5.73149 9.55127 5.16903C9.54989 4.60658 9.43739 4.04994 9.22023 3.5311C9.00307 3.01225 8.68553 2.54143 8.28586 2.14568ZM1.60722 5.16468C1.60708 4.84079 1.65003 4.51831 1.73493 4.20574C1.87483 4.5069 2.07802 4.76708 2.21621 5.07605C2.39481 5.47327 2.87437 5.3631 3.08613 5.71115C3.27407 6.02012 3.07336 6.41086 3.21403 6.73413C3.31619 6.96877 3.55712 7.02004 3.72333 7.19158C3.89316 7.36465 3.88954 7.60177 3.91546 7.82745C3.94471 8.0926 3.99216 8.35543 4.05746 8.61408C4.05746 8.61598 4.05746 8.61808 4.05898 8.61998C2.63268 8.11907 1.60722 6.75948 1.60722 5.16468ZM5.26685 8.82431C5.06248 8.82425 4.85846 8.80716 4.65692 8.77323C4.65901 8.72158 4.65997 8.67335 4.66511 8.63981C4.71143 8.33674 4.86315 8.04035 5.06786 7.81353C5.27009 7.58976 5.54724 7.43842 5.71802 7.18453C5.88537 6.93674 5.9355 6.60318 5.8665 6.31365C5.76491 5.88593 5.18375 5.74317 4.87039 5.5112C4.69027 5.37778 4.52997 5.17154 4.29343 5.15477C4.1844 5.14715 4.0931 5.17059 3.98503 5.14276C3.88591 5.11703 3.80815 5.06366 3.70255 5.07757C3.50527 5.1035 3.38081 5.31431 3.16886 5.28572C2.96777 5.25884 2.76058 5.02344 2.71483 4.83188C2.65613 4.58562 2.85092 4.50576 3.05964 4.48384C3.14675 4.47469 3.24453 4.46478 3.3282 4.4968C3.43837 4.53759 3.49041 4.64547 3.58933 4.69998C3.77479 4.80177 3.81234 4.63918 3.78394 4.4745C3.74144 4.22785 3.69188 4.1274 3.91184 3.95757C4.06432 3.84054 4.1947 3.75591 4.1703 3.54568C4.15581 3.42216 4.08815 3.36632 4.15124 3.24337C4.19908 3.14979 4.33041 3.06535 4.41599 3.0095C4.6369 2.8654 5.36235 2.87608 5.06596 2.47275C4.97885 2.35439 4.81817 2.14282 4.66568 2.11384C4.47508 2.07782 4.39045 2.29054 4.2576 2.38431C4.12036 2.48133 3.85313 2.5915 3.7157 2.4415C3.53082 2.23964 3.83826 2.1735 3.90631 2.03246C3.93776 1.9667 3.90631 1.8754 3.85332 1.78943C3.92207 1.76046 3.99196 1.73359 4.06299 1.70881C4.1075 1.74169 4.16031 1.76149 4.21547 1.76599C4.34299 1.77437 4.46326 1.70538 4.57457 1.79229C4.69809 1.88759 4.7871 2.00806 4.95102 2.03779C5.1096 2.06657 5.27753 1.97413 5.31679 1.81173C5.34062 1.713 5.31679 1.60874 5.29392 1.50676C6.00679 1.51087 6.70274 1.72436 7.29528 2.12071C7.25716 2.10622 7.21161 2.10794 7.15538 2.13405C7.03968 2.1878 6.87576 2.32465 6.86223 2.46037C6.84679 2.61437 7.07399 2.6361 7.18187 2.6361C7.34389 2.6361 7.508 2.56367 7.45577 2.3765C7.43309 2.2953 7.40221 2.21086 7.35246 2.15978C7.47205 2.24276 7.58662 2.33276 7.69555 2.4293C7.69384 2.43101 7.69212 2.43254 7.69041 2.43444C7.58062 2.54881 7.4531 2.63934 7.37801 2.77849C7.32502 2.87646 7.26536 2.92297 7.15805 2.94832C7.09896 2.96223 7.03148 2.96738 6.98193 3.00702C6.84393 3.11567 6.92246 3.3768 7.05321 3.45514C7.21847 3.55406 7.46359 3.50755 7.58824 3.36631C7.68564 3.25576 7.74302 3.06382 7.91818 3.06401C7.9953 3.06385 8.06938 3.09405 8.12442 3.14807C8.19685 3.22317 8.18255 3.29331 8.19799 3.38709C8.22525 3.55368 8.3722 3.46333 8.4616 3.37928C8.52676 3.49524 8.58555 3.61468 8.63772 3.73704C8.53937 3.87866 8.46122 4.03305 8.22468 3.86799C8.08306 3.76907 7.99595 3.62554 7.81811 3.58094C7.66277 3.54282 7.50361 3.58246 7.35018 3.60896C7.17577 3.63926 6.96896 3.6526 6.83668 3.78469C6.70879 3.91202 6.64112 4.08242 6.50503 4.21032C6.2418 4.45811 6.13068 4.72858 6.30108 5.07891C6.465 5.41571 6.8079 5.5985 7.17787 5.57448C7.54135 5.55028 7.91894 5.33947 7.90846 5.86764C7.90465 6.05462 7.94372 6.18404 8.0011 6.35768C8.05427 6.51779 8.05065 6.67295 8.06285 6.8382C8.07445 7.03171 8.10471 7.22366 8.1532 7.41135C7.81155 7.85123 7.3739 8.2072 6.87366 8.45209C6.37341 8.69697 5.82382 8.82429 5.26685 8.82431Z" fill="black"/>
</g>
<defs>
<clipPath id="clip0_201_10370">
<rect width="9.75902" height="9.75902" fill="white" transform="translate(0.387207 0.282715)"/>
</clipPath>
</defs>
</svg>
