<svg width="11" height="11" viewBox="0 0 11 11" fill="none" xmlns="http://www.w3.org/2000/svg">
<path d="M8.93722 7.95522C8.78321 8.36845 8.56058 8.71955 8.27543 8.99879C8.00134 9.26697 7.66359 9.47435 7.27151 9.61521C6.8537 9.76502 6.37281 9.84127 5.84197 9.84127C5.31113 9.84127 4.83023 9.76502 4.41242 9.61521C4.02035 9.47435 3.68259 9.26697 3.4085 8.99879C3.12259 8.71955 2.90073 8.36845 2.74672 7.95522C2.5746 7.49338 2.4873 6.95416 2.4873 6.35204C2.4873 5.77488 2.61463 5.15941 2.86585 4.52222C3.10977 3.91086 3.43786 3.33655 3.84061 2.81592C4.69414 1.71307 5.55606 1.30212 5.84197 1.30212C6.12788 1.30212 7.0365 1.72908 7.84333 2.81592C8.19271 3.2869 8.58422 3.92791 8.81866 4.5226C9.06988 5.15941 9.1972 5.77488 9.1972 6.35242C9.19663 6.95416 9.10933 7.49338 8.93722 7.95522Z" fill="black"/>
</svg>
