<svg width="11" height="11" viewBox="0 0 11 11" fill="none" xmlns="http://www.w3.org/2000/svg">
<path d="M5.16452 6.0672C5.43822 6.0672 5.6601 5.84532 5.6601 5.57163C5.6601 5.29793 5.43822 5.07605 5.16452 5.07605C4.89082 5.07605 4.66895 5.29793 4.66895 5.57163C4.66895 5.84532 4.89082 6.0672 5.16452 6.0672Z" fill="black"/>
<path d="M5.16452 7.78265C5.43822 7.78265 5.6601 7.56078 5.6601 7.28708C5.6601 7.01338 5.43822 6.7915 5.16452 6.7915C4.89082 6.7915 4.66895 7.01338 4.66895 7.28708C4.66895 7.56078 4.89082 7.78265 5.16452 7.78265Z" fill="black"/>
<path d="M5.16452 4.35175C5.43822 4.35175 5.6601 4.12987 5.6601 3.85617C5.6601 3.58247 5.43822 3.3606 5.16452 3.3606C4.89082 3.3606 4.66895 3.58247 4.66895 3.85617C4.66895 4.12987 4.89082 4.35175 5.16452 4.35175Z" fill="black"/>
<path d="M8.82415 5.57162C8.82415 3.5512 7.18494 1.91199 5.16452 1.91199C3.14409 1.91199 1.50488 3.5512 1.50488 5.57162C1.50488 7.59204 3.14409 9.23125 5.16452 9.23125C7.18494 9.23125 8.82415 7.59204 8.82415 5.57162Z" stroke="black" stroke-width="0.609939" stroke-miterlimit="10"/>
</svg>
