<svg width="11" height="11" viewBox="0 0 11 11" fill="none" xmlns="http://www.w3.org/2000/svg">
<path d="M9.72022 5.57166C9.72022 3.38217 7.94511 1.60706 5.75562 1.60706C3.56613 1.60706 1.79102 3.38217 1.79102 5.57166C1.79102 7.76115 3.56613 9.53626 5.75562 9.53626C7.94511 9.53626 9.72022 7.76115 9.72022 5.57166ZM5.26004 3.8562C5.26004 3.75819 5.28911 3.66237 5.34356 3.58088C5.39802 3.49938 5.47541 3.43586 5.56597 3.39835C5.65652 3.36084 5.75617 3.35103 5.8523 3.37015C5.94843 3.38927 6.03673 3.43647 6.10604 3.50578C6.17535 3.57509 6.22255 3.66339 6.24167 3.75952C6.26079 3.85566 6.25098 3.9553 6.21347 4.04585C6.17596 4.13641 6.11244 4.21381 6.03094 4.26826C5.94945 4.32272 5.85363 4.35178 5.75562 4.35178C5.62418 4.35178 5.49813 4.29957 5.40519 4.20663C5.31225 4.11369 5.26004 3.98764 5.26004 3.8562ZM5.26004 5.57166C5.26004 5.47364 5.28911 5.37783 5.34356 5.29633C5.39802 5.21483 5.47541 5.15131 5.56597 5.11381C5.65652 5.0763 5.75617 5.06648 5.8523 5.08561C5.94843 5.10473 6.03673 5.15193 6.10604 5.22123C6.17535 5.29054 6.22255 5.37884 6.24167 5.47498C6.26079 5.57111 6.25098 5.67075 6.21347 5.76131C6.17596 5.85186 6.11244 5.92926 6.03094 5.98371C5.94945 6.03817 5.85363 6.06723 5.75562 6.06723C5.62418 6.06723 5.49813 6.01502 5.40519 5.92208C5.31225 5.82914 5.26004 5.70309 5.26004 5.57166ZM5.26004 7.28711C5.26004 7.1891 5.28911 7.09328 5.34356 7.01178C5.39802 6.93029 5.47541 6.86677 5.56597 6.82926C5.65652 6.79175 5.75617 6.78194 5.8523 6.80106C5.94843 6.82018 6.03673 6.86738 6.10604 6.93669C6.17535 7.00599 6.22255 7.0943 6.24167 7.19043C6.26079 7.28656 6.25098 7.3862 6.21347 7.47676C6.17596 7.56731 6.11244 7.64471 6.03094 7.69917C5.94945 7.75362 5.85363 7.78269 5.75562 7.78269C5.62418 7.78269 5.49813 7.73047 5.40519 7.63754C5.31225 7.5446 5.26004 7.41855 5.26004 7.28711Z" fill="black"/>
</svg>
