<svg width="11" height="11" viewBox="0 0 11 11" fill="none" xmlns="http://www.w3.org/2000/svg">
<path d="M5.57429 6.18155C5.91115 6.18155 6.18423 5.90847 6.18423 5.57161C6.18423 5.23475 5.91115 4.96167 5.57429 4.96167C5.23743 4.96167 4.96436 5.23475 4.96436 5.57161C4.96436 5.90847 5.23743 6.18155 5.57429 6.18155Z" stroke="black" stroke-width="0.609939" stroke-miterlimit="10"/>
<path d="M5.57429 9.23123C5.91115 9.23123 6.18423 8.95815 6.18423 8.62129C6.18423 8.28443 5.91115 8.01135 5.57429 8.01135C5.23743 8.01135 4.96436 8.28443 4.96436 8.62129C4.96436 8.95815 5.23743 9.23123 5.57429 9.23123Z" stroke="black" stroke-width="0.609939" stroke-miterlimit="10"/>
<path d="M5.57429 3.13187C5.91115 3.13187 6.18423 2.85879 6.18423 2.52193C6.18423 2.18507 5.91115 1.91199 5.57429 1.91199C5.23743 1.91199 4.96436 2.18507 4.96436 2.52193C4.96436 2.85879 5.23743 3.13187 5.57429 3.13187Z" stroke="black" stroke-width="0.609939" stroke-miterlimit="10"/>
</svg>
