<svg width="11" height="11" viewBox="0 0 11 11" fill="none" xmlns="http://www.w3.org/2000/svg">
<path d="M5.29859 1.60706C3.1091 1.60706 1.33398 3.38217 1.33398 5.57166C1.33398 7.76115 3.1091 9.53626 5.29859 9.53626C7.48808 9.53626 9.26319 7.76115 9.26319 5.57166C9.26319 3.38217 7.48808 1.60706 5.29859 1.60706ZM3.58313 6.06723C3.48512 6.06723 3.3893 6.03817 3.30781 5.98371C3.22631 5.92926 3.16279 5.85186 3.12528 5.76131C3.08777 5.67075 3.07796 5.57111 3.09708 5.47498C3.1162 5.37884 3.1634 5.29054 3.23271 5.22123C3.30202 5.15193 3.39032 5.10473 3.48645 5.08561C3.58258 5.06648 3.68223 5.0763 3.77278 5.11381C3.86334 5.15131 3.94073 5.21483 3.99519 5.29633C4.04964 5.37783 4.07871 5.47364 4.07871 5.57166C4.07871 5.70309 4.0265 5.82914 3.93356 5.92208C3.84062 6.01502 3.71457 6.06723 3.58313 6.06723ZM5.29859 6.06723C5.20057 6.06723 5.10476 6.03817 5.02326 5.98371C4.94176 5.92926 4.87824 5.85186 4.84073 5.76131C4.80323 5.67075 4.79341 5.57111 4.81253 5.47498C4.83166 5.37884 4.87885 5.29054 4.94816 5.22123C5.01747 5.15193 5.10577 5.10473 5.2019 5.08561C5.29804 5.06648 5.39768 5.0763 5.48823 5.11381C5.57879 5.15131 5.65619 5.21483 5.71064 5.29633C5.7651 5.37783 5.79416 5.47364 5.79416 5.57166C5.79416 5.70309 5.74195 5.82914 5.64901 5.92208C5.55607 6.01502 5.43002 6.06723 5.29859 6.06723ZM7.01404 6.06723C6.91602 6.06723 6.82021 6.03817 6.73871 5.98371C6.65722 5.92926 6.5937 5.85186 6.55619 5.76131C6.51868 5.67075 6.50886 5.57111 6.52799 5.47498C6.54711 5.37884 6.59431 5.29054 6.66361 5.22123C6.73292 5.15193 6.82122 5.10473 6.91736 5.08561C7.01349 5.06648 7.11313 5.0763 7.20369 5.11381C7.29424 5.15131 7.37164 5.21483 7.4261 5.29633C7.48055 5.37783 7.50961 5.47364 7.50961 5.57166C7.50961 5.70309 7.4574 5.82914 7.36446 5.92208C7.27152 6.01502 7.14547 6.06723 7.01404 6.06723Z" fill="black"/>
</svg>
