<svg width="11" height="11" viewBox="0 0 11 11" fill="none" xmlns="http://www.w3.org/2000/svg">
<path d="M5.70798 6.06732C5.98168 6.06732 6.20355 5.84545 6.20355 5.57175C6.20355 5.29805 5.98168 5.07617 5.70798 5.07617C5.43428 5.07617 5.2124 5.29805 5.2124 5.57175C5.2124 5.84545 5.43428 6.06732 5.70798 6.06732Z" fill="black"/>
<path d="M7.42331 6.06732C7.69701 6.06732 7.91888 5.84545 7.91888 5.57175C7.91888 5.29805 7.69701 5.07617 7.42331 5.07617C7.14961 5.07617 6.92773 5.29805 6.92773 5.57175C6.92773 5.84545 7.14961 6.06732 7.42331 6.06732Z" fill="black"/>
<path d="M3.99265 6.06732C4.26634 6.06732 4.48822 5.84545 4.48822 5.57175C4.48822 5.29805 4.26634 5.07617 3.99265 5.07617C3.71895 5.07617 3.49707 5.29805 3.49707 5.57175C3.49707 5.84545 3.71895 6.06732 3.99265 6.06732Z" fill="black"/>
<path d="M9.36761 5.57174C9.36761 3.55132 7.72839 1.91211 5.70797 1.91211C3.68755 1.91211 2.04834 3.55132 2.04834 5.57174C2.04834 7.59216 3.68755 9.23137 5.70797 9.23137C7.72839 9.23137 9.36761 7.59216 9.36761 5.57174Z" stroke="black" stroke-width="0.609939" stroke-miterlimit="10"/>
</svg>
