<svg width="10" height="11" viewBox="0 0 10 11" fill="none" xmlns="http://www.w3.org/2000/svg">
<g clip-path="url(#clip0_201_10416)">
<path d="M4.93688 6.48668C5.44217 6.48668 5.85179 6.07706 5.85179 5.57177C5.85179 5.06648 5.44217 4.65686 4.93688 4.65686C4.43159 4.65686 4.02197 5.06648 4.02197 5.57177C4.02197 6.07706 4.43159 6.48668 4.93688 6.48668Z" fill="black"/>
<path d="M7.9862 6.48668C8.49149 6.48668 8.90111 6.07706 8.90111 5.57177C8.90111 5.06648 8.49149 4.65686 7.9862 4.65686C7.48091 4.65686 7.07129 5.06648 7.07129 5.57177C7.07129 6.07706 7.48091 6.48668 7.9862 6.48668Z" fill="black"/>
<path d="M1.88708 6.48668C2.39237 6.48668 2.80198 6.07706 2.80198 5.57177C2.80198 5.06648 2.39237 4.65686 1.88708 4.65686C1.38179 4.65686 0.972168 5.06648 0.972168 5.57177C0.972168 6.07706 1.38179 6.48668 1.88708 6.48668Z" fill="black"/>
</g>
<defs>
<clipPath id="clip0_201_10416">
<rect width="9.75902" height="9.75902" fill="white" transform="translate(0.0571289 0.692139)"/>
</clipPath>
</defs>
</svg>
