<svg width="10" height="11" viewBox="0 0 10 11" fill="none" xmlns="http://www.w3.org/2000/svg">
<g clip-path="url(#clip0_201_10408)">
<path d="M5.11775 6.18167C5.45461 6.18167 5.72769 5.90859 5.72769 5.57173C5.72769 5.23487 5.45461 4.96179 5.11775 4.96179C4.78089 4.96179 4.50781 5.23487 4.50781 5.57173C4.50781 5.90859 4.78089 6.18167 5.11775 6.18167Z" stroke="black" stroke-width="0.609939" stroke-miterlimit="10"/>
<path d="M8.16756 6.18167C8.50442 6.18167 8.77749 5.90859 8.77749 5.57173C8.77749 5.23487 8.50442 4.96179 8.16756 4.96179C7.8307 4.96179 7.55762 5.23487 7.55762 5.57173C7.55762 5.90859 7.8307 6.18167 8.16756 6.18167Z" stroke="black" stroke-width="0.609939" stroke-miterlimit="10"/>
<path d="M2.06795 6.18167C2.40481 6.18167 2.67789 5.90859 2.67789 5.57173C2.67789 5.23487 2.40481 4.96179 2.06795 4.96179C1.73109 4.96179 1.45801 5.23487 1.45801 5.57173C1.45801 5.90859 1.73109 6.18167 2.06795 6.18167Z" stroke="black" stroke-width="0.609939" stroke-miterlimit="10"/>
</g>
<defs>
<clipPath id="clip0_201_10408">
<rect width="9.75902" height="9.75902" fill="white" transform="translate(0.238281 0.692139)"/>
</clipPath>
</defs>
</svg>
