<svg width="11" height="11" viewBox="0 0 11 11" fill="none" xmlns="http://www.w3.org/2000/svg">
<path d="M5.34567 6.0672C5.61937 6.0672 5.84125 5.84532 5.84125 5.57163C5.84125 5.29793 5.61937 5.07605 5.34567 5.07605C5.07197 5.07605 4.8501 5.29793 4.8501 5.57163C4.8501 5.84532 5.07197 6.0672 5.34567 6.0672Z" fill="black"/>
<path d="M5.34567 7.78265C5.61937 7.78265 5.84125 7.56078 5.84125 7.28708C5.84125 7.01338 5.61937 6.7915 5.34567 6.7915C5.07197 6.7915 4.8501 7.01338 4.8501 7.28708C4.8501 7.56078 5.07197 7.78265 5.34567 7.78265Z" fill="black"/>
<path d="M5.34567 4.35175C5.61937 4.35175 5.84125 4.12987 5.84125 3.85617C5.84125 3.58247 5.61937 3.3606 5.34567 3.3606C5.07197 3.3606 4.8501 3.58247 4.8501 3.85617C4.8501 4.12987 5.07197 4.35175 5.34567 4.35175Z" fill="black"/>
<path d="M9.0053 5.57162C9.0053 3.5512 7.36609 1.91199 5.34567 1.91199C3.32525 1.91199 1.68604 3.5512 1.68604 5.57162C1.68604 7.59204 3.32525 9.23125 5.34567 9.23125C7.36609 9.23125 9.0053 7.59204 9.0053 5.57162Z" stroke="black" stroke-width="0.609939" stroke-miterlimit="10"/>
</svg>
