<svg width="10" height="11" viewBox="0 0 10 11" fill="none" xmlns="http://www.w3.org/2000/svg">
<g clip-path="url(#clip0_201_10396)">
<path d="M4.88913 6.06732C5.16283 6.06732 5.38471 5.84545 5.38471 5.57175C5.38471 5.29805 5.16283 5.07617 4.88913 5.07617C4.61543 5.07617 4.39355 5.29805 4.39355 5.57175C4.39355 5.84545 4.61543 6.06732 4.88913 6.06732Z" fill="black"/>
<path d="M6.60495 6.06732C6.87865 6.06732 7.10053 5.84545 7.10053 5.57175C7.10053 5.29805 6.87865 5.07617 6.60495 5.07617C6.33125 5.07617 6.10938 5.29805 6.10938 5.57175C6.10938 5.84545 6.33125 6.06732 6.60495 6.06732Z" fill="black"/>
<path d="M3.1738 6.06732C3.4475 6.06732 3.66937 5.84545 3.66937 5.57175C3.66937 5.29805 3.4475 5.07617 3.1738 5.07617C2.9001 5.07617 2.67822 5.29805 2.67822 5.57175C2.67822 5.84545 2.9001 6.06732 3.1738 6.06732Z" fill="black"/>
<path d="M8.54876 5.57174C8.54876 3.55132 6.90955 1.91211 4.88912 1.91211C2.8687 1.91211 1.22949 3.55132 1.22949 5.57174C1.22949 7.59216 2.8687 9.23137 4.88912 9.23137C6.90955 9.23137 8.54876 7.59216 8.54876 5.57174Z" stroke="black" stroke-width="0.609939" stroke-miterlimit="10"/>
</g>
<defs>
<clipPath id="clip0_201_10396">
<rect width="9.75902" height="9.75902" fill="white" transform="translate(0.00976562 0.692139)"/>
</clipPath>
</defs>
</svg>
