<svg width="11" height="11" viewBox="0 0 11 11" fill="none" xmlns="http://www.w3.org/2000/svg">
<path d="M5.52721 6.48668C6.0325 6.48668 6.44212 6.07706 6.44212 5.57177C6.44212 5.06648 6.0325 4.65686 5.52721 4.65686C5.02192 4.65686 4.6123 5.06648 4.6123 5.57177C4.6123 6.07706 5.02192 6.48668 5.52721 6.48668Z" fill="black"/>
<path d="M8.57653 6.48668C9.08182 6.48668 9.49144 6.07706 9.49144 5.57177C9.49144 5.06648 9.08182 4.65686 8.57653 4.65686C8.07124 4.65686 7.66162 5.06648 7.66162 5.57177C7.66162 6.07706 8.07124 6.48668 8.57653 6.48668Z" fill="black"/>
<path d="M2.47741 6.48668C2.9827 6.48668 3.39232 6.07706 3.39232 5.57177C3.39232 5.06648 2.9827 4.65686 2.47741 4.65686C1.97212 4.65686 1.5625 5.06648 1.5625 5.57177C1.5625 6.07706 1.97212 6.48668 2.47741 6.48668Z" fill="black"/>
</svg>
