<svg width="11" height="11" viewBox="0 0 11 11" fill="none" xmlns="http://www.w3.org/2000/svg">
<path d="M3.79199 3.28443V5.26674H6.71531L5.7112 4.26243C5.65642 4.20477 5.62634 4.128 5.62735 4.04847C5.62837 3.96895 5.66042 3.89297 5.71665 3.83673C5.77289 3.7805 5.84887 3.74845 5.92839 3.74743C6.00792 3.74642 6.08469 3.7765 6.14235 3.83128L7.6672 5.35613C7.72435 5.41332 7.75645 5.49086 7.75645 5.5717C7.75645 5.65255 7.72435 5.73009 7.6672 5.78728L6.14235 7.31213C6.08469 7.36691 6.00792 7.39699 5.92839 7.39598C5.84887 7.39496 5.77289 7.36291 5.71665 7.30668C5.66042 7.25044 5.62837 7.17446 5.62735 7.09493C5.62634 7.01541 5.65642 6.93863 5.7112 6.88098L6.71531 5.87667H3.79199V7.85897C3.79229 8.14197 3.90485 8.41329 4.10496 8.6134C4.30507 8.81351 4.57639 8.92606 4.85939 8.92637H8.82399C9.10698 8.92606 9.3783 8.81351 9.57841 8.6134C9.77852 8.41329 9.89108 8.14197 9.89138 7.85897V3.28443C9.89108 3.00144 9.77852 2.73012 9.57841 2.53001C9.3783 2.3299 9.10698 2.21734 8.82399 2.21704H4.85939C4.57639 2.21734 4.30507 2.3299 4.10496 2.53001C3.90485 2.73012 3.79229 3.00144 3.79199 3.28443Z" fill="black"/>
<path d="M1.65702 5.26672C1.57614 5.26672 1.49857 5.29885 1.44137 5.35605C1.38418 5.41324 1.35205 5.49081 1.35205 5.57169C1.35205 5.65258 1.38418 5.73015 1.44137 5.78734C1.49857 5.84453 1.57614 5.87666 1.65702 5.87666H3.79181V5.26672H1.65702Z" fill="black"/>
</svg>
