<svg width="11" height="11" viewBox="0 0 11 11" fill="none" xmlns="http://www.w3.org/2000/svg">
<g clip-path="url(#clip0_201_10444)">
<path d="M4.27783 4.04682V3.2844C4.27783 3.08219 4.35816 2.88826 4.50114 2.74528C4.64412 2.6023 4.83805 2.52197 5.04026 2.52197H9.00486C9.20707 2.52197 9.40099 2.6023 9.54397 2.74528C9.68695 2.88826 9.76728 3.08219 9.76728 3.2844V7.85894C9.76728 8.06114 9.68695 8.25507 9.54397 8.39805C9.40099 8.54103 9.20707 8.62136 9.00486 8.62136H5.04026C4.83805 8.62136 4.64412 8.54103 4.50114 8.39805C4.35816 8.25507 4.27783 8.06114 4.27783 7.85894V7.09651" stroke="black" stroke-width="0.609939" stroke-linecap="round" stroke-linejoin="round"/>
<path d="M6.10791 7.09645L7.63276 5.5716L6.10791 4.04675" stroke="black" stroke-width="0.609939" stroke-linecap="round" stroke-linejoin="round"/>
<path d="M1.83838 5.57166H7.32783" stroke="black" stroke-width="0.609939" stroke-linecap="round" stroke-linejoin="round"/>
</g>
<defs>
<clipPath id="clip0_201_10444">
<rect width="9.75902" height="9.75902" fill="white" transform="translate(0.92334 0.692139)"/>
</clipPath>
</defs>
</svg>
