<svg width="11" height="11" viewBox="0 0 11 11" fill="none" xmlns="http://www.w3.org/2000/svg">
<g clip-path="url(#clip0_201_10448)">
<path d="M3.38232 5.26674H6.19128L4.97141 4.04686L5.40275 3.61552L7.35893 5.5717L5.40275 7.52789L4.97141 7.09655L6.19128 5.87667H3.38232V8.69764C3.38232 8.7583 3.40642 8.81648 3.44932 8.85938C3.49221 8.90227 3.55039 8.92637 3.61105 8.92637H9.25298C9.31365 8.92637 9.37182 8.90227 9.41472 8.85938C9.45761 8.81648 9.48171 8.7583 9.48171 8.69764V2.44577C9.48171 2.38511 9.45761 2.32693 9.41472 2.28403C9.37182 2.24114 9.31365 2.21704 9.25298 2.21704H3.61105C3.55039 2.21704 3.49221 2.24114 3.44932 2.28403C3.40642 2.32693 3.38232 2.38511 3.38232 2.44577V5.26674Z" fill="black"/>
<path d="M3.38214 5.26672H0.942383V5.87666H3.38214V5.26672Z" fill="black"/>
</g>
<defs>
<clipPath id="clip0_201_10448">
<rect width="9.75902" height="9.75902" fill="white" transform="translate(0.33252 0.692139)"/>
</clipPath>
</defs>
</svg>
