<svg width="11" height="11" viewBox="0 0 11 11" fill="none" xmlns="http://www.w3.org/2000/svg">
<g clip-path="url(#clip0_201_10461)">
<path d="M7.3745 7.85897V5.87667H4.61071C4.52983 5.87667 4.45226 5.84454 4.39507 5.78735C4.33787 5.73016 4.30574 5.65259 4.30574 5.5717C4.30574 5.49082 4.33787 5.41325 4.39507 5.35606C4.45226 5.29887 4.52983 5.26674 4.61071 5.26674H7.3745V3.28443C7.37419 3.00144 7.26164 2.73012 7.06153 2.53001C6.86142 2.3299 6.5901 2.21734 6.3071 2.21704H2.64747C2.36447 2.21734 2.09315 2.3299 1.89304 2.53001C1.69294 2.73012 1.58038 3.00144 1.58008 3.28443V7.85897C1.58038 8.14197 1.69294 8.41329 1.89304 8.6134C2.09315 8.81351 2.36447 8.92606 2.64747 8.92637H6.3071C6.5901 8.92606 6.86142 8.81351 7.06153 8.6134C7.26164 8.41329 7.37419 8.14197 7.3745 7.85897Z" fill="black"/>
<path d="M9.07796 5.87658L8.07384 6.88088C8.01907 6.93854 7.98898 7.01532 7.99 7.09484C7.99101 7.17436 8.02306 7.25034 8.0793 7.30658C8.13553 7.36282 8.21151 7.39486 8.29104 7.39588C8.37056 7.3969 8.44734 7.36681 8.505 7.31203L10.0298 5.78718C10.087 5.73 10.1191 5.65246 10.1191 5.57161C10.1191 5.49076 10.087 5.41322 10.0298 5.35603L8.505 3.83119C8.44734 3.77641 8.37056 3.74632 8.29104 3.74734C8.21151 3.74836 8.13553 3.7804 8.0793 3.83664C8.02306 3.89287 7.99101 3.96886 7.99 4.04838C7.98898 4.1279 8.01907 4.20468 8.07384 4.26234L9.07796 5.26664H7.37451V5.87658H9.07796Z" fill="black"/>
</g>
<defs>
<clipPath id="clip0_201_10461">
<rect width="9.75902" height="9.75902" fill="white" transform="translate(0.970215 0.692139)"/>
</clipPath>
</defs>
</svg>
