<svg width="10" height="11" viewBox="0 0 10 11" fill="none" xmlns="http://www.w3.org/2000/svg">
<g clip-path="url(#clip0_201_10454)">
<path d="M6.25089 4.04682V3.2844C6.25089 3.08219 6.17056 2.88826 6.02758 2.74528C5.8846 2.6023 5.69067 2.52197 5.48846 2.52197H1.82883C1.62662 2.52197 1.4327 2.6023 1.28971 2.74528C1.14673 2.88826 1.06641 3.08219 1.06641 3.2844V7.85894C1.06641 8.06114 1.14673 8.25507 1.28971 8.39805C1.4327 8.54103 1.62662 8.62136 1.82883 8.62136H5.48846C5.69067 8.62136 5.8846 8.54103 6.02758 8.39805C6.17056 8.25507 6.25089 8.06114 6.25089 7.85894V7.09651" stroke="black" stroke-width="0.609939" stroke-linecap="round" stroke-linejoin="round"/>
<path d="M7.4707 4.04675L8.99555 5.5716L7.4707 7.09645" stroke="black" stroke-width="0.609939" stroke-linecap="round" stroke-linejoin="round"/>
<path d="M3.79199 5.57166H8.99553" stroke="black" stroke-width="0.609939" stroke-linecap="round" stroke-linejoin="round"/>
</g>
<defs>
<clipPath id="clip0_201_10454">
<rect width="9.75902" height="9.75902" fill="white" transform="translate(0.151367 0.692139)"/>
</clipPath>
</defs>
</svg>
