<svg width="10" height="11" viewBox="0 0 10 11" fill="none" xmlns="http://www.w3.org/2000/svg">
<g clip-path="url(#clip0_201_10493)">
<path d="M6.59608 9.84134H4.89702V8.97008C4.89729 8.8895 4.88123 8.80971 4.84981 8.73551C4.81839 8.66131 4.77227 8.59424 4.71423 8.53836C4.56804 8.39426 4.35532 8.31325 4.13155 8.31649C3.93249 8.31836 3.74047 8.39038 3.58927 8.51987C3.49016 8.60755 3.37217 8.75927 3.37217 8.98533V9.84134H1.6876C1.40652 9.84103 1.13705 9.72924 0.938295 9.53049C0.739543 9.33174 0.627752 9.06226 0.627449 8.78119V7.09661H1.49871C1.6733 7.09661 1.84313 7.02189 1.97694 6.88695C2.05138 6.81191 2.11025 6.72289 2.15016 6.62502C2.19007 6.52715 2.21023 6.42235 2.20948 6.31665C2.20376 5.91276 1.87134 5.57177 1.48346 5.57177H0.627449V3.86889C0.6269 3.73011 0.654542 3.59266 0.708702 3.46488C0.762861 3.3371 0.842409 3.22165 0.942521 3.12553C1.14245 2.93268 1.40982 2.82557 1.6876 2.82704H2.89299V2.55104C2.89299 2.38517 2.92603 2.22096 2.99018 2.068C3.05432 1.91503 3.1483 1.77638 3.26661 1.66012C3.38492 1.54387 3.52521 1.45234 3.67927 1.39089C3.83334 1.32943 3.99811 1.29928 4.16395 1.30219C4.84041 1.31401 5.39069 1.88125 5.39069 2.56648V2.82704H6.59608C6.73381 2.82556 6.87045 2.8516 6.99798 2.90362C7.12552 2.95565 7.24138 3.03262 7.33878 3.13001C7.43617 3.22741 7.51314 3.34327 7.56516 3.4708C7.61719 3.59834 7.64323 3.73498 7.64175 3.8727V5.0781H7.90211C8.59935 5.0781 9.16659 5.63085 9.16659 6.31017C9.16659 7.00798 8.6064 7.5758 7.91774 7.5758H7.64175V8.78119C7.64175 9.36578 7.17267 9.84134 6.59608 9.84134Z" fill="black"/>
</g>
<defs>
<clipPath id="clip0_201_10493">
<rect width="9.75902" height="9.75902" fill="white" transform="translate(0.0175781 0.692139)"/>
</clipPath>
</defs>
</svg>
