<svg width="11" height="11" viewBox="0 0 11 11" fill="none" xmlns="http://www.w3.org/2000/svg">
<path d="M8.49264 5.38304H7.96543C7.95532 5.38304 7.94562 5.37902 7.93847 5.37187C7.93132 5.36472 7.92731 5.35502 7.92731 5.34491V3.87267C7.92731 3.67623 7.84927 3.48783 7.71036 3.34892C7.57145 3.21002 7.38306 3.13198 7.18661 3.13198H5.71437C5.70426 3.13198 5.69457 3.12796 5.68742 3.12081C5.68027 3.11367 5.67625 3.10397 5.67625 3.09386V2.56664C5.67625 2.04934 5.26645 1.61628 4.74914 1.60732C4.62381 1.60512 4.49929 1.6279 4.38286 1.67434C4.26642 1.72077 4.1604 1.78993 4.07098 1.87777C3.98155 1.96561 3.91052 2.07039 3.86202 2.18598C3.81352 2.30157 3.78852 2.42566 3.78849 2.55101V3.09386C3.78849 3.10397 3.78447 3.11367 3.77733 3.12081C3.77018 3.12796 3.76048 3.13198 3.75037 3.13198H2.27813C2.07803 3.13258 1.8863 3.21234 1.7448 3.35383C1.60331 3.49533 1.52355 3.68706 1.52295 3.88716V5.22864C1.52295 5.23875 1.52697 5.24845 1.53411 5.2556C1.54126 5.26275 1.55096 5.26677 1.56107 5.26677H2.07399C2.6338 5.26677 3.09716 5.75243 3.10498 6.31224C3.11298 6.88158 2.65686 7.40155 2.08924 7.40155H1.56107C1.55096 7.40155 1.54126 7.40557 1.53411 7.41272C1.52697 7.41987 1.52295 7.42956 1.52295 7.43967V8.78116C1.52355 8.98126 1.60331 9.17299 1.7448 9.31448C1.8863 9.45598 2.07803 9.53573 2.27813 9.53634H3.61961C3.62972 9.53634 3.63942 9.53232 3.64657 9.52517C3.65372 9.51802 3.65773 9.50833 3.65773 9.49822V9.09928C3.65773 8.52212 4.12948 8.02521 4.70607 8.01168C5.27979 7.99834 5.79252 8.3988 5.79252 8.97005V9.49822C5.79252 9.50833 5.79654 9.51802 5.80369 9.52517C5.81083 9.53232 5.82053 9.53634 5.83064 9.53634H7.18661C7.38306 9.53634 7.57145 9.4583 7.71036 9.31939C7.84927 9.18049 7.92731 8.99209 7.92731 8.79564V7.30892C7.92731 7.29881 7.93132 7.28911 7.93847 7.28196C7.94562 7.27481 7.95532 7.2708 7.96543 7.2708H8.50827C9.03492 7.2708 9.45215 6.83869 9.45215 6.31014C9.45215 5.78159 9.00995 5.38304 8.49264 5.38304Z" stroke="black" stroke-width="0.609939" stroke-linecap="round" stroke-linejoin="round"/>
</svg>
