<svg width="11" height="11" viewBox="0 0 11 11" fill="none" xmlns="http://www.w3.org/2000/svg">
<g clip-path="url(#clip0_201_10518)">
<path d="M5.35367 6.79156C6.02739 6.79156 6.57354 6.2454 6.57354 5.57168C6.57354 4.89796 6.02739 4.35181 5.35367 4.35181C4.67995 4.35181 4.13379 4.89796 4.13379 5.57168C4.13379 6.2454 4.67995 6.79156 5.35367 6.79156Z" fill="black"/>
<path d="M7.99983 3.38313C7.1665 2.81169 6.27465 2.52197 5.34926 2.52197C4.51651 2.52197 3.70472 2.76976 2.93638 3.25542C2.16157 3.74623 1.40201 4.6377 0.779297 5.57167C1.28288 6.41033 1.97173 7.27263 2.68917 7.76707C3.5122 8.33393 4.4071 8.62136 5.34926 8.62136C6.28323 8.62136 7.17622 8.33412 8.0044 7.76764C8.73347 7.26806 9.42727 6.4069 9.92838 5.57167C9.42556 4.74387 8.72947 3.88366 7.99983 3.38313ZM5.35384 7.40148C4.99193 7.40148 4.63816 7.29417 4.33725 7.0931C4.03633 6.89204 3.8018 6.60626 3.66331 6.27191C3.52481 5.93755 3.48858 5.56964 3.55918 5.21469C3.62978 4.85974 3.80406 4.5337 4.05996 4.27779C4.31587 4.02189 4.64191 3.84761 4.99686 3.77701C5.35181 3.70641 5.71972 3.74264 6.05408 3.88114C6.38843 4.01963 6.67421 4.25416 6.87527 4.55507C7.07634 4.85599 7.18365 5.20976 7.18365 5.57167C7.1831 6.05679 6.99014 6.52189 6.6471 6.86493C6.30406 7.20797 5.83896 7.40093 5.35384 7.40148Z" fill="black"/>
</g>
<defs>
<clipPath id="clip0_201_10518">
<rect width="9.75902" height="9.75902" fill="white" transform="translate(0.474121 0.692139)"/>
</clipPath>
</defs>
</svg>
