<svg width="11" height="11" viewBox="0 0 11 11" fill="none" xmlns="http://www.w3.org/2000/svg">
<g clip-path="url(#clip0_201_10509)">
<path d="M8.88963 9.23135C8.84958 9.23141 8.80991 9.22355 8.77291 9.2082C8.73591 9.19286 8.70231 9.17034 8.67406 9.14195L1.96473 2.43263C1.90995 2.37497 1.87987 2.29819 1.88088 2.21867C1.8819 2.13914 1.91395 2.06316 1.97018 2.00693C2.02642 1.95069 2.1024 1.91865 2.18192 1.91763C2.26145 1.91661 2.33822 1.9467 2.39588 2.00148L9.10521 8.7108C9.14783 8.75345 9.17685 8.80778 9.18861 8.86692C9.20037 8.92606 9.19433 8.98736 9.17126 9.04307C9.14819 9.09877 9.10912 9.14639 9.05899 9.17991C9.00887 9.21342 8.94993 9.23132 8.88963 9.23135Z" fill="black"/>
<path d="M5.38219 6.71243L4.39504 5.72529C4.38939 5.71968 4.38211 5.71598 4.37425 5.71472C4.36638 5.71345 4.35832 5.71468 4.35119 5.71824C4.34406 5.72179 4.33823 5.72749 4.3345 5.73453C4.33078 5.74157 4.32935 5.74961 4.33043 5.7575C4.37028 6.0136 4.49053 6.2504 4.6738 6.43367C4.85708 6.61695 5.09387 6.7372 5.34998 6.77705C5.35787 6.77812 5.3659 6.7767 5.37294 6.77298C5.37999 6.76925 5.38568 6.76341 5.38924 6.75629C5.39279 6.74916 5.39402 6.74109 5.39276 6.73323C5.3915 6.72536 5.3878 6.71809 5.38219 6.71243Z" fill="black"/>
<path d="M5.68742 4.43091L6.67609 5.4192C6.68173 5.42489 6.68902 5.42865 6.69693 5.42996C6.70483 5.43127 6.71295 5.43005 6.72012 5.42649C6.7273 5.42292 6.73317 5.41719 6.7369 5.41009C6.74063 5.403 6.74203 5.39492 6.7409 5.38699C6.70115 5.13053 6.58081 4.89339 6.3973 4.70989C6.2138 4.52638 5.97665 4.40604 5.7202 4.36629C5.71226 4.36507 5.70414 4.36638 5.69699 4.37005C5.68984 4.37372 5.68403 4.37955 5.68039 4.38672C5.67676 4.39388 5.67548 4.40201 5.67674 4.40995C5.678 4.41789 5.68174 4.42522 5.68742 4.43091Z" fill="black"/>
<path d="M10.0139 5.90256C10.077 5.80351 10.1103 5.68844 10.11 5.57101C10.1097 5.45357 10.0756 5.33869 10.012 5.24001C9.50762 4.46005 8.85327 3.79751 8.11982 3.32385C7.30727 2.7993 6.41142 2.52197 5.52853 2.52197C5.06309 2.52261 4.60082 2.5985 4.1596 2.7467C4.14725 2.7508 4.13616 2.758 4.12738 2.76761C4.1186 2.77722 4.11243 2.78891 4.10945 2.80158C4.10647 2.81425 4.10678 2.82747 4.11035 2.83998C4.11393 2.8525 4.12065 2.86389 4.12987 2.87307L5.03029 3.77349C5.03964 3.78286 5.05128 3.78964 5.06404 3.79314C5.07681 3.79665 5.09027 3.79678 5.1031 3.7935C5.40831 3.71913 5.72753 3.72458 6.03002 3.80933C6.33251 3.89408 6.60809 4.05529 6.83022 4.27742C7.05235 4.49955 7.21355 4.77513 7.2983 5.07762C7.38306 5.38011 7.38851 5.69932 7.31413 6.00453C7.31089 6.01733 7.31103 6.03076 7.31454 6.04349C7.31805 6.05622 7.3248 6.06782 7.33414 6.07715L8.62931 7.37327C8.64278 7.38677 8.66083 7.39473 8.67988 7.39558C8.69894 7.39642 8.71762 7.3901 8.73224 7.37785C9.23078 6.95291 9.6628 6.45561 10.0139 5.90256Z" fill="black"/>
<path d="M5.5345 7.40147C5.2575 7.40149 4.98411 7.33862 4.73495 7.2176C4.48579 7.09658 4.26735 6.92057 4.09611 6.70284C3.92488 6.48511 3.8053 6.23135 3.74641 5.96068C3.68752 5.69001 3.69085 5.40951 3.75615 5.14032C3.75939 5.12751 3.75924 5.11409 3.75574 5.10136C3.75223 5.08863 3.74547 5.07703 3.73613 5.0677L2.46212 3.79311C2.44862 3.77959 2.43052 3.77163 2.41142 3.77082C2.39232 3.77001 2.37362 3.7764 2.35901 3.78873C1.89412 4.18538 1.46316 4.66799 1.06918 5.232C1.00021 5.33098 0.962232 5.44823 0.96006 5.56885C0.957888 5.68947 0.991623 5.80801 1.05698 5.90941C1.56037 6.69719 2.20805 7.36068 2.93025 7.82786C3.74395 8.3545 4.61807 8.62135 5.5284 8.62135C5.99854 8.62009 6.46562 8.54582 6.91296 8.4012C6.92542 8.39722 6.93665 8.3901 6.94556 8.38053C6.95448 8.37096 6.96078 8.35925 6.96386 8.34654C6.96694 8.33383 6.9667 8.32054 6.96316 8.30795C6.95962 8.29535 6.9529 8.28388 6.94365 8.27464L6.03884 7.37002C6.02951 7.36069 6.01791 7.35393 6.00518 7.35042C5.99245 7.34691 5.97902 7.34677 5.96622 7.35001C5.82487 7.38426 5.67994 7.40154 5.5345 7.40147Z" fill="black"/>
</g>
<defs>
<clipPath id="clip0_201_10509">
<rect width="9.75902" height="9.75902" fill="white" transform="translate(0.655273 0.692139)"/>
</clipPath>
</defs>
</svg>
