<svg width="11" height="11" viewBox="0 0 11 11" fill="none" xmlns="http://www.w3.org/2000/svg">
<g clip-path="url(#clip0_201_10497)">
<path d="M9.07079 9.23135C9.03073 9.23141 8.99106 9.22355 8.95406 9.2082C8.91706 9.19286 8.88347 9.17034 8.85521 9.14195L2.14588 2.43263C2.09111 2.37497 2.06102 2.29819 2.06204 2.21867C2.06305 2.13914 2.0951 2.06316 2.15134 2.00693C2.20757 1.95069 2.28355 1.91865 2.36308 1.91763C2.4426 1.91661 2.51938 1.9467 2.57704 2.00148L9.28636 8.7108C9.32898 8.75345 9.35801 8.80778 9.36976 8.86692C9.38152 8.92606 9.37548 8.98736 9.35241 9.04307C9.32934 9.09877 9.29027 9.14639 9.24014 9.17991C9.19002 9.21342 9.13108 9.23132 9.07079 9.23135Z" fill="black"/>
<path d="M5.70955 8.0115C4.91873 8.0115 4.15612 7.77744 3.44287 7.31579C2.79347 6.89646 2.20889 6.29586 1.75219 5.58128V5.57975C2.13226 5.03519 2.54855 4.57469 2.99571 4.20339C2.99975 4.20001 3.00305 4.19582 3.0054 4.1911C3.00774 4.18638 3.00908 4.18122 3.00933 4.17595C3.00959 4.17069 3.00874 4.16543 3.00685 4.1605C3.00497 4.15558 3.00208 4.1511 2.99838 4.14735L2.61869 3.76823C2.61194 3.76143 2.60288 3.75742 2.59331 3.757C2.58374 3.75657 2.57436 3.75977 2.56703 3.76595C2.09204 4.16622 1.65117 4.65722 1.25033 5.23209C1.18137 5.33107 1.14338 5.44832 1.14121 5.56894C1.13904 5.68956 1.17278 5.8081 1.23813 5.9095C1.74152 6.69727 2.38939 7.36077 3.11141 7.82795C3.92434 8.35459 4.79922 8.62144 5.70955 8.62144C6.20093 8.61991 6.68882 8.53894 7.15435 8.38166C7.16049 8.37958 7.166 8.37596 7.17035 8.37115C7.17471 8.36635 7.17776 8.36051 7.17923 8.3542C7.1807 8.34788 7.18053 8.34129 7.17875 8.33506C7.17696 8.32882 7.17361 8.32315 7.16902 8.31857L6.7577 7.90724C6.74823 7.898 6.73652 7.89139 6.72372 7.88805C6.71092 7.88471 6.69747 7.88475 6.68469 7.88818C6.36614 7.97021 6.0385 8.01164 5.70955 8.0115Z" fill="black"/>
<path d="M10.1921 5.24001C9.68771 4.46005 9.03336 3.79751 8.29991 3.32385C7.4885 2.7993 6.59266 2.52197 5.70939 2.52197C5.22322 2.52284 4.74067 2.60551 4.28194 2.76652C4.27583 2.76865 4.27036 2.77229 4.26605 2.77712C4.26173 2.78194 4.25872 2.78779 4.25729 2.7941C4.25586 2.80041 4.25606 2.80698 4.25787 2.8132C4.25968 2.81941 4.26305 2.82506 4.26764 2.82961L4.6784 3.24037C4.68796 3.24977 4.69984 3.25648 4.71282 3.25982C4.7258 3.26317 4.73944 3.26303 4.75236 3.25943C5.06437 3.17502 5.38616 3.13215 5.70939 3.13191C6.48496 3.13191 7.24529 3.36883 7.96902 3.83715C8.63061 4.26411 9.22206 4.86414 9.6799 5.57167C9.68024 5.5721 9.68042 5.57264 9.68042 5.57319C9.68042 5.57374 9.68024 5.57428 9.6799 5.57472C9.34756 6.09792 8.93515 6.5657 8.45773 6.96099C8.45365 6.96436 8.4503 6.96855 8.44792 6.97328C8.44554 6.97801 8.44417 6.98319 8.4439 6.98848C8.44364 6.99377 8.44447 6.99906 8.44636 7.004C8.44825 7.00895 8.45115 7.01346 8.45487 7.01722L8.83418 7.39634C8.84089 7.40311 8.8499 7.40713 8.85943 7.40759C8.86896 7.40804 8.87831 7.40491 8.88564 7.39881C9.39533 6.96967 9.83651 6.46523 10.194 5.90294C10.2571 5.80385 10.2906 5.68871 10.2902 5.5712C10.2899 5.45368 10.2558 5.33873 10.1921 5.24001Z" fill="black"/>
<path d="M5.71602 3.74194C5.57896 3.74187 5.44232 3.75721 5.30869 3.78769C5.30194 3.78909 5.2957 3.7923 5.29063 3.79696C5.28555 3.80163 5.28184 3.80759 5.27989 3.8142C5.27793 3.82081 5.2778 3.82783 5.27952 3.8345C5.28124 3.84118 5.28473 3.84727 5.28963 3.85211L7.43566 5.99757C7.44051 6.00247 7.4466 6.00597 7.45327 6.00768C7.45995 6.0094 7.46697 6.00927 7.47358 6.00732C7.48019 6.00536 7.48614 6.00165 7.49081 5.99658C7.49548 5.99151 7.49869 5.98526 7.50009 5.97851C7.56119 5.71053 7.56113 5.43222 7.49992 5.16426C7.43871 4.89631 7.31791 4.64558 7.14651 4.43071C6.97511 4.21583 6.75751 4.04233 6.50986 3.92309C6.26221 3.80385 5.99088 3.74194 5.71602 3.74194Z" fill="black"/>
<path d="M3.9963 5.14595C3.99145 5.14105 3.98536 5.13756 3.97869 5.13584C3.97201 5.13413 3.96499 5.13425 3.95838 5.13621C3.95177 5.13817 3.94582 5.14188 3.94115 5.14695C3.93648 5.15202 3.93327 5.15826 3.93187 5.16501C3.86275 5.467 3.87143 5.78159 3.9571 6.07931C4.04277 6.37702 4.20262 6.64811 4.42168 6.86717C4.64074 7.08623 4.91183 7.24609 5.20955 7.33176C5.50726 7.41743 5.82185 7.42611 6.12384 7.35698C6.13059 7.35558 6.13683 7.35238 6.14191 7.34771C6.14698 7.34304 6.15069 7.33708 6.15264 7.33047C6.1546 7.32386 6.15473 7.31684 6.15301 7.31017C6.1513 7.30349 6.1478 7.29741 6.1429 7.29256L3.9963 5.14595Z" fill="black"/>
</g>
<defs>
<clipPath id="clip0_201_10497">
<rect width="9.75902" height="9.75902" fill="white" transform="translate(0.836426 0.692139)"/>
</clipPath>
</defs>
</svg>
