<svg width="11" height="11" viewBox="0 0 11 11" fill="none" xmlns="http://www.w3.org/2000/svg">
<g clip-path="url(#clip0_201_10524)">
<path d="M5.29669 4.58472L1.62734 8.25331C1.39023 8.4908 1.20801 9.53628 1.20801 9.53628C1.20801 9.53628 2.24452 9.36302 2.49098 9.11694L6.15995 5.44797" stroke="black" stroke-width="0.609939" stroke-linecap="round" stroke-linejoin="round"/>
<path d="M7.45446 5.01623L5.72808 3.28985C5.48966 3.05143 5.10314 3.0514 4.86476 3.28978C4.62638 3.52817 4.62641 3.91469 4.86483 4.15311L6.59121 5.87949C6.82962 6.11791 7.21615 6.11794 7.45453 5.87956C7.69291 5.64117 7.69288 5.25465 7.45446 5.01623Z" stroke="black" stroke-width="0.609939" stroke-linecap="round" stroke-linejoin="round"/>
<path d="M5.81934 3.37979C5.81934 3.37979 6.21141 3.54314 6.52877 3.22578L7.57081 1.87953C7.92343 1.50956 8.50974 1.52329 8.86579 1.87953C9.22184 2.23558 9.23442 2.80988 8.86579 3.17432L7.51859 4.21636C7.22029 4.51466 7.36458 4.92579 7.36458 4.92579" stroke="black" stroke-width="0.609939" stroke-linecap="round" stroke-linejoin="round"/>
<path d="M2.49067 9.11693C2.49067 9.11693 1.98595 9.44744 1.64133 9.10302C1.29672 8.75859 1.62704 8.2533 1.62704 8.2533" stroke="black" stroke-width="0.609939" stroke-linecap="round" stroke-linejoin="round"/>
</g>
<defs>
<clipPath id="clip0_201_10524">
<rect width="9.75902" height="9.75902" fill="white" transform="translate(0.292969 0.692139)"/>
</clipPath>
</defs>
</svg>
