<svg width="10" height="11" viewBox="0 0 10 11" fill="none" xmlns="http://www.w3.org/2000/svg">
<g clip-path="url(#clip0_201_10531)">
<path d="M8.89962 1.66428C8.66834 1.43337 8.35518 1.3032 8.02836 1.30212H8.01388C7.85551 1.30332 7.69902 1.33642 7.55374 1.39946C7.40846 1.46251 7.27739 1.55419 7.16835 1.66904C7.16105 1.67654 7.15423 1.6845 7.14795 1.69287L6.11868 3.02253C6.01156 3.15786 5.87585 3.18798 5.79885 3.11097L5.76263 3.07476C5.59096 2.90308 5.35812 2.80664 5.11533 2.80664C4.87255 2.80664 4.63971 2.90308 4.46804 3.07476C4.29636 3.24643 4.19992 3.47927 4.19992 3.72206C4.19992 3.96484 4.29636 4.19768 4.46804 4.36935L4.65693 4.55824C4.66047 4.56178 4.66328 4.56599 4.6652 4.57062C4.66712 4.57525 4.66811 4.58021 4.66811 4.58522C4.66811 4.59022 4.66712 4.59519 4.6652 4.59981C4.66328 4.60444 4.66047 4.60865 4.65693 4.61219L1.23059 8.03776C1.14101 8.12677 1.00568 8.31356 0.852242 8.9073C0.774856 9.20674 0.728157 9.47264 0.726251 9.48369C0.718575 9.52753 0.720585 9.57251 0.73214 9.61549C0.743696 9.65846 0.764517 9.69839 0.793142 9.73246C0.821768 9.76654 0.857504 9.79393 0.897842 9.81273C0.93818 9.83153 0.982144 9.84127 1.02665 9.84127C1.04351 9.84129 1.06034 9.83989 1.07697 9.83707C1.08802 9.83517 1.3522 9.79076 1.65126 9.71432C2.24347 9.56298 2.4337 9.42384 2.52519 9.33311L5.95171 5.90621C5.95885 5.89911 5.96852 5.89512 5.97859 5.89512C5.98866 5.89512 5.99832 5.89911 6.00546 5.90621L6.19454 6.09529C6.36624 6.26696 6.59911 6.3634 6.84191 6.36338C7.08471 6.36336 7.31756 6.26689 7.48923 6.0952C7.66091 5.9235 7.75734 5.69063 7.75733 5.44783C7.75731 5.20503 7.66084 4.97218 7.48914 4.8005L7.45883 4.77115C7.36353 4.67585 7.4108 4.54033 7.54117 4.44445L8.87065 3.41632C8.88045 3.40846 8.8898 3.40006 8.89867 3.39116C9.01292 3.27937 9.10378 3.14596 9.16596 2.9987C9.22814 2.85144 9.26038 2.69328 9.26082 2.53344C9.2613 2.37184 9.22961 2.21177 9.1676 2.06254C9.10559 1.91332 9.01449 1.77793 8.89962 1.66428ZM4.89175 6.10349C4.8361 6.15914 4.58335 6.25445 4.44592 6.11702C4.3085 5.97959 4.40323 5.7278 4.45908 5.67196L5.08808 5.04296C5.09162 5.03941 5.09582 5.0366 5.10045 5.03468C5.10508 5.03276 5.11004 5.03177 5.11505 5.03177C5.12006 5.03177 5.12502 5.03276 5.12965 5.03468C5.13427 5.0366 5.13848 5.03941 5.14202 5.04296L5.52018 5.42093C5.52372 5.42447 5.52654 5.42867 5.52845 5.4333C5.53037 5.43793 5.53136 5.44289 5.53136 5.4479C5.53136 5.45291 5.53037 5.45787 5.52845 5.4625C5.52654 5.46712 5.52372 5.47133 5.52018 5.47487L4.89175 6.10349Z" fill="black"/>
</g>
<defs>
<clipPath id="clip0_201_10531">
<rect width="9.75902" height="9.75902" fill="white" transform="translate(0.111816 0.692139)"/>
</clipPath>
</defs>
</svg>
