<svg width="11" height="11" viewBox="0 0 11 11" fill="none" xmlns="http://www.w3.org/2000/svg">
<path d="M9.85116 2.52618C9.85171 2.36455 9.82005 2.20442 9.75803 2.05516C9.69602 1.9059 9.60488 1.77048 9.48996 1.65683C9.25867 1.42592 8.94552 1.29575 8.6187 1.29468H8.60421C8.44651 1.2958 8.29065 1.32859 8.14586 1.39109C8.00108 1.45359 7.87032 1.54455 7.76135 1.65854L6.3341 3.0858L5.68832 2.44041L5.03893 3.08675L4.39373 3.73481L5.23239 4.57348L1.31201 8.49501V9.84126H2.65826L6.57902 5.9203L7.4114 6.7523L7.62698 6.53901C7.62907 6.5371 7.82559 6.34249 8.06137 6.10671L8.70657 5.45865L8.0606 4.81269L9.489 3.3841C9.6033 3.2723 9.69418 3.13886 9.75636 2.99156C9.81854 2.84427 9.85076 2.68606 9.85116 2.52618ZM5.37192 6.26453L4.88873 5.78135L5.66412 5.00577L6.14787 5.48953L5.37192 6.26453Z" fill="black"/>
</svg>
