<svg width="11" height="11" viewBox="0 0 11 11" fill="none" xmlns="http://www.w3.org/2000/svg">
<g clip-path="url(#clip0_201_10546)">
<path d="M9.48056 2.5219H7.7449L7.91493 1.8422L8.64533 1.59345C8.80067 1.54066 8.89312 1.37559 8.84832 1.21777C8.83693 1.17807 8.81758 1.1411 8.79147 1.1091C8.76535 1.0771 8.73301 1.05073 8.6964 1.03161C8.65979 1.01248 8.61968 1.001 8.57849 0.99784C8.53731 0.994684 8.49591 0.999927 8.45682 1.01325L7.56097 1.31822C7.51273 1.33467 7.46937 1.36295 7.43488 1.40048C7.40038 1.438 7.37584 1.48358 7.3635 1.53303L7.11629 2.5219H4.61821C4.45409 2.5219 4.31324 2.64808 4.30504 2.81219C4.30305 2.85342 4.30946 2.89463 4.32387 2.93332C4.33828 2.972 4.36039 3.00736 4.38887 3.03725C4.41735 3.06713 4.4516 3.09093 4.48955 3.10719C4.52749 3.12345 4.56835 3.13183 4.60963 3.13183H4.66205L4.68111 3.2969C4.68559 3.33545 4.7041 3.371 4.73309 3.3968C4.76208 3.42259 4.79955 3.43683 4.83836 3.4368C5.58172 3.4368 6.24236 3.64456 6.7467 4.03759C7.02722 4.25374 7.25463 4.53115 7.41154 4.84862C7.49937 5.0272 7.56419 5.2162 7.60443 5.4111C7.61244 5.44908 7.63493 5.48244 7.66714 5.50412C7.92643 5.68005 8.1177 5.93942 8.20918 6.23911C8.30065 6.53881 8.28681 6.86078 8.16996 7.15152C8.15636 7.18517 8.15535 7.22259 8.1671 7.25693C8.23462 7.45043 8.26916 7.65391 8.26926 7.85886C8.26926 8.28467 8.1244 8.69047 7.86137 9.00154C7.71224 9.17908 7.52464 9.32033 7.3128 9.41459C7.27615 9.43073 7.24733 9.46065 7.23256 9.49788C7.15339 9.7041 7.04161 9.89627 6.90147 10.067C6.89564 10.074 6.8919 10.0824 6.8907 10.0914C6.8895 10.1004 6.89087 10.1095 6.89468 10.1177C6.89848 10.1259 6.90454 10.1329 6.91216 10.1378C6.91978 10.1427 6.92863 10.1453 6.93769 10.1454H7.87566C8.10531 10.1444 8.32629 10.0576 8.49509 9.90184C8.66389 9.74613 8.76828 9.53286 8.78771 9.30403L9.43958 3.13183H9.48914C9.53045 3.13188 9.57135 3.12354 9.60934 3.1073C9.64733 3.09106 9.68162 3.06728 9.71014 3.03739C9.73866 3.00749 9.76081 2.97212 9.77525 2.93341C9.78968 2.8947 9.7961 2.85346 9.79411 2.81219C9.7861 2.64808 9.64467 2.5219 9.48056 2.5219Z" fill="black"/>
<path d="M2.41175 6.79148C2.47189 6.79119 2.5315 6.80284 2.58712 6.82574C2.64274 6.84864 2.69327 6.88235 2.73578 6.9249L3.0314 7.22053C3.03849 7.22762 3.04689 7.23324 3.05615 7.23708C3.06541 7.24092 3.07533 7.24289 3.08535 7.24289C3.09537 7.24289 3.10529 7.24092 3.11454 7.23708C3.1238 7.23324 3.13221 7.22762 3.13929 7.22053L3.43435 6.9249C3.47686 6.88235 3.52738 6.84864 3.583 6.82574C3.63862 6.80284 3.69823 6.79119 3.75838 6.79148H7.50531C7.52533 6.79168 7.5452 6.78793 7.56378 6.78046C7.58235 6.77298 7.59928 6.76191 7.61358 6.7479C7.62788 6.73388 7.63928 6.71718 7.64713 6.69876C7.65497 6.68033 7.65912 6.66054 7.65932 6.64052V6.63899C7.6591 6.4633 7.59832 6.29305 7.48721 6.15694C7.37611 6.02084 7.22147 5.9272 7.04938 5.89182C7.03375 5.32591 6.80159 4.85225 6.37254 4.51946C5.97569 4.20991 5.44543 4.04675 4.83835 4.04675H3.46599C2.16567 4.04675 1.28488 4.78573 1.25496 5.89182C1.08286 5.9272 0.928229 6.02084 0.817123 6.15694C0.706017 6.29305 0.645234 6.4633 0.64502 6.63899C0.64502 6.67943 0.661085 6.71822 0.689681 6.74682C0.718278 6.77541 0.757063 6.79148 0.797504 6.79148H2.41175Z" fill="black"/>
<path d="M3.88418 7.40137C3.86415 7.40135 3.84431 7.40529 3.8258 7.41294C3.80729 7.42059 3.79046 7.43182 3.77629 7.44597L3.35429 7.86816C3.2828 7.93963 3.18586 7.97978 3.08477 7.97978C2.98369 7.97978 2.88675 7.93963 2.81526 7.86816L2.39326 7.44597C2.37909 7.43182 2.36226 7.42059 2.34375 7.41294C2.32524 7.40529 2.3054 7.40135 2.28537 7.40137H0.962569C0.890931 7.40105 0.821487 7.42607 0.766516 7.47201C0.711544 7.51795 0.674586 7.58184 0.662174 7.6524C0.650723 7.72061 0.644985 7.78966 0.64502 7.85882C0.64502 8.44189 1.04777 8.91688 1.54582 8.92622C1.59214 9.21441 1.70422 9.47478 1.8729 9.67854C2.12241 9.97989 2.48513 10.1461 2.89417 10.1461H5.41017C5.81921 10.1461 6.18193 9.97989 6.43143 9.67816C6.60012 9.4744 6.71219 9.21403 6.75851 8.92584C7.25657 8.91688 7.65932 8.44189 7.65932 7.85844C7.65935 7.78928 7.65361 7.72023 7.64216 7.65202C7.62967 7.58153 7.59268 7.51773 7.53771 7.47186C7.48275 7.426 7.41335 7.40104 7.34177 7.40137H3.88418Z" fill="black"/>
</g>
<defs>
<clipPath id="clip0_201_10546">
<rect width="9.75902" height="9.75902" fill="white" transform="translate(0.339844 0.692139)"/>
</clipPath>
</defs>
</svg>
