<svg width="11" height="11" viewBox="0 0 11 11" fill="none" xmlns="http://www.w3.org/2000/svg">
<g clip-path="url(#clip0_201_10542)">
<path d="M8.25014 7.40137H4.44488L3.6634 8.06849L2.88191 7.40137H1.23584V7.85882C1.23584 8.44188 1.63859 8.91687 2.13664 8.92621C2.18296 9.21441 2.29504 9.47478 2.46372 9.67854C2.71323 9.97988 3.07595 10.1461 3.48499 10.1461H6.00099C6.41003 10.1461 6.77275 9.97988 7.02225 9.67815C7.19094 9.4744 7.30302 9.21403 7.34933 8.92583C7.61389 8.92107 7.85158 8.78478 8.01645 8.57073C8.17044 8.36554 8.25256 8.11535 8.25014 7.85882V7.40137Z" fill="black"/>
<path d="M2.93223 6.79148L3.66282 7.3288L4.3999 6.79148H8.25014V6.63899C8.24992 6.4633 8.18914 6.29305 8.07803 6.15694C7.96693 6.02084 7.81229 5.9272 7.6402 5.89182C7.62457 5.32591 7.39241 4.85225 6.96336 4.51946C6.56651 4.20991 6.03625 4.04675 5.42917 4.04675H4.05681C2.75649 4.04675 1.8757 4.78573 1.84578 5.89182C1.67368 5.9272 1.51905 6.02084 1.40794 6.15694C1.29684 6.29305 1.23605 6.4633 1.23584 6.63899V6.79148H2.93223Z" fill="black"/>
<path d="M9.75748 2.52192H8.33575L8.50577 1.84222L9.35569 1.54983L9.16508 0.99707L7.98332 1.37828L7.70714 2.52192H4.89551V3.13186H5.25289L5.28835 3.43683H5.4292C6.17257 3.43683 6.83321 3.64459 7.33755 4.03762C7.61807 4.25376 7.84547 4.53117 8.00238 4.84864C8.09908 5.0456 8.16791 5.25505 8.2069 5.47097C8.49093 5.64585 8.70155 5.91817 8.79938 6.23704C8.89722 6.55591 8.87558 6.8995 8.7385 7.20358C8.81881 7.41273 8.86003 7.63484 8.86011 7.85888C8.86011 8.2847 8.71525 8.6905 8.45221 9.00156C8.28943 9.19548 8.08093 9.34582 7.84551 9.439C7.76529 9.66763 7.64576 9.88049 7.49232 10.068C7.46983 10.0951 7.44677 10.1216 7.42313 10.1471H8.86011C9.16508 10.1471 9.2985 9.99462 9.33662 9.70871L10.0304 3.13281H10.385V2.52192H9.75748Z" fill="black"/>
</g>
<defs>
<clipPath id="clip0_201_10542">
<rect width="9.75902" height="9.75902" fill="white" transform="translate(0.930664 0.692139)"/>
</clipPath>
</defs>
</svg>
