<svg width="10" height="11" viewBox="0 0 10 11" fill="none" xmlns="http://www.w3.org/2000/svg">
<g clip-path="url(#clip0_201_10555)">
<path d="M8.35476 4.31361C8.35476 2.48494 6.86689 0.99707 5.03822 0.99707C3.20955 0.99707 1.72168 2.48494 1.72168 4.31361C1.72168 6.00028 2.9873 7.39704 4.61889 7.60366V8.20197H3.51337V9.04064H4.61889V10.1462H5.45755V9.04064H6.56307V8.20197H5.45755V7.60366C7.08914 7.39704 8.35476 6.00028 8.35476 4.31361ZM2.56035 4.31361C2.56035 2.94735 3.67196 1.83574 5.03822 1.83574C6.40448 1.83574 7.5161 2.94735 7.5161 4.31361C7.5161 5.67988 6.40448 6.79149 5.03822 6.79149C3.67196 6.79149 2.56035 5.67988 2.56035 4.31361Z" fill="black"/>
</g>
<defs>
<clipPath id="clip0_201_10555">
<rect width="9.75902" height="9.75902" fill="white" transform="translate(0.158691 0.692139)"/>
</clipPath>
</defs>
</svg>
