<svg width="11" height="11" viewBox="0 0 11 11" fill="none" xmlns="http://www.w3.org/2000/svg">
<g clip-path="url(#clip0_201_10557)">
<path d="M8.76443 4.31361C8.76443 2.48494 7.27656 0.99707 5.44789 0.99707C3.61922 0.99707 2.13135 2.48494 2.13135 4.31361C2.13135 6.00028 3.39697 7.39704 5.02856 7.60366V8.20197H4.34238C4.23116 8.20197 4.1245 8.24615 4.04586 8.32479C3.96722 8.40343 3.92304 8.51009 3.92304 8.62131C3.92304 8.73252 3.96722 8.83918 4.04586 8.91782C4.1245 8.99646 4.23116 9.04064 4.34238 9.04064H5.02856V9.72682C5.02856 9.83803 5.07274 9.94469 5.15138 10.0233C5.23002 10.102 5.33668 10.1462 5.44789 10.1462C5.5591 10.1462 5.66576 10.102 5.7444 10.0233C5.82304 9.94469 5.86722 9.83803 5.86722 9.72682V9.04064H6.5534C6.66462 9.04064 6.77128 8.99646 6.84992 8.91782C6.92856 8.83918 6.97274 8.73252 6.97274 8.62131C6.97274 8.51009 6.92856 8.40343 6.84992 8.32479C6.77128 8.24615 6.66462 8.20197 6.5534 8.20197H5.86722V7.60366C7.49881 7.39704 8.76443 6.00028 8.76443 4.31361ZM2.97001 4.31361C2.97001 2.94735 4.08163 1.83574 5.44789 1.83574C6.81415 1.83574 7.92577 2.94735 7.92577 4.31361C7.92577 5.67988 6.81415 6.79149 5.44789 6.79149C4.08163 6.79149 2.97001 5.67988 2.97001 4.31361Z" fill="black"/>
</g>
<defs>
<clipPath id="clip0_201_10557">
<rect width="9.75902" height="9.75902" fill="white" transform="translate(0.568359 0.692139)"/>
</clipPath>
</defs>
</svg>
