<svg width="11" height="11" viewBox="0 0 11 11" fill="none" xmlns="http://www.w3.org/2000/svg">
<g clip-path="url(#clip0_201_10559)">
<path d="M8.29693 2.21692H3.41742C2.92185 2.21692 2.59782 2.48377 2.50252 2.97934L1.89258 5.87655V8.01134C1.89328 8.25377 1.9899 8.48607 2.16133 8.6575C2.33275 8.82892 2.56505 8.92554 2.80749 8.92625H8.90687C9.14931 8.92554 9.38161 8.82892 9.55303 8.6575C9.72446 8.48607 9.82108 8.25377 9.82178 8.01134V5.87655L9.21184 2.97934C9.11654 2.46471 8.77345 2.21692 8.29693 2.21692Z" stroke="black" stroke-width="0.609939" stroke-linejoin="round"/>
<path d="M1.89258 5.87659H4.6373" stroke="black" stroke-width="0.609939" stroke-linecap="round" stroke-linejoin="round"/>
<path d="M7.07666 5.87659H9.82138" stroke="black" stroke-width="0.609939" stroke-linecap="round" stroke-linejoin="round"/>
<path d="M4.63721 5.87659C4.63721 6.20012 4.76573 6.5104 4.9945 6.73917C5.22327 6.96794 5.53355 7.09646 5.85708 7.09646C6.18062 7.09646 6.4909 6.96794 6.71967 6.73917C6.94844 6.5104 7.07696 6.20012 7.07696 5.87659" stroke="black" stroke-width="0.609939" stroke-linecap="round" stroke-linejoin="round"/>
<path d="M3.72217 3.43677H7.99174" stroke="black" stroke-width="0.609939" stroke-linecap="round" stroke-linejoin="round"/>
<path d="M3.41748 4.65662H8.29699" stroke="black" stroke-width="0.609939" stroke-linecap="round" stroke-linejoin="round"/>
</g>
<defs>
<clipPath id="clip0_201_10559">
<rect width="9.75902" height="9.75902" fill="white" transform="translate(0.977539 0.692139)"/>
</clipPath>
</defs>
</svg>
