<svg width="11" height="10" viewBox="0 0 11 10" fill="none" xmlns="http://www.w3.org/2000/svg">
<path d="M9.92378 5.22311L9.31384 2.32953C9.19604 1.69824 8.7424 1.32141 8.10044 1.32141H3.22093C2.90071 1.32141 2.63005 1.41081 2.41848 1.58712C2.20691 1.76343 2.06834 2.01236 2.00715 2.32838L1.39721 5.22311C1.39309 5.24383 1.39105 5.2649 1.39111 5.28601V7.4208C1.39111 7.74433 1.51964 8.05461 1.74841 8.28338C1.97718 8.51215 2.28746 8.64068 2.61099 8.64068H8.71038C9.03391 8.64068 9.34419 8.51215 9.57296 8.28338C9.80173 8.05461 9.93026 7.74433 9.93026 7.4208V5.28601C9.9302 5.26488 9.92803 5.24381 9.92378 5.22311ZM2.60451 2.4517C2.60451 2.4498 2.60451 2.44808 2.60451 2.44637C2.67218 2.09508 2.86774 1.93173 3.21998 1.93173H8.10044C8.45516 1.93173 8.65072 2.0947 8.71553 2.44465C8.71553 2.44713 8.71648 2.44961 8.71686 2.45209L9.23016 4.88955C9.23249 4.90066 9.23231 4.91214 9.22963 4.92317C9.22695 4.9342 9.22185 4.94449 9.21469 4.95329C9.20753 4.96209 9.1985 4.96919 9.18825 4.97405C9.178 4.97892 9.16679 4.98144 9.15544 4.98143H6.88056C6.80015 4.98102 6.72286 5.01255 6.66568 5.06909C6.6085 5.12563 6.5761 5.20255 6.57559 5.28296C6.57559 5.52561 6.4792 5.75832 6.30762 5.9299C6.13605 6.10148 5.90333 6.19787 5.66069 6.19787C5.41804 6.19787 5.18533 6.10148 5.01375 5.9299C4.84217 5.75832 4.74578 5.52561 4.74578 5.28296C4.74558 5.24311 4.73753 5.20369 4.7221 5.16696C4.70666 5.13022 4.68414 5.09688 4.65582 5.06884C4.6275 5.04081 4.59394 5.01862 4.55705 5.00356C4.52016 4.98849 4.48066 4.98084 4.44081 4.98104H2.16593C2.15458 4.98106 2.14337 4.97854 2.13313 4.97367C2.12288 4.9688 2.11384 4.96171 2.10668 4.95291C2.09952 4.9441 2.09442 4.93381 2.09174 4.92279C2.08907 4.91176 2.08888 4.90028 2.09121 4.88917L2.60451 2.4517Z" fill="black"/>
</svg>
