<svg width="11" height="10" viewBox="0 0 11 10" fill="none" xmlns="http://www.w3.org/2000/svg">
<path d="M9.7491 1.62634H1.20996V8.33567H9.7491V1.62634ZM2.73481 6.81082V7.72573H1.8199V6.81082H2.73481ZM2.73481 5.28598V6.20088H1.8199V5.28598H2.73481ZM2.73481 3.76113V4.67604H1.8199V3.76113H2.73481ZM2.73481 2.23628V3.15119H1.8199V2.23628H2.73481ZM7.61432 5.28598H3.34475V4.67604H7.61432V5.28598ZM9.13916 6.81082V7.72573H8.22426V6.81082H9.13916ZM9.13916 5.28598V6.20088H8.22426V5.28598H9.13916ZM9.13916 3.76113V4.67604H8.22426V3.76113H9.13916ZM9.13916 2.23628V3.15119H8.22426V2.23628H9.13916Z" fill="black"/>
</svg>
