<svg width="10" height="10" viewBox="0 0 10 10" fill="none" xmlns="http://www.w3.org/2000/svg">
<g clip-path="url(#clip0_201_10612)">
<path d="M8.32011 1.62634H1.45829C1.23594 1.6266 1.02277 1.71504 0.865547 1.87226C0.708321 2.02949 0.619881 2.24266 0.619629 2.46501V7.497C0.619881 7.71935 0.708321 7.93253 0.865547 8.08975C1.02277 8.24698 1.23594 8.33542 1.45829 8.33567H8.32011C8.54246 8.33542 8.75563 8.24698 8.91285 8.08975C9.07008 7.93253 9.15852 7.71935 9.15877 7.497V2.46501C9.15852 2.24266 9.07008 2.02949 8.91285 1.87226C8.75563 1.71504 8.54246 1.6266 8.32011 1.62634ZM2.14448 7.497C2.14448 7.55767 2.12038 7.61584 2.07748 7.65874C2.03459 7.70163 1.97641 7.72573 1.91575 7.72573H1.45829C1.39763 7.72573 1.33945 7.70163 1.29656 7.65874C1.25367 7.61584 1.22957 7.55767 1.22957 7.497V7.03955C1.22957 6.97889 1.25367 6.92071 1.29656 6.87781C1.33945 6.83492 1.39763 6.81082 1.45829 6.81082H1.91575C1.97641 6.81082 2.03459 6.83492 2.07748 6.87781C2.12038 6.92071 2.14448 6.97889 2.14448 7.03955V7.497ZM2.14448 5.97216C2.14448 6.03282 2.12038 6.091 2.07748 6.13389C2.03459 6.17679 1.97641 6.20088 1.91575 6.20088H1.45829C1.39763 6.20088 1.33945 6.17679 1.29656 6.13389C1.25367 6.091 1.22957 6.03282 1.22957 5.97216V5.5147C1.22957 5.45404 1.25367 5.39586 1.29656 5.35297C1.33945 5.31007 1.39763 5.28598 1.45829 5.28598H1.91575C1.97641 5.28598 2.03459 5.31007 2.07748 5.35297C2.12038 5.39586 2.14448 5.45404 2.14448 5.5147V5.97216ZM2.14448 4.44731C2.14448 4.50797 2.12038 4.56615 2.07748 4.60904C2.03459 4.65194 1.97641 4.67604 1.91575 4.67604H1.45829C1.39763 4.67604 1.33945 4.65194 1.29656 4.60904C1.25367 4.56615 1.22957 4.50797 1.22957 4.44731V3.98986C1.22957 3.92919 1.25367 3.87102 1.29656 3.82812C1.33945 3.78523 1.39763 3.76113 1.45829 3.76113H1.91575C1.97641 3.76113 2.03459 3.78523 2.07748 3.82812C2.12038 3.87102 2.14448 3.92919 2.14448 3.98986V4.44731ZM2.14448 2.92246C2.14448 2.98312 2.12038 3.0413 2.07748 3.0842C2.03459 3.12709 1.97641 3.15119 1.91575 3.15119H1.45829C1.39763 3.15119 1.33945 3.12709 1.29656 3.0842C1.25367 3.0413 1.22957 2.98312 1.22957 2.92246V2.46501C1.22957 2.40435 1.25367 2.34617 1.29656 2.30327C1.33945 2.26038 1.39763 2.23628 1.45829 2.23628H1.91575C1.97641 2.23628 2.03459 2.26038 2.07748 2.30327C2.12038 2.34617 2.14448 2.40435 2.14448 2.46501V2.92246ZM6.75104 5.28598H3.02736C2.94648 5.28598 2.86891 5.25385 2.81172 5.19665C2.75452 5.13946 2.72239 5.06189 2.72239 4.98101C2.72239 4.90012 2.75452 4.82255 2.81172 4.76536C2.86891 4.70817 2.94648 4.67604 3.02736 4.67604H6.75104C6.83192 4.67604 6.90949 4.70817 6.96668 4.76536C7.02388 4.82255 7.05601 4.90012 7.05601 4.98101C7.05601 5.06189 7.02388 5.13946 6.96668 5.19665C6.90949 5.25385 6.83192 5.28598 6.75104 5.28598ZM8.54883 7.497C8.54883 7.55767 8.52473 7.61584 8.48184 7.65874C8.43895 7.70163 8.38077 7.72573 8.32011 7.72573H7.86265C7.80199 7.72573 7.74381 7.70163 7.70092 7.65874C7.65802 7.61584 7.63392 7.55767 7.63392 7.497V7.03955C7.63392 6.97889 7.65802 6.92071 7.70092 6.87781C7.74381 6.83492 7.80199 6.81082 7.86265 6.81082H8.32011C8.38077 6.81082 8.43895 6.83492 8.48184 6.87781C8.52473 6.92071 8.54883 6.97889 8.54883 7.03955V7.497ZM8.54883 5.97216C8.54883 6.03282 8.52473 6.091 8.48184 6.13389C8.43895 6.17679 8.38077 6.20088 8.32011 6.20088H7.86265C7.80199 6.20088 7.74381 6.17679 7.70092 6.13389C7.65802 6.091 7.63392 6.03282 7.63392 5.97216V5.5147C7.63392 5.45404 7.65802 5.39586 7.70092 5.35297C7.74381 5.31007 7.80199 5.28598 7.86265 5.28598H8.32011C8.38077 5.28598 8.43895 5.31007 8.48184 5.35297C8.52473 5.39586 8.54883 5.45404 8.54883 5.5147V5.97216ZM8.54883 4.44731C8.54883 4.50797 8.52473 4.56615 8.48184 4.60904C8.43895 4.65194 8.38077 4.67604 8.32011 4.67604H7.86265C7.80199 4.67604 7.74381 4.65194 7.70092 4.60904C7.65802 4.56615 7.63392 4.50797 7.63392 4.44731V3.98986C7.63392 3.92919 7.65802 3.87102 7.70092 3.82812C7.74381 3.78523 7.80199 3.76113 7.86265 3.76113H8.32011C8.38077 3.76113 8.43895 3.78523 8.48184 3.82812C8.52473 3.87102 8.54883 3.92919 8.54883 3.98986V4.44731ZM8.54883 2.92246C8.54883 2.98312 8.52473 3.0413 8.48184 3.0842C8.43895 3.12709 8.38077 3.15119 8.32011 3.15119H7.86265C7.80199 3.15119 7.74381 3.12709 7.70092 3.0842C7.65802 3.0413 7.63392 2.98312 7.63392 2.92246V2.46501C7.63392 2.40435 7.65802 2.34617 7.70092 2.30327C7.74381 2.26038 7.80199 2.23628 7.86265 2.23628H8.32011C8.38077 2.23628 8.43895 2.26038 8.48184 2.30327C8.52473 2.34617 8.54883 2.40435 8.54883 2.46501V2.92246Z" fill="black"/>
</g>
<defs>
<clipPath id="clip0_201_10612">
<rect width="9.75902" height="9.75902" fill="white" transform="translate(0.00976562 0.101562)"/>
</clipPath>
</defs>
</svg>
