<svg width="10" height="10" viewBox="0 0 10 10" fill="none" xmlns="http://www.w3.org/2000/svg">
<g clip-path="url(#clip0_201_10598)">
<path d="M8.50146 1.9314H1.63965C1.3449 1.9314 1.10596 2.17034 1.10596 2.46509V7.49709C1.10596 7.79184 1.3449 8.03078 1.63965 8.03078H8.50146C8.79622 8.03078 9.03516 7.79184 9.03516 7.49709V2.46509C9.03516 2.17034 8.79622 1.9314 8.50146 1.9314Z" stroke="black" stroke-width="0.609939" stroke-linejoin="round"/>
<path d="M8.5014 6.50598H8.04395C7.7492 6.50598 7.51025 6.74493 7.51025 7.03968V7.49713C7.51025 7.79188 7.7492 8.03083 8.04395 8.03083H8.5014C8.79616 8.03083 9.0351 7.79188 9.0351 7.49713V7.03968C9.0351 6.74493 8.79616 6.50598 8.5014 6.50598Z" stroke="black" stroke-width="0.609939" stroke-linejoin="round"/>
<path d="M8.5014 4.98108H8.04395C7.7492 4.98108 7.51025 5.22002 7.51025 5.51478V5.97223C7.51025 6.26698 7.7492 6.50593 8.04395 6.50593H8.5014C8.79616 6.50593 9.0351 6.26698 9.0351 5.97223V5.51478C9.0351 5.22002 8.79616 4.98108 8.5014 4.98108Z" stroke="black" stroke-width="0.609939" stroke-linejoin="round"/>
<path d="M8.5014 3.45618H8.04395C7.7492 3.45618 7.51025 3.69512 7.51025 3.98987V4.44733C7.51025 4.74208 7.7492 4.98102 8.04395 4.98102H8.5014C8.79616 4.98102 9.0351 4.74208 9.0351 4.44733V3.98987C9.0351 3.69512 8.79616 3.45618 8.5014 3.45618Z" stroke="black" stroke-width="0.609939" stroke-linejoin="round"/>
<path d="M8.5014 1.9314H8.04395C7.7492 1.9314 7.51025 2.17034 7.51025 2.46509V2.92255C7.51025 3.2173 7.7492 3.45624 8.04395 3.45624H8.5014C8.79616 3.45624 9.0351 3.2173 9.0351 2.92255V2.46509C9.0351 2.17034 8.79616 1.9314 8.5014 1.9314Z" stroke="black" stroke-width="0.609939" stroke-linejoin="round"/>
<path d="M2.09711 6.50598H1.63965C1.3449 6.50598 1.10596 6.74493 1.10596 7.03968V7.49713C1.10596 7.79188 1.3449 8.03083 1.63965 8.03083H2.09711C2.39186 8.03083 2.6308 7.79188 2.6308 7.49713V7.03968C2.6308 6.74493 2.39186 6.50598 2.09711 6.50598Z" stroke="black" stroke-width="0.609939" stroke-linejoin="round"/>
<path d="M2.09711 4.98108H1.63965C1.3449 4.98108 1.10596 5.22002 1.10596 5.51478V5.97223C1.10596 6.26698 1.3449 6.50593 1.63965 6.50593H2.09711C2.39186 6.50593 2.6308 6.26698 2.6308 5.97223V5.51478C2.6308 5.22002 2.39186 4.98108 2.09711 4.98108Z" stroke="black" stroke-width="0.609939" stroke-linejoin="round"/>
<path d="M2.09711 3.45618H1.63965C1.3449 3.45618 1.10596 3.69512 1.10596 3.98987V4.44733C1.10596 4.74208 1.3449 4.98102 1.63965 4.98102H2.09711C2.39186 4.98102 2.6308 4.74208 2.6308 4.44733V3.98987C2.6308 3.69512 2.39186 3.45618 2.09711 3.45618Z" stroke="black" stroke-width="0.609939" stroke-linejoin="round"/>
<path d="M2.09711 1.9314H1.63965C1.3449 1.9314 1.10596 2.17034 1.10596 2.46509V2.92255C1.10596 3.2173 1.3449 3.45624 1.63965 3.45624H2.09711C2.39186 3.45624 2.6308 3.2173 2.6308 2.92255V2.46509C2.6308 2.17034 2.39186 1.9314 2.09711 1.9314Z" stroke="black" stroke-width="0.609939" stroke-linejoin="round"/>
<path d="M6.97667 1.9314H3.16456C2.8698 1.9314 2.63086 2.17034 2.63086 2.46509V4.44739C2.63086 4.74215 2.8698 4.98109 3.16456 4.98109H6.97667C7.27143 4.98109 7.51037 4.74215 7.51037 4.44739V2.46509C7.51037 2.17034 7.27143 1.9314 6.97667 1.9314Z" stroke="black" stroke-width="0.609939" stroke-linejoin="round"/>
<path d="M6.97667 4.98108H3.16456C2.8698 4.98108 2.63086 5.22002 2.63086 5.51478V7.49708C2.63086 7.79183 2.8698 8.03077 3.16456 8.03077H6.97667C7.27143 8.03077 7.51037 7.79183 7.51037 7.49708V5.51478C7.51037 5.22002 7.27143 4.98108 6.97667 4.98108Z" stroke="black" stroke-width="0.609939" stroke-linejoin="round"/>
</g>
<defs>
<clipPath id="clip0_201_10598">
<rect width="9.75902" height="9.75902" fill="white" transform="translate(0.190918 0.101562)"/>
</clipPath>
</defs>
</svg>
