<svg width="11" height="10" viewBox="0 0 11 10" fill="none" xmlns="http://www.w3.org/2000/svg">
<g clip-path="url(#clip0_201_10631)">
<path d="M9.46311 3.3037H1.22894C1.10761 3.3037 0.991259 3.25551 0.90547 3.16972C0.81968 3.08393 0.771484 2.96757 0.771484 2.84625C0.771484 2.72492 0.81968 2.60857 0.90547 2.52278C0.991259 2.43699 1.10761 2.38879 1.22894 2.38879H9.46311C9.58444 2.38879 9.70079 2.43699 9.78658 2.52278C9.87237 2.60857 9.92057 2.72492 9.92057 2.84625C9.92057 2.96757 9.87237 3.08393 9.78658 3.16972C9.70079 3.25551 9.58444 3.3037 9.46311 3.3037Z" fill="black"/>
<path d="M7.93783 5.43847H2.75335C2.63203 5.43847 2.51567 5.39027 2.42988 5.30448C2.34409 5.21869 2.2959 5.10234 2.2959 4.98101C2.2959 4.85969 2.34409 4.74333 2.42988 4.65754C2.51567 4.57176 2.63203 4.52356 2.75335 4.52356H7.93783C8.05916 4.52356 8.17551 4.57176 8.2613 4.65754C8.34709 4.74333 8.39529 4.85969 8.39529 4.98101C8.39529 5.10234 8.34709 5.21869 8.2613 5.30448C8.17551 5.39027 8.05916 5.43847 7.93783 5.43847Z" fill="black"/>
<path d="M6.10828 7.57336H4.58343C4.46211 7.57336 4.34575 7.52516 4.25996 7.43937C4.17417 7.35358 4.12598 7.23723 4.12598 7.1159C4.12598 6.99458 4.17417 6.87822 4.25996 6.79243C4.34575 6.70664 4.46211 6.65845 4.58343 6.65845H6.10828C6.2296 6.65845 6.34596 6.70664 6.43175 6.79243C6.51754 6.87822 6.56573 6.99458 6.56573 7.1159C6.56573 7.23723 6.51754 7.35358 6.43175 7.43937C6.34596 7.52516 6.2296 7.57336 6.10828 7.57336Z" fill="black"/>
</g>
<defs>
<clipPath id="clip0_201_10631">
<rect width="9.75902" height="9.75902" fill="white" transform="translate(0.466309 0.101562)"/>
</clipPath>
</defs>
</svg>
