<svg width="10" height="10" viewBox="0 0 10 10" fill="none" xmlns="http://www.w3.org/2000/svg">
<g clip-path="url(#clip0_201_10621)">
<path d="M5.11792 1.01648C2.93186 1.01648 1.15332 2.79502 1.15332 4.98108C1.15332 7.16714 2.93186 8.94568 5.11792 8.94568C7.30398 8.94568 9.08252 7.16714 9.08252 4.98108C9.08252 2.79502 7.30398 1.01648 5.11792 1.01648ZM5.72786 6.8109H4.50798C4.4271 6.8109 4.34953 6.77877 4.29234 6.72157C4.23514 6.66438 4.20301 6.58681 4.20301 6.50593C4.20301 6.42505 4.23514 6.34748 4.29234 6.29028C4.34953 6.23309 4.4271 6.20096 4.50798 6.20096H5.72786C5.80874 6.20096 5.88631 6.23309 5.94351 6.29028C6.0007 6.34748 6.03283 6.42505 6.03283 6.50593C6.03283 6.58681 6.0007 6.66438 5.94351 6.72157C5.88631 6.77877 5.80874 6.8109 5.72786 6.8109ZM6.64277 5.59102H3.59308C3.51219 5.59102 3.43462 5.55889 3.37743 5.5017C3.32024 5.4445 3.28811 5.36693 3.28811 5.28605C3.28811 5.20517 3.32024 5.1276 3.37743 5.07041C3.43462 5.01321 3.51219 4.98108 3.59308 4.98108H6.64277C6.72365 4.98108 6.80122 5.01321 6.85842 5.07041C6.91561 5.1276 6.94774 5.20517 6.94774 5.28605C6.94774 5.36693 6.91561 5.4445 6.85842 5.5017C6.80122 5.55889 6.72365 5.59102 6.64277 5.59102ZM7.25271 4.37114H2.98314C2.90225 4.37114 2.82468 4.33901 2.76749 4.28182C2.7103 4.22463 2.67817 4.14706 2.67817 4.06617C2.67817 3.98529 2.7103 3.90772 2.76749 3.85053C2.82468 3.79333 2.90225 3.7612 2.98314 3.7612H7.25271C7.33359 3.7612 7.41116 3.79333 7.46835 3.85053C7.52555 3.90772 7.55768 3.98529 7.55768 4.06617C7.55768 4.14706 7.52555 4.22463 7.46835 4.28182C7.41116 4.33901 7.33359 4.37114 7.25271 4.37114Z" fill="black"/>
</g>
<defs>
<clipPath id="clip0_201_10621">
<rect width="9.75902" height="9.75902" fill="white" transform="translate(0.238281 0.101562)"/>
</clipPath>
</defs>
</svg>
