<svg width="11" height="10" viewBox="0 0 11 10" fill="none" xmlns="http://www.w3.org/2000/svg">
<g clip-path="url(#clip0_201_10635)">
<path d="M8.31758 1.53643C8.28193 1.53652 8.24691 1.52704 8.21618 1.50898C7.37027 1.0561 6.63891 0.863971 5.76213 0.863971C4.88972 0.863971 4.06135 1.07897 3.30788 1.50898C3.20134 1.56921 3.07001 1.52728 3.00825 1.41673C2.98069 1.36337 2.97447 1.30152 2.99086 1.24374C3.00725 1.18596 3.04502 1.13659 3.0965 1.10566C3.90913 0.64477 4.82791 0.403792 5.76213 0.406517C6.70048 0.406517 7.52008 0.62152 8.41898 1.10185C8.47143 1.13068 8.51048 1.17893 8.52776 1.23623C8.54504 1.29353 8.53918 1.35532 8.51143 1.40834C8.49474 1.44599 8.46761 1.47806 8.43325 1.50076C8.3989 1.52347 8.35875 1.53584 8.31758 1.53643ZM2.01253 3.93806C1.96675 3.93774 1.92217 3.92337 1.88482 3.89689C1.83623 3.86078 1.80355 3.80721 1.79366 3.74748C1.78378 3.68775 1.79746 3.62652 1.83183 3.57667C2.26813 2.93624 2.82298 2.43304 3.4842 2.0808C4.86761 1.34049 6.63891 1.33515 8.02671 2.07622C8.68774 2.42846 9.24278 2.92709 9.67908 3.56295C9.7133 3.61284 9.7269 3.67403 9.71703 3.73372C9.70715 3.79341 9.67456 3.84697 9.62609 3.88317C9.60257 3.90075 9.57569 3.91331 9.54712 3.92009C9.51855 3.92686 9.4889 3.9277 9.45999 3.92256C9.43108 3.91741 9.40354 3.90639 9.37906 3.89017C9.35459 3.87395 9.3337 3.85289 9.31769 3.82827C8.92123 3.25188 8.41898 2.799 7.8241 2.48336C6.55962 1.8109 4.94252 1.8109 3.68243 2.48793C3.08316 2.80815 2.58091 3.26561 2.18445 3.84123C2.16736 3.87152 2.1423 3.89656 2.112 3.91363C2.08169 3.9307 2.04729 3.93915 2.01253 3.93806ZM4.76621 9.4603C4.73709 9.46058 4.70825 9.45459 4.68165 9.44276C4.65504 9.43092 4.63129 9.4135 4.61201 9.39168C4.2287 8.99293 4.02094 8.73599 3.72646 8.18324C3.42149 7.62057 3.26385 6.93439 3.26385 6.19789C3.26385 4.83925 4.3829 3.73221 5.75774 3.73221C7.13258 3.73221 8.25239 4.83925 8.25239 6.19789C8.25326 6.22735 8.2482 6.2567 8.23752 6.28418C8.22685 6.31165 8.21076 6.33671 8.19022 6.35786C8.16969 6.37901 8.14511 6.39583 8.11796 6.40731C8.09081 6.41879 8.06163 6.42471 8.03215 6.42471C8.00267 6.42471 7.97348 6.41879 7.94633 6.40731C7.91918 6.39583 7.89461 6.37901 7.87407 6.35786C7.85353 6.33671 7.83745 6.31165 7.82677 6.28418C7.81609 6.2567 7.81103 6.22735 7.8119 6.19789C7.8119 5.09085 6.89089 4.18966 5.7587 4.18966C4.6265 4.18966 3.70454 5.09085 3.70454 6.19789C3.70454 6.85662 3.84539 7.46503 4.11415 7.95908C4.39624 8.48516 4.59066 8.70931 4.92937 9.06612C4.96954 9.11052 4.99178 9.16826 4.99178 9.22814C4.99178 9.28801 4.96954 9.34575 4.92937 9.39015C4.88612 9.43379 4.82763 9.45893 4.76621 9.4603ZM7.9255 8.61401C7.40115 8.61401 6.93855 8.47677 6.55962 8.20687C6.23679 7.98059 5.97305 7.68006 5.79061 7.33057C5.60818 6.98109 5.51238 6.59288 5.51129 6.19865C5.51005 6.16894 5.51484 6.13929 5.52535 6.11148C5.53587 6.08367 5.5519 6.05827 5.57248 6.03682C5.59306 6.01536 5.61777 5.99829 5.64512 5.98663C5.67247 5.97496 5.7019 5.96895 5.73163 5.96895C5.76136 5.96895 5.79079 5.97496 5.81814 5.98663C5.84549 5.99829 5.87019 6.01536 5.89078 6.03682C5.91136 6.05827 5.92739 6.08367 5.93791 6.11148C5.94842 6.13929 5.95321 6.16894 5.95197 6.19865C5.95271 6.51887 6.03081 6.83417 6.17962 7.11772C6.32842 7.40126 6.54354 7.64466 6.80665 7.82718C7.11943 8.04676 7.4852 8.15122 7.92588 8.15122C8.07936 8.14849 8.23236 8.13319 8.38334 8.10547C8.50228 8.0826 8.61683 8.16494 8.63875 8.29303C8.64992 8.35214 8.63719 8.41327 8.60335 8.463C8.56951 8.51274 8.51733 8.54703 8.45825 8.55835C8.28274 8.59303 8.1044 8.6114 7.9255 8.61324V8.61401ZM7.03976 9.5556C7.0204 9.55479 7.00121 9.55172 6.98258 9.54645C6.28191 9.34517 5.82369 9.07527 5.34337 8.5858C4.72637 7.94993 4.38729 7.10364 4.38729 6.19789C4.38729 5.45681 4.99532 4.85297 5.74421 4.85297C6.4931 4.85297 7.10132 5.45681 7.10132 6.19789C7.10132 6.68736 7.51113 7.08535 8.01776 7.08535C8.52439 7.08535 8.93419 6.68736 8.93419 6.19789C8.93419 4.47328 7.50217 3.07347 5.73983 3.07347C4.4885 3.07347 3.34296 3.79625 2.82756 4.91701C2.65601 5.28755 2.56757 5.72213 2.56757 6.19789C2.56757 6.5547 2.59826 7.11737 2.86263 7.8493C2.90685 7.96823 2.84948 8.10089 2.73492 8.14207C2.7077 8.15243 2.67866 8.15719 2.64955 8.15605C2.62044 8.15491 2.59186 8.1479 2.56553 8.13544C2.5392 8.12298 2.51566 8.10532 2.49633 8.08353C2.47699 8.06174 2.46226 8.03627 2.45302 8.00864C2.24043 7.42859 2.13152 6.81567 2.13128 6.19789C2.13128 5.64894 2.23268 5.14955 2.43091 4.71573C3.01702 3.43868 4.31676 2.61145 5.73983 2.61145C7.74462 2.61145 9.37487 4.21711 9.37487 6.19331C9.37487 6.93439 8.76684 7.53823 8.01776 7.53823C7.26867 7.53823 6.66064 6.93439 6.66064 6.19331C6.66083 5.70384 6.25103 5.30509 5.7444 5.30509C5.23777 5.30509 4.82797 5.70307 4.82797 6.19255C4.82797 6.97403 5.11883 7.70672 5.65196 8.25567C6.07129 8.68567 6.47156 8.92279 7.09275 9.10196C7.21168 9.13398 7.27782 9.26207 7.24695 9.381C7.23732 9.42929 7.21158 9.47286 7.17393 9.50459C7.13628 9.53631 7.08897 9.5543 7.03976 9.5556Z" fill="black"/>
</g>
<defs>
<clipPath id="clip0_201_10635">
<rect width="9.75902" height="9.75902" fill="white" transform="translate(0.875977 0.101562)"/>
</clipPath>
</defs>
</svg>
