<svg width="11" height="10" viewBox="0 0 11 10" fill="none" xmlns="http://www.w3.org/2000/svg">
<g clip-path="url(#clip0_201_10637)">
<path d="M1.36755 3.92468L1.60314 4.06764L1.74324 3.80879C2.05907 3.27986 3.02563 2.04569 5.16461 2.04569C7.35658 2.04569 8.29055 3.38603 8.59743 3.82709L8.75296 4.06916L9.24129 3.76114L9.07851 3.50649C8.90926 3.26157 8.55397 2.75303 7.92001 2.30377C7.14977 1.75635 6.22248 1.47864 5.16461 1.47864C2.72352 1.47864 1.60619 2.91028 1.23813 3.52289L1.09766 3.76114L1.31438 3.8919C1.32423 3.8996 1.33461 3.90661 1.34544 3.91287C1.3526 3.91719 1.35998 3.92113 1.36755 3.92468Z" fill="black"/>
<path d="M7.51327 3.38603C6.83585 2.83461 6.02425 2.5426 5.16462 2.5426C3.30583 2.5426 2.0709 3.8006 1.67024 5.0485C1.30333 6.2009 1.74934 7.8708 1.76802 7.94228L1.85151 8.2055L2.42199 8.08294L2.33164 7.79703C2.32764 7.78274 1.91041 6.21634 2.22853 5.21985C2.40007 4.68463 2.75708 4.1639 3.20729 3.79431C3.75051 3.34925 4.42793 3.11309 5.16462 3.11309C6.89113 3.11309 7.86989 4.45895 8.14665 5.17373C8.36146 5.72515 8.3119 6.35205 8.02695 6.73669C7.92154 6.87755 7.7357 7.043 7.45284 7.0287C6.8084 6.99592 6.6969 6.67742 6.54194 6.07091C6.4676 5.7789 6.39136 5.4766 6.20132 5.23224C5.96993 4.93204 5.63332 4.78699 5.16672 4.78699C4.66485 4.78699 4.28478 4.95243 4.0349 5.27723C3.48977 5.9878 3.84429 7.20101 3.85935 7.25209L3.86354 7.26829C3.89042 7.34187 4.55125 9.1105 6.32103 9.54946L6.60255 9.61065L6.75675 9.06342L6.4657 8.99804C5.05102 8.64676 4.46033 7.19891 4.41497 7.08455C4.36383 6.89897 4.33127 6.70876 4.31776 6.51674C4.29717 6.24112 4.31166 5.86124 4.4975 5.61822C4.63378 5.44057 4.85279 5.3548 5.16462 5.3548C5.73243 5.3548 5.82755 5.63251 5.97622 6.20853C6.1207 6.77005 6.31931 7.53991 7.42177 7.59518C7.84511 7.61558 8.22727 7.42764 8.49565 7.06816C8.8984 6.52912 8.97483 5.70399 8.68988 4.96882C8.46725 4.39015 8.03781 3.8149 7.51327 3.38603Z" fill="black"/>
<path d="M3.224 6.64337C3.15786 6.10434 3.25087 5.29007 3.73005 4.76057C4.06247 4.39289 4.54566 4.20781 5.16322 4.20781C5.8778 4.20781 6.41874 4.52651 6.77403 5.15341C6.94889 5.46798 7.06442 5.81203 7.11483 6.16838L7.14209 6.44838L7.71391 6.40645C7.71445 6.30701 7.70808 6.20766 7.69485 6.10911C7.69275 6.08471 7.6268 5.4904 7.29457 4.89399C6.83598 4.07229 6.10081 3.63733 5.16474 3.63733C4.37373 3.63733 3.74378 3.88855 3.29566 4.38279C2.68858 5.05258 2.56469 6.02676 2.64932 6.71485V6.72114C2.80123 7.76052 3.2015 8.59175 3.9096 9.33511L4.13071 9.54897L4.53003 9.13364L4.33294 8.94704C3.70928 8.29364 3.35609 7.56248 3.224 6.64337Z" fill="black"/>
<path d="M2.81032 1.48647C3.02151 1.35838 3.7685 0.976215 5.16488 0.976215C6.83344 0.976215 7.5749 1.52364 7.58309 1.52764L7.84803 1.69651L8.15739 1.216L7.90541 1.05284C7.8955 1.0456 7.8852 1.03835 7.87491 1.03149C7.63322 0.874241 6.77626 0.406494 5.16488 0.406494C3.49307 0.406494 2.63458 0.911218 2.4314 1.04903L2.17236 1.21695L2.48114 1.69747L2.81032 1.48647Z" fill="black"/>
<path d="M7.73027 8.01571C7.09422 8.08719 6.57806 7.96482 6.19189 7.65642C5.53926 7.13359 5.45463 6.22478 5.45253 6.20782L5.42909 5.92419L4.84717 5.9667L4.87214 6.25261C4.87633 6.2995 4.97125 7.41054 5.81792 8.09272C6.23935 8.43371 6.766 8.60526 7.38547 8.60526C7.52281 8.60498 7.66002 8.59677 7.79641 8.58067L8.11263 8.54083L7.99636 7.97454L7.73027 8.01571Z" fill="black"/>
</g>
<defs>
<clipPath id="clip0_201_10637">
<rect width="9.75902" height="9.75902" fill="white" transform="translate(0.285156 0.101562)"/>
</clipPath>
</defs>
</svg>
