<svg width="11" height="10" viewBox="0 0 11 10" fill="none" xmlns="http://www.w3.org/2000/svg">
<g clip-path="url(#clip0_201_10643)">
<path d="M1.90089 3.95175C1.84946 3.95221 1.79883 3.93906 1.75412 3.91363C1.72134 3.8952 1.69255 3.87041 1.66946 3.84073C1.64637 3.81104 1.62943 3.77704 1.61963 3.74073C1.60983 3.70442 1.60737 3.66651 1.6124 3.62924C1.61743 3.59197 1.62984 3.55607 1.64891 3.52365C2.0164 2.91028 3.13449 1.47864 5.57425 1.47864C6.63154 1.47864 7.55883 1.75635 8.32907 2.30377C8.96303 2.75303 9.31832 3.26157 9.48758 3.50649C9.50904 3.53737 9.52412 3.57222 9.53191 3.60901C9.5397 3.64579 9.54006 3.68377 9.53295 3.72069C9.52585 3.75762 9.51143 3.79275 9.49054 3.82402C9.46965 3.85529 9.44272 3.88206 9.41133 3.90276C9.34718 3.94517 9.26903 3.96093 9.19346 3.9467C9.11788 3.93246 9.05082 3.88936 9.00649 3.82652C8.70018 3.38603 7.76621 2.04569 5.57425 2.04569C3.4347 2.04569 2.46737 3.2791 2.1523 3.80803C2.12698 3.8522 2.09033 3.88881 2.04614 3.91408C2.00194 3.93934 1.9518 3.95235 1.90089 3.95175Z" fill="black"/>
<path d="M6.80337 9.55566C6.77904 9.55595 6.75477 9.55319 6.73113 9.54746C4.96135 9.10907 4.30052 7.33986 4.27365 7.26629L4.26945 7.25009C4.25497 7.19901 3.89987 5.9858 4.445 5.27522C4.69489 4.95119 5.07495 4.78498 5.57682 4.78498C6.04342 4.78498 6.38003 4.93003 6.61143 5.23024C6.80203 5.47536 6.87828 5.77766 6.95204 6.0689C7.107 6.67541 7.21889 6.99391 7.86295 7.0267C8.14581 7.04099 8.33165 6.87555 8.43705 6.73469C8.72201 6.35062 8.77156 5.72448 8.55675 5.17172C8.28076 4.45828 7.30123 3.11318 5.57415 3.11318C4.83689 3.11318 4.15947 3.3501 3.61625 3.79536C3.16661 4.16418 2.81037 4.68491 2.63882 5.22014C2.3207 6.21662 2.73794 7.78302 2.74194 7.79732C2.75168 7.83377 2.75402 7.87181 2.74883 7.90919C2.74364 7.94656 2.73102 7.98252 2.71171 8.01494C2.6924 8.04736 2.66679 8.07559 2.6364 8.09795C2.60601 8.12032 2.57145 8.13638 2.53475 8.14517C2.46062 8.16489 2.38171 8.15478 2.31494 8.11701C2.24817 8.07924 2.19885 8.01682 2.17755 7.94313C2.15849 7.87165 1.71286 6.20099 2.08035 5.04935C2.48062 3.80146 3.71593 2.54346 5.57472 2.54346C6.43378 2.54346 7.24538 2.83547 7.9228 3.38689C8.44734 3.81575 8.87583 4.39176 9.09998 4.96758C9.38493 5.70275 9.3085 6.52788 8.90575 7.06692C8.63738 7.4264 8.25521 7.61434 7.83188 7.59394C6.72903 7.53866 6.5308 6.76881 6.38632 6.20728C6.23765 5.63127 6.14254 5.35356 5.57472 5.35356C5.26289 5.35356 5.04389 5.43933 4.9076 5.61698C4.72176 5.86 4.70728 6.23988 4.72786 6.51549C4.74137 6.70752 4.77394 6.89772 4.82507 7.08331C4.87043 7.19767 5.46112 8.64628 6.8758 8.9968C6.91236 9.00546 6.94684 9.0213 6.97723 9.04341C7.00762 9.06551 7.03332 9.09343 7.05282 9.12554C7.07233 9.15766 7.08526 9.19333 7.09087 9.23049C7.09647 9.26765 7.09463 9.30555 7.08547 9.34199C7.0682 9.40351 7.03129 9.45769 6.98035 9.49627C6.92942 9.53485 6.86726 9.5557 6.80337 9.55566Z" fill="black"/>
<path d="M4.53191 9.42486C4.49224 9.42494 4.45296 9.41703 4.41641 9.40161C4.37987 9.38618 4.3468 9.36356 4.31919 9.33508C3.6109 8.59172 3.21024 7.76049 3.05948 6.72111V6.71558C2.97485 6.0275 3.09874 5.05331 3.70582 4.38352C4.15393 3.88928 4.78389 3.63806 5.5749 3.63806C6.51039 3.63806 7.24556 4.07302 7.70397 4.89396C8.03658 5.49037 8.10253 6.08468 8.10424 6.10908C8.10773 6.14669 8.10376 6.18463 8.09257 6.22071C8.08137 6.25679 8.06317 6.29031 8.039 6.31935C8.01483 6.34838 7.98517 6.37237 7.95172 6.38993C7.91827 6.40748 7.88169 6.41827 7.84406 6.42167C7.76815 6.42991 7.69204 6.40796 7.63216 6.36057C7.57228 6.31317 7.53345 6.24414 7.52404 6.16835C7.47383 5.81176 7.35843 5.46745 7.18361 5.15262C6.82833 4.52571 6.28777 4.20702 5.5728 4.20702C4.95524 4.20702 4.47206 4.39286 4.13964 4.75978C3.66046 5.28871 3.56782 6.10355 3.63358 6.64258C3.76567 7.56168 4.11886 8.29285 4.74253 8.94624C4.76855 8.97332 4.78887 9.00536 4.80228 9.04045C4.81568 9.07554 4.82189 9.11296 4.82054 9.1505C4.81918 9.18804 4.8103 9.22492 4.79441 9.25895C4.77852 9.29298 4.75595 9.32348 4.72804 9.34861C4.67429 9.39733 4.60445 9.42448 4.53191 9.42486Z" fill="black"/>
<path d="M7.79496 8.60603C7.17549 8.60603 6.64885 8.43448 6.22742 8.09349C5.38075 7.41131 5.28583 6.30027 5.28163 6.25338C5.27567 6.17641 5.30052 6.10023 5.35073 6.04159C5.40093 5.98295 5.47237 5.94666 5.54934 5.94069C5.6263 5.93473 5.70249 5.95958 5.76113 6.00978C5.81977 6.05999 5.85606 6.13143 5.86203 6.2084C5.86412 6.22479 5.94875 7.1336 6.60139 7.657C6.98756 7.9654 7.50372 8.08777 8.13977 8.01629C8.21579 8.00707 8.29236 8.02832 8.35276 8.0754C8.41316 8.12247 8.45246 8.19154 8.46208 8.26751C8.46624 8.30504 8.46289 8.34302 8.45222 8.37924C8.44155 8.41546 8.42377 8.44919 8.39993 8.47846C8.37608 8.50774 8.34664 8.53197 8.31333 8.54975C8.28002 8.56753 8.2435 8.5785 8.20591 8.58201C8.0695 8.59793 7.93229 8.60595 7.79496 8.60603Z" fill="black"/>
<path d="M8.2846 1.03149C8.04291 0.874241 7.18595 0.406494 5.57457 0.406494C3.88313 0.406494 3.02407 0.923227 2.83404 1.05455C2.82149 1.06226 2.80974 1.0712 2.79897 1.08124C2.79783 1.08234 2.79635 1.08301 2.79477 1.08315C2.76443 1.10964 2.74008 1.1423 2.72335 1.17895C2.70662 1.21559 2.69789 1.25539 2.69775 1.29567C2.69828 1.33343 2.70624 1.37072 2.7212 1.4054C2.73616 1.44008 2.75781 1.47146 2.78492 1.49776C2.81203 1.52405 2.84406 1.54474 2.87918 1.55863C2.9143 1.57252 2.95181 1.57935 2.98957 1.57872C3.0501 1.57868 3.10916 1.56012 3.15883 1.52554C3.16703 1.51944 3.90639 0.976215 5.57514 0.976215C7.24389 0.976215 7.98726 1.51754 7.99526 1.52154C8.04601 1.55917 8.10764 1.57924 8.17081 1.57872C8.2086 1.5793 8.24614 1.57241 8.28126 1.55845C8.31638 1.54448 8.3484 1.52372 8.37548 1.49735C8.40256 1.47098 8.42416 1.43952 8.43905 1.40478C8.45394 1.37004 8.46182 1.3327 8.46225 1.29491C8.46226 1.2383 8.44536 1.18297 8.41371 1.13603C8.38205 1.0891 8.33709 1.05269 8.2846 1.03149Z" fill="black"/>
</g>
<defs>
<clipPath id="clip0_201_10643">
<rect width="9.75902" height="9.75902" fill="white" transform="translate(0.694824 0.101562)"/>
</clipPath>
</defs>
</svg>
