<svg width="11" height="10" viewBox="0 0 11 10" fill="none" xmlns="http://www.w3.org/2000/svg">
<g clip-path="url(#clip0_201_10653)">
<path d="M6.90755 4.98101C6.90731 4.25792 7.09855 3.54767 7.46183 2.92246L7.60707 2.66972C7.30261 2.59726 6.99239 2.55166 6.67996 2.53344C6.26177 2.21131 5.63849 1.82915 4.91991 1.70754L4.47827 1.62634L4.73311 2.80543C3.93886 3.07495 3.23819 3.62237 2.77445 3.999C2.68474 3.92391 2.59083 3.85052 2.49273 3.77885C1.73584 3.2261 0.918328 3.17273 0.884019 3.17082L0.513672 3.15119L0.564564 3.51925C0.570091 3.55737 0.693985 4.37183 1.16783 4.97777C0.693985 5.58389 0.570854 6.39778 0.564564 6.43647L0.513672 6.81082L0.884019 6.7849C0.918328 6.78299 1.73584 6.72982 2.49273 6.17687C2.58905 6.1066 2.68156 6.03436 2.77025 5.96015C3.23476 6.33812 3.93562 6.88649 4.73083 7.15601L4.47827 8.33567L4.91991 8.25523C5.63449 8.13439 6.25567 7.75203 6.67348 7.42953C6.99027 7.41121 7.30483 7.3651 7.61355 7.29172L7.46278 7.0405C7.09908 6.41508 6.90751 5.70449 6.90755 4.98101Z" fill="black"/>
<path d="M10.0362 4.32823C9.92474 4.13991 9.72098 3.85362 9.38456 3.56047C9.03435 3.25887 8.63452 3.02025 8.20281 2.85522L7.9899 3.22748C7.68082 3.75969 7.51788 4.36413 7.51758 4.97958C7.51728 5.59503 7.67963 6.19963 7.98818 6.73215L8.21215 7.10516C8.63936 6.94214 9.03537 6.70688 9.38285 6.40964C9.98783 5.88586 10.2728 5.22884 10.2728 4.98105C10.2728 4.74642 10.1203 4.47137 10.0362 4.32823ZM8.44297 4.98105C8.38265 4.98105 8.32369 4.96317 8.27354 4.92966C8.22338 4.89615 8.1843 4.84852 8.16121 4.79279C8.13813 4.73706 8.13209 4.67574 8.14386 4.61659C8.15563 4.55743 8.18467 4.50309 8.22732 4.46044C8.26997 4.41779 8.32431 4.38874 8.38347 4.37697C8.44263 4.36521 8.50395 4.37125 8.55968 4.39433C8.6154 4.41741 8.66303 4.4565 8.69654 4.50665C8.73005 4.5568 8.74794 4.61577 8.74794 4.67608C8.74794 4.75697 8.71581 4.83454 8.65861 4.89173C8.60142 4.94892 8.52385 4.98105 8.44297 4.98105Z" fill="black"/>
</g>
<defs>
<clipPath id="clip0_201_10653">
<rect width="9.75902" height="9.75902" fill="white" transform="translate(0.513672 0.101562)"/>
</clipPath>
</defs>
</svg>
