<svg width="10" height="10" viewBox="0 0 10 10" fill="none" xmlns="http://www.w3.org/2000/svg">
<g clip-path="url(#clip0_201_10649)">
<path d="M4.67924 2.99879C3.71268 3.23152 2.88468 3.99585 2.38625 4.39841C2.24245 4.26518 2.09091 4.14056 1.93242 4.0252C1.23938 3.51895 0.409668 3.45624 0.409668 3.45624C0.409668 3.45624 0.626387 4.43844 1.19801 4.97785C0.626387 5.51746 0.409668 6.49965 0.409668 6.49965C0.409668 6.49965 1.23938 6.43694 1.93242 5.93069C2.08957 5.81633 2.23984 5.69279 2.38244 5.56072C2.87992 5.96366 3.71172 6.7299 4.67924 6.96339L4.37427 8.03078C5.12583 7.90365 5.87739 7.35394 6.17969 7.11111C8.64384 7.00151 9.55875 5.41948 9.55875 4.98109C9.55875 4.56176 8.64384 2.96067 6.18712 2.85145C5.88997 2.61338 5.13212 2.05948 4.37427 1.9314L4.67924 2.99879Z" stroke="black" stroke-width="0.609939" stroke-linejoin="round"/>
<path d="M8.03349 4.98103C8.20191 4.98103 8.33845 4.84449 8.33845 4.67606C8.33845 4.50763 8.20191 4.37109 8.03349 4.37109C7.86506 4.37109 7.72852 4.50763 7.72852 4.67606C7.72852 4.84449 7.86506 4.98103 8.03349 4.98103Z" fill="black"/>
<path d="M7.31626 6.88719C6.98022 6.30817 6.80322 5.6506 6.80322 4.98113C6.80322 4.31166 6.98022 3.65409 7.31626 3.07507" stroke="black" stroke-width="0.609939" stroke-miterlimit="20" stroke-linecap="round"/>
</g>
<defs>
<clipPath id="clip0_201_10649">
<rect width="9.75902" height="9.75902" fill="white" transform="translate(0.104492 0.101562)"/>
</clipPath>
</defs>
</svg>
