<svg width="11" height="10" viewBox="0 0 11 10" fill="none" xmlns="http://www.w3.org/2000/svg">
<g clip-path="url(#clip0_201_10659)">
<path d="M7.05943 1.62634C5.82201 1.62634 5.21207 2.84622 5.21207 2.84622C5.21207 2.84622 4.60213 1.62634 3.36472 1.62634C2.35909 1.62634 1.56273 2.46768 1.55244 3.4716C1.53147 5.55549 3.20557 7.03745 5.04053 8.28287C5.09112 8.31729 5.15089 8.33569 5.21207 8.33569C5.27326 8.33569 5.33303 8.31729 5.38362 8.28287C7.21839 7.03745 8.89248 5.55549 8.87171 3.4716C8.86141 2.46768 8.06506 1.62634 7.05943 1.62634Z" stroke="black" stroke-width="0.609939" stroke-linecap="round" stroke-linejoin="round"/>
<path d="M1.24756 4.98106H3.38234L4.29725 3.15125L5.21216 6.20094L6.12707 4.37112L6.73701 5.591H9.17676" stroke="black" stroke-width="0.609939" stroke-linecap="round" stroke-linejoin="round"/>
</g>
<defs>
<clipPath id="clip0_201_10659">
<rect width="9.75902" height="9.75902" fill="white" transform="translate(0.33252 0.101562)"/>
</clipPath>
</defs>
</svg>
