<svg width="10" height="10" viewBox="0 0 10 10" fill="none" xmlns="http://www.w3.org/2000/svg">
<g clip-path="url(#clip0_201_10667)">
<path d="M3.84315 3.01475C3.87047 2.96008 3.91358 2.91487 3.96691 2.885C4.02024 2.85512 4.08131 2.84196 4.1422 2.84722C4.2031 2.85248 4.26101 2.87592 4.30842 2.91449C4.35583 2.95307 4.39056 3.005 4.4081 3.06355L5.10191 5.37674L5.67373 4.23463C5.69906 4.18398 5.73799 4.14139 5.78617 4.11162C5.83434 4.08185 5.88985 4.06608 5.94648 4.06608C6.00311 4.06608 6.05863 4.08185 6.1068 4.11162C6.15497 4.14139 6.19391 4.18398 6.21924 4.23463L6.74417 5.28601H8.58847C8.86306 4.7199 9.00238 4.09774 8.99541 3.46859C8.98341 2.28473 8.03362 1.32141 6.87817 1.32141C5.96154 1.32141 5.35332 1.88446 5.03081 2.2935C4.70907 1.88389 4.10008 1.32141 3.18346 1.32141C2.02801 1.32141 1.07822 2.28473 1.06621 3.46859C1.06128 3.87739 1.11868 4.28456 1.23642 4.67607H3.01249L3.84315 3.01475Z" fill="black"/>
<path d="M6.28289 5.72739L5.94571 5.05303L5.30356 6.33733C5.27822 6.38797 5.23928 6.43055 5.19111 6.46031C5.14294 6.49007 5.08743 6.50583 5.0308 6.50583C5.02229 6.50583 5.01352 6.50544 5.0045 6.50468C4.94346 6.49962 4.88536 6.47629 4.83776 6.43774C4.79016 6.39918 4.75528 6.34719 4.73765 6.28853L4.04385 3.97534L3.47203 5.11745C3.44682 5.16783 3.40815 5.21024 3.36031 5.23998C3.31247 5.26973 3.25732 5.28564 3.20099 5.28595H1.47314C1.65104 5.65814 1.88784 6.02448 2.18353 6.38498C2.5413 6.82109 3.18993 7.51832 4.6879 8.53521C4.78892 8.60444 4.90853 8.64149 5.03099 8.64149C5.15346 8.64149 5.27306 8.60444 5.37408 8.53521C6.87206 7.51832 7.52069 6.82109 7.87845 6.38498C8.00732 6.22814 8.12819 6.0649 8.24061 5.89589H6.55565C6.49902 5.89589 6.44352 5.88013 6.39534 5.85037C6.34717 5.82061 6.30823 5.77803 6.28289 5.72739Z" fill="black"/>
<path d="M8.99552 5.28601H8.58858C8.48719 5.49729 8.37094 5.70111 8.24072 5.89595H8.99552C9.0764 5.89595 9.15398 5.86382 9.21117 5.80663C9.26836 5.74943 9.30049 5.67186 9.30049 5.59098C9.30049 5.5101 9.26836 5.43253 9.21117 5.37533C9.15398 5.31814 9.0764 5.28601 8.99552 5.28601Z" fill="black"/>
<path d="M1.0662 4.67603C0.985317 4.67603 0.907747 4.70816 0.850554 4.76535C0.793361 4.82254 0.76123 4.90011 0.76123 4.98099C0.76123 5.06188 0.793361 5.13945 0.850554 5.19664C0.907747 5.25383 0.985317 5.28596 1.0662 5.28596H1.47314C1.37883 5.08897 1.29969 4.88506 1.23641 4.67603H1.0662Z" fill="black"/>
</g>
<defs>
<clipPath id="clip0_201_10667">
<rect width="9.75902" height="9.75902" fill="white" transform="translate(0.151367 0.101562)"/>
</clipPath>
</defs>
</svg>
