<svg width="11" height="10" viewBox="0 0 11 10" fill="none" xmlns="http://www.w3.org/2000/svg">
<path d="M9.89112 5.28601H9.1794C9.07793 5.49725 8.96169 5.70107 8.83154 5.89595H9.89112V5.28601Z" fill="black"/>
<path d="M1.35205 4.67603V5.28596H2.06377C1.96958 5.08896 1.89057 4.88506 1.82742 4.67603H1.35205Z" fill="black"/>
<path d="M6.53672 5.05315L5.55072 7.02516L4.63581 3.97546L3.98051 5.28607H2.06396C2.25457 5.68482 2.51189 6.07537 2.8384 6.46173C3.60311 7.36634 4.63486 7.98181 5.4497 8.52637L5.62124 8.64073L5.79279 8.52637C6.6082 7.98181 7.63995 7.36634 8.40409 6.46173C8.55742 6.28154 8.70023 6.09265 8.83181 5.89601H6.95815L6.53672 5.05315Z" fill="black"/>
<path d="M4.77781 2.32705L5.69272 5.37674L6.53653 3.68912L7.33498 5.28601H9.17947C9.45397 4.71988 9.59321 4.09772 9.58622 3.46859C9.57422 2.28473 8.62443 1.32141 7.46897 1.32141C6.55197 1.32141 5.94222 1.85511 5.62162 2.24032C5.30102 1.85511 4.69128 1.32141 3.77427 1.32141C2.61882 1.32141 1.66903 2.28473 1.65702 3.46859C1.65218 3.8774 1.70964 4.28456 1.82742 4.67607H3.6033L4.77781 2.32705Z" fill="black"/>
</svg>
