<svg width="11" height="10" viewBox="0 0 11 10" fill="none" xmlns="http://www.w3.org/2000/svg">
<g clip-path="url(#clip0_201_10672)">
<path d="M2.08594 8.94556V1.40024C2.08603 1.37356 2.09312 1.34738 2.1065 1.3243C2.11988 1.30122 2.13908 1.28206 2.16218 1.26872C2.31104 1.18142 2.71341 1.01636 3.61078 1.01636C4.83066 1.01636 6.37457 1.93127 7.27042 1.93127C7.77621 1.92995 8.27665 1.82776 8.74247 1.63068C8.74827 1.62826 8.75457 1.62731 8.76083 1.62792C8.76708 1.62853 8.77309 1.63067 8.77831 1.63416C8.78354 1.63765 8.78782 1.64238 8.79078 1.64792C8.79374 1.65347 8.79528 1.65966 8.79526 1.66594V5.84707C8.79522 5.86183 8.79089 5.87627 8.78281 5.88862C8.77472 5.90097 8.76322 5.9107 8.74971 5.91664C8.59265 5.98545 8.03913 6.20084 7.27042 6.20084C6.35551 6.20084 4.83066 5.5909 3.61078 5.5909C2.39091 5.5909 2.08594 5.89587 2.08594 5.89587" stroke="black" stroke-width="0.609939" stroke-miterlimit="10" stroke-linecap="round"/>
</g>
<defs>
<clipPath id="clip0_201_10672">
<rect width="9.75902" height="9.75902" fill="white" transform="translate(0.561035 0.101562)"/>
</clipPath>
</defs>
</svg>
