<svg width="11" height="10" viewBox="0 0 11 10" fill="none" xmlns="http://www.w3.org/2000/svg">
<g clip-path="url(#clip0_201_10674)">
<path d="M2.91424 9.25057H2.18994V1.19499L2.27934 1.10579C2.34509 1.03984 2.73851 0.711426 4.01976 0.711426C4.729 0.711426 5.5223 0.991807 6.22221 1.23902C6.78583 1.43821 7.31819 1.62633 7.67939 1.62633C8.49576 1.62633 9.06548 1.35472 9.07081 1.35186L9.50921 1.13953V6.08441L9.34071 6.16866C9.31307 6.18181 8.6551 6.50584 7.67939 6.50584C7.21927 6.50584 6.64288 6.36975 6.03275 6.22546C5.34695 6.06345 4.63789 5.89591 4.01976 5.89591C3.31699 5.89591 3.07168 6.00226 2.91424 6.06955V9.25057Z" fill="black"/>
</g>
<defs>
<clipPath id="clip0_201_10674">
<rect width="9.75902" height="9.75902" fill="white" transform="translate(0.970215 0.101562)"/>
</clipPath>
</defs>
</svg>
