<svg width="11" height="10" viewBox="0 0 11 10" fill="none" xmlns="http://www.w3.org/2000/svg">
<g clip-path="url(#clip0_201_10676)">
<path d="M1.90458 9.25057C1.8237 9.25057 1.74613 9.21844 1.68893 9.16125C1.63174 9.10405 1.59961 9.02648 1.59961 8.9456V1.40008C1.59963 1.32018 1.62058 1.24167 1.66038 1.17238C1.70017 1.10309 1.75742 1.04543 1.82643 1.00515C2.05706 0.871153 2.52176 0.711426 3.42943 0.711426C4.13867 0.711426 4.93197 0.991807 5.63188 1.23902C6.1955 1.43821 6.72786 1.62633 7.08906 1.62633C7.55403 1.62491 8.01406 1.53096 8.44236 1.34996C8.49452 1.32794 8.55131 1.31917 8.60768 1.32443C8.66404 1.3297 8.71823 1.34882 8.76541 1.38011C8.81259 1.4114 8.85129 1.45388 8.87807 1.50376C8.90485 1.55364 8.91887 1.60937 8.91887 1.66598V5.84711C8.9188 5.92122 8.89712 5.9937 8.8565 6.05568C8.81588 6.11767 8.75807 6.16647 8.69015 6.19611C8.52413 6.26873 7.918 6.50584 7.08906 6.50584C6.62894 6.50584 6.05254 6.36975 5.44241 6.22546C4.75661 6.06345 4.04756 5.89591 3.42943 5.89591C2.72666 5.89591 2.36699 6.00226 2.20955 6.06955V8.9456C2.20955 9.02648 2.17742 9.10405 2.12022 9.16125C2.06303 9.21844 1.98546 9.25057 1.90458 9.25057Z" fill="black"/>
</g>
<defs>
<clipPath id="clip0_201_10676">
<rect width="9.75902" height="9.75902" fill="white" transform="translate(0.379883 0.101562)"/>
</clipPath>
</defs>
</svg>
