<svg width="11" height="10" viewBox="0 0 11 10" fill="none" xmlns="http://www.w3.org/2000/svg">
<g clip-path="url(#clip0_201_10683)">
<path d="M8.12194 3.86722C7.8858 3.2403 7.5415 2.65968 7.10467 2.15177C6.34873 1.27669 5.35472 0.711548 4.57229 0.711548C4.52576 0.711583 4.47986 0.722261 4.4381 0.742767C4.39634 0.763272 4.35982 0.793061 4.33134 0.829852C4.30287 0.866644 4.28319 0.909463 4.27381 0.955032C4.26443 1.0006 4.2656 1.04771 4.27723 1.09276C4.5416 2.10297 3.99361 2.94297 3.41359 3.83215C2.93308 4.56865 2.4375 5.32936 2.4375 6.201C2.4375 7.88252 3.80567 9.25069 5.48719 9.25069C7.16872 9.25069 8.53689 7.88252 8.53689 6.201C8.53689 5.37567 8.39736 4.59057 8.12194 3.86722ZM6.10342 8.08209C5.90653 8.29175 5.65969 8.33578 5.48719 8.33578C5.3147 8.33578 5.06786 8.29175 4.87097 8.08209C4.67407 7.87242 4.57229 7.53981 4.57229 7.1159C4.57229 6.63672 4.7404 6.2719 4.9028 5.91928C4.99715 5.71457 5.0934 5.50624 5.15058 5.28323C5.15666 5.25897 5.1686 5.23658 5.18536 5.21802C5.20213 5.19947 5.2232 5.18532 5.24672 5.17683C5.27024 5.16834 5.29549 5.16576 5.32024 5.16932C5.34499 5.17289 5.36848 5.18248 5.38865 5.19727C5.56298 5.33215 5.71799 5.4903 5.84934 5.6673C6.19568 6.12475 6.4021 6.66646 6.4021 7.1159C6.4021 7.53981 6.29879 7.87394 6.10342 8.08209Z" fill="black"/>
</g>
<defs>
<clipPath id="clip0_201_10683">
<rect width="9.75902" height="9.75902" fill="white" transform="translate(0.60791 0.101685)"/>
</clipPath>
</defs>
</svg>
