<svg width="10" height="10" viewBox="0 0 10 10" fill="none" xmlns="http://www.w3.org/2000/svg">
<g clip-path="url(#clip0_201_10681)">
<path d="M7.71344 3.8671C7.47716 3.2402 7.13279 2.6596 6.69598 2.15164C5.94004 1.27657 4.77353 0.711426 3.85862 0.711426C4.22078 2.04567 3.58491 2.9438 3.0049 3.83298C2.52438 4.56853 2.02881 5.32923 2.02881 6.20087C2.02881 7.8824 3.39698 9.25057 5.0785 9.25057C6.76003 9.25057 8.1282 7.8824 8.1282 6.20087C8.1282 5.37555 7.98867 4.59045 7.71344 3.8671ZM5.69473 8.08196C5.49783 8.29163 5.251 8.33566 5.0785 8.33566C4.906 8.33566 4.65917 8.29163 4.46227 8.08196C4.26538 7.8723 4.16359 7.53969 4.16359 7.11578C4.16359 6.6366 4.33171 6.27178 4.4941 5.91916C4.61762 5.65098 4.77353 5.40033 4.78211 5.07115C4.99749 5.18323 5.23327 5.39347 5.44046 5.66737C5.78679 6.12482 5.99322 6.66652 5.99322 7.11597C5.99341 7.53969 5.8901 7.87382 5.69473 8.08196Z" fill="black"/>
</g>
<defs>
<clipPath id="clip0_201_10681">
<rect width="9.75902" height="9.75902" fill="white" transform="translate(0.19873 0.101562)"/>
</clipPath>
</defs>
</svg>
