<svg width="10" height="10" viewBox="0 0 10 10" fill="none" xmlns="http://www.w3.org/2000/svg">
<g clip-path="url(#clip0_201_10718)">
<path d="M9.05352 7.39736L6.3067 3.03554V1.51221H6.91664V0.71167H3.0664V1.51221H3.67634V3.03554L0.929522 7.39736C0.681734 7.79077 0.647807 8.23088 0.87234 8.6382C1.09687 9.04553 1.47656 9.25081 1.94183 9.25081H8.04122C8.50649 9.25081 8.88598 9.04572 9.11052 8.6382C9.33505 8.23069 9.30188 7.79077 9.05352 7.39736ZM4.38902 3.40665C4.4468 3.31544 4.47735 3.20964 4.47708 3.10168V1.51221H5.50635V3.12455C5.50633 3.2178 5.53276 3.30914 5.58259 3.38797L6.91321 5.49588H3.06984L4.38902 3.40665Z" fill="black"/>
</g>
<defs>
<clipPath id="clip0_201_10718">
<rect width="9.75902" height="9.75902" fill="white" transform="translate(0.111816 0.101685)"/>
</clipPath>
</defs>
</svg>
