<svg width="11" height="10" viewBox="0 0 11 10" fill="none" xmlns="http://www.w3.org/2000/svg">
<g clip-path="url(#clip0_201_10711)">
<path d="M9.09944 4.21877C9.27766 4.04055 9.38802 3.8549 9.42709 3.66697C9.47855 3.42013 9.4025 3.17997 9.21323 2.9907L7.16346 0.941303C6.89394 0.671977 6.43096 0.560472 5.93538 1.05471L5.89726 1.09283C5.88308 1.107 5.87184 1.12381 5.86416 1.14232C5.85649 1.16084 5.85254 1.18068 5.85254 1.20072C5.85254 1.22076 5.85649 1.2406 5.86416 1.25911C5.87184 1.27762 5.88308 1.29444 5.89726 1.3086L8.84479 4.25689C8.85897 4.27118 8.87583 4.28253 8.89441 4.29027C8.91299 4.29801 8.93292 4.302 8.95305 4.302C8.97318 4.302 8.99311 4.29801 9.0117 4.29027C9.03028 4.28253 9.04714 4.27118 9.06132 4.25689L9.09944 4.21877Z" fill="black"/>
<path d="M5.06075 3.01942L5.0577 3.06402C5.0476 3.20088 4.92656 3.42903 4.79314 3.56227L1.19393 7.16091C0.981972 7.37267 0.880188 7.64828 0.907064 7.93667C0.931271 8.19437 1.0584 8.45016 1.26502 8.65659L1.49699 8.88856C1.73734 9.12872 2.02649 9.25071 2.30687 9.25071C2.43483 9.25043 2.56144 9.22459 2.67928 9.17471C2.79711 9.12482 2.90379 9.0519 2.99305 8.96023L6.59246 5.36159C6.72721 5.22683 6.95156 5.10808 7.09127 5.09722C7.42445 5.07206 7.92174 5.0347 8.38339 4.79892C8.39401 4.79342 8.4032 4.78549 8.41019 4.77578C8.41719 4.76607 8.4218 4.75486 8.42366 4.74303C8.42551 4.73121 8.42456 4.71912 8.42088 4.70774C8.41719 4.69635 8.41088 4.68599 8.40245 4.6775L5.4715 1.74675C5.46301 1.73824 5.45263 1.73186 5.4412 1.72813C5.42978 1.7244 5.41763 1.72342 5.40575 1.72528C5.39388 1.72714 5.38261 1.73178 5.37287 1.73882C5.36313 1.74587 5.35519 1.75511 5.34971 1.76581C5.11869 2.20401 5.08629 2.65994 5.06075 3.01942ZM4.87109 5.81809C4.8214 5.87914 4.75403 5.92331 4.67823 5.94454C4.60242 5.96576 4.52191 5.963 4.44774 5.93663C4.37357 5.91027 4.30938 5.86158 4.26398 5.79727C4.21859 5.73295 4.19422 5.65617 4.19422 5.57745C4.19422 5.49873 4.21859 5.42194 4.26398 5.35763C4.30938 5.29331 4.37357 5.24463 4.44774 5.21826C4.52191 5.19189 4.60242 5.18913 4.67823 5.21036C4.75403 5.23158 4.8214 5.27575 4.87109 5.33681C4.92643 5.4048 4.95665 5.48978 4.95665 5.57745C4.95665 5.66511 4.92643 5.7501 4.87109 5.81809Z" fill="black"/>
</g>
<defs>
<clipPath id="clip0_201_10711">
<rect width="9.75902" height="9.75902" fill="white" transform="translate(0.292969 0.101562)"/>
</clipPath>
</defs>
</svg>
