<svg width="11" height="10" viewBox="0 0 11 10" fill="none" xmlns="http://www.w3.org/2000/svg">
<g clip-path="url(#clip0_201_10703)">
<path d="M9.17805 3.20591L7.12866 1.1569C6.87801 0.906441 6.582 1.02023 6.33155 1.27126L6.10377 1.49999C5.60572 1.99804 5.57732 2.61274 5.54301 3.08793C5.52604 3.32123 5.3566 3.61304 5.1902 3.77944L1.5908 7.37656C1.27916 7.68782 1.34892 8.12793 1.66189 8.4409L1.89386 8.67287C2.20569 8.98451 2.64542 9.05713 2.95858 8.74416L6.55779 5.14552C6.72438 4.97893 7.01525 4.811 7.2495 4.79251C7.72354 4.75706 8.36683 4.70007 8.83649 4.23042L9.06407 4.00283C9.31472 3.75238 9.42851 3.45637 9.17805 3.20591Z" stroke="black" stroke-width="0.609939" stroke-miterlimit="10"/>
<path d="M4.7567 5.95859C4.96724 5.95859 5.13791 5.78792 5.13791 5.57738C5.13791 5.36684 4.96724 5.19617 4.7567 5.19617C4.54616 5.19617 4.37549 5.36684 4.37549 5.57738C4.37549 5.78792 4.54616 5.95859 4.7567 5.95859Z" fill="black"/>
<path d="M5.98291 1.64563L8.68951 4.35223" stroke="black" stroke-width="0.609939" stroke-miterlimit="10" stroke-linecap="round"/>
</g>
<defs>
<clipPath id="clip0_201_10703">
<rect width="9.75902" height="9.75902" fill="white" transform="translate(0.474121 0.101685)"/>
</clipPath>
</defs>
</svg>
