<svg width="10" height="10" viewBox="0 0 10 10" fill="none" xmlns="http://www.w3.org/2000/svg">
<g clip-path="url(#clip0_201_10697)">
<path d="M6.25461 0.730609L2.0752 5.89603H4.51495L3.91435 9.19789C3.91321 9.20437 3.9135 9.21102 3.91521 9.21738C3.91691 9.22373 3.91999 9.22963 3.92423 9.23466C3.92846 9.2397 3.93375 9.24374 3.93972 9.24651C3.94568 9.24928 3.95218 9.25071 3.95876 9.25069V9.25069C3.96576 9.25068 3.97266 9.24904 3.97892 9.2459C3.98517 9.24276 3.99061 9.2382 3.99479 9.23258L8.17458 4.06621H5.73483L6.33829 0.763965C6.3391 0.757386 6.3385 0.750709 6.33653 0.74438C6.33456 0.73805 6.33127 0.732211 6.32687 0.727253C6.32247 0.722295 6.31707 0.71833 6.31101 0.715622C6.30496 0.712914 6.29841 0.711525 6.29178 0.711548V0.711548C6.28452 0.711577 6.27737 0.713318 6.27091 0.71663C6.26445 0.719942 6.25887 0.724731 6.25461 0.730609V0.730609Z" stroke="black" stroke-width="0.609939" stroke-linecap="round" stroke-linejoin="round"/>
</g>
<defs>
<clipPath id="clip0_201_10697">
<rect width="9.75902" height="9.75902" fill="white" transform="translate(0.245605 0.101685)"/>
</clipPath>
</defs>
</svg>
