<svg width="11" height="10" viewBox="0 0 11 10" fill="none" xmlns="http://www.w3.org/2000/svg">
<g clip-path="url(#clip0_201_10693)">
<path d="M9.07079 8.64077C9.03073 8.64084 8.99106 8.63297 8.95406 8.61763C8.91706 8.60228 8.88347 8.57977 8.85521 8.55138L2.14588 1.84205C2.09111 1.78439 2.06102 1.70762 2.06204 1.62809C2.06305 1.54857 2.0951 1.47259 2.15134 1.41635C2.20757 1.36011 2.28355 1.32807 2.36308 1.32705C2.4426 1.32603 2.51938 1.35612 2.57704 1.4109L9.28636 8.12023C9.32898 8.16288 9.35801 8.2172 9.36976 8.27634C9.38152 8.33548 9.37548 8.39678 9.35241 8.45249C9.32934 8.5082 9.29027 8.55582 9.24014 8.58933C9.19002 8.62284 9.13108 8.64074 9.07079 8.64077Z" fill="black"/>
<path d="M9.0612 3.99001C9.04429 3.92452 9.00609 3.86651 8.95261 3.8251C8.89913 3.7837 8.8334 3.76125 8.76576 3.76128H6.69178L7.22948 0.818896C7.23043 0.813178 7.23138 0.807651 7.23196 0.801932C7.24166 0.725636 7.22609 0.648262 7.18762 0.581662C7.14915 0.515062 7.08991 0.46291 7.01897 0.433193C6.94804 0.403477 6.86931 0.397836 6.79486 0.417134C6.72041 0.436432 6.65434 0.479605 6.60677 0.54004L4.84214 2.72171C4.83028 2.73639 4.82429 2.75493 4.82531 2.77376C4.82633 2.7926 4.83429 2.81039 4.84767 2.82369L7.72582 5.70184C7.73337 5.7094 7.74243 5.7153 7.75241 5.71913C7.76239 5.72297 7.77306 5.72466 7.78374 5.72411C7.79442 5.72355 7.80486 5.72075 7.81439 5.7159C7.82391 5.71104 7.83231 5.70424 7.83904 5.69593L8.99792 4.26333C9.02907 4.22588 9.05102 4.18165 9.06201 4.13418C9.073 4.08672 9.07272 4.03734 9.0612 3.99001Z" fill="black"/>
<path d="M6.58455 7.13858L3.7064 4.26043C3.69885 4.25289 3.6898 4.24703 3.67984 4.24321C3.66988 4.23939 3.65923 4.23771 3.64858 4.23826C3.63792 4.23882 3.62751 4.24161 3.618 4.24644C3.60849 4.25128 3.6001 4.25805 3.59337 4.26633L2.43373 5.69855C2.40258 5.73608 2.38067 5.78039 2.36974 5.82793C2.35882 5.87546 2.35919 5.92489 2.37083 5.97226C2.38774 6.03775 2.42594 6.09576 2.47942 6.13716C2.5329 6.17857 2.59863 6.20102 2.66627 6.20098H4.74063L4.20522 9.14318V9.14527C4.192 9.22194 4.2047 9.30083 4.24131 9.36948C4.27791 9.43814 4.33634 9.49264 4.40737 9.5244C4.47839 9.55615 4.55797 9.56334 4.63354 9.54484C4.70911 9.52634 4.77636 9.4832 4.82469 9.42222L6.58989 7.24055C6.60177 7.2259 6.6078 7.20737 6.60681 7.18854C6.60583 7.1697 6.5979 7.1519 6.58455 7.13858Z" fill="black"/>
</g>
<defs>
<clipPath id="clip0_201_10693">
<rect width="9.75902" height="9.75902" fill="white" transform="translate(0.836426 0.101685)"/>
</clipPath>
</defs>
</svg>
