<svg width="10" height="10" viewBox="0 0 10 10" fill="none" xmlns="http://www.w3.org/2000/svg">
<g clip-path="url(#clip0_201_10701)">
<path d="M3.77786 9.55571C3.72676 9.55575 3.67628 9.54461 3.62995 9.52306C3.58362 9.5015 3.54257 9.47007 3.50969 9.43095C3.47681 9.39184 3.45289 9.346 3.43962 9.29666C3.42635 9.24732 3.42404 9.19567 3.43286 9.14534V9.14324L3.96866 6.20105H1.89429C1.83671 6.20104 1.78031 6.18474 1.73162 6.15402C1.68292 6.1233 1.64391 6.07942 1.61911 6.02746C1.5943 5.9755 1.58471 5.91757 1.59145 5.86039C1.59819 5.80321 1.62098 5.7491 1.65718 5.70433L5.83469 0.540053C5.88224 0.479693 5.94825 0.436568 6.02263 0.417273C6.09701 0.397978 6.17566 0.403576 6.24655 0.43321C6.31745 0.462844 6.37669 0.514882 6.41521 0.581369C6.45374 0.647855 6.46942 0.725129 6.45987 0.801373C6.45987 0.807092 6.45835 0.812619 6.4574 0.818337L5.9197 3.76129H7.99368C8.05126 3.7613 8.10766 3.7776 8.15636 3.80832C8.20506 3.83904 8.24406 3.88292 8.26887 3.93488C8.29367 3.98684 8.30326 4.04477 8.29652 4.10195C8.28978 4.15913 8.267 4.21324 8.23079 4.25801L4.05271 9.42229C4.01988 9.46377 3.97812 9.49731 3.93053 9.52041C3.88294 9.54351 3.83076 9.55558 3.77786 9.55571Z" fill="black"/>
</g>
<defs>
<clipPath id="clip0_201_10701">
<rect width="9.75902" height="9.75902" fill="white" transform="translate(0.0644531 0.101685)"/>
</clipPath>
</defs>
</svg>
