<svg width="11" height="10" viewBox="0 0 11 10" fill="none" xmlns="http://www.w3.org/2000/svg">
<g clip-path="url(#clip0_201_10732)">
<path d="M5.21951 5.80083C5.67216 5.80083 6.03911 5.43388 6.03911 4.98123C6.03911 4.52857 5.67216 4.16162 5.21951 4.16162C4.76685 4.16162 4.3999 4.52857 4.3999 4.98123C4.3999 5.43388 4.76685 5.80083 5.21951 5.80083Z" fill="black"/>
<path d="M9.41155 5.89444C9.59389 5.71505 9.71862 5.48538 9.76979 5.23476C9.82095 4.98414 9.79625 4.72396 9.69882 4.48745C9.60139 4.25095 9.43567 4.04885 9.22283 3.90699C9.00998 3.76513 8.75968 3.68994 8.50389 3.69104C8.449 3.69104 8.38571 3.69371 8.31462 3.69923C8.36703 3.65425 8.4143 3.61117 8.45433 3.57134C8.63425 3.39072 8.75676 3.16095 8.80645 2.91091C8.85615 2.66086 8.83081 2.4017 8.73362 2.16602C8.63644 1.93033 8.47174 1.72864 8.26024 1.5863C8.04874 1.44396 7.79988 1.36732 7.54495 1.36603H7.54019C7.3706 1.36613 7.20271 1.39988 7.04626 1.46532C6.8898 1.53075 6.74788 1.62658 6.62871 1.74724C6.58849 1.78746 6.54541 1.83473 6.50062 1.88695C6.50615 1.81548 6.50901 1.7522 6.50901 1.69768C6.50901 1.3555 6.37308 1.02733 6.13111 0.785365C5.88915 0.543403 5.56098 0.407471 5.2188 0.407471C4.87661 0.407471 4.54844 0.543403 4.30648 0.785365C4.06452 1.02733 3.92859 1.3555 3.92859 1.69768C3.92859 1.75239 3.93145 1.81567 3.93697 1.88695C3.89199 1.83473 3.84891 1.78746 3.80889 1.74724C3.68972 1.62658 3.5478 1.53075 3.39134 1.46532C3.23488 1.39988 3.067 1.36613 2.89741 1.36603H2.89417C2.63964 1.36806 2.39135 1.4451 2.18038 1.58752C1.96941 1.72993 1.80512 1.9314 1.70806 2.16671C1.611 2.40202 1.58549 2.66073 1.63471 2.91047C1.68393 3.1602 1.8057 3.38988 1.98479 3.57077C2.02482 3.6106 2.07209 3.65368 2.12469 3.69885C2.05341 3.69333 1.99013 3.69047 1.93523 3.69047C1.59305 3.69047 1.26488 3.8264 1.02291 4.06836C0.780952 4.31032 0.64502 4.63849 0.64502 4.98068C0.64502 5.32286 0.780952 5.65103 1.02291 5.89299C1.26488 6.13496 1.59305 6.27089 1.93523 6.27089C1.98974 6.27089 2.05303 6.26803 2.1245 6.2625C2.07228 6.30729 2.02501 6.35037 1.98479 6.39059C1.80397 6.57061 1.68072 6.8003 1.63067 7.0505C1.58063 7.3007 1.60605 7.56012 1.70372 7.79585C1.80138 8.03157 1.96688 8.23296 2.17921 8.37445C2.39153 8.51595 2.64111 8.59117 2.89627 8.59056H2.90103C3.06957 8.59083 3.23651 8.55788 3.39231 8.49362C3.54812 8.42935 3.68973 8.33503 3.80908 8.21602C3.84891 8.17599 3.89199 8.12872 3.93697 8.07631C3.93164 8.1474 3.92878 8.21068 3.92878 8.26558C3.92878 8.60776 4.06471 8.93594 4.30667 9.1779C4.54863 9.41986 4.8768 9.55579 5.21899 9.55579C5.56117 9.55579 5.88934 9.41986 6.13131 9.1779C6.37327 8.93594 6.5092 8.60776 6.5092 8.26558C6.5092 8.21088 6.50634 8.14759 6.50081 8.07612C6.5458 8.12853 6.58887 8.17599 6.6289 8.21602C6.74826 8.3352 6.88995 8.42967 7.04586 8.49404C7.20177 8.5584 7.36884 8.5914 7.53752 8.59113H7.54228C7.79757 8.5922 8.04741 8.51729 8.26 8.37595C8.47259 8.2346 8.63832 8.0332 8.73611 7.79739C8.8339 7.56157 8.85932 7.30199 8.80915 7.05168C8.75897 6.80136 8.63546 6.57164 8.45433 6.39173C8.41411 6.35151 8.36684 6.30844 8.31462 6.26365C8.3861 6.26917 8.44938 6.27203 8.50389 6.27203C8.67258 6.2719 8.83959 6.23847 8.99535 6.17368C9.1511 6.10889 9.29254 6.01399 9.41155 5.89444ZM5.21956 6.6014C4.89912 6.6014 4.58589 6.50638 4.31945 6.32835C4.05302 6.15033 3.84536 5.8973 3.72274 5.60125C3.60011 5.30521 3.56803 4.97945 3.63054 4.66517C3.69305 4.3509 3.84736 4.06221 4.07394 3.83563C4.30052 3.60905 4.58921 3.45474 4.90348 3.39223C5.21776 3.32972 5.54352 3.3618 5.83956 3.48443C6.13561 3.60705 6.38864 3.81471 6.56667 4.08114C6.74469 4.34757 6.83971 4.66081 6.83971 4.98125C6.83921 5.41078 6.66835 5.82258 6.36462 6.12631C6.06089 6.43004 5.6491 6.60089 5.21956 6.6014Z" fill="black"/>
</g>
<defs>
<clipPath id="clip0_201_10732">
<rect width="9.75902" height="9.75902" fill="white" transform="translate(0.339844 0.101685)"/>
</clipPath>
</defs>
</svg>
