<svg width="11" height="10" viewBox="0 0 11 10" fill="none" xmlns="http://www.w3.org/2000/svg">
<g clip-path="url(#clip0_201_10735)">
<path d="M5.62878 5.8961C6.13407 5.8961 6.54368 5.48648 6.54368 4.98119C6.54368 4.4759 6.13407 4.06628 5.62878 4.06628C5.12349 4.06628 4.71387 4.4759 4.71387 4.98119C4.71387 5.48648 5.12349 5.8961 5.62878 5.8961Z" fill="black"/>
<path d="M9.82096 5.89435C9.99948 5.71869 10.1228 5.49474 10.1759 5.24998C10.229 5.00522 10.2094 4.75029 10.1197 4.51648C10.03 4.28266 9.87392 4.08012 9.67073 3.93371C9.46753 3.7873 9.22602 3.70339 8.97582 3.69228C8.95695 3.69146 8.93871 3.68526 8.92324 3.67442C8.90777 3.66358 8.89573 3.64855 8.88852 3.63109C8.88137 3.61359 8.87936 3.59441 8.88274 3.5758C8.88611 3.5572 8.89473 3.53994 8.90758 3.52607C9.07509 3.34087 9.18538 3.11113 9.22513 2.8646C9.26488 2.61807 9.23238 2.3653 9.13157 2.13684C9.03075 1.90838 8.86594 1.71401 8.65703 1.5772C8.44812 1.4404 8.20407 1.36702 7.95436 1.36593H7.94959C7.62915 1.36588 7.32034 1.48607 7.08424 1.70273C7.07035 1.71562 7.05306 1.72426 7.03442 1.72763C7.01578 1.73101 6.99656 1.72899 6.97903 1.72179C6.96158 1.71456 6.94654 1.70251 6.93568 1.68705C6.92481 1.67159 6.91856 1.65337 6.91765 1.6345C6.90309 1.30247 6.76095 0.988869 6.52085 0.759069C6.28075 0.529269 5.96122 0.401001 5.62887 0.401001C5.29652 0.401001 4.977 0.529269 4.7369 0.759069C4.4968 0.988869 4.35465 1.30247 4.34009 1.6345C4.33927 1.65337 4.33307 1.67161 4.32223 1.68707C4.31139 1.70254 4.29636 1.71459 4.27891 1.72179C4.26138 1.72899 4.24216 1.73101 4.22351 1.72763C4.20487 1.72426 4.18758 1.71562 4.17369 1.70273C3.93748 1.48572 3.62835 1.36537 3.30758 1.36555H3.30358C3.05413 1.3673 2.81051 1.44108 2.60201 1.57803C2.39351 1.71497 2.22903 1.90925 2.12835 2.13748C2.02766 2.36571 1.99507 2.61816 2.03449 2.86448C2.07391 3.11079 2.18366 3.34047 2.35055 3.52588C2.36339 3.53975 2.37201 3.55701 2.37539 3.57561C2.37876 3.59422 2.37676 3.6134 2.36961 3.6309C2.3624 3.64836 2.35035 3.66339 2.33488 3.67423C2.31942 3.68507 2.30118 3.69127 2.28231 3.69209C1.95232 3.70959 1.64161 3.853 1.41421 4.09277C1.18682 4.33255 1.06006 4.65041 1.06006 4.98087C1.06006 5.31133 1.18682 5.62919 1.41421 5.86896C1.64161 6.10874 1.95232 6.25215 2.28231 6.26965C2.3012 6.27057 2.31944 6.27685 2.3349 6.28775C2.35036 6.29866 2.3624 6.31373 2.36961 6.33122C2.37677 6.34875 2.37879 6.36796 2.37541 6.3866C2.37203 6.40524 2.36341 6.42253 2.35055 6.43643C2.1825 6.62108 2.07177 6.85061 2.03184 7.09707C1.99192 7.34352 2.02452 7.59628 2.12568 7.82453C2.22684 8.05279 2.39219 8.24671 2.6016 8.38267C2.81101 8.51863 3.05543 8.59076 3.3051 8.59028H3.30987C3.62889 8.59116 3.93682 8.47327 4.17369 8.25958C4.18757 8.24673 4.20482 8.23811 4.22342 8.23474C4.24203 8.23136 4.26121 8.23336 4.27872 8.24052C4.29617 8.24773 4.3112 8.25977 4.32204 8.27524C4.33288 8.2907 4.33908 8.30894 4.3399 8.32781C4.3574 8.6578 4.50081 8.96851 4.74059 9.19591C4.98036 9.4233 5.29823 9.55006 5.62868 9.55006C5.95914 9.55006 6.277 9.4233 6.51678 9.19591C6.75655 8.96851 6.89996 8.6578 6.91746 8.32781C6.91837 8.30894 6.92462 8.29072 6.93549 8.27526C6.94635 8.2598 6.96139 8.24776 6.97884 8.24052C6.99634 8.23336 7.01552 8.23136 7.03413 8.23474C7.05273 8.23811 7.06999 8.24673 7.08386 8.25958C7.32039 8.47362 7.62811 8.59198 7.94712 8.59161H7.95188C8.20177 8.5926 8.44654 8.52077 8.65626 8.3849C8.86599 8.24903 9.0316 8.05502 9.13285 7.82656C9.2341 7.5981 9.26661 7.34509 9.2264 7.09845C9.18619 6.85182 9.07501 6.62224 8.90644 6.43777C8.89357 6.42386 8.88495 6.40657 8.88157 6.38794C8.87819 6.3693 8.88021 6.35008 8.88737 6.33255C8.89461 6.3151 8.90666 6.30006 8.92212 6.2892C8.93757 6.27833 8.9558 6.27208 8.97467 6.27118C9.29386 6.25535 9.59564 6.12098 9.82096 5.89435ZM5.62897 6.506C5.32738 6.506 5.03257 6.41657 4.78181 6.24902C4.53105 6.08147 4.3356 5.84332 4.22019 5.56469C4.10478 5.28606 4.07458 4.97946 4.13342 4.68367C4.19226 4.38788 4.33748 4.11618 4.55074 3.90293C4.76399 3.68967 5.03569 3.54444 5.33148 3.48561C5.62728 3.42677 5.93387 3.45697 6.2125 3.57238C6.49113 3.68779 6.72928 3.88324 6.89683 4.134C7.06438 4.38476 7.15381 4.67957 7.15381 4.98116C7.15336 5.38543 6.99256 5.77302 6.7067 6.05888C6.42083 6.34475 6.03324 6.50555 5.62897 6.506Z" fill="black"/>
</g>
<defs>
<clipPath id="clip0_201_10735">
<rect width="9.75902" height="9.75902" fill="white" transform="translate(0.749512 0.101685)"/>
</clipPath>
</defs>
</svg>
