<svg width="11" height="10" viewBox="0 0 11 10" fill="none" xmlns="http://www.w3.org/2000/svg">
<g clip-path="url(#clip0_201_10722)">
<path d="M5.03001 3.09274C4.9368 2.63528 4.82473 2.0202 4.82473 1.69693C4.82389 1.56731 4.84881 1.43882 4.89802 1.31891C4.94724 1.199 5.01978 1.09005 5.11144 0.998398C5.20309 0.906743 5.31203 0.834203 5.43195 0.784985C5.55186 0.735768 5.68035 0.710855 5.80997 0.71169V0.71169C6.35415 0.71169 6.79521 1.16324 6.79521 1.69693C6.79521 2.01143 6.68371 2.62995 6.58993 3.09274" stroke="black" stroke-width="0.609939" stroke-miterlimit="10" stroke-linecap="round"/>
<path d="M5.03001 6.86975C4.93642 7.32835 4.82473 7.94019 4.82473 8.26556C4.82389 8.39518 4.84881 8.52367 4.89802 8.64358C4.94724 8.76349 5.01978 8.87244 5.11144 8.96409C5.20309 9.05575 5.31203 9.12829 5.43195 9.17751C5.55186 9.22672 5.68035 9.25164 5.80997 9.2508V9.2508C6.35415 9.2508 6.79521 8.79925 6.79521 8.26556C6.79521 7.9503 6.68371 7.33292 6.58993 6.86975" stroke="black" stroke-width="0.609939" stroke-miterlimit="10" stroke-linecap="round"/>
<path d="M7.69873 4.20127C8.15733 4.10769 8.76917 3.99599 9.09454 3.99599C9.22415 3.99516 9.35265 4.02007 9.47256 4.06929C9.59247 4.1185 9.70142 4.19105 9.79307 4.2827C9.88473 4.37436 9.95727 4.4833 10.0065 4.60321C10.0557 4.72312 10.0806 4.85162 10.0798 4.98123V4.98123C10.0798 5.52541 9.62823 5.96648 9.09454 5.96648C8.78004 5.96648 8.16152 5.85497 7.69873 5.76119" stroke="black" stroke-width="0.609939" stroke-miterlimit="10" stroke-linecap="round"/>
<path d="M3.9216 4.20108C3.46414 4.10788 2.84944 3.99599 2.52579 3.99599C2.39617 3.99516 2.26768 4.02007 2.14777 4.06929C2.02786 4.1185 1.91891 4.19105 1.82726 4.2827C1.7356 4.37436 1.66306 4.4833 1.61384 4.60321C1.56463 4.72312 1.53971 4.85162 1.54055 4.98123V4.98123C1.54055 5.52541 1.99209 5.96648 2.52579 5.96648C2.84029 5.96648 3.4588 5.85497 3.9216 5.76119" stroke="black" stroke-width="0.609939" stroke-miterlimit="10" stroke-linecap="round"/>
<path d="M6.59033 3.09266C6.8486 2.7023 7.20599 2.19205 7.43605 1.96218C7.5271 1.86991 7.63557 1.79665 7.75516 1.74665C7.87475 1.69665 8.00309 1.6709 8.13271 1.6709C8.26234 1.6709 8.39067 1.69665 8.51027 1.74665C8.62986 1.79665 8.73833 1.86991 8.82938 1.96218V1.96218C9.21421 2.34701 9.20678 2.97811 8.82938 3.35551C8.60713 3.57794 8.09231 3.94009 7.6989 4.20122" stroke="black" stroke-width="0.609939" stroke-miterlimit="10" stroke-linecap="round"/>
<path d="M3.92176 5.76123C3.5314 6.0195 3.02115 6.37689 2.79128 6.60695C2.69901 6.698 2.62575 6.80647 2.57575 6.92606C2.52575 7.04565 2.5 7.17399 2.5 7.30361C2.5 7.43324 2.52575 7.56157 2.57575 7.68117C2.62575 7.80076 2.69901 7.90923 2.79128 8.00028C3.17611 8.38511 3.80721 8.37768 4.18461 8.00028C4.40704 7.77803 4.7692 7.2632 5.03033 6.86979" stroke="black" stroke-width="0.609939" stroke-miterlimit="10" stroke-linecap="round"/>
<path d="M7.6989 5.76123C8.08926 6.0195 8.59951 6.37689 8.82938 6.60695C8.92164 6.698 8.9949 6.80647 9.04491 6.92606C9.09491 7.04565 9.12066 7.17399 9.12066 7.30361C9.12066 7.43324 9.09491 7.56157 9.04491 7.68117C8.9949 7.80076 8.92164 7.90923 8.82938 8.00028V8.00028C8.44455 8.38511 7.81345 8.37768 7.43605 8.00028C7.21323 7.77746 6.85165 7.26359 6.59033 6.86979" stroke="black" stroke-width="0.609939" stroke-miterlimit="10" stroke-linecap="round"/>
<path d="M5.03026 3.09266C4.77237 2.70325 4.41308 2.19071 4.18454 1.96218C4.0935 1.86991 3.98503 1.79665 3.86543 1.74665C3.74584 1.69665 3.61751 1.6709 3.48788 1.6709C3.35825 1.6709 3.22992 1.69665 3.11033 1.74665C2.99073 1.79665 2.88226 1.86991 2.79122 1.96218V1.96218C2.40638 2.34701 2.41382 2.97811 2.79122 3.35551C3.01251 3.5768 3.52886 3.94029 3.9217 4.20122" stroke="black" stroke-width="0.609939" stroke-miterlimit="10" stroke-linecap="round"/>
<path d="M5.81021 6.20111C6.48393 6.20111 7.03009 5.65495 7.03009 4.98123C7.03009 4.30751 6.48393 3.76135 5.81021 3.76135C5.13649 3.76135 4.59033 4.30751 4.59033 4.98123C4.59033 5.65495 5.13649 6.20111 5.81021 6.20111Z" stroke="black" stroke-width="0.609939" stroke-miterlimit="10" stroke-linecap="round"/>
</g>
<defs>
<clipPath id="clip0_201_10722">
<rect width="9.75902" height="9.75902" fill="white" transform="translate(0.930664 0.101685)"/>
</clipPath>
</defs>
</svg>
