<svg width="11" height="10" viewBox="0 0 11 10" fill="none" xmlns="http://www.w3.org/2000/svg">
<g clip-path="url(#clip0_201_10741)">
<path d="M0.874609 3.71183L1.41936 8.16953C1.43465 8.29956 1.4972 8.41943 1.59511 8.50634C1.69302 8.59325 1.81947 8.64114 1.95039 8.6409H8.94562C9.07654 8.64114 9.20299 8.59325 9.3009 8.50634C9.39881 8.41943 9.46136 8.29956 9.47665 8.16953L10.0206 3.71183C10.0244 3.67976 10.0213 3.64726 10.0116 3.61645C10.0019 3.58565 9.98583 3.55725 9.96437 3.53313C9.94291 3.509 9.91658 3.48969 9.88712 3.47647C9.85766 3.46325 9.82573 3.45642 9.79344 3.45642H1.10181C1.06952 3.45642 1.03759 3.46325 1.00813 3.47647C0.978668 3.48969 0.95234 3.509 0.930877 3.53313C0.909415 3.55725 0.893304 3.58565 0.883606 3.61645C0.873908 3.64726 0.870841 3.67976 0.874609 3.71183Z" fill="black"/>
<path d="M9.4126 2.46529C9.4126 2.32375 9.35637 2.188 9.25629 2.08791C9.1562 1.98782 9.02045 1.93159 8.87891 1.93159H5.23528L4.32038 1.32166H2.01709C1.87555 1.32166 1.7398 1.37788 1.63971 1.47797C1.53963 1.57806 1.4834 1.71381 1.4834 1.85535V2.8465H9.4126V2.46529Z" fill="black"/>
</g>
<defs>
<clipPath id="clip0_201_10741">
<rect width="9.75902" height="9.75902" fill="white" transform="translate(0.568359 0.101685)"/>
</clipPath>
</defs>
</svg>
