<svg width="11" height="10" viewBox="0 0 11 10" fill="none" xmlns="http://www.w3.org/2000/svg">
<g clip-path="url(#clip0_201_10744)">
<path d="M8.75439 1.9316H5.78303C5.69278 1.93189 5.60448 1.90535 5.52934 1.85535L4.99945 1.50102C4.82399 1.38368 4.61756 1.32124 4.40648 1.32166H2.95997C2.67697 1.32196 2.40565 1.43451 2.20554 1.63462C2.00544 1.83473 1.89288 2.10605 1.89258 2.38905V2.8465H9.82178C9.82178 2.25791 9.34298 1.9316 8.75439 1.9316Z" fill="black"/>
<path d="M9.05464 8.6409H2.65982C2.37974 8.64058 2.11101 8.5302 1.91159 8.33355C1.71216 8.1369 1.59801 7.86975 1.59376 7.58971L1.28612 4.44967V4.44433C1.27605 4.31848 1.29213 4.1919 1.33336 4.07257C1.37459 3.95323 1.44007 3.84372 1.52568 3.75093C1.6113 3.65813 1.71519 3.58406 1.83083 3.53338C1.94647 3.48269 2.07134 3.45649 2.1976 3.45642H9.51877C9.64499 3.45654 9.76983 3.48279 9.88542 3.53349C10.001 3.5842 10.1049 3.65828 10.1904 3.75107C10.276 3.84386 10.3415 3.95335 10.3827 4.07266C10.4239 4.19196 10.4399 4.31851 10.4299 4.44433V4.44967L10.1207 7.58971C10.1165 7.86975 10.0023 8.1369 9.80288 8.33355C9.60345 8.5302 9.33472 8.64058 9.05464 8.6409Z" fill="black"/>
</g>
<defs>
<clipPath id="clip0_201_10744">
<rect width="9.75902" height="9.75902" fill="white" transform="translate(0.977539 0.101685)"/>
</clipPath>
</defs>
</svg>
