<svg width="10" height="10" viewBox="0 0 10 10" fill="none" xmlns="http://www.w3.org/2000/svg">
<g clip-path="url(#clip0_201_10753)">
<path d="M9.66031 2.99887C9.66031 2.71578 9.54785 2.44428 9.34768 2.24411C9.1475 2.04393 8.87601 1.93147 8.59292 1.93147H4.40169C4.31143 1.93176 4.22313 1.90523 4.14799 1.85523L3.61811 1.5009C3.44264 1.38356 3.23621 1.32112 3.02513 1.32154H1.57862C1.29553 1.32154 1.02404 1.43399 0.823863 1.63417C0.623688 1.83434 0.51123 2.10584 0.51123 2.38893V3.30384C0.51123 3.34428 0.527296 3.38306 0.555892 3.41166C0.584489 3.44026 0.623274 3.45632 0.663715 3.45632H9.50783C9.54827 3.45632 9.58705 3.44026 9.61565 3.41166C9.64425 3.38306 9.66031 3.34428 9.66031 3.30384V2.99887Z" fill="black"/>
<path d="M0.51123 7.57343C0.51123 7.85652 0.623688 8.12802 0.823863 8.32819C1.02404 8.52837 1.29553 8.64083 1.57862 8.64083H8.59292C8.87601 8.64083 9.1475 8.52837 9.34768 8.32819C9.54785 8.12802 9.66031 7.85652 9.66031 7.57343V4.21877C9.66031 4.17833 9.64425 4.13954 9.61565 4.11095C9.58705 4.08235 9.54827 4.06628 9.50783 4.06628H0.663715C0.623274 4.06628 0.584489 4.08235 0.555892 4.11095C0.527296 4.13954 0.51123 4.17833 0.51123 4.21877V7.57343Z" fill="black"/>
</g>
<defs>
<clipPath id="clip0_201_10753">
<rect width="9.75902" height="9.75902" fill="white" transform="translate(0.206055 0.101685)"/>
</clipPath>
</defs>
</svg>
