<svg width="11" height="11" viewBox="0 0 11 11" fill="none" xmlns="http://www.w3.org/2000/svg">
<path d="M5.43286 1.4259C3.2468 1.4259 1.46826 3.20445 1.46826 5.39051C1.46826 7.57656 3.2468 9.35511 5.43286 9.35511C7.61892 9.35511 9.39747 7.57656 9.39747 5.39051C9.39747 3.20445 7.61892 1.4259 5.43286 1.4259ZM8.11354 7.06936H7.22208L6.90015 6.5166L7.18606 5.36458L7.75425 5.12366L8.56719 5.82337C8.50632 6.26624 8.35166 6.69103 8.11354 7.06936ZM3.11147 5.12366L3.67929 5.36515L3.9652 6.51718L3.64327 7.06993H2.75218C2.51414 6.69177 2.35949 6.26719 2.29854 5.82451L3.11147 5.12366ZM7.85889 3.36112L7.50799 4.35857L6.91482 4.60978L5.83314 3.70288V3.03576L6.66913 2.47881C7.12969 2.67535 7.53733 2.97785 7.85889 3.3617V3.36112ZM4.19659 2.47805L5.03259 3.035V3.70212L3.9509 4.60959L3.35774 4.35837L3.00683 3.36093C3.32839 2.97709 3.73604 2.67459 4.19659 2.47805ZM4.70056 8.46879L4.31744 7.50318L4.62241 6.97882H6.24256L6.54867 7.50356L6.16746 8.46803C5.68498 8.5829 5.18227 8.5829 4.69979 8.46803L4.70056 8.46879Z" fill="black"/>
</svg>
