<svg width="11" height="10" viewBox="0 0 11 10" fill="none" xmlns="http://www.w3.org/2000/svg">
<path d="M5.49459 8.6408C7.51575 8.6408 9.15423 7.00233 9.15423 4.98117C9.15423 2.96001 7.51575 1.32153 5.49459 1.32153C3.47343 1.32153 1.83496 2.96001 1.83496 4.98117C1.83496 7.00233 3.47343 8.6408 5.49459 8.6408Z" stroke="black" stroke-width="0.609939" stroke-miterlimit="10" stroke-linecap="round"/>
<path d="M5.49475 3.44019L4.04443 4.65682L4.42736 6.20111H5.49475H6.56215L6.94507 4.65682L5.49475 3.44019Z" stroke="black" stroke-width="0.609939" stroke-linecap="round" stroke-linejoin="round"/>
<path d="M6.94531 4.65683L7.95305 4.22987L8.44443 2.8335" stroke="black" stroke-width="0.609939" stroke-linecap="round" stroke-linejoin="round"/>
<path d="M9.13516 5.2475L7.95264 4.22986" stroke="black" stroke-width="0.609939" stroke-linecap="round" stroke-linejoin="round"/>
<path d="M4.04453 4.65683L3.03679 4.22987L2.54541 2.8335" stroke="black" stroke-width="0.609939" stroke-linecap="round" stroke-linejoin="round"/>
<path d="M1.854 5.2475L3.03652 4.22986" stroke="black" stroke-width="0.609939" stroke-linecap="round" stroke-linejoin="round"/>
<path d="M5.49463 3.44021V2.34289L6.71451 1.53015" stroke="black" stroke-width="0.609939" stroke-linecap="round" stroke-linejoin="round"/>
<path d="M4.2749 1.52991L5.49478 2.34284" stroke="black" stroke-width="0.609939" stroke-linecap="round" stroke-linejoin="round"/>
<path d="M6.56201 6.20105L7.09571 7.11596L6.56201 8.46926" stroke="black" stroke-width="0.609939" stroke-linecap="round" stroke-linejoin="round"/>
<path d="M8.44401 7.11597H7.13379" stroke="black" stroke-width="0.609939" stroke-linecap="round" stroke-linejoin="round"/>
<path d="M4.42725 6.20105L3.89355 7.11596L4.4343 8.47879" stroke="black" stroke-width="0.609939" stroke-linecap="round" stroke-linejoin="round"/>
<path d="M2.55225 7.11597H3.89354" stroke="black" stroke-width="0.609939" stroke-linecap="round" stroke-linejoin="round"/>
</svg>
