<svg width="10" height="11" viewBox="0 0 10 11" fill="none" xmlns="http://www.w3.org/2000/svg">
<g clip-path="url(#clip0_201_10783)">
<path d="M2.74171 7.39697C2.31075 7.39697 1.96022 7.24124 1.69738 6.93208C1.43453 6.62292 1.26204 6.16413 1.16159 5.49663C1.01368 4.51291 1.16044 3.68378 1.57482 3.16209C1.81879 2.85483 2.13901 2.67719 2.50078 2.6486C2.81052 2.62382 3.2735 2.74943 3.72066 3.48726C4.00066 3.94929 4.21357 4.56304 4.30487 5.17107C4.41523 5.9051 4.33308 6.44546 4.05365 6.82267C3.83178 7.12231 3.4906 7.30796 3.03943 7.37543C2.94086 7.38991 2.84134 7.39711 2.74171 7.39697Z" fill="black"/>
<path d="M3.48861 9.96505C3.23682 9.96505 2.9816 9.88442 2.75172 9.72946C2.42002 9.50469 2.19042 9.1581 2.11281 8.765C2.05849 8.48557 2.09108 8.26351 2.21231 8.08568C2.40921 7.79691 2.76259 7.73191 3.13656 7.66291C3.17601 7.65567 3.21604 7.64843 3.25664 7.64061C3.34279 7.62422 3.43085 7.60249 3.51625 7.58133C3.83608 7.50242 4.16697 7.42065 4.44011 7.61469C4.6229 7.7443 4.72602 7.96464 4.7569 8.28791C4.79197 8.66092 4.71192 9.03318 4.53141 9.33624C4.33718 9.66237 4.04594 9.87794 3.71181 9.94351C3.63827 9.95786 3.56353 9.96508 3.48861 9.96505Z" fill="black"/>
<path d="M7.39924 5.56719C7.2997 5.56685 7.20031 5.55921 7.10189 5.54432C6.65092 5.4776 6.30973 5.29176 6.08787 4.99156C5.80844 4.61435 5.72572 4.07417 5.83665 3.33996C5.92795 2.73135 6.14029 2.11817 6.41895 1.65786C6.86383 0.922695 7.32738 0.79518 7.63883 0.817671C7.99946 0.843975 8.3191 1.01914 8.56346 1.32468C8.98069 1.84637 9.1286 2.67798 8.98012 3.66609C8.87967 4.33321 8.70946 4.78971 8.44433 5.10154C8.1792 5.41337 7.8302 5.56719 7.39924 5.56719Z" fill="black"/>
<path d="M6.65225 8.13531C6.57752 8.1353 6.50297 8.12809 6.42962 8.11377C6.09492 8.0482 5.80367 7.83263 5.61002 7.5065C5.42951 7.20344 5.34946 6.83119 5.38453 6.45817C5.41503 6.13414 5.51795 5.91456 5.70132 5.78476C5.97446 5.59091 6.30535 5.67249 6.62518 5.75159C6.71058 5.77256 6.79864 5.79429 6.88479 5.81087L7.00468 5.83317C7.37884 5.90198 7.73222 5.9666 7.92912 6.25575C8.05034 6.43358 8.08294 6.65602 8.02862 6.93507C7.95108 7.32825 7.72147 7.67492 7.3897 7.89972C7.1585 8.05488 6.90328 8.13531 6.65225 8.13531Z" fill="black"/>
</g>
<defs>
<clipPath id="clip0_201_10783">
<rect width="9.75902" height="9.75902" fill="white" transform="translate(0.190918 0.510986)"/>
</clipPath>
</defs>
</svg>
