<svg width="11" height="11" viewBox="0 0 11 11" fill="none" xmlns="http://www.w3.org/2000/svg">
<g clip-path="url(#clip0_201_10778)">
<path d="M3.26936 7.3406C3.02481 7.37643 2.62225 7.44314 2.35445 7.13932C2.08665 6.83549 1.85506 6.10185 1.75328 5.44617C1.60308 4.47979 1.75213 3.66534 2.17261 3.15299C2.4204 2.85126 2.74557 2.67647 3.11306 2.64864C3.42775 2.62444 3.89797 2.74757 4.352 3.47187C4.63638 3.9257 4.85272 4.52859 4.94554 5.12576C5.05762 5.84663 5.16684 6.61591 4.78467 6.89172C4.5691 7.04745 4.41432 7.10139 4.04855 7.18849C3.74778 7.25997 3.51409 7.30457 3.26936 7.3406Z" fill="black"/>
<path d="M2.83463 7.96064L4.91014 7.53254C5.08549 7.49632 5.22616 7.59277 5.29135 7.88173C5.50521 8.83018 5.19871 9.96505 4.23882 9.96505C3.32982 9.96505 2.72408 8.92892 2.62515 8.37197C2.57998 8.11941 2.64441 7.99971 2.83463 7.96064Z" fill="black"/>
<path d="M7.27292 5.3589C6.90715 5.27218 6.75237 5.21786 6.5368 5.06213C6.15463 4.78632 6.26385 4.01704 6.37593 3.29617C6.46875 2.699 6.68509 2.09535 6.96947 1.64228C7.42312 0.917978 7.89334 0.794847 8.20841 0.819054C8.57552 0.847073 8.90088 1.02148 9.14867 1.32321C9.56953 1.83555 9.71858 2.65001 9.568 3.61639C9.46603 4.27207 9.23521 5.00323 8.96588 5.30954C8.69655 5.61584 8.29628 5.54665 8.05097 5.51082C7.80566 5.47498 7.5735 5.43019 7.27292 5.3589Z" fill="black"/>
<path d="M8.48677 6.1308L6.41126 5.7027C6.2359 5.66649 6.09524 5.76294 6.03005 6.05189C5.81638 7.00035 6.12287 8.13522 7.08276 8.13522C7.99176 8.13522 8.59751 7.09908 8.69643 6.54213C8.74142 6.28958 8.67699 6.16988 8.48677 6.1308Z" fill="black"/>
</g>
<defs>
<clipPath id="clip0_201_10778">
<rect width="9.75902" height="9.75902" fill="white" transform="translate(0.78125 0.510986)"/>
</clipPath>
</defs>
</svg>
