<svg width="11" height="11" viewBox="0 0 11 11" fill="none" xmlns="http://www.w3.org/2000/svg">
<g clip-path="url(#clip0_201_10788)">
<path d="M1.27484 2.17152L4.48941 5.91578C4.53747 5.97098 4.56418 6.04157 4.56469 6.11477V8.38908C4.56438 8.42095 4.57415 8.4521 4.5926 8.47808C4.61105 8.50406 4.63724 8.52355 4.66743 8.53375L6.19514 9.0421C6.21797 9.04974 6.2423 9.05182 6.2661 9.04818C6.2899 9.04453 6.31248 9.03526 6.33198 9.02113C6.35147 9.007 6.36732 8.98842 6.37819 8.96694C6.38907 8.94546 6.39466 8.92169 6.39451 8.89762V6.11477C6.39529 6.04145 6.42234 5.97085 6.47075 5.91578L9.68437 2.17152C9.7176 2.13281 9.73904 2.08539 9.74615 2.03487C9.75326 1.98435 9.74574 1.93285 9.72448 1.88647C9.70321 1.8401 9.6691 1.80079 9.62619 1.7732C9.58327 1.74562 9.53334 1.73092 9.48233 1.73084H1.47783C1.42673 1.73073 1.37668 1.7453 1.33362 1.77282C1.29056 1.80033 1.25631 1.83963 1.23493 1.88604C1.21355 1.93245 1.20594 1.98402 1.21302 2.03463C1.22009 2.08524 1.24155 2.13275 1.27484 2.17152Z" stroke="black" stroke-width="0.609939" stroke-linecap="round" stroke-linejoin="round"/>
</g>
<defs>
<clipPath id="clip0_201_10788">
<rect width="9.75902" height="9.75902" fill="white" transform="translate(0.600098 0.510986)"/>
</clipPath>
</defs>
</svg>
