<svg width="11" height="11" viewBox="0 0 11 11" fill="none" xmlns="http://www.w3.org/2000/svg">
<g clip-path="url(#clip0_201_10792)">
<path d="M6.06112 9.35511C6.0122 9.35508 5.96361 9.34716 5.91721 9.33166L4.38951 8.82332C4.29866 8.79279 4.21973 8.7344 4.16396 8.65645C4.10819 8.5785 4.0784 8.48496 4.07882 8.38912V6.1169C4.0784 6.11598 4.07782 6.11514 4.07711 6.11443L0.862537 2.37017C0.791258 2.28713 0.745304 2.18538 0.730132 2.077C0.71496 1.96862 0.731206 1.85816 0.776943 1.75874C0.822679 1.65932 0.895985 1.57511 0.988156 1.51612C1.08033 1.45712 1.18749 1.42581 1.29693 1.4259H9.30142C9.41086 1.42581 9.51802 1.45712 9.61019 1.51612C9.70236 1.57511 9.77567 1.65932 9.82141 1.75874C9.86714 1.85816 9.88339 1.96862 9.86822 2.077C9.85305 2.18538 9.80709 2.28713 9.73581 2.37017L6.52029 6.11481C6.51964 6.11557 6.51906 6.1164 6.51858 6.11729V8.89765C6.51875 8.95778 6.50704 9.01734 6.48411 9.07292C6.46119 9.1285 6.4275 9.179 6.38498 9.22152C6.34247 9.26403 6.29197 9.29772 6.23639 9.32064C6.18081 9.34357 6.12124 9.35528 6.06112 9.35511Z" fill="black"/>
</g>
<defs>
<clipPath id="clip0_201_10792">
<rect width="9.75902" height="9.75902" fill="white" transform="translate(0.418945 0.510986)"/>
</clipPath>
</defs>
</svg>
