<svg width="11" height="11" viewBox="0 0 11 11" fill="none" xmlns="http://www.w3.org/2000/svg">
<g clip-path="url(#clip0_201_10794)">
<path d="M9.73944 5.25388C9.38872 3.66842 8.86856 2.65706 8.03485 2.41061C7.87338 2.3635 7.70595 2.34001 7.53775 2.34085C7.02521 2.34085 6.62074 2.64582 5.70793 2.64582C4.79512 2.64582 4.38989 2.34085 3.87812 2.34085C3.7029 2.33994 3.52841 2.36342 3.35967 2.41061C2.52482 2.65706 2.00904 3.66937 1.65432 5.25388C1.29217 6.87231 1.35774 8.15109 2.06565 8.39659C2.56122 8.56813 3.00438 8.21341 3.42409 7.69134C3.90061 7.09665 4.48748 6.91367 5.70793 6.91367C6.92838 6.91367 7.49239 7.09665 7.96966 7.69134C8.389 8.21379 8.84855 8.56413 9.33097 8.39964C10.1128 8.1326 10.1018 6.89137 9.73944 5.25388Z" stroke="black" stroke-width="0.609939" stroke-miterlimit="10"/>
<path d="M6.3944 5.16184C6.60493 5.16184 6.77561 4.99116 6.77561 4.78063C6.77561 4.57009 6.60493 4.39941 6.3944 4.39941C6.18386 4.39941 6.01318 4.57009 6.01318 4.78063C6.01318 4.99116 6.18386 5.16184 6.3944 5.16184Z" fill="black"/>
<path d="M7.23277 6.00046C7.15734 6.00046 7.0836 5.97808 7.02088 5.93615C6.95817 5.89422 6.90931 5.83462 6.88049 5.76491C6.85166 5.6952 6.84417 5.6185 6.85896 5.54453C6.87374 5.47055 6.91015 5.40263 6.96355 5.34935C7.01696 5.29608 7.08498 5.25985 7.15899 5.24525C7.233 5.23064 7.30968 5.23833 7.37932 5.26733C7.44896 5.29633 7.50843 5.34534 7.5502 5.40815C7.59198 5.47097 7.61417 5.54476 7.61398 5.6202C7.61373 5.72114 7.57346 5.81786 7.50199 5.88914C7.43053 5.96043 7.33371 6.00046 7.23277 6.00046Z" fill="black"/>
<path d="M7.23277 4.32309C7.44331 4.32309 7.61399 4.15242 7.61399 3.94188C7.61399 3.73134 7.44331 3.56067 7.23277 3.56067C7.02224 3.56067 6.85156 3.73134 6.85156 3.94188C6.85156 4.15242 7.02224 4.32309 7.23277 4.32309Z" fill="black"/>
<path d="M8.07164 5.16184C8.28218 5.16184 8.45285 4.99116 8.45285 4.78063C8.45285 4.57009 8.28218 4.39941 8.07164 4.39941C7.8611 4.39941 7.69043 4.57009 7.69043 4.78063C7.69043 4.99116 7.8611 5.16184 8.07164 5.16184Z" fill="black"/>
<path d="M3.87842 3.86572V5.69554" stroke="black" stroke-width="0.609939" stroke-linecap="round" stroke-linejoin="round"/>
<path d="M4.7932 4.78052H2.96338" stroke="black" stroke-width="0.609939" stroke-linecap="round" stroke-linejoin="round"/>
</g>
<defs>
<clipPath id="clip0_201_10794">
<rect width="9.75902" height="9.75902" fill="white" transform="translate(0.828613 0.510986)"/>
</clipPath>
</defs>
</svg>
