<svg width="10" height="11" viewBox="0 0 10 11" fill="none" xmlns="http://www.w3.org/2000/svg">
<g clip-path="url(#clip0_201_10806)">
<path d="M4.93652 2.49342V3.56081H6.00392C6.21503 3.56081 6.4214 3.49821 6.59693 3.38092C6.77246 3.26364 6.90927 3.09693 6.99006 2.90189C7.07085 2.70685 7.09199 2.49223 7.0508 2.28518C7.00961 2.07813 6.90795 1.88794 6.75868 1.73866C6.6094 1.58938 6.41921 1.48772 6.21215 1.44654C6.0051 1.40535 5.79048 1.42649 5.59544 1.50728C5.4004 1.58806 5.2337 1.72488 5.11641 1.90041C4.99913 2.07594 4.93652 2.28231 4.93652 2.49342V2.49342Z" stroke="black" stroke-width="0.609939" stroke-miterlimit="10" stroke-linecap="round"/>
<path d="M4.93654 2.49342C4.93654 2.7881 4.93654 3.56081 4.93654 3.56081H3.86915C3.65804 3.56081 3.45167 3.49821 3.27614 3.38092C3.10061 3.26364 2.9638 3.09693 2.88301 2.90189C2.80222 2.70685 2.78108 2.49223 2.82227 2.28518C2.86345 2.07813 2.96511 1.88794 3.11439 1.73866C3.26367 1.58938 3.45386 1.48772 3.66091 1.44654C3.86797 1.40535 4.08258 1.42649 4.27762 1.50728C4.47267 1.58806 4.63937 1.72488 4.75666 1.90041C4.87394 2.07594 4.93654 2.28231 4.93654 2.49342V2.49342Z" stroke="black" stroke-width="0.609939" stroke-miterlimit="10" stroke-linecap="round"/>
<path d="M7.98618 3.56079H1.88679C1.54993 3.56079 1.27686 3.83387 1.27686 4.17073V5.08564C1.27686 5.4225 1.54993 5.69558 1.88679 5.69558H7.98618C8.32304 5.69558 8.59612 5.4225 8.59612 5.08564V4.17073C8.59612 3.83387 8.32304 3.56079 7.98618 3.56079Z" stroke="black" stroke-width="0.609939" stroke-linecap="round" stroke-linejoin="round"/>
<path d="M7.98611 5.69556V8.44028C7.98611 8.68293 7.88971 8.91564 7.71814 9.08722C7.54656 9.2588 7.31385 9.35519 7.0712 9.35519H2.80163C2.55898 9.35519 2.32627 9.2588 2.15469 9.08722C1.98311 8.91564 1.88672 8.68293 1.88672 8.44028V5.69556" stroke="black" stroke-width="0.609939" stroke-linecap="round" stroke-linejoin="round"/>
<path d="M4.93652 3.56079V9.35521" stroke="black" stroke-width="0.609939" stroke-linecap="round" stroke-linejoin="round"/>
</g>
<defs>
<clipPath id="clip0_201_10806">
<rect width="9.75902" height="9.75902" fill="white" transform="translate(0.0571289 0.510986)"/>
</clipPath>
</defs>
</svg>
