<svg width="10" height="11" viewBox="0 0 10 11" fill="none" xmlns="http://www.w3.org/2000/svg">
<g clip-path="url(#clip0_201_10849)">
<path d="M4.13506 7.8303H3.42982C3.28827 7.8303 3.15253 7.77407 3.05244 7.67398C2.95235 7.57389 2.89612 7.43815 2.89612 7.2966V3.40824C3.13106 3.27819 3.31651 3.07426 3.42374 2.82807C3.53096 2.58187 3.55395 2.30718 3.48915 2.04659C3.42435 1.786 3.27538 1.55407 3.06534 1.38678C2.85529 1.21948 2.59592 1.12616 2.32743 1.12129C2.05895 1.11643 1.79636 1.20029 1.5804 1.35986C1.36443 1.51944 1.20715 1.74582 1.13295 2.00389C1.05875 2.26196 1.07177 2.5373 1.17 2.78722C1.26823 3.03713 1.44618 3.24765 1.67624 3.38613V7.2966C1.67675 7.76152 1.86166 8.20726 2.19041 8.53601C2.51916 8.86476 2.9649 9.04967 3.42982 9.05017H4.13506V10.1025L5.76264 8.44024L4.13506 6.77796V7.8303ZM2.30524 1.73091C2.42588 1.73091 2.5438 1.76668 2.64411 1.8337C2.74441 1.90072 2.82259 1.99598 2.86875 2.10743C2.91492 2.21889 2.927 2.34152 2.90346 2.45984C2.87993 2.57816 2.82184 2.68684 2.73654 2.77214C2.65123 2.85744 2.54255 2.91553 2.42424 2.93907C2.30592 2.9626 2.18328 2.95052 2.07183 2.90436C1.96038 2.85819 1.86512 2.78001 1.7981 2.67971C1.73108 2.57941 1.6953 2.46148 1.6953 2.34085C1.6953 2.17908 1.75957 2.02394 1.87395 1.90956C1.98834 1.79517 2.14348 1.73091 2.30524 1.73091Z" fill="black"/>
<path d="M8.3854 7.38448V3.4845C8.38489 3.01958 8.19998 2.57384 7.87123 2.24509C7.54248 1.91634 7.09674 1.73143 6.63182 1.73092H5.9647V0.700317L4.29004 2.34086L5.9647 3.98141V2.9508H6.63182C6.77337 2.9508 6.90912 3.00703 7.0092 3.10712C7.10929 3.2072 7.16552 3.34295 7.16552 3.4845V7.38448C6.93296 7.51875 6.7512 7.72601 6.64844 7.9741C6.54567 8.2222 6.52764 8.49727 6.59715 8.75666C6.66665 9.01604 6.8198 9.24525 7.03284 9.40872C7.24589 9.5722 7.50692 9.66081 7.77546 9.66081C8.04399 9.66081 8.30503 9.5722 8.51807 9.40872C8.73112 9.24525 8.88427 9.01604 8.95377 8.75666C9.02327 8.49727 9.00524 8.2222 8.90248 7.9741C8.79971 7.72601 8.61796 7.51875 8.3854 7.38448ZM7.77546 9.05019C7.65482 9.05019 7.5369 9.01442 7.43659 8.9474C7.33629 8.88037 7.25811 8.78512 7.21195 8.67366C7.16578 8.56221 7.1537 8.43957 7.17724 8.32126C7.20077 8.20294 7.25886 8.09426 7.34417 8.00896C7.42947 7.92366 7.53815 7.86557 7.65647 7.84203C7.77478 7.8185 7.89742 7.83058 8.00887 7.87674C8.12032 7.9229 8.21558 8.00108 8.2826 8.10139C8.34962 8.20169 8.3854 8.31962 8.3854 8.44025C8.3854 8.60202 8.32114 8.75716 8.20675 8.87154C8.09236 8.98593 7.93722 9.05019 7.77546 9.05019Z" fill="black"/>
</g>
<defs>
<clipPath id="clip0_201_10849">
<rect width="9.75902" height="9.75902" fill="white" transform="translate(0.151367 0.510986)"/>
</clipPath>
</defs>
</svg>
