<svg width="11" height="11" viewBox="0 0 11 11" fill="none" xmlns="http://www.w3.org/2000/svg">
<g clip-path="url(#clip0_201_10876)">
<path d="M2.86657 9.35533C3.37186 9.35533 3.78148 8.94571 3.78148 8.44042C3.78148 7.93513 3.37186 7.52551 2.86657 7.52551C2.36128 7.52551 1.95166 7.93513 1.95166 8.44042C1.95166 8.94571 2.36128 9.35533 2.86657 9.35533Z" stroke="black" stroke-width="0.609939" stroke-linecap="round" stroke-linejoin="round"/>
<path d="M2.8667 3.25586V7.52543" stroke="black" stroke-width="0.609939" stroke-linecap="round" stroke-linejoin="round"/>
<path d="M5.91617 3.56085L4.69629 2.34097L5.91617 1.12109" stroke="black" stroke-width="0.609939" stroke-linecap="round" stroke-linejoin="round"/>
<path d="M2.86657 3.25584C3.37186 3.25584 3.78148 2.84622 3.78148 2.34093C3.78148 1.83564 3.37186 1.42603 2.86657 1.42603C2.36128 1.42603 1.95166 1.83564 1.95166 2.34093C1.95166 2.84622 2.36128 3.25584 2.86657 3.25584Z" stroke="black" stroke-width="0.609939" stroke-linecap="round" stroke-linejoin="round"/>
<path d="M7.74596 9.35533C8.25125 9.35533 8.66087 8.94571 8.66087 8.44042C8.66087 7.93513 8.25125 7.52551 7.74596 7.52551C7.24067 7.52551 6.83105 7.93513 6.83105 8.44042C6.83105 8.94571 7.24067 9.35533 7.74596 9.35533Z" stroke="black" stroke-width="0.609939" stroke-linecap="round" stroke-linejoin="round"/>
<path d="M5.00146 2.34094H6.60255C6.90587 2.34094 7.19675 2.46143 7.41123 2.67591C7.6257 2.89038 7.74619 3.18127 7.74619 3.48458V7.52542" stroke="black" stroke-width="0.609939" stroke-linecap="round" stroke-linejoin="round"/>
</g>
<defs>
<clipPath id="clip0_201_10876">
<rect width="9.75902" height="9.75902" fill="white" transform="translate(0.426758 0.511108)"/>
</clipPath>
</defs>
</svg>
