<svg width="10" height="11" viewBox="0 0 10 11" fill="none" xmlns="http://www.w3.org/2000/svg">
<path d="M2.63854 3.25572C3.14383 3.25572 3.55345 2.8461 3.55345 2.34081C3.55345 1.83552 3.14383 1.4259 2.63854 1.4259C2.13325 1.4259 1.72363 1.83552 1.72363 2.34081C1.72363 2.8461 2.13325 3.25572 2.63854 3.25572Z" stroke="black" stroke-width="0.609939" stroke-linecap="round" stroke-linejoin="round"/>
<path d="M5.07848 9.35521C5.58377 9.35521 5.99339 8.94559 5.99339 8.4403C5.99339 7.93501 5.58377 7.52539 5.07848 7.52539C4.57319 7.52539 4.16357 7.93501 4.16357 8.4403C4.16357 8.94559 4.57319 9.35521 5.07848 9.35521Z" stroke="black" stroke-width="0.609939" stroke-linecap="round" stroke-linejoin="round"/>
<path d="M5.07812 5.3905V7.52529" stroke="black" stroke-width="0.609939" stroke-linecap="round" stroke-linejoin="round"/>
<path d="M7.51794 3.25572C8.02323 3.25572 8.43284 2.8461 8.43284 2.34081C8.43284 1.83552 8.02323 1.4259 7.51794 1.4259C7.01265 1.4259 6.60303 1.83552 6.60303 2.34081C6.60303 2.8461 7.01265 3.25572 7.51794 3.25572Z" stroke="black" stroke-width="0.609939" stroke-linecap="round" stroke-linejoin="round"/>
<path d="M2.63867 3.25574C2.63867 4.67899 3.95233 5.39052 5.07843 5.39052" stroke="black" stroke-width="0.609939" stroke-linecap="round" stroke-linejoin="round"/>
<path d="M7.51788 3.25574C7.51788 4.67899 6.20422 5.39052 5.07812 5.39052" stroke="black" stroke-width="0.609939" stroke-linecap="round" stroke-linejoin="round"/>
</svg>
