<svg width="11" height="11" viewBox="0 0 11 11" fill="none" xmlns="http://www.w3.org/2000/svg">
<g clip-path="url(#clip0_201_10842)">
<path d="M6.53677 3.56073L5.31689 2.34085L6.53677 1.12097" stroke="black" stroke-width="0.609939" stroke-linecap="round" stroke-linejoin="round"/>
<path d="M4.68799 7.22046L5.90787 8.44034L4.68799 9.66021" stroke="black" stroke-width="0.609939" stroke-linecap="round" stroke-linejoin="round"/>
<path d="M2.87682 3.25584C3.38211 3.25584 3.79173 2.84622 3.79173 2.34093C3.79173 1.83564 3.38211 1.42603 2.87682 1.42603C2.37153 1.42603 1.96191 1.83564 1.96191 2.34093C1.96191 2.84622 2.37153 3.25584 2.87682 3.25584Z" stroke="black" stroke-width="0.609939" stroke-linecap="round" stroke-linejoin="round"/>
<path d="M8.36657 9.35521C8.87186 9.35521 9.28148 8.94559 9.28148 8.4403C9.28148 7.93501 8.87186 7.52539 8.36657 7.52539C7.86128 7.52539 7.45166 7.93501 7.45166 8.4403C7.45166 8.94559 7.86128 9.35521 8.36657 9.35521Z" stroke="black" stroke-width="0.609939" stroke-linecap="round" stroke-linejoin="round"/>
<path d="M5.62158 2.34094H7.22267C7.52598 2.34094 7.81687 2.46143 8.03134 2.67591C8.24582 2.89038 8.36631 3.18127 8.36631 3.48458V7.52542" stroke="black" stroke-width="0.609939" stroke-linecap="round" stroke-linejoin="round"/>
<path d="M5.60263 8.44022H4.00155C3.69823 8.44022 3.40735 8.31973 3.19287 8.10525C2.9784 7.89078 2.85791 7.59989 2.85791 7.29658V3.25574" stroke="black" stroke-width="0.609939" stroke-linecap="round" stroke-linejoin="round"/>
</g>
<defs>
<clipPath id="clip0_201_10842">
<rect width="9.75902" height="9.75902" fill="white" transform="translate(0.742188 0.510986)"/>
</clipPath>
</defs>
</svg>
