<svg width="11" height="11" viewBox="0 0 11 11" fill="none" xmlns="http://www.w3.org/2000/svg">
<path d="M7.9269 1.12109C7.72058 1.12113 7.51764 1.17349 7.33707 1.27328C7.15649 1.37307 7.00417 1.51703 6.89436 1.6917C6.78455 1.86636 6.72083 2.06603 6.70917 2.27201C6.69751 2.478 6.73828 2.68358 6.82767 2.86952L5.47761 4.41L4.13975 2.88325C4.25767 2.64563 4.29492 2.37605 4.24586 2.11536C4.1968 1.85467 4.0641 1.61708 3.86787 1.43858C3.67165 1.26009 3.42258 1.15042 3.15842 1.12619C2.89427 1.10197 2.62941 1.16451 2.40399 1.30434C2.17857 1.44417 2.00488 1.65367 1.90922 1.90109C1.81357 2.14851 1.80117 2.42036 1.8739 2.67546C1.94664 2.93056 2.10055 3.155 2.3123 3.31477C2.52406 3.47454 2.78212 3.56093 3.04739 3.56085C3.06835 3.56085 3.08932 3.56085 3.11009 3.55933L4.8772 5.57555V7.38459C4.64464 7.51886 4.46288 7.72612 4.36012 7.97421C4.25736 8.22231 4.23933 8.49738 4.30883 8.75677C4.37833 9.01615 4.53148 9.24536 4.74453 9.40883C4.95757 9.57231 5.2186 9.66092 5.48714 9.66092C5.75568 9.66092 6.01671 9.57231 6.22975 9.40883C6.4428 9.24536 6.59595 9.01615 6.66545 8.75677C6.73495 8.49738 6.71692 8.22231 6.61416 7.97421C6.5114 7.72612 6.32964 7.51886 6.09708 7.38459V5.55382L7.84646 3.55799C7.87295 3.55971 7.89983 3.56085 7.9269 3.56085C8.25043 3.56085 8.56071 3.43233 8.78948 3.20356C9.01825 2.97478 9.14677 2.6645 9.14677 2.34097C9.14677 2.01744 9.01825 1.70716 8.78948 1.47839C8.56071 1.24962 8.25043 1.12109 7.9269 1.12109ZM2.43745 2.34097C2.43745 2.22034 2.47322 2.10241 2.54024 2.00211C2.60726 1.9018 2.70252 1.82363 2.81397 1.77746C2.92542 1.7313 3.04806 1.71922 3.16638 1.74275C3.2847 1.76629 3.39338 1.82438 3.47868 1.90968C3.56398 1.99498 3.62207 2.10366 3.6456 2.22198C3.66914 2.3403 3.65706 2.46293 3.6109 2.57439C3.56473 2.68584 3.48655 2.7811 3.38625 2.84812C3.28595 2.91514 3.16802 2.95091 3.04739 2.95091C2.88562 2.95091 2.73048 2.88665 2.61609 2.77226C2.50171 2.65788 2.43745 2.50274 2.43745 2.34097ZM5.48714 9.0503C5.36651 9.0503 5.24858 9.01453 5.14828 8.94751C5.04797 8.88049 4.9698 8.78523 4.92363 8.67377C4.87747 8.56232 4.86539 8.43968 4.88892 8.32137C4.91246 8.20305 4.97055 8.09437 5.05585 8.00907C5.14115 7.92377 5.24983 7.86568 5.36815 7.84214C5.48646 7.81861 5.6091 7.83069 5.72055 7.87685C5.83201 7.92302 5.92726 8.00119 5.99429 8.1015C6.06131 8.2018 6.09708 8.31973 6.09708 8.44036C6.09708 8.60213 6.03282 8.75727 5.91843 8.87165C5.80405 8.98604 5.64891 9.0503 5.48714 9.0503ZM7.9269 2.95091C7.80626 2.95091 7.68834 2.91514 7.58803 2.84812C7.48773 2.7811 7.40955 2.68584 7.36339 2.57439C7.31722 2.46293 7.30514 2.3403 7.32868 2.22198C7.35221 2.10366 7.4103 1.99498 7.4956 1.90968C7.5809 1.82438 7.68959 1.76629 7.8079 1.74275C7.92622 1.71922 8.04886 1.7313 8.16031 1.77746C8.27176 1.82363 8.36702 1.9018 8.43404 2.00211C8.50106 2.10241 8.53683 2.22034 8.53683 2.34097C8.53683 2.50274 8.47257 2.65788 8.35819 2.77226C8.2438 2.88665 8.08866 2.95091 7.9269 2.95091Z" fill="black"/>
</svg>
