<svg width="11" height="11" viewBox="0 0 11 11" fill="none" xmlns="http://www.w3.org/2000/svg">
<path d="M8.12771 4.78067C7.91409 4.78078 7.70424 4.83698 7.51916 4.94365C7.33409 5.05032 7.18026 5.20373 7.07309 5.38851C6.26816 5.36545 5.44931 5.14606 4.85806 4.79135C4.2443 4.42309 3.91055 3.95268 3.86405 3.39325C4.0956 3.25783 4.27606 3.04986 4.37749 2.80154C4.47893 2.55321 4.49569 2.27838 4.42518 2.01957C4.35466 1.76076 4.20081 1.5324 3.98742 1.36985C3.77404 1.2073 3.51303 1.11962 3.24479 1.12037C2.97654 1.12112 2.71603 1.21026 2.50356 1.37401C2.29109 1.53775 2.13851 1.76696 2.06945 2.02616C2.00038 2.28536 2.01868 2.5601 2.12151 2.80785C2.22433 3.05561 2.40595 3.26256 2.63826 3.39668V7.38454C2.4057 7.51881 2.22394 7.72606 2.12118 7.97416C2.01841 8.22225 2.00038 8.49732 2.06989 8.75671C2.13939 9.0161 2.29254 9.2453 2.50558 9.40878C2.71863 9.57225 2.97966 9.66086 3.2482 9.66086C3.51674 9.66086 3.77777 9.57225 3.99081 9.40878C4.20386 9.2453 4.35701 9.0161 4.42651 8.75671C4.49601 8.49732 4.47798 8.22225 4.37522 7.97416C4.27245 7.72606 4.0907 7.51881 3.85814 7.38454V5.58407C4.71129 6.23213 5.90296 6.58247 7.07099 6.60877C7.17781 6.79449 7.33166 6.9488 7.51706 7.05617C7.70246 7.16354 7.91287 7.2202 8.12712 7.22043C8.34136 7.22065 8.55189 7.16445 8.73752 7.05748C8.92315 6.9505 9.07733 6.79652 9.18455 6.61103C9.29177 6.42555 9.34825 6.21509 9.3483 6.00084C9.34835 5.7866 9.29198 5.57611 9.18485 5.39057C9.07772 5.20503 8.92361 5.05098 8.73803 4.94391C8.55246 4.83685 8.34196 4.78055 8.12771 4.78067ZM3.2482 1.73098C3.36883 1.73098 3.48676 1.76675 3.58706 1.83377C3.68737 1.90079 3.76554 1.99605 3.81171 2.1075C3.85787 2.21895 3.86995 2.34159 3.84642 2.45991C3.82288 2.57823 3.76479 2.68691 3.67949 2.77221C3.59419 2.85751 3.48551 2.9156 3.36719 2.93914C3.24887 2.96267 3.12624 2.95059 3.01478 2.90443C2.90333 2.85826 2.80807 2.78008 2.74105 2.67978C2.67403 2.57948 2.63826 2.46155 2.63826 2.34092C2.63826 2.17915 2.70252 2.02401 2.81691 1.90962C2.93129 1.79524 3.08643 1.73098 3.2482 1.73098ZM3.2482 9.05024C3.12756 9.05024 3.00964 9.01447 2.90933 8.94745C2.80903 8.88043 2.73085 8.78517 2.68469 8.67372C2.63852 8.56227 2.62644 8.43963 2.64998 8.32131C2.67351 8.20299 2.7316 8.09431 2.81691 8.00901C2.90221 7.92371 3.01089 7.86562 3.12921 7.84208C3.24752 7.81855 3.37016 7.83063 3.48161 7.87679C3.59306 7.92296 3.68832 8.00114 3.75534 8.10144C3.82236 8.20174 3.85814 8.31967 3.85814 8.4403C3.85814 8.60207 3.79388 8.75721 3.67949 8.8716C3.5651 8.98598 3.40996 9.05024 3.2482 9.05024ZM8.12771 6.61049C8.00707 6.61049 7.88915 6.57472 7.78884 6.50769C7.68854 6.44067 7.61036 6.34541 7.5642 6.23396C7.51803 6.12251 7.50595 5.99987 7.52949 5.88156C7.55302 5.76324 7.61111 5.65456 7.69642 5.56926C7.78172 5.48396 7.8904 5.42586 8.00872 5.40233C8.12703 5.3788 8.24967 5.39087 8.36112 5.43704C8.47257 5.4832 8.56783 5.56138 8.63485 5.66168C8.70187 5.76199 8.73765 5.87991 8.73765 6.00055C8.73765 6.16231 8.67339 6.31745 8.559 6.43184C8.44461 6.54623 8.28947 6.61049 8.12771 6.61049Z" fill="black"/>
</svg>
