<svg width="11" height="11" viewBox="0 0 11 11" fill="none" xmlns="http://www.w3.org/2000/svg">
<g clip-path="url(#clip0_201_10840)">
<path d="M8.87159 4.7806H7.57547C7.44044 4.25664 7.13506 3.79244 6.70738 3.46101C6.2797 3.12957 5.75398 2.94971 5.21291 2.94971C4.67183 2.94971 4.14611 3.12957 3.71843 3.46101C3.29075 3.79244 2.98538 4.25664 2.85035 4.7806H1.55232C1.39056 4.7806 1.23542 4.84486 1.12103 4.95924C1.00664 5.07363 0.942383 5.22877 0.942383 5.39054C0.942383 5.5523 1.00664 5.70744 1.12103 5.82183C1.23542 5.93621 1.39056 6.00047 1.55232 6.00047H2.84939C2.9841 6.52485 3.28939 6.98953 3.7172 7.32133C4.14501 7.65314 4.67103 7.83322 5.21243 7.83322C5.75383 7.83322 6.27985 7.65314 6.70766 7.32133C7.13547 6.98953 7.44077 6.52485 7.57547 6.00047H8.87159C9.03335 6.00047 9.18849 5.93621 9.30288 5.82183C9.41726 5.70744 9.48153 5.5523 9.48153 5.39054C9.48153 5.22877 9.41726 5.07363 9.30288 4.95924C9.18849 4.84486 9.03335 4.7806 8.87159 4.7806ZM5.21195 6.61041C4.97069 6.61041 4.73483 6.53887 4.53423 6.40483C4.33362 6.27079 4.17726 6.08027 4.08493 5.85736C3.9926 5.63446 3.96845 5.38918 4.01552 5.15255C4.06259 4.91592 4.17877 4.69856 4.34937 4.52795C4.51997 4.35735 4.73733 4.24117 4.97397 4.1941C5.2106 4.14703 5.45588 4.17119 5.67878 4.26352C5.90168 4.35585 6.0922 4.5122 6.22624 4.71281C6.36029 4.91342 6.43183 5.14927 6.43183 5.39054C6.43148 5.71396 6.30284 6.02403 6.07415 6.25273C5.84545 6.48142 5.53538 6.61006 5.21195 6.61041Z" fill="black"/>
</g>
<defs>
<clipPath id="clip0_201_10840">
<rect width="9.75902" height="9.75902" fill="white" transform="translate(0.33252 0.510986)"/>
</clipPath>
</defs>
</svg>
