<svg width="10" height="11" viewBox="0 0 10 11" fill="none" xmlns="http://www.w3.org/2000/svg">
<g clip-path="url(#clip0_201_10886)">
<path d="M3.90509 2.34092C3.90521 2.12676 3.84894 1.91634 3.74195 1.73081C3.63496 1.54529 3.48101 1.39121 3.29559 1.28405C3.11016 1.17689 2.8998 1.12044 2.68563 1.12036C2.47147 1.12029 2.26107 1.17659 2.07557 1.28362C1.89007 1.39065 1.73601 1.54463 1.62889 1.73008C1.52177 1.91553 1.46536 2.12591 1.46533 2.34007C1.4653 2.55423 1.52165 2.76463 1.62872 2.9501C1.73579 3.13558 1.8898 3.2896 2.07527 3.39668V7.38454C1.84271 7.51881 1.66095 7.72606 1.55819 7.97416C1.45543 8.22225 1.4374 8.49733 1.5069 8.75671C1.5764 9.0161 1.72955 9.24531 1.9426 9.40878C2.15564 9.57225 2.41667 9.66086 2.68521 9.66086C2.95375 9.66086 3.21478 9.57225 3.42782 9.40878C3.64087 9.24531 3.79402 9.0161 3.86352 8.75671C3.93302 8.49733 3.91499 8.22225 3.81223 7.97416C3.70947 7.72606 3.52771 7.51881 3.29515 7.38454V3.39668C3.48049 3.28967 3.63442 3.13579 3.74149 2.95047C3.84855 2.76516 3.90497 2.55494 3.90509 2.34092ZM2.68521 1.73098C2.80584 1.73098 2.92377 1.76675 3.02407 1.83377C3.12438 1.90079 3.20256 1.99605 3.24872 2.1075C3.29488 2.21896 3.30696 2.34159 3.28343 2.45991C3.25989 2.57823 3.2018 2.68691 3.1165 2.77221C3.0312 2.85751 2.92252 2.9156 2.8042 2.93914C2.68589 2.96267 2.56325 2.95059 2.4518 2.90443C2.34034 2.85826 2.24509 2.78009 2.17806 2.67978C2.11104 2.57948 2.07527 2.46155 2.07527 2.34092C2.07527 2.17915 2.13953 2.02401 2.25392 1.90963C2.3683 1.79524 2.52344 1.73098 2.68521 1.73098ZM2.68521 9.05025C2.56458 9.05025 2.44665 9.01447 2.34635 8.94745C2.24604 8.88043 2.16786 8.78517 2.1217 8.67372C2.07554 8.56227 2.06346 8.43963 2.08699 8.32131C2.11053 8.203 2.16862 8.09432 2.25392 8.00901C2.33922 7.92371 2.4479 7.86562 2.56622 7.84209C2.68453 7.81855 2.80717 7.83063 2.91862 7.8768C3.03008 7.92296 3.12533 8.00114 3.19236 8.10144C3.25938 8.20175 3.29515 8.31967 3.29515 8.44031C3.29515 8.60207 3.23089 8.75721 3.1165 8.8716C3.00212 8.98598 2.84698 9.05025 2.68521 9.05025Z" fill="black"/>
<path d="M8.17491 7.38461V3.48463C8.17441 3.0197 7.98949 2.57397 7.66074 2.24522C7.33199 1.91647 6.88626 1.73156 6.42134 1.73105H6.04012V1.12111C6.0401 1.06082 6.02219 1.00188 5.98868 0.951754C5.95517 0.901628 5.90755 0.862562 5.85184 0.839491C5.79613 0.81642 5.73484 0.810381 5.6757 0.822136C5.61656 0.833892 5.56223 0.862915 5.51958 0.905537L4.2997 2.12541C4.24255 2.1826 4.21045 2.26014 4.21045 2.34099C4.21045 2.42184 4.24255 2.49938 4.2997 2.55657L5.51958 3.77644C5.56223 3.81907 5.61656 3.84809 5.6757 3.85984C5.73484 3.8716 5.79613 3.86556 5.85184 3.84249C5.90755 3.81942 5.95517 3.78035 5.98868 3.73023C6.02219 3.6801 6.0401 3.62116 6.04012 3.56087V2.95093H6.42134C6.56288 2.95093 6.69863 3.00716 6.79872 3.10724C6.8988 3.20733 6.95503 3.34308 6.95503 3.48463V7.38461C6.72247 7.51888 6.54072 7.72613 6.43795 7.97423C6.33519 8.22233 6.31716 8.4974 6.38666 8.75678C6.45616 9.01617 6.60931 9.24538 6.82236 9.40885C7.0354 9.57233 7.29643 9.66093 7.56497 9.66093C7.83351 9.66093 8.09454 9.57233 8.30759 9.40885C8.52063 9.24538 8.67378 9.01617 8.74328 8.75678C8.81278 8.4974 8.79476 8.22233 8.69199 7.97423C8.58923 7.72613 8.40747 7.51888 8.17491 7.38461ZM7.56497 9.05032C7.44434 9.05032 7.32641 9.01454 7.22611 8.94752C7.1258 8.8805 7.04763 8.78524 7.00146 8.67379C6.9553 8.56234 6.94322 8.4397 6.96675 8.32138C6.99029 8.20307 7.04838 8.09439 7.13368 8.00909C7.21898 7.92378 7.32766 7.86569 7.44598 7.84216C7.56429 7.81862 7.68693 7.8307 7.79838 7.87687C7.90984 7.92303 8.0051 8.00121 8.07212 8.10151C8.13914 8.20182 8.17491 8.31974 8.17491 8.44038C8.17491 8.60214 8.11065 8.75728 7.99626 8.87167C7.88188 8.98606 7.72674 9.05032 7.56497 9.05032Z" fill="black"/>
</g>
<defs>
<clipPath id="clip0_201_10886">
<rect width="9.75902" height="9.75902" fill="white" transform="translate(0.245605 0.511108)"/>
</clipPath>
</defs>
</svg>
