<svg width="10" height="11" viewBox="0 0 10 11" fill="none" xmlns="http://www.w3.org/2000/svg">
<path d="M8.03358 3.5608C8.03367 3.34689 7.97752 3.13672 7.87076 2.95137C7.76399 2.76601 7.61036 2.61199 7.42528 2.50475C7.2402 2.39751 7.03018 2.34082 6.81628 2.34037C6.60237 2.33992 6.39211 2.39572 6.20658 2.50218C6.02105 2.60864 5.86677 2.76201 5.75922 2.94691C5.65168 3.13181 5.59464 3.34174 5.59383 3.55564C5.59302 3.76955 5.64848 3.9799 5.75463 4.16561C5.86078 4.35132 6.01389 4.50585 6.19861 4.6137C6.15497 5.16798 5.81588 5.31894 4.76907 5.53662C4.43055 5.60676 4.08422 5.67862 3.76439 5.80213V3.39668C3.99695 3.26242 4.1787 3.05516 4.28147 2.80707C4.38423 2.55897 4.40226 2.2839 4.33276 2.02451C4.26326 1.76512 4.11011 1.53592 3.89706 1.37245C3.68402 1.20897 3.42299 1.12036 3.15445 1.12036C2.88591 1.12036 2.62488 1.20897 2.41183 1.37245C2.19879 1.53592 2.04564 1.76512 1.97614 2.02451C1.90663 2.2839 1.92466 2.55897 2.02743 2.80707C2.13019 3.05516 2.31195 3.26242 2.54451 3.39668V7.38454C2.3123 7.51863 2.13074 7.72549 2.02791 7.97313C1.92508 8.22077 1.90671 8.49539 1.97564 8.75452C2.04456 9.01365 2.19695 9.24285 2.40923 9.40667C2.6215 9.57049 2.88184 9.65981 3.14998 9.66081C3.41812 9.66181 3.67911 9.57443 3.89261 9.4122C4.1061 9.24996 4.26019 9.0219 4.33104 8.76329C4.4019 8.50468 4.38557 8.22993 4.28459 7.98153C4.18361 7.73313 4.00359 7.52493 3.77239 7.38911C3.81795 7.04602 4.07736 6.92537 5.01629 6.73114C5.53912 6.62307 6.07949 6.51118 6.53694 6.21746C7.0897 5.86332 7.38571 5.32581 7.42059 4.61847C7.60678 4.51168 7.7615 4.35766 7.86913 4.17196C7.97676 3.98625 8.03348 3.77544 8.03358 3.5608ZM3.15407 1.73098C3.2747 1.73098 3.39263 1.76675 3.49293 1.83377C3.59323 1.90079 3.67141 1.99605 3.71758 2.1075C3.76374 2.21896 3.77582 2.34159 3.75229 2.45991C3.72875 2.57823 3.67066 2.68691 3.58536 2.77221C3.50006 2.85751 3.39138 2.9156 3.27306 2.93914C3.15474 2.96267 3.03211 2.95059 2.92065 2.90443C2.8092 2.85826 2.71394 2.78009 2.64692 2.67978C2.5799 2.57948 2.54413 2.46155 2.54413 2.34092C2.54413 2.17915 2.60839 2.02401 2.72278 1.90963C2.83716 1.79524 2.9923 1.73098 3.15407 1.73098ZM3.15407 9.05025C3.03343 9.05025 2.91551 9.01447 2.8152 8.94745C2.7149 8.88043 2.63672 8.78517 2.59056 8.67372C2.54439 8.56227 2.53231 8.43963 2.55585 8.32131C2.57938 8.203 2.63747 8.09432 2.72278 8.00901C2.80808 7.92371 2.91676 7.86562 3.03507 7.84209C3.15339 7.81855 3.27603 7.83063 3.38748 7.8768C3.49893 7.92296 3.59419 8.00114 3.66121 8.10144C3.72823 8.20175 3.76401 8.31967 3.76401 8.44031C3.76401 8.60207 3.69974 8.75721 3.58536 8.8716C3.47097 8.98598 3.31583 9.05025 3.15407 9.05025ZM6.8137 4.17073C6.69307 4.17073 6.57514 4.13496 6.47484 4.06794C6.37453 4.00092 6.29635 3.90566 6.25019 3.79421C6.20402 3.68276 6.19195 3.56012 6.21548 3.4418C6.23902 3.32349 6.29711 3.21481 6.38241 3.1295C6.46771 3.0442 6.57639 2.98611 6.69471 2.96258C6.81302 2.93904 6.93566 2.95112 7.04711 2.99729C7.15856 3.04345 7.25382 3.12163 7.32084 3.22193C7.38787 3.32224 7.42364 3.44016 7.42364 3.5608C7.42364 3.72256 7.35938 3.8777 7.24499 3.99209C7.13061 4.10647 6.97547 4.17073 6.8137 4.17073Z" fill="black"/>
</svg>
