<svg width="11" height="11" viewBox="0 0 11 11" fill="none" xmlns="http://www.w3.org/2000/svg">
<path d="M7.40392 2.34092C7.20225 2.34094 7.00372 2.39097 6.82612 2.48653C6.64851 2.58208 6.49737 2.72018 6.38621 2.88846C6.27506 3.05674 6.20736 3.24996 6.18918 3.45081C6.17099 3.65167 6.20289 3.8539 6.28202 4.03941L4.35423 5.71674V3.39668C4.58679 3.26242 4.76855 3.05516 4.87131 2.80707C4.97408 2.55897 4.99211 2.2839 4.9226 2.02451C4.8531 1.76512 4.69995 1.53592 4.48691 1.37245C4.27386 1.20897 4.01283 1.12036 3.74429 1.12036C3.47576 1.12036 3.21472 1.20897 3.00168 1.37245C2.78863 1.53592 2.63548 1.76512 2.56598 2.02451C2.49648 2.2839 2.51451 2.55897 2.61727 2.80707C2.72004 3.05516 2.90179 3.26242 3.13435 3.39668V7.38454C2.90179 7.51881 2.72004 7.72606 2.61727 7.97416C2.51451 8.22225 2.49648 8.49733 2.56598 8.75671C2.63548 9.0161 2.78863 9.24531 3.00168 9.40878C3.21472 9.57225 3.47576 9.66086 3.74429 9.66086C4.01283 9.66086 4.27386 9.57225 4.48691 9.40878C4.69995 9.24531 4.8531 9.0161 4.9226 8.75671C4.99211 8.49733 4.97408 8.22225 4.87131 7.97416C4.76855 7.72606 4.58679 7.51881 4.35423 7.38454V7.33479L7.29433 4.77553C7.33054 4.77877 7.36695 4.78067 7.40392 4.78067C7.72746 4.78067 8.03774 4.65215 8.26651 4.42338C8.49528 4.19461 8.6238 3.88433 8.6238 3.5608C8.6238 3.23726 8.49528 2.92698 8.26651 2.69821C8.03774 2.46944 7.72746 2.34092 7.40392 2.34092ZM3.74429 1.73098C3.86493 1.73098 3.98285 1.76675 4.08316 1.83377C4.18346 1.90079 4.26164 1.99605 4.3078 2.1075C4.35397 2.21896 4.36605 2.34159 4.34251 2.45991C4.31898 2.57823 4.26089 2.68691 4.17558 2.77221C4.09028 2.85751 3.9816 2.9156 3.86329 2.93914C3.74497 2.96267 3.62233 2.95059 3.51088 2.90443C3.39943 2.85826 3.30417 2.78009 3.23715 2.67978C3.17013 2.57948 3.13435 2.46155 3.13435 2.34092C3.13435 2.17915 3.19861 2.02401 3.313 1.90963C3.42739 1.79524 3.58253 1.73098 3.74429 1.73098ZM3.74429 9.05025C3.62366 9.05025 3.50573 9.01447 3.40543 8.94745C3.30512 8.88043 3.22695 8.78517 3.18078 8.67372C3.13462 8.56227 3.12254 8.43963 3.14607 8.32131C3.16961 8.203 3.2277 8.09432 3.313 8.00901C3.3983 7.92371 3.50698 7.86562 3.6253 7.84209C3.74362 7.81855 3.86625 7.83063 3.97771 7.8768C4.08916 7.92296 4.18442 8.00114 4.25144 8.10144C4.31846 8.20175 4.35423 8.31967 4.35423 8.44031C4.35423 8.60207 4.28997 8.75721 4.17558 8.8716C4.0612 8.98598 3.90606 9.05025 3.74429 9.05025ZM7.40392 4.17073C7.28329 4.17073 7.16536 4.13496 7.06506 4.06794C6.96476 4.00092 6.88658 3.90566 6.84041 3.79421C6.79425 3.68276 6.78217 3.56012 6.80571 3.4418C6.82924 3.32349 6.88733 3.21481 6.97263 3.1295C7.05793 3.0442 7.16662 2.98611 7.28493 2.96258C7.40325 2.93904 7.52589 2.95112 7.63734 2.99729C7.74879 3.04345 7.84405 3.12163 7.91107 3.22193C7.97809 3.32224 8.01386 3.44016 8.01386 3.5608C8.01386 3.72256 7.9496 3.8777 7.83522 3.99209C7.72083 4.10647 7.56569 4.17073 7.40392 4.17073Z" fill="black"/>
</svg>
