<svg width="11" height="11" viewBox="0 0 11 11" fill="none" xmlns="http://www.w3.org/2000/svg">
<path d="M9.31816 4.01835H9.1104C9.01416 3.96151 8.91186 3.91561 8.80543 3.88149C8.46996 3.77056 8.02699 3.71338 7.48834 3.71338C6.94969 3.71338 6.50672 3.77056 6.17202 3.88149C5.90403 3.97089 5.78604 4.06943 5.74792 4.10774C5.62485 4.0489 5.49016 4.01835 5.35375 4.01835C5.21733 4.01835 5.08264 4.0489 4.95957 4.10774C4.92145 4.06962 4.80347 3.97089 4.53548 3.88149C4.20039 3.77056 3.75742 3.71338 3.21877 3.71338C2.68012 3.71338 2.23715 3.77056 1.90245 3.88149C1.79601 3.91561 1.69372 3.96151 1.59748 4.01835H1.38895C1.30807 4.01835 1.2305 4.05048 1.17331 4.10767C1.11611 4.16486 1.08398 4.24243 1.08398 4.32332C1.08398 4.4042 1.11611 4.48177 1.17331 4.53896C1.2305 4.59616 1.30807 4.62829 1.38895 4.62829H1.39219C1.41125 5.49478 1.51494 6.01552 1.73738 6.38625C1.87672 6.6256 2.09033 6.81297 2.3458 6.91994C2.57891 7.01982 2.86462 7.06842 3.21877 7.06842C3.67908 7.06842 4.33343 6.99771 4.70016 6.38663C4.88467 6.07899 4.98778 5.66823 5.02819 5.04247C5.04162 5.00762 5.04853 4.9706 5.04859 4.93326C5.04859 4.85237 5.08072 4.7748 5.13791 4.71761C5.1951 4.66042 5.27267 4.62829 5.35356 4.62829C5.43444 4.62829 5.51201 4.66042 5.5692 4.71761C5.62639 4.7748 5.65852 4.85237 5.65852 4.93326C5.65863 4.97048 5.66554 5.00736 5.67892 5.04209C5.71933 5.66785 5.82245 6.07861 6.00695 6.38625C6.14629 6.6256 6.3599 6.81297 6.61537 6.91994C6.84848 7.01982 7.1342 7.06842 7.48834 7.06842C7.94865 7.06842 8.603 6.99771 8.96973 6.38663C9.19217 6.0159 9.29624 5.49516 9.31492 4.62867H9.31816C9.39904 4.62867 9.47661 4.59654 9.5338 4.53934C9.591 4.48215 9.62313 4.40458 9.62313 4.3237C9.62313 4.24282 9.591 4.16525 9.5338 4.10805C9.47661 4.05086 9.39904 4.01873 9.31816 4.01873V4.01835Z" fill="black"/>
</svg>
