<svg width="11" height="11" viewBox="0 0 11 11" fill="none" xmlns="http://www.w3.org/2000/svg">
<path d="M4.9248 4.93318C4.9248 4.77142 4.98907 4.61627 5.10345 4.50189C5.21784 4.3875 5.37298 4.32324 5.53474 4.32324C5.69651 4.32324 5.85165 4.3875 5.96604 4.50189C6.08042 4.61627 6.14468 4.77142 6.14468 4.93318" stroke="black" stroke-width="0.609939" stroke-linecap="round" stroke-linejoin="round"/>
<path d="M9.19434 4.32324H9.49931" stroke="black" stroke-width="0.609939" stroke-linecap="round" stroke-linejoin="round"/>
<path d="M1.87528 4.32324H1.57031" stroke="black" stroke-width="0.609939" stroke-linecap="round" stroke-linejoin="round"/>
<path d="M1.875 4.32328C1.875 6.1531 2.17997 6.76304 3.39985 6.76304C4.61972 6.76304 4.92469 6.1531 4.92469 4.32328C4.92469 4.32328 4.61972 4.01831 3.39985 4.01831C2.17997 4.01831 1.875 4.32328 1.875 4.32328Z" stroke="black" stroke-width="0.609939" stroke-linecap="round" stroke-linejoin="round"/>
<path d="M9.19422 4.32328C9.19422 6.1531 8.88926 6.76304 7.66938 6.76304C6.4495 6.76304 6.14453 6.1531 6.14453 4.32328C6.14453 4.32328 6.4495 4.01831 7.66938 4.01831C8.88926 4.01831 9.19422 4.32328 9.19422 4.32328Z" stroke="black" stroke-width="0.609939" stroke-linecap="round" stroke-linejoin="round"/>
</svg>
