<svg width="11" height="11" viewBox="0 0 11 11" fill="none" xmlns="http://www.w3.org/2000/svg">
<path d="M7.19678 7.07739C7.30942 6.68283 7.38395 6.22443 7.41235 5.78432C7.41298 5.77282 7.41124 5.76132 7.40723 5.75052C7.40323 5.73972 7.39705 5.72986 7.38908 5.72155C7.38111 5.71324 7.37152 5.70666 7.3609 5.70221C7.35028 5.69776 7.33886 5.69554 7.32734 5.69569H5.9729C5.96181 5.69559 5.95081 5.69767 5.94052 5.70182C5.93024 5.70597 5.92088 5.71211 5.91296 5.71988C5.90505 5.72765 5.89875 5.7369 5.89441 5.74711C5.89008 5.75731 5.88779 5.76827 5.8877 5.77936V6.83341C5.88793 6.8547 5.89619 6.87512 5.91082 6.89059C5.92544 6.90607 5.94536 6.91546 5.96661 6.9169C6.3483 6.94774 6.72543 7.02055 7.09118 7.134C7.11269 7.14047 7.13589 7.13814 7.15568 7.12753C7.17548 7.11691 7.19026 7.09888 7.19678 7.07739Z" fill="black"/>
<path d="M6.86951 7.70296C6.57933 7.61824 6.28202 7.56025 5.98128 7.5297C5.96967 7.5284 5.95791 7.52953 5.94675 7.53302C5.9356 7.53651 5.92529 7.54229 5.91649 7.54998C5.90769 7.55767 5.90058 7.56711 5.89562 7.57769C5.89067 7.58828 5.88797 7.59978 5.8877 7.61147V8.85498C5.88815 8.86981 5.89248 8.88427 5.90024 8.89692C5.908 8.90957 5.91893 8.91997 5.93195 8.9271C5.94497 8.93422 5.95962 8.93782 5.97446 8.93754C5.9893 8.93726 6.0038 8.93311 6.01654 8.9255C6.31961 8.74881 6.5693 8.45204 6.79498 8.05958C6.83196 7.99554 6.88819 7.88518 6.92211 7.8177C6.92738 7.80685 6.93018 7.79496 6.93032 7.7829C6.93045 7.77083 6.92791 7.75889 6.92288 7.74792C6.91785 7.73695 6.91046 7.72723 6.90123 7.71946C6.892 7.71168 6.88117 7.70605 6.86951 7.70296Z" fill="black"/>
<path d="M5.18696 7.53311C4.88659 7.56168 4.5895 7.61796 4.29949 7.70123C4.24917 7.71571 4.22802 7.78509 4.25089 7.83065C4.28501 7.8985 4.32713 7.98523 4.36316 8.05004C4.61094 8.48843 4.87474 8.76481 5.14922 8.92549C5.16196 8.9331 5.17646 8.93725 5.1913 8.93753C5.20614 8.93781 5.22079 8.93421 5.23381 8.92708C5.24683 8.91995 5.25776 8.90955 5.26552 8.8969C5.27329 8.88425 5.27761 8.8698 5.27807 8.85496V7.61088C5.27797 7.59952 5.27544 7.58832 5.27064 7.57802C5.26585 7.56773 5.25889 7.55858 5.25025 7.55121C5.24161 7.54383 5.23149 7.5384 5.22057 7.53528C5.20965 7.53216 5.19819 7.53142 5.18696 7.53311Z" fill="black"/>
<path d="M5.19299 5.69569H3.83854C3.82705 5.69554 3.81564 5.69775 3.80503 5.70219C3.79443 5.70663 3.78484 5.7132 3.77687 5.72149C3.76891 5.72978 3.76272 5.73961 3.75871 5.75039C3.75469 5.76116 3.75293 5.77264 3.75353 5.78413C3.78174 6.22366 3.85589 6.68302 3.96815 7.0772C3.97134 7.08798 3.97663 7.09803 3.98373 7.10676C3.99082 7.11549 3.99958 7.12272 4.00949 7.12804C4.0194 7.13336 4.03027 7.13665 4.04146 7.13774C4.05266 7.13883 4.06395 7.13769 4.0747 7.13438C4.44042 7.02093 4.81758 6.94831 5.19928 6.91785C5.22056 6.91646 5.24052 6.90709 5.25519 6.89161C5.26985 6.87613 5.27814 6.85569 5.27838 6.83436V5.77955C5.27831 5.76843 5.27603 5.75743 5.2717 5.74719C5.26736 5.73695 5.26104 5.72767 5.25311 5.71988C5.24518 5.71208 5.23578 5.70593 5.22546 5.70178C5.21514 5.69763 5.20411 5.69556 5.19299 5.69569Z" fill="black"/>
<path d="M5.98177 3.25172C6.28231 3.22356 6.57925 3.16519 6.86809 3.0775C6.87968 3.07437 6.89044 3.06873 6.89962 3.06097C6.90879 3.05322 6.91614 3.04354 6.92116 3.03263C6.92618 3.02172 6.92874 3.00984 6.92866 2.99784C6.92858 2.98583 6.92586 2.97398 6.9207 2.96314C6.88658 2.89509 6.83931 2.79769 6.80309 2.7327C6.56884 2.31336 6.30485 2.02078 6.01703 1.85591C6.00428 1.84836 5.98979 1.84426 5.97497 1.84401C5.96015 1.84376 5.94552 1.84737 5.93253 1.85448C5.91953 1.8616 5.9086 1.87197 5.90083 1.88459C5.89305 1.8972 5.8887 1.91162 5.88818 1.92643V3.16976C5.88846 3.18145 5.89116 3.19296 5.89611 3.20355C5.90107 3.21415 5.90817 3.22359 5.91697 3.2313C5.92577 3.23901 5.93607 3.2448 5.94723 3.24831C5.95838 3.25183 5.97014 3.25299 5.98177 3.25172Z" fill="black"/>
<path d="M5.9729 5.08562H7.32734C7.33875 5.08582 7.35008 5.08367 7.36064 5.07932C7.37119 5.07498 7.38074 5.06851 7.3887 5.06034C7.39667 5.05216 7.40287 5.04244 7.40694 5.03178C7.411 5.02111 7.41285 5.00973 7.41235 4.99833C7.38414 4.56432 7.3119 4.08723 7.19964 3.69801C7.19635 3.68731 7.19099 3.67736 7.18385 3.66874C7.17671 3.66012 7.16794 3.65299 7.15804 3.64777C7.14814 3.64254 7.13731 3.63932 7.12616 3.6383C7.11501 3.63727 7.10377 3.63846 7.09309 3.64178C6.73094 3.75119 6.35373 3.84059 5.9668 3.87051C5.94565 3.87171 5.92574 3.88087 5.91107 3.89614C5.8964 3.91142 5.88805 3.93168 5.8877 3.95285V5.00328C5.8881 5.02549 5.89729 5.04664 5.91327 5.06207C5.92924 5.07751 5.95069 5.08598 5.9729 5.08562Z" fill="black"/>
<path d="M5.14902 1.85604C4.8551 2.01939 4.59302 2.32169 4.35858 2.73988C4.32217 2.80488 4.27871 2.89447 4.24421 2.96232C4.23908 2.97317 4.23639 2.98501 4.23633 2.99701C4.23627 3.009 4.23883 3.02087 4.24385 3.03177C4.24886 3.04267 4.2562 3.05234 4.26535 3.0601C4.27451 3.06786 4.28525 3.07352 4.29682 3.07668C4.58554 3.16598 4.88288 3.22457 5.1839 3.25147C5.19551 3.25274 5.20726 3.25159 5.2184 3.24808C5.22954 3.24458 5.23984 3.2388 5.24863 3.23112C5.25743 3.22343 5.26454 3.21401 5.2695 3.20344C5.27447 3.19286 5.27719 3.18138 5.27749 3.1697V1.92657C5.27689 1.91184 5.27249 1.89751 5.26472 1.88498C5.25696 1.87245 5.24608 1.86214 5.23316 1.85504C5.22024 1.84795 5.2057 1.84431 5.19096 1.84449C5.17622 1.84466 5.16177 1.84864 5.14902 1.85604Z" fill="black"/>
<path d="M5.19905 3.87076C4.81212 3.84121 4.43453 3.75182 4.07276 3.64203C4.06207 3.6387 4.05083 3.63752 4.03969 3.63854C4.02854 3.63957 4.01771 3.64279 4.00781 3.64801C3.99791 3.65323 3.98914 3.66036 3.982 3.66899C3.97486 3.67761 3.9695 3.68756 3.96621 3.69826C3.85395 4.08747 3.78171 4.56456 3.7535 4.99857C3.753 5.00997 3.75484 5.02136 3.75891 5.03202C3.76298 5.04269 3.76918 5.0524 3.77715 5.06058C3.78511 5.06876 3.79466 5.07522 3.80521 5.07957C3.81576 5.08392 3.8271 5.08606 3.83851 5.08587H5.19295C5.20398 5.08604 5.21494 5.08404 5.22519 5.07998C5.23545 5.07592 5.2448 5.06987 5.25272 5.06218C5.26063 5.0545 5.26695 5.04533 5.27132 5.0352C5.27568 5.02507 5.278 5.01418 5.27815 5.00315V3.9531C5.2778 3.93192 5.26945 3.91166 5.25478 3.89639C5.24011 3.88111 5.2202 3.87196 5.19905 3.87076Z" fill="black"/>
<path d="M8.6008 2.37175C8.20505 1.97208 7.73422 1.65454 7.21538 1.43738C6.69654 1.22022 6.1399 1.10772 5.57744 1.10634C5.01499 1.10495 4.4578 1.21471 3.9379 1.42932C3.41799 1.64392 2.94561 1.95913 2.54789 2.35685C2.15017 2.75457 1.83496 3.22695 1.62036 3.74686C1.40575 4.26676 1.29599 4.82395 1.29738 5.3864C1.29876 5.94886 1.41126 6.5055 1.62842 7.02434C1.84558 7.54318 2.16312 8.01401 2.56279 8.40976C2.95854 8.80943 3.42937 9.12697 3.94821 9.34413C4.46705 9.56129 5.02369 9.67379 5.58615 9.67517C6.1486 9.67656 6.70579 9.5668 7.2257 9.35219C7.7456 9.13759 8.21798 8.82238 8.6157 8.42466C9.01342 8.02694 9.32863 7.55456 9.54323 7.03466C9.75784 6.51475 9.8676 5.95756 9.86621 5.39511C9.86483 4.83265 9.75233 4.27601 9.53517 3.75717C9.31801 3.23833 9.00047 2.7675 8.6008 2.37175ZM4.06839 8.7235C3.98251 8.60289 3.9031 8.47781 3.83051 8.34877C3.79239 8.27843 3.73826 8.17227 3.70223 8.0985C3.69397 8.081 3.68215 8.06542 3.66753 8.05276C3.6529 8.04009 3.63579 8.03062 3.61729 8.02495C3.59879 8.01928 3.57931 8.01754 3.5601 8.01983C3.54088 8.02212 3.52236 8.02841 3.50572 8.03827C3.42376 8.08421 3.31511 8.1473 3.23639 8.19895C3.07131 8.07347 2.92064 7.93009 2.78713 7.77142C2.97176 7.64111 3.16546 7.52416 3.36676 7.42147C3.40222 7.40241 3.41956 7.38068 3.40832 7.3418C3.26083 6.83134 3.17075 6.30602 3.13975 5.77559C3.13883 5.75438 3.12982 5.73432 3.11458 5.71954C3.09934 5.70476 3.07902 5.69638 3.05779 5.69611H1.9763C1.9671 5.69621 1.95818 5.69299 1.95118 5.68703C1.94417 5.68108 1.93955 5.67279 1.93817 5.6637C1.9262 5.57323 1.92084 5.48201 1.92216 5.39076C1.92086 5.29968 1.92634 5.20864 1.93856 5.11838C1.93993 5.10929 1.94455 5.101 1.95156 5.09505C1.95856 5.08909 1.96748 5.08587 1.97668 5.08598H3.05817C3.10182 5.08598 3.13766 5.06082 3.13994 5.01679C3.17053 4.48856 3.26004 3.96541 3.40679 3.45706C3.41226 3.4385 3.41108 3.41862 3.40346 3.40084C3.39584 3.38306 3.38226 3.3685 3.36505 3.35966C3.16807 3.25873 2.97806 3.14475 2.79628 3.01847C2.92908 2.85985 3.07677 2.71433 3.23734 2.58389C3.31511 2.63498 3.41651 2.69273 3.49771 2.73848C3.51561 2.74865 3.5354 2.75504 3.55586 2.75725C3.57632 2.75946 3.59702 2.75745 3.61668 2.75134C3.63633 2.74523 3.65452 2.73515 3.67013 2.72172C3.68573 2.7083 3.69841 2.69181 3.70738 2.67329C3.74321 2.59952 3.78362 2.51737 3.82288 2.44685C3.89579 2.31621 3.97558 2.18953 4.0619 2.06735C4.53716 1.84345 5.05644 1.72858 5.5818 1.73112C6.13341 1.73112 6.64728 1.86455 7.11674 2.08298C7.19964 2.19937 7.276 2.32027 7.34547 2.44513C7.39484 2.53395 7.44726 2.64279 7.49148 2.73714C7.49622 2.74719 7.50297 2.75616 7.5113 2.76351C7.51964 2.77087 7.52938 2.77644 7.53994 2.7799C7.5505 2.78336 7.56166 2.78464 7.57272 2.78364C7.58379 2.78265 7.59454 2.77941 7.60431 2.77412C7.70686 2.71865 7.81798 2.6548 7.91576 2.59056C8.07679 2.72228 8.22487 2.86908 8.35797 3.02896C8.18116 3.15157 7.99609 3.26182 7.80407 3.3589C7.78683 3.36775 7.77324 3.38235 7.76565 3.40018C7.75806 3.41801 7.75695 3.43793 7.76252 3.45649C7.91165 3.96138 8.00027 4.48221 8.02651 5.00802C8.02753 5.02911 8.0366 5.049 8.05184 5.06361C8.06709 5.07822 8.08735 5.08643 8.10847 5.08655L9.18768 5.08521C9.19687 5.08511 9.20579 5.08833 9.2128 5.09429C9.2198 5.10024 9.22442 5.10853 9.2258 5.11762C9.24803 5.29878 9.24803 5.48197 9.2258 5.66313C9.2245 5.67229 9.21992 5.68067 9.21291 5.6867C9.2059 5.69273 9.19693 5.69601 9.18768 5.69592H8.10751C8.08627 5.69614 8.06592 5.70451 8.05067 5.7193C8.03542 5.73409 8.02643 5.75417 8.02555 5.7754C7.99587 6.30023 7.90719 6.82004 7.76118 7.32502C7.75566 7.3438 7.7568 7.3639 7.76441 7.38193C7.77202 7.39996 7.78562 7.41481 7.80293 7.42395C7.89823 7.47332 8.0044 7.5284 8.09589 7.58444C8.18738 7.64048 8.27792 7.70033 8.36521 7.76246C8.23313 7.9216 8.08635 8.06793 7.92682 8.19952C7.88031 8.16884 7.82504 8.13396 7.77738 8.10536C7.7446 8.0863 7.68418 8.05257 7.65063 8.0337C7.57782 7.99291 7.50043 8.0234 7.46403 8.0985C7.42762 8.1736 7.37197 8.28129 7.33308 8.35106C7.26143 8.47932 7.18285 8.60359 7.09768 8.72331C6.62841 8.94308 6.13341 9.05039 5.5818 9.05039C5.03018 9.05039 4.53785 8.94308 4.06839 8.7235Z" fill="black"/>
</svg>
