<svg width="11" height="11" viewBox="0 0 11 11" fill="none" xmlns="http://www.w3.org/2000/svg">
<g clip-path="url(#clip0_201_10899)">
<path d="M5.76294 1.42603C3.57345 1.42603 1.79834 3.20114 1.79834 5.39063C1.79834 7.58012 3.57345 9.35523 5.76294 9.35523C7.95243 9.35523 9.72754 7.58012 9.72754 5.39063C9.72754 3.20114 7.95243 1.42603 5.76294 1.42603Z" stroke="black" stroke-width="0.609939" stroke-miterlimit="10"/>
<path d="M5.76279 1.42603C4.65594 1.42603 3.61523 3.20114 3.61523 5.39063C3.61523 7.58012 4.65594 9.35523 5.76279 9.35523C6.86964 9.35523 7.91035 7.58012 7.91035 5.39063C7.91035 3.20114 6.86964 1.42603 5.76279 1.42603Z" stroke="black" stroke-width="0.609939" stroke-miterlimit="10"/>
<path d="M3.11963 2.74756C3.84851 3.26505 4.76608 3.57364 5.76276 3.57364C6.75944 3.57364 7.67702 3.26505 8.40589 2.74756" stroke="black" stroke-width="0.609939" stroke-linecap="round" stroke-linejoin="round"/>
<path d="M8.40589 8.03385C7.67702 7.51636 6.75944 7.20776 5.76276 7.20776C4.76608 7.20776 3.84851 7.51636 3.11963 8.03385" stroke="black" stroke-width="0.609939" stroke-linecap="round" stroke-linejoin="round"/>
<path d="M5.7627 1.42603V9.35523" stroke="black" stroke-width="0.609939" stroke-miterlimit="10"/>
<path d="M9.72754 5.39062H1.79834" stroke="black" stroke-width="0.609939" stroke-miterlimit="10"/>
</g>
<defs>
<clipPath id="clip0_201_10899">
<rect width="9.75902" height="9.75902" fill="white" transform="translate(0.883301 0.511108)"/>
</clipPath>
</defs>
</svg>
