<svg width="11" height="11" viewBox="0 0 11 11" fill="none" xmlns="http://www.w3.org/2000/svg">
<g clip-path="url(#clip0_201_10932)">
<path d="M4.22833 1.42603H1.63609C1.42556 1.42603 1.25488 1.5967 1.25488 1.80724V4.39948C1.25488 4.61001 1.42556 4.78069 1.63609 4.78069H4.22833C4.43887 4.78069 4.60955 4.61001 4.60955 4.39948V1.80724C4.60955 1.5967 4.43887 1.42603 4.22833 1.42603Z" stroke="black" stroke-width="0.609939" stroke-linecap="round" stroke-linejoin="round"/>
<path d="M8.80304 1.42603H6.2108C6.00026 1.42603 5.82959 1.5967 5.82959 1.80724V4.39948C5.82959 4.61001 6.00026 4.78069 6.2108 4.78069H8.80304C9.01358 4.78069 9.18425 4.61001 9.18425 4.39948V1.80724C9.18425 1.5967 9.01358 1.42603 8.80304 1.42603Z" stroke="black" stroke-width="0.609939" stroke-linecap="round" stroke-linejoin="round"/>
<path d="M4.22833 6.00061H1.63609C1.42556 6.00061 1.25488 6.17128 1.25488 6.38182V8.97406C1.25488 9.1846 1.42556 9.35527 1.63609 9.35527H4.22833C4.43887 9.35527 4.60955 9.1846 4.60955 8.97406V6.38182C4.60955 6.17128 4.43887 6.00061 4.22833 6.00061Z" stroke="black" stroke-width="0.609939" stroke-linecap="round" stroke-linejoin="round"/>
<path d="M8.80304 6.00061H6.2108C6.00026 6.00061 5.82959 6.17128 5.82959 6.38182V8.97406C5.82959 9.1846 6.00026 9.35527 6.2108 9.35527H8.80304C9.01358 9.35527 9.18425 9.1846 9.18425 8.97406V6.38182C9.18425 6.17128 9.01358 6.00061 8.80304 6.00061Z" stroke="black" stroke-width="0.609939" stroke-linecap="round" stroke-linejoin="round"/>
</g>
<defs>
<clipPath id="clip0_201_10932">
<rect width="9.75902" height="9.75902" fill="white" transform="translate(0.339844 0.511108)"/>
</clipPath>
</defs>
</svg>
