<svg width="10" height="11" viewBox="0 0 10 11" fill="none" xmlns="http://www.w3.org/2000/svg">
<g clip-path="url(#clip0_201_10942)">
<path d="M4.04698 5.0857H1.45474C1.27275 5.0857 1.09822 5.0134 0.969532 4.88472C0.840849 4.75603 0.768555 4.5815 0.768555 4.39951V1.80727C0.768555 1.62529 0.840849 1.45076 0.969532 1.32207C1.09822 1.19339 1.27275 1.12109 1.45474 1.12109H4.04698C4.22896 1.12109 4.40349 1.19339 4.53218 1.32207C4.66086 1.45076 4.73316 1.62529 4.73316 1.80727V4.39951C4.73316 4.5815 4.66086 4.75603 4.53218 4.88472C4.40349 5.0134 4.22896 5.0857 4.04698 5.0857Z" fill="black"/>
<path d="M8.62168 5.0857H6.02944C5.84746 5.0857 5.67292 5.0134 5.54424 4.88472C5.41556 4.75603 5.34326 4.5815 5.34326 4.39951V1.80727C5.34326 1.62529 5.41556 1.45076 5.54424 1.32207C5.67292 1.19339 5.84746 1.12109 6.02944 1.12109H8.62168C8.80367 1.12109 8.9782 1.19339 9.10689 1.32207C9.23557 1.45076 9.30786 1.62529 9.30786 1.80727V4.39951C9.30786 4.5815 9.23557 4.75603 9.10689 4.88472C8.9782 5.0134 8.80367 5.0857 8.62168 5.0857Z" fill="black"/>
<path d="M4.04698 9.66016H1.45474C1.27275 9.66016 1.09822 9.58786 0.969532 9.45918C0.840849 9.3305 0.768555 9.15596 0.768555 8.97398V6.38174C0.768555 6.19975 0.840849 6.02522 0.969532 5.89653C1.09822 5.76785 1.27275 5.69556 1.45474 5.69556H4.04698C4.22896 5.69556 4.40349 5.76785 4.53218 5.89653C4.66086 6.02522 4.73316 6.19975 4.73316 6.38174V8.97398C4.73316 9.15596 4.66086 9.3305 4.53218 9.45918C4.40349 9.58786 4.22896 9.66016 4.04698 9.66016Z" fill="black"/>
<path d="M8.62168 9.66016H6.02944C5.84746 9.66016 5.67292 9.58786 5.54424 9.45918C5.41556 9.3305 5.34326 9.15596 5.34326 8.97398V6.38174C5.34326 6.19975 5.41556 6.02522 5.54424 5.89653C5.67292 5.76785 5.84746 5.69556 6.02944 5.69556H8.62168C8.80367 5.69556 8.9782 5.76785 9.10689 5.89653C9.23557 6.02522 9.30786 6.19975 9.30786 6.38174V8.97398C9.30786 9.15596 9.23557 9.3305 9.10689 9.45918C8.9782 9.58786 8.80367 9.66016 8.62168 9.66016Z" fill="black"/>
</g>
<defs>
<clipPath id="clip0_201_10942">
<rect width="9.75902" height="9.75902" fill="white" transform="translate(0.158691 0.511108)"/>
</clipPath>
</defs>
</svg>
