<svg width="11" height="11" viewBox="0 0 11 11" fill="none" xmlns="http://www.w3.org/2000/svg">
<g clip-path="url(#clip0_201_10950)">
<path d="M6.58673 5.4077L5.54946 4.37062C5.52821 4.34929 5.50296 4.33238 5.47516 4.32083C5.44735 4.30929 5.41755 4.30334 5.38744 4.30334C5.35734 4.30334 5.32753 4.30929 5.29973 4.32083C5.27193 4.33238 5.24668 4.34929 5.22543 4.37062L1.21489 8.15434C1.19265 8.1753 1.17484 8.20052 1.16251 8.22848C1.15017 8.25645 1.14357 8.28661 1.14309 8.31717C1.14261 8.34773 1.14827 8.37808 1.15971 8.40642C1.17116 8.43476 1.18817 8.46052 1.20974 8.48218L2.46869 9.74551C2.49031 9.76719 2.51605 9.78431 2.5444 9.79586C2.57275 9.8074 2.60313 9.81314 2.63373 9.81274C2.66434 9.81233 2.69456 9.80578 2.72259 9.79348C2.75062 9.78118 2.77589 9.76338 2.79692 9.74113L6.58635 5.73154C6.60767 5.71032 6.6246 5.6851 6.63616 5.65733C6.64772 5.62956 6.65369 5.59978 6.65372 5.5697C6.65376 5.53962 6.64786 5.50983 6.63636 5.48203C6.62487 5.45423 6.608 5.42898 6.58673 5.4077Z" fill="black"/>
<path d="M10.4949 4.3105L9.65832 3.47984C9.62006 3.44171 9.57462 3.41153 9.52463 3.39105C9.47465 3.37057 9.4211 3.3602 9.36708 3.36052C9.27955 3.36061 9.19426 3.38821 9.12329 3.43944C9.12329 3.43124 9.12443 3.42323 9.12501 3.41618C9.13358 3.29229 9.14693 3.10511 9.02589 2.93547C8.88199 2.74151 8.72399 2.55842 8.55319 2.38767C8.55273 2.38712 8.55222 2.38661 8.55166 2.38615C8.29778 2.13607 7.74521 1.66508 6.89873 1.3199C6.57756 1.18823 6.23372 1.12069 5.88661 1.1211C5.28506 1.1211 4.82761 1.39252 4.65244 1.55339C4.47995 1.71079 4.36682 1.9227 4.33203 2.15361L4.637 2.34097C4.637 2.34097 4.79063 2.30285 4.90118 2.27636C5.01668 2.25172 5.13519 2.24434 5.25285 2.25444C5.50426 2.27521 5.8016 2.40006 5.93312 2.50394C6.15613 2.6833 6.26344 2.92499 6.28117 3.28714C6.28498 3.36777 6.09971 3.69408 5.82066 4.04651C5.79745 4.07582 5.78582 4.11262 5.78796 4.14994C5.7901 4.18726 5.80588 4.22249 5.83229 4.24894L6.69707 5.11372C6.72477 5.14118 6.76195 5.15698 6.80095 5.15787C6.83995 5.15875 6.87781 5.14466 6.90674 5.11848C7.1368 4.90882 7.48789 4.58479 7.56757 4.53542C7.71414 4.44526 7.81898 4.42792 7.84776 4.42487C7.92244 4.41754 7.99758 4.43338 8.06295 4.47023C8.06328 4.47349 8.06292 4.47679 8.0619 4.47991C8.06088 4.48302 8.05923 4.4859 8.05704 4.48834L8.02235 4.52131L8.01663 4.52665C7.9783 4.56484 7.94791 4.61023 7.9272 4.66022C7.90648 4.71021 7.89587 4.7638 7.89595 4.8179C7.89604 4.87201 7.90684 4.92557 7.92771 4.97549C7.94859 5.0254 7.97913 5.0707 8.01759 5.10876L8.8553 5.94133C8.88387 5.96973 8.92252 5.98567 8.9628 5.98567C9.00309 5.98567 9.04173 5.96973 9.0703 5.94133L10.4937 4.52703C10.5081 4.51293 10.5195 4.49613 10.5274 4.47759C10.5352 4.45905 10.5393 4.43914 10.5394 4.41901C10.5395 4.39888 10.5357 4.37892 10.528 4.3603C10.5204 4.34168 10.5091 4.32475 10.4949 4.3105Z" fill="black"/>
</g>
<defs>
<clipPath id="clip0_201_10950">
<rect width="9.75902" height="9.75902" fill="white" transform="translate(0.977539 0.511108)"/>
</clipPath>
</defs>
</svg>
