<svg width="11" height="11" viewBox="0 0 11 11" fill="none" xmlns="http://www.w3.org/2000/svg">
<g clip-path="url(#clip0_201_10953)">
<path d="M5.72744 5.13884L5.22977 4.64098C5.11577 4.52696 4.96127 4.46271 4.80004 4.46228C4.63881 4.46185 4.48397 4.52528 4.36937 4.63869L0.909303 7.83191C0.783312 7.95066 0.700589 8.102 0.692965 8.27145C0.689297 8.35549 0.702992 8.43939 0.733196 8.5179C0.7634 8.59641 0.809464 8.66785 0.868513 8.72776L1.61188 9.47932C1.61227 9.47981 1.61272 9.48026 1.61321 9.48066C1.72808 9.59515 1.88351 9.65968 2.04569 9.66021H2.06819C2.23764 9.65392 2.38936 9.57443 2.50982 9.4473L5.72534 6.00305C5.78236 5.94652 5.82766 5.87929 5.85863 5.80521C5.88961 5.73114 5.90566 5.65168 5.90585 5.57138C5.90605 5.49109 5.89039 5.41155 5.85977 5.33733C5.82915 5.2631 5.78418 5.19565 5.72744 5.13884Z" fill="black"/>
<path d="M9.72678 4.13267L9.72087 4.12676L9.06767 3.48022C9.02941 3.44209 8.98397 3.41191 8.93398 3.39143C8.88399 3.37095 8.83044 3.36057 8.77642 3.3609C8.6889 3.36099 8.60361 3.38859 8.53264 3.43981C8.53264 3.43162 8.53378 3.42361 8.53435 3.41656C8.54293 3.29267 8.55627 3.10549 8.43524 2.93585C8.29134 2.74189 8.13334 2.5588 7.96254 2.38805C7.96208 2.3875 7.96157 2.38699 7.96101 2.38653C7.70712 2.13645 7.15456 1.66546 6.30808 1.32028C5.98705 1.18852 5.64335 1.12086 5.29634 1.12109C4.69479 1.12109 4.23734 1.39252 4.06217 1.55339C3.96298 1.64812 3.87252 1.7516 3.79189 1.86255C3.75337 1.91572 3.73303 1.97991 3.73391 2.04557C3.7348 2.11122 3.75684 2.17484 3.79678 2.22696C3.83672 2.27908 3.89241 2.31692 3.95557 2.33485C4.01874 2.35278 4.086 2.34985 4.14737 2.32649C4.20082 2.3065 4.25544 2.28976 4.31091 2.27636C4.42643 2.25192 4.54491 2.24454 4.66258 2.25444C4.91399 2.27521 5.21133 2.40006 5.34285 2.50394C5.56586 2.6833 5.67317 2.92499 5.6909 3.28714C5.69433 3.35995 5.54375 3.6329 5.30968 3.94435C5.2651 4.00312 5.24333 4.07607 5.24841 4.14967C5.25349 4.22327 5.28508 4.29253 5.33732 4.34462L5.9932 5.0005C6.04831 5.05574 6.1225 5.08776 6.20051 5.08996C6.27851 5.09215 6.35439 5.06437 6.41253 5.01231C6.59799 4.84668 6.88047 4.59698 6.9792 4.5358C7.12578 4.44564 7.23061 4.4283 7.25939 4.42525C7.33408 4.41792 7.40921 4.43376 7.47458 4.47061C7.47491 4.47387 7.47455 4.47717 7.47354 4.48029C7.47252 4.4834 7.47086 4.48628 7.46868 4.48872L7.43399 4.52169L7.42827 4.52703C7.38994 4.56522 7.35954 4.61061 7.33883 4.6606C7.31812 4.71059 7.3075 4.76418 7.30759 4.81828C7.30768 4.87239 7.31847 4.92595 7.33935 4.97586C7.36022 5.02578 7.39076 5.07108 7.42922 5.10914L8.08224 5.75549C8.12051 5.7936 8.16595 5.82374 8.21594 5.84419C8.26593 5.86464 8.31947 5.87498 8.37348 5.87461C8.48194 5.87478 8.58612 5.83234 8.66358 5.75644L9.72145 4.71154C9.72507 4.70792 9.72869 4.7041 9.73212 4.70029C9.80309 4.6225 9.84199 4.52073 9.841 4.41543C9.84001 4.31013 9.7992 4.20911 9.72678 4.13267Z" fill="black"/>
</g>
<defs>
<clipPath id="clip0_201_10953">
<rect width="9.75902" height="9.75902" fill="white" transform="translate(0.387207 0.511108)"/>
</clipPath>
</defs>
</svg>
