<svg width="11" height="11" viewBox="0 0 11 11" fill="none" xmlns="http://www.w3.org/2000/svg">
<g clip-path="url(#clip0_201_10947)">
<path d="M5.856 5.21909C5.83504 5.1809 5.80886 5.14581 5.77824 5.11483L5.42867 4.77002C5.39276 4.73347 5.35036 4.70393 5.30363 4.68291C5.23009 4.65011 5.14835 4.64034 5.06915 4.65486C4.98996 4.66939 4.91701 4.70754 4.8599 4.7643C4.73867 4.88362 4.51681 5.10129 4.11654 5.4968C3.35106 6.25408 1.92971 7.52332 1.28699 8.06464C1.25461 8.09174 1.22821 8.12527 1.20946 8.1631C1.1907 8.20093 1.18001 8.24224 1.17806 8.28442C1.17611 8.3266 1.18293 8.36873 1.19811 8.40813C1.21328 8.44753 1.23648 8.48335 1.26622 8.51333L2.00958 9.26489C2.03951 9.29492 2.07534 9.31843 2.1148 9.33395C2.15426 9.34947 2.1965 9.35666 2.23887 9.35506C2.28124 9.35347 2.32282 9.34313 2.36101 9.32469C2.39919 9.30625 2.43315 9.28012 2.46074 9.24792C3.01807 8.59281 4.29628 7.17032 5.05298 6.42257C5.44163 6.04022 5.65949 5.82064 5.78281 5.69941C5.84397 5.63722 5.88396 5.55732 5.8971 5.47109C5.91025 5.38486 5.89586 5.29668 5.856 5.21909V5.21909Z" stroke="black" stroke-width="0.609939" stroke-linecap="round" stroke-linejoin="round"/>
<path d="M9.68753 4.34223L9.03356 3.69417C9.02358 3.6842 9.01167 3.67637 8.99856 3.67116C8.98546 3.66595 8.97142 3.66347 8.95732 3.66387C8.94324 3.66363 8.92925 3.66619 8.91616 3.67139C8.90308 3.67659 8.89115 3.68433 8.88108 3.69417C8.85755 3.71783 8.82889 3.73575 8.79733 3.74656C8.76577 3.75737 8.73214 3.76077 8.69905 3.7565C8.61366 3.74716 8.52274 3.72067 8.46403 3.66387C8.33061 3.53311 8.48481 3.27579 8.36739 3.11111C8.2333 2.9309 8.08628 2.76068 7.92748 2.60181C7.79291 2.46839 7.26398 1.96385 6.37308 1.60056C6.08878 1.48409 5.78447 1.42426 5.47724 1.42444C4.97499 1.42444 4.58882 1.64859 4.44797 1.77725C4.33589 1.87865 4.21924 2.03971 4.21924 2.03971C4.2866 2.01516 4.35541 1.99479 4.42528 1.97872C4.57099 1.9475 4.72051 1.93793 4.86901 1.95032C5.1656 1.97491 5.52298 2.11405 5.71473 2.26463C6.0237 2.51242 6.15656 2.84388 6.17733 3.2716C6.19258 3.58972 5.88704 3.99133 5.59713 4.31879C5.57162 4.34758 5.55818 4.38509 5.5596 4.42353C5.56102 4.46197 5.57719 4.49838 5.60475 4.52521L6.0096 4.92987C6.0378 4.95773 6.07574 4.9735 6.11538 4.97386C6.15502 4.97421 6.19324 4.95912 6.22193 4.93178C6.48745 4.67427 6.81453 4.38912 6.99999 4.27495C7.18545 4.16078 7.33507 4.12856 7.40693 4.12075C7.54813 4.10708 7.69007 4.13787 7.81292 4.20881C7.83456 4.22105 7.85433 4.23633 7.87163 4.25417C7.99476 4.37921 7.98733 4.58354 7.8621 4.70667L7.82398 4.7427C7.81406 4.75245 7.80619 4.76408 7.80082 4.77691C7.79545 4.78974 7.79268 4.80351 7.79268 4.81741C7.79268 4.83132 7.79545 4.84509 7.80082 4.85792C7.80619 4.87075 7.81406 4.88238 7.82398 4.89213L8.47795 5.54019C8.48798 5.55008 8.4999 5.55784 8.513 5.56301C8.5261 5.56818 8.54011 5.57067 8.55419 5.57031C8.58258 5.57071 8.60998 5.55989 8.63043 5.54019L9.68753 4.49472C9.70702 4.47412 9.71788 4.44684 9.71788 4.41848C9.71788 4.39012 9.70702 4.36283 9.68753 4.34223V4.34223Z" stroke="black" stroke-width="0.609939" stroke-linecap="round" stroke-linejoin="round"/>
</g>
<defs>
<clipPath id="clip0_201_10947">
<rect width="9.75902" height="9.75902" fill="white" transform="translate(0.568359 0.511108)"/>
</clipPath>
</defs>
</svg>
