<svg width="11" height="11" viewBox="0 0 11 11" fill="none" xmlns="http://www.w3.org/2000/svg">
<g clip-path="url(#clip0_201_10964)">
<path d="M8.86452 4.54128C8.5687 4.37317 8.19912 4.49782 8.03901 4.80203L7.25028 6.41093C7.2355 6.44139 7.20969 6.46509 7.17809 6.47723C7.14648 6.48937 7.11144 6.48904 7.08007 6.47631C7.05522 6.46641 7.03391 6.44927 7.01892 6.42711C7.00393 6.40495 6.99595 6.37879 6.99601 6.35204V1.88347C6.99601 1.61834 6.75109 1.42602 6.48576 1.42602C6.22044 1.42602 5.99019 1.61834 5.99019 1.88347V4.86912C5.99083 4.92488 5.9697 4.97869 5.9313 5.01912C5.8929 5.05956 5.84024 5.08342 5.78452 5.08565C5.75665 5.08618 5.72896 5.08115 5.70306 5.07085C5.67716 5.06056 5.65357 5.0452 5.63367 5.02567C5.61378 5.00615 5.59797 4.98286 5.58719 4.95715C5.5764 4.93145 5.57085 4.90386 5.57085 4.87598V0.968563C5.57085 0.70343 5.36233 0.511108 5.09701 0.511108C4.83168 0.511108 4.61783 0.70343 4.61783 0.968563V4.86912C4.61846 4.92488 4.59734 4.97869 4.55894 5.01912C4.52053 5.05956 4.46788 5.08342 4.41216 5.08565C4.38429 5.08618 4.3566 5.08115 4.3307 5.07085C4.30479 5.06056 4.28121 5.0452 4.26131 5.02567C4.24142 5.00615 4.22561 4.98286 4.21483 4.95715C4.20404 4.93145 4.19849 4.90386 4.19849 4.87598V1.5785C4.19849 1.31337 3.96824 1.12105 3.70292 1.12105C3.43759 1.12105 3.20734 1.33243 3.20734 1.59756V5.17409C3.20798 5.22985 3.18686 5.28366 3.14845 5.32409C3.11005 5.36452 3.0574 5.38839 3.00168 5.39062C2.97381 5.39115 2.94611 5.38612 2.92021 5.37582C2.89431 5.36552 2.87072 5.35017 2.85083 5.33064C2.83093 5.31112 2.81513 5.28783 2.80434 5.26212C2.79356 5.23642 2.788 5.20883 2.78801 5.18095V2.79838C2.78801 2.53325 2.57682 2.34092 2.31149 2.34092C2.04617 2.34092 1.83269 2.53572 1.83498 2.79838V6.91547C1.83498 9.15337 3.20734 10.2701 4.88467 10.2701H5.18964C6.86697 10.2701 7.39514 9.51533 7.78188 8.5928L9.09154 5.37156C9.21772 5.02847 9.16015 4.7092 8.86452 4.54128Z" fill="black"/>
</g>
<defs>
<clipPath id="clip0_201_10964">
<rect width="9.75902" height="9.75902" fill="white" transform="translate(0.615234 0.511108)"/>
</clipPath>
</defs>
</svg>
