<svg width="11" height="11" viewBox="0 0 11 11" fill="none" xmlns="http://www.w3.org/2000/svg">
<g clip-path="url(#clip0_201_10966)">
<path d="M8.78726 7.0199V3.66524C8.78726 3.50347 8.723 3.34833 8.60861 3.23394C8.49423 3.11956 8.33909 3.0553 8.17732 3.0553V3.0553C8.01556 3.0553 7.86042 3.11956 7.74603 3.23394C7.63164 3.34833 7.56738 3.50347 7.56738 3.66524V5.80002" stroke="black" stroke-width="0.609939" stroke-linecap="round" stroke-linejoin="round"/>
<path d="M7.56753 5.80005V2.44539C7.56753 2.28362 7.50327 2.12848 7.38889 2.0141C7.2745 1.89971 7.11936 1.83545 6.9576 1.83545C6.79583 1.83545 6.64069 1.89971 6.5263 2.0141C6.41192 2.12848 6.34766 2.28362 6.34766 2.44539V5.49508" stroke="black" stroke-width="0.609939" stroke-linecap="round" stroke-linejoin="round"/>
<path d="M5.12759 5.51423V2.75044C5.12759 2.58868 5.06333 2.43354 4.94895 2.31915C4.83456 2.20476 4.67942 2.1405 4.51765 2.1405V2.1405C4.35589 2.1405 4.20075 2.20476 4.08636 2.31915C3.97198 2.43354 3.90771 2.58868 3.90771 2.75044V7.02001" stroke="black" stroke-width="0.609939" stroke-linecap="round" stroke-linejoin="round"/>
<path d="M6.34781 5.49504V1.8354C6.34781 1.67364 6.28355 1.5185 6.16916 1.40411C6.05477 1.28973 5.89963 1.22546 5.73787 1.22546C5.5761 1.22546 5.42096 1.28973 5.30658 1.40411C5.19219 1.5185 5.12793 1.67364 5.12793 1.8354V5.49504" stroke="black" stroke-width="0.609939" stroke-linecap="round" stroke-linejoin="round"/>
<path d="M8.78745 7.01992C8.78745 9.25763 7.56758 10.3746 5.89024 10.3746C4.21291 10.3746 3.53226 9.61978 3.14552 8.69725L2.1416 5.95253C2.01465 5.60848 2.07222 5.28941 2.36785 5.12148C2.66367 4.95337 3.05231 5.03991 3.21242 5.34411L3.90794 7.01992" stroke="black" stroke-width="0.609939" stroke-linecap="round" stroke-linejoin="round"/>
</g>
<defs>
<clipPath id="clip0_201_10966">
<rect width="9.75902" height="9.75902" fill="white" transform="translate(0.553223 0.920532)"/>
</clipPath>
</defs>
</svg>
