<svg width="11" height="11" viewBox="0 0 11 11" fill="none" xmlns="http://www.w3.org/2000/svg">
<g clip-path="url(#clip0_201_10956)">
<path d="M2.32129 6.61048V3.25581C2.32129 3.09405 2.38555 2.93891 2.49994 2.82452C2.61432 2.71014 2.76946 2.64587 2.93123 2.64587V2.64587C3.09299 2.64587 3.24813 2.71014 3.36252 2.82452C3.47691 2.93891 3.54117 3.09405 3.54117 3.25581V5.3906" stroke="black" stroke-width="0.609939" stroke-linecap="round" stroke-linejoin="round"/>
<path d="M3.54102 5.39063V2.03596C3.54102 1.8742 3.60528 1.71906 3.71966 1.60467C3.83405 1.49029 3.98919 1.42603 4.15095 1.42603C4.31272 1.42603 4.46786 1.49029 4.58225 1.60467C4.69663 1.71906 4.76089 1.8742 4.76089 2.03596V5.08566" stroke="black" stroke-width="0.609939" stroke-linecap="round" stroke-linejoin="round"/>
<path d="M5.98096 5.10468V2.3409C5.98096 2.17913 6.04522 2.02399 6.1596 1.9096C6.27399 1.79522 6.42913 1.73096 6.5909 1.73096V1.73096C6.75266 1.73096 6.9078 1.79522 7.02219 1.9096C7.13657 2.02399 7.20083 2.17913 7.20083 2.3409V6.61047" stroke="black" stroke-width="0.609939" stroke-linecap="round" stroke-linejoin="round"/>
<path d="M4.76123 5.08561V1.42598C4.76123 1.26421 4.82549 1.10907 4.93988 0.994687C5.05426 0.880301 5.2094 0.81604 5.37117 0.81604C5.53294 0.81604 5.68808 0.880301 5.80246 0.994687C5.91685 1.10907 5.98111 1.26421 5.98111 1.42598V5.08561" stroke="black" stroke-width="0.609939" stroke-linecap="round" stroke-linejoin="round"/>
<path d="M2.32129 6.6105C2.32129 8.84821 3.54117 9.96516 5.2185 9.96516C6.89583 9.96516 7.57648 9.21036 7.96322 8.28783L8.96791 5.5431C9.09485 5.19906 9.03729 4.87998 8.74166 4.71206C8.44584 4.54395 8.05719 4.63048 7.89708 4.93469L7.2008 6.6105" stroke="black" stroke-width="0.609939" stroke-linecap="round" stroke-linejoin="round"/>
</g>
<defs>
<clipPath id="clip0_201_10956">
<rect width="9.75902" height="9.75902" fill="white" transform="translate(0.796387 0.511108)"/>
</clipPath>
</defs>
</svg>
