<svg width="10" height="11" viewBox="0 0 10 11" fill="none" xmlns="http://www.w3.org/2000/svg">
<g clip-path="url(#clip0_201_10962)">
<path d="M8.39395 4.4963C8.1069 4.37012 7.77677 4.52127 7.66012 4.83214L6.99147 6.45801H6.77666V2.03596C6.77666 1.70049 6.52315 1.42602 6.21342 1.42602C5.90349 1.42602 5.65018 1.70049 5.65018 2.03596V4.9284L5.36846 4.93317V1.12105C5.36846 0.785581 5.11496 0.511108 4.80522 0.511108C4.49549 0.511108 4.24198 0.785581 4.24198 1.12105V4.9284L3.96084 4.93317V1.73099C3.96084 1.39552 3.70733 1.12105 3.3976 1.12105C3.08767 1.12105 2.83436 1.39552 2.83436 1.73099V5.23337L2.55226 5.23813V2.95086C2.55226 2.6154 2.29876 2.34092 1.98902 2.34092C1.67929 2.34092 1.42578 2.6154 1.42578 2.95086V7.06795C1.42578 8.51274 2.1335 10.2701 4.64702 10.2701C5.42469 10.2701 6.16081 10.1367 6.56566 9.86986C6.81953 9.7025 7.03793 9.48676 7.20838 9.23495C7.33575 9.04704 7.43826 8.84343 7.51335 8.6292L8.70368 5.29093C8.82129 4.98005 8.681 4.62267 8.39395 4.4963Z" fill="black"/>
</g>
<defs>
<clipPath id="clip0_201_10962">
<rect width="9.75902" height="9.75902" fill="white" transform="translate(0.206055 0.511108)"/>
</clipPath>
</defs>
</svg>
