<svg width="11" height="11" viewBox="0 0 11 11" fill="none" xmlns="http://www.w3.org/2000/svg">
<g clip-path="url(#clip0_201_10974)">
<path d="M1.88152 4.9507C2.17734 4.78259 2.54692 4.90724 2.70703 5.21145L3.49576 6.82036C3.51054 6.85082 3.53635 6.87452 3.56796 6.88666C3.59956 6.8988 3.6346 6.89847 3.66597 6.88573C3.69083 6.87583 3.71213 6.85869 3.72712 6.83653C3.74211 6.81437 3.75009 6.78821 3.75003 6.76146V2.29289C3.75003 2.02776 3.99496 1.83544 4.26028 1.83544C4.5256 1.83544 4.75586 2.02776 4.75586 2.29289V5.27855C4.75522 5.3343 4.77634 5.38812 4.81474 5.42855C4.85315 5.46898 4.9058 5.49285 4.96152 5.49507C4.98939 5.49561 5.01708 5.49058 5.04298 5.48028C5.06889 5.46998 5.09247 5.45462 5.11237 5.4351C5.13226 5.41557 5.14807 5.39228 5.15885 5.36658C5.16964 5.34088 5.17519 5.31328 5.17519 5.28541V1.37799C5.17519 1.11285 5.38371 0.920532 5.64903 0.920532C5.91436 0.920532 6.12822 1.11285 6.12822 1.37799V5.27855C6.12758 5.3343 6.1487 5.38812 6.18711 5.42855C6.22551 5.46898 6.27816 5.49285 6.33388 5.49507C6.36175 5.49561 6.38944 5.49058 6.41535 5.48028C6.44125 5.46998 6.46484 5.45462 6.48473 5.4351C6.50463 5.41557 6.52043 5.39228 6.53122 5.36658C6.542 5.34088 6.54756 5.31328 6.54755 5.28541V1.98793C6.54755 1.72279 6.7778 1.53047 7.04313 1.53047C7.30845 1.53047 7.5387 1.74185 7.5387 2.00699V5.58351C7.53806 5.63927 7.55919 5.69309 7.59759 5.73352C7.63599 5.77395 7.68865 5.79781 7.74436 5.80004C7.77223 5.80058 7.79993 5.79555 7.82583 5.78525C7.85173 5.77495 7.87532 5.75959 7.89522 5.74007C7.91511 5.72054 7.93091 5.69725 7.9417 5.67155C7.95249 5.64585 7.95804 5.61825 7.95803 5.59038V3.2078C7.95803 2.94267 8.16922 2.75035 8.43455 2.75035C8.69987 2.75035 8.91335 2.94515 8.91106 3.2078V7.32489C8.91106 9.56279 7.5387 10.6796 5.86137 10.6796H5.5564C3.87907 10.6796 3.3509 9.92476 2.96416 9.00222L1.65527 5.78098C1.52833 5.43789 1.58589 5.11863 1.88152 4.9507Z" fill="black"/>
</g>
<defs>
<clipPath id="clip0_201_10974">
<rect width="9.75902" height="9.75902" fill="white" transform="translate(0.37207 0.920532)"/>
</clipPath>
</defs>
</svg>
