<svg width="11" height="11" viewBox="0 0 11 11" fill="none" xmlns="http://www.w3.org/2000/svg">
<g clip-path="url(#clip0_201_10976)">
<path d="M4.28851 5.80004C4.54115 5.80004 4.74596 5.59523 4.74596 5.34259C4.74596 5.08994 4.54115 4.88513 4.28851 4.88513C4.03586 4.88513 3.83105 5.08994 3.83105 5.34259C3.83105 5.59523 4.03586 5.80004 4.28851 5.80004Z" fill="black"/>
<path d="M5.66155 8.23983C4.79582 8.23983 4.06771 7.67697 3.83726 6.90883C3.83082 6.88597 3.8298 6.86192 3.8343 6.8386C3.83879 6.81528 3.84867 6.79333 3.86315 6.7745C3.87762 6.75567 3.8963 6.74049 3.91768 6.73016C3.93907 6.71982 3.96257 6.71463 3.98632 6.71498H7.33507C7.35882 6.71463 7.38232 6.71982 7.40371 6.73016C7.42509 6.74049 7.44377 6.75567 7.45824 6.7745C7.47272 6.79333 7.4826 6.81528 7.48709 6.8386C7.49159 6.86192 7.49057 6.88597 7.48413 6.90883C7.25559 7.67697 6.52729 8.23983 5.66155 8.23983Z" fill="black"/>
<path d="M7.03314 5.80004C7.28578 5.80004 7.49059 5.59523 7.49059 5.34259C7.49059 5.08994 7.28578 4.88513 7.03314 4.88513C6.78049 4.88513 6.57568 5.08994 6.57568 5.34259C6.57568 5.59523 6.78049 5.80004 7.03314 5.80004Z" fill="black"/>
<path d="M5.66089 9.76465C7.85048 9.76465 9.62549 7.98964 9.62549 5.80005C9.62549 3.61046 7.85048 1.83545 5.66089 1.83545C3.4713 1.83545 1.69629 3.61046 1.69629 5.80005C1.69629 7.98964 3.4713 9.76465 5.66089 9.76465Z" stroke="black" stroke-width="0.609939" stroke-miterlimit="10"/>
</g>
<defs>
<clipPath id="clip0_201_10976">
<rect width="9.75902" height="9.75902" fill="white" transform="translate(0.78125 0.920532)"/>
</clipPath>
</defs>
</svg>
