<svg width="11" height="11" viewBox="0 0 11 11" fill="none" xmlns="http://www.w3.org/2000/svg">
<g clip-path="url(#clip0_201_10983)">
<path d="M8.49875 2.78105C8.103 2.38138 7.63217 2.06385 7.11333 1.84669C6.59449 1.62953 6.03785 1.51702 5.47539 1.51564C4.91294 1.51425 4.35575 1.62402 3.83584 1.83862C3.31594 2.05322 2.84356 2.36844 2.44584 2.76615C2.04812 3.16387 1.73291 3.63625 1.51831 4.15616C1.3037 4.67606 1.19394 5.23325 1.19533 5.7957C1.19671 6.35816 1.30921 6.9148 1.52637 7.43364C1.74353 7.95249 2.06107 8.42331 2.46074 8.81906C2.85649 9.21873 3.32732 9.53627 3.84616 9.75343C4.365 9.97059 4.92164 10.0831 5.4841 10.0845C6.04655 10.0859 6.60374 9.9761 7.12364 9.7615C7.64355 9.54689 8.11593 9.23168 8.51365 8.83396C8.91137 8.43624 9.22658 7.96386 9.44118 7.44396C9.65579 6.92405 9.76555 6.36686 9.76416 5.80441C9.76278 5.24196 9.65028 4.68532 9.43312 4.16647C9.21596 3.64763 8.89842 3.17681 8.49875 2.78105ZM4.10738 4.88515C4.19786 4.88515 4.2863 4.91198 4.36153 4.96224C4.43676 5.01251 4.49539 5.08395 4.53002 5.16754C4.56464 5.25113 4.5737 5.34311 4.55605 5.43185C4.5384 5.52059 4.49483 5.6021 4.43085 5.66607C4.36688 5.73005 4.28537 5.77362 4.19663 5.79127C4.10789 5.80892 4.01591 5.79986 3.93232 5.76524C3.84873 5.73061 3.77729 5.67198 3.72702 5.59675C3.67676 5.52152 3.64993 5.43308 3.64993 5.3426C3.64978 5.28249 3.66151 5.22293 3.68444 5.16736C3.70738 5.1118 3.74107 5.06131 3.78358 5.0188C3.82609 4.97629 3.87658 4.9426 3.93214 4.91966C3.98771 4.89673 4.04727 4.885 4.10738 4.88515ZM7.30327 6.90881C7.07454 7.67695 6.34643 8.23981 5.4807 8.23981C4.61497 8.23981 3.88685 7.67695 3.65622 6.90881C3.64977 6.88594 3.64876 6.86187 3.65326 6.83853C3.65776 6.8152 3.66766 6.79324 3.68216 6.77441C3.69666 6.75557 3.71536 6.74039 3.73677 6.73007C3.75817 6.71975 3.7817 6.71458 3.80546 6.71497H7.15422C7.17797 6.71461 7.20147 6.7198 7.22285 6.73014C7.24424 6.74047 7.26291 6.75566 7.27739 6.77448C7.29187 6.79331 7.30174 6.81526 7.30624 6.83858C7.31073 6.8619 7.30972 6.88595 7.30327 6.90881ZM6.85211 5.80006C6.76163 5.80006 6.67319 5.77323 6.59796 5.72296C6.52273 5.6727 6.4641 5.60125 6.42948 5.51766C6.39485 5.43407 6.38579 5.3421 6.40344 5.25336C6.42109 5.16462 6.46466 5.08311 6.52864 5.01913C6.59261 4.95516 6.67413 4.91159 6.76286 4.89394C6.8516 4.87629 6.94358 4.88535 7.02717 4.91997C7.11076 4.95459 7.1822 5.01323 7.23247 5.08846C7.28273 5.16368 7.30956 5.25213 7.30956 5.3426C7.30971 5.40272 7.29798 5.46227 7.27505 5.51784C7.25211 5.57341 7.21842 5.6239 7.17591 5.66641C7.1334 5.70892 7.08291 5.74261 7.02735 5.76554C6.97178 5.78848 6.91222 5.80021 6.85211 5.80006Z" fill="black"/>
</g>
<defs>
<clipPath id="clip0_201_10983">
<rect width="9.75902" height="9.75902" fill="white" transform="translate(0.600098 0.920532)"/>
</clipPath>
</defs>
</svg>
