<svg width="10" height="11" viewBox="0 0 10 11" fill="none" xmlns="http://www.w3.org/2000/svg">
<g clip-path="url(#clip0_201_10981)">
<path d="M8.08957 2.78105C7.69382 2.38138 7.22299 2.06385 6.70415 1.84669C6.18531 1.62953 5.62867 1.51702 5.06621 1.51564C4.50376 1.51425 3.94657 1.62402 3.42667 1.83862C2.90676 2.05322 2.43438 2.36844 2.03666 2.76615C1.63894 3.16387 1.32373 3.63625 1.10913 4.15616C0.894524 4.67606 0.784761 5.23325 0.786146 5.7957C0.78753 6.35816 0.900034 6.9148 1.11719 7.43364C1.33435 7.95249 1.65189 8.42331 2.05156 8.81906C2.44731 9.21873 2.91814 9.53627 3.43698 9.75343C3.95582 9.97059 4.51246 10.0831 5.07492 10.0845C5.63737 10.0859 6.19456 9.9761 6.71447 9.7615C7.23437 9.54689 7.70675 9.23168 8.10447 8.83396C8.50219 8.43624 8.8174 7.96386 9.032 7.44396C9.24661 6.92405 9.35637 6.36686 9.35498 5.80441C9.3536 5.24196 9.2411 4.68532 9.02394 4.16647C8.80678 3.64763 8.48924 3.17681 8.08957 2.78105ZM6.44293 4.88515C6.5334 4.88515 6.62185 4.91198 6.69708 4.96224C6.7723 5.01251 6.83094 5.08395 6.86556 5.16754C6.90018 5.25113 6.90924 5.34311 6.89159 5.43185C6.87394 5.52059 6.83037 5.6021 6.7664 5.66607C6.70242 5.73005 6.62091 5.77362 6.53217 5.79127C6.44343 5.80892 6.35146 5.79986 6.26787 5.76524C6.18428 5.73061 6.11283 5.67198 6.06257 5.59675C6.0123 5.52152 5.98547 5.43308 5.98547 5.3426C5.98532 5.28249 5.99705 5.22293 6.01999 5.16736C6.04292 5.1118 6.07661 5.06131 6.11912 5.0188C6.16163 4.97629 6.21212 4.9426 6.26769 4.91966C6.32326 4.89673 6.38281 4.885 6.44293 4.88515ZM3.6982 4.88515C3.78868 4.88515 3.87712 4.91198 3.95235 4.96224C4.02758 5.01251 4.08621 5.08395 4.12084 5.16754C4.15546 5.25113 4.16452 5.34311 4.14687 5.43185C4.12922 5.52059 4.08565 5.6021 4.02167 5.66607C3.9577 5.73005 3.87619 5.77362 3.78745 5.79127C3.69871 5.80892 3.60673 5.79986 3.52314 5.76524C3.43955 5.73061 3.36811 5.67198 3.31784 5.59675C3.26758 5.52152 3.24075 5.43308 3.24075 5.3426C3.2406 5.28249 3.25233 5.22293 3.27526 5.16736C3.2982 5.1118 3.33189 5.06131 3.3744 5.0188C3.41691 4.97629 3.4674 4.9426 3.52296 4.91966C3.57853 4.89673 3.63809 4.885 3.6982 4.88515ZM5.07152 8.23981C4.20579 8.23981 3.47519 7.67772 3.24704 6.90881C3.22722 6.84172 3.20263 6.71497 3.20263 6.71497H6.9385C6.9385 6.71497 6.91353 6.84248 6.89409 6.90881C6.66956 7.6781 5.93725 8.23981 5.07152 8.23981Z" fill="black"/>
</g>
<defs>
<clipPath id="clip0_201_10981">
<rect width="9.75902" height="9.75902" fill="white" transform="translate(0.190918 0.920532)"/>
</clipPath>
</defs>
</svg>
