<svg width="11" height="11" viewBox="0 0 11 11" fill="none" xmlns="http://www.w3.org/2000/svg">
<g clip-path="url(#clip0_201_11003)">
<path d="M7.38557 3.97021H4.0309C3.94669 3.97021 3.87842 4.03848 3.87842 4.1227V7.47736C3.87842 7.56158 3.94669 7.62985 4.0309 7.62985H7.38557C7.46978 7.62985 7.53805 7.56158 7.53805 7.47736V4.1227C7.53805 4.03848 7.46978 3.97021 7.38557 3.97021Z" fill="black"/>
<path d="M9.67265 4.58021C9.75353 4.58021 9.8311 4.54808 9.8883 4.49089C9.94549 4.43369 9.97762 4.35612 9.97762 4.27524C9.97762 4.19436 9.94549 4.11679 9.8883 4.0596C9.8311 4.0024 9.75353 3.97027 9.67265 3.97027H9.36768V3.36033C9.36733 3.03691 9.23869 2.72684 9.01 2.49814C8.7813 2.26945 8.47123 2.14081 8.1478 2.14046H7.53786V1.83549C7.53786 1.7546 7.50573 1.67703 7.44854 1.61984C7.39135 1.56265 7.31378 1.53052 7.23289 1.53052C7.15201 1.53052 7.07444 1.56265 7.01725 1.61984C6.96006 1.67703 6.92793 1.7546 6.92793 1.83549V2.14046H6.01302V1.83549C6.01302 1.7546 5.98089 1.67703 5.92369 1.61984C5.8665 1.56265 5.78893 1.53052 5.70805 1.53052C5.62716 1.53052 5.54959 1.56265 5.4924 1.61984C5.43521 1.67703 5.40308 1.7546 5.40308 1.83549V2.14046H4.48817V1.83549C4.48817 1.7546 4.45604 1.67703 4.39885 1.61984C4.34165 1.56265 4.26408 1.53052 4.1832 1.53052C4.10232 1.53052 4.02475 1.56265 3.96756 1.61984C3.91036 1.67703 3.87823 1.7546 3.87823 1.83549V2.14046H3.26829C2.94487 2.14081 2.63479 2.26945 2.4061 2.49814C2.1774 2.72684 2.04877 3.03691 2.04842 3.36033V3.97027H1.74345C1.66256 3.97027 1.58499 4.0024 1.5278 4.0596C1.47061 4.11679 1.43848 4.19436 1.43848 4.27524C1.43848 4.35612 1.47061 4.43369 1.5278 4.49089C1.58499 4.54808 1.66256 4.58021 1.74345 4.58021H2.04842V5.49512H1.74345C1.66256 5.49512 1.58499 5.52725 1.5278 5.58444C1.47061 5.64164 1.43848 5.71921 1.43848 5.80009C1.43848 5.88097 1.47061 5.95854 1.5278 6.01573C1.58499 6.07293 1.66256 6.10506 1.74345 6.10506H2.04842V7.01997H1.74345C1.66256 7.01997 1.58499 7.0521 1.5278 7.10929C1.47061 7.16648 1.43848 7.24405 1.43848 7.32494C1.43848 7.40582 1.47061 7.48339 1.5278 7.54058C1.58499 7.59777 1.66256 7.6299 1.74345 7.6299H2.04842V8.23984C2.04877 8.56327 2.1774 8.87334 2.4061 9.10204C2.63479 9.33073 2.94487 9.45937 3.26829 9.45972H3.87823V9.76469C3.87823 9.84557 3.91036 9.92314 3.96756 9.98034C4.02475 10.0375 4.10232 10.0697 4.1832 10.0697C4.26408 10.0697 4.34165 10.0375 4.39885 9.98034C4.45604 9.92314 4.48817 9.84557 4.48817 9.76469V9.45972H5.40308V9.76469C5.40308 9.84557 5.43521 9.92314 5.4924 9.98034C5.54959 10.0375 5.62716 10.0697 5.70805 10.0697C5.78893 10.0697 5.8665 10.0375 5.92369 9.98034C5.98089 9.92314 6.01302 9.84557 6.01302 9.76469V9.45972H6.92793V9.76469C6.92793 9.84557 6.96006 9.92314 7.01725 9.98034C7.07444 10.0375 7.15201 10.0697 7.23289 10.0697C7.31378 10.0697 7.39135 10.0375 7.44854 9.98034C7.50573 9.92314 7.53786 9.84557 7.53786 9.76469V9.45972H8.1478C8.47123 9.45937 8.7813 9.33073 9.01 9.10204C9.23869 8.87334 9.36733 8.56327 9.36768 8.23984V7.6299H9.67265C9.75353 7.6299 9.8311 7.59777 9.8883 7.54058C9.94549 7.48339 9.97762 7.40582 9.97762 7.32494C9.97762 7.24405 9.94549 7.16648 9.8883 7.10929C9.8311 7.0521 9.75353 7.01997 9.67265 7.01997H9.36768V6.10506H9.67265C9.75353 6.10506 9.8311 6.07293 9.8883 6.01573C9.94549 5.95854 9.97762 5.88097 9.97762 5.80009C9.97762 5.71921 9.94549 5.64164 9.8883 5.58444C9.8311 5.52725 9.75353 5.49512 9.67265 5.49512H9.36768V4.58021H9.67265ZM8.1478 7.6299C8.1478 7.79167 8.08354 7.94681 7.96916 8.0612C7.85477 8.17558 7.69963 8.23984 7.53786 8.23984H3.87823C3.71647 8.23984 3.56133 8.17558 3.44694 8.0612C3.33255 7.94681 3.26829 7.79167 3.26829 7.6299V3.97027C3.26829 3.80851 3.33255 3.65337 3.44694 3.53898C3.56133 3.4246 3.71647 3.36033 3.87823 3.36033H7.53786C7.69963 3.36033 7.85477 3.4246 7.96916 3.53898C8.08354 3.65337 8.1478 3.80851 8.1478 3.97027V7.6299Z" fill="black"/>
</g>
<defs>
<clipPath id="clip0_201_11003">
<rect width="9.75902" height="9.75902" fill="white" transform="translate(0.828613 0.920532)"/>
</clipPath>
</defs>
</svg>
