<svg width="11" height="11" viewBox="0 0 11 11" fill="none" xmlns="http://www.w3.org/2000/svg">
<g clip-path="url(#clip0_201_11000)">
<path d="M7.12838 3.97021H3.46875V7.62985H7.12838V3.97021Z" fill="black"/>
<path d="M9.56795 4.69457V3.85591H8.95801V2.59791C8.95801 2.47659 8.90982 2.36023 8.82403 2.27444C8.73824 2.18865 8.62188 2.14046 8.50056 2.14046H7.24256V1.53052H6.40389V2.14046H5.71771V1.53052H4.87905V2.14046H4.19287V1.53052H3.3542V2.14046H2.0962C1.97488 2.14046 1.85852 2.18865 1.77273 2.27444C1.68694 2.36023 1.63875 2.47659 1.63875 2.59791V3.85591H1.02881V4.69457H1.63875V5.38076H1.02881V6.21942H1.63875V6.9056H1.02881V7.74427H1.63875V9.00227C1.63875 9.12359 1.68694 9.23995 1.77273 9.32574C1.85852 9.41153 1.97488 9.45972 2.0962 9.45972H3.3542V10.0697H4.19287V9.45972H4.87905V10.0697H5.71771V9.45972H6.40389V10.0697H7.24256V9.45972H8.50056C8.62188 9.45972 8.73824 9.41153 8.82403 9.32574C8.90982 9.23995 8.95801 9.12359 8.95801 9.00227V7.74427H9.56795V6.9056H8.95801V6.21942H9.56795V5.38076H8.95801V4.69457H9.56795ZM2.85862 3.36033H7.73813V8.23984H2.85862V3.36033Z" fill="black"/>
</g>
<defs>
<clipPath id="clip0_201_11000">
<rect width="9.75902" height="9.75902" fill="white" transform="translate(0.418945 0.920532)"/>
</clipPath>
</defs>
</svg>
