<svg width="10" height="11" viewBox="0 0 10 11" fill="none" xmlns="http://www.w3.org/2000/svg">
<g clip-path="url(#clip0_201_10985)">
<path d="M7.32909 2.44531H2.44958C1.94429 2.44531 1.53467 2.85493 1.53467 3.36022V8.23973C1.53467 8.74502 1.94429 9.15464 2.44958 9.15464H7.32909C7.83438 9.15464 8.24399 8.74502 8.24399 8.23973V3.36022C8.24399 2.85493 7.83438 2.44531 7.32909 2.44531Z" stroke="black" stroke-width="0.609939" stroke-linejoin="round"/>
<path d="M6.719 3.66528H3.05936C2.89093 3.66528 2.75439 3.80182 2.75439 3.97025V7.62988C2.75439 7.79832 2.89093 7.93485 3.05936 7.93485H6.719C6.88743 7.93485 7.02397 7.79832 7.02397 7.62988V3.97025C7.02397 3.80182 6.88743 3.66528 6.719 3.66528Z" stroke="black" stroke-width="0.609939" stroke-linejoin="round"/>
<path d="M4.88916 2.44539V1.83545" stroke="black" stroke-width="0.609939" stroke-linecap="round" stroke-linejoin="round"/>
<path d="M6.41406 2.44539V1.83545" stroke="black" stroke-width="0.609939" stroke-linecap="round" stroke-linejoin="round"/>
<path d="M3.36426 2.44539V1.83545" stroke="black" stroke-width="0.609939" stroke-linecap="round" stroke-linejoin="round"/>
<path d="M4.88916 9.7646V9.15466" stroke="black" stroke-width="0.609939" stroke-linecap="round" stroke-linejoin="round"/>
<path d="M6.41406 9.7646V9.15466" stroke="black" stroke-width="0.609939" stroke-linecap="round" stroke-linejoin="round"/>
<path d="M3.36426 9.7646V9.15466" stroke="black" stroke-width="0.609939" stroke-linecap="round" stroke-linejoin="round"/>
<path d="M8.24414 5.80005H8.85408" stroke="black" stroke-width="0.609939" stroke-linecap="round" stroke-linejoin="round"/>
<path d="M8.24414 7.32483H8.85408" stroke="black" stroke-width="0.609939" stroke-linecap="round" stroke-linejoin="round"/>
<path d="M8.24414 4.27515H8.85408" stroke="black" stroke-width="0.609939" stroke-linecap="round" stroke-linejoin="round"/>
<path d="M0.924805 5.80005H1.53474" stroke="black" stroke-width="0.609939" stroke-linecap="round" stroke-linejoin="round"/>
<path d="M0.924805 7.32483H1.53474" stroke="black" stroke-width="0.609939" stroke-linecap="round" stroke-linejoin="round"/>
<path d="M0.924805 4.27515H1.53474" stroke="black" stroke-width="0.609939" stroke-linecap="round" stroke-linejoin="round"/>
</g>
<defs>
<clipPath id="clip0_201_10985">
<rect width="9.75902" height="9.75902" fill="white" transform="translate(0.00976562 0.920532)"/>
</clipPath>
</defs>
</svg>
