<svg width="10" height="11" viewBox="0 0 10 11" fill="none" xmlns="http://www.w3.org/2000/svg">
<g clip-path="url(#clip0_201_11013)">
<path d="M7.894 2.77822C7.07955 1.9853 6.00167 1.53052 4.93656 1.53052C3.87146 1.53052 2.79358 1.9853 1.97912 2.77822C1.13302 3.60183 0.666992 4.67551 0.666992 5.80009C0.666992 6.30844 0.833772 6.9645 1.2937 8.19315C1.75364 9.42179 2.66835 9.93624 3.05471 10.0203C3.16545 10.0445 3.29526 10.0697 3.41172 10.0697C3.61239 10.0698 3.80959 10.0172 3.98353 9.91718L4.25038 9.76469C4.53763 9.59658 4.62149 9.22852 4.45624 8.93842L2.79949 6.03034C2.76001 5.96075 2.70712 5.89969 2.64388 5.85069C2.58063 5.80169 2.5083 5.76572 2.43106 5.74487C2.35381 5.72403 2.2732 5.71871 2.19389 5.72924C2.11458 5.73976 2.03815 5.76592 1.96902 5.80619L1.70808 5.95867C1.60779 6.01743 1.51768 6.09203 1.44123 6.17959C1.43175 6.19072 1.41925 6.19889 1.40525 6.20312C1.39125 6.20735 1.37632 6.20746 1.36226 6.20344C1.34819 6.19942 1.33558 6.19144 1.32593 6.18045C1.31627 6.16946 1.30998 6.15593 1.30781 6.14146C1.2886 6.02866 1.27827 5.91451 1.27693 5.80009C1.27693 4.84115 1.6772 3.923 2.40456 3.21528C3.10675 2.53215 4.02909 2.14046 4.93656 2.14046C5.84404 2.14046 6.76638 2.53215 7.46857 3.21528C8.19592 3.923 8.5962 4.84115 8.5962 5.80009C8.59448 5.91454 8.58377 6.02869 8.56417 6.14146C8.562 6.15593 8.55571 6.16946 8.54606 6.18045C8.5364 6.19144 8.52379 6.19942 8.50972 6.20344C8.49566 6.20746 8.48073 6.20735 8.46673 6.20312C8.45273 6.19889 8.44024 6.19072 8.43075 6.17959C8.35431 6.09203 8.26419 6.01743 8.1639 5.95867L7.90296 5.80619C7.83383 5.76592 7.7574 5.73976 7.67809 5.72924C7.59878 5.71871 7.51817 5.72403 7.44093 5.74487C7.36369 5.76572 7.29135 5.80169 7.22811 5.85069C7.16486 5.89969 7.11197 5.96075 7.07249 6.03034L5.41689 8.93842C5.25164 9.22852 5.3355 9.59658 5.62274 9.76469L5.88959 9.91718C6.06354 10.0172 6.26073 10.0698 6.46141 10.0697C6.57787 10.0697 6.70767 10.0445 6.81842 10.0203C7.20477 9.93624 8.11968 9.4216 8.57942 8.19315C9.03916 6.96469 9.20613 6.30844 9.20613 5.80009C9.20613 4.67551 8.7401 3.60183 7.894 2.77822Z" fill="black"/>
</g>
<defs>
<clipPath id="clip0_201_11013">
<rect width="9.75902" height="9.75902" fill="white" transform="translate(0.0571289 0.920532)"/>
</clipPath>
</defs>
</svg>
