<svg width="11" height="11" viewBox="0 0 11 11" fill="none" xmlns="http://www.w3.org/2000/svg">
<g clip-path="url(#clip0_201_11011)">
<path d="M8.48434 2.77803C7.66988 1.98511 6.592 1.53052 5.5269 1.53052C4.46179 1.53052 3.38391 1.98511 2.56945 2.77803C1.72336 3.60183 1.25732 4.65645 1.25732 5.80009C1.25732 6.94372 1.76891 8.05858 2.12306 8.70206C2.4772 9.34555 2.95372 10.0697 3.39211 10.0697C4.00205 10.0697 5.22193 9.45972 5.22193 9.45972L3.08714 5.49512L2.04986 6.09991C2.0371 5.98064 2.03073 5.86077 2.0308 5.74081C2.0308 4.81504 2.39905 3.94721 3.10105 3.26293C3.7779 2.60439 4.65011 2.25482 5.5269 2.25482C6.40368 2.25482 7.27532 2.60439 7.95274 3.2637C8.65474 3.94721 9.0228 4.81504 9.0228 5.74157C9.02287 5.8614 9.01651 5.98115 9.00374 6.10029L7.96665 5.49512L5.83186 9.45972C5.83186 9.45972 7.05174 10.0697 7.66168 10.0697C8.10007 10.0697 8.57659 9.34536 8.93073 8.70206C9.28488 8.05877 9.79647 6.94372 9.79647 5.80009C9.79647 4.65645 9.33044 3.60183 8.48434 2.77803Z" fill="black"/>
</g>
<defs>
<clipPath id="clip0_201_11011">
<rect width="9.75902" height="9.75902" fill="white" transform="translate(0.647461 0.920532)"/>
</clipPath>
</defs>
</svg>
