<svg width="10" height="11" viewBox="0 0 10 11" fill="none" xmlns="http://www.w3.org/2000/svg">
<g clip-path="url(#clip0_201_11007)">
<path d="M1.82044 8.23981C1.57265 7.61081 1.15332 6.46012 1.15332 5.80005C1.15332 3.61037 3.08473 1.83545 5.11792 1.83545C7.15111 1.83545 9.08252 3.61037 9.08252 5.80005C9.08252 6.46012 8.64413 7.64893 8.4154 8.23981" stroke="black" stroke-width="0.609939" stroke-linecap="round" stroke-linejoin="round"/>
<path d="M2.30417 6.06939L2.04323 6.22187C1.46702 6.55925 1.43901 7.60205 1.9788 8.55108C2.5186 9.5001 3.42493 9.99606 4.00113 9.65888L4.26207 9.5064C4.33133 9.46515 4.38166 9.39839 4.40225 9.32046C4.42285 9.24252 4.41207 9.15962 4.37224 9.08954L2.71606 6.18128C2.69654 6.14671 2.67035 6.11636 2.63901 6.09199C2.60766 6.06762 2.5718 6.04971 2.53348 6.0393C2.49517 6.02889 2.45517 6.02619 2.41581 6.03136C2.37644 6.03652 2.3385 6.04945 2.30417 6.06939V6.06939Z" stroke="black" stroke-width="0.609939" stroke-miterlimit="10"/>
<path d="M7.93107 6.06939L8.19201 6.22187C8.76821 6.55906 8.79699 7.60186 8.25643 8.55089C7.71587 9.49991 6.8103 9.99587 6.2341 9.65869L5.97316 9.5062C5.90391 9.46496 5.85358 9.3982 5.83298 9.32027C5.81238 9.24233 5.82316 9.15943 5.86299 9.08935L7.51917 6.18128C7.53869 6.14671 7.56488 6.11636 7.59623 6.09199C7.62757 6.06762 7.66343 6.04971 7.70175 6.0393C7.74006 6.02889 7.78006 6.02619 7.81942 6.03136C7.85879 6.03652 7.89673 6.04945 7.93107 6.06939V6.06939Z" stroke="black" stroke-width="0.609939" stroke-miterlimit="10"/>
</g>
<defs>
<clipPath id="clip0_201_11007">
<rect width="9.75902" height="9.75902" fill="white" transform="translate(0.238281 0.920532)"/>
</clipPath>
</defs>
</svg>
