<svg width="11" height="11" viewBox="0 0 11 11" fill="none" xmlns="http://www.w3.org/2000/svg">
<path d="M8.70635 9.45972C8.66614 9.45973 8.62633 9.45178 8.5892 9.43634C8.55207 9.4209 8.51836 9.39827 8.49002 9.36975L1.51689 2.35546C1.45987 2.29808 1.42797 2.2204 1.42822 2.13951C1.42847 2.05862 1.46085 1.98114 1.51822 1.92412C1.5756 1.86709 1.65328 1.8352 1.73417 1.83545C1.81506 1.8357 1.89254 1.86808 1.94957 1.92545L8.9225 8.93975C8.96496 8.98246 8.99382 9.03679 9.00545 9.09589C9.01707 9.15498 9.01094 9.2162 8.98782 9.27181C8.9647 9.32743 8.92564 9.37495 8.87554 9.40839C8.82545 9.44183 8.76658 9.45969 8.70635 9.45972Z" fill="black"/>
<path d="M7.69769 2.44543C6.85731 2.44543 6.27558 2.91852 5.93668 3.31269C5.92595 3.32505 5.91268 3.33496 5.89779 3.34176C5.88289 3.34855 5.86671 3.35206 5.85034 3.35206C5.83397 3.35206 5.81779 3.34855 5.80289 3.34176C5.78799 3.33496 5.77473 3.32505 5.764 3.31269C5.4251 2.91852 4.84318 2.44543 4.00299 2.44543C3.80286 2.44533 3.6038 2.47448 3.41211 2.53197L8.54189 7.69167C8.59907 7.6261 8.65053 7.56511 8.69704 7.50869C9.45946 6.57949 9.82447 5.62569 9.81418 4.59242C9.80293 3.40857 8.85315 2.44543 7.69769 2.44543Z" fill="black"/>
<path d="M2.0575 3.76343C1.94703 4.02598 1.88876 4.30754 1.88595 4.59237C1.87566 5.62565 2.24105 6.57944 3.00309 7.50864C3.36086 7.94456 4.00949 8.64179 5.50747 9.65868C5.60852 9.72781 5.72811 9.7648 5.85056 9.7648C5.973 9.7648 6.09259 9.72781 6.19365 9.65868C6.58153 9.39526 6.91223 9.15357 7.19585 8.93209L2.0575 3.76343Z" fill="black"/>
</svg>
