<svg width="11" height="11" viewBox="0 0 11 11" fill="none" xmlns="http://www.w3.org/2000/svg">
<path d="M7.69693 2.1405C6.78031 2.1405 6.17208 2.70355 5.84958 3.11259C5.52784 2.70298 4.91885 2.1405 4.00223 2.1405C2.84677 2.1405 1.89699 3.10382 1.88498 4.28768C1.87468 5.32095 2.24008 6.27513 3.00212 7.20395C3.35989 7.64005 4.00852 8.33729 5.50649 9.35417C5.60751 9.42341 5.72711 9.46046 5.84958 9.46046C5.97205 9.46046 6.09165 9.42341 6.19267 9.35417C7.69064 8.33729 8.33927 7.64005 8.69704 7.20395C9.45946 6.27494 9.82447 5.32076 9.81418 4.28768C9.80217 3.10382 8.85238 2.1405 7.69693 2.1405ZM5.84958 8.84983V4.87722C5.84958 4.50306 5.94927 4.13843 6.12043 3.80564C6.12086 3.80458 6.12137 3.80356 6.12196 3.80259C6.23297 3.60214 6.37278 3.41906 6.5369 3.25917C6.88247 2.92199 7.27264 2.75044 7.69693 2.75044C8.5194 2.75044 9.19547 3.44272 9.20405 4.29435C9.2233 6.28828 7.51986 7.71592 5.84958 8.84983Z" fill="black"/>
</svg>
