<svg width="10" height="11" viewBox="0 0 10 11" fill="none" xmlns="http://www.w3.org/2000/svg">
<g clip-path="url(#clip0_201_11053)">
<path d="M5.0781 9.45977C4.95567 9.45961 4.83612 9.42262 4.735 9.3536C3.23703 8.33672 2.5884 7.63948 2.23063 7.20357C1.46821 6.27436 1.1032 5.32038 1.11349 4.2873C1.1255 3.10344 2.07529 2.1405 3.23074 2.1405C4.07093 2.1405 4.65285 2.61378 4.99175 3.00795C5.00249 3.02031 5.01575 3.03022 5.03065 3.03702C5.04554 3.04381 5.06172 3.04732 5.0781 3.04732C5.09447 3.04732 5.11065 3.04381 5.12554 3.03702C5.14044 3.03022 5.1537 3.02031 5.16444 3.00795C5.50334 2.6134 6.08526 2.1405 6.92545 2.1405C8.0809 2.1405 9.03069 3.10344 9.0427 4.28749C9.05299 5.32076 8.6876 6.27474 7.92556 7.20376C7.56779 7.63967 6.91916 8.33691 5.42119 9.35379C5.32005 9.42274 5.2005 9.45967 5.0781 9.45977Z" fill="black"/>
</g>
<defs>
<clipPath id="clip0_201_11053">
<rect width="9.75902" height="9.75902" fill="white" transform="translate(0.19873 0.920532)"/>
</clipPath>
</defs>
</svg>
