<svg width="11" height="11" viewBox="0 0 11 11" fill="none" xmlns="http://www.w3.org/2000/svg">
<g clip-path="url(#clip0_201_11035)">
<path d="M0.942383 2.14898L8.36591 9.58147L8.80125 9.15317L1.37792 1.72107L0.942383 2.14898Z" fill="black"/>
<path d="M1.52707 4.5976C1.5164 5.65795 1.9039 6.63594 2.71188 7.58783C3.47906 8.49168 4.51425 9.10639 5.33213 9.65038L5.50368 9.76474L5.67523 9.65038C6.02766 9.41593 6.42049 9.16814 6.81486 8.89005L1.69995 3.76599C1.58847 4.02922 1.52974 4.31176 1.52707 4.5976Z" fill="black"/>
<path d="M8.29665 7.58782C9.10462 6.63593 9.49213 5.65793 9.48145 4.59759C9.46944 3.41584 8.5168 2.45251 7.35753 2.45251C6.43767 2.45251 5.82601 2.98621 5.50427 3.37066C5.18253 2.98564 4.5703 2.45251 3.65101 2.45251C3.44915 2.45262 3.2484 2.48236 3.05518 2.54077L8.20153 7.69627C8.23413 7.66025 8.26577 7.62422 8.29665 7.58782Z" fill="black"/>
</g>
<defs>
<clipPath id="clip0_201_11035">
<rect width="9.75902" height="9.75902" fill="white" transform="translate(0.33252 0.920532)"/>
</clipPath>
</defs>
</svg>
