<svg width="10" height="11" viewBox="0 0 10 11" fill="none" xmlns="http://www.w3.org/2000/svg">
<path d="M6.87808 2.1405C5.96146 2.1405 5.35324 2.70355 5.03073 3.11259C4.70899 2.70298 4.1 2.1405 3.18338 2.1405C2.02793 2.1405 1.07814 3.10382 1.06613 4.28768C1.05584 5.32095 1.42123 6.27513 2.18327 7.20395C2.54104 7.64005 3.18967 8.33729 4.68764 9.35417C4.78866 9.42341 4.90826 9.46046 5.03073 9.46046C5.1532 9.46046 5.2728 9.42341 5.37382 9.35417C6.87179 8.33729 7.52043 7.64005 7.87819 7.20395C8.64062 6.27494 9.00563 5.32076 8.99533 4.28768C8.98333 3.10382 8.03354 2.1405 6.87808 2.1405ZM5.03073 8.84983V4.87722C5.03073 4.50306 5.13042 4.13843 5.30158 3.80564C5.30201 3.80458 5.30252 3.80356 5.30311 3.80259C5.41413 3.60214 5.55393 3.41906 5.71806 3.25917C6.06362 2.92199 6.45379 2.75044 6.87808 2.75044C7.70055 2.75044 8.37663 3.44272 8.3852 4.29435C8.40446 6.28828 6.70101 7.71592 5.03073 8.84983Z" fill="black"/>
</svg>
