<svg width="11" height="11" viewBox="0 0 11 11" fill="none" xmlns="http://www.w3.org/2000/svg">
<path d="M5.39331 1.83545C3.20725 1.83545 1.42871 3.61399 1.42871 5.80005C1.42871 7.98611 3.20725 9.76465 5.39331 9.76465C7.57937 9.76465 9.35791 7.98611 9.35791 5.80005C9.35791 3.61399 7.57937 1.83545 5.39331 1.83545ZM5.83742 7.53819C5.75337 7.59918 5.66283 7.66303 5.56467 7.72879C5.51415 7.76338 5.45435 7.78189 5.39312 7.78189C5.33189 7.78189 5.2721 7.76338 5.22158 7.72879C4.4725 7.22026 4.14808 6.87107 3.9693 6.65358C3.58808 6.18908 3.40548 5.71199 3.41082 5.19545C3.41082 5.19145 3.41082 5.18725 3.41082 5.18325C3.41125 5.16838 3.41602 5.15396 3.42454 5.14177C3.43307 5.12957 3.44497 5.12014 3.45879 5.11463C3.47261 5.10912 3.48774 5.10777 3.50231 5.11075C3.51689 5.11373 3.53027 5.12091 3.54081 5.13141L5.84619 7.42249C5.85402 7.43026 5.86007 7.43964 5.86392 7.44997C5.86778 7.46031 5.86934 7.47136 5.86851 7.48236C5.86767 7.49336 5.86446 7.50405 5.85909 7.51369C5.85373 7.52332 5.84633 7.53168 5.83742 7.53819ZM7.13354 7.84544C7.07636 7.90259 6.99882 7.9347 6.91797 7.9347C6.83712 7.9347 6.75958 7.90259 6.70239 7.84544L3.34773 4.49078C3.29295 4.43312 3.26286 4.35635 3.26388 4.27682C3.2649 4.1973 3.29694 4.12132 3.35318 4.06508C3.40942 4.00884 3.4854 3.9768 3.56492 3.97578C3.64445 3.97476 3.72122 4.00485 3.77888 4.05963L7.13354 7.41429C7.19072 7.47145 7.22286 7.54898 7.22289 7.62983C7.22293 7.71068 7.19086 7.78823 7.13373 7.84544H7.13354ZM6.86479 6.59469C6.85831 6.60348 6.84997 6.61074 6.84038 6.61597C6.83078 6.62119 6.82016 6.62424 6.80926 6.62492C6.79835 6.62559 6.78743 6.62386 6.77727 6.61986C6.7671 6.61585 6.75794 6.60967 6.75043 6.60174L4.38691 4.25328C4.37614 4.24268 4.36877 4.22911 4.36573 4.2143C4.36269 4.19949 4.36412 4.18411 4.36984 4.17011C4.37556 4.15612 4.38531 4.14414 4.39785 4.1357C4.4104 4.12726 4.42517 4.12275 4.44028 4.12272H4.46983C4.85866 4.12272 5.13695 4.32552 5.31059 4.51194C5.32117 4.52336 5.334 4.53247 5.34827 4.5387C5.36253 4.54493 5.37793 4.54815 5.3935 4.54815C5.40907 4.54815 5.42447 4.54493 5.43874 4.5387C5.45301 4.53247 5.46584 4.52336 5.47642 4.51194C5.65006 4.32552 5.92834 4.12272 6.31718 4.12272C6.89491 4.12272 7.3697 4.60438 7.37561 5.1964C7.38057 5.69064 7.21322 6.14886 6.86479 6.59469Z" fill="black"/>
</svg>
