<svg width="11" height="11" viewBox="0 0 11 11" fill="none" xmlns="http://www.w3.org/2000/svg">
<path d="M5.1648 1.83545C2.97874 1.83545 1.2002 3.61399 1.2002 5.80005C1.2002 7.98611 2.97874 9.76465 5.1648 9.76465C7.35086 9.76465 9.1294 7.98611 9.1294 5.80005C9.1294 3.61399 7.35086 1.83545 5.1648 1.83545ZM6.58843 6.65435C6.40964 6.8724 6.08523 7.22102 5.33615 7.72956C5.28563 7.76415 5.22583 7.78266 5.16461 7.78266C5.10338 7.78266 5.04358 7.76415 4.99306 7.72956C4.24398 7.22102 3.91957 6.87183 3.74078 6.65435C3.35957 6.18984 3.17697 5.71275 3.18231 5.19621C3.18821 4.60419 3.66301 4.12253 4.24074 4.12253C4.62958 4.12253 4.90786 4.32514 5.08131 4.51156C5.092 4.52286 5.10488 4.53187 5.11917 4.53802C5.13346 4.54418 5.14886 4.54735 5.16442 4.54735C5.17997 4.54735 5.19537 4.54418 5.20966 4.53802C5.22395 4.53187 5.23683 4.52286 5.24752 4.51156C5.42116 4.32514 5.69926 4.12253 6.08809 4.12253C6.66582 4.12253 7.14062 4.60419 7.14653 5.19621C7.15224 5.71275 6.96945 6.18984 6.58843 6.65435Z" fill="black"/>
</svg>
