<svg width="11" height="11" viewBox="0 0 11 11" fill="none" xmlns="http://www.w3.org/2000/svg">
<path d="M9.23382 5.80001C9.23382 3.77959 7.59461 2.14038 5.57418 2.14038C3.55376 2.14038 1.91455 3.77959 1.91455 5.80001C1.91455 7.82044 3.55376 9.45965 5.57418 9.45965C7.59461 9.45965 9.23382 7.82044 9.23382 5.80001Z" stroke="black" stroke-width="0.609939" stroke-miterlimit="10"/>
<path d="M7.04587 6.59459C7.3943 6.14877 7.56165 5.69055 7.55651 5.19612C7.5506 4.6041 7.0758 4.12244 6.49807 4.12244C6.10924 4.12244 5.83095 4.32524 5.65731 4.51165C5.64673 4.52307 5.6339 4.53219 5.61963 4.53842C5.60537 4.54465 5.58996 4.54787 5.5744 4.54787C5.55883 4.54787 5.54343 4.54465 5.52916 4.53842C5.51489 4.53219 5.50206 4.52307 5.49148 4.51165C5.31784 4.32524 5.03956 4.12244 4.65072 4.12244L4.62137 4.12263C4.60637 4.12288 4.59178 4.12754 4.57942 4.13604C4.56706 4.14454 4.55749 4.1565 4.55189 4.17042C4.54629 4.18434 4.54493 4.19959 4.54796 4.21428C4.551 4.22897 4.5583 4.24244 4.56895 4.253L6.93246 6.60146C6.93996 6.60923 6.94905 6.61528 6.95912 6.6192C6.96918 6.62312 6.97997 6.62481 6.99075 6.62416C7.00153 6.62351 7.01204 6.62053 7.02155 6.61542C7.03107 6.61032 7.03937 6.60321 7.04587 6.59459Z" fill="black"/>
<path d="M3.72239 5.13292C3.71185 5.12243 3.69846 5.11525 3.68389 5.11226C3.66931 5.10928 3.65418 5.11063 3.64037 5.11614C3.62655 5.12165 3.61464 5.13109 3.60612 5.14328C3.5976 5.15547 3.59283 5.16989 3.5924 5.18476C3.5924 5.18877 3.5924 5.19296 3.5924 5.19696C3.58706 5.71351 3.76985 6.19059 4.15087 6.6551C4.32966 6.87315 4.65407 7.22177 5.40315 7.73031C5.45367 7.7649 5.51347 7.78341 5.5747 7.78341C5.63593 7.78341 5.69572 7.7649 5.74624 7.73031C5.84441 7.66378 5.93494 7.59993 6.019 7.5397C6.02791 7.5332 6.03531 7.52484 6.04067 7.5152C6.04604 7.50556 6.04925 7.49487 6.05008 7.48387C6.05092 7.47288 6.04935 7.46183 6.0455 7.45149C6.04165 7.44115 6.0356 7.43177 6.02777 7.424L3.72239 5.13292Z" fill="black"/>
<path d="M7.09894 7.93479C7.05888 7.93485 7.01921 7.92699 6.98221 7.91165C6.94521 7.8963 6.91161 7.87379 6.88336 7.84539L3.5287 4.49073C3.47392 4.43307 3.44383 4.3563 3.44485 4.27677C3.44587 4.19725 3.47791 4.12127 3.53415 4.06503C3.59038 4.00879 3.66637 3.97675 3.74589 3.97573C3.82541 3.97471 3.90219 4.0048 3.95985 4.05958L7.31451 7.41424C7.35713 7.45689 7.38616 7.51122 7.39791 7.57036C7.40967 7.6295 7.40363 7.6908 7.38056 7.74651C7.35749 7.80222 7.31842 7.84984 7.26829 7.88335C7.21817 7.91686 7.15923 7.93476 7.09894 7.93479Z" fill="black"/>
</svg>
