<svg width="10" height="11" viewBox="0 0 10 11" fill="none" xmlns="http://www.w3.org/2000/svg">
<path d="M5.12496 2.14038C3.10454 2.14038 1.46533 3.77959 1.46533 5.80001C1.46533 7.82044 3.10454 9.45965 5.12496 9.45965C7.14539 9.45965 8.7846 7.82044 8.7846 5.80001C8.7846 3.77959 7.14539 2.14038 5.12496 2.14038ZM5.32396 7.89668H4.74814C4.73518 7.89663 4.72277 7.89144 4.71362 7.88226C4.70448 7.87308 4.69934 7.86065 4.69934 7.84769V7.27206C4.69934 7.2591 4.70448 7.24667 4.71362 7.23749C4.72277 7.22831 4.73518 7.22313 4.74814 7.22308H5.32396C5.33692 7.22313 5.34933 7.22831 5.35847 7.23749C5.36762 7.24667 5.37275 7.2591 5.37275 7.27206V7.84769C5.37275 7.86065 5.36762 7.87308 5.35847 7.88226C5.34933 7.89144 5.33692 7.89663 5.32396 7.89668ZM5.64799 6.00968C5.33902 6.21706 5.29651 6.40709 5.29651 6.5815V6.79116C5.29651 6.80633 5.29049 6.82087 5.27976 6.8316C5.26904 6.84232 5.25449 6.84835 5.23933 6.84835H4.82C4.80483 6.84835 4.79029 6.84232 4.77956 6.8316C4.76884 6.82087 4.76281 6.80633 4.76281 6.79116V6.5815C4.76281 6.16388 4.95494 5.83185 5.35026 5.56633C5.71775 5.31969 5.92551 5.16339 5.92551 4.81973C5.92551 4.58605 5.79209 4.40859 5.5159 4.27726C5.4509 4.24639 5.30623 4.21627 5.12821 4.21837C4.90482 4.22123 4.73136 4.27459 4.59775 4.3821C4.34577 4.5849 4.32442 4.80581 4.32442 4.80886C4.31396 4.87366 4.3086 4.93917 4.30841 5.00481C4.30841 5.01997 4.30238 5.03452 4.29166 5.04524C4.28094 5.05596 4.26639 5.06199 4.25123 5.06199H3.84619C3.83199 5.06206 3.81828 5.05686 3.80771 5.04738C3.79714 5.0379 3.79047 5.02483 3.78901 5.01071C3.78215 4.9346 3.78272 4.85799 3.79072 4.78199C3.79492 4.73567 3.82503 4.31843 4.26285 3.96619C4.48987 3.78359 4.77863 3.68867 5.12058 3.68448C5.36265 3.68162 5.59004 3.7226 5.74424 3.79541C6.2057 4.0148 6.45921 4.37867 6.45921 4.81973C6.45921 5.46455 6.02825 5.75408 5.64799 6.00968Z" fill="black"/>
</svg>
