<svg width="10" height="11" viewBox="0 0 10 11" fill="none" xmlns="http://www.w3.org/2000/svg">
<path d="M3.11426 4.04643C3.11426 4.04643 3.1417 3.41743 3.75355 2.91309C4.11684 2.61365 4.55314 2.52692 4.94407 2.52159C5.30108 2.5172 5.62015 2.57762 5.81095 2.67064C6.13708 2.83037 6.77389 3.2192 6.77389 4.04643C6.77389 4.91693 6.2177 5.31148 5.58546 5.74626C4.95322 6.18103 4.79159 6.60741 4.79159 7.09613" stroke="black" stroke-width="0.762423" stroke-miterlimit="10" stroke-linecap="round"/>
<path d="M4.79158 9.15457C5.12844 9.15457 5.40152 8.88149 5.40152 8.54463C5.40152 8.20777 5.12844 7.93469 4.79158 7.93469C4.45472 7.93469 4.18164 8.20777 4.18164 8.54463C4.18164 8.88149 4.45472 9.15457 4.79158 9.15457Z" fill="black"/>
</svg>
