<svg width="11" height="11" viewBox="0 0 11 11" fill="none" xmlns="http://www.w3.org/2000/svg">
<path d="M3.52393 4.04643C3.52393 3.85583 3.55137 3.41743 4.16322 2.91309C4.52651 2.61365 4.96281 2.52692 5.35374 2.52159C5.71075 2.5172 6.02982 2.57762 6.22062 2.67064C6.54674 2.83037 7.18356 3.2192 7.18356 4.04643C7.18356 4.91693 6.62737 5.31148 5.99513 5.74626C5.36289 6.18103 5.20126 6.45493 5.20126 6.94364" stroke="black" stroke-width="0.762423" stroke-miterlimit="10" stroke-linecap="square"/>
<path d="M5.66816 7.93481H4.73419C4.69735 7.93481 4.66748 7.96468 4.66748 8.00153V8.9355C4.66748 8.97234 4.69735 9.00221 4.73419 9.00221H5.66816C5.70501 9.00221 5.73487 8.97234 5.73487 8.9355V8.00153C5.73487 7.96468 5.70501 7.93481 5.66816 7.93481Z" fill="black"/>
</svg>
