<svg width="10" height="11" viewBox="0 0 10 11" fill="none" xmlns="http://www.w3.org/2000/svg">
<g clip-path="url(#clip0_201_11066)">
<path d="M4.89701 1.53052C2.53903 1.53052 0.627441 3.4421 0.627441 5.80009C0.627441 8.15807 2.53903 10.0697 4.89701 10.0697C7.255 10.0697 9.16658 8.15807 9.16658 5.80009C9.16658 3.4421 7.255 1.53052 4.89701 1.53052ZM3.67713 5.80009C3.67713 5.55882 3.74868 5.32297 3.88272 5.12236C4.01676 4.92175 4.20728 4.7654 4.43019 4.67307C4.65309 4.58074 4.89837 4.55658 5.135 4.60365C5.37163 4.65072 5.58899 4.7669 5.7596 4.93751C5.9302 5.10811 6.04638 5.32547 6.09345 5.5621C6.14052 5.79874 6.11636 6.04401 6.02403 6.26692C5.9317 6.48982 5.77535 6.68034 5.57474 6.81438C5.37413 6.94842 5.13828 7.01997 4.89701 7.01997C4.57348 7.01997 4.2632 6.89144 4.03443 6.66267C3.80566 6.4339 3.67714 6.12362 3.67713 5.80009ZM8.19907 4.61281L6.55357 4.71364C6.40441 4.48729 6.21077 4.29364 5.98442 4.14449L6.0843 2.49899C6.57051 2.67495 7.01206 2.95569 7.37769 3.32132C7.74331 3.68694 8.02406 4.1285 8.20002 4.61471L8.19907 4.61281ZM2.41704 3.32012C2.78187 2.9539 3.22336 2.67313 3.70973 2.49803L3.81056 4.14353C3.58377 4.29287 3.38979 4.48685 3.24046 4.71364L1.59496 4.61376C1.76993 4.12705 2.05071 3.68522 2.41704 3.32012ZM1.59496 6.98737L3.24046 6.8875C3.38989 7.11394 3.58387 7.30759 3.81056 7.45664L3.71068 9.10214C3.22457 8.92628 2.78307 8.64568 2.41745 8.28023C2.05183 7.91478 1.77104 7.4734 1.59496 6.98737ZM7.37699 8.28006C7.01216 8.64628 6.57066 8.92704 6.0843 9.10214L5.98442 7.45664C6.21077 7.30749 6.40441 7.11384 6.55357 6.8875L8.19907 6.98737C8.02397 7.47374 7.7432 7.91523 7.37699 8.28006Z" fill="black"/>
</g>
<defs>
<clipPath id="clip0_201_11066">
<rect width="9.75902" height="9.75902" fill="white" transform="translate(0.0175781 0.920532)"/>
</clipPath>
</defs>
</svg>
