<svg width="11" height="11" viewBox="0 0 11 11" fill="none" xmlns="http://www.w3.org/2000/svg">
<path d="M5.53463 2.14038C3.51421 2.14038 1.875 3.77959 1.875 5.80001C1.875 7.82044 3.51421 9.45965 5.53463 9.45965C7.55506 9.45965 9.19427 7.82044 9.19427 5.80001C9.19427 3.77959 7.55506 2.14038 5.53463 2.14038ZM5.42027 7.9348C5.34487 7.9348 5.27117 7.91244 5.20848 7.87055C5.14579 7.82867 5.09693 7.76913 5.06808 7.69947C5.03922 7.62981 5.03167 7.55316 5.04638 7.47922C5.06109 7.40527 5.0974 7.33734 5.15071 7.28403C5.20403 7.23072 5.27195 7.19441 5.3459 7.1797C5.41985 7.16499 5.4965 7.17254 5.56615 7.20139C5.63581 7.23025 5.69535 7.27911 5.73724 7.3418C5.77912 7.40449 5.80148 7.47819 5.80148 7.55359C5.80148 7.65469 5.76132 7.75165 5.68983 7.82315C5.61834 7.89464 5.52137 7.9348 5.42027 7.9348ZM6.05766 5.99062C5.74868 6.198 5.70618 6.38803 5.70618 6.56244C5.70618 6.63321 5.67806 6.70108 5.62802 6.75113C5.57798 6.80117 5.5101 6.82929 5.43933 6.82929C5.36856 6.82929 5.30068 6.80117 5.25064 6.75113C5.2006 6.70108 5.17248 6.63321 5.17248 6.56244C5.17248 6.14482 5.36461 5.81278 5.75993 5.54727C6.12742 5.30063 6.33518 5.14433 6.33518 4.80067C6.33518 4.56698 6.20175 4.38953 5.92557 4.2582C5.86057 4.22732 5.7159 4.19721 5.53787 4.19931C5.31448 4.20216 5.14103 4.25553 5.00742 4.36304C4.75544 4.56584 4.73409 4.78656 4.73409 4.7898C4.7324 4.82485 4.72382 4.85921 4.70885 4.89094C4.69388 4.92267 4.67281 4.95114 4.64683 4.97472C4.62086 4.99831 4.59049 5.01655 4.55747 5.0284C4.52445 5.04025 4.48942 5.04547 4.45437 5.04378C4.41933 5.0421 4.38496 5.03352 4.35324 5.01855C4.32151 5.00358 4.29304 4.9825 4.26945 4.95653C4.24587 4.93056 4.22763 4.90019 4.21578 4.86717C4.20393 4.83415 4.1987 4.79911 4.20039 4.76407C4.20249 4.71775 4.2347 4.30052 4.67252 3.94828C4.89953 3.76568 5.1883 3.67076 5.53025 3.66656C5.77232 3.6637 5.99971 3.70468 6.15391 3.77749C6.61537 3.99574 6.86887 4.35961 6.86887 4.80067C6.86887 5.44549 6.43791 5.73502 6.05766 5.99062Z" fill="black"/>
</svg>
