<svg width="11" height="11" viewBox="0 0 11 11" fill="none" xmlns="http://www.w3.org/2000/svg">
<path d="M3.93311 4.04643C3.93311 4.04643 3.96055 3.41743 4.5724 2.91309C4.93569 2.61365 5.37199 2.52692 5.76292 2.52159C6.11993 2.5172 6.439 2.57762 6.6298 2.67064C6.95592 2.83037 7.59274 3.2192 7.59274 4.04643C7.59274 4.91693 7.03655 5.31148 6.40431 5.74626C5.77207 6.18103 5.61044 6.60741 5.61044 7.09613" stroke="black" stroke-width="0.762423" stroke-miterlimit="10" stroke-linecap="round"/>
<path d="M5.61043 9.15457C5.94729 9.15457 6.22037 8.88149 6.22037 8.54463C6.22037 8.20777 5.94729 7.93469 5.61043 7.93469C5.27357 7.93469 5.00049 8.20777 5.00049 8.54463C5.00049 8.88149 5.27357 9.15457 5.61043 9.15457Z" fill="black"/>
</svg>
