<svg width="10" height="11" viewBox="0 0 10 11" fill="none" xmlns="http://www.w3.org/2000/svg">
<g clip-path="url(#clip0_201_11094)">
<path d="M5.09711 2.85101C5.06873 2.82387 5.03097 2.80872 4.9917 2.80872C4.95243 2.80872 4.91467 2.82387 4.8863 2.85101L1.37724 6.2032C1.36234 6.21745 1.35048 6.23458 1.34239 6.25355C1.3343 6.27252 1.33014 6.29294 1.33016 6.31356L1.32959 9.4597C1.32959 9.62147 1.39385 9.77661 1.50824 9.89099C1.62262 10.0054 1.77776 10.0696 1.93953 10.0696H3.77125C3.85213 10.0696 3.9297 10.0375 3.9869 9.98032C4.04409 9.92312 4.07622 9.84555 4.07622 9.76467V7.17243C4.07622 7.13199 4.09229 7.0932 4.12088 7.06461C4.14948 7.03601 4.18826 7.01994 4.22871 7.01994H5.75355C5.79399 7.01994 5.83278 7.03601 5.86138 7.06461C5.88997 7.0932 5.90604 7.13199 5.90604 7.17243V9.76467C5.90604 9.84555 5.93817 9.92312 5.99536 9.98032C6.05255 10.0375 6.13012 10.0696 6.21101 10.0696H8.04197C8.20373 10.0696 8.35887 10.0054 8.47326 9.89099C8.58764 9.77661 8.65191 9.62147 8.65191 9.4597V6.31356C8.65193 6.29294 8.64777 6.27252 8.63968 6.25355C8.63158 6.23458 8.61973 6.21745 8.60483 6.2032L5.09711 2.85101Z" fill="black"/>
<path d="M9.46906 5.57422L8.04333 4.21025V2.14046C8.04333 2.05957 8.0112 1.982 7.95401 1.92481C7.89681 1.86762 7.81924 1.83549 7.73836 1.83549H6.82345C6.74257 1.83549 6.665 1.86762 6.60781 1.92481C6.55061 1.982 6.51848 2.05957 6.51848 2.14046V2.7504L5.41449 1.69482C5.31119 1.59037 5.15756 1.53052 4.99154 1.53052C4.82609 1.53052 4.67285 1.59037 4.56954 1.69501L0.515352 5.57384C0.396795 5.6882 0.381928 5.87633 0.489811 6.00023C0.516902 6.0315 0.550073 6.05693 0.587305 6.07498C0.624538 6.09302 0.665053 6.1033 0.706385 6.10519C0.747717 6.10708 0.789001 6.10054 0.827725 6.08597C0.866449 6.0714 0.901803 6.0491 0.931635 6.02043L4.88671 2.2411C4.91508 2.21395 4.95284 2.1988 4.99211 2.1988C5.03138 2.1988 5.06914 2.21395 5.09752 2.2411L9.05297 6.02043C9.11124 6.07631 9.18928 6.1068 9.26999 6.10523C9.35071 6.10366 9.4275 6.07015 9.48355 6.01204C9.60058 5.89082 9.59086 5.69068 9.46906 5.57422Z" fill="black"/>
</g>
<defs>
<clipPath id="clip0_201_11094">
<rect width="9.75902" height="9.75902" fill="white" transform="translate(0.111816 0.920532)"/>
</clipPath>
</defs>
</svg>
