<svg width="11" height="11" viewBox="0 0 11 11" fill="none" xmlns="http://www.w3.org/2000/svg">
<g clip-path="url(#clip0_201_11097)">
<path d="M3.29629 9.76465H7.50449C7.88189 9.76465 8.18209 9.45416 8.1415 9.09639C7.87941 6.7912 6.3153 6.82932 6.3153 5.80005C6.3153 4.77078 7.89943 4.82796 8.1413 2.50371C8.17943 2.14576 7.88189 1.83545 7.50449 1.83545H3.29629C2.91889 1.83545 2.62212 2.14576 2.65948 2.50371C2.90136 4.82796 4.48548 4.75172 4.48548 5.80005C4.48548 6.84838 2.92137 6.7912 2.65948 9.09639C2.61869 9.45416 2.91889 9.76465 3.29629 9.76465Z" stroke="black" stroke-width="0.609939" stroke-linecap="round" stroke-linejoin="round"/>
<path d="M7.06441 9.15473H3.74463C3.44728 9.15473 3.36342 8.81164 3.57194 8.59893C4.07667 8.08734 5.09545 7.721 5.09545 7.13431V5.19013C5.09545 4.81178 4.37115 4.52301 3.92304 3.90926C3.84908 3.80805 3.85652 3.66528 4.04445 3.66528H6.76497C6.92527 3.66528 6.95996 3.8069 6.88696 3.90831C6.44532 4.52301 5.70539 4.80987 5.70539 5.19013V7.13431C5.70539 7.71623 6.76726 8.03016 7.23786 8.5995C7.42752 8.82899 7.36119 9.15473 7.06441 9.15473Z" fill="black"/>
</g>
<defs>
<clipPath id="clip0_201_11097">
<rect width="9.75902" height="9.75902" fill="white" transform="translate(0.520996 0.920532)"/>
</clipPath>
</defs>
</svg>
