<svg width="11" height="11" viewBox="0 0 11 11" fill="none" xmlns="http://www.w3.org/2000/svg">
<g clip-path="url(#clip0_201_11102)">
<path d="M8.26353 9.06193C8.09694 7.59636 7.42811 6.9889 6.93958 6.54593C6.60183 6.23849 6.43943 6.07857 6.43943 5.80009C6.43943 5.52543 6.60126 5.36856 6.93806 5.0674C7.4323 4.62577 8.10914 4.02079 8.26391 2.5354C8.27629 2.4106 8.26232 2.2846 8.22292 2.16555C8.18352 2.04649 8.11956 1.93703 8.03519 1.84426C7.94508 1.74517 7.83521 1.66605 7.71266 1.61201C7.59011 1.55798 7.45759 1.53022 7.32366 1.53052H3.11546C2.98134 1.5301 2.84862 1.55781 2.72586 1.61185C2.60311 1.66589 2.49305 1.74506 2.40278 1.84426C2.31866 1.93716 2.25494 2.04667 2.21575 2.16571C2.17655 2.28475 2.16273 2.41069 2.1752 2.5354C2.3294 4.01602 3.00376 4.61662 3.4961 5.05502C3.83614 5.35789 3.99968 5.5159 3.99968 5.80009C3.99968 6.08791 3.83576 6.24916 3.49457 6.55775C3.00853 6.99805 2.34141 7.60094 2.17558 9.06193C2.16212 9.18616 2.17502 9.31183 2.21345 9.43073C2.25188 9.54963 2.31497 9.65908 2.39859 9.75193C2.48905 9.85229 2.59964 9.93245 2.72316 9.9872C2.84668 10.0419 2.98035 10.07 3.11546 10.0697H7.32366C7.45876 10.07 7.59244 10.0419 7.71596 9.9872C7.83947 9.93245 7.95007 9.85229 8.04052 9.75193C8.12415 9.65908 8.18724 9.54963 8.22566 9.43073C8.26409 9.31183 8.277 9.18616 8.26353 9.06193ZM6.88355 9.15476H3.56376C3.26642 9.15476 3.18255 8.81167 3.39107 8.59895C3.8958 8.08736 4.91459 7.72102 4.91459 7.13434V5.19016C4.91459 4.8118 4.19028 4.52303 3.74217 3.90928C3.66822 3.80807 3.67565 3.66531 3.86359 3.66531H6.5841C6.7444 3.66531 6.7789 3.80693 6.70609 3.90833C6.26446 4.52303 5.52453 4.8099 5.52453 5.19016V7.13434C5.52453 7.71625 6.58639 8.03018 7.057 8.59952C7.24665 8.82901 7.18032 9.15476 6.88355 9.15476Z" fill="black"/>
</g>
<defs>
<clipPath id="clip0_201_11102">
<rect width="9.75902" height="9.75902" fill="white" transform="translate(0.339844 0.920532)"/>
</clipPath>
</defs>
</svg>
