<svg width="11" height="11" viewBox="0 0 11 11" fill="none" xmlns="http://www.w3.org/2000/svg">
<g clip-path="url(#clip0_201_11104)">
<path d="M7.45884 5.80005L5.62902 10.0696L4.44727 7.30584" stroke="black" stroke-width="0.609939" stroke-linecap="round" stroke-linejoin="round"/>
<path d="M6.45641 5.18024C6.31002 5.49035 5.99438 5.72385 5.6288 5.72385C5.3791 5.72385 5.11416 5.62854 4.98779 5.53782C4.87152 5.45452 4.71389 5.49512 4.71389 5.68573V6.86748C4.71354 6.9887 4.66523 7.10485 4.57951 7.19056C4.4938 7.27628 4.37765 7.32458 4.25643 7.32494V7.32494C4.13522 7.32458 4.01907 7.27628 3.93335 7.19056C3.84764 7.10485 3.79933 6.9887 3.79898 6.86748V5.80009H3.76086C3.08707 5.80009 2.5791 5.254 2.5791 4.58021C2.5791 4.25668 2.70762 3.9464 2.9364 3.71763C3.16517 3.48886 3.47545 3.36033 3.79898 3.36033H3.95146V3.20785C3.95146 2.76299 4.12818 2.33636 4.44274 2.0218C4.7573 1.70724 5.18394 1.53052 5.6288 1.53052C6.07365 1.53052 6.50029 1.70724 6.81485 2.0218C7.12941 2.33636 7.30613 2.76299 7.30613 3.20785V3.36033H7.45861C7.78214 3.36033 8.09242 3.48886 8.32119 3.71763C8.54997 3.9464 8.67849 4.25668 8.67849 4.58021C8.67849 4.90374 8.54997 5.21402 8.32119 5.4428C8.09242 5.67157 7.78214 5.80009 7.45861 5.80009C7.04347 5.80009 6.65807 5.5523 6.45622 5.18043L6.45641 5.18024Z" stroke="black" stroke-width="0.609939" stroke-linecap="round" stroke-linejoin="round"/>
</g>
<defs>
<clipPath id="clip0_201_11104">
<rect width="9.75902" height="9.75902" fill="white" transform="translate(0.749512 0.920532)"/>
</clipPath>
</defs>
</svg>
