<svg width="11" height="11" viewBox="0 0 11 11" fill="none" xmlns="http://www.w3.org/2000/svg">
<g clip-path="url(#clip0_201_11110)">
<path d="M4.0565 7.63C3.64022 7.62009 3.31314 7.26975 3.31314 6.85347V6.20407C3.31311 6.17029 3.30187 6.13747 3.28117 6.11077C3.26047 6.08406 3.23149 6.06499 3.19878 6.05655C2.55548 5.88786 2.09326 5.29965 2.09326 4.5803C2.09376 4.22139 2.22062 3.87411 2.4516 3.59939C2.68257 3.32468 3.00291 3.14007 3.35641 3.07795C3.3886 3.07261 3.41823 3.05708 3.44095 3.03364C3.46366 3.01021 3.47825 2.98011 3.48259 2.94776C3.54537 2.47096 3.77934 2.03324 4.14092 1.71616C4.50249 1.39907 4.96701 1.22424 5.44792 1.22424C5.92884 1.22424 6.39336 1.39907 6.75493 1.71616C7.11651 2.03324 7.35048 2.47096 7.41326 2.94776C7.41759 2.98011 7.43219 3.01021 7.4549 3.03364C7.47762 3.05708 7.50725 3.07261 7.53944 3.07795C7.91562 3.14328 8.2536 3.34737 8.48658 3.64986C8.71956 3.95235 8.83058 4.33124 8.79769 4.71164C8.76481 5.09203 8.59041 5.44624 8.30898 5.70427C8.02754 5.96229 7.65955 6.10534 7.27774 6.10515C6.94676 6.10358 6.62677 5.98617 6.37332 5.7733C6.3468 5.75142 6.31362 5.73924 6.27924 5.73875C6.24487 5.73827 6.21136 5.74951 6.18424 5.77064C5.97447 5.93644 5.7153 6.02734 5.44792 6.02891C5.30729 6.02785 5.16748 6.00745 5.0324 5.9683C5.00971 5.9618 4.98582 5.96067 4.96262 5.96498C4.93941 5.96929 4.91752 5.97893 4.89867 5.99314C4.87983 6.00735 4.86454 6.02574 4.85401 6.04686C4.84347 6.06799 4.83799 6.09127 4.83799 6.11487V6.86757C4.83802 6.96932 4.81768 7.07005 4.77818 7.16381C4.73868 7.25758 4.68081 7.34249 4.60798 7.41354C4.53515 7.48459 4.44884 7.54035 4.35413 7.57752C4.25941 7.6147 4.15822 7.63254 4.0565 7.63Z" fill="black"/>
<path d="M5.58852 6.63306C5.55042 6.63597 5.51481 6.65308 5.48872 6.681C5.46264 6.70892 5.44798 6.74562 5.44766 6.78382V6.8675C5.44728 7.1604 5.35333 7.44551 5.17953 7.68127C5.00573 7.91703 4.76116 8.0911 4.48148 8.17811C4.46123 8.18459 4.44256 8.19524 4.42667 8.20936C4.41078 8.22348 4.39802 8.24078 4.3892 8.26013C4.38039 8.27948 4.37572 8.30045 4.3755 8.32171C4.37527 8.34298 4.37949 8.36405 4.3879 8.38358L5.16766 10.1905C5.19126 10.2452 5.23035 10.2918 5.28011 10.3245C5.32986 10.3572 5.38811 10.3746 5.44766 10.3746C5.5073 10.3746 5.56561 10.357 5.61538 10.3242C5.66514 10.2913 5.70418 10.2446 5.72766 10.1898L7.13395 6.90848C7.14317 6.887 7.14732 6.86369 7.14609 6.84035C7.14486 6.817 7.13828 6.79426 7.12686 6.77386C7.11543 6.75347 7.09948 6.73598 7.08022 6.72273C7.06096 6.70949 7.03891 6.70085 7.01578 6.69748C6.77634 6.66523 6.5446 6.59041 6.3315 6.47657C6.31069 6.46546 6.28758 6.45934 6.264 6.45868C6.24042 6.45802 6.21701 6.46284 6.1956 6.47276C6.00412 6.56113 5.79867 6.61538 5.58852 6.63306Z" fill="black"/>
</g>
<defs>
<clipPath id="clip0_201_11110">
<rect width="9.75902" height="9.75902" fill="white" transform="translate(0.568359 0.920532)"/>
</clipPath>
</defs>
</svg>
