<svg width="10" height="11" viewBox="0 0 10 11" fill="none" xmlns="http://www.w3.org/2000/svg">
<g clip-path="url(#clip0_201_11107)">
<path d="M7.01522 3.0624C6.97851 2.56317 6.75429 2.09632 6.38758 1.75558C6.02087 1.41485 5.53883 1.22546 5.03826 1.22546C4.53768 1.22546 4.05564 1.41485 3.68893 1.75558C3.32222 2.09632 3.098 2.56317 3.06129 3.0624C2.68431 3.09947 2.33455 3.27532 2.07996 3.55581C1.82536 3.83629 1.68409 4.20139 1.68359 4.5802C1.68359 5.33042 2.18622 5.93788 2.87259 6.07569C2.8814 6.07739 2.88933 6.08215 2.89498 6.08912C2.90063 6.0961 2.90363 6.10484 2.90347 6.11381V6.85393C2.90347 7.27022 3.23131 7.62055 3.64683 7.63046C3.74855 7.63301 3.84975 7.61517 3.94446 7.57799C4.03917 7.54082 4.12548 7.48506 4.19831 7.41401C4.27114 7.34295 4.32901 7.25804 4.36851 7.16428C4.40802 7.07051 4.42835 6.96979 4.42832 6.86804V5.95618C4.42834 5.95 4.42986 5.94392 4.43275 5.93845C4.43564 5.93299 4.43982 5.92831 4.44492 5.92483C4.45002 5.92134 4.4559 5.91914 4.46204 5.91843C4.46818 5.91771 4.4744 5.9185 4.48016 5.92073C4.6582 5.98996 4.84725 6.02657 5.03826 6.0288C5.33653 6.02674 5.62343 5.91406 5.84338 5.71259C5.85045 5.70594 5.85979 5.70224 5.86949 5.70224C5.87919 5.70224 5.88853 5.70594 5.8956 5.71259C6.15795 5.96248 6.50577 6.10285 6.86807 6.10504C7.25985 6.10521 7.63666 5.95458 7.92036 5.68439C8.20406 5.4142 8.37288 5.04518 8.3918 4.65386C8.41073 4.26254 8.27831 3.87894 8.02201 3.58264C7.7657 3.28633 7.40519 3.10004 7.01522 3.0624Z" fill="black"/>
<path d="M5.03823 6.63869V6.86742C5.03774 7.18559 4.92688 7.49374 4.72454 7.73928C4.5222 7.98483 4.24092 8.15256 3.92871 8.21386L5.03823 10.3746L6.79295 6.71341C6.46271 6.70074 6.14071 6.60672 5.85555 6.4397C5.60282 6.57012 5.32262 6.63834 5.03823 6.63869Z" fill="black"/>
</g>
<defs>
<clipPath id="clip0_201_11107">
<rect width="9.75902" height="9.75902" fill="white" transform="translate(0.158691 0.920532)"/>
</clipPath>
</defs>
</svg>
