<svg width="11" height="11" viewBox="0 0 11 11" fill="none" xmlns="http://www.w3.org/2000/svg">
<g clip-path="url(#clip0_201_11113)">
<path d="M7.99161 1.53052H3.72204C3.21675 1.53052 2.80713 1.94014 2.80713 2.44543V9.15475C2.80713 9.66004 3.21675 10.0697 3.72204 10.0697H7.99161C8.4969 10.0697 8.90652 9.66004 8.90652 9.15475V2.44543C8.90652 1.94014 8.4969 1.53052 7.99161 1.53052Z" stroke="black" stroke-width="0.609939" stroke-linejoin="round"/>
<path d="M4.94189 2.44543H6.77171" stroke="black" stroke-width="0.609939" stroke-linecap="round" stroke-linejoin="round"/>
<path d="M7.33363 6.34351C7.2617 6.26687 7.17457 6.20609 7.07782 6.16503C6.98107 6.12397 6.87681 6.10355 6.77172 6.10506C6.55062 6.10506 6.35067 6.18912 6.20867 6.34198C6.06667 6.49485 5.99519 6.70642 6.01159 6.93286C6.04418 7.3804 6.38517 7.74427 6.77172 7.74427C7.15827 7.74427 7.49869 7.3804 7.53167 6.93324C7.54844 6.70871 7.47792 6.49923 7.33363 6.34351Z" fill="black"/>
<path d="M8.06203 9.45976H5.48161C5.44801 9.4603 5.41471 9.45346 5.38405 9.43973C5.35339 9.42599 5.32612 9.4057 5.30415 9.38028C5.28034 9.35175 5.26324 9.31823 5.25414 9.2822C5.24503 9.24617 5.24414 9.20856 5.25155 9.17214C5.31349 8.83744 5.50658 8.55629 5.81002 8.35902C6.07954 8.18385 6.4211 8.0874 6.77182 8.0874C7.12253 8.0874 7.4641 8.18385 7.73361 8.35902C8.03706 8.55629 8.23014 8.83744 8.29209 9.17214C8.29949 9.20856 8.2986 9.24617 8.2895 9.2822C8.28039 9.31823 8.2633 9.35175 8.23948 9.38028C8.21752 9.4057 8.19024 9.42599 8.15958 9.43973C8.12892 9.45346 8.09562 9.4603 8.06203 9.45976Z" fill="black"/>
</g>
<defs>
<clipPath id="clip0_201_11113">
<rect width="9.75902" height="9.75902" fill="white" transform="translate(0.977539 0.920532)"/>
</clipPath>
</defs>
</svg>
