<svg width="11" height="11" viewBox="0 0 11 11" fill="none" xmlns="http://www.w3.org/2000/svg">
<g clip-path="url(#clip0_201_11120)">
<path d="M7.81074 1.22559H3.54117C3.21774 1.22594 2.90767 1.35457 2.67897 1.58327C2.45028 1.81196 2.32164 2.12204 2.32129 2.44546V9.15479C2.32164 9.47821 2.45028 9.78829 2.67897 10.017C2.90767 10.2457 3.21774 10.3743 3.54117 10.3747H7.81074C8.13416 10.3743 8.44424 10.2457 8.67293 10.017C8.90163 9.78829 9.03026 9.47821 9.03062 9.15479V2.44546C9.03026 2.12204 8.90163 1.81196 8.67293 1.58327C8.44424 1.35457 8.13416 1.22594 7.81074 1.22559ZM7.15277 6.34354C7.29706 6.49927 7.36758 6.70875 7.35081 6.93328C7.31783 7.38044 6.97684 7.74431 6.59086 7.74431C6.20488 7.74431 5.86332 7.38044 5.83072 6.93328C5.81433 6.70646 5.88428 6.4966 6.02781 6.3424C6.17134 6.1882 6.36976 6.1051 6.59086 6.1051C6.69595 6.10358 6.80021 6.12401 6.89696 6.16507C6.99371 6.20612 7.08084 6.26691 7.15277 6.34354ZM4.45607 2.44546C4.45607 2.36458 4.48821 2.28701 4.5454 2.22982C4.60259 2.17262 4.68016 2.14049 4.76104 2.14049H6.59086C6.67174 2.14049 6.74931 2.17262 6.80651 2.22982C6.8637 2.28701 6.89583 2.36458 6.89583 2.44546C6.89583 2.52635 6.8637 2.60392 6.80651 2.66111C6.74931 2.7183 6.67174 2.75043 6.59086 2.75043H4.76104C4.68016 2.75043 4.60259 2.7183 4.5454 2.66111C4.48821 2.60392 4.45607 2.52635 4.45607 2.44546ZM8.05853 9.38028C8.03656 9.4057 8.00928 9.42599 7.97862 9.43972C7.94796 9.45346 7.91466 9.4603 7.88107 9.45976H5.30065C5.26706 9.4603 5.23376 9.45346 5.2031 9.43972C5.17244 9.42599 5.14516 9.4057 5.1232 9.38028C5.09938 9.35175 5.08229 9.31823 5.07318 9.2822C5.06407 9.24617 5.06319 9.20855 5.07059 9.17214C5.13253 8.83743 5.32562 8.55629 5.62906 8.35901C5.89858 8.18384 6.24015 8.0874 6.59086 8.0874C6.94158 8.0874 7.28314 8.18384 7.55266 8.35901C7.8561 8.55629 8.04919 8.83743 8.11113 9.17214C8.11853 9.20855 8.11765 9.24617 8.10854 9.2822C8.09943 9.31823 8.08234 9.35175 8.05853 9.38028Z" fill="black"/>
</g>
<defs>
<clipPath id="clip0_201_11120">
<rect width="9.75902" height="9.75902" fill="white" transform="translate(0.796387 0.920532)"/>
</clipPath>
</defs>
</svg>
