<svg width="11" height="11" viewBox="0 0 11 11" fill="none" xmlns="http://www.w3.org/2000/svg">
<g clip-path="url(#clip0_201_11118)">
<path d="M8.16398 1.22559H2.36956C2.24824 1.22559 2.13188 1.27378 2.04609 1.35957C1.96031 1.44536 1.91211 1.56172 1.91211 1.68304V9.91721C1.91211 10.0385 1.96031 10.1549 2.04609 10.2407C2.13188 10.3265 2.24824 10.3747 2.36956 10.3747H8.16398C8.28531 10.3747 8.40166 10.3265 8.48745 10.2407C8.57324 10.1549 8.62144 10.0385 8.62144 9.91721V1.68304C8.62144 1.56172 8.57324 1.44536 8.48745 1.35957C8.40166 1.27378 8.28531 1.22559 8.16398 1.22559ZM6.99938 6.8822C7.00798 7.0477 6.96621 7.21193 6.87957 7.35321C6.79293 7.49449 6.6655 7.60618 6.51408 7.67356C6.36267 7.74093 6.19438 7.76082 6.03143 7.73061C5.86848 7.70039 5.71852 7.62148 5.60133 7.50429C5.48414 7.3871 5.40523 7.23714 5.37501 7.07419C5.34479 6.91124 5.36469 6.74295 5.43206 6.59154C5.49944 6.44012 5.61113 6.31269 5.75241 6.22605C5.89369 6.13941 6.05792 6.09764 6.22342 6.10624C6.42581 6.11676 6.61712 6.20189 6.76043 6.34519C6.90373 6.48849 6.98886 6.67981 6.99938 6.8822ZM4.0469 2.14049H6.48665V2.75043H4.0469V2.14049ZM7.70653 9.45976H4.65683V8.99087C4.65683 8.36721 5.67219 8.0529 6.18168 8.0529C6.69117 8.0529 7.70653 8.36721 7.70653 8.99087V9.45976Z" fill="black"/>
</g>
<defs>
<clipPath id="clip0_201_11118">
<rect width="9.75902" height="9.75902" fill="white" transform="translate(0.387207 0.920532)"/>
</clipPath>
</defs>
</svg>
