<svg width="11" height="11" viewBox="0 0 11 11" fill="none" xmlns="http://www.w3.org/2000/svg">
<path d="M8.48235 1.54993H2.38296C2.05954 1.55028 1.74946 1.67892 1.52077 1.90761C1.29207 2.13631 1.16344 2.44638 1.16309 2.7698V7.64931C1.16344 7.97274 1.29207 8.28281 1.52077 8.51151C1.74946 8.7402 2.05954 8.86884 2.38296 8.86919H8.48235C8.80577 8.86884 9.11585 8.7402 9.34454 8.51151C9.57324 8.28281 9.70187 7.97274 9.70223 7.64931V2.7698C9.70187 2.44638 9.57324 2.13631 9.34454 1.90761C9.11585 1.67892 8.80577 1.55028 8.48235 1.54993ZM6.9575 2.7698C7.13846 2.7698 7.31534 2.82346 7.4658 2.92399C7.61626 3.02453 7.73352 3.16741 7.80277 3.33459C7.87202 3.50177 7.89013 3.68573 7.85483 3.8632C7.81953 4.04068 7.73239 4.2037 7.60444 4.33165C7.47649 4.4596 7.31347 4.54674 7.13599 4.58204C6.95852 4.61734 6.77456 4.59922 6.60738 4.52998C6.44021 4.46073 6.29732 4.34346 6.19679 4.19301C6.09625 4.04255 6.0426 3.86566 6.0426 3.68471C6.04285 3.44214 6.13932 3.20958 6.31084 3.03805C6.48237 2.86653 6.71493 2.77006 6.9575 2.7698ZM2.38296 8.25925C2.2212 8.25925 2.06606 8.19499 1.95167 8.08061C1.83729 7.96622 1.77302 7.81108 1.77302 7.64931V6.36025L3.58073 4.75344C3.75514 4.59875 3.98197 4.51639 4.215 4.52311C4.44803 4.52984 4.66972 4.62516 4.83492 4.78965L6.0729 6.02497L3.83862 8.25925H2.38296ZM9.09229 7.64931C9.09229 7.81108 9.02803 7.96622 8.91364 8.08061C8.79926 8.19499 8.64412 8.25925 8.48235 8.25925H4.7013L7.01564 5.94492C7.17949 5.80557 7.38743 5.7288 7.60253 5.72824C7.81762 5.72769 8.02596 5.80337 8.19053 5.94187L9.09229 6.69324V7.64931Z" fill="black"/>
</svg>
