<svg width="11" height="11" viewBox="0 0 11 11" fill="none" xmlns="http://www.w3.org/2000/svg">
<path d="M9.30679 2.1405H1.68255C1.56123 2.1405 1.44487 2.1887 1.35908 2.27449C1.27329 2.36028 1.2251 2.47663 1.2251 2.59796V9.00231C1.2251 9.12364 1.27329 9.23999 1.35908 9.32578C1.44487 9.41157 1.56123 9.45977 1.68255 9.45977H9.30679C9.42811 9.45977 9.54447 9.41157 9.63025 9.32578C9.71604 9.23999 9.76424 9.12364 9.76424 9.00231V2.59796C9.76424 2.47663 9.71604 2.36028 9.63025 2.27449C9.54447 2.1887 9.42811 2.1405 9.30679 2.1405ZM6.93603 3.36419C7.12332 3.34703 7.31135 3.38801 7.47452 3.48155C7.63769 3.57508 7.76807 3.71663 7.8479 3.88693C7.92774 4.05722 7.95315 4.24798 7.92068 4.43323C7.88821 4.61848 7.79944 4.78923 7.66645 4.92222C7.53346 5.05521 7.36271 5.14399 7.17746 5.17646C6.9922 5.20892 6.80145 5.18351 6.63115 5.10368C6.46086 5.02384 6.31931 4.89347 6.22577 4.7303C6.13224 4.56713 6.09126 4.3791 6.10842 4.1918C6.12793 3.97889 6.22139 3.77953 6.37257 3.62835C6.52376 3.47716 6.72312 3.3837 6.93603 3.36419ZM2.06376 8.84983C2.0031 8.84983 1.94492 8.82573 1.90203 8.78284C1.85913 8.73994 1.83504 8.68177 1.83504 8.6211V6.95082L4.28699 4.77086L6.13491 6.61498L3.90063 8.84983H2.06376ZM9.1543 8.6211C9.1543 8.68177 9.1302 8.73994 9.08731 8.78284C9.04441 8.82573 8.98624 8.84983 8.92557 8.84983H4.76331L7.61344 5.9997L9.1543 7.28381V8.6211Z" fill="black"/>
</svg>
