<svg width="10" height="11" viewBox="0 0 10 11" fill="none" xmlns="http://www.w3.org/2000/svg">
<g clip-path="url(#clip0_201_11122)">
<path d="M8.13539 2.44543H2.036C1.53071 2.44543 1.12109 2.85505 1.12109 3.36034V8.23985C1.12109 8.74514 1.53071 9.15476 2.036 9.15476H8.13539C8.64068 9.15476 9.0503 8.74514 9.0503 8.23985V3.36034C9.0503 2.85505 8.64068 2.44543 8.13539 2.44543Z" stroke="black" stroke-width="0.609939" stroke-linejoin="round"/>
<path d="M6.61043 4.88528C6.94729 4.88528 7.22037 4.6122 7.22037 4.27534C7.22037 3.93848 6.94729 3.66541 6.61043 3.66541C6.27357 3.66541 6.00049 3.93848 6.00049 4.27534C6.00049 4.6122 6.27357 4.88528 6.61043 4.88528Z" stroke="black" stroke-width="0.609939" stroke-miterlimit="10"/>
<path d="M6.0006 7.32099L4.27257 5.5962C4.16261 5.48627 4.01482 5.42248 3.85939 5.41787C3.70397 5.41326 3.55266 5.46819 3.43638 5.57142L1.12109 7.62997" stroke="black" stroke-width="0.609939" stroke-linecap="round" stroke-linejoin="round"/>
<path d="M4.47559 9.15477L6.82652 6.80384C6.93403 6.69611 7.07794 6.63247 7.22998 6.62541C7.38201 6.61836 7.53119 6.6684 7.64822 6.76571L9.05013 7.93489" stroke="black" stroke-width="0.609939" stroke-linecap="round" stroke-linejoin="round"/>
</g>
<defs>
<clipPath id="clip0_201_11122">
<rect width="9.75902" height="9.75902" fill="white" transform="translate(0.206055 0.920532)"/>
</clipPath>
</defs>
</svg>
