<svg width="11" height="11" viewBox="0 0 11 11" fill="none" xmlns="http://www.w3.org/2000/svg">
<g clip-path="url(#clip0_201_11141)">
<path d="M9.3641 2.46484H3.48791C2.83985 2.46484 2.30615 2.9892 2.30615 3.63383V8.31015C2.30615 8.95478 2.83985 9.47914 3.48791 9.47914H9.35857C10.0066 9.47914 10.5403 8.98013 10.5403 8.3355V3.63383C10.5403 2.9892 10.0127 2.46484 9.3641 2.46484ZM7.89357 3.63402C8.06675 3.63507 8.23574 3.68739 8.37923 3.78437C8.52271 3.88135 8.63426 4.01866 8.6998 4.17896C8.76535 4.33926 8.78195 4.51538 8.74752 4.68511C8.71309 4.85483 8.62916 5.01056 8.50633 5.13265C8.3835 5.25474 8.22727 5.33772 8.05733 5.37112C7.8874 5.40452 7.71138 5.38685 7.55148 5.32033C7.39158 5.25381 7.25496 5.14143 7.15885 4.99736C7.06274 4.8533 7.01145 4.68399 7.01145 4.51081C7.01236 4.27761 7.10575 4.05429 7.27113 3.88988C7.43651 3.72546 7.66037 3.63337 7.89357 3.63383V3.63402ZM3.48009 8.89474C3.15606 8.89474 2.91094 8.63266 2.91094 8.31034V7.07465L4.63517 5.53474C4.80373 5.38647 5.02224 5.30762 5.24664 5.3141C5.47104 5.32057 5.68464 5.41188 5.84437 5.56962L7.03832 6.75348L4.88448 8.89455L3.48009 8.89474ZM9.93039 8.31015C9.93036 8.38697 9.9152 8.46303 9.88576 8.53398C9.85632 8.60494 9.81319 8.66939 9.75883 8.72367C9.70447 8.77794 9.63994 8.82097 9.56894 8.85029C9.49794 8.87961 9.42185 8.89465 9.34504 8.89455H5.718L7.94961 6.67723C8.10798 6.54364 8.30835 6.47011 8.51554 6.46955C8.72273 6.46899 8.92349 6.54144 9.08257 6.67418L9.93039 7.39372V8.31015Z" fill="black"/>
<path d="M8.10051 0.939941H2.00113C1.6776 0.939941 1.36732 1.06846 1.13854 1.29724C0.909772 1.52601 0.78125 1.83629 0.78125 2.15982L0.78125 7.03933C0.781473 7.30978 0.871414 7.57253 1.03698 7.78638C1.20255 8.00024 1.43438 8.15312 1.69616 8.22109V3.22721C1.69616 2.86324 1.84075 2.51417 2.09811 2.25681C2.35548 1.99944 2.70455 1.85485 3.06852 1.85485H9.28227C9.21431 1.59307 9.06142 1.36124 8.84757 1.19567C8.63371 1.03011 8.37097 0.940165 8.10051 0.939941Z" fill="black"/>
</g>
<defs>
<clipPath id="clip0_201_11141">
<rect width="9.75902" height="9.75902" fill="white" transform="translate(0.78125 0.329956)"/>
</clipPath>
</defs>
</svg>
