<svg width="11" height="11" viewBox="0 0 11 11" fill="none" xmlns="http://www.w3.org/2000/svg">
<g clip-path="url(#clip0_201_11147)">
<path d="M7.8811 2.92224C7.1021 2.92224 6.48091 3.31355 6.09703 3.64197L6.0835 3.6536L5.86487 3.89128L6.34749 4.68439L6.70468 4.32624C7.07846 4.0106 7.4957 3.83715 7.8811 3.83715C8.65877 3.83715 9.29158 4.45281 9.29158 5.20951C9.29158 5.96622 8.65877 6.58187 7.8811 6.58187C6.69934 6.58187 5.89613 5.01986 5.88813 5.00404C5.84162 4.91007 4.82302 2.92224 3.07783 2.92224C1.79563 2.92224 0.752441 3.94827 0.752441 5.20951C0.752441 6.47075 1.79563 7.49678 3.07783 7.49678C3.70588 7.49678 4.32401 7.2469 4.86553 6.774L4.87715 6.76371L5.09406 6.52774L4.61126 5.73463L4.25235 6.09449C3.87838 6.41795 3.48306 6.58187 3.07783 6.58187C2.30016 6.58187 1.66735 5.96622 1.66735 5.20951C1.66735 4.45281 2.30016 3.83715 3.07783 3.83715C4.25959 3.83715 5.0628 5.39916 5.07081 5.41498C5.11732 5.50895 6.13591 7.49678 7.8811 7.49678C9.16331 7.49678 10.2065 6.47075 10.2065 5.20951C10.2065 3.94827 9.16331 2.92224 7.8811 2.92224Z" fill="black"/>
</g>
<defs>
<clipPath id="clip0_201_11147">
<rect width="9.75902" height="9.75902" fill="white" transform="translate(0.600098 0.329956)"/>
</clipPath>
</defs>
</svg>
