<svg width="10" height="11" viewBox="0 0 10 11" fill="none" xmlns="http://www.w3.org/2000/svg">
<path d="M3.79297 4.52332H5.01285V7.80174" stroke="black" stroke-width="0.762423" stroke-miterlimit="10" stroke-linecap="square"/>
<path d="M3.62158 7.87805H6.25194" stroke="black" stroke-width="0.762423" stroke-miterlimit="10" stroke-linecap="square"/>
<path d="M4.9366 3.37967C4.81596 3.37967 4.69804 3.3439 4.59774 3.27687C4.49743 3.20985 4.41925 3.11459 4.37309 3.00314C4.32692 2.89169 4.31485 2.76905 4.33838 2.65074C4.36191 2.53242 4.42001 2.42374 4.50531 2.33844C4.59061 2.25314 4.69929 2.19504 4.81761 2.17151C4.93592 2.14798 5.05856 2.16005 5.17001 2.20622C5.28146 2.25238 5.37672 2.33056 5.44374 2.43087C5.51077 2.53117 5.54654 2.64909 5.54654 2.76973C5.54654 2.9315 5.48228 3.08664 5.36789 3.20102C5.25351 3.31541 5.09837 3.37967 4.9366 3.37967Z" fill="black"/>
</svg>
