<svg width="10" height="11" viewBox="0 0 10 11" fill="none" xmlns="http://www.w3.org/2000/svg">
<path d="M5.11778 1.39734C3.01578 1.39734 1.30566 3.10745 1.30566 5.20946C1.30566 7.31146 3.01578 9.02157 5.11778 9.02157C7.21978 9.02157 8.9299 7.31146 8.9299 5.20946C8.9299 3.10745 7.21978 1.39734 5.11778 1.39734ZM5.11778 2.96031C5.2158 2.96031 5.31161 2.98937 5.39311 3.04383C5.47461 3.09828 5.53812 3.17568 5.57563 3.26623C5.61314 3.35679 5.62296 3.45643 5.60383 3.55256C5.58471 3.6487 5.53751 3.737 5.46821 3.80631C5.3989 3.87561 5.3106 3.92281 5.21446 3.94194C5.11833 3.96106 5.01869 3.95124 4.92813 3.91373C4.83758 3.87623 4.76018 3.81271 4.70573 3.73121C4.65127 3.64971 4.62221 3.5539 4.62221 3.45588C4.62221 3.32445 4.67442 3.1984 4.76736 3.10546C4.86029 3.01252 4.98635 2.96031 5.11778 2.96031ZM6.03269 7.268H4.35536C4.27447 7.268 4.1969 7.23587 4.13971 7.17868C4.08252 7.12148 4.05039 7.04391 4.05039 6.96303C4.05039 6.88215 4.08252 6.80458 4.13971 6.74738C4.1969 6.69019 4.27447 6.65806 4.35536 6.65806H4.88905V4.98073H4.58408C4.5032 4.98073 4.42563 4.9486 4.36844 4.89141C4.31125 4.83421 4.27912 4.75664 4.27912 4.67576C4.27912 4.59488 4.31125 4.51731 4.36844 4.46011C4.42563 4.40292 4.5032 4.37079 4.58408 4.37079H5.19402C5.27491 4.37079 5.35248 4.40292 5.40967 4.46011C5.46686 4.51731 5.49899 4.59488 5.49899 4.67576V6.65806H6.03269C6.11357 6.65806 6.19114 6.69019 6.24834 6.74738C6.30553 6.80458 6.33766 6.88215 6.33766 6.96303C6.33766 7.04391 6.30553 7.12148 6.24834 7.17868C6.19114 7.23587 6.11357 7.268 6.03269 7.268Z" fill="black"/>
</svg>
