<svg width="11" height="11" viewBox="0 0 11 11" fill="none" xmlns="http://www.w3.org/2000/svg">
<path d="M4.20215 4.52332H5.42203V7.80174" stroke="black" stroke-width="0.762423" stroke-linecap="round" stroke-linejoin="round"/>
<path d="M4.03076 7.87805H6.66112" stroke="black" stroke-width="0.762423" stroke-miterlimit="10" stroke-linecap="round"/>
<path d="M5.34578 3.37967C5.22514 3.37967 5.10722 3.3439 5.00692 3.27687C4.90661 3.20985 4.82843 3.11459 4.78227 3.00314C4.7361 2.89169 4.72403 2.76905 4.74756 2.65074C4.77109 2.53242 4.82919 2.42374 4.91449 2.33844C4.99979 2.25314 5.10847 2.19504 5.22679 2.17151C5.3451 2.14798 5.46774 2.16005 5.57919 2.20622C5.69064 2.25238 5.7859 2.33056 5.85292 2.43087C5.91995 2.53117 5.95572 2.64909 5.95572 2.76973C5.95572 2.9315 5.89146 3.08664 5.77707 3.20102C5.66269 3.31541 5.50754 3.37967 5.34578 3.37967Z" fill="black"/>
</svg>
