<svg width="11" height="11" viewBox="0 0 11 11" fill="none" xmlns="http://www.w3.org/2000/svg">
<path d="M5.70811 1.39734C3.60611 1.39734 1.896 3.10745 1.896 5.20946C1.896 7.31146 3.60611 9.02157 5.70811 9.02157C7.81011 9.02157 9.52023 7.31146 9.52023 5.20946C9.52023 3.10745 7.81011 1.39734 5.70811 1.39734ZM5.70811 2.96031C5.80613 2.96031 5.90194 2.98937 5.98344 3.04383C6.06494 3.09828 6.12846 3.17568 6.16597 3.26623C6.20347 3.35679 6.21329 3.45643 6.19417 3.55256C6.17504 3.6487 6.12785 3.737 6.05854 3.80631C5.98923 3.87561 5.90093 3.92281 5.8048 3.94194C5.70866 3.96106 5.60902 3.95124 5.51846 3.91373C5.42791 3.87623 5.35051 3.81271 5.29606 3.73121C5.2416 3.64971 5.21254 3.5539 5.21254 3.45588C5.21254 3.32445 5.26475 3.1984 5.35769 3.10546C5.45063 3.01252 5.57668 2.96031 5.70811 2.96031ZM6.92799 7.268H4.64072V6.65806H5.47939V4.98073H4.86945V4.37079H6.08932V6.65806H6.92799V7.268Z" fill="black"/>
</svg>
