<svg width="11" height="11" viewBox="0 0 11 11" fill="none" xmlns="http://www.w3.org/2000/svg">
<g clip-path="url(#clip0_201_11180)">
<path d="M5.57447 9.17408C7.76405 9.17408 9.53907 7.39906 9.53907 5.20948C9.53907 3.01989 7.76405 1.24487 5.57447 1.24487C3.38488 1.24487 1.60986 3.01989 1.60986 5.20948C1.60986 7.39906 3.38488 9.17408 5.57447 9.17408Z" stroke="black" stroke-width="0.609939" stroke-miterlimit="10"/>
<path d="M5.57422 3.68469V6.73439C5.97863 6.73439 6.36648 6.57373 6.65245 6.28777C6.93841 6.0018 7.09907 5.61395 7.09907 5.20954C7.09907 4.80512 6.93841 4.41727 6.65245 4.13131C6.36648 3.84535 5.97863 3.68469 5.57422 3.68469Z" fill="black"/>
<path d="M5.57447 1.24487V3.68463C5.17005 3.68463 4.7822 3.84528 4.49624 4.13125C4.21027 4.41721 4.04962 4.80506 4.04962 5.20948C4.04962 5.61389 4.21027 6.00174 4.49624 6.2877C4.7822 6.57367 5.17005 6.73432 5.57447 6.73432V9.17408C3.38479 9.17408 1.60986 7.39916 1.60986 5.20948C1.60986 3.0198 3.38479 1.24487 5.57447 1.24487Z" fill="black"/>
</g>
<defs>
<clipPath id="clip0_201_11180">
<rect width="9.75902" height="9.75902" fill="white" transform="translate(0.694824 0.329956)"/>
</clipPath>
</defs>
</svg>
