<svg width="11" height="11" viewBox="0 0 11 11" fill="none" xmlns="http://www.w3.org/2000/svg">
<g clip-path="url(#clip0_201_11173)">
<path d="M5.75562 9.17408C7.94521 9.17408 9.72022 7.39906 9.72022 5.20948C9.72022 3.01989 7.94521 1.24487 5.75562 1.24487C3.56603 1.24487 1.79102 3.01989 1.79102 5.20948C1.79102 7.39906 3.56603 9.17408 5.75562 9.17408Z" stroke="black" stroke-width="0.609939" stroke-miterlimit="10"/>
<path d="M5.75532 3.68469V6.73439C5.3509 6.73439 4.96305 6.57373 4.67709 6.28777C4.39112 6.0018 4.23047 5.61395 4.23047 5.20954C4.23047 4.80512 4.39112 4.41727 4.67709 4.13131C4.96305 3.84535 5.3509 3.68469 5.75532 3.68469Z" fill="black"/>
<path d="M5.75537 1.24487V3.68463C6.15979 3.68463 6.54764 3.84528 6.8336 4.13125C7.11956 4.41721 7.28022 4.80506 7.28022 5.20948C7.28022 5.61389 7.11956 6.00174 6.8336 6.2877C6.54764 6.57367 6.15979 6.73432 5.75537 6.73432V9.17408C7.94505 9.17408 9.71997 7.39916 9.71997 5.20948C9.71997 3.0198 7.94505 1.24487 5.75537 1.24487Z" fill="black"/>
</g>
<defs>
<clipPath id="clip0_201_11173">
<rect width="9.75902" height="9.75902" fill="white" transform="translate(0.875977 0.329956)"/>
</clipPath>
</defs>
</svg>
