<svg width="11" height="11" viewBox="0 0 11 11" fill="none" xmlns="http://www.w3.org/2000/svg">
<g clip-path="url(#clip0_201_11177)">
<path d="M8.18381 2.19047C7.78806 1.79081 7.31723 1.47327 6.79839 1.25611C6.27954 1.03895 5.72291 0.926446 5.16045 0.925062C4.598 0.923677 4.04081 1.03344 3.5209 1.24804C3.001 1.46265 2.52862 1.77786 2.1309 2.17558C1.73318 2.57329 1.41797 3.04567 1.20337 3.56558C0.988762 4.08549 0.879 4.64267 0.880384 5.20513C0.881768 5.76758 0.994272 6.32422 1.21143 6.84307C1.42859 7.36191 1.74613 7.83273 2.1458 8.22849C2.54155 8.62816 3.01237 8.94569 3.53122 9.16285C4.05006 9.38001 4.6067 9.49252 5.16916 9.4939C5.73161 9.49529 6.2888 9.38552 6.8087 9.17092C7.32861 8.95632 7.80099 8.6411 8.19871 8.24339C8.59642 7.84567 8.91164 7.37329 9.12624 6.85338C9.34085 6.33347 9.45061 5.77629 9.44922 5.21383C9.44784 4.65138 9.33534 4.09474 9.11818 3.5759C8.90102 3.05705 8.58348 2.58623 8.18381 2.19047ZM5.1648 8.56414V6.73433C4.76039 6.73433 4.37254 6.57368 4.08657 6.28771C3.80061 6.00175 3.63996 5.6139 3.63996 5.20948C3.63996 4.80507 3.80061 4.41722 4.08657 4.13125C4.37254 3.84529 4.76039 3.68463 5.1648 3.68463V1.85482C7.01463 1.85482 8.51947 3.3606 8.51947 5.20948C8.51947 7.05836 7.01463 8.56414 5.1648 8.56414Z" fill="black"/>
<path d="M6.6894 5.20954C6.6894 4.80512 6.52874 4.41727 6.24278 4.13131C5.95682 3.84535 5.56897 3.68469 5.16455 3.68469V6.73439C5.56897 6.73439 5.95682 6.57373 6.24278 6.28777C6.52874 6.0018 6.6894 5.61395 6.6894 5.20954Z" fill="black"/>
</g>
<defs>
<clipPath id="clip0_201_11177">
<rect width="9.75902" height="9.75902" fill="white" transform="translate(0.285156 0.329956)"/>
</clipPath>
</defs>
</svg>
