<svg width="11" height="11" viewBox="0 0 11 11" fill="none" xmlns="http://www.w3.org/2000/svg">
<g clip-path="url(#clip0_201_11190)">
<path d="M6.45097 0.939941H3.66812C3.3447 0.940295 3.03462 1.06893 2.80593 1.29763C2.57723 1.52632 2.4486 1.8364 2.44824 2.15982V8.25921C2.4486 8.58263 2.57723 8.8927 2.80593 9.1214C3.03462 9.35009 3.3447 9.47873 3.66812 9.47908H6.45097V0.939941Z" fill="black"/>
<path d="M7.93782 0.939941H7.59473V9.47908H7.93782C8.26124 9.47873 8.57132 9.35009 8.80001 9.1214C9.02871 8.8927 9.15734 8.58263 9.15769 8.25921V2.15982C9.15734 1.8364 9.02871 1.52632 8.80001 1.29763C8.57132 1.06893 8.26124 0.940295 7.93782 0.939941Z" fill="black"/>
</g>
<defs>
<clipPath id="clip0_201_11190">
<rect width="9.75902" height="9.75902" fill="white" transform="translate(0.92334 0.329956)"/>
</clipPath>
</defs>
</svg>
