<svg width="11" height="11" viewBox="0 0 11 11" fill="none" xmlns="http://www.w3.org/2000/svg">
<path d="M4.89917 3.5169C4.89917 3.76468 4.89917 4.00485 4.97732 4.22976C4.1558 5.19423 1.78467 7.93705 1.78467 7.93705L1.83994 8.62894C1.83994 8.62894 2.50325 9.25794 2.60237 9.16264C2.8959 8.87673 3.07507 8.68231 3.07507 8.68231L3.21307 7.85604L4.11101 7.7899L4.18306 6.89786L5.12904 6.87975L5.13838 5.92501L6.14268 5.96504L6.31423 5.60594C6.60966 5.73364 6.87842 5.78511 7.22342 5.78511C8.52907 5.78511 9.58693 4.76727 9.58693 3.51308C9.58693 2.2589 8.5283 1.24487 7.22265 1.24487C5.917 1.24487 4.89917 2.26271 4.89917 3.5169ZM8.49685 3.07469C8.49685 3.22115 8.45342 3.36432 8.37206 3.48609C8.29069 3.60787 8.17504 3.70278 8.03973 3.75883C7.90442 3.81487 7.75553 3.82954 7.61188 3.80096C7.46824 3.77239 7.3363 3.70187 7.23273 3.5983C7.12917 3.49474 7.05865 3.3628 7.03007 3.21915C7.0015 3.07551 7.01617 2.92662 7.07221 2.79131C7.12826 2.656 7.22317 2.54035 7.34495 2.45898C7.46672 2.37762 7.60989 2.33419 7.75635 2.33419C7.85362 2.33409 7.94996 2.35317 8.03985 2.39035C8.12973 2.42753 8.21141 2.48207 8.28019 2.55085C8.34897 2.61963 8.40351 2.7013 8.44069 2.79119C8.47787 2.88108 8.49695 2.97742 8.49685 3.07469Z" fill="black"/>
</svg>
