<svg width="10" height="11" viewBox="0 0 10 11" fill="none" xmlns="http://www.w3.org/2000/svg">
<path d="M4.30861 3.51632C4.30861 3.76411 4.30861 4.00427 4.38676 4.22919C3.56525 5.19366 1.39615 7.74206 1.19411 7.93647C1.15396 7.9725 1.12183 8.01658 1.09983 8.06584C1.07783 8.1151 1.06644 8.16843 1.06641 8.22238C1.06641 8.3844 1.16552 8.54069 1.24939 8.62837C1.37519 8.75989 1.9127 9.25737 2.01181 9.16207C2.30534 8.87616 2.36443 8.79992 2.48451 8.68174C2.66559 8.50448 2.46545 8.14233 2.52835 7.99556C2.59125 7.84879 2.65797 7.8202 2.76661 7.79733C2.87526 7.77446 3.06777 7.85261 3.21835 7.85451C3.37655 7.85642 3.46232 7.78971 3.5805 7.67916C3.6758 7.59148 3.74442 7.50952 3.74632 7.38181C3.75014 7.21027 3.50235 6.98344 3.68724 6.80237C3.87212 6.62129 4.13897 6.92054 4.3353 6.89767C4.53162 6.8748 4.76988 6.60223 4.79466 6.48596C4.81944 6.36969 4.57165 6.07044 4.60977 5.9008C4.62311 5.84362 4.73938 5.7102 4.82706 5.69114C4.91474 5.67208 5.30357 5.82265 5.39125 5.80359C5.49799 5.78072 5.62189 5.66826 5.72291 5.60536C6.01835 5.73307 6.2871 5.78453 6.6321 5.78453C7.93775 5.78453 8.99561 4.7667 8.99561 3.51251C8.99561 2.25832 7.93775 1.24487 6.6321 1.24487C5.32645 1.24487 4.30861 2.26214 4.30861 3.51632ZM7.77573 3.07469C7.77573 3.19532 7.73996 3.31325 7.67294 3.41355C7.60592 3.51386 7.51066 3.59203 7.39921 3.6382C7.28776 3.68436 7.16512 3.69644 7.0468 3.67291C6.92848 3.64937 6.8198 3.59128 6.7345 3.50598C6.6492 3.42068 6.59111 3.312 6.56757 3.19368C6.54404 3.07537 6.55612 2.95273 6.60228 2.84128C6.64845 2.72982 6.72663 2.63456 6.82693 2.56754C6.92723 2.50052 7.04516 2.46475 7.16579 2.46475C7.32756 2.46475 7.4827 2.52901 7.59709 2.6434C7.71147 2.75778 7.77573 2.91292 7.77573 3.07469Z" fill="black"/>
</svg>
