<svg width="11" height="11" viewBox="0 0 11 11" fill="none" xmlns="http://www.w3.org/2000/svg">
<g clip-path="url(#clip0_201_11221)">
<path d="M5.25915 7.95422C5.0782 7.95422 4.90131 8.00788 4.75085 8.10841C4.6004 8.20894 4.48313 8.35183 4.41388 8.51901C4.34463 8.68619 4.32652 8.87015 4.36182 9.04762C4.39712 9.2251 4.48426 9.38812 4.61221 9.51607C4.74016 9.64402 4.90318 9.73116 5.08066 9.76646C5.25813 9.80176 5.44209 9.78364 5.60927 9.7144C5.77644 9.64515 5.91933 9.52788 6.01987 9.37743C6.1204 9.22697 6.17406 9.05008 6.17406 8.86913C6.17406 8.62648 6.07766 8.39377 5.90608 8.22219C5.73451 8.05062 5.5018 7.95422 5.25915 7.95422Z" fill="black"/>
<path d="M5.25915 5.5144C5.0782 5.5144 4.90131 5.56806 4.75085 5.66859C4.6004 5.76913 4.48313 5.91201 4.41388 6.07919C4.34463 6.24637 4.32652 6.43033 4.36182 6.6078C4.39712 6.78528 4.48426 6.9483 4.61221 7.07625C4.74016 7.2042 4.90318 7.29134 5.08066 7.32664C5.25813 7.36194 5.44209 7.34382 5.60927 7.27458C5.77644 7.20533 5.91933 7.08806 6.01987 6.93761C6.1204 6.78715 6.17406 6.61026 6.17406 6.42931C6.17406 6.18666 6.07766 5.95395 5.90608 5.78237C5.73451 5.6108 5.5018 5.5144 5.25915 5.5144Z" fill="black"/>
<path d="M5.25915 3.07471C5.0782 3.07471 4.90131 3.12837 4.75085 3.2289C4.6004 3.32943 4.48313 3.47232 4.41388 3.6395C4.34463 3.80667 4.32652 3.99063 4.36182 4.1681C4.39712 4.34558 4.48426 4.5086 4.61221 4.63655C4.74016 4.76451 4.90318 4.85164 5.08066 4.88694C5.25813 4.92225 5.44209 4.90413 5.60927 4.83488C5.77644 4.76563 5.91933 4.64837 6.01987 4.49791C6.1204 4.34746 6.17406 4.17057 6.17406 3.98962C6.17406 3.74697 6.07766 3.51426 5.90608 3.34268C5.73451 3.1711 5.5018 3.07471 5.25915 3.07471Z" fill="black"/>
<path d="M5.25915 0.634888C5.0782 0.634888 4.90131 0.688546 4.75085 0.789078C4.6004 0.889609 4.48313 1.0325 4.41388 1.19968C4.34463 1.36685 4.32652 1.55081 4.36182 1.72829C4.39712 1.90576 4.48426 2.06878 4.61221 2.19673C4.74016 2.32469 4.90318 2.41182 5.08066 2.44712C5.25813 2.48243 5.44209 2.46431 5.60927 2.39506C5.77644 2.32581 5.91933 2.20855 6.01987 2.05809C6.1204 1.90764 6.17406 1.73075 6.17406 1.5498C6.17406 1.30715 6.07766 1.07444 5.90608 0.902858C5.73451 0.73128 5.5018 0.634888 5.25915 0.634888Z" fill="black"/>
<path d="M7.69909 5.5144C7.51814 5.5144 7.34125 5.56806 7.19079 5.66859C7.04034 5.76913 6.92307 5.91201 6.85382 6.07919C6.78458 6.24637 6.76646 6.43033 6.80176 6.6078C6.83706 6.78528 6.9242 6.9483 7.05215 7.07625C7.1801 7.2042 7.34312 7.29134 7.5206 7.32664C7.69807 7.36194 7.88203 7.34382 8.04921 7.27458C8.21639 7.20533 8.35928 7.08806 8.45981 6.93761C8.56034 6.78715 8.614 6.61026 8.614 6.42931C8.614 6.18666 8.5176 5.95395 8.34603 5.78237C8.17445 5.6108 7.94174 5.5144 7.69909 5.5144Z" fill="black"/>
<path d="M7.69909 3.07471C7.51814 3.07471 7.34125 3.12837 7.19079 3.2289C7.04034 3.32943 6.92307 3.47232 6.85382 3.6395C6.78458 3.80667 6.76646 3.99063 6.80176 4.1681C6.83706 4.34558 6.9242 4.5086 7.05215 4.63655C7.1801 4.76451 7.34312 4.85164 7.5206 4.88694C7.69807 4.92225 7.88203 4.90413 8.04921 4.83488C8.21639 4.76563 8.35928 4.64837 8.45981 4.49791C8.56034 4.34746 8.614 4.17057 8.614 3.98962C8.614 3.74697 8.5176 3.51426 8.34603 3.34268C8.17445 3.1711 7.94174 3.07471 7.69909 3.07471Z" fill="black"/>
<path d="M7.69909 0.634888C7.51814 0.634888 7.34125 0.688546 7.19079 0.789078C7.04034 0.889609 6.92307 1.0325 6.85382 1.19968C6.78458 1.36685 6.76646 1.55081 6.80176 1.72829C6.83706 1.90576 6.9242 2.06878 7.05215 2.19673C7.1801 2.32469 7.34312 2.41182 7.5206 2.44712C7.69807 2.48243 7.88203 2.46431 8.04921 2.39506C8.21639 2.32581 8.35928 2.20855 8.45981 2.05809C8.56034 1.90764 8.614 1.73075 8.614 1.5498C8.614 1.30715 8.5176 1.07444 8.34603 0.902858C8.17445 0.73128 7.94174 0.634888 7.69909 0.634888Z" fill="black"/>
<path d="M2.81969 5.5144C2.63874 5.5144 2.46185 5.56806 2.3114 5.66859C2.16094 5.76913 2.04368 5.91201 1.97443 6.07919C1.90518 6.24637 1.88706 6.43033 1.92237 6.6078C1.95767 6.78528 2.0448 6.9483 2.17276 7.07625C2.30071 7.2042 2.46373 7.29134 2.6412 7.32664C2.81868 7.36194 3.00264 7.34382 3.16981 7.27458C3.33699 7.20533 3.47988 7.08806 3.58041 6.93761C3.68094 6.78715 3.7346 6.61026 3.7346 6.42931C3.7346 6.18666 3.63821 5.95395 3.46663 5.78237C3.29505 5.6108 3.06234 5.5144 2.81969 5.5144Z" fill="black"/>
<path d="M2.81969 3.07471C2.63874 3.07471 2.46185 3.12837 2.3114 3.2289C2.16094 3.32943 2.04368 3.47232 1.97443 3.6395C1.90518 3.80667 1.88706 3.99063 1.92237 4.1681C1.95767 4.34558 2.0448 4.5086 2.17276 4.63655C2.30071 4.76451 2.46373 4.85164 2.6412 4.88694C2.81868 4.92225 3.00264 4.90413 3.16981 4.83488C3.33699 4.76563 3.47988 4.64837 3.58041 4.49791C3.68094 4.34746 3.7346 4.17057 3.7346 3.98962C3.7346 3.74697 3.63821 3.51426 3.46663 3.34268C3.29505 3.1711 3.06234 3.07471 2.81969 3.07471Z" fill="black"/>
<path d="M2.81969 0.634888C2.63874 0.634888 2.46185 0.688546 2.3114 0.789078C2.16094 0.889609 2.04368 1.0325 1.97443 1.19968C1.90518 1.36685 1.88706 1.55081 1.92237 1.72829C1.95767 1.90576 2.0448 2.06878 2.17276 2.19673C2.30071 2.32469 2.46373 2.41182 2.6412 2.44712C2.81868 2.48243 3.00264 2.46431 3.16981 2.39506C3.33699 2.32581 3.47988 2.20855 3.58041 2.05809C3.68094 1.90764 3.7346 1.73075 3.7346 1.5498C3.7346 1.30715 3.63821 1.07444 3.46663 0.902858C3.29505 0.73128 3.06234 0.634888 2.81969 0.634888Z" fill="black"/>
</g>
<defs>
<clipPath id="clip0_201_11221">
<rect width="9.75902" height="9.75902" fill="white" transform="translate(0.379883 0.329956)"/>
</clipPath>
</defs>
</svg>
