<svg width="11" height="11" viewBox="0 0 11 11" fill="none" xmlns="http://www.w3.org/2000/svg">
<g clip-path="url(#clip0_201_11210)">
<path d="M4.17245 0.634888H2.6476C2.56339 0.634888 2.49512 0.703157 2.49512 0.787372V2.31222C2.49512 2.39643 2.56339 2.4647 2.6476 2.4647H4.17245C4.25666 2.4647 4.32493 2.39643 4.32493 2.31222V0.787372C4.32493 0.703157 4.25666 0.634888 4.17245 0.634888Z" fill="black"/>
<path d="M6.61239 0.634888H5.08754C5.00333 0.634888 4.93506 0.703157 4.93506 0.787372V2.31222C4.93506 2.39643 5.00333 2.4647 5.08754 2.4647H6.61239C6.69661 2.4647 6.76487 2.39643 6.76487 2.31222V0.787372C6.76487 0.703157 6.69661 0.634888 6.61239 0.634888Z" fill="black"/>
<path d="M9.05184 0.634888H7.527C7.44278 0.634888 7.37451 0.703157 7.37451 0.787372V2.31222C7.37451 2.39643 7.44278 2.4647 7.527 2.4647H9.05184C9.13606 2.4647 9.20433 2.39643 9.20433 2.31222V0.787372C9.20433 0.703157 9.13606 0.634888 9.05184 0.634888Z" fill="black"/>
<path d="M4.17245 3.07471H2.6476C2.56339 3.07471 2.49512 3.14298 2.49512 3.22719V4.75204C2.49512 4.83625 2.56339 4.90452 2.6476 4.90452H4.17245C4.25666 4.90452 4.32493 4.83625 4.32493 4.75204V3.22719C4.32493 3.14298 4.25666 3.07471 4.17245 3.07471Z" fill="black"/>
<path d="M6.61239 3.07471H5.08754C5.00333 3.07471 4.93506 3.14298 4.93506 3.22719V4.75204C4.93506 4.83625 5.00333 4.90452 5.08754 4.90452H6.61239C6.69661 4.90452 6.76487 4.83625 6.76487 4.75204V3.22719C6.76487 3.14298 6.69661 3.07471 6.61239 3.07471Z" fill="black"/>
<path d="M9.05184 3.07471H7.527C7.44278 3.07471 7.37451 3.14298 7.37451 3.22719V4.75204C7.37451 4.83625 7.44278 4.90452 7.527 4.90452H9.05184C9.13606 4.90452 9.20433 4.83625 9.20433 4.75204V3.22719C9.20433 3.14298 9.13606 3.07471 9.05184 3.07471Z" fill="black"/>
<path d="M4.17245 5.5144H2.6476C2.56339 5.5144 2.49512 5.58267 2.49512 5.66689V7.19174C2.49512 7.27595 2.56339 7.34422 2.6476 7.34422H4.17245C4.25666 7.34422 4.32493 7.27595 4.32493 7.19174V5.66689C4.32493 5.58267 4.25666 5.5144 4.17245 5.5144Z" fill="black"/>
<path d="M6.61239 5.5144H5.08754C5.00333 5.5144 4.93506 5.58267 4.93506 5.66689V7.19174C4.93506 7.27595 5.00333 7.34422 5.08754 7.34422H6.61239C6.69661 7.34422 6.76487 7.27595 6.76487 7.19174V5.66689C6.76487 5.58267 6.69661 5.5144 6.61239 5.5144Z" fill="black"/>
<path d="M6.61239 7.95422H5.08754C5.00333 7.95422 4.93506 8.02249 4.93506 8.10671V9.63156C4.93506 9.71577 5.00333 9.78404 5.08754 9.78404H6.61239C6.69661 9.78404 6.76487 9.71577 6.76487 9.63156V8.10671C6.76487 8.02249 6.69661 7.95422 6.61239 7.95422Z" fill="black"/>
<path d="M9.05184 5.5144H7.527C7.44278 5.5144 7.37451 5.58267 7.37451 5.66689V7.19174C7.37451 7.27595 7.44278 7.34422 7.527 7.34422H9.05184C9.13606 7.34422 9.20433 7.27595 9.20433 7.19174V5.66689C9.20433 5.58267 9.13606 5.5144 9.05184 5.5144Z" fill="black"/>
</g>
<defs>
<clipPath id="clip0_201_11210">
<rect width="9.75902" height="9.75902" fill="white" transform="translate(0.970215 0.329956)"/>
</clipPath>
</defs>
</svg>
