<svg width="11" height="11" viewBox="0 0 11 11" fill="none" xmlns="http://www.w3.org/2000/svg">
<g clip-path="url(#clip0_201_11199)">
<path d="M5.44051 9.47903C5.77737 9.47903 6.05044 9.20595 6.05044 8.86909C6.05044 8.53223 5.77737 8.25916 5.44051 8.25916C5.10365 8.25916 4.83057 8.53223 4.83057 8.86909C4.83057 9.20595 5.10365 9.47903 5.44051 9.47903Z" stroke="black" stroke-width="0.609939" stroke-miterlimit="10"/>
<path d="M5.44051 7.03934C5.77737 7.03934 6.05044 6.76626 6.05044 6.4294C6.05044 6.09254 5.77737 5.81946 5.44051 5.81946C5.10365 5.81946 4.83057 6.09254 4.83057 6.4294C4.83057 6.76626 5.10365 7.03934 5.44051 7.03934Z" stroke="black" stroke-width="0.609939" stroke-miterlimit="10"/>
<path d="M6.05044 3.98958C6.05044 4.11021 6.01467 4.22814 5.94765 4.32844C5.88063 4.42875 5.78537 4.50692 5.67392 4.55309C5.56247 4.59925 5.43983 4.61133 5.32151 4.5878C5.2032 4.56426 5.09452 4.50617 5.00921 4.42087C4.92391 4.33557 4.86582 4.22689 4.84229 4.10857C4.81875 3.99025 4.83083 3.86762 4.877 3.75616C4.92316 3.64471 5.00134 3.54945 5.10164 3.48243C5.20195 3.41541 5.31987 3.37964 5.44051 3.37964C5.60227 3.37964 5.75741 3.4439 5.8718 3.55829C5.98618 3.67267 6.05044 3.82781 6.05044 3.98958Z" stroke="black" stroke-width="0.609939" stroke-miterlimit="10"/>
<path d="M5.44051 2.15982C5.77737 2.15982 6.05044 1.88674 6.05044 1.54988C6.05044 1.21302 5.77737 0.939941 5.44051 0.939941C5.10365 0.939941 4.83057 1.21302 4.83057 1.54988C4.83057 1.88674 5.10365 2.15982 5.44051 2.15982Z" stroke="black" stroke-width="0.609939" stroke-miterlimit="10"/>
<path d="M7.88045 7.03934C8.21731 7.03934 8.49039 6.76626 8.49039 6.4294C8.49039 6.09254 8.21731 5.81946 7.88045 5.81946C7.54359 5.81946 7.27051 6.09254 7.27051 6.4294C7.27051 6.76626 7.54359 7.03934 7.88045 7.03934Z" stroke="black" stroke-width="0.609939" stroke-miterlimit="10"/>
<path d="M7.88045 4.59952C8.21731 4.59952 8.49039 4.32644 8.49039 3.98958C8.49039 3.65272 8.21731 3.37964 7.88045 3.37964C7.54359 3.37964 7.27051 3.65272 7.27051 3.98958C7.27051 4.32644 7.54359 4.59952 7.88045 4.59952Z" stroke="black" stroke-width="0.609939" stroke-miterlimit="10"/>
<path d="M7.88045 2.15982C8.21731 2.15982 8.49039 1.88674 8.49039 1.54988C8.49039 1.21302 8.21731 0.939941 7.88045 0.939941C7.54359 0.939941 7.27051 1.21302 7.27051 1.54988C7.27051 1.88674 7.54359 2.15982 7.88045 2.15982Z" stroke="black" stroke-width="0.609939" stroke-miterlimit="10"/>
<path d="M3.00105 7.03934C3.33791 7.03934 3.61099 6.76626 3.61099 6.4294C3.61099 6.09254 3.33791 5.81946 3.00105 5.81946C2.66419 5.81946 2.39111 6.09254 2.39111 6.4294C2.39111 6.76626 2.66419 7.03934 3.00105 7.03934Z" stroke="black" stroke-width="0.609939" stroke-miterlimit="10"/>
<path d="M3.00105 4.59952C3.33791 4.59952 3.61099 4.32644 3.61099 3.98958C3.61099 3.65272 3.33791 3.37964 3.00105 3.37964C2.66419 3.37964 2.39111 3.65272 2.39111 3.98958C2.39111 4.32644 2.66419 4.59952 3.00105 4.59952Z" stroke="black" stroke-width="0.609939" stroke-miterlimit="10"/>
<path d="M3.00105 2.15982C3.33791 2.15982 3.61099 1.88674 3.61099 1.54988C3.61099 1.21302 3.33791 0.939941 3.00105 0.939941C2.66419 0.939941 2.39111 1.21302 2.39111 1.54988C2.39111 1.88674 2.66419 2.15982 3.00105 2.15982Z" stroke="black" stroke-width="0.609939" stroke-miterlimit="10"/>
</g>
<defs>
<clipPath id="clip0_201_11199">
<rect width="9.75902" height="9.75902" fill="white" transform="translate(0.561035 0.329956)"/>
</clipPath>
</defs>
</svg>
