<svg width="10" height="11" viewBox="0 0 10 11" fill="none" xmlns="http://www.w3.org/2000/svg">
<g clip-path="url(#clip0_201_11239)">
<path d="M7.11778 3.68457L4.8877 9.17402H5.78812L6.25491 8.06851H7.98066L8.44745 9.17402H9.34787L7.11778 3.68457ZM6.60906 7.22984L7.11778 5.66401L7.62651 7.22984H6.60906Z" fill="black"/>
<path d="M5.38313 6.42935C5.37837 6.42573 4.99068 6.12877 4.5174 5.61604C5.27182 4.59363 5.69916 3.4315 5.87356 2.88408H6.90798V2.04542H4.27762V1.24487H3.43895V2.04542H0.808594V2.88408H4.98763C4.80617 3.39777 4.47204 4.20879 3.96236 4.94949C3.33946 4.1215 3.06384 3.50317 3.06022 3.49669L2.92432 3.22717L2.20002 3.64651L2.33096 3.91069C2.34793 3.94042 2.65861 4.63308 3.37377 5.56076C3.3913 5.58383 3.40903 5.60632 3.42676 5.62881C2.47906 6.71259 1.7275 7.13631 1.71778 7.14355L1.41853 7.34426L1.85693 8.03044L2.2248 7.81182C2.26673 7.77999 3.01257 7.35436 3.97837 6.2721C4.44573 6.77302 4.80217 7.05035 4.82275 7.06636L5.0591 7.2299L5.38313 6.42935Z" fill="black"/>
</g>
<defs>
<clipPath id="clip0_201_11239">
<rect width="9.75902" height="9.75902" fill="white" transform="translate(0.19873 0.329956)"/>
</clipPath>
</defs>
</svg>
