<svg width="11" height="11" viewBox="0 0 11 11" fill="none" xmlns="http://www.w3.org/2000/svg">
<g clip-path="url(#clip0_201_11250)">
<path d="M10.2905 7.95437H9.7503C9.90188 7.78635 9.9857 7.56805 9.98551 7.34176V2.77256C9.9852 2.52929 9.88844 2.29608 9.71642 2.12407C9.54441 1.95205 9.31119 1.85528 9.06793 1.85498H2.36394C2.12068 1.85528 1.88746 1.95205 1.71545 2.12407C1.54344 2.29608 1.44667 2.52929 1.44636 2.77256V7.34176C1.44617 7.56805 1.52999 7.78635 1.68157 7.95437H1.1414C1.06051 7.95437 0.982942 7.9865 0.925749 8.04369C0.868556 8.10088 0.836426 8.17845 0.836426 8.25934C0.836426 8.34022 0.868556 8.41779 0.925749 8.47498C0.982942 8.53218 1.06051 8.56431 1.1414 8.56431H10.2905C10.3714 8.56431 10.4489 8.53218 10.5061 8.47498C10.5633 8.41779 10.5954 8.34022 10.5954 8.25934C10.5954 8.17845 10.5633 8.10088 10.5061 8.04369C10.4489 7.9865 10.3714 7.95437 10.2905 7.95437Z" fill="black"/>
</g>
<defs>
<clipPath id="clip0_201_11250">
<rect width="9.75902" height="9.75902" fill="white" transform="translate(0.836426 0.330078)"/>
</clipPath>
</defs>
</svg>
