<svg width="10" height="11" viewBox="0 0 10 11" fill="none" xmlns="http://www.w3.org/2000/svg">
<g clip-path="url(#clip0_201_11260)">
<path d="M4.94409 5.2096C4.68735 5.2096 4.4306 5.16404 4.23047 5.07293L1.4095 3.78653C1.28046 3.72783 0.979492 3.55609 0.979492 3.23187C0.979492 2.90765 1.28046 2.7363 1.40988 2.67683L4.25524 1.37937C4.64732 1.2002 5.23896 1.2002 5.63123 1.37937L8.47831 2.67683C8.60773 2.73572 8.9087 2.90746 8.9087 3.23187C8.9087 3.55628 8.60773 3.72745 8.47831 3.78672L5.65734 5.07293C5.45759 5.16404 5.20084 5.2096 4.94409 5.2096Z" fill="black"/>
<path d="M8.47716 4.65324L8.18954 4.52344L7.45056 4.86157L5.65887 5.68118C5.45873 5.77267 5.20141 5.81822 4.94524 5.81822C4.68906 5.81822 4.43194 5.77267 4.23199 5.68118L2.43896 4.86157L1.69979 4.52344L1.40969 4.65381C1.28046 4.71271 0.979492 4.88559 0.979492 5.20962C0.979492 5.53365 1.28046 5.70672 1.4095 5.76562L4.23047 7.05468C4.42946 7.14617 4.68659 7.19192 4.94409 7.19192C5.2016 7.19192 5.45759 7.14617 5.65772 7.05487L8.47621 5.76619C8.60601 5.70729 8.9087 5.53536 8.9087 5.20962C8.9087 4.88387 8.60811 4.71271 8.47716 4.65324Z" fill="black"/>
<path d="M8.47716 6.63535L8.18954 6.50574L7.45056 6.84368L5.65887 7.66233C5.45873 7.75344 5.20141 7.79919 4.94524 7.79919C4.68906 7.79919 4.43194 7.75363 4.23199 7.66233L2.43896 6.84273L1.69979 6.50574L1.40969 6.63611C1.28046 6.69501 0.979492 6.86789 0.979492 7.19192C0.979492 7.51595 1.28046 7.68883 1.4095 7.74753L4.23047 9.03584C4.42946 9.12695 4.68754 9.17422 4.94409 9.17422C5.20065 9.17422 5.45644 9.12695 5.65658 9.03565L8.47602 7.74773C8.60601 7.68902 8.9087 7.51709 8.9087 7.19192C8.9087 6.86674 8.60811 6.69501 8.47716 6.63535Z" fill="black"/>
</g>
<defs>
<clipPath id="clip0_201_11260">
<rect width="9.75902" height="9.75902" fill="white" transform="translate(0.0644531 0.330078)"/>
</clipPath>
</defs>
</svg>
