<svg width="10" height="11" viewBox="0 0 10 11" fill="none" xmlns="http://www.w3.org/2000/svg">
<path d="M8.53304 2.95374L5.68616 1.65571C5.37756 1.51466 4.87246 1.51466 4.56387 1.65571L1.71888 2.95374C1.38342 3.10622 1.38342 3.35573 1.71888 3.50821L4.53985 4.7948C4.86178 4.94157 5.39167 4.94157 5.7136 4.7948L8.53457 3.50821C8.86851 3.35573 8.86851 3.10603 8.53304 2.95374Z" stroke="black" stroke-width="0.609939" stroke-linecap="round" stroke-linejoin="round"/>
<path d="M3.2952 6.21061L1.71888 6.91795C1.38342 7.07044 1.38342 7.32013 1.71888 7.47262L4.53985 8.75921C4.86178 8.90578 5.39167 8.90578 5.7136 8.75921L8.53457 7.47262C8.87004 7.32013 8.87004 7.07044 8.53457 6.91795L7.01087 6.18469" stroke="black" stroke-width="0.609939" stroke-linecap="round" stroke-linejoin="round"/>
<path d="M3.29515 4.22754L1.71693 4.93583C1.38147 5.08832 1.38147 5.33801 1.71693 5.49049L4.5379 6.77689C4.85983 6.92366 5.38972 6.92366 5.71165 6.77689L8.53262 5.49049C8.86999 5.33801 8.86999 5.08832 8.53452 4.93583L6.95478 4.22754" stroke="black" stroke-width="0.609939" stroke-linecap="round" stroke-linejoin="round"/>
</svg>
