<svg width="11" height="11" viewBox="0 0 11 11" fill="none" xmlns="http://www.w3.org/2000/svg">
<g clip-path="url(#clip0_201_11270)">
<path d="M3.3686 4.94275C3.39605 4.91358 3.42898 4.89011 3.46551 4.87367C3.50204 4.85724 3.54145 4.84816 3.58149 4.84696C3.62152 4.84575 3.66141 4.85245 3.69886 4.86666C3.7363 4.88087 3.77059 4.90232 3.79975 4.92979C5.20318 6.25183 6.61137 7.05618 8.2685 7.46618C8.49208 6.85624 8.5119 6.18492 8.31882 5.53C8.06265 4.66103 7.46605 3.90394 6.59403 3.3407C5.81559 2.83789 5.03754 2.70694 4.28484 2.58038C3.33524 2.42065 2.43825 2.26969 1.58224 1.36336C1.48693 1.2631 1.35713 1.22288 1.23305 1.25548C1.09124 1.2936 0.996125 1.40567 0.95057 1.59094C0.843831 2.02457 0.912449 3.23987 1.21265 4.52284C1.6947 6.58405 2.46398 7.62705 3.02455 8.13921C3.74885 8.80042 4.69464 9.16657 5.63452 9.16657C5.81168 9.16686 5.98861 9.15386 6.16383 9.12769C6.95885 9.00723 7.62063 8.60791 7.99365 8.02694C6.28792 7.58321 4.83073 6.7394 3.38099 5.37447C3.35177 5.34696 3.32828 5.31397 3.31184 5.27737C3.2954 5.24077 3.28635 5.20128 3.2852 5.16118C3.28405 5.12107 3.29082 5.08114 3.30513 5.04365C3.31944 5.00617 3.34101 4.97188 3.3686 4.94275Z" fill="black"/>
<path d="M9.20247 7.6529C8.88168 7.60353 8.571 7.54158 8.26851 7.46667C8.20632 7.63645 8.12893 7.80028 8.0373 7.95615C8.02339 7.97998 8.00871 8.00361 7.99365 8.02687C8.36157 8.1221 8.73412 8.19845 9.10984 8.25559C9.14982 8.26262 9.1908 8.26159 9.23038 8.25258C9.26996 8.24356 9.30734 8.22673 9.34033 8.20308C9.37332 8.17943 9.40125 8.14943 9.4225 8.11484C9.44374 8.08025 9.45787 8.04177 9.46405 8.00165C9.47023 7.96153 9.46833 7.92058 9.45848 7.8812C9.44863 7.84182 9.43101 7.80481 9.40667 7.77233C9.38232 7.73985 9.35174 7.71255 9.31671 7.69204C9.28168 7.67153 9.24291 7.65823 9.20267 7.6529H9.20247Z" fill="black"/>
</g>
<defs>
<clipPath id="clip0_201_11270">
<rect width="9.75902" height="9.75902" fill="white" transform="translate(0.292969 0.329956)"/>
</clipPath>
</defs>
</svg>
