<svg width="11" height="11" viewBox="0 0 11 11" fill="none" xmlns="http://www.w3.org/2000/svg">
<g clip-path="url(#clip0_201_11273)">
<path d="M2.22692 2.16003H1.61698C1.44855 2.16003 1.31201 2.29657 1.31201 2.465V8.86936C1.31201 9.03779 1.44855 9.17433 1.61698 9.17433H2.22692C2.39535 9.17433 2.53189 9.03779 2.53189 8.86936V2.465C2.53189 2.29657 2.39535 2.16003 2.22692 2.16003Z" stroke="black" stroke-width="0.609939" stroke-linejoin="round"/>
<path d="M2.83691 4.59973H5.27667" stroke="black" stroke-width="0.609939" stroke-linecap="round" stroke-linejoin="round"/>
<path d="M2.83691 7.95435H5.27667" stroke="black" stroke-width="0.609939" stroke-linecap="round" stroke-linejoin="round"/>
<path d="M4.9717 3.37988H3.14188C2.97345 3.37988 2.83691 3.51642 2.83691 3.68485V8.86933C2.83691 9.03776 2.97345 9.1743 3.14188 9.1743H4.9717C5.14013 9.1743 5.27667 9.03776 5.27667 8.86933V3.68485C5.27667 3.51642 5.14013 3.37988 4.9717 3.37988Z" stroke="black" stroke-width="0.609939" stroke-linejoin="round"/>
<path d="M7.10639 1.24512H5.88651C5.71808 1.24512 5.58154 1.38166 5.58154 1.55009V8.86935C5.58154 9.03778 5.71808 9.17432 5.88651 9.17432H7.10639C7.27482 9.17432 7.41136 9.03778 7.41136 8.86935V1.55009C7.41136 1.38166 7.27482 1.24512 7.10639 1.24512Z" stroke="black" stroke-width="0.609939" stroke-linejoin="round"/>
<path d="M8.75438 2.16209L7.98433 2.2431C7.77238 2.2654 7.61875 2.46363 7.64257 2.6834L8.30817 8.81309C8.33218 9.03286 8.52489 9.1943 8.73684 9.17219L9.50689 9.09119C9.71884 9.06889 9.87247 8.87066 9.84865 8.65089L9.184 2.52215C9.15903 2.30142 8.96633 2.13979 8.75438 2.16209Z" stroke="black" stroke-width="0.609939" stroke-linejoin="round"/>
</g>
<defs>
<clipPath id="clip0_201_11273">
<rect width="9.75902" height="9.75902" fill="white" transform="translate(0.702148 0.330078)"/>
</clipPath>
</defs>
</svg>
