<svg width="11" height="11" viewBox="0 0 11 11" fill="none" xmlns="http://www.w3.org/2000/svg">
<g clip-path="url(#clip0_201_11287)">
<path d="M1.74108 9.47922H1.43611C1.27434 9.47922 1.1192 9.41495 1.00482 9.30057C0.890433 9.18618 0.826172 9.03104 0.826172 8.86928V2.46492C0.826172 2.30315 0.890433 2.14801 1.00482 2.03363C1.1192 1.91924 1.27434 1.85498 1.43611 1.85498H1.74108C1.90285 1.85498 2.05799 1.91924 2.17237 2.03363C2.28676 2.14801 2.35102 2.30315 2.35102 2.46492V8.86928C2.35102 9.03104 2.28676 9.18618 2.17237 9.30057C2.05799 9.41495 1.90285 9.47922 1.74108 9.47922Z" fill="black"/>
<path d="M5.09552 3.68489C5.09552 3.52312 5.03126 3.36798 4.91687 3.2536C4.80248 3.13921 4.64734 3.07495 4.48558 3.07495H3.2657C3.10393 3.07495 2.94879 3.13921 2.83441 3.2536C2.72002 3.36798 2.65576 3.52312 2.65576 3.68489V4.21859C2.65576 4.23881 2.66379 4.2582 2.67809 4.2725C2.69239 4.2868 2.71178 4.29483 2.732 4.29483H5.01927C5.0395 4.29483 5.05889 4.2868 5.07319 4.2725C5.08748 4.2582 5.09552 4.23881 5.09552 4.21859V3.68489Z" fill="black"/>
<path d="M2.65576 8.86934C2.65576 9.0311 2.72002 9.18624 2.83441 9.30063C2.94879 9.41502 3.10393 9.47928 3.2657 9.47928H4.48558C4.64734 9.47928 4.80248 9.41502 4.91687 9.30063C5.03126 9.18624 5.09552 9.0311 5.09552 8.86934V8.29752C5.09552 8.28741 5.0915 8.27771 5.08435 8.27056C5.0772 8.26342 5.06751 8.2594 5.0574 8.2594H2.69388C2.68377 8.2594 2.67408 8.26342 2.66693 8.27056C2.65978 8.27771 2.65576 8.28741 2.65576 8.29752V8.86934Z" fill="black"/>
<path d="M5.0574 4.90466H2.69388C2.67283 4.90466 2.65576 4.92173 2.65576 4.94278V7.61127C2.65576 7.63232 2.67283 7.64939 2.69388 7.64939H5.0574C5.07845 7.64939 5.09552 7.63232 5.09552 7.61127V4.94278C5.09552 4.92173 5.07845 4.90466 5.0574 4.90466Z" fill="black"/>
<path d="M6.62027 9.47921H6.01033C5.84856 9.47921 5.69342 9.41494 5.57904 9.30056C5.46465 9.18617 5.40039 9.03103 5.40039 8.86927V1.55C5.40039 1.38824 5.46465 1.2331 5.57904 1.11871C5.69342 1.00432 5.84856 0.940063 6.01033 0.940063H6.62027C6.78203 0.940063 6.93717 1.00432 7.05156 1.11871C7.16595 1.2331 7.23021 1.38824 7.23021 1.55V8.86927C7.23021 9.03103 7.16595 9.18617 7.05156 9.30056C6.93717 9.41494 6.78203 9.47921 6.62027 9.47921Z" fill="black"/>
<path d="M9.9729 8.82069L9.35857 2.34009C9.33037 2.0418 9.03569 1.82546 8.70041 1.85767L8.09333 1.91485C7.75806 1.94668 7.50913 2.21429 7.53734 2.51259L8.15166 8.99319C8.17987 9.29149 8.47454 9.50783 8.80982 9.47562L9.4169 9.41843C9.75218 9.3866 10.0011 9.11899 9.9729 8.82069Z" fill="black"/>
</g>
<defs>
<clipPath id="clip0_201_11287">
<rect width="9.75902" height="9.75902" fill="white" transform="translate(0.520996 0.330078)"/>
</clipPath>
</defs>
</svg>
