<svg width="11" height="11" viewBox="0 0 11 11" fill="none" xmlns="http://www.w3.org/2000/svg">
<g clip-path="url(#clip0_201_11298)">
<path d="M4.16467 7.03952H3.0847C2.5994 7.03952 2.13398 6.84673 1.79082 6.50358C1.44767 6.16042 1.25488 5.695 1.25488 5.2097C1.25488 4.7244 1.44767 4.25898 1.79082 3.91582C2.13398 3.57267 2.5994 3.37988 3.0847 3.37988H4.14085" stroke="black" stroke-width="0.914908" stroke-linecap="square" stroke-linejoin="round"/>
<path d="M6.29824 3.37988H7.35439C7.83968 3.37988 8.30511 3.57267 8.64826 3.91582C8.99142 4.25898 9.1842 4.7244 9.1842 5.2097C9.1842 5.695 8.99142 6.16042 8.64826 6.50358C8.30511 6.84673 7.83968 7.03952 7.35439 7.03952H6.27441" stroke="black" stroke-width="0.914908" stroke-linecap="square" stroke-linejoin="round"/>
<path d="M3.5625 5.20972H6.91449" stroke="black" stroke-width="0.914908" stroke-linecap="square" stroke-linejoin="round"/>
</g>
<defs>
<clipPath id="clip0_201_11298">
<rect width="9.75902" height="9.75902" fill="white" transform="translate(0.339844 0.330078)"/>
</clipPath>
</defs>
</svg>
