<svg width="11" height="11" viewBox="0 0 11 11" fill="none" xmlns="http://www.w3.org/2000/svg">
<g clip-path="url(#clip0_201_11302)">
<path d="M4.57434 7.03952H3.49437C3.00907 7.03952 2.54365 6.84673 2.20049 6.50358C1.85733 6.16042 1.66455 5.695 1.66455 5.2097C1.66455 4.7244 1.85733 4.25898 2.20049 3.91582C2.54365 3.57267 3.00907 3.37988 3.49437 3.37988H4.55051" stroke="black" stroke-width="0.914908" stroke-linecap="round" stroke-linejoin="round"/>
<path d="M6.70742 3.37988H7.76357C8.24886 3.37988 8.71429 3.57267 9.05744 3.91582C9.4006 4.25898 9.59338 4.7244 9.59338 5.2097C9.59338 5.695 9.4006 6.16042 9.05744 6.50358C8.71429 6.84673 8.24886 7.03952 7.76357 7.03952H6.68359" stroke="black" stroke-width="0.914908" stroke-linecap="round" stroke-linejoin="round"/>
<path d="M3.97217 5.20972H7.32416" stroke="black" stroke-width="0.914908" stroke-linecap="round" stroke-linejoin="round"/>
</g>
<defs>
<clipPath id="clip0_201_11302">
<rect width="9.75902" height="9.75902" fill="white" transform="translate(0.749512 0.330078)"/>
</clipPath>
</defs>
</svg>
