<svg width="11" height="11" viewBox="0 0 11 11" fill="none" xmlns="http://www.w3.org/2000/svg">
<path d="M5.85718 1.24512C3.67112 1.24512 1.89258 3.02366 1.89258 5.20972C1.89258 7.39578 3.67112 9.17432 5.85718 9.17432C8.04324 9.17432 9.82178 7.39578 9.82178 5.20972C9.82178 3.02366 8.04324 1.24512 5.85718 1.24512ZM4.17985 7.00141C4.08937 7.00141 4.00093 6.97459 3.9257 6.92432C3.85047 6.87405 3.79184 6.80261 3.75722 6.71902C3.72259 6.63543 3.71353 6.54345 3.73118 6.45472C3.74884 6.36598 3.7924 6.28447 3.85638 6.22049C3.92036 6.15652 4.00187 6.11295 4.0906 6.0953C4.17934 6.07765 4.27132 6.0867 4.35491 6.12133C4.4385 6.15595 4.50994 6.21458 4.56021 6.28981C4.61047 6.36504 4.6373 6.45348 4.6373 6.54396C4.6373 6.66529 4.58911 6.78164 4.50332 6.86743C4.41753 6.95322 4.30117 7.00141 4.17985 7.00141ZM4.17985 5.64811C4.08937 5.64811 4.00093 5.62128 3.9257 5.57102C3.85047 5.52075 3.79184 5.44931 3.75722 5.36572C3.72259 5.28213 3.71353 5.19015 3.73118 5.10141C3.74884 5.01268 3.7924 4.93117 3.85638 4.86719C3.92036 4.80321 4.00187 4.75965 4.0906 4.74199C4.17934 4.72434 4.27132 4.7334 4.35491 4.76803C4.4385 4.80265 4.50994 4.86128 4.56021 4.93651C4.61047 5.01174 4.6373 5.10018 4.6373 5.19066C4.6373 5.31198 4.58911 5.42834 4.50332 5.51413C4.41753 5.59992 4.30117 5.64811 4.17985 5.64811ZM4.17985 4.25669C4.08937 4.25669 4.00093 4.22986 3.9257 4.1796C3.85047 4.12933 3.79184 4.05788 3.75722 3.9743C3.72259 3.89071 3.71353 3.79873 3.73118 3.70999C3.74884 3.62125 3.7924 3.53974 3.85638 3.47577C3.92036 3.41179 4.00187 3.36822 4.0906 3.35057C4.17934 3.33292 4.27132 3.34198 4.35491 3.3766C4.4385 3.41123 4.50994 3.46986 4.56021 3.54509C4.61047 3.62032 4.6373 3.70876 4.6373 3.79924C4.6373 3.92056 4.58911 4.03692 4.50332 4.1227C4.41753 4.20849 4.30117 4.25669 4.17985 4.25669ZM7.687 6.82987H5.24724C5.16636 6.82987 5.08879 6.79774 5.0316 6.74055C4.9744 6.68335 4.94227 6.60578 4.94227 6.5249C4.94227 6.44402 4.9744 6.36645 5.0316 6.30925C5.08879 6.25206 5.16636 6.21993 5.24724 6.21993H7.687C7.76788 6.21993 7.84545 6.25206 7.90264 6.30925C7.95984 6.36645 7.99197 6.44402 7.99197 6.5249C7.99197 6.60578 7.95984 6.68335 7.90264 6.74055C7.84545 6.79774 7.76788 6.82987 7.687 6.82987ZM7.687 5.47657H5.24724C5.16636 5.47657 5.08879 5.44444 5.0316 5.38724C4.9744 5.33005 4.94227 5.25248 4.94227 5.1716C4.94227 5.09072 4.9744 5.01315 5.0316 4.95595C5.08879 4.89876 5.16636 4.86663 5.24724 4.86663H7.687C7.76788 4.86663 7.84545 4.89876 7.90264 4.95595C7.95984 5.01315 7.99197 5.09072 7.99197 5.1716C7.99197 5.25248 7.95984 5.33005 7.90264 5.38724C7.84545 5.44444 7.76788 5.47657 7.687 5.47657ZM7.687 4.10421H5.24724C5.16636 4.10421 5.08879 4.07207 5.0316 4.01488C4.9744 3.95769 4.94227 3.88012 4.94227 3.79924C4.94227 3.71835 4.9744 3.64078 5.0316 3.58359C5.08879 3.5264 5.16636 3.49427 5.24724 3.49427H7.687C7.76788 3.49427 7.84545 3.5264 7.90264 3.58359C7.95984 3.64078 7.99197 3.71835 7.99197 3.79924C7.99197 3.88012 7.95984 3.95769 7.90264 4.01488C7.84545 4.07207 7.76788 4.10421 7.687 4.10421Z" fill="black"/>
</svg>
