<svg width="11" height="11" viewBox="0 0 11 11" fill="none" xmlns="http://www.w3.org/2000/svg">
<path d="M3.43701 3.07495H8.92646" stroke="black" stroke-width="0.609939" stroke-linecap="round" stroke-linejoin="round"/>
<path d="M3.43701 5.20972H8.92646" stroke="black" stroke-width="0.609939" stroke-linecap="round" stroke-linejoin="round"/>
<path d="M3.43701 7.34448H8.92646" stroke="black" stroke-width="0.609939" stroke-linecap="round" stroke-linejoin="round"/>
<path d="M1.9119 3.37984C2.08033 3.37984 2.21687 3.2433 2.21687 3.07487C2.21687 2.90644 2.08033 2.7699 1.9119 2.7699C1.74347 2.7699 1.60693 2.90644 1.60693 3.07487C1.60693 3.2433 1.74347 3.37984 1.9119 3.37984Z" stroke="black" stroke-width="0.609939" stroke-linecap="round" stroke-linejoin="round"/>
<path d="M1.9119 5.5146C2.08033 5.5146 2.21687 5.37806 2.21687 5.20963C2.21687 5.0412 2.08033 4.90466 1.9119 4.90466C1.74347 4.90466 1.60693 5.0412 1.60693 5.20963C1.60693 5.37806 1.74347 5.5146 1.9119 5.5146Z" stroke="black" stroke-width="0.609939" stroke-linecap="round" stroke-linejoin="round"/>
<path d="M1.9119 7.64949C2.08033 7.64949 2.21687 7.51295 2.21687 7.34452C2.21687 7.17609 2.08033 7.03955 1.9119 7.03955C1.74347 7.03955 1.60693 7.17609 1.60693 7.34452C1.60693 7.51295 1.74347 7.64949 1.9119 7.64949Z" stroke="black" stroke-width="0.609939" stroke-linecap="round" stroke-linejoin="round"/>
</svg>
