<svg width="10" height="11" viewBox="0 0 10 11" fill="none" xmlns="http://www.w3.org/2000/svg">
<g clip-path="url(#clip0_201_11306)">
<path d="M4.42822 3.83728H6.86798" stroke="black" stroke-width="0.609939" stroke-linecap="round" stroke-linejoin="round"/>
<path d="M4.42822 5.20972H6.86798" stroke="black" stroke-width="0.609939" stroke-linecap="round" stroke-linejoin="round"/>
<path d="M4.42822 6.56299H6.86798" stroke="black" stroke-width="0.609939" stroke-linecap="round" stroke-linejoin="round"/>
<path d="M8.69768 5.24777C8.69768 3.22735 7.05847 1.58813 5.03805 1.58813C3.01763 1.58813 1.37842 3.22735 1.37842 5.24777C1.37842 7.26819 3.01763 8.9074 5.03805 8.9074C7.05847 8.9074 8.69768 7.26819 8.69768 5.24777Z" stroke="black" stroke-width="0.609939" stroke-miterlimit="10"/>
<path d="M3.36098 3.98978C3.4452 3.98978 3.51347 3.92151 3.51347 3.8373C3.51347 3.75308 3.4452 3.68481 3.36098 3.68481C3.27677 3.68481 3.2085 3.75308 3.2085 3.8373C3.2085 3.92151 3.27677 3.98978 3.36098 3.98978Z" stroke="black" stroke-width="0.609939" stroke-linecap="round" stroke-linejoin="round"/>
<path d="M3.36098 5.38126C3.4452 5.38126 3.51347 5.31299 3.51347 5.22878C3.51347 5.14456 3.4452 5.07629 3.36098 5.07629C3.27677 5.07629 3.2085 5.14456 3.2085 5.22878C3.2085 5.31299 3.27677 5.38126 3.36098 5.38126Z" stroke="black" stroke-width="0.609939" stroke-linecap="round" stroke-linejoin="round"/>
<path d="M3.36098 6.73453C3.4452 6.73453 3.51347 6.66627 3.51347 6.58205C3.51347 6.49784 3.4452 6.42957 3.36098 6.42957C3.27677 6.42957 3.2085 6.49784 3.2085 6.58205C3.2085 6.66627 3.27677 6.73453 3.36098 6.73453Z" stroke="black" stroke-width="0.609939" stroke-linecap="round" stroke-linejoin="round"/>
</g>
<defs>
<clipPath id="clip0_201_11306">
<rect width="9.75902" height="9.75902" fill="white" transform="translate(0.158691 0.330078)"/>
</clipPath>
</defs>
</svg>
