<svg width="10" height="11" viewBox="0 0 10 11" fill="none" xmlns="http://www.w3.org/2000/svg">
<path d="M5.07039 5.00906C5.40725 5.00906 5.68033 4.73598 5.68033 4.39912C5.68033 4.06226 5.40725 3.78918 5.07039 3.78918C4.73353 3.78918 4.46045 4.06226 4.46045 4.39912C4.46045 4.73598 4.73353 5.00906 5.07039 5.00906Z" fill="black"/>
<path d="M5.0702 1.34937C3.38868 1.34937 2.02051 2.65787 2.02051 4.26564C2.02051 5.0313 2.36951 6.04952 3.05778 7.29208C3.61054 8.28971 4.25002 9.19184 4.58263 9.64072C4.63883 9.71742 4.71232 9.77979 4.79713 9.82279C4.88194 9.86578 4.97569 9.88819 5.07077 9.88819C5.16586 9.88819 5.25961 9.86578 5.34442 9.82279C5.42923 9.77979 5.50271 9.71742 5.55892 9.64072C5.89095 9.19184 6.531 8.28971 7.08376 7.29208C7.7709 6.0499 8.11989 5.03168 8.11989 4.26564C8.11989 2.65787 6.75173 1.34937 5.0702 1.34937ZM5.0702 5.61894C4.82893 5.61894 4.59308 5.54739 4.39247 5.41335C4.19187 5.27931 4.03551 5.08879 3.94318 4.86589C3.85085 4.64298 3.82669 4.39771 3.87376 4.16107C3.92083 3.92444 4.03701 3.70708 4.20762 3.53648C4.37822 3.36587 4.59558 3.24969 4.83222 3.20262C5.06885 3.15555 5.31412 3.17971 5.53703 3.27204C5.75993 3.36437 5.95045 3.52072 6.08449 3.72133C6.21853 3.92194 6.29008 4.15779 6.29008 4.39906C6.28973 4.72248 6.16109 5.03256 5.9324 5.26125C5.7037 5.48995 5.39362 5.61858 5.0702 5.61894Z" fill="black"/>
</svg>
