<svg width="11" height="11" viewBox="0 0 11 11" fill="none" xmlns="http://www.w3.org/2000/svg">
<path d="M5.43262 2.56931V1.80688" stroke="black" stroke-width="0.914908" stroke-linecap="square" stroke-linejoin="round"/>
<path d="M5.43262 9.431V8.66858" stroke="black" stroke-width="0.914908" stroke-linecap="square" stroke-linejoin="round"/>
<path d="M5.43271 2.87427C4.88986 2.87427 4.35919 3.03524 3.90783 3.33684C3.45646 3.63843 3.10466 4.0671 2.89692 4.56863C2.68918 5.07016 2.63482 5.62204 2.74073 6.15446C2.84663 6.68689 3.10804 7.17595 3.4919 7.55981C3.87576 7.94366 4.36482 8.20507 4.89724 8.31098C5.42967 8.41688 5.98154 8.36253 6.48307 8.15479C6.98461 7.94705 7.41328 7.59525 7.71487 7.14388C8.01646 6.69251 8.17744 6.16185 8.17744 5.61899C8.17744 4.89105 7.88826 4.19291 7.37353 3.67818C6.85879 3.16344 6.16066 2.87427 5.43271 2.87427Z" stroke="black" stroke-width="0.914908" stroke-linecap="square" stroke-linejoin="round"/>
<path d="M8.48242 5.6189H9.24485" stroke="black" stroke-width="0.914908" stroke-linecap="square" stroke-linejoin="round"/>
<path d="M1.62061 5.6189H2.38303" stroke="black" stroke-width="0.914908" stroke-linecap="square" stroke-linejoin="round"/>
</svg>
