<svg width="11" height="11" viewBox="0 0 11 11" fill="none" xmlns="http://www.w3.org/2000/svg">
<g clip-path="url(#clip0_201_11339)">
<path d="M5.49463 2.16001V1.39758" stroke="black" stroke-width="0.914908" stroke-linecap="round" stroke-linejoin="round"/>
<path d="M5.49463 9.02182V8.2594" stroke="black" stroke-width="0.914908" stroke-linecap="round" stroke-linejoin="round"/>
<path d="M5.49473 2.46497C4.95187 2.46497 4.42121 2.62594 3.96984 2.92754C3.51847 3.22913 3.16667 3.6578 2.95893 4.15933C2.75119 4.66086 2.69683 5.21274 2.80274 5.74516C2.90865 6.27758 3.17006 6.76665 3.55391 7.1505C3.93777 7.53436 4.42683 7.79577 4.95926 7.90168C5.49168 8.00758 6.04355 7.95323 6.54509 7.74549C7.04662 7.53774 7.47529 7.18595 7.77688 6.73458C8.07848 6.28321 8.23945 5.75255 8.23945 5.20969C8.23945 4.48174 7.95027 3.78361 7.43554 3.26888C6.9208 2.75414 6.22267 2.46497 5.49473 2.46497Z" stroke="black" stroke-width="0.609939" stroke-miterlimit="10"/>
<path d="M8.54443 5.20972H9.30686" stroke="black" stroke-width="0.914908" stroke-linecap="round" stroke-linejoin="round"/>
<path d="M1.68262 5.20972H2.44504" stroke="black" stroke-width="0.914908" stroke-linecap="round" stroke-linejoin="round"/>
</g>
<defs>
<clipPath id="clip0_201_11339">
<rect width="9.75902" height="9.75902" fill="white" transform="translate(0.615234 0.330078)"/>
</clipPath>
</defs>
</svg>
