<svg width="11" height="11" viewBox="0 0 11 11" fill="none" xmlns="http://www.w3.org/2000/svg">
<path d="M5.25156 1.6543C3.73624 1.6543 2.50684 2.82443 2.50684 4.2656C2.50684 5.92387 4.33665 8.55175 5.00854 9.45942C5.03643 9.49773 5.07298 9.52891 5.11522 9.55041C5.15745 9.5719 5.20417 9.58311 5.25156 9.58311C5.29895 9.58311 5.34567 9.5719 5.38791 9.55041C5.43014 9.52891 5.46669 9.49773 5.49458 9.45942C6.16647 8.55213 7.99629 5.9252 7.99629 4.2656C7.99629 2.82443 6.76688 1.6543 5.25156 1.6543Z" stroke="black" stroke-width="0.609939" stroke-linecap="round" stroke-linejoin="round"/>
<path d="M5.25133 5.31395C5.75662 5.31395 6.16624 4.90433 6.16624 4.39904C6.16624 3.89375 5.75662 3.48413 5.25133 3.48413C4.74604 3.48413 4.33643 3.89375 4.33643 4.39904C4.33643 4.90433 4.74604 5.31395 5.25133 5.31395Z" stroke="black" stroke-width="0.609939" stroke-linecap="round" stroke-linejoin="round"/>
</svg>
