<svg width="10" height="11" viewBox="0 0 10 11" fill="none" xmlns="http://www.w3.org/2000/svg">
<g clip-path="url(#clip0_201_11368)">
<path d="M8.01527 4.3991H6.71915V2.87425C6.71915 2.38895 6.52636 1.92353 6.18321 1.58037C5.84005 1.23722 5.37463 1.04443 4.88933 1.04443C4.40403 1.04443 3.93861 1.23722 3.59546 1.58037C3.2523 1.92353 3.05951 2.38895 3.05951 2.87425V4.3991H1.76339C1.70273 4.3991 1.64456 4.4232 1.60166 4.46609C1.55877 4.50898 1.53467 4.56716 1.53467 4.62782V9.96479C1.53467 10.0255 1.55877 10.0836 1.60166 10.1265C1.64456 10.1694 1.70273 10.1935 1.76339 10.1935H8.01527C8.07593 10.1935 8.13411 10.1694 8.177 10.1265C8.2199 10.0836 8.24399 10.0255 8.24399 9.96479V4.62782C8.24399 4.56716 8.2199 4.50898 8.177 4.46609C8.13411 4.4232 8.07593 4.3991 8.01527 4.3991ZM5.99484 4.3991H3.78382V2.85995C3.78382 2.56675 3.90029 2.28556 4.10761 2.07824C4.31494 1.87091 4.59613 1.75444 4.88933 1.75444C5.18253 1.75444 5.46372 1.87091 5.67105 2.07824C5.87837 2.28556 5.99484 2.56675 5.99484 2.85995V4.3991Z" fill="black"/>
</g>
<defs>
<clipPath id="clip0_201_11368">
<rect width="9.75902" height="9.75902" fill="white" transform="translate(0.00976562 0.73938)"/>
</clipPath>
</defs>
</svg>
