<svg width="11" height="11" viewBox="0 0 11 11" fill="none" xmlns="http://www.w3.org/2000/svg">
<g clip-path="url(#clip0_201_11370)">
<path d="M7.4333 4.3991H7.12833V2.87425C7.12833 2.38895 6.93554 1.92353 6.59239 1.58037C6.24923 1.23722 5.78381 1.04443 5.29851 1.04443C4.81321 1.04443 4.34779 1.23722 4.00464 1.58037C3.66148 1.92353 3.46869 2.38895 3.46869 2.87425V4.3991H3.16373C2.8403 4.39945 2.53023 4.52809 2.30153 4.75678C2.07284 4.98548 1.9442 5.29555 1.94385 5.61897V8.97364C1.9442 9.29706 2.07284 9.60714 2.30153 9.83583C2.53023 10.0645 2.8403 10.1932 3.16373 10.1935H7.4333C7.75672 10.1932 8.0668 10.0645 8.29549 9.83583C8.52418 9.60714 8.65282 9.29706 8.65317 8.97364V5.61897C8.65282 5.29555 8.52418 4.98548 8.29549 4.75678C8.0668 4.52809 7.75672 4.39945 7.4333 4.3991ZM6.51839 4.3991H4.07863V2.87425C4.07863 2.55072 4.20716 2.24044 4.43593 2.01167C4.6647 1.78289 4.97498 1.65437 5.29851 1.65437C5.62204 1.65437 5.93232 1.78289 6.16109 2.01167C6.38987 2.24044 6.51839 2.55072 6.51839 2.87425V4.3991Z" fill="black"/>
</g>
<defs>
<clipPath id="clip0_201_11370">
<rect width="9.75902" height="9.75902" fill="white" transform="translate(0.418945 0.73938)"/>
</clipPath>
</defs>
</svg>
