<svg width="10" height="11" viewBox="0 0 10 11" fill="none" xmlns="http://www.w3.org/2000/svg">
<g clip-path="url(#clip0_201_11375)">
<path d="M8.24378 4.3991H4.01233V2.85995C4.01262 2.64131 4.07765 2.42765 4.19922 2.24591C4.32079 2.06418 4.49345 1.92251 4.69543 1.83878C4.8974 1.75505 5.11965 1.733 5.33414 1.77542C5.54864 1.81784 5.74576 1.92283 5.90067 2.07714C6.10888 2.29006 6.22482 2.57645 6.22336 2.87425H6.94766C6.94766 2.38895 6.75488 1.92353 6.41172 1.58037C6.06857 1.23722 5.60314 1.04443 5.11785 1.04443C4.63255 1.04443 4.16713 1.23722 3.82397 1.58037C3.48081 1.92353 3.28803 2.38895 3.28803 2.87425V4.3991H1.99191C1.93125 4.3991 1.87307 4.4232 1.83018 4.46609C1.78728 4.50898 1.76318 4.56716 1.76318 4.62782V9.96479C1.76318 10.0255 1.78728 10.0836 1.83018 10.1265C1.87307 10.1694 1.93125 10.1935 1.99191 10.1935H8.24378C8.30444 10.1935 8.36262 10.1694 8.40552 10.1265C8.44841 10.0836 8.47251 10.0255 8.47251 9.96479V4.62782C8.47251 4.56716 8.44841 4.50898 8.40552 4.46609C8.36262 4.4232 8.30444 4.3991 8.24378 4.3991Z" fill="black"/>
</g>
<defs>
<clipPath id="clip0_201_11375">
<rect width="9.75902" height="9.75902" fill="white" transform="translate(0.238281 0.73938)"/>
</clipPath>
</defs>
</svg>
