<svg width="11" height="11" viewBox="0 0 11 11" fill="none" xmlns="http://www.w3.org/2000/svg">
<g clip-path="url(#clip0_201_11365)">
<path d="M7.00428 4.70401V2.89326C7.00428 2.48884 6.84363 2.10099 6.55767 1.81503C6.2717 1.52906 5.88385 1.36841 5.47944 1.36841C5.07502 1.36841 4.68717 1.52906 4.40121 1.81503C4.11524 2.10099 3.95459 2.48884 3.95459 2.89326V4.70401" stroke="black" stroke-width="0.609939" stroke-linecap="round" stroke-linejoin="round"/>
<path d="M7.61466 4.70398H3.34508C2.83979 4.70398 2.43018 5.1136 2.43018 5.61889V8.97355C2.43018 9.47884 2.83979 9.88846 3.34508 9.88846H7.61466C8.11995 9.88846 8.52956 9.47884 8.52956 8.97355V5.61889C8.52956 5.1136 8.11995 4.70398 7.61466 4.70398Z" stroke="black" stroke-width="0.609939" stroke-linecap="round" stroke-linejoin="round"/>
</g>
<defs>
<clipPath id="clip0_201_11365">
<rect width="9.75902" height="9.75902" fill="white" transform="translate(0.600098 0.73938)"/>
</clipPath>
</defs>
</svg>
