<svg width="11" height="11" viewBox="0 0 11 11" fill="none" xmlns="http://www.w3.org/2000/svg">
<g clip-path="url(#clip0_201_11372)">
<path d="M7.2328 2.87421C7.2328 2.4698 7.07215 2.08195 6.78618 1.79598C6.50022 1.51002 6.11237 1.34937 5.70795 1.34937C5.30354 1.34937 4.91569 1.51002 4.62972 1.79598C4.34376 2.08195 4.18311 2.4698 4.18311 2.87421V4.70403" stroke="black" stroke-width="0.609939" stroke-linecap="round" stroke-linejoin="round"/>
<path d="M7.84317 4.70398H3.5736C3.06831 4.70398 2.65869 5.1136 2.65869 5.61889V8.97355C2.65869 9.47884 3.06831 9.88846 3.5736 9.88846H7.84317C8.34846 9.88846 8.75808 9.47884 8.75808 8.97355V5.61889C8.75808 5.1136 8.34846 4.70398 7.84317 4.70398Z" stroke="black" stroke-width="0.609939" stroke-linecap="round" stroke-linejoin="round"/>
</g>
<defs>
<clipPath id="clip0_201_11372">
<rect width="9.75902" height="9.75902" fill="white" transform="translate(0.828613 0.73938)"/>
</clipPath>
</defs>
</svg>
