<svg width="10" height="11" viewBox="0 0 10 11" fill="none" xmlns="http://www.w3.org/2000/svg">
<path d="M3.7168 4.09406V3.33164C3.7168 3.12943 3.79712 2.9355 3.94011 2.79252C4.08309 2.64954 4.27701 2.56921 4.47922 2.56921H7.52891C7.73112 2.56921 7.92505 2.64954 8.06803 2.79252C8.21101 2.9355 8.29134 3.12943 8.29134 3.33164V7.90618C8.29134 8.10839 8.21101 8.30231 8.06803 8.44529C7.92505 8.58828 7.73112 8.6686 7.52891 8.6686H4.6317C4.21066 8.6686 3.7168 8.32723 3.7168 7.90618V7.14375" stroke="black" stroke-width="0.609939" stroke-linecap="round" stroke-linejoin="round"/>
<path d="M5.54639 7.14381L7.07123 5.61896L5.54639 4.09412" stroke="black" stroke-width="0.609939" stroke-linecap="round" stroke-linejoin="round"/>
<path d="M1.58203 5.6189H6.76651" stroke="black" stroke-width="0.609939" stroke-linecap="round" stroke-linejoin="round"/>
</svg>
