<svg width="11" height="11" viewBox="0 0 11 11" fill="none" xmlns="http://www.w3.org/2000/svg">
<path d="M8.70031 2.26428H4.12577C4.04489 2.26428 3.96732 2.29641 3.91012 2.35361C3.85293 2.4108 3.8208 2.48837 3.8208 2.56925V5.31398H6.74412L5.52425 4.0941L5.95559 3.66276L7.69601 5.40337C7.75316 5.46056 7.78526 5.5381 7.78526 5.61895C7.78526 5.69979 7.75316 5.77733 7.69601 5.83452L5.95559 7.57513L5.52425 7.14379L6.74412 5.92391H3.8208V8.66864C3.8208 8.74952 3.85293 8.82709 3.91012 8.88429C3.96732 8.94148 4.04489 8.97361 4.12577 8.97361H8.70031C8.78119 8.97361 8.85876 8.94148 8.91596 8.88429C8.97315 8.82709 9.00528 8.74952 9.00528 8.66864V2.56925C9.00528 2.48837 8.97315 2.4108 8.91596 2.35361C8.85876 2.29641 8.78119 2.26428 8.70031 2.26428Z" fill="black"/>
<path d="M3.82082 5.31396H1.68604V5.9239H3.82082V5.31396Z" fill="black"/>
</svg>
