<svg width="10" height="11" viewBox="0 0 10 11" fill="none" xmlns="http://www.w3.org/2000/svg">
<path d="M3.15383 5.61895C3.15383 5.53806 3.18596 5.46049 3.24315 5.4033C3.30035 5.34611 3.37792 5.31398 3.4588 5.31398H6.20352V3.33168C6.20352 2.72174 5.55947 2.26428 4.98365 2.26428H2.08644C1.80344 2.26458 1.53212 2.37714 1.33201 2.57725C1.1319 2.77736 1.01935 3.04868 1.01904 3.33168V7.90622C1.01935 8.18921 1.1319 8.46053 1.33201 8.66064C1.53212 8.86075 1.80344 8.97331 2.08644 8.97361H5.13613C5.41913 8.97331 5.69045 8.86075 5.89056 8.66064C6.09067 8.46053 6.20322 8.18921 6.20352 7.90622V5.92391H3.4588C3.37792 5.92391 3.30035 5.89178 3.24315 5.83459C3.18596 5.7774 3.15383 5.69983 3.15383 5.61895Z" fill="black"/>
<path d="M8.85943 5.40328L7.33458 3.87843C7.27693 3.82365 7.20015 3.79356 7.12063 3.79458C7.0411 3.7956 6.96512 3.82764 6.90888 3.88388C6.85265 3.94012 6.8206 4.0161 6.81959 4.09562C6.81857 4.17515 6.84866 4.25192 6.90343 4.30958L7.90755 5.31388H6.2041V5.92382H7.90755L6.90343 6.92812C6.87392 6.95616 6.85032 6.98982 6.83403 7.02712C6.81773 7.06443 6.80907 7.10461 6.80854 7.14531C6.80802 7.18602 6.81566 7.22641 6.83099 7.26412C6.84633 7.30183 6.86906 7.33608 6.89784 7.36486C6.92663 7.39365 6.96088 7.41638 6.99859 7.43172C7.03629 7.44705 7.07669 7.45468 7.11739 7.45416C7.1581 7.45364 7.19828 7.44498 7.23558 7.42868C7.27289 7.41238 7.30655 7.38878 7.33458 7.35927L8.85943 5.83443C8.91658 5.77724 8.94868 5.6997 8.94868 5.61885C8.94868 5.538 8.91658 5.46046 8.85943 5.40328Z" fill="black"/>
</svg>
