<svg width="11" height="11" viewBox="0 0 11 11" fill="none" xmlns="http://www.w3.org/2000/svg">
<path d="M6.07942 7.14375V7.90618C6.07942 8.10839 5.9991 8.30231 5.85611 8.44529C5.71313 8.58828 5.51921 8.6686 5.317 8.6686H2.26731C2.0651 8.6686 1.87117 8.58828 1.72819 8.44529C1.58521 8.30231 1.50488 8.10839 1.50488 7.90618V3.33164C1.50488 3.12943 1.58521 2.9355 1.72819 2.79252C1.87117 2.64954 2.0651 2.56921 2.26731 2.56921H5.16452C5.58556 2.56921 6.07942 2.91059 6.07942 3.33164V4.09406" stroke="black" stroke-width="0.609939" stroke-linecap="round" stroke-linejoin="round"/>
<path d="M7.29932 7.14369L8.82416 5.61884L7.29932 4.09399" stroke="black" stroke-width="0.609939" stroke-linecap="round" stroke-linejoin="round"/>
<path d="M3.63965 5.6189H8.51916" stroke="black" stroke-width="0.609939" stroke-linecap="round" stroke-linejoin="round"/>
</svg>
