<svg width="11" height="11" viewBox="0 0 11 11" fill="none" xmlns="http://www.w3.org/2000/svg">
<path d="M3.74465 5.31398H6.79434V2.56925C6.79434 2.48837 6.76221 2.4108 6.70502 2.35361C6.64783 2.29641 6.57026 2.26428 6.48937 2.26428H1.91483C1.83395 2.26428 1.75638 2.29641 1.69919 2.35361C1.64199 2.4108 1.60986 2.48837 1.60986 2.56925V8.66864C1.60986 8.74952 1.64199 8.82709 1.69919 8.88429C1.75638 8.94148 1.83395 8.97361 1.91483 8.97361H6.48937C6.57026 8.97361 6.64783 8.94148 6.70502 8.88429C6.76221 8.82709 6.79434 8.74952 6.79434 8.66864V5.92391H3.74465V5.31398Z" fill="black"/>
<path d="M9.44928 5.40333L7.70885 3.66272L7.27751 4.09406L8.49739 5.31394H6.79395V5.92388H8.49739L7.27751 7.14375L7.70885 7.5751L9.44928 5.83448C9.50643 5.7773 9.53853 5.69976 9.53853 5.61891C9.53853 5.53806 9.50643 5.46052 9.44928 5.40333Z" fill="black"/>
</svg>
