<svg width="11" height="11" viewBox="0 0 11 11" fill="none" xmlns="http://www.w3.org/2000/svg">
<path d="M8.34756 2.26428H5.29786C5.01486 2.26458 4.74354 2.37714 4.54344 2.57725C4.34333 2.77736 4.23077 3.04868 4.23047 3.33168V5.31398H7.15379L6.14968 4.30967C6.0949 4.25202 6.06481 4.17524 6.06583 4.09572C6.06685 4.01619 6.09889 3.94021 6.15513 3.88397C6.21137 3.82774 6.28735 3.79569 6.36687 3.79468C6.4464 3.79366 6.52317 3.82374 6.58083 3.87852L8.10568 5.40337C8.16283 5.46056 8.19493 5.5381 8.19493 5.61895C8.19493 5.69979 8.16283 5.77733 8.10568 5.83452L6.58083 7.35937C6.52317 7.41415 6.4464 7.44423 6.36687 7.44322C6.28735 7.4422 6.21137 7.41015 6.15513 7.35392C6.09889 7.29768 6.06685 7.2217 6.06583 7.14218C6.06481 7.06265 6.0949 6.98588 6.14968 6.92822L7.15379 5.92391H4.23047V7.90622C4.23047 8.51711 4.87453 8.97361 5.45035 8.97361H8.34756C8.63055 8.97331 8.90187 8.86075 9.10198 8.66064C9.30209 8.46053 9.41465 8.18921 9.41495 7.90622V3.33168C9.41465 3.04868 9.30209 2.77736 9.10198 2.57725C8.90187 2.37714 8.63055 2.26458 8.34756 2.26428Z" fill="black"/>
<path d="M2.40067 5.31396C2.31979 5.31396 2.24222 5.3461 2.18503 5.40329C2.12783 5.46048 2.0957 5.53805 2.0957 5.61893C2.0957 5.69982 2.12783 5.77739 2.18503 5.83458C2.24222 5.89177 2.31979 5.9239 2.40067 5.9239H4.23049V5.31396H2.40067Z" fill="black"/>
</svg>
