<svg width="10" height="10" viewBox="0 0 10 10" fill="none" xmlns="http://www.w3.org/2000/svg">
<g clip-path="url(#clip0_201_11585)">
<path d="M7.77125 4.0182C7.75601 3.69226 7.70835 3.36061 7.5654 3.06326C7.487 2.89874 7.38058 2.74911 7.2509 2.62106C7.12933 2.50066 6.9929 2.39625 6.84491 2.31037C6.51897 2.11595 6.13014 1.98634 5.2362 1.71949C4.34225 1.45264 3.81104 1.36877 3.81104 1.36877V8.19818L5.33398 8.68804C5.33398 8.68804 5.33588 4.8988 5.33588 2.97939V2.90696C5.33588 2.7297 5.47884 2.58675 5.64276 2.58675H5.65229C5.8143 2.58675 5.94773 2.7297 5.94773 2.90696V5.44774C6.15739 5.54876 6.5043 5.625 6.74446 5.62119C6.90382 5.62563 7.06156 5.58817 7.20191 5.51255C7.34676 5.43245 7.46778 5.31538 7.55263 5.17327C7.64729 5.01303 7.71128 4.83658 7.74133 4.65291C7.77697 4.44706 7.77888 4.23167 7.77125 4.0182Z" fill="black"/>
<path d="M1.80345 6.96878C2.32571 6.78199 3.50556 6.4065 3.50556 6.4065V5.50684C3.50556 5.50684 2.04743 5.97954 1.38412 6.21398C1.2202 6.27307 1.05437 6.32644 0.894265 6.39506C0.707471 6.47321 0.524489 6.56089 0.358662 6.67716C0.284266 6.72475 0.223771 6.79117 0.183305 6.86967C0.164338 6.91001 0.153717 6.95376 0.152079 6.99831C0.150441 7.04285 0.157821 7.08727 0.173774 7.12889C0.211896 7.2261 0.284326 7.30616 0.366286 7.36906C0.514959 7.48151 0.692222 7.55013 0.869486 7.60159C1.4125 7.78184 1.98242 7.86759 2.55444 7.8551C2.83082 7.85129 3.24062 7.81889 3.50747 7.77123V6.97069C3.50747 6.97069 3.2978 7.01834 2.72027 7.20895C2.63259 7.23754 2.54491 7.27185 2.45342 7.29091C2.318 7.31909 2.18003 7.33314 2.04171 7.33284C1.91782 7.32712 1.79011 7.3195 1.67384 7.27375C1.63191 7.25469 1.58616 7.23182 1.56901 7.18607C1.55376 7.14795 1.57473 7.10983 1.60141 7.08315C1.65478 7.02787 1.73102 6.99737 1.80345 6.96878Z" fill="black"/>
<path d="M9.9102 6.74198C9.90829 6.62761 9.83967 6.5285 9.75962 6.45607C9.62429 6.33599 9.45655 6.25974 9.28882 6.19875C9.18399 6.16253 9.11156 6.13585 9.00863 6.10345C8.5283 5.94715 8.01939 5.88997 7.51619 5.88806C7.3637 5.89378 7.07589 5.89759 6.92531 5.91475C6.50788 5.9624 5.64253 6.20828 5.64253 6.20828V7.13844C5.64253 7.13844 6.92912 6.72673 7.48188 6.53231C7.66833 6.47183 7.86341 6.44221 8.05941 6.44463C8.18331 6.44844 8.31101 6.45797 8.42919 6.50372C8.47112 6.52087 8.51496 6.54565 8.53402 6.58949C8.55118 6.63905 8.51687 6.68479 8.47875 6.71338C8.38916 6.78581 8.2748 6.81441 8.16997 6.85443C7.38848 7.13081 5.64062 7.70644 5.64062 7.70644V8.60229C5.64062 8.60229 7.87453 7.84749 8.89617 7.48153C9.06581 7.41863 9.23736 7.36526 9.39937 7.2833C9.54995 7.20705 9.70053 7.11938 9.81489 6.99167C9.87615 6.92291 9.91006 6.83407 9.9102 6.74198Z" fill="black"/>
</g>
<defs>
<clipPath id="clip0_201_11585">
<rect width="9.75902" height="9.75902" fill="white" transform="translate(0.151367 0.148926)"/>
</clipPath>
</defs>
</svg>
