<svg width="10" height="10" viewBox="0 0 10 10" fill="none" xmlns="http://www.w3.org/2000/svg">
<g clip-path="url(#clip0_201_11659)">
<path d="M8.56809 7.86938C8.54026 7.85432 8.51377 7.84003 8.49185 7.82745C8.36853 7.75444 8.24406 7.62693 8.26598 7.4876C8.31211 7.18377 8.32107 7.04024 8.25664 6.93884C8.22196 6.88469 8.17067 6.84322 8.11045 6.82067V6.81952C8.13732 6.77073 8.15353 6.71164 8.16439 6.62663C8.19184 6.41696 8.06909 5.78796 7.90326 5.27905C7.74925 4.80863 7.34593 4.32602 7.05125 3.97225L6.98244 3.88953C6.52728 3.33811 6.51851 3.1616 6.47638 2.31379C6.47029 2.19047 6.46323 2.05075 6.45408 1.89446C6.39919 0.938568 5.90609 0.453857 4.99118 0.453857C4.51086 0.453857 4.1407 0.590141 3.89101 0.859085C3.69106 1.07428 3.5807 1.36877 3.5807 1.6886C3.5807 2.25127 3.61882 2.69881 3.62168 2.7234C3.64836 3.40386 3.64074 3.50908 3.46329 3.82034C3.42078 3.89525 3.30356 4.02753 3.17947 4.16743C3.01784 4.34984 2.83467 4.55646 2.73422 4.72438C2.66236 4.84465 2.62214 4.96512 2.57964 5.09282C2.51483 5.28743 2.44126 5.50796 2.23369 5.78987C1.9941 6.11523 1.93787 6.35425 2.02402 6.69429C1.92986 6.81723 1.93196 6.96819 1.93348 7.07989C1.93617 7.11867 1.93425 7.15764 1.92777 7.19597C1.88412 7.34064 1.69103 7.37514 1.50843 7.39001C1.47832 7.39229 1.44935 7.39401 1.42171 7.39553C1.28333 7.40297 1.16382 7.40964 1.0952 7.51561C1.02906 7.61778 1.07385 7.77865 1.13599 8.00128C1.14971 8.05045 1.16382 8.10135 1.17773 8.15491C1.21261 8.28833 1.17468 8.35466 1.12665 8.43777C1.08014 8.51801 1.02734 8.60931 1.02734 8.77228C1.02734 9.0519 1.40856 9.11537 1.8479 9.19047C1.98819 9.2141 2.13381 9.23869 2.27924 9.27129C2.50081 9.32187 2.71802 9.38994 2.92883 9.47485C3.1141 9.54595 3.26048 9.60218 3.4326 9.60218C3.741 9.60218 3.97106 9.41595 4.1935 9.23602L4.23448 9.20267C4.33988 9.11709 4.64428 9.12642 4.88902 9.13329C4.95497 9.13519 5.0173 9.1371 5.07295 9.1371H5.19151C5.44845 9.13557 5.8003 9.13367 5.99644 9.18475C6.06792 9.20381 6.11461 9.25566 6.17351 9.3218C6.2854 9.44683 6.42454 9.60294 6.80995 9.60294C7.17953 9.60294 7.37318 9.43692 7.59753 9.2446C7.734 9.12776 7.87505 9.00672 8.07538 8.90418C8.15009 8.86606 8.22062 8.83041 8.28657 8.79725C8.7181 8.58034 8.95579 8.46083 8.95579 8.26698C8.95579 8.07809 8.72248 7.95248 8.56809 7.86938ZM4.13555 1.83346C4.18765 1.83552 4.23798 1.85289 4.28026 1.8834C4.32254 1.91391 4.35488 1.95621 4.37324 2.00501C4.41041 2.11079 4.40774 2.20362 4.37724 2.25165C4.37724 2.25165 4.37305 2.23259 4.37038 2.2242C4.35131 2.15623 4.30753 2.09783 4.24763 2.06047C4.22267 2.04435 4.19466 2.03355 4.16535 2.02872C4.13603 2.0239 4.10603 2.02517 4.07723 2.03246C3.99603 2.05399 3.91693 2.12776 3.9074 2.3906C3.80905 2.19104 3.86337 2.04751 3.92493 1.95221C3.96896 1.88111 4.06732 1.83156 4.13555 1.83346ZM3.80199 8.98118C3.77131 9.28348 3.45109 9.27891 3.35369 9.27109C3.1667 9.25546 2.94084 9.1817 2.72221 9.11041C2.63606 9.08239 2.54704 9.05323 2.46051 9.02769C2.20891 8.95355 1.8864 8.89922 1.62718 8.85615C1.56581 8.84566 1.50767 8.83594 1.45468 8.8266C1.40169 8.81726 1.36681 8.80239 1.35557 8.78276C1.33651 8.75131 1.36281 8.68269 1.39235 8.6034C1.432 8.49743 1.48613 8.35142 1.48404 8.1734C1.48404 8.09887 1.45602 8.01519 1.4299 7.93399C1.39903 7.83869 1.36738 7.74015 1.39312 7.69345C1.41656 7.65094 1.52178 7.64599 1.61422 7.64599H1.6573C1.72496 7.64599 1.78348 7.64713 1.82408 7.63589C1.94816 7.60139 2.10732 7.50399 2.16355 7.37133C2.1807 7.32996 2.18966 7.23905 2.20167 7.10448C2.20872 7.02595 2.21577 6.94494 2.22492 6.90282C2.22717 6.89206 2.23201 6.88201 2.23902 6.87354C2.24603 6.86507 2.25499 6.85844 2.26514 6.85421C2.29659 6.83954 2.39437 6.81781 2.62024 6.93198C2.83333 7.03967 3.05634 7.4245 3.27211 7.79676C3.33996 7.91379 3.40401 8.02434 3.46843 8.12765C3.73604 8.55728 3.82734 8.72996 3.80199 8.98156V8.98118ZM6.25776 8.37963C6.23487 8.45124 6.20585 8.52075 6.17103 8.58739C6.16988 8.58999 6.16777 8.59205 6.16514 8.59314C6.16251 8.59422 6.15957 8.59425 6.15692 8.59322C6.15427 8.59219 6.15211 8.59018 6.15091 8.5876C6.1497 8.58502 6.14954 8.58208 6.15045 8.57939C6.18308 8.4653 6.19667 8.34661 6.19067 8.2281C6.1859 8.13794 6.18304 8.08343 6.13996 8.06589C6.09689 8.04836 6.05877 8.08171 5.95984 8.17149C5.93888 8.19055 5.91486 8.21228 5.88779 8.2363C5.68194 8.4168 5.37544 8.63047 4.82783 8.68174C4.50685 8.71205 4.30195 8.59349 4.23848 8.52659C4.23475 8.52262 4.23028 8.51943 4.22531 8.5172C4.22034 8.51498 4.21498 8.51376 4.20954 8.51361C4.2041 8.51347 4.19868 8.51441 4.19361 8.51638C4.18853 8.51834 4.18389 8.52129 4.17996 8.52506C4.17445 8.53072 4.17062 8.5378 4.1689 8.54551C4.16718 8.55322 4.16765 8.56125 4.17024 8.56871C4.21065 8.69909 4.19312 8.80239 4.1609 8.8773C4.1428 8.91924 4.12564 8.91638 4.12278 8.87082C4.11802 8.78238 4.10372 8.6825 4.0656 8.60035C4.00632 8.46807 3.93218 8.32702 3.89615 8.25955V8.2586C3.95791 8.2302 4.06503 8.16653 4.11287 8.05122C4.16071 7.9359 4.19826 7.70813 3.9257 7.44623C3.806 7.33092 3.50446 7.11915 3.23837 6.9316C3.03061 6.78578 2.8158 6.63502 2.78759 6.59785C2.70201 6.48558 2.66617 6.42058 2.65531 6.22331C2.65664 6.17947 2.65779 6.13582 2.65893 6.09198L2.66408 6.04452C2.66443 6.04186 2.66573 6.03942 2.66775 6.03765C2.66977 6.03589 2.67236 6.03491 2.67504 6.03491C2.67772 6.03491 2.68031 6.03589 2.68232 6.03765C2.68434 6.03942 2.68564 6.04186 2.686 6.04452C2.69382 6.10718 2.70656 6.16913 2.72412 6.22979C2.7447 6.30088 2.76986 6.37427 2.79312 6.40476C2.85392 6.4852 2.93721 6.54562 3.01555 6.56659C3.03137 6.57211 3.04829 6.57375 3.06488 6.57136C3.08147 6.56897 3.09724 6.56263 3.11086 6.55286C3.1667 6.50845 3.16137 6.408 3.1526 6.24141C3.14364 6.06987 3.13144 5.83466 3.18786 5.58287C3.29498 5.10636 3.39581 4.96321 3.52352 4.78233C3.53991 4.75907 3.55687 4.73525 3.57403 4.71009C3.60148 4.67044 3.63121 4.63194 3.66304 4.59134C3.80542 4.40817 3.96668 4.20079 3.92837 3.81081C3.91864 3.71188 3.91388 3.6425 3.91197 3.59371C3.91138 3.58926 3.91238 3.58474 3.91479 3.58096C3.91721 3.57717 3.92088 3.57436 3.92516 3.57302C3.92944 3.57167 3.93406 3.57188 3.93821 3.57361C3.94235 3.57534 3.94575 3.57847 3.94781 3.58246L3.95715 3.59714L3.98021 3.63526C4.07284 3.78774 4.2402 4.06546 4.45863 4.06546C4.47371 4.06543 4.48876 4.06409 4.50361 4.06146C4.94944 3.98655 5.49286 3.48487 5.498 3.47992C5.55747 3.42273 5.55214 3.36288 5.52926 3.32915C5.51593 3.31006 5.49627 3.29631 5.47378 3.29031C5.45128 3.28431 5.42739 3.28646 5.40632 3.29636C5.34361 3.32305 5.27023 3.3564 5.19246 3.39167C4.92905 3.51118 4.48722 3.71093 4.38715 3.66499C4.34153 3.63979 4.30074 3.60668 4.26669 3.56721C4.26463 3.56579 4.26286 3.56397 4.2615 3.56186C4.26014 3.55975 4.25921 3.55739 4.25875 3.55493C4.2583 3.55246 4.25834 3.54992 4.25887 3.54747C4.2594 3.54502 4.2604 3.54269 4.26183 3.54062C4.26326 3.53856 4.26508 3.5368 4.26718 3.53543C4.26929 3.53407 4.27165 3.53314 4.27412 3.53269C4.27659 3.53224 4.27912 3.53228 4.28157 3.5328C4.28403 3.53333 4.28635 3.53434 4.28842 3.53576C4.39497 3.57941 4.47045 3.5634 4.55908 3.53424L4.57814 3.52776C4.75674 3.46886 4.8488 3.43684 5.16444 3.29751C5.2642 3.25072 5.36792 3.2129 5.47437 3.18448C5.55061 3.16542 5.59674 3.15341 5.62133 3.10175C5.63284 3.08054 5.63806 3.05649 5.63637 3.03241C5.63468 3.00834 5.62616 2.98525 5.6118 2.96585C5.58263 2.93021 5.53422 2.91687 5.47837 2.92964C5.417 2.94393 5.38879 2.98682 5.35619 3.01522C5.31045 3.05429 5.26089 3.09451 5.02854 3.18009C4.51391 3.3707 4.36943 3.38233 4.16681 3.24547C3.97926 3.11796 3.87805 2.9933 3.87805 2.9405C3.87805 2.8999 3.98193 2.83186 4.04406 2.79107C4.06941 2.77448 4.09343 2.75885 4.11306 2.74418C4.19578 2.6828 4.36085 2.52708 4.36809 2.5206C4.47102 2.41748 4.70947 2.47904 4.84461 2.56977C4.84925 2.57324 4.85455 2.57573 4.86019 2.57707C4.86583 2.57841 4.87168 2.57859 4.87739 2.57759C4.88277 2.57655 4.88788 2.57444 4.89243 2.57138C4.89697 2.56833 4.90085 2.56439 4.90384 2.5598C4.90683 2.55521 4.90886 2.55006 4.90982 2.54467C4.91078 2.53928 4.91064 2.53375 4.90941 2.52841C4.82936 2.19561 4.90694 2.0073 4.98566 1.90799C5.02566 1.85795 5.07633 1.81747 5.13397 1.78951C5.19161 1.76154 5.25477 1.7468 5.31883 1.74636C5.563 1.74636 5.73359 1.93696 5.73359 2.21182C5.73359 2.42148 5.67984 2.53184 5.62914 2.59875C5.6263 2.60243 5.6227 2.60548 5.6186 2.60768C5.61449 2.60988 5.60997 2.61118 5.60532 2.6115C5.60068 2.61183 5.59602 2.61116 5.59164 2.60956C5.58727 2.60795 5.58329 2.60543 5.57997 2.60218C5.57458 2.59673 5.5712 2.58962 5.57037 2.58201C5.56954 2.57439 5.57131 2.56672 5.57539 2.56024C5.61758 2.48789 5.63963 2.40555 5.63924 2.32179C5.63948 2.27973 5.63131 2.23804 5.61522 2.19917C5.59913 2.16031 5.57545 2.12504 5.54555 2.09545C5.51566 2.06585 5.48015 2.04253 5.44112 2.02683C5.40209 2.01114 5.36032 2.00339 5.31826 2.00406C5.24316 2.00406 5.06133 2.03265 4.99862 2.29835C4.9833 2.36766 4.9811 2.43923 4.99214 2.50935L4.99366 2.52288C5.01082 2.66355 5.28529 2.76133 5.51268 2.81851C5.72921 2.87284 5.76047 2.93707 5.68118 3.19267C5.60188 3.44828 5.74046 3.69263 5.78982 3.75629C5.8501 3.83028 5.90314 3.90987 5.94822 3.99398C6.00012 4.09446 6.04237 4.19964 6.0744 4.3081C6.11576 4.43752 6.15159 4.54922 6.27701 4.71256C6.48801 4.98704 6.61362 5.63967 6.56292 6.19929C6.55892 6.24523 6.55282 6.28106 6.54824 6.30736C6.54005 6.35559 6.53452 6.38742 6.56082 6.40991C6.58713 6.4324 6.62105 6.42325 6.6992 6.3979L6.76458 6.37713C6.84339 6.35464 6.92346 6.33682 7.00436 6.32376C7.01081 6.32275 7.01692 6.32022 7.02219 6.31637C7.02747 6.31253 7.03174 6.30748 7.03467 6.30165C7.10005 6.16994 7.10805 6.01154 7.11091 5.87335C7.11091 5.85671 7.11129 5.83898 7.11205 5.82018C7.11568 5.67207 7.12063 5.45936 7.05583 5.21024C7.05421 5.20536 7.05459 5.20004 7.0569 5.19544C7.05921 5.19085 7.06324 5.18736 7.06812 5.18574C7.073 5.18413 7.07832 5.18451 7.08291 5.18682C7.08751 5.18912 7.091 5.19316 7.09261 5.19804C7.15787 5.35351 7.20062 5.51749 7.21956 5.68504C7.26816 6.11542 7.18334 6.29669 7.18258 6.29821C7.18061 6.30217 7.17952 6.30651 7.17938 6.31093C7.17925 6.31535 7.18007 6.31974 7.18179 6.32382C7.18351 6.32789 7.18608 6.33154 7.18935 6.33452C7.19261 6.33751 7.19648 6.33975 7.20069 6.3411C7.25153 6.35935 7.29705 6.38994 7.33316 6.43011C7.36099 6.46175 7.35088 6.47586 7.31143 6.46099C7.23358 6.43193 7.15112 6.41714 7.06802 6.41734C6.86979 6.41734 6.72322 6.51169 6.65803 6.59251C6.59723 6.66761 6.58751 6.7387 6.58503 6.80732L6.58389 6.80828C6.44131 6.79398 6.33724 6.83134 6.2509 6.92664L6.24937 6.92836C6.13005 7.07608 6.17313 7.39782 6.22478 7.66181C6.24918 7.78475 6.33133 8.14824 6.25776 8.38001V8.37963ZM8.08948 8.57157C7.79004 8.69947 7.60477 8.84814 7.44142 8.97928C7.33373 9.06562 7.23176 9.1472 7.11205 9.21067C6.91916 9.31246 6.63726 9.33514 6.47791 9.06391C6.43274 8.98766 6.46438 8.87597 6.50802 8.72177C6.56616 8.51687 6.64583 8.23649 6.57874 7.87071C6.56082 7.77312 6.545 7.68945 6.53128 7.61702C6.47791 7.33473 6.45694 7.22856 6.47791 7.14412C6.48992 7.09742 6.54329 7.08694 6.58979 7.08694C6.60656 7.08709 6.62331 7.0883 6.63992 7.09056C6.66529 7.17702 6.71104 7.25611 6.77335 7.3212C6.88199 7.43289 7.03314 7.4895 7.22242 7.48988C7.26244 7.49312 7.71685 7.51943 7.91889 7.06293C7.94672 7.06636 7.98846 7.07627 8.00085 7.10677C8.02525 7.16757 7.9957 7.2766 7.97188 7.36408C7.95472 7.42717 7.93986 7.4815 7.94081 7.52362C7.94672 7.82859 8.15048 7.95782 8.43314 8.13661C8.46726 8.15815 8.50291 8.18064 8.53893 8.20408C8.57495 8.22753 8.59363 8.24964 8.59363 8.2687C8.58372 8.36 8.21242 8.51954 8.08948 8.57195V8.57157Z" fill="black"/>
</g>
<defs>
<clipPath id="clip0_201_11659">
<rect width="9.75902" height="9.75902" fill="white" transform="translate(0.111816 0.148926)"/>
</clipPath>
</defs>
</svg>
