<svg width="11" height="10" viewBox="0 0 11 10" fill="none" xmlns="http://www.w3.org/2000/svg">
<g clip-path="url(#clip0_201_11562)">
<path d="M7.86161 5.02844H7.55664V5.94335H7.86161V5.02844Z" fill="black"/>
<path d="M2.82959 5.94335H5.29984L4.38493 5.02844H2.82959V5.94335Z" fill="black"/>
<path d="M7.64233 1.29451C7.63573 1.29113 7.62937 1.28731 7.62327 1.28308C7.41317 1.17048 7.19381 1.0761 6.96759 1.00098L6.86466 0.966672C6.4478 0.831364 6.01253 0.761284 5.57426 0.758911C3.21646 0.758911 1.30469 2.67069 1.30469 5.02848C1.30449 5.79033 1.50841 6.53832 1.89524 7.19465C2.28207 7.85098 2.83768 8.39169 3.50428 8.76054C3.5119 8.76436 3.51762 8.77007 3.52525 8.77389C3.73534 8.88649 3.95471 8.98086 4.18093 9.05598L4.28386 9.09029C4.70069 9.22575 5.13598 9.29583 5.57426 9.29805C7.93205 9.29805 9.84383 7.38628 9.84383 5.02848C9.84408 4.26614 9.63999 3.51767 9.25281 2.86097C8.86563 2.20427 8.30951 1.66335 7.64233 1.29451ZM5.57426 8.27641C5.40046 8.27579 5.22703 8.26049 5.05581 8.23066C4.87106 8.20005 4.6893 8.1535 4.51258 8.09152C4.47637 8.08008 4.44015 8.06865 4.40584 8.0553C4.28174 8.00848 4.16077 7.95373 4.04369 7.89138C3.52474 7.61427 3.09083 7.20136 2.78834 6.69677C2.48586 6.19218 2.32617 5.61488 2.32634 5.02658C2.32634 4.31752 2.56269 3.66565 2.94962 3.13195L7.47079 7.65313C6.93518 8.04006 6.28331 8.27641 5.57426 8.27641ZM8.20081 6.9231L3.67964 2.40193C4.21333 2.01691 4.8633 1.78056 5.57426 1.78056C5.74805 1.78126 5.92148 1.79656 6.09271 1.8263C6.27746 1.85691 6.45922 1.90347 6.63593 1.96545C6.67024 1.97688 6.70646 1.98832 6.74267 2.00166C6.86007 2.0461 6.97464 2.09766 7.08576 2.15605C7.61017 2.43098 8.04937 2.84414 8.35578 3.3508C8.66219 3.85745 8.82414 4.43828 8.82409 5.03039C8.82218 5.73944 8.58583 6.38941 8.20081 6.9231Z" fill="black"/>
<path d="M7.40392 5.02844H6.75586L7.40392 5.6765V5.02844Z" fill="black"/>
<path d="M8.31913 5.02844H8.01416V5.94335H8.31913V5.02844Z" fill="black"/>
<path d="M7.5583 4.20316C7.39057 4.12501 7.13897 4.09451 6.68914 4.09451H6.62052C6.37845 4.09642 6.31746 4.09261 6.23931 3.97824C6.18594 3.89819 6.22025 3.69615 6.30983 3.56082C6.32511 3.53788 6.33388 3.51124 6.33522 3.48372C6.33657 3.4562 6.33043 3.42883 6.31746 3.40452C6.3043 3.38041 6.28506 3.36015 6.26166 3.34578C6.23825 3.3314 6.21149 3.32339 6.18403 3.32256C6.06431 3.3184 5.94624 3.29323 5.83522 3.24822C5.63318 3.16245 5.53788 3.01759 5.53788 2.80792C5.53788 2.31616 5.9534 2.27994 5.97246 2.27994V1.97498C5.74373 1.97498 5.23291 2.18464 5.23291 2.80792C5.23291 3.14148 5.40446 3.3988 5.72277 3.53223C5.79668 3.56224 5.87326 3.58521 5.95149 3.60084C5.88859 3.78764 5.88288 3.99921 5.9839 4.14788C6.15544 4.40139 6.37083 4.39948 6.61861 4.39758H6.68533C7.18662 4.39758 7.34482 4.44142 7.42678 4.47954C7.53543 4.52909 7.5564 4.62249 7.55258 4.77879V4.79785H7.85755V4.77879C7.85755 4.64346 7.86327 4.34421 7.5583 4.20316Z" fill="black"/>
<path d="M8.31923 4.79975C8.31923 4.3099 8.26205 4.05258 8.14578 3.85435C7.98186 3.57988 7.71882 3.42739 7.40432 3.42739H7.07267C7.12795 3.26919 7.1756 3.04999 7.13938 2.83842C7.07839 2.48008 6.77533 2.2666 6.31787 2.2666V2.57157C6.71814 2.57157 6.81535 2.74502 6.84013 2.88988C6.88778 3.16626 6.71052 3.50173 6.70861 3.50554C6.69587 3.52866 6.68935 3.55469 6.68968 3.58108C6.69002 3.60748 6.6972 3.63333 6.71052 3.65612C6.72418 3.67879 6.74347 3.69755 6.76651 3.71057C6.78955 3.72359 6.81557 3.73044 6.84204 3.73045H7.40432C7.61208 3.73045 7.7741 3.82385 7.88275 4.00874C7.94183 4.10976 8.01426 4.26606 8.01426 4.79785H8.31923V4.79975Z" fill="black"/>
</g>
<defs>
<clipPath id="clip0_201_11562">
<rect width="9.75902" height="9.75902" fill="white" transform="translate(0.694824 0.148926)"/>
</clipPath>
</defs>
</svg>
