<svg width="11" height="10" viewBox="0 0 11 10" fill="none" xmlns="http://www.w3.org/2000/svg">
<g clip-path="url(#clip0_201_11665)">
<path d="M10.3849 2.23603C10.0417 2.38516 9.67861 2.4834 9.30704 2.52766C9.69753 2.29901 9.99119 1.93575 10.1329 1.50601C9.76375 1.72189 9.36052 1.87336 8.94051 1.95394C8.76365 1.76858 8.55094 1.62112 8.31531 1.52053C8.07968 1.41993 7.82606 1.3683 7.56986 1.36878C6.53259 1.36878 5.69316 2.19601 5.69316 3.21575C5.69242 3.35759 5.70868 3.49901 5.74157 3.63699C4.99777 3.60212 4.26943 3.41237 3.60316 3.0799C2.93689 2.74742 2.34736 2.27952 1.87227 1.70615C1.7056 1.98713 1.61746 2.30771 1.61705 2.6344C1.61705 3.27484 1.95118 3.84094 2.45572 4.17259C2.1568 4.1655 1.864 4.08638 1.60218 3.94196V3.96483C1.60218 4.86068 2.25024 5.60595 3.10797 5.77559C2.94668 5.81858 2.78047 5.84037 2.61354 5.84039C2.49509 5.8406 2.37691 5.82911 2.26073 5.80608C2.49918 6.53991 3.19317 7.07361 4.01525 7.08886C3.34725 7.60367 2.52712 7.88192 1.68376 7.87987C1.53407 7.87965 1.38451 7.87074 1.23584 7.85319C2.09379 8.40103 3.09109 8.69081 4.10903 8.68804C7.56586 8.68804 9.45438 5.87279 9.45438 3.43113C9.45438 3.35108 9.45229 3.27102 9.44847 3.19288C9.81503 2.93214 10.1321 2.60812 10.3849 2.23603Z" fill="black"/>
</g>
<defs>
<clipPath id="clip0_201_11665">
<rect width="9.75902" height="9.75902" fill="white" transform="translate(0.930664 0.148926)"/>
</clipPath>
</defs>
</svg>
