<svg width="10" height="10" viewBox="0 0 10 10" fill="none" xmlns="http://www.w3.org/2000/svg">
<g clip-path="url(#clip0_201_11686)">
<path d="M7.99556 5.83916C7.91632 5.83953 7.83874 5.81638 7.77267 5.77263C7.70659 5.72887 7.65499 5.66649 7.6244 5.59339C7.59382 5.52028 7.58562 5.43974 7.60085 5.36197C7.61607 5.2842 7.65405 5.2127 7.70995 5.15653C7.76585 5.10036 7.83717 5.06205 7.91486 5.04645C7.99256 5.03085 8.07314 5.03866 8.14639 5.0689C8.21964 5.09914 8.28227 5.15044 8.32634 5.21631C8.3704 5.28217 8.39393 5.35964 8.39393 5.43888C8.39431 5.49139 8.38428 5.54346 8.36441 5.59207C8.34455 5.64068 8.31525 5.68487 8.27821 5.72209C8.24117 5.7593 8.19712 5.78881 8.1486 5.80891C8.10009 5.829 8.04807 5.83928 7.99556 5.83916ZM6.04814 5.83916C5.9689 5.83953 5.89132 5.81638 5.82525 5.77263C5.75917 5.72887 5.70757 5.66649 5.67698 5.59339C5.6464 5.52028 5.6382 5.43974 5.65343 5.36197C5.66865 5.2842 5.70662 5.2127 5.76253 5.15653C5.81843 5.10036 5.88975 5.06205 5.96744 5.04645C6.04514 5.03085 6.12572 5.03866 6.19897 5.0689C6.27222 5.09914 6.33485 5.15044 6.37892 5.21631C6.42298 5.28217 6.44651 5.35964 6.44651 5.43888C6.44691 5.4914 6.4369 5.54347 6.41705 5.5921C6.39719 5.64072 6.36789 5.68492 6.33085 5.72214C6.2938 5.75937 6.24974 5.78888 6.20121 5.80896C6.15269 5.82905 6.10066 5.83931 6.04814 5.83916ZM8.94707 8.1047C9.56673 7.6604 9.96509 6.99423 9.96509 6.23905C9.96509 4.88422 8.65944 3.77356 7.02195 3.77356C5.38445 3.77356 4.07861 4.88422 4.07861 6.23905C4.07861 7.59387 5.38426 8.70434 7.02195 8.70434C7.35379 8.70434 7.68583 8.65993 7.97345 8.57092C8.02091 8.55453 8.03978 8.54862 8.06189 8.54862C8.11652 8.54991 8.1699 8.56527 8.21686 8.59322L8.85958 8.97081C8.88037 8.98171 8.90276 8.98924 8.92591 8.99311C8.94893 8.99155 8.97061 8.98168 8.98691 8.96534C9.00321 8.94901 9.01303 8.92732 9.01454 8.90429C9.01307 8.8792 9.00813 8.85444 8.99987 8.83072C8.99205 8.80289 8.90456 8.52575 8.85958 8.34905C8.85545 8.32725 8.85335 8.30511 8.85329 8.28291C8.85355 8.24771 8.86236 8.2131 8.87896 8.18205C8.89556 8.15101 8.91946 8.12446 8.94859 8.1047" fill="black"/>
<path d="M4.89744 3.55156C4.77374 3.55156 4.6551 3.50242 4.56763 3.41495C4.48016 3.32748 4.43102 3.20885 4.43102 3.08515C4.43102 2.96145 4.48016 2.84282 4.56763 2.75535C4.6551 2.66788 4.77374 2.61874 4.89744 2.61874C5.14084 2.61874 5.36213 2.84079 5.36213 3.08515C5.38424 3.32951 5.16295 3.55156 4.89744 3.55156ZM2.55184 3.55156C2.45955 3.5519 2.36924 3.52485 2.29233 3.47385C2.21542 3.42284 2.15537 3.35016 2.11978 3.26501C2.0842 3.17985 2.07467 3.08606 2.09241 2.99549C2.11015 2.90493 2.15436 2.82166 2.21945 2.75623C2.28453 2.6908 2.36756 2.64614 2.45803 2.62792C2.54851 2.6097 2.64235 2.61873 2.72769 2.65386C2.81303 2.68899 2.88602 2.74866 2.93744 2.82529C2.98886 2.90193 3.01639 2.9921 3.01654 3.08439C3.01604 3.20764 2.96698 3.32572 2.87998 3.41304C2.79299 3.50035 2.67509 3.54985 2.55184 3.5508V3.55156ZM3.72464 1.06396C1.77722 1.06396 0.206055 2.37438 0.206055 4.01836C0.206055 4.90677 0.670752 5.70636 1.42307 6.23949C1.48959 6.28352 1.50217 6.38187 1.50217 6.41999C1.50377 6.44907 1.49949 6.47818 1.48959 6.50557C1.42307 6.72763 1.33825 7.08711 1.33463 7.10617C1.33101 7.12523 1.31252 7.17288 1.31252 7.19499C1.31158 7.20978 1.31379 7.2246 1.319 7.23847C1.32422 7.25234 1.33232 7.26495 1.34277 7.27546C1.35322 7.28596 1.36578 7.29413 1.37963 7.29941C1.39347 7.3047 1.40828 7.30698 1.42307 7.30612C1.44681 7.30462 1.46975 7.29693 1.48959 7.28382L2.2646 6.83932C2.33112 6.79491 2.37534 6.79491 2.44167 6.79491C2.47962 6.79547 2.51716 6.80296 2.55241 6.81702C2.90637 6.92814 3.30473 6.97256 3.7031 6.97256H3.90228C3.82973 6.73499 3.79242 6.48807 3.79154 6.23968C3.79154 4.75143 5.23004 3.55213 7.00039 3.55213H7.19957C6.95541 2.15232 5.49499 1.06396 3.72464 1.06396Z" fill="black"/>
</g>
<defs>
<clipPath id="clip0_201_11686">
<rect width="9.75902" height="9.75902" fill="white" transform="translate(0.206055 0.148926)"/>
</clipPath>
</defs>
</svg>
