<svg width="11" height="10" viewBox="0 0 11 10" fill="none" xmlns="http://www.w3.org/2000/svg">
<g clip-path="url(#clip0_201_11598)">
<path d="M6.9645 5.02844C6.82879 5.02844 6.69612 5.06869 6.58328 5.14409C6.47044 5.21948 6.38249 5.32665 6.33055 5.45203C6.27862 5.57742 6.26503 5.71538 6.29151 5.84849C6.31798 5.9816 6.38333 6.10386 6.4793 6.19983C6.57526 6.29579 6.69753 6.36114 6.83063 6.38762C6.96374 6.4141 7.10171 6.40051 7.22709 6.34857C7.35248 6.29664 7.45964 6.20869 7.53504 6.09585C7.61044 5.983 7.65068 5.85034 7.65068 5.71462C7.65068 5.53264 7.57839 5.3581 7.4497 5.22942C7.32102 5.10074 7.14649 5.02844 6.9645 5.02844Z" fill="black"/>
<path d="M4.6352 6.34857C4.98532 6.20354 5.15159 5.80215 5.00656 5.45203C4.86154 5.10191 4.46014 4.93565 4.11002 5.08067C3.7599 5.2257 3.59364 5.62709 3.73866 5.97721C3.88369 6.32733 4.28508 6.49359 4.6352 6.34857Z" fill="black"/>
<path d="M10.2433 4.98594C10.2433 4.39144 9.76415 3.90787 9.17594 3.90787C8.92801 3.90785 8.68789 3.99457 8.49719 4.15299C7.83007 3.69992 6.95748 3.42259 6.02598 3.36636L6.44532 1.86058L7.71113 2.11218C7.74735 2.6169 8.16858 3.01736 8.67655 3.01736C9.21025 3.01736 9.64445 2.57897 9.64445 2.04127C9.64445 1.50357 9.195 1.06384 8.6613 1.06384C8.28905 1.06384 7.96921 1.27713 7.80643 1.61222L6.09098 1.27122L5.4982 3.35874L5.40995 3.36122C4.44491 3.40334 3.53553 3.68391 2.84115 4.1528C2.6505 3.99379 2.4099 3.90707 2.16164 3.90787C1.57286 3.90787 1.09425 4.39144 1.09425 4.98594C1.09341 5.17516 1.1425 5.36126 1.23658 5.52544C1.33065 5.68963 1.46637 5.82609 1.63004 5.92105C1.61864 6.00533 1.61298 6.09028 1.61308 6.17532C1.61517 6.93279 2.04175 7.64299 2.81389 8.17668C3.57899 8.70275 4.59206 8.99305 5.66879 8.99305C6.74552 8.99305 7.76088 8.70275 8.52464 8.17554C9.29716 7.64184 9.72259 6.93145 9.72259 6.17303C9.72242 6.08828 9.71707 6.00362 9.70658 5.91953C9.87035 5.82498 10.0062 5.68885 10.1005 5.52491C10.1947 5.36097 10.244 5.17504 10.2433 4.98594ZM8.68036 1.57848C8.77084 1.57848 8.85928 1.60531 8.93451 1.65557C9.00974 1.70584 9.06837 1.77728 9.10299 1.86087C9.13762 1.94446 9.14668 2.03644 9.12903 2.12518C9.11137 2.21391 9.06781 2.29543 9.00383 2.3594C8.93985 2.42338 8.85834 2.46695 8.76961 2.4846C8.68087 2.50225 8.58889 2.49319 8.5053 2.45857C8.42171 2.42394 8.35027 2.36531 8.3 2.29008C8.24974 2.21485 8.22291 2.12641 8.22291 2.03593C8.22291 1.91461 8.2711 1.79825 8.35689 1.71246C8.44268 1.62667 8.55904 1.57848 8.68036 1.57848ZM1.60355 4.98594C1.60299 4.83654 1.66171 4.69301 1.76684 4.58685C1.87197 4.48069 2.01491 4.42056 2.16431 4.41965C2.25489 4.41984 2.34404 4.44229 2.42392 4.48503C2.12848 4.75969 1.91061 5.06466 1.77452 5.39384C1.72056 5.34046 1.67768 5.27695 1.64834 5.20695C1.619 5.13695 1.60378 5.06184 1.60355 4.98594ZM8.23854 7.75411C7.55731 8.22281 6.64507 8.48108 5.66974 8.48108C4.69441 8.48108 3.78179 8.22319 3.10114 7.75411C2.47214 7.31972 2.12447 6.758 2.12447 6.17208C2.12482 5.99453 2.15677 5.81846 2.21882 5.65211C2.32709 5.35209 2.52684 5.07114 2.81256 4.81744C2.90183 4.73859 2.99578 4.6652 3.09389 4.59768L3.09961 4.59367L3.10419 4.59043C3.78503 4.12307 4.69613 3.86613 5.66993 3.86613C6.64374 3.86613 7.55502 4.12364 8.23587 4.59043L8.24025 4.59367L8.24673 4.59844C8.34472 4.66571 8.4386 4.73878 8.52788 4.81725C8.81379 5.07114 9.01354 5.3519 9.12181 5.6523C9.16109 5.76132 9.18863 5.87423 9.20396 5.9891C9.2116 6.05011 9.21542 6.11154 9.21539 6.17303C9.2152 6.75857 8.8683 7.32029 8.23854 7.75411ZM9.56515 5.39212C9.42925 5.06275 9.21139 4.75759 8.91576 4.48255C8.99595 4.44025 9.08528 4.41826 9.17594 4.41851C9.32532 4.41941 9.46824 4.47955 9.57334 4.58572C9.67843 4.69188 9.73712 4.83541 9.73651 4.9848C9.73637 5.06072 9.72116 5.13585 9.69174 5.20584C9.66232 5.27583 9.6193 5.33928 9.56515 5.3925V5.39212Z" fill="black"/>
<path d="M6.95021 7.05299C6.94544 7.05775 6.46302 7.54989 5.67029 7.55371C4.86975 7.54989 4.40695 7.07281 4.38732 7.05299C4.37254 7.03833 4.35257 7.03011 4.33176 7.03011C4.31095 7.03011 4.29098 7.03833 4.2762 7.05299L4.01507 7.30973C4.00766 7.31708 4.00179 7.32583 3.99777 7.33546C3.99376 7.3451 3.9917 7.35543 3.9917 7.36587C3.9917 7.3763 3.99376 7.38663 3.99777 7.39627C4.00179 7.4059 4.00766 7.41465 4.01507 7.422C4.07987 7.4868 4.67647 8.07444 5.66915 8.07864C6.65915 8.07444 7.25842 7.4868 7.32322 7.422C7.33064 7.41463 7.33652 7.40587 7.34053 7.39622C7.34454 7.38657 7.34661 7.37622 7.34661 7.36577C7.34661 7.35532 7.34454 7.34497 7.34053 7.33532C7.33652 7.32567 7.33064 7.31691 7.32322 7.30954L7.0619 7.05279C7.04716 7.03821 7.02727 7.03003 7.00653 7.03003C6.9858 7.03003 6.9659 7.03821 6.95116 7.05279L6.95021 7.05299Z" fill="black"/>
</g>
<defs>
<clipPath id="clip0_201_11598">
<rect width="9.75902" height="9.75902" fill="white" transform="translate(0.789062 0.148926)"/>
</clipPath>
</defs>
</svg>
