<svg width="11" height="10" viewBox="0 0 11 10" fill="none" xmlns="http://www.w3.org/2000/svg">
<g clip-path="url(#clip0_201_11544)">
<path d="M1.43848 0.758911V9.29805H9.97762V0.758911H1.43848ZM6.01302 7.39199C6.01302 8.22323 5.52202 8.62846 4.81125 8.62846C4.16929 8.62846 3.79665 8.29604 3.60757 7.89481L4.26097 7.49931C4.38696 7.72289 4.48264 7.91197 4.75769 7.91197C4.98641 7.91197 5.17435 7.80885 5.17435 7.40762V4.72351H6.01302V7.39199ZM7.90669 8.60939C7.16161 8.60939 6.68014 8.27317 6.44512 7.80885L7.09947 7.43012C7.27102 7.71107 7.49498 7.89824 7.89048 7.89824C8.2229 7.89824 8.41599 7.7511 8.41599 7.5218C8.41599 7.24675 8.21718 7.14935 7.85027 6.9881L7.64975 6.90195C7.07069 6.65568 6.68681 6.34614 6.68681 5.69255C6.68681 5.09081 7.14522 4.65127 7.8617 4.65127C8.37195 4.65127 8.73849 4.80986 9.00248 5.27417L8.37653 5.67654C8.23891 5.43009 8.09062 5.33345 7.86075 5.33345C7.62573 5.33345 7.47668 5.48251 7.47668 5.67654C7.47668 5.91728 7.62573 6.01468 7.96959 6.16373L8.1701 6.24969C8.85228 6.54208 9.23635 6.84057 9.23635 7.51074C9.23654 8.23314 8.66911 8.60939 7.90669 8.60939Z" fill="black"/>
</g>
<defs>
<clipPath id="clip0_201_11544">
<rect width="9.75902" height="9.75902" fill="white" transform="translate(0.828613 0.148926)"/>
</clipPath>
</defs>
</svg>
