<svg width="11" height="11" viewBox="0 0 11 11" fill="none" xmlns="http://www.w3.org/2000/svg">
<path d="M1.84748 7.95825C2.60859 8.85187 3.62588 9.49009 4.76165 9.78654C5.7833 9.99598 6.84487 9.88102 7.798 9.45774C8.27334 9.23909 8.70477 8.9355 9.07106 8.56189C9.08676 8.53507 9.09155 8.50325 9.08446 8.47299C9.07737 8.44273 9.05892 8.41636 9.03294 8.39931C8.98378 8.38118 8.92983 8.38084 8.88045 8.39835C8.18281 8.76081 7.43354 9.01372 6.65894 9.1482C5.84665 9.23778 5.02487 9.18077 4.23272 8.97989C3.42251 8.71151 2.65725 8.32284 1.9626 7.82692C1.9449 7.82117 1.92589 7.82074 1.90794 7.82567C1.88999 7.83061 1.87387 7.84069 1.86159 7.85468C1.8493 7.86867 1.84138 7.88595 1.83881 7.90439C1.83623 7.92283 1.83911 7.94162 1.8471 7.95844L1.84748 7.95825Z" fill="black"/>
<path d="M8.30244 8.14327C8.60964 8.08362 8.92392 8.0693 9.23527 8.10076L9.24804 8.10324C9.29709 8.11512 9.33943 8.14598 9.36577 8.18903C9.3921 8.23209 9.40028 8.28384 9.38852 8.33292C9.32753 8.63608 9.23072 8.93092 9.10013 9.21123C9.09636 9.22347 9.09757 9.23669 9.10349 9.24804C9.10941 9.25939 9.11958 9.26794 9.13177 9.27184C9.13891 9.27407 9.14648 9.2746 9.15386 9.27337C9.16124 9.27215 9.16824 9.26921 9.17428 9.26479C9.3581 9.11701 9.5067 8.93013 9.60927 8.71774C9.71184 8.50534 9.76581 8.27277 9.76725 8.03691C9.77185 7.97822 9.75446 7.91992 9.71846 7.87334C9.68245 7.82677 9.63041 7.79525 9.57245 7.78493C9.116 7.70629 8.64673 7.80413 8.25975 8.05864C8.24937 8.06619 8.2424 8.07755 8.24036 8.09023C8.23833 8.10291 8.24139 8.11588 8.24888 8.1263C8.2549 8.13439 8.26331 8.14039 8.27292 8.14343C8.28254 8.14648 8.29287 8.14642 8.30244 8.14327Z" fill="black"/>
<path d="M6.72226 6.93259C6.55804 7.11438 6.37303 7.27623 6.17102 7.41482C5.78561 7.64256 5.3475 7.76593 4.89987 7.77278C4.50407 7.76414 4.1209 7.63184 3.80408 7.39443C3.54524 7.15779 3.35885 6.85259 3.26654 6.51425C3.17423 6.17591 3.17979 5.81833 3.28258 5.48303C3.38124 5.186 3.54382 4.9142 3.75886 4.68677C3.9739 4.45935 4.23619 4.28183 4.52724 4.16671C5.17468 3.97217 5.84685 3.87234 6.52288 3.87032V3.16012C6.50088 3.00313 6.42774 2.85778 6.31479 2.74655C6.20184 2.63533 6.05538 2.56443 5.89808 2.54484C5.69665 2.51741 5.49154 2.54426 5.30396 2.62261C5.1721 2.68465 5.05662 2.77676 4.96681 2.89153C4.877 3.0063 4.81536 3.14053 4.78684 3.28344C4.76583 3.32763 4.73121 3.36392 4.68805 3.38697C4.64489 3.41003 4.59547 3.41863 4.54706 3.41153L3.57688 3.32576C3.53346 3.31402 3.49477 3.28908 3.46615 3.25438C3.43754 3.21969 3.42041 3.17695 3.41715 3.1321C3.49481 2.65748 3.74292 2.22747 4.11496 1.92271C4.60753 1.54143 5.21523 1.33922 5.83804 1.34936C6.41514 1.35464 6.97637 1.53892 7.44427 1.87677C7.63772 2.04022 7.79108 2.24588 7.89253 2.47793C7.99398 2.70997 8.04081 2.96221 8.02943 3.2152V5.6723C8.04145 5.879 8.09322 6.08144 8.18192 6.26852L8.48441 6.7113C8.50041 6.74471 8.50871 6.78128 8.50871 6.81832C8.50871 6.85537 8.50041 6.89194 8.48441 6.92535L7.58875 7.68224C7.55138 7.70254 7.50926 7.71247 7.46676 7.71099C7.42426 7.70952 7.38293 7.6967 7.34706 7.67386C7.11362 7.44913 6.90423 7.2007 6.72226 6.93259ZM6.52021 4.70574C6.2396 4.70011 5.95902 4.71854 5.68155 4.76083C5.51392 4.79848 5.35633 4.87167 5.21941 4.97545C5.08249 5.07922 4.96943 5.21117 4.88787 5.36238C4.82058 5.52752 4.79093 5.70558 4.80105 5.88361C4.81117 6.06165 4.86082 6.2352 4.94638 6.39165C5.05087 6.52219 5.19482 6.61537 5.35669 6.65726C5.51856 6.69914 5.68964 6.68748 5.84433 6.624C6.02697 6.50688 6.182 6.3515 6.2987 6.16859C6.41539 5.98567 6.49098 5.7796 6.52021 5.56461V4.70574Z" fill="black"/>
</svg>
