<svg width="11" height="10" viewBox="0 0 11 10" fill="none" xmlns="http://www.w3.org/2000/svg">
<g clip-path="url(#clip0_201_11527)">
<path d="M9.39075 4.37051L9.34767 4.18772H5.37468V5.86924H7.74849C7.50204 7.03956 6.3584 7.6556 5.42424 7.6556C4.74454 7.6556 4.02805 7.36969 3.55383 6.91014C3.30362 6.66381 3.10446 6.37054 2.96775 6.04714C2.83103 5.72373 2.75945 5.37654 2.75709 5.02543C2.75709 4.31714 3.07541 3.60866 3.53858 3.14263C4.00175 2.6766 4.70127 2.41585 5.39679 2.41585C6.19334 2.41585 6.7642 2.8388 6.97768 3.0317L8.17259 1.84308C7.82206 1.53506 6.85912 0.758911 5.35829 0.758911C4.20036 0.758911 3.09008 1.20245 2.27848 2.01138C1.47756 2.80792 1.06299 3.95976 1.06299 5.02848C1.06299 6.09721 1.45526 7.19148 2.2314 7.99431C3.06073 8.85051 4.23524 9.29805 5.44464 9.29805C6.545 9.29805 7.588 8.8669 8.33136 8.08466C9.06214 7.31461 9.44012 6.24912 9.44012 5.13217C9.44012 4.66195 9.39285 4.38271 9.39075 4.37051Z" fill="black"/>
</g>
<defs>
<clipPath id="clip0_201_11527">
<rect width="9.75902" height="9.75902" fill="white" transform="translate(0.37207 0.148926)"/>
</clipPath>
</defs>
</svg>
