<svg width="11" height="10" viewBox="0 0 11 10" fill="none" xmlns="http://www.w3.org/2000/svg">
<g clip-path="url(#clip0_201_11580)">
<path d="M8.42979 2.98499C8.42159 3.03759 8.41206 3.09134 8.40139 3.14662C8.03599 5.01456 6.78581 5.65881 5.18891 5.65881H4.37598C4.28193 5.65857 4.19089 5.692 4.11934 5.75303C4.04778 5.81407 4.00042 5.89869 3.98581 5.9916L3.56953 8.61891L3.45173 9.36361C3.4475 9.39051 3.44862 9.41798 3.45502 9.44445C3.46143 9.47092 3.47299 9.49586 3.48905 9.51785C3.50511 9.53984 3.52535 9.55845 3.54861 9.57261C3.57187 9.58676 3.5977 9.59619 3.62461 9.60034C3.63533 9.60203 3.64617 9.60286 3.65702 9.60282H5.09895C5.18142 9.60307 5.26127 9.5739 5.32415 9.52055C5.38704 9.4672 5.42884 9.39317 5.44204 9.31177L5.45614 9.23877L5.72757 7.52331L5.74491 7.42915C5.75792 7.34761 5.79964 7.2734 5.86256 7.21993C5.92547 7.16645 6.00543 7.13722 6.088 7.13753H6.30358C7.70072 7.13753 8.79422 6.57295 9.11387 4.93946C9.24729 4.25709 9.1783 3.68737 8.82491 3.28652C8.71258 3.16288 8.57869 3.06071 8.42979 2.98499Z" fill="black"/>
<path d="M7.68072 1.12269C7.26749 0.654376 6.52165 0.453859 5.5671 0.453859H2.79607C2.70181 0.453635 2.61058 0.487078 2.5388 0.548164C2.46702 0.60925 2.41942 0.693962 2.40456 0.787038L1.25044 8.06818C1.24559 8.09899 1.24687 8.13045 1.2542 8.16076C1.26154 8.19108 1.27478 8.21964 1.29318 8.24483C1.31158 8.27001 1.33477 8.29131 1.36142 8.30751C1.38807 8.32371 1.41766 8.33448 1.44848 8.33922C1.46072 8.34113 1.47308 8.34209 1.48546 8.34208H3.19634L3.62597 5.62995L3.61262 5.71496C3.62723 5.62205 3.67459 5.53743 3.74615 5.47639C3.81771 5.41536 3.90874 5.38193 4.00279 5.38216H4.81573C6.41243 5.38216 7.66262 4.73677 8.0282 2.86998C8.03906 2.8147 8.04821 2.76095 8.0566 2.70834C8.16524 2.01797 8.05565 1.54813 7.68072 1.12269Z" fill="black"/>
</g>
<defs>
<clipPath id="clip0_201_11580">
<rect width="9.75902" height="9.75902" fill="white" transform="translate(0.33252 0.148926)"/>
</clipPath>
</defs>
</svg>
