<svg width="11" height="10" viewBox="0 0 11 10" fill="none" xmlns="http://www.w3.org/2000/svg">
<g clip-path="url(#clip0_201_11620)">
<path d="M10.2907 6.76688C10.0798 6.75142 9.87067 6.71755 9.66569 6.66567C9.14571 6.53929 8.6204 6.20326 8.36728 5.66632C8.23576 5.38746 8.31696 5.31198 8.59334 5.20886C8.86362 5.10842 9.16134 5.06172 9.29591 4.77047C9.40818 4.52726 9.31745 4.24135 9.09749 4.09401C8.79805 3.8933 8.519 4.09001 8.20889 4.13347C8.27998 3.2441 8.37395 2.44527 7.77678 1.69886C7.28178 1.08015 6.50411 0.758789 5.72167 0.758789C4.93923 0.758789 4.16137 1.08015 3.66675 1.69905C3.06863 2.44737 3.16355 3.24639 3.23464 4.13728C2.92358 4.09439 2.64739 3.89349 2.34585 4.09573C2.06528 4.28347 2.02182 4.66297 2.24216 4.91533C2.4625 5.16769 2.84524 5.09641 3.07034 5.30798C3.19405 5.42406 3.13686 5.54833 3.06367 5.69186C2.78767 6.23318 2.31535 6.56369 1.73248 6.67462C1.65624 6.68911 1.30724 6.72933 1.1416 6.74419C1.1416 6.92108 1.15151 7.06403 1.17267 7.15838C1.22871 7.40731 1.4075 7.60783 1.62422 7.73211C1.83731 7.85409 2.30049 7.85466 2.41866 8.02774C2.47584 8.11313 2.45221 8.2618 2.52025 8.35901C2.58943 8.45732 2.6948 8.52417 2.81321 8.54485C3.16793 8.61366 3.52456 8.40761 3.88861 8.50482C4.17166 8.58011 4.3941 8.80731 4.63693 8.96228C4.93256 9.15002 5.25335 9.27525 5.60578 9.29565C6.33199 9.33777 6.74808 8.93521 7.33229 8.60146C7.70397 8.38912 8.05945 8.52789 8.45458 8.55038C8.83769 8.5723 8.90307 8.37407 9.01915 8.07615C9.03179 8.04631 9.04161 8.01536 9.0485 7.98371C9.06414 7.97628 9.07875 7.96686 9.09196 7.95569C9.13008 7.92576 9.29305 7.91108 9.33518 7.90117C9.53112 7.85467 9.72287 7.80301 9.89117 7.68769C10.1067 7.53978 10.2276 7.33507 10.2644 7.06556C10.2815 6.96691 10.2903 6.867 10.2907 6.76688ZM4.80123 2.58861C4.96973 2.58861 5.1062 2.79332 5.1062 3.04606C5.1062 3.2988 4.96973 3.50351 4.80123 3.50351C4.63274 3.50351 4.49626 3.2988 4.49626 3.04606C4.49626 2.79332 4.63274 2.58861 4.80123 2.58861ZM6.77629 4.06961C6.48562 4.35552 6.10917 4.51373 5.71614 4.51373C5.51868 4.51337 5.32324 4.47388 5.14114 4.39751C4.95904 4.32115 4.79389 4.20945 4.65523 4.06885C4.62662 4.04024 4.61054 4.00143 4.61054 3.96097C4.61054 3.9205 4.62662 3.8817 4.65523 3.85309C4.68384 3.82447 4.72265 3.8084 4.76311 3.8084C4.80358 3.8084 4.84238 3.82447 4.871 3.85309C4.98136 3.96529 5.11289 4.0545 5.25795 4.11555C5.40302 4.1766 5.55875 4.20828 5.71614 4.20876C6.02854 4.20876 6.32894 4.08219 6.56224 3.85232C6.59106 3.82394 6.62997 3.80816 6.67041 3.80847C6.71086 3.80877 6.74953 3.82513 6.77791 3.85394C6.8063 3.88276 6.82207 3.92167 6.82177 3.96211C6.82147 4.00256 6.80511 4.04123 6.77629 4.06961ZM6.63105 3.50351C6.46255 3.50351 6.32608 3.29861 6.32608 3.04606C6.32608 2.79351 6.46255 2.58861 6.63105 2.58861C6.79955 2.58861 6.93602 2.79351 6.93602 3.04606C6.93602 3.29861 6.79955 3.50351 6.63105 3.50351Z" fill="black"/>
</g>
<defs>
<clipPath id="clip0_201_11620">
<rect width="9.75902" height="9.75902" fill="white" transform="translate(0.836426 0.148926)"/>
</clipPath>
</defs>
</svg>
