<svg width="10" height="10" viewBox="0 0 10 10" fill="none" xmlns="http://www.w3.org/2000/svg">
<g clip-path="url(#clip0_201_11550)">
<path d="M9.11091 1.36877H0.762371C0.373153 1.36877 0.0571289 1.70005 0.0571289 2.10775V7.9483C0.0571289 8.3562 0.373153 8.68804 0.762371 8.68804H9.11091C9.49936 8.68804 9.81615 8.3562 9.81615 7.9483V2.10775C9.81615 1.70005 9.50012 1.36877 9.11091 1.36877ZM5.54658 7.16319H4.3267V5.02841L3.41179 6.24828L2.49688 5.02841V7.16319H1.27701V2.89362H2.49688L3.41179 4.41847L4.3267 2.89362H5.54658V7.16319ZM7.37639 7.16319L5.85155 5.02841H6.76741L6.76646 2.89362H7.98633V5.02841H8.90124L7.37639 7.16319Z" fill="black"/>
</g>
<defs>
<clipPath id="clip0_201_11550">
<rect width="9.75902" height="9.75902" fill="white" transform="translate(0.0571289 0.148926)"/>
</clipPath>
</defs>
</svg>
