<svg width="11" height="10" viewBox="0 0 11 10" fill="none" xmlns="http://www.w3.org/2000/svg">
<g clip-path="url(#clip0_201_11675)">
<path fill-rule="evenodd" clip-rule="evenodd" d="M10.2159 2.66478C10.2838 2.44978 10.2159 2.29348 9.91572 2.29348H8.91752C8.66573 2.29348 8.54946 2.43034 8.4816 2.57672C8.4816 2.57672 7.96811 3.8271 7.25105 4.63774C7.01851 4.87219 6.91196 4.95034 6.78597 4.95034C6.71812 4.95034 6.63082 4.87219 6.63082 4.65738V2.65468C6.63082 2.40079 6.55343 2.28357 6.34014 2.28357H4.77031C4.61516 2.28357 4.51833 2.40079 4.51833 2.51801C4.51833 2.76218 4.87686 2.82089 4.91556 3.50459V4.99017C4.91556 5.31249 4.85837 5.37138 4.73143 5.37138C4.39234 5.37138 3.56873 4.11129 3.07468 2.67546C2.97862 2.39107 2.88103 2.28357 2.62905 2.28357H1.62131C1.33064 2.28357 1.28223 2.42023 1.28223 2.56681C1.28223 2.83061 1.62131 4.15894 2.86159 5.91709C3.68519 7.11791 4.85761 7.7633 5.91376 7.7633C6.55343 7.7633 6.63082 7.61672 6.63082 7.37256V6.46413C6.63082 6.17117 6.68895 6.12237 6.89252 6.12237C7.03776 6.12237 7.29946 6.20033 7.89053 6.77672C8.56871 7.46043 8.68498 7.77302 9.06295 7.77302H10.061C10.3516 7.77302 10.4873 7.62644 10.4098 7.3432C10.3227 7.05996 9.99311 6.64978 9.56672 6.16145C9.33418 5.88812 8.98537 5.58524 8.87882 5.43867C8.73358 5.2433 8.77227 5.16515 8.87882 4.98941C8.8691 4.98941 10.0901 3.2507 10.2159 2.66402" fill="black"/>
</g>
<defs>
<clipPath id="clip0_201_11675">
<rect width="9.75902" height="9.75902" fill="white" transform="translate(0.977539 0.148926)"/>
</clipPath>
</defs>
</svg>
