<svg width="10" height="10" viewBox="0 0 10 10" fill="none" xmlns="http://www.w3.org/2000/svg">
<g clip-path="url(#clip0_201_11640)">
<path d="M9.1906 4.11733C9.1906 4.25305 9.15036 4.38571 9.07496 4.49855C8.99956 4.6114 8.89239 4.69935 8.76701 4.75128C8.64163 4.80322 8.50366 4.81681 8.37055 4.79033C8.23745 4.76385 8.11518 4.6985 8.01922 4.60254C7.92325 4.50657 7.8579 4.38431 7.83142 4.2512C7.80495 4.11809 7.81854 3.98013 7.87047 3.85474C7.92241 3.72936 8.01036 3.62219 8.1232 3.54679C8.23604 3.4714 8.36871 3.43115 8.50442 3.43115C8.68641 3.43115 8.86094 3.50345 8.98962 3.63213C9.11831 3.76081 9.1906 3.93535 9.1906 4.11733ZM8.50061 2.79834C8.15211 2.79842 7.81771 2.93599 7.57004 3.18116C7.32237 3.42634 7.18142 3.75932 7.1778 4.1078L6.35439 5.28956C6.32021 5.28575 6.28585 5.28384 6.25146 5.28384C6.07421 5.28373 5.90027 5.33183 5.74826 5.42298L2.0162 3.92291C1.97629 3.74104 1.88578 3.57415 1.75509 3.44151C1.6244 3.30888 1.45887 3.2159 1.2776 3.17332C1.09633 3.13073 0.906715 3.14027 0.730637 3.20084C0.554559 3.26141 0.399197 3.37053 0.282484 3.51562C0.16577 3.6607 0.092462 3.83583 0.0710211 4.0208C0.0495802 4.20576 0.0808804 4.39302 0.161309 4.56096C0.241738 4.72889 0.368016 4.87067 0.525569 4.96991C0.683122 5.06915 0.865526 5.12181 1.05173 5.12183C1.22898 5.12194 1.40292 5.07384 1.55493 4.98268L5.28699 6.48085C5.33677 6.71069 5.467 6.91519 5.65423 7.05749C5.84146 7.19979 6.07336 7.27054 6.30813 7.25697C6.54291 7.2434 6.76512 7.14642 6.93471 6.9835C7.1043 6.82058 7.21011 6.60243 7.23308 6.36839L8.50061 5.44204C8.85118 5.44204 9.1874 5.30278 9.4353 5.05488C9.68319 4.80699 9.82246 4.47077 9.82246 4.12019C9.82246 3.76961 9.68319 3.4334 9.4353 3.1855C9.1874 2.93761 8.85118 2.79834 8.50061 2.79834ZM8.50061 3.23483C8.67563 3.23502 8.84668 3.28708 8.99213 3.38444C9.13758 3.48179 9.25091 3.62008 9.31781 3.78182C9.3847 3.94356 9.40215 4.1215 9.36796 4.29315C9.33377 4.46481 9.24946 4.62248 9.1257 4.74624C9.00194 4.87 8.84427 4.9543 8.67261 4.9885C8.50096 5.02269 8.32302 5.00524 8.16128 4.93834C7.99954 4.87145 7.86126 4.75812 7.7639 4.61267C7.66654 4.46722 7.61448 4.29617 7.61429 4.12114C7.61449 3.88614 7.70794 3.66082 7.87411 3.49465C8.04028 3.32847 8.2656 3.23503 8.50061 3.23483ZM1.05173 3.40637C1.18364 3.40631 1.31309 3.4421 1.42623 3.50992C1.53937 3.57773 1.63195 3.67503 1.69407 3.7914L1.33383 3.64654V3.64844C1.19346 3.59701 1.03859 3.60218 0.90197 3.66286C0.765346 3.72354 0.657678 3.83498 0.601731 3.97361C0.545784 4.11224 0.545945 4.26719 0.602178 4.40571C0.658411 4.54422 0.766309 4.65544 0.903057 4.71584V4.71774L1.20993 4.83973C1.15864 4.85129 1.10621 4.85704 1.05364 4.85688C0.861286 4.85714 0.676714 4.78097 0.540524 4.64513C0.404333 4.5093 0.32768 4.32493 0.327428 4.13258C0.327175 3.94023 0.403343 3.75566 0.539176 3.61947C0.675009 3.48328 0.85938 3.40663 1.05173 3.40637ZM6.25146 5.54497C6.38008 5.54502 6.50638 5.57922 6.61744 5.64409C6.72851 5.70895 6.82035 5.80215 6.88358 5.91415C6.94682 6.02616 6.97917 6.15294 6.97733 6.28155C6.9755 6.41016 6.93954 6.53597 6.87313 6.64612C6.80672 6.75627 6.71226 6.84681 6.59938 6.90847C6.48651 6.97014 6.35929 7.00073 6.23072 6.9971C6.10215 6.99347 5.97685 6.95576 5.86764 6.88783C5.75842 6.8199 5.66921 6.72418 5.60912 6.61046C5.7292 6.65811 5.84737 6.70576 5.96746 6.75532C6.03797 6.78441 6.11355 6.79923 6.18982 6.79892C6.2661 6.79861 6.34156 6.78318 6.41183 6.75353C6.4821 6.72387 6.5458 6.68057 6.59923 6.62614C6.65267 6.5717 6.69478 6.50722 6.72313 6.4364C6.75148 6.36559 6.7655 6.28986 6.7644 6.21359C6.76329 6.13732 6.74707 6.06203 6.71668 5.99207C6.68629 5.92211 6.64233 5.85887 6.58734 5.80601C6.53235 5.75315 6.46742 5.71172 6.39632 5.68411L6.09326 5.56213C6.14537 5.55171 6.19832 5.54597 6.25146 5.54497Z" fill="black"/>
</g>
<defs>
<clipPath id="clip0_201_11640">
<rect width="9.75902" height="9.75902" fill="white" transform="translate(0.0644531 0.148926)"/>
</clipPath>
</defs>
</svg>
