<svg width="11" height="11" viewBox="0 0 11 11" fill="none" xmlns="http://www.w3.org/2000/svg">
<path d="M1.99347 5.59997C2.02602 5.59993 2.058 5.59145 2.0863 5.57538C2.10771 5.56318 2.12651 5.54687 2.1416 5.52739C2.1567 5.5079 2.16779 5.48563 2.17426 5.46184C2.18072 5.43806 2.18243 5.41323 2.17927 5.38879C2.17611 5.36434 2.16816 5.34076 2.15587 5.3194C1.84213 4.77503 1.8164 4.32596 2.01387 3.98516C2.28567 3.51684 3.03571 3.34377 4.02038 3.52218C4.06927 3.53103 4.11968 3.52015 4.16058 3.49193C4.20148 3.46372 4.22954 3.42045 4.23862 3.3716C4.24302 3.34735 4.2426 3.32248 4.23738 3.2984C4.23217 3.27432 4.22226 3.2515 4.20822 3.23125C4.19419 3.21101 4.1763 3.19372 4.15558 3.18039C4.13486 3.16705 4.11171 3.15793 4.08747 3.15354C3.53109 3.0529 3.02008 3.05481 2.61237 3.15926C2.18732 3.2681 1.86901 3.48863 1.68888 3.79741C1.42204 4.25849 1.44681 4.8406 1.83031 5.50562C1.84678 5.53433 1.87054 5.55818 1.8992 5.57475C1.92785 5.59132 1.96037 5.60002 1.99347 5.59997Z" fill="black"/>
<path d="M7.23259 3.4791C7.8471 3.48711 8.23537 3.65656 8.4294 3.99107C8.70025 4.45768 8.47744 5.18827 7.83338 5.94516C7.81021 5.97242 7.79533 6.00575 7.79052 6.0412C7.78571 6.07665 7.79115 6.11274 7.80621 6.14519C7.82128 6.17764 7.84532 6.2051 7.87551 6.2243C7.90569 6.24351 7.94075 6.25367 7.97652 6.25356C8.00376 6.25359 8.03068 6.24771 8.05543 6.23632C8.08018 6.22494 8.10216 6.20832 8.11986 6.18761C8.4843 5.75932 8.73647 5.31959 8.84893 4.91608C8.96596 4.49675 8.93336 4.11154 8.75362 3.80333C8.49059 3.35006 7.98872 3.11429 7.23659 3.10437H7.23392C7.18423 3.10407 7.13645 3.12352 7.1011 3.15844C7.06575 3.19337 7.04572 3.2409 7.04541 3.2906C7.04511 3.34029 7.06456 3.38807 7.09948 3.42342C7.13441 3.45877 7.18194 3.4788 7.23164 3.4791H7.23259Z" fill="black"/>
<path d="M6.56261 8.64746C6.51996 8.62203 6.469 8.61448 6.42081 8.62643C6.37262 8.63839 6.3311 8.6689 6.30529 8.71131C5.99251 9.22881 5.60824 9.51377 5.22322 9.51377C4.68018 9.51377 4.15583 8.9551 3.81788 8.01903C3.80089 7.97235 3.76612 7.93429 3.72116 7.91315C3.6762 7.89201 3.6247 7.88951 3.57791 7.9062C3.55462 7.91438 3.53317 7.92708 3.51481 7.94358C3.49644 7.96007 3.48151 7.98003 3.47089 8.00231C3.46026 8.0246 3.45414 8.04876 3.45288 8.07341C3.45162 8.09807 3.45525 8.12273 3.46355 8.14598C3.65415 8.67529 3.9109 9.1133 4.20691 9.41274C4.51398 9.72419 4.86545 9.88926 5.22322 9.88926C5.7451 9.88926 6.24372 9.53988 6.62703 8.90554C6.63978 8.88444 6.64822 8.86102 6.65188 8.83664C6.65554 8.81226 6.65434 8.7874 6.64835 8.76348C6.64236 8.73957 6.6317 8.71707 6.61699 8.69729C6.60227 8.67751 6.58379 8.66083 6.56261 8.64822V8.64746Z" fill="black"/>
<path d="M8.56816 7.19219C8.46735 7.19168 8.36797 7.21606 8.27884 7.26317C8.18971 7.31027 8.11358 7.37865 8.0572 7.46223C8.00083 7.54581 7.96596 7.64201 7.95567 7.7423C7.94539 7.84258 7.96001 7.94386 7.99825 8.03714C7.20152 8.40882 5.71479 8.12844 4.3411 7.33914C3.71381 6.9789 3.15629 6.54127 2.72857 6.07371C2.69491 6.03715 2.64819 6.01534 2.59855 6.01302C2.54891 6.0107 2.50036 6.02806 2.46344 6.06132C2.44514 6.07785 2.4303 6.09784 2.41976 6.12013C2.40923 6.14242 2.40321 6.16658 2.40206 6.19121C2.40091 6.21584 2.40464 6.24046 2.41305 6.26364C2.42146 6.28682 2.43437 6.3081 2.45105 6.32626C2.9045 6.82184 3.49328 7.28463 4.15373 7.66394C4.92149 8.10481 5.72185 8.40025 6.46826 8.51804C6.68885 8.55384 6.9119 8.57239 7.13538 8.57351C7.57606 8.57351 7.95499 8.49155 8.25062 8.32972C8.33156 8.37916 8.42286 8.40916 8.51735 8.41738C8.61185 8.4256 8.70696 8.4118 8.79522 8.37707C8.88348 8.34235 8.9625 8.28764 9.02606 8.21724C9.08962 8.14684 9.136 8.06267 9.16156 7.97133C9.18712 7.87999 9.19116 7.78396 9.17337 7.6908C9.15558 7.59763 9.11644 7.50986 9.05901 7.43437C9.00159 7.35888 8.92746 7.29772 8.84242 7.2557C8.75739 7.21368 8.66377 7.19194 8.56893 7.19219H8.56816ZM8.56816 8.04343C8.51406 8.04343 8.46154 8.02517 8.41911 7.99159C8.40742 7.97544 8.39327 7.96123 8.37718 7.94946C8.34413 7.90643 8.32662 7.85347 8.32749 7.79922C8.32836 7.74496 8.34757 7.6926 8.38198 7.65064C8.41639 7.60869 8.46399 7.57962 8.51703 7.56815C8.57007 7.55669 8.62542 7.5635 8.67409 7.5875C8.72276 7.61149 8.76188 7.65125 8.78508 7.7003C8.80829 7.74935 8.81421 7.80481 8.80189 7.85766C8.78956 7.9105 8.75972 7.95762 8.71722 7.99135C8.67471 8.02508 8.62205 8.04344 8.56778 8.04343H8.56816Z" fill="black"/>
<path d="M1.90433 7.19313C1.9152 6.7879 2.14087 6.29728 2.54629 5.79866C2.98831 5.25638 3.62684 4.73126 4.34447 4.3186C4.97823 3.95454 5.58722 3.71057 6.21374 3.57695C6.23818 3.57219 6.26142 3.5626 6.28211 3.54875C6.3028 3.5349 6.32052 3.51706 6.33424 3.49628C6.34795 3.47551 6.35739 3.4522 6.362 3.42773C6.36661 3.40327 6.36629 3.37813 6.36108 3.35378C6.35586 3.32944 6.34584 3.30638 6.33161 3.28595C6.31737 3.26552 6.29921 3.24813 6.27818 3.2348C6.25716 3.22147 6.23368 3.21247 6.20913 3.20831C6.18458 3.20416 6.15945 3.20494 6.13521 3.21061C5.47095 3.35223 4.82422 3.61088 4.15691 3.99381C2.55239 4.91539 1.48138 6.26469 1.53017 7.29434C1.40808 7.37507 1.31872 7.49663 1.2781 7.63725C1.23748 7.77788 1.24826 7.92836 1.30851 8.06176C1.36875 8.19516 1.47452 8.30275 1.60688 8.36525C1.73923 8.42776 1.88951 8.44109 2.0308 8.40287C2.1721 8.36465 2.29516 8.27737 2.37796 8.15667C2.46075 8.03597 2.49786 7.88973 2.48264 7.74415C2.46742 7.59858 2.40087 7.46318 2.2949 7.36221C2.18893 7.26124 2.05047 7.2013 1.90433 7.19313ZM1.87021 8.04342C1.82317 8.04308 1.77727 8.02882 1.73832 8.00244C1.69936 7.97605 1.66909 7.93872 1.65132 7.89516C1.63355 7.85159 1.62908 7.80374 1.63846 7.75764C1.64785 7.71154 1.67067 7.66924 1.70406 7.63609C1.73745 7.60294 1.7799 7.58042 1.82607 7.57137C1.87224 7.56231 1.92006 7.56713 1.9635 7.58521C2.00693 7.60329 2.04404 7.63383 2.07015 7.67298C2.09625 7.71212 2.11019 7.75811 2.11019 7.80516C2.10988 7.86856 2.08445 7.92924 2.03946 7.97391C1.99447 8.01858 1.93361 8.04357 1.87021 8.04342Z" fill="black"/>
<path d="M5.22327 2.57543C5.32255 2.57568 5.42042 2.55187 5.50849 2.50603C5.59656 2.46018 5.6722 2.39368 5.72894 2.3122C6.06994 2.53502 6.377 2.97932 6.60211 3.57249C6.8499 4.22798 6.98027 5.00928 6.98027 5.83193C6.98027 6.5406 6.88135 7.21096 6.69436 7.80661C6.68687 7.83005 6.68413 7.85474 6.68629 7.87926C6.68845 7.90377 6.69547 7.9276 6.70694 7.94937C6.71837 7.97129 6.73402 7.99072 6.75299 8.00655C6.77197 8.02239 6.79389 8.03431 6.81749 8.04163C6.86496 8.05629 6.9163 8.05162 6.96035 8.02863C7.00439 8.00565 7.03758 7.9662 7.0527 7.91888C7.25131 7.28721 7.35634 6.57815 7.35634 5.83193C7.35634 4.93284 7.20824 4.08274 6.92805 3.37312C6.65338 2.67779 6.27751 2.18374 5.83892 1.94052C5.83514 1.81965 5.79585 1.70257 5.72594 1.60388C5.65603 1.5052 5.55861 1.4293 5.44583 1.38564C5.33306 1.34198 5.20992 1.3325 5.09179 1.35838C4.97366 1.38427 4.86577 1.44437 4.78158 1.53119C4.6974 1.61801 4.64064 1.7277 4.61841 1.84657C4.59617 1.96544 4.60944 2.08823 4.65655 2.19961C4.70366 2.31099 4.78253 2.40602 4.88331 2.47286C4.9841 2.5397 5.10233 2.57537 5.22327 2.57543ZM5.22327 1.72418C5.27031 1.72452 5.31621 1.73878 5.35516 1.76517C5.39412 1.79155 5.42439 1.82888 5.44216 1.87245C5.45993 1.91601 5.4644 1.96386 5.45502 2.00997C5.44563 2.05607 5.42281 2.09836 5.38942 2.13151C5.35603 2.16466 5.31358 2.18718 5.26741 2.19624C5.22124 2.20529 5.17342 2.20048 5.12998 2.18239C5.08655 2.16431 5.04944 2.13377 5.02333 2.09463C4.99723 2.05549 4.98329 2.00949 4.98329 1.96244C4.9836 1.89905 5.00903 1.83836 5.05402 1.7937C5.09901 1.74903 5.15987 1.72403 5.22327 1.72418Z" fill="black"/>
<path d="M5.12426 5.3781C5.01207 5.40213 4.91275 5.46686 4.84548 5.5598C4.77821 5.65274 4.74774 5.7673 4.75997 5.88138C4.77219 5.99546 4.82623 6.10097 4.91167 6.17755C4.9971 6.25413 5.10788 6.29635 5.22261 6.29606C5.25567 6.29603 5.28864 6.29252 5.32096 6.28558C5.38123 6.27336 5.43847 6.24928 5.48936 6.21475C5.54025 6.18023 5.58377 6.13593 5.61741 6.08445C5.65104 6.03296 5.6741 5.97531 5.68527 5.91483C5.69644 5.85436 5.69548 5.79227 5.68245 5.73217C5.66942 5.67206 5.64458 5.61515 5.60938 5.56473C5.57418 5.5143 5.52931 5.47137 5.47738 5.43843C5.42544 5.40549 5.36749 5.3832 5.30687 5.37284C5.24625 5.36249 5.18418 5.36427 5.12426 5.3781Z" fill="black"/>
</svg>
