<svg width="11" height="10" viewBox="0 0 11 10" fill="none" xmlns="http://www.w3.org/2000/svg">
<g clip-path="url(#clip0_201_11520)">
<path d="M9.97067 5.51641L9.49072 4.02816C9.48819 4.01446 9.48429 4.00105 9.4791 3.98813L8.51654 0.996762C8.49131 0.919862 8.44235 0.852939 8.3767 0.805609C8.31104 0.758279 8.23208 0.73298 8.15114 0.733345C8.07042 0.733103 7.99175 0.758792 7.92672 0.806627C7.8617 0.854461 7.81375 0.921914 7.78995 0.999049L6.87237 3.84956H3.97516L3.05682 0.998859C3.03313 0.921988 2.98545 0.854721 2.92076 0.806909C2.85607 0.759096 2.77778 0.73325 2.69734 0.733154H2.69524C2.6141 0.73343 2.53512 0.759401 2.46965 0.807341C2.40418 0.855282 2.35557 0.922727 2.3308 1L1.36729 3.99404C1.36729 3.99671 1.3652 3.999 1.36424 4.00166L0.875719 5.5166C0.839742 5.62756 0.839601 5.74704 0.875317 5.85808C0.911033 5.96913 0.980794 6.06612 1.07471 6.13531L5.29549 9.23094C5.33254 9.25804 5.37731 9.27254 5.42322 9.2723C5.46913 9.27206 5.51375 9.2571 5.55052 9.2296L9.77206 6.13531C9.86599 6.0661 9.93574 5.96905 9.97139 5.85796C10.007 5.74686 10.0068 5.62735 9.97067 5.51641ZM3.66161 4.28681L4.83822 7.94187L2.01402 4.28681H3.66161ZM6.00988 7.94263L7.13807 4.43853L7.18668 4.28605H8.8358L6.28054 7.59096L6.00988 7.94263ZM8.15477 1.27943L8.98142 3.84937H7.32658L8.15477 1.27943ZM6.73208 4.28509L5.91248 6.83121L5.42338 8.34767L4.11659 4.28509H6.73208ZM2.69334 1.27943L3.52171 3.84937H1.86859L2.69334 1.27943ZM1.32879 5.78288C1.30884 5.76816 1.29404 5.74753 1.28648 5.72392C1.27891 5.70032 1.27898 5.67493 1.28667 5.65136L1.64882 4.52678L4.30987 7.96893L1.32879 5.78288ZM9.51836 5.78288L6.5369 7.96798L6.54682 7.95483L9.19738 4.52602L9.55953 5.6506C9.56732 5.67418 9.56747 5.69961 9.55998 5.72329C9.55249 5.74697 9.53772 5.76768 9.51779 5.78249" fill="black"/>
</g>
<defs>
<clipPath id="clip0_201_11520">
<rect width="9.75902" height="9.75902" fill="white" transform="translate(0.553223 0.148926)"/>
</clipPath>
</defs>
</svg>
