<svg width="11" height="10" viewBox="0 0 11 10" fill="none" xmlns="http://www.w3.org/2000/svg">
<g clip-path="url(#clip0_201_11595)">
<path d="M8.20702 3.59357C8.10956 3.56028 8.0114 3.52927 7.91254 3.50055C7.92893 3.43384 7.94405 3.36675 7.9579 3.29927C8.18091 2.21473 8.0351 1.34099 7.53742 1.05337C7.06091 0.777368 6.27942 1.06499 5.49108 1.7527C5.41357 1.82055 5.33764 1.89044 5.2633 1.96236C5.21375 1.91459 5.16292 1.86782 5.11082 1.82208C4.28454 1.08672 3.45636 0.776986 2.95926 1.06556C2.48275 1.34213 2.34113 2.16345 2.54183 3.19139C2.56191 3.29305 2.58447 3.39426 2.6095 3.49503C2.49228 3.52838 2.37906 3.56403 2.27079 3.60177C1.30328 3.94009 0.68457 4.47055 0.68457 5.02064C0.68457 5.58902 1.34864 6.15893 2.35752 6.5045C2.43935 6.53233 2.52195 6.55819 2.60531 6.58208C2.57824 6.68996 2.55429 6.79905 2.53345 6.90935C2.34284 7.91956 2.49151 8.72144 2.96708 8.99629C3.45827 9.28011 4.28226 8.98848 5.08547 8.28514C5.149 8.22949 5.21254 8.17072 5.27608 8.10883C5.35638 8.18647 5.43898 8.26183 5.52386 8.33489C6.30154 9.00544 7.06949 9.27629 7.54429 9.00068C8.0351 8.71591 8.19463 7.85437 7.98744 6.80623C7.97156 6.72618 7.95326 6.64447 7.93255 6.56111C7.99049 6.54396 8.04723 6.52623 8.10276 6.50793C9.15109 6.1597 9.83403 5.59665 9.83403 5.02121C9.83365 4.46845 9.19512 3.93456 8.20702 3.59357ZM5.74821 2.04814C6.42352 1.45897 7.05481 1.22644 7.34262 1.39264C7.64893 1.56972 7.76806 2.28373 7.57554 3.22017C7.56284 3.28117 7.54911 3.34197 7.53437 3.40258C7.13136 3.31091 6.72269 3.24622 6.31107 3.20893C6.07539 2.86943 5.81704 2.54626 5.53778 2.2416C5.60614 2.17527 5.67616 2.11078 5.74783 2.04814H5.74821ZM3.38603 5.49067C3.46875 5.65078 3.55522 5.80892 3.64544 5.96509C3.73731 6.12443 3.83306 6.28143 3.93269 6.43608C3.64946 6.40528 3.36801 6.35992 3.08944 6.30017C3.17026 6.03866 3.26976 5.76705 3.38603 5.49067ZM3.38603 4.56947C3.27166 4.299 3.17484 4.03292 3.09535 3.77598C3.35648 3.71746 3.63477 3.66962 3.92487 3.63341C3.82766 3.78513 3.73414 3.93907 3.6443 4.09524C3.55446 4.25141 3.46818 4.40949 3.38546 4.56947H3.38603ZM3.59379 5.03017C3.71425 4.77895 3.84399 4.53256 3.98301 4.291C4.12189 4.04956 4.26974 3.81366 4.42654 3.58328C4.69873 3.56269 4.97778 3.55183 5.25968 3.55183C5.54159 3.55183 5.82235 3.56269 6.09435 3.58347C6.2495 3.81334 6.39646 4.04842 6.53522 4.28871C6.67398 4.529 6.80543 4.77425 6.92958 5.02445C6.80709 5.27656 6.67595 5.52396 6.53617 5.76667C6.39754 6.0081 6.25141 6.24471 6.09778 6.47648C5.82616 6.49554 5.54502 6.50603 5.25911 6.50603C4.9732 6.50603 4.6974 6.49707 4.43074 6.47972C4.27279 6.24858 4.12374 6.01166 3.98358 5.76895C3.84342 5.52625 3.7133 5.27999 3.59322 5.03017H3.59379ZM6.8745 5.96242C6.96662 5.80256 7.05506 5.64061 7.13982 5.47656C7.256 5.74 7.35856 6.00924 7.44708 6.28321C7.16524 6.34667 6.88028 6.39534 6.59335 6.42902C6.69018 6.27539 6.78389 6.11986 6.8745 5.96242ZM7.13601 4.56966C7.05163 4.40892 6.96389 4.25008 6.87278 4.09315C6.78383 3.93838 6.69113 3.78551 6.59469 3.63455C6.8865 3.67153 7.1665 3.7207 7.42897 3.78074C7.34458 4.04845 7.24681 4.31176 7.13601 4.56966ZM5.2635 2.5216C5.45382 2.72957 5.63354 2.94701 5.80196 3.17309C5.44171 3.15594 5.08121 3.15594 4.72046 3.17309C4.89829 2.93789 5.08032 2.71964 5.2635 2.5216ZM3.15597 1.40427C3.46208 1.22663 4.13892 1.48051 4.85236 2.11466C4.89791 2.15526 4.94385 2.19776 4.98959 2.24179C4.7089 2.5464 4.44872 2.8693 4.21078 3.20835C3.80007 3.24536 3.3922 3.30903 2.98976 3.39896C2.9665 3.30544 2.94554 3.21128 2.92686 3.11648C2.75436 2.23531 2.86853 1.57105 3.15597 1.40427ZM2.70976 6.20468C2.63352 6.18295 2.55823 6.15938 2.48389 6.13397C2.03787 5.98148 1.66943 5.78249 1.4165 5.56577C1.19006 5.37154 1.07531 5.17769 1.07531 5.02064C1.07531 4.68688 1.57203 4.26107 2.4004 3.9723C2.50448 3.93609 2.60944 3.90299 2.71529 3.873C2.83831 4.26837 2.98731 4.65519 3.1613 5.03093C2.98523 5.41186 2.83439 5.80396 2.70976 6.20468ZM4.82796 7.99009C4.47286 8.30115 4.11719 8.52168 3.80364 8.63281C3.52193 8.73249 3.29759 8.73535 3.16207 8.65701C2.87349 8.49023 2.75341 7.84618 2.91714 6.98235C2.93658 6.8807 2.95882 6.77904 2.98385 6.67738C3.39032 6.76494 3.80228 6.82474 4.21688 6.85636C4.45715 7.19718 4.71947 7.52191 5.00217 7.82845C4.94537 7.8843 4.88724 7.93805 4.82796 7.99009ZM5.27436 7.5475C5.08909 7.34717 4.9042 7.1255 4.72389 6.88724C4.89912 6.8941 5.07753 6.89753 5.25911 6.89753C5.44552 6.89753 5.63003 6.89353 5.81187 6.88533C5.64406 7.11504 5.46466 7.33605 5.27436 7.5475ZM7.64778 8.09244C7.59327 8.38674 7.48367 8.58306 7.34815 8.66159C7.05977 8.82894 6.44315 8.61146 5.77832 8.03793C5.70208 7.97236 5.62584 7.90203 5.54826 7.82826C5.82546 7.52052 6.08164 7.19449 6.31507 6.85236C6.73196 6.81704 7.14592 6.75303 7.55401 6.6608C7.57269 6.73628 7.5892 6.81023 7.60356 6.88266C7.69524 7.34584 7.7084 7.76479 7.64778 8.09244ZM7.97944 6.13606C7.9295 6.15264 7.87804 6.16866 7.82581 6.18429C7.69785 5.78705 7.54304 5.39897 7.36245 5.02273C7.53626 4.65151 7.68501 4.26906 7.8077 3.87795C7.90129 3.90521 7.99221 3.9338 8.0797 3.96411C8.92637 4.25612 9.44291 4.68841 9.44291 5.02064C9.44291 5.37516 8.88501 5.83529 7.97944 6.13606Z" fill="black"/>
<path d="M5.25932 5.8394C5.42154 5.83993 5.58026 5.79231 5.71539 5.70257C5.85053 5.61283 5.95599 5.48502 6.01844 5.3353C6.08088 5.18558 6.09749 5.0207 6.06617 4.86154C6.03485 4.70238 5.957 4.55609 5.84248 4.4412C5.72797 4.32631 5.58193 4.24798 5.42287 4.21614C5.26381 4.1843 5.09888 4.20037 4.94896 4.26233C4.79904 4.32428 4.67088 4.42933 4.5807 4.56417C4.49052 4.69901 4.44239 4.85758 4.44238 5.0198C4.44216 5.12727 4.46312 5.23373 4.50406 5.3331C4.545 5.43246 4.60513 5.52279 4.681 5.5989C4.75686 5.67502 4.84699 5.73544 4.94622 5.77671C5.04546 5.81797 5.15185 5.83928 5.25932 5.8394Z" fill="black"/>
</g>
<defs>
<clipPath id="clip0_201_11595">
<rect width="9.75902" height="9.75902" fill="white" transform="translate(0.379883 0.148926)"/>
</clipPath>
</defs>
</svg>
