<svg width="11" height="10" viewBox="0 0 11 10" fill="none" xmlns="http://www.w3.org/2000/svg">
<g clip-path="url(#clip0_201_11646)">
<path d="M5.5089 6.63523H6.0163V5.25143H7.29336V4.75929H6.0163V3.37549H5.5089V4.75929H4.24805V5.25143H5.5089V6.63523Z" fill="black"/>
<path d="M3.15647 8.63421H3.58705V7.40404H4.72497V7.01959H3.58705V5.77417H3.15647V7.01959H2.01855V7.40404H3.15647V8.63421Z" fill="black"/>
<path d="M7.9387 4.18973H8.36928V2.96033H9.52244V2.59112H8.36928V1.3457H7.9387V2.59112H6.80078V2.96033H7.9387V4.18973Z" fill="black"/>
<path d="M5.5861 9.60294H5.95511V8.72615H6.73945V8.40364H5.95511V7.52686H5.5861V8.40364H4.81738V8.72615H5.5861V9.60294Z" fill="black"/>
<path d="M3.17191 4.18973H3.57218V2.94489H4.72554V2.59112H3.57085V1.3457H3.17058V2.59112H2.01855V2.94489H3.17191V4.18973Z" fill="black"/>
<path d="M9.18815 6.03555H9.55716V5.17439H10.3371V4.83625H9.55716V3.9751H9.18815V4.83625H8.41943V5.17439H9.18815V6.03555Z" fill="black"/>
<path fill-rule="evenodd" clip-rule="evenodd" d="M7.9387 8.63421H8.36928V7.40404H9.52244V7.01959H8.36928V5.77417H7.9387V7.01959H6.80078V7.40404H7.9387V8.63421Z" fill="black"/>
<path d="M6.73462 1.5609V1.29958H5.96572V0.453857H5.68896V1.29958H4.92024V1.5609H5.68896V2.40661H5.96572V1.5609H6.73462ZM1.95251 5.974H2.22927V5.12828H2.99874V4.86696H2.22927V4.03725H1.95251V4.86753H1.18799V5.14429L1.95251 5.14276V5.974Z" fill="black"/>
</g>
<defs>
<clipPath id="clip0_201_11646">
<rect width="9.75902" height="9.75902" fill="white" transform="translate(0.883301 0.148926)"/>
</clipPath>
</defs>
</svg>
