<svg width="10" height="11" viewBox="0 0 10 11" fill="none" xmlns="http://www.w3.org/2000/svg">
<g clip-path="url(#clip0_201_11489)">
<path d="M4.99125 1.34937C2.63403 1.34937 0.72168 3.26171 0.72168 5.61894C0.72168 7.97616 2.63403 9.88851 4.99125 9.88851C7.34847 9.88851 9.26082 7.97826 9.26082 5.61894C9.26082 3.25962 7.34847 1.34937 4.99125 1.34937ZM7.70205 3.31737C8.19606 3.89811 8.49011 4.6224 8.54071 5.38316C7.77124 5.34313 6.85061 5.34313 6.11239 5.41213C6.019 5.17635 5.92331 4.94514 5.81886 4.72271C6.67011 4.35369 7.32617 3.86879 7.70205 3.31737ZM4.99125 2.0609C5.82057 2.05947 6.62408 2.34912 7.26175 2.87936C6.87482 3.36845 6.26774 3.79427 5.5116 4.11563C5.09799 3.35073 4.62205 2.69256 4.11446 2.17431C4.40091 2.10036 4.69542 2.06227 4.99125 2.0609ZM3.3812 2.45011C3.89489 2.96151 4.3775 3.61281 4.80007 4.37523C3.99724 4.62054 3.07662 4.76121 2.09404 4.76121C1.90725 4.76121 1.72503 4.75454 1.54491 4.74329C1.6702 4.25241 1.89882 3.79392 2.21549 3.39846C2.53216 3.003 2.92958 2.67969 3.3812 2.45011ZM1.43988 5.44987C1.64231 5.45883 1.84683 5.46321 2.05363 5.46111C3.1744 5.44777 4.21739 5.27203 5.11362 4.9846C5.19812 5.16034 5.27818 5.34046 5.35378 5.52497C5.24549 5.54868 5.13915 5.58053 5.03566 5.62027C3.81045 6.13491 2.84541 6.96423 2.32277 7.9672C1.74968 7.31919 1.4333 6.484 1.43321 5.61894C1.43321 5.56175 1.4355 5.50553 1.43988 5.44987ZM4.99125 9.17698C4.20077 9.17794 3.43275 8.91408 2.80977 8.42751C3.28342 7.48916 4.12838 6.71206 5.19367 6.2304C5.29374 6.1837 5.42717 6.14596 5.5806 6.11261C5.70767 6.46383 5.82108 6.82852 5.92084 7.20668C6.06982 7.77744 6.17955 8.35773 6.24925 8.94348C5.84766 9.09735 5.42131 9.17649 4.99125 9.17698ZM6.91485 8.60992C6.84527 8.01809 6.73451 7.43182 6.58338 6.8554C6.50714 6.56625 6.42118 6.28606 6.32778 6.01254C7.02597 5.95536 7.86216 5.96355 8.52699 6.01254C8.4684 6.53814 8.29328 7.04404 8.01438 7.49338C7.73549 7.94272 7.35985 8.32417 6.91485 8.60992Z" fill="black"/>
</g>
<defs>
<clipPath id="clip0_201_11489">
<rect width="9.75902" height="9.75902" fill="white" transform="translate(0.111816 0.739502)"/>
</clipPath>
</defs>
</svg>
