<svg width="11" height="10" viewBox="0 0 11 10" fill="none" xmlns="http://www.w3.org/2000/svg">
<g clip-path="url(#clip0_201_11667)">
<path d="M4.91436 9.29793V8.60374C3.39962 8.51645 2.47937 7.73611 2.47461 6.55321H3.84697C3.88071 7.05526 4.30176 7.43857 4.91436 7.50624V5.6383L4.40411 5.50487C3.24142 5.2346 2.61928 4.56347 2.61928 3.55917C2.61928 2.37532 3.46728 1.59898 4.91436 1.48309V0.758789H5.5243V1.48309C6.9994 1.60317 7.79251 2.39304 7.81157 3.50351H6.43921C6.42473 3.04492 6.13748 2.67647 5.5243 2.62673V4.3803L6.11175 4.51906C7.34669 4.78934 7.96406 5.42863 7.96406 6.47696C7.96406 7.70332 7.13035 8.4951 5.5243 8.59879V9.29793H4.91436ZM4.91436 4.26594V2.62673C4.38848 2.6557 4.01337 2.97878 4.01337 3.43737C4.01337 3.86242 4.32577 4.14033 4.91436 4.26594ZM5.5243 5.75266V7.50624C6.25146 7.47688 6.59894 7.14561 6.59894 6.63383C6.59894 6.16532 6.25146 5.84987 5.5243 5.75266Z" fill="black"/>
</g>
<defs>
<clipPath id="clip0_201_11667">
<rect width="9.75902" height="9.75902" fill="white" transform="translate(0.339844 0.148926)"/>
</clipPath>
</defs>
</svg>
