<svg width="10" height="10" viewBox="0 0 10 10" fill="none" xmlns="http://www.w3.org/2000/svg">
<g clip-path="url(#clip0_201_11609)">
<path d="M8.92186 5.93566C8.98466 5.65312 9.01599 5.3645 9.01526 5.07507C9.01526 2.85794 7.19135 1.059 4.94029 1.059C4.70708 1.05884 4.47426 1.07796 4.2442 1.11619C3.86799 0.881327 3.43313 0.757448 2.98963 0.7588C1.68627 0.7588 0.627454 1.8018 0.627454 3.08705C0.626067 3.5022 0.73811 3.90983 0.951484 4.26595C0.896915 4.53156 0.869328 4.80201 0.869142 5.07316C0.869142 7.29258 2.69305 9.08923 4.94182 9.08923C5.1917 9.08986 5.4411 9.06753 5.6869 9.02252C6.03142 9.20395 6.41504 9.29849 6.80442 9.29794C8.11007 9.29794 9.1666 8.25495 9.1666 6.96969C9.16878 6.61041 9.08486 6.25584 8.92186 5.93566ZM7.03181 6.99161C6.84273 7.25389 6.56464 7.46298 6.20439 7.60975C5.84415 7.75651 5.41852 7.83028 4.92924 7.83028C4.34427 7.83028 3.85498 7.72792 3.47015 7.52779C3.20337 7.38739 2.9733 7.1863 2.79845 6.94072C2.62481 6.69617 2.53809 6.45163 2.53809 6.21642C2.53809 6.06965 2.59527 5.9429 2.70715 5.83616C2.81847 5.7338 2.96295 5.68043 3.13202 5.68043C3.27211 5.68043 3.39219 5.72046 3.49016 5.8028C3.58356 5.88057 3.66362 5.99627 3.72804 6.14742C3.79049 6.29218 3.86934 6.4293 3.96306 6.55608C4.04337 6.66053 4.15684 6.74726 4.30348 6.81625C4.45253 6.88525 4.65038 6.92071 4.89436 6.92071C5.23021 6.92071 5.50601 6.84961 5.71282 6.70952C5.91753 6.5738 6.0155 6.40931 6.0155 6.20918C6.0155 6.05135 5.96423 5.9267 5.85749 5.82892C5.74637 5.72656 5.6017 5.64651 5.42157 5.59314C5.23688 5.53596 4.98566 5.47534 4.67421 5.41092C4.25163 5.32191 3.89272 5.21517 3.60681 5.09508C3.31557 4.97271 3.07979 4.80155 2.90615 4.59036C2.73041 4.37459 2.64368 4.10336 2.64368 3.78524C2.6407 3.49122 2.73798 3.20496 2.91949 2.97364C3.1019 2.74015 3.36665 2.55774 3.71146 2.43327C4.04959 2.30881 4.45215 2.24648 4.90579 2.24648C5.27061 2.24648 5.58873 2.28879 5.85558 2.36885C6.12243 2.4489 6.34944 2.56231 6.52956 2.70012C6.70969 2.83793 6.84102 2.9847 6.92545 3.13851C7.00989 3.29233 7.0524 3.44768 7.0524 3.59597C7.0524 3.73816 6.99674 3.86949 6.88543 3.9829C6.83144 4.03907 6.76643 4.08348 6.69446 4.11333C6.62249 4.14318 6.54513 4.15783 6.46724 4.15635C6.31609 4.15635 6.1981 4.12071 6.11595 4.04961C6.03971 3.9829 5.96023 3.88054 5.8735 3.73149C5.77114 3.5426 5.64878 3.39126 5.50868 3.28452C5.37068 3.18235 5.14386 3.12898 4.82803 3.12898C4.53659 3.12898 4.29871 3.18617 4.12278 3.30053C3.95372 3.40956 3.87138 3.53631 3.87138 3.68517C3.86928 3.77046 3.89858 3.85356 3.95372 3.91866C4.0208 3.99585 4.10342 4.05801 4.19617 4.10107C4.30061 4.15358 4.41014 4.19528 4.52306 4.22554C4.63742 4.2568 4.82555 4.3035 5.08592 4.36125C5.41719 4.43025 5.71968 4.5103 5.98672 4.59246C6.25814 4.67918 6.49163 4.78306 6.68281 4.906C6.87269 5.02588 7.03069 5.18997 7.14332 5.38423C7.25234 5.57484 7.308 5.81557 7.308 6.09138C7.32011 6.41402 7.22278 6.73128 7.03181 6.99161Z" fill="black"/>
</g>
<defs>
<clipPath id="clip0_201_11609">
<rect width="9.75902" height="9.75902" fill="white" transform="translate(0.0175781 0.148926)"/>
</clipPath>
</defs>
</svg>
