<svg width="10" height="10" viewBox="0 0 10 10" fill="none" xmlns="http://www.w3.org/2000/svg">
<g clip-path="url(#clip0_201_11537)">
<path d="M4.88945 3.0824C4.50455 3.0824 4.12829 3.19653 3.80826 3.41037C3.48823 3.62421 3.23879 3.92815 3.0915 4.28375C2.9442 4.63935 2.90566 5.03064 2.98075 5.40815C3.05584 5.78565 3.24119 6.13241 3.51336 6.40457C3.78552 6.67674 4.13228 6.86209 4.50978 6.93718C4.88729 7.01227 5.27858 6.97373 5.63418 6.82643C5.98978 6.67914 6.29372 6.4297 6.50756 6.10967C6.7214 5.78964 6.83553 5.41338 6.83553 5.02848C6.83488 4.51255 6.62963 4.01794 6.26481 3.65312C5.89999 3.2883 5.40538 3.08305 4.88945 3.0824Z" fill="black"/>
<path d="M7.68357 3.25521C8.17328 3.25521 8.57027 2.85822 8.57027 2.36851C8.57027 1.8788 8.17328 1.48181 7.68357 1.48181C7.19386 1.48181 6.79688 1.8788 6.79688 2.36851C6.79688 2.85822 7.19386 3.25521 7.68357 3.25521Z" fill="black"/>
<path d="M8.77489 3.25967L8.73772 3.17809L8.67844 3.24518C8.53321 3.41011 8.34949 3.5366 8.1436 3.61343L8.08642 3.6344L8.10968 3.69025C8.28689 4.11412 8.37786 4.56906 8.37729 5.02849C8.37729 6.95209 6.81241 8.51658 4.8892 8.51658C2.96599 8.51658 1.40111 6.95209 1.40111 5.02849C1.40111 3.1049 2.96561 1.5404 4.8892 1.5404C5.4065 1.53932 5.91742 1.65463 6.38412 1.87778L6.43883 1.90256L6.46265 1.8469C6.54954 1.64512 6.68479 1.46785 6.85644 1.33074L6.92639 1.27489L6.84691 1.23543C6.24233 0.921004 5.57065 0.757515 4.8892 0.75892C2.53503 0.75892 0.619629 2.67432 0.619629 5.02849C0.619629 7.38267 2.53503 9.29806 4.8892 9.29806C7.24337 9.29806 9.15877 7.38267 9.15877 5.02849C9.15977 4.41811 9.02882 3.81472 8.77489 3.25967Z" fill="black"/>
</g>
<defs>
<clipPath id="clip0_201_11537">
<rect width="9.75902" height="9.75902" fill="white" transform="translate(0.00976562 0.148926)"/>
</clipPath>
</defs>
</svg>
