<svg width="11" height="10" viewBox="0 0 11 10" fill="none" xmlns="http://www.w3.org/2000/svg">
<g clip-path="url(#clip0_201_11607)">
<path d="M10.3629 6.40204C10.3349 6.17484 10.2198 5.97775 10.0198 5.81554C10.0173 5.81252 10.0146 5.80971 10.0116 5.80716L10.0015 5.79991L9.99828 5.79763L9.89211 5.72139L9.88849 5.71872L9.87496 5.70919C9.86999 5.70629 9.86468 5.70405 9.85914 5.70252C9.52329 5.50257 8.96729 5.36247 8.11662 5.66268C7.91362 5.32111 7.89056 5.0474 8.02646 4.62807C8.05067 4.55507 8.02818 4.50684 7.95575 4.47559C7.81012 4.41364 7.61075 4.44528 7.46932 4.48264C7.40337 4.49979 7.36373 4.53715 7.35115 4.59376C7.26156 5.01309 7.00119 5.39621 6.7494 5.76599L6.73454 5.78772C6.57938 5.45873 6.6116 5.20389 6.71967 4.88463C6.74121 4.82096 6.72424 4.77865 6.66458 4.74701C6.49799 4.66104 6.24811 4.72013 6.14861 4.74949C6.02243 4.78627 5.8871 5.12727 5.73595 5.53554C5.69783 5.63828 5.66505 5.72615 5.64541 5.76713C5.59872 5.86243 5.55411 5.97108 5.50684 6.0864C5.4001 6.34733 5.27983 6.64106 5.1079 6.82556C5.04539 6.68738 5.14374 6.46951 5.23923 6.25813C5.35226 6.00825 5.459 5.77209 5.33606 5.62132C5.31662 5.59748 5.2925 5.57788 5.26519 5.56372C5.23789 5.54955 5.20797 5.54113 5.17729 5.53898C5.13725 5.53593 5.09707 5.54246 5.06006 5.55804C5.07283 5.45034 5.07341 5.36533 5.04196 5.2626C4.99697 5.11602 4.88013 5.03387 4.71926 5.03825C4.35292 5.04893 4.04299 5.32188 3.84724 5.54908C3.71686 5.70156 3.42791 5.81783 3.17421 5.91981C3.07395 5.96231 2.97865 6.00043 2.89916 6.03855C2.77241 5.93143 2.61135 5.82336 2.44171 5.70919C1.9652 5.38935 1.42521 5.02663 1.40653 4.53486C1.37985 3.80846 2.20707 3.29326 2.92909 2.92558C3.47632 2.64729 3.95207 2.46279 4.3836 2.36196C4.98973 2.22034 5.5017 2.24893 5.90502 2.44659C6.12574 2.55466 6.22905 2.78968 6.16348 3.03136C5.99194 3.65941 5.28117 4.0898 4.67332 4.28345C4.30717 4.40011 3.99553 4.4489 3.72029 4.43289C3.3753 4.41288 3.09358 4.23981 2.97312 4.16604C2.95382 4.15286 2.93341 4.14138 2.91213 4.13173L2.9066 4.1304C2.89569 4.12768 2.88425 4.12803 2.87352 4.13139C2.86279 4.13475 2.8532 4.141 2.84579 4.14946C2.82102 4.179 2.82978 4.2257 2.83874 4.24934C2.95597 4.55564 3.19803 4.7491 3.55809 4.82439C3.67593 4.84799 3.79587 4.85942 3.91605 4.85851C4.75872 4.85851 5.83392 4.37266 6.22886 3.97258C6.49818 3.70001 6.69432 3.41982 6.77552 2.93663C6.86034 2.43057 6.51724 2.07891 6.16767 1.91689C5.31814 1.52482 4.3533 1.67978 3.69342 1.87877C2.92147 2.1115 2.12283 2.53465 1.5026 3.04013C0.737885 3.66284 0.461506 4.24095 0.680703 4.76035C0.905809 5.29271 1.45475 5.6257 1.98559 5.94782C2.15714 6.0517 2.32029 6.15063 2.46725 6.25279C2.42303 6.27433 2.37786 6.29625 2.33192 6.31817C1.88629 6.53413 1.3808 6.77715 1.10042 7.17876C0.89685 7.47134 0.858729 7.76258 0.987197 8.04449C1.05582 8.1945 1.1778 8.29628 1.34725 8.34698C1.4354 8.37195 1.52668 8.38409 1.61829 8.38301C1.94823 8.38301 2.31134 8.24958 2.50899 8.12626C2.85818 7.90706 3.08443 7.61277 3.18164 7.25157C3.26818 6.93021 3.2474 6.61094 3.1216 6.32599L3.54951 6.11022C3.34309 6.7964 3.50129 7.2062 3.67512 7.43226C3.73916 7.51556 3.85467 7.56569 3.98371 7.56797C4.11275 7.57026 4.2315 7.52166 4.29859 7.43893C4.42554 7.28168 4.51931 7.09775 4.60566 6.91382C4.60108 7.0339 4.6068 7.1555 4.64778 7.25862C4.68457 7.35145 4.74518 7.41301 4.82333 7.43665C4.90643 7.462 5.00383 7.44065 5.09761 7.37661C5.52019 7.08746 5.80914 6.39346 6.0413 5.83556C6.07428 5.75627 6.10592 5.68002 6.1366 5.60874C6.19404 5.81429 6.27394 6.01289 6.37486 6.20095C6.39735 6.24174 6.39545 6.25966 6.36495 6.2932C6.31902 6.34352 6.25497 6.40433 6.18712 6.46875C5.98164 6.66374 5.72585 6.90714 5.69154 7.12119C5.6782 7.20697 5.73729 7.28512 5.82897 7.30284C6.10477 7.35774 6.437 7.27749 6.71795 7.08841C6.97336 6.91686 7.06943 6.67766 7.00386 6.37955C6.94039 6.09249 7.08525 5.73606 7.43444 5.3194C7.49162 5.55823 7.56786 5.75131 7.67308 5.92038L7.67022 5.92267C7.41595 6.14472 7.06752 6.44874 7.12166 6.81756C7.1262 6.85263 7.138 6.88638 7.15631 6.91664C7.17463 6.9469 7.19905 6.97301 7.22801 6.9933C7.25897 7.0142 7.29392 7.02848 7.33065 7.03523C7.36739 7.04199 7.40512 7.04108 7.44149 7.03256C7.77448 6.96261 8.02513 6.82175 8.20735 6.60237C8.38957 6.38298 8.32305 6.13977 8.26167 5.95107C8.73818 5.82183 9.16247 5.82507 9.5597 5.9606C9.78271 6.03684 9.94262 6.16207 10.0349 6.33495C10.151 6.55243 10.0882 6.75313 9.8578 6.90009C9.78709 6.94527 9.75297 6.9729 9.75087 7.00778C9.75041 7.01588 9.75189 7.02397 9.75521 7.03136C9.75853 7.03876 9.76358 7.04525 9.76993 7.05029C9.79662 7.07221 9.87896 7.11033 10.0652 6.99311C10.2367 6.88541 10.3374 6.73884 10.3631 6.55471C10.3683 6.50395 10.3682 6.45279 10.3629 6.40204ZM2.74382 6.8797L2.74191 6.90409C2.71218 7.18314 2.57037 7.42635 2.31972 7.6284C2.16228 7.75534 1.99131 7.8333 1.83844 7.84817C1.7317 7.85846 1.65413 7.84397 1.608 7.8049C1.5735 7.77574 1.55501 7.73209 1.55082 7.67147C1.51956 7.18581 2.28122 6.7032 2.70989 6.54442C2.74049 6.65338 2.75197 6.76682 2.74382 6.8797ZM4.69467 5.51C4.62415 5.91199 4.41848 6.67079 4.09522 6.96528C4.07978 6.97938 4.06682 6.98434 4.06091 6.98301C4.055 6.98167 4.05042 6.97462 4.04566 6.96394C3.93778 6.71387 3.97761 6.29149 4.14096 5.95964C4.26657 5.70385 4.44593 5.5344 4.64645 5.48313C4.65477 5.48083 4.66336 5.47962 4.67199 5.47951C4.67874 5.47903 4.68546 5.48084 4.69105 5.48465C4.69341 5.48838 4.69495 5.49257 4.69558 5.49694C4.6962 5.50131 4.69589 5.50576 4.69467 5.51ZM6.28604 6.97538C6.22524 7.03885 6.14194 7.03028 6.16157 7.00702L6.47112 6.67842C6.44615 6.79145 6.37239 6.88503 6.28604 6.97538ZM7.57015 6.69119C7.54071 6.70569 7.50886 6.71467 7.47618 6.71768C7.46741 6.5448 7.63496 6.35019 7.80021 6.22039C7.84462 6.4007 7.75371 6.59131 7.57015 6.69119Z" fill="black"/>
</g>
<defs>
<clipPath id="clip0_201_11607">
<rect width="9.75902" height="9.75902" fill="white" transform="translate(0.60791 0.148926)"/>
</clipPath>
</defs>
</svg>
