<svg width="11" height="10" viewBox="0 0 11 10" fill="none" xmlns="http://www.w3.org/2000/svg">
<g clip-path="url(#clip0_201_11592)">
<path d="M6.95517 0.842352C6.60083 0.784026 6.08219 0.757151 5.73014 0.758866C5.40017 0.759248 5.0708 0.787174 4.74547 0.842352C3.87364 0.994836 3.71487 1.31315 3.71487 1.90098V2.58868H5.84965V2.89365H3.02144C2.22928 2.89365 1.58637 3.84039 1.58008 5.01166C1.58008 5.01719 1.58008 5.02272 1.58008 5.02844C1.57981 5.23322 1.59979 5.43753 1.63974 5.63838C1.81681 6.5205 2.36843 7.16322 3.02144 7.16322H3.4099V6.13395C3.4099 5.53736 3.80712 4.99127 4.45823 4.87405L4.64636 4.8506H6.95517C7.05214 4.85098 7.14871 4.83816 7.24222 4.81248C7.45601 4.75539 7.64484 4.62903 7.77914 4.45316C7.91345 4.2773 7.98565 4.06186 7.98444 3.84058V1.90098C7.98444 1.34974 7.51402 0.934033 6.95517 0.842352ZM4.68562 2.15982C4.60872 2.16008 4.53347 2.1375 4.46941 2.09494C4.40536 2.05238 4.35539 1.99176 4.32584 1.92075C4.29628 1.84975 4.28848 1.77158 4.30342 1.69614C4.31836 1.6207 4.35537 1.55139 4.40975 1.49701C4.46413 1.44263 4.53343 1.40563 4.60887 1.39069C4.68431 1.37575 4.76249 1.38355 4.83349 1.4131C4.90449 1.44266 4.96511 1.49263 5.00767 1.55668C5.05024 1.62073 5.07282 1.69599 5.07255 1.77289C5.07258 1.82371 5.06259 1.87404 5.04315 1.92099C5.02371 1.96795 4.99521 2.01061 4.95928 2.04655C4.92334 2.08248 4.88068 2.11098 4.83372 2.13042C4.78677 2.14985 4.73644 2.15984 4.68562 2.15982Z" fill="black"/>
<path d="M10.0292 4.2851C9.82529 3.47293 9.29712 2.89368 8.67784 2.89368H8.34028V3.7981C8.34028 4.55233 7.8447 5.09841 7.23972 5.192C7.17861 5.20148 7.11686 5.20625 7.05502 5.2063H4.74564C4.64768 5.2062 4.55012 5.2187 4.45535 5.24347C4.03011 5.35516 3.71484 5.70893 3.71484 6.16771V8.10751C3.71484 8.66027 4.27027 8.9843 4.81521 9.14269C5.46727 9.33234 6.17766 9.36665 6.958 9.14269C7.47626 8.99459 7.98442 8.69515 7.98442 8.10751V7.46822H5.84963V7.16325H8.67784C9.23898 7.16325 9.72522 6.68807 9.96348 5.99464C10.0681 5.68333 10.1207 5.35689 10.1192 5.02846C10.1197 4.77793 10.0895 4.52827 10.0292 4.2851ZM7.00299 7.84943C7.07989 7.84917 7.15514 7.87175 7.21919 7.91431C7.28325 7.95687 7.33322 8.01749 7.36277 8.08849C7.39232 8.15949 7.40013 8.23767 7.38519 8.31311C7.37025 8.38855 7.33324 8.45786 7.27886 8.51224C7.22448 8.56662 7.15518 8.60362 7.07974 8.61856C7.0043 8.6335 6.92612 8.6257 6.85512 8.59615C6.78412 8.56659 6.7235 8.51662 6.68093 8.45257C6.63837 8.38851 6.61579 8.31326 6.61606 8.23636C6.61603 8.18554 6.62602 8.13521 6.64546 8.08826C6.66489 8.0413 6.69339 7.99864 6.72933 7.9627C6.76526 7.92677 6.80793 7.89827 6.85488 7.87883C6.90184 7.8594 6.95217 7.8494 7.00299 7.84943Z" fill="black"/>
</g>
<defs>
<clipPath id="clip0_201_11592">
<rect width="9.75902" height="9.75902" fill="white" transform="translate(0.970215 0.148926)"/>
</clipPath>
</defs>
</svg>
