<svg width="10" height="11" viewBox="0 0 10 11" fill="none" xmlns="http://www.w3.org/2000/svg">
<g clip-path="url(#clip0_201_11505)">
<path fill-rule="evenodd" clip-rule="evenodd" d="M9.3077 5.64482C9.3077 3.28702 7.39592 1.37524 5.03813 1.37524C2.68033 1.37524 0.768555 3.28702 0.768555 5.64482C0.768555 7.77579 2.32962 9.54213 4.37101 9.86273V6.87937H3.28665V5.64482H4.37101V4.70418C4.37101 3.6343 5.00858 3.04285 5.98372 3.04285C6.4509 3.04285 6.93961 3.12634 6.93961 3.12634V4.17715H6.40096C5.87088 4.17715 5.70506 4.50614 5.70506 4.84427V5.64482H6.8891L6.70002 6.87937H5.70525V9.86311C7.74663 9.54271 9.3077 7.77636 9.3077 5.64482Z" fill="black"/>
</g>
<defs>
<clipPath id="clip0_201_11505">
<rect width="9.75902" height="9.75902" fill="white" transform="translate(0.158691 0.739502)"/>
</clipPath>
</defs>
</svg>
