<svg width="11" height="11" viewBox="0 0 11 11" fill="none" xmlns="http://www.w3.org/2000/svg">
<g clip-path="url(#clip0_201_11507)">
<path d="M6.97249 4.09425C7.37691 4.09425 7.76476 3.9336 8.05072 3.64763C8.33668 3.36167 8.49734 2.97382 8.49734 2.5694C8.49734 2.16499 8.33668 1.77714 8.05072 1.49117C7.76476 1.20521 7.37691 1.04456 6.97249 1.04456H3.9228C3.51838 1.04456 3.13053 1.20521 2.84457 1.49117C2.5586 1.77714 2.39795 2.16499 2.39795 2.5694C2.39795 2.97382 2.5586 3.36167 2.84457 3.64763C3.13053 3.9336 3.51838 4.09425 3.9228 4.09425C3.51838 4.09425 3.13053 4.2549 2.84457 4.54087C2.5586 4.82683 2.39795 5.21468 2.39795 5.6191C2.39795 6.02351 2.5586 6.41136 2.84457 6.69733C3.13053 6.98329 3.51838 7.14394 3.9228 7.14394C3.62121 7.14394 3.3264 7.23337 3.07564 7.40093C2.82488 7.56848 2.62943 7.80663 2.51402 8.08526C2.39861 8.36389 2.36841 8.67048 2.42725 8.96627C2.48609 9.26207 2.63131 9.53377 2.84457 9.74702C3.05782 9.96027 3.32952 10.1055 3.62531 10.1643C3.92111 10.2232 4.2277 10.193 4.50633 10.0776C4.78496 9.96215 5.02311 9.76671 5.19066 9.51595C5.35821 9.26519 5.44764 8.97038 5.44764 8.66879V4.09425H6.97249Z" fill="black"/>
<path d="M6.9726 7.14393C7.81475 7.14393 8.49745 6.46124 8.49745 5.61909C8.49745 4.77694 7.81475 4.09424 6.9726 4.09424C6.13045 4.09424 5.44775 4.77694 5.44775 5.61909C5.44775 6.46124 6.13045 7.14393 6.9726 7.14393Z" fill="black"/>
</g>
<defs>
<clipPath id="clip0_201_11507">
<rect width="9.75902" height="9.75902" fill="white" transform="translate(0.568359 0.739502)"/>
</clipPath>
</defs>
</svg>
