<svg width="10" height="11" viewBox="0 0 10 11" fill="none" xmlns="http://www.w3.org/2000/svg">
<path d="M7.38709 1.34949H2.84648C2.21996 1.34949 2.03564 1.82219 2.03564 2.11973V9.35589C2.03564 9.69116 2.2152 9.81563 2.31622 9.85661C2.41724 9.89759 2.69571 9.93285 2.86268 9.739C2.86268 9.739 5.00643 7.24416 5.04321 7.20719C5.09887 7.15134 5.09887 7.15134 5.15453 7.15134H6.54157C7.12444 7.15134 7.21803 6.73448 7.27902 6.48898C7.32953 6.28332 7.89811 3.36305 8.08814 2.43747C8.233 1.7307 8.05383 1.34949 7.38709 1.34949ZM7.27902 6.48898C7.32953 6.28332 7.89811 3.36305 8.08814 2.43747L7.27902 6.48898ZM7.11891 2.58214L6.92831 3.56814C6.90562 3.67583 6.77048 3.78924 6.64507 3.78924H4.81677C4.61778 3.78924 4.4754 3.90627 4.4754 4.10565V4.36201C4.4754 4.56158 4.61874 4.70301 4.81849 4.70301H6.3786C6.51927 4.70301 6.65707 4.85759 6.62639 5.00798C6.5957 5.15836 6.45313 5.89563 6.43578 5.97797C6.41844 6.06031 6.32447 6.20136 6.15731 6.20136H4.93285C4.70984 6.20136 4.64237 6.23071 4.49313 6.41674C4.34388 6.60278 3.00144 8.21969 3.00144 8.21969C2.98791 8.23531 2.97457 8.23074 2.97457 8.21378V2.56746C2.97457 2.43994 3.08512 2.29051 3.25057 2.29051H6.89381C6.92912 2.29128 6.96382 2.29994 6.99536 2.31587C7.02689 2.33179 7.05446 2.35457 7.07604 2.38253C7.09763 2.4105 7.11268 2.44294 7.1201 2.47748C7.12752 2.51201 7.12711 2.54777 7.11891 2.58214Z" fill="black"/>
</svg>
