<svg width="11" height="10" viewBox="0 0 11 10" fill="none" xmlns="http://www.w3.org/2000/svg">
<g clip-path="url(#clip0_201_11552)">
<path d="M9.61531 3.45762C9.61531 1.47284 8.31423 0.891107 8.31423 0.891107C7.65778 0.590141 6.5313 0.463388 5.36098 0.453857H5.3322C4.16188 0.463388 3.03616 0.590141 2.3801 0.891107C2.3801 0.891107 1.07883 1.47284 1.07883 3.45762C1.07883 3.91221 1.07006 4.45544 1.08436 5.03183C1.13163 6.97258 1.44041 8.88569 3.23611 9.36068C4.06391 9.57969 4.77487 9.62543 5.34726 9.59398C6.38549 9.5368 6.96741 9.22382 6.96741 9.22382L6.93329 8.47093C6.93329 8.47093 6.19126 8.7048 5.35813 8.67621C4.53261 8.648 3.66173 8.5872 3.52831 7.57432C3.51544 7.4802 3.50907 7.38531 3.50925 7.29032C4.11339 7.42518 4.72813 7.50714 5.3465 7.53525C5.97455 7.56403 6.56333 7.49846 7.16145 7.42717C8.30851 7.29032 9.30729 6.58393 9.43271 5.93873C9.63132 4.92204 9.61531 3.45762 9.61531 3.45762ZM8.08017 6.01478H7.12714V3.68234C7.12714 3.19058 6.92014 2.94107 6.50614 2.94107C6.04869 2.94107 5.81882 3.23708 5.81882 3.82243V5.09949H4.87227V3.82243C4.87227 3.23708 4.64354 2.94107 4.18495 2.94107C3.77095 2.94107 3.56395 3.19058 3.56395 3.68234V6.01478H2.61092V3.61162C2.61092 3.1205 2.73641 2.73045 2.98737 2.4415C3.24659 2.15273 3.58587 2.00463 4.0073 2.00463C4.49487 2.00463 4.86407 2.1918 5.10805 2.56653L5.34574 2.96395L5.58304 2.56653C5.82721 2.1918 6.19622 2.00463 6.68379 2.00463C7.10522 2.00463 7.4445 2.15273 7.70372 2.4415C7.95519 2.7302 8.08068 3.12024 8.08017 3.61162V6.01478Z" fill="black"/>
</g>
<defs>
<clipPath id="clip0_201_11552">
<rect width="9.75902" height="9.75902" fill="white" transform="translate(0.466309 0.148926)"/>
</clipPath>
</defs>
</svg>
