<svg width="11" height="10" viewBox="0 0 11 10" fill="none" xmlns="http://www.w3.org/2000/svg">
<g clip-path="url(#clip0_201_11655)">
<path d="M8.14998 2.41062C8.08823 2.3787 8.02811 2.34371 7.96985 2.30578C7.80046 2.19379 7.64514 2.06184 7.50725 1.91275C7.16226 1.51801 7.03341 1.11755 6.98595 0.837166H6.98785C6.94821 0.604436 6.9646 0.453857 6.96708 0.453857H5.39572V6.52999C5.39572 6.61157 5.39572 6.6922 5.39229 6.77187C5.39229 6.78178 5.39134 6.79093 5.39077 6.8016C5.39077 6.80599 5.39077 6.81056 5.38981 6.81514C5.38981 6.81628 5.38981 6.81742 5.38981 6.81857C5.37325 7.03658 5.30337 7.24718 5.18631 7.43184C5.06925 7.6165 4.9086 7.76957 4.7185 7.87757C4.52037 7.99029 4.29629 8.04942 4.06834 8.04912C3.33623 8.04912 2.74287 7.45214 2.74287 6.71488C2.74287 5.97762 3.33623 5.38064 4.06834 5.38064C4.20693 5.38051 4.34466 5.40232 4.47643 5.44525L4.47834 3.84531C4.07833 3.79364 3.67195 3.82543 3.28483 3.93867C2.89772 4.05192 2.53828 4.24416 2.22919 4.50328C1.95835 4.7386 1.73065 5.01938 1.55635 5.33299C1.49002 5.44735 1.23975 5.9069 1.20945 6.65274C1.19039 7.07608 1.31752 7.51466 1.37813 7.69593V7.69974C1.41625 7.80648 1.56397 8.17073 1.80471 8.47779C1.99883 8.72411 2.22818 8.94048 2.48536 9.11994V9.11613L2.48917 9.11994C3.24988 9.63687 4.09331 9.60294 4.09331 9.60294C4.23932 9.59703 4.72841 9.60294 5.28384 9.33971C5.89988 9.04789 6.25059 8.61312 6.25059 8.61312C6.47465 8.35334 6.65281 8.05729 6.77742 7.73767C6.91962 7.36389 6.96708 6.91559 6.96708 6.73642V3.51289C6.98614 3.52433 7.24003 3.69225 7.24003 3.69225C7.24003 3.69225 7.6058 3.9267 8.17647 4.07937C8.58589 4.18802 9.13751 4.21089 9.13751 4.21089V2.65097C8.94423 2.67194 8.55177 2.61094 8.14998 2.41062Z" fill="black"/>
</g>
<defs>
<clipPath id="clip0_201_11655">
<rect width="9.75902" height="9.75902" fill="white" transform="translate(0.292969 0.148926)"/>
</clipPath>
</defs>
</svg>
