<svg width="11" height="10" viewBox="0 0 11 10" fill="none" xmlns="http://www.w3.org/2000/svg">
<g clip-path="url(#clip0_201_11657)">
<path d="M8.1357 0.758789H2.98934C2.05175 0.758789 1.31201 1.49853 1.31201 2.43612V7.58248C1.31201 8.52007 2.05175 9.29793 2.98934 9.29793H8.1357C9.07329 9.29793 9.85115 8.52007 9.85115 7.58248V2.43612C9.85115 1.49853 9.07329 0.758789 8.1357 0.758789ZM7.10643 7.69684H6.11528C5.30501 7.69684 4.74292 7.24549 4.74292 6.24824V4.72339H4.05674V3.80848C4.867 3.59882 5.1613 2.88748 5.20037 2.28364H6.03904V3.656H7.03019V4.72339H6.03904L6.0316 6.06735C6.0316 6.48421 6.24127 6.62831 6.57712 6.62831L7.10643 6.62945V7.69684Z" fill="black"/>
</g>
<defs>
<clipPath id="clip0_201_11657">
<rect width="9.75902" height="9.75902" fill="white" transform="translate(0.702148 0.148926)"/>
</clipPath>
</defs>
</svg>
