<svg width="11" height="11" viewBox="0 0 11 11" fill="none" xmlns="http://www.w3.org/2000/svg">
<path d="M4.43506 5.61765C4.43498 5.871 4.51004 6.11868 4.65074 6.32937C4.79144 6.54006 4.99146 6.70429 5.2255 6.80129C5.45954 6.8983 5.71709 6.92372 5.96558 6.87434C6.21407 6.82496 6.44234 6.703 6.62151 6.52388C6.80068 6.34476 6.92271 6.11653 6.97216 5.86806C7.02162 5.61958 6.99627 5.36202 6.89934 5.12795C6.8024 4.89388 6.63823 4.69381 6.42758 4.55305C6.21694 4.41229 5.96928 4.33716 5.71593 4.33716C5.37657 4.33806 5.05135 4.47325 4.81135 4.71318C4.57135 4.95311 4.43606 5.27828 4.43506 5.61765Z" fill="black"/>
<path d="M9.9234 4.89067C9.9234 4.89067 9.9234 4.89067 9.9234 4.89163C9.89216 4.70543 9.84757 4.52172 9.78997 4.34192H9.78788C9.84636 4.5226 9.8914 4.70735 9.92263 4.89468C9.89131 4.70737 9.84627 4.52262 9.78788 4.34192H6.82586C7.18897 4.66595 7.4236 5.10758 7.4236 5.61993C7.42443 5.92018 7.34331 6.21497 7.18897 6.47251L5.23926 9.85901C5.23935 9.86072 5.23935 9.86244 5.23926 9.86415V9.86949V9.86453C5.39752 9.88141 5.55661 9.88943 5.71577 9.88855C5.84615 9.88855 5.97519 9.88112 6.1027 9.86949C6.29373 9.85222 6.48337 9.82204 6.67033 9.77914C8.56876 9.34571 9.98534 7.64703 9.98534 5.61783C9.98537 5.37413 9.96465 5.13086 9.9234 4.89067Z" fill="black"/>
<path d="M5.71609 7.32492C5.07566 7.32492 4.54196 6.98355 4.2429 6.4712L2.28519 3.0849L2.28252 3.08032C1.86008 3.65225 1.58716 4.32062 1.48854 5.02477C1.38991 5.72892 1.46871 6.44655 1.71776 7.11252C1.96682 7.7785 2.37825 8.37173 2.91471 8.83838C3.45118 9.30502 4.09569 9.6303 4.78975 9.78469V9.78374L6.27056 7.21818C6.09351 7.28628 5.90577 7.32242 5.71609 7.32492Z" fill="black"/>
<path d="M2.57659 2.73266L4.05093 5.27248C4.12746 4.887 4.3352 4.53994 4.63878 4.29036C4.94237 4.04078 5.32305 3.90409 5.71606 3.90355H9.62672C9.49229 3.60815 9.32762 3.32748 9.13534 3.06603L9.13762 3.06755C9.32916 3.32853 9.49307 3.6087 9.62672 3.90355H9.62996C9.4964 3.60782 9.33249 3.32675 9.14086 3.06488C9.13851 3.06342 9.13628 3.06176 9.13419 3.05993C8.75854 2.55773 8.27684 2.14448 7.72335 1.84958C7.16986 1.55468 6.55818 1.38537 5.93183 1.35371C5.30548 1.32205 4.67985 1.4288 4.09944 1.66638C3.51903 1.90395 2.99811 2.26652 2.57373 2.72827L2.5764 2.73285L2.57659 2.73266Z" fill="black"/>
</svg>
