<svg width="11" height="11" viewBox="0 0 11 11" fill="none" xmlns="http://www.w3.org/2000/svg">
<path d="M5.44047 1.34937C3.08191 1.34937 1.1709 3.26038 1.1709 5.61894C1.1709 7.97749 3.08191 9.88851 5.44047 9.88851C7.79903 9.88851 9.71004 7.97749 9.71004 5.61894C9.71004 3.26038 7.79903 1.34937 5.44047 1.34937ZM3.82032 7.48478C3.79412 7.52946 3.75662 7.56647 3.71158 7.59206C3.66654 7.61766 3.61556 7.63095 3.56376 7.63059C3.51097 7.63105 3.45909 7.61679 3.41395 7.58942C3.38034 7.56994 3.3509 7.54402 3.32733 7.51313C3.30376 7.48225 3.28653 7.44702 3.27661 7.40945C3.26669 7.37189 3.26429 7.33274 3.26954 7.29425C3.27479 7.25575 3.28759 7.21868 3.30721 7.18514L3.59865 6.70062C3.61337 6.67562 3.63438 6.65489 3.6596 6.64052C3.68481 6.62614 3.71334 6.61861 3.74236 6.61866H3.78544C3.99682 6.61866 4.14473 6.7458 4.18781 6.86893L3.82032 7.48478ZM6.28771 6.53175L4.37918 6.53384H3.11069C3.07078 6.53401 3.03126 6.52607 2.99451 6.51051C2.95776 6.49494 2.92456 6.47207 2.89691 6.44328C2.86927 6.4145 2.84776 6.3804 2.83369 6.34305C2.81962 6.3057 2.81328 6.26589 2.81506 6.22602C2.82116 6.06591 2.96088 5.94468 3.12003 5.94468H4.03952L5.12959 4.08913L4.77659 3.48777C4.69711 3.35073 4.73237 3.17003 4.86865 3.08388C4.90225 3.06215 4.9399 3.04744 4.97932 3.04063C5.01875 3.03382 5.05915 3.03506 5.09809 3.04426C5.13703 3.05347 5.17371 3.07045 5.20591 3.0942C5.23812 3.11794 5.26519 3.14795 5.28551 3.18242L5.47421 3.50474H5.4763L5.66519 3.18242C5.68553 3.14813 5.71256 3.11828 5.74468 3.09466C5.77679 3.07103 5.81334 3.05412 5.85214 3.04492C5.89093 3.03573 5.93118 3.03444 5.97048 3.04113C6.00979 3.04782 6.04734 3.06236 6.08091 3.08388C6.21643 3.17003 6.25131 3.35073 6.17125 3.48834L5.81825 4.08971L5.47516 4.67468L4.73008 5.94525V5.94735H5.82816C5.96578 5.94735 6.13828 6.02131 6.20804 6.14024L6.21414 6.15263C6.2757 6.25728 6.31059 6.32913 6.31059 6.43378C6.30958 6.46776 6.30201 6.50122 6.28828 6.53232L6.28771 6.53175ZM7.76967 6.53384H7.25294V6.53594L7.63072 7.17847C7.67135 7.24614 7.68379 7.32706 7.66536 7.40381C7.64693 7.48056 7.5991 7.547 7.53218 7.58885C7.48579 7.61713 7.4325 7.6321 7.37817 7.63212C7.32651 7.63209 7.27573 7.61871 7.23078 7.59326C7.18582 7.56781 7.14822 7.53116 7.12161 7.48687L6.56333 6.53651L6.21643 5.94564L5.76888 5.18054C5.70406 5.0713 5.66883 4.94705 5.66665 4.82003C5.66448 4.69302 5.69545 4.56764 5.75649 4.45624C5.84493 4.30013 5.9126 4.25915 5.9126 4.25915L6.90813 5.94297H7.76415C7.92425 5.94297 8.06168 6.0661 8.06912 6.22411C8.07066 6.26428 8.06406 6.30435 8.04973 6.34191C8.03539 6.37947 8.01361 6.41375 7.9857 6.44268C7.95778 6.47161 7.92431 6.4946 7.88728 6.51026C7.85026 6.52593 7.81045 6.53395 7.77025 6.53384H7.76967Z" fill="black"/>
</svg>
