<svg width="10" height="11" viewBox="0 0 10 11" fill="none" xmlns="http://www.w3.org/2000/svg">
<g clip-path="url(#clip0_201_11441)">
<path d="M0.778758 3.58422L4.54132 5.40107C4.63929 5.44777 4.77004 5.47217 4.89947 5.47217C5.02889 5.47217 5.15964 5.44777 5.25742 5.40107L9.01998 3.58422C9.21783 3.48892 9.21783 3.333 9.01998 3.23732L5.25742 1.42046C5.15964 1.37376 5.0287 1.34937 4.89947 1.34937C4.77023 1.34937 4.63929 1.37376 4.54132 1.42046L0.778758 3.23732C0.580909 3.333 0.580909 3.48853 0.778758 3.58422Z" fill="black"/>
<path d="M9.02006 5.44549C9.02006 5.44549 8.33292 5.11422 8.24181 5.06961C8.1507 5.02501 8.12611 5.02749 8.03043 5.0719C7.93475 5.11631 5.25521 6.41053 5.25521 6.41053C5.14226 6.45929 5.02027 6.48359 4.89725 6.48181C4.76821 6.48181 4.63707 6.45722 4.53929 6.41053C4.53929 6.41053 1.93085 5.15253 1.80848 5.09191C1.67601 5.02806 1.63789 5.02806 1.51724 5.08524L0.773875 5.4432C0.576026 5.5385 0.576026 5.69461 0.773875 5.7901L4.53701 7.60696C4.63479 7.65366 4.76573 7.67806 4.89496 7.67806C5.0242 7.67806 5.15514 7.65366 5.25311 7.60696L9.01567 5.79049C9.21791 5.69671 9.21791 5.54117 9.02006 5.44549Z" fill="black"/>
<path d="M9.02006 7.65368C9.02006 7.65368 8.33292 7.32241 8.24181 7.27723C8.1507 7.23206 8.12612 7.23511 8.03043 7.27952C7.93475 7.32393 5.2575 8.621 5.2575 8.621C5.14453 8.66969 5.02254 8.69392 4.89954 8.6921C4.7705 8.6921 4.63936 8.6677 4.54139 8.621C4.54139 8.621 1.93295 7.363 1.81077 7.30239C1.67735 7.23778 1.63923 7.23778 1.51933 7.29572L0.775971 7.65368C0.577932 7.74898 0.577932 7.9049 0.775971 8.00058L4.53853 9.81744C4.63631 9.86623 4.76726 9.88853 4.89649 9.88853C5.02572 9.88853 5.15667 9.86413 5.25445 9.81744L9.01777 8.00153C9.21791 7.9049 9.21791 7.74936 9.02006 7.65368Z" fill="black"/>
</g>
<defs>
<clipPath id="clip0_201_11441">
<rect width="9.75902" height="9.75902" fill="white" transform="translate(0.0175781 0.739502)"/>
</clipPath>
</defs>
</svg>
