<svg width="10" height="10" viewBox="0 0 10 10" fill="none" xmlns="http://www.w3.org/2000/svg">
<g clip-path="url(#clip0_201_11570)">
<path d="M8.29583 2.62819L5.33324 0.85136C5.22683 0.790693 5.10645 0.758789 4.98396 0.758789C4.86146 0.758789 4.74108 0.790693 4.63467 0.85136L1.67189 2.628C1.56512 2.69343 1.47703 2.78529 1.41613 2.8947C1.35523 3.00412 1.32358 3.12739 1.32423 3.25261V6.80112C1.32359 6.92642 1.35524 7.04977 1.41614 7.15927C1.47703 7.26878 1.56512 7.36075 1.67189 7.42631L2.4488 7.89024L2.45319 7.89272C2.84545 8.09343 2.99565 8.09343 3.16967 8.09343C3.78228 8.09343 4.16292 7.69697 4.16292 7.05863V3.618C4.16328 3.57505 4.14658 3.53371 4.11649 3.50305C4.08641 3.47239 4.04539 3.45492 4.00243 3.45446H3.57586C3.5329 3.45492 3.49188 3.47239 3.46179 3.50305C3.43171 3.53371 3.41501 3.57505 3.41537 3.618V7.05863C3.41692 7.10789 3.40571 7.15671 3.38284 7.20036C3.35996 7.24401 3.32619 7.281 3.2848 7.30775C3.17234 7.37637 3.00899 7.36188 2.82468 7.26677L2.08017 6.81866C2.07732 6.81671 2.075 6.8141 2.0734 6.81104C2.0718 6.80798 2.07099 6.80457 2.07102 6.80112V3.30274C2.07114 3.29872 2.07223 3.29479 2.07419 3.29127C2.07614 3.28776 2.07891 3.28476 2.08227 3.28254L4.97643 1.5099C4.97859 1.50883 4.98097 1.50827 4.98338 1.50827C4.9858 1.50827 4.98818 1.50883 4.99034 1.5099L7.88622 3.28254C7.88951 3.28494 7.89218 3.2881 7.89401 3.29175C7.89583 3.2954 7.89675 3.29943 7.8967 3.3035V6.80112C7.89677 6.80474 7.89604 6.80832 7.89456 6.81162C7.89307 6.81491 7.89087 6.81784 7.88812 6.82018L4.98977 8.54802C4.98483 8.54974 4.97946 8.54974 4.97452 8.54802L4.2344 8.10849C4.21243 8.09413 4.18704 8.08584 4.16083 8.08447C4.13462 8.08309 4.10851 8.08868 4.08515 8.10067L4.07867 8.10449C3.87434 8.22552 3.81945 8.25697 3.62999 8.32597C3.59911 8.33721 3.52649 8.36409 3.5202 8.43595C3.51391 8.50781 3.58291 8.55889 3.64428 8.59453L4.63353 9.20199C4.73893 9.26513 4.85947 9.29853 4.98234 9.29863H4.99339C5.11319 9.29675 5.23038 9.26343 5.33324 9.20199L8.29583 7.42688C8.40255 7.36112 8.49057 7.26903 8.55146 7.15945C8.61234 7.04987 8.64403 6.92648 8.64349 6.80112V3.25261C8.64409 3.12743 8.61242 3.0042 8.55152 2.89482C8.49062 2.78545 8.40256 2.69361 8.29583 2.62819Z" fill="black"/>
<path d="M5.97285 6.21119C5.26208 6.21119 5.11055 6.01258 5.06556 5.69198C5.0605 5.65381 5.0419 5.61873 5.01314 5.59312C4.98438 5.56751 4.94739 5.55308 4.90889 5.55246H4.53149C4.48895 5.55336 4.44851 5.57107 4.419 5.60172C4.38949 5.63237 4.37333 5.67346 4.37405 5.716C4.37405 5.9939 4.47164 6.90099 5.97361 6.90099C6.43831 6.90099 6.82486 6.79235 7.09113 6.58668C7.35741 6.38102 7.49998 6.08177 7.49998 5.72515C7.49998 5.00942 7.033 4.81348 6.11332 4.68539C5.1784 4.5554 5.1784 4.48926 5.1784 4.3444C5.1784 4.24014 5.1784 3.99597 5.85429 3.99597C6.33519 3.99597 6.5927 4.05677 6.67504 4.37718C6.68233 4.4127 6.70154 4.44467 6.72948 4.46779C6.75741 4.49091 6.79241 4.5038 6.82867 4.50432H7.2074C7.22972 4.50409 7.25174 4.49912 7.27199 4.48972C7.29223 4.48032 7.31024 4.46671 7.32482 4.4498C7.35393 4.41581 7.36846 4.3717 7.36522 4.32705C7.31624 3.64945 6.82085 3.30579 5.85486 3.30579C4.97693 3.30579 4.45296 3.70129 4.45296 4.36365C4.45296 5.08986 4.99599 5.29514 5.81179 5.38015C6.76482 5.47869 6.76482 5.62241 6.76482 5.74935C6.76539 5.9472 6.68324 6.21119 5.97285 6.21119Z" fill="black"/>
</g>
<defs>
<clipPath id="clip0_201_11570">
<rect width="9.75902" height="9.75902" fill="white" transform="translate(0.104492 0.148926)"/>
</clipPath>
</defs>
</svg>
