<svg width="11" height="11" viewBox="0 0 11 11" fill="none" xmlns="http://www.w3.org/2000/svg">
<path d="M5.49467 1.34949C3.13687 1.34949 1.2251 3.31082 1.2251 5.7277C1.2251 7.66235 2.44879 9.30156 4.14518 9.88101C4.16897 9.88618 4.19326 9.88873 4.21761 9.88863C4.37581 9.88863 4.43681 9.77236 4.43681 9.67134C4.43681 9.56651 4.43299 9.29203 4.43109 8.92607C4.28986 8.95918 4.14538 8.97644 4.00032 8.97753C3.17881 8.97753 2.99201 8.339 2.99201 8.339C2.7976 7.8339 2.51741 7.69857 2.51741 7.69857C2.14572 7.43744 2.5155 7.42981 2.54409 7.42981H2.546C2.97486 7.46794 3.19977 7.88346 3.19977 7.88346C3.41325 8.25704 3.69916 8.36188 3.95457 8.36188C4.12346 8.3585 4.28973 8.31953 4.44252 8.24751C4.48065 7.96542 4.5912 7.77291 4.71318 7.66235C3.76587 7.5518 2.76901 7.17631 2.76901 5.49898C2.76901 5.02056 2.93483 4.62981 3.2074 4.32485C3.16356 4.21429 3.01679 3.76828 3.24933 3.16596C3.28052 3.1585 3.31258 3.15529 3.34463 3.15643C3.49903 3.15643 3.84783 3.21552 4.42346 3.61579C5.1229 3.4201 5.86263 3.4201 6.56206 3.61579C7.13769 3.21552 7.4865 3.15643 7.64089 3.15643C7.67294 3.15529 7.705 3.1585 7.73619 3.16596C7.96873 3.76828 7.82197 4.21429 7.77813 4.32485C8.05069 4.63172 8.21652 5.02246 8.21652 5.49898C8.21652 7.18012 7.21775 7.5499 6.26662 7.65854C6.41911 7.79387 6.55634 8.06072 6.55634 8.46862C6.55634 9.05378 6.55063 9.52648 6.55063 9.66943C6.55063 9.77236 6.60971 9.88863 6.76792 9.88863C6.79353 9.88874 6.81908 9.88619 6.84416 9.88101C8.54246 9.30156 9.76424 7.66045 9.76424 5.7277C9.76424 3.31082 7.85246 1.34949 5.49467 1.34949Z" fill="black"/>
</svg>
