<svg width="11" height="11" viewBox="0 0 11 11" fill="none" xmlns="http://www.w3.org/2000/svg">
<g clip-path="url(#clip0_201_11512)">
<path d="M9.37357 4.44912V4.44779C9.36937 4.4333 9.36499 4.41882 9.36061 4.40433C9.35965 4.40071 9.35851 4.39709 9.35736 4.39366C9.34917 4.36621 9.34078 4.33876 9.33201 4.31151L9.33087 4.3077C9.27739 4.14154 9.21373 3.97884 9.14027 3.82051C9.06909 3.66369 8.98693 3.5121 8.89438 3.36686C8.53692 2.79263 8.04879 2.31103 7.46979 1.96134C6.80516 1.55991 6.04323 1.3483 5.26677 1.34949C5.13335 1.34949 4.99992 1.35597 4.86993 1.36855C4.41019 1.41697 3.63519 1.58222 3.00638 2.13441C5.29536 0.965612 8.35344 2.37305 8.09327 4.99006C8.00063 5.92403 7.20771 6.5658 6.4695 6.67407C6.3382 6.69413 6.20471 6.69548 6.07303 6.67807C4.27009 6.42742 4.38046 4.94966 4.92826 4.3178C4.20395 4.31322 3.64224 5.20964 3.91519 6.09043C3.28714 4.92431 3.92186 3.09792 5.26715 2.54516C3.68608 2.31644 2.20393 3.08267 1.7276 4.41443C1.78449 3.92764 1.89803 3.44915 2.06593 2.9887C2.06593 2.9887 1.20401 3.66993 1.02827 5.10252C1.0256 5.12463 1.02312 5.14674 1.02084 5.16904C1.01988 5.17667 1.01912 5.18429 1.01836 5.19211C1.01162 5.25882 1.00654 5.32598 1.00311 5.39358C1.00311 5.39872 1.00311 5.40387 1.00311 5.40902C1.00178 5.43723 1.00063 5.4662 0.999869 5.49403V5.51785C0.999869 5.5514 0.998535 5.58495 0.998535 5.61868C0.998535 7.97667 2.91012 9.88826 5.26811 9.88826C7.62609 9.88826 9.53634 7.97705 9.53634 5.61906C9.53655 5.22343 9.48177 4.82968 9.37357 4.44912Z" fill="black"/>
</g>
<defs>
<clipPath id="clip0_201_11512">
<rect width="9.75902" height="9.75902" fill="white" transform="translate(0.387207 0.739502)"/>
</clipPath>
</defs>
</svg>
