<svg width="10" height="11" viewBox="0 0 10 11" fill="none" xmlns="http://www.w3.org/2000/svg">
<g clip-path="url(#clip0_201_11437)">
<path d="M9.40737 1.35378C9.39135 1.35127 9.37518 1.34981 9.35896 1.34939H0.800757C0.637027 1.34711 0.50589 1.48053 0.503602 1.6496C0.502866 1.6675 0.504338 1.68543 0.507986 1.70297L1.75264 9.54163C1.76821 9.63654 1.8152 9.72346 1.88607 9.78847C1.95618 9.85267 2.04775 9.88836 2.14281 9.88854H8.11221C8.18369 9.88865 8.25277 9.86276 8.30656 9.81569C8.36036 9.76863 8.39521 9.7036 8.4046 9.63274L9.14567 4.90743H6.39695L6.04509 7.04222H4.11006L3.61963 4.22125H9.25356L9.64925 1.70526C9.67346 1.53848 9.56577 1.38046 9.40737 1.35378Z" fill="black"/>
</g>
<defs>
<clipPath id="clip0_201_11437">
<rect width="9.75902" height="9.75902" fill="white" transform="translate(0.19873 0.73938)"/>
</clipPath>
</defs>
</svg>
