<svg width="11" height="10" viewBox="0 0 11 10" fill="none" xmlns="http://www.w3.org/2000/svg">
<g clip-path="url(#clip0_201_11637)">
<path d="M8.12687 8.53556V6.24829H8.8893V9.29799H1.875V6.24829H2.63742V8.53556H8.12687Z" fill="black"/>
<path d="M3.49711 6.03419L7.28197 6.81319L7.44208 6.06373L3.65722 5.28473L3.49711 6.03419ZM3.99783 4.25927L7.50212 5.86703L7.82196 5.17627L4.31824 3.55917L3.99783 4.25927ZM4.96897 2.56287L7.94242 4.99844L8.43304 4.41671L5.45959 1.98114L4.96897 2.56287ZM6.90705 0.758789L6.27062 1.21243L8.57352 4.26918L9.19432 3.80848L6.90705 0.758789ZM3.3999 7.77309H7.28826V7.01066H3.3999V7.77309Z" fill="black"/>
</g>
<defs>
<clipPath id="clip0_201_11637">
<rect width="9.75902" height="9.75902" fill="white" transform="translate(0.655273 0.148926)"/>
</clipPath>
</defs>
</svg>
