<svg width="11" height="11" viewBox="0 0 11 11" fill="none" xmlns="http://www.w3.org/2000/svg">
<g clip-path="url(#clip0_201_11701)">
<path d="M2.78886 5.29117C3.54557 4.17422 4.27368 3.52234 4.27368 3.52234C4.27368 3.52234 3.47123 2.59028 2.50486 2.23766L2.44196 2.22241C1.62918 2.93309 1.11563 3.92515 1.0046 4.99909C0.893561 6.07303 1.19327 7.14918 1.84345 8.01111C1.84345 7.92725 1.85489 6.67115 2.78886 5.29117Z" fill="black"/>
<path d="M9.52126 5.43793C9.5217 4.82877 9.39162 4.22658 9.13976 3.67192C8.88791 3.11726 8.52014 2.62299 8.06121 2.22241L8.00022 2.23957C7.03385 2.59219 6.22949 3.52425 6.22949 3.52425C6.22949 3.52425 6.95761 4.17612 7.71431 5.29307C8.64828 6.67306 8.65972 7.92915 8.65781 8.01302C9.21975 7.27232 9.52309 6.36767 9.52126 5.43793Z" fill="black"/>
<path d="M4.20728 2.1004C4.76575 2.35009 5.24798 2.7599 5.24798 2.7599C5.24798 2.7599 5.73403 2.352 6.2925 2.1004C6.99393 1.7859 7.52954 1.88502 7.67058 1.91932C6.9588 1.43018 6.11545 1.16833 5.2518 1.16833C4.38815 1.16833 3.54479 1.43018 2.83301 1.91932C2.97024 1.88502 3.50394 1.78399 4.20728 2.1004Z" fill="black"/>
<path d="M7.20909 6.14135C6.32659 5.0568 5.24776 4.35156 5.24776 4.35156C5.24776 4.35156 4.17465 5.0568 3.29024 6.14135C2.53163 7.07341 2.24953 7.75769 2.09704 8.19608L2.07227 8.28757C2.47271 8.73432 2.96281 9.09166 3.51061 9.33629C4.05841 9.58093 4.65163 9.70736 5.25157 9.70736C5.85152 9.70736 6.44473 9.58093 6.99253 9.33629C7.54034 9.09166 8.03043 8.73432 8.43088 8.28757L8.40419 8.19608C8.25171 7.75769 7.9677 7.07341 7.20909 6.14135Z" fill="black"/>
</g>
<defs>
<clipPath id="clip0_201_11701">
<rect width="9.75902" height="9.75902" fill="white" transform="translate(0.37207 0.55835)"/>
</clipPath>
</defs>
</svg>
