<svg width="11" height="11" viewBox="0 0 11 11" fill="none" xmlns="http://www.w3.org/2000/svg">
<g clip-path="url(#clip0_201_11696)">
<path d="M5.89932 5.72961L5.27413 7.55371H5.27222L4.78809 8.94704C4.82239 8.95657 4.8548 8.9642 4.88911 8.97373H4.89483C5.20261 9.0558 5.51978 9.09745 5.83832 9.09762C5.99719 9.0988 6.15589 9.08733 6.31293 9.06331C6.52308 9.03697 6.73041 8.99167 6.9324 8.92798C6.98196 8.91273 7.03152 8.89558 7.08107 8.87842C7.0277 8.76406 6.91334 8.51055 6.90762 8.49912L5.89932 5.72961Z" fill="black"/>
<path d="M2.50235 3.9989C2.31174 4.42967 2.18213 4.95955 2.18213 5.43798C2.18213 5.55806 2.18785 5.67814 2.19928 5.79631C2.3308 7.15343 3.20759 8.29325 4.41222 8.80598C4.46178 8.82695 4.51324 8.84791 4.5647 8.86698L2.79207 4.00081C2.63958 3.99509 2.61099 4.00462 2.50235 3.9989Z" fill="black"/>
<path d="M9.16216 3.90167C9.08016 3.72513 8.9839 3.55557 8.87435 3.39466C8.84385 3.34892 8.80954 3.30317 8.77714 3.25743C8.36413 2.7031 7.80329 2.27635 7.1589 2.02611C6.73861 1.86171 6.2912 1.77766 5.8399 1.77832C5.2932 1.77834 4.75348 1.90115 4.2606 2.13769C3.76773 2.37423 3.33427 2.71847 2.99225 3.14497C2.86835 3.29855 2.75682 3.46171 2.65869 3.63292C2.92935 3.63483 3.26482 3.63483 3.30294 3.63483C3.64794 3.63483 4.17973 3.59289 4.17973 3.59289C4.3589 3.58146 4.37796 3.84259 4.20069 3.86355C4.20069 3.86355 4.02152 3.88452 3.82329 3.89405L5.0222 7.45838L5.74269 5.29881L5.23187 3.89596C5.0527 3.88643 4.88687 3.86546 4.88687 3.86546C4.7077 3.85593 4.73058 3.58336 4.90593 3.5948C4.90593 3.5948 5.44916 3.63673 5.77319 3.63673C6.11819 3.63673 6.64998 3.5948 6.64998 3.5948C6.82724 3.58336 6.85011 3.84449 6.67095 3.86546C6.67095 3.86546 6.49368 3.88643 6.29545 3.89596L7.48293 7.4336L7.81267 6.33571C7.9785 5.90875 8.06237 5.55613 8.06237 5.27404C8.06237 4.86804 7.9156 4.58595 7.7898 4.36675C7.62397 4.09419 7.46768 3.86546 7.46768 3.5967C7.46768 3.29364 7.6964 3.01154 8.02043 3.01154H8.06237C8.56176 2.9982 8.72568 3.49378 8.74664 3.83115V3.84259C8.75427 3.97982 8.74855 4.08084 8.74855 4.20092C8.74855 4.53258 8.68565 4.90807 8.49886 5.37887L7.75549 7.5289L7.33044 8.78118C7.36475 8.76593 7.39715 8.75069 7.43146 8.73353C8.5122 8.21127 9.2994 7.17056 9.46523 5.93734C9.48981 5.77331 9.50192 5.60764 9.50144 5.44177C9.50217 4.90979 9.38636 4.38411 9.16216 3.90167Z" fill="black"/>
<path d="M5.84184 1.47343C6.75652 1.4739 7.64292 1.79054 8.35088 2.36971C9.05884 2.94889 9.54483 3.75498 9.72651 4.65144C9.9082 5.5479 9.77442 6.4796 9.34783 7.28872C8.92124 8.09783 8.22807 8.73461 7.38574 9.09118C6.41687 9.50065 5.32501 9.50846 4.35038 9.1129C3.37574 8.71734 2.59815 7.95081 2.18868 6.98194C1.77922 6.01306 1.7714 4.9212 2.16696 3.94657C2.56252 2.97193 3.32905 2.19435 4.29793 1.78488C4.78636 1.5782 5.31148 1.47227 5.84184 1.47343ZM5.84184 1.16846C3.48385 1.16846 1.57227 3.08004 1.57227 5.43803C1.57227 7.79601 3.48385 9.7076 5.84184 9.7076C8.19982 9.7076 10.1114 7.79601 10.1114 5.43803C10.1114 3.08004 8.19982 1.16846 5.84184 1.16846Z" fill="black"/>
</g>
<defs>
<clipPath id="clip0_201_11696">
<rect width="9.75902" height="9.75902" fill="white" transform="translate(0.962402 0.55835)"/>
</clipPath>
</defs>
</svg>
