<svg width="11" height="11" viewBox="0 0 11 11" fill="none" xmlns="http://www.w3.org/2000/svg">
<g clip-path="url(#clip0_201_11493)">
<path d="M5.80061 1.02539C3.28462 1.02539 1.22607 3.08393 1.22607 5.59993C1.22607 8.11593 3.28462 10.1745 5.80061 10.1745C7.42839 10.1745 8.86556 9.31293 9.67563 8.02253C9.69113 7.99801 9.69805 7.96904 9.6953 7.94016C9.69255 7.91128 9.68029 7.88413 9.66044 7.86298C9.64059 7.84182 9.61428 7.82786 9.58564 7.82327C9.557 7.81868 9.52764 7.82374 9.50218 7.83764C9.39065 7.90312 9.27323 7.958 9.15147 8.00157C8.45004 8.24173 8.06311 8.25126 7.58659 8.23029C7.0548 8.20742 6.40674 8.02444 5.95119 7.75378C5.49565 7.48312 5.12206 7.09428 4.92002 6.75691C4.71797 6.41954 4.59599 5.99639 4.65126 5.45507C4.70654 4.90231 5.21164 4.45248 5.80252 4.45248C6.44105 4.45248 6.9614 4.9595 6.9614 5.59803C6.9614 5.92206 6.80701 6.20225 6.60878 6.42716C6.56494 6.46719 6.46392 6.61205 6.71934 6.80837C7.0224 7.04091 7.70286 7.15146 8.24228 7.12478C8.78169 7.09809 9.36876 6.88462 9.77093 6.46147C10.0912 6.1241 10.3771 5.58278 10.3771 4.98618C10.3752 2.6017 8.16413 1.02539 5.80061 1.02539Z" fill="black"/>
</g>
<defs>
<clipPath id="clip0_201_11493">
<rect width="9.75902" height="9.75902" fill="white" transform="translate(0.930664 0.739502)"/>
</clipPath>
</defs>
</svg>
