<svg width="11" height="11" viewBox="0 0 11 11" fill="none" xmlns="http://www.w3.org/2000/svg">
<g clip-path="url(#clip0_201_11474)">
<path d="M9.13721 2.00725C9.1348 1.75648 9.03365 1.51676 8.85567 1.34007C8.6777 1.16338 8.43725 1.06396 8.18647 1.06337L2.15418 1.04431C1.90365 1.04436 1.66336 1.14375 1.486 1.32068C1.30863 1.49762 1.20866 1.73766 1.20801 1.98819V8.21109C1.20801 8.73145 1.63268 9.126 2.15418 9.126H7.30739L7.05961 8.28733L9.13721 10.1934V2.00725ZM6.48112 7.02571C6.48112 7.02571 6.31491 6.82767 6.17615 6.65746C6.78113 6.48706 7.01196 6.11443 7.01196 6.11443C6.8458 6.22465 6.66772 6.31577 6.48112 6.38604C6.26567 6.4755 6.04134 6.54188 5.8119 6.58408C5.41657 6.65669 5.01118 6.65514 4.61642 6.57951C4.38422 6.53638 4.15695 6.46997 3.93806 6.38128C3.82226 6.33692 3.70966 6.28464 3.60106 6.22479C3.58715 6.21564 3.57343 6.21106 3.55951 6.20173C3.55017 6.19715 3.5456 6.19258 3.54045 6.19258C3.45735 6.14645 3.41122 6.11424 3.41122 6.11424C3.41122 6.11424 3.6327 6.4781 4.21901 6.65289C4.08044 6.82787 3.90966 7.03048 3.90966 7.03048C2.88972 6.99827 2.50203 6.33534 2.50203 6.33534C2.50203 4.86653 3.16667 3.6741 3.16667 3.6741C3.83132 3.18138 4.45898 3.1953 4.45898 3.1953L4.50511 3.25057C3.67426 3.4854 3.2959 3.84908 3.2959 3.84908C3.2959 3.84908 3.39731 3.7938 3.56809 3.72004C4.06195 3.5037 4.45441 3.44842 4.61642 3.43013C4.64228 3.42475 4.66855 3.42163 4.69495 3.42079C5.00423 3.38065 5.3172 3.37758 5.6272 3.41164C6.11396 3.46755 6.58554 3.61603 7.01653 3.84908C7.01653 3.84908 6.6519 3.50313 5.86718 3.26868L5.93179 3.19511C5.93179 3.19511 6.56403 3.18119 7.22429 3.67467C7.22429 3.67467 7.88893 4.8671 7.88893 6.33591C7.88893 6.33057 7.50105 6.9935 6.48112 7.02571Z" fill="black"/>
<path d="M4.33505 4.89453C4.07202 4.89453 3.86426 5.12021 3.86426 5.40097C3.86426 5.68173 4.07659 5.90741 4.33505 5.90741C4.59809 5.90741 4.80585 5.68192 4.80585 5.40097C4.81062 5.11964 4.59809 4.89453 4.33505 4.89453Z" fill="black"/>
<path d="M6.01962 4.89453C5.75659 4.89453 5.54883 5.12021 5.54883 5.40097C5.54883 5.68173 5.76116 5.90741 6.01962 5.90741C6.28285 5.90741 6.49042 5.68192 6.49042 5.40097C6.49042 5.12002 6.27828 4.89453 6.01962 4.89453Z" fill="black"/>
</g>
<defs>
<clipPath id="clip0_201_11474">
<rect width="9.75902" height="9.75902" fill="white" transform="translate(0.292969 0.73938)"/>
</clipPath>
</defs>
</svg>
