<svg width="10" height="11" viewBox="0 0 10 11" fill="none" xmlns="http://www.w3.org/2000/svg">
<g clip-path="url(#clip0_201_11453)">
<path d="M0.245605 2.26428V8.97361H10.0046V2.26428H0.245605ZM9.08972 5.61475C9.08972 6.10537 9.05922 6.47858 9.01786 7.08661C8.9765 7.69464 8.6519 8.12236 7.89157 8.18946C7.13124 8.25655 6.06614 8.26284 5.12512 8.26074C4.19115 8.26284 3.12109 8.25865 2.35866 8.18946C1.59624 8.12027 1.27602 7.69388 1.23237 7.08661C1.18872 6.47934 1.16051 6.10537 1.16051 5.61475C1.16051 5.12413 1.16261 4.80544 1.23237 4.14289C1.30213 3.48035 1.67077 3.11133 2.35866 3.04424C3.04656 2.97715 4.23194 2.97715 5.12512 2.97715C6.01829 2.97715 7.20272 2.97715 7.89157 3.04424C8.58042 3.11133 8.9481 3.48263 9.01786 4.14289C9.08762 4.80315 9.08972 5.12623 9.08972 5.61475Z" fill="black"/>
<path d="M7.25145 6.13063V6.1453C7.25145 6.48706 7.03969 6.68834 6.75683 6.68834C6.47397 6.68834 6.28336 6.4619 6.25611 6.1453C6.25611 6.1453 6.23114 5.97967 6.23114 5.6442C6.2295 5.46206 6.23924 5.28 6.2603 5.09907C6.31062 4.74264 6.48464 4.55603 6.76731 4.55603C7.04998 4.55603 7.27222 4.79925 7.27222 5.16826V5.17874H8.21725C8.21725 4.71957 8.10193 4.30653 7.86939 4.04654C7.63685 3.78656 7.29319 3.6558 6.8365 3.6558C6.62343 3.65314 6.41124 3.68355 6.2075 3.74596C6.01749 3.8057 5.84683 3.91498 5.71307 4.06255C5.57526 4.21428 5.46795 4.41556 5.39171 4.66925C5.31546 4.92295 5.27734 5.24107 5.27734 5.62743C5.27734 6.00483 5.30879 6.31933 5.3696 6.57302C5.4304 6.82672 5.52208 7.028 5.64407 7.17896C5.76178 7.32707 5.92109 7.4366 6.10152 7.49346C6.28578 7.55217 6.5018 7.58152 6.74958 7.58152C7.27318 7.58152 7.65039 7.4481 7.87664 7.18944C8.10289 6.93079 8.21267 6.55415 8.21267 6.05934H7.24726C7.25145 6.05934 7.25145 6.11176 7.25145 6.13063Z" fill="black"/>
<path d="M4.00601 6.13063V6.1453C4.00601 6.48706 3.79444 6.68834 3.51158 6.68834C3.22872 6.68834 3.03811 6.4619 3.01086 6.1453C3.01086 6.1453 2.98589 5.97967 2.98589 5.6442C2.98425 5.46206 2.99399 5.27999 3.01505 5.09907C3.06537 4.74264 3.23939 4.55603 3.52206 4.55603C3.80473 4.55603 4.02698 4.79944 4.02698 5.16826V5.17874H4.97238C4.97238 4.71957 4.85802 4.30653 4.62453 4.04654C4.39103 3.78656 4.04794 3.6558 3.59125 3.6558C3.37818 3.65314 3.16599 3.68355 2.96225 3.74596C2.77225 3.8057 2.60158 3.91498 2.46782 4.06255C2.32944 4.21351 2.2227 4.41479 2.14513 4.66849C2.06755 4.92219 2.03076 5.24031 2.03076 5.62667C2.03076 6.00406 2.06221 6.31856 2.12302 6.57226C2.18382 6.82596 2.2755 7.02724 2.39749 7.1782C2.51519 7.32631 2.6745 7.43583 2.85494 7.4927C3.03932 7.5514 3.25534 7.58076 3.503 7.58076C4.02679 7.58076 4.404 7.44733 4.63024 7.18868C4.85649 6.93003 4.96971 6.55339 4.96971 6.05858H4.00182C4.00601 6.05934 4.00601 6.11176 4.00601 6.13063Z" fill="black"/>
</g>
<defs>
<clipPath id="clip0_201_11453">
<rect width="9.75902" height="9.75902" fill="white" transform="translate(0.245605 0.739502)"/>
</clipPath>
</defs>
</svg>
