<svg width="11" height="11" viewBox="0 0 11 11" fill="none" xmlns="http://www.w3.org/2000/svg">
<path d="M5.25362 6.53272C4.96162 6.33525 4.6677 6.14065 4.37569 5.94318C4.33757 5.91687 4.31032 5.91497 4.27086 5.94318L3.52979 6.44104C4.12448 6.83693 5.30623 7.62642 5.30623 7.62642V6.60115C5.30623 6.5779 5.27669 6.54816 5.25362 6.53272Z" fill="black"/>
<path d="M4.37366 5.32679C4.66833 5.13314 4.9613 4.93707 5.25254 4.73858C5.26796 4.7262 5.28066 4.71077 5.28984 4.69326C5.29903 4.67574 5.3045 4.65652 5.30591 4.6368V3.65137C5.30591 3.65137 4.12415 4.43514 3.52832 4.83198C3.78945 5.00657 4.03667 5.17335 4.28655 5.33594C4.30599 5.34852 4.35136 5.34128 4.37366 5.32679Z" fill="black"/>
<path d="M5.79874 4.72985C6.10003 4.93405 6.40265 5.13622 6.7066 5.33636C6.71794 5.342 6.73043 5.34493 6.7431 5.34493C6.75577 5.34493 6.76826 5.342 6.7796 5.33636L7.53745 4.83182L5.76367 3.64587V4.66276C5.76438 4.6758 5.76788 4.68854 5.77393 4.70011C5.77998 4.71168 5.78844 4.72183 5.79874 4.72985Z" fill="black"/>
<path d="M5.57507 5.13052C5.5608 5.12396 5.5452 5.12084 5.52951 5.1214C5.51382 5.12197 5.49848 5.1262 5.48472 5.13376C5.39285 5.19094 5.30422 5.25194 5.21463 5.31198C5.05738 5.41738 4.73145 5.63601 4.73145 5.63601L5.47176 6.12891C5.48966 6.13986 5.51016 6.14582 5.53113 6.14619C5.55211 6.14656 5.5728 6.14132 5.59108 6.13101L6.33444 5.63544C6.33444 5.63544 5.68505 5.20352 5.57507 5.13052Z" fill="black"/>
<path d="M3.34277 5.25916V6.01415L3.90735 5.63598L3.34277 5.25916Z" fill="black"/>
<path d="M5.53471 1.34937C3.17672 1.34937 1.26514 3.26095 1.26514 5.61894C1.26514 7.97692 3.17672 9.88851 5.53471 9.88851C7.89269 9.88851 9.80428 7.97692 9.80428 5.61894C9.80428 3.26095 7.89269 1.34937 5.53471 1.34937ZM8.18413 6.40042C8.18413 6.51059 8.13362 6.58836 8.04098 6.64992C7.25683 7.17091 6.47351 7.69311 5.691 8.21651C5.5795 8.29123 5.4781 8.28799 5.36697 8.21384C4.58968 7.69286 3.81055 7.17396 3.02958 6.65717C2.93218 6.59255 2.88491 6.51307 2.88491 6.39546V4.87557C2.88491 4.75854 2.93294 4.67849 3.03015 4.61406C3.80992 4.09695 4.59197 3.57793 5.36945 3.05719C5.48039 2.98305 5.58083 2.98095 5.69234 3.05548C6.47433 3.57914 7.25747 4.10133 8.04175 4.62207C8.13095 4.68135 8.18375 4.75454 8.18375 4.86337L8.18413 6.40042Z" fill="black"/>
<path d="M6.68337 5.94746C6.39632 6.14238 6.10793 6.33515 5.81821 6.52576C5.77227 6.55587 5.76312 6.58885 5.7637 6.64374V7.62231L7.53633 6.44056L6.80193 5.94727C6.75809 5.91658 6.72778 5.91734 6.68337 5.94746Z" fill="black"/>
<path d="M7.70756 6.01311V5.25793L7.14355 5.63667L7.70756 6.01311Z" fill="black"/>
</svg>
