<svg width="11" height="10" viewBox="0 0 11 10" fill="none" xmlns="http://www.w3.org/2000/svg">
<g clip-path="url(#clip0_201_11611)">
<path d="M2.8306 6.15483C2.83045 6.33221 2.77772 6.50556 2.67906 6.65297C2.58041 6.80038 2.44026 6.91523 2.27635 6.983C2.11243 7.05078 1.9321 7.06843 1.75815 7.03373C1.5842 6.99904 1.42444 6.91355 1.29907 6.78807C1.1737 6.66259 1.08835 6.50276 1.0538 6.32879C1.01925 6.15481 1.03706 5.97449 1.10497 5.81063C1.17289 5.64677 1.28786 5.50673 1.43535 5.4082C1.58284 5.30967 1.75624 5.25708 1.93361 5.25708H2.8306V6.15483Z" fill="black"/>
<path d="M3.28271 6.15493C3.28271 5.91703 3.37722 5.68888 3.54544 5.52066C3.71366 5.35244 3.94181 5.25793 4.17971 5.25793C4.4176 5.25793 4.64576 5.35244 4.81397 5.52066C4.98219 5.68888 5.0767 5.91703 5.0767 6.15493V8.40103C5.0767 8.63892 4.98219 8.86708 4.81397 9.03529C4.64576 9.20351 4.4176 9.29802 4.17971 9.29802C3.94181 9.29802 3.71366 9.20351 3.54544 9.03529C3.37722 8.86708 3.28271 8.63892 3.28271 8.40103V6.15493Z" fill="black"/>
<path d="M4.17992 2.55277C4.00254 2.55262 3.8292 2.49989 3.68179 2.40123C3.53438 2.30258 3.41953 2.16243 3.35175 1.99852C3.28398 1.8346 3.26632 1.65427 3.30102 1.48032C3.33572 1.30637 3.42121 1.14661 3.54668 1.02124C3.67216 0.895873 3.83199 0.810518 4.00597 0.775969C4.17995 0.74142 4.36026 0.759228 4.52412 0.827142C4.68798 0.895055 4.82803 1.01003 4.92656 1.15752C5.02509 1.30501 5.07767 1.4784 5.07767 1.65578V2.55277H4.17992Z" fill="black"/>
<path d="M4.17971 3.00488C4.41761 3.00488 4.64576 3.09939 4.81398 3.26761C4.9822 3.43582 5.0767 3.66398 5.0767 3.90187C5.0767 4.13977 4.9822 4.36792 4.81398 4.53614C4.64576 4.70436 4.41761 4.79887 4.17971 4.79887H1.93361C1.69572 4.79887 1.46756 4.70436 1.29934 4.53614C1.13113 4.36792 1.03662 4.13977 1.03662 3.90187C1.03662 3.66398 1.13113 3.43582 1.29934 3.26761C1.46756 3.09939 1.69572 3.00488 1.93361 3.00488H4.17971Z" fill="black"/>
<path d="M7.78174 3.90197C7.78189 3.72459 7.83462 3.55124 7.93328 3.40383C8.03193 3.25642 8.17208 3.14157 8.33599 3.0738C8.49991 3.00602 8.68024 2.98837 8.85419 3.02307C9.02814 3.05776 9.1879 3.14325 9.31327 3.26873C9.43864 3.39421 9.52399 3.55404 9.55854 3.72802C9.59309 3.90199 9.57528 4.08231 9.50737 4.24617C9.43945 4.41003 9.32448 4.55007 9.17699 4.6486C9.0295 4.74713 8.8561 4.79972 8.67873 4.79972H7.78174V3.90197Z" fill="black"/>
<path d="M7.32963 3.90188C7.32963 4.13978 7.23512 4.36793 7.0669 4.53615C6.89869 4.70437 6.67053 4.79887 6.43264 4.79887C6.19474 4.79887 5.96659 4.70437 5.79837 4.53615C5.63015 4.36793 5.53564 4.13978 5.53564 3.90188V1.65578C5.53564 1.41788 5.63015 1.18973 5.79837 1.02151C5.96659 0.853293 6.19474 0.758789 6.43264 0.758789C6.67053 0.758789 6.89869 0.853293 7.0669 1.02151C7.23512 1.18973 7.32963 1.41788 7.32963 1.65578V3.90188Z" fill="black"/>
<path d="M6.43291 7.50403C6.61029 7.50418 6.78363 7.55691 6.93104 7.65557C7.07845 7.75422 7.1933 7.89437 7.26108 8.05828C7.32885 8.2222 7.34651 8.40253 7.31181 8.57648C7.27711 8.75043 7.19162 8.91019 7.06615 9.03556C6.94067 9.16093 6.78084 9.24628 6.60686 9.28083C6.43288 9.31538 6.25257 9.29757 6.08871 9.22966C5.92485 9.16174 5.7848 9.04677 5.68627 8.89928C5.58774 8.75179 5.53516 8.5784 5.53516 8.40102V7.50403H6.43291Z" fill="black"/>
<path d="M6.43264 7.05192C6.19474 7.05192 5.96659 6.95741 5.79837 6.78919C5.63015 6.62098 5.53564 6.39282 5.53564 6.15493C5.53564 5.91703 5.63015 5.68888 5.79837 5.52066C5.96659 5.35244 6.19474 5.25793 6.43264 5.25793H8.67874C8.91663 5.25793 9.14479 5.35244 9.313 5.52066C9.48122 5.68888 9.57573 5.91703 9.57573 6.15493C9.57573 6.39282 9.48122 6.62098 9.313 6.78919C9.14479 6.95741 8.91663 7.05192 8.67874 7.05192H6.43264Z" fill="black"/>
</g>
<defs>
<clipPath id="clip0_201_11611">
<rect width="9.75902" height="9.75902" fill="white" transform="translate(0.426758 0.148926)"/>
</clipPath>
</defs>
</svg>
