<svg width="11" height="10" viewBox="0 0 11 10" fill="none" xmlns="http://www.w3.org/2000/svg">
<g clip-path="url(#clip0_201_11554)">
<path d="M1.40967 0.682617V9.37424H10.1013V0.682617H1.40967ZM8.63039 2.74192L8.16417 3.18889C8.12395 3.21958 8.10413 3.2699 8.11232 3.31965V6.60341C8.10394 6.65316 8.12395 6.70367 8.16417 6.73416L8.61934 7.18113V7.2793H6.32978V7.18113L6.80134 6.7233C6.84765 6.67698 6.84765 6.66326 6.84765 6.59254V3.93836L5.53648 7.26843H5.35921L3.83265 3.93836V6.17035C3.81988 6.26413 3.85114 6.35867 3.91709 6.42653L4.53046 7.17046V7.26862H2.79137V7.17046L3.40474 6.42653C3.47031 6.35848 3.49966 6.26337 3.48384 6.17035V3.58936C3.49108 3.51769 3.46383 3.44678 3.41027 3.39856L2.86513 2.74173V2.64357H4.55791L5.86641 5.51314L7.01672 2.64357H8.63039V2.74192Z" fill="black"/>
</g>
<defs>
<clipPath id="clip0_201_11554">
<rect width="9.75902" height="9.75902" fill="white" transform="translate(0.875977 0.148926)"/>
</clipPath>
</defs>
</svg>
