<svg width="11" height="11" viewBox="0 0 11 11" fill="none" xmlns="http://www.w3.org/2000/svg">
<path d="M7.3478 5.19202C6.79695 5.19202 6.7207 5.74096 6.7207 5.74096H7.89102C7.89102 5.74096 7.89865 5.19202 7.3478 5.19202Z" fill="black"/>
<path d="M4.69266 5.74085H3.65576V6.69388H4.64119C4.78987 6.69006 5.06815 6.64813 5.06815 6.2307C5.06815 5.73513 4.69266 5.74085 4.69266 5.74085Z" fill="black"/>
<path d="M5.6685 1.34937C3.3107 1.34937 1.39893 3.26114 1.39893 5.61894C1.39893 7.97673 3.3107 9.88851 5.6685 9.88851C8.02629 9.88851 9.93807 7.97673 9.93807 5.61894C9.93807 3.26114 8.02629 1.34937 5.6685 1.34937ZM6.56816 3.9721H8.03773V4.4105H6.56816V3.9721ZM5.82479 6.27462C5.82479 7.36107 4.6926 7.32677 4.6926 7.32677H2.83991V3.76244H4.6926C5.25679 3.76244 5.7009 4.07312 5.7009 4.71165C5.7009 5.35018 5.15767 5.39021 5.15767 5.39021C5.87435 5.39021 5.82479 6.27462 5.82479 6.27462ZM8.57333 6.21553H6.72636C6.72636 6.87694 7.35345 6.835 7.35345 6.835C7.94624 6.835 7.92527 6.45188 7.92527 6.45188H8.55236C8.55236 7.46972 7.33249 7.3992 7.33249 7.3992C5.87054 7.3992 5.96394 6.03636 5.96394 6.03636C5.96394 6.03636 5.96203 4.66781 7.33249 4.66781C8.77537 4.66972 8.57333 6.21553 8.57333 6.21553Z" fill="black"/>
<path d="M4.94426 4.76687C4.94426 4.39709 4.69266 4.39709 4.69266 4.39709H3.65576V5.19192H4.62785C4.79558 5.19192 4.94426 5.13665 4.94426 4.76687Z" fill="black"/>
</svg>
