<svg width="11" height="11" viewBox="0 0 11 11" fill="none" xmlns="http://www.w3.org/2000/svg">
<g clip-path="url(#clip0_201_11468)">
<path d="M6.10311 3.08011L4.72217 1.95935L6.10749 4.29694L6.10311 3.08011Z" fill="black"/>
<path d="M6.94386 1.95935V5.6876H6.15094L4.77419 3.43235L4.81117 5.6876H3.93762V3.24022L3.12526 2.56929C3.14699 2.59674 3.16872 2.62418 3.18835 2.65392C3.40621 2.97185 3.51505 3.35154 3.51505 3.80899C3.51505 4.93356 2.84793 5.68684 1.84 5.68684H0.474121V5.69599L4.82203 9.27862H10.2331V4.66062L6.94386 1.95935Z" fill="black"/>
<path d="M2.60689 3.83722C2.60689 3.17391 2.29754 2.80566 1.74192 2.80566H1.32373V4.84133H1.73773C2.30402 4.84133 2.60689 4.4891 2.60689 3.83722Z" fill="black"/>
</g>
<defs>
<clipPath id="clip0_201_11468">
<rect width="9.75902" height="9.75902" fill="white" transform="translate(0.474121 0.739502)"/>
</clipPath>
</defs>
</svg>
