<svg width="11" height="11" viewBox="0 0 11 11" fill="none" xmlns="http://www.w3.org/2000/svg">
<g clip-path="url(#clip0_201_11478)">
<path d="M10.3659 4.76426C10.3389 4.74157 10.0943 4.55573 9.56937 4.55573C9.43132 4.55653 9.29355 4.56864 9.15747 4.59195C9.05798 3.89814 8.48311 3.56268 8.46043 3.54362L8.32014 3.46204L8.22961 3.59355C8.11545 3.7721 8.03135 3.96817 7.98067 4.17395C7.88537 4.5685 7.94446 4.94018 8.14364 5.25754C7.90367 5.39364 7.51464 5.42528 7.43306 5.42909H1.00602C0.965973 5.42906 0.926313 5.43696 0.889327 5.45233C0.852342 5.46769 0.818762 5.49023 0.790522 5.51863C0.762281 5.54703 0.739938 5.58073 0.72478 5.6178C0.709621 5.65488 0.701947 5.69458 0.702198 5.73463C0.693565 6.29888 0.788867 6.85991 0.983342 7.38966C1.20521 7.97006 1.53553 8.40178 1.9602 8.66367C2.44091 8.95835 3.22391 9.12608 4.10642 9.12608C4.50568 9.12609 4.90411 9.08966 5.29675 9.01724C5.84414 8.91798 6.37067 8.72636 6.85381 8.45057C7.25155 8.21948 7.60925 7.92551 7.91301 7.58008C8.4244 7.00426 8.72766 6.3602 8.94952 5.78838H9.04006C9.59682 5.78838 9.94087 5.56613 10.1309 5.37572C10.257 5.25617 10.3559 5.11079 10.4206 4.94952L10.4614 4.83173L10.3659 4.76426Z" fill="black"/>
<path d="M1.60359 5.24486H2.46341C2.48363 5.24486 2.50302 5.23683 2.51732 5.22253C2.53162 5.20823 2.53965 5.18884 2.53965 5.16862V4.39704C2.53965 4.37682 2.53162 4.35743 2.51732 4.34313C2.50302 4.32883 2.48363 4.3208 2.46341 4.3208H1.60359C1.58337 4.3208 1.56397 4.32883 1.54967 4.34313C1.53538 4.35743 1.52734 4.37682 1.52734 4.39704V5.16785C1.5281 5.18783 1.53637 5.20679 1.55051 5.22093C1.56465 5.23507 1.58361 5.24334 1.60359 5.2441" fill="black"/>
<path d="M2.78913 5.24486H3.64915C3.66937 5.24486 3.68876 5.23683 3.70306 5.22253C3.71736 5.20823 3.72539 5.18884 3.72539 5.16862V4.39704C3.72539 4.37682 3.71736 4.35743 3.70306 4.34313C3.68876 4.32883 3.66937 4.3208 3.64915 4.3208H2.78913C2.76891 4.3208 2.74952 4.32883 2.73522 4.34313C2.72092 4.35743 2.71289 4.37682 2.71289 4.39704V5.16785C2.71365 5.18783 2.72192 5.20679 2.73606 5.22093C2.7502 5.23507 2.76915 5.24334 2.78913 5.2441" fill="black"/>
<path d="M3.99767 5.24486H4.8573C4.87753 5.24486 4.89692 5.23683 4.91122 5.22253C4.92551 5.20823 4.93355 5.18884 4.93355 5.16862V4.39704C4.93355 4.37682 4.92551 4.35743 4.91122 4.34313C4.89692 4.32883 4.87753 4.3208 4.8573 4.3208H3.99767C3.97745 4.3208 3.95806 4.32883 3.94376 4.34313C3.92946 4.35743 3.92143 4.37682 3.92143 4.39704V5.16785C3.92108 5.17796 3.92282 5.18803 3.92653 5.19743C3.93024 5.20684 3.93584 5.21538 3.94299 5.22253C3.95014 5.22968 3.95869 5.23529 3.96809 5.239C3.9775 5.24271 3.98757 5.24444 3.99767 5.2441" fill="black"/>
<path d="M5.18806 5.24486H6.04807C6.06829 5.24486 6.08769 5.23683 6.10198 5.22253C6.11628 5.20823 6.12432 5.18884 6.12432 5.16862V4.39704C6.12432 4.37682 6.11628 4.35743 6.10198 4.34313C6.08769 4.32883 6.06829 4.3208 6.04807 4.3208H5.18806C5.16784 4.3208 5.14845 4.32883 5.13415 4.34313C5.11985 4.35743 5.11182 4.37682 5.11182 4.39704V5.16785C5.11182 5.18807 5.11985 5.20747 5.13415 5.22176C5.14845 5.23606 5.16784 5.2441 5.18806 5.2441" fill="black"/>
<path d="M2.78913 4.14317H3.64915C3.66913 4.14242 3.68808 4.13414 3.70222 4.12001C3.71636 4.10587 3.72463 4.08691 3.72539 4.06693V3.29536C3.72539 3.27514 3.71736 3.25575 3.70306 3.24145C3.68876 3.22715 3.66937 3.21912 3.64915 3.21912H2.78913C2.76891 3.21912 2.74952 3.22715 2.73522 3.24145C2.72092 3.25575 2.71289 3.27514 2.71289 3.29536V4.06617C2.71438 4.08589 2.7229 4.10443 2.73688 4.11842C2.75087 4.13241 2.76941 4.14092 2.78913 4.14241" fill="black"/>
<path d="M3.99763 4.14317H4.85726C4.87724 4.14242 4.8962 4.13414 4.91034 4.12001C4.92447 4.10587 4.93275 4.08691 4.9335 4.06693V3.29536C4.9335 3.27514 4.92547 3.25575 4.91117 3.24145C4.89688 3.22715 4.87748 3.21912 4.85726 3.21912H3.99763C3.97741 3.21912 3.95802 3.22715 3.94372 3.24145C3.92942 3.25575 3.92139 3.27514 3.92139 3.29536V4.06617C3.92139 4.08639 3.92942 4.10578 3.94372 4.12008C3.95802 4.13438 3.97741 4.14241 3.99763 4.14241" fill="black"/>
<path d="M5.18806 4.14317H6.04807C6.06805 4.14242 6.08701 4.13414 6.10115 4.12001C6.11529 4.10587 6.12356 4.08691 6.12432 4.06693V3.29536C6.12356 3.27538 6.11529 3.25642 6.10115 3.24228C6.08701 3.22815 6.06805 3.21987 6.04807 3.21912H5.18806C5.16784 3.21912 5.14845 3.22715 5.13415 3.24145C5.11985 3.25575 5.11182 3.27514 5.11182 3.29536V4.06617C5.11257 4.08615 5.12085 4.10511 5.13498 4.11924C5.14912 4.13338 5.16808 4.14166 5.18806 4.14241" fill="black"/>
<path d="M5.18806 3.03683H6.04807C6.06829 3.03683 6.08769 3.02879 6.10198 3.0145C6.11628 3.0002 6.12432 2.98081 6.12432 2.96058V2.18806C6.12356 2.16808 6.11529 2.14912 6.10115 2.13498C6.08701 2.12085 6.06805 2.11257 6.04807 2.11182H5.18806C5.16784 2.11182 5.14845 2.11985 5.13415 2.13415C5.11985 2.14845 5.11182 2.16784 5.11182 2.18806V2.95887C5.11262 2.97883 5.1209 2.99777 5.13503 3.01189C5.14916 3.02602 5.16809 3.03431 5.18806 3.03511" fill="black"/>
<path d="M6.38728 5.24486H7.24729C7.26751 5.24486 7.2869 5.23683 7.3012 5.22253C7.3155 5.20823 7.32353 5.18884 7.32353 5.16862V4.39704C7.32353 4.37682 7.3155 4.35743 7.3012 4.34313C7.2869 4.32883 7.26751 4.3208 7.24729 4.3208H6.38728C6.36706 4.3208 6.34766 4.32883 6.33337 4.34313C6.31907 4.35743 6.31104 4.37682 6.31104 4.39704V5.16785C6.31179 5.18783 6.32007 5.20679 6.3342 5.22093C6.34834 5.23507 6.3673 5.24334 6.38728 5.2441" fill="black"/>
</g>
<defs>
<clipPath id="clip0_201_11478">
<rect width="9.75902" height="9.75902" fill="white" transform="translate(0.702148 0.739502)"/>
</clipPath>
</defs>
</svg>
