<svg width="11" height="11" viewBox="0 0 11 11" fill="none" xmlns="http://www.w3.org/2000/svg">
<g clip-path="url(#clip0_201_11414)">
<path d="M4.8042 1.9593L5.84986 1.34937L6.89553 1.9593" stroke="black" stroke-width="0.609939" stroke-linecap="round" stroke-linejoin="round"/>
<path d="M5.84961 1.34937V2.87421" stroke="black" stroke-width="0.609939" stroke-miterlimit="10" stroke-linecap="round"/>
<path d="M6.89553 9.27856L5.84986 9.8885L4.8042 9.27856" stroke="black" stroke-width="0.609939" stroke-linecap="round" stroke-linejoin="round"/>
<path d="M5.84961 9.88849V8.36365" stroke="black" stroke-width="0.609939" stroke-miterlimit="10" stroke-linecap="round"/>
<path d="M2.18994 4.69468V3.48414L3.20301 2.88354" stroke="black" stroke-width="0.609939" stroke-linecap="round" stroke-linejoin="round"/>
<path d="M2.18994 3.48413L3.47253 4.24655" stroke="black" stroke-width="0.609939" stroke-miterlimit="10" stroke-linecap="round"/>
<path d="M9.50916 6.54309V7.75363L8.49609 8.35423" stroke="black" stroke-width="0.609939" stroke-linecap="round" stroke-linejoin="round"/>
<path d="M9.50964 7.75363L8.22705 6.99121" stroke="black" stroke-width="0.609939" stroke-miterlimit="10" stroke-linecap="round"/>
<path d="M3.20301 8.36357L2.18994 7.75363V6.54309" stroke="black" stroke-width="0.609939" stroke-linecap="round" stroke-linejoin="round"/>
<path d="M2.18994 7.75363L3.46014 6.99121" stroke="black" stroke-width="0.609939" stroke-miterlimit="10" stroke-linecap="round"/>
<path d="M8.49609 2.88354L9.50916 3.48414V4.69468" stroke="black" stroke-width="0.609939" stroke-linecap="round" stroke-linejoin="round"/>
<path d="M9.50964 3.48413L8.22705 4.24655" stroke="black" stroke-width="0.609939" stroke-miterlimit="10" stroke-linecap="round"/>
<path d="M5.84961 6.83873V5.61885L6.89527 5.00891" stroke="black" stroke-width="0.609939" stroke-miterlimit="10" stroke-linecap="round"/>
<path d="M5.84986 5.61885L4.8042 5.00891" stroke="black" stroke-width="0.609939" stroke-miterlimit="10" stroke-linecap="round"/>
</g>
<defs>
<clipPath id="clip0_201_11414">
<rect width="9.75902" height="9.75902" fill="white" transform="translate(0.970215 0.73938)"/>
</clipPath>
</defs>
</svg>
