<svg width="10" height="10" viewBox="0 0 10 10" fill="none" xmlns="http://www.w3.org/2000/svg">
<g clip-path="url(#clip0_201_11622)">
<path d="M0.356157 5.44775C0.34621 5.44826 0.336806 5.45244 0.329763 5.45948C0.322721 5.46652 0.318542 5.47593 0.318036 5.48588L0.245605 6.03177L0.316892 6.56852C0.317459 6.57861 0.321786 6.58812 0.329019 6.59517C0.336252 6.60223 0.345866 6.60632 0.355966 6.60664C0.36587 6.60601 0.375205 6.60179 0.382223 6.59477C0.38924 6.58776 0.393458 6.57842 0.394087 6.56852L0.478716 6.03158L0.39485 5.48588C0.394221 5.47597 0.390002 5.46664 0.382985 5.45962C0.375968 5.4526 0.366633 5.44838 0.356729 5.44775H0.356157Z" fill="black"/>
<path d="M0.757556 5.14888C0.757556 5.13811 0.753278 5.12778 0.745665 5.12017C0.738051 5.11255 0.727724 5.10828 0.716957 5.10828C0.706189 5.10828 0.695863 5.11255 0.688249 5.12017C0.680635 5.12778 0.676358 5.13811 0.676358 5.14888L0.581055 6.03176L0.676358 6.89521C0.676358 6.90597 0.680635 6.9163 0.688249 6.92391C0.695863 6.93153 0.706189 6.93581 0.716957 6.93581C0.727724 6.93581 0.738051 6.93153 0.745665 6.92391C0.753278 6.9163 0.757556 6.90597 0.757556 6.89521L0.866773 6.03157L0.757556 5.14868V5.14888Z" fill="black"/>
<path d="M2.26915 4.33447C2.24978 4.33509 2.23138 4.34306 2.21767 4.35676C2.20397 4.37047 2.196 4.38887 2.19538 4.40824L2.11914 6.03258L2.19538 7.08244C2.19635 7.10138 2.20455 7.11922 2.21829 7.13229C2.23204 7.14535 2.25028 7.15264 2.26924 7.15264C2.28821 7.15264 2.30645 7.14535 2.32019 7.13229C2.33394 7.11922 2.34214 7.10138 2.3431 7.08244L2.42945 6.03258L2.3431 4.40824C2.34248 4.38884 2.33448 4.37041 2.32074 4.3567C2.307 4.34299 2.28855 4.33504 2.26915 4.33447Z" fill="black"/>
<path d="M1.4866 4.89893C1.47157 4.89936 1.45727 4.90552 1.44664 4.91615C1.43601 4.92678 1.42985 4.94108 1.42942 4.95611L1.34326 6.03208L1.42923 7.07336C1.42923 7.08852 1.43525 7.10307 1.44597 7.11379C1.4567 7.12451 1.47124 7.13054 1.48641 7.13054C1.50157 7.13054 1.51612 7.12451 1.52684 7.11379C1.53756 7.10307 1.54359 7.08852 1.54359 7.07336L1.64137 6.03208L1.54359 4.95554C1.54297 4.94065 1.53676 4.92655 1.52619 4.91606C1.51562 4.90556 1.50148 4.89944 1.4866 4.89893Z" fill="black"/>
<path d="M3.06429 7.15554C3.08814 7.15515 3.11092 7.14551 3.12781 7.12865C3.1447 7.1118 3.15438 7.08905 3.15482 7.06519L3.22973 6.03306L3.15482 3.87045C3.15482 3.84643 3.14528 3.8234 3.12831 3.80642C3.11133 3.78945 3.0883 3.77991 3.06429 3.77991C3.04027 3.77991 3.01725 3.78945 3.00027 3.80642C2.98329 3.8234 2.97375 3.84643 2.97375 3.87045L2.90723 6.03287L2.97375 7.06538C2.97414 7.08923 2.98382 7.11199 3.00073 7.12883C3.01763 7.14566 3.04043 7.15524 3.06429 7.15554Z" fill="black"/>
<path d="M4.69208 7.16041C4.72485 7.15992 4.75613 7.14665 4.77927 7.12344C4.80241 7.10023 4.81558 7.06891 4.81597 7.03614L4.8682 6.03355L4.81597 3.53661C4.81597 3.50375 4.80292 3.47224 4.77968 3.44901C4.75645 3.42577 4.72494 3.41272 4.69208 3.41272C4.65922 3.41272 4.62771 3.42577 4.60447 3.44901C4.58124 3.47224 4.56818 3.50375 4.56818 3.53661L4.52148 6.03355C4.52148 6.03508 4.56818 7.03747 4.56818 7.03747C4.56887 7.07003 4.58218 7.10104 4.60529 7.12398C4.6284 7.14691 4.65952 7.15998 4.69208 7.16041Z" fill="black"/>
<path d="M3.87201 7.15651C3.90041 7.15626 3.92757 7.14484 3.94762 7.12473C3.96766 7.10461 3.97898 7.07741 3.97913 7.04901L4.0428 6.03251L3.97913 3.85426C3.97974 3.8398 3.97742 3.82537 3.97231 3.81183C3.96719 3.79829 3.9594 3.78593 3.94938 3.77548C3.93936 3.76503 3.92734 3.75672 3.91403 3.75104C3.90071 3.74536 3.88639 3.74243 3.87192 3.74243C3.85744 3.74243 3.84312 3.74536 3.82981 3.75104C3.8165 3.75672 3.80447 3.76503 3.79445 3.77548C3.78444 3.78593 3.77664 3.79829 3.77153 3.81183C3.76641 3.82537 3.76409 3.8398 3.7647 3.85426L3.70752 6.0327L3.7647 7.04901C3.765 7.07732 3.77642 7.10439 3.7965 7.12436C3.81657 7.14432 3.8437 7.1556 3.87201 7.15575V7.15651Z" fill="black"/>
<path d="M1.87626 7.14704C1.89342 7.14661 1.90976 7.13964 1.92195 7.12756C1.93414 7.11548 1.94125 7.09919 1.94183 7.08204L2.03389 6.03199L1.94183 5.03322C1.94183 5.01583 1.93492 4.99915 1.92262 4.98686C1.91033 4.97456 1.89365 4.96765 1.87626 4.96765C1.85887 4.96765 1.84219 4.97456 1.82989 4.98686C1.8176 4.99915 1.81069 5.01583 1.81069 5.03322L1.72949 6.03161L1.81069 7.08147C1.81098 7.09877 1.81799 7.11528 1.83022 7.12751C1.84245 7.13974 1.85896 7.14674 1.87626 7.14704Z" fill="black"/>
<path d="M1.10035 7.0894C1.11304 7.08894 1.12509 7.08377 1.13416 7.07488C1.14322 7.06599 1.14863 7.05404 1.14934 7.04137L1.25284 6.03116L1.14953 4.98282C1.14953 4.96983 1.14437 4.95737 1.13518 4.94819C1.126 4.939 1.11354 4.93384 1.10054 4.93384C1.08755 4.93384 1.07509 4.939 1.06591 4.94819C1.05672 4.95737 1.05156 4.96983 1.05156 4.98282L0.960449 6.03116L1.05156 7.04137C1.05199 7.05412 1.05729 7.06622 1.06637 7.07518C1.07544 7.08415 1.0876 7.08931 1.10035 7.08959V7.0894Z" fill="black"/>
<path d="M4.28063 3.8186C4.24993 3.81875 4.22053 3.83104 4.19885 3.85279C4.17718 3.87454 4.16499 3.90398 4.16494 3.93468L4.11328 6.03344L4.16494 7.04366C4.16615 7.0735 4.17886 7.10172 4.2004 7.12241C4.22195 7.1431 4.25067 7.15466 4.28054 7.15466C4.31041 7.15466 4.33912 7.1431 4.36067 7.12241C4.38222 7.10172 4.39493 7.0735 4.39614 7.04366L4.45332 6.03344L4.39614 3.9343C4.39599 3.9037 4.38378 3.87438 4.36215 3.85272C4.34053 3.83106 4.31124 3.8188 4.28063 3.8186Z" fill="black"/>
<path d="M2.6663 7.15765C2.6879 7.15717 2.70849 7.14838 2.72379 7.13312C2.73909 7.11786 2.74792 7.09729 2.74845 7.07569L2.82908 6.03289L2.7475 4.03724C2.74648 4.01612 2.73737 3.99619 2.72206 3.9816C2.70675 3.967 2.6864 3.95886 2.66525 3.95886C2.6441 3.95886 2.62376 3.967 2.60844 3.9816C2.59313 3.99619 2.58402 4.01612 2.58301 4.03724L2.51172 6.03289L2.5832 7.07607C2.58369 7.09782 2.59265 7.11851 2.60818 7.13374C2.6237 7.14898 2.64455 7.15756 2.6663 7.15765Z" fill="black"/>
<path d="M3.56538 7.0591L3.63457 6.03364L3.56538 3.79821C3.56596 3.78487 3.56384 3.77154 3.55914 3.75904C3.55444 3.74654 3.54725 3.73512 3.53802 3.72547C3.52878 3.71582 3.51769 3.70814 3.5054 3.7029C3.49312 3.69765 3.4799 3.69495 3.46655 3.69495C3.45319 3.69495 3.43997 3.69765 3.42769 3.7029C3.41541 3.70814 3.40431 3.71582 3.39508 3.72547C3.38584 3.73512 3.37866 3.74654 3.37396 3.75904C3.36925 3.77154 3.36713 3.78487 3.36772 3.79821L3.30615 6.03364L3.36772 7.05967C3.36772 7.08586 3.37812 7.11097 3.39664 7.12948C3.41515 7.148 3.44027 7.1584 3.46645 7.1584C3.49264 7.1584 3.51775 7.148 3.53627 7.12948C3.55478 7.11097 3.56519 7.08586 3.56519 7.05967L3.56538 7.0591Z" fill="black"/>
<path d="M8.80391 4.74446C8.64464 4.74424 8.48694 4.776 8.34017 4.83786C8.24487 3.74797 7.33739 2.89368 6.23092 2.89368C5.96829 2.89417 5.70801 2.94315 5.46316 3.03816C5.37263 3.07342 5.3488 3.10982 5.34766 3.18035V7.01839C5.34817 7.0539 5.36162 7.08801 5.38548 7.11433C5.40934 7.14064 5.44197 7.15736 5.47727 7.16134C5.48032 7.16134 8.78314 7.16344 8.80448 7.16344C9.46741 7.16344 10.0053 6.62193 10.0053 5.95404C10.0053 5.28616 9.46779 4.74446 8.80448 4.74446H8.80391Z" fill="black"/>
<path d="M5.10213 3.177C5.06694 3.1773 5.0333 3.19149 5.00852 3.21648C4.98375 3.24147 4.96985 3.27524 4.96985 3.31043L4.91553 6.0338L4.96985 7.02248C4.96926 7.04026 4.97226 7.05797 4.97867 7.07457C4.98508 7.09117 4.99477 7.1063 5.00717 7.11906C5.01957 7.13182 5.03441 7.14195 5.05081 7.14884C5.06721 7.15573 5.08484 7.15925 5.10263 7.15917C5.12042 7.15909 5.13801 7.15543 5.15435 7.14839C5.1707 7.14136 5.18545 7.1311 5.19774 7.11823C5.21002 7.10537 5.21958 7.09015 5.22585 7.0735C5.23212 7.05685 5.23497 7.03911 5.23422 7.02133V7.02248L5.29312 6.0338L5.23422 3.30947C5.23397 3.27448 5.21999 3.24099 5.19528 3.21621C5.17057 3.19143 5.13712 3.17735 5.10213 3.177Z" fill="black"/>
</g>
<defs>
<clipPath id="clip0_201_11622">
<rect width="9.75902" height="9.75902" fill="white" transform="translate(0.245605 0.148926)"/>
</clipPath>
</defs>
</svg>
