<svg width="11" height="11" viewBox="0 0 11 11" fill="none" xmlns="http://www.w3.org/2000/svg">
<path d="M7.03423 3.34802C6.2657 3.34802 5.94091 3.71475 5.40569 3.71475C4.85694 3.71475 4.43836 3.35069 3.77239 3.35069C3.12052 3.35069 2.42538 3.74868 1.98393 4.42666C1.36408 5.38274 1.4693 7.18339 2.47322 8.71739C2.83232 9.26653 3.31188 9.88237 3.94088 9.88904H3.95232C4.49898 9.88904 4.66137 9.53109 5.41369 9.52689H5.42513C6.16621 9.52689 6.31488 9.88695 6.85925 9.88695H6.87069C7.49969 9.88028 8.00498 9.19791 8.36408 8.65087C8.62255 8.25746 8.71861 8.05999 8.91684 7.61493C7.46461 7.06369 7.23131 5.00496 8.66753 4.21566C8.22913 3.66672 7.6131 3.34878 7.03232 3.34878L7.03423 3.34802Z" fill="black"/>
<path d="M6.86507 1.34937C6.40762 1.38043 5.87392 1.67168 5.56133 2.05194C5.27771 2.39655 5.04441 2.90776 5.1359 3.40352H5.17249C5.65968 3.40352 6.15831 3.11018 6.44955 2.73431C6.73012 2.37654 6.94284 1.86953 6.86507 1.34937Z" fill="black"/>
</svg>
