<svg width="10" height="10" viewBox="0 0 10 10" fill="none" xmlns="http://www.w3.org/2000/svg">
<g clip-path="url(#clip0_201_11603)">
<path d="M2.26799 6.6825C2.04078 6.68332 1.81891 6.75143 1.63037 6.87823C1.44182 7.00502 1.29506 7.18482 1.2086 7.39494C1.12214 7.60506 1.09985 7.83608 1.14454 8.05885C1.18924 8.28162 1.29892 8.48616 1.45974 8.64666C1.62056 8.80717 1.82532 8.91644 2.04818 8.96069C2.27104 9.00495 2.50201 8.9822 2.71196 8.89532C2.9219 8.80844 3.10141 8.66132 3.22783 8.47253C3.35425 8.28374 3.42192 8.06173 3.4223 7.83452C3.42134 7.52888 3.29935 7.23607 3.08302 7.02016C2.86668 6.80426 2.57363 6.68285 2.26799 6.6825Z" fill="black"/>
<path d="M1.11377 3.70691V5.3566C2.10492 5.3566 3.05681 5.64995 3.7569 6.34985C4.457 7.04975 4.74805 7.99973 4.74805 8.99298H6.39984C6.39984 6.10416 4.00469 3.70691 1.11377 3.70691Z" fill="black"/>
<path d="M1.11377 1.06384V2.71373C4.64474 2.71373 7.3889 5.45998 7.3889 8.99305H9.04297C9.04297 4.62169 5.49141 1.06384 1.11377 1.06384Z" fill="black"/>
</g>
<defs>
<clipPath id="clip0_201_11603">
<rect width="9.75902" height="9.75902" fill="white" transform="translate(0.19873 0.148926)"/>
</clipPath>
</defs>
</svg>
