<svg width="11" height="11" viewBox="0 0 11 11" fill="none" xmlns="http://www.w3.org/2000/svg">
<path d="M4.48779 9.39452V8.47961" stroke="black" stroke-width="0.609939" stroke-miterlimit="10" stroke-linecap="square"/>
<path d="M2.54688 8.59064L3.19379 7.94373" stroke="black" stroke-width="0.609939" stroke-miterlimit="10" stroke-linecap="square"/>
<path d="M1.74316 6.6499H2.65807" stroke="black" stroke-width="0.609939" stroke-miterlimit="10" stroke-linecap="square"/>
<path d="M8.87588 2.27051C8.62108 2.01537 8.3185 1.81294 7.98543 1.67479C7.65236 1.53663 7.29533 1.46546 6.93474 1.46533C6.57416 1.46521 6.21708 1.53614 5.88392 1.67406C5.55075 1.81199 5.24803 2.01421 4.99305 2.26918L3.69922 3.56301L4.99305 4.85704L6.28688 3.56301C6.37278 3.47712 6.47492 3.4092 6.58734 3.3632C6.69976 3.3172 6.82022 3.29405 6.94169 3.2951C7.06315 3.29614 7.18319 3.32137 7.2948 3.3693C7.40642 3.41723 7.50737 3.4869 7.59177 3.57426C7.94058 3.93488 7.92495 4.5128 7.57004 4.86771L6.28688 6.15087L7.58072 7.4447L8.85606 6.16936C9.93051 5.09491 9.94957 3.34553 8.87588 2.27051Z" fill="black"/>
<path d="M3.26786 3.99435L2.40527 4.85693L3.69915 6.15081L4.56173 5.28823L3.26786 3.99435Z" fill="black"/>
<path d="M5.85575 6.58187L4.99316 7.44446L6.28704 8.73833L7.14962 7.87575L5.85575 6.58187Z" fill="black"/>
</svg>
