<svg width="10" height="11" viewBox="0 0 10 11" fill="none" xmlns="http://www.w3.org/2000/svg">
<g clip-path="url(#clip0_201_11732)">
<path d="M3.89746 9.39855V8.48364" stroke="black" stroke-width="0.609939" stroke-miterlimit="10" stroke-linecap="round"/>
<path d="M1.95703 8.59455L2.60395 7.94763" stroke="black" stroke-width="0.609939" stroke-miterlimit="10" stroke-linecap="round"/>
<path d="M1.15283 6.65381H2.06774" stroke="black" stroke-width="0.609939" stroke-miterlimit="10" stroke-linecap="round"/>
<path d="M5.33808 6.5115L4.74511 7.10447C4.71678 7.13279 4.69431 7.16641 4.67898 7.20342C4.66365 7.24042 4.65576 7.28009 4.65576 7.32014C4.65576 7.3602 4.66365 7.39986 4.67898 7.43686C4.69431 7.47387 4.71678 7.50749 4.74511 7.53581L5.60779 8.3983C5.66498 8.45545 5.74252 8.48756 5.82337 8.48756C5.90422 8.48756 5.98176 8.45545 6.03894 8.3983L6.63211 7.80533C6.6392 7.79825 6.64482 7.78984 6.64866 7.78058C6.65249 7.77133 6.65447 7.76141 6.65447 7.75139C6.65447 7.74137 6.65249 7.73145 6.64866 7.72219C6.64482 7.71294 6.6392 7.70453 6.63211 7.69745L5.44597 6.5115C5.43889 6.50441 5.43048 6.49878 5.42122 6.49495C5.41197 6.49111 5.40205 6.48914 5.39203 6.48914C5.38201 6.48914 5.37209 6.49111 5.36283 6.49495C5.35357 6.49878 5.34517 6.50441 5.33808 6.5115Z" fill="black"/>
<path d="M2.75059 3.92361L2.15761 4.51677C2.10046 4.57396 2.06836 4.6515 2.06836 4.73235C2.06836 4.8132 2.10046 4.89073 2.15761 4.94792L3.0201 5.8106C3.04842 5.83893 3.08205 5.8614 3.11905 5.87673C3.15606 5.89206 3.19572 5.89995 3.23577 5.89995C3.27583 5.89995 3.31549 5.89206 3.3525 5.87673C3.3895 5.8614 3.42312 5.83893 3.45144 5.8106L4.04442 5.21763C4.05151 5.21055 4.05713 5.20214 4.06097 5.19288C4.06481 5.18363 4.06678 5.17371 4.06678 5.16369C4.06678 5.15367 4.06481 5.14375 4.06097 5.13449C4.05713 5.12524 4.05151 5.11683 4.04442 5.10975L2.85847 3.92361C2.85139 3.91652 2.84298 3.91089 2.83372 3.90706C2.82447 3.90322 2.81455 3.90125 2.80453 3.90125C2.79451 3.90125 2.78459 3.90322 2.77533 3.90706C2.76608 3.91089 2.75767 3.91652 2.75059 3.92361Z" fill="black"/>
<path d="M8.41236 2.14578C8.15755 1.89066 7.85495 1.68824 7.52188 1.5501C7.1888 1.41196 6.83177 1.3408 6.47119 1.3407C6.1106 1.34059 5.75353 1.41154 5.42037 1.54948C5.08721 1.68743 4.7845 1.88966 4.52953 2.14464L3.28945 3.38453C3.28236 3.39161 3.27674 3.40002 3.2729 3.40928C3.26906 3.41853 3.26709 3.42845 3.26709 3.43847C3.26709 3.44849 3.26906 3.45841 3.2729 3.46767C3.27674 3.47693 3.28236 3.48533 3.28945 3.49241L4.47559 4.67836C4.48267 4.68545 4.49108 4.69108 4.50034 4.69491C4.50959 4.69875 4.51951 4.70073 4.52953 4.70073C4.53955 4.70073 4.54947 4.69875 4.55873 4.69491C4.56798 4.69108 4.57639 4.68545 4.58347 4.67836L5.82241 3.43847C5.90831 3.35258 6.01044 3.28466 6.12287 3.23866C6.23529 3.19266 6.35575 3.16951 6.47721 3.17056C6.59868 3.1716 6.71872 3.19683 6.83033 3.24476C6.94195 3.29269 7.0429 3.36236 7.1273 3.44972C7.47611 3.81035 7.46029 4.38826 7.10557 4.74298L5.87731 5.97163C5.87022 5.97871 5.86459 5.98712 5.86076 5.99637C5.85692 6.00563 5.85495 6.01555 5.85495 6.02557C5.85495 6.03559 5.85692 6.04551 5.86076 6.05476C5.86459 6.06402 5.87022 6.07243 5.87731 6.07951L7.06326 7.26565C7.07034 7.27274 7.07875 7.27836 7.088 7.2822C7.09726 7.28603 7.10718 7.28801 7.1172 7.28801C7.12722 7.28801 7.13714 7.28603 7.14639 7.2822C7.15565 7.27836 7.16406 7.27274 7.17114 7.26565L8.39254 6.04425C9.46699 4.97037 9.48605 3.2208 8.41236 2.14578Z" fill="black"/>
</g>
<defs>
<clipPath id="clip0_201_11732">
<rect width="9.75902" height="9.75902" fill="white" transform="translate(0.238281 0.55835)"/>
</clipPath>
</defs>
</svg>
