<svg width="11" height="11" viewBox="0 0 11 11" fill="none" xmlns="http://www.w3.org/2000/svg">
<path d="M9.96794 2.99911C9.96828 2.76409 9.90073 2.53398 9.7734 2.33644C9.64608 2.13891 9.4644 1.98235 9.25022 1.88561C9.03604 1.78887 8.79847 1.75606 8.56608 1.79112C8.3337 1.82618 8.11639 1.92762 7.94028 2.08324C7.84494 2.16735 7.76321 2.26572 7.69802 2.37487V2.37602C7.68773 2.39317 7.67801 2.41071 7.66848 2.42824L7.6639 2.43758C7.6559 2.45264 7.64846 2.46789 7.64122 2.48333C7.63893 2.48809 7.63684 2.49286 7.63474 2.49762C7.62845 2.51154 7.62235 2.52564 7.61663 2.53994C7.61415 2.54584 7.61187 2.55175 7.60958 2.55766C7.60443 2.571 7.59948 2.58435 7.59471 2.59788L7.58785 2.61808C7.58366 2.63105 7.57965 2.6442 7.57584 2.65735C7.57355 2.66478 7.57146 2.67203 7.56955 2.67946C7.56593 2.69223 7.56288 2.70519 7.55983 2.71758C7.55792 2.7254 7.55602 2.73321 7.5543 2.74103C7.55163 2.75399 7.54916 2.76714 7.54687 2.77915C7.54534 2.78715 7.54382 2.79516 7.54249 2.80316C7.54039 2.81651 7.53867 2.83004 7.53696 2.84357C7.536 2.85139 7.53486 2.8592 7.53391 2.86721C7.53238 2.88188 7.53143 2.89656 7.53029 2.91143C7.53029 2.91829 7.52914 2.92515 7.52876 2.93201C7.52762 2.95374 7.52686 2.97547 7.52686 2.99758C7.52686 3.01664 7.52686 3.0357 7.52838 3.05362V3.06582C7.5294 3.08373 7.53073 3.10165 7.53238 3.11957L7.53353 3.12872C7.53524 3.14492 7.53715 3.16093 7.53963 3.17675C7.53963 3.17999 7.53963 3.18342 7.54096 3.18666C7.54363 3.20401 7.54687 3.22116 7.5503 3.23832C7.5503 3.24251 7.55202 3.24651 7.55278 3.25071C7.55621 3.2671 7.56002 3.28349 7.56421 3.29969C7.56421 3.30103 7.56421 3.30217 7.56421 3.30331C7.5686 3.32028 7.57336 3.33686 7.57851 3.35344L7.58251 3.3664C7.58766 3.3826 7.593 3.39842 7.59871 3.41425C7.59986 3.41768 7.60119 3.42111 7.60253 3.42454C7.60767 3.43807 7.61301 3.4516 7.61854 3.46495C7.62006 3.46895 7.62159 3.47276 7.6233 3.47657C7.62978 3.49163 7.63645 3.50669 7.64351 3.52156L7.6498 3.53433C7.65647 3.54767 7.66314 3.56101 7.67019 3.57416C7.76969 3.75907 7.91499 3.91534 8.09219 4.028C8.13871 4.05771 8.18724 4.08414 8.23743 4.1071L8.24487 4.11053C8.27867 4.12578 8.31317 4.1395 8.34837 4.1517L8.36647 4.1578L8.39507 4.16676C8.40364 4.16943 8.41222 4.17171 8.42099 4.17419L8.45758 4.18372L8.49056 4.19135L8.51248 4.19573L8.54736 4.20202L8.56528 4.20488C8.58243 4.20736 8.59978 4.20964 8.61712 4.21155L8.6318 4.21288C8.64571 4.21403 8.65982 4.21517 8.67392 4.21593L8.69031 4.21689C8.70937 4.21689 8.72729 4.21841 8.74597 4.21841C8.76808 4.21841 8.78981 4.21841 8.81154 4.21651L8.83212 4.21498C8.84699 4.21384 8.86167 4.21288 8.87635 4.21136L8.90017 4.20831C8.91351 4.20659 8.92705 4.20488 8.94039 4.20278L8.96441 4.1984C8.97737 4.19611 8.99052 4.19363 9.00253 4.19096L9.02597 4.18544C9.03893 4.18239 9.05189 4.17934 9.06409 4.17572C9.07153 4.17381 9.07877 4.17171 9.0862 4.16943C9.09935 4.16561 9.11251 4.16161 9.12547 4.15742L9.14567 4.15056C9.1592 4.14579 9.17255 4.14083 9.18589 4.13569L9.20362 4.12864C9.21791 4.12292 9.23202 4.11682 9.24593 4.11053L9.26023 4.10405C9.27566 4.0968 9.29091 4.08937 9.30597 4.08137L9.31531 4.07679C9.33285 4.06726 9.35038 4.05773 9.36754 4.04725H9.36868C9.47871 3.98257 9.57799 3.90116 9.66298 3.80594C9.85979 3.58328 9.96827 3.29628 9.96794 2.99911Z" fill="black"/>
<path d="M7.59232 4.41875L5.58028 5.98362C5.52676 6.02523 5.4609 6.04782 5.39311 6.04782C5.32531 6.04782 5.25945 6.02523 5.20593 5.98362L2.46121 3.84883C2.42896 3.82448 2.40187 3.79396 2.38152 3.75905C2.36117 3.72414 2.34796 3.68553 2.34266 3.64547C2.33736 3.60541 2.34007 3.56469 2.35064 3.52569C2.36121 3.48669 2.37943 3.45017 2.40423 3.41827C2.42904 3.38637 2.45994 3.35971 2.49513 3.33986C2.53033 3.32 2.56912 3.30733 2.60925 3.3026C2.64938 3.29786 2.69005 3.30115 2.7289 3.31227C2.76775 3.32338 2.80401 3.34211 2.83556 3.36736L5.39311 5.35653L7.18899 3.95977C7.01523 3.67865 6.92096 3.35567 6.91622 3.02522C6.91149 2.69477 6.99647 2.36923 7.16212 2.08325H2.19093C1.90793 2.08355 1.63661 2.19611 1.4365 2.39622C1.23639 2.59633 1.12384 2.86765 1.12354 3.15064V7.72519C1.12384 8.00818 1.23639 8.2795 1.4365 8.47961C1.63661 8.67972 1.90793 8.79228 2.19093 8.79258H8.59528C8.87828 8.79228 9.1496 8.67972 9.34971 8.47961C9.54982 8.2795 9.66237 8.00818 9.66268 7.72519V4.58381C9.34164 4.76977 8.97159 4.85358 8.60176 4.82409C8.23193 4.79461 7.87983 4.65322 7.59232 4.41875Z" fill="black"/>
</svg>
