<svg width="11" height="11" viewBox="0 0 11 11" fill="none" xmlns="http://www.w3.org/2000/svg">
<path d="M9.01815 3.50235L5.69074 1.85838C5.58336 1.80571 5.46535 1.77832 5.34574 1.77832C5.22614 1.77832 5.10813 1.80571 5.00075 1.85838L1.67334 3.50235C1.49417 3.58928 1.34312 3.72493 1.2375 3.89376C1.13188 4.06259 1.07597 4.25776 1.07617 4.45691V7.97568C1.07617 8.56427 1.56069 9.04308 2.15634 9.04308H8.53515C9.13079 9.04308 9.61531 8.56427 9.61531 7.97568V4.45691C9.61552 4.25776 9.55961 4.06259 9.45399 3.89376C9.34837 3.72493 9.19732 3.58928 9.01815 3.50235ZM5.27674 2.40389C5.29822 2.39336 5.32182 2.38788 5.34574 2.38788C5.36966 2.38788 5.39327 2.39336 5.41474 2.40389L8.64323 3.9985L5.3648 5.61865C5.34333 5.62918 5.31973 5.63466 5.2958 5.63466C5.27188 5.63466 5.24828 5.62918 5.22681 5.61865L1.99775 4.02385L5.27674 2.40389Z" fill="black"/>
</svg>
