<svg width="11" height="11" viewBox="0 0 11 11" fill="none" xmlns="http://www.w3.org/2000/svg">
<g clip-path="url(#clip0_201_11753)">
<path d="M6.79434 2.38831H2.37229C2.17008 2.38831 1.97615 2.46863 1.83317 2.61161C1.69019 2.7546 1.60986 2.94852 1.60986 3.15073V7.72527C1.60986 7.92748 1.69019 8.1214 1.83317 8.26438C1.97615 8.40737 2.17008 8.48769 2.37229 8.48769H8.75244C8.95464 8.48769 9.14857 8.40737 9.29155 8.26438C9.43453 8.1214 9.51486 7.92748 9.51486 7.72527V5.11397" stroke="black" stroke-width="0.609939" stroke-linecap="round" stroke-linejoin="round"/>
<path d="M2.82959 3.60815L5.57431 5.74294L7.23259 4.49123" stroke="black" stroke-width="0.609939" stroke-linecap="round" stroke-linejoin="round"/>
<path d="M8.92812 3.91312C9.43288 3.91312 9.84207 3.50392 9.84207 2.99916C9.84207 2.4944 9.43288 2.08521 8.92812 2.08521C8.42335 2.08521 8.01416 2.4944 8.01416 2.99916C8.01416 3.50392 8.42335 3.91312 8.92812 3.91312Z" fill="black"/>
<path d="M8.92889 4.218C8.68781 4.218 8.45214 4.14651 8.25169 4.01258C8.05124 3.87864 7.895 3.68827 7.80275 3.46554C7.71049 3.24281 7.68635 2.99772 7.73338 2.76128C7.78042 2.52483 7.89651 2.30764 8.06698 2.13717C8.23745 1.9667 8.45464 1.85061 8.69109 1.80357C8.92753 1.75654 9.17262 1.78068 9.39535 1.87294C9.61808 1.96519 9.80845 2.12143 9.94238 2.32188C10.0763 2.52233 10.1478 2.758 10.1478 2.99908C10.1476 3.32228 10.0191 3.63217 9.79052 3.86071C9.56198 4.08925 9.25209 4.21775 8.92889 4.218ZM8.92889 2.39009C8.80821 2.3899 8.69019 2.42551 8.58976 2.49242C8.48933 2.55933 8.41101 2.65452 8.3647 2.76595C8.31839 2.87739 8.30617 3.00006 8.3296 3.11844C8.35302 3.23682 8.41104 3.34559 8.4963 3.43098C8.58157 3.51638 8.69025 3.57457 8.80859 3.59818C8.92693 3.62179 9.04962 3.60977 9.16113 3.56363C9.27263 3.51749 9.36795 3.43932 9.43501 3.33899C9.50207 3.23867 9.53787 3.1207 9.53787 3.00003C9.53787 2.83843 9.47374 2.68343 9.35956 2.56907C9.24538 2.45472 9.09049 2.39034 8.92889 2.39009Z" fill="black"/>
</g>
<defs>
<clipPath id="clip0_201_11753">
<rect width="9.75902" height="9.75902" fill="white" transform="translate(0.694824 0.55835)"/>
</clipPath>
</defs>
</svg>
