<svg width="10" height="11" viewBox="0 0 10 11" fill="none" xmlns="http://www.w3.org/2000/svg">
<g clip-path="url(#clip0_201_11744)">
<path d="M9.03554 3.76757L5.07456 1.81062C5.03164 1.78945 4.98442 1.77844 4.93656 1.77844C4.8887 1.77844 4.84149 1.78945 4.79856 1.81062L0.838537 3.76757C0.787329 3.79248 0.74412 3.83124 0.713802 3.87944C0.683484 3.92765 0.667268 3.98338 0.666992 4.04033V8.7927C0.667217 8.83299 0.675378 8.87284 0.691011 8.90998C0.706643 8.94711 0.729439 8.98081 0.758097 9.00913C0.786755 9.03745 0.820713 9.05985 0.85803 9.07504C0.895347 9.09023 0.935292 9.09792 0.975583 9.09767H8.89754C8.93783 9.09792 8.97778 9.09023 9.0151 9.07504C9.05241 9.05985 9.08637 9.03745 9.11503 9.00913C9.14369 8.98081 9.16648 8.94711 9.18212 8.90998C9.19775 8.87284 9.20591 8.83299 9.20613 8.7927V4.04033C9.20595 3.98348 9.18987 3.92782 9.15973 3.87962C9.12959 3.83143 9.08657 3.79262 9.03554 3.76757ZM4.93656 2.42437L8.23404 4.05291L4.8851 5.70698L1.58762 4.07845L4.93656 2.42437Z" fill="black"/>
</g>
<defs>
<clipPath id="clip0_201_11744">
<rect width="9.75902" height="9.75902" fill="white" transform="translate(0.0571289 0.55835)"/>
</clipPath>
</defs>
</svg>
