<svg width="11" height="11" viewBox="0 0 11 11" fill="none" xmlns="http://www.w3.org/2000/svg">
<path d="M9.06475 3.82944L5.73429 2.18565C5.66985 2.15386 5.59896 2.13733 5.5271 2.13733C5.45525 2.13733 5.38435 2.15386 5.31991 2.18565L1.98946 3.82944C1.86178 3.892 1.75414 3.98901 1.67869 4.10952C1.60324 4.23004 1.563 4.36925 1.5625 4.51143V8.0302C1.5625 8.45125 1.90826 8.79263 2.33483 8.79263H8.72013C9.14671 8.79263 9.49247 8.45125 9.49247 8.0302V4.51143C9.4919 4.36917 9.45154 4.2299 9.37595 4.10938C9.30037 3.98886 9.19257 3.89189 9.06475 3.82944V3.82944Z" stroke="black" stroke-width="0.609939" stroke-linecap="round" stroke-linejoin="round"/>
<path d="M8.22089 7.57278L5.75712 5.65643C5.67682 5.59397 5.578 5.56006 5.47627 5.56006C5.37454 5.56006 5.27571 5.59397 5.19541 5.65643L2.73145 7.57278" stroke="black" stroke-width="0.609939" stroke-linecap="round" stroke-linejoin="round"/>
<path d="M6.54346 6.18138L9.1357 4.21814" stroke="black" stroke-width="0.609939" stroke-linecap="round" stroke-linejoin="round"/>
<path d="M1.81641 4.21814L4.46583 6.2195" stroke="black" stroke-width="0.609939" stroke-linecap="round" stroke-linejoin="round"/>
</svg>
