<svg width="10" height="11" viewBox="0 0 10 11" fill="none" xmlns="http://www.w3.org/2000/svg">
<g clip-path="url(#clip0_201_11758)">
<path d="M7.23467 2.48354C7.23257 2.48792 7.23067 2.4923 7.22876 2.49688C7.22228 2.51117 7.21599 2.52547 7.2097 2.53996L7.20284 2.55711C7.19769 2.57064 7.19255 2.58418 7.18778 2.5979C7.1855 2.60457 7.18321 2.61124 7.18111 2.61696C7.17673 2.62992 7.17272 2.64307 7.16891 2.65642L7.16262 2.67834C7.15919 2.69104 7.15595 2.70375 7.1529 2.71646C7.151 2.72427 7.14909 2.73209 7.14756 2.7399C7.14471 2.75267 7.14223 2.76582 7.13994 2.77802C7.13842 2.78603 7.13689 2.79403 7.13556 2.80223C7.13346 2.81538 7.13174 2.82891 7.13003 2.84226C7.12908 2.85026 7.12793 2.85808 7.12698 2.86608C7.12545 2.88076 7.1245 2.89544 7.12336 2.91011C7.12336 2.91697 7.12221 2.92384 7.12183 2.93089C7.12069 2.95243 7.12012 2.97416 7.12012 2.99589C7.12012 3.01495 7.12012 3.03401 7.12145 3.05192V3.06374C7.1224 3.08185 7.12374 3.09977 7.12545 3.11768L7.1266 3.12645C7.12831 3.14303 7.13041 3.15924 7.1327 3.17544C7.1327 3.1783 7.1327 3.18135 7.13403 3.1842C7.1367 3.20174 7.13994 3.21928 7.14337 3.23662L7.14566 3.24787C7.14947 3.2654 7.15328 3.28294 7.15786 3.30028C7.16224 3.31782 7.16739 3.33497 7.17253 3.35194C7.17368 3.35556 7.17482 3.35918 7.17577 3.3628C7.18111 3.37958 7.18664 3.39597 7.19255 3.41217C7.1935 3.41503 7.19464 3.4177 7.1956 3.42036C7.20113 3.43523 7.20703 3.44991 7.21313 3.46459C7.21409 3.46725 7.21523 3.46992 7.21637 3.47259C7.22304 3.48841 7.23029 3.50404 7.23753 3.51967L7.24268 3.52977C7.2503 3.5454 7.25812 3.56103 7.26631 3.57628C7.39246 3.80796 7.59008 3.99269 7.82974 4.10292L7.8368 4.10617C7.87072 4.12141 7.90522 4.13533 7.94068 4.14753L7.95878 4.15363L7.98737 4.16258C7.99595 4.16525 8.00453 4.16754 8.0133 4.17002L8.04989 4.17955C8.06076 4.18222 8.07162 4.18469 8.08268 4.18698L8.1046 4.19156L8.13948 4.19766L8.1572 4.20071C8.17436 4.20318 8.1917 4.20528 8.20905 4.20719L8.22373 4.20852C8.23764 4.20985 8.25174 4.211 8.26604 4.21176L8.28224 4.21271C8.3013 4.21271 8.31922 4.21405 8.33809 4.21405C8.36001 4.21405 8.38174 4.21405 8.40347 4.21233L8.42424 4.21062C8.43892 4.21062 8.4536 4.20852 8.46808 4.207C8.47609 4.207 8.4839 4.20509 8.49191 4.20395C8.50525 4.20242 8.51878 4.20071 8.53193 4.19861L8.55614 4.19423C8.5691 4.19194 8.58206 4.18946 8.59426 4.18679L8.6179 4.18126C8.63067 4.17821 8.64363 4.17516 8.65602 4.17154C8.66345 4.16964 8.67089 4.16754 8.67813 4.16525C8.69128 4.16144 8.70424 4.15744 8.7172 4.15324L8.7376 4.14638C8.75094 4.14181 8.76428 4.13685 8.77763 4.13171L8.79554 4.12465C8.80965 4.11894 8.82356 4.11284 8.83729 4.10655L8.85196 4.10007C8.86721 4.09301 8.88208 4.08539 8.89694 4.07776C8.90019 4.07605 8.90362 4.07452 8.90686 4.07262C8.9242 4.06347 8.94117 4.05356 8.95794 4.04403L8.96023 4.04269C9.12198 3.94649 9.25926 3.81415 9.36131 3.65602C9.46336 3.4979 9.52741 3.31829 9.54844 3.13128C9.56948 2.94426 9.54692 2.75491 9.48254 2.57807C9.41816 2.40123 9.31371 2.2417 9.17737 2.11197C9.04103 1.98225 8.8765 1.88586 8.69668 1.83035C8.51685 1.77484 8.32662 1.76173 8.14088 1.79203C7.95514 1.82233 7.77894 1.89524 7.62608 2.00502C7.47323 2.11481 7.34787 2.2585 7.25983 2.42483L7.25583 2.43226C7.25011 2.4519 7.24211 2.46772 7.23467 2.48354Z" fill="black"/>
<path d="M7.18513 4.41684L5.17061 5.98362C5.11709 6.02523 5.05123 6.04782 4.98344 6.04782C4.91565 6.04782 4.84979 6.02523 4.79626 5.98362L1.8108 3.66166L2.18515 3.18019L4.98344 5.35653L6.78199 3.95767C6.60868 3.67675 6.51474 3.3541 6.51017 3.02404C6.50561 2.69398 6.59059 2.36886 6.75607 2.08325H1.01884C0.937954 2.08325 0.860383 2.11538 0.803191 2.17258C0.745998 2.22977 0.713867 2.30734 0.713867 2.38822V8.48761C0.713867 8.56849 0.745998 8.64606 0.803191 8.70326C0.860383 8.76045 0.937954 8.79258 1.01884 8.79258H8.94804C9.02892 8.79258 9.10649 8.76045 9.16369 8.70326C9.22088 8.64606 9.25301 8.56849 9.25301 8.48761V4.58267C8.93225 4.76823 8.5626 4.85176 8.19322 4.82214C7.82383 4.79252 7.47222 4.65115 7.18513 4.41684Z" fill="black"/>
</g>
<defs>
<clipPath id="clip0_201_11758">
<rect width="9.75902" height="9.75902" fill="white" transform="translate(0.104492 0.55835)"/>
</clipPath>
</defs>
</svg>
