<svg width="11" height="11" viewBox="0 0 11 11" fill="none" xmlns="http://www.w3.org/2000/svg">
<path d="M8.80464 1.47339H7.08918C6.97797 1.47339 6.87131 1.51757 6.79267 1.59621C6.71403 1.67485 6.66985 1.78151 6.66985 1.89272C6.66985 2.00394 6.71403 2.11059 6.79267 2.18923C6.87131 2.26787 6.97797 2.31205 7.08918 2.31205H7.79233L6.64126 3.46312C5.34152 2.45558 3.45814 2.54822 2.26609 3.74084C0.973024 5.0341 0.973024 7.138 2.26686 8.4305C2.88929 9.05107 3.73237 9.39955 4.61131 9.39955C5.49024 9.39955 6.33333 9.05107 6.95576 8.4305C8.14838 7.23769 8.24102 5.35508 7.23347 4.05534L8.3853 2.90503V3.60817C8.3853 3.71939 8.42948 3.82605 8.50812 3.90469C8.58676 3.98333 8.69342 4.02751 8.80464 4.02751C8.91585 4.02751 9.02251 3.98333 9.10115 3.90469C9.17979 3.82605 9.22397 3.71939 9.22397 3.60817V1.89272C9.22397 1.83765 9.21312 1.78313 9.19205 1.73225C9.17098 1.68137 9.14009 1.63515 9.10115 1.59621C9.06221 1.55727 9.01598 1.52638 8.96511 1.50531C8.91423 1.48424 8.8597 1.47339 8.80464 1.47339ZM6.36336 7.8381C5.89835 8.30214 5.26824 8.56275 4.61131 8.56275C3.95437 8.56275 3.32427 8.30214 2.85926 7.8381C1.89308 6.87211 1.89308 5.29999 2.85926 4.334C3.82544 3.36801 5.39737 3.36782 6.36336 4.334C7.32935 5.30018 7.32954 6.87211 6.36336 7.8381Z" fill="black"/>
</svg>
