<svg width="11" height="11" viewBox="0 0 11 11" fill="none" xmlns="http://www.w3.org/2000/svg">
<path d="M7.26018 1.47339V2.31205H8.38266L7.23159 3.46312C5.93166 2.45558 4.04847 2.54822 2.85643 3.74084C1.56336 5.0341 1.56336 7.138 2.85719 8.4305C3.47962 9.05107 4.3227 9.39955 5.20164 9.39955C6.08058 9.39955 6.92366 9.05107 7.54609 8.4305C8.73871 7.23769 8.83135 5.35527 7.8238 4.05534L8.97564 2.90503V4.02751H9.8143V1.47339H7.26018ZM6.95369 7.8381C6.48868 8.30214 5.85858 8.56275 5.20164 8.56275C4.5447 8.56275 3.9146 8.30214 3.44959 7.8381C2.48341 6.87211 2.48341 5.29999 3.44959 4.334C4.41577 3.36801 5.9877 3.36782 6.95369 4.334C7.91968 5.30018 7.91987 6.87211 6.95369 7.8381Z" fill="black"/>
</svg>
