<svg width="11" height="11" viewBox="0 0 11 11" fill="none" xmlns="http://www.w3.org/2000/svg">
<g clip-path="url(#clip0_201_11772)">
<path d="M7.03214 0.863403V1.70207H7.84965L7.1425 2.40903C6.86025 2.07957 6.51003 1.81513 6.11589 1.63387C5.72176 1.45262 5.29305 1.35884 4.85923 1.35898C3.19867 1.35898 1.84766 2.70999 1.84766 4.37055C1.84766 5.88892 2.97719 7.14806 4.4399 7.35277V8.06831H3.48687V8.90697H4.4399V10.0125H5.27856V8.90697H6.23159V8.06831H5.27856V7.35277C6.74127 7.14806 7.8708 5.88892 7.8708 4.37055C7.871 3.94372 7.78002 3.52177 7.60395 3.13295L8.44262 2.29428V3.11255H9.28129V0.863403H7.03214ZM4.85923 6.54346C4.42947 6.54346 4.00936 6.41602 3.65203 6.17726C3.29469 5.9385 3.01619 5.59913 2.85172 5.20209C2.68726 4.80504 2.64423 4.36814 2.72807 3.94664C2.81192 3.52514 3.01887 3.13796 3.32275 2.83407C3.62664 2.53019 4.01381 2.32324 4.43532 2.2394C4.85682 2.15555 5.29372 2.19858 5.69076 2.36305C6.08781 2.52751 6.42717 2.80602 6.66594 3.16335C6.9047 3.52068 7.03214 3.94079 7.03214 4.37055C7.03148 4.94664 6.80234 5.49895 6.39498 5.9063C5.98763 6.31366 5.43532 6.5428 4.85923 6.54346Z" fill="black"/>
</g>
<defs>
<clipPath id="clip0_201_11772">
<rect width="9.75902" height="9.75902" fill="white" transform="translate(0.742188 0.55835)"/>
</clipPath>
</defs>
</svg>
