<svg width="10" height="11" viewBox="0 0 10 11" fill="none" xmlns="http://www.w3.org/2000/svg">
<g clip-path="url(#clip0_201_11789)">
<path d="M5.07814 2.69314C5.66764 2.69314 6.14553 2.21525 6.14553 1.62574C6.14553 1.03624 5.66764 0.55835 5.07814 0.55835C4.48863 0.55835 4.01074 1.03624 4.01074 1.62574C4.01074 2.21525 4.48863 2.69314 5.07814 2.69314Z" fill="black"/>
<path d="M6.60299 2.99817H3.5533C3.39153 2.99817 3.23639 3.06243 3.12201 3.17682C3.00762 3.2912 2.94336 3.44634 2.94336 3.60811V6.6578H3.85827V4.21805H4.01075V10.3174H5.0019V6.81029H5.15439V10.3174H6.14554V4.21805H6.29802V6.6578H7.21293V3.60811C7.21293 3.44634 7.14867 3.2912 7.03428 3.17682C6.9199 3.06243 6.76476 2.99817 6.60299 2.99817Z" fill="black"/>
</g>
<defs>
<clipPath id="clip0_201_11789">
<rect width="9.75902" height="9.75902" fill="white" transform="translate(0.19873 0.55835)"/>
</clipPath>
</defs>
</svg>
