<svg width="11" height="11" viewBox="0 0 11 11" fill="none" xmlns="http://www.w3.org/2000/svg">
<g clip-path="url(#clip0_201_11784)">
<path d="M4.75394 4.52307V9.55507C4.75325 9.61533 4.76461 9.67513 4.78735 9.73094C4.8101 9.78675 4.84377 9.83746 4.88638 9.88007C4.929 9.92269 4.9797 9.95636 5.03552 9.9791C5.09133 10.0018 5.15112 10.0132 5.21139 10.0125V10.0125C5.27166 10.0132 5.33145 10.0018 5.38726 9.9791C5.44308 9.95636 5.49378 9.92269 5.5364 9.88007C5.57901 9.83746 5.61268 9.78675 5.63543 9.73094C5.65817 9.67513 5.66953 9.61533 5.66884 9.55507" stroke="black" stroke-width="0.609939" stroke-miterlimit="10" stroke-linecap="round"/>
<path d="M5.66849 6.96283V9.55507C5.6678 9.61533 5.67916 9.67513 5.7019 9.73094C5.72465 9.78675 5.75832 9.83746 5.80093 9.88007C5.84355 9.92269 5.89426 9.95636 5.95007 9.9791C6.00588 10.0018 6.06568 10.0132 6.12594 10.0125C6.18621 10.0132 6.246 10.0018 6.30181 9.9791C6.35763 9.95636 6.40833 9.92269 6.45095 9.88007C6.49356 9.83746 6.52723 9.78675 6.54998 9.73094C6.57272 9.67513 6.58408 9.61533 6.58339 9.55507V4.52307" stroke="black" stroke-width="0.609939" stroke-miterlimit="10" stroke-linecap="round"/>
<path d="M4.75381 4.21813V5.89546C4.75452 5.95573 4.74318 6.01554 4.72044 6.07137C4.69771 6.12719 4.66404 6.1779 4.62142 6.22053C4.5788 6.26315 4.52808 6.29682 4.47226 6.31955C4.41643 6.34229 4.35663 6.35363 4.29635 6.35292V6.35292C4.23608 6.35363 4.17627 6.34229 4.12045 6.31955C4.06463 6.29682 4.01391 6.26315 3.97129 6.22053C3.92867 6.1779 3.895 6.12719 3.87226 6.07137C3.84953 6.01554 3.83818 5.95573 3.8389 5.89546V4.21813C3.8389 3.97548 3.93529 3.74277 4.10687 3.57119C4.27845 3.39961 4.51116 3.30322 4.75381 3.30322H6.58362C6.82627 3.30322 7.05898 3.39961 7.23056 3.57119C7.40214 3.74277 7.49853 3.97548 7.49853 4.21813V5.89546C7.49925 5.95573 7.4879 6.01554 7.46517 6.07137C7.44243 6.12719 7.40876 6.1779 7.36614 6.22053C7.32352 6.26315 7.27281 6.29682 7.21698 6.31955C7.16116 6.34229 7.10135 6.35363 7.04108 6.35292V6.35292C6.98081 6.35363 6.921 6.34229 6.86517 6.31955C6.80935 6.29682 6.75864 6.26315 6.71601 6.22053C6.67339 6.1779 6.63972 6.12719 6.61699 6.07137C6.59425 6.01554 6.58291 5.95573 6.58362 5.89546V4.21813" stroke="black" stroke-width="0.609939" stroke-miterlimit="10" stroke-linecap="round"/>
<path d="M5.66867 2.38825C6.08975 2.38825 6.4311 2.0469 6.4311 1.62583C6.4311 1.20475 6.08975 0.863403 5.66867 0.863403C5.2476 0.863403 4.90625 1.20475 4.90625 1.62583C4.90625 2.0469 5.2476 2.38825 5.66867 2.38825Z" stroke="black" stroke-width="0.609939" stroke-miterlimit="10" stroke-linecap="round"/>
</g>
<defs>
<clipPath id="clip0_201_11784">
<rect width="9.75902" height="9.75902" fill="white" transform="translate(0.789062 0.55835)"/>
</clipPath>
</defs>
</svg>
