<svg width="11" height="11" viewBox="0 0 11 11" fill="none" xmlns="http://www.w3.org/2000/svg">
<g clip-path="url(#clip0_201_11792)">
<path d="M5.48731 2.69314C6.07682 2.69314 6.55471 2.21525 6.55471 1.62574C6.55471 1.03624 6.07682 0.55835 5.48731 0.55835C4.89781 0.55835 4.41992 1.03624 4.41992 1.62574C4.41992 2.21525 4.89781 2.69314 5.48731 2.69314Z" fill="black"/>
<path d="M6.40223 2.99817H4.57242C4.24918 2.99912 3.93945 3.12795 3.71089 3.35652C3.48232 3.58508 3.35349 3.89481 3.35254 4.21805V6.26744C3.35254 6.47425 3.51322 6.65018 3.71984 6.65761C3.77104 6.65948 3.8221 6.65101 3.86995 6.6327C3.91781 6.6144 3.96148 6.58663 3.99837 6.55106C4.03525 6.5155 4.06458 6.47286 4.08462 6.4257C4.10465 6.37854 4.11497 6.32783 4.11496 6.27659V4.37568C4.11448 4.33634 4.12888 4.29827 4.15529 4.26911C4.1817 4.23994 4.21815 4.22184 4.25735 4.21843C4.2782 4.21704 4.29912 4.21996 4.31881 4.227C4.33849 4.23404 4.35651 4.24505 4.37176 4.25935C4.38701 4.27365 4.39915 4.29094 4.40744 4.31013C4.41573 4.32932 4.41998 4.35001 4.41993 4.37091V9.87904C4.41993 9.99531 4.46612 10.1068 4.54833 10.189C4.63055 10.2712 4.74206 10.3174 4.85833 10.3174C4.97459 10.3174 5.0861 10.2712 5.16832 10.189C5.25053 10.1068 5.29672 9.99531 5.29672 9.87904V7.15986C5.29604 7.11063 5.31399 7.06297 5.34697 7.02643C5.37995 6.98988 5.42552 6.96714 5.47455 6.96277C5.50064 6.96102 5.5268 6.96465 5.55142 6.97344C5.57604 6.98224 5.59859 6.996 5.61767 7.01387C5.63674 7.03175 5.65194 7.05336 5.6623 7.07736C5.67267 7.10136 5.67799 7.12723 5.67793 7.15338V9.87904C5.67793 9.99531 5.72412 10.1068 5.80633 10.189C5.88855 10.2712 6.00006 10.3174 6.11632 10.3174C6.23259 10.3174 6.3441 10.2712 6.42632 10.189C6.50853 10.1068 6.55472 9.99531 6.55472 9.87904V4.37568C6.55423 4.33634 6.56864 4.29827 6.59504 4.26911C6.62145 4.23994 6.65791 4.22184 6.6971 4.21843C6.71796 4.21704 6.73888 4.21996 6.75856 4.227C6.77824 4.23404 6.79627 4.24505 6.81152 4.25935C6.82676 4.27365 6.83891 4.29094 6.84719 4.31013C6.85548 4.32932 6.85973 4.35001 6.85969 4.37091V6.26782C6.85969 6.47463 7.02037 6.65056 7.22698 6.65799C7.27822 6.65986 7.32931 6.65138 7.37719 6.63305C7.42507 6.61472 7.46876 6.58692 7.50565 6.55131C7.54254 6.51571 7.57187 6.47302 7.59188 6.42582C7.61189 6.37862 7.62217 6.32786 7.62211 6.27659V4.21805C7.62116 3.89481 7.49233 3.58508 7.26376 3.35652C7.0352 3.12795 6.72547 2.99912 6.40223 2.99817Z" fill="black"/>
</g>
<defs>
<clipPath id="clip0_201_11792">
<rect width="9.75902" height="9.75902" fill="white" transform="translate(0.60791 0.55835)"/>
</clipPath>
</defs>
</svg>
