<svg width="10" height="11" viewBox="0 0 10 11" fill="none" xmlns="http://www.w3.org/2000/svg">
<g clip-path="url(#clip0_201_11795)">
<path d="M5.98882 2.93407L3.80562 1.53731C3.71878 1.49393 3.62283 1.47191 3.52576 1.47307C3.4287 1.47423 3.33331 1.49854 3.24753 1.54398L1.09482 2.98839C1.04585 3.01434 1.00487 3.05314 0.97629 3.10063C0.947711 3.14811 0.932612 3.20249 0.932617 3.25791V8.89603C0.932613 8.94863 0.94621 9.00033 0.972088 9.04611C0.997966 9.0919 1.03525 9.13022 1.08031 9.15734C1.12536 9.18447 1.17667 9.19948 1.22925 9.20091C1.28182 9.20235 1.33388 9.19017 1.38035 9.16555L3.24486 7.94967C3.33134 7.90386 3.42758 7.87952 3.52544 7.87873C3.62331 7.87793 3.71993 7.90069 3.80714 7.9451L5.93926 9.33652C6.02572 9.38058 6.12144 9.40337 6.21847 9.403C6.3155 9.40264 6.41104 9.37913 6.49716 9.33443L8.69733 7.88696C8.7469 7.86124 8.78846 7.82239 8.81747 7.77466C8.84647 7.72693 8.86182 7.67216 8.86182 7.6163V1.97971C8.86183 1.92711 8.84823 1.87541 8.82235 1.82963C8.79647 1.78384 8.75919 1.74552 8.71413 1.7184C8.66907 1.69127 8.61776 1.67626 8.56519 1.67483C8.51262 1.67339 8.46056 1.68557 8.41409 1.71019L6.54615 2.9274C6.46047 2.97272 6.36521 2.99696 6.26829 2.99812C6.17137 2.99928 6.07556 2.97732 5.98882 2.93407Z" stroke="black" stroke-width="0.609939" stroke-linecap="round" stroke-linejoin="round"/>
<path d="M6.26953 2.99817V9.40253" stroke="black" stroke-width="0.609939" stroke-linecap="round" stroke-linejoin="round"/>
<path d="M3.5249 1.47327V7.87762" stroke="black" stroke-width="0.609939" stroke-linecap="round" stroke-linejoin="round"/>
</g>
<defs>
<clipPath id="clip0_201_11795">
<rect width="9.75902" height="9.75902" fill="white" transform="translate(0.0175781 0.55835)"/>
</clipPath>
</defs>
</svg>
