<svg width="11" height="11" viewBox="0 0 11 11" fill="none" xmlns="http://www.w3.org/2000/svg">
<path d="M1.7545 2.71877C1.66065 2.77219 1.58266 2.84957 1.52851 2.943C1.47436 3.03644 1.44599 3.14257 1.44629 3.25056V8.90698C1.44595 9.01237 1.47292 9.11604 1.52458 9.2079C1.57623 9.29976 1.6508 9.37667 1.74103 9.43114C1.83125 9.4856 1.93405 9.51575 2.0394 9.51866C2.14474 9.52157 2.24905 9.49713 2.34214 9.44773C2.35034 9.44334 2.35834 9.43877 2.36616 9.43362L3.96991 8.38434C3.99121 8.37045 4.0087 8.35146 4.02078 8.32908C4.03287 8.30671 4.03916 8.28168 4.0391 8.25625V1.44381C4.03918 1.41603 4.03167 1.38876 4.01738 1.36494C4.00309 1.34112 3.98257 1.32165 3.95802 1.30865C3.93348 1.29564 3.90585 1.28958 3.87812 1.29113C3.85038 1.29268 3.8236 1.30178 3.80066 1.31743L1.7545 2.71877Z" fill="black"/>
<path d="M4.88403 1.30772C4.86104 1.29277 4.83444 1.2843 4.80704 1.2832C4.77964 1.2821 4.75245 1.28841 4.72834 1.30146C4.70422 1.31452 4.68407 1.33383 4.67001 1.35737C4.65595 1.38091 4.6485 1.40781 4.64844 1.43523V8.25054C4.64838 8.27596 4.65468 8.301 4.66676 8.32337C4.67884 8.34574 4.69633 8.36473 4.71763 8.37862L6.54744 9.56838C6.57045 9.58339 6.59708 9.5919 6.62453 9.59302C6.65197 9.59414 6.67921 9.58782 6.70336 9.57474C6.72751 9.56166 6.74768 9.5423 6.76174 9.5187C6.7758 9.4951 6.78322 9.46815 6.78322 9.44068V2.62976C6.7833 2.60428 6.77698 2.5792 6.76486 2.55679C6.75274 2.53438 6.7352 2.51537 6.71384 2.50148L4.88403 1.30772Z" fill="black"/>
<path d="M9.69044 1.44416C9.60055 1.38914 9.49782 1.35865 9.39247 1.3557C9.28713 1.35276 9.18285 1.37747 9.09003 1.42738C9.08181 1.4316 9.07386 1.43631 9.06621 1.44149L7.46226 2.48982C7.44096 2.50371 7.42347 2.5227 7.41139 2.54507C7.39931 2.56744 7.39301 2.59248 7.39307 2.61791V9.4313C7.39297 9.45911 7.40047 9.48642 7.41477 9.51027C7.42907 9.53412 7.44962 9.55361 7.47419 9.56662C7.49877 9.57963 7.52643 9.58568 7.55419 9.5841C7.58196 9.58253 7.60876 9.57339 7.63171 9.55768L9.67252 8.15749C9.76751 8.1045 9.8466 8.02707 9.90159 7.93323C9.95659 7.83939 9.98549 7.73256 9.98531 7.62379V1.98185C9.98656 1.87443 9.96008 1.76851 9.90843 1.67431C9.85677 1.58012 9.78169 1.50085 9.69044 1.44416Z" fill="black"/>
</svg>
