<svg width="11" height="11" viewBox="0 0 11 11" fill="none" xmlns="http://www.w3.org/2000/svg">
<g clip-path="url(#clip0_201_11812)">
<path d="M2.17984 1.16833L0.959961 3.60809H6.47057L7.99961 1.16833H2.17984Z" fill="black"/>
<path d="M10.1095 3.30312L8.73718 1.16833L6.33554 4.96292C5.81704 4.78281 5.25295 4.78281 4.73445 4.96292L4.26804 4.21803H1.49072L3.14251 6.78911C3.0715 7.14314 3.07995 7.50852 3.16726 7.85889C3.25457 8.20926 3.41857 8.53588 3.64741 8.81519C3.87625 9.0945 4.16424 9.31953 4.4906 9.47404C4.81695 9.62856 5.17353 9.70871 5.53462 9.70871C5.8957 9.70871 6.25228 9.62856 6.57864 9.47404C6.90499 9.31953 7.19298 9.0945 7.42182 8.81519C7.65067 8.53588 7.81466 8.20926 7.90197 7.85889C7.98928 7.50852 7.99774 7.14314 7.92672 6.78911L10.1095 3.30312ZM5.535 8.60196C5.27111 8.60196 5.01315 8.52371 4.79373 8.3771C4.57432 8.2305 4.40331 8.02212 4.30232 7.77832C4.20133 7.53451 4.17491 7.26624 4.22639 7.00743C4.27788 6.74861 4.40495 6.51087 4.59155 6.32427C4.77814 6.13768 5.01588 6.0106 5.2747 5.95912C5.53352 5.90764 5.80179 5.93406 6.04559 6.03504C6.28939 6.13603 6.49777 6.30704 6.64438 6.52646C6.79099 6.74587 6.86924 7.00384 6.86924 7.26772C6.86883 7.62146 6.72813 7.9606 6.478 8.21073C6.22787 8.46086 5.88874 8.60156 5.535 8.60196Z" fill="black"/>
<path d="M5.53474 7.87759C5.8716 7.87759 6.14468 7.60451 6.14468 7.26765C6.14468 6.93079 5.8716 6.65771 5.53474 6.65771C5.19788 6.65771 4.9248 6.93079 4.9248 7.26765C4.9248 7.60451 5.19788 7.87759 5.53474 7.87759Z" fill="black"/>
</g>
<defs>
<clipPath id="clip0_201_11812">
<rect width="9.75902" height="9.75902" fill="white" transform="translate(0.655273 0.55835)"/>
</clipPath>
</defs>
</svg>
