<svg width="10" height="11" viewBox="0 0 10 11" fill="none" xmlns="http://www.w3.org/2000/svg">
<g clip-path="url(#clip0_201_11816)">
<path d="M4.94392 7.87759C5.28078 7.87759 5.55386 7.60451 5.55386 7.26765C5.55386 6.93079 5.28078 6.65771 4.94392 6.65771C4.60706 6.65771 4.33398 6.93079 4.33398 7.26765C4.33398 7.60451 4.60706 7.87759 4.94392 7.87759Z" fill="black"/>
<path d="M1.96636 1.16833C1.79643 1.1683 1.62986 1.21559 1.48529 1.30491C1.34073 1.39422 1.2239 1.52203 1.1479 1.67401L0.557019 2.85577C0.49928 2.97198 0.46678 3.09909 0.461655 3.22875C0.45653 3.35841 0.478897 3.48769 0.527285 3.60809H5.82994C5.84285 3.6081 5.85555 3.60484 5.86685 3.59861C5.87815 3.59237 5.88768 3.58337 5.89456 3.57245L7.33363 1.28518C7.34087 1.27366 7.3449 1.26042 7.34531 1.24682C7.34571 1.23322 7.34246 1.21977 7.33591 1.20785C7.32935 1.19593 7.31973 1.18598 7.30804 1.17903C7.29634 1.17208 7.283 1.16839 7.2694 1.16833H1.96636Z" fill="black"/>
<path d="M9.33093 2.85637L8.74005 1.67461C8.67918 1.55186 8.59135 1.44445 8.48312 1.36041C8.37489 1.27638 8.24907 1.2179 8.11506 1.18933L6.5925 3.60812L5.7443 4.96295C5.2258 4.78284 4.66171 4.78284 4.14321 4.96295L3.69872 4.25389C3.69187 4.24293 3.68235 4.23389 3.67104 4.22763C3.65974 4.22136 3.64703 4.21806 3.6341 4.21806H1.03901C1.02533 4.21808 1.01191 4.22178 1.00016 4.22877C0.988406 4.23576 0.978749 4.24579 0.9722 4.25779C0.965652 4.2698 0.962453 4.28334 0.962939 4.29701C0.963425 4.31068 0.967578 4.32396 0.974962 4.33547L2.55127 6.78914C2.48026 7.14317 2.48871 7.50855 2.57602 7.85892C2.66333 8.20929 2.82733 8.53591 3.05617 8.81522C3.28501 9.09453 3.573 9.31956 3.89936 9.47407C4.22571 9.62859 4.58229 9.70873 4.94338 9.70873C5.30446 9.70873 5.66104 9.62859 5.9874 9.47407C6.31375 9.31956 6.60174 9.09453 6.83058 8.81522C7.05943 8.53591 7.22342 8.20929 7.31073 7.85892C7.39804 7.50855 7.4065 7.14317 7.33548 6.78914L9.28233 3.7606C9.3678 3.6269 9.4172 3.47335 9.42572 3.31489C9.43424 3.15643 9.40158 2.99846 9.33093 2.85637ZM5.02324 8.48515C4.77572 8.50133 4.52914 8.44166 4.3164 8.31411C4.10365 8.18655 3.93485 7.99717 3.8325 7.77122C3.73014 7.54527 3.69911 7.29348 3.74352 7.04944C3.78794 6.80539 3.9057 6.58069 4.0811 6.40529C4.2565 6.22989 4.48121 6.11213 4.72525 6.06771C4.9693 6.02329 5.22108 6.05433 5.44703 6.15668C5.67299 6.25903 5.86237 6.42784 5.98992 6.64058C6.11748 6.85333 6.17714 7.0999 6.16097 7.34743C6.14135 7.64268 6.01521 7.92078 5.80599 8.13004C5.59676 8.3393 5.31869 8.46548 5.02343 8.48515H5.02324Z" fill="black"/>
</g>
<defs>
<clipPath id="clip0_201_11816">
<rect width="9.75902" height="9.75902" fill="white" transform="translate(0.0644531 0.55835)"/>
</clipPath>
</defs>
</svg>
