<svg width="11" height="11" viewBox="0 0 11 11" fill="none" xmlns="http://www.w3.org/2000/svg">
<path d="M5.47789 9.40259H4.86795C4.70618 9.40259 4.55104 9.33833 4.43666 9.22395C4.32227 9.10956 4.25801 8.95442 4.25801 8.79265L4.25896 7.15687C4.25898 7.14348 4.25547 7.13032 4.24879 7.11871C4.24211 7.10711 4.23248 7.09747 4.22089 7.09076C4.2093 7.08406 4.19614 7.08052 4.18275 7.08052C4.16936 7.08051 4.1562 7.08404 4.1446 7.09073L2.72763 7.91148C2.58983 7.99104 2.42606 8.0126 2.27236 7.97142C2.11866 7.93025 1.98761 7.8297 1.90803 7.69191L1.59353 7.14601L1.59239 7.1441C1.51495 7.00636 1.49466 6.84373 1.53586 6.69118C1.57706 6.53863 1.67647 6.40834 1.81273 6.32831L3.23484 5.50394C3.24639 5.49724 3.25598 5.48762 3.26265 5.47604C3.26931 5.46447 3.27282 5.45135 3.27282 5.43799C3.27282 5.42463 3.26931 5.41151 3.26265 5.39994C3.25598 5.38836 3.24639 5.37874 3.23484 5.37204L1.81406 4.54843C1.74565 4.50921 1.68567 4.45685 1.63755 4.39438C1.58943 4.3319 1.55413 4.26053 1.53368 4.18438C1.51322 4.10822 1.50801 4.02877 1.51835 3.95059C1.52869 3.87242 1.55436 3.79705 1.59391 3.72883L1.90727 3.18465C1.94686 3.11585 1.99971 3.05559 2.06276 3.00737C2.12581 2.95914 2.1978 2.9239 2.27456 2.9037C2.35045 2.88333 2.42963 2.87823 2.5075 2.8887C2.58537 2.89917 2.66039 2.925 2.72821 2.96469L4.1446 3.78429C4.1562 3.79099 4.16936 3.79451 4.18275 3.79451C4.19614 3.7945 4.2093 3.79097 4.22089 3.78427C4.23248 3.77756 4.24211 3.76792 4.24879 3.75631C4.25547 3.74471 4.25898 3.73155 4.25896 3.71815L4.25801 2.08333C4.25801 1.92156 4.32227 1.76642 4.43666 1.65204C4.55104 1.53765 4.70618 1.47339 4.86795 1.47339H5.47789C5.63965 1.47339 5.79479 1.53765 5.90918 1.65204C6.02356 1.76642 6.08783 1.92156 6.08783 2.08333V3.7172C6.08781 3.73059 6.09131 3.74376 6.098 3.75536C6.10468 3.76697 6.1143 3.77661 6.1259 3.78331C6.13749 3.79002 6.15065 3.79355 6.16404 3.79356C6.17743 3.79356 6.19059 3.79004 6.20219 3.78334L7.61915 2.96259C7.757 2.88319 7.92071 2.86171 8.07437 2.90288C8.22802 2.94405 8.35907 3.04449 8.43876 3.18217L8.75307 3.72807L8.75421 3.72978C8.83253 3.86767 8.85316 4.03093 8.8116 4.18396C8.77004 4.337 8.66966 4.46739 8.53235 4.54672L7.11176 5.37014C7.10021 5.37684 7.09062 5.38646 7.08395 5.39803C7.07728 5.40961 7.07377 5.42273 7.07377 5.43608C7.07377 5.44944 7.07728 5.46256 7.08395 5.47414C7.09062 5.48571 7.10021 5.49533 7.11176 5.50203L8.53235 6.32545C8.60075 6.36468 8.66074 6.41703 8.70886 6.4795C8.75698 6.54198 8.79229 6.61333 8.81276 6.68949C8.83323 6.76564 8.83846 6.84508 8.82816 6.92326C8.81785 7.00144 8.7922 7.07682 8.75269 7.14506L8.43933 7.68924C8.39973 7.75803 8.34688 7.81829 8.28383 7.86652C8.22079 7.91475 8.1488 7.94998 8.07203 7.97019C7.99615 7.99056 7.91697 7.99565 7.8391 7.98518C7.76122 7.97471 7.6862 7.94888 7.61839 7.9092L6.202 7.08959C6.19041 7.0829 6.17727 7.07938 6.1639 7.07938C6.15052 7.07937 6.13738 7.08289 6.12579 7.08957C6.1142 7.09625 6.10458 7.10587 6.09788 7.11745C6.09118 7.12903 6.08765 7.14216 6.08763 7.15554L6.08783 8.79265C6.08783 8.95442 6.02356 9.10956 5.90918 9.22395C5.79479 9.33833 5.63965 9.40259 5.47789 9.40259Z" fill="black"/>
</svg>
