<svg width="11" height="11" viewBox="0 0 11 11" fill="none" xmlns="http://www.w3.org/2000/svg">
<path d="M8.66889 3.88013L8.35497 3.33519C8.31591 3.26733 8.2515 3.21776 8.1759 3.19738C8.1003 3.17701 8.0197 3.1875 7.95184 3.22654L6.07646 4.313C6.06482 4.31972 6.05161 4.32324 6.03817 4.32321C6.02473 4.32318 6.01153 4.3196 5.99992 4.31283C5.98831 4.30605 5.9787 4.29633 5.97206 4.28465C5.96542 4.27296 5.96198 4.25973 5.9621 4.24629L5.96363 2.08329C5.96363 2.00241 5.9315 1.92484 5.8743 1.86764C5.81711 1.81045 5.73954 1.77832 5.65866 1.77832H5.04872C4.96783 1.77832 4.89026 1.81045 4.83307 1.86764C4.77588 1.92484 4.74375 2.00241 4.74375 2.08329L4.74508 4.248C4.7452 4.26144 4.74177 4.27468 4.73513 4.28636C4.72848 4.29805 4.71887 4.30777 4.70726 4.31454C4.69565 4.32132 4.68245 4.3249 4.66901 4.32493C4.65557 4.32496 4.64236 4.32143 4.63072 4.31471L2.75535 3.22826C2.68748 3.18921 2.60688 3.17872 2.53128 3.1991C2.45568 3.21947 2.39127 3.26904 2.35222 3.3369L2.03848 3.88204C2.01911 3.91554 2.00655 3.95255 2.00152 3.99092C1.99649 4.0293 1.99908 4.06829 2.00916 4.10566C2.01924 4.14302 2.0366 4.17803 2.06024 4.20868C2.08388 4.23932 2.11334 4.26499 2.14693 4.28422L4.02421 5.37219C4.03568 5.37892 4.04518 5.38853 4.05179 5.40006C4.05839 5.4116 4.06187 5.42466 4.06187 5.43795C4.06187 5.45125 4.05839 5.46431 4.05179 5.47584C4.04518 5.48738 4.03568 5.49699 4.02421 5.50371L2.14693 6.59169C2.07955 6.63095 2.03037 6.6952 2.01007 6.7705C1.98977 6.84579 1.99997 6.92605 2.03848 6.99387L2.35241 7.53881C2.39146 7.60667 2.45587 7.65624 2.53147 7.67662C2.60707 7.69699 2.68767 7.6865 2.75554 7.64746L4.63091 6.561C4.64255 6.55428 4.65576 6.55076 4.6692 6.55079C4.68264 6.55082 4.69584 6.5544 4.70745 6.56117C4.71906 6.56795 4.72867 6.57767 4.73532 6.58935C4.74196 6.60104 4.74539 6.61427 4.74527 6.62772L4.74375 8.79262C4.74375 8.8735 4.77588 8.95107 4.83307 9.00826C4.89026 9.06546 4.96783 9.09759 5.04872 9.09759H5.65866C5.73954 9.09759 5.81711 9.06546 5.8743 9.00826C5.9315 8.95107 5.96363 8.8735 5.96363 8.79262L5.96229 6.626C5.96217 6.61256 5.96561 6.59932 5.97225 6.58764C5.97889 6.57595 5.9885 6.56623 6.00011 6.55946C6.01173 6.55268 6.02492 6.5491 6.03836 6.54907C6.0518 6.54904 6.06501 6.55257 6.07666 6.55929L7.95203 7.64574C8.01989 7.68479 8.10049 7.69528 8.17609 7.6749C8.25169 7.65453 8.3161 7.60496 8.35516 7.5371L8.66909 6.99215C8.68845 6.95865 8.70102 6.92164 8.70605 6.88327C8.71108 6.84489 8.70848 6.8059 8.6984 6.76853C8.68833 6.73117 8.67097 6.69616 8.64733 6.66551C8.62368 6.63487 8.59422 6.6092 8.56063 6.58998L6.68335 5.502C6.67189 5.49527 6.66238 5.48566 6.65578 5.47413C6.64917 5.46259 6.64569 5.44953 6.64569 5.43624C6.64569 5.42294 6.64917 5.40988 6.65578 5.39835C6.66238 5.38681 6.67189 5.37721 6.68335 5.37048L8.56063 4.2825C8.62814 4.24331 8.67742 4.17901 8.6977 4.10363C8.71798 4.02825 8.70763 3.94791 8.66889 3.88013V3.88013Z" stroke="black" stroke-width="0.609939" stroke-linecap="round" stroke-linejoin="round"/>
</svg>
