<svg width="11" height="11" viewBox="0 0 11 11" fill="none" xmlns="http://www.w3.org/2000/svg">
<g clip-path="url(#clip0_201_11834)">
<path d="M8.75538 2.38821H7.84047V2.08324C7.84022 1.84067 7.74374 1.60811 7.57222 1.43658C7.40069 1.26506 7.16813 1.16859 6.92556 1.16833H3.87587C3.63329 1.16859 3.40073 1.26506 3.22921 1.43658C3.05768 1.60811 2.96121 1.84067 2.96096 2.08324V2.38821H2.04605C1.72263 2.38857 1.41255 2.5172 1.18386 2.7459C0.955161 2.97459 0.826525 3.28467 0.826172 3.60809V8.4876C0.826172 8.81113 0.954694 9.12141 1.18347 9.35018C1.41224 9.57895 1.72252 9.70748 2.04605 9.70748H8.75538C9.07891 9.70748 9.38919 9.57895 9.61796 9.35018C9.84673 9.12141 9.97525 8.81113 9.97525 8.4876V3.60809C9.9749 3.28467 9.84626 2.97459 9.61757 2.7459C9.38887 2.5172 9.0788 2.38857 8.75538 2.38821ZM6.92556 6.35281H5.70568V7.57269C5.70568 7.65357 5.67355 7.73114 5.61636 7.78834C5.55917 7.84553 5.4816 7.87766 5.40071 7.87766C5.31983 7.87766 5.24226 7.84553 5.18507 7.78834C5.12787 7.73114 5.09574 7.65357 5.09574 7.57269V6.35281H3.87587C3.79498 6.35281 3.71741 6.32068 3.66022 6.26349C3.60303 6.2063 3.5709 6.12873 3.5709 6.04784C3.5709 5.96696 3.60303 5.88939 3.66022 5.8322C3.71741 5.77501 3.79498 5.74288 3.87587 5.74288H5.09574V4.523C5.09574 4.44212 5.12787 4.36455 5.18507 4.30735C5.24226 4.25016 5.31983 4.21803 5.40071 4.21803C5.4816 4.21803 5.55917 4.25016 5.61636 4.30735C5.67355 4.36455 5.70568 4.44212 5.70568 4.523V5.74288H6.92556C7.00644 5.74288 7.08401 5.77501 7.14121 5.8322C7.1984 5.88939 7.23053 5.96696 7.23053 6.04784C7.23053 6.12873 7.1984 6.2063 7.14121 6.26349C7.08401 6.32068 7.00644 6.35281 6.92556 6.35281ZM7.23053 2.38821H3.5709V2.08324C3.5709 2.00236 3.60303 1.92479 3.66022 1.8676C3.71741 1.8104 3.79498 1.77827 3.87587 1.77827H6.92556C7.00644 1.77827 7.08401 1.8104 7.14121 1.8676C7.1984 1.92479 7.23053 2.00236 7.23053 2.08324V2.38821Z" fill="black"/>
</g>
<defs>
<clipPath id="clip0_201_11834">
<rect width="9.75902" height="9.75902" fill="white" transform="translate(0.520996 0.55835)"/>
</clipPath>
</defs>
</svg>
