<svg width="10" height="11" viewBox="0 0 10 11" fill="none" xmlns="http://www.w3.org/2000/svg">
<g clip-path="url(#clip0_201_11831)">
<path d="M9.33735 2.38821H7.43129V1.32082C7.43129 1.28038 7.41522 1.24159 7.38663 1.213C7.35803 1.1844 7.31924 1.16833 7.2788 1.16833H2.70426C2.66382 1.16833 2.62504 1.1844 2.59644 1.213C2.56784 1.24159 2.55178 1.28038 2.55178 1.32082V2.38821H0.645719C0.585057 2.38821 0.526879 2.41231 0.483985 2.4552C0.44109 2.4981 0.416992 2.55628 0.416992 2.61694V9.47875C0.416992 9.53941 0.44109 9.59759 0.483985 9.64048C0.526879 9.68338 0.585057 9.70748 0.645719 9.70748H9.33735C9.39801 9.70748 9.45619 9.68338 9.49908 9.64048C9.54198 9.59759 9.56607 9.53941 9.56607 9.47875V2.61694C9.56607 2.55628 9.54198 2.4981 9.49908 2.4552C9.45619 2.41231 9.39801 2.38821 9.33735 2.38821ZM3.3142 1.93076H6.66886V2.38821H3.3142V1.93076ZM6.82135 6.46718H5.41087V7.87766H4.5722V6.46718H3.16172V5.62851H4.5722V4.21803H5.41087V5.62851H6.82135V6.46718Z" fill="black"/>
</g>
<defs>
<clipPath id="clip0_201_11831">
<rect width="9.75902" height="9.75902" fill="white" transform="translate(0.111816 0.55835)"/>
</clipPath>
</defs>
</svg>
