<svg width="11" height="11" viewBox="0 0 11 11" fill="none" xmlns="http://www.w3.org/2000/svg">
<g clip-path="url(#clip0_201_11837)">
<path d="M8.70609 1.55373C8.70609 1.55373 7.05468 3.60808 5.50505 3.60808H2.45536C2.37448 3.60808 2.29691 3.64021 2.23971 3.6974C2.18252 3.7546 2.15039 3.83217 2.15039 3.91305V5.74286C2.15039 5.82375 2.18252 5.90132 2.23971 5.95851C2.29691 6.0157 2.37448 6.04783 2.45536 6.04783H5.50505C7.05468 6.04783 8.70609 8.11076 8.70609 8.11076C8.8216 8.26325 9.16469 8.15879 9.16469 7.9234V1.74014C9.16469 1.50551 8.84066 1.38142 8.70609 1.55373Z" stroke="black" stroke-width="0.609939" stroke-linecap="round" stroke-linejoin="round"/>
<path d="M2.15067 5.4379C2.15067 5.4379 1.8457 5.32353 1.8457 4.82796C1.8457 4.33238 2.15067 4.21802 2.15067 4.21802" stroke="black" stroke-width="0.609939" stroke-linecap="round" stroke-linejoin="round"/>
<path d="M9.46973 5.24724C9.46973 5.24724 9.7747 5.1647 9.7747 4.8279C9.7747 4.4911 9.46973 4.40857 9.46973 4.40857" stroke="black" stroke-width="0.609939" stroke-linecap="round" stroke-linejoin="round"/>
<path d="M5.81006 3.60803V6.04779" stroke="black" stroke-width="0.609939" stroke-linecap="round" stroke-linejoin="round"/>
<path d="M3.06543 3.60803V6.04779" stroke="black" stroke-width="0.609939" stroke-linecap="round" stroke-linejoin="round"/>
<path d="M3.67529 6.04785V9.25003C3.67529 9.29047 3.69136 9.32926 3.71995 9.35785C3.74855 9.38645 3.78734 9.40251 3.82778 9.40251H4.83799C4.88576 9.40253 4.93287 9.39132 4.97552 9.36979C5.01817 9.34826 5.05516 9.31702 5.08352 9.27857C5.11188 9.24012 5.1308 9.19555 5.13878 9.14845C5.14675 9.10135 5.14355 9.05303 5.12942 9.00739C4.9697 8.49504 4.5902 7.91731 4.5902 6.96276H4.89517C4.97605 6.96276 5.05362 6.93063 5.11082 6.87344C5.16801 6.81624 5.20014 6.73867 5.20014 6.65779V6.35282C5.20014 6.27194 5.16801 6.19437 5.11082 6.13717C5.05362 6.07998 4.97605 6.04785 4.89517 6.04785H4.5902" stroke="black" stroke-width="0.609939" stroke-linecap="round" stroke-linejoin="round"/>
</g>
<defs>
<clipPath id="clip0_201_11837">
<rect width="9.75902" height="9.75902" fill="white" transform="translate(0.930664 0.55835)"/>
</clipPath>
</defs>
</svg>
