<svg width="11" height="11" viewBox="0 0 11 11" fill="none" xmlns="http://www.w3.org/2000/svg">
<path d="M1.66434 3.91304V3.92562C1.66389 4.00421 1.63552 4.08007 1.58429 4.13967V4.14062C1.48136 4.26223 1.35938 4.4799 1.35938 4.82795C1.35938 5.1434 1.4604 5.36603 1.582 5.51241C1.63536 5.57735 1.66447 5.65881 1.66434 5.74286C1.66434 5.90462 1.72861 6.05976 1.84299 6.17415C1.95738 6.28853 2.11252 6.35279 2.27428 6.35279H2.42677C2.46721 6.35279 2.50599 6.33673 2.53459 6.30813C2.56319 6.27954 2.57925 6.24075 2.57925 6.20031V3.45559C2.57925 3.41514 2.56319 3.37636 2.53459 3.34776C2.50599 3.31917 2.46721 3.3031 2.42677 3.3031H2.27428C2.11252 3.3031 1.95738 3.36736 1.84299 3.48175C1.72861 3.59613 1.66434 3.75127 1.66434 3.91304Z" fill="black"/>
<path d="M9.3685 4.11415L9.35078 4.11091C9.33335 4.10759 9.31762 4.09828 9.30632 4.08461C9.29501 4.07094 9.28882 4.05375 9.28883 4.036V1.74016C9.28883 1.49923 9.12891 1.2827 8.89065 1.20036C8.66345 1.12202 8.42672 1.18587 8.28681 1.36295C7.98918 1.71836 7.66202 2.04795 7.30882 2.34819C6.85841 2.7294 6.42745 3.00101 6.03176 3.15464C6.0029 3.16564 5.97807 3.18515 5.96054 3.21057C5.94301 3.236 5.93361 3.26614 5.93359 3.29703V6.25752C5.93364 6.31713 5.95116 6.37542 5.98399 6.42519C6.01682 6.47495 6.06351 6.51401 6.11829 6.53752C6.48692 6.69553 6.88529 6.95361 7.30005 7.30528C7.65591 7.60824 7.98544 7.94083 8.2851 8.29948C8.33311 8.3597 8.39438 8.40802 8.46415 8.44066C8.53391 8.47329 8.61028 8.48936 8.68728 8.4876C8.75496 8.4873 8.82215 8.47611 8.88627 8.45444C9.13082 8.37324 9.28883 8.16453 9.28883 7.92341V5.61956C9.28884 5.60156 9.29522 5.58415 9.30684 5.57041C9.31846 5.55667 9.33456 5.54747 9.3523 5.54446L9.3685 5.54179C9.55186 5.49204 9.89877 5.27914 9.89877 4.82797C9.89877 4.37681 9.55186 4.1639 9.3685 4.11415Z" fill="black"/>
<path d="M5.32424 6.65776V3.45559C5.32424 3.41514 5.30817 3.37636 5.27958 3.34776C5.25098 3.31917 5.2122 3.3031 5.17175 3.3031H3.34194C3.3015 3.3031 3.26271 3.31917 3.23411 3.34776C3.20552 3.37636 3.18945 3.41514 3.18945 3.45559V9.25C3.18945 9.37133 3.23765 9.48768 3.32344 9.57347C3.40923 9.65926 3.52558 9.70746 3.64691 9.70746H4.64663C4.74167 9.70825 4.83562 9.68728 4.92129 9.64614C5.00696 9.60501 5.08207 9.54481 5.14088 9.47015C5.20117 9.39287 5.24172 9.30206 5.25902 9.20558C5.27632 9.1091 5.26986 9.00986 5.24018 8.91644C5.2093 8.81771 5.17099 8.70678 5.1302 8.58879C4.97943 8.1523 4.78063 7.88222 4.72764 7.26751C4.88705 7.26402 5.03876 7.19825 5.15027 7.08428C5.26178 6.97031 5.32423 6.81721 5.32424 6.65776Z" fill="black"/>
</svg>
