<svg width="11" height="11" viewBox="0 0 11 11" fill="none" xmlns="http://www.w3.org/2000/svg">
<g clip-path="url(#clip0_201_11844)">
<path d="M2.77979 3.3031V9.63122C2.77979 9.65144 2.78782 9.67083 2.80212 9.68513C2.81641 9.69943 2.83581 9.70746 2.85603 9.70746H4.76342C4.7862 9.70747 4.80869 9.70237 4.82925 9.69254C4.8498 9.68272 4.86789 9.66841 4.88218 9.65068C4.89648 9.63294 4.90662 9.61223 4.91187 9.59006C4.91711 9.56789 4.91732 9.54483 4.91247 9.52257L4.31817 7.2677H4.76209C4.80253 7.2677 4.84131 7.25164 4.86991 7.22304C4.89851 7.19445 4.91457 7.15566 4.91457 7.11522V3.3031H2.77979Z" fill="black"/>
<path d="M8.95875 4.11415L8.87908 4.09414V1.24458C8.87908 1.22436 8.87104 1.20496 8.85675 1.19067C8.84245 1.17637 8.82306 1.16833 8.80283 1.16833H7.99276C7.97429 1.16841 7.95648 1.17518 7.94263 1.1874L5.52441 3.30312V6.35281L7.94263 8.46854C7.95648 8.48075 7.97429 8.48753 7.99276 8.4876H8.80283C8.82306 8.4876 8.84245 8.47957 8.85675 8.46527C8.87104 8.45097 8.87908 8.43158 8.87908 8.41136V5.5618L8.95875 5.54179C9.14211 5.49204 9.48902 5.27913 9.48902 4.82797C9.48902 4.3768 9.14211 4.1639 8.95875 4.11415Z" fill="black"/>
<path d="M2.16958 3.3031H1.33092C1.3107 3.3031 1.29131 3.31113 1.27701 3.32543C1.26271 3.33973 1.25468 3.35912 1.25468 3.37934V4.05771C1.22582 4.08341 1.19881 4.11111 1.17386 4.14062C1.07169 4.26223 0.949707 4.4799 0.949707 4.82795C0.949707 5.21278 1.1001 5.45943 1.25468 5.59838V6.27655C1.25468 6.29677 1.26271 6.31617 1.27701 6.33046C1.29131 6.34476 1.3107 6.35279 1.33092 6.35279H2.16958V3.3031Z" fill="black"/>
</g>
<defs>
<clipPath id="clip0_201_11844">
<rect width="9.75902" height="9.75902" fill="white" transform="translate(0.339844 0.55835)"/>
</clipPath>
</defs>
</svg>
