<svg width="11" height="11" viewBox="0 0 11 11" fill="none" xmlns="http://www.w3.org/2000/svg">
<path d="M8.60651 8.59198L2.20215 2.18762" stroke="black" stroke-width="0.609939" stroke-miterlimit="10" stroke-linecap="round"/>
<path d="M7.99626 5.54232V4.94096C7.99626 4.77685 7.87007 4.63599 7.70596 4.62779C7.66473 4.62581 7.62352 4.63221 7.58483 4.64662C7.54615 4.66103 7.51079 4.68315 7.4809 4.71163C7.45102 4.74011 7.42722 4.77436 7.41096 4.8123C7.39471 4.85025 7.38632 4.8911 7.38632 4.93238V5.54232C7.38639 5.69165 7.37074 5.84057 7.33962 5.98662C7.33693 5.99912 7.33739 6.01209 7.34094 6.02436C7.3445 6.03664 7.35106 6.04784 7.36001 6.05696L7.77592 6.47267C7.78044 6.47719 7.78602 6.4805 7.79215 6.4823C7.79829 6.4841 7.80478 6.48432 7.81102 6.48295C7.81727 6.48159 7.82307 6.47867 7.82789 6.47448C7.83271 6.47028 7.83641 6.46494 7.83862 6.45895C7.9432 6.16467 7.99651 5.85463 7.99626 5.54232Z" fill="black"/>
<path d="M5.25156 7.67711C4.68594 7.6753 4.144 7.4498 3.74404 7.04984C3.34408 6.64989 3.11858 6.10795 3.11677 5.54232V4.94096C3.11677 4.77685 2.99059 4.63599 2.82648 4.62779C2.78525 4.62581 2.74404 4.63221 2.70535 4.64662C2.66667 4.66103 2.63131 4.68315 2.60142 4.71163C2.57154 4.74011 2.54774 4.77436 2.53148 4.8123C2.51522 4.85025 2.50684 4.8911 2.50684 4.93238V5.54232C2.50684 6.95281 3.57613 8.11779 4.94659 8.27008V9.20195H4.04026C3.87615 9.20195 3.73529 9.32814 3.72709 9.49225C3.72511 9.53348 3.73151 9.57469 3.74592 9.61338C3.76033 9.65206 3.78245 9.68742 3.81093 9.71731C3.83941 9.74719 3.87366 9.77099 3.9116 9.78725C3.94955 9.8035 3.9904 9.81189 4.03168 9.81189H6.46286C6.62697 9.81189 6.76783 9.68571 6.77603 9.5216C6.77801 9.48037 6.77161 9.43916 6.7572 9.40047C6.74279 9.36179 6.72067 9.32643 6.69219 9.29654C6.66371 9.26665 6.62947 9.24286 6.59152 9.2266C6.55357 9.21034 6.51272 9.20196 6.47144 9.20195H5.55653V8.27008C5.90366 8.23145 6.24014 8.12649 6.54768 7.96092C6.55811 7.95525 6.56708 7.94721 6.57386 7.93746C6.58064 7.92771 6.58504 7.91651 6.58673 7.90476C6.58841 7.893 6.58733 7.88101 6.58356 7.86975C6.57979 7.85849 6.57345 7.84826 6.56503 7.83988L6.22365 7.49851C6.21256 7.48753 6.19838 7.48022 6.18301 7.47757C6.16763 7.47491 6.15182 7.47703 6.13769 7.48364C5.85981 7.61156 5.55746 7.67757 5.25156 7.67711Z" fill="black"/>
<path d="M5.25155 2.49264C5.37228 2.49052 5.4922 2.51274 5.60416 2.55797C5.71612 2.6032 5.81782 2.67051 5.9032 2.7559C5.98859 2.84128 6.0559 2.94298 6.10113 3.05494C6.14636 3.1669 6.16858 3.28682 6.16646 3.40755V4.83176C6.16649 4.85192 6.17451 4.87124 6.18876 4.88551L6.7114 5.40891C6.71674 5.41422 6.72354 5.41783 6.73093 5.41928C6.73832 5.42073 6.74598 5.41996 6.75293 5.41707C6.75988 5.41417 6.76582 5.40928 6.77 5.40301C6.77418 5.39674 6.7764 5.38938 6.7764 5.38184V3.42489C6.7764 2.58794 6.10928 1.89414 5.27328 1.8827C5.01436 1.87795 4.75852 1.9395 4.53009 2.06151C4.30166 2.18351 4.10824 2.36191 3.9682 2.57975C3.95875 2.59441 3.95462 2.61188 3.9565 2.62922C3.95837 2.64656 3.96613 2.66274 3.97849 2.67505L4.35094 3.04749C4.35535 3.05189 4.36077 3.05513 4.36672 3.05695C4.37267 3.05876 4.37898 3.05909 4.38509 3.05791C4.3912 3.05672 4.39693 3.05406 4.40178 3.05015C4.40662 3.04624 4.41043 3.04121 4.41288 3.03549C4.48388 2.87262 4.60129 2.73427 4.75044 2.63773C4.8996 2.54119 5.07389 2.49072 5.25155 2.49264Z" fill="black"/>
<path d="M4.32259 5.59769L3.79156 5.06589C3.78622 5.06058 3.77942 5.05698 3.77203 5.05552C3.76464 5.05407 3.75698 5.05484 3.75003 5.05774C3.74308 5.06063 3.73714 5.06553 3.73296 5.07179C3.72878 5.07806 3.72656 5.08543 3.72656 5.09296V5.52335C3.72684 5.92964 3.88747 6.31939 4.17353 6.6079C4.36113 6.80296 4.59809 6.94352 4.85921 7.01464C5.12033 7.08576 5.39584 7.08478 5.65645 7.01179C5.66287 7.00998 5.6687 7.00651 5.67337 7.00174C5.67803 6.99696 5.68136 6.99105 5.68302 6.98458C5.68468 6.97812 5.68461 6.97133 5.68282 6.9649C5.68104 6.95847 5.67759 6.95262 5.67284 6.94794L5.19804 6.47314C5.18557 6.46085 5.16932 6.45312 5.15191 6.45122C4.73925 6.40319 4.3994 6.06162 4.34432 5.64248C4.34229 5.62554 4.33464 5.60976 4.32259 5.59769Z" fill="black"/>
</svg>
