<svg width="11" height="11" viewBox="0 0 11 11" fill="none" xmlns="http://www.w3.org/2000/svg">
<path d="M5.84204 1.88269C3.65598 1.88269 1.87744 3.66123 1.87744 5.84729C1.87744 8.03335 3.65598 9.81189 5.84204 9.81189C8.0281 9.81189 9.80664 8.03335 9.80664 5.84729C9.80664 3.66123 8.0281 1.88269 5.84204 1.88269ZM5.84204 3.40754C6.08448 3.40824 6.31678 3.50486 6.4882 3.67629C6.65963 3.84771 6.75625 4.08001 6.75695 4.32245V5.54232C6.75692 5.59155 6.75291 5.6407 6.74494 5.68928C6.74374 5.69635 6.74057 5.70293 6.73579 5.70827C6.73102 5.71362 6.72483 5.71751 6.71795 5.7195C6.71106 5.72149 6.70376 5.7215 6.69687 5.71953C6.68998 5.71755 6.68378 5.71368 6.67899 5.70834L5.0699 3.93837C5.05879 3.92622 5.05191 3.91079 5.05029 3.89441C5.04868 3.87802 5.05241 3.86155 5.06094 3.84746C5.14256 3.71337 5.25726 3.6025 5.39403 3.52547C5.5308 3.44844 5.68507 3.40783 5.84204 3.40754ZM6.45198 8.28705H5.24068C5.07657 8.28705 4.93571 8.16087 4.92752 7.99675C4.92553 7.95552 4.93194 7.91431 4.94635 7.87563C4.96076 7.83694 4.98287 7.80158 5.01135 7.7717C5.03983 7.74181 5.07408 7.71802 5.11202 7.70176C5.14997 7.6855 5.19082 7.67711 5.2321 7.67711H5.53707V7.33897C5.19029 7.27667 4.86646 7.12282 4.5991 6.89334C4.22075 6.56835 4.01223 6.14426 4.01223 5.699V5.23735C4.01198 5.1966 4.01994 5.15622 4.03565 5.11862C4.05136 5.08102 4.07448 5.04697 4.10364 5.0185C4.1328 4.99004 4.1674 4.96774 4.20537 4.95294C4.24334 4.93815 4.2839 4.93115 4.32463 4.93238C4.40512 4.9356 4.4812 4.97003 4.53674 5.02839C4.59229 5.08674 4.62292 5.16442 4.62217 5.24498V5.699C4.62217 6.1881 5.15586 6.75648 5.84204 6.75648C5.87387 6.75648 5.90628 6.75477 5.93849 6.75191C5.95014 6.75084 5.96187 6.75251 5.97276 6.75678C5.98364 6.76105 5.99338 6.7678 6.0012 6.7765L6.40281 7.21851C6.40714 7.22326 6.4102 7.22902 6.41171 7.23527C6.41321 7.24152 6.41312 7.24805 6.41142 7.25425C6.40973 7.26045 6.4065 7.26612 6.40202 7.27074C6.39755 7.27535 6.39199 7.27876 6.38584 7.28065C6.30757 7.30519 6.22779 7.32468 6.14701 7.33897V7.67711H6.4434C6.60752 7.67711 6.74837 7.80329 6.75657 7.9674C6.75856 8.00864 6.75215 8.04985 6.73774 8.08853C6.72333 8.12722 6.70122 8.16257 6.67274 8.19246C6.64426 8.22235 6.61001 8.24614 6.57206 8.2624C6.53412 8.27866 6.49326 8.28704 6.45198 8.28705ZM4.96735 5.63934L5.6623 6.40386C5.6651 6.40684 5.66686 6.41063 5.66734 6.41468C5.66782 6.41874 5.66698 6.42284 5.66495 6.42638C5.66293 6.42992 5.65982 6.43272 5.65608 6.43436C5.65234 6.43601 5.64818 6.43641 5.64419 6.4355C5.45993 6.39391 5.29293 6.29659 5.1659 6.15677C5.03887 6.01696 4.95797 5.84142 4.93419 5.65402C4.93377 5.65001 4.93464 5.64598 4.93666 5.64249C4.93868 5.639 4.94175 5.63625 4.94543 5.63462C4.94912 5.63299 4.95322 5.63257 4.95716 5.63342C4.9611 5.63426 4.96467 5.63634 4.96735 5.63934ZM7.87695 7.92185C7.8171 7.97624 7.73809 8.00462 7.6573 8.00076C7.57652 7.9969 7.50058 7.96111 7.44618 7.90126L3.78655 3.89854C3.73329 3.83851 3.70585 3.7599 3.71016 3.67977C3.71447 3.59964 3.75019 3.52443 3.80958 3.47046C3.86897 3.41649 3.94724 3.3881 4.02742 3.39145C4.1076 3.3948 4.18322 3.42962 4.2379 3.48835L7.89754 7.49108C7.95192 7.55093 7.98031 7.62994 7.97645 7.71073C7.97259 7.79151 7.9368 7.86745 7.87695 7.92185ZM7.67186 5.699C7.67066 5.97486 7.59186 6.24482 7.44447 6.47801C7.44138 6.48307 7.43715 6.48734 7.43212 6.49048C7.42709 6.49362 7.4214 6.49554 7.4155 6.4961C7.4096 6.49665 7.40364 6.49583 7.39812 6.49368C7.39259 6.49153 7.38764 6.48812 7.38366 6.48373L7.01789 6.08155C7.00831 6.071 7.00187 6.05799 6.99931 6.04397C6.99675 6.02996 6.99817 6.01551 7.0034 6.00226C7.0418 5.90575 7.06165 5.80287 7.06192 5.699V5.24536C7.0612 5.17123 7.08701 5.09929 7.13469 5.04252C7.18236 4.98576 7.24877 4.94791 7.32191 4.93582C7.51023 4.90761 7.67186 5.0599 7.67186 5.24307V5.699Z" fill="black"/>
</svg>
