<svg width="11" height="11" viewBox="0 0 11 11" fill="none" xmlns="http://www.w3.org/2000/svg">
<path d="M5.67603 1.47327C3.48997 1.47327 1.71143 3.25181 1.71143 5.43787C1.71143 7.62393 3.48997 9.40247 5.67603 9.40247C7.86209 9.40247 9.64063 7.62393 9.64063 5.43787C9.64063 3.25181 7.86209 1.47327 5.67603 1.47327ZM4.76112 3.91302C4.76182 3.67059 4.85844 3.43829 5.02987 3.26686C5.20129 3.09544 5.4336 2.99882 5.67603 2.99811C5.91846 2.99882 6.15076 3.09544 6.32219 3.26686C6.49361 3.43829 6.59023 3.67059 6.59094 3.91302V5.1329C6.59023 5.37533 6.49361 5.60763 6.32219 5.77906C6.15076 5.95049 5.91846 6.0471 5.67603 6.04781C5.4336 6.0471 5.20129 5.95049 5.02987 5.77906C4.85844 5.60763 4.76182 5.37533 4.76112 5.1329V3.91302ZM7.50584 5.28958C7.50584 5.73483 7.29732 6.15893 6.91897 6.48391C6.65161 6.7134 6.32778 6.86725 5.981 6.92955V7.26769H6.59094V7.87762H4.76112V7.26769H5.37106V6.92955C5.02427 6.86725 4.70044 6.7134 4.43309 6.48391C4.05473 6.15893 3.84621 5.73483 3.84621 5.28958V4.52868H4.45615V5.28958C4.45615 5.77867 4.98985 6.34706 5.67603 6.34706C6.24022 6.34706 6.89591 5.88522 6.89591 5.28958V4.52868H7.50584V5.28958Z" fill="black"/>
</svg>
