<svg width="11" height="11" viewBox="0 0 11 11" fill="none" xmlns="http://www.w3.org/2000/svg">
<path d="M5.49488 9.40247C3.30882 9.40247 1.53027 7.62393 1.53027 5.43787C1.53027 3.25181 3.30882 1.47327 5.49488 1.47327C7.68093 1.47327 9.45948 3.25181 9.45948 5.43787C9.45948 7.62393 7.68093 9.40247 5.49488 9.40247ZM5.49488 2.08321C3.646 2.08321 2.14021 3.58899 2.14021 5.43787C2.14021 7.28675 3.646 8.79253 5.49488 8.79253C7.34375 8.79253 8.84954 7.2877 8.84954 5.43787C8.84954 3.58804 7.34471 2.08321 5.49488 2.08321Z" fill="black"/>
<path d="M7.32445 7.59177C7.28194 7.59185 7.23988 7.583 7.201 7.56579C7.16213 7.54859 7.1273 7.52341 7.09877 7.49189L3.43914 3.48917C3.38588 3.42914 3.35843 3.35053 3.36275 3.2704C3.36706 3.19026 3.40278 3.11506 3.46217 3.06109C3.52156 3.00712 3.59983 2.97873 3.68001 2.98208C3.76018 2.98543 3.83581 3.02025 3.89049 3.07898L7.55013 7.08171C7.58985 7.12543 7.61603 7.17974 7.62547 7.23806C7.63491 7.29637 7.62721 7.35617 7.60331 7.41019C7.57941 7.46422 7.54033 7.51013 7.49083 7.54237C7.44132 7.5746 7.38352 7.59176 7.32445 7.59177Z" fill="black"/>
<path d="M7.32467 5.28952V4.83587C7.32539 4.76175 7.29958 4.6898 7.2519 4.63304C7.20422 4.57627 7.13782 4.53842 7.06468 4.52633C6.87636 4.49812 6.71473 4.65042 6.71473 4.83359V5.28952C6.71446 5.39338 6.6946 5.49626 6.65621 5.59277C6.65098 5.60602 6.64956 5.62047 6.65212 5.63449C6.65468 5.6485 6.66112 5.66152 6.6707 5.67206L7.03647 6.07424C7.04045 6.07864 7.0454 6.08204 7.05093 6.08419C7.05645 6.08634 7.0624 6.08717 7.06831 6.08662C7.07421 6.08606 7.0799 6.08414 7.08493 6.08099C7.08996 6.07785 7.09419 6.07358 7.09727 6.06852C7.24467 5.83534 7.32347 5.56538 7.32467 5.28952Z" fill="black"/>
<path d="M6.40956 5.13295V3.91308C6.40885 3.67064 6.31223 3.43834 6.14081 3.26692C5.96938 3.09549 5.73708 2.99887 5.49465 2.99817C5.33757 2.99844 5.1832 3.03907 5.04635 3.11617C4.90951 3.19328 4.79477 3.30426 4.71316 3.43847C4.70464 3.45256 4.7009 3.46903 4.70252 3.48542C4.70413 3.50181 4.71101 3.51723 4.72212 3.52939L6.33122 5.29935C6.336 5.30469 6.3422 5.30856 6.34909 5.31054C6.35598 5.31251 6.36328 5.3125 6.37017 5.31051C6.37706 5.30852 6.38324 5.30463 6.38802 5.29929C6.39279 5.29394 6.39596 5.28736 6.39717 5.28029C6.40528 5.2316 6.40942 5.18232 6.40956 5.13295Z" fill="black"/>
<path d="M5.31521 5.99448L4.62026 5.22995C4.61755 5.22688 4.61392 5.22477 4.60992 5.22392C4.60591 5.22308 4.60173 5.22354 4.59801 5.22525C4.59429 5.22696 4.59122 5.22983 4.58925 5.23342C4.58729 5.23702 4.58653 5.24115 4.5871 5.2452C4.61088 5.43261 4.69178 5.60814 4.81881 5.74796C4.94584 5.88778 5.11283 5.98509 5.2971 6.02669C5.3012 6.02779 5.30554 6.0275 5.30945 6.02586C5.31336 6.02422 5.31661 6.02132 5.31869 6.01763C5.32077 6.01393 5.32155 6.00965 5.32092 6.00545C5.32029 6.00126 5.31828 5.9974 5.31521 5.99448Z" fill="black"/>
<path d="M6.09622 7.26769H5.79983V6.92956C5.88061 6.91526 5.96038 6.89577 6.03866 6.87123C6.0448 6.86934 6.05037 6.86593 6.05484 6.86132C6.05931 6.8567 6.06255 6.85103 6.06424 6.84483C6.06593 6.83863 6.06603 6.8321 6.06452 6.82585C6.06302 6.81961 6.05996 6.81384 6.05562 6.80909L5.65402 6.36708C5.6462 6.35838 5.63646 6.35163 5.62557 6.34736C5.61469 6.34309 5.60295 6.34142 5.59131 6.34249C5.5591 6.34535 5.52669 6.34706 5.49486 6.34706C4.80868 6.34706 4.27498 5.77868 4.27498 5.28958V4.83556C4.27574 4.755 4.2451 4.67732 4.18956 4.61897C4.13402 4.56062 4.05794 4.52618 3.97745 4.52297C3.93672 4.52174 3.89615 4.52873 3.85818 4.54352C3.82022 4.55832 3.78562 4.58062 3.75646 4.60908C3.7273 4.63755 3.70417 4.6716 3.68847 4.7092C3.67276 4.7468 3.6648 4.78719 3.66504 4.82793V5.28958C3.66504 5.73484 3.87357 6.15894 4.25192 6.48392C4.51928 6.7134 4.84311 6.86726 5.18989 6.92956V7.26769H4.8935C4.72939 7.26769 4.58853 7.39387 4.58033 7.55798C4.57835 7.59922 4.58475 7.64043 4.59916 7.67911C4.61357 7.7178 4.63569 7.75316 4.66417 7.78304C4.69265 7.81293 4.7269 7.83672 4.76484 7.85298C4.80279 7.86924 4.84364 7.87763 4.88492 7.87763H6.1048C6.14611 7.87768 6.18701 7.86933 6.225 7.85309C6.26299 7.83686 6.29729 7.81307 6.3258 7.78318C6.35432 7.75329 6.37647 7.71791 6.39091 7.6792C6.40534 7.64049 6.41176 7.59925 6.40977 7.55798C6.40176 7.39387 6.26033 7.26769 6.09622 7.26769Z" fill="black"/>
</svg>
