<svg width="11" height="11" viewBox="0 0 11 11" fill="none" xmlns="http://www.w3.org/2000/svg">
<path d="M8.9262 5.43783C8.9262 3.41741 7.28699 1.7782 5.26657 1.7782C3.24614 1.7782 1.60693 3.41741 1.60693 5.43783C1.60693 7.45825 3.24614 9.09746 5.26657 9.09746C7.28699 9.09746 8.9262 7.45825 8.9262 5.43783Z" stroke="black" stroke-width="0.609939" stroke-miterlimit="10"/>
<path d="M4.65674 7.57263H5.87662" stroke="black" stroke-width="0.609939" stroke-linecap="round" stroke-linejoin="round"/>
<path d="M6.79139 4.83362V5.28955C6.79139 6.04092 6.01791 6.652 5.26655 6.652C4.51518 6.652 3.7417 6.04092 3.7417 5.28955V4.83362" stroke="black" stroke-width="0.609939" stroke-linecap="round" stroke-linejoin="round"/>
<path d="M5.2666 6.65771V7.57262" stroke="black" stroke-width="0.609939" stroke-linecap="round" stroke-linejoin="round"/>
<path d="M6.18187 3.91308C6.18187 3.40779 5.77225 2.99817 5.26696 2.99817C4.76167 2.99817 4.35205 3.40779 4.35205 3.91308V5.13295C4.35205 5.63824 4.76167 6.04786 5.26696 6.04786C5.77225 6.04786 6.18187 5.63824 6.18187 5.13295V3.91308Z" fill="black"/>
</svg>
