<svg width="11" height="11" viewBox="0 0 11 11" fill="none" xmlns="http://www.w3.org/2000/svg">
<path d="M9.0152 8.59198L2.61084 2.18762" stroke="black" stroke-width="0.609939" stroke-miterlimit="10" stroke-linecap="square"/>
<path d="M7.79559 4.62744V5.54235C7.79564 5.70565 7.7769 5.86842 7.73975 6.02744L8.22732 6.51444C8.34543 6.20397 8.40583 5.87453 8.40553 5.54235V4.62744H7.79559Z" fill="black"/>
<path d="M5.96571 9.20198V8.27011C6.34687 8.22771 6.7148 8.10541 7.04549 7.9112L6.59471 7.4608C6.26928 7.61839 5.90918 7.69084 5.54813 7.67137C5.18707 7.6519 4.83686 7.54115 4.53026 7.34947C4.22366 7.1578 3.97071 6.89148 3.79506 6.57543C3.61942 6.25938 3.52682 5.90393 3.52595 5.54235V4.62744H2.91602V5.54235C2.91602 6.95283 3.98531 8.11782 5.35577 8.27011V9.20198H4.13589V9.81192H7.18559V9.20198H5.96571Z" fill="black"/>
<path d="M7.18573 5.47314V3.40755C7.18573 2.55249 6.51594 1.8827 5.66088 1.8827C5.39523 1.88175 5.13398 1.95049 4.9032 2.08207C4.67242 2.21364 4.48019 2.40345 4.3457 2.63254" fill="black"/>
<path d="M4.13574 5.00159V5.52328C4.13602 5.92956 4.29665 6.31932 4.58271 6.60782C4.77784 6.81065 5.02618 6.95438 5.29926 7.02251C5.57233 7.09065 5.85908 7.08043 6.12662 6.99304L4.13574 5.00159Z" fill="black"/>
</svg>
