<svg width="11" height="11" viewBox="0 0 11 11" fill="none" xmlns="http://www.w3.org/2000/svg">
<path d="M5.43286 1.88269C3.2468 1.88269 1.46826 3.66123 1.46826 5.84729C1.46826 8.03335 3.2468 9.81189 5.43286 9.81189C7.61892 9.81189 9.39747 8.03335 9.39747 5.84729C9.39747 3.66123 7.61892 1.88269 5.43286 1.88269ZM6.65274 5.699V4.93238H7.26268V5.699C7.26111 5.99211 7.1724 6.27814 7.00784 6.5207L6.5765 6.04552C6.62627 5.93675 6.65227 5.81862 6.65274 5.699ZM5.43286 3.40754C5.6753 3.40824 5.9076 3.50486 6.07902 3.67629C6.25045 3.84771 6.34707 4.08001 6.34777 4.32245V5.54232C6.34771 5.61712 6.3385 5.69163 6.32032 5.76419L4.62393 3.89778C4.70152 3.75029 4.81783 3.62673 4.96034 3.54036C5.10286 3.45399 5.26622 3.40807 5.43286 3.40754ZM6.34777 8.28705H4.51796V7.67711H5.12789V7.33897C4.78111 7.27667 4.45728 7.12282 4.18992 6.89334C3.81157 6.56835 3.60305 6.14426 3.60305 5.699V4.93238H4.21299V5.699C4.21299 6.1881 4.74668 6.75648 5.43286 6.75648C5.47747 6.75637 5.52203 6.75351 5.56629 6.74791L6.03365 7.26254C5.93738 7.29584 5.83858 7.32134 5.73821 7.33878V7.67711H6.34815L6.34777 8.28705ZM4.51967 5.59703L5.29162 6.44618C5.08568 6.41328 4.89705 6.31128 4.75676 6.15696C4.61646 6.00264 4.53285 5.80517 4.51967 5.59703ZM7.11325 7.9775L3.2916 3.81277L3.74295 3.40258L7.5646 7.56732L7.11325 7.9775Z" fill="black"/>
</svg>
