<svg width="10" height="11" viewBox="0 0 10 11" fill="none" xmlns="http://www.w3.org/2000/svg">
<path d="M3.66943 9.50696H6.10919" stroke="black" stroke-width="0.609939" stroke-miterlimit="10" stroke-linecap="square"/>
<path d="M7.32922 4.9325V5.54243C7.32922 6.8843 6.23133 7.98219 4.88946 7.98219C3.5476 7.98219 2.44971 6.8843 2.44971 5.54243V4.9325" stroke="black" stroke-width="0.609939" stroke-miterlimit="10" stroke-linecap="square"/>
<path d="M4.88916 7.98218V9.50702" stroke="black" stroke-width="0.609939" stroke-miterlimit="10" stroke-linecap="square"/>
<path d="M4.88912 7.0673C4.68784 7.06683 4.48872 7.02593 4.30356 6.94702C4.1184 6.86811 3.95098 6.7528 3.81124 6.60794C3.52517 6.31944 3.36454 5.92968 3.36427 5.5234V3.40767C3.36349 3.20721 3.4024 3.00857 3.47875 2.82321C3.5551 2.63786 3.66739 2.46945 3.80914 2.3277C3.9509 2.18595 4.1193 2.07366 4.30466 1.9973C4.49002 1.92095 4.68865 1.88204 4.88912 1.88282C5.74417 1.88282 6.41396 2.55261 6.41396 3.40767V5.5234C6.41396 6.37464 5.72988 7.0673 4.88912 7.0673Z" fill="black"/>
</svg>
