<svg width="11" height="11" viewBox="0 0 11 11" fill="none" xmlns="http://www.w3.org/2000/svg">
<g clip-path="url(#clip0_201_11943)">
<path d="M4.8596 7.51159V9.04958C4.85997 9.17836 4.81992 9.304 4.7451 9.40881C4.67028 9.51361 4.56447 9.5923 4.44256 9.63379L4.03333 9.7716C3.53966 9.93762 3.02979 9.5667 3.02979 9.0412C3.02941 8.90438 3.07197 8.7709 3.15147 8.65956C3.23098 8.54822 3.34342 8.46463 3.47295 8.42059L4.44256 8.09427C4.56442 8.05277 4.6702 7.9741 4.74501 7.86933C4.81982 7.76457 4.8599 7.63898 4.8596 7.51025V2.72147C4.85938 2.65327 4.88185 2.58693 4.92346 2.53289C4.96508 2.47885 5.02348 2.44019 5.08948 2.42298L7.15621 1.88662C7.17311 1.88222 7.19079 1.88175 7.2079 1.88525C7.225 1.88875 7.24108 1.89611 7.2549 1.90679C7.26872 1.91746 7.27991 1.93115 7.28762 1.94682C7.29532 1.96248 7.29934 1.97971 7.29936 1.99717V3.09811C7.29956 3.16649 7.27695 3.23299 7.23511 3.28709C7.19327 3.34118 7.13459 3.37978 7.06835 3.39679L5.32163 3.83766C5.1891 3.87164 5.0717 3.94886 4.98801 4.0571C4.90432 4.16533 4.85914 4.29839 4.8596 4.43521V5.186" stroke="black" stroke-width="0.609939" stroke-linecap="round" stroke-linejoin="round"/>
</g>
<defs>
<clipPath id="clip0_201_11943">
<rect width="9.75902" height="9.75902" fill="white" transform="translate(0.285156 0.967773)"/>
</clipPath>
</defs>
</svg>
