<svg width="10" height="11" viewBox="0 0 10 11" fill="none" xmlns="http://www.w3.org/2000/svg">
<g clip-path="url(#clip0_201_11947)">
<path d="M3.6081 10.1169C3.38645 10.1165 3.17059 10.0461 2.9913 9.91582C2.85291 9.81584 2.74021 9.68446 2.66245 9.53248C2.58468 9.38049 2.54407 9.21223 2.54395 9.04151C2.54345 8.84081 2.60599 8.64503 2.72275 8.48179C2.83951 8.31856 3.00458 8.19611 3.19468 8.13175L4.1641 7.80543C4.2256 7.78443 4.27894 7.74462 4.31657 7.69164C4.3542 7.63865 4.37421 7.57517 4.37376 7.51018V2.7214C4.37349 2.58549 4.41847 2.45336 4.50161 2.34585C4.58475 2.23834 4.70133 2.16157 4.83293 2.12766L6.89891 1.5913C6.96088 1.57523 7.02571 1.57357 7.08843 1.58644C7.15114 1.59931 7.21007 1.62637 7.26071 1.66555C7.31135 1.70472 7.35234 1.75497 7.38055 1.81244C7.40876 1.86991 7.42344 1.93307 7.42346 1.99709V3.09784C7.42382 3.23417 7.37863 3.36671 7.29506 3.47442C7.21149 3.58212 7.09433 3.65883 6.96219 3.69234L5.21529 4.13321C5.14858 4.15057 5.08958 4.1897 5.04763 4.24439C5.00568 4.29908 4.98318 4.36621 4.9837 4.43513V9.04951C4.98422 9.24218 4.92417 9.43013 4.81206 9.58682C4.69994 9.7435 4.54142 9.86099 4.3589 9.92268L3.94967 10.0605C3.83964 10.0978 3.72427 10.1168 3.6081 10.1169Z" fill="black"/>
</g>
<defs>
<clipPath id="clip0_201_11947">
<rect width="9.75902" height="9.75902" fill="white" transform="translate(0.104492 0.967773)"/>
</clipPath>
</defs>
</svg>
