<svg width="11" height="11" viewBox="0 0 11 11" fill="none" xmlns="http://www.w3.org/2000/svg">
<g clip-path="url(#clip0_201_11945)">
<path d="M7.96758 1.57877C7.62201 1.66035 5.55508 2.17098 4.99413 2.3067C4.98576 2.30863 4.97828 2.31333 4.97292 2.32004C4.96756 2.32676 4.96462 2.33508 4.96458 2.34367V7.70199C4.96458 7.70982 4.96216 7.71746 4.95766 7.72388C4.95316 7.73029 4.94679 7.73516 4.93942 7.73782L4.16404 8.01801C3.59565 8.2212 3.13477 8.37902 3.13477 9.14373C3.13477 9.76263 3.58326 10.043 3.85811 10.0968C3.95258 10.1124 4.04829 10.1193 4.14402 10.1173C4.31347 10.1173 4.7349 10.0489 5.04978 9.84592C5.57452 9.50702 5.57452 9.50702 5.57452 8.89575V4.19217C5.57449 4.18373 5.57727 4.17552 5.58241 4.16883C5.58755 4.16214 5.59476 4.15734 5.60292 4.15519L7.98549 3.52619C7.99365 3.52404 8.00087 3.51924 8.00601 3.51255C8.01115 3.50586 8.01392 3.49765 8.01389 3.48922V1.61594C8.01389 1.61024 8.0126 1.60462 8.01013 1.59949C8.00766 1.59435 8.00408 1.58984 7.99963 1.58627C7.99519 1.5827 7.99 1.58018 7.98446 1.57888C7.97891 1.57759 7.97314 1.57755 7.96758 1.57877Z" fill="black"/>
</g>
<defs>
<clipPath id="clip0_201_11945">
<rect width="9.75902" height="9.75902" fill="white" transform="translate(0.694824 0.967773)"/>
</clipPath>
</defs>
</svg>
