<svg width="11" height="11" viewBox="0 0 11 11" fill="none" xmlns="http://www.w3.org/2000/svg">
<g clip-path="url(#clip0_201_11949)">
<path d="M4.17334 5.12308V5.00872C4.17334 4.72586 4.36395 4.49408 4.63537 4.42565L7.96316 3.53591C8.01955 3.52081 8.07866 3.51888 8.13593 3.53025C8.19319 3.54161 8.24708 3.56598 8.29344 3.60147C8.33979 3.63696 8.37738 3.68263 8.40329 3.73494C8.42921 3.78725 8.44276 3.84482 8.44291 3.9032V4.32254" stroke="black" stroke-width="0.609939" stroke-linecap="round" stroke-linejoin="round"/>
<path d="M8.44265 6.60867V8.13352C8.44265 8.39865 8.27244 8.62128 8.02332 8.70534L7.60398 8.85782C7.11031 9.02403 6.61283 8.65921 6.61283 8.13352C6.61169 7.99848 6.65356 7.86658 6.73238 7.75692C6.81119 7.64727 6.92287 7.56554 7.05123 7.52358L8.02332 7.17763C8.27244 7.09376 8.44265 6.8738 8.44265 6.60867ZM8.44265 6.60867V2.0734C8.44251 2.04421 8.43568 2.01545 8.42268 1.98933C8.40967 1.9632 8.39084 1.94041 8.36764 1.92272C8.34443 1.90502 8.31748 1.89289 8.28884 1.88725C8.26021 1.88162 8.23066 1.88264 8.20249 1.89022L4.4018 2.91206C4.33552 2.93078 4.27722 2.97078 4.23589 3.02588C4.19456 3.08099 4.17249 3.14815 4.17308 3.21703V7.52472C4.17308 7.78986 4.00287 8.01267 3.75375 8.09654L2.76259 8.43963C2.49803 8.52883 2.34326 8.76785 2.34326 9.04957C2.34326 9.57526 2.84875 9.93684 3.33441 9.77387L3.75375 9.62139C4.00287 9.53752 4.17308 9.31489 4.17308 9.04957V7.52472" stroke="black" stroke-width="0.609939" stroke-linecap="round" stroke-linejoin="round"/>
</g>
<defs>
<clipPath id="clip0_201_11949">
<rect width="9.75902" height="9.75902" fill="white" transform="translate(0.513672 0.967773)"/>
</clipPath>
</defs>
</svg>
