<svg width="11" height="11" viewBox="0 0 11 11" fill="none" xmlns="http://www.w3.org/2000/svg">
<g clip-path="url(#clip0_201_11952)">
<path d="M9.10915 1.57905C8.65932 1.70352 5.19125 2.70001 4.33372 2.94055C4.31777 2.94502 4.30371 2.95456 4.29367 2.96774C4.28363 2.98091 4.27815 2.99699 4.27806 3.01355V7.72152C4.27808 7.72941 4.27565 7.73711 4.27111 7.74356C4.26657 7.75001 4.26014 7.7549 4.25271 7.75754L3.72187 7.93957C3.35972 8.08138 2.44824 8.2575 2.44824 9.06777C2.44824 9.74518 2.9177 10.0501 3.32236 10.1024C3.37153 10.1112 3.42129 10.1163 3.47122 10.1176C3.6117 10.1176 4.16465 9.98267 4.48715 9.77301C4.888 9.51169 4.888 9.50692 4.888 8.82074V4.81802C4.888 4.80086 4.89981 4.80201 4.91621 4.79762L8.4996 3.808C8.50537 3.80641 8.51143 3.8062 8.5173 3.80739C8.52316 3.80858 8.52867 3.81113 8.53336 3.81484C8.53806 3.81856 8.54182 3.82332 8.54433 3.82875C8.54684 3.83419 8.54804 3.84014 8.54782 3.84612V6.8108C8.5478 6.81876 8.54529 6.82651 8.54064 6.83298C8.53599 6.83944 8.52944 6.84428 8.5219 6.84683C8.35226 6.90401 8.15536 6.97072 8.01717 7.02066C7.43049 7.23261 6.71781 7.36547 6.71781 8.13456C6.71781 8.86858 7.25647 9.17489 7.60032 9.19871C7.73611 9.20901 7.87265 9.2026 8.00688 9.17965C8.17843 9.15335 8.46605 9.06719 8.73385 8.89641C9.15757 8.62613 9.15757 8.6208 9.15757 7.82959V1.61584C9.15758 1.60995 9.15623 1.60413 9.15361 1.59885C9.151 1.59357 9.1472 1.58897 9.14251 1.5854C9.13782 1.58184 9.13237 1.57941 9.12658 1.57831C9.12079 1.57721 9.11483 1.57746 9.10915 1.57905Z" fill="black"/>
</g>
<defs>
<clipPath id="clip0_201_11952">
<rect width="9.75902" height="9.75902" fill="white" transform="translate(0.92334 0.967773)"/>
</clipPath>
</defs>
</svg>
