<svg width="11" height="11" viewBox="0 0 11 11" fill="none" xmlns="http://www.w3.org/2000/svg">
<path d="M5.97355 9.81203C5.93282 9.81204 5.8925 9.8039 5.85497 9.78807C5.81743 9.77225 5.78345 9.74907 5.75503 9.71989C5.7266 9.69072 5.70431 9.65615 5.68946 9.61822C5.67461 9.58029 5.66751 9.53977 5.66858 9.49905V6.00239C5.66858 5.96195 5.65252 5.92316 5.62392 5.89457C5.59533 5.86597 5.55654 5.8499 5.5161 5.8499H2.01677C1.95262 5.85066 1.88981 5.83156 1.83696 5.79522C1.7841 5.75888 1.74377 5.70707 1.72152 5.64691C1.69617 5.57516 1.69856 5.49653 1.72822 5.42646C1.75788 5.35638 1.81266 5.29993 1.88182 5.26818L9.20108 1.91065C9.25763 1.88474 9.32075 1.87674 9.38197 1.88773C9.4432 1.89871 9.4996 1.92815 9.54361 1.97211C9.58762 2.01606 9.61715 2.07242 9.62822 2.13362C9.63929 2.19483 9.63138 2.25796 9.60555 2.31455L6.25088 9.63381C6.22659 9.68697 6.18754 9.73203 6.13837 9.76362C6.08921 9.79522 6.032 9.81202 5.97355 9.81203Z" fill="black"/>
</svg>
