<svg width="11" height="11" viewBox="0 0 11 11" fill="none" xmlns="http://www.w3.org/2000/svg">
<path d="M7.16105 4.03666L3.60567 5.6063C3.40611 5.6978 3.4732 6.00029 3.69278 6.00029H5.39299C5.41321 6.00029 5.4326 6.00832 5.4469 6.02262C5.46119 6.03692 5.46923 6.05631 5.46923 6.07653V7.77635C5.46923 7.99593 5.7742 8.06226 5.86531 7.86327L7.43247 4.30809C7.45001 4.2701 7.45548 4.22765 7.44814 4.18645C7.44079 4.14526 7.42099 4.10731 7.39141 4.07773C7.36182 4.04814 7.32387 4.02834 7.28268 4.021C7.24149 4.01365 7.19903 4.01912 7.16105 4.03666Z" fill="black"/>
<path d="M9.28118 5.84738C9.28118 3.82695 7.64197 2.18774 5.62155 2.18774C3.60112 2.18774 1.96191 3.82695 1.96191 5.84738C1.96191 7.8678 3.60112 9.50701 5.62155 9.50701C7.64197 9.50701 9.28118 7.8678 9.28118 5.84738Z" stroke="black" stroke-width="0.609939" stroke-miterlimit="10"/>
</svg>
