<svg width="11" height="11" viewBox="0 0 11 11" fill="none" xmlns="http://www.w3.org/2000/svg">
<path d="M5.49583 1.88281C3.26612 1.8527 1.44584 3.67299 1.47595 5.90269C1.50569 8.0411 3.24687 9.78229 5.38528 9.81202C7.61537 9.84252 9.43527 8.02223 9.40478 5.79252C9.37542 3.65373 7.63424 1.91255 5.49583 1.88281ZM7.25131 4.30808L5.68377 7.86327C5.59247 8.06283 5.28769 7.99669 5.28769 7.77635V6.07614C5.28769 6.05592 5.27966 6.03653 5.26536 6.02223C5.25106 6.00793 5.23167 5.9999 5.21145 5.9999H3.51163C3.29205 5.9999 3.22572 5.69741 3.42452 5.60592L6.97989 4.03666C7.01788 4.01912 7.06033 4.01365 7.10152 4.02099C7.14272 4.02833 7.18067 4.04814 7.21025 4.07772C7.23984 4.10731 7.25964 4.14526 7.26698 4.18645C7.27432 4.22764 7.26885 4.2701 7.25131 4.30808Z" fill="black"/>
</svg>
