<svg width="10" height="11" viewBox="0 0 10 11" fill="none" xmlns="http://www.w3.org/2000/svg">
<g clip-path="url(#clip0_201_11969)">
<path d="M7.21316 8.89444V2.34027C7.21281 2.21905 7.1645 2.1029 7.07878 2.01719C6.99307 1.93147 6.87692 1.88316 6.7557 1.88281H1.57122C1.45001 1.88316 1.33386 1.93147 1.24814 2.01719C1.16243 2.1029 1.11412 2.21905 1.11377 2.34027V9.04959C1.11437 9.25162 1.19489 9.44519 1.33774 9.58804C1.4806 9.73089 1.67417 9.81141 1.87619 9.81202H8.12807" stroke="black" stroke-width="0.609939" stroke-linejoin="round"/>
<path d="M8.1278 9.81195C7.88515 9.81195 7.65244 9.71556 7.48086 9.54398C7.30928 9.3724 7.21289 9.13969 7.21289 8.89704V3.40759H8.58525C8.70658 3.40759 8.82293 3.45579 8.90872 3.54158C8.99451 3.62737 9.04271 3.74372 9.04271 3.86505V8.89704C9.04271 9.13969 8.94632 9.3724 8.77474 9.54398C8.60316 9.71556 8.37045 9.81195 8.1278 9.81195Z" stroke="black" stroke-width="0.609939" stroke-linejoin="round"/>
<path d="M4.77344 3.40759H5.99332" stroke="black" stroke-width="0.609939" stroke-linecap="round" stroke-linejoin="round"/>
<path d="M4.77344 4.62744H5.99332" stroke="black" stroke-width="0.609939" stroke-linecap="round" stroke-linejoin="round"/>
<path d="M2.3335 5.84741H5.99313" stroke="black" stroke-width="0.609939" stroke-linecap="round" stroke-linejoin="round"/>
<path d="M2.3335 7.06726H5.99313" stroke="black" stroke-width="0.609939" stroke-linecap="round" stroke-linejoin="round"/>
<path d="M2.3335 8.28711H5.99313" stroke="black" stroke-width="0.609939" stroke-linecap="round" stroke-linejoin="round"/>
<path d="M3.55366 4.93248H2.33378C2.2529 4.93248 2.17532 4.90035 2.11813 4.84315C2.06094 4.78596 2.02881 4.70839 2.02881 4.62751V3.40763C2.02881 3.32675 2.06094 3.24918 2.11813 3.19198C2.17532 3.13479 2.2529 3.10266 2.33378 3.10266H3.55366C3.63454 3.10266 3.71211 3.13479 3.7693 3.19198C3.82649 3.24918 3.85862 3.32675 3.85862 3.40763V4.62751C3.85862 4.70839 3.82649 4.78596 3.7693 4.84315C3.71211 4.90035 3.63454 4.93248 3.55366 4.93248Z" fill="black"/>
</g>
<defs>
<clipPath id="clip0_201_11969">
<rect width="9.75902" height="9.75902" fill="white" transform="translate(0.19873 0.967773)"/>
</clipPath>
</defs>
</svg>
