<svg width="11" height="11" viewBox="0 0 11 11" fill="none" xmlns="http://www.w3.org/2000/svg">
<path d="M5.35376 1.88269C3.1677 1.88269 1.38916 3.66123 1.38916 5.84729C1.38916 8.03335 3.1677 9.81189 5.35376 9.81189C7.53982 9.81189 9.31836 8.03335 9.31836 5.84729C9.31836 3.66123 7.53982 1.88269 5.35376 1.88269ZM3.27292 6.93375C3.58418 6.56511 3.80395 6.41015 3.80395 5.39365C3.80395 5.346 3.80522 5.29987 3.80776 5.25527C3.80823 5.23999 3.81329 5.2252 3.82227 5.21283C3.83126 5.20046 3.84375 5.19107 3.85814 5.18589C3.87253 5.18071 3.88814 5.17998 3.90295 5.18378C3.91775 5.18759 3.93108 5.19576 3.94118 5.20724L5.80912 7.24424C5.81909 7.25514 5.82568 7.2687 5.82809 7.28328C5.8305 7.29785 5.82862 7.31282 5.82268 7.32634C5.81675 7.33987 5.80701 7.35138 5.79465 7.35948C5.7823 7.36758 5.76785 7.37191 5.75308 7.37195H3.48582C3.26053 7.37214 3.14388 7.08623 3.27292 6.93375ZM6.11161 7.76117C6.06911 8.11817 5.75251 8.28705 5.35376 8.28705C4.95501 8.28705 4.6388 8.11817 4.5961 7.76136C4.59498 7.75069 4.59611 7.73991 4.59944 7.72972C4.60276 7.71952 4.6082 7.71014 4.61539 7.70219C4.62259 7.69424 4.63138 7.6879 4.64119 7.68358C4.65101 7.67925 4.66162 7.67705 4.67235 7.67711H6.03575C6.04644 7.6771 6.05701 7.67935 6.06678 7.68369C6.07655 7.68804 6.08529 7.69439 6.09245 7.70233C6.0996 7.71028 6.105 7.71964 6.10831 7.72981C6.11161 7.73998 6.11273 7.75073 6.11161 7.76136V7.76117ZM7.38867 8.0932C7.32881 8.14759 7.24981 8.17598 7.16902 8.17211C7.08824 8.16825 7.0123 8.13246 6.9579 8.07262L3.29827 4.03177C3.24501 3.97174 3.21756 3.89314 3.22188 3.813C3.22619 3.73287 3.26191 3.65766 3.3213 3.60369C3.38069 3.54972 3.45896 3.52133 3.53914 3.52468C3.61932 3.52803 3.69494 3.56285 3.74962 3.62159L7.40926 7.66243C7.43621 7.69207 7.45707 7.72674 7.47063 7.76444C7.48418 7.80215 7.49018 7.84216 7.48826 7.88218C7.48635 7.9222 7.47657 7.96145 7.45948 7.99769C7.44239 8.03394 7.41833 8.06645 7.38867 8.09339V8.0932ZM7.35512 7.12835L4.60068 4.12288C4.59249 4.114 4.58652 4.10329 4.58328 4.09165C4.58004 4.08001 4.57961 4.06776 4.58203 4.05592C4.58445 4.04408 4.58965 4.03299 4.5972 4.02355C4.60475 4.01412 4.61443 4.00661 4.62546 4.00166C4.65043 3.9906 4.6752 3.98031 4.6996 3.97059C4.72747 3.95896 4.75258 3.94163 4.77333 3.9197C4.79408 3.89776 4.81 3.87173 4.82007 3.84326C4.89097 3.60958 5.08977 3.40754 5.35376 3.40754C5.61775 3.40754 5.81674 3.60958 5.88746 3.84326C5.89757 3.87176 5.91356 3.89781 5.93437 3.91974C5.95519 3.94168 5.98037 3.959 6.0083 3.97059C6.41258 4.13146 6.90415 4.46254 6.90415 5.39384C6.90415 6.41034 7.12411 6.56531 7.43537 6.93394C7.46761 6.97297 7.4861 7.02153 7.48798 7.07213C7.4891 7.08798 7.48523 7.10379 7.47692 7.11734C7.46861 7.1309 7.45628 7.14151 7.44164 7.14771C7.427 7.1539 7.41079 7.15537 7.39528 7.1519C7.37977 7.14843 7.36573 7.1402 7.35512 7.12835Z" fill="black"/>
</svg>
