<svg width="10" height="11" viewBox="0 0 10 11" fill="none" xmlns="http://www.w3.org/2000/svg">
<g clip-path="url(#clip0_201_12021)">
<path d="M8.26385 7.66624C7.77437 7.06717 7.4288 6.7622 7.4288 5.1106C7.4288 3.59814 6.65647 3.0593 6.0208 2.7976C5.93636 2.76291 5.85687 2.68324 5.83114 2.59651C5.71964 2.21701 5.40705 1.88269 4.99152 1.88269C4.576 1.88269 4.26322 2.2172 4.15286 2.59689C4.12713 2.68457 4.04764 2.76291 3.96321 2.7976C3.32677 3.05968 2.5552 3.59662 2.5552 5.1106C2.55425 6.7622 2.20868 7.06717 1.7192 7.66624C1.5164 7.91441 1.69404 8.28705 2.04876 8.28705H7.93619C8.28901 8.28705 8.46551 7.91327 8.26385 7.66624Z" stroke="black" stroke-width="0.609939" stroke-linecap="round" stroke-linejoin="round"/>
<path d="M6.21124 8.28711V8.59208C6.21124 8.91561 6.08272 9.22589 5.85395 9.45466C5.62517 9.68343 5.31489 9.81196 4.99136 9.81196C4.66783 9.81196 4.35755 9.68343 4.12878 9.45466C3.90001 9.22589 3.77148 8.91561 3.77148 8.59208V8.28711" stroke="black" stroke-width="0.609939" stroke-linecap="round" stroke-linejoin="round"/>
</g>
<defs>
<clipPath id="clip0_201_12021">
<rect width="9.75902" height="9.75902" fill="white" transform="translate(0.111816 0.967773)"/>
</clipPath>
</defs>
</svg>
