<svg width="11" height="11" viewBox="0 0 11 11" fill="none" xmlns="http://www.w3.org/2000/svg">
<path d="M9.19427 5.84725C9.19427 3.82683 7.55506 2.18762 5.53463 2.18762C3.51421 2.18762 1.875 3.82683 1.875 5.84725C1.875 7.86768 3.51421 9.50689 5.53463 9.50689C7.55506 9.50689 9.19427 7.86768 9.19427 5.84725Z" stroke="black" stroke-width="0.609939" stroke-miterlimit="10"/>
<path d="M4.85303 7.67713C4.84231 7.67707 4.83169 7.67927 4.82188 7.68359C4.81207 7.68791 4.80327 7.69426 4.79608 7.70221C4.78888 7.71016 4.78345 7.71954 4.78012 7.72973C4.7768 7.73993 4.77566 7.75071 4.77679 7.76137C4.81968 8.11819 5.13646 8.28706 5.53464 8.28706C5.93281 8.28706 6.24941 8.11819 6.29191 7.76137C6.29304 7.75071 6.2919 7.73993 6.28858 7.72973C6.28526 7.71954 6.27982 7.71016 6.27262 7.70221C6.26543 7.69426 6.25664 7.68791 6.24682 7.68359C6.23701 7.67927 6.2264 7.67707 6.21567 7.67713H4.85303Z" fill="black"/>
<path d="M7.36449 8.17274C7.32197 8.17281 7.27992 8.16396 7.24104 8.14676C7.20217 8.12955 7.16734 8.10438 7.13881 8.07286L3.47918 4.03201C3.42592 3.97198 3.39847 3.89338 3.40278 3.81324C3.4071 3.73311 3.44282 3.65791 3.50221 3.60393C3.5616 3.54996 3.63986 3.52157 3.72004 3.52492C3.80022 3.52827 3.87585 3.56309 3.93053 3.62183L7.59016 7.66267C7.62989 7.70639 7.65607 7.76071 7.66551 7.81903C7.67495 7.87734 7.66725 7.93714 7.64335 7.99116C7.61945 8.04518 7.58037 8.0911 7.53087 8.12333C7.48136 8.15557 7.42356 8.17273 7.36449 8.17274Z" fill="black"/>
<path d="M3.98475 5.39384C3.98475 6.41034 3.76479 6.56531 3.45353 6.93394C3.32449 7.08642 3.44114 7.37233 3.66681 7.37233H5.93178C5.94657 7.37233 5.96104 7.36802 5.97343 7.35994C5.98581 7.35186 5.99558 7.34035 6.00154 7.32681C6.0075 7.31328 6.00939 7.2983 6.00699 7.28371C6.00459 7.26911 5.998 7.25554 5.98801 7.24462L4.12008 5.20762C4.10989 5.19654 4.09666 5.18873 4.08204 5.18516C4.06742 5.18159 4.05207 5.18243 4.03793 5.18756C4.02379 5.1927 4.01148 5.2019 4.00256 5.21402C3.99364 5.22614 3.9885 5.24062 3.98779 5.25565C3.98589 5.30006 3.98475 5.34619 3.98475 5.39384Z" fill="black"/>
<path d="M7.61642 6.9338C7.30516 6.56517 7.08539 6.41021 7.08539 5.39371C7.08539 4.46241 6.59401 4.13132 6.18954 3.97045C6.16164 3.95881 6.13648 3.94147 6.11567 3.91955C6.09487 3.89762 6.07886 3.87159 6.0687 3.84313C5.99798 3.60964 5.79956 3.40759 5.535 3.40759C5.27044 3.40759 5.07164 3.60963 5.0013 3.84332C4.9912 3.87179 4.97524 3.89783 4.95446 3.91976C4.93368 3.94169 4.90854 3.95902 4.88065 3.97064C4.85625 3.98036 4.83166 3.99066 4.80669 4.00171C4.79567 4.00667 4.78599 4.01417 4.77843 4.02361C4.77088 4.03304 4.76568 4.04414 4.76326 4.05598C4.76084 4.06782 4.76127 4.08007 4.76452 4.09171C4.76776 4.10335 4.77372 4.11405 4.78192 4.12294L7.53636 7.12841C7.54701 7.14002 7.561 7.14805 7.57641 7.15138C7.59181 7.15472 7.60787 7.1532 7.62237 7.14704C7.63687 7.14087 7.64911 7.13036 7.65739 7.11696C7.66568 7.10355 7.66961 7.08791 7.66864 7.07218C7.66704 7.02154 7.64867 6.97287 7.61642 6.9338Z" fill="black"/>
</svg>
