<svg width="11" height="11" viewBox="0 0 11 11" fill="none" xmlns="http://www.w3.org/2000/svg">
<g clip-path="url(#clip0_201_12006)">
<path d="M3.33282 4.86743C3.32812 4.94558 3.32577 5.02665 3.32577 5.11064C3.32577 6.76225 2.98001 7.06721 2.49072 7.66629C2.28792 7.91446 2.46537 8.28709 2.82028 8.28709H6.98273" stroke="black" stroke-width="0.609939" stroke-linecap="round" stroke-linejoin="round"/>
<path d="M8.78409 7.3588C8.43185 6.91183 8.20046 6.462 8.20046 5.10965C8.20046 3.59814 7.42812 3.0593 6.79226 2.7976C6.70782 2.76291 6.62834 2.68324 6.60261 2.59651C6.49129 2.21701 6.17889 1.88269 5.76299 1.88269C5.34709 1.88269 5.03487 2.2172 4.92432 2.59689C4.89859 2.68457 4.81911 2.76291 4.73372 2.7976C4.61574 2.84572 4.50112 2.90169 4.39062 2.96514" stroke="black" stroke-width="0.609939" stroke-linecap="round" stroke-linejoin="round"/>
<path d="M6.98272 8.28711V8.59208C6.98272 8.91561 6.8542 9.22589 6.62543 9.45466C6.39666 9.68343 6.08638 9.81196 5.76285 9.81196C5.43931 9.81196 5.12903 9.68343 4.90026 9.45466C4.67149 9.22589 4.54297 8.91561 4.54297 8.59208V8.28711" stroke="black" stroke-width="0.609939" stroke-linecap="round" stroke-linejoin="round"/>
<path d="M9.42229 9.50689L2.10303 2.18762" stroke="black" stroke-width="0.609939" stroke-miterlimit="10" stroke-linecap="round"/>
</g>
<defs>
<clipPath id="clip0_201_12006">
<rect width="9.75902" height="9.75902" fill="white" transform="translate(0.883301 0.967773)"/>
</clipPath>
</defs>
</svg>
