<svg width="10" height="11" viewBox="0 0 10 11" fill="none" xmlns="http://www.w3.org/2000/svg">
<g clip-path="url(#clip0_201_12002)">
<path d="M4.94409 1.88269C2.75804 1.88269 0.979492 3.66123 0.979492 5.84729C0.979492 8.03335 2.75804 9.81189 4.94409 9.81189C7.13015 9.81189 8.9087 8.03335 8.9087 5.84729C8.9087 3.66123 7.13015 1.88269 4.94409 1.88269ZM2.80931 6.83844L3.343 6.15226V5.5366C3.34216 5.37404 3.3571 5.21177 3.38761 5.05208L5.51439 7.37214H2.80931V6.83844ZM4.94752 8.28705C4.51714 8.28705 4.18167 8.09168 4.18167 7.67711H5.70652C5.7008 8.08443 5.37391 8.28705 4.94752 8.28705ZM6.72931 8.21576L2.70752 3.88901L3.15888 3.47882L7.18066 7.80558L6.72931 8.21576ZM7.07888 7.27398L7.07278 7.26673L4.10886 4.03349C4.20512 3.98774 4.30629 3.95314 4.4104 3.93037L4.48664 3.40754H5.40155L5.47779 3.93037C6.24021 4.10039 6.54518 4.76904 6.54518 5.5366V6.15226L7.07888 6.83844V7.27398Z" fill="black"/>
</g>
<defs>
<clipPath id="clip0_201_12002">
<rect width="9.75902" height="9.75902" fill="white" transform="translate(0.0644531 0.967773)"/>
</clipPath>
</defs>
</svg>
