<svg width="11" height="11" viewBox="0 0 11 11" fill="none" xmlns="http://www.w3.org/2000/svg">
<path d="M8.96575 5.84738C8.96575 3.82695 7.32654 2.18774 5.30612 2.18774C3.28569 2.18774 1.64648 3.82695 1.64648 5.84738C1.64648 7.8678 3.28569 9.50701 5.30612 9.50701C7.32654 9.50701 8.96575 7.8678 8.96575 5.84738Z" stroke="black" stroke-width="0.609939" stroke-miterlimit="10"/>
<path d="M7.38784 6.9338C7.07658 6.56517 6.85681 6.41021 6.85681 5.39371C6.85681 4.46241 6.36543 4.13132 5.96097 3.97045C5.93307 3.95881 5.90791 3.94147 5.8871 3.91955C5.86629 3.89762 5.85029 3.87159 5.84012 3.84313C5.76941 3.60964 5.57099 3.40759 5.30643 3.40759C5.04187 3.40759 4.84306 3.60963 4.77273 3.84332C4.76262 3.87179 4.74667 3.89783 4.72589 3.91976C4.70511 3.94169 4.67996 3.95902 4.65208 3.97064C4.24723 4.13189 3.75623 4.46241 3.75623 5.3939C3.75623 6.4104 3.53627 6.56536 3.22501 6.93399C3.09597 7.08648 3.21262 7.37239 3.4383 7.37239H7.17436C7.39871 7.37219 7.51631 7.08629 7.38784 6.9338Z" fill="black"/>
<path d="M4.62452 7.67713C4.61379 7.67707 4.60318 7.67927 4.59336 7.68359C4.58355 7.68791 4.57476 7.69426 4.56756 7.70221C4.56037 7.71016 4.55493 7.71954 4.55161 7.72973C4.54828 7.73993 4.54715 7.75071 4.54827 7.76137C4.59116 8.11819 4.90795 8.28706 5.30612 8.28706C5.7001 8.28706 6.01403 8.11266 6.06206 7.76252C6.06336 7.75176 6.06236 7.74086 6.05911 7.73052C6.05587 7.72019 6.05046 7.71067 6.04325 7.70259C6.03603 7.69451 6.02718 7.68806 6.01728 7.68367C6.00738 7.67928 5.99665 7.67705 5.98582 7.67713H4.62452Z" fill="black"/>
</svg>
