<svg width="11" height="11" viewBox="0 0 11 11" fill="none" xmlns="http://www.w3.org/2000/svg">
<g clip-path="url(#clip0_201_12016)">
<path d="M9.24127 9.81187C9.20122 9.81193 9.16155 9.80407 9.12455 9.78872C9.08755 9.77338 9.05395 9.75086 9.0257 9.72247L1.70643 2.40321C1.65165 2.34555 1.62157 2.26877 1.62258 2.18925C1.6236 2.10972 1.65565 2.03374 1.71188 1.97751C1.76812 1.92127 1.8441 1.88923 1.92362 1.88821C2.00315 1.88719 2.07992 1.91728 2.13758 1.97206L9.45685 9.29132C9.49947 9.33397 9.52849 9.3883 9.54025 9.44744C9.552 9.50658 9.54597 9.56788 9.52289 9.62358C9.49982 9.67929 9.46076 9.72691 9.41063 9.76042C9.36051 9.79394 9.30157 9.81184 9.24127 9.81187Z" fill="black"/>
<path d="M9.09047 7.47339C9.05883 7.43527 9.02776 7.39715 8.99726 7.36036C8.57793 6.85316 8.32423 6.54704 8.32423 5.11121C8.32423 4.36785 8.1464 3.75791 7.79587 3.30045C7.53741 2.96251 7.18803 2.70615 6.72753 2.51668C6.7216 2.51339 6.71631 2.50906 6.7119 2.50391C6.54626 1.94925 6.093 1.57776 5.58179 1.57776C5.07059 1.57776 4.61752 1.94925 4.45188 2.50334C4.44746 2.5083 4.44224 2.51249 4.43644 2.51573C4.29221 2.57472 4.15278 2.64482 4.0194 2.7254C3.99969 2.73741 3.98296 2.75375 3.97048 2.77318C3.958 2.7926 3.9501 2.81461 3.94736 2.83753C3.94463 2.86046 3.94713 2.8837 3.95469 2.90552C3.96225 2.92733 3.97467 2.94715 3.991 2.96346L8.98068 7.95238C9.00312 7.97485 9.03202 7.98975 9.06334 7.995C9.09466 8.00025 9.12683 7.99559 9.15538 7.98168C9.18392 7.96776 9.20741 7.94528 9.22256 7.91738C9.23771 7.88947 9.24378 7.85753 9.2399 7.82601C9.2252 7.6965 9.1733 7.57402 9.09047 7.47339Z" fill="black"/>
<path d="M2.83947 5.1106C2.83947 6.547 2.58615 6.85312 2.16644 7.35975C2.13594 7.39653 2.10487 7.43389 2.07323 7.47278C1.9915 7.57134 1.93971 7.69126 1.92401 7.81834C1.9083 7.94542 1.92933 8.07433 1.9846 8.18984C2.1022 8.43762 2.35285 8.59144 2.63895 8.59144H6.66416C6.69434 8.59147 6.72384 8.58254 6.74894 8.56578C6.77404 8.54903 6.7936 8.52521 6.80515 8.49733C6.8167 8.46945 6.81972 8.43877 6.81383 8.40918C6.80794 8.37958 6.7934 8.3524 6.77205 8.33107L3.11241 4.67144C3.09183 4.65093 3.06582 4.63672 3.03744 4.6305C3.00906 4.62427 2.97949 4.62628 2.95221 4.63629C2.92494 4.64631 2.90109 4.66391 2.88348 4.68702C2.86587 4.71013 2.85523 4.73779 2.85281 4.76674C2.84391 4.87717 2.83947 4.99179 2.83947 5.1106Z" fill="black"/>
<path d="M5.58175 10.1168C5.85718 10.1166 6.12742 10.0418 6.3638 9.90045C6.60018 9.75907 6.79389 9.55635 6.92438 9.31379C6.93053 9.30217 6.93356 9.28915 6.93319 9.276C6.93282 9.26286 6.92906 9.25003 6.92227 9.23877C6.91548 9.22751 6.90589 9.2182 6.89444 9.21174C6.88298 9.20528 6.87005 9.20189 6.8569 9.2019H4.30698C4.29381 9.20186 4.28086 9.20522 4.26938 9.21167C4.2579 9.21812 4.24828 9.22743 4.24147 9.23869C4.23466 9.24996 4.23088 9.2628 4.2305 9.27596C4.23012 9.28912 4.23316 9.30215 4.23931 9.31379C4.36979 9.55632 4.56347 9.75902 4.79981 9.9004C5.03615 10.0418 5.30635 10.1166 5.58175 10.1168Z" fill="black"/>
</g>
<defs>
<clipPath id="clip0_201_12016">
<rect width="9.75902" height="9.75902" fill="white" transform="translate(0.702148 0.967773)"/>
</clipPath>
</defs>
</svg>
