<svg width="11" height="11" viewBox="0 0 11 11" fill="none" xmlns="http://www.w3.org/2000/svg">
<g clip-path="url(#clip0_201_12011)">
<path d="M1.51283 1.75633L1.08154 2.18762L8.83213 9.93821L9.26342 9.50692L1.51283 1.75633Z" fill="black"/>
<path d="M5.17253 10.1169C5.46911 10.1166 5.75919 10.03 6.00731 9.86748C6.25542 9.705 6.45084 9.47376 6.56967 9.20203H3.77539C3.89422 9.47376 4.08964 9.705 4.33776 9.86748C4.58587 10.03 4.87595 10.1166 5.17253 10.1169Z" fill="black"/>
<path d="M2.4276 5.30354V6.45728L1.5127 7.67716V8.59207H6.62322L2.50137 4.47021C2.45103 4.74511 2.42633 5.02408 2.4276 5.30354Z" fill="black"/>
<path d="M8.83214 7.67715L7.91723 6.45727V5.30353C7.91723 3.96033 7.39573 2.7902 6.08742 2.49267L5.93493 1.57776H4.41008L4.2576 2.49267C3.97096 2.55462 3.69928 2.6723 3.45801 2.839L8.83309 8.21408L8.83214 7.67715Z" fill="black"/>
</g>
<defs>
<clipPath id="clip0_201_12011">
<rect width="9.75902" height="9.75902" fill="white" transform="translate(0.292969 0.967773)"/>
</clipPath>
</defs>
</svg>
