<svg width="11" height="11" viewBox="0 0 11 11" fill="none" xmlns="http://www.w3.org/2000/svg">
<g clip-path="url(#clip0_201_12050)">
<path d="M9.33974 4.0067C9.00427 3.46709 8.47248 3.17184 7.71425 3.1038C7.27929 3.06567 6.75684 3.19796 6.33713 3.30489C6.14804 3.35311 5.93342 3.40762 5.85718 3.40762C5.78094 3.40762 5.56784 3.35311 5.38067 3.30489C4.95981 3.19719 4.43602 3.06301 3.99973 3.10399C3.26532 3.1728 2.74173 3.46976 2.39864 4.01165C2.05555 4.55354 1.89258 5.33274 1.89258 6.45732C1.89258 7.62535 2.45544 8.64128 2.7909 9.14276C3.20433 9.76128 3.82246 10.4219 4.31708 10.4219C4.67104 10.4219 4.96743 10.2841 5.22856 10.1619C5.60939 9.98352 5.85718 9.96446 5.85718 9.96446C5.85718 9.96446 6.06685 9.96446 6.46598 10.1572C6.7273 10.2833 7.02559 10.4219 7.39727 10.4219C7.90391 10.4219 8.52337 9.76071 8.93413 9.142C9.26559 8.64261 9.82178 7.62992 9.82178 6.45732C9.82178 5.31368 9.6693 4.53544 9.33974 4.0067ZM5.09476 7.67719C4.8422 7.67719 4.6373 7.26758 4.6373 6.76228C4.6373 6.25699 4.8422 5.84738 5.09476 5.84738C5.34731 5.84738 5.55221 6.25699 5.55221 6.76228C5.55221 7.26758 5.34731 7.67719 5.09476 7.67719ZM6.6196 7.67719C6.36705 7.67719 6.16215 7.26758 6.16215 6.76228C6.16215 6.25699 6.36705 5.84738 6.6196 5.84738C6.87216 5.84738 7.07706 6.25699 7.07706 6.76228C7.07706 7.26758 6.87216 7.67719 6.6196 7.67719Z" fill="black"/>
<path d="M7.14773 2.54531C7.71879 1.97464 7.68677 1.27626 7.68677 1.2755C7.68677 1.2755 7.00497 1.20383 6.40532 1.80291C5.80568 2.40198 5.85809 3.10265 5.85809 3.10265C5.85809 3.10265 6.5763 3.11618 7.14773 2.54531Z" fill="black"/>
</g>
<defs>
<clipPath id="clip0_201_12050">
<rect width="9.75902" height="9.75902" fill="white" transform="translate(0.977539 0.967773)"/>
</clipPath>
</defs>
</svg>
