<svg width="11" height="11" viewBox="0 0 11 11" fill="none" xmlns="http://www.w3.org/2000/svg">
<g clip-path="url(#clip0_201_12053)">
<path d="M8.75494 4.13736C8.39907 3.51655 7.85032 3.16889 7.12392 3.1037C6.73928 3.06939 6.38056 3.16793 6.03308 3.26343C5.76338 3.33757 5.50854 3.40753 5.26685 3.40753C5.02516 3.40753 4.77127 3.33738 4.50328 3.26324C4.15485 3.16793 3.79461 3.06768 3.40863 3.10389C2.71502 3.16889 2.15997 3.52532 1.80163 4.13469C1.47036 4.69907 1.30225 5.48056 1.30225 6.45722C1.30225 7.22727 1.58815 8.18201 2.06467 9.01134C2.30903 9.43544 2.96052 10.4218 3.72599 10.4218C4.31248 10.4218 4.6247 10.2419 4.85266 10.1106C5.01086 10.0195 5.10636 9.96437 5.26609 9.96437C5.42581 9.96437 5.52131 10.0195 5.67951 10.1106C5.90824 10.2419 6.21988 10.4218 6.80694 10.4218C7.57261 10.4218 8.22391 9.43525 8.46826 9.01134C8.94611 8.1822 9.23069 7.22746 9.23069 6.45722C9.23145 5.45521 9.07553 4.6964 8.75494 4.13736ZM4.50442 7.6771C4.25187 7.6771 4.04697 7.26749 4.04697 6.76219C4.04697 6.25689 4.25187 5.84728 4.50442 5.84728C4.75698 5.84728 4.96188 6.25689 4.96188 6.76219C4.96188 7.26749 4.75698 7.6771 4.50442 7.6771ZM6.02927 7.6771C5.77672 7.6771 5.57182 7.26749 5.57182 6.76219C5.57182 6.25689 5.77672 5.84728 6.02927 5.84728C6.28182 5.84728 6.48673 6.25689 6.48673 6.76219C6.48673 7.26749 6.28182 7.6771 6.02927 7.6771Z" fill="black"/>
<path d="M5.44035 3.10126C5.69119 3.06791 6.16199 2.95202 6.56169 2.55251C6.85982 2.25366 7.04794 1.86264 7.09538 1.44318C7.0981 1.42079 7.09581 1.39808 7.08869 1.37668C7.08157 1.35528 7.06979 1.33573 7.05421 1.31943C7.03862 1.30313 7.01961 1.29049 6.99855 1.28243C6.97749 1.27436 6.9549 1.27107 6.93241 1.27278C6.69015 1.29089 6.23175 1.38467 5.81299 1.80362C5.5053 2.10598 5.31226 2.50587 5.2669 2.93486C5.26455 2.95791 5.26748 2.9812 5.27548 3.00295C5.28347 3.02469 5.29632 3.04433 5.31304 3.06037C5.32976 3.07641 5.34991 3.08843 5.37197 3.09552C5.39403 3.1026 5.41742 3.10457 5.44035 3.10126Z" fill="black"/>
</g>
<defs>
<clipPath id="clip0_201_12053">
<rect width="9.75902" height="9.75902" fill="white" transform="translate(0.387207 0.967773)"/>
</clipPath>
</defs>
</svg>
