<svg width="11" height="11" viewBox="0 0 11 11" fill="none" xmlns="http://www.w3.org/2000/svg">
<path d="M8.22938 2.5119C8.16628 2.33359 8.04946 2.17921 7.895 2.07003C7.74054 1.96085 7.55604 1.90222 7.36689 1.90222C7.17774 1.90222 6.99324 1.96085 6.83878 2.07003C6.68432 2.17921 6.5675 2.33359 6.5044 2.5119H1.87744V3.12184H6.5044C6.5675 3.30015 6.68432 3.45453 6.83878 3.56371C6.99324 3.67289 7.17774 3.73152 7.36689 3.73152C7.55604 3.73152 7.74054 3.67289 7.895 3.56371C8.04946 3.45453 8.16628 3.30015 8.22938 3.12184H9.80664V2.5119H8.22938Z" fill="black"/>
<path d="M4.3172 4.34167C4.12807 4.34194 3.94366 4.40071 3.78925 4.5099C3.63484 4.6191 3.51798 4.77339 3.4547 4.95161H1.87744V5.56155H3.4547C3.51781 5.73987 3.63463 5.89424 3.78909 6.00342C3.94354 6.1126 4.12805 6.17123 4.3172 6.17123C4.50635 6.17123 4.69085 6.1126 4.84531 6.00342C4.99976 5.89424 5.11658 5.73987 5.17969 5.56155H9.80664V4.95161H5.17969C5.11641 4.77339 4.99956 4.6191 4.84514 4.5099C4.69073 4.40071 4.50632 4.34194 4.3172 4.34167Z" fill="black"/>
<path d="M7.36689 6.78149C7.17777 6.78176 6.99336 6.84053 6.83894 6.94972C6.68453 7.05892 6.56768 7.21321 6.5044 7.39143H1.87744V8.00137H6.5044C6.5675 8.17969 6.68432 8.33406 6.83878 8.44324C6.99324 8.55242 7.17774 8.61105 7.36689 8.61105C7.55604 8.61105 7.74054 8.55242 7.895 8.44324C8.04946 8.33406 8.16628 8.17969 8.22938 8.00137H9.80664V7.39143H8.22938C8.1661 7.21321 8.04925 7.05892 7.89484 6.94972C7.74042 6.84053 7.55601 6.78176 7.36689 6.78149Z" fill="black"/>
</svg>
