<svg width="11" height="11" viewBox="0 0 11 11" fill="none" xmlns="http://www.w3.org/2000/svg">
<path d="M7.56738 2.81689H9.09223" stroke="black" stroke-width="0.609939" stroke-linecap="round" stroke-linejoin="round"/>
<path d="M1.77295 2.81689H6.34749" stroke="black" stroke-width="0.609939" stroke-linecap="round" stroke-linejoin="round"/>
<path d="M7.56738 7.69641H9.09223" stroke="black" stroke-width="0.609939" stroke-linecap="round" stroke-linejoin="round"/>
<path d="M1.77295 7.69641H6.34749" stroke="black" stroke-width="0.609939" stroke-linecap="round" stroke-linejoin="round"/>
<path d="M4.51758 5.25671H9.09212" stroke="black" stroke-width="0.609939" stroke-linecap="round" stroke-linejoin="round"/>
<path d="M1.77295 5.25671H3.2978" stroke="black" stroke-width="0.609939" stroke-linecap="round" stroke-linejoin="round"/>
<path d="M6.9576 3.42679C7.29445 3.42679 7.56753 3.15371 7.56753 2.81685C7.56753 2.47999 7.29445 2.20691 6.9576 2.20691C6.62074 2.20691 6.34766 2.47999 6.34766 2.81685C6.34766 3.15371 6.62074 3.42679 6.9576 3.42679Z" stroke="black" stroke-width="0.609939" stroke-linecap="round" stroke-linejoin="round"/>
<path d="M3.90779 5.86661C4.24465 5.86661 4.51773 5.59353 4.51773 5.25667C4.51773 4.91981 4.24465 4.64673 3.90779 4.64673C3.57093 4.64673 3.29785 4.91981 3.29785 5.25667C3.29785 5.59353 3.57093 5.86661 3.90779 5.86661Z" stroke="black" stroke-width="0.609939" stroke-linecap="round" stroke-linejoin="round"/>
<path d="M6.9576 8.3063C7.29445 8.3063 7.56753 8.03322 7.56753 7.69636C7.56753 7.3595 7.29445 7.08643 6.9576 7.08643C6.62074 7.08643 6.34766 7.3595 6.34766 7.69636C6.34766 8.03322 6.62074 8.3063 6.9576 8.3063Z" stroke="black" stroke-width="0.609939" stroke-linecap="round" stroke-linejoin="round"/>
</svg>
