<svg width="11" height="11" viewBox="0 0 11 11" fill="none" xmlns="http://www.w3.org/2000/svg">
<path d="M1.59208 3.12184H5.91407C5.97717 3.30015 6.09399 3.45453 6.24845 3.56371C6.40291 3.67289 6.58741 3.73152 6.77656 3.73152C6.96571 3.73152 7.15021 3.67289 7.30467 3.56371C7.45913 3.45453 7.57595 3.30015 7.63905 3.12184H8.91134C8.99223 3.12184 9.0698 3.08971 9.12699 3.03252C9.18418 2.97532 9.21631 2.89775 9.21631 2.81687C9.21631 2.73599 9.18418 2.65842 9.12699 2.60122C9.0698 2.54403 8.99223 2.5119 8.91134 2.5119H7.63905C7.57595 2.33359 7.45913 2.17921 7.30467 2.07003C7.15021 1.96085 6.96571 1.90222 6.77656 1.90222C6.58741 1.90222 6.40291 1.96085 6.24845 2.07003C6.09399 2.17921 5.97717 2.33359 5.91407 2.5119H1.59208C1.5112 2.5119 1.43363 2.54403 1.37643 2.60122C1.31924 2.65842 1.28711 2.73599 1.28711 2.81687C1.28711 2.89775 1.31924 2.97532 1.37643 3.03252C1.43363 3.08971 1.5112 3.12184 1.59208 3.12184Z" fill="black"/>
<path d="M8.91134 7.39142H7.63905C7.57595 7.2131 7.45913 7.05873 7.30467 6.94955C7.15021 6.84036 6.96571 6.78174 6.77656 6.78174C6.58741 6.78174 6.40291 6.84036 6.24845 6.94955C6.09399 7.05873 5.97717 7.2131 5.91407 7.39142H1.59208C1.5112 7.39142 1.43363 7.42355 1.37643 7.48074C1.31924 7.53793 1.28711 7.6155 1.28711 7.69639C1.28711 7.77727 1.31924 7.85484 1.37643 7.91203C1.43363 7.96922 1.5112 8.00136 1.59208 8.00136H5.91407C5.97717 8.17967 6.09399 8.33404 6.24845 8.44322C6.40291 8.55241 6.58741 8.61103 6.77656 8.61103C6.96571 8.61103 7.15021 8.55241 7.30467 8.44322C7.45913 8.33404 7.57595 8.17967 7.63905 8.00136H8.91134C8.99223 8.00136 9.0698 7.96922 9.12699 7.91203C9.18418 7.85484 9.21631 7.77727 9.21631 7.69639C9.21631 7.6155 9.18418 7.53793 9.12699 7.48074C9.0698 7.42355 8.99223 7.39142 8.91134 7.39142Z" fill="black"/>
<path d="M8.91134 4.9516H4.58936C4.52625 4.77328 4.40943 4.61891 4.25497 4.50973C4.10052 4.40054 3.91602 4.34192 3.72686 4.34192C3.53771 4.34192 3.35321 4.40054 3.19875 4.50973C3.0443 4.61891 2.92748 4.77328 2.86437 4.9516H1.59208C1.5112 4.9516 1.43363 4.98373 1.37643 5.04092C1.31924 5.09811 1.28711 5.17568 1.28711 5.25657C1.28711 5.33745 1.31924 5.41502 1.37643 5.47221C1.43363 5.52941 1.5112 5.56154 1.59208 5.56154H2.86437C2.92748 5.73985 3.0443 5.89422 3.19875 6.0034C3.35321 6.11259 3.53771 6.17121 3.72686 6.17121C3.91602 6.17121 4.10052 6.11259 4.25497 6.0034C4.40943 5.89422 4.52625 5.73985 4.58936 5.56154H8.91134C8.99223 5.56154 9.0698 5.52941 9.12699 5.47221C9.18418 5.41502 9.21631 5.33745 9.21631 5.25657C9.21631 5.17568 9.18418 5.09811 9.12699 5.04092C9.0698 4.98373 8.99223 4.9516 8.91134 4.9516Z" fill="black"/>
</svg>
