<svg width="11" height="11" viewBox="0 0 11 11" fill="none" xmlns="http://www.w3.org/2000/svg">
<g clip-path="url(#clip0_201_12089)">
<path d="M9.61606 1.1215C9.5537 1.05915 9.47464 1.01615 9.38841 0.997688C9.30218 0.979224 9.21245 0.986079 9.13002 1.01743L1.50521 3.90339H1.50369C1.41577 3.9372 1.34044 3.99733 1.28797 4.07556C1.23551 4.15379 1.20848 4.24631 1.21056 4.34048C1.21265 4.43465 1.24375 4.52588 1.29963 4.60171C1.3555 4.67754 1.43342 4.73428 1.52275 4.76417L1.53056 4.76664L4.14758 5.88417C4.19863 5.89966 4.25284 5.9015 4.30482 5.88949C4.35679 5.87748 4.40471 5.85205 4.44378 5.81574L8.64397 1.90203C8.65649 1.88951 8.67135 1.87959 8.6877 1.87281C8.70405 1.86604 8.72158 1.86255 8.73928 1.86255C8.75698 1.86255 8.7745 1.86604 8.79085 1.87281C8.80721 1.87959 8.82206 1.88951 8.83458 1.90203C8.8471 1.91454 8.85702 1.9294 8.8638 1.94575C8.87057 1.96211 8.87406 1.97963 8.87406 1.99733C8.87406 2.01503 8.87057 2.03256 8.8638 2.04891C8.85702 2.06526 8.8471 2.08012 8.83458 2.09263L4.92068 6.29092C4.88436 6.32999 4.85893 6.37791 4.84693 6.42989C4.83492 6.48186 4.83676 6.53608 4.85225 6.58712L5.97015 9.20566C5.9713 9.20948 5.97244 9.21291 5.97378 9.21653C6.03477 9.39322 6.18916 9.51788 6.37576 9.52626C6.38396 9.52626 6.38682 9.52626 6.39482 9.52626C6.48903 9.5268 6.58121 9.49899 6.6594 9.44643C6.73758 9.39388 6.79815 9.31902 6.83322 9.23159L9.7188 1.60888C9.7506 1.5264 9.75781 1.43647 9.73958 1.34998C9.72135 1.26348 9.67845 1.18412 9.61606 1.1215Z" fill="black"/>
</g>
<defs>
<clipPath id="clip0_201_12089">
<rect width="9.75902" height="9.75902" fill="white" transform="translate(0.600098 0.377197)"/>
</clipPath>
</defs>
</svg>
