<svg width="11" height="11" viewBox="0 0 11 11" fill="none" xmlns="http://www.w3.org/2000/svg">
<g clip-path="url(#clip0_201_12084)">
<path d="M1.79366 4.18813L9.4179 1.30254C9.4454 1.29202 9.47537 1.28969 9.50417 1.29583C9.53297 1.30197 9.55937 1.31632 9.5802 1.33714C9.60102 1.35796 9.61537 1.38437 9.62151 1.41317C9.62765 1.44197 9.62532 1.47193 9.6148 1.49944L6.72921 9.12367C6.71774 9.15263 6.69767 9.17737 6.67171 9.19458C6.64575 9.21179 6.61514 9.22063 6.584 9.21993C6.55287 9.21922 6.52269 9.209 6.49754 9.19063C6.47238 9.17227 6.45346 9.14664 6.4433 9.11719L5.15862 5.95142C5.14364 5.90656 5.11844 5.86579 5.08499 5.83235C5.05155 5.7989 5.01078 5.77369 4.96592 5.75872L1.80015 4.47518C1.77032 4.46525 1.74429 4.44636 1.72562 4.42107C1.70695 4.39579 1.69655 4.36536 1.69584 4.33393C1.69513 4.30251 1.70415 4.27164 1.72166 4.24554C1.73917 4.21944 1.76432 4.19938 1.79366 4.18813V4.18813Z" stroke="black" stroke-width="0.609939" stroke-linecap="round" stroke-linejoin="round"/>
<path d="M9.54903 1.36829L5.10791 5.8094" stroke="black" stroke-width="0.609939" stroke-linecap="round" stroke-linejoin="round"/>
</g>
<defs>
<clipPath id="clip0_201_12084">
<rect width="9.75902" height="9.75902" fill="white" transform="translate(0.78125 0.377197)"/>
</clipPath>
</defs>
</svg>
