<svg width="11" height="11" viewBox="0 0 11 11" fill="none" xmlns="http://www.w3.org/2000/svg">
<g clip-path="url(#clip0_201_12105)">
<path d="M7.30921 9.52628H2.84904C2.28675 9.52628 1.80223 9.37703 1.44751 9.09475C1.04266 8.77224 0.828613 8.29401 0.828613 7.71171C0.828613 7.20356 1.02074 6.76249 1.38404 6.43637C1.67452 6.17562 2.07346 5.99397 2.50861 5.92478C2.50976 5.92478 2.51014 5.92478 2.51033 5.92383C2.63308 5.18046 2.96454 4.54975 3.46927 4.10011C3.96028 3.66462 4.59436 3.42499 5.25067 3.42689C5.82687 3.42689 6.36533 3.60587 6.80811 3.94477C7.15412 4.21296 7.43003 4.56094 7.61228 4.95898C7.632 5.00222 7.66156 5.04024 7.69859 5.07003C7.73563 5.09981 7.77911 5.12053 7.82556 5.13053C8.32114 5.23746 8.7481 5.46008 9.06774 5.77859C9.46306 6.17371 9.67273 6.69978 9.67273 7.3C9.67273 7.92614 9.42246 8.49834 8.96748 8.911C8.53119 9.30784 7.94202 9.52628 7.30921 9.52628Z" fill="black"/>
<path d="M8.22195 4.60253C8.45259 4.67093 8.67482 4.76498 8.8845 4.88292C8.89461 4.8886 8.90588 4.8919 8.91746 4.89256C8.92905 4.89323 8.94063 4.89125 8.95132 4.88676C8.96202 4.88228 8.97155 4.87541 8.9792 4.86668C8.98684 4.85796 8.99239 4.8476 8.99543 4.83641C9.04138 4.67085 9.06402 4.49969 9.06271 4.32787C9.05528 3.32852 8.23396 2.51292 7.23461 2.51197C6.85889 2.51102 6.49208 2.62641 6.18456 2.84229H6.18342C6.17355 2.84928 6.16585 2.85892 6.1612 2.87009C6.15655 2.88126 6.15514 2.89351 6.15713 2.90544C6.15912 2.91737 6.16442 2.92851 6.17245 2.93756C6.18047 2.94662 6.19088 2.95324 6.20248 2.95665C6.5557 3.06474 6.88672 3.23516 7.17991 3.45985C7.53213 3.73209 7.82592 4.07248 8.04373 4.46072C8.0826 4.52923 8.14646 4.58005 8.22195 4.60253Z" fill="black"/>
<path d="M10.2826 4.64668H9.67265C9.59176 4.64668 9.51419 4.61455 9.457 4.55736C9.39981 4.50017 9.36768 4.4226 9.36768 4.34171C9.36768 4.26083 9.39981 4.18326 9.457 4.12607C9.51419 4.06887 9.59176 4.03674 9.67265 4.03674H10.2826C10.3635 4.03674 10.441 4.06887 10.4982 4.12607C10.5554 4.18326 10.5876 4.26083 10.5876 4.34171C10.5876 4.4226 10.5554 4.50017 10.4982 4.55736C10.441 4.61455 10.3635 4.64668 10.2826 4.64668Z" fill="black"/>
<path d="M7.23319 2.20694C7.15231 2.20694 7.07474 2.17481 7.01755 2.11761C6.96035 2.06042 6.92822 1.98285 6.92822 1.90197V1.29203C6.92822 1.21115 6.96035 1.13358 7.01755 1.07638C7.07474 1.01919 7.15231 0.987061 7.23319 0.987061C7.31407 0.987061 7.39165 1.01919 7.44884 1.07638C7.50603 1.13358 7.53816 1.21115 7.53816 1.29203V1.90197C7.53816 1.98285 7.50603 2.06042 7.44884 2.11761C7.39165 2.17481 7.31407 2.20694 7.23319 2.20694Z" fill="black"/>
<path d="M5.50773 2.92147C5.46768 2.92153 5.42801 2.91367 5.39101 2.89832C5.35401 2.88298 5.32041 2.86047 5.29216 2.83207L4.86082 2.40092C4.80362 2.34372 4.77148 2.26615 4.77148 2.18525C4.77148 2.10436 4.80362 2.02678 4.86082 1.96958C4.91802 1.91238 4.9956 1.88025 5.07649 1.88025C5.15738 1.88025 5.23496 1.91238 5.29216 1.96958L5.72331 2.40092C5.76593 2.44357 5.79495 2.4979 5.80671 2.55704C5.81847 2.61618 5.81243 2.67748 5.78936 2.73319C5.76629 2.7889 5.72722 2.83651 5.67709 2.87003C5.62697 2.90354 5.56803 2.92144 5.50773 2.92147Z" fill="black"/>
<path d="M8.95815 2.92147C8.89785 2.92144 8.83892 2.90354 8.78879 2.87003C8.73866 2.83651 8.6996 2.7889 8.67653 2.73319C8.65346 2.67748 8.64742 2.61618 8.65917 2.55704C8.67093 2.4979 8.69995 2.44357 8.74257 2.40092L9.17372 1.96958C9.23092 1.91238 9.3085 1.88025 9.38939 1.88025C9.47029 1.88025 9.54787 1.91238 9.60507 1.96958C9.66226 2.02678 9.6944 2.10436 9.6944 2.18525C9.6944 2.26615 9.66226 2.34372 9.60507 2.40092L9.17372 2.83207C9.14547 2.86047 9.11187 2.88298 9.07487 2.89832C9.03787 2.91367 8.9982 2.92153 8.95815 2.92147Z" fill="black"/>
</g>
<defs>
<clipPath id="clip0_201_12105">
<rect width="9.75902" height="9.75902" fill="white" transform="translate(0.828613 0.377197)"/>
</clipPath>
</defs>
</svg>
