<svg width="11" height="11" viewBox="0 0 11 11" fill="none" xmlns="http://www.w3.org/2000/svg">
<g clip-path="url(#clip0_201_12098)">
<path d="M6.89955 9.52628H2.43937C1.87708 9.52628 1.39256 9.37703 1.03784 9.09475C0.632996 8.77224 0.418945 8.29401 0.418945 7.71171C0.418945 7.20356 0.611076 6.76249 0.974371 6.43637C1.26485 6.17562 1.66379 5.99397 2.09895 5.92478C2.10009 5.92478 2.10047 5.92478 2.10066 5.92383C2.22341 5.18046 2.55487 4.54975 3.0596 4.10011C3.55062 3.66462 4.18469 3.42499 4.841 3.42689C5.4172 3.42689 5.95566 3.60587 6.39844 3.94477C6.78554 4.24525 7.08426 4.64473 7.26303 5.10098C7.8236 5.19285 8.30603 5.42711 8.65808 5.7784C9.05339 6.17371 9.26306 6.69978 9.26306 7.3C9.26306 7.92614 9.01279 8.49834 8.55782 8.911C8.12152 9.30784 7.53236 9.52628 6.89955 9.52628Z" fill="black"/>
<path d="M7.69062 4.56827C7.99544 4.64611 8.28723 4.76812 8.55673 4.93042C8.68098 4.56516 8.68659 4.16997 8.57276 3.80133C8.45894 3.43268 8.2315 3.10945 7.92295 2.87782C7.61441 2.64619 7.24054 2.51801 6.85478 2.51161C6.46901 2.5052 6.0911 2.62089 5.77503 2.84215C5.73881 2.86756 5.70362 2.89424 5.66943 2.9222C6.06839 3.02651 6.4425 3.20945 6.7698 3.46028C7.15399 3.75792 7.4683 4.13611 7.69062 4.56827Z" fill="black"/>
<path d="M10.1779 4.03674H8.95801V4.64668H10.1779V4.03674Z" fill="black"/>
<path d="M7.12849 0.987061H6.51855V2.20694H7.12849V0.987061Z" fill="black"/>
<path d="M5.28622 2.84799L5.52352 2.61068L4.67304 1.76001L4.2417 2.19135L4.87394 2.82359H4.88538C5.01936 2.82352 5.15323 2.83167 5.28622 2.84799Z" fill="black"/>
<path d="M8.97412 1.75989L8.12354 2.61047L8.55483 3.04177L9.40542 2.19118L8.97412 1.75989Z" fill="black"/>
</g>
<defs>
<clipPath id="clip0_201_12098">
<rect width="9.75902" height="9.75902" fill="white" transform="translate(0.418945 0.377197)"/>
</clipPath>
</defs>
</svg>
