<svg width="10" height="11" viewBox="0 0 10 11" fill="none" xmlns="http://www.w3.org/2000/svg">
<g clip-path="url(#clip0_201_12091)">
<path d="M1.73705 6.22589C1.80076 6.21601 1.85972 6.18628 1.90555 6.14093C1.95137 6.09558 1.98172 6.03694 1.99227 5.97334C2.22272 4.57372 3.24322 3.73181 4.43203 3.73181C5.53621 3.73181 6.27366 4.45135 6.57063 5.21358C6.58971 5.26244 6.62119 5.30548 6.66196 5.33847C6.70274 5.37145 6.7514 5.39325 6.80317 5.40171C7.75619 5.55705 8.54912 6.19349 8.54912 7.29995C8.54912 8.43215 7.62277 9.22126 6.49057 9.22126H2.03039C1.0869 9.22126 0.314941 8.75046 0.314941 7.71166C0.314941 6.7878 1.05201 6.33511 1.73705 6.22589Z" stroke="black" stroke-width="0.609939" stroke-linejoin="round"/>
<path d="M7.34419 5.55018C7.53062 5.40639 7.68123 5.22139 7.78421 5.00967C7.88718 4.79795 7.93974 4.56526 7.93775 4.32984C7.93576 4.09441 7.87928 3.86264 7.77274 3.65269C7.6662 3.44274 7.51249 3.26031 7.32366 3.1197C7.13483 2.97909 6.916 2.88411 6.68432 2.84221C6.45265 2.80031 6.21441 2.81263 5.98829 2.8782C5.76217 2.94377 5.5543 3.0608 5.38098 3.22014C5.20765 3.37948 5.07358 3.57678 4.98926 3.7966" stroke="black" stroke-width="0.609939" stroke-linecap="round" stroke-linejoin="round"/>
<path d="M8.854 4.34167H9.46394" stroke="black" stroke-width="0.609939" stroke-linecap="round" stroke-linejoin="round"/>
<path d="M6.41406 1.29199V1.90193" stroke="black" stroke-width="0.609939" stroke-linecap="round" stroke-linejoin="round"/>
<path d="M4.25781 2.18518L4.68915 2.61652" stroke="black" stroke-width="0.609939" stroke-linecap="round" stroke-linejoin="round"/>
<path d="M8.5705 2.18518L8.13916 2.61652" stroke="black" stroke-width="0.609939" stroke-linecap="round" stroke-linejoin="round"/>
</g>
<defs>
<clipPath id="clip0_201_12091">
<rect width="9.75902" height="9.75902" fill="white" transform="translate(0.00976562 0.377197)"/>
</clipPath>
</defs>
</svg>
