<svg width="10" height="11" viewBox="0 0 10 11" fill="none" xmlns="http://www.w3.org/2000/svg">
<g clip-path="url(#clip0_201_12118)">
<path d="M4.93677 1.29199C2.75071 1.29199 0.972168 3.07054 0.972168 5.25659C0.972168 7.44265 2.75071 9.2212 4.93677 9.2212C7.12283 9.2212 8.90137 7.44265 8.90137 5.25659C8.90137 3.07054 7.12283 1.29199 4.93677 1.29199ZM4.32683 6.47647C4.32683 6.55735 4.2947 6.63493 4.23751 6.69212C4.18031 6.74931 4.10274 6.78144 4.02186 6.78144C3.94098 6.78144 3.86341 6.74931 3.80622 6.69212C3.74902 6.63493 3.71689 6.55735 3.71689 6.47647V4.03672C3.71689 3.95583 3.74902 3.87826 3.80622 3.82107C3.86341 3.76388 3.94098 3.73175 4.02186 3.73175C4.10274 3.73175 4.18031 3.76388 4.23751 3.82107C4.2947 3.87826 4.32683 3.95583 4.32683 4.03672V6.47647ZM6.15665 6.47647C6.15665 6.55735 6.12452 6.63493 6.06732 6.69212C6.01013 6.74931 5.93256 6.78144 5.85168 6.78144C5.77079 6.78144 5.69322 6.74931 5.63603 6.69212C5.57884 6.63493 5.54671 6.55735 5.54671 6.47647V4.03672C5.54671 3.95583 5.57884 3.87826 5.63603 3.82107C5.69322 3.76388 5.77079 3.73175 5.85168 3.73175C5.93256 3.73175 6.01013 3.76388 6.06732 3.82107C6.12452 3.87826 6.15665 3.95583 6.15665 4.03672V6.47647Z" fill="black"/>
</g>
<defs>
<clipPath id="clip0_201_12118">
<rect width="9.75902" height="9.75902" fill="white" transform="translate(0.0571289 0.377197)"/>
</clipPath>
</defs>
</svg>
