<svg width="10" height="11" viewBox="0 0 10 11" fill="none" xmlns="http://www.w3.org/2000/svg">
<g clip-path="url(#clip0_201_12135)">
<path d="M8.5444 7.27361C8.37667 6.79519 7.98574 6.55274 7.60834 6.3183C7.27992 6.11416 6.96981 5.92126 6.767 5.57493C6.20796 4.61561 5.90089 4.03674 4.98503 4.03674C4.06917 4.03674 3.76115 4.6158 3.20077 5.57474C2.99777 5.92184 2.68613 6.11511 2.35734 6.31963C1.97994 6.55427 1.58977 6.79614 1.42146 7.27361C1.35596 7.44579 1.323 7.62863 1.32425 7.81284C1.32425 8.58936 1.94277 9.22122 2.628 9.22122C3.31323 9.22122 4.21593 8.87565 4.98694 8.87565C5.75794 8.87565 6.64807 9.22122 7.34187 9.22122C8.03568 9.22122 8.64352 8.58936 8.64352 7.81284C8.64406 7.62852 8.61046 7.44569 8.5444 7.27361Z" fill="black"/>
<path d="M1.47706 5.86655C2.06657 5.86655 2.54445 5.25212 2.54445 4.49419C2.54445 3.73625 2.06657 3.12183 1.47706 3.12183C0.887556 3.12183 0.409668 3.73625 0.409668 4.49419C0.409668 5.25212 0.887556 5.86655 1.47706 5.86655Z" fill="black"/>
<path d="M3.61134 4.03672C4.20084 4.03672 4.67873 3.42229 4.67873 2.66435C4.67873 1.90642 4.20084 1.29199 3.61134 1.29199C3.02183 1.29199 2.54395 1.90642 2.54395 2.66435C2.54395 3.42229 3.02183 4.03672 3.61134 4.03672Z" fill="black"/>
<path d="M6.35597 4.03684C6.94547 4.03684 7.42336 3.42241 7.42336 2.66448C7.42336 1.90654 6.94547 1.29211 6.35597 1.29211C5.76646 1.29211 5.28857 1.90654 5.28857 2.66448C5.28857 3.42241 5.76646 4.03684 6.35597 4.03684Z" fill="black"/>
<path d="M8.49122 5.86655C9.08073 5.86655 9.55861 5.25212 9.55861 4.49419C9.55861 3.73625 9.08073 3.12183 8.49122 3.12183C7.90172 3.12183 7.42383 3.73625 7.42383 4.49419C7.42383 5.25212 7.90172 5.86655 8.49122 5.86655Z" fill="black"/>
</g>
<defs>
<clipPath id="clip0_201_12135">
<rect width="9.75902" height="9.75902" fill="white" transform="translate(0.104492 0.377197)"/>
</clipPath>
</defs>
</svg>
