<svg width="11" height="11" viewBox="0 0 11 11" fill="none" xmlns="http://www.w3.org/2000/svg">
<g clip-path="url(#clip0_201_12129)">
<path d="M9.41966 3.61925C9.35192 3.59261 9.27974 3.57902 9.20694 3.57923H9.19932C8.81487 3.58494 8.38372 3.945 8.15747 4.48956C7.88624 5.14105 8.01108 5.8076 8.43842 5.97895C8.5061 6.0056 8.57821 6.01918 8.65095 6.01898C9.03731 6.01898 9.47436 5.65683 9.70252 5.10865C9.97185 4.45716 9.84509 3.79061 9.41966 3.61925Z" stroke="black" stroke-width="0.609939" stroke-miterlimit="10"/>
<path d="M6.93926 6.16163C6.40937 5.28236 6.18065 4.95166 5.57452 4.95166C4.96839 4.95166 4.73776 5.28446 4.20788 6.16163C3.75424 6.91185 2.83742 6.97437 2.60869 7.61156C2.56229 7.72828 2.53899 7.85289 2.54008 7.97848C2.54008 8.49674 2.93654 8.91626 3.42449 8.91626C4.03061 8.91626 4.85594 8.43231 5.57643 8.43231C6.29692 8.43231 7.11843 8.91626 7.72455 8.91626C8.21251 8.91626 8.60706 8.49693 8.60706 7.97848C8.6075 7.85277 8.58355 7.72816 8.53654 7.61156C8.30781 6.97208 7.3929 6.91185 6.93926 6.16163Z" stroke="black" stroke-width="0.609939" stroke-miterlimit="10"/>
<path d="M4.36413 4.11292C4.38965 4.11294 4.41514 4.11103 4.44038 4.1072C4.88277 4.04297 5.15896 3.42998 5.0587 2.7377C4.96435 2.08507 4.56827 1.59692 4.15409 1.59692C4.12856 1.5969 4.10308 1.59881 4.07784 1.60264C3.63545 1.66688 3.35926 2.27986 3.45952 2.97215C3.55387 3.62287 3.94995 4.11292 4.36413 4.11292Z" stroke="black" stroke-width="0.609939" stroke-miterlimit="10"/>
<path d="M7.6885 2.97215C7.78876 2.27986 7.51257 1.66688 7.07018 1.60264C7.04494 1.59881 7.01945 1.5969 6.99393 1.59692C6.57975 1.59692 6.18443 2.08507 6.08989 2.7377C5.98963 3.42998 6.26582 4.04297 6.70821 4.1072C6.73345 4.11103 6.75893 4.11294 6.78446 4.11292C7.19864 4.11292 7.59472 3.62287 7.6885 2.97215Z" stroke="black" stroke-width="0.609939" stroke-miterlimit="10"/>
<path d="M2.71075 5.97895C3.13752 5.80741 3.26217 5.14029 2.99132 4.48956C2.76336 3.94138 2.32668 3.57923 1.94089 3.57923C1.86816 3.57903 1.79605 3.59261 1.72837 3.61925C1.3016 3.7908 1.17695 4.45792 1.4478 5.10865C1.67576 5.65683 2.11244 6.01898 2.49823 6.01898C2.57096 6.01918 2.64307 6.0056 2.71075 5.97895V5.97895Z" stroke="black" stroke-width="0.609939" stroke-miterlimit="10"/>
</g>
<defs>
<clipPath id="clip0_201_12129">
<rect width="9.75902" height="9.75902" fill="white" transform="translate(0.694824 0.377197)"/>
</clipPath>
</defs>
</svg>
