<svg width="11" height="11" viewBox="0 0 11 11" fill="none" xmlns="http://www.w3.org/2000/svg">
<g clip-path="url(#clip0_201_12141)">
<path d="M9.86089 3.86041C9.75511 3.609 9.57937 3.42773 9.35255 3.33643L9.3495 3.33529C9.24626 3.29485 9.13634 3.27416 9.02547 3.27429H9.01327C8.49406 3.28211 7.96398 3.72336 7.69447 4.37237C7.49681 4.84698 7.47412 5.35742 7.63385 5.73787C7.73945 5.98947 7.91557 6.17074 8.14334 6.26204L8.14582 6.26299C8.24907 6.3034 8.35898 6.32409 8.46985 6.32399C8.99402 6.32399 9.52962 5.88273 9.80409 5.22514C9.99927 4.75111 10.0208 4.24105 9.86089 3.86041Z" fill="black"/>
<path d="M7.78622 6.65972C7.48677 6.47978 7.20372 6.30957 7.01884 6.00384C6.50878 5.15755 6.20076 4.64673 5.39316 4.64673C4.58556 4.64673 4.27678 5.15755 3.76558 6.00384C3.58031 6.30996 3.29669 6.48036 2.99629 6.66105C2.65187 6.86805 2.296 7.08191 2.14238 7.50277C2.08265 7.65448 2.05257 7.81624 2.05374 7.97928C2.05374 8.66451 2.58744 9.22203 3.24312 9.22203C3.58145 9.22203 3.9415 9.10481 4.32253 8.98072C4.68887 8.86141 5.0676 8.73808 5.39507 8.73808C5.72253 8.73808 6.10031 8.86141 6.46532 8.98072C6.84558 9.10405 7.20391 9.22127 7.54319 9.22127C8.19792 9.22127 8.73067 8.66375 8.73067 7.97852C8.73121 7.81536 8.70047 7.6536 8.64013 7.502C8.4865 7.08077 8.13045 6.86671 7.78622 6.65972Z" fill="black"/>
<path d="M3.37276 3.97668C3.59958 4.26125 3.8874 4.41793 4.18322 4.41793C4.2236 4.41793 4.26393 4.41493 4.30387 4.40897C4.92086 4.31824 5.30531 3.56535 5.17913 2.69352C5.12633 2.32698 4.98529 1.98561 4.78324 1.73248C4.5568 1.44848 4.26861 1.29199 3.97298 1.29199C3.93259 1.29199 3.89227 1.29499 3.85233 1.30095C3.23533 1.39168 2.85088 2.14457 2.97706 3.0164C3.02967 3.38237 3.17072 3.72336 3.37276 3.97668Z" fill="black"/>
<path d="M6.4827 4.40899C6.52264 4.41495 6.56297 4.41794 6.60335 4.41794C6.89936 4.41794 7.18699 4.26127 7.41381 3.97669C7.61566 3.72338 7.75594 3.38238 7.80931 3.01604C7.93549 2.14459 7.55104 1.39169 6.93405 1.30058C6.89411 1.29462 6.85378 1.29163 6.8134 1.29163C6.51777 1.29201 6.22957 1.44849 6.00313 1.7325C5.80109 1.98562 5.66004 2.327 5.60743 2.69391C5.48125 3.56536 5.86571 4.31826 6.4827 4.40899Z" fill="black"/>
<path d="M2.64062 6.26299L2.64329 6.26204C2.87068 6.17074 3.04661 5.98966 3.15202 5.73825C3.31175 5.35704 3.28925 4.84717 3.09198 4.37256C2.81884 3.71574 2.28343 3.27429 1.75983 3.27429C1.64895 3.27413 1.53904 3.29482 1.4358 3.33529L1.43313 3.33624C1.20631 3.42678 1.03038 3.60862 0.92498 3.86002C0.765252 4.24124 0.787743 4.75111 0.98502 5.22572C1.25816 5.88254 1.79357 6.32399 2.31716 6.32399C2.42785 6.32408 2.53757 6.30339 2.64062 6.26299Z" fill="black"/>
</g>
<defs>
<clipPath id="clip0_201_12141">
<rect width="9.75902" height="9.75902" fill="white" transform="translate(0.513672 0.377197)"/>
</clipPath>
</defs>
</svg>
