<svg width="11" height="11" viewBox="0 0 11 11" fill="none" xmlns="http://www.w3.org/2000/svg">
<path d="M7.57793 2.84119L2.39097 8.04091L2.07666 8.80181L2.83756 8.4875L8.03729 3.30055L7.57793 2.84119Z" stroke="black" stroke-width="0.838666" stroke-linecap="round" stroke-linejoin="round"/>
<path d="M8.61535 1.80361L8.39062 2.02814L8.84999 2.4875L9.07471 2.26278C9.13368 2.20377 9.1668 2.12376 9.1668 2.04034C9.1668 1.95692 9.13368 1.87691 9.07471 1.8179L9.06041 1.80361C9.03119 1.77438 8.9965 1.7512 8.95832 1.73538C8.92013 1.71957 8.87921 1.71143 8.83788 1.71143C8.79655 1.71143 8.75563 1.71957 8.71745 1.73538C8.67926 1.7512 8.64457 1.77438 8.61535 1.80361Z" stroke="black" stroke-width="0.838666" stroke-linecap="round" stroke-linejoin="round"/>
</svg>
