<svg width="11" height="11" viewBox="0 0 11 11" fill="none" xmlns="http://www.w3.org/2000/svg">
<path d="M5.90501 1.29199C3.6753 1.26188 1.85502 3.08216 1.88513 5.31187C1.91487 7.45028 3.65605 9.19146 5.79446 9.2212C8.02455 9.2517 9.84445 7.43141 9.81396 5.2017C9.7846 3.06291 8.04342 1.32173 5.90501 1.29199ZM5.83487 4.1913C5.83887 4.16843 5.84326 4.14556 5.8484 4.12287C5.89654 3.90027 6.00381 3.69477 6.1589 3.52799C6.40459 3.26629 6.75283 3.12181 7.13957 3.12181C7.30228 3.12114 7.46388 3.14861 7.61722 3.20301C7.80785 3.27088 7.97951 3.38328 8.11795 3.53085C8.32159 3.75096 8.44281 4.03475 8.46104 4.33406C8.46631 4.4064 8.46631 4.47902 8.46104 4.55136C8.44636 4.75636 8.39334 4.95678 8.30474 5.14223C8.29508 5.16244 8.28498 5.18245 8.27443 5.20227C8.25328 5.24173 8.23059 5.28042 8.2062 5.31778C8.15763 5.39237 8.10259 5.46253 8.0417 5.52745C7.79163 5.7943 7.47141 5.94163 7.13995 5.94163C7.01565 5.94155 6.89222 5.92108 6.77456 5.88102C6.73503 5.8676 6.69622 5.85214 6.65829 5.8347C6.49943 5.7606 6.35654 5.65623 6.23762 5.52745C5.99008 5.25894 5.84207 4.91369 5.81829 4.54926C5.81486 4.49996 5.81371 4.45116 5.81486 4.40287C5.81633 4.33208 5.82302 4.26149 5.83487 4.19168V4.1913ZM2.98093 4.65524C2.9902 4.51923 3.02377 4.38599 3.08004 4.26182C3.09592 4.22724 3.1136 4.19352 3.13303 4.1608C3.17189 4.09522 3.21785 4.03411 3.27008 3.97858C3.34745 3.89604 3.43754 3.82641 3.53692 3.77235C3.58656 3.74522 3.63825 3.72202 3.69151 3.70297C3.89559 3.63159 4.115 3.61587 4.32718 3.65741C4.552 3.7009 4.75733 3.81431 4.91386 3.98144C5.0996 4.18194 5.20427 4.44427 5.20759 4.71756C5.20854 4.75778 5.20759 4.79819 5.20473 4.83917C5.19309 4.9961 5.1544 5.14984 5.09036 5.29357C5.0597 5.36278 5.02316 5.42922 4.98115 5.49219C4.90034 5.61429 4.79866 5.7212 4.68075 5.80802C4.65216 5.82841 4.62243 5.84748 4.59174 5.86654C4.53138 5.90248 4.46751 5.93218 4.40113 5.95517C4.30187 5.98985 4.1975 6.00763 4.09235 6.00777C4.07462 6.00777 4.0569 6.00777 4.03936 6.00625C4.00435 6.00433 3.96947 6.00039 3.93491 5.99443C3.90052 5.98845 3.86648 5.98062 3.83294 5.97099C3.78254 5.95644 3.73335 5.93802 3.68579 5.9159C3.66978 5.90847 3.65415 5.90065 3.63852 5.89246C3.29543 5.71157 3.03677 5.33665 2.98607 4.89902C2.98379 4.87901 2.98188 4.85899 2.98055 4.83879C2.97624 4.77768 2.97637 4.71633 2.98093 4.65524ZM4.00867 8.05946C3.50118 7.72494 3.09331 7.25972 2.82806 6.71283C2.8194 6.69534 2.81777 6.67519 2.82352 6.65654C2.82926 6.63789 2.84194 6.62215 2.85894 6.61257C3.21309 6.41338 3.66539 6.30493 4.09273 6.30493C4.41676 6.30493 4.67789 6.34305 4.90643 6.41701C4.93234 6.42553 4.95548 6.44085 4.97346 6.46137C4.99143 6.48189 5.00357 6.50685 5.00861 6.53366C5.01366 6.56047 5.01141 6.58814 5.00212 6.61378C4.99283 6.63943 4.97684 6.66211 4.95579 6.67947C4.51073 7.04162 4.22387 7.49031 4.08911 8.02801C4.08709 8.03623 4.08313 8.04385 4.07755 8.05022C4.07197 8.05659 4.06494 8.06153 4.05706 8.06461C4.04917 8.06769 4.04066 8.06884 4.03224 8.06794C4.02382 8.06704 4.01573 8.06413 4.00867 8.05946ZM5.84974 8.61126C5.42061 8.61169 4.99542 8.52937 4.59746 8.36881C4.58119 8.36209 4.56775 8.34996 4.55941 8.33447C4.55108 8.31897 4.54835 8.30107 4.55171 8.2838C4.55933 8.24473 4.56772 8.20908 4.57516 8.17935C4.71087 7.63745 5.0471 7.1882 5.54724 6.8798C5.99117 6.60628 6.55746 6.4557 7.13918 6.4557C7.73311 6.4557 8.28282 6.60018 8.73036 6.87332C8.74176 6.88045 8.74994 6.89173 8.75318 6.90479C8.75641 6.91784 8.75445 6.93164 8.74771 6.94327C8.45257 7.45031 8.02968 7.87114 7.5212 8.1638C7.01273 8.45647 6.43642 8.61075 5.84974 8.61126Z" fill="black"/>
<path d="M4.03902 6.00535C4.00401 6.00343 3.96913 5.99948 3.93457 5.99353C3.96913 5.99948 4.00401 6.00343 4.03902 6.00535Z" fill="black"/>
<path d="M3.53671 3.77234C3.43732 3.8264 3.34723 3.89603 3.26986 3.97857C3.21763 4.0341 3.17167 4.09521 3.13281 4.16079C3.17167 4.09521 3.21763 4.0341 3.26986 3.97857C3.34723 3.89603 3.43732 3.8264 3.53671 3.77234Z" fill="black"/>
<path d="M5.09082 5.29269C5.15486 5.14895 5.19355 4.99521 5.20518 4.83828C5.20804 4.7973 5.209 4.75689 5.20804 4.71667C5.20906 4.7567 5.20811 4.79724 5.20518 4.83828C5.19355 4.99521 5.15486 5.14895 5.09082 5.29269Z" fill="black"/>
<path d="M3.53662 3.77238C3.58626 3.74526 3.63794 3.72206 3.6912 3.703C3.63794 3.72206 3.58626 3.74526 3.53662 3.77238Z" fill="black"/>
<path d="M3.83318 5.97C3.78279 5.95545 3.7336 5.93703 3.68604 5.91492C3.7336 5.93703 3.78279 5.95545 3.83318 5.97Z" fill="black"/>
<path d="M2.98633 4.89807C3.03703 5.33646 3.29625 5.71062 3.63877 5.89151C3.29549 5.71062 3.03703 5.3357 2.98633 4.89807Z" fill="black"/>
<path d="M5.81831 4.55141C5.8421 4.91584 5.9901 5.2611 6.23765 5.5296C6.35657 5.65839 6.49946 5.76275 6.65831 5.83686C6.49946 5.76275 6.35657 5.65839 6.23765 5.5296C5.9901 5.2611 5.8421 4.91584 5.81831 4.55141C5.81488 4.50211 5.81374 4.45332 5.81488 4.40503C5.81374 4.45268 5.81488 4.50148 5.81831 4.55141Z" fill="black"/>
<path d="M6.77398 5.88213C6.73445 5.86871 6.69565 5.85325 6.65771 5.83582C6.69565 5.85325 6.73445 5.86871 6.77398 5.88213Z" fill="black"/>
<path d="M5.84863 4.1232C5.89677 3.9006 6.00404 3.6951 6.15913 3.52832C6.00404 3.6951 5.89677 3.9006 5.84863 4.1232Z" fill="black"/>
<path d="M8.11791 3.53085C8.32155 3.75096 8.44277 4.03475 8.461 4.33406C8.44277 4.03475 8.32155 3.75096 8.11791 3.53085C7.97947 3.38327 7.80781 3.27087 7.61719 3.203C7.80781 3.27087 7.97947 3.38327 8.11791 3.53085Z" fill="black"/>
<path d="M8.46098 4.55139C8.44631 4.75639 8.39329 4.95682 8.30469 5.14227C8.39329 4.95682 8.44631 4.75639 8.46098 4.55139Z" fill="black"/>
<path d="M5.81445 4.40411C5.81593 4.33293 5.82269 4.26195 5.83466 4.19177C5.82269 4.26195 5.81593 4.33293 5.81445 4.40411Z" fill="black"/>
<path d="M8.27429 5.20251C8.25313 5.24197 8.23045 5.28066 8.20605 5.31802C8.23045 5.28066 8.25313 5.24197 8.27429 5.20251Z" fill="black"/>
<path d="M4.91335 3.98052C5.09908 4.18102 5.20376 4.44335 5.20707 4.71664C5.20376 4.44335 5.09908 4.18102 4.91335 3.98052C4.75682 3.81339 4.55148 3.69998 4.32666 3.65649C4.55148 3.69998 4.75682 3.81339 4.91335 3.98052Z" fill="black"/>
<path d="M4.59197 5.86658C4.53162 5.90252 4.46775 5.93222 4.40137 5.95521C4.46775 5.93222 4.53162 5.90252 4.59197 5.86658Z" fill="black"/>
<path d="M2.98096 4.65525C2.99023 4.51925 3.0238 4.386 3.08007 4.26184C3.0238 4.386 2.99023 4.51925 2.98096 4.65525Z" fill="black"/>
<path d="M4.681 5.80713C4.65222 5.82848 4.62248 5.84754 4.5918 5.8666C4.62248 5.84754 4.65222 5.82848 4.681 5.80713Z" fill="black"/>
<path d="M5.09066 5.2926C5.06 5.36181 5.02346 5.42825 4.98145 5.49121C5.02346 5.42825 5.06 5.36181 5.09066 5.2926Z" fill="black"/>
<path d="M3.08008 4.26179C3.09595 4.22721 3.11364 4.19349 3.13307 4.16077C3.11364 4.19349 3.09595 4.22721 3.08008 4.26179Z" fill="black"/>
<path d="M4.68115 5.80705C4.79906 5.72023 4.90074 5.61332 4.98155 5.49121C4.90074 5.61332 4.79906 5.72023 4.68115 5.80705Z" fill="black"/>
</svg>
