<svg width="11" height="11" viewBox="0 0 11 11" fill="none" xmlns="http://www.w3.org/2000/svg">
<g clip-path="url(#clip0_201_12186)">
<path d="M8.04199 3.57939C7.98614 4.35459 7.41108 4.95176 6.78399 4.95176C6.1569 4.95176 5.58088 4.35478 5.52599 3.57939C5.46881 2.77294 6.02862 2.20703 6.78399 2.20703C7.53936 2.20703 8.09917 2.78762 8.04199 3.57939Z" stroke="black" stroke-width="0.609939" stroke-linecap="round" stroke-linejoin="round"/>
<path d="M6.7842 6.17163C5.54202 6.17163 4.34749 6.78862 4.04824 7.9902C4.0086 8.14917 4.10828 8.30642 4.27163 8.30642H9.29696C9.46031 8.30642 9.55942 8.14917 9.52035 7.9902C9.2211 6.76937 8.02657 6.17163 6.7842 6.17163Z" stroke="black" stroke-width="0.609939" stroke-miterlimit="10"/>
<path d="M4.19204 3.92127C4.14744 4.54035 3.68274 5.02792 3.18183 5.02792C2.68092 5.02792 2.21546 4.54054 2.17162 3.92127C2.12606 3.27721 2.57837 2.81689 3.18183 2.81689C3.78529 2.81689 4.23759 3.28903 4.19204 3.92127Z" stroke="black" stroke-width="0.609939" stroke-linecap="round" stroke-linejoin="round"/>
<path d="M4.30647 6.2097C3.96243 6.05207 3.58351 5.99146 3.1819 5.99146C2.19075 5.99146 1.23581 6.48417 0.996604 7.44387C0.965154 7.57082 1.04483 7.69642 1.1752 7.69642H3.31532" stroke="black" stroke-width="0.609939" stroke-miterlimit="10" stroke-linecap="round"/>
</g>
<defs>
<clipPath id="clip0_201_12186">
<rect width="9.75902" height="9.75902" fill="white" transform="translate(0.379883 0.377197)"/>
</clipPath>
</defs>
</svg>
