<svg width="11" height="11" viewBox="0 0 11 11" fill="none" xmlns="http://www.w3.org/2000/svg">
<path d="M5.44068 1.29199C3.25462 1.29199 1.47607 3.07054 1.47607 5.25659C1.47607 7.44265 3.25462 9.2212 5.44068 9.2212C7.62673 9.2212 9.40528 7.44265 9.40528 5.25659C9.40528 3.07054 7.62673 1.29199 5.44068 1.29199ZM6.76157 3.12505C7.03481 3.12543 7.30179 3.20679 7.52879 3.35887C7.75579 3.51094 7.93262 3.72689 8.03692 3.97943C8.14122 4.23197 8.16831 4.50977 8.11478 4.7777C8.06124 5.04564 7.92948 5.29169 7.73614 5.48476C7.5428 5.67783 7.29657 5.80925 7.02856 5.86242C6.76055 5.91559 6.4828 5.88811 6.2304 5.78346C5.978 5.67881 5.7623 5.50169 5.61054 5.27448C5.45877 5.04727 5.37778 4.78017 5.37778 4.50694C5.3779 4.32534 5.41379 4.14555 5.4834 3.97782C5.55301 3.8101 5.65498 3.65772 5.78348 3.5294C5.91197 3.40108 6.06449 3.29933 6.23231 3.22995C6.40013 3.16057 6.57998 3.12492 6.76157 3.12505ZM3.80528 3.62749C4.02884 3.62779 4.24729 3.69436 4.43303 3.81878C4.61877 3.9432 4.76345 4.1199 4.8488 4.32653C4.93414 4.53316 4.95631 4.76045 4.91251 4.97968C4.86872 5.19891 4.76091 5.40023 4.60272 5.5582C4.44453 5.71618 4.24306 5.82372 4.02378 5.86722C3.80449 5.91072 3.57723 5.88824 3.37071 5.80262C3.1642 5.717 2.9877 5.57208 2.86353 5.38617C2.73935 5.20026 2.67308 4.98172 2.67308 4.75816C2.67315 4.60957 2.7025 4.46245 2.75945 4.32521C2.81639 4.18796 2.89981 4.06328 3.00495 3.95828C3.11009 3.85328 3.23489 3.77003 3.37221 3.71327C3.50953 3.65651 3.65669 3.62736 3.80528 3.62749ZM2.35953 6.58188C2.82652 6.32856 3.42445 6.20181 3.80528 6.20181C4.09119 6.20181 4.45944 6.25899 4.82178 6.39623C4.57888 6.53177 4.35994 6.70634 4.17372 6.91296C3.92231 7.19887 3.77802 7.54043 3.77802 7.88181V8.16772C3.14672 7.80612 2.64918 7.25021 2.35953 6.58283V6.58188ZM5.44068 8.61126C5.05473 8.61157 4.67166 8.54496 4.30848 8.41436V7.89877C4.30848 6.89638 5.94292 6.39127 6.76157 6.39127C7.19997 6.39127 7.87433 6.5367 8.40479 6.82604C8.11934 7.36467 7.69263 7.81542 7.17043 8.12992C6.64824 8.44443 6.05027 8.61082 5.44068 8.61126Z" fill="black"/>
</svg>
