<svg width="10" height="11" viewBox="0 0 10 11" fill="none" xmlns="http://www.w3.org/2000/svg">
<g clip-path="url(#clip0_201_12196)">
<path d="M6.60331 5.25664C6.21143 5.25664 5.8325 5.08166 5.53592 4.76412C5.24753 4.45438 5.07141 4.04134 5.04035 3.60142C5.00718 3.13215 5.15033 2.70062 5.44329 2.38612C5.73625 2.07162 6.14586 1.90198 6.60331 1.90198C7.05753 1.90198 7.46828 2.07467 7.76029 2.3884C8.05516 2.70519 8.19868 3.13596 8.16552 3.60123C8.13369 4.04172 7.95776 4.45457 7.66994 4.76392C7.37412 5.08166 6.99539 5.25664 6.60331 5.25664Z" fill="black"/>
<path d="M9.11596 8.6113H4.09063C4.00984 8.61173 3.93002 8.59362 3.85732 8.55837C3.78462 8.52311 3.72098 8.47164 3.6713 8.40793C3.6186 8.33885 3.5822 8.25876 3.56484 8.17363C3.54748 8.0885 3.5496 8.00055 3.57104 7.91635C3.73153 7.27191 4.12914 6.73746 4.72078 6.37092C5.2459 6.04575 5.91435 5.86658 6.6032 5.86658C7.30558 5.86658 7.9565 6.03812 8.48467 6.36311C9.07765 6.72773 9.47582 7.26524 9.63555 7.9175C9.65673 8.00175 9.65862 8.0897 9.64106 8.17479C9.6235 8.25987 9.58695 8.33989 9.53415 8.40888C9.48451 8.4723 9.42102 8.52351 9.34853 8.5586C9.27605 8.59369 9.19649 8.61172 9.11596 8.6113Z" fill="black"/>
<path d="M3.00052 5.33293C2.32977 5.33293 1.74004 4.70927 1.68534 3.94284C1.65827 3.55019 1.78064 3.18709 2.02843 2.92081C2.27355 2.6572 2.6193 2.51196 3.00052 2.51196C3.38173 2.51196 3.72482 2.65797 3.97127 2.9231C4.22097 3.19147 4.34295 3.55381 4.31436 3.94322C4.25966 4.70946 3.67011 5.33293 3.00052 5.33293Z" fill="black"/>
<path d="M4.25234 5.93241C3.91706 5.76848 3.48191 5.68652 3.00101 5.68652C2.43949 5.68652 1.89416 5.83291 1.4653 6.09861C0.979065 6.40034 0.651985 6.83969 0.519895 7.37015C0.500565 7.44644 0.498737 7.52613 0.514547 7.60323C0.530358 7.68034 0.563398 7.75287 0.611196 7.8154C0.65655 7.87362 0.714654 7.92067 0.781038 7.95292C0.847423 7.98517 0.92032 8.00177 0.994123 8.00143H3.10985C3.14556 8.00143 3.18013 7.98889 3.20755 7.966C3.23496 7.94312 3.25347 7.91134 3.25986 7.8762C3.26195 7.8642 3.26462 7.85219 3.26767 7.84037C3.4293 7.19117 3.80804 6.6426 4.36766 6.24271C4.38824 6.22788 4.40479 6.20814 4.41582 6.18529C4.42685 6.16243 4.432 6.13719 4.43081 6.11185C4.42962 6.0865 4.42212 6.06186 4.40899 6.04014C4.39587 6.01843 4.37753 6.00033 4.35565 5.98749C4.32572 5.96995 4.29141 5.95147 4.25234 5.93241Z" fill="black"/>
</g>
<defs>
<clipPath id="clip0_201_12196">
<rect width="9.75902" height="9.75902" fill="white" transform="translate(0.19873 0.377197)"/>
</clipPath>
</defs>
</svg>
