<svg width="10" height="11" viewBox="0 0 10 11" fill="none" xmlns="http://www.w3.org/2000/svg">
<path d="M5.03101 9.2212C2.84495 9.2212 1.06641 7.44265 1.06641 5.25659C1.06641 3.07054 2.84495 1.29199 5.03101 1.29199C7.21707 1.29199 8.99561 3.07054 8.99561 5.25659C8.99561 7.44265 7.21707 9.2212 5.03101 9.2212ZM5.03101 1.90193C3.18213 1.90193 1.67634 3.40772 1.67634 5.25659C1.67634 7.10547 3.18213 8.61126 5.03101 8.61126C6.87988 8.61126 8.38567 7.10642 8.38567 5.25659C8.38567 3.40676 6.88084 1.90193 5.03101 1.90193Z" fill="black"/>
<path d="M6.32075 5.94279C5.98909 5.94279 5.66868 5.79565 5.41842 5.52861C5.17088 5.2601 5.02287 4.91484 4.99909 4.55042C4.97107 4.15586 5.0921 3.79276 5.33989 3.52839C5.58768 3.26402 5.93401 3.12183 6.32075 3.12183C6.70463 3.12183 7.0521 3.26707 7.29913 3.53087C7.54615 3.79467 7.67024 4.15987 7.64222 4.5508C7.61799 4.915 7.47004 5.26 7.22288 5.52861C6.97243 5.79565 6.65221 5.94279 6.32075 5.94279Z" fill="black"/>
<path d="M3.27378 6.00683C2.70654 6.00683 2.20772 5.48247 2.16198 4.83784C2.13853 4.50771 2.24108 4.20255 2.45113 3.97859C2.66118 3.75463 2.9509 3.6355 3.27359 3.6355C3.59629 3.6355 3.88582 3.75825 4.09453 3.98126C4.30324 4.20427 4.40903 4.51152 4.38521 4.83898C4.3387 5.48266 3.84007 6.00683 3.27378 6.00683Z" fill="black"/>
<path d="M8.16363 7.14892C8.13333 7.05934 8.05956 6.96384 7.91165 6.87331C7.46449 6.60017 6.9144 6.45569 6.32047 6.45569C5.73779 6.45569 5.17245 6.60627 4.72834 6.87979C4.228 7.188 3.89177 7.63744 3.75625 8.17934C3.72423 8.30685 3.67753 8.54416 3.72747 8.67701C4.52887 8.98176 5.41178 8.99574 6.22243 8.71652C7.03308 8.43729 7.72009 7.88256 8.16382 7.14892H8.16363Z" fill="black"/>
<path d="M3.27024 8.0274C3.405 7.4897 3.69186 7.04139 4.13693 6.67886C4.15797 6.6615 4.17397 6.63882 4.18326 6.61317C4.19255 6.58753 4.19479 6.55986 4.18975 6.53305C4.1847 6.50625 4.17256 6.48128 4.15459 6.46076C4.13662 6.44025 4.11347 6.42493 4.08756 6.4164C3.85883 6.3434 3.5977 6.30432 3.27386 6.30432C2.81984 6.30432 2.3378 6.42726 1.97507 6.65065C1.87215 6.71412 1.77113 6.73852 1.69336 6.76025C2.00559 7.45032 2.52337 8.02709 3.17589 8.41166L3.21001 8.40899C3.21747 8.28012 3.23765 8.1523 3.27024 8.0274Z" fill="black"/>
</svg>
