<svg width="10" height="11" viewBox="0 0 10 11" fill="none" xmlns="http://www.w3.org/2000/svg">
<path d="M5.12525 1.29211C2.93919 1.29211 1.16064 3.07066 1.16064 5.25672C1.16064 7.44278 2.93919 9.22132 5.12525 9.22132C7.31131 9.22132 9.08985 7.44278 9.08985 5.25672C9.08985 3.07066 7.31131 1.29211 5.12525 1.29211ZM5.16337 3.12193C5.43479 3.12193 5.70013 3.20242 5.92581 3.35322C6.15149 3.50401 6.32739 3.71835 6.43126 3.96911C6.53514 4.21988 6.56231 4.49582 6.50936 4.76203C6.45641 5.02824 6.3257 5.27277 6.13377 5.4647C5.94185 5.65663 5.69731 5.78733 5.4311 5.84029C5.16489 5.89324 4.88895 5.86606 4.63819 5.76219C4.38742 5.65832 4.17309 5.48242 4.02229 5.25674C3.87149 5.03105 3.79101 4.76572 3.79101 4.49429C3.79101 4.13032 3.93559 3.78125 4.19296 3.52389C4.45033 3.26652 4.79939 3.12193 5.16337 3.12193ZM5.12525 8.61138C4.66254 8.61157 4.20483 8.5158 3.78102 8.33011C3.35721 8.14441 2.97652 7.87284 2.663 7.53255C2.8315 6.65996 4.34491 6.47659 5.12525 6.47659C5.90559 6.47659 7.419 6.65996 7.58749 7.53236C7.27401 7.87272 6.89333 8.14434 6.46952 8.33007C6.0457 8.51579 5.58797 8.61158 5.12525 8.61138Z" fill="black"/>
</svg>
