<svg width="11" height="11" viewBox="0 0 11 11" fill="none" xmlns="http://www.w3.org/2000/svg">
<g clip-path="url(#clip0_201_12224)">
<path d="M7.6408 3.12193C7.56608 4.12966 6.80214 4.95175 5.96347 4.95175C5.1248 4.95175 4.35952 4.12985 4.28614 3.12193C4.2099 2.0736 4.95326 1.29211 5.96347 1.29211C6.97368 1.29211 7.71704 2.09266 7.6408 3.12193Z" stroke="black" stroke-width="0.609939" stroke-linecap="round" stroke-linejoin="round"/>
<path d="M5.96355 6.17163C4.30528 6.17163 2.62223 7.08654 2.31078 8.81343C2.27266 9.02157 2.39103 9.22132 2.60908 9.22132H9.31822C9.53627 9.22132 9.65406 9.02157 9.61651 8.81343C9.30487 7.08654 7.62182 6.17163 5.96355 6.17163Z" stroke="black" stroke-width="0.609939" stroke-miterlimit="10"/>
<path d="M3.21877 4.79919H1.08398" stroke="black" stroke-width="0.609939" stroke-linecap="round" stroke-linejoin="round"/>
</g>
<defs>
<clipPath id="clip0_201_12224">
<rect width="9.75902" height="9.75902" fill="white" transform="translate(0.474121 0.377197)"/>
</clipPath>
</defs>
</svg>
