<svg width="11" height="11" viewBox="0 0 11 11" fill="none" xmlns="http://www.w3.org/2000/svg">
<g clip-path="url(#clip0_201_12236)">
<path d="M5.5813 5.25663C6.00352 5.25663 6.41626 5.13143 6.76732 4.89686C7.11839 4.66228 7.39201 4.32888 7.55359 3.93879C7.71516 3.54871 7.75744 3.11948 7.67507 2.70537C7.5927 2.29126 7.38938 1.91088 7.09082 1.61233C6.79227 1.31377 6.41189 1.11045 5.99778 1.02808C5.58367 0.94571 5.15443 0.987986 4.76435 1.14956C4.37427 1.31114 4.04086 1.58476 3.80629 1.93582C3.57172 2.28689 3.44652 2.69963 3.44652 3.12185C3.44652 3.68803 3.67143 4.23102 4.07178 4.63137C4.47213 5.03172 5.01512 5.25663 5.5813 5.25663ZM5.5813 5.86657C4.25812 5.86657 1.6167 6.68389 1.6167 8.30633V9.52621H9.5459V8.30633C9.5459 6.68389 6.90449 5.86657 5.5813 5.86657Z" fill="black"/>
</g>
<defs>
<clipPath id="clip0_201_12236">
<rect width="9.75902" height="9.75902" fill="white" transform="translate(0.702148 0.377197)"/>
</clipPath>
</defs>
</svg>
