<svg width="10" height="11" viewBox="0 0 10 11" fill="none" xmlns="http://www.w3.org/2000/svg">
<g clip-path="url(#clip0_201_12238)">
<path d="M6.45191 1.60818C6.08099 1.20771 5.56293 0.987183 4.99111 0.987183C4.41624 0.987183 3.89646 1.20638 3.52726 1.60436C3.15405 2.00673 2.97221 2.55358 3.01491 3.14408C3.09954 4.30906 3.98604 5.25675 4.99111 5.25675C5.99617 5.25675 6.88116 4.30925 6.96712 3.14446C7.01039 2.5593 6.82741 2.0136 6.45191 1.60818Z" fill="black"/>
<path d="M8.34574 9.52633H1.63642C1.5486 9.52747 1.46163 9.50903 1.38183 9.47233C1.30204 9.43563 1.23144 9.38161 1.17515 9.31419C1.05125 9.16609 1.00132 8.96385 1.03829 8.75933C1.19917 7.86692 1.70122 7.11726 2.49033 6.591C3.19138 6.12383 4.07941 5.8667 4.99108 5.8667C5.90275 5.8667 6.79078 6.12402 7.49183 6.591C8.28094 7.11707 8.78299 7.86673 8.94386 8.75914C8.98084 8.96366 8.9309 9.1659 8.80701 9.314C8.75074 9.38145 8.68014 9.43551 8.60035 9.47224C8.52055 9.50897 8.43358 9.52745 8.34574 9.52633Z" fill="black"/>
</g>
<defs>
<clipPath id="clip0_201_12238">
<rect width="9.75902" height="9.75902" fill="white" transform="translate(0.111816 0.377197)"/>
</clipPath>
</defs>
</svg>
