<svg width="11" height="11" viewBox="0 0 11 11" fill="none" xmlns="http://www.w3.org/2000/svg">
<path d="M5.53491 1.29211C3.34886 1.29211 1.57031 3.07066 1.57031 5.25672C1.57031 7.44278 3.34886 9.22132 5.53491 9.22132C7.72097 9.22132 9.49952 7.44278 9.49952 5.25672C9.49952 3.07066 7.72097 1.29211 5.53491 1.29211ZM4.57769 3.51877C4.81919 3.26279 5.15904 3.12193 5.53491 3.12193C5.91079 3.12193 6.24759 3.26374 6.49004 3.52106C6.73573 3.78181 6.85524 4.13214 6.82703 4.50878C6.77061 5.25672 6.19117 5.86666 5.53491 5.86666C4.87866 5.86666 4.29807 5.25672 4.2428 4.50859C4.21478 4.1289 4.3341 3.77742 4.57769 3.51877ZM5.53491 8.61138C5.08708 8.61168 4.64374 8.52204 4.2312 8.34779C3.81866 8.17354 3.4453 7.91822 3.13328 7.59698C3.31198 7.34213 3.53968 7.12545 3.80307 6.95959C4.28892 6.64814 4.90382 6.47659 5.53491 6.47659C6.16601 6.47659 6.7809 6.64814 7.26619 6.95959C7.52979 7.12537 7.75769 7.34206 7.93655 7.59698C7.62455 7.91826 7.2512 8.1736 6.83865 8.34785C6.4261 8.5221 5.98276 8.61172 5.53491 8.61138Z" fill="black"/>
</svg>
