<svg width="11" height="11" viewBox="0 0 11 11" fill="none" xmlns="http://www.w3.org/2000/svg">
<g clip-path="url(#clip0_201_12232)">
<path d="M5.78264 5.25675C6.78885 5.25675 7.67783 4.30925 7.76494 3.14446C7.80821 2.5593 7.62466 2.0136 7.24802 1.60818C6.87538 1.20771 6.35446 0.987183 5.78264 0.987183C5.20625 0.987183 4.68494 1.20638 4.31497 1.60436C3.94082 2.00673 3.75841 2.55358 3.80034 3.14408C3.88592 4.30906 4.77472 5.25675 5.78264 5.25675Z" fill="black"/>
<path d="M9.73527 8.75921C9.5744 7.8668 9.07215 7.11714 8.28304 6.59107C7.58218 6.1239 6.69415 5.86658 5.78248 5.86658C4.87082 5.86658 3.98278 6.1239 3.28192 6.59088C2.49282 7.11695 1.99057 7.8666 1.8297 8.75902C1.79291 8.96354 1.84285 9.16577 1.96674 9.31387C2.02294 9.38137 2.0935 9.43545 2.17327 9.47219C2.25304 9.50893 2.34001 9.52738 2.42782 9.52621H9.13715C9.22501 9.52746 9.31204 9.50906 9.39188 9.47236C9.47172 9.43565 9.54235 9.38157 9.5986 9.31407C9.72212 9.16596 9.77205 8.96373 9.73527 8.75921Z" fill="black"/>
<path d="M3.0379 4.49438H0.903114C0.822231 4.49438 0.744661 4.52652 0.687468 4.58371C0.630275 4.6409 0.598145 4.71847 0.598145 4.79935C0.598145 4.88024 0.630275 4.95781 0.687468 5.015C0.744661 5.07219 0.822231 5.10432 0.903114 5.10432H3.0379C3.11878 5.10432 3.19635 5.07219 3.25355 5.015C3.31074 4.95781 3.34287 4.88024 3.34287 4.79935C3.34287 4.71847 3.31074 4.6409 3.25355 4.58371C3.19635 4.52652 3.11878 4.49438 3.0379 4.49438Z" fill="black"/>
</g>
<defs>
<clipPath id="clip0_201_12232">
<rect width="9.75902" height="9.75902" fill="white" transform="translate(0.292969 0.377197)"/>
</clipPath>
</defs>
</svg>
