<svg width="11" height="11" viewBox="0 0 11 11" fill="none" xmlns="http://www.w3.org/2000/svg">
<g clip-path="url(#clip0_201_12210)">
<path d="M5.91643 5.25663C6.92264 5.25663 7.81162 4.30913 7.89873 3.14434C7.942 2.55918 7.75844 2.01347 7.38181 1.60805C7.00917 1.20759 6.48825 0.987061 5.91643 0.987061C5.34004 0.987061 4.81873 1.20626 4.44876 1.60424C4.0746 2.00661 3.89219 2.55346 3.93413 3.14396C4.01971 4.30894 4.90851 5.25663 5.91643 5.25663Z" fill="black"/>
<path d="M9.86906 8.75921C9.70819 7.8668 9.20594 7.11714 8.41683 6.59107C7.71597 6.1239 6.82794 5.86658 5.91627 5.86658C5.0046 5.86658 4.11657 6.1239 3.41571 6.59088C2.62661 7.11695 2.12436 7.8666 1.96349 8.75902C1.9267 8.96354 1.97664 9.16577 2.10053 9.31387C2.15673 9.38137 2.22729 9.43545 2.30706 9.47219C2.38683 9.50893 2.47379 9.52738 2.56161 9.52621H9.27094C9.3588 9.52746 9.44583 9.50906 9.52567 9.47236C9.60551 9.43565 9.67614 9.38157 9.73239 9.31407C9.8559 9.16596 9.90584 8.96373 9.86906 8.75921Z" fill="black"/>
<path d="M2.40927 5.86664V5.10421H3.17169C3.25257 5.10421 3.33014 5.07208 3.38733 5.01489C3.44453 4.9577 3.47666 4.88013 3.47666 4.79924C3.47666 4.71836 3.44453 4.64079 3.38733 4.5836C3.33014 4.5264 3.25257 4.49427 3.17169 4.49427H2.40927V3.73185C2.40927 3.65097 2.37713 3.5734 2.31994 3.5162C2.26275 3.45901 2.18518 3.42688 2.1043 3.42688C2.02341 3.42688 1.94584 3.45901 1.88865 3.5162C1.83146 3.5734 1.79933 3.65097 1.79933 3.73185V4.49427H1.0369C0.95602 4.49427 0.87845 4.5264 0.821257 4.5836C0.764064 4.64079 0.731934 4.71836 0.731934 4.79924C0.731934 4.88013 0.764064 4.9577 0.821257 5.01489C0.87845 5.07208 0.95602 5.10421 1.0369 5.10421H1.79933V5.86664C1.79933 5.94752 1.83146 6.02509 1.88865 6.08228C1.94584 6.13947 2.02341 6.1716 2.1043 6.1716C2.18518 6.1716 2.26275 6.13947 2.31994 6.08228C2.37713 6.02509 2.40927 5.94752 2.40927 5.86664Z" fill="black"/>
</g>
<defs>
<clipPath id="clip0_201_12210">
<rect width="9.75902" height="9.75902" fill="white" transform="translate(0.426758 0.377197)"/>
</clipPath>
</defs>
</svg>
