<svg width="11" height="11" viewBox="0 0 11 11" fill="none" xmlns="http://www.w3.org/2000/svg">
<g clip-path="url(#clip0_201_12201)">
<path d="M7.77459 3.12193C7.69987 4.12966 6.93592 4.95175 6.09726 4.95175C5.25859 4.95175 4.49331 4.12985 4.41993 3.12193C4.34368 2.0736 5.08705 1.29211 6.09726 1.29211C7.10747 1.29211 7.85083 2.09266 7.77459 3.12193Z" stroke="black" stroke-width="0.609939" stroke-linecap="round" stroke-linejoin="round"/>
<path d="M6.09734 6.17163C4.43907 6.17163 2.75602 7.08654 2.44457 8.81343C2.40645 9.02157 2.52482 9.22132 2.74287 9.22132H9.452C9.67006 9.22132 9.78785 9.02157 9.7503 8.81343C9.43866 7.08654 7.75561 6.17163 6.09734 6.17163Z" stroke="black" stroke-width="0.609939" stroke-miterlimit="10"/>
<path d="M2.28516 3.73181V5.8666" stroke="black" stroke-width="0.609939" stroke-linecap="round" stroke-linejoin="round"/>
<path d="M3.35256 4.79919H1.21777" stroke="black" stroke-width="0.609939" stroke-linecap="round" stroke-linejoin="round"/>
</g>
<defs>
<clipPath id="clip0_201_12201">
<rect width="9.75902" height="9.75902" fill="white" transform="translate(0.60791 0.377197)"/>
</clipPath>
</defs>
</svg>
