<svg width="11" height="11" viewBox="0 0 11 11" fill="none" xmlns="http://www.w3.org/2000/svg">
<g clip-path="url(#clip0_201_12246)">
<path d="M0.339844 3.73196V6.78166C0.339844 7.10519 0.468366 7.41547 0.697138 7.64424C0.925909 7.87301 1.23619 8.00153 1.55972 8.00153H8.87899C9.20252 8.00153 9.5128 7.87301 9.74157 7.64424C9.97034 7.41547 10.0989 7.10519 10.0989 6.78166V3.73196C10.0989 3.40843 9.97034 3.09815 9.74157 2.86938C9.5128 2.64061 9.20252 2.51208 8.87899 2.51208H1.55972C1.23619 2.51208 0.925909 2.64061 0.697138 2.86938C0.468366 3.09815 0.339844 3.40843 0.339844 3.73196H0.339844ZM8.87899 3.12202C9.04075 3.12202 9.19589 3.18629 9.31028 3.30067C9.42466 3.41506 9.48893 3.5702 9.48893 3.73196V6.78166C9.48893 6.94342 9.42466 7.09856 9.31028 7.21295C9.19589 7.32733 9.04075 7.3916 8.87899 7.3916H1.55972C1.39796 7.3916 1.24282 7.32733 1.12843 7.21295C1.01404 7.09856 0.949783 6.94342 0.949783 6.78166V6.56532C0.949675 6.53583 0.958187 6.50695 0.974271 6.48223C0.990356 6.45751 1.01331 6.43803 1.04032 6.42618C1.14933 6.37882 1.24214 6.30064 1.30732 6.20126C1.37251 6.10187 1.40724 5.98561 1.40724 5.86675V4.64687C1.40724 4.52801 1.37251 4.41175 1.30732 4.31236C1.24214 4.21298 1.14933 4.1348 1.04032 4.08744C1.01331 4.07559 0.990356 4.05611 0.974271 4.03139C0.958187 4.00667 0.949675 3.97779 0.949783 3.9483V3.73196C0.949783 3.5702 1.01404 3.41506 1.12843 3.30067C1.24282 3.18629 1.39796 3.12202 1.55972 3.12202H8.87899Z" fill="black"/>
<path d="M1.25489 3.73197C1.25467 3.76711 1.26264 3.80181 1.27815 3.83334C1.29367 3.86487 1.31631 3.89235 1.34428 3.91362C1.45848 3.99875 1.55121 4.10938 1.61511 4.23668C1.67901 4.36398 1.7123 4.50444 1.71234 4.64688V5.86676C1.7123 6.0092 1.67901 6.14966 1.61511 6.27696C1.55121 6.40426 1.45848 6.51488 1.34428 6.60002C1.31631 6.62128 1.29367 6.64877 1.27815 6.68029C1.26264 6.71182 1.25467 6.74653 1.25489 6.78167C1.25489 6.86255 1.28702 6.94012 1.34421 6.99731C1.4014 7.0545 1.47897 7.08663 1.55986 7.08663H8.87912C8.96 7.08663 9.03758 7.0545 9.09477 6.99731C9.15196 6.94012 9.18409 6.86255 9.18409 6.78167V3.73197C9.18409 3.65109 9.15196 3.57352 9.09477 3.51633C9.03758 3.45913 8.96 3.427 8.87912 3.427H1.55986C1.47897 3.427 1.4014 3.45913 1.34421 3.51633C1.28702 3.57352 1.25489 3.65109 1.25489 3.73197Z" fill="black"/>
<path d="M0.339844 3.73196V6.78166C0.339844 7.10519 0.468366 7.41547 0.697138 7.64424C0.925909 7.87301 1.23619 8.00153 1.55972 8.00153H8.87899C9.20252 8.00153 9.5128 7.87301 9.74157 7.64424C9.97034 7.41547 10.0989 7.10519 10.0989 6.78166V3.73196C10.0989 3.40843 9.97034 3.09815 9.74157 2.86938C9.5128 2.64061 9.20252 2.51208 8.87899 2.51208H1.55972C1.23619 2.51208 0.925909 2.64061 0.697138 2.86938C0.468366 3.09815 0.339844 3.40843 0.339844 3.73196H0.339844ZM8.87899 3.12202C9.04075 3.12202 9.19589 3.18629 9.31028 3.30067C9.42466 3.41506 9.48893 3.5702 9.48893 3.73196V6.78166C9.48893 6.94342 9.42466 7.09856 9.31028 7.21295C9.19589 7.32733 9.04075 7.3916 8.87899 7.3916H1.55972C1.39796 7.3916 1.24282 7.32733 1.12843 7.21295C1.01404 7.09856 0.949783 6.94342 0.949783 6.78166V6.56532C0.949675 6.53583 0.958187 6.50695 0.974271 6.48223C0.990356 6.45751 1.01331 6.43803 1.04032 6.42618C1.14933 6.37882 1.24214 6.30064 1.30732 6.20126C1.37251 6.10187 1.40724 5.98561 1.40724 5.86675V4.64687C1.40724 4.52801 1.37251 4.41175 1.30732 4.31236C1.24214 4.21298 1.14933 4.1348 1.04032 4.08744C1.01331 4.07559 0.990356 4.05611 0.974271 4.03139C0.958187 4.00667 0.949675 3.97779 0.949783 3.9483V3.73196C0.949783 3.5702 1.01404 3.41506 1.12843 3.30067C1.24282 3.18629 1.39796 3.12202 1.55972 3.12202H8.87899Z" fill="black"/>
</g>
<defs>
<clipPath id="clip0_201_12246">
<rect width="9.75902" height="9.75902" fill="white" transform="translate(0.339844 0.377197)"/>
</clipPath>
</defs>
</svg>
