<svg width="11" height="11" viewBox="0 0 11 11" fill="none" xmlns="http://www.w3.org/2000/svg">
<g clip-path="url(#clip0_201_12250)">
<path d="M7.15406 0.682251H4.10436C3.59907 0.682251 3.18945 1.09187 3.18945 1.59716V8.91642C3.18945 9.42171 3.59907 9.83133 4.10436 9.83133H7.15406C7.65935 9.83133 8.06896 9.42171 8.06896 8.91642V1.59716C8.06896 1.09187 7.65935 0.682251 7.15406 0.682251Z" stroke="black" stroke-width="0.609939" stroke-linecap="round" stroke-linejoin="round"/>
<path d="M4.104 0.682251H4.56146C4.6019 0.682251 4.64068 0.698316 4.66928 0.726913C4.69788 0.755509 4.71394 0.794294 4.71394 0.834736C4.71394 0.915619 4.74607 0.993189 4.80327 1.05038C4.86046 1.10757 4.93803 1.13971 5.01891 1.13971H6.23879C6.31967 1.13971 6.39724 1.10757 6.45444 1.05038C6.51163 0.993189 6.54376 0.915619 6.54376 0.834736C6.54376 0.794294 6.55982 0.755509 6.58842 0.726913C6.61702 0.698316 6.6558 0.682251 6.69624 0.682251H7.1537" stroke="black" stroke-width="0.609939" stroke-linecap="round" stroke-linejoin="round"/>
</g>
<defs>
<clipPath id="clip0_201_12250">
<rect width="9.75902" height="9.75902" fill="white" transform="translate(0.749512 0.377197)"/>
</clipPath>
</defs>
</svg>
