<svg width="11" height="11" viewBox="0 0 11 11" fill="none" xmlns="http://www.w3.org/2000/svg">
<g clip-path="url(#clip0_201_12265)">
<path d="M2.05654 7.18187C1.99767 7.1819 1.94005 7.16489 1.89064 7.1329C1.84123 7.1009 1.80213 7.05529 1.77807 7.00156C1.48691 6.3513 1.36311 5.63852 1.41794 4.92817C1.47277 4.21782 1.70449 3.53248 2.09199 2.93461C2.47949 2.33673 3.01044 1.84534 3.63646 1.50519C4.26249 1.16504 4.96368 0.986966 5.67615 0.987183C5.75703 0.987183 5.8346 1.01931 5.89179 1.07651C5.94899 1.1337 5.98112 1.21127 5.98112 1.29215V5.25675C5.98113 5.31564 5.96409 5.37328 5.93206 5.42269C5.90003 5.47211 5.85437 5.5112 5.80061 5.53523L2.18101 7.15443C2.14193 7.17228 2.0995 7.18163 2.05654 7.18187Z" fill="black"/>
<path d="M6.77369 1.67675C6.75158 1.67226 6.72875 1.67274 6.70684 1.67815C6.68494 1.68356 6.66451 1.69376 6.64702 1.70802C6.62954 1.72227 6.61543 1.74023 6.60573 1.7606C6.59602 1.78097 6.59096 1.80324 6.5909 1.8258V5.25671C6.59075 5.43329 6.53958 5.60606 6.44354 5.75424C6.34751 5.90242 6.2107 6.01969 6.04958 6.09194L2.7622 7.56304C2.74183 7.57214 2.72369 7.58559 2.70909 7.60246C2.69448 7.61933 2.68375 7.6392 2.67766 7.66067C2.67157 7.68214 2.67027 7.70468 2.67384 7.7267C2.67742 7.74873 2.68578 7.7697 2.69835 7.78814C2.94993 8.15816 3.26222 8.48301 3.62202 8.74899C4.30372 9.25611 5.13133 9.52881 5.98096 9.52628C8.16702 9.52628 9.94557 7.74774 9.94557 5.56168C9.94557 3.64704 8.58121 2.045 6.77369 1.67675Z" fill="black"/>
</g>
<defs>
<clipPath id="clip0_201_12265">
<rect width="9.75902" height="9.75902" fill="white" transform="translate(0.796387 0.377197)"/>
</clipPath>
</defs>
</svg>
