<svg width="11" height="11" viewBox="0 0 11 11" fill="none" xmlns="http://www.w3.org/2000/svg">
<g clip-path="url(#clip0_201_12262)">
<path d="M1.49263 7.27889L1.36855 7.0008C1.07756 6.35057 0.953886 5.63788 1.0088 4.92763C1.06371 4.21738 1.29546 3.53217 1.68294 2.9344C2.07042 2.33663 2.60131 1.84532 3.22724 1.50521C3.85318 1.16511 4.55426 0.987023 5.26663 0.987183H5.5716V5.45441L1.49263 7.27889Z" fill="black"/>
<path d="M6.18182 1.64404V5.84976L2.19092 7.63517C2.54606 8.21289 3.04325 8.69002 3.6351 9.02108C4.22695 9.35214 4.89373 9.5261 5.57188 9.52636C7.75794 9.52636 9.53649 7.74782 9.53649 5.56176C9.53649 3.58308 8.0793 1.93834 6.18182 1.64404Z" fill="black"/>
</g>
<defs>
<clipPath id="clip0_201_12262">
<rect width="9.75902" height="9.75902" fill="white" transform="translate(0.387207 0.377197)"/>
</clipPath>
</defs>
</svg>
