<svg width="11" height="11" viewBox="0 0 11 11" fill="none" xmlns="http://www.w3.org/2000/svg">
<g clip-path="url(#clip0_201_12272)">
<path d="M7.07666 2.26421C7.07664 1.96686 6.99283 1.67553 6.83482 1.42363C6.67682 1.17174 6.45103 0.969471 6.18333 0.840026C5.91564 0.710581 5.61688 0.659199 5.32132 0.691773C5.02576 0.724347 4.74536 0.839558 4.51228 1.02419C4.2792 1.20883 4.10288 1.45542 4.00352 1.73567C3.90417 2.01593 3.88581 2.31852 3.95055 2.60874C4.01529 2.89895 4.16052 3.16505 4.36956 3.37651C4.57861 3.58797 4.84302 3.73623 5.13248 3.8043V9.22132L5.49463 9.83126L5.85678 9.22132V3.8043C6.20348 3.7218 6.51233 3.52502 6.73361 3.24566C6.95489 2.96629 7.07572 2.62059 7.07666 2.26421ZM5.95208 2.14984C5.87291 2.14984 5.79553 2.12637 5.7297 2.08238C5.66388 2.0384 5.61257 1.97589 5.58228 1.90275C5.55198 1.82961 5.54405 1.74913 5.5595 1.67148C5.57494 1.59383 5.61307 1.52251 5.66905 1.46653C5.72502 1.41055 5.79635 1.37243 5.87399 1.35699C5.95164 1.34154 6.03212 1.34947 6.10526 1.37977C6.1784 1.41006 6.24091 1.46137 6.2849 1.52719C6.32888 1.59301 6.35235 1.6704 6.35235 1.74957C6.35235 1.85573 6.31018 1.95754 6.23512 2.0326C6.16005 2.10767 6.05824 2.14984 5.95208 2.14984Z" fill="black"/>
</g>
<defs>
<clipPath id="clip0_201_12272">
<rect width="9.75902" height="9.75902" fill="white" transform="translate(0.615234 0.377197)"/>
</clipPath>
</defs>
</svg>
