<svg width="11" height="11" viewBox="0 0 11 11" fill="none" xmlns="http://www.w3.org/2000/svg">
<g clip-path="url(#clip0_201_12274)">
<path d="M6.95741 2.61652C6.95739 2.32801 6.87551 2.04541 6.72129 1.80157C6.56707 1.55773 6.34683 1.36265 6.08616 1.23898C5.82549 1.11531 5.53508 1.06813 5.24867 1.10293C4.96226 1.13772 4.6916 1.25306 4.46812 1.43554C4.24464 1.61803 4.07752 1.86017 3.98617 2.13384C3.89481 2.40752 3.88298 2.70149 3.95204 2.98162C4.0211 3.26175 4.16821 3.51655 4.3763 3.7164C4.58439 3.91626 4.8449 4.05298 5.12759 4.11068V9.50807C5.12763 9.58909 5.14376 9.6693 5.17505 9.74404L5.36699 10.2015C5.37343 10.2133 5.38291 10.2231 5.39444 10.2299C5.40598 10.2368 5.41915 10.2404 5.43256 10.2404C5.44598 10.2404 5.45914 10.2368 5.47068 10.2299C5.48222 10.2231 5.4917 10.2133 5.49813 10.2015L5.69007 9.74404C5.72136 9.6693 5.7375 9.58909 5.73753 9.50807V4.11068C6.08171 4.03995 6.39097 3.85272 6.61318 3.58054C6.8354 3.30836 6.95697 2.96789 6.95741 2.61652ZM5.89002 2.61652C5.79954 2.61652 5.7111 2.58969 5.63587 2.53943C5.56064 2.48916 5.50201 2.41772 5.46738 2.33413C5.43276 2.25054 5.4237 2.15856 5.44135 2.06983C5.459 1.98109 5.50257 1.89958 5.56655 1.8356C5.63052 1.77163 5.71203 1.72806 5.80077 1.71041C5.88951 1.69275 5.98149 1.70181 6.06508 1.73644C6.14866 1.77106 6.22011 1.82969 6.27037 1.90492C6.32064 1.98015 6.34747 2.06859 6.34747 2.15907C6.34747 2.28039 6.29927 2.39675 6.21348 2.48254C6.1277 2.56833 6.01134 2.61652 5.89002 2.61652Z" fill="black"/>
</g>
<defs>
<clipPath id="clip0_201_12274">
<rect width="9.75902" height="9.75902" fill="white" transform="translate(0.553223 0.786621)"/>
</clipPath>
</defs>
</svg>
