<svg width="11" height="11" viewBox="0 0 11 11" fill="none" xmlns="http://www.w3.org/2000/svg">
<g clip-path="url(#clip0_201_12281)">
<path d="M8.38643 2.67911C8.38357 2.63851 8.38071 2.5962 8.37804 2.55178L8.32334 1.66337C8.31364 1.5086 8.24536 1.36333 8.13238 1.2571C8.01939 1.15088 7.87019 1.09169 7.71511 1.09155H3.60622C3.45115 1.09169 3.30194 1.15088 3.18896 1.2571C3.07597 1.36333 3.00769 1.5086 2.998 1.66337L2.94253 2.55217C2.93986 2.5962 2.937 2.63813 2.93434 2.67835C2.90975 3.04507 2.89183 3.31001 3.00543 3.92986C3.03726 4.10351 3.10493 4.36178 3.19089 4.68886C3.43125 5.60377 3.83342 7.13547 3.83342 8.41768V9.78318C3.83342 9.9045 3.88162 10.0209 3.96741 10.1066C4.0532 10.1924 4.16955 10.2406 4.29088 10.2406H7.03065C7.15197 10.2406 7.26833 10.1924 7.35412 10.1066C7.4399 10.0209 7.4881 9.9045 7.4881 9.78318V8.41806C7.4881 6.94868 7.89428 5.49626 8.13616 4.62863C8.21965 4.33071 8.2854 4.09493 8.31552 3.93063C8.42969 3.31097 8.41178 3.04583 8.38643 2.67911ZM7.71931 1.77297L7.7479 2.23042C7.74855 2.24083 7.74706 2.25126 7.74352 2.26106C7.73998 2.27087 7.73447 2.27985 7.72732 2.28744C7.72018 2.29503 7.71155 2.30108 7.70197 2.30521C7.6924 2.30933 7.68208 2.31145 7.67165 2.31143H3.64987C3.63944 2.31145 3.62912 2.30933 3.61955 2.30521C3.60997 2.30108 3.60135 2.29503 3.5942 2.28744C3.58706 2.27985 3.58154 2.27087 3.578 2.26106C3.57447 2.25126 3.57298 2.24083 3.57363 2.23042L3.60184 1.77297C3.60306 1.75352 3.61167 1.73527 3.62592 1.72198C3.64017 1.70869 3.65897 1.70136 3.67846 1.70149H7.64306C7.66248 1.70145 7.68119 1.70883 7.69536 1.72211C7.70953 1.7354 7.71809 1.75359 7.71931 1.77297Z" fill="black"/>
</g>
<defs>
<clipPath id="clip0_201_12281">
<rect width="9.75902" height="9.75902" fill="white" transform="translate(0.78125 0.786621)"/>
</clipPath>
</defs>
</svg>
