<svg width="11" height="11" viewBox="0 0 11 11" fill="none" xmlns="http://www.w3.org/2000/svg">
<g clip-path="url(#clip0_201_12276)">
<path d="M3.48677 3.87448C3.36784 3.22642 3.40119 3.00627 3.42826 2.57093L3.48372 1.68252C3.48857 1.60518 3.52267 1.53258 3.5791 1.47948C3.63553 1.42638 3.71006 1.39675 3.78755 1.39661H7.89644C7.97393 1.39675 8.04846 1.42638 8.10489 1.47948C8.16132 1.53258 8.19542 1.60518 8.20027 1.68252L8.25573 2.57093C8.28299 3.00665 8.31654 3.22642 8.19741 3.87563C8.08438 4.49109 7.36427 6.41583 7.36427 8.41815V9.78326C7.36427 9.82371 7.3482 9.86249 7.31961 9.89109C7.29101 9.91968 7.25222 9.93575 7.21178 9.93575H4.47202C4.43157 9.93575 4.39279 9.91968 4.36419 9.89109C4.3356 9.86249 4.31953 9.82371 4.31953 9.78326V8.41795C4.31972 6.65542 3.60552 4.52388 3.48677 3.87448Z" stroke="black" stroke-width="0.609939" stroke-linecap="round" stroke-linejoin="round"/>
<path d="M3.53955 2.61646H8.14421" stroke="black" stroke-width="0.609939" stroke-linecap="round" stroke-linejoin="round"/>
</g>
<defs>
<clipPath id="clip0_201_12276">
<rect width="9.75902" height="9.75902" fill="white" transform="translate(0.962402 0.786621)"/>
</clipPath>
</defs>
</svg>
