<svg width="11" height="11" viewBox="0 0 11 11" fill="none" xmlns="http://www.w3.org/2000/svg">
<g clip-path="url(#clip0_201_12279)">
<path d="M7.97697 2.67911L7.88167 1.09155H2.62952L2.52564 2.67854C2.50106 3.04526 2.48314 3.3102 2.59674 3.93006C2.62857 4.1037 2.69624 4.36197 2.7822 4.68905C3.02255 5.60396 3.42473 7.13566 3.42473 8.41787V10.2406H7.07827V8.41806C7.07827 6.94868 7.48445 5.49626 7.72633 4.62863C7.80981 4.33071 7.87557 4.09493 7.90569 3.93063C8.02024 3.31097 8.00232 3.04583 7.97697 2.67911ZM3.15903 2.31143L3.19715 1.70149H7.30509L7.34321 2.31143H3.15903Z" fill="black"/>
</g>
<defs>
<clipPath id="clip0_201_12279">
<rect width="9.75902" height="9.75902" fill="white" transform="translate(0.37207 0.786621)"/>
</clipPath>
</defs>
</svg>
