<svg width="10" height="11" viewBox="0 0 10 11" fill="none" xmlns="http://www.w3.org/2000/svg">
<g clip-path="url(#clip0_201_12283)">
<path d="M7.90587 3.13249C7.02165 2.77225 6.09378 2.61633 5.07041 2.61633C4.04705 2.61633 3.04809 2.78788 2.23229 3.12487C2.07828 3.18777 1.94143 3.29641 2.04035 3.49655C2.1206 3.65914 4.0602 7.93424 4.79709 9.45908C4.82191 9.5106 4.86076 9.55406 4.90918 9.58447C4.9576 9.61489 5.01361 9.63103 5.07079 9.63103C5.12797 9.63103 5.18399 9.61489 5.23241 9.58447C5.28083 9.55406 5.31968 9.5106 5.34451 9.45908L8.09018 3.50799C8.15099 3.37647 8.10734 3.21445 7.90587 3.13249Z" stroke="black" stroke-width="0.609939" stroke-miterlimit="10"/>
<path d="M8.50843 2.36244C7.51595 1.96979 6.2934 1.70142 5.07029 1.70142C3.84717 1.70142 2.64292 1.94501 1.62947 2.351C1.54007 2.3876 1.37253 2.47204 1.41847 2.61404L1.60297 3.07378C1.67922 3.23008 1.76823 3.23008 1.89003 3.23008C1.92415 3.23008 1.9718 3.21101 2.02879 3.18852C2.99864 2.81181 4.02984 2.61781 5.07029 2.61632C6.15216 2.61632 7.26054 2.84505 8.11236 3.18814C8.18078 3.21483 8.2189 3.22969 8.25112 3.22969C8.37653 3.22969 8.44897 3.27144 8.53703 3.0753L8.72325 2.61632C8.76156 2.50196 8.62813 2.41009 8.50843 2.36244Z" stroke="black" stroke-width="0.609939" stroke-miterlimit="10"/>
<path d="M3.85066 5.05606C4.18752 5.05606 4.4606 4.78298 4.4606 4.44612C4.4606 4.10926 4.18752 3.83618 3.85066 3.83618C3.5138 3.83618 3.24072 4.10926 3.24072 4.44612C3.24072 4.78298 3.5138 5.05606 3.85066 5.05606Z" fill="black"/>
<path d="M6.29011 5.36111C6.62697 5.36111 6.90005 5.08803 6.90005 4.75117C6.90005 4.41431 6.62697 4.14124 6.29011 4.14124C5.95325 4.14124 5.68018 4.41431 5.68018 4.75117C5.68018 5.08803 5.95325 5.36111 6.29011 5.36111Z" fill="black"/>
<path d="M5.07039 7.49588C5.40725 7.49588 5.68033 7.2228 5.68033 6.88594C5.68033 6.54908 5.40725 6.276 5.07039 6.276C4.73353 6.276 4.46045 6.54908 4.46045 6.88594C4.46045 7.2228 4.73353 7.49588 5.07039 7.49588Z" fill="black"/>
</g>
<defs>
<clipPath id="clip0_201_12283">
<rect width="9.75902" height="9.75902" fill="white" transform="translate(0.190918 0.786621)"/>
</clipPath>
</defs>
</svg>
