<svg width="10" height="11" viewBox="0 0 10 11" fill="none" xmlns="http://www.w3.org/2000/svg">
<g clip-path="url(#clip0_201_12295)">
<path d="M8.43113 2.07943C7.31837 1.63913 6.05771 1.39648 4.88091 1.39648C3.66941 1.39648 2.40684 1.63531 1.32496 2.06856C0.938032 2.22543 0.871511 2.502 0.938223 2.70823L1.0158 2.90227C1.03102 2.94027 1.05373 2.97481 1.08259 3.00385C1.11144 3.03288 1.14584 3.05581 1.18375 3.07127C1.22165 3.08672 1.26228 3.09439 1.30321 3.09382C1.34413 3.09324 1.38453 3.08443 1.42198 3.06791C1.62783 2.97718 1.8781 2.86701 1.93662 2.84337C2.77547 2.49514 3.79731 2.31139 4.88929 2.31139C5.9847 2.31139 6.94955 2.48751 7.83911 2.84985C7.92336 2.88416 8.12273 2.97222 8.33792 3.06829C8.3753 3.08498 8.41565 3.09398 8.45657 3.09475C8.4975 3.09552 8.53816 3.08804 8.57613 3.07276C8.61411 3.05748 8.64862 3.03472 8.67761 3.00582C8.70659 2.97692 8.72947 2.94248 8.74487 2.90456L8.81577 2.73073L8.82225 2.71357C8.88801 2.51896 8.82492 2.2361 8.43113 2.07943Z" fill="black"/>
<path d="M7.80895 3.47135C6.9415 3.12197 5.8743 2.92126 4.88086 2.92126C3.87841 2.92192 2.88479 3.10864 1.95049 3.47193C1.94039 3.47593 1.91122 3.4887 1.86872 3.50776C1.83197 3.52423 1.79885 3.54781 1.77126 3.57715C1.74368 3.60649 1.72218 3.641 1.708 3.67869C1.69382 3.71639 1.68725 3.75651 1.68866 3.79676C1.69008 3.83701 1.69945 3.87657 1.71623 3.91318C1.79248 4.0792 1.89578 4.30544 2.01167 4.55914C2.63896 5.93284 3.8068 8.48696 4.34145 9.59247C4.39097 9.6956 4.46873 9.78258 4.56569 9.84331C4.66265 9.90403 4.77484 9.93602 4.88925 9.93556C5.00385 9.93601 5.11622 9.9039 5.21327 9.84295C5.31032 9.78201 5.38806 9.69475 5.43743 9.59133L5.43858 9.58885L8.05559 3.91699C8.07291 3.87987 8.08254 3.83964 8.08391 3.79871C8.08527 3.75777 8.07835 3.71699 8.06356 3.6788C8.04876 3.64061 8.0264 3.6058 7.99781 3.57648C7.96922 3.54715 7.935 3.5239 7.8972 3.50814C7.85412 3.49003 7.82382 3.47745 7.81143 3.4725L7.80895 3.47135ZM3.70902 5.05472C3.58526 5.06279 3.46199 5.03294 3.35563 4.96915C3.24927 4.90537 3.16488 4.81068 3.11372 4.6977C3.06255 4.58473 3.04704 4.45884 3.06925 4.33683C3.09147 4.21482 3.15034 4.10247 3.23804 4.01478C3.32573 3.92708 3.43808 3.86821 3.56009 3.84599C3.6821 3.82378 3.80799 3.83929 3.92096 3.89046C4.03394 3.94162 4.12863 4.02601 4.19241 4.13237C4.2562 4.23873 4.28605 4.362 4.27798 4.48576C4.26834 4.63349 4.20531 4.77268 4.10062 4.87736C3.99594 4.98205 3.85675 5.04508 3.70902 5.05472ZM4.9289 7.49447C4.80514 7.50254 4.68186 7.47269 4.57551 7.40891C4.46915 7.34512 4.38476 7.25043 4.3336 7.13746C4.28243 7.02449 4.26692 6.8986 4.28913 6.77659C4.31134 6.65457 4.37022 6.54223 4.45792 6.45453C4.54561 6.36684 4.65795 6.30796 4.77997 6.28575C4.90198 6.26354 5.02787 6.27905 5.14084 6.33021C5.25381 6.38138 5.34851 6.46576 5.41229 6.57212C5.47608 6.67848 5.50592 6.80176 5.49785 6.92551C5.48822 7.07325 5.42519 7.21243 5.3205 7.31712C5.21582 7.4218 5.07663 7.48484 4.9289 7.49447ZM6.14877 5.35969C6.02502 5.36776 5.90174 5.33791 5.79538 5.27412C5.68902 5.21034 5.60464 5.11565 5.55347 5.00267C5.50231 4.8897 5.4868 4.76381 5.50901 4.6418C5.53122 4.51979 5.5901 4.40744 5.67779 4.31975C5.76549 4.23205 5.87783 4.17317 5.99985 4.15096C6.12186 4.12875 6.24775 4.14426 6.36072 4.19543C6.47369 4.24659 6.56838 4.33098 6.63217 4.43734C6.69595 4.5437 6.7258 4.66697 6.71773 4.79073C6.7081 4.93846 6.64506 5.07765 6.54038 5.18233C6.43569 5.28702 6.29651 5.35005 6.14877 5.35969Z" fill="black"/>
</g>
<defs>
<clipPath id="clip0_201_12295">
<rect width="9.75902" height="9.75902" fill="white" transform="translate(0.00976562 0.786621)"/>
</clipPath>
</defs>
</svg>
