<svg width="11" height="11" viewBox="0 0 11 11" fill="none" xmlns="http://www.w3.org/2000/svg">
<g clip-path="url(#clip0_201_12301)">
<path d="M2.37256 6.02271C2.55097 7.70556 3.9786 9.02075 5.70816 9.02075C6.1777 9.02127 6.64204 8.9226 7.0708 8.73121C6.30266 8.41614 5.46876 8.00367 4.63543 7.52354C3.82116 7.05484 3.03663 6.53334 2.37256 6.02271Z" fill="black"/>
<path d="M10.2202 7.25781C10.0581 7.04224 9.83895 6.80417 9.5721 6.55257C9.52119 6.77428 9.45103 6.99112 9.36244 7.20063C9.90986 7.76292 9.99525 8.06484 9.97562 8.12412C9.93749 8.16662 9.65063 8.25545 8.86724 8.05683C8.75504 8.02837 8.63229 7.99368 8.49899 7.95276C8.41309 7.92633 8.32548 7.89781 8.23615 7.86718C8.37647 7.70624 8.50118 7.53233 8.60859 7.34778C8.61183 7.34225 8.61526 7.33673 8.6185 7.33101C8.90955 6.82439 9.06274 6.25034 9.0628 5.66606C9.06288 5.5451 9.05652 5.42421 9.04374 5.30391C8.86133 3.62334 7.43503 2.3114 5.70814 2.3114C4.97542 2.31099 4.26286 2.55134 3.68009 2.99549C3.32688 3.26432 3.03005 3.60008 2.80655 3.98359C2.8035 3.98911 2.80007 3.99464 2.79683 4.00017C2.6906 4.18523 2.60233 4.38002 2.53322 4.5819C2.46219 4.52002 2.39363 4.45858 2.32755 4.39758C2.22482 4.30228 2.13371 4.21403 2.0527 4.13073C1.48908 3.55396 1.42199 3.26138 1.43971 3.20725C1.48088 3.16093 1.78471 3.08259 2.5477 3.27491C2.68549 3.09345 2.83853 2.92408 3.00516 2.76867C2.64568 2.66174 2.32298 2.59045 2.05118 2.559C1.46544 2.49191 1.08214 2.60722 0.911544 2.90228C0.849787 3.00864 0.790509 3.1899 0.859699 3.44741C0.962054 3.82977 1.32687 4.2937 1.84323 4.77975C2.00772 4.93471 2.18746 5.09177 2.37921 5.2494C2.51873 5.36376 2.66512 5.47927 2.8157 5.59402C2.91621 5.67026 3.01882 5.7465 3.12352 5.82274C3.22823 5.89899 3.33433 5.97383 3.44184 6.04728C3.92617 6.38293 4.43794 6.70525 4.93981 6.9944C5.12203 7.09936 5.30399 7.20101 5.4857 7.29937C5.66741 7.39772 5.84766 7.49182 6.02645 7.58165C6.44388 7.79132 6.85273 7.9804 7.24366 8.14261C7.41127 8.21224 7.57525 8.27679 7.73562 8.33626C7.96225 8.42051 8.18106 8.49466 8.38958 8.55717L8.41055 8.56346C8.90098 8.70947 9.3144 8.78628 9.63958 8.79219H9.67274C10.0852 8.79219 10.3646 8.67059 10.5034 8.43004C10.6767 8.13231 10.5812 7.73776 10.2202 7.25781Z" fill="black"/>
</g>
<defs>
<clipPath id="clip0_201_12301">
<rect width="9.75902" height="9.75902" fill="white" transform="translate(0.828613 0.786621)"/>
</clipPath>
</defs>
</svg>
