<svg width="11" height="11" viewBox="0 0 11 11" fill="none" xmlns="http://www.w3.org/2000/svg">
<path d="M5.48727 9.32574C7.50769 9.32574 9.1469 7.68652 9.1469 5.6661C9.1469 3.64568 7.50769 2.00647 5.48727 2.00647C3.46685 2.00647 1.82764 3.64568 1.82764 5.6661C1.82764 7.68652 3.46685 9.32574 5.48727 9.32574Z" stroke="black" stroke-width="0.609939" stroke-miterlimit="10"/>
<path d="M4.26737 4.14124C4.34825 4.14124 4.42582 4.17337 4.48302 4.23056C4.54021 4.28775 4.57234 4.36532 4.57234 4.4462V5.45642L6.70103 4.17059C6.73232 4.15184 6.76805 4.14176 6.80453 4.14139C6.84101 4.14101 6.87694 4.15036 6.90861 4.16847C6.94028 4.18658 6.96656 4.21279 6.98475 4.24442C7.00294 4.27604 7.01238 4.31194 7.0121 4.34842V6.98374C7.01231 7.02019 7.00282 7.05604 6.9846 7.08761C6.96639 7.11919 6.9401 7.14535 6.90844 7.16341C6.87678 7.18147 6.84088 7.19078 6.80443 7.19039C6.76799 7.19001 6.7323 7.17993 6.70103 7.16119L4.57234 5.87575V6.88596C4.57234 6.96684 4.54021 7.04441 4.48302 7.10161C4.42582 7.1588 4.34825 7.19093 4.26737 7.19093C4.18649 7.19093 4.10892 7.1588 4.05173 7.10161C3.99453 7.04441 3.9624 6.96684 3.9624 6.88596V4.4462C3.9624 4.36532 3.99453 4.28775 4.05173 4.23056C4.10892 4.17337 4.18649 4.14124 4.26737 4.14124Z" fill="black"/>
</svg>
