<svg width="10" height="11" viewBox="0 0 10 11" fill="none" xmlns="http://www.w3.org/2000/svg">
<g clip-path="url(#clip0_201_12362)">
<path d="M8.60345 5.66622C8.60345 3.6458 6.96423 2.00659 4.94381 2.00659C2.92339 2.00659 1.28418 3.6458 1.28418 5.66622C1.28418 7.68665 2.92339 9.32586 4.94381 9.32586C6.96423 9.32586 8.60345 7.68665 8.60345 5.66622Z" stroke="black" stroke-width="0.609939" stroke-miterlimit="10"/>
<path d="M6.16367 4.14136C6.08279 4.14136 6.00522 4.17349 5.94803 4.23068C5.89083 4.28787 5.8587 4.36544 5.8587 4.44633V5.45654L3.73002 4.17109C3.69875 4.15236 3.66306 4.14228 3.62661 4.14189C3.59016 4.1415 3.55427 4.15082 3.5226 4.16888C3.49094 4.18694 3.46466 4.2131 3.44644 4.24467C3.42823 4.27625 3.41874 4.3121 3.41895 4.34855V6.98386C3.41874 7.02031 3.42823 7.05616 3.44644 7.08774C3.46466 7.11931 3.49094 7.14547 3.5226 7.16353C3.55427 7.18159 3.59016 7.19091 3.62661 7.19052C3.66306 7.19013 3.69875 7.18005 3.73002 7.16132L5.8587 5.87587V6.88608C5.8587 6.96696 5.89083 7.04454 5.94803 7.10173C6.00522 7.15892 6.08279 7.19105 6.16367 7.19105C6.24456 7.19105 6.32213 7.15892 6.37932 7.10173C6.43651 7.04454 6.46864 6.96696 6.46864 6.88608V4.44633C6.46864 4.36544 6.43651 4.28787 6.37932 4.23068C6.32213 4.17349 6.24456 4.14136 6.16367 4.14136Z" fill="black"/>
</g>
<defs>
<clipPath id="clip0_201_12362">
<rect width="9.75902" height="9.75902" fill="white" transform="translate(0.0644531 0.786621)"/>
</clipPath>
</defs>
</svg>
