<svg width="11" height="11" viewBox="0 0 11 11" fill="none" xmlns="http://www.w3.org/2000/svg">
<g clip-path="url(#clip0_201_12320)">
<path d="M1.28011 5.16038L4.88008 3.00654C4.96914 2.95235 5.07112 2.92307 5.17536 2.92176C5.2796 2.92045 5.38228 2.94716 5.47267 2.9991C5.57075 3.05621 5.65197 3.13827 5.70807 3.23692C5.76418 3.33558 5.79318 3.44733 5.79213 3.56082V5.06756L9.23676 3.00596C9.32582 2.95177 9.42779 2.9225 9.53204 2.92119C9.63628 2.91988 9.73896 2.94659 9.82935 2.99853C9.92743 3.05564 10.0086 3.13769 10.0648 3.23635C10.1209 3.33501 10.1499 3.44675 10.1488 3.56025V7.77263C10.1499 7.88616 10.1209 7.99796 10.0648 8.09665C10.0087 8.19535 9.92747 8.27743 9.82935 8.33454C9.73896 8.38648 9.63628 8.41319 9.53204 8.41188C9.42779 8.41057 9.32582 8.3813 9.23676 8.32711L5.79213 6.26456V7.77187C5.79337 7.88553 5.76446 7.99748 5.70834 8.09632C5.65222 8.19517 5.5709 8.27736 5.47267 8.33454C5.38228 8.38648 5.2796 8.41319 5.17536 8.41188C5.07112 8.41057 4.96914 8.3813 4.88008 8.32711L1.28011 6.17326C1.19452 6.11965 1.12397 6.04518 1.07506 5.95682C1.02615 5.86847 1.00049 5.76914 1.00049 5.66816C1.00049 5.56717 1.02615 5.46784 1.07506 5.37949C1.12397 5.29114 1.19452 5.21666 1.28011 5.16305V5.16038Z" fill="black"/>
</g>
<defs>
<clipPath id="clip0_201_12320">
<rect width="9.75902" height="9.75902" fill="white" transform="translate(0.694824 0.786621)"/>
</clipPath>
</defs>
</svg>
