<svg width="11" height="11" viewBox="0 0 11 11" fill="none" xmlns="http://www.w3.org/2000/svg">
<path d="M5.80298 1.70154C3.61692 1.70154 1.83838 3.48008 1.83838 5.66614C1.83838 7.8522 3.61692 9.63074 5.80298 9.63074C7.98904 9.63074 9.76758 7.8522 9.76758 5.66614C9.76758 3.48008 7.98904 1.70154 5.80298 1.70154ZM7.22814 5.8434L5.04666 7.16125C5.01539 7.17999 4.9797 7.19006 4.94325 7.19045C4.9068 7.19084 4.87091 7.18153 4.83924 7.16347C4.80758 7.1454 4.7813 7.11925 4.76308 7.08767C4.74487 7.0561 4.73538 7.02025 4.73559 6.9838V4.34848C4.73538 4.31203 4.74487 4.27618 4.76308 4.24461C4.7813 4.21304 4.80758 4.18688 4.83924 4.16881C4.87091 4.15075 4.9068 4.14144 4.94325 4.14183C4.9797 4.14222 5.01539 4.15229 5.04666 4.17103L7.22814 5.48888C7.25855 5.5074 7.28368 5.53344 7.30112 5.56448C7.31856 5.59553 7.32772 5.63053 7.32772 5.66614C7.32772 5.70175 7.31856 5.73675 7.30112 5.7678C7.28368 5.79884 7.25855 5.82488 7.22814 5.8434Z" fill="black"/>
</svg>
