<svg width="11" height="11" viewBox="0 0 11 11" fill="none" xmlns="http://www.w3.org/2000/svg">
<g clip-path="url(#clip0_201_12342)">
<path d="M9.5533 5.1605L5.95333 3.00666C5.86427 2.95247 5.76229 2.92319 5.65805 2.92188C5.55381 2.92057 5.45112 2.94729 5.36073 2.99922C5.26266 3.05634 5.18144 3.13839 5.12533 3.23704C5.06922 3.3357 5.04022 3.44745 5.04128 3.56094V5.06768L1.59665 3.00609C1.50759 2.9519 1.40561 2.92262 1.30137 2.92131C1.19713 2.92 1.09445 2.94671 1.00406 2.99865C0.905977 3.05576 0.82476 3.13782 0.768653 3.23647C0.712546 3.33513 0.683546 3.44688 0.6846 3.56037V7.77276C0.683512 7.88628 0.712496 7.99807 0.768605 8.09676C0.824714 8.19545 0.905949 8.27753 1.00406 8.33466C1.09445 8.3866 1.19713 8.41331 1.30137 8.412C1.40561 8.4107 1.50759 8.38142 1.59665 8.32723L5.04128 6.26468V7.772C5.04006 7.88565 5.06897 7.99759 5.12509 8.09643C5.18121 8.19527 5.26251 8.27747 5.36073 8.33466C5.45112 8.3866 5.55381 8.41331 5.65805 8.412C5.76229 8.4107 5.86427 8.38142 5.95333 8.32723L9.5533 6.17338C9.63888 6.11977 9.70944 6.0453 9.75835 5.95695C9.80726 5.86859 9.83292 5.76926 9.83292 5.66828C9.83292 5.56729 9.80726 5.46796 9.75835 5.37961C9.70944 5.29126 9.63888 5.21678 9.5533 5.16317V5.1605Z" fill="black"/>
</g>
<defs>
<clipPath id="clip0_201_12342">
<rect width="9.75902" height="9.75902" fill="white" transform="translate(0.379883 0.786621)"/>
</clipPath>
</defs>
</svg>
