<svg width="11" height="11" viewBox="0 0 11 11" fill="none" xmlns="http://www.w3.org/2000/svg">
<path d="M8.87151 5.6661C8.87151 3.64568 7.2323 2.00647 5.21188 2.00647C3.19146 2.00647 1.55225 3.64568 1.55225 5.6661C1.55225 7.68652 3.19146 9.32574 5.21188 9.32574C7.2323 9.32574 8.87151 7.68652 8.87151 5.6661Z" stroke="black" stroke-width="0.609939" stroke-miterlimit="10"/>
<path d="M7.85698 5.48891L5.67549 4.17106C5.64422 4.15232 5.60853 4.14225 5.57208 4.14186C5.53564 4.14147 5.49974 4.15078 5.46808 4.16884C5.43642 4.18691 5.41013 4.21307 5.39192 4.24464C5.3737 4.27621 5.36421 4.31206 5.36442 4.34851V5.36482L3.38822 4.17106C3.35695 4.15232 3.32126 4.14225 3.28481 4.14186C3.24837 4.14147 3.21247 4.15078 3.18081 4.16884C3.14915 4.18691 3.12286 4.21307 3.10464 4.24464C3.08643 4.27621 3.07694 4.31206 3.07715 4.34851V6.98383C3.07694 7.02028 3.08643 7.05613 3.10464 7.0877C3.12286 7.11928 3.14915 7.14543 3.18081 7.1635C3.21247 7.18156 3.24837 7.19087 3.28481 7.19048C3.32126 7.19009 3.35695 7.18002 3.38822 7.16128L5.36442 5.96752V6.98383C5.36421 7.02028 5.3737 7.05613 5.39192 7.0877C5.41013 7.11928 5.43642 7.14543 5.46808 7.1635C5.49974 7.18156 5.53564 7.19087 5.57208 7.19048C5.60853 7.19009 5.64422 7.18002 5.67549 7.16128L7.85698 5.84343C7.88738 5.82491 7.91251 5.79887 7.92995 5.76783C7.94739 5.73678 7.95655 5.70178 7.95655 5.66617C7.95655 5.63056 7.94739 5.59556 7.92995 5.56451C7.91251 5.53347 7.88738 5.50743 7.85698 5.48891Z" fill="black"/>
</svg>
