<svg width="11" height="11" viewBox="0 0 11 11" fill="none" xmlns="http://www.w3.org/2000/svg">
<path d="M5.52682 9.32574C7.54724 9.32574 9.18645 7.68652 9.18645 5.6661C9.18645 3.64568 7.54724 2.00647 5.52682 2.00647C3.5064 2.00647 1.86719 3.64568 1.86719 5.6661C1.86719 7.68652 3.5064 9.32574 5.52682 9.32574Z" stroke="black" stroke-width="0.609939" stroke-miterlimit="10"/>
<path d="M2.8818 5.48878L5.06329 4.17094C5.09455 4.1522 5.13024 4.14212 5.16669 4.14174C5.20314 4.14135 5.23904 4.15066 5.2707 4.16872C5.30236 4.18678 5.32865 4.21294 5.34686 4.24452C5.36508 4.27609 5.37457 4.31194 5.37435 4.34839V5.3647L7.35056 4.17094C7.38182 4.1522 7.41751 4.14212 7.45396 4.14174C7.49041 4.14135 7.52631 4.15066 7.55797 4.16872C7.58963 4.18678 7.61592 4.21294 7.63413 4.24452C7.65235 4.27609 7.66184 4.31194 7.66163 4.34839V6.98371C7.66184 7.02016 7.65235 7.05601 7.63413 7.08758C7.61592 7.11915 7.58963 7.14531 7.55797 7.16337C7.52631 7.18144 7.49041 7.19075 7.45396 7.19036C7.41751 7.18997 7.38182 7.17989 7.35056 7.16116L5.37435 5.9674V6.98371C5.37457 7.02016 5.36508 7.05601 5.34686 7.08758C5.32865 7.11915 5.30236 7.14531 5.2707 7.16337C5.23904 7.18144 5.20314 7.19075 5.16669 7.19036C5.13024 7.18997 5.09455 7.17989 5.06329 7.16116L2.8818 5.84331C2.85139 5.82479 2.82626 5.79875 2.80882 5.76771C2.79139 5.73666 2.78223 5.70165 2.78223 5.66605C2.78223 5.63044 2.79139 5.59543 2.80882 5.56439C2.82626 5.53335 2.85139 5.50731 2.8818 5.48878Z" fill="black"/>
</svg>
