<svg width="10" height="11" viewBox="0 0 10 11" fill="none" xmlns="http://www.w3.org/2000/svg">
<path d="M8.64348 5.66622C8.64348 3.6458 7.00427 2.00659 4.98385 2.00659C2.96343 2.00659 1.32422 3.6458 1.32422 5.66622C1.32422 7.68665 2.96343 9.32586 4.98385 9.32586C7.00427 9.32586 8.64348 7.68665 8.64348 5.66622Z" stroke="black" stroke-width="0.609939" stroke-miterlimit="10"/>
<path d="M4.22758 7.16128L6.40906 5.84343C6.43947 5.82491 6.4646 5.79887 6.48204 5.76783C6.49948 5.73678 6.50864 5.70178 6.50864 5.66617C6.50864 5.63056 6.49948 5.59556 6.48204 5.56451C6.4646 5.53347 6.43947 5.50743 6.40906 5.48891L4.22758 4.17106C4.19631 4.15232 4.16062 4.14225 4.12417 4.14186C4.08772 4.14147 4.05182 4.15078 4.02016 4.16884C3.9885 4.18691 3.96222 4.21307 3.944 4.24464C3.92578 4.27621 3.9163 4.31206 3.91651 4.34851V6.98383C3.9163 7.02028 3.92578 7.05613 3.944 7.0877C3.96222 7.11928 3.9885 7.14543 4.02016 7.1635C4.05182 7.18156 4.08772 7.19087 4.12417 7.19048C4.16062 7.19009 4.19631 7.18002 4.22758 7.16128Z" fill="black"/>
</svg>
