<svg width="11" height="11" viewBox="0 0 11 11" fill="none" xmlns="http://www.w3.org/2000/svg">
<path d="M2.79032 2.00659C2.8712 2.00659 2.94877 2.03872 3.00597 2.09592C3.06316 2.15311 3.09529 2.23068 3.09529 2.31156V4.912L7.53202 2.25648C7.6345 2.19414 7.75184 2.16048 7.87177 2.159C7.99171 2.15753 8.10984 2.18829 8.21382 2.24809C8.44255 2.3777 8.58474 2.6293 8.58474 2.90244V8.43001C8.58474 8.70391 8.44255 8.95475 8.21382 9.08436C8.10982 9.14411 7.99168 9.17483 7.87175 9.17332C7.75182 9.17181 7.63449 9.13813 7.53202 9.07578L3.09529 6.42045V9.02089C3.09529 9.10177 3.06316 9.17934 3.00597 9.23653C2.94877 9.29373 2.8712 9.32586 2.79032 9.32586C2.70944 9.32586 2.63187 9.29373 2.57468 9.23653C2.51748 9.17934 2.48535 9.10177 2.48535 9.02089V2.31156C2.48535 2.23068 2.51748 2.15311 2.57468 2.09592C2.63187 2.03872 2.70944 2.00659 2.79032 2.00659Z" fill="black"/>
</svg>
