<svg width="10" height="11" viewBox="0 0 10 11" fill="none" xmlns="http://www.w3.org/2000/svg">
<path d="M5.03101 1.70154C2.84495 1.70154 1.06641 3.48008 1.06641 5.66614C1.06641 7.8522 2.84495 9.63074 5.03101 9.63074C7.21707 9.63074 8.99561 7.8522 8.99561 5.66614C8.99561 3.48008 7.21707 1.70154 5.03101 1.70154ZM7.67605 5.8434L5.49456 7.16125C5.46329 7.17999 5.4276 7.19006 5.39115 7.19045C5.35471 7.19084 5.31881 7.18153 5.28715 7.16347C5.25549 7.1454 5.2292 7.11925 5.21099 7.08767C5.19277 7.0561 5.18328 7.02025 5.18349 6.9838V5.96749L3.20729 7.16125C3.17602 7.17999 3.14033 7.19006 3.10388 7.19045C3.06744 7.19084 3.03154 7.18153 2.99988 7.16347C2.96822 7.1454 2.94193 7.11925 2.92372 7.08767C2.9055 7.0561 2.89601 7.02025 2.89622 6.9838V4.34848C2.89601 4.31203 2.9055 4.27618 2.92372 4.24461C2.94193 4.21304 2.96822 4.18688 2.99988 4.16881C3.03154 4.15075 3.06744 4.14144 3.10388 4.14183C3.14033 4.14222 3.17602 4.15229 3.20729 4.17103L5.18349 5.36479V4.34848C5.18328 4.31203 5.19277 4.27618 5.21099 4.24461C5.2292 4.21304 5.25549 4.18688 5.28715 4.16881C5.31881 4.15075 5.35471 4.14144 5.39115 4.14183C5.4276 4.14222 5.46329 4.15229 5.49456 4.17103L7.67605 5.48888C7.70645 5.5074 7.73158 5.53344 7.74902 5.56448C7.76646 5.59553 7.77562 5.63053 7.77562 5.66614C7.77562 5.70175 7.76646 5.73675 7.74902 5.7678C7.73158 5.79884 7.70645 5.82488 7.67605 5.8434Z" fill="black"/>
</svg>
