<svg width="11" height="11" viewBox="0 0 11 11" fill="none" xmlns="http://www.w3.org/2000/svg">
<path d="M5.44802 9.63063C3.26196 9.63063 1.48342 7.85361 1.48342 5.66946C1.48154 5.08717 1.60829 4.51166 1.85462 3.98404C2.10095 3.45642 2.46078 2.98972 2.90839 2.61729L3.23051 2.35044L3.76745 2.99316L3.44533 3.26001C3.09224 3.55415 2.80847 3.92263 2.6143 4.33915C2.42013 4.75566 2.32035 5.20991 2.32208 5.66946C2.32208 7.39235 3.72437 8.79406 5.44802 8.79406C7.17167 8.79406 8.57396 7.39235 8.57396 5.66946C8.57392 5.20864 8.4716 4.75356 8.2744 4.33707C8.07719 3.92057 7.79001 3.55303 7.43356 3.26096L7.10953 2.99412L7.64323 2.34949L7.96726 2.61634C8.41904 2.98662 8.78302 3.45254 9.03296 3.98051C9.28291 4.50847 9.41257 5.08532 9.41262 5.66946C9.41262 7.85361 7.63408 9.63063 5.44802 9.63063Z" fill="black"/>
<path d="M5.86699 1.70142H5.02832V5.97099H5.86699V1.70142Z" fill="black"/>
</svg>
