<svg width="11" height="11" viewBox="0 0 11 11" fill="none" xmlns="http://www.w3.org/2000/svg">
<path d="M5.85718 9.63064C3.67112 9.63064 1.89258 7.84905 1.89258 5.65937C1.89258 4.46904 2.41198 3.35304 3.31755 2.59919C3.35983 2.56378 3.40868 2.53706 3.46131 2.52056C3.51393 2.50405 3.5693 2.49809 3.62423 2.50302C3.67916 2.50794 3.73258 2.52365 3.78143 2.54925C3.83028 2.57485 3.8736 2.60984 3.90891 2.65221C3.94422 2.69457 3.97083 2.74349 3.98721 2.79615C4.00358 2.84882 4.00941 2.9042 4.00435 2.95912C3.9993 3.01404 3.98346 3.06742 3.95774 3.11621C3.93202 3.165 3.89694 3.20823 3.85448 3.24344C3.14067 3.83813 2.73124 4.71873 2.73124 5.65937C2.73124 7.38664 4.13353 8.79198 5.85718 8.79198C7.58083 8.79198 8.98312 7.38664 8.98312 5.65937C8.98307 5.19775 8.88078 4.74188 8.6836 4.32449C8.48643 3.9071 8.19926 3.53856 7.84272 3.24535C7.79856 3.21087 7.76175 3.16789 7.73448 3.11895C7.7072 3.07001 7.69001 3.0161 7.68392 2.9604C7.67783 2.90471 7.68296 2.84835 7.69902 2.79468C7.71507 2.741 7.74171 2.69108 7.77738 2.64787C7.81305 2.60466 7.85701 2.56904 7.90668 2.54311C7.95634 2.51717 8.0107 2.50146 8.06654 2.49688C8.12238 2.49231 8.17858 2.49897 8.2318 2.51648C8.28502 2.53399 8.3342 2.56198 8.37642 2.59881C8.8284 2.97056 9.19243 3.43781 9.44234 3.967C9.69225 4.49618 9.82183 5.07415 9.82178 5.65937C9.82178 7.84905 8.04324 9.63064 5.85718 9.63064Z" fill="black"/>
<path d="M5.85683 5.97099C5.74562 5.97099 5.63896 5.92681 5.56032 5.84817C5.48168 5.76953 5.4375 5.66287 5.4375 5.55165V2.12075C5.4375 2.00953 5.48168 1.90288 5.56032 1.82424C5.63896 1.7456 5.74562 1.70142 5.85683 1.70142C5.96805 1.70142 6.07471 1.7456 6.15335 1.82424C6.23199 1.90288 6.27617 2.00953 6.27617 2.12075V5.55165C6.27617 5.66287 6.23199 5.76953 6.15335 5.84817C6.07471 5.92681 5.96805 5.97099 5.85683 5.97099Z" fill="black"/>
</svg>
