<svg width="11" height="11" viewBox="0 0 11 11" fill="none" xmlns="http://www.w3.org/2000/svg">
<g clip-path="url(#clip0_201_12406)">
<path d="M8.30239 1.39649H5.95927C5.88643 1.39643 5.81653 1.42521 5.76485 1.47654L1.08052 6.15973C0.977976 6.26277 0.92041 6.40223 0.92041 6.54761C0.92041 6.69298 0.977976 6.83244 1.08052 6.93549L3.31061 9.16558C3.41369 9.26814 3.55318 9.32571 3.69859 9.32571C3.84399 9.32571 3.98349 9.26814 4.08657 9.16558L8.76956 4.4843C8.82089 4.43262 8.84967 4.36272 8.84962 4.28988V1.94543C8.84997 1.87339 8.83607 1.80199 8.80871 1.73534C8.78136 1.66869 8.74109 1.60811 8.69023 1.55709C8.63936 1.50607 8.57891 1.46561 8.51235 1.43805C8.44579 1.41048 8.37443 1.39636 8.30239 1.39649Z" stroke="black" stroke-width="0.609939" stroke-linecap="round" stroke-linejoin="round"/>
<path d="M7.32478 3.53128C7.20415 3.53128 7.08622 3.49551 6.98592 3.42849C6.88561 3.36147 6.80744 3.26621 6.76127 3.15475C6.71511 3.0433 6.70303 2.92066 6.72656 2.80235C6.7501 2.68403 6.80819 2.57535 6.89349 2.49005C6.97879 2.40475 7.08747 2.34666 7.20579 2.32312C7.32411 2.29959 7.44674 2.31167 7.5582 2.35783C7.66965 2.404 7.76491 2.48217 7.83193 2.58248C7.89895 2.68278 7.93472 2.80071 7.93472 2.92134C7.93472 3.08311 7.87046 3.23825 7.75607 3.35263C7.64169 3.46702 7.48655 3.53128 7.32478 3.53128Z" fill="black"/>
<path d="M4.99902 9.93564L9.9929 4.94176C10.0177 4.91672 10.0373 4.88694 10.0504 4.8542C10.0635 4.82146 10.0698 4.78641 10.0691 4.75116V2.3114" stroke="black" stroke-width="0.609939" stroke-linecap="round" stroke-linejoin="round"/>
</g>
<defs>
<clipPath id="clip0_201_12406">
<rect width="9.75902" height="9.75902" fill="white" transform="translate(0.615234 0.786621)"/>
</clipPath>
</defs>
</svg>
