<svg width="11" height="11" viewBox="0 0 11 11" fill="none" xmlns="http://www.w3.org/2000/svg">
<g clip-path="url(#clip0_201_12402)">
<path d="M6.59101 1.39648L1.10156 6.88593L4.45623 10.2406L9.94567 4.75115V1.39648H6.59101ZM8.11586 3.83624C7.99522 3.83624 7.8773 3.80047 7.77699 3.73345C7.67669 3.66643 7.59851 3.57117 7.55235 3.45971C7.50618 3.34826 7.4941 3.22562 7.51764 3.10731C7.54117 2.98899 7.59927 2.88031 7.68457 2.79501C7.76987 2.70971 7.87855 2.65162 7.99687 2.62808C8.11518 2.60455 8.23782 2.61663 8.34927 2.66279C8.46072 2.70896 8.55598 2.78713 8.623 2.88744C8.69003 2.98774 8.7258 3.10567 8.7258 3.2263C8.7258 3.38807 8.66154 3.54321 8.54715 3.65759C8.43276 3.77198 8.27762 3.83624 8.11586 3.83624Z" fill="black"/>
</g>
<defs>
<clipPath id="clip0_201_12402">
<rect width="9.75902" height="9.75902" fill="white" transform="translate(0.796387 0.786621)"/>
</clipPath>
</defs>
</svg>
