<svg width="11" height="10" viewBox="0 0 11 10" fill="none" xmlns="http://www.w3.org/2000/svg">
<g clip-path="url(#clip0_201_12434)">
<path d="M9.71721 6.2847L6.05377 0.898943C5.96979 0.776056 5.8571 0.675513 5.72546 0.606035C5.59383 0.536558 5.44724 0.500244 5.2984 0.500244C5.14955 0.500244 5.00296 0.536558 4.87133 0.606035C4.7397 0.675513 4.627 0.776056 4.54303 0.898943L0.87958 6.2847C0.808552 6.38912 0.760352 6.50735 0.73813 6.63166C0.715907 6.75598 0.720163 6.88358 0.750618 7.00614C0.781073 7.1287 0.837043 7.24345 0.914871 7.34291C0.992698 7.44236 1.09063 7.52428 1.20228 7.5833L4.86572 9.54178C4.99879 9.6131 5.14742 9.65042 5.2984 9.65042C5.44937 9.65042 5.59801 9.6131 5.73107 9.54178L9.39452 7.5833C9.50616 7.52428 9.60409 7.44236 9.68192 7.34291C9.75975 7.24345 9.81572 7.1287 9.84617 7.00614C9.87663 6.88358 9.88089 6.75598 9.85866 6.63166C9.83644 6.50735 9.78824 6.38912 9.71721 6.2847ZM1.49714 7.06619C1.45929 7.04572 1.42616 7.01754 1.39989 6.98346C1.37362 6.94937 1.3548 6.91015 1.34466 6.86834C1.33334 6.82434 1.33152 6.77843 1.3393 6.73367C1.34709 6.68891 1.36432 6.64632 1.38983 6.60873L4.85352 1.51613C4.89507 1.45494 4.99343 1.48334 4.99343 1.55672V8.68538C4.99343 8.79784 4.86877 8.86894 4.76718 8.81461L1.49714 7.06619Z" fill="black"/>
</g>
<defs>
<clipPath id="clip0_201_12434">
<rect width="9.75902" height="9.75902" fill="white" transform="translate(0.418945 0.196167)"/>
</clipPath>
</defs>
</svg>
