<svg width="11" height="10" viewBox="0 0 11 10" fill="none" xmlns="http://www.w3.org/2000/svg">
<g clip-path="url(#clip0_201_12429)">
<path d="M4.97908 1.07059L1.31563 6.44396C1.26755 6.51431 1.23485 6.594 1.21967 6.67784C1.20448 6.76169 1.20714 6.84779 1.22749 6.93053C1.24783 7.01327 1.28539 7.09079 1.33773 7.15803C1.39006 7.22527 1.45599 7.28072 1.53121 7.32075L5.19389 9.27389C5.28164 9.32072 5.37957 9.34522 5.47904 9.34522C5.5785 9.34522 5.67643 9.32072 5.76418 9.27389L9.42763 7.31999C9.50284 7.27995 9.56877 7.22451 9.6211 7.15727C9.67344 7.09003 9.711 7.01251 9.73135 6.92977C9.75169 6.84702 9.75436 6.76092 9.73917 6.67708C9.72398 6.59324 9.69128 6.51355 9.6432 6.4432L5.98052 1.07059C5.9249 0.98906 5.85022 0.922342 5.76296 0.876236C5.67569 0.83013 5.57849 0.80603 5.4798 0.80603C5.3811 0.80603 5.2839 0.83013 5.19664 0.876236C5.10938 0.922342 5.03469 0.98906 4.97908 1.07059Z" stroke="black" stroke-width="0.609939" stroke-linecap="round" stroke-linejoin="round"/>
<path d="M5.47949 0.80603V9.34517" stroke="black" stroke-width="0.609939" stroke-linecap="round" stroke-linejoin="round"/>
</g>
<defs>
<clipPath id="clip0_201_12429">
<rect width="9.75902" height="9.75902" fill="white" transform="translate(0.600098 0.196167)"/>
</clipPath>
</defs>
</svg>
