<svg width="10" height="10" viewBox="0 0 10 10" fill="none" xmlns="http://www.w3.org/2000/svg">
<g clip-path="url(#clip0_201_12439)">
<path d="M8.35802 5.26622C8.15925 5.26644 7.96478 5.32414 7.79806 5.43236C7.63133 5.54058 7.49946 5.6947 7.41833 5.87616H6.94486L6.43023 4.33225C6.40177 4.24746 6.34696 4.17399 6.27378 4.12257C6.20061 4.07115 6.11291 4.04448 6.0235 4.04643C5.93409 4.04839 5.84765 4.07889 5.7768 4.13346C5.70595 4.18804 5.6544 4.26383 5.62968 4.34978L4.92063 6.83147L4.00572 1.46134C3.98948 1.36668 3.94124 1.28047 3.86906 1.21711C3.79689 1.15375 3.70515 1.11709 3.60919 1.11325C3.51322 1.10941 3.41885 1.13863 3.34184 1.19602C3.26484 1.25341 3.20986 1.3355 3.18612 1.42856L2.04553 5.87616H0.848145V6.71482H2.37299C2.46649 6.71481 2.5573 6.68356 2.631 6.62602C2.70469 6.56849 2.75705 6.48797 2.77974 6.39727L3.51072 3.47452L4.39913 8.68988C4.41466 8.7839 4.46174 8.86982 4.53263 8.9335C4.60351 8.99718 4.69398 9.03482 4.78911 9.04021C4.79712 9.04021 4.80474 9.04021 4.81275 9.04021C4.90397 9.04015 4.99268 9.01034 5.06543 8.9553C5.13818 8.90027 5.191 8.82301 5.21588 8.73524L6.0635 5.8834L6.24477 6.42891C6.27274 6.51225 6.32619 6.58469 6.39757 6.636C6.46896 6.6873 6.55466 6.71487 6.64256 6.71482H7.41833C7.49379 6.88398 7.6135 7.02964 7.76484 7.13644C7.91617 7.24324 8.09352 7.30722 8.27819 7.32164C8.46285 7.33606 8.64799 7.30037 8.81406 7.21836C8.98014 7.13634 9.12101 7.01103 9.22181 6.85563C9.32261 6.70024 9.37962 6.52052 9.3868 6.33543C9.39399 6.15035 9.3511 5.96675 9.26265 5.804C9.17421 5.64126 9.04348 5.5054 8.88427 5.41075C8.72505 5.3161 8.54324 5.26616 8.35802 5.26622Z" fill="black"/>
</g>
<defs>
<clipPath id="clip0_201_12439">
<rect width="9.75902" height="9.75902" fill="white" transform="translate(0.238281 0.196167)"/>
</clipPath>
</defs>
</svg>
