<svg width="11" height="10" viewBox="0 0 11 10" fill="none" xmlns="http://www.w3.org/2000/svg">
<g clip-path="url(#clip0_201_12447)">
<path d="M5.65084 6.90542V4.09646L6.87072 5.31634L7.30206 4.885L5.34587 2.92881L3.38969 4.885L3.82103 5.31634L5.0409 4.09646V6.90542H2.21994C2.15928 6.90542 2.1011 6.88132 2.0582 6.83843C2.01531 6.79553 1.99121 6.73735 1.99121 6.67669V1.03476C1.99121 0.974095 2.01531 0.915917 2.0582 0.873023C2.1011 0.830128 2.15928 0.80603 2.21994 0.80603H8.47181C8.53247 0.80603 8.59065 0.830128 8.63354 0.873023C8.67644 0.915917 8.70054 0.974095 8.70054 1.03476V6.67669C8.70054 6.73735 8.67644 6.79553 8.63354 6.83843C8.59065 6.88132 8.53247 6.90542 8.47181 6.90542H5.65084Z" fill="black"/>
<path d="M5.65095 6.9054H5.04102V9.34515H5.65095V6.9054Z" fill="black"/>
</g>
<defs>
<clipPath id="clip0_201_12447">
<rect width="9.75902" height="9.75902" fill="white" transform="translate(0.466309 0.196167)"/>
</clipPath>
</defs>
</svg>
