<svg width="11" height="10" viewBox="0 0 11 10" fill="none" xmlns="http://www.w3.org/2000/svg">
<g clip-path="url(#clip0_201_12453)">
<path d="M8.06182 6.60046H6.84194C6.75772 6.60046 6.68945 6.66873 6.68945 6.75295V7.97283C6.68945 8.05704 6.75772 8.12531 6.84194 8.12531H8.06182C8.14603 8.12531 8.2143 8.05704 8.2143 7.97283V6.75295C8.2143 6.66873 8.14603 6.60046 8.06182 6.60046Z" fill="black"/>
<path d="M6.53712 5.38062H5.62221C5.538 5.38062 5.46973 5.44888 5.46973 5.5331V6.44801C5.46973 6.53222 5.538 6.60049 5.62221 6.60049H6.53712C6.62133 6.60049 6.6896 6.53222 6.6896 6.44801V5.5331C6.6896 5.44888 6.62133 5.38062 6.53712 5.38062Z" fill="black"/>
<path d="M9.28175 8.12537H8.36684C8.28263 8.12537 8.21436 8.19364 8.21436 8.27785V9.19276C8.21436 9.27697 8.28263 9.34524 8.36684 9.34524H9.28175C9.36596 9.34524 9.43423 9.27697 9.43423 9.19276V8.27785C9.43423 8.19364 9.36596 8.12537 9.28175 8.12537Z" fill="black"/>
<path d="M9.28195 5.38062H8.67202C8.5878 5.38062 8.51953 5.44888 8.51953 5.5331V6.14304C8.51953 6.22725 8.5878 6.29552 8.67202 6.29552H9.28195C9.36617 6.29552 9.43444 6.22725 9.43444 6.14304V5.5331C9.43444 5.44888 9.36617 5.38062 9.28195 5.38062Z" fill="black"/>
<path d="M6.23215 8.4303H5.62221C5.538 8.4303 5.46973 8.49857 5.46973 8.58278V9.19272C5.46973 9.27694 5.538 9.34521 5.62221 9.34521H6.23215C6.31637 9.34521 6.38463 9.27694 6.38463 9.19272V8.58278C6.38463 8.49857 6.31637 8.4303 6.23215 8.4303Z" fill="black"/>
<path d="M8.06182 2.02588H6.84194C6.75772 2.02588 6.68945 2.09415 6.68945 2.17836V3.39824C6.68945 3.48246 6.75772 3.55073 6.84194 3.55073H8.06182C8.14603 3.55073 8.2143 3.48246 8.2143 3.39824V2.17836C8.2143 2.09415 8.14603 2.02588 8.06182 2.02588Z" fill="black"/>
<path d="M8.82411 1.11096H6.07938C5.91095 1.11096 5.77441 1.2475 5.77441 1.41593V4.16066C5.77441 4.32909 5.91095 4.46563 6.07938 4.46563H8.82411C8.99254 4.46563 9.12908 4.32909 9.12908 4.16066V1.41593C9.12908 1.2475 8.99254 1.11096 8.82411 1.11096Z" stroke="black" stroke-width="0.609939" stroke-linecap="round" stroke-linejoin="round"/>
<path d="M3.4876 2.02588H2.26772C2.1835 2.02588 2.11523 2.09415 2.11523 2.17836V3.39824C2.11523 3.48246 2.1835 3.55073 2.26772 3.55073H3.4876C3.57181 3.55073 3.64008 3.48246 3.64008 3.39824V2.17836C3.64008 2.09415 3.57181 2.02588 3.4876 2.02588Z" fill="black"/>
<path d="M4.24989 1.11096H1.50516C1.33673 1.11096 1.2002 1.2475 1.2002 1.41593V4.16066C1.2002 4.32909 1.33673 4.46563 1.50516 4.46563H4.24989C4.41832 4.46563 4.55486 4.32909 4.55486 4.16066V1.41593C4.55486 1.2475 4.41832 1.11096 4.24989 1.11096Z" stroke="black" stroke-width="0.609939" stroke-linecap="round" stroke-linejoin="round"/>
<path d="M3.4876 6.60046H2.26772C2.1835 6.60046 2.11523 6.66873 2.11523 6.75295V7.97283C2.11523 8.05704 2.1835 8.12531 2.26772 8.12531H3.4876C3.57181 8.12531 3.64008 8.05704 3.64008 7.97283V6.75295C3.64008 6.66873 3.57181 6.60046 3.4876 6.60046Z" fill="black"/>
<path d="M4.24989 5.68555H1.50516C1.33673 5.68555 1.2002 5.82209 1.2002 5.99052V8.73524C1.2002 8.90367 1.33673 9.04021 1.50516 9.04021H4.24989C4.41832 9.04021 4.55486 8.90367 4.55486 8.73524V5.99052C4.55486 5.82209 4.41832 5.68555 4.24989 5.68555Z" stroke="black" stroke-width="0.609939" stroke-linecap="round" stroke-linejoin="round"/>
</g>
<defs>
<clipPath id="clip0_201_12453">
<rect width="9.75902" height="9.75902" fill="white" transform="translate(0.285156 0.196167)"/>
</clipPath>
</defs>
</svg>
