<svg width="11" height="10" viewBox="0 0 11 10" fill="none" xmlns="http://www.w3.org/2000/svg">
<g clip-path="url(#clip0_201_12465)">
<path d="M8.62397 6.60046H7.09912V8.12531H8.62397V6.60046Z" fill="black"/>
<path d="M7.09927 5.38062H5.87939V6.60049H7.09927V5.38062Z" fill="black"/>
<path d="M9.8439 8.12537H8.62402V9.34524H9.8439V8.12537Z" fill="black"/>
<path d="M9.84411 5.38062H8.9292V6.29552H9.84411V5.38062Z" fill="black"/>
<path d="M6.7943 8.4303H5.87939V9.34521H6.7943V8.4303Z" fill="black"/>
<path d="M8.62397 2.02588H7.09912V3.55073H8.62397V2.02588Z" fill="black"/>
<path d="M9.844 4.77063H5.87939V0.80603H9.844V4.77063ZM6.71806 3.93197H9.00533V1.6447H6.71806V3.93197Z" fill="black"/>
<path d="M4.04926 2.02588H2.52441V3.55073H4.04926V2.02588Z" fill="black"/>
<path d="M5.26929 4.77063H1.30469V0.80603H5.26929V4.77063ZM2.14335 3.93197H4.43062V1.6447H2.14335V3.93197Z" fill="black"/>
<path d="M4.04926 6.60046H2.52441V8.12531H4.04926V6.60046Z" fill="black"/>
<path d="M5.26929 9.34522H1.30469V5.38062H5.26929V9.34522ZM2.14335 8.50655H4.43062V6.21928H2.14335V8.50655Z" fill="black"/>
</g>
<defs>
<clipPath id="clip0_201_12465">
<rect width="9.75902" height="9.75902" fill="white" transform="translate(0.694824 0.196167)"/>
</clipPath>
</defs>
</svg>
