<svg width="10" height="10" viewBox="0 0 10 10" fill="none" xmlns="http://www.w3.org/2000/svg">
<g clip-path="url(#clip0_201_12477)">
<path d="M7.88115 6.60059H6.66127C6.57706 6.60059 6.50879 6.66886 6.50879 6.75307V7.97295C6.50879 8.05716 6.57706 8.12543 6.66127 8.12543H7.88115C7.96537 8.12543 8.03364 8.05716 8.03364 7.97295V6.75307C8.03364 6.66886 7.96537 6.60059 7.88115 6.60059Z" fill="black"/>
<path d="M6.35597 5.38074H5.44106C5.35684 5.38074 5.28857 5.44901 5.28857 5.53322V6.44813C5.28857 6.53235 5.35684 6.60062 5.44106 6.60062H6.35597C6.44018 6.60062 6.50845 6.53235 6.50845 6.44813V5.53322C6.50845 5.44901 6.44018 5.38074 6.35597 5.38074Z" fill="black"/>
<path d="M9.10108 8.12537H8.18618C8.10196 8.12537 8.03369 8.19364 8.03369 8.27785V9.19276C8.03369 9.27697 8.10196 9.34524 8.18618 9.34524H9.10108C9.1853 9.34524 9.25357 9.27697 9.25357 9.19276V8.27785C9.25357 8.19364 9.1853 8.12537 9.10108 8.12537Z" fill="black"/>
<path d="M9.1008 5.38062H8.49086C8.40665 5.38062 8.33838 5.44888 8.33838 5.5331V6.14304C8.33838 6.22725 8.40665 6.29552 8.49086 6.29552H9.1008C9.18502 6.29552 9.25329 6.22725 9.25329 6.14304V5.5331C9.25329 5.44888 9.18502 5.38062 9.1008 5.38062Z" fill="black"/>
<path d="M6.051 8.43042H5.44106C5.35684 8.43042 5.28857 8.49869 5.28857 8.5829V9.19284C5.28857 9.27706 5.35684 9.34533 5.44106 9.34533H6.051C6.13521 9.34533 6.20348 9.27706 6.20348 9.19284V8.5829C6.20348 8.49869 6.13521 8.43042 6.051 8.43042Z" fill="black"/>
<path d="M8.64324 0.806152H5.89851C5.73675 0.806152 5.58161 0.870414 5.46722 0.984799C5.35284 1.09918 5.28857 1.25433 5.28857 1.41609V4.16082C5.28857 4.32258 5.35284 4.47772 5.46722 4.59211C5.58161 4.70649 5.73675 4.77075 5.89851 4.77075H8.64324C8.805 4.77075 8.96014 4.70649 9.07453 4.59211C9.18891 4.47772 9.25318 4.32258 9.25318 4.16082V1.41609C9.25318 1.25433 9.18891 1.09918 9.07453 0.984799C8.96014 0.870414 8.805 0.806152 8.64324 0.806152ZM8.0333 3.39839C8.0333 3.43883 8.01723 3.47762 7.98864 3.50622C7.96004 3.53481 7.92126 3.55088 7.88081 3.55088H6.66094C6.62049 3.55088 6.58171 3.53481 6.55311 3.50622C6.52452 3.47762 6.50845 3.43883 6.50845 3.39839V2.17851C6.50845 2.13807 6.52452 2.09929 6.55311 2.07069C6.58171 2.0421 6.62049 2.02603 6.66094 2.02603H7.88081C7.92126 2.02603 7.96004 2.0421 7.98864 2.07069C8.01723 2.09929 8.0333 2.13807 8.0333 2.17851V3.39839Z" fill="black"/>
<path d="M4.06853 0.806152H1.32381C1.16204 0.806152 1.0069 0.870414 0.892514 0.984799C0.778128 1.09918 0.713867 1.25433 0.713867 1.41609V4.16082C0.713867 4.32258 0.778128 4.47772 0.892514 4.59211C1.0069 4.70649 1.16204 4.77075 1.32381 4.77075H4.06853C4.2303 4.77075 4.38544 4.70649 4.49982 4.59211C4.61421 4.47772 4.67847 4.32258 4.67847 4.16082V1.41609C4.67847 1.25433 4.61421 1.09918 4.49982 0.984799C4.38544 0.870414 4.2303 0.806152 4.06853 0.806152ZM3.45859 3.39839C3.45859 3.43883 3.44253 3.47762 3.41393 3.50622C3.38533 3.53481 3.34655 3.55088 3.30611 3.55088H2.08623C2.04579 3.55088 2.007 3.53481 1.97841 3.50622C1.94981 3.47762 1.93374 3.43883 1.93374 3.39839V2.17851C1.93374 2.13807 1.94981 2.09929 1.97841 2.07069C2.007 2.0421 2.04579 2.02603 2.08623 2.02603H3.30611C3.34655 2.02603 3.38533 2.0421 3.41393 2.07069C3.44253 2.09929 3.45859 2.13807 3.45859 2.17851V3.39839Z" fill="black"/>
<path d="M4.06853 5.38074H1.32381C1.16204 5.38074 1.0069 5.445 0.892514 5.55938C0.778128 5.67377 0.713867 5.82891 0.713867 5.99068V8.7354C0.713867 8.89717 0.778128 9.05231 0.892514 9.16669C1.0069 9.28108 1.16204 9.34534 1.32381 9.34534H4.06853C4.2303 9.34534 4.38544 9.28108 4.49982 9.16669C4.61421 9.05231 4.67847 8.89717 4.67847 8.7354V5.99068C4.67847 5.82891 4.61421 5.67377 4.49982 5.55938C4.38544 5.445 4.2303 5.38074 4.06853 5.38074ZM3.45859 7.97298C3.45859 8.01342 3.44253 8.0522 3.41393 8.0808C3.38533 8.1094 3.34655 8.12546 3.30611 8.12546H2.08623C2.04579 8.12546 2.007 8.1094 1.97841 8.0808C1.94981 8.0522 1.93374 8.01342 1.93374 7.97298V6.7531C1.93374 6.71266 1.94981 6.67387 1.97841 6.64528C2.007 6.61668 2.04579 6.60061 2.08623 6.60061H3.30611C3.34655 6.60061 3.38533 6.61668 3.41393 6.64528C3.44253 6.67387 3.45859 6.71266 3.45859 6.7531V7.97298Z" fill="black"/>
</g>
<defs>
<clipPath id="clip0_201_12477">
<rect width="9.75902" height="9.75902" fill="white" transform="translate(0.104492 0.196167)"/>
</clipPath>
</defs>
</svg>
