<svg width="11" height="10" viewBox="0 0 11 10" fill="none" xmlns="http://www.w3.org/2000/svg">
<g clip-path="url(#clip0_201_12501)">
<path d="M5.84968 5.68582C6.18654 5.68582 6.45962 5.41274 6.45962 5.07588C6.45962 4.73902 6.18654 4.46594 5.84968 4.46594C5.51282 4.46594 5.23975 4.73902 5.23975 5.07588C5.23975 5.41274 5.51282 5.68582 5.84968 5.68582Z" fill="black"/>
<path d="M4.48238 3.86035C4.18485 4.19526 4.02051 4.62767 4.02051 5.07565C4.02051 5.52364 4.18485 5.95605 4.48238 6.29096" stroke="black" stroke-width="0.609939" stroke-linecap="round" stroke-linejoin="round"/>
<path d="M7.21777 6.29096C7.51531 5.95605 7.67965 5.52364 7.67965 5.07565C7.67965 4.62767 7.51531 4.19526 7.21777 3.86035" stroke="black" stroke-width="0.609939" stroke-linecap="round" stroke-linejoin="round"/>
<path d="M3.51077 2.88892C2.95636 3.48205 2.64795 4.26364 2.64795 5.07555C2.64795 5.88745 2.95636 6.66904 3.51077 7.26218" stroke="black" stroke-width="0.609939" stroke-linecap="round" stroke-linejoin="round"/>
<path d="M8.18896 7.26218C8.74338 6.66904 9.05179 5.88745 9.05179 5.07555C9.05179 4.26364 8.74338 3.48205 8.18896 2.88892" stroke="black" stroke-width="0.609939" stroke-linecap="round" stroke-linejoin="round"/>
<path d="M9.26172 8.12514C10.0105 7.2858 10.4244 6.20028 10.4244 5.07545C10.4244 3.95062 10.0105 2.8651 9.26172 2.02576" stroke="black" stroke-width="0.609939" stroke-linecap="round" stroke-linejoin="round"/>
<path d="M2.43806 2.02576C1.68923 2.8651 1.27539 3.95062 1.27539 5.07545C1.27539 6.20028 1.68923 7.2858 2.43806 8.12514" stroke="black" stroke-width="0.609939" stroke-linecap="round" stroke-linejoin="round"/>
</g>
<defs>
<clipPath id="clip0_201_12501">
<rect width="9.75902" height="9.75902" fill="white" transform="translate(0.970215 0.196167)"/>
</clipPath>
</defs>
</svg>
