<svg width="11" height="10" viewBox="0 0 11 10" fill="none" xmlns="http://www.w3.org/2000/svg">
<g clip-path="url(#clip0_201_12531)">
<path d="M7.54603 6.60025H3.08585C2.52356 6.60025 2.03904 6.45101 1.68433 6.16872C1.27948 5.84622 1.06543 5.36799 1.06543 4.78569C1.06543 4.27753 1.25756 3.83647 1.62086 3.51034C1.91134 3.24959 2.31028 3.06795 2.74543 2.99876C2.74657 2.99876 2.74695 2.99876 2.74715 2.9978C2.8699 2.25444 3.20136 1.62372 3.70608 1.17409C4.1971 0.738595 4.83117 0.498969 5.48749 0.500866C6.06369 0.500866 6.60215 0.679845 7.04493 1.01874C7.43202 1.31922 7.73074 1.7187 7.90951 2.17496C8.47009 2.26683 8.95251 2.50108 9.30456 2.85237C9.69988 3.24769 9.90954 3.77376 9.90954 4.37398C9.90954 5.00012 9.65928 5.57232 9.2043 5.98498C8.768 6.38182 8.17884 6.60025 7.54603 6.60025Z" fill="black"/>
<path d="M3.34428 6.97747L2.396 8.3999L2.9035 8.73823L3.85178 7.31581L3.34428 6.97747Z" fill="black"/>
<path d="M4.86927 6.97771L3.31104 9.31506L3.81854 9.6534L5.37677 7.31604L4.86927 6.97771Z" fill="black"/>
<path d="M6.39408 6.9776L5.4458 8.40002L5.9533 8.73836L6.90158 7.31593L6.39408 6.9776Z" fill="black"/>
<path d="M7.91858 6.97771L6.36035 9.31506L6.86785 9.6534L8.42608 7.31604L7.91858 6.97771Z" fill="black"/>
</g>
<defs>
<clipPath id="clip0_201_12531">
<rect width="9.75902" height="9.75902" fill="white" transform="translate(0.60791 0.196045)"/>
</clipPath>
</defs>
</svg>
