<svg width="10" height="10" viewBox="0 0 10 10" fill="none" xmlns="http://www.w3.org/2000/svg">
<g clip-path="url(#clip0_201_12537)">
<path d="M8.71423 2.85237C8.39458 2.53349 7.96762 2.31086 7.47205 2.20431C7.42559 2.19431 7.38211 2.1736 7.34508 2.14381C7.30805 2.11403 7.27849 2.076 7.25876 2.03277C7.07652 1.63473 6.8006 1.28674 6.45459 1.01855C6.01182 0.679847 5.47336 0.500868 4.89715 0.500868C4.24058 0.498784 3.6062 0.738422 3.11499 1.17409C2.65372 1.58503 2.33522 2.15266 2.19188 2.81006C2.17993 2.8657 2.15269 2.91691 2.11323 2.95793C2.07376 2.99894 2.02364 3.02813 1.96849 3.04222C1.49198 3.1623 1.28784 3.28124 1.03052 3.51034C0.665704 3.83514 0.475098 4.27753 0.475098 4.78569C0.475098 5.36799 0.689148 5.84622 1.09399 6.16872C1.44871 6.45101 1.93323 6.60026 2.49552 6.60026H6.9557C7.58851 6.60026 8.17767 6.38182 8.61397 5.98498C9.06837 5.57232 9.31921 5.00012 9.31921 4.37398C9.31921 3.77376 9.10954 3.24769 8.71423 2.85237Z" fill="black"/>
<path d="M2.15244 8.73506C2.09725 8.73503 2.0431 8.72001 1.99577 8.69163C1.94843 8.66324 1.90969 8.62254 1.88367 8.57386C1.85765 8.52519 1.84533 8.47036 1.84802 8.41524C1.85071 8.36011 1.8683 8.30674 1.89894 8.26083L2.50888 7.34592C2.5311 7.31261 2.55967 7.284 2.59296 7.26172C2.62624 7.23945 2.66359 7.22395 2.70287 7.21611C2.74214 7.20827 2.78257 7.20824 2.82186 7.21602C2.86115 7.22381 2.89851 7.23926 2.93183 7.26148C2.96515 7.28371 2.99376 7.31228 3.01603 7.34557C3.03831 7.37885 3.0538 7.4162 3.06165 7.45547C3.06949 7.49475 3.06951 7.53518 3.06173 7.57447C3.05394 7.61376 3.0385 7.65112 3.01627 7.68444L2.40633 8.59935C2.37846 8.64112 2.3407 8.67537 2.29641 8.69905C2.25212 8.72272 2.20266 8.73509 2.15244 8.73506Z" fill="black"/>
<path d="M3.06729 9.64997C3.01211 9.6499 2.95799 9.63486 2.91068 9.60646C2.86338 9.57806 2.82466 9.53736 2.79867 9.48869C2.77267 9.44002 2.76036 9.38521 2.76306 9.3301C2.76576 9.27499 2.78335 9.22164 2.81398 9.17574L4.03385 7.34592C4.05608 7.31261 4.08465 7.284 4.11794 7.26172C4.15122 7.23945 4.18857 7.22395 4.22784 7.21611C4.26712 7.20827 4.30755 7.20824 4.34684 7.21602C4.38612 7.22381 4.42349 7.23926 4.45681 7.26148C4.49012 7.28371 4.51874 7.31228 4.54101 7.34557C4.56328 7.37885 4.57878 7.4162 4.58662 7.45547C4.59446 7.49475 4.59449 7.53518 4.58671 7.57447C4.57892 7.61376 4.56347 7.65112 4.54125 7.68444L3.32137 9.51426C3.29348 9.55606 3.25569 9.59032 3.21136 9.614C3.16704 9.63768 3.11754 9.65003 3.06729 9.64997Z" fill="black"/>
<path d="M5.20225 8.73506C5.14705 8.73503 5.0929 8.72002 5.04557 8.69163C4.99824 8.66324 4.9595 8.62254 4.93348 8.57386C4.90746 8.52519 4.89513 8.47036 4.89782 8.41524C4.90051 8.36011 4.91811 8.30674 4.94874 8.26083L5.55868 7.34592C5.60357 7.27864 5.67335 7.23194 5.75267 7.21611C5.83199 7.20027 5.91435 7.2166 5.98163 7.26149C6.04892 7.30638 6.09562 7.37616 6.11145 7.45548C6.12729 7.53479 6.11096 7.61716 6.06607 7.68444L5.45613 8.59935C5.42826 8.64113 5.3905 8.67537 5.34621 8.69905C5.30192 8.72272 5.25247 8.73509 5.20225 8.73506Z" fill="black"/>
<path d="M6.1168 9.64997C6.0616 9.64993 6.00746 9.63492 5.96012 9.60654C5.91279 9.57815 5.87405 9.53745 5.84803 9.48877C5.82201 9.4401 5.80969 9.38527 5.81237 9.33014C5.81506 9.27502 5.83266 9.22165 5.86329 9.17574L7.08317 7.34592C7.12806 7.27864 7.19784 7.23194 7.27716 7.21611C7.35648 7.20027 7.43884 7.2166 7.50612 7.26149C7.57341 7.30638 7.62011 7.37616 7.63594 7.45548C7.65178 7.53479 7.63545 7.61716 7.59056 7.68444L6.37069 9.51426C6.34281 9.55603 6.30505 9.59028 6.26076 9.61395C6.21647 9.63763 6.16702 9.65 6.1168 9.64997Z" fill="black"/>
</g>
<defs>
<clipPath id="clip0_201_12537">
<rect width="9.75902" height="9.75902" fill="white" transform="translate(0.0175781 0.196045)"/>
</clipPath>
</defs>
</svg>
