<svg width="11" height="10" viewBox="0 0 11 10" fill="none" xmlns="http://www.w3.org/2000/svg">
<g clip-path="url(#clip0_201_12548)">
<path d="M2.36133 1.03451V9.1162C2.36133 9.17686 2.38543 9.23504 2.42832 9.27794C2.47122 9.32083 2.52939 9.34493 2.59006 9.34493H8.84193C8.90259 9.34493 8.96077 9.32083 9.00366 9.27794C9.04656 9.23504 9.07065 9.17686 9.07065 9.1162V1.03451C9.07065 0.973851 9.04656 0.915673 9.00366 0.872779C8.96077 0.829884 8.90259 0.805786 8.84193 0.805786H2.59006C2.52939 0.805786 2.47122 0.829884 2.42832 0.872779C2.38543 0.915673 2.36133 0.973851 2.36133 1.03451ZM6.02096 5.99027H3.88617V5.38033H6.02096V5.99027ZM7.54581 4.46542H3.88617V3.85548H7.54581V4.46542ZM7.54581 2.94057H3.88617V2.33063H7.54581V2.94057Z" fill="black"/>
</g>
<defs>
<clipPath id="clip0_201_12548">
<rect width="9.75902" height="9.75902" fill="white" transform="translate(0.836426 0.196045)"/>
</clipPath>
</defs>
</svg>
