<svg width="10" height="10" viewBox="0 0 10 10" fill="none" xmlns="http://www.w3.org/2000/svg">
<g clip-path="url(#clip0_201_12550)">
<path d="M7.25996 0.805786H2.99039C2.66696 0.806139 2.35689 0.934775 2.12819 1.16347C1.8995 1.39216 1.77086 1.70224 1.77051 2.02566V8.12505C1.77086 8.44847 1.8995 8.75855 2.12819 8.98724C2.35689 9.21594 2.66696 9.34457 2.99039 9.34493H7.25996C7.58338 9.34457 7.89346 9.21594 8.12215 8.98724C8.35084 8.75855 8.47948 8.44847 8.47983 8.12505V2.02566C8.47948 1.70224 8.35084 1.39216 8.12215 1.16347C7.89346 0.934775 7.58338 0.806139 7.25996 0.805786ZM5.12517 5.99027H3.60032C3.51944 5.99027 3.44187 5.95814 3.38468 5.90094C3.32749 5.84375 3.29535 5.76618 3.29535 5.6853C3.29535 5.60441 3.32749 5.52684 3.38468 5.46965C3.44187 5.41246 3.51944 5.38033 3.60032 5.38033H5.12517C5.20605 5.38033 5.28362 5.41246 5.34082 5.46965C5.39801 5.52684 5.43014 5.60441 5.43014 5.6853C5.43014 5.76618 5.39801 5.84375 5.34082 5.90094C5.28362 5.95814 5.20605 5.99027 5.12517 5.99027ZM6.65002 4.46542H3.60032C3.51944 4.46542 3.44187 4.43329 3.38468 4.3761C3.32749 4.3189 3.29535 4.24133 3.29535 4.16045C3.29535 4.07957 3.32749 4.002 3.38468 3.9448C3.44187 3.88761 3.51944 3.85548 3.60032 3.85548H6.65002C6.7309 3.85548 6.80847 3.88761 6.86566 3.9448C6.92286 4.002 6.95499 4.07957 6.95499 4.16045C6.95499 4.24133 6.92286 4.3189 6.86566 4.3761C6.80847 4.43329 6.7309 4.46542 6.65002 4.46542ZM6.65002 2.94057H3.60032C3.51944 2.94057 3.44187 2.90844 3.38468 2.85125C3.32749 2.79406 3.29535 2.71649 3.29535 2.6356C3.29535 2.55472 3.32749 2.47715 3.38468 2.41996C3.44187 2.36276 3.51944 2.33063 3.60032 2.33063H6.65002C6.7309 2.33063 6.80847 2.36276 6.86566 2.41996C6.92286 2.47715 6.95499 2.55472 6.95499 2.6356C6.95499 2.71649 6.92286 2.79406 6.86566 2.85125C6.80847 2.90844 6.7309 2.94057 6.65002 2.94057Z" fill="black"/>
</g>
<defs>
<clipPath id="clip0_201_12550">
<rect width="9.75902" height="9.75902" fill="white" transform="translate(0.245605 0.196045)"/>
</clipPath>
</defs>
</svg>
