<svg width="10" height="10" viewBox="0 0 10 10" fill="none" xmlns="http://www.w3.org/2000/svg">
<g clip-path="url(#clip0_201_12557)">
<path d="M8.6035 1.11076L7.99356 0.805786L7.38362 1.11076L6.77368 0.805786L6.16375 1.11076L5.55381 0.805786L4.94387 1.11076L4.33393 0.805786L3.72399 1.11076L2.80908 0.805786V5.6853V5.68625H7.07865V8.27754C7.07865 8.86708 7.70899 9.34493 8.29853 9.34493H8.52726C9.1168 9.34493 9.51841 8.86708 9.51841 8.27754V0.805786L8.6035 1.11076ZM5.25837 4.77039L5.24884 4.16045H8.289L8.29853 4.77039H5.25837ZM4.03849 3.24554L4.02896 2.6356H8.289L8.29853 3.24554H4.03849Z" fill="black"/>
<path d="M6.46902 8.27759V6.29529H0.369629V6.90523C0.369629 7.86874 0.479799 8.27035 0.645245 8.57551C0.926007 9.09338 1.43435 9.34498 2.19945 9.34498H7.07896C7.07896 9.34498 6.46902 8.96377 6.46902 8.27759Z" fill="black"/>
</g>
<defs>
<clipPath id="clip0_201_12557">
<rect width="9.75902" height="9.75902" fill="white" transform="translate(0.0644531 0.196045)"/>
</clipPath>
</defs>
</svg>
