<svg width="11" height="10" viewBox="0 0 11 10" fill="none" xmlns="http://www.w3.org/2000/svg">
<g clip-path="url(#clip0_201_12560)">
<path d="M9.69594 0.814365C9.62377 0.797201 9.54783 0.806465 9.48189 0.840478L9.01319 1.07454L8.54049 0.83819C8.49815 0.81702 8.45145 0.805998 8.40411 0.805998C8.35677 0.805998 8.31008 0.81702 8.26773 0.83819L7.78912 1.07473L7.3168 0.83819C7.27433 0.816865 7.22747 0.805759 7.17995 0.805759C7.13242 0.805759 7.08556 0.816865 7.04309 0.83819L6.57344 1.07397L6.10741 0.838762C6.06505 0.81729 6.01827 0.806005 5.97078 0.805807C5.9233 0.805608 5.87642 0.816501 5.83389 0.837619L5.35356 1.07492L4.88086 0.838C4.83844 0.816839 4.79169 0.805824 4.74429 0.805824C4.69689 0.805824 4.65014 0.816839 4.60772 0.838L4.13368 1.07454L3.66022 0.838C3.59918 0.807403 3.52964 0.798174 3.46274 0.81179C3.39583 0.825406 3.33543 0.86108 3.29121 0.913099C3.24354 0.969911 3.21784 1.04194 3.21877 1.11609V5.6853L3.21973 5.68625H6.87841C7.04017 5.68625 7.19531 5.75051 7.3097 5.8649C7.42409 5.97928 7.48835 6.13442 7.48835 6.29619V8.27754C7.48835 8.86708 8.11868 9.34493 8.70822 9.34493H8.93695C9.19982 9.34493 9.45192 9.24051 9.6378 9.05463C9.82368 8.86875 9.9281 8.61665 9.9281 8.35378V1.11076C9.92816 1.0425 9.90531 0.976196 9.86322 0.92246C9.82113 0.868724 9.76223 0.830661 9.69594 0.814365ZM8.40325 4.77039H5.97303C5.80835 4.77039 5.66615 4.64383 5.65891 4.47914C5.65706 4.43799 5.66356 4.39688 5.67803 4.35831C5.6925 4.31973 5.71464 4.28449 5.7431 4.25471C5.77157 4.22492 5.80577 4.20122 5.84365 4.18502C5.88153 4.16882 5.9223 4.16046 5.9635 4.16045H8.39372C8.55841 4.16045 8.7006 4.28701 8.70784 4.4517C8.7097 4.49285 8.70319 4.53396 8.68872 4.57253C8.67425 4.61111 8.65212 4.64635 8.62365 4.67613C8.59519 4.70592 8.56098 4.72962 8.5231 4.74582C8.48522 4.76202 8.44445 4.77038 8.40325 4.77039ZM8.40325 3.24554H4.75315C4.58847 3.24554 4.44628 3.11898 4.43903 2.9543C4.43718 2.91314 4.44368 2.87203 4.45815 2.83346C4.47262 2.79489 4.49476 2.75964 4.52322 2.72986C4.55169 2.70008 4.58589 2.67637 4.62377 2.66017C4.66165 2.64397 4.70242 2.63561 4.74362 2.6356H8.39372C8.55841 2.6356 8.7006 2.76217 8.70784 2.92685C8.7097 2.96801 8.70319 3.00911 8.68872 3.04769C8.67425 3.08626 8.65212 3.1215 8.62365 3.15129C8.59519 3.18107 8.56098 3.20478 8.5231 3.22098C8.48522 3.23718 8.44445 3.24553 8.40325 3.24554Z" fill="black"/>
<path d="M6.87868 8.27759V6.60026C6.87868 6.51937 6.84655 6.4418 6.78936 6.38461C6.73217 6.32742 6.6546 6.29529 6.57372 6.29529H1.38924C1.22746 6.29579 1.07247 6.36035 0.958164 6.47483C0.84386 6.58931 0.779548 6.7444 0.779297 6.90618C0.779297 7.86969 0.889467 8.27035 1.05491 8.57532C1.33568 9.09319 1.84402 9.34498 2.60911 9.34498H7.29192C7.30696 9.34499 7.32167 9.34056 7.3342 9.33223C7.34672 9.3239 7.3565 9.31205 7.36231 9.29817C7.36812 9.2843 7.36969 9.26901 7.36683 9.25425C7.36397 9.23948 7.35681 9.22588 7.34624 9.21518C7.16593 9.03429 6.87868 8.79223 6.87868 8.27759Z" fill="black"/>
</g>
<defs>
<clipPath id="clip0_201_12560">
<rect width="9.75902" height="9.75902" fill="white" transform="translate(0.474121 0.196045)"/>
</clipPath>
</defs>
</svg>
