<svg width="11" height="10" viewBox="0 0 11 10" fill="none" xmlns="http://www.w3.org/2000/svg">
<g clip-path="url(#clip0_201_12569)">
<path d="M7.95997 2.94187C6.83348 2.97332 5.91819 3.88938 5.88636 5.01586C5.87026 5.57932 6.07838 6.12615 6.46504 6.53632C6.47005 6.54162 6.47342 6.54825 6.47477 6.55542C6.47612 6.56258 6.47539 6.56998 6.47266 6.57674C6.46993 6.5835 6.46532 6.58934 6.45938 6.59356C6.45343 6.59778 6.4464 6.60021 6.43912 6.60055H4.72367C4.71626 6.60049 4.70902 6.59827 4.70285 6.59416C4.69669 6.59005 4.69185 6.58423 4.68894 6.57741C4.68602 6.5706 4.68516 6.56308 4.68646 6.55578C4.68775 6.54848 4.69114 6.54172 4.69622 6.53632C5.08344 6.1264 5.29212 5.57953 5.27642 5.01586C5.24536 3.88938 4.33007 2.97332 3.20359 2.94187C2.91899 2.93392 2.63566 2.98292 2.37026 3.08599C2.10486 3.18905 1.86273 3.34411 1.65809 3.54206C1.45345 3.74001 1.29042 3.97685 1.17859 4.23868C1.06676 4.50051 1.00837 4.78204 1.00685 5.06675C1.00209 6.25308 1.97894 7.21049 3.16527 7.21049H7.99751C9.18385 7.21049 10.1607 6.25308 10.1559 5.06675C10.1544 4.78211 10.0961 4.50064 9.98427 4.23886C9.87248 3.97708 9.70953 3.74028 9.50497 3.54234C9.30041 3.3444 9.05837 3.18933 8.79305 3.08621C8.52774 2.9831 8.2445 2.93403 7.95997 2.94187Z" fill="black"/>
</g>
<defs>
<clipPath id="clip0_201_12569">
<rect width="9.75902" height="9.75902" fill="white" transform="translate(0.702148 0.196045)"/>
</clipPath>
</defs>
</svg>
