<svg width="11" height="10" viewBox="0 0 11 10" fill="none" xmlns="http://www.w3.org/2000/svg">
<g clip-path="url(#clip0_201_12567)">
<path d="M7.61248 2.82666C7.18811 2.8264 6.77234 2.94627 6.41325 3.1724C6.05416 3.39854 5.76642 3.7217 5.5833 4.10452C5.40019 4.48735 5.32918 4.91418 5.37849 5.33567C5.4278 5.75716 5.59542 6.15608 5.86195 6.48629H4.48349C4.80334 6.08902 4.97867 5.59482 4.9807 5.08479C4.98274 4.57476 4.81136 4.07918 4.49469 3.67936C4.17802 3.27954 3.73486 2.99922 3.23792 2.8844C2.74097 2.76958 2.21976 2.82707 1.75979 3.04744C1.29982 3.2678 0.928406 3.63797 0.706486 4.09719C0.484566 4.55642 0.42532 5.07744 0.538466 5.57476C0.651612 6.07209 0.930432 6.51619 1.32918 6.83421C1.72793 7.15223 2.22293 7.32528 2.73297 7.32496H7.61248C8.20899 7.32496 8.78107 7.088 9.20286 6.6662C9.62466 6.2444 9.86162 5.67232 9.86162 5.07581C9.86162 4.4793 9.62466 3.90722 9.20286 3.48542C8.78107 3.06363 8.20899 2.82666 7.61248 2.82666ZM1.32248 5.07581C1.32248 4.79684 1.40521 4.52414 1.56019 4.29219C1.71518 4.06024 1.93546 3.87945 2.1932 3.77269C2.45093 3.66594 2.73453 3.63801 3.00814 3.69243C3.28174 3.74685 3.53307 3.88119 3.73033 4.07845C3.92759 4.27571 4.06192 4.52703 4.11635 4.80064C4.17077 5.07425 4.14284 5.35785 4.03608 5.61558C3.92933 5.87331 3.74854 6.0936 3.51659 6.24859C3.28463 6.40357 3.01193 6.48629 2.73297 6.48629C2.35902 6.48584 2.00052 6.33709 1.7361 6.07267C1.47169 5.80825 1.32294 5.44976 1.32248 5.07581ZM7.61248 6.48629C7.33351 6.48629 7.06081 6.40357 6.82885 6.24859C6.5969 6.0936 6.41611 5.87331 6.30936 5.61558C6.2026 5.35785 6.17467 5.07425 6.22909 4.80064C6.28352 4.52703 6.41785 4.27571 6.61511 4.07845C6.81237 3.88119 7.0637 3.74685 7.3373 3.69243C7.61091 3.63801 7.89451 3.66594 8.15224 3.77269C8.40998 3.87945 8.63026 4.06024 8.78525 4.29219C8.94024 4.52414 9.02296 4.79684 9.02296 5.07581C9.0225 5.44976 8.87375 5.80825 8.60934 6.07267C8.34492 6.33709 7.98642 6.48584 7.61248 6.48629Z" fill="black"/>
</g>
<defs>
<clipPath id="clip0_201_12567">
<rect width="9.75902" height="9.75902" fill="white" transform="translate(0.292969 0.196167)"/>
</clipPath>
</defs>
</svg>
