<svg width="11" height="10" viewBox="0 0 11 10" fill="none" xmlns="http://www.w3.org/2000/svg">
<g clip-path="url(#clip0_201_12582)">
<path d="M6.84867 2.97897C6.84867 2.97897 7.31299 2.75024 5.6288 2.75024C5.02562 2.75024 4.436 2.92911 3.93448 3.26421C3.43296 3.59931 3.04207 4.07561 2.81125 4.63287C2.58042 5.19013 2.52003 5.80332 2.6377 6.3949C2.75538 6.98649 3.04583 7.52989 3.47234 7.9564C3.89884 8.3829 4.44225 8.67336 5.03383 8.79103C5.62541 8.90871 6.23861 8.84831 6.79586 8.61749C7.35312 8.38666 7.82942 7.99578 8.16452 7.49426C8.49963 6.99274 8.67849 6.40311 8.67849 5.79994" stroke="black" stroke-width="0.609939" stroke-miterlimit="10" stroke-linecap="square"/>
<path d="M5.62891 1.30164L7.15375 2.82648L5.62891 4.35133" stroke="black" stroke-width="0.609939" stroke-miterlimit="10" stroke-linecap="square"/>
</g>
<defs>
<clipPath id="clip0_201_12582">
<rect width="9.75902" height="9.75902" fill="white" transform="translate(0.749512 0.196045)"/>
</clipPath>
</defs>
</svg>
