<svg width="11" height="10" viewBox="0 0 11 10" fill="none" xmlns="http://www.w3.org/2000/svg">
<g clip-path="url(#clip0_201_12579)">
<path d="M6.43901 2.97897C6.43901 2.97897 6.90332 2.75024 5.21913 2.75024C4.61596 2.75024 4.02633 2.92911 3.52481 3.26421C3.02329 3.59931 2.6324 4.07561 2.40158 4.63287C2.17075 5.19013 2.11036 5.80332 2.22803 6.3949C2.34571 6.98649 2.63616 7.52989 3.06267 7.9564C3.48918 8.3829 4.03258 8.67336 4.62416 8.79103C5.21575 8.90871 5.82894 8.84831 6.3862 8.61749C6.94345 8.38666 7.41975 7.99578 7.75486 7.49426C8.08996 6.99274 8.26882 6.40311 8.26882 5.79994" stroke="black" stroke-width="0.609939" stroke-miterlimit="10" stroke-linecap="round"/>
<path d="M5.21924 1.30164L6.74409 2.82648L5.21924 4.35133" stroke="black" stroke-width="0.609939" stroke-linecap="round" stroke-linejoin="round"/>
</g>
<defs>
<clipPath id="clip0_201_12579">
<rect width="9.75902" height="9.75902" fill="white" transform="translate(0.339844 0.196045)"/>
</clipPath>
</defs>
</svg>
