<svg width="10" height="10" viewBox="0 0 10 10" fill="none" xmlns="http://www.w3.org/2000/svg">
<g clip-path="url(#clip0_201_12571)">
<path d="M5.6011 3.87486C5.6011 3.87486 5.83325 3.7605 4.99116 3.7605C4.68957 3.7605 4.39476 3.84993 4.144 4.01748C3.89324 4.18503 3.69779 4.42318 3.58238 4.70181C3.46697 4.98044 3.43677 5.28704 3.49561 5.58283C3.55445 5.87862 3.69967 6.15032 3.91293 6.36357C4.12618 6.57683 4.39788 6.72206 4.69367 6.78089C4.98946 6.83973 5.29606 6.80953 5.57469 6.69412C5.85332 6.57871 6.09147 6.38326 6.25902 6.1325C6.42657 5.88174 6.516 5.58693 6.516 5.28535" stroke="black" stroke-width="0.533696" stroke-miterlimit="10" stroke-linecap="round"/>
<path d="M4.99121 3.03613L5.75363 3.79856L4.99121 4.56098" stroke="black" stroke-width="0.533696" stroke-linecap="round" stroke-linejoin="round"/>
<path d="M4.99118 1.41602C2.97075 1.41602 1.33154 3.05523 1.33154 5.07565C1.33154 7.09607 2.97075 8.73528 4.99118 8.73528C7.0116 8.73528 8.65081 7.09607 8.65081 5.07565C8.65081 3.05523 7.0116 1.41602 4.99118 1.41602Z" stroke="black" stroke-width="0.609939" stroke-miterlimit="10"/>
</g>
<defs>
<clipPath id="clip0_201_12571">
<rect width="9.75902" height="9.75902" fill="white" transform="translate(0.111816 0.196045)"/>
</clipPath>
</defs>
</svg>
