<svg width="10" height="10" viewBox="0 0 10 10" fill="none" xmlns="http://www.w3.org/2000/svg">
<g clip-path="url(#clip0_201_12585)">
<path d="M6.25785 2.97897C6.25785 2.97897 6.72217 2.75024 5.03798 2.75024C4.4348 2.75024 3.84518 2.92911 3.34366 3.26421C2.84214 3.59931 2.45125 4.07561 2.22043 4.63287C1.9896 5.19013 1.92921 5.80332 2.04688 6.3949C2.16455 6.98649 2.45501 7.52989 2.88152 7.9564C3.30802 8.3829 3.85143 8.67336 4.44301 8.79103C5.03459 8.90871 5.64778 8.84831 6.20504 8.61749C6.7623 8.38666 7.2386 7.99578 7.5737 7.49426C7.90881 6.99274 8.08767 6.40311 8.08767 5.79994" stroke="black" stroke-width="0.609939" stroke-miterlimit="10" stroke-linecap="round"/>
<path d="M5.03809 1.30164L6.56293 2.82648L5.03809 4.35133" stroke="black" stroke-width="0.609939" stroke-linecap="round" stroke-linejoin="round"/>
</g>
<defs>
<clipPath id="clip0_201_12585">
<rect width="9.75902" height="9.75902" fill="white" transform="translate(0.158691 0.196045)"/>
</clipPath>
</defs>
</svg>
