<svg width="10" height="10" viewBox="0 0 10 10" fill="none" xmlns="http://www.w3.org/2000/svg">
<g clip-path="url(#clip0_201_12599)">
<path d="M7.83042 3.01711L7.42786 2.54879C7.08654 2.19029 6.67584 1.90499 6.22075 1.71025C5.76567 1.51551 5.27572 1.4154 4.78073 1.41602C2.7603 1.41602 1.12109 3.05523 1.12109 5.07565C1.12109 7.09607 2.7603 8.73528 4.78073 8.73528C5.53762 8.73523 6.2759 8.50061 6.89397 8.06369C7.51203 7.62678 7.97949 7.00906 8.23203 6.29553" stroke="black" stroke-width="0.609939" stroke-miterlimit="10" stroke-linecap="square"/>
<path d="M9.04997 1.50086V4.38949C9.04997 4.40972 9.04193 4.42911 9.02763 4.44341C9.01334 4.4577 8.99394 4.46574 8.97372 4.46574H6.08509C6.07 4.46575 6.05525 4.46128 6.0427 4.45291C6.03015 4.44453 6.02037 4.43262 6.0146 4.41868C6.00882 4.40474 6.00731 4.3894 6.01026 4.3746C6.0132 4.35981 6.02048 4.34622 6.03115 4.33555L8.91978 1.44692C8.93044 1.43625 8.94404 1.42898 8.95883 1.42603C8.97363 1.42308 8.98897 1.42459 9.00291 1.43037C9.01685 1.43614 9.02876 1.44592 9.03714 1.45847C9.04551 1.47102 9.04998 1.48577 9.04997 1.50086Z" fill="black"/>
</g>
<defs>
<clipPath id="clip0_201_12599">
<rect width="9.75902" height="9.75902" fill="white" transform="translate(0.206055 0.196045)"/>
</clipPath>
</defs>
</svg>
