<svg width="11" height="10" viewBox="0 0 11 10" fill="none" xmlns="http://www.w3.org/2000/svg">
<g clip-path="url(#clip0_201_12588)">
<path d="M9.10735 5.07565C9.10735 3.05523 7.46814 1.41602 5.44772 1.41602C3.4273 1.41602 1.78809 3.05523 1.78809 5.07565C1.78809 7.09607 3.4273 8.73528 5.44772 8.73528C7.46814 8.73528 9.10735 7.09607 9.10735 5.07565Z" stroke="black" stroke-width="0.609939" stroke-miterlimit="10"/>
<path d="M7.07815 3.96733L6.86143 3.71516C6.56506 3.40485 6.17549 3.19978 5.75193 3.13111C5.32836 3.06244 4.89396 3.13392 4.51473 3.33469C4.1355 3.53546 3.83217 3.85454 3.65086 4.24344C3.46954 4.63235 3.42014 5.06982 3.51016 5.48936C3.60018 5.90891 3.8247 6.2876 4.14961 6.56789C4.47452 6.84817 4.88204 7.01473 5.31025 7.04225C5.73847 7.06976 6.16396 6.95673 6.52207 6.72034C6.88017 6.48394 7.15132 6.1371 7.2943 5.73253" stroke="black" stroke-width="0.609939" stroke-miterlimit="10" stroke-linecap="round"/>
<path d="M7.5695 3.28396C7.54818 3.28405 7.52709 3.28837 7.50745 3.29668C7.48782 3.30499 7.47004 3.31712 7.45513 3.33237L6.32027 4.46724C6.29723 4.49018 6.28154 4.51944 6.27516 4.55132C6.26878 4.5832 6.27202 4.61625 6.28445 4.64628C6.29689 4.67632 6.31796 4.70198 6.345 4.72003C6.37205 4.73807 6.40384 4.74767 6.43634 4.74762H7.57121C7.61479 4.74762 7.65658 4.73031 7.68739 4.6995C7.7182 4.66868 7.73551 4.62689 7.73551 4.58332V3.44807C7.73557 3.42637 7.73131 3.40488 7.72301 3.38484C7.7147 3.3648 7.7025 3.3466 7.68711 3.3313C7.67173 3.316 7.65346 3.30391 7.63337 3.29572C7.61328 3.28753 7.59176 3.2834 7.57007 3.28357L7.5695 3.28396Z" fill="black"/>
</g>
<defs>
<clipPath id="clip0_201_12588">
<rect width="9.75902" height="9.75902" fill="white" transform="translate(0.568359 0.196045)"/>
</clipPath>
</defs>
</svg>
