<svg width="11" height="10" viewBox="0 0 11 10" fill="none" xmlns="http://www.w3.org/2000/svg">
<g clip-path="url(#clip0_201_12594)">
<path d="M5.26685 1.11108C3.08079 1.11108 1.30225 2.88963 1.30225 5.07569C1.30225 7.26174 3.08079 9.04029 5.26685 9.04029C7.45291 9.04029 9.23145 7.26174 9.23145 5.07569C9.23145 2.88963 7.45291 1.11108 5.26685 1.11108ZM7.55412 4.58297C7.55412 4.62655 7.53681 4.66834 7.50599 4.69915C7.47518 4.72996 7.43339 4.74727 7.38982 4.74727H6.25495C6.22244 4.74732 6.19065 4.73772 6.16361 4.71968C6.13657 4.70164 6.11549 4.67597 6.10306 4.64594C6.09062 4.6159 6.08739 4.58285 6.09376 4.55097C6.10014 4.5191 6.11584 4.48983 6.13887 4.46689L6.56144 4.04432L6.4547 3.92023C6.26378 3.72202 6.02671 3.57422 5.7647 3.49002C5.50269 3.40583 5.22389 3.38788 4.95324 3.43777C4.6826 3.48766 4.42853 3.60384 4.21376 3.77592C3.99899 3.94801 3.8302 4.17063 3.7225 4.42389C3.6148 4.67714 3.57153 4.95314 3.59657 5.22721C3.62161 5.50128 3.71417 5.76487 3.86598 5.99442C4.01779 6.22397 4.22411 6.41232 4.46651 6.54264C4.70891 6.67296 4.97982 6.74118 5.25503 6.7412C5.59945 6.74088 5.93534 6.63399 6.2166 6.43521C6.49787 6.23643 6.71074 5.95548 6.826 5.63092C6.83936 5.59312 6.86003 5.55833 6.88683 5.52852C6.91363 5.49871 6.94604 5.47447 6.98221 5.45719C7.01838 5.43991 7.05759 5.42992 7.09762 5.42779C7.13765 5.42566 7.17771 5.43144 7.21551 5.44479C7.2533 5.45815 7.2881 5.47882 7.31791 5.50562C7.34772 5.53242 7.37196 5.56483 7.38924 5.601C7.40652 5.63717 7.41651 5.67639 7.41864 5.71642C7.42077 5.75644 7.41499 5.7965 7.40163 5.8343C7.26263 6.22768 7.01817 6.57528 6.69496 6.83911C6.37175 7.10294 5.98223 7.27284 5.56898 7.33025C5.15574 7.38766 4.73466 7.33037 4.35177 7.16463C3.96889 6.9989 3.63893 6.7311 3.39796 6.39051C3.15699 6.04992 3.01428 5.64964 2.98543 5.23342C2.95659 4.8172 3.04271 4.40106 3.23439 4.03048C3.42608 3.6599 3.71594 3.34915 4.0723 3.13218C4.42866 2.91521 4.83781 2.80038 5.25503 2.80023C5.56295 2.79906 5.86784 2.86094 6.15094 2.98206C6.43403 3.10319 6.68933 3.28099 6.9011 3.50452L6.91178 3.51634L6.99393 3.61164L7.27374 3.33183C7.28864 3.31659 7.30643 3.30446 7.32606 3.29615C7.34569 3.28783 7.36678 3.28351 7.3881 3.28342C7.4098 3.28324 7.43131 3.28737 7.4514 3.29556C7.47149 3.30375 7.48976 3.31585 7.50514 3.33115C7.52053 3.34644 7.53273 3.36464 7.54104 3.38468C7.54935 3.40472 7.5536 3.42622 7.55355 3.44791L7.55412 4.58297Z" fill="black"/>
</g>
<defs>
<clipPath id="clip0_201_12594">
<rect width="9.75902" height="9.75902" fill="white" transform="translate(0.387207 0.196045)"/>
</clipPath>
</defs>
</svg>
