<svg width="11" height="10" viewBox="0 0 11 10" fill="none" xmlns="http://www.w3.org/2000/svg">
<g clip-path="url(#clip0_201_12602)">
<path d="M8.2396 3.01711L7.83704 2.54879C7.49572 2.19029 7.08502 1.90499 6.62993 1.71025C6.17485 1.51551 5.6849 1.4154 5.18991 1.41602C3.16948 1.41602 1.53027 3.05523 1.53027 5.07565C1.53027 7.09607 3.16948 8.73528 5.18991 8.73528C5.9468 8.73523 6.68508 8.50061 7.30314 8.06369C7.92121 7.62678 8.38867 7.00906 8.64121 6.29553" stroke="black" stroke-width="0.609939" stroke-miterlimit="10" stroke-linecap="round"/>
<path d="M9.45911 2.05306V4.16078C9.45911 4.24166 9.42698 4.31923 9.36979 4.37643C9.31259 4.43362 9.23502 4.46575 9.15414 4.46575H7.04642C6.77462 4.46575 6.63852 4.13734 6.83066 3.9452L8.93857 1.83729C9.1307 1.64478 9.45911 1.78126 9.45911 2.05306Z" fill="black"/>
</g>
<defs>
<clipPath id="clip0_201_12602">
<rect width="9.75902" height="9.75902" fill="white" transform="translate(0.615234 0.196045)"/>
</clipPath>
</defs>
</svg>
