<svg width="11" height="11" viewBox="0 0 11 11" fill="none" xmlns="http://www.w3.org/2000/svg">
<path d="M5.25171 1.52051C3.06565 1.52051 1.28711 3.29905 1.28711 5.48511C1.28711 7.67117 3.06565 9.44971 5.25171 9.44971C7.43777 9.44971 9.21631 7.67117 9.21631 5.48511C9.21631 3.29905 7.43777 1.52051 5.25171 1.52051ZM6.77656 5.79008H3.72686C3.64598 5.79008 3.56841 5.75795 3.51122 5.70076C3.45403 5.64356 3.4219 5.56599 3.4219 5.48511C3.4219 5.40423 3.45403 5.32666 3.51122 5.26946C3.56841 5.21227 3.64598 5.18014 3.72686 5.18014H6.77656C6.85744 5.18014 6.93501 5.21227 6.9922 5.26946C7.0494 5.32666 7.08153 5.40423 7.08153 5.48511C7.08153 5.56599 7.0494 5.64356 6.9922 5.70076C6.93501 5.75795 6.85744 5.79008 6.77656 5.79008Z" fill="black"/>
</svg>
