<svg width="11" height="11" viewBox="0 0 11 11" fill="none" xmlns="http://www.w3.org/2000/svg">
<g clip-path="url(#clip0_201_12690)">
<path d="M7.7858 4.87411C7.98617 4.87466 8.18466 4.83545 8.36978 4.75876C8.5549 4.68207 8.72297 4.56942 8.86425 4.42733L10.3319 2.96062C10.448 2.84454 10.4587 2.65565 10.3481 2.53385C10.3204 2.50325 10.2867 2.47861 10.2491 2.46142C10.2115 2.44423 10.1709 2.43485 10.1296 2.43385C10.0883 2.43285 10.0472 2.44025 10.0089 2.45561C9.97051 2.47096 9.93568 2.49395 9.90648 2.52317L8.59835 3.83035C8.55443 3.87422 8.49489 3.89886 8.43281 3.89886C8.37073 3.89886 8.31119 3.87422 8.26727 3.83035C8.17597 3.73924 8.18092 3.58523 8.27203 3.49412L9.57444 2.19171C9.60364 2.16251 9.6266 2.12769 9.64194 2.08936C9.65727 2.05103 9.66467 2.00998 9.66367 1.9687C9.66267 1.92743 9.6533 1.88678 9.63613 1.84924C9.61896 1.81169 9.59434 1.77802 9.56377 1.75027C9.50858 1.70021 9.43662 1.67266 9.36211 1.67307C9.27766 1.67313 9.19669 1.70673 9.137 1.76647L7.83574 3.06755C7.79181 3.11141 7.73227 3.13605 7.6702 3.13605C7.60812 3.13605 7.54858 3.11141 7.50465 3.06755C7.41354 2.97644 7.41831 2.82243 7.50942 2.73132L8.81183 1.42929C8.84102 1.40009 8.86398 1.36527 8.87932 1.32694C8.89466 1.2886 8.90205 1.24756 8.90105 1.20628C8.90006 1.165 8.89069 1.12436 8.87351 1.08681C8.85634 1.04927 8.83173 1.0156 8.80116 0.987844C8.74596 0.937784 8.67401 0.910239 8.59949 0.910649C8.51505 0.910749 8.4341 0.944337 8.37439 1.00405L6.90768 2.47076C6.76557 2.61207 6.65291 2.78016 6.57622 2.96532C6.49953 3.15047 6.46033 3.34899 6.4609 3.5494V3.70627C6.46093 3.74637 6.45305 3.78609 6.43771 3.82315C6.42237 3.8602 6.39987 3.89387 6.3715 3.92222L5.69275 4.60116C5.68567 4.60825 5.67727 4.61387 5.66801 4.61771C5.65875 4.62155 5.64883 4.62352 5.63881 4.62352C5.62879 4.62352 5.61887 4.62155 5.60962 4.61771C5.60036 4.61387 5.59195 4.60825 5.58487 4.60116L2.28205 1.29815C2.22505 1.24108 2.14776 1.20892 2.0671 1.20871C1.98643 1.20849 1.90897 1.24024 1.85167 1.29701C1.5629 1.58311 1.4087 1.987 1.4087 2.46485C1.40679 3.25396 1.82155 4.16124 2.49115 4.82989L4.11988 6.45861C4.35137 6.68964 4.66504 6.8194 4.99209 6.81943C5.09635 6.81947 5.20019 6.80615 5.30106 6.77979C5.32639 6.77315 5.35245 6.76976 5.37864 6.76968C5.4552 6.7697 5.52893 6.79863 5.58506 6.85069L5.80216 7.05121C5.85816 7.10841 5.88961 7.18521 5.88984 7.26526V7.37085C5.88928 7.6109 5.98362 7.84145 6.15231 8.01224L7.86871 9.75762L7.87043 9.75953C8.06093 9.95001 8.3193 10.057 8.5887 10.057C8.85809 10.057 9.11645 9.94994 9.30693 9.75943C9.49741 9.56893 9.60441 9.31056 9.60439 9.04116C9.60437 8.77177 9.49734 8.51341 9.30683 8.32293L6.73404 5.75013C6.72695 5.74305 6.72132 5.73464 6.71749 5.72539C6.71365 5.71613 6.71167 5.70621 6.71167 5.69619C6.71167 5.68617 6.71365 5.67625 6.71749 5.66699C6.72132 5.65774 6.72695 5.64933 6.73404 5.64225L7.41278 4.9635C7.44111 4.93516 7.47475 4.91267 7.51177 4.89733C7.54879 4.88199 7.58847 4.8741 7.62855 4.87411H7.7858Z" fill="black"/>
<path d="M4.99185 7.42933C4.50358 7.42832 4.0354 7.23484 3.68887 6.89086L3.42469 6.62668C3.3961 6.59817 3.35737 6.58215 3.31699 6.58215C3.27662 6.58215 3.23789 6.59817 3.2093 6.62668L1.58915 8.23845C1.30038 8.52722 1.19727 8.95227 1.34022 9.36855C1.34822 9.392 1.35771 9.41492 1.36862 9.43717C1.56094 9.83096 1.93415 10.0597 2.34243 10.0597C2.48283 10.06 2.62191 10.0325 2.75161 9.97872C2.8813 9.92493 2.99904 9.84594 3.09799 9.74633L5.2587 7.57533C5.26779 7.56605 5.27475 7.5549 5.2791 7.54265C5.28344 7.53041 5.28507 7.51736 5.28386 7.50442V7.49947C5.28301 7.48758 5.27976 7.47599 5.27431 7.4654C5.26887 7.4548 5.26133 7.44542 5.25216 7.43781C5.24298 7.4302 5.23237 7.42454 5.22094 7.42114C5.20952 7.41775 5.19753 7.41671 5.18569 7.41808C5.12132 7.42522 5.05661 7.42897 4.99185 7.42933Z" fill="black"/>
</g>
<defs>
<clipPath id="clip0_201_12690">
<rect width="9.75902" height="9.75902" fill="white" transform="translate(0.970215 0.605591)"/>
</clipPath>
</defs>
</svg>
