<svg width="10" height="11" viewBox="0 0 10 11" fill="none" xmlns="http://www.w3.org/2000/svg">
<g clip-path="url(#clip0_201_12681)">
<path d="M1.24729 1.5155L8.26978 8.538C8.40303 8.67125 8.47789 8.85198 8.47789 9.04043C8.47789 9.22888 8.40303 9.40961 8.26978 9.54287V9.54287C8.1365 9.67607 7.95578 9.7509 7.76735 9.7509C7.57891 9.7509 7.39819 9.67607 7.26491 9.54287L5.54946 7.79787C5.43719 7.68388 5.37422 7.53034 5.3741 7.37034V7.26494C5.37411 7.18415 5.35808 7.10417 5.32693 7.02963C5.29578 6.9551 5.25014 6.88749 5.19264 6.83074L4.97116 6.62622C4.89597 6.55684 4.80454 6.50749 4.70528 6.48271C4.60602 6.45793 4.50213 6.45851 4.40315 6.48441V6.48441C4.24708 6.52514 4.08307 6.52435 3.92739 6.48213C3.77171 6.4399 3.62979 6.35769 3.51569 6.24367L1.88735 4.61514C0.921356 3.64914 0.565876 2.19044 1.24729 1.5155Z" stroke="black" stroke-width="0.609939" stroke-linejoin="round"/>
<path d="M7.77541 1.21558L6.30298 2.68801C6.18968 2.80129 6.0998 2.93578 6.03848 3.0838C5.97715 3.23182 5.94559 3.39047 5.94559 3.55069V3.83393C5.9456 3.874 5.93771 3.91369 5.92237 3.95071C5.90703 3.98773 5.88455 4.02137 5.8562 4.04969L5.64062 4.26527" stroke="black" stroke-width="0.609939" stroke-linecap="round" stroke-linejoin="round"/>
<path d="M6.25098 4.87526L6.46655 4.65969C6.49488 4.63134 6.52852 4.60886 6.56554 4.59352C6.60256 4.57818 6.64224 4.57029 6.68232 4.57029H6.96556C7.12578 4.5703 7.28443 4.53873 7.43245 4.47741C7.58047 4.41609 7.71496 4.32621 7.82824 4.21291L9.30067 2.74048" stroke="black" stroke-width="0.609939" stroke-linecap="round" stroke-linejoin="round"/>
<path d="M8.53803 1.97803L7.01318 3.50287" stroke="black" stroke-width="0.609939" stroke-linecap="round" stroke-linejoin="round"/>
<path d="M3.96325 7.61997L2.06252 9.53136C1.91955 9.6743 1.72566 9.75459 1.52349 9.75459C1.32132 9.75459 1.12743 9.6743 0.984458 9.53136V9.53136C0.841525 9.38839 0.76123 9.1945 0.76123 8.99233C0.76123 8.79016 0.841525 8.59627 0.984458 8.4533L2.59088 6.85754" stroke="black" stroke-width="0.609939" stroke-linecap="round" stroke-linejoin="round"/>
</g>
<defs>
<clipPath id="clip0_201_12681">
<rect width="9.75902" height="9.75902" fill="white" transform="translate(0.151367 0.605591)"/>
</clipPath>
</defs>
</svg>
