<svg width="11" height="11" viewBox="0 0 11 11" fill="none" xmlns="http://www.w3.org/2000/svg">
<g clip-path="url(#clip0_201_12687)">
<path d="M7.09325 4.8741H7.37669C7.57706 4.87465 7.77555 4.83545 7.96067 4.75876C8.14579 4.68207 8.31385 4.56941 8.45513 4.42732L10.0152 2.85482L9.59172 2.42787L7.99863 4.02095L7.66755 3.68987L9.26063 2.09659L8.82224 1.67135L7.23506 3.25834L6.90494 2.92725L8.49802 1.33398L8.07106 0.910645L6.49856 2.47075C6.35646 2.61206 6.2438 2.78016 6.16711 2.96531C6.09042 3.15046 6.05122 3.34899 6.05178 3.54939V3.83263L5.2297 4.65472L1.4761 0.910645C0.632096 1.9565 1.13053 3.87857 2.0807 4.82893L3.71038 6.45861C4.21644 6.96467 4.31689 7.00984 4.89099 6.77883C5.0147 6.72908 5.05968 6.73461 5.175 6.84973L5.42278 7.08094C5.47863 7.13812 5.47997 7.15489 5.47997 7.2643V7.3699C5.47997 7.77169 5.7369 8.00271 5.90616 8.17502L7.88046 10.0597L9.25282 8.68736L6.27117 5.69619L7.09325 4.8741Z" fill="black"/>
<path d="M4.89505 7.36429C4.32666 7.48075 3.97804 7.58806 3.31149 6.92151C3.30082 6.91084 3.28976 6.90054 3.27909 6.88987L2.90741 6.51819L0.866211 8.5348L2.39106 10.0596L5.13578 7.31492L4.89505 7.36429Z" fill="black"/>
</g>
<defs>
<clipPath id="clip0_201_12687">
<rect width="9.75902" height="9.75902" fill="white" transform="translate(0.561035 0.605591)"/>
</clipPath>
</defs>
</svg>
