<svg width="11" height="11" viewBox="0 0 11 11" fill="none" xmlns="http://www.w3.org/2000/svg">
<g clip-path="url(#clip0_201_12734)">
<path d="M5.58179 7.00974C5.4823 7.00974 5.38356 7.00516 5.28616 6.99659C4.7836 6.95167 4.29762 6.79405 3.86437 6.53543C3.43112 6.27681 3.06174 5.92386 2.7837 5.50281L1.0835 8.53458H3.27546L4.38098 10.3644L5.95405 6.98896C5.83044 7.00272 5.70617 7.00966 5.58179 7.00974Z" fill="black"/>
<path d="M8.38348 5.4989C7.98083 6.10871 7.39097 6.5712 6.70272 6.81675L5.91895 8.52496L6.78239 10.3643L7.8879 8.53449H10.0799L8.38348 5.4989Z" fill="black"/>
<path d="M5.5819 4.56993C6.08719 4.56993 6.49681 4.16031 6.49681 3.65502C6.49681 3.14973 6.08719 2.74011 5.5819 2.74011C5.07661 2.74011 4.66699 3.14973 4.66699 3.65502C4.66699 4.16031 5.07661 4.56993 5.5819 4.56993Z" fill="black"/>
<path d="M5.58164 0.910278C4.06823 0.910278 2.83691 2.14159 2.83691 3.655C2.83691 5.16841 4.06823 6.39973 5.58164 6.39973C7.09505 6.39973 8.32636 5.16841 8.32636 3.655C8.32636 2.14159 7.09505 0.910278 5.58164 0.910278ZM5.58164 5.17985C5.28005 5.17985 4.98524 5.09042 4.73448 4.92287C4.48372 4.75531 4.28828 4.51717 4.17286 4.23854C4.05745 3.95991 4.02725 3.65331 4.08609 3.35752C4.14493 3.06173 4.29016 2.79003 4.50341 2.57677C4.71666 2.36352 4.98836 2.21829 5.28416 2.15946C5.57995 2.10062 5.88654 2.13082 6.16517 2.24623C6.4438 2.36164 6.68195 2.55708 6.8495 2.80784C7.01706 3.0586 7.10649 3.35342 7.10649 3.655C7.10603 4.05928 6.94523 4.44687 6.65937 4.73273C6.3735 5.0186 5.98591 5.1794 5.58164 5.17985Z" fill="black"/>
</g>
<defs>
<clipPath id="clip0_201_12734">
<rect width="9.75902" height="9.75902" fill="white" transform="translate(0.702148 0.605469)"/>
</clipPath>
</defs>
</svg>
