<svg width="11" height="11" viewBox="0 0 11 11" fill="none" xmlns="http://www.w3.org/2000/svg">
<g clip-path="url(#clip0_201_12729)">
<path d="M5.17267 6.09509C6.52011 6.09509 7.61242 5.00277 7.61242 3.65533C7.61242 2.30789 6.52011 1.21558 5.17267 1.21558C3.82523 1.21558 2.73291 2.30789 2.73291 3.65533C2.73291 5.00277 3.82523 6.09509 5.17267 6.09509Z" stroke="black" stroke-width="0.609939" stroke-linecap="round" stroke-linejoin="round"/>
<path d="M3.03115 4.94788L1.20801 8.22973L2.86361 8.22172C2.91666 8.22145 2.96885 8.23503 3.01505 8.2611C3.06125 8.28717 3.09984 8.32484 3.12703 8.3704L3.95273 9.75457L5.63635 6.05072" stroke="black" stroke-width="0.609939" stroke-linecap="round" stroke-linejoin="round"/>
<path d="M7.27932 4.875L9.13697 8.22966L7.48136 8.22166C7.42832 8.22139 7.37612 8.23496 7.32992 8.26104C7.28373 8.28711 7.24513 8.32478 7.21795 8.37033L6.39224 9.75451L5.17236 7.07078" stroke="black" stroke-width="0.609939" stroke-linecap="round" stroke-linejoin="round"/>
<path d="M5.173 4.87518C5.84672 4.87518 6.39288 4.32902 6.39288 3.6553C6.39288 2.98158 5.84672 2.43542 5.173 2.43542C4.49928 2.43542 3.95312 2.98158 3.95312 3.6553C3.95312 4.32902 4.49928 4.87518 5.173 4.87518Z" stroke="black" stroke-width="0.609939" stroke-linecap="round" stroke-linejoin="round"/>
</g>
<defs>
<clipPath id="clip0_201_12729">
<rect width="9.75902" height="9.75902" fill="white" transform="translate(0.292969 0.605591)"/>
</clipPath>
</defs>
</svg>
