<svg width="11" height="11" viewBox="0 0 11 11" fill="none" xmlns="http://www.w3.org/2000/svg">
<path d="M9.32325 1.63102C9.32001 1.61538 9.31237 1.60099 9.30122 1.58954C9.29008 1.5781 9.2759 1.57007 9.26035 1.56641C8.22384 1.3129 5.82944 2.21618 4.53085 3.51383C4.29941 3.74337 4.08837 3.9926 3.90013 4.25872C3.49986 4.2225 3.09959 4.253 2.75878 4.40167C1.79641 4.82482 1.51641 5.92995 1.43827 6.40437C1.43403 6.43036 1.43584 6.45699 1.44355 6.48217C1.45126 6.50735 1.46467 6.53042 1.48273 6.54959C1.50079 6.56876 1.52303 6.58351 1.54771 6.5927C1.57239 6.6019 1.59886 6.60528 1.62506 6.6026L3.1703 6.43296C3.17137 6.54951 3.17837 6.66593 3.19127 6.78177C3.19933 6.86183 3.23506 6.93658 3.29229 6.99315L3.8906 7.59146C3.94722 7.64873 4.02204 7.68446 4.10217 7.69248C4.21732 7.70532 4.33304 7.71232 4.44889 7.71345L4.27944 9.25736C4.27679 9.28352 4.2802 9.30995 4.28939 9.33459C4.29859 9.35923 4.31333 9.38143 4.33247 9.39946C4.35161 9.4175 4.37465 9.43089 4.39979 9.43861C4.42493 9.44632 4.45151 9.44816 4.47748 9.44396C4.95209 9.36772 6.05951 9.08772 6.48017 8.12554C6.62885 7.78436 6.65934 7.38618 6.62503 6.98781C6.89193 6.79974 7.14188 6.5887 7.37202 6.3571C8.67538 5.06098 9.57294 2.71919 9.32325 1.63102ZM6.21352 4.67805C6.09967 4.56423 6.02214 4.41921 5.99072 4.26133C5.9593 4.10345 5.97541 3.93979 6.037 3.79106C6.0986 3.64233 6.20292 3.51521 6.33676 3.42577C6.47061 3.33633 6.62798 3.28859 6.78895 3.28859C6.94993 3.28859 7.1073 3.33633 7.24115 3.42577C7.37499 3.51521 7.47931 3.64233 7.54091 3.79106C7.6025 3.93979 7.61861 4.10345 7.58719 4.26133C7.55577 4.41921 7.47824 4.56423 7.36439 4.67805C7.28888 4.75372 7.19919 4.81376 7.10045 4.85472C7.00171 4.89568 6.89586 4.91676 6.78895 4.91676C6.68205 4.91676 6.5762 4.89568 6.47746 4.85472C6.37872 4.81376 6.28903 4.75372 6.21352 4.67805V4.67805Z" stroke="black" stroke-width="0.609939" stroke-linecap="round" stroke-linejoin="round"/>
<path d="M2.61065 7.3147C2.42064 7.33802 2.24386 7.42416 2.1084 7.55944C1.77255 7.89643 1.74072 9.14451 1.74072 9.14451C1.74072 9.14451 2.98957 9.11268 3.32561 8.77645C3.46143 8.64121 3.54772 8.46414 3.57054 8.27383" stroke="black" stroke-width="0.609939" stroke-linecap="round" stroke-linejoin="round"/>
</svg>
