<svg width="11" height="11" viewBox="0 0 11 11" fill="none" xmlns="http://www.w3.org/2000/svg">
<g clip-path="url(#clip0_201_12764)">
<path d="M8.75561 2.883C8.72206 2.82958 8.67277 2.78788 8.61453 2.76364C8.5563 2.73941 8.49198 2.73383 8.43043 2.74767C8.07515 2.82753 7.72405 2.91921 7.38725 3.01871C6.71898 3.21675 6.06578 3.47464 5.33156 3.8305C4.97666 4.003 4.83599 4.08496 4.41666 4.32855L4.33088 4.37944C3.70284 4.7416 3.24271 5.14187 2.9244 5.60485C2.57502 6.11186 2.39795 6.70484 2.39795 7.36509C2.39795 8.14162 2.69739 8.83467 3.24119 9.31633C3.78937 9.80256 4.55294 10.0595 5.44764 10.0595C6.33892 10.0595 7.10382 9.78636 7.65867 9.26982C8.19904 8.76757 8.49734 8.06157 8.49734 7.28199C8.49734 6.80548 8.37935 6.38614 8.26537 5.98168C8.0254 5.12986 7.81821 4.39412 8.73636 3.23447C8.7755 3.18506 8.79836 3.12474 8.80181 3.06179C8.80526 2.99885 8.78912 2.93639 8.75561 2.883Z" fill="black"/>
<path d="M4.74253 2.88417C3.77921 2.36057 2.50215 2.14347 2.44821 2.13452C2.37803 2.123 2.30603 2.13638 2.24467 2.17234C2.18331 2.20829 2.13644 2.26456 2.11217 2.33141C2.09334 2.38636 2.09012 2.44546 2.10288 2.50212C2.11563 2.55879 2.14386 2.61081 2.18441 2.65239C2.7913 3.29626 2.81074 3.96357 2.7305 4.6467C2.72841 4.6643 2.73188 4.6821 2.74043 4.69762C2.74897 4.71314 2.76216 4.7256 2.77815 4.73324C2.79407 4.74082 2.81195 4.74324 2.82931 4.74017C2.84667 4.73709 2.86264 4.72867 2.87498 4.71608C3.18738 4.40139 3.56821 4.11529 4.02624 3.85092L4.11163 3.80136C4.53287 3.55605 4.68974 3.46456 5.06656 3.28177L5.11784 3.25699C5.12971 3.2513 5.13991 3.24263 5.14743 3.23183C5.15496 3.22103 5.15956 3.20846 5.16079 3.19536C5.16202 3.18225 5.15983 3.16904 5.15444 3.15703C5.14905 3.14502 5.14064 3.13461 5.13004 3.12681C5.00645 3.03734 4.87699 2.95627 4.74253 2.88417Z" fill="black"/>
<path d="M5.03353 2.34857C5.0991 2.38421 5.16867 2.42481 5.24129 2.46846C5.44268 2.59192 5.63146 2.73486 5.80491 2.89523C5.81567 2.90525 5.82909 2.91195 5.84356 2.91452C5.85804 2.91709 5.87294 2.91542 5.88649 2.90971C6.31993 2.72661 6.76312 2.56753 7.21406 2.4332C7.30301 2.40689 7.39247 2.38148 7.48243 2.35695C7.49325 2.35398 7.50328 2.34865 7.51181 2.34136C7.52033 2.33406 7.52714 2.32497 7.53174 2.31474C7.53635 2.30451 7.53864 2.29338 7.53845 2.28216C7.53827 2.27095 7.5356 2.25991 7.53066 2.24983C7.37303 1.92904 7.25104 1.69898 7.24189 1.68202C7.2159 1.63321 7.17713 1.59238 7.12972 1.56391C7.08231 1.53544 7.02805 1.52039 6.97275 1.52039C6.93635 1.52039 6.33842 1.52725 5.50757 1.92638C5.33504 2.00944 5.16713 2.10177 5.00456 2.20295C4.99312 2.20998 4.98374 2.21992 4.97737 2.23175C4.971 2.24358 4.96787 2.25688 4.9683 2.2703C4.96873 2.28373 4.97269 2.2968 4.97979 2.3082C4.9869 2.3196 4.99689 2.32893 5.00875 2.33523L5.03353 2.34857Z" fill="black"/>
<path d="M4.55847 1.7642C4.69761 1.67328 4.83942 1.58846 4.98257 1.5105C4.98818 1.50745 4.99294 1.50303 4.9964 1.49765C4.99986 1.49227 5.00192 1.48611 5.00237 1.47973C5.00283 1.47335 5.00167 1.46696 4.99901 1.46115C4.99635 1.45533 4.99227 1.45028 4.98714 1.44646C4.49157 1.07344 4.03926 0.931823 4.01219 0.923818C3.95178 0.905371 3.88714 0.906137 3.82718 0.926008C3.76723 0.945879 3.71492 0.983876 3.67749 1.03475C3.53738 1.22946 3.41442 1.43597 3.31 1.65193C3.30753 1.657 3.30622 1.66255 3.30615 1.66819C3.30609 1.67382 3.30728 1.6794 3.30963 1.68453C3.31198 1.68965 3.31544 1.69419 3.31975 1.69781C3.32407 1.70144 3.32914 1.70406 3.33459 1.70549C3.594 1.77354 3.89497 1.8635 4.20394 1.97787C4.20953 1.97995 4.21553 1.98068 4.22145 1.98002C4.22738 1.97936 4.23307 1.97732 4.23806 1.97406L4.55847 1.7642Z" fill="black"/>
</g>
<defs>
<clipPath id="clip0_201_12764">
<rect width="9.75902" height="9.75902" fill="white" transform="translate(0.568359 0.605469)"/>
</clipPath>
</defs>
</svg>
