<svg width="10" height="11" viewBox="0 0 10 11" fill="none" xmlns="http://www.w3.org/2000/svg">
<g clip-path="url(#clip0_201_12759)">
<path d="M8.69761 2.74023C8.69761 2.74023 8.36176 2.74023 8.11607 2.76673C7.75392 2.80485 7.31438 2.91921 6.97758 3.01871C6.30932 3.21675 5.65611 3.47464 4.9219 3.8305C4.56699 4.003 4.42632 4.08496 4.00699 4.32855L3.92122 4.37944C3.29317 4.7416 2.83305 5.14187 2.51473 5.60504C2.16535 6.11186 1.98828 6.70484 1.98828 7.3651C1.98828 8.14162 2.28772 8.83467 2.83152 9.31633C3.3797 9.80256 4.14327 10.0595 5.03797 10.0595C5.92925 10.0595 6.69415 9.78655 7.249 9.26982C7.78937 8.76757 8.08767 8.06157 8.08767 7.28199C8.08767 6.80548 7.96968 6.38614 7.8557 5.98168C7.61573 5.12986 7.40854 4.39412 8.32669 3.23448C8.40693 3.13326 8.69761 2.74023 8.69761 2.74023Z" fill="black"/>
<path d="M4.33302 2.8841C3.36988 2.3605 2.15477 2.13025 1.68359 2.13025C1.68359 2.13025 2.12637 2.66757 2.23921 3.18621C2.35205 3.70484 2.36387 4.11274 2.29468 4.87497C2.63662 4.48461 3.06835 4.16687 3.61596 3.85085L3.70135 3.80129C4.12335 3.55598 4.28022 3.46449 4.65705 3.2817C4.71194 3.25501 4.76645 3.22909 4.82059 3.20336C4.66794 3.08257 4.50476 2.97572 4.33302 2.8841Z" fill="black"/>
<path d="M6.73949 1.52039C6.73949 1.52039 5.92885 1.52725 5.098 1.92638C4.88551 2.02875 4.68003 2.14509 4.48291 2.27461C4.53031 2.29863 4.57732 2.32328 4.62396 2.34857C4.68953 2.38421 4.7591 2.42481 4.83172 2.46846C5.04714 2.60058 5.24812 2.75493 5.43136 2.92896C5.89968 2.73054 6.82279 2.43148 7.16149 2.33275C7.00901 1.96774 6.73949 1.52039 6.73949 1.52039Z" fill="black"/>
<path d="M3.51346 0.9104C3.20849 1.11683 2.87988 1.69379 2.87988 1.69379C3.19551 1.77449 3.50675 1.87151 3.81233 1.98446L4.14875 1.76412C4.30466 1.66215 4.4642 1.56799 4.62526 1.4826C4.62488 1.48222 4.02028 1.06613 3.51346 0.9104Z" fill="black"/>
</g>
<defs>
<clipPath id="clip0_201_12759">
<rect width="9.75902" height="9.75902" fill="white" transform="translate(0.158691 0.605469)"/>
</clipPath>
</defs>
</svg>
