<svg width="11" height="11" viewBox="0 0 11 11" fill="none" xmlns="http://www.w3.org/2000/svg">
<g clip-path="url(#clip0_201_12754)">
<path d="M8.6787 3.04529C8.31845 3.1263 7.97727 3.21569 7.65514 3.31118C6.88319 3.53991 6.21607 3.82868 5.64616 4.10506C5.27829 4.28365 5.14677 4.36257 4.66454 4.64314C3.5514 5.28529 2.88428 6.11843 2.88428 7.36518C2.88428 8.77395 3.94405 9.75461 5.629 9.75461C7.31396 9.75461 8.37373 8.69084 8.37373 7.28208C8.37373 5.87331 7.21103 4.89874 8.6787 3.04529Z" stroke="black" stroke-width="0.609939" stroke-linecap="round" stroke-linejoin="round"/>
<path d="M5.78128 4.04001C5.40598 3.52538 5.05317 3.30256 4.77679 3.15198C3.84854 2.64688 2.5791 2.4353 2.5791 2.4353C3.37012 3.26825 3.28816 4.15266 3.18904 4.87506C3.18904 4.87506 3.11528 5.50177 3.22545 5.98839" stroke="black" stroke-width="0.609939" stroke-linecap="round" stroke-linejoin="round"/>
<path d="M7.83989 3.25772C7.54541 2.56106 7.15371 1.82532 7.15371 1.82532C7.15371 1.82532 5.9468 1.82532 4.56738 3.04519" stroke="black" stroke-width="0.609939" stroke-linecap="round" stroke-linejoin="round"/>
<path d="M5.58091 2.27465C4.96659 1.47868 4.1041 1.21545 4.1041 1.21545C3.81247 1.61191 3.55534 2.1986 3.43945 2.62918" stroke="black" stroke-width="0.609939" stroke-linecap="round" stroke-linejoin="round"/>
</g>
<defs>
<clipPath id="clip0_201_12754">
<rect width="9.75902" height="9.75902" fill="white" transform="translate(0.749512 0.605469)"/>
</clipPath>
</defs>
</svg>
