<svg width="11" height="11" viewBox="0 0 11 11" fill="none" xmlns="http://www.w3.org/2000/svg">
<path d="M8.69504 2.46599C8.29929 2.06632 7.82846 1.74878 7.30962 1.53162C6.79078 1.31446 6.23414 1.20196 5.67168 1.20057C5.10923 1.19919 4.55204 1.30895 4.03213 1.52356C3.51223 1.73816 3.03985 2.05337 2.64213 2.45109C2.24441 2.84881 1.9292 3.32119 1.7146 3.84109C1.49999 4.361 1.39023 4.91819 1.39161 5.48064C1.393 6.0431 1.5055 6.59974 1.72266 7.11858C1.93982 7.63742 2.25736 8.10825 2.65703 8.504C3.05278 8.90367 3.52361 9.22121 4.04245 9.43837C4.56129 9.65553 5.11793 9.76803 5.68039 9.76941C6.24284 9.7708 6.80003 9.66104 7.31993 9.44643C7.83984 9.23183 8.31222 8.91662 8.70994 8.5189C9.10766 8.12118 9.42287 7.6488 9.63747 7.12889C9.85208 6.60899 9.96184 6.0518 9.96045 5.48935C9.95907 4.92689 9.84657 4.37025 9.62941 3.85141C9.41225 3.33257 9.09471 2.86174 8.69504 2.46599ZM4.30367 4.57009C4.39415 4.57009 4.48259 4.59691 4.55782 4.64718C4.63305 4.69745 4.69168 4.76889 4.7263 4.85248C4.76093 4.93607 4.76999 5.02805 4.75234 5.11678C4.73468 5.20552 4.69112 5.28703 4.62714 5.35101C4.56316 5.41498 4.48165 5.45855 4.39292 5.4762C4.30418 5.49385 4.2122 5.4848 4.12861 5.45017C4.04502 5.41555 3.97358 5.35692 3.92331 5.28169C3.87305 5.20646 3.84622 5.11802 3.84622 5.02754C3.84607 4.96742 3.8578 4.90787 3.88073 4.8523C3.90367 4.79673 3.93736 4.74624 3.97987 4.70373C4.02238 4.66123 4.07286 4.62754 4.12843 4.6046C4.184 4.58166 4.24356 4.56993 4.30367 4.57009ZM3.85251 7.42593C4.08123 6.65779 4.80935 6.09493 5.67508 6.09493C6.54081 6.09493 7.26893 6.65779 7.49937 7.42593C7.50582 7.44879 7.50683 7.47284 7.50234 7.49616C7.49784 7.51948 7.48796 7.54143 7.47349 7.56026C7.45901 7.57909 7.44033 7.59427 7.41895 7.60461C7.39757 7.61494 7.37406 7.62014 7.35032 7.61978H4.00156C3.97781 7.62014 3.95431 7.61494 3.93293 7.60461C3.91154 7.59427 3.89287 7.57909 3.87839 7.56026C3.86391 7.54143 3.85403 7.51948 3.84954 7.49616C3.84505 7.47284 3.84606 7.44879 3.85251 7.42593ZM7.0484 5.48499C6.95792 5.48499 6.86948 5.45816 6.79425 5.4079C6.71902 5.35763 6.66039 5.28619 6.62576 5.2026C6.59114 5.11901 6.58208 5.02703 6.59973 4.93829C6.61738 4.84956 6.66095 4.76805 6.72493 4.70407C6.7889 4.64009 6.87041 4.59653 6.95915 4.57888C7.04789 4.56122 7.13987 4.57028 7.22346 4.60491C7.30704 4.63953 7.37849 4.69816 7.42876 4.77339C7.47902 4.84862 7.50585 4.93706 7.50585 5.02754C7.506 5.08766 7.49427 5.14721 7.47134 5.20278C7.4484 5.25835 7.41471 5.30884 7.3722 5.35135C7.32969 5.39385 7.2792 5.42754 7.22363 5.45048C7.16807 5.47342 7.10851 5.48514 7.0484 5.48499Z" fill="black"/>
</svg>
