<svg width="10" height="11" viewBox="0 0 10 11" fill="none" xmlns="http://www.w3.org/2000/svg">
<g clip-path="url(#clip0_201_12778)">
<path d="M7.46693 1.69898C7.41029 1.64235 7.34304 1.59743 7.26903 1.56678C7.19502 1.53614 7.1157 1.52037 7.03559 1.52039H2.00207C1.88638 1.52036 1.7718 1.54313 1.66491 1.5874C1.55801 1.63166 1.46088 1.69655 1.37907 1.77836C1.29726 1.86017 1.23237 1.9573 1.1881 2.0642C1.14384 2.1711 1.12107 2.28567 1.12109 2.40137V8.56861C1.12107 8.68431 1.14384 8.79888 1.1881 8.90578C1.23237 9.01267 1.29726 9.1098 1.37907 9.19161C1.46088 9.27342 1.55801 9.33832 1.66491 9.38258C1.7718 9.42684 1.88638 9.44962 2.00207 9.44959H8.16932C8.40275 9.44889 8.62642 9.35584 8.79149 9.19078C8.95655 9.02572 9.04959 8.80204 9.0503 8.56861V3.53509C9.05031 3.45499 9.03454 3.37567 9.0039 3.30166C8.97326 3.22765 8.92833 3.1604 8.8717 3.10375L7.46693 1.69898ZM5.0857 8.53468C4.84443 8.53468 4.60858 8.46314 4.40797 8.3291C4.20736 8.19505 4.05101 8.00453 3.95868 7.78163C3.86635 7.55873 3.84219 7.31345 3.88926 7.07682C3.93633 6.84018 4.05251 6.62282 4.22311 6.45222C4.39371 6.28162 4.61108 6.16544 4.84771 6.11837C5.08434 6.0713 5.32962 6.09545 5.55252 6.18778C5.77543 6.28011 5.96594 6.43647 6.09999 6.63708C6.23403 6.83768 6.30557 7.07354 6.30557 7.3148C6.30577 7.47506 6.27436 7.63378 6.21312 7.78187C6.15189 7.92996 6.06204 8.06452 5.94873 8.17784C5.83541 8.29115 5.70085 8.381 5.55276 8.44223C5.40467 8.50347 5.24595 8.53488 5.0857 8.53468V8.53468ZM6.0006 4.26511H2.34097C2.26009 4.26511 2.18252 4.23298 2.12533 4.17579C2.06813 4.11859 2.036 4.04102 2.036 3.96014V2.74026C2.036 2.65938 2.06813 2.58181 2.12533 2.52462C2.18252 2.46742 2.26009 2.43529 2.34097 2.43529H6.0006C6.08149 2.43529 6.15906 2.46742 6.21625 2.52462C6.27344 2.58181 6.30557 2.65938 6.30557 2.74026V3.96014C6.30557 4.04102 6.27344 4.11859 6.21625 4.17579C6.15906 4.23298 6.08149 4.26511 6.0006 4.26511Z" stroke="black" stroke-width="0.609939" stroke-linecap="round" stroke-linejoin="round"/>
</g>
<defs>
<clipPath id="clip0_201_12778">
<rect width="9.75902" height="9.75902" fill="white" transform="translate(0.206055 0.605469)"/>
</clipPath>
</defs>
</svg>
