<svg width="11" height="10" viewBox="0 0 11 10" fill="none" xmlns="http://www.w3.org/2000/svg">
<g clip-path="url(#clip0_201_12782)">
<path d="M9.43424 2.29776L8.02947 0.892995C7.94472 0.807766 7.8439 0.740194 7.73286 0.694193C7.62182 0.648192 7.50275 0.624675 7.38256 0.625003H2.38296C2.05943 0.625003 1.74915 0.753526 1.52038 0.982297C1.29161 1.21107 1.16309 1.52135 1.16309 1.84488V7.94427C1.16309 8.2678 1.29161 8.57808 1.52038 8.80685C1.74915 9.03562 2.05943 9.16415 2.38296 9.16415H8.48235C8.80588 9.16415 9.11616 9.03562 9.34494 8.80685C9.57371 8.57808 9.70223 8.2678 9.70223 7.94427V2.94468C9.70256 2.82448 9.67904 2.70542 9.63304 2.59437C9.58704 2.48333 9.51947 2.38251 9.43424 2.29776ZM2.84042 2.14985H6.19508C6.23552 2.14985 6.27431 2.16592 6.3029 2.19451C6.3315 2.22311 6.34757 2.26189 6.34757 2.30234V3.21724C6.34757 3.25768 6.3315 3.29647 6.3029 3.32507C6.27431 3.35366 6.23552 3.36973 6.19508 3.36973H2.84042C2.79998 3.36973 2.76119 3.35366 2.73259 3.32507C2.704 3.29647 2.68793 3.25768 2.68793 3.21724V2.30234C2.68793 2.26189 2.704 2.22311 2.73259 2.19451C2.76119 2.16592 2.79998 2.14985 2.84042 2.14985ZM5.50413 8.24752C5.19679 8.26195 4.89227 8.18307 4.63059 8.02124C4.36891 7.8594 4.1623 7.62219 4.03792 7.34077C3.91354 7.05935 3.8772 6.74689 3.93369 6.44443C3.99017 6.14198 4.13683 5.86369 4.35439 5.64612C4.57195 5.42856 4.85025 5.2819 5.1527 5.22542C5.45515 5.16894 5.76762 5.20527 6.04904 5.32965C6.33046 5.45403 6.56767 5.66064 6.7295 5.92232C6.89134 6.18401 6.97022 6.48853 6.95579 6.79587C6.93773 7.17505 6.77899 7.53388 6.51056 7.8023C6.24214 8.07072 5.88331 8.22946 5.50413 8.24752Z" fill="black"/>
<path d="M5.43249 7.63926C5.93778 7.63926 6.34739 7.22965 6.34739 6.72436C6.34739 6.21907 5.93778 5.80945 5.43249 5.80945C4.9272 5.80945 4.51758 6.21907 4.51758 6.72436C4.51758 7.22965 4.9272 7.63926 5.43249 7.63926Z" fill="black"/>
</g>
<defs>
<clipPath id="clip0_201_12782">
<rect width="9.75902" height="9.75902" fill="white" transform="translate(0.553223 0.0150146)"/>
</clipPath>
</defs>
</svg>
