<svg width="11" height="10" viewBox="0 0 11 10" fill="none" xmlns="http://www.w3.org/2000/svg">
<g clip-path="url(#clip0_201_12790)">
<path d="M7.79547 0.625H3.5259C2.9599 0.625605 2.41727 0.850714 2.01705 1.25093C1.61683 1.65115 1.39172 2.19379 1.39111 2.75979V7.02936C1.39172 7.59535 1.61683 8.13799 2.01705 8.53821C2.41727 8.93843 2.9599 9.16354 3.5259 9.16414H7.79547C8.36146 9.16354 8.9041 8.93843 9.30432 8.53821C9.70454 8.13799 9.92965 7.59535 9.93026 7.02936V2.75979C9.92965 2.19379 9.70454 1.65115 9.30432 1.25093C8.9041 0.850714 8.36146 0.625605 7.79547 0.625ZM8.48565 4.01778L7.85056 4.76515C7.77591 4.85367 7.68285 4.92484 7.57787 4.9737C7.47288 5.02255 7.35851 5.04791 7.24271 5.04801C7.09253 5.04781 6.94539 5.0057 6.81785 4.9264C6.54681 4.75905 6.12595 4.55949 5.66107 4.55949C5.19618 4.55949 4.77532 4.75905 4.50428 4.9264C4.34151 5.02837 4.14742 5.0682 3.95764 5.03858C3.76787 5.00896 3.59515 4.91187 3.47119 4.76515L2.83572 4.01778C2.67271 3.82737 2.59044 3.58086 2.60642 3.33071C2.62241 3.08056 2.73538 2.84652 2.9213 2.6784C3.45194 2.19521 4.35789 1.6192 5.66068 1.6192C6.96348 1.6192 7.86943 2.19521 8.40007 2.6784C8.58599 2.84652 8.69896 3.08056 8.71495 3.33071C8.73093 3.58086 8.64866 3.82737 8.48565 4.01778Z" fill="black"/>
</g>
<defs>
<clipPath id="clip0_201_12790">
<rect width="9.75902" height="9.75902" fill="white" transform="translate(0.78125 0.0150146)"/>
</clipPath>
</defs>
</svg>
