<svg width="11" height="10" viewBox="0 0 11 10" fill="none" xmlns="http://www.w3.org/2000/svg">
<g clip-path="url(#clip0_201_12788)">
<path d="M8.60617 0.625H1.89684C1.65427 0.625252 1.42171 0.721725 1.25018 0.893249C1.07866 1.06477 0.982186 1.29734 0.981934 1.53991V8.24923C0.982186 8.49181 1.07866 8.72437 1.25018 8.89589C1.42171 9.06742 1.65427 9.16389 1.89684 9.16414H8.60617C8.84874 9.16389 9.0813 9.06742 9.25283 8.89589C9.42435 8.72437 9.52082 8.49181 9.52108 8.24923V1.53991C9.52082 1.29734 9.42435 1.06477 9.25283 0.893249C9.0813 0.721725 8.84874 0.625252 8.60617 0.625ZM8.28767 3.77L7.28775 4.94661C7.20144 5.04931 7.07942 5.1155 6.94626 5.13184C6.8131 5.14818 6.6787 5.11346 6.57012 5.03467C6.32233 4.85759 5.82161 4.56025 5.2515 4.56025C4.6814 4.56025 4.18068 4.85759 3.93289 5.03467C3.8243 5.11341 3.6899 5.14811 3.55676 5.13177C3.42362 5.11543 3.3016 5.04927 3.21526 4.94661L2.21534 3.77C2.12035 3.65782 2.06889 3.51522 2.07036 3.36823C2.07183 3.22125 2.12614 3.0797 2.22335 2.96945C2.58417 2.56327 3.60143 1.61863 5.2515 1.61863C6.90158 1.61863 7.91884 2.56384 8.27966 2.96945C8.37687 3.0797 8.43118 3.22125 8.43265 3.36823C8.43412 3.51522 8.38266 3.65782 8.28767 3.77Z" fill="black"/>
</g>
<defs>
<clipPath id="clip0_201_12788">
<rect width="9.75902" height="9.75902" fill="white" transform="translate(0.37207 0.0150146)"/>
</clipPath>
</defs>
</svg>
