<svg width="11" height="10" viewBox="0 0 11 10" fill="none" xmlns="http://www.w3.org/2000/svg">
<g clip-path="url(#clip0_201_12807)">
<path d="M8.22434 8.89735H6.92822V8.05868H8.22434C8.39622 8.05868 8.56106 7.9904 8.68259 7.86887C8.80412 7.74733 8.8724 7.5825 8.8724 7.41062V6.1145H9.71107V7.41062C9.71061 7.80479 9.55383 8.18268 9.27512 8.46139C8.9964 8.74011 8.61851 8.89689 8.22434 8.89735Z" fill="black"/>
<path d="M9.71107 3.67469H8.8724V2.37857C8.8724 2.2067 8.80412 2.04186 8.68259 1.92032C8.56106 1.79879 8.39622 1.73051 8.22434 1.73051H6.92822V0.891846H8.22434C8.61851 0.8923 8.9964 1.04908 9.27512 1.3278C9.55383 1.60652 9.71061 1.98441 9.71107 2.37857V3.67469Z" fill="black"/>
<path d="M4.48841 8.89735H3.19229C2.79813 8.89689 2.42024 8.74011 2.14152 8.46139C1.8628 8.18268 1.70602 7.80479 1.70557 7.41062V6.1145H2.54423V7.41062C2.54423 7.5825 2.61251 7.74733 2.73404 7.86887C2.85558 7.9904 3.02042 8.05868 3.19229 8.05868H4.48841V8.89735Z" fill="black"/>
<path d="M2.54423 3.67469H1.70557V2.37857C1.70602 1.98441 1.8628 1.60652 2.14152 1.3278C2.42024 1.04908 2.79813 0.8923 3.19229 0.891846H4.48841V1.73051H3.19229C3.02042 1.73051 2.85558 1.79879 2.73404 1.92032C2.61251 2.04186 2.54423 2.2067 2.54423 2.37857V3.67469Z" fill="black"/>
</g>
<defs>
<clipPath id="clip0_201_12807">
<rect width="9.75902" height="9.75902" fill="white" transform="translate(0.828613 0.0150146)"/>
</clipPath>
</defs>
</svg>
