<svg width="11" height="10" viewBox="0 0 11 10" fill="none" xmlns="http://www.w3.org/2000/svg">
<g clip-path="url(#clip0_201_12802)">
<path d="M6.82324 8.55434H7.89063C8.17373 8.55434 8.44522 8.44188 8.6454 8.24171C8.84557 8.04153 8.95803 7.77004 8.95803 7.48695V6.41956" stroke="black" stroke-width="0.609939" stroke-linecap="round" stroke-linejoin="round"/>
<path d="M8.95803 3.36977V2.30238C8.95803 2.01929 8.84557 1.74779 8.6454 1.54762C8.44522 1.34744 8.17373 1.23499 7.89063 1.23499H6.82324" stroke="black" stroke-width="0.609939" stroke-linecap="round" stroke-linejoin="round"/>
<path d="M3.77346 8.55434H2.70606C2.42297 8.55434 2.15148 8.44188 1.9513 8.24171C1.75113 8.04153 1.63867 7.77004 1.63867 7.48695V6.41956" stroke="black" stroke-width="0.609939" stroke-linecap="round" stroke-linejoin="round"/>
<path d="M1.63867 3.36977V2.30238C1.63867 2.01929 1.75113 1.74779 1.9513 1.54762C2.15148 1.34744 2.42297 1.23499 2.70606 1.23499H3.77346" stroke="black" stroke-width="0.609939" stroke-linecap="round" stroke-linejoin="round"/>
</g>
<defs>
<clipPath id="clip0_201_12802">
<rect width="9.75902" height="9.75902" fill="white" transform="translate(0.418945 0.0150146)"/>
</clipPath>
</defs>
</svg>
