<svg width="11" height="10" viewBox="0 0 11 10" fill="none" xmlns="http://www.w3.org/2000/svg">
<g clip-path="url(#clip0_201_12798)">
<path d="M5.47974 0.929932C3.29368 0.929932 1.51514 2.70847 1.51514 4.89453C1.51514 7.08059 3.29368 8.85914 5.47974 8.85914C7.6658 8.85914 9.44434 7.08059 9.44434 4.89453C9.44434 2.70847 7.6658 0.929932 5.47974 0.929932ZM5.02228 7.02932H4.18362C3.96127 7.02907 3.7481 6.94063 3.59087 6.7834C3.43365 6.62618 3.34521 6.413 3.34495 6.19065V5.35199H3.95489V6.19065C3.95489 6.25132 3.97899 6.30949 4.02188 6.35239C4.06478 6.39528 4.12296 6.41938 4.18362 6.41938H5.02228V7.02932ZM5.02228 3.36969H4.18362C4.12296 3.36969 4.06478 3.39378 4.02188 3.43668C3.97899 3.47957 3.95489 3.53775 3.95489 3.59841V4.43708H3.34495V3.59841C3.34521 3.37606 3.43365 3.16289 3.59087 3.00567C3.7481 2.84844 3.96127 2.76 4.18362 2.75975H5.02228V3.36969ZM7.61452 6.19065C7.61427 6.413 7.52583 6.62618 7.36861 6.7834C7.21138 6.94063 6.99821 7.02907 6.77586 7.02932H5.93719V6.41938H6.77586C6.83652 6.41938 6.8947 6.39528 6.93759 6.35239C6.98049 6.30949 7.00459 6.25132 7.00459 6.19065V5.35199H7.61452V6.19065ZM7.61452 4.43708H7.00459V3.59841C7.00459 3.53775 6.98049 3.47957 6.93759 3.43668C6.8947 3.39378 6.83652 3.36969 6.77586 3.36969H5.93719V2.75975H6.77586C6.99821 2.76 7.21138 2.84844 7.36861 3.00567C7.52583 3.16289 7.61427 3.37606 7.61452 3.59841V4.43708Z" fill="black"/>
</g>
<defs>
<clipPath id="clip0_201_12798">
<rect width="9.75902" height="9.75902" fill="white" transform="translate(0.600098 0.0150146)"/>
</clipPath>
</defs>
</svg>
