<svg width="10" height="10" viewBox="0 0 10 10" fill="none" xmlns="http://www.w3.org/2000/svg">
<g clip-path="url(#clip0_201_12812)">
<path d="M6.75684 8.47799H7.63362C7.91671 8.47799 8.18821 8.36554 8.38838 8.16536C8.58856 7.96519 8.70102 7.69369 8.70102 7.4106V6.53381" stroke="black" stroke-width="0.838666" stroke-linecap="round" stroke-linejoin="round"/>
<path d="M8.70102 3.25546V2.37867C8.70102 2.09558 8.58856 1.82409 8.38838 1.62391C8.18821 1.42374 7.91671 1.31128 7.63362 1.31128H6.75684" stroke="black" stroke-width="0.838666" stroke-linecap="round" stroke-linejoin="round"/>
<path d="M3.47836 8.47799H2.60157C2.31848 8.47799 2.04699 8.36554 1.84681 8.16536C1.64664 7.96519 1.53418 7.69369 1.53418 7.4106V6.53381" stroke="black" stroke-width="0.838666" stroke-linecap="round" stroke-linejoin="round"/>
<path d="M1.53418 3.25546V2.37867C1.53418 2.09558 1.64664 1.82409 1.84681 1.62391C2.04699 1.42374 2.31848 1.31128 2.60157 1.31128H3.47836" stroke="black" stroke-width="0.838666" stroke-linecap="round" stroke-linejoin="round"/>
</g>
<defs>
<clipPath id="clip0_201_12812">
<rect width="9.75902" height="9.75902" fill="white" transform="translate(0.238281 0.0150146)"/>
</clipPath>
</defs>
</svg>
