<svg width="11" height="10" viewBox="0 0 11 10" fill="none" xmlns="http://www.w3.org/2000/svg">
<g clip-path="url(#clip0_201_12825)">
<path d="M5.34559 7.02944C5.29251 7.02944 5.24034 7.01557 5.19425 6.98922L2.52463 5.46342C2.50143 5.45003 2.47511 5.44298 2.44833 5.44299C2.42154 5.443 2.39523 5.45007 2.37204 5.46348C2.34886 5.47689 2.32961 5.49617 2.31624 5.51938C2.30288 5.54259 2.29586 5.56892 2.2959 5.5957V7.02944C2.29585 7.08387 2.31038 7.13732 2.33796 7.18425C2.36555 7.23117 2.40519 7.26986 2.45277 7.29629L5.19749 8.82114C5.2428 8.8463 5.29377 8.85951 5.34559 8.85951C5.39742 8.85951 5.44839 8.8463 5.49369 8.82114L8.23842 7.29629C8.286 7.26986 8.32564 7.23117 8.35322 7.18425C8.38081 7.13732 8.39533 7.08387 8.39529 7.02944V5.5957C8.39533 5.56892 8.38831 5.54259 8.37494 5.51938C8.36157 5.49617 8.34233 5.47689 8.31914 5.46348C8.29595 5.45007 8.26964 5.443 8.24286 5.44299C8.21607 5.44298 8.18976 5.45003 8.16656 5.46342L5.49693 6.98922C5.45085 7.01557 5.39868 7.02944 5.34559 7.02944Z" fill="black"/>
<path d="M9.9189 3.64617C9.9189 3.64617 9.9189 3.64465 9.9189 3.64407C9.91397 3.59573 9.89756 3.54927 9.87104 3.50856C9.84451 3.46784 9.80865 3.43406 9.76642 3.41001L5.49685 0.970255C5.45076 0.943911 5.39859 0.930054 5.34551 0.930054C5.29242 0.930054 5.24025 0.943911 5.19417 0.970255L0.924595 3.41001C0.877932 3.43669 0.83915 3.47523 0.812176 3.52172C0.785203 3.56821 0.770996 3.62101 0.770996 3.67476C0.770996 3.72851 0.785203 3.78131 0.812176 3.8278C0.83915 3.8743 0.877932 3.91283 0.924595 3.93951L5.19417 6.37927C5.24025 6.40561 5.29242 6.41947 5.34551 6.41947C5.39859 6.41947 5.45076 6.40561 5.49685 6.37927L9.25331 4.23286C9.25912 4.2295 9.2657 4.22774 9.27241 4.22775C9.27911 4.22776 9.2857 4.22953 9.2915 4.23289C9.2973 4.23626 9.3021 4.24109 9.30544 4.24691C9.30877 4.25272 9.31052 4.25932 9.31049 4.26602V7.02085C9.31049 7.18496 9.43667 7.32582 9.60078 7.33401C9.64202 7.336 9.68323 7.32959 9.72191 7.31518C9.7606 7.30077 9.79596 7.27866 9.82584 7.25018C9.85573 7.2217 9.87952 7.18745 9.89578 7.14951C9.91204 7.11156 9.92043 7.07071 9.92043 7.02943V3.67476C9.92041 3.66521 9.9199 3.65567 9.9189 3.64617Z" fill="black"/>
</g>
<defs>
<clipPath id="clip0_201_12825">
<rect width="9.75902" height="9.75902" fill="white" transform="translate(0.466309 0.0150146)"/>
</clipPath>
</defs>
</svg>
