<svg width="11" height="10" viewBox="0 0 11 10" fill="none" xmlns="http://www.w3.org/2000/svg">
<path d="M5.75554 1.54004C5.09205 1.54004 4.44346 1.73679 3.89179 2.1054C3.34012 2.47402 2.91015 2.99794 2.65624 3.61093C2.40233 4.22391 2.3359 4.89842 2.46534 5.54917C2.59478 6.19991 2.91428 6.79765 3.38344 7.26681C3.8526 7.73597 4.45034 8.05547 5.10108 8.18491C5.75182 8.31435 6.42633 8.24791 7.03932 7.99401C7.6523 7.7401 8.17623 7.31013 8.54484 6.75845C8.91346 6.20678 9.11021 5.55819 9.11021 4.8947C9.11021 4.00499 8.75677 3.15172 8.12765 2.5226C7.49853 1.89348 6.64526 1.54004 5.75554 1.54004Z" stroke="black" stroke-width="0.609939" stroke-miterlimit="10"/>
<path d="M5.29814 3.06482C5.02672 3.06482 4.76138 3.14531 4.5357 3.2961C4.31002 3.4469 4.13412 3.66123 4.03025 3.912C3.92638 4.16277 3.8992 4.4387 3.95215 4.70492C4.0051 4.97113 4.13581 5.21566 4.32774 5.40759C4.51967 5.59952 4.7642 5.73022 5.03041 5.78317C5.29662 5.83613 5.57256 5.80895 5.82332 5.70508C6.07409 5.60121 6.28842 5.42531 6.43922 5.19963C6.59002 4.97394 6.67051 4.70861 6.67051 4.43718C6.67051 4.25696 6.63501 4.0785 6.56604 3.912C6.49707 3.7455 6.39599 3.59421 6.26855 3.46678C6.14112 3.33934 5.98983 3.23825 5.82332 3.16928C5.65682 3.10032 5.47837 3.06482 5.29814 3.06482V3.06482Z" stroke="black" stroke-width="0.609939" stroke-miterlimit="10"/>
<path d="M6.28223 5.42139L7.28024 6.4194" stroke="black" stroke-width="0.609939" stroke-miterlimit="10" stroke-linecap="round"/>
</svg>
