<svg width="10" height="10" viewBox="0 0 10 10" fill="none" xmlns="http://www.w3.org/2000/svg">
<g clip-path="url(#clip0_201_12838)">
<path d="M4.31845 1.23499C3.72625 1.23499 3.14734 1.41059 2.65494 1.7396C2.16255 2.06861 1.77877 2.53625 1.55214 3.08337C1.32552 3.6305 1.26622 4.23253 1.38175 4.81336C1.49729 5.39418 1.78246 5.9277 2.20121 6.34645C2.61996 6.7652 3.15348 7.05037 3.7343 7.16591C4.31513 7.28144 4.91717 7.22214 5.46429 6.99552C6.01141 6.76889 6.47905 6.38512 6.80806 5.89272C7.13707 5.40032 7.31268 4.82142 7.31268 4.22921C7.31263 3.43511 6.99715 2.67355 6.43563 2.11203C5.87412 1.55051 5.11255 1.23504 4.31845 1.23499V1.23499Z" stroke="black" stroke-width="0.609939" stroke-miterlimit="10"/>
<path d="M6.55225 6.46313L8.64338 8.55427" stroke="black" stroke-width="0.609939" stroke-miterlimit="10" stroke-linecap="round"/>
</g>
<defs>
<clipPath id="clip0_201_12838">
<rect width="9.75902" height="9.75902" fill="white" transform="translate(0.104492 0.0150146)"/>
</clipPath>
</defs>
</svg>
