<svg width="11" height="10" viewBox="0 0 11 10" fill="none" xmlns="http://www.w3.org/2000/svg">
<g clip-path="url(#clip0_201_12841)">
<path d="M9.35791 8.17308L6.99288 5.80766C7.37401 5.2839 7.57904 4.65267 7.57842 4.00491C7.57842 2.30947 6.199 0.930054 4.50356 0.930054C2.80813 0.930054 1.42871 2.30947 1.42871 4.00491C1.42871 5.70035 2.80813 7.07976 4.50356 7.07976C5.15132 7.08039 5.78256 6.87536 6.30631 6.49422L8.67173 8.85926L9.35791 8.17308ZM4.50356 6.10862C4.08744 6.10866 3.68064 5.9853 3.33462 5.75413C2.98861 5.52297 2.71892 5.19438 2.55965 4.80994C2.40039 4.42549 2.35871 4.00245 2.43988 3.59431C2.52106 3.18618 2.72144 2.81128 3.01569 2.51703C3.30993 2.22278 3.68483 2.0224 4.09297 1.94123C4.5011 1.86005 4.92415 1.90173 5.30859 2.061C5.69304 2.22026 6.02162 2.48995 6.25279 2.83597C6.48395 3.18198 6.60732 3.58878 6.60728 4.00491C6.60663 4.56265 6.38477 5.09735 5.99039 5.49174C5.59601 5.88612 5.0613 6.10797 4.50356 6.10862Z" fill="black"/>
</g>
<defs>
<clipPath id="clip0_201_12841">
<rect width="9.75902" height="9.75902" fill="white" transform="translate(0.513672 0.0150146)"/>
</clipPath>
</defs>
</svg>
