<svg width="11" height="10" viewBox="0 0 11 10" fill="none" xmlns="http://www.w3.org/2000/svg">
<g clip-path="url(#clip0_201_12843)">
<path d="M9.62825 8.04709L7.83484 6.25368C8.26661 5.67887 8.4997 4.97922 8.49891 4.26032C8.49891 2.42402 7.00494 0.930054 5.16864 0.930054C3.33235 0.930054 1.83838 2.42402 1.83838 4.26032C1.83838 6.09662 3.33235 7.59059 5.16864 7.59059C5.88755 7.59137 6.5872 7.35829 7.162 6.92651L8.95541 8.71993C9.04619 8.80108 9.1646 8.8444 9.28632 8.84099C9.40804 8.83758 9.52383 8.78771 9.60993 8.70161C9.69603 8.61551 9.74591 8.49971 9.74931 8.37799C9.75272 8.25627 9.7094 8.13787 9.62825 8.04709ZM2.78988 4.26032C2.78988 3.78984 2.9294 3.32994 3.19078 2.93875C3.45216 2.54757 3.82367 2.24267 4.25833 2.06263C4.69299 1.88259 5.17128 1.83548 5.63272 1.92727C6.09415 2.01905 6.51801 2.24561 6.85068 2.57828C7.18336 2.91096 7.40991 3.33481 7.5017 3.79625C7.59348 4.25768 7.54638 4.73597 7.36633 5.17063C7.18629 5.60529 6.8814 5.97681 6.49021 6.23819C6.09903 6.49957 5.63912 6.63908 5.16864 6.63908C4.53799 6.63832 3.93338 6.38746 3.48744 5.94152C3.0415 5.49558 2.79064 4.89097 2.78988 4.26032Z" fill="black"/>
</g>
<defs>
<clipPath id="clip0_201_12843">
<rect width="9.75902" height="9.75902" fill="white" transform="translate(0.92334 0.0150146)"/>
</clipPath>
</defs>
</svg>
