<svg width="11" height="10" viewBox="0 0 11 10" fill="none" xmlns="http://www.w3.org/2000/svg">
<path d="M5.57418 1.23499C3.55624 1.23499 1.91455 2.87667 1.91455 4.89462C1.91455 6.91256 3.55624 8.55425 5.57418 8.55425C7.59213 8.55425 9.23382 6.91256 9.23382 4.89462C9.23382 2.87667 7.59213 1.23499 5.57418 1.23499ZM7.31461 6.63504C7.25742 6.69219 7.17988 6.72429 7.09903 6.72429C7.01818 6.72429 6.94064 6.69219 6.88346 6.63504L6.0669 5.81868C5.72193 6.05606 5.30071 6.15595 4.88588 6.09875C4.47106 6.04156 4.09258 5.8314 3.82473 5.50952C3.55687 5.18765 3.41897 4.77729 3.43809 4.35898C3.45721 3.94067 3.63196 3.5446 3.92806 3.2485C4.22416 2.9524 4.62023 2.77764 5.03854 2.75852C5.45686 2.7394 5.86721 2.8773 6.18909 3.14516C6.51097 3.41302 6.72112 3.79149 6.77832 4.20632C6.83551 4.62114 6.73562 5.04237 6.49824 5.38733L7.31461 6.20389C7.37176 6.26108 7.40386 6.33862 7.40386 6.41947C7.40386 6.50031 7.37176 6.57785 7.31461 6.63504Z" fill="black"/>
<path d="M5.11671 5.50454C5.70621 5.50454 6.1841 5.02665 6.1841 4.43714C6.1841 3.84764 5.70621 3.36975 5.11671 3.36975C4.5272 3.36975 4.04932 3.84764 4.04932 4.43714C4.04932 5.02665 4.5272 5.50454 5.11671 5.50454Z" fill="black"/>
</svg>
