<svg width="10" height="10" viewBox="0 0 10 10" fill="none" xmlns="http://www.w3.org/2000/svg">
<g clip-path="url(#clip0_201_12849)">
<path d="M9.23566 4.3426L9.23261 4.34127L1.09221 0.964875C1.02374 0.936217 0.949239 0.924978 0.875362 0.932163C0.801486 0.939347 0.730542 0.964732 0.668878 1.00605C0.603728 1.04874 0.550213 1.10695 0.513148 1.17546C0.476083 1.24397 0.456632 1.32061 0.456543 1.3985V3.55788C0.456579 3.66436 0.493761 3.76749 0.561678 3.8495C0.629596 3.93151 0.723996 3.98726 0.828606 4.00714L5.26839 4.82807C5.28583 4.83138 5.30158 4.84068 5.31291 4.85435C5.32423 4.86803 5.33043 4.88523 5.33043 4.90298C5.33043 4.92074 5.32423 4.93794 5.31291 4.95162C5.30158 4.96529 5.28583 4.97458 5.26839 4.97789L0.828796 5.79883C0.724215 5.81866 0.629821 5.87433 0.561873 5.95626C0.493925 6.0382 0.456676 6.14126 0.456543 6.24771V8.40746C0.456492 8.48184 0.474909 8.55507 0.510139 8.62057C0.54537 8.68607 0.596312 8.74181 0.658395 8.78277C0.733074 8.83238 0.820716 8.8589 0.910376 8.85901C0.972708 8.85895 1.0344 8.84645 1.09183 8.82222L9.23204 5.46508L9.23566 5.46336C9.34523 5.41627 9.4386 5.33809 9.5042 5.23849C9.56981 5.13889 9.60477 5.02225 9.60477 4.90298C9.60477 4.78372 9.56981 4.66707 9.5042 4.56747C9.4386 4.46787 9.34523 4.38969 9.23566 4.3426Z" fill="black"/>
</g>
<defs>
<clipPath id="clip0_201_12849">
<rect width="9.75902" height="9.75902" fill="white" transform="translate(0.151367 0.0150146)"/>
</clipPath>
</defs>
</svg>
