<svg width="11" height="10" viewBox="0 0 11 10" fill="none" xmlns="http://www.w3.org/2000/svg">
<g clip-path="url(#clip0_201_12845)">
<path d="M9.29664 5.18334L1.1551 8.54105C1.13248 8.55168 1.10755 8.55646 1.0826 8.55495C1.05766 8.55344 1.03349 8.54569 1.01232 8.53241C0.991142 8.51913 0.973644 8.50075 0.961425 8.47894C0.949206 8.45714 0.942659 8.43262 0.942383 8.40763V6.24787C0.942383 6.21236 0.954779 6.17796 0.977432 6.15061C1.00009 6.12325 1.03157 6.10467 1.06647 6.09805L5.78625 5.20221C6.11714 5.1395 6.11714 4.66565 5.78625 4.60294L1.06628 3.70709C1.03145 3.70045 1.00003 3.68187 0.977419 3.65456C0.954808 3.62726 0.942419 3.59292 0.942383 3.55747V1.39867C0.942383 1.28926 1.05446 1.2031 1.1551 1.24618L9.29664 4.62315C9.35137 4.64672 9.39799 4.68581 9.43075 4.73559C9.46351 4.78537 9.48097 4.84365 9.48097 4.90324C9.48097 4.96283 9.46351 5.02112 9.43075 5.0709C9.39799 5.12067 9.35137 5.15976 9.29664 5.18334Z" stroke="black" stroke-width="0.609939" stroke-linecap="round" stroke-linejoin="round"/>
</g>
<defs>
<clipPath id="clip0_201_12845">
<rect width="9.75902" height="9.75902" fill="white" transform="translate(0.33252 0.0150146)"/>
</clipPath>
</defs>
</svg>
