<svg width="11" height="10" viewBox="0 0 11 10" fill="none" xmlns="http://www.w3.org/2000/svg">
<g clip-path="url(#clip0_201_12861)">
<path d="M5.25952 8.17285C4.2617 8.17285 3.13637 7.95156 2.24929 7.58197C1.92392 7.44493 1.64526 7.22325 1.41748 7.04827C1.40618 7.03963 1.39269 7.03432 1.37853 7.03295C1.36438 7.03157 1.35012 7.03419 1.33737 7.04049C1.32462 7.0468 1.31388 7.05655 1.30638 7.06863C1.29888 7.08072 1.29491 7.09466 1.29492 7.10889V7.34867C1.29492 7.8837 1.74265 8.36307 2.55559 8.69854C3.28275 8.99874 4.24302 9.164 5.25952 9.164C6.27602 9.164 7.23611 8.99874 7.96346 8.69854C8.77639 8.36345 9.22413 7.8837 9.22413 7.34867V7.10889C9.22414 7.09466 9.22017 7.08072 9.21266 7.06863C9.20516 7.05655 9.19443 7.0468 9.18168 7.04049C9.16893 7.03419 9.15467 7.03157 9.14051 7.03295C9.12636 7.03432 9.11286 7.03963 9.10157 7.04827C8.87379 7.22306 8.59513 7.44493 8.26957 7.58197C7.38249 7.95156 6.25735 8.17285 5.25952 8.17285Z" fill="black"/>
<path d="M9.22413 2.42629C9.20869 1.89927 8.76324 1.42752 7.96613 1.09491C7.23687 0.791849 6.27622 0.624878 5.25952 0.624878C4.24283 0.624878 3.28218 0.791849 2.55464 1.09491C1.75828 1.42676 1.31284 1.89755 1.29664 2.42324L1.29492 2.75966C1.29492 2.88184 1.39404 3.07378 1.57378 3.23103C1.78592 3.41649 2.1008 3.59947 2.48449 3.75958C3.30086 4.10077 4.33833 4.30357 5.25952 4.30357C6.18072 4.30357 7.21819 4.1 8.03455 3.75882C8.41824 3.59871 8.73312 3.41573 8.94527 3.23027C9.12501 3.07397 9.22413 2.88203 9.22413 2.75966V2.42629Z" fill="black"/>
<path d="M8.26958 4.32257C7.38269 4.69292 6.25735 4.91345 5.25953 4.91345C4.26171 4.91345 3.13637 4.69292 2.24929 4.32257C1.92393 4.18629 1.64526 3.96443 1.41749 3.78888C1.40614 3.7802 1.39257 3.77488 1.37835 3.77353C1.36412 3.77219 1.3498 3.77487 1.33703 3.78126C1.32425 3.78766 1.31353 3.79752 1.30608 3.80972C1.29864 3.82192 1.29477 3.83596 1.29493 3.85025V4.43694C1.29493 4.55912 1.39404 4.71294 1.57378 4.87019C1.78593 5.05584 2.10081 5.23863 2.4845 5.39893C3.30086 5.73954 4.33833 5.94272 5.25953 5.94272C6.18073 5.94272 7.21819 5.73916 8.03456 5.39816C8.41825 5.23786 8.73313 5.05507 8.94527 4.86942C9.12502 4.71275 9.22413 4.55912 9.22413 4.43694V3.85025C9.22414 3.83603 9.22017 3.82209 9.21267 3.81C9.20517 3.79791 9.19444 3.78817 9.18169 3.78186C9.16894 3.77555 9.15468 3.77294 9.14052 3.77432C9.12636 3.77569 9.11287 3.781 9.10157 3.78964C8.8738 3.96443 8.59513 4.18629 8.26958 4.32257Z" fill="black"/>
<path d="M8.26957 5.96185C7.38249 6.33182 6.25735 6.55273 5.25953 6.55273C4.2617 6.55273 3.13637 6.33182 2.24929 5.96185C1.92392 5.82519 1.64526 5.60332 1.41748 5.42816C1.40616 5.4195 1.39263 5.41418 1.37844 5.41282C1.36425 5.41146 1.34996 5.41411 1.3372 5.42046C1.32443 5.42681 1.3137 5.43662 1.30623 5.44876C1.29876 5.4609 1.29484 5.4749 1.29492 5.48915V6.05716C1.29492 6.17934 1.39404 6.33296 1.57359 6.49002C1.78573 6.67567 2.1008 6.85846 2.48449 7.01876C3.30086 7.35938 4.33814 7.56294 5.25953 7.56294C6.18091 7.56294 7.21819 7.35938 8.03456 7.01838C8.41825 6.85808 8.73313 6.67529 8.94527 6.48964C9.12501 6.33239 9.22413 6.17857 9.22413 6.05716V5.48915C9.22414 5.47493 9.22017 5.46098 9.21267 5.4489C9.20517 5.43681 9.19443 5.42706 9.18168 5.42076C9.16893 5.41445 9.15467 5.41184 9.14052 5.41321C9.12636 5.41459 9.11287 5.4199 9.10157 5.42854C8.87379 5.60332 8.59513 5.82519 8.26957 5.96185Z" fill="black"/>
</g>
<defs>
<clipPath id="clip0_201_12861">
<rect width="9.75902" height="9.75902" fill="white" transform="translate(0.379883 0.0150146)"/>
</clipPath>
</defs>
</svg>
