<svg width="11" height="10" viewBox="0 0 11 10" fill="none" xmlns="http://www.w3.org/2000/svg">
<g clip-path="url(#clip0_201_12866)">
<path d="M5.78838 3.68043C5.53809 3.65571 5.28628 3.70895 5.06742 3.83288C4.84856 3.9568 4.67336 4.14534 4.5658 4.37269C4.45823 4.60003 4.42357 4.85506 4.46655 5.10287C4.50953 5.35068 4.62806 5.57914 4.8059 5.75698C4.98374 5.93482 5.21221 6.05335 5.46001 6.09633C5.70782 6.13931 5.96285 6.10465 6.1902 5.99708C6.41754 5.88952 6.60608 5.71432 6.73 5.49546C6.85393 5.2766 6.90717 5.02479 6.88245 4.7745C6.85427 4.49393 6.72995 4.23172 6.53055 4.03233C6.33116 3.83293 6.06895 3.70861 5.78838 3.68043V3.68043ZM8.72561 4.8944C8.72483 5.02699 8.71509 5.15938 8.69645 5.29067L9.55818 5.96655C9.5957 5.99766 9.62099 6.04106 9.62954 6.08904C9.63809 6.13702 9.62935 6.18649 9.60488 6.22864L8.78966 7.63912C8.7649 7.68086 8.7262 7.71253 8.68038 7.72854C8.63456 7.74454 8.58457 7.74386 8.5392 7.72661L7.68338 7.38199C7.63619 7.3632 7.58507 7.35641 7.5346 7.36223C7.48414 7.36806 7.43591 7.38631 7.39423 7.41535C7.26362 7.50529 7.12637 7.58519 6.98367 7.65437C6.9388 7.67617 6.9 7.70869 6.87068 7.74905C6.84136 7.7894 6.82243 7.83636 6.81555 7.88576L6.68727 8.79858C6.67885 8.84678 6.65394 8.89057 6.61681 8.92245C6.57968 8.95433 6.53263 8.97233 6.48371 8.97336H4.85326C4.80514 8.97253 4.75874 8.95533 4.72171 8.9246C4.68467 8.89387 4.6592 8.85143 4.64951 8.80429L4.52142 7.89282C4.51423 7.84287 4.4948 7.79546 4.46488 7.75483C4.43495 7.71419 4.39544 7.68158 4.34987 7.6599C4.20734 7.5911 4.07056 7.51097 3.94083 7.4203C3.8993 7.39141 3.85123 7.3733 3.80095 7.36761C3.75067 7.36192 3.69977 7.36883 3.65283 7.38771L2.7972 7.73214C2.75186 7.7494 2.70187 7.75011 2.65606 7.73414C2.61024 7.71817 2.57153 7.68655 2.54674 7.64484L1.73152 6.23435C1.70701 6.19221 1.69825 6.14274 1.70681 6.09475C1.71536 6.04675 1.74066 6.00335 1.77822 5.97227L2.50653 5.40045C2.54643 5.36878 2.57779 5.32764 2.59776 5.28078C2.61773 5.23391 2.62568 5.1828 2.62089 5.13208C2.61403 5.0526 2.60983 4.97331 2.60983 4.89382C2.60983 4.81434 2.61384 4.73619 2.62089 4.65843C2.62516 4.60802 2.61681 4.55734 2.59662 4.51095C2.57642 4.46457 2.545 4.42394 2.50519 4.39272L1.77727 3.8209C1.74032 3.78966 1.71555 3.74641 1.70729 3.69874C1.69903 3.65106 1.70781 3.602 1.73209 3.56015L2.54732 2.14967C2.57207 2.10793 2.61077 2.07626 2.65659 2.06026C2.70241 2.04425 2.75241 2.04493 2.79777 2.06218L3.65359 2.4068C3.70079 2.42559 3.75191 2.43238 3.80237 2.42656C3.85283 2.42074 3.90106 2.40249 3.94274 2.37344C4.07335 2.2835 4.2106 2.2036 4.35331 2.13442C4.39817 2.11262 4.43698 2.0801 4.46629 2.03974C4.49561 1.99939 4.51455 1.95243 4.52142 1.90303L4.6497 0.990215C4.65812 0.942007 4.68303 0.898222 4.72016 0.866342C4.75729 0.834462 4.80434 0.816466 4.85326 0.81543H6.48371C6.53183 0.816262 6.57823 0.833461 6.61527 0.864193C6.6523 0.894925 6.67777 0.937357 6.68746 0.984497L6.81555 1.89597C6.82275 1.94593 6.84217 1.99333 6.8721 2.03396C6.90202 2.0746 6.94153 2.10721 6.9871 2.12889C7.12963 2.1977 7.26642 2.27782 7.39614 2.36849C7.43767 2.39738 7.48574 2.41549 7.53602 2.42118C7.5863 2.42687 7.6372 2.41997 7.68414 2.40108L8.53977 2.05666C8.58512 2.03939 8.6351 2.03868 8.68091 2.05465C8.72673 2.07062 8.76544 2.10224 8.79023 2.14395L9.60545 3.55444C9.62996 3.59658 9.63872 3.64605 9.63017 3.69404C9.62162 3.74204 9.59631 3.78544 9.55875 3.81652L8.83045 4.38834C8.79037 4.41991 8.75883 4.461 8.73869 4.50787C8.71855 4.55474 8.71045 4.60591 8.71513 4.65671C8.72142 4.73562 8.72561 4.81491 8.72561 4.8944Z" stroke="black" stroke-width="0.609939" stroke-linecap="round" stroke-linejoin="round"/>
</g>
<defs>
<clipPath id="clip0_201_12866">
<rect width="9.75902" height="9.75902" fill="white" transform="translate(0.789062 0.0150146)"/>
</clipPath>
</defs>
</svg>
