<svg width="11" height="10" viewBox="0 0 11 10" fill="none" xmlns="http://www.w3.org/2000/svg">
<g clip-path="url(#clip0_201_12870)">
<path d="M5.48717 5.80931C5.99246 5.80931 6.40208 5.39969 6.40208 4.8944C6.40208 4.38911 5.99246 3.97949 5.48717 3.97949C4.98188 3.97949 4.57227 4.38911 4.57227 4.8944C4.57227 5.39969 4.98188 5.80931 5.48717 5.80931Z" fill="black"/>
<path d="M9.57375 5.73298L9.5648 5.72573L8.96324 5.25398C8.92515 5.22385 8.89475 5.1851 8.87453 5.14094C8.85432 5.09677 8.84488 5.04844 8.84697 4.99991V4.77957C8.84506 4.73135 8.85463 4.68336 8.87487 4.63956C8.89512 4.59575 8.92547 4.55738 8.96343 4.52759L9.5648 4.05565L9.57375 4.0484C9.6665 3.97114 9.72873 3.86341 9.74934 3.74448C9.76994 3.62554 9.74757 3.50315 9.68621 3.3992L8.87213 1.99062C8.8712 1.98929 8.87037 1.98789 8.86966 1.98643C8.80797 1.88391 8.71233 1.80624 8.59934 1.76689C8.48636 1.72755 8.36316 1.72902 8.25114 1.77104L8.24447 1.77352L7.53732 2.0581C7.49269 2.07614 7.44441 2.08332 7.39645 2.07905C7.3485 2.07477 7.30225 2.05916 7.26151 2.03351C7.19899 1.99412 7.13546 1.95688 7.07091 1.92181C7.02905 1.89912 6.99312 1.8669 6.96601 1.82777C6.93889 1.78863 6.92135 1.74367 6.9148 1.69652L6.80825 0.941908L6.80597 0.928184C6.78277 0.811304 6.72005 0.70597 6.62834 0.629885C6.53664 0.553799 6.42154 0.511599 6.30239 0.510376H4.67232C4.55149 0.510763 4.43467 0.55378 4.34245 0.63185C4.25022 0.70992 4.1885 0.818033 4.16817 0.937143L4.16646 0.947816L4.06029 1.70395C4.05378 1.75097 4.03638 1.79583 4.00947 1.83494C3.98257 1.87405 3.94691 1.90634 3.90533 1.92925C3.84014 1.96432 3.77648 2.00149 3.71472 2.04018C3.67406 2.06568 3.62792 2.08117 3.58011 2.08538C3.5323 2.08959 3.48417 2.08239 3.43968 2.06439L2.73196 1.77848L2.72528 1.77581C2.61311 1.73374 2.48973 1.73232 2.37661 1.77181C2.2635 1.81131 2.16781 1.8892 2.1062 1.99196L2.10372 1.99615L1.2885 3.40568C1.22705 3.50974 1.20463 3.63226 1.22523 3.75134C1.24583 3.87041 1.30812 3.97828 1.40095 4.05565L1.40991 4.06289L2.01147 4.53464C2.04956 4.56477 2.07996 4.60352 2.10017 4.64769C2.12039 4.69185 2.12983 4.74019 2.12774 4.78872V5.00906C2.12964 5.05728 2.12008 5.10526 2.09984 5.14907C2.07959 5.19287 2.04924 5.23125 2.01127 5.26104L1.40991 5.73298L1.40095 5.74022C1.30821 5.81748 1.24597 5.92521 1.22537 6.04415C1.20477 6.16308 1.22714 6.28547 1.2885 6.38942L2.10258 7.798C2.10351 7.79933 2.10434 7.80073 2.10505 7.80219C2.16674 7.90471 2.26238 7.98238 2.37536 8.02173C2.48835 8.06107 2.61155 8.05961 2.72357 8.01758L2.73024 8.0151L3.43682 7.73053C3.48145 7.71248 3.52973 7.7053 3.57768 7.70957C3.62564 7.71385 3.67189 7.72946 3.71262 7.75511C3.77514 7.79463 3.83868 7.83187 3.90323 7.86681C3.94508 7.88951 3.98102 7.92172 4.00813 7.96085C4.03525 7.99999 4.05279 8.04495 4.05934 8.09211L4.16531 8.84671L4.1676 8.86044C4.19083 8.97751 4.25372 9.08299 4.34566 9.1591C4.4376 9.2352 4.55297 9.27728 4.67232 9.27825H6.30239C6.42322 9.27786 6.54004 9.23484 6.63226 9.15677C6.72449 9.0787 6.7862 8.97059 6.80654 8.85148L6.80825 8.84081L6.91442 8.08467C6.92104 8.03756 6.93858 7.99265 6.96565 7.95353C6.99273 7.91441 7.02858 7.88217 7.07034 7.85938C7.13552 7.8243 7.19919 7.78714 7.26094 7.74844C7.30161 7.72294 7.34774 7.70745 7.39555 7.70325C7.44336 7.69904 7.49149 7.70623 7.53599 7.72424L8.24371 8.00919L8.25038 8.01186C8.36255 8.05401 8.48595 8.05546 8.59909 8.01596C8.71222 7.97646 8.8079 7.89852 8.86946 7.79571C8.87022 7.79428 8.87105 7.79288 8.87194 7.79152L9.68602 6.38313C9.74758 6.27909 9.77009 6.15653 9.74952 6.0374C9.72895 5.91827 9.66664 5.81035 9.57375 5.73298ZM7.01049 4.96598C6.99661 5.26115 6.89726 5.54592 6.72454 5.78568C6.55181 6.02543 6.31314 6.20984 6.03756 6.31646C5.76197 6.42309 5.46134 6.44735 5.17222 6.38629C4.88311 6.32523 4.61796 6.18148 4.40903 5.97252C4.20009 5.76356 4.05638 5.49839 3.99535 5.20927C3.93432 4.92015 3.95862 4.61952 4.06528 4.34395C4.17194 4.06838 4.35637 3.82973 4.59614 3.65703C4.83592 3.48433 5.12071 3.38502 5.41588 3.37118C5.62779 3.36185 5.83932 3.39672 6.03702 3.47356C6.23472 3.55041 6.41427 3.66756 6.56425 3.81755C6.71423 3.96755 6.83135 4.14711 6.90817 4.34482C6.985 4.54254 7.01984 4.75407 7.01049 4.96598Z" fill="black"/>
</g>
<defs>
<clipPath id="clip0_201_12870">
<rect width="9.75902" height="9.75902" fill="white" transform="translate(0.60791 0.0148926)"/>
</clipPath>
</defs>
</svg>
