<svg width="10" height="10" viewBox="0 0 10 10" fill="none" xmlns="http://www.w3.org/2000/svg">
<g clip-path="url(#clip0_201_12889)">
<path d="M2.50426 5.80931C3.00955 5.80931 3.41917 5.39969 3.41917 4.8944C3.41917 4.38911 3.00955 3.97949 2.50426 3.97949C1.99897 3.97949 1.58936 4.38911 1.58936 4.8944C1.58936 5.39969 1.99897 5.80931 2.50426 5.80931Z" stroke="black" stroke-width="0.609939" stroke-linecap="round" stroke-linejoin="round"/>
<path d="M7.38366 3.06456C7.88895 3.06456 8.29857 2.65494 8.29857 2.14965C8.29857 1.64436 7.88895 1.23474 7.38366 1.23474C6.87837 1.23474 6.46875 1.64436 6.46875 2.14965C6.46875 2.65494 6.87837 3.06456 7.38366 3.06456Z" stroke="black" stroke-width="0.609939" stroke-linecap="round" stroke-linejoin="round"/>
<path d="M7.38366 8.55394C7.88895 8.55394 8.29857 8.14432 8.29857 7.63903C8.29857 7.13374 7.88895 6.72412 7.38366 6.72412C6.87837 6.72412 6.46875 7.13374 6.46875 7.63903C6.46875 8.14432 6.87837 8.55394 7.38366 8.55394Z" stroke="black" stroke-width="0.609939" stroke-linecap="round" stroke-linejoin="round"/>
<path d="M3.30127 5.3429L6.58617 7.19063" stroke="black" stroke-width="0.609939" stroke-linecap="round" stroke-linejoin="round"/>
<path d="M6.58617 2.59814L3.30127 4.44588" stroke="black" stroke-width="0.609939" stroke-linecap="round" stroke-linejoin="round"/>
</g>
<defs>
<clipPath id="clip0_201_12889">
<rect width="9.75902" height="9.75902" fill="white" transform="translate(0.0644531 0.0148926)"/>
</clipPath>
</defs>
</svg>
