<svg width="11" height="10" viewBox="0 0 11 10" fill="none" xmlns="http://www.w3.org/2000/svg">
<g clip-path="url(#clip0_201_12897)">
<path d="M8.20269 6.4192C8.03839 6.41913 7.87579 6.45238 7.7247 6.51691C7.57361 6.58145 7.43716 6.67595 7.32361 6.79469L4.50265 5.20751C4.55729 5.00231 4.55729 4.78639 4.50265 4.58118L7.32361 2.99401C7.52903 3.20698 7.80505 3.33775 8.09997 3.36182C8.39488 3.38589 8.68846 3.3016 8.92569 3.12475C9.16292 2.9479 9.32753 2.69063 9.38869 2.40112C9.44985 2.11162 9.40335 1.80974 9.25791 1.55206C9.11247 1.29437 8.87807 1.09856 8.59862 1.00129C8.31917 0.904028 8.01384 0.91199 7.73983 1.02369C7.46583 1.13538 7.24195 1.34315 7.11014 1.60806C6.97833 1.87298 6.94763 2.17686 7.02379 2.46279L4.20282 4.04997C4.03432 3.87427 3.8171 3.75301 3.57911 3.70179C3.34112 3.65056 3.09325 3.67171 2.86738 3.76252C2.64151 3.85332 2.44798 4.00963 2.31168 4.21134C2.17538 4.41304 2.10254 4.65091 2.10254 4.89435C2.10254 5.13779 2.17538 5.37566 2.31168 5.57736C2.44798 5.77907 2.64151 5.93538 2.86738 6.02618C3.09325 6.11699 3.34112 6.13814 3.57911 6.08691C3.8171 6.03569 4.03432 5.91443 4.20282 5.73873L7.02379 7.32591C6.95838 7.57215 6.97172 7.83268 7.06192 8.07096C7.15212 8.30923 7.31466 8.51329 7.52673 8.65448C7.7388 8.79568 7.98976 8.86693 8.24439 8.85824C8.49902 8.84955 8.74454 8.76136 8.94649 8.60603C9.14844 8.4507 9.2967 8.23605 9.37044 7.99218C9.44419 7.74831 9.43973 7.48747 9.35769 7.24626C9.27565 7.00505 9.12014 6.79559 8.913 6.64726C8.70585 6.49893 8.45746 6.41918 8.20269 6.4192Z" fill="black"/>
</g>
<defs>
<clipPath id="clip0_201_12897">
<rect width="9.75902" height="9.75902" fill="white" transform="translate(0.883301 0.0148926)"/>
</clipPath>
</defs>
</svg>
