<svg width="11" height="10" viewBox="0 0 11 10" fill="none" xmlns="http://www.w3.org/2000/svg">
<g clip-path="url(#clip0_201_12907)">
<path d="M9.65262 2.13741C9.64832 2.06928 9.62128 2.00457 9.57583 1.95363C9.53039 1.9027 9.46917 1.86848 9.40198 1.85645C7.75324 1.56063 7.06496 1.34677 5.52639 0.651825C5.48692 0.633984 5.4441 0.624756 5.40078 0.624756C5.35746 0.624756 5.31464 0.633984 5.27517 0.651825C3.7366 1.34677 3.04832 1.56063 1.39958 1.85645C1.33239 1.86848 1.27117 1.9027 1.22572 1.95363C1.18028 2.00457 1.15324 2.06928 1.14893 2.13741C1.07555 3.3022 1.23204 4.38751 1.61458 5.36322C1.92785 6.15909 2.39146 6.88719 2.98008 7.50773C3.99925 8.58904 5.08132 9.05869 5.28775 9.14179C5.3611 9.17147 5.44312 9.17147 5.51648 9.14179C5.7229 9.05869 6.80497 8.58904 7.82414 7.50773C8.41181 6.88696 8.87451 6.15888 9.18697 5.36322C9.56952 4.38751 9.72601 3.3022 9.65262 2.13741ZM7.15569 3.56905L5.04377 6.0088C5.01662 6.04026 4.98332 6.06584 4.94592 6.08397C4.90852 6.10209 4.86781 6.11238 4.82629 6.11421H4.81371C4.7339 6.11423 4.65725 6.08295 4.60023 6.0271L3.66245 5.10838C3.63384 5.08035 3.61103 5.04695 3.59533 5.0101C3.57963 4.97325 3.57133 4.93367 3.57093 4.89362C3.57011 4.81273 3.60145 4.73482 3.65807 4.67704C3.71469 4.61926 3.79194 4.58634 3.87283 4.58551C3.95372 4.58469 4.03163 4.61604 4.08941 4.67266L4.79465 5.36437L6.69499 3.16992C6.74792 3.10875 6.82298 3.07111 6.90366 3.06529C6.98433 3.05946 7.06402 3.08592 7.12519 3.13885C7.18636 3.19178 7.22399 3.26684 7.22982 3.34751C7.23565 3.42819 7.20919 3.50788 7.15626 3.56905H7.15569Z" fill="black"/>
</g>
<defs>
<clipPath id="clip0_201_12907">
<rect width="9.75902" height="9.75902" fill="white" transform="translate(0.520996 0.0148926)"/>
</clipPath>
</defs>
</svg>
