<svg width="11" height="10" viewBox="0 0 11 10" fill="none" xmlns="http://www.w3.org/2000/svg">
<g clip-path="url(#clip0_201_12921)">
<path d="M10.1087 2.13724C10.1044 2.06908 10.0774 2.00433 10.032 1.95335C9.98653 1.90238 9.92529 1.86813 9.85806 1.8561C8.21828 1.56219 7.52829 1.33232 6.04747 0.665957C5.89956 0.610872 5.80788 0.611825 5.66626 0.665957C4.18544 1.33308 3.49545 1.5618 1.85566 1.8561C1.78844 1.86813 1.7272 1.90238 1.68175 1.95335C1.63631 2.00433 1.60929 2.06908 1.60502 2.13724C1.53163 3.30185 1.68774 4.38639 2.06933 5.36134C2.38136 6.15635 2.84361 6.8838 3.43083 7.50394C4.28227 8.40799 5.22634 8.93577 5.71315 9.13553C5.80545 9.17319 5.90884 9.17319 6.00115 9.13553C6.51579 8.92739 7.42479 8.41466 8.2829 7.50356C8.87007 6.88354 9.33232 6.15621 9.64439 5.36134C10.026 4.38658 10.1821 3.30185 10.1087 2.13724Z" fill="black"/>
</g>
<defs>
<clipPath id="clip0_201_12921">
<rect width="9.75902" height="9.75902" fill="white" transform="translate(0.977539 0.0148926)"/>
</clipPath>
</defs>
</svg>
