<svg width="11" height="10" viewBox="0 0 11 10" fill="none" xmlns="http://www.w3.org/2000/svg">
<g clip-path="url(#clip0_201_12912)">
<path d="M5.21928 0.624756C3.65631 1.33114 2.65334 1.6628 0.949707 1.84463C0.949707 3.32354 1.05016 4.38655 1.43175 5.3615C1.74377 6.15651 2.20603 6.88396 2.79325 7.5041C3.73865 8.50783 4.77879 9.03657 5.21928 9.1639C5.65977 9.03657 6.6999 8.50783 7.64531 7.5041C8.23253 6.88396 8.69478 6.15651 9.00681 5.3615C9.3884 4.38655 9.48885 3.32354 9.48885 1.84463C7.78521 1.6628 6.78225 1.33114 5.21928 0.624756ZM8.29699 5.0836C8.02029 5.78775 7.61059 6.43204 7.09027 6.98127C6.36291 7.75341 5.61288 8.17866 5.21928 8.35115V1.45961C5.95788 1.78364 6.52931 1.99902 7.08588 2.16275C7.62063 2.31916 8.16589 2.43713 8.71747 2.51576C8.68468 3.66359 8.55812 4.41591 8.29699 5.0836Z" fill="black"/>
</g>
<defs>
<clipPath id="clip0_201_12912">
<rect width="9.75902" height="9.75902" fill="white" transform="translate(0.339844 0.0148926)"/>
</clipPath>
</defs>
</svg>
