<svg width="11" height="10" viewBox="0 0 11 10" fill="none" xmlns="http://www.w3.org/2000/svg">
<g clip-path="url(#clip0_201_12923)">
<path d="M6.38283 0.92981C6.38283 0.92981 5.94863 1.08229 5.26664 1.08229C4.58465 1.08229 4.15045 0.92981 4.15045 0.92981C4.08184 0.929812 4.01373 0.941411 3.94898 0.964119L0.99707 1.9972L1.31405 3.67453L2.24573 3.77975C2.35983 3.79266 2.46489 3.84801 2.54007 3.9348C2.61525 4.0216 2.65503 4.13349 2.65153 4.24826L2.52192 8.85901H8.01137L7.88175 4.24826C7.87825 4.13349 7.91804 4.0216 7.99321 3.9348C8.06839 3.84801 8.17346 3.79266 8.28755 3.77975L9.21924 3.67453L9.53621 1.9972L6.5843 0.964119C6.51956 0.941411 6.45144 0.929812 6.38283 0.92981V0.92981Z" stroke="black" stroke-width="0.609939" stroke-linecap="round" stroke-linejoin="round"/>
<path d="M6.74012 1.01855C6.65369 1.34338 6.46235 1.63054 6.19586 1.83539C5.92938 2.04025 5.60267 2.15131 5.26654 2.15131C4.93042 2.15131 4.60371 2.04025 4.33722 1.83539C4.07073 1.63054 3.8794 1.34338 3.79297 1.01855" stroke="black" stroke-width="0.609939" stroke-linecap="round" stroke-linejoin="round"/>
</g>
<defs>
<clipPath id="clip0_201_12923">
<rect width="9.75902" height="9.75902" fill="white" transform="translate(0.387207 0.0148926)"/>
</clipPath>
</defs>
</svg>
