<svg width="11" height="10" viewBox="0 0 11 10" fill="none" xmlns="http://www.w3.org/2000/svg">
<g clip-path="url(#clip0_201_12926)">
<path d="M5.67593 0.815362C5.03016 0.815362 4.45605 0.624756 4.45605 0.624756V0.662877C4.45605 0.986409 4.58458 1.29669 4.81335 1.52546C5.04212 1.75423 5.3524 1.88275 5.67593 1.88275C5.99946 1.88275 6.30974 1.75423 6.53852 1.52546C6.76729 1.29669 6.89581 0.986409 6.89581 0.662877V0.624756C6.89581 0.624756 6.3217 0.815362 5.67593 0.815362Z" fill="black"/>
<path d="M7.50592 0.853516C7.40128 1.76385 6.61407 2.47367 5.6761 2.47367C4.73813 2.47367 3.95093 1.76385 3.84629 0.853516L1.10156 1.80655L1.44465 3.97945L2.62088 4.12088C2.75583 4.13804 2.75621 4.13804 2.75621 4.27699L2.62641 9.16393H8.7258L8.59599 4.27699C8.59199 4.14356 8.59199 4.14356 8.73132 4.12088L9.90755 3.97945L10.2506 1.80655L7.50592 0.853516Z" fill="black"/>
</g>
<defs>
<clipPath id="clip0_201_12926">
<rect width="9.75902" height="9.75902" fill="white" transform="translate(0.796387 0.0148926)"/>
</clipPath>
</defs>
</svg>
