<svg width="11" height="11" viewBox="0 0 11 11" fill="none" xmlns="http://www.w3.org/2000/svg">
<path d="M8.58691 6.21899L9.50182 7.1339L8.58691 8.04881" stroke="black" stroke-width="0.609939" stroke-linecap="round" stroke-linejoin="round"/>
<path d="M8.58691 2.55945L9.50182 3.47436L8.58691 4.38926" stroke="black" stroke-width="0.609939" stroke-linecap="round" stroke-linejoin="round"/>
<path d="M2.18213 7.13402H3.8059C4.05691 7.13401 4.30404 7.07204 4.52536 6.9536C4.74667 6.83517 4.93532 6.66392 5.07457 6.45508L5.84176 5.3042" stroke="black" stroke-width="0.609939" stroke-linecap="round" stroke-linejoin="round"/>
<path d="M2.18213 3.47437H3.8059C4.05691 3.47437 4.30404 3.53634 4.52536 3.65478C4.74667 3.77322 4.93532 3.94446 5.07457 4.1533L6.60895 6.45506C6.7482 6.66391 6.93685 6.83515 7.15817 6.95359C7.37948 7.07202 7.62661 7.13399 7.87762 7.134H8.89146" stroke="black" stroke-width="0.609939" stroke-linecap="round" stroke-linejoin="round"/>
<path d="M8.89142 3.47437H7.87758C7.62657 3.47437 7.37944 3.53634 7.15813 3.65478C6.93681 3.77322 6.74816 3.94446 6.60891 4.1533L6.45166 4.38927" stroke="black" stroke-width="0.609939" stroke-linecap="round" stroke-linejoin="round"/>
</svg>
