<svg width="11" height="11" viewBox="0 0 11 11" fill="none" xmlns="http://www.w3.org/2000/svg">
<g clip-path="url(#clip0_201_12950)">
<path d="M8.91106 4.72544V6.61244C8.91105 6.85624 8.838 7.09443 8.70132 7.29631C8.56464 7.49818 8.37061 7.65448 8.14425 7.74502L7.6929 7.92553C7.59863 7.96328 7.51529 8.02396 7.45041 8.10208C7.38554 8.1802 7.3412 8.27328 7.32141 8.37288L7.1308 9.32858C7.11695 9.3978 7.07951 9.46007 7.02487 9.50477C6.97022 9.54947 6.90177 9.57383 6.83117 9.57369H3.67169C3.60119 9.5737 3.53287 9.54928 3.47834 9.50459C3.42382 9.4599 3.38646 9.3977 3.37263 9.32858L3.18145 8.37288C3.16157 8.27339 3.11719 8.18042 3.05232 8.10241C2.98746 8.0244 2.90415 7.9638 2.80996 7.9261L2.3586 7.74559C2.13225 7.65505 1.93822 7.49876 1.80154 7.29688C1.66486 7.095 1.5918 6.85681 1.5918 6.61301V4.69418C1.5918 2.67529 3.22662 1.03817 5.24476 1.03455C7.26289 1.03093 8.91106 2.70902 8.91106 4.72544Z" stroke="black" stroke-width="0.609939" stroke-miterlimit="10" stroke-linecap="round"/>
<path d="M3.57444 6.52399C3.99551 6.52399 4.33686 6.18264 4.33686 5.76157C4.33686 5.34049 3.99551 4.99915 3.57444 4.99915C3.15336 4.99915 2.81201 5.34049 2.81201 5.76157C2.81201 6.18264 3.15336 6.52399 3.57444 6.52399Z" stroke="black" stroke-width="0.609939" stroke-miterlimit="10" stroke-linecap="round"/>
<path d="M6.92893 6.52399C7.35 6.52399 7.69135 6.18264 7.69135 5.76157C7.69135 5.34049 7.35 4.99915 6.92893 4.99915C6.50785 4.99915 6.1665 5.34049 6.1665 5.76157C6.1665 6.18264 6.50785 6.52399 6.92893 6.52399Z" stroke="black" stroke-width="0.609939" stroke-miterlimit="10" stroke-linecap="round"/>
<path d="M5.25175 6.82898L4.94678 7.74389H5.55672L5.25175 6.82898Z" stroke="black" stroke-width="0.609939" stroke-linecap="round" stroke-linejoin="round"/>
<path d="M5.25146 8.96375V9.57368" stroke="black" stroke-width="0.609939" stroke-linecap="round" stroke-linejoin="round"/>
<path d="M4.33643 8.96375V9.57368" stroke="black" stroke-width="0.609939" stroke-linecap="round" stroke-linejoin="round"/>
<path d="M6.1665 8.96375V9.57368" stroke="black" stroke-width="0.609939" stroke-linecap="round" stroke-linejoin="round"/>
</g>
<defs>
<clipPath id="clip0_201_12950">
<rect width="9.75902" height="9.75902" fill="white" transform="translate(0.37207 0.424561)"/>
</clipPath>
</defs>
</svg>
