<svg width="10" height="11" viewBox="0 0 10 11" fill="none" xmlns="http://www.w3.org/2000/svg">
<g clip-path="url(#clip0_201_12960)">
<path d="M7.85342 1.89117C7.10262 1.14189 6.11471 0.729614 5.07057 0.729614H5.06352C4.01326 0.731483 3.00666 1.15001 2.26468 1.89331C1.5227 2.63661 1.10597 3.64396 1.10597 4.69422V6.61305C1.10478 6.9182 1.19562 7.21661 1.36662 7.46935C1.53761 7.72209 1.78083 7.91741 2.06453 8.02982L2.51645 8.20937C2.56364 8.22809 2.60538 8.25835 2.63785 8.29737C2.67032 8.3364 2.69248 8.38295 2.70229 8.43276L2.8929 9.38827C2.92082 9.52638 2.99558 9.65061 3.10452 9.73997C3.21347 9.82933 3.34993 9.87833 3.49083 9.8787H3.69821C3.73865 9.8787 3.77743 9.86263 3.80603 9.83403C3.83463 9.80544 3.85069 9.76665 3.85069 9.72621V8.97237C3.85069 8.80825 3.97687 8.6674 4.14099 8.6592C4.18222 8.65721 4.22343 8.66362 4.26212 8.67803C4.3008 8.69244 4.33616 8.71455 4.36605 8.74303C4.39593 8.77151 4.41973 8.80576 4.43598 8.84371C4.45224 8.88165 4.46063 8.92251 4.46063 8.96379V9.72621C4.46063 9.76665 4.4767 9.80544 4.50529 9.83403C4.53389 9.86263 4.57267 9.8787 4.61312 9.8787C4.65356 9.8787 4.69234 9.86263 4.72094 9.83403C4.74954 9.80544 4.7656 9.76665 4.7656 9.72621V8.97237C4.7656 8.80825 4.89178 8.6674 5.05589 8.6592C5.09713 8.65721 5.13834 8.66362 5.17702 8.67803C5.21571 8.69244 5.25107 8.71455 5.28095 8.74303C5.31084 8.77151 5.33463 8.80576 5.35089 8.84371C5.36715 8.88165 5.37554 8.92251 5.37554 8.96379V9.72621C5.37554 9.76665 5.39161 9.80544 5.4202 9.83403C5.4488 9.86263 5.48758 9.8787 5.52802 9.8787C5.56847 9.8787 5.60725 9.86263 5.63585 9.83403C5.66444 9.80544 5.68051 9.76665 5.68051 9.72621V8.97237C5.68051 8.80825 5.80669 8.6674 5.9708 8.6592C6.01204 8.65721 6.05325 8.66362 6.09193 8.67803C6.13062 8.69244 6.16598 8.71455 6.19586 8.74303C6.22575 8.77151 6.24954 8.80576 6.2658 8.84371C6.28206 8.88165 6.29044 8.92251 6.29045 8.96379V9.72621C6.29045 9.76665 6.30651 9.80544 6.33511 9.83403C6.36371 9.86263 6.40249 9.8787 6.44293 9.8787H6.65031C6.79122 9.87838 6.9277 9.82943 7.03668 9.7401C7.14567 9.65078 7.22046 9.52656 7.24843 9.38846L7.43904 8.43276C7.44897 8.38302 7.47114 8.33655 7.50356 8.29754C7.53598 8.25854 7.57761 8.22823 7.62469 8.20937L8.07662 8.02982C8.36031 7.91741 8.60353 7.72209 8.77452 7.46935C8.94552 7.21661 9.03636 6.9182 9.03517 6.61305V4.72605C9.03517 3.65865 8.61584 2.65207 7.85342 1.89117ZM3.463 6.82671C3.2464 6.8409 3.03063 6.78872 2.84446 6.67712C2.65828 6.56552 2.51055 6.39982 2.42098 6.20211C2.3314 6.00439 2.30423 5.78407 2.34309 5.57051C2.38195 5.35696 2.48499 5.16033 2.63847 5.00684C2.79196 4.85336 2.98859 4.75032 3.20214 4.71146C3.4157 4.6726 3.63602 4.69977 3.83373 4.78935C4.03145 4.87892 4.19715 5.02665 4.30875 5.21283C4.42035 5.399 4.47253 5.61478 4.45834 5.83137C4.44142 6.08979 4.33112 6.33324 4.14799 6.51637C3.96487 6.69949 3.72142 6.80979 3.463 6.82671ZM5.54709 7.99646C5.49465 8.03144 5.43285 8.04971 5.36982 8.04888H4.77132C4.70842 8.04964 4.64677 8.03136 4.59444 7.99646C4.54332 7.96182 4.50393 7.91247 4.48147 7.85496C4.459 7.79744 4.45453 7.73446 4.46864 7.67434L4.77189 6.76706C4.82278 6.6384 4.90379 6.54309 5.03245 6.52651C5.18989 6.50745 5.2993 6.58121 5.36811 6.75943L5.67308 7.67434C5.68716 7.73447 5.68266 7.79747 5.66016 7.85499C5.63767 7.91251 5.59823 7.96184 5.54709 7.99646ZM6.81805 6.82671C6.60145 6.8409 6.38568 6.78872 6.1995 6.67712C6.01333 6.56552 5.8656 6.39982 5.77602 6.20211C5.68644 6.00439 5.65927 5.78407 5.69813 5.57051C5.73699 5.35696 5.84003 5.16033 5.99352 5.00684C6.147 4.85336 6.34363 4.75032 6.55719 4.71146C6.77074 4.6726 6.99107 4.69977 7.18878 4.78935C7.38649 4.87892 7.5522 5.02665 7.6638 5.21283C7.77539 5.399 7.82758 5.61478 7.81339 5.83137C7.79645 6.08985 7.6861 6.33335 7.5029 6.51648C7.3197 6.69962 7.07615 6.80988 6.81766 6.82671H6.81805Z" fill="black"/>
</g>
<defs>
<clipPath id="clip0_201_12960">
<rect width="9.75902" height="9.75902" fill="white" transform="translate(0.190918 0.424561)"/>
</clipPath>
</defs>
</svg>
