<svg width="10" height="11" viewBox="0 0 10 11" fill="none" xmlns="http://www.w3.org/2000/svg">
<g clip-path="url(#clip0_201_12972)">
<path d="M8.54655 6.39575L8.91346 6.19295L8.50785 5.45893L8.14094 5.66173C7.85959 5.81741 7.61032 6.02502 7.40634 6.27358L5.72787 5.30416L7.40653 4.33473C7.61051 4.58329 7.85978 4.7909 8.14113 4.94658L8.50804 5.14938L8.91365 4.41536L8.54674 4.21256C8.39941 4.13119 8.26496 4.02841 8.1478 3.90759L9.15877 3.32281L8.73944 2.59755L7.72923 3.18042C7.68289 3.01844 7.66092 2.85045 7.66404 2.68199L7.67185 2.26266L6.83319 2.24703L6.82537 2.66636C6.81946 2.98756 6.87437 3.30698 6.9872 3.60776L5.30853 4.57776V2.6391C5.62571 2.58664 5.93007 2.47456 6.20552 2.30878L6.56463 2.09245L6.13176 1.37405L5.77266 1.59039C5.62831 1.67718 5.47191 1.74212 5.30853 1.78309V0.729614H4.46987V1.78309C4.30649 1.74212 4.15009 1.67718 4.00574 1.59039L3.64664 1.37405L3.21377 2.09245L3.57288 2.30878C3.84833 2.47456 4.15269 2.58664 4.46987 2.6391V4.57776L2.7912 3.60776C2.90439 3.30679 2.95955 2.9871 2.95379 2.6656L2.94597 2.24627L2.10731 2.26189L2.11512 2.68123C2.11825 2.84969 2.09628 3.01767 2.04994 3.17966L1.03896 2.59755L0.619629 3.32376L1.63079 3.90778C1.51363 4.0286 1.37919 4.13138 1.23185 4.21275L0.864939 4.41536L1.27055 5.14938L1.63746 4.94658C1.91881 4.7909 2.16808 4.58329 2.37206 4.33473L4.05053 5.30416L2.37187 6.27358C2.16789 6.02502 1.91862 5.81741 1.63727 5.66173L1.27055 5.45893L0.864939 6.19295L1.23185 6.39575C1.37919 6.47712 1.51363 6.5799 1.63079 6.70072L0.619629 7.28646L1.03896 8.01266L2.05013 7.42884C2.09647 7.59083 2.11844 7.75881 2.11531 7.92727L2.1075 8.34661L2.94616 8.36224L2.95398 7.9429C2.95971 7.62132 2.90448 7.30157 2.7912 7.00055L4.46987 6.03055V7.96921C4.15269 8.02167 3.84833 8.13375 3.57288 8.29953L3.21377 8.51586L3.64664 9.23426L4.00574 9.01792C4.15009 8.93113 4.30649 8.86619 4.46987 8.82522V9.8787H5.30853V8.82522C5.47191 8.86619 5.62831 8.93113 5.77266 9.01792L6.13176 9.23426L6.56463 8.51586L6.20552 8.29953C5.93007 8.13375 5.62571 8.02167 5.30853 7.96921V6.03055L6.9872 7.00055C6.87401 7.30152 6.81885 7.62121 6.82461 7.94271L6.83243 8.36205L7.67109 8.34642L7.66328 7.92708C7.66033 7.75833 7.68255 7.59008 7.72923 7.42789L8.73944 8.01171L9.15877 7.28646L8.14856 6.70149C8.26538 6.58046 8.3995 6.47743 8.54655 6.39575Z" fill="black"/>
</g>
<defs>
<clipPath id="clip0_201_12972">
<rect width="9.75902" height="9.75902" fill="white" transform="translate(0.00976562 0.424561)"/>
</clipPath>
</defs>
</svg>
