<svg width="11" height="11" viewBox="0 0 11 11" fill="none" xmlns="http://www.w3.org/2000/svg">
<g clip-path="url(#clip0_201_12962)">
<path d="M5.47949 1.03455V9.57369" stroke="black" stroke-width="0.609939" stroke-linecap="round" stroke-linejoin="round"/>
<path d="M6.57975 1.94946C6.24771 2.14959 5.86725 2.25505 5.47957 2.25443C5.09189 2.25505 4.71143 2.14959 4.37939 1.94946" stroke="black" stroke-width="0.609939" stroke-linecap="round" stroke-linejoin="round"/>
<path d="M4.37939 8.65886C4.71167 8.4593 5.09197 8.35388 5.47957 8.35388C5.86717 8.35388 6.24747 8.4593 6.57975 8.65886" stroke="black" stroke-width="0.609939" stroke-linecap="round" stroke-linejoin="round"/>
<path d="M9.17735 3.16931L1.78223 7.43888" stroke="black" stroke-width="0.609939" stroke-linecap="round" stroke-linejoin="round"/>
<path d="M8.93479 4.57976C8.59576 4.39175 8.31428 4.11503 8.12051 3.77926C7.92674 3.44349 7.82797 3.06132 7.8348 2.67371" stroke="black" stroke-width="0.609939" stroke-linecap="round" stroke-linejoin="round"/>
<path d="M2.02441 6.02844C2.36344 6.21646 2.64492 6.49318 2.8387 6.82895C3.03247 7.16472 3.13123 7.54689 3.1244 7.9345" stroke="black" stroke-width="0.609939" stroke-linecap="round" stroke-linejoin="round"/>
<path d="M1.78223 3.16931L9.17735 7.43888" stroke="black" stroke-width="0.609939" stroke-linecap="round" stroke-linejoin="round"/>
<path d="M2.02441 4.57976C2.36344 4.39175 2.64492 4.11503 2.8387 3.77926C3.03247 3.44349 3.13123 3.06132 3.1244 2.67371" stroke="black" stroke-width="0.609939" stroke-linecap="round" stroke-linejoin="round"/>
<path d="M8.93479 6.02844C8.59576 6.21646 8.31428 6.49318 8.12051 6.82895C7.92674 7.16472 7.82797 7.54689 7.8348 7.9345" stroke="black" stroke-width="0.609939" stroke-linecap="round" stroke-linejoin="round"/>
</g>
<defs>
<clipPath id="clip0_201_12962">
<rect width="9.75902" height="9.75902" fill="white" transform="translate(0.600098 0.424561)"/>
</clipPath>
</defs>
</svg>
