<svg width="10" height="11" viewBox="0 0 10 11" fill="none" xmlns="http://www.w3.org/2000/svg">
<g clip-path="url(#clip0_201_12980)">
<path d="M4.20309 10.1836L3.2047 7.52241L0.543457 6.52401L3.2047 5.52562L4.20309 2.86438L5.20148 5.52562L7.86272 6.52401L5.20148 7.52241L4.20309 10.1836Z" fill="black"/>
<path d="M1.91561 3.77935L1.46635 2.55127L0.238281 2.10201L1.46635 1.65276L1.91561 0.424683L2.36487 1.65276L3.59294 2.10201L2.36487 2.55127L1.91561 3.77935Z" fill="black"/>
<path d="M7.86232 5.30412L7.26935 3.76231L5.72754 3.16933L7.26935 2.57636L7.86232 1.03455L8.4553 2.57636L9.99711 3.16933L8.4553 3.76231L7.86232 5.30412Z" fill="black"/>
</g>
<defs>
<clipPath id="clip0_201_12980">
<rect width="9.75902" height="9.75902" fill="white" transform="translate(0.238281 0.424561)"/>
</clipPath>
</defs>
</svg>
