<svg width="11" height="11" viewBox="0 0 11 11" fill="none" xmlns="http://www.w3.org/2000/svg">
<g clip-path="url(#clip0_201_12984)">
<path d="M4.6121 10.1836C4.51572 10.1841 4.42148 10.1551 4.34199 10.1007C4.26249 10.0462 4.20152 9.9687 4.16722 9.87862L3.40785 7.90395C3.39247 7.86416 3.36894 7.82802 3.33877 7.79785C3.30861 7.76769 3.27247 7.74416 3.23268 7.72878L1.25743 6.96883C1.16745 6.9343 1.09006 6.8733 1.03547 6.79387C0.980884 6.71445 0.95166 6.62034 0.95166 6.52396C0.95166 6.42758 0.980884 6.33347 1.03547 6.25405C1.09006 6.17462 1.16745 6.11362 1.25743 6.07909L3.23211 5.31971C3.2719 5.30433 3.30804 5.2808 3.3382 5.25064C3.36837 5.22047 3.3919 5.18434 3.40727 5.14455L4.16722 3.1693C4.20175 3.07932 4.26276 3.00193 4.34218 2.94734C4.42161 2.89275 4.51572 2.86353 4.6121 2.86353C4.70847 2.86353 4.80258 2.89275 4.88201 2.94734C4.96143 3.00193 5.02244 3.07932 5.05697 3.1693L5.81634 5.14397C5.83172 5.18377 5.85525 5.2199 5.88542 5.25007C5.91558 5.28023 5.95172 5.30376 5.99151 5.31914L7.95475 6.07451C8.04839 6.10922 8.12906 6.17194 8.18578 6.25414C8.2425 6.33633 8.27251 6.43401 8.27173 6.53387C8.27027 6.62857 8.24043 6.72065 8.18606 6.7982C8.13169 6.87575 8.05529 6.93519 7.96676 6.96883L5.99208 7.72821C5.95229 7.74359 5.91615 7.76712 5.88599 7.79728C5.85582 7.82745 5.83229 7.86358 5.81691 7.90338L5.05697 9.87862C5.02267 9.9687 4.9617 10.0462 4.8822 10.1007C4.80271 10.1551 4.70847 10.1841 4.6121 10.1836Z" fill="black"/>
<path d="M2.32476 3.77929C2.26825 3.77929 2.21307 3.76217 2.16649 3.73019C2.11991 3.6982 2.08412 3.65286 2.06382 3.60012L1.74246 2.76451C1.73549 2.74623 1.72474 2.72964 1.71091 2.71581C1.69708 2.70198 1.68049 2.69123 1.66221 2.68426L0.826594 2.3629C0.773869 2.3426 0.728531 2.3068 0.696554 2.26022C0.664577 2.21364 0.647461 2.15846 0.647461 2.10196C0.647461 2.04546 0.664577 1.99029 0.696554 1.94371C0.728531 1.89713 0.773869 1.86133 0.826594 1.84102L1.66221 1.51966C1.68047 1.51266 1.69705 1.5019 1.71087 1.48808C1.7247 1.47425 1.73546 1.45767 1.74246 1.43942L2.06096 0.611233C2.07892 0.562477 2.10983 0.519537 2.15036 0.487028C2.1909 0.45452 2.23953 0.433673 2.29102 0.426727C2.35284 0.419211 2.4154 0.432549 2.46879 0.464626C2.52217 0.496704 2.56331 0.545684 2.5857 0.603799L2.90706 1.43942C2.91405 1.45767 2.92482 1.47425 2.93864 1.48808C2.95247 1.5019 2.96905 1.51266 2.9873 1.51966L3.82292 1.84102C3.87564 1.86133 3.92098 1.89713 3.95296 1.94371C3.98494 1.99029 4.00205 2.04546 4.00205 2.10196C4.00205 2.15846 3.98494 2.21364 3.95296 2.26022C3.92098 2.3068 3.87564 2.3426 3.82292 2.3629L2.9873 2.68426C2.96903 2.69123 2.95243 2.70198 2.9386 2.71581C2.92477 2.72964 2.91402 2.74623 2.90706 2.76451L2.5857 3.60012C2.5654 3.65286 2.5296 3.6982 2.48302 3.73019C2.43644 3.76217 2.38126 3.77929 2.32476 3.77929Z" fill="black"/>
<path d="M8.27175 5.30411C8.21011 5.30409 8.14992 5.28539 8.09912 5.25048C8.04832 5.21557 8.00929 5.16609 7.98717 5.10855L7.55183 3.97692C7.54417 3.95698 7.53241 3.93887 7.5173 3.92377C7.5022 3.90866 7.48409 3.8969 7.46415 3.88924L6.33252 3.4539C6.27503 3.43175 6.2256 3.3927 6.19073 3.3419C6.15587 3.2911 6.13721 3.23094 6.13721 3.16932C6.13721 3.10771 6.15587 3.04754 6.19073 2.99675C6.2256 2.94595 6.27503 2.9069 6.33252 2.88475L7.46415 2.44941C7.48409 2.44175 7.5022 2.42998 7.5173 2.41488C7.53241 2.39978 7.54417 2.38167 7.55183 2.36173L7.98393 1.2381C8.00366 1.18497 8.03742 1.13818 8.08162 1.1027C8.12582 1.06722 8.17882 1.04439 8.23496 1.03663C8.30242 1.02847 8.37068 1.04307 8.4289 1.07812C8.48712 1.11317 8.53197 1.16666 8.55632 1.2301L8.99167 2.36173C8.99932 2.38167 9.01109 2.39978 9.02619 2.41488C9.0413 2.42998 9.0594 2.44175 9.07934 2.44941L10.211 2.88475C10.2685 2.9069 10.3179 2.94595 10.3528 2.99675C10.3876 3.04754 10.4063 3.10771 10.4063 3.16932C10.4063 3.23094 10.3876 3.2911 10.3528 3.3419C10.3179 3.3927 10.2685 3.43175 10.211 3.4539L9.07934 3.88924C9.0594 3.8969 9.0413 3.90866 9.02619 3.92377C9.01109 3.93887 8.99932 3.95698 8.99167 3.97692L8.55632 5.10855C8.53421 5.16609 8.49518 5.21557 8.44438 5.25048C8.39358 5.28539 8.33339 5.30409 8.27175 5.30411Z" fill="black"/>
</g>
<defs>
<clipPath id="clip0_201_12984">
<rect width="9.75902" height="9.75902" fill="white" transform="translate(0.647461 0.424561)"/>
</clipPath>
</defs>
</svg>
