<svg width="11" height="11" viewBox="0 0 11 11" fill="none" xmlns="http://www.w3.org/2000/svg">
<g clip-path="url(#clip0_201_12996)">
<path d="M5.34604 1.33936C2.81975 1.33936 0.771495 3.40838 0.771495 5.96269C0.769103 7.09059 1.17785 8.1807 1.92123 9.02897C1.94372 9.05375 1.96412 9.07853 1.98661 9.10121C2.16673 9.26856 2.22143 9.26856 2.36439 9.26856C2.50734 9.26856 2.60131 9.26856 2.74427 9.0993C3.36373 8.36585 4.31676 8.04868 5.34604 8.04868C6.37531 8.04868 7.32967 8.36718 7.94781 9.0993C8.09076 9.26856 8.18263 9.26856 8.32768 9.26856C8.47273 9.26856 8.54307 9.26856 8.70546 9.10121C8.72872 9.07738 8.74835 9.05375 8.77084 9.02897C9.51422 8.1807 9.92297 7.09059 9.92058 5.96269C9.92058 3.40838 7.87233 1.33936 5.34604 1.33936ZM5.04107 2.55923H5.65101V3.77911H5.04107V2.55923ZM3.21125 6.21887H1.99137V5.60893H3.21125V6.21887ZM3.62086 4.62006L2.75837 3.75738L3.18952 3.32623L4.0522 4.18872L3.62086 4.62006ZM5.77681 6.28367C5.73976 6.33501 5.69472 6.38006 5.64338 6.4171C5.51945 6.50355 5.36643 6.53764 5.21752 6.51197C5.06861 6.4863 4.93583 6.40294 4.848 6.27998C4.76017 6.15702 4.72438 6.00439 4.74839 5.8552C4.77241 5.70601 4.85428 5.57232 4.97626 5.48313L6.56591 4.69402L5.77681 6.28367ZM6.63987 4.18872L7.50255 3.32623L7.9337 3.75738L7.07121 4.62006L6.63987 4.18872ZM8.7007 6.21887H7.48082V5.60893H8.7007V6.21887Z" fill="black"/>
</g>
<defs>
<clipPath id="clip0_201_12996">
<rect width="9.75902" height="9.75902" fill="white" transform="translate(0.466309 0.424561)"/>
</clipPath>
</defs>
</svg>
