<svg width="11" height="11" viewBox="0 0 11 11" fill="none" xmlns="http://www.w3.org/2000/svg">
<g clip-path="url(#clip0_201_12998)">
<path d="M8.98996 2.67844C8.14827 1.84178 7.01436 1.36497 5.82768 1.3487C4.64101 1.33243 3.49446 1.77798 2.63014 2.59126C1.76583 3.40453 1.25141 4.52188 1.19551 5.70735C1.13961 6.89282 1.54662 8.05362 2.33057 8.94461L2.334 8.94842C2.34029 8.9551 2.3462 8.96196 2.35306 8.96844C2.36717 8.98445 2.38318 9.00256 2.40205 9.02143C2.47605 9.10008 2.5655 9.16262 2.66478 9.20512C2.76406 9.24762 2.87105 9.26917 2.97904 9.26841C3.08704 9.26766 3.19372 9.24463 3.2924 9.20075C3.39108 9.15687 3.47964 9.0931 3.55255 9.01342C3.83305 8.70856 4.17376 8.46521 4.55312 8.29875C4.93248 8.1323 5.34225 8.04635 5.75652 8.04635C6.1708 8.04635 6.58057 8.1323 6.95993 8.29875C7.33929 8.46521 7.67999 8.70856 7.9605 9.01342C8.03394 9.09352 8.12321 9.1575 8.22267 9.2013C8.32212 9.2451 8.42959 9.26777 8.53826 9.26788C8.64693 9.26798 8.75444 9.24553 8.85398 9.20192C8.95352 9.15832 9.04292 9.09452 9.11652 9.01456L9.17771 8.94785L9.18114 8.94404C9.95358 8.0718 10.364 6.93763 10.3286 5.77306C10.2931 4.6085 9.81456 3.50136 8.99053 2.67768L8.98996 2.67844ZM5.45041 2.86428C5.45041 2.7834 5.48254 2.70583 5.53973 2.64864C5.59693 2.59145 5.6745 2.55932 5.75538 2.55932C5.83626 2.55932 5.91383 2.59145 5.97102 2.64864C6.02822 2.70583 6.06035 2.7834 6.06035 2.86428V3.47422C6.06035 3.55511 6.02822 3.63268 5.97102 3.68987C5.91383 3.74706 5.83626 3.77919 5.75538 3.77919C5.6745 3.77919 5.59693 3.74706 5.53973 3.68987C5.48254 3.63268 5.45041 3.55511 5.45041 3.47422V2.86428ZM3.31562 6.21895H2.70568C2.6248 6.21895 2.54723 6.18682 2.49004 6.12962C2.43285 6.07243 2.40072 5.99486 2.40072 5.91398C2.40072 5.8331 2.43285 5.75553 2.49004 5.69833C2.54723 5.64114 2.6248 5.60901 2.70568 5.60901H3.31562C3.39651 5.60901 3.47408 5.64114 3.53127 5.69833C3.58846 5.75553 3.62059 5.8331 3.62059 5.91398C3.62059 5.99486 3.58846 6.07243 3.53127 6.12962C3.47408 6.18682 3.39651 6.21895 3.31562 6.21895ZM4.24578 4.40438C4.18859 4.46153 4.11105 4.49363 4.0302 4.49363C3.94936 4.49363 3.87182 4.46153 3.81463 4.40438L3.38329 3.97323C3.32609 3.91603 3.29395 3.83845 3.29395 3.75756C3.29395 3.67667 3.32609 3.59909 3.38329 3.54189C3.44049 3.48469 3.51807 3.45255 3.59896 3.45255C3.67985 3.45255 3.75743 3.48469 3.81463 3.54189L4.24578 3.97323C4.30293 4.03042 4.33503 4.10796 4.33503 4.18881C4.33503 4.26965 4.30293 4.34719 4.24578 4.40438ZM7.09153 4.84468L6.18615 6.28375C6.14911 6.33509 6.10406 6.38014 6.05272 6.41718C5.92879 6.50363 5.77577 6.53773 5.62686 6.51206C5.47795 6.48639 5.34517 6.40303 5.25734 6.28007C5.16951 6.15711 5.13372 6.00447 5.15773 5.85528C5.18175 5.7061 5.26363 5.5724 5.3856 5.48321L6.82468 4.57783C6.85739 4.55503 6.89631 4.5428 6.93618 4.5428C6.97606 4.5428 7.01497 4.55503 7.04769 4.57783C7.08877 4.60749 7.11644 4.65221 7.12466 4.70221C7.13287 4.75221 7.12096 4.80343 7.09153 4.84468ZM7.69613 4.40438C7.63847 4.45916 7.56169 4.48925 7.48217 4.48823C7.40265 4.48721 7.32666 4.45517 7.27043 4.39893C7.21419 4.34269 7.18215 4.26671 7.18113 4.18719C7.18011 4.10766 7.2102 4.03089 7.26498 3.97323L7.69613 3.54189C7.75333 3.48469 7.83091 3.45255 7.9118 3.45255C7.99269 3.45255 8.07027 3.48469 8.12747 3.54189C8.18467 3.59909 8.2168 3.67667 8.2168 3.75756C8.2168 3.83845 8.18467 3.91603 8.12747 3.97323L7.69613 4.40438ZM8.80507 6.21895H8.19513C8.11425 6.21895 8.03668 6.18682 7.97949 6.12962C7.9223 6.07243 7.89016 5.99486 7.89016 5.91398C7.89016 5.8331 7.9223 5.75553 7.97949 5.69833C8.03668 5.64114 8.11425 5.60901 8.19513 5.60901H8.80507C8.88596 5.60901 8.96353 5.64114 9.02072 5.69833C9.07791 5.75553 9.11004 5.8331 9.11004 5.91398C9.11004 5.99486 9.07791 6.07243 9.02072 6.12962C8.96353 6.18682 8.88596 6.21895 8.80507 6.21895Z" fill="black"/>
</g>
<defs>
<clipPath id="clip0_201_12998">
<rect width="9.75902" height="9.75902" fill="white" transform="translate(0.875977 0.424561)"/>
</clipPath>
</defs>
</svg>
