<svg width="11" height="11" viewBox="0 0 11 11" fill="none" xmlns="http://www.w3.org/2000/svg">
<g clip-path="url(#clip0_201_13030)">
<path d="M2.77149 9.8785H2.16156C2.04023 9.8785 1.92388 9.83031 1.83809 9.74452C1.7523 9.65873 1.7041 9.54238 1.7041 9.42105V6.67633C1.7041 6.555 1.7523 6.43865 1.83809 6.35286C1.92388 6.26707 2.04023 6.21887 2.16156 6.21887H2.77149C2.89282 6.21887 3.00917 6.26707 3.09496 6.35286C3.18075 6.43865 3.22895 6.555 3.22895 6.67633V9.42105C3.22895 9.54238 3.18075 9.65873 3.09496 9.74452C3.00917 9.83031 2.89282 9.8785 2.77149 9.8785Z" fill="black"/>
<path d="M7.04103 9.87849H6.43109C6.30976 9.87849 6.19341 9.83029 6.10762 9.7445C6.02183 9.65871 5.97363 9.54236 5.97363 9.42103V4.84649C5.97363 4.72517 6.02183 4.60881 6.10762 4.52302C6.19341 4.43723 6.30976 4.38904 6.43109 4.38904H7.04103C7.16235 4.38904 7.27871 4.43723 7.36449 4.52302C7.45028 4.60881 7.49848 4.72517 7.49848 4.84649V9.42103C7.49848 9.54236 7.45028 9.65871 7.36449 9.7445C7.27871 9.83029 7.16235 9.87849 7.04103 9.87849Z" fill="black"/>
<path d="M9.17579 9.87851H8.56585C8.44453 9.87851 8.32817 9.83031 8.24238 9.74452C8.15659 9.65873 8.1084 9.54238 8.1084 9.42105V2.71173C8.1084 2.5904 8.15659 2.47405 8.24238 2.38826C8.32817 2.30247 8.44453 2.25427 8.56585 2.25427H9.17579C9.29712 2.25427 9.41347 2.30247 9.49926 2.38826C9.58505 2.47405 9.63325 2.5904 9.63325 2.71173V9.42105C9.63325 9.54238 9.58505 9.65873 9.49926 9.74452C9.41347 9.83031 9.29712 9.87851 9.17579 9.87851Z" fill="black"/>
<path d="M4.90626 9.87845H4.29632C4.175 9.87845 4.05864 9.83026 3.97285 9.74447C3.88706 9.65868 3.83887 9.54232 3.83887 9.421V1.18682C3.83887 1.0655 3.88706 0.949145 3.97285 0.863355C4.05864 0.777566 4.175 0.72937 4.29632 0.72937H4.90626C5.02758 0.72937 5.14394 0.777566 5.22973 0.863355C5.31552 0.949145 5.36371 1.0655 5.36371 1.18682V9.421C5.36371 9.54232 5.31552 9.65868 5.22973 9.74447C5.14394 9.83026 5.02758 9.87845 4.90626 9.87845Z" fill="black"/>
</g>
<defs>
<clipPath id="clip0_201_13030">
<rect width="9.75902" height="9.75902" fill="white" transform="translate(0.789062 0.424561)"/>
</clipPath>
</defs>
</svg>
