<svg width="11" height="11" viewBox="0 0 11 11" fill="none" xmlns="http://www.w3.org/2000/svg">
<g clip-path="url(#clip0_201_13020)">
<path d="M2.95236 6.5238H2.34243C2.25821 6.5238 2.18994 6.59207 2.18994 6.67629V9.42101C2.18994 9.50523 2.25821 9.5735 2.34243 9.5735H2.95236C3.03658 9.5735 3.10485 9.50523 3.10485 9.42101V6.67629C3.10485 6.59207 3.03658 6.5238 2.95236 6.5238Z" stroke="black" stroke-width="0.609939" stroke-linecap="round" stroke-linejoin="round"/>
<path d="M7.22238 4.69397H6.61245C6.52823 4.69397 6.45996 4.76224 6.45996 4.84645V9.421C6.45996 9.50521 6.52823 9.57348 6.61245 9.57348H7.22238C7.3066 9.57348 7.37487 9.50521 7.37487 9.421V4.84645C7.37487 4.76224 7.3066 4.69397 7.22238 4.69397Z" stroke="black" stroke-width="0.609939" stroke-linecap="round" stroke-linejoin="round"/>
<path d="M9.35715 2.5592H8.74721C8.663 2.5592 8.59473 2.62747 8.59473 2.71169V9.42102C8.59473 9.50523 8.663 9.5735 8.74721 9.5735H9.35715C9.44137 9.5735 9.50963 9.50523 9.50963 9.42102V2.71169C9.50963 2.62747 9.44137 2.5592 9.35715 2.5592Z" stroke="black" stroke-width="0.609939" stroke-linecap="round" stroke-linejoin="round"/>
<path d="M5.08713 1.03442H4.47719C4.39298 1.03442 4.32471 1.10269 4.32471 1.18691V9.42108C4.32471 9.5053 4.39298 9.57357 4.47719 9.57357H5.08713C5.17135 9.57357 5.23962 9.5053 5.23962 9.42108V1.18691C5.23962 1.10269 5.17135 1.03442 5.08713 1.03442Z" stroke="black" stroke-width="0.609939" stroke-linecap="round" stroke-linejoin="round"/>
</g>
<defs>
<clipPath id="clip0_201_13020">
<rect width="9.75902" height="9.75902" fill="white" transform="translate(0.970215 0.424561)"/>
</clipPath>
</defs>
</svg>
