<svg width="10" height="11" viewBox="0 0 10 11" fill="none" xmlns="http://www.w3.org/2000/svg">
<g clip-path="url(#clip0_201_13040)">
<path d="M4.89722 1.33923C2.71116 1.33923 0.932617 3.11778 0.932617 5.30384C0.932617 7.48989 2.71116 9.26844 4.89722 9.26844C7.08328 9.26844 8.86182 7.48989 8.86182 5.30384C8.86182 3.11778 7.08328 1.33923 4.89722 1.33923ZM6.42207 6.34073C6.42197 6.47011 6.37052 6.59417 6.27904 6.68565C6.18755 6.77714 6.0635 6.82858 5.93411 6.82868H3.86032C3.73094 6.82858 3.60689 6.77714 3.5154 6.68565C3.42391 6.59417 3.37247 6.47011 3.37237 6.34073V4.26694C3.37247 4.13756 3.42391 4.0135 3.5154 3.92202C3.60689 3.83053 3.73094 3.77909 3.86032 3.77899H5.93411C6.0635 3.77909 6.18755 3.83053 6.27904 3.92202C6.37052 4.0135 6.42197 4.13756 6.42207 4.26694V6.34073Z" fill="black"/>
</g>
<defs>
<clipPath id="clip0_201_13040">
<rect width="9.75902" height="9.75902" fill="white" transform="translate(0.0175781 0.424316)"/>
</clipPath>
</defs>
</svg>
