<svg width="11" height="11" viewBox="0 0 11 11" fill="none" xmlns="http://www.w3.org/2000/svg">
<path d="M5.3538 5.91377C5.52223 5.91377 5.65877 5.77723 5.65877 5.6088C5.65877 5.44037 5.52223 5.30383 5.3538 5.30383C5.18537 5.30383 5.04883 5.44037 5.04883 5.6088C5.04883 5.77723 5.18537 5.91377 5.3538 5.91377Z" fill="black"/>
<path d="M5.81094 1.97776V1.79669C5.81094 1.67536 5.76274 1.55901 5.67695 1.47322C5.59116 1.38743 5.47481 1.33923 5.35348 1.33923C5.23216 1.33923 5.1158 1.38743 5.03001 1.47322C4.94422 1.55901 4.89603 1.67536 4.89603 1.79669V1.97776C4.31835 2.05028 3.76648 2.2603 3.28674 2.59018L3.08527 2.38757C2.99933 2.30163 2.88278 2.25335 2.76124 2.25335C2.63971 2.25335 2.52315 2.30163 2.43721 2.38757C2.35127 2.4735 2.30299 2.59006 2.30299 2.7116C2.30299 2.83313 2.35127 2.94969 2.43721 3.03563L2.60113 3.19955C2.01563 3.86549 1.69305 4.72208 1.69385 5.60881C1.69385 7.62675 3.33554 9.26844 5.35348 9.26844C7.37143 9.26844 9.01311 7.62675 9.01311 5.60881C9.01311 3.74582 7.61369 2.20344 5.81094 1.97776ZM5.35348 6.52371C5.13771 6.52365 4.92889 6.44733 4.76394 6.30823C4.59898 6.16912 4.4885 5.97619 4.45201 5.76353C4.41552 5.55086 4.45537 5.33213 4.56452 5.146C4.67367 4.95987 4.8451 4.8183 5.04851 4.74631V3.32153C5.04851 3.24065 5.08064 3.16308 5.13784 3.10589C5.19503 3.0487 5.2726 3.01657 5.35348 3.01657C5.43436 3.01657 5.51194 3.0487 5.56913 3.10589C5.62632 3.16308 5.65845 3.24065 5.65845 3.32153V4.74631C5.86187 4.8183 6.03329 4.95987 6.14244 5.146C6.25159 5.33213 6.29144 5.55086 6.25495 5.76353C6.21846 5.97619 6.10798 6.16912 5.94303 6.30823C5.77807 6.44733 5.56926 6.52365 5.35348 6.52371Z" fill="black"/>
</svg>
