<svg width="11" height="11" viewBox="0 0 11 11" fill="none" xmlns="http://www.w3.org/2000/svg">
<g clip-path="url(#clip0_201_13059)">
<path d="M9.42236 8.96338V4.99878" stroke="black" stroke-width="0.609939" stroke-linecap="round" stroke-linejoin="round"/>
<path d="M2.10303 4.99878V8.96338" stroke="black" stroke-width="0.609939" stroke-linecap="round" stroke-linejoin="round"/>
<path d="M8.17327 1.33923H3.35208C2.93675 1.33923 2.56164 1.56796 2.40039 1.91982L1.57506 3.72181C1.29716 4.32812 1.75862 5.01507 2.47453 5.03699C2.48724 5.03699 2.49995 5.03699 2.51266 5.03699C3.11116 5.03699 3.59625 4.55704 3.59625 4.04145C3.59625 4.55609 4.08153 5.03699 4.68003 5.03699C5.27854 5.03699 5.76268 4.59135 5.76268 4.04145C5.76268 4.55609 6.24777 5.03699 6.84627 5.03699C7.44477 5.03699 7.93005 4.59135 7.93005 4.04145C7.93005 4.59135 8.41515 5.03699 9.01365 5.03699C9.02636 5.03699 9.03875 5.03699 9.05082 5.03699C9.76673 5.01469 10.2282 4.32774 9.95029 3.72181L9.12496 1.91982C8.96371 1.56796 8.5886 1.33923 8.17327 1.33923Z" stroke="black" stroke-width="0.609939" stroke-linecap="round" stroke-linejoin="round"/>
<path d="M1.49316 9.26843H10.0323" stroke="black" stroke-width="0.609939" stroke-linecap="round" stroke-linejoin="round"/>
<path d="M3.47552 5.9137H5.00037C5.12169 5.9137 5.23805 5.96189 5.32384 6.04768C5.40963 6.13347 5.45782 6.24983 5.45782 6.37115V8.04848H3.01807V6.37115C3.01807 6.24983 3.06626 6.13347 3.15205 6.04768C3.23784 5.96189 3.3542 5.9137 3.47552 5.9137Z" stroke="black" stroke-width="0.609939" stroke-linecap="round" stroke-linejoin="round"/>
<path d="M6.37256 9.26836V6.37115C6.37256 6.24983 6.42075 6.13347 6.50654 6.04768C6.59233 5.96189 6.70869 5.9137 6.83001 5.9137H8.04989C8.17121 5.9137 8.28757 5.96189 8.37336 6.04768C8.45915 6.13347 8.50734 6.24983 8.50734 6.37115V9.26836" stroke="black" stroke-width="0.609939" stroke-linecap="round" stroke-linejoin="round"/>
</g>
<defs>
<clipPath id="clip0_201_13059">
<rect width="9.75902" height="9.75902" fill="white" transform="translate(0.883301 0.424316)"/>
</clipPath>
</defs>
</svg>
