<svg width="11" height="11" viewBox="0 0 11 11" fill="none" xmlns="http://www.w3.org/2000/svg">
<g clip-path="url(#clip0_201_13066)">
<path d="M9.13729 8.96363V5.52987C8.93237 5.60643 8.71627 5.6488 8.49761 5.65528C8.47512 5.65528 8.45377 5.65624 8.43281 5.65624C8.05023 5.65727 7.67493 5.55166 7.34902 5.35127C7.02317 5.55163 6.64795 5.65723 6.26543 5.65624C5.88448 5.65675 5.51113 5.54972 5.18831 5.34746C4.861 5.5505 4.48322 5.65749 4.09805 5.65624C3.71449 5.65674 3.33868 5.5482 3.01446 5.34326C2.69023 5.5482 2.31442 5.65674 1.93086 5.65624C1.91008 5.65624 1.88912 5.65624 1.86663 5.65528H1.86548C1.64046 5.6486 1.41818 5.60388 1.20808 5.523V8.96363H0.598145V9.57357H9.74723V8.96363H9.13729ZM4.56275 7.74375H2.73293V6.29515C2.73293 6.27493 2.74096 6.25553 2.75526 6.24124C2.76956 6.22694 2.78895 6.21891 2.80917 6.21891H4.4865C4.50672 6.21891 4.52612 6.22694 4.54042 6.24124C4.55471 6.25553 4.56275 6.27493 4.56275 6.29515V7.74375ZM7.61244 8.96363H6.08759V6.29515C6.08759 6.27493 6.09563 6.25553 6.10992 6.24124C6.12422 6.22694 6.14361 6.21891 6.16384 6.21891H7.5362C7.55642 6.21891 7.57581 6.22694 7.59011 6.24124C7.60441 6.25553 7.61244 6.27493 7.61244 6.29515V8.96363Z" fill="black"/>
<path d="M9.68209 3.67012L8.79234 1.64436C8.52759 1.03442 8.52759 1.03442 7.91765 1.03442H2.4282C1.81826 1.03442 1.81826 1.03442 1.55256 1.64436L0.662812 3.67012C0.491266 4.04009 0.717897 4.41997 0.718087 4.42016L0.725902 4.43274C0.733908 4.44532 0.747441 4.46609 0.75678 4.47791C0.758687 4.48039 0.760402 4.48306 0.762117 4.48553L0.861995 4.60733L0.963207 4.7053L0.971212 4.71216C1.02748 4.76018 1.08767 4.80341 1.15114 4.84139V4.84235C1.35858 4.96801 1.59492 5.03805 1.83733 5.04572C1.85295 5.04572 1.86858 5.04572 1.8844 5.04572C2.25118 5.04641 2.60459 4.90808 2.87346 4.6586C2.91228 4.62262 2.949 4.58444 2.98344 4.54424C3.01799 4.5844 3.05477 4.62258 3.09361 4.6586C3.36247 4.90808 3.71588 5.04641 4.08266 5.04572C4.52639 5.04572 4.92266 4.85512 5.18112 4.55854C5.18151 4.55817 5.18202 4.55797 5.18255 4.55797C5.18308 4.55797 5.18359 4.55817 5.18398 4.55854L5.29187 4.65879C5.56079 4.9083 5.91427 5.04663 6.28111 5.04592C6.72503 5.04592 7.12187 4.85531 7.38014 4.55777C7.6386 4.85531 8.03526 5.04592 8.47937 5.04592H8.52683C8.76315 5.03709 8.99309 4.9668 9.19395 4.84197C9.21206 4.8311 9.2294 4.81967 9.24694 4.80823C9.38242 4.71685 9.50032 4.60179 9.59498 4.46857L9.6331 4.41139C9.65026 4.3725 9.84677 4.02446 9.68209 3.67012Z" fill="black"/>
</g>
<defs>
<clipPath id="clip0_201_13066">
<rect width="9.75902" height="9.75902" fill="white" transform="translate(0.292969 0.424561)"/>
</clipPath>
</defs>
</svg>
