<svg width="11" height="11" viewBox="0 0 11 11" fill="none" xmlns="http://www.w3.org/2000/svg">
<g clip-path="url(#clip0_201_13069)">
<path d="M9.85136 8.9634H9.62264C9.60242 8.9634 9.58302 8.95537 9.56873 8.94107C9.55443 8.92677 9.54639 8.90738 9.54639 8.88716V5.63752C9.54657 5.62539 9.54384 5.61339 9.53845 5.60253C9.53306 5.59166 9.52515 5.58224 9.51538 5.57504C9.50561 5.56785 9.49427 5.56309 9.48229 5.56116C9.47031 5.55923 9.45805 5.56018 9.44652 5.56395C9.27161 5.61892 9.08998 5.64957 8.90672 5.65505C8.88423 5.65505 8.86288 5.65601 8.84192 5.65601C8.48943 5.65684 8.14262 5.56733 7.83456 5.39602C7.81124 5.38305 7.785 5.37625 7.75832 5.37625C7.73164 5.37625 7.7054 5.38305 7.68208 5.39602C7.37409 5.56733 7.02734 5.65684 6.67492 5.65601C6.32447 5.6565 5.9799 5.56593 5.675 5.39316C5.65148 5.37985 5.62492 5.37285 5.5979 5.37285C5.57088 5.37285 5.54431 5.37985 5.5208 5.39316C5.21131 5.56658 4.8623 5.65718 4.50754 5.6562C4.15474 5.65643 3.808 5.56444 3.50171 5.38935C3.47801 5.37587 3.45121 5.36877 3.42394 5.36877C3.39668 5.36877 3.36988 5.37587 3.34618 5.38935C3.03989 5.56444 2.69315 5.65643 2.34035 5.6562C2.31957 5.6562 2.29861 5.6562 2.27612 5.65525H2.27497C2.08528 5.64955 1.89736 5.61689 1.71688 5.55823C1.70545 5.55453 1.69331 5.55359 1.68145 5.55548C1.66958 5.55737 1.65833 5.56203 1.64862 5.5691C1.6389 5.57616 1.63099 5.58541 1.62553 5.59611C1.62007 5.60681 1.61721 5.61865 1.61719 5.63066V8.88716C1.61719 8.90738 1.60916 8.92677 1.59486 8.94107C1.58056 8.95537 1.56117 8.9634 1.54095 8.9634H1.32175C1.15707 8.9634 1.01488 9.08996 1.00763 9.25465C1.00578 9.2958 1.01228 9.33691 1.02675 9.37548C1.04122 9.41406 1.06336 9.4493 1.09182 9.47908C1.12029 9.50887 1.15449 9.53257 1.19237 9.54877C1.23025 9.56497 1.27102 9.57333 1.31222 9.57334H9.84183C10.0065 9.57334 10.1487 9.44678 10.156 9.28209C10.1578 9.24094 10.1513 9.19983 10.1368 9.16126C10.1224 9.12268 10.1002 9.08744 10.0718 9.05766C10.0433 9.02788 10.0091 9.00417 9.97121 8.98797C9.93333 8.97177 9.89256 8.96341 9.85136 8.9634ZM4.97185 7.66728C4.97185 7.6875 4.96382 7.70689 4.94952 7.72119C4.93522 7.73549 4.91583 7.74352 4.89561 7.74352H3.21828C3.19806 7.74352 3.17867 7.73549 3.16437 7.72119C3.15007 7.70689 3.14204 7.6875 3.14204 7.66728V6.4474C3.14204 6.38674 3.16614 6.32856 3.20903 6.28567C3.25192 6.24277 3.3101 6.21868 3.37076 6.21868H4.74313C4.80379 6.21868 4.86197 6.24277 4.90486 6.28567C4.94776 6.32856 4.97185 6.38674 4.97185 6.4474V7.66728ZM7.94531 8.9634H6.57294C6.55272 8.9634 6.53333 8.95537 6.51903 8.94107C6.50473 8.92677 6.4967 8.90738 6.4967 8.88716V6.4474C6.4967 6.38674 6.5208 6.32856 6.56369 6.28567C6.60659 6.24277 6.66477 6.21868 6.72543 6.21868H7.79282C7.85348 6.21868 7.91166 6.24277 7.95456 6.28567C7.99745 6.32856 8.02155 6.38674 8.02155 6.4474V8.88716C8.02155 8.90738 8.01351 8.92677 7.99922 8.94107C7.98492 8.95537 7.96553 8.9634 7.94531 8.9634Z" fill="black"/>
<path d="M10.0908 3.66988L9.2727 1.7926C9.05846 1.33191 8.56918 1.03418 8.02614 1.03418H3.13615C2.59311 1.03418 2.10382 1.33191 1.88958 1.7926L1.0715 3.66988C0.899958 4.03984 1.12659 4.41972 1.12678 4.41991L1.13212 4.42849C1.14146 4.44336 1.15804 4.46661 1.16814 4.48148C1.16909 4.48262 1.16986 4.48396 1.17081 4.48529L1.26611 4.60061C1.26968 4.60496 1.27349 4.6091 1.27755 4.613L1.37285 4.70506L1.38086 4.71192C1.43682 4.75989 1.49669 4.80312 1.55984 4.84115V4.8421C1.76727 4.96776 2.00361 5.03781 2.24602 5.04548C2.26165 5.04548 2.27728 5.04548 2.2931 5.04548C2.65987 5.04616 3.01329 4.90784 3.28215 4.65836L3.28844 4.65245C3.31652 4.62599 3.35364 4.61126 3.39223 4.61126C3.43081 4.61126 3.46793 4.62599 3.49601 4.65245L3.5023 4.65836C3.77403 4.90741 4.12924 5.04557 4.49783 5.04557C4.86643 5.04557 5.22164 4.90741 5.49337 4.65836C5.52155 4.63226 5.55855 4.61777 5.59696 4.61777C5.63537 4.61777 5.67237 4.63226 5.70056 4.65836C5.97148 4.90663 6.32539 5.04471 6.69286 5.04552C7.06033 5.04633 7.41484 4.90981 7.68686 4.66274C7.71463 4.63702 7.75108 4.62273 7.78893 4.62273C7.82678 4.62273 7.86323 4.63702 7.891 4.66274C8.1633 4.91132 8.51937 5.048 8.88806 5.04548H8.93552C9.17184 5.03666 9.40178 4.96636 9.60264 4.84153C9.62075 4.83067 9.63809 4.81923 9.65563 4.80779C9.7911 4.71647 9.909 4.60147 10.0037 4.46833L10.0368 4.4182C10.0401 4.41311 10.0432 4.40778 10.046 4.40219C10.0776 4.33776 10.2473 4.00649 10.0908 3.66988Z" fill="black"/>
</g>
<defs>
<clipPath id="clip0_201_13069">
<rect width="9.75902" height="9.75902" fill="white" transform="translate(0.702148 0.424316)"/>
</clipPath>
</defs>
</svg>
