<svg width="11" height="11" viewBox="0 0 11 11" fill="none" xmlns="http://www.w3.org/2000/svg">
<g clip-path="url(#clip0_201_13081)">
<path d="M7.99252 0.729248H2.80804C2.68672 0.729248 2.57036 0.777444 2.48457 0.863233C2.39878 0.949023 2.35059 1.06538 2.35059 1.1867V7.59106C2.35059 7.71238 2.39878 7.82874 2.48457 7.91453C2.57036 8.00032 2.68672 8.04851 2.80804 8.04851H7.99252C8.11384 8.04851 8.2302 8.00032 8.31599 7.91453C8.40178 7.82874 8.44997 7.71238 8.44997 7.59106V1.1867C8.44997 1.06538 8.40178 0.949023 8.31599 0.863233C8.2302 0.777444 8.11384 0.729248 7.99252 0.729248ZM4.48537 1.64416H6.30661C6.47072 1.64416 6.61158 1.77034 6.61978 1.93445C6.62176 1.97568 6.61536 2.01689 6.60095 2.05558C6.58654 2.09426 6.56442 2.12962 6.53594 2.15951C6.50746 2.1894 6.47321 2.21319 6.43527 2.22945C6.39732 2.24571 6.35647 2.25409 6.31519 2.2541H4.49395C4.32984 2.2541 4.18898 2.12791 4.18078 1.9638C4.1788 1.92257 4.1852 1.88136 4.19961 1.84267C4.21402 1.80399 4.23614 1.76863 4.26462 1.73874C4.29309 1.70886 4.32734 1.68506 4.36529 1.6688C4.40324 1.65255 4.44409 1.64416 4.48537 1.64416ZM3.94157 7.13017C3.81604 7.14384 3.68937 7.1182 3.57903 7.05681C3.46868 6.99541 3.38012 6.90129 3.32555 6.78742C3.27097 6.67355 3.25309 6.54554 3.27436 6.42108C3.29563 6.29661 3.355 6.18181 3.44429 6.09252C3.53358 6.00324 3.64838 5.94386 3.77284 5.92259C3.89731 5.90132 4.02531 5.91921 4.13918 5.97378C4.25305 6.02835 4.34718 6.11692 4.40857 6.22726C4.46997 6.3376 4.4956 6.46428 4.48194 6.58981C4.46691 6.72796 4.40514 6.85684 4.30687 6.95511C4.20861 7.05338 4.07973 7.11514 3.94157 7.13017ZM6.99127 7.13017C6.86574 7.14384 6.73906 7.1182 6.62872 7.05681C6.51838 6.99541 6.42981 6.90129 6.37524 6.78742C6.32067 6.67355 6.30278 6.54554 6.32405 6.42108C6.34532 6.29661 6.4047 6.18181 6.49398 6.09252C6.58327 6.00324 6.69807 5.94386 6.82254 5.92259C6.947 5.90132 7.07501 5.91921 7.18888 5.97378C7.30275 6.02835 7.39687 6.11692 7.45827 6.22726C7.51966 6.3376 7.5453 6.46428 7.53163 6.58981C7.5166 6.72796 7.45483 6.85684 7.35657 6.95511C7.2583 7.05338 7.12942 7.11514 6.99127 7.13017ZM7.84003 3.169V4.38888H2.96052V3.169H7.84003Z" fill="black"/>
<path d="M6.20105 8.35352L6.79898 8.96345H4.00203L4.59996 8.35352H3.7613L2.22559 9.87836H3.08712L3.39209 9.57339H7.40892L7.71389 9.87836H8.57734L7.05878 8.35352H6.20105Z" fill="black"/>
</g>
<defs>
<clipPath id="clip0_201_13081">
<rect width="9.75902" height="9.75902" fill="white" transform="translate(0.520996 0.424316)"/>
</clipPath>
</defs>
</svg>
