<svg width="11" height="11" viewBox="0 0 11 11" fill="none" xmlns="http://www.w3.org/2000/svg">
<g clip-path="url(#clip0_201_13084)">
<path d="M7.64025 0.729126H3.98062C3.6572 0.729479 3.34712 0.858115 3.11843 1.08681C2.88973 1.3155 2.7611 1.62558 2.76074 1.949V6.82851C2.7611 7.15194 2.88973 7.46201 3.11843 7.69071C3.34712 7.9194 3.6572 8.04804 3.98062 8.04839H7.64025C7.96368 8.04804 8.27375 7.9194 8.50245 7.69071C8.73114 7.46201 8.85978 7.15194 8.86013 6.82851V1.949C8.85978 1.62558 8.73114 1.3155 8.50245 1.08681C8.27375 0.858115 7.96368 0.729479 7.64025 0.729126ZM4.89553 1.64403H6.72534C6.80623 1.64403 6.8838 1.67616 6.94099 1.73336C6.99818 1.79055 7.03031 1.86812 7.03031 1.949C7.03031 2.02989 6.99818 2.10746 6.94099 2.16465C6.8838 2.22184 6.80623 2.25397 6.72534 2.25397H4.89553C4.81464 2.25397 4.73707 2.22184 4.67988 2.16465C4.62269 2.10746 4.59056 2.02989 4.59056 1.949C4.59056 1.86812 4.62269 1.79055 4.67988 1.73336C4.73707 1.67616 4.81464 1.64403 4.89553 1.64403ZM4.28559 7.13348C4.16495 7.13348 4.04703 7.09771 3.94673 7.03069C3.84642 6.96367 3.76824 6.86841 3.72208 6.75696C3.67591 6.64551 3.66384 6.52287 3.68737 6.40455C3.7109 6.28623 3.769 6.17755 3.8543 6.09225C3.9396 6.00695 4.04828 5.94886 4.1666 5.92533C4.28491 5.90179 4.40755 5.91387 4.519 5.96003C4.63045 6.0062 4.72571 6.08438 4.79273 6.18468C4.85976 6.28498 4.89553 6.40291 4.89553 6.52354C4.89553 6.68531 4.83127 6.84045 4.71688 6.95484C4.6025 7.06922 4.44735 7.13348 4.28559 7.13348ZM7.33528 7.13348C7.21465 7.13348 7.09672 7.09771 6.99642 7.03069C6.89611 6.96367 6.81794 6.86841 6.77177 6.75696C6.72561 6.64551 6.71353 6.52287 6.73706 6.40455C6.7606 6.28623 6.81869 6.17755 6.90399 6.09225C6.98929 6.00695 7.09797 5.94886 7.21629 5.92533C7.33461 5.90179 7.45724 5.91387 7.5687 5.96003C7.68015 6.0062 7.77541 6.08438 7.84243 6.18468C7.90945 6.28498 7.94522 6.40291 7.94522 6.52354C7.94522 6.68531 7.88096 6.84045 7.76657 6.95484C7.65219 7.06922 7.49705 7.13348 7.33528 7.13348ZM8.25019 4.08379C8.25019 4.16467 8.21806 4.24224 8.16087 4.29944C8.10367 4.35663 8.0261 4.38876 7.94522 4.38876H3.67565C3.59477 4.38876 3.5172 4.35663 3.46 4.29944C3.40281 4.24224 3.37068 4.16467 3.37068 4.08379V3.47385C3.37068 3.39297 3.40281 3.3154 3.46 3.2582C3.5172 3.20101 3.59477 3.16888 3.67565 3.16888H7.94522C8.0261 3.16888 8.10367 3.20101 8.16087 3.2582C8.21806 3.3154 8.25019 3.39297 8.25019 3.47385V4.08379Z" fill="black"/>
<path d="M7.55073 8.44276C7.49307 8.38798 7.41629 8.35789 7.33677 8.35891C7.25724 8.35993 7.18126 8.39197 7.12503 8.44821C7.06879 8.50445 7.03675 8.58043 7.03573 8.65995C7.03471 8.73948 7.0648 8.81625 7.11958 8.87391L7.20878 8.9633H4.41183L4.50103 8.87391C4.55581 8.81625 4.5859 8.73948 4.58488 8.65995C4.58386 8.58043 4.55182 8.50445 4.49558 8.44821C4.43935 8.39197 4.36336 8.35993 4.28384 8.35891C4.20432 8.35789 4.12754 8.38798 4.06988 8.44276L3.15497 9.35767C3.12546 9.38571 3.10186 9.41937 3.08557 9.45667C3.06927 9.49397 3.0606 9.53416 3.06008 9.57486C3.05956 9.61556 3.0672 9.65596 3.08253 9.69367C3.09787 9.73137 3.1206 9.76563 3.14938 9.79441C3.17817 9.82319 3.21242 9.84592 3.25013 9.86126C3.28783 9.8766 3.32823 9.88423 3.36893 9.88371C3.40964 9.88319 3.44982 9.87452 3.48712 9.85823C3.52443 9.84193 3.55809 9.81833 3.58612 9.78882L3.80189 9.57324H7.81872L8.03448 9.78882C8.09214 9.8436 8.16892 9.87369 8.24844 9.87267C8.32797 9.87165 8.40395 9.83961 8.46018 9.78337C8.51642 9.72713 8.54846 9.65115 8.54948 9.57163C8.5505 9.4921 8.52041 9.41533 8.46563 9.35767L7.55073 8.44276Z" fill="black"/>
</g>
<defs>
<clipPath id="clip0_201_13084">
<rect width="9.75902" height="9.75902" fill="white" transform="translate(0.930664 0.424316)"/>
</clipPath>
</defs>
</svg>
