<svg width="11" height="11" viewBox="0 0 11 11" fill="none" xmlns="http://www.w3.org/2000/svg">
<g clip-path="url(#clip0_201_13087)">
<path d="M5.21924 1.33911V2.25402" stroke="black" stroke-width="0.609939" stroke-miterlimit="10" stroke-linecap="round"/>
<path d="M5.21924 8.35339V9.2683" stroke="black" stroke-width="0.609939" stroke-miterlimit="10" stroke-linecap="round"/>
<path d="M8.02289 2.50024L7.37598 3.14716" stroke="black" stroke-width="0.609939" stroke-miterlimit="10" stroke-linecap="round"/>
<path d="M3.06293 7.46021L2.41602 8.10712" stroke="black" stroke-width="0.609939" stroke-miterlimit="10" stroke-linecap="round"/>
<path d="M9.18395 5.30371H8.26904" stroke="black" stroke-width="0.609939" stroke-miterlimit="10" stroke-linecap="round"/>
<path d="M2.16979 5.30371H1.25488" stroke="black" stroke-width="0.609939" stroke-miterlimit="10" stroke-linecap="round"/>
<path d="M8.02289 8.10712L7.37598 7.46021" stroke="black" stroke-width="0.609939" stroke-miterlimit="10" stroke-linecap="round"/>
<path d="M3.06293 3.14716L2.41602 2.50024" stroke="black" stroke-width="0.609939" stroke-miterlimit="10" stroke-linecap="round"/>
<path d="M5.21918 6.8285C6.06133 6.8285 6.74403 6.14581 6.74403 5.30366C6.74403 4.46151 6.06133 3.77881 5.21918 3.77881C4.37703 3.77881 3.69434 4.46151 3.69434 5.30366C3.69434 6.14581 4.37703 6.8285 5.21918 6.8285Z" stroke="black" stroke-width="0.609939" stroke-miterlimit="10" stroke-linecap="round"/>
</g>
<defs>
<clipPath id="clip0_201_13087">
<rect width="9.75902" height="9.75902" fill="white" transform="translate(0.339844 0.424316)"/>
</clipPath>
</defs>
</svg>
