<svg width="11" height="11" viewBox="0 0 11 11" fill="none" xmlns="http://www.w3.org/2000/svg">
<g clip-path="url(#clip0_201_13097)">
<path d="M6.04814 0.919678H5.20947V2.67325H6.04814V0.919678Z" fill="black"/>
<path d="M6.04814 7.93396H5.20947V9.68753H6.04814V7.93396Z" fill="black"/>
<path d="M8.43235 1.90713L7.19238 3.14709L7.78541 3.74012L9.02537 2.50016L8.43235 1.90713Z" fill="black"/>
<path d="M3.47239 6.86697L2.23242 8.10693L2.82545 8.69996L4.06541 7.46L3.47239 6.86697Z" fill="black"/>
<path d="M10.0129 4.88428H8.25928V5.72294H10.0129V4.88428Z" fill="black"/>
<path d="M2.99869 4.88428H1.24512V5.72294H2.99869V4.88428Z" fill="black"/>
<path d="M7.78541 6.86718L7.19238 7.46021L8.43235 8.70017L9.02537 8.10714L7.78541 6.86718Z" fill="black"/>
<path d="M2.82545 1.90722L2.23242 2.50024L3.47239 3.74021L4.06541 3.14718L2.82545 1.90722Z" fill="black"/>
<path d="M5.62924 7.24786C5.24472 7.24786 4.86883 7.13383 4.54911 6.9202C4.22939 6.70657 3.9802 6.40294 3.83305 6.04768C3.6859 5.69243 3.6474 5.30152 3.72242 4.92439C3.79743 4.54725 3.9826 4.20083 4.2545 3.92893C4.52639 3.65704 4.87281 3.47187 5.24995 3.39685C5.62708 3.32184 6.01799 3.36034 6.37324 3.50749C6.7285 3.65464 7.03214 3.90383 7.24577 4.22355C7.45939 4.54327 7.57342 4.91916 7.57342 5.30368C7.57281 5.81912 7.36779 6.31328 7.00331 6.67775C6.63884 7.04223 6.14468 7.24725 5.62924 7.24786Z" fill="black"/>
</g>
<defs>
<clipPath id="clip0_201_13097">
<rect width="9.75902" height="9.75902" fill="white" transform="translate(0.749512 0.424316)"/>
</clipPath>
</defs>
</svg>
