<svg width="11" height="11" viewBox="0 0 11 11" fill="none" xmlns="http://www.w3.org/2000/svg">
<path d="M9.09221 5.71334C9.09221 3.69292 7.453 2.05371 5.43258 2.05371C3.41216 2.05371 1.77295 3.69292 1.77295 5.71334C1.77295 7.73377 3.41216 9.37298 5.43258 9.37298C7.453 9.37298 9.09221 7.73377 9.09221 5.71334Z" stroke="black" stroke-width="0.609939" stroke-miterlimit="10"/>
<path d="M3.60107 5.41162V5.71659C3.60237 6.08743 3.71606 6.44917 3.92714 6.75408C4.13822 7.05899 4.43677 7.29275 4.78342 7.42451C5.13006 7.55628 5.50851 7.57987 5.86883 7.49216C6.22915 7.40445 6.55442 7.20957 6.80173 6.93323M7.25937 6.01584V5.71087C7.25812 5.34045 7.14464 4.9791 6.93391 4.67446C6.72317 4.36982 6.42507 4.13619 6.07889 4.00437C5.73271 3.87255 5.35472 3.84873 4.99473 3.93604C4.63474 4.02335 4.30966 4.2177 4.06234 4.49347L7.25937 6.01584Z" stroke="black" stroke-width="0.609939" stroke-linecap="round" stroke-linejoin="round"/>
<path d="M3.14307 5.71338L3.59271 5.26355L4.06293 5.71338" stroke="black" stroke-width="0.609939" stroke-linecap="round" stroke-linejoin="round"/>
<path d="M7.7226 5.71338L7.27296 6.16321L6.80273 5.71338" stroke="black" stroke-width="0.609939" stroke-linecap="round" stroke-linejoin="round"/>
</svg>
