<svg width="11" height="11" viewBox="0 0 11 11" fill="none" xmlns="http://www.w3.org/2000/svg">
<path d="M5.25171 1.74878C3.06222 1.74878 1.28711 3.52389 1.28711 5.71338C1.28711 7.90287 3.06222 9.67798 5.25171 9.67798C7.4412 9.67798 9.21631 7.90287 9.21631 5.71338C9.21631 3.52389 7.4412 1.74878 5.25171 1.74878ZM6.84689 7.13625C6.57264 7.4423 6.21604 7.66289 5.81974 7.77163C5.42344 7.88037 5.0042 7.87267 4.61216 7.74945C4.22012 7.62623 3.87187 7.3927 3.60904 7.07679C3.34621 6.76087 3.17993 6.37595 3.13008 5.96803C3.06701 6.00976 2.9907 6.02657 2.91593 6.0152C2.84117 6.00383 2.7733 5.9651 2.7255 5.90651C2.67769 5.84791 2.65335 5.77365 2.65721 5.69813C2.66107 5.62261 2.69285 5.55122 2.74639 5.49781L3.19622 5.04798C3.25257 4.99163 3.32875 4.95958 3.40844 4.95869C3.48813 4.9578 3.565 4.98814 3.6226 5.04321L4.09283 5.49304C4.14563 5.54315 4.17876 5.61049 4.18625 5.6829C4.19373 5.7553 4.17507 5.828 4.13364 5.88784C4.09221 5.94769 4.03073 5.99075 3.96032 6.00923C3.88992 6.02771 3.81522 6.0204 3.74974 5.98862C3.80197 6.26968 3.93193 6.53048 4.12486 6.74144C4.3178 6.9524 4.56599 7.10506 4.84128 7.18212C5.11658 7.25918 5.40796 7.25755 5.68238 7.17741C5.95679 7.09728 6.20326 6.94184 6.39382 6.72874C6.44851 6.6709 6.52365 6.63673 6.6032 6.63354C6.68274 6.63035 6.76037 6.65839 6.81952 6.71166C6.87867 6.76494 6.91465 6.83923 6.91976 6.91867C6.92487 6.99811 6.89872 7.07641 6.84689 7.13683V7.13625ZM7.75723 5.92896L7.3074 6.37879C7.25104 6.43513 7.17486 6.46718 7.09517 6.46807C7.01548 6.46897 6.93861 6.43863 6.88101 6.38355L6.41079 5.93372C6.359 5.88387 6.32648 5.81734 6.31897 5.74585C6.31147 5.67437 6.32945 5.60253 6.36975 5.54301C6.41006 5.48349 6.47008 5.44012 6.53925 5.42055C6.60841 5.40098 6.68227 5.40647 6.74778 5.43605C6.6954 5.15561 6.56557 4.89543 6.37297 4.68497C6.18037 4.47451 5.93271 4.32216 5.658 4.24518C5.3833 4.16819 5.09253 4.16965 4.81861 4.24938C4.54469 4.32911 4.29856 4.48393 4.10808 4.69631C4.08133 4.72612 4.04898 4.75037 4.01286 4.76768C3.97674 4.78499 3.93757 4.79501 3.89757 4.79718C3.85758 4.79935 3.81756 4.79362 3.77978 4.78032C3.742 4.76701 3.70721 4.7464 3.6774 4.71966C3.64759 4.69291 3.62334 4.66056 3.60603 4.62444C3.58872 4.58832 3.5787 4.54915 3.57653 4.50916C3.57436 4.46916 3.58009 4.42914 3.59339 4.39136C3.6067 4.35358 3.62731 4.3188 3.65405 4.28898C3.92852 3.98296 4.28539 3.76255 4.68192 3.65416C5.07845 3.54576 5.49782 3.55398 5.88979 3.67782C6.28177 3.80166 6.62974 4.03587 6.89201 4.35241C7.15429 4.66894 7.31975 5.05438 7.36858 5.46254C7.43121 5.41984 7.50751 5.402 7.58258 5.41249C7.65766 5.42298 7.72614 5.46106 7.77467 5.51929C7.82319 5.57753 7.84829 5.65176 7.84507 5.72749C7.84184 5.80323 7.81053 5.87505 7.75723 5.92896Z" fill="black"/>
</svg>
