<svg width="11" height="11" viewBox="0 0 11 11" fill="none" xmlns="http://www.w3.org/2000/svg">
<g clip-path="url(#clip0_201_13156)">
<path d="M2.24512 5.14841V5.71641C2.24512 7.60036 3.77378 9.12521 5.66077 9.12521C6.17244 9.12447 6.67749 9.00958 7.13912 8.78892C7.60076 8.56826 8.00735 8.24738 8.32926 7.84967M9.06633 6.27736V5.70936C9.06633 3.82751 7.53691 2.30152 5.65067 2.30152C5.13755 2.30088 4.63088 2.416 4.16841 2.6383C3.70593 2.86059 3.29955 3.18434 2.97952 3.58544L9.06633 6.27736Z" stroke="black" stroke-width="0.609939" stroke-linecap="round" stroke-linejoin="round"/>
<path d="M1.39111 5.71342L2.22978 4.87476L3.10657 5.71342" stroke="black" stroke-width="0.609939" stroke-linecap="round" stroke-linejoin="round"/>
<path d="M9.9303 5.71338L9.09163 6.55204L8.21484 5.71338" stroke="black" stroke-width="0.609939" stroke-linecap="round" stroke-linejoin="round"/>
</g>
<defs>
<clipPath id="clip0_201_13156">
<rect width="9.75902" height="9.75902" fill="white" transform="translate(0.78125 0.833984)"/>
</clipPath>
</defs>
</svg>
