<svg width="11" height="11" viewBox="0 0 11 11" fill="none" xmlns="http://www.w3.org/2000/svg">
<path d="M5.84204 1.74878C3.65255 1.74878 1.87744 3.52389 1.87744 5.71338C1.87744 7.90287 3.65255 9.67798 5.84204 9.67798C8.03153 9.67798 9.80664 7.90287 9.80664 5.71338C9.80664 3.52389 8.03153 1.74878 5.84204 1.74878ZM5.84204 7.84817C5.32114 7.84794 4.81824 7.6576 4.42773 7.31286C4.03723 6.96812 3.78599 6.4927 3.72117 5.97585L3.55229 6.14472L3.12095 5.71338L3.99774 4.83659L4.90407 5.70347L4.48245 6.14415L4.34522 6.01301C4.40177 6.29104 4.53452 6.54786 4.72864 6.75478C4.92276 6.9617 5.1706 7.11055 5.44446 7.18471C5.71831 7.25887 6.0074 7.25541 6.2794 7.17472C6.55141 7.09403 6.79561 6.93929 6.98473 6.72779L7.4378 7.13587C7.23648 7.35968 6.99042 7.53872 6.71554 7.66142C6.44065 7.78412 6.14307 7.84774 5.84204 7.84817ZM7.68692 6.59017L6.78059 5.72291L7.20221 5.28223L7.33296 5.40708C7.27557 5.13017 7.1425 4.87461 6.94853 4.66882C6.75457 4.46302 6.50732 4.31507 6.23429 4.24141C5.96126 4.16775 5.67314 4.17127 5.40199 4.25158C5.13084 4.33189 4.88729 4.48584 4.69841 4.69631L4.24438 4.28898C4.51853 3.98357 4.87477 3.76351 5.27059 3.65506C5.66641 3.54662 6.08507 3.55438 6.4766 3.67741C6.86813 3.80044 7.21597 4.03355 7.47862 4.34891C7.74126 4.66427 7.90759 5.04855 7.95777 5.45587L8.13141 5.28204L8.56313 5.71338L7.68692 6.59017Z" fill="black"/>
</svg>
