<svg width="11" height="11" viewBox="0 0 11 11" fill="none" xmlns="http://www.w3.org/2000/svg">
<g clip-path="url(#clip0_201_13172)">
<path d="M10.5876 3.27395V8.15347C10.5873 8.47689 10.4586 8.78696 10.2299 9.01566C10.0013 9.24435 9.69118 9.37299 9.36776 9.37334H2.04849C1.72507 9.37299 1.41499 9.24435 1.1863 9.01566C0.957602 8.78696 0.828966 8.47689 0.828613 8.15347V3.27395C0.828966 2.95053 0.957602 2.64046 1.1863 2.41176C1.41499 2.18307 1.72507 2.05443 2.04849 2.05408H9.36776C9.69118 2.05443 10.0013 2.18307 10.2299 2.41176C10.4586 2.64046 10.5873 2.95053 10.5876 3.27395ZM1.43855 8.15347C1.43855 8.31523 1.50281 8.47037 1.6172 8.58476C1.73158 8.69914 1.88673 8.7634 2.04849 8.7634H9.36776C9.52952 8.7634 9.68466 8.69914 9.79905 8.58476C9.91343 8.47037 9.9777 8.31523 9.9777 8.15347V3.27395C9.9777 3.11219 9.91343 2.95705 9.79905 2.84266C9.68466 2.72828 9.52952 2.66402 9.36776 2.66402H2.04849C1.88673 2.66402 1.73158 2.72828 1.6172 2.84266C1.50281 2.95705 1.43855 3.11219 1.43855 3.27395V8.15347Z" fill="black"/>
<path d="M0.828613 3.27395C0.828966 2.95053 0.957602 2.64046 1.1863 2.41176C1.41499 2.18307 1.72507 2.05443 2.04849 2.05408H9.36776C9.69118 2.05443 10.0013 2.18307 10.2299 2.41176C10.4586 2.64046 10.5873 2.95053 10.5876 3.27395V8.15347C10.5873 8.47689 10.4586 8.78696 10.2299 9.01566C10.0013 9.24435 9.69118 9.37299 9.36776 9.37334H2.04849C1.72507 9.37299 1.41499 9.24435 1.1863 9.01566C0.957602 8.78696 0.828966 8.47689 0.828613 8.15347V3.27395ZM9.9777 8.15347V3.27395C9.9777 3.11219 9.91343 2.95705 9.79905 2.84266C9.68466 2.72828 9.52952 2.66402 9.36776 2.66402H2.04849C1.88673 2.66402 1.73158 2.72828 1.6172 2.84266C1.50281 2.95705 1.43855 3.11219 1.43855 3.27395V8.15347C1.43855 8.31523 1.50281 8.47037 1.6172 8.58476C1.73158 8.69914 1.88673 8.7634 2.04849 8.7634H9.36776C9.52952 8.7634 9.68466 8.69914 9.79905 8.58476C9.91343 8.47037 9.9777 8.31523 9.9777 8.15347ZM9.67273 8.15347C9.67273 8.23435 9.6406 8.31192 9.5834 8.36911C9.52621 8.4263 9.44864 8.45843 9.36776 8.45843H2.04849C1.96761 8.45843 1.89004 8.4263 1.83284 8.36911C1.77565 8.31192 1.74352 8.23435 1.74352 8.15347V3.27395C1.74352 3.19307 1.77565 3.1155 1.83284 3.05831C1.89004 3.00112 1.96761 2.96899 2.04849 2.96899H9.36776C9.44864 2.96899 9.52621 3.00112 9.5834 3.05831C9.6406 3.1155 9.67273 3.19307 9.67273 3.27395V8.15347Z" fill="black"/>
</g>
<defs>
<clipPath id="clip0_201_13172">
<rect width="9.75902" height="9.75902" fill="white" transform="translate(0.828613 0.833984)"/>
</clipPath>
</defs>
</svg>
