<svg width="11" height="11" viewBox="0 0 11 11" fill="none" xmlns="http://www.w3.org/2000/svg">
<g clip-path="url(#clip0_201_13170)">
<path d="M0.418945 2.39717V9.03025C0.418945 9.12125 0.455092 9.20851 0.519434 9.27285C0.583776 9.3372 0.671043 9.37334 0.762036 9.37334H9.83488C9.92587 9.37334 10.0131 9.3372 10.0775 9.27285C10.1418 9.20851 10.178 9.12125 10.178 9.03025V2.39717C10.178 2.30617 10.1418 2.21891 10.0775 2.15457C10.0131 2.09022 9.92587 2.05408 9.83488 2.05408H0.762036C0.671043 2.05408 0.583776 2.09022 0.519434 2.15457C0.455092 2.21891 0.418945 2.30617 0.418945 2.39717H0.418945ZM8.95809 8.68716H1.63882V2.74026H8.95809V8.68716Z" fill="black"/>
</g>
<defs>
<clipPath id="clip0_201_13170">
<rect width="9.75902" height="9.75902" fill="white" transform="translate(0.418945 0.833984)"/>
</clipPath>
</defs>
</svg>
