<svg width="11" height="11" viewBox="0 0 11 11" fill="none" xmlns="http://www.w3.org/2000/svg">
<g clip-path="url(#clip0_201_13192)">
<path d="M2.33519 5.59926C2.29476 5.52924 2.22818 5.47813 2.15008 5.45719C2.07198 5.43624 1.98876 5.44717 1.91872 5.48757L0.971218 6.03403C0.882518 6.08487 0.805038 6.15315 0.74345 6.23476C0.681863 6.31636 0.637446 6.40959 0.612879 6.50883C0.565605 6.70561 0.596705 6.91306 0.699604 7.08732L0.782709 7.23104C0.883878 7.40598 1.05036 7.5336 1.24558 7.58585C1.44079 7.6381 1.64877 7.61071 1.8238 7.5097L2.77054 6.964C2.80525 6.944 2.83568 6.91735 2.8601 6.88558C2.88451 6.85381 2.90242 6.81754 2.91281 6.77885C2.9232 6.74016 2.92587 6.69979 2.92065 6.66007C2.91544 6.62034 2.90245 6.58204 2.88242 6.54733L2.33519 5.59926Z" fill="black"/>
<path d="M7.58233 9.23609L5.78835 5.67557C5.78399 5.66687 5.78311 5.65683 5.78591 5.64751C5.78871 5.63819 5.79497 5.63029 5.80341 5.62544L5.96161 5.53414C5.99631 5.51412 6.02672 5.48746 6.05111 5.45569C6.07551 5.42391 6.0934 5.38764 6.10377 5.34895C6.11415 5.31025 6.11679 5.2699 6.11157 5.23018C6.10634 5.19046 6.09334 5.15217 6.0733 5.11747L5.16735 3.54822C5.14735 3.5135 5.1207 3.48307 5.08894 3.45866C5.05717 3.43425 5.0209 3.41633 4.9822 3.40594C4.94351 3.39555 4.90315 3.39289 4.86342 3.3981C4.8237 3.40332 4.78539 3.41631 4.75069 3.43633L3.10424 4.38555C3.01732 4.43534 2.94115 4.50189 2.88013 4.58133C2.81911 4.66077 2.77446 4.75152 2.74876 4.84834C2.73128 4.9088 2.72248 4.97144 2.72264 5.03437C2.72379 5.17923 2.898 5.46705 3.06802 5.76401C3.25081 6.08328 3.43475 6.40978 3.57008 6.49117C3.65623 6.54302 3.80833 6.58457 3.93623 6.58457H3.95224L2.44036 9.85537C2.42351 9.89173 2.414 9.93106 2.41236 9.9711C2.41073 10.0111 2.417 10.0511 2.43082 10.0887C2.44464 10.1263 2.46574 10.1609 2.49292 10.1903C2.52009 10.2198 2.5528 10.2436 2.58918 10.2604C2.62556 10.2772 2.6649 10.2867 2.70494 10.2883C2.74499 10.2899 2.78495 10.2836 2.82256 10.2697C2.86016 10.2558 2.89466 10.2347 2.92409 10.2075C2.95352 10.1803 2.9773 10.1476 2.99407 10.1112L4.77966 6.24853C4.7928 6.21994 4.81452 6.19616 4.8418 6.18048L5.20795 5.96929C5.21245 5.96672 5.21743 5.9651 5.22257 5.96451C5.22772 5.96393 5.23293 5.9644 5.23789 5.9659C5.24285 5.9674 5.24745 5.96989 5.25141 5.97323C5.25538 5.97656 5.25862 5.98067 5.26094 5.9853L7.03758 9.51151C7.07398 9.58375 7.13758 9.63857 7.2144 9.66392C7.29121 9.68926 7.37495 9.68305 7.44719 9.64665C7.51943 9.61025 7.57425 9.54665 7.59959 9.46983C7.62494 9.39302 7.61873 9.30928 7.58233 9.23704V9.23609Z" fill="black"/>
<path d="M9.62876 3.04029L8.74969 1.5204C8.64823 1.34572 8.48172 1.21833 8.28658 1.16611C8.09143 1.11388 7.88355 1.14108 7.70841 1.24174L5.92929 2.26682C5.84235 2.31658 5.76616 2.38311 5.70513 2.46256C5.64411 2.542 5.59947 2.63277 5.57381 2.72961C5.54855 2.81125 5.54031 2.89721 5.54961 2.98216C5.58277 3.2227 5.79739 3.5616 6.053 4.00933C6.31184 4.46164 6.60404 4.97151 6.7569 5.08187C6.88613 5.17322 7.04048 5.2223 7.19873 5.22235C7.33204 5.2224 7.463 5.18729 7.57841 5.12057L9.35791 4.09492C9.44643 4.0442 9.52378 3.97612 9.58533 3.89475C9.64687 3.81339 9.69134 3.72043 9.71606 3.62145C9.76368 3.42375 9.73237 3.21528 9.62876 3.04029Z" fill="black"/>
</g>
<defs>
<clipPath id="clip0_201_13192">
<rect width="9.75902" height="9.75902" fill="white" transform="translate(0.285156 0.833984)"/>
</clipPath>
</defs>
</svg>
