<svg width="11" height="11" viewBox="0 0 11 11" fill="none" xmlns="http://www.w3.org/2000/svg">
<g clip-path="url(#clip0_201_13188)">
<path d="M0.902832 6.41698L1.75713 7.88407L3.62773 6.80943L2.77515 5.33472L0.902832 6.41698Z" fill="black"/>
<path d="M6.36292 5.64395L6.81409 5.38072L5.60526 3.28406L3.07173 4.75172C3.4253 5.36128 4.23061 6.74298 4.23061 6.74298L4.52662 6.5844C4.5312 6.58192 4.53711 6.5844 4.54244 6.5844L2.83252 10.2883H3.50269L5.39064 6.20452L5.83361 5.94911L7.69964 9.67831H8.38582L6.36292 5.64395Z" fill="black"/>
<path d="M5.87158 2.66402C6.34448 3.46895 7.01998 4.65109 7.51842 5.49948L10.6121 3.71236L8.95921 0.861084L5.87158 2.66402Z" fill="black"/>
</g>
<defs>
<clipPath id="clip0_201_13188">
<rect width="9.75902" height="9.75902" fill="white" transform="translate(0.875977 0.833984)"/>
</clipPath>
</defs>
</svg>
