<svg width="11" height="11" viewBox="0 0 11 11" fill="none" xmlns="http://www.w3.org/2000/svg">
<g clip-path="url(#clip0_201_13182)">
<path d="M1.2273 7.07769L1.13753 6.92272C1.10747 6.8707 1.08796 6.81326 1.0801 6.7537C1.07224 6.69413 1.0762 6.6336 1.09174 6.57556C1.10728 6.51752 1.1341 6.46311 1.17067 6.41544C1.20724 6.36777 1.25285 6.32777 1.30488 6.29773L2.96067 5.34336C2.99539 5.32324 3.03373 5.31017 3.07351 5.30489C3.11328 5.29962 3.15371 5.30224 3.19247 5.31262C3.23123 5.323 3.26756 5.34092 3.29938 5.36536C3.3312 5.3898 3.35789 5.42029 3.37791 5.45506L3.62017 5.87439C3.66056 5.94444 3.67149 6.02766 3.65055 6.10575C3.6296 6.18385 3.5785 6.25044 3.50847 6.29087L1.85306 7.24523C1.74783 7.30585 1.62285 7.32225 1.50554 7.29084C1.38823 7.25944 1.28816 7.18278 1.2273 7.07769V7.07769Z" stroke="black" stroke-width="0.609939" stroke-linecap="round" stroke-linejoin="round"/>
<path d="M3.71972 6.05137L3.27065 5.27522C3.21004 5.17012 3.19366 5.04525 3.22512 4.92808C3.25657 4.81091 3.33329 4.71103 3.43838 4.65042L5.81066 3.28282C5.84538 3.2627 5.88372 3.24962 5.9235 3.24435C5.96328 3.23907 6.0037 3.2417 6.04246 3.25207C6.08122 3.26245 6.11755 3.28037 6.14938 3.30481C6.1812 3.32926 6.20788 3.35974 6.2279 3.39451L6.82964 4.43503C6.87001 4.50501 6.88096 4.58815 6.86009 4.6662C6.83922 4.74424 6.78824 4.81082 6.71833 4.85131L4.34548 6.21872C4.29342 6.2489 4.23592 6.26851 4.17627 6.27643C4.11663 6.28434 4.056 6.28042 3.99788 6.26487C3.93975 6.24933 3.88526 6.22247 3.83753 6.18583C3.7898 6.14919 3.74976 6.1035 3.71972 6.05137Z" stroke="black" stroke-width="0.609939" stroke-linecap="round" stroke-linejoin="round"/>
<path d="M6.98235 4.6883L6.09584 3.15526C6.03524 3.05016 6.01886 2.92529 6.05031 2.80811C6.08177 2.69094 6.15848 2.59106 6.26358 2.53045L8.04174 1.50537C8.14698 1.44473 8.27197 1.42829 8.38931 1.45966C8.50665 1.49103 8.60676 1.56765 8.66769 1.67272L9.5542 3.20577C9.58424 3.25781 9.60373 3.31527 9.61156 3.37485C9.61939 3.43443 9.6154 3.49498 9.59982 3.55302C9.58425 3.61106 9.55739 3.66546 9.52078 3.71312C9.48417 3.76077 9.43853 3.80075 9.38647 3.83076L7.6083 4.85584C7.50305 4.91652 7.37803 4.93296 7.26067 4.90155C7.14331 4.87014 7.04322 4.79344 6.98235 4.6883V4.6883Z" stroke="black" stroke-width="0.609939" stroke-linecap="round" stroke-linejoin="round"/>
<path d="M2.89844 9.98333L4.73092 6.01892" stroke="black" stroke-width="0.609939" stroke-linecap="round" stroke-linejoin="round"/>
<path d="M5.64697 5.71399L7.49108 9.37324" stroke="black" stroke-width="0.609939" stroke-linecap="round" stroke-linejoin="round"/>
</g>
<defs>
<clipPath id="clip0_201_13182">
<rect width="9.75902" height="9.75902" fill="white" transform="translate(0.466309 0.833984)"/>
</clipPath>
</defs>
</svg>
