<svg width="10" height="11" viewBox="0 0 10 11" fill="none" xmlns="http://www.w3.org/2000/svg">
<g clip-path="url(#clip0_201_13200)">
<path d="M4.80094 9.98322C4.83065 9.83944 4.85115 9.6939 4.86232 9.5475C4.86899 9.45963 4.87242 9.37004 4.87242 9.28065C4.87242 7.37459 3.32203 5.82458 1.41636 5.82458C1.18051 5.8247 0.945286 5.84891 0.714355 5.89682C0.760197 6.96592 1.20547 7.97892 1.96215 8.73556C2.71883 9.49221 3.73184 9.93743 4.80094 9.98322Z" fill="black"/>
<path d="M5.52959 5.16792C5.13164 4.77195 4.81617 4.30099 4.60144 3.78229C4.38672 3.26358 4.277 2.70744 4.27865 2.14606C4.27862 1.92642 4.29532 1.70709 4.32859 1.48999C3.43239 1.62951 2.60375 2.0503 1.96234 2.69157C1.32093 3.33284 0.89997 4.1614 0.760254 5.05756C0.977378 5.02455 1.1967 5.00811 1.41632 5.00838C1.97776 5.00684 2.53393 5.11668 3.05264 5.33153C3.57134 5.54639 4.04228 5.862 4.43818 6.26009C4.83605 6.65597 5.15147 7.12681 5.36619 7.64538C5.58091 8.16394 5.69067 8.71994 5.68913 9.2812C5.68913 9.3906 5.68494 9.50115 5.67674 9.60961C5.66855 9.71806 5.65558 9.829 5.63862 9.93745C6.53493 9.798 7.36371 9.37723 8.00523 8.73591C8.64674 8.0946 9.06779 7.26596 9.20752 6.36969C8.9904 6.4027 8.77108 6.41914 8.55146 6.41887C7.99007 6.42051 7.43393 6.3108 6.91523 6.09607C6.39653 5.88135 5.92556 5.56588 5.52959 5.16792Z" fill="black"/>
<path d="M8.55128 5.60216C8.78711 5.60223 9.02233 5.57822 9.25328 5.53049C9.20744 4.46142 8.7622 3.44845 8.00556 2.69181C7.24892 1.93517 6.23595 1.48993 5.16688 1.44409C5.11916 1.67504 5.09514 1.91026 5.09522 2.14609C5.09522 4.05177 6.6456 5.60216 8.55128 5.60216Z" fill="black"/>
</g>
<defs>
<clipPath id="clip0_201_13200">
<rect width="9.75902" height="9.75902" fill="white" transform="translate(0.104492 0.833984)"/>
</clipPath>
</defs>
</svg>
