<svg width="11" height="11" viewBox="0 0 11 11" fill="none" xmlns="http://www.w3.org/2000/svg">
<path d="M5.57447 9.67823C7.76405 9.67823 9.53907 7.90321 9.53907 5.71363C9.53907 3.52404 7.76405 1.74902 5.57447 1.74902C3.38488 1.74902 1.60986 3.52404 1.60986 5.71363C1.60986 7.90321 3.38488 9.67823 5.57447 9.67823Z" stroke="black" stroke-width="0.609939" stroke-linecap="round" stroke-linejoin="round"/>
<path d="M9.49012 6.00789C9.3931 6.01494 9.33306 6.01856 9.23413 6.01856C7.04445 6.01856 5.26953 4.24364 5.26953 2.05396C5.26953 1.9516 5.27334 1.88832 5.28097 1.78711" stroke="black" stroke-width="0.609939" stroke-linecap="round" stroke-linejoin="round"/>
<path d="M1.64111 5.41937C1.64111 5.41937 1.81628 5.40869 1.91463 5.40869C4.10431 5.40869 5.87923 7.18361 5.87923 9.37329C5.87923 9.47584 5.86761 9.64014 5.86761 9.64014" stroke="black" stroke-width="0.609939" stroke-linecap="round" stroke-linejoin="round"/>
</svg>
