<svg width="11" height="11" viewBox="0 0 11 11" fill="none" xmlns="http://www.w3.org/2000/svg">
<path d="M9.0527 5.71366C9.25708 5.71365 9.4611 5.69656 9.66264 5.66258C9.64938 4.54789 9.20068 3.48258 8.41241 2.69432C7.62415 1.90605 6.55884 1.45735 5.44415 1.44409C5.41017 1.64563 5.39308 1.84965 5.39307 2.05403C5.39307 4.07197 7.03475 5.71366 9.0527 5.71366Z" fill="black"/>
<path d="M5.3426 9.98323C5.36051 9.87516 5.37405 9.76594 5.38243 9.65577C5.38948 9.56276 5.39311 9.46784 5.39311 9.37387C5.39311 7.35592 3.75142 5.71423 1.73347 5.71423C1.52909 5.71425 1.32507 5.73133 1.12354 5.76532C1.13694 6.88001 1.58579 7.94525 2.37416 8.73341C3.16254 9.52157 4.2279 9.97013 5.3426 9.98323Z" fill="black"/>
<path d="M6.0337 5.073C5.63598 4.67747 5.32067 4.20698 5.10601 3.68876C4.89135 3.17055 4.78161 2.61491 4.78313 2.054C4.78314 1.86275 4.79587 1.67173 4.82125 1.48218C3.89482 1.60763 3.03514 2.03356 2.37407 2.69463C1.71301 3.35569 1.28708 4.21538 1.16162 5.14181C1.35117 5.11643 1.5422 5.10369 1.73344 5.10369C2.29435 5.10216 2.84999 5.21191 3.36821 5.42657C3.88642 5.64123 4.35691 5.95654 4.75245 6.35425C5.15016 6.74979 5.46547 7.22028 5.68013 7.73849C5.89479 8.25671 6.00454 8.81235 6.00301 9.37326C6.00301 9.48267 5.99882 9.59303 5.99062 9.70148C5.98427 9.78306 5.97563 9.86433 5.9647 9.94527C6.89117 9.81978 7.75089 9.39382 8.41198 8.73273C9.07307 8.07163 9.49903 7.21191 9.62452 6.28545C9.43497 6.31083 9.24395 6.32356 9.0527 6.32357C8.49179 6.32509 7.93615 6.21535 7.41794 6.00069C6.89972 5.78603 6.42923 5.47072 6.0337 5.073Z" fill="black"/>
</svg>
