<svg width="11" height="11" viewBox="0 0 11 11" fill="none" xmlns="http://www.w3.org/2000/svg">
<g clip-path="url(#clip0_201_13214)">
<path d="M8.97657 1.44397H2.26724C1.94382 1.44432 1.63374 1.57296 1.40505 1.80165C1.17635 2.03035 1.04772 2.34042 1.04736 2.66385V8.76323C1.04772 9.08666 1.17635 9.39673 1.40505 9.62543C1.63374 9.85412 1.94382 9.98276 2.26724 9.98311H8.97657C9.29999 9.98276 9.61007 9.85412 9.83876 9.62543C10.0675 9.39673 10.1961 9.08666 10.1964 8.76323V2.66385C10.1961 2.34042 10.0675 2.03035 9.83876 1.80165C9.61007 1.57296 9.29999 1.44432 8.97657 1.44397ZM2.57221 5.71354C2.50903 5.71354 2.4474 5.69392 2.39585 5.65738C2.34431 5.62084 2.30538 5.56919 2.28445 5.50957C2.26353 5.44996 2.26163 5.38531 2.27904 5.32457C2.29644 5.26383 2.33228 5.20999 2.3816 5.1705L3.60892 4.18869L2.3816 3.20688C2.35032 3.18185 2.32426 3.1509 2.30494 3.11581C2.28561 3.08071 2.27338 3.04214 2.26896 3.00232C2.26453 2.9625 2.268 2.92219 2.27915 2.88371C2.2903 2.84522 2.30892 2.80931 2.33395 2.77802C2.35898 2.74673 2.38993 2.72068 2.42503 2.70135C2.46013 2.68202 2.49869 2.6698 2.53852 2.66537C2.57834 2.66095 2.61864 2.66441 2.65713 2.67556C2.69562 2.68672 2.73153 2.70534 2.76282 2.73037L4.28766 3.95025C4.32342 3.97882 4.35229 4.01507 4.37212 4.05631C4.39196 4.09755 4.40226 4.14274 4.40226 4.1885C4.40226 4.23427 4.39196 4.27945 4.37212 4.3207C4.35229 4.36194 4.32342 4.39819 4.28766 4.42676L2.76282 5.64664C2.70873 5.68995 2.6415 5.71354 2.57221 5.71354ZM5.6219 5.71354H4.40203C4.32114 5.71354 4.24357 5.68141 4.18638 5.62422C4.12919 5.56702 4.09706 5.48945 4.09706 5.40857C4.09706 5.32769 4.12919 5.25012 4.18638 5.19293C4.24357 5.13573 4.32114 5.1036 4.40203 5.1036H5.6219C5.70279 5.1036 5.78036 5.13573 5.83755 5.19293C5.89474 5.25012 5.92687 5.32769 5.92687 5.40857C5.92687 5.48945 5.89474 5.56702 5.83755 5.62422C5.78036 5.68141 5.70279 5.71354 5.6219 5.71354Z" fill="black"/>
</g>
<defs>
<clipPath id="clip0_201_13214">
<rect width="9.75902" height="9.75902" fill="white" transform="translate(0.742188 0.833984)"/>
</clipPath>
</defs>
</svg>
