<svg width="11" height="11" viewBox="0 0 11 11" fill="none" xmlns="http://www.w3.org/2000/svg">
<g clip-path="url(#clip0_201_13212)">
<path d="M0.637695 1.6727V9.75438C0.637695 9.81505 0.661793 9.87323 0.704688 9.91612C0.747583 9.95901 0.80576 9.98311 0.866422 9.98311H9.55805C9.61871 9.98311 9.67689 9.95901 9.71978 9.91612C9.76268 9.87323 9.78678 9.81505 9.78678 9.75438V1.6727C9.78678 1.61203 9.76268 1.55386 9.71978 1.51096C9.67689 1.46807 9.61871 1.44397 9.55805 1.44397H0.866422C0.80576 1.44397 0.747583 1.46807 0.704688 1.51096C0.661793 1.55386 0.637695 1.61203 0.637695 1.6727ZM1.73387 5.36092L3.19925 4.18869L1.73387 3.01647L2.11508 2.53995L4.17553 4.18869L2.11489 5.83724L1.73387 5.36092ZM5.51721 5.71354H3.68739V5.1036H5.51721V5.71354Z" fill="black"/>
</g>
<defs>
<clipPath id="clip0_201_13212">
<rect width="9.75902" height="9.75902" fill="white" transform="translate(0.33252 0.833984)"/>
</clipPath>
</defs>
</svg>
