<svg width="11" height="11" viewBox="0 0 11 11" fill="none" xmlns="http://www.w3.org/2000/svg">
<g clip-path="url(#clip0_201_13224)">
<path d="M6.54727 8.60663L4.26 2.50724C4.23003 2.42731 4.17638 2.35842 4.10622 2.30979C4.03605 2.26116 3.95272 2.23511 3.86735 2.23511C3.78198 2.23511 3.69865 2.26116 3.62848 2.30979C3.55832 2.35842 3.50467 2.42731 3.4747 2.50724L1.18743 8.60663C1.1496 8.71049 1.15431 8.8251 1.20054 8.92551C1.24677 9.02592 1.33078 9.10401 1.43429 9.1428C1.5378 9.18159 1.65244 9.17794 1.75327 9.13265C1.85411 9.08735 1.93298 9.00407 1.97273 8.90093L2.66196 7.0631C2.66467 7.05584 2.66954 7.04957 2.67591 7.04514C2.68228 7.04072 2.68984 7.03834 2.6976 7.03832H5.0371C5.04485 7.03834 5.05242 7.04072 5.05879 7.04514C5.06516 7.04957 5.07003 7.05584 5.07274 7.0631L5.76197 8.90093C5.80172 9.00407 5.88059 9.08735 5.98142 9.13265C6.08226 9.17794 6.1969 9.18159 6.30041 9.1428C6.40392 9.10401 6.48793 9.02592 6.53416 8.92551C6.58039 8.8251 6.5851 8.71049 6.54727 8.60663ZM3.00505 6.14781L3.83171 3.94346C3.83445 3.93622 3.83933 3.93 3.84569 3.9256C3.85206 3.92121 3.85961 3.91885 3.86735 3.91885C3.87508 3.91885 3.88264 3.92121 3.889 3.9256C3.89537 3.93 3.90025 3.93622 3.90299 3.94346L4.72965 6.14819C4.7318 6.15396 4.73253 6.16015 4.73177 6.16626C4.73101 6.17236 4.72878 6.17819 4.72528 6.18324C4.72178 6.1883 4.7171 6.19243 4.71166 6.19529C4.70621 6.19815 4.70016 6.19965 4.69401 6.19966H3.04069C3.03454 6.19965 3.02848 6.19815 3.02304 6.19529C3.01759 6.19243 3.01292 6.1883 3.00942 6.18324C3.00592 6.17819 3.00369 6.17236 3.00293 6.16626C3.00217 6.16015 3.0029 6.15396 3.00505 6.14819V6.14781Z" fill="black"/>
<path d="M8.60925 4.06475C7.81404 4.05903 7.10194 4.51973 6.79849 5.23507C6.75502 5.33744 6.75399 5.45288 6.79563 5.55601C6.83728 5.65913 6.91818 5.74149 7.02055 5.78497C7.12291 5.82844 7.23836 5.82947 7.34149 5.78783C7.44461 5.74618 7.52697 5.66528 7.57044 5.56291C7.7397 5.16474 8.13788 4.90647 8.58676 4.90342C9.20279 4.89922 9.70008 5.40852 9.70008 6.02513C9.70009 6.03255 9.69721 6.03968 9.69205 6.04502C9.68689 6.05035 9.67986 6.05348 9.67245 6.05372C9.25464 6.06535 8.75906 6.09318 8.31686 6.14521C7.27329 6.26796 6.65039 6.83692 6.65039 7.6672C6.65039 8.10922 6.81736 8.50587 7.12062 8.78568C7.40519 9.04776 7.79403 9.19205 8.21336 9.19205C8.80424 9.19205 9.31296 9.03956 9.69894 8.74946H9.70008C9.69985 8.80453 9.71046 8.8591 9.73131 8.91007C9.75217 8.96104 9.78285 9.0074 9.82162 9.0465C9.86039 9.08561 9.90649 9.1167 9.95727 9.13799C10.0081 9.15929 10.0625 9.17037 10.1176 9.1706C10.1727 9.17084 10.2272 9.16023 10.2782 9.13938C10.3292 9.11852 10.3755 9.08784 10.4146 9.04907C10.4538 9.01029 10.4848 8.9642 10.5061 8.91342C10.5274 8.86263 10.5385 8.80815 10.5388 8.75308V6.02742C10.5388 4.95659 9.68102 4.07256 8.60925 4.06475ZM8.21336 8.35338C7.87923 8.35338 7.48906 8.17364 7.48906 7.6672C7.48906 7.46382 7.56206 7.32144 7.72598 7.20536C7.88552 7.09233 8.13006 7.01171 8.41483 6.97816C8.81739 6.9307 9.26912 6.90459 9.65644 6.89296C9.66161 6.89295 9.66672 6.894 9.67148 6.89603C9.67623 6.89807 9.68052 6.90105 9.68409 6.90479C9.68765 6.90854 9.69042 6.91297 9.69222 6.91781C9.69402 6.92266 9.69482 6.92782 9.69456 6.93299C9.6429 7.8883 9.1561 8.35338 8.21336 8.35338Z" fill="black"/>
</g>
<defs>
<clipPath id="clip0_201_13224">
<rect width="9.75902" height="9.75902" fill="white" transform="translate(0.970215 0.833984)"/>
</clipPath>
</defs>
</svg>
