<svg width="11" height="11" viewBox="0 0 11 11" fill="none" xmlns="http://www.w3.org/2000/svg">
<g clip-path="url(#clip0_201_13221)">
<path d="M8.26948 4.07434C7.48361 4.07434 6.78142 4.53294 6.48064 5.24275L6.35542 5.53286L7.12413 5.86032L7.24917 5.57022C7.41881 5.16994 7.81927 4.91167 8.26948 4.91167C8.92802 4.91167 9.37042 5.35521 9.37042 6.01547V6.05931C8.9488 6.07056 8.44312 6.09838 7.99291 6.15156C6.95373 6.27412 6.3335 6.84213 6.3335 7.67107C6.3335 8.11252 6.4997 8.50974 6.80162 8.78783C7.08505 9.04915 7.47141 9.18258 7.88998 9.18258C8.47819 9.18258 8.98597 9.04286 9.37042 8.75105V9.18258H10.2057V6.01547C10.2057 4.89071 9.39139 4.07434 8.26948 4.07434ZM7.88998 8.36431C7.55719 8.36431 7.16854 8.17675 7.16854 7.67107C7.16854 7.46808 7.24135 7.32589 7.40451 7.21C7.56348 7.09716 7.80707 7.01653 8.09069 6.98318C8.50583 6.93419 8.97339 6.90789 9.36775 6.89702C9.32658 7.87845 8.84225 8.36431 7.88998 8.36431Z" fill="black"/>
<path d="M2.33836 7.04527H4.73047L5.53463 9.18253H6.43162L3.51536 1.7489L0.637207 9.18253H1.5342L2.33836 7.04527ZM3.53442 3.89722L4.41597 6.20908H2.65286L3.53442 3.89722Z" fill="black"/>
</g>
<defs>
<clipPath id="clip0_201_13221">
<rect width="9.75902" height="9.75902" fill="white" transform="translate(0.561035 0.833984)"/>
</clipPath>
</defs>
</svg>
