<svg width="10" height="11" viewBox="0 0 10 11" fill="none" xmlns="http://www.w3.org/2000/svg">
<g clip-path="url(#clip0_201_13233)">
<path d="M6.29802 6.30779V2.37788C6.29802 1.70847 5.76642 1.15 5.09721 1.1399C4.93547 1.13757 4.77488 1.1674 4.62476 1.22765C4.47465 1.28789 4.33799 1.37735 4.22273 1.49084C4.10747 1.60433 4.0159 1.73958 3.95333 1.88875C3.89077 2.03791 3.85845 2.19802 3.85827 2.35977V6.30779C3.85822 6.33134 3.85273 6.35455 3.84221 6.37562C3.8317 6.39668 3.81645 6.41502 3.79766 6.42921C3.53188 6.63117 3.31646 6.89191 3.16825 7.191C3.02005 7.4901 2.94307 7.81944 2.94336 8.15324C2.94336 8.71942 3.16827 9.26241 3.56862 9.66276C3.96897 10.0631 4.51197 10.288 5.07815 10.288C5.64433 10.288 6.18732 10.0631 6.58767 9.66276C6.98802 9.26241 7.21293 8.71942 7.21293 8.15324C7.21322 7.81944 7.13625 7.4901 6.98804 7.191C6.83983 6.89191 6.62441 6.63117 6.35864 6.42921C6.33985 6.41502 6.32459 6.39668 6.31408 6.37562C6.30356 6.35455 6.29807 6.33134 6.29802 6.30779ZM5.04136 9.06815C4.84332 9.05997 4.65329 8.9877 4.49986 8.86221C4.34643 8.73672 4.23791 8.5648 4.19061 8.37232C4.14332 8.17983 4.15981 7.97719 4.23762 7.79489C4.31542 7.61259 4.45032 7.46048 4.62203 7.36146C4.66834 7.33472 4.70681 7.29627 4.73357 7.24997C4.76034 7.20367 4.77446 7.15114 4.77451 7.09766V2.97734C4.77451 2.81323 4.90069 2.67237 5.0648 2.66417C5.10593 2.66237 5.14699 2.66891 5.18552 2.68341C5.22405 2.6979 5.25925 2.72005 5.28899 2.74851C5.31873 2.77697 5.3424 2.81115 5.35858 2.849C5.37476 2.88686 5.3831 2.92759 5.38312 2.96876V7.0969C5.38347 7.15091 5.39801 7.20389 5.42527 7.25052C5.45253 7.29715 5.49157 7.3358 5.53846 7.36261C5.71537 7.46521 5.8528 7.62413 5.92881 7.81399C6.00482 8.00385 6.01502 8.2137 5.9578 8.41004C5.90057 8.60638 5.77921 8.77789 5.6131 8.89717C5.44698 9.01646 5.24569 9.07666 5.04136 9.06815Z" fill="black"/>
</g>
<defs>
<clipPath id="clip0_201_13233">
<rect width="9.75902" height="9.75902" fill="white" transform="translate(0.19873 0.833984)"/>
</clipPath>
</defs>
</svg>
