<svg width="11" height="11" viewBox="0 0 11 11" fill="none" xmlns="http://www.w3.org/2000/svg">
<g clip-path="url(#clip0_201_13231)">
<path d="M6.88836 6.38515V2.35879C6.88836 2.03526 6.75983 1.72498 6.53106 1.49621C6.30229 1.26744 5.99201 1.13892 5.66848 1.13892C5.34495 1.13892 5.03467 1.26744 4.80589 1.49621C4.57712 1.72498 4.4486 2.03526 4.4486 2.35879V6.38515C4.16555 6.58495 3.93469 6.84987 3.77546 7.15757C3.61623 7.46528 3.53331 7.80675 3.53369 8.15321C3.53369 8.71939 3.75861 9.26238 4.15896 9.66273C4.55931 10.0631 5.1023 10.288 5.66848 10.288C6.23466 10.288 6.77765 10.0631 7.178 9.66273C7.57835 9.26238 7.80326 8.71939 7.80326 8.15321C7.80364 7.80675 7.72072 7.46528 7.5615 7.15757C7.40227 6.84987 7.1714 6.58495 6.88836 6.38515ZM5.66848 9.06812C5.45261 9.06819 5.24366 8.99192 5.0786 8.8528C4.91353 8.71368 4.80297 8.52068 4.76647 8.30792C4.72996 8.09515 4.76987 7.87633 4.87913 7.69015C4.98839 7.50397 5.15996 7.36242 5.36351 7.29053V2.66376H5.97345V7.29053C6.177 7.36242 6.34857 7.50397 6.45783 7.69015C6.56709 7.87633 6.60699 8.09515 6.57049 8.30792C6.53399 8.52068 6.42343 8.71368 6.25836 8.8528C6.09329 8.99192 5.88435 9.06819 5.66848 9.06812Z" fill="black"/>
</g>
<defs>
<clipPath id="clip0_201_13231">
<rect width="9.75902" height="9.75902" fill="white" transform="translate(0.789062 0.833984)"/>
</clipPath>
</defs>
</svg>
