<svg width="11" height="11" viewBox="0 0 11 11" fill="none" xmlns="http://www.w3.org/2000/svg">
<g clip-path="url(#clip0_201_13227)">
<path d="M6.24528 6.59547C6.22358 6.58174 6.2057 6.56274 6.19331 6.54025C6.18091 6.51775 6.1744 6.4925 6.17437 6.46682V2.35888C6.17437 2.11623 6.07798 1.88352 5.9064 1.71194C5.73482 1.54036 5.50211 1.44397 5.25946 1.44397C5.01681 1.44397 4.7841 1.54036 4.61252 1.71194C4.44095 1.88352 4.34455 2.11623 4.34455 2.35888V6.46682C4.34451 6.49245 4.33801 6.51765 4.32565 6.54011C4.31329 6.56256 4.29547 6.58154 4.27384 6.59528C4.00284 6.77181 3.7826 7.016 3.63488 7.30372C3.48715 7.59144 3.41707 7.91273 3.43155 8.23583C3.45336 8.71331 3.66114 9.16331 4.01045 9.48958C4.35977 9.81584 4.82288 9.99247 5.30074 9.98169C5.7786 9.97091 6.23327 9.77357 6.56751 9.43188C6.90176 9.09019 7.08903 8.63128 7.08928 8.1533C7.08941 7.8439 7.01228 7.53936 6.8649 7.26732C6.71751 6.99528 6.50453 6.76435 6.24528 6.59547V6.59547Z" stroke="black" stroke-width="0.609939" stroke-miterlimit="10" stroke-linecap="round"/>
<path d="M5.25928 2.96875V8.15323" stroke="black" stroke-width="0.609939" stroke-miterlimit="10" stroke-linecap="round"/>
<path d="M5.25915 9.06822C5.76444 9.06822 6.17405 8.6586 6.17405 8.15331C6.17405 7.64802 5.76444 7.2384 5.25915 7.2384C4.75386 7.2384 4.34424 7.64802 4.34424 8.15331C4.34424 8.6586 4.75386 9.06822 5.25915 9.06822Z" fill="black"/>
</g>
<defs>
<clipPath id="clip0_201_13227">
<rect width="9.75902" height="9.75902" fill="white" transform="translate(0.379883 0.833984)"/>
</clipPath>
</defs>
</svg>
