<svg width="11" height="11" viewBox="0 0 11 11" fill="none" xmlns="http://www.w3.org/2000/svg">
<g clip-path="url(#clip0_201_13260)">
<path d="M9.65303 7.2001L6.90525 7.08326C6.81739 7.0764 6.44971 7.06019 6.44971 6.59016C6.44971 6.13633 6.81491 6.10735 6.90983 6.09687L9.65303 5.98022C9.89453 5.9827 10.1093 6.25527 10.1093 6.59016C10.1093 6.92505 9.89453 7.19762 9.65303 7.2001ZM6.95691 4.69039L8.99144 4.53162C9.23255 4.53162 9.4994 4.84955 9.4994 5.17739V5.18368C9.4994 5.49475 9.28707 5.74825 9.02517 5.75149L6.95805 5.71852C6.44971 5.65619 6.44971 5.34798 6.44971 5.21551C6.44971 4.7794 6.86523 4.69802 6.95691 4.69039ZM8.696 9.98294L6.99255 9.81273C6.52595 9.79501 6.44971 9.48394 6.44971 9.28895C6.44971 8.93861 6.70531 8.82006 6.95805 8.82006L8.69257 8.76288C8.96971 8.76726 9.19424 9.03925 9.19424 9.37281C9.19424 9.70638 8.9718 9.97646 8.696 9.98294ZM9.35092 8.62011L6.94166 8.50175C6.76268 8.48974 6.44971 8.44456 6.44971 7.99912C6.44971 7.77039 6.53262 7.51098 6.92622 7.47438L9.35054 7.40043C9.60138 7.40309 9.80437 7.65755 9.80437 7.99893C9.80437 8.3403 9.60138 8.61706 9.35092 8.61992V8.62011Z" fill="black"/>
<path d="M3.31115 5.27189L3.33021 5.23376C3.30263 5.29214 3.25752 5.34045 3.20117 5.37195C3.24537 5.34796 3.2831 5.31363 3.31115 5.27189Z" fill="black"/>
<path d="M6.67977 1.83675C6.50003 1.58325 6.20211 1.44373 5.83996 1.44373C5.78333 1.44372 5.72783 1.45948 5.67965 1.48924C5.63148 1.519 5.59254 1.56158 5.5672 1.61222C5.51002 1.72792 5.27653 2.06968 5.02988 2.43011C4.68679 2.93198 4.26079 3.55602 3.97717 4.04645L3.97469 4.05083C3.58433 4.72729 3.3962 5.09783 3.33006 5.23259L3.311 5.27071C3.28277 5.31229 3.24491 5.34642 3.20064 5.37021C3.15672 5.39468 3.10739 5.40778 3.05711 5.40833H2.57469C2.14657 5.40833 1.73598 5.5784 1.43325 5.88113C1.13052 6.18386 0.960449 6.59445 0.960449 7.02257V7.7585C0.960424 7.9705 1.00216 8.18043 1.08327 8.3763C1.16438 8.57217 1.28328 8.75015 1.43318 8.90006C1.58308 9.04998 1.76104 9.1689 1.9569 9.25003C2.15276 9.33117 2.36269 9.37293 2.57469 9.37293H3.50466C3.56958 9.37318 3.63302 9.39232 3.68726 9.42801C4.12451 9.71354 4.95059 9.98287 5.83996 9.98287C5.98196 9.98287 6.11043 9.9802 6.22632 9.97563C6.25393 9.97464 6.28075 9.96618 6.30392 9.95113C6.32709 9.93609 6.34574 9.91504 6.35788 9.89022C6.37001 9.8654 6.37518 9.83775 6.37282 9.81022C6.37046 9.7827 6.36067 9.75633 6.34449 9.73394L6.34259 9.73127C6.17924 9.49511 6.14493 9.23951 6.14493 9.06796C6.14465 8.90541 6.17834 8.7446 6.24385 8.59583C6.26252 8.55366 6.27216 8.50805 6.27216 8.46193C6.27216 8.41581 6.26252 8.3702 6.24385 8.32803C6.17865 8.17632 6.14503 8.01292 6.14503 7.8478C6.14503 7.68267 6.17865 7.51927 6.24385 7.36757C6.26242 7.32554 6.27202 7.28009 6.27202 7.23414C6.27202 7.18819 6.26242 7.14275 6.24385 7.10072C6.17898 6.9516 6.1455 6.79073 6.1455 6.62811C6.1455 6.46549 6.17898 6.30462 6.24385 6.1555C6.26336 6.11144 6.27344 6.06379 6.27344 6.0156C6.27344 5.96741 6.26336 5.91975 6.24385 5.87569C6.17586 5.72269 6.1421 5.55668 6.14493 5.38927C6.14493 5.23297 6.18305 4.98328 6.29741 4.79477C6.32052 4.75592 6.33449 4.71232 6.33825 4.66728C6.34201 4.62224 6.33548 4.57693 6.31914 4.53478C6.3119 4.51572 6.30466 4.49533 6.2976 4.47436C6.27478 4.40311 6.26916 4.32747 6.28121 4.25364C6.33839 3.88501 6.46553 3.56193 6.60029 3.22132C6.65899 3.07302 6.7198 2.91978 6.77602 2.75891C6.89306 2.42401 6.85799 2.08797 6.67977 1.83675Z" fill="black"/>
</g>
<defs>
<clipPath id="clip0_201_13260">
<rect width="9.75902" height="9.75902" fill="white" transform="translate(0.655273 0.83374)"/>
</clipPath>
</defs>
</svg>
