<svg width="10" height="11" viewBox="0 0 10 11" fill="none" xmlns="http://www.w3.org/2000/svg">
<g clip-path="url(#clip0_201_13241)">
<path d="M1.08518 6.93317L4.05958 7.1619L3.62119 8.86592C3.5053 9.37293 3.63453 9.66399 4.04795 9.79264L4.70917 9.98039C4.72482 9.98454 4.74138 9.9836 4.75646 9.9777C4.77153 9.97181 4.78435 9.96127 4.79303 9.94761L7.25185 6.09089C7.26548 6.06871 7.28457 6.05039 7.3073 6.03768C7.33002 6.02497 7.35562 6.01828 7.38165 6.01827H9.47184V2.05366H7.23012C7.13178 2.05369 7.03408 2.03785 6.94078 2.00678L5.48646 1.52206C5.33097 1.4702 5.16813 1.44375 5.00422 1.44373H1.61277C1.25062 1.44373 1.01237 1.70142 0.94127 2.05671L0.322754 4.76827V6.17075C0.322754 6.59123 0.665844 6.89505 1.08518 6.93317Z" fill="black"/>
<path d="M7.12062 6.1547L7.10156 6.19282C7.12913 6.1344 7.17424 6.08602 7.2306 6.05444C7.18644 6.07857 7.14872 6.11296 7.12062 6.1547Z" fill="black"/>
</g>
<defs>
<clipPath id="clip0_201_13241">
<rect width="9.75902" height="9.75902" fill="white" transform="translate(0.0175781 0.83374)"/>
</clipPath>
</defs>
</svg>
