<svg width="11" height="11" viewBox="0 0 11 11" fill="none" xmlns="http://www.w3.org/2000/svg">
<g clip-path="url(#clip0_201_13246)">
<path d="M1.18824 4.22657L3.93602 4.34322C4.02389 4.35008 4.39157 4.36648 4.39157 4.83651C4.39157 5.29015 4.02637 5.31931 3.93144 5.3298L1.18824 5.44645C0.946746 5.44397 0.731934 5.17121 0.731934 4.83651C0.731934 4.50181 0.946746 4.22905 1.18824 4.22657ZM3.88436 6.73609L1.84984 6.89505C1.60872 6.89505 1.34187 6.57693 1.34187 6.24928V6.24299C1.34187 5.93173 1.55421 5.67823 1.8161 5.67518L3.88322 5.70796C4.39157 5.77048 4.39157 6.0785 4.39157 6.21116C4.39157 6.64727 3.97605 6.72846 3.88436 6.73609ZM2.14528 1.44373L3.84872 1.61394C4.31532 1.63166 4.39157 1.94273 4.39157 2.13753C4.39157 2.48806 4.13596 2.60642 3.88322 2.60642L2.14871 2.6636C1.87138 2.65941 1.64684 2.38742 1.64684 2.05366C1.64684 1.71991 1.86947 1.45021 2.14528 1.44373ZM1.49035 2.80656L3.89961 2.92511C4.07859 2.93712 4.39157 2.9823 4.39157 3.42755C4.39157 3.65628 4.30865 3.91588 3.91505 3.95229L1.49035 4.02644C1.2399 4.02358 1.0369 3.76912 1.0369 3.42755C1.0369 3.08599 1.2399 2.80942 1.49035 2.80656Z" fill="black"/>
<path d="M7.5298 6.1547L7.51074 6.19282C7.53831 6.1344 7.58342 6.08602 7.63978 6.05444C7.59562 6.07857 7.5579 6.11296 7.5298 6.1547Z" fill="black"/>
<path d="M4.16138 9.58984C4.34112 9.84315 4.63904 9.98287 5.00119 9.98287C5.05783 9.98286 5.11336 9.96707 5.16153 9.93727C5.20971 9.90748 5.24863 9.86486 5.27395 9.81418C5.33113 9.69867 5.56462 9.35673 5.81126 8.99648C6.15436 8.49462 6.58036 7.87038 6.86398 7.37995L6.86646 7.37576C7.25682 6.6993 7.44495 6.32857 7.51109 6.194L7.53015 6.15588C7.55843 6.1143 7.59627 6.08011 7.64051 6.0562C7.68448 6.03187 7.73379 6.01884 7.78404 6.01827H8.26665C8.69476 6.01817 9.1053 5.84803 9.40798 5.54528C9.71066 5.24252 9.8807 4.83194 9.8807 4.40383V3.6681C9.8807 3.23995 9.71063 2.82935 9.40791 2.52659C9.10519 2.22383 8.6946 2.05371 8.26646 2.05366H7.33649C7.27156 2.05351 7.20808 2.03436 7.15389 1.99858C6.71664 1.71305 5.89056 1.44373 5.00119 1.44373C4.85919 1.44373 4.73072 1.44639 4.61483 1.45097C4.58722 1.45195 4.5604 1.46042 4.53723 1.47546C4.51406 1.4905 4.49541 1.51156 4.48327 1.53638C4.47114 1.56119 4.46597 1.58884 4.46833 1.61637C4.47069 1.6439 4.48048 1.67026 4.49666 1.69266L4.49856 1.69533C4.66191 1.93149 4.69622 2.18709 4.69622 2.35863C4.69652 2.52119 4.66283 2.68201 4.5973 2.83076C4.57863 2.87297 4.56899 2.91861 4.56899 2.96476C4.56899 3.01091 4.57863 3.05655 4.5973 3.09876C4.6625 3.25047 4.69612 3.41386 4.69612 3.57899C4.69612 3.74411 4.6625 3.90751 4.5973 4.05922C4.57873 4.10125 4.56913 4.14669 4.56913 4.19264C4.56913 4.23859 4.57873 4.28404 4.5973 4.32607C4.66217 4.47515 4.69565 4.63599 4.69565 4.79858C4.69565 4.96116 4.66217 5.12201 4.5973 5.27109C4.57779 5.31515 4.56771 5.36281 4.56771 5.411C4.56771 5.45918 4.57779 5.50684 4.5973 5.5509C4.66524 5.70392 4.699 5.86992 4.69622 6.03733C4.69622 6.19362 4.6581 6.44332 4.54374 6.63164C4.52064 6.67052 4.50668 6.71415 4.50292 6.75922C4.49915 6.8043 4.50568 6.84963 4.52201 6.89181C4.52925 6.91087 4.53649 6.93108 4.54355 6.95223C4.56637 7.02342 4.57199 7.09899 4.55994 7.17277C4.50276 7.54159 4.37562 7.86467 4.24086 8.20509C4.18216 8.35338 4.12135 8.50663 4.06512 8.66769C3.94809 9.00239 3.98316 9.33862 4.16138 9.58984Z" fill="black"/>
</g>
<defs>
<clipPath id="clip0_201_13246">
<rect width="9.75902" height="9.75902" fill="white" transform="translate(0.426758 0.83374)"/>
</clipPath>
</defs>
</svg>
