<svg width="11" height="11" viewBox="0 0 11 11" fill="none" xmlns="http://www.w3.org/2000/svg">
<g clip-path="url(#clip0_201_13273)">
<path d="M8.20988 3.44326C8.0824 2.83918 7.76437 2.29198 7.30259 1.88219C6.96011 1.57581 6.55006 1.35469 6.10589 1.23688C5.66172 1.11906 5.19599 1.10788 4.74668 1.20424C4.29736 1.30061 3.87718 1.50179 3.52038 1.79138C3.16359 2.08098 2.88028 2.45079 2.69355 2.87068C1.62749 2.93358 0.779297 3.8197 0.779297 4.90006C0.779297 6.0212 1.69249 6.93325 2.81497 6.93325H4.19324L3.82899 8.76307H4.7439V10.2879L6.87868 7.54319H6.04936L6.20184 6.93325H8.18109C8.64023 6.93141 9.08015 6.74869 9.4055 6.42472C9.73085 6.10074 9.91542 5.6616 9.91921 5.20247C9.923 4.74334 9.74569 4.30121 9.42573 3.97191C9.10577 3.64262 8.66892 3.45267 8.20988 3.44326Z" fill="black"/>
<path d="M2.62492 7.13438L1.89453 8.59485L2.44005 8.86767L3.17044 7.4072L2.62492 7.13438Z" fill="black"/>
<path d="M2.92992 8.65946L2.35205 9.81494L2.89757 10.0878L3.47544 8.93228L2.92992 8.65946Z" fill="black"/>
<path d="M7.96232 7.13463L7.23193 8.59509L7.77746 8.86791L8.50785 7.40745L7.96232 7.13463Z" fill="black"/>
<path d="M8.26732 8.6597L7.68945 9.81519L8.23498 10.088L8.81284 8.93252L8.26732 8.6597Z" fill="black"/>
</g>
<defs>
<clipPath id="clip0_201_13273">
<rect width="9.75902" height="9.75902" fill="white" transform="translate(0.474121 0.83374)"/>
</clipPath>
</defs>
</svg>
