<svg width="11" height="11" viewBox="0 0 11 11" fill="none" xmlns="http://www.w3.org/2000/svg">
<g clip-path="url(#clip0_201_13285)">
<path d="M7.27 3.61685C7.11143 3.45823 7.01859 3.2456 7.01003 3.02148C7.00148 2.79736 7.07785 2.57827 7.22387 2.40803C7.23595 2.39387 7.24223 2.37567 7.24145 2.35708C7.24067 2.33848 7.23289 2.32087 7.21968 2.30777L6.37853 1.46567C6.36463 1.45178 6.34578 1.44397 6.32612 1.44397C6.30646 1.44397 6.2876 1.45178 6.2737 1.46567L4.93298 2.8064C4.88351 2.85585 4.84625 2.91615 4.82414 2.98252V2.98252C4.80212 3.04903 4.7649 3.1095 4.71544 3.15913C4.66598 3.20876 4.60563 3.24618 4.53919 3.26842V3.26842C4.47278 3.29055 4.41242 3.32781 4.36288 3.37726L0.924537 6.81484C0.910639 6.82874 0.902832 6.8476 0.902832 6.86725C0.902832 6.88691 0.910639 6.90577 0.924537 6.91967L1.76568 7.76082C1.77878 7.77403 1.79639 7.78181 1.81499 7.78259C1.83358 7.78336 1.85178 7.77709 1.86594 7.76501C2.03614 7.61883 2.25528 7.54234 2.47948 7.55084C2.70368 7.55934 2.91639 7.65221 3.07504 7.81086C3.23368 7.96951 3.32655 8.18222 3.33506 8.40642C3.34356 8.63062 3.26706 8.84975 3.12089 9.01996C3.10881 9.03412 3.10253 9.05232 3.10331 9.07091C3.10409 9.0895 3.11186 9.10712 3.12508 9.12022L3.96623 9.96136C3.98013 9.97526 3.99898 9.98306 4.01864 9.98306C4.0383 9.98306 4.05715 9.97526 4.07106 9.96136L7.50959 6.52302C7.55904 6.47348 7.5963 6.41312 7.61842 6.34671V6.34671C7.64045 6.28019 7.67766 6.21972 7.72713 6.17009C7.77659 6.12046 7.83694 6.08304 7.90338 6.0608V6.0608C7.96974 6.0387 8.03005 6.00143 8.0795 5.95197L9.42022 4.61124C9.43412 4.59734 9.44193 4.57849 9.44193 4.55883C9.44193 4.53917 9.43412 4.52031 9.42022 4.50641L8.57908 3.66527C8.56598 3.65205 8.54836 3.64427 8.52977 3.64349C8.51118 3.64272 8.49298 3.649 8.47882 3.66107C8.30881 3.80734 8.08986 3.88404 7.86574 3.87584C7.64163 3.86764 7.42886 3.77515 7.27 3.61685V3.61685Z" stroke="black" stroke-width="0.609939" stroke-miterlimit="10"/>
<path d="M5.06762 3.51098L4.75293 3.19629" stroke="black" stroke-width="0.609939" stroke-miterlimit="10" stroke-linecap="round"/>
<path d="M5.90712 4.35005L5.69727 4.14038" stroke="black" stroke-width="0.609939" stroke-miterlimit="10" stroke-linecap="round"/>
<path d="M6.7458 5.18923L6.53613 4.97937" stroke="black" stroke-width="0.609939" stroke-miterlimit="10" stroke-linecap="round"/>
<path d="M7.69018 6.13305L7.37549 5.81836" stroke="black" stroke-width="0.609939" stroke-miterlimit="10" stroke-linecap="round"/>
</g>
<defs>
<clipPath id="clip0_201_13285">
<rect width="9.75902" height="9.75902" fill="white" transform="translate(0.292969 0.833984)"/>
</clipPath>
</defs>
</svg>
