<svg width="10" height="11" viewBox="0 0 10 11" fill="none" xmlns="http://www.w3.org/2000/svg">
<g clip-path="url(#clip0_201_13293)">
<path d="M9.4551 4.2915L8.61396 3.45036C8.54609 3.38341 8.45561 3.34431 8.36035 3.34079C8.26508 3.33726 8.17195 3.36955 8.09932 3.4313C7.98719 3.52674 7.8433 3.57657 7.69616 3.57093C7.54901 3.56528 7.40936 3.50456 7.30488 3.4008C7.20117 3.29632 7.14049 3.15671 7.13484 3.00961C7.12919 2.86252 7.17899 2.71866 7.27438 2.60654C7.33613 2.53391 7.36842 2.44078 7.36489 2.34552C7.36136 2.25026 7.32227 2.15977 7.25532 2.09191L6.41341 1.24981C6.34227 1.1788 6.24585 1.13892 6.14533 1.13892C6.04481 1.13892 5.94839 1.1788 5.87724 1.24981L4.53633 2.59053C4.45354 2.67362 4.39111 2.77474 4.35392 2.88597C4.34668 2.90736 4.3346 2.92679 4.31864 2.94275C4.30267 2.95872 4.28324 2.97079 4.26186 2.97803C4.15057 3.01522 4.04944 3.07773 3.96642 3.16063L0.527887 6.59916C0.456875 6.67031 0.416992 6.76673 0.416992 6.86725C0.416992 6.96777 0.456875 7.06419 0.527887 7.13534L1.36998 7.97648C1.43785 8.04343 1.52833 8.08252 1.6236 8.08605C1.71886 8.08958 1.81199 8.05729 1.88462 7.99554C1.99648 7.89933 2.14057 7.84894 2.28802 7.85448C2.43547 7.86001 2.57537 7.92106 2.67971 8.0254C2.78404 8.12973 2.84509 8.26964 2.85063 8.41708C2.85617 8.56453 2.80578 8.70862 2.70956 8.82049C2.64782 8.89312 2.61552 8.98624 2.61905 9.08151C2.62258 9.17677 2.66167 9.26726 2.72862 9.33512L3.56977 10.1763C3.64091 10.2473 3.73733 10.2872 3.83785 10.2872C3.93838 10.2872 4.03479 10.2473 4.10594 10.1763L7.54447 6.73773C7.62733 6.65475 7.68983 6.55369 7.72707 6.44249C7.73428 6.42103 7.74636 6.40154 7.76237 6.38553C7.77837 6.36952 7.79787 6.35744 7.81932 6.35023C7.9305 6.31304 8.03156 6.2506 8.11457 6.16782L9.45529 4.82691C9.52605 4.75577 9.56575 4.6595 9.56571 4.55917C9.56568 4.45883 9.52591 4.36259 9.4551 4.2915ZM5.10224 3.72635C5.07392 3.75468 5.04029 3.77715 5.00329 3.79248C4.96628 3.80781 4.92662 3.8157 4.88657 3.8157C4.84651 3.8157 4.80685 3.80781 4.76984 3.79248C4.73284 3.77715 4.69922 3.75468 4.6709 3.72635L4.45151 3.50697C4.39571 3.44948 4.36477 3.37236 4.36537 3.29225C4.36597 3.21214 4.39807 3.13548 4.45473 3.07885C4.51139 3.02221 4.58806 2.99015 4.66817 2.98958C4.74828 2.98901 4.82539 3.01999 4.88285 3.07582L5.10224 3.29501C5.13056 3.32333 5.15303 3.35695 5.16836 3.39396C5.18369 3.43096 5.19159 3.47063 5.19159 3.51068C5.19159 3.55074 5.18369 3.5904 5.16836 3.62741C5.15303 3.66441 5.13056 3.69803 5.10224 3.72635ZM5.9409 4.56502C5.88372 4.62217 5.80618 4.65427 5.72533 4.65427C5.64448 4.65427 5.56694 4.62217 5.50975 4.56502L5.30009 4.35535C5.27176 4.32703 5.2493 4.29341 5.23397 4.2564C5.21864 4.2194 5.21075 4.17974 5.21075 4.13968C5.21075 4.09963 5.21864 4.05997 5.23397 4.02296C5.2493 3.98596 5.27176 3.95233 5.30009 3.92401C5.35729 3.86681 5.43486 3.83468 5.51576 3.83468C5.55581 3.83468 5.59547 3.84257 5.63248 3.85789C5.66948 3.87322 5.7031 3.89569 5.73143 3.92401L5.94109 4.13368C5.96952 4.162 5.99208 4.19564 6.00747 4.2327C6.02287 4.26975 6.03081 4.30947 6.03082 4.34959C6.03084 4.38972 6.02294 4.42945 6.00758 4.46651C5.99221 4.50358 5.96968 4.53725 5.94128 4.56559L5.9409 4.56502ZM6.77957 5.40368C6.75125 5.43201 6.71763 5.45448 6.68062 5.46981C6.64362 5.48514 6.60395 5.49303 6.5639 5.49303C6.52384 5.49303 6.48418 5.48514 6.44718 5.46981C6.41017 5.45448 6.37655 5.43201 6.34823 5.40368L6.13856 5.19402C6.08276 5.13654 6.05182 5.05941 6.05242 4.9793C6.05302 4.89919 6.08512 4.82254 6.14178 4.7659C6.19844 4.70927 6.27511 4.6772 6.35522 4.67663C6.43533 4.67607 6.51245 4.70704 6.5699 4.76287L6.77957 4.97253C6.80807 5.00081 6.83071 5.03443 6.84619 5.07147C6.86167 5.10851 6.86969 5.14824 6.86978 5.18839C6.86986 5.22853 6.86202 5.2683 6.84671 5.30541C6.83139 5.34252 6.8089 5.37624 6.78052 5.40464L6.77957 5.40368ZM7.62643 6.25264C7.59811 6.28097 7.56449 6.30344 7.52748 6.31877C7.49048 6.3341 7.45081 6.34199 7.41076 6.34199C7.3707 6.34199 7.33104 6.3341 7.29404 6.31877C7.25703 6.30344 7.22341 6.28097 7.19509 6.25264L6.97704 6.03345C6.94812 6.00521 6.9251 5.97151 6.90932 5.9343C6.89354 5.89708 6.88531 5.85711 6.88512 5.81669C6.88492 5.77627 6.89277 5.73622 6.90819 5.69886C6.92362 5.6615 6.94631 5.62757 6.97496 5.59906C7.00361 5.57055 7.03764 5.54802 7.07508 5.53278C7.11251 5.51754 7.1526 5.50989 7.19302 5.51028C7.23344 5.51067 7.27338 5.51909 7.31051 5.53505C7.34764 5.55101 7.38124 5.57419 7.40933 5.60325L7.62757 5.82226C7.65589 5.85059 7.67834 5.88422 7.69366 5.92123C7.70897 5.95824 7.71684 5.99791 7.71683 6.03797C7.71681 6.07802 7.7089 6.11768 7.69355 6.15468C7.67821 6.19168 7.65572 6.22529 7.62738 6.2536L7.62643 6.25264Z" fill="black"/>
</g>
<defs>
<clipPath id="clip0_201_13293">
<rect width="9.75902" height="9.75902" fill="white" transform="translate(0.111816 0.83374)"/>
</clipPath>
</defs>
</svg>
