<svg width="11" height="11" viewBox="0 0 11 11" fill="none" xmlns="http://www.w3.org/2000/svg">
<path d="M2.90172 3.27351C2.30992 3.93446 1.9786 4.78802 1.96946 5.67514C1.94697 7.70224 3.602 9.36909 5.6291 9.3729C7.65333 9.37671 9.28873 7.73693 9.28873 5.71326C9.28873 3.72067 7.69622 2.09919 5.71487 2.05363C5.70372 2.05327 5.69261 2.05516 5.6822 2.05919C5.6718 2.06322 5.66231 2.0693 5.65431 2.07707C5.6463 2.08485 5.63994 2.09415 5.63561 2.10444C5.63128 2.11472 5.62907 2.12577 5.6291 2.13693V3.73096" stroke="black" stroke-width="0.609939" stroke-linecap="round" stroke-linejoin="round"/>
<path d="M5.19775 6.1447L3.69196 3.99086C3.67113 3.96101 3.66146 3.92479 3.66466 3.88854C3.66786 3.85229 3.68372 3.81831 3.70945 3.79258C3.73518 3.76685 3.76916 3.75099 3.80541 3.74779C3.84166 3.74459 3.87788 3.75426 3.90773 3.77509L6.06157 5.28088C6.19368 5.37602 6.28302 5.51936 6.31027 5.67987C6.33752 5.84038 6.30048 6.00517 6.20717 6.13858C6.11386 6.272 5.97178 6.36331 5.81166 6.39278C5.65154 6.42225 5.48626 6.3875 5.35156 6.29604C5.29201 6.25477 5.23998 6.20358 5.19775 6.1447Z" fill="black"/>
</svg>
