<svg width="11" height="11" viewBox="0 0 11 11" fill="none" xmlns="http://www.w3.org/2000/svg">
<path d="M5.448 1.74878C3.25832 1.74878 1.4834 3.5237 1.4834 5.71338C1.4834 7.90306 3.25832 9.67798 5.448 9.67798C7.63768 9.67798 9.4126 7.90306 9.4126 5.71338C9.4126 3.5237 7.63768 1.74878 5.448 1.74878ZM3.87874 3.92817L5.8801 5.28147C6.01221 5.37662 6.10156 5.51995 6.1288 5.68046C6.15605 5.84097 6.11901 6.00576 6.0257 6.13917C5.93239 6.27259 5.79031 6.36391 5.63019 6.39337C5.47007 6.42284 5.30479 6.38809 5.1701 6.29664C5.11092 6.2549 5.05934 6.20333 5.01761 6.14415L3.66431 4.14279C3.64348 4.11295 3.63382 4.07673 3.63701 4.04047C3.64021 4.00422 3.65607 3.97025 3.6818 3.94451C3.70754 3.91878 3.74151 3.90292 3.77776 3.89973C3.81401 3.89653 3.85023 3.90619 3.88008 3.92702L3.87874 3.92817ZM5.448 9.06804C3.59912 9.06804 2.09334 7.56321 2.09334 5.71338C2.09177 5.26219 2.18198 4.8154 2.3585 4.40018C2.53502 3.98495 2.79415 3.60996 3.12013 3.29802C3.14548 3.27275 3.17561 3.25278 3.20876 3.23927C3.24191 3.22576 3.27742 3.21898 3.31322 3.21933C3.34901 3.21969 3.38438 3.22716 3.41726 3.24133C3.45013 3.25549 3.47986 3.27606 3.50471 3.30183C3.52956 3.3276 3.54902 3.35806 3.56198 3.39143C3.57493 3.4248 3.58111 3.46042 3.58016 3.4962C3.57921 3.53199 3.57114 3.56722 3.55643 3.59986C3.54172 3.63249 3.52066 3.66188 3.49448 3.68629C3.22093 3.94811 3.00348 4.26282 2.85535 4.6113C2.70721 4.95977 2.63147 5.33473 2.63275 5.71338C2.63275 7.26568 3.89571 8.52863 5.448 8.52863C7.00029 8.52863 8.26325 7.26568 8.26325 5.71338C8.26325 4.25201 7.14401 3.04719 5.71771 2.91148V3.95981C5.71771 4.03134 5.68929 4.09994 5.63871 4.15052C5.58813 4.2011 5.51953 4.22951 5.448 4.22951C5.37647 4.22951 5.30787 4.2011 5.25729 4.15052C5.20671 4.09994 5.17829 4.03134 5.17829 3.95981V2.62843C5.17829 2.55689 5.20671 2.48829 5.25729 2.43771C5.30787 2.38713 5.37647 2.35872 5.448 2.35872C7.29783 2.35872 8.80266 3.8645 8.80266 5.71338C8.80266 7.56226 7.29783 9.06804 5.448 9.06804Z" fill="black"/>
</svg>
