<svg width="11" height="11" viewBox="0 0 11 11" fill="none" xmlns="http://www.w3.org/2000/svg">
<path d="M5.8103 1.74878C3.62082 1.74878 1.8457 3.52389 1.8457 5.71338C1.8457 7.89944 3.62444 9.67798 5.8103 9.67798C7.9996 9.67798 9.77491 7.90268 9.77491 5.71338C9.77491 3.52732 7.99636 1.74878 5.8103 1.74878ZM7.86885 6.32332H5.58158C5.56136 6.32332 5.54196 6.31529 5.52767 6.30099C5.51337 6.28669 5.50534 6.2673 5.50534 6.24708V3.0449C5.50534 3.02468 5.51337 3.00529 5.52767 2.99099C5.54196 2.97669 5.56136 2.96866 5.58158 2.96866H6.03903C6.05925 2.96866 6.07865 2.97669 6.09294 2.99099C6.10724 3.00529 6.11527 3.02468 6.11527 3.0449V5.71338H7.86885C7.88907 5.71338 7.90846 5.72141 7.92276 5.73571C7.93706 5.75001 7.94509 5.7694 7.94509 5.78962V6.24708C7.94509 6.2673 7.93706 6.28669 7.92276 6.30099C7.90846 6.31529 7.88907 6.32332 7.86885 6.32332Z" fill="black"/>
</svg>
