<svg width="11" height="11" viewBox="0 0 11 11" fill="none" xmlns="http://www.w3.org/2000/svg">
<path d="M5.21948 1.74878C3.03 1.74878 1.25488 3.52389 1.25488 5.71338C1.25488 7.90287 3.03 9.67798 5.21948 9.67798C7.40897 9.67798 9.18409 7.90287 9.18409 5.71338C9.18409 3.52389 7.40897 1.74878 5.21948 1.74878ZM7.0493 6.32332H5.21948C5.1386 6.32332 5.06103 6.29119 5.00384 6.234C4.94665 6.1768 4.91452 6.09923 4.91452 6.01835V3.27363C4.91452 3.19274 4.94665 3.11517 5.00384 3.05798C5.06103 3.00079 5.1386 2.96866 5.21948 2.96866C5.30037 2.96866 5.37794 3.00079 5.43513 3.05798C5.49232 3.11517 5.52445 3.19274 5.52445 3.27363V5.71338H7.0493C7.13018 5.71338 7.20775 5.74551 7.26495 5.8027C7.32214 5.8599 7.35427 5.93747 7.35427 6.01835C7.35427 6.09923 7.32214 6.1768 7.26495 6.234C7.20775 6.29119 7.13018 6.32332 7.0493 6.32332Z" fill="black"/>
</svg>
