<svg width="10" height="11" viewBox="0 0 10 11" fill="none" xmlns="http://www.w3.org/2000/svg">
<g clip-path="url(#clip0_201_13305)">
<path d="M5.03833 1.74878C2.84865 1.74878 1.07373 3.5237 1.07373 5.71338C1.07373 7.90306 2.84865 9.67798 5.03833 9.67798C7.22801 9.67798 9.00293 7.90306 9.00293 5.71338C9.00293 3.5237 7.22801 1.74878 5.03833 1.74878ZM5.03833 9.06804C3.18946 9.06804 1.68367 7.56321 1.68367 5.71338C1.6821 5.26219 1.77231 4.8154 1.94883 4.40018C2.12535 3.98495 2.38448 3.60996 2.71046 3.29802L5.47673 5.27499L5.11457 5.84681L2.732 4.11229C2.48421 4.55069 2.22308 4.98908 2.22308 5.71338C2.22308 7.26568 3.48604 8.52863 5.03833 8.52863C6.59063 8.52863 7.85358 7.26568 7.85358 5.71338C7.85358 4.25201 6.73434 3.04719 5.30804 2.91148V3.95981H4.76863V2.35662C4.84944 2.35796 4.93903 2.35872 5.03833 2.35872C6.88816 2.35872 8.393 3.8645 8.393 5.71338C8.393 7.56226 6.88816 9.06804 5.03833 9.06804Z" fill="black"/>
</g>
<defs>
<clipPath id="clip0_201_13305">
<rect width="9.75902" height="9.75902" fill="white" transform="translate(0.158691 0.83374)"/>
</clipPath>
</defs>
</svg>
