<svg width="11" height="11" viewBox="0 0 11 11" fill="none" xmlns="http://www.w3.org/2000/svg">
<path d="M8.72551 2.05351H8.42055V1.75712C8.42055 1.59301 8.29436 1.45215 8.13025 1.44396C8.08902 1.44197 8.04781 1.44838 8.00912 1.46279C7.97044 1.4772 7.93508 1.49931 7.90519 1.52779C7.87531 1.55627 7.85151 1.59052 7.83525 1.62846C7.819 1.66641 7.81061 1.70726 7.81061 1.74855V2.05351H3.54104V1.75712C3.54104 1.59301 3.41485 1.45215 3.25074 1.44396C3.20951 1.44197 3.1683 1.44838 3.12961 1.46279C3.09093 1.4772 3.05557 1.49931 3.02568 1.52779C2.9958 1.55627 2.972 1.59052 2.95574 1.62846C2.93949 1.66641 2.9311 1.70726 2.9311 1.74855V2.05351H2.62613C2.3026 2.05351 1.99232 2.18204 1.76354 2.41081C1.53477 2.63958 1.40625 2.94986 1.40625 3.27339V3.50212C1.40625 3.52234 1.41428 3.54173 1.42858 3.55603C1.44288 3.57033 1.46227 3.57836 1.48249 3.57836H9.86915C9.88937 3.57836 9.90876 3.57033 9.92306 3.55603C9.93736 3.54173 9.94539 3.52234 9.94539 3.50212V3.27339C9.94539 2.94986 9.81687 2.63958 9.5881 2.41081C9.35933 2.18204 9.04905 2.05351 8.72551 2.05351Z" fill="black"/>
<path d="M9.88821 4.18835H1.46343C1.44827 4.18835 1.43372 4.19438 1.423 4.2051C1.41227 4.21583 1.40625 4.23037 1.40625 4.24554V8.7629C1.40625 9.08643 1.53477 9.39671 1.76354 9.62548C1.99232 9.85425 2.3026 9.98277 2.62613 9.98277H8.72551C9.04905 9.98277 9.35933 9.85425 9.5881 9.62548C9.81687 9.39671 9.94539 9.08643 9.94539 8.7629V4.24554C9.94539 4.23037 9.93937 4.21583 9.92864 4.2051C9.91792 4.19438 9.90338 4.18835 9.88821 4.18835ZM5.06588 6.69349C5.06588 6.83791 5.00851 6.97643 4.90638 7.07855C4.80426 7.18068 4.66575 7.23805 4.52132 7.23805H3.17069C3.02626 7.23805 2.88775 7.18068 2.78563 7.07855C2.6835 6.97643 2.62613 6.83791 2.62613 6.69349V5.34285C2.62613 5.19843 2.6835 5.05992 2.78563 4.95779C2.88775 4.85567 3.02626 4.79829 3.17069 4.79829H4.52132C4.66575 4.79829 4.80426 4.85567 4.90638 4.95779C5.00851 5.05992 5.06588 5.19843 5.06588 5.34285V6.69349Z" fill="black"/>
</svg>
