<svg width="10" height="11" viewBox="0 0 10 11" fill="none" xmlns="http://www.w3.org/2000/svg">
<g clip-path="url(#clip0_201_13321)">
<path d="M7.22052 8.15295C8.56796 8.15295 9.66027 7.06063 9.66027 5.71319C9.66027 4.36575 8.56796 3.27344 7.22052 3.27344C5.87308 3.27344 4.78076 4.36575 4.78076 5.71319C4.78076 7.06063 5.87308 8.15295 7.22052 8.15295Z" stroke="black" stroke-width="0.609939" stroke-linejoin="round"/>
<path d="M7.22056 3.27344H2.95099C1.60355 3.27344 0.51123 4.36575 0.51123 5.71319C0.51123 7.06063 1.60355 8.15295 2.95099 8.15295H7.22056C8.568 8.15295 9.66031 7.06063 9.66031 5.71319C9.66031 4.36575 8.568 3.27344 7.22056 3.27344Z" stroke="black" stroke-width="0.609939" stroke-linejoin="round"/>
</g>
<defs>
<clipPath id="clip0_201_13321">
<rect width="9.75902" height="9.75902" fill="white" transform="translate(0.206055 0.83374)"/>
</clipPath>
</defs>
</svg>
