<svg width="11" height="11" viewBox="0 0 11 11" fill="none" xmlns="http://www.w3.org/2000/svg">
<g clip-path="url(#clip0_201_13324)">
<path d="M7.62953 2.96851H3.35996C2.63201 2.96851 1.93388 3.25768 1.41915 3.77242C0.90441 4.28715 0.615234 4.98528 0.615234 5.71323C0.615234 6.44118 0.90441 7.13931 1.41915 7.65404C1.93388 8.16878 2.63201 8.45796 3.35996 8.45796H7.62953C8.35748 8.45796 9.05561 8.16878 9.57034 7.65404C10.0851 7.13931 10.3743 6.44118 10.3743 5.71323C10.3743 4.98528 10.0851 4.28715 9.57034 3.77242C9.05561 3.25768 8.35748 2.96851 7.62953 2.96851ZM7.62953 7.35244C7.30533 7.35244 6.9884 7.2563 6.71883 7.07618C6.44927 6.89607 6.23917 6.64006 6.1151 6.34053C5.99103 6.041 5.95857 5.71141 6.02182 5.39344C6.08507 5.07546 6.24119 4.78338 6.47043 4.55413C6.69968 4.32489 6.99176 4.16877 7.30974 4.10552C7.62771 4.04227 7.9573 4.07473 8.25683 4.1988C8.55636 4.32287 8.81237 4.53297 8.99248 4.80253C9.1726 5.0721 9.26874 5.38903 9.26874 5.71323C9.26904 5.92858 9.22685 6.14187 9.14458 6.34089C9.06231 6.5399 8.94157 6.72072 8.7893 6.873C8.63702 7.02527 8.4562 7.14601 8.25718 7.22828C8.05817 7.31055 7.84488 7.35274 7.62953 7.35244Z" fill="black"/>
</g>
<defs>
<clipPath id="clip0_201_13324">
<rect width="9.75902" height="9.75902" fill="white" transform="translate(0.615234 0.83374)"/>
</clipPath>
</defs>
</svg>
