<svg width="11" height="10" viewBox="0 0 11 10" fill="none" xmlns="http://www.w3.org/2000/svg">
<g clip-path="url(#clip0_201_13326)">
<path d="M7.56752 2.37805H3.29795C1.78454 2.37805 0.553223 3.60937 0.553223 5.12278C0.553223 6.63619 1.78454 7.8675 3.29795 7.8675H7.56752C9.08093 7.8675 10.3122 6.63619 10.3122 5.12278C10.3122 3.60937 9.08093 2.37805 7.56752 2.37805ZM7.56752 7.25756C7.1453 7.25756 6.73256 7.13236 6.38149 6.89779C6.03043 6.66321 5.75681 6.3298 5.59523 5.93972C5.43366 5.54964 5.39138 5.12041 5.47375 4.7063C5.55612 4.29219 5.75944 3.91181 6.058 3.61326C6.35655 3.3147 6.73693 3.11138 7.15104 3.02901C7.56515 2.94664 7.99438 2.98891 8.38447 3.15049C8.77455 3.31207 9.10795 3.58569 9.34253 3.93675C9.5771 4.28782 9.7023 4.70056 9.7023 5.12278C9.7017 5.68877 9.47659 6.23141 9.07637 6.63163C8.67615 7.03185 8.13351 7.25696 7.56752 7.25756Z" fill="black"/>
</g>
<defs>
<clipPath id="clip0_201_13326">
<rect width="9.75902" height="9.75902" fill="white" transform="translate(0.553223 0.243408)"/>
</clipPath>
</defs>
</svg>
