<svg width="10" height="10" viewBox="0 0 10 10" fill="none" xmlns="http://www.w3.org/2000/svg">
<g clip-path="url(#clip0_201_13346)">
<path d="M5.31979 6.46819C5.55836 6.22962 5.55902 5.84349 5.32127 5.60574C5.08352 5.36799 4.69739 5.36865 4.45882 5.60722C4.22025 5.84579 4.21959 6.23192 4.45734 6.46967C4.69509 6.70742 5.08122 6.70675 5.31979 6.46819Z" fill="black"/>
<path d="M6.71887 0.853187H6.43296C6.40413 0.853302 6.37566 0.846878 6.34967 0.834398C6.32369 0.821918 6.30088 0.803708 6.28295 0.781138C6.22598 0.708553 6.15326 0.649868 6.07028 0.609517C5.9873 0.569165 5.89623 0.548204 5.80396 0.548218H3.97414C3.87663 0.548262 3.78055 0.571685 3.69396 0.616524C3.60736 0.661362 3.53278 0.726308 3.47647 0.805917C3.46581 0.820635 3.45179 0.832601 3.43558 0.840821C3.41937 0.849042 3.40144 0.853281 3.38326 0.853187H3.05923C2.35761 0.853187 1.83936 1.40289 1.83936 2.07306V6.93352C1.83936 7.37706 2.32731 7.7352 3.42138 8.09507C3.88342 8.24412 4.35273 8.36964 4.82748 8.47113C4.8681 8.47951 4.91 8.47951 4.95062 8.47113C5.42537 8.36964 5.89468 8.24412 6.35671 8.09507C7.45079 7.7352 7.93874 7.37706 7.93874 6.93352V2.07306C7.93874 1.74953 7.81022 1.43925 7.58145 1.21048C7.35268 0.98171 7.0424 0.853187 6.71887 0.853187ZM3.51669 2.683H6.26141C6.30185 2.683 6.34064 2.69907 6.36923 2.72767C6.39783 2.75626 6.4139 2.79505 6.4139 2.83549V3.7504C6.4139 3.79084 6.39783 3.82962 6.36923 3.85822C6.34064 3.88682 6.30185 3.90288 6.26141 3.90288H3.51669C3.47625 3.90288 3.43746 3.88682 3.40886 3.85822C3.38027 3.82962 3.3642 3.79084 3.3642 3.7504V2.83549C3.3642 2.79505 3.38027 2.75626 3.40886 2.72767C3.43746 2.69907 3.47625 2.683 3.51669 2.683ZM4.96872 7.25507C4.7212 7.27124 4.47462 7.21158 4.26188 7.08402C4.04913 6.95647 3.88033 6.76709 3.77798 6.54113C3.67563 6.31518 3.64459 6.0634 3.68901 5.81935C3.73342 5.57531 3.85118 5.3506 4.02658 5.1752C4.20198 4.9998 4.42669 4.88204 4.67073 4.83763C4.91478 4.79321 5.16656 4.82424 5.39252 4.9266C5.61847 5.02895 5.80785 5.19775 5.9354 5.4105C6.06296 5.62324 6.12263 5.86982 6.10645 6.11734C6.08687 6.41264 5.96071 6.69079 5.75144 6.90006C5.54217 7.10933 5.26403 7.23548 4.96872 7.25507Z" fill="black"/>
<path d="M7.54474 9.1769L6.63593 8.2679C6.51985 8.15163 6.33096 8.14096 6.20935 8.25151C6.17878 8.27926 6.15416 8.31293 6.13699 8.35047C6.11982 8.38802 6.11045 8.42867 6.10945 8.46994C6.10845 8.51122 6.11585 8.55227 6.13119 8.5906C6.14652 8.62893 6.16948 8.66375 6.19868 8.69295L6.28788 8.78234H3.49093L3.57403 8.69905C3.6903 8.58297 3.70098 8.39408 3.59043 8.27247C3.56268 8.2419 3.52901 8.21728 3.49146 8.20011C3.45391 8.18294 3.41327 8.17357 3.37199 8.17257C3.33072 8.17158 3.28967 8.17897 3.25133 8.19431C3.213 8.20964 3.17818 8.23261 3.14898 8.2618L2.23408 9.17671C2.20456 9.20474 2.18096 9.23841 2.16467 9.27571C2.14837 9.31301 2.13971 9.3532 2.13919 9.3939C2.13866 9.4346 2.1463 9.475 2.16163 9.5127C2.17697 9.55041 2.1997 9.58467 2.22848 9.61345C2.25727 9.64223 2.29152 9.66496 2.32923 9.6803C2.36694 9.69564 2.40733 9.70327 2.44803 9.70275C2.48874 9.70223 2.52892 9.69356 2.56623 9.67727C2.60353 9.66097 2.63719 9.63737 2.66523 9.60786L2.88099 9.39247H6.89782L7.11359 9.60805C7.17124 9.66283 7.24802 9.69291 7.32754 9.6919C7.40707 9.69088 7.48305 9.65883 7.53929 9.6026C7.59552 9.54636 7.62757 9.47038 7.62858 9.39086C7.6296 9.31133 7.59951 9.23456 7.54474 9.1769Z" fill="black"/>
</g>
<defs>
<clipPath id="clip0_201_13346">
<rect width="9.75902" height="9.75902" fill="white" transform="translate(0.00976562 0.243408)"/>
</clipPath>
</defs>
</svg>
