<svg width="11" height="10" viewBox="0 0 11 10" fill="none" xmlns="http://www.w3.org/2000/svg">
<g clip-path="url(#clip0_201_13328)">
<path d="M5.8418 7.86755V9.08743" stroke="black" stroke-width="0.609939" stroke-linecap="round" stroke-linejoin="round"/>
<path d="M5.8418 4.20789V5.42776" stroke="black" stroke-width="0.609939" stroke-linecap="round" stroke-linejoin="round"/>
<path d="M5.8418 1.1582V1.76814" stroke="black" stroke-width="0.609939" stroke-linecap="round" stroke-linejoin="round"/>
<path d="M8.89153 4.20794H2.91851C2.87844 4.20795 2.83876 4.20006 2.80174 4.18472C2.76471 4.16938 2.73108 4.1469 2.70275 4.11855L1.57227 2.98807L2.70275 1.85758C2.73108 1.82924 2.76471 1.80675 2.80174 1.79141C2.83876 1.77607 2.87844 1.76818 2.91851 1.76819H8.89153C8.97241 1.76819 9.04998 1.80032 9.10718 1.85751C9.16437 1.9147 9.1965 1.99227 9.1965 2.07316V3.90297C9.1965 3.98386 9.16437 4.06143 9.10718 4.11862C9.04998 4.17581 8.97241 4.20794 8.89153 4.20794Z" stroke="black" stroke-width="0.609939" stroke-linecap="round" stroke-linejoin="round"/>
<path d="M2.79227 7.86749H8.76529C8.80536 7.8675 8.84505 7.8596 8.88207 7.84427C8.91909 7.82893 8.95273 7.80644 8.98106 7.7781L10.1115 6.64761L8.98106 5.51713C8.95273 5.48878 8.91909 5.4663 8.88207 5.45096C8.84505 5.43562 8.80536 5.42773 8.76529 5.42773H2.79227C2.71139 5.42773 2.63382 5.45986 2.57663 5.51706C2.51944 5.57425 2.4873 5.65182 2.4873 5.7327V7.56252C2.4873 7.6434 2.51944 7.72097 2.57663 7.77817C2.63382 7.83536 2.71139 7.86749 2.79227 7.86749Z" stroke="black" stroke-width="0.609939" stroke-linecap="round" stroke-linejoin="round"/>
</g>
<defs>
<clipPath id="clip0_201_13328">
<rect width="9.75902" height="9.75902" fill="white" transform="translate(0.962402 0.243408)"/>
</clipPath>
</defs>
</svg>
