<svg width="11" height="10" viewBox="0 0 11 10" fill="none" xmlns="http://www.w3.org/2000/svg">
<g clip-path="url(#clip0_201_13336)">
<path d="M10.146 6.43211L9.01549 5.30144C8.95897 5.24464 8.89174 5.1996 8.8177 5.16895C8.74366 5.13829 8.66428 5.12262 8.58415 5.12284H5.9658V4.5129H8.71052C8.87229 4.5129 9.02743 4.44864 9.14181 4.33426C9.2562 4.21987 9.32046 4.06473 9.32046 3.90297V2.07315C9.32046 1.91138 9.2562 1.75624 9.14181 1.64186C9.02743 1.52747 8.87229 1.46321 8.71052 1.46321H5.9658V1.15824C5.9658 1.07736 5.93366 0.999788 5.87647 0.942595C5.81928 0.885402 5.74171 0.853271 5.66083 0.853271C5.57994 0.853271 5.50237 0.885402 5.44518 0.942595C5.38799 0.999788 5.35586 1.07736 5.35586 1.15824V1.46321H2.7375C2.65737 1.46299 2.57799 1.47866 2.50395 1.50931C2.42991 1.53997 2.36268 1.585 2.30616 1.64181L1.17568 2.77248C1.11853 2.82967 1.08643 2.90721 1.08643 2.98806C1.08643 3.06891 1.11853 3.14645 1.17568 3.20363L2.30616 4.33431C2.36268 4.39111 2.42991 4.43614 2.50395 4.4668C2.57799 4.49746 2.65737 4.51313 2.7375 4.5129H5.35586V5.12284H2.61113C2.44937 5.12284 2.29423 5.1871 2.17984 5.30149C2.06545 5.41588 2.00119 5.57102 2.00119 5.73278V7.5626C2.00119 7.72436 2.06545 7.8795 2.17984 7.99389C2.29423 8.10827 2.44937 8.17254 2.61113 8.17254H5.35586V9.08744C5.35586 9.16833 5.38799 9.2459 5.44518 9.30309C5.50237 9.36028 5.57994 9.39241 5.66083 9.39241C5.74171 9.39241 5.81928 9.36028 5.87647 9.30309C5.93366 9.2459 5.9658 9.16833 5.9658 9.08744V8.17254H8.58415C8.66428 8.17276 8.74366 8.15709 8.8177 8.12643C8.89174 8.09578 8.95897 8.05074 9.01549 7.99394L10.146 6.86326C10.2031 6.80608 10.2352 6.72854 10.2352 6.64769C10.2352 6.56684 10.2031 6.4893 10.146 6.43211Z" fill="black"/>
</g>
<defs>
<clipPath id="clip0_201_13336">
<rect width="9.75902" height="9.75902" fill="white" transform="translate(0.78125 0.243408)"/>
</clipPath>
</defs>
</svg>
