<svg width="11" height="10" viewBox="0 0 11 10" fill="none" xmlns="http://www.w3.org/2000/svg">
<g clip-path="url(#clip0_201_13350)">
<path d="M5.29864 7.56262C6.64608 7.56262 7.7384 6.4703 7.7384 5.12286C7.7384 3.77542 6.64608 2.68311 5.29864 2.68311C3.9512 2.68311 2.85889 3.77542 2.85889 5.12286C2.85889 6.4703 3.9512 7.56262 5.29864 7.56262Z" stroke="black" stroke-width="0.609939" stroke-linecap="round" stroke-linejoin="round"/>
<path d="M8.95823 6.95264L7.12842 8.78245" stroke="black" stroke-width="0.609939" stroke-linecap="round" stroke-linejoin="round"/>
<path d="M3.77377 1.76819L1.94434 3.59762" stroke="black" stroke-width="0.609939" stroke-linecap="round" stroke-linejoin="round"/>
<path d="M9.26313 2.68305V1.1582H7.73828" stroke="black" stroke-width="0.609939" stroke-linecap="round" stroke-linejoin="round"/>
<path d="M1.33398 2.68305V1.1582H2.85883" stroke="black" stroke-width="0.609939" stroke-linecap="round" stroke-linejoin="round"/>
<path d="M9.26306 1.1582L7.02344 3.39782" stroke="black" stroke-width="0.609939" stroke-linecap="round" stroke-linejoin="round"/>
<path d="M1.33398 1.1582L3.57341 3.39763" stroke="black" stroke-width="0.609939" stroke-linecap="round" stroke-linejoin="round"/>
<path d="M9.26313 9.08743L7.02637 6.84534" stroke="black" stroke-width="0.609939" stroke-linecap="round" stroke-linejoin="round"/>
</g>
<defs>
<clipPath id="clip0_201_13350">
<rect width="9.75902" height="9.75902" fill="white" transform="translate(0.418945 0.243408)"/>
</clipPath>
</defs>
</svg>
