<svg width="11" height="10" viewBox="0 0 11 10" fill="none" xmlns="http://www.w3.org/2000/svg">
<g clip-path="url(#clip0_201_13359)">
<path d="M9.97762 8.80039L9.04479 7.8649L9.67265 7.23704L9.07987 6.64407L8.45277 7.27116L8.0039 6.82114C8.36889 6.32916 8.56578 5.73273 8.56544 5.12014C8.56509 4.50756 8.36753 3.91135 8.00199 3.41978L9.13705 2.28453V2.98806H9.97571V0.853271H7.84093V1.69194H8.54369L7.40863 2.827C6.9166 2.46113 6.31977 2.26356 5.70662 2.26356C5.09347 2.26356 4.49664 2.46113 4.0046 2.827L3.8607 2.68309L4.4897 2.05409L3.89729 1.46092L3.26829 2.08992L2.86974 1.69194H3.57326V0.853271H1.43848V2.98806H2.27714V2.28453L2.67494 2.68309L2.04594 3.31209L2.63929 3.90392L3.26829 3.27492L3.41239 3.41921C3.04586 3.91107 2.84822 4.50828 2.84896 5.1217C2.84896 6.69782 4.13117 7.98079 5.70805 7.98079C6.3225 7.9815 6.92063 7.78308 7.41283 7.41526L7.86094 7.86471L7.22927 8.49466L7.82225 9.08744L8.45125 8.45845L9.38331 9.39241L9.97762 8.80039ZM3.68763 5.1217C3.68763 4.7221 3.80612 4.33147 4.02813 3.99921C4.25014 3.66696 4.56568 3.40799 4.93487 3.25507C5.30405 3.10215 5.71029 3.06214 6.10221 3.1401C6.49414 3.21806 6.85414 3.41048 7.1367 3.69304C7.41926 3.97561 7.61169 4.33561 7.68965 4.72753C7.76761 5.11946 7.7276 5.5257 7.57467 5.89488C7.42175 6.26407 7.16279 6.57961 6.83053 6.80162C6.49828 7.02363 6.10765 7.14212 5.70805 7.14212C5.17234 7.14167 4.6587 6.92866 4.2799 6.54985C3.90109 6.17105 3.68808 5.65741 3.68763 5.1217Z" fill="black"/>
</g>
<defs>
<clipPath id="clip0_201_13359">
<rect width="9.75902" height="9.75902" fill="white" transform="translate(0.828613 0.243408)"/>
</clipPath>
</defs>
</svg>
