<svg width="10" height="10" viewBox="0 0 10 10" fill="none" xmlns="http://www.w3.org/2000/svg">
<g clip-path="url(#clip0_201_13361)">
<path d="M8.96795 0.853271H7.67183C7.56062 0.853271 7.45396 0.897451 7.37532 0.976091C7.29668 1.05473 7.2525 1.16139 7.2525 1.2726C7.2525 1.38382 7.29668 1.49048 7.37532 1.56912C7.45396 1.64776 7.56062 1.69194 7.67183 1.69194H7.95565L6.82021 2.82738C6.32804 2.46141 5.73104 2.26377 5.11772 2.26377C4.50439 2.26377 3.90739 2.46141 3.41522 2.82738L3.27094 2.68309L3.77509 2.17913C3.81404 2.14018 3.84493 2.09394 3.86601 2.04305C3.88709 1.99216 3.89794 1.93762 3.89794 1.88254C3.89794 1.82746 3.88709 1.77292 3.86601 1.72203C3.84493 1.67115 3.81404 1.62491 3.77509 1.58596C3.73614 1.54701 3.6899 1.51612 3.63901 1.49504C3.58813 1.47396 3.53359 1.46311 3.47851 1.46311C3.36727 1.46311 3.26058 1.5073 3.18192 1.58596L2.67796 2.09011L2.27979 1.69194H2.5636C2.67481 1.69194 2.78147 1.64776 2.86011 1.56912C2.93875 1.49048 2.98293 1.38382 2.98293 1.2726C2.98293 1.16139 2.93875 1.05473 2.86011 0.976091C2.78147 0.897451 2.67481 0.853271 2.5636 0.853271H1.26748C1.15626 0.853271 1.0496 0.897451 0.970964 0.976091C0.892324 1.05473 0.848145 1.16139 0.848145 1.2726V2.56872C0.848145 2.67994 0.892324 2.7866 0.970964 2.86524C1.0496 2.94388 1.15626 2.98806 1.26748 2.98806C1.37869 2.98806 1.48535 2.94388 1.56399 2.86524C1.64263 2.7866 1.68681 2.67994 1.68681 2.56872V2.28491L2.08499 2.68309L1.58141 3.18667C1.54162 3.22542 1.50994 3.27168 1.48818 3.32277C1.46642 3.37386 1.45503 3.42877 1.45466 3.4843C1.4543 3.53983 1.46497 3.59488 1.48605 3.64626C1.50713 3.69763 1.53821 3.74431 1.57747 3.78357C1.61674 3.82284 1.66342 3.85392 1.71479 3.875C1.76617 3.89608 1.82122 3.90675 1.87675 3.90638C1.93228 3.90602 1.98719 3.89463 2.03828 3.87287C2.08937 3.85111 2.13563 3.81942 2.17438 3.77964L2.67796 3.27606L2.82225 3.42035C2.45566 3.9122 2.25795 4.50941 2.25863 5.12284C2.25863 6.69934 3.54121 7.98193 5.11772 7.98193C5.73228 7.98262 6.33053 7.78421 6.82288 7.4164L7.27156 7.86566L6.76569 8.37153C6.68704 8.45019 6.64285 8.55687 6.64285 8.66811C6.64285 8.77935 6.68704 8.88604 6.76569 8.96469C6.84435 9.04335 6.95104 9.08754 7.06228 9.08754C7.17352 9.08754 7.2802 9.04335 7.35886 8.96469L7.86378 8.45959L8.67137 9.26928C8.74993 9.34804 8.85656 9.39237 8.9678 9.39251C9.07904 9.39266 9.18578 9.3486 9.26454 9.27005C9.3433 9.19149 9.38762 9.08486 9.38777 8.97362C9.38791 8.86238 9.34386 8.75564 9.2653 8.67688L8.45656 7.86757L8.95957 7.36456C9.03823 7.2859 9.08242 7.17922 9.08242 7.06798C9.08242 6.95674 9.03823 6.85005 8.95957 6.77139C8.88091 6.69273 8.77423 6.64854 8.66299 6.64854C8.55175 6.64854 8.44506 6.69273 8.3664 6.77139L7.86416 7.27364L7.41528 6.82343C7.7803 6.33131 7.9772 5.73474 7.97682 5.12202C7.97644 4.5093 7.77881 3.91298 7.41318 3.4213L8.54862 2.28491V2.56872C8.54862 2.67994 8.5928 2.7866 8.67144 2.86524C8.75008 2.94388 8.85674 2.98806 8.96795 2.98806C9.07917 2.98806 9.18583 2.94388 9.26447 2.86524C9.34311 2.7866 9.38729 2.67994 9.38729 2.56872V1.2726C9.38729 1.16139 9.34311 1.05473 9.26447 0.976091C9.18583 0.897451 9.07917 0.853271 8.96795 0.853271ZM3.09729 5.12284C3.09729 4.72324 3.21579 4.33261 3.4378 4.00036C3.6598 3.6681 3.97535 3.40914 4.34453 3.25622C4.71372 3.1033 5.11996 3.06328 5.51188 3.14124C5.9038 3.2192 6.26381 3.41163 6.54637 3.69419C6.82893 3.97675 7.02136 4.33675 7.09932 4.72868C7.17727 5.1206 7.13726 5.52684 6.98434 5.89603C6.83142 6.26521 6.57246 6.58076 6.2402 6.80276C5.90795 7.02477 5.51732 7.14327 5.11772 7.14327C4.58205 7.14266 4.0685 6.9296 3.68973 6.55083C3.31096 6.17206 3.0979 5.65851 3.09729 5.12284Z" fill="black"/>
</g>
<defs>
<clipPath id="clip0_201_13361">
<rect width="9.75902" height="9.75902" fill="white" transform="translate(0.238281 0.243408)"/>
</clipPath>
</defs>
</svg>
