<svg width="11" height="10" viewBox="0 0 11 10" fill="none" xmlns="http://www.w3.org/2000/svg">
<g clip-path="url(#clip0_201_13383)">
<path d="M8.81557 2.07315H6.68936V1.15824C6.68936 1.07736 6.65723 0.999788 6.60004 0.942595C6.54285 0.885402 6.46528 0.853271 6.38439 0.853271H3.94464C3.86375 0.853271 3.78619 0.885402 3.72899 0.942595C3.6718 0.999788 3.63967 1.07736 3.63967 1.15824V2.07315H1.51346L1.50488 2.83557H2.13388L2.51681 8.8206C2.5265 8.97537 2.59478 9.12064 2.70777 9.22686C2.82075 9.33308 2.96996 9.39228 3.12503 9.39241H7.204C7.35899 9.39239 7.50815 9.33337 7.6212 9.22734C7.73424 9.12131 7.80267 8.97622 7.8126 8.82155L8.19515 2.83557H8.82415L8.81557 2.07315ZM3.63967 8.17254L3.46812 3.29303H4.09712L4.26867 8.17254H3.63967ZM5.46949 8.17254H4.85955V3.29303H5.46949V8.17254ZM5.92694 2.07315H4.40209V1.53945C4.40209 1.51923 4.41012 1.49984 4.42442 1.48554C4.43872 1.47124 4.45811 1.46321 4.47833 1.46321H5.8507C5.87092 1.46321 5.89031 1.47124 5.90461 1.48554C5.91891 1.49984 5.92694 1.51923 5.92694 1.53945V2.07315ZM6.68936 8.17254H6.06036L6.23191 3.29303H6.86091L6.68936 8.17254Z" fill="black"/>
</g>
<defs>
<clipPath id="clip0_201_13383">
<rect width="9.75902" height="9.75902" fill="white" transform="translate(0.285156 0.243408)"/>
</clipPath>
</defs>
</svg>
