<svg width="11" height="10" viewBox="0 0 11 10" fill="none" xmlns="http://www.w3.org/2000/svg">
<g clip-path="url(#clip0_201_13387)">
<path d="M8.92885 2.07315H7.09903V1.61569C7.09903 1.41349 7.0187 1.21956 6.87572 1.07658C6.73274 0.933598 6.53881 0.853271 6.33661 0.853271H4.81176C4.60955 0.853271 4.41563 0.933598 4.27265 1.07658C4.12966 1.21956 4.04934 1.41349 4.04934 1.61569V2.07315H2.21952C2.13864 2.07315 2.06107 2.10528 2.00387 2.16247C1.94668 2.21967 1.91455 2.29724 1.91455 2.37812C1.91455 2.459 1.94668 2.53657 2.00387 2.59376C2.06107 2.65096 2.13864 2.68309 2.21952 2.68309H2.54355L2.9057 8.49504C2.93277 9.00682 3.32503 9.39241 3.82061 9.39241H7.32776C7.82581 9.39241 8.21026 9.0154 8.24267 8.49657L8.60482 2.68309H8.92885C9.00973 2.68309 9.0873 2.65096 9.14449 2.59376C9.20169 2.53657 9.23382 2.459 9.23382 2.37812C9.23382 2.29724 9.20169 2.21967 9.14449 2.16247C9.0873 2.10528 9.00973 2.07315 8.92885 2.07315ZM4.36517 8.17254H4.35431C4.27527 8.17259 4.1993 8.14195 4.14241 8.08709C4.08552 8.03222 4.05215 7.95742 4.04934 7.87843L3.89685 3.60886C3.89397 3.52798 3.92334 3.44926 3.97849 3.39003C4.03365 3.3308 4.11007 3.29591 4.19096 3.29303C4.27184 3.29014 4.35055 3.31951 4.40978 3.37467C4.46902 3.42982 4.50391 3.50625 4.50679 3.58713L4.65928 7.8567C4.66073 7.89676 4.65427 7.93671 4.64027 7.97426C4.62627 8.01182 4.60501 8.04625 4.57769 8.07558C4.55038 8.10492 4.51755 8.12858 4.48108 8.14521C4.44462 8.16185 4.40523 8.17113 4.36517 8.17254ZM5.87915 7.86757C5.87915 7.94845 5.84702 8.02602 5.78983 8.08321C5.73264 8.14041 5.65507 8.17254 5.57418 8.17254C5.4933 8.17254 5.41573 8.14041 5.35854 8.08321C5.30134 8.02602 5.26921 7.94845 5.26921 7.86757V3.598C5.26921 3.51711 5.30134 3.43954 5.35854 3.38235C5.41573 3.32516 5.4933 3.29303 5.57418 3.29303C5.65507 3.29303 5.73264 3.32516 5.78983 3.38235C5.84702 3.43954 5.87915 3.51711 5.87915 3.598V7.86757ZM6.48909 2.07315H4.65928V1.61569C4.65905 1.59561 4.66283 1.57567 4.67041 1.55707C4.678 1.53847 4.68922 1.52157 4.70342 1.50736C4.71763 1.49315 4.73453 1.48193 4.75314 1.47435C4.77174 1.46677 4.79167 1.46298 4.81176 1.46321H6.33661C6.3567 1.46298 6.37663 1.46677 6.39523 1.47435C6.41384 1.48193 6.43074 1.49315 6.44494 1.50736C6.45915 1.52157 6.47037 1.53847 6.47795 1.55707C6.48553 1.57567 6.48932 1.59561 6.48909 1.61569V2.07315ZM7.09903 7.87843C7.09621 7.95742 7.06285 8.03222 7.00595 8.08709C6.94906 8.14195 6.8731 8.17259 6.79406 8.17254H6.78301C6.74297 8.17111 6.7036 8.16181 6.66715 8.14516C6.63071 8.12852 6.5979 8.10485 6.57061 8.07552C6.54331 8.04619 6.52206 8.01177 6.50808 7.97422C6.49409 7.93668 6.48764 7.89674 6.48909 7.8567L6.64158 3.58713C6.643 3.54708 6.6523 3.50771 6.66895 3.47125C6.68559 3.4348 6.70925 3.40198 6.73858 3.37467C6.76791 3.34736 6.80233 3.32609 6.83988 3.31208C6.87742 3.29808 6.91736 3.2916 6.95741 3.29303C6.99746 3.29445 7.03684 3.30375 7.07329 3.3204C7.10974 3.33704 7.14256 3.3607 7.16987 3.39003C7.19718 3.41936 7.21845 3.45378 7.23246 3.49133C7.24647 3.52887 7.25294 3.56881 7.25152 3.60886L7.09903 7.87843Z" fill="black"/>
</g>
<defs>
<clipPath id="clip0_201_13387">
<rect width="9.75902" height="9.75902" fill="white" transform="translate(0.694824 0.243408)"/>
</clipPath>
</defs>
</svg>
