<svg width="11" height="10" viewBox="0 0 11 10" fill="none" xmlns="http://www.w3.org/2000/svg">
<path d="M9.00538 1.15833H1.68611C1.34925 1.15833 1.07617 1.4314 1.07617 1.76826V2.07323C1.07617 2.41009 1.34925 2.68317 1.68611 2.68317H9.00538C9.34224 2.68317 9.61531 2.41009 9.61531 2.07323V1.76826C9.61531 1.4314 9.34224 1.15833 9.00538 1.15833Z" fill="black"/>
<path d="M1.88524 3.29309C1.86381 3.29298 1.8426 3.29738 1.82299 3.30601C1.80338 3.31464 1.7858 3.32731 1.77142 3.34319C1.75703 3.35907 1.74615 3.37781 1.73949 3.39818C1.73283 3.41854 1.73053 3.44009 1.73276 3.4614L2.23424 8.27534C2.23414 8.27674 2.23414 8.27814 2.23424 8.27953C2.26044 8.50219 2.36749 8.70748 2.53506 8.85642C2.70262 9.00537 2.91905 9.0876 3.14324 9.08751H7.54795C7.77208 9.08751 7.98841 9.00523 8.1559 8.8563C8.32338 8.70736 8.43037 8.50213 8.45657 8.27953V8.27553L8.95729 3.4614C8.95952 3.44009 8.95722 3.41854 8.95056 3.39818C8.9439 3.37781 8.93302 3.35907 8.91863 3.34319C8.90425 3.32731 8.88667 3.31464 8.86706 3.30601C8.84745 3.29738 8.82624 3.29298 8.80481 3.29309H1.88524ZM6.62866 6.73715C6.65765 6.76532 6.68076 6.79897 6.69663 6.83615C6.71249 6.87333 6.72082 6.91329 6.7211 6.95372C6.72139 6.99414 6.71364 7.03422 6.69829 7.07162C6.68295 7.10902 6.66033 7.14299 6.63174 7.17157C6.60315 7.20015 6.56916 7.22276 6.53175 7.23808C6.49435 7.25341 6.45427 7.26114 6.41384 7.26084C6.37342 7.26053 6.33346 7.2522 6.29629 7.23631C6.25912 7.22042 6.22547 7.19731 6.19732 7.1683L5.34569 6.31667L4.49387 7.1683C4.43642 7.22413 4.3593 7.2551 4.27919 7.25454C4.19908 7.25397 4.12241 7.2219 4.06576 7.16527C4.0091 7.10863 3.977 7.03198 3.97639 6.95187C3.97579 6.87176 4.00673 6.79463 4.06253 6.73715L4.91435 5.88533L4.06253 5.03352C4.00673 4.97603 3.97579 4.8989 3.97639 4.8188C3.977 4.73869 4.0091 4.66203 4.06576 4.6054C4.12241 4.54876 4.19908 4.5167 4.27919 4.51613C4.3593 4.51556 4.43642 4.54654 4.49387 4.60236L5.34569 5.45399L6.19732 4.60236C6.25477 4.54654 6.33189 4.51556 6.412 4.51613C6.49211 4.5167 6.56878 4.54876 6.62544 4.6054C6.6821 4.66203 6.7142 4.73869 6.7148 4.8188C6.7154 4.8989 6.68446 4.97603 6.62866 5.03352L5.77684 5.88533L6.62866 6.73715Z" fill="black"/>
</svg>
