<svg width="11" height="10" viewBox="0 0 11 10" fill="none" xmlns="http://www.w3.org/2000/svg">
<g clip-path="url(#clip0_201_13396)">
<path d="M7.63281 7.25771H9.7676V5.12292" stroke="black" stroke-width="0.609939" stroke-linecap="round" stroke-linejoin="round"/>
<path d="M1.83838 2.98804L4.15176 5.30142C4.2084 5.35807 4.27565 5.40301 4.34966 5.43367C4.42367 5.46434 4.50299 5.48012 4.5831 5.48012C4.66321 5.48012 4.74254 5.46434 4.81655 5.43367C4.89056 5.40301 4.9578 5.35807 5.01444 5.30142L5.98158 4.33429C6.03822 4.27763 6.10546 4.23269 6.17947 4.20203C6.25348 4.17137 6.33281 4.15559 6.41292 4.15559C6.49303 4.15559 6.57235 4.17137 6.64637 4.20203C6.72038 4.23269 6.78762 4.27763 6.84426 4.33429L9.46261 6.95264" stroke="black" stroke-width="0.609939" stroke-linecap="round" stroke-linejoin="round"/>
</g>
<defs>
<clipPath id="clip0_201_13396">
<rect width="9.75902" height="9.75902" fill="white" transform="translate(0.92334 0.243408)"/>
</clipPath>
</defs>
</svg>
