<svg width="10" height="10" viewBox="0 0 10 10" fill="none" xmlns="http://www.w3.org/2000/svg">
<g clip-path="url(#clip0_201_13390)">
<path d="M6.81396 7.25771H8.94875V5.12292" stroke="black" stroke-width="0.609939" stroke-linecap="round" stroke-linejoin="round"/>
<path d="M1.01904 2.98816L3.33243 5.30154C3.38907 5.3582 3.45631 5.40314 3.53032 5.4338C3.60433 5.46446 3.68366 5.48024 3.76377 5.48024C3.84388 5.48024 3.9232 5.46446 3.99721 5.4338C4.07122 5.40314 4.13847 5.3582 4.19511 5.30154L5.16224 4.33441C5.21888 4.27776 5.28613 4.23282 5.36014 4.20215C5.43415 4.17149 5.51347 4.15571 5.59358 4.15571C5.67369 4.15571 5.75302 4.17149 5.82703 4.20215C5.90104 4.23282 5.96828 4.27776 6.02492 4.33441L8.64328 6.95276" stroke="black" stroke-width="0.609939" stroke-linecap="round" stroke-linejoin="round"/>
</g>
<defs>
<clipPath id="clip0_201_13390">
<rect width="9.75902" height="9.75902" fill="white" transform="translate(0.104492 0.243408)"/>
</clipPath>
</defs>
</svg>
