<svg width="11" height="10" viewBox="0 0 11 10" fill="none" xmlns="http://www.w3.org/2000/svg">
<g clip-path="url(#clip0_201_13412)">
<path d="M9.22394 9.08757H1.29474C1.2419 9.08757 1.18998 9.07385 1.14404 9.04775C1.09811 9.02165 1.05975 8.98406 1.03271 8.93867C1.00567 8.89328 0.990889 8.84165 0.98981 8.78883C0.988731 8.73601 1.00139 8.68381 1.02655 8.63736L4.99115 1.31809C5.01732 1.26977 5.05605 1.22942 5.10326 1.20129C5.15046 1.17317 5.20439 1.15833 5.25934 1.15833C5.31429 1.15833 5.36821 1.17317 5.41542 1.20129C5.46263 1.22942 5.50136 1.26977 5.52752 1.31809L9.49212 8.63736C9.51728 8.68381 9.52994 8.73601 9.52887 8.78883C9.52779 8.84165 9.513 8.89328 9.48597 8.93867C9.45893 8.98406 9.42056 9.02165 9.37463 9.04775C9.3287 9.07385 9.27677 9.08757 9.22394 9.08757Z" fill="black"/>
</g>
<defs>
<clipPath id="clip0_201_13412">
<rect width="9.75902" height="9.75902" fill="white" transform="translate(0.379883 0.243408)"/>
</clipPath>
</defs>
</svg>
