<svg width="11" height="10" viewBox="0 0 11 10" fill="none" xmlns="http://www.w3.org/2000/svg">
<g clip-path="url(#clip0_201_13430)">
<path d="M9.37311 7.56249H2.05918C1.81591 7.56218 1.5827 7.46541 1.41069 7.2934C1.23867 7.12139 1.1419 6.88817 1.1416 6.64491V2.68564C1.1419 2.44238 1.23867 2.20917 1.41069 2.03715C1.5827 1.86514 1.81591 1.76837 2.05918 1.76807H9.37311C9.61637 1.76837 9.84958 1.86514 10.0216 2.03715C10.1936 2.20917 10.2904 2.44238 10.2907 2.68564V6.64491C10.2904 6.88817 10.1936 7.12139 10.0216 7.2934C9.84958 7.46541 9.61637 7.56218 9.37311 7.56249Z" fill="black"/>
<path d="M3.27637 8.17249H8.15588" stroke="black" stroke-width="0.609939" stroke-miterlimit="10" stroke-linecap="round"/>
</g>
<defs>
<clipPath id="clip0_201_13430">
<rect width="9.75902" height="9.75902" fill="white" transform="translate(0.836426 0.243164)"/>
</clipPath>
</defs>
</svg>
