<svg width="10" height="10" viewBox="0 0 10 10" fill="none" xmlns="http://www.w3.org/2000/svg">
<g clip-path="url(#clip0_201_13433)">
<path d="M5.12515 5.42761V8.47731C5.12515 8.63907 5.06089 8.79421 4.9465 8.9086C4.83212 9.02298 4.67698 9.08725 4.51521 9.08725C4.35345 9.08725 4.19831 9.02298 4.08392 8.9086C3.96953 8.79421 3.90527 8.63907 3.90527 8.47731" stroke="black" stroke-width="0.609939" stroke-linecap="round" stroke-linejoin="round"/>
<path d="M9.08985 5.42761C9.08985 3.23793 7.31493 1.46301 5.12525 1.46301C2.93557 1.46301 1.16064 3.23793 1.16064 5.42761C1.28079 5.30746 1.42342 5.21215 1.5804 5.14713C1.73739 5.0821 1.90564 5.04863 2.07555 5.04863C2.24547 5.04863 2.41372 5.0821 2.5707 5.14713C2.72768 5.21215 2.87032 5.30746 2.99046 5.42761C3.24442 5.17371 3.58143 5.01991 3.93965 4.99446C4.29786 4.969 4.65324 5.0736 4.94055 5.28904L5.12525 5.42761L5.30994 5.28904C5.59725 5.0736 5.95263 4.969 6.31084 4.99446C6.66906 5.01991 7.00607 5.17371 7.26003 5.42761V5.42761C7.38018 5.30746 7.52281 5.21215 7.67979 5.14713C7.83677 5.0821 8.00502 5.04863 8.17494 5.04863C8.34486 5.04863 8.51311 5.0821 8.67009 5.14713C8.82707 5.21215 8.9697 5.30746 9.08985 5.42761V5.42761Z" stroke="black" stroke-width="0.609939" stroke-linecap="round" stroke-linejoin="round"/>
<path d="M5.125 1.46305V1.15808" stroke="black" stroke-width="0.609939" stroke-linecap="round" stroke-linejoin="round"/>
</g>
<defs>
<clipPath id="clip0_201_13433">
<rect width="9.75902" height="9.75902" fill="white" transform="translate(0.245605 0.243164)"/>
</clipPath>
</defs>
</svg>
