<svg width="10" height="10" viewBox="0 0 10 10" fill="none" xmlns="http://www.w3.org/2000/svg">
<g clip-path="url(#clip0_201_13441)">
<path d="M7.96293 2.40868C7.26663 1.70826 6.34749 1.27314 5.3644 1.17851C5.33448 1.1754 5.30612 1.1636 5.28282 1.14456C5.25952 1.12553 5.24229 1.10009 5.23327 1.07139C5.21527 1.00854 5.1773 0.953263 5.1251 0.91391C5.0729 0.874557 5.0093 0.853271 4.94393 0.853271C4.87855 0.853271 4.81496 0.874557 4.76275 0.91391C4.71055 0.953263 4.67258 1.00854 4.65459 1.07139C4.64556 1.10009 4.62834 1.12553 4.60504 1.14456C4.58174 1.1636 4.55338 1.1754 4.52345 1.17851C3.47054 1.28271 2.49383 1.77414 1.78266 2.55754C1.07149 3.34094 0.676534 4.36049 0.674356 5.41854C0.673531 5.47061 0.685721 5.52206 0.709819 5.56823C0.733918 5.6144 0.769162 5.65382 0.812354 5.68291C0.870976 5.72123 0.941001 5.73821 1.01066 5.73099C1.08033 5.72377 1.14538 5.69279 1.1949 5.64326C1.38018 5.45806 1.63136 5.35392 1.89333 5.35371C2.1553 5.35349 2.40665 5.45722 2.59223 5.64212C2.62028 5.67069 2.65369 5.69343 2.69055 5.70904C2.72741 5.72465 2.76699 5.73282 2.80702 5.73309C2.84705 5.73336 2.88674 5.72571 2.9238 5.71059C2.96087 5.69547 2.99458 5.67317 3.023 5.64498C3.22557 5.44337 3.49379 5.32119 3.77885 5.30065C4.06391 5.28012 4.34687 5.3626 4.57625 5.53309C4.59573 5.54773 4.61154 5.5667 4.62242 5.5885C4.6333 5.6103 4.63897 5.63434 4.63896 5.6587V8.46862C4.63896 8.63254 4.51316 8.77358 4.34943 8.78197C4.30813 8.78406 4.26684 8.77774 4.22806 8.76338C4.18929 8.74901 4.15384 8.72692 4.12387 8.69843C4.0939 8.66994 4.07004 8.63565 4.05373 8.59765C4.03743 8.55965 4.02902 8.51873 4.02902 8.47738C4.02903 8.43686 4.02096 8.39675 4.00529 8.35939C3.98962 8.32202 3.96666 8.28815 3.93775 8.25976C3.90884 8.23137 3.87457 8.20902 3.83693 8.19402C3.79929 8.17903 3.75903 8.17168 3.71852 8.17241C3.54698 8.17546 3.41546 8.327 3.41927 8.49835C3.42497 8.73519 3.5222 8.96062 3.69055 9.1273C3.8589 9.29398 4.08529 9.38896 4.32217 9.39229C4.83452 9.39877 5.2489 8.97429 5.2489 8.46194V5.6587C5.24889 5.63434 5.25455 5.6103 5.26544 5.5885C5.27632 5.5667 5.29213 5.54773 5.31161 5.53309C5.54065 5.36285 5.82313 5.28035 6.10779 5.30056C6.39246 5.32077 6.66045 5.44236 6.86314 5.64326C6.92032 5.70041 6.99786 5.73252 7.07871 5.73252C7.15956 5.73252 7.2371 5.70041 7.29429 5.64326C7.47982 5.4579 7.73136 5.35377 7.99362 5.35377C8.25589 5.35377 8.50742 5.4579 8.69295 5.64326C8.74103 5.69134 8.80379 5.72198 8.87127 5.7303C8.93875 5.73862 9.00708 5.72416 9.0654 5.6892C9.11141 5.66073 9.14925 5.62081 9.17521 5.57333C9.20117 5.52586 9.21437 5.47245 9.2135 5.41835C9.21378 4.85901 9.10343 4.30514 8.88881 3.78861C8.67419 3.27209 8.35952 2.80312 7.96293 2.40868Z" fill="black"/>
</g>
<defs>
<clipPath id="clip0_201_13441">
<rect width="9.75902" height="9.75902" fill="white" transform="translate(0.0644531 0.243164)"/>
</clipPath>
</defs>
</svg>
