<svg width="11" height="10" viewBox="0 0 11 10" fill="none" xmlns="http://www.w3.org/2000/svg">
<g clip-path="url(#clip0_201_13437)">
<path d="M3.11293 5.58017L3.10797 5.57445C3.09082 5.56035 3.07309 5.54719 3.05518 5.53442L3.11293 5.58017Z" fill="black"/>
<path d="M7.95703 5.58008L8.00697 5.53967C7.99191 5.55073 7.97704 5.56197 7.96237 5.57379L7.95703 5.58008Z" fill="black"/>
<path d="M9.48292 3.79687C9.17881 3.06426 8.67709 2.43058 8.03377 1.96655C7.39044 1.50252 6.63082 1.22639 5.83968 1.16898V0.853149H5.22975V1.16898C4.15224 1.24425 3.14352 1.72586 2.40754 2.51644C1.67156 3.30701 1.26324 4.34756 1.26514 5.42769V5.85693L1.49864 5.64327C1.7012 5.44207 1.96916 5.32013 2.25392 5.29957C2.53867 5.27901 2.82137 5.36118 3.05074 5.53119L3.05493 5.53443C3.07285 5.5472 3.09058 5.56035 3.10773 5.57446C3.13429 5.59593 3.1597 5.61887 3.18397 5.64327L3.39993 5.85903L3.6155 5.64327C3.81819 5.44236 4.08618 5.32077 4.37085 5.30056C4.65551 5.28035 4.938 5.36285 5.16704 5.53309L5.22975 5.58017V8.47738C5.22975 8.55827 5.19761 8.63584 5.14042 8.69303C5.08323 8.75022 5.00566 8.78235 4.92478 8.78235C4.84389 8.78235 4.76632 8.75022 4.70913 8.69303C4.65194 8.63584 4.61981 8.55827 4.61981 8.47738V8.17241H4.00987V8.47738C4.00987 8.72003 4.10626 8.95274 4.27784 9.12432C4.44942 9.2959 4.68213 9.39229 4.92478 9.39229C5.16742 9.39229 5.40014 9.2959 5.57171 9.12432C5.74329 8.95274 5.83968 8.72003 5.83968 8.47738V5.58017L5.90239 5.53309C6.13143 5.36285 6.41392 5.28035 6.69858 5.30056C6.98325 5.32077 7.25124 5.44236 7.45392 5.64327L7.6695 5.85903L7.88508 5.64327C7.90985 5.61861 7.93559 5.59549 7.96227 5.57388C7.97695 5.56207 7.99181 5.55082 8.00687 5.53977L8.01183 5.53576C8.48129 5.18371 9.15546 5.22832 9.57117 5.64327L9.80429 5.85674V5.42769C9.80523 4.86826 9.69603 4.31412 9.48292 3.79687Z" fill="black"/>
</g>
<defs>
<clipPath id="clip0_201_13437">
<rect width="9.75902" height="9.75902" fill="white" transform="translate(0.655273 0.243164)"/>
</clipPath>
</defs>
</svg>
