<svg width="11" height="10" viewBox="0 0 11 10" fill="none" xmlns="http://www.w3.org/2000/svg">
<g clip-path="url(#clip0_201_13449)">
<path d="M4.1178 6.95272H3.03782C2.55253 6.95272 2.08711 6.75994 1.74395 6.41678C1.40079 6.07363 1.20801 5.6082 1.20801 5.12291C1.20801 4.63761 1.40079 4.17219 1.74395 3.82903C2.08711 3.48587 2.55253 3.29309 3.03782 3.29309H4.09397" stroke="black" stroke-width="0.914908" stroke-linecap="round" stroke-linejoin="round"/>
<path d="M6.25136 3.29321H7.30751C7.79281 3.29321 8.25823 3.486 8.60139 3.82915C8.94454 4.17231 9.13733 4.63773 9.13733 5.12303C9.13733 5.60833 8.94454 6.07375 8.60139 6.41691C8.25823 6.76006 7.79281 6.95285 7.30751 6.95285H6.22754" stroke="black" stroke-width="0.914908" stroke-linecap="round" stroke-linejoin="round"/>
</g>
<defs>
<clipPath id="clip0_201_13449">
<rect width="9.75902" height="9.75902" fill="white" transform="translate(0.292969 0.243408)"/>
</clipPath>
</defs>
</svg>
