<svg width="11" height="10" viewBox="0 0 11 10" fill="none" xmlns="http://www.w3.org/2000/svg">
<g clip-path="url(#clip0_201_13446)">
<path d="M4.70813 6.95248H3.62816C3.14286 6.95248 2.67744 6.7597 2.33428 6.41654C1.99112 6.07338 1.79834 5.60796 1.79834 5.12266C1.79834 4.63737 1.99112 4.17194 2.33428 3.82879C2.67744 3.48563 3.14286 3.29285 3.62816 3.29285H4.6843" stroke="black" stroke-width="0.914908" stroke-linecap="square" stroke-linejoin="round"/>
<path d="M6.84121 3.29285H7.89736C8.38265 3.29285 8.84807 3.48563 9.19123 3.82879C9.53439 4.17194 9.72717 4.63737 9.72717 5.12266C9.72717 5.60796 9.53439 6.07338 9.19123 6.41654C8.84807 6.7597 8.38265 6.95248 7.89736 6.95248H6.81738" stroke="black" stroke-width="0.914908" stroke-linecap="square" stroke-linejoin="round"/>
</g>
<defs>
<clipPath id="clip0_201_13446">
<rect width="9.75902" height="9.75902" fill="white" transform="translate(0.883301 0.243164)"/>
</clipPath>
</defs>
</svg>
