<svg width="11" height="10" viewBox="0 0 11 10" fill="none" xmlns="http://www.w3.org/2000/svg">
<g clip-path="url(#clip0_201_13461)">
<path d="M6.92542 3.6649C6.92542 3.32357 6.78982 2.99623 6.54847 2.75487C6.30712 2.51352 5.97977 2.37793 5.63844 2.37793H4.12885C4.11377 2.37796 4.09905 2.38245 4.08653 2.39084C4.07401 2.39923 4.06426 2.41114 4.05851 2.42508C4.05275 2.43901 4.05126 2.45433 4.05421 2.46911C4.05716 2.48389 4.06443 2.49746 4.0751 2.50811L6.79523 5.22825C6.80588 5.23891 6.81946 5.24618 6.83423 5.24913C6.84901 5.25209 6.86434 5.25059 6.87827 5.24484C6.8922 5.23909 6.90411 5.22934 6.91251 5.21682C6.9209 5.2043 6.92539 5.18957 6.92542 5.1745V3.6649Z" fill="black"/>
<path d="M0.826172 3.67397V6.57118C0.826172 6.91493 0.962727 7.2446 1.2058 7.48767C1.44887 7.73074 1.77854 7.8673 2.12229 7.8673H5.62944C5.92699 7.86757 6.21547 7.76494 6.446 7.57682C6.45452 7.57012 6.46151 7.56168 6.46652 7.55207C6.47152 7.54245 6.47442 7.53188 6.47501 7.52106C6.47561 7.51023 6.47389 7.49941 6.46997 7.4893C6.46605 7.4792 6.46002 7.47004 6.45229 7.46245L1.55829 2.56846C1.54633 2.55645 1.53071 2.54877 1.5139 2.54663C1.49709 2.54449 1.48005 2.54801 1.46546 2.55664C1.27081 2.67106 1.10943 2.83435 0.997299 3.03033C0.885168 3.22631 0.826178 3.44818 0.826172 3.67397Z" fill="black"/>
<path d="M9.36525 7.56984C9.27987 7.56978 9.19546 7.55179 9.11747 7.51704C9.09932 7.50899 9.08202 7.49915 9.06581 7.48769L7.48931 6.37798C7.40936 6.3217 7.34411 6.24702 7.29906 6.16024C7.25402 6.07347 7.23049 5.97713 7.23047 5.87936V4.36595C7.23049 4.26817 7.25402 4.17183 7.29906 4.08506C7.34411 3.99828 7.40936 3.9236 7.48931 3.86732L9.06581 2.75761C9.08202 2.74615 9.09932 2.73631 9.11747 2.72826C9.21033 2.68697 9.31204 2.66954 9.41335 2.67756C9.51466 2.68557 9.61237 2.71877 9.69758 2.77415C9.7828 2.82952 9.85283 2.90531 9.90132 2.99463C9.9498 3.08395 9.97519 3.18396 9.97519 3.28559V6.95971C9.97519 7.12148 9.91093 7.27662 9.79655 7.391C9.68216 7.50539 9.52702 7.56965 9.36525 7.56965V7.56984Z" fill="black"/>
<path d="M8.45026 8.1723L2.0459 1.76794" stroke="black" stroke-width="0.609939" stroke-miterlimit="10" stroke-linecap="round"/>
</g>
<defs>
<clipPath id="clip0_201_13461">
<rect width="9.75902" height="9.75902" fill="white" transform="translate(0.520996 0.243164)"/>
</clipPath>
</defs>
</svg>
