<svg width="11" height="10" viewBox="0 0 11 10" fill="none" xmlns="http://www.w3.org/2000/svg">
<g clip-path="url(#clip0_201_13466)">
<path d="M8.07425 6.12863L9.65075 7.23834C9.69718 7.25898 9.74803 7.2677 9.79869 7.26369C9.84934 7.25968 9.8982 7.24308 9.94081 7.2154C9.98341 7.18771 10.0184 7.14982 10.0427 7.10516C10.0669 7.0605 10.0796 7.01049 10.0796 6.95968V3.28556C10.0796 3.23474 10.0669 3.18473 10.0427 3.14007C10.0184 3.09542 9.98341 3.05752 9.94081 3.02983C9.8982 3.00215 9.84934 2.98555 9.79869 2.98154C9.74803 2.97753 9.69718 2.98625 9.65075 3.00689L8.07425 4.1166C8.03427 4.14474 8.00165 4.18208 7.97912 4.22547C7.9566 4.26886 7.94483 4.31702 7.94482 4.36591V5.87932C7.94483 5.92821 7.9566 5.97638 7.97912 6.01977C8.00165 6.06315 8.03427 6.10049 8.07425 6.12863Z" stroke="black" stroke-width="0.609939" stroke-linecap="round" stroke-linejoin="round"/>
<path d="M6.03883 7.56237H2.53168C2.26904 7.56162 2.01738 7.45695 1.83166 7.27124C1.64595 7.08552 1.54128 6.83386 1.54053 6.57122V3.67401C1.54128 3.41137 1.64595 3.15971 1.83166 2.974C2.01738 2.78828 2.26904 2.68362 2.53168 2.68286H6.04798C6.30817 2.68367 6.55748 2.78738 6.74147 2.97137C6.92545 3.15536 7.02917 3.40467 7.02998 3.66486V6.57122C7.02922 6.83386 6.92456 7.08552 6.73884 7.27124C6.55313 7.45695 6.30146 7.56162 6.03883 7.56237Z" stroke="black" stroke-width="0.609939" stroke-miterlimit="10"/>
</g>
<defs>
<clipPath id="clip0_201_13466">
<rect width="9.75902" height="9.75902" fill="white" transform="translate(0.930664 0.243164)"/>
</clipPath>
</defs>
</svg>
