<svg width="11" height="10" viewBox="0 0 11 10" fill="none" xmlns="http://www.w3.org/2000/svg">
<g clip-path="url(#clip0_201_13452)">
<path d="M7.84573 6.12876L9.42223 7.23846C9.46866 7.25911 9.51952 7.26782 9.57017 7.26381C9.62083 7.25981 9.66968 7.24321 9.71229 7.21552C9.7549 7.18783 9.78991 7.14994 9.81415 7.10528C9.8384 7.06062 9.85109 7.01061 9.85109 6.9598V3.28568C9.85109 3.23486 9.8384 3.18486 9.81415 3.1402C9.78991 3.09554 9.7549 3.05764 9.71229 3.02996C9.66968 3.00227 9.62083 2.98567 9.57017 2.98166C9.51952 2.97766 9.46866 2.98637 9.42223 3.00701L7.84573 4.11672C7.80575 4.14486 7.77313 4.1822 7.75061 4.22559C7.72808 4.26898 7.71632 4.31715 7.71631 4.36603V5.87944C7.71632 5.92833 7.72808 5.9765 7.75061 6.01989C7.77313 6.06328 7.80575 6.10062 7.84573 6.12876Z" stroke="black" stroke-width="0.609939" stroke-linecap="round" stroke-linejoin="round"/>
<path d="M1.65872 2.92249C1.55013 3.01532 1.46291 3.13056 1.40306 3.26029C1.34321 3.39003 1.31215 3.53117 1.31201 3.67404V6.57125C1.31277 6.83389 1.41743 7.08556 1.60315 7.27127C1.78886 7.45698 2.04052 7.56165 2.30316 7.5624H5.81031C5.95526 7.56255 6.09846 7.53066 6.22964 7.46901" stroke="black" stroke-width="0.609939" stroke-miterlimit="10" stroke-linecap="round"/>
<path d="M4.6665 2.68298H5.81929C6.07948 2.68379 6.32879 2.78751 6.51278 2.97149C6.69677 3.15548 6.80049 3.40479 6.80129 3.66498V4.97025" stroke="black" stroke-width="0.609939" stroke-miterlimit="10" stroke-linecap="round"/>
<path d="M8.63141 8.17242L2.22705 1.76807" stroke="black" stroke-width="0.609939" stroke-miterlimit="10" stroke-linecap="round"/>
</g>
<defs>
<clipPath id="clip0_201_13452">
<rect width="9.75902" height="9.75902" fill="white" transform="translate(0.702148 0.243164)"/>
</clipPath>
</defs>
</svg>
