<svg width="10" height="10" viewBox="0 0 10 10" fill="none" xmlns="http://www.w3.org/2000/svg">
<g clip-path="url(#clip0_201_13457)">
<path d="M1.63686 1.33665L1.20557 1.76794L8.04127 8.60365L8.47256 8.17236L1.63686 1.33665Z" fill="black"/>
<path d="M0.721962 2.37793C0.641079 2.37793 0.563508 2.41006 0.506316 2.46725C0.449123 2.52445 0.416992 2.60202 0.416992 2.6829V7.56241C0.416992 7.64329 0.449123 7.72086 0.506316 7.77806C0.563508 7.83525 0.641079 7.86738 0.721962 7.86738H6.21141C6.2753 7.86757 6.33761 7.84756 6.38944 7.8102L0.957169 2.37793H0.721962Z" fill="black"/>
<path d="M6.51615 4.20775V2.6829C6.51615 2.60202 6.48402 2.52445 6.42683 2.46725C6.36963 2.41006 6.29206 2.37793 6.21118 2.37793H3.53564L8.21388 7.05616L9.56584 7.86738V2.37793L6.51615 4.20775Z" fill="black"/>
</g>
<defs>
<clipPath id="clip0_201_13457">
<rect width="9.75902" height="9.75902" fill="white" transform="translate(0.111816 0.243164)"/>
</clipPath>
</defs>
</svg>
