<svg width="11" height="10" viewBox="0 0 11 10" fill="none" xmlns="http://www.w3.org/2000/svg">
<g clip-path="url(#clip0_201_13469)">
<path d="M6.74441 4.20775V2.6829C6.74441 2.60202 6.71228 2.52445 6.65508 2.46725C6.59789 2.41006 6.52032 2.37793 6.43944 2.37793H0.949989C0.869106 2.37793 0.791536 2.41006 0.734343 2.46725C0.67715 2.52445 0.64502 2.60202 0.64502 2.6829V7.56241C0.64502 7.64329 0.67715 7.72086 0.734343 7.77806C0.791536 7.83525 0.869106 7.86738 0.949989 7.86738H6.43944C6.52032 7.86738 6.59789 7.83525 6.65508 7.77806C6.71228 7.72086 6.74441 7.64329 6.74441 7.56241V6.03756L9.7941 7.86738V2.37793L6.74441 4.20775Z" fill="black"/>
</g>
<defs>
<clipPath id="clip0_201_13469">
<rect width="9.75902" height="9.75902" fill="white" transform="translate(0.339844 0.243164)"/>
</clipPath>
</defs>
</svg>
