<svg width="10" height="11" viewBox="0 0 10 11" fill="none" xmlns="http://www.w3.org/2000/svg">
<g clip-path="url(#clip0_201_13524)">
<path d="M8.11997 8.88706L1.41064 2.17773" stroke="black" stroke-width="0.609939" stroke-miterlimit="10" stroke-linecap="round"/>
<path d="M4.8291 2.53714C4.753 2.49609 4.6668 2.47755 4.58056 2.4837C4.49432 2.48984 4.41161 2.52041 4.3421 2.57183L4.32952 2.58155L3.78591 3.02661C3.76942 3.0401 3.75594 3.0569 3.74634 3.07592C3.73674 3.09495 3.73123 3.11577 3.73017 3.13705C3.72911 3.15833 3.73252 3.1796 3.74019 3.19948C3.74785 3.21936 3.7596 3.23742 3.77467 3.25248L4.81023 4.28804C4.83155 4.30939 4.85873 4.32393 4.88833 4.32983C4.91792 4.33572 4.9486 4.3327 4.97648 4.32115C5.00436 4.3096 5.02818 4.29004 5.04494 4.26494C5.06169 4.23984 5.07062 4.21033 5.0706 4.18016V2.95094C5.07145 2.86659 5.04945 2.78358 5.00693 2.71072C4.96441 2.63787 4.90296 2.57788 4.8291 2.53714Z" fill="black"/>
<path d="M4.98134 7.04373L2.03381 4.09696C1.97665 4.03976 1.8991 4.00761 1.81824 4.00757H1.25824C1.13691 4.00757 1.02056 4.05576 0.934766 4.14155C0.848977 4.22734 0.800781 4.3437 0.800781 4.46502V6.59981C0.800781 6.72113 0.848977 6.83749 0.934766 6.92328C1.02056 7.00907 1.13691 7.05726 1.25824 7.05726H2.5879L4.34148 8.49272C4.41186 8.54495 4.49582 8.57578 4.58328 8.58149C4.67074 8.5872 4.75799 8.56756 4.83457 8.52493C4.90691 8.48369 4.96692 8.42386 5.00837 8.35164C5.04983 8.27942 5.07123 8.19744 5.07035 8.11417V7.25911C5.07037 7.17837 5.03835 7.10091 4.98134 7.04373Z" fill="black"/>
<path d="M6.90023 5.53234C6.90023 5.06421 6.78949 4.61991 6.5619 4.17389C6.54386 4.13794 6.51888 4.10592 6.48841 4.07966C6.45793 4.05341 6.42257 4.03344 6.38434 4.02091C6.34612 4.00838 6.3058 4.00354 6.26569 4.00666C6.22559 4.00978 6.1865 4.0208 6.15068 4.03909C6.11485 4.05738 6.083 4.08257 6.05695 4.11322C6.0309 4.14388 6.01118 4.17938 5.99891 4.21768C5.98664 4.25599 5.98207 4.29635 5.98546 4.33643C5.98885 4.37651 6.00014 4.41552 6.01868 4.45122C6.20147 4.80918 6.29029 5.16294 6.29029 5.53234C6.29029 5.58317 6.28832 5.63482 6.28438 5.6873C6.28275 5.70917 6.28586 5.73113 6.29349 5.75169C6.30112 5.77225 6.3131 5.79092 6.3286 5.80643L6.60231 6.08014C6.62208 6.09995 6.64692 6.11394 6.67411 6.12058C6.70131 6.12721 6.7298 6.12623 6.75647 6.11775C6.78315 6.10926 6.80697 6.0936 6.82533 6.07248C6.8437 6.05135 6.85589 6.02558 6.86058 5.99799C6.88683 5.84416 6.90009 5.68839 6.90023 5.53234Z" fill="black"/>
<path d="M8.12021 5.53237C8.12021 4.55685 7.8709 3.93338 7.46872 3.24396C7.42741 3.17522 7.3607 3.12552 7.28302 3.10562C7.20534 3.08571 7.12294 3.0972 7.05367 3.1376C6.9844 3.178 6.93383 3.24406 6.91291 3.32147C6.89199 3.39888 6.90239 3.48142 6.94188 3.55121C7.30194 4.1684 7.51027 4.69047 7.51027 5.53237C7.51027 5.98659 7.44756 6.34969 7.33167 6.6884C7.32236 6.7154 7.32081 6.74447 7.32722 6.77231C7.33362 6.80014 7.34771 6.82562 7.36789 6.84584L7.60557 7.0839C7.62354 7.10189 7.64572 7.1151 7.6701 7.12233C7.69448 7.12956 7.72028 7.13058 7.74515 7.1253C7.77002 7.12001 7.79318 7.10859 7.81251 7.09207C7.83184 7.07556 7.84674 7.05447 7.85584 7.03072C8.0249 6.59519 8.12021 6.12821 8.12021 5.53237Z" fill="black"/>
<path d="M9.34021 5.53226C9.34021 4.11701 8.95537 3.22383 8.37746 2.31845C8.33393 2.25021 8.26508 2.20205 8.18605 2.18457C8.10701 2.16709 8.02427 2.18172 7.95603 2.22525C7.88778 2.26877 7.83962 2.33763 7.82214 2.41666C7.80466 2.49569 7.8193 2.57843 7.86282 2.64668C8.38375 3.4619 8.73027 4.26473 8.73027 5.53226C8.73027 6.41267 8.56959 7.06225 8.30274 7.63903C8.28967 7.66729 8.28557 7.69889 8.29098 7.72955C8.2964 7.76022 8.31108 7.7885 8.33305 7.81057L8.56025 8.03778C8.57743 8.05523 8.59856 8.0683 8.62186 8.07586C8.64515 8.08343 8.66993 8.08527 8.69409 8.08123C8.71824 8.07719 8.74107 8.06739 8.76064 8.05266C8.78021 8.03793 8.79595 8.0187 8.80651 7.9966C9.1801 7.22675 9.34021 6.46623 9.34021 5.53226Z" fill="black"/>
</g>
<defs>
<clipPath id="clip0_201_13524">
<rect width="9.75902" height="9.75902" fill="white" transform="translate(0.190918 0.652832)"/>
</clipPath>
</defs>
</svg>
