<svg width="11" height="10" viewBox="0 0 11 10" fill="none" xmlns="http://www.w3.org/2000/svg">
<path d="M4.00203 3.90276H2.67446C2.63402 3.90276 2.59523 3.91882 2.56663 3.94742C2.53804 3.97601 2.52197 4.0148 2.52197 4.05524V6.19003C2.52197 6.23047 2.53804 6.26925 2.56663 6.29785C2.59523 6.32645 2.63402 6.34251 2.67446 6.34251H4.00203C4.07251 6.34255 4.14081 6.367 4.1953 6.4117L5.93877 7.84125C5.96151 7.85797 5.98844 7.86805 6.01656 7.87037C6.04469 7.8727 6.07291 7.86717 6.09808 7.85441C6.12325 7.84164 6.14439 7.82215 6.15913 7.79808C6.17388 7.77402 6.18166 7.74634 6.18161 7.71811V2.52715C6.18159 2.49896 6.17376 2.47133 6.15898 2.44732C6.14421 2.42331 6.12307 2.40387 6.09791 2.39115C6.07275 2.37844 6.04456 2.37294 6.01647 2.37528C5.98838 2.37762 5.96148 2.3877 5.93877 2.4044L4.1953 3.83395C4.14076 3.87852 4.07247 3.90283 4.00203 3.90276Z" stroke="black" stroke-width="0.609939" stroke-linecap="round" stroke-linejoin="round"/>
<path d="M7.70654 6.34247C7.89219 5.9725 8.01151 5.5646 8.01151 5.12259C8.01151 4.67447 7.89715 4.2763 7.70654 3.90271" stroke="black" stroke-width="0.609939" stroke-linecap="round" stroke-linejoin="round"/>
</svg>
