<svg width="11" height="10" viewBox="0 0 11 10" fill="none" xmlns="http://www.w3.org/2000/svg">
<g clip-path="url(#clip0_201_13484)">
<path d="M5.39952 8.17237C5.30208 8.17237 5.20721 8.14111 5.12886 8.08317C5.12451 8.08014 5.12031 8.0769 5.11628 8.07345L3.37452 6.64752H2.04486C1.92353 6.64752 1.80718 6.59933 1.72139 6.51354C1.6356 6.42775 1.5874 6.31139 1.5874 6.19007V4.05528C1.5874 3.93396 1.6356 3.8176 1.72139 3.73181C1.80718 3.64602 1.92353 3.59783 2.04486 3.59783H3.37433L5.1159 2.17191C5.11993 2.16846 5.12412 2.16521 5.12848 2.16219C5.1966 2.11208 5.27729 2.08184 5.36157 2.07482C5.44584 2.0678 5.53042 2.08429 5.60589 2.12244C5.68137 2.16059 5.74479 2.21892 5.78911 2.29094C5.83343 2.36297 5.85693 2.44587 5.85697 2.53044V7.71492C5.85697 7.83624 5.80878 7.9526 5.72299 8.03838C5.6372 8.12417 5.52084 8.17237 5.39952 8.17237Z" fill="black"/>
<path d="M7.07688 6.64742C7.02483 6.64741 6.97366 6.63408 6.92823 6.6087C6.88279 6.58332 6.84461 6.54674 6.81731 6.50244C6.79001 6.45813 6.7745 6.40758 6.77226 6.35559C6.77001 6.30359 6.78111 6.25189 6.8045 6.2054C6.98538 5.84573 7.07707 5.4811 7.07707 5.12257C7.07707 4.75318 6.98824 4.39941 6.80545 4.04126C6.77043 3.96942 6.76501 3.8867 6.79036 3.81091C6.81571 3.73511 6.8698 3.67229 6.94099 3.63597C7.01219 3.59965 7.09479 3.59273 7.17104 3.6167C7.24728 3.64066 7.31107 3.6936 7.34868 3.76412C7.57607 4.20995 7.68681 4.65444 7.68681 5.12257C7.68681 5.57736 7.57245 6.03386 7.34944 6.47949C7.32404 6.53 7.2851 6.57244 7.23697 6.6021C7.18883 6.63175 7.13341 6.64744 7.07688 6.64742Z" fill="black"/>
<path d="M7.99205 7.56234C7.93851 7.56235 7.88591 7.54827 7.83954 7.5215C7.79317 7.49474 7.75466 7.45624 7.72789 7.40988C7.70111 7.36352 7.68701 7.31092 7.68701 7.25738C7.68701 7.20384 7.7011 7.15125 7.72787 7.10488C8.08831 6.4776 8.29702 5.95191 8.29702 5.12258C8.29702 4.28068 8.08869 3.75861 7.72863 3.14142C7.68914 3.07163 7.67874 2.98909 7.69966 2.91168C7.72058 2.83427 7.77115 2.76821 7.84042 2.72781C7.90969 2.68741 7.99209 2.67592 8.06977 2.69583C8.14745 2.71573 8.21416 2.76543 8.25547 2.83417C8.65765 3.52359 8.90696 4.14687 8.90696 5.12258C8.90696 6.08381 8.65803 6.71014 8.25642 7.40985C8.22963 7.45625 8.19109 7.49477 8.14468 7.52154C8.09827 7.54831 8.04563 7.56238 7.99205 7.56234Z" fill="black"/>
<path d="M8.90657 8.47725C8.85165 8.47721 8.79776 8.46234 8.7506 8.43422C8.70343 8.40609 8.66473 8.36574 8.63859 8.31745C8.61245 8.26915 8.59984 8.21469 8.60208 8.15982C8.60433 8.10494 8.62135 8.0517 8.65135 8.0057C9.17056 7.20915 9.51651 6.41414 9.51651 5.12259C9.51651 3.85506 9.16999 3.05223 8.64944 2.23701C8.62789 2.20322 8.61321 2.16551 8.60623 2.12605C8.59925 2.08658 8.60011 2.04612 8.60876 2.00699C8.61742 1.96786 8.6337 1.93081 8.65667 1.89797C8.67964 1.86513 8.70886 1.83713 8.74265 1.81558C8.77644 1.79403 8.81414 1.77934 8.85361 1.77236C8.89308 1.76538 8.93353 1.76625 8.97267 1.7749C9.0118 1.78356 9.04884 1.79983 9.08169 1.82281C9.11453 1.84578 9.14253 1.87499 9.16408 1.90879C9.74161 2.81416 10.1264 3.70715 10.1264 5.12259C10.1264 6.35676 9.84702 7.28845 9.16198 8.33887C9.13427 8.38136 9.09641 8.41627 9.05181 8.44043C9.00721 8.46459 8.95729 8.47725 8.90657 8.47725Z" fill="black"/>
</g>
<defs>
<clipPath id="clip0_201_13484">
<rect width="9.75902" height="9.75902" fill="white" transform="translate(0.977539 0.243164)"/>
</clipPath>
</defs>
</svg>
