<svg width="11" height="10" viewBox="0 0 11 10" fill="none" xmlns="http://www.w3.org/2000/svg">
<path d="M3.62019 3.90276H2.29262C2.25218 3.90276 2.21339 3.91882 2.1848 3.94742C2.1562 3.97601 2.14014 4.0148 2.14014 4.05524V6.19003C2.14014 6.23047 2.1562 6.26925 2.1848 6.29785C2.21339 6.32645 2.25218 6.34251 2.29262 6.34251H3.62019C3.69068 6.34255 3.75897 6.367 3.81347 6.4117L5.55694 7.84125C5.57967 7.85797 5.6066 7.86805 5.63473 7.87037C5.66286 7.8727 5.69107 7.86717 5.71625 7.85441C5.74142 7.84164 5.76255 7.82215 5.7773 7.79808C5.79204 7.77402 5.79982 7.74634 5.79977 7.71811V2.52715C5.79975 2.49896 5.79192 2.47133 5.77715 2.44732C5.76237 2.42331 5.74123 2.40387 5.71608 2.39115C5.69092 2.37844 5.66273 2.37294 5.63463 2.37528C5.60654 2.37762 5.57965 2.3877 5.55694 2.4044L3.81347 3.83395C3.75892 3.87852 3.69063 3.90283 3.62019 3.90276Z" stroke="black" stroke-width="0.609939" stroke-linecap="round" stroke-linejoin="round"/>
<path d="M7.32471 6.34247C7.51036 5.9725 7.62968 5.5646 7.62968 5.12259C7.62968 4.67447 7.51531 4.2763 7.32471 3.90271" stroke="black" stroke-width="0.609939" stroke-linecap="round" stroke-linejoin="round"/>
<path d="M8.23975 7.25736C8.61105 6.6093 8.84968 6.03749 8.84968 5.12258C8.84968 4.20767 8.62096 3.64157 8.23975 2.98779" stroke="black" stroke-width="0.609939" stroke-linecap="round" stroke-linejoin="round"/>
</svg>
