<svg width="11" height="11" viewBox="0 0 11 11" fill="none" xmlns="http://www.w3.org/2000/svg">
<path d="M8.7103 8.88706L2.00098 2.17773" stroke="black" stroke-width="0.609939" stroke-miterlimit="10" stroke-linecap="square"/>
<path d="M7.49083 5.53235C7.49083 5.06422 7.38008 4.61973 7.1525 4.1739L7.01431 3.9021L6.4707 4.17905L6.60927 4.45066C6.79206 4.80919 6.88089 5.16296 6.88089 5.53235C6.88077 5.6071 6.87676 5.68179 6.86888 5.75612L7.38961 6.27686C7.45622 6.03428 7.49025 5.78391 7.49083 5.53235Z" fill="black"/>
<path d="M8.71037 5.5323C8.71037 4.55659 8.46106 3.93331 8.05888 3.24389L7.90525 2.98047L7.37842 3.28773L7.53205 3.55114C7.8921 4.16832 8.10043 4.69039 8.10043 5.5323C8.10043 6.02654 8.02629 6.41309 7.89077 6.77753L8.35775 7.2447C8.58057 6.74608 8.71037 6.22649 8.71037 5.5323Z" fill="black"/>
<path d="M9.93007 5.53233C9.93007 4.1169 9.54524 3.22391 8.96732 2.31853L8.80321 2.0614L8.28857 2.38962L8.45269 2.64675C8.97361 3.46197 9.32013 4.26481 9.32013 5.53233C9.32013 6.46173 9.14096 7.13342 8.84705 7.73479L9.29879 8.18652C9.74252 7.35052 9.93007 6.54255 9.93007 5.53233Z" fill="black"/>
<path d="M5.66067 2.02527L4.25781 3.14565L5.66067 4.54832V2.02527Z" fill="black"/>
<path d="M1.39111 4.0094V7.05528H3.17614L5.66068 9.03949V7.12638L2.54371 4.0094H1.39111Z" fill="black"/>
</svg>
