<svg width="10" height="10" viewBox="0 0 10 10" fill="none" xmlns="http://www.w3.org/2000/svg">
<g clip-path="url(#clip0_201_13474)">
<path d="M2.56046 3.90274H1.22622C1.18577 3.90274 1.14699 3.91881 1.11839 3.9474C1.0898 3.976 1.07373 4.01479 1.07373 4.05523V6.19001C1.07373 6.23045 1.0898 6.26924 1.11839 6.29784C1.14699 6.32643 1.18577 6.3425 1.22622 6.3425H2.55379C2.62408 6.34194 2.69239 6.36579 2.74706 6.40997L4.49053 7.83742C4.51323 7.85411 4.5401 7.86419 4.56818 7.86654C4.59626 7.86888 4.62443 7.86341 4.64958 7.85071C4.67474 7.83802 4.69588 7.8186 4.71067 7.79462C4.72546 7.77064 4.73331 7.74303 4.73336 7.71486V2.53038C4.73331 2.50221 4.72546 2.4746 4.71067 2.45062C4.69588 2.42664 4.67474 2.40722 4.64958 2.39453C4.62443 2.38184 4.59626 2.37636 4.56818 2.3787C4.5401 2.38105 4.51323 2.39113 4.49053 2.40782L2.74706 3.83527C2.69491 3.87932 2.62872 3.90325 2.56046 3.90274Z" stroke="black" stroke-width="0.609939" stroke-linecap="round" stroke-linejoin="round"/>
<path d="M6.25781 6.34247C6.44346 5.97307 6.56278 5.56403 6.56278 5.12259C6.56278 4.67505 6.44842 4.27592 6.25781 3.90271" stroke="black" stroke-width="0.609939" stroke-linecap="round" stroke-linejoin="round"/>
<path d="M7.17285 7.25736C7.54415 6.61083 7.78279 6.03634 7.78279 5.12258C7.78279 4.20881 7.55406 3.64081 7.17285 2.98779" stroke="black" stroke-width="0.609939" stroke-linecap="round" stroke-linejoin="round"/>
<path d="M8.08789 8.17226C8.65971 7.29548 9.0028 6.42955 9.0028 5.12257C9.0028 3.81559 8.65971 2.96872 8.08789 2.07288" stroke="black" stroke-width="0.609939" stroke-linecap="round" stroke-linejoin="round"/>
</g>
<defs>
<clipPath id="clip0_201_13474">
<rect width="9.75902" height="9.75902" fill="white" transform="translate(0.158691 0.243164)"/>
</clipPath>
</defs>
</svg>
