<svg width="11" height="11" viewBox="0 0 11 11" fill="none" xmlns="http://www.w3.org/2000/svg">
<path d="M6.97569 8.58195C6.87817 8.58188 6.78324 8.55055 6.70484 8.49255C6.70046 8.4895 6.69645 8.48626 6.69226 8.48283L4.94898 7.0552H3.62103C3.4997 7.0552 3.38335 7.007 3.29756 6.92121C3.21177 6.83542 3.16357 6.71907 3.16357 6.59774V4.4662C3.16357 4.34487 3.21177 4.22852 3.29756 4.14273C3.38335 4.05694 3.4997 4.00874 3.62103 4.00874H4.9486L6.69188 2.5811C6.69607 2.57767 6.70008 2.57443 6.70446 2.57138C6.77261 2.5212 6.85335 2.49091 6.93769 2.48388C7.02203 2.47685 7.10667 2.49336 7.18219 2.53156C7.25771 2.56976 7.32115 2.62817 7.36546 2.70028C7.40976 2.77239 7.43319 2.85538 7.43315 2.94001V8.12449C7.43315 8.24582 7.38495 8.36217 7.29916 8.44796C7.21337 8.53375 7.09702 8.58195 6.97569 8.58195Z" fill="black"/>
</svg>
