<svg width="10" height="10" viewBox="0 0 10 10" fill="none" xmlns="http://www.w3.org/2000/svg">
<path d="M5.84776 8.17597C5.75024 8.1759 5.65531 8.14457 5.57691 8.08658L5.56433 8.07685L3.82105 6.64731H2.4931C2.37177 6.64731 2.25542 6.59911 2.16963 6.51332C2.08384 6.42754 2.03564 6.31118 2.03564 6.18986V4.05526C2.03564 3.93394 2.08384 3.81758 2.16963 3.73179C2.25542 3.646 2.37177 3.59781 2.4931 3.59781H3.82067L5.56395 2.16826L5.57653 2.15854C5.64468 2.10836 5.72542 2.07807 5.80976 2.07104C5.8941 2.06401 5.97874 2.08051 6.05426 2.11872C6.12978 2.15692 6.19322 2.21533 6.23753 2.28744C6.28183 2.35955 6.30526 2.44254 6.30522 2.52717V7.71813C6.30522 7.83946 6.25702 7.95581 6.17123 8.0416C6.08544 8.12739 5.96909 8.17559 5.84776 8.17559V8.17597Z" fill="black"/>
<path d="M7.52551 6.64742C7.4735 6.64739 7.42235 6.63406 7.37694 6.60869C7.33153 6.58332 7.29337 6.54676 7.26607 6.50249C7.23877 6.45821 7.22326 6.40769 7.22099 6.35572C7.21873 6.30376 7.22979 6.25208 7.25313 6.20559C7.43402 5.84535 7.5257 5.48129 7.5257 5.12257C7.5257 4.75356 7.43688 4.39979 7.25409 4.04126C7.21907 3.96942 7.21365 3.8867 7.239 3.81091C7.26434 3.73511 7.31843 3.67229 7.38963 3.63597C7.46082 3.59965 7.54343 3.59273 7.61967 3.6167C7.69592 3.64066 7.75971 3.6936 7.79731 3.76412C8.0249 4.21071 8.13545 4.65501 8.13545 5.12257C8.13545 5.57678 8.02109 6.03328 7.79808 6.4793C7.7727 6.52984 7.73377 6.57233 7.68564 6.60202C7.6375 6.6317 7.58206 6.64742 7.52551 6.64742Z" fill="black"/>
</svg>
