<svg width="11" height="11" viewBox="0 0 11 11" fill="none" xmlns="http://www.w3.org/2000/svg">
<g clip-path="url(#clip0_201_13549)">
<path d="M6.60494 9.80006L5.52954 7.62715L4.67906 6.5407C4.55322 6.32769 4.48699 6.08476 4.48731 5.83736V3.39075H4.7837C4.98591 3.39075 5.17983 3.47107 5.32281 3.61406C5.4658 3.75704 5.54612 3.95096 5.54612 4.15317V7.6262" fill="black"/>
<path d="M6.60494 9.80006L5.52954 7.62715L4.67906 6.5407C4.55322 6.32769 4.48699 6.08476 4.48731 5.83736V3.39075H4.7837C4.98591 3.39075 5.17983 3.47107 5.32281 3.61406C5.4658 3.75704 5.54612 3.95096 5.54612 4.15317V7.6262" stroke="black" stroke-width="0.609939" stroke-linecap="round" stroke-linejoin="round"/>
<path d="M3.0752 6.21438V4.80257C3.0752 4.80257 3.78044 3.39075 4.48701 3.39075" stroke="black" stroke-width="0.609939" stroke-linecap="round" stroke-linejoin="round"/>
<path d="M7.66328 6.2143C7.59367 6.21429 7.52562 6.19366 7.46772 6.15502L6.32161 5.41795C6.26491 5.38138 6.21828 5.33118 6.18598 5.27195C6.15368 5.21271 6.13675 5.14633 6.13672 5.07886V4.62712C6.13669 4.6078 6.14187 4.58883 6.1517 4.57219C6.16153 4.55556 6.17565 4.54187 6.19259 4.53257C6.20953 4.52328 6.22866 4.51871 6.24797 4.51935C6.26728 4.51998 6.28607 4.52581 6.30236 4.5362L7.85865 5.56757C7.92172 5.60961 7.96958 5.67083 7.99515 5.74218C8.02073 5.81353 8.02266 5.89121 8.00066 5.96374C7.97867 6.03628 7.93391 6.0998 7.87301 6.14492C7.81211 6.19005 7.73831 6.21437 7.66252 6.2143H7.66328Z" fill="black"/>
<path d="M3.92441 10.0587C3.86955 10.0588 3.81544 10.046 3.76637 10.0215C3.71729 9.997 3.67462 9.96137 3.64174 9.91747C3.52471 9.76155 3.56549 9.59001 3.71226 9.42342L4.85494 8.00035C4.87068 7.98857 4.88869 7.9802 4.90784 7.97579C4.927 7.97137 4.94686 7.97099 4.96616 7.97469C4.98547 7.97838 5.00379 7.98607 5.01995 7.99725C5.03611 8.00843 5.04977 8.02286 5.06004 8.03962C5.08977 8.08803 5.12446 8.14731 5.15896 8.21288C5.25884 8.40253 5.27332 8.51995 5.12694 8.70274C4.97445 8.89334 4.13579 9.98818 4.13579 9.98818C4.08585 10.045 3.99798 10.0587 3.92441 10.0587Z" fill="black"/>
<path d="M5.54585 2.68471C5.93576 2.68471 6.25185 2.36862 6.25185 1.97871C6.25185 1.58879 5.93576 1.27271 5.54585 1.27271C5.15593 1.27271 4.83984 1.58879 4.83984 1.97871C4.83984 2.36862 5.15593 2.68471 5.54585 2.68471Z" fill="black" stroke="black" stroke-width="0.304969" stroke-linecap="round" stroke-linejoin="round"/>
</g>
<defs>
<clipPath id="clip0_201_13549">
<rect width="9.75902" height="9.75902" fill="white" transform="translate(0.647461 0.652832)"/>
</clipPath>
</defs>
</svg>
