<svg width="10" height="11" viewBox="0 0 10 11" fill="none" xmlns="http://www.w3.org/2000/svg">
<g clip-path="url(#clip0_201_13543)">
<path d="M6.2443 9.82816L5.1588 7.6339L4.30108 6.53677C4.17433 6.32218 4.10746 6.07752 4.10742 5.82829V3.35938H4.40725C4.61091 3.35973 4.80612 3.44083 4.95008 3.58489C5.09404 3.72896 5.17499 3.92423 5.1752 4.1279V7.22562" fill="black"/>
<path d="M6.2443 9.82816L5.1588 7.6339L4.30108 6.53677C4.17433 6.32218 4.10746 6.07752 4.10742 5.82829V3.35938H4.40725C4.61091 3.35973 4.80612 3.44083 4.95008 3.58489C5.09404 3.72896 5.17499 3.92423 5.1752 4.1279V7.22562" stroke="black" stroke-width="0.609939" stroke-linecap="square" stroke-linejoin="round"/>
<path d="M2.68164 6.20897V4.78381L3.91963 3.54297" stroke="black" stroke-width="0.609939" stroke-linecap="square" stroke-linejoin="round"/>
<path d="M7.41166 6.28967L5.81152 5.21503V4.3634L7.80679 5.75387L7.41166 6.28967Z" fill="black"/>
<path d="M3.57644 10.1561L3.16797 9.64319L4.69911 8.08899L4.99512 8.70026L3.57644 10.1561Z" fill="black"/>
<path d="M5.17538 2.6464C5.56887 2.6464 5.88786 2.32741 5.88786 1.93392C5.88786 1.54043 5.56887 1.22144 5.17538 1.22144C4.78188 1.22144 4.46289 1.54043 4.46289 1.93392C4.46289 2.32741 4.78188 2.6464 5.17538 2.6464Z" fill="black" stroke="black" stroke-width="0.304969" stroke-linecap="square" stroke-linejoin="round"/>
</g>
<defs>
<clipPath id="clip0_201_13543">
<rect width="9.75902" height="9.75902" fill="white" transform="translate(0.238281 0.652832)"/>
</clipPath>
</defs>
</svg>
