<svg width="11" height="11" viewBox="0 0 11 11" fill="none" xmlns="http://www.w3.org/2000/svg">
<g clip-path="url(#clip0_201_13563)">
<path d="M2.69617 2.63516H8.79556C8.86681 2.63513 8.93799 2.63965 9.00866 2.64869C8.9847 2.48053 8.92694 2.31897 8.83886 2.17374C8.75077 2.02851 8.63419 1.90262 8.49614 1.80366C8.35809 1.7047 8.20143 1.63473 8.0356 1.59795C7.86977 1.56118 7.69822 1.55837 7.53127 1.58969L2.5151 2.44608H2.50938C2.19451 2.50629 1.91451 2.68444 1.72656 2.94413C2.00973 2.74272 2.34869 2.63471 2.69617 2.63516Z" fill="black"/>
<path d="M8.79583 3.09265H2.69644C2.37302 3.093 2.06294 3.22164 1.83425 3.45034C1.60555 3.67903 1.47692 3.98911 1.47656 4.31253V7.97216C1.47692 8.29559 1.60555 8.60566 1.83425 8.83436C2.06294 9.06305 2.37302 9.19169 2.69644 9.19204H8.79583C9.11925 9.19169 9.42933 9.06305 9.65802 8.83436C9.88672 8.60566 10.0154 8.29559 10.0157 7.97216V4.31253C10.0154 3.98911 9.88672 3.67903 9.65802 3.45034C9.42933 3.22164 9.11925 3.093 8.79583 3.09265ZM7.89045 6.75228C7.76981 6.75228 7.65189 6.71651 7.55159 6.64949C7.45128 6.58247 7.3731 6.48721 7.32694 6.37576C7.28077 6.26431 7.2687 6.14167 7.29223 6.02335C7.31577 5.90504 7.37386 5.79636 7.45916 5.71105C7.54446 5.62575 7.65314 5.56766 7.77146 5.54413C7.88977 5.52059 8.01241 5.53267 8.12386 5.57884C8.23531 5.625 8.33057 5.70318 8.39759 5.80348C8.46462 5.90379 8.50039 6.02171 8.50039 6.14235C8.50039 6.30411 8.43613 6.45925 8.32174 6.57364C8.20736 6.68802 8.05222 6.75228 7.89045 6.75228Z" fill="black"/>
<path d="M1.48584 5.5991V3.70257C1.48584 3.28953 1.71457 2.59706 2.50844 2.44705C3.18223 2.32068 3.84935 2.32068 3.84935 2.32068C3.84935 2.32068 4.28775 2.62565 3.92559 2.62565C3.56344 2.62565 3.57297 3.09263 3.92559 3.09263C4.27822 3.09263 3.92559 3.54056 3.92559 3.54056L2.50558 5.15118L1.48584 5.5991Z" fill="black"/>
</g>
<defs>
<clipPath id="clip0_201_13563">
<rect width="9.75902" height="9.75902" fill="white" transform="translate(0.875977 0.652832)"/>
</clipPath>
</defs>
</svg>
