<svg width="11" height="11" viewBox="0 0 11 11" fill="none" xmlns="http://www.w3.org/2000/svg">
<path d="M1.37182 2.63512H8.70062V1.63483C8.70062 1.5897 8.69061 1.54513 8.6713 1.50435C8.652 1.46356 8.62389 1.42756 8.58899 1.39895C8.55409 1.37034 8.51327 1.34984 8.46949 1.33891C8.42571 1.32798 8.38004 1.32691 8.3358 1.33576L1.3215 2.48855C1.26927 2.49895 1.22067 2.52284 1.18054 2.55785C1.14042 2.59286 1.11015 2.63777 1.09277 2.68811C1.18161 2.65299 1.27629 2.63501 1.37182 2.63512Z" fill="black"/>
<path d="M9.30107 3.09265H1.37186C1.29098 3.09265 1.21341 3.12478 1.15622 3.18197C1.09903 3.23917 1.06689 3.31674 1.06689 3.39762V8.88707C1.06689 8.96795 1.09903 9.04552 1.15622 9.10272C1.21341 9.15991 1.29098 9.19204 1.37186 9.19204H9.30107C9.38195 9.19204 9.45952 9.15991 9.51671 9.10272C9.57391 9.04552 9.60604 8.96795 9.60604 8.88707V3.39762C9.60604 3.31674 9.57391 3.23917 9.51671 3.18197C9.45952 3.12478 9.38195 3.09265 9.30107 3.09265ZM7.48078 6.75228C7.36015 6.75228 7.24222 6.71651 7.14192 6.64949C7.04161 6.58247 6.96344 6.48721 6.91727 6.37576C6.87111 6.26431 6.85903 6.14167 6.88256 6.02335C6.9061 5.90504 6.96419 5.79636 7.04949 5.71105C7.13479 5.62575 7.24347 5.56766 7.36179 5.54413C7.4801 5.52059 7.60274 5.53267 7.7142 5.57884C7.82565 5.625 7.92091 5.70318 7.98793 5.80348C8.05495 5.90379 8.09072 6.02171 8.09072 6.14235C8.09072 6.30411 8.02646 6.45925 7.91207 6.57364C7.79769 6.68802 7.64255 6.75228 7.48078 6.75228Z" fill="black"/>
<path d="M1.06348 5.5991V2.86391C1.06348 2.62889 1.1725 2.51167 1.35739 2.48269C2.02832 2.37729 3.42699 2.32068 3.42699 2.32068C3.42699 2.32068 3.26821 2.62565 2.90606 2.62565V3.09263C3.25868 3.09263 3.50323 3.54056 3.50323 3.54056L2.08322 5.15118L1.06348 5.5991Z" fill="black"/>
</svg>
