<svg width="10" height="11" viewBox="0 0 10 11" fill="none" xmlns="http://www.w3.org/2000/svg">
<g clip-path="url(#clip0_201_13555)">
<path d="M7.98646 3.39758H1.88708C1.38179 3.39758 0.972168 3.8072 0.972168 4.31249V7.97212C0.972168 8.47741 1.38179 8.88703 1.88708 8.88703H7.98646C8.49175 8.88703 8.90137 8.47741 8.90137 7.97212V4.31249C8.90137 3.8072 8.49175 3.39758 7.98646 3.39758Z" stroke="black" stroke-width="0.609939" stroke-linejoin="round"/>
<path d="M7.89802 3.39759V2.82577C7.89798 2.68552 7.86698 2.54701 7.80724 2.42013C7.7475 2.29324 7.66049 2.1811 7.55243 2.09171C7.44436 2.00232 7.31789 1.93789 7.18206 1.903C7.04622 1.86812 6.90435 1.86364 6.76659 1.88989L1.74679 2.74667C1.5288 2.78821 1.33214 2.90452 1.19073 3.07555C1.04931 3.24657 0.972018 3.46158 0.972168 3.6835V4.61746" stroke="black" stroke-width="0.609939" stroke-linejoin="round"/>
<path d="M7.07136 6.75223C6.95073 6.75223 6.8328 6.71645 6.7325 6.64943C6.6322 6.58241 6.55402 6.48715 6.50785 6.3757C6.46169 6.26425 6.44961 6.14161 6.47315 6.02329C6.49668 5.90498 6.55477 5.7963 6.64007 5.711C6.72537 5.62569 6.83406 5.5676 6.95237 5.54407C7.07069 5.52053 7.19333 5.53261 7.30478 5.57878C7.41623 5.62494 7.51149 5.70312 7.57851 5.80342C7.64553 5.90373 7.6813 6.02165 7.6813 6.14229C7.6813 6.30405 7.61704 6.45919 7.50266 6.57358C7.38827 6.68797 7.23313 6.75223 7.07136 6.75223Z" fill="black"/>
</g>
<defs>
<clipPath id="clip0_201_13555">
<rect width="9.75902" height="9.75902" fill="white" transform="translate(0.0571289 0.652832)"/>
</clipPath>
</defs>
</svg>
