<svg width="11" height="11" viewBox="0 0 11 11" fill="none" xmlns="http://www.w3.org/2000/svg">
<path d="M1.91598 9.15868H8.41297C8.5185 9.15866 8.62221 9.13127 8.71397 9.07918C8.80574 9.02708 8.88242 8.95207 8.93653 8.86148C8.99063 8.77088 9.02031 8.6678 9.02265 8.5623C9.025 8.45681 8.99993 8.35251 8.94991 8.25959L5.7016 2.22692C5.47116 1.7992 4.85779 1.7992 4.62735 2.22692L1.37905 8.25959C1.32902 8.35251 1.30396 8.45681 1.3063 8.5623C1.30865 8.6678 1.33832 8.77088 1.39243 8.86148C1.44653 8.95207 1.52321 9.02708 1.61498 9.07918C1.70675 9.13127 1.81046 9.15866 1.91598 9.15868V9.15868Z" stroke="black" stroke-width="0.609939" stroke-linecap="round" stroke-linejoin="round"/>
<path d="M5.05525 4.37709L5.16466 6.70248L5.27387 4.37804C5.27455 4.36318 5.27219 4.34834 5.26693 4.33442C5.26167 4.32051 5.25364 4.30781 5.24331 4.29711C5.23298 4.2864 5.22057 4.27792 5.20686 4.27217C5.19314 4.26642 5.17839 4.26353 5.16351 4.26368V4.26368C5.1489 4.26382 5.13446 4.26689 5.12105 4.2727C5.10764 4.27852 5.09554 4.28696 5.08545 4.29753C5.07535 4.3081 5.06748 4.32059 5.0623 4.33425C5.05711 4.34792 5.05471 4.36248 5.05525 4.37709V4.37709Z" stroke="black" stroke-width="0.609939" stroke-linecap="round" stroke-linejoin="round"/>
<path d="M5.1649 8.2247C5.08951 8.2247 5.0158 8.20235 4.95311 8.16046C4.89042 8.11857 4.84156 8.05903 4.81271 7.98938C4.78386 7.91972 4.77631 7.84307 4.79102 7.76912C4.80573 7.69517 4.84203 7.62725 4.89535 7.57393C4.94866 7.52062 5.01658 7.48431 5.09053 7.46961C5.16448 7.4549 5.24113 7.46245 5.31079 7.4913C5.38044 7.52015 5.43998 7.56901 5.48187 7.6317C5.52376 7.69439 5.54611 7.7681 5.54611 7.84349C5.54611 7.9446 5.50595 8.04156 5.43446 8.11305C5.36297 8.18454 5.26601 8.2247 5.1649 8.2247Z" fill="black"/>
</svg>
