<svg width="11" height="11" viewBox="0 0 11 11" fill="none" xmlns="http://www.w3.org/2000/svg">
<path d="M9.82495 9.18762L5.81137 1.73246C5.79832 1.7082 5.77894 1.68794 5.7553 1.67381C5.73165 1.65968 5.70463 1.65222 5.67708 1.65222C5.64954 1.65222 5.62251 1.65968 5.59887 1.67381C5.57523 1.68794 5.55585 1.7082 5.5428 1.73246L1.52845 9.18762C1.51595 9.21086 1.50969 9.23694 1.51029 9.26332C1.51089 9.2897 1.51833 9.31547 1.53187 9.33812C1.54541 9.36077 1.56459 9.37951 1.58755 9.39252C1.6105 9.40553 1.63644 9.41236 1.66283 9.41235H9.69153C9.71783 9.4122 9.74365 9.40525 9.76648 9.39217C9.7893 9.37909 9.80835 9.36033 9.82178 9.33771C9.83521 9.31509 9.84256 9.28939 9.84312 9.26309C9.84367 9.23679 9.83742 9.21079 9.82495 9.18762ZM6.0582 8.49592H5.29578V7.73349H6.0582V8.49592ZM5.98196 7.27756H5.37202L5.25766 4.22787H6.09632L5.98196 7.27756Z" fill="black"/>
</svg>
