<svg width="10" height="11" viewBox="0 0 10 11" fill="none" xmlns="http://www.w3.org/2000/svg">
<path d="M8.66378 8.25959L5.41528 2.22692C5.18503 1.7992 4.57166 1.7992 4.34122 2.22692L1.09291 8.25959C1.04292 8.35245 1.01785 8.45668 1.02017 8.56211C1.02248 8.66754 1.05208 8.77057 1.1061 8.86115C1.16011 8.95172 1.23669 9.02675 1.32835 9.07889C1.42001 9.13104 1.52363 9.15853 1.62909 9.15868H8.12665C8.23219 9.1587 8.33592 9.13133 8.42772 9.07925C8.51951 9.02717 8.59622 8.95216 8.65035 8.86156C8.70447 8.77096 8.73417 8.66786 8.73652 8.56235C8.73887 8.45684 8.71381 8.35252 8.66378 8.25959ZM4.87835 8.22471C4.80295 8.22471 4.72925 8.20236 4.66656 8.16047C4.60387 8.11858 4.555 8.05904 4.52615 7.98938C4.4973 7.91973 4.48975 7.84308 4.50446 7.76913C4.51917 7.69518 4.55547 7.62726 4.60879 7.57394C4.6621 7.52063 4.73003 7.48432 4.80397 7.46961C4.87792 7.45491 4.95457 7.46245 5.02423 7.49131C5.09389 7.52016 5.15342 7.56902 5.19531 7.63171C5.2372 7.6944 5.25956 7.76811 5.25956 7.8435C5.25956 7.89356 5.2497 7.94313 5.23054 7.98938C5.21138 8.03564 5.1833 8.07766 5.1479 8.11306C5.1125 8.14846 5.07048 8.17654 5.02423 8.1957C4.97798 8.21485 4.92841 8.22471 4.87835 8.22471ZM5.29234 4.39068L5.18293 6.71607C5.18293 6.79695 5.1508 6.87452 5.09361 6.93171C5.03642 6.98891 4.95885 7.02104 4.87796 7.02104C4.79708 7.02104 4.71951 6.98891 4.66232 6.93171C4.60513 6.87452 4.57299 6.79695 4.57299 6.71607L4.46359 4.39163C4.46113 4.33608 4.46988 4.28061 4.48931 4.22852C4.50875 4.17643 4.53847 4.12879 4.57672 4.08843C4.61496 4.04807 4.66093 4.01582 4.7119 3.99361C4.76287 3.9714 4.81779 3.95968 4.87339 3.95914H4.87739C4.93337 3.95912 4.98877 3.97043 5.04025 3.9924C5.09173 4.01437 5.13823 4.04654 5.17694 4.08698C5.21565 4.12741 5.24576 4.17527 5.26546 4.22766C5.28517 4.28006 5.29405 4.3359 5.29158 4.39182L5.29234 4.39068Z" fill="black"/>
</svg>
