<svg width="11" height="11" viewBox="0 0 11 11" fill="none" xmlns="http://www.w3.org/2000/svg">
<g clip-path="url(#clip0_201_13582)">
<path d="M6.43195 3.24512H3.9922C3.40269 3.24512 2.9248 3.72301 2.9248 4.31251V6.75227C2.9248 7.34177 3.40269 7.81966 3.9922 7.81966H6.43195C7.02146 7.81966 7.49935 7.34177 7.49935 6.75227V4.31251C7.49935 3.72301 7.02146 3.24512 6.43195 3.24512Z" fill="black"/>
<path d="M6.73665 2.48273V1.26286C6.73665 1.18197 6.70452 1.1044 6.64733 1.04721C6.59013 0.990016 6.51256 0.957886 6.43168 0.957886H3.99193C3.91104 0.957886 3.83347 0.990016 3.77628 1.04721C3.71909 1.1044 3.68696 1.18197 3.68696 1.26286V2.48273C3.28268 2.48319 2.89509 2.64399 2.60923 2.92985C2.32336 3.21572 2.16256 3.6033 2.16211 4.00758V7.05727C2.16256 7.46155 2.32336 7.84914 2.60923 8.135C2.89509 8.42087 3.28268 8.58167 3.68696 8.58212V9.802C3.68696 9.88288 3.71909 9.96045 3.77628 10.0176C3.83347 10.0748 3.91104 10.107 3.99193 10.107H6.43168C6.51256 10.107 6.59013 10.0748 6.64733 10.0176C6.70452 9.96045 6.73665 9.88288 6.73665 9.802V8.58212C7.14092 8.58167 7.52851 8.42087 7.81438 8.135C8.10024 7.84914 8.26104 7.46155 8.2615 7.05727V4.00758C8.26104 3.6033 8.10024 3.21572 7.81438 2.92985C7.52851 2.64399 7.14092 2.48319 6.73665 2.48273ZM7.80404 6.7523C7.80364 7.11615 7.65892 7.46498 7.40164 7.72227C7.14436 7.97955 6.79553 8.12426 6.43168 8.12467H3.99193C3.62808 8.12426 3.27925 7.97955 3.02196 7.72227C2.76468 7.46498 2.61997 7.11615 2.61956 6.7523V4.31255C2.61997 3.9487 2.76468 3.59987 3.02196 3.34259C3.27925 3.08531 3.62808 2.94059 3.99193 2.94019H6.43168C6.79553 2.94059 7.14436 3.08531 7.40164 3.34259C7.65892 3.59987 7.80364 3.9487 7.80404 4.31255V6.7523Z" fill="black"/>
</g>
<defs>
<clipPath id="clip0_201_13582">
<rect width="9.75902" height="9.75902" fill="white" transform="translate(0.33252 0.652832)"/>
</clipPath>
</defs>
</svg>
