<svg width="11" height="11" viewBox="0 0 11 11" fill="none" xmlns="http://www.w3.org/2000/svg">
<g clip-path="url(#clip0_201_13575)">
<path d="M6.91801 2.78772H3.86832C3.1946 2.78772 2.64844 3.33388 2.64844 4.0076V7.05729C2.64844 7.73101 3.1946 8.27717 3.86832 8.27717H6.91801C7.59173 8.27717 8.13789 7.73101 8.13789 7.05729V4.0076C8.13789 3.33388 7.59173 2.78772 6.91801 2.78772Z" stroke="black" stroke-width="0.609939" stroke-linejoin="round"/>
<path d="M3.86816 2.78766V1.4153C3.86816 1.37486 3.88423 1.33608 3.91283 1.30748C3.94142 1.27888 3.98021 1.26282 4.02065 1.26282H6.76537C6.80581 1.26282 6.8446 1.27888 6.8732 1.30748C6.90179 1.33608 6.91786 1.37486 6.91786 1.4153V2.78766" stroke="black" stroke-width="0.609939" stroke-linejoin="round"/>
<path d="M6.91786 8.2771V9.64946C6.91786 9.6899 6.90179 9.72869 6.8732 9.75728C6.8446 9.78588 6.80581 9.80195 6.76537 9.80195H4.02065C3.98021 9.80195 3.94142 9.78588 3.91283 9.75728C3.88423 9.72869 3.86816 9.6899 3.86816 9.64946V8.2771" stroke="black" stroke-width="0.609939" stroke-linejoin="round"/>
</g>
<defs>
<clipPath id="clip0_201_13575">
<rect width="9.75902" height="9.75902" fill="white" transform="translate(0.513672 0.652832)"/>
</clipPath>
</defs>
</svg>
