<svg width="11" height="11" viewBox="0 0 11 11" fill="none" xmlns="http://www.w3.org/2000/svg">
<path d="M8.3664 6.7523C8.3664 8.43668 7.30606 9.49702 5.62168 9.49702C3.93729 9.49702 2.87695 8.43668 2.87695 6.7523C2.87695 4.94478 4.84458 2.50465 5.44804 1.79883C5.46951 1.77376 5.49616 1.75362 5.52615 1.73982C5.55614 1.72602 5.58876 1.71887 5.62177 1.71887C5.65479 1.71887 5.68741 1.72602 5.7174 1.73982C5.74739 1.75362 5.77404 1.77376 5.79551 1.79883C6.39878 2.50465 8.3664 4.94478 8.3664 6.7523Z" stroke="black" stroke-width="0.609939" stroke-miterlimit="10"/>
<path d="M7.29912 6.90479C7.29912 7.26876 7.15453 7.61782 6.89716 7.87519C6.6398 8.13256 6.29073 8.27715 5.92676 8.27715" stroke="black" stroke-width="0.609939" stroke-linecap="round" stroke-linejoin="round"/>
</svg>
