<svg width="11" height="11" viewBox="0 0 11 11" fill="none" xmlns="http://www.w3.org/2000/svg">
<path d="M7.39627 6.45302C6.92176 6.03121 6.30894 5.79822 5.67405 5.79822C5.03916 5.79822 4.42635 6.03121 3.95183 6.45302C3.91174 6.48771 3.87893 6.53003 3.85533 6.57751C3.83172 6.62499 3.81779 6.67669 3.81433 6.7296C3.81087 6.78251 3.81796 6.83558 3.83518 6.88573C3.85241 6.93587 3.87942 6.9821 3.91466 7.02172C3.9499 7.06134 3.99266 7.09356 4.04046 7.11652C4.08825 7.13947 4.14013 7.15271 4.19309 7.15544C4.24604 7.15818 4.29901 7.15037 4.34892 7.13246C4.39882 7.11456 4.44468 7.08692 4.48381 7.05114C4.81177 6.75966 5.23529 6.59866 5.67405 6.59866C6.11282 6.59866 6.53633 6.75966 6.86429 7.05114C6.94366 7.12169 7.0478 7.15781 7.1538 7.15158C7.2598 7.14534 7.35899 7.09725 7.42953 7.01788C7.50008 6.93851 7.53621 6.83437 7.52997 6.72837C7.52373 6.62237 7.47564 6.52318 7.39627 6.45264V6.45302Z" fill="black"/>
<path d="M5.67406 4.15455C4.59938 4.15306 3.56459 4.56153 2.78066 5.29666C2.74097 5.33221 2.70878 5.37533 2.68598 5.42349C2.66317 5.47165 2.65021 5.52387 2.64785 5.57711C2.6455 5.63034 2.65379 5.68351 2.67226 5.73349C2.69072 5.78348 2.71898 5.82927 2.75537 5.8682C2.79177 5.90712 2.83557 5.93838 2.8842 5.96015C2.93284 5.98192 2.98533 5.99376 3.0386 5.99497C3.09188 5.99619 3.14485 5.98675 3.19443 5.96722C3.24401 5.9477 3.28919 5.91846 3.32732 5.88124C3.96384 5.28615 4.80268 4.9551 5.67406 4.9551C6.54544 4.9551 7.38428 5.28615 8.0208 5.88124C8.05893 5.91846 8.10411 5.9477 8.15369 5.96722C8.20327 5.98675 8.25625 5.99619 8.30952 5.99497C8.36279 5.99376 8.41528 5.98192 8.46392 5.96015C8.51256 5.93838 8.55635 5.90712 8.59275 5.8682C8.62915 5.82927 8.6574 5.78348 8.67587 5.73349C8.69433 5.68351 8.70263 5.63034 8.70027 5.57711C8.69791 5.52387 8.68495 5.47165 8.66215 5.42349C8.63934 5.37533 8.60715 5.33221 8.56746 5.29666C7.78354 4.56153 6.74875 4.15306 5.67406 4.15455Z" fill="black"/>
<path d="M9.59489 4.00478C8.51573 3.04191 7.12002 2.50977 5.67374 2.50977C4.22747 2.50977 2.83176 3.04191 1.7526 4.00478C1.71204 4.03943 1.67882 4.08183 1.65488 4.12949C1.63094 4.17716 1.61677 4.22913 1.6132 4.28235C1.60963 4.33557 1.61674 4.38897 1.6341 4.43941C1.65146 4.48984 1.67873 4.5363 1.71429 4.57605C1.74986 4.6158 1.79302 4.64804 1.84123 4.67087C1.88943 4.69371 1.94172 4.70668 1.995 4.70902C2.04829 4.71136 2.10151 4.70303 2.15154 4.68451C2.20156 4.66599 2.24738 4.63766 2.2863 4.60119C3.21867 3.76964 4.42434 3.31011 5.67365 3.31011C6.92296 3.31011 8.12863 3.76964 9.061 4.60119C9.14014 4.67196 9.24415 4.70839 9.35015 4.70248C9.45616 4.69656 9.55547 4.64878 9.62624 4.56964C9.69701 4.4905 9.73345 4.38649 9.72754 4.28049C9.72162 4.17448 9.67384 4.07517 9.5947 4.0044L9.59489 4.00478Z" fill="black"/>
<path d="M5.67439 8.7615C6.01125 8.7615 6.28433 8.48842 6.28433 8.15156C6.28433 7.8147 6.01125 7.54163 5.67439 7.54163C5.33753 7.54163 5.06445 7.8147 5.06445 8.15156C5.06445 8.48842 5.33753 8.7615 5.67439 8.7615Z" fill="black"/>
</svg>
