<svg width="11" height="11" viewBox="0 0 11 11" fill="none" xmlns="http://www.w3.org/2000/svg">
<path d="M7.30601 6.57305C6.90477 6.21641 6.38661 6.01941 5.84978 6.01941C5.31296 6.01941 4.79479 6.21641 4.39355 6.57305" stroke="black" stroke-width="0.609939" stroke-linecap="round" stroke-linejoin="round"/>
<path d="M8.46963 5.40926C7.75901 4.74478 6.82245 4.37512 5.84956 4.37512C4.87667 4.37512 3.94011 4.74478 3.22949 5.40926" stroke="black" stroke-width="0.609939" stroke-linecap="round" stroke-linejoin="round"/>
<path d="M9.5039 4.12405C8.49813 3.22681 7.19742 2.73096 5.84961 2.73096C4.50179 2.73096 3.20108 3.22681 2.19531 4.12405" stroke="black" stroke-width="0.609939" stroke-linecap="round" stroke-linejoin="round"/>
<path d="M5.84969 8.58206C5.72905 8.58206 5.61113 8.54629 5.51082 8.47927C5.41052 8.41225 5.33234 8.31699 5.28618 8.20554C5.24001 8.09408 5.22793 7.97145 5.25147 7.85313C5.275 7.73481 5.33309 7.62613 5.41839 7.54083C5.50369 7.45553 5.61238 7.39744 5.73069 7.3739C5.84901 7.35037 5.97165 7.36245 6.0831 7.40861C6.19455 7.45478 6.28981 7.53295 6.35683 7.63326C6.42385 7.73356 6.45962 7.85149 6.45962 7.97212C6.45962 8.13389 6.39536 8.28903 6.28098 8.40341C6.16659 8.5178 6.01145 8.58206 5.84969 8.58206Z" fill="black"/>
</svg>
