<svg width="10" height="11" viewBox="0 0 10 11" fill="none" xmlns="http://www.w3.org/2000/svg">
<path d="M7.91921 2.46191V2.17753C7.91921 2.09665 7.88707 2.01907 7.82988 1.96188C7.77269 1.90469 7.69512 1.87256 7.61424 1.87256H2.17968C2.0988 1.87256 2.02123 1.90469 1.96404 1.96188C1.90684 2.01907 1.87471 2.09665 1.87471 2.17753V2.46191C1.84688 2.67863 1.69078 4.19147 2.57862 5.21979C3.05266 5.76873 3.72912 6.07466 4.59199 6.13203V8.58189H3.06714C2.98626 8.58189 2.90869 8.61402 2.8515 8.67121C2.7943 8.7284 2.76217 8.80597 2.76217 8.88685C2.76217 8.96774 2.7943 9.04531 2.8515 9.1025C2.90869 9.15969 2.98626 9.19182 3.06714 9.19182H6.72677C6.80766 9.19182 6.88523 9.15969 6.94242 9.1025C6.99961 9.04531 7.03174 8.96774 7.03174 8.88685C7.03174 8.80597 6.99961 8.7284 6.94242 8.67121C6.88523 8.61402 6.80766 8.58189 6.72677 8.58189H5.20193V6.13203C6.0648 6.07485 6.74126 5.76873 7.2153 5.21979C8.10314 4.19147 7.94665 2.67863 7.91921 2.46191ZM2.48122 2.52691C2.48351 2.51222 2.48465 2.49737 2.48465 2.4825H7.30927C7.30926 2.49737 7.31041 2.51222 7.3127 2.52691C7.34562 2.81614 7.34562 3.10817 7.3127 3.39741H2.48236C2.44945 3.10819 2.44906 2.8162 2.48122 2.52691Z" fill="black"/>
</svg>
