<svg width="10" height="11" viewBox="0 0 10 11" fill="none" xmlns="http://www.w3.org/2000/svg">
<g clip-path="url(#clip0_201_13625)">
<path d="M5.12013 2.78725C5.70963 2.78725 6.18752 2.30936 6.18752 1.71986C6.18752 1.13035 5.70963 0.652466 5.12013 0.652466C4.53062 0.652466 4.05273 1.13035 4.05273 1.71986C4.05273 2.30936 4.53062 2.78725 5.12013 2.78725Z" fill="black"/>
<path d="M7.76735 5.94954L7.57046 5.29366C7.57046 5.29366 7.57046 5.29233 7.57046 5.29156L7.14236 3.86469H7.14141L7.09356 3.70363C7.04104 3.52702 6.93289 3.37209 6.78521 3.26191C6.63753 3.15174 6.45821 3.0922 6.27396 3.09216H3.98669C3.80241 3.09211 3.62305 3.15161 3.47535 3.2618C3.32765 3.37199 3.21952 3.52697 3.16708 3.70363L3.11924 3.86469H3.1181L2.69 5.29156C2.69 5.29156 2.69 5.2929 2.69 5.29366L2.49234 5.94954C2.43287 6.14758 2.53618 6.36239 2.73193 6.42872C2.78042 6.44523 2.83175 6.45179 2.88284 6.44802C2.93393 6.44425 2.98373 6.43022 3.02928 6.40678C3.07482 6.38333 3.11517 6.35094 3.14792 6.31155C3.18067 6.27215 3.20514 6.22656 3.21988 6.1775L3.70745 4.55259L3.74881 4.41478C3.76089 4.3811 3.78443 4.35274 3.8153 4.33466C3.84618 4.31658 3.88243 4.30994 3.91771 4.31589C3.95299 4.32184 3.98506 4.34001 4.00829 4.36722C4.03153 4.39443 4.04446 4.42894 4.04482 4.46472C4.04481 4.47503 4.04373 4.48531 4.04158 4.4954L3.20806 7.27425C3.19439 7.31978 3.19156 7.36788 3.19979 7.4147C3.20801 7.46152 3.22707 7.50577 3.25544 7.54392C3.28381 7.58206 3.3207 7.61305 3.36318 7.6344C3.40565 7.65576 3.45253 7.66688 3.50007 7.66689H4.05283V9.85295C4.05283 10.1667 4.25354 10.4116 4.51028 10.4116C4.76703 10.4116 4.96774 10.1667 4.96774 9.85295V7.66689H5.27271V9.85295C5.27271 10.1667 5.47341 10.4116 5.73016 10.4116C5.98691 10.4116 6.18761 10.1667 6.18761 9.85295V7.66689H6.75943C6.80699 7.66691 6.85389 7.65581 6.89639 7.63447C6.93888 7.61313 6.9758 7.58214 7.00419 7.54399C7.03258 7.50584 7.05166 7.46158 7.0599 7.41474C7.06813 7.36791 7.0653 7.31979 7.05163 7.27425L6.21792 4.49502C6.21583 4.48506 6.21481 4.4749 6.21487 4.46472C6.21506 4.42883 6.22791 4.39416 6.25115 4.36681C6.27438 4.33946 6.30652 4.32118 6.34191 4.31519C6.37729 4.30921 6.41366 4.31589 6.4446 4.33407C6.47554 4.35225 6.49908 4.38076 6.51107 4.41459L6.55243 4.55239L7.03981 6.17731C7.05461 6.2263 7.07912 6.27181 7.11188 6.31112C7.14464 6.35044 7.18499 6.38275 7.2305 6.40614C7.27602 6.42953 7.32578 6.44352 7.37682 6.44727C7.42786 6.45101 7.47913 6.44445 7.52757 6.42796C7.72332 6.36239 7.82663 6.14758 7.76735 5.94954Z" fill="black"/>
</g>
<defs>
<clipPath id="clip0_201_13625">
<rect width="9.75902" height="9.75902" fill="white" transform="translate(0.245605 0.652588)"/>
</clipPath>
</defs>
</svg>
