<svg width="11" height="11" viewBox="0 0 11 11" fill="none" xmlns="http://www.w3.org/2000/svg">
<g clip-path="url(#clip0_201_13622)">
<path d="M5.71095 2.78725C6.30045 2.78725 6.77834 2.30936 6.77834 1.71986C6.77834 1.13035 6.30045 0.652466 5.71095 0.652466C5.12144 0.652466 4.64355 1.13035 4.64355 1.71986C4.64355 2.30936 5.12144 2.78725 5.71095 2.78725Z" fill="black"/>
<path d="M6.75071 4.30079H6.75166L6.89767 4.25696L7.59891 6.59378L8.47569 6.33075L8.16672 5.29843C8.16672 5.29614 8.16672 5.29385 8.16539 5.29156L7.84441 4.22188L7.75463 3.92187L7.73748 3.86469H7.73652L7.68868 3.70363C7.63624 3.52697 7.52811 3.37199 7.38041 3.2618C7.23271 3.15161 7.05335 3.09211 6.86908 3.09216H4.55798C4.3737 3.09211 4.19434 3.15161 4.04664 3.2618C3.89894 3.37199 3.79081 3.52697 3.73837 3.70363L3.69053 3.86469H3.68939L3.67223 3.92187L3.58246 4.22188L3.26148 5.29156C3.26148 5.29385 3.26148 5.29614 3.26014 5.29843L2.95117 6.33075L3.82796 6.59378L4.52863 4.25696L4.67234 4.30003L3.66232 7.66689H4.64394V10.4116H5.63509V7.66689H5.78758V10.4116H6.77873V7.66689H7.76054L6.75071 4.30079Z" fill="black"/>
</g>
<defs>
<clipPath id="clip0_201_13622">
<rect width="9.75902" height="9.75902" fill="white" transform="translate(0.836426 0.652588)"/>
</clipPath>
</defs>
</svg>
