<svg width="24" height="24" viewBox="0 0 24 24" fill="none" xmlns="http://www.w3.org/2000/svg">
<path d="M5 9C5 5.134 8.134 2 12 2C15.866 2 19 5.134 19 9V15C19 18.866 15.866 22 12 22C8.134 22 5 18.866 5 15V9Z" stroke="#333333" stroke-width="2" stroke-linecap="round" stroke-linejoin="round"/>
<path d="M5 8.5H19" stroke="#333333" stroke-width="2" stroke-linecap="round" stroke-linejoin="round"/>
<path d="M11 5.5H13" stroke="#333333" stroke-width="2" stroke-linecap="round" stroke-linejoin="round"/>
<path d="M5 13.0004C5 13.0004 7.7 12.7004 8.5 13.5004C9.3 14.3004 9 15.1848 9 15.1848C10.5 15.1848 12 15.2639 12 17.0004C12 18.2504 10 19.0004 8.75 18.1848C8.75 19.2504 8.5 20.0004 7 20.0004" stroke="#333333" stroke-width="2" stroke-linecap="round" stroke-linejoin="round"/>
<path d="M19 11.5004C19 11.5004 17.25 10.5004 16.5 11.0004C15.75 11.5004 16 12.5004 16 12.5004C15.25 12.0004 14 12.5004 14 13.7504C14 15.0004 15.25 15.5004 16.5 15.0004C17 16.5004 18.25 16.5004 19 16.0004" stroke="#333333" stroke-width="2" stroke-linecap="round" stroke-linejoin="round"/>
<path d="M12.5 22C16.0898 22 19 19.0898 19 15.5V9C19 5.134 15.866 2 12 2" stroke="#333333" stroke-width="2" stroke-linecap="round" stroke-linejoin="round"/>
<path d="M11.5 22C7.91015 22 5 19.0898 5 15.5V9C5 5.134 8.134 2 12 2" stroke="#333333" stroke-width="2" stroke-linecap="round" stroke-linejoin="round"/>
</svg>
