<svg width="24" height="24" viewBox="0 0 24 24" fill="none" xmlns="http://www.w3.org/2000/svg">
<g clip-path="url(#clip0_201_40631)">
<path d="M24 0H0V24H24V0Z" fill="white" fill-opacity="0.01"/>
<path fill-rule="evenodd" clip-rule="evenodd" d="M12 20.9981C18.6666 21.0496 22 20.5038 22 19.3609C22 17.6465 14.2071 9.00146 12 9.00146C9.7929 9.00146 2 17.8257 2 19.3609C2 20.3844 5.33335 20.9301 12 20.9981Z" stroke="#333333" stroke-width="2" stroke-linejoin="round"/>
<path d="M10.5301 14.8306L8.7202 17" stroke="#333333" stroke-width="2" stroke-linecap="round"/>
<path d="M12.25 5.49998C12.9404 5.49998 13.5 4.94036 13.5 4.25C13.5 3.55964 12.9404 3 12.25 3C11.5597 3 11 3.55964 11 4.25C11 4.94036 11.5597 5.49998 12.25 5.49998Z" fill="#333333"/>
<path d="M17 8C17.5523 8 18 7.5523 18 7C18 6.44775 17.5523 6 17 6C16.4477 6 16 6.44775 16 7C16 7.5523 16.4477 8 17 8Z" fill="#333333"/>
<path d="M6 10.5C6.5523 10.5 7 10.0523 7 9.5C7 8.94775 6.5523 8.5 6 8.5C5.4477 8.5 5 8.94775 5 9.5C5 10.0523 5.4477 10.5 6 10.5Z" fill="#333333"/>
<path d="M8.75 7.5C9.1642 7.5 9.5 7.16425 9.5 6.75C9.5 6.3358 9.1642 6 8.75 6C8.3358 6 8 6.3358 8 6.75C8 7.16425 8.3358 7.5 8.75 7.5Z" fill="#333333"/>
</g>
<defs>
<clipPath id="clip0_201_40631">
<rect width="24" height="24" fill="white"/>
</clipPath>
</defs>
</svg>
