<svg width="24" height="24" viewBox="0 0 24 24" fill="none" xmlns="http://www.w3.org/2000/svg">
<g clip-path="url(#clip0_201_40650)">
<path d="M24 0H0V24H24V0Z" fill="white" fill-opacity="0.01"/>
<path d="M18.5 10.9999L17 12.4999L11.5 6.99994L13 5.49994C13.75 4.7499 16.5 3.49992 18.5 5.49994C20.5 7.49994 19.25 10.2499 18.5 10.9999Z" stroke="#333333" stroke-width="2" stroke-linecap="round" stroke-linejoin="round"/>
<path d="M21 3L18.5 5.5" stroke="#333333" stroke-width="2" stroke-linecap="round" stroke-linejoin="round"/>
<path d="M5.5 13L7 11.5L12.5 17L11 18.5C10.25 19.2501 7.5 20.5001 5.5 18.5C3.5 16.5 4.75 13.7501 5.5 13Z" stroke="#333333" stroke-width="2" stroke-linecap="round" stroke-linejoin="round"/>
<path d="M11.5 16L13.5 14" stroke="#333333" stroke-width="2" stroke-linecap="round" stroke-linejoin="round"/>
<path d="M3 21L5.5 18.5" stroke="#333333" stroke-width="2" stroke-linecap="round" stroke-linejoin="round"/>
<path d="M8 12.5L10 10.5" stroke="#333333" stroke-width="2" stroke-linecap="round" stroke-linejoin="round"/>
</g>
<defs>
<clipPath id="clip0_201_40650">
<rect width="24" height="24" fill="white"/>
</clipPath>
</defs>
</svg>
