<svg width="24" height="24" viewBox="0 0 24 24" fill="none" xmlns="http://www.w3.org/2000/svg">
<path d="M20.4253 21.9605L19.6381 21.803C18.4633 21.5681 17.928 19.9996 18.3014 18.8612C19.2786 15.8817 18.5623 12.056 18.1663 10.4049C18.0435 9.89245 17.6376 9.5079 17.1265 9.3801L15.9951 9.09725C15.4577 8.9629 15.0381 8.5433 14.9037 8.00585L14.6209 6.8745C14.4931 6.3633 14.1085 5.9575 13.5961 5.8346C11.945 5.43865 8.11926 4.7224 5.13976 5.6996C4.0014 6.07295 2.43289 5.53765 2.19794 4.36287L2.0405 3.57568" stroke="#333333" stroke-width="2" stroke-linecap="round" stroke-linejoin="round"/>
<path d="M3 5.5L19 21.5" stroke="#333333" stroke-width="2" stroke-linecap="round" stroke-linejoin="round"/>
<path d="M6 18L21.5 2.5" stroke="#333333" stroke-width="2" stroke-linecap="round" stroke-linejoin="round"/>
</svg>
