<svg width="24" height="24" viewBox="0 0 24 24" fill="none" xmlns="http://www.w3.org/2000/svg">
<g clip-path="url(#clip0_201_41010)">
<path d="M24 0H0V24H24V0Z" fill="white" fill-opacity="0.01"/>
<path fill-rule="evenodd" clip-rule="evenodd" d="M12 21.8C16.216 21.8 19.7803 18.4596 20.9468 14.6249C21.209 13.7627 23 13.7627 23 11.9C23 10.0373 21.1919 9.93007 20.8993 9.02402C19.6862 5.26732 16.1604 2 12 2C7.83725 2 4.30986 5.27037 3.09862 9.03032C2.80733 9.93452 1 10.0046 1 11.9C1 13.7954 2.79613 13.7954 3.06745 14.671C4.24835 18.482 7.8009 21.8 12 21.8Z" stroke="#333333" stroke-width="2"/>
<path d="M20.8993 9.02402C19.6862 5.26732 16.1604 2 12 2" stroke="#333333" stroke-width="2" stroke-linecap="round"/>
<path d="M9.5501 10.7999C9.5501 11.2131 9.438 11.5758 9.2699 11.828C9.10065 12.0819 8.89425 12.1999 8.7001 12.1999C8.50595 12.1999 8.29955 12.0819 8.1303 11.828C7.9622 11.5758 7.8501 11.2131 7.8501 10.7999C7.8501 10.3867 7.9622 10.024 8.1303 9.77185C8.29955 9.51795 8.50595 9.3999 8.7001 9.3999C8.89425 9.3999 9.10065 9.51795 9.2699 9.77185C9.438 10.024 9.5501 10.3867 9.5501 10.7999Z" fill="#333333" stroke="#333333" stroke-width="0.5"/>
<path d="M16.15 10.7999C16.15 11.2131 16.0379 11.5758 15.8698 11.828C15.7005 12.0819 15.4941 12.1999 15.3 12.1999C15.1058 12.1999 14.8994 12.0819 14.7302 11.828C14.5621 11.5758 14.45 11.2131 14.45 10.7999C14.45 10.3867 14.5621 10.024 14.7302 9.77185C14.8994 9.51795 15.1058 9.3999 15.3 9.3999C15.4941 9.3999 15.7005 9.51795 15.8698 9.77185C16.0379 10.024 16.15 10.3867 16.15 10.7999Z" fill="#333333" stroke="#333333" stroke-width="0.5"/>
<path fill-rule="evenodd" clip-rule="evenodd" d="M9.24899 15.875C10.2144 16.5249 11.133 16.8497 12.0047 16.8497C12.8754 16.8497 13.7388 16.5256 14.5947 15.8771" fill="#333333"/>
<path d="M9.24899 15.875C10.2144 16.5249 11.133 16.8497 12.0047 16.8497C12.8754 16.8497 13.7388 16.5256 14.5947 15.8771" stroke="#333333" stroke-width="2" stroke-linecap="round"/>
<path d="M15.8641 3.1001C15.9982 4.06684 15.7033 4.77326 14.9796 5.21937C14.2559 5.66542 13.0801 5.87447 11.4521 5.84647" stroke="#333333" stroke-width="2" stroke-linecap="round"/>
</g>
<defs>
<clipPath id="clip0_201_41010">
<rect width="24" height="24" fill="white"/>
</clipPath>
</defs>
</svg>
