<svg width="24" height="24" viewBox="0 0 24 24" fill="none" xmlns="http://www.w3.org/2000/svg">
<path d="M7.50005 10.3061C6.7882 13.3808 10.7465 14.1635 9.8119 16.3299C8.8773 18.4962 6.7844 18.0629 7.01805 20.2292C7.25175 22.3955 10.021 22.426 12.5419 21.1208C17.5838 18.5103 18.6354 12.8083 16.3538 10.3061C13.5501 7.23131 8.21185 7.23131 7.50005 10.3061Z" stroke="#333333" stroke-width="2"/>
<path d="M16.3036 7.917C16.7266 8.272 17.5013 8.04533 18.0338 7.41072C18.5663 6.7761 18.655 5.97386 18.2319 5.61886C17.8089 5.26386 17.0342 5.49053 16.5017 6.12514C15.9692 6.75975 15.8805 7.56199 16.3036 7.917Z" fill="#333333"/>
<path d="M14.0568 6.66107C14.5573 6.89448 15.2469 6.47504 15.597 5.72423C15.9471 4.97342 15.8252 4.17556 15.3246 3.94215C14.8241 3.70874 14.1345 4.12818 13.7844 4.87899C13.4343 5.6298 13.5562 6.42767 14.0568 6.66107Z" fill="#333333"/>
<path d="M11.5339 6.29317C12.0832 6.3509 12.5986 5.72981 12.6852 4.90592C12.7718 4.08203 12.3967 3.36734 11.8475 3.30961C11.2982 3.25188 10.7828 3.87297 10.6962 4.69686C10.6096 5.52075 10.9846 6.23544 11.5339 6.29317Z" fill="#333333"/>
<path d="M7.68404 5.87953C8.4625 5.59619 8.78732 4.52507 8.40954 3.48711C8.03175 2.44916 7.09442 1.83742 6.31596 2.12076C5.53749 2.4041 5.21267 3.47522 5.59046 4.51317C5.96824 5.55113 6.90557 6.16287 7.68404 5.87953Z" stroke="#333333" stroke-width="2"/>
<path d="M18.1187 9.73201C18.4737 10.1551 19.2759 10.0664 19.9105 9.53387C20.5452 9.00137 20.7718 8.22672 20.4168 7.80364C20.0618 7.38057 19.2596 7.46928 18.625 8.00178C17.9904 8.53428 17.7637 9.30893 18.1187 9.73201Z" fill="#333333"/>
</svg>
