<svg width="24" height="24" viewBox="0 0 24 24" fill="none" xmlns="http://www.w3.org/2000/svg">
<g clip-path="url(#clip0_201_41185)">
<path d="M24 0H0V24H24V0Z" fill="white" fill-opacity="0.01"/>
<path d="M12 22C17.5228 22 22 17.5228 22 12C22 6.47715 17.5228 2 12 2C6.47715 2 2 6.47715 2 12C2 17.5228 6.47715 22 12 22Z" stroke="#333333" stroke-width="2" stroke-linecap="round" stroke-linejoin="round"/>
<path d="M4.27274 5.63623C6.39395 7.45441 7.45455 9.57562 7.45455 11.9999C7.45455 14.4241 6.39395 16.5453 4.27274 18.3635" stroke="#333333" stroke-width="2" stroke-linecap="round" stroke-linejoin="round"/>
<path d="M19.7273 18.3635C17.6061 16.5453 16.5455 14.4241 16.5455 11.9999C16.5455 9.57562 17.6061 7.45441 19.7273 5.63623" stroke="#333333" stroke-width="2" stroke-linecap="round" stroke-linejoin="round"/>
</g>
<defs>
<clipPath id="clip0_201_41185">
<rect width="24" height="24" fill="white"/>
</clipPath>
</defs>
</svg>
