<svg width="24" height="24" viewBox="0 0 24 24" fill="none" xmlns="http://www.w3.org/2000/svg">
<g clip-path="url(#clip0_201_41249)">
<path d="M24 0H0V24H24V0Z" fill="white" fill-opacity="0.01"/>
<path d="M7.1704 10.706L12 12.0001L16.8296 13.2942L21.6593 14.5882C22.8283 10.2253 20.9237 5.76291 17.2729 3.50006C16.4597 2.99606 15.5599 2.60116 14.5882 2.34078C13.4691 2.04092 12.3434 1.94328 11.25 2.02548C7.1313 2.33509 3.47031 5.19631 2.34076 9.41186L7.1704 10.706Z" stroke="#333333" stroke-width="2" stroke-linecap="round" stroke-linejoin="round"/>
<path d="M14.5882 2.34082C14.5882 2.34082 11.7678 4.17329 10.1548 6.32927C8.54184 8.48527 8.13629 10.9648 8.13629 10.9648" stroke="#333333" stroke-width="2" stroke-linecap="round" stroke-linejoin="round"/>
<path d="M14.5882 2.34082C14.5882 2.34082 16.1145 5.33797 16.4333 8.01162C16.7522 10.6852 15.8637 13.0354 15.8637 13.0354" stroke="#333333" stroke-width="2" stroke-linecap="round" stroke-linejoin="round"/>
<path d="M2.34076 9.41162L7.1704 10.7057L12 11.9998L16.8296 13.2939L21.6593 14.588" stroke="#333333" stroke-width="2" stroke-linecap="round" stroke-linejoin="round"/>
<path d="M2 22H22" stroke="#333333" stroke-width="2" stroke-linecap="round" stroke-linejoin="round"/>
<path d="M12 12L9.25 22" stroke="#333333" stroke-width="2" stroke-linecap="round" stroke-linejoin="round"/>
<path d="M11.25 2.02548C12.3434 1.94328 13.4691 2.04092 14.5882 2.34078C15.5599 2.60116 16.4597 2.99606 17.2729 3.50006" stroke="#333333" stroke-width="2" stroke-linecap="round" stroke-linejoin="round"/>
</g>
<defs>
<clipPath id="clip0_201_41249">
<rect width="24" height="24" fill="white"/>
</clipPath>
</defs>
</svg>
