<svg width="24" height="24" viewBox="0 0 24 24" fill="none" xmlns="http://www.w3.org/2000/svg">
<path d="M10.5 12.3565V2.9677C10.5 2.43326 10.0667 2 9.5323 2C9.076 2 8.6817 2.31876 8.5861 2.76494L6.5291 12.3643C6.5098 12.4543 6.47815 12.5413 6.43505 12.6227L2.77711 19.5321C2.42453 20.1981 2.90733 21 3.6609 21H7.7028C8.1692 21 8.5737 20.6775 8.67765 20.2228L10.2401 13.3869L10.4596 12.6377C10.4864 12.5464 10.5 12.4517 10.5 12.3565Z" stroke="#333333" stroke-width="2" stroke-linecap="round" stroke-linejoin="round"/>
<path d="M6.5 12.5L10 14" stroke="#333333" stroke-width="2" stroke-linecap="round" stroke-linejoin="round"/>
<path d="M13.5 12.3565V2.9677C13.5 2.43326 13.9333 2 14.4677 2C14.924 2 15.3183 2.31876 15.4139 2.76494L17.4709 12.3643C17.4902 12.4543 17.5219 12.5413 17.565 12.6227L21.2229 19.5321C21.5755 20.1981 21.0926 21 20.3391 21H16.2972C15.8308 21 15.4263 20.6775 15.3223 20.2228L13.7598 13.3869L13.5403 12.6377C13.5136 12.5464 13.5 12.4517 13.5 12.3565Z" stroke="#333333" stroke-width="2" stroke-linecap="round" stroke-linejoin="round"/>
<path d="M17.5 12.5L14 14" stroke="#333333" stroke-width="2" stroke-linecap="round" stroke-linejoin="round"/>
</svg>
