<svg width="24" height="24" viewBox="0 0 24 24" fill="none" xmlns="http://www.w3.org/2000/svg">
<g clip-path="url(#clip0_201_41622)">
<path d="M24 0H0V24H24V0Z" fill="white" fill-opacity="0.01"/>
<path d="M9.518 22C9.02805 20.4022 8.2889 19.211 7.30055 18.4265C5.818 17.2498 3.46242 17.9811 2.59229 16.7674C1.72217 15.5536 3.20191 13.3215 3.72117 12.0044C4.24043 10.6874 1.7309 10.2217 2.02388 9.84783C2.21921 9.59858 3.48736 8.87928 5.82835 7.68998C6.4935 3.89666 8.9504 2 13.1991 2C19.5721 2 22 7.40298 22 10.8394C22 14.2759 19.0601 17.9781 14.8721 18.7763C14.4976 19.3217 15.0377 20.3963 16.4924 22" stroke="#333333" stroke-width="2" stroke-linecap="round" stroke-linejoin="round"/>
<path fill-rule="evenodd" clip-rule="evenodd" d="M9.74986 7.24993C9.42321 8.51703 9.52041 9.40683 10.0415 9.91918C10.5625 10.4316 11.4506 10.7666 12.7056 10.9244C12.4209 12.5587 12.7681 13.3255 13.7471 13.2246C14.7262 13.1237 15.3145 12.7168 15.512 12.0041C17.0421 12.4341 17.8714 12.0742 17.9999 10.9244C18.1926 9.19958 17.2625 7.82368 16.8812 7.82368C16.4999 7.82368 15.512 7.77728 15.512 7.24993C15.512 6.72253 14.358 6.42458 13.3165 6.42458C12.275 6.42458 12.9018 5.72253 11.4716 5.99993C10.5182 6.18483 9.94426 6.60148 9.74986 7.24993Z" stroke="#333333" stroke-width="2" stroke-linejoin="round"/>
<path d="M15.2501 12.75C14.7417 13.0655 14.0439 13.5901 13.7501 14C13.0157 15.0247 12.4199 15.6487 12.2896 16.3041" stroke="#333333" stroke-width="2" stroke-linecap="round"/>
</g>
<defs>
<clipPath id="clip0_201_41622">
<rect width="24" height="24" fill="white"/>
</clipPath>
</defs>
</svg>
