<svg width="24" height="24" viewBox="0 0 24 24" fill="none" xmlns="http://www.w3.org/2000/svg">
<path d="M6.63984 21C6.24979 21 5.89534 20.7732 5.73184 20.4191L3.1934 14.9191C3.07068 14.6532 3.07068 14.3468 3.1934 14.0809L5.73184 8.58095C5.89534 8.2268 6.24979 8 6.63984 8H17.3601C17.7502 8 18.1046 8.2268 18.2681 8.58095L20.8066 14.0809C20.9293 14.3468 20.9293 14.6532 20.8066 14.9191L18.2681 20.4191C18.1046 20.7732 17.7502 21 17.3601 21H6.63984Z" stroke="#333333" stroke-width="2" stroke-linejoin="round"/>
<path d="M4.5 11.5H9V16.5H4" stroke="#333333" stroke-width="2" stroke-linecap="round" stroke-linejoin="round"/>
<path d="M19.5 11.5H12.5V16H20" stroke="#333333" stroke-width="2" stroke-linecap="round" stroke-linejoin="round"/>
<path d="M18.9996 2C18.9996 2 14.25 3.75 10.282 4.19696C6.3141 4.64392 3.99994 4.5 3.99994 4.5" stroke="#333333" stroke-width="2" stroke-linecap="round" stroke-linejoin="round"/>
<path d="M13 4V8L8.5 4.5" stroke="#333333" stroke-width="2" stroke-linecap="round" stroke-linejoin="round"/>
<path d="M5.30769 9.5L3.1934 14.0809C3.07068 14.3468 3.07068 14.6532 3.1934 14.9191L4.49999 17.75" stroke="#333333" stroke-width="2" stroke-linecap="round" stroke-linejoin="round"/>
<path d="M18.6924 9.5L20.8066 14.0809C20.9294 14.3468 20.9294 14.6532 20.8066 14.9191L19.5001 17.75" stroke="#333333" stroke-width="2" stroke-linecap="round" stroke-linejoin="round"/>
</svg>
