<svg width="24" height="24" viewBox="0 0 24 24" fill="none" xmlns="http://www.w3.org/2000/svg">
<g clip-path="url(#clip0_201_41936)">
<path d="M24 0H0V24H24V0Z" fill="white" fill-opacity="0.01"/>
<path d="M24 0H0V24H24V0Z" fill="white" fill-opacity="0.01"/>
<path d="M20.0003 2H4.00036C3.44808 2 3.00037 2.4477 3.00036 2.99998L3.00003 21C3.00002 21.5523 3.44774 22 4.00003 22H20.0003C20.5526 22 21.0003 21.5523 21.0003 21V3C21.0003 2.44771 20.5526 2 20.0003 2Z" stroke="#333333" stroke-width="2" stroke-linejoin="round"/>
<path d="M17.5 5H6.5V9.5H17.5V5Z" stroke="#333333" stroke-width="2" stroke-linejoin="round"/>
<path d="M6 14L9.5 17.5" stroke="#333333" stroke-width="2" stroke-linecap="round" stroke-linejoin="round"/>
<path d="M9.5 14L6 17.5" stroke="#333333" stroke-width="2" stroke-linecap="round" stroke-linejoin="round"/>
<path d="M14 17.5H18" stroke="#333333" stroke-width="2" stroke-linecap="round" stroke-linejoin="round"/>
<path d="M14 14.5H18" stroke="#333333" stroke-width="2" stroke-linecap="round" stroke-linejoin="round"/>
</g>
<defs>
<clipPath id="clip0_201_41936">
<rect width="24" height="24" fill="white"/>
</clipPath>
</defs>
</svg>
