<svg width="24" height="24" viewBox="0 0 24 24" fill="none" xmlns="http://www.w3.org/2000/svg">
<g clip-path="url(#clip0_201_42343)">
<path d="M24 0H0V24H24V0Z" fill="white" fill-opacity="0.01"/>
<path d="M8.4984 1.75C8.4984 2.88282 8.4984 3.74092 8.4984 4.32431C8.4984 5.1994 8.01665 5.53675 6.20115 6.00325C4.38566 6.4697 3.84816 6.74465 3.42408 7.54975C3.14136 8.08645 3 8.91515 3 10.0358V18.75" stroke="#333333" stroke-width="2" stroke-linecap="round"/>
<path d="M17.4708 10.7544C17.5896 12.1928 17.3458 13.449 16.7396 14.5231C16.1333 15.5971 15.063 16.2514 13.5286 16.4859" stroke="#333333" stroke-width="2" stroke-linecap="round" stroke-linejoin="round"/>
<path d="M6.52935 10.7544C6.41 12.1928 6.6548 13.449 7.26385 14.5231C7.87285 15.5971 8.9519 16.2514 10.5011 16.4859" stroke="#333333" stroke-width="2" stroke-linecap="round" stroke-linejoin="round"/>
<path d="M6.5 21.7564C7.16665 20.9789 7.5 20.1335 7.5 19.2202C7.5 18.3069 7.5 16.913 7.5 15.0386" stroke="#333333" stroke-width="2" stroke-linecap="round"/>
<path d="M17.5 21.7564C16.8334 20.9789 16.5 20.1335 16.5 19.2202C16.5 18.3069 16.5 16.913 16.5 15.0386" stroke="#333333" stroke-width="2" stroke-linecap="round"/>
<path d="M15.5001 1.75C15.5001 2.88282 15.5001 3.74092 15.5001 4.32431C15.5001 5.1994 15.9819 5.53675 17.7974 6.00325C19.6128 6.4697 20.1504 6.74465 20.5744 7.54975C20.8572 8.08645 20.9985 8.91515 20.9985 10.0358V18.75" stroke="#333333" stroke-width="2" stroke-linecap="round"/>
</g>
<defs>
<clipPath id="clip0_201_42343">
<rect width="24" height="24" fill="white"/>
</clipPath>
</defs>
</svg>
