<svg width="24" height="24" viewBox="0 0 24 24" fill="none" xmlns="http://www.w3.org/2000/svg">
<path d="M10.5838 8.29672C11.4077 5.49337 14.7453 4.33295 17.1306 6.02057C19.1932 7.47987 19.5394 10.4036 17.8747 12.3043L16.3095 14.0912C13.6999 17.0706 10.4045 19.3702 6.7077 20.7916L4.92866 21.4756C4.56378 21.6159 4.15292 21.5645 3.83379 21.3388C3.19748 20.8886 3.17152 19.9536 3.78186 19.4688L5.1714 18.365C7.2541 16.7107 8.7745 14.4531 9.52445 11.9013L10.5838 8.29672Z" stroke="#333333" stroke-width="2"/>
<path d="M14.9208 5.3417C15.3469 4.04839 16.7408 3.34536 18.0341 3.77146C19.3274 4.19755 20.0305 5.5914 19.6044 6.88475C19.4491 7.356 19.1654 7.74885 18.8048 8.0373" stroke="#333333" stroke-width="2"/>
<path d="M21 2L19 4" stroke="#333333" stroke-width="2" stroke-linecap="round"/>
</svg>
