<svg width="24" height="24" viewBox="0 0 24 24" fill="none" xmlns="http://www.w3.org/2000/svg">
<path d="M8.5591 13.0064L4.62647 6.19492C4.40481 5.81102 3.91389 5.67947 3.52997 5.90112C3.19122 6.09672 3.04277 6.50803 3.17851 6.87488L5.93865 14.334C5.97925 14.4437 6.00025 14.5597 6.0008 14.6766L6.0293 21.0131C6.0318 21.5636 6.47875 22.0086 7.0293 22.0086H9.50795C10.1463 22.0086 10.6212 21.4187 10.4849 20.7951L9 13.9998L8.5591 13.0064Z" stroke="#333333" stroke-width="2" stroke-linecap="round" stroke-linejoin="round"/>
<path d="M6 14.5L9 14" stroke="#333333" stroke-width="2" stroke-linecap="round" stroke-linejoin="round"/>
<path d="M15.2816 12.8646L19.1271 6.20381C19.3515 5.81516 19.8485 5.68196 20.2372 5.90636C20.5732 6.10041 20.7252 6.50496 20.6 6.87226L18.0474 14.3609C18.016 14.4532 17.9982 14.5496 17.9946 14.6471L17.7616 21.0463C17.742 21.584 17.3004 22.0099 16.7623 22.0099H14.2801C13.6296 22.0099 13.1523 21.3987 13.3099 20.7676L15 14.0001L15.1671 13.1677C15.1885 13.0611 15.2272 12.9587 15.2816 12.8646Z" stroke="#333333" stroke-width="2" stroke-linecap="round" stroke-linejoin="round"/>
<path d="M15 14L18 14.5" stroke="#333333" stroke-width="2" stroke-linecap="round" stroke-linejoin="round"/>
<path d="M7.5 3.5L9.25 5.5" stroke="#333333" stroke-width="2" stroke-linecap="round" stroke-linejoin="round"/>
<path d="M11.5 2L12 5" stroke="#333333" stroke-width="2" stroke-linecap="round" stroke-linejoin="round"/>
<path d="M16.5 3L15 5" stroke="#333333" stroke-width="2" stroke-linecap="round" stroke-linejoin="round"/>
</svg>
