<svg width="24" height="24" viewBox="0 0 24 24" fill="none" xmlns="http://www.w3.org/2000/svg">
<g clip-path="url(#clip0_201_42677)">
<path d="M24 0H0V24H24V0Z" fill="white" fill-opacity="0.01"/>
<path d="M22 9.48266C18.6126 6.27251 14.0595 5.00296 9.75 5.67406" stroke="#333333" stroke-width="2" stroke-linecap="round" stroke-linejoin="round"/>
<path d="M19 12.8996C17.6433 11.5429 15.9907 10.6623 14.25 10.2578" stroke="#333333" stroke-width="2" stroke-linecap="round" stroke-linejoin="round"/>
<path d="M5 12.8995C5.6638 12.2357 6.39845 11.6858 7.17955 11.25" stroke="#333333" stroke-width="2" stroke-linecap="round" stroke-linejoin="round"/>
<path d="M8 16.157C8.7194 15.4376 9.5843 14.9525 10.5 14.7017" stroke="#333333" stroke-width="2" stroke-linecap="round" stroke-linejoin="round"/>
<path fill-rule="evenodd" clip-rule="evenodd" d="M12 20C12.6904 20 13.25 19.4404 13.25 18.75C13.25 18.0597 12.6904 17.5 12 17.5C11.3097 17.5 10.75 18.0597 10.75 18.75C10.75 19.4404 11.3097 20 12 20Z" fill="#333333"/>
<path d="M20 20L4 4" stroke="#333333" stroke-width="2" stroke-linecap="round" stroke-linejoin="round"/>
<path d="M2 9.48274C2.2944 9.20374 2.59761 8.93939 2.9087 8.68974C3.18321 8.46939 3.46385 8.26049 3.74999 8.06299" stroke="#333333" stroke-width="2" stroke-linecap="round" stroke-linejoin="round"/>
</g>
<defs>
<clipPath id="clip0_201_42677">
<rect width="24" height="24" fill="white"/>
</clipPath>
</defs>
</svg>
