<svg width="24" height="24" viewBox="0 0 24 24" fill="none" xmlns="http://www.w3.org/2000/svg">
<path d="M11 7C11 7 9.64989 9.64665 8.99999 13C8.35004 16.3533 8.49999 21 8.49999 21" stroke="#333333" stroke-width="2" stroke-linecap="round" stroke-linejoin="round"/>
<path d="M16.9765 11.6362C17.1493 11.7509 17.4228 11.8318 17.6907 11.8876C18.1564 11.9847 18.5868 11.6646 18.5746 11.189C18.5521 10.3022 18.2061 8.85147 16.4454 7.68227C14.7831 6.57837 13.1323 6.56327 12.0916 6.72192C11.498 6.81242 11.2617 7.46102 11.6023 7.95552C11.9064 8.39692 12.2606 8.84272 12.5 8.92787C13 9.10562 13.6017 8.63692 14.0399 8.92787C14.478 9.21882 14.3477 9.89042 14.7858 10.1814C15.224 10.4723 15.7924 10.0917 16.2306 10.3826C16.6687 10.6736 16.5384 11.3452 16.9765 11.6362Z" stroke="#333333" stroke-width="2" stroke-linecap="round" stroke-linejoin="round"/>
<path d="M10.0001 8.50016C10.429 8.35721 10.6944 7.88716 10.843 7.51091C10.9659 7.19996 10.8561 6.85666 10.5683 6.68656C9.92045 6.30361 8.53775 5.77961 6.3808 6.40601C4.24874 7.02521 3.68553 8.43391 3.54259 9.26356C3.47571 9.65176 3.74001 10.0029 4.1315 10.0464C4.41195 10.0776 4.71961 10.0638 4.90345 9.90771C5.3069 9.56526 5.41615 9.11646 5.8669 8.99571C6.31765 8.87491 6.7065 9.42456 7.1573 9.30381C7.60805 9.18301 7.66995 8.51256 8.1207 8.39181C8.5715 8.27101 9.2501 8.75016 10.0001 8.50016Z" stroke="#333333" stroke-width="2" stroke-linecap="round" stroke-linejoin="round"/>
<path d="M13.5 3.00011C12.2497 3.50011 10.9996 6.00011 11 7.00011L17.5004 4.00012C16.8101 2.80438 14.7502 2.50011 13.5 3.00011Z" stroke="#333333" stroke-width="2" stroke-linecap="round" stroke-linejoin="round"/>
<path d="M9.99999 2.50019C12 3.211 11.6904 5.80449 11.0001 7.00019L5.00024 2.96101C5.50024 2.00019 7.99999 1.78938 9.99999 2.50019Z" stroke="#333333" stroke-width="2" stroke-linecap="round" stroke-linejoin="round"/>
<path d="M13 17.5C17.1421 17.5 19.5 18.3954 19.5 19.5C19.5 20.6046 16.1421 21.5 12 21.5C7.85785 21.5 4.5 20.6046 4.5 19.5C4.5 19.2304 4.70003 18.9733 5.06265 18.7386" stroke="#333333" stroke-width="2" stroke-linecap="round"/>
</svg>
