<svg width="24" height="24" viewBox="0 0 24 24" fill="none" xmlns="http://www.w3.org/2000/svg">
<path d="M4.45981 4.35705C4.24754 3.69469 4.73783 3 5.4334 3H18.5666C19.2621 3 19.7524 3.69469 19.5402 4.35705C18.9496 6.19975 18 9.5447 18 12C18 14.4553 18.9496 17.8003 19.5402 19.643C19.7524 20.3053 19.2621 21 18.5666 21H5.4334C4.73783 21 4.24754 20.3053 4.45981 19.643C5.05035 17.8003 6 14.4553 6 12C6 9.5447 5.05035 6.19975 4.45981 4.35705Z" stroke="#333333" stroke-width="2" stroke-linecap="round" stroke-linejoin="round"/>
<path d="M2 7.5C2.75 8.5 2.99994 10.5 2.99994 12C2.99994 13.5 2.75 15.5 2 16.5" stroke="#333333" stroke-width="2" stroke-linecap="round" stroke-linejoin="round"/>
<path d="M9 7.75H15" stroke="#333333" stroke-width="2" stroke-linecap="round"/>
<path d="M9 12H15" stroke="#333333" stroke-width="2" stroke-linecap="round"/>
<path d="M9 16H11" stroke="#333333" stroke-width="2" stroke-linecap="round"/>
<path d="M22 7.5C21.25 8.5 21 10.5 21 12C21 13.5 21.25 15 22 16.5" stroke="#333333" stroke-width="2" stroke-linecap="round" stroke-linejoin="round"/>
</svg>
