<svg width="24" height="24" viewBox="0 0 24 24" fill="none" xmlns="http://www.w3.org/2000/svg">
<g clip-path="url(#clip0_201_42930)">
<path d="M24 0H0V24H24V0Z" fill="white" fill-opacity="0.01"/>
<path d="M19.9141 10.8928L10.9843 19.8225C9.2772 21.5297 6.46865 21.489 4.71128 19.7316C2.95392 17.9743 2.91322 15.1657 4.62037 13.4586L13.5501 4.52881" stroke="#333333" stroke-width="2" stroke-linecap="round"/>
<path d="M4.36719 13.7118L17.4392 13.3677" stroke="#333333" stroke-width="2" stroke-linecap="round"/>
<path d="M14.6965 10.4537C15.0871 10.0631 15.0871 9.42999 14.6965 9.03949C14.306 8.64894 13.6729 8.64894 13.2823 9.03949C12.8918 9.42999 12.8918 10.0631 13.2823 10.4537C13.6729 10.8442 14.306 10.8442 14.6965 10.4537Z" fill="#333333"/>
<path d="M11.8679 11.8678C12.2585 11.4773 12.2585 10.8441 11.8679 10.4536C11.4774 10.063 10.8442 10.063 10.4537 10.4536C10.0632 10.8441 10.0632 11.4773 10.4537 11.8678C10.8442 12.2583 11.4774 12.2583 11.8679 11.8678Z" fill="#333333"/>
<path d="M11.7822 2.76123L21.6817 12.6607" stroke="#333333" stroke-width="2" stroke-linecap="round"/>
</g>
<defs>
<clipPath id="clip0_201_42930">
<rect width="24" height="24" fill="white"/>
</clipPath>
</defs>
</svg>
