<svg width="24" height="24" viewBox="0 0 24 24" fill="none" xmlns="http://www.w3.org/2000/svg">
<g clip-path="url(#clip0_201_43165)">
<path d="M0 0H24V24H0V0Z" fill="white" fill-opacity="0.01"/>
<path d="M24 0H0V24H24V0Z" fill="white" fill-opacity="0.01"/>
<path d="M6 4.96352V3.5C6 2.67158 6.67155 2 7.5 2H20.5C21.3285 2 22 2.67158 22 3.5V16.5C22 17.3285 21.3285 18 20.5 18H19.0087" stroke="#333333" stroke-width="2"/>
<path d="M17.5 5H3.5C2.67157 5 2 5.67157 2 6.5V20.5C2 21.3284 2.67157 22 3.5 22H17.5C18.3284 22 19 21.3284 19 20.5V6.5C19 5.67157 18.3284 5 17.5 5Z" stroke="#333333" stroke-width="2" stroke-linejoin="round"/>
<path d="M9.2198 11.555L11.8661 8.80021C12.5919 8.07436 13.7847 8.09036 14.5302 8.83591C15.2758 9.58146 15.2918 10.7742 14.566 11.5001L13.6109 12.5115" stroke="#333333" stroke-width="2" stroke-linecap="round" stroke-linejoin="round"/>
<path d="M6.73305 14.3735C6.4779 14.6287 5.9503 15.1382 5.9503 15.1382C5.22445 15.864 5.20475 17.1577 5.9503 17.9032C6.69585 18.6488 7.8886 18.6648 8.61445 17.9389L11.1965 15.5948" stroke="#333333" stroke-width="2" stroke-linecap="round" stroke-linejoin="round"/>
<path d="M9.33155 14.1642C8.98525 13.8179 8.79635 13.3751 8.76605 12.9274C8.7312 12.4113 8.90715 11.8887 9.2958 11.5" stroke="#333333" stroke-width="2" stroke-linecap="round" stroke-linejoin="round"/>
<path d="M11.1609 12.9307C11.9064 13.6762 11.9224 14.869 11.1966 15.5948" stroke="#333333" stroke-width="2" stroke-linecap="round" stroke-linejoin="round"/>
</g>
<defs>
<clipPath id="clip0_201_43165">
<rect width="24" height="24" fill="white"/>
</clipPath>
</defs>
</svg>
