<svg width="24" height="24" viewBox="0 0 24 24" fill="none" xmlns="http://www.w3.org/2000/svg">
<path d="M8.05025 12.9143L19.364 3.01486C19.364 3.01486 20.4247 1.9542 21.4853 3.01486C22.546 4.07552 21.4853 5.1362 21.4853 5.1362L11.5858 16.4499L8.05025 12.9143Z" stroke="#333333" stroke-width="2" stroke-linejoin="round"/>
<path d="M11.2323 10.4395L14.0608 13.2679" stroke="#333333" stroke-width="2" stroke-linecap="round" stroke-linejoin="round"/>
<path d="M2.74702 15.3894L8.0503 12.9146L11.5859 16.4501L9.111 21.7534C9.111 21.7534 6.6361 22.107 4.51479 19.9856C2.39347 17.8643 2.74702 15.3894 2.74702 15.3894Z" stroke="#333333" stroke-width="2" stroke-linejoin="round"/>
<path d="M3.45415 18.2179L5.92905 17.1572" stroke="#333333" stroke-width="2" stroke-linecap="round" stroke-linejoin="round"/>
<path d="M6.2825 21.046L6.9896 19.6318" stroke="#333333" stroke-width="2" stroke-linecap="round" stroke-linejoin="round"/>
<path d="M9.46455 11.677L10.8787 10.4396L12.293 9.20215" stroke="#333333" stroke-width="2" stroke-linejoin="round"/>
<path d="M15.2981 12.207L14.0606 13.6213L12.8232 15.0355" stroke="#333333" stroke-width="2" stroke-linejoin="round"/>
</svg>
