<svg width="24" height="24" viewBox="0 0 24 24" fill="none" xmlns="http://www.w3.org/2000/svg">
<path d="M3.49999 14.5C3.49999 14.5 3.47818 16.3738 4.22818 18.6238C4.6643 19.9322 5.18499 20.7333 5.83934 21.1256C6.67789 21.6283 7.53784 20.6358 8.02894 19.7904C8.51009 18.9623 9.21674 18.1138 9.77389 17.5" stroke="#333333" stroke-width="2" stroke-linecap="round" stroke-linejoin="round"/>
<path d="M16.5001 3.95605C17.8115 4.17555 19.2657 4.45863 19.8129 4.70965C20.5258 5.03671 21.2429 5.70311 21.5286 6.41541C21.7941 7.07741 21.105 7.58541 20.482 7.93261C19.7797 8.32396 19.0476 8.93747 18.4494 9.50016" stroke="#333333" stroke-width="2" stroke-linecap="round" stroke-linejoin="round"/>
<path d="M12.101 14.8883L10.8501 15.7572C10.6213 15.916 10.4418 16.136 10.3321 16.392C10.0101 17.1433 9.14169 17.4933 8.38879 17.1751L4.40151 15.4905C3.66533 15.1794 3.30896 14.3402 3.5964 13.5945L3.8217 13.01C4.26158 11.8688 5.06574 10.9047 6.10939 10.2671" stroke="#333333" stroke-width="2" stroke-linecap="round" stroke-linejoin="round"/>
<path d="M15.3599 12.2541L16.0549 11.5021L16.511 11.0086C16.6685 10.8382 16.8602 10.7028 17.0736 10.6114C17.8754 10.2677 18.272 9.35996 17.9794 8.53811L16.5533 4.53313C16.3154 3.86518 15.6154 3.4809 14.9242 3.63888L14.3148 3.77815C12.9875 4.0815 11.8238 4.87512 11.0568 6.00006" stroke="#333333" stroke-width="2" stroke-linecap="round" stroke-linejoin="round"/>
<path d="M6.70544 11.5395C5.88729 10.9551 5.66549 9.83296 6.19669 8.97926C6.97144 7.73421 8.02589 6.68221 9.27364 5.91186C10.1099 5.39551 11.2019 5.60226 11.7916 6.38851L14.7576 10.3432C15.4368 11.2488 15.2297 12.537 14.3009 13.1842L14.1809 13.2678C14.0305 13.3726 13.8951 13.4976 13.7787 13.6393L13.437 14.0554C12.7691 14.8686 11.5853 15.0251 10.729 14.4135L6.70544 11.5395Z" stroke="#333333" stroke-width="2"/>
</svg>
