<svg width="24" height="24" viewBox="0 0 24 24" fill="none" xmlns="http://www.w3.org/2000/svg">
<g clip-path="url(#clip0_201_43472)">
<path d="M24 0H0V24H24V0Z" fill="white" fill-opacity="0.01"/>
<path fill-rule="evenodd" clip-rule="evenodd" d="M4.30459 18.4935C2.6609 16.6894 1.66096 14.3075 1.66096 11.6959C1.66096 6.06376 6.3092 1.49805 12.043 1.49805C17.777 1.49805 22.4252 6.06376 22.4252 11.6959C22.4252 15.6783 20.1005 19.126 16.712 20.8048C14.6388 21.8857 12.2736 22.4981 9.7629 22.4981C6.68655 22.4981 3.8287 21.5787 1.45874 20.0046C1.45874 20.0046 3.04803 19.8313 4.30418 18.4939L4.30459 18.4935ZM16.9198 16.743C19.6059 14.0571 19.6059 9.70231 16.9198 7.01631C15.6743 5.77091 14.0701 5.10336 12.4397 5.01301V5.01261C12.3905 3.78938 13.049 2.96329 13.0521 2.95926L13.0518 2.95933L13.0522 2.95876C11.1784 3.32073 9.38915 4.22725 7.9382 5.67821C6.82545 6.79091 6.03315 8.10271 5.5608 9.49881C5.62955 9.31666 5.7062 9.13686 5.7907 8.95986C5.69325 9.20856 5.60515 9.46271 5.5255 9.72271C4.73888 12.1107 5.2941 14.8439 7.1932 16.743C9.8792 19.429 14.2339 19.429 16.9198 16.743Z" fill="#333333"/>
<path fill-rule="evenodd" clip-rule="evenodd" d="M8.56494 11.1727V12.0271V12.5963C8.56494 13.1643 9.02544 13.6249 9.59359 13.6249C10.1617 13.6249 10.6221 13.1643 10.6221 12.5963V12.0263V11.1727C10.6221 10.6046 10.1617 10.144 9.59359 10.144C9.02544 10.144 8.56494 10.6046 8.56494 11.1727Z" fill="#333333"/>
<path fill-rule="evenodd" clip-rule="evenodd" d="M13.6565 11.1727V12.0271V12.5963C13.6565 13.1643 14.117 13.6249 14.6851 13.6249C15.2532 13.6249 15.7137 13.1643 15.7137 12.5963V12.0263V11.1727C15.7137 10.6046 15.2532 10.144 14.6851 10.144C14.117 10.144 13.6565 10.6046 13.6565 11.1727Z" fill="#333333"/>
</g>
<defs>
<clipPath id="clip0_201_43472">
<rect width="24" height="24" fill="white"/>
</clipPath>
</defs>
</svg>
