<svg width="24" height="24" viewBox="0 0 24 24" fill="none" xmlns="http://www.w3.org/2000/svg">
<path d="M19.5 3H4.5C3.67157 3 3 3.67157 3 4.5V19.5C3 20.3284 3.67157 21 4.5 21H19.5C20.3284 21 21 20.3284 21 19.5V4.5C21 3.67157 20.3284 3 19.5 3Z" stroke="#333333" stroke-width="2"/>
<path d="M11.6463 5.28267L10.025 6.90397C9.70996 7.21897 9.93306 7.75752 10.3785 7.75752H13.6212C14.0666 7.75752 14.2897 7.21897 13.9747 6.90397L12.3534 5.28267C12.1581 5.08742 11.8415 5.08742 11.6463 5.28267Z" fill="#333333"/>
<path d="M5.28245 12.3538L6.90375 13.9751C7.21875 14.2901 7.7573 14.067 7.7573 13.6215V10.3789C7.7573 9.93349 7.21875 9.71039 6.90375 10.0254L5.28245 11.6467C5.0872 11.8419 5.0872 12.1585 5.28245 12.3538Z" fill="#333333"/>
<path d="M12.3533 18.7175L13.9746 17.0962C14.2896 16.7812 14.0665 16.2427 13.621 16.2427H10.3784C9.93291 16.2427 9.70986 16.7812 10.0248 17.0962L11.6462 18.7175C11.8414 18.9128 12.158 18.9128 12.3533 18.7175Z" fill="#333333"/>
<path d="M18.717 11.6462L17.0957 10.0249C16.7807 9.70992 16.2422 9.93298 16.2422 10.3785V13.6211C16.2422 14.0665 16.7807 14.2896 17.0957 13.9746L18.717 12.3533C18.9123 12.1581 18.9123 11.8415 18.717 11.6462Z" fill="#333333"/>
</svg>
