<svg width="24" height="24" viewBox="0 0 24 24" fill="none" xmlns="http://www.w3.org/2000/svg">
<path d="M5 8H19" stroke="#333333" stroke-width="2" stroke-linecap="round"/>
<path d="M7.07651 9.07125C7.03516 8.4924 7.49366 8 8.07401 8H15.926C16.5064 8 16.9649 8.4924 16.9235 9.07125L16.0664 21.0713C16.029 21.5946 15.5935 22 15.0689 22H8.93111C8.40651 22 7.97106 21.5946 7.93366 21.0713L7.07651 9.07125Z" stroke="#333333" stroke-width="2"/>
<path d="M12 5V3C12 2.44771 12.4477 2 13 2H14.5" stroke="#333333" stroke-width="2" stroke-linecap="round"/>
<path d="M7.36075 5.8356C7.4411 5.3534 7.8583 5 8.34715 5H15.6529C16.1417 5 16.5589 5.3534 16.6392 5.8356L17 8H7L7.36075 5.8356Z" stroke="#333333" stroke-width="2"/>
</svg>
