<svg width="24" height="24" viewBox="0 0 24 24" fill="none" xmlns="http://www.w3.org/2000/svg">
<path d="M17.5 9L15.5597 15.3062C15.5199 15.4354 15.4824 15.5631 15.436 15.6901C15.162 16.4392 13.9413 19.2097 10.5003 20.5C6.50035 22 2.49971 20 2.5 16.0385C2.5003 12.0769 6.5 12.5 8.5 11C10.5 9.5 12.5 6.5 12.5 6.5" stroke="#333333" stroke-width="2"/>
<path d="M19.6272 12.2436C19.6272 12.2436 20.1858 9.58759 20.0005 7.99989C19.748 5.83614 18.7505 4.24989 17.5001 3.4999C16.2497 2.74991 13.6265 2.24989 11.5002 3.49991C9.37385 4.74993 8.4838 6.42249 8.4838 6.42249L12.5872 6.03854C12.8268 6.01614 13.0484 6.16759 13.1145 6.39904L13.8631 9.01909C13.939 9.28464 14.2157 9.43839 14.4812 9.36249L17.1222 8.60789C17.344 8.54449 17.5803 8.64109 17.6943 8.84164L19.6272 12.2436Z" stroke="#333333" stroke-width="2" stroke-linecap="round" stroke-linejoin="round"/>
<path d="M18 4L21 3" stroke="#333333" stroke-width="2" stroke-linecap="round" stroke-linejoin="round"/>
</svg>
