<svg width="24" height="24" viewBox="0 0 24 24" fill="none" xmlns="http://www.w3.org/2000/svg">
<path d="M19.7175 9.02509C20.8891 7.85352 20.8891 5.95403 19.7175 4.78245C18.5459 3.61088 16.6464 3.61088 15.4749 4.78245L6.28248 13.9748C5.11091 15.1464 5.11091 17.0459 6.28248 18.2175C7.45406 19.3891 9.35355 19.3891 10.5251 18.2175L19.7175 9.02509Z" stroke="#333333" stroke-width="2"/>
<path d="M9 11.5L13 15.5" stroke="#333333" stroke-width="2" stroke-linecap="round" stroke-linejoin="round"/>
<path d="M3 21.5L6 18.5" stroke="#333333" stroke-width="2" stroke-linecap="round" stroke-linejoin="round"/>
<path d="M17.866 8.0357C18.1421 7.55741 17.9783 6.94582 17.5 6.66968C17.0217 6.39354 16.4101 6.55741 16.1339 7.0357C15.8578 7.514 16.0217 8.12559 16.5 8.40173C16.9783 8.67787 17.5899 8.514 17.866 8.0357Z" fill="#333333"/>
</svg>
