<svg width="24" height="24" viewBox="0 0 24 24" fill="none" xmlns="http://www.w3.org/2000/svg">
<path d="M4.71949 21H6.3118C6.72625 21 7.09775 20.7444 7.2458 20.3572L8.34595 17.4804L8.35825 14.7176C8.3585 14.6593 8.3639 14.6011 8.3743 14.5437L10.0764 5.14998C10.1876 4.53631 9.71615 3.97168 9.09245 3.97168L5.4317 3.97168C4.86855 3.97168 4.41648 4.43643 4.43206 4.99934L4.69319 14.4351L3.80781 16.0999C3.61171 16.4686 3.66542 16.9204 3.94252 17.2329L4.22344 17.5497L3.74183 19.7898C3.60796 20.4125 4.08257 21 4.71949 21Z" stroke="#333333" stroke-width="2" stroke-linecap="round" stroke-linejoin="round"/>
<path d="M8.3584 14.63L4.69293 14.4351" stroke="#333333" stroke-width="2" stroke-linecap="round" stroke-linejoin="round"/>
<path d="M19.2892 21H17.6991C17.2792 21 16.9041 20.7377 16.7599 20.3434L15.7133 17.4804L15.701 14.7176C15.7007 14.6593 15.6954 14.6011 15.685 14.5438L13.9827 5.14998C13.8715 4.53631 14.343 3.97168 14.9667 3.97168L18.6276 3.9717C19.1907 3.9717 19.6428 4.43646 19.6272 4.99936L19.3661 14.4351L20.2516 16.1C20.4477 16.4687 20.394 16.9205 20.1168 17.233L19.8359 17.5498L20.2711 19.811C20.3898 20.4278 19.9172 21 19.2892 21Z" stroke="#333333" stroke-width="2" stroke-linecap="round" stroke-linejoin="round"/>
<path d="M15.7002 14.6299L19.3657 14.4351" stroke="#333333" stroke-width="2" stroke-linecap="round" stroke-linejoin="round"/>
</svg>
