<svg width="24" height="24" viewBox="0 0 24 24" fill="none" xmlns="http://www.w3.org/2000/svg">
<g clip-path="url(#clip0_201_44992)">
<path d="M24 0H0V24H24V0Z" fill="white" fill-opacity="0.01"/>
<path fill-rule="evenodd" clip-rule="evenodd" d="M2.05556 23C1.47259 23 1 22.5248 1 21.9387V2.06137C1 1.47519 1.47259 1 2.05556 1H21.9445C22.5274 1 23 1.47519 23 2.06137V21.9387C23 22.5248 22.5274 23 21.9445 23C21.2408 23 14.6111 23 2.05556 23Z" stroke="#333333" stroke-width="2" stroke-linecap="round" stroke-linejoin="round"/>
<path fill-rule="evenodd" clip-rule="evenodd" d="M19.3307 8.9436H17.1537H16.8964C16.2214 8.9436 15.6742 9.4908 15.6742 10.1658V12.611H19.3307L18.7952 16.2764H15.6742V23.0001H11.6532V16.2764H8.33334V12.611H11.6103L11.6532 9.1318L11.6412 7.8848C11.6243 6.12395 13.0381 4.68283 14.7989 4.66592C14.8091 4.66582 14.8193 4.66577 14.8295 4.66577H19.3307V8.9436Z" fill="#333333"/>
</g>
<defs>
<clipPath id="clip0_201_44992">
<rect width="24" height="24" fill="white"/>
</clipPath>
</defs>
</svg>
