<svg width="24" height="24" viewBox="0 0 24 24" fill="none" xmlns="http://www.w3.org/2000/svg">
<path d="M17.7143 2.44217C19.8232 2.44217 21.5408 4.15987 21.5408 6.2687V17.7143C21.5408 19.8232 19.8232 21.5408 17.7143 21.5408H6.2687C4.15987 21.5408 2.44217 19.8232 2.44217 17.7143V6.2687C2.44217 4.15987 4.15987 2.44217 6.2687 2.44217H17.7143ZM17.7143 2H6.2687C3.90476 2 2 3.90476 2 6.2687V17.7143C2 20.0783 3.90476 21.983 6.2687 21.983H17.7143C20.0783 21.983 21.983 20.0783 21.983 17.7143V6.2687C22 3.90476 20.0783 2 17.7143 2Z" fill="#333333"/>
<path d="M14.5508 2V6.2007L16.1665 5.2823L17.782 6.2007V2H14.5508Z" fill="#333333"/>
<path d="M12.017 9.14282C7.91835 9.14282 4.27891 10.9286 2 13.6837V17.7143C2 20.0782 3.90476 21.983 6.2687 21.983H17.7143C20.0783 21.983 21.983 20.0782 21.983 17.7143V13.6326C19.7041 10.8945 16.0986 9.14282 12.017 9.14282ZM7.3061 18.8367C6.5578 18.8367 6.2007 18.5646 6.2007 18.2075C6.2007 17.8503 6.5408 17.5612 7.2891 17.5612C8.0374 17.5612 8.9388 18.1905 8.9388 18.1905C8.9388 18.1905 8.0544 18.8367 7.3061 18.8367ZM7.91835 15.6054C7.37415 15.0782 7.32315 14.636 7.57825 14.3809C7.83335 14.1258 8.2755 14.1599 8.81975 14.7041C9.36395 15.2313 9.534 16.3027 9.534 16.3027C9.534 16.3027 8.4456 16.1326 7.91835 15.6054ZM12.017 15.2313C12.017 15.2313 11.3708 14.3639 11.3538 13.5986C11.3538 12.8503 11.6258 12.4932 11.983 12.4932C12.3401 12.4932 12.6292 12.8333 12.6292 13.5816C12.6462 14.3469 12.017 15.2313 12.017 15.2313ZM15.1803 14.6871C15.7245 14.1599 16.1666 14.1258 16.4217 14.3639C16.6768 14.619 16.6258 15.0612 16.0816 15.5884C15.5374 16.1156 14.466 16.2687 14.466 16.2687C14.466 16.2687 14.6361 15.2143 15.1803 14.6871ZM16.6768 18.8367C15.9285 18.8367 15.0442 18.1735 15.0442 18.1735C15.0442 18.1735 15.9285 17.5442 16.6939 17.5442C17.4422 17.5442 17.7993 17.8503 17.7823 18.1905C17.7823 18.5646 17.4251 18.8367 16.6768 18.8367Z" fill="#333333"/>
</svg>
