<svg width="24" height="24" viewBox="0 0 24 24" fill="none" xmlns="http://www.w3.org/2000/svg">
<path d="M12.3397 10.0185C11.7825 9.86919 10.1326 9.33984 7.58504 11.0462C6.06949 12.0613 5.43209 13.6199 5.21714 14.765C5.11494 15.3094 5.57719 15.7484 6.12714 15.6832C6.52514 15.636 6.96684 15.5625 7.30104 15.4495C8.28624 15.1162 8.15689 14.4843 8.65949 13.7231C9.16209 12.9619 10.4259 12.7033 11.4657 13.2805C12.5055 13.8577 12.8388 14.8429 12.6148 15.6788C12.3909 16.5146 11.8883 17.2759 10.6245 17.5345C9.36069 17.7931 8.95274 17.0865 7.63434 16.4346C6.94729 16.0949 6.05114 16.5354 5.50984 16.8839C5.20334 17.0812 5.07634 17.4538 5.20499 17.7948C5.29234 18.0264 5.41254 18.2974 5.56929 18.5689C5.97724 19.2755 7.75824 21.5445 10.0619 21.8631C12.3655 22.1817 14.7638 21.0326 16.1222 19.3062C17.4807 17.5798 17.5207 15.2016 16.5755 13.1566" stroke="#333333" stroke-width="2" stroke-linecap="round" stroke-linejoin="round"/>
<path d="M16.5225 13.21L14.1382 2.07803C14.0847 1.82838 13.8503 1.65541 13.6034 1.72063C13.0226 1.87408 12.2854 2.25924 12.2507 3.15524C12.206 4.30817 12.4329 13.1746 12.7362 14.7836" stroke="#333333" stroke-width="2" stroke-linecap="round" stroke-linejoin="round"/>
</svg>
