<svg width="24" height="24" viewBox="0 0 24 24" fill="none" xmlns="http://www.w3.org/2000/svg">
<g clip-path="url(#clip0_201_45974)">
<path d="M24 0H0V24H24V0Z" fill="white" fill-opacity="0.01"/>
<path d="M15.5 8.50005L14 10.0001M22 2.00003C22 2.00003 16.795 1.10054 15 4.00003C13.6639 6.15835 15.5 8.50005 15.5 8.50005L22 2.00003ZM22 2.00003C22 2.00003 22.8995 7.2051 20 9.00005C17.8417 10.3362 15.5 8.50005 15.5 8.50005L22 2.00003ZM22 2.00003L15.5 8.50005L22 2.00003Z" stroke="#333333" stroke-width="2" stroke-linecap="round" stroke-linejoin="round"/>
<path d="M15.5 15.5L14 14M22 22C22 22 16.795 22.8995 15 20C13.6639 17.8417 15.5 15.5 15.5 15.5L22 22ZM22 22C22 22 22.8995 16.795 20 15C17.8417 13.6639 15.5 15.5 15.5 15.5L22 22ZM22 22L15.5 15.5L22 22Z" stroke="#333333" stroke-width="2" stroke-linecap="round" stroke-linejoin="round"/>
<path d="M8.63185 8.50005L10.1318 10.0001M2.13183 2.00003C2.13183 2.00003 7.3369 1.10054 9.13185 4.00003C10.4679 6.15835 8.63185 8.50005 8.63185 8.50005L2.13183 2.00003ZM2.13183 2.00003C2.13183 2.00003 1.23234 7.2051 4.13183 9.00005C6.29015 10.3362 8.63185 8.50005 8.63185 8.50005L2.13183 2.00003ZM2.13183 2.00003L8.63185 8.50005L2.13183 2.00003Z" stroke="#333333" stroke-width="2" stroke-linecap="round" stroke-linejoin="round"/>
<path d="M8.63185 15.5L10.1318 14M2.13183 22C2.13183 22 7.3369 22.8995 9.13185 20C10.4679 17.8417 8.63185 15.5 8.63185 15.5L2.13183 22ZM2.13183 22C2.13183 22 1.23234 16.795 4.13183 15C6.29015 13.6639 8.63185 15.5 8.63185 15.5L2.13183 22ZM2.13183 22L8.63185 15.5L2.13183 22Z" stroke="#333333" stroke-width="2" stroke-linecap="round" stroke-linejoin="round"/>
</g>
<defs>
<clipPath id="clip0_201_45974">
<rect width="24" height="24" fill="white"/>
</clipPath>
</defs>
</svg>
