<svg width="24" height="24" viewBox="0 0 24 24" fill="none" xmlns="http://www.w3.org/2000/svg">
<g clip-path="url(#clip0_201_46251)">
<path d="M23.76 0H0.240002V23.5468H23.76V0Z" fill="white" fill-opacity="0.01"/>
<path d="M14.1559 13.9158C15.8429 12.2288 14.7792 8.42978 11.78 5.43055C8.78077 2.43133 4.98178 1.36761 3.29471 3.05467C1.60765 4.74174 2.67137 8.54073 5.67059 11.54C8.66982 14.5392 12.4688 15.6029 14.1559 13.9158Z" stroke="#333333" stroke-width="1.92" stroke-linecap="round" stroke-linejoin="round"/>
<path d="M14.1559 9.63104C15.8429 11.3181 14.7792 15.1171 11.78 18.1163C8.78077 21.1156 4.98178 22.1793 3.29472 20.4922C1.60765 18.8051 2.67137 15.0061 5.67059 12.0069C8.66982 9.00769 12.4688 7.94397 14.1559 9.63104Z" stroke="#333333" stroke-width="1.92" stroke-linecap="round" stroke-linejoin="round"/>
<path d="M9.84412 13.9158C8.15706 12.2288 9.22077 8.42978 12.22 5.43055C15.2192 2.43132 19.0182 1.36761 20.7053 3.05467C22.3924 4.74174 21.3286 8.54073 18.3294 11.54C15.3302 14.5392 11.5312 15.6029 9.84412 13.9158Z" stroke="#333333" stroke-width="1.92" stroke-linecap="round" stroke-linejoin="round"/>
<path d="M9.84412 9.63104C8.15706 11.3181 9.22078 15.1171 12.22 18.1163C15.2192 21.1155 19.0182 22.1793 20.7053 20.4922C22.3923 18.8051 21.3286 15.0061 18.3294 12.0069C15.3302 9.00769 11.5312 7.94398 9.84412 9.63104Z" stroke="#333333" stroke-width="1.92" stroke-linecap="round" stroke-linejoin="round"/>
</g>
<defs>
<clipPath id="clip0_201_46251">
<rect width="24" height="24" fill="white"/>
</clipPath>
</defs>
</svg>
