<svg width="24" height="24" viewBox="0 0 24 24" fill="none" xmlns="http://www.w3.org/2000/svg">
<g clip-path="url(#clip0_201_46295)">
<path d="M24 0H0V24H24V0Z" fill="white" fill-opacity="0.01"/>
<path d="M14.6722 15.2384C15.8741 14.9886 16.9646 14.5555 17.8123 13.9197C19.2601 12.8339 20 11.1569 20 9.50006C20 8.33776 19.5593 7.25261 18.7964 6.33351C18.3713 5.82136 19.6148 2.00007 18.51 2.51472C17.4053 3.02937 15.7854 4.16852 14.9363 3.91711C14.0273 3.64795 13.0366 3.50007 12 3.50007C11.0996 3.50007 10.234 3.61163 9.4263 3.81732C8.2523 4.11631 7.12955 3.00007 6 2.51472C4.87043 2.02937 5.4868 5.98171 5.1513 6.39736C4.42059 7.30266 4 8.36451 4 9.50006C4 11.1569 4.89543 12.8339 6.34315 13.9197C7.30755 14.643 8.517 15.1039 9.87005 15.3311" stroke="#333333" stroke-width="2" stroke-linecap="round"/>
<path d="M9.87009 15.3311C9.29084 15.9687 9.00119 16.5741 9.00119 17.1474C9.00119 17.7206 9.00119 19.1733 9.00119 21.5055" stroke="#333333" stroke-width="2" stroke-linecap="round"/>
<path d="M14.6721 15.2384C15.221 15.9588 15.4955 16.6057 15.4955 17.1789C15.4955 17.7522 15.4955 19.1944 15.4955 21.5055" stroke="#333333" stroke-width="2" stroke-linecap="round"/>
<path d="M3 15.6078C3.44943 15.6627 3.78277 15.8694 4 16.2277C4.32585 16.7652 5.5371 18.759 6.91255 18.759C7.82955 18.759 8.52575 18.759 9.0012 18.759" stroke="#333333" stroke-width="2" stroke-linecap="round"/>
</g>
<defs>
<clipPath id="clip0_201_46295">
<rect width="24" height="24" fill="white"/>
</clipPath>
</defs>
</svg>
