<svg width="24" height="24" viewBox="0 0 24 24" fill="none" xmlns="http://www.w3.org/2000/svg">
<path d="M20.677 17.0763L14.7604 4.38802C14.0601 2.8864 12.2752 2.23673 10.7736 2.93695C9.27198 3.63716 8.62233 5.42212 9.32253 6.92372L15.2392 19.612C15.9394 21.1137 17.7243 21.7633 19.226 21.0631C20.7276 20.3629 21.3772 18.578 20.677 17.0763Z" stroke="#333333" stroke-width="2"/>
<path d="M11.7182 13.2678L8.75993 19.612C8.05973 21.1136 6.27478 21.7633 4.77314 21.0631C3.27152 20.3629 2.62186 18.5779 3.32208 17.0763L9.18648 4.5" stroke="#333333" stroke-width="2" stroke-linecap="round"/>
<path d="M4.77303 21.063C6.27465 21.7632 8.05959 21.1136 8.7598 19.6119C9.46002 18.1103 8.81036 16.3254 7.30874 15.6252C5.80712 14.9249 4.02217 15.5746 3.32196 17.0762C2.62174 18.5778 3.27141 20.3628 4.77303 21.063Z" stroke="#333333" stroke-width="2"/>
</svg>
