<svg width="24" height="24" viewBox="0 0 24 24" fill="none" xmlns="http://www.w3.org/2000/svg">
<path d="M9.0983 15.7123C10.6604 17.2744 14.4593 16.008 17.5835 12.8838C20.7077 9.75964 21.9741 5.96064 20.412 4.39856" stroke="#333333" stroke-width="2" stroke-linecap="round" stroke-linejoin="round"/>
<path d="M13.6946 3.33789L14.4017 4.045" stroke="#333333" stroke-width="2" stroke-linecap="round" stroke-linejoin="round"/>
<path d="M11.2196 5.81287L11.9267 6.51997" stroke="#333333" stroke-width="2" stroke-linecap="round" stroke-linejoin="round"/>
<path d="M9.0984 8.64124L9.8055 9.34834" stroke="#333333" stroke-width="2" stroke-linecap="round" stroke-linejoin="round"/>
<path d="M8.39125 12.1768L9.09835 12.8839" stroke="#333333" stroke-width="2" stroke-linecap="round" stroke-linejoin="round"/>
<path d="M17.5836 2.27734L18.2907 2.98445" stroke="#333333" stroke-width="2" stroke-linecap="round" stroke-linejoin="round"/>
<path d="M16.8764 6.5199L18.2907 7.9341" stroke="#333333" stroke-width="2" stroke-linecap="round" stroke-linejoin="round"/>
<path d="M14.4016 8.99475L15.8158 10.409" stroke="#333333" stroke-width="2" stroke-linecap="round" stroke-linejoin="round"/>
<path d="M11.5732 11.1161L12.9874 12.5303" stroke="#333333" stroke-width="2" stroke-linecap="round" stroke-linejoin="round"/>
<path d="M9.09837 17.8336C9.68415 17.2478 9.68415 16.2981 9.09836 15.7123C8.51258 15.1265 7.56283 15.1265 6.97704 15.7123L4.14862 18.5407C3.56283 19.1265 3.56283 20.0762 4.14862 20.662C4.7344 21.2478 5.68415 21.2478 6.26994 20.662L9.09837 17.8336Z" stroke="#333333" stroke-width="2" stroke-linecap="round" stroke-linejoin="round"/>
</svg>
