<svg width="24" height="24" viewBox="0 0 24 24" fill="none" xmlns="http://www.w3.org/2000/svg">
<path d="M19.4237 2.66956C15.9419 3.2835 12.1321 6.10931 10.6569 9.95951C9.04445 14.1681 8.60815 14.6289 6.64185 15.6936C4.75074 16.7176 2.29969 17.5363 2.29969 17.5363" stroke="#333333" stroke-width="2" stroke-linecap="round" stroke-linejoin="round"/>
<path d="M4.81897 16.5535C6.92865 15.2839 9.6729 16.5951 10.9016 17.4555C12.1303 18.3158 13.3797 18.275 14.0966 17.2511C14.8136 16.2272 14.4247 15.0392 13.1959 14.1789C12.3768 13.6053 9.63255 12.2941 10.6569 9.95947" stroke="#333333" stroke-width="2" stroke-linecap="round" stroke-linejoin="round"/>
<path d="M21.5944 4.79993C16.433 6.06901 14.3847 7.68671 12.3767 13.6054" stroke="#333333" stroke-width="2" stroke-linecap="round" stroke-linejoin="round"/>
<path d="M10.4921 17.1687C10.1028 18.0152 9.34475 20.0277 9.4265 21.3057" stroke="#333333" stroke-width="2" stroke-linecap="round" stroke-linejoin="round"/>
</svg>
