<svg width="24" height="24" viewBox="0 0 24 24" fill="none" xmlns="http://www.w3.org/2000/svg">
<path d="M20 11V10.5C20 6.0817 16.4183 2.5 12 2.5C7.5817 2.5 4 6.0817 4 10.5V11" stroke="#333333" stroke-width="2" stroke-linecap="round" stroke-linejoin="round"/>
<path d="M4 17C4 17 3 19.5 5 20.5C7 21.5 17 21.5 19 20.5C21 19.5 20 17 20 17" stroke="#333333" stroke-width="2" stroke-linecap="round" stroke-linejoin="round"/>
<path d="M18 10.5H6C4.067 10.5 2.5 12.067 2.5 14C2.5 15.933 4.067 17.5 6 17.5H18C19.933 17.5 21.5 15.933 21.5 14C21.5 12.067 19.933 10.5 18 10.5Z" stroke="#333333" stroke-width="2" stroke-linecap="round" stroke-linejoin="round"/>
<path d="M5.5 14.5L6.29585 14.1021C7.06175 13.7191 7.9549 13.682 8.75 14L8.96195 14.0848C9.6222 14.3489 10.364 14.3181 11 14C11.636 13.682 12.3778 13.6511 13.038 13.9153L13.5176 14.1071C14.1425 14.357 14.8444 14.3278 15.4464 14.0269C16.1097 13.6952 16.8903 13.6952 17.5536 14.0269L18.5 14.5" stroke="#333333" stroke-width="2" stroke-linecap="round" stroke-linejoin="round"/>
<path d="M8.5 8.77502C9.19036 8.77502 9.75 8.21538 9.75 7.52502C9.75 6.83467 9.19036 6.27502 8.5 6.27502C7.80964 6.27502 7.25 6.83467 7.25 7.52502C7.25 8.21538 7.80964 8.77502 8.5 8.77502Z" fill="#333333"/>
<path d="M11.875 7.40002C12.5654 7.40002 13.125 6.84038 13.125 6.15002C13.125 5.45967 12.5654 4.90002 11.875 4.90002C11.1846 4.90002 10.625 5.45967 10.625 6.15002C10.625 6.84038 11.1846 7.40002 11.875 7.40002Z" fill="#333333"/>
</svg>
