<svg width="24" height="24" viewBox="0 0 24 24" fill="none" xmlns="http://www.w3.org/2000/svg">
<g clip-path="url(#clip0_201_46648)">
<path d="M24 0H0V24H24V0Z" fill="white" fill-opacity="0.01"/>
<path d="M3.52661 5.00011H14.5266V2.00012H3.52661V5.00011Z" stroke="#333333" stroke-width="2" stroke-linejoin="round"/>
<path fill-rule="evenodd" clip-rule="evenodd" d="M14.5266 5.00012C17.7861 8.56157 19.6564 10.6256 20.1375 11.192C20.8592 12.0417 20.5561 13.0021 18.7501 13.0021C16.944 13.0021 15.9024 10.3594 14.5266 10.3594C14.5184 10.3577 14.5178 13.7373 14.5249 20.4981C14.5258 21.3268 13.8547 21.9993 13.0261 22.0001H13.0245C12.1949 22.0001 11.5224 21.3276 11.5224 20.4981V16.4933C7.53601 15.8889 5.36871 15.5555 5.02056 15.4929C4.49829 15.3992 3.52655 14.9007 3.52655 13.4661C3.52655 12.5098 3.52655 10.0211 3.52655 5.00012H14.5266Z" stroke="#333333" stroke-width="2" stroke-linejoin="round"/>
</g>
<defs>
<clipPath id="clip0_201_46648">
<rect width="24" height="24" fill="white"/>
</clipPath>
</defs>
</svg>
