<svg width="24" height="24" viewBox="0 0 24 24" fill="none" xmlns="http://www.w3.org/2000/svg">
<path d="M5.5 12H2V22H5.5V12Z" stroke="#333333" stroke-width="2" stroke-linecap="round" stroke-linejoin="round"/>
<path d="M16.0002 8C15.2503 6.25 18.0002 3 18.0002 3C18.0002 3 20.7501 6.25 20.0002 8C19.2503 9.75 16.75 9.75 16.0002 8Z" stroke="#333333" stroke-width="2" stroke-linecap="round" stroke-linejoin="round"/>
<path d="M15.5 21.25C11 21.25 7.5 20 5.5 20V15C9 15 8.75 13.75 11 13C13.25 12.25 15 13 14.75 14.5C14.5 16 12 17.5 12 17.5C16 17.5 16 16.5 18 15C20 13.5 22 14 22 15.5C22 17 20 21.25 15.5 21.25Z" stroke="#333333" stroke-width="2" stroke-linecap="round" stroke-linejoin="round"/>
</svg>
