<svg width="24" height="24" viewBox="0 0 24 24" fill="none" xmlns="http://www.w3.org/2000/svg">
<g clip-path="url(#clip0_201_46671)">
<path d="M24 0H0V24H24V0Z" fill="white" fill-opacity="0.01"/>
<path d="M5.0133 20.4868V9.48682H2.01331V20.4868H5.0133Z" stroke="#333333" stroke-width="2" stroke-linejoin="round"/>
<path fill-rule="evenodd" clip-rule="evenodd" d="M5.0133 9.48675C8.57475 6.22725 10.6387 4.35697 11.2052 3.87584C12.0549 3.15415 13.0153 3.45719 13.0153 5.26325C13.0153 7.06935 10.3726 8.11095 10.3726 9.48675C10.3709 9.49495 13.7504 9.4955 20.5113 9.4884C21.3399 9.48755 22.0124 10.1586 22.0133 10.9873V10.9889C22.0133 11.8185 21.3408 12.491 20.5112 12.491H16.5065C15.9021 16.4773 15.5686 18.6446 15.5061 18.9928C15.4123 19.5151 14.9138 20.4868 13.4793 20.4868C12.5229 20.4868 10.0343 20.4868 5.0133 20.4868V9.48675Z" stroke="#333333" stroke-width="2" stroke-linejoin="round"/>
</g>
<defs>
<clipPath id="clip0_201_46671">
<rect width="24" height="24" fill="white"/>
</clipPath>
</defs>
</svg>
