<svg width="24" height="24" viewBox="0 0 24 24" fill="none" xmlns="http://www.w3.org/2000/svg">
<path d="M14.1211 5.6361L5.63582 14.1214C5.24529 14.5119 5.24529 15.1451 5.63582 15.5356L8.46425 18.364C8.85477 18.7545 9.48793 18.7546 9.87846 18.364L18.3637 9.87874C18.7543 9.48822 18.7543 8.85505 18.3637 8.46453L15.5353 5.6361C15.1448 5.24558 14.5116 5.24558 14.1211 5.6361Z" stroke="#333333" stroke-width="2" stroke-linejoin="round"/>
<path d="M3.51465 20.4854L7.0502 16.9498" stroke="#333333" stroke-width="2" stroke-linecap="round" stroke-linejoin="round"/>
<path d="M16.9502 7.05031L20.4857 3.51477" stroke="#333333" stroke-width="2" stroke-linecap="round" stroke-linejoin="round"/>
<path d="M7.4043 12.3536L11.6469 16.5963" stroke="#333333" stroke-width="2" stroke-linecap="round" stroke-linejoin="round"/>
<path d="M9.87891 9.87878L14.1216 14.1214" stroke="#333333" stroke-width="2" stroke-linecap="round" stroke-linejoin="round"/>
<path d="M12.3535 7.40381L16.5962 11.6465" stroke="#333333" stroke-width="2" stroke-linecap="round" stroke-linejoin="round"/>
<path d="M6.34375 13.4143L13.4148 6.34326" stroke="#333333" stroke-width="2" stroke-linecap="round" stroke-linejoin="round"/>
<path d="M10.5859 17.6569L17.657 10.5858" stroke="#333333" stroke-width="2" stroke-linecap="round" stroke-linejoin="round"/>
</svg>
