<svg width="24" height="24" viewBox="0 0 24 24" fill="none" xmlns="http://www.w3.org/2000/svg">
<path d="M19.5 3H4.5C3.67158 3 3 3.67158 3 4.5V19.5C3 20.3285 3.67158 21 4.5 21H19.5C20.3285 21 21 20.3285 21 19.5V4.5C21 3.67158 20.3285 3 19.5 3Z" stroke="#333333" stroke-width="2" stroke-linejoin="round"/>
<path d="M12 14.3124V12.3124C13.6568 12.3124 15 10.9693 15 9.31244C15 7.65559 13.6568 6.31244 12 6.31244C10.3432 6.31244 9 7.65559 9 9.31244" stroke="#333333" stroke-width="2" stroke-linecap="round" stroke-linejoin="round"/>
<path fill-rule="evenodd" clip-rule="evenodd" d="M12 18.8124C12.6904 18.8124 13.25 18.2528 13.25 17.5624C13.25 16.8721 12.6904 16.3124 12 16.3124C11.3097 16.3124 10.75 16.8721 10.75 17.5624C10.75 18.2528 11.3097 18.8124 12 18.8124Z" fill="#333333"/>
</svg>
