<svg width="24" height="24" viewBox="0 0 24 24" fill="none" xmlns="http://www.w3.org/2000/svg">
<path d="M5.5888 3.37356L3.15858 5.8923C2.7751 6.28975 2.78643 6.92281 3.18387 7.30629L3.54369 7.65346C3.94114 8.03694 4.5742 8.02562 4.95768 7.62817L7.3879 5.10943C7.77138 4.71199 7.76005 4.07892 7.36261 3.69545L7.00279 3.34827C6.60534 2.96479 5.97228 2.97612 5.5888 3.37356Z" stroke="#333333" stroke-width="2"/>
<path d="M12.7852 10.317L10.355 12.8358C9.97151 13.2332 9.98284 13.8663 10.3803 14.2498L10.7401 14.5969C11.1375 14.9804 11.7706 14.9691 12.1541 14.5717L14.5843 12.0529C14.9678 11.6555 14.9565 11.0224 14.559 10.6389L14.1992 10.2918C13.8018 9.90827 13.1687 9.9196 12.7852 10.317Z" stroke="#333333" stroke-width="2"/>
<path d="M8.42941 4.03001L3.91615 8.70767C3.53267 9.10511 3.544 9.73818 3.94144 10.1217L4.30126 10.4688C4.69871 10.8523 5.33177 10.841 5.71525 10.4435L10.2285 5.76588C10.612 5.36844 10.6007 4.73537 10.2032 4.3519L9.8434 4.00472C9.44596 3.62124 8.81289 3.63257 8.42941 4.03001Z" stroke="#333333" stroke-width="2"/>
<path d="M12.0277 7.50169L7.5144 12.1793C7.13092 12.5768 7.14225 13.2099 7.53969 13.5933L7.89951 13.9405C8.29696 14.324 8.93002 14.3127 9.3135 13.9152L13.8268 9.23756C14.2102 8.84012 14.1989 8.20705 13.8015 7.82358L13.4417 7.4764C13.0442 7.09292 12.4111 7.10425 12.0277 7.50169Z" stroke="#333333" stroke-width="2"/>
<path d="M11.6172 4.32657L4.32655 11.8828C3.94307 12.2802 3.9544 12.9133 4.35184 13.2968L4.71166 13.6439C5.10911 14.0274 5.74217 14.0161 6.12565 13.6186L13.4163 6.06244C13.7998 5.66499 13.7885 5.03193 13.391 4.64845L13.0312 4.30128C12.6337 3.9178 12.0007 3.92912 11.6172 4.32657Z" stroke="#333333" stroke-width="2"/>
<path d="M12.5012 14.2119L14.5843 12.0529L21.7876 19.0031L19.7045 21.162L12.5012 14.2119Z" stroke="#333333" stroke-width="2" stroke-linecap="round" stroke-linejoin="round"/>
<path d="M10.5 20.125C10.5 21.1605 9.60455 22 8.5 22C7.39545 22 6.5 21.1605 6.5 20.125C6.5 19.0895 8.5 17 8.5 17C8.5 17 10.5 19.0895 10.5 20.125Z" stroke="#333333" stroke-width="2" stroke-linejoin="round"/>
</svg>
