<svg width="24" height="24" viewBox="0 0 24 24" fill="none" xmlns="http://www.w3.org/2000/svg">
<g clip-path="url(#clip0_201_47482)">
<path d="M24 0H0V24H24V0Z" fill="white" fill-opacity="0.01"/>
<path d="M12 22.0001C17.5229 22.0001 22 17.5229 22 12.0001C22 6.47725 17.5229 2.00012 12 2.00012C6.47715 2.00012 2 6.47725 2 12.0001C2 17.5229 6.47715 22.0001 12 22.0001Z" stroke="#333333" stroke-width="2"/>
<path d="M3 15.4928C4.31596 16.0205 5.2633 16.0205 5.84195 15.4928C6.70995 14.7012 5.96095 12.2989 7.1766 11.6363C8.3922 10.9738 10.2443 13.9107 11.9754 12.9443C13.7064 11.9779 11.8123 9.40115 13.0136 8.3565C14.2149 7.31185 15.777 8.49 16.0501 6.74325C16.3231 4.99652 14.7761 5.7541 14.4792 4.10346C14.2813 3.00305 14.2813 2.42442 14.4792 2.36755" stroke="#333333" stroke-width="2" stroke-linecap="round"/>
<path d="M14.5105 21.6752C13.5735 20.7162 13.2361 19.8249 13.4985 19.001C13.8921 17.7652 14.5414 17.8382 14.8245 17.0741C15.1075 16.31 14.3079 15.2217 16.0822 14.2913C17.2651 13.6711 18.8916 14.3897 20.9615 16.4472" stroke="#333333" stroke-width="2" stroke-linecap="round"/>
</g>
<defs>
<clipPath id="clip0_201_47482">
<rect width="24" height="24" fill="white"/>
</clipPath>
</defs>
</svg>
