<svg width="24" height="24" viewBox="0 0 24 24" fill="none" xmlns="http://www.w3.org/2000/svg">
<g clip-path="url(#clip0_201_47744)">
<path d="M24 0H0V24H24V0Z" fill="white" fill-opacity="0.01"/>
<path fill-rule="evenodd" clip-rule="evenodd" d="M20.5361 2.99704L1.65561 8.25935L6.19306 12.9063L10.4002 12.9797L15.2416 8.25935C15.1136 7.99715 15.0495 7.7776 15.0495 7.60065C15.0495 7.2037 15.2054 6.8893 15.4476 6.6665C15.8623 6.285 16.3613 6.2279 16.9447 6.49525L20.5361 2.99704Z" fill="#333333"/>
<path fill-rule="evenodd" clip-rule="evenodd" d="M21.0514 3.36426L15.7891 22.2447L11.1422 17.7073L11.0688 13.5002L15.7561 8.74086C16.0101 8.92276 16.2875 9.00531 16.5883 8.98846C17.0396 8.96321 17.3311 8.69071 17.4678 8.53016C17.6046 8.36966 17.765 8.10261 17.7517 7.70571C17.7427 7.44111 17.6558 7.19706 17.491 6.97366L21.0514 3.36426Z" fill="#333333"/>
</g>
<defs>
<clipPath id="clip0_201_47744">
<rect width="24" height="24" fill="white"/>
</clipPath>
</defs>
</svg>
