<svg width="24" height="24" viewBox="0 0 24 24" fill="none" xmlns="http://www.w3.org/2000/svg">
<path d="M18 13C18 9.79585 15.8085 6.5945 13.5 5.7635L12 4L10.5 5.7635C8.1915 6.5945 6 9.79585 6 13C6 16.2041 8.1915 19.4055 10.5 20.2365C10.9769 20.4081 11.48 22 12 22C12.52 22 13.0231 20.4081 13.5 20.2365C15.8085 19.4055 18 16.2041 18 13Z" stroke="#333333" stroke-width="2" stroke-linecap="round" stroke-linejoin="round"/>
<path d="M17.5711 2.11613C18.0767 2.18066 18.3639 2.67821 18.167 3.14835C17.9 3.78583 17.4144 4.62679 16.5981 5.09811C15.7817 5.56936 14.8106 5.56946 14.1251 5.48196C13.6194 5.41741 13.3322 4.91989 13.5291 4.44975C13.7961 3.81227 14.2817 2.97131 15.0981 2.50001C15.9144 2.02872 16.8855 2.02862 17.5711 2.11613Z" stroke="#333333" stroke-width="2"/>
</svg>
