<svg width="24" height="24" viewBox="0 0 24 24" fill="none" xmlns="http://www.w3.org/2000/svg">
<path d="M9 11.4999C9.82845 11.4999 10.5 10.8283 10.5 9.99988C10.5 9.17143 9.82845 8.49988 9 8.49988C8.17155 8.49988 7.5 9.17143 7.5 9.99988C7.5 10.8283 8.17155 11.4999 9 11.4999Z" stroke="#333333" stroke-width="2"/>
<path d="M15 11.4999C15.8285 11.4999 16.5 10.8283 16.5 9.99988C16.5 9.17143 15.8285 8.49988 15 8.49988C14.1715 8.49988 13.5 9.17143 13.5 9.99988C13.5 10.8283 14.1715 11.4999 15 11.4999Z" stroke="#333333" stroke-width="2"/>
<path d="M12 17.4999C13.3807 17.4999 14.5 16.8283 14.5 15.9999C14.5 15.1714 13.3807 14.4999 12 14.4999C10.6193 14.4999 9.5 15.1714 9.5 15.9999C9.5 16.8283 10.6193 17.4999 12 17.4999Z" stroke="#333333" stroke-width="2"/>
<path d="M5.63574 19.0709C6.46474 19.992 7.45469 20.7343 8.55474 21.2411C9.61589 21.73 10.7794 21.9999 11.9997 21.9999C13.2199 21.9999 14.3835 21.73 15.4446 21.2411C16.5447 20.7343 17.5346 19.992 18.3636 19.0709" stroke="#333333" stroke-width="2" stroke-linecap="round"/>
<path d="M20.3174 15.8276C20.7574 14.6485 21.0003 13.3557 21.0003 11.9999C21.0003 10.644 20.7574 9.35117 20.3174 8.17212" stroke="#333333" stroke-width="2" stroke-linecap="round"/>
<path d="M3.68286 8.17212C3.24285 9.35117 3 10.644 3 11.9999C3 13.3557 3.24285 14.6485 3.68286 15.8276" stroke="#333333" stroke-width="2" stroke-linecap="round"/>
<path d="M18.3636 4.92881C17.5346 4.0077 16.5447 3.26544 15.4446 2.75861C14.3835 2.26971 13.2199 1.99988 11.9997 1.99988C9.51439 1.99988 7.26439 3.11917 5.63574 4.92881" stroke="#333333" stroke-width="2" stroke-linecap="round"/>
</svg>
