<svg width="24" height="24" viewBox="0 0 24 24" fill="none" xmlns="http://www.w3.org/2000/svg">
<g clip-path="url(#clip0_201_49238)">
<path d="M24 0H0V24H24V0Z" fill="white" fill-opacity="0.01"/>
<path d="M8.49375 2.00012C8.554 5.12513 8.3923 7.29333 8.0086 8.50468C7.4331 10.3218 3.04102 15.3815 3.04102 18.0511C3.04102 20.7207 6.19325 22.1947 7.8954 21.1894" stroke="#333333" stroke-width="2" stroke-linecap="round"/>
<path d="M16.001 2.00012C15.8887 5.12513 16.0243 7.29333 16.408 8.50468C16.9835 10.3218 21.4795 14.7249 21.4795 17.6463C21.4795 20.5677 18.2233 22.1947 16.5212 21.1894" stroke="#333333" stroke-width="2" stroke-linecap="round"/>
<path d="M6.50296 17.4169C7.35766 16.9308 8.10096 16.9308 8.73286 17.4169C9.68071 18.1461 9.97811 20.0001 12.0042 20.0001C14.0304 20.0001 15.0236 17.9214 16.0001 17.4169C16.6511 17.0806 17.3177 17.0806 18.0001 17.4169" stroke="#333333" stroke-width="2" stroke-linecap="round"/>
<path d="M10.1426 11.0729C9.74571 11.5001 9.32571 11.9767 9.01906 12.807C8.78661 13.4364 8.74016 13.8014 8.70801 14.2121" stroke="#333333" stroke-width="2" stroke-linecap="round"/>
</g>
<defs>
<clipPath id="clip0_201_49238">
<rect width="24" height="24" fill="white"/>
</clipPath>
</defs>
</svg>
