<svg width="24" height="24" viewBox="0 0 24 24" fill="none" xmlns="http://www.w3.org/2000/svg">
<path d="M13.9734 8.41394L20.3784 3.86844C20.8366 3.54331 21.4768 3.70335 21.728 4.20584C21.8928 4.53551 21.844 4.93187 21.6042 5.21174L20.5 6.49989L17.8621 10.0171C17.6394 10.314 17.5995 10.7098 17.7583 11.0452L21.3236 18.5718C21.6378 19.2352 21.1539 19.9999 20.4198 19.9999H16.3182C15.8422 19.9999 15.4323 19.6644 15.338 19.1979L13.7599 11.3868L13.557 9.32754C13.5218 8.97034 13.6807 8.62169 13.9734 8.41394Z" stroke="#333333" stroke-width="2" stroke-linecap="round" stroke-linejoin="round"/>
<path d="M14 11.5L17.5 10.5" stroke="#333333" stroke-width="2" stroke-linecap="round" stroke-linejoin="round"/>
<path d="M9.96794 8.55129L3.60429 4.09776C3.15311 3.78201 2.52692 3.93846 2.27727 4.42931C2.10972 4.75873 2.15905 5.15689 2.40194 5.43544L3.49999 6.69479L6.11614 10.013C6.35129 10.3112 6.39714 10.717 6.23459 11.0602L2.67645 18.5718C2.36219 19.2352 2.84607 19.9999 3.58019 19.9999H7.66099C8.14624 19.9999 8.56144 19.6515 8.64579 19.1737L9.99999 11.4999L10.3763 9.56109C10.4515 9.17339 10.2915 8.77774 9.96794 8.55129Z" stroke="#333333" stroke-width="2" stroke-linecap="round" stroke-linejoin="round"/>
<path d="M6.5 10.5L10 11.5" stroke="#333333" stroke-width="2" stroke-linecap="round" stroke-linejoin="round"/>
</svg>
