<svg width="24" height="24" viewBox="0 0 24 24" fill="none" xmlns="http://www.w3.org/2000/svg">
<g clip-path="url(#clip0_201_49586)">
<path d="M24 0H0V24H24V0Z" fill="white" fill-opacity="0.01"/>
<path fill-rule="evenodd" clip-rule="evenodd" d="M11.5141 18L17.0013 21.4993V12C20.8385 9.3948 22.248 6.98915 21.2299 4.78297C19.7027 1.47373 17.2302 1.69191 15.5034 2.50087C14.3522 3.04018 13.5177 4.54667 12.9999 7.02035C11.4808 3.78734 9.34755 2.17083 6.6001 2.17083C2.47894 2.17083 2.147 7.0324 2.7375 8.223C3.328 9.41365 3.88639 10.0561 6.50035 12C6.46275 17.7816 6.70305 20.8909 7.2213 21.3279C8.17175 22.0642 9.6027 20.9549 11.5141 18Z" stroke="#333333" stroke-width="2" stroke-linejoin="round"/>
<path d="M13.5 12.5V15.5" stroke="#333333" stroke-width="2" stroke-linecap="round"/>
</g>
<defs>
<clipPath id="clip0_201_49586">
<rect width="24" height="24" fill="white"/>
</clipPath>
</defs>
</svg>
