<svg width="24" height="24" viewBox="0 0 24 24" fill="none" xmlns="http://www.w3.org/2000/svg">
<path d="M15.3285 10.7928L17.38 8.74118C18.3808 9.00848 19.493 8.74953 20.2782 7.96433C21.4498 6.79278 21.4498 4.89327 20.2782 3.7217C19.1066 2.55012 17.2071 2.55012 16.0355 3.7217C15.2503 4.50689 14.9914 5.61903 15.2586 6.61988L13.2071 8.67143" stroke="#333333" stroke-width="2" stroke-linecap="round" stroke-linejoin="round"/>
<path d="M20.6317 16.0961L7.90379 3.36816L5.95924 5.31271L9.84834 10.9696L8.43414 13.0909L10.7322 15.389L12.8535 13.9748L18.6872 18.0406L20.6317 16.0961Z" stroke="#333333" stroke-width="2" stroke-linecap="round" stroke-linejoin="round"/>
<path d="M9.6602 10.9423C7.96455 10.4484 6.0588 10.8699 4.72183 12.2069C2.76921 14.1595 2.76921 17.3253 4.72183 19.278C6.67445 21.2306 9.8403 21.2306 11.7929 19.278C13.1298 17.941 13.5514 16.0353 13.0575 14.3396" stroke="#333333" stroke-width="2" stroke-linecap="round" stroke-linejoin="round"/>
</svg>
