<svg width="24" height="24" viewBox="0 0 24 24" fill="none" xmlns="http://www.w3.org/2000/svg">
<path d="M19.2253 11.5086L16.597 10.0049C16.5402 9.97332 16.4707 10.0112 16.4707 10.0807V13.821C16.4707 13.8905 16.5086 13.9474 16.5655 13.9853L19.1938 15.489C19.2507 15.5206 19.3202 15.4827 19.3202 15.4132V11.6729C19.3202 11.6034 19.2822 11.5465 19.2253 11.5086Z" fill="#333333"/>
<path d="M15.5555 9.43733L12.9271 7.93363C12.8703 7.90203 12.8008 7.93993 12.8008 8.00943V13.8283C12.8008 13.8789 12.8387 13.9168 12.8892 13.9168H15.5681C15.6186 13.9168 15.6566 13.8789 15.6566 13.8283V9.60158C15.6502 9.53208 15.6123 9.46893 15.5555 9.43733Z" fill="#333333"/>
<path d="M9.33925 15.4712L11.9675 13.9675C12.0244 13.9359 12.0623 13.8727 12.0623 13.8032V7.58626C12.0623 7.52311 11.9928 7.47886 11.9359 7.51046L9.30765 9.01416C9.2508 9.04576 9.2129 9.10891 9.2129 9.17841V15.3954C9.2129 15.4649 9.2824 15.5028 9.33925 15.4712Z" fill="#333333"/>
<path d="M20.0527 12.1338V13.8397C20.0527 13.8903 20.0906 13.9282 20.1412 13.9282H23.1233C23.2118 13.9282 23.2433 13.8081 23.1675 13.7702L20.1854 12.0643C20.1223 12.0264 20.0527 12.0707 20.0527 12.1338Z" fill="#333333"/>
<path d="M8.34635 9.56376L1.04269 13.7526C0.966879 13.7969 0.998469 13.9106 1.08692 13.9106H8.39055C8.4411 13.9106 8.47905 13.8727 8.47905 13.8221V9.63956C8.4727 9.57006 8.4032 9.53216 8.34635 9.56376Z" fill="#333333"/>
</svg>
