<svg width="24" height="24" viewBox="0 0 24 24" fill="none" xmlns="http://www.w3.org/2000/svg">
<path d="M5.0386 6.71576C7.52355 3.93503 11.8434 5.15741 13.5 6.00006C14.3283 5.68406 16.5986 5.32136 18.0896 6.33251C19.9533 7.59651 22.3014 10.9521 20.1271 15.6919C18.3877 19.4838 13.8445 21.0788 12.1879 21.5001C10.9455 20.9734 8.21515 19.916 5.3033 17.276C2.66287 14.882 1.93249 10.1916 5.0386 6.71576Z" stroke="#333333" stroke-width="2" stroke-linejoin="round"/>
<path d="M13.5 6C12.538 6.375 10.6141 7.125 9.56475 9.375C8.43705 11.793 9.3024 13.875 9.56475 15" stroke="#333333" stroke-width="2" stroke-linecap="round" stroke-linejoin="round"/>
<path d="M10.5 2C10.6666 2.08333 11.75 2.25 12 3.25C12.2186 4.12448 11.8334 4.66667 11.75 5.25" stroke="#333333" stroke-width="2" stroke-linecap="round"/>
<path d="M14.2393 5.66417C13.7625 5.64767 13.4332 5.22742 13.5312 4.76047C13.6664 4.11675 13.9726 3.23831 14.6646 2.69607C15.3566 2.15384 16.2828 2.06666 16.9401 2.0894C17.417 2.10589 17.7463 2.52616 17.6483 2.99311C17.5131 3.63683 17.2069 4.51527 16.5149 5.05752C15.8229 5.59972 14.8967 5.68692 14.2393 5.66417Z" stroke="#333333" stroke-width="2"/>
</svg>
