<svg width="24" height="24" viewBox="0 0 24 24" fill="none" xmlns="http://www.w3.org/2000/svg">
<path d="M13.5 6C13.5 6 16.9997 9.5 16.9998 14C16.9998 18.5 14.7777 22.1114 12.9998 22C11.2219 21.8886 9.49996 18.5 10 14C10.5 9.5 13.5 6 13.5 6Z" stroke="#333333" stroke-width="2" stroke-linecap="round" stroke-linejoin="round"/>
<path d="M13.4999 6.00003C13.4999 6.00003 14.0006 3.93766 15.5001 2.96884C16.9997 2.00002 19.9451 4.50003 19.5 6.00003C19.055 7.50003 17.4998 7.50003 16.9999 6.00003C16.4999 4.50004 19 2.75003 20.5 2.96884C22 3.18764 22.1285 5.58993 22 7.00003C21.7495 9.75003 21 12 21 12" stroke="#333333" stroke-width="2" stroke-linecap="round" stroke-linejoin="round"/>
<path d="M13.5 6.00003C13.5 6.00003 13.5 10 10 14C6.50005 18 3.16273 18.8498 2.0002 17.5C0.837662 16.1502 2.0002 12.5 5.50005 9.00003C8.99985 5.50003 13.5 6.00003 13.5 6.00003Z" stroke="#333333" stroke-width="2" stroke-linecap="round" stroke-linejoin="round"/>
<path d="M13.6216 14.9539C14.312 14.9539 14.8716 14.3942 14.8716 13.7039C14.8716 13.0135 14.312 12.4539 13.6216 12.4539C12.9312 12.4539 12.3716 13.0135 12.3716 13.7039C12.3716 14.3942 12.9312 14.9539 13.6216 14.9539Z" fill="#333333"/>
<path d="M13.1216 18.4539C13.812 18.4539 14.3716 17.8942 14.3716 17.2039C14.3716 16.5135 13.812 15.9539 13.1216 15.9539C12.4312 15.9539 11.8716 16.5135 11.8716 17.2039C11.8716 17.8942 12.4312 18.4539 13.1216 18.4539Z" fill="#333333"/>
</svg>
