<svg width="24" height="24" viewBox="0 0 24 24" fill="none" xmlns="http://www.w3.org/2000/svg">
<path d="M23.5385 0.692383H1.38462V22.8462H23.5385V0.692383Z" fill="white" fill-opacity="0.01"/>
<path d="M23.5385 0.692383H1.38462V22.8462H23.5385V0.692383Z" fill="white" fill-opacity="0.01"/>
<path d="M20.6675 10.2031C20.7842 9.42039 20.7459 8.61911 20.5527 7.84867C20.2975 6.83088 19.7719 5.867 18.976 5.07108C18.1801 4.27516 17.2162 3.7496 16.1985 3.4944C15.428 3.30121 14.6267 3.26294 13.844 3.37961" stroke="#333333" stroke-width="1.84615" stroke-linecap="round" stroke-linejoin="round"/>
<path d="M17.1645 9.83231C17.2895 8.99388 17.0292 8.10911 16.3838 7.46369C15.7384 6.81828 14.8536 6.55802 14.0152 6.683" stroke="#333333" stroke-width="1.84615" stroke-linecap="round" stroke-linejoin="round"/>
<path d="M8.01955 4.75122C8.35486 4.75122 8.66381 4.9331 8.8266 5.22627L9.95571 7.26018C10.1035 7.52648 10.1105 7.84859 9.97426 8.12104L8.88651 10.2965C8.88651 10.2965 9.20174 11.9172 10.521 13.2365C11.8403 14.5558 13.4555 14.8655 13.4555 14.8655L15.6307 13.778C15.9033 13.6416 16.2257 13.6487 16.4921 13.7968L18.5317 14.9308C18.8247 15.0936 19.0063 15.4025 19.0063 15.7376V18.0792C19.0063 19.2717 17.8986 20.1329 16.7688 19.7517C14.4482 18.9687 10.846 17.4778 8.56288 15.1946C6.27969 12.9115 4.78883 9.30931 4.00582 6.98875C3.62458 5.85885 4.48585 4.75122 5.67831 4.75122H8.01955Z" stroke="#333333" stroke-width="1.84615" stroke-linejoin="round"/>
</svg>
