<svg width="24" height="24" viewBox="0 0 24 24" fill="none" xmlns="http://www.w3.org/2000/svg">
<g clip-path="url(#clip0_201_50190)">
<path d="M23.7551 0H0.244904V23.5102H23.7551V0Z" fill="white" fill-opacity="0.01"/>
<path d="M8.56962 3.7644C8.92546 3.7644 9.25333 3.95739 9.42608 4.26853L10.6243 6.42697C10.7812 6.70958 10.7886 7.05141 10.644 7.34054L9.48965 9.64929C9.48965 9.64929 9.82418 11.3692 11.2242 12.7692C12.6243 14.1692 14.3384 14.498 14.3384 14.498L16.6467 13.3438C16.9361 13.1991 17.2781 13.2066 17.5609 13.3638L19.7254 14.5672C20.0363 14.7401 20.229 15.0678 20.229 15.4234V17.9084C20.229 19.1739 19.0536 20.0879 17.8545 19.6832C15.3918 18.8523 11.5691 17.2702 9.14621 14.8472C6.72329 12.4243 5.14111 8.60157 4.31015 6.13892C3.90557 4.93985 4.81958 3.7644 6.08503 3.7644H8.56962Z" stroke="#333333" stroke-width="1.95918" stroke-linejoin="round"/>
</g>
<defs>
<clipPath id="clip0_201_50190">
<rect width="24" height="24" fill="white"/>
</clipPath>
</defs>
</svg>
