<svg width="24" height="24" viewBox="0 0 24 24" fill="none" xmlns="http://www.w3.org/2000/svg">
<path d="M23.5385 0.230713H1.38461V22.3846H23.5385V0.230713Z" fill="white" fill-opacity="0.01"/>
<path d="M24 0.230713H1.84613V22.3846H24V0.230713Z" fill="white" fill-opacity="0.01"/>
<path d="M8.0195 4.75122C8.35485 4.75122 8.6638 4.9331 8.82654 5.22627L9.9557 7.26018C10.1035 7.52648 10.1104 7.84859 9.97425 8.12104L8.8865 10.2966C8.8865 10.2966 9.20168 11.9172 10.521 13.2365C11.8402 14.5558 13.4555 14.8655 13.4555 14.8655L15.6307 13.778C15.9033 13.6416 16.2256 13.6487 16.492 13.7968L18.5317 14.9308C18.8246 15.0936 19.0063 15.4025 19.0063 15.7376V18.0792C19.0063 19.2717 17.8986 20.1329 16.7687 19.7517C14.4482 18.9687 10.846 17.4778 8.56282 15.1946C6.27968 12.9115 4.78882 9.30931 4.0058 6.98875C3.62456 5.85885 4.48583 4.75122 5.6783 4.75122H8.0195Z" stroke="#333333" stroke-width="1.84615" stroke-linejoin="round"/>
<path d="M17.5385 3L21.2308 6.69231L17.5385 10.3846" stroke="#333333" stroke-width="1.84615" stroke-linecap="round" stroke-linejoin="round"/>
<path d="M13.8462 6.69604H21.2308" stroke="#333333" stroke-width="1.84615" stroke-linecap="round" stroke-linejoin="round"/>
</svg>
