<svg width="24" height="24" viewBox="0 0 24 24" fill="none" xmlns="http://www.w3.org/2000/svg">
<g clip-path="url(#clip0_201_50149)">
<path d="M23.5294 0H0.941177V22.5882H23.5294V0Z" fill="white" fill-opacity="0.01"/>
<path d="M24 0H1.41177V22.5882H24V0Z" fill="white" fill-opacity="0.01"/>
<path d="M8.1768 4.60913C8.51868 4.60913 8.8337 4.79458 8.99967 5.09349L10.1509 7.16728C10.3016 7.43881 10.3088 7.76723 10.1698 8.04502L9.06075 10.2632C9.06075 10.2632 9.38217 11.9157 10.7273 13.2608C12.0725 14.6059 13.7193 14.9218 13.7193 14.9218L15.9372 13.8129C16.2152 13.6739 16.5438 13.6811 16.8154 13.8321L18.8951 14.9883C19.1938 15.1543 19.379 15.4692 19.379 15.8109V18.1984C19.379 19.4143 18.2496 20.2925 17.0976 19.9037C14.7315 19.1054 11.0587 17.5853 8.73078 15.2573C6.40283 12.9294 4.88273 9.2566 4.08437 6.89053C3.69565 5.73848 4.57381 4.60913 5.78965 4.60913H8.1768Z" stroke="#333333" stroke-width="1.88235" stroke-linejoin="round"/>
<path d="M14.5882 9.41165L20.7059 3.5293" stroke="#333333" stroke-width="1.88235" stroke-linecap="round" stroke-linejoin="round"/>
<path d="M20.7059 9.41184H14.5882V3.29419" stroke="#333333" stroke-width="1.88235" stroke-linecap="round" stroke-linejoin="round"/>
</g>
<defs>
<clipPath id="clip0_201_50149">
<rect width="24" height="24" fill="white"/>
</clipPath>
</defs>
</svg>
