<svg width="24" height="24" viewBox="0 0 24 24" fill="none" xmlns="http://www.w3.org/2000/svg">
<g clip-path="url(#clip0_201_50196)">
<path d="M24 0H1.41176V22.5882H24V0Z" fill="white" fill-opacity="0.01"/>
<path d="M8.17675 4.60889C8.51868 4.60889 8.83369 4.7943 8.99962 5.09326L10.1509 7.16705C10.3016 7.43858 10.3087 7.767 10.1698 8.04479L9.0607 10.263C9.0607 10.263 9.38212 11.9154 10.7273 13.2606C12.0724 14.6057 13.7193 14.9215 13.7193 14.9215L15.9372 13.8127C16.2152 13.6736 16.5438 13.6808 16.8154 13.8319L18.8951 14.9881C19.1937 15.1541 19.3789 15.469 19.3789 15.8107V18.1982C19.3789 19.4141 18.2496 20.2922 17.0976 19.9035C14.7314 19.1051 11.0587 17.585 8.73073 15.2571C6.40282 12.9292 4.88273 9.25637 4.08434 6.8903C3.69562 5.73825 4.57378 4.60889 5.7896 4.60889H8.17675Z" stroke="#333333" stroke-width="1.88235" stroke-linejoin="round"/>
<path d="M19.7647 7.05891H14.1176V2.35303H19.7647V3.76479L22.1176 2.82362V6.58832L19.7647 5.64715V7.05891Z" stroke="#333333" stroke-width="1.88235" stroke-linecap="round" stroke-linejoin="round"/>
</g>
<defs>
<clipPath id="clip0_201_50196">
<rect width="24" height="24" fill="white"/>
</clipPath>
</defs>
</svg>
