<svg width="24" height="24" viewBox="0 0 24 24" fill="none" xmlns="http://www.w3.org/2000/svg">
<path d="M17 6.5V3C17 2.44771 16.5523 2 16 2H4C3.44771 2 3 2.44771 3 3V17C3 17.5523 3.44771 18 4 18H11.5" stroke="#333333" stroke-width="2" stroke-linecap="round" stroke-linejoin="round"/>
<path d="M14.0003 21.0001C10.5 19.0001 12.1659 16.113 11.4886 15.5001C10.6624 14.7524 10.1937 14.0562 9.9998 13.0001C9.8059 11.944 10.5351 10.7369 11.4887 11.5001C12.4424 12.2632 14 15.5001 14 15.5001L15 14.5001L15.5 9.00006C15.5 9.00006 15 7.00006 15 6.00006C15 5.00006 17 6.50006 18 8.00006C18 13.221 18.7498 18.0001 20.9996 22.0001" stroke="#333333" stroke-width="2" stroke-linecap="round" stroke-linejoin="round"/>
<path d="M12.5 8.7L10.5 5.5L6.5 13.5H10" stroke="#333333" stroke-width="2" stroke-linecap="round" stroke-linejoin="round"/>
<path d="M3 11L6 5.5L8.5 9" stroke="#333333" stroke-width="2" stroke-linecap="round" stroke-linejoin="round"/>
</svg>
