<svg width="24" height="24" viewBox="0 0 24 24" fill="none" xmlns="http://www.w3.org/2000/svg">
<path d="M18.5 22H8.738C8.69365 22 8.65245 21.977 8.62905 21.9394L3.93005 14.3637C3.39557 13.502 3.57237 12.3788 4.34574 11.723C5.3153 10.9008 6.792 11.1518 7.4355 12.2481L8.66665 14.3457V3.97101C8.66665 2.88245 9.5491 2 10.6377 2C11.7262 2 12.6087 2.88245 12.6087 3.97101V8.63545C12.6087 8.9282 12.8408 9.16825 13.1334 9.178L18.9441 9.37215C19.5329 9.3918 20 9.8748 20 10.4639V20.5C20 21.3285 19.3284 22 18.5 22Z" stroke="#333333" stroke-width="2" stroke-linecap="round" stroke-linejoin="round"/>
</svg>
