<svg width="24" height="24" viewBox="0 0 24 24" fill="none" xmlns="http://www.w3.org/2000/svg">
<g clip-path="url(#clip0_201_50496)">
<path d="M24 0H0V24H24V0Z" fill="white" fill-opacity="0.01"/>
<path d="M16.1483 3H7.85176C7.64076 3 7.45246 3.13246 7.38116 3.33107L4.04611 12.6215C4.01593 12.7056 4.00882 12.7963 4.02554 12.8841L4.92259 17.5935C4.96751 17.8294 5.17371 18 5.41376 18H18.5863C18.8263 18 19.0325 17.8294 19.0774 17.5935L19.9745 12.8841C19.9912 12.7963 19.9841 12.7056 19.9539 12.6215L16.6189 3.33107C16.5476 3.13246 16.3593 3 16.1483 3Z" stroke="#333333" stroke-width="2" stroke-linecap="round" stroke-linejoin="round"/>
<path d="M12 18V22" stroke="#333333" stroke-width="2" stroke-linecap="round" stroke-linejoin="round"/>
<path d="M12 6V9" stroke="#333333" stroke-width="2" stroke-linecap="round" stroke-linejoin="round"/>
<path d="M8.25 11.7009L9.75 14.299" stroke="#333333" stroke-width="2" stroke-linecap="round" stroke-linejoin="round"/>
<path d="M15.75 11.7009L14.25 14.299" stroke="#333333" stroke-width="2" stroke-linecap="round" stroke-linejoin="round"/>
</g>
<defs>
<clipPath id="clip0_201_50496">
<rect width="24" height="24" fill="white"/>
</clipPath>
</defs>
</svg>
