<svg width="24" height="24" viewBox="0 0 24 24" fill="none" xmlns="http://www.w3.org/2000/svg">
<g clip-path="url(#clip0_201_50698)">
<path d="M24 0H0V24H24V0Z" fill="white" fill-opacity="0.01"/>
<path d="M0.693276 13.6402C1.67444 18.3397 6.25545 21.376 10.9729 20.4895L10.9699 20.4921C16.4661 19.5944 19.0396 16.2735 21.1315 14.6114C22.2437 13.7278 22.8264 13.2114 23.3965 12.9136C23.3965 12.9134 23.3965 12.9134 23.3965 12.9134C23.0231 12.9765 22.7832 12.8629 22.4611 12.7495C22.1054 12.624 21.6494 12.4986 20.804 12.6106C19.1924 12.8244 17.7823 14.4353 17.7823 14.4353L16.9228 15.1995C15.8926 15.997 14.6689 16.5788 13.3053 16.8611C11.7387 17.1852 10.1827 17.0743 8.7642 16.6112C8.18935 16.4236 7.63755 16.1775 7.1162 15.8796C5.0028 14.6721 3.39804 12.605 2.86312 10.0431C2.54774 8.53331 2.64253 7.03346 3.07099 5.65796C1.05675 7.68231 0.0670503 10.6415 0.693276 13.6402Z" fill="#333333"/>
<path fill-rule="evenodd" clip-rule="evenodd" d="M10.9729 20.4895L10.9699 20.4921C16.4661 19.5944 19.0396 16.2735 21.1315 14.6114C22.2437 13.7278 22.8264 13.2114 23.3965 12.9136C23.0231 12.9765 22.7832 12.8629 22.4611 12.7495C22.1054 12.624 21.6494 12.4986 20.804 12.6106C19.1924 12.8244 17.7823 14.4353 17.7823 14.4353L16.9228 15.1995C15.8926 15.997 14.6689 16.5788 13.3053 16.8611C11.7387 17.1852 10.1827 17.0743 8.7642 16.6112C8.18935 16.4236 7.63755 16.1775 7.1162 15.8796C5.0028 14.6721 3.39804 12.605 2.86312 10.0431C2.54774 8.53331 2.64253 7.03346 3.07099 5.65796C1.05675 7.68231 0.0670503 10.6415 0.693276 13.6402C1.67444 18.3397 6.25545 21.376 10.9729 20.4895Z" fill="#333333"/>
<path fill-rule="evenodd" clip-rule="evenodd" d="M17.8745 14.2928C16.5372 18.9658 11.6483 21.6751 6.95435 20.3437C2.86176 19.1832 0.268865 15.3339 0.557934 11.2691C0.897879 14.4909 3.15623 17.3378 6.4771 18.2796C10.8384 19.5169 15.3811 16.9994 16.6236 12.6571C16.9827 11.4019 17.0267 10.1315 16.8023 8.92985C16.5278 7.4593 15.8515 6.09155 14.859 4.98022C16.1429 5.9919 17.1115 7.3366 17.6702 8.84565C18.2956 10.5344 18.4078 12.429 17.8745 14.2928Z" fill="#333333"/>
<path d="M13.7296 16.234L13.9934 16.6933L14.4214 16.5171L14.8165 16.3409C15.6129 15.9436 15.5754 16.0037 16.5336 15.3692C17.4918 14.7348 17.9976 14.3492 18.7341 13.4622L18.3244 13.1375C17.8402 13.7484 17.3058 14.2066 16.3899 14.813C15.8125 15.1953 14.9248 15.6698 13.7296 16.234Z" fill="#333333"/>
<path fill-rule="evenodd" clip-rule="evenodd" d="M9.34805 3.05884C10.5226 3.05884 11.6627 3.29354 12.7116 3.72619C8.37615 4.94989 5.6367 9.2643 6.4356 13.7213C6.4361 13.7234 6.43645 13.7258 6.43665 13.7279C6.44885 13.7952 6.46175 13.8624 6.4755 13.9295C6.47635 13.934 6.47725 13.9387 6.4783 13.9431C6.4802 13.9523 6.48175 13.9616 6.4837 13.9708C6.4957 14.0283 6.5086 14.0853 6.52165 14.1421C6.5243 14.1531 6.5269 14.1639 6.5295 14.175C6.5349 14.1985 6.5403 14.2221 6.5471 14.2471C6.6358 14.611 6.7472 14.9659 6.87995 15.3103C5.4047 14.2598 4.44063 12.9769 3.82002 11.6407C2.99485 9.86395 2.87505 7.8168 3.51623 5.24085C4.62511 4.27048 5.99315 3.56438 7.541 3.24406C7.66295 3.21862 7.78495 3.19667 7.9069 3.1768C8.3904 3.09735 8.87205 3.05884 9.34805 3.05884ZM2.69265 8.7084L2.69998 8.88385C2.66015 8.3404 2.67176 7.80215 2.73117 7.27455C2.69028 7.76655 2.67698 8.2449 2.69265 8.7084Z" fill="#333333"/>
</g>
<defs>
<clipPath id="clip0_201_50698">
<rect width="24" height="24" fill="white"/>
</clipPath>
</defs>
</svg>
