<svg width="24" height="24" viewBox="0 0 24 24" fill="none" xmlns="http://www.w3.org/2000/svg">
<path d="M11.1965 12.7077C13.5234 14.6602 16.9926 14.3567 18.9451 12.0298C20.8976 9.70285 20.5941 6.23369 18.2672 4.28118C15.9403 2.32867 12.4711 2.63218 10.5186 4.95909C8.56611 7.28601 8.86962 10.7552 11.1965 12.7077Z" stroke="#333333" stroke-width="2" stroke-linecap="round" stroke-linejoin="round"/>
<path d="M19.2665 11.6466C19.2665 11.6466 16.4488 11.8931 13.7677 9.64337C11.0865 7.39357 10.84 4.57593 10.84 4.57593" stroke="#333333" stroke-width="2" stroke-linecap="round" stroke-linejoin="round"/>
<path d="M13.433 13.9317C11.7028 14.438 10.8993 15.3955 10.0958 16.3531C9.29236 17.3106 9.2549 18.911 8.2907 20.0601C7.3265 21.2091 5.9177 21.3324 4.76863 20.3682C3.61956 19.404 3.4963 17.9952 4.46049 16.8461C5.42465 15.6971 6.9942 15.3823 7.7977 14.4247C8.60115 13.4672 9.40466 12.5096 9.60281 10.7178" stroke="#333333" stroke-width="2" stroke-linecap="round" stroke-linejoin="round"/>
<path d="M19.4163 5.24523C19.9488 4.61061 19.866 3.66448 19.2314 3.13198C18.5968 2.59947 17.6506 2.68225 17.1181 3.31686" stroke="#333333" stroke-width="2" stroke-linecap="round" stroke-linejoin="round"/>
</svg>
