<svg width="24" height="24" viewBox="0 0 24 24" fill="none" xmlns="http://www.w3.org/2000/svg">
<g clip-path="url(#clip0_201_51441)">
<path d="M24 0H0V24H24V0Z" fill="white" fill-opacity="0.01"/>
<path d="M12 22C17.5228 22 22 17.5228 22 12C22 6.47715 17.5228 2 12 2C6.47715 2 2 6.47715 2 12C2 17.5228 6.47715 22 12 22Z" stroke="#333333" stroke-width="2" stroke-linecap="round" stroke-linejoin="round"/>
<path d="M12 14C13.1046 14 14 13.1046 14 12C14 10.8954 13.1046 10 12 10C10.8954 10 10 10.8954 10 12C10 13.1046 10.8954 14 12 14Z" stroke="#333333" stroke-width="2" stroke-linecap="round" stroke-linejoin="round"/>
<path d="M22 12C22 13.6844 21.5746 15.3415 20.7631 16.8176C19.9516 18.2936 18.7805 19.5408 17.3583 20.4433L15.215 17.066C16.0683 16.5245 16.771 15.7762 17.2579 14.8905C17.7447 14.0049 18 13.0107 18 12H22Z" stroke="#333333" stroke-width="2" stroke-linecap="round" stroke-linejoin="round"/>
<path d="M6.71165 20.487C5.28205 19.5963 4.10065 18.3588 3.27702 16.8895C2.4534 15.4202 2.01425 13.7667 2.00034 12.0824L6.0002 12.0493C6.00855 13.0599 6.27205 14.0521 6.7662 14.9336C7.2604 15.8152 7.96925 16.5577 8.827 17.0921L6.71165 20.487Z" stroke="#333333" stroke-width="2" stroke-linecap="round" stroke-linejoin="round"/>
<path d="M7.2211 3.21581C8.7007 2.41085 10.3597 1.99268 12.0441 2.0001C13.7284 2.00752 15.3836 2.44028 16.8561 3.25823L14.9136 6.75495C14.0301 6.26415 13.037 6.0045 12.0264 6.00005C11.0158 5.9956 10.0204 6.2465 9.13265 6.7295L7.2211 3.21581Z" stroke="#333333" stroke-width="2" stroke-linecap="round" stroke-linejoin="round"/>
</g>
<defs>
<clipPath id="clip0_201_51441">
<rect width="24" height="24" fill="white"/>
</clipPath>
</defs>
</svg>
