<svg width="24" height="24" viewBox="0 0 24 24" fill="none" xmlns="http://www.w3.org/2000/svg">
<path d="M10.0001 12C10.0001 12 11.2498 9.75 11.4998 7.5C11.7498 5.25 10.9999 3.50001 10.9999 3.50001L13.5 2C13.5 2 13.9996 5 13.9996 6.5" stroke="#333333" stroke-width="2" stroke-linecap="round" stroke-linejoin="round"/>
<path d="M2.99997 21.5C1.99975 20.75 2.00061 18.0447 4.00023 16.5C5.99985 14.9553 6.0929 15.3586 8.5 13.5C10.9071 11.6414 17 2 17 2L19.25 3.75001L13.1552 11.8701C11.6629 13.8583 11.2758 16.5265 10.0254 18.6751C9.05055 20.3502 7.99995 21 6.99995 21.5C5.99995 22 4.00018 22.25 2.99997 21.5Z" stroke="#333333" stroke-width="2" stroke-linecap="round" stroke-linejoin="round"/>
<path d="M11.5001 15C11.5001 15 13 14 14.9999 13C16.9999 12 21.5 12 21.5 12L20 8.5C20 8.5 15.9998 8.5 14.5001 10" stroke="#333333" stroke-width="2" stroke-linecap="round" stroke-linejoin="round"/>
</svg>
