<svg width="24" height="24" viewBox="0 0 24 24" fill="none" xmlns="http://www.w3.org/2000/svg">
<path d="M10.3923 9.36503C10.5326 9.22468 10.7602 9.22468 10.9005 9.36503L14.6349 13.0994C14.7753 13.2398 14.7753 13.4673 14.6349 13.6077L8.8787 19.364C7.7071 20.5355 5.8076 20.5355 4.63604 19.364C3.46446 18.1924 3.46446 16.2929 4.63604 15.1213L10.3923 9.36503Z" stroke="#333333" stroke-width="2"/>
<path d="M21.2906 11.1948C21.4651 11.0203 21.4651 10.7374 21.2906 10.5629L13.4372 2.70948C13.2627 2.53499 12.9798 2.53499 12.8054 2.70948L12.4142 3.10065C10.071 5.44381 10.071 9.24276 12.4142 11.5859C14.7573 13.9291 18.5563 13.9291 20.8995 11.5859L21.2906 11.1948Z" stroke="#333333" stroke-width="2"/>
<path d="M9.93934 14.0605L9.23224 14.7676" stroke="#333333" stroke-width="2" stroke-linecap="round" stroke-linejoin="round"/>
<path d="M13.8285 8.75732L15.2427 10.1716" stroke="#333333" stroke-width="2" stroke-linecap="round" stroke-linejoin="round"/>
</svg>
