<svg width="24" height="24" viewBox="0 0 24 24" fill="none" xmlns="http://www.w3.org/2000/svg">
<path d="M22 19.9102H2L18.27 10.9102H22V19.9102Z" stroke="#333333" stroke-width="2" stroke-miterlimit="2" stroke-linecap="round" stroke-linejoin="round"/>
<path d="M1.92883 9.60061L3.54486 10.3996L12.2051 5.39961L12.3211 3.60059" stroke="#333333" stroke-width="2" stroke-miterlimit="2" stroke-linecap="round" stroke-linejoin="round"/>
<path d="M6.165 12.4399C6.9934 12.4399 7.665 11.7684 7.665 10.9399C7.665 10.1115 6.9934 9.43994 6.165 9.43994C5.33655 9.43994 4.66498 10.1115 4.66498 10.9399C4.66498 11.7684 5.33655 12.4399 6.165 12.4399Z" fill="#333333"/>
<path d="M11.725 9.43994C12.5534 9.43994 13.225 8.76839 13.225 7.93994C13.225 7.11154 12.5534 6.43994 11.725 6.43994C10.8966 6.43994 10.225 7.11154 10.225 7.93994C10.225 8.76839 10.8966 9.43994 11.725 9.43994Z" fill="#333333"/>
</svg>
