<svg width="24" height="24" viewBox="0 0 24 24" fill="none" xmlns="http://www.w3.org/2000/svg">
<g clip-path="url(#clip0_201_52299)">
<path d="M24 0H0V24H24V0Z" fill="white" fill-opacity="0.01"/>
<path fill-rule="evenodd" clip-rule="evenodd" d="M12.0001 22.5C13.6104 22.5 16.3637 20.4 16.3637 12C16.3637 3.6 13.6104 1.5 12.0001 1.5C10.3898 1.5 7.63644 3.74151 7.63644 12C7.63644 20.2585 10.3898 22.5 12.0001 22.5Z" stroke="#333333" stroke-width="2" stroke-linecap="round" stroke-linejoin="round"/>
<path fill-rule="evenodd" clip-rule="evenodd" d="M2.5525 17.5002C3.35765 18.9063 6.62385 20.2107 14.1819 15.8107C21.7399 11.4107 22.2528 7.9063 21.4476 6.50015C20.6425 5.094 17.249 3.86376 9.81825 8.18965C2.38753 12.5155 1.74737 16.094 2.5525 17.5002Z" stroke="#333333" stroke-width="2" stroke-linecap="round" stroke-linejoin="round"/>
<path fill-rule="evenodd" clip-rule="evenodd" d="M2.55244 6.50015C1.74731 7.9063 2.26014 11.4107 9.81819 15.8107C17.3762 20.2107 20.6424 18.9063 21.4475 17.5002C22.2527 16.094 21.6125 12.5155 14.1818 8.18965C6.75109 3.86376 3.35759 5.094 2.55244 6.50015Z" stroke="#333333" stroke-width="2" stroke-linecap="round" stroke-linejoin="round"/>
</g>
<defs>
<clipPath id="clip0_201_52299">
<rect width="24" height="24" fill="white"/>
</clipPath>
</defs>
</svg>
