<svg width="24" height="24" viewBox="0 0 24 24" fill="none" xmlns="http://www.w3.org/2000/svg">
<path d="M14.5 7C15.8807 7 17 5.8807 17 4.5C17 3.11929 15.8807 2 14.5 2C13.1193 2 12 3.11929 12 4.5C12 5.8807 13.1193 7 14.5 7Z" stroke="#333333" stroke-width="2" stroke-miterlimit="2"/>
<path d="M9.5 23C10.3284 23 11 22.3284 11 21.5C11 20.6715 10.3284 20 9.5 20C8.67155 20 8 20.6715 8 21.5C8 22.3284 8.67155 23 9.5 23Z" fill="#333333"/>
<path d="M12.19 9.45508L10 13.5001L13.655 16.5101C13.81 16.6301 13.92 16.7951 13.985 16.9801L15.5 22.0001" stroke="#333333" stroke-width="2" stroke-miterlimit="2" stroke-linecap="round" stroke-linejoin="round"/>
<path d="M10 13.5L7.255 17.32C6.985 17.715 6.475 17.865 6.035 17.68L2 16" stroke="#333333" stroke-width="2" stroke-miterlimit="2" stroke-linecap="round" stroke-linejoin="round"/>
<path d="M21 12.0002H17.5C17.32 12.0002 17.14 11.9552 16.98 11.8652L15.375 10.9602C13.37 9.78518 11.175 8.98018 8.89 8.57018L7.28 8.28518C7.055 8.24518 6.82 8.28518 6.62 8.39518L3.5 10.0002" stroke="#333333" stroke-width="2" stroke-miterlimit="2" stroke-linecap="round" stroke-linejoin="round"/>
</svg>
