<svg width="24" height="24" viewBox="0 0 24 24" fill="none" xmlns="http://www.w3.org/2000/svg">
<path d="M20.0001 9C18.5001 9 16.0003 9 15.0002 11.5C14 14 15.2501 16.25 16.5001 17.5" stroke="#333333" stroke-width="2" stroke-linecap="round" stroke-linejoin="round"/>
<path d="M9 5H20" stroke="#333333" stroke-width="2" stroke-linecap="round" stroke-linejoin="round"/>
<path d="M10 2H19.0001C19.5524 2 20.0001 2.44771 20.0001 3V12.1438C20.0001 13.8599 19.1998 15.4777 17.832 16.5142C16.011 17.8941 13.5439 19.7544 12.5 20.5C10.75 21.75 7.5 23 5.00015 20.5C2.50028 18 3.12533 14.7215 5.00025 13C6.87515 11.2785 9 9.57595 9 9.57595V3C9 2.44771 9.4477 2 10 2Z" stroke="#333333" stroke-width="2" stroke-linecap="round" stroke-linejoin="round"/>
</svg>
