<svg width="24" height="24" viewBox="0 0 24 24" fill="none" xmlns="http://www.w3.org/2000/svg">
<g clip-path="url(#clip0_201_52524)">
<path d="M24 0H0V24H24V0Z" fill="white" fill-opacity="0.01"/>
<path fill-rule="evenodd" clip-rule="evenodd" d="M9.1187 12.2373C10.0466 12.887 10.2836 13.5744 10.9229 14.0221C11.6228 14.5121 12.3965 14.7723 13.0074 14.5297C14.1609 14.0717 14.9954 12.5754 16.0132 11.1219C17.993 8.29435 17.9898 3.92944 16.1433 2.6365C14.2968 1.34357 10.2217 2.85279 8.24185 5.6803C7.2744 7.062 6.00735 8.90285 6.0836 9.6816C6.14785 10.3373 6.3683 10.7025 7.06245 11.3189C7.7566 11.9353 8.12845 11.5439 9.1187 12.2373Z" stroke="#333333" stroke-width="2"/>
<path d="M6.80875 11.1587C5.03845 13.1075 4.80467 14.5883 6.10735 15.6012C7.41005 16.614 9.0459 16.1149 11.0148 14.1038" stroke="#333333" stroke-width="2" stroke-linecap="round"/>
<path d="M6.1193 15.6138C4.5709 17.3074 4.28611 18.8868 5.26495 20.352C6.73315 22.5499 9.6419 22.4298 11.062 20.7915C12.4821 19.1532 15.1541 15.0935 18.0915 15.928C21.0289 16.7626 20.5303 19.972 18.561 20.3092" stroke="#333333" stroke-width="2" stroke-linecap="round"/>
</g>
<defs>
<clipPath id="clip0_201_52524">
<rect width="24" height="24" fill="white"/>
</clipPath>
</defs>
</svg>
