<svg width="24" height="24" viewBox="0 0 24 24" fill="none" xmlns="http://www.w3.org/2000/svg">
<path d="M16.5 12C18.25 13.5 18.8064 16.2231 17.941 18.2422C17.0757 20.2614 15.0565 21.9921 12.749 22.2805C10.4414 22.569 8.1338 20.8383 7.5569 20.2614C7.33515 20.0397 7.14895 19.809 7.0046 19.6079C6.7921 19.3118 6.81835 18.919 7.06335 18.6491C7.496 18.1725 8.24755 17.515 8.99915 17.6653C10.4414 17.9538 10.9831 18.4543 12.1721 17.9538C13.25 17.5 13.6143 16.5115 13.6143 15.6462C13.6143 14.7808 13.0374 13.9155 11.8836 13.627C10.7298 13.3386 9.57605 13.9155 9.2876 14.7808C8.99915 15.6462 9.2876 16.2231 8.42225 16.8C8.1287 16.9957 7.72105 17.181 7.34885 17.3296C6.83445 17.5349 6.27435 17.2305 6.2322 16.6782C6.14345 15.5165 6.35575 13.846 7.5569 12.4733C8.1798 11.7613 8.76255 11.2771 9.2876 10.9478" stroke="#333333" stroke-width="2" stroke-linecap="round" stroke-linejoin="round"/>
<path d="M16.5 11.9998L11.5639 2.11999C11.449 1.88997 11.176 1.78143 10.953 1.90954C10.4326 2.20863 9.82345 2.77088 10.0214 3.64328C10.2766 4.76849 11.7901 10.0241 12.4995 11.4998" stroke="#333333" stroke-width="2" stroke-linecap="round" stroke-linejoin="round"/>
<path d="M11.2495 8.50012L7.8149 5.24017C7.6344 5.06887 7.3522 5.05397 7.18235 5.23587C6.77145 5.67602 6.3453 6.40227 6.80065 7.18342C7.38175 8.18022 8.88055 10.3052 10 11.5001" stroke="#333333" stroke-width="2" stroke-linecap="round" stroke-linejoin="round"/>
</svg>
