<svg width="24" height="24" viewBox="0 0 24 24" fill="none" xmlns="http://www.w3.org/2000/svg">
<path d="M21 17.5V21.5H3V17.5H15.5" stroke="#333333" stroke-width="2" stroke-linecap="round" stroke-linejoin="round"/>
<path d="M19.192 10.903L4.15687 5.43066L2.78879 9.18941L14.8767 13.5891" stroke="#333333" stroke-width="2" stroke-linecap="round" stroke-linejoin="round"/>
<path d="M4.18481 5.38899L11.441 8.07904C11.449 8.08199 11.4578 8.07794 11.4608 8.06999C11.9681 6.70159 11.27 5.18104 9.90165 4.67376L5.1507 2.91248C5.1275 2.90387 5.1017 2.91571 5.0931 2.93892L4.18481 5.38899Z" stroke="#333333" stroke-width="2" stroke-linecap="round" stroke-linejoin="round"/>
<path d="M8.37726 11.3599L7.69326 13.2393C7.59881 13.4988 7.31186 13.6326 7.05236 13.5381L3.76345 12.3411C3.50396 12.2466 3.37017 11.9597 3.46462 11.7002L4.14866 9.8208" stroke="#333333" stroke-width="2" stroke-linecap="round" stroke-linejoin="round"/>
<path d="M18 18.5C19.933 18.5 21.5 16.933 21.5 15C21.5 13.067 19.933 11.5 18 11.5C16.067 11.5 14.5 13.067 14.5 15C14.5 16.933 16.067 18.5 18 18.5Z" stroke="#333333" stroke-width="2"/>
</svg>
