<svg width="24" height="24" viewBox="0 0 24 24" fill="none" xmlns="http://www.w3.org/2000/svg">
<path d="M12 21.5C17.2467 21.5 21.5 17.2467 21.5 12C21.5 6.75329 17.2467 2.5 12 2.5C6.75329 2.5 2.5 6.75329 2.5 12C2.5 17.2467 6.75329 21.5 12 21.5Z" stroke="#333333" stroke-width="2"/>
<path d="M18.0031 12.2967V12.2967C18.0031 10.8444 16.8258 9.66699 15.3734 9.66699H8.62661C7.17426 9.66699 5.99689 10.8444 5.99689 12.2967V12.2967C5.99689 13.7491 7.17426 14.9264 8.62661 14.9264H15.3734C16.8258 14.9264 18.0031 13.7491 18.0031 12.2967Z" stroke="#333333" stroke-width="2"/>
<path d="M13.0031 12.4263C13.0031 13.807 14.1224 14.9263 15.5031 14.9263C16.8839 14.9263 18.0031 13.807 18.0031 12.4263C18.0031 11.0456 16.8839 9.92627 15.5031 9.92627C14.1224 9.92627 13.0031 11.0456 13.0031 12.4263Z" stroke="#333333" stroke-width="2"/>
</svg>
