<svg width="24" height="24" viewBox="0 0 24 24" fill="none" xmlns="http://www.w3.org/2000/svg">
<path d="M8 14H4C3.44771 14 3 14.4477 3 15V22" stroke="#333333" stroke-width="2" stroke-linejoin="round"/>
<path d="M16 14H20C20.5523 14 21 14.4477 21 15V22" stroke="#333333" stroke-width="2" stroke-linejoin="round"/>
<path d="M9.99995 12H13.9999C13.9999 12 16.5828 9.16075 15.9999 7.5C15.6225 6.4247 14.781 5.82985 13.9999 5C13.2189 4.17014 11.9999 3 11.9999 3C11.9999 3 10.781 4.17014 9.99995 5C9.2189 5.82985 8.37735 6.4247 7.99995 7.5C7.4171 9.16075 9.99995 12 9.99995 12Z" stroke="#333333" stroke-width="2" stroke-linejoin="round"/>
<path d="M2 22H22" stroke="#333333" stroke-width="2" stroke-linecap="round" stroke-linejoin="round"/>
<path d="M8 12H12H16V22H8V12Z" stroke="#333333" stroke-width="2" stroke-linecap="round" stroke-linejoin="round"/>
<path d="M12 17V22" stroke="#333333" stroke-width="2" stroke-linecap="round"/>
<path d="M12 2V3.5" stroke="#333333" stroke-width="2" stroke-linecap="round"/>
<path d="M5 12V14" stroke="#333333" stroke-width="2" stroke-linecap="round"/>
<path d="M19 12V14" stroke="#333333" stroke-width="2" stroke-linecap="round"/>
<path d="M10 22H14" stroke="#333333" stroke-width="2" stroke-linecap="round"/>
</svg>
