<svg width="24" height="24" viewBox="0 0 24 24" fill="none" xmlns="http://www.w3.org/2000/svg">
<g clip-path="url(#clip0_201_53069)">
<path d="M24 0H0V24H24V0Z" fill="white" fill-opacity="0.01"/>
<path d="M2 6C2 5.4477 2.44771 5 3 5H5H19H21C21.5523 5 22 5.4477 22 6V18C22 18.5523 21.5523 19 21 19H3C2.44771 19 2 18.5523 2 18V6Z" stroke="#333333" stroke-width="2" stroke-linejoin="round"/>
<path fill-rule="evenodd" clip-rule="evenodd" d="M7.13504 5C6.28719 5 5.82404 5.98885 6.36679 6.6402L7.20014 7.6402C7.39014 7.8682 7.67159 8 7.96834 8H12H16.0316C16.3284 8 16.6098 7.8682 16.7998 7.6402L17.6332 6.6402C18.1759 5.98885 17.7128 5 16.8649 5H7.13504Z" stroke="#333333" stroke-width="2" stroke-linecap="round" stroke-linejoin="round"/>
<path d="M3 5H5H19H21" stroke="#333333" stroke-width="2" stroke-linecap="round" stroke-linejoin="round"/>
<path d="M16.5 15.5C17.6046 15.5 18.5 14.6046 18.5 13.5C18.5 12.3954 17.6046 11.5 16.5 11.5C15.3954 11.5 14.5 12.3954 14.5 13.5C14.5 14.6046 15.3954 15.5 16.5 15.5Z" stroke="#333333" stroke-width="2" stroke-linejoin="round"/>
<path d="M7.5 15.5C8.60455 15.5 9.5 14.6046 9.5 13.5C9.5 12.3954 8.60455 11.5 7.5 11.5C6.39545 11.5 5.5 12.3954 5.5 13.5C5.5 14.6046 6.39545 15.5 7.5 15.5Z" stroke="#333333" stroke-width="2" stroke-linejoin="round"/>
</g>
<defs>
<clipPath id="clip0_201_53069">
<rect width="24" height="24" fill="white"/>
</clipPath>
</defs>
</svg>
