<svg width="24" height="24" viewBox="0 0 24 24" fill="none" xmlns="http://www.w3.org/2000/svg">
<path d="M5.5 20.0001L3.39612 15.4417C2.8802 14.3239 3.2549 12.9969 4.27926 12.3139L5.2314 11.6792C5.3949 11.5702 5.6071 11.5671 5.77375 11.6712L6 11.8126L5.06455 4.97226C5.0232 4.66978 5.10275 4.36317 5.2859 4.11893C5.5422 3.77718 6.02705 3.70792 6.3688 3.96423L6.43535 4.01415C6.6404 4.16796 6.7948 4.37958 6.87865 4.62182L8.9345 10.561C8.9737 10.6742 9.08035 10.7501 9.20015 10.7501C9.36255 10.7501 9.49115 10.613 9.4807 10.4509L9.03925 3.60879C9.0143 3.2219 9.15715 2.84301 9.43125 2.56887C9.75505 2.24509 10.2705 2.21655 10.628 2.50259L10.7983 2.63878C11.089 2.87134 11.2828 3.2037 11.3421 3.57123L12.4614 10.5112C12.4836 10.6489 12.6025 10.7501 12.742 10.7501C12.8883 10.7501 13.0107 10.639 13.0248 10.4933L13.6889 3.63102C13.728 3.2277 13.9285 2.85733 14.2449 2.6042L14.3481 2.52161C14.7192 2.22474 15.2542 2.25436 15.5902 2.5904C15.8526 2.85275 16 3.20858 16 3.57961V9.95579C16 9.98529 16.0025 10.0143 16.0087 10.0431C16.0645 10.3002 16.4037 11.6347 17.5 12.0001C17.9537 12.1514 18.6819 13.4005 19.1864 14.3638C19.5565 15.0704 19.521 15.9123 19.1336 16.6096L17.25 20.0001C17.25 20.0001 15.5 22.0001 11.5 22.0001C7.5 22.0001 5.83335 20.6668 5.5 20.0001Z" stroke="#333333" stroke-width="2" stroke-linecap="round" stroke-linejoin="round"/>
</svg>
