<svg width="24" height="24" viewBox="0 0 24 24" fill="none" xmlns="http://www.w3.org/2000/svg">
<g clip-path="url(#clip0_201_53348)">
<path d="M24 0H0V24H24V0Z" fill="white" fill-opacity="0.01"/>
<path d="M24 0H0V24H24V0Z" fill="white" fill-opacity="0.01"/>
<path d="M10.1898 14.7001V18.3001C10.1898 19.7913 11.3986 21.0001 12.8898 21.0001L16.4898 12.9001V3.00012H6.03175C5.1342 2.98997 4.36634 3.64265 4.23176 4.53012L2.98976 12.6301C2.91051 13.1523 3.06455 13.6828 3.41109 14.0814C3.75762 14.4799 4.26168 14.7061 4.78976 14.7001H10.1898Z" stroke="#333333" stroke-width="2" stroke-linejoin="round"/>
<path d="M16.4897 2.99984H18.8927C19.9471 2.9812 20.8484 3.75486 20.9897 4.79984V11.0998C20.8484 12.1448 19.9471 13.0185 18.8927 12.9998H16.4897V2.99984Z" stroke="#333333" stroke-width="2" stroke-linejoin="round"/>
</g>
<defs>
<clipPath id="clip0_201_53348">
<rect width="24" height="24" fill="white"/>
</clipPath>
</defs>
</svg>
