<svg width="24" height="24" viewBox="0 0 24 24" fill="none" xmlns="http://www.w3.org/2000/svg">
<g clip-path="url(#clip0_201_53401)">
<path d="M24 0H0V24H24V0Z" fill="white" fill-opacity="0.01"/>
<path d="M10.6791 9.56985C7.7348 9.4278 5.6882 10.4775 4.53931 12.7191C2.81597 16.0814 4.24025 21.5831 9.98955 21.5831C15.7388 21.5831 15.9052 16.0276 15.9052 15.4456C15.9052 15.0575 15.9052 12.8881 15.9052 8.93715C17.1349 9.71605 18.1716 10.1849 19.0155 10.3437C19.8594 10.5025 20.3959 10.5729 20.625 10.5549V7.317C19.8444 7.2229 19.1694 7.04355 18.6 6.77895C17.7458 6.382 16.052 5.28045 16.052 3.66592C16.0532 3.67381 16.0532 3.25734 16.052 2.4165H12.493C12.4824 10.3245 12.4824 14.6675 12.493 15.4456C12.5089 16.6126 11.6035 18.2451 9.7679 18.2451C7.93225 18.2451 7.0269 16.6139 7.0269 15.5618C7.0269 14.9177 7.2481 13.9841 8.16265 13.2927C8.705 12.8828 9.45775 12.7191 10.6791 12.7191C10.6791 12.3413 10.6791 11.2915 10.6791 9.56985Z" stroke="#333333" stroke-width="2" stroke-linejoin="round"/>
</g>
<defs>
<clipPath id="clip0_201_53401">
<rect width="24" height="24" fill="white"/>
</clipPath>
</defs>
</svg>
