<svg width="24" height="24" viewBox="0 0 24 24" fill="none" xmlns="http://www.w3.org/2000/svg">
<g clip-path="url(#clip0_201_53488)">
<path d="M24 0H0V24H24V0Z" fill="white" fill-opacity="0.01"/>
<path d="M9.99945 5H13.9995V11H9.99945V5Z" stroke="#333333" stroke-width="2" stroke-linecap="round" stroke-linejoin="round"/>
<path d="M8.5 17.5L6 22H5.99945H17.9995L15.5 17.5" stroke="#333333" stroke-width="2" stroke-linecap="round" stroke-linejoin="round"/>
<path d="M16.9995 11V2.5C16.9995 2.22386 16.7756 2 16.4995 2H7.49945C7.2233 2 6.99945 2.22386 6.99945 2.5V11" stroke="#333333" stroke-width="2" stroke-linecap="round" stroke-linejoin="round"/>
<path d="M3.03991 11.182C3.01915 11.0886 3.09023 11 3.18591 11H20.813C20.9087 11 20.9798 11.0886 20.959 11.182C20.347 13.9361 18.6417 16.4079 15.9593 17.282C14.7174 17.6867 13.3274 18 12 18C10.6724 18 9.28206 17.6867 8.03976 17.2819C5.35736 16.4077 3.65192 13.9361 3.03991 11.182Z" stroke="#333333" stroke-width="2"/>
</g>
<defs>
<clipPath id="clip0_201_53488">
<rect width="24" height="24" fill="white"/>
</clipPath>
</defs>
</svg>
