<svg width="24" height="24" viewBox="0 0 24 24" fill="none" xmlns="http://www.w3.org/2000/svg">
<path d="M2 22H22" stroke="#333333" stroke-width="2" stroke-linecap="round" stroke-linejoin="round"/>
<path d="M10.6246 3.7373L18.352 5.80783L14 22H5.49994L10.6246 3.7373Z" stroke="#333333" stroke-width="2" stroke-linejoin="round"/>
<path d="M9.65869 3.47852L19.3179 6.06672" stroke="#333333" stroke-width="2" stroke-linecap="round" stroke-linejoin="round"/>
<path d="M8.10571 9.27441L17.765 11.8626" stroke="#333333" stroke-width="2" stroke-linecap="round" stroke-linejoin="round"/>
<path d="M12.7411 10.466L13.2588 8.53418" stroke="#333333" stroke-width="2" stroke-linecap="round"/>
<path d="M6.55301 15.0698L16.2123 17.658" stroke="#333333" stroke-width="2" stroke-linecap="round" stroke-linejoin="round"/>
<path d="M11.2411 15.966L11.7588 14.0342" stroke="#333333" stroke-width="2" stroke-linecap="round"/>
<path d="M16.938 3.35853L13.0743 2.32326C12.8075 2.25179 12.5334 2.41008 12.4619 2.67681L12.2031 3.64274C12.1316 3.90947 12.2899 4.18364 12.5566 4.25511L16.4203 5.29038C16.6871 5.36186 16.9612 5.20356 17.0327 4.93683L17.2915 3.97091C17.363 3.70417 17.2047 3.43 16.938 3.35853Z" stroke="#333333" stroke-width="2" stroke-linecap="round" stroke-linejoin="round"/>
<path d="M9.74115 21.466L10.2588 19.5342" stroke="#333333" stroke-width="2" stroke-linecap="round"/>
</svg>
