<svg width="24" height="24" viewBox="0 0 24 24" fill="none" xmlns="http://www.w3.org/2000/svg">
<path d="M6.85731 10.2859C8.75086 10.2859 10.2859 8.75083 10.2859 6.85728C10.2859 4.96373 8.75086 3.42871 6.85731 3.42871C4.96376 3.42871 3.42874 4.96373 3.42874 6.85728C3.42874 8.75083 4.96376 10.2859 6.85731 10.2859Z" stroke="#333333" stroke-width="2" stroke-linecap="round" stroke-linejoin="round"/>
<path d="M17.143 20.5715C19.0365 20.5715 20.5715 19.0365 20.5715 17.1429C20.5715 15.2494 19.0365 13.7144 17.143 13.7144C15.2494 13.7144 13.7144 15.2494 13.7144 17.1429C13.7144 19.0365 15.2494 20.5715 17.143 20.5715Z" stroke="#333333" stroke-width="2" stroke-linecap="round" stroke-linejoin="round"/>
<path d="M12.0005 22C6.47765 22 2.00049 17.5229 2.00049 12L5.3338 13.6666" stroke="#333333" stroke-width="2" stroke-linecap="round" stroke-linejoin="round"/>
<path d="M12.0005 2C17.5233 2 22.0005 6.47715 22.0005 12L18.6671 10.3333" stroke="#333333" stroke-width="2" stroke-linecap="round" stroke-linejoin="round"/>
</svg>
