<svg width="24" height="24" viewBox="0 0 24 24" fill="none" xmlns="http://www.w3.org/2000/svg">
<path d="M2 18H22L19.5 22H4.5L2 18Z" stroke="#333333" stroke-width="2" stroke-linecap="round" stroke-linejoin="round"/>
<path d="M5.5 15.0002V18.0002H18.5V15.5002C18.5 12.5002 17 11.5002 17 11.5002C18 10.2502 18.5 8.50015 17 7.50015C15.5 6.50015 14.25 7.50015 13.5 8.50015C13.5 8.50015 5.5 7.50015 5.5 15.0002Z" stroke="#333333" stroke-width="2" stroke-linecap="round" stroke-linejoin="round"/>
<path d="M10.5 12C10.5 12 10 12.25 9.5 13C9 13.75 9 14.5 9 14.5" stroke="#333333" stroke-width="2" stroke-linecap="round"/>
<path d="M19.5 4.5C19.2334 4.82 17.7222 6.63335 17 7.5" stroke="#333333" stroke-width="2"/>
<path d="M18.4597 4.76434C19.0247 5.16101 19.8043 5.02456 20.201 4.45954C20.5977 3.89453 20.4612 3.11493 19.8962 2.71825C19.3312 2.32157 18.5516 2.45803 18.1549 3.02304C17.7582 3.58805 17.8947 4.36766 18.4597 4.76434Z" fill="#333333"/>
<path d="M19.6873 5.62615C20.2523 6.02283 21.032 5.88637 21.4286 5.32136C21.8253 4.75635 21.6889 3.97675 21.1238 3.58007C20.5588 3.18339 19.7792 3.31985 19.3825 3.88486C18.9859 4.44987 19.1223 5.22947 19.6873 5.62615Z" fill="#333333"/>
</svg>
