<svg width="24" height="24" viewBox="0 0 24 24" fill="none" xmlns="http://www.w3.org/2000/svg">
<path d="M16 3.95125C16.75 3.75 17.6646 3.80553 18.2197 3.95125C19.4707 4.28014 20.3825 4.84496 20.9279 5.63075C21.5593 6.53975 21.6685 7.69955 21.254 9.07795C20.4047 11.8979 16.954 13.648 16.75 13.75" stroke="#333333" stroke-width="2" stroke-linecap="round" stroke-linejoin="round"/>
<path d="M13.6236 20.6351C13.881 20.684 14.1426 20.7097 14.4045 20.7108C15.1393 20.7108 15.7721 20.5029 16.2831 20.0935C16.8393 19.6512 17.25 19 17.4163 18.1392C17.5825 17.2784 17.34 16.4715 17.0763 15.6843C16.89 15.1251 16.7673 14.2818 16.75 13.75" stroke="#333333" stroke-width="2" stroke-linecap="round" stroke-linejoin="round"/>
<path d="M6.5 13.2498C6.5 13.2498 3.59507 11.8966 2.74646 9.07776C2.33152 7.69971 2.44081 6.54062 3.07223 5.63057C3.61831 4.84511 4.52902 4.2803 5.78005 3.95106C6.3355 3.80534 6.86705 3.73145 7.36105 3.73145" stroke="#333333" stroke-width="2" stroke-linecap="round" stroke-linejoin="round"/>
<path d="M6.75 13.5C7 14 6.78375 14.8982 6.5201 15.6861C6.2564 16.474 5.9844 17.2872 6.17975 18.1406C6.37505 18.9941 6.75635 19.6523 7.3118 20.0949C7.82425 20.504 8.265 20.75 9.00015 20.75C9.26175 20.749 10.0001 20.5 10.0001 20.5" stroke="#333333" stroke-width="2" stroke-linecap="round" stroke-linejoin="round"/>
<path d="M11.75 2C14.3733 2 16.5 3.32156 16.5 7.1875C16.5 11.0538 11.75 16 11.75 16C11.75 16 7 11.0535 7 7.1875C7 3.3212 9.1264 2 11.75 2Z" stroke="#333333" stroke-width="2" stroke-linecap="round" stroke-linejoin="round"/>
<path d="M11.9995 21.1145C10.9946 21.1146 10.1403 20.7836 9.56545 20.2798C8.9014 19.6962 8.5635 18.8667 8.5635 17.8134C8.5635 16.9353 9.0381 16.2029 9.4971 15.4938C9.82285 14.99 10.2742 13.9988 10.2742 13.9988C10.2742 13.9988 10.5114 13.1803 10.4723 12.6489C10.4 11.6666 9.44645 10.9271 9.2917 10.4202C9.104 9.78983 9.1498 9.40608 9.43395 9.21388C9.52135 9.15388 9.8565 9.13373 9.8565 9.13373C9.8565 9.13373 9.79335 8.21088 9.8329 7.90663C9.88045 7.54168 10.071 7.02078 10.5188 6.98238C10.8288 6.95583 11.0739 7.00218 11.2328 7.33593C11.2841 7.44383 11.3195 7.57463 11.3691 7.75538C11.5197 8.32123 11.7605 8.98318 11.9974 9.52128C12.2347 8.98458 12.4759 8.32263 12.6275 7.75573C12.6771 7.57498 12.7128 7.44418 12.7642 7.33593C12.9231 7.00218 13.1685 6.95623 13.4785 6.98308C13.8566 7.01578 14.1165 7.54233 14.1641 7.90663C14.2036 8.21088 14.196 8.61613 14.1405 9.13373H14.1641C14.2716 9.13373 14.477 9.15318 14.5648 9.21353C14.8493 9.40573 14.8659 9.97303 14.7067 10.4198C14.5 11 13.6019 11.5664 13.5 12.5C13.4357 13.0885 13.5474 13.4346 13.7255 13.9992C13.9234 14.6264 14.1755 14.9904 14.5023 15.4935C14.9613 16.2026 15.4359 16.936 15.4359 17.8134C15.4359 18.8664 15.0987 19.6963 14.434 20.2791C13.8577 20.7829 13.0047 21.1145 11.9995 21.1145Z" stroke="#333333" stroke-width="2" stroke-linecap="round" stroke-linejoin="round"/>
</svg>
