<svg width="24" height="24" viewBox="0 0 24 24" fill="none" xmlns="http://www.w3.org/2000/svg">
<g clip-path="url(#clip0_201_54616)">
<path d="M24 0H0V24H24V0Z" fill="white" fill-opacity="0.01"/>
<path d="M12 2L15.6 5.7646L20.6603 7L19.2 12L20.6603 17L15.6 18.2354L12 22L8.40001 18.2354L3.33975 17L4.80001 12L3.33975 7L8.40001 5.7646L12 2Z" stroke="#333333" stroke-width="2" stroke-linecap="round" stroke-linejoin="round"/>
<path d="M15.4887 5.95752L15.686 9.87197L18.9773 12L15.686 14.1281L15.4887 18.0425L12 16.2561L8.5114 18.0425L8.3141 14.1281L5.02275 12L8.3141 9.87197L8.5114 5.95752L12 7.74387L15.4887 5.95752Z" stroke="#333333" stroke-width="2" stroke-linecap="round" stroke-linejoin="round"/>
</g>
<defs>
<clipPath id="clip0_201_54616">
<rect width="24" height="24" fill="white"/>
</clipPath>
</defs>
</svg>
