<svg width="24" height="24" viewBox="0 0 24 24" fill="none" xmlns="http://www.w3.org/2000/svg">
<g clip-path="url(#clip0_201_54780)">
<path d="M24 0H0V24H24V0Z" fill="white" fill-opacity="0.01"/>
<path d="M12 21.1664C17.0626 21.1664 21.1667 17.0623 21.1667 11.9997C21.1667 6.93706 17.0626 2.83301 12 2.83301C6.93745 2.83301 2.83337 6.93706 2.83337 11.9997C2.83337 13.2425 3.40351 13.8432 4.30697 14.372C5.21045 14.9009 6.9101 14.8131 8.06625 15.8504C9.22235 16.8877 9.3004 18.575 9.53985 19.3949C9.77925 20.2148 10.7572 21.1664 12 21.1664Z" stroke="#333333" stroke-width="2" stroke-linejoin="round"/>
<path d="M9.76281 9.27059C9.49361 9.92464 9.35901 10.6933 9.35901 11.5765C9.35901 12.4164 9.44821 13.248 9.62661 14.0712C9.80531 14.8958 10.6187 15.4194 11.4433 15.2407C11.4733 15.2342 11.503 15.2269 11.5325 15.2186C12.4323 14.9661 13.2159 14.6355 13.8833 14.227C14.5072 13.845 15.0886 13.3626 15.6274 12.78C16.2003 12.1605 16.1625 11.1939 15.5431 10.621C15.5254 10.6047 15.5073 10.5887 15.4888 10.5732C14.8555 10.0408 14.1925 9.56269 13.5 9.13874C12.777 8.69604 12.0689 8.42894 11.3756 8.33744C10.6886 8.24674 10.0266 8.62979 9.76281 9.27059Z" stroke="#333333" stroke-width="2" stroke-linejoin="round"/>
</g>
<defs>
<clipPath id="clip0_201_54780">
<rect width="24" height="24" fill="white"/>
</clipPath>
</defs>
</svg>
