<svg width="24" height="24" viewBox="0 0 24 24" fill="none" xmlns="http://www.w3.org/2000/svg">
<path d="M11.7071 9.70711C12.0976 9.31658 12.0976 8.68342 11.7071 8.29289C11.3166 7.90237 10.6834 7.90237 10.2929 8.29289L11.7071 9.70711ZM8 12L7.29289 11.2929C6.90237 11.6834 6.90237 12.3166 7.29289 12.7071L8 12ZM10.2929 15.7071C10.6834 16.0976 11.3166 16.0976 11.7071 15.7071C12.0976 15.3166 12.0976 14.6834 11.7071 14.2929L10.2929 15.7071ZM16 13C16.5523 13 17 12.5523 17 12C17 11.4477 16.5523 11 16 11V13ZM22 12C22 6.47715 17.5228 2 12 2V4C16.4183 4 20 7.58172 20 12H22ZM12 2C6.47715 2 2 6.47715 2 12H4C4 7.58172 7.58172 4 12 4V2ZM2 12C2 17.5228 6.47715 22 12 22V20C7.58172 20 4 16.4183 4 12H2ZM12 22C17.5228 22 22 17.5228 22 12H20C20 16.4183 16.4183 20 12 20V22ZM10.2929 8.29289L7.29289 11.2929L8.70711 12.7071L11.7071 9.70711L10.2929 8.29289ZM7.29289 12.7071L10.2929 15.7071L11.7071 14.2929L8.70711 11.2929L7.29289 12.7071ZM8 13H16V11H8V13Z" fill="#060606"/>
</svg>
