<svg width="24" height="24" viewBox="0 0 24 24" fill="none" xmlns="http://www.w3.org/2000/svg">
<path d="M11 14C10.4477 14 10 14.4477 10 15C10 15.5523 10.4477 16 11 16V14ZM15 15V16C15.5523 16 16 15.5523 16 15H15ZM16 11C16 10.4477 15.5523 10 15 10C14.4477 10 14 10.4477 14 11H16ZM9.70711 8.29289C9.31658 7.90237 8.68342 7.90237 8.29289 8.29289C7.90237 8.68342 7.90237 9.31658 8.29289 9.70711L9.70711 8.29289ZM22 12C22 6.47715 17.5228 2 12 2V4C16.4183 4 20 7.58172 20 12H22ZM12 2C6.47715 2 2 6.47715 2 12H4C4 7.58172 7.58172 4 12 4V2ZM2 12C2 17.5228 6.47715 22 12 22V20C7.58172 20 4 16.4183 4 12H2ZM12 22C17.5228 22 22 17.5228 22 12H20C20 16.4183 16.4183 20 12 20V22ZM11 16H15V14H11V16ZM16 15V11H14V15H16ZM8.29289 9.70711L14.2929 15.7071L15.7071 14.2929L9.70711 8.29289L8.29289 9.70711Z" fill="#060606"/>
</svg>
