<svg width="24" height="24" viewBox="0 0 24 24" fill="none" xmlns="http://www.w3.org/2000/svg">
<path d="M13 10C13.5523 10 14 9.55228 14 9C14 8.44772 13.5523 8 13 8V10ZM9 9V8C8.44772 8 8 8.44772 8 9H9ZM8 13C8 13.5523 8.44772 14 9 14C9.55228 14 10 13.5523 10 13H8ZM14.2929 15.7071C14.6834 16.0976 15.3166 16.0976 15.7071 15.7071C16.0976 15.3166 16.0976 14.6834 15.7071 14.2929L14.2929 15.7071ZM22 12C22 6.47715 17.5228 2 12 2V4C16.4183 4 20 7.58172 20 12H22ZM12 2C6.47715 2 2 6.47715 2 12H4C4 7.58172 7.58172 4 12 4V2ZM2 12C2 17.5228 6.47715 22 12 22V20C7.58172 20 4 16.4183 4 12H2ZM12 22C17.5228 22 22 17.5228 22 12H20C20 16.4183 16.4183 20 12 20V22ZM13 8H9V10H13V8ZM8 9V13H10V9H8ZM15.7071 14.2929L9.70711 8.29289L8.29289 9.70711L14.2929 15.7071L15.7071 14.2929Z" fill="#060606"/>
</svg>
