<svg width="24" height="24" viewBox="0 0 24 24" fill="none" xmlns="http://www.w3.org/2000/svg">
<g id="Iconly/Light-Outline/Edit">
<g id="Edit">
<path id="Fill 1" fill-rule="evenodd" clip-rule="evenodd" d="M20.7508 21.9397H13.4978C13.0838 21.9397 12.7478 21.6037 12.7478 21.1897C12.7478 20.7757 13.0838 20.4397 13.4978 20.4397H20.7508C21.1648 20.4397 21.5008 20.7757 21.5008 21.1897C21.5008 21.6037 21.1648 21.9397 20.7508 21.9397Z" fill="black"/>
<g id="Group 5">
<mask id="mask0_2_3577" style="mask-type:luminance" maskUnits="userSpaceOnUse" x="2" y="3" width="18" height="19">
<path id="Clip 4" fill-rule="evenodd" clip-rule="evenodd" d="M2.00033 3.00012H19.1809V21.9397H2.00033V3.00012Z" fill="white"/>
</mask>
<g mask="url(#mask0_2_3577)">
<path id="Fill 3" fill-rule="evenodd" clip-rule="evenodd" d="M13.1106 5.01676L3.6956 16.7918C3.5246 17.0058 3.4616 17.2818 3.5246 17.5468L4.2056 20.4318L7.2446 20.3938C7.5336 20.3908 7.8006 20.2618 7.9776 20.0418C11.1946 16.0168 17.3276 8.34276 17.5016 8.11776C17.6656 7.85176 17.7296 7.47576 17.6436 7.11376C17.5556 6.74276 17.3246 6.42776 16.9916 6.22676C16.9206 6.17776 15.2356 4.86976 15.1836 4.82876C14.5496 4.32076 13.6246 4.40876 13.1106 5.01676ZM3.6136 21.9398C3.2666 21.9398 2.9646 21.7018 2.8836 21.3628L2.0646 17.8918C1.8956 17.1728 2.0636 16.4308 2.5246 15.8548L11.9446 4.07276C11.9486 4.06876 11.9516 4.06376 11.9556 4.05976C12.9886 2.82476 14.8566 2.64276 16.1166 3.65376C16.1666 3.69276 17.8396 4.99276 17.8396 4.99276C18.4476 5.35476 18.9226 6.00176 19.1026 6.76776C19.2816 7.52576 19.1516 8.30777 18.7346 8.96876C18.7036 9.01776 18.6766 9.05976 9.1486 20.9798C8.6896 21.5518 8.0016 21.8848 7.2626 21.8938L3.6236 21.9398H3.6136Z" fill="black"/>
</g>
</g>
<path id="Fill 6" fill-rule="evenodd" clip-rule="evenodd" d="M16.2234 11.6847C16.0634 11.6847 15.9034 11.6337 15.7664 11.5297L10.3144 7.34175C9.9864 7.08975 9.9244 6.61975 10.1764 6.28975C10.4294 5.96175 10.8994 5.90075 11.2284 6.15275L16.6814 10.3397C17.0094 10.5917 17.0714 11.0627 16.8184 11.3917C16.6714 11.5837 16.4484 11.6847 16.2234 11.6847Z" fill="black"/>
</g>
</g>
</svg>
