<svg width="24" height="24" viewBox="0 0 24 24" fill="none" xmlns="http://www.w3.org/2000/svg">
<g id="Iconly/Light-Outline/Filter 3">
<g id="Filter 2">
<mask id="mask0_2_3522" style="mask-type:luminance" maskUnits="userSpaceOnUse" x="2" y="2" width="20" height="20">
<path id="Clip 2" fill-rule="evenodd" clip-rule="evenodd" d="M2.0004 2H21.5V21.5007H2.0004V2Z" fill="white"/>
</mask>
<g mask="url(#mask0_2_3522)">
<path id="Fill 1" fill-rule="evenodd" clip-rule="evenodd" d="M8.7734 11.5988C8.7914 11.6148 8.8084 11.6298 8.8254 11.6478C9.9044 12.7538 10.4994 14.2188 10.4994 15.7738V19.7578L12.7354 18.5398C12.9114 18.4438 13.0204 18.2558 13.0204 18.0488V15.7618C13.0204 14.2128 13.6094 12.7528 14.6784 11.6528L19.5154 6.50776C19.8284 6.17476 20.0004 5.73776 20.0004 5.27676V4.34076C20.0004 3.87676 19.6344 3.49976 19.1864 3.49976H4.3154C3.8664 3.49976 3.5004 3.87676 3.5004 4.34076V5.27676C3.5004 5.73776 3.6724 6.17476 3.9854 6.50676L8.7734 11.5988ZM10.1464 21.5008C9.9444 21.5008 9.7444 21.4468 9.5624 21.3388C9.2104 21.1288 8.9994 20.7578 8.9994 20.3458V15.7738C8.9994 14.6388 8.5764 13.5698 7.8054 12.7508C7.7824 12.7318 7.7594 12.7108 7.7394 12.6888L2.8934 7.53576C2.3174 6.92376 2.0004 6.12076 2.0004 5.27676V4.34076C2.0004 3.04976 3.0394 1.99976 4.3154 1.99976H19.1864C20.4614 1.99976 21.5004 3.04976 21.5004 4.34076V5.27676C21.5004 6.11976 21.1834 6.92176 20.6094 7.53476L15.7624 12.6888C14.9594 13.5168 14.5204 14.6058 14.5204 15.7618V18.0488C14.5204 18.8048 14.1114 19.4968 13.4534 19.8568L10.6924 21.3608C10.5204 21.4538 10.3334 21.5008 10.1464 21.5008Z" fill="black"/>
</g>
</g>
</g>
</svg>
