<svg width="24" height="24" viewBox="0 0 24 24" fill="none" xmlns="http://www.w3.org/2000/svg">
<g id="Iconly/Light-Outline/Message">
<g id="Message">
<path id="Fill 1" fill-rule="evenodd" clip-rule="evenodd" d="M11.7769 13.4647C11.1079 13.4647 10.4409 13.2437 9.8829 12.8017L5.3979 9.18574C5.0749 8.92574 5.0249 8.45274 5.2839 8.13074C5.5449 7.80974 6.0169 7.75874 6.3389 8.01774L10.8199 11.6297C11.3829 12.0757 12.1759 12.0757 12.7429 11.6257L17.1789 8.01974C17.5009 7.75674 17.9729 7.80674 18.2349 8.12874C18.4959 8.44974 18.4469 8.92174 18.1259 9.18374L13.6819 12.7957C13.1199 13.2417 12.4479 13.4647 11.7769 13.4647Z" fill="black"/>
<g id="Group 5">
<mask id="mask0_2_3851" style="mask-type:luminance" maskUnits="userSpaceOnUse" x="1" y="2" width="22" height="20">
<path id="Clip 4" fill-rule="evenodd" clip-rule="evenodd" d="M1 2H22.4999V21.5H1V2Z" fill="white"/>
</mask>
<g mask="url(#mask0_2_3851)">
<path id="Fill 3" fill-rule="evenodd" clip-rule="evenodd" d="M6.8389 20H16.6589C16.6609 19.998 16.6689 20 16.6749 20C17.8159 20 18.8279 19.592 19.6039 18.817C20.5049 17.92 20.9999 16.631 20.9999 15.188V8.32C20.9999 5.527 19.1739 3.5 16.6589 3.5H6.8409C4.3259 3.5 2.4999 5.527 2.4999 8.32V15.188C2.4999 16.631 2.9959 17.92 3.8959 18.817C4.6719 19.592 5.6849 20 6.8249 20H6.8389ZM6.8219 21.5C5.2789 21.5 3.9009 20.94 2.8369 19.88C1.6519 18.698 0.9999 17.032 0.9999 15.188V8.32C0.9999 4.717 3.5109 2 6.8409 2H16.6589C19.9889 2 22.4999 4.717 22.4999 8.32V15.188C22.4999 17.032 21.8479 18.698 20.6629 19.88C19.5999 20.939 18.2209 21.5 16.6749 21.5H16.6589H6.8409H6.8219Z" fill="black"/>
</g>
</g>
</g>
</g>
</svg>
