<svg width="24" height="24" viewBox="0 0 24 24" fill="none" xmlns="http://www.w3.org/2000/svg">
<g id="Iconly/Light-Outline/Show">
<g id="Show">
<path id="Fill 1" fill-rule="evenodd" clip-rule="evenodd" d="M11.9996 9.64136C10.6696 9.64136 9.58859 10.7234 9.58859 12.0534C9.58859 13.3824 10.6696 14.4634 11.9996 14.4634C13.3296 14.4634 14.4116 13.3824 14.4116 12.0534C14.4116 10.7234 13.3296 9.64136 11.9996 9.64136ZM11.9996 15.9634C9.84259 15.9634 8.08859 14.2094 8.08859 12.0534C8.08859 9.89636 9.84259 8.14136 11.9996 8.14136C14.1566 8.14136 15.9116 9.89636 15.9116 12.0534C15.9116 14.2094 14.1566 15.9634 11.9996 15.9634Z" fill="black"/>
<g id="Group 5">
<mask id="mask0_2_3705" style="mask-type:luminance" maskUnits="userSpaceOnUse" x="2" y="4" width="20" height="17">
<path id="Clip 4" fill-rule="evenodd" clip-rule="evenodd" d="M2.00015 4.00024H22V20.1052H2.00015V4.00024Z" fill="white"/>
</mask>
<g mask="url(#mask0_2_3705)">
<path id="Fill 3" fill-rule="evenodd" clip-rule="evenodd" d="M3.5699 12.0525C5.4299 16.1615 8.5629 18.6045 11.9999 18.6055C15.4369 18.6045 18.5699 16.1615 20.4299 12.0525C18.5699 7.94451 15.4369 5.50151 11.9999 5.50051C8.5639 5.50151 5.4299 7.94451 3.5699 12.0525ZM12.0019 20.1055H11.9979H11.9969C7.8609 20.1025 4.1469 17.2035 2.0609 12.3485C1.9799 12.1595 1.9799 11.9455 2.0609 11.7565C4.1469 6.90251 7.8619 4.00351 11.9969 4.00051C11.9989 3.99951 11.9989 3.99951 11.9999 4.00051C12.0019 3.99951 12.0019 3.99951 12.0029 4.00051C16.1389 4.00351 19.8529 6.90251 21.9389 11.7565C22.0209 11.9455 22.0209 12.1595 21.9389 12.3485C19.8539 17.2035 16.1389 20.1025 12.0029 20.1055H12.0019Z" fill="black"/>
</g>
</g>
</g>
</g>
</svg>
