<svg width="24" height="24" viewBox="0 0 24 24" fill="none" xmlns="http://www.w3.org/2000/svg">
<g id="Iconly/Light-Outline/Swap">
<g id="Swap">
<path id="Stroke 1" d="M16.8395 5.79639C17.2192 5.79639 17.533 6.07854 17.5827 6.44462L17.5895 6.54639V20.1642C17.5895 20.5784 17.2538 20.9142 16.8395 20.9142C16.4598 20.9142 16.146 20.632 16.0964 20.2659L16.0895 20.1642V6.54639C16.0895 6.13217 16.4253 5.79639 16.8395 5.79639Z" fill="black"/>
<path id="Stroke 3" d="M20.3857 15.5389C20.6779 15.2453 21.1527 15.2442 21.4463 15.5364C21.7132 15.8021 21.7384 16.2187 21.5212 16.5128L21.4488 16.5971L17.371 20.6938C17.1045 20.9615 16.6862 20.9859 16.3921 20.7668L16.3079 20.6938L12.2301 16.5971C11.9379 16.3035 11.939 15.8287 12.2326 15.5364C12.4994 15.2708 12.9162 15.2475 13.2093 15.4661L13.2932 15.5389L16.839 19.1009L20.3857 15.5389Z" fill="black"/>
<path id="Stroke 5" d="M6.91107 3.08289C7.29077 3.08289 7.60456 3.36504 7.65423 3.73112L7.66107 3.83289V17.4507C7.66107 17.8649 7.32529 18.2007 6.91107 18.2007C6.53138 18.2007 6.21758 17.9185 6.16792 17.5524L6.16107 17.4507V3.83289C6.16107 3.41867 6.49686 3.08289 6.91107 3.08289Z" fill="black"/>
<path id="Stroke 7" d="M6.37966 3.30317C6.64618 3.03542 7.06443 3.01108 7.35854 3.23015L7.44277 3.30317L11.5205 7.39984C11.8128 7.69341 11.8117 8.16828 11.5181 8.4605C11.2512 8.72615 10.8345 8.74939 10.5414 8.53086L10.4574 8.45805L6.91099 4.89494L3.36499 8.45805C3.09934 8.72493 2.68273 8.7501 2.38862 8.53292L2.30433 8.4605C2.03745 8.19485 2.01228 7.77824 2.22946 7.48412L2.30188 7.39984L6.37966 3.30317Z" fill="black"/>
</g>
</g>
</svg>
