<svg width="24" height="24" viewBox="0 0 24 24" fill="none" xmlns="http://www.w3.org/2000/svg">
<g id="Iconly/Light-Outline/Volume Up">
<g id="Volume Up">
<g id="Group 3">
<mask id="mask0_2_3971" style="mask-type:luminance" maskUnits="userSpaceOnUse" x="2" y="5" width="13" height="16">
<path id="Clip 2" fill-rule="evenodd" clip-rule="evenodd" d="M2.00012 5.00024H14.0201V20.5021H2.00012V5.00024Z" fill="white"/>
</mask>
<g mask="url(#mask0_2_3971)">
<path id="Fill 1" fill-rule="evenodd" clip-rule="evenodd" d="M11.2081 6.50613C10.3401 6.50613 9.23011 7.38713 8.30611 8.12113C7.41711 8.82613 6.71511 9.38413 6.01511 9.43613C5.70511 9.45813 5.43911 9.46813 5.20511 9.47613C4.45811 9.50113 4.26911 9.51813 3.93211 9.79613C3.49011 10.1591 3.49711 11.6421 3.50111 12.5271L3.50211 12.7481V12.7521L3.50111 12.9731C3.49711 13.8591 3.49011 15.3421 3.93211 15.7051C4.26811 15.9831 4.45711 15.9991 5.20211 16.0261C5.43711 16.0331 5.70411 16.0431 6.01511 16.0661C6.71511 16.1171 7.41711 16.6751 8.30611 17.3801C9.40911 18.2551 10.7751 19.3401 11.6811 18.8891C12.4391 18.2321 12.5201 16.4901 12.5201 12.7501C12.5201 9.01013 12.4391 7.26913 11.6811 6.61113C11.5341 6.53813 11.3751 6.50613 11.2081 6.50613ZM11.2181 20.5021C9.82711 20.5021 8.44811 19.4071 7.37411 18.5551C6.88911 18.1701 6.15611 17.5881 5.90311 17.5621C5.61611 17.5401 5.36811 17.5311 5.14911 17.5251C4.35111 17.4961 3.72011 17.4751 2.97811 16.8631C1.98611 16.0461 1.99511 14.3381 2.00111 12.9661L2.00211 12.7501L2.00111 12.5341C1.99511 11.1621 1.98611 9.45513 2.97811 8.63813C3.72111 8.02613 4.35311 8.00413 5.15311 7.97713C5.37111 7.96913 5.61811 7.96113 5.90511 7.94013C6.15611 7.91313 6.88911 7.33113 7.37411 6.94613C8.77311 5.83513 10.6891 4.31813 12.4741 5.33513C12.5051 5.35413 12.5361 5.37413 12.5641 5.39713C13.9581 6.49213 14.0201 8.55713 14.0201 12.7501C14.0201 16.9441 13.9581 19.0091 12.5641 20.1051C12.5361 20.1271 12.5051 20.1481 12.4731 20.1661C12.0591 20.4021 11.6381 20.5021 11.2181 20.5021Z" fill="black"/>
</g>
</g>
<g id="Group 6">
<mask id="mask1_2_3971" style="mask-type:luminance" maskUnits="userSpaceOnUse" x="19" y="5" width="4" height="15">
<path id="Clip 5" fill-rule="evenodd" clip-rule="evenodd" d="M19.0839 5.90356H22.484V19.5959H19.0839V5.90356Z" fill="white"/>
</mask>
<g mask="url(#mask1_2_3971)">
<path id="Fill 4" fill-rule="evenodd" clip-rule="evenodd" d="M19.8336 19.5959C19.6856 19.5959 19.5366 19.5519 19.4056 19.4609C19.0656 19.2249 18.9816 18.7579 19.2186 18.4169C21.6116 14.9769 21.6116 10.5279 19.2186 7.08188C18.9816 6.74188 19.0656 6.27488 19.4066 6.03788C19.7466 5.80088 20.2126 5.88588 20.4496 6.22688C23.1626 10.1309 23.1626 15.3739 20.4496 19.2749C20.3036 19.4839 20.0706 19.5959 19.8336 19.5959Z" fill="black"/>
</g>
</g>
<path id="Fill 7" fill-rule="evenodd" clip-rule="evenodd" d="M17.3306 17.1868C17.2036 17.1868 17.0756 17.1548 16.9576 17.0868C16.5986 16.8808 16.4746 16.4218 16.6806 16.0638C17.8516 14.0228 17.8516 11.4848 16.6806 9.4378C16.4746 9.0778 16.5996 8.6198 16.9586 8.4138C17.3186 8.2118 17.7756 8.3328 17.9816 8.6918C19.4166 11.1998 19.4166 14.3098 17.9816 16.8098C17.8426 17.0518 17.5906 17.1868 17.3306 17.1868Z" fill="black"/>
</g>
</g>
</svg>
