<svg width="24" height="24" viewBox="0 0 24 24" fill="none" xmlns="http://www.w3.org/2000/svg">
<path d="M2 20H22M12 20H20V14.368C20 13.8427 20 13.58 19.937 13.335C19.8812 13.1178 19.7891 12.9116 19.6649 12.725C19.5247 12.5143 19.3295 12.3387 18.9387 11.9876L16.6387 9.92126C15.8827 9.24208 15.5045 8.9025 15.0771 8.77368C14.7007 8.66021 14.2991 8.66021 13.9227 8.77368C13.4953 8.9025 13.1174 9.24208 12.3614 9.92126L12 10.246M12 20V7.19995C12 6.07985 12.0002 5.51986 11.7822 5.09204C11.5905 4.71572 11.2841 4.40973 10.9078 4.21799C10.48 4 9.9203 4 8.8002 4H7.2002C6.08009 4 5.51962 4 5.0918 4.21799C4.71547 4.40973 4.40973 4.71572 4.21799 5.09204C4 5.51986 4 6.07985 4 7.19995V20H12Z" stroke="black" stroke-width="2" stroke-linecap="round" stroke-linejoin="round"/>
</svg>
