<svg width="24" height="24" viewBox="0 0 24 24" fill="none" xmlns="http://www.w3.org/2000/svg">
<path d="M2 20H22M14.875 20H20V7.19995C20 6.07985 20.0002 5.51986 19.7822 5.09204C19.5905 4.71572 19.2841 4.40973 18.9078 4.21799C18.48 4 17.9203 4 16.8002 4H10.2002C9.08009 4 8.51962 4 8.0918 4.21799C7.71547 4.40973 7.40973 4.71572 7.21799 5.09204C7 5.51986 7 6.07985 7 7.19995V9.99995M15 14.368V20L4 20V14.368C4 13.8427 4 13.58 4.063 13.335C4.11883 13.1178 4.21073 12.9116 4.33496 12.725C4.47513 12.5143 4.6707 12.3387 5.06152 11.9876L7.36153 9.92126C8.11753 9.24208 8.49533 8.9025 8.92269 8.77368C9.29913 8.66021 9.7007 8.66021 10.0771 8.77368C10.5045 8.9025 10.8827 9.24208 11.6387 9.92126L13.9387 11.9876C14.3295 12.3387 14.5247 12.5143 14.6649 12.725C14.7891 12.9116 14.8812 13.1178 14.937 13.335C15 13.58 15 13.8427 15 14.368Z" stroke="black" stroke-width="2" stroke-linecap="round" stroke-linejoin="round"/>
</svg>
