<svg width="24" height="24" viewBox="0 0 24 24" fill="none" xmlns="http://www.w3.org/2000/svg">
<path d="M5.09277 9.04389L4.43427 8.29131L5.09277 9.04389ZM9.89278 4.84389L9.23427 4.09131L9.23427 4.09131L9.89278 4.84389ZM14.1074 4.84389L13.4489 5.59646V5.59646L14.1074 4.84389ZM18.9074 9.04389L18.2489 9.79646L18.9074 9.04389ZM11.4326 3.73976L11.7162 4.69871L11.4326 3.73976ZM12.5674 3.73976L12.2838 4.69871L12.5674 3.73976ZM4.06497 10.402L5.03249 10.6548L4.06497 10.402ZM4.34521 9.78427L3.51784 9.22262L3.51784 9.22262L4.34521 9.78427ZM5.0918 19.7821L5.54579 18.8911H5.54579L5.0918 19.7821ZM4.21799 18.908L3.32698 19.362H3.32698L4.21799 18.908ZM19.7822 18.908L18.8912 18.4541L19.7822 18.908ZM18.9078 19.7821L18.4538 18.8911L18.9078 19.7821ZM19.9351 10.402L18.9675 10.6548L19.9351 10.402ZM19.6548 9.78426L20.4821 9.22262V9.22262L19.6548 9.78426ZM9 12C8.44772 12 8 12.4477 8 13C8 13.5523 8.44772 14 9 14V12ZM15 14C15.5523 14 16 13.5523 16 13C16 12.4477 15.5523 12 15 12V14ZM19 11.4522V16.8001H21V11.4522H19ZM16.8002 19H7.2002V21H16.8002V19ZM5 16.8001V11.4522H3V16.8001H5ZM5.75128 9.79646L10.5513 5.59646L9.23427 4.09131L4.43427 8.29131L5.75128 9.79646ZM13.4489 5.59646L18.2489 9.79646L19.5659 8.29131L14.7659 4.09131L13.4489 5.59646ZM10.5513 5.59646C10.9362 5.25969 11.1828 5.04474 11.3841 4.89423C11.5753 4.75123 11.665 4.71385 11.7162 4.69871L11.149 2.78081C10.7801 2.88992 10.4732 3.07796 10.1862 3.29263C9.9092 3.4998 9.596 3.7748 9.23427 4.09131L10.5513 5.59646ZM14.7659 4.09131C14.4041 3.77475 14.0909 3.49976 13.8138 3.29257C13.5267 3.0779 13.2198 2.8899 12.851 2.78081L12.2838 4.69871C12.335 4.71386 12.4249 4.75128 12.6161 4.89429C12.8174 5.04478 13.0641 5.25974 13.4489 5.59646L14.7659 4.09131ZM11.7162 4.69871C11.9013 4.64397 12.0987 4.64397 12.2838 4.69871L12.851 2.78081C12.2957 2.6166 11.7043 2.6166 11.149 2.78081L11.7162 4.69871ZM5 11.4522C5 10.8655 5.00759 10.7501 5.03249 10.6548L3.09746 10.1492C2.99241 10.5512 3 10.9702 3 11.4522H5ZM4.43427 8.29131C4.07166 8.60859 3.75123 8.8788 3.51784 9.22262L5.17259 10.3459C5.22787 10.2645 5.30962 10.1829 5.75128 9.79646L4.43427 8.29131ZM5.03249 10.6548C5.06132 10.5445 5.10873 10.44 5.17259 10.3459L3.51784 9.22262C3.32588 9.5054 3.18378 9.81882 3.09746 10.1492L5.03249 10.6548ZM7.2002 19C6.62361 19 6.25122 18.9993 5.96773 18.9761C5.69586 18.9539 5.59512 18.9163 5.54579 18.8911L4.63781 20.6731C5.01629 20.866 5.40971 20.9372 5.80505 20.9695C6.18878 21.0008 6.65668 21 7.2002 21V19ZM3 16.8001C3 17.3437 2.99922 17.8115 3.03057 18.1951C3.06287 18.5905 3.13419 18.9837 3.32698 19.362L5.10899 18.4541C5.0838 18.4046 5.04612 18.3039 5.02393 18.0322C5.00078 17.7489 5 17.3767 5 16.8001H3ZM5.54579 18.8911C5.35791 18.7954 5.20501 18.6425 5.10899 18.4541L3.32698 19.362C3.61446 19.9262 4.07304 20.3854 4.63781 20.6731L5.54579 18.8911ZM19 16.8001C19 17.3768 18.9993 17.749 18.9762 18.0324C18.954 18.3041 18.9164 18.4047 18.8912 18.4541L20.6732 19.362C20.8661 18.9835 20.9373 18.5902 20.9695 18.195C21.0008 17.8114 21 17.3436 21 16.8001H19ZM16.8002 21C17.3437 21 17.8114 21.0008 18.195 20.9695C18.5903 20.9372 18.9834 20.8659 19.3618 20.6731L18.4538 18.8911C18.4043 18.9163 18.3037 18.954 18.0322 18.9761C17.749 18.9993 17.3768 19 16.8002 19V21ZM18.8912 18.4541C18.7955 18.6418 18.6423 18.795 18.4538 18.8911L19.3618 20.6731C19.9259 20.3857 20.3854 19.9269 20.6732 19.362L18.8912 18.4541ZM21 11.4522C21 10.9703 21.0076 10.5512 20.9026 10.1492L18.9675 10.6548C18.9924 10.7501 19 10.8654 19 11.4522H21ZM18.2489 9.79646C18.6902 10.1826 18.772 10.2644 18.8274 10.3459L20.4821 9.22262C20.2488 8.8789 19.9289 8.60891 19.5659 8.29131L18.2489 9.79646ZM20.9026 10.1492C20.8162 9.81869 20.674 9.50528 20.4821 9.22262L18.8274 10.3459C18.8913 10.4401 18.9387 10.5446 18.9675 10.6548L20.9026 10.1492ZM9 14H15V12H9V14Z" fill="black"/>
</svg>
