<svg width="24" height="24" viewBox="0 0 24 24" fill="none" xmlns="http://www.w3.org/2000/svg">
<path d="M15 11L11 15L9 13M20 11.4522V16.8001C20 17.9202 20.0002 18.4802 19.7822 18.908C19.5905 19.2844 19.2841 19.5904 18.9078 19.7821C18.48 20.0001 17.9203 20 16.8002 20H7.2002C6.08009 20 5.51962 20.0001 5.0918 19.7821C4.71547 19.5904 4.40973 19.2844 4.21799 18.908C4 18.4802 4 17.9202 4 16.8001V11.4522C4 10.9178 4 10.6506 4.06497 10.402C4.12255 10.1816 4.2173 9.97269 4.34521 9.78427C4.48955 9.57164 4.69064 9.39575 5.09277 9.04389L9.89278 4.84389C10.6394 4.1906 11.0125 3.864 11.4326 3.73976C11.8028 3.63028 12.1972 3.63028 12.5674 3.73976C12.9875 3.864 13.3608 4.1906 14.1074 4.84389L18.9074 9.04389C19.3096 9.39575 19.5104 9.57164 19.6548 9.78426C19.7827 9.97269 19.8775 10.1816 19.9351 10.402C20 10.6506 20 10.9178 20 11.4522Z" stroke="black" stroke-width="2" stroke-linecap="round" stroke-linejoin="round"/>
</svg>
