<svg width="25" height="24" viewBox="0 0 25 24" fill="none" xmlns="http://www.w3.org/2000/svg">
<path fill-rule="evenodd" clip-rule="evenodd" d="M16.3127 7.50518C16.3127 9.777 14.4707 11.6178 12.2001 11.6178C9.92829 11.6178 8.0863 9.777 8.0863 7.50518C8.0863 5.23335 9.92829 3.39258 12.2001 3.39258C14.4707 3.39258 16.3127 5.23335 16.3127 7.50518Z" stroke="black" stroke-width="1.5" stroke-linecap="square"/>
<path d="M12.2316 14.6231C15.2616 14.6153 17.838 16.0066 18.785 19.0014C16.8762 20.1651 14.6294 20.6133 12.2316 20.6074C9.83376 20.6133 7.58691 20.1651 5.6781 19.0014C6.6262 16.0033 9.19824 14.6153 12.2316 14.6231Z" stroke="black" stroke-width="1.5" stroke-linecap="square"/>
<path d="M6.8446 13.773C4.72024 13.7675 2.91395 14.7429 2.25001 16.8426C2.9747 17.2844 3.76888 17.5791 4.61173 17.7558" stroke="black" stroke-width="1.5" stroke-linecap="square"/>
<path d="M7.97397 6.12024C6.50403 5.50907 4.8161 6.20493 4.20459 7.67565C3.59309 9.14638 4.29007 10.8339 5.76 11.445C6.97348 11.9496 8.33483 11.5641 9.11742 10.5877" stroke="black" stroke-width="1.5" stroke-linecap="square"/>
<path d="M17.6556 13.773C19.78 13.7675 21.5863 14.7429 22.2502 16.8426C21.5255 17.2844 20.7314 17.5791 19.8885 17.7558" stroke="black" stroke-width="1.5" stroke-linecap="square"/>
<path d="M15.3562 10.5528C16.3337 11.8103 18.1454 12.0367 19.4029 11.0592C20.6598 10.0822 20.8874 8.27066 19.9098 7.01311C19.038 5.89155 17.5027 5.59021 16.2892 6.23125" stroke="black" stroke-width="1.5" stroke-linecap="square"/>
</svg>
