<svg width="25" height="24" viewBox="0 0 25 24" fill="none" xmlns="http://www.w3.org/2000/svg">
<path d="M19.293 8.66895V12.6789" stroke="black" stroke-width="1.5" stroke-linecap="square" stroke-linejoin="round"/>
<path d="M21.338 10.6738H17.248" stroke="black" stroke-width="1.5" stroke-linecap="square" stroke-linejoin="round"/>
<path fill-rule="evenodd" clip-rule="evenodd" d="M14.5908 7.16973C14.5908 9.61122 12.6112 11.5895 10.171 11.5895C7.72955 11.5895 5.75 9.61122 5.75 7.16973C5.75 4.72824 7.72955 2.75 10.171 2.75C12.6112 2.75 14.5908 4.72824 14.5908 7.16973Z" stroke="black" stroke-width="1.5" stroke-linecap="square"/>
<path d="M10.205 14.8189C13.4614 14.8106 16.2302 16.3057 17.2479 19.5242C15.1965 20.7748 12.7819 21.2564 10.205 21.2501C7.62812 21.2564 5.21348 20.7748 3.16211 19.5242C4.18101 16.3022 6.94514 14.8105 10.205 14.8189Z" stroke="black" stroke-width="1.5" stroke-linecap="square"/>
</svg>
