<svg width="25" height="24" viewBox="0 0 25 24" fill="none" xmlns="http://www.w3.org/2000/svg">
<path d="M12.2502 15.6873C14.2867 15.6873 15.9377 14.0364 15.9377 11.9998C15.9377 9.96323 14.2867 8.31226 12.2502 8.31226C10.2136 8.31226 8.56262 9.96323 8.56262 11.9998C8.56262 14.0364 10.2136 15.6873 12.2502 15.6873Z" stroke="black" stroke-width="1.5" stroke-linecap="square"/>
<path d="M19.0538 18.7156L18.6159 15.6753L21.4677 14.5345V9.46567L18.6169 8.32522L19.0549 5.28442L14.6652 2.75L12.2506 4.64979L9.8361 2.75L5.44636 5.28442L5.88427 8.32471L3.03223 9.46567V14.5345L5.88527 15.6759L5.44744 18.7156L9.83718 21.25L12.2506 19.3511L14.6641 21.25L19.0538 18.7156Z" stroke="black" stroke-width="1.5" stroke-linecap="square"/>
</svg>
