<svg width="24" height="24" viewBox="0 0 24 24" fill="none" xmlns="http://www.w3.org/2000/svg">
<g clip-path="url(#clip0_201_30469)">
<path d="M11.8 17.1703L11.152 22.4623C11.1244 22.6862 11.0457 22.9032 10.9202 23.101C10.7948 23.2988 10.6251 23.4735 10.421 23.6151C10.2168 23.7567 9.98202 23.8624 9.73015 23.9263C9.47828 23.9901 9.21421 24.0108 8.95301 23.9871C8.69181 23.9635 8.4386 23.896 8.20784 23.7885C7.97707 23.681 7.77328 23.5355 7.60808 23.3605C7.44289 23.1855 7.31953 22.9843 7.24505 22.7684C7.17057 22.5525 7.14643 22.3262 7.17401 22.1023L8.62001 10.3029H2.00001C1.46878 10.3029 0.95931 10.122 0.583674 9.8C0.208039 9.47803 -0.00299072 9.04134 -0.00299072 8.586C-0.00299072 8.13066 0.208039 7.69397 0.583674 7.372C0.95931 7.05003 1.46878 6.86914 2.00001 6.86914H22C22.5312 6.86914 23.0407 7.05003 23.4163 7.372C23.792 7.69397 24.003 8.13066 24.003 8.586C24.003 9.04134 23.792 9.47803 23.4163 9.8C23.0407 10.122 22.5312 10.3029 22 10.3029H15.38L16.826 22.1057C16.8627 22.3336 16.8455 22.5655 16.7756 22.7876C16.7056 23.0096 16.5843 23.2174 16.4188 23.3985C16.2533 23.5796 16.047 23.7303 15.8122 23.8417C15.5774 23.9531 15.3188 24.0228 15.0519 24.0469C14.785 24.0709 14.5152 24.0487 14.2585 23.9815C14.0018 23.9144 13.7635 23.8037 13.5577 23.656C13.3519 23.5084 13.1829 23.3268 13.0606 23.122C12.9383 22.9172 12.8654 22.6934 12.846 22.464L12.2 17.1703H11.8ZM12 6.86743C9.79001 6.86743 8.00001 5.32971 8.00001 3.43371C8.00001 1.53771 9.79001 0 12 0C14.21 0 16 1.53771 16 3.43371C16.0005 4.34364 15.5795 5.2165 14.8294 5.8604C14.0793 6.5043 13.0616 6.86652 12 6.86743Z" fill="black"/>
</g>
<defs>
<clipPath id="clip0_201_30469">
<rect width="24" height="24" fill="white"/>
</clipPath>
</defs>
</svg>
