<svg width="24" height="24" viewBox="0 0 24 24" fill="none" xmlns="http://www.w3.org/2000/svg">
<path d="M12.962 5.04995C13.365 4.49789 13.8769 4.03432 14.4661 3.68788C15.0554 3.34144 15.7093 3.11949 16.3877 3.03573C17.0661 2.95197 17.7544 3.00819 18.4102 3.20091C19.0659 3.39362 19.6752 3.71875 20.2004 4.1562C20.7256 4.59365 21.1555 5.13414 21.4636 5.74428C21.7717 6.35441 21.9515 7.02124 21.9917 7.70356C22.032 8.38589 21.9319 9.06922 21.6977 9.71135C21.4635 10.3535 21.1001 10.9408 20.63 11.4369C20.1234 9.73531 19.1253 8.22132 17.7611 7.08513C16.3968 5.94895 14.7272 5.24126 12.962 5.05095V5.04995ZM3.37 11.4389C2.89989 10.9428 2.53651 10.3555 2.3023 9.71335C2.06809 9.07122 1.96802 8.38789 2.00828 7.70556C2.04853 7.02324 2.22826 6.35641 2.53636 5.74628C2.84445 5.13614 3.27437 4.59565 3.79956 4.1582C4.32475 3.72075 4.93405 3.39562 5.58983 3.20291C6.24561 3.01019 6.93394 2.95397 7.6123 3.03773C8.29066 3.12149 8.94465 3.34344 9.53386 3.68988C10.1231 4.03632 10.635 4.49989 11.038 5.05195C9.2728 5.24226 7.6032 5.94995 6.23893 7.08613C4.87465 8.22232 3.87655 9.73631 3.37 11.4379V11.4389ZM12 20.9999C11.0807 20.9999 10.1705 20.8189 9.32122 20.4671C8.47194 20.1153 7.70026 19.5997 7.05025 18.9497C6.40024 18.2997 5.88463 17.528 5.53284 16.6787C5.18106 15.8295 5 14.9192 5 13.9999C5 13.0807 5.18106 12.1704 5.53284 11.3212C5.88463 10.4719 6.40024 9.70021 7.05025 9.0502C7.70026 8.40019 8.47194 7.88457 9.32122 7.53279C10.1705 7.18101 11.0807 6.99995 12 6.99995C13.8565 6.99995 15.637 7.73744 16.9497 9.0502C18.2625 10.363 19 12.1434 19 13.9999C19 15.8565 18.2625 17.6369 16.9497 18.9497C15.637 20.2624 13.8565 20.9999 12 20.9999ZM13 12.9999V8.99995C13 8.73473 12.8946 8.48038 12.7071 8.29284C12.5196 8.1053 12.2652 7.99995 12 7.99995C11.7348 7.99995 11.4804 8.1053 11.2929 8.29284C11.1054 8.48038 11 8.73473 11 8.99995V13.9999C11 14.2652 11.1054 14.5195 11.2929 14.7071C11.4804 14.8946 11.7348 14.9999 12 14.9999H15C15.2652 14.9999 15.5196 14.8946 15.7071 14.7071C15.8946 14.5195 16 14.2652 16 13.9999C16 13.7347 15.8946 13.4804 15.7071 13.2928C15.5196 13.1053 15.2652 12.9999 15 12.9999H13Z" fill="black"/>
</svg>
