<svg width="24" height="24" viewBox="0 0 24 24" fill="none" xmlns="http://www.w3.org/2000/svg">
<path d="M12 22.3579C7.5 22.3579 3 16.3279 3 11.3579C3 8.97096 3.94821 6.68178 5.63604 4.99395C7.32387 3.30612 9.61305 2.35791 12 2.35791C14.3869 2.35791 16.6761 3.30612 18.364 4.99395C20.0518 6.68178 21 8.97096 21 11.3579C21 16.3279 16.5 22.3579 12 22.3579ZM10.026 16.1769C10.555 15.9849 11.446 14.2309 10.879 12.6739C10.313 11.1169 8.48 10.3539 7.974 10.5389C7.468 10.7229 6.554 12.4849 7.121 14.0419C7.687 15.5989 9.497 16.3689 10.026 16.1769ZM13.974 16.1769C14.503 16.3689 16.313 15.5989 16.879 14.0419C17.446 12.4849 16.532 10.7229 16.026 10.5389C15.52 10.3539 13.687 11.1169 13.121 12.6739C12.554 14.2309 13.445 15.9839 13.974 16.1769Z" fill="black"/>
</svg>
