<svg width="24" height="24" viewBox="0 0 24 24" fill="none" xmlns="http://www.w3.org/2000/svg">
<path d="M18.93 13.998C18.6701 13.9816 18.4269 13.8646 18.252 13.6716C18.0771 13.4787 17.9843 13.2252 17.9934 12.965C18.0025 12.7047 18.1128 12.4583 18.3008 12.2781C18.4888 12.0979 18.7396 11.9981 19 12H21C21.2652 12 21.5196 12.1054 21.7071 12.2929C21.8946 12.4804 22 12.7348 22 13C22 13.2652 21.8946 13.5196 21.7071 13.7071C21.5196 13.8946 21.2652 14 21 14H20.945C20.6985 16.1999 19.6499 18.2317 17.9998 19.7073C16.3496 21.1828 14.2136 21.9985 12 21.9985C9.78637 21.9985 7.65036 21.1828 6.00022 19.7073C4.35008 18.2317 3.30154 16.1999 3.055 14H3C2.73478 14 2.48043 13.8946 2.29289 13.7071C2.10536 13.5196 2 13.2652 2 13C2 12.7348 2.10536 12.4804 2.29289 12.2929C2.48043 12.1054 2.73478 12 3 12H5C5.26039 11.9981 5.51125 12.0979 5.69922 12.2781C5.8872 12.4583 5.99747 12.7047 6.00658 12.965C6.0157 13.2252 5.92295 13.4787 5.74804 13.6716C5.57314 13.8646 5.32988 13.9816 5.07 13.998C5.28618 15.4941 5.98051 16.8801 7.04929 17.949C8.11807 19.018 9.50396 19.7126 11 19.929V9.874C10.0595 9.62827 9.24061 9.04864 8.6962 8.24333C8.15179 7.43802 7.9191 6.4621 8.04156 5.49778C8.16403 4.53346 8.63329 3.64669 9.36172 3.00303C10.0901 2.35937 11.0279 2.00284 12 2C12.9743 1.99904 13.9154 2.35369 14.6467 2.99738C15.3781 3.64107 15.8493 4.52954 15.9721 5.49605C16.0948 6.46255 15.8606 7.44062 15.3134 8.24669C14.7662 9.05276 13.9436 9.6314 13 9.874V19.929C14.496 19.7126 15.8819 19.018 16.9507 17.949C18.0195 16.8801 18.7138 15.4941 18.93 13.998ZM12 8C12.5304 8 13.0391 7.78929 13.4142 7.41422C13.7893 7.03914 14 6.53044 14 6C14 5.46957 13.7893 4.96086 13.4142 4.58579C13.0391 4.21072 12.5304 4 12 4C11.4696 4 10.9609 4.21072 10.5858 4.58579C10.2107 4.96086 10 5.46957 10 6C10 6.53044 10.2107 7.03914 10.5858 7.41422C10.9609 7.78929 11.4696 8 12 8Z" fill="black"/>
</svg>
