<svg width="24" height="24" viewBox="0 0 24 24" fill="none" xmlns="http://www.w3.org/2000/svg">
<path d="M4.247 8.51001H4.196C3.54 8.51001 3.006 9.04701 3.006 9.70001V14.883C3.006 15.539 3.54 16.073 4.196 16.073H4.248C4.903 16.073 5.438 15.538 5.438 14.883V9.70001C5.43668 9.38463 5.31075 9.08257 5.08765 8.85965C4.86455 8.63674 4.56238 8.51106 4.247 8.51001ZM6.007 16.883C6.007 17.485 6.499 17.975 7.101 17.975H8.271V20.775C8.271 21.432 8.806 21.966 9.461 21.966H9.511C10.168 21.966 10.703 21.431 10.703 20.774V17.975H12.337V20.775C12.337 21.432 12.875 21.966 13.529 21.966H13.579C14.236 21.966 14.77 21.431 14.77 20.774V17.975H15.94C16.541 17.975 17.033 17.485 17.033 16.883V8.70101H6.007V16.883ZM14.266 3.73801L15.195 2.30501C15.2099 2.28335 15.2204 2.25892 15.2258 2.23316C15.2311 2.20739 15.2312 2.18082 15.2262 2.155C15.2211 2.12918 15.2109 2.10465 15.1961 2.08284C15.1814 2.06103 15.1625 2.0424 15.1404 2.02803C15.1184 2.01367 15.0937 2.00387 15.0678 1.99921C15.0419 1.99455 15.0153 1.99512 14.9896 2.0009C14.964 2.00668 14.9397 2.01754 14.9183 2.03284C14.8969 2.04815 14.8788 2.06758 14.865 2.09001L13.902 3.57301C13.1462 3.26578 12.3378 3.10885 11.522 3.11101C10.7055 3.1087 9.89642 3.26563 9.14 3.57301L8.179 2.09001C8.16491 2.06796 8.14657 2.04894 8.12505 2.03406C8.10353 2.01918 8.07926 2.00874 8.05366 2.00334C8.02806 1.99794 8.00164 1.9977 7.97595 2.00262C7.95025 2.00754 7.92579 2.01753 7.904 2.03201C7.88223 2.04609 7.86346 2.06434 7.84875 2.08569C7.83405 2.10705 7.82371 2.1311 7.81832 2.15647C7.81293 2.18183 7.8126 2.20801 7.81735 2.2335C7.8221 2.25899 7.83184 2.28329 7.846 2.30501L8.776 3.73801C7.1 4.56001 5.97 6.10701 5.97 7.88201C5.97 7.99201 5.976 8.09901 5.986 8.20501H17.056C17.0647 8.09756 17.0694 7.98981 17.07 7.88201C17.07 6.10701 15.94 4.56001 14.265 3.73801H14.266ZM8.955 6.30501C8.81391 6.30527 8.67848 6.24948 8.57853 6.1499C8.47857 6.05031 8.42227 5.9151 8.422 5.77401C8.42174 5.63291 8.47753 5.49749 8.57711 5.39753C8.67669 5.29758 8.81191 5.24127 8.953 5.24101C9.0941 5.24074 9.22952 5.29654 9.32947 5.39612C9.42943 5.4957 9.48574 5.63091 9.486 5.77201C9.48627 5.9131 9.43047 6.04852 9.33089 6.14848C9.23131 6.24844 9.0961 6.30474 8.955 6.30501ZM14.087 6.30501C14.0171 6.3052 13.9479 6.29164 13.8833 6.26509C13.8187 6.23853 13.7599 6.19951 13.7104 6.15025C13.6103 6.05076 13.5539 5.9156 13.5535 5.77451C13.5531 5.63341 13.6088 5.49794 13.7083 5.39789C13.8077 5.29784 13.9429 5.24141 14.084 5.24101C14.2251 5.24061 14.3606 5.29628 14.4606 5.39577C14.5607 5.49525 14.6171 5.63041 14.6175 5.77151C14.6179 5.9126 14.5622 6.04808 14.4627 6.14813C14.3633 6.24818 14.2281 6.30461 14.087 6.30501ZM18.845 8.51001H18.795C18.14 8.51001 17.604 9.04701 17.604 9.70001V14.883C17.604 15.539 18.141 16.073 18.795 16.073H18.845C19.502 16.073 20.036 15.538 20.036 14.883V9.70001C20.036 9.04601 19.501 8.51001 18.845 8.51001Z" fill="black"/>
</svg>
