<svg width="24" height="24" viewBox="0 0 24 24" fill="none" xmlns="http://www.w3.org/2000/svg">
<path d="M14.8 12.313C14.788 11.047 15.834 10.44 15.88 10.409C15.293 9.549 14.378 9.432 14.052 9.419C13.273 9.339 12.532 9.877 12.137 9.877C11.743 9.877 11.133 9.43 10.487 9.442C9.63799 9.455 8.85599 9.935 8.41899 10.696C7.53699 12.226 8.19299 14.493 9.05199 15.734C9.47199 16.341 9.97299 17.024 10.631 16.999C11.264 16.974 11.503 16.589 12.269 16.589C13.035 16.589 13.249 16.999 13.919 16.987C14.601 16.974 15.033 16.367 15.45 15.758C15.932 15.054 16.131 14.371 16.143 14.336C16.128 14.329 14.813 13.826 14.801 12.313H14.8ZM13.542 8.597C13.891 8.173 14.126 7.586 14.062 7C13.559 7.02 12.95 7.335 12.589 7.757C12.266 8.132 11.982 8.73 12.059 9.305C12.619 9.348 13.192 9.019 13.542 8.597Z" fill="black"/>
<path d="M6 4C5.46957 4 4.96086 4.21071 4.58579 4.58579C4.21071 4.96086 4 5.46957 4 6V18C4 18.5304 4.21071 19.0391 4.58579 19.4142C4.96086 19.7893 5.46957 20 6 20H18C18.5304 20 19.0391 19.7893 19.4142 19.4142C19.7893 19.0391 20 18.5304 20 18V6C20 5.46957 19.7893 4.96086 19.4142 4.58579C19.0391 4.21071 18.5304 4 18 4H6ZM6 2H18C19.0609 2 20.0783 2.42143 20.8284 3.17157C21.5786 3.92172 22 4.93913 22 6V18C22 19.0609 21.5786 20.0783 20.8284 20.8284C20.0783 21.5786 19.0609 22 18 22H6C4.93913 22 3.92172 21.5786 3.17157 20.8284C2.42143 20.0783 2 19.0609 2 18V6C2 4.93913 2.42143 3.92172 3.17157 3.17157C3.92172 2.42143 4.93913 2 6 2V2Z" fill="black"/>
</svg>
