<svg width="24" height="24" viewBox="0 0 24 24" fill="none" xmlns="http://www.w3.org/2000/svg">
<path d="M19 7H3C2.73478 7 2.48043 6.89464 2.29289 6.70711C2.10536 6.51957 2 6.26522 2 6V3C2 2.73478 2.10536 2.48043 2.29289 2.29289C2.48043 2.10536 2.73478 2 3 2H21C21.2652 2 21.5196 2.10536 21.7071 2.29289C21.8946 2.48043 22 2.73478 22 3V6C22 6.26522 21.8946 6.51957 21.7071 6.70711C21.5196 6.89464 21.2652 7 21 7H19ZM20 9V21C20 21.2652 19.8946 21.5196 19.7071 21.7071C19.5196 21.8946 19.2652 22 19 22H5C4.73478 22 4.48043 21.8946 4.29289 21.7071C4.10536 21.5196 4 21.2652 4 21V9H20ZM10 16C9.73478 16 9.48043 16.1054 9.29289 16.2929C9.10536 16.4804 9 16.7348 9 17C9 17.2652 9.10536 17.5196 9.29289 17.7071C9.48043 17.8946 9.73478 18 10 18H14C14.2652 18 14.5196 17.8946 14.7071 17.7071C14.8946 17.5196 15 17.2652 15 17C15 16.7348 14.8946 16.4804 14.7071 16.2929C14.5196 16.1054 14.2652 16 14 16H10Z" fill="black"/>
</svg>
