<svg width="24" height="24" viewBox="0 0 24 24" fill="none" xmlns="http://www.w3.org/2000/svg">
<path d="M12 22C6.477 22 2 17.523 2 12C2 6.477 6.477 2 12 2C17.523 2 22 6.477 22 12C22 17.523 17.523 22 12 22ZM12 20C14.1217 20 16.1566 19.1571 17.6569 17.6569C19.1571 16.1566 20 14.1217 20 12C20 9.87827 19.1571 7.84344 17.6569 6.34315C16.1566 4.84285 14.1217 4 12 4C9.87827 4 7.84344 4.84285 6.34315 6.34315C4.84285 7.84344 4 9.87827 4 12C4 14.1217 4.84285 16.1566 6.34315 17.6569C7.84344 19.1571 9.87827 20 12 20ZM11 13.586V8C11 7.73478 11.1054 7.48043 11.2929 7.29289C11.4804 7.10536 11.7348 7 12 7C12.2652 7 12.5196 7.10536 12.7071 7.29289C12.8946 7.48043 13 7.73478 13 8V13.586L15.536 11.05C15.7246 10.8678 15.9772 10.767 16.2394 10.7693C16.5016 10.7716 16.7524 10.8768 16.9378 11.0622C17.1232 11.2476 17.2284 11.4984 17.2307 11.7606C17.233 12.0228 17.1322 12.2754 16.95 12.464L12.707 16.707C12.6143 16.8002 12.5042 16.8741 12.3829 16.9246C12.2615 16.9751 12.1314 17.001 12 17.001C11.8686 17.001 11.7385 16.9751 11.6171 16.9246C11.4958 16.8741 11.3857 16.8002 11.293 16.707L7.05 12.464C6.86784 12.2754 6.76705 12.0228 6.76933 11.7606C6.7716 11.4984 6.87677 11.2476 7.06218 11.0622C7.24759 10.8768 7.4984 10.7716 7.7606 10.7693C8.0228 10.767 8.2754 10.8678 8.464 11.05L11 13.586Z" fill="black"/>
</svg>
