<svg width="24" height="24" viewBox="0 0 24 24" fill="none" xmlns="http://www.w3.org/2000/svg">
<path d="M13 10.414V16C13 16.2652 12.8946 16.5196 12.7071 16.7071C12.5196 16.8946 12.2652 17 12 17C11.7348 17 11.4804 16.8946 11.2929 16.7071C11.1054 16.5196 11 16.2652 11 16V10.414L8.464 12.95C8.37175 13.0455 8.26141 13.1217 8.1394 13.1741C8.0174 13.2265 7.88618 13.2541 7.7534 13.2552C7.62062 13.2564 7.48894 13.2311 7.36605 13.1808C7.24315 13.1305 7.1315 13.0563 7.0376 12.9624C6.94371 12.8685 6.86946 12.7569 6.81918 12.634C6.7689 12.5111 6.7436 12.3794 6.74475 12.2466C6.7459 12.1138 6.77349 11.9826 6.8259 11.8606C6.87831 11.7386 6.95449 11.6282 7.05 11.536L11.293 7.293C11.3857 7.19982 11.4958 7.12587 11.6171 7.0754C11.7385 7.02494 11.8686 6.99897 12 6.99897C12.1314 6.99897 12.2615 7.02494 12.3829 7.0754C12.5042 7.12587 12.6143 7.19982 12.707 7.293L16.95 11.536C17.0455 11.6282 17.1217 11.7386 17.1741 11.8606C17.2265 11.9826 17.2541 12.1138 17.2552 12.2466C17.2564 12.3794 17.2311 12.5111 17.1808 12.634C17.1305 12.7569 17.0563 12.8685 16.9624 12.9624C16.8685 13.0563 16.7569 13.1305 16.634 13.1808C16.5111 13.2311 16.3794 13.2564 16.2466 13.2552C16.1138 13.2541 15.9826 13.2265 15.8606 13.1741C15.7386 13.1217 15.6282 13.0455 15.536 12.95L13 10.414ZM12 22C6.477 22 2 17.523 2 12C2 6.477 6.477 2 12 2C17.523 2 22 6.477 22 12C22 17.523 17.523 22 12 22ZM12 20C14.1217 20 16.1566 19.1571 17.6569 17.6569C19.1571 16.1566 20 14.1217 20 12C20 9.87827 19.1571 7.84344 17.6569 6.34315C16.1566 4.84285 14.1217 4 12 4C9.87827 4 7.84344 4.84285 6.34315 6.34315C4.84285 7.84344 4 9.87827 4 12C4 14.1217 4.84285 16.1566 6.34315 17.6569C7.84344 19.1571 9.87827 20 12 20Z" fill="black"/>
</svg>
