<svg width="24" height="24" viewBox="0 0 24 24" fill="none" xmlns="http://www.w3.org/2000/svg">
<path d="M9.172 8.172C9.04057 8.1716 8.91035 8.1972 8.78885 8.24731C8.66734 8.29743 8.55695 8.37107 8.46401 8.46401C8.37107 8.55695 8.29743 8.66734 8.24731 8.78885C8.1972 8.91035 8.1716 9.04057 8.172 9.172V15.172C8.172 15.4372 8.27736 15.6916 8.46489 15.8791C8.65243 16.0666 8.90678 16.172 9.172 16.172C9.43722 16.172 9.69157 16.0666 9.87911 15.8791C10.0666 15.6916 10.172 15.4372 10.172 15.172V11.586L14.122 15.536C14.2149 15.6288 14.3252 15.7025 14.4466 15.7527C14.5679 15.8029 14.698 15.8287 14.8294 15.8287C14.9607 15.8287 15.0908 15.8027 15.2121 15.7524C15.3334 15.7021 15.4437 15.6284 15.5365 15.5355C15.6293 15.4426 15.703 15.3323 15.7532 15.2109C15.8034 15.0896 15.8292 14.9595 15.8292 14.8281C15.8292 14.6968 15.8032 14.5667 15.7529 14.4454C15.7026 14.3241 15.6289 14.2138 15.536 14.121L11.586 10.171H15.172C15.4372 10.171 15.6916 10.0656 15.8791 9.87811C16.0666 9.69057 16.172 9.43622 16.172 9.171C16.172 8.90578 16.0666 8.65143 15.8791 8.46389C15.6916 8.27636 15.4372 8.171 15.172 8.171H9.172V8.172ZM6 2H18C19.0609 2 20.0783 2.42143 20.8284 3.17157C21.5786 3.92172 22 4.93913 22 6V18C22 19.0609 21.5786 20.0783 20.8284 20.8284C20.0783 21.5786 19.0609 22 18 22H6C4.93913 22 3.92172 21.5786 3.17157 20.8284C2.42143 20.0783 2 19.0609 2 18V6C2 4.93913 2.42143 3.92172 3.17157 3.17157C3.92172 2.42143 4.93913 2 6 2V2Z" fill="black"/>
</svg>
