<svg width="24" height="24" viewBox="0 0 24 24" fill="none" xmlns="http://www.w3.org/2000/svg">
<path d="M6 4C5.46957 4 4.96086 4.21071 4.58579 4.58579C4.21071 4.96086 4 5.46957 4 6V18C4 18.5304 4.21071 19.0391 4.58579 19.4142C4.96086 19.7893 5.46957 20 6 20H18C18.5304 20 19.0391 19.7893 19.4142 19.4142C19.7893 19.0391 20 18.5304 20 18V6C20 5.46957 19.7893 4.96086 19.4142 4.58579C19.0391 4.21071 18.5304 4 18 4H6ZM6 2H18C19.0609 2 20.0783 2.42143 20.8284 3.17157C21.5786 3.92172 22 4.93913 22 6V18C22 19.0609 21.5786 20.0783 20.8284 20.8284C20.0783 21.5786 19.0609 22 18 22H6C4.93913 22 3.92172 21.5786 3.17157 20.8284C2.42143 20.0783 2 19.0609 2 18V6C2 4.93913 2.42143 3.92172 3.17157 3.17157C3.92172 2.42143 4.93913 2 6 2V2Z" fill="black"/>
<path d="M12.414 13.8279L8.464 9.87788C8.37122 9.7849 8.29767 9.67457 8.24753 9.55316C8.19739 9.43176 8.17166 9.30167 8.1718 9.17032C8.17194 9.03897 8.19795 8.90894 8.24834 8.78764C8.29873 8.66634 8.37253 8.55616 8.4655 8.46338C8.55848 8.3706 8.66882 8.29704 8.79022 8.24691C8.91162 8.19677 9.04171 8.17104 9.17306 8.17118C9.30441 8.17132 9.43445 8.19733 9.55574 8.24772C9.67704 8.29811 9.78722 8.37191 9.88 8.46488L13.83 12.4149V8.82788C13.83 8.56266 13.9354 8.30831 14.1229 8.12077C14.3104 7.93324 14.5648 7.82788 14.83 7.82788C15.0952 7.82788 15.3496 7.93324 15.5371 8.12077C15.7246 8.30831 15.83 8.56266 15.83 8.82788V14.8279C15.8304 14.9593 15.8048 15.0895 15.7547 15.211C15.7046 15.3325 15.6309 15.4429 15.538 15.5359C15.4451 15.6288 15.3347 15.7025 15.2132 15.7526C15.0916 15.8027 14.9614 15.8283 14.83 15.8279H8.83C8.56479 15.8279 8.31043 15.7225 8.1229 15.535C7.93536 15.3475 7.83 15.0931 7.83 14.8279C7.83 14.5627 7.93536 14.3083 8.1229 14.1208C8.31043 13.9332 8.56479 13.8279 8.83 13.8279H12.415H12.414Z" fill="black"/>
</svg>
