<svg width="24" height="24" viewBox="0 0 24 24" fill="none" xmlns="http://www.w3.org/2000/svg">
<path d="M12 22C6.477 22 2 17.523 2 12C2 6.477 6.477 2 12 2C17.523 2 22 6.477 22 12C22 17.523 17.523 22 12 22ZM12 20C14.1217 20 16.1566 19.1571 17.6569 17.6569C19.1571 16.1566 20 14.1217 20 12C20 9.87827 19.1571 7.84344 17.6569 6.34315C16.1566 4.84285 14.1217 4 12 4C9.87827 4 7.84344 4.84285 6.34315 6.34315C4.84285 7.84344 4 9.87827 4 12C4 14.1217 4.84285 16.1566 6.34315 17.6569C7.84344 19.1571 9.87827 20 12 20ZM12.414 13.828L8.464 9.878C8.27662 9.69023 8.17152 9.43571 8.1718 9.17044C8.17208 8.90517 8.27773 8.65088 8.4655 8.4635C8.65327 8.27612 8.90779 8.17102 9.17306 8.1713C9.43833 8.17158 9.69262 8.27723 9.88 8.465L13.83 12.415V8.828C13.83 8.56278 13.9354 8.30843 14.1229 8.12089C14.3104 7.93336 14.5648 7.828 14.83 7.828C15.0952 7.828 15.3496 7.93336 15.5371 8.12089C15.7246 8.30843 15.83 8.56278 15.83 8.828V14.828C15.8304 14.9594 15.8048 15.0896 15.7547 15.2112C15.7046 15.3327 15.6309 15.4431 15.538 15.536C15.4451 15.6289 15.3347 15.7026 15.2132 15.7527C15.0916 15.8028 14.9614 15.8284 14.83 15.828H8.83C8.56478 15.828 8.31043 15.7226 8.12289 15.5351C7.93536 15.3476 7.83 15.0932 7.83 14.828C7.83 14.5628 7.93536 14.3084 8.12289 14.1209C8.31043 13.9334 8.56478 13.828 8.83 13.828H12.415H12.414Z" fill="black"/>
</svg>
