<svg width="24" height="24" viewBox="0 0 24 24" fill="none" xmlns="http://www.w3.org/2000/svg">
<path d="M7.293 11.293C7.19982 11.3857 7.12587 11.4958 7.0754 11.6171C7.02494 11.7385 6.99897 11.8686 6.99897 12C6.99897 12.1314 7.02494 12.2615 7.0754 12.3829C7.12587 12.5042 7.19982 12.6143 7.293 12.707L11.536 16.95C11.6282 17.0455 11.7386 17.1217 11.8606 17.1741C11.9826 17.2265 12.1138 17.2541 12.2466 17.2552C12.3794 17.2564 12.5111 17.2311 12.634 17.1808C12.7569 17.1305 12.8685 17.0563 12.9624 16.9624C13.0563 16.8685 13.1305 16.7569 13.1808 16.634C13.2311 16.5111 13.2564 16.3794 13.2552 16.2466C13.2541 16.1138 13.2265 15.9826 13.1741 15.8606C13.1217 15.7386 13.0455 15.6282 12.95 15.536L10.414 13H16C16.2652 13 16.5196 12.8946 16.7071 12.7071C16.8946 12.5196 17 12.2652 17 12C17 11.7348 16.8946 11.4804 16.7071 11.2929C16.5196 11.1054 16.2652 11 16 11H10.414L12.95 8.464C13.0455 8.37175 13.1217 8.26141 13.1741 8.1394C13.2265 8.0174 13.2541 7.88618 13.2552 7.7534C13.2564 7.62062 13.2311 7.48894 13.1808 7.36605C13.1305 7.24315 13.0563 7.1315 12.9624 7.0376C12.8685 6.94371 12.7569 6.86946 12.634 6.81918C12.5111 6.7689 12.3794 6.7436 12.2466 6.74475C12.1138 6.7459 11.9826 6.77349 11.8606 6.8259C11.7386 6.87831 11.6282 6.95449 11.536 7.05L7.293 11.293ZM12 22C6.477 22 2 17.523 2 12C2 6.477 6.477 2 12 2C17.523 2 22 6.477 22 12C22 17.523 17.523 22 12 22Z" fill="black"/>
</svg>
