<svg width="24" height="24" viewBox="0 0 24 24" fill="none" xmlns="http://www.w3.org/2000/svg">
<path d="M6 4C5.46957 4 4.96086 4.21071 4.58579 4.58579C4.21071 4.96086 4 5.46957 4 6V18C4 18.5304 4.21071 19.0391 4.58579 19.4142C4.96086 19.7893 5.46957 20 6 20H18C18.5304 20 19.0391 19.7893 19.4142 19.4142C19.7893 19.0391 20 18.5304 20 18V6C20 5.46957 19.7893 4.96086 19.4142 4.58579C19.0391 4.21071 18.5304 4 18 4H6ZM6 2H18C19.0609 2 20.0783 2.42143 20.8284 3.17157C21.5786 3.92172 22 4.93913 22 6V18C22 19.0609 21.5786 20.0783 20.8284 20.8284C20.0783 21.5786 19.0609 22 18 22H6C4.93913 22 3.92172 21.5786 3.17157 20.8284C2.42143 20.0783 2 19.0609 2 18V6C2 4.93913 2.42143 3.92172 3.17157 3.17157C3.92172 2.42143 4.93913 2 6 2V2Z" fill="black"/>
<path d="M11.586 10.1719L15.536 14.1219C15.6288 14.2148 15.7025 14.3251 15.7527 14.4464C15.8029 14.5678 15.8287 14.6979 15.8287 14.8292C15.8287 14.9606 15.8027 15.0906 15.7524 15.212C15.7021 15.3333 15.6284 15.4435 15.5355 15.5364C15.4426 15.6292 15.3323 15.7029 15.2109 15.7531C15.0896 15.8033 14.9595 15.8291 14.8281 15.8291C14.6968 15.829 14.5667 15.8031 14.4454 15.7528C14.3241 15.7025 14.2138 15.6288 14.121 15.5359L10.171 11.5859V15.1719C10.171 15.4371 10.0656 15.6914 9.8781 15.879C9.69056 16.0665 9.43621 16.1719 9.17099 16.1719C8.90578 16.1719 8.65142 16.0665 8.46389 15.879C8.27635 15.6914 8.17099 15.4371 8.17099 15.1719V9.17188C8.1706 9.04045 8.19619 8.91023 8.24631 8.78873C8.29642 8.66722 8.37007 8.55683 8.463 8.46389C8.55594 8.37095 8.66634 8.29731 8.78784 8.24719C8.90935 8.19708 9.03956 8.17148 9.17099 8.17188H15.171C15.4362 8.17188 15.6906 8.27724 15.8781 8.46477C16.0656 8.65231 16.171 8.90666 16.171 9.17188C16.171 9.4371 16.0656 9.69145 15.8781 9.87899C15.6906 10.0665 15.4362 10.1719 15.171 10.1719H11.587H11.586Z" fill="black"/>
</svg>
