<svg width="24" height="24" viewBox="0 0 24 24" fill="none" xmlns="http://www.w3.org/2000/svg">
<path d="M14.828 15.828C14.9594 15.8284 15.0896 15.8028 15.2112 15.7527C15.3327 15.7026 15.4431 15.6289 15.536 15.536C15.6289 15.4431 15.7026 15.3327 15.7527 15.2112C15.8028 15.0896 15.8284 14.9594 15.828 14.828V8.828C15.828 8.56278 15.7226 8.30843 15.5351 8.12089C15.3476 7.93336 15.0932 7.828 14.828 7.828C14.5628 7.828 14.3084 7.93336 14.1209 8.12089C13.9334 8.30843 13.828 8.56278 13.828 8.828V12.414L9.878 8.464C9.69023 8.27662 9.43571 8.17152 9.17044 8.1718C8.90517 8.17208 8.65088 8.27773 8.4635 8.4655C8.27612 8.65327 8.17102 8.90779 8.1713 9.17306C8.17158 9.43833 8.27723 9.69262 8.465 9.88L12.415 13.83H8.828C8.56278 13.83 8.30843 13.9354 8.12089 14.1229C7.93336 14.3104 7.828 14.5648 7.828 14.83C7.828 15.0952 7.93336 15.3496 8.12089 15.5371C8.30843 15.7246 8.56278 15.83 8.828 15.83H14.828V15.828ZM12 22C6.477 22 2 17.523 2 12C2 6.477 6.477 2 12 2C17.523 2 22 6.477 22 12C22 17.523 17.523 22 12 22Z" fill="black"/>
</svg>
