<svg width="24" height="24" viewBox="0 0 24 24" fill="none" xmlns="http://www.w3.org/2000/svg">
<path d="M15.828 9.172C15.8284 9.04057 15.8028 8.91035 15.7527 8.78885C15.7026 8.66734 15.6289 8.55695 15.536 8.46401C15.4431 8.37107 15.3327 8.29743 15.2112 8.24731C15.0896 8.1972 14.9594 8.1716 14.828 8.172H8.828C8.56278 8.172 8.30843 8.27736 8.12089 8.46489C7.93336 8.65243 7.828 8.90678 7.828 9.172C7.828 9.43722 7.93336 9.69157 8.12089 9.87911C8.30843 10.0666 8.56278 10.172 8.828 10.172H12.414L8.464 14.122C8.27649 14.3096 8.1712 14.5641 8.1713 14.8294C8.17139 15.0946 8.27686 15.349 8.4645 15.5365C8.65214 15.724 8.90658 15.8293 9.17185 15.8292C9.43712 15.8291 9.69149 15.7236 9.879 15.536L13.829 11.586V15.172C13.829 15.4372 13.9344 15.6916 14.1219 15.8791C14.3094 16.0666 14.5638 16.172 14.829 16.172C15.0942 16.172 15.3486 16.0666 15.5361 15.8791C15.7236 15.6916 15.829 15.4372 15.829 15.172V9.172H15.828ZM6 2H18C19.0609 2 20.0783 2.42143 20.8284 3.17157C21.5786 3.92172 22 4.93913 22 6V18C22 19.0609 21.5786 20.0783 20.8284 20.8284C20.0783 21.5786 19.0609 22 18 22H6C4.93913 22 3.92172 21.5786 3.17157 20.8284C2.42143 20.0783 2 19.0609 2 18V6C2 4.93913 2.42143 3.92172 3.17157 3.17157C3.92172 2.42143 4.93913 2 6 2V2Z" fill="black"/>
</svg>
