<svg width="24" height="24" viewBox="0 0 24 24" fill="none" xmlns="http://www.w3.org/2000/svg">
<path d="M13.828 8.91407H8.24299C7.97778 8.91407 7.72342 8.80871 7.53589 8.62117C7.34835 8.43364 7.24299 8.17928 7.24299 7.91407C7.24299 7.64885 7.34835 7.3945 7.53589 7.20696C7.72342 7.01942 7.97778 6.91407 8.24299 6.91407H16.243C16.3744 6.91367 16.5046 6.93927 16.6261 6.98938C16.7476 7.0395 16.858 7.11314 16.951 7.20608C17.0439 7.29901 17.1176 7.40941 17.1677 7.53092C17.2178 7.65242 17.2434 7.78263 17.243 7.91407V15.9141C17.243 16.1793 17.1376 16.4336 16.9501 16.6212C16.7626 16.8087 16.5082 16.9141 16.243 16.9141C15.9778 16.9141 15.7234 16.8087 15.5359 16.6212C15.3483 16.4336 15.243 16.1793 15.243 15.9141V10.3281L8.46399 17.1071C8.27635 17.2946 8.02191 17.3999 7.75664 17.3998C7.49137 17.3997 7.237 17.2942 7.04949 17.1066C6.86198 16.9189 6.7567 16.6645 6.75679 16.3992C6.75688 16.1339 6.86235 15.8796 7.04999 15.6921L13.828 8.91407Z" fill="black"/>
</svg>
