<svg width="24" height="24" viewBox="0 0 24 24" fill="none" xmlns="http://www.w3.org/2000/svg">
<path d="M16.707 12.707C16.8002 12.6143 16.8741 12.5042 16.9246 12.3829C16.9751 12.2615 17.001 12.1314 17.001 12C17.001 11.8686 16.9751 11.7385 16.9246 11.6171C16.8741 11.4958 16.8002 11.3857 16.707 11.293L12.464 7.05C12.2754 6.86784 12.0228 6.76705 11.7606 6.76933C11.4984 6.7716 11.2476 6.87677 11.0622 7.06218C10.8768 7.24759 10.7716 7.4984 10.7693 7.7606C10.767 8.0228 10.8678 8.2754 11.05 8.464L13.586 11H8C7.73478 11 7.48043 11.1054 7.29289 11.2929C7.10536 11.4804 7 11.7348 7 12C7 12.2652 7.10536 12.5196 7.29289 12.7071C7.48043 12.8946 7.73478 13 8 13H13.586L11.05 15.536C10.8678 15.7246 10.767 15.9772 10.7693 16.2394C10.7716 16.5016 10.8768 16.7524 11.0622 16.9378C11.2476 17.1232 11.4984 17.2284 11.7606 17.2307C12.0228 17.233 12.2754 17.1322 12.464 16.95L16.707 12.707ZM6 2H18C19.0609 2 20.0783 2.42143 20.8284 3.17157C21.5786 3.92172 22 4.93913 22 6V18C22 19.0609 21.5786 20.0783 20.8284 20.8284C20.0783 21.5786 19.0609 22 18 22H6C4.93913 22 3.92172 21.5786 3.17157 20.8284C2.42143 20.0783 2 19.0609 2 18V6C2 4.93913 2.42143 3.92172 3.17157 3.17157C3.92172 2.42143 4.93913 2 6 2V2Z" fill="black"/>
</svg>
