<svg width="24" height="24" viewBox="0 0 24 24" fill="none" xmlns="http://www.w3.org/2000/svg">
<path d="M10.328 15.4H15.914C16.1792 15.4 16.4336 15.5054 16.6211 15.6929C16.8086 15.8805 16.914 16.1348 16.914 16.4C16.914 16.6652 16.8086 16.9196 16.6211 17.1071C16.4336 17.2947 16.1792 17.4 15.914 17.4H7.914C7.78257 17.4004 7.65235 17.3748 7.53085 17.3247C7.40934 17.2746 7.29895 17.2009 7.20601 17.108C7.11307 17.0151 7.03943 16.9047 6.98931 16.7832C6.9392 16.6617 6.9136 16.5315 6.914 16.4V8.40002C6.914 8.1348 7.01936 7.88045 7.20689 7.69291C7.39443 7.50538 7.64878 7.40002 7.914 7.40002C8.17921 7.40002 8.43357 7.50538 8.62111 7.69291C8.80864 7.88045 8.914 8.1348 8.914 8.40002V13.985L15.692 7.20702C15.7848 7.11411 15.8951 7.0404 16.0164 6.99009C16.1377 6.93978 16.2678 6.91386 16.3991 6.91382C16.5305 6.91377 16.6606 6.9396 16.7819 6.98982C16.9033 7.04004 17.0136 7.11368 17.1065 7.20652C17.1994 7.29937 17.2731 7.4096 17.3234 7.53093C17.3737 7.65227 17.3997 7.78232 17.3997 7.91367C17.3997 8.04502 17.3739 8.17509 17.3237 8.29646C17.2735 8.41782 17.1998 8.52811 17.107 8.62102L10.328 15.4Z" fill="black"/>
</svg>
