<svg width="24" height="24" viewBox="0 0 24 24" fill="none" xmlns="http://www.w3.org/2000/svg">
<path d="M12 22C6.477 22 2 17.523 2 12C2 6.477 6.477 2 12 2C17.523 2 22 6.477 22 12C22 17.523 17.523 22 12 22ZM12 20C14.1217 20 16.1566 19.1571 17.6569 17.6569C19.1571 16.1566 20 14.1217 20 12C20 9.87827 19.1571 7.84344 17.6569 6.34315C16.1566 4.84285 14.1217 4 12 4C9.87827 4 7.84344 4.84285 6.34315 6.34315C4.84285 7.84344 4 9.87827 4 12C4 14.1217 4.84285 16.1566 6.34315 17.6569C7.84344 19.1571 9.87827 20 12 20ZM13.828 11.586L9.878 15.536C9.78509 15.6288 9.6748 15.7025 9.55343 15.7527C9.43207 15.8029 9.302 15.8287 9.17065 15.8287C9.0393 15.8287 8.90924 15.8027 8.78791 15.7524C8.66658 15.7021 8.55634 15.6284 8.4635 15.5355C8.37066 15.4426 8.29702 15.3323 8.2468 15.2109C8.19658 15.0896 8.17075 14.9595 8.1708 14.8281C8.17089 14.5629 8.27636 14.3085 8.464 14.121L12.414 10.171H8.828C8.56278 10.171 8.30843 10.0656 8.12089 9.87811C7.93336 9.69057 7.828 9.43622 7.828 9.171C7.828 8.90578 7.93336 8.65143 8.12089 8.46389C8.30843 8.27636 8.56278 8.171 8.828 8.171H14.828C14.9594 8.1706 15.0896 8.1962 15.2112 8.24631C15.3327 8.29643 15.4431 8.37007 15.536 8.46301C15.6289 8.55595 15.7026 8.66634 15.7527 8.78785C15.8028 8.90935 15.8284 9.03957 15.828 9.171V15.171C15.828 15.4362 15.7226 15.6906 15.5351 15.8781C15.3476 16.0656 15.0932 16.171 14.828 16.171C14.5628 16.171 14.3084 16.0656 14.1209 15.8781C13.9334 15.6906 13.828 15.4362 13.828 15.171V11.587V11.586Z" fill="black"/>
</svg>
