<svg width="24" height="24" viewBox="0 0 24 24" fill="none" xmlns="http://www.w3.org/2000/svg">
<path d="M6 4C5.46957 4 4.96086 4.21071 4.58579 4.58579C4.21071 4.96086 4 5.46957 4 6V18C4 18.5304 4.21071 19.0391 4.58579 19.4142C4.96086 19.7893 5.46957 20 6 20H18C18.5304 20 19.0391 19.7893 19.4142 19.4142C19.7893 19.0391 20 18.5304 20 18V6C20 5.46957 19.7893 4.96086 19.4142 4.58579C19.0391 4.21071 18.5304 4 18 4H6ZM6 2H18C19.0609 2 20.0783 2.42143 20.8284 3.17157C21.5786 3.92172 22 4.93913 22 6V18C22 19.0609 21.5786 20.0783 20.8284 20.8284C20.0783 21.5786 19.0609 22 18 22H6C4.93913 22 3.92172 21.5786 3.17157 20.8284C2.42143 20.0783 2 19.0609 2 18V6C2 4.93913 2.42143 3.92172 3.17157 3.17157C3.92172 2.42143 4.93913 2 6 2V2Z" fill="black"/>
<path d="M11 13.586V8C11 7.73478 11.1054 7.48043 11.2929 7.29289C11.4804 7.10536 11.7348 7 12 7C12.2652 7 12.5196 7.10536 12.7071 7.29289C12.8946 7.48043 13 7.73478 13 8V13.586L15.536 11.05C15.7246 10.8678 15.9772 10.767 16.2394 10.7693C16.5016 10.7716 16.7524 10.8768 16.9378 11.0622C17.1232 11.2476 17.2284 11.4984 17.2307 11.7606C17.2329 12.0228 17.1322 12.2754 16.95 12.464L12.707 16.707C12.6143 16.8002 12.5042 16.8741 12.3828 16.9246C12.2615 16.9751 12.1314 17.001 12 17.001C11.8686 17.001 11.7385 16.9751 11.6171 16.9246C11.4958 16.8741 11.3856 16.8002 11.293 16.707L7.04999 12.464C6.95448 12.3718 6.8783 12.2614 6.82589 12.1394C6.77348 12.0174 6.7459 11.8862 6.74474 11.7534C6.74359 11.6206 6.76889 11.4889 6.81917 11.366C6.86945 11.2431 6.94371 11.1315 7.0376 11.0376C7.13149 10.9437 7.24314 10.8695 7.36604 10.8192C7.48894 10.7689 7.62062 10.7436 7.75339 10.7448C7.88617 10.7459 8.01739 10.7735 8.1394 10.8259C8.2614 10.8783 8.37175 10.9545 8.46399 11.05L11 13.586Z" fill="black"/>
</svg>
