<svg width="24" height="24" viewBox="0 0 24 24" fill="none" xmlns="http://www.w3.org/2000/svg">
<path d="M11 18.5729V5.41894L8.46399 7.95394C8.27539 8.1361 8.02279 8.23689 7.76059 8.23461C7.4984 8.23233 7.24758 8.12716 7.06217 7.94176C6.87677 7.75635 6.7716 7.50554 6.76932 7.24334C6.76704 6.98114 6.86784 6.72854 7.04999 6.53994L11.293 2.29694C11.4805 2.10947 11.7348 2.00415 12 2.00415C12.2652 2.00415 12.5195 2.10947 12.707 2.29694L16.95 6.53994C17.0455 6.63218 17.1217 6.74253 17.1741 6.86453C17.2265 6.98654 17.2541 7.11776 17.2552 7.25054C17.2564 7.38332 17.2311 7.515 17.1808 7.63789C17.1305 7.76079 17.0563 7.87244 16.9624 7.96633C16.8685 8.06022 16.7568 8.13448 16.6339 8.18476C16.5111 8.23504 16.3794 8.26034 16.2466 8.25919C16.1138 8.25803 15.9826 8.23045 15.8606 8.17804C15.7386 8.12563 15.6282 8.04945 15.536 7.95394L13 5.41994V18.5739L15.536 16.0379C15.6282 15.9424 15.7386 15.8662 15.8606 15.8138C15.9826 15.7614 16.1138 15.7338 16.2466 15.7327C16.3794 15.7315 16.5111 15.7568 16.6339 15.8071C16.7568 15.8574 16.8685 15.9316 16.9624 16.0255C17.0563 16.1194 17.1305 16.2311 17.1808 16.354C17.2311 16.4769 17.2564 16.6086 17.2552 16.7413C17.2541 16.8741 17.2265 17.0053 17.1741 17.1273C17.1217 17.2493 17.0455 17.3597 16.95 17.4519L12.707 21.6949C12.6143 21.7881 12.5042 21.8621 12.3828 21.9125C12.2615 21.963 12.1314 21.989 12 21.989C11.8686 21.989 11.7385 21.963 11.6171 21.9125C11.4958 21.8621 11.3856 21.7881 11.293 21.6949L7.04999 17.4509C6.95448 17.3587 6.8783 17.2483 6.82589 17.1263C6.77348 17.0043 6.7459 16.8731 6.74474 16.7403C6.74359 16.6076 6.76889 16.4759 6.81917 16.353C6.86945 16.2301 6.94371 16.1184 7.0376 16.0245C7.13149 15.9306 7.24314 15.8564 7.36604 15.8061C7.48894 15.7558 7.62062 15.7305 7.75339 15.7317C7.88617 15.7328 8.01739 15.7604 8.1394 15.8128C8.2614 15.8652 8.37175 15.9414 8.46399 16.0369L11 18.5729Z" fill="black"/>
</svg>
