<svg width="24" height="24" viewBox="0 0 24 24" fill="none" xmlns="http://www.w3.org/2000/svg">
<path d="M5.423 10.996H18.577L16.04 8.46C15.8525 8.27236 15.7472 8.01791 15.7473 7.75264C15.7473 7.6213 15.7733 7.49124 15.8236 7.36991C15.8739 7.24858 15.9476 7.13834 16.0405 7.0455C16.1334 6.95265 16.2437 6.87902 16.3651 6.8288C16.4864 6.77857 16.6165 6.75275 16.7479 6.7528C17.0131 6.75289 17.2675 6.85836 17.455 7.046L21.697 11.289C21.8845 11.4765 21.9898 11.7308 21.9898 11.996C21.9898 12.2612 21.8845 12.5155 21.697 12.703L17.455 16.945C17.3622 17.0379 17.2519 17.1116 17.1306 17.1619C17.0093 17.2122 16.8792 17.2382 16.7479 17.2382C16.6165 17.2382 16.4864 17.2124 16.3651 17.1622C16.2437 17.112 16.1334 17.0383 16.0405 16.9455C15.9476 16.8527 15.8739 16.7424 15.8236 16.6211C15.7733 16.4998 15.7473 16.3697 15.7473 16.2384C15.7472 15.9731 15.8525 15.7186 16.04 15.531L18.576 12.996H5.423L7.96 15.53C8.05284 15.6229 8.12648 15.7332 8.1767 15.8546C8.22692 15.9759 8.25275 16.106 8.2527 16.2374C8.25266 16.3687 8.22674 16.4988 8.17643 16.6201C8.12612 16.7414 8.05241 16.8517 7.9595 16.9445C7.86659 17.0373 7.7563 17.111 7.63493 17.1612C7.51357 17.2114 7.38349 17.2372 7.25215 17.2372C7.1208 17.2372 6.99074 17.2112 6.86941 17.1609C6.74808 17.1106 6.63784 17.0369 6.545 16.944L2.302 12.703C2.20881 12.6103 2.13487 12.5002 2.0844 12.3789C2.03394 12.2575 2.00797 12.1274 2.00797 11.996C2.00797 11.8646 2.03394 11.7345 2.0844 11.6131C2.13487 11.4918 2.20881 11.3817 2.302 11.289L6.544 7.046C6.73151 6.85822 6.98593 6.75263 7.25129 6.75244C7.51666 6.75225 7.77123 6.85749 7.959 7.045C8.14677 7.23251 8.25237 7.48693 8.25256 7.75229C8.25274 8.01765 8.14751 8.27222 7.96 8.46L5.423 10.996Z" fill="black"/>
</svg>
