<svg width="24" height="24" viewBox="0 0 24 24" fill="none" xmlns="http://www.w3.org/2000/svg">
<path d="M6 4C5.46957 4 4.96086 4.21071 4.58579 4.58579C4.21071 4.96086 4 5.46957 4 6V18C4 18.5304 4.21071 19.0391 4.58579 19.4142C4.96086 19.7893 5.46957 20 6 20H18C18.5304 20 19.0391 19.7893 19.4142 19.4142C19.7893 19.0391 20 18.5304 20 18V6C20 5.46957 19.7893 4.96086 19.4142 4.58579C19.0391 4.21071 18.5304 4 18 4H6ZM6 2H18C19.0609 2 20.0783 2.42143 20.8284 3.17157C21.5786 3.92172 22 4.93913 22 6V18C22 19.0609 21.5786 20.0783 20.8284 20.8284C20.0783 21.5786 19.0609 22 18 22H6C4.93913 22 3.92172 21.5786 3.17157 20.8284C2.42143 20.0783 2 19.0609 2 18V6C2 4.93913 2.42143 3.92172 3.17157 3.17157C3.92172 2.42143 4.93913 2 6 2V2Z" fill="black"/>
<path d="M13.586 13H8C7.73478 13 7.48043 12.8946 7.29289 12.7071C7.10536 12.5196 7 12.2652 7 12C7 11.7348 7.10536 11.4804 7.29289 11.2929C7.48043 11.1054 7.73478 11 8 11H13.586L11.05 8.464C10.8678 8.2754 10.767 8.02279 10.7693 7.7606C10.7716 7.4984 10.8768 7.24759 11.0622 7.06218C11.2476 6.87677 11.4984 6.7716 11.7606 6.76932C12.0228 6.76705 12.2754 6.86784 12.464 7.05L16.707 11.293C16.8002 11.3857 16.8741 11.4958 16.9246 11.6171C16.9751 11.7385 17.001 11.8686 17.001 12C17.001 12.1314 16.9751 12.2615 16.9246 12.3829C16.8741 12.5042 16.8002 12.6143 16.707 12.707L12.464 16.95C12.3718 17.0455 12.2614 17.1217 12.1394 17.1741C12.0174 17.2265 11.8862 17.2541 11.7534 17.2552C11.6206 17.2564 11.4889 17.2311 11.366 17.1808C11.2431 17.1305 11.1315 17.0563 11.0376 16.9624C10.9437 16.8685 10.8695 16.7568 10.8192 16.634C10.7689 16.5111 10.7436 16.3794 10.7448 16.2466C10.7459 16.1138 10.7735 15.9826 10.8259 15.8606C10.8783 15.7386 10.9545 15.6282 11.05 15.536L13.586 13Z" fill="black"/>
</svg>
