<svg width="24" height="24" viewBox="0 0 24 24" fill="none" xmlns="http://www.w3.org/2000/svg">
<path d="M11.293 16.707C11.3857 16.8002 11.4958 16.8741 11.6171 16.9246C11.7385 16.9751 11.8686 17.001 12 17.001C12.1314 17.001 12.2615 16.9751 12.3829 16.9246C12.5042 16.8741 12.6143 16.8002 12.707 16.707L16.95 12.464C17.0455 12.3718 17.1217 12.2614 17.1741 12.1394C17.2265 12.0174 17.2541 11.8862 17.2552 11.7534C17.2564 11.6206 17.2311 11.4889 17.1808 11.366C17.1305 11.2431 17.0563 11.1315 16.9624 11.0376C16.8685 10.9437 16.7569 10.8695 16.634 10.8192C16.5111 10.7689 16.3794 10.7436 16.2466 10.7448C16.1138 10.7459 15.9826 10.7735 15.8606 10.8259C15.7386 10.8783 15.6282 10.9545 15.536 11.05L13 13.586V8C13 7.73478 12.8946 7.48043 12.7071 7.29289C12.5196 7.10536 12.2652 7 12 7C11.7348 7 11.4804 7.10536 11.2929 7.29289C11.1054 7.48043 11 7.73478 11 8V13.586L8.464 11.05C8.37175 10.9545 8.26141 10.8783 8.1394 10.8259C8.0174 10.7735 7.88618 10.7459 7.7534 10.7448C7.62062 10.7436 7.48894 10.7689 7.36605 10.8192C7.24315 10.8695 7.1315 10.9437 7.0376 11.0376C6.94371 11.1315 6.86946 11.2431 6.81918 11.366C6.7689 11.4889 6.7436 11.6206 6.74475 11.7534C6.7459 11.8862 6.77349 12.0174 6.8259 12.1394C6.87831 12.2614 6.95449 12.3718 7.05 12.464L11.293 16.707ZM6 2H18C19.0609 2 20.0783 2.42143 20.8284 3.17157C21.5786 3.92172 22 4.93913 22 6V18C22 19.0609 21.5786 20.0783 20.8284 20.8284C20.0783 21.5786 19.0609 22 18 22H6C4.93913 22 3.92172 21.5786 3.17157 20.8284C2.42143 20.0783 2 19.0609 2 18V6C2 4.93913 2.42143 3.92172 3.17157 3.17157C3.92172 2.42143 4.93913 2 6 2V2Z" fill="black"/>
</svg>
