<svg width="24" height="24" viewBox="0 0 24 24" fill="none" xmlns="http://www.w3.org/2000/svg">
<path d="M8.172 14.828C8.1716 14.9594 8.1972 15.0896 8.24731 15.2112C8.29743 15.3327 8.37107 15.4431 8.46401 15.536C8.55695 15.6289 8.66734 15.7026 8.78885 15.7527C8.91035 15.8028 9.04057 15.8284 9.172 15.828H15.172C15.4372 15.828 15.6916 15.7226 15.8791 15.5351C16.0666 15.3476 16.172 15.0932 16.172 14.828C16.172 14.5628 16.0666 14.3084 15.8791 14.1209C15.6916 13.9334 15.4372 13.828 15.172 13.828H11.586L15.536 9.878C15.6288 9.78509 15.7025 9.6748 15.7527 9.55343C15.8029 9.43207 15.8287 9.302 15.8287 9.17065C15.8287 9.0393 15.8027 8.90924 15.7524 8.78791C15.7021 8.66658 15.6284 8.55634 15.5355 8.4635C15.4426 8.37066 15.3323 8.29702 15.2109 8.2468C15.0896 8.19658 14.9595 8.17075 14.8281 8.1708C14.6968 8.17084 14.5667 8.19676 14.4454 8.24707C14.3241 8.29738 14.2138 8.37109 14.121 8.464L10.171 12.414V8.828C10.171 8.56278 10.0656 8.30843 9.87811 8.12089C9.69057 7.93336 9.43622 7.828 9.171 7.828C8.90578 7.828 8.65143 7.93336 8.46389 8.12089C8.27636 8.30843 8.171 8.56278 8.171 8.828V14.828H8.172ZM12 22C6.477 22 2 17.523 2 12C2 6.477 6.477 2 12 2C17.523 2 22 6.477 22 12C22 17.523 17.523 22 12 22Z" fill="black"/>
</svg>
