<svg width="24" height="24" viewBox="0 0 24 24" fill="none" xmlns="http://www.w3.org/2000/svg">
<path d="M8.75699 10.3281V15.9141C8.75699 16.1793 8.65164 16.4336 8.4641 16.6212C8.27656 16.8087 8.02221 16.9141 7.75699 16.9141C7.49178 16.9141 7.23742 16.8087 7.04989 16.6212C6.86235 16.4336 6.75699 16.1793 6.75699 15.9141V7.91407C6.7566 7.78263 6.78219 7.65242 6.83231 7.53092C6.88242 7.40941 6.95607 7.29901 7.049 7.20608C7.14194 7.11314 7.25234 7.0395 7.37384 6.98938C7.49535 6.93927 7.62556 6.91367 7.75699 6.91407H15.757C16.0222 6.91407 16.2766 7.01942 16.4641 7.20696C16.6516 7.3945 16.757 7.64885 16.757 7.91407C16.757 8.17928 16.6516 8.43364 16.4641 8.62117C16.2766 8.80871 16.0222 8.91407 15.757 8.91407H10.172L16.95 15.6921C17.0429 15.7849 17.1166 15.8951 17.1669 16.0165C17.2172 16.1378 17.2431 16.2679 17.2432 16.3992C17.2432 16.5306 17.2174 16.6606 17.1672 16.782C17.117 16.9034 17.0433 17.0137 16.9505 17.1066C16.8576 17.1995 16.7474 17.2732 16.6261 17.3235C16.5047 17.3738 16.3747 17.3997 16.2433 17.3998C16.112 17.3998 15.9819 17.374 15.8606 17.3238C15.7392 17.2735 15.6289 17.1999 15.536 17.1071L8.75699 10.3281Z" fill="black"/>
</svg>
