<svg width="24" height="24" viewBox="0 0 24 24" fill="none" xmlns="http://www.w3.org/2000/svg">
<path d="M6 4C5.46957 4 4.96086 4.21071 4.58579 4.58579C4.21071 4.96086 4 5.46957 4 6V18C4 18.5304 4.21071 19.0391 4.58579 19.4142C4.96086 19.7893 5.46957 20 6 20H18C18.5304 20 19.0391 19.7893 19.4142 19.4142C19.7893 19.0391 20 18.5304 20 18V6C20 5.46957 19.7893 4.96086 19.4142 4.58579C19.0391 4.21071 18.5304 4 18 4H6ZM6 2H18C19.0609 2 20.0783 2.42143 20.8284 3.17157C21.5786 3.92172 22 4.93913 22 6V18C22 19.0609 21.5786 20.0783 20.8284 20.8284C20.0783 21.5786 19.0609 22 18 22H6C4.93913 22 3.92172 21.5786 3.17157 20.8284C2.42143 20.0783 2 19.0609 2 18V6C2 4.93913 2.42143 3.92172 3.17157 3.17157C3.92172 2.42143 4.93913 2 6 2V2Z" fill="black"/>
<path d="M13 10.4141V16.0001C13 16.2653 12.8947 16.5196 12.7071 16.7072C12.5196 16.8947 12.2652 17.0001 12 17.0001C11.7348 17.0001 11.4804 16.8947 11.2929 16.7072C11.1054 16.5196 11 16.2653 11 16.0001V10.4141L8.46401 12.9501C8.37176 13.0456 8.26142 13.1218 8.13941 13.1742C8.01741 13.2266 7.88619 13.2542 7.75341 13.2553C7.62063 13.2565 7.48895 13.2312 7.36605 13.1809C7.24316 13.1306 7.13151 13.0563 7.03761 12.9625C6.94372 12.8686 6.86947 12.7569 6.81919 12.634C6.76891 12.5111 6.7436 12.3794 6.74476 12.2467C6.74591 12.1139 6.7735 11.9827 6.82591 11.8607C6.87832 11.7386 6.9545 11.6283 7.05001 11.5361L11.293 7.29306C11.3857 7.19987 11.4958 7.12592 11.6172 7.07546C11.7385 7.025 11.8686 6.99902 12 6.99902C12.1314 6.99902 12.2615 7.025 12.3829 7.07546C12.5042 7.12592 12.6144 7.19987 12.707 7.29306L16.95 11.5361C17.0455 11.6283 17.1217 11.7386 17.1741 11.8607C17.2265 11.9827 17.2541 12.1139 17.2553 12.2467C17.2564 12.3794 17.2311 12.5111 17.1808 12.634C17.1305 12.7569 17.0563 12.8686 16.9624 12.9625C16.8685 13.0563 16.7569 13.1306 16.634 13.1809C16.5111 13.2312 16.3794 13.2565 16.2466 13.2553C16.1138 13.2542 15.9826 13.2266 15.8606 13.1742C15.7386 13.1218 15.6283 13.0456 15.536 12.9501L13 10.4141Z" fill="black"/>
</svg>
