<svg width="24" height="24" viewBox="0 0 24 24" fill="none" xmlns="http://www.w3.org/2000/svg">
<path d="M12 22C6.477 22 2 17.523 2 12C2 6.477 6.477 2 12 2C17.523 2 22 6.477 22 12C22 17.523 17.523 22 12 22ZM12 20C14.1217 20 16.1566 19.1571 17.6569 17.6569C19.1571 16.1566 20 14.1217 20 12C20 9.87827 19.1571 7.84344 17.6569 6.34315C16.1566 4.84285 14.1217 4 12 4C9.87827 4 7.84344 4.84285 6.34315 6.34315C4.84285 7.84344 4 9.87827 4 12C4 14.1217 4.84285 16.1566 6.34315 17.6569C7.84344 19.1571 9.87827 20 12 20ZM13.586 13H8C7.73478 13 7.48043 12.8946 7.29289 12.7071C7.10536 12.5196 7 12.2652 7 12C7 11.7348 7.10536 11.4804 7.29289 11.2929C7.48043 11.1054 7.73478 11 8 11H13.586L11.05 8.464C10.9545 8.37175 10.8783 8.26141 10.8259 8.1394C10.7735 8.0174 10.7459 7.88618 10.7448 7.7534C10.7436 7.62062 10.7689 7.48894 10.8192 7.36605C10.8695 7.24315 10.9437 7.1315 11.0376 7.0376C11.1315 6.94371 11.2431 6.86946 11.366 6.81918C11.4889 6.7689 11.6206 6.7436 11.7534 6.74475C11.8862 6.7459 12.0174 6.77349 12.1394 6.8259C12.2614 6.87831 12.3718 6.95449 12.464 7.05L16.707 11.293C16.8002 11.3857 16.8741 11.4958 16.9246 11.6171C16.9751 11.7385 17.001 11.8686 17.001 12C17.001 12.1314 16.9751 12.2615 16.9246 12.3829C16.8741 12.5042 16.8002 12.6143 16.707 12.707L12.464 16.95C12.3718 17.0455 12.2614 17.1217 12.1394 17.1741C12.0174 17.2265 11.8862 17.2541 11.7534 17.2552C11.6206 17.2564 11.4889 17.2311 11.366 17.1808C11.2431 17.1305 11.1315 17.0563 11.0376 16.9624C10.9437 16.8685 10.8695 16.7569 10.8192 16.634C10.7689 16.5111 10.7436 16.3794 10.7448 16.2466C10.7459 16.1138 10.7735 15.9826 10.8259 15.8606C10.8783 15.7386 10.9545 15.6282 11.05 15.536L13.586 13Z" fill="black"/>
</svg>
