<svg width="24" height="24" viewBox="0 0 24 24" fill="none" xmlns="http://www.w3.org/2000/svg">
<path d="M15.4 13.985V8.39998C15.4 8.13476 15.5054 7.88041 15.6929 7.69287C15.8804 7.50534 16.1348 7.39998 16.4 7.39998C16.6652 7.39998 16.9196 7.50534 17.1071 7.69287C17.2946 7.88041 17.4 8.13476 17.4 8.39998V16.4C17.4004 16.5314 17.3748 16.6616 17.3247 16.7831C17.2746 16.9046 17.2009 17.015 17.108 17.108C17.0151 17.2009 16.9047 17.2746 16.7832 17.3247C16.6616 17.3748 16.5314 17.4004 16.4 17.4H8.4C8.13478 17.4 7.88043 17.2946 7.69289 17.1071C7.50536 16.9196 7.4 16.6652 7.4 16.4C7.4 16.1348 7.50536 15.8804 7.69289 15.6929C7.88043 15.5053 8.13478 15.4 8.4 15.4H13.985L7.207 8.62098C7.02484 8.43238 6.92405 8.17978 6.92633 7.91758C6.9286 7.65538 7.03377 7.40457 7.21918 7.21916C7.40459 7.03375 7.6554 6.92859 7.9176 6.92631C8.1798 6.92403 8.4324 7.02482 8.621 7.20698L15.4 13.985Z" fill="black"/>
</svg>
