<svg width="24" height="24" viewBox="0 0 24 24" fill="none" xmlns="http://www.w3.org/2000/svg">
<path d="M11 8.57104L7.05 12.521C6.8614 12.7032 6.60879 12.804 6.3466 12.8017C6.0844 12.7994 5.83359 12.6943 5.64818 12.5089C5.46277 12.3235 5.3576 12.0726 5.35532 11.8104C5.35305 11.5482 5.45384 11.2956 5.636 11.107L11.293 5.45004C11.3857 5.35686 11.4958 5.28291 11.6171 5.23244C11.7385 5.18198 11.8686 5.15601 12 5.15601C12.1314 5.15601 12.2615 5.18198 12.3829 5.23244C12.5042 5.28291 12.6143 5.35686 12.707 5.45004L18.364 11.107C18.5417 11.2965 18.6386 11.5476 18.6344 11.8073C18.6302 12.067 18.5251 12.3148 18.3414 12.4984C18.1577 12.682 17.9098 12.7869 17.6501 12.791C17.3904 12.795 17.1393 12.6978 16.95 12.52L13 8.57004V18.156C13 18.4213 12.8946 18.6756 12.7071 18.8631C12.5196 19.0507 12.2652 19.156 12 19.156C11.7348 19.156 11.4804 19.0507 11.2929 18.8631C11.1054 18.6756 11 18.4213 11 18.156V8.57004V8.57104Z" fill="black"/>
</svg>
