<svg width="24" height="24" viewBox="0 0 24 24" fill="none" xmlns="http://www.w3.org/2000/svg">
<path d="M12 22C6.477 22 2 17.523 2 12C2 6.477 6.477 2 12 2C17.523 2 22 6.477 22 12C22 17.523 17.523 22 12 22ZM12 20C14.1217 20 16.1566 19.1571 17.6569 17.6569C19.1571 16.1566 20 14.1217 20 12C20 9.87827 19.1571 7.84344 17.6569 6.34315C16.1566 4.84285 14.1217 4 12 4C9.87827 4 7.84344 4.84285 6.34315 6.34315C4.84285 7.84344 4 9.87827 4 12C4 14.1217 4.84285 16.1566 6.34315 17.6569C7.84344 19.1571 9.87827 20 12 20ZM11.586 10.172L15.536 14.122C15.6288 14.2149 15.7025 14.3252 15.7527 14.4466C15.8029 14.5679 15.8287 14.698 15.8287 14.8294C15.8287 14.9607 15.8027 15.0908 15.7524 15.2121C15.7021 15.3334 15.6284 15.4437 15.5355 15.5365C15.4426 15.6293 15.3323 15.703 15.2109 15.7532C15.0896 15.8034 14.9595 15.8292 14.8281 15.8292C14.6968 15.8292 14.5667 15.8032 14.4454 15.7529C14.3241 15.7026 14.2138 15.6289 14.121 15.536L10.171 11.586V15.172C10.171 15.4372 10.0656 15.6916 9.87811 15.8791C9.69057 16.0666 9.43622 16.172 9.171 16.172C8.90578 16.172 8.65143 16.0666 8.46389 15.8791C8.27636 15.6916 8.171 15.4372 8.171 15.172V9.172C8.1706 9.04057 8.1962 8.91035 8.24631 8.78885C8.29643 8.66734 8.37007 8.55695 8.46301 8.46401C8.55595 8.37107 8.66634 8.29743 8.78785 8.24731C8.90935 8.1972 9.03957 8.1716 9.171 8.172H15.171C15.4362 8.172 15.6906 8.27736 15.8781 8.46489C16.0656 8.65243 16.171 8.90678 16.171 9.172C16.171 9.43722 16.0656 9.69157 15.8781 9.87911C15.6906 10.0666 15.4362 10.172 15.171 10.172H11.587H11.586Z" fill="black"/>
</svg>
