<svg width="24" height="24" viewBox="0 0 24 24" fill="none" xmlns="http://www.w3.org/2000/svg">
<path d="M19.933 6.85888C20.0202 6.76648 20.1254 6.69287 20.2421 6.64256C20.3587 6.59224 20.4844 6.56629 20.6115 6.56629C20.7386 6.56629 20.8643 6.59224 20.9809 6.64256C21.0976 6.69287 21.2028 6.76648 21.29 6.85888C21.665 7.24888 21.665 7.88088 21.29 8.27088L9.76 20.2799C9.32411 20.7418 8.79845 21.1098 8.21526 21.3614C7.63206 21.6129 7.00363 21.7427 6.3685 21.7427C5.73337 21.7427 5.10494 21.6129 4.52174 21.3614C3.93855 21.1098 3.41289 20.7418 2.977 20.2799C1.104 18.3299 1.104 15.1669 2.977 13.2159L13.15 2.61988C13.4115 2.34271 13.727 2.12189 14.0769 1.97096C14.4268 1.82004 14.8039 1.74219 15.185 1.74219C15.5661 1.74219 15.9432 1.82004 16.2931 1.97096C16.643 2.12189 16.9585 2.34271 17.22 2.61988C18.344 3.78988 18.344 5.68788 17.22 6.85888L8.402 16.0399C8.3148 16.1321 8.20969 16.2056 8.09312 16.2558C7.97654 16.306 7.85094 16.3319 7.724 16.3319C7.59706 16.3319 7.47146 16.306 7.35489 16.2558C7.23831 16.2056 7.1332 16.1321 7.046 16.0399C6.86569 15.849 6.76523 15.5964 6.76523 15.3339C6.76523 15.0713 6.86569 14.8187 7.046 14.6279L15.864 5.44488C16.0446 5.25399 16.1452 5.00117 16.1452 4.73838C16.1452 4.47559 16.0446 4.22278 15.864 4.03188C15.7768 3.93948 15.6716 3.86587 15.5549 3.81556C15.4383 3.76524 15.3126 3.73929 15.1855 3.73929C15.0584 3.73929 14.9327 3.76524 14.8161 3.81556C14.6994 3.86587 14.5942 3.93948 14.507 4.03188L4.332 14.6299C3.209 15.7999 3.209 17.6979 4.332 18.8679C4.59355 19.1451 4.90896 19.3659 5.2589 19.5168C5.60883 19.6677 5.98591 19.7456 6.367 19.7456C6.74809 19.7456 7.12517 19.6677 7.4751 19.5168C7.82504 19.3659 8.14045 19.1451 8.402 18.8679L19.933 6.85888Z" fill="black"/>
</svg>
