<svg width="24" height="24" viewBox="0 0 24 24" fill="none" xmlns="http://www.w3.org/2000/svg">
<path d="M12.973 8.754C12.9274 8.46205 12.8229 8.1824 12.666 7.932C12.059 6.967 10.834 6.71 9.929 7.356L5.874 10.254C5.65834 10.4087 5.47492 10.6041 5.334 10.829C4.728 11.794 4.969 13.099 5.874 13.746L9.929 16.644C10.2492 16.8745 10.6335 16.9989 11.028 17C12.006 17 12.818 16.241 12.973 15.246L14.929 16.644C15.2492 16.8745 15.6335 16.9989 16.028 17C17.117 17 18 16.059 18 14.898V9.102C18 8.685 17.884 8.278 17.666 7.932C17.059 6.967 15.834 6.71 14.929 7.356L12.973 8.754ZM12 22C6.477 22 2 17.523 2 12C2 6.477 6.477 2 12 2C17.523 2 22 6.477 22 12C22 17.523 17.523 22 12 22ZM16.028 14.898L13.004 12.737L13.007 11.261L16.027 9.102V14.898H16.028ZM11.028 14.898L6.973 12L11.028 9.102V14.898Z" fill="black"/>
</svg>
