<svg width="24" height="24" viewBox="0 0 24 24" fill="none" xmlns="http://www.w3.org/2000/svg">
<path d="M13.543 14L14.049 15.386C14.219 15.852 14.783 16.108 15.309 15.956C15.834 15.806 16.122 15.305 15.952 14.839L13.902 9.229C13.705 8.687 13.227 8.262 12.617 8.087C11.567 7.785 10.438 8.296 10.097 9.228L8.05 14.838C7.88 15.305 8.168 15.805 8.693 15.957C9.218 16.107 9.783 15.852 9.953 15.386L10.458 14H13.543ZM12.813 12H11.188L12 9.776L12.813 12ZM8 6H16C16.5304 6 17.0391 6.21071 17.4142 6.58579C17.7893 6.96086 18 7.46957 18 8V16C18 16.5304 17.7893 17.0391 17.4142 17.4142C17.0391 17.7893 16.5304 18 16 18H8C7.46957 18 6.96086 17.7893 6.58579 17.4142C6.21071 17.0391 6 16.5304 6 16V8C6 7.46957 6.21071 6.96086 6.58579 6.58579C6.96086 6.21071 7.46957 6 8 6V6Z" fill="black"/>
</svg>
