<svg width="24" height="24" viewBox="0 0 24 24" fill="none" xmlns="http://www.w3.org/2000/svg">
<path d="M8 15V20H16V15H8ZM18 14.236V20C18 20.5304 17.7893 21.0391 17.4142 21.4142C17.0391 21.7893 16.5304 22 16 22H8C7.46957 22 6.96086 21.7893 6.58579 21.4142C6.21071 21.0391 6 20.5304 6 20V14.236C5.386 13.686 5 12.888 5 12V9C5 8.20435 5.31607 7.44129 5.87868 6.87868C6.44129 6.31607 7.20435 6 8 6H16C16.7956 6 17.5587 6.31607 18.1213 6.87868C18.6839 7.44129 19 8.20435 19 9V12C19 12.888 18.614 13.687 18 14.236ZM8 8C7.73478 8 7.48043 8.10536 7.29289 8.29289C7.10536 8.48043 7 8.73478 7 9V12C7 12.2652 7.10536 12.5196 7.29289 12.7071C7.48043 12.8946 7.73478 13 8 13H16C16.2652 13 16.5196 12.8946 16.7071 12.7071C16.8946 12.5196 17 12.2652 17 12V9C17 8.73478 16.8946 8.48043 16.7071 8.29289C16.5196 8.10536 16.2652 8 16 8H8ZM13 13H11V12C11 11.7348 11.1054 11.4804 11.2929 11.2929C11.4804 11.1054 11.7348 11 12 11C12.2652 11 12.5196 11.1054 12.7071 11.2929C12.8946 11.4804 13 11.7348 13 12V13ZM13 15V16C13 16.2652 12.8946 16.5196 12.7071 16.7071C12.5196 16.8946 12.2652 17 12 17C11.7348 17 11.4804 16.8946 11.2929 16.7071C11.1054 16.5196 11 16.2652 11 16V15H13ZM8.5 2C8.89782 2 9.27936 2.15804 9.56066 2.43934C9.84196 2.72064 10 3.10218 10 3.5V6.5C10 6.89782 9.84196 7.27936 9.56066 7.56066C9.27936 7.84196 8.89782 8 8.5 8C8.10218 8 7.72064 7.84196 7.43934 7.56066C7.15804 7.27936 7 6.89782 7 6.5V3.5C7 3.10218 7.15804 2.72064 7.43934 2.43934C7.72064 2.15804 8.10218 2 8.5 2V2ZM15.5 2C15.8978 2 16.2794 2.15804 16.5607 2.43934C16.842 2.72064 17 3.10218 17 3.5V6.5C17 6.89782 16.842 7.27936 16.5607 7.56066C16.2794 7.84196 15.8978 8 15.5 8C15.1022 8 14.7206 7.84196 14.4393 7.56066C14.158 7.27936 14 6.89782 14 6.5V3.5C14 3.10218 14.158 2.72064 14.4393 2.43934C14.7206 2.15804 15.1022 2 15.5 2V2Z" fill="black"/>
</svg>
