<svg width="24" height="24" viewBox="0 0 24 24" fill="none" xmlns="http://www.w3.org/2000/svg">
<path d="M6 2H18C19.0609 2 20.0783 2.42143 20.8284 3.17157C21.5786 3.92172 22 4.93913 22 6V18C22 19.0609 21.5786 20.0783 20.8284 20.8284C20.0783 21.5786 19.0609 22 18 22H6C4.93913 22 3.92172 21.5786 3.17157 20.8284C2.42143 20.0783 2 19.0609 2 18V6C2 4.93913 2.42143 3.92172 3.17157 3.17157C3.92172 2.42143 4.93913 2 6 2V2ZM6 4C5.46957 4 4.96086 4.21071 4.58579 4.58579C4.21071 4.96086 4 5.46957 4 6V18C4 18.5304 4.21071 19.0391 4.58579 19.4142C4.96086 19.7893 5.46957 20 6 20H18C18.5304 20 19.0391 19.7893 19.4142 19.4142C19.7893 19.0391 20 18.5304 20 18V6C20 5.46957 19.7893 4.96086 19.4142 4.58579C19.0391 4.21071 18.5304 4 18 4H6ZM12.973 8.754L14.929 7.356C15.834 6.71 17.059 6.967 17.666 7.932C17.884 8.278 18 8.685 18 9.102V14.898C18 16.058 17.117 17 16.028 17C15.6335 16.9989 15.2492 16.8745 14.929 16.644L12.973 15.246C12.818 16.24 12.006 17 11.028 17C10.6335 16.9989 10.2492 16.8745 9.929 16.644L5.874 13.746C4.969 13.099 4.728 11.794 5.334 10.829C5.477 10.602 5.661 10.407 5.874 10.254L9.93 7.356C10.835 6.71 12.06 6.967 12.667 7.932C12.824 8.181 12.927 8.462 12.974 8.754H12.973ZM11.028 14.898V9.102L6.973 12L11.028 14.898ZM16.028 14.898V9.102L13.008 11.261L13.004 12.737L16.028 14.898Z" fill="black"/>
</svg>
