<svg width="24" height="24" viewBox="0 0 24 24" fill="none" xmlns="http://www.w3.org/2000/svg">
<path d="M7.50301 9.382C7.61701 11.063 6.72901 12.497 5.51701 12.584C4.30701 12.671 3.23201 11.379 3.11701 9.697C3.00201 8.016 3.89101 6.582 5.10201 6.495C6.31301 6.408 7.38801 7.7 7.50201 9.382H7.50301ZM15.843 2.412C14.667 2.104 13.385 3.179 12.981 4.812C12.575 6.445 13.2 8.019 14.376 8.327C15.553 8.635 16.836 7.56 17.24 5.927C17.767 3.8 16.126 2.485 15.844 2.412H15.843ZM18.603 7.918C17.365 7.936 16.383 9.144 16.41 11.014C16.437 12.884 17.46 13.736 18.7 13.717C19.936 13.698 20.92 12.816 20.892 10.945C20.856 8.511 18.899 7.913 18.602 7.918H18.603ZM9.63501 2C8.45801 2 7.50301 3.354 7.50301 5.023C7.50301 6.693 8.45801 8.046 9.63501 8.046C10.813 8.046 11.768 6.693 11.768 5.023C11.768 3.353 10.813 2 9.63501 2ZM9.36301 11.389C8.68301 12.391 7.91101 13.369 6.41301 14.651C4.91601 15.933 4.28101 16.818 4.28101 18.123C4.28101 19.427 5.00701 21.594 7.07101 21.594C9.13601 21.594 10.134 21.128 11.768 21.128C13.401 21.128 14.491 21.78 16.555 21.78C18.619 21.78 19.481 19.777 19.481 18.472C19.481 17.167 19.123 16.429 17.469 14.94C16.409 13.985 15.511 13.207 14.104 11.203C13.409 10.213 12.607 10.085 11.768 10.085C10.928 10.085 10.044 10.387 9.36301 11.389Z" fill="black"/>
</svg>
