<svg width="24" height="24" viewBox="0 0 24 24" fill="none" xmlns="http://www.w3.org/2000/svg">
<path d="M12 20C14.1217 20 16.1566 19.1571 17.6569 17.6569C19.1571 16.1566 20 14.1217 20 12C20 9.87827 19.1571 7.84344 17.6569 6.34315C16.1566 4.84285 14.1217 4 12 4C9.87827 4 7.84344 4.84285 6.34315 6.34315C4.84285 7.84344 4 9.87827 4 12C4 14.1217 4.84285 16.1566 6.34315 17.6569C7.84344 19.1571 9.87827 20 12 20ZM12 22C6.477 22 2 17.523 2 12C2 6.477 6.477 2 12 2C17.523 2 22 6.477 22 12C22 17.523 17.523 22 12 22Z" fill="black"/>
<path d="M9.731 10.7401C9.789 11.5901 9.341 12.3151 8.728 12.3591C8.116 12.4031 7.572 11.7491 7.514 10.8991C7.456 10.0491 7.905 9.32406 8.518 9.28006C9.13 9.23606 9.674 9.89006 9.731 10.7401ZM13.948 7.21606C13.353 7.06006 12.705 7.60406 12.501 8.42906C12.295 9.25506 12.611 10.0511 13.206 10.2061C13.801 10.3621 14.45 9.81906 14.654 8.99306C14.921 7.91806 14.091 7.25306 13.948 7.21606ZM15.343 10.0001C14.717 10.0101 14.221 10.6201 14.235 11.5661C14.248 12.5111 14.765 12.9421 15.392 12.9331C16.017 12.9231 16.514 12.4771 16.501 11.5311C16.482 10.3011 15.493 9.99806 15.343 10.0011V10.0001ZM10.81 7.00806C10.214 7.00806 9.732 7.69206 9.732 8.53606C9.732 9.38006 10.214 10.0641 10.81 10.0641C11.405 10.0641 11.888 9.38006 11.888 8.53606C11.888 7.69206 11.405 7.00806 10.81 7.00806ZM10.672 11.7541C10.328 12.2611 9.938 12.7561 9.181 13.4041C8.424 14.0521 8.103 14.4991 8.103 15.1591C8.103 15.8191 8.47 16.9141 9.513 16.9141C10.557 16.9141 11.062 16.6781 11.888 16.6781C12.713 16.6781 13.264 17.0081 14.308 17.0081C15.351 17.0081 15.788 15.9951 15.788 15.3351C15.788 14.6751 15.606 14.3021 14.77 13.5501C14.234 13.0671 13.78 12.6731 13.069 11.6601C12.717 11.1601 12.312 11.0951 11.888 11.0951C11.463 11.0951 11.016 11.2481 10.672 11.7551V11.7541Z" fill="black"/>
</svg>
