<svg width="24" height="24" viewBox="0 0 24 24" fill="none" xmlns="http://www.w3.org/2000/svg">
<path d="M20.92 2.53599C21.8574 3.47363 22.3839 4.74517 22.3839 6.07099C22.3839 7.39681 21.8574 8.66835 20.92 9.60599L9.607 20.92C9.14494 21.394 8.59336 21.7715 7.98426 22.0307C7.37516 22.2898 6.72067 22.4255 6.05874 22.4297C5.39681 22.4339 4.74063 22.3067 4.12826 22.0554C3.51589 21.804 2.95952 21.4336 2.49142 20.9656C2.02332 20.4975 1.65282 19.9412 1.4014 19.3289C1.14998 18.7166 1.02265 18.0604 1.0268 17.3985C1.03095 16.7365 1.16649 16.082 1.42556 15.4729C1.68463 14.8637 2.06208 14.3121 2.536 13.85L13.849 2.53499C14.7867 1.59733 16.0584 1.07056 17.3845 1.07056C18.7106 1.07056 19.9823 1.59733 20.92 2.53499V2.53599ZM13.142 8.89899C12.9545 8.71152 12.7002 8.6062 12.435 8.6062C12.1698 8.6062 11.9155 8.71152 11.728 8.89899L8.899 11.728C8.71153 11.9155 8.60622 12.1698 8.60622 12.435C8.60622 12.7002 8.71153 12.9545 8.899 13.142L10.314 14.556C10.5015 14.7435 10.7558 14.8488 11.021 14.8488C11.2862 14.8488 11.5405 14.7435 11.728 14.556L14.556 11.728C14.7435 11.5405 14.8488 11.2862 14.8488 11.021C14.8488 10.7558 14.7435 10.5015 14.556 10.314L13.142 8.89899ZM13.849 8.19199C13.9413 8.2875 14.0516 8.36368 14.1736 8.41609C14.2956 8.4685 14.4268 8.49609 14.5596 8.49724C14.6924 8.49839 14.8241 8.47309 14.947 8.42281C15.0699 8.37253 15.1815 8.29828 15.2754 8.20438C15.3693 8.11049 15.4435 7.99884 15.4938 7.87594C15.5441 7.75305 15.5694 7.62137 15.5683 7.48859C15.5671 7.35581 15.5395 7.22459 15.4871 7.10258C15.4347 6.98058 15.3585 6.87024 15.263 6.77799C15.0744 6.59583 14.8218 6.49504 14.5596 6.49731C14.2974 6.49959 14.0466 6.60476 13.8612 6.79017C13.6758 6.97558 13.5706 7.22639 13.5683 7.48859C13.5661 7.75078 13.6668 8.00339 13.849 8.19199ZM6.779 15.263C6.87073 15.3607 6.98115 15.4389 7.10371 15.4931C7.22627 15.5473 7.35846 15.5762 7.49244 15.5783C7.62642 15.5804 7.75945 15.5555 7.88363 15.5052C8.00781 15.4549 8.12061 15.3801 8.21533 15.2853C8.31004 15.1905 8.38474 15.0777 8.43499 14.9534C8.48524 14.8292 8.51001 14.6962 8.50784 14.5622C8.50566 14.4282 8.47658 14.2961 8.42233 14.1735C8.36807 14.051 8.28975 13.9406 8.192 13.849C8.0034 13.6668 7.7508 13.566 7.4886 13.5683C7.22641 13.5706 6.97559 13.6758 6.79018 13.8612C6.60478 14.0466 6.49961 14.2974 6.49733 14.5596C6.49505 14.8218 6.59585 15.0744 6.778 15.263H6.779ZM17.385 7.48499C17.4773 7.5805 17.5876 7.65668 17.7096 7.70909C17.8316 7.7615 17.9628 7.78909 18.0956 7.79024C18.2284 7.79139 18.3601 7.76609 18.483 7.71581C18.6059 7.66553 18.7175 7.59128 18.8114 7.49738C18.9053 7.40349 18.9795 7.29184 19.0298 7.16894C19.0801 7.04605 19.1054 6.91437 19.1043 6.78159C19.1031 6.64881 19.0755 6.51759 19.0231 6.39558C18.9707 6.27358 18.8945 6.16324 18.799 6.07099C18.6104 5.88883 18.3578 5.78804 18.0956 5.79032C17.8334 5.79259 17.5826 5.89776 17.3972 6.08317C17.2118 6.26858 17.1066 6.51939 17.1043 6.78159C17.1021 7.04378 17.2028 7.29639 17.385 7.48499ZM6.07 18.8C6.16225 18.8955 6.27259 18.9717 6.3946 19.0241C6.5166 19.0765 6.64782 19.1041 6.7806 19.1052C6.91338 19.1064 7.04506 19.0811 7.16796 19.0308C7.29085 18.9805 7.40251 18.9063 7.4964 18.8124C7.59029 18.7185 7.66454 18.6068 7.71483 18.4839C7.76511 18.361 7.79041 18.2294 7.78925 18.0966C7.7881 17.9638 7.76051 17.8326 7.7081 17.7106C7.6557 17.5886 7.57951 17.4782 7.484 17.386C7.2954 17.2038 7.0428 17.103 6.7806 17.1053C6.5184 17.1076 6.26759 17.2128 6.08218 17.3982C5.89678 17.5836 5.79161 17.8344 5.78933 18.0966C5.78705 18.3588 5.88785 18.6114 6.07 18.8Z" fill="black"/>
</svg>
