<svg width="24" height="24" viewBox="0 0 24 24" fill="none" xmlns="http://www.w3.org/2000/svg">
<path d="M20.197 2.94506C21.0768 3.82496 21.571 5.01828 21.571 6.26255C21.571 7.50683 21.0768 8.70015 20.197 9.58006L9.57999 20.1971C8.69651 21.0593 7.50879 21.5387 6.2743 21.5311C5.0398 21.5236 3.858 21.0299 2.98506 20.157C2.11213 19.284 1.6184 18.1022 1.6109 16.8677C1.60339 15.6333 2.08273 14.4455 2.94499 13.5621L13.562 2.94506C14.4419 2.06528 15.6352 1.57104 16.8795 1.57104C18.1238 1.57104 19.3171 2.06528 20.197 2.94506ZM18.87 4.27205C18.3421 3.74414 17.6261 3.44757 16.8795 3.44757C16.1329 3.44757 15.4169 3.74414 14.889 4.27205L4.27199 14.8901C4.00374 15.1499 3.78988 15.4605 3.64287 15.8038C3.49586 16.1472 3.41863 16.5163 3.41568 16.8898C3.41274 17.2632 3.48414 17.6335 3.62571 17.9791C3.76729 18.3247 3.97623 18.6387 4.24034 18.9027C4.50446 19.1668 4.81847 19.3756 5.1641 19.5171C5.50972 19.6586 5.88005 19.7299 6.25351 19.7269C6.62696 19.7238 6.99608 19.6465 7.33935 19.4994C7.68263 19.3523 7.99321 19.1384 8.25299 18.8701L18.87 8.25406C19.1315 7.99281 19.3389 7.68259 19.4804 7.34114C19.622 6.99968 19.6948 6.63368 19.6948 6.26405C19.6948 5.89443 19.622 5.52843 19.4804 5.18697C19.3389 4.84552 19.1315 4.5353 18.87 4.27405V4.27205ZM12.898 8.91705L14.225 10.2441C14.3122 10.3312 14.3813 10.4346 14.4285 10.5484C14.4757 10.6623 14.5 10.7843 14.5 10.9076C14.5 11.0308 14.4757 11.1528 14.4285 11.2667C14.3813 11.3805 14.3122 11.4839 14.225 11.5711L11.571 14.2251C11.4839 14.3122 11.3804 14.3814 11.2666 14.4286C11.1528 14.4757 11.0307 14.5 10.9075 14.5C10.7843 14.5 10.6622 14.4757 10.5484 14.4286C10.4345 14.3814 10.3311 14.3122 10.244 14.2251L8.91699 12.8981C8.82982 12.8109 8.76067 12.7075 8.71349 12.5937C8.66631 12.4798 8.64202 12.3578 8.64202 12.2346C8.64202 12.1113 8.66631 11.9893 8.71349 11.8754C8.76067 11.7616 8.82982 11.6582 8.91699 11.5711L11.571 8.91705C11.6581 8.82988 11.7615 8.76073 11.8754 8.71355C11.9892 8.66637 12.1113 8.64209 12.2345 8.64209C12.3577 8.64209 12.4798 8.66637 12.5936 8.71355C12.7074 8.76073 12.8109 8.82988 12.898 8.91705ZM13.562 8.25305C13.4749 8.16592 13.4057 8.06248 13.3586 7.94864C13.3114 7.83479 13.2872 7.71278 13.2872 7.58955C13.2872 7.46633 13.3114 7.34431 13.3586 7.23047C13.4057 7.11663 13.4749 7.01319 13.562 6.92605C13.6491 6.83892 13.7526 6.76981 13.8664 6.72265C13.9802 6.67549 14.1023 6.65122 14.2255 6.65122C14.3487 6.65122 14.4707 6.6755 14.5846 6.72265C14.6984 6.76981 14.8019 6.83892 14.889 6.92605C15.065 7.10203 15.1638 7.34069 15.1638 7.58955C15.1638 7.83842 15.065 8.07708 14.889 8.25305C14.713 8.42903 14.4743 8.52789 14.2255 8.52789C13.9766 8.52789 13.738 8.42903 13.562 8.25305ZM6.92599 14.8901C6.83886 14.8029 6.76974 14.6995 6.72258 14.5856C6.67543 14.4718 6.65116 14.3498 6.65116 14.2266C6.65116 14.1033 6.67543 13.9813 6.72258 13.8675C6.76974 13.7536 6.83886 13.6502 6.92599 13.5631C7.01312 13.4759 7.11656 13.4068 7.23041 13.3597C7.34425 13.3125 7.46627 13.2882 7.58949 13.2882C7.71271 13.2882 7.83473 13.3125 7.94857 13.3597C8.06242 13.4068 8.16586 13.4759 8.25299 13.5631C8.42896 13.739 8.52782 13.9777 8.52782 14.2266C8.52782 14.4754 8.42896 14.7141 8.25299 14.8901C8.07702 15.066 7.83835 15.1649 7.58949 15.1649C7.34063 15.1649 7.10196 15.066 6.92599 14.8901ZM16.879 7.59005C16.7909 7.50314 16.7209 7.39967 16.673 7.28559C16.6251 7.17151 16.6003 7.04908 16.5999 6.92535C16.5995 6.80162 16.6236 6.67903 16.6708 6.56466C16.718 6.45028 16.7873 6.34637 16.8749 6.25891C16.9624 6.17146 17.0663 6.10218 17.1807 6.05507C17.2952 6.00796 17.4178 5.98396 17.5415 5.98444C17.6652 5.98491 17.7876 6.00987 17.9017 6.05786C18.0157 6.10585 18.1191 6.17592 18.206 6.26405C18.2931 6.35119 18.3622 6.45463 18.4094 6.56847C18.4565 6.68231 18.4808 6.80433 18.4808 6.92755C18.4808 7.05078 18.4565 7.17279 18.4094 7.28664C18.3622 7.40048 18.2931 7.50392 18.206 7.59105C18.1189 7.67819 18.0154 7.7473 17.9016 7.79446C17.7877 7.84161 17.6657 7.86589 17.5425 7.86589C17.4193 7.86589 17.2972 7.84161 17.1834 7.79446C17.0696 7.7473 16.9661 7.67819 16.879 7.59105V7.59005ZM6.26299 18.2071C6.17586 18.1199 6.10674 18.0165 6.05958 17.9026C6.01243 17.7888 5.98816 17.6668 5.98816 17.5436C5.98816 17.4203 6.01243 17.2983 6.05958 17.1845C6.10674 17.0706 6.17586 16.9672 6.26299 16.8801C6.35012 16.7929 6.45356 16.7238 6.56741 16.6767C6.68125 16.6295 6.80327 16.6052 6.92649 16.6052C7.04971 16.6052 7.17173 16.6295 7.28557 16.6767C7.39942 16.7238 7.50286 16.7929 7.58999 16.8801C7.76596 17.056 7.86482 17.2947 7.86482 17.5436C7.86482 17.7924 7.76596 18.0311 7.58999 18.2071C7.41402 18.383 7.17535 18.4819 6.92649 18.4819C6.67763 18.4819 6.43896 18.383 6.26299 18.2071Z" fill="black"/>
</svg>
