<svg width="24" height="24" viewBox="0 0 24 24" fill="none" xmlns="http://www.w3.org/2000/svg">
<path d="M15.05 13H15C14.7348 13 14.4804 12.8946 14.2929 12.7071C14.1054 12.5196 14 12.2652 14 12C14 11.7348 14.1054 11.4804 14.2929 11.2929C14.4804 11.1054 14.7348 11 15 11H15.05C15.2359 9.12191 15.9521 7.33541 17.115 5.849C15.6796 4.65182 13.8691 3.99733 12 4C10.1309 3.99733 8.32036 4.65182 6.885 5.849C8.04791 7.33541 8.76411 9.12191 8.95 11H9C9.26522 11 9.51957 11.1054 9.70711 11.2929C9.89464 11.4804 10 11.7348 10 12C10 12.2652 9.89464 12.5196 9.70711 12.7071C9.51957 12.8946 9.26522 13 9 13H8.95C8.76411 14.8781 8.04791 16.6646 6.885 18.151C8.32036 19.3482 10.1309 20.0027 12 20C13.8691 20.0027 15.6796 19.3482 17.115 18.151C15.9521 16.6646 15.2359 14.8781 15.05 13ZM17.062 11.002C17.3158 11.0181 17.5539 11.1302 17.7279 11.3156C17.9019 11.501 17.9988 11.7457 17.9988 12C17.9988 12.2543 17.9019 12.499 17.7279 12.6844C17.5539 12.8698 17.3158 12.9819 17.062 12.998C17.2262 14.3219 17.7207 15.5833 18.5 16.666C19.4779 15.3069 20.0027 13.6743 20 12C20 10.29 19.462 8.671 18.5 7.334C17.7207 8.41675 17.2262 9.6781 17.062 11.002ZM6.938 12.998C6.68424 12.9819 6.44612 12.8698 6.2721 12.6844C6.09808 12.499 6.00121 12.2543 6.00121 12C6.00121 11.7457 6.09808 11.501 6.2721 11.3156C6.44612 11.1302 6.68424 11.0181 6.938 11.002C6.77381 9.6781 6.27931 8.41675 5.5 7.334C4.52213 8.69308 3.99728 10.3257 4 12C4 13.71 4.538 15.329 5.5 16.666C6.27931 15.5833 6.77381 14.3219 6.938 12.998ZM12 22C6.477 22 2 17.523 2 12C2 6.477 6.477 2 12 2C17.523 2 22 6.477 22 12C22 17.523 17.523 22 12 22Z" fill="black"/>
</svg>
