<svg width="24" height="24" viewBox="0 0 24 24" fill="none" xmlns="http://www.w3.org/2000/svg">
<path d="M10.487 4.39711C11.1888 4.51256 11.8267 4.87356 12.287 5.41572C12.7472 5.95787 13 6.64592 13 7.35711V9.35711H7V7.35711C7 6.31911 7.528 5.40311 8.33 4.86511C8.04198 4.60865 7.68596 4.44094 7.30482 4.38216C6.92368 4.32338 6.53367 4.37605 6.18178 4.53383C5.82988 4.6916 5.5311 4.94774 5.32143 5.27141C5.11176 5.59508 5.00013 5.97246 5 6.35811V12.3581H21C21.2652 12.3581 21.5196 12.4635 21.7071 12.651C21.8946 12.8385 22 13.0929 22 13.3581C22 13.6233 21.8946 13.8777 21.7071 14.0652C21.5196 14.2528 21.2652 14.3581 21 14.3581V15.3581C20.9999 16.599 20.6153 17.8094 19.8989 18.8226C19.1826 19.8359 18.1698 20.6022 17 21.0161V21.5001C17 21.7653 16.8946 22.0197 16.7071 22.2072C16.5196 22.3948 16.2652 22.5001 16 22.5001C15.7348 22.5001 15.4804 22.3948 15.2929 22.2072C15.1054 22.0197 15 21.7653 15 21.5001V21.3581H9V21.5001C9 21.7653 8.89464 22.0197 8.70711 22.2072C8.51957 22.3948 8.26522 22.5001 8 22.5001C7.73478 22.5001 7.48043 22.3948 7.29289 22.2072C7.10536 22.0197 7 21.7653 7 21.5001V21.0161C5.83017 20.6022 4.81739 19.8359 4.10106 18.8226C3.38472 17.8094 3.00006 16.599 3 15.3581V14.3581C2.73478 14.3581 2.48043 14.2528 2.29289 14.0652C2.10536 13.8777 2 13.6233 2 13.3581C2 13.0929 2.10536 12.8385 2.29289 12.651C2.48043 12.4635 2.73478 12.3581 3 12.3581V6.35811C2.99996 5.47359 3.29309 4.61401 3.83355 3.91382C4.37401 3.21363 5.13131 2.71232 5.98699 2.48831C6.84267 2.26431 7.74846 2.33024 8.56269 2.67579C9.37691 3.02135 10.0536 3.62703 10.487 4.39811V4.39711Z" fill="black"/>
</svg>
