<svg width="24" height="24" viewBox="0 0 24 24" fill="none" xmlns="http://www.w3.org/2000/svg">
<path d="M10.487 4.03995C11.1888 4.1554 11.8267 4.51641 12.287 5.05856C12.7472 5.60072 13 6.28876 13 6.99995V8.99995H7V6.99995C7 5.96095 7.528 5.04495 8.33 4.50695C8.04198 4.2505 7.68596 4.08278 7.30482 4.02401C6.92368 3.96523 6.53367 4.0179 6.18178 4.17567C5.82988 4.33344 5.5311 4.58959 5.32143 4.91326C5.11176 5.23692 5.00013 5.61431 5 5.99995V12H21C21.2652 12 21.5196 12.1053 21.7071 12.2928C21.8946 12.4804 22 12.7347 22 13C22 13.2652 21.8946 13.5195 21.7071 13.7071C21.5196 13.8946 21.2652 14 21 14V15C21.0002 16.241 20.6156 17.4516 19.8992 18.4651C19.1829 19.4785 18.17 20.245 17 20.659V21C17 21.2652 16.8946 21.5195 16.7071 21.7071C16.5196 21.8946 16.2652 22 16 22C15.7348 22 15.4804 21.8946 15.2929 21.7071C15.1054 21.5195 15 21.2652 15 21H9C9 21.2652 8.89464 21.5195 8.70711 21.7071C8.51957 21.8946 8.26522 22 8 22C7.73478 22 7.48043 21.8946 7.29289 21.7071C7.10536 21.5195 7 21.2652 7 21V20.659C5.83001 20.245 4.81712 19.4785 4.10077 18.4651C3.38442 17.4516 2.99985 16.241 3 15V14C2.73478 14 2.48043 13.8946 2.29289 13.7071C2.10536 13.5195 2 13.2652 2 13C2 12.7347 2.10536 12.4804 2.29289 12.2928C2.48043 12.1053 2.73478 12 3 12V5.99995C2.99996 5.11544 3.29309 4.25586 3.83355 3.55566C4.37401 2.85547 5.13131 2.35416 5.98699 2.13016C6.84267 1.90615 7.74846 1.97208 8.56269 2.31764C9.37691 2.66319 10.0536 3.26888 10.487 4.03995ZM19 14H5V15C5 16.0608 5.42143 17.0782 6.17157 17.8284C6.92172 18.5785 7.93913 19 9 19H15C16.0609 19 17.0783 18.5785 17.8284 17.8284C18.5786 17.0782 19 16.0608 19 15V14ZM10 5.99995C9.73478 5.99995 9.48043 6.10531 9.29289 6.29285C9.10536 6.48038 9 6.73474 9 6.99995H11C11 6.73474 10.8946 6.48038 10.7071 6.29285C10.5196 6.10531 10.2652 5.99995 10 5.99995Z" fill="black"/>
</svg>
