<svg width="24" height="24" viewBox="0 0 24 24" fill="none" xmlns="http://www.w3.org/2000/svg">
<path d="M21 9C21.2652 9 21.5196 9.10536 21.7071 9.29289C21.8946 9.48043 22 9.73478 22 10V14C22 14.2652 21.8946 14.5196 21.7071 14.7071C21.5196 14.8946 21.2652 15 21 15V16C21 16.5304 20.7893 17.0391 20.4142 17.4142C20.0391 17.7893 19.5304 18 19 18H4C3.46957 18 2.96086 17.7893 2.58579 17.4142C2.21071 17.0391 2 16.5304 2 16V8C2 7.46957 2.21071 6.96086 2.58579 6.58579C2.96086 6.21071 3.46957 6 4 6H19C19.5304 6 20.0391 6.21071 20.4142 6.58579C20.7893 6.96086 21 7.46957 21 8V9ZM12.225 14.11C12.468 13.947 12.604 13.701 12.633 13.372V11.72L15.065 12.618C15.1882 12.6636 15.3191 12.6845 15.4504 12.6794C15.5816 12.6744 15.7106 12.6436 15.8299 12.5887C15.9492 12.5338 16.0566 12.4559 16.1458 12.3596C16.2351 12.2632 16.3044 12.1502 16.35 12.027C16.541 11.509 16.229 10.961 15.711 10.769C14.4536 10.3226 13.1986 9.86959 11.946 9.41C11.505 9.247 11.191 9.405 10.916 9.614C10.734 9.754 10.625 10.022 10.59 10.42L10.633 11.91L8.205 11.033C7.95556 10.9428 7.68052 10.9554 7.44038 11.068C7.20024 11.1807 7.01467 11.3841 6.9245 11.6335C6.83433 11.8829 6.84693 12.158 6.95955 12.3981C7.07217 12.6383 7.27556 12.8238 7.525 12.914C9.181 13.52 10.437 13.979 11.295 14.291C11.635 14.415 11.861 14.351 12.225 14.108V14.11Z" fill="black"/>
</svg>
