<svg width="24" height="24" viewBox="0 0 24 24" fill="none" xmlns="http://www.w3.org/2000/svg">
<path d="M4 8V16H19V8H4ZM21 9C21.2652 9 21.5196 9.10536 21.7071 9.29289C21.8946 9.48043 22 9.73478 22 10V14C22 14.2652 21.8946 14.5196 21.7071 14.7071C21.5196 14.8946 21.2652 15 21 15V16C21 16.5304 20.7893 17.0391 20.4142 17.4142C20.0391 17.7893 19.5304 18 19 18H4C3.46957 18 2.96086 17.7893 2.58579 17.4142C2.21071 17.0391 2 16.5304 2 16V8C2 7.46957 2.21071 6.96086 2.58579 6.58579C2.96086 6.21071 3.46957 6 4 6H19C19.5304 6 20.0391 6.21071 20.4142 6.58579C20.7893 6.96086 21 7.46957 21 8V9ZM15.788 12.358C15.6972 12.6069 15.5112 12.8096 15.271 12.9216C15.0308 13.0335 14.756 13.0455 14.507 12.955L10.747 11.587C10.4977 11.4962 10.2947 11.31 10.1826 11.0695C10.0706 10.829 10.0587 10.5538 10.1495 10.3045C10.2403 10.0552 10.4265 9.85219 10.667 9.74014C10.9075 9.62808 11.1827 9.61616 11.432 9.707L15.191 11.076C15.4402 11.1668 15.643 11.3529 15.755 11.5934C15.867 11.8338 15.8788 12.1088 15.788 12.358ZM12.03 13.989C11.9851 14.1125 11.9164 14.2259 11.8276 14.3228C11.7389 14.4196 11.632 14.4981 11.5129 14.5536C11.3938 14.6091 11.265 14.6407 11.1338 14.6464C11.0025 14.6521 10.8714 14.632 10.748 14.587L6.989 13.22C6.86556 13.1751 6.75217 13.1063 6.65531 13.0176C6.55845 12.9288 6.48002 12.8219 6.42449 12.7028C6.31234 12.4624 6.3003 12.1873 6.391 11.938C6.43591 11.8146 6.5047 11.7012 6.59343 11.6043C6.68216 11.5075 6.78911 11.429 6.90815 11.3735C7.14857 11.2613 7.4237 11.2493 7.673 11.34L11.432 12.709C11.6811 12.7997 11.884 12.9855 11.9962 13.2257C12.1083 13.4659 12.1205 13.7408 12.03 13.99V13.989ZM12.09 10.647V13.647C12.09 13.9122 11.9846 14.1666 11.7971 14.3541C11.6096 14.5416 11.3552 14.647 11.09 14.647C10.8248 14.647 10.5704 14.5416 10.3829 14.3541C10.1954 14.1666 10.09 13.9122 10.09 13.647V10.647C10.09 10.3818 10.1954 10.1274 10.3829 9.93989C10.5704 9.75236 10.8248 9.647 11.09 9.647C11.3552 9.647 11.6096 9.75236 11.7971 9.93989C11.9846 10.1274 12.09 10.3818 12.09 10.647Z" fill="black"/>
</svg>
