<svg width="24" height="24" viewBox="0 0 24 24" fill="none" xmlns="http://www.w3.org/2000/svg">
<path d="M4 6H19C19.5304 6 20.0391 6.21071 20.4142 6.58579C20.7893 6.96086 21 7.46957 21 8V16C21 16.5304 20.7893 17.0391 20.4142 17.4142C20.0391 17.7893 19.5304 18 19 18H4C3.46957 18 2.96086 17.7893 2.58579 17.4142C2.21071 17.0391 2 16.5304 2 16V8C2 7.46957 2.21071 6.96086 2.58579 6.58579C2.96086 6.21071 3.46957 6 4 6V6Z" fill="black"/>
<path d="M20.5 9H21C21.2652 9 21.5196 9.10536 21.7071 9.29289C21.8946 9.48043 22 9.73478 22 10V14C22 14.2652 21.8946 14.5196 21.7071 14.7071C21.5196 14.8946 21.2652 15 21 15H20.5C20.1022 15 19.7206 14.842 19.4393 14.5607C19.158 14.2794 19 13.8978 19 13.5V10.5C19 10.1022 19.158 9.72064 19.4393 9.43934C19.7206 9.15804 20.1022 9 20.5 9Z" fill="black"/>
</svg>
