<svg width="24" height="24" viewBox="0 0 24 24" fill="none" xmlns="http://www.w3.org/2000/svg">
<path d="M12 20C14.1217 20 16.1566 19.1571 17.6569 17.6569C19.1571 16.1566 20 14.1217 20 12C20 9.87827 19.1571 7.84344 17.6569 6.34315C16.1566 4.84285 14.1217 4 12 4C9.87827 4 7.84344 4.84285 6.34315 6.34315C4.84285 7.84344 4 9.87827 4 12C4 14.1217 4.84285 16.1566 6.34315 17.6569C7.84344 19.1571 9.87827 20 12 20ZM12 22C6.477 22 2 17.523 2 12C2 6.477 6.477 2 12 2C17.523 2 22 6.477 22 12C22 17.523 17.523 22 12 22Z" fill="black"/>
<path d="M15.462 12.58C15.462 10.477 13.874 8.76599 11.921 8.76599C9.968 8.76599 8.379 10.477 8.379 12.581C8.379 13.554 8.719 14.481 9.339 15.191C9.422 15.286 9.561 15.291 9.649 15.201L10.031 14.814C10.0733 14.7694 10.0977 14.7108 10.0995 14.6494C10.1014 14.588 10.0805 14.528 10.041 14.481C9.58666 13.9527 9.33874 13.2778 9.343 12.581C9.343 11.05 10.499 9.80399 11.921 9.80399C13.342 9.80399 14.498 11.05 14.498 12.581C14.498 13.289 14.25 13.964 13.8 14.481C13.7606 14.5281 13.7399 14.5882 13.7419 14.6496C13.744 14.711 13.7686 14.7695 13.811 14.814L14.193 15.201C14.281 15.291 14.42 15.286 14.503 15.191C15.122 14.481 15.463 13.554 15.463 12.581L15.462 12.58ZM17.129 12.59C17.129 12.08 17.05 11.578 16.894 11.095V11.092C16.8731 11.0331 16.8301 10.9846 16.7742 10.9566C16.7183 10.9286 16.6537 10.9234 16.594 10.942L16.048 11.107C16.0183 11.1152 15.9906 11.1294 15.9665 11.1485C15.9424 11.1677 15.9224 11.1915 15.9076 11.2186C15.8929 11.2456 15.8837 11.2753 15.8807 11.306C15.8777 11.3366 15.8808 11.3676 15.89 11.397C16.0621 11.9323 16.116 12.4987 16.0478 13.0569C15.9796 13.6151 15.791 14.1518 15.495 14.63V14.631C15.4792 14.6572 15.4688 14.6863 15.4644 14.7166C15.4601 14.7469 15.4619 14.7777 15.4697 14.8073C15.4776 14.8369 15.4913 14.8646 15.5101 14.8888C15.5288 14.9129 15.5523 14.9331 15.579 14.948L16.069 15.233C16.183 15.298 16.329 15.263 16.399 15.153C16.876 14.38 17.129 13.493 17.129 12.59Z" fill="black"/>
<path d="M8.763 14.632C8.46674 14.1537 8.27806 13.6168 8.21002 13.0583C8.14199 12.4999 8.19623 11.9333 8.369 11.398C8.37818 11.3686 8.38138 11.3377 8.37842 11.3071C8.37545 11.2765 8.36638 11.2468 8.35175 11.2198C8.33711 11.1928 8.3172 11.1689 8.2932 11.1497C8.2692 11.1305 8.24159 11.1163 8.212 11.108L7.665 10.943C7.60531 10.9241 7.54062 10.9292 7.48462 10.9572C7.42863 10.9852 7.38573 11.0339 7.365 11.093C7.14733 11.7653 7.07886 12.477 7.16435 13.1786C7.24984 13.8801 7.48723 14.5545 7.86 15.155C7.89415 15.2079 7.94747 15.2456 8.0088 15.2602C8.07013 15.2747 8.1347 15.265 8.189 15.233L8.679 14.948C8.70558 14.933 8.72891 14.9129 8.74759 14.8888C8.76627 14.8648 8.77993 14.8372 8.78776 14.8077C8.79559 14.7782 8.79744 14.7475 8.79318 14.7173C8.78893 14.6871 8.77867 14.6581 8.763 14.632Z" fill="black"/>
</svg>
