<svg width="24" height="24" viewBox="0 0 24 24" fill="none" xmlns="http://www.w3.org/2000/svg">
<path d="M18.667 13.13C18.667 8.923 15.489 5.5 11.583 5.5C7.677 5.5 4.5 8.923 4.5 13.13C4.5 15.077 5.182 16.931 6.42 18.352C6.587 18.542 6.864 18.551 7.04 18.372L7.804 17.598C7.88888 17.5088 7.93786 17.3914 7.94155 17.2683C7.94524 17.1452 7.90338 17.0251 7.824 16.931C6.91524 15.8744 6.41939 14.5246 6.428 13.131C6.428 10.068 8.74 7.577 11.583 7.577C14.426 7.577 16.739 10.068 16.739 13.131C16.7476 14.5248 16.2514 15.8746 15.342 16.931L15.343 16.932C15.2638 17.0261 15.2222 17.1461 15.226 17.269C15.2299 17.3919 15.2791 17.5091 15.364 17.598L16.128 18.371C16.304 18.551 16.582 18.541 16.748 18.351C17.985 16.931 18.667 15.077 18.667 13.131V13.13ZM22 13.15C22 12.13 21.842 11.124 21.53 10.16V10.157L21.528 10.154C21.4863 10.0367 21.401 9.94002 21.2897 9.88412C21.1785 9.82823 21.05 9.81744 20.931 9.854L19.837 10.183C19.7777 10.1996 19.7224 10.2279 19.6743 10.2663C19.6262 10.3047 19.5863 10.3523 19.5569 10.4064C19.5275 10.4605 19.5093 10.5199 19.5033 10.5812C19.4973 10.6424 19.5037 10.7043 19.522 10.763H19.521C19.8665 11.8336 19.9749 12.9667 19.8386 14.0834C19.7024 15.2001 19.3248 16.2738 18.732 17.23H18.733C18.7012 17.2823 18.6802 17.3405 18.6714 17.401C18.6626 17.4616 18.666 17.5233 18.6816 17.5825C18.6972 17.6417 18.7246 17.6972 18.7621 17.7455C18.7996 17.7939 18.8465 17.8342 18.9 17.864L19.881 18.434C20.108 18.566 20.401 18.494 20.538 18.275C21.4924 16.7355 21.9986 14.9603 22 13.149" fill="black"/>
<path d="M5.268 17.232C4.67549 16.2755 4.29811 15.2016 4.16204 14.0847C4.02597 12.9679 4.13446 11.8348 4.48 10.764C4.49819 10.7052 4.50445 10.6434 4.49839 10.5822C4.49234 10.521 4.47409 10.4617 4.44474 10.4076C4.41539 10.3536 4.37551 10.3059 4.32747 10.2675C4.27943 10.2291 4.22418 10.2007 4.165 10.184L3.072 9.854C2.95274 9.81693 2.82376 9.82759 2.71221 9.88374C2.60067 9.93989 2.51526 10.0371 2.474 10.155H2.472C2.03682 11.4996 1.89995 12.9228 2.07093 14.3257C2.24191 15.7286 2.71661 17.0773 3.462 18.278H3.464C3.53224 18.3832 3.63834 18.458 3.76028 18.4871C3.88223 18.5161 4.01068 18.4971 4.119 18.434L5.101 17.864C5.15405 17.8342 5.20058 17.794 5.23783 17.7459C5.27508 17.6977 5.3023 17.6426 5.31787 17.5838C5.33344 17.525 5.33705 17.4636 5.32848 17.4033C5.31992 17.3431 5.29935 17.2852 5.268 17.233V17.232Z" fill="black"/>
</svg>
