<svg width="24" height="24" viewBox="0 0 24 24" fill="none" xmlns="http://www.w3.org/2000/svg">
<path d="M16 18C16 18.7957 15.6839 19.5587 15.1213 20.1213C14.5587 20.6839 13.7956 21 13 21H7C6.20435 21 5.44129 20.6839 4.87868 20.1213C4.31607 19.5587 4 18.7957 4 18V9H17C17.7956 9 18.5587 9.31607 19.1213 9.87868C19.6839 10.4413 20 11.2044 20 12V15C20 15.7957 19.6839 16.5587 19.1213 17.1213C18.5587 17.6839 17.7956 18 17 18H16ZM4.035 7C4.15936 6.13836 4.60037 5.35399 5.27194 4.80002C5.94351 4.24605 6.79743 3.96224 7.667 4.004C8.29436 3.49542 9.04702 3.16504 9.84603 3.04753C10.645 2.93002 11.461 3.02969 12.2082 3.33611C12.9554 3.64253 13.6064 4.14439 14.0929 4.78904C14.5793 5.4337 14.8833 6.19739 14.973 7H4.035ZM8 11C7.73478 11 7.48043 11.1054 7.29289 11.2929C7.10536 11.4804 7 11.7348 7 12V16C7 16.2652 7.10536 16.5196 7.29289 16.7071C7.48043 16.8946 7.73478 17 8 17C8.26522 17 8.51957 16.8946 8.70711 16.7071C8.89464 16.5196 9 16.2652 9 16V12C9 11.7348 8.89464 11.4804 8.70711 11.2929C8.51957 11.1054 8.26522 11 8 11ZM12 11C11.7348 11 11.4804 11.1054 11.2929 11.2929C11.1054 11.4804 11 11.7348 11 12V16C11 16.2652 11.1054 16.5196 11.2929 16.7071C11.4804 16.8946 11.7348 17 12 17C12.2652 17 12.5196 16.8946 12.7071 16.7071C12.8946 16.5196 13 16.2652 13 16V12C13 11.7348 12.8946 11.4804 12.7071 11.2929C12.5196 11.1054 12.2652 11 12 11ZM16 11V16H17C17.2652 16 17.5196 15.8946 17.7071 15.7071C17.8946 15.5196 18 15.2652 18 15V12C18 11.7348 17.8946 11.4804 17.7071 11.2929C17.5196 11.1054 17.2652 11 17 11H16Z" fill="black"/>
</svg>
