<svg width="24" height="24" viewBox="0 0 24 24" fill="none" xmlns="http://www.w3.org/2000/svg">
<path d="M6 9V18C6 18.2652 6.10536 18.5196 6.29289 18.7071C6.48043 18.8946 6.73478 19 7 19H13C13.2652 19 13.5196 18.8946 13.7071 18.7071C13.8946 18.5196 14 18.2652 14 18V9H6ZM16 9H17C17.7956 9 18.5587 9.31607 19.1213 9.87868C19.6839 10.4413 20 11.2044 20 12V15C20 15.7957 19.6839 16.5587 19.1213 17.1213C18.5587 17.6839 17.7956 18 17 18H16C16 18.7957 15.6839 19.5587 15.1213 20.1213C14.5587 20.6839 13.7956 21 13 21H7C6.20435 21 5.44129 20.6839 4.87868 20.1213C4.31607 19.5587 4 18.7957 4 18V9C4 8.46957 4.21071 7.96086 4.58579 7.58579C4.96086 7.21072 5.46957 7 6 7H14C14.5304 7 15.0391 7.21072 15.4142 7.58579C15.7893 7.96086 16 8.46957 16 9ZM16 11V16H17C17.2652 16 17.5196 15.8946 17.7071 15.7071C17.8946 15.5196 18 15.2652 18 15V12C18 11.7348 17.8946 11.4804 17.7071 11.2929C17.5196 11.1054 17.2652 11 17 11H16ZM8 11C8.26522 11 8.51957 11.1054 8.70711 11.2929C8.89464 11.4804 9 11.7348 9 12V16C9 16.2652 8.89464 16.5196 8.70711 16.7071C8.51957 16.8946 8.26522 17 8 17C7.73478 17 7.48043 16.8946 7.29289 16.7071C7.10536 16.5196 7 16.2652 7 16V12C7 11.7348 7.10536 11.4804 7.29289 11.2929C7.48043 11.1054 7.73478 11 8 11ZM12 11C12.2652 11 12.5196 11.1054 12.7071 11.2929C12.8946 11.4804 13 11.7348 13 12V16C13 16.2652 12.8946 16.5196 12.7071 16.7071C12.5196 16.8946 12.2652 17 12 17C11.7348 17 11.4804 16.8946 11.2929 16.7071C11.1054 16.5196 11 16.2652 11 16V12C11 11.7348 11.1054 11.4804 11.2929 11.2929C11.4804 11.1054 11.7348 11 12 11ZM10.5 3C11.6935 3 12.8381 3.47411 13.682 4.31802C14.5259 5.16194 15 6.30653 15 7.5V9.009H4V7.5C4 7.02632 4.09616 6.55756 4.28264 6.12213C4.46912 5.68669 4.74205 5.29364 5.0849 4.96678C5.42774 4.63993 5.83337 4.38606 6.2772 4.22057C6.72104 4.05508 7.19385 3.9814 7.667 4.004C8.46759 3.35317 9.46824 2.99854 10.5 3ZM6 7H13C13 6.46957 12.7893 5.96086 12.4142 5.58579C12.0391 5.21072 11.5304 5 11 5H10C9.64282 4.99993 9.29213 5.09551 8.98438 5.27682C8.67663 5.45813 8.42306 5.71854 8.25 6.031C8.1683 6.0102 8.08431 5.99978 8 6H7C6.73478 6 6.48043 6.10536 6.29289 6.2929C6.10536 6.48043 6 6.73479 6 7Z" fill="black"/>
</svg>
