<svg width="24" height="24" viewBox="0 0 24 24" fill="none" xmlns="http://www.w3.org/2000/svg">
<path d="M15 19.5C15 20.2956 14.6839 21.0587 14.1213 21.6213C13.5587 22.1839 12.7956 22.5 12 22.5C11.2043 22.5 10.4413 22.1839 9.87867 21.6213C9.31606 21.0587 8.99999 20.2956 8.99999 19.5H6.65699L8.65699 17.5H18.71C18.3401 16.2586 17.6324 15.1444 16.666 14.282L16 13.686V10.156L17.99 8.16596C17.997 8.27596 18 8.38796 18 8.49996V12.792C18.9449 13.6352 19.7007 14.6689 20.2177 15.825C20.7348 16.9811 21.0014 18.2335 21 19.5H15ZM3.29499 17.205C3.74497 15.5008 4.68556 13.9663 5.99999 12.792V8.49996C5.99985 7.31317 6.35167 6.15299 7.01094 5.16616C7.67022 4.17933 8.60735 3.41019 9.70379 2.956C10.8002 2.50182 12.0068 2.383 13.1707 2.61457C14.3347 2.84614 15.4039 3.4177 16.243 4.25696L14.828 5.67196C14.2686 5.11272 13.5559 4.7319 12.7801 4.57763C12.0043 4.42336 11.2002 4.50257 10.4694 4.80525C9.73857 5.10793 9.11392 5.62049 8.67438 6.27813C8.23485 6.93577 8.00016 7.70896 7.99999 8.49996V12.5L3.29499 17.205ZM12 20.5C12.2652 20.5 12.5196 20.3946 12.7071 20.2071C12.8946 20.0195 13 19.7652 13 19.5H11C11 19.7652 11.1053 20.0195 11.2929 20.2071C11.4804 20.3946 11.7348 20.5 12 20.5ZM21.092 2.20696C21.2795 2.39449 21.3848 2.6488 21.3848 2.91396C21.3848 3.17912 21.2795 3.43343 21.092 3.62096L4.12199 20.591C4.02981 20.6865 3.91952 20.7628 3.79755 20.8153C3.67559 20.8678 3.54439 20.8955 3.41161 20.8967C3.27883 20.8979 3.14714 20.8727 3.02421 20.8225C2.90128 20.7724 2.78957 20.6982 2.69562 20.6044C2.60166 20.5105 2.52733 20.3989 2.47696 20.2761C2.42659 20.1532 2.40119 20.0215 2.40225 19.8888C2.40331 19.756 2.4308 19.6248 2.48313 19.5027C2.53545 19.3807 2.61155 19.2703 2.70699 19.178L19.677 2.20796C19.7699 2.11498 19.8802 2.04122 20.0016 1.9909C20.1229 1.94058 20.2531 1.91467 20.3845 1.91467C20.5159 1.91467 20.646 1.94058 20.7674 1.9909C20.8888 2.04122 20.9991 2.11498 21.092 2.20796V2.20696Z" fill="black"/>
</svg>
