<svg width="24" height="24" viewBox="0 0 24 24" fill="none" xmlns="http://www.w3.org/2000/svg">
<path d="M15.99 11.297C15.9881 11.2489 15.972 11.2026 15.9437 11.1637C15.9154 11.1249 15.8762 11.0954 15.831 11.079L11.127 9.62296C11.039 9.59596 10.999 9.64296 11.037 9.72596L11.913 11.648C11.9622 11.7428 12.0393 11.8203 12.134 11.87L13.334 12.42C13.418 12.457 13.42 12.524 13.339 12.567L8.217 15.291C8.137 15.334 8.126 15.319 8.194 15.257L10.162 13.485C10.2362 13.41 10.2803 13.3103 10.286 13.205L10.287 7.83496C10.2852 7.7868 10.2691 7.74027 10.2408 7.70128C10.2125 7.66228 10.1732 7.63258 10.128 7.61596L8.16 7.00696C8.072 6.97996 8 7.03396 8 7.12696V15.275C8 15.367 8.061 15.486 8.136 15.539L10.137 16.957C10.212 17.01 10.337 17.015 10.417 16.967L15.847 13.697C15.889 13.6684 15.9239 13.6305 15.9488 13.5863C15.9738 13.5421 15.9882 13.4927 15.991 13.442V11.297H15.99Z" fill="black"/>
<path d="M6 4C5.46957 4 4.96086 4.21071 4.58579 4.58579C4.21071 4.96086 4 5.46957 4 6V18C4 18.5304 4.21071 19.0391 4.58579 19.4142C4.96086 19.7893 5.46957 20 6 20H18C18.5304 20 19.0391 19.7893 19.4142 19.4142C19.7893 19.0391 20 18.5304 20 18V6C20 5.46957 19.7893 4.96086 19.4142 4.58579C19.0391 4.21071 18.5304 4 18 4H6ZM6 2H18C19.0609 2 20.0783 2.42143 20.8284 3.17157C21.5786 3.92172 22 4.93913 22 6V18C22 19.0609 21.5786 20.0783 20.8284 20.8284C20.0783 21.5786 19.0609 22 18 22H6C4.93913 22 3.92172 21.5786 3.17157 20.8284C2.42143 20.0783 2 19.0609 2 18V6C2 4.93913 2.42143 3.92172 3.17157 3.17157C3.92172 2.42143 4.93913 2 6 2V2Z" fill="black"/>
</svg>
