<svg width="24" height="24" viewBox="0 0 24 24" fill="none" xmlns="http://www.w3.org/2000/svg">
<path d="M15.593 21.96C19.073 21.96 21.9 19.124 21.92 15.663L21.959 10.568L21.9 10.29L21.733 9.942L21.45 9.722C21.083 9.435 19.222 9.742 18.721 9.287C18.366 8.963 18.311 8.377 18.203 7.581C18.003 6.041 17.877 5.961 17.635 5.439C16.76 3.585 14.382 2.193 12.75 2H8.325C4.845 2 2 4.839 2 8.307V15.663C2 19.124 4.845 21.959 8.325 21.959H15.593V21.96ZM8.406 7.151H11.913C12.583 7.151 13.125 7.695 13.125 8.356C13.125 9.013 12.583 9.562 11.913 9.562H8.406C7.736 9.562 7.196 9.013 7.196 8.356C7.196 7.695 7.736 7.151 8.406 7.151ZM7.196 15.569C7.196 14.909 7.736 14.369 8.406 14.369H15.533C16.198 14.369 16.738 14.909 16.738 15.569C16.738 16.221 16.198 16.769 15.533 16.769H8.406C8.08681 16.769 7.78055 16.6429 7.55392 16.4181C7.32728 16.1934 7.19864 15.8882 7.196 15.569Z" fill="black"/>
</svg>
