<svg width="24" height="24" viewBox="0 0 24 24" fill="none" xmlns="http://www.w3.org/2000/svg">
<path d="M10.5 12.455V15.182H12C12.828 15.182 13.5 14.572 13.5 13.818C13.5 13.065 12.828 12.455 12 12.455H10.5ZM14.014 11.215C14.913 11.793 15.5 12.744 15.5 13.819C15.5 15.575 13.933 17 12 17H8.5V7.91C8.5 7.406 8.948 7 9.5 7H11.5C13.157 7 14.5 8.221 14.5 9.727C14.5 10.277 14.321 10.787 14.014 11.216V11.215ZM10.5 8.819V10.637H11.5C12.052 10.637 12.5 10.23 12.5 9.728C12.5 9.226 12.052 8.819 11.5 8.819H10.5Z" fill="black"/>
</svg>
