<svg width="24" height="24" viewBox="0 0 24 24" fill="none" xmlns="http://www.w3.org/2000/svg">
<path d="M13 10.358V8.35803C13 8.09282 12.8946 7.83846 12.7071 7.65093C12.5196 7.46339 12.2652 7.35803 12 7.35803C11.7348 7.35803 11.4804 7.46339 11.2929 7.65093C11.1054 7.83846 11 8.09282 11 8.35803V10.358H9C8.73478 10.358 8.48043 10.4634 8.29289 10.6509C8.10536 10.8385 8 11.0928 8 11.358C8 11.6232 8.10536 11.8776 8.29289 12.0651C8.48043 12.2527 8.73478 12.358 9 12.358H11V14.358C11 14.6232 11.1054 14.8776 11.2929 15.0651C11.4804 15.2527 11.7348 15.358 12 15.358C12.2652 15.358 12.5196 15.2527 12.7071 15.0651C12.8946 14.8776 13 14.6232 13 14.358V12.358H15C15.2652 12.358 15.5196 12.2527 15.7071 12.0651C15.8946 11.8776 16 11.6232 16 11.358C16 11.0928 15.8946 10.8385 15.7071 10.6509C15.5196 10.4634 15.2652 10.358 15 10.358H13ZM8 2.35803H16C16.7956 2.35803 17.5587 2.6741 18.1213 3.23671C18.6839 3.79932 19 4.56238 19 5.35803V20.358C18.9999 20.7458 18.8871 21.1251 18.6754 21.4499C18.4636 21.7747 18.162 22.0309 17.8073 22.1874C17.4525 22.3439 17.0599 22.3939 16.6773 22.3314C16.2946 22.2688 15.9384 22.0964 15.652 21.835L12.674 19.118C12.4898 18.9499 12.2494 18.8568 12 18.8568C11.7506 18.8568 11.5102 18.9499 11.326 19.118L8.348 21.835C8.06157 22.0964 7.70536 22.2688 7.32272 22.3314C6.94007 22.3939 6.54749 22.3439 6.19275 22.1874C5.83801 22.0309 5.5364 21.7747 5.32464 21.4499C5.11288 21.1251 5.00009 20.7458 5 20.358V5.35803C5 4.56238 5.31607 3.79932 5.87868 3.23671C6.44129 2.6741 7.20435 2.35803 8 2.35803Z" fill="black"/>
</svg>
