<svg width="24" height="24" viewBox="0 0 24 24" fill="none" xmlns="http://www.w3.org/2000/svg">
<path d="M8 4C7.73478 4 7.48043 4.10536 7.29289 4.29289C7.10536 4.48043 7 4.73478 7 5V20L9.978 17.283C10.5307 16.7787 11.2518 16.4992 12 16.4992C12.7482 16.4992 13.4693 16.7787 14.022 17.283L17 20V5C17 4.73478 16.8946 4.48043 16.7071 4.29289C16.5196 4.10536 16.2652 4 16 4H8ZM8 2H16C16.7956 2 17.5587 2.31607 18.1213 2.87868C18.6839 3.44129 19 4.20435 19 5V20C18.9999 20.3877 18.8871 20.7671 18.6754 21.0919C18.4636 21.4167 18.162 21.6729 17.8073 21.8294C17.4525 21.9859 17.0599 22.0359 16.6773 21.9733C16.2946 21.9108 15.9384 21.7383 15.652 21.477L12.674 18.76C12.4898 18.5919 12.2494 18.4987 12 18.4987C11.7506 18.4987 11.5102 18.5919 11.326 18.76L8.348 21.477C8.06157 21.7383 7.70536 21.9108 7.32272 21.9733C6.94007 22.0359 6.54749 21.9859 6.19275 21.8294C5.83801 21.6729 5.5364 21.4167 5.32464 21.0919C5.11288 20.7671 5.00009 20.3877 5 20V5C5 4.20435 5.31607 3.44129 5.87868 2.87868C6.44129 2.31607 7.20435 2 8 2V2ZM13.414 11L14.828 12.414C14.9235 12.5062 14.9997 12.6166 15.0521 12.7386C15.1045 12.8606 15.1321 12.9918 15.1333 13.1246C15.1344 13.2574 15.1091 13.3891 15.0588 13.512C15.0085 13.6349 14.9343 13.7465 14.8404 13.8404C14.7465 13.9343 14.6349 14.0085 14.512 14.0588C14.3891 14.1091 14.2574 14.1344 14.1246 14.1333C13.9918 14.1321 13.8606 14.1045 13.7386 14.0521C13.6166 13.9997 13.5062 13.9235 13.414 13.828L12 12.414L10.586 13.828C10.3974 14.0102 10.1448 14.111 9.8826 14.1087C9.6204 14.1064 9.36959 14.0012 9.18418 13.8158C8.99877 13.6304 8.8936 13.3796 8.89133 13.1174C8.88905 12.8552 8.98984 12.6026 9.172 12.414L10.586 11L9.172 9.586C9.07649 9.49375 9.00031 9.38341 8.9479 9.2614C8.89549 9.1394 8.8679 9.00818 8.86675 8.8754C8.8656 8.74262 8.8909 8.61094 8.94118 8.48805C8.99146 8.36515 9.06571 8.2535 9.15961 8.15961C9.2535 8.06571 9.36515 7.99146 9.48805 7.94118C9.61094 7.8909 9.74262 7.8656 9.8754 7.86675C10.0082 7.8679 10.1394 7.89549 10.2614 7.9479C10.3834 8.00031 10.4938 8.07649 10.586 8.172L12 9.586L13.414 8.172C13.5062 8.07649 13.6166 8.00031 13.7386 7.9479C13.8606 7.89549 13.9918 7.8679 14.1246 7.86675C14.2574 7.8656 14.3891 7.8909 14.512 7.94118C14.6349 7.99146 14.7465 8.06571 14.8404 8.15961C14.9343 8.2535 15.0085 8.36515 15.0588 8.48805C15.1091 8.61094 15.1344 8.74262 15.1333 8.8754C15.1321 9.00818 15.1045 9.1394 15.0521 9.2614C14.9997 9.38341 14.9235 9.49375 14.828 9.586L13.414 11Z" fill="black"/>
</svg>
