<svg width="24" height="24" viewBox="0 0 24 24" fill="none" xmlns="http://www.w3.org/2000/svg">
<path d="M8 4C7.73478 4 7.48043 4.10536 7.29289 4.29289C7.10536 4.48043 7 4.73478 7 5V20L9.978 17.283C10.5307 16.7787 11.2518 16.4992 12 16.4992C12.7482 16.4992 13.4693 16.7787 14.022 17.283L17 20V5C17 4.73478 16.8946 4.48043 16.7071 4.29289C16.5196 4.10536 16.2652 4 16 4H8ZM8 2H16C16.7956 2 17.5587 2.31607 18.1213 2.87868C18.6839 3.44129 19 4.20435 19 5V20C18.9999 20.3877 18.8871 20.7671 18.6754 21.0919C18.4636 21.4167 18.162 21.6729 17.8073 21.8294C17.4525 21.9859 17.0599 22.0359 16.6773 21.9733C16.2946 21.9108 15.9384 21.7383 15.652 21.477L12.674 18.76C12.4898 18.5919 12.2494 18.4987 12 18.4987C11.7506 18.4987 11.5102 18.5919 11.326 18.76L8.348 21.477C8.06157 21.7383 7.70536 21.9108 7.32272 21.9733C6.94007 22.0359 6.54749 21.9859 6.19275 21.8294C5.83801 21.6729 5.5364 21.4167 5.32464 21.0919C5.11288 20.7671 5.00009 20.3877 5 20V5C5 4.20435 5.31607 3.44129 5.87868 2.87868C6.44129 2.31607 7.20435 2 8 2V2ZM13 10H15C15.2652 10 15.5196 10.1054 15.7071 10.2929C15.8946 10.4804 16 10.7348 16 11C16 11.2652 15.8946 11.5196 15.7071 11.7071C15.5196 11.8946 15.2652 12 15 12H13V14C13 14.2652 12.8946 14.5196 12.7071 14.7071C12.5196 14.8946 12.2652 15 12 15C11.7348 15 11.4804 14.8946 11.2929 14.7071C11.1054 14.5196 11 14.2652 11 14V12H9C8.73478 12 8.48043 11.8946 8.29289 11.7071C8.10536 11.5196 8 11.2652 8 11C8 10.7348 8.10536 10.4804 8.29289 10.2929C8.48043 10.1054 8.73478 10 9 10H11V8C11 7.73478 11.1054 7.48043 11.2929 7.29289C11.4804 7.10536 11.7348 7 12 7C12.2652 7 12.5196 7.10536 12.7071 7.29289C12.8946 7.48043 13 7.73478 13 8V10Z" fill="black"/>
</svg>
