<svg width="24" height="24" viewBox="0 0 24 24" fill="none" xmlns="http://www.w3.org/2000/svg">
<path d="M16.975 11H7.025C7.11257 10.2226 7.42618 9.48798 7.927 8.887L9.037 7.557C9.33668 7.19706 9.50054 6.74336 9.5 6.275V3C9.5 2.73478 9.60536 2.48043 9.79289 2.29289C9.98043 2.10536 10.2348 2 10.5 2H13.5C13.7652 2 14.0196 2.10536 14.2071 2.29289C14.3946 2.48043 14.5 2.73478 14.5 3V6.276C14.5002 6.7438 14.6644 7.19673 14.964 7.556L16.073 8.887C16.5738 9.48798 16.8874 10.2226 16.975 11ZM17 18V20C17 20.5304 16.7893 21.0391 16.4142 21.4142C16.0391 21.7893 15.5304 22 15 22H9C8.46957 22 7.96086 21.7893 7.58579 21.4142C7.21071 21.0391 7 20.5304 7 20V18H17ZM9 13H15V16H9V13Z" fill="black"/>
</svg>
