<svg width="24" height="24" viewBox="0 0 24 24" fill="none" xmlns="http://www.w3.org/2000/svg">
<path d="M12 16.358C10.9391 16.358 9.92172 15.9366 9.17157 15.1865C8.42143 14.4363 8 13.4189 8 12.358C8 11.2972 8.42143 10.2798 9.17157 9.5296C9.92172 8.77946 10.9391 8.35803 12 8.35803C13.0609 8.35803 14.0783 8.77946 14.8284 9.5296C15.5786 10.2798 16 11.2972 16 12.358C16 13.4189 15.5786 14.4363 14.8284 15.1865C14.0783 15.9366 13.0609 16.358 12 16.358ZM18 11.358H21C21.2652 11.358 21.5196 11.4634 21.7071 11.6509C21.8946 11.8385 22 12.0928 22 12.358C22 12.6232 21.8946 12.8776 21.7071 13.0651C21.5196 13.2527 21.2652 13.358 21 13.358H18C17.7348 13.358 17.4804 13.2527 17.2929 13.0651C17.1054 12.8776 17 12.6232 17 12.358C17 12.0928 17.1054 11.8385 17.2929 11.6509C17.4804 11.4634 17.7348 11.358 18 11.358ZM12 17.358C12.2652 17.358 12.5196 17.4634 12.7071 17.6509C12.8946 17.8385 13 18.0928 13 18.358V21.358C13 21.6232 12.8946 21.8776 12.7071 22.0651C12.5196 22.2527 12.2652 22.358 12 22.358C11.7348 22.358 11.4804 22.2527 11.2929 22.0651C11.1054 21.8776 11 21.6232 11 21.358V18.358C11 18.0928 11.1054 17.8385 11.2929 17.6509C11.4804 17.4634 11.7348 17.358 12 17.358ZM12 2.35803C12.2652 2.35803 12.5196 2.46339 12.7071 2.65093C12.8946 2.83846 13 3.09282 13 3.35803V6.35803C13 6.62325 12.8946 6.8776 12.7071 7.06514C12.5196 7.25268 12.2652 7.35803 12 7.35803C11.7348 7.35803 11.4804 7.25268 11.2929 7.06514C11.1054 6.8776 11 6.62325 11 6.35803V3.35803C11 3.09282 11.1054 2.83846 11.2929 2.65093C11.4804 2.46339 11.7348 2.35803 12 2.35803ZM3 11.358H6C6.26522 11.358 6.51957 11.4634 6.70711 11.6509C6.89464 11.8385 7 12.0928 7 12.358C7 12.6232 6.89464 12.8776 6.70711 13.0651C6.51957 13.2527 6.26522 13.358 6 13.358H3C2.73478 13.358 2.48043 13.2527 2.29289 13.0651C2.10536 12.8776 2 12.6232 2 12.358C2 12.0928 2.10536 11.8385 2.29289 11.6509C2.48043 11.4634 2.73478 11.358 3 11.358ZM16.95 15.893L19.071 18.015C19.2532 18.2036 19.354 18.4562 19.3517 18.7184C19.3494 18.9806 19.2442 19.2314 19.0588 19.4169C18.8734 19.6023 18.6226 19.7074 18.3604 19.7097C18.0982 19.712 17.8456 19.6112 17.657 19.429L15.536 17.308C15.3484 17.1205 15.2429 16.8662 15.2428 16.6009C15.2427 16.3356 15.348 16.0812 15.5355 15.8935C15.723 15.7059 15.9774 15.6004 16.2426 15.6003C16.5079 15.6002 16.7624 15.7055 16.95 15.893ZM8.464 15.893C8.55698 15.9859 8.63074 16.0962 8.68106 16.2176C8.73138 16.339 8.75729 16.4691 8.75729 16.6005C8.75729 16.7319 8.73138 16.8621 8.68106 16.9835C8.63074 17.1049 8.55698 17.2152 8.464 17.308L6.344 19.428C6.25182 19.5236 6.14153 19.5999 6.01956 19.6524C5.8976 19.7049 5.7664 19.7325 5.63362 19.7338C5.50084 19.735 5.36915 19.7098 5.24622 19.6596C5.12329 19.6094 5.01158 19.5353 4.91762 19.4414C4.82367 19.3476 4.74933 19.236 4.69897 19.1131C4.6486 18.9903 4.6232 18.8586 4.62426 18.7258C4.62532 18.5931 4.65281 18.4618 4.70513 18.3398C4.75746 18.2177 4.83356 18.1073 4.929 18.015L7.05 15.893C7.23753 15.7056 7.49184 15.6002 7.757 15.6002C8.02216 15.6002 8.27647 15.7056 8.464 15.893ZM19.071 5.28703C19.2585 5.47456 19.3638 5.72887 19.3638 5.99403C19.3638 6.2592 19.2585 6.5135 19.071 6.70103L16.95 8.82203C16.7614 9.00419 16.5088 9.10498 16.2466 9.10271C15.9844 9.10043 15.7336 8.99526 15.5482 8.80985C15.3628 8.62444 15.2576 8.37363 15.2553 8.11143C15.253 7.84924 15.3538 7.59663 15.536 7.40803L17.656 5.28703C17.7489 5.19406 17.8592 5.1203 17.9806 5.06997C18.102 5.01965 18.2321 4.99375 18.3635 4.99375C18.4949 4.99375 18.625 5.01965 18.7464 5.06997C18.8678 5.1203 18.9781 5.19406 19.071 5.28703ZM6.343 5.28703L8.464 7.40803C8.55951 7.50028 8.63569 7.61062 8.6881 7.73263C8.74051 7.85463 8.7681 7.98585 8.76925 8.11863C8.7704 8.25141 8.7451 8.38309 8.69482 8.50599C8.64454 8.62888 8.57029 8.74053 8.4764 8.83443C8.3825 8.92832 8.27085 9.00257 8.14795 9.05285C8.02506 9.10314 7.89338 9.12844 7.7606 9.12728C7.62782 9.12613 7.4966 9.09854 7.3746 9.04613C7.25259 8.99372 7.14225 8.91754 7.05 8.82203L4.93 6.70103C4.74784 6.51243 4.64705 6.25983 4.64933 5.99763C4.6516 5.73543 4.75677 5.48462 4.94218 5.29921C5.12759 5.11381 5.3784 5.00864 5.6406 5.00636C5.9028 5.00408 6.1554 5.10487 6.344 5.28703H6.343Z" fill="black"/>
</svg>
