<svg width="24" height="24" viewBox="0 0 24 24" fill="none" xmlns="http://www.w3.org/2000/svg">
<path d="M12 14C12.5304 14 13.0391 13.7893 13.4142 13.4142C13.7893 13.0391 14 12.5304 14 12C14 11.4696 13.7893 10.9609 13.4142 10.5858C13.0391 10.2107 12.5304 10 12 10C11.4696 10 10.9609 10.2107 10.5858 10.5858C10.2107 10.9609 10 11.4696 10 12C10 12.5304 10.2107 13.0391 10.5858 13.4142C10.9609 13.7893 11.4696 14 12 14ZM12 16C10.9391 16 9.92172 15.5786 9.17157 14.8284C8.42143 14.0783 8 13.0609 8 12C8 10.9391 8.42143 9.92172 9.17157 9.17157C9.92172 8.42143 10.9391 8 12 8C13.0609 8 14.0783 8.42143 14.8284 9.17157C15.5786 9.92172 16 10.9391 16 12C16 13.0609 15.5786 14.0783 14.8284 14.8284C14.0783 15.5786 13.0609 16 12 16ZM18 11H21C21.2652 11 21.5196 11.1054 21.7071 11.2929C21.8946 11.4804 22 11.7348 22 12C22 12.2652 21.8946 12.5196 21.7071 12.7071C21.5196 12.8946 21.2652 13 21 13H18C17.7348 13 17.4804 12.8946 17.2929 12.7071C17.1054 12.5196 17 12.2652 17 12C17 11.7348 17.1054 11.4804 17.2929 11.2929C17.4804 11.1054 17.7348 11 18 11ZM12 17C12.2652 17 12.5196 17.1054 12.7071 17.2929C12.8946 17.4804 13 17.7348 13 18V21C13 21.2652 12.8946 21.5196 12.7071 21.7071C12.5196 21.8946 12.2652 22 12 22C11.7348 22 11.4804 21.8946 11.2929 21.7071C11.1054 21.5196 11 21.2652 11 21V18C11 17.7348 11.1054 17.4804 11.2929 17.2929C11.4804 17.1054 11.7348 17 12 17ZM12 2C12.2652 2 12.5196 2.10536 12.7071 2.29289C12.8946 2.48043 13 2.73478 13 3V6C13 6.26522 12.8946 6.51957 12.7071 6.70711C12.5196 6.89464 12.2652 7 12 7C11.7348 7 11.4804 6.89464 11.2929 6.70711C11.1054 6.51957 11 6.26522 11 6V3C11 2.73478 11.1054 2.48043 11.2929 2.29289C11.4804 2.10536 11.7348 2 12 2V2ZM3 11H6C6.26522 11 6.51957 11.1054 6.70711 11.2929C6.89464 11.4804 7 11.7348 7 12C7 12.2652 6.89464 12.5196 6.70711 12.7071C6.51957 12.8946 6.26522 13 6 13H3C2.73478 13 2.48043 12.8946 2.29289 12.7071C2.10536 12.5196 2 12.2652 2 12C2 11.7348 2.10536 11.4804 2.29289 11.2929C2.48043 11.1054 2.73478 11 3 11ZM16.95 15.536L19.071 17.656C19.2586 17.8435 19.3641 18.0979 19.3642 18.3631C19.3643 18.6284 19.259 18.8829 19.0715 19.0705C18.884 19.2581 18.6296 19.3636 18.3644 19.3637C18.0991 19.3638 17.8446 19.2585 17.657 19.071L15.536 16.95C15.3538 16.7614 15.253 16.5088 15.2553 16.2466C15.2576 15.9844 15.3628 15.7336 15.5482 15.5482C15.7336 15.3628 15.9844 15.2576 16.2466 15.2553C16.5088 15.253 16.7614 15.3538 16.95 15.536ZM8.464 15.536C8.65147 15.7235 8.75679 15.9778 8.75679 16.243C8.75679 16.5082 8.65147 16.7625 8.464 16.95L6.344 19.071C6.15649 19.2586 5.90212 19.3641 5.63685 19.3642C5.37158 19.3643 5.11714 19.259 4.9295 19.0715C4.74186 18.884 4.63639 18.6296 4.6363 18.3644C4.6362 18.0991 4.74149 17.8446 4.929 17.657L7.05 15.536C7.23753 15.3485 7.49184 15.2432 7.757 15.2432C8.02216 15.2432 8.27647 15.3485 8.464 15.536ZM19.071 4.929C19.2585 5.11653 19.3638 5.37084 19.3638 5.636C19.3638 5.90116 19.2585 6.15547 19.071 6.343L16.95 8.464C16.7614 8.64616 16.5088 8.74695 16.2466 8.74467C15.9844 8.7424 15.7336 8.63723 15.5482 8.45182C15.3628 8.26641 15.2576 8.0156 15.2553 7.7534C15.253 7.4912 15.3538 7.2386 15.536 7.05L17.656 4.929C17.7489 4.83602 17.8592 4.76226 17.9806 4.71194C18.102 4.66162 18.2321 4.63571 18.3635 4.63571C18.4949 4.63571 18.625 4.66162 18.7464 4.71194C18.8678 4.76226 18.9781 4.83602 19.071 4.929ZM6.343 4.929L8.464 7.05C8.55951 7.14225 8.63569 7.25259 8.6881 7.3746C8.74051 7.4966 8.7681 7.62782 8.76925 7.7606C8.7704 7.89338 8.7451 8.02506 8.69482 8.14795C8.64454 8.27085 8.57029 8.3825 8.4764 8.4764C8.3825 8.57029 8.27085 8.64454 8.14795 8.69482C8.02506 8.7451 7.89338 8.7704 7.7606 8.76925C7.62782 8.7681 7.4966 8.74051 7.3746 8.6881C7.25259 8.63569 7.14225 8.55951 7.05 8.464L4.93 6.344C4.74236 6.15649 4.63689 5.90212 4.6368 5.63685C4.6367 5.37158 4.74199 5.11714 4.9295 4.9295C5.11701 4.74186 5.37138 4.63639 5.63665 4.6363C5.90192 4.6362 6.15636 4.74149 6.344 4.929H6.343Z" fill="black"/>
</svg>
