<svg width="24" height="24" viewBox="0 0 24 24" fill="none" xmlns="http://www.w3.org/2000/svg">
<path d="M12 14C12.5304 14 13.0391 13.7893 13.4142 13.4142C13.7893 13.0391 14 12.5304 14 12C14 11.4696 13.7893 10.9609 13.4142 10.5858C13.0391 10.2107 12.5304 10 12 10C11.4696 10 10.9609 10.2107 10.5858 10.5858C10.2107 10.9609 10 11.4696 10 12C10 12.5304 10.2107 13.0391 10.5858 13.4142C10.9609 13.7893 11.4696 14 12 14ZM12 16C10.9391 16 9.92172 15.5786 9.17157 14.8284C8.42143 14.0783 8 13.0609 8 12C8 10.9391 8.42143 9.92172 9.17157 9.17157C9.92172 8.42143 10.9391 8 12 8C13.0609 8 14.0783 8.42143 14.8284 9.17157C15.5786 9.92172 16 10.9391 16 12C16 13.0609 15.5786 14.0783 14.8284 14.8284C14.0783 15.5786 13.0609 16 12 16ZM18 11H19C19.2652 11 19.5196 11.1054 19.7071 11.2929C19.8946 11.4804 20 11.7348 20 12C20 12.2652 19.8946 12.5196 19.7071 12.7071C19.5196 12.8946 19.2652 13 19 13H18C17.7348 13 17.4804 12.8946 17.2929 12.7071C17.1054 12.5196 17 12.2652 17 12C17 11.7348 17.1054 11.4804 17.2929 11.2929C17.4804 11.1054 17.7348 11 18 11ZM12 17C12.2652 17 12.5196 17.1054 12.7071 17.2929C12.8946 17.4804 13 17.7348 13 18V19C13 19.2652 12.8946 19.5196 12.7071 19.7071C12.5196 19.8946 12.2652 20 12 20C11.7348 20 11.4804 19.8946 11.2929 19.7071C11.1054 19.5196 11 19.2652 11 19V18C11 17.7348 11.1054 17.4804 11.2929 17.2929C11.4804 17.1054 11.7348 17 12 17ZM12 4C12.2652 4 12.5196 4.10536 12.7071 4.29289C12.8946 4.48043 13 4.73478 13 5V6C13 6.26522 12.8946 6.51957 12.7071 6.70711C12.5196 6.89464 12.2652 7 12 7C11.7348 7 11.4804 6.89464 11.2929 6.70711C11.1054 6.51957 11 6.26522 11 6V5C11 4.73478 11.1054 4.48043 11.2929 4.29289C11.4804 4.10536 11.7348 4 12 4V4ZM5 11H6C6.26522 11 6.51957 11.1054 6.70711 11.2929C6.89464 11.4804 7 11.7348 7 12C7 12.2652 6.89464 12.5196 6.70711 12.7071C6.51957 12.8946 6.26522 13 6 13H5C4.73478 13 4.48043 12.8946 4.29289 12.7071C4.10536 12.5196 4 12.2652 4 12C4 11.7348 4.10536 11.4804 4.29289 11.2929C4.48043 11.1054 4.73478 11 5 11ZM16.95 15.536L17.657 16.243C17.7525 16.3352 17.8287 16.4456 17.8811 16.5676C17.9335 16.6896 17.9611 16.8208 17.9623 16.9536C17.9634 17.0864 17.9381 17.2181 17.8878 17.341C17.8375 17.4639 17.7633 17.5755 17.6694 17.6694C17.5755 17.7633 17.4639 17.8375 17.341 17.8878C17.2181 17.9381 17.0864 17.9634 16.9536 17.9623C16.8208 17.9611 16.6896 17.9335 16.5676 17.8811C16.4456 17.8287 16.3352 17.7525 16.243 17.657L15.536 16.95C15.3538 16.7614 15.253 16.5088 15.2553 16.2466C15.2576 15.9844 15.3628 15.7336 15.5482 15.5482C15.7336 15.3628 15.9844 15.2576 16.2466 15.2553C16.5088 15.253 16.7614 15.3538 16.95 15.536ZM8.464 15.536C8.65147 15.7235 8.75679 15.9778 8.75679 16.243C8.75679 16.5082 8.65147 16.7625 8.464 16.95L7.757 17.657C7.5684 17.8392 7.3158 17.94 7.0536 17.9377C6.7914 17.9354 6.54059 17.8302 6.35518 17.6448C6.16977 17.4594 6.0646 17.2086 6.06233 16.9464C6.06005 16.6842 6.16084 16.4316 6.343 16.243L7.05 15.536C7.23753 15.3485 7.49184 15.2432 7.757 15.2432C8.02216 15.2432 8.27647 15.3485 8.464 15.536ZM17.657 6.343C17.8445 6.53053 17.9498 6.78484 17.9498 7.05C17.9498 7.31516 17.8445 7.56947 17.657 7.757L16.95 8.464C16.7614 8.64616 16.5088 8.74695 16.2466 8.74467C15.9844 8.7424 15.7336 8.63723 15.5482 8.45182C15.3628 8.26641 15.2576 8.0156 15.2553 7.7534C15.253 7.4912 15.3538 7.2386 15.536 7.05L16.243 6.343C16.4305 6.15553 16.6848 6.05021 16.95 6.05021C17.2152 6.05021 17.4695 6.15553 17.657 6.343ZM7.757 6.343L8.464 7.05C8.55951 7.14225 8.63569 7.25259 8.6881 7.3746C8.74051 7.4966 8.7681 7.62782 8.76925 7.7606C8.7704 7.89338 8.7451 8.02506 8.69482 8.14795C8.64454 8.27085 8.57029 8.3825 8.4764 8.4764C8.3825 8.57029 8.27085 8.64454 8.14795 8.69482C8.02506 8.7451 7.89338 8.7704 7.7606 8.76925C7.62782 8.7681 7.4966 8.74051 7.3746 8.6881C7.25259 8.63569 7.14225 8.55951 7.05 8.464L6.343 7.757C6.16084 7.5684 6.06005 7.3158 6.06233 7.0536C6.0646 6.7914 6.16977 6.54059 6.35518 6.35518C6.54059 6.16977 6.7914 6.0646 7.0536 6.06233C7.3158 6.06005 7.5684 6.16084 7.757 6.343Z" fill="black"/>
</svg>
