<svg width="24" height="24" viewBox="0 0 24 24" fill="none" xmlns="http://www.w3.org/2000/svg">
<g clip-path="url(#clip0_201_30776)">
<path d="M2.4 6V21H21.6V6H2.4ZM3.6 4.5C3.91826 4.5 4.22348 4.34196 4.44853 4.06066C4.67357 3.77936 4.8 3.39782 4.8 3C4.8 2.60218 4.67357 2.22064 4.44853 1.93934C4.22348 1.65804 3.91826 1.5 3.6 1.5C3.28174 1.5 2.97652 1.65804 2.75147 1.93934C2.52643 2.22064 2.4 2.60218 2.4 3C2.4 3.39782 2.52643 3.77936 2.75147 4.06066C2.97652 4.34196 3.28174 4.5 3.6 4.5ZM7.2 4.5C7.51826 4.5 7.82348 4.34196 8.04853 4.06066C8.27357 3.77936 8.4 3.39782 8.4 3C8.4 2.60218 8.27357 2.22064 8.04853 1.93934C7.82348 1.65804 7.51826 1.5 7.2 1.5C6.88174 1.5 6.57652 1.65804 6.35147 1.93934C6.12643 2.22064 6 2.60218 6 3C6 3.39782 6.12643 3.77936 6.35147 4.06066C6.57652 4.34196 6.88174 4.5 7.2 4.5ZM2.4 0H21.6C22.2365 0 22.847 0.316071 23.2971 0.87868C23.7471 1.44129 24 2.20435 24 3V21C24 21.7956 23.7471 22.5587 23.2971 23.1213C22.847 23.6839 22.2365 24 21.6 24H2.4C1.76348 24 1.15303 23.6839 0.702944 23.1213C0.252856 22.5587 0 21.7956 0 21V3C0 2.20435 0.252856 1.44129 0.702944 0.87868C1.15303 0.316071 1.76348 0 2.4 0V0Z" fill="black"/>
</g>
<defs>
<clipPath id="clip0_201_30776">
<rect width="24" height="24" fill="white"/>
</clipPath>
</defs>
</svg>
