<svg width="24" height="24" viewBox="0 0 24 24" fill="none" xmlns="http://www.w3.org/2000/svg">
<path d="M7.86 14.616L10.54 17.297C10.04 17.947 9.418 18.557 8.676 19.129C7.184 20.279 5.411 20.574 3.358 20.014C4.19338 18.791 5.06135 17.5906 5.961 16.414C6.45 15.777 7.082 15.178 7.859 14.616H7.86ZM9.349 13.278C9.899 12.488 10.618 11.687 11.503 10.872C12.769 9.707 14.97 7.748 18.105 4.995C18.939 4.262 19.965 4.095 20.48 4.61C20.994 5.124 20.828 6.152 20.096 6.986C17.339 10.126 15.38 12.326 14.218 13.587C13.404 14.47 12.602 15.187 11.811 15.74L9.349 13.278Z" fill="black"/>
</svg>
