<svg width="24" height="24" viewBox="0 0 24 24" fill="none" xmlns="http://www.w3.org/2000/svg">
<path d="M14.5 22V19C14.5 18.7348 14.3946 18.4804 14.2071 18.2929C14.0196 18.1054 13.7652 18 13.5 18H10.5C10.2348 18 9.98043 18.1054 9.79289 18.2929C9.60536 18.4804 9.5 18.7348 9.5 19V22H5.5V5C5.5 4.20435 5.81607 3.44129 6.37868 2.87868C6.94129 2.31607 7.70435 2 8.5 2H15.5C16.2956 2 17.0587 2.31607 17.6213 2.87868C18.1839 3.44129 18.5 4.20435 18.5 5V22H14.5ZM9.5 6C9.23478 6 8.98043 6.10536 8.79289 6.29289C8.60536 6.48043 8.5 6.73478 8.5 7C8.5 7.26522 8.60536 7.51957 8.79289 7.70711C8.98043 7.89464 9.23478 8 9.5 8H10.5C10.7652 8 11.0196 7.89464 11.2071 7.70711C11.3946 7.51957 11.5 7.26522 11.5 7C11.5 6.73478 11.3946 6.48043 11.2071 6.29289C11.0196 6.10536 10.7652 6 10.5 6H9.5ZM9.5 9C9.23478 9 8.98043 9.10536 8.79289 9.29289C8.60536 9.48043 8.5 9.73478 8.5 10C8.5 10.2652 8.60536 10.5196 8.79289 10.7071C8.98043 10.8946 9.23478 11 9.5 11H10.5C10.7652 11 11.0196 10.8946 11.2071 10.7071C11.3946 10.5196 11.5 10.2652 11.5 10C11.5 9.73478 11.3946 9.48043 11.2071 9.29289C11.0196 9.10536 10.7652 9 10.5 9H9.5ZM9.5 12C9.23478 12 8.98043 12.1054 8.79289 12.2929C8.60536 12.4804 8.5 12.7348 8.5 13C8.5 13.2652 8.60536 13.5196 8.79289 13.7071C8.98043 13.8946 9.23478 14 9.5 14H10.5C10.7652 14 11.0196 13.8946 11.2071 13.7071C11.3946 13.5196 11.5 13.2652 11.5 13C11.5 12.7348 11.3946 12.4804 11.2071 12.2929C11.0196 12.1054 10.7652 12 10.5 12H9.5ZM9.5 15C9.23478 15 8.98043 15.1054 8.79289 15.2929C8.60536 15.4804 8.5 15.7348 8.5 16C8.5 16.2652 8.60536 16.5196 8.79289 16.7071C8.98043 16.8946 9.23478 17 9.5 17H10.5C10.7652 17 11.0196 16.8946 11.2071 16.7071C11.3946 16.5196 11.5 16.2652 11.5 16C11.5 15.7348 11.3946 15.4804 11.2071 15.2929C11.0196 15.1054 10.7652 15 10.5 15H9.5ZM13.5 6C13.2348 6 12.9804 6.10536 12.7929 6.29289C12.6054 6.48043 12.5 6.73478 12.5 7C12.5 7.26522 12.6054 7.51957 12.7929 7.70711C12.9804 7.89464 13.2348 8 13.5 8H14.5C14.7652 8 15.0196 7.89464 15.2071 7.70711C15.3946 7.51957 15.5 7.26522 15.5 7C15.5 6.73478 15.3946 6.48043 15.2071 6.29289C15.0196 6.10536 14.7652 6 14.5 6H13.5ZM13.5 9C13.2348 9 12.9804 9.10536 12.7929 9.29289C12.6054 9.48043 12.5 9.73478 12.5 10C12.5 10.2652 12.6054 10.5196 12.7929 10.7071C12.9804 10.8946 13.2348 11 13.5 11H14.5C14.7652 11 15.0196 10.8946 15.2071 10.7071C15.3946 10.5196 15.5 10.2652 15.5 10C15.5 9.73478 15.3946 9.48043 15.2071 9.29289C15.0196 9.10536 14.7652 9 14.5 9H13.5ZM13.5 12C13.2348 12 12.9804 12.1054 12.7929 12.2929C12.6054 12.4804 12.5 12.7348 12.5 13C12.5 13.2652 12.6054 13.5196 12.7929 13.7071C12.9804 13.8946 13.2348 14 13.5 14H14.5C14.7652 14 15.0196 13.8946 15.2071 13.7071C15.3946 13.5196 15.5 13.2652 15.5 13C15.5 12.7348 15.3946 12.4804 15.2071 12.2929C15.0196 12.1054 14.7652 12 14.5 12H13.5ZM13.5 15C13.2348 15 12.9804 15.1054 12.7929 15.2929C12.6054 15.4804 12.5 15.7348 12.5 16C12.5 16.2652 12.6054 16.5196 12.7929 16.7071C12.9804 16.8946 13.2348 17 13.5 17H14.5C14.7652 17 15.0196 16.8946 15.2071 16.7071C15.3946 16.5196 15.5 16.2652 15.5 16C15.5 15.7348 15.3946 15.4804 15.2071 15.2929C15.0196 15.1054 14.7652 15 14.5 15H13.5Z" fill="black"/>
</svg>
