<svg width="24" height="24" viewBox="0 0 24 24" fill="none" xmlns="http://www.w3.org/2000/svg">
<path d="M15 19H9V21C9 21.2652 8.89464 21.5196 8.70711 21.7071C8.51957 21.8946 8.26522 22 8 22H7C6.73478 22 6.48043 21.8946 6.29289 21.7071C6.10536 21.5196 6 21.2652 6 21V18.465C5.39166 18.114 4.88651 17.6089 4.53541 17.0007C4.1843 16.3924 3.99964 15.7023 4 15V6C4 4.93913 4.42143 3.92172 5.17157 3.17157C5.92172 2.42143 6.93913 2 8 2H16C17.0609 2 18.0783 2.42143 18.8284 3.17157C19.5786 3.92172 20 4.93913 20 6V15C20 16.48 19.196 17.773 18 18.465V21C18 21.2652 17.8946 21.5196 17.7071 21.7071C17.5196 21.8946 17.2652 22 17 22H16C15.7348 22 15.4804 21.8946 15.2929 21.7071C15.1054 21.5196 15 21.2652 15 21V19ZM18 11V6C18 5.46957 17.7893 4.96086 17.4142 4.58579C17.0391 4.21071 16.5304 4 16 4H8C7.46957 4 6.96086 4.21071 6.58579 4.58579C6.21071 4.96086 6 5.46957 6 6V11H18ZM18 13H6V15C6 15.5304 6.21071 16.0391 6.58579 16.4142C6.96086 16.7893 7.46957 17 8 17H16C16.5304 17 17.0391 16.7893 17.4142 16.4142C17.7893 16.0391 18 15.5304 18 15V13ZM8 5C8.26522 5 8.51957 5.10536 8.70711 5.29289C8.89464 5.48043 9 5.73478 9 6V9C9 9.26522 8.89464 9.51957 8.70711 9.70711C8.51957 9.89464 8.26522 10 8 10C7.73478 10 7.48043 9.89464 7.29289 9.70711C7.10536 9.51957 7 9.26522 7 9V6C7 5.73478 7.10536 5.48043 7.29289 5.29289C7.48043 5.10536 7.73478 5 8 5ZM8 16C7.73478 16 7.48043 15.8946 7.29289 15.7071C7.10536 15.5196 7 15.2652 7 15C7 14.7348 7.10536 14.4804 7.29289 14.2929C7.48043 14.1054 7.73478 14 8 14C8.26522 14 8.51957 14.1054 8.70711 14.2929C8.89464 14.4804 9 14.7348 9 15C9 15.2652 8.89464 15.5196 8.70711 15.7071C8.51957 15.8946 8.26522 16 8 16ZM16 16C15.7348 16 15.4804 15.8946 15.2929 15.7071C15.1054 15.5196 15 15.2652 15 15C15 14.7348 15.1054 14.4804 15.2929 14.2929C15.4804 14.1054 15.7348 14 16 14C16.2652 14 16.5196 14.1054 16.7071 14.2929C16.8946 14.4804 17 14.7348 17 15C17 15.2652 16.8946 15.5196 16.7071 15.7071C16.5196 15.8946 16.2652 16 16 16Z" fill="black"/>
</svg>
