<svg width="24" height="24" viewBox="0 0 24 24" fill="none" xmlns="http://www.w3.org/2000/svg">
<path d="M22 8.50003V16H16V22H8V18H2V10.5C2 9.83699 2.26339 9.20111 2.73223 8.73227C3.20107 8.26343 3.83696 8.00003 4.5 8.00003C5.16304 8.00003 5.79893 8.26343 6.26777 8.73227C6.73661 9.20111 7 9.83699 7 10.5V13H8V6.00003C7.99886 4.96561 8.39849 3.97096 9.11502 3.22488C9.83155 2.47881 10.8093 2.03933 11.8429 1.9987C12.8765 1.95806 13.8857 2.31944 14.6586 3.00697C15.4315 3.6945 15.9079 4.65471 15.988 5.68603V11H17V8.50003C17 7.83699 17.2634 7.20111 17.7322 6.73227C18.2011 6.26343 18.837 6.00003 19.5 6.00003C20.163 6.00003 20.7989 6.26343 21.2678 6.73227C21.7366 7.20111 22 7.83699 22 8.50003ZM10 20H14V14H20V8.50003C20 8.36743 19.9473 8.24025 19.8536 8.14648C19.7598 8.05271 19.6326 8.00003 19.5 8.00003C19.3674 8.00003 19.2402 8.05271 19.1464 8.14648C19.0527 8.24025 19 8.36743 19 8.50003V13H14V6.00003C14 5.4696 13.7893 4.96089 13.4142 4.58582C13.0391 4.21075 12.5304 4.00003 12 4.00003C11.4696 4.00003 10.9609 4.21075 10.5858 4.58582C10.2107 4.96089 10 5.4696 10 6.00003V15H5V10.5C5 10.3674 4.94732 10.2402 4.85355 10.1465C4.75979 10.0527 4.63261 10 4.5 10C4.36739 10 4.24021 10.0527 4.14645 10.1465C4.05268 10.2402 4 10.3674 4 10.5V16H10V20ZM12 11C12.2652 11 12.5196 11.1054 12.7071 11.2929C12.8946 11.4805 13 11.7348 13 12V18C13 18.2653 12.8946 18.5196 12.7071 18.7071C12.5196 18.8947 12.2652 19 12 19C11.7348 19 11.4804 18.8947 11.2929 18.7071C11.1054 18.5196 11 18.2653 11 18V12C11 11.7348 11.1054 11.4805 11.2929 11.2929C11.4804 11.1054 11.7348 11 12 11ZM12 6.00003C12.2652 6.00003 12.5196 6.10539 12.7071 6.29293C12.8946 6.48046 13 6.73482 13 7.00003V9.00003C13 9.26525 12.8946 9.5196 12.7071 9.70714C12.5196 9.89468 12.2652 10 12 10C11.7348 10 11.4804 9.89468 11.2929 9.70714C11.1054 9.5196 11 9.26525 11 9.00003V7.00003C11 6.73482 11.1054 6.48046 11.2929 6.29293C11.4804 6.10539 11.7348 6.00003 12 6.00003Z" fill="black"/>
</svg>
