<svg width="24" height="24" viewBox="0 0 24 24" fill="none" xmlns="http://www.w3.org/2000/svg">
<path d="M8.5 2H15.5C16.5609 2 17.5783 2.42143 18.3284 3.17157C19.0786 3.92172 19.5 4.93913 19.5 6V18C19.5 19.0609 19.0786 20.0783 18.3284 20.8284C17.5783 21.5786 16.5609 22 15.5 22H8.5C7.43913 22 6.42172 21.5786 5.67157 20.8284C4.92143 20.0783 4.5 19.0609 4.5 18V6C4.5 4.93913 4.92143 3.92172 5.67157 3.17157C6.42172 2.42143 7.43913 2 8.5 2V2ZM8.5 4C7.96957 4 7.46086 4.21071 7.08579 4.58579C6.71071 4.96086 6.5 5.46957 6.5 6V18C6.5 18.5304 6.71071 19.0391 7.08579 19.4142C7.46086 19.7893 7.96957 20 8.5 20H15.5C16.0304 20 16.5391 19.7893 16.9142 19.4142C17.2893 19.0391 17.5 18.5304 17.5 18V6C17.5 5.46957 17.2893 4.96086 16.9142 4.58579C16.5391 4.21071 16.0304 4 15.5 4H8.5ZM9.5 6H14.5C14.7652 6 15.0196 6.10536 15.2071 6.29289C15.3946 6.48043 15.5 6.73478 15.5 7V9C15.5 9.26522 15.3946 9.51957 15.2071 9.70711C15.0196 9.89464 14.7652 10 14.5 10H9.5C9.23478 10 8.98043 9.89464 8.79289 9.70711C8.60536 9.51957 8.5 9.26522 8.5 9V7C8.5 6.73478 8.60536 6.48043 8.79289 6.29289C8.98043 6.10536 9.23478 6 9.5 6ZM9.5 11H10.5C10.7652 11 11.0196 11.1054 11.2071 11.2929C11.3946 11.4804 11.5 11.7348 11.5 12V13C11.5 13.2652 11.3946 13.5196 11.2071 13.7071C11.0196 13.8946 10.7652 14 10.5 14H9.5C9.23478 14 8.98043 13.8946 8.79289 13.7071C8.60536 13.5196 8.5 13.2652 8.5 13V12C8.5 11.7348 8.60536 11.4804 8.79289 11.2929C8.98043 11.1054 9.23478 11 9.5 11ZM13.5 11H14.5C14.7652 11 15.0196 11.1054 15.2071 11.2929C15.3946 11.4804 15.5 11.7348 15.5 12V13C15.5 13.2652 15.3946 13.5196 15.2071 13.7071C15.0196 13.8946 14.7652 14 14.5 14H13.5C13.2348 14 12.9804 13.8946 12.7929 13.7071C12.6054 13.5196 12.5 13.2652 12.5 13V12C12.5 11.7348 12.6054 11.4804 12.7929 11.2929C12.9804 11.1054 13.2348 11 13.5 11ZM13.5 15H14.5C14.7652 15 15.0196 15.1054 15.2071 15.2929C15.3946 15.4804 15.5 15.7348 15.5 16V17C15.5 17.2652 15.3946 17.5196 15.2071 17.7071C15.0196 17.8946 14.7652 18 14.5 18H13.5C13.2348 18 12.9804 17.8946 12.7929 17.7071C12.6054 17.5196 12.5 17.2652 12.5 17V16C12.5 15.7348 12.6054 15.4804 12.7929 15.2929C12.9804 15.1054 13.2348 15 13.5 15ZM9.5 15H10.5C10.7652 15 11.0196 15.1054 11.2071 15.2929C11.3946 15.4804 11.5 15.7348 11.5 16V17C11.5 17.2652 11.3946 17.5196 11.2071 17.7071C11.0196 17.8946 10.7652 18 10.5 18H9.5C9.23478 18 8.98043 17.8946 8.79289 17.7071C8.60536 17.5196 8.5 17.2652 8.5 17V16C8.5 15.7348 8.60536 15.4804 8.79289 15.2929C8.98043 15.1054 9.23478 15 9.5 15Z" fill="black"/>
</svg>
