<svg width="24" height="24" viewBox="0 0 24 24" fill="none" xmlns="http://www.w3.org/2000/svg">
<path d="M5 5.5V7.5C5 8.03043 5.21071 8.53914 5.58579 8.91421C5.96086 9.28929 6.46957 9.5 7 9.5C7.53043 9.5 8.03914 9.28929 8.41421 8.91421C8.78929 8.53914 9 8.03043 9 7.5V5.5H15V7.5C15 8.03043 15.2107 8.53914 15.5858 8.91421C15.9609 9.28929 16.4696 9.5 17 9.5C17.5304 9.5 18.0391 9.28929 18.4142 8.91421C18.7893 8.53914 19 8.03043 19 7.5V5.5C19.7956 5.5 20.5587 5.81607 21.1213 6.37868C21.6839 6.94129 22 7.70435 22 8.5V10.5H2V8.5C2 7.70435 2.31607 6.94129 2.87868 6.37868C3.44129 5.81607 4.20435 5.5 5 5.5ZM22 12.5V18.5C22 19.2956 21.6839 20.0587 21.1213 20.6213C20.5587 21.1839 19.7956 21.5 19 21.5H5C4.20435 21.5 3.44129 21.1839 2.87868 20.6213C2.31607 20.0587 2 19.2956 2 18.5V12.5H22ZM17 2.5C17.2652 2.5 17.5196 2.60536 17.7071 2.79289C17.8946 2.98043 18 3.23478 18 3.5V7.5C18 7.76522 17.8946 8.01957 17.7071 8.20711C17.5196 8.39464 17.2652 8.5 17 8.5C16.7348 8.5 16.4804 8.39464 16.2929 8.20711C16.1054 8.01957 16 7.76522 16 7.5V3.5C16 3.23478 16.1054 2.98043 16.2929 2.79289C16.4804 2.60536 16.7348 2.5 17 2.5V2.5ZM7 2.5C7.26522 2.5 7.51957 2.60536 7.70711 2.79289C7.89464 2.98043 8 3.23478 8 3.5V7.5C8 7.76522 7.89464 8.01957 7.70711 8.20711C7.51957 8.39464 7.26522 8.5 7 8.5C6.73478 8.5 6.48043 8.39464 6.29289 8.20711C6.10536 8.01957 6 7.76522 6 7.5V3.5C6 3.23478 6.10536 2.98043 6.29289 2.79289C6.48043 2.60536 6.73478 2.5 7 2.5V2.5Z" fill="black"/>
</svg>
