<svg width="24" height="24" viewBox="0 0 24 24" fill="none" xmlns="http://www.w3.org/2000/svg">
<path d="M11 12V18H13V12H11ZM15 18H20C20.5304 18 21.0391 18.2107 21.4142 18.5858C21.7893 18.9609 22 19.4696 22 20V21C22 21.5304 21.7893 22.0391 21.4142 22.4142C21.0391 22.7893 20.5304 23 20 23H4C3.46957 23 2.96086 22.7893 2.58579 22.4142C2.21071 22.0391 2 21.5304 2 21V20C2 19.4696 2.21071 18.9609 2.58579 18.5858C2.96086 18.2107 3.46957 18 4 18H9V10H15V18ZM4 20V21H20V20H4ZM12 9.4C11.2044 9.4 10.4413 9.08393 9.87868 8.52132C9.31607 7.95871 9 7.19565 9 6.4C9 5.295 10 3.495 12 1C14 3.495 15 5.295 15 6.4C15 7.19565 14.6839 7.95871 14.1213 8.52132C13.5587 9.08393 12.7956 9.4 12 9.4ZM12 7.448C12.552 7.448 13 6.968 13 6.448C13 5.982 12.667 5.339 12 4.448C11.333 5.339 11 5.982 11 6.448C11 6.968 11.448 7.448 12 7.448Z" fill="black"/>
</svg>
