<svg width="24" height="24" viewBox="0 0 24 24" fill="none" xmlns="http://www.w3.org/2000/svg">
<path d="M17 11.358H7V7.35803C7 6.03195 7.52678 4.76018 8.46447 3.8225C9.40215 2.88482 10.6739 2.35803 12 2.35803C13.3261 2.35803 14.5979 2.88482 15.5355 3.8225C16.4732 4.76018 17 6.03195 17 7.35803V11.358ZM17 13.358V17.358C17 18.6841 16.4732 19.9559 15.5355 20.8936C14.5979 21.8312 13.3261 22.358 12 22.358C10.6739 22.358 9.40215 21.8312 8.46447 20.8936C7.52678 19.9559 7 18.6841 7 17.358V13.358H17Z" fill="black"/>
</svg>
