<svg width="24" height="24" viewBox="0 0 24 24" fill="none" xmlns="http://www.w3.org/2000/svg">
<path d="M16 19H8V20.5C8 20.8978 7.84196 21.2794 7.56066 21.5607C7.27936 21.842 6.89782 22 6.5 22H5.5C5.10218 22 4.72064 21.842 4.43934 21.5607C4.15804 21.2794 4 20.8978 4 20.5V18.83C3.41493 18.623 2.90842 18.2397 2.55024 17.7329C2.19206 17.226 1.99982 16.6206 2 16V13C2 12.38 2.188 11.804 2.51 11.326L3.596 4.526C3.70878 3.82119 4.06916 3.17967 4.61242 2.71669C5.15568 2.25371 5.84622 1.9996 6.56 2H17.44C18.1532 2.00059 18.8429 2.25527 19.3854 2.71837C19.9278 3.18147 20.2875 3.82268 20.4 4.527L21.483 11.317C21.809 11.797 21.999 12.377 21.999 13V16C21.9992 16.6206 21.8069 17.226 21.4488 17.7329C21.0906 18.2397 20.5841 18.623 19.999 18.83V20.5C19.999 20.8978 19.841 21.2794 19.5597 21.5607C19.2784 21.842 18.8968 22 18.499 22H17.499C17.1012 22 16.7196 21.842 16.4383 21.5607C16.157 21.2794 15.999 20.8978 15.999 20.5V19H16ZM19.25 10.01L18.426 4.842C18.3885 4.6074 18.2686 4.39383 18.088 4.23955C17.9073 4.08526 17.6776 4.00034 17.44 4H6.559C6.32107 3.99987 6.09089 4.08457 5.90981 4.2389C5.72872 4.39322 5.60859 4.60706 5.571 4.842L4.746 10.011C4.83048 10.0038 4.91522 10.0001 5 10H19C19.084 10 19.168 10.003 19.25 10.01ZM17.5 16C17.697 16 17.892 15.9612 18.074 15.8858C18.256 15.8104 18.4214 15.6999 18.5607 15.5607C18.6999 15.4214 18.8104 15.256 18.8858 15.074C18.9612 14.892 19 14.697 19 14.5C19 14.303 18.9612 14.108 18.8858 13.926C18.8104 13.744 18.6999 13.5786 18.5607 13.4393C18.4214 13.3001 18.256 13.1896 18.074 13.1142C17.892 13.0388 17.697 13 17.5 13C17.1022 13 16.7206 13.158 16.4393 13.4393C16.158 13.7206 16 14.1022 16 14.5C16 14.8978 16.158 15.2794 16.4393 15.5607C16.7206 15.842 17.1022 16 17.5 16ZM6.5 16C6.69698 16 6.89204 15.9612 7.07403 15.8858C7.25601 15.8104 7.42137 15.6999 7.56066 15.5607C7.69995 15.4214 7.81044 15.256 7.88582 15.074C7.9612 14.892 8 14.697 8 14.5C8 14.303 7.9612 14.108 7.88582 13.926C7.81044 13.744 7.69995 13.5786 7.56066 13.4393C7.42137 13.3001 7.25601 13.1896 7.07403 13.1142C6.89204 13.0388 6.69698 13 6.5 13C6.10218 13 5.72064 13.158 5.43934 13.4393C5.15804 13.7206 5 14.1022 5 14.5C5 14.8978 5.15804 15.2794 5.43934 15.5607C5.72064 15.842 6.10218 16 6.5 16ZM7.204 5.094C7.46922 5.094 7.72357 5.19936 7.91111 5.38689C8.09864 5.57443 8.204 5.82878 8.204 6.094V8.094C8.204 8.35922 8.09864 8.61357 7.91111 8.80111C7.72357 8.98864 7.46922 9.094 7.204 9.094C6.93878 9.094 6.68443 8.98864 6.49689 8.80111C6.30936 8.61357 6.204 8.35922 6.204 8.094V6.094C6.204 5.82878 6.30936 5.57443 6.49689 5.38689C6.68443 5.19936 6.93878 5.094 7.204 5.094Z" fill="black"/>
</svg>
