<svg width="24" height="24" viewBox="0 0 24 24" fill="none" xmlns="http://www.w3.org/2000/svg">
<path d="M16 19H8V20.5C8 20.8978 7.84196 21.2794 7.56066 21.5607C7.27936 21.842 6.89782 22 6.5 22H5.5C5.10218 22 4.72064 21.842 4.43934 21.5607C4.15804 21.2794 4 20.8978 4 20.5V18.83C3.41493 18.623 2.90842 18.2397 2.55024 17.7329C2.19206 17.226 1.99982 16.6206 2 16V13C2 12.38 2.188 11.804 2.51 11.326L3.596 4.526C3.70878 3.82119 4.06916 3.17967 4.61242 2.71669C5.15568 2.25371 5.84622 1.9996 6.56 2H17.44C18.1532 2.00059 18.8429 2.25527 19.3854 2.71837C19.9278 3.18147 20.2875 3.82268 20.4 4.527L21.483 11.317C21.809 11.797 21.999 12.377 21.999 13V16C21.9992 16.6206 21.8069 17.226 21.4488 17.7329C21.0906 18.2397 20.5841 18.623 19.999 18.83V20.5C19.999 20.8978 19.841 21.2794 19.5597 21.5607C19.2784 21.842 18.8968 22 18.499 22H17.499C17.1012 22 16.7196 21.842 16.4383 21.5607C16.157 21.2794 15.999 20.8978 15.999 20.5V19H16ZM5 17H19C19.2652 17 19.5196 16.8946 19.7071 16.7071C19.8946 16.5196 20 16.2652 20 16V13C20 12.7348 19.8946 12.4804 19.7071 12.2929C19.5196 12.1054 19.2652 12 19 12H5C4.73478 12 4.48043 12.1054 4.29289 12.2929C4.10536 12.4804 4 12.7348 4 13V16C4 16.2652 4.10536 16.5196 4.29289 16.7071C4.48043 16.8946 4.73478 17 5 17ZM19.25 10.01L18.426 4.842C18.3885 4.6074 18.2686 4.39383 18.088 4.23955C17.9073 4.08526 17.6776 4.00034 17.44 4H6.559C6.32107 3.99987 6.09089 4.08457 5.90981 4.2389C5.72872 4.39322 5.60859 4.60706 5.571 4.842L4.746 10.011C4.83048 10.0038 4.91522 10.0001 5 10H19C19.084 10 19.168 10.003 19.25 10.01ZM17.5 14C17.3674 14 17.2402 14.0527 17.1464 14.1464C17.0527 14.2402 17 14.3674 17 14.5C17 14.6326 17.0527 14.7598 17.1464 14.8536C17.2402 14.9473 17.3674 15 17.5 15C17.6326 15 17.7598 14.9473 17.8536 14.8536C17.9473 14.7598 18 14.6326 18 14.5C18 14.3674 17.9473 14.2402 17.8536 14.1464C17.7598 14.0527 17.6326 14 17.5 14ZM17.5 16C17.303 16 17.108 15.9612 16.926 15.8858C16.744 15.8104 16.5786 15.6999 16.4393 15.5607C16.3001 15.4214 16.1896 15.256 16.1142 15.074C16.0388 14.892 16 14.697 16 14.5C16 14.303 16.0388 14.108 16.1142 13.926C16.1896 13.744 16.3001 13.5786 16.4393 13.4393C16.5786 13.3001 16.744 13.1896 16.926 13.1142C17.108 13.0388 17.303 13 17.5 13C17.8978 13 18.2794 13.158 18.5607 13.4393C18.842 13.7206 19 14.1022 19 14.5C19 14.8978 18.842 15.2794 18.5607 15.5607C18.2794 15.842 17.8978 16 17.5 16ZM6.5 14C6.36739 14 6.24021 14.0527 6.14645 14.1464C6.05268 14.2402 6 14.3674 6 14.5C6 14.6326 6.05268 14.7598 6.14645 14.8536C6.24021 14.9473 6.36739 15 6.5 15C6.63261 15 6.75979 14.9473 6.85355 14.8536C6.94732 14.7598 7 14.6326 7 14.5C7 14.3674 6.94732 14.2402 6.85355 14.1464C6.75979 14.0527 6.63261 14 6.5 14ZM6.5 16C6.30302 16 6.10796 15.9612 5.92598 15.8858C5.74399 15.8104 5.57863 15.6999 5.43934 15.5607C5.30005 15.4214 5.18956 15.256 5.11418 15.074C5.0388 14.892 5 14.697 5 14.5C5 14.303 5.0388 14.108 5.11418 13.926C5.18956 13.744 5.30005 13.5786 5.43934 13.4393C5.57863 13.3001 5.74399 13.1896 5.92598 13.1142C6.10796 13.0388 6.30302 13 6.5 13C6.89782 13 7.27936 13.158 7.56066 13.4393C7.84196 13.7206 8 14.1022 8 14.5C8 14.8978 7.84196 15.2794 7.56066 15.5607C7.27936 15.842 6.89782 16 6.5 16ZM7.204 5.094C7.46922 5.094 7.72357 5.19936 7.91111 5.38689C8.09864 5.57443 8.204 5.82878 8.204 6.094V8.094C8.204 8.35922 8.09864 8.61357 7.91111 8.80111C7.72357 8.98864 7.46922 9.094 7.204 9.094C6.93878 9.094 6.68443 8.98864 6.49689 8.80111C6.30936 8.61357 6.204 8.35922 6.204 8.094V6.094C6.204 5.82878 6.30936 5.57443 6.49689 5.38689C6.68443 5.19936 6.93878 5.094 7.204 5.094Z" fill="black"/>
</svg>
