<svg width="24" height="24" viewBox="0 0 24 24" fill="none" xmlns="http://www.w3.org/2000/svg">
<path d="M20 10.5V21.5H17V17.5C17 16.9696 16.7893 16.4609 16.4142 16.0858C16.0391 15.7107 15.5304 15.5 15 15.5C14.4696 15.5 13.9609 15.7107 13.5858 16.0858C13.2107 16.4609 13 16.9696 13 17.5V21.5H2V13.5C2 13.2348 2.10536 12.9804 2.29289 12.7929C2.48043 12.6054 2.73478 12.5 3 12.5H7C7.26522 12.5 7.51957 12.6054 7.70711 12.7929C7.89464 12.9804 8 13.2348 8 13.5V14.5H10V10.5C9.46957 10.5 8.96086 10.2893 8.58579 9.91421C8.21071 9.53914 8 9.03043 8 8.5V3.5C8 3.23478 8.10536 2.98043 8.29289 2.79289C8.48043 2.60536 8.73478 2.5 9 2.5H13C13.2652 2.5 13.5196 2.60536 13.7071 2.79289C13.8946 2.98043 14 3.23478 14 3.5V4.5H16V3.5C16 3.23478 16.1054 2.98043 16.2929 2.79289C16.4804 2.60536 16.7348 2.5 17 2.5H21C21.2652 2.5 21.5196 2.60536 21.7071 2.79289C21.8946 2.98043 22 3.23478 22 3.5V8.5C22 9.03043 21.7893 9.53914 21.4142 9.91421C21.0391 10.2893 20.5304 10.5 20 10.5ZM14 11.5C13.7348 11.5 13.4804 11.6054 13.2929 11.7929C13.1054 11.9804 13 12.2348 13 12.5C13 12.7652 13.1054 13.0196 13.2929 13.2071C13.4804 13.3946 13.7348 13.5 14 13.5H16C16.2652 13.5 16.5196 13.3946 16.7071 13.2071C16.8946 13.0196 17 12.7652 17 12.5C17 12.2348 16.8946 11.9804 16.7071 11.7929C16.5196 11.6054 16.2652 11.5 16 11.5H14Z" fill="black"/>
</svg>
