<svg width="24" height="24" viewBox="0 0 24 24" fill="none" xmlns="http://www.w3.org/2000/svg">
<path d="M12 13.828L8.464 10.293C8.2754 10.1108 8.0228 10.01 7.7606 10.0123C7.4984 10.0146 7.24759 10.1198 7.06218 10.3052C6.87677 10.4906 6.7716 10.7414 6.76933 11.0036C6.76705 11.2658 6.86784 11.5184 7.05 11.707L11.293 15.95C11.3857 16.0432 11.4958 16.1171 11.6171 16.1676C11.7385 16.2181 11.8686 16.244 12 16.244C12.1314 16.244 12.2615 16.2181 12.3829 16.1676C12.5042 16.1171 12.6143 16.0432 12.707 15.95L16.95 11.707C17.0455 11.6148 17.1217 11.5044 17.1741 11.3824C17.2265 11.2604 17.2541 11.1292 17.2552 10.9964C17.2564 10.8636 17.2311 10.7319 17.1808 10.609C17.1305 10.4861 17.0563 10.3745 16.9624 10.2806C16.8685 10.1867 16.7569 10.1125 16.634 10.0622C16.5111 10.0119 16.3794 9.9866 16.2466 9.98775C16.1138 9.9889 15.9826 10.0165 15.8606 10.0689C15.7386 10.1213 15.6282 10.1975 15.536 10.293L12 13.828ZM6 2H18C19.0609 2 20.0783 2.42143 20.8284 3.17157C21.5786 3.92172 22 4.93913 22 6V18C22 19.0609 21.5786 20.0783 20.8284 20.8284C20.0783 21.5786 19.0609 22 18 22H6C4.93913 22 3.92172 21.5786 3.17157 20.8284C2.42143 20.0783 2 19.0609 2 18V6C2 4.93913 2.42143 3.92172 3.17157 3.17157C3.92172 2.42143 4.93913 2 6 2V2Z" fill="black"/>
</svg>
