<svg width="24" height="24" viewBox="0 0 24 24" fill="none" xmlns="http://www.w3.org/2000/svg">
<path d="M6 2H18C19.0609 2 20.0783 2.42143 20.8284 3.17157C21.5786 3.92172 22 4.93913 22 6V18C22 19.0609 21.5786 20.0783 20.8284 20.8284C20.0783 21.5786 19.0609 22 18 22H6C4.93913 22 3.92172 21.5786 3.17157 20.8284C2.42143 20.0783 2 19.0609 2 18V6C2 4.93913 2.42143 3.92172 3.17157 3.17157C3.92172 2.42143 4.93913 2 6 2V2ZM11.998 14.612L9.876 12.491C9.78375 12.3955 9.67341 12.3193 9.5514 12.2669C9.4294 12.2145 9.29818 12.1869 9.1654 12.1858C9.03262 12.1846 8.90094 12.2099 8.77805 12.2602C8.65515 12.3105 8.5435 12.3847 8.4496 12.4786C8.35571 12.5725 8.28146 12.6841 8.23118 12.807C8.1809 12.9299 8.1556 13.0616 8.15675 13.1944C8.1579 13.3272 8.18549 13.4584 8.2379 13.5804C8.29031 13.7024 8.36649 13.8128 8.462 13.905L11.291 16.733C11.4785 16.9205 11.7328 17.0258 11.998 17.0258C12.2632 17.0258 12.5175 16.9205 12.705 16.733L15.533 13.905C15.7152 13.7164 15.816 13.4638 15.8137 13.2016C15.8114 12.9394 15.7062 12.6886 15.5208 12.5032C15.3354 12.3178 15.0846 12.2126 14.8224 12.2103C14.5602 12.208 14.3076 12.3088 14.119 12.491L11.998 14.612ZM11.998 9.612L9.876 7.491C9.78375 7.39549 9.67341 7.31931 9.5514 7.2669C9.4294 7.21449 9.29818 7.1869 9.1654 7.18575C9.03262 7.1846 8.90094 7.2099 8.77805 7.26018C8.65515 7.31046 8.5435 7.38471 8.4496 7.4786C8.35571 7.5725 8.28146 7.68415 8.23118 7.80705C8.1809 7.92994 8.1556 8.06162 8.15675 8.1944C8.1579 8.32718 8.18549 8.4584 8.2379 8.5804C8.29031 8.70241 8.36649 8.81275 8.462 8.905L11.291 11.733C11.4785 11.9205 11.7328 12.0258 11.998 12.0258C12.2632 12.0258 12.5175 11.9205 12.705 11.733L15.533 8.905C15.7153 8.71653 15.8163 8.46399 15.8142 8.20179C15.8121 7.93959 15.7071 7.6887 15.5218 7.50316C15.3365 7.31762 15.0858 7.21228 14.8236 7.20981C14.5614 7.20735 14.3087 7.30797 14.12 7.49L11.998 9.612Z" fill="black"/>
</svg>
