<svg width="24" height="24" viewBox="0 0 24 24" fill="none" xmlns="http://www.w3.org/2000/svg">
<path d="M16.314 12.071L11.364 7.12102C11.1818 6.93242 11.0811 6.67982 11.0833 6.41762C11.0856 6.15542 11.1908 5.90461 11.3762 5.7192C11.5616 5.53379 11.8124 5.42863 12.0746 5.42635C12.3368 5.42407 12.5894 5.52486 12.778 5.70702L18.435 11.364C18.6225 11.5515 18.7278 11.8059 18.7278 12.071C18.7278 12.3362 18.6225 12.5905 18.435 12.778L12.778 18.435C12.5894 18.6172 12.3368 18.718 12.0746 18.7157C11.8124 18.7134 11.5616 18.6082 11.3762 18.4228C11.1908 18.2374 11.0856 17.9866 11.0833 17.7244C11.0811 17.4622 11.1818 17.2096 11.364 17.021L16.314 12.071ZM10.314 12.071L5.364 7.12102C5.26849 7.02877 5.19231 6.91843 5.1399 6.79643C5.08749 6.67442 5.05991 6.5432 5.05875 6.41042C5.0576 6.27764 5.0829 6.14596 5.13318 6.02307C5.18346 5.90017 5.25772 5.78852 5.35161 5.69463C5.4455 5.60073 5.55715 5.52648 5.68005 5.4762C5.80295 5.42592 5.93463 5.40062 6.06741 5.40177C6.20018 5.40292 6.3314 5.43051 6.45341 5.48292C6.57541 5.53533 6.68576 5.61151 6.778 5.70702L12.435 11.364C12.6225 11.5515 12.7278 11.8059 12.7278 12.071C12.7278 12.3362 12.6225 12.5905 12.435 12.778L6.778 18.435C6.5894 18.6172 6.3368 18.718 6.0746 18.7157C5.81241 18.7134 5.56159 18.6082 5.37619 18.4228C5.19078 18.2374 5.08561 17.9866 5.08333 17.7244C5.08105 17.4622 5.18185 17.2096 5.364 17.021L10.314 12.071Z" fill="black"/>
</svg>
