<svg width="24" height="24" viewBox="0 0 24 24" fill="none" xmlns="http://www.w3.org/2000/svg">
<path d="M6 2H18C19.0609 2 20.0783 2.42143 20.8284 3.17157C21.5786 3.92172 22 4.93913 22 6V18C22 19.0609 21.5786 20.0783 20.8284 20.8284C20.0783 21.5786 19.0609 22 18 22H6C4.93913 22 3.92172 21.5786 3.17157 20.8284C2.42143 20.0783 2 19.0609 2 18V6C2 4.93913 2.42143 3.92172 3.17157 3.17157C3.92172 2.42143 4.93913 2 6 2V2ZM6 4C5.46957 4 4.96086 4.21071 4.58579 4.58579C4.21071 4.96086 4 5.46957 4 6V18C4 18.5304 4.21071 19.0391 4.58579 19.4142C4.96086 19.7893 5.46957 20 6 20H18C18.5304 20 19.0391 19.7893 19.4142 19.4142C19.7893 19.0391 20 18.5304 20 18V6C20 5.46957 19.7893 4.96086 19.4142 4.58579C19.0391 4.21071 18.5304 4 18 4H6ZM12 14.958L14.121 12.837C14.3085 12.6494 14.5629 12.5439 14.8281 12.5438C15.0934 12.5437 15.3479 12.649 15.5355 12.8365C15.7231 13.024 15.8286 13.2784 15.8287 13.5436C15.8288 13.8089 15.7235 14.0634 15.536 14.251L12.707 17.079C12.5195 17.2665 12.2652 17.3718 12 17.3718C11.7348 17.3718 11.4805 17.2665 11.293 17.079L8.464 14.251C8.27649 14.0634 8.1712 13.8089 8.1713 13.5436C8.17139 13.2784 8.27686 13.024 8.4645 12.8365C8.65214 12.649 8.90658 12.5437 9.17185 12.5438C9.43712 12.5439 9.69149 12.6494 9.879 12.837L12 14.957V14.958ZM12 9.958L14.121 7.837C14.3085 7.64936 14.5629 7.54389 14.8281 7.5438C15.0934 7.5437 15.3479 7.64899 15.5355 7.8365C15.7231 8.02401 15.8286 8.27838 15.8287 8.54365C15.8288 8.80892 15.7235 9.06336 15.536 9.251L12.707 12.079C12.5195 12.2665 12.2652 12.3718 12 12.3718C11.7348 12.3718 11.4805 12.2665 11.293 12.079L8.464 9.251C8.37116 9.15802 8.29753 9.04767 8.24734 8.92624C8.19714 8.80481 8.17135 8.67469 8.17144 8.54329C8.17163 8.27793 8.27723 8.02351 8.465 7.836C8.65277 7.64849 8.90734 7.54326 9.17271 7.54344C9.43807 7.54363 9.69249 7.64923 9.88 7.837L12 9.957V9.958Z" fill="black"/>
</svg>
