<svg width="24" height="24" viewBox="0 0 24 24" fill="none" xmlns="http://www.w3.org/2000/svg">
<path d="M12 11.172L15.536 14.707C15.7246 14.8892 15.9772 14.99 16.2394 14.9877C16.5016 14.9854 16.7524 14.8802 16.9378 14.6948C17.1232 14.5094 17.2284 14.2586 17.2307 13.9964C17.233 13.7342 17.1322 13.4816 16.95 13.293L12.707 9.05C12.5195 8.86253 12.2652 8.75721 12 8.75721C11.7348 8.75721 11.4805 8.86253 11.293 9.05L7.05 13.293C6.86784 13.4816 6.76705 13.7342 6.76933 13.9964C6.7716 14.2586 6.87677 14.5094 7.06218 14.6948C7.24759 14.8802 7.4984 14.9854 7.7606 14.9877C8.0228 14.99 8.2754 14.8892 8.464 14.707L12 11.172ZM6 2H18C19.0609 2 20.0783 2.42143 20.8284 3.17157C21.5786 3.92172 22 4.93913 22 6V18C22 19.0609 21.5786 20.0783 20.8284 20.8284C20.0783 21.5786 19.0609 22 18 22H6C4.93913 22 3.92172 21.5786 3.17157 20.8284C2.42143 20.0783 2 19.0609 2 18V6C2 4.93913 2.42143 3.92172 3.17157 3.17157C3.92172 2.42143 4.93913 2 6 2V2Z" fill="black"/>
</svg>
