<svg width="24" height="24" viewBox="0 0 24 24" fill="none" xmlns="http://www.w3.org/2000/svg">
<path d="M6 2H18C19.0609 2 20.0783 2.42143 20.8284 3.17157C21.5786 3.92172 22 4.93913 22 6V18C22 19.0609 21.5786 20.0783 20.8284 20.8284C20.0783 21.5786 19.0609 22 18 22H6C4.93913 22 3.92172 21.5786 3.17157 20.8284C2.42143 20.0783 2 19.0609 2 18V6C2 4.93913 2.42143 3.92172 3.17157 3.17157C3.92172 2.42143 4.93913 2 6 2V2ZM6 4C5.46957 4 4.96086 4.21071 4.58579 4.58579C4.21071 4.96086 4 5.46957 4 6V18C4 18.5304 4.21071 19.0391 4.58579 19.4142C4.96086 19.7893 5.46957 20 6 20H18C18.5304 20 19.0391 19.7893 19.4142 19.4142C19.7893 19.0391 20 18.5304 20 18V6C20 5.46957 19.7893 4.96086 19.4142 4.58579C19.0391 4.21071 18.5304 4 18 4H6ZM13 11H8C7.73478 11 7.48043 10.8946 7.29289 10.7071C7.10536 10.5196 7 10.2652 7 10C7 9.73478 7.10536 9.48043 7.29289 9.29289C7.48043 9.10536 7.73478 9 8 9H14C14.2652 9 14.5196 9.10536 14.7071 9.29289C14.8946 9.48043 15 9.73478 15 10V16C15 16.2652 14.8946 16.5196 14.7071 16.7071C14.5196 16.8946 14.2652 17 14 17C13.7348 17 13.4804 16.8946 13.2929 16.7071C13.1054 16.5196 13 16.2652 13 16V11Z" fill="black"/>
</svg>
