<svg width="24" height="24" viewBox="0 0 24 24" fill="none" xmlns="http://www.w3.org/2000/svg">
<path d="M13.818 12L15.939 9.879C16.0319 9.78616 16.1056 9.67592 16.1559 9.55459C16.2062 9.43326 16.2322 9.3032 16.2322 9.17185C16.2322 9.0405 16.2064 8.91043 16.1562 8.78907C16.106 8.6677 16.0323 8.55741 15.9395 8.4645C15.8467 8.37159 15.7364 8.29788 15.6151 8.24757C15.4938 8.19726 15.3637 8.17134 15.2324 8.1713C15.101 8.17125 14.9709 8.19708 14.8496 8.2473C14.7282 8.29752 14.6179 8.37116 14.525 8.464L11.697 11.293C11.5095 11.4805 11.4042 11.7348 11.4042 12C11.4042 12.2652 11.5095 12.5195 11.697 12.707L14.525 15.536C14.7126 15.7235 14.9671 15.8288 15.2324 15.8287C15.4976 15.8286 15.752 15.7231 15.9395 15.5355C16.127 15.3479 16.2323 15.0934 16.2322 14.8281C16.2321 14.5629 16.1266 14.3085 15.939 14.121L13.818 12ZM8.828 12L10.95 9.879C11.1376 9.69149 11.2431 9.43712 11.2432 9.17185C11.2433 8.90658 11.138 8.65214 10.9505 8.4645C10.763 8.27686 10.5086 8.17139 10.2434 8.1713C9.97808 8.1712 9.72364 8.27649 9.536 8.464L6.707 11.293C6.51953 11.4805 6.41421 11.7348 6.41421 12C6.41421 12.2652 6.51953 12.5195 6.707 12.707L9.536 15.536C9.62898 15.6288 9.73933 15.7025 9.86076 15.7527C9.98219 15.8029 10.1123 15.8286 10.2437 15.8286C10.3751 15.8285 10.5052 15.8025 10.6265 15.7521C10.7479 15.7018 10.8582 15.628 10.951 15.535C11.0438 15.442 11.1175 15.3317 11.1677 15.2102C11.2179 15.0888 11.2436 14.9587 11.2436 14.8273C11.2435 14.6959 11.2175 14.5658 11.1671 14.4445C11.1168 14.3231 11.043 14.2128 10.95 14.12L8.828 12ZM12 22C6.477 22 2 17.523 2 12C2 6.477 6.477 2 12 2C17.523 2 22 6.477 22 12C22 17.523 17.523 22 12 22Z" fill="black"/>
</svg>
