<svg width="24" height="24" viewBox="0 0 24 24" fill="none" xmlns="http://www.w3.org/2000/svg">
<path d="M12 22C6.477 22 2 17.523 2 12C2 6.477 6.477 2 12 2C17.523 2 22 6.477 22 12C22 17.523 17.523 22 12 22ZM12 20C14.1217 20 16.1566 19.1571 17.6569 17.6569C19.1571 16.1566 20 14.1217 20 12C20 9.87827 19.1571 7.84344 17.6569 6.34315C16.1566 4.84285 14.1217 4 12 4C9.87827 4 7.84344 4.84285 6.34315 6.34315C4.84285 7.84344 4 9.87827 4 12C4 14.1217 4.84285 16.1566 6.34315 17.6569C7.84344 19.1571 9.87827 20 12 20ZM12 14.71L14.121 12.59C14.3085 12.4024 14.5629 12.2969 14.8281 12.2968C15.0934 12.2967 15.3479 12.402 15.5355 12.5895C15.7231 12.777 15.8286 13.0314 15.8287 13.2966C15.8288 13.5619 15.7235 13.8164 15.536 14.004L12.707 16.832C12.5195 17.0195 12.2652 17.1248 12 17.1248C11.7348 17.1248 11.4805 17.0195 11.293 16.832L8.464 14.004C8.37109 13.9111 8.29739 13.8008 8.24711 13.6794C8.19682 13.558 8.17094 13.4279 8.17094 13.2965C8.17094 13.1651 8.19682 13.035 8.24711 12.9136C8.29739 12.7922 8.37109 12.6819 8.464 12.589C8.55691 12.4961 8.66721 12.4224 8.7886 12.3721C8.91 12.3218 9.04011 12.2959 9.1715 12.2959C9.3029 12.2959 9.433 12.3218 9.5544 12.3721C9.67579 12.4224 9.78609 12.4961 9.879 12.589L12 14.711V14.71ZM12 9.71L14.121 7.59C14.3085 7.40236 14.5629 7.29689 14.8281 7.2968C15.0934 7.2967 15.3479 7.40199 15.5355 7.5895C15.7231 7.77701 15.8286 8.03138 15.8287 8.29665C15.8288 8.56192 15.7235 8.81636 15.536 9.004L12.707 11.832C12.5195 12.0195 12.2652 12.1248 12 12.1248C11.7348 12.1248 11.4805 12.0195 11.293 11.832L8.464 9.004C8.37109 8.91102 8.2974 8.80066 8.24714 8.6792C8.19689 8.55775 8.17104 8.42759 8.17109 8.29615C8.17114 8.16471 8.19707 8.03456 8.24742 7.91314C8.29776 7.79172 8.37152 7.68141 8.4645 7.5885C8.55748 7.49559 8.66784 7.4219 8.7893 7.37164C8.91075 7.32139 9.04091 7.29554 9.17235 7.29559C9.30379 7.29564 9.43394 7.32157 9.55536 7.37192C9.67678 7.42226 9.78709 7.49602 9.88 7.589L12 9.711V9.71Z" fill="black"/>
</svg>
