<svg width="24" height="24" viewBox="0 0 24 24" fill="none" xmlns="http://www.w3.org/2000/svg">
<path d="M6 2H18C19.0609 2 20.0783 2.42143 20.8284 3.17157C21.5786 3.92172 22 4.93913 22 6V18C22 19.0609 21.5786 20.0783 20.8284 20.8284C20.0783 21.5786 19.0609 22 18 22H6C4.93913 22 3.92172 21.5786 3.17157 20.8284C2.42143 20.0783 2 19.0609 2 18V6C2 4.93913 2.42143 3.92172 3.17157 3.17157C3.92172 2.42143 4.93913 2 6 2V2ZM15.212 12.021L13.091 14.143C12.9088 14.3316 12.808 14.5842 12.8103 14.8464C12.8126 15.1086 12.9178 15.3594 13.1032 15.5448C13.2886 15.7302 13.5394 15.8354 13.8016 15.8377C14.0638 15.84 14.3164 15.7392 14.505 15.557L17.333 12.728C17.5205 12.5405 17.6258 12.2862 17.6258 12.021C17.6258 11.7558 17.5205 11.5015 17.333 11.314L14.505 8.486C14.4122 8.39309 14.3019 8.31938 14.1806 8.26907C14.0593 8.21876 13.9292 8.19284 13.7979 8.1928C13.6665 8.19275 13.5364 8.21858 13.4151 8.2688C13.2937 8.31902 13.1834 8.39266 13.0905 8.4855C12.9976 8.57834 12.9239 8.68858 12.8736 8.80991C12.8233 8.93124 12.7973 9.0613 12.7973 9.19265C12.7972 9.45792 12.9025 9.71236 13.09 9.9L15.21 12.021H15.212ZM10.222 12.021L8.102 14.143C7.92421 14.3323 7.82705 14.5834 7.83109 14.8431C7.83512 15.1028 7.94003 15.3507 8.12361 15.5344C8.30719 15.7181 8.55505 15.8232 8.81473 15.8274C9.07441 15.8316 9.32555 15.7347 9.515 15.557L12.344 12.728C12.5315 12.5405 12.6368 12.2862 12.6368 12.021C12.6368 11.7558 12.5315 11.5015 12.344 11.314L9.515 8.486C9.3264 8.30384 9.0738 8.20305 8.8116 8.20533C8.5494 8.2076 8.29859 8.31277 8.11318 8.49818C7.92777 8.68359 7.8226 8.9344 7.82033 9.1966C7.81805 9.4588 7.91884 9.7114 8.101 9.9L10.222 12.021Z" fill="black"/>
</svg>
