<svg width="24" height="24" viewBox="0 0 24 24" fill="none" xmlns="http://www.w3.org/2000/svg">
<path d="M12 20C14.1217 20 16.1566 19.1571 17.6569 17.6569C19.1571 16.1566 20 14.1217 20 12C20 9.87827 19.1571 7.84344 17.6569 6.34315C16.1566 4.84285 14.1217 4 12 4C9.87827 4 7.84344 4.84285 6.34315 6.34315C4.84285 7.84344 4 9.87827 4 12C4 14.1217 4.84285 16.1566 6.34315 17.6569C7.84344 19.1571 9.87827 20 12 20ZM12 22C6.477 22 2 17.523 2 12C2 6.477 6.477 2 12 2C17.523 2 22 6.477 22 12C22 17.523 17.523 22 12 22Z" fill="black"/>
<path d="M12 9.38202L9.87901 11.503C9.78683 11.5986 9.67654 11.6749 9.55457 11.7273C9.43261 11.7798 9.30141 11.8075 9.16863 11.8088C9.03585 11.81 8.90416 11.7848 8.78123 11.7346C8.6583 11.6844 8.54659 11.6102 8.45263 11.5164C8.35868 11.4226 8.28434 11.311 8.23398 11.1881C8.18361 11.0653 8.15821 10.9336 8.15927 10.8008C8.16033 10.6681 8.18782 10.5368 8.24014 10.4148C8.29247 10.2927 8.36857 10.1823 8.46401 10.09L11.293 7.26202C11.4805 7.07455 11.7348 6.96924 12 6.96924C12.2652 6.96924 12.5195 7.07455 12.707 7.26202L15.536 10.09C15.6289 10.1829 15.7025 10.2932 15.7527 10.4146C15.8029 10.536 15.8288 10.666 15.8287 10.7974C15.8287 10.9287 15.8027 11.0588 15.7524 11.1801C15.7021 11.3014 15.6284 11.4117 15.5355 11.5045C15.4426 11.5974 15.3323 11.671 15.2109 11.7212C15.0896 11.7714 14.9595 11.7973 14.8282 11.7972C14.6968 11.7972 14.5668 11.7713 14.4454 11.721C14.3241 11.6706 14.2139 11.5969 14.121 11.504L12 9.38302V9.38202Z" fill="black"/>
<path d="M12 14.382L9.879 16.503C9.78615 16.596 9.67592 16.6697 9.55459 16.72C9.43325 16.7703 9.3032 16.7962 9.17185 16.7963C9.0405 16.7963 8.91043 16.7705 8.78906 16.7203C8.6677 16.67 8.55741 16.5964 8.4645 16.5035C8.37159 16.4107 8.29787 16.3005 8.24757 16.1791C8.19726 16.0578 8.17134 15.9278 8.1713 15.7964C8.17125 15.6651 8.19707 15.535 8.2473 15.4136C8.29752 15.2922 8.37115 15.182 8.464 15.089L11.293 12.261C11.4805 12.0736 11.7348 11.9683 12 11.9683C12.2652 11.9683 12.5195 12.0736 12.707 12.261L15.536 15.089C15.6288 15.182 15.7025 15.2922 15.7527 15.4136C15.8029 15.535 15.8287 15.6651 15.8287 15.7964C15.8287 15.9278 15.8027 16.0578 15.7524 16.1791C15.7021 16.3005 15.6284 16.4107 15.5355 16.5035C15.4426 16.5964 15.3323 16.67 15.2109 16.7203C15.0896 16.7705 14.9595 16.7963 14.8281 16.7963C14.6968 16.7962 14.5667 16.7703 14.4454 16.72C14.3241 16.6697 14.2138 16.596 14.121 16.503L12 14.383V14.382Z" fill="black"/>
</svg>
