<svg width="24" height="24" viewBox="0 0 24 24" fill="none" xmlns="http://www.w3.org/2000/svg">
<path d="M6 2H18C19.0609 2 20.0783 2.42143 20.8284 3.17157C21.5786 3.92172 22 4.93913 22 6V18C22 19.0609 21.5786 20.0783 20.8284 20.8284C20.0783 21.5786 19.0609 22 18 22H6C4.93913 22 3.92172 21.5786 3.17157 20.8284C2.42143 20.0783 2 19.0609 2 18V6C2 4.93913 2.42143 3.92172 3.17157 3.17157C3.92172 2.42143 4.93913 2 6 2V2ZM6 4C5.46957 4 4.96086 4.21071 4.58579 4.58579C4.21071 4.96086 4 5.46957 4 6V18C4 18.5304 4.21071 19.0391 4.58579 19.4142C4.96086 19.7893 5.46957 20 6 20H18C18.5304 20 19.0391 19.7893 19.4142 19.4142C19.7893 19.0391 20 18.5304 20 18V6C20 5.46957 19.7893 4.96086 19.4142 4.58579C19.0391 4.21071 18.5304 4 18 4H6ZM8.828 12L10.95 14.121C11.1376 14.3085 11.2431 14.5629 11.2432 14.8281C11.2433 15.0934 11.138 15.3479 10.9505 15.5355C10.763 15.7231 10.5086 15.8286 10.2434 15.8287C9.97808 15.8288 9.72364 15.7235 9.536 15.536L6.707 12.707C6.51953 12.5195 6.41421 12.2652 6.41421 12C6.41421 11.7348 6.51953 11.4805 6.707 11.293L9.536 8.464C9.62898 8.37116 9.73933 8.29753 9.86076 8.24734C9.98219 8.19714 10.1123 8.17135 10.2437 8.17144C10.3751 8.17154 10.5052 8.19751 10.6265 8.24788C10.7479 8.29825 10.8582 8.37202 10.951 8.465C11.0438 8.55798 11.1175 8.66833 11.1677 8.78976C11.2179 8.91119 11.2436 9.04131 11.2436 9.17271C11.2435 9.3041 11.2175 9.43419 11.1671 9.55555C11.1168 9.67691 11.043 9.78716 10.95 9.88L8.828 12ZM13.818 12L15.939 14.121C16.1266 14.3085 16.2321 14.5629 16.2322 14.8281C16.2323 15.0934 16.127 15.3479 15.9395 15.5355C15.752 15.7231 15.4976 15.8286 15.2324 15.8287C14.9671 15.8288 14.7126 15.7235 14.525 15.536L11.697 12.707C11.5095 12.5195 11.4042 12.2652 11.4042 12C11.4042 11.7348 11.5095 11.4805 11.697 11.293L14.525 8.464C14.7128 8.27636 14.9674 8.171 15.2329 8.17109C15.4983 8.17118 15.7529 8.27673 15.9405 8.4645C16.1281 8.65227 16.2335 8.9069 16.2334 9.17235C16.2333 9.43781 16.1278 9.69236 15.94 9.88L13.818 12Z" fill="black"/>
</svg>
