<svg width="24" height="24" viewBox="0 0 24 24" fill="none" xmlns="http://www.w3.org/2000/svg">
<path d="M10.172 12L13.707 8.464C13.8025 8.37175 13.8787 8.26141 13.9311 8.1394C13.9835 8.0174 14.0111 7.88618 14.0123 7.7534C14.0134 7.62062 13.9881 7.48894 13.9378 7.36605C13.8875 7.24315 13.8133 7.1315 13.7194 7.0376C13.6255 6.94371 13.5139 6.86946 13.391 6.81918C13.2681 6.7689 13.1364 6.7436 13.0036 6.74475C12.8708 6.7459 12.7396 6.77349 12.6176 6.8259C12.4956 6.87831 12.3852 6.95449 12.293 7.05L8.05 11.293C7.86253 11.4805 7.75721 11.7348 7.75721 12C7.75721 12.2652 7.86253 12.5195 8.05 12.707L12.293 16.95C12.4816 17.1322 12.7342 17.233 12.9964 17.2307C13.2586 17.2284 13.5094 17.1232 13.6948 16.9378C13.8802 16.7524 13.9854 16.5016 13.9877 16.2394C13.99 15.9772 13.8892 15.7246 13.707 15.536L10.172 12ZM6 2H18C19.0609 2 20.0783 2.42143 20.8284 3.17157C21.5786 3.92172 22 4.93913 22 6V18C22 19.0609 21.5786 20.0783 20.8284 20.8284C20.0783 21.5786 19.0609 22 18 22H6C4.93913 22 3.92172 21.5786 3.17157 20.8284C2.42143 20.0783 2 19.0609 2 18V6C2 4.93913 2.42143 3.92172 3.17157 3.17157C3.92172 2.42143 4.93913 2 6 2V2Z" fill="black"/>
</svg>
