<svg width="24" height="24" viewBox="0 0 24 24" fill="none" xmlns="http://www.w3.org/2000/svg">
<path d="M12 22C6.477 22 2 17.523 2 12C2 6.477 6.477 2 12 2C17.523 2 22 6.477 22 12C22 17.523 17.523 22 12 22ZM15.175 12.024L13.053 14.145C12.8708 14.3336 12.77 14.5862 12.7723 14.8484C12.7746 15.1106 12.8798 15.3614 13.0652 15.5468C13.2506 15.7322 13.5014 15.8374 13.7636 15.8397C14.0258 15.842 14.2784 15.7412 14.467 15.559L17.296 12.731C17.4835 12.5435 17.5888 12.2892 17.5888 12.024C17.5888 11.7588 17.4835 11.5045 17.296 11.317L14.467 8.488C14.3741 8.39516 14.2638 8.32152 14.1424 8.2713C14.0211 8.22108 13.891 8.19525 13.7596 8.1953C13.6283 8.19534 13.4982 8.22126 13.3769 8.27157C13.2556 8.32188 13.1453 8.39559 13.0525 8.4885C12.865 8.67614 12.7597 8.93058 12.7598 9.19585C12.7599 9.46112 12.8654 9.71549 13.053 9.903L15.175 12.023V12.024ZM10.185 12.024L8.064 14.145C7.88184 14.3336 7.78105 14.5862 7.78333 14.8484C7.7856 15.1106 7.89077 15.3614 8.07618 15.5468C8.26159 15.7322 8.5124 15.8374 8.7746 15.8397C9.0368 15.842 9.2894 15.7412 9.478 15.559L12.306 12.731C12.4935 12.5435 12.5988 12.2892 12.5988 12.024C12.5988 11.7588 12.4935 11.5045 12.306 11.317L9.478 8.488C9.29036 8.30049 9.03592 8.1952 8.77065 8.1953C8.50538 8.19539 8.25101 8.30086 8.0635 8.4885C7.87599 8.67614 7.7707 8.93058 7.7708 9.19585C7.77089 9.46112 7.87636 9.71549 8.064 9.903L10.185 12.023V12.024Z" fill="black"/>
</svg>
