<svg width="24" height="24" viewBox="0 0 24 24" fill="none" xmlns="http://www.w3.org/2000/svg">
<path d="M6 2H18C19.0609 2 20.0783 2.42143 20.8284 3.17157C21.5786 3.92172 22 4.93913 22 6V18C22 19.0609 21.5786 20.0783 20.8284 20.8284C20.0783 21.5786 19.0609 22 18 22H6C4.93913 22 3.92172 21.5786 3.17157 20.8284C2.42143 20.0783 2 19.0609 2 18V6C2 4.93913 2.42143 3.92172 3.17157 3.17157C3.92172 2.42143 4.93913 2 6 2V2ZM6 4C5.46957 4 4.96086 4.21071 4.58579 4.58579C4.21071 4.96086 4 5.46957 4 6V18C4 18.5304 4.21071 19.0391 4.58579 19.4142C4.96086 19.7893 5.46957 20 6 20H18C18.5304 20 19.0391 19.7893 19.4142 19.4142C19.7893 19.0391 20 18.5304 20 18V6C20 5.46957 19.7893 4.96086 19.4142 4.58579C19.0391 4.21071 18.5304 4 18 4H6ZM12 9.382L9.879 11.503C9.69053 11.6853 9.43799 11.7863 9.17579 11.7842C8.91359 11.7821 8.6627 11.6771 8.47716 11.4918C8.29162 11.3065 8.18628 11.0558 8.18381 10.7936C8.18135 10.5314 8.28197 10.2787 8.464 10.09L11.293 7.262C11.4805 7.07453 11.7348 6.96921 12 6.96921C12.2652 6.96921 12.5195 7.07453 12.707 7.262L15.536 10.09C15.6288 10.1829 15.7025 10.2932 15.7527 10.4146C15.8029 10.5359 15.8287 10.666 15.8287 10.7974C15.8287 10.9287 15.8027 11.0588 15.7524 11.1801C15.7021 11.3014 15.6284 11.4117 15.5355 11.5045C15.4426 11.5973 15.3323 11.671 15.2109 11.7212C15.0896 11.7714 14.9595 11.7972 14.8281 11.7972C14.6968 11.7972 14.5667 11.7712 14.4454 11.7209C14.3241 11.6706 14.2138 11.5969 14.121 11.504L12 9.383V9.382ZM12 14.382L9.879 16.503C9.78616 16.5959 9.67592 16.6696 9.55459 16.7199C9.43326 16.7702 9.3032 16.7962 9.17185 16.7962C9.0405 16.7962 8.91043 16.7704 8.78907 16.7202C8.6677 16.67 8.55741 16.5963 8.4645 16.5035C8.37159 16.4107 8.29788 16.3004 8.24757 16.1791C8.19726 16.0578 8.17134 15.9277 8.1713 15.7964C8.17125 15.665 8.19708 15.5349 8.2473 15.4136C8.29752 15.2922 8.37116 15.1819 8.464 15.089L11.293 12.261C11.4805 12.0735 11.7348 11.9682 12 11.9682C12.2652 11.9682 12.5195 12.0735 12.707 12.261L15.536 15.089C15.6288 15.1819 15.7025 15.2922 15.7527 15.4136C15.8029 15.5349 15.8287 15.665 15.8287 15.7964C15.8287 15.9277 15.8027 16.0578 15.7524 16.1791C15.7021 16.3004 15.6284 16.4107 15.5355 16.5035C15.4426 16.5963 15.3323 16.67 15.2109 16.7202C15.0896 16.7704 14.9595 16.7962 14.8281 16.7962C14.6968 16.7962 14.5667 16.7702 14.4454 16.7199C14.3241 16.6696 14.2138 16.5959 14.121 16.503L12 14.383V14.382Z" fill="black"/>
</svg>
