<svg width="24" height="24" viewBox="0 0 24 24" fill="none" xmlns="http://www.w3.org/2000/svg">
<path d="M12.071 7.32797L7.12099 12.278C6.93239 12.4601 6.67979 12.5609 6.41759 12.5586C6.15539 12.5564 5.90458 12.4512 5.71917 12.2658C5.53376 12.0804 5.4286 11.8296 5.42632 11.5674C5.42404 11.3052 5.52483 11.0526 5.70699 10.864L11.364 5.20697C11.5515 5.0195 11.8058 4.91418 12.071 4.91418C12.3362 4.91418 12.5905 5.0195 12.778 5.20697L18.435 10.864C18.6172 11.0526 18.7179 11.3052 18.7157 11.5674C18.7134 11.8296 18.6082 12.0804 18.4228 12.2658C18.2374 12.4512 17.9866 12.5564 17.7244 12.5586C17.4622 12.5609 17.2096 12.4601 17.021 12.278L12.071 7.32797ZM12.071 13.328L7.12099 18.278C7.02874 18.3735 6.9184 18.4497 6.7964 18.5021C6.67439 18.5545 6.54317 18.5821 6.41039 18.5832C6.27761 18.5844 6.14593 18.5591 6.02304 18.5088C5.90014 18.4585 5.78849 18.3843 5.6946 18.2904C5.6007 18.1965 5.52645 18.0848 5.47617 17.9619C5.42589 17.839 5.40059 17.7073 5.40174 17.5746C5.40289 17.4418 5.43048 17.3106 5.48289 17.1886C5.5353 17.0666 5.61148 16.9562 5.70699 16.864L11.364 11.207C11.5515 11.0195 11.8058 10.9142 12.071 10.9142C12.3362 10.9142 12.5905 11.0195 12.778 11.207L18.435 16.864C18.6172 17.0526 18.7179 17.3052 18.7157 17.5674C18.7134 17.8296 18.6082 18.0804 18.4228 18.2658C18.2374 18.4512 17.9866 18.5564 17.7244 18.5586C17.4622 18.5609 17.2096 18.4601 17.021 18.278L12.071 13.328Z" fill="black"/>
</svg>
