<svg width="24" height="24" viewBox="0 0 24 24" fill="none" xmlns="http://www.w3.org/2000/svg">
<path d="M12.071 10.314L17.021 5.364C17.1132 5.26849 17.2236 5.19231 17.3456 5.1399C17.4676 5.08749 17.5988 5.05991 17.7316 5.05875C17.8644 5.0576 17.996 5.0829 18.1189 5.13318C18.2418 5.18346 18.3535 5.25772 18.4474 5.35161C18.5413 5.4455 18.6155 5.55715 18.6658 5.68005C18.7161 5.80295 18.7414 5.93463 18.7402 6.06741C18.7391 6.20018 18.7115 6.3314 18.6591 6.45341C18.6067 6.57541 18.5305 6.68576 18.435 6.778L12.778 12.435C12.5905 12.6225 12.3362 12.7278 12.071 12.7278C11.8058 12.7278 11.5515 12.6225 11.364 12.435L5.70699 6.778C5.61148 6.68576 5.5353 6.57541 5.48289 6.45341C5.43048 6.3314 5.40289 6.20018 5.40174 6.06741C5.40059 5.93463 5.42589 5.80295 5.47617 5.68005C5.52645 5.55715 5.6007 5.4455 5.6946 5.35161C5.78849 5.25772 5.90014 5.18346 6.02304 5.13318C6.14593 5.0829 6.27761 5.0576 6.41039 5.05875C6.54317 5.05991 6.67439 5.08749 6.7964 5.1399C6.9184 5.19231 7.02874 5.26849 7.12099 5.364L12.071 10.314ZM12.071 16.314L17.021 11.364C17.1132 11.2685 17.2236 11.1923 17.3456 11.1399C17.4676 11.0875 17.5988 11.0599 17.7316 11.0588C17.8644 11.0576 17.996 11.0829 18.1189 11.1332C18.2418 11.1835 18.3535 11.2577 18.4474 11.3516C18.5413 11.4455 18.6155 11.5572 18.6658 11.68C18.7161 11.8029 18.7414 11.9346 18.7402 12.0674C18.7391 12.2002 18.7115 12.3314 18.6591 12.4534C18.6067 12.5754 18.5305 12.6858 18.435 12.778L12.778 18.435C12.5905 18.6225 12.3362 18.7278 12.071 18.7278C11.8058 18.7278 11.5515 18.6225 11.364 18.435L5.70699 12.778C5.61148 12.6858 5.5353 12.5754 5.48289 12.4534C5.43048 12.3314 5.40289 12.2002 5.40174 12.0674C5.40059 11.9346 5.42589 11.8029 5.47617 11.68C5.52645 11.5572 5.6007 11.4455 5.6946 11.3516C5.78849 11.2577 5.90014 11.1835 6.02304 11.1332C6.14593 11.0829 6.27761 11.0576 6.41039 11.0588C6.54317 11.0599 6.67439 11.0875 6.7964 11.1399C6.9184 11.1923 7.02874 11.2685 7.12099 11.364L12.071 16.314Z" fill="black"/>
</svg>
