<svg width="24" height="24" viewBox="0 0 24 24" fill="none" xmlns="http://www.w3.org/2000/svg">
<path d="M13 13H15C15.2652 13 15.5196 13.1054 15.7071 13.2929C15.8946 13.4804 16 13.7348 16 14C16 14.2652 15.8946 14.5196 15.7071 14.7071C15.5196 14.8946 15.2652 15 15 15H12C11.8686 15.0004 11.7383 14.9748 11.6168 14.9247C11.4953 14.8746 11.3849 14.8009 11.292 14.708C11.1991 14.6151 11.1254 14.5047 11.0753 14.3832C11.0252 14.2616 10.9996 14.1314 11 14V10C11 9.73478 11.1053 9.48043 11.2929 9.29289C11.4804 9.10536 11.7348 9 12 9C12.2652 9 12.5196 9.10536 12.7071 9.29289C12.8946 9.48043 13 9.73478 13 10V13ZM5.86899 8.861C5.6405 8.75503 5.44237 8.59324 5.29288 8.39053C5.14339 8.18783 5.04734 7.95075 5.01361 7.70115C4.97987 7.45156 5.00952 7.19749 5.09983 6.96237C5.19015 6.72725 5.33821 6.51866 5.53036 6.35584C5.72251 6.19301 5.95258 6.08119 6.19933 6.03069C6.44608 5.98019 6.70157 5.99263 6.94224 6.06687C7.18292 6.14112 7.40102 6.27477 7.57644 6.4555C7.75186 6.63623 7.87895 6.85822 7.94599 7.101C8.30636 6.88907 8.68286 6.70584 9.07199 6.553C8.63465 6.2491 8.30578 5.81348 8.13331 5.30962C7.96085 4.80576 7.95379 4.25999 8.11316 3.75184C8.27254 3.24368 8.59002 2.7997 9.01935 2.48459C9.44869 2.16948 9.96743 1.9997 10.5 2H13.5C14.0325 1.9997 14.5513 2.16948 14.9806 2.48459C15.4099 2.7997 15.7274 3.24368 15.8868 3.75184C16.0462 4.25999 16.0391 4.80576 15.8667 5.30962C15.6942 5.81348 15.3653 6.2491 14.928 6.553C15.318 6.707 15.695 6.89 16.054 7.101C16.121 6.85822 16.2481 6.63623 16.4235 6.4555C16.5989 6.27477 16.8171 6.14112 17.0577 6.06687C17.2984 5.99263 17.5539 5.98019 17.8006 6.03069C18.0474 6.08119 18.2775 6.19301 18.4696 6.35584C18.6618 6.51866 18.8098 6.72725 18.9001 6.96237C18.9904 7.19749 19.0201 7.45156 18.9864 7.70115C18.9526 7.95075 18.8566 8.18783 18.7071 8.39053C18.5576 8.59324 18.3595 8.75503 18.131 8.861C19.1089 10.0278 19.7335 11.4495 19.9315 12.959C20.1295 14.4685 19.8927 16.0031 19.2489 17.3827C18.6051 18.7623 17.581 19.9295 16.2969 20.7473C15.0127 21.5651 13.5219 21.9996 11.9995 21.9996C10.4771 21.9996 8.98625 21.5651 7.70212 20.7473C6.418 19.9295 5.39388 18.7623 4.75006 17.3827C4.10623 16.0031 3.86943 14.4685 4.06745 12.959C4.26547 11.4495 4.8901 10.0278 5.86799 8.861H5.86899ZM12 20C13.5913 20 15.1174 19.3679 16.2426 18.2426C17.3678 17.1174 18 15.5913 18 14C18 12.4087 17.3678 10.8826 16.2426 9.75736C15.1174 8.63214 13.5913 8 12 8C10.4087 8 8.88256 8.63214 7.75735 9.75736C6.63213 10.8826 5.99999 12.4087 5.99999 14C5.99999 15.5913 6.63213 17.1174 7.75735 18.2426C8.88256 19.3679 10.4087 20 12 20ZM10.5 4C10.3674 4 10.2402 4.05268 10.1464 4.14645C10.0527 4.24022 9.99999 4.36739 9.99999 4.5C9.99999 4.63261 10.0527 4.75979 10.1464 4.85355C10.2402 4.94732 10.3674 5 10.5 5H13.5C13.6326 5 13.7598 4.94732 13.8535 4.85355C13.9473 4.75979 14 4.63261 14 4.5C14 4.36739 13.9473 4.24022 13.8535 4.14645C13.7598 4.05268 13.6326 4 13.5 4H10.5Z" fill="black"/>
</svg>
