<svg width="24" height="24" viewBox="0 0 24 24" fill="none" xmlns="http://www.w3.org/2000/svg">
<path d="M13 14V11C13 10.7348 12.8946 10.4804 12.7071 10.2929C12.5196 10.1054 12.2652 10 12 10C11.7348 10 11.4804 10.1054 11.2929 10.2929C11.1053 10.4804 11 10.7348 11 11V15C11 15.2652 11.1053 15.5196 11.2929 15.7071C11.4804 15.8946 11.7348 16 12 16H15C15.2652 16 15.5196 15.8946 15.7071 15.7071C15.8946 15.5196 16 15.2652 16 15C16 14.7348 15.8946 14.4804 15.7071 14.2929C15.5196 14.1054 15.2652 14 15 14H13ZM12 21C10.4087 21 8.88257 20.3679 7.75735 19.2426C6.63213 18.1174 5.99999 16.5913 5.99999 15C5.99999 13.4087 6.63213 11.8826 7.75735 10.7574C8.88257 9.63214 10.4087 9 12 9C13.5913 9 15.1174 9.63214 16.2426 10.7574C17.3678 11.8826 18 13.4087 18 15C18 16.5913 17.3678 18.1174 16.2426 19.2426C15.1174 20.3679 13.5913 21 12 21ZM14.928 7.553C13.9954 7.18646 13.0021 6.99886 12 7C10.9979 6.99886 10.0046 7.18646 9.07199 7.553C8.63465 7.2491 8.30579 6.81348 8.13332 6.30962C7.96085 5.80576 7.95379 5.25999 8.11317 4.75184C8.27254 4.24368 8.59003 3.7997 9.01936 3.48459C9.44869 3.16948 9.96743 2.9997 10.5 3H13.5C14.0325 2.9997 14.5513 3.16948 14.9806 3.48459C15.41 3.7997 15.7274 4.24368 15.8868 4.75184C16.0462 5.25999 16.0391 5.80576 15.8667 6.30962C15.6942 6.81348 15.3653 7.2491 14.928 7.553ZM10.5 5C10.3674 5 10.2402 5.05268 10.1464 5.14645C10.0527 5.24022 9.99999 5.36739 9.99999 5.5C9.99999 5.63261 10.0527 5.75979 10.1464 5.85355C10.2402 5.94732 10.3674 6 10.5 6H13.5C13.6326 6 13.7598 5.94732 13.8535 5.85355C13.9473 5.75979 14 5.63261 14 5.5C14 5.36739 13.9473 5.24022 13.8535 5.14645C13.7598 5.05268 13.6326 5 13.5 5H10.5ZM16.054 8.101C16.121 7.85822 16.2481 7.63623 16.4235 7.4555C16.599 7.27477 16.8171 7.14112 17.0577 7.06687C17.2984 6.99263 17.5539 6.98019 17.8006 7.03069C18.0474 7.08119 18.2775 7.19301 18.4696 7.35584C18.6618 7.51866 18.8098 7.72725 18.9001 7.96237C18.9905 8.19749 19.0201 8.45156 18.9864 8.70115C18.9526 8.95075 18.8566 9.18783 18.7071 9.39053C18.5576 9.59324 18.3595 9.75503 18.131 9.861C17.5438 9.16052 16.8413 8.56532 16.054 8.101ZM5.86899 9.861C5.6405 9.75503 5.44238 9.59324 5.29288 9.39053C5.14339 9.18783 5.04735 8.95075 5.01361 8.70115C4.97987 8.45156 5.00953 8.19749 5.09984 7.96237C5.19015 7.72725 5.33821 7.51866 5.53036 7.35584C5.72252 7.19301 5.95258 7.08119 6.19933 7.03069C6.44608 6.98019 6.70157 6.99263 6.94225 7.06687C7.18292 7.14112 7.40103 7.27477 7.57645 7.4555C7.75187 7.63623 7.87896 7.85822 7.94599 8.101C7.15899 8.56541 6.45693 9.16061 5.86999 9.861H5.86899Z" fill="black"/>
</svg>
