<svg width="24" height="24" viewBox="0 0 24 24" fill="none" xmlns="http://www.w3.org/2000/svg">
<path d="M12.826 8.5L10.45 15.809C10.4105 15.9352 10.3464 16.0523 10.2613 16.1536C10.1763 16.2548 10.072 16.3382 9.95447 16.3989C9.83697 16.4595 9.70861 16.4963 9.57681 16.507C9.44501 16.5178 9.31239 16.5023 9.18663 16.4614C9.06086 16.4205 8.94445 16.3551 8.84413 16.269C8.74381 16.1828 8.66158 16.0776 8.60218 15.9595C8.54279 15.8413 8.50742 15.7126 8.49812 15.5807C8.48882 15.4488 8.50577 15.3163 8.548 15.191L10.723 8.5H7.5C7.23478 8.5 6.98043 8.39464 6.79289 8.20711C6.60536 8.01957 6.5 7.76522 6.5 7.5C6.5 7.23478 6.60536 6.98043 6.79289 6.79289C6.98043 6.60536 7.23478 6.5 7.5 6.5H15.5C15.7652 6.5 16.0196 6.60536 16.2071 6.79289C16.3946 6.98043 16.5 7.23478 16.5 7.5C16.5 7.76522 16.3946 8.01957 16.2071 8.20711C16.0196 8.39464 15.7652 8.5 15.5 8.5H12.826ZM16.156 14.743L16.864 15.45C16.9595 15.5422 17.0357 15.6526 17.0881 15.7746C17.1405 15.8966 17.1681 16.0278 17.1693 16.1606C17.1704 16.2934 17.1451 16.4251 17.0948 16.548C17.0445 16.6708 16.9703 16.7825 16.8764 16.8764C16.7825 16.9703 16.6708 17.0445 16.548 17.0948C16.4251 17.1451 16.2934 17.1704 16.1606 17.1693C16.0278 17.1681 15.8966 17.1405 15.7746 17.0881C15.6526 17.0357 15.5422 16.9595 15.45 16.864L14.743 16.157L14.036 16.864C13.8485 17.0518 13.5941 17.1574 13.3287 17.1576C13.0633 17.1577 12.8088 17.0525 12.621 16.865C12.4332 16.6775 12.3276 16.4231 12.3274 16.1577C12.3273 15.8923 12.4325 15.6378 12.62 15.45L13.327 14.743L12.62 14.036C12.4322 13.8482 12.3267 13.5936 12.3267 13.328C12.3267 13.0624 12.4322 12.8078 12.62 12.62C12.8078 12.4322 13.0624 12.3267 13.328 12.3267C13.5936 12.3267 13.8482 12.4322 14.036 12.62L14.743 13.327L15.45 12.62C15.6376 12.4325 15.8921 12.3272 16.1574 12.3273C16.4226 12.3274 16.677 12.4329 16.8645 12.6205C17.052 12.8081 17.1573 13.0626 17.1572 13.3279C17.1571 13.5931 17.0516 13.8475 16.864 14.035L16.157 14.742L16.156 14.743Z" fill="black"/>
</svg>
