<svg width="24" height="24" viewBox="0 0 24 24" fill="none" xmlns="http://www.w3.org/2000/svg">
<path d="M15 2C16.8565 2 18.637 2.7375 19.9497 4.05025C21.2625 5.36301 22 7.14348 22 9C22 10.8565 21.2625 12.637 19.9497 13.9497C18.637 15.2625 16.8565 16 15 16H6.99999C6.27677 15.9996 5.56224 15.8423 4.9057 15.539C4.24917 15.2356 3.66625 14.7935 3.19716 14.243C2.72808 13.6926 2.38399 13.0469 2.18864 12.3505C1.99329 11.6542 1.95133 10.9238 2.06566 10.2096C2.17998 9.4955 2.44786 8.81467 2.85083 8.21411C3.25379 7.61355 3.78224 7.10756 4.39973 6.73104C5.01721 6.35452 5.70902 6.11643 6.42744 6.03321C7.14586 5.94999 7.87379 6.02361 8.56099 6.249C9.10021 4.988 9.99787 3.91312 11.1426 3.15776C12.2872 2.4024 13.6285 1.99982 15 2Z" fill="black"/>
<path d="M9 18C9 17.4477 8.55228 17 8 17C7.44772 17 7 17.4477 7 18V20C7 20.5523 7.44772 21 8 21C8.55228 21 9 20.5523 9 20V18Z" fill="black"/>
<path d="M13 18C13 17.4477 12.5523 17 12 17C11.4477 17 11 17.4477 11 18V21C11 21.5523 11.4477 22 12 22C12.5523 22 13 21.5523 13 21V18Z" fill="black"/>
<path d="M17 18C17 17.4477 16.5523 17 16 17C15.4477 17 15 17.4477 15 18V19C15 19.5523 15.4477 20 16 20C16.5523 20 17 19.5523 17 19V18Z" fill="black"/>
</svg>
