<svg width="24" height="24" viewBox="0 0 24 24" fill="none" xmlns="http://www.w3.org/2000/svg">
<path d="M15 2C16.8565 2 18.637 2.7375 19.9497 4.05025C21.2625 5.36301 22 7.14348 22 9C22 10.8565 21.2625 12.637 19.9497 13.9497C18.637 15.2625 16.8565 16 15 16H7C6.27678 15.9996 5.56225 15.8423 4.90571 15.539C4.24917 15.2356 3.66626 14.7935 3.19717 14.243C2.72808 13.6926 2.384 13.0469 2.18865 12.3505C1.9933 11.6542 1.95134 10.9238 2.06566 10.2096C2.17999 9.4955 2.44787 8.81467 2.85083 8.21411C3.2538 7.61355 3.78225 7.10756 4.39973 6.73104C5.01722 6.35452 5.70903 6.11643 6.42745 6.03321C7.14587 5.94999 7.87379 6.02361 8.561 6.249C9.10022 4.988 9.99788 3.91312 11.1426 3.15776C12.2872 2.4024 13.6286 1.99982 15 2ZM8 17C8.26522 17 8.51957 17.1054 8.70711 17.2929C8.89464 17.4804 9 17.7348 9 18C9 18.2652 8.89464 18.5196 8.70711 18.7071C8.51957 18.8946 8.26522 19 8 19C7.73479 19 7.48043 18.8946 7.29289 18.7071C7.10536 18.5196 7 18.2652 7 18C7 17.7348 7.10536 17.4804 7.29289 17.2929C7.48043 17.1054 7.73479 17 8 17ZM12 20C12.2652 20 12.5196 20.1054 12.7071 20.2929C12.8946 20.4804 13 20.7348 13 21C13 21.2652 12.8946 21.5196 12.7071 21.7071C12.5196 21.8946 12.2652 22 12 22C11.7348 22 11.4804 21.8946 11.2929 21.7071C11.1054 21.5196 11 21.2652 11 21C11 20.7348 11.1054 20.4804 11.2929 20.2929C11.4804 20.1054 11.7348 20 12 20ZM16 18C16.2652 18 16.5196 18.1054 16.7071 18.2929C16.8946 18.4804 17 18.7348 17 19C17 19.2652 16.8946 19.5196 16.7071 19.7071C16.5196 19.8946 16.2652 20 16 20C15.7348 20 15.4804 19.8946 15.2929 19.7071C15.1054 19.5196 15 19.2652 15 19C15 18.7348 15.1054 18.4804 15.2929 18.2929C15.4804 18.1054 15.7348 18 16 18Z" fill="black"/>
</svg>
