<svg width="24" height="24" viewBox="0 0 24 24" fill="none" xmlns="http://www.w3.org/2000/svg">
<path d="M13.774 15.5L14.276 14.122C14.4574 13.6236 14.4334 13.0734 14.2092 12.5927C13.985 12.1119 13.579 11.7399 13.0805 11.5585C12.8337 11.4687 12.5716 11.4284 12.3092 11.4398C12.0468 11.4513 11.7892 11.5143 11.5512 11.6254C11.0704 11.8496 10.6984 12.2556 10.517 12.754L9.833 14.634C9.73174 14.9108 9.69314 15.2066 9.72 15.5H7C6.27678 15.4996 5.56225 15.3423 4.90571 15.039C4.24917 14.7357 3.66625 14.2935 3.19717 13.7431C2.72808 13.1926 2.384 12.5469 2.18865 11.8506C1.9933 11.1542 1.95134 10.4238 2.06566 9.70966C2.17998 8.99553 2.44787 8.3147 2.85083 7.71414C3.2538 7.11358 3.78225 6.60759 4.39973 6.23107C5.01722 5.85455 5.70903 5.61647 6.42745 5.53324C7.14587 5.45002 7.87379 5.52365 8.561 5.74903C9.19557 4.26666 10.3223 3.04874 11.7509 2.30098C13.1796 1.55322 14.8225 1.32145 16.4022 1.64482C17.9819 1.9682 19.4016 2.82689 20.4215 4.07587C21.4414 5.32484 21.999 6.88755 22 8.50003C22 10.3565 21.2625 12.137 19.9497 13.4498C18.637 14.7625 16.8565 15.5 15 15.5H13.774ZM12.71 12.564C13.229 12.762 13.497 13.365 13.308 13.91L11.94 17.86C11.75 18.405 11.177 18.686 10.658 18.487C10.139 18.289 9.872 17.686 10.061 17.141L11.429 13.191C11.617 12.646 12.191 12.365 12.71 12.564ZM14.342 16.513C14.861 16.711 15.128 17.314 14.939 17.859L13.571 21.809C13.383 22.354 12.809 22.635 12.29 22.436C11.771 22.238 11.503 21.635 11.692 21.09L13.06 17.14C13.25 16.595 13.823 16.314 14.342 16.513ZM11 16.449H14C14.552 16.449 15 16.919 15 17.5C15 18.08 14.552 18.55 14 18.55H11C10.448 18.55 10 18.08 10 17.5C10 16.92 10.448 16.45 11 16.45V16.449Z" fill="black"/>
</svg>
