<svg width="24" height="24" viewBox="0 0 24 24" fill="none" xmlns="http://www.w3.org/2000/svg">
<path d="M6.99999 19C6.27677 18.9996 5.56224 18.8423 4.9057 18.539C4.24917 18.2357 3.66625 17.7935 3.19716 17.2431C2.72808 16.6926 2.38399 16.0469 2.18864 15.3506C1.99329 14.6542 1.95133 13.9238 2.06566 13.2097C2.17998 12.4955 2.44786 11.8147 2.85083 11.2141C3.25379 10.6136 3.78224 10.1076 4.39973 9.73107C5.01721 9.35455 5.70902 9.11647 6.42744 9.03324C7.14586 8.95002 7.87379 9.02365 8.56099 9.24903C9.19556 7.76666 10.3223 6.54874 11.7509 5.80098C13.1796 5.05322 14.8225 4.82145 16.4022 5.14482C17.9819 5.4682 19.4016 6.32689 20.4215 7.57587C21.4414 8.82484 21.9989 10.3875 22 12C22 13.8565 21.2625 15.637 19.9497 16.9498C18.637 18.2625 16.8565 19 15 19H6.99999ZM6.99999 17H15C15.903 16.9996 16.789 16.7547 17.5639 16.2912C18.3389 15.8278 18.9739 15.1631 19.4015 14.3678C19.8291 13.5725 20.0334 12.6763 19.9926 11.7742C19.9518 10.8722 19.6675 9.998 19.1699 9.24453C18.6723 8.49106 17.9799 7.8864 17.1662 7.49478C16.3526 7.10315 15.4481 6.93916 14.5488 7.02022C13.6495 7.10128 12.7889 7.42437 12.0584 7.95519C11.328 8.486 10.7549 9.20472 10.4 10.035L9.67999 11.721L7.93799 11.149C7.52577 11.014 7.08917 10.97 6.6583 11.0201C6.22742 11.0701 5.81252 11.213 5.44219 11.4388C5.07187 11.6647 4.75493 11.9682 4.51322 12.3284C4.27151 12.6885 4.11079 13.0969 4.04213 13.5252C3.97346 13.9535 3.9985 14.3916 4.1155 14.8092C4.2325 15.2269 4.43869 15.6143 4.71985 15.9446C5.00102 16.2749 5.35047 16.5403 5.74411 16.7225C6.13775 16.9047 6.56623 16.9994 6.99999 17Z" fill="black"/>
</svg>
