<svg width="24" height="24" viewBox="0 0 24 24" fill="none" xmlns="http://www.w3.org/2000/svg">
<path d="M15 5C16.8565 5 18.637 5.7375 19.9498 7.05025C21.2625 8.36301 22 10.1435 22 12C22 13.8565 21.2625 15.637 19.9498 16.9497C18.637 18.2625 16.8565 19 15 19H7.00001C6.27679 18.9996 5.56226 18.8423 4.90572 18.539C4.24918 18.2356 3.66626 17.7935 3.19718 17.243C2.72809 16.6926 2.38401 16.0469 2.18866 15.3505C1.99331 14.6542 1.95135 13.9238 2.06567 13.2096C2.17999 12.4955 2.44788 11.8147 2.85084 11.2141C3.25381 10.6136 3.78226 10.1076 4.39974 9.73104C5.01722 9.35452 5.70904 9.11643 6.42746 9.03321C7.14588 8.94999 7.8738 9.02361 8.56101 9.249C9.10023 7.988 9.99789 6.91312 11.1426 6.15776C12.2873 5.4024 13.6286 4.99982 15 5Z" fill="black"/>
</svg>
