<svg width="24" height="24" viewBox="0 0 24 24" fill="none" xmlns="http://www.w3.org/2000/svg">
<g clip-path="url(#clip0_201_31047)">
<path d="M15.2831 0.0959393C15.9071 0.395939 16.2275 1.30344 16.0007 2.12544L10.2551 22.9574C10.0271 23.7794 9.33955 24.2024 8.71675 23.9039C8.09275 23.6039 7.77235 22.6964 7.99915 21.8744L13.7447 1.04244C13.9727 0.220439 14.6603 -0.202561 15.2831 0.0959393ZM2.89675 12.3839L7.13995 17.9849C7.60795 18.6029 7.60795 19.6049 7.13995 20.2229C7.03175 20.3692 6.90053 20.4859 6.75453 20.5657C6.60853 20.6455 6.4509 20.6867 6.29155 20.6867C6.1322 20.6867 5.97457 20.6455 5.82857 20.5657C5.68256 20.4859 5.55134 20.3692 5.44315 20.2229L0.351547 13.5044C0.125681 13.1999 0.000183105 12.8 0.000183105 12.3847C0.000183105 11.9694 0.125681 11.5695 0.351547 11.2649L5.44315 4.54494C5.55134 4.3987 5.68256 4.28202 5.82857 4.20221C5.97457 4.12241 6.1322 4.08121 6.29155 4.08121C6.4509 4.08121 6.60853 4.12241 6.75453 4.20221C6.90053 4.28202 7.03175 4.3987 7.13995 4.54494C7.36563 4.84988 7.491 5.25002 7.491 5.66544C7.491 6.08086 7.36563 6.481 7.13995 6.78594L2.89675 12.3839ZM21.1031 12.3839L16.8599 6.78594C16.6341 6.48141 16.5086 6.08146 16.5086 5.66619C16.5086 5.25092 16.6341 4.85097 16.8599 4.54644C16.9681 4.4002 17.0994 4.28352 17.2454 4.20371C17.3914 4.12391 17.549 4.08272 17.7083 4.08272C17.8677 4.08272 18.0253 4.12391 18.1713 4.20371C18.3173 4.28352 18.4486 4.4002 18.5567 4.54644L23.6483 11.2649C24.1163 11.8829 24.1163 12.8849 23.6483 13.5044L18.5567 20.2214C18.4486 20.3677 18.3173 20.4844 18.1713 20.5642C18.0253 20.644 17.8677 20.6852 17.7083 20.6852C17.549 20.6852 17.3914 20.644 17.2454 20.5642C17.0994 20.4844 16.9681 20.3677 16.8599 20.2214C16.6344 19.917 16.5091 19.5174 16.5091 19.1024C16.5091 18.6875 16.6344 18.2879 16.8599 17.9834L21.1031 12.3839Z" fill="black"/>
</g>
<defs>
<clipPath id="clip0_201_31047">
<rect width="24" height="24" fill="white"/>
</clipPath>
</defs>
</svg>
