<svg width="24" height="24" viewBox="0 0 24 24" fill="none" xmlns="http://www.w3.org/2000/svg">
<path d="M10.815 5.094C10.2997 5.13093 9.78263 5.05222 9.30164 4.86363C8.82065 4.67504 8.38789 4.38134 8.035 4.004L7.951 4.003C7.598 4.38048 7.16508 4.67426 6.6839 4.86285C6.20273 5.05144 5.68548 5.13008 5.17 5.093C5.09156 5.61503 4.89529 6.11234 4.59606 6.54723C4.29684 6.98212 3.90251 7.34317 3.443 7.603C3.63658 8.0433 3.73654 8.51902 3.73654 9C3.73654 9.48098 3.63658 9.9567 3.443 10.397C3.90251 10.6568 4.29684 11.0179 4.59606 11.4528C4.89529 11.8877 5.09156 12.385 5.17 12.907C5.68532 12.8701 6.20237 12.9488 6.68336 13.1374C7.16435 13.326 7.59711 13.6197 7.95 13.997H8.034C8.38689 13.6197 8.81965 13.326 9.30064 13.1374C9.78163 12.9488 10.2987 12.8701 10.814 12.907C10.8924 12.385 11.0887 11.8877 11.3879 11.4528C11.6872 11.0179 12.0815 10.6568 12.541 10.397C12.3474 9.9567 12.2475 9.48098 12.2475 9C12.2475 8.51902 12.3474 8.0433 12.541 7.603C12.0817 7.34306 11.6875 6.98196 11.3885 6.54707C11.0895 6.11219 10.8933 5.61494 10.815 5.093V5.094ZM15 7.714C14.7714 7.84203 14.5811 8.02868 14.4486 8.25471C14.3162 8.48075 14.2463 8.73801 14.2463 9C14.2463 9.26199 14.3162 9.51925 14.4486 9.74529C14.5811 9.97132 14.7714 10.158 15 10.286L14.498 11.97C14.2267 11.9231 13.9477 11.9532 13.6927 12.0568C13.4376 12.1605 13.2167 12.3335 13.055 12.5563C12.8933 12.7792 12.7973 13.0428 12.7779 13.3174C12.7584 13.5921 12.8163 13.8666 12.945 14.11L11.502 15.232C11.3109 15.0754 11.0834 14.9694 10.8406 14.9237C10.5978 14.8781 10.3474 14.8942 10.1124 14.9707C9.87748 15.0472 9.66555 15.1816 9.49614 15.3614C9.32673 15.5413 9.20529 15.7609 9.143 16L6.839 15.994C6.77581 15.7564 6.65413 15.5383 6.48506 15.3598C6.31599 15.1812 6.10492 15.0478 5.87108 14.9718C5.63724 14.8957 5.38808 14.8794 5.14632 14.9243C4.90456 14.9693 4.6779 15.074 4.487 15.229L3.045 14.098C3.17024 13.8556 3.22568 13.5831 3.20514 13.311C3.1846 13.039 3.08889 12.7779 2.92868 12.557C2.76846 12.3362 2.55005 12.1641 2.29779 12.0601C2.04552 11.9561 1.76933 11.9242 1.5 11.968L1 10.278C1.22454 10.1488 1.41104 9.96263 1.54073 9.73835C1.67041 9.51407 1.7387 9.25957 1.7387 9.0005C1.7387 8.74143 1.67041 8.48693 1.54073 8.26265C1.41104 8.03837 1.22454 7.85224 1 7.723L1.5 6.033C1.76933 6.07678 2.04552 6.04488 2.29779 5.94088C2.55005 5.83687 2.76846 5.66483 2.92868 5.44396C3.08889 5.22308 3.1846 4.96205 3.20514 4.68996C3.22568 4.41787 3.17024 4.14542 3.045 3.903L4.487 2.77C4.6779 2.92523 4.90465 3.03016 5.14653 3.07522C5.38841 3.12028 5.63773 3.10403 5.87172 3.02796C6.10571 2.95188 6.31692 2.81841 6.48606 2.63972C6.6552 2.46103 6.77688 2.24281 6.84 2.005L9.143 2C9.20537 2.23893 9.3268 2.45834 9.49614 2.63807C9.66547 2.8178 9.87728 2.95207 10.1121 3.02854C10.3469 3.10502 10.5971 3.12124 10.8398 3.07571C11.0825 3.03018 11.3099 2.92437 11.501 2.768L12.945 3.89C12.8163 4.13338 12.7584 4.40795 12.7779 4.68256C12.7973 4.95718 12.8933 5.22085 13.055 5.44366C13.2167 5.66648 13.4376 5.83952 13.6927 5.94315C13.9477 6.04679 14.2267 6.07688 14.498 6.03L15 7.714ZM9.188 16.912C10.0018 16.7914 10.7918 16.5451 11.53 16.182C11.5034 16.2546 11.4744 16.3263 11.443 16.397C11.9025 16.6568 12.2968 17.0179 12.5961 17.4528C12.8953 17.8877 13.0916 18.385 13.17 18.907C13.6853 18.8701 14.2024 18.9488 14.6834 19.1374C15.1643 19.326 15.5971 19.6197 15.95 19.997H16.034C16.3869 19.6197 16.8196 19.326 17.3006 19.1374C17.7816 18.9488 18.2987 18.8701 18.814 18.907C18.8924 18.385 19.0887 17.8877 19.3879 17.4528C19.6872 17.0179 20.0815 16.6568 20.541 16.397C20.3474 15.9567 20.2475 15.481 20.2475 15C20.2475 14.519 20.3474 14.0433 20.541 13.603C20.0817 13.3431 19.6875 12.982 19.3885 12.5471C19.0895 12.1122 18.8933 11.6149 18.815 11.093C18.2997 11.1299 17.7826 11.0512 17.3016 10.8626C16.8206 10.674 16.3879 10.3803 16.035 10.003H15.951L15.936 10.019C16.0209 9.34972 16.0215 8.67245 15.938 8.003L17.144 8C17.2064 8.23893 17.3278 8.45834 17.4971 8.63807C17.6665 8.8178 17.8783 8.95207 18.1131 9.02854C18.3479 9.10502 18.5981 9.12124 18.8408 9.07571C19.0835 9.03018 19.3109 8.92437 19.502 8.768L20.946 9.89C20.8173 10.1334 20.7594 10.4079 20.7789 10.6826C20.7983 10.9572 20.8943 11.2208 21.056 11.4437C21.2177 11.6665 21.4386 11.8395 21.6937 11.9432C21.9487 12.0468 22.2277 12.0769 22.499 12.03L23 13.714C22.7714 13.842 22.5811 14.0287 22.4486 14.2547C22.3162 14.4807 22.2463 14.738 22.2463 15C22.2463 15.262 22.3162 15.5193 22.4486 15.7453C22.5811 15.9713 22.7714 16.158 23 16.286L22.498 17.97C22.2267 17.9231 21.9477 17.9532 21.6927 18.0568C21.4376 18.1605 21.2167 18.3335 21.055 18.5563C20.8933 18.7792 20.7973 19.0428 20.7779 19.3174C20.7584 19.5921 20.8163 19.8666 20.945 20.11L19.502 21.232C19.3109 21.0754 19.0834 20.9694 18.8406 20.9237C18.5978 20.8781 18.3474 20.8942 18.1124 20.9707C17.8775 21.0472 17.6655 21.1816 17.4961 21.3614C17.3267 21.5413 17.2053 21.7609 17.143 22L14.839 21.994C14.7758 21.7564 14.6541 21.5383 14.4851 21.3598C14.316 21.1812 14.1049 21.0478 13.8711 20.9718C13.6372 20.8957 13.3881 20.8794 13.1463 20.9243C12.9046 20.9693 12.6779 21.074 12.487 21.229L11.045 20.098C11.1702 19.8556 11.2257 19.5831 11.2051 19.311C11.1846 19.039 11.0889 18.7779 10.9287 18.557C10.7685 18.3362 10.55 18.1641 10.2978 18.0601C10.0455 17.9561 9.76933 17.9242 9.5 17.968L9.188 16.912ZM8 12C7.60603 12 7.21593 11.9224 6.85195 11.7716C6.48797 11.6209 6.15726 11.3999 5.87868 11.1213C5.6001 10.8427 5.37913 10.512 5.22836 10.1481C5.0776 9.78407 5 9.39397 5 9C5 8.60603 5.0776 8.21593 5.22836 7.85195C5.37913 7.48797 5.6001 7.15726 5.87868 6.87868C6.15726 6.6001 6.48797 6.37913 6.85195 6.22836C7.21593 6.0776 7.60603 6 8 6C8.79565 6 9.55871 6.31607 10.1213 6.87868C10.6839 7.44129 11 8.20435 11 9C11 9.79565 10.6839 10.5587 10.1213 11.1213C9.55871 11.6839 8.79565 12 8 12ZM8 10C8.26522 10 8.51957 9.89464 8.70711 9.70711C8.89464 9.51957 9 9.26522 9 9C9 8.73478 8.89464 8.48043 8.70711 8.29289C8.51957 8.10536 8.26522 8 8 8C7.73478 8 7.48043 8.10536 7.29289 8.29289C7.10536 8.48043 7 8.73478 7 9C7 9.26522 7.10536 9.51957 7.29289 9.70711C7.48043 9.89464 7.73478 10 8 10ZM16 18C15.2044 18 14.4413 17.6839 13.8787 17.1213C13.3161 16.5587 13 15.7956 13 15C13 14.2044 13.3161 13.4413 13.8787 12.8787C14.4413 12.3161 15.2044 12 16 12C16.7956 12 17.5587 12.3161 18.1213 12.8787C18.6839 13.4413 19 14.2044 19 15C19 15.7956 18.6839 16.5587 18.1213 17.1213C17.5587 17.6839 16.7956 18 16 18ZM16 16C16.2652 16 16.5196 15.8946 16.7071 15.7071C16.8946 15.5196 17 15.2652 17 15C17 14.7348 16.8946 14.4804 16.7071 14.2929C16.5196 14.1054 16.2652 14 16 14C15.7348 14 15.4804 14.1054 15.2929 14.2929C15.1054 14.4804 15 14.7348 15 15C15 15.2652 15.1054 15.5196 15.2929 15.7071C15.4804 15.8946 15.7348 16 16 16Z" fill="black"/>
</svg>
