<svg width="24" height="24" viewBox="0 0 24 24" fill="none" xmlns="http://www.w3.org/2000/svg">
<path d="M11 15.358H10.949C10.6973 15.358 10.4559 15.258 10.278 15.0801C10.1 14.9021 10 14.6607 10 14.409C10 14.1438 9.89464 13.8895 9.70711 13.7019C9.51957 13.5144 9.26522 13.409 9 13.409C8.73478 13.409 8.48043 13.5144 8.29289 13.7019C8.10536 13.8895 8 14.1438 8 14.409C8 15.1912 8.3107 15.9412 8.86374 16.4943C9.41679 17.0473 10.1669 17.358 10.949 17.358H11V18.358C11 18.6232 11.1054 18.8776 11.2929 19.0651C11.4804 19.2527 11.7348 19.358 12 19.358C12.2652 19.358 12.5196 19.2527 12.7071 19.0651C12.8946 18.8776 13 18.6232 13 18.358V17.358C13.7956 17.358 14.5587 17.042 15.1213 16.4794C15.6839 15.9167 16 15.1537 16 14.358C16 13.5624 15.6839 12.7993 15.1213 12.2367C14.5587 11.6741 13.7956 11.358 13 11.358V9.35803H13.022C13.562 9.35803 14 9.79603 14 10.336C14 10.6012 14.1054 10.8556 14.2929 11.0431C14.4804 11.2307 14.7348 11.336 15 11.336C15.2652 11.336 15.5196 11.2307 15.7071 11.0431C15.8946 10.8556 16 10.6012 16 10.336C16 9.54622 15.6862 8.78875 15.1278 8.23027C14.5693 7.67179 13.8118 7.35803 13.022 7.35803H13V6.35803C13 6.09282 12.8946 5.83846 12.7071 5.65093C12.5196 5.46339 12.2652 5.35803 12 5.35803C11.7348 5.35803 11.4804 5.46339 11.2929 5.65093C11.1054 5.83846 11 6.09282 11 6.35803V7.35803C10.606 7.35803 10.2159 7.43563 9.85195 7.58639C9.48797 7.73716 9.15726 7.95814 8.87868 8.23671C8.6001 8.51529 8.37913 8.846 8.22836 9.20998C8.0776 9.57396 8 9.96407 8 10.358C8 10.752 8.0776 11.1421 8.22836 11.5061C8.37913 11.8701 8.6001 12.2008 8.87868 12.4794C9.15726 12.7579 9.48797 12.9789 9.85195 13.1297C10.2159 13.2804 10.606 13.358 11 13.358V15.358ZM13 15.358V13.358C13.2652 13.358 13.5196 13.4634 13.7071 13.6509C13.8946 13.8385 14 14.0928 14 14.358C14 14.6232 13.8946 14.8776 13.7071 15.0651C13.5196 15.2527 13.2652 15.358 13 15.358ZM11 9.35803V11.358C10.7348 11.358 10.4804 11.2527 10.2929 11.0651C10.1054 10.8776 10 10.6232 10 10.358C10 10.0928 10.1054 9.83846 10.2929 9.65093C10.4804 9.46339 10.7348 9.35803 11 9.35803ZM12 22.358C6.477 22.358 2 17.881 2 12.358C2 6.83503 6.477 2.35803 12 2.35803C17.523 2.35803 22 6.83503 22 12.358C22 17.881 17.523 22.358 12 22.358Z" fill="black"/>
</svg>
