<svg width="24" height="24" viewBox="0 0 24 24" fill="none" xmlns="http://www.w3.org/2000/svg">
<path d="M12.327 14.49H8.672L8.195 15.796C8.004 16.32 7.369 16.608 6.778 16.438C6.188 16.268 5.863 15.704 6.055 15.18L8.359 8.86803C8.743 7.82003 10.011 7.24403 11.193 7.58403C11.88 7.78203 12.418 8.26003 12.64 8.86803L14.945 15.18C15.136 15.704 14.812 16.268 14.221 16.438C13.631 16.608 12.996 16.32 12.804 15.796L12.327 14.489V14.49ZM11.598 12.492L10.5 9.48403L9.4 12.492H11.597H11.598ZM16 11.5C15.4696 11.5 14.9609 11.2893 14.5858 10.9142C14.2107 10.5392 14 10.0305 14 9.50003C14 8.96959 14.2107 8.46089 14.5858 8.08581C14.9609 7.71074 15.4696 7.50003 16 7.50003C16.5304 7.50003 17.0391 7.71074 17.4142 8.08581C17.7893 8.46089 18 8.96959 18 9.50003C18 10.0305 17.7893 10.5392 17.4142 10.9142C17.0391 11.2893 16.5304 11.5 16 11.5Z" fill="black"/>
</svg>
