<svg width="24" height="24" viewBox="0 0 24 24" fill="none" xmlns="http://www.w3.org/2000/svg">
<path d="M13.932 11.482C14.022 11.8211 14.0215 12.1779 13.9303 12.5167C13.8391 12.8555 13.6605 13.1644 13.4124 13.4124C13.1644 13.6605 12.8555 13.8391 12.5167 13.9303C12.1779 14.0215 11.8211 14.022 11.482 13.932L8.464 16.95C8.37175 17.0455 8.26141 17.1217 8.1394 17.1741C8.0174 17.2265 7.88618 17.2541 7.7534 17.2552C7.62062 17.2564 7.48894 17.2311 7.36605 17.1808C7.24315 17.1305 7.1315 17.0563 7.0376 16.9624C6.94371 16.8685 6.86946 16.7569 6.81918 16.634C6.7689 16.5111 6.7436 16.3794 6.74475 16.2466C6.7459 16.1138 6.77349 15.9826 6.8259 15.8606C6.87831 15.7386 6.95449 15.6282 7.05 15.536L10.068 12.518C9.97795 12.1789 9.97855 11.8221 10.0697 11.4833C10.1609 11.1445 10.3395 10.8356 10.5876 10.5876C10.8356 10.3395 11.1445 10.1609 11.4833 10.0697C11.8221 9.97855 12.1789 9.97795 12.518 10.068L15.536 7.05C15.7246 6.86784 15.9772 6.76705 16.2394 6.76933C16.5016 6.7716 16.7524 6.87677 16.9378 7.06218C17.1232 7.24759 17.2284 7.4984 17.2307 7.7606C17.233 8.0228 17.1322 8.2754 16.95 8.464L13.932 11.482ZM12 22C6.477 22 2 17.523 2 12C2 6.477 6.477 2 12 2C17.523 2 22 6.477 22 12C22 17.523 17.523 22 12 22ZM12 20C14.1217 20 16.1566 19.1571 17.6569 17.6569C19.1571 16.1566 20 14.1217 20 12C20 9.87827 19.1571 7.84344 17.6569 6.34315C16.1566 4.84285 14.1217 4 12 4C9.87827 4 7.84344 4.84285 6.34315 6.34315C4.84285 7.84344 4 9.87827 4 12C4 14.1217 4.84285 16.1566 6.34315 17.6569C7.84344 19.1571 9.87827 20 12 20Z" fill="black"/>
</svg>
