<svg width="24" height="24" viewBox="0 0 24 24" fill="none" xmlns="http://www.w3.org/2000/svg">
<path d="M13.932 11.482L16.95 8.464C17.0455 8.37175 17.1217 8.26141 17.1741 8.1394C17.2265 8.0174 17.2541 7.88618 17.2552 7.7534C17.2564 7.62062 17.2311 7.48894 17.1808 7.36605C17.1305 7.24315 17.0563 7.1315 16.9624 7.0376C16.8685 6.94371 16.7569 6.86946 16.634 6.81918C16.5111 6.7689 16.3794 6.7436 16.2466 6.74475C16.1138 6.7459 15.9826 6.77349 15.8606 6.8259C15.7386 6.87831 15.6282 6.95449 15.536 7.05L12.518 10.068C12.1789 9.97795 11.8221 9.97855 11.4833 10.0697C11.1445 10.1609 10.8356 10.3395 10.5876 10.5876C10.3395 10.8356 10.1609 11.1445 10.0697 11.4833C9.97855 11.8221 9.97795 12.1789 10.068 12.518L7.05 15.536C6.86784 15.7246 6.76705 15.9772 6.76933 16.2394C6.7716 16.5016 6.87677 16.7524 7.06218 16.9378C7.24759 17.1232 7.4984 17.2284 7.7606 17.2307C8.0228 17.233 8.2754 17.1322 8.464 16.95L11.482 13.932C11.8211 14.022 12.1779 14.0215 12.5167 13.9303C12.8555 13.8391 13.1644 13.6605 13.4124 13.4124C13.6605 13.1644 13.8391 12.8555 13.9303 12.5167C14.0215 12.1779 14.022 11.8211 13.932 11.482ZM12 22C6.477 22 2 17.523 2 12C2 6.477 6.477 2 12 2C17.523 2 22 6.477 22 12C22 17.523 17.523 22 12 22Z" fill="black"/>
</svg>
