<svg width="24" height="24" viewBox="0 0 24 24" fill="none" xmlns="http://www.w3.org/2000/svg">
<path d="M4.049 5.802L7.854 9.15L11.244 4.976C11.3389 4.85931 11.459 4.76554 11.5951 4.70167C11.7313 4.6378 11.8802 4.60548 12.0306 4.60711C12.181 4.60875 12.3291 4.6443 12.4639 4.71111C12.5987 4.77792 12.7166 4.87428 12.809 4.993L16.044 9.149L19.972 5.753C20.1262 5.61991 20.3175 5.53711 20.5201 5.51568C20.7227 5.49425 20.927 5.53522 21.1057 5.6331C21.2844 5.73098 21.4289 5.8811 21.5199 6.06336C21.6109 6.24563 21.6441 6.45136 21.615 6.653L20.115 17H3.922L2.399 6.7C2.36874 6.49724 2.40154 6.29007 2.49295 6.10657C2.58435 5.92307 2.72995 5.77209 2.91002 5.67409C3.09008 5.57609 3.29592 5.5358 3.49965 5.55868C3.70338 5.58156 3.89515 5.6665 4.049 5.802ZM4 18H20V19C20 19.2652 19.8946 19.5196 19.7071 19.7071C19.5196 19.8946 19.2652 20 19 20H5C4.73478 20 4.48042 19.8946 4.29289 19.7071C4.10535 19.5196 4 19.2652 4 19V18Z" fill="black"/>
</svg>
