<svg width="24" height="24" viewBox="0 0 24 24" fill="none" xmlns="http://www.w3.org/2000/svg">
<path d="M5.30301 19.238L13.369 11.173L14.263 11.223C15.328 11.284 16.632 10.738 17.678 9.69298C19.314 8.05598 19.612 5.96998 18.738 5.09598C17.865 4.22298 15.778 4.52098 14.142 6.15598C13.096 7.20298 12.55 8.50598 12.611 9.57198L12.661 10.466L4.59601 18.531C4.50493 18.6253 4.45453 18.7516 4.45567 18.8827C4.45681 19.0138 4.50939 19.1392 4.6021 19.2319C4.6948 19.3246 4.82021 19.3772 4.95131 19.3783C5.0824 19.3795 5.20871 19.3291 5.30301 19.238ZM6.71801 20.653C6.2491 21.1219 5.61313 21.3853 4.95001 21.3853C4.28688 21.3853 3.65091 21.1219 3.18201 20.653C2.7131 20.1841 2.44968 19.5481 2.44968 18.885C2.44968 18.2219 2.7131 17.5859 3.18201 17.117L10.614 9.68498C10.522 8.07098 11.257 6.21398 12.728 4.74298C15.071 2.39898 18.395 1.92498 20.153 3.68198C21.91 5.43898 21.435 8.76298 19.092 11.107C17.621 12.577 15.763 13.312 14.149 13.221L6.71801 20.653Z" fill="black"/>
</svg>
