<svg width="24" height="24" viewBox="0 0 24 24" fill="none" xmlns="http://www.w3.org/2000/svg">
<path d="M2.83199 19.065C2.2814 17.8034 1.99812 16.4415 1.99999 15.065C1.99999 9.542 6.47699 5.065 12 5.065C17.523 5.065 22 9.542 22 15.065C22.0019 16.4415 21.7186 17.8034 21.168 19.065H2.83199ZM12 10.065C12.2652 10.065 12.5196 9.95965 12.7071 9.77211C12.8946 9.58457 13 9.33022 13 9.065C13 8.79979 12.8946 8.54543 12.7071 8.3579C12.5196 8.17036 12.2652 8.065 12 8.065C11.7348 8.065 11.4804 8.17036 11.2929 8.3579C11.1054 8.54543 11 8.79979 11 9.065C11 9.33022 11.1054 9.58457 11.2929 9.77211C11.4804 9.95965 11.7348 10.065 12 10.065ZM6.99999 14.065C7.26521 14.065 7.51956 13.9596 7.7071 13.7721C7.89464 13.5846 7.99999 13.3302 7.99999 13.065C7.99999 12.7998 7.89464 12.5454 7.7071 12.3579C7.51956 12.1704 7.26521 12.065 6.99999 12.065C6.73478 12.065 6.48042 12.1704 6.29289 12.3579C6.10535 12.5454 5.99999 12.7998 5.99999 13.065C5.99999 13.3302 6.10535 13.5846 6.29289 13.7721C6.48042 13.9596 6.73478 14.065 6.99999 14.065ZM17 14.065C17.2652 14.065 17.5196 13.9596 17.7071 13.7721C17.8946 13.5846 18 13.3302 18 13.065C18 12.7998 17.8946 12.5454 17.7071 12.3579C17.5196 12.1704 17.2652 12.065 17 12.065C16.7348 12.065 16.4804 12.1704 16.2929 12.3579C16.1054 12.5454 16 12.7998 16 13.065C16 13.3302 16.1054 13.5846 16.2929 13.7721C16.4804 13.9596 16.7348 14.065 17 14.065ZM12 11.065C11.7348 11.065 11.4804 11.1704 11.2929 11.3579C11.1054 11.5454 11 11.7998 11 12.065V15.065C11 15.3302 11.1054 15.5846 11.2929 15.7721C11.4804 15.9596 11.7348 16.065 12 16.065C12.2652 16.065 12.5196 15.9596 12.7071 15.7721C12.8946 15.5846 13 15.3302 13 15.065V12.065C13 11.7998 12.8946 11.5454 12.7071 11.3579C12.5196 11.1704 12.2652 11.065 12 11.065Z" fill="black"/>
</svg>
