<svg width="24" height="24" viewBox="0 0 24 24" fill="none" xmlns="http://www.w3.org/2000/svg">
<path d="M2 16.286H5.64V17.348H2V16.286ZM2 14.905H5.64V15.967H2V14.905ZM2 13.525H5.64V14.587H2V13.525ZM2 12.145H5.64V13.207H2V12.145ZM2 10.764H5.64V11.826H2V10.764ZM6.082 16.286H9.723V17.348H6.082V16.286ZM6.082 14.905H9.723V15.967H6.082V14.905ZM6.082 13.525H9.723V14.587H6.082V13.525ZM10.164 16.286H13.805V17.348H10.164V16.286ZM10.164 14.905H13.805V15.967H10.164V14.905ZM10.164 13.525H13.805V14.587H10.164V13.525ZM10.164 12.145H13.805V13.207H10.164V12.145ZM10.164 10.764H13.805V11.826H10.164V10.764ZM10.164 9.38401H13.805V10.446H10.164V9.38401ZM10.164 8.00301H13.805V9.06501H10.164V8.00301ZM14.246 16.286H17.887V17.348H14.246V16.286ZM14.246 14.905H17.887V15.967H14.246V14.905ZM14.246 13.525H17.887V14.587H14.246V13.525ZM14.246 12.145H17.887V13.207H14.246V12.145ZM14.246 10.764H17.887V11.826H14.246V10.764ZM18.328 16.286H21.969V17.348H18.328V16.286ZM18.328 14.905H21.969V15.967H18.328V14.905ZM18.328 13.525H21.969V14.587H18.328V13.525ZM18.328 12.145H21.969V13.207H18.328V12.145ZM18.328 10.764H21.969V11.826H18.328V10.764ZM18.328 9.38401H21.969V10.446H18.328V9.38401ZM18.328 8.00301H21.969V9.06501H18.328V8.00301ZM18.328 6.62201H21.969V7.68401H18.328V6.62201Z" fill="black"/>
</svg>
