<svg width="24" height="24" viewBox="0 0 24 24" fill="none" xmlns="http://www.w3.org/2000/svg">
<path d="M7 14.111H8.82V15.111H7V14.111Z" fill="black"/>
<path d="M7 13.421H8.82V14.421H7V13.421Z" fill="black"/>
<path d="M7 12.731H8.82V13.731H7V12.731Z" fill="black"/>
<path d="M7 12.041H8.82V13.041H7V12.041Z" fill="black"/>
<path d="M7 11.351H8.82V12.351H7V11.351ZM9.041 14.111H10.861V15.111H9.041V14.111Z" fill="black"/>
<path d="M9.041 13.421H10.861V14.421H9.041V13.421Z" fill="black"/>
<path d="M9.041 12.731H10.861V13.731H9.041V12.731ZM11.082 14.111H12.902V15.111H11.082V14.111Z" fill="black"/>
<path d="M11.082 13.421H12.902V14.421H11.082V13.421Z" fill="black"/>
<path d="M11.082 12.731H12.902V13.731H11.082V12.731Z" fill="black"/>
<path d="M11.082 12.041H12.902V13.041H11.082V12.041Z" fill="black"/>
<path d="M11.082 11.351H12.902V12.351H11.082V11.351Z" fill="black"/>
<path d="M11.082 10.66H12.902V11.66H11.082V10.66Z" fill="black"/>
<path d="M11.082 9.96997H12.902V10.97H11.082V9.96997ZM13.123 14.111H14.944V15.111H13.123V14.111Z" fill="black"/>
<path d="M13.123 13.421H14.944V14.421H13.123V13.421Z" fill="black"/>
<path d="M13.123 12.731H14.944V13.731H13.123V12.731Z" fill="black"/>
<path d="M13.123 12.041H14.944V13.041H13.123V12.041Z" fill="black"/>
<path d="M13.123 11.351H14.944V12.351H13.123V11.351ZM15.164 14.111H16.984V15.111H15.164V14.111Z" fill="black"/>
<path d="M15.164 13.421H16.984V14.421H15.164V13.421Z" fill="black"/>
<path d="M15.164 12.731H16.984V13.731H15.164V12.731Z" fill="black"/>
<path d="M15.164 12.041H16.984V13.041H15.164V12.041Z" fill="black"/>
<path d="M15.164 11.35H16.984V12.35H15.164V11.35Z" fill="black"/>
<path d="M15.164 10.66H16.984V11.66H15.164V10.66Z" fill="black"/>
<path d="M15.164 9.96997H16.984V10.97H15.164V9.96997Z" fill="black"/>
<path d="M15.164 9.28003H16.984V10.28H15.164V9.28003Z" fill="black"/>
<path d="M6 4C5.46957 4 4.96086 4.21071 4.58579 4.58579C4.21071 4.96086 4 5.46957 4 6V18C4 18.5304 4.21071 19.0391 4.58579 19.4142C4.96086 19.7893 5.46957 20 6 20H18C18.5304 20 19.0391 19.7893 19.4142 19.4142C19.7893 19.0391 20 18.5304 20 18V6C20 5.46957 19.7893 4.96086 19.4142 4.58579C19.0391 4.21071 18.5304 4 18 4H6ZM6 2H18C19.0609 2 20.0783 2.42143 20.8284 3.17157C21.5786 3.92172 22 4.93913 22 6V18C22 19.0609 21.5786 20.0783 20.8284 20.8284C20.0783 21.5786 19.0609 22 18 22H6C4.93913 22 3.92172 21.5786 3.17157 20.8284C2.42143 20.0783 2 19.0609 2 18V6C2 4.93913 2.42143 3.92172 3.17157 3.17157C3.92172 2.42143 4.93913 2 6 2V2Z" fill="black"/>
</svg>
