<svg width="24" height="24" viewBox="0 0 24 24" fill="none" xmlns="http://www.w3.org/2000/svg">
<path d="M12 20C14.1217 20 16.1566 19.1571 17.6569 17.6569C19.1571 16.1566 20 14.1217 20 12C20 9.87827 19.1571 7.84344 17.6569 6.34315C16.1566 4.84285 14.1217 4 12 4C9.87827 4 7.84344 4.84285 6.34315 6.34315C4.84285 7.84344 4 9.87827 4 12C4 14.1217 4.84285 16.1566 6.34315 17.6569C7.84344 19.1571 9.87827 20 12 20ZM12 22C6.477 22 2 17.523 2 12C2 6.477 6.477 2 12 2C17.523 2 22 6.477 22 12C22 17.523 17.523 22 12 22Z" fill="black"/>
<path d="M15.254 7.01001H13.182L12.328 8.61801C12.2761 8.71432 12.199 8.7947 12.1049 8.85054C12.0109 8.90638 11.9034 8.93558 11.794 8.93501H8.76999V11.488H10.407C10.589 11.488 10.706 11.675 10.622 11.832L8.76999 15.32V17.01H10.839L11.692 15.403C11.744 15.3069 11.8212 15.2267 11.9152 15.1711C12.0093 15.1154 12.1167 15.0863 12.226 15.087H15.256V12.533H13.614C13.5731 12.5339 13.5327 12.5242 13.4967 12.5047C13.4607 12.4853 13.4304 12.4568 13.4087 12.4221C13.387 12.3875 13.3747 12.3477 13.373 12.3069C13.3713 12.266 13.3803 12.2254 13.399 12.189L15.255 8.69401V7.01101L15.254 7.01001Z" fill="black"/>
</svg>
