<svg width="24" height="24" viewBox="0 0 24 24" fill="none" xmlns="http://www.w3.org/2000/svg">
<path d="M15.254 7.01001H13.182L12.328 8.61801C12.2761 8.71432 12.199 8.7947 12.1049 8.85054C12.0109 8.90638 11.9034 8.93558 11.794 8.93501H8.76999V11.488H10.407C10.589 11.488 10.706 11.675 10.622 11.832L8.76999 15.32V17.01H10.839L11.692 15.403C11.744 15.3069 11.8212 15.2267 11.9152 15.1711C12.0093 15.1154 12.1167 15.0863 12.226 15.087H15.256V12.533H13.614C13.5731 12.5339 13.5327 12.5242 13.4967 12.5047C13.4607 12.4853 13.4304 12.4568 13.4087 12.4221C13.387 12.3875 13.3747 12.3477 13.373 12.3069C13.3713 12.266 13.3803 12.2254 13.399 12.189L15.255 8.69401V7.01101L15.254 7.01001Z" fill="black"/>
<path d="M6 4C5.46957 4 4.96086 4.21071 4.58579 4.58579C4.21071 4.96086 4 5.46957 4 6V18C4 18.5304 4.21071 19.0391 4.58579 19.4142C4.96086 19.7893 5.46957 20 6 20H18C18.5304 20 19.0391 19.7893 19.4142 19.4142C19.7893 19.0391 20 18.5304 20 18V6C20 5.46957 19.7893 4.96086 19.4142 4.58579C19.0391 4.21071 18.5304 4 18 4H6ZM6 2H18C19.0609 2 20.0783 2.42143 20.8284 3.17157C21.5786 3.92172 22 4.93913 22 6V18C22 19.0609 21.5786 20.0783 20.8284 20.8284C20.0783 21.5786 19.0609 22 18 22H6C4.93913 22 3.92172 21.5786 3.17157 20.8284C2.42143 20.0783 2 19.0609 2 18V6C2 4.93913 2.42143 3.92172 3.17157 3.17157C3.92172 2.42143 4.93913 2 6 2V2Z" fill="black"/>
</svg>
