<svg width="24" height="24" viewBox="0 0 24 24" fill="none" xmlns="http://www.w3.org/2000/svg">
<path d="M18.485 2H14.346L12.641 5.211C12.5372 5.4029 12.3831 5.56297 12.1954 5.67411C12.0076 5.78525 11.7932 5.84328 11.575 5.842H5.533V10.942H8.803C9.165 10.942 9.399 11.315 9.233 11.628L5.533 18.595V21.97H9.664L11.37 18.76C11.4737 18.5679 11.6277 18.4076 11.8154 18.2963C12.0032 18.185 12.2177 18.1268 12.436 18.128H18.485V13.028H15.207C15.1254 13.0299 15.0447 13.0106 14.9728 12.9719C14.9009 12.9332 14.8403 12.8765 14.7969 12.8073C14.7536 12.7381 14.7289 12.6588 14.7254 12.5773C14.7219 12.4957 14.7397 12.4146 14.777 12.342L18.485 5.362V2Z" fill="black"/>
</svg>
