<svg width="24" height="24" viewBox="0 0 24 24" fill="none" xmlns="http://www.w3.org/2000/svg">
<g clip-path="url(#clip0_201_31183)">
<path d="M19.2 0C20.473 0 21.6939 0.505713 22.5941 1.40589C23.4943 2.30606 24 3.52696 24 4.8V19.2C24 20.473 23.4943 21.6939 22.5941 22.5941C21.6939 23.4943 20.473 24 19.2 24H4.8C3.52696 24 2.30606 23.4943 1.40589 22.5941C0.505713 21.6939 0 20.473 0 19.2V4.8C0 3.52696 0.505713 2.30606 1.40589 1.40589C2.30606 0.505713 3.52696 0 4.8 0L19.2 0ZM19.2 2.4H4.8C4.19451 2.39981 3.61132 2.62849 3.16734 3.0402C2.72336 3.45191 2.45141 4.01621 2.406 4.62L2.4 4.8V19.2C2.39981 19.8055 2.62849 20.3887 3.0402 20.8327C3.45191 21.2766 4.01621 21.5486 4.62 21.594L4.8 21.6H19.2C19.8055 21.6002 20.3887 21.3715 20.8327 20.9598C21.2766 20.5481 21.5486 19.9838 21.594 19.38L21.6 19.2V4.8C21.6002 4.19451 21.3715 3.61132 20.9598 3.16734C20.5481 2.72336 19.9838 2.45141 19.38 2.406L19.2 2.4ZM18 15.6C18.6365 15.6 19.247 15.8529 19.6971 16.3029C20.1471 16.753 20.4 17.3635 20.4 18C20.4 18.6365 20.1471 19.247 19.6971 19.6971C19.247 20.1471 18.6365 20.4 18 20.4C17.3635 20.4 16.753 20.1471 16.3029 19.6971C15.8529 19.247 15.6 18.6365 15.6 18C15.6 17.3635 15.8529 16.753 16.3029 16.3029C16.753 15.8529 17.3635 15.6 18 15.6ZM12 9.6C12.6365 9.6 13.247 9.85286 13.6971 10.3029C14.1471 10.753 14.4 11.3635 14.4 12C14.4 12.6365 14.1471 13.247 13.6971 13.6971C13.247 14.1471 12.6365 14.4 12 14.4C11.3635 14.4 10.753 14.1471 10.3029 13.6971C9.85286 13.247 9.6 12.6365 9.6 12C9.6 11.3635 9.85286 10.753 10.3029 10.3029C10.753 9.85286 11.3635 9.6 12 9.6ZM6 3.6C6.63652 3.6 7.24697 3.85286 7.69706 4.30294C8.14714 4.75303 8.4 5.36348 8.4 6C8.4 6.63652 8.14714 7.24697 7.69706 7.69706C7.24697 8.14714 6.63652 8.4 6 8.4C5.36348 8.4 4.75303 8.14714 4.30294 7.69706C3.85286 7.24697 3.6 6.63652 3.6 6C3.6 5.36348 3.85286 4.75303 4.30294 4.30294C4.75303 3.85286 5.36348 3.6 6 3.6Z" fill="black"/>
</g>
<defs>
<clipPath id="clip0_201_31183">
<rect width="24" height="24" fill="white"/>
</clipPath>
</defs>
</svg>
