<svg width="24" height="24" viewBox="0 0 24 24" fill="none" xmlns="http://www.w3.org/2000/svg">
<g clip-path="url(#clip0_201_31187)">
<path d="M13.2 0C14.1548 0 15.0705 0.379285 15.7456 1.05442C16.4207 1.72955 16.8 2.64522 16.8 3.6V7.2H20.4C21.3548 7.2 22.2705 7.57929 22.9456 8.25442C23.6207 8.92955 24 9.84522 24 10.8V20.4C24 21.3548 23.6207 22.2705 22.9456 22.9456C22.2705 23.6207 21.3548 24 20.4 24H10.8C9.84522 24 8.92955 23.6207 8.25442 22.9456C7.57929 22.2705 7.2 21.3548 7.2 20.4V16.8H3.6C2.64522 16.8 1.72955 16.4207 1.05442 15.7456C0.379285 15.0705 0 14.1548 0 13.2L0 3.6C0 2.64522 0.379285 1.72955 1.05442 1.05442C1.72955 0.379285 2.64522 0 3.6 0L13.2 0ZM20.4 9.6H10.8C10.5061 9.60004 10.2224 9.70795 10.0028 9.90326C9.78311 10.0986 9.64279 10.3677 9.6084 10.6596L9.6 10.8V20.4C9.60004 20.6939 9.70795 20.9776 9.90326 21.1972C10.0986 21.4169 10.3677 21.5572 10.6596 21.5916L10.8 21.6H20.4C20.6939 21.6 20.9776 21.4921 21.1972 21.2967C21.4169 21.1014 21.5572 20.8323 21.5916 20.5404L21.6 20.4V10.8C21.6 10.5061 21.4921 10.2224 21.2967 10.0028C21.1014 9.78311 20.8323 9.64279 20.5404 9.6084L20.4 9.6ZM12 18C12.3183 18 12.6235 18.1264 12.8485 18.3515C13.0736 18.5765 13.2 18.8817 13.2 19.2C13.2 19.5183 13.0736 19.8235 12.8485 20.0485C12.6235 20.2736 12.3183 20.4 12 20.4C11.6817 20.4 11.3765 20.2736 11.1515 20.0485C10.9264 19.8235 10.8 19.5183 10.8 19.2C10.8 18.8817 10.9264 18.5765 11.1515 18.3515C11.3765 18.1264 11.6817 18 12 18ZM19.2 18C19.5183 18 19.8235 18.1264 20.0485 18.3515C20.2736 18.5765 20.4 18.8817 20.4 19.2C20.4 19.5183 20.2736 19.8235 20.0485 20.0485C19.8235 20.2736 19.5183 20.4 19.2 20.4C18.8817 20.4 18.5765 20.2736 18.3515 20.0485C18.1264 19.8235 18 19.5183 18 19.2C18 18.8817 18.1264 18.5765 18.3515 18.3515C18.5765 18.1264 18.8817 18 19.2 18ZM15.6 14.4C15.9183 14.4 16.2235 14.5264 16.4485 14.7515C16.6736 14.9765 16.8 15.2817 16.8 15.6C16.8 15.9183 16.6736 16.2235 16.4485 16.4485C16.2235 16.6736 15.9183 16.8 15.6 16.8C15.2817 16.8 14.9765 16.6736 14.7515 16.4485C14.5264 16.2235 14.4 15.9183 14.4 15.6C14.4 15.2817 14.5264 14.9765 14.7515 14.7515C14.9765 14.5264 15.2817 14.4 15.6 14.4ZM13.3404 2.4084L13.2 2.4H3.6C3.30608 2.40004 3.0224 2.50795 2.80275 2.70326C2.58311 2.89857 2.44279 3.1677 2.4084 3.4596L2.4 3.6V13.2C2.40004 13.4939 2.50795 13.7776 2.70326 13.9972C2.89857 14.2169 3.1677 14.3572 3.4596 14.3916L3.6 14.4H7.2V10.8C7.2 9.84522 7.57929 8.92955 8.25442 8.25442C8.92955 7.57929 9.84522 7.2 10.8 7.2H14.4V3.6C14.4 3.30608 14.2921 3.0224 14.0967 2.80275C13.9014 2.58311 13.6323 2.44279 13.3404 2.4084ZM12 10.8C12.3183 10.8 12.6235 10.9264 12.8485 11.1515C13.0736 11.3765 13.2 11.6817 13.2 12C13.2 12.3183 13.0736 12.6235 12.8485 12.8485C12.6235 13.0736 12.3183 13.2 12 13.2C11.6817 13.2 11.3765 13.0736 11.1515 12.8485C10.9264 12.6235 10.8 12.3183 10.8 12C10.8 11.6817 10.9264 11.3765 11.1515 11.1515C11.3765 10.9264 11.6817 10.8 12 10.8ZM19.2 10.8C19.5183 10.8 19.8235 10.9264 20.0485 11.1515C20.2736 11.3765 20.4 11.6817 20.4 12C20.4 12.3183 20.2736 12.6235 20.0485 12.8485C19.8235 13.0736 19.5183 13.2 19.2 13.2C18.8817 13.2 18.5765 13.0736 18.3515 12.8485C18.1264 12.6235 18 12.3183 18 12C18 11.6817 18.1264 11.3765 18.3515 11.1515C18.5765 10.9264 18.8817 10.8 19.2 10.8ZM5.4156 10.7916C5.73386 10.7916 6.03908 10.918 6.26413 11.1431C6.48917 11.3681 6.6156 11.6733 6.6156 11.9916C6.6156 12.3099 6.48917 12.6151 6.26413 12.8401C6.03908 13.0652 5.73386 13.1916 5.4156 13.1916C5.09734 13.1916 4.79212 13.0652 4.56707 12.8401C4.34203 12.6151 4.2156 12.3099 4.2156 11.9916C4.2156 11.6733 4.34203 11.3681 4.56707 11.1431C4.79212 10.918 5.09734 10.7916 5.4156 10.7916ZM5.4156 7.1916C5.73386 7.1916 6.03908 7.31803 6.26413 7.54307C6.48917 7.76812 6.6156 8.07334 6.6156 8.3916C6.6156 8.70986 6.48917 9.01508 6.26413 9.24013C6.03908 9.46517 5.73386 9.5916 5.4156 9.5916C5.09734 9.5916 4.79212 9.46517 4.56707 9.24013C4.34203 9.01508 4.2156 8.70986 4.2156 8.3916C4.2156 8.07334 4.34203 7.76812 4.56707 7.54307C4.79212 7.31803 5.09734 7.1916 5.4156 7.1916ZM5.4156 3.5916C5.73386 3.5916 6.03908 3.71803 6.26413 3.94307C6.48917 4.16812 6.6156 4.47334 6.6156 4.7916C6.6156 5.10986 6.48917 5.41508 6.26413 5.64013C6.03908 5.86517 5.73386 5.9916 5.4156 5.9916C5.09734 5.9916 4.79212 5.86517 4.56707 5.64013C4.34203 5.41508 4.2156 5.10986 4.2156 4.7916C4.2156 4.47334 4.34203 4.16812 4.56707 3.94307C4.79212 3.71803 5.09734 3.5916 5.4156 3.5916ZM11.4156 3.5916C11.7339 3.5916 12.0391 3.71803 12.2641 3.94307C12.4892 4.16812 12.6156 4.47334 12.6156 4.7916C12.6156 5.10986 12.4892 5.41508 12.2641 5.64013C12.0391 5.86517 11.7339 5.9916 11.4156 5.9916C11.0973 5.9916 10.7921 5.86517 10.5671 5.64013C10.342 5.41508 10.2156 5.10986 10.2156 4.7916C10.2156 4.47334 10.342 4.16812 10.5671 3.94307C10.7921 3.71803 11.0973 3.5916 11.4156 3.5916Z" fill="black"/>
</g>
<defs>
<clipPath id="clip0_201_31187">
<rect width="24" height="24" fill="white"/>
</clipPath>
</defs>
</svg>
