<svg width="24" height="24" viewBox="0 0 24 24" fill="none" xmlns="http://www.w3.org/2000/svg">
<g clip-path="url(#clip0_201_31189)">
<path d="M12 1.15543C13.2803 0.289297 14.6932 -0.100196 16.1072 0.0231804C17.5212 0.146557 18.8903 0.778796 20.0874 1.86109C21.2844 2.94338 22.2704 4.44057 22.9536 6.2134C23.6368 7.98623 23.9951 9.97711 23.9951 12.0009C23.9951 14.0246 23.6368 16.0155 22.9536 17.7883C22.2704 19.5611 21.2844 21.0583 20.0874 22.1406C18.8903 23.2229 17.5212 23.8552 16.1072 23.9785C14.6932 24.1019 13.2803 23.7124 12 22.8463C10.7197 23.712 9.3069 24.1012 7.89304 23.9776C6.47918 23.854 5.11016 23.2216 3.9133 22.1392C2.71645 21.0569 1.73062 19.5597 1.04751 17.787C0.3644 16.0143 0.00618744 14.0236 0.00618744 12C0.00618744 9.97642 0.3644 7.98571 1.04751 6.21299C1.73062 4.44026 2.71645 2.94311 3.9133 1.86077C5.11016 0.778422 6.47918 0.146034 7.89304 0.0224149C9.3069 -0.101204 10.7197 0.28796 12 1.15372V1.15543ZM12 5.14286C11.2543 5.94052 10.649 6.97566 10.2324 8.16602C9.81579 9.35638 9.59925 10.6691 9.6 12C9.6 14.8046 10.5432 17.2937 12 18.8571C12.7457 18.0595 13.351 17.0243 13.7676 15.834C14.1842 14.6436 14.4007 13.3309 14.4 12C14.4007 10.6691 14.1842 9.35638 13.7676 8.16602C13.351 6.97566 12.7457 5.94052 12 5.14286Z" fill="black"/>
</g>
<defs>
<clipPath id="clip0_201_31189">
<rect width="24" height="24" fill="white"/>
</clipPath>
</defs>
</svg>
