<svg width="24" height="24" viewBox="0 0 24 24" fill="none" xmlns="http://www.w3.org/2000/svg">
<g clip-path="url(#clip0_201_31205)">
<path d="M20.6 0C22.0907 0 23.308 1.0812 23.3333 2.43V24L20.4667 21.72L18.8533 20.376L17.1467 18.948L17.8533 21.168H2.73333C2.01467 21.1665 1.32544 20.9109 0.814158 20.4564C0.302879 20.0019 0.0104895 19.3847 0 18.738L0 2.472C0 1.1184 1.20133 0.0228 2.68667 0H20.6ZM9.76 5.736L9.62667 5.592H9.55067C9.18667 5.6028 7.56933 5.712 5.88 6.852L5.816 6.9624C5.48133 7.5504 3.96 10.4088 3.96 13.848L3.98667 13.8876C4.176 14.148 5.34533 15.5952 8.02667 15.672L8.42 15.2388L8.92 14.676C7.36533 14.2572 6.69867 13.4148 6.6 13.2792L6.58667 13.26L6.64133 13.2924C6.70133 13.3284 6.81067 13.3884 6.96 13.464C6.97333 13.476 6.98667 13.488 7.01333 13.5C7.05333 13.524 7.09333 13.536 7.13333 13.56C7.46667 13.728 7.8 13.86 8.10667 13.968C8.65333 14.16 9.30667 14.352 10.0667 14.484C11.0387 14.6472 12.1733 14.7084 13.4107 14.514L13.52 14.496C14.1467 14.4 14.7867 14.232 15.4533 13.98C15.92 13.824 16.44 13.596 16.9867 13.272L16.9653 13.302C16.8373 13.47 16.1387 14.3016 14.5733 14.7L14.7933 14.9484C15.1307 15.3252 15.4533 15.672 15.4533 15.672C18.4 15.588 19.5333 13.848 19.5333 13.848C19.5333 9.984 17.6133 6.852 17.6133 6.852C15.9627 5.7372 14.38 5.6076 13.9693 5.5932L13.8667 5.592L13.68 5.784C15.6907 6.3372 16.7467 7.1076 16.96 7.2756L17 7.308C14.9569 6.2939 12.6055 5.89841 10.2933 6.18C10.2133 6.18 10.1467 6.192 10.0667 6.204L9.992 6.21C9.48533 6.2568 8.396 6.4248 7.04 6.96L6.84667 7.0416C6.604 7.1448 6.428 7.2252 6.33333 7.2696L6.25333 7.308C6.25333 7.308 7.33733 6.3792 9.688 5.7552L9.76 5.736ZM9.25333 10.068C10.0133 10.068 10.6267 10.668 10.6133 11.4C10.6133 12.132 10.0133 12.732 9.25333 12.732C8.50667 12.732 7.89333 12.132 7.89333 11.4C7.89333 10.668 8.49333 10.068 9.25333 10.068ZM14.12 10.068C14.88 10.068 15.48 10.668 15.48 11.4C15.48 12.132 14.88 12.732 14.12 12.732C13.3733 12.732 12.76 12.132 12.76 11.4C12.76 10.668 13.36 10.068 14.12 10.068Z" fill="black"/>
</g>
<defs>
<clipPath id="clip0_201_31205">
<rect width="24" height="24" fill="white"/>
</clipPath>
</defs>
</svg>
