<svg width="24" height="24" viewBox="0 0 24 24" fill="none" xmlns="http://www.w3.org/2000/svg">
<path d="M12 20C14.1217 20 16.1566 19.1571 17.6569 17.6569C19.1571 16.1566 20 14.1217 20 12C20 9.87827 19.1571 7.84344 17.6569 6.34315C16.1566 4.84285 14.1217 4 12 4C9.87827 4 7.84344 4.84285 6.34315 6.34315C4.84285 7.84344 4 9.87827 4 12C4 14.1217 4.84285 16.1566 6.34315 17.6569C7.84344 19.1571 9.87827 20 12 20ZM12 22C6.477 22 2 17.523 2 12C2 6.477 6.477 2 12 2C17.523 2 22 6.477 22 12C22 17.523 17.523 22 12 22Z" fill="black"/>
<path d="M12.172 16.665C11.0354 16.6682 9.93336 16.2745 9.056 15.552L6.988 15.823L7.785 13.92C7.49837 13.3121 7.35047 12.6481 7.352 11.976C7.352 9.38599 9.511 7.28699 12.171 7.28699C14.835 7.28699 16.991 9.38599 16.991 11.976C16.991 14.566 14.835 16.665 12.171 16.665H12.172ZM12.202 9.47499H10.426V14.476H12.177C13.834 14.476 14.802 13.404 14.802 11.962V11.949C14.802 10.507 13.846 9.47499 12.202 9.47499Z" fill="black"/>
<path d="M13.491 11.979C13.491 12.789 12.985 13.246 12.221 13.246H11.702V10.702H12.221C12.985 10.702 13.491 11.166 13.491 11.966V11.979Z" fill="black"/>
</svg>
