<svg width="24" height="24" viewBox="0 0 24 24" fill="none" xmlns="http://www.w3.org/2000/svg">
<path d="M12.172 16.665C11.0354 16.6682 9.93336 16.2745 9.056 15.552L6.988 15.823L7.785 13.92C7.49837 13.3121 7.35047 12.6481 7.352 11.976C7.352 9.38599 9.511 7.28699 12.171 7.28699C14.835 7.28699 16.991 9.38599 16.991 11.976C16.991 14.566 14.835 16.665 12.171 16.665H12.172ZM12.202 9.47499H10.426V14.476H12.177C13.834 14.476 14.802 13.404 14.802 11.962V11.949C14.802 10.507 13.846 9.47499 12.202 9.47499Z" fill="black"/>
<path d="M13.491 11.979C13.491 12.789 12.985 13.246 12.221 13.246H11.702V10.702H12.221C12.985 10.702 13.491 11.166 13.491 11.966V11.979Z" fill="black"/>
<path d="M6 4C5.46957 4 4.96086 4.21071 4.58579 4.58579C4.21071 4.96086 4 5.46957 4 6V18C4 18.5304 4.21071 19.0391 4.58579 19.4142C4.96086 19.7893 5.46957 20 6 20H18C18.5304 20 19.0391 19.7893 19.4142 19.4142C19.7893 19.0391 20 18.5304 20 18V6C20 5.46957 19.7893 4.96086 19.4142 4.58579C19.0391 4.21071 18.5304 4 18 4H6ZM6 2H18C19.0609 2 20.0783 2.42143 20.8284 3.17157C21.5786 3.92172 22 4.93913 22 6V18C22 19.0609 21.5786 20.0783 20.8284 20.8284C20.0783 21.5786 19.0609 22 18 22H6C4.93913 22 3.92172 21.5786 3.17157 20.8284C2.42143 20.0783 2 19.0609 2 18V6C2 4.93913 2.42143 3.92172 3.17157 3.17157C3.92172 2.42143 4.93913 2 6 2V2Z" fill="black"/>
</svg>
