<svg width="24" height="24" viewBox="0 0 24 24" fill="none" xmlns="http://www.w3.org/2000/svg">
<path d="M8 2H16C17.0609 2 18.0783 2.42143 18.8284 3.17157C19.5786 3.92172 20 4.93913 20 6V18C20 19.0609 19.5786 20.0783 18.8284 20.8284C18.0783 21.5786 17.0609 22 16 22H8C6.93913 22 5.92172 21.5786 5.17157 20.8284C4.42143 20.0783 4 19.0609 4 18V6C4 4.93913 4.42143 3.92172 5.17157 3.17157C5.92172 2.42143 6.93913 2 8 2V2ZM12 19C13.3261 19 14.5979 18.4732 15.5355 17.5355C16.4732 16.5979 17 15.3261 17 14C17 12.6739 16.4732 11.4021 15.5355 10.4645C14.5979 9.52678 13.3261 9 12 9C10.6739 9 9.40215 9.52678 8.46447 10.4645C7.52678 11.4021 7 12.6739 7 14C7 15.3261 7.52678 16.5979 8.46447 17.5355C9.40215 18.4732 10.6739 19 12 19ZM8 5C7.73478 5 7.48043 5.10536 7.29289 5.29289C7.10536 5.48043 7 5.73478 7 6V7C7 7.26522 7.10536 7.51957 7.29289 7.70711C7.48043 7.89464 7.73478 8 8 8H12C12.2652 8 12.5196 7.89464 12.7071 7.70711C12.8946 7.51957 13 7.26522 13 7V6C13 5.73478 12.8946 5.48043 12.7071 5.29289C12.5196 5.10536 12.2652 5 12 5H8ZM15 5C14.7348 5 14.4804 5.10536 14.2929 5.29289C14.1054 5.48043 14 5.73478 14 6V7C14 7.26522 14.1054 7.51957 14.2929 7.70711C14.4804 7.89464 14.7348 8 15 8H16C16.2652 8 16.5196 7.89464 16.7071 7.70711C16.8946 7.51957 17 7.26522 17 7V6C17 5.73478 16.8946 5.48043 16.7071 5.29289C16.5196 5.10536 16.2652 5 16 5H15ZM12 17C11.2044 17 10.4413 16.6839 9.87868 16.1213C9.31607 15.5587 9 14.7956 9 14C9 13.2044 9.31607 12.4413 9.87868 11.8787C10.4413 11.3161 11.2044 11 12 11C12.7956 11 13.5587 11.3161 14.1213 11.8787C14.6839 12.4413 15 13.2044 15 14C15 14.7956 14.6839 15.5587 14.1213 16.1213C13.5587 16.6839 12.7956 17 12 17ZM12 15C12.2652 15 12.5196 14.8946 12.7071 14.7071C12.8946 14.5196 13 14.2652 13 14C13 13.7348 12.8946 13.4804 12.7071 13.2929C12.5196 13.1054 12.2652 13 12 13C11.7348 13 11.4804 13.1054 11.2929 13.2929C11.1054 13.4804 11 13.7348 11 14C11 14.2652 11.1054 14.5196 11.2929 14.7071C11.4804 14.8946 11.7348 15 12 15Z" fill="black"/>
</svg>
