<svg width="24" height="24" viewBox="0 0 24 24" fill="none" xmlns="http://www.w3.org/2000/svg">
<g clip-path="url(#clip0_201_31232)">
<path d="M12 0C5.376 0 0 5.376 0 12C0 18.624 5.376 24 12 24C18.612 24 24 18.624 24 12C24 5.376 18.612 0 12 0ZM19.926 5.532C21.4028 7.33117 22.22 9.58124 22.242 11.9088C21.9048 11.844 18.5208 11.154 15.1104 11.5836C15.0324 11.4144 14.9664 11.232 14.8896 11.0496C14.6773 10.5493 14.4516 10.0547 14.2128 9.5664C17.9868 8.0304 19.7052 5.8176 19.926 5.532ZM12 1.77C14.604 1.77 16.9848 2.7456 18.7944 4.3476C18.612 4.6068 17.0628 6.6768 13.4184 8.0436C11.7396 4.9596 9.8784 2.4336 9.5916 2.0436C10.381 1.85905 11.1893 1.76723 12 1.77ZM7.6404 2.7336C9.01372 4.63718 10.2824 6.6141 11.4408 8.6556C6.6504 9.93 2.4204 9.9036 1.9656 9.9036C2.29539 8.35215 2.97913 6.89786 3.96348 5.65415C4.94783 4.41044 6.20619 3.41094 7.6404 2.7336ZM1.7436 12.012V11.7C2.1876 11.712 7.158 11.778 12.2736 10.242C12.5736 10.8144 12.846 11.4 13.1064 11.9856C12.9756 12.0252 12.8328 12.0636 12.7032 12.1032C7.4184 13.8072 4.6068 18.4668 4.3728 18.858C2.68061 16.9793 1.74436 14.5404 1.7448 12.012H1.7436ZM12 22.2564C9.72172 22.2603 7.508 21.4997 5.7132 20.0964C5.8956 19.7184 7.9788 15.7092 13.7568 13.692C13.7832 13.68 13.7964 13.68 13.8216 13.6656C14.7964 16.1801 15.5289 18.7819 16.0092 21.4356C14.743 21.9805 13.3785 22.2598 12 22.2564ZM17.7132 20.4984C17.61 19.8744 17.0628 16.8804 15.7224 13.1976C18.9372 12.69 21.7488 13.5228 22.0992 13.6404C21.8803 15.0241 21.3777 16.3476 20.623 17.5278C19.8682 18.708 18.8775 19.7194 17.7132 20.4984Z" fill="black"/>
</g>
<defs>
<clipPath id="clip0_201_31232">
<rect width="24" height="24" fill="white"/>
</clipPath>
</defs>
</svg>
