<svg width="24" height="24" viewBox="0 0 24 24" fill="none" xmlns="http://www.w3.org/2000/svg">
<path d="M13.843 15.87C14.4475 16.2571 15.1451 16.4744 15.8625 16.4991C16.58 16.5237 17.2908 16.3549 17.9205 16.0102C18.5502 15.6655 19.0756 15.1578 19.4414 14.5402C19.8073 13.9225 20.0003 13.2179 20 12.5C20 11.262 19.377 9.364 18.42 7.802C17.513 6.322 16.524 5.5 16 5.5C15.476 5.5 14.487 6.322 13.58 7.802C13.2147 8.40195 12.9019 9.03228 12.645 9.686C12.2846 8.9723 11.857 8.29457 11.368 7.662C12.522 5.41 14.26 3.5 16 3.5C19 3.5 22 9.186 22 12.5C22.0002 13.5478 21.7261 14.5773 21.2048 15.4863C20.6836 16.3952 19.9334 17.1517 19.0289 17.6807C18.1245 18.2096 17.0973 18.4925 16.0495 18.5011C15.0018 18.5098 13.9701 18.2439 13.057 17.73C13.417 17.167 13.687 16.54 13.843 15.87ZM8 20.5C6.4087 20.5 4.88258 19.8679 3.75736 18.7426C2.63214 17.6174 2 16.0913 2 14.5C2 11.186 5 5.5 8 5.5C11 5.5 14 11.186 14 14.5C14 16.0913 13.3679 17.6174 12.2426 18.7426C11.1174 19.8679 9.5913 20.5 8 20.5ZM8 18.5C9.06087 18.5 10.0783 18.0786 10.8284 17.3284C11.5786 16.5783 12 15.5609 12 14.5C12 13.262 11.377 11.364 10.42 9.802C9.513 8.322 8.524 7.5 8 7.5C7.476 7.5 6.487 8.322 5.58 9.802C4.623 11.364 4 13.262 4 14.5C4 15.5609 4.42143 16.5783 5.17157 17.3284C5.92172 18.0786 6.93913 18.5 8 18.5Z" fill="black"/>
</svg>
