<svg width="24" height="24" viewBox="0 0 24 24" fill="none" xmlns="http://www.w3.org/2000/svg">
<path d="M6 2H18C19.0609 2 20.0783 2.42143 20.8284 3.17157C21.5786 3.92172 22 4.93913 22 6V18C22 19.0609 21.5786 20.0783 20.8284 20.8284C20.0783 21.5786 19.0609 22 18 22H6C4.93913 22 3.92172 21.5786 3.17157 20.8284C2.42143 20.0783 2 19.0609 2 18V6C2 4.93913 2.42143 3.92172 3.17157 3.17157C3.92172 2.42143 4.93913 2 6 2V2ZM13.746 7.413C13.5913 7.19734 13.3959 7.01392 13.171 6.873C12.206 6.267 10.901 6.508 10.254 7.413L7.356 11.468C7.12536 11.7881 7.00086 12.1725 7 12.567C7 13.656 7.941 14.539 9.102 14.539H14.898C15.315 14.539 15.722 14.423 16.068 14.205C17.033 13.598 17.29 12.373 16.644 11.468L13.746 7.413ZM8 15.54C7.73478 15.54 7.48043 15.6454 7.29289 15.8329C7.10536 16.0204 7 16.2748 7 16.54C7 16.8052 7.10536 17.0596 7.29289 17.2471C7.48043 17.4346 7.73478 17.54 8 17.54H16C16.2652 17.54 16.5196 17.4346 16.7071 17.2471C16.8946 17.0596 17 16.8052 17 16.54C17 16.2748 16.8946 16.0204 16.7071 15.8329C16.5196 15.6454 16.2652 15.54 16 15.54H8ZM9.102 12.568L12 8.512L14.898 12.567H9.102V12.568Z" fill="black"/>
</svg>
