<svg width="24" height="24" viewBox="0 0 24 24" fill="none" xmlns="http://www.w3.org/2000/svg">
<path d="M12 22C6.477 22 2 17.523 2 12C2 6.477 6.477 2 12 2C17.523 2 22 6.477 22 12C22 17.523 17.523 22 12 22ZM12 20C14.1217 20 16.1566 19.1571 17.6569 17.6569C19.1571 16.1566 20 14.1217 20 12C20 9.87827 19.1571 7.84344 17.6569 6.34315C16.1566 4.84285 14.1217 4 12 4C9.87827 4 7.84344 4.84285 6.34315 6.34315C4.84285 7.84344 4 9.87827 4 12C4 14.1217 4.84285 16.1566 6.34315 17.6569C7.84344 19.1571 9.87827 20 12 20ZM13.746 7.413L16.644 11.468C17.29 12.373 17.033 13.598 16.068 14.205C15.7171 14.4241 15.3116 14.5398 14.898 14.539H9.102C7.942 14.539 7 13.656 7 12.567C7 12.176 7.124 11.793 7.356 11.468L10.254 7.413C10.901 6.508 12.206 6.267 13.171 6.873C13.398 7.016 13.593 7.2 13.746 7.413ZM9.102 12.567H14.898L12 8.512L9.102 12.567ZM8 15.539H16C16.2652 15.539 16.5196 15.6444 16.7071 15.8319C16.8946 16.0194 17 16.2738 17 16.539C17 16.8042 16.8946 17.0586 16.7071 17.2461C16.5196 17.4336 16.2652 17.539 16 17.539H8C7.73478 17.539 7.48043 17.4336 7.29289 17.2461C7.10536 17.0586 7 16.8042 7 16.539C7 16.2738 7.10536 16.0194 7.29289 15.8319C7.48043 15.6444 7.73478 15.539 8 15.539Z" fill="black"/>
</svg>
