<svg width="24" height="24" viewBox="0 0 24 24" fill="none" xmlns="http://www.w3.org/2000/svg">
<path d="M4.328 8.86803L11.345 15.121C11.5281 15.2841 11.7648 15.3742 12.01 15.3742C12.2552 15.3742 12.4919 15.2841 12.675 15.121L19.684 8.87503L12.547 4.21003C12.3844 4.10375 12.1943 4.04716 12 4.04716C11.8057 4.04716 11.6156 4.10375 11.453 4.21003L4.328 8.86803ZM20 9.08203V11.272L14.006 16.614C13.4565 17.1038 12.7461 17.3744 12.01 17.3744C11.2739 17.3744 10.5635 17.1038 10.014 16.614L4 11.254V9.08303V20H20V9.08203ZM2.906 7.40803L10.359 2.53603C10.8469 2.21721 11.4172 2.04742 12 2.04742C12.5828 2.04742 13.1531 2.21721 13.641 2.53603L21.094 7.40803C21.3722 7.58981 21.6007 7.83806 21.7589 8.13033C21.9171 8.42261 22 8.74969 22 9.08203V20C22 20.5305 21.7893 21.0392 21.4142 21.4142C21.0391 21.7893 20.5304 22 20 22H4C3.46957 22 2.96086 21.7893 2.58579 21.4142C2.21071 21.0392 2 20.5305 2 20V9.08203C2.00004 8.74969 2.0829 8.42261 2.24109 8.13033C2.39927 7.83806 2.62779 7.58981 2.906 7.40803Z" fill="black"/>
</svg>
