<svg width="24" height="24" viewBox="0 0 24 24" fill="none" xmlns="http://www.w3.org/2000/svg">
<path d="M11.45 6.145C11.2578 6.42338 10.9982 6.64847 10.6954 6.79922C10.3925 6.94996 10.0564 7.02143 9.71845 7.00695C9.38049 6.99246 9.05172 6.89249 8.7629 6.71639C8.47408 6.54029 8.23465 6.2938 8.067 6H6C5.46957 6 4.96086 6.21071 4.58579 6.58578C4.21071 6.96086 4 7.46957 4 8V11C4 11.2652 3.89464 11.5196 3.70711 11.7071C3.51957 11.8946 3.26522 12 3 12C2.73478 12 2.48043 11.8946 2.29289 11.7071C2.10536 11.5196 2 11.2652 2 11V8C2 6.93913 2.42143 5.92172 3.17157 5.17157C3.92172 4.42143 4.93913 4 6 4H8.077C8.24724 3.70825 8.4886 3.46438 8.77857 3.29113C9.06853 3.11787 9.39766 3.02088 9.73524 3.0092C10.0728 2.99751 10.4079 3.07152 10.7091 3.22432C11.0104 3.37712 11.268 3.60372 11.458 3.883C11.4899 3.63149 11.6162 3.4015 11.8112 3.23955C12.0063 3.0776 12.2556 2.99578 12.5087 3.01064C12.7618 3.02551 12.9998 3.13595 13.1745 3.31962C13.3493 3.50329 13.4477 3.74648 13.45 4H14.761L20.722 2.036L20.725 2.038C20.8693 1.9968 21.021 1.9886 21.1689 2.01402C21.3168 2.03944 21.4571 2.09783 21.5794 2.18485C21.7017 2.27186 21.8028 2.38529 21.8752 2.5167C21.9477 2.64812 21.9897 2.79416 21.998 2.944L22 2.945V6.937L21.998 6.938L22 7C22.0001 7.15485 21.9642 7.30761 21.8952 7.44623C21.8262 7.58485 21.7259 7.70555 21.6023 7.79882C21.4787 7.89209 21.3351 7.95538 21.1829 7.98369C21.0306 8.01201 20.8739 8.00458 20.725 7.962L20.722 7.964L14.892 6H13.45V7.009C13.45 7.039 13.449 7.069 13.446 7.099C14.4523 7.31575 15.3538 7.87078 16.0005 8.6716C16.6472 9.47242 17 10.4707 17 11.5V19C17 19.7956 16.6839 20.5587 16.1213 21.1213C15.5587 21.6839 14.7956 22 14 22H11C10.2044 22 9.44129 21.6839 8.87868 21.1213C8.31607 20.5587 8 19.7956 8 19V11.5C8.00023 10.4879 8.3415 9.50538 8.96873 8.71106C9.59595 7.91673 10.4725 7.35693 11.457 7.122C11.4526 7.08449 11.4502 7.04677 11.45 7.009V6.145Z" fill="black"/>
</svg>
