<svg width="24" height="24" viewBox="0 0 24 24" fill="none" xmlns="http://www.w3.org/2000/svg">
<path d="M17.398 9.23002L18.87 7.75802C20.749 8.84202 22 10.34 22 12C22 15.314 17.042 17.993 12 18C10.974 17.9999 9.95075 17.8927 8.947 17.68L10.694 15.934C11.12 15.978 11.556 16.001 11.997 16H11.999C11.584 16 11.184 15.937 10.808 15.82L12.789 13.838C13.259 13.636 13.636 13.259 13.839 12.789L15.819 10.808C16.0054 11.4051 16.0492 12.0377 15.9468 12.6548C15.8444 13.2719 15.5987 13.8564 15.2295 14.3613C14.8602 14.8662 14.3777 15.2775 13.8206 15.5621C13.2636 15.8467 12.6475 15.9967 12.022 16C16.267 15.985 20 13.816 20 12C20 11.057 18.978 10.014 17.398 9.23002ZM8.096 12.875C7.96495 12.2904 7.96688 11.6839 8.10166 11.1001C8.23644 10.5164 8.50063 9.97037 8.87471 9.50241C9.24879 9.03445 9.72321 8.65649 10.2629 8.39646C10.8027 8.13642 11.3939 8.00094 11.993 8.00002C7.775 7.98502 4 10.178 4 12C4 12.896 4.904 13.877 6.327 14.644L4.869 16.1C3.134 15.028 2 13.585 2 12C2 8.68602 6.984 5.98302 12 6.00002C12.914 6.00302 13.827 6.09402 14.709 6.26202L12.932 8.03802C12.642 8.01602 12.348 8.00302 12.052 8.00002C12.334 8.00402 12.609 8.03702 12.875 8.09602L8.095 12.875H8.096ZM21.092 2.70702C21.2795 2.89455 21.3848 3.14886 21.3848 3.41402C21.3848 3.67918 21.2795 3.93349 21.092 4.12102L4.122 21.091C4.02982 21.1866 3.91953 21.2629 3.79756 21.3153C3.6756 21.3678 3.5444 21.3955 3.41162 21.3968C3.27884 21.398 3.14715 21.3728 3.02422 21.3226C2.90129 21.2724 2.78958 21.1982 2.69562 21.1044C2.60167 21.0106 2.52733 20.899 2.47697 20.7761C2.4266 20.6533 2.4012 20.5216 2.40226 20.3888C2.40332 20.2561 2.43081 20.1248 2.48313 20.0028C2.53546 19.8807 2.61156 19.7703 2.707 19.678L19.677 2.70802C19.7699 2.61504 19.8802 2.54129 20.0016 2.49096C20.123 2.44064 20.2531 2.41473 20.3845 2.41473C20.5159 2.41473 20.646 2.44064 20.7674 2.49096C20.8888 2.54129 20.9991 2.61504 21.092 2.70802V2.70702Z" fill="black"/>
</svg>
