<svg width="24" height="24" viewBox="0 0 24 24" fill="none" xmlns="http://www.w3.org/2000/svg">
<path d="M8.502 14.348H11.331L14.038 11.77L12.624 10.423L8.502 14.348ZM6.515 16.253C6.07038 16.7288 5.72921 17.2917 5.513 17.906L5.179 18.86L6.181 18.542C6.91114 18.3118 7.57934 17.9186 8.135 17.392L9.331 16.252H6.515V16.253ZM16.866 11.77C16.9585 11.8561 17.0323 11.9603 17.0828 12.0762C17.1332 12.1921 17.1593 12.3171 17.1593 12.4435C17.1593 12.5699 17.1332 12.6949 17.0828 12.8108C17.0323 12.9267 16.9585 13.0309 16.866 13.117C16.6742 13.2961 16.4215 13.3957 16.159 13.3957C15.8965 13.3957 15.6438 13.2961 15.452 13.117L9.55 18.738C8.77167 19.4754 7.8357 20.026 6.813 20.348L3.914 21.269C3.391 21.435 2.824 21.166 2.65 20.667C2.58147 20.4718 2.58147 20.2591 2.65 20.064L3.616 17.304C3.96487 16.3137 4.54412 15.4205 5.306 14.698L11.21 9.07599C11.1175 8.98989 11.0437 8.88565 10.9932 8.76978C10.9428 8.6539 10.9167 8.52887 10.9167 8.40249C10.9167 8.27611 10.9428 8.15108 10.9932 8.0352C11.0437 7.91932 11.1175 7.81509 11.21 7.72899C11.4018 7.54987 11.6545 7.45025 11.917 7.45025C12.1795 7.45025 12.4321 7.54987 12.624 7.72899L16.866 3.68899C18.038 2.57299 19.937 2.57299 21.109 3.68899C21.3861 3.94743 21.6071 4.26013 21.7582 4.60764C21.9093 4.95516 21.9873 5.33005 21.9873 5.70899C21.9873 6.08793 21.9093 6.46282 21.7582 6.81034C21.6071 7.15785 21.3861 7.47055 21.109 7.72899L16.866 11.769V11.77ZM14.038 9.07599L15.452 10.423L19.695 6.38299C19.7875 6.29689 19.8613 6.19266 19.9118 6.07678C19.9622 5.9609 19.9883 5.83587 19.9883 5.70949C19.9883 5.58311 19.9622 5.45808 19.9118 5.3422C19.8613 5.22632 19.7875 5.12209 19.695 5.03599C19.5031 4.85687 19.2505 4.75725 18.988 4.75725C18.7255 4.75725 18.4728 4.85687 18.281 5.03599L14.038 9.07599Z" fill="black"/>
</svg>
