<svg width="24" height="24" viewBox="0 0 24 24" fill="none" xmlns="http://www.w3.org/2000/svg">
<path d="M15.473 13.193L14.113 14.553L5.696 14.485L11.23 8.95098C11.0425 8.76334 10.9372 8.50889 10.9373 8.24362C10.9373 8.11227 10.9633 7.98222 11.0136 7.86089C11.0639 7.73956 11.1376 7.62932 11.2305 7.53648C11.3234 7.44363 11.4337 7.37 11.5551 7.31977C11.6764 7.26955 11.8065 7.24373 11.9379 7.24377C12.2031 7.24387 12.4575 7.34934 12.645 7.53698L16.887 3.29398C17.4497 2.73132 18.2128 2.41522 19.0085 2.41522C19.8042 2.41522 20.5673 2.73132 21.13 3.29398C21.6927 3.85663 22.0088 4.61976 22.0088 5.41548C22.0088 6.21119 21.6927 6.97432 21.13 7.53698L16.887 11.779C17.0692 11.9676 17.17 12.2202 17.1677 12.4824C17.1654 12.7446 17.0602 12.9954 16.8748 13.1808C16.6894 13.3662 16.4386 13.4714 16.1764 13.4736C15.9142 13.4759 15.6616 13.3751 15.473 13.193ZM12.282 16.385L9.57 19.096C8.80161 19.8644 7.86489 20.4433 6.834 20.787L3.935 21.753C3.7588 21.8117 3.56972 21.8203 3.38895 21.7776C3.20818 21.7349 3.04287 21.6428 2.91153 21.5114C2.7802 21.3801 2.68803 21.2148 2.64537 21.034C2.60271 20.8533 2.61124 20.6642 2.67 20.488L3.637 17.589C3.77395 17.1784 3.9487 16.7813 4.159 16.403L12.282 16.385Z" fill="black"/>
</svg>
