<svg width="24" height="24" viewBox="0 0 24 24" fill="none" xmlns="http://www.w3.org/2000/svg">
<path d="M8.08 13.6L10.623 16.363C10.8004 16.5624 11.0179 16.7222 11.2612 16.8319C11.5045 16.9417 11.7681 16.9989 12.035 17C12.3019 17.001 12.5661 16.9458 12.8102 16.8379C13.0544 16.7301 13.273 16.572 13.452 16.374C13.659 16.152 13.817 15.886 13.917 15.596L14.623 16.363C14.8004 16.5624 15.0179 16.7222 15.2612 16.8319C15.5045 16.9417 15.7681 16.9989 16.035 17C16.3019 17.001 16.5661 16.9458 16.8102 16.8379C17.0544 16.7301 17.273 16.572 17.452 16.374C17.83 15.969 18.042 15.419 18.042 14.844V9.156C18.042 7.966 17.147 7 16.042 7C15.496 7 14.973 7.241 14.596 7.667L13.925 8.425C13.647 7.595 12.909 7 12.043 7C11.496 7 10.973 7.241 10.596 7.667L8.08 10.51V8C8.08 7.73478 7.97464 7.48043 7.78711 7.29289C7.59957 7.10536 7.34522 7 7.08 7C6.81478 7 6.56043 7.10536 6.37289 7.29289C6.18536 7.48043 6.08 7.73478 6.08 8V16C6.08 16.2652 6.18536 16.5196 6.37289 16.7071C6.56043 16.8946 6.81478 17 7.08 17C7.34522 17 7.59957 16.8946 7.78711 16.7071C7.97464 16.5196 8.08 16.2652 8.08 16V13.6ZM6 2H18C19.0609 2 20.0783 2.42143 20.8284 3.17157C21.5786 3.92172 22 4.93913 22 6V18C22 19.0609 21.5786 20.0783 20.8284 20.8284C20.0783 21.5786 19.0609 22 18 22H6C4.93913 22 3.92172 21.5786 3.17157 20.8284C2.42143 20.0783 2 19.0609 2 18V6C2 4.93913 2.42143 3.92172 3.17157 3.17157C3.92172 2.42143 4.93913 2 6 2V2ZM16.043 14.844L13.902 12.518L13.906 11.57L16.043 9.156V14.844ZM12.043 14.844L9.476 12.056L12.043 9.156V14.844Z" fill="black"/>
</svg>
