<svg width="24" height="24" viewBox="0 0 24 24" fill="none" xmlns="http://www.w3.org/2000/svg">
<path d="M17 15.085L12.49 20.31C12.3193 20.51 12.1103 20.6737 11.8752 20.7915C11.6401 20.9092 11.3838 20.9787 11.1215 20.9956C10.8591 21.0126 10.596 20.9768 10.3477 20.8903C10.0994 20.8038 9.87102 20.6683 9.676 20.492C9.4627 20.2992 9.2923 20.0637 9.17585 19.8008C9.05939 19.5379 8.99948 19.2535 9 18.966V15.086L4.49 20.31C4.31933 20.51 4.11027 20.6737 3.8752 20.7915C3.64013 20.9092 3.38383 20.9787 3.12146 20.9956C2.85909 21.0126 2.59598 20.9768 2.3477 20.8903C2.09943 20.8038 1.87102 20.6683 1.676 20.492C1.4627 20.2992 1.2923 20.0637 1.17585 19.8008C1.05939 19.5379 0.999482 19.2535 1 18.966V5.034C1 3.911 1.893 3 2.994 3C3.567 3 4.112 3.251 4.49 3.69L9 8.915V5.035C9 3.91 9.893 3 10.994 3C11.567 3 12.112 3.251 12.49 3.69L17 8.915V5C17 4.46957 17.2107 3.96086 17.5858 3.58579C17.9609 3.21071 18.4696 3 19 3H21C21.5304 3 22.0391 3.21071 22.4142 3.58579C22.7893 3.96086 23 4.46957 23 5V19C23 19.5304 22.7893 20.0391 22.4142 20.4142C22.0391 20.7893 21.5304 21 21 21H19C18.4696 21 17.9609 20.7893 17.5858 20.4142C17.2107 20.0391 17 19.5304 17 19V15.085ZM17 12.007V11.993L10.994 5.034V11.84C11.002 11.947 11.002 12.055 10.994 12.162V18.967L17 12.007ZM2.994 5.034V18.966L9.006 12L2.994 5.034ZM19 5V19H21V5H19Z" fill="black"/>
</svg>
