<svg width="24" height="24" viewBox="0 0 24 24" fill="none" xmlns="http://www.w3.org/2000/svg">
<path d="M6 2H18C19.0609 2 20.0783 2.42143 20.8284 3.17157C21.5786 3.92172 22 4.93913 22 6V18C22 19.0609 21.5786 20.0783 20.8284 20.8284C20.0783 21.5786 19.0609 22 18 22H6C4.93913 22 3.92172 21.5786 3.17157 20.8284C2.42143 20.0783 2 19.0609 2 18V6C2 4.93913 2.42143 3.92172 3.17157 3.17157C3.92172 2.42143 4.93913 2 6 2V2ZM6 4C5.46957 4 4.96086 4.21071 4.58579 4.58579C4.21071 4.96086 4 5.46957 4 6V18C4 18.5304 4.21071 19.0391 4.58579 19.4142C4.96086 19.7893 5.46957 20 6 20H18C18.5304 20 19.0391 19.7893 19.4142 19.4142C19.7893 19.0391 20 18.5304 20 18V6C20 5.46957 19.7893 4.96086 19.4142 4.58579C19.0391 4.21071 18.5304 4 18 4H6ZM8.08 13.6V16C8.08 16.2652 7.97464 16.5196 7.78711 16.7071C7.59957 16.8946 7.34522 17 7.08 17C6.81478 17 6.56043 16.8946 6.37289 16.7071C6.18536 16.5196 6.08 16.2652 6.08 16V8C6.08 7.73478 6.18536 7.48043 6.37289 7.29289C6.56043 7.10536 6.81478 7 7.08 7C7.34522 7 7.59957 7.10536 7.78711 7.29289C7.97464 7.48043 8.08 7.73478 8.08 8V10.509L10.596 7.667C10.973 7.241 11.496 7 12.043 7C12.909 7 13.647 7.594 13.925 8.425L14.596 7.667C14.973 7.241 15.496 7 16.043 7C17.147 7 18.043 7.965 18.043 9.156V14.844C18.043 15.419 17.83 15.969 17.452 16.374C17.273 16.572 17.0544 16.7301 16.8102 16.8379C16.5661 16.9458 16.3019 17.001 16.035 17C15.7681 16.9989 15.5045 16.9417 15.2612 16.8319C15.0179 16.7222 14.8004 16.5624 14.623 16.363L13.917 15.596C13.817 15.886 13.659 16.152 13.452 16.374C13.273 16.572 13.0544 16.7301 12.8102 16.8379C12.5661 16.9458 12.3019 17.001 12.035 17C11.7681 16.9989 11.5045 16.9417 11.2612 16.8319C11.0179 16.7222 10.8004 16.5624 10.623 16.363L8.08 13.6ZM16.043 14.844V9.156L13.906 11.57L13.902 12.518L16.042 14.844H16.043ZM12.043 14.844V9.156L9.476 12.056L12.043 14.844Z" fill="black"/>
</svg>
