<svg width="24" height="24" viewBox="0 0 24 24" fill="none" xmlns="http://www.w3.org/2000/svg">
<path d="M12 22C6.477 22 2 17.523 2 12C2 6.477 6.477 2 12 2C17.523 2 22 6.477 22 12C22 17.523 17.523 22 12 22ZM12 20C14.1217 20 16.1566 19.1571 17.6569 17.6569C19.1571 16.1566 20 14.1217 20 12C20 9.87827 19.1571 7.84344 17.6569 6.34315C16.1566 4.84285 14.1217 4 12 4C9.87827 4 7.84344 4.84285 6.34315 6.34315C4.84285 7.84344 4 9.87827 4 12C4 14.1217 4.84285 16.1566 6.34315 17.6569C7.84344 19.1571 9.87827 20 12 20ZM16.043 13.6L13.5 16.364C13.3226 16.5634 13.1051 16.7232 12.8618 16.8329C12.6185 16.9427 12.3549 16.9999 12.088 17.001C11.8211 17.002 11.5569 16.9468 11.3128 16.8389C11.0686 16.7311 10.85 16.573 10.671 16.375C10.4632 16.1511 10.3048 15.886 10.206 15.597L9.5 16.364C9.32258 16.5634 9.10513 16.7232 8.86184 16.8329C8.61855 16.9427 8.35486 16.9999 8.08796 17.001C7.82105 17.002 7.55693 16.9468 7.31279 16.8389C7.06865 16.7311 6.84997 16.573 6.671 16.375C6.28836 15.9577 6.07761 15.4112 6.081 14.845V9.156C6.081 7.966 6.976 7 8.081 7C8.627 7 9.149 7.241 9.527 7.667L10.197 8.425C10.477 7.595 11.214 7 12.08 7C12.627 7 13.15 7.241 13.527 7.667L16.043 10.509V8C16.043 7.73478 16.1484 7.48043 16.3359 7.29289C16.5234 7.10536 16.7778 7 17.043 7C17.3082 7 17.5626 7.10536 17.7501 7.29289C17.9376 7.48043 18.043 7.73478 18.043 8V16C18.043 16.2652 17.9376 16.5196 17.7501 16.7071C17.5626 16.8946 17.3082 17 17.043 17C16.7778 17 16.5234 16.8946 16.3359 16.7071C16.1484 16.5196 16.043 16.2652 16.043 16V13.6ZM8.08 14.845L10.221 12.519L10.217 11.571L8.08 9.156V14.844V14.845ZM12.08 14.845L14.647 12.057L12.08 9.157V14.845Z" fill="black"/>
</svg>
