<svg width="24" height="24" viewBox="0 0 24 24" fill="none" xmlns="http://www.w3.org/2000/svg">
<path d="M7 8.915L11.51 3.69C11.6807 3.49001 11.8897 3.32629 12.1248 3.20852C12.3599 3.09075 12.6162 3.02133 12.8785 3.00436C13.1409 2.98739 13.404 3.02322 13.6523 3.10973C13.9006 3.19624 14.129 3.33166 14.324 3.508C14.754 3.894 15 4.45 15 5.034V8.914L19.51 3.69C19.6807 3.49001 19.8897 3.32629 20.1248 3.20852C20.3599 3.09075 20.6162 3.02133 20.8785 3.00436C21.1409 2.98739 21.404 3.02322 21.6523 3.10973C21.9006 3.19624 22.129 3.33166 22.324 3.508C22.754 3.894 23 4.45 23 5.034V18.966C23 20.089 22.107 21 21.006 21C20.7217 20.9993 20.4409 20.9373 20.1827 20.8183C19.9245 20.6992 19.6951 20.5258 19.51 20.31L15 15.085V18.965C15 20.09 14.107 21 13.006 21C12.7217 20.9993 12.4409 20.9373 12.1827 20.8183C11.9245 20.6992 11.6951 20.5258 11.51 20.31L7 15.085V19C7 19.5304 6.78929 20.0391 6.41421 20.4142C6.03914 20.7893 5.53043 21 5 21H3C2.46957 21 1.96086 20.7893 1.58579 20.4142C1.21071 20.0391 1 19.5304 1 19V5C1 4.46957 1.21071 3.96086 1.58579 3.58579C1.96086 3.21071 2.46957 3 3 3H5C5.53043 3 6.03914 3.21071 6.41421 3.58579C6.78929 3.96086 7 4.46957 7 5V8.915ZM7 12.007L13.006 18.966V5.034L7 11.993V12.007ZM15 12.007L21.006 18.966V5.034L15 11.993V12.007ZM3 5V19H5V5H3Z" fill="black"/>
</svg>
