<svg width="24" height="24" viewBox="0 0 24 24" fill="none" xmlns="http://www.w3.org/2000/svg">
<path d="M17.893 13.529L13.432 12.333L16.45 9.31502C16.5455 9.22278 16.6217 9.11243 16.6741 8.99043C16.7265 8.86842 16.7541 8.7372 16.7552 8.60442C16.7564 8.47165 16.7311 8.33997 16.6808 8.21707C16.6305 8.09417 16.5563 7.98252 16.4624 7.88863C16.3685 7.79474 16.2569 7.72048 16.134 7.6702C16.0111 7.61992 15.8794 7.59462 15.7466 7.59577C15.6138 7.59693 15.4826 7.62451 15.3606 7.67692C15.2386 7.72933 15.1282 7.80551 15.036 7.90102L14.139 8.79802L12.944 4.33602L13.621 3.65902C14.5626 2.74089 15.8279 2.23069 17.143 2.23893C18.4581 2.24717 19.717 2.77319 20.647 3.70305C21.577 4.6329 22.1032 5.89172 22.1116 7.2068C22.12 8.52188 21.61 9.78733 20.692 10.729L17.893 13.529ZM16.26 15.162L12.494 18.928L7.176 18.589L11.799 13.966L16.26 15.162ZM5.843 17.094L7.257 18.508L3.722 22.043C3.63034 22.1408 3.51998 22.2191 3.39746 22.2733C3.27494 22.3276 3.14276 22.3567 3.00879 22.3589C2.87481 22.361 2.74176 22.3363 2.61754 22.286C2.49333 22.2358 2.38048 22.1611 2.28569 22.0663C2.19091 21.9716 2.11613 21.8588 2.06579 21.7347C2.01546 21.6105 1.99059 21.4774 1.99267 21.3435C1.99475 21.2095 2.02374 21.0773 2.07791 20.9547C2.13207 20.8322 2.21032 20.7217 2.308 20.63L5.758 17.18L5.432 11.849L11.311 5.97002L12.506 10.432L5.843 17.095V17.094Z" fill="black"/>
</svg>
