<svg width="24" height="24" viewBox="0 0 24 24" fill="none" xmlns="http://www.w3.org/2000/svg">
<path d="M15.39 12.308L19.006 8.69202C19.561 8.1278 19.8705 7.36713 19.8672 6.57572C19.8639 5.78431 19.548 5.02627 18.9883 4.46672C18.4286 3.90717 17.6705 3.59144 16.8791 3.58831C16.0877 3.58519 15.3271 3.89491 14.763 4.45002L13.27 5.94402L13.868 8.17402L14.764 7.27802C14.9515 7.09037 15.2059 6.98491 15.4711 6.98481C15.7364 6.98472 15.9909 7.09001 16.1785 7.27752C16.3661 7.46502 16.4716 7.71939 16.4717 7.98466C16.4718 8.24993 16.3665 8.50437 16.179 8.69202L13.16 11.71L15.39 12.308ZM13.757 13.941L11.527 13.343L8.787 16.083L11.447 16.252L13.757 13.941ZM11.637 7.57702L7.21 12.002L7.373 14.667L12.233 9.80702L11.635 7.57702H11.637ZM6.903 17.966L3.45 21.42C3.2614 21.6022 3.00879 21.703 2.7466 21.7007C2.4844 21.6984 2.23359 21.5932 2.04818 21.4078C1.86277 21.2224 1.7576 20.9716 1.75532 20.7094C1.75305 20.4472 1.85384 20.1946 2.036 20.006L5.486 16.556L5.16 11.225L13.35 3.03502C13.8136 2.56745 14.365 2.19607 14.9726 1.94218C15.5801 1.68829 16.2318 1.5569 16.8902 1.55555C17.5487 1.5542 18.2009 1.68292 18.8095 1.93432C19.4181 2.18572 19.971 2.55485 20.4365 3.02051C20.902 3.48617 21.271 4.03919 21.5222 4.64783C21.7735 5.25647 21.902 5.90874 21.9005 6.56719C21.8989 7.22564 21.7674 7.8773 21.5133 8.48477C21.2592 9.09223 20.8877 9.64353 20.42 10.107L12.222 18.305L6.904 17.965L6.903 17.966Z" fill="black"/>
</svg>
