<svg width="24" height="24" viewBox="0 0 24 24" fill="none" xmlns="http://www.w3.org/2000/svg">
<path d="M12 14C13.3261 14 14.5979 13.4732 15.5355 12.5355C16.4732 11.5979 17 10.3261 17 9.00001C17 7.67393 16.4732 6.40216 15.5355 5.46447C14.5979 4.52679 13.3261 4.00001 12 4.00001C10.6739 4.00001 9.40215 4.52679 8.46446 5.46447C7.52678 6.40216 7 7.67393 7 9.00001C7 10.3261 7.52678 11.5979 8.46446 12.5355C9.40215 13.4732 10.6739 14 12 14ZM13 18H14C14.2652 18 14.5196 18.1054 14.7071 18.2929C14.8946 18.4804 15 18.7348 15 19C15 19.2652 14.8946 19.5196 14.7071 19.7071C14.5196 19.8947 14.2652 20 14 20H13V21C13 21.2652 12.8946 21.5196 12.7071 21.7071C12.5196 21.8947 12.2652 22 12 22C11.7348 22 11.4804 21.8947 11.2929 21.7071C11.1054 21.5196 11 21.2652 11 21V20H10C9.73478 20 9.48043 19.8947 9.29289 19.7071C9.10536 19.5196 9 19.2652 9 19C9 18.7348 9.10536 18.4804 9.29289 18.2929C9.48043 18.1054 9.73478 18 10 18H11V16C11 15.976 11 15.953 11.002 15.93C9.2532 15.6738 7.66602 14.7656 6.55892 13.3878C5.45183 12.0101 4.90674 10.2646 5.03305 8.50162C5.15935 6.73867 5.9477 5.08871 7.2399 3.88282C8.5321 2.67693 10.2325 2.00434 12 2.00001C13.7717 1.99733 15.4786 2.6666 16.7763 3.87284C18.074 5.07909 18.8661 6.73255 18.9927 8.49977C19.1193 10.267 18.5711 12.0165 17.4586 13.3954C16.346 14.7743 14.752 15.6801 12.998 15.93L13 16V18Z" fill="black"/>
</svg>
