<svg width="24" height="24" viewBox="0 0 24 24" fill="none" xmlns="http://www.w3.org/2000/svg">
<path d="M4.08 3.358H19.92C20.1084 3.35812 20.2928 3.41143 20.4522 3.51178C20.6116 3.61214 20.7394 3.75547 20.8209 3.92527C20.9024 4.09507 20.9343 4.28443 20.9129 4.47156C20.8915 4.65869 20.8177 4.83597 20.7 4.983L14.22 13.084C14.0778 13.2613 14.0002 13.4817 14 13.709V18.858C14 19.0132 13.9639 19.1664 13.8944 19.3052C13.825 19.4441 13.7242 19.5649 13.6 19.658L11.6 21.158C11.4514 21.2694 11.2748 21.3373 11.0898 21.354C10.9048 21.3706 10.7189 21.3355 10.5528 21.2524C10.3867 21.1694 10.247 21.0417 10.1494 20.8837C10.0517 20.7258 10 20.5437 10 20.358V13.708C9.9996 13.4811 9.92202 13.261 9.78 13.084L3.3 4.983C3.18229 4.83597 3.10849 4.65869 3.0871 4.47156C3.06571 4.28443 3.0976 4.09507 3.1791 3.92527C3.26061 3.75547 3.38841 3.61214 3.54779 3.51178C3.70717 3.41143 3.89166 3.35812 4.08 3.358Z" fill="black"/>
</svg>
