<svg width="24" height="24" viewBox="0 0 24 24" fill="none" xmlns="http://www.w3.org/2000/svg">
<path d="M5 9C4.73478 9 4.48043 9.10536 4.29289 9.29289C4.10536 9.48043 4 9.73478 4 10V18C4 18.2652 4.10536 18.5196 4.29289 18.7071C4.48043 18.8946 4.73478 19 5 19H19C19.2652 19 19.5196 18.8946 19.7071 18.7071C19.8946 18.5196 20 18.2652 20 18V10C20 9.73478 19.8946 9.48043 19.7071 9.29289C19.5196 9.10536 19.2652 9 19 9H5ZM7 7V6C7 5.20435 7.31607 4.44129 7.87868 3.87868C8.44129 3.31607 9.20435 3 10 3H14C14.7956 3 15.5587 3.31607 16.1213 3.87868C16.6839 4.44129 17 5.20435 17 6V7H19C19.7956 7 20.5587 7.31607 21.1213 7.87868C21.6839 8.44129 22 9.20435 22 10V18C22 18.7956 21.6839 19.5587 21.1213 20.1213C20.5587 20.6839 19.7956 21 19 21H5C4.20435 21 3.44129 20.6839 2.87868 20.1213C2.31607 19.5587 2 18.7956 2 18V10C2 9.20435 2.31607 8.44129 2.87868 7.87868C3.44129 7.31607 4.20435 7 5 7H7ZM9 7H15V6C15 5.73478 14.8946 5.48043 14.7071 5.29289C14.5196 5.10536 14.2652 5 14 5H10C9.73478 5 9.48043 5.10536 9.29289 5.29289C9.10536 5.48043 9 5.73478 9 6V7ZM11 11H13V17H11V11ZM9 13H15V15H9V13Z" fill="black"/>
</svg>
