<svg width="24" height="24" viewBox="0 0 24 24" fill="none" xmlns="http://www.w3.org/2000/svg">
<path d="M15.427 15.148V10.148H10.427V9.83601C10.427 9.31901 10.847 8.89801 11.365 8.89801H12.302V7.02301H11.365C10.6192 7.0238 9.90416 7.32043 9.37679 7.8478C8.84942 8.37516 8.5528 9.0902 8.552 9.83601V10.148H7.302V12.023H8.552V15.148H7.302V17.023H11.677V15.148H10.427V12.023H13.57V15.148H12.302V17.023H16.677V15.148H15.427Z" fill="black"/>
<path d="M14.402 8.972C14.9548 8.972 15.403 8.52384 15.403 7.971C15.403 7.41816 14.9548 6.97 14.402 6.97C13.8492 6.97 13.401 7.41816 13.401 7.971C13.401 8.52384 13.8492 8.972 14.402 8.972Z" fill="black"/>
<path d="M6 4C5.46957 4 4.96086 4.21071 4.58579 4.58579C4.21071 4.96086 4 5.46957 4 6V18C4 18.5304 4.21071 19.0391 4.58579 19.4142C4.96086 19.7893 5.46957 20 6 20H18C18.5304 20 19.0391 19.7893 19.4142 19.4142C19.7893 19.0391 20 18.5304 20 18V6C20 5.46957 19.7893 4.96086 19.4142 4.58579C19.0391 4.21071 18.5304 4 18 4H6ZM6 2H18C19.0609 2 20.0783 2.42143 20.8284 3.17157C21.5786 3.92172 22 4.93913 22 6V18C22 19.0609 21.5786 20.0783 20.8284 20.8284C20.0783 21.5786 19.0609 22 18 22H6C4.93913 22 3.92172 21.5786 3.17157 20.8284C2.42143 20.0783 2 19.0609 2 18V6C2 4.93913 2.42143 3.92172 3.17157 3.17157C3.92172 2.42143 4.93913 2 6 2V2Z" fill="black"/>
</svg>
