<svg width="24" height="24" viewBox="0 0 24 24" fill="none" xmlns="http://www.w3.org/2000/svg">
<path d="M8.2 11.81L12.19 15.8L5.54 22.45C5.3654 22.6248 5.15807 22.7634 4.92986 22.858C4.70165 22.9526 4.45703 23.0013 4.21 23.0013C3.96296 23.0013 3.71834 22.9526 3.49013 22.858C3.26192 22.7634 3.05459 22.6248 2.88 22.45L1.55 21.12C1.37523 20.9454 1.23659 20.7381 1.142 20.5099C1.04741 20.2816 0.998718 20.037 0.998718 19.79C0.998718 19.543 1.04741 19.2983 1.142 19.0701C1.23659 18.8419 1.37523 18.6346 1.55 18.46L8.2 11.81ZM9.05 10.001C9.191 9.61619 9.41418 9.26675 9.704 8.97699L12.855 5.82699C12.9423 5.73961 13.046 5.67029 13.1601 5.62299C13.2742 5.5757 13.3965 5.55135 13.52 5.55135C13.6435 5.55135 13.7658 5.5757 13.8799 5.62299C13.994 5.67029 14.0977 5.73961 14.185 5.82699L18.175 9.81699C18.2624 9.90429 18.3317 10.008 18.379 10.1221C18.4263 10.2362 18.4506 10.3585 18.4506 10.482C18.4506 10.6055 18.4263 10.7278 18.379 10.8419C18.3317 10.956 18.2624 11.0597 18.175 11.147L15.052 14.268C14.7516 14.5684 14.3872 14.7971 13.986 14.937L9.05 10.001ZM17.764 8.07599C17.6014 7.91323 17.51 7.69257 17.51 7.46249C17.51 7.23242 17.6014 7.01175 17.764 6.84899L19.862 4.75199C20.0263 4.59715 20.2444 4.51241 20.4702 4.51575C20.6959 4.51909 20.9115 4.61025 21.0711 4.76988C21.2307 4.92952 21.3219 5.14507 21.3252 5.37081C21.3286 5.59655 21.2438 5.8147 21.089 5.97899L18.992 8.07599C18.9114 8.15666 18.8157 8.22066 18.7103 8.26432C18.605 8.30798 18.492 8.33046 18.378 8.33046C18.264 8.33046 18.151 8.30798 18.0457 8.26432C17.9403 8.22066 17.8446 8.15666 17.764 8.07599ZM19.337 9.46999C19.3075 9.35988 19.3 9.24504 19.3149 9.13202C19.3298 9.01901 19.3668 8.91003 19.4238 8.81132C19.4808 8.71261 19.5567 8.6261 19.6472 8.55673C19.7376 8.48735 19.8409 8.43647 19.951 8.40699L21.907 7.88299C22.0171 7.85345 22.132 7.84588 22.245 7.86072C22.358 7.87556 22.4671 7.91252 22.5658 7.96949C22.6646 8.02645 22.7511 8.10232 22.8206 8.19274C22.89 8.28316 22.941 8.38638 22.9705 8.49649C23 8.60661 23.0076 8.72146 22.9928 8.8345C22.9779 8.94754 22.941 9.05655 22.884 9.1553C22.827 9.25406 22.7512 9.34063 22.6607 9.41006C22.5703 9.4795 22.4671 9.53045 22.357 9.55999L20.4 10.084C20.2899 10.1135 20.175 10.121 20.062 10.1061C19.949 10.0912 19.84 10.0542 19.7413 9.99716C19.6426 9.94014 19.5561 9.86424 19.4867 9.77379C19.4174 9.68334 19.3665 9.58011 19.337 9.46999ZM15.923 6.23499C15.7604 6.07223 15.669 5.85157 15.669 5.62149C15.669 5.39142 15.7604 5.17075 15.923 5.00799L18.02 2.90999C18.1831 2.74924 18.4032 2.65948 18.6322 2.66028C18.8613 2.66108 19.0807 2.75237 19.2427 2.91426C19.4048 3.07615 19.4962 3.29551 19.4972 3.52454C19.4982 3.75358 19.4086 3.97372 19.248 4.13699L17.15 6.23499C17.0694 6.31566 16.9737 6.37966 16.8683 6.42332C16.763 6.46698 16.65 6.48946 16.536 6.48946C16.422 6.48946 16.309 6.46698 16.2037 6.42332C16.0983 6.37966 16.0026 6.31566 15.922 6.23499H15.923ZM14.53 4.66299C14.4199 4.63352 14.3167 4.58264 14.2262 4.51326C14.1357 4.44389 14.0598 4.35737 14.0028 4.25866C13.9458 4.15995 13.9088 4.05098 13.8939 3.93797C13.879 3.82495 13.8865 3.71011 13.916 3.59999L14.44 1.64399C14.4995 1.42161 14.645 1.23199 14.8443 1.11684C15.0437 1.00169 15.2806 0.970453 15.503 1.02999C15.7254 1.08953 15.915 1.23498 16.0302 1.43433C16.1453 1.63368 16.1765 1.87061 16.117 2.09299L15.593 4.04899C15.5635 4.15911 15.5126 4.26234 15.4433 4.35279C15.3739 4.44324 15.2874 4.51914 15.1887 4.57616C15.09 4.63318 14.981 4.67019 14.868 4.68509C14.755 4.69999 14.6401 4.69248 14.53 4.66299Z" fill="black"/>
</svg>
