<svg width="24" height="24" viewBox="0 0 24 24" fill="none" xmlns="http://www.w3.org/2000/svg">
<path d="M11.5 8.25699L15.743 12.5L6.54999 21.692C6.17493 22.0669 5.66631 22.2776 5.13598 22.2776C4.60566 22.2776 4.09704 22.0669 3.72198 21.692L2.30799 20.278C1.93304 19.9029 1.72241 19.3943 1.72241 18.864C1.72241 18.3337 1.93304 17.825 2.30799 17.45L11.5 8.25699ZM12.404 6.33299C12.5537 5.92347 12.7909 5.5515 13.099 5.24299L16.449 1.89299C16.5419 1.80001 16.6521 1.72625 16.7735 1.67593C16.8949 1.6256 17.0251 1.5997 17.1565 1.5997C17.2879 1.5997 17.418 1.6256 17.5394 1.67593C17.6608 1.72625 17.7711 1.80001 17.864 1.89299L22.107 6.13599C22.2945 6.32352 22.3998 6.57782 22.3998 6.84299C22.3998 7.10815 22.2945 7.36246 22.107 7.54999L18.787 10.87C18.4675 11.1897 18.0798 11.4331 17.653 11.582L12.403 6.33199L12.404 6.33299ZM10.086 13.914C10.2735 14.1015 10.5278 14.2068 10.793 14.2068C11.0581 14.2068 11.3125 14.1015 11.5 13.914L12.914 12.5C13.0095 12.4077 13.0857 12.2974 13.1381 12.1754C13.1905 12.0534 13.2181 11.9222 13.2192 11.7894C13.2204 11.6566 13.1951 11.5249 13.1448 11.402C13.0945 11.2791 13.0203 11.1675 12.9264 11.0736C12.8325 10.9797 12.7208 10.9054 12.5979 10.8552C12.475 10.8049 12.3434 10.7796 12.2106 10.7807C12.0778 10.7819 11.9466 10.8095 11.8246 10.8619C11.7026 10.9143 11.5922 10.9905 11.5 11.086L10.086 12.5C9.89851 12.6875 9.7932 12.9418 9.7932 13.207C9.7932 13.4722 9.89851 13.7265 10.086 13.914Z" fill="black"/>
</svg>
