<svg width="24" height="24" viewBox="0 0 24 24" fill="none" xmlns="http://www.w3.org/2000/svg">
<path d="M11 4V9.938L9.858 10.48C8.83214 10.9664 8.00234 11.7874 7.50509 12.808C7.00784 13.8286 6.87273 14.9881 7.122 16.0957C7.37127 17.2033 7.99006 18.1932 8.87661 18.9024C9.76317 19.6116 10.8647 19.9979 12 19.9979C13.1353 19.9979 14.2368 19.6116 15.1234 18.9024C16.0099 18.1932 16.6287 17.2033 16.878 16.0957C17.1273 14.9881 16.9922 13.8286 16.4949 12.808C15.9977 11.7874 15.1679 10.9664 14.142 10.48L13 9.938V4H11ZM9 8.674V2H15V8.674C16.436 9.35514 17.5974 10.5047 18.2933 11.9335C18.9892 13.3624 19.1781 14.9856 18.8291 16.5361C18.48 18.0866 17.6136 19.4722 16.3725 20.4649C15.1314 21.4577 13.5893 21.9986 12 21.9986C10.4107 21.9986 8.86865 21.4577 7.62752 20.4649C6.38639 19.4722 5.52004 18.0866 5.17095 16.5361C4.82185 14.9856 5.01079 13.3624 5.70669 11.9335C6.40259 10.5047 7.56403 9.35514 9 8.674ZM8.535 13H15.465C15.8157 13.6081 16.0002 14.2978 16 14.9998C15.9998 15.7018 15.8148 16.3914 15.4637 16.9992C15.1125 17.6071 14.6076 18.1118 13.9996 18.4628C13.3916 18.8137 12.702 18.9984 12 18.9984C11.298 18.9984 10.6084 18.8137 10.0004 18.4628C9.3924 18.1118 8.88748 17.6071 8.53635 16.9992C8.18521 16.3914 8.00024 15.7018 8 14.9998C7.99976 14.2978 8.18428 13.6081 8.535 13ZM9 2H15C15.2652 2 15.5196 2.10536 15.7071 2.29289C15.8946 2.48043 16 2.73478 16 3C16 3.26522 15.8946 3.51957 15.7071 3.70711C15.5196 3.89464 15.2652 4 15 4H9C8.73478 4 8.48043 3.89464 8.29289 3.70711C8.10536 3.51957 8 3.26522 8 3C8 2.73478 8.10536 2.48043 8.29289 2.29289C8.48043 2.10536 8.73478 2 9 2V2Z" fill="black"/>
</svg>
