<svg width="24" height="24" viewBox="0 0 24 24" fill="none" xmlns="http://www.w3.org/2000/svg">
<path d="M9.364 14.243C10.6696 14.243 11.728 13.1846 11.728 11.879C11.728 10.5734 10.6696 9.51501 9.364 9.51501C8.0584 9.51501 7 10.5734 7 11.879C7 13.1846 8.0584 14.243 9.364 14.243Z" fill="black"/>
<path d="M14.628 14.243C15.9336 14.243 16.992 13.1846 16.992 11.879C16.992 10.5734 15.9336 9.51501 14.628 9.51501C13.3224 9.51501 12.264 10.5734 12.264 11.879C12.264 13.1846 13.3224 14.243 14.628 14.243Z" fill="black"/>
<path d="M12 19.994C14.1217 19.994 16.1566 19.1511 17.6569 17.6508C19.1571 16.1506 20 14.1157 20 11.994C20 9.87226 19.1571 7.83742 17.6569 6.33713C16.1566 4.83684 14.1217 3.99399 12 3.99399C9.87827 3.99399 7.84344 4.83684 6.34315 6.33713C4.84285 7.83742 4 9.87226 4 11.994C4 14.1157 4.84285 16.1506 6.34315 17.6508C7.84344 19.1511 9.87827 19.994 12 19.994ZM12 21.994C6.477 21.994 2 17.516 2 11.994C2 6.47099 6.477 1.99399 12 1.99399C17.523 1.99399 22 6.47099 22 11.994C22 17.516 17.523 21.994 12 21.994Z" fill="black"/>
</svg>
