<svg width="24" height="24" viewBox="0 0 24 24" fill="none" xmlns="http://www.w3.org/2000/svg">
<path d="M9.364 14.743C10.6696 14.743 11.728 13.6846 11.728 12.379C11.728 11.0734 10.6696 10.015 9.364 10.015C8.0584 10.015 7 11.0734 7 12.379C7 13.6846 8.0584 14.743 9.364 14.743Z" fill="black"/>
<path d="M14.628 14.743C15.9336 14.743 16.992 13.6846 16.992 12.379C16.992 11.0734 15.9336 10.015 14.628 10.015C13.3224 10.015 12.264 11.0734 12.264 12.379C12.264 13.6846 13.3224 14.743 14.628 14.743Z" fill="black"/>
<path d="M6 4C5.46957 4 4.96086 4.21071 4.58579 4.58579C4.21071 4.96086 4 5.46957 4 6V18C4 18.5304 4.21071 19.0391 4.58579 19.4142C4.96086 19.7893 5.46957 20 6 20H18C18.5304 20 19.0391 19.7893 19.4142 19.4142C19.7893 19.0391 20 18.5304 20 18V6C20 5.46957 19.7893 4.96086 19.4142 4.58579C19.0391 4.21071 18.5304 4 18 4H6ZM6 2H18C19.0609 2 20.0783 2.42143 20.8284 3.17157C21.5786 3.92172 22 4.93913 22 6V18C22 19.0609 21.5786 20.0783 20.8284 20.8284C20.0783 21.5786 19.0609 22 18 22H6C4.93913 22 3.92172 21.5786 3.17157 20.8284C2.42143 20.0783 2 19.0609 2 18V6C2 4.93913 2.42143 3.92172 3.17157 3.17157C3.92172 2.42143 4.93913 2 6 2V2Z" fill="black"/>
</svg>
