<svg width="24" height="24" viewBox="0 0 24 24" fill="none" xmlns="http://www.w3.org/2000/svg">
<path d="M9.094 13.09C9.20164 12.9291 9.31711 12.7736 9.44 12.624C9.17264 12.1198 9.03322 11.5577 9.034 10.987C8.37552 10.3338 8.00315 9.44597 7.99865 8.51847C7.99415 7.59096 8.35789 6.69957 9.01 6.04C9.01733 5.12126 9.38562 4.24224 10.0354 3.59267C10.6851 2.94309 11.5643 2.57506 12.483 2.568C12.8091 2.22973 13.2001 1.96077 13.6326 1.77725C14.0651 1.59373 14.5302 1.49943 15 1.5C15.943 1.5 16.799 1.873 17.428 2.48C17.8892 2.47776 18.3464 2.56661 18.7732 2.74145C19.2001 2.91629 19.5882 3.17368 19.9153 3.49886C20.2424 3.82403 20.5021 4.2106 20.6795 4.63637C20.8569 5.06215 20.9485 5.51875 20.949 5.98C21.6192 6.64768 21.9972 7.55397 22 8.5C22 9.45 21.621 10.313 21.006 10.943V11C21.0061 11.4644 20.9137 11.9241 20.7343 12.3525C20.5549 12.7808 20.2921 13.1691 19.9612 13.4949C19.6302 13.8206 19.2377 14.0773 18.8066 14.2498C18.3755 14.4224 17.9143 14.5074 17.45 14.5C16.819 15.118 15.954 15.5 15 15.5C14.04 15.5 13.17 15.113 12.537 14.487C11.9499 14.4879 11.3721 14.3407 10.857 14.059C10.3626 14.7346 10.1067 15.5554 10.1297 16.3922C10.1527 17.2291 10.4532 18.0346 10.984 18.682L12.774 20.866C12.9422 21.0711 13.0219 21.3347 12.9958 21.5986C12.9696 21.8626 12.8396 22.1054 12.6345 22.2735C12.4294 22.4417 12.1658 22.5214 11.9019 22.4953C11.6379 22.4691 11.3952 22.3391 11.227 22.134L9.437 19.95C9.02205 19.4447 8.69607 18.8726 8.473 18.258C7.94613 18.5508 7.34753 18.6894 6.7456 18.6581C6.14367 18.6268 5.56267 18.4268 5.069 18.081C4.101 17.402 3.274 15.22 2.589 11.534C5.731 11.711 7.78601 12.139 8.755 12.817C8.875 12.902 8.989 12.993 9.095 13.091L9.094 13.09ZM13.359 12.486L13.945 13.066C14.225 13.343 14.598 13.5 15 13.5C15.4 13.5 15.77 13.346 16.05 13.071L16.646 12.487L17.481 12.5C18.335 12.5 19.006 11.829 19.006 11L18.993 10.143L19.574 9.547C19.847 9.267 20 8.898 20 8.5C20 8.09 19.837 7.71 19.55 7.428L18.944 6.835L18.949 5.988C18.949 5.151 18.278 4.479 17.449 4.479L16.626 4.484L16.041 3.92C15.7621 3.64947 15.3885 3.49873 15 3.5C14.7985 3.49943 14.599 3.53972 14.4136 3.61844C14.2281 3.69716 14.0605 3.81268 13.921 3.958L13.338 4.561L12.498 4.568C12.1043 4.57114 11.7277 4.72892 11.4493 5.00729C11.1709 5.28567 11.0131 5.66233 11.01 6.056L11.004 6.868L10.433 7.446C10.156 7.726 10 8.098 10 8.5C10 8.907 10.16 9.283 10.443 9.565L11.035 10.152V10.986C11.035 11.3838 11.193 11.7654 11.4743 12.0467C11.7556 12.328 12.1372 12.486 12.535 12.486H13.359ZM15 10.5C14.4696 10.5 13.9609 10.2893 13.5858 9.91422C13.2107 9.53914 13 9.03044 13 8.5C13 7.96957 13.2107 7.46086 13.5858 7.08579C13.9609 6.71072 14.4696 6.5 15 6.5C15.5304 6.5 16.0391 6.71072 16.4142 7.08579C16.7893 7.46086 17 7.96957 17 8.5C17 9.03044 16.7893 9.53914 16.4142 9.91422C16.0391 10.2893 15.5304 10.5 15 10.5ZM6.217 16.442C6.48067 16.6114 6.79969 16.6722 7.10719 16.6117C7.41469 16.5511 7.68682 16.3738 7.86653 16.1171C8.04624 15.8603 8.1196 15.5439 8.07122 15.2343C8.02284 14.9246 7.85648 14.6457 7.607 14.456C7.249 14.205 6.409 13.965 5.137 13.782C5.557 15.348 5.963 16.265 6.217 16.442Z" fill="black"/>
</svg>
