<svg width="24" height="24" viewBox="0 0 24 24" fill="none" xmlns="http://www.w3.org/2000/svg">
<path d="M8.835 16H15.165C15.7069 14.7356 15.9908 13.3756 16 12C16 10.63 15.698 9.259 15.165 8H8.835C8.2931 9.26443 8.00921 10.6244 8 12C8 13.37 8.302 14.741 8.835 16ZM9.941 18C10.425 18.688 10.951 19.254 11.44 19.63C11.783 19.895 12.02 20 12 20C11.98 20 12.217 19.895 12.56 19.63C13.049 19.254 13.575 18.688 14.059 18H9.94H9.941ZM13 13H14C14.2652 13 14.5196 13.1054 14.7071 13.2929C14.8946 13.4804 15 13.7348 15 14C15 14.2652 14.8946 14.5196 14.7071 14.7071C14.5196 14.8946 14.2652 15 14 15H10C9.73478 15 9.48043 14.8946 9.29289 14.7071C9.10536 14.5196 9 14.2652 9 14C9 13.7348 9.10536 13.4804 9.29289 13.2929C9.48043 13.1054 9.73478 13 10 13H11V11H10C9.73478 11 9.48043 10.8946 9.29289 10.7071C9.10536 10.5196 9 10.2652 9 10C9 9.73478 9.10536 9.48043 9.29289 9.29289C9.48043 9.10536 9.73478 9 10 9H14C14.2652 9 14.5196 9.10536 14.7071 9.29289C14.8946 9.48043 15 9.73478 15 10C15 10.2652 14.8946 10.5196 14.7071 10.7071C14.5196 10.8946 14.2652 11 14 11H13V13ZM9.941 6H14.06C13.576 5.312 13.05 4.746 12.561 4.37C12.217 4.105 11.98 4 12 4C12.02 4 11.783 4.105 11.44 4.37C10.951 4.746 10.425 5.312 9.941 6ZM12 22C10 22 6 17.523 6 12C6 6.477 10 2 12 2C14 2 18 6.477 18 12C18 17.523 14 22 12 22Z" fill="black"/>
</svg>
