<svg width="24" height="24" viewBox="0 0 24 24" fill="none" xmlns="http://www.w3.org/2000/svg">
<path d="M11.027 15.246C11.073 15.539 11.177 15.819 11.334 16.068C11.941 17.033 13.166 17.29 14.071 16.644L18.126 13.746C18.339 13.593 18.523 13.398 18.666 13.171C19.272 12.206 19.031 10.901 18.126 10.254L14.07 7.356C13.7502 7.12556 13.3662 7.00107 12.972 7C11.994 7 11.182 7.759 11.027 8.754L9.07 7.356C8.75017 7.12556 8.3662 7.00107 7.972 7C6.883 7 6 7.941 6 9.102V14.898C6 15.315 6.116 15.722 6.334 16.068C6.941 17.033 8.166 17.29 9.071 16.644L11.027 15.246ZM12 22C6.477 22 2 17.523 2 12C2 6.477 6.477 2 12 2C17.523 2 22 6.477 22 12C22 17.523 17.523 22 12 22ZM12.972 9.102V14.898L17.027 12L12.972 9.102ZM7.972 9.102V14.898L10.992 12.739L10.996 11.263L7.972 9.102Z" fill="black"/>
</svg>
