<svg width="24" height="24" viewBox="0 0 24 24" fill="none" xmlns="http://www.w3.org/2000/svg">
<path d="M6 2H18C19.0609 2 20.0783 2.42143 20.8284 3.17157C21.5786 3.92172 22 4.93913 22 6V18C22 19.0609 21.5786 20.0783 20.8284 20.8284C20.0783 21.5786 19.0609 22 18 22H6C4.93913 22 3.92172 21.5786 3.17157 20.8284C2.42143 20.0783 2 19.0609 2 18V6C2 4.93913 2.42143 3.92172 3.17157 3.17157C3.92172 2.42143 4.93913 2 6 2V2ZM6 4C5.46957 4 4.96086 4.21071 4.58579 4.58579C4.21071 4.96086 4 5.46957 4 6V18C4 18.5304 4.21071 19.0391 4.58579 19.4142C4.96086 19.7893 5.46957 20 6 20H18C18.5304 20 19.0391 19.7893 19.4142 19.4142C19.7893 19.0391 20 18.5304 20 18V6C20 5.46957 19.7893 4.96086 19.4142 4.58579C19.0391 4.21071 18.5304 4 18 4H6ZM11.027 15.246L9.071 16.644C8.166 17.29 6.941 17.033 6.334 16.068C6.11494 15.7171 5.99918 15.3116 6 14.898V9.102C6 7.942 6.883 7 7.972 7C8.363 7 8.746 7.124 9.071 7.356L11.027 8.754C11.182 7.76 11.994 7 12.972 7C13.363 7 13.746 7.124 14.071 7.356L18.126 10.254C19.031 10.901 19.272 12.206 18.666 13.171C18.5251 13.3959 18.3417 13.5913 18.126 13.746L14.071 16.644C13.166 17.29 11.941 17.033 11.334 16.068C11.1771 15.8176 11.0726 15.538 11.027 15.246ZM12.972 9.102V14.898L17.027 12L12.972 9.102ZM7.972 9.102V14.898L10.992 12.739L10.996 11.263L7.972 9.102Z" fill="black"/>
</svg>
