<svg width="24" height="24" viewBox="0 0 24 24" fill="none" xmlns="http://www.w3.org/2000/svg">
<path d="M11.027 15.246C11.073 15.539 11.177 15.819 11.334 16.068C11.941 17.033 13.166 17.29 14.071 16.644L18.126 13.746C18.339 13.593 18.523 13.398 18.666 13.171C19.272 12.206 19.031 10.901 18.126 10.254L14.07 7.356C13.7502 7.12556 13.3662 7.00107 12.972 7C11.994 7 11.182 7.759 11.027 8.754L9.07 7.356C8.75017 7.12556 8.3662 7.00107 7.972 7C6.883 7 6 7.941 6 9.102V14.898C6 15.315 6.116 15.722 6.334 16.068C6.941 17.033 8.166 17.29 9.071 16.644L11.027 15.246ZM6 2H18C19.0609 2 20.0783 2.42143 20.8284 3.17157C21.5786 3.92172 22 4.93913 22 6V18C22 19.0609 21.5786 20.0783 20.8284 20.8284C20.0783 21.5786 19.0609 22 18 22H6C4.93913 22 3.92172 21.5786 3.17157 20.8284C2.42143 20.0783 2 19.0609 2 18V6C2 4.93913 2.42143 3.92172 3.17157 3.17157C3.92172 2.42143 4.93913 2 6 2V2ZM12.972 9.102L17.027 12L12.972 14.898V9.102ZM7.972 9.102L10.996 11.263L10.993 12.739L7.973 14.898V9.102H7.972Z" fill="black"/>
</svg>
