<svg width="24" height="24" viewBox="0 0 24 24" fill="none" xmlns="http://www.w3.org/2000/svg">
<path d="M18.467 2.771C18.2679 2.53042 18.0183 2.33663 17.7359 2.20338C17.4535 2.07013 17.1453 2.00069 16.833 2L7.15901 2C5.97401 2 5.01001 2.987 5.01001 4.2V20.986C5.01001 21.404 5.26301 21.778 5.64501 21.926C5.83162 21.9991 6.03639 22.012 6.23073 21.9631C6.42507 21.9142 6.59927 21.8057 6.72901 21.653L11.918 15.668H15.399C16.463 15.668 17.356 14.888 17.522 13.813L18.957 4.543C19.0059 4.22985 18.9876 3.90987 18.9033 3.60435C18.819 3.29882 18.6706 3.01474 18.468 2.771H18.467ZM16.064 7.615H11.465C10.915 7.615 10.45 8.076 10.46 8.64C10.47 9.187 10.906 9.627 11.443 9.627H15.603C15.6749 9.62818 15.7457 9.64486 15.8106 9.6759C15.8755 9.70693 15.9329 9.7516 15.9789 9.80684C16.0249 9.86208 16.0585 9.92661 16.0773 9.99601C16.0962 10.0654 16.0998 10.1381 16.088 10.209L15.623 13.233C15.606 13.3504 15.5476 13.4578 15.4582 13.5357C15.3689 13.6137 15.2546 13.6571 15.136 13.658L11.474 13.656C11.3344 13.6565 11.1964 13.687 11.0696 13.7455C10.9428 13.804 10.8301 13.8891 10.739 13.995L6.97601 18.335V4.2C6.97601 4.096 7.05801 4.012 7.15901 4.012H16.431C16.5027 4.01286 16.5733 4.02912 16.6381 4.05968C16.703 4.09023 16.7605 4.13436 16.8067 4.18908C16.853 4.2438 16.887 4.30783 16.9064 4.37683C16.9257 4.44583 16.9301 4.51819 16.919 4.589L16.551 7.183C16.5356 7.30163 16.4778 7.41069 16.3883 7.49008C16.2988 7.56946 16.1836 7.61383 16.064 7.615Z" fill="black"/>
</svg>
