<svg width="24" height="24" viewBox="0 0 24 24" fill="none" xmlns="http://www.w3.org/2000/svg">
<g clip-path="url(#clip0_201_31414)">
<path d="M7 11V10C7 9.73478 6.89464 9.48043 6.70711 9.29289C6.51957 9.10536 6.26522 9 6 9C5.73478 9 5.48043 9.10536 5.29289 9.29289C5.10536 9.48043 5 9.73478 5 10V11H4C3.73478 11 3.48043 11.1054 3.29289 11.2929C3.10536 11.4804 3 11.7348 3 12C3 12.2652 3.10536 12.5196 3.29289 12.7071C3.48043 12.8946 3.73478 13 4 13H5V14C5 14.2652 5.10536 14.5196 5.29289 14.7071C5.48043 14.8946 5.73478 15 6 15C6.26522 15 6.51957 14.8946 6.70711 14.7071C6.89464 14.5196 7 14.2652 7 14V13H8C8.26522 13 8.51957 12.8946 8.70711 12.7071C8.89464 12.5196 9 12.2652 9 12C9 11.7348 8.89464 11.4804 8.70711 11.2929C8.51957 11.1054 8.26522 11 8 11H7ZM6 6H18C19.0008 5.99998 19.9858 6.25032 20.8652 6.72823C21.7445 7.20613 22.4904 7.89643 23.0348 8.73625C23.5792 9.57607 23.9049 10.5387 23.9822 11.5366C24.0595 12.5344 23.886 13.5358 23.4774 14.4494C23.0688 15.3631 22.4382 16.16 21.6429 16.7676C20.8476 17.3753 19.913 17.7743 18.9241 17.9284C17.9352 18.0826 16.9234 17.9868 15.9809 17.65C15.0385 17.3132 14.1952 16.746 13.528 16H10.472C9.80477 16.746 8.96153 17.3132 8.01906 17.65C7.0766 17.9868 6.06485 18.0826 5.07594 17.9284C4.08703 17.7743 3.15239 17.3753 2.35711 16.7676C1.56184 16.16 0.931193 15.3631 0.522611 14.4494C0.114028 13.5358 -0.0595138 12.5344 0.0177869 11.5366C0.0950875 10.5387 0.420775 9.57607 0.965193 8.73625C1.50961 7.89643 2.25546 7.20613 3.13483 6.72823C4.0142 6.25032 4.99916 5.99998 6 6V6ZM18 11C18.2652 11 18.5196 10.8946 18.7071 10.7071C18.8946 10.5196 19 10.2652 19 10C19 9.73478 18.8946 9.48043 18.7071 9.29289C18.5196 9.10536 18.2652 9 18 9C17.7348 9 17.4804 9.10536 17.2929 9.29289C17.1054 9.48043 17 9.73478 17 10C17 10.2652 17.1054 10.5196 17.2929 10.7071C17.4804 10.8946 17.7348 11 18 11ZM16 13C16.2652 13 16.5196 12.8946 16.7071 12.7071C16.8946 12.5196 17 12.2652 17 12C17 11.7348 16.8946 11.4804 16.7071 11.2929C16.5196 11.1054 16.2652 11 16 11C15.7348 11 15.4804 11.1054 15.2929 11.2929C15.1054 11.4804 15 11.7348 15 12C15 12.2652 15.1054 12.5196 15.2929 12.7071C15.4804 12.8946 15.7348 13 16 13ZM20 13C20.2652 13 20.5196 12.8946 20.7071 12.7071C20.8946 12.5196 21 12.2652 21 12C21 11.7348 20.8946 11.4804 20.7071 11.2929C20.5196 11.1054 20.2652 11 20 11C19.7348 11 19.4804 11.1054 19.2929 11.2929C19.1054 11.4804 19 11.7348 19 12C19 12.2652 19.1054 12.5196 19.2929 12.7071C19.4804 12.8946 19.7348 13 20 13ZM18 15C18.2652 15 18.5196 14.8946 18.7071 14.7071C18.8946 14.5196 19 14.2652 19 14C19 13.7348 18.8946 13.4804 18.7071 13.2929C18.5196 13.1054 18.2652 13 18 13C17.7348 13 17.4804 13.1054 17.2929 13.2929C17.1054 13.4804 17 13.7348 17 14C17 14.2652 17.1054 14.5196 17.2929 14.7071C17.4804 14.8946 17.7348 15 18 15Z" fill="black"/>
</g>
<defs>
<clipPath id="clip0_201_31414">
<rect width="24" height="24" fill="white"/>
</clipPath>
</defs>
</svg>
