<svg width="24" height="24" viewBox="0 0 24 24" fill="none" xmlns="http://www.w3.org/2000/svg">
<g clip-path="url(#clip0_201_31416)">
<path d="M7 11H8C8.26522 11 8.51957 11.1054 8.70711 11.2929C8.89464 11.4804 9 11.7348 9 12C9 12.2652 8.89464 12.5196 8.70711 12.7071C8.51957 12.8946 8.26522 13 8 13H7V14C7 14.2652 6.89464 14.5196 6.70711 14.7071C6.51957 14.8946 6.26522 15 6 15C5.73478 15 5.48043 14.8946 5.29289 14.7071C5.10536 14.5196 5 14.2652 5 14V13H4C3.73478 13 3.48043 12.8946 3.29289 12.7071C3.10536 12.5196 3 12.2652 3 12C3 11.7348 3.10536 11.4804 3.29289 11.2929C3.48043 11.1054 3.73478 11 4 11H5V10C5 9.73478 5.10536 9.48043 5.29289 9.29289C5.48043 9.10536 5.73478 9 6 9C6.26522 9 6.51957 9.10536 6.70711 9.29289C6.89464 9.48043 7 9.73478 7 10V11ZM6 6H18C19.0008 5.99998 19.9858 6.25032 20.8652 6.72823C21.7445 7.20613 22.4904 7.89643 23.0348 8.73625C23.5792 9.57607 23.9049 10.5387 23.9822 11.5366C24.0595 12.5344 23.886 13.5358 23.4774 14.4494C23.0688 15.3631 22.4382 16.16 21.6429 16.7676C20.8476 17.3753 19.913 17.7743 18.9241 17.9284C17.9352 18.0826 16.9234 17.9868 15.9809 17.65C15.0385 17.3132 14.1952 16.746 13.528 16H10.472C9.80477 16.746 8.96153 17.3132 8.01906 17.65C7.0766 17.9868 6.06485 18.0826 5.07594 17.9284C4.08703 17.7743 3.15239 17.3753 2.35711 16.7676C1.56184 16.16 0.931193 15.3631 0.522611 14.4494C0.114028 13.5358 -0.0595138 12.5344 0.0177869 11.5366C0.0950875 10.5387 0.420775 9.57607 0.965193 8.73625C1.50961 7.89643 2.25546 7.20613 3.13483 6.72823C4.0142 6.25032 4.99916 5.99998 6 6V6ZM6 8C5.33274 8 4.67607 8.16692 4.08981 8.48557C3.50354 8.80421 3.00631 9.26446 2.64338 9.8244C2.28046 10.3843 2.06337 11.0262 2.0119 11.6914C1.96043 12.3567 2.0762 13.0243 2.34867 13.6334C2.62115 14.2425 3.04167 14.7737 3.57194 15.1788C4.10222 15.5838 4.72539 15.8498 5.38471 15.9524C6.04403 16.055 6.71856 15.9911 7.34686 15.7664C7.97516 15.5417 8.53727 15.1634 8.982 14.666L9.578 14H14.422L15.018 14.666C15.4627 15.1634 16.0248 15.5417 16.6531 15.7664C17.2814 15.9911 17.956 16.055 18.6153 15.9524C19.2746 15.8498 19.8978 15.5838 20.4281 15.1788C20.9583 14.7737 21.3788 14.2425 21.6513 13.6334C21.9238 13.0243 22.0396 12.3567 21.9881 11.6914C21.9366 11.0262 21.7195 10.3843 21.3566 9.8244C20.9937 9.26446 20.4965 8.80421 19.9102 8.48557C19.3239 8.16692 18.6673 8 18 8H6ZM18 11C17.7348 11 17.4804 10.8946 17.2929 10.7071C17.1054 10.5196 17 10.2652 17 10C17 9.73478 17.1054 9.48043 17.2929 9.29289C17.4804 9.10536 17.7348 9 18 9C18.2652 9 18.5196 9.10536 18.7071 9.29289C18.8946 9.48043 19 9.73478 19 10C19 10.2652 18.8946 10.5196 18.7071 10.7071C18.5196 10.8946 18.2652 11 18 11ZM16 13C15.7348 13 15.4804 12.8946 15.2929 12.7071C15.1054 12.5196 15 12.2652 15 12C15 11.7348 15.1054 11.4804 15.2929 11.2929C15.4804 11.1054 15.7348 11 16 11C16.2652 11 16.5196 11.1054 16.7071 11.2929C16.8946 11.4804 17 11.7348 17 12C17 12.2652 16.8946 12.5196 16.7071 12.7071C16.5196 12.8946 16.2652 13 16 13ZM20 13C19.7348 13 19.4804 12.8946 19.2929 12.7071C19.1054 12.5196 19 12.2652 19 12C19 11.7348 19.1054 11.4804 19.2929 11.2929C19.4804 11.1054 19.7348 11 20 11C20.2652 11 20.5196 11.1054 20.7071 11.2929C20.8946 11.4804 21 11.7348 21 12C21 12.2652 20.8946 12.5196 20.7071 12.7071C20.5196 12.8946 20.2652 13 20 13ZM18 15C17.7348 15 17.4804 14.8946 17.2929 14.7071C17.1054 14.5196 17 14.2652 17 14C17 13.7348 17.1054 13.4804 17.2929 13.2929C17.4804 13.1054 17.7348 13 18 13C18.2652 13 18.5196 13.1054 18.7071 13.2929C18.8946 13.4804 19 13.7348 19 14C19 14.2652 18.8946 14.5196 18.7071 14.7071C18.5196 14.8946 18.2652 15 18 15Z" fill="black"/>
</g>
<defs>
<clipPath id="clip0_201_31416">
<rect width="24" height="24" fill="white"/>
</clipPath>
</defs>
</svg>
