<svg width="24" height="24" viewBox="0 0 24 24" fill="none" xmlns="http://www.w3.org/2000/svg">
<g clip-path="url(#clip0_201_31412)">
<path d="M7 9V8C7 7.73478 6.89464 7.48043 6.70711 7.29289C6.51957 7.10536 6.26522 7 6 7C5.73478 7 5.48043 7.10536 5.29289 7.29289C5.10536 7.48043 5 7.73478 5 8V9H4C3.73478 9 3.48043 9.10536 3.29289 9.29289C3.10536 9.48043 3 9.73478 3 10C3 10.2652 3.10536 10.5196 3.29289 10.7071C3.48043 10.8946 3.73478 11 4 11H5V12C5 12.2652 5.10536 12.5196 5.29289 12.7071C5.48043 12.8946 5.73478 13 6 13C6.26522 13 6.51957 12.8946 6.70711 12.7071C6.89464 12.5196 7 12.2652 7 12V11H8C8.26522 11 8.51957 10.8946 8.70711 10.7071C8.89464 10.5196 9 10.2652 9 10C9 9.73478 8.89464 9.48043 8.70711 9.29289C8.51957 9.10536 8.26522 9 8 9H7ZM9.318 5H14.682C15.586 4.39997 16.6359 4.05633 17.7197 4.00564C18.8036 3.95495 19.8809 4.19912 20.8369 4.71215C21.793 5.22518 22.5921 5.98787 23.1491 6.91903C23.7061 7.85019 24.0002 8.91496 24 10C24 13.314 21.314 20 18 20C16.024 20 14.271 17.622 13.178 15H10.822C9.73 17.622 7.976 20 6 20C2.686 20 6.94151e-08 13.314 6.94151e-08 10C-0.000164952 8.91496 0.293902 7.85019 0.850897 6.91903C1.40789 5.98787 2.20696 5.22518 3.16305 4.71215C4.11914 4.19912 5.19645 3.95495 6.2803 4.00564C7.36415 4.05633 8.41397 4.39997 9.318 5ZM18 9C18.2652 9 18.5196 8.89464 18.7071 8.7071C18.8946 8.51957 19 8.26521 19 8C19 7.73478 18.8946 7.48043 18.7071 7.29289C18.5196 7.10536 18.2652 7 18 7C17.7348 7 17.4804 7.10536 17.2929 7.29289C17.1054 7.48043 17 7.73478 17 8C17 8.26521 17.1054 8.51957 17.2929 8.7071C17.4804 8.89464 17.7348 9 18 9ZM16 11C16.2652 11 16.5196 10.8946 16.7071 10.7071C16.8946 10.5196 17 10.2652 17 10C17 9.73478 16.8946 9.48043 16.7071 9.29289C16.5196 9.10536 16.2652 9 16 9C15.7348 9 15.4804 9.10536 15.2929 9.29289C15.1054 9.48043 15 9.73478 15 10C15 10.2652 15.1054 10.5196 15.2929 10.7071C15.4804 10.8946 15.7348 11 16 11ZM20 11C20.2652 11 20.5196 10.8946 20.7071 10.7071C20.8946 10.5196 21 10.2652 21 10C21 9.73478 20.8946 9.48043 20.7071 9.29289C20.5196 9.10536 20.2652 9 20 9C19.7348 9 19.4804 9.10536 19.2929 9.29289C19.1054 9.48043 19 9.73478 19 10C19 10.2652 19.1054 10.5196 19.2929 10.7071C19.4804 10.8946 19.7348 11 20 11ZM18 13C18.2652 13 18.5196 12.8946 18.7071 12.7071C18.8946 12.5196 19 12.2652 19 12C19 11.7348 18.8946 11.4804 18.7071 11.2929C18.5196 11.1054 18.2652 11 18 11C17.7348 11 17.4804 11.1054 17.2929 11.2929C17.1054 11.4804 17 11.7348 17 12C17 12.2652 17.1054 12.5196 17.2929 12.7071C17.4804 12.8946 17.7348 13 18 13Z" fill="black"/>
</g>
<defs>
<clipPath id="clip0_201_31412">
<rect width="24" height="24" fill="white"/>
</clipPath>
</defs>
</svg>
