<svg width="24" height="24" viewBox="0 0 24 24" fill="none" xmlns="http://www.w3.org/2000/svg">
<path d="M12 2C14.1217 2 16.1566 2.84285 17.6569 4.34315C19.1571 5.84344 20 7.87827 20 10V22L15.081 21L12.001 22L9.009 21L4 22V10C4 7.87827 4.84285 5.84344 6.34315 4.34315C7.84344 2.84285 9.87827 2 12 2V2ZM9.5 12C9.89782 12 10.2794 11.842 10.5607 11.5607C10.842 11.2794 11 10.8978 11 10.5C11 10.1022 10.842 9.72064 10.5607 9.43934C10.2794 9.15804 9.89782 9 9.5 9C9.10218 9 8.72064 9.15804 8.43934 9.43934C8.15804 9.72064 8 10.1022 8 10.5C8 10.8978 8.15804 11.2794 8.43934 11.5607C8.72064 11.842 9.10218 12 9.5 12ZM14.5 12C14.8978 12 15.2794 11.842 15.5607 11.5607C15.842 11.2794 16 10.8978 16 10.5C16 10.1022 15.842 9.72064 15.5607 9.43934C15.2794 9.15804 14.8978 9 14.5 9C14.1022 9 13.7206 9.15804 13.4393 9.43934C13.158 9.72064 13 10.1022 13 10.5C13 10.8978 13.158 11.2794 13.4393 11.5607C13.7206 11.842 14.1022 12 14.5 12Z" fill="black"/>
</svg>
