<svg width="24" height="24" viewBox="0 0 24 24" fill="none" xmlns="http://www.w3.org/2000/svg">
<path d="M13 22V14H19V20C19 20.5304 18.7893 21.0391 18.4142 21.4142C18.0391 21.7893 17.5304 22 17 22H13ZM11 8.00001V12H5C4.73478 12 4.48043 11.8947 4.29289 11.7071C4.10536 11.5196 4 11.2652 4 11V9.00001C4 8.73479 4.10536 8.48044 4.29289 8.2929C4.48043 8.10536 4.73478 8.00001 5 8.00001H5.535C5.03769 7.14075 4.87769 6.12727 5.0861 5.1566C5.29452 4.18593 5.85646 3.32745 6.66266 2.74808C7.46887 2.16872 8.46172 1.90986 9.44817 2.02185C10.4346 2.13383 11.3442 2.60866 12 3.35401C12.6558 2.60866 13.5654 2.13383 14.5518 2.02185C15.5383 1.90986 16.5311 2.16872 17.3373 2.74808C18.1435 3.32745 18.7055 4.18593 18.9139 5.1566C19.1223 6.12727 18.9623 7.14075 18.465 8.00001H19C19.2652 8.00001 19.5196 8.10536 19.7071 8.2929C19.8946 8.48044 20 8.73479 20 9.00001V11C20 11.2652 19.8946 11.5196 19.7071 11.7071C19.5196 11.8947 19.2652 12 19 12H13V8.00001H11ZM11 22H7C6.46957 22 5.96086 21.7893 5.58579 21.4142C5.21071 21.0391 5 20.5304 5 20V14H11V22ZM11 8.00001V6.00001C11 5.60444 10.8827 5.21777 10.6629 4.88887C10.4432 4.55997 10.1308 4.30362 9.76537 4.15225C9.39991 4.00087 8.99778 3.96127 8.60982 4.03844C8.22186 4.11561 7.86549 4.30609 7.58579 4.58579C7.30608 4.8655 7.1156 5.22186 7.03843 5.60983C6.96126 5.99779 7.00087 6.39992 7.15224 6.76537C7.30362 7.13083 7.55996 7.44318 7.88886 7.66295C8.21776 7.88271 8.60444 8.00001 9 8.00001H11ZM13 8.00001H15C15.3956 8.00001 15.7822 7.88271 16.1111 7.66295C16.44 7.44318 16.6964 7.13083 16.8478 6.76537C16.9991 6.39992 17.0387 5.99779 16.9616 5.60983C16.8844 5.22186 16.6939 4.8655 16.4142 4.58579C16.1345 4.30609 15.7781 4.11561 15.3902 4.03844C15.0022 3.96127 14.6001 4.00087 14.2346 4.15225C13.8692 4.30362 13.5568 4.55997 13.3371 4.88887C13.1173 5.21777 13 5.60444 13 6.00001V8.00001Z" fill="black"/>
</svg>
