<svg width="24" height="24" viewBox="0 0 24 24" fill="none" xmlns="http://www.w3.org/2000/svg">
<path d="M12 20C14.1217 20 16.1566 19.1571 17.6569 17.6569C19.1571 16.1566 20 14.1217 20 12C20 9.87827 19.1571 7.84344 17.6569 6.34315C16.1566 4.84285 14.1217 4 12 4C9.87827 4 7.84344 4.84285 6.34315 6.34315C4.84285 7.84344 4 9.87827 4 12C4 14.1217 4.84285 16.1566 6.34315 17.6569C7.84344 19.1571 9.87827 20 12 20ZM12 22C6.477 22 2 17.523 2 12C2 6.477 6.477 2 12 2C17.523 2 22 6.477 22 12C22 17.523 17.523 22 12 22Z" fill="black"/>
<path d="M12 16.616L10.159 10.95H13.841L12 16.616ZM12 16.616L7.578 10.95H10.158L12 16.616ZM7.578 10.95L12 16.616L7.157 13.098C7.09177 13.0506 7.04326 12.9837 7.01846 12.907C6.99366 12.8302 6.99385 12.7476 7.019 12.671L7.579 10.949L7.578 10.95ZM7.578 10.95L8.688 7.537C8.70025 7.49861 8.72439 7.46512 8.75692 7.44136C8.78946 7.41759 8.82871 7.40478 8.869 7.40478C8.90929 7.40478 8.94854 7.41759 8.98107 7.44136C9.01361 7.46512 9.03774 7.49861 9.05 7.537L10.159 10.95H7.579H7.578ZM12 16.616L13.841 10.949H16.421L12 16.616ZM16.422 10.949L16.982 12.671C17.0069 12.7478 17.0068 12.8306 16.9816 12.9073C16.9565 12.9841 16.9076 13.0509 16.842 13.098L12 16.616L16.422 10.949ZM16.422 10.949H13.842L14.95 7.536C14.962 7.49724 14.9861 7.46334 15.0188 7.43926C15.0514 7.41518 15.0909 7.40219 15.1315 7.40219C15.1721 7.40219 15.2116 7.41518 15.2442 7.43926C15.2769 7.46334 15.301 7.49724 15.313 7.536L16.422 10.949Z" fill="black"/>
</svg>
