<svg width="24" height="24" viewBox="0 0 24 24" fill="none" xmlns="http://www.w3.org/2000/svg">
<path d="M12 16.616L10.159 10.95H13.841L12 16.616ZM12 16.616L7.578 10.95H10.158L12 16.616ZM7.578 10.95L12 16.616L7.157 13.098C7.09177 13.0506 7.04327 12.9837 7.01847 12.907C6.99367 12.8302 6.99386 12.7476 7.019 12.671L7.579 10.949L7.578 10.95ZM7.578 10.95L8.688 7.537C8.70025 7.49861 8.72439 7.46512 8.75693 7.44136C8.78946 7.41759 8.82871 7.40478 8.869 7.40478C8.90929 7.40478 8.94854 7.41759 8.98107 7.44136C9.01361 7.46512 9.03775 7.49861 9.05 7.537L10.159 10.95H7.579H7.578ZM12 16.616L13.841 10.949H16.421L12 16.616ZM16.422 10.949L16.982 12.671C17.0069 12.7478 17.0068 12.8306 16.9817 12.9073C16.9565 12.9841 16.9076 13.0509 16.842 13.098L12 16.616L16.422 10.949ZM16.422 10.949H13.842L14.95 7.536C14.962 7.49724 14.9861 7.46334 15.0188 7.43926C15.0514 7.41518 15.0909 7.40219 15.1315 7.40219C15.1721 7.40219 15.2116 7.41518 15.2442 7.43926C15.2769 7.46334 15.301 7.49724 15.313 7.536L16.422 10.949Z" fill="black"/>
<path d="M6 4C5.46957 4 4.96086 4.21071 4.58579 4.58579C4.21071 4.96086 4 5.46957 4 6V18C4 18.5304 4.21071 19.0391 4.58579 19.4142C4.96086 19.7893 5.46957 20 6 20H18C18.5304 20 19.0391 19.7893 19.4142 19.4142C19.7893 19.0391 20 18.5304 20 18V6C20 5.46957 19.7893 4.96086 19.4142 4.58579C19.0391 4.21071 18.5304 4 18 4H6ZM6 2H18C19.0609 2 20.0783 2.42143 20.8284 3.17157C21.5786 3.92172 22 4.93913 22 6V18C22 19.0609 21.5786 20.0783 20.8284 20.8284C20.0783 21.5786 19.0609 22 18 22H6C4.93913 22 3.92172 21.5786 3.17157 20.8284C2.42143 20.0783 2 19.0609 2 18V6C2 4.93913 2.42143 3.92172 3.17157 3.17157C3.92172 2.42143 4.93913 2 6 2V2Z" fill="black"/>
</svg>
