<svg width="24" height="24" viewBox="0 0 24 24" fill="none" xmlns="http://www.w3.org/2000/svg">
<path d="M15 10H9V8.39301C9 8.12779 9.10536 7.87343 9.29289 7.6859C9.48043 7.49836 9.73478 7.39301 10 7.39301H11V2.39301C11 2.12779 11.1054 1.87343 11.2929 1.6859C11.4804 1.49836 11.7348 1.39301 12 1.39301C12.2652 1.39301 12.5196 1.49836 12.7071 1.6859C12.8946 1.87343 13 2.12779 13 2.39301V7.39301H14C14.2652 7.39301 14.5196 7.49836 14.7071 7.6859C14.8946 7.87343 15 8.12779 15 8.39301V10ZM15.809 11C16.1793 11.2794 16.4796 11.641 16.6863 12.0563C16.893 12.4715 17.0004 12.9291 17 13.393V20.393C17 20.9234 16.7893 21.4321 16.4142 21.8072C16.0391 22.1823 15.5304 22.393 15 22.393H9C8.46957 22.393 7.96086 22.1823 7.58579 21.8072C7.21071 21.4321 7 20.9234 7 20.393V13.393C7 12.416 7.467 11.548 8.191 11H15.809Z" fill="black"/>
</svg>
