<svg width="24" height="24" viewBox="0 0 24 24" fill="none" xmlns="http://www.w3.org/2000/svg">
<path d="M10 12.5C9.73478 12.5 9.48043 12.6054 9.29289 12.7929C9.10536 12.9804 9 13.2348 9 13.5V20.5H15V13.5C15 13.2348 14.8946 12.9804 14.7071 12.7929C14.5196 12.6054 14.2652 12.5 14 12.5H10ZM11 7.5V2.5C11 2.23478 11.1054 1.98043 11.2929 1.79289C11.4804 1.60536 11.7348 1.5 12 1.5C12.2652 1.5 12.5196 1.60536 12.7071 1.79289C12.8946 1.98043 13 2.23478 13 2.5V7.5H14C14.2652 7.5 14.5196 7.60536 14.7071 7.79289C14.8946 7.98043 15 8.23478 15 8.5V10.67C16.165 11.083 17 12.194 17 13.5V20.5C17 21.0304 16.7893 21.5391 16.4142 21.9142C16.0391 22.2893 15.5304 22.5 15 22.5H9C8.46957 22.5 7.96086 22.2893 7.58579 21.9142C7.21071 21.5391 7 21.0304 7 20.5V13.5C7 12.194 7.835 11.083 9 10.67V8.5C9 8.23478 9.10536 7.98043 9.29289 7.79289C9.48043 7.60536 9.73478 7.5 10 7.5H11ZM11 9.5V10.5H13V9.5H11Z" fill="black"/>
</svg>
