<svg width="24" height="24" viewBox="0 0 24 24" fill="none" xmlns="http://www.w3.org/2000/svg">
<path d="M12 20C14.1217 20 16.1566 19.1571 17.6569 17.6569C19.1571 16.1566 20 14.1217 20 12C20 9.87827 19.1571 7.84344 17.6569 6.34315C16.1566 4.84285 14.1217 4 12 4C9.87827 4 7.84344 4.84285 6.34315 6.34315C4.84285 7.84344 4 9.87827 4 12C4 14.1217 4.84285 16.1566 6.34315 17.6569C7.84344 19.1571 9.87827 20 12 20ZM12 22C6.477 22 2 17.523 2 12C2 6.477 6.477 2 12 2C17.523 2 22 6.477 22 12C22 17.523 17.523 22 12 22Z" fill="black"/>
<path d="M15.75 11.5V10.25H15.125V11.5H13.875V12.125H15.125V13.375H15.75V12.125H17V11.5H15.75ZM10.125 11.5V12.75H11.893C11.7632 13.1153 11.5237 13.4315 11.2072 13.6553C10.8906 13.8791 10.5126 13.9995 10.125 14C9.62788 13.9995 9.15128 13.8018 8.79976 13.4502C8.44824 13.0987 8.25053 12.6221 8.25 12.125C8.25 11.091 9.091 10.25 10.125 10.25C10.573 10.25 11.005 10.41 11.339 10.703L12.161 9.76C11.5964 9.26905 10.8732 8.99909 10.125 9C9.29652 9.00106 8.50228 9.33064 7.91646 9.91646C7.33064 10.5023 7.00106 11.2965 7 12.125C7.00106 12.9535 7.33064 13.7477 7.91646 14.3335C8.50228 14.9194 9.29652 15.2489 10.125 15.25C10.9535 15.2489 11.7477 14.9194 12.3335 14.3335C12.9194 13.7477 13.2489 12.9535 13.25 12.125V11.5H10.125Z" fill="black"/>
</svg>
