<svg width="24" height="24" viewBox="0 0 24 24" fill="none" xmlns="http://www.w3.org/2000/svg">
<path d="M19.5 10.5V8H18.25V10.5H15.75V11.75H18.25V14.25H19.5V11.75H22V10.5H19.5ZM8.25 10.5V13H11.786C11.5266 13.7306 11.0475 14.3631 10.4144 14.8107C9.78136 15.2583 9.02532 15.4991 8.25 15.5C7.25584 15.4987 6.30279 15.1032 5.59981 14.4002C4.89684 13.6972 4.50132 12.7442 4.5 11.75C4.50132 10.7558 4.89684 9.80279 5.59981 9.09981C6.30279 8.39684 7.25584 8.00133 8.25 8C9.146 8 10.009 8.321 10.679 8.905L12.32 7.02C11.1914 6.03855 9.74569 5.49865 8.25 5.5C6.59297 5.50186 5.00433 6.16093 3.83263 7.33263C2.66093 8.50433 2.00185 10.093 2 11.75C2.00185 13.407 2.66093 14.9957 3.83263 16.1674C5.00433 17.3391 6.59297 17.9981 8.25 18C9.90703 17.9981 11.4957 17.3391 12.6674 16.1674C13.8391 14.9957 14.4981 13.407 14.5 11.75V10.5H8.25Z" fill="black"/>
</svg>
