<svg width="24" height="24" viewBox="0 0 24 24" fill="none" xmlns="http://www.w3.org/2000/svg">
<path d="M15.75 11.5V10.25H15.125V11.5H13.875V12.125H15.125V13.375H15.75V12.125H17V11.5H15.75ZM10.125 11.5V12.75H11.893C11.7632 13.1153 11.5237 13.4315 11.2072 13.6553C10.8906 13.8791 10.5126 13.9995 10.125 14C9.62788 13.9995 9.15128 13.8018 8.79976 13.4502C8.44824 13.0987 8.25053 12.6221 8.25 12.125C8.25 11.091 9.091 10.25 10.125 10.25C10.573 10.25 11.005 10.41 11.339 10.703L12.161 9.76C11.5964 9.26905 10.8732 8.99909 10.125 9C9.29652 9.00106 8.50228 9.33064 7.91646 9.91646C7.33064 10.5023 7.00106 11.2965 7 12.125C7.00106 12.9535 7.33064 13.7477 7.91646 14.3335C8.50228 14.9194 9.29652 15.2489 10.125 15.25C10.9535 15.2489 11.7477 14.9194 12.3335 14.3335C12.9194 13.7477 13.2489 12.9535 13.25 12.125V11.5H10.125Z" fill="black"/>
<path d="M6 4C5.46957 4 4.96086 4.21071 4.58579 4.58579C4.21071 4.96086 4 5.46957 4 6V18C4 18.5304 4.21071 19.0391 4.58579 19.4142C4.96086 19.7893 5.46957 20 6 20H18C18.5304 20 19.0391 19.7893 19.4142 19.4142C19.7893 19.0391 20 18.5304 20 18V6C20 5.46957 19.7893 4.96086 19.4142 4.58579C19.0391 4.21071 18.5304 4 18 4H6ZM6 2H18C19.0609 2 20.0783 2.42143 20.8284 3.17157C21.5786 3.92172 22 4.93913 22 6V18C22 19.0609 21.5786 20.0783 20.8284 20.8284C20.0783 21.5786 19.0609 22 18 22H6C4.93913 22 3.92172 21.5786 3.17157 20.8284C2.42143 20.0783 2 19.0609 2 18V6C2 4.93913 2.42143 3.92172 3.17157 3.17157C3.92172 2.42143 4.93913 2 6 2V2Z" fill="black"/>
</svg>
