<svg width="24" height="24" viewBox="0 0 24 24" fill="none" xmlns="http://www.w3.org/2000/svg">
<path d="M20.625 11.267L16.99 9.167L14 12.061L16.733 14.705L20.625 12.455C20.7293 12.3952 20.816 12.3088 20.8761 12.2047C20.9361 12.1005 20.9675 11.9823 20.967 11.862C20.9679 11.7414 20.9367 11.6227 20.8766 11.5182C20.8165 11.4136 20.7296 11.3269 20.625 11.267ZM16.373 8.81L12.373 6.498L3.60699 2L13.508 11.584L16.373 8.81ZM3.75199 21.98L12.388 17.217L16.116 15.062L13.508 12.538L3.75199 21.98ZM3.02199 2.388L3.01199 21.743L13.015 12.061L3.02199 2.388Z" fill="black"/>
</svg>
