<svg width="24" height="24" viewBox="0 0 24 24" fill="none" xmlns="http://www.w3.org/2000/svg">
<path d="M12 20C14.1217 20 16.1566 19.1571 17.6569 17.6569C19.1571 16.1566 20 14.1217 20 12C20 9.87827 19.1571 7.84344 17.6569 6.34315C16.1566 4.84285 14.1217 4 12 4C9.87827 4 7.84344 4.84285 6.34315 6.34315C4.84285 7.84344 4 9.87827 4 12C4 14.1217 4.84285 16.1566 6.34315 17.6569C7.84344 19.1571 9.87827 20 12 20ZM12 22C6.477 22 2 17.523 2 12C2 6.477 6.477 2 12 2C17.523 2 22 6.477 22 12C22 17.523 17.523 22 12 22Z" fill="black"/>
<path d="M16.335 11.61L14.518 10.56L13.023 12.006L14.389 13.328L16.335 12.204C16.3874 12.1742 16.431 12.131 16.4612 12.0788C16.4914 12.0266 16.5072 11.9673 16.507 11.907C16.5074 11.8465 16.4917 11.787 16.4615 11.7346C16.4312 11.6823 16.3876 11.6389 16.335 11.609V11.61ZM14.21 10.38L12.21 9.22501L7.82599 6.97501L12.776 11.768L14.21 10.38ZM7.89999 16.966L12.217 14.584L14.081 13.507L12.777 12.244L7.89999 16.966ZM7.53399 7.17001L7.52899 16.847L12.531 12.006L7.53399 7.17001Z" fill="black"/>
</svg>
