<svg width="24" height="24" viewBox="0 0 24 24" fill="none" xmlns="http://www.w3.org/2000/svg">
<path d="M16.335 11.61L14.518 10.56L13.023 12.006L14.389 13.328L16.335 12.204C16.3874 12.1742 16.431 12.131 16.4612 12.0788C16.4915 12.0266 16.5073 11.9673 16.507 11.907C16.5074 11.8465 16.4917 11.787 16.4615 11.7346C16.4313 11.6823 16.3876 11.6389 16.335 11.609V11.61ZM14.21 10.38L12.21 9.22501L7.82601 6.97501L12.776 11.768L14.21 10.38ZM7.90001 16.966L12.217 14.584L14.081 13.507L12.777 12.244L7.90001 16.966ZM7.53401 7.17001L7.52901 16.847L12.531 12.006L7.53401 7.17001Z" fill="black"/>
<path d="M6 4C5.46957 4 4.96086 4.21071 4.58579 4.58579C4.21071 4.96086 4 5.46957 4 6V18C4 18.5304 4.21071 19.0391 4.58579 19.4142C4.96086 19.7893 5.46957 20 6 20H18C18.5304 20 19.0391 19.7893 19.4142 19.4142C19.7893 19.0391 20 18.5304 20 18V6C20 5.46957 19.7893 4.96086 19.4142 4.58579C19.0391 4.21071 18.5304 4 18 4H6ZM6 2H18C19.0609 2 20.0783 2.42143 20.8284 3.17157C21.5786 3.92172 22 4.93913 22 6V18C22 19.0609 21.5786 20.0783 20.8284 20.8284C20.0783 21.5786 19.0609 22 18 22H6C4.93913 22 3.92172 21.5786 3.17157 20.8284C2.42143 20.0783 2 19.0609 2 18V6C2 4.93913 2.42143 3.92172 3.17157 3.17157C3.92172 2.42143 4.93913 2 6 2V2Z" fill="black"/>
</svg>
