<svg width="24" height="24" viewBox="0 0 24 24" fill="none" xmlns="http://www.w3.org/2000/svg">
<path d="M20.919 4.635L14.966 20.715C14.59 21.731 13.507 22.253 12.548 21.88C12.3105 21.7859 12.0951 21.6437 11.9152 21.4623C11.7354 21.2809 11.595 21.0643 11.503 20.826L9.616 16.056C9.26139 15.1403 8.55842 14.4025 7.661 14.004L3.119 12.023C2.174 11.61 1.744 10.465 2.157 9.465C2.25469 9.22354 2.39929 9.00385 2.58244 8.81864C2.76559 8.63343 2.98365 8.48638 3.224 8.386L18.54 2.136C19.507 1.741 20.58 2.237 20.935 3.245C21.092 3.691 21.086 4.185 20.92 4.635H20.919Z" fill="black"/>
</svg>
