<svg width="24" height="24" viewBox="0 0 24 24" fill="none" xmlns="http://www.w3.org/2000/svg">
<path d="M8 12.286V3.714H11.2C12.3104 2.6231 13.8013 2.00645 15.3579 1.99426C16.9144 1.98206 18.4148 2.57528 19.5422 3.64865C20.6695 4.72201 21.3356 6.1915 21.3998 7.74679C21.4639 9.30208 20.9211 10.8214 19.886 11.984L21.811 17.27C21.9494 17.641 22.0129 18.0357 21.998 18.4314C21.9831 18.8271 21.8899 19.2159 21.724 19.5754C21.5581 19.9349 21.3226 20.2581 21.0312 20.5261C20.7398 20.7942 20.3982 21.002 20.0261 21.1374C19.6541 21.2728 19.2589 21.3332 18.8633 21.3152C18.4678 21.2971 18.0797 21.2009 17.7215 21.0322C17.3633 20.8634 17.042 20.6254 16.7763 20.3319C16.5105 20.0384 16.3055 19.6951 16.173 19.322L14.191 13.878C13.0619 13.6462 12.0236 13.0934 11.201 12.286H8ZM6 12.286H4C3.46957 12.286 2.96086 12.0753 2.58579 11.7002C2.21071 11.3251 2 10.8164 2 10.286V5.714C2 5.18356 2.21071 4.67486 2.58579 4.29978C2.96086 3.92471 3.46957 3.714 4 3.714H6V12.286ZM14 7C13.7348 7 13.4804 7.10535 13.2929 7.29289C13.1054 7.48043 13 7.73478 13 8C13 8.26521 13.1054 8.51957 13.2929 8.7071C13.4804 8.89464 13.7348 9 14 9H17C17.2652 9 17.5196 8.89464 17.7071 8.7071C17.8946 8.51957 18 8.26521 18 8C18 7.73478 17.8946 7.48043 17.7071 7.29289C17.5196 7.10535 17.2652 7 17 7H14Z" fill="black"/>
</svg>
