<svg width="24" height="24" viewBox="0 0 24 24" fill="none" xmlns="http://www.w3.org/2000/svg">
<path d="M8 10.286H12.017L12.601 10.857C13.1486 11.3953 13.8399 11.7641 14.592 11.919L15.688 12.143L18.052 18.638C18.0969 18.7614 18.1657 18.8748 18.2544 18.9717C18.3432 19.0685 18.4501 19.147 18.5692 19.2025C18.6882 19.258 18.817 19.2896 18.9482 19.2953C19.0795 19.3011 19.2106 19.2809 19.334 19.236C19.4574 19.1911 19.5708 19.1223 19.6677 19.0336C19.7645 18.9448 19.843 18.8379 19.8985 18.7188C19.954 18.5998 19.9856 18.471 19.9913 18.3398C19.9971 18.2085 19.9769 18.0774 19.932 17.954L17.599 11.547L18.392 10.655C19.0821 9.87982 19.4439 8.86676 19.401 7.82978C19.3581 6.79281 18.9138 5.81311 18.1619 5.09763C17.4101 4.38215 16.4096 3.9869 15.3718 3.99536C14.334 4.00383 13.3401 4.41535 12.6 5.143L12.016 5.714H8V10.286ZM6 10.286V5.714H4V10.286H6ZM11.2 12.286H4C3.46957 12.286 2.96086 12.0753 2.58579 11.7002C2.21071 11.3251 2 10.8164 2 10.286V5.714C2 5.18356 2.21071 4.67486 2.58579 4.29978C2.96086 3.92471 3.46957 3.714 4 3.714H11.2C12.3104 2.6231 13.8013 2.00645 15.3579 1.99426C16.9144 1.98206 18.4148 2.57528 19.5422 3.64865C20.6695 4.72201 21.3356 6.1915 21.3998 7.74679C21.4639 9.30208 20.9211 10.8214 19.886 11.984L21.811 17.27C21.9494 17.641 22.0129 18.0357 21.998 18.4314C21.9831 18.8271 21.8899 19.2159 21.724 19.5754C21.5581 19.9349 21.3226 20.2581 21.0312 20.5261C20.7398 20.7942 20.3982 21.002 20.0261 21.1374C19.6541 21.2728 19.2589 21.3332 18.8633 21.3152C18.4678 21.2971 18.0797 21.2009 17.7215 21.0322C17.3633 20.8634 17.042 20.6254 16.7763 20.3319C16.5105 20.0384 16.3055 19.6951 16.173 19.322L14.191 13.878C13.0619 13.6462 12.0236 13.0934 11.201 12.286H11.2ZM14 7H17C17.2652 7 17.5196 7.10535 17.7071 7.29289C17.8946 7.48043 18 7.73478 18 8C18 8.26521 17.8946 8.51957 17.7071 8.7071C17.5196 8.89464 17.2652 9 17 9H14C13.7348 9 13.4804 8.89464 13.2929 8.7071C13.1054 8.51957 13 8.26521 13 8C13 7.73478 13.1054 7.48043 13.2929 7.29289C13.4804 7.10535 13.7348 7 14 7Z" fill="black"/>
</svg>
