<svg width="24" height="24" viewBox="0 0 24 24" fill="none" xmlns="http://www.w3.org/2000/svg">
<path d="M3.788 7.203C3.65435 6.92309 3.61077 6.60864 3.66324 6.30294C3.71571 5.99723 3.86166 5.71531 4.081 5.496L5.496 4.08C5.71531 3.86066 5.99723 3.71471 6.30294 3.66224C6.60864 3.60977 6.92309 3.65335 7.203 3.787L8.678 2.314C9.05305 1.93905 9.56167 1.72842 10.092 1.72842C10.6223 1.72842 11.1309 1.93905 11.506 2.314L14.335 5.142C14.5208 5.32772 14.6682 5.54824 14.7688 5.79094C14.8693 6.03365 14.9211 6.29379 14.9211 6.5565C14.9211 6.81921 14.8693 7.07935 14.7688 7.32205C14.6682 7.56475 14.5208 7.78527 14.335 7.971L7.97 14.335C7.78427 14.5208 7.56376 14.6682 7.32105 14.7688C7.07835 14.8693 6.81821 14.9211 6.5555 14.9211C6.29279 14.9211 6.03265 14.8693 5.78994 14.7688C5.54724 14.6682 5.32672 14.5208 5.141 14.335L2.314 11.506C1.93905 11.1309 1.72842 10.6223 1.72842 10.092C1.72842 9.56167 1.93905 9.05305 2.314 8.678L3.788 7.203ZM10.8 14.335L14.336 10.799L17.871 14.335L14.336 17.87L10.8 14.335ZM15.75 19.285L19.285 15.749L21.053 17.517C21.5084 17.9885 21.7604 18.62 21.7547 19.2755C21.749 19.931 21.4861 20.558 21.0225 21.0215C20.559 21.4851 19.932 21.748 19.2765 21.7537C18.621 21.7594 17.9895 21.5074 17.518 21.052L15.75 19.284V19.285Z" fill="black"/>
</svg>
