<svg width="24" height="24" viewBox="0 0 24 24" fill="none" xmlns="http://www.w3.org/2000/svg">
<path d="M6.5 11H10.5V8C10.5 7.73478 10.6054 7.48043 10.7929 7.29289C10.9804 7.10536 11.2348 7 11.5 7C11.7652 7 12.0196 7.10536 12.2071 7.29289C12.3946 7.48043 12.5 7.73478 12.5 8V16C12.5 16.2652 12.3946 16.5196 12.2071 16.7071C12.0196 16.8946 11.7652 17 11.5 17C11.2348 17 10.9804 16.8946 10.7929 16.7071C10.6054 16.5196 10.5 16.2652 10.5 16V13H6.5V16C6.5 16.2652 6.39464 16.5196 6.20711 16.7071C6.01957 16.8946 5.76522 17 5.5 17C5.23478 17 4.98043 16.8946 4.79289 16.7071C4.60536 16.5196 4.5 16.2652 4.5 16V8C4.5 7.73478 4.60536 7.48043 4.79289 7.29289C4.98043 7.10536 5.23478 7 5.5 7C5.76522 7 6.01957 7.10536 6.20711 7.29289C6.39464 7.48043 6.5 7.73478 6.5 8V11ZM18.449 13.057C18.879 13.497 19.1 14.056 19.1 14.697C19.1 15.326 18.872 15.877 18.43 16.317C17.988 16.754 17.44 16.98 16.817 16.98C16.509 16.9857 16.2033 16.9269 15.9193 16.8076C15.6354 16.6883 15.3795 16.511 15.168 16.287C14.738 15.837 14.516 15.302 14.516 14.707C14.516 14.483 14.55 14.258 14.616 14.035C14.679 13.824 15.28 12.408 15.453 12.069C15.704 11.578 16.103 10.865 16.65 9.932L18.43 10.584L17.513 12.464C17.762 12.577 18.246 12.85 18.449 13.057ZM16.819 13.822C16.7056 13.8209 16.5931 13.8425 16.4882 13.8856C16.3833 13.9286 16.2881 13.9922 16.2081 14.0727C16.1282 14.1531 16.0651 14.2487 16.0227 14.3539C15.9802 14.459 15.9593 14.5716 15.961 14.685C15.9598 14.7988 15.9815 14.9118 16.0248 15.0171C16.0681 15.1224 16.1321 15.2179 16.213 15.298C16.3339 15.4203 16.4886 15.5037 16.6572 15.5377C16.8257 15.5717 17.0006 15.5546 17.1595 15.4887C17.3183 15.4228 17.4539 15.3111 17.549 15.1677C17.644 15.0244 17.6941 14.856 17.693 14.684C17.6945 14.5706 17.6732 14.458 17.6302 14.353C17.5873 14.2481 17.5236 14.1528 17.443 14.073C17.3611 13.9918 17.2638 13.9277 17.1568 13.8846C17.0498 13.8415 16.9353 13.8202 16.82 13.822H16.819Z" fill="black"/>
</svg>
