<svg width="24" height="24" viewBox="0 0 24 24" fill="none" xmlns="http://www.w3.org/2000/svg">
<path d="M6.5 11H10.5V8C10.5 7.73478 10.6054 7.48043 10.7929 7.29289C10.9804 7.10536 11.2348 7 11.5 7C11.7652 7 12.0196 7.10536 12.2071 7.29289C12.3946 7.48043 12.5 7.73478 12.5 8V16C12.5 16.2652 12.3946 16.5196 12.2071 16.7071C12.0196 16.8946 11.7652 17 11.5 17C11.2348 17 10.9804 16.8946 10.7929 16.7071C10.6054 16.5196 10.5 16.2652 10.5 16V13H6.5V16C6.5 16.2652 6.39464 16.5196 6.20711 16.7071C6.01957 16.8946 5.76522 17 5.5 17C5.23478 17 4.98043 16.8946 4.79289 16.7071C4.60536 16.5196 4.5 16.2652 4.5 16V8C4.5 7.73478 4.60536 7.48043 4.79289 7.29289C4.98043 7.10536 5.23478 7 5.5 7C5.76522 7 6.01957 7.10536 6.20711 7.29289C6.39464 7.48043 6.5 7.73478 6.5 8V11ZM17.136 15.74H14.5V14.302L14.56 14.104L17.274 9.994H18.961V13.946H19.499V15.74H18.961V17H17.136V15.74ZM17.29 14.457V12.774L16.19 14.457H17.29Z" fill="black"/>
</svg>
