<svg width="24" height="24" viewBox="0 0 24 24" fill="none" xmlns="http://www.w3.org/2000/svg">
<path d="M6.5 11H10.5V8C10.5 7.73478 10.6054 7.48043 10.7929 7.29289C10.9804 7.10536 11.2348 7 11.5 7C11.7652 7 12.0196 7.10536 12.2071 7.29289C12.3946 7.48043 12.5 7.73478 12.5 8V16C12.5 16.2652 12.3946 16.5196 12.2071 16.7071C12.0196 16.8946 11.7652 17 11.5 17C11.2348 17 10.9804 16.8946 10.7929 16.7071C10.6054 16.5196 10.5 16.2652 10.5 16V13H6.5V16C6.5 16.2652 6.39464 16.5196 6.20711 16.7071C6.01957 16.8946 5.76522 17 5.5 17C5.23478 17 4.98043 16.8946 4.79289 16.7071C4.60536 16.5196 4.5 16.2652 4.5 16V8C4.5 7.73478 4.60536 7.48043 4.79289 7.29289C4.98043 7.10536 5.23478 7 5.5 7C5.76522 7 6.01957 7.10536 6.20711 7.29289C6.39464 7.48043 6.5 7.73478 6.5 8V11ZM19.38 15.352V17H14.5V15.986L14.6 15.74L16.385 13.827C16.815 13.392 17.178 13.057 17.308 12.816C17.432 12.586 17.49 12.389 17.49 12.229C17.49 12.089 17.45 11.987 17.363 11.902C17.3163 11.8579 17.2611 11.8239 17.2007 11.8021C17.1403 11.7802 17.0761 11.771 17.012 11.775C16.9447 11.7726 16.8778 11.7856 16.8163 11.813C16.7547 11.8404 16.7003 11.8814 16.657 11.933C16.552 12.05 16.492 12.221 16.484 12.458L16.472 12.796H14.648L14.664 12.43C14.698 11.695 14.936 11.1 15.382 10.66C15.828 10.22 16.402 10 17.085 10C17.509 10 17.89 10.091 18.225 10.275C18.562 10.4626 18.8409 10.7394 19.031 11.075C19.229 11.418 19.331 11.775 19.331 12.138C19.331 12.554 19.101 12.987 18.875 13.445C18.653 13.895 18.341 14.321 17.811 15L17.695 15.123L17.441 15.352H19.379H19.38Z" fill="black"/>
</svg>
