<svg width="24" height="24" viewBox="0 0 24 24" fill="none" xmlns="http://www.w3.org/2000/svg">
<path d="M6.5 10.5H10.5V7.5C10.5 7.23478 10.6054 6.98043 10.7929 6.79289C10.9804 6.60536 11.2348 6.5 11.5 6.5C11.7652 6.5 12.0196 6.60536 12.2071 6.79289C12.3946 6.98043 12.5 7.23478 12.5 7.5V15.5C12.5 15.7652 12.3946 16.0196 12.2071 16.2071C12.0196 16.3946 11.7652 16.5 11.5 16.5C11.2348 16.5 10.9804 16.3946 10.7929 16.2071C10.6054 16.0196 10.5 15.7652 10.5 15.5V12.5H6.5V15.5C6.5 15.7652 6.39464 16.0196 6.20711 16.2071C6.01957 16.3946 5.76522 16.5 5.5 16.5C5.23478 16.5 4.98043 16.3946 4.79289 16.2071C4.60536 16.0196 4.5 15.7652 4.5 15.5V7.5C4.5 7.23478 4.60536 6.98043 4.79289 6.79289C4.98043 6.60536 5.23478 6.5 5.5 6.5C5.76522 6.5 6.01957 6.60536 6.20711 6.79289C6.39464 6.98043 6.5 7.23478 6.5 7.5V10.5ZM18.953 13.013L18.996 13.068C19.25 13.402 19.376 13.796 19.376 14.24C19.376 14.877 19.137 15.427 18.669 15.868C18.203 16.307 17.609 16.526 16.906 16.526C16.235 16.526 15.671 16.317 15.235 15.899C14.799 15.481 14.562 14.916 14.522 14.223L14.5 13.853H16.303L16.35 14.148C16.388 14.386 16.462 14.545 16.565 14.638C16.665 14.729 16.795 14.775 16.967 14.775C17.0445 14.7788 17.1219 14.7667 17.1945 14.7393C17.2671 14.712 17.3333 14.67 17.389 14.616C17.4408 14.5675 17.4817 14.5085 17.5089 14.443C17.5361 14.3775 17.5491 14.3069 17.547 14.236C17.547 14.073 17.48 13.941 17.323 13.817C17.153 13.683 16.885 13.607 16.508 13.602L16.163 13.598V12.428L16.508 12.424C16.885 12.42 17.154 12.344 17.323 12.209C17.48 12.085 17.547 11.954 17.547 11.791C17.5493 11.7199 17.5364 11.6492 17.5091 11.5834C17.4819 11.5177 17.4409 11.4586 17.389 11.41C17.3333 11.356 17.2671 11.314 17.1945 11.2867C17.1219 11.2593 17.0445 11.2472 16.967 11.251C16.8202 11.2432 16.6761 11.2927 16.565 11.389C16.462 11.481 16.388 11.64 16.35 11.878L16.303 12.173H14.5L14.522 11.803C14.562 11.11 14.799 10.545 15.235 10.128C15.671 9.709 16.235 9.5 16.905 9.5C17.609 9.5 18.203 9.72 18.669 10.158C19.137 10.599 19.377 11.149 19.377 11.787C19.3846 12.2329 19.2344 12.6671 18.953 13.013Z" fill="black"/>
</svg>
