<svg width="24" height="24" viewBox="0 0 24 24" fill="none" xmlns="http://www.w3.org/2000/svg">
<path d="M6 10.5H10V7.5C10 7.23478 10.1054 6.98043 10.2929 6.79289C10.4804 6.60536 10.7348 6.5 11 6.5C11.2652 6.5 11.5196 6.60536 11.7071 6.79289C11.8946 6.98043 12 7.23478 12 7.5V15.5C12 15.7652 11.8946 16.0196 11.7071 16.2071C11.5196 16.3946 11.2652 16.5 11 16.5C10.7348 16.5 10.4804 16.3946 10.2929 16.2071C10.1054 16.0196 10 15.7652 10 15.5V12.5H6V15.5C6 15.7652 5.89464 16.0196 5.70711 16.2071C5.51957 16.3946 5.26522 16.5 5 16.5C4.73478 16.5 4.48043 16.3946 4.29289 16.2071C4.10536 16.0196 4 15.7652 4 15.5V7.5C4 7.23478 4.10536 6.98043 4.29289 6.79289C4.48043 6.60536 4.73478 6.5 5 6.5C5.26522 6.5 5.51957 6.60536 5.70711 6.79289C5.89464 6.98043 6 7.23478 6 7.5V10.5ZM14.003 14.817H16.683C17.069 14.817 17.382 14.53 17.382 14.175C17.382 13.82 17.069 13.533 16.684 13.533H14.01L14.012 13.289L14 9.5H19.086V11.388H15.942L15.956 12.005H17.07C18.425 12.005 19.539 12.989 19.593 14.235C19.645 15.445 18.621 16.466 17.305 16.515L17.21 16.516L14 16.496V15.23L14.003 14.816V14.817Z" fill="black"/>
</svg>
