<svg width="24" height="24" viewBox="0 0 24 24" fill="none" xmlns="http://www.w3.org/2000/svg">
<path d="M5.636 11.208L12 17.572L18.364 11.208C18.9267 10.6453 19.2428 9.88222 19.2428 9.0865C19.2428 8.29078 18.9267 7.52766 18.364 6.965C18.0854 6.6864 17.7547 6.4654 17.3907 6.31463C17.0266 6.16385 16.6365 6.08625 16.2425 6.08625C15.4468 6.08625 14.6837 6.40234 14.121 6.965L12 9.086L9.879 6.966C9.31491 6.41089 8.55433 6.10117 7.76291 6.1043C6.9715 6.10743 6.21339 6.42315 5.6537 6.9827C5.09402 7.54226 4.77812 8.3003 4.7748 9.09171C4.77149 9.88312 5.08103 10.6438 5.636 11.208ZM11.293 5.55L12 6.257L12.707 5.55C13.1706 5.08237 13.7219 4.7109 14.3294 4.45693C14.9369 4.20295 15.5886 4.07147 16.247 4.07003C16.9055 4.06859 17.5577 4.19721 18.1663 4.44853C18.775 4.69984 19.3279 5.06889 19.7935 5.53448C20.2591 6.00008 20.6282 6.55305 20.8795 7.16166C21.1308 7.77026 21.2594 8.42251 21.258 9.08096C21.2565 9.73941 21.125 10.3911 20.8711 10.9986C20.6171 11.6061 20.2456 12.1574 19.778 12.621L12.708 19.692C12.6151 19.785 12.5048 19.8587 12.3834 19.9091C12.262 19.9594 12.1319 19.9853 12.0005 19.9853C11.8691 19.9853 11.739 19.9594 11.6176 19.9091C11.4962 19.8587 11.3859 19.785 11.293 19.692L4.222 12.622C3.74801 12.1599 3.37049 11.6084 3.11133 10.9993C2.85217 10.3902 2.71654 9.73566 2.7123 9.07373C2.70806 8.41181 2.83529 7.75562 3.08663 7.14325C3.33796 6.53088 3.70838 5.97451 4.17641 5.50641C4.64444 5.03832 5.20076 4.66781 5.8131 4.4164C6.42543 4.16498 7.0816 4.03765 7.74352 4.0418C8.40545 4.04594 9.05997 4.18149 9.66911 4.44056C10.2782 4.69963 10.8299 5.07707 11.292 5.551L11.293 5.55Z" fill="black"/>
</svg>
