<svg width="24" height="24" viewBox="0 0 24 24" fill="none" xmlns="http://www.w3.org/2000/svg">
<path d="M12 21.893C6.477 21.893 2 17.416 2 11.893C2 6.371 6.477 1.893 12 1.893C17.523 1.893 22 6.371 22 11.893C22 17.416 17.523 21.893 12 21.893ZM13.276 13.675L13.67 13.367C14.0322 13.084 14.3351 12.7324 14.5614 12.3324C14.7877 11.9323 14.933 11.4916 14.989 11.0354C15.045 10.5792 15.0106 10.1164 14.8877 9.67348C14.7649 9.23057 14.556 8.81619 14.273 8.454C13.99 8.09182 13.6384 7.78892 13.2384 7.5626C12.8383 7.33628 12.3976 7.19098 11.9414 7.13499C11.4852 7.07899 11.0224 7.1134 10.5795 7.23626C10.1366 7.35911 9.72219 7.568 9.36 7.851L8.966 8.159C8.86035 8.23906 8.77166 8.33932 8.70511 8.45396C8.63855 8.5686 8.59545 8.69532 8.57832 8.82677C8.56118 8.95821 8.57035 9.09175 8.60529 9.21962C8.64023 9.34749 8.70024 9.46714 8.78184 9.57161C8.86344 9.67608 8.96499 9.76328 9.0806 9.82814C9.1962 9.89301 9.32354 9.93424 9.45523 9.94944C9.58691 9.96465 9.7203 9.95352 9.84765 9.91671C9.97499 9.87989 10.0937 9.81812 10.197 9.735L10.591 9.427C10.9046 9.18361 11.3019 9.07446 11.6959 9.12348C12.0898 9.17249 12.4483 9.37567 12.6927 9.6885C12.9371 10.0013 13.0475 10.3983 12.9998 10.7924C12.952 11.1865 12.75 11.5456 12.438 11.791L12.044 12.099C11.9405 12.1799 11.854 12.2804 11.7893 12.3947C11.7247 12.5091 11.6832 12.635 11.6672 12.7654C11.6512 12.8958 11.6611 13.028 11.6962 13.1546C11.7314 13.2811 11.7911 13.3995 11.872 13.503C11.9529 13.6065 12.0534 13.693 12.1677 13.7577C12.2821 13.8223 12.408 13.8638 12.5384 13.8798C12.6688 13.8958 12.801 13.8859 12.9276 13.8508C13.0541 13.8156 13.1725 13.7559 13.276 13.675ZM12 16.893C12.2652 16.893 12.5196 16.7876 12.7071 16.6001C12.8946 16.4126 13 16.1582 13 15.893C13 15.6278 12.8946 15.3734 12.7071 15.1859C12.5196 14.9984 12.2652 14.893 12 14.893C11.7348 14.893 11.4804 14.9984 11.2929 15.1859C11.1054 15.3734 11 15.6278 11 15.893C11 16.1582 11.1054 16.4126 11.2929 16.6001C11.4804 16.7876 11.7348 16.893 12 16.893Z" fill="black"/>
</svg>
