<svg width="24" height="24" viewBox="0 0 24 24" fill="none" xmlns="http://www.w3.org/2000/svg">
<path d="M8.53802 12.06L7.50302 15.267L9.27902 17.042L12.444 15.965L8.53802 12.059V12.06ZM9.77802 10.47L14.02 14.713L20.384 8.349C20.5698 8.16327 20.7172 7.94276 20.8178 7.70006C20.9183 7.45735 20.9701 7.19721 20.9701 6.9345C20.9701 6.67179 20.9183 6.41165 20.8178 6.16895C20.7172 5.92624 20.5698 5.70573 20.384 5.52L18.97 4.106C18.7843 3.9202 18.5638 3.77281 18.3211 3.67225C18.0784 3.57169 17.8182 3.51993 17.5555 3.51993C17.2928 3.51993 17.0327 3.57169 16.79 3.67225C16.5473 3.77281 16.3267 3.9202 16.141 4.106L9.77702 10.47H9.77802ZM6.27502 16.87L4.38002 18.765L6.03302 19.916L7.67702 18.272L6.27502 16.87ZM20.384 2.692L21.798 4.106C22.1695 4.47744 22.4641 4.9184 22.6652 5.40372C22.8662 5.88904 22.9697 6.4092 22.9697 6.9345C22.9697 7.45981 22.8662 7.97997 22.6652 8.46528C22.4641 8.9506 22.1695 9.39156 21.798 9.763L14.02 17.541L9.80002 18.978L6.26402 22.513L1.27802 19.04L5.56902 14.748L6.95002 10.47L14.728 2.692C15.0995 2.32054 15.5404 2.02589 16.0257 1.82486C16.511 1.62383 17.0312 1.52036 17.5565 1.52036C18.0818 1.52036 18.602 1.62383 19.0873 1.82486C19.5726 2.02589 20.0136 2.32054 20.385 2.692H20.384Z" fill="black"/>
</svg>
