<svg width="24" height="24" viewBox="0 0 24 24" fill="none" xmlns="http://www.w3.org/2000/svg">
<path d="M14.106 11H18.059C18.605 11 19.047 11.448 19.047 12C19.047 12.552 18.605 13 18.059 13H13.118C12.9875 12.9992 12.8584 12.9727 12.7381 12.922C12.6178 12.8714 12.5086 12.7975 12.4169 12.7046C12.3252 12.6118 12.2526 12.5017 12.2034 12.3808C12.1542 12.2599 12.1292 12.1305 12.13 12V6C12.13 5.448 12.572 5 13.118 5C13.664 5 14.106 5.448 14.106 6V11ZM20.106 4.929C21.9659 6.81183 23.0061 9.35348 23 12C23 17.523 18.576 22 13.118 22V20C17.484 20 21.024 16.418 21.024 12C21.0291 9.88253 20.1965 7.84899 18.708 6.343C17.9786 5.60074 17.1086 5.01126 16.1488 4.60898C15.189 4.20669 14.1587 3.99967 13.118 4C9.57401 4 6.57401 6.36 5.57101 9.612L6.92301 8.689C7.03049 8.61562 7.1515 8.56436 7.27898 8.53821C7.40646 8.51205 7.53787 8.51153 7.66556 8.53665C7.79325 8.56178 7.91466 8.61206 8.02273 8.68457C8.1308 8.75708 8.22335 8.85037 8.29501 8.959C8.44169 9.17907 8.49591 9.44801 8.44595 9.70772C8.39599 9.96742 8.24587 10.1971 8.02801 10.347L4.75101 12.584C4.64354 12.6574 4.52253 12.7086 4.39505 12.7348C4.26757 12.7609 4.13616 12.7615 4.00847 12.7363C3.88078 12.7112 3.75937 12.6609 3.6513 12.5884C3.54323 12.5159 3.45068 12.4226 3.37901 12.314L1.17001 8.998C1.02302 8.77785 0.968628 8.50868 1.0186 8.24873C1.06857 7.98878 1.21888 7.75896 1.43701 7.609C1.54449 7.53562 1.6655 7.48436 1.79298 7.45821C1.92046 7.43205 2.05187 7.43153 2.17956 7.45665C2.30725 7.48178 2.42866 7.53206 2.53673 7.60457C2.6448 7.67708 2.73735 7.77037 2.80901 7.879L3.64801 9.138C4.86301 5.01 8.64301 2 13.118 2C15.847 2 18.318 3.12 20.106 4.929Z" fill="black"/>
</svg>
