<svg width="24" height="24" viewBox="0 0 24 24" fill="none" xmlns="http://www.w3.org/2000/svg">
<path d="M17 20C17.2652 20 17.5196 20.1054 17.7071 20.2929C17.8946 20.4804 18 20.7348 18 21C18 21.2652 17.8946 21.5196 17.7071 21.7071C17.5196 21.8946 17.2652 22 17 22H7C6.73478 22 6.48043 21.8946 6.29289 21.7071C6.10536 21.5196 6 21.2652 6 21C6 20.7348 6.10536 20.4804 6.29289 20.2929C6.48043 20.1054 6.73478 20 7 20V16C6.99922 15.2236 7.17961 14.4578 7.52681 13.7634C7.87401 13.069 8.37844 12.4652 9 12C8.37856 11.5347 7.87421 10.9309 7.52702 10.2365C7.17983 9.54212 6.99938 8.77633 7 8V4C6.73478 4 6.48043 3.89464 6.29289 3.70711C6.10536 3.51957 6 3.26522 6 3C6 2.73478 6.10536 2.48043 6.29289 2.29289C6.48043 2.10536 6.73478 2 7 2H17C17.2652 2 17.5196 2.10536 17.7071 2.29289C17.8946 2.48043 18 2.73478 18 3C18 3.26522 17.8946 3.51957 17.7071 3.70711C17.5196 3.89464 17.2652 4 17 4V8C17.0006 8.77633 16.8202 9.54212 16.473 10.2365C16.1258 10.9309 15.6214 11.5347 15 12C15.6216 12.4652 16.126 13.069 16.4732 13.7634C16.8204 14.4578 17.0008 15.2236 17 16V20Z" fill="black"/>
</svg>
