<svg width="24" height="24" viewBox="0 0 24 24" fill="none" xmlns="http://www.w3.org/2000/svg">
<path d="M13 16V21C13 21.2652 12.8946 21.5196 12.7071 21.7071C12.5196 21.8946 12.2652 22 12 22C11.7348 22 11.4804 21.8946 11.2929 21.7071C11.1054 21.5196 11 21.2652 11 21V16H10C9.20435 16 8.44129 15.6839 7.87868 15.1213C7.31607 14.5587 7 13.7956 7 13V7C7 5.67392 7.52678 4.40215 8.46447 3.46447C9.40215 2.52678 10.6739 2 12 2C13.3261 2 14.5979 2.52678 15.5355 3.46447C16.4732 4.40215 17 5.67392 17 7V13C17 13.7956 16.6839 14.5587 16.1213 15.1213C15.5587 15.6839 14.7956 16 14 16H13Z" fill="black"/>
</svg>
