<svg width="24" height="24" viewBox="0 0 24 24" fill="none" xmlns="http://www.w3.org/2000/svg">
<path d="M4 5.5H20C21.105 5.5 22 6.331 22 7.357V16.643C22 17.669 21.105 18.5 20 18.5H4C2.895 18.5 2 17.669 2 16.643V7.357C2 6.331 2.895 5.5 4 5.5ZM13 8.5C12.7348 8.5 12.4804 8.60536 12.2929 8.79289C12.1054 8.98043 12 9.23478 12 9.5C12 9.76522 12.1054 10.0196 12.2929 10.2071C12.4804 10.3946 12.7348 10.5 13 10.5H19C19.2652 10.5 19.5196 10.3946 19.7071 10.2071C19.8946 10.0196 20 9.76522 20 9.5C20 9.23478 19.8946 8.98043 19.7071 8.79289C19.5196 8.60536 19.2652 8.5 19 8.5H13ZM13 11.5C12.7348 11.5 12.4804 11.6054 12.2929 11.7929C12.1054 11.9804 12 12.2348 12 12.5C12 12.7652 12.1054 13.0196 12.2929 13.2071C12.4804 13.3946 12.7348 13.5 13 13.5H19C19.2652 13.5 19.5196 13.3946 19.7071 13.2071C19.8946 13.0196 20 12.7652 20 12.5C20 12.2348 19.8946 11.9804 19.7071 11.7929C19.5196 11.6054 19.2652 11.5 19 11.5H13ZM5 8.5C4.73478 8.5 4.48043 8.60536 4.29289 8.79289C4.10536 8.98043 4 9.23478 4 9.5V12.5C4 12.7652 4.10536 13.0196 4.29289 13.2071C4.48043 13.3946 4.73478 13.5 5 13.5H8C8.26522 13.5 8.51957 13.3946 8.70711 13.2071C8.89464 13.0196 9 12.7652 9 12.5V9.5C9 9.23478 8.89464 8.98043 8.70711 8.79289C8.51957 8.60536 8.26522 8.5 8 8.5H5Z" fill="black"/>
</svg>
