<svg width="24" height="24" viewBox="0 0 24 24" fill="none" xmlns="http://www.w3.org/2000/svg">
<path d="M22 8V13H2V8H8.126C8.34844 8.85824 8.84957 9.61832 9.55074 10.1609C10.2519 10.7035 11.1134 10.9979 12 10.9979C12.8866 10.9979 13.7481 10.7035 14.4493 10.1609C15.1504 9.61832 15.6516 8.85824 15.874 8H22ZM22 6H2L7 2H17L22 6ZM22 15V20C22 20.5304 21.7893 21.0391 21.4142 21.4142C21.0391 21.7893 20.5304 22 20 22H4C3.46957 22 2.96086 21.7893 2.58579 21.4142C2.21071 21.0391 2 20.5304 2 20V15H8.126C8.34844 15.8582 8.84957 16.6183 9.55074 17.1609C10.2519 17.7035 11.1134 17.9979 12 17.9979C12.8866 17.9979 13.7481 17.7035 14.4493 17.1609C15.1504 16.6183 15.6516 15.8582 15.874 15H22ZM10.268 15H13.732C13.5565 15.304 13.304 15.5565 13 15.732C12.6959 15.9075 12.3511 15.9999 12 15.9999C11.6489 15.9999 11.3041 15.9075 11 15.732C10.696 15.5565 10.4435 15.304 10.268 15ZM10.266 8.012H13.73C13.5545 8.31601 13.302 8.56847 12.998 8.74399C12.6939 8.91951 12.3491 9.01191 11.998 9.01191C11.6469 9.01191 11.3021 8.91951 10.998 8.74399C10.694 8.56847 10.4415 8.31601 10.266 8.012Z" fill="black"/>
</svg>
