<svg width="24" height="24" viewBox="0 0 24 24" fill="none" xmlns="http://www.w3.org/2000/svg">
<path d="M4 6.961V20H20V6.961L16.298 4H7.702L4 6.961ZM2 6L7 2H17L22 6V20C22 20.5304 21.7893 21.0391 21.4142 21.4142C21.0391 21.7893 20.5304 22 20 22H4C3.46957 22 2.96086 21.7893 2.58579 21.4142C2.21071 21.0391 2 20.5304 2 20V6ZM15.874 8C15.6516 8.85824 15.1504 9.61832 14.4493 10.1609C13.7481 10.7035 12.8866 10.9979 12 10.9979C11.1134 10.9979 10.2519 10.7035 9.55074 10.1609C8.84957 9.61832 8.34844 8.85824 8.126 8H4V6H20V8H15.874ZM13.732 8H10.268C10.4435 8.30401 10.696 8.55647 11 8.73199C11.3041 8.90751 11.6489 8.99991 12 8.99991C12.3511 8.99991 12.6959 8.90751 13 8.73199C13.304 8.55647 13.5565 8.30401 13.732 8ZM15.874 15C15.6516 15.8582 15.1504 16.6183 14.4493 17.1609C13.7481 17.7035 12.8866 17.9979 12 17.9979C11.1134 17.9979 10.2519 17.7035 9.55074 17.1609C8.84957 16.6183 8.34844 15.8582 8.126 15H4V13H20V15H15.874ZM13.732 15H10.268C10.4435 15.304 10.696 15.5565 11 15.732C11.3041 15.9075 11.6489 15.9999 12 15.9999C12.3511 15.9999 12.6959 15.9075 13 15.732C13.304 15.5565 13.5565 15.304 13.732 15Z" fill="black"/>
</svg>
