<svg width="24" height="24" viewBox="0 0 24 24" fill="none" xmlns="http://www.w3.org/2000/svg">
<path d="M4 10.702V17H20V10.702L17.039 7H6.96L4 10.702ZM2 10L6 5H18L22 10V17C22 17.5304 21.7893 18.0391 21.4142 18.4142C21.0391 18.7893 20.5304 19 20 19H4C3.46957 19 2.96086 18.7893 2.58579 18.4142C2.21071 18.0391 2 17.5304 2 17V10ZM15.874 12C15.6516 12.8582 15.1504 13.6183 14.4493 14.1609C13.7481 14.7035 12.8866 14.9979 12 14.9979C11.1134 14.9979 10.2519 14.7035 9.55074 14.1609C8.84957 13.6183 8.34844 12.8582 8.126 12H4V10H20V12H15.874ZM13.732 12H10.268C10.4435 12.304 10.696 12.5565 11 12.732C11.3041 12.9075 11.6489 12.9999 12 12.9999C12.3511 12.9999 12.6959 12.9075 13 12.732C13.304 12.5565 13.5565 12.304 13.732 12Z" fill="black"/>
</svg>
