<svg width="24" height="24" viewBox="0 0 24 24" fill="none" xmlns="http://www.w3.org/2000/svg">
<path d="M22 10H2L6 5H18L22 10ZM22 12V17C22 17.5304 21.7893 18.0391 21.4142 18.4142C21.0391 18.7893 20.5304 19 20 19H4C3.46957 19 2.96086 18.7893 2.58579 18.4142C2.21071 18.0391 2 17.5304 2 17V12H8.126C8.34844 12.8582 8.84957 13.6183 9.55074 14.1609C10.2519 14.7035 11.1134 14.9979 12 14.9979C12.8866 14.9979 13.7481 14.7035 14.4493 14.1609C15.1504 13.6183 15.6516 12.8582 15.874 12H22ZM10.265 12H13.73C13.5545 12.3042 13.302 12.5569 12.9979 12.7326C12.6938 12.9083 12.3487 13.0008 11.9975 13.0008C11.6463 13.0008 11.3012 12.9083 10.9971 12.7326C10.693 12.5569 10.4405 12.3042 10.265 12Z" fill="black"/>
</svg>
