<svg width="24" height="24" viewBox="0 0 24 24" fill="none" xmlns="http://www.w3.org/2000/svg">
<path d="M6.5 7H18.5C18.7652 7 19.0196 7.10536 19.2071 7.29289C19.3946 7.48043 19.5 7.73478 19.5 8C19.5 8.26522 19.3946 8.51957 19.2071 8.70711C19.0196 8.89464 18.7652 9 18.5 9H6.5C6.23479 9 5.98043 8.89464 5.7929 8.70711C5.60536 8.51957 5.5 8.26522 5.5 8C5.5 7.73478 5.60536 7.48043 5.7929 7.29289C5.98043 7.10536 6.23479 7 6.5 7V7ZM6.5 15H18.5C18.7652 15 19.0196 15.1054 19.2071 15.2929C19.3946 15.4804 19.5 15.7348 19.5 16C19.5 16.2652 19.3946 16.5196 19.2071 16.7071C19.0196 16.8946 18.7652 17 18.5 17H6.5C6.23479 17 5.98043 16.8946 5.7929 16.7071C5.60536 16.5196 5.5 16.2652 5.5 16C5.5 15.7348 5.60536 15.4804 5.7929 15.2929C5.98043 15.1054 6.23479 15 6.5 15ZM12.5 11H18.5C18.7652 11 19.0196 11.1054 19.2071 11.2929C19.3946 11.4804 19.5 11.7348 19.5 12C19.5 12.2652 19.3946 12.5196 19.2071 12.7071C19.0196 12.8946 18.7652 13 18.5 13H12.5C12.2348 13 11.9804 12.8946 11.7929 12.7071C11.6054 12.5196 11.5 12.2652 11.5 12C11.5 11.7348 11.6054 11.4804 11.7929 11.2929C11.9804 11.1054 12.2348 11 12.5 11ZM8.94 12.857L6.882 14.091C6.73028 14.1822 6.55709 14.2314 6.38011 14.2337C6.20313 14.236 6.0287 14.1913 5.87464 14.1042C5.72059 14.0171 5.59242 13.8906 5.50324 13.7377C5.41405 13.5848 5.36704 13.411 5.367 13.234V10.766C5.36704 10.589 5.41405 10.4152 5.50324 10.2623C5.59242 10.1094 5.72059 9.98294 5.87464 9.8958C6.0287 9.80865 6.20313 9.76396 6.38011 9.76628C6.55709 9.7686 6.73028 9.81785 6.882 9.909L8.938 11.143C9.08586 11.2319 9.20819 11.3575 9.29312 11.5077C9.37805 11.6579 9.42269 11.8275 9.42269 12C9.42269 12.1725 9.37805 12.3421 9.29312 12.4923C9.20819 12.6425 9.08586 12.7681 8.938 12.857H8.94Z" fill="black"/>
</svg>
