<svg width="24" height="24" viewBox="0 0 24 24" fill="none" xmlns="http://www.w3.org/2000/svg">
<path d="M7.5 15.5C7.95963 15.5 8.41475 15.4095 8.83939 15.2336C9.26403 15.0577 9.64987 14.7999 9.97487 14.4749C10.2999 14.1499 10.5577 13.764 10.7336 13.3394C10.9095 12.9148 11 12.4596 11 12C11 11.5404 10.9095 11.0852 10.7336 10.6606C10.5577 10.236 10.2999 9.85013 9.97487 9.52512C9.64987 9.20012 9.26403 8.94231 8.83939 8.76642C8.41475 8.59053 7.95963 8.5 7.5 8.5C6.57174 8.5 5.6815 8.86875 5.02513 9.52512C4.36875 10.1815 4 11.0717 4 12C4 12.9283 4.36875 13.8185 5.02513 14.4749C5.6815 15.1312 6.57174 15.5 7.5 15.5ZM13 12C13.0001 12.8334 13.2975 13.6394 13.8388 14.273C14.3802 14.9067 15.1298 15.3264 15.9529 15.4566C16.7761 15.5869 17.6187 15.4192 18.3292 14.9836C19.0397 14.5481 19.5715 13.8733 19.8289 13.0807C20.0863 12.288 20.0524 11.4296 19.7333 10.6597C19.4143 9.88981 18.831 9.25903 18.0884 8.88082C17.3458 8.50261 16.4926 8.4018 15.6823 8.59651C14.8719 8.79122 14.1577 9.26868 13.668 9.943C13.441 9.26298 13.1027 8.62532 12.667 8.056C13.4738 7.27205 14.5016 6.75435 15.6117 6.5727C16.7219 6.39104 17.8611 6.55418 18.8756 7.04011C19.8902 7.52603 20.7314 8.31138 21.2857 9.29025C21.8401 10.2691 22.0809 11.3944 21.9758 12.5144C21.8707 13.6344 21.4247 14.6953 20.6979 15.5539C19.9711 16.4126 18.9985 17.0277 17.9112 17.3163C16.8239 17.605 15.6743 17.5533 14.6173 17.1683C13.5603 16.7833 12.6468 16.0834 12 15.163C11.2449 16.2375 10.1303 17.0063 8.85768 17.3305C7.58506 17.6547 6.23844 17.5128 5.06133 16.9305C3.88421 16.3482 2.95431 15.364 2.43975 14.1557C1.9252 12.9474 1.85997 11.5949 2.25585 10.3428C2.65173 9.09058 3.4826 8.02139 4.5982 7.32851C5.71381 6.63563 7.04053 6.36481 8.33844 6.565C9.63636 6.7652 10.8198 7.42321 11.6748 8.42004C12.5298 9.41688 12.9998 10.6867 13 12Z" fill="black"/>
</svg>
