<svg width="24" height="24" viewBox="0 0 24 24" fill="none" xmlns="http://www.w3.org/2000/svg">
<path d="M18 10.322V4H6V16H9.576L13.546 10.708C13.7992 10.3705 14.1207 10.0902 14.4896 9.88543C14.8585 9.68064 15.2664 9.55596 15.6867 9.51954C16.1071 9.48311 16.5304 9.53575 16.929 9.67403C17.3276 9.8123 17.6925 10.0331 18 10.322ZM18 14.075L16.812 12.009C16.7294 11.8655 16.6126 11.7448 16.4718 11.6576C16.3311 11.5704 16.1709 11.5195 16.0057 11.5095C15.8405 11.4995 15.6753 11.5307 15.5251 11.6002C15.3749 11.6698 15.2443 11.7755 15.145 11.908L12.076 16H18V14.075ZM18 18H6V20H18V18ZM6 2H18C18.5304 2 19.0391 2.21071 19.4142 2.58579C19.7893 2.96086 20 3.46957 20 4V20C20 20.5304 19.7893 21.0391 19.4142 21.4142C19.0391 21.7893 18.5304 22 18 22H6C5.46957 22 4.96086 21.7893 4.58579 21.4142C4.21071 21.0391 4 20.5304 4 20V4C4 3.46957 4.21071 2.96086 4.58579 2.58579C4.96086 2.21071 5.46957 2 6 2V2ZM10 11C9.20435 11 8.44129 10.6839 7.87868 10.1213C7.31607 9.55871 7 8.79565 7 8C7 7.20435 7.31607 6.44129 7.87868 5.87868C8.44129 5.31607 9.20435 5 10 5C10.7956 5 11.5587 5.31607 12.1213 5.87868C12.6839 6.44129 13 7.20435 13 8C13 8.79565 12.6839 9.55871 12.1213 10.1213C11.5587 10.6839 10.7956 11 10 11ZM10 9C10.2652 9 10.5196 8.89464 10.7071 8.70711C10.8946 8.51957 11 8.26522 11 8C11 7.73478 10.8946 7.48043 10.7071 7.29289C10.5196 7.10536 10.2652 7 10 7C9.73478 7 9.48043 7.10536 9.29289 7.29289C9.10536 7.48043 9 7.73478 9 8C9 8.26522 9.10536 8.51957 9.29289 8.70711C9.48043 8.89464 9.73478 9 10 9Z" fill="black"/>
</svg>
