<svg width="24" height="24" viewBox="0 0 24 24" fill="none" xmlns="http://www.w3.org/2000/svg">
<path d="M20 13.252L18.546 11.012C18.2984 10.5817 17.9478 10.2196 17.5258 9.95807C17.1037 9.6966 16.6234 9.54395 16.1278 9.51382C15.6323 9.48369 15.137 9.57702 14.6864 9.78544C14.2358 9.99386 13.8439 10.3109 13.546 10.708L9.575 16H4V4C4 3.46957 4.21071 2.96086 4.58579 2.58579C4.96086 2.21071 5.46957 2 6 2H18C18.5304 2 19.0391 2.21071 19.4142 2.58579C19.7893 2.96086 20 3.46957 20 4V13.252ZM12.076 16L15.146 11.908C15.2453 11.7757 15.3759 11.6702 15.526 11.6008C15.6761 11.5314 15.8411 11.5003 16.0062 11.5103C16.1713 11.5203 16.3313 11.5711 16.4719 11.6581C16.6125 11.7452 16.7294 11.8657 16.812 12.009L19.284 16H12.076ZM20 18V20C20 20.5304 19.7893 21.0391 19.4142 21.4142C19.0391 21.7893 18.5304 22 18 22H6C5.46957 22 4.96086 21.7893 4.58579 21.4142C4.21071 21.0391 4 20.5304 4 20V18H20ZM10 11C10.7956 11 11.5587 10.6839 12.1213 10.1213C12.6839 9.55871 13 8.79565 13 8C13 7.20435 12.6839 6.44129 12.1213 5.87868C11.5587 5.31607 10.7956 5 10 5C9.20435 5 8.44129 5.31607 7.87868 5.87868C7.31607 6.44129 7 7.20435 7 8C7 8.79565 7.31607 9.55871 7.87868 10.1213C8.44129 10.6839 9.20435 11 10 11Z" fill="black"/>
</svg>
