<svg width="24" height="24" viewBox="0 0 24 24" fill="none" xmlns="http://www.w3.org/2000/svg">
<g clip-path="url(#clip0_201_31582)">
<path d="M8.39939 24C7.13987 23.9992 5.89659 23.5938 4.76157 22.8138C3.62655 22.0338 2.62885 20.8991 1.8423 19.4937C1.05576 18.0884 0.500501 16.4484 0.217632 14.695C-0.0652372 12.9416 -0.0684787 11.1199 0.208147 9.36448C0.484773 7.60909 1.03418 5.96503 1.81572 4.554C2.59726 3.14296 3.59091 2.00105 4.72314 1.2128C5.85537 0.424543 7.09719 0.0101136 8.35669 0.000182798C9.6162 -0.00974805 10.8611 0.385074 11.9994 1.15543C13.2797 0.289293 14.6926 -0.1002 16.1066 0.0231768C17.5206 0.146554 18.8897 0.778792 20.0868 1.86109C21.2838 2.94338 22.2698 4.44057 22.953 6.2134C23.6362 7.98623 23.9945 9.97711 23.9945 12.0009C23.9945 14.0246 23.6362 16.0155 22.953 17.7883C22.2698 19.5611 21.2838 21.0583 20.0868 22.1406C18.8897 23.2229 17.5206 23.8552 16.1066 23.9785C14.6926 24.1019 13.2797 23.7124 11.9994 22.8463C10.8744 23.6087 9.64453 24.0029 8.39939 24ZM8.39939 3.42857C7.56112 3.42977 6.73232 3.6819 5.96642 4.1687C5.20053 4.6555 4.51454 5.36617 3.95267 6.25489C3.39081 7.14362 2.96554 8.19068 2.70427 9.32857C2.44301 10.4665 2.35155 11.6699 2.4358 12.8614C2.52005 14.0529 2.77812 15.2059 3.1934 16.2462C3.60867 17.2865 4.17193 18.1909 4.84685 18.9011C5.52178 19.6114 6.29339 20.1117 7.11196 20.3699C7.93053 20.628 8.77788 20.6383 9.59939 20.4C8.05821 18.1589 7.19611 15.1416 7.19939 12C7.1965 8.85849 8.05854 5.84136 9.59939 3.6C9.20441 3.48569 8.8024 3.42826 8.39939 3.42857ZM16.7994 12C16.8027 15.1416 15.9406 18.1589 14.3994 20.4C15.2708 20.6528 16.1707 20.6257 17.0339 20.3207C17.8971 20.0158 18.702 19.4405 19.3905 18.6366C20.079 17.8327 20.6338 16.8203 21.0148 15.6725C21.3957 14.5247 21.5934 13.2703 21.5934 12C21.5934 10.7297 21.3957 9.47531 21.0148 8.32752C20.6338 7.17974 20.079 6.16728 19.3905 5.36337C18.702 4.55947 17.8971 3.98423 17.0339 3.67926C16.1707 3.37429 15.2708 3.34721 14.3994 3.6C15.9406 5.84105 16.8027 8.85838 16.7994 12Z" fill="black"/>
</g>
<defs>
<clipPath id="clip0_201_31582">
<rect width="24" height="24" fill="white"/>
</clipPath>
</defs>
</svg>
