<svg width="24" height="24" viewBox="0 0 24 24" fill="none" xmlns="http://www.w3.org/2000/svg">
<path d="M11.915 15H13V9.874C12.0595 9.62827 11.2406 9.04864 10.6962 8.24333C10.1518 7.43802 9.9191 6.4621 10.0416 5.49778C10.164 4.53346 10.6333 3.64669 11.3617 3.00303C12.0901 2.35937 13.0279 2.00284 14 2C14.9743 1.99904 15.9154 2.35369 16.6467 2.99738C17.3781 3.64107 17.8493 4.52954 17.9721 5.49605C18.0948 6.46255 17.8606 7.44062 17.3134 8.24669C16.7662 9.05276 15.9436 9.6314 15 9.874V15H17C17.7956 15 18.5587 15.3161 19.1213 15.8787C19.6839 16.4413 20 17.2044 20 18V22H4V18C4 17.2044 4.31607 16.4413 4.87868 15.8787C5.44129 15.3161 6.20435 15 7 15H7.085C7.18844 14.7074 7.38008 14.4541 7.63351 14.275C7.88694 14.0959 8.18967 13.9998 8.5 14H10.5C10.8103 13.9998 11.1131 14.0959 11.3665 14.275C11.6199 14.4541 11.8116 14.7074 11.915 15Z" fill="black"/>
</svg>
