<svg width="24" height="24" viewBox="0 0 24 24" fill="none" xmlns="http://www.w3.org/2000/svg">
<path d="M11.026 18.609L8.90501 16.487C8.8121 16.3941 8.7018 16.3204 8.58041 16.2701C8.45901 16.2198 8.32891 16.1939 8.19751 16.1939C8.06612 16.1939 7.93601 16.2198 7.81461 16.2701C7.69322 16.3204 7.58292 16.3941 7.49001 16.487C7.3971 16.5799 7.3234 16.6902 7.27312 16.8116C7.22284 16.933 7.19695 17.0631 7.19695 17.1945C7.19695 17.3259 7.22284 17.456 7.27312 17.5774C7.3234 17.6988 7.3971 17.8091 7.49001 17.902L9.61201 20.022L7.13701 22.498L2.70701 22.202C2.4654 22.1861 2.23776 22.0831 2.06636 21.912C1.89496 21.741 1.79144 21.5136 1.77501 21.272L1.48001 16.84L8.37801 9.942C8.11541 8.47507 8.32783 6.96262 8.98434 5.62477C9.64085 4.28692 10.7072 3.19351 12.0282 2.50367C13.3491 1.81383 14.8558 1.56357 16.3288 1.78931C17.8019 2.01506 19.1645 2.70502 20.2182 3.75879C21.272 4.81255 21.962 6.17512 22.1877 7.64817C22.4134 9.12122 22.1632 10.6279 21.4733 11.9488C20.7835 13.2698 19.6901 14.3362 18.3522 14.9927C17.0144 15.6492 15.5019 15.8616 14.035 15.599L11.025 18.608L11.026 18.609ZM14.561 9.416C14.7467 9.60176 14.9672 9.74912 15.2098 9.84967C15.4524 9.95023 15.7125 10.002 15.9752 10.0021C16.2378 10.0021 16.4979 9.95041 16.7406 9.84995C16.9832 9.74948 17.2038 9.60219 17.3895 9.4165C17.5753 9.23081 17.7226 9.01036 17.8232 8.76772C17.9237 8.52508 17.9755 8.26501 17.9756 8.00236C17.9756 7.73971 17.9239 7.47962 17.8235 7.23694C17.723 6.99427 17.5757 6.77376 17.39 6.588C17.015 6.21285 16.5063 6.00205 15.9759 6.00195C15.4454 6.00186 14.9367 6.21249 14.5615 6.5875C14.1864 6.96252 13.9756 7.4712 13.9755 8.00165C13.9754 8.5321 14.186 9.04085 14.561 9.416Z" fill="black"/>
</svg>
