<svg width="24" height="24" viewBox="0 0 24 24" fill="none" xmlns="http://www.w3.org/2000/svg">
<path d="M9.61201 17.337L13.358 13.59L14.385 13.773C15.4329 13.9609 16.5134 13.8094 17.4692 13.3407C18.425 12.8719 19.2063 12.1103 19.6992 11.1667C20.1922 10.2231 20.3711 9.14678 20.2099 8.09446C20.0487 7.04215 19.5558 6.06874 18.803 5.31597C18.0503 4.56319 17.0769 4.07033 16.0246 3.90914C14.9722 3.74796 13.8959 3.92685 12.9523 4.41979C12.0088 4.91273 11.2471 5.69398 10.7784 6.64981C10.3096 7.60563 10.1581 8.68613 10.346 9.734L10.53 10.762L3.53601 17.756L3.71301 20.407L6.36401 20.584L8.19701 18.751L7.49001 18.044C7.3025 17.8564 7.19721 17.6019 7.19731 17.3366C7.1974 17.0714 7.30287 16.817 7.49051 16.6295C7.67815 16.442 7.93259 16.3367 8.19786 16.3368C8.46313 16.3369 8.7175 16.4424 8.90501 16.63L9.61201 17.337ZM10.319 3.902C11.1702 3.05086 12.2264 2.43358 13.3857 2.10979C14.5451 1.78599 15.7683 1.76661 16.9373 2.05353C18.1063 2.34045 19.1816 2.92396 20.0592 3.74772C20.9369 4.57148 21.5873 5.60764 21.9477 6.75613C22.3081 7.90462 22.3662 9.12663 22.1164 10.3041C21.8667 11.4816 21.3175 12.5748 20.522 13.4782C19.7264 14.3815 18.7114 15.0644 17.5749 15.461C16.4384 15.8575 15.2188 15.9543 14.034 15.742L7.13701 22.64L2.70701 22.345C2.46508 22.329 2.23718 22.2257 2.06573 22.0543C1.89429 21.8828 1.79097 21.6549 1.77501 21.413L1.48001 16.983L8.37801 10.085C8.17843 8.97434 8.25064 7.83188 8.58847 6.75519C8.9263 5.67849 9.5197 4.69956 10.318 3.902H10.319ZM14.561 9.558C14.186 9.18285 13.9754 8.6741 13.9755 8.14365C13.9756 7.6132 14.1864 7.10452 14.5615 6.7295C14.9367 6.35449 15.4454 6.14386 15.9759 6.14395C16.5063 6.14404 17.015 6.35485 17.39 6.73C17.765 7.10515 17.9757 7.61391 17.9756 8.14436C17.9755 8.6748 17.7647 9.18349 17.3895 9.5585C17.0144 9.93352 16.5056 10.1441 15.9752 10.1441C15.4447 10.144 14.936 9.93315 14.561 9.558Z" fill="black"/>
</svg>
