<svg width="24" height="24" viewBox="0 0 24 24" fill="none" xmlns="http://www.w3.org/2000/svg">
<path d="M5 5H19C19.7956 5 20.5587 5.31607 21.1213 5.87868C21.6839 6.44129 22 7.20435 22 8V16C22 16.7956 21.6839 17.5587 21.1213 18.1213C20.5587 18.6839 19.7956 19 19 19H5C4.20435 19 3.44129 18.6839 2.87868 18.1213C2.31607 17.5587 2 16.7956 2 16V8C2 7.20435 2.31607 6.44129 2.87868 5.87868C3.44129 5.31607 4.20435 5 5 5V5ZM5 11V13H7V11H5ZM5 8V10H7V8H5ZM5 14V16H7V14H5ZM8 14V16H16V14H8ZM8 11V13H10V11H8ZM8 8V10H10V8H8ZM11 11V13H13V11H11ZM11 8V10H13V8H11ZM17 14V16H19V14H17ZM14 11V13H16V11H14ZM14 8V10H16V8H14ZM17 8V13H19V8H17Z" fill="black"/>
</svg>
