<svg width="24" height="24" viewBox="0 0 24 24" fill="none" xmlns="http://www.w3.org/2000/svg">
<path d="M12.138 4.78601L20.988 8.33701C21.1724 8.41103 21.3306 8.53834 21.4424 8.70267C21.5542 8.867 21.6144 9.06091 21.6155 9.25964C21.6166 9.45838 21.5584 9.65293 21.4484 9.81846C21.3384 9.98399 21.1816 10.113 20.998 10.189L12.148 13.853C11.9031 13.9544 11.6279 13.9544 11.383 13.853L2.532 10.19C2.34837 10.114 2.19156 9.98499 2.08158 9.81946C1.97159 9.65393 1.91342 9.45938 1.9145 9.26064C1.91557 9.06191 1.97583 8.868 2.0876 8.70367C2.19937 8.53934 2.35756 8.41203 2.542 8.33801L11.392 4.78601C11.6314 4.68978 11.8986 4.68978 12.138 4.78601ZM17.897 13.096L20.988 14.337C21.1724 14.411 21.3306 14.5383 21.4424 14.7027C21.5542 14.867 21.6144 15.0609 21.6155 15.2596C21.6166 15.4584 21.5584 15.6529 21.4484 15.8185C21.3384 15.984 21.1816 16.113 20.998 16.189L12.148 19.853C11.9031 19.9544 11.6279 19.9544 11.383 19.853L2.532 16.19C2.34837 16.114 2.19156 15.985 2.08158 15.8195C1.97159 15.6539 1.91342 15.4594 1.9145 15.2606C1.91557 15.0619 1.97583 14.868 2.0876 14.7037C2.19937 14.5393 2.35756 14.412 2.542 14.338L5.633 13.098L10.809 15.24C11.4212 15.4933 12.1088 15.4933 12.721 15.24L17.897 13.098V13.096Z" fill="black"/>
</svg>
