<svg width="24" height="24" viewBox="0 0 24 24" fill="none" xmlns="http://www.w3.org/2000/svg">
<path d="M4.81999 14.211C4.33776 13.1268 4.13926 11.9377 4.24317 10.7557C4.34708 9.57362 4.74999 8.43743 5.41399 7.45399C6.85599 5.31699 11.58 3.43299 19.584 1.80099C19.316 8.65199 18.462 13.146 17.021 15.283C16.0117 16.7793 14.4634 17.8279 12.6993 18.2099C10.9353 18.5919 9.09192 18.2777 7.55399 17.333C8.11477 16.3458 8.89062 15.4974 9.82399 14.851L10.331 14.499C10.767 14.1969 11.0652 13.734 11.1599 13.2121C11.2546 12.6902 11.1381 12.152 10.836 11.716C10.5339 11.28 10.071 10.9818 9.54908 10.8871C9.02717 10.7924 8.48901 10.9089 8.05299 11.211L7.54599 11.563C6.49755 12.2889 5.57644 13.1833 4.81999 14.21V14.211ZM5.56599 21.071C5.56599 21.3362 5.46064 21.5906 5.2731 21.7781C5.08556 21.9656 4.83121 22.071 4.56599 22.071C4.30078 22.071 4.04642 21.9656 3.85889 21.7781C3.67135 21.5906 3.56599 21.3362 3.56599 21.071C3.56599 17.605 5.26599 14.359 8.11599 12.385L8.62299 12.033C8.841 11.882 9.11008 11.8237 9.37104 11.8711C9.632 11.9184 9.86345 12.0675 10.0145 12.2855C10.1655 12.5035 10.2238 12.7726 10.1764 13.0335C10.1291 13.2945 9.98 13.526 9.76199 13.677L9.25499 14.029C8.11683 14.8173 7.18669 15.8698 6.54422 17.0962C5.90175 18.3226 5.5661 19.6865 5.56599 21.071Z" fill="black"/>
</svg>
