<svg width="24" height="24" viewBox="0 0 24 24" fill="none" xmlns="http://www.w3.org/2000/svg">
<path d="M3.76799 17.91C2.30124 16.1147 1.50003 13.8677 1.50003 11.5495C1.50003 9.23125 2.30124 6.98424 3.76799 5.18899L8.08599 9.50699C7.72168 10.126 7.52957 10.8312 7.52957 11.5495C7.52957 12.2678 7.72168 12.973 8.08599 13.592L3.76799 17.91ZM5.18799 19.331L9.50799 15.013C10.1269 15.3771 10.8319 15.5691 11.55 15.5691C12.2681 15.5691 12.9731 15.3771 13.592 15.013L17.91 19.331C16.1147 20.7977 13.8677 21.599 11.5495 21.599C9.23125 21.599 6.98424 20.7977 5.18899 19.331H5.18799ZM17.91 3.76799L13.592 8.08599C12.973 7.72168 12.2678 7.52957 11.5495 7.52957C10.8312 7.52957 10.126 7.72168 9.50699 8.08599L5.18999 3.76799C6.98516 2.3015 9.23197 1.50044 11.55 1.50044C13.868 1.50044 16.1148 2.3015 17.91 3.76799ZM19.331 5.18799C20.798 6.98332 21.5994 9.23053 21.5994 11.549C21.5994 13.8675 20.798 16.1147 19.331 17.91L15.013 13.592C15.3773 12.973 15.5694 12.2678 15.5694 11.5495C15.5694 10.8312 15.3773 10.126 15.013 9.50699L19.33 5.18999L19.331 5.18799Z" fill="black"/>
</svg>
