<svg width="24" height="24" viewBox="0 0 24 24" fill="none" xmlns="http://www.w3.org/2000/svg">
<path d="M12 20C14.1217 20 16.1566 19.1571 17.6569 17.6569C19.1571 16.1566 20 14.1217 20 12C20 9.87827 19.1571 7.84344 17.6569 6.34315C16.1566 4.84285 14.1217 4 12 4C9.87827 4 7.84344 4.84285 6.34315 6.34315C4.84285 7.84344 4 9.87827 4 12C4 14.1217 4.84285 16.1566 6.34315 17.6569C7.84344 19.1571 9.87827 20 12 20ZM12 22C6.477 22 2 17.523 2 12C2 6.477 6.477 2 12 2C17.523 2 22 6.477 22 12C22 17.523 17.523 22 12 22ZM15.446 9.968C15.1017 9.38474 14.6153 8.89826 14.032 8.554L17.657 4.929L19.071 6.343L15.446 9.968ZM9.968 15.446L6.343 19.071L4.929 17.657L8.554 14.032C8.89826 14.6153 9.38474 15.1017 9.968 15.446ZM9.968 8.554C9.38474 8.89826 8.89826 9.38474 8.554 9.968L4.929 6.343L6.343 4.93L9.968 8.555V8.554ZM14.704 14.948C13.9332 15.655 12.9162 16.032 11.8708 15.9981C10.8254 15.9643 9.83488 15.5223 9.11142 14.767C8.38797 14.0116 7.98916 13.0029 8.00044 11.9571C8.01172 10.9112 8.4322 9.91136 9.17178 9.17178C9.91136 8.4322 10.9112 8.01172 11.9571 8.00044C13.0029 7.98916 14.0116 8.38797 14.767 9.11142C15.5223 9.83488 15.9643 10.8254 15.9981 11.8708C16.032 12.9162 15.655 13.9332 14.948 14.704C15.141 14.494 15.307 14.269 15.446 14.032L18.32 16.906C17.9093 17.4343 17.4343 17.9093 16.906 18.32L14.032 15.446C14.269 15.306 14.494 15.141 14.704 14.948ZM12 14C12.5304 14 13.0391 13.7893 13.4142 13.4142C13.7893 13.0391 14 12.5304 14 12C14 11.4696 13.7893 10.9609 13.4142 10.5858C13.0391 10.2107 12.5304 10 12 10C11.4696 10 10.9609 10.2107 10.5858 10.5858C10.2107 10.9609 10 11.4696 10 12C10 12.5304 10.2107 13.0391 10.5858 13.4142C10.9609 13.7893 11.4696 14 12 14Z" fill="black"/>
</svg>
