<svg width="24" height="24" viewBox="0 0 24 24" fill="none" xmlns="http://www.w3.org/2000/svg">
<path d="M14 16V13.702L14.856 13.105C15.7298 12.4969 16.3868 11.6258 16.7311 10.6184C17.0755 9.61109 17.0894 8.52011 16.7708 7.50433C16.4521 6.48855 15.8175 5.601 14.9595 4.97087C14.1014 4.34075 13.0646 4.00095 12 4.00095C10.9354 4.00095 9.89861 4.34075 9.04053 4.97087C8.18246 5.601 7.5479 6.48855 7.22924 7.50433C6.91059 8.52011 6.92446 9.61109 7.26886 10.6184C7.61325 11.6258 8.27017 12.4969 9.144 13.105L10 13.702V16H11V8.00001C11 7.73479 11.1054 7.48044 11.2929 7.2929C11.4804 7.10536 11.7348 7.00001 12 7.00001C12.2652 7.00001 12.5196 7.10536 12.7071 7.2929C12.8946 7.48044 13 7.73479 13 8.00001V16H14ZM14 18H10V20H14V18ZM5 9.00001C5.00008 7.79638 5.31051 6.6131 5.90132 5.56445C6.49213 4.5158 7.34335 3.6372 8.37279 3.01351C9.40223 2.38982 10.5751 2.04211 11.7781 2.00396C12.9811 1.96581 14.1737 2.2385 15.2406 2.79571C16.3075 3.35291 17.2126 4.1758 17.8687 5.18491C18.5248 6.19402 18.9096 7.35525 18.9859 8.55646C19.0623 9.75766 18.8276 10.9583 18.3045 12.0423C17.7815 13.1264 16.9878 14.0572 16 14.745V20C16 20.5304 15.7893 21.0391 15.4142 21.4142C15.0391 21.7893 14.5304 22 14 22H10C9.46957 22 8.96086 21.7893 8.58579 21.4142C8.21072 21.0391 8 20.5304 8 20V14.745C7.07341 14.1006 6.31657 13.2415 5.79415 12.2411C5.27173 11.2407 4.99926 10.1286 5 9.00001Z" fill="black"/>
</svg>
