<svg width="24" height="24" viewBox="0 0 24 24" fill="none" xmlns="http://www.w3.org/2000/svg">
<path d="M16 16.065H13V8.06499C13 7.79978 12.8946 7.54542 12.7071 7.35789C12.5196 7.17035 12.2652 7.06499 12 7.06499C11.7348 7.06499 11.4804 7.17035 11.2929 7.35789C11.1054 7.54542 11 7.79978 11 8.06499V16.065H8V14.81C6.77702 13.9584 5.85772 12.7388 5.37592 11.3285C4.89412 9.9183 4.87496 8.39111 5.32123 6.96924C5.7675 5.54736 6.6559 4.30502 7.85714 3.42303C9.05837 2.54104 10.5097 2.06543 12 2.06543C13.4903 2.06543 14.9416 2.54104 16.1429 3.42303C17.3441 4.30502 18.2325 5.54736 18.6788 6.96924C19.125 8.39111 19.1059 9.9183 18.6241 11.3285C18.1423 12.7388 17.223 13.9584 16 14.81V16.065ZM16 18.065V20.065C16 20.5954 15.7893 21.1041 15.4142 21.4792C15.0391 21.8543 14.5304 22.065 14 22.065H10C9.46957 22.065 8.96086 21.8543 8.58579 21.4792C8.21071 21.1041 8 20.5954 8 20.065V18.065H16Z" fill="black"/>
</svg>
