<svg width="24" height="24" viewBox="0 0 24 24" fill="none" xmlns="http://www.w3.org/2000/svg">
<path d="M8.414 10.828H14.056C14.1873 10.828 14.3174 10.8539 14.4387 10.9041C14.56 10.9544 14.6702 11.028 14.7631 11.1209C14.856 11.2138 14.9296 11.324 14.9799 11.4453C15.0301 11.5666 15.056 11.6967 15.056 11.828C15.056 11.9593 15.0301 12.0894 14.9799 12.2107C14.9296 12.332 14.856 12.4422 14.7631 12.5351C14.6702 12.628 14.56 12.7016 14.4387 12.7519C14.3174 12.8021 14.1873 12.828 14.056 12.828H8.414L9.536 13.95C9.72351 14.1376 9.82879 14.3921 9.8287 14.6574C9.82861 14.9226 9.72314 15.177 9.5355 15.3645C9.34786 15.552 9.09341 15.6573 8.82814 15.6572C8.56287 15.6571 8.30851 15.5516 8.121 15.364L5.293 12.536C5.19966 12.4433 5.12558 12.3331 5.07503 12.2117C5.02448 12.0903 4.99846 11.96 4.99846 11.8285C4.99846 11.697 5.02448 11.5667 5.07503 11.4453C5.12558 11.3239 5.19966 11.2137 5.293 11.121L8.12 8.293C8.3075 8.10536 8.56187 7.99989 8.82714 7.9998C9.09241 7.9997 9.34686 8.10499 9.5345 8.2925C9.72214 8.48001 9.82761 8.73438 9.8277 8.99965C9.82779 9.26492 9.72251 9.51936 9.535 9.707L8.414 10.828ZM18 3C18.2652 3 18.5196 3.10536 18.7071 3.29289C18.8946 3.48043 19 3.73478 19 4V20C19 20.2652 18.8946 20.5196 18.7071 20.7071C18.5196 20.8946 18.2652 21 18 21C17.7348 21 17.4804 20.8946 17.2929 20.7071C17.1054 20.5196 17 20.2652 17 20V4C17 3.73478 17.1054 3.48043 17.2929 3.29289C17.4804 3.10536 17.7348 3 18 3V3Z" fill="black"/>
</svg>
