<svg width="24" height="24" viewBox="0 0 24 24" fill="none" xmlns="http://www.w3.org/2000/svg">
<g clip-path="url(#clip0_201_31636)">
<path d="M15.4285 4V22C15.4285 22.5304 15.2479 23.0391 14.9264 23.4142C14.6049 23.7893 14.1689 24 13.7142 24C13.2596 24 12.8236 23.7893 12.5021 23.4142C12.1806 23.0391 12 22.5304 12 22V12H10.2857C8.92171 12 7.6136 11.3679 6.64913 10.2426C5.68466 9.11742 5.14282 7.5913 5.14282 6C5.14282 4.4087 5.68466 2.88258 6.64913 1.75736C7.6136 0.632141 8.92171 0 10.2857 0L22.2857 0C22.7403 0 23.1764 0.210714 23.4979 0.585786C23.8194 0.960859 24 1.46957 24 2C24 2.53043 23.8194 3.03914 23.4979 3.41421C23.1764 3.78929 22.7403 4 22.2857 4H20.5714V22C20.5714 22.5304 20.3908 23.0391 20.0693 23.4142C19.7478 23.7893 19.3118 24 18.8571 24C18.4025 24 17.9664 23.7893 17.6449 23.4142C17.3234 23.0391 17.1428 22.5304 17.1428 22V4H15.4285ZM2.84054 18L0.486822 20.72C0.332883 20.8976 0.210673 21.1091 0.127266 21.3422C0.0438595 21.5753 0.000913069 21.8254 0.000913069 22.078C0.000913069 22.3306 0.0438595 22.5807 0.127266 22.8138C0.210673 23.0469 0.332883 23.2584 0.486822 23.436C0.800293 23.7972 1.22312 23.9997 1.66368 23.9997C2.10424 23.9997 2.52706 23.7972 2.84054 23.436L6.37025 19.36C6.52471 19.1823 6.64736 18.9706 6.73107 18.7371C6.81479 18.5036 6.85789 18.2531 6.85789 18C6.85789 17.7469 6.81479 17.4964 6.73107 17.2629C6.64736 17.0294 6.52471 16.8177 6.37025 16.64L2.83882 12.564C2.52542 12.2034 2.10297 12.0013 1.66282 12.0013C1.22268 12.0013 0.800219 12.2034 0.486822 12.564C0.332623 12.7417 0.210194 12.9533 0.126634 13.1866C0.0430736 13.4198 4.57764e-05 13.6702 4.57764e-05 13.923C4.57764e-05 14.1758 0.0430736 14.4262 0.126634 14.6594C0.210194 14.8927 0.332623 15.1043 0.486822 15.282L2.84054 18ZM12 4H10.2857C9.83102 4 9.39499 4.21071 9.0735 4.58579C8.752 4.96086 8.57139 5.46957 8.57139 6C8.57139 6.53043 8.752 7.03914 9.0735 7.41421C9.39499 7.78929 9.83102 8 10.2857 8H12V4Z" fill="black"/>
</g>
<defs>
<clipPath id="clip0_201_31636">
<rect width="24" height="24" fill="white"/>
</clipPath>
</defs>
</svg>
