<svg width="24" height="24" viewBox="0 0 24 24" fill="none" xmlns="http://www.w3.org/2000/svg">
<path d="M15.243 8.67201L18.778 5.13601L18.071 4.42901L14.536 7.96401L15.243 8.67201ZM13.828 10.086L13.121 9.37901L3.93 18.57L4.637 19.277L13.829 10.085L13.828 10.086ZM18.778 2.30801L20.899 4.42801C20.992 4.52088 21.0657 4.63117 21.1161 4.75257C21.1664 4.87396 21.1923 5.00409 21.1923 5.13551C21.1923 5.26692 21.1664 5.39705 21.1161 5.51845C21.0657 5.63984 20.992 5.75013 20.899 5.84301L5.343 21.4C5.15547 21.5875 4.90116 21.6928 4.636 21.6928C4.37083 21.6928 4.11652 21.5875 3.929 21.4L1.808 19.28C1.71502 19.1871 1.64126 19.0768 1.59094 18.9554C1.54061 18.834 1.51471 18.7039 1.51471 18.5725C1.51471 18.4411 1.54061 18.311 1.59094 18.1896C1.64126 18.0682 1.71502 17.9579 1.808 17.865L17.364 2.30801C17.5515 2.12054 17.8058 2.01522 18.071 2.01522C18.3362 2.01522 18.5905 2.12054 18.778 2.30801ZM9.586 1.60001L10.979 2.30401L12.414 1.60001L11.734 3.06001L12.414 4.42801L11.03 3.76401L9.586 4.42801L10.275 3.00801L9.585 1.60001H9.586ZM19.486 8.67001L20.879 9.37501L22.314 8.67101L21.634 10.131L22.314 11.499L20.93 10.835L19.485 11.499L20.175 10.079L19.485 8.67101L19.486 8.67001Z" fill="black"/>
</svg>
