<svg width="24" height="24" viewBox="0 0 24 24" fill="none" xmlns="http://www.w3.org/2000/svg">
<path d="M16.092 10.02L13.263 7.19201L17.506 2.95001C17.6935 2.76254 17.9478 2.65723 18.213 2.65723C18.4782 2.65723 18.7325 2.76254 18.92 2.95001L20.335 4.36401C20.5225 4.55154 20.6278 4.80585 20.6278 5.07101C20.6278 5.33618 20.5225 5.59048 20.335 5.77801L16.092 10.021V10.02ZM14.678 11.435L4.77801 21.335C4.59049 21.5225 4.33618 21.6278 4.07101 21.6278C3.80585 21.6278 3.55154 21.5225 3.36401 21.335L1.95001 19.92C1.76254 19.7325 1.65723 19.4782 1.65723 19.213C1.65723 18.9478 1.76254 18.6935 1.95001 18.506L11.85 8.60601L14.678 11.435ZM9.72801 2.24301L11.121 2.94701L12.556 2.24301L11.877 3.70301L12.557 5.07101L11.173 4.40701L9.72801 5.07101L10.417 3.65101L9.72701 2.24301H9.72801ZM19.628 9.31301L21.021 10.018L22.456 9.31401L21.776 10.774L22.456 12.142L21.072 11.478L19.627 12.142L20.317 10.722L19.627 9.31401L19.628 9.31301Z" fill="black"/>
</svg>
