<svg width="24" height="24" viewBox="0 0 24 24" fill="none" xmlns="http://www.w3.org/2000/svg">
<path d="M6.864 17.136C7.32756 17.6036 7.87891 17.9751 8.48641 18.2291C9.09391 18.4831 9.74559 18.6145 10.404 18.616C11.0625 18.6174 11.7147 18.4888 12.3233 18.2375C12.932 17.9862 13.4849 17.6171 13.9505 17.1515C14.4161 16.6859 14.7852 16.133 15.0365 15.5244C15.2878 14.9158 15.4164 14.2635 15.415 13.605C15.4135 12.9466 15.2821 12.2949 15.0281 11.6874C14.7741 11.0799 14.4026 10.5286 13.935 10.065C12.9959 9.13412 11.7263 8.61311 10.404 8.61601C9.08175 8.61891 7.81445 9.14546 6.87945 10.0805C5.94445 11.0155 5.4179 12.2828 5.415 13.605C5.4121 14.9273 5.93311 16.1969 6.864 17.136ZM14.592 7.99401L17.145 5.44101H15.628C15.3628 5.44101 15.1084 5.33566 14.9209 5.14812C14.7334 4.96058 14.628 4.70623 14.628 4.44101C14.628 4.1758 14.7334 3.92144 14.9209 3.73391C15.1084 3.54637 15.3628 3.44101 15.628 3.44101H19.628C19.7594 3.44062 19.8897 3.46621 20.0112 3.51633C20.1327 3.56644 20.2431 3.64009 20.336 3.73302C20.4289 3.82596 20.5026 3.93636 20.5527 4.05786C20.6028 4.17937 20.6284 4.30958 20.628 4.44101V8.44101C20.628 8.70623 20.5226 8.96058 20.3351 9.14812C20.1476 9.33566 19.8932 9.44101 19.628 9.44101C19.3628 9.44101 19.1084 9.33566 18.9209 9.14812C18.7334 8.96058 18.628 8.70623 18.628 8.44101V6.78601L16.006 9.40801C17.0586 10.826 17.5365 12.5894 17.3439 14.3449C17.1513 16.1004 16.3026 17.7182 14.9676 18.8744C13.6327 20.0305 11.9101 20.6395 10.1452 20.5793C8.38021 20.5192 6.70315 19.7943 5.45 18.55C4.19784 17.2988 3.46623 15.6195 3.4025 13.8505C3.33877 12.0815 3.94764 10.354 5.10652 9.01583C6.2654 7.67771 7.88822 6.82834 9.64823 6.63874C11.4082 6.44915 13.1747 6.9334 14.592 7.99401Z" fill="black"/>
</svg>
