<svg width="24" height="24" viewBox="0 0 24 24" fill="none" xmlns="http://www.w3.org/2000/svg">
<path d="M12 22.065C7.333 15.975 5 11.642 5 9.065C5 7.20849 5.7375 5.42801 7.05025 4.11525C8.36301 2.8025 10.1435 2.065 12 2.065C13.8565 2.065 15.637 2.8025 16.9497 4.11525C18.2625 5.42801 19 7.20849 19 9.065C19 11.642 16.667 15.975 12 22.065ZM12 13.065C13.0609 13.065 14.0783 12.6436 14.8284 11.8934C15.5786 11.1433 16 10.1259 16 9.065C16 8.00414 15.5786 6.98672 14.8284 6.23658C14.0783 5.48643 13.0609 5.065 12 5.065C10.9391 5.065 9.92172 5.48643 9.17157 6.23658C8.42143 6.98672 8 8.00414 8 9.065C8 10.1259 8.42143 11.1433 9.17157 11.8934C9.92172 12.6436 10.9391 13.065 12 13.065Z" fill="black"/>
</svg>
