<svg width="24" height="24" viewBox="0 0 24 24" fill="none" xmlns="http://www.w3.org/2000/svg">
<path d="M15 4.14101V22.141C14.4627 22.1412 13.9288 22.0547 13.419 21.885L10 20.745V2.67501C10.1966 2.7153 10.3906 2.76739 10.581 2.83101L14.051 3.98801C14.3571 4.08935 14.6776 4.14067 15 4.14001V4.14101ZM17 3.63701L20.662 2.41701C20.8129 2.3628 20.9747 2.34569 21.1337 2.36713C21.2926 2.38857 21.4441 2.44792 21.5753 2.54019C21.7065 2.63245 21.8135 2.75492 21.8875 2.89726C21.9614 3.03959 22 3.19762 22 3.35801V19.358C22 19.5719 21.9315 19.7802 21.8044 19.9523C21.6773 20.1243 21.4985 20.2511 21.294 20.314L17 21.745V3.63701ZM8 2.67501V20.745L3.338 22.3C3.18697 22.3542 3.02511 22.3713 2.86608 22.3499C2.70706 22.3284 2.55554 22.2689 2.42432 22.1765C2.29311 22.0842 2.18606 21.9616 2.1122 21.8191C2.03835 21.6766 1.99986 21.5185 2 21.358V5.35801C1.99996 5.1441 2.06851 4.93582 2.19558 4.76375C2.32265 4.59168 2.50155 4.4649 2.706 4.40201L7.419 2.83001C7.60938 2.76673 7.8034 2.71497 8 2.67501Z" fill="black"/>
</svg>
