<svg width="24" height="24" viewBox="0 0 24 24" fill="none" xmlns="http://www.w3.org/2000/svg">
<path d="M4 19.613L7.419 18.473C7.60936 18.4094 7.80338 18.3573 8 18.317V4.38701L4 5.72101V19.613ZM3.338 21.941C3.18705 21.9952 3.02528 22.0123 2.86633 21.9909C2.70738 21.9694 2.55592 21.9101 2.42473 21.8178C2.29354 21.7256 2.18647 21.6031 2.11255 21.4608C2.03862 21.3184 2.00002 21.1604 2 21V5.00001C1.99996 4.7861 2.06851 4.57782 2.19558 4.40575C2.32265 4.23368 2.50155 4.10689 2.706 4.04401L7.419 2.47301C8.44525 2.13096 9.55475 2.13096 10.581 2.47301L14.051 3.63001C14.667 3.83541 15.333 3.83541 15.949 3.63001L20.662 2.05901C20.8129 2.0048 20.9747 1.98769 21.1337 2.00913C21.2926 2.03057 21.4441 2.08992 21.5753 2.18219C21.7065 2.27445 21.8135 2.39692 21.8875 2.53926C21.9614 2.68159 22 2.83962 22 3.00001V19C22 19.2139 21.9315 19.4222 21.8044 19.5943C21.6773 19.7663 21.4985 19.8931 21.294 19.956L16.581 21.527C15.5548 21.8691 14.4452 21.8691 13.419 21.527L9.949 20.37C9.33301 20.1646 8.66699 20.1646 8.051 20.37L3.338 21.941ZM20 18.28V4.38701L16.581 5.52701C16.3906 5.59062 16.1966 5.64271 16 5.68301V19.613L20 18.279V18.28ZM14 19.614V5.68301C13.8034 5.64271 13.6094 5.59062 13.419 5.52701L10 4.38701V18.317C10.1966 18.3573 10.3906 18.4094 10.581 18.473L14 19.613V19.614Z" fill="black"/>
</svg>
