<svg width="24" height="24" viewBox="0 0 24 24" fill="none" xmlns="http://www.w3.org/2000/svg">
<path d="M12 7.878C13.76 7.198 15.26 6.858 16.5 6.858C17.9587 6.858 19.3576 7.43746 20.3891 8.46891C21.4205 9.50036 22 10.8993 22 12.358C22 13.8167 21.4205 15.2156 20.3891 16.2471C19.3576 17.2785 17.9587 17.858 16.5 17.858C15.26 17.858 13.76 17.506 12 16.801C10.24 17.506 8.74 17.858 7.5 17.858C6.04131 17.858 4.64236 17.2785 3.61091 16.2471C2.57946 15.2156 2 13.8167 2 12.358C2 10.8993 2.57946 9.50036 3.61091 8.46891C4.64236 7.43746 6.04131 6.858 7.5 6.858C8.74 6.858 10.24 7.198 12 7.878ZM8 13.858C9.105 13.858 10 13.186 10 12.358C10 11.529 9.105 10.858 8 10.858C6.895 10.858 6 11.529 6 12.358C6 13.186 6.895 13.858 8 13.858ZM16 13.858C17.105 13.858 18 13.186 18 12.358C18 11.529 17.105 10.858 16 10.858C14.895 10.858 14 11.529 14 12.358C14 13.186 14.895 13.858 16 13.858Z" fill="black"/>
</svg>
