<svg width="24" height="24" viewBox="0 0 24 24" fill="none" xmlns="http://www.w3.org/2000/svg">
<path d="M7.99999 18.502C8.30699 18.702 8.69899 18.762 9.06699 18.635L11.603 17.771C11.8604 17.6832 12.1396 17.6832 12.397 17.771L14.933 18.635C15.301 18.761 15.693 18.702 16 18.502V22.396L12 21.038L7.99999 22.396V18.502ZM11.677 16.132L9.61499 16.835C9.38414 16.9136 9.13253 16.9052 8.90748 16.8112C8.68243 16.7173 8.49946 16.5444 8.39299 16.325L7.38799 14.26C7.29565 14.0692 7.14507 13.9127 6.95799 13.813L4.95799 12.753C4.75216 12.6435 4.59105 12.4656 4.50249 12.25C4.41393 12.0343 4.4035 11.7945 4.47299 11.572L5.18299 9.299C5.24357 9.10496 5.24357 8.89705 5.18299 8.703L4.47299 6.43C4.40332 6.20723 4.41377 5.96711 4.50253 5.75124C4.59129 5.53536 4.75277 5.35734 4.95899 5.248L6.95799 4.188C7.14492 4.0886 7.29548 3.93244 7.38799 3.742L8.39299 1.674C8.49963 1.4548 8.68268 1.28209 8.90771 1.18836C9.13274 1.09463 9.38426 1.08632 9.61499 1.165L11.677 1.868C11.8864 1.93947 12.1136 1.93947 12.323 1.868L14.385 1.165C14.6158 1.08639 14.8674 1.09485 15.0925 1.18877C15.3175 1.28269 15.5005 1.45561 15.607 1.675L16.612 3.741C16.7043 3.93181 16.8549 4.08834 17.042 4.188L19.042 5.248C19.2478 5.35746 19.4089 5.53539 19.4975 5.75103C19.586 5.96668 19.5965 6.20648 19.527 6.429L18.817 8.702C18.7564 8.89605 18.7564 9.10396 18.817 9.298L19.527 11.571C19.5967 11.7938 19.5862 12.0339 19.4974 12.2498C19.4087 12.4656 19.2472 12.6437 19.041 12.753L17.042 13.813C16.8551 13.9124 16.7045 14.0686 16.612 14.259L15.607 16.326C15.5003 16.5452 15.3173 16.7179 15.0923 16.8116C14.8672 16.9054 14.6157 16.9137 14.385 16.835L12.323 16.132C12.1136 16.0605 11.8864 16.0605 11.677 16.132ZM12 6C11.7348 6 11.4804 6.10536 11.2929 6.2929C11.1053 6.48043 11 6.73479 11 7V11C11 11.2652 11.1053 11.5196 11.2929 11.7071C11.4804 11.8946 11.7348 12 12 12C12.2652 12 12.5196 11.8946 12.7071 11.7071C12.8946 11.5196 13 11.2652 13 11V7C13 6.73479 12.8946 6.48043 12.7071 6.2929C12.5196 6.10536 12.2652 6 12 6Z" fill="black"/>
</svg>
