<svg width="24" height="24" viewBox="0 0 24 24" fill="none" xmlns="http://www.w3.org/2000/svg">
<path d="M7.99999 15.517L7.38799 14.259C7.29565 14.0682 7.14507 13.9117 6.95799 13.812L4.95799 12.752C4.75216 12.6425 4.59105 12.4646 4.50249 12.249C4.41393 12.0333 4.4035 11.7935 4.47299 11.571L5.18299 9.298C5.24357 9.10396 5.24357 8.89605 5.18299 8.702L4.47299 6.429C4.40332 6.20623 4.41377 5.96611 4.50253 5.75024C4.59129 5.53436 4.75277 5.35634 4.95899 5.247L6.95799 4.187C7.14492 4.0876 7.29548 3.93144 7.38799 3.741L8.39299 1.674C8.49963 1.4548 8.68268 1.28209 8.90771 1.18836C9.13274 1.09463 9.38426 1.08632 9.61499 1.165L11.677 1.868C11.8864 1.93947 12.1136 1.93947 12.323 1.868L14.385 1.165C14.6158 1.08639 14.8674 1.09485 15.0925 1.18877C15.3175 1.28269 15.5005 1.45561 15.607 1.675L16.612 3.741C16.7043 3.93181 16.8549 4.08834 17.042 4.188L19.042 5.248C19.2478 5.35746 19.4089 5.53539 19.4975 5.75103C19.586 5.96668 19.5965 6.20648 19.527 6.429L18.817 8.702C18.7564 8.89605 18.7564 9.10396 18.817 9.298L19.527 11.571C19.5967 11.7938 19.5862 12.0339 19.4974 12.2498C19.4087 12.4656 19.2472 12.6437 19.041 12.753L17.042 13.813C16.8551 13.9124 16.7045 14.0686 16.612 14.259L16 15.517V22.396L12 21.038L7.99999 22.396V15.516V15.517ZM9.99999 16.704V19.604L12 18.925L14 19.605V16.704L12.323 16.132C12.1136 16.0605 11.8864 16.0605 11.677 16.132L9.99999 16.704ZM14.813 13.384C15.0911 12.8119 15.5439 12.343 16.106 12.045L17.37 11.375L16.908 9.895C16.7258 9.31224 16.7258 8.68777 16.908 8.105L17.37 6.625L16.106 5.955C15.5438 5.65679 15.0909 5.18751 14.813 4.615L14.194 3.343L12.968 3.761C12.3404 3.97495 11.6596 3.97495 11.032 3.761L9.80599 3.343L9.18699 4.616C8.90886 5.18814 8.45605 5.65705 7.89399 5.955L6.62999 6.625L7.09199 8.105C7.27414 8.68777 7.27414 9.31224 7.09199 9.895L6.62999 11.375L7.89399 12.045C8.45621 12.3432 8.90903 12.8125 9.18699 13.385L9.80599 14.657L11.032 14.239C11.6596 14.0251 12.3404 14.0251 12.968 14.239L14.194 14.657L14.813 13.384ZM12 6C12.2652 6 12.5196 6.10536 12.7071 6.2929C12.8946 6.48043 13 6.73479 13 7V11C13 11.2652 12.8946 11.5196 12.7071 11.7071C12.5196 11.8946 12.2652 12 12 12C11.7348 12 11.4804 11.8946 11.2929 11.7071C11.1053 11.5196 11 11.2652 11 11V7C11 6.73479 11.1053 6.48043 11.2929 6.2929C11.4804 6.10536 11.7348 6 12 6Z" fill="black"/>
</svg>
