<svg width="24" height="24" viewBox="0 0 24 24" fill="none" xmlns="http://www.w3.org/2000/svg">
<path d="M12 20C14.1217 20 16.1566 19.1571 17.6569 17.6569C19.1571 16.1566 20 14.1217 20 12C20 9.87827 19.1571 7.84344 17.6569 6.34315C16.1566 4.84285 14.1217 4 12 4C9.87827 4 7.84344 4.84285 6.34315 6.34315C4.84285 7.84344 4 9.87827 4 12C4 14.1217 4.84285 16.1566 6.34315 17.6569C7.84344 19.1571 9.87827 20 12 20ZM12 22C6.477 22 2 17.523 2 12C2 6.477 6.477 2 12 2C17.523 2 22 6.477 22 12C22 17.523 17.523 22 12 22Z" fill="black"/>
<path d="M8.186 9.632C8.19229 9.57097 8.18416 9.50932 8.16228 9.452C8.14039 9.39469 8.10536 9.34331 8.06 9.302L7.126 8.17V8H10.026L12.266 12.952L14.236 8H17V8.17L16.202 8.94C16.1681 8.96607 16.1419 9.00086 16.1262 9.04067C16.1105 9.08048 16.106 9.1238 16.113 9.166V14.834C16.1061 14.876 16.1108 14.9192 16.1265 14.9588C16.1421 14.9984 16.1682 15.033 16.202 15.059L16.982 15.831V16H13.06V15.83L13.867 15.04C13.947 14.96 13.947 14.937 13.947 14.815V10.234L11.7 15.981H11.397L8.783 10.234V14.086C8.77226 14.1658 8.77973 14.2471 8.80484 14.3236C8.82995 14.4002 8.87206 14.47 8.928 14.528L9.978 15.812V15.982H7V15.812L8.05 14.528C8.10556 14.47 8.14679 14.3999 8.1704 14.3231C8.19402 14.2464 8.19936 14.1652 8.186 14.086V9.632Z" fill="black"/>
</svg>
