<svg width="24" height="24" viewBox="0 0 24 24" fill="none" xmlns="http://www.w3.org/2000/svg">
<path d="M12 6C12.2652 6 12.5196 5.89464 12.7071 5.70711C12.8946 5.51957 13 5.26522 13 5C13 4.73478 12.8946 4.48043 12.7071 4.29289C12.5196 4.10536 12.2652 4 12 4C11.7348 4 11.4804 4.10536 11.2929 4.29289C11.1054 4.48043 11 4.73478 11 5C11 5.26522 11.1054 5.51957 11.2929 5.70711C11.4804 5.89464 11.7348 6 12 6ZM11 7.83C10.3338 7.59496 9.77187 7.13243 9.41314 6.52385C9.05442 5.91526 8.92189 5.19962 9.03889 4.50293C9.15589 3.80624 9.51492 3.17316 10.0528 2.71515C10.5906 2.25713 11.2728 2.00354 11.9793 1.99902C12.6857 1.99451 13.3711 2.23935 13.9147 2.69045C14.4584 3.14155 14.8255 3.76999 14.9514 4.46513C15.0773 5.16026 14.9539 5.87753 14.603 6.49066C14.2521 7.10379 13.6961 7.57346 13.033 7.817V9.845C13.033 9.919 13.03 9.993 13.025 10.066C13.0549 10.1979 13.1113 10.3224 13.1907 10.4319C13.2701 10.5413 13.3709 10.6336 13.487 10.703L16.573 12.549C17.0182 12.8153 17.3868 13.1926 17.6427 13.6439C17.8986 14.0952 18.0331 14.6052 18.033 15.124V16.183C18.6976 16.4269 19.2546 16.8979 19.6055 17.5128C19.9564 18.1277 20.0786 18.8468 19.9506 19.5431C19.8225 20.2393 19.4524 20.8679 18.9057 21.3177C18.359 21.7675 17.6709 22.0095 16.963 22.001C16.2551 21.9925 15.573 21.7341 15.0373 21.2713C14.5016 20.8085 14.1467 20.1712 14.0354 19.4721C13.9241 18.7729 14.0635 18.0569 14.4291 17.4507C14.7946 16.8444 15.3627 16.3869 16.033 16.159V15.124C16.0329 14.9511 15.988 14.7811 15.9027 14.6308C15.8173 14.4804 15.6944 14.3547 15.546 14.266L12.46 12.42C12.3024 12.3258 12.1538 12.2174 12.016 12.096C11.8785 12.2173 11.7303 12.3258 11.573 12.42L8.487 14.266C8.33857 14.3547 8.21568 14.4804 8.13032 14.6308C8.04497 14.7811 8.00007 14.9511 8 15.124V16.171C8.66749 16.4069 9.23009 16.8712 9.58836 17.4818C9.94662 18.0924 10.0775 18.81 9.95781 19.5078C9.83814 20.2056 9.47563 20.8385 8.93437 21.2949C8.39311 21.7512 7.70795 22.0015 7 22.0015C6.29205 22.0015 5.60689 21.7512 5.06563 21.2949C4.52437 20.8385 4.16186 20.2056 4.04219 19.5078C3.92251 18.81 4.05337 18.0924 4.41164 17.4818C4.76991 16.8712 5.33251 16.4069 6 16.171V15.124C5.99992 14.6052 6.1344 14.0952 6.39029 13.6439C6.64619 13.1926 7.01475 12.8153 7.46 12.549L10.546 10.703C10.6621 10.6336 10.7629 10.5413 10.8423 10.4319C10.9217 10.3224 10.9781 10.1979 11.008 10.066C11.0026 9.99246 11 9.91874 11 9.845V7.829V7.83ZM7 20C7.26522 20 7.51957 19.8946 7.70711 19.7071C7.89464 19.5196 8 19.2652 8 19C8 18.7348 7.89464 18.4804 7.70711 18.2929C7.51957 18.1054 7.26522 18 7 18C6.73478 18 6.48043 18.1054 6.29289 18.2929C6.10536 18.4804 6 18.7348 6 19C6 19.2652 6.10536 19.5196 6.29289 19.7071C6.48043 19.8946 6.73478 20 7 20ZM17 20C17.2652 20 17.5196 19.8946 17.7071 19.7071C17.8946 19.5196 18 19.2652 18 19C18 18.7348 17.8946 18.4804 17.7071 18.2929C17.5196 18.1054 17.2652 18 17 18C16.7348 18 16.4804 18.1054 16.2929 18.2929C16.1054 18.4804 16 18.7348 16 19C16 19.2652 16.1054 19.5196 16.2929 19.7071C16.4804 19.8946 16.7348 20 17 20Z" fill="black"/>
</svg>
