<svg width="24" height="24" viewBox="0 0 24 24" fill="none" xmlns="http://www.w3.org/2000/svg">
<path d="M13.033 7.81699V9.84499C13.033 9.91899 13.03 9.99299 13.025 10.066C13.0549 10.1979 13.1113 10.3224 13.1907 10.4318C13.2701 10.5413 13.3709 10.6336 13.487 10.703L16.573 12.549C17.0182 12.8153 17.3868 13.1926 17.6427 13.6439C17.8986 14.0952 18.0331 14.6052 18.033 15.124V16.183C18.6976 16.4269 19.2546 16.8979 19.6055 17.5128C19.9564 18.1276 20.0786 18.8468 19.9506 19.543C19.8225 20.2393 19.4524 20.8679 18.9057 21.3177C18.359 21.7675 17.6709 22.0095 16.963 22.001C16.2551 21.9925 15.573 21.7341 15.0373 21.2713C14.5016 20.8085 14.1467 20.1712 14.0354 19.4721C13.9241 18.7729 14.0635 18.0569 14.4291 17.4507C14.7946 16.8444 15.3627 16.3869 16.033 16.159V15.124C16.0329 14.9511 15.988 14.7811 15.9027 14.6308C15.8173 14.4804 15.6944 14.3547 15.546 14.266L12.46 12.42C12.3024 12.3258 12.1538 12.2173 12.016 12.096C11.8785 12.2173 11.7303 12.3258 11.573 12.42L8.487 14.266C8.33857 14.3547 8.21568 14.4804 8.13032 14.6308C8.04497 14.7811 8.00007 14.9511 8 15.124V16.171C8.66749 16.4069 9.23009 16.8712 9.58836 17.4818C9.94662 18.0924 10.0775 18.81 9.95781 19.5078C9.83814 20.2055 9.47563 20.8385 8.93437 21.2949C8.39311 21.7512 7.70795 22.0015 7 22.0015C6.29205 22.0015 5.60689 21.7512 5.06563 21.2949C4.52437 20.8385 4.16186 20.2055 4.04219 19.5078C3.92251 18.81 4.05337 18.0924 4.41164 17.4818C4.76991 16.8712 5.33251 16.4069 6 16.171V15.124C5.99992 14.6052 6.1344 14.0952 6.39029 13.6439C6.64619 13.1926 7.01475 12.8153 7.46 12.549L10.546 10.703C10.6621 10.6336 10.7629 10.5413 10.8423 10.4318C10.9217 10.3224 10.9781 10.1979 11.008 10.066C11.0026 9.99245 11 9.91873 11 9.84499V7.82899C10.3339 7.59363 9.77221 7.13082 9.41378 6.52206C9.05536 5.91329 8.92318 5.19759 9.04052 4.50096C9.15787 3.80433 9.51721 3.17142 10.0553 2.71367C10.5934 2.25592 11.2757 2.00267 11.9821 1.9985C12.6886 1.99433 13.3738 2.23951 13.9173 2.69088C14.4607 3.14225 14.8275 3.77086 14.9531 4.46606C15.0786 5.16126 14.9549 5.87847 14.6037 6.49142C14.2525 7.10438 13.6963 7.57378 13.033 7.81699Z" fill="black"/>
</svg>
