<svg width="24" height="24" viewBox="0 0 24 24" fill="none" xmlns="http://www.w3.org/2000/svg">
<path d="M5 2.5H19C19.7956 2.5 20.5587 2.81607 21.1213 3.37868C21.6839 3.94129 22 4.70435 22 5.5V13.5C22 14.2956 21.6839 15.0587 21.1213 15.6213C20.5587 16.1839 19.7956 16.5 19 16.5H12.042L5.598 21.308C5.44929 21.419 5.27264 21.4863 5.08781 21.5026C4.90299 21.5189 4.71727 21.4835 4.55144 21.4003C4.38561 21.317 4.24621 21.1893 4.14882 21.0314C4.05144 20.8735 3.99991 20.6915 4 20.506V16.5C3.46957 16.5 2.96086 16.2893 2.58579 15.9142C2.21071 15.5391 2 15.0304 2 14.5V5.5C2 4.70435 2.31607 3.94129 2.87868 3.37868C3.44129 2.81607 4.20435 2.5 5 2.5V2.5ZM11.378 14.5H19C19.2652 14.5 19.5196 14.3946 19.7071 14.2071C19.8946 14.0196 20 13.7652 20 13.5V5.5C20 5.23478 19.8946 4.98043 19.7071 4.79289C19.5196 4.60536 19.2652 4.5 19 4.5H5C4.73478 4.5 4.48043 4.60536 4.29289 4.79289C4.10536 4.98043 4 5.23478 4 5.5V13.5C4 13.7652 4.10536 14.0196 4.29289 14.2071C4.48043 14.3946 4.73478 14.5 5 14.5C5.26522 14.5 5.51957 14.6054 5.70711 14.7929C5.89464 14.9804 6 15.2348 6 15.5V18.513L11.378 14.5ZM15 11.5C14.4696 11.5 13.9609 11.2893 13.5858 10.9142C13.2107 10.5391 13 10.0304 13 9.5C13 8.96957 13.2107 8.46086 13.5858 8.08579C13.9609 7.71071 14.4696 7.5 15 7.5C15.5304 7.5 16.0391 7.71071 16.4142 8.08579C16.7893 8.46086 17 8.96957 17 9.5C17 10.0304 16.7893 10.5391 16.4142 10.9142C16.0391 11.2893 15.5304 11.5 15 11.5ZM9 11.5C8.46957 11.5 7.96086 11.2893 7.58579 10.9142C7.21071 10.5391 7 10.0304 7 9.5C7 8.96957 7.21071 8.46086 7.58579 8.08579C7.96086 7.71071 8.46957 7.5 9 7.5C9.53043 7.5 10.0391 7.71071 10.4142 8.08579C10.7893 8.46086 11 8.96957 11 9.5C11 10.0304 10.7893 10.5391 10.4142 10.9142C10.0391 11.2893 9.53043 11.5 9 11.5Z" fill="black"/>
</svg>
