<svg width="24" height="24" viewBox="0 0 24 24" fill="none" xmlns="http://www.w3.org/2000/svg">
<path d="M13.01 17.959C12.824 17.977 11.384 19.235 8.689 21.733C8.54579 21.8658 8.36681 21.9538 8.17416 21.9861C7.98151 22.0184 7.78363 21.9935 7.60495 21.9146C7.42626 21.8357 7.27461 21.7061 7.1687 21.542C7.0628 21.3779 7.00728 21.1863 7.009 20.991C7.029 18.629 7.02 17.282 6.985 16.951C6.967 16.778 7.017 16.671 6.985 16.651C4.708 15.212 3 12.775 3 10.005C3 5.584 7.03 2 12 2C16.97 2 21 5.584 21 10.004C21 14.121 17.505 17.513 13.01 17.959ZM9.02 18.703C11.697 16.24 12.026 16.046 12.812 15.968C16.364 15.615 19 13.01 19 10.004C19 6.744 15.915 4.001 12 4.001C8.085 4.001 5 6.745 5 10.004C5 11.897 6.175 13.771 8.054 14.961C8.837 15.456 9.012 16.078 8.995 16.739C8.99348 16.7891 8.99047 16.8391 8.986 16.889C9.008 17.219 9.018 17.809 9.019 18.703H9.02ZM15 12C14.4696 12 13.9609 11.7893 13.5858 11.4142C13.2107 11.0391 13 10.5304 13 10C13 9.46957 13.2107 8.96086 13.5858 8.58579C13.9609 8.21071 14.4696 8 15 8C15.5304 8 16.0391 8.21071 16.4142 8.58579C16.7893 8.96086 17 9.46957 17 10C17 10.5304 16.7893 11.0391 16.4142 11.4142C16.0391 11.7893 15.5304 12 15 12ZM9 12C8.46957 12 7.96086 11.7893 7.58579 11.4142C7.21071 11.0391 7 10.5304 7 10C7 9.46957 7.21071 8.96086 7.58579 8.58579C7.96086 8.21071 8.46957 8 9 8C9.53043 8 10.0391 8.21071 10.4142 8.58579C10.7893 8.96086 11 9.46957 11 10C11 10.5304 10.7893 11.0391 10.4142 11.4142C10.0391 11.7893 9.53043 12 9 12Z" fill="black"/>
</svg>
