<svg width="24" height="24" viewBox="0 0 24 24" fill="none" xmlns="http://www.w3.org/2000/svg">
<path d="M5 2.858H19C19.7956 2.858 20.5587 3.17407 21.1213 3.73668C21.6839 4.29929 22 5.06235 22 5.858V13.858C22 14.6537 21.6839 15.4167 21.1213 15.9793C20.5587 16.5419 19.7956 16.858 19 16.858H12.042L5.598 21.666C5.44929 21.777 5.27264 21.8444 5.08781 21.8606C4.90299 21.8769 4.71727 21.8415 4.55144 21.7583C4.38561 21.675 4.24621 21.5473 4.14882 21.3894C4.05144 21.2315 3.99991 21.0495 4 20.864V16.858C3.46957 16.858 2.96086 16.6473 2.58579 16.2722C2.21071 15.8971 2 15.3884 2 14.858V5.858C2 5.06235 2.31607 4.29929 2.87868 3.73668C3.44129 3.17407 4.20435 2.858 5 2.858ZM15 11.858C15.5304 11.858 16.0391 11.6473 16.4142 11.2722C16.7893 10.8971 17 10.3884 17 9.858C17 9.32757 16.7893 8.81886 16.4142 8.44379C16.0391 8.06872 15.5304 7.858 15 7.858C14.4696 7.858 13.9609 8.06872 13.5858 8.44379C13.2107 8.81886 13 9.32757 13 9.858C13 10.3884 13.2107 10.8971 13.5858 11.2722C13.9609 11.6473 14.4696 11.858 15 11.858ZM9 11.858C9.53043 11.858 10.0391 11.6473 10.4142 11.2722C10.7893 10.8971 11 10.3884 11 9.858C11 9.32757 10.7893 8.81886 10.4142 8.44379C10.0391 8.06872 9.53043 7.858 9 7.858C8.46957 7.858 7.96086 8.06872 7.58579 8.44379C7.21071 8.81886 7 9.32757 7 9.858C7 10.3884 7.21071 10.8971 7.58579 11.2722C7.96086 11.6473 8.46957 11.858 9 11.858Z" fill="black"/>
</svg>
