<svg width="24" height="24" viewBox="0 0 24 24" fill="none" xmlns="http://www.w3.org/2000/svg">
<path d="M8.978 16.969C8.97819 16.958 8.97886 16.947 8.98 16.936L8.978 16.969ZM8.979 16.802C8.97933 16.803 8.97967 16.804 8.98 16.805V16.802H8.979ZM9.019 18.702C11.697 16.24 12.026 16.046 12.812 15.968C16.364 15.615 19 13.01 19 10.004C19 6.744 15.915 4.001 12 4.001C8.085 4.001 5 6.745 5 10.004C5 11.897 6.175 13.771 8.054 14.961C8.837 15.456 9.012 16.078 8.995 16.739C8.99348 16.7891 8.99047 16.8391 8.986 16.889C9.008 17.219 9.018 17.809 9.019 18.703V18.702ZM13.009 17.959C12.824 17.977 11.384 19.235 8.689 21.733C8.54579 21.8658 8.36681 21.9538 8.17416 21.9861C7.98151 22.0184 7.78363 21.9935 7.60495 21.9146C7.42626 21.8357 7.27461 21.7061 7.1687 21.542C7.0628 21.3779 7.00728 21.1863 7.009 20.991C7.029 18.629 7.02 17.282 6.985 16.951C6.967 16.778 7.017 16.671 6.985 16.651C4.708 15.212 3 12.775 3 10.005C3 5.584 7.03 2 12 2C16.97 2 21 5.584 21 10.004C21 14.121 17.505 17.513 13.01 17.959H13.009Z" fill="black"/>
</svg>
