<svg width="24" height="24" viewBox="0 0 24 24" fill="none" xmlns="http://www.w3.org/2000/svg">
<path d="M18 14H14C13.7348 14 13.4804 14.1054 13.2929 14.2929C13.1054 14.4804 13 14.7348 13 15C13 15.2652 13.1054 15.5196 13.2929 15.7071C13.4804 15.8946 13.7348 16 14 16H17.659C17.358 16.8481 16.8706 17.618 16.2327 18.2528C15.5948 18.8876 14.8226 19.3712 13.973 19.668C14.021 19.9546 14.006 20.2483 13.929 20.5285C13.852 20.8087 13.7149 21.0688 13.5271 21.2906C13.3394 21.5124 13.1055 21.6907 12.8419 21.8129C12.5782 21.9352 12.2911 21.9985 12.0005 21.9985C11.7099 21.9985 11.4228 21.9352 11.1591 21.8129C10.8955 21.6907 10.6616 21.5124 10.4739 21.2906C10.2861 21.0688 10.149 20.8087 10.072 20.5285C9.99499 20.2483 9.97997 19.9546 10.028 19.668C9.17803 19.3714 8.40545 18.8879 7.76717 18.2531C7.12889 17.6183 6.64119 16.8483 6.34 16H10C10.2652 16 10.5196 15.8946 10.7071 15.7071C10.8946 15.5196 11 15.2652 11 15C11 14.7348 10.8946 14.4804 10.7071 14.2929C10.5196 14.1054 10.2652 14 10 14H6V12H10C10.2652 12 10.5196 11.8946 10.7071 11.7071C10.8946 11.5196 11 11.2652 11 11C11 10.7348 10.8946 10.4804 10.7071 10.2929C10.5196 10.1054 10.2652 10 10 10H6V8.00001H10C10.2652 8.00001 10.5196 7.89465 10.7071 7.70711C10.8946 7.51958 11 7.26522 11 7.00001C11 6.73479 10.8946 6.48044 10.7071 6.2929C10.5196 6.10536 10.2652 6.00001 10 6.00001H6.341C6.75441 4.82929 7.52071 3.81558 8.53431 3.09857C9.54791 2.38155 10.7589 1.99652 12.0005 1.99652C13.2421 1.99652 14.4531 2.38155 15.4667 3.09857C16.4803 3.81558 17.2466 4.82929 17.66 6.00001H14C13.7348 6.00001 13.4804 6.10536 13.2929 6.2929C13.1054 6.48044 13 6.73479 13 7.00001C13 7.26522 13.1054 7.51958 13.2929 7.70711C13.4804 7.89465 13.7348 8.00001 14 8.00001H18V10H14C13.7348 10 13.4804 10.1054 13.2929 10.2929C13.1054 10.4804 13 10.7348 13 11C13 11.2652 13.1054 11.5196 13.2929 11.7071C13.4804 11.8946 13.7348 12 14 12H18V14Z" fill="black"/>
</svg>
