<svg width="24" height="24" viewBox="0 0 24 24" fill="none" xmlns="http://www.w3.org/2000/svg">
<path d="M12 22C6.477 22 2 17.523 2 12C2 6.477 6.477 2 12 2C17.523 2 22 6.477 22 12C22 17.523 17.523 22 12 22ZM12 20C14.1217 20 16.1566 19.1571 17.6569 17.6569C19.1571 16.1566 20 14.1217 20 12C20 9.87827 19.1571 7.84344 17.6569 6.34315C16.1566 4.84285 14.1217 4 12 4C9.87827 4 7.84344 4.84285 6.34315 6.34315C4.84285 7.84344 4 9.87827 4 12C4 14.1217 4.84285 16.1566 6.34315 17.6569C7.84344 19.1571 9.87827 20 12 20ZM12 5.605C12.7956 5.605 13.5587 5.92107 14.1213 6.48368C14.6839 7.04629 15 7.80935 15 8.605V12.605C15 13.4006 14.6839 14.1637 14.1213 14.7263C13.5587 15.2889 12.7956 15.605 12 15.605C11.2044 15.605 10.4413 15.2889 9.87868 14.7263C9.31607 14.1637 9 13.4006 9 12.605V8.605C9 7.80935 9.31607 7.04629 9.87868 6.48368C10.4413 5.92107 11.2044 5.605 12 5.605ZM12 7.605C11.7348 7.605 11.4804 7.71036 11.2929 7.89789C11.1054 8.08543 11 8.33978 11 8.605V12.605C11 12.8702 11.1054 13.1246 11.2929 13.3121C11.4804 13.4996 11.7348 13.605 12 13.605C12.2652 13.605 12.5196 13.4996 12.7071 13.3121C12.8946 13.1246 13 12.8702 13 12.605V8.605C13 8.33978 12.8946 8.08543 12.7071 7.89789C12.5196 7.71036 12.2652 7.605 12 7.605ZM6 12.605C6 12.3398 6.10536 12.0854 6.29289 11.8979C6.48043 11.7104 6.73478 11.605 7 11.605C7.26522 11.605 7.51957 11.7104 7.70711 11.8979C7.89464 12.0854 8 12.3398 8 12.605V12.627C8 13.6879 8.42143 14.7053 9.17157 15.4554C9.92172 16.2056 10.9391 16.627 12 16.627C13.0609 16.627 14.0783 16.2056 14.8284 15.4554C15.5786 14.7053 16 13.6879 16 12.627V12.605C16 12.3398 16.1054 12.0854 16.2929 11.8979C16.4804 11.7104 16.7348 11.605 17 11.605C17.2652 11.605 17.5196 11.7104 17.7071 11.8979C17.8946 12.0854 18 12.3398 18 12.605V12.627C18 14.2183 17.3679 15.7444 16.2426 16.8696C15.1174 17.9949 13.5913 18.627 12 18.627C10.4087 18.627 8.88258 17.9949 7.75736 16.8696C6.63214 15.7444 6 14.2183 6 12.627V12.605Z" fill="black"/>
</svg>
