<svg width="24" height="24" viewBox="0 0 24 24" fill="none" xmlns="http://www.w3.org/2000/svg">
<path d="M6 2H18C19.0609 2 20.0783 2.42143 20.8284 3.17157C21.5786 3.92172 22 4.93913 22 6V18C22 19.0609 21.5786 20.0783 20.8284 20.8284C20.0783 21.5786 19.0609 22 18 22H6C4.93913 22 3.92172 21.5786 3.17157 20.8284C2.42143 20.0783 2 19.0609 2 18V6C2 4.93913 2.42143 3.92172 3.17157 3.17157C3.92172 2.42143 4.93913 2 6 2V2ZM12 5.605C11.2044 5.605 10.4413 5.92107 9.87868 6.48368C9.31607 7.04629 9 7.80935 9 8.605V12.605C9 13.4006 9.31607 14.1637 9.87868 14.7263C10.4413 15.2889 11.2044 15.605 12 15.605C12.7956 15.605 13.5587 15.2889 14.1213 14.7263C14.6839 14.1637 15 13.4006 15 12.605V8.605C15 7.80935 14.6839 7.04629 14.1213 6.48368C13.5587 5.92107 12.7956 5.605 12 5.605ZM6 12.605V12.627C6 14.2183 6.63214 15.7444 7.75736 16.8696C8.88258 17.9949 10.4087 18.627 12 18.627C13.5913 18.627 15.1174 17.9949 16.2426 16.8696C17.3679 15.7444 18 14.2183 18 12.627V12.605C18 12.3398 17.8946 12.0854 17.7071 11.8979C17.5196 11.7104 17.2652 11.605 17 11.605C16.7348 11.605 16.4804 11.7104 16.2929 11.8979C16.1054 12.0854 16 12.3398 16 12.605V12.627C16 13.6879 15.5786 14.7053 14.8284 15.4554C14.0783 16.2056 13.0609 16.627 12 16.627C10.9391 16.627 9.92172 16.2056 9.17157 15.4554C8.42143 14.7053 8 13.6879 8 12.627V12.605C8 12.3398 7.89464 12.0854 7.70711 11.8979C7.51957 11.7104 7.26522 11.605 7 11.605C6.73478 11.605 6.48043 11.7104 6.29289 11.8979C6.10536 12.0854 6 12.3398 6 12.605ZM12 7.605C12.2652 7.605 12.5196 7.71036 12.7071 7.89789C12.8946 8.08543 13 8.33978 13 8.605V12.605C13 12.8702 12.8946 13.1246 12.7071 13.3121C12.5196 13.4996 12.2652 13.605 12 13.605C11.7348 13.605 11.4804 13.4996 11.2929 13.3121C11.1054 13.1246 11 12.8702 11 12.605V8.605C11 8.33978 11.1054 8.08543 11.2929 7.89789C11.4804 7.71036 11.7348 7.605 12 7.605Z" fill="black"/>
</svg>
