<svg width="24" height="24" viewBox="0 0 24 24" fill="none" xmlns="http://www.w3.org/2000/svg">
<path d="M15.465 16H14C13.7348 16 13.4804 15.8946 13.2929 15.7071C13.1054 15.5196 13 15.2652 13 15C13 14.7348 13.1054 14.4804 13.2929 14.2929C13.4804 14.1054 13.7348 14 14 14H16V12H14C13.7348 12 13.4804 11.8946 13.2929 11.7071C13.1054 11.5196 13 11.2652 13 11C13 10.7348 13.1054 10.4804 13.2929 10.2929C13.4804 10.1054 13.7348 10 14 10H16V8H14C13.7348 8 13.4804 7.89464 13.2929 7.70711C13.1054 7.51957 13 7.26522 13 7C13 6.73478 13.1054 6.48043 13.2929 6.29289C13.4804 6.10536 13.7348 6 14 6H15.465C15.114 5.39165 14.6089 4.88651 14.0007 4.53541C13.3924 4.1843 12.7023 3.99964 12 4C10.52 4 9.227 4.804 8.535 6H10C10.2652 6 10.5196 6.10536 10.7071 6.29289C10.8946 6.48043 11 6.73478 11 7C11 7.26522 10.8946 7.51957 10.7071 7.70711C10.5196 7.89464 10.2652 8 10 8H8V10H10C10.2652 10 10.5196 10.1054 10.7071 10.2929C10.8946 10.4804 11 10.7348 11 11C11 11.2652 10.8946 11.5196 10.7071 11.7071C10.5196 11.8946 10.2652 12 10 12H8V14H10C10.2652 14 10.5196 14.1054 10.7071 14.2929C10.8946 14.4804 11 14.7348 11 15C11 15.2652 10.8946 15.5196 10.7071 15.7071C10.5196 15.8946 10.2652 16 10 16H8.535C8.88599 16.6083 9.39105 17.1135 9.99934 17.4646C10.6076 17.8157 11.2977 18.0004 12 18C13.48 18 14.773 17.196 15.465 16ZM13.973 19.668C14.021 19.9546 14.006 20.2483 13.929 20.5285C13.852 20.8087 13.7149 21.0688 13.5271 21.2906C13.3394 21.5124 13.1055 21.6907 12.8419 21.8129C12.5782 21.9352 12.2911 21.9985 12.0005 21.9985C11.7099 21.9985 11.4228 21.9352 11.1591 21.8129C10.8955 21.6907 10.6616 21.5124 10.4739 21.2906C10.2861 21.0688 10.149 20.8087 10.072 20.5285C9.99499 20.2483 9.97997 19.9546 10.028 19.668C8.85141 19.2581 7.83152 18.4922 7.10977 17.4766C6.38802 16.461 6.00017 15.246 6 14V8C6 6.4087 6.63214 4.88258 7.75736 3.75736C8.88258 2.63214 10.4087 2 12 2C13.5913 2 15.1174 2.63214 16.2426 3.75736C17.3679 4.88258 18 6.4087 18 8V14C17.9999 15.2458 17.6122 16.4608 16.8906 17.4764C16.1691 18.492 15.1494 19.2579 13.973 19.668Z" fill="black"/>
</svg>
