<svg width="24" height="24" viewBox="0 0 24 24" fill="none" xmlns="http://www.w3.org/2000/svg">
<path d="M13 19.358V21.358C13 21.6232 12.8946 21.8776 12.7071 22.0651C12.5196 22.2526 12.2652 22.358 12 22.358C11.7348 22.358 11.4804 22.2526 11.2929 22.0651C11.1054 21.8776 11 21.6232 11 21.358V19.358H9V21.358C9 21.6232 8.89464 21.8776 8.70711 22.0651C8.51957 22.2526 8.26522 22.358 8 22.358C7.73478 22.358 7.48043 22.2526 7.29289 22.0651C7.10536 21.8776 7 21.6232 7 21.358V19.358C7 19.301 7.005 19.246 7.014 19.192C6.58681 19.0428 6.19878 18.7992 5.87881 18.4792C5.55885 18.1592 5.3152 17.7712 5.166 17.344C5.11121 17.3537 5.05564 17.3584 5 17.358H3C2.73478 17.358 2.48043 17.2526 2.29289 17.0651C2.10536 16.8776 2 16.6232 2 16.358C2 16.0928 2.10536 15.8384 2.29289 15.6509C2.48043 15.4634 2.73478 15.358 3 15.358H5V13.358H3C2.73478 13.358 2.48043 13.2526 2.29289 13.0651C2.10536 12.8776 2 12.6232 2 12.358C2 12.0928 2.10536 11.8384 2.29289 11.6509C2.48043 11.4634 2.73478 11.358 3 11.358H5V9.358H3C2.73478 9.358 2.48043 9.25265 2.29289 9.06511C2.10536 8.87757 2 8.62322 2 8.358C2 8.09279 2.10536 7.83843 2.29289 7.6509C2.48043 7.46336 2.73478 7.358 3 7.358H5C5.057 7.358 5.112 7.363 5.166 7.372C5.466 6.508 6.15 5.824 7.014 5.524C7.00476 5.46915 7.00007 5.41363 7 5.358V3.358C7 3.09279 7.10536 2.83843 7.29289 2.65089C7.48043 2.46336 7.73478 2.358 8 2.358C8.26522 2.358 8.51957 2.46336 8.70711 2.65089C8.89464 2.83843 9 3.09279 9 3.358V5.358H11V3.358C11 3.09279 11.1054 2.83843 11.2929 2.65089C11.4804 2.46336 11.7348 2.358 12 2.358C12.2652 2.358 12.5196 2.46336 12.7071 2.65089C12.8946 2.83843 13 3.09279 13 3.358V5.358H15V3.358C15 3.09279 15.1054 2.83843 15.2929 2.65089C15.4804 2.46336 15.7348 2.358 16 2.358C16.2652 2.358 16.5196 2.46336 16.7071 2.65089C16.8946 2.83843 17 3.09279 17 3.358V5.358C17 5.414 16.995 5.47 16.986 5.524C17.85 5.824 18.534 6.508 18.834 7.372C18.8888 7.3623 18.9444 7.35761 19 7.358H21C21.2652 7.358 21.5196 7.46336 21.7071 7.6509C21.8946 7.83843 22 8.09279 22 8.358C22 8.62322 21.8946 8.87757 21.7071 9.06511C21.5196 9.25265 21.2652 9.358 21 9.358H19V11.358H21C21.2652 11.358 21.5196 11.4634 21.7071 11.6509C21.8946 11.8384 22 12.0928 22 12.358C22 12.6232 21.8946 12.8776 21.7071 13.0651C21.5196 13.2526 21.2652 13.358 21 13.358H19V15.358H21C21.2652 15.358 21.5196 15.4634 21.7071 15.6509C21.8946 15.8384 22 16.0928 22 16.358C22 16.6232 21.8946 16.8776 21.7071 17.0651C21.5196 17.2526 21.2652 17.358 21 17.358H19C18.943 17.358 18.888 17.353 18.834 17.344C18.6848 17.7712 18.4411 18.1592 18.1212 18.4792C17.8012 18.7992 17.4132 19.0428 16.986 19.192C16.996 19.246 17 19.302 17 19.358V21.358C17 21.6232 16.8946 21.8776 16.7071 22.0651C16.5196 22.2526 16.2652 22.358 16 22.358C15.7348 22.358 15.4804 22.2526 15.2929 22.0651C15.1054 21.8776 15 21.6232 15 21.358V19.358H13ZM10 9.358C9.73478 9.358 9.48043 9.46336 9.29289 9.6509C9.10536 9.83843 9 10.0928 9 10.358V14.358C9 14.6232 9.10536 14.8776 9.29289 15.0651C9.48043 15.2526 9.73478 15.358 10 15.358H14C14.2652 15.358 14.5196 15.2526 14.7071 15.0651C14.8946 14.8776 15 14.6232 15 14.358V10.358C15 10.0928 14.8946 9.83843 14.7071 9.6509C14.5196 9.46336 14.2652 9.358 14 9.358H10Z" fill="black"/>
</svg>
