<svg width="24" height="24" viewBox="0 0 24 24" fill="none" xmlns="http://www.w3.org/2000/svg">
<path d="M5 15C4.20435 15 3.44129 14.6839 2.87868 14.1213C2.31607 13.5587 2 12.7956 2 12C2 11.2044 2.31607 10.4413 2.87868 9.87868C3.44129 9.31607 4.20435 9 5 9C5.79565 9 6.55871 9.31607 7.12132 9.87868C7.68393 10.4413 8 11.2044 8 12C8 12.7956 7.68393 13.5587 7.12132 14.1213C6.55871 14.6839 5.79565 15 5 15ZM19 15C18.2044 15 17.4413 14.6839 16.8787 14.1213C16.3161 13.5587 16 12.7956 16 12C16 11.2044 16.3161 10.4413 16.8787 9.87868C17.4413 9.31607 18.2044 9 19 9C19.7956 9 20.5587 9.31607 21.1213 9.87868C21.6839 10.4413 22 11.2044 22 12C22 12.7956 21.6839 13.5587 21.1213 14.1213C20.5587 14.6839 19.7956 15 19 15ZM12 15C11.2044 15 10.4413 14.6839 9.87868 14.1213C9.31607 13.5587 9 12.7956 9 12C9 11.2044 9.31607 10.4413 9.87868 9.87868C10.4413 9.31607 11.2044 9 12 9C12.7956 9 13.5587 9.31607 14.1213 9.87868C14.6839 10.4413 15 11.2044 15 12C15 12.7956 14.6839 13.5587 14.1213 14.1213C13.5587 14.6839 12.7956 15 12 15Z" fill="black"/>
</svg>
