<svg width="24" height="24" viewBox="0 0 24 24" fill="none" xmlns="http://www.w3.org/2000/svg">
<path d="M19.797 13.402C17.759 12.422 14.48 11.798 11.497 11.798C9.669 11.798 8.546 8.63501 8.233 6.56301L9.415 4.55601C9.68001 4.10604 10.0579 3.73303 10.5113 3.47389C10.9646 3.21474 11.4778 3.07843 12 3.07843C12.5222 3.07843 13.0354 3.21474 13.4887 3.47389C13.9421 3.73303 14.32 4.10604 14.585 4.55601L19.797 13.402ZM21.47 16.241L21.61 16.477C21.8785 16.9328 22.0218 17.4514 22.0253 17.9804C22.0287 18.5093 21.8923 19.0298 21.6297 19.489C21.3672 19.9483 20.9878 20.3299 20.5302 20.5953C20.0726 20.8606 19.553 21.0002 19.024 21H4.975C4.4461 21.0001 3.92659 20.8603 3.46912 20.5949C3.01165 20.3295 2.63247 19.9478 2.37004 19.4886C2.1076 19.0294 1.97122 18.509 1.97472 17.9801C1.97823 17.4512 2.1215 16.9327 2.39 16.477L6.907 8.81301C7.324 11.573 9.051 13.798 11.497 13.798C14.244 13.798 18.207 14.334 21.47 16.241Z" fill="black"/>
</svg>
