<svg width="24" height="24" viewBox="0 0 24 24" fill="none" xmlns="http://www.w3.org/2000/svg">
<path d="M19.299 10.957L18.178 9.83598C17.9904 9.64847 17.8849 9.3941 17.8848 9.12883C17.8847 8.86356 17.99 8.60912 18.1775 8.42148C18.365 8.23384 18.6194 8.12837 18.8846 8.12827C19.1499 8.12818 19.4044 8.23347 19.592 8.42098L22.42 11.25C22.6075 11.4375 22.7128 11.6918 22.7128 11.957C22.7128 12.2221 22.6075 12.4764 22.42 12.664L19.592 15.492C19.4034 15.6741 19.1508 15.7749 18.8886 15.7726C18.6264 15.7704 18.3756 15.6652 18.1902 15.4798C18.0048 15.2944 17.8996 15.0436 17.8973 14.7814C17.895 14.5192 17.9958 14.2666 18.178 14.078L19.299 12.957H12.814V19.442L13.935 18.321C14.1236 18.1388 14.3762 18.038 14.6384 18.0403C14.9006 18.0426 15.1514 18.1478 15.3368 18.3332C15.5222 18.5186 15.6274 18.7694 15.6297 19.0316C15.632 19.2938 15.5312 19.5464 15.349 19.735L12.521 22.564C12.3335 22.7514 12.0792 22.8568 11.814 22.8568C11.5488 22.8568 11.2945 22.7514 11.107 22.564L8.278 19.735C8.09584 19.5464 7.99505 19.2938 7.99733 19.0316C7.99961 18.7694 8.10477 18.5186 8.29018 18.3332C8.47559 18.1478 8.7264 18.0426 8.9886 18.0403C9.2508 18.038 9.5034 18.1388 9.692 18.321L10.814 19.442V12.957H4.328L5.45 14.078C5.63216 14.2666 5.73295 14.5192 5.73068 14.7814C5.7284 15.0436 5.62323 15.2944 5.43782 15.4798C5.25241 15.6652 5.0016 15.7704 4.7394 15.7726C4.47721 15.7749 4.2246 15.6741 4.036 15.492L1.207 12.664C1.01953 12.4764 0.914215 12.2221 0.914215 11.957C0.914215 11.6918 1.01953 11.4375 1.207 11.25L4.036 8.41998C4.22377 8.23247 4.47834 8.12723 4.74371 8.12742C5.00907 8.12761 5.26349 8.2332 5.451 8.42098C5.63851 8.60875 5.74374 8.86332 5.74356 9.12868C5.74337 9.39405 5.63777 9.64847 5.45 9.83598L4.328 10.956H10.814V4.47298L9.692 5.59298C9.5034 5.77513 9.2508 5.87593 8.9886 5.87365C8.7264 5.87137 8.47559 5.7662 8.29018 5.5808C8.10477 5.39539 7.99961 5.14457 7.99733 4.88238C7.99505 4.62018 8.09584 4.36758 8.278 4.17898L11.107 1.34998C11.2945 1.16251 11.5488 1.05719 11.814 1.05719C12.0792 1.05719 12.3335 1.16251 12.521 1.34998L15.349 4.17898C15.4445 4.27122 15.5207 4.38157 15.5731 4.50357C15.6255 4.62558 15.6531 4.7568 15.6543 4.88958C15.6554 5.02235 15.6301 5.15403 15.5798 5.27693C15.5295 5.39983 15.4553 5.51148 15.3614 5.60537C15.2675 5.69926 15.1559 5.77352 15.033 5.8238C14.9101 5.87408 14.7784 5.89938 14.6456 5.89823C14.5128 5.89707 14.3816 5.86949 14.2596 5.81708C14.1376 5.76467 14.0272 5.68849 13.935 5.59298L12.814 4.47198V10.957H19.299Z" fill="black"/>
</svg>
