<svg width="24" height="24" viewBox="0 0 24 24" fill="none" xmlns="http://www.w3.org/2000/svg">
<path d="M16.874 5H18C19.0609 5 20.0783 5.42143 20.8284 6.17157C21.5786 6.92172 22 7.93913 22 9V12C22 13.0609 21.5786 14.0783 20.8284 14.8284C20.0783 15.5786 19.0609 16 18 16H17V18C17 19.0609 16.5786 20.0783 15.8284 20.8284C15.0783 21.5786 14.0609 22 13 22H6C4.93913 22 3.92172 21.5786 3.17157 20.8284C2.42143 20.0783 2 19.0609 2 18V6C2 4.93913 2.42143 3.92172 3.17157 3.17157C3.92172 2.42143 4.93913 2 6 2H13C13.8869 2.00012 14.7486 2.29482 15.4498 2.83783C16.151 3.38084 16.6519 4.14138 16.874 5ZM17 14H18C18.5304 14 19.0391 13.7893 19.4142 13.4142C19.7893 13.0391 20 12.5304 20 12V9C20 8.46957 19.7893 7.96086 19.4142 7.58579C19.0391 7.21071 18.5304 7 18 7H17V14Z" fill="black"/>
</svg>
