<svg width="24" height="24" viewBox="0 0 24 24" fill="none" xmlns="http://www.w3.org/2000/svg">
<path d="M14.954 14.304V3C14.954 2.73478 15.0594 2.48043 15.2469 2.29289C15.4344 2.10536 15.6888 2 15.954 2H15.982C16.2472 2 16.5016 2.10536 16.6891 2.29289C16.8766 2.48043 16.982 2.73478 16.982 3V17.065C17.179 19.034 15.562 21.055 13.108 21.758C10.418 22.53 7.74 21.425 7.128 19.29C6.516 17.155 8.201 14.799 10.892 14.027C12.362 13.606 13.827 13.744 14.954 14.304ZM12.554 19.825C14.252 19.338 15.199 18.015 14.924 17.055C14.648 16.094 13.144 15.473 11.446 15.96C9.748 16.447 8.801 17.77 9.076 18.731C9.352 19.691 10.856 20.312 12.554 19.825Z" fill="black"/>
</svg>
