<svg width="24" height="24" viewBox="0 0 24 24" fill="none" xmlns="http://www.w3.org/2000/svg">
<path d="M12 20C14.1217 20 16.1566 19.1571 17.6569 17.6569C19.1571 16.1566 20 14.1217 20 12C20 9.87827 19.1571 7.84344 17.6569 6.34315C16.1566 4.84285 14.1217 4 12 4C9.87827 4 7.84344 4.84285 6.34315 6.34315C4.84285 7.84344 4 9.87827 4 12C4 14.1217 4.84285 16.1566 6.34315 17.6569C7.84344 19.1571 9.87827 20 12 20ZM12 22C6.477 22 2 17.523 2 12C2 6.477 6.477 2 12 2C17.523 2 22 6.477 22 12C22 17.523 17.523 22 12 22Z" fill="black"/>
<path d="M8.418 12.718C9.12935 12.718 9.706 12.1472 9.706 11.443C9.706 10.7389 9.12935 10.168 8.418 10.168C7.70666 10.168 7.13 10.7389 7.13 11.443C7.13 12.1472 7.70666 12.718 8.418 12.718Z" fill="black"/>
<path d="M8.4 13.051C7.62 13.061 7 13.705 7 14.477V14.836C7 14.919 7.068 14.986 7.152 14.986H9.683C9.70283 14.9861 9.72249 14.9824 9.74086 14.9749C9.75923 14.9674 9.77595 14.9564 9.79007 14.9425C9.80418 14.9286 9.81541 14.912 9.82312 14.8937C9.83083 14.8754 9.83487 14.8558 9.835 14.836V14.454C9.8341 14.2673 9.79614 14.0826 9.72331 13.9107C9.65047 13.7388 9.54423 13.5831 9.41073 13.4526C9.27724 13.3221 9.11915 13.2194 8.94564 13.1504C8.77214 13.0815 8.58667 13.0477 8.4 13.051Z" fill="black"/>
<path d="M11.68 12.531C12.4499 12.531 13.074 11.9131 13.074 11.151C13.074 10.3888 12.4499 9.771 11.68 9.771C10.9101 9.771 10.286 10.3888 10.286 11.151C10.286 11.9131 10.9101 12.531 11.68 12.531Z" fill="black"/>
<path d="M11.661 12.892C11.2566 12.8991 10.8711 13.0648 10.5877 13.3534C10.3043 13.642 10.1457 14.0305 10.146 14.435V14.835C10.146 14.919 10.214 14.986 10.298 14.986H13.062C13.0819 14.9862 13.1017 14.9826 13.1202 14.9752C13.1387 14.9677 13.1555 14.9568 13.1697 14.9428C13.1839 14.9289 13.1953 14.9123 13.203 14.8939C13.2108 14.8756 13.2149 14.8559 13.215 14.836V14.411C13.215 13.566 12.517 12.881 11.661 12.892ZM15.243 12.175C16.125 12.175 16.84 11.467 16.84 10.594C16.84 9.72098 16.125 9.01398 15.243 9.01398C14.361 9.01398 13.646 9.72098 13.646 10.594C13.646 11.467 14.361 12.174 15.243 12.174V12.175ZM15.243 12.588C14.273 12.588 13.486 13.367 13.486 14.328V14.836C13.486 14.919 13.554 14.986 13.638 14.986H16.848C16.8678 14.9861 16.8875 14.9823 16.9059 14.9749C16.9242 14.9674 16.9409 14.9564 16.9551 14.9425C16.9692 14.9285 16.9804 14.912 16.9881 14.8937C16.9958 14.8754 16.9999 14.8558 17 14.836V14.327C17 13.367 16.213 12.587 15.243 12.587V12.588Z" fill="black"/>
</svg>
