<svg width="24" height="24" viewBox="0 0 24 24" fill="none" xmlns="http://www.w3.org/2000/svg">
<path d="M4.835 13.435C6.25769 13.435 7.411 12.2933 7.411 10.885C7.411 9.4767 6.25769 8.33502 4.835 8.33502C3.41232 8.33502 2.259 9.4767 2.259 10.885C2.259 12.2933 3.41232 13.435 4.835 13.435Z" fill="black"/>
<path d="M4.8 14.102C3.24 14.121 2 15.41 2 16.954V17.672C2 17.838 2.136 17.972 2.304 17.972H7.367C7.44702 17.9723 7.52389 17.9409 7.58084 17.8847C7.6378 17.8285 7.67021 17.752 7.671 17.672V16.909C7.671 15.347 6.382 14.083 4.801 14.102H4.8Z" fill="black"/>
<path d="M11.361 13.063C12.9008 13.063 14.149 11.8273 14.149 10.303C14.149 8.77872 12.9008 7.54303 11.361 7.54303C9.82123 7.54303 8.573 8.77872 8.573 10.303C8.573 11.8273 9.82123 13.063 11.361 13.063Z" fill="black"/>
<path d="M11.323 13.784C9.635 13.804 8.293 15.199 8.293 16.87V17.672C8.293 17.7116 8.30086 17.7509 8.31612 17.7875C8.33138 17.8241 8.35375 17.8573 8.38193 17.8852C8.4101 17.9131 8.44353 17.9351 8.48027 17.95C8.51702 17.9649 8.55635 17.9724 8.596 17.972H14.125C14.205 17.9722 14.2819 17.9409 14.3388 17.8846C14.3958 17.8284 14.4282 17.752 14.429 17.672V16.822C14.429 15.132 13.035 13.764 11.323 13.784ZM18.486 12.35C20.249 12.35 21.679 10.934 21.679 9.18798C21.679 7.44198 20.249 6.02698 18.486 6.02698C16.722 6.02698 15.293 7.44198 15.293 9.18798C15.293 10.934 16.723 12.35 18.486 12.35ZM18.486 13.175C16.546 13.175 14.972 14.733 14.972 16.655V17.672C14.972 17.838 15.108 17.972 15.276 17.972H21.696C21.776 17.9722 21.8529 17.9409 21.9098 17.8846C21.9668 17.8284 21.9992 17.752 22 17.672V16.654C22 14.733 20.427 13.175 18.486 13.175Z" fill="black"/>
</svg>
