<svg width="24" height="24" viewBox="0 0 24 24" fill="none" xmlns="http://www.w3.org/2000/svg">
<path d="M14.07 15.98C13.4938 16.5256 12.8126 16.9485 12.068 17.223C11.3152 16.9656 10.6306 16.5406 10.066 15.98H14.071" fill="black"/>
<path d="M5.99 4.87C7.49 3.15 9.636 2.078 12.067 2.078C14.499 2.078 16.644 3.149 18.147 4.87C18.7997 4.68826 19.4718 4.58553 20.149 4.564V7.375C20.6763 7.73359 21.1081 8.21535 21.4072 8.77854C21.7062 9.34174 21.8633 9.96936 21.865 10.607C21.8632 11.242 21.7058 11.8668 21.4067 12.427C21.1075 12.9871 20.6757 13.4653 20.149 13.82L20.077 13.896C19.648 18.026 16.216 21.2 12.067 21.2C7.847 21.2 4.415 17.968 3.986 13.82C3.46074 13.4636 3.03006 12.9848 2.73111 12.4249C2.43215 11.865 2.2739 11.2407 2.27 10.606C2.27 9.248 2.985 8.043 3.987 7.393V4.563C4.702 4.583 5.346 4.697 5.989 4.869L5.99 4.87ZM8.35 7.853C7.55136 7.14589 6.5945 6.64105 5.56 6.381V12.959C5.56 16.63 8.493 19.575 12.068 19.575C15.644 19.575 18.505 16.63 18.505 12.939V6.381C17.502 6.66563 16.5742 7.16827 15.788 7.853C14.7041 7.0732 13.4033 6.65219 12.068 6.649C10.709 6.649 9.422 7.089 8.35 7.853ZM8.35 5.941C9.494 5.348 10.71 5.004 12.068 5.004C13.428 5.004 14.643 5.348 15.788 5.941C16.002 5.769 16.288 5.616 16.574 5.463C15.43 4.335 13.784 3.646 12.068 3.646C10.352 3.646 8.707 4.335 7.562 5.482C7.777 5.597 8.135 5.769 8.35 5.942V5.941Z" fill="black"/>
<path d="M14.07 12.959C15.144 12.825 17.003 12.844 17.003 12.844C16.932 13.188 17.003 14.164 15.931 14.775C15.788 14.871 15.358 15.023 14.93 15.043C13.928 15.081 12.498 15.1 12.498 15.1C12.784 13.934 13.141 13.054 14.071 12.959H14.07ZM10.066 12.959C10.924 13.054 11.353 13.934 11.639 15.1C11.639 15.1 10.209 15.08 9.208 15.043C8.778 15.023 8.35 14.87 8.206 14.775C7.133 14.163 7.206 13.188 7.133 12.844C7.133 12.844 8.993 12.824 10.066 12.959ZM13.928 18.217C13.428 18.561 12.784 18.753 12.068 18.753C11.3875 18.7559 10.7195 18.5704 10.138 18.217C10.138 18.217 10.208 18.007 10.28 17.834C10.423 17.624 10.566 17.567 10.566 17.567C11.0544 17.7068 11.56 17.7775 12.068 17.777C12.568 17.777 13.069 17.7 13.57 17.567C13.57 17.567 13.713 17.643 13.856 17.873C13.928 18.064 13.928 18.217 13.928 18.217Z" fill="black"/>
</svg>
