<svg width="24" height="24" viewBox="0 0 24 24" fill="none" xmlns="http://www.w3.org/2000/svg">
<path d="M12 20C14.1217 20 16.1566 19.1571 17.6569 17.6569C19.1571 16.1566 20 14.1217 20 12C20 9.87827 19.1571 7.84344 17.6569 6.34315C16.1566 4.84285 14.1217 4 12 4C9.87827 4 7.84344 4.84285 6.34315 6.34315C4.84285 7.84344 4 9.87827 4 12C4 14.1217 4.84285 16.1566 6.34315 17.6569C7.84344 19.1571 9.87827 20 12 20ZM12 22C6.477 22 2 17.523 2 12C2 6.477 6.477 2 12 2C17.523 2 22 6.477 22 12C22 17.523 17.523 22 12 22Z" fill="black"/>
<path d="M13.035 13.99C12.7471 14.2625 12.4069 14.4738 12.035 14.611C11.6583 14.4826 11.3156 14.2702 11.033 13.99H13.035Z" fill="black"/>
<path d="M8.995 8.435C9.37105 7.99682 9.83745 7.64519 10.3622 7.40422C10.8869 7.16326 11.4576 7.03867 12.035 7.039C13.25 7.039 14.323 7.575 15.074 8.435C15.4003 8.34413 15.7364 8.29276 16.075 8.282V9.688C16.575 10.022 16.933 10.624 16.933 11.303C16.933 11.983 16.575 12.575 16.075 12.91L16.039 12.948C15.825 15.013 14.109 16.6 12.034 16.6C9.924 16.6 8.208 14.984 7.994 12.91C7.72936 12.7338 7.51235 12.495 7.36225 12.2147C7.21215 11.9344 7.13361 11.6214 7.13361 11.3035C7.13361 10.9856 7.21215 10.6726 7.36225 10.3923C7.51235 10.112 7.72936 9.8732 7.994 9.697V8.282C8.351 8.292 8.673 8.349 8.994 8.435H8.995ZM10.175 9.927C9.77577 9.5731 9.29734 9.32034 8.78 9.19V12.48C8.78 14.315 10.246 15.787 12.034 15.787C13.822 15.787 15.253 14.315 15.253 12.47V9.19C14.7509 9.33241 14.2865 9.58408 13.893 9.927C13.3514 9.53694 12.7014 9.32609 12.034 9.324C11.354 9.324 10.711 9.544 10.174 9.927H10.175ZM10.175 8.971C10.7472 8.66448 11.3859 8.50309 12.035 8.501C12.714 8.501 13.321 8.674 13.894 8.971C14.0177 8.87962 14.1492 8.79931 14.287 8.731C13.6823 8.14744 12.8744 7.82183 12.034 7.823C11.176 7.823 10.354 8.167 9.781 8.741C9.889 8.798 10.067 8.884 10.175 8.971Z" fill="black"/>
<path d="M13.035 12.48C13.572 12.412 14.502 12.422 14.502 12.422C14.466 12.594 14.502 13.082 13.965 13.388C13.8101 13.4685 13.6394 13.5139 13.465 13.521C12.965 13.541 12.249 13.551 12.249 13.551C12.392 12.967 12.57 12.527 13.035 12.479V12.48ZM11.033 12.48C11.463 12.527 11.677 12.967 11.82 13.55C11.82 13.55 11.104 13.54 10.604 13.521C10.4295 13.5136 10.2588 13.4679 10.104 13.387C9.567 13.081 9.603 12.594 9.567 12.422C9.567 12.422 10.497 12.412 11.033 12.479V12.48ZM12.964 15.109C12.714 15.281 12.392 15.376 12.034 15.376C11.6938 15.3779 11.3598 15.2855 11.069 15.109C11.069 15.109 11.104 15.003 11.14 14.917C11.1745 14.86 11.224 14.8137 11.283 14.783C11.7737 14.9246 12.2944 14.9246 12.785 14.783C12.785 14.783 12.857 14.822 12.928 14.936C12.9493 14.9913 12.9615 15.0497 12.964 15.109Z" fill="black"/>
</svg>
