<svg width="24" height="24" viewBox="0 0 24 24" fill="none" xmlns="http://www.w3.org/2000/svg">
<path d="M4 5.065H20C20.5304 5.065 21.0391 5.27572 21.4142 5.65079C21.7893 6.02586 22 6.53457 22 7.065V17.065C22 17.5954 21.7893 18.1041 21.4142 18.4792C21.0391 18.8543 20.5304 19.065 20 19.065H4C3.46957 19.065 2.96086 18.8543 2.58579 18.4792C2.21071 18.1041 2 17.5954 2 17.065V7.065C2 6.53457 2.21071 6.02586 2.58579 5.65079C2.96086 5.27572 3.46957 5.065 4 5.065ZM7 13.065C6.73478 13.065 6.48043 13.1704 6.29289 13.3579C6.10536 13.5454 6 13.7998 6 14.065C6 14.3302 6.10536 14.5846 6.29289 14.7721C6.48043 14.9596 6.73478 15.065 7 15.065H13C13.2652 15.065 13.5196 14.9596 13.7071 14.7721C13.8946 14.5846 14 14.3302 14 14.065C14 13.7998 13.8946 13.5454 13.7071 13.3579C13.5196 13.1704 13.2652 13.065 13 13.065H7ZM17 8.065V10.065H19V8.065H17Z" fill="black"/>
</svg>
