<svg width="24" height="24" viewBox="0 0 24 24" fill="none" xmlns="http://www.w3.org/2000/svg">
<path d="M11.53 13.996C10.76 13.915 10.067 13.724 9.473 13.256C9.399 13.198 9.323 13.142 9.256 13.076C8.996 12.826 8.969 12.537 9.176 12.241C9.351 11.987 9.646 11.919 9.954 12.064C10.0134 12.0932 10.0702 12.1274 10.124 12.166C11.231 12.932 12.752 12.953 13.864 12.2C13.9709 12.1127 14.0944 12.0481 14.227 12.01C14.35 11.974 14.4815 11.9804 14.6003 12.0283C14.7191 12.0762 14.8184 12.1628 14.882 12.274C15.045 12.541 15.042 12.801 14.842 13.008C14.5353 13.32 14.1644 13.5616 13.755 13.716C13.367 13.868 12.941 13.944 12.52 13.995C12.584 14.065 12.614 14.099 12.654 14.139C13.225 14.717 13.799 15.293 14.369 15.873C14.563 16.071 14.604 16.316 14.497 16.546C14.38 16.796 14.118 16.962 13.862 16.944C13.7066 16.9283 13.563 16.8544 13.46 16.737C13.029 16.3 12.59 15.871 12.167 15.426C12.044 15.296 11.984 15.321 11.876 15.433C11.442 15.883 11.001 16.326 10.557 16.767C10.358 16.964 10.121 17 9.89 16.887C9.77166 16.8312 9.67193 16.7425 9.60275 16.6315C9.53358 16.5204 9.4979 16.3918 9.5 16.261C9.51295 16.0991 9.58824 15.9485 9.71 15.841L11.404 14.132C11.441 14.094 11.476 14.054 11.53 13.996Z" fill="black"/>
<path d="M11.988 12C11.3275 11.9942 10.696 11.7275 10.2312 11.2581C9.76651 10.7887 9.50617 10.1546 9.50699 9.494C9.51017 8.83059 9.77628 8.1955 10.247 7.72798C10.7177 7.26047 11.3546 6.99867 12.018 7.00001C12.348 7.00183 12.6743 7.06888 12.9783 7.1973C13.2822 7.32572 13.5578 7.51298 13.7891 7.7483C14.0205 7.98362 14.203 8.26236 14.3262 8.56847C14.4494 8.87459 14.5108 9.20205 14.507 9.53201C14.5 10.898 13.37 12.005 11.988 12ZM13.232 9.49801C13.2324 9.3373 13.201 9.1781 13.1396 9.02958C13.0782 8.88107 12.988 8.74618 12.8742 8.63268C12.7604 8.51918 12.6253 8.42932 12.4766 8.36828C12.328 8.30723 12.1687 8.27621 12.008 8.277C11.846 8.2762 11.6855 8.30765 11.5358 8.36954C11.3861 8.43144 11.2502 8.52252 11.1361 8.63748C11.022 8.75244 10.9319 8.88898 10.8711 9.03913C10.8103 9.18928 10.78 9.35003 10.782 9.51201C10.7828 9.67272 10.8153 9.83169 10.8778 9.97976C10.9403 10.1278 11.0315 10.2621 11.1461 10.3747C11.2608 10.4874 11.3965 10.5762 11.5457 10.6362C11.6948 10.6961 11.8543 10.726 12.015 10.724C12.1756 10.7241 12.3347 10.6925 12.483 10.6308C12.6313 10.5691 12.7659 10.4787 12.879 10.3647C12.9922 10.2507 13.0816 10.1154 13.1422 9.96665C13.2028 9.8179 13.2333 9.65862 13.232 9.49801Z" fill="black"/>
<path d="M12 20C14.1217 20 16.1566 19.1571 17.6569 17.6569C19.1571 16.1566 20 14.1217 20 12C20 9.87827 19.1571 7.84344 17.6569 6.34315C16.1566 4.84285 14.1217 4 12 4C9.87827 4 7.84344 4.84285 6.34315 6.34315C4.84285 7.84344 4 9.87827 4 12C4 14.1217 4.84285 16.1566 6.34315 17.6569C7.84344 19.1571 9.87827 20 12 20ZM12 22C6.477 22 2 17.523 2 12C2 6.477 6.477 2 12 2C17.523 2 22 6.477 22 12C22 17.523 17.523 22 12 22Z" fill="black"/>
</svg>
