<svg width="24" height="24" viewBox="0 0 24 24" fill="none" xmlns="http://www.w3.org/2000/svg">
<path d="M17.418 3.57C15.923 2.56 14.072 2 11.985 2C10.075 2 8.365 2.466 6.942 3.32C4.202 4.944 2.514 7.987 2.514 11.886C2.514 17.16 6.301 21.964 11.983 21.964C17.664 21.964 21.451 17.161 21.451 11.886C21.451 8.179 19.925 5.246 17.418 3.57ZM11.984 3.863C15.032 3.863 15.769 8.045 15.769 11.845C15.769 15.365 15.307 20.075 12.021 20.075C8.734 20.075 8.192 15.319 8.192 11.799C8.192 7.999 8.936 3.863 11.984 3.863Z" fill="black"/>
</svg>
