<svg width="24" height="24" viewBox="0 0 24 24" fill="none" xmlns="http://www.w3.org/2000/svg">
<path d="M12 20C14.1217 20 16.1566 19.1571 17.6569 17.6569C19.1571 16.1566 20 14.1217 20 12C20 9.87827 19.1571 7.84344 17.6569 6.34315C16.1566 4.84285 14.1217 4 12 4C9.87827 4 7.84344 4.84285 6.34315 6.34315C4.84285 7.84344 4 9.87827 4 12C4 14.1217 4.84285 16.1566 6.34315 17.6569C7.84344 19.1571 9.87827 20 12 20ZM12 22C6.477 22 2 17.523 2 12C2 6.477 6.477 2 12 2C17.523 2 22 6.477 22 12C22 17.523 17.523 22 12 22Z" fill="black"/>
<path d="M14.713 7.78698C13.964 7.28098 13.037 7.00098 11.992 7.00098C11.036 7.00098 10.179 7.23398 9.466 7.66098C8.093 8.47598 7.248 9.99998 7.248 11.953C7.248 14.594 9.145 17 11.991 17C14.837 17 16.733 14.594 16.733 11.952C16.733 10.095 15.969 8.62598 14.713 7.78598V7.78698ZM11.992 7.93398C13.518 7.93398 13.888 10.029 13.888 11.931C13.888 13.695 13.656 16.054 12.01 16.054C10.364 16.054 10.092 13.672 10.092 11.91C10.092 10.007 10.465 7.93498 11.992 7.93498V7.93398Z" fill="black"/>
</svg>
