<svg width="24" height="24" viewBox="0 0 24 24" fill="none" xmlns="http://www.w3.org/2000/svg">
<path d="M14.713 7.78698C13.964 7.28098 13.037 7.00098 11.992 7.00098C11.036 7.00098 10.179 7.23398 9.466 7.66098C8.093 8.47598 7.248 9.99998 7.248 11.953C7.248 14.594 9.145 17 11.991 17C14.837 17 16.733 14.594 16.733 11.952C16.733 10.095 15.969 8.62598 14.713 7.78598V7.78698ZM11.992 7.93398C13.518 7.93398 13.888 10.029 13.888 11.931C13.888 13.695 13.656 16.054 12.01 16.054C10.364 16.054 10.092 13.672 10.092 11.91C10.092 10.007 10.465 7.93498 11.992 7.93498V7.93398Z" fill="black"/>
<path d="M6 4C5.46957 4 4.96086 4.21071 4.58579 4.58579C4.21071 4.96086 4 5.46957 4 6V18C4 18.5304 4.21071 19.0391 4.58579 19.4142C4.96086 19.7893 5.46957 20 6 20H18C18.5304 20 19.0391 19.7893 19.4142 19.4142C19.7893 19.0391 20 18.5304 20 18V6C20 5.46957 19.7893 4.96086 19.4142 4.58579C19.0391 4.21071 18.5304 4 18 4H6ZM6 2H18C19.0609 2 20.0783 2.42143 20.8284 3.17157C21.5786 3.92172 22 4.93913 22 6V18C22 19.0609 21.5786 20.0783 20.8284 20.8284C20.0783 21.5786 19.0609 22 18 22H6C4.93913 22 3.92172 21.5786 3.17157 20.8284C2.42143 20.0783 2 19.0609 2 18V6C2 4.93913 2.42143 3.92172 3.17157 3.17157C3.92172 2.42143 4.93913 2 6 2V2Z" fill="black"/>
</svg>
