<svg width="24" height="24" viewBox="0 0 24 24" fill="none" xmlns="http://www.w3.org/2000/svg">
<path d="M2.28571 13.1292V21.5292H16V13.1292H2.28571ZM2.28571 10.7292H16C16.6062 10.7292 17.1876 10.9821 17.6162 11.4321C18.0449 11.8822 18.2857 12.4927 18.2857 13.1292V21.5292C18.2857 22.1657 18.0449 22.7762 17.6162 23.2263C17.1876 23.6763 16.6062 23.9292 16 23.9292H2.28571C1.6795 23.9292 1.09812 23.6763 0.66947 23.2263C0.240816 22.7762 0 22.1657 0 21.5292V13.1292C0 12.4927 0.240816 11.8822 0.66947 11.4321C1.09812 10.9821 1.6795 10.7292 2.28571 10.7292ZM12.5851 8.3292H10.2994V2.4C10.2994 1.76348 10.5402 1.15303 10.9689 0.702944C11.3976 0.252856 11.9789 0 12.5851 0L20.5851 0C21.1913 0 21.7727 0.252856 22.2014 0.702944C22.63 1.15303 22.8709 1.76348 22.8709 2.4V16.8C22.8709 17.4365 22.63 18.047 22.2014 18.4971C21.7727 18.9471 21.1913 19.2 20.5851 19.2H20.5714V16.8H20.5851V2.4H12.5851V8.3292Z" fill="black"/>
</svg>
