<svg width="24" height="24" viewBox="0 0 24 24" fill="none" xmlns="http://www.w3.org/2000/svg">
<path d="M12 20C13.0609 20 14.0783 19.5786 14.8284 18.8284C15.5786 18.0783 16 17.0609 16 16C16 14.9391 15.5786 13.9217 14.8284 13.1716C14.0783 12.4214 13.0609 12 12 12C10.9391 12 9.92171 12.4214 9.17157 13.1716C8.42142 13.9217 8 14.9391 8 16C8 17.0609 8.42142 18.0783 9.17157 18.8284C9.92171 19.5786 10.9391 20 12 20ZM8 11.528V6C8 4.93913 8.42142 3.92172 9.17157 3.17157C9.92171 2.42143 10.9391 2 12 2C13.0609 2 14.0783 2.42143 14.8284 3.17157C15.5786 3.92172 16 4.93913 16 6V7C16 7.26522 15.8946 7.51957 15.7071 7.70711C15.5196 7.89464 15.2652 8 15 8C14.7348 8 14.4804 7.89464 14.2929 7.70711C14.1054 7.51957 14 7.26522 14 7V6C14 5.46957 13.7893 4.96086 13.4142 4.58579C13.0391 4.21071 12.5304 4 12 4C11.4696 4 10.9609 4.21071 10.5858 4.58579C10.2107 4.96086 10 5.46957 10 6V10.341C11.4047 9.84368 12.9443 9.88691 14.3189 10.4623C15.6936 11.0376 16.8049 12.1039 17.4366 13.4536C18.0683 14.8032 18.1751 16.3397 17.7363 17.7638C17.2975 19.1879 16.3445 20.3978 15.0627 21.1578C13.781 21.9179 12.2622 22.1738 10.8022 21.8758C9.3421 21.5777 8.04521 20.7469 7.16396 19.5452C6.28271 18.3436 5.88018 16.8569 6.03471 15.3748C6.18925 13.8926 6.88981 12.521 8 11.527V11.528ZM12 18C11.4696 18 10.9609 17.7893 10.5858 17.4142C10.2107 17.0391 10 16.5304 10 16C10 15.4696 10.2107 14.9609 10.5858 14.5858C10.9609 14.2107 11.4696 14 12 14C12.5304 14 13.0391 14.2107 13.4142 14.5858C13.7893 14.9609 14 15.4696 14 16C14 16.5304 13.7893 17.0391 13.4142 17.4142C13.0391 17.7893 12.5304 18 12 18Z" fill="black"/>
</svg>
