<svg width="24" height="24" viewBox="0 0 24 24" fill="none" xmlns="http://www.w3.org/2000/svg">
<path d="M12 20C13.0609 20 14.0783 19.5786 14.8284 18.8284C15.5786 18.0783 16 17.0609 16 16C16 14.9391 15.5786 13.9217 14.8284 13.1716C14.0783 12.4214 13.0609 12 12 12C10.9391 12 9.92172 12.4214 9.17157 13.1716C8.42143 13.9217 8 14.9391 8 16C8 17.0609 8.42143 18.0783 9.17157 18.8284C9.92172 19.5786 10.9391 20 12 20ZM8 11.528V6C8 4.93913 8.42143 3.92172 9.17157 3.17157C9.92172 2.42143 10.9391 2 12 2C13.0609 2 14.0783 2.42143 14.8284 3.17157C15.5786 3.92172 16 4.93913 16 6V11.528C16.9057 12.3381 17.5441 13.4041 17.8307 14.585C18.1173 15.7659 18.0386 17.0059 17.605 18.1411C17.1714 19.2762 16.4034 20.253 15.4025 20.9421C14.4017 21.6312 13.2152 22.0001 12 22.0001C10.7849 22.0001 9.59834 21.6312 8.59747 20.9421C7.59661 20.253 6.82856 19.2762 6.39497 18.1411C5.96137 17.0059 5.88267 15.7659 6.16928 14.585C6.45588 13.4041 7.09428 12.3381 8 11.528ZM10 10.34C10.6425 10.1138 11.3189 9.99879 12 10C12.701 10 13.374 10.12 14 10.341V6C14 5.46957 13.7893 4.96086 13.4142 4.58579C13.0391 4.21071 12.5304 4 12 4C11.4696 4 10.9609 4.21071 10.5858 4.58579C10.2107 4.96086 10 5.46957 10 6V10.341V10.34ZM12 18C11.4696 18 10.9609 17.7893 10.5858 17.4142C10.2107 17.0391 10 16.5304 10 16C10 15.4696 10.2107 14.9609 10.5858 14.5858C10.9609 14.2107 11.4696 14 12 14C12.5304 14 13.0391 14.2107 13.4142 14.5858C13.7893 14.9609 14 15.4696 14 16C14 16.5304 13.7893 17.0391 13.4142 17.4142C13.0391 17.7893 12.5304 18 12 18Z" fill="black"/>
</svg>
