<svg width="24" height="24" viewBox="0 0 24 24" fill="none" xmlns="http://www.w3.org/2000/svg">
<path d="M9.671 15.44L21.926 3.384C22.042 3.792 22.022 4.231 21.865 4.634L15.615 20.714C15.22 21.73 14.083 22.252 13.075 21.879C12.8294 21.7884 12.6052 21.648 12.4164 21.4666C12.2276 21.2852 12.0784 21.0668 11.978 20.825L9.997 16.055C9.907 15.839 9.797 15.632 9.671 15.438V15.44ZM8.261 14.152C8.15765 14.0979 8.05187 14.0485 7.944 14.004L3.174 12.023C2.185 11.61 1.732 10.465 2.165 9.465C2.27134 9.22003 2.42515 8.99856 2.61756 8.81336C2.80997 8.62816 3.03715 8.48291 3.286 8.386L19.366 2.136C19.826 1.957 20.306 1.961 20.731 2.111L8.26 14.152H8.261Z" fill="black"/>
</svg>
