<svg width="24" height="24" viewBox="0 0 24 24" fill="none" xmlns="http://www.w3.org/2000/svg">
<g clip-path="url(#clip0_201_31856)">
<path d="M20.5714 3.42857V22.2857C20.5714 22.7404 20.3908 23.1764 20.0693 23.4979C19.7478 23.8194 19.3118 24 18.8571 24C18.4025 24 17.9665 23.8194 17.645 23.4979C17.3235 23.1764 17.1429 22.7404 17.1429 22.2857V3.42857H13.7143V22.2857C13.7143 22.7404 13.5337 23.1764 13.2122 23.4979C12.8907 23.8194 12.4547 24 12 24C11.5453 24 11.1093 23.8194 10.7878 23.4979C10.4663 23.1764 10.2857 22.7404 10.2857 22.2857V13.7143H6.85714C5.03852 13.7143 3.29437 12.9918 2.00841 11.7059C0.722447 10.4199 0 8.67577 0 6.85714C0 5.03852 0.722447 3.29437 2.00841 2.00841C3.29437 0.722447 5.03852 0 6.85714 0L22.2857 0C22.7404 0 23.1764 0.180612 23.4979 0.502103C23.8194 0.823594 24 1.25963 24 1.71429C24 2.16894 23.8194 2.60498 23.4979 2.92647C23.1764 3.24796 22.7404 3.42857 22.2857 3.42857H20.5714ZM10.2857 10.2857V3.42857H6.85714C5.94783 3.42857 5.07576 3.78979 4.43278 4.43278C3.78979 5.07576 3.42857 5.94783 3.42857 6.85714C3.42857 7.76646 3.78979 8.63853 4.43278 9.28151C5.07576 9.92449 5.94783 10.2857 6.85714 10.2857H10.2857Z" fill="black"/>
</g>
<defs>
<clipPath id="clip0_201_31856">
<rect width="24" height="24" fill="white"/>
</clipPath>
</defs>
</svg>
