<svg width="24" height="24" viewBox="0 0 24 24" fill="none" xmlns="http://www.w3.org/2000/svg">
<path d="M12 20C14.1217 20 16.1566 19.1571 17.6569 17.6569C19.1571 16.1566 20 14.1217 20 12C20 9.87827 19.1571 7.84344 17.6569 6.34315C16.1566 4.84285 14.1217 4 12 4C9.87827 4 7.84344 4.84285 6.34315 6.34315C4.84285 7.84344 4 9.87827 4 12C4 14.1217 4.84285 16.1566 6.34315 17.6569C7.84344 19.1571 9.87827 20 12 20ZM12 22C6.477 22 2 17.523 2 12C2 6.477 6.477 2 12 2C17.523 2 22 6.477 22 12C22 17.523 17.523 22 12 22Z" fill="black"/>
<path d="M13.464 7.20599C11.488 7.20599 9.881 8.80399 9.881 10.769C9.881 12.727 11.488 14.32 13.464 14.32C15.433 14.32 17.034 12.727 17.034 10.769C17.0321 9.82338 16.6552 8.91714 15.9859 8.24915C15.3166 7.58115 14.4096 7.20599 13.464 7.20599ZM7.084 16.696V7.20599H8.836V16.696H7.084Z" fill="black"/>
</svg>
