<svg width="24" height="24" viewBox="0 0 24 24" fill="none" xmlns="http://www.w3.org/2000/svg">
<path d="M10.252 15.405L10.246 15.441C10.2271 15.5498 10.1704 15.6484 10.0859 15.7194C10.0013 15.7904 9.8944 15.8292 9.784 15.829H8.464C8.39655 15.8288 8.32996 15.8139 8.26885 15.7853C8.20774 15.7568 8.15356 15.7153 8.11008 15.6637C8.06661 15.6122 8.03487 15.5518 8.01707 15.4867C7.99927 15.4217 7.99583 15.3535 8.007 15.287L9.336 7.387C9.35441 7.27882 9.41048 7.18064 9.49429 7.10982C9.57811 7.039 9.68427 7.0001 9.794 7H13.4C14.592 7 15.558 7.966 15.558 9.158C15.558 9.3 15.549 9.44 15.532 9.578C16.015 9.92 16.33 10.484 16.33 11.121C16.33 11.9119 16.0158 12.6704 15.4566 13.2296C14.8974 13.7888 14.1389 14.103 13.348 14.103H13.045C12.88 14.1031 12.7204 14.1616 12.5945 14.2681C12.4686 14.3746 12.3844 14.5223 12.357 14.685L12.193 15.659L12.357 14.685C12.3844 14.5223 12.4686 14.3746 12.5945 14.2681C12.7204 14.1616 12.88 14.1031 13.045 14.103H13.348C14.1389 14.103 14.8974 13.7888 15.4566 13.2296C16.0158 12.6704 16.33 11.9119 16.33 11.121C16.33 10.484 16.015 9.921 15.532 9.577C15.43 10.3995 15.031 11.1564 14.41 11.7052C13.789 12.254 12.9888 12.557 12.16 12.557H11.155C11.0456 12.557 10.9392 12.5925 10.8518 12.6581C10.7643 12.7237 10.7005 12.816 10.67 12.921L10.068 16.497C10.0581 16.5557 10.0612 16.6159 10.0769 16.6734C10.0927 16.7308 10.1207 16.7842 10.1592 16.8297C10.1976 16.8752 10.2455 16.9117 10.2996 16.9368C10.3536 16.9619 10.4124 16.975 10.472 16.975H11.626C11.826 16.975 11.996 16.83 12.03 16.633L12.194 15.659L12.03 16.633C12.0139 16.7286 11.9645 16.8153 11.8906 16.8779C11.8166 16.9405 11.7229 16.9749 11.626 16.975H10.472C10.4123 16.9753 10.3533 16.9625 10.2991 16.9375C10.2449 16.9125 10.1969 16.876 10.1583 16.8304C10.1198 16.7848 10.0918 16.7313 10.0762 16.6737C10.0605 16.6161 10.0578 16.5558 10.068 16.497L10.252 15.405Z" fill="black"/>
<path d="M15.967 10C16.157 10.295 16.268 10.647 16.268 11.025C16.268 11.8157 15.954 12.574 15.3949 13.1332C14.8359 13.6924 14.0777 14.0067 13.287 14.007H12.983C12.818 14.0071 12.6584 14.0656 12.5325 14.1721C12.4066 14.2786 12.3224 14.4263 12.295 14.589L11.968 16.538C11.9517 16.6334 11.9022 16.7199 11.8283 16.7823C11.7544 16.8447 11.6607 16.879 11.564 16.879H10.507L11.107 13.319C11.1371 13.2138 11.2006 13.1212 11.2879 13.0552C11.3752 12.9892 11.4816 12.9533 11.591 12.953H12.598C13.4222 12.9531 14.2183 12.6536 14.8381 12.1103C15.4578 11.5671 15.8591 10.8171 15.967 10ZM10.507 16.88H10.41C10.3504 16.88 10.2916 16.8669 10.2376 16.8418C10.1835 16.8167 10.1356 16.7802 10.0972 16.7347C10.0587 16.6892 10.0307 16.6358 10.0149 16.5784C9.99916 16.5209 9.99612 16.4607 10.006 16.402L10.036 16.226H10.221C10.3312 16.226 10.4379 16.187 10.5222 16.1161C10.6066 16.0451 10.6632 15.9466 10.682 15.838L10.689 15.802L10.507 16.879V16.88Z" fill="black"/>
<path d="M6 4C5.46957 4 4.96086 4.21071 4.58579 4.58579C4.21071 4.96086 4 5.46957 4 6V18C4 18.5304 4.21071 19.0391 4.58579 19.4142C4.96086 19.7893 5.46957 20 6 20H18C18.5304 20 19.0391 19.7893 19.4142 19.4142C19.7893 19.0391 20 18.5304 20 18V6C20 5.46957 19.7893 4.96086 19.4142 4.58579C19.0391 4.21071 18.5304 4 18 4H6ZM6 2H18C19.0609 2 20.0783 2.42143 20.8284 3.17157C21.5786 3.92172 22 4.93913 22 6V18C22 19.0609 21.5786 20.0783 20.8284 20.8284C20.0783 21.5786 19.0609 22 18 22H6C4.93913 22 3.92172 21.5786 3.17157 20.8284C2.42143 20.0783 2 19.0609 2 18V6C2 4.93913 2.42143 3.92172 3.17157 3.17157C3.92172 2.42143 4.93913 2 6 2V2Z" fill="black"/>
</svg>
