<svg width="24" height="24" viewBox="0 0 24 24" fill="none" xmlns="http://www.w3.org/2000/svg">
<path d="M8.32799 18.127L8.31699 18.197C8.28048 18.4056 8.17147 18.5947 8.00919 18.7308C7.84692 18.8669 7.6418 18.9413 7.42999 18.941H4.89999C4.7703 18.9411 4.64215 18.9128 4.52449 18.8583C4.40682 18.8037 4.30246 18.7242 4.21869 18.6252C4.13491 18.5262 4.07374 18.4101 4.03942 18.285C4.0051 18.1599 3.99847 18.0289 4.01999 17.901L6.56999 2.745C6.60479 2.53676 6.71231 2.34762 6.87344 2.21121C7.03458 2.07479 7.23887 1.99995 7.44999 2H14.37C14.9139 1.99987 15.4525 2.10688 15.955 2.31493C16.4575 2.52297 16.9141 2.82798 17.2988 3.21252C17.6834 3.59706 17.9885 4.0536 18.1967 4.55608C18.4049 5.05855 18.512 5.59711 18.512 6.141C18.512 6.414 18.495 6.681 18.462 6.945C18.9352 7.2805 19.321 7.72455 19.5873 8.23991C19.8535 8.75527 19.9923 9.32694 19.992 9.907C19.992 11.4242 19.3894 12.8793 18.3168 13.9524C17.2441 15.0254 15.7892 15.6285 14.272 15.629H13.689C13.3725 15.6293 13.0663 15.7416 12.8247 15.9461C12.5831 16.1505 12.4217 16.4339 12.369 16.746L12.055 18.616L12.369 16.746C12.4215 16.4338 12.5829 16.1503 12.8245 15.9459C13.0662 15.7414 13.3724 15.6291 13.689 15.629H14.271C15.7886 15.629 17.244 15.0261 18.3171 13.9531C19.3901 12.88 19.993 11.4246 19.993 9.907C19.9933 9.32694 19.8545 8.75527 19.5883 8.23991C19.322 7.72455 18.9362 7.2805 18.463 6.945C18.2669 8.5228 17.5011 9.97458 16.3096 11.0273C15.118 12.0799 13.5829 12.6609 11.993 12.661H10.06C9.84995 12.6613 9.64567 12.7298 9.47793 12.8562C9.3102 12.9826 9.18809 13.1601 9.12999 13.362L7.97499 20.224C7.89499 20.704 8.26399 21.14 8.74999 21.14H10.964C11.1497 21.14 11.3295 21.0742 11.4714 20.9543C11.6132 20.8344 11.708 20.6681 11.739 20.485L12.054 18.615L11.739 20.485C11.708 20.6681 11.6132 20.8344 11.4714 20.9543C11.3295 21.0742 11.1497 21.14 10.964 21.14H8.75099C8.63675 21.1403 8.52382 21.1156 8.42016 21.0675C8.3165 21.0195 8.22462 20.9494 8.15099 20.862C8.07697 20.7749 8.02294 20.6726 7.9927 20.5624C7.96247 20.4522 7.95676 20.3367 7.97599 20.224L8.32799 18.127Z" fill="black"/>
<path d="M19.45 7.995C19.815 8.562 20.028 9.237 20.028 9.962C20.028 10.7134 19.88 11.4575 19.5924 12.1517C19.3049 12.8459 18.8834 13.4767 18.3521 14.0081C17.8207 14.5394 17.1899 14.9609 16.4957 15.2484C15.8015 15.536 15.0574 15.684 14.306 15.684H13.725C13.071 15.684 12.513 16.156 12.405 16.801L11.775 20.54C11.7441 20.723 11.6494 20.8891 11.5077 21.009C11.3661 21.1289 11.1866 21.1948 11.001 21.195H8.97301L10.123 14.362C10.241 13.952 10.618 13.662 11.053 13.662H12.985C14.5665 13.662 16.094 13.0872 17.2832 12.0447C18.4724 11.0021 19.2421 9.56287 19.449 7.995H19.45ZM8.97301 21.195H8.78601C8.6718 21.195 8.55898 21.1701 8.45538 21.122C8.35178 21.0739 8.2599 21.0039 8.18614 20.9167C8.11237 20.8295 8.05849 20.7273 8.02825 20.6172C7.998 20.507 7.99212 20.3916 8.01101 20.279L8.06801 19.941H8.42301C8.63449 19.9411 8.83926 19.8667 9.00131 19.7308C9.16336 19.5949 9.27231 19.4063 9.30901 19.198L9.32101 19.128L8.97301 21.195Z" fill="black"/>
</svg>
