<svg width="24" height="24" viewBox="0 0 24 24" fill="none" xmlns="http://www.w3.org/2000/svg">
<path d="M8.148 15.276L6.498 16.376L6.083 18.056L7.748 17.636L8.852 15.98L8.148 15.276ZM9.6 13.899L10.227 14.526L10.318 14.494C11.255 14.16 12.198 13.475 13.142 12.405C14.281 11.115 16.203 8.81798 18.899 5.52598C18.9323 5.48549 18.9494 5.43406 18.9468 5.38169C18.9443 5.32932 18.9223 5.27978 18.8853 5.24271C18.8482 5.20564 18.7986 5.18369 18.7463 5.18115C18.6939 5.17862 18.6425 5.19566 18.602 5.22898C15.316 7.92198 13.019 9.84498 11.721 10.987C10.645 11.933 9.961 12.875 9.633 13.806L9.6 13.899ZM8.985 19.385L3.343 20.814L4.743 15.143L7.747 13.139C8.2 11.863 9.083 10.645 10.4 9.48598C11.72 8.32398 14.032 6.38898 17.336 3.68198C17.7599 3.33148 18.2994 3.15167 18.8488 3.17771C19.3983 3.20375 19.9183 3.43376 20.3071 3.82278C20.696 4.2118 20.9259 4.73187 20.9517 5.28133C20.9776 5.83079 20.7976 6.37015 20.447 6.79398C17.737 10.103 15.802 12.414 14.643 13.728C13.487 15.038 12.27 15.921 10.991 16.378L8.986 19.385H8.985Z" fill="black"/>
</svg>
