<svg width="24" height="24" viewBox="0 0 24 24" fill="none" xmlns="http://www.w3.org/2000/svg">
<path d="M14.738 7.97199L5.7 17.01L5.109 19.026L7.084 18.455L16.152 9.38699L14.738 7.97199ZM16.28 6.42999L17.694 7.84399L19.012 6.52599C19.1057 6.43223 19.1584 6.30508 19.1584 6.17249C19.1584 6.03991 19.1057 5.91276 19.012 5.81899L18.304 5.11199C18.2102 5.01826 18.0831 4.9656 17.9505 4.9656C17.8179 4.9656 17.6908 5.01826 17.597 5.11199L16.281 6.42999H16.28ZM19.719 3.69799L20.426 4.40499C20.8947 4.87381 21.158 5.50958 21.158 6.17249C21.158 6.8354 20.8947 7.47117 20.426 7.93999L8.134 20.233L3.914 21.453C3.74199 21.5026 3.55981 21.5051 3.3865 21.4603C3.21319 21.4154 3.05509 21.3249 2.92871 21.1981C2.80233 21.0713 2.7123 20.9129 2.66802 20.7395C2.62375 20.566 2.62685 20.3838 2.677 20.212L3.925 15.957L16.185 3.69699C16.6538 3.22832 17.2896 2.96503 17.9525 2.96503C18.6154 2.96503 19.2512 3.22832 19.72 3.69699L19.719 3.69799Z" fill="black"/>
</svg>
