<svg width="24" height="24" viewBox="0 0 24 24" fill="none" xmlns="http://www.w3.org/2000/svg">
<path d="M11.993 7C9.79 7 8.005 8.758 8.005 10.926C8.005 13.503 11.248 16.986 11.993 16.986C12.738 16.986 15.98 13.601 15.98 10.926C15.98 8.758 14.195 7 11.993 7ZM11.975 13.865C10.407 13.865 9.136 12.614 9.136 11.07C9.136 9.527 10.407 8.276 11.975 8.276C13.542 8.276 14.813 9.526 14.813 11.07C14.813 12.614 13.543 13.865 11.975 13.865Z" fill="black"/>
<path d="M11.975 8.81598C11.905 8.81598 11.835 8.81898 11.765 8.82598C11.935 9.01798 12.037 9.26798 12.037 9.54198C12.037 10.148 11.539 10.638 10.924 10.638C10.494 10.638 10.12 10.398 9.935 10.045C9.775 10.353 9.685 10.701 9.685 11.07C9.685 12.315 10.71 13.325 11.975 13.325C13.239 13.325 14.265 12.315 14.265 11.07C14.265 9.82498 13.24 8.81598 11.975 8.81598Z" fill="black"/>
<path d="M6 4C5.46957 4 4.96086 4.21071 4.58579 4.58579C4.21071 4.96086 4 5.46957 4 6V18C4 18.5304 4.21071 19.0391 4.58579 19.4142C4.96086 19.7893 5.46957 20 6 20H18C18.5304 20 19.0391 19.7893 19.4142 19.4142C19.7893 19.0391 20 18.5304 20 18V6C20 5.46957 19.7893 4.96086 19.4142 4.58579C19.0391 4.21071 18.5304 4 18 4H6ZM6 2H18C19.0609 2 20.0783 2.42143 20.8284 3.17157C21.5786 3.92172 22 4.93913 22 6V18C22 19.0609 21.5786 20.0783 20.8284 20.8284C20.0783 21.5786 19.0609 22 18 22H6C4.93913 22 3.92172 21.5786 3.17157 20.8284C2.42143 20.0783 2 19.0609 2 18V6C2 4.93913 2.42143 3.92172 3.17157 3.17157C3.92172 2.42143 4.93913 2 6 2V2Z" fill="black"/>
</svg>
