<svg width="24" height="24" viewBox="0 0 24 24" fill="none" xmlns="http://www.w3.org/2000/svg">
<path d="M11.993 7C9.79 7 8.005 8.758 8.005 10.926C8.005 13.503 11.248 16.986 11.993 16.986C12.738 16.986 15.98 13.601 15.98 10.926C15.98 8.758 14.195 7 11.993 7ZM11.975 13.865C10.407 13.865 9.136 12.614 9.136 11.07C9.136 9.527 10.407 8.276 11.975 8.276C13.542 8.276 14.813 9.526 14.813 11.07C14.813 12.614 13.543 13.865 11.975 13.865Z" fill="black"/>
<path d="M11.975 8.81598C11.905 8.81598 11.835 8.81898 11.765 8.82598C11.935 9.01798 12.037 9.26798 12.037 9.54198C12.037 10.148 11.539 10.638 10.924 10.638C10.494 10.638 10.12 10.398 9.935 10.045C9.775 10.353 9.685 10.701 9.685 11.07C9.685 12.315 10.71 13.325 11.975 13.325C13.239 13.325 14.265 12.315 14.265 11.07C14.265 9.82498 13.24 8.81598 11.975 8.81598Z" fill="black"/>
<path d="M12 20C14.1217 20 16.1566 19.1571 17.6569 17.6569C19.1571 16.1566 20 14.1217 20 12C20 9.87827 19.1571 7.84344 17.6569 6.34315C16.1566 4.84285 14.1217 4 12 4C9.87827 4 7.84344 4.84285 6.34315 6.34315C4.84285 7.84344 4 9.87827 4 12C4 14.1217 4.84285 16.1566 6.34315 17.6569C7.84344 19.1571 9.87827 20 12 20ZM12 22C6.477 22 2 17.523 2 12C2 6.477 6.477 2 12 2C17.523 2 22 6.477 22 12C22 17.523 17.523 22 12 22Z" fill="black"/>
</svg>
