<svg width="24" height="24" viewBox="0 0 24 24" fill="none" xmlns="http://www.w3.org/2000/svg">
<path d="M11.986 2C7.58001 2 4.01001 5.516 4.01001 9.852C4.01001 15.007 10.495 21.972 11.986 21.972C13.476 21.972 19.961 15.202 19.961 9.852C19.96 5.516 16.39 2 11.986 2ZM11.95 15.73C8.81401 15.73 6.27301 13.227 6.27301 10.14C6.27301 7.054 8.81401 4.551 11.95 4.551C15.085 4.551 17.626 7.054 17.626 10.141C17.626 13.227 15.085 15.73 11.95 15.73Z" fill="black"/>
<path d="M11.95 5.631C11.809 5.631 11.67 5.638 11.532 5.651C11.87 6.035 12.075 6.536 12.075 7.084C12.075 8.295 11.078 9.277 9.848 9.277C9.44141 9.27827 9.04222 9.16835 8.69359 8.95914C8.34496 8.74993 8.06016 8.44938 7.87 8.09C7.55 8.705 7.37 9.40101 7.37 10.14C7.37 12.63 9.42 14.649 11.95 14.649C14.479 14.649 16.53 12.63 16.53 10.139C16.53 7.649 14.479 5.63 11.95 5.63V5.631Z" fill="black"/>
</svg>
