<svg width="24" height="24" viewBox="0 0 24 24" fill="none" xmlns="http://www.w3.org/2000/svg">
<g clip-path="url(#clip0_201_31902)">
<path d="M2.4 19.5V13.5C2.4 13.8978 2.27357 14.2794 2.04853 14.5607C1.82348 14.842 1.51826 15 1.2 15C0.88174 15 0.576516 14.842 0.351472 14.5607C0.126428 14.2794 0 13.8978 0 13.5V10.5C0 10.1022 0.126428 9.72064 0.351472 9.43934C0.576516 9.15804 0.88174 9 1.2 9C1.51826 9 1.82348 9.15804 2.04853 9.43934C2.27357 9.72064 2.4 10.1022 2.4 10.5V4.5C2.4 4.89782 2.27357 5.27936 2.04853 5.56066C1.82348 5.84196 1.51826 6 1.2 6C0.88174 6 0.576516 5.84196 0.351472 5.56066C0.126428 5.27936 0 4.89782 0 4.5C0 3.30653 0.379285 2.16193 1.05442 1.31802C1.72955 0.474106 2.64522 0 3.6 0C3.91826 0 4.22348 0.158035 4.44853 0.43934C4.67357 0.720644 4.8 1.10218 4.8 1.5C4.8 1.89782 4.67357 2.27936 4.44853 2.56066C4.22348 2.84196 3.91826 3 3.6 3H8.4C8.08174 3 7.77652 2.84196 7.55147 2.56066C7.32643 2.27936 7.2 1.89782 7.2 1.5C7.2 1.10218 7.32643 0.720644 7.55147 0.43934C7.77652 0.158035 8.08174 0 8.4 0L12 0C12.3183 0 12.6235 0.158035 12.8485 0.43934C13.0736 0.720644 13.2 1.10218 13.2 1.5C13.2 1.89782 13.0736 2.27936 12.8485 2.56066C12.6235 2.84196 12.3183 3 12 3H16.8C16.4817 3 16.1765 2.84196 15.9515 2.56066C15.7264 2.27936 15.6 1.89782 15.6 1.5C15.6 1.10218 15.7264 0.720644 15.9515 0.43934C16.1765 0.158035 16.4817 0 16.8 0L20.4 0C21.3548 0 22.2705 0.474106 22.9456 1.31802C23.6207 2.16193 24 3.30653 24 4.5V19.5C24 20.6935 23.6207 21.8381 22.9456 22.682C22.2705 23.5259 21.3548 24 20.4 24H3.6C2.64522 24 1.72955 23.5259 1.05442 22.682C0.379285 21.8381 0 20.6935 0 19.5C0 19.1022 0.126428 18.7206 0.351472 18.4393C0.576516 18.158 0.88174 18 1.2 18C1.51826 18 1.82348 18.158 2.04853 18.4393C2.27357 18.7206 2.4 19.1022 2.4 19.5ZM21.6 12.7545V4.5C21.6 4.10218 21.4736 3.72064 21.2485 3.43934C21.0235 3.15804 20.7183 3 20.4 3H3.6C3.28174 3 2.97652 3.15804 2.75147 3.43934C2.52643 3.72064 2.4 4.10218 2.4 4.5V19.5C2.4 19.8978 2.52643 20.2794 2.75147 20.5607C2.97652 20.842 3.28174 21 3.6 21H7.8048L13.0728 10.017C13.354 9.43114 13.7381 8.933 14.1962 8.56033C14.6543 8.18767 15.1742 7.95027 15.7166 7.86613C16.259 7.782 16.8096 7.85334 17.3266 8.07475C17.8437 8.29615 18.3136 8.66181 18.7008 9.144L21.6 12.7545ZM21.6 16.989L17.0064 11.268C16.8773 11.1074 16.7206 10.9857 16.5482 10.9121C16.3758 10.8385 16.1923 10.8149 16.0116 10.843C15.8308 10.8712 15.6576 10.9505 15.505 11.0748C15.3524 11.1991 15.2244 11.3652 15.1308 11.5605L10.6032 21H20.4C20.7183 21 21.0235 20.842 21.2485 20.5607C21.4736 20.2794 21.6 19.8978 21.6 19.5V16.989ZM7.2 13.5C6.24522 13.5 5.32955 13.0259 4.65442 12.182C3.97929 11.3381 3.6 10.1935 3.6 9C3.6 7.80653 3.97929 6.66193 4.65442 5.81802C5.32955 4.97411 6.24522 4.5 7.2 4.5C8.15478 4.5 9.07045 4.97411 9.74559 5.81802C10.4207 6.66193 10.8 7.80653 10.8 9C10.8 10.1935 10.4207 11.3381 9.74559 12.182C9.07045 13.0259 8.15478 13.5 7.2 13.5ZM7.2 10.5C7.51826 10.5 7.82348 10.342 8.04853 10.0607C8.27357 9.77936 8.4 9.39782 8.4 9C8.4 8.60218 8.27357 8.22064 8.04853 7.93934C7.82348 7.65804 7.51826 7.5 7.2 7.5C6.88174 7.5 6.57652 7.65804 6.35147 7.93934C6.12643 8.22064 6 8.60218 6 9C6 9.39782 6.12643 9.77936 6.35147 10.0607C6.57652 10.342 6.88174 10.5 7.2 10.5Z" fill="black"/>
</g>
<defs>
<clipPath id="clip0_201_31902">
<rect width="24" height="24" fill="white"/>
</clipPath>
</defs>
</svg>
