<svg width="24" height="24" viewBox="0 0 24 24" fill="none" xmlns="http://www.w3.org/2000/svg">
<path d="M22 14.536L17.584 10.096C17.2613 9.77454 16.8697 9.53077 16.4389 9.38316C16.008 9.23556 15.5492 9.188 15.0972 9.24409C14.6452 9.30018 14.2119 9.45844 13.8302 9.70689C13.4484 9.95533 13.1283 10.2874 12.894 10.678L7.072 20H5C4.20435 20 3.44129 19.6839 2.87868 19.1213C2.31607 18.5587 2 17.7956 2 17V7C2 6.20435 2.31607 5.44129 2.87868 4.87868C3.44129 4.31607 4.20435 4 5 4H19C19.7956 4 20.5587 4.31607 21.1213 4.87868C21.6839 5.44129 22 6.20435 22 7V14.536ZM21.989 17.26C21.9239 18.0079 21.5809 18.7042 21.0275 19.2114C20.4741 19.7187 19.7507 20.0001 19 20H9.64L14.609 11.707C14.687 11.5768 14.7937 11.4661 14.9208 11.3832C15.048 11.3003 15.1924 11.2475 15.343 11.2287C15.4936 11.2099 15.6465 11.2256 15.7902 11.2747C15.9338 11.3238 16.0644 11.405 16.172 11.512L21.989 17.26ZM8 13C8.79565 13 9.55871 12.6839 10.1213 12.1213C10.6839 11.5587 11 10.7956 11 10C11 9.20435 10.6839 8.44129 10.1213 7.87868C9.55871 7.31607 8.79565 7 8 7C7.20435 7 6.44129 7.31607 5.87868 7.87868C5.31607 8.44129 5 9.20435 5 10C5 10.7956 5.31607 11.5587 5.87868 12.1213C6.44129 12.6839 7.20435 13 8 13Z" fill="black"/>
</svg>
