<svg width="24" height="24" viewBox="0 0 24 24" fill="none" xmlns="http://www.w3.org/2000/svg">
<path d="M11 11.9C9.78864 11.6491 8.71325 10.9582 7.9815 9.96074C7.24976 8.9633 6.91359 7.73009 7.03791 6.49929C7.16223 5.26848 7.73823 4.12741 8.65466 3.29645C9.57109 2.4655 10.7629 2.00361 12 2C13.2399 1.99876 14.4361 2.45828 15.3563 3.28938C16.2765 4.12047 16.8551 5.26383 16.9797 6.49751C17.1043 7.73118 16.7661 8.96715 16.0307 9.96548C15.2953 10.9638 14.2151 11.6533 13 11.9V21C13 21.2652 12.8946 21.5196 12.7071 21.7071C12.5196 21.8946 12.2652 22 12 22C11.7348 22 11.4804 21.8946 11.2929 21.7071C11.1054 21.5196 11 21.2652 11 21V11.9ZM12 10C12.7956 10 13.5587 9.68393 14.1213 9.12132C14.6839 8.55871 15 7.79565 15 7C15 6.20435 14.6839 5.44129 14.1213 4.87868C13.5587 4.31607 12.7956 4 12 4C11.2043 4 10.4413 4.31607 9.87867 4.87868C9.31607 5.44129 8.99999 6.20435 8.99999 7C8.99999 7.79565 9.31607 8.55871 9.87867 9.12132C10.4413 9.68393 11.2043 10 12 10Z" fill="black"/>
</svg>
