<svg width="24" height="24" viewBox="0 0 24 24" fill="none" xmlns="http://www.w3.org/2000/svg">
<path d="M11.355 13.614C11.1 14.99 10.79 16.31 9.866 17C9.582 14.92 10.285 13.356 10.611 11.697C10.055 10.733 10.678 8.79097 11.851 9.26997C13.296 9.85797 10.601 12.856 12.411 13.23C14.299 13.622 15.071 9.85597 13.899 8.62997C12.207 6.86197 8.972 8.58997 9.37 11.122C9.467 11.742 10.088 11.929 9.618 12.783C8.535 12.536 8.212 11.656 8.253 10.483C8.32 8.56297 9.928 7.21997 11.542 7.03297C13.582 6.79797 15.496 7.80497 15.761 9.78097C16.058 12.011 14.84 14.427 12.658 14.253C12.068 14.206 11.818 13.903 11.355 13.613V13.614Z" fill="black"/>
<path d="M12 20C14.1217 20 16.1566 19.1571 17.6569 17.6569C19.1571 16.1566 20 14.1217 20 12C20 9.87827 19.1571 7.84344 17.6569 6.34315C16.1566 4.84285 14.1217 4 12 4C9.87827 4 7.84344 4.84285 6.34315 6.34315C4.84285 7.84344 4 9.87827 4 12C4 14.1217 4.84285 16.1566 6.34315 17.6569C7.84344 19.1571 9.87827 20 12 20ZM12 22C6.477 22 2 17.523 2 12C2 6.477 6.477 2 12 2C17.523 2 22 6.477 22 12C22 17.523 17.523 22 12 22Z" fill="black"/>
</svg>
