<svg width="24" height="24" viewBox="0 0 24 24" fill="none" xmlns="http://www.w3.org/2000/svg">
<path d="M6 2H18C19.0609 2 20.0783 2.42143 20.8284 3.17157C21.5786 3.92172 22 4.93913 22 6V18C22 19.0609 21.5786 20.0783 20.8284 20.8284C20.0783 21.5786 19.0609 22 18 22H6C4.93913 22 3.92172 21.5786 3.17157 20.8284C2.42143 20.0783 2 19.0609 2 18V6C2 4.93913 2.42143 3.92172 3.17157 3.17157C3.92172 2.42143 4.93913 2 6 2V2ZM16.126 13.746C16.339 13.593 16.523 13.398 16.666 13.171C17.272 12.206 17.031 10.901 16.126 10.254L12.07 7.356C11.7502 7.12556 11.3662 7.00107 10.972 7C9.883 7 9 7.941 9 9.102V14.898C9 15.315 9.116 15.722 9.334 16.068C9.941 17.033 11.166 17.29 12.071 16.644L16.126 13.746ZM10.926 9.13L14.981 12.028L10.925 14.925V9.13H10.926Z" fill="black"/>
</svg>
