<svg width="24" height="24" viewBox="0 0 24 24" fill="none" xmlns="http://www.w3.org/2000/svg">
<path d="M8 11V14.5C8 15.4283 8.36875 16.3185 9.02513 16.9749C9.6815 17.6313 10.5717 18 11.5 18H12.5C13.4283 18 14.3185 17.6313 14.9749 16.9749C15.6313 16.3185 16 15.4283 16 14.5V11H8ZM14 9V3C14 2.73478 14.1054 2.48043 14.2929 2.29289C14.4804 2.10536 14.7348 2 15 2C15.2652 2 15.5196 2.10536 15.7071 2.29289C15.8946 2.48043 16 2.73478 16 3V9C16.5304 9 17.0391 9.21071 17.4142 9.58579C17.7893 9.96086 18 10.4696 18 11V14.5C17.9999 15.7247 17.5911 16.9144 16.8385 17.8805C16.0859 18.8467 15.0324 19.5342 13.845 19.834C13.9584 20.0628 14.0114 20.3167 13.9992 20.5717C13.987 20.8267 13.9099 21.0744 13.7753 21.2913C13.6406 21.5082 13.4528 21.6871 13.2296 21.8111C13.0064 21.9352 12.7553 22.0002 12.5 22H11.5C11.2447 22.0002 10.9936 21.9352 10.7704 21.8111C10.5472 21.6871 10.3594 21.5082 10.2247 21.2913C10.0901 21.0744 10.013 20.8267 10.0008 20.5717C9.98855 20.3167 10.0416 20.0628 10.155 19.834C8.96756 19.5342 7.9141 18.8467 7.16148 17.8805C6.40887 16.9144 6.00013 15.7247 6 14.5V11C6 10.4696 6.21071 9.96086 6.58579 9.58579C6.96086 9.21071 7.46957 9 8 9V3C8 2.73478 8.10536 2.48043 8.29289 2.29289C8.48043 2.10536 8.73478 2 9 2C9.26522 2 9.51957 2.10536 9.70711 2.29289C9.89464 2.48043 10 2.73478 10 3V9H14Z" fill="black"/>
</svg>
