<svg width="24" height="24" viewBox="0 0 24 24" fill="none" xmlns="http://www.w3.org/2000/svg">
<path d="M13 14H15C15.2652 14 15.5196 14.1053 15.7071 14.2929C15.8946 14.4804 16 14.7348 16 15C16 15.2652 15.8946 15.5195 15.7071 15.7071C15.5196 15.8946 15.2652 16 15 16H12C11.7348 16 11.4804 15.8946 11.2929 15.7071C11.1054 15.5195 11 15.2652 11 15V11C11 10.7348 11.1054 10.4804 11.2929 10.2929C11.4804 10.1053 11.7348 9.99997 12 9.99997C12.2652 9.99997 12.5196 10.1053 12.7071 10.2929C12.8946 10.4804 13 10.7348 13 11V14ZM11 6.73197V5.99997C11 5.73476 11.1054 5.4804 11.2929 5.29287C11.4804 5.10533 11.7348 4.99997 12 4.99997C12.2652 4.99997 12.5196 5.10533 12.7071 5.29287C12.8946 5.4804 13 5.73476 13 5.99997V6.73197C13.3813 6.51184 13.6793 6.17204 13.8478 5.76529C14.0162 5.35853 14.0458 4.90755 13.9319 4.48228C13.8179 4.05702 13.5668 3.68123 13.2175 3.41322C12.8682 3.1452 12.4403 2.99992 12 2.99992C11.5597 2.99992 11.1318 3.1452 10.7825 3.41322C10.4332 3.68123 10.1821 4.05702 10.0682 4.48228C9.9542 4.90755 9.98376 5.35853 10.1522 5.76529C10.3207 6.17204 10.6187 6.51184 11 6.73197ZM8.95901 7.59797C8.46238 7.01678 8.14271 6.30546 8.03783 5.54821C7.93295 4.79097 8.04726 4.01953 8.36723 3.32525C8.6872 2.63096 9.19943 2.04291 9.84325 1.63071C10.4871 1.21852 11.2355 0.999451 12 0.999451C12.7645 0.999451 13.5129 1.21852 14.1568 1.63071C14.8006 2.04291 15.3128 2.63096 15.6328 3.32525C15.9527 4.01953 16.0671 4.79097 15.9622 5.54821C15.8573 6.30546 15.5376 7.01678 15.041 7.59797C16.7542 8.30293 18.1697 9.58047 19.0461 11.2126C19.9224 12.8448 20.2053 14.7305 19.8465 16.548C19.4876 18.3655 18.5093 20.0021 17.0783 21.1787C15.6474 22.3554 13.8526 22.999 12 23C10.1462 23.0014 8.34937 22.3589 6.91672 21.1824C5.48406 20.0059 4.50447 18.3683 4.14538 16.5496C3.78629 14.7309 4.06998 12.8439 4.94797 11.2111C5.82596 9.57839 7.24374 8.30124 8.95901 7.59797ZM12 21C12.7879 21 13.5682 20.8448 14.2961 20.5433C15.0241 20.2417 15.6855 19.7998 16.2426 19.2426C16.7998 18.6855 17.2418 18.024 17.5433 17.2961C17.8448 16.5681 18 15.7879 18 15C18 14.212 17.8448 13.4318 17.5433 12.7039C17.2418 11.9759 16.7998 11.3145 16.2426 10.7573C15.6855 10.2002 15.0241 9.75822 14.2961 9.4567C13.5682 9.15517 12.7879 8.99997 12 8.99997C10.4087 8.99997 8.88258 9.63211 7.75737 10.7573C6.63215 11.8826 6.00001 13.4087 6.00001 15C6.00001 16.5913 6.63215 18.1174 7.75737 19.2426C8.88258 20.3678 10.4087 21 12 21Z" fill="black"/>
</svg>
