<svg width="24" height="24" viewBox="0 0 24 24" fill="none" xmlns="http://www.w3.org/2000/svg">
<path d="M13 15V12C13 11.7348 12.8946 11.4804 12.7071 11.2929C12.5196 11.1053 12.2652 11 12 11C11.7348 11 11.4804 11.1053 11.2929 11.2929C11.1054 11.4804 11 11.7348 11 12V16C11 16.2652 11.1054 16.5195 11.2929 16.7071C11.4804 16.8946 11.7348 17 12 17H15C15.2652 17 15.5196 16.8946 15.7071 16.7071C15.8946 16.5195 16 16.2652 16 16C16 15.7348 15.8946 15.4804 15.7071 15.2929C15.5196 15.1053 15.2652 15 15 15H13ZM11 7.73197V6.99997C11 6.73476 11.1054 6.4804 11.2929 6.29287C11.4804 6.10533 11.7348 5.99997 12 5.99997C12.2652 5.99997 12.5196 6.10533 12.7071 6.29287C12.8946 6.4804 13 6.73476 13 6.99997V7.73197C13.3813 7.51184 13.6793 7.17204 13.8478 6.76529C14.0162 6.35853 14.0458 5.90755 13.9319 5.48228C13.8179 5.05702 13.5668 4.68123 13.2175 4.41322C12.8682 4.1452 12.4403 3.99992 12 3.99992C11.5597 3.99992 11.1318 4.1452 10.7825 4.41322C10.4332 4.68123 10.1821 5.05702 10.0681 5.48228C9.9542 5.90755 9.98376 6.35853 10.1522 6.76529C10.3207 7.17204 10.6187 7.51184 11 7.73197ZM12 22C11.2121 22 10.4319 21.8448 9.7039 21.5433C8.97595 21.2417 8.31451 20.7998 7.75736 20.2426C7.20021 19.6855 6.75825 19.024 6.45672 18.2961C6.15519 17.5681 6 16.7879 6 16C6 15.212 6.15519 14.4318 6.45672 13.7039C6.75825 12.9759 7.20021 12.3145 7.75736 11.7573C8.31451 11.2002 8.97595 10.7582 9.7039 10.4567C10.4319 10.1552 11.2121 9.99997 12 9.99997C13.5913 9.99997 15.1174 10.6321 16.2426 11.7573C17.3679 12.8826 18 14.4087 18 16C18 17.5913 17.3679 19.1174 16.2426 20.2426C15.1174 21.3678 13.5913 22 12 22ZM8.959 8.59797C8.46238 8.01678 8.1427 7.30546 8.03782 6.54821C7.93294 5.79097 8.04726 5.01953 8.36723 4.32525C8.6872 3.63096 9.19942 3.04291 9.84324 2.63071C10.4871 2.21852 11.2355 1.99945 12 1.99945C12.7645 1.99945 13.5129 2.21852 14.1568 2.63071C14.8006 3.04291 15.3128 3.63096 15.6328 4.32525C15.9527 5.01953 16.0671 5.79097 15.9622 6.54821C15.8573 7.30546 15.5376 8.01678 15.041 8.59797C14.0762 8.20175 13.043 7.99858 12 7.99997C10.957 7.99858 9.92382 8.20175 8.959 8.59797Z" fill="black"/>
</svg>
