<svg width="24" height="24" viewBox="0 0 24 24" fill="none" xmlns="http://www.w3.org/2000/svg">
<path d="M16.07 14.847C16.07 14.847 16.021 15.565 15.374 15.565C14.874 15.565 14.533 15.18 14.214 14.681C14.6833 14.264 15.0583 13.7517 15.314 13.1784C15.5697 12.6051 15.7003 11.9838 15.697 11.356C15.697 8.95 13.821 7 11.507 7C9.193 7 7.317 8.95 7.317 11.356C7.317 13.761 9.193 15.712 11.507 15.712C11.927 15.712 12.333 15.647 12.715 15.528C13.199 16.303 13.813 17 14.775 17C16.733 17 16.814 14.847 16.814 14.847H16.07ZM11.507 14.994C10.157 14.994 9.064 13.365 9.064 11.356C9.064 9.346 10.158 7.718 11.507 7.718C12.857 7.718 13.95 9.347 13.95 11.356C13.95 12.155 13.777 12.893 13.484 13.494C13.153 13.017 12.755 12.611 12.187 12.481C11.178 12.252 10.31 12.71 10.035 12.938L10.294 13.477C10.294 13.477 10.555 13.325 11.204 13.477C11.614 13.572 11.931 14.144 12.294 14.8C12.0507 14.9261 11.781 14.9926 11.507 14.994Z" fill="black"/>
<path d="M6 4C5.46957 4 4.96086 4.21071 4.58579 4.58579C4.21071 4.96086 4 5.46957 4 6V18C4 18.5304 4.21071 19.0391 4.58579 19.4142C4.96086 19.7893 5.46957 20 6 20H18C18.5304 20 19.0391 19.7893 19.4142 19.4142C19.7893 19.0391 20 18.5304 20 18V6C20 5.46957 19.7893 4.96086 19.4142 4.58579C19.0391 4.21071 18.5304 4 18 4H6ZM6 2H18C19.0609 2 20.0783 2.42143 20.8284 3.17157C21.5786 3.92172 22 4.93913 22 6V18C22 19.0609 21.5786 20.0783 20.8284 20.8284C20.0783 21.5786 19.0609 22 18 22H6C4.93913 22 3.92172 21.5786 3.17157 20.8284C2.42143 20.0783 2 19.0609 2 18V6C2 4.93913 2.42143 3.92172 3.17157 3.17157C3.92172 2.42143 4.93913 2 6 2V2Z" fill="black"/>
</svg>
