<svg width="24" height="24" viewBox="0 0 24 24" fill="none" xmlns="http://www.w3.org/2000/svg">
<path d="M12 19.5C13.9891 19.5 15.8968 18.7098 17.3033 17.3033C18.7098 15.8968 19.5 13.9891 19.5 12C19.5 10.0109 18.7098 8.10322 17.3033 6.6967C15.8968 5.29018 13.9891 4.5 12 4.5C10.0109 4.5 8.10322 5.29018 6.6967 6.6967C5.29018 8.10322 4.5 10.0109 4.5 12C4.5 13.9891 5.29018 15.8968 6.6967 17.3033C8.10322 18.7098 10.0109 19.5 12 19.5ZM12 21.5C9.48044 21.5 7.06408 20.4991 5.28249 18.7175C3.50089 16.9359 2.5 14.5196 2.5 12C2.5 9.48044 3.50089 7.06408 5.28249 5.28249C7.06408 3.50089 9.48044 2.5 12 2.5C14.5196 2.5 16.9359 3.50089 18.7175 5.28249C20.4991 7.06408 21.5 9.48044 21.5 12C21.5 14.5196 20.4991 16.9359 18.7175 18.7175C16.9359 20.4991 14.5196 21.5 12 21.5Z" fill="black"/>
<path d="M16.57 15.347C16.57 15.347 16.521 16.065 15.874 16.065C15.374 16.065 15.033 15.68 14.714 15.181C15.1833 14.764 15.5583 14.2517 15.814 13.6784C16.0697 13.1051 16.2003 12.4838 16.197 11.856C16.197 9.45 14.321 7.5 12.007 7.5C9.693 7.5 7.817 9.45 7.817 11.856C7.817 14.261 9.693 16.212 12.007 16.212C12.427 16.212 12.833 16.147 13.215 16.028C13.699 16.803 14.313 17.5 15.275 17.5C17.233 17.5 17.314 15.347 17.314 15.347H16.57ZM12.007 15.494C10.657 15.494 9.564 13.865 9.564 11.856C9.564 9.846 10.658 8.218 12.007 8.218C13.357 8.218 14.45 9.847 14.45 11.856C14.45 12.655 14.277 13.393 13.984 13.994C13.653 13.517 13.255 13.111 12.687 12.981C11.678 12.752 10.81 13.21 10.535 13.438L10.794 13.977C10.794 13.977 11.055 13.825 11.704 13.977C12.114 14.072 12.431 14.644 12.794 15.3C12.5507 15.4261 12.281 15.4926 12.007 15.494Z" fill="black"/>
</svg>
