<svg width="24" height="24" viewBox="0 0 24 24" fill="none" xmlns="http://www.w3.org/2000/svg">
<path d="M19.995 17.682C19.995 17.682 19.898 19.116 18.605 19.116C17.605 19.116 16.923 18.348 16.285 17.351C18.099 15.754 19.251 13.369 19.251 10.705C19.251 5.897 15.501 2 10.877 2C6.252 2 2.503 5.897 2.503 10.705C2.503 15.513 6.252 19.41 10.877 19.41C11.717 19.41 12.527 19.281 13.291 19.042C14.258 20.592 15.486 21.985 17.408 21.985C21.32 21.985 21.482 17.682 21.482 17.682H19.995ZM10.877 17.975C8.181 17.975 5.995 14.72 5.995 10.705C5.995 6.69 8.181 3.435 10.877 3.435C13.573 3.435 15.759 6.69 15.759 10.705C15.759 12.302 15.413 13.778 14.827 14.977C14.165 14.024 13.371 13.213 12.235 12.955C10.22 12.496 8.485 13.411 7.935 13.867L8.452 14.943C8.452 14.943 8.975 14.64 10.272 14.943C11.089 15.133 11.724 16.277 12.452 17.589C11.965 17.8406 11.4252 17.973 10.877 17.975Z" fill="black"/>
</svg>
