<svg width="24" height="24" viewBox="0 0 24 24" fill="none" xmlns="http://www.w3.org/2000/svg">
<g clip-path="url(#clip0_201_31986)">
<path d="M8.57143 0C9.02609 0 9.46212 0.280952 9.78361 0.781049C10.1051 1.28115 10.2857 1.95942 10.2857 2.66667C10.2857 3.37391 10.1051 4.05219 9.78361 4.55229C9.46212 5.05238 9.02609 5.33333 8.57143 5.33333C7.04057 5.33333 5.66571 6.37333 4.72286 8.02667C5.75447 7.89517 6.78759 8.25096 7.68712 9.04751C8.58665 9.84406 9.31074 11.0443 9.7647 12.4913C10.2187 13.9383 10.3814 15.5647 10.2316 17.1579C10.0817 18.751 9.62638 20.2368 8.925 21.4209C8.22362 22.605 7.30887 23.4323 6.30035 23.7947C5.29184 24.1571 4.2365 24.0376 3.27232 23.452C2.30814 22.8664 1.47999 21.8418 0.896168 20.5123C0.312343 19.1828 7.21206e-06 17.6101 0 16L0 13.3333C0 9.79711 0.903059 6.40573 2.51051 3.90524C4.11797 1.40476 6.29814 0 8.57143 0V0ZM22.2857 0C22.7404 0 23.1764 0.280952 23.4979 0.781049C23.8194 1.28115 24 1.95942 24 2.66667C24 3.37391 23.8194 4.05219 23.4979 4.55229C23.1764 5.05238 22.7404 5.33333 22.2857 5.33333C20.7549 5.33333 19.38 6.37333 18.4371 8.02667C19.4688 7.89517 20.5019 8.25096 21.4014 9.04751C22.3009 9.84406 23.025 11.0443 23.479 12.4913C23.9329 13.9383 24.0957 15.5647 23.9458 17.1579C23.796 18.751 23.3407 20.2368 22.6393 21.4209C21.9379 22.605 21.0232 23.4323 20.0146 23.7947C19.0061 24.1571 17.9508 24.0376 16.9866 23.452C16.0224 22.8664 15.1943 21.8418 14.6105 20.5123C14.0266 19.1828 13.7143 17.6101 13.7143 16V13.3333C13.7143 9.79711 14.6173 6.40573 16.2248 3.90524C17.8323 1.40476 20.0124 0 22.2857 0V0ZM5.14286 13.3333C4.6882 13.3333 4.25216 13.6143 3.93067 14.1144C3.60918 14.6145 3.42857 15.2928 3.42857 16C3.42857 16.7072 3.60918 17.3855 3.93067 17.8856C4.25216 18.3857 4.6882 18.6667 5.14286 18.6667C5.59751 18.6667 6.03355 18.3857 6.35504 17.8856C6.67653 17.3855 6.85714 16.7072 6.85714 16C6.85714 15.2928 6.67653 14.6145 6.35504 14.1144C6.03355 13.6143 5.59751 13.3333 5.14286 13.3333ZM18.8571 13.3333C18.4025 13.3333 17.9665 13.6143 17.645 14.1144C17.3235 14.6145 17.1429 15.2928 17.1429 16C17.1429 16.7072 17.3235 17.3855 17.645 17.8856C17.9665 18.3857 18.4025 18.6667 18.8571 18.6667C19.3118 18.6667 19.7478 18.3857 20.0693 17.8856C20.3908 17.3855 20.5714 16.7072 20.5714 16C20.5714 15.2928 20.3908 14.6145 20.0693 14.1144C19.7478 13.6143 19.3118 13.3333 18.8571 13.3333Z" fill="black"/>
</g>
<defs>
<clipPath id="clip0_201_31986">
<rect width="24" height="24" fill="white"/>
</clipPath>
</defs>
</svg>
