<svg width="24" height="24" viewBox="0 0 24 24" fill="none" xmlns="http://www.w3.org/2000/svg">
<path d="M12 18C12.7879 18 13.5681 17.8448 14.2961 17.5433C15.0241 17.2417 15.6855 16.7998 16.2426 16.2426C16.7998 15.6855 17.2417 15.0241 17.5433 14.2961C17.8448 13.5681 18 12.7879 18 12C18 11.2121 17.8448 10.4319 17.5433 9.7039C17.2417 8.97595 16.7998 8.31451 16.2426 7.75736C15.6855 7.20021 15.0241 6.75825 14.2961 6.45672C13.5681 6.15519 12.7879 6 12 6C10.4087 6 8.88258 6.63214 7.75736 7.75736C6.63214 8.88258 6 10.4087 6 12C6 13.5913 6.63214 15.1174 7.75736 16.2426C8.88258 17.3679 10.4087 18 12 18ZM12 20C9.87827 20 7.84344 19.1571 6.34315 17.6569C4.84285 16.1566 4 14.1217 4 12C4 9.87827 4.84285 7.84344 6.34315 6.34315C7.84344 4.84285 9.87827 4 12 4C14.1217 4 16.1566 4.84285 17.6569 6.34315C19.1571 7.84344 20 9.87827 20 12C20 14.1217 19.1571 16.1566 17.6569 17.6569C16.1566 19.1571 14.1217 20 12 20Z" fill="black"/>
</svg>
