<svg width="24" height="24" viewBox="0 0 24 24" fill="none" xmlns="http://www.w3.org/2000/svg">
<path d="M21.986 11.029C21.9853 10.5329 21.8375 10.0481 21.5614 9.63587C21.2853 9.22365 20.8933 8.90251 20.4347 8.713C19.9762 8.52349 19.4718 8.47412 18.9853 8.57113C18.4987 8.66813 18.0518 8.90716 17.701 9.25801C16.297 8.35201 14.504 7.77501 12.535 7.68501C12.5346 7.27415 12.6268 6.86847 12.8048 6.49816C12.9828 6.12784 13.2419 5.80239 13.563 5.54601C13.8835 5.28778 14.2581 5.1052 14.6589 5.01188C15.0597 4.91855 15.4764 4.91689 15.878 5.00701L15.99 5.03201C15.99 5.06001 15.986 5.08801 15.986 5.11601C15.9849 5.62054 16.166 6.10852 16.4958 6.49027C16.8257 6.87202 17.2823 7.12191 17.7816 7.19401C18.281 7.26611 18.7896 7.15559 19.214 6.88274C19.6383 6.6099 19.95 6.19306 20.0917 5.70884C20.2334 5.22461 20.1956 4.70551 19.9852 4.24694C19.7748 3.78836 19.406 3.42111 18.9465 3.21267C18.4871 3.00422 17.9678 2.96859 17.4842 3.11232C17.0006 3.25604 16.5851 3.56947 16.314 3.99501L16.113 3.95001C15.5531 3.82429 14.9719 3.82661 14.413 3.95682C13.8541 4.08703 13.3318 4.34176 12.885 4.70201C12.4373 5.05958 12.076 5.51345 11.8279 6.0299C11.5798 6.54634 11.4513 7.11207 11.452 7.68501C9.48201 7.77501 7.69001 8.35201 6.28701 9.25701C6.03189 8.99949 5.72401 8.80028 5.38456 8.67309C5.04511 8.54589 4.68213 8.49374 4.3206 8.52021C3.95907 8.54667 3.60756 8.65114 3.29025 8.82641C2.97294 9.00168 2.69736 9.24361 2.48246 9.53554C2.26757 9.82748 2.11846 10.1625 2.04539 10.5176C1.97232 10.8726 1.97702 11.2393 2.05918 11.5924C2.14133 11.9454 2.29899 12.2765 2.5213 12.5628C2.74361 12.8492 3.02531 13.0839 3.34701 13.251C3.28601 13.561 3.25401 13.879 3.25401 14.203C3.25401 17.809 7.16601 20.733 11.994 20.733C16.82 20.733 20.733 17.809 20.733 14.203C20.733 13.879 20.701 13.562 20.64 13.251C21.0459 13.0388 21.3859 12.7196 21.6231 12.3279C21.8604 11.9362 21.9859 11.487 21.986 11.029ZM18.081 4.10401C18.344 4.11228 18.5935 4.22258 18.7766 4.41155C18.9598 4.60053 19.0622 4.85336 19.0622 5.11651C19.0622 5.37967 18.9598 5.63249 18.7766 5.82147C18.5935 6.01045 18.344 6.12075 18.081 6.12901C17.818 6.12075 17.5685 6.01045 17.3854 5.82147C17.2022 5.63249 17.0998 5.37967 17.0998 5.11651C17.0998 4.85336 17.2022 4.60053 17.3854 4.41155C17.5685 4.22258 17.818 4.11228 18.081 4.10401ZM3.08301 11.03C3.08301 10.243 3.72301 9.60301 4.51001 9.60301C4.84701 9.60301 5.15601 9.72101 5.40001 9.91701C4.63701 10.572 4.04601 11.342 3.67901 12.187C3.4948 12.0555 3.34464 11.8819 3.24098 11.6806C3.13733 11.4794 3.08317 11.2564 3.08301 11.03ZM17.525 17.953C16.06 19.048 14.095 19.651 11.993 19.651C9.89101 19.651 7.92601 19.048 6.46201 17.953C5.09201 16.93 4.33701 15.598 4.33701 14.203C4.33701 12.809 5.09101 11.478 6.46201 10.453C7.92601 9.35901 9.89001 8.75701 11.993 8.75701C14.096 8.75701 16.06 9.35901 17.525 10.454C18.895 11.478 19.65 12.809 19.65 14.204C19.65 15.598 18.895 16.93 17.525 17.954V17.953ZM20.307 12.186C19.94 11.341 19.349 10.572 18.586 9.91701C18.83 9.72101 19.14 9.60301 19.476 9.60301C20.263 9.60301 20.903 10.243 20.903 11.03C20.903 11.506 20.668 11.928 20.307 12.186Z" fill="black"/>
<path d="M8.80099 13.821C9.43225 13.821 9.94399 13.3093 9.94399 12.678C9.94399 12.0468 9.43225 11.535 8.80099 11.535C8.16973 11.535 7.65799 12.0468 7.65799 12.678C7.65799 13.3093 8.16973 13.821 8.80099 13.821Z" fill="black"/>
<path d="M15.185 13.821C15.8163 13.821 16.328 13.3093 16.328 12.678C16.328 12.0468 15.8163 11.535 15.185 11.535C14.5537 11.535 14.042 12.0468 14.042 12.678C14.042 13.3093 14.5537 13.821 15.185 13.821Z" fill="black"/>
<path d="M14.701 15.455C13.8974 16.188 12.8487 16.594 11.761 16.593C11.1612 16.5956 10.5674 16.4733 10.0173 16.234C9.46731 15.9947 8.97306 15.6436 8.56601 15.203C8.46814 15.0979 8.33251 15.0359 8.18895 15.0307C8.04539 15.0256 7.90567 15.0777 7.80051 15.1755C7.69535 15.2734 7.63338 15.409 7.62822 15.5526C7.62306 15.6961 7.67514 15.8359 7.77301 15.941C8.28378 16.4875 8.90123 16.9235 9.58717 17.2219C10.2731 17.5203 11.013 17.6749 11.761 17.676C13.1189 17.6773 14.428 17.1704 15.431 16.255C15.4835 16.2071 15.5261 16.1493 15.5563 16.0849C15.5865 16.0205 15.6037 15.9508 15.6069 15.8798C15.6102 15.8087 15.5994 15.7378 15.5752 15.6709C15.5511 15.604 15.5139 15.5426 15.466 15.49C15.4181 15.4375 15.3603 15.3949 15.2959 15.3647C15.2315 15.3346 15.1618 15.3173 15.0908 15.3141C15.0197 15.3108 14.9487 15.3216 14.8819 15.3458C14.815 15.37 14.7535 15.4071 14.701 15.455Z" fill="black"/>
</svg>
