<svg width="24" height="24" viewBox="0 0 24 24" fill="none" xmlns="http://www.w3.org/2000/svg">
<path d="M6.359 7.80803L7.953 7.32003C8.07861 7.28162 8.21055 7.26832 8.3413 7.2809C8.47205 7.29348 8.59904 7.33169 8.71502 7.39335C8.831 7.45501 8.9337 7.53891 9.01725 7.64026C9.10081 7.74161 9.16359 7.85842 9.202 7.98403C9.24041 8.10964 9.25371 8.24158 9.24112 8.37233C9.22854 8.50308 9.19033 8.63007 9.12868 8.74605C9.06702 8.86203 8.98312 8.96473 8.88177 9.04829C8.78042 9.13184 8.66361 9.19462 8.538 9.23303L4.713 10.403C4.58733 10.4415 4.45531 10.4547 4.3245 10.4421C4.1937 10.4295 4.06666 10.3912 3.95066 10.3294C3.83467 10.2676 3.73198 10.1836 3.64847 10.0822C3.56497 9.98068 3.50228 9.86375 3.464 9.73803L2.294 5.91303C2.25559 5.78742 2.24229 5.65547 2.25487 5.52473C2.26745 5.39398 2.30566 5.26699 2.36732 5.15101C2.42898 5.03503 2.51288 4.93233 2.61423 4.84877C2.71558 4.76522 2.83239 4.70244 2.958 4.66403C3.21168 4.58645 3.48578 4.61283 3.72002 4.73735C3.95425 4.86188 4.12942 5.07435 4.207 5.32803L4.647 6.76903C7.055 3.06003 11.832 1.46503 16.073 3.20303C17.3413 3.72289 18.4803 4.51437 19.4098 5.52179C20.3393 6.5292 21.0367 7.72807 21.453 9.03403C21.4957 9.15983 21.5129 9.29288 21.5035 9.4254C21.4942 9.55792 21.4586 9.68725 21.3987 9.80585C21.3389 9.92444 21.256 10.0299 21.1549 10.1161C21.0538 10.2023 20.9366 10.2675 20.8101 10.3079C20.6835 10.3483 20.5502 10.3631 20.4178 10.3514C20.2855 10.3397 20.1568 10.3017 20.0393 10.2397C19.9219 10.1777 19.8179 10.0929 19.7335 9.99032C19.6492 9.8877 19.5861 9.7693 19.548 9.64203C19.1255 8.3154 18.3365 7.13531 17.2719 6.23803C16.2073 5.34074 14.9107 4.76285 13.5317 4.57108C12.1527 4.37931 10.7475 4.58147 9.47854 5.15424C8.20954 5.72701 7.12842 6.64701 6.36 7.80803H6.359ZM18.686 16.003L16.911 16.446C16.7825 16.4813 16.6482 16.4905 16.5161 16.4731C16.3839 16.4557 16.2566 16.4121 16.1416 16.3448C16.0266 16.2775 15.9261 16.1879 15.8462 16.0812C15.7663 15.9746 15.7085 15.853 15.6763 15.7237C15.644 15.5944 15.6379 15.4599 15.6584 15.3282C15.6788 15.1966 15.7254 15.0703 15.7953 14.9568C15.8653 14.8434 15.9572 14.7451 16.0656 14.6677C16.1741 14.5902 16.297 14.5353 16.427 14.506L20.07 13.597C20.2598 13.5067 20.4733 13.4787 20.68 13.517C20.8791 13.5432 21.0658 13.6288 21.2156 13.7626C21.3654 13.8963 21.4715 14.0721 21.52 14.267L22.488 18.147C22.5453 18.4019 22.5007 18.669 22.3636 18.8914C22.2265 19.1137 22.0079 19.2736 21.7545 19.3368C21.501 19.4001 21.2329 19.3616 21.0074 19.2297C20.782 19.0978 20.6171 18.8829 20.548 18.631L20.218 17.309C19.2552 18.6946 17.9365 19.7948 16.4008 20.4939C14.8651 21.1929 13.1694 21.4648 11.4922 21.2809C9.81495 21.097 8.21837 20.4642 6.87061 19.4492C5.52285 18.4341 4.47381 17.0743 3.834 15.513L3.574 14.879C3.52423 14.7575 3.49888 14.6273 3.49941 14.496C3.49994 14.3647 3.52633 14.2347 3.57708 14.1136C3.62783 13.9925 3.70193 13.8825 3.79517 13.79C3.88842 13.6975 3.99896 13.6243 4.1205 13.5745C4.36596 13.474 4.64129 13.4751 4.88593 13.5776C5.00707 13.6284 5.11702 13.7025 5.20951 13.7957C5.30201 13.8889 5.37523 13.9995 5.425 14.121L5.685 14.754C6.19475 15.9979 7.03449 17.0789 8.11361 17.8804C9.19273 18.6819 10.4702 19.1735 11.8083 19.3022C13.1464 19.4308 14.4941 19.1916 15.7062 18.6104C16.9183 18.0291 17.9486 17.1279 18.686 16.004V16.003Z" fill="black"/>
</svg>
