<svg width="24" height="24" viewBox="0 0 24 24" fill="none" xmlns="http://www.w3.org/2000/svg">
<path d="M19.33 6.69404L19.75 5.31704C19.7884 5.19143 19.8512 5.07462 19.9347 4.97327C20.0183 4.87192 20.121 4.78802 20.237 4.72637C20.353 4.66471 20.48 4.6265 20.6107 4.61392C20.7415 4.60133 20.8734 4.61463 20.999 4.65304C21.1246 4.69145 21.2414 4.75423 21.3428 4.83779C21.4441 4.92134 21.528 5.02404 21.5897 5.14002C21.6513 5.256 21.6896 5.38299 21.7021 5.51374C21.7147 5.64449 21.7014 5.77643 21.663 5.90204L20.493 9.72704C20.4155 9.98053 20.2405 10.1929 20.0064 10.3174C19.7724 10.4419 19.4986 10.4684 19.245 10.391L15.42 9.22104C15.2918 9.18495 15.172 9.12359 15.0678 9.04058C14.9637 8.95757 14.8771 8.85458 14.8133 8.73765C14.7494 8.62073 14.7096 8.49222 14.6961 8.35969C14.6826 8.22716 14.6957 8.09326 14.7347 7.96587C14.7737 7.83849 14.8377 7.72017 14.9231 7.61787C15.0084 7.51557 15.1133 7.43136 15.2317 7.37017C15.35 7.30898 15.4794 7.27206 15.6122 7.26156C15.745 7.25106 15.8785 7.2672 16.005 7.30904L17.677 7.82004C16.9379 6.69894 15.9069 5.80072 14.6951 5.22212C13.4833 4.64353 12.1366 4.40648 10.8001 4.53652C9.46353 4.66655 8.1878 5.15873 7.11026 5.96006C6.03271 6.76138 5.1942 7.84149 4.68501 9.08404L4.42501 9.71704C4.37772 9.842 4.30587 9.95621 4.21371 10.0529C4.12155 10.1497 4.01094 10.2269 3.88842 10.2802C3.76589 10.3335 3.63394 10.3616 3.50034 10.3631C3.36675 10.3645 3.23422 10.3391 3.11059 10.2885C2.98697 10.2378 2.87474 10.1629 2.78055 10.0681C2.68636 9.97339 2.61211 9.86072 2.56218 9.7368C2.51225 9.61288 2.48767 9.48021 2.48987 9.34662C2.49207 9.21304 2.52102 9.08125 2.57501 8.95904L2.83501 8.32604C3.48124 6.74932 4.54473 5.37839 5.91128 4.36046C7.27784 3.34253 8.89586 2.71604 10.5916 2.54827C12.2873 2.3805 13.9967 2.67777 15.5363 3.40817C17.0758 4.13858 18.3873 5.27452 19.33 6.69404ZM3.80801 17.307L3.48101 18.618C3.45175 18.7481 3.3968 18.8709 3.31938 18.9794C3.24196 19.0879 3.14365 19.1798 3.0302 19.2497C2.91676 19.3197 2.79048 19.3662 2.65879 19.3867C2.52709 19.4071 2.39264 19.401 2.26334 19.3688C2.13403 19.3365 2.01248 19.2787 1.90582 19.1988C1.79916 19.1189 1.70955 19.0185 1.64225 18.9035C1.57496 18.7884 1.53134 18.6611 1.51395 18.529C1.49656 18.3968 1.50576 18.2626 1.54101 18.134L2.50801 14.254C2.54063 14.1219 2.59987 13.9979 2.68211 13.8895C2.76434 13.781 2.86784 13.6906 2.98626 13.6235C3.10468 13.5565 3.23554 13.5143 3.37082 13.4996C3.5061 13.4849 3.64295 13.498 3.77301 13.538L7.60101 14.492C7.8584 14.5562 8.07975 14.72 8.21637 14.9474C8.35299 15.1748 8.39369 15.4471 8.32951 15.7045C8.26532 15.9619 8.10152 16.1833 7.87413 16.3199C7.64675 16.4565 7.3744 16.4972 7.11701 16.433L5.33101 15.988C6.09452 17.1569 7.17376 18.0853 8.44355 18.6657C9.71333 19.246 11.1216 19.4545 12.5051 19.2669C13.8885 19.0793 15.1905 18.5033 16.2599 17.6058C17.3293 16.7083 18.1223 15.526 18.547 14.196C18.6276 13.9433 18.8054 13.7329 19.0411 13.6112C19.1578 13.5509 19.2853 13.5143 19.4162 13.5032C19.5471 13.4922 19.6789 13.5071 19.804 13.547C19.9292 13.587 20.0452 13.6511 20.1456 13.7359C20.2459 13.8207 20.3286 13.9244 20.3888 14.0411C20.4491 14.1579 20.4858 14.2853 20.4968 14.4162C20.5078 14.5471 20.4929 14.6789 20.453 14.804C20.0367 16.11 19.3393 17.3089 18.4098 18.3163C17.4803 19.3237 16.3413 20.1152 15.073 20.635C13.0968 21.4446 10.9036 21.5561 8.85556 20.951C6.80748 20.346 5.02697 19.0606 3.80801 17.307Z" fill="black"/>
</svg>
