<svg width="24" height="24" viewBox="0 0 24 24" fill="none" xmlns="http://www.w3.org/2000/svg">
<path d="M13.774 18L14.95 19.176C15.1322 19.3646 15.233 19.6172 15.2307 19.8794C15.2284 20.1416 15.1232 20.3924 14.9378 20.5778C14.7524 20.7632 14.5016 20.8684 14.2394 20.8707C13.9772 20.8729 13.7246 20.7721 13.536 20.59L10.707 17.762C10.5195 17.5745 10.4142 17.3201 10.4142 17.055C10.4142 16.7898 10.5195 16.5355 10.707 16.348L13.536 13.519C13.7236 13.3315 13.9781 13.2262 14.2434 13.2263C14.5086 13.2264 14.763 13.3318 14.9505 13.5195C15.138 13.7071 15.2433 13.9616 15.2432 14.2268C15.2431 14.4921 15.1376 14.7465 14.95 14.934L13.883 16H16C17.0609 16 18.0783 15.5786 18.8284 14.8284C19.5786 14.0783 20 13.0608 20 12C20 10.9391 19.5786 9.9217 18.8284 9.17155C18.0783 8.42141 17.0609 7.99998 16 7.99998C15.7348 7.99998 15.4804 7.89462 15.2929 7.70709C15.1054 7.51955 15 7.2652 15 6.99998C15 6.73476 15.1054 6.48041 15.2929 6.29287C15.4804 6.10534 15.7348 5.99998 16 5.99998C17.5913 5.99998 19.1174 6.63212 20.2426 7.75734C21.3679 8.88256 22 10.4087 22 12C22 13.5913 21.3679 15.1174 20.2426 16.2426C19.1174 17.3678 17.5913 18 16 18H13.774ZM10.273 5.99998L9.176 4.90398C9.08309 4.81107 9.00939 4.70077 8.95911 4.57938C8.90882 4.45798 8.88294 4.32787 8.88294 4.19648C8.88294 3.93111 8.98836 3.67662 9.176 3.48898C9.36364 3.30134 9.61814 3.19592 9.8835 3.19592C10.1489 3.19592 10.4034 3.30134 10.591 3.48898L13.419 6.31798C13.6065 6.50551 13.7118 6.75981 13.7118 7.02498C13.7118 7.29014 13.6065 7.54445 13.419 7.73198L10.591 10.56C10.4035 10.7476 10.1491 10.8531 9.88385 10.8532C9.61858 10.8533 9.36414 10.748 9.1765 10.5605C8.98886 10.373 8.88339 10.1186 8.8833 9.85333C8.8832 9.58806 8.98849 9.33362 9.176 9.14598L10.323 7.99998H8C6.93913 7.99998 5.92172 8.42141 5.17157 9.17155C4.42143 9.9217 4 10.9391 4 12C4 13.0608 4.42143 14.0783 5.17157 14.8284C5.92172 15.5786 6.93913 16 8 16C8.26522 16 8.51957 16.1053 8.70711 16.2929C8.89464 16.4804 9 16.7348 9 17C9 17.2652 8.89464 17.5195 8.70711 17.7071C8.51957 17.8946 8.26522 18 8 18C6.4087 18 4.88258 17.3678 3.75736 16.2426C2.63214 15.1174 2 13.5913 2 12C2 10.4087 2.63214 8.88256 3.75736 7.75734C4.88258 6.63212 6.4087 5.99998 8 5.99998H10.273Z" fill="black"/>
</svg>
