<svg width="24" height="24" viewBox="0 0 24 24" fill="none" xmlns="http://www.w3.org/2000/svg">
<path d="M9.71 18.567C9.50861 18.8408 9.28663 19.0989 9.046 19.339C7.874 20.51 6.106 20.864 3.743 20.399C3.278 18.036 3.632 16.268 4.803 15.096C5.05 14.849 5.309 14.628 5.575 14.433C4.75489 14.0324 3.87848 13.7593 2.976 13.623C3.26672 12.7112 3.77224 11.8826 4.45 11.207C5.46824 10.1857 6.82143 9.56699 8.26 9.465C8.86386 8.42054 9.60365 7.46083 10.46 6.611C13.78 3.291 18.053 2.183 20.006 4.136C21.959 6.089 20.851 10.363 17.531 13.682C16.6812 14.5383 15.7215 15.2781 14.677 15.882C14.575 17.3206 13.9563 18.6738 12.935 19.692C12.2597 20.3702 11.431 20.8758 10.519 21.166C10.3827 20.2635 10.1096 19.3871 9.709 18.567H9.71ZM15.762 8.38C15.9496 8.56764 16.2041 8.67305 16.4695 8.67305C16.7349 8.67305 16.9894 8.56764 17.177 8.38C17.3646 8.19236 17.4701 7.93786 17.4701 7.6725C17.4701 7.40713 17.3646 7.15264 17.177 6.965C16.9894 6.77736 16.7349 6.67194 16.4695 6.67194C16.2041 6.67194 15.9496 6.77736 15.762 6.965C15.5744 7.15264 15.4689 7.40713 15.4689 7.6725C15.4689 7.93786 15.5744 8.19236 15.762 8.38ZM7.984 16.158C7.875 16.048 7.698 15.881 7.454 15.655C7.022 15.805 6.51 16.229 6.04 16.688C5.669 17.051 5.543 17.661 5.54 18.608C6.486 18.604 7.16 18.388 7.454 18.102C7.925 17.643 8.344 17.185 8.494 16.752C8.382 16.558 8.148 16.322 7.984 16.158Z" fill="black"/>
</svg>
