<svg width="24" height="24" viewBox="0 0 24 24" fill="none" xmlns="http://www.w3.org/2000/svg">
<path d="M14.228 15.2279L9.985 10.9849L4.328 16.6419L6.45 18.7629C7.01259 19.3254 7.77551 19.6413 8.571 19.6413C9.3665 19.6413 10.1294 19.3254 10.692 18.7629L14.228 15.2279ZM12.784 19.4999H15.5C15.7652 19.4999 16.0196 19.6053 16.2071 19.7928C16.3946 19.9804 16.5 20.2347 16.5 20.4999C16.5 20.7652 16.3946 21.0195 16.2071 21.2071C16.0196 21.3946 15.7652 21.4999 15.5 21.4999H4.5C4.24647 21.4997 4.00249 21.4032 3.81741 21.2299C3.63234 21.0567 3.51998 20.8196 3.50309 20.5666C3.48619 20.3136 3.56601 20.0637 3.72639 19.8673C3.88678 19.671 4.11575 19.5429 4.367 19.5089L2.914 18.0559C2.53906 17.6809 2.32843 17.1723 2.32843 16.6419C2.32843 16.1116 2.53906 15.603 2.914 15.2279L14.228 3.91394C14.6031 3.539 15.1117 3.32837 15.642 3.32837C16.1723 3.32837 16.6809 3.539 17.056 3.91394L21.3 8.15694C21.6749 8.532 21.8856 9.04061 21.8856 9.57094C21.8856 10.1013 21.6749 10.6099 21.3 10.9849L12.784 19.4999Z" fill="black"/>
</svg>
