<svg width="24" height="24" viewBox="0 0 24 24" fill="none" xmlns="http://www.w3.org/2000/svg">
<path d="M17 21.0649V14.0649C17 13.7997 16.8946 13.5454 16.7071 13.3578C16.5196 13.1703 16.2652 13.0649 16 13.0649H8C7.73478 13.0649 7.48043 13.1703 7.29289 13.3578C7.10536 13.5454 7 13.7997 7 14.0649V21.0649H5C4.46957 21.0649 3.96086 20.8542 3.58579 20.4792C3.21071 20.1041 3 19.5954 3 19.0649V5.06494C3 4.53451 3.21071 4.0258 3.58579 3.65073C3.96086 3.27566 4.46957 3.06494 5 3.06494H16.22C16.7174 3.06499 17.1969 3.25039 17.565 3.58494L20.345 6.11194C20.5513 6.29938 20.7161 6.52786 20.8289 6.78273C20.9417 7.0376 21 7.31323 21 7.59194V19.0649C21 19.5954 20.7893 20.1041 20.4142 20.4792C20.0391 20.8542 19.5304 21.0649 19 21.0649H17ZM16 6.06494C15.7348 6.06494 15.4804 6.1703 15.2929 6.35783C15.1054 6.54537 15 6.79972 15 7.06494V10.0649C15 10.3302 15.1054 10.5845 15.2929 10.772C15.4804 10.9596 15.7348 11.0649 16 11.0649C16.2652 11.0649 16.5196 10.9596 16.7071 10.772C16.8946 10.5845 17 10.3302 17 10.0649V7.06494C17 6.79972 16.8946 6.54537 16.7071 6.35783C16.5196 6.1703 16.2652 6.06494 16 6.06494ZM8 6.06494C7.73478 6.06494 7.48043 6.1703 7.29289 6.35783C7.10536 6.54537 7 6.79972 7 7.06494V10.0649C7 10.3302 7.10536 10.5845 7.29289 10.772C7.48043 10.9596 7.73478 11.0649 8 11.0649H13C13.2652 11.0649 13.5196 10.9596 13.7071 10.772C13.8946 10.5845 14 10.3302 14 10.0649V7.06494C14 6.79972 13.8946 6.54537 13.7071 6.35783C13.5196 6.1703 13.2652 6.06494 13 6.06494H8ZM9 15.0649H15V19.0649H9V15.0649ZM9 10.0649V7.06494H12V10.0649H9Z" fill="black"/>
</svg>
