<svg width="24" height="24" viewBox="0 0 24 24" fill="none" xmlns="http://www.w3.org/2000/svg">
<path d="M11.607 13.0539L9.86299 15.1299C10.378 15.8508 10.6387 16.7225 10.6039 17.6078C10.5691 18.4931 10.241 19.3417 9.67099 20.02C8.98834 20.8314 8.01166 21.339 6.95524 21.4312C5.89882 21.5235 4.84895 21.1929 4.03599 20.5119C3.63365 20.1751 3.30169 19.7622 3.05911 19.2968C2.81653 18.8315 2.6681 18.3229 2.62231 17.8002C2.57652 17.2774 2.63427 16.7508 2.79225 16.2504C2.95023 15.75 3.20535 15.2856 3.54299 14.8839C4.11361 14.2054 4.89328 13.7353 5.75977 13.5474C6.62626 13.3596 7.53059 13.4646 8.33099 13.8459L10.301 11.4999L4.91299 5.08695C4.8286 4.98653 4.76483 4.87045 4.72533 4.74536C4.68583 4.62028 4.67138 4.48863 4.68281 4.35795C4.69423 4.22727 4.73131 4.10013 4.79191 3.98379C4.85251 3.86745 4.93545 3.76421 5.03599 3.67995C5.13658 3.5955 5.25282 3.53169 5.37807 3.49216C5.50332 3.45264 5.63513 3.43817 5.76597 3.44959C5.89681 3.46102 6.02412 3.4981 6.14063 3.55873C6.25714 3.61936 6.36056 3.70235 6.44499 3.80295L11.607 9.94695L16.768 3.80295C16.8524 3.7022 16.9559 3.61909 17.0725 3.55837C17.1891 3.49765 17.3165 3.46052 17.4475 3.4491C17.5785 3.43767 17.7104 3.45218 17.8357 3.49179C17.9611 3.53141 18.0774 3.59534 18.178 3.67995C18.2785 3.76421 18.3615 3.86745 18.4221 3.98379C18.4827 4.10013 18.5198 4.22727 18.5312 4.35795C18.5426 4.48863 18.5282 4.62028 18.4887 4.74536C18.4492 4.87045 18.3854 4.98653 18.301 5.08695L12.912 11.4999L14.882 13.8449C15.6824 13.4636 16.5867 13.3586 17.4532 13.5464C18.3197 13.7343 19.0994 14.2044 19.67 14.8829C20.0076 15.2846 20.2628 15.749 20.4207 16.2494C20.5787 16.7498 20.6365 17.2764 20.5907 17.7992C20.5449 18.3219 20.3965 18.8305 20.1539 19.2958C19.9113 19.7612 19.5793 20.1741 19.177 20.511C18.364 21.1919 17.3142 21.5225 16.2578 21.4302C15.2013 21.338 14.2246 20.8304 13.542 20.0189C12.972 19.3407 12.6438 18.4921 12.6091 17.6068C12.5743 16.7215 12.835 15.8498 13.35 15.1289L11.607 13.0539ZM5.32199 18.981C5.73051 19.2968 6.24535 19.4424 6.75878 19.3873C7.27221 19.3322 7.74443 19.0806 8.0766 18.6853C8.40878 18.2899 8.57517 17.7814 8.54094 17.2662C8.50672 16.7509 8.27454 16.2689 7.89299 15.9209C7.48649 15.5803 6.96144 15.4149 6.43311 15.4611C5.90478 15.5072 5.41633 15.7611 5.07499 16.1669C4.36499 17.0119 4.47499 18.272 5.32199 18.981ZM17.892 18.981C18.0931 18.8124 18.259 18.6059 18.3802 18.3733C18.5014 18.1406 18.5755 17.8863 18.5984 17.6249C18.6212 17.3636 18.5923 17.1003 18.5133 16.8501C18.4343 16.5999 18.3068 16.3678 18.138 16.1669C17.7967 15.7614 17.3084 15.5077 16.7804 15.4616C16.2523 15.4154 15.7274 15.5807 15.321 15.9209C15.1198 16.0894 14.9539 16.2958 14.8326 16.5285C14.7113 16.7611 14.637 17.0154 14.6141 17.2767C14.5912 17.5381 14.62 17.8014 14.6989 18.0516C14.7778 18.3018 14.9053 18.534 15.074 18.735C15.784 19.58 17.046 19.69 17.892 18.981Z" fill="black"/>
</svg>
