<svg width="24" height="24" viewBox="0 0 24 24" fill="none" xmlns="http://www.w3.org/2000/svg">
<path d="M5 3.06494H19C19.7956 3.06494 20.5587 3.38101 21.1213 3.94362C21.6839 4.50623 22 5.26929 22 6.06494V15.0649C22 15.8606 21.6839 16.6237 21.1213 17.1863C20.5587 17.7489 19.7956 18.0649 19 18.0649H5C4.20435 18.0649 3.44129 17.7489 2.87868 17.1863C2.31607 16.6237 2 15.8606 2 15.0649V6.06494C2 5.26929 2.31607 4.50623 2.87868 3.94362C3.44129 3.38101 4.20435 3.06494 5 3.06494ZM9 19.0649H15C15.2652 19.0649 15.5196 19.1703 15.7071 19.3578C15.8946 19.5454 16 19.7997 16 20.0649C16 20.3302 15.8946 20.5845 15.7071 20.772C15.5196 20.9596 15.2652 21.0649 15 21.0649H9C8.73478 21.0649 8.48043 20.9596 8.29289 20.772C8.10536 20.5845 8 20.3302 8 20.0649C8 19.7997 8.10536 19.5454 8.29289 19.3578C8.48043 19.1703 8.73478 19.0649 9 19.0649Z" fill="black"/>
</svg>
