<svg width="24" height="24" viewBox="0 0 24 24" fill="none" xmlns="http://www.w3.org/2000/svg">
<path d="M6.343 19.071C6.53047 19.2585 6.63579 19.5128 6.63579 19.778C6.63579 20.0431 6.53047 20.2974 6.343 20.485L4.93 21.9C4.74247 22.0874 4.48816 22.1928 4.223 22.1928C3.95784 22.1928 3.70353 22.0874 3.516 21.9L2.1 20.485C1.91253 20.2974 1.80721 20.0431 1.80721 19.778C1.80721 19.5128 1.91253 19.2585 2.1 19.071L3.514 17.657C3.70153 17.4695 3.95584 17.3642 4.221 17.3642C4.48616 17.3642 4.74047 17.4695 4.928 17.657L10.586 12C10.2111 11.6249 10.0004 11.1163 10.0004 10.586C10.0004 10.0556 10.2111 9.54703 10.586 9.17198L17.656 2.10098C17.8417 1.91502 18.0623 1.76751 18.3051 1.66686C18.5479 1.56621 18.8082 1.5144 19.071 1.5144C19.3338 1.5144 19.5941 1.56621 19.8369 1.66686C20.0797 1.76751 20.3003 1.91502 20.486 2.10098L21.899 3.51498C22.2739 3.89003 22.4846 4.39865 22.4846 4.92898C22.4846 5.45931 22.2739 5.96792 21.899 6.34298L14.829 13.414C14.6433 13.5998 14.4228 13.7472 14.1801 13.8477C13.9373 13.9483 13.6772 14 13.4145 14C13.1518 14 12.8916 13.9483 12.6489 13.8477C12.4062 13.7472 12.1857 13.5998 12 13.414L6.343 19.071ZM13.414 12L20.485 4.92898L19.071 3.51498L12 10.585L13.414 12Z" fill="black"/>
</svg>
