<svg width="24" height="24" viewBox="0 0 24 24" fill="none" xmlns="http://www.w3.org/2000/svg">
<path d="M6 2H18C19.0609 2 20.0783 2.42143 20.8284 3.17157C21.5786 3.92172 22 4.93913 22 6V18C22 19.0609 21.5786 20.0783 20.8284 20.8284C20.0783 21.5786 19.0609 22 18 22H6C4.93913 22 3.92172 21.5786 3.17157 20.8284C2.42143 20.0783 2 19.0609 2 18V6C2 4.93913 2.42143 3.92172 3.17157 3.17157C3.92172 2.42143 4.93913 2 6 2V2ZM6 4C5.46957 4 4.96086 4.21071 4.58579 4.58579C4.21071 4.96086 4 5.46957 4 6V18C4 18.5304 4.21071 19.0391 4.58579 19.4142C4.96086 19.7893 5.46957 20 6 20H18C18.5304 20 19.0391 19.7893 19.4142 19.4142C19.7893 19.0391 20 18.5304 20 18V6C20 5.46957 19.7893 4.96086 19.4142 4.58579C19.0391 4.21071 18.5304 4 18 4H6ZM14.514 13.836L10.585 16.644C9.68 17.29 8.455 17.033 7.849 16.068C7.62959 15.7172 7.51348 15.3117 7.514 14.898V9.102C7.514 7.942 8.397 7 9.487 7C9.877 7 10.26 7.124 10.585 7.356L14.515 10.164V8C14.515 7.73478 14.6204 7.48043 14.8079 7.29289C14.9954 7.10536 15.2498 7 15.515 7C15.7802 7 16.0346 7.10536 16.2221 7.29289C16.4096 7.48043 16.515 7.73478 16.515 8V16C16.515 16.2652 16.4096 16.5196 16.2221 16.7071C16.0346 16.8946 15.7802 17 15.515 17C15.2498 17 14.9954 16.8946 14.8079 16.7071C14.6204 16.5196 14.515 16.2652 14.515 16V13.836H14.514ZM9.487 9.102V14.898L13.542 12L9.487 9.102Z" fill="black"/>
</svg>
