<svg width="24" height="24" viewBox="0 0 24 24" fill="none" xmlns="http://www.w3.org/2000/svg">
<path d="M14.514 13.836V16C14.514 16.2652 14.6194 16.5196 14.8069 16.7071C14.9944 16.8946 15.2488 17 15.514 17C15.7792 17 16.0336 16.8946 16.2211 16.7071C16.4086 16.5196 16.514 16.2652 16.514 16V8C16.514 7.73478 16.4086 7.48043 16.2211 7.29289C16.0336 7.10536 15.7792 7 15.514 7C15.2488 7 14.9944 7.10536 14.8069 7.29289C14.6194 7.48043 14.514 7.73478 14.514 8V10.164L10.585 7.356C10.2652 7.12556 9.8812 7.00107 9.487 7C8.397 7 7.514 7.941 7.514 9.102V14.898C7.514 15.315 7.631 15.722 7.849 16.068C8.455 17.033 9.68 17.29 10.585 16.644L14.515 13.836H14.514ZM6 2H18C19.0609 2 20.0783 2.42143 20.8284 3.17157C21.5786 3.92172 22 4.93913 22 6V18C22 19.0609 21.5786 20.0783 20.8284 20.8284C20.0783 21.5786 19.0609 22 18 22H6C4.93913 22 3.92172 21.5786 3.17157 20.8284C2.42143 20.0783 2 19.0609 2 18V6C2 4.93913 2.42143 3.92172 3.17157 3.17157C3.92172 2.42143 4.93913 2 6 2V2ZM9.496 9.136L13.552 12.034L9.496 14.932V9.136Z" fill="black"/>
</svg>
