<svg width="24" height="24" viewBox="0 0 24 24" fill="none" xmlns="http://www.w3.org/2000/svg">
<path d="M9.514 10.164V8C9.514 7.73478 9.40864 7.48043 9.22111 7.29289C9.03357 7.10536 8.77922 7 8.514 7C8.24878 7 7.99443 7.10536 7.80689 7.29289C7.61936 7.48043 7.514 7.73478 7.514 8V16C7.514 16.2652 7.61936 16.5196 7.80689 16.7071C7.99443 16.8946 8.24878 17 8.514 17C8.77922 17 9.03357 16.8946 9.22111 16.7071C9.40864 16.5196 9.514 16.2652 9.514 16V13.836L13.444 16.644C14.348 17.29 15.574 17.033 16.18 16.068C16.398 15.722 16.514 15.315 16.514 14.898V9.102C16.514 7.942 15.631 7 14.542 7C14.151 7 13.769 7.124 13.444 7.356L9.514 10.164ZM6 2H18C19.0609 2 20.0783 2.42143 20.8284 3.17157C21.5786 3.92172 22 4.93913 22 6V18C22 19.0609 21.5786 20.0783 20.8284 20.8284C20.0783 21.5786 19.0609 22 18 22H6C4.93913 22 3.92172 21.5786 3.17157 20.8284C2.42143 20.0783 2 19.0609 2 18V6C2 4.93913 2.42143 3.92172 3.17157 3.17157C3.92172 2.42143 4.93913 2 6 2V2ZM14.548 9.12V14.916L10.493 12.018L14.548 9.12Z" fill="black"/>
</svg>
