<svg width="24" height="24" viewBox="0 0 24 24" fill="none" xmlns="http://www.w3.org/2000/svg">
<path d="M15.82 12.523C15.8902 12.4128 15.9375 12.2896 15.9592 12.1608C15.9809 12.032 15.9766 11.9001 15.9463 11.773C15.9161 11.6458 15.8607 11.5261 15.7833 11.4208C15.706 11.3155 15.6083 11.2268 15.496 11.16L5.574 5.128C5.41265 5.03033 5.22761 4.9788 5.039 4.979C4.479 4.979 4.026 5.422 4.026 5.969V18.03C4.026 18.215 4.079 18.396 4.179 18.553C4.475 19.017 5.099 19.159 5.574 18.87L15.496 12.839C15.627 12.759 15.739 12.65 15.821 12.522L15.82 12.523ZM16 14.864L6.645 20.551C5.22 21.418 3.345 20.991 2.459 19.6C2.15945 19.1311 2.00019 18.5864 2 18.03V5.97C2 4.329 3.36 3 5.04 3C5.607 3 6.163 3.155 6.645 3.448L16 9.135V5C16 4.46957 16.2107 3.96086 16.5858 3.58579C16.9609 3.21071 17.4696 3 18 3H20C20.5304 3 21.0391 3.21071 21.4142 3.58579C21.7893 3.96086 22 4.46957 22 5V19C22 19.5304 21.7893 20.0391 21.4142 20.4142C21.0391 20.7893 20.5304 21 20 21H18C17.4696 21 16.9609 20.7893 16.5858 20.4142C16.2107 20.0391 16 19.5304 16 19V14.864ZM18 5V19H20V5H18Z" fill="black"/>
</svg>
