<svg width="24" height="24" viewBox="0 0 24 24" fill="none" xmlns="http://www.w3.org/2000/svg">
<path d="M12 22C6.477 22 2 17.523 2 12C2 6.477 6.477 2 12 2C17.523 2 22 6.477 22 12C22 17.523 17.523 22 12 22ZM12 20C14.1217 20 16.1566 19.1571 17.6569 17.6569C19.1571 16.1566 20 14.1217 20 12C20 9.87827 19.1571 7.84344 17.6569 6.34315C16.1566 4.84285 14.1217 4 12 4C9.87827 4 7.84344 4.84285 6.34315 6.34315C4.84285 7.84344 4 9.87827 4 12C4 14.1217 4.84285 16.1566 6.34315 17.6569C7.84344 19.1571 9.87827 20 12 20ZM14.514 13.836L10.585 16.644C9.68 17.29 8.455 17.033 7.849 16.068C7.62959 15.7172 7.51348 15.3117 7.514 14.898V9.102C7.514 7.942 8.397 7 9.487 7C9.877 7 10.26 7.124 10.585 7.356L14.515 10.164V8C14.515 7.73478 14.6204 7.48043 14.8079 7.29289C14.9954 7.10536 15.2498 7 15.515 7C15.7802 7 16.0346 7.10536 16.2221 7.29289C16.4096 7.48043 16.515 7.73478 16.515 8V16C16.515 16.2652 16.4096 16.5196 16.2221 16.7071C16.0346 16.8946 15.7802 17 15.515 17C15.2498 17 14.9954 16.8946 14.8079 16.7071C14.6204 16.5196 14.515 16.2652 14.515 16V13.836H14.514ZM9.487 9.102V14.898L13.542 12L9.487 9.102Z" fill="black"/>
</svg>
