<svg width="24" height="24" viewBox="0 0 24 24" fill="none" xmlns="http://www.w3.org/2000/svg">
<path d="M6 2H18C19.0609 2 20.0783 2.42143 20.8284 3.17157C21.5786 3.92172 22 4.93913 22 6V18C22 19.0609 21.5786 20.0783 20.8284 20.8284C20.0783 21.5786 19.0609 22 18 22H6C4.93913 22 3.92172 21.5786 3.17157 20.8284C2.42143 20.0783 2 19.0609 2 18V6C2 4.93913 2.42143 3.92172 3.17157 3.17157C3.92172 2.42143 4.93913 2 6 2V2ZM6 4C5.46957 4 4.96086 4.21071 4.58579 4.58579C4.21071 4.96086 4 5.46957 4 6V18C4 18.5304 4.21071 19.0391 4.58579 19.4142C4.96086 19.7893 5.46957 20 6 20H18C18.5304 20 19.0391 19.7893 19.4142 19.4142C19.7893 19.0391 20 18.5304 20 18V6C20 5.46957 19.7893 4.96086 19.4142 4.58579C19.0391 4.21071 18.5304 4 18 4H6ZM9.514 13.836V16C9.514 16.2652 9.40864 16.5196 9.22111 16.7071C9.03357 16.8946 8.77922 17 8.514 17C8.24878 17 7.99443 16.8946 7.80689 16.7071C7.61936 16.5196 7.514 16.2652 7.514 16V8C7.514 7.73478 7.61936 7.48043 7.80689 7.29289C7.99443 7.10536 8.24878 7 8.514 7C8.77922 7 9.03357 7.10536 9.22111 7.29289C9.40864 7.48043 9.514 7.73478 9.514 8V10.164L13.444 7.356C13.7638 7.12556 14.1478 7.00107 14.542 7C15.632 7 16.514 7.941 16.514 9.102V14.898C16.514 15.315 16.398 15.722 16.18 16.068C15.574 17.033 14.348 17.29 13.444 16.644L9.514 13.836ZM14.542 9.102L10.487 12L14.542 14.898V9.102Z" fill="black"/>
</svg>
