<svg width="24" height="24" viewBox="0 0 24 24" fill="none" xmlns="http://www.w3.org/2000/svg">
<path d="M12 22C6.477 22 2 17.523 2 12C2 6.477 6.477 2 12 2C17.523 2 22 6.477 22 12C22 17.523 17.523 22 12 22ZM12 20C14.1217 20 16.1566 19.1571 17.6569 17.6569C19.1571 16.1566 20 14.1217 20 12C20 9.87827 19.1571 7.84344 17.6569 6.34315C16.1566 4.84285 14.1217 4 12 4C9.87827 4 7.84344 4.84285 6.34315 6.34315C4.84285 7.84344 4 9.87827 4 12C4 14.1217 4.84285 16.1566 6.34315 17.6569C7.84344 19.1571 9.87827 20 12 20ZM9.514 13.836V16C9.514 16.2652 9.40864 16.5196 9.22111 16.7071C9.03357 16.8946 8.77922 17 8.514 17C8.24878 17 7.99443 16.8946 7.80689 16.7071C7.61936 16.5196 7.514 16.2652 7.514 16V8C7.514 7.73478 7.61936 7.48043 7.80689 7.29289C7.99443 7.10536 8.24878 7 8.514 7C8.77922 7 9.03357 7.10536 9.22111 7.29289C9.40864 7.48043 9.514 7.73478 9.514 8V10.164L13.444 7.356C13.7638 7.12556 14.1478 7.00107 14.542 7C15.632 7 16.514 7.941 16.514 9.102V14.898C16.514 15.315 16.398 15.722 16.18 16.068C15.574 17.033 14.348 17.29 13.444 16.644L9.514 13.836ZM14.542 9.102L10.487 12L14.542 14.898V9.102Z" fill="black"/>
</svg>
