<svg width="24" height="24" viewBox="0 0 24 24" fill="none" xmlns="http://www.w3.org/2000/svg">
<path d="M9.92799 11.24C10.0327 11.784 10.0238 12.3437 9.90199 12.884L14.942 15.421C15.5699 14.677 16.4476 14.1876 17.4105 14.0444C18.3735 13.9012 19.3556 14.1142 20.1728 14.6433C20.99 15.1724 21.5862 15.9814 21.8496 16.9186C22.113 17.8559 22.0256 18.857 21.6037 19.7344C21.1818 20.6117 20.4544 21.3051 19.5578 21.6846C18.6613 22.064 17.6571 22.1035 16.7336 21.7955C15.81 21.4876 15.0305 20.8534 14.541 20.0118C14.0516 19.1702 13.8859 18.179 14.075 17.224L8.98499 14.662C8.4419 15.2711 7.72552 15.6995 6.93196 15.8898C6.1384 16.08 5.30564 16.023 4.54543 15.7263C3.78521 15.4297 3.1339 14.9076 2.67891 14.2302C2.22392 13.5528 1.987 12.7524 1.99995 11.9365C2.01291 11.1205 2.27511 10.3281 2.75138 9.66544C3.22765 9.0028 3.8952 8.50168 4.66445 8.22933C5.4337 7.95697 6.26785 7.92641 7.05497 8.14175C7.84209 8.35709 8.54451 8.80802 9.06799 9.43403L14.104 6.91203C13.882 5.96415 14.0132 4.96783 14.4732 4.10981C14.9332 3.25179 15.6903 2.59098 16.6027 2.25124C17.515 1.91149 18.5199 1.91613 19.4291 2.26429C20.3382 2.61245 21.0892 3.28023 21.5412 4.14246C21.9933 5.00469 22.1153 6.00218 21.8846 6.94797C21.6538 7.89376 21.086 8.72292 20.2876 9.28004C19.4892 9.83716 18.5151 10.084 17.5478 9.97427C16.5804 9.86455 15.6863 9.40581 15.033 8.68403L9.92799 11.24Z" fill="black"/>
</svg>
