<svg width="24" height="24" viewBox="0 0 24 24" fill="none" xmlns="http://www.w3.org/2000/svg">
<path d="M18 8.00003C18.5304 8.00003 19.0391 7.78932 19.4142 7.41425C19.7893 7.03917 20 6.53046 20 6.00003C20 5.4696 19.7893 4.96089 19.4142 4.58582C19.0391 4.21075 18.5304 4.00003 18 4.00003C17.4696 4.00003 16.9609 4.21075 16.5858 4.58582C16.2107 4.96089 16 5.4696 16 6.00003C16 6.53046 16.2107 7.03917 16.5858 7.41425C16.9609 7.78932 17.4696 8.00003 18 8.00003ZM9.92799 11.24C10.0327 11.784 10.0238 12.3437 9.90199 12.884L14.942 15.421C15.5699 14.677 16.4476 14.1876 17.4105 14.0444C18.3735 13.9012 19.3556 14.1142 20.1728 14.6433C20.99 15.1724 21.5862 15.9814 21.8496 16.9186C22.113 17.8559 22.0256 18.857 21.6037 19.7344C21.1818 20.6117 20.4544 21.3051 19.5578 21.6846C18.6613 22.064 17.6571 22.1035 16.7336 21.7955C15.81 21.4876 15.0305 20.8534 14.541 20.0118C14.0516 19.1702 13.8859 18.179 14.075 17.224L8.98499 14.662C8.4419 15.2711 7.72552 15.6995 6.93196 15.8898C6.1384 16.08 5.30564 16.023 4.54543 15.7263C3.78521 15.4297 3.1339 14.9076 2.67891 14.2302C2.22392 13.5528 1.987 12.7524 1.99995 11.9365C2.01291 11.1205 2.27511 10.3281 2.75138 9.66544C3.22765 9.0028 3.8952 8.50168 4.66445 8.22933C5.4337 7.95697 6.26785 7.92641 7.05497 8.14175C7.84209 8.35709 8.54451 8.80802 9.06799 9.43403L14.104 6.91203C13.882 5.96415 14.0132 4.96783 14.4732 4.10981C14.9332 3.25179 15.6903 2.59098 16.6027 2.25124C17.515 1.91149 18.5199 1.91613 19.4291 2.26429C20.3382 2.61245 21.0892 3.28023 21.5412 4.14246C21.9933 5.00469 22.1153 6.00218 21.8846 6.94797C21.6538 7.89376 21.086 8.72292 20.2876 9.28004C19.4892 9.83716 18.5151 10.084 17.5478 9.97427C16.5804 9.86455 15.6863 9.40581 15.033 8.68403L9.92799 11.24ZM5.99999 14C6.53042 14 7.03913 13.7893 7.4142 13.4142C7.78928 13.0392 7.99999 12.5305 7.99999 12C7.99999 11.4696 7.78928 10.9609 7.4142 10.5858C7.03913 10.2107 6.53042 10 5.99999 10C5.46956 10 4.96085 10.2107 4.58578 10.5858C4.2107 10.9609 3.99999 11.4696 3.99999 12C3.99999 12.5305 4.2107 13.0392 4.58578 13.4142C4.96085 13.7893 5.46956 14 5.99999 14ZM18 20C18.5304 20 19.0391 19.7893 19.4142 19.4142C19.7893 19.0392 20 18.5305 20 18C20 17.4696 19.7893 16.9609 19.4142 16.5858C19.0391 16.2107 18.5304 16 18 16C17.4696 16 16.9609 16.2107 16.5858 16.5858C16.2107 16.9609 16 17.4696 16 18C16 18.5305 16.2107 19.0392 16.5858 19.4142C16.9609 19.7893 17.4696 20 18 20Z" fill="black"/>
</svg>
