<svg width="24" height="24" viewBox="0 0 24 24" fill="none" xmlns="http://www.w3.org/2000/svg">
<path d="M6 6.386V10C6.00014 11.2854 6.27502 12.556 6.80622 13.7265C7.33741 14.897 8.11266 15.9405 9.08 16.787L12 19.342L14.92 16.787C15.8874 15.9405 16.6627 14.8971 17.1939 13.7265C17.7251 12.556 17.9999 11.2854 18 10V6.386L12 4.136L6 6.386ZM4.649 4.756L12 2L19.351 4.757C19.5416 4.82844 19.7058 4.95632 19.8218 5.12357C19.9377 5.29082 19.9999 5.48948 20 5.693V10C20 13.177 18.628 16.2 16.237 18.293L12 22L7.763 18.293C6.58096 17.2587 5.63369 15.9837 4.98469 14.5534C4.33569 13.1231 3.99996 11.5706 4 10V5.693C4.00008 5.48948 4.06225 5.29082 4.17822 5.12357C4.29419 4.95632 4.45843 4.82844 4.649 4.757V4.756ZM9 10H15C15.2652 10 15.5196 10.1054 15.7071 10.2929C15.8946 10.4804 16 10.7348 16 11C16 11.2652 15.8946 11.5196 15.7071 11.7071C15.5196 11.8946 15.2652 12 15 12H9C8.73478 12 8.48043 11.8946 8.29289 11.7071C8.10536 11.5196 8 11.2652 8 11C8 10.7348 8.10536 10.4804 8.29289 10.2929C8.48043 10.1054 8.73478 10 9 10Z" fill="black"/>
</svg>
