<svg width="24" height="24" viewBox="0 0 24 24" fill="none" xmlns="http://www.w3.org/2000/svg">
<path d="M13.414 11.0649L14.828 9.65094C14.9235 9.55869 14.9997 9.44835 15.0521 9.32635C15.1045 9.20434 15.1321 9.07312 15.1333 8.94034C15.1344 8.80756 15.1091 8.67588 15.0588 8.55299C15.0085 8.43009 14.9343 8.31844 14.8404 8.22455C14.7465 8.13065 14.6349 8.0564 14.512 8.00612C14.3891 7.95584 14.2574 7.93054 14.1246 7.93169C13.9918 7.93284 13.8606 7.96043 13.7386 8.01284C13.6166 8.06525 13.5062 8.14143 13.414 8.23694L12 9.64994L10.586 8.23694C10.4943 8.1392 10.384 8.06087 10.2615 8.00662C10.1389 7.95236 10.0068 7.92328 9.87279 7.92111C9.73881 7.91893 9.60576 7.9437 9.48154 7.99395C9.35733 8.0442 9.24448 8.1189 9.14969 8.21362C9.05491 8.30833 8.98013 8.42113 8.92979 8.54531C8.87946 8.66949 8.85459 8.80252 8.85667 8.9365C8.85875 9.07048 8.88774 9.20268 8.94191 9.32524C8.99607 9.44779 9.07432 9.55821 9.172 9.64994L10.586 11.0639L9.172 12.4779C9.07649 12.5702 9.00031 12.6805 8.9479 12.8025C8.89549 12.9245 8.8679 13.0558 8.86675 13.1885C8.8656 13.3213 8.8909 13.453 8.94118 13.5759C8.99146 13.6988 9.06571 13.8104 9.15961 13.9043C9.2535 13.9982 9.36515 14.0725 9.48805 14.1228C9.61094 14.173 9.74262 14.1983 9.8754 14.1972C10.0082 14.196 10.1394 14.1685 10.2614 14.116C10.3834 14.0636 10.4938 13.9875 10.586 13.8919L12 12.4799L13.414 13.8939C13.5062 13.9895 13.6166 14.0656 13.7386 14.118C13.8606 14.1705 13.9918 14.198 14.1246 14.1992C14.2574 14.2003 14.3891 14.175 14.512 14.1248C14.6349 14.0745 14.7465 14.0002 14.8404 13.9063C14.9343 13.8124 15.0085 13.7008 15.0588 13.5779C15.1091 13.455 15.1344 13.3233 15.1333 13.1905C15.1321 13.0578 15.1045 12.9265 15.0521 12.8045C14.9997 12.6825 14.9235 12.5722 14.828 12.4799L13.414 11.0649ZM4.65 4.82194L12 2.06494L19.351 4.82194C19.5416 4.89338 19.7058 5.02126 19.8218 5.18851C19.9377 5.35576 19.9999 5.55442 20 5.75794V10.0649C20 13.2419 18.628 16.2649 16.237 18.3569L12 22.0649L7.763 18.3569C6.58109 17.3228 5.63389 16.0479 4.9849 14.6178C4.3359 13.1877 4.0001 11.6354 4 10.0649V5.75794C4.00008 5.55442 4.06225 5.35576 4.17822 5.18851C4.29419 5.02126 4.45843 4.89338 4.649 4.82194H4.65Z" fill="black"/>
</svg>
