<svg width="24" height="24" viewBox="0 0 24 24" fill="none" xmlns="http://www.w3.org/2000/svg">
<path d="M4.649 4.82194L12 2.06494L19.351 4.82194C19.5416 4.89338 19.7058 5.02126 19.8218 5.18851C19.9377 5.35576 19.9999 5.55442 20 5.75794V10.0649C20 13.2419 18.628 16.2649 16.237 18.3569L12 22.0649L7.763 18.3569C6.58109 17.3228 5.63389 16.0479 4.9849 14.6178C4.3359 13.1877 4.0001 11.6354 4 10.0649V5.75794C4.00008 5.55442 4.06225 5.35576 4.17822 5.18851C4.29419 5.02126 4.45843 4.89338 4.649 4.82194ZM9 10.0649C8.73478 10.0649 8.48043 10.1703 8.29289 10.3578C8.10536 10.5454 8 10.7997 8 11.0649C8 11.3302 8.10536 11.5845 8.29289 11.772C8.48043 11.9596 8.73478 12.0649 9 12.0649H15C15.2652 12.0649 15.5196 11.9596 15.7071 11.772C15.8946 11.5845 16 11.3302 16 11.0649C16 10.7997 15.8946 10.5454 15.7071 10.3578C15.5196 10.1703 15.2652 10.0649 15 10.0649H9Z" fill="black"/>
</svg>
