<svg width="24" height="24" viewBox="0 0 24 24" fill="none" xmlns="http://www.w3.org/2000/svg">
<path d="M15.264 8.83302L14.459 8.77302L13.867 8.18402L14.459 8.77402C14.459 8.77402 15.229 8.83002 15.264 8.83402C15.301 8.83602 15.344 8.86402 15.352 8.91402L16.443 16.299L13.353 16.967L7.64999 15.9C7.64999 15.9 8.38199 10.24 8.40999 10.04C8.44599 9.77602 8.45499 9.76702 8.73499 9.68002L9.63699 9.40002C9.83099 8.58002 10.447 6.96802 11.737 6.96802C11.905 6.96802 12.1 7.05802 12.257 7.26702C12.2726 7.26591 12.2883 7.26525 12.304 7.26502C12.858 7.26502 13.172 7.73702 13.351 8.25002L13.65 8.15802C13.6939 8.14559 13.7398 8.14219 13.785 8.14802L15.264 8.83302ZM12.304 10.541C12.304 10.541 12.047 10.391 11.525 10.391C10.172 10.391 9.50199 11.295 9.50199 12.229C9.50199 13.339 10.609 13.369 10.609 14.044C10.6095 14.096 10.5993 14.1476 10.5792 14.1956C10.5591 14.2435 10.5294 14.2869 10.492 14.323C10.4545 14.3591 10.4101 14.3872 10.3615 14.4056C10.3128 14.424 10.261 14.4323 10.209 14.43C9.77499 14.43 9.26099 13.989 9.26099 13.989L8.99899 14.855C8.99899 14.855 9.49899 15.464 10.479 15.464C11.294 15.464 11.899 14.85 11.899 13.896C11.899 12.683 10.549 12.485 10.549 11.967C10.549 11.872 10.58 11.496 11.18 11.496C11.59 11.496 11.923 11.674 11.923 11.674L12.304 10.541ZM13.036 8.34602C12.913 7.97302 12.723 7.64802 12.438 7.61302C12.509 7.81602 12.553 8.07302 12.553 8.39202V8.49602L13.036 8.34602ZM12.084 7.67602C11.77 7.81102 11.41 8.16802 11.218 8.90902L12.215 8.60102V8.54502C12.215 8.16002 12.163 7.87502 12.085 7.67502L12.084 7.67602ZM11.701 7.31302C10.775 7.31302 10.254 8.52902 10.035 9.27502L10.823 9.03102C11.01 8.05302 11.453 7.56302 11.866 7.36902C11.818 7.33394 11.7604 7.31439 11.701 7.31302Z" fill="black"/>
<path d="M6 4C5.46957 4 4.96086 4.21071 4.58579 4.58579C4.21071 4.96086 4 5.46957 4 6V18C4 18.5304 4.21071 19.0391 4.58579 19.4142C4.96086 19.7893 5.46957 20 6 20H18C18.5304 20 19.0391 19.7893 19.4142 19.4142C19.7893 19.0391 20 18.5304 20 18V6C20 5.46957 19.7893 4.96086 19.4142 4.58579C19.0391 4.21071 18.5304 4 18 4H6ZM6 2H18C19.0609 2 20.0783 2.42143 20.8284 3.17157C21.5786 3.92172 22 4.93913 22 6V18C22 19.0609 21.5786 20.0783 20.8284 20.8284C20.0783 21.5786 19.0609 22 18 22H6C4.93913 22 3.92172 21.5786 3.17157 20.8284C2.42143 20.0783 2 19.0609 2 18V6C2 4.93913 2.42143 3.92172 3.17157 3.17157C3.92172 2.42143 4.93913 2 6 2V2Z" fill="black"/>
</svg>
