<svg width="24" height="24" viewBox="0 0 24 24" fill="none" xmlns="http://www.w3.org/2000/svg">
<path d="M15.338 4.395C15.3495 4.403 15.3602 4.41204 15.37 4.422L16.55 5.593L18.15 5.713C18.223 5.719 18.31 5.774 18.324 5.874L20.496 20.567L14.348 21.897L3 19.771C3 19.771 4.456 8.509 4.511 8.11C4.584 7.586 4.602 7.569 5.159 7.394L6.955 6.837C7.339 5.208 8.565 2 11.13 2C11.465 2 11.853 2.18 12.167 2.594L12.26 2.591C13.361 2.591 13.987 3.53 14.342 4.551L14.937 4.367C15.017 4.343 15.215 4.311 15.337 4.395H15.338ZM12.261 9.11C12.261 9.11 11.748 8.813 10.711 8.813C8.019 8.813 6.685 10.611 6.685 12.469C6.685 14.677 8.888 14.737 8.888 16.08C8.888 16.405 8.658 16.85 8.093 16.85C7.229 16.85 6.205 15.97 6.205 15.97L5.684 17.694C5.684 17.694 6.68 18.906 8.628 18.906C10.251 18.906 11.455 17.684 11.455 15.786C11.455 13.373 8.77 12.979 8.77 11.949C8.77 11.759 8.83 11.011 10.024 11.011C10.5367 11.019 11.0413 11.1399 11.502 11.365L12.261 9.11ZM13.716 4.744C13.473 4.001 13.095 3.355 12.527 3.284C12.668 3.689 12.757 4.2 12.757 4.834L12.756 5.042L13.716 4.744ZM11.823 3.41C11.197 3.678 10.481 4.39 10.1 5.864L12.083 5.25V5.139C12.083 4.373 11.981 3.805 11.823 3.409V3.41ZM11.061 2.688C9.217 2.688 8.182 5.108 7.746 6.593L9.313 6.107C9.686 4.161 10.567 3.187 11.39 2.8C11.2938 2.73043 11.1787 2.69204 11.06 2.69L11.061 2.688Z" fill="black"/>
</svg>
