<svg width="24" height="24" viewBox="0 0 24 24" fill="none" xmlns="http://www.w3.org/2000/svg">
<path d="M7 10V19C7 19.2652 7.10536 19.5196 7.29289 19.7071C7.48043 19.8946 7.73478 20 8 20H16C16.2652 20 16.5196 19.8946 16.7071 19.7071C16.8946 19.5196 17 19.2652 17 19V10H7ZM7 8V5C7 4.20435 7.31607 3.44129 7.87868 2.87868C8.44129 2.31607 9.20435 2 10 2H14C14.7956 2 15.5587 2.31607 16.1213 2.87868C16.6839 3.44129 17 4.20435 17 5V8H19V19C19 19.7956 18.6839 20.5587 18.1213 21.1213C17.5587 21.6839 16.7956 22 16 22H8C7.20435 22 6.44129 21.6839 5.87868 21.1213C5.31607 20.5587 5 19.7956 5 19V8H7ZM9 8H15V5C15 4.73478 14.8946 4.48043 14.7071 4.29289C14.5196 4.10536 14.2652 4 14 4H10C9.73478 4 9.48043 4.10536 9.29289 4.29289C9.10536 4.48043 9 4.73478 9 5V8Z" fill="black"/>
</svg>
