<svg width="24" height="24" viewBox="0 0 24 24" fill="none" xmlns="http://www.w3.org/2000/svg">
<path d="M21.126 13.425C21.3539 11.9822 21.2372 10.5059 20.7854 9.11685C20.3337 7.72776 19.5598 6.46523 18.5269 5.43241C17.4939 4.39958 16.2313 3.62577 14.8422 3.17418C13.4531 2.72258 11.9768 2.60602 10.534 2.83402C9.46177 2.17235 8.19762 1.89188 6.94616 2.03802C5.69471 2.18416 4.52919 2.74836 3.63826 3.63928C2.74734 4.53021 2.18315 5.69572 2.037 6.94718C1.89086 8.19863 2.17133 9.46279 2.833 10.535C2.60478 11.9779 2.72118 13.4542 3.17269 14.8435C3.62421 16.2327 4.39802 17.4954 5.43089 18.5284C6.46377 19.5613 7.72639 20.3353 9.11559 20.7869C10.5048 21.2386 11.9811 21.3551 13.424 21.127C14.278 21.652 15.284 21.958 16.363 21.958C17.3592 21.9581 18.3373 21.6922 19.1963 21.1879C20.0554 20.6836 20.7643 19.9591 21.2497 19.0892C21.7352 18.2194 21.9797 17.2357 21.958 16.2398C21.9362 15.2439 21.649 14.2718 21.126 13.424V13.425ZM16.376 16.191C15.984 16.755 15.409 17.195 14.656 17.512C13.903 17.83 13.013 17.988 11.984 17.988C10.752 17.988 9.731 17.772 8.926 17.337C8.36833 17.0369 7.89066 16.6076 7.533 16.085C7.176 15.563 6.994 15.051 6.994 14.553C6.994 14.259 7.106 14.003 7.324 13.794C7.545 13.584 7.829 13.479 8.164 13.479C8.439 13.479 8.675 13.562 8.868 13.726C9.058 13.89 9.218 14.128 9.349 14.442C9.506 14.807 9.676 15.112 9.857 15.354C10.037 15.594 10.291 15.794 10.619 15.951C10.944 16.108 11.376 16.187 11.916 16.187C12.656 16.187 13.254 16.027 13.712 15.711C14.172 15.393 14.392 15.005 14.392 14.537C14.392 14.163 14.274 13.867 14.029 13.635C13.783 13.401 13.465 13.222 13.069 13.098C12.5438 12.9389 12.0112 12.8054 11.473 12.698C10.577 12.502 9.828 12.275 9.221 12.013C8.614 11.751 8.13 11.393 7.771 10.939C7.411 10.482 7.232 9.91302 7.232 9.23902C7.232 8.59702 7.422 8.02302 7.8 7.52302C8.179 7.02202 8.727 6.63802 9.44 6.37102C10.152 6.10402 10.99 5.97102 11.95 5.97102C12.718 5.97102 13.382 6.05902 13.944 6.23602C14.504 6.41402 14.971 6.64902 15.344 6.94302C15.716 7.23802 15.989 7.54802 16.162 7.87302C16.335 8.20002 16.422 8.51902 16.422 8.83002C16.422 9.12002 16.31 9.38202 16.092 9.61202C15.872 9.84202 15.593 9.95902 15.267 9.95802C14.973 9.95802 14.742 9.89002 14.582 9.74702C14.426 9.60702 14.262 9.38702 14.085 9.07702C13.861 8.64702 13.593 8.31202 13.281 8.07202C12.977 7.83702 12.476 7.71402 11.779 7.71602C11.134 7.71602 10.619 7.84702 10.229 8.10602C9.837 8.36702 9.649 8.67102 9.649 9.02602C9.649 9.25002 9.714 9.43802 9.843 9.59902C9.973 9.76102 10.156 9.90202 10.39 10.02C10.625 10.14 10.863 10.234 11.103 10.3C11.345 10.37 11.748 10.469 12.307 10.6C13.008 10.752 13.644 10.92 14.216 11.104C14.786 11.289 15.273 11.512 15.676 11.778C16.08 12.043 16.397 12.381 16.623 12.789C16.851 13.198 16.965 13.697 16.965 14.284C16.965 14.992 16.769 15.628 16.375 16.191H16.376Z" fill="black"/>
</svg>
