<svg width="24" height="24" viewBox="0 0 24 24" fill="none" xmlns="http://www.w3.org/2000/svg">
<path d="M12 20C14.1217 20 16.1566 19.1571 17.6569 17.6569C19.1571 16.1566 20 14.1217 20 12C20 9.87827 19.1571 7.84344 17.6569 6.34315C16.1566 4.84285 14.1217 4 12 4C9.87827 4 7.84344 4.84285 6.34315 6.34315C4.84285 7.84344 4 9.87827 4 12C4 14.1217 4.84285 16.1566 6.34315 17.6569C7.84344 19.1571 9.87827 20 12 20ZM12 22C6.477 22 2 17.523 2 12C2 6.477 6.477 2 12 2C17.523 2 22 6.477 22 12C22 17.523 17.523 22 12 22Z" fill="black"/>
<path d="M16.583 12.7241C16.6972 12.0011 16.6387 11.2614 16.4124 10.5654C16.1861 9.86941 15.7983 9.2368 15.2808 8.71928C14.7633 8.20176 14.1306 7.814 13.4346 7.58767C12.7386 7.36135 11.9989 7.30289 11.276 7.41705C10.7387 7.0858 10.1054 6.94551 9.47846 7.0189C8.85155 7.09228 8.26773 7.37503 7.82146 7.82141C7.3752 8.26779 7.09259 8.85168 7.01938 9.47862C6.94616 10.1056 7.08661 10.7389 7.418 11.2761C7.30361 11.999 7.36191 12.7388 7.58815 13.4349C7.8144 14.131 8.20215 14.7638 8.71973 15.2813C9.23731 15.7989 9.87001 16.1867 10.5661 16.4129C11.2623 16.6391 12.002 16.6974 12.725 16.5831C13.2623 16.9148 13.8958 17.0555 14.523 16.9823C15.1502 16.9092 15.7344 16.6265 16.1809 16.18C16.6274 15.7334 16.9101 15.1493 16.9833 14.5221C17.0564 13.8949 16.9158 13.2613 16.584 12.7241H16.583ZM14.203 14.1101C14.006 14.3931 13.718 14.6131 13.341 14.7721C12.964 14.9321 12.518 15.0111 12.002 15.0111C11.385 15.0111 10.874 14.9021 10.47 14.6841C10.1906 14.5338 9.95125 14.3188 9.772 14.0571C9.593 13.7951 9.502 13.5391 9.502 13.2891C9.50151 13.2176 9.51604 13.1469 9.54464 13.0814C9.57323 13.016 9.61526 12.9572 9.668 12.9091C9.78173 12.8031 9.93266 12.7463 10.088 12.7511C10.2168 12.7481 10.3423 12.7922 10.441 12.8751C10.5482 12.9743 10.6307 13.0973 10.682 13.2341C10.761 13.4171 10.846 13.5691 10.937 13.6911C11.027 13.8111 11.154 13.9111 11.318 13.9901C11.481 14.0691 11.698 14.1081 11.968 14.1081C12.339 14.1081 12.638 14.0281 12.868 13.8701C13.098 13.7101 13.209 13.5161 13.209 13.2811C13.2126 13.1971 13.1982 13.1133 13.1668 13.0354C13.1355 12.9574 13.0878 12.8871 13.027 12.8291C12.8897 12.7038 12.7255 12.6118 12.547 12.5601C12.2837 12.4807 12.0167 12.414 11.747 12.3601C11.3607 12.2815 10.9827 12.1667 10.618 12.0171C10.3345 11.9014 10.0845 11.7164 9.891 11.4791C9.711 11.2491 9.621 10.9651 9.621 10.6271C9.621 10.3061 9.716 10.0171 9.906 9.76706C10.096 9.51706 10.37 9.32406 10.728 9.19006C11.085 9.05606 11.504 8.99005 11.985 8.99005C12.37 8.99005 12.702 9.03406 12.984 9.12206C13.264 9.21206 13.499 9.32906 13.686 9.47706C13.872 9.62406 14.009 9.78005 14.096 9.94305C14.182 10.1061 14.226 10.2661 14.226 10.4221C14.2248 10.5695 14.1651 10.7105 14.06 10.8141C14.0072 10.8703 13.9431 10.9148 13.872 10.9447C13.8008 10.9745 13.7241 10.9889 13.647 10.9871C13.5 10.9871 13.384 10.9531 13.304 10.8811C13.226 10.8111 13.144 10.7011 13.054 10.5461C12.9584 10.3507 12.8212 10.1787 12.652 10.0421C12.5 9.92405 12.249 9.86205 11.9 9.86405C11.576 9.86405 11.318 9.93006 11.123 10.0591C10.926 10.1901 10.833 10.3421 10.833 10.5211C10.833 10.6321 10.865 10.7271 10.929 10.8071C11.0046 10.8961 11.0984 10.968 11.204 11.0181C11.321 11.0781 11.441 11.1251 11.561 11.1591C11.682 11.1931 11.884 11.2431 12.164 11.3091C12.515 11.3851 12.834 11.4691 13.12 11.5621C13.406 11.6541 13.65 11.7661 13.852 11.8991C14.055 12.0321 14.213 12.2011 14.327 12.4061C14.441 12.6101 14.497 12.8611 14.497 13.1551C14.498 13.5091 14.399 13.8281 14.203 14.1101Z" fill="black"/>
</svg>
