<svg width="24" height="24" viewBox="0 0 24 24" fill="none" xmlns="http://www.w3.org/2000/svg">
<path d="M21.874 12.725C21.8021 12.5028 21.6871 12.297 21.5356 12.1192C21.3841 11.9415 21.199 11.7953 20.9909 11.6892C20.7829 11.583 20.556 11.5189 20.3231 11.5005C20.0903 11.4822 19.8561 11.5098 19.634 11.582L17.842 12.165L16.625 8.41504L18.417 7.83204C18.8665 7.68617 19.2397 7.3677 19.4544 6.94668C19.6692 6.52566 19.7079 6.03658 19.562 5.58704C19.4161 5.1375 19.0976 4.76432 18.6766 4.54959C18.2556 4.33486 17.7665 4.29617 17.317 4.44204L15.527 5.02704L14.944 3.23204C14.8723 3.00965 14.7575 2.8036 14.606 2.62567C14.4546 2.44775 14.2695 2.30146 14.0614 2.19519C13.8533 2.08892 13.6263 2.02475 13.3934 2.00636C13.1604 1.98798 12.9262 2.01573 12.704 2.08804C12.2552 2.23473 11.8829 2.55355 11.669 2.97447C11.4551 3.3954 11.4169 3.88403 11.563 4.33304L12.145 6.12804L8.40299 7.34704C8.04999 6.25504 7.81999 5.55204 7.81999 5.55204C7.7482 5.32973 7.63328 5.12376 7.4818 4.9459C7.33033 4.76805 7.14526 4.62181 6.93721 4.51556C6.72916 4.4093 6.50219 4.34511 6.26931 4.32667C6.03642 4.30822 5.80218 4.33587 5.57999 4.40804C5.35763 4.48036 5.1517 4.59577 4.97396 4.74769C4.79622 4.89961 4.65015 5.08506 4.54409 5.29345C4.43804 5.50184 4.37409 5.72908 4.35588 5.96219C4.33768 6.1953 4.36558 6.42972 4.43799 6.65204L5.02099 8.44804L3.17099 9.05004C2.74691 9.20462 2.39733 9.51446 2.19295 9.91692C1.98856 10.3194 1.94462 10.7844 2.06999 11.218C2.34199 12.163 3.34399 12.739 4.26999 12.438L6.11999 11.835L7.33599 15.585L5.48699 16.188C5.0632 16.3428 4.71379 16.6524 4.50912 17.0545C4.30446 17.4566 4.25975 17.9213 4.38399 18.355C4.65599 19.3 5.65799 19.878 6.58399 19.575C6.59199 19.573 7.31999 19.337 8.43499 18.973L9.03599 20.825C9.18938 21.2493 9.4982 21.5994 9.89996 21.8045C10.3017 22.0097 10.7664 22.0545 11.2 21.93C12.143 21.658 12.72 20.654 12.417 19.725L11.817 17.873L15.56 16.654L16.161 18.507C16.3144 18.931 16.623 19.281 17.0246 19.4861C17.4261 19.6913 17.8905 19.7363 18.324 19.612C19.268 19.339 19.844 18.335 19.542 17.407L18.941 15.554C19.538 15.3593 20.135 15.1646 20.732 14.97C21.1808 14.8233 21.5531 14.5046 21.7672 14.0837C21.9813 13.6628 22.0197 13.1742 21.874 12.725ZM10.718 14.485L9.50199 10.735L13.244 9.51704L14.461 13.267L10.718 14.485Z" fill="black"/>
</svg>
