<svg width="24" height="24" viewBox="0 0 24 24" fill="none" xmlns="http://www.w3.org/2000/svg">
<path d="M16.956 12.362C16.9198 12.2508 16.8621 12.1479 16.7862 12.059C16.7102 11.9701 16.6175 11.8971 16.5133 11.8441C16.4091 11.7911 16.2955 11.7591 16.1789 11.75C16.0624 11.7409 15.9452 11.7548 15.834 11.791L14.936 12.082C14.738 11.47 14.526 10.819 14.326 10.207L15.224 9.91603C15.4488 9.84309 15.6354 9.68385 15.7427 9.47334C15.8501 9.26283 15.8694 9.0183 15.7965 8.79353C15.7236 8.56875 15.5643 8.38216 15.3538 8.2748C15.1433 8.16743 14.8988 8.14809 14.674 8.22103L13.776 8.51303L13.484 7.61603C13.4479 7.50486 13.3902 7.4019 13.3143 7.31302C13.2384 7.22414 13.1458 7.15107 13.0416 7.09801C12.9375 7.04494 12.8239 7.0129 12.7074 7.00372C12.5909 6.99455 12.4737 7.00841 12.3625 7.04453C12.138 7.11746 11.9517 7.27659 11.8445 7.48691C11.7914 7.59106 11.7594 7.70463 11.7502 7.82115C11.741 7.93767 11.7549 8.05486 11.791 8.16603L12.083 9.06403L10.208 9.67403L9.916 8.77603C9.84306 8.55139 9.68388 8.36492 9.47346 8.25765C9.36928 8.20454 9.25565 8.17246 9.13907 8.16326C9.02248 8.15406 8.90523 8.16791 8.794 8.20403C8.68277 8.24014 8.57974 8.29781 8.4908 8.37374C8.40186 8.44967 8.32874 8.54237 8.27563 8.64656C8.16835 8.85698 8.14906 9.10139 8.222 9.32603L8.514 10.224L7.588 10.525C7.37542 10.6017 7.19999 10.7564 7.09729 10.9577C6.99459 11.1591 6.97232 11.3919 7.035 11.609C7.171 12.081 7.673 12.369 8.138 12.219L9.064 11.917L9.674 13.792L8.747 14.094C8.53479 14.1709 8.35968 14.3255 8.25703 14.5265C8.15438 14.7275 8.13186 14.96 8.194 15.177C8.331 15.65 8.833 15.939 9.297 15.787C9.301 15.787 9.665 15.668 10.224 15.487L10.525 16.412C10.6019 16.6245 10.7566 16.7997 10.9579 16.9024C11.1591 17.0051 11.3919 17.0275 11.609 16.965C12.081 16.829 12.37 16.327 12.219 15.862C12.218 15.859 12.099 15.495 11.919 14.936C12.531 14.737 13.182 14.526 13.793 14.326L14.094 15.253C14.1709 15.4655 14.3256 15.6407 14.5269 15.7434C14.7281 15.8461 14.9609 15.8685 15.178 15.806C15.651 15.669 15.939 15.167 15.788 14.703L15.487 13.777L16.384 13.485C16.4953 13.4489 16.5984 13.3911 16.6874 13.3151C16.7764 13.2391 16.8495 13.1463 16.9026 13.042C16.9558 12.9377 16.9878 12.824 16.997 12.7073C17.0061 12.5907 16.9922 12.4733 16.956 12.362ZM11.368 13.242L10.758 11.367C11.371 11.169 12.022 10.957 12.633 10.758L13.243 12.633L11.368 13.243V13.242Z" fill="black"/>
<path d="M6 4C5.46957 4 4.96086 4.21071 4.58579 4.58579C4.21071 4.96086 4 5.46957 4 6V18C4 18.5304 4.21071 19.0391 4.58579 19.4142C4.96086 19.7893 5.46957 20 6 20H18C18.5304 20 19.0391 19.7893 19.4142 19.4142C19.7893 19.0391 20 18.5304 20 18V6C20 5.46957 19.7893 4.96086 19.4142 4.58579C19.0391 4.21071 18.5304 4 18 4H6ZM6 2H18C19.0609 2 20.0783 2.42143 20.8284 3.17157C21.5786 3.92172 22 4.93913 22 6V18C22 19.0609 21.5786 20.0783 20.8284 20.8284C20.0783 21.5786 19.0609 22 18 22H6C4.93913 22 3.92172 21.5786 3.17157 20.8284C2.42143 20.0783 2 19.0609 2 18V6C2 4.93913 2.42143 3.92172 3.17157 3.17157C3.92172 2.42143 4.93913 2 6 2V2Z" fill="black"/>
</svg>
