<svg width="24" height="24" viewBox="0 0 24 24" fill="none" xmlns="http://www.w3.org/2000/svg">
<path d="M12 22.358C6.477 22.358 2 17.881 2 12.358C2 6.83503 6.477 2.35803 12 2.35803C17.523 2.35803 22 6.83503 22 12.358C22 17.881 17.523 22.358 12 22.358ZM8.08 15.752C8.4085 16.5195 8.95506 17.1737 9.65189 17.6334C10.3487 18.0931 11.1652 18.3381 12 18.3381C12.8348 18.3381 13.6513 18.0931 14.3481 17.6334C15.0449 17.1737 15.5915 16.5195 15.92 15.752C15.9717 15.6312 15.9992 15.5014 16.0007 15.37C16.0023 15.2386 15.978 15.1081 15.9291 14.9861C15.8803 14.8641 15.8079 14.7529 15.7161 14.6588C15.6243 14.5648 15.5148 14.4898 15.394 14.438C15.2732 14.3863 15.1434 14.3589 15.0119 14.3573C14.8805 14.3557 14.7501 14.3801 14.6281 14.4289C14.506 14.4777 14.3948 14.5501 14.3008 14.642C14.2068 14.7338 14.1317 14.8432 14.08 14.964C13.9052 15.3707 13.615 15.7172 13.2453 15.9607C12.8756 16.2042 12.4427 16.334 12 16.334C11.5573 16.334 11.1244 16.2042 10.7547 15.9607C10.385 15.7172 10.0948 15.3707 9.92 14.964C9.86826 14.8432 9.79323 14.7338 9.69919 14.642C9.60516 14.5501 9.49395 14.4777 9.37194 14.4289C9.24992 14.3801 9.11948 14.3557 8.98806 14.3573C8.85664 14.3589 8.72682 14.3863 8.606 14.438C8.48518 14.4898 8.37574 14.5648 8.28392 14.6588C8.1921 14.7529 8.11971 14.8641 8.07086 14.9861C8.02202 15.1081 7.99769 15.2386 7.99925 15.37C8.00082 15.5014 8.02826 15.6312 8.08 15.752ZM9 8.35803C8.73478 8.35803 8.48043 8.46339 8.29289 8.65093C8.10536 8.83846 8 9.09282 8 9.35803V11.358C8 11.6232 8.10536 11.8776 8.29289 12.0651C8.48043 12.2527 8.73478 12.358 9 12.358C9.26522 12.358 9.51957 12.2527 9.70711 12.0651C9.89464 11.8776 10 11.6232 10 11.358V9.35803C10 9.09282 9.89464 8.83846 9.70711 8.65093C9.51957 8.46339 9.26522 8.35803 9 8.35803ZM15 8.35803C14.7348 8.35803 14.4804 8.46339 14.2929 8.65093C14.1054 8.83846 14 9.09282 14 9.35803V11.358C14 11.6232 14.1054 11.8776 14.2929 12.0651C14.4804 12.2527 14.7348 12.358 15 12.358C15.2652 12.358 15.5196 12.2527 15.7071 12.0651C15.8946 11.8776 16 11.6232 16 11.358V9.35803C16 9.09282 15.8946 8.83846 15.7071 8.65093C15.5196 8.46339 15.2652 8.35803 15 8.35803Z" fill="black"/>
</svg>
