<svg width="24" height="24" viewBox="0 0 24 24" fill="none" xmlns="http://www.w3.org/2000/svg">
<path d="M17.899 10.2499C18.231 10.1749 18.399 10.1209 18.4 10.0859C18.4335 10.0714 18.4669 10.0564 18.5 10.0409C18.6278 9.98466 18.7663 9.95669 18.906 9.95894C19.058 9.95894 19.21 9.98694 19.341 10.0409C19.732 10.1799 19.977 10.4649 19.983 10.7849C19.986 10.9159 19.946 11.1189 19.741 11.3299C19.568 11.5059 19.308 11.6619 18.943 11.8059C18.8467 11.842 18.7493 11.875 18.651 11.9049C18.281 12.0219 17.721 12.1999 17.575 12.5419C17.5 12.7159 17.532 12.9449 17.68 13.2449C17.728 13.3609 18.933 16.0999 21.607 16.5399C21.7206 16.5581 21.8235 16.6177 21.8957 16.7073C21.9679 16.7969 22.0044 16.91 21.998 17.0249C21.9938 17.096 21.9769 17.1658 21.948 17.2309C21.852 17.4539 21.631 17.6419 21.272 17.8089C20.832 18.0119 20.175 18.1819 19.316 18.3169C19.273 18.3999 19.226 18.6119 19.197 18.7449C19.1643 18.9013 19.1259 19.0564 19.082 19.2099C19.011 19.4539 18.823 19.5939 18.546 19.5939C18.43 19.5939 18.28 19.5739 18.086 19.5369C17.7409 19.4652 17.3895 19.4283 17.037 19.4269C16.793 19.4269 16.541 19.4469 16.287 19.4899C15.797 19.5709 15.375 19.8689 14.885 20.2139C14.17 20.7169 13.36 21.2889 12.122 21.2889C12.074 21.289 12.0259 21.2877 11.978 21.2849C11.9444 21.2875 11.9107 21.2889 11.877 21.2889C10.64 21.2889 9.82999 20.7169 9.11499 20.2119C8.62499 19.8669 8.20299 19.5699 7.71299 19.4889C7.46518 19.447 7.21433 19.4256 6.96299 19.4249C6.52499 19.4249 6.17199 19.4939 5.91499 19.5439C5.73799 19.5769 5.58699 19.6069 5.45499 19.6069C5.10499 19.6069 4.97099 19.3949 4.91799 19.2169C4.87361 19.0625 4.83525 18.9064 4.80299 18.7489C4.77199 18.6069 4.72699 18.4009 4.68299 18.3189C3.82499 18.1849 3.16699 18.0139 2.72699 17.8089C2.36699 17.6439 2.14599 17.4549 2.04999 17.2289C2.02141 17.1648 2.00448 17.096 1.99999 17.0259C1.99358 16.9107 2.03009 16.7971 2.10248 16.7072C2.17487 16.6172 2.27801 16.5573 2.39199 16.5389C3.00037 16.4376 3.58121 16.2116 4.09799 15.8749C4.55263 15.5778 4.96187 15.2163 5.31299 14.8019C5.72563 14.3263 6.06841 13.7943 6.33099 13.2219C6.46699 12.9449 6.49999 12.7159 6.42599 12.5419C6.27999 12.1999 5.71799 12.0219 5.34799 11.9049C5.24199 11.8709 5.14099 11.8399 5.05599 11.8059C4.73199 11.6789 4.48199 11.5349 4.31099 11.3799C3.99999 11.0969 3.99999 10.8189 4.02599 10.6789C4.06699 10.4649 4.21699 10.2739 4.44999 10.1369C4.63122 10.0298 4.83746 9.97218 5.04799 9.96994C5.16474 9.96825 5.28045 9.99215 5.38699 10.0399C5.45899 10.0739 5.52999 10.1039 5.59899 10.1299C5.60099 10.1619 5.73899 10.2019 6.01299 10.2529C6.10599 10.2699 6.19499 10.2789 6.27799 10.2789C6.39046 10.2815 6.50222 10.2604 6.60599 10.2169L6.57799 9.77094C6.49299 8.41894 6.38699 6.73494 6.83499 5.73594C7.12224 5.07952 7.53614 4.4862 8.05299 3.98994C8.47599 3.58994 8.96599 3.26594 9.51199 3.02594C10.2333 2.71135 11.0111 2.54669 11.798 2.54194L12.192 2.53894C12.637 2.53894 13.525 2.60094 14.476 3.02094C15.0158 3.25621 15.511 3.58264 15.94 3.98594C16.4595 4.4829 16.8752 5.07808 17.163 5.73694C17.611 6.73694 17.505 8.42094 17.418 9.77494L17.415 9.83194C17.405 9.96494 17.398 10.0939 17.391 10.2189C17.4785 10.2559 17.5721 10.2762 17.667 10.2789C17.741 10.2749 17.818 10.2649 17.899 10.2489V10.2499Z" fill="black"/>
</svg>
