<svg width="24" height="24" viewBox="0 0 24 24" fill="none" xmlns="http://www.w3.org/2000/svg">
<path d="M20.504 3.47005C20.86 3.82621 21.1376 4.25296 21.3187 4.72285C21.4999 5.19273 21.5807 5.69534 21.556 6.19833C21.5312 6.70133 21.4014 7.19356 21.1749 7.64337C20.9484 8.09318 20.6303 8.49059 20.241 8.81005C17.144 11.351 15.11 13.106 14.14 14.076C13.17 15.046 11.415 17.08 8.874 20.177C8.55454 20.5664 8.15713 20.8845 7.70732 21.111C7.25751 21.3374 6.76528 21.4672 6.26228 21.492C5.75929 21.5168 5.25668 21.436 4.7868 21.2548C4.31691 21.0736 3.89016 20.7961 3.534 20.44C3.18735 20.0936 2.91778 19.6779 2.74293 19.2201C2.56808 18.7623 2.4919 18.2727 2.51937 17.7834C2.54684 17.2941 2.67735 16.8161 2.90235 16.3808C3.12734 15.9454 3.44175 15.5625 3.825 15.257C8.07641 11.8688 11.9327 8.01246 15.321 3.76105C15.6264 3.3778 16.0094 3.06339 16.4447 2.8384C16.8801 2.6134 17.3581 2.48289 17.8474 2.45542C18.3367 2.42795 18.8262 2.50413 19.284 2.67898C19.7419 2.85383 20.1576 3.1234 20.504 3.47005ZM13.433 10.54C13.5247 10.6378 13.635 10.7161 13.7575 10.7704C13.8801 10.8246 14.0122 10.8537 14.1462 10.8559C14.2802 10.8581 14.4132 10.8333 14.5375 10.783C14.6617 10.7328 14.7745 10.6581 14.8693 10.5634C14.9641 10.4687 15.0389 10.3559 15.0892 10.2317C15.1395 10.1075 15.1644 9.97446 15.1623 9.84048C15.1602 9.7065 15.1313 9.57431 15.0771 9.45175C15.0229 9.32919 14.9447 9.21877 14.847 9.12705C14.6584 8.94489 14.4058 8.84409 14.1436 8.84637C13.8814 8.84865 13.6306 8.95382 13.4452 9.13923C13.2598 9.32464 13.1546 9.57545 13.1523 9.83765C13.15 10.0998 13.2508 10.3524 13.433 10.541V10.54ZM9.19 14.785C9.37764 14.9726 9.63208 15.0778 9.89735 15.0777C10.0287 15.0777 10.1588 15.0518 10.2801 15.0015C10.4014 14.9512 10.5117 14.8775 10.6045 14.7845C10.6973 14.6916 10.771 14.5813 10.8212 14.46C10.8714 14.3386 10.8972 14.2085 10.8972 14.0772C10.8972 13.9458 10.8712 13.8158 10.8209 13.6945C10.7706 13.5731 10.6969 13.4629 10.604 13.37C10.4164 13.1825 10.1619 13.0772 9.89664 13.0773C9.63137 13.0774 9.377 13.1829 9.1895 13.3705C9.00199 13.5582 8.8967 13.8126 8.89679 14.0779C8.89689 14.3432 9.00236 14.5975 9.19 14.785Z" fill="black"/>
</svg>
