<svg width="24" height="24" viewBox="0 0 24 24" fill="none" xmlns="http://www.w3.org/2000/svg">
<path d="M21.982 13.8619C21.902 12.6439 20.95 11.6659 19.788 11.6069C19.361 11.5846 18.9367 11.686 18.566 11.8989C18.518 9.47395 16.632 7.52295 14.311 7.52295C13.696 7.52295 13.113 7.65995 12.586 7.90495C12.5295 7.93263 12.482 7.97581 12.449 8.02945C12.4161 8.0831 12.3991 8.14501 12.4 8.20795V16.1329C12.4 16.3159 12.542 16.4649 12.716 16.4649H19.673C21.006 16.4649 22.075 15.2819 21.983 13.8619H21.982ZM11.785 8.03595C11.7422 8.03699 11.7 8.04645 11.6608 8.0638C11.6217 8.08115 11.5863 8.10604 11.5568 8.13706C11.5273 8.16808 11.5041 8.20461 11.4887 8.24457C11.4733 8.28453 11.4659 8.32713 11.467 8.36995V16.1219C11.467 16.3059 11.609 16.4559 11.785 16.4559C11.96 16.4559 12.103 16.3059 12.103 16.1219V8.36995C12.1041 8.32713 12.0967 8.28453 12.0813 8.24457C12.0659 8.20461 12.0427 8.16808 12.0132 8.13706C11.9837 8.10604 11.9483 8.08115 11.9092 8.0638C11.87 8.04645 11.8278 8.03699 11.785 8.03595ZM10.733 8.85995C10.6902 8.86099 10.648 8.87045 10.6088 8.8878C10.5697 8.90515 10.5343 8.93004 10.5048 8.96106C10.4753 8.99208 10.4521 9.02861 10.4367 9.06857C10.4213 9.10853 10.4139 9.15113 10.415 9.19395V16.1219C10.415 16.3059 10.558 16.4559 10.733 16.4559C10.909 16.4559 11.051 16.3059 11.051 16.1219V9.19395C11.0521 9.15113 11.0447 9.10853 11.0293 9.06857C11.0139 9.02861 10.9907 8.99208 10.9612 8.96106C10.9317 8.93004 10.8963 8.90515 10.8572 8.8878C10.818 8.87045 10.7758 8.86099 10.733 8.85995ZM9.681 9.23595C9.63819 9.23699 9.59599 9.24645 9.55684 9.2638C9.51768 9.28115 9.48233 9.30604 9.4528 9.33706C9.42327 9.36808 9.40013 9.40461 9.38473 9.44457C9.36932 9.48453 9.36194 9.52713 9.363 9.56995V16.1219C9.363 16.3059 9.506 16.4559 9.681 16.4559C9.857 16.4559 9.999 16.3059 9.999 16.1219V9.56995C10.0001 9.52713 9.99268 9.48453 9.97727 9.44457C9.96187 9.40461 9.93873 9.36808 9.9092 9.33706C9.87967 9.30604 9.84432 9.28115 9.80516 9.2638C9.76601 9.24645 9.72381 9.23699 9.681 9.23595ZM8.63 8.73495C8.5871 8.73586 8.5448 8.74523 8.50553 8.76252C8.46626 8.77981 8.43079 8.80468 8.40115 8.83571C8.37151 8.86674 8.34829 8.90332 8.33282 8.94334C8.31735 8.98337 8.30994 9.02605 8.311 9.06895V16.1219C8.311 16.3059 8.454 16.4559 8.629 16.4559C8.805 16.4559 8.947 16.3059 8.947 16.1219V9.06995C8.94806 9.02714 8.94068 8.98453 8.92527 8.94457C8.90987 8.90461 8.88673 8.86808 8.8572 8.83706C8.82767 8.80604 8.79232 8.78115 8.75316 8.7638C8.71401 8.74645 8.67181 8.73699 8.629 8.73595L8.63 8.73495ZM7.577 9.06895C7.53419 9.06999 7.49199 9.07945 7.45284 9.0968C7.41368 9.11415 7.37833 9.13904 7.3488 9.17006C7.31927 9.20108 7.29613 9.23761 7.28073 9.27757C7.26532 9.31753 7.25794 9.36013 7.259 9.40295V16.1229C7.259 16.3059 7.402 16.4559 7.577 16.4559C7.753 16.4559 7.895 16.3059 7.895 16.1219V9.40195C7.89688 9.31565 7.86446 9.23213 7.80484 9.16971C7.74523 9.10728 7.66329 9.07105 7.577 9.06895ZM6.525 9.73695C6.43871 9.73931 6.35687 9.77579 6.29744 9.83841C6.23802 9.90102 6.20585 9.98465 6.208 10.0709V16.1219C6.208 16.3059 6.35 16.4559 6.525 16.4559C6.701 16.4559 6.843 16.3059 6.843 16.1219V10.0709C6.84406 10.0281 6.83668 9.98553 6.82127 9.94557C6.80587 9.90561 6.78273 9.86908 6.7532 9.83806C6.72367 9.80704 6.68832 9.78215 6.64916 9.7648C6.61001 9.74745 6.56781 9.73799 6.525 9.73695ZM5.474 11.0299C5.43118 11.031 5.38899 11.0405 5.34984 11.0578C5.31068 11.0751 5.27533 11.1 5.2458 11.1311C5.21627 11.1621 5.19313 11.1986 5.17773 11.2386C5.16232 11.2785 5.15494 11.3211 5.156 11.3639V16.1219C5.156 16.3059 5.298 16.4559 5.474 16.4559C5.649 16.4559 5.791 16.3059 5.791 16.1219V11.3639C5.79288 11.2778 5.7606 11.1944 5.7012 11.1321C5.6418 11.0697 5.56012 11.0333 5.474 11.0309V11.0299ZM4.422 11.5729C4.37918 11.574 4.33699 11.5835 4.29784 11.6008C4.25868 11.6181 4.22333 11.643 4.1938 11.6741C4.16427 11.7051 4.14113 11.7416 4.12573 11.7816C4.11032 11.8215 4.10294 11.8641 4.104 11.9069V16.1219C4.104 16.3059 4.246 16.4559 4.422 16.4559C4.597 16.4559 4.74 16.3059 4.74 16.1219V11.9069C4.74106 11.8641 4.73368 11.8215 4.71827 11.7816C4.70286 11.7416 4.67973 11.7051 4.6502 11.6741C4.62067 11.643 4.58532 11.6181 4.54616 11.6008C4.50701 11.5835 4.46481 11.574 4.422 11.5729ZM3.37 11.6979C3.28371 11.7 3.20177 11.7363 3.14216 11.7987C3.08254 11.8611 3.05012 11.9447 3.052 12.0309V15.9979C3.052 16.1819 3.194 16.3309 3.37 16.3309C3.545 16.3309 3.688 16.1809 3.688 15.9979V12.0299C3.68988 11.9437 3.65746 11.8601 3.59784 11.7977C3.53823 11.7353 3.45629 11.699 3.37 11.6969V11.6979ZM2.318 12.5699C2.23188 12.572 2.1501 12.6081 2.09052 12.6704C2.03093 12.7326 1.99839 12.8158 2 12.9019V15.1869C2 15.3719 2.142 15.5209 2.318 15.5209C2.493 15.5209 2.636 15.3709 2.636 15.1869V12.9029C2.63706 12.8601 2.62968 12.8175 2.61427 12.7776C2.59886 12.7376 2.57573 12.7011 2.5462 12.6701C2.51667 12.639 2.48132 12.6141 2.44216 12.5968C2.40301 12.5795 2.36081 12.57 2.318 12.5689V12.5699Z" fill="black"/>
</svg>
