<svg width="24" height="24" viewBox="0 0 24 24" fill="none" xmlns="http://www.w3.org/2000/svg">
<path d="M8 2H16C16.7956 2 17.5587 2.31607 18.1213 2.87868C18.6839 3.44129 19 4.20435 19 5V19C19 19.7956 18.6839 20.5587 18.1213 21.1213C17.5587 21.6839 16.7956 22 16 22H8C7.20435 22 6.44129 21.6839 5.87868 21.1213C5.31607 20.5587 5 19.7956 5 19V5C5 4.20435 5.31607 3.44129 5.87868 2.87868C6.44129 2.31607 7.20435 2 8 2V2ZM12 19C13.0609 19 14.0783 18.5786 14.8284 17.8284C15.5786 17.0783 16 16.0609 16 15C16 13.9391 15.5786 12.9217 14.8284 12.1716C14.0783 11.4214 13.0609 11 12 11C10.9391 11 9.92172 11.4214 9.17157 12.1716C8.42143 12.9217 8 13.9391 8 15C8 16.0609 8.42143 17.0783 9.17157 17.8284C9.92172 18.5786 10.9391 19 12 19ZM12 9C12.2652 9 12.5196 8.89464 12.7071 8.70711C12.8946 8.51957 13 8.26522 13 8C13 7.73478 12.8946 7.48043 12.7071 7.29289C12.5196 7.10536 12.2652 7 12 7C11.7348 7 11.4804 7.10536 11.2929 7.29289C11.1054 7.48043 11 7.73478 11 8C11 8.26522 11.1054 8.51957 11.2929 8.70711C11.4804 8.89464 11.7348 9 12 9ZM12 17C11.4696 17 10.9609 16.7893 10.5858 16.4142C10.2107 16.0391 10 15.5304 10 15C10 14.4696 10.2107 13.9609 10.5858 13.5858C10.9609 13.2107 11.4696 13 12 13C12.5304 13 13.0391 13.2107 13.4142 13.5858C13.7893 13.9609 14 14.4696 14 15C14 15.5304 13.7893 16.0391 13.4142 16.4142C13.0391 16.7893 12.5304 17 12 17Z" fill="black"/>
</svg>
