<svg width="24" height="24" viewBox="0 0 24 24" fill="none" xmlns="http://www.w3.org/2000/svg">
<path d="M8 2H16C16.7956 2 17.5587 2.31607 18.1213 2.87868C18.6839 3.44129 19 4.20435 19 5V19C19 19.7956 18.6839 20.5587 18.1213 21.1213C17.5587 21.6839 16.7956 22 16 22H8C7.20435 22 6.44129 21.6839 5.87868 21.1213C5.31607 20.5587 5 19.7956 5 19V5C5 4.20435 5.31607 3.44129 5.87868 2.87868C6.44129 2.31607 7.20435 2 8 2V2ZM8 4C7.73478 4 7.48043 4.10536 7.29289 4.29289C7.10536 4.48043 7 4.73478 7 5V19C7 19.2652 7.10536 19.5196 7.29289 19.7071C7.48043 19.8946 7.73478 20 8 20H16C16.2652 20 16.5196 19.8946 16.7071 19.7071C16.8946 19.5196 17 19.2652 17 19V5C17 4.73478 16.8946 4.48043 16.7071 4.29289C16.5196 4.10536 16.2652 4 16 4H8ZM12 19C10.9391 19 9.92172 18.5786 9.17157 17.8284C8.42143 17.0783 8 16.0609 8 15C8 13.9391 8.42143 12.9217 9.17157 12.1716C9.92172 11.4214 10.9391 11 12 11C13.0609 11 14.0783 11.4214 14.8284 12.1716C15.5786 12.9217 16 13.9391 16 15C16 16.0609 15.5786 17.0783 14.8284 17.8284C14.0783 18.5786 13.0609 19 12 19ZM12 17C12.5304 17 13.0391 16.7893 13.4142 16.4142C13.7893 16.0391 14 15.5304 14 15C14 14.4696 13.7893 13.9609 13.4142 13.5858C13.0391 13.2107 12.5304 13 12 13C11.4696 13 10.9609 13.2107 10.5858 13.5858C10.2107 13.9609 10 14.4696 10 15C10 15.5304 10.2107 16.0391 10.5858 16.4142C10.9609 16.7893 11.4696 17 12 17ZM12 9C11.7348 9 11.4804 8.89464 11.2929 8.70711C11.1054 8.51957 11 8.26522 11 8C11 7.73478 11.1054 7.48043 11.2929 7.29289C11.4804 7.10536 11.7348 7 12 7C12.2652 7 12.5196 7.10536 12.7071 7.29289C12.8946 7.48043 13 7.73478 13 8C13 8.26522 12.8946 8.51957 12.7071 8.70711C12.5196 8.89464 12.2652 9 12 9Z" fill="black"/>
</svg>
