<svg width="24" height="24" viewBox="0 0 24 24" fill="none" xmlns="http://www.w3.org/2000/svg">
<g clip-path="url(#clip0_201_32173)">
<path fill-rule="evenodd" clip-rule="evenodd" d="M9.49633 10.289H4.21118L3.34204 12.6684C3.05061 13.4672 2.08375 13.9061 1.18204 13.6455C0.287183 13.3884 -0.206532 12.5295 0.084897 11.729L3.59404 2.10838C4.1769 0.50724 6.11061 -0.36876 7.91061 0.148954C8.95633 0.450669 9.77575 1.17753 10.1135 2.10667L13.6243 11.7255C13.9158 12.5261 13.422 13.3832 12.522 13.6438C11.622 13.901 10.6552 13.4638 10.3638 12.665L9.49633 10.289ZM8.2449 6.86038L6.8529 3.04438L5.46261 6.86038H8.2449ZM12.5923 19.8598L21.0746 11.3707C21.3963 11.0495 21.8324 10.8692 22.287 10.8695C22.5121 10.8697 22.7349 10.9142 22.9428 11.0004C23.1507 11.0867 23.3396 11.2131 23.4986 11.3724C23.6577 11.5317 23.7838 11.7207 23.8698 11.9287C23.9558 12.1367 23.9999 12.3596 23.9998 12.5847C23.9996 12.8098 23.9551 13.0327 23.8688 13.2406C23.7826 13.4485 23.6562 13.6373 23.4969 13.7964L13.8043 23.4975C13.6453 23.6569 13.4563 23.7833 13.2484 23.8695C13.0404 23.9558 12.8175 24.0002 12.5923 24.0002C12.3672 24.0002 12.1442 23.9558 11.9363 23.8695C11.7283 23.7833 11.5394 23.6569 11.3803 23.4975L6.53404 18.6461C6.2376 18.3198 6.07813 17.8919 6.08871 17.4511C6.09928 17.0104 6.27908 16.5906 6.59082 16.2789C6.90256 15.9671 7.32232 15.7873 7.76307 15.7768C8.20381 15.7662 8.63171 15.9257 8.95804 16.2221L12.5923 19.8598Z" fill="black"/>
</g>
<defs>
<clipPath id="clip0_201_32173">
<rect width="24" height="24" fill="white"/>
</clipPath>
</defs>
</svg>
