<svg width="24" height="24" viewBox="0 0 24 24" fill="none" xmlns="http://www.w3.org/2000/svg">
<path d="M11.992 2C6.474 2 2 6.474 2 11.992C2 17.51 6.474 21.984 11.992 21.984C17.51 21.984 21.984 17.51 21.984 11.992C21.984 6.474 17.51 2 11.992 2ZM16.34 17.683C16.213 18.012 15.985 18.195 15.75 18.195C15.6218 18.1922 15.4993 18.1419 15.406 18.054C13.61 16.466 11.536 16.211 10.112 16.276C8.534 16.349 7.377 16.82 7.365 16.825C7.002 16.975 6.625 16.651 6.526 16.101C6.426 15.551 6.64 14.982 7.003 14.831C7.055 14.809 8.3 14.297 10.032 14.211C11.0153 14.1562 12.0009 14.2644 12.949 14.531C14.1146 14.8668 15.1898 15.4605 16.095 16.268C16.421 16.557 16.531 17.19 16.34 17.683ZM17.61 14.62C17.46 14.949 17.19 15.132 16.911 15.132C16.7636 15.1306 16.6207 15.0811 16.504 14.991C14.377 13.403 11.92 13.148 10.233 13.213C8.363 13.286 6.993 13.757 6.98 13.762C6.549 13.912 6.104 13.588 5.985 13.038C5.867 12.488 6.12 11.919 6.551 11.768C6.612 11.746 8.087 11.234 10.138 11.148C11.346 11.097 12.508 11.205 13.594 11.468C14.941 11.7881 16.2088 12.3791 17.32 13.205C17.706 13.493 17.836 14.127 17.61 14.62ZM18.392 11.624C18.2154 11.6236 18.0424 11.5745 17.892 11.482C12.835 8.404 6.276 10.234 6.21 10.252C5.682 10.405 5.135 10.082 4.99 9.531C4.844 8.98 5.155 8.411 5.683 8.259C5.759 8.237 7.568 7.725 10.083 7.639C11.5039 7.5835 12.9265 7.69087 14.323 7.959C16.009 8.292 17.546 8.876 18.893 9.697C19.367 9.985 19.526 10.618 19.25 11.111C19.1658 11.2653 19.0418 11.3942 18.8909 11.4844C18.74 11.5746 18.5678 11.6228 18.392 11.624Z" fill="black"/>
</svg>
