<svg width="24" height="24" viewBox="0 0 24 24" fill="none" xmlns="http://www.w3.org/2000/svg">
<path d="M7.98699 11.5129L11.591 7.88994C11.8054 7.67385 12.0605 7.50234 12.3416 7.3853C12.6226 7.26826 12.924 7.20801 13.2285 7.20801C13.5329 7.20801 13.8344 7.26826 14.1154 7.3853C14.3964 7.50234 14.6515 7.67385 14.866 7.88994C14.9693 8.00248 15.0253 8.15058 15.0221 8.30335C15.0189 8.45613 14.9569 8.60178 14.849 8.70994C14.7954 8.76397 14.7316 8.80685 14.6613 8.83612C14.591 8.86538 14.5156 8.88045 14.4395 8.88045C14.3634 8.88045 14.288 8.86538 14.2177 8.83612C14.1474 8.80685 14.0836 8.76397 14.03 8.70994L13.976 8.64694C13.7546 8.45827 13.4701 8.36022 13.1795 8.37246C12.8889 8.3847 12.6137 8.50632 12.409 8.71294L8.72499 12.4169C8.61292 12.5253 8.463 12.5858 8.30708 12.5854C8.15116 12.585 8.00153 12.5239 7.88999 12.4149C7.82871 12.3533 7.78197 12.2787 7.75318 12.1967C7.72438 12.1147 7.71427 12.0273 7.72356 11.9408C7.73286 11.8544 7.76133 11.7711 7.8069 11.6971C7.85247 11.6231 7.914 11.5602 7.98699 11.5129ZM16.077 11.5919C16.0159 11.5304 15.9417 11.4835 15.86 11.4545C15.7783 11.4256 15.6911 11.4155 15.6049 11.4249C15.5187 11.4343 15.4357 11.463 15.3622 11.5089C15.2886 11.5548 15.2263 11.6167 15.18 11.6899L11.59 15.2979C11.4827 15.4059 11.3552 15.4915 11.2147 15.5499C11.0743 15.6084 10.9236 15.6384 10.7715 15.6384C10.6193 15.6384 10.4687 15.6084 10.3282 15.5499C10.1878 15.4915 10.0602 15.4059 9.95299 15.2979L9.93699 15.2949C9.88335 15.2409 9.81956 15.198 9.74928 15.1688C9.67899 15.1395 9.60362 15.1244 9.52749 15.1244C9.45136 15.1244 9.37598 15.1395 9.3057 15.1688C9.23542 15.198 9.17162 15.2409 9.11799 15.2949C9.05683 15.3562 9.01007 15.4304 8.9811 15.512C8.95213 15.5936 8.94167 15.6806 8.95048 15.7668C8.95928 15.8529 8.98714 15.936 9.03202 16.0101C9.0769 16.0841 9.13769 16.1473 9.20999 16.1949C10.12 17.0289 11.53 17.0049 12.41 16.1209L16.077 12.4149C16.1854 12.3054 16.2462 12.1575 16.2462 12.0034C16.2462 11.8493 16.1854 11.7015 16.077 11.5919ZM10.443 13.9819C10.3698 14.029 10.3082 14.0919 10.2625 14.1659C10.2168 14.24 10.1883 14.3233 10.179 14.4098C10.1697 14.4963 10.1798 14.5837 10.2087 14.6658C10.2376 14.7478 10.2845 14.8224 10.346 14.8839C10.4575 14.9928 10.607 15.054 10.7629 15.0545C10.9187 15.0551 11.0687 14.995 11.181 14.8869L14.866 11.1819C14.9732 11.074 15.1008 10.9884 15.2412 10.93C15.3817 10.8715 15.5323 10.8414 15.6845 10.8414C15.8366 10.8414 15.9873 10.8715 16.1277 10.93C16.2682 10.9884 16.3957 11.074 16.503 11.1819C16.7206 11.4008 16.8427 11.6968 16.8427 12.0054C16.8427 12.314 16.7206 12.6101 16.503 12.8289L13.01 16.3579C13.1172 16.4658 13.2448 16.5515 13.3852 16.6099C13.5257 16.6684 13.6763 16.6984 13.8285 16.6984C13.9806 16.6984 14.1313 16.6684 14.2717 16.6099C14.4122 16.5515 14.5397 16.4658 14.647 16.3579L17.322 13.6519C17.7564 13.214 18.0001 12.6222 18.0001 12.0054C18.0001 11.3886 17.7564 10.7968 17.322 10.3589C17.1075 10.143 16.8523 9.97157 16.5713 9.85461C16.2903 9.73764 15.9889 9.67743 15.6845 9.67743C15.3801 9.67743 15.0787 9.73764 14.7977 9.85461C14.5166 9.97157 14.2615 10.143 14.047 10.3589L10.443 13.9819ZM9.95299 13.6519L13.621 9.94594C13.7296 9.83654 13.7906 9.68862 13.7906 9.53444C13.7906 9.38026 13.7296 9.23234 13.621 9.12294C13.56 9.06124 13.4858 9.01412 13.4041 8.9851C13.3223 8.95607 13.2351 8.94589 13.1488 8.95531C13.0626 8.96473 12.9796 8.99352 12.906 9.03951C12.8324 9.08551 12.7702 9.14753 12.724 9.22094L9.13399 12.8289C9.0268 12.937 8.8993 13.0227 8.75882 13.0812C8.61834 13.1397 8.46766 13.1699 8.31549 13.1699C8.16331 13.1699 8.01263 13.1397 7.87215 13.0812C7.73167 13.0227 7.60417 12.937 7.49699 12.8289C7.27941 12.6101 7.15728 12.314 7.15728 12.0054C7.15728 11.6968 7.27941 11.4008 7.49699 11.1819L10.991 7.65394C10.8838 7.54576 10.7562 7.45989 10.6156 7.40129C10.4751 7.34268 10.3243 7.31251 10.172 7.31251C10.0197 7.31251 9.8689 7.34268 9.72833 7.40129C9.58775 7.45989 9.46019 7.54576 9.35299 7.65394L6.67799 10.3589C6.24338 10.7967 5.99948 11.3886 5.99948 12.0054C5.99948 12.6223 6.24338 13.2142 6.67799 13.6519C7.58299 14.5619 9.04899 14.5619 9.95299 13.6519Z" fill="black"/>
<path d="M6 4C5.46957 4 4.96086 4.21071 4.58579 4.58579C4.21071 4.96086 4 5.46957 4 6V18C4 18.5304 4.21071 19.0391 4.58579 19.4142C4.96086 19.7893 5.46957 20 6 20H18C18.5304 20 19.0391 19.7893 19.4142 19.4142C19.7893 19.0391 20 18.5304 20 18V6C20 5.46957 19.7893 4.96086 19.4142 4.58579C19.0391 4.21071 18.5304 4 18 4H6ZM6 2H18C19.0609 2 20.0783 2.42143 20.8284 3.17157C21.5786 3.92172 22 4.93913 22 6V18C22 19.0609 21.5786 20.0783 20.8284 20.8284C20.0783 21.5786 19.0609 22 18 22H6C4.93913 22 3.92172 21.5786 3.17157 20.8284C2.42143 20.0783 2 19.0609 2 18V6C2 4.93913 2.42143 3.92172 3.17157 3.17157C3.92172 2.42143 4.93913 2 6 2V2Z" fill="black"/>
</svg>
