<svg width="24" height="24" viewBox="0 0 24 24" fill="none" xmlns="http://www.w3.org/2000/svg">
<path d="M5.305 11.16L11.3 5.13396C11.6567 4.77455 12.081 4.4893 12.5484 4.29464C13.0158 4.09998 13.5172 3.99976 14.0235 3.99976C14.5298 3.99976 15.0312 4.09998 15.4986 4.29464C15.966 4.4893 16.3903 4.77455 16.747 5.13396C16.9193 5.32112 17.0126 5.56756 17.0076 5.82188C17.0025 6.0762 16.8995 6.31875 16.72 6.49896C16.6308 6.58903 16.5247 6.66053 16.4077 6.70932C16.2907 6.75812 16.1652 6.78324 16.0385 6.78324C15.9118 6.78324 15.7863 6.75812 15.6693 6.70932C15.5523 6.66053 15.4462 6.58903 15.357 6.49896L15.267 6.39396C14.8988 6.08033 14.4257 5.91739 13.9424 5.93779C13.4592 5.95819 13.0015 6.16041 12.661 6.50396L6.533 12.664C6.13 13.038 5.52 13.038 5.145 12.66C5.04305 12.5575 4.96528 12.4335 4.91735 12.2971C4.86943 12.1607 4.85257 12.0153 4.86799 11.8716C4.88342 11.7278 4.93075 11.5894 5.00653 11.4662C5.08231 11.3431 5.18462 11.2385 5.306 11.16H5.305ZM18.761 11.291C18.6594 11.1885 18.5359 11.1103 18.3999 11.0621C18.2638 11.0139 18.1187 10.997 17.9752 11.0127C17.8317 11.0283 17.6937 11.0761 17.5712 11.1525C17.4488 11.2289 17.3451 11.332 17.268 11.454L11.3 17.456C11.1216 17.6356 10.9093 17.7781 10.6756 17.8753C10.4419 17.9726 10.1912 18.0227 9.938 18.0227C9.68482 18.0227 9.43415 17.9726 9.2004 17.8753C8.96665 17.7781 8.75445 17.6356 8.576 17.456L8.549 17.451C8.45978 17.3612 8.35367 17.2899 8.2368 17.2413C8.11993 17.1926 7.99459 17.1676 7.868 17.1676C7.74141 17.1676 7.61607 17.1926 7.4992 17.2413C7.38232 17.2899 7.27622 17.3612 7.187 17.451C7.08544 17.553 7.00784 17.6763 6.95979 17.8119C6.91175 17.9476 6.89447 18.0923 6.90921 18.2355C6.92395 18.3787 6.97034 18.5168 7.04501 18.6398C7.11969 18.7629 7.22079 18.8678 7.341 18.947C8.07172 19.618 9.03392 19.9801 10.0258 19.9572C11.0176 19.9342 11.9621 19.5281 12.661 18.824L18.762 12.66C18.9426 12.4779 19.0439 12.2319 19.0439 11.9755C19.0439 11.719 18.9426 11.473 18.762 11.291H18.761ZM9.391 15.267C9.26947 15.3454 9.16701 15.45 9.09113 15.5731C9.01524 15.6962 8.96784 15.8347 8.95241 15.9785C8.93697 16.1223 8.95389 16.2678 9.00192 16.4042C9.04995 16.5406 9.12788 16.6645 9.23 16.767C9.605 17.144 10.214 17.144 10.618 16.771L16.746 10.61C16.9244 10.4304 17.1365 10.2879 17.3701 10.1906C17.6038 10.0934 17.8544 10.0433 18.1075 10.0433C18.3606 10.0433 18.6112 10.0934 18.8449 10.1906C19.0785 10.2879 19.2906 10.4304 19.469 10.61C19.8306 10.9738 20.0336 11.466 20.0336 11.979C20.0336 12.492 19.8306 12.9841 19.469 13.348L13.659 19.218C13.8374 19.3974 14.0496 19.5398 14.2832 19.637C14.5169 19.7342 14.7674 19.7842 15.0205 19.7842C15.2736 19.7842 15.5241 19.7342 15.7578 19.637C15.9914 19.5398 16.2036 19.3974 16.382 19.218L20.832 14.718C21.5546 13.9897 21.9601 13.0054 21.9601 11.9795C21.9601 10.9535 21.5546 9.96921 20.832 9.24096C20.4751 8.88176 20.0507 8.5967 19.5832 8.40218C19.1157 8.20765 18.6144 8.10751 18.108 8.10751C17.6016 8.10751 17.1003 8.20765 16.6328 8.40218C16.1653 8.5967 15.7409 8.88176 15.384 9.24096L9.39 15.267H9.391ZM8.575 14.717L14.675 8.55296C14.8558 8.37103 14.9573 8.12496 14.9573 7.86846C14.9573 7.61196 14.8558 7.36588 14.675 7.18396C14.5735 7.0815 14.4501 7.00327 14.3141 6.95509C14.1782 6.90691 14.0331 6.89003 13.8897 6.90569C13.7463 6.92136 13.6083 6.96917 13.4859 7.04557C13.3636 7.12197 13.26 7.22499 13.183 7.34696L7.213 13.35C7.03471 13.5296 6.82261 13.6723 6.58893 13.7696C6.35526 13.8669 6.10463 13.917 5.8515 13.917C5.59837 13.917 5.34774 13.8669 5.11407 13.7696C4.88039 13.6723 4.66829 13.5296 4.49 13.35C4.12806 12.9861 3.92489 12.4937 3.92489 11.9805C3.92489 11.4672 4.12806 10.9748 4.49 10.611L10.301 4.74196C10.1227 4.56212 9.91053 4.41938 9.67676 4.32196C9.443 4.22455 9.19225 4.17439 8.939 4.17439C8.68575 4.17439 8.435 4.22455 8.20124 4.32196C7.96747 4.41938 7.75531 4.56212 7.577 4.74196L3.128 9.24196C2.40577 9.97 2.0005 10.954 2.0005 11.9795C2.0005 13.005 2.40577 13.9889 3.128 14.717C3.4846 15.0765 3.90886 15.3618 4.3763 15.5566C4.84374 15.7513 5.34512 15.8516 5.8515 15.8516C6.35788 15.8516 6.85925 15.7513 7.3267 15.5566C7.79414 15.3618 8.2184 15.0765 8.575 14.717Z" fill="black"/>
</svg>
