<svg width="24" height="24" viewBox="0 0 24 24" fill="none" xmlns="http://www.w3.org/2000/svg">
<path d="M17.492 20.136V14.864H19.157V21.886H4.13V14.864H5.795V20.136H17.492Z" fill="black"/>
<path d="M7.632 14.364L15.805 16.159L16.151 14.432L7.978 12.636L7.632 14.364ZM8.714 10.273L16.281 13.977L16.973 12.387L9.405 8.65896L8.714 10.273ZM10.811 6.36296L17.232 11.977L18.292 10.637L11.87 5.02196L10.81 6.36196L10.811 6.36296ZM14.962 2.20596L13.622 3.24996L18.595 10.295L19.935 9.24996L14.962 2.20496V2.20596ZM7.46 18.364H15.806V16.614H7.46V18.364Z" fill="black"/>
</svg>
