<svg width="24" height="24" viewBox="0 0 24 24" fill="none" xmlns="http://www.w3.org/2000/svg">
<path d="M14.746 16.068V13.432H15.578V16.943H8.065V13.432H8.897V16.068H14.746Z" fill="black"/>
<path d="M9.816 13.1821L13.903 14.0801L14.076 13.2161L9.989 12.3181L9.816 13.1821ZM10.356 11.1361L14.141 12.9891L14.486 12.1931L10.703 10.3301L10.357 11.1361H10.356ZM11.406 9.18205L14.616 11.9891L15.146 11.3191L11.936 8.51105L11.406 9.18105V9.18205ZM13.481 7.10205L12.811 7.62505L15.297 11.1481L15.967 10.6251L13.481 7.10205ZM9.73 15.1821H13.903V14.3071H9.73V15.1821Z" fill="black"/>
<path d="M6 4C5.46957 4 4.96086 4.21071 4.58579 4.58579C4.21071 4.96086 4 5.46957 4 6V18C4 18.5304 4.21071 19.0391 4.58579 19.4142C4.96086 19.7893 5.46957 20 6 20H18C18.5304 20 19.0391 19.7893 19.4142 19.4142C19.7893 19.0391 20 18.5304 20 18V6C20 5.46957 19.7893 4.96086 19.4142 4.58579C19.0391 4.21071 18.5304 4 18 4H6ZM6 2H18C19.0609 2 20.0783 2.42143 20.8284 3.17157C21.5786 3.92172 22 4.93913 22 6V18C22 19.0609 21.5786 20.0783 20.8284 20.8284C20.0783 21.5786 19.0609 22 18 22H6C4.93913 22 3.92172 21.5786 3.17157 20.8284C2.42143 20.0783 2 19.0609 2 18V6C2 4.93913 2.42143 3.92172 3.17157 3.17157C3.92172 2.42143 4.93913 2 6 2V2Z" fill="black"/>
</svg>
