<svg width="24" height="24" viewBox="0 0 24 24" fill="none" xmlns="http://www.w3.org/2000/svg">
<path d="M20 20V18H4V20H20ZM9 16V11C8.16047 10.3704 7.54033 9.49252 7.22743 8.49084C6.91453 7.48916 6.92473 6.41442 7.25658 5.41886C7.58844 4.4233 8.22512 3.55739 9.07645 2.94379C9.92778 2.33019 10.9506 2 12 2C13.0494 2 14.0722 2.33019 14.9236 2.94379C15.7749 3.55739 16.4116 4.4233 16.7434 5.41886C17.0753 6.41442 17.0855 7.48916 16.7726 8.49084C16.4597 9.49252 15.8395 10.3704 15 11V16H20C20.5304 16 21.0391 16.2107 21.4142 16.5858C21.7893 16.9609 22 17.4696 22 18V22H2V18C2 17.4696 2.21071 16.9609 2.58579 16.5858C2.96086 16.2107 3.46957 16 4 16H9ZM13 16V10.001L13.799 9.401C14.303 9.02336 14.6753 8.4967 14.8633 7.89565C15.0512 7.2946 15.0453 6.64964 14.8462 6.05216C14.6472 5.45468 14.2652 4.93498 13.7544 4.56671C13.2435 4.19843 12.6298 4.00025 12 4.00025C11.3702 4.00025 10.7565 4.19843 10.2456 4.56671C9.73477 4.93498 9.35277 5.45468 9.15375 6.05216C8.95473 6.64964 8.94878 7.2946 9.13674 7.89565C9.3247 8.4967 9.69704 9.02336 10.201 9.401L11 10.001V16H13Z" fill="black"/>
</svg>
