<svg width="24" height="24" viewBox="0 0 24 24" fill="none" xmlns="http://www.w3.org/2000/svg">
<path d="M10.657 10.435H8.15C8.05024 10.1317 7.9996 9.81432 8 9.495V8.998C8 8.07027 8.36854 7.18054 9.02454 6.52454C9.34936 6.19972 9.73498 5.94206 10.1594 5.76627C10.5838 5.59048 11.0386 5.5 11.498 5.5H13C13.7956 5.5 14.5587 5.81607 15.1213 6.37868C15.6839 6.94129 16 7.70435 16 8.5C16 8.76522 15.8946 9.01957 15.7071 9.20711C15.5196 9.39464 15.2652 9.5 15 9.5C14.7348 9.5 14.4804 9.39464 14.2929 9.20711C14.1054 9.01957 14 8.76522 14 8.5C14 8.23478 13.8946 7.98043 13.7071 7.79289C13.5196 7.60536 13.2652 7.5 13 7.5H11.498C10.67 7.5 10 8.17 10 8.998V9.495C9.99986 9.70015 10.0628 9.90039 10.1804 10.0685C10.2979 10.2367 10.4643 10.3646 10.657 10.435ZM15.843 12.535C15.945 12.836 16 13.159 16 13.495V14.023C16 14.9587 15.6283 15.856 14.9667 16.5177C14.305 17.1793 13.4077 17.551 12.472 17.551H11C10.2044 17.551 9.44129 17.2349 8.87868 16.6723C8.31607 16.1097 8 15.3466 8 14.551V14.5C8 14.2348 8.10536 13.9804 8.29289 13.7929C8.48043 13.6054 8.73478 13.5 9 13.5C9.26522 13.5 9.51957 13.6054 9.70711 13.7929C9.89464 13.9804 10 14.2348 10 14.5V14.55C10 14.8152 10.1054 15.0696 10.2929 15.2571C10.4804 15.4446 10.7348 15.55 11 15.55H12.472C13.316 15.55 14 14.867 14 14.023V13.495C14 13.2786 13.9298 13.0681 13.8 12.895C13.6702 12.7219 13.4877 12.5956 13.28 12.535H15.843ZM7.5 11.01H16.5C16.6326 11.01 16.7598 11.0627 16.8536 11.1564C16.9473 11.2502 17 11.3774 17 11.51C17 11.6426 16.9473 11.7698 16.8536 11.8636C16.7598 11.9573 16.6326 12.01 16.5 12.01H7.5C7.36739 12.01 7.24021 11.9573 7.14645 11.8636C7.05268 11.7698 7 11.6426 7 11.51C7 11.3774 7.05268 11.2502 7.14645 11.1564C7.24021 11.0627 7.36739 11.01 7.5 11.01Z" fill="black"/>
</svg>
