<svg width="24" height="24" viewBox="0 0 24 24" fill="none" xmlns="http://www.w3.org/2000/svg">
<path d="M15.388 12.155V13.29C15.388 13.672 15.087 13.997 14.719 13.99C14.5436 13.9833 14.3778 13.9081 14.257 13.7807C14.1363 13.6532 14.0703 13.4836 14.073 13.308V12.214C14.0737 12.1831 14.0669 12.1525 14.0531 12.1248C14.0393 12.0971 14.019 12.0732 13.9938 12.0552C13.9687 12.0371 13.9396 12.0255 13.9089 12.0213C13.8783 12.0171 13.8471 12.0204 13.818 12.031L13.238 12.253C13.1948 12.2697 13.1469 12.2694 13.104 12.252L12.758 12.11C12.7289 12.0988 12.6974 12.095 12.6664 12.0989C12.6355 12.1027 12.6059 12.1142 12.5804 12.1322C12.5549 12.1502 12.5342 12.1742 12.5202 12.202C12.5062 12.2299 12.4992 12.2608 12.5 12.292V13.272C12.5 14.543 13.472 15.603 14.696 15.622C15.941 15.642 16.961 14.596 16.961 13.308V12.155C16.9618 12.109 16.9444 12.0646 16.9125 12.0315C16.8807 11.9983 16.837 11.9791 16.791 11.978H15.559C15.5362 11.9784 15.5136 11.9833 15.4926 11.9924C15.4717 12.0015 15.4527 12.0147 15.4368 12.0311C15.421 12.0475 15.4085 12.0669 15.4001 12.0882C15.3917 12.1095 15.3876 12.1322 15.388 12.155Z" fill="black"/>
<path d="M12.54 10.208V10.75C12.54 10.83 12.587 10.903 12.659 10.933L13.155 11.136C13.1982 11.1536 13.2465 11.154 13.29 11.137L13.989 10.869C14.0257 10.8543 14.057 10.8289 14.079 10.796C14.1009 10.7632 14.1124 10.7245 14.112 10.685V10.225C14.112 9.022 13.192 8.019 12.032 8C10.853 7.982 9.888 8.972 9.888 10.192V13.339C9.888 13.721 9.587 14.046 9.219 14.039C9.04358 14.0322 8.87777 13.9571 8.75704 13.8296C8.63632 13.7022 8.57026 13.5325 8.573 13.357V12.204C8.57381 12.158 8.55638 12.1136 8.52452 12.0804C8.49267 12.0473 8.44898 12.028 8.403 12.027H7.17C7.14715 12.0274 7.1246 12.0323 7.10364 12.0414C7.08268 12.0505 7.06372 12.0636 7.04784 12.0801C7.03196 12.0965 7.01947 12.1159 7.01109 12.1372C7.00271 12.1584 6.99861 12.1811 6.999 12.204V13.322C6.999 14.592 7.971 15.652 9.195 15.672C10.44 15.692 11.46 14.645 11.46 13.357V10.192C11.4586 10.1176 11.4724 10.0436 11.5004 9.97467C11.5284 9.9057 11.5702 9.84314 11.6231 9.79079C11.676 9.73843 11.739 9.69736 11.8083 9.67006C11.8775 9.64277 11.9516 9.62982 12.026 9.632C12.316 9.648 12.538 9.907 12.538 10.208H12.54Z" fill="black"/>
<path d="M6 4C5.46957 4 4.96086 4.21071 4.58579 4.58579C4.21071 4.96086 4 5.46957 4 6V18C4 18.5304 4.21071 19.0391 4.58579 19.4142C4.96086 19.7893 5.46957 20 6 20H18C18.5304 20 19.0391 19.7893 19.4142 19.4142C19.7893 19.0391 20 18.5304 20 18V6C20 5.46957 19.7893 4.96086 19.4142 4.58579C19.0391 4.21071 18.5304 4 18 4H6ZM6 2H18C19.0609 2 20.0783 2.42143 20.8284 3.17157C21.5786 3.92172 22 4.93913 22 6V18C22 19.0609 21.5786 20.0783 20.8284 20.8284C20.0783 21.5786 19.0609 22 18 22H6C4.93913 22 3.92172 21.5786 3.17157 20.8284C2.42143 20.0783 2 19.0609 2 18V6C2 4.93913 2.42143 3.92172 3.17157 3.17157C3.92172 2.42143 4.93913 2 6 2V2Z" fill="black"/>
</svg>
