<svg width="24" height="24" viewBox="0 0 24 24" fill="none" xmlns="http://www.w3.org/2000/svg">
<g clip-path="url(#clip0_201_32235)">
<path d="M10.2076 7.71499L15.0608 12.5253C15.22 12.6825 15.3463 12.8698 15.4326 13.0762C15.5189 13.2826 15.5633 13.5041 15.5633 13.7278C15.5633 13.9516 15.5189 14.1731 15.4326 14.3795C15.3463 14.5859 15.22 14.7732 15.0608 14.9304C14.7377 15.2494 14.302 15.4283 13.8479 15.4283C13.3939 15.4283 12.9582 15.2494 12.6351 14.9304L7.78365 10.1201L2.92708 14.9321C2.60399 15.2511 2.16825 15.43 1.71422 15.43C1.2602 15.43 0.824449 15.2511 0.501364 14.9321C0.34219 14.7749 0.215811 14.5877 0.129556 14.3812C0.0433013 14.1748 -0.00111389 13.9533 -0.00111389 13.7296C-0.00111389 13.5058 0.0433013 13.2843 0.129556 13.0779C0.215811 12.8715 0.34219 12.6842 0.501364 12.527L5.35451 7.71499L0.504792 2.90471C0.345618 2.74749 0.21924 2.56023 0.132985 2.3538C0.0467299 2.14736 0.00231468 1.92586 0.00231468 1.70213C0.00231468 1.47841 0.0467299 1.2569 0.132985 1.05047C0.21924 0.844038 0.345618 0.656782 0.504792 0.499563C0.827878 0.180573 1.26362 0.00170666 1.71765 0.00170666C2.17167 0.00170666 2.60742 0.180573 2.93051 0.499563L7.78365 5.30985L12.6351 0.497848C12.9582 0.17834 13.3943 -0.000854492 13.8488 -0.000854492C14.3032 -0.000854492 14.7393 0.17834 15.0625 0.497848C15.2217 0.655068 15.3481 0.842323 15.4343 1.04876C15.5206 1.25519 15.565 1.47669 15.565 1.70042C15.565 1.92415 15.5206 2.14565 15.4343 2.35208C15.3481 2.55852 15.2217 2.74577 15.0625 2.90299L10.2094 7.71499H10.2076ZM24.0008 21.1756V24.0007H15.5631V22.2624L15.7362 21.8407L18.8236 18.5613C19.5659 17.8156 20.1951 17.2413 20.4179 16.8281C20.6322 16.4338 20.7334 16.0961 20.7334 15.8218C20.739 15.7182 20.7223 15.6145 20.6844 15.5178C20.6466 15.4211 20.5884 15.3336 20.5139 15.2613C20.4327 15.1854 20.3368 15.1269 20.2322 15.0895C20.1275 15.052 20.0163 15.0364 19.9054 15.0436C19.7895 15.0396 19.6743 15.0619 19.5683 15.1088C19.4623 15.1557 19.3683 15.226 19.2934 15.3144C19.1116 15.515 19.0071 15.8081 18.9934 16.2144L18.9728 16.7938H15.8185L15.8476 16.1664C15.9059 14.9064 16.3174 13.8864 17.0871 13.1321C17.8585 12.3778 18.8528 12.0007 20.0339 12.0007C20.7659 12.0007 21.4259 12.1567 22.0036 12.4721C22.5865 12.791 23.0528 13.2521 23.3991 13.8436C23.7419 14.4316 23.9151 15.0436 23.9151 15.6658C23.9151 16.379 23.5191 17.1213 23.1265 17.9064C22.7442 18.6778 22.2042 19.4081 21.2888 20.5721L21.0865 20.783L20.6494 21.1756H24.0008Z" fill="black"/>
</g>
<defs>
<clipPath id="clip0_201_32235">
<rect width="24" height="24" fill="white"/>
</clipPath>
</defs>
</svg>
