<svg width="24" height="24" viewBox="0 0 24 24" fill="none" xmlns="http://www.w3.org/2000/svg">
<g clip-path="url(#clip0_201_32237)">
<path d="M15.5992 0.000371335C16.8587 0.00115506 18.102 0.40656 19.237 1.18658C20.372 1.96661 21.3697 3.10128 22.1563 4.50662C22.9428 5.91197 23.4981 7.55201 23.7809 9.30536C24.0638 11.0587 24.067 12.8805 23.7904 14.6359C23.5138 16.3913 22.9644 18.0353 22.1828 19.4464C21.4013 20.8574 20.4076 21.9993 19.2754 22.7876C18.1432 23.5758 16.9014 23.9903 15.6419 24.0002C14.3824 24.0101 13.1374 23.6153 11.9992 22.8449C10.7188 23.7111 9.30598 24.1006 7.89199 23.9772C6.478 23.8538 5.10882 23.2216 3.9118 22.1393C2.71478 21.057 1.7288 19.5598 1.04558 17.787C0.362362 16.0141 0.00408936 14.0233 0.00408936 11.9995C0.00408936 9.97577 0.362362 7.98489 1.04558 6.21206C1.7288 4.43923 2.71478 2.94204 3.9118 1.85974C5.10882 0.77745 6.478 0.145212 7.89199 0.021835C9.30598 -0.101542 10.7188 0.287951 11.9992 1.15409C13.124 0.391113 14.354 -0.00306681 15.5992 0.000371335ZM8.39917 3.42894C7.56099 3.43063 6.73236 3.68317 5.96668 4.1703C5.201 4.65742 4.51526 5.36832 3.95365 6.25718C3.39204 7.14604 2.96702 8.19313 2.70599 9.33098C2.44496 10.4688 2.3537 11.6722 2.43811 12.8635C2.52251 14.0548 2.7807 15.2076 3.19603 16.2477C3.61136 17.2877 4.17462 18.1919 4.84952 18.902C5.52441 19.6121 6.29595 20.1123 7.11443 20.3703C7.93291 20.6284 8.78015 20.6386 9.60156 20.4004C8.05895 18.1604 7.19588 15.1427 7.19917 12.0004C7.19917 8.73123 8.11477 5.76551 9.59916 3.60037C9.20424 3.48552 8.80219 3.42809 8.39917 3.42894ZM15.5992 3.42894C14.0079 3.42894 12.4817 4.332 11.3565 5.93946C10.2313 7.54691 9.59916 9.72709 9.59916 12.0004C9.59916 14.2737 10.2313 16.4538 11.3565 18.0613C12.4817 19.6687 14.0079 20.5718 15.5992 20.5718C17.1905 20.5718 18.7166 19.6687 19.8418 18.0613C20.967 16.4538 21.5992 14.2737 21.5992 12.0004C21.5992 9.72709 20.967 7.54691 19.8418 5.93946C18.7166 4.332 17.1905 3.42894 15.5992 3.42894Z" fill="black"/>
</g>
<defs>
<clipPath id="clip0_201_32237">
<rect width="24" height="24" fill="white"/>
</clipPath>
</defs>
</svg>
