<svg width="24" height="24" viewBox="0 0 24 24" fill="none" xmlns="http://www.w3.org/2000/svg">
<path d="M12 17.0649C10.6739 17.0649 9.40215 16.5382 8.46447 15.6005C7.52678 14.6628 7 13.391 7 12.0649C7 10.7389 7.52678 9.46709 8.46447 8.52941C9.40215 7.59173 10.6739 7.06494 12 7.06494C13.3261 7.06494 14.5979 7.59173 15.5355 8.52941C16.4732 9.46709 17 10.7389 17 12.0649C17 13.391 16.4732 14.6628 15.5355 15.6005C14.5979 16.5382 13.3261 17.0649 12 17.0649ZM12 2.06494C12.2652 2.06494 12.5196 2.1703 12.7071 2.35783C12.8946 2.54537 13 2.79972 13 3.06494V5.06494C13 5.33016 12.8946 5.58451 12.7071 5.77205C12.5196 5.95958 12.2652 6.06494 12 6.06494C11.7348 6.06494 11.4804 5.95958 11.2929 5.77205C11.1054 5.58451 11 5.33016 11 5.06494V3.06494C11 2.79972 11.1054 2.54537 11.2929 2.35783C11.4804 2.1703 11.7348 2.06494 12 2.06494ZM12 18.0649C12.2652 18.0649 12.5196 18.1703 12.7071 18.3578C12.8946 18.5454 13 18.7997 13 19.0649V21.0649C13 21.3302 12.8946 21.5845 12.7071 21.772C12.5196 21.9596 12.2652 22.0649 12 22.0649C11.7348 22.0649 11.4804 21.9596 11.2929 21.772C11.1054 21.5845 11 21.3302 11 21.0649V19.0649C11 18.7997 11.1054 18.5454 11.2929 18.3578C11.4804 18.1703 11.7348 18.0649 12 18.0649ZM3 11.0649H5C5.26522 11.0649 5.51957 11.1703 5.70711 11.3578C5.89464 11.5454 6 11.7997 6 12.0649C6 12.3302 5.89464 12.5845 5.70711 12.772C5.51957 12.9596 5.26522 13.0649 5 13.0649H3C2.73478 13.0649 2.48043 12.9596 2.29289 12.772C2.10536 12.5845 2 12.3302 2 12.0649C2 11.7997 2.10536 11.5454 2.29289 11.3578C2.48043 11.1703 2.73478 11.0649 3 11.0649ZM19 11.0649H21C21.2652 11.0649 21.5196 11.1703 21.7071 11.3578C21.8946 11.5454 22 11.7997 22 12.0649C22 12.3302 21.8946 12.5845 21.7071 12.772C21.5196 12.9596 21.2652 13.0649 21 13.0649H19C18.7348 13.0649 18.4804 12.9596 18.2929 12.772C18.1054 12.5845 18 12.3302 18 12.0649C18 11.7997 18.1054 11.5454 18.2929 11.3578C18.4804 11.1703 18.7348 11.0649 19 11.0649ZM19.071 4.99394C19.2585 5.18147 19.3638 5.43578 19.3638 5.70094C19.3638 5.96611 19.2585 6.22041 19.071 6.40794L17.657 7.82194C17.5648 7.91745 17.4544 7.99363 17.3324 8.04604C17.2104 8.09845 17.0792 8.12604 16.9464 8.12719C16.8136 8.12835 16.6819 8.10304 16.559 8.05276C16.4361 8.00248 16.3245 7.92823 16.2306 7.83434C16.1367 7.74044 16.0625 7.62879 16.0122 7.5059C15.9619 7.383 15.9366 7.25132 15.9377 7.11854C15.9389 6.98576 15.9665 6.85454 16.0189 6.73254C16.0713 6.61053 16.1475 6.50019 16.243 6.40794L17.657 4.99394C17.8445 4.80647 18.0988 4.70115 18.364 4.70115C18.6292 4.70115 18.8835 4.80647 19.071 4.99394ZM7.757 16.3079C7.94447 16.4955 8.04979 16.7498 8.04979 17.0149C8.04979 17.2801 7.94447 17.5344 7.757 17.7219L6.343 19.1359C6.25075 19.2315 6.14041 19.3076 6.0184 19.36C5.8964 19.4125 5.76518 19.44 5.6324 19.4412C5.49962 19.4423 5.36794 19.417 5.24505 19.3668C5.12215 19.3165 5.0105 19.2422 4.9166 19.1483C4.82271 19.0544 4.74846 18.9428 4.69818 18.8199C4.6479 18.697 4.6226 18.5653 4.62375 18.4325C4.6249 18.2998 4.65249 18.1685 4.7049 18.0465C4.75731 17.9245 4.83349 17.8142 4.929 17.7219L6.343 16.3079C6.53053 16.1205 6.78484 16.0152 7.05 16.0152C7.31516 16.0152 7.56947 16.1205 7.757 16.3079ZM6.343 4.99394L7.757 6.40794C7.93916 6.59654 8.03995 6.84915 8.03767 7.11134C8.0354 7.37354 7.93023 7.62435 7.74482 7.80976C7.55941 7.99517 7.3086 8.10034 7.0464 8.10262C6.7842 8.10489 6.5316 8.0041 6.343 7.82194L4.93 6.40794C4.74784 6.21934 4.64705 5.96674 4.64933 5.70454C4.6516 5.44234 4.75677 5.19153 4.94218 5.00612C5.12759 4.82071 5.3784 4.71555 5.6406 4.71327C5.9028 4.71099 6.1554 4.81178 6.344 4.99394H6.343ZM17.657 16.3079L19.071 17.7219C19.2532 17.9105 19.354 18.1631 19.3517 18.4253C19.3494 18.6875 19.2442 18.9384 19.0588 19.1238C18.8734 19.3092 18.6226 19.4143 18.3604 19.4166C18.0982 19.4189 17.8456 19.3181 17.657 19.1359L16.243 17.7219C16.1475 17.6297 16.0713 17.5194 16.0189 17.3973C15.9665 17.2753 15.9389 17.1441 15.9377 17.0113C15.9366 16.8786 15.9619 16.7469 16.0122 16.624C16.0625 16.5011 16.1367 16.3894 16.2306 16.2955C16.3245 16.2017 16.4361 16.1274 16.559 16.0771C16.6819 16.0268 16.8136 16.0015 16.9464 16.0027C17.0792 16.0038 17.2104 16.0314 17.3324 16.0838C17.4544 16.1362 17.5648 16.2124 17.657 16.3079Z" fill="black"/>
</svg>
