<svg width="24" height="24" viewBox="0 0 24 24" fill="none" xmlns="http://www.w3.org/2000/svg">
<g clip-path="url(#clip0_201_32243)">
<path d="M2.92807 9.06857L7.78293 13.8823L12.6344 9.06857C12.9575 8.74906 13.3936 8.56987 13.8481 8.56987C14.3025 8.56987 14.7386 8.74906 15.0618 9.06857C15.221 9.22579 15.3473 9.41305 15.4336 9.61948C15.5198 9.82591 15.5643 10.0474 15.5643 10.2711C15.5643 10.4949 15.5198 10.7164 15.4336 10.9228C15.3473 11.1292 15.221 11.3165 15.0618 11.4737L10.2086 16.2857L15.0601 21.096C15.2192 21.2532 15.3456 21.4405 15.4319 21.6469C15.5181 21.8533 15.5625 22.0748 15.5625 22.2986C15.5625 22.5223 15.5181 22.7438 15.4319 22.9502C15.3456 23.1567 15.2192 23.3439 15.0601 23.5011C14.737 23.8201 14.3012 23.999 13.8472 23.999C13.3932 23.999 12.9574 23.8201 12.6344 23.5011L7.78293 18.6909L2.92807 23.5011C2.60498 23.8201 2.16924 23.999 1.71521 23.999C1.26119 23.999 0.825441 23.8201 0.502356 23.5011C0.343182 23.3439 0.216803 23.1567 0.130548 22.9502C0.0442932 22.7438 -0.00012207 22.5223 -0.00012207 22.2986C-0.00012207 22.0748 0.0442932 21.8533 0.130548 21.6469C0.216803 21.4405 0.343182 21.2532 0.502356 21.096L5.35378 16.2857L0.50407 11.4754C0.344896 11.3182 0.218518 11.131 0.132262 10.9245C0.0460075 10.7181 0.00159222 10.4966 0.00159222 10.2729C0.00159222 10.0491 0.0460075 9.82763 0.132262 9.62119C0.218518 9.41476 0.344896 9.22751 0.50407 9.07029C0.827155 8.7513 1.2629 8.57243 1.71693 8.57243C2.17095 8.57243 2.6067 8.7513 2.92978 9.07029L2.92807 9.06857ZM20.0332 0C20.7652 0 21.4252 0.156 22.0029 0.471429C22.5858 0.790286 23.0521 1.25143 23.3984 1.84286C23.7412 2.43086 23.9144 3.04286 23.9144 3.66514C23.9144 4.37829 23.5184 5.12057 23.1258 5.90571C22.7435 6.67714 22.2035 7.40743 21.2881 8.57143L21.0858 8.78229L20.6486 9.17486H24.0001V12H15.5624V10.2617L15.7355 9.84L18.8229 6.56057C19.5652 5.81486 20.1944 5.24057 20.4172 4.82743C20.6315 4.43314 20.7326 4.09543 20.7326 3.82114C20.7382 3.71745 20.7215 3.61377 20.6837 3.51707C20.6458 3.42038 20.5877 3.33291 20.5132 3.26057C20.432 3.18467 20.3361 3.12619 20.2315 3.08875C20.1268 3.0513 20.0156 3.03569 19.9046 3.04286C19.7888 3.0389 19.6736 3.06121 19.5676 3.10812C19.4616 3.15502 19.3676 3.22531 19.2926 3.31371C19.1109 3.51429 19.0064 3.80743 18.9926 4.21371L18.9721 4.79314H15.8178L15.8469 4.16571C15.9052 2.90571 16.3166 1.88571 17.0864 1.13143C17.8578 0.377143 18.8521 0 20.0332 0V0Z" fill="black"/>
</g>
<defs>
<clipPath id="clip0_201_32243">
<rect width="24" height="24" fill="white"/>
</clipPath>
</defs>
</svg>
