<svg width="24" height="24" viewBox="0 0 24 24" fill="none" xmlns="http://www.w3.org/2000/svg">
<path d="M8.5 6H15.5C17.0913 6 18.6174 6.63214 19.7426 7.75736C20.8679 8.88258 21.5 10.4087 21.5 12C21.5 13.5913 20.8679 15.1174 19.7426 16.2426C18.6174 17.3679 17.0913 18 15.5 18H8.5C6.9087 18 5.38258 17.3679 4.25736 16.2426C3.13214 15.1174 2.5 13.5913 2.5 12C2.5 10.4087 3.13214 8.88258 4.25736 7.75736C5.38258 6.63214 6.9087 6 8.5 6V6ZM14.5 16C15.5609 16 16.5783 15.5786 17.3284 14.8284C18.0786 14.0783 18.5 13.0609 18.5 12C18.5 10.9391 18.0786 9.92172 17.3284 9.17157C16.5783 8.42143 15.5609 8 14.5 8C13.4391 8 12.4217 8.42143 11.6716 9.17157C10.9214 9.92172 10.5 10.9391 10.5 12C10.5 13.0609 10.9214 14.0783 11.6716 14.8284C12.4217 15.5786 13.4391 16 14.5 16ZM14.5 14C13.9696 14 13.4609 13.7893 13.0858 13.4142C12.7107 13.0391 12.5 12.5304 12.5 12C12.5 11.4696 12.7107 10.9609 13.0858 10.5858C13.4609 10.2107 13.9696 10 14.5 10C15.0304 10 15.5391 10.2107 15.9142 10.5858C16.2893 10.9609 16.5 11.4696 16.5 12C16.5 12.5304 16.2893 13.0391 15.9142 13.4142C15.5391 13.7893 15.0304 14 14.5 14Z" fill="black"/>
</svg>
