<svg width="24" height="24" viewBox="0 0 24 24" fill="none" xmlns="http://www.w3.org/2000/svg">
<path d="M9 7C7.67392 7 6.40215 7.52678 5.46447 8.46447C4.52678 9.40215 4 10.6739 4 12C4 13.3261 4.52678 14.5979 5.46447 15.5355C6.40215 16.4732 7.67392 17 9 17H15C16.3261 17 17.5979 16.4732 18.5355 15.5355C19.4732 14.5979 20 13.3261 20 12C20 10.6739 19.4732 9.40215 18.5355 8.46447C17.5979 7.52678 16.3261 7 15 7H9ZM9 5H15C16.8565 5 18.637 5.7375 19.9497 7.05025C21.2625 8.36301 22 10.1435 22 12C22 13.8565 21.2625 15.637 19.9497 16.9497C18.637 18.2625 16.8565 19 15 19H9C7.14348 19 5.36301 18.2625 4.05025 16.9497C2.7375 15.637 2 13.8565 2 12C2 10.1435 2.7375 8.36301 4.05025 7.05025C5.36301 5.7375 7.14348 5 9 5V5ZM9 16C7.93913 16 6.92172 15.5786 6.17157 14.8284C5.42143 14.0783 5 13.0609 5 12C5 10.9391 5.42143 9.92172 6.17157 9.17157C6.92172 8.42143 7.93913 8 9 8C10.0609 8 11.0783 8.42143 11.8284 9.17157C12.5786 9.92172 13 10.9391 13 12C13 13.0609 12.5786 14.0783 11.8284 14.8284C11.0783 15.5786 10.0609 16 9 16ZM9 14C9.53043 14 10.0391 13.7893 10.4142 13.4142C10.7893 13.0391 11 12.5304 11 12C11 11.4696 10.7893 10.9609 10.4142 10.5858C10.0391 10.2107 9.53043 10 9 10C8.46957 10 7.96086 10.2107 7.58579 10.5858C7.21071 10.9609 7 11.4696 7 12C7 12.5304 7.21071 13.0391 7.58579 13.4142C7.96086 13.7893 8.46957 14 9 14Z" fill="black"/>
</svg>
