<svg width="24" height="24" viewBox="0 0 24 24" fill="none" xmlns="http://www.w3.org/2000/svg">
<path d="M12.146 16.596C12.2415 16.6883 12.3177 16.7986 12.3701 16.9206C12.4225 17.0426 12.4501 17.1738 12.4513 17.3066C12.4524 17.4394 12.4271 17.5711 12.3768 17.694C12.3265 17.8169 12.2523 17.9285 12.1584 18.0224C12.0645 18.1163 11.9529 18.1906 11.83 18.2408C11.7071 18.2911 11.5754 18.3164 11.4426 18.3153C11.3098 18.3141 11.1786 18.2865 11.0566 18.2341C10.9346 18.1817 10.8242 18.1055 10.732 18.01L9.318 16.596L6.49 19.425C6.67751 19.6127 6.7828 19.8671 6.7827 20.1324C6.78261 20.3976 6.67714 20.652 6.4895 20.8395C6.30186 21.027 6.04742 21.1323 5.78215 21.1322C5.51688 21.1321 5.26251 21.0267 5.075 20.839L3.661 19.425C3.47336 19.2375 3.36789 18.9831 3.3678 18.7179C3.3677 18.4526 3.47299 18.1982 3.6605 18.0105C3.84801 17.8229 4.10238 17.7174 4.36765 17.7173C4.63292 17.7172 4.88736 17.8225 5.075 18.01L7.904 15.182L6.49 13.768C6.30784 13.5794 6.20705 13.3268 6.20933 13.0646C6.2116 12.8024 6.31677 12.5516 6.50218 12.3662C6.68759 12.1808 6.9384 12.0756 7.2006 12.0733C7.4628 12.0711 7.7154 12.1719 7.904 12.354L12.146 16.596ZM12.854 15.889L8.61 11.646L17.096 3.16101L20.632 3.86801L21.339 7.40401L12.854 15.889Z" fill="black"/>
</svg>
