<svg width="24" height="24" viewBox="0 0 24 24" fill="none" xmlns="http://www.w3.org/2000/svg">
<path d="M9.278 13.228L10.692 14.642L19.128 6.207L18.892 5.028L17.714 4.792L9.278 13.228ZM6.45 18.885C6.63216 19.0736 6.73296 19.3262 6.73068 19.5884C6.7284 19.8506 6.62323 20.1014 6.43782 20.2868C6.25241 20.4722 6.0016 20.5774 5.7394 20.5797C5.47721 20.5819 5.22461 20.4812 5.036 20.299L3.62 18.885C3.4325 18.6974 3.32721 18.4429 3.3273 18.1776C3.32739 17.9124 3.43286 17.658 3.6205 17.4705C3.80814 17.283 4.06259 17.1777 4.32786 17.1778C4.59313 17.1779 4.8475 17.2834 5.035 17.471L7.863 14.642L6.449 13.228C6.26685 13.0394 6.16605 12.7868 6.16833 12.5246C6.17061 12.2624 6.27578 12.0116 6.46118 11.8262C6.64659 11.6408 6.89741 11.5356 7.1596 11.5333C7.4218 11.531 7.6744 11.6318 7.863 11.814L17.056 2.62L20.592 3.327L21.299 6.863L12.107 16.055C12.2946 16.2426 12.4001 16.4971 12.4001 16.7625C12.4001 17.0279 12.2946 17.2824 12.107 17.47C11.9194 17.6576 11.6649 17.7631 11.3995 17.7631C11.1341 17.7631 10.8796 17.6576 10.692 17.47L9.278 16.055L6.45 18.884V18.885Z" fill="black"/>
</svg>
