<svg width="24" height="24" viewBox="0 0 24 24" fill="none" xmlns="http://www.w3.org/2000/svg">
<g clip-path="url(#clip0_201_32257)">
<path d="M21.6 6V7.5H13.2V3H4.8C4.16348 3 3.55303 3.31607 3.10294 3.87868C2.65286 4.44129 2.4 5.20435 2.4 6V18C2.4 18.7956 2.65286 19.5587 3.10294 20.1213C3.55303 20.6839 4.16348 21 4.8 21H19.2C19.8365 21 20.447 20.6839 20.8971 20.1213C21.3471 19.5587 21.6 18.7956 21.6 18V6ZM4.8 0H19.2C20.473 0 21.6939 0.632141 22.5941 1.75736C23.4943 2.88258 24 4.4087 24 6V18C24 19.5913 23.4943 21.1174 22.5941 22.2426C21.6939 23.3679 20.473 24 19.2 24H4.8C3.52696 24 2.30606 23.3679 1.40589 22.2426C0.505713 21.1174 0 19.5913 0 18V6C0 4.4087 0.505713 2.88258 1.40589 1.75736C2.30606 0.632141 3.52696 0 4.8 0V0Z" fill="black"/>
</g>
<defs>
<clipPath id="clip0_201_32257">
<rect width="24" height="24" fill="white"/>
</clipPath>
</defs>
</svg>
