<svg width="24" height="24" viewBox="0 0 24 24" fill="none" xmlns="http://www.w3.org/2000/svg">
<g clip-path="url(#clip0_201_32267)">
<path d="M3.42857 0H20.5714C21.4807 0 22.3528 0.361224 22.9958 1.00421C23.6388 1.64719 24 2.51926 24 3.42857V20.5714C24 21.4807 23.6388 22.3528 22.9958 22.9958C22.3528 23.6388 21.4807 24 20.5714 24H3.42857C2.51926 24 1.64719 23.6388 1.00421 22.9958C0.361224 22.3528 0 21.4807 0 20.5714V3.42857C0 2.51926 0.361224 1.64719 1.00421 1.00421C1.64719 0.361224 2.51926 0 3.42857 0V0ZM3.42857 6.85714V20.5714H20.5714V6.85714H3.42857ZM12 16.1383L9.576 18.5623C9.41786 18.726 9.2287 18.8566 9.01955 18.9465C8.8104 19.0363 8.58545 19.0836 8.35783 19.0856C8.13021 19.0875 7.90447 19.0442 7.69379 18.958C7.48311 18.8718 7.29171 18.7445 7.13075 18.5835C6.96979 18.4226 6.8425 18.2312 6.75631 18.0205C6.67011 17.8098 6.62674 17.5841 6.62871 17.3565C6.63069 17.1288 6.67798 16.9039 6.76783 16.6947C6.85767 16.4856 6.98827 16.2964 7.152 16.1383L9.576 13.7143L7.152 11.2903C6.98827 11.1321 6.85767 10.943 6.76783 10.7338C6.67798 10.5247 6.63069 10.2997 6.62871 10.0721C6.62674 9.84449 6.67011 9.61876 6.75631 9.40808C6.8425 9.1974 6.96979 9.006 7.13075 8.84504C7.29171 8.68408 7.48311 8.55679 7.69379 8.47059C7.90447 8.3844 8.13021 8.34102 8.35783 8.343C8.58545 8.34498 8.8104 8.39227 9.01955 8.48211C9.2287 8.57196 9.41786 8.70255 9.576 8.86629L12 11.2903L14.424 8.86629C14.5821 8.70255 14.7713 8.57196 14.9805 8.48211C15.1896 8.39227 15.4145 8.34498 15.6422 8.343C15.8698 8.34102 16.0955 8.3844 16.3062 8.47059C16.5169 8.55679 16.7083 8.68408 16.8692 8.84504C17.0302 9.006 17.1575 9.1974 17.2437 9.40808C17.3299 9.61876 17.3733 9.84449 17.3713 10.0721C17.3693 10.2997 17.322 10.5247 17.2322 10.7338C17.1423 10.943 17.0117 11.1321 16.848 11.2903L14.424 13.7143L16.848 16.1383C17.1603 16.4616 17.3331 16.8946 17.3292 17.3441C17.3253 17.7936 17.145 18.2236 16.8271 18.5414C16.5093 18.8592 16.0793 19.0395 15.6298 19.0434C15.1804 19.0473 14.7473 18.8746 14.424 18.5623L12 16.1383Z" fill="black"/>
</g>
<defs>
<clipPath id="clip0_201_32267">
<rect width="24" height="24" fill="white"/>
</clipPath>
</defs>
</svg>
