<svg width="24" height="24" viewBox="0 0 24 24" fill="none" xmlns="http://www.w3.org/2000/svg">
<g clip-path="url(#clip0_201_32275)">
<path d="M3.42857 10.2857V20.5714H5.14286C5.59751 20.5714 6.03355 20.752 6.35504 21.0735C6.67653 21.395 6.85714 21.8311 6.85714 22.2857C6.85714 22.7404 6.67653 23.1764 6.35504 23.4979C6.03355 23.8194 5.59751 24 5.14286 24H3.42857C2.51926 24 1.64719 23.6388 1.00421 22.9958C0.361224 22.3528 0 21.4807 0 20.5714V3.42857C0 2.51926 0.361224 1.64719 1.00421 1.00421C1.64719 0.361224 2.51926 0 3.42857 0L20.5714 0C21.4807 0 22.3528 0.361224 22.9958 1.00421C23.6388 1.64719 24 2.51926 24 3.42857V20.5714C24 21.4807 23.6388 22.3528 22.9958 22.9958C22.3528 23.6388 21.4807 24 20.5714 24H18.8571C18.4025 24 17.9665 23.8194 17.645 23.4979C17.3235 23.1764 17.1429 22.7404 17.1429 22.2857C17.1429 21.8311 17.3235 21.395 17.645 21.0735C17.9665 20.752 18.4025 20.5714 18.8571 20.5714H20.5714V10.2857H3.42857ZM3.42857 6.85714H6.85714V3.42857H3.42857V6.85714ZM10.2857 3.42857V6.85714H13.7143V3.42857H10.2857ZM17.1429 3.42857V6.85714H20.5714V3.42857H17.1429ZM13.7143 18.8571V20.5714C13.7143 21.0261 13.5337 21.4621 13.2122 21.7836C12.8907 22.1051 12.4547 22.2857 12 22.2857C11.5453 22.2857 11.1093 22.1051 10.7878 21.7836C10.4663 21.4621 10.2857 21.0261 10.2857 20.5714V18.8571H8.57143C8.11677 18.8571 7.68074 18.6765 7.35925 18.355C7.03776 18.0335 6.85714 17.5975 6.85714 17.1429C6.85714 16.6882 7.03776 16.2522 7.35925 15.9307C7.68074 15.6092 8.11677 15.4286 8.57143 15.4286H10.2857V13.7143C10.2857 13.2596 10.4663 12.8236 10.7878 12.5021C11.1093 12.1806 11.5453 12 12 12C12.4547 12 12.8907 12.1806 13.2122 12.5021C13.5337 12.8236 13.7143 13.2596 13.7143 13.7143V15.4286H15.4286C15.8832 15.4286 16.3193 15.6092 16.6408 15.9307C16.9622 16.2522 17.1429 16.6882 17.1429 17.1429C17.1429 17.5975 16.9622 18.0335 16.6408 18.355C16.3193 18.6765 15.8832 18.8571 15.4286 18.8571H13.7143Z" fill="black"/>
</g>
<defs>
<clipPath id="clip0_201_32275">
<rect width="24" height="24" fill="white"/>
</clipPath>
</defs>
</svg>
