<svg width="24" height="24" viewBox="0 0 24 24" fill="none" xmlns="http://www.w3.org/2000/svg">
<g clip-path="url(#clip0_201_32273)">
<path d="M20.5714 13.7143V3.42857H18.8571C18.4025 3.42857 17.9665 3.24796 17.645 2.92647C17.3235 2.60498 17.1429 2.16894 17.1429 1.71429C17.1429 1.25963 17.3235 0.823594 17.645 0.502103C17.9665 0.180612 18.4025 0 18.8571 0L20.5714 0C21.4807 0 22.3528 0.361224 22.9958 1.00421C23.6388 1.64719 24 2.51926 24 3.42857V20.5714C24 21.4807 23.6388 22.3528 22.9958 22.9958C22.3528 23.6388 21.4807 24 20.5714 24H3.42857C2.51926 24 1.64719 23.6388 1.00421 22.9958C0.361224 22.3528 0 21.4807 0 20.5714V3.42857C0 2.51926 0.361224 1.64719 1.00421 1.00421C1.64719 0.361224 2.51926 0 3.42857 0L5.14286 0C5.59751 0 6.03355 0.180612 6.35504 0.502103C6.67653 0.823594 6.85714 1.25963 6.85714 1.71429C6.85714 2.16894 6.67653 2.60498 6.35504 2.92647C6.03355 3.24796 5.59751 3.42857 5.14286 3.42857H3.42857V13.7143H20.5714ZM20.5714 17.1429H17.1429V20.5714H20.5714V17.1429ZM13.7143 20.5714V17.1429H10.2857V20.5714H13.7143ZM6.85714 20.5714V17.1429H3.42857V20.5714H6.85714ZM10.2857 5.14286V3.42857C10.2857 2.97391 10.4663 2.53788 10.7878 2.21639C11.1093 1.8949 11.5453 1.71429 12 1.71429C12.4547 1.71429 12.8907 1.8949 13.2122 2.21639C13.5337 2.53788 13.7143 2.97391 13.7143 3.42857V5.14286H15.4286C15.8832 5.14286 16.3193 5.32347 16.6408 5.64496C16.9622 5.96645 17.1429 6.40249 17.1429 6.85714C17.1429 7.3118 16.9622 7.74783 16.6408 8.06933C16.3193 8.39082 15.8832 8.57143 15.4286 8.57143H13.7143V10.2857C13.7143 10.7404 13.5337 11.1764 13.2122 11.4979C12.8907 11.8194 12.4547 12 12 12C11.5453 12 11.1093 11.8194 10.7878 11.4979C10.4663 11.1764 10.2857 10.7404 10.2857 10.2857V8.57143H8.57143C8.11677 8.57143 7.68074 8.39082 7.35925 8.06933C7.03776 7.74783 6.85714 7.3118 6.85714 6.85714C6.85714 6.40249 7.03776 5.96645 7.35925 5.64496C7.68074 5.32347 8.11677 5.14286 8.57143 5.14286H10.2857Z" fill="black"/>
</g>
<defs>
<clipPath id="clip0_201_32273">
<rect width="24" height="24" fill="white"/>
</clipPath>
</defs>
</svg>
