<svg width="24" height="24" viewBox="0 0 24 24" fill="none" xmlns="http://www.w3.org/2000/svg">
<g clip-path="url(#clip0_201_32277)">
<path d="M3.42857 6.85714V20.5714H20.5714V6.85714H3.42857ZM0 3.42857C0 2.51926 0.361224 1.64719 1.00421 1.00421C1.64719 0.361224 2.51926 0 3.42857 0L20.5714 0C21.4807 0 22.3528 0.361224 22.9958 1.00421C23.6388 1.64719 24 2.51926 24 3.42857V20.5714C24 21.4807 23.6388 22.3528 22.9958 22.9958C22.3528 23.6388 21.4807 24 20.5714 24H3.42857C2.51926 24 1.64719 23.6388 1.00421 22.9958C0.361224 22.3528 0 21.4807 0 20.5714V3.42857Z" fill="black"/>
</g>
<defs>
<clipPath id="clip0_201_32277">
<rect width="24" height="24" fill="white"/>
</clipPath>
</defs>
</svg>
