<svg width="24" height="24" viewBox="0 0 24 24" fill="none" xmlns="http://www.w3.org/2000/svg">
<g clip-path="url(#clip0_201_32265)">
<path d="M13.7143 20.5714V3.42857H3.42857V5.14286C3.42857 5.59751 3.24796 6.03355 2.92647 6.35504C2.60498 6.67653 2.16894 6.85714 1.71429 6.85714C1.25963 6.85714 0.823594 6.67653 0.502103 6.35504C0.180612 6.03355 0 5.59751 0 5.14286V3.42857C0 2.51926 0.361224 1.64719 1.00421 1.00421C1.64719 0.361224 2.51926 0 3.42857 0L20.5714 0C21.4807 0 22.3528 0.361224 22.9958 1.00421C23.6388 1.64719 24 2.51926 24 3.42857V20.5714C24 21.4807 23.6388 22.3528 22.9958 22.9958C22.3528 23.6388 21.4807 24 20.5714 24H3.42857C2.51926 24 1.64719 23.6388 1.00421 22.9958C0.361224 22.3528 0 21.4807 0 20.5714V18.8571C0 18.4025 0.180612 17.9665 0.502103 17.645C0.823594 17.3235 1.25963 17.1429 1.71429 17.1429C2.16894 17.1429 2.60498 17.3235 2.92647 17.645C3.24796 17.9665 3.42857 18.4025 3.42857 18.8571V20.5714H13.7143ZM17.1429 20.5714H20.5714V17.1429H17.1429V20.5714ZM20.5714 13.7143V10.2857H17.1429V13.7143H20.5714ZM20.5714 6.85714V3.42857H17.1429V6.85714H20.5714ZM5.14286 10.2857V8.57143C5.14286 8.11677 5.32347 7.68074 5.64496 7.35925C5.96645 7.03776 6.40249 6.85714 6.85714 6.85714C7.3118 6.85714 7.74783 7.03776 8.06933 7.35925C8.39082 7.68074 8.57143 8.11677 8.57143 8.57143V10.2857H10.2857C10.7404 10.2857 11.1764 10.4663 11.4979 10.7878C11.8194 11.1093 12 11.5453 12 12C12 12.4547 11.8194 12.8907 11.4979 13.2122C11.1764 13.5337 10.7404 13.7143 10.2857 13.7143H8.57143V15.4286C8.57143 15.8832 8.39082 16.3193 8.06933 16.6408C7.74783 16.9622 7.3118 17.1429 6.85714 17.1429C6.40249 17.1429 5.96645 16.9622 5.64496 16.6408C5.32347 16.3193 5.14286 15.8832 5.14286 15.4286V13.7143H3.42857C2.97391 13.7143 2.53788 13.5337 2.21639 13.2122C1.8949 12.8907 1.71429 12.4547 1.71429 12C1.71429 11.5453 1.8949 11.1093 2.21639 10.7878C2.53788 10.4663 2.97391 10.2857 3.42857 10.2857H5.14286Z" fill="black"/>
</g>
<defs>
<clipPath id="clip0_201_32265">
<rect width="24" height="24" fill="white"/>
</clipPath>
</defs>
</svg>
