<svg width="24" height="24" viewBox="0 0 24 24" fill="none" xmlns="http://www.w3.org/2000/svg">
<g clip-path="url(#clip0_201_32263)">
<path d="M20.5714 0C21.4807 0 22.3528 0.361224 22.9958 1.00421C23.6388 1.64719 24 2.51926 24 3.42857V5.14286C24 5.59751 23.8194 6.03355 23.4979 6.35504C23.1764 6.67653 22.7404 6.85714 22.2857 6.85714C21.8311 6.85714 21.395 6.67653 21.0735 6.35504C20.752 6.03355 20.5714 5.59751 20.5714 5.14286V3.42857H10.2857V20.5714H20.5714V18.8571C20.5714 18.4025 20.752 17.9665 21.0735 17.645C21.395 17.3235 21.8311 17.1429 22.2857 17.1429C22.7404 17.1429 23.1764 17.3235 23.4979 17.645C23.8194 17.9665 24 18.4025 24 18.8571V20.5714C24 21.4807 23.6388 22.3528 22.9958 22.9958C22.3528 23.6388 21.4807 24 20.5714 24H3.42857C2.51926 24 1.64719 23.6388 1.00421 22.9958C0.361224 22.3528 0 21.4807 0 20.5714V3.42857C0 2.51926 0.361224 1.64719 1.00421 1.00421C1.64719 0.361224 2.51926 0 3.42857 0L20.5714 0ZM6.85714 17.1429H3.42857V20.5714H6.85714V17.1429ZM17.1429 6.85714C17.5975 6.85714 18.0335 7.03776 18.355 7.35925C18.6765 7.68074 18.8571 8.11677 18.8571 8.57143V10.2857H20.5714C21.0261 10.2857 21.4621 10.4663 21.7836 10.7878C22.1051 11.1093 22.2857 11.5453 22.2857 12C22.2857 12.4547 22.1051 12.8907 21.7836 13.2122C21.4621 13.5337 21.0261 13.7143 20.5714 13.7143H18.8571V15.4286C18.8571 15.8832 18.6765 16.3193 18.355 16.6408C18.0335 16.9622 17.5975 17.1429 17.1429 17.1429C16.6882 17.1429 16.2522 16.9622 15.9307 16.6408C15.6092 16.3193 15.4286 15.8832 15.4286 15.4286V13.7143H13.7143C13.2596 13.7143 12.8236 13.5337 12.5021 13.2122C12.1806 12.8907 12 12.4547 12 12C12 11.5453 12.1806 11.1093 12.5021 10.7878C12.8236 10.4663 13.2596 10.2857 13.7143 10.2857H15.4286V8.57143C15.4286 8.11677 15.6092 7.68074 15.9307 7.35925C16.2522 7.03776 16.6882 6.85714 17.1429 6.85714ZM6.85714 10.2857H3.42857V13.7143H6.85714V10.2857ZM6.85714 3.42857H3.42857V6.85714H6.85714V3.42857Z" fill="black"/>
</g>
<defs>
<clipPath id="clip0_201_32263">
<rect width="24" height="24" fill="white"/>
</clipPath>
</defs>
</svg>
