<svg width="24" height="24" viewBox="0 0 24 24" fill="none" xmlns="http://www.w3.org/2000/svg">
<path d="M18.514 2.37204L21.962 5.81904C22.2317 6.0889 22.4187 6.43028 22.5007 6.80291C22.5827 7.17553 22.5565 7.56385 22.425 7.92204L20.662 12.734C20.612 12.8705 20.5328 12.9943 20.43 13.097L12.107 21.42C11.9213 21.6058 11.7008 21.7532 11.4581 21.8538C11.2154 21.9544 10.9552 22.0061 10.6925 22.0061C10.4298 22.0061 10.1697 21.9544 9.92695 21.8538C9.68424 21.7532 9.46373 21.6058 9.278 21.42L2.914 15.056C2.53906 14.681 2.32843 14.1724 2.32843 13.642C2.32843 13.1117 2.53906 12.6031 2.914 12.228L11.247 3.89504C11.35 3.79213 11.4742 3.71295 11.611 3.66304L16.413 1.90804C16.771 1.77711 17.159 1.75123 17.5312 1.83344C17.9034 1.91564 18.2444 2.10251 18.514 2.37204ZM12.505 5.46604L4.328 13.642L10.692 20.006L18.86 11.839L20.547 7.23404L17.1 3.78604L12.505 5.46604ZM15.289 9.04604C15.1433 8.9083 15.0267 8.74275 14.9461 8.55918C14.8655 8.37561 14.8225 8.17774 14.8197 7.97726C14.8168 7.77679 14.8542 7.57778 14.9296 7.392C15.005 7.20623 15.1169 7.03745 15.2586 6.89564C15.4003 6.75384 15.5691 6.64189 15.7548 6.56641C15.9405 6.49093 16.1395 6.45345 16.34 6.45619C16.5405 6.45893 16.7384 6.50184 16.922 6.58237C17.1056 6.66289 17.2712 6.77941 17.409 6.92504C17.674 7.20939 17.8182 7.58548 17.8114 7.97408C17.8045 8.36269 17.6471 8.73346 17.3722 9.00828C17.0974 9.28311 16.7267 9.44053 16.338 9.44739C15.9494 9.45425 15.5734 9.31 15.289 9.04504V9.04604Z" fill="black"/>
</svg>
