<svg width="24" height="24" viewBox="0 0 24 24" fill="none" xmlns="http://www.w3.org/2000/svg">
<path d="M11.586 18.071L13 16.657L14.414 18.071L20.579 11.906L21.669 8.35403L19.185 5.87103L18.106 6.20703L16.508 4.60903L18.591 3.96003C18.9391 3.85185 19.3102 3.84088 19.6641 3.9283C20.018 4.01572 20.3413 4.1982 20.599 4.45603L23.082 6.93903C23.3387 7.19579 23.5207 7.5176 23.6085 7.86994C23.6962 8.22228 23.6864 8.59185 23.58 8.93903L22.345 12.97L14.415 20.9L11.585 18.072L11.586 18.071ZM14.236 3.75003L16.718 6.23303C16.9747 6.48979 17.1567 6.8116 17.2445 7.16394C17.3322 7.51628 17.3224 7.88585 17.216 8.23303L15.981 12.261L8.051 20.192L0.270996 12.414L8.17 4.51603L12.227 3.25403C12.5751 3.14585 12.9462 3.13488 13.3001 3.2223C13.654 3.30972 13.9773 3.4922 14.235 3.75003H14.236ZM3.1 12.414L8.05 17.364L14.214 11.199L15.304 7.64703L12.82 5.16403L9.235 6.27903L3.1 12.414ZM10.524 9.93903C10.3807 9.80066 10.2665 9.63514 10.1878 9.45213C10.1092 9.26913 10.0679 9.0723 10.0661 8.87313C10.0644 8.67396 10.1023 8.47644 10.1778 8.2921C10.2532 8.10775 10.3646 7.94027 10.5054 7.79943C10.6462 7.65859 10.8137 7.54721 10.9981 7.47179C11.1824 7.39637 11.3799 7.35842 11.5791 7.36015C11.7783 7.36188 11.9751 7.40326 12.1581 7.48187C12.3411 7.56049 12.5066 7.67476 12.645 7.81803C12.9135 8.10173 13.0607 8.47898 13.0554 8.86954C13.05 9.26011 12.8925 9.63319 12.6164 9.90945C12.3403 10.1857 11.9673 10.3434 11.5767 10.3489C11.1861 10.3544 10.8088 10.2074 10.525 9.93903H10.524ZM17.41 10.961L18.192 8.08303C18.642 8.23503 18.947 8.40803 19.109 8.60103C19.3646 8.90578 19.4887 9.29958 19.454 9.69584C19.4194 10.0921 19.2287 10.4583 18.924 10.714C18.634 10.958 18.129 11.04 17.41 10.961Z" fill="black"/>
</svg>
