<svg width="24" height="24" viewBox="0 0 24 24" fill="none" xmlns="http://www.w3.org/2000/svg">
<path d="M13.963 3.97802L16.446 6.46102C16.7027 6.71778 16.8847 7.03959 16.9725 7.39193C17.0602 7.74427 17.0504 8.11385 16.944 8.46102L15.71 12.49L7.78 20.42L0 12.642L7.899 4.74302L11.955 3.48302C12.303 3.37472 12.674 3.36359 13.0279 3.45083C13.3818 3.53807 13.7052 3.72037 13.963 3.97802ZM10.253 10.168C10.5344 10.4493 10.916 10.6072 11.3139 10.6072C11.7117 10.6071 12.0932 10.4489 12.3745 10.1675C12.6558 9.88613 12.8137 9.50453 12.8136 9.10667C12.8135 8.70881 12.6554 8.32729 12.374 8.04602C12.0911 7.77279 11.7122 7.62159 11.3189 7.62501C10.9256 7.62843 10.5494 7.78618 10.2713 8.0643C9.99316 8.34241 9.83541 8.71863 9.83199 9.11192C9.82857 9.50522 9.97976 9.88412 10.253 10.167V10.168ZM17.475 11.215C18.017 11.237 18.41 11.145 18.653 10.942C18.9577 10.6863 19.1484 10.3201 19.183 9.92383C19.2177 9.52758 19.0936 9.13378 18.838 8.82902C18.728 8.69802 18.553 8.57702 18.311 8.46502C18.384 8.1366 18.373 7.79507 18.2789 7.47205C18.1849 7.14902 18.0109 6.85494 17.773 6.61702L16.05 4.89502L18.319 4.18902C18.6671 4.08085 19.0382 4.06988 19.3921 4.1573C19.746 4.24471 20.0693 4.4272 20.327 4.68502L22.81 7.16802C23.0667 7.42478 23.2487 7.74659 23.3365 8.09893C23.4242 8.45127 23.4144 8.82085 23.308 9.16802L22.073 13.196L14.143 21.127L11.348 18.333L17.036 12.645L17.475 11.215Z" fill="black"/>
</svg>
