<svg width="24" height="24" viewBox="0 0 24 24" fill="none" xmlns="http://www.w3.org/2000/svg">
<g clip-path="url(#clip0_201_32303)">
<path d="M10.2857 20.5714H18.8571C19.3118 20.5714 19.7478 20.3908 20.0693 20.0693C20.3908 19.7478 20.5714 19.3118 20.5714 18.8571V10.2857H10.2857V20.5714ZM6.85714 20.5714V10.2857H3.42857V18.8571C3.42857 19.3118 3.60918 19.7478 3.93067 20.0693C4.25216 20.3908 4.6882 20.5714 5.14286 20.5714H6.85714ZM20.5714 5.14286C20.5714 4.6882 20.3908 4.25216 20.0693 3.93067C19.7478 3.60918 19.3118 3.42857 18.8571 3.42857H5.14286C4.6882 3.42857 4.25216 3.60918 3.93067 3.93067C3.60918 4.25216 3.42857 4.6882 3.42857 5.14286V6.85714H20.5714V5.14286ZM5.14286 0H18.8571C20.2211 0 21.5292 0.541835 22.4937 1.50631C23.4582 2.47078 24 3.77889 24 5.14286V18.8571C24 20.2211 23.4582 21.5292 22.4937 22.4937C21.5292 23.4582 20.2211 24 18.8571 24H5.14286C3.77889 24 2.47078 23.4582 1.50631 22.4937C0.541835 21.5292 0 20.2211 0 18.8571L0 5.14286C0 3.77889 0.541835 2.47078 1.50631 1.50631C2.47078 0.541835 3.77889 0 5.14286 0V0Z" fill="black"/>
</g>
<defs>
<clipPath id="clip0_201_32303">
<rect width="24" height="24" fill="white"/>
</clipPath>
</defs>
</svg>
