<svg width="24" height="24" viewBox="0 0 24 24" fill="none" xmlns="http://www.w3.org/2000/svg">
<g clip-path="url(#clip0_201_32307)">
<path d="M24 2V6C24 6.53043 23.7893 7.03914 23.4142 7.41421C23.0391 7.78929 22.5304 8 22 8C21.4696 8 20.9609 7.78929 20.5858 7.41421C20.2107 7.03914 20 6.53043 20 6V4H14V20H16C16.5304 20 17.0391 20.2107 17.4142 20.5858C17.7893 20.9609 18 21.4696 18 22C18 22.5304 17.7893 23.0391 17.4142 23.4142C17.0391 23.7893 16.5304 24 16 24H8C7.46957 24 6.96086 23.7893 6.58579 23.4142C6.21071 23.0391 6 22.5304 6 22C6 21.4696 6.21071 20.9609 6.58579 20.5858C6.96086 20.2107 7.46957 20 8 20H10V4H4V6C4 6.53043 3.78929 7.03914 3.41421 7.41421C3.03914 7.78929 2.53043 8 2 8C1.46957 8 0.960859 7.78929 0.585786 7.41421C0.210714 7.03914 0 6.53043 0 6V2C0 1.46957 0.210714 0.960859 0.585786 0.585786C0.960859 0.210714 1.46957 0 2 0L22 0C22.5304 0 23.0391 0.210714 23.4142 0.585786C23.7893 0.960859 24 1.46957 24 2Z" fill="black"/>
</g>
<defs>
<clipPath id="clip0_201_32307">
<rect width="24" height="24" fill="white"/>
</clipPath>
</defs>
</svg>
