<svg width="24" height="24" viewBox="0 0 24 24" fill="none" xmlns="http://www.w3.org/2000/svg">
<path d="M18 11V22H14.83C14.6234 21.4145 14.2403 20.9074 13.7334 20.5488C13.2265 20.1901 12.6209 19.9975 12 19.9975C11.3791 19.9975 10.7735 20.1901 10.2666 20.5488C9.75974 20.9074 9.3766 21.4145 9.17 22H6V11H10C10.2652 11 10.5196 10.8946 10.7071 10.7071C10.8946 10.5196 11 10.2652 11 10C11 9.73478 10.8946 9.48043 10.7071 9.29289C10.5196 9.10536 10.2652 9 10 9H6V2H9.17C9.3766 2.58553 9.75974 3.09257 10.2666 3.45121C10.7735 3.80985 11.3791 4.00245 12 4.00245C12.6209 4.00245 13.2265 3.80985 13.7334 3.45121C14.2403 3.09257 14.6234 2.58553 14.83 2H18V9H14C13.7348 9 13.4804 9.10536 13.2929 9.29289C13.1054 9.48043 13 9.73478 13 10C13 10.2652 13.1054 10.5196 13.2929 10.7071C13.4804 10.8946 13.7348 11 14 11H18Z" fill="black"/>
</svg>
