<svg width="24" height="24" viewBox="0 0 24 24" fill="none" xmlns="http://www.w3.org/2000/svg">
<g clip-path="url(#clip0_201_32319)">
<path d="M2 9.65399L4.813 12.476L11.145 6.12599L8.33101 3.30299L1.999 9.65299L2 9.65399ZM6.441 17.782L8.551 15.665C8.64328 15.5722 8.75298 15.4986 8.87379 15.4484C8.99461 15.3982 9.12416 15.3723 9.255 15.3723C9.38585 15.3723 9.5154 15.3982 9.63621 15.4484C9.75703 15.4986 9.86673 15.5722 9.959 15.665C10.1456 15.8524 10.2503 16.1061 10.2503 16.3705C10.2503 16.6349 10.1456 16.8886 9.959 17.076L7.849 19.193C8.03556 19.3804 8.1403 19.6341 8.1403 19.8985C8.1403 20.1629 8.03556 20.4166 7.849 20.604L6.44 22.015C6.34775 22.1076 6.23811 22.1811 6.11739 22.2312C5.99666 22.2814 5.86723 22.3072 5.7365 22.3072C5.60578 22.3072 5.47635 22.2814 5.35562 22.2312C5.2349 22.1811 5.12526 22.1076 5.033 22.015L3.626 20.605C3.43914 20.4175 3.33422 20.1637 3.33422 19.899C3.33422 19.6343 3.43914 19.3804 3.626 19.193L5.033 17.782C5.12526 17.6894 5.2349 17.6159 5.35562 17.5658C5.47635 17.5156 5.60578 17.4898 5.7365 17.4898C5.86723 17.4898 5.99666 17.5156 6.11739 17.5658C6.23811 17.6159 6.34775 17.6894 6.44 17.782H6.441ZM15.587 11.432L21.918 5.08199L20.511 3.66999L14.18 10.02C13.403 9.24 13.268 8.11299 13.878 7.49999L19.406 1.95599C20.016 1.34399 21.141 1.47899 21.918 2.25899L23.325 3.66899C24.103 4.44899 24.238 5.57799 23.627 6.18899L18.099 11.734C17.489 12.346 16.364 12.211 15.587 11.431V11.432ZM14.663 15.298L9.738 10.36L9.03401 11.066L13.959 16.005L14.663 15.299V15.298ZM16.07 16.71L15.366 17.415L17.125 19.179C17.319 19.374 17.635 19.374 17.828 19.179C17.9211 19.0853 17.9734 18.9586 17.9734 18.8265C17.9734 18.6944 17.9211 18.5677 17.828 18.474L16.07 16.71ZM2.06 6.76999C1.9268 6.49064 1.88326 6.17693 1.93535 5.87186C1.98745 5.56679 2.13264 5.2853 2.351 5.06599L3.758 3.65599C3.9759 3.43708 4.25644 3.2913 4.56082 3.2388C4.8652 3.18631 5.17837 3.22971 5.457 3.36299L6.924 1.89199C7.10852 1.70677 7.32779 1.5598 7.56924 1.45952C7.81069 1.35924 8.06956 1.30762 8.33101 1.30762C8.59245 1.30762 8.85132 1.35924 9.09277 1.45952C9.33422 1.5598 9.55349 1.70677 9.738 1.89199L12.552 4.71499C12.9251 5.0898 13.1346 5.59713 13.1346 6.12599C13.1346 6.65485 12.9251 7.16219 12.552 7.53699L11.145 8.94799L19.235 17.062C19.7015 17.5305 19.9635 18.1648 19.9635 18.826C19.9635 19.4872 19.7015 20.1215 19.235 20.59C19.0044 20.8215 18.7304 21.0052 18.4286 21.1306C18.1268 21.2559 17.8033 21.3204 17.4765 21.3204C17.1497 21.3204 16.8262 21.2559 16.5244 21.1306C16.2227 21.0052 15.9486 20.8215 15.718 20.59L7.628 12.476L6.22 13.887C5.443 14.667 4.183 14.667 3.406 13.887L0.592004 11.065C0.218589 10.6901 0.00892639 10.1826 0.00892639 9.65349C0.00892639 9.12439 0.218589 8.61684 0.592004 8.24199L2.059 6.77199L2.06 6.76999Z" fill="black"/>
</g>
<defs>
<clipPath id="clip0_201_32319">
<rect width="24" height="24" fill="white"/>
</clipPath>
</defs>
</svg>
