<svg width="24" height="24" viewBox="0 0 24 24" fill="none" xmlns="http://www.w3.org/2000/svg">
<path d="M10 11V12L11.25 12.43L11.852 20.863C11.852 20.9023 11.8676 20.9399 11.8953 20.9677C11.9231 20.9954 11.9607 21.011 12 21.011C12.0393 21.011 12.0769 20.9954 12.1047 20.9677C12.1324 20.9399 12.148 20.9023 12.148 20.863L12.75 12.43L14 12V11H10ZM8.535 9C8.18345 8.39216 7.99888 7.70218 8 7C8 5.527 9.333 3.527 12 1C14.667 3.527 16 5.527 16 7C16 7.729 15.805 8.412 15.465 9H16V12C16.0001 12.4167 15.8701 12.823 15.628 13.1622C15.386 13.5014 15.0441 13.7566 14.65 13.892L14.142 21.005C14.1015 21.5454 13.8583 22.0505 13.461 22.4191C13.0638 22.7877 12.5419 22.9926 12 22.9926C11.4581 22.9926 10.9362 22.7877 10.539 22.4191C10.1417 22.0505 9.89848 21.5454 9.858 21.005L9.349 13.892C8.95511 13.7564 8.61339 13.5012 8.37155 13.162C8.1297 12.8228 7.99981 12.4166 8 12V9H8.535ZM10.665 5.505C10.196 6.205 10 6.719 10 7C10 7.53043 10.2107 8.03914 10.5858 8.41421C10.9609 8.78929 11.4696 9 12 9C12.5304 9 13.0391 8.78929 13.4142 8.41421C13.7893 8.03914 14 7.53043 14 7C14 6.719 13.803 6.205 13.336 5.505C13.003 5.005 12.557 4.449 12 3.842C11.5133 4.36176 11.0667 4.91769 10.664 5.505H10.665Z" fill="black"/>
</svg>
