<svg width="24" height="24" viewBox="0 0 24 24" fill="none" xmlns="http://www.w3.org/2000/svg">
<path d="M10 20H14V5C14 4.73478 13.8946 4.48043 13.7071 4.29289C13.5196 4.10536 13.2652 4 13 4H11C10.7348 4 10.4804 4.10536 10.2929 4.29289C10.1054 4.48043 10 4.73478 10 5V20ZM16 20.268C16.304 20.4435 16.5565 20.696 16.732 21C16.9076 21.3041 17 21.6489 17 22H7C7.00001 21.6489 7.09243 21.3041 7.26796 21C7.4435 20.696 7.69597 20.4435 8 20.268V5C8 4.20435 8.31607 3.44129 8.87868 2.87868C9.44129 2.31607 10.2044 2 11 2H13C13.7956 2 14.5587 2.31607 15.1213 2.87868C15.6839 3.44129 16 4.20435 16 5V20.268ZM11 11H13V13H11V11ZM12 7C11.7348 7 11.4804 6.89464 11.2929 6.70711C11.1054 6.51957 11 6.26522 11 6C11 5.73478 11.1054 5.48043 11.2929 5.29289C11.4804 5.10536 11.7348 5 12 5C12.2652 5 12.5196 5.10536 12.7071 5.29289C12.8946 5.48043 13 5.73478 13 6C13 6.26522 12.8946 6.51957 12.7071 6.70711C12.5196 6.89464 12.2652 7 12 7ZM3.286 8H20.719C20.871 8 21.021 8.03466 21.1576 8.10134C21.2942 8.16801 21.4138 8.26495 21.5073 8.38479C21.6008 8.50462 21.6658 8.6442 21.6973 8.79291C21.7288 8.94162 21.7259 9.09555 21.689 9.243L20.379 14.485C20.2708 14.9177 20.0212 15.3018 19.6697 15.5763C19.3182 15.8508 18.885 15.9999 18.439 16H5.588C5.14325 16.0002 4.71113 15.8521 4.35997 15.5791C4.00881 15.3062 3.75863 14.924 3.649 14.493L2.317 9.246C2.27955 9.09843 2.27628 8.94426 2.30746 8.79524C2.33863 8.64622 2.40342 8.50628 2.49688 8.3861C2.59035 8.26592 2.71002 8.16867 2.84677 8.10176C2.98353 8.03484 3.13375 8.00004 3.286 8ZM4.572 10L5.589 14H18.439L19.439 10H4.571H4.572Z" fill="black"/>
</svg>
