<svg width="24" height="24" viewBox="0 0 24 24" fill="none" xmlns="http://www.w3.org/2000/svg">
<path d="M8 4.5C7.46957 4.5 6.96086 4.71071 6.58579 5.08579C6.21071 5.46086 6 5.96957 6 6.5V11.538L18 11.515V6.5C18 5.96957 17.7893 5.46086 17.4142 5.08579C17.0391 4.71071 16.5304 4.5 16 4.5H8ZM15.667 19.5L15 18.5H9L8.333 19.5H8C6.93913 19.5 5.92172 19.0786 5.17157 18.3284C4.42143 17.5783 4 16.5609 4 15.5V6.5C4 5.43913 4.42143 4.42172 5.17157 3.67157C5.92172 2.92143 6.93913 2.5 8 2.5H16C17.0609 2.5 18.0783 2.92143 18.8284 3.67157C19.5786 4.42172 20 5.43913 20 6.5V15.5C20 16.5609 19.5786 17.5783 18.8284 18.3284C18.0783 19.0786 17.0609 19.5 16 19.5H15.667ZM8 16.5C8.26522 16.5 8.51957 16.3946 8.70711 16.2071C8.89464 16.0196 9 15.7652 9 15.5C9 15.2348 8.89464 14.9804 8.70711 14.7929C8.51957 14.6054 8.26522 14.5 8 14.5C7.73478 14.5 7.48043 14.6054 7.29289 14.7929C7.10536 14.9804 7 15.2348 7 15.5C7 15.7652 7.10536 16.0196 7.29289 16.2071C7.48043 16.3946 7.73478 16.5 8 16.5ZM16 16.5C16.2652 16.5 16.5196 16.3946 16.7071 16.2071C16.8946 16.0196 17 15.7652 17 15.5C17 15.2348 16.8946 14.9804 16.7071 14.7929C16.5196 14.6054 16.2652 14.5 16 14.5C15.7348 14.5 15.4804 14.6054 15.2929 14.7929C15.1054 14.9804 15 15.2348 15 15.5C15 15.7652 15.1054 16.0196 15.2929 16.2071C15.4804 16.3946 15.7348 16.5 16 16.5ZM16 5.5C16.2652 5.5 16.5196 5.60536 16.7071 5.79289C16.8946 5.98043 17 6.23478 17 6.5V9.5C17 9.76522 16.8946 10.0196 16.7071 10.2071C16.5196 10.3946 16.2652 10.5 16 10.5C15.7348 10.5 15.4804 10.3946 15.2929 10.2071C15.1054 10.0196 15 9.76522 15 9.5V6.5C15 6.23478 15.1054 5.98043 15.2929 5.79289C15.4804 5.60536 15.7348 5.5 16 5.5ZM8.314 19.529L15.685 19.528L15.964 19.945C16.0646 20.0957 16.1223 20.271 16.131 20.452C16.1397 20.633 16.0991 20.813 16.0134 20.9726C15.9278 21.1323 15.8003 21.2658 15.6447 21.3586C15.4891 21.4515 15.3112 21.5004 15.13 21.5H8.87C8.68887 21.5002 8.51109 21.4512 8.35563 21.3583C8.20018 21.2653 8.07289 21.1319 7.98736 20.9722C7.90183 20.8125 7.86127 20.6326 7.87002 20.4517C7.87876 20.2708 7.93647 20.0957 8.037 19.945L8.315 19.529H8.314Z" fill="black"/>
</svg>
