<svg width="24" height="24" viewBox="0 0 24 24" fill="none" xmlns="http://www.w3.org/2000/svg">
<path d="M10 15.5001C11.3261 15.5001 12.5979 14.9733 13.5355 14.0356C14.4732 13.0979 15 11.8261 15 10.5001C15 9.17397 14.4732 7.9022 13.5355 6.96452C12.5979 6.02684 11.3261 5.50005 10 5.50005C8.67392 5.50005 7.40215 6.02684 6.46446 6.96452C5.52678 7.9022 5 9.17397 5 10.5001C5 11.8261 5.52678 13.0979 6.46446 14.0356C7.40215 14.9733 8.67392 15.5001 10 15.5001ZM16.013 6.91405C16.6032 7.90398 16.9399 9.02427 16.9933 10.1755C17.0466 11.3268 16.815 12.4735 16.3189 13.5137C15.8228 14.554 15.0776 15.4557 14.1494 16.1389C13.2212 16.8221 12.1387 17.2656 10.998 17.4301L11 17.5001V18.5001H12C12.2652 18.5001 12.5196 18.6054 12.7071 18.7929C12.8946 18.9805 13 19.2348 13 19.5001C13 19.7653 12.8946 20.0196 12.7071 20.2072C12.5196 20.3947 12.2652 20.5001 12 20.5001H11V21.5001C11 21.7653 10.8946 22.0196 10.7071 22.2072C10.5196 22.3947 10.2652 22.5001 10 22.5001C9.73478 22.5001 9.48043 22.3947 9.29289 22.2072C9.10536 22.0196 9 21.7653 9 21.5001V20.5001H8C7.73478 20.5001 7.48043 20.3947 7.29289 20.2072C7.10536 20.0196 7 19.7653 7 19.5001C7 19.2348 7.10536 18.9805 7.29289 18.7929C7.48043 18.6054 7.73478 18.5001 8 18.5001H9V17.5001C9 17.4761 9 17.4531 9.002 17.4301C7.2532 17.1738 5.66602 16.2657 4.55892 14.8879C3.45183 13.5101 2.90674 11.7646 3.03305 10.0017C3.15935 8.23871 3.9477 6.58875 5.2399 5.38286C6.5321 4.17697 8.23254 3.50438 10 3.50005C11.7586 3.49791 13.4532 4.15968 14.745 5.35305L16.595 3.50305H15.01C14.7448 3.50305 14.4904 3.39769 14.3029 3.21016C14.1154 3.02262 14.01 2.76827 14.01 2.50305C14.01 2.23784 14.1154 1.98348 14.3029 1.79594C14.4904 1.60841 14.7448 1.50305 15.01 1.50305H19.01C19.2752 1.50305 19.5296 1.60841 19.7171 1.79594C19.9046 1.98348 20.01 2.23784 20.01 2.50305V6.50305C20.01 6.76827 19.9046 7.02262 19.7171 7.21016C19.5296 7.3977 19.2752 7.50305 19.01 7.50305C18.7448 7.50305 18.4904 7.3977 18.3029 7.21016C18.1154 7.02262 18.01 6.76827 18.01 6.50305V4.91705L16.014 6.91405H16.013Z" fill="black"/>
</svg>
