<svg width="24" height="24" viewBox="0 0 24 24" fill="none" xmlns="http://www.w3.org/2000/svg">
<path d="M11 16.3581H6.67401C6.50104 16.358 6.33105 16.313 6.18065 16.2276C6.03025 16.1422 5.90457 16.0192 5.81591 15.8707C5.72724 15.7221 5.67862 15.5532 5.67478 15.3802C5.67094 15.2073 5.71202 15.0364 5.79401 14.8841L7.69401 11.3551C7.52362 11.3427 7.35925 11.2869 7.21656 11.1929C7.07387 11.099 6.95762 10.9701 6.87891 10.8185C6.80019 10.6668 6.76163 10.4976 6.7669 10.3268C6.77217 10.1561 6.82109 9.98953 6.90901 9.84305L11.143 2.78705C11.2319 2.6392 11.3576 2.51686 11.5077 2.43193C11.6579 2.347 11.8275 2.30237 12 2.30237C12.1725 2.30237 12.3421 2.347 12.4923 2.43193C12.6425 2.51686 12.7681 2.6392 12.857 2.78705L17.091 9.84305C17.1789 9.98953 17.2278 10.1561 17.2331 10.3268C17.2384 10.4976 17.1998 10.6668 17.1211 10.8185C17.0424 10.9701 16.9261 11.099 16.7835 11.1929C16.6408 11.2869 16.4764 11.3427 16.306 11.3551L18.206 14.8841C18.288 15.0364 18.3291 15.2073 18.3252 15.3802C18.3214 15.5532 18.2728 15.7221 18.1841 15.8707C18.0954 16.0192 17.9698 16.1422 17.8194 16.2276C17.669 16.313 17.499 16.358 17.326 16.3581H13V22.3581H11V16.3581Z" fill="black"/>
</svg>
