<svg width="24" height="24" viewBox="0 0 24 24" fill="none" xmlns="http://www.w3.org/2000/svg">
<path d="M13 15.258V21.358C13 21.6232 12.8946 21.8776 12.7071 22.0651C12.5196 22.2526 12.2652 22.358 12 22.358C11.7348 22.358 11.4804 22.2526 11.2929 22.0651C11.1054 21.8776 11 21.6232 11 21.358V15.258C9.87421 15.4893 8.7031 15.3257 7.68378 14.7948C6.66447 14.2638 5.85918 13.3979 5.40347 12.3428C4.94776 11.2877 4.86946 10.1079 5.18173 9.00178C5.494 7.89571 6.17779 6.93098 7.118 6.26998C7.36564 5.15989 7.98421 4.16734 8.87171 3.45601C9.7592 2.74468 10.8626 2.35706 12 2.35706C13.1374 2.35706 14.2408 2.74468 15.1283 3.45601C16.0158 4.16734 16.6344 5.15989 16.882 6.26998C17.8222 6.93098 18.506 7.89571 18.8183 9.00178C19.1306 10.1079 19.0522 11.2877 18.5965 12.3428C18.1408 13.3979 17.3355 14.2638 16.3162 14.7948C15.2969 15.3257 14.1258 15.4893 13 15.258Z" fill="black"/>
</svg>
