<svg width="24" height="24" viewBox="0 0 24 24" fill="none" xmlns="http://www.w3.org/2000/svg">
<path d="M8.34801 14H15.652L13.082 9.22602L14.54 9.12002L12 4.88702L9.46101 9.12002L10.921 9.22402L8.34701 14H8.34801ZM16.306 10.997L18.206 14.526C18.288 14.6783 18.3291 14.8493 18.3252 15.0222C18.3214 15.1951 18.2728 15.3641 18.1841 15.5126C18.0954 15.6611 17.9698 15.7841 17.8194 15.8695C17.669 15.955 17.499 15.9999 17.326 16H13V21C13 21.2652 12.8946 21.5196 12.7071 21.7071C12.5196 21.8947 12.2652 22 12 22C11.7348 22 11.4804 21.8947 11.2929 21.7071C11.1054 21.5196 11 21.2652 11 21V16H6.67401C6.50104 15.9999 6.33105 15.955 6.18065 15.8695C6.03025 15.7841 5.90457 15.6611 5.81591 15.5126C5.72724 15.3641 5.67862 15.1951 5.67478 15.0222C5.67094 14.8493 5.71202 14.6783 5.79401 14.526L7.69401 10.997L6.97401 10.61C6.85106 10.4511 6.77905 10.2587 6.76745 10.0581C6.75585 9.85748 6.8052 9.65806 6.90901 9.48602L11.143 2.42902C11.2319 2.28117 11.3576 2.15883 11.5077 2.0739C11.6579 1.98897 11.8275 1.94434 12 1.94434C12.1725 1.94434 12.3421 1.98897 12.4923 2.0739C12.6425 2.15883 12.7681 2.28117 12.857 2.42902L17.091 9.48602C17.1942 9.65803 17.2433 9.8571 17.2319 10.0574C17.2205 10.2576 17.1491 10.4498 17.027 10.609L16.307 10.997H16.306Z" fill="black"/>
</svg>
