<svg width="24" height="24" viewBox="0 0 24 24" fill="none" xmlns="http://www.w3.org/2000/svg">
<path d="M12.528 6.35802C12.3029 6.21795 12.0315 6.17298 11.7733 6.23298C11.5151 6.29299 11.2912 6.45306 11.151 6.67802L5.05601 16.472C4.96188 16.6234 4.90993 16.7972 4.90556 16.9755C4.90118 17.1537 4.94453 17.3299 5.03112 17.4857C5.11772 17.6416 5.2444 17.7714 5.39805 17.8618C5.55169 17.9523 5.72673 18 5.90501 18H18.095C18.2734 18.0002 18.4485 17.9526 18.6023 17.8622C18.7561 17.7719 18.8829 17.642 18.9697 17.4862C19.0564 17.3303 19.0998 17.154 19.0955 16.9757C19.0911 16.7974 19.0392 16.6235 18.945 16.472L12.849 6.67802C12.7682 6.5483 12.6587 6.43883 12.529 6.35802H12.528ZM14.547 5.62102L20.642 15.415C20.9247 15.8693 21.0807 16.3908 21.094 16.9257C21.1072 17.4605 20.9772 17.9892 20.7174 18.4569C20.4576 18.9245 20.0775 19.3142 19.6164 19.5856C19.1553 19.8569 18.63 20 18.095 20H5.90501C5.37 20 4.84474 19.8569 4.38364 19.5856C3.92255 19.3142 3.5424 18.9245 3.2826 18.4569C3.02279 17.9892 2.89278 17.4605 2.90604 16.9257C2.9193 16.3908 3.07535 15.8693 3.35801 15.415L9.45301 5.62002C9.72237 5.18722 10.0976 4.8302 10.5432 4.58265C10.9889 4.3351 11.4902 4.2052 12 4.2052C12.5098 4.2052 13.0112 4.3351 13.4568 4.58265C13.9024 4.8302 14.2776 5.18722 14.547 5.62002V5.62102Z" fill="black"/>
</svg>
