<svg width="24" height="24" viewBox="0 0 24 24" fill="none" xmlns="http://www.w3.org/2000/svg">
<path d="M14.8 4.61298L21.501 15.774C22.464 17.377 21.991 19.486 20.444 20.484C19.9248 20.8202 19.3196 20.9993 18.701 21H5.298C3.477 21 2 19.47 2 17.581C2 16.942 2.173 16.317 2.498 15.774L9.2 4.61298C10.162 3.00998 12.196 2.51898 13.743 3.51698C14.171 3.79298 14.533 4.16798 14.8 4.61298ZM12 17C12.2652 17 12.5196 16.8946 12.7071 16.7071C12.8946 16.5196 13 16.2652 13 16C13 15.7348 12.8946 15.4804 12.7071 15.2929C12.5196 15.1053 12.2652 15 12 15C11.7348 15 11.4804 15.1053 11.2929 15.2929C11.1054 15.4804 11 15.7348 11 16C11 16.2652 11.1054 16.5196 11.2929 16.7071C11.4804 16.8946 11.7348 17 12 17ZM12 7.99998C11.7348 7.99998 11.4804 8.10534 11.2929 8.29287C11.1054 8.48041 11 8.73476 11 8.99998V13C11 13.2652 11.1054 13.5196 11.2929 13.7071C11.4804 13.8946 11.7348 14 12 14C12.2652 14 12.5196 13.8946 12.7071 13.7071C12.8946 13.5196 13 13.2652 13 13V8.99998C13 8.73476 12.8946 8.48041 12.7071 8.29287C12.5196 8.10534 12.2652 7.99998 12 7.99998Z" fill="black"/>
</svg>
