<svg width="24" height="24" viewBox="0 0 24 24" fill="none" xmlns="http://www.w3.org/2000/svg">
<path d="M14.547 5.62102L20.642 15.415C20.9247 15.8693 21.0807 16.3908 21.094 16.9257C21.1072 17.4605 20.9772 17.9892 20.7174 18.4569C20.4576 18.9245 20.0775 19.3142 19.6164 19.5856C19.1553 19.8569 18.63 20 18.095 20H5.90499C5.36999 20 4.84472 19.8569 4.38363 19.5856C3.92253 19.3142 3.54238 18.9245 3.28258 18.4569C3.02278 17.9892 2.89277 17.4605 2.90603 16.9257C2.91929 16.3908 3.07533 15.8693 3.35799 15.415L9.45299 5.62002C9.72236 5.18722 10.0976 4.8302 10.5432 4.58265C10.9888 4.3351 11.4902 4.2052 12 4.2052C12.5098 4.2052 13.0111 4.3351 13.4568 4.58265C13.9024 4.8302 14.2776 5.18722 14.547 5.62002V5.62102Z" fill="black"/>
</svg>
