<svg width="24" height="24" viewBox="0 0 24 24" fill="none" xmlns="http://www.w3.org/2000/svg">
<path d="M11 13H2C2 7.81397 5.947 3.54997 11.001 3.04997L11 2.99997C11.0008 2.86702 11.028 2.73555 11.0802 2.61326C11.1323 2.49097 11.2084 2.38031 11.3038 2.28775C11.3992 2.1952 11.5122 2.1226 11.636 2.07421C11.7598 2.02582 11.8921 2.0026 12.025 2.00593C12.1579 2.00925 12.2888 2.03905 12.4101 2.09357C12.5313 2.14809 12.6405 2.22624 12.7312 2.32346C12.8219 2.42067 12.8923 2.53499 12.9383 2.65974C12.9842 2.78448 13.0049 2.91715 12.999 3.04997C18.053 3.54997 22 7.81297 22 13H13V19C13 19.2652 13.1054 19.5195 13.2929 19.7071C13.4804 19.8946 13.7348 20 14 20C14.2652 20 14.5196 19.8946 14.7071 19.7071C14.8946 19.5195 15 19.2652 15 19C15 18.7348 15.1054 18.4804 15.2929 18.2929C15.4804 18.1053 15.7348 18 16 18C16.2652 18 16.5196 18.1053 16.7071 18.2929C16.8946 18.4804 17 18.7348 17 19C17 19.7956 16.6839 20.5587 16.1213 21.1213C15.5587 21.6839 14.7956 22 14 22C13.2044 22 12.4413 21.6839 11.8787 21.1213C11.3161 20.5587 11 19.7956 11 19V13Z" fill="black"/>
</svg>
