<svg width="24" height="24" viewBox="0 0 24 24" fill="none" xmlns="http://www.w3.org/2000/svg">
<path d="M11 15.4829L5 17.0649L11.234 3.70694C11.1118 3.56108 11.0337 3.38338 11.009 3.1947C10.9842 3.00602 11.0139 2.81419 11.0943 2.64176C11.1748 2.46932 11.3028 2.32343 11.4633 2.22121C11.6239 2.11899 11.8102 2.0647 12.0005 2.0647C12.1908 2.0647 12.3771 2.11899 12.5377 2.22121C12.6982 2.32343 12.8262 2.46932 12.9067 2.64176C12.9871 2.81419 13.0168 3.00602 12.992 3.1947C12.9673 3.38338 12.8892 3.56108 12.767 3.70694L19 17.0649L13 15.4829V19.0649C13 19.3302 13.1054 19.5845 13.2929 19.772C13.4804 19.9596 13.7348 20.0649 14 20.0649C14.2652 20.0649 14.5196 19.9596 14.7071 19.772C14.8946 19.5845 15 19.3302 15 19.0649C15 18.7997 15.1054 18.5454 15.2929 18.3578C15.4804 18.1703 15.7348 18.0649 16 18.0649C16.2652 18.0649 16.5196 18.1703 16.7071 18.3578C16.8946 18.5454 17 18.7997 17 19.0649C17 19.8606 16.6839 20.6237 16.1213 21.1863C15.5587 21.7489 14.7956 22.0649 14 22.0649C13.2044 22.0649 12.4413 21.7489 11.8787 21.1863C11.3161 20.6237 11 19.8606 11 19.0649V15.4829Z" fill="black"/>
</svg>
