<svg width="24" height="24" viewBox="0 0 24 24" fill="none" xmlns="http://www.w3.org/2000/svg">
<path d="M5.80799 9.612L7.15999 8.689C7.26747 8.61562 7.38848 8.56436 7.51596 8.53821C7.64344 8.51205 7.77485 8.51153 7.90254 8.53665C8.03023 8.56178 8.15164 8.61206 8.25971 8.68457C8.36777 8.75708 8.46033 8.85037 8.53199 8.959C8.67851 9.17903 8.73273 9.4478 8.68298 9.70742C8.63322 9.96705 8.48348 10.1967 8.26599 10.347L4.98899 12.584C4.88151 12.6574 4.76051 12.7086 4.63303 12.7348C4.50555 12.7609 4.37413 12.7615 4.24645 12.7363C4.11876 12.7112 3.99734 12.6609 3.88928 12.5884C3.78121 12.5159 3.68865 12.4226 3.61699 12.314L1.40699 8.998C1.2599 8.77797 1.20535 8.50889 1.25513 8.24895C1.30491 7.98901 1.45502 7.75912 1.67299 7.609C1.78047 7.53562 1.90148 7.48436 2.02896 7.45821C2.15644 7.43205 2.28785 7.43153 2.41554 7.45665C2.54323 7.48178 2.66464 7.53206 2.77271 7.60457C2.88077 7.67708 2.97333 7.77037 3.04499 7.879L3.88399 9.138C5.09999 5.01 8.87999 2 13.355 2C18.813 2 23.237 6.477 23.237 12C23.237 17.523 18.813 22 13.355 22C13.2245 21.9992 13.0954 21.9727 12.9751 21.922C12.8548 21.8714 12.7456 21.7975 12.6539 21.7046C12.5621 21.6118 12.4896 21.5017 12.4404 21.3808C12.3911 21.2599 12.3662 21.1305 12.367 21C12.367 20.448 12.81 20 13.355 20C17.721 20 21.261 16.418 21.261 12C21.261 7.582 17.721 4 13.355 4C9.81099 4 6.81199 6.36 5.80799 9.612Z" fill="black"/>
</svg>
