<svg width="24" height="24" viewBox="0 0 24 24" fill="none" xmlns="http://www.w3.org/2000/svg">
<path d="M3.694 20.3061C1.784 18.3941 3.952 13.1261 8.539 8.5391C13.126 3.9521 18.394 1.7831 20.306 3.6941C22.216 5.6061 20.048 10.8741 15.461 15.4611C10.874 20.0481 5.606 22.2171 3.694 20.3061ZM5.08 18.9201C5.895 19.7361 10.182 17.9701 14.077 14.0751C17.972 10.1801 19.737 5.8931 18.922 5.0781C18.107 4.2621 13.82 6.0281 9.925 9.9231C6.03 13.8181 4.265 18.1051 5.08 18.9201ZM8.54 15.4601C3.952 10.8741 1.783 5.6061 3.694 3.6941C5.606 1.7841 10.874 3.9521 15.461 8.5391C20.048 13.1261 22.217 18.3941 20.306 20.3061C18.394 22.2161 13.126 20.0481 8.539 15.4611L8.54 15.4601ZM9.925 14.0751C13.82 17.9701 18.107 19.7351 18.922 18.9201C19.738 18.1051 17.972 13.8181 14.077 9.9231C10.182 6.0281 5.895 4.2631 5.08 5.0781C4.264 5.8931 6.03 10.1801 9.925 14.0751ZM12 14.0001C11.4696 14.0001 10.9609 13.7894 10.5858 13.4143C10.2107 13.0392 10 12.5305 10 12.0001C10 11.4697 10.2107 10.961 10.5858 10.5859C10.9609 10.2108 11.4696 10.0001 12 10.0001C12.5304 10.0001 13.0391 10.2108 13.4142 10.5859C13.7893 10.961 14 11.4697 14 12.0001C14 12.5305 13.7893 13.0392 13.4142 13.4143C13.0391 13.7894 12.5304 14.0001 12 14.0001Z" fill="black"/>
</svg>
