<svg width="24" height="24" viewBox="0 0 24 24" fill="none" xmlns="http://www.w3.org/2000/svg">
<g clip-path="url(#clip0_201_32402)">
<path d="M8.608 13.624C8.16523 13.4969 7.69648 13.4907 7.2505 13.606C6.80452 13.7214 6.39758 13.9541 6.072 14.28L3.33333 17.016C2.84923 17.5001 2.57726 18.1567 2.57726 18.8414C2.57726 19.526 2.84923 20.1826 3.33333 20.6667C3.81744 21.1508 4.47403 21.4228 5.15867 21.4228C5.8433 21.4228 6.49989 21.1508 6.984 20.6667L9.72 17.9294C10.0459 17.6038 10.2786 17.1969 10.394 16.7509C10.5094 16.3049 10.5031 15.8361 10.376 15.3934C10.1294 15.5392 9.84138 15.5989 9.55717 15.563C9.27295 15.5272 9.00876 15.3977 8.8062 15.1952C8.60363 14.9926 8.47422 14.7284 8.43833 14.4442C8.40245 14.16 8.46214 13.8719 8.608 13.6254V13.624ZM14.536 7.69604C14.7826 7.55018 15.0706 7.49049 15.3548 7.52637C15.639 7.56225 15.9032 7.69167 16.1058 7.89423C16.3084 8.0968 16.4378 8.36099 16.4737 8.6452C16.5096 8.92941 16.4499 9.21749 16.304 9.46404C16.7468 9.59118 17.2155 9.59739 17.6615 9.48203C18.1075 9.36666 18.5144 9.13393 18.84 8.80804L20.6667 6.98404C20.9064 6.74433 21.0965 6.45976 21.2262 6.14657C21.356 5.83338 21.4227 5.4977 21.4227 5.1587C21.4227 4.81971 21.356 4.48403 21.2262 4.17084C21.0965 3.85765 20.9064 3.57308 20.6667 3.33337C20.427 3.09367 20.1424 2.90352 19.8292 2.77379C19.516 2.64406 19.1803 2.57729 18.8413 2.57729C18.5023 2.57729 18.1667 2.64406 17.8535 2.77379C17.5403 2.90352 17.2557 3.09367 17.016 3.33337L15.192 5.16004C14.8661 5.48562 14.6334 5.89255 14.518 6.33854C14.4026 6.78452 14.4089 7.25327 14.536 7.69604ZM22.4893 1.5107C23.457 2.47839 24.0007 3.79086 24.0007 5.15937C24.0007 6.52789 23.457 7.84035 22.4893 8.80804L20.6653 10.632C20.1861 11.1112 19.6172 11.4913 18.9911 11.7505C18.3649 12.0098 17.6939 12.1432 17.0162 12.1432C15.6476 12.143 14.335 11.5992 13.3673 10.6314C12.8882 10.1521 12.5081 9.58321 12.2488 8.95709C11.9896 8.33097 11.8561 7.65991 11.8562 6.98223C11.8563 5.61359 12.4001 4.30106 13.368 3.33337L15.192 1.50937C16.1597 0.541686 17.4722 -0.00195312 18.8407 -0.00195312C20.2092 -0.00195312 21.5216 0.541686 22.4893 1.50937V1.5107ZM11.544 12.456C12.5113 13.4237 13.0547 14.7358 13.0547 16.104C13.0547 17.4722 12.5113 18.7844 11.544 19.752L8.808 22.4894C7.8398 23.4546 6.52812 23.9961 5.16098 23.9951C3.79384 23.994 2.48299 23.4505 1.51628 22.4838C0.549566 21.517 0.00600542 20.2062 0.00495301 18.8391C0.00390059 17.4719 0.545442 16.1602 1.51067 15.192L4.248 12.456C5.21563 11.4888 6.52781 10.9454 7.896 10.9454C9.26419 10.9454 10.5764 11.4888 11.544 12.456Z" fill="black"/>
</g>
<defs>
<clipPath id="clip0_201_32402">
<rect width="24" height="24" fill="white"/>
</clipPath>
</defs>
</svg>
