<svg width="24" height="24" viewBox="0 0 24 24" fill="none" xmlns="http://www.w3.org/2000/svg">
<path d="M12 20C14.1217 20 16.1566 19.1571 17.6569 17.6569C19.1571 16.1566 20 14.1217 20 12C20 9.87827 19.1571 7.84344 17.6569 6.34315C16.1566 4.84285 14.1217 4 12 4C9.87827 4 7.84344 4.84285 6.34315 6.34315C4.84285 7.84344 4 9.87827 4 12C4 14.1217 4.84285 16.1566 6.34315 17.6569C7.84344 19.1571 9.87827 20 12 20ZM12 22C6.477 22 2 17.523 2 12C2 6.477 6.477 2 12 2C17.523 2 22 6.477 22 12C22 17.523 17.523 22 12 22Z" fill="black"/>
<path d="M13.596 12.7199C13.596 13.5869 12.909 14.2619 12.096 14.2619C11.284 14.2619 10.596 13.5869 10.596 12.7189C10.596 11.8509 11.284 11.1759 12.096 11.1759C12.94 11.2079 13.596 11.8829 13.596 12.7189V12.7199ZM17.096 10.3399V15.1299C17.096 15.8699 16.503 16.5119 15.753 16.5119H8.43999C7.68999 16.5119 7.09599 15.9019 7.09599 15.1299V10.3079C7.09599 9.56894 7.68999 8.92595 8.43999 8.92595H9.59599L9.84599 8.18694C9.97099 7.83294 10.378 7.54395 10.753 7.54395H13.44C13.815 7.54395 14.221 7.83394 14.346 8.18694L14.596 8.95795H15.753C16.503 8.95795 17.096 9.56894 17.096 10.3409V10.3399ZM14.409 12.7509C14.409 11.4329 13.378 10.3409 12.065 10.3409C10.784 10.3409 9.72099 11.4329 9.72099 12.7509C9.72099 14.0689 10.753 15.1619 12.065 15.1619C12.6939 15.1486 13.2923 14.8883 13.7309 14.4373C14.1695 13.9864 14.4131 13.381 14.409 12.7519V12.7509Z" fill="black"/>
</svg>
