<svg width="24" height="24" viewBox="0 0 24 24" fill="none" xmlns="http://www.w3.org/2000/svg">
<path d="M15 13.35C15 15.086 13.625 16.436 12 16.436C10.375 16.436 9 15.086 9 13.35C9 11.614 10.375 10.264 12 10.264C13.688 10.329 15 11.679 15 13.35ZM22 8.593V18.171C22 19.65 20.812 20.936 19.312 20.936H4.688C3.188 20.936 2 19.714 2 18.17V8.53C2 7.05 3.188 5.764 4.688 5.764H7L7.5 4.286C7.75 3.579 8.563 3 9.313 3H14.688C15.438 3 16.25 3.579 16.5 4.286L17 5.829H19.313C20.813 5.829 22 7.05 22 8.593ZM16.625 13.414C16.625 10.779 14.562 8.593 11.937 8.593C9.375 8.593 7.25 10.779 7.25 13.414C7.25 16.05 9.313 18.236 11.938 18.236C13.196 18.209 14.3929 17.688 15.2699 16.7857C16.1469 15.8834 16.6337 14.6723 16.625 13.414Z" fill="black"/>
</svg>
