<svg width="24" height="24" viewBox="0 0 24 24" fill="none" xmlns="http://www.w3.org/2000/svg">
<path d="M13 8.41403V14.056C13 14.3212 12.8946 14.5756 12.7071 14.7631C12.5196 14.9507 12.2652 15.056 12 15.056C11.7348 15.056 11.4804 14.9507 11.2929 14.7631C11.1054 14.5756 11 14.3212 11 14.056V8.41403L9.879 9.53603C9.69123 9.72367 9.4366 9.82903 9.17115 9.82894C8.90569 9.82885 8.65114 9.7233 8.4635 9.53553C8.27586 9.34776 8.1705 9.09313 8.17059 8.82768C8.17068 8.56222 8.27623 8.30767 8.464 8.12003L11.293 5.29303C11.4805 5.10556 11.7348 5.00024 12 5.00024C12.2652 5.00024 12.5195 5.10556 12.707 5.29303L15.536 8.12103C15.6289 8.21401 15.7026 8.32437 15.7529 8.44583C15.8031 8.56728 15.829 8.69744 15.8289 8.82888C15.8289 8.96033 15.8029 9.09047 15.7526 9.21189C15.7022 9.33331 15.6285 9.44362 15.5355 9.53653C15.4425 9.62944 15.3322 9.70313 15.2107 9.75339C15.0893 9.80364 14.9591 9.82949 14.8276 9.82944C14.6962 9.82939 14.5661 9.80346 14.4446 9.75312C14.3232 9.70277 14.2129 9.62901 14.12 9.53603L13 8.41403ZM6 17H18C18.2652 17 18.5196 17.1054 18.7071 17.2929C18.8946 17.4805 19 17.7348 19 18C19 18.2652 18.8946 18.5196 18.7071 18.7071C18.5196 18.8947 18.2652 19 18 19H6C5.73478 19 5.48043 18.8947 5.29289 18.7071C5.10536 18.5196 5 18.2652 5 18C5 17.7348 5.10536 17.4805 5.29289 17.2929C5.48043 17.1054 5.73478 17 6 17Z" fill="black"/>
</svg>
