<svg width="24" height="24" viewBox="0 0 24 24" fill="none" xmlns="http://www.w3.org/2000/svg">
<path d="M5.534 12.07C5.65695 12.0175 5.78916 11.9903 5.92283 11.9898C6.0565 11.9893 6.18891 12.0156 6.31223 12.0672C6.43555 12.1188 6.54728 12.1945 6.64082 12.29C6.73436 12.3855 6.8078 12.4988 6.85681 12.6231C6.90582 12.7475 6.9294 12.8804 6.92615 13.014C6.92291 13.1477 6.8929 13.2793 6.83792 13.4011C6.78293 13.523 6.70408 13.6325 6.60602 13.7234C6.50796 13.8142 6.39268 13.8845 6.267 13.93C5.59854 14.1934 5.02483 14.6519 4.6205 15.2458C4.21618 15.8397 3.99997 16.5415 4 17.26V19C4 19.2652 4.10536 19.5196 4.29289 19.7071C4.48043 19.8946 4.73478 20 5 20H13C13.2652 20 13.5196 19.8946 13.7071 19.7071C13.8946 19.5196 14 19.2652 14 19V17.353C14.0001 16.6115 13.7749 15.8874 13.3541 15.2768C12.9334 14.6662 12.337 14.1979 11.644 13.934C11.5175 13.8901 11.4012 13.8213 11.3018 13.7316C11.2024 13.6419 11.1221 13.5332 11.0655 13.4119C11.009 13.2905 10.9773 13.1591 10.9725 13.0253C10.9677 12.8916 10.9897 12.7582 11.0374 12.6331C11.0851 12.508 11.1574 12.3938 11.25 12.2972C11.3427 12.2006 11.4538 12.1235 11.5767 12.0706C11.6997 12.0177 11.832 11.9901 11.9659 11.9893C12.0998 11.9885 12.2324 12.0146 12.356 12.066C13.4276 12.4742 14.3499 13.1983 15.0006 14.1425C15.6514 15.0867 15.9999 16.2063 16 17.353V19C16 19.7956 15.6839 20.5587 15.1213 21.1213C14.5587 21.6839 13.7956 22 13 22H5C4.20435 22 3.44129 21.6839 2.87868 21.1213C2.31607 20.5587 2 19.7956 2 19V17.26C2.00014 16.1402 2.33728 15.0463 2.96756 14.1206C3.59785 13.195 4.4921 12.4805 5.534 12.07ZM9 2C10.0609 2 11.0783 2.42143 11.8284 3.17157C12.5786 3.92172 13 4.93913 13 6V8C13 9.06087 12.5786 10.0783 11.8284 10.8284C11.0783 11.5786 10.0609 12 9 12C7.93913 12 6.92172 11.5786 6.17157 10.8284C5.42143 10.0783 5 9.06087 5 8V6C5 4.93913 5.42143 3.92172 6.17157 3.17157C6.92172 2.42143 7.93913 2 9 2V2ZM9 4C8.46957 4 7.96086 4.21071 7.58579 4.58579C7.21071 4.96086 7 5.46957 7 6V8C7 8.53043 7.21071 9.03914 7.58579 9.41421C7.96086 9.78929 8.46957 10 9 10C9.53043 10 10.0391 9.78929 10.4142 9.41421C10.7893 9.03914 11 8.53043 11 8V6C11 5.46957 10.7893 4.96086 10.4142 4.58579C10.0391 4.21071 9.53043 4 9 4ZM19.414 8L20.828 9.414C21.0102 9.6026 21.111 9.8552 21.1087 10.1174C21.1064 10.3796 21.0012 10.6304 20.8158 10.8158C20.6304 11.0012 20.3796 11.1064 20.1174 11.1087C19.8552 11.111 19.6026 11.0102 19.414 10.828L18 9.414L16.586 10.828C16.4938 10.9235 16.3834 10.9997 16.2614 11.0521C16.1394 11.1045 16.0082 11.1321 15.8754 11.1333C15.7426 11.1344 15.6109 11.1091 15.488 11.0588C15.3651 11.0085 15.2535 10.9343 15.1596 10.8404C15.0657 10.7465 14.9915 10.6349 14.9412 10.512C14.8909 10.3891 14.8656 10.2574 14.8667 10.1246C14.8679 9.99182 14.8955 9.8606 14.9479 9.7386C15.0003 9.61659 15.0765 9.50625 15.172 9.414L16.586 8L15.172 6.586C14.9898 6.3974 14.889 6.1448 14.8913 5.8826C14.8936 5.6204 14.9988 5.36959 15.1842 5.18418C15.3696 4.99877 15.6204 4.8936 15.8826 4.89133C16.1448 4.88905 16.3974 4.98984 16.586 5.172L18 6.586L19.414 5.172C19.5062 5.07649 19.6166 5.00031 19.7386 4.9479C19.8606 4.89549 19.9918 4.8679 20.1246 4.86675C20.2574 4.8656 20.3891 4.8909 20.512 4.94118C20.6348 4.99146 20.7465 5.06571 20.8404 5.15961C20.9343 5.2535 21.0085 5.36515 21.0588 5.48805C21.1091 5.61094 21.1344 5.74262 21.1333 5.8754C21.1321 6.00818 21.1045 6.1394 21.0521 6.2614C20.9997 6.38341 20.9235 6.49375 20.828 6.586L19.414 8Z" fill="black"/>
</svg>
