<svg width="24" height="24" viewBox="0 0 24 24" fill="none" xmlns="http://www.w3.org/2000/svg">
<path d="M16.71 12.006C16.698 11.973 16.68 11.943 16.664 11.91C16.481 12.005 16.309 12.101 16.131 12.183C15.956 12.263 15.778 12.335 15.597 12.398C15.412 12.462 15.223 12.512 15.037 12.566C15.038 12.583 15.037 12.594 15.04 12.604C15.048 12.628 15.056 12.653 15.066 12.677C15.3182 13.3276 15.4477 14.0192 15.448 14.717C15.4579 15.3 15.3769 15.8809 15.208 16.439C14.95 17.282 14.533 18.037 13.918 18.672C13.021 19.599 11.918 20.098 10.637 20.214C10.519 20.225 10.399 20.224 10.271 20.228C10.276 20.199 10.275 20.193 10.278 20.191C10.345 20.141 10.412 20.092 10.478 20.041C11.8057 19.0455 12.8807 17.7517 13.616 16.264C14.2284 15.0251 14.5583 13.6658 14.582 12.284C14.597 11.601 14.537 10.924 14.419 10.252C14.2828 9.49008 14.0769 8.74227 13.804 8.018C13.7887 7.98042 13.7713 7.9437 13.752 7.908C13.744 7.84824 13.7353 7.78857 13.726 7.729C13.726 7.709 13.726 7.671 13.724 7.663C13.6595 7.03302 13.5411 6.40973 13.37 5.8C13.1423 4.97271 12.7925 4.18403 12.332 3.46C12.0165 2.95757 11.6294 2.5038 11.183 2.113C11.14 2.077 11.095 2.043 11.042 2C11.04 2.028 11.034 2.045 11.039 2.056C11.071 2.116 11.106 2.173 11.14 2.232C11.9282 3.58725 12.6206 4.99603 13.212 6.448C13.375 6.848 13.523 7.252 13.678 7.654L13.724 7.738L13.749 7.916C13.757 8.128 13.769 8.346 13.773 8.534C13.8006 9.63542 13.7605 10.7375 13.653 11.834C13.6028 12.3405 13.5354 12.8451 13.451 13.347C13.346 13.9771 13.2041 14.6005 13.026 15.214C12.8125 15.9692 12.5195 16.6996 12.152 17.393C11.8266 18.0098 11.4084 18.5731 10.912 19.063C10.449 19.513 9.922 19.867 9.324 20.115C9.26269 20.1419 9.19449 20.1489 9.129 20.135C8.32478 19.981 7.56948 19.6356 6.927 19.128C6.3722 18.6863 5.91464 18.1348 5.583 17.508C5.22157 16.8446 4.99777 16.115 4.925 15.363C4.88276 14.9176 4.88947 14.4689 4.945 14.025C5.00716 13.4826 5.15077 12.9526 5.371 12.453C5.70388 11.7163 6.19042 11.0593 6.798 10.526C7.26006 10.1054 7.79658 9.77471 8.38 9.551C8.75967 9.40903 9.15527 9.31399 9.558 9.268C9.91465 9.22796 10.2744 9.22293 10.632 9.253C11.089 9.288 11.535 9.387 11.964 9.554C12.001 9.569 12.04 9.578 12.095 9.594C12.133 9.296 12.192 9.012 12.28 8.736C12.3727 8.4609 12.4829 8.19201 12.61 7.931C12.543 7.878 12.47 7.866 12.402 7.844C11.8222 7.6604 11.2213 7.55184 10.614 7.521C9.96493 7.48327 9.3137 7.5283 8.676 7.655C7.91503 7.80477 7.188 8.09287 6.531 8.505C5.90717 8.90156 5.34826 9.39199 4.874 9.959C3.806 11.213 3.236 12.666 3.148 14.309C3.1225 14.7816 3.13957 15.2555 3.199 15.725C3.283 16.389 3.451 17.029 3.717 17.643C4.14435 18.6227 4.77493 19.5004 5.567 20.218C6.155 20.758 6.824 21.171 7.57 21.456C8.26142 21.7163 8.98987 21.8648 9.728 21.896C10.4135 21.9351 11.1011 21.8857 11.774 21.749C12.6777 21.5647 13.5303 21.1852 14.272 20.637C14.8503 20.2022 15.3612 19.6843 15.788 19.1C16.6373 17.9705 17.1284 16.6124 17.198 15.201C17.2326 14.6144 17.2021 14.0258 17.107 13.446C17.0271 12.9532 16.8943 12.4704 16.711 12.006H16.71Z" fill="black"/>
<path d="M20.07 4.22991C19.9231 3.67196 19.7035 3.13571 19.417 2.63491C19.376 2.56291 19.33 2.49491 19.277 2.40991L19.173 2.59791C18.973 2.97791 18.723 3.31991 18.413 3.61891C17.945 4.07091 17.405 4.39891 16.768 4.55491C16.713 4.56791 16.658 4.58391 16.602 4.59991C16.1318 4.73127 15.6792 4.91896 15.254 5.15891C14.9648 5.32456 14.711 5.54541 14.507 5.80891C14.1275 6.28557 13.9351 6.88441 13.966 7.49291C13.988 8.00491 14.135 8.48291 14.382 8.93191C14.394 8.95291 14.412 8.97191 14.437 9.00591C16.451 8.51191 17.965 7.35891 19.011 5.53591C19.007 5.59791 19.009 5.62791 19.002 5.65591C18.968 5.81391 18.912 5.96391 18.841 6.10891C18.68 6.42404 18.4768 6.71573 18.237 6.97591C17.827 7.43591 17.362 7.83491 16.874 8.20591C16.282 8.65791 15.662 9.06591 15.019 9.43891C14.972 9.46591 14.916 9.48391 14.88 9.54391C14.967 9.62191 15.05 9.69991 15.137 9.77391C15.467 10.0489 15.826 10.2739 16.237 10.4089C16.624 10.5359 17.017 10.5709 17.42 10.5009C17.8984 10.4156 18.3438 10.1997 18.707 9.87691C19.069 9.56491 19.354 9.18891 19.594 8.77891C19.734 8.54091 19.863 8.29791 19.952 8.03591C20.3656 6.80625 20.4066 5.48182 20.07 4.22891V4.22991Z" fill="black"/>
</svg>
