<svg width="24" height="24" viewBox="0 0 24 24" fill="none" xmlns="http://www.w3.org/2000/svg">
<path d="M6 13.5C5.46957 13.5 4.96086 13.7107 4.58579 14.0858C4.21071 14.4608 4 14.9695 4 15.5V17.5C4 18.0304 4.21071 18.5391 4.58579 18.9142C4.96086 19.2893 5.46957 19.5 6 19.5H12C12.5304 19.5 13.0391 19.2893 13.4142 18.9142C13.7893 18.5391 14 18.0304 14 17.5V15.5C14 14.9695 13.7893 14.4608 13.4142 14.0858C13.0391 13.7107 12.5304 13.5 12 13.5H6ZM15.698 13.973L17.586 12.086C17.961 11.7109 18.4696 11.5001 19 11.5H19.586C20.1164 11.5 20.6251 11.7107 21.0002 12.0858C21.3753 12.4608 21.586 12.9695 21.586 13.5V19.5C21.586 20.0304 21.3753 20.5391 21.0002 20.9142C20.6251 21.2893 20.1164 21.5 19.586 21.5H19C18.4696 21.4999 17.961 21.2891 17.586 20.914L15.698 19.027C15.3956 19.7589 14.8827 20.3846 14.2244 20.8248C13.5661 21.2651 12.7919 21.5 12 21.5H6C4.93913 21.5 3.92172 21.0785 3.17157 20.3284C2.42143 19.5782 2 18.5608 2 17.5V15.5C2 14.4391 2.42143 13.4217 3.17157 12.6715C3.92172 11.9214 4.93913 11.5 6 11.5H12C12.7919 11.4999 13.5661 11.7349 14.2244 12.1751C14.8827 12.6154 15.3956 13.2411 15.698 13.973ZM19 19.5H19.586V13.5H19L16 16.5L19 19.5ZM11.259 4.87897C11.8991 4.21432 12.7281 3.76254 13.6336 3.58484C14.5391 3.40714 15.4774 3.51211 16.3212 3.88553C17.1651 4.25895 17.8737 4.88277 18.3511 5.67244C18.8285 6.46212 19.0516 7.37948 18.9902 8.3002C18.9288 9.22093 18.5858 10.1005 18.0077 10.8198C17.4296 11.539 16.6443 12.0631 15.7584 12.3211C14.8724 12.5791 13.9285 12.5585 13.0546 12.2621C12.1808 11.9657 11.4192 11.4078 10.873 10.664C10.2022 11.4849 9.28789 12.0713 8.26205 12.3387C7.2362 12.606 6.15194 12.5403 5.16584 12.1512C4.17974 11.7621 3.34284 11.0696 2.77599 10.1738C2.20915 9.27793 1.94171 8.22512 2.01229 7.16736C2.08287 6.10961 2.48781 5.10167 3.16865 4.28908C3.84948 3.4765 4.77096 2.90135 5.80002 2.64667C6.82908 2.392 7.91245 2.47099 8.89369 2.87224C9.87492 3.27349 10.7032 3.97622 11.259 4.87897ZM7 18.5C6.73478 18.5 6.48043 18.3946 6.29289 18.2071C6.10536 18.0195 6 17.7652 6 17.5C6 17.2348 6.10536 16.9804 6.29289 16.7929C6.48043 16.6053 6.73478 16.5 7 16.5C7.26522 16.5 7.51957 16.6053 7.70711 16.7929C7.89464 16.9804 8 17.2348 8 17.5C8 17.7652 7.89464 18.0195 7.70711 18.2071C7.51957 18.3946 7.26522 18.5 7 18.5ZM7 10.5C7.79565 10.5 8.55871 10.1839 9.12132 9.62129C9.68393 9.05868 10 8.29562 10 7.49997C10 6.70432 9.68393 5.94126 9.12132 5.37865C8.55871 4.81604 7.79565 4.49997 7 4.49997C6.20435 4.49997 5.44129 4.81604 4.87868 5.37865C4.31607 5.94126 4 6.70432 4 7.49997C4 8.29562 4.31607 9.05868 4.87868 9.62129C5.44129 10.1839 6.20435 10.5 7 10.5ZM14.5 10.5C15.163 10.5 15.7989 10.2366 16.2678 9.76773C16.7366 9.29889 17 8.66301 17 7.99997C17 7.33693 16.7366 6.70104 16.2678 6.2322C15.7989 5.76336 15.163 5.49997 14.5 5.49997C13.837 5.49997 13.2011 5.76336 12.7322 6.2322C12.2634 6.70104 12 7.33693 12 7.99997C12 8.66301 12.2634 9.29889 12.7322 9.76773C13.2011 10.2366 13.837 10.5 14.5 10.5Z" fill="black"/>
</svg>
