<svg width="24" height="24" viewBox="0 0 24 24" fill="none" xmlns="http://www.w3.org/2000/svg">
<path d="M15.98 9.605L18 7.585C18.3751 7.21027 18.8838 6.99985 19.414 7H20C20.5304 7 21.0391 7.21071 21.4142 7.58579C21.7893 7.96086 22 8.46957 22 9V15C22 15.5304 21.7893 16.0391 21.4142 16.4142C21.0391 16.7893 20.5304 17 20 17H19.414C18.8836 16.9999 18.375 16.7891 18 16.414L15.98 14.395C15.882 15.3826 15.4204 16.2984 14.6849 16.9646C13.9493 17.6309 12.9924 17.9999 12 18H6C4.93913 18 3.92172 17.5786 3.17157 16.8284C2.42143 16.0783 2 15.0609 2 14V10C2 8.93913 2.42143 7.92172 3.17157 7.17157C3.92172 6.42143 4.93913 6 6 6H12C12.9924 6.00011 13.9493 6.36913 14.6849 7.03536C15.4204 7.70159 15.882 8.61745 15.98 9.605ZM7 14C7.26522 14 7.51957 13.8946 7.70711 13.7071C7.89464 13.5196 8 13.2652 8 13C8 12.7348 7.89464 12.4804 7.70711 12.2929C7.51957 12.1054 7.26522 12 7 12C6.73478 12 6.48043 12.1054 6.29289 12.2929C6.10536 12.4804 6 12.7348 6 13C6 13.2652 6.10536 13.5196 6.29289 13.7071C6.48043 13.8946 6.73478 14 7 14Z" fill="black"/>
</svg>
