<svg width="24" height="24" viewBox="0 0 24 24" fill="none" xmlns="http://www.w3.org/2000/svg">
<path d="M21.24 11.818C21.2215 11.6735 21.1472 11.542 21.033 11.4516C20.9189 11.3612 20.7739 11.3189 20.629 11.334C20.4046 11.3608 20.179 11.3752 19.953 11.377C18.499 11.377 16.423 11.265 15.14 10.389C15.0297 10.3112 14.9236 10.2278 14.822 10.139C13.859 9.29196 13.65 8.24896 13.644 7.52196C13.636 6.56196 13.859 5.85196 14.305 5.41696C14.5947 5.13311 14.9789 4.96612 15.384 4.94796C15.437 4.95096 15.92 4.99196 16.274 5.52296C16.547 5.93196 16.882 6.86296 16.46 8.76796C16.4376 8.86579 16.4511 8.96842 16.4981 9.05711C16.5451 9.14579 16.6224 9.2146 16.716 9.25096C17.382 9.50296 18.22 9.60596 18.869 9.64596C19.069 9.65796 19.249 9.51996 19.291 9.31996C19.486 8.39996 19.567 7.54996 19.533 6.77496C19.483 5.63896 19.187 4.65796 18.654 3.86096C17.924 2.76496 16.758 2.06996 15.538 2.00496C14.662 1.95696 13.354 2.26796 12.313 3.28496C11.595 3.98696 10.743 5.29596 10.762 7.54596C10.777 9.43596 11.552 11.15 12.942 12.373C13.367 12.747 13.912 13.13 14.602 13.458C13.549 15.3555 12.2408 17.0997 10.714 18.642C8.524 16.864 7.229 13.536 6.508 10.912C5.98536 8.97126 5.6205 6.99147 5.417 4.99196C5.40576 4.86169 5.34404 4.74097 5.24501 4.65558C5.14599 4.5702 5.0175 4.52691 4.887 4.53496L3.936 4.60096L5.374 4.50296L3.004 4.66496C2.9368 4.67045 2.87139 4.68932 2.81159 4.72045C2.75179 4.75158 2.69882 4.79435 2.65578 4.84624C2.61274 4.89812 2.58051 4.95809 2.56097 5.02261C2.54143 5.08713 2.53498 5.15491 2.542 5.22196C2.75741 7.39484 3.15073 9.54639 3.718 11.655C4.312 13.833 5.064 15.733 5.952 17.304C7.12 19.367 8.536 20.879 10.162 21.799C10.4139 21.9421 10.7038 22.0044 10.9923 21.9774C11.2808 21.9504 11.554 21.8354 11.775 21.648C11.827 21.604 13.06 20.559 14.542 18.722C15.3984 17.6625 16.1726 16.5392 16.858 15.362C17.068 15 17.268 14.635 17.456 14.268C18.469 14.398 19.644 14.413 21.004 14.255C21.0786 14.2453 21.1505 14.2208 21.2155 14.183C21.2805 14.1452 21.3374 14.0947 21.3826 14.0347C21.4279 13.9746 21.4607 13.9061 21.4791 13.8331C21.4976 13.7602 21.5013 13.6843 21.49 13.61L21.24 11.818Z" fill="black"/>
</svg>
