<svg width="24" height="24" viewBox="0 0 24 24" fill="none" xmlns="http://www.w3.org/2000/svg">
<path d="M16.613 11.9251C16.6035 11.8529 16.5662 11.7872 16.5091 11.742C16.452 11.6968 16.3795 11.6757 16.307 11.6831C16.1948 11.6963 16.082 11.7034 15.969 11.7041C15.241 11.7041 14.202 11.6481 13.56 11.2101C13.327 11.0507 13.1368 10.8364 13.0061 10.5862C12.8755 10.3359 12.8085 10.0574 12.811 9.77507C12.808 9.29507 12.919 8.94007 13.143 8.72107C13.2881 8.57926 13.4803 8.49594 13.683 8.48707C13.7742 8.49815 13.8616 8.52984 13.9387 8.57974C14.0158 8.62964 14.0806 8.69644 14.128 8.77507C14.264 8.97907 14.432 9.44507 14.221 10.3991C14.2101 10.4479 14.2171 10.499 14.2405 10.5432C14.264 10.5874 14.3025 10.6217 14.349 10.6401C14.682 10.7661 15.102 10.8181 15.427 10.8381C15.527 10.8441 15.617 10.7751 15.637 10.6751C15.735 10.2151 15.776 9.78907 15.759 9.40107C15.733 8.83307 15.585 8.34107 15.319 7.94307C14.953 7.39507 14.37 7.04807 13.759 7.01407C13.321 6.99007 12.667 7.14607 12.146 7.65507C11.786 8.00607 11.36 8.66107 11.369 9.78707C11.3681 10.2443 11.4649 10.6964 11.6531 11.1131C11.8413 11.5298 12.1164 11.9014 12.46 12.2031C12.673 12.3901 12.946 12.5811 13.291 12.7461C12.7639 13.6956 12.1092 14.5684 11.345 15.3401C10.25 14.4501 9.601 12.7841 9.241 11.4711C8.97947 10.5001 8.79688 9.5095 8.695 8.50907C8.68963 8.44379 8.65886 8.38323 8.6093 8.34041C8.55975 8.29759 8.49536 8.27592 8.43 8.28007L7.954 8.31307L8.674 8.26407L7.487 8.34507C7.45326 8.34781 7.42042 8.35729 7.39041 8.37295C7.36041 8.38861 7.33385 8.41013 7.31231 8.43624C7.29077 8.46234 7.27469 8.49251 7.26501 8.52495C7.25534 8.55738 7.25228 8.59143 7.256 8.62507C7.306 9.15607 7.459 10.4281 7.845 11.8431C8.142 12.9331 8.518 13.8841 8.963 14.6701C9.547 15.7021 10.255 16.4601 11.069 16.9201C11.1951 16.9915 11.3401 17.0226 11.4845 17.009C11.6288 16.9954 11.7654 16.9378 11.876 16.8441C11.902 16.8221 12.52 16.2991 13.261 15.3801C13.8202 14.6871 14.309 13.94 14.72 13.1501C15.3097 13.2203 15.9058 13.2183 16.495 13.1441C16.5322 13.1392 16.5681 13.1269 16.6005 13.108C16.633 13.0891 16.6613 13.0639 16.6839 13.034C16.7066 13.004 16.723 12.9698 16.7323 12.9335C16.7415 12.8971 16.7435 12.8592 16.738 12.8221L16.613 11.9251Z" fill="black"/>
<path d="M12 20C14.1217 20 16.1566 19.1571 17.6569 17.6569C19.1571 16.1566 20 14.1217 20 12C20 9.87827 19.1571 7.84344 17.6569 6.34315C16.1566 4.84285 14.1217 4 12 4C9.87827 4 7.84344 4.84285 6.34315 6.34315C4.84285 7.84344 4 9.87827 4 12C4 14.1217 4.84285 16.1566 6.34315 17.6569C7.84344 19.1571 9.87827 20 12 20ZM12 22C6.477 22 2 17.523 2 12C2 6.477 6.477 2 12 2C17.523 2 22 6.477 22 12C22 17.523 17.523 22 12 22Z" fill="black"/>
</svg>
