<svg width="24" height="24" viewBox="0 0 24 24" fill="none" xmlns="http://www.w3.org/2000/svg">
<g clip-path="url(#clip0_201_32468)">
<path d="M9.743 15.5H14.257C13.4755 14.5523 13.0337 13.3702 13.0021 12.1422C12.9705 10.9142 13.3509 9.71097 14.0827 8.72432C14.8144 7.73767 15.8555 7.02439 17.0398 6.69819C18.2241 6.372 19.4835 6.45166 20.6172 6.92448C21.751 7.3973 22.6938 8.23606 23.2955 9.30705C23.8971 10.378 24.1229 11.6196 23.9368 12.8338C23.7507 14.0481 23.1635 15.1651 22.2688 16.0067C21.3741 16.8484 20.2233 17.3664 19 17.478V17.5H6V17.478C4.73393 17.5936 3.4669 17.2671 2.41442 16.5539C1.36195 15.8408 0.589051 14.785 0.22719 13.5662C-0.134671 12.3475 -0.0631397 11.041 0.429615 9.86905C0.922371 8.69709 1.80592 7.73203 2.92996 7.13803C4.054 6.54402 5.34911 6.35777 6.59498 6.61095C7.84086 6.86413 8.96055 7.5411 9.76359 8.52671C10.5666 9.51232 11.0034 10.7457 10.9997 12.017C10.9959 13.2884 10.5518 14.5191 9.743 15.5ZM5.5 15.5C5.95963 15.5 6.41475 15.4095 6.83939 15.2336C7.26403 15.0577 7.64987 14.7999 7.97487 14.4749C8.29988 14.1499 8.55769 13.764 8.73358 13.3394C8.90947 12.9147 9 12.4596 9 12C9 11.5404 8.90947 11.0852 8.73358 10.6606C8.55769 10.236 8.29988 9.85011 7.97487 9.52511C7.64987 9.2001 7.26403 8.9423 6.83939 8.76641C6.41475 8.59051 5.95963 8.49998 5.5 8.49998C4.57174 8.49998 3.6815 8.86873 3.02513 9.52511C2.36875 10.1815 2 11.0717 2 12C2 12.9282 2.36875 13.8185 3.02513 14.4749C3.6815 15.1312 4.57174 15.5 5.5 15.5ZM18.5 15.5C18.9596 15.5 19.4148 15.4095 19.8394 15.2336C20.264 15.0577 20.6499 14.7999 20.9749 14.4749C21.2999 14.1499 21.5577 13.764 21.7336 13.3394C21.9095 12.9147 22 12.4596 22 12C22 11.5404 21.9095 11.0852 21.7336 10.6606C21.5577 10.236 21.2999 9.85011 20.9749 9.52511C20.6499 9.2001 20.264 8.9423 19.8394 8.76641C19.4148 8.59051 18.9596 8.49998 18.5 8.49998C17.5717 8.49998 16.6815 8.86873 16.0251 9.52511C15.3687 10.1815 15 11.0717 15 12C15 12.9282 15.3687 13.8185 16.0251 14.4749C16.6815 15.1312 17.5717 15.5 18.5 15.5Z" fill="black"/>
</g>
<defs>
<clipPath id="clip0_201_32468">
<rect width="24" height="24" fill="white"/>
</clipPath>
</defs>
</svg>
