<svg width="24" height="24" viewBox="0 0 24 24" fill="none" xmlns="http://www.w3.org/2000/svg">
<path d="M12 22C6.477 22 2 17.523 2 12C2 6.477 6.477 2 12 2C17.523 2 22 6.477 22 12C22 17.523 17.523 22 12 22ZM7.12 15.256H8.125L9.949 16.965C10.3196 17.312 10.8083 17.505 11.316 17.505H11.521C11.9453 17.505 12.3523 17.3364 12.6524 17.0364C12.9524 16.7363 13.121 16.3293 13.121 15.905V8.105C13.121 7.68065 12.9524 7.27369 12.6524 6.97363C12.3523 6.67357 11.9453 6.505 11.521 6.505H11.316C10.808 6.50552 10.3193 6.69929 9.949 7.047L8.125 8.756H7.121C6.59057 8.756 6.08186 8.96671 5.70679 9.34179C5.33171 9.71686 5.121 10.2256 5.121 10.756V13.256C5.121 13.7864 5.33171 14.2951 5.70679 14.6702C6.08186 15.0453 6.59057 15.256 7.121 15.256H7.12ZM14.997 10.025C15.256 10.0247 15.5124 10.0755 15.7517 10.1745C15.991 10.2734 16.2085 10.4186 16.3916 10.6016C16.5748 10.7847 16.7201 11.0021 16.8191 11.2413C16.9182 11.4806 16.9691 11.737 16.969 11.996V12.036C16.969 12.559 16.7612 13.0606 16.3914 13.4304C16.0216 13.8002 15.52 14.008 14.997 14.008C14.7318 14.008 14.4774 14.1134 14.2899 14.3009C14.1024 14.4884 13.997 14.7428 13.997 15.008C13.997 15.2732 14.1024 15.5276 14.2899 15.7151C14.4774 15.9026 14.7318 16.008 14.997 16.008C15.5186 16.008 16.0351 15.9053 16.517 15.7056C16.9989 15.506 17.4368 15.2135 17.8056 14.8446C18.1745 14.4758 18.467 14.0379 18.6666 13.556C18.8663 13.0741 18.969 12.5576 18.969 12.036V11.996C18.9687 10.9427 18.5501 9.9327 17.8053 9.18802C17.0604 8.44334 16.0503 8.025 14.997 8.025C14.7318 8.025 14.4774 8.13036 14.2899 8.31789C14.1024 8.50543 13.997 8.75978 13.997 9.025C13.997 9.29022 14.1024 9.54457 14.2899 9.73211C14.4774 9.91964 14.7318 10.025 14.997 10.025ZM15 11C14.7348 11 14.4804 11.1054 14.2929 11.2929C14.1054 11.4804 14 11.7348 14 12C14 12.2652 14.1054 12.5196 14.2929 12.7071C14.4804 12.8946 14.7348 13 15 13C15.2652 13 15.5196 12.8946 15.7071 12.7071C15.8946 12.5196 16 12.2652 16 12C16 11.7348 15.8946 11.4804 15.7071 11.2929C15.5196 11.1054 15.2652 11 15 11ZM8.916 10.756L11.121 8.689V15.323L8.916 13.256H7.121V10.756H8.916Z" fill="black"/>
</svg>
