<svg width="24" height="24" viewBox="0 0 24 24" fill="none" xmlns="http://www.w3.org/2000/svg">
<path d="M6 2H18C19.0609 2 20.0783 2.42143 20.8284 3.17157C21.5786 3.92172 22 4.93913 22 6V18C22 19.0609 21.5786 20.0783 20.8284 20.8284C20.0783 21.5786 19.0609 22 18 22H6C4.93913 22 3.92172 21.5786 3.17157 20.8284C2.42143 20.0783 2 19.0609 2 18V6C2 4.93913 2.42143 3.92172 3.17157 3.17157C3.92172 2.42143 4.93913 2 6 2V2ZM9.336 15.241H10.34L12.163 16.951C12.5339 17.2982 13.023 17.4913 13.531 17.491H13.736C14.1603 17.491 14.5673 17.3224 14.8674 17.0224C15.1674 16.7223 15.336 16.3153 15.336 15.891V8.091C15.336 7.88089 15.2946 7.67283 15.2142 7.47871C15.1338 7.28459 15.0159 7.1082 14.8674 6.95963C14.7188 6.81106 14.5424 6.6932 14.3483 6.61279C14.1542 6.53239 13.9461 6.491 13.736 6.491H13.531C13.0228 6.49099 12.5337 6.68442 12.163 7.032L10.34 8.742H9.336C8.80557 8.742 8.29686 8.95271 7.92179 9.32779C7.54671 9.70286 7.336 10.2116 7.336 10.742V13.242C7.336 13.7724 7.54671 14.2811 7.92179 14.6562C8.29686 15.0313 8.80557 15.242 9.336 15.242V15.241ZM11.131 10.741L13.336 8.674V15.308L11.13 13.241H9.336V10.741H11.13H11.131Z" fill="black"/>
</svg>
