<svg width="24" height="24" viewBox="0 0 24 24" fill="none" xmlns="http://www.w3.org/2000/svg">
<path d="M12 22C6.477 22 2 17.523 2 12C2 6.477 6.477 2 12 2C17.523 2 22 6.477 22 12C22 17.523 17.523 22 12 22ZM12 20C14.1217 20 16.1566 19.1571 17.6569 17.6569C19.1571 16.1566 20 14.1217 20 12C20 9.87827 19.1571 7.84344 17.6569 6.34315C16.1566 4.84285 14.1217 4 12 4C9.87827 4 7.84344 4.84285 6.34315 6.34315C4.84285 7.84344 4 9.87827 4 12C4 14.1217 4.84285 16.1566 6.34315 17.6569C7.84344 19.1571 9.87827 20 12 20ZM17.658 12.057L18.365 12.764C18.5472 12.9526 18.648 13.2052 18.6457 13.4674C18.6434 13.7296 18.5382 13.9804 18.3528 14.1658C18.1674 14.3512 17.9166 14.4564 17.6544 14.4587C17.3922 14.461 17.1396 14.3602 16.951 14.178L16.244 13.471L15.537 14.178C15.3484 14.3602 15.0958 14.461 14.8336 14.4587C14.5714 14.4564 14.3206 14.3512 14.1352 14.1658C13.9498 13.9804 13.8446 13.7296 13.8423 13.4674C13.84 13.2052 13.9408 12.9526 14.123 12.764L14.83 12.057L14.123 11.35C14.0301 11.2572 13.9564 11.1469 13.9061 11.0256C13.8558 10.9043 13.8298 10.7742 13.8298 10.6429C13.8298 10.5115 13.8556 10.3814 13.9058 10.2601C13.956 10.1387 14.0297 10.0284 14.1225 9.9355C14.2153 9.84259 14.3256 9.76888 14.4469 9.71857C14.5682 9.66826 14.6983 9.64234 14.8296 9.6423C14.961 9.64225 15.0911 9.66808 15.2124 9.7183C15.3338 9.76852 15.4441 9.84216 15.537 9.935L16.244 10.643L16.951 9.935C17.1386 9.74749 17.3931 9.6422 17.6584 9.6423C17.9236 9.64239 18.178 9.74786 18.3655 9.9355C18.553 10.1231 18.6583 10.3776 18.6582 10.6429C18.6581 10.9081 18.5526 11.1625 18.365 11.35L17.658 12.057ZM7.282 15.287C6.75157 15.287 6.24286 15.0763 5.86779 14.7012C5.49271 14.3261 5.282 13.8174 5.282 13.287V10.787C5.282 10.2566 5.49271 9.74786 5.86779 9.37279C6.24286 8.99771 6.75157 8.787 7.282 8.787H8.287L10.11 7.078C10.4809 6.73079 10.97 6.53772 11.478 6.538H11.682C12.1063 6.538 12.5133 6.70657 12.8134 7.00663C13.1134 7.30669 13.282 7.71365 13.282 8.138V15.938C13.282 16.3623 13.1134 16.7693 12.8134 17.0694C12.5133 17.3694 12.1063 17.538 11.682 17.538H11.478C10.9697 17.5377 10.4806 17.3439 10.11 16.996L8.287 15.287H7.282ZM9.078 10.787H7.282V13.287H9.078L11.282 15.354V8.72L9.078 10.787Z" fill="black"/>
</svg>
