<svg width="24" height="24" viewBox="0 0 24 24" fill="none" xmlns="http://www.w3.org/2000/svg">
<path d="M13 5H12.4C12.1301 5.0001 11.8631 5.05482 11.6149 5.16085C11.3667 5.26689 11.1426 5.42205 10.956 5.617L7.239 9.5H3V14.5H7.239L10.956 18.383C11.1426 18.5779 11.3667 18.7331 11.6149 18.8391C11.8631 18.9452 12.1301 18.9999 12.4 19H13V5ZM6.385 7.5L9.51 4.234C9.88358 3.84374 10.3323 3.53321 10.8292 3.32112C11.3261 3.10904 11.8608 2.9998 12.401 3H14C14.2652 3 14.5196 3.10536 14.7071 3.29289C14.8946 3.48043 15 3.73478 15 4V20C15 20.2652 14.8946 20.5196 14.7071 20.7071C14.5196 20.8946 14.2652 21 14 21H12.4C11.8601 20.9999 11.3258 20.8906 10.8293 20.6785C10.3328 20.4664 9.88434 20.156 9.511 19.766L6.385 16.5H3C2.46957 16.5 1.96086 16.2893 1.58579 15.9142C1.21071 15.5391 1 15.0304 1 14.5V9.5C1 8.96957 1.21071 8.46086 1.58579 8.08579C1.96086 7.71071 2.46957 7.5 3 7.5H6.385ZM20.415 12L21.828 13.414C21.9235 13.5062 21.9997 13.6166 22.0521 13.7386C22.1045 13.8606 22.1321 13.9918 22.1333 14.1246C22.1344 14.2574 22.1091 14.3891 22.0588 14.512C22.0085 14.6349 21.9343 14.7465 21.8404 14.8404C21.7465 14.9343 21.6348 15.0085 21.512 15.0588C21.3891 15.1091 21.2574 15.1344 21.1246 15.1333C20.9918 15.1321 20.8606 15.1045 20.7386 15.0521C20.6166 14.9997 20.5062 14.9235 20.414 14.828L19 13.414L17.586 14.828C17.4938 14.9235 17.3834 14.9997 17.2614 15.0521C17.1394 15.1045 17.0082 15.1321 16.8754 15.1333C16.7426 15.1344 16.6109 15.1091 16.488 15.0588C16.3651 15.0085 16.2535 14.9343 16.1596 14.8404C16.0657 14.7465 15.9915 14.6349 15.9412 14.512C15.8909 14.3891 15.8656 14.2574 15.8667 14.1246C15.8679 13.9918 15.8955 13.8606 15.9479 13.7386C16.0003 13.6166 16.0765 13.5062 16.172 13.414L17.586 12L16.172 10.586C15.9898 10.3974 15.889 10.1448 15.8913 9.8826C15.8936 9.6204 15.9988 9.36959 16.1842 9.18418C16.3696 8.99877 16.6204 8.8936 16.8826 8.89133C17.1448 8.88905 17.3974 8.98984 17.586 9.172L19 10.586L20.414 9.172C20.5062 9.07649 20.6166 9.00031 20.7386 8.9479C20.8606 8.89549 20.9918 8.8679 21.1246 8.86675C21.2574 8.8656 21.3891 8.8909 21.512 8.94118C21.6348 8.99146 21.7465 9.06571 21.8404 9.15961C21.9343 9.2535 22.0085 9.36515 22.0588 9.48805C22.1091 9.61094 22.1344 9.74262 22.1333 9.8754C22.1321 10.0082 22.1045 10.1394 22.0521 10.2614C21.9997 10.3834 21.9235 10.4938 21.828 10.586L20.414 12H20.415Z" fill="black"/>
</svg>
