<svg width="24" height="24" viewBox="0 0 24 24" fill="none" xmlns="http://www.w3.org/2000/svg">
<path d="M12 22C6.477 22 2 17.523 2 12C2 6.477 6.477 2 12 2C17.523 2 22 6.477 22 12C22 17.523 17.523 22 12 22ZM12 20C14.1217 20 16.1566 19.1571 17.6569 17.6569C19.1571 16.1566 20 14.1217 20 12C20 9.87827 19.1571 7.84344 17.6569 6.34315C16.1566 4.84285 14.1217 4 12 4C9.87827 4 7.84344 4.84285 6.34315 6.34315C4.84285 7.84344 4 9.87827 4 12C4 14.1217 4.84285 16.1566 6.34315 17.6569C7.84344 19.1571 9.87827 20 12 20ZM8.038 15.23C7.50757 15.23 6.99886 15.0193 6.62379 14.6442C6.24871 14.2691 6.038 13.7604 6.038 13.23V10.73C6.038 10.1996 6.24871 9.69086 6.62379 9.31579C6.99886 8.94071 7.50757 8.73 8.038 8.73H9.043L10.866 7.021C11.2366 6.67402 11.7253 6.48097 12.233 6.481H12.438C12.8623 6.481 13.2693 6.64957 13.5694 6.94963C13.8694 7.24969 14.038 7.65665 14.038 8.081V15.881C14.038 16.3053 13.8694 16.7123 13.5694 17.0124C13.2693 17.3124 12.8623 17.481 12.438 17.481H12.233C11.725 17.4805 11.2363 17.2867 10.866 16.939L9.043 15.23H8.038ZM9.833 10.73H8.038V13.23H9.833L12.038 15.297V8.664L9.833 10.73ZM15.703 10.99C15.4378 10.99 15.1834 10.8846 14.9959 10.6971C14.8084 10.5096 14.703 10.2552 14.703 9.99C14.703 9.72478 14.8084 9.47043 14.9959 9.28289C15.1834 9.09536 15.4378 8.99 15.703 8.99C16.4986 8.99 17.2617 9.30607 17.8243 9.86868C18.3869 10.4313 18.703 11.1944 18.703 11.99C18.703 12.7856 18.3869 13.5487 17.8243 14.1113C17.2617 14.6739 16.4986 14.99 15.703 14.99C15.4378 14.99 15.1834 14.8846 14.9959 14.6971C14.8084 14.5096 14.703 14.2552 14.703 13.99C14.703 13.7248 14.8084 13.4704 14.9959 13.2829C15.1834 13.0954 15.4378 12.99 15.703 12.99C15.9682 12.99 16.2226 12.8846 16.4101 12.6971C16.5976 12.5096 16.703 12.2552 16.703 11.99C16.703 11.7248 16.5976 11.4704 16.4101 11.2829C16.2226 11.0954 15.9682 10.99 15.703 10.99Z" fill="black"/>
</svg>
