<svg width="24" height="24" viewBox="0 0 24 24" fill="none" xmlns="http://www.w3.org/2000/svg">
<path d="M6 2H18C19.0609 2 20.0783 2.42143 20.8284 3.17157C21.5786 3.92172 22 4.93913 22 6V18C22 19.0609 21.5786 20.0783 20.8284 20.8284C20.0783 21.5786 19.0609 22 18 22H6C4.93913 22 3.92172 21.5786 3.17157 20.8284C2.42143 20.0783 2 19.0609 2 18V6C2 4.93913 2.42143 3.92172 3.17157 3.17157C3.92172 2.42143 4.93913 2 6 2V2ZM6 4C5.46957 4 4.96086 4.21071 4.58579 4.58579C4.21071 4.96086 4 5.46957 4 6V18C4 18.5304 4.21071 19.0391 4.58579 19.4142C4.96086 19.7893 5.46957 20 6 20H18C18.5304 20 19.0391 19.7893 19.4142 19.4142C19.7893 19.0391 20 18.5304 20 18V6C20 5.46957 19.7893 4.96086 19.4142 4.58579C19.0391 4.21071 18.5304 4 18 4H6ZM14.997 10.025C14.7318 10.025 14.4774 9.91964 14.2899 9.73211C14.1024 9.54457 13.997 9.29022 13.997 9.025C13.997 8.75978 14.1024 8.50543 14.2899 8.31789C14.4774 8.13036 14.7318 8.025 14.997 8.025C16.0503 8.025 17.0604 8.44334 17.8053 9.18802C18.5501 9.9327 18.9687 10.9427 18.969 11.996V12.036C18.969 12.5576 18.8663 13.0741 18.6666 13.556C18.467 14.0379 18.1745 14.4758 17.8056 14.8446C17.4368 15.2135 16.9989 15.506 16.517 15.7056C16.0351 15.9053 15.5186 16.008 14.997 16.008C14.7318 16.008 14.4774 15.9026 14.2899 15.7151C14.1024 15.5276 13.997 15.2732 13.997 15.008C13.997 14.7428 14.1024 14.4884 14.2899 14.3009C14.4774 14.1134 14.7318 14.008 14.997 14.008C15.52 14.008 16.0216 13.8002 16.3914 13.4304C16.7612 13.0606 16.969 12.559 16.969 12.036V11.996C16.9687 11.4732 16.7609 10.9718 16.3911 10.6022C16.0213 10.2326 15.5198 10.025 14.997 10.025ZM15 11C15.2652 11 15.5196 11.1054 15.7071 11.2929C15.8946 11.4804 16 11.7348 16 12C16 12.2652 15.8946 12.5196 15.7071 12.7071C15.5196 12.8946 15.2652 13 15 13C14.7348 13 14.4804 12.8946 14.2929 12.7071C14.1054 12.5196 14 12.2652 14 12C14 11.7348 14.1054 11.4804 14.2929 11.2929C14.4804 11.1054 14.7348 11 15 11ZM7.12 15.256C6.58957 15.256 6.08086 15.0453 5.70579 14.6702C5.33071 14.2951 5.12 13.7864 5.12 13.256V10.756C5.12 10.2256 5.33071 9.71686 5.70579 9.34179C6.08086 8.96671 6.58957 8.756 7.12 8.756H8.125L9.949 7.046C10.3196 6.69902 10.8083 6.50597 11.316 6.506H11.521C11.9453 6.506 12.3523 6.67457 12.6524 6.97463C12.9524 7.27469 13.121 7.68165 13.121 8.106V15.906C13.121 16.3303 12.9524 16.7373 12.6524 17.0374C12.3523 17.3374 11.9453 17.506 11.521 17.506H11.316C10.8082 17.5058 10.3195 17.3123 9.949 16.965L8.125 15.255H7.121L7.12 15.256ZM8.916 10.756H7.121V13.256H8.916L11.121 15.323V8.689L8.916 10.756Z" fill="black"/>
</svg>
