<svg width="24" height="24" viewBox="0 0 24 24" fill="none" xmlns="http://www.w3.org/2000/svg">
<path d="M12 22C6.477 22 2 17.523 2 12C2 6.477 6.477 2 12 2C17.523 2 22 6.477 22 12C22 17.523 17.523 22 12 22ZM12 20C14.1217 20 16.1566 19.1571 17.6569 17.6569C19.1571 16.1566 20 14.1217 20 12C20 9.87827 19.1571 7.84344 17.6569 6.34315C16.1566 4.84285 14.1217 4 12 4C9.87827 4 7.84344 4.84285 6.34315 6.34315C4.84285 7.84344 4 9.87827 4 12C4 14.1217 4.84285 16.1566 6.34315 17.6569C7.84344 19.1571 9.87827 20 12 20ZM9.336 15.241C8.80557 15.241 8.29686 15.0303 7.92179 14.6552C7.54671 14.2801 7.336 13.7714 7.336 13.241V10.741C7.336 10.2106 7.54671 9.70186 7.92179 9.32679C8.29686 8.95171 8.80557 8.741 9.336 8.741H10.34L12.163 7.032C12.5339 6.68479 13.023 6.49172 13.531 6.492H13.736C14.1603 6.492 14.5673 6.66057 14.8674 6.96063C15.1674 7.26069 15.336 7.66765 15.336 8.092V15.892C15.336 16.3163 15.1674 16.7233 14.8674 17.0234C14.5673 17.3234 14.1603 17.492 13.736 17.492H13.531C13.0227 17.4917 12.5336 17.2979 12.163 16.95L10.34 15.241H9.336ZM11.131 10.741H9.336V13.241H11.13L13.335 15.308V8.674L11.13 10.741H11.131Z" fill="black"/>
</svg>
