<svg width="24" height="24" viewBox="0 0 24 24" fill="none" xmlns="http://www.w3.org/2000/svg">
<path d="M6 2H18C19.0609 2 20.0783 2.42143 20.8284 3.17157C21.5786 3.92172 22 4.93913 22 6V18C22 19.0609 21.5786 20.0783 20.8284 20.8284C20.0783 21.5786 19.0609 22 18 22H6C4.93913 22 3.92172 21.5786 3.17157 20.8284C2.42143 20.0783 2 19.0609 2 18V6C2 4.93913 2.42143 3.92172 3.17157 3.17157C3.92172 2.42143 4.93913 2 6 2V2ZM6 4C5.46957 4 4.96086 4.21071 4.58579 4.58579C4.21071 4.96086 4 5.46957 4 6V18C4 18.5304 4.21071 19.0391 4.58579 19.4142C4.96086 19.7893 5.46957 20 6 20H18C18.5304 20 19.0391 19.7893 19.4142 19.4142C19.7893 19.0391 20 18.5304 20 18V6C20 5.46957 19.7893 4.96086 19.4142 4.58579C19.0391 4.21071 18.5304 4 18 4H6ZM9.336 15.241C8.80557 15.241 8.29686 15.0303 7.92179 14.6552C7.54671 14.2801 7.336 13.7714 7.336 13.241V10.741C7.336 10.2106 7.54671 9.70186 7.92179 9.32679C8.29686 8.95171 8.80557 8.741 9.336 8.741H10.34L12.163 7.032C12.5339 6.68479 13.023 6.49172 13.531 6.492H13.736C14.1603 6.492 14.5673 6.66057 14.8674 6.96063C15.1674 7.26069 15.336 7.66765 15.336 8.092V15.892C15.336 16.3163 15.1674 16.7233 14.8674 17.0234C14.5673 17.3234 14.1603 17.492 13.736 17.492H13.531C13.0227 17.4917 12.5336 17.2979 12.163 16.95L10.34 15.241H9.336ZM11.131 10.741H9.336V13.241H11.13L13.335 15.308V8.674L11.13 10.741H11.131Z" fill="black"/>
</svg>
