<svg width="24" height="24" viewBox="0 0 24 24" fill="none" xmlns="http://www.w3.org/2000/svg">
<path d="M6 2H18C19.0609 2 20.0783 2.42143 20.8284 3.17157C21.5786 3.92172 22 4.93913 22 6V18C22 19.0609 21.5786 20.0783 20.8284 20.8284C20.0783 21.5786 19.0609 22 18 22H6C4.93913 22 3.92172 21.5786 3.17157 20.8284C2.42143 20.0783 2 19.0609 2 18V6C2 4.93913 2.42143 3.92172 3.17157 3.17157C3.92172 2.42143 4.93913 2 6 2V2ZM6 4C5.46957 4 4.96086 4.21071 4.58579 4.58579C4.21071 4.96086 4 5.46957 4 6V18C4 18.5304 4.21071 19.0391 4.58579 19.4142C4.96086 19.7893 5.46957 20 6 20H18C18.5304 20 19.0391 19.7893 19.4142 19.4142C19.7893 19.0391 20 18.5304 20 18V6C20 5.46957 19.7893 4.96086 19.4142 4.58579C19.0391 4.21071 18.5304 4 18 4H6ZM8.038 15.23C7.50757 15.23 6.99886 15.0193 6.62379 14.6442C6.24871 14.2691 6.038 13.7604 6.038 13.23V10.73C6.038 10.1996 6.24871 9.69086 6.62379 9.31579C6.99886 8.94071 7.50757 8.73 8.038 8.73H9.043L10.866 7.021C11.2366 6.67402 11.7253 6.48097 12.233 6.481H12.438C12.8623 6.481 13.2693 6.64957 13.5694 6.94963C13.8694 7.24969 14.038 7.65665 14.038 8.081V15.881C14.038 16.3053 13.8694 16.7123 13.5694 17.0124C13.2693 17.3124 12.8623 17.481 12.438 17.481H12.233C11.725 17.4805 11.2363 17.2867 10.866 16.939L9.043 15.23H8.038ZM9.833 10.73H8.038V13.23H9.833L12.038 15.297V8.664L9.833 10.73ZM15.703 10.99C15.4378 10.99 15.1834 10.8846 14.9959 10.6971C14.8084 10.5096 14.703 10.2552 14.703 9.99C14.703 9.72478 14.8084 9.47043 14.9959 9.28289C15.1834 9.09536 15.4378 8.99 15.703 8.99C16.4986 8.99 17.2617 9.30607 17.8243 9.86868C18.3869 10.4313 18.703 11.1944 18.703 11.99C18.703 12.7856 18.3869 13.5487 17.8243 14.1113C17.2617 14.6739 16.4986 14.99 15.703 14.99C15.4378 14.99 15.1834 14.8846 14.9959 14.6971C14.8084 14.5096 14.703 14.2552 14.703 13.99C14.703 13.7248 14.8084 13.4704 14.9959 13.2829C15.1834 13.0954 15.4378 12.99 15.703 12.99C15.9682 12.99 16.2226 12.8846 16.4101 12.6971C16.5976 12.5096 16.703 12.2552 16.703 11.99C16.703 11.7248 16.5976 11.4704 16.4101 11.2829C16.2226 11.0954 15.9682 10.99 15.703 10.99Z" fill="black"/>
</svg>
