<svg width="24" height="24" viewBox="0 0 24 24" fill="none" xmlns="http://www.w3.org/2000/svg">
<path d="M12 22C6.477 22 2 17.523 2 12C2 6.477 6.477 2 12 2C17.523 2 22 6.477 22 12C22 17.523 17.523 22 12 22ZM8.038 15.23H9.043L10.866 16.94C11.2366 17.287 11.7253 17.48 12.233 17.48H12.438C12.8623 17.48 13.2693 17.3114 13.5694 17.0114C13.8694 16.7113 14.038 16.3043 14.038 15.88V8.08C14.038 7.65565 13.8694 7.24869 13.5694 6.94863C13.2693 6.64857 12.8623 6.48 12.438 6.48H12.233C11.7252 6.48024 11.2365 6.67366 10.866 7.021L9.043 8.731H8.038C7.50757 8.731 6.99886 8.94171 6.62379 9.31679C6.24871 9.69186 6.038 10.2006 6.038 10.731V13.231C6.038 13.7614 6.24871 14.2701 6.62379 14.6452C6.99886 15.0203 7.50757 15.231 8.038 15.231V15.23ZM15.702 10.99C15.9672 10.99 16.2216 11.0954 16.4091 11.2829C16.5966 11.4704 16.702 11.7248 16.702 11.99C16.702 12.2552 16.5966 12.5096 16.4091 12.6971C16.2216 12.8846 15.9672 12.99 15.702 12.99C15.4368 12.99 15.1824 13.0954 14.9949 13.2829C14.8074 13.4704 14.702 13.7248 14.702 13.99C14.702 14.2552 14.8074 14.5096 14.9949 14.6971C15.1824 14.8846 15.4368 14.99 15.702 14.99C16.4976 14.99 17.2607 14.6739 17.8233 14.1113C18.3859 13.5487 18.702 12.7856 18.702 11.99C18.702 11.1944 18.3859 10.4313 17.8233 9.86868C17.2607 9.30607 16.4976 8.99 15.702 8.99C15.4368 8.99 15.1824 9.09536 14.9949 9.28289C14.8074 9.47043 14.702 9.72478 14.702 9.99C14.702 10.2552 14.8074 10.5096 14.9949 10.6971C15.1824 10.8846 15.4368 10.99 15.702 10.99ZM9.833 10.73L12.038 8.664V15.297L9.833 13.23H8.038V10.73H9.833Z" fill="black"/>
</svg>
