<svg width="24" height="24" viewBox="0 0 24 24" fill="none" xmlns="http://www.w3.org/2000/svg">
<path d="M13 11H15C15.2652 11 15.5196 11.1054 15.7071 11.2929C15.8946 11.4804 16 11.7348 16 12C16 12.2652 15.8946 12.5196 15.7071 12.7071C15.5196 12.8946 15.2652 13 15 13H12C11.7348 13 11.4804 12.8946 11.2929 12.7071C11.1054 12.5196 11 12.2652 11 12V8C11 7.73478 11.1054 7.48043 11.2929 7.29289C11.4804 7.10536 11.7348 7 12 7C12.2652 7 12.5196 7.10536 12.7071 7.29289C12.8946 7.48043 13 7.73478 13 8V11ZM8 5.07V4C8 3.20435 8.31607 2.44129 8.87868 1.87868C9.44129 1.31607 10.2044 1 11 1L13 1C13.7957 1 14.5587 1.31607 15.1213 1.87868C15.6839 2.44129 16 3.20435 16 4V5.07C17.2166 5.77207 18.2269 6.7822 18.9291 7.99875C19.6312 9.2153 20.0006 10.5953 20 12C20.0006 13.4047 19.6312 14.7847 18.9291 16.0013C18.2269 17.2178 17.2166 18.2279 16 18.93V20C16 20.7956 15.6839 21.5587 15.1213 22.1213C14.5587 22.6839 13.7957 23 13 23H11C10.2044 23 9.44129 22.6839 8.87868 22.1213C8.31607 21.5587 8 20.7956 8 20V18.93C6.78338 18.2279 5.77314 17.2178 5.07095 16.0013C4.36875 14.7847 3.99938 13.4047 4 12C3.99938 10.5953 4.36875 9.2153 5.07095 7.99875C5.77314 6.7822 6.78338 5.77207 8 5.07ZM10 4.252C10.6534 4.08416 11.3254 3.99949 12 4C12.69 4 13.36 4.088 14 4.252V4C14 3.73478 13.8946 3.48043 13.7071 3.29289C13.5196 3.10536 13.2652 3 13 3H11C10.7348 3 10.4804 3.10536 10.2929 3.29289C10.1054 3.48043 10 3.73478 10 4V4.252ZM10 19.748V20C10 20.2652 10.1054 20.5196 10.2929 20.7071C10.4804 20.8946 10.7348 21 11 21H13C13.2652 21 13.5196 20.8946 13.7071 20.7071C13.8946 20.5196 14 20.2652 14 20V19.748C12.6879 20.0847 11.3121 20.0847 10 19.748ZM12 18C12.7879 18 13.5681 17.8448 14.2961 17.5433C15.0241 17.2417 15.6855 16.7998 16.2426 16.2426C16.7998 15.6855 17.2418 15.0241 17.5433 14.2961C17.8448 13.5681 18 12.7879 18 12C18 11.2121 17.8448 10.4319 17.5433 9.7039C17.2418 8.97595 16.7998 8.31451 16.2426 7.75736C15.6855 7.20021 15.0241 6.75825 14.2961 6.45672C13.5681 6.15519 12.7879 6 12 6C10.4087 6 8.88258 6.63214 7.75736 7.75736C6.63214 8.88258 6 10.4087 6 12C6 13.5913 6.63214 15.1174 7.75736 16.2426C8.88258 17.3679 10.4087 18 12 18Z" fill="black"/>
</svg>
