<svg width="24" height="24" viewBox="0 0 24 24" fill="none" xmlns="http://www.w3.org/2000/svg">
<path d="M11.516 2.01206C6.206 2.26206 2.017 6.65206 2.033 11.9291C2.03564 13.4824 2.40753 15.0128 3.118 16.3941L2.06 21.4951C2.0471 21.5588 2.05048 21.6248 2.06983 21.687C2.08919 21.7491 2.1239 21.8053 2.17075 21.8505C2.2176 21.8956 2.27508 21.9283 2.33787 21.9453C2.40067 21.9624 2.46675 21.9633 2.53 21.9481L7.564 20.7641C8.89729 21.4229 10.361 21.7755 11.848 21.7961C17.275 21.8791 21.799 17.6011 21.968 12.2161C22.15 6.44106 17.351 1.73506 11.516 2.01106V2.01206ZM17.523 17.3791C16.7975 18.102 15.9364 18.6746 14.9892 19.0642C14.042 19.4537 13.0272 19.6525 12.003 19.6491C10.798 19.6528 9.60869 19.3761 8.529 18.8411L7.828 18.4941L4.741 19.2201L5.391 16.0891L5.045 15.4171C4.4841 14.3298 4.19324 13.1235 4.197 11.9001C4.197 9.83006 5.009 7.88306 6.483 6.42006C7.9522 4.96576 9.93576 4.1497 12.003 4.14906C14.089 4.14906 16.049 4.95506 17.523 6.41906C18.2492 7.1347 18.8255 7.98791 19.2182 8.92883C19.6109 9.86975 19.8121 10.8795 19.81 11.8991C19.81 13.9511 18.985 15.9291 17.523 17.3801V17.3791Z" fill="black"/>
<path d="M16.842 14.045L14.911 13.495C14.7864 13.4592 14.6544 13.4576 14.529 13.4903C14.4036 13.5231 14.2892 13.5889 14.198 13.681L13.726 14.159C13.6283 14.2579 13.5037 14.3259 13.3676 14.3543C13.2315 14.3828 13.0901 14.3705 12.961 14.319C12.048 13.952 10.126 12.256 9.63499 11.407C9.56616 11.2871 9.53472 11.1493 9.54469 11.0114C9.55467 10.8735 9.60561 10.7418 9.69099 10.633L10.103 10.103C10.1823 10.0015 10.2325 9.88023 10.2482 9.75234C10.2638 9.62445 10.2444 9.4947 10.192 9.377L9.37999 7.553C9.33406 7.45105 9.26511 7.36114 9.17857 7.29034C9.09202 7.21954 8.99023 7.16979 8.88121 7.14498C8.77218 7.12017 8.65888 7.12098 8.55022 7.14736C8.44156 7.17374 8.3405 7.22496 8.25499 7.297C7.71599 7.75 7.07599 8.437 6.99899 9.2C6.86199 10.543 7.44199 12.236 9.63599 14.27C12.171 16.619 14.202 16.93 15.523 16.611C16.273 16.431 16.873 15.708 17.25 15.117C17.3103 15.0231 17.3477 14.9164 17.3592 14.8054C17.3708 14.6945 17.3561 14.5823 17.3164 14.4781C17.2768 14.3738 17.2131 14.2803 17.1307 14.2051C17.0483 14.1299 16.9494 14.075 16.842 14.045Z" fill="black"/>
</svg>
