<svg width="24" height="24" viewBox="0 0 24 24" fill="none" xmlns="http://www.w3.org/2000/svg">
<path d="M21.857 6.02102H17.875V6.70802H18.273C18.584 6.70802 18.865 6.86902 19.024 7.13902C19.1022 7.27045 19.1448 7.41999 19.1476 7.5729C19.1504 7.72581 19.1133 7.87681 19.04 8.01102L14.757 15.941L12.807 11.251L14.643 7.84902C14.8279 7.50455 15.1027 7.21658 15.4381 7.01569C15.7735 6.81479 16.157 6.70848 16.548 6.70802H16.765V6.02002H12.653V6.70802H13.051C13.362 6.70802 13.643 6.86902 13.801 7.13902C13.8794 7.27036 13.9221 7.41985 13.9251 7.57277C13.9281 7.72568 13.8912 7.87673 13.818 8.01102L12.485 10.478L11.297 7.62202C11.2545 7.52192 11.2377 7.4128 11.248 7.30455C11.2583 7.19629 11.2954 7.09231 11.356 7.00202C11.4146 6.91118 11.4952 6.8366 11.5903 6.78521C11.6854 6.73381 11.7919 6.70726 11.9 6.70802H12.335V6.02002H7.467V6.70802H7.661C8.57 6.70802 9.384 7.25402 9.735 8.09902L11.49 12.32L9.535 15.942L6.075 7.62202C6.03251 7.52192 6.01566 7.4128 6.02596 7.30455C6.03626 7.19629 6.07339 7.09231 6.134 7.00202C6.19259 6.91118 6.27317 6.8366 6.36827 6.78521C6.46337 6.73381 6.56991 6.70726 6.678 6.70802H7.276V6.02002H2V6.70802H2.439C3.347 6.70802 4.162 7.25402 4.513 8.09902L8.501 17.69C8.53325 17.7678 8.58688 17.8349 8.65568 17.8835C8.72447 17.9321 8.80563 17.9603 8.88975 17.9647C8.97387 17.969 9.05752 17.9495 9.131 17.9084C9.20449 17.8672 9.26482 17.8061 9.305 17.732L9.825 16.768L11.811 13.092L13.723 17.69C13.7554 17.7678 13.8091 17.8348 13.8779 17.8833C13.9468 17.9318 14.028 17.9598 14.1121 17.9641C14.1962 17.9684 14.2798 17.9488 14.3532 17.9075C14.4267 17.8663 14.4869 17.8051 14.527 17.731L15.047 16.768L19.866 7.84802C20.0511 7.50407 20.3258 7.2166 20.661 7.01608C20.9962 6.81556 21.3794 6.70946 21.77 6.70902H21.987V6.02002H21.857V6.02102Z" fill="black"/>
</svg>
