<svg width="24" height="24" viewBox="0 0 24 24" fill="none" xmlns="http://www.w3.org/2000/svg">
<path d="M11.99 2C6.474 2 2 6.473 2 11.99C2 17.508 6.473 21.981 11.99 21.981C17.508 21.981 21.981 17.508 21.981 11.991C21.981 6.473 17.508 2 11.991 2H11.99ZM3.428 11.99C3.428 10.782 3.696 9.633 4.17 8.596L8.255 19.496C5.398 18.145 3.428 15.291 3.428 11.991V11.99ZM11.992 20.333C11.1736 20.3322 10.3592 20.2181 9.572 19.994L12.142 12.721L14.772 19.745L14.832 19.861C13.9178 20.1737 12.9582 20.3332 11.992 20.333ZM13.168 8.08C13.683 8.053 14.148 8 14.148 8C14.609 7.947 14.556 7.288 14.095 7.313C14.095 7.313 12.707 7.419 11.811 7.419C10.971 7.419 9.555 7.313 9.555 7.313C9.093 7.287 9.04 7.973 9.5 8.001C9.5 8.001 9.938 8.053 10.398 8.08L11.733 11.64L9.859 17.115L6.742 8.081C7.259 8.055 7.722 8.002 7.722 8.002C8.182 7.948 8.129 7.289 7.668 7.314C7.668 7.314 6.281 7.42 5.387 7.42L4.836 7.41C6.366 5.146 8.998 3.65 11.989 3.65C14.219 3.65 16.248 4.48 17.773 5.84L17.661 5.832C16.82 5.832 16.224 6.545 16.224 7.312C16.224 8 16.63 8.58 17.064 9.268C17.393 9.825 17.77 10.538 17.77 11.568C17.77 12.282 17.49 13.11 17.12 14.266L16.264 17.045L13.168 8.08ZM16.295 19.197L18.912 11.832C19.402 10.642 19.562 9.692 19.562 8.845C19.562 8.538 19.542 8.253 19.506 7.987C20.194 9.20895 20.5553 10.5877 20.555 11.99C20.554 15.067 18.842 17.753 16.295 19.197Z" fill="black"/>
</svg>
