<svg width="24" height="24" viewBox="0 0 24 24" fill="none" xmlns="http://www.w3.org/2000/svg">
<path d="M3.464 7.74804C3.524 8.69004 3.914 9.61304 4.628 10.326C5.12447 10.8233 5.74326 11.1809 6.42199 11.3628C7.10072 11.5447 7.81541 11.5444 8.494 11.362L9.608 11.064L18.77 20.225C18.9586 20.4072 19.2112 20.508 19.4734 20.5057C19.7356 20.5034 19.9864 20.3983 20.1718 20.2129C20.3572 20.0275 20.4624 19.7766 20.4647 19.5144C20.467 19.2522 20.3662 18.9996 20.184 18.811L11.022 9.65004L11.32 8.53504C11.5022 7.85659 11.5024 7.1421 11.3205 6.46357C11.1386 5.78503 10.7811 5.16641 10.284 4.67004C9.59538 3.98063 8.67853 3.56666 7.706 3.50604L8.93 4.72804C9.49253 5.29083 9.80844 6.05403 9.80826 6.84975C9.80807 7.64547 9.49179 8.40852 8.929 8.97104C8.36621 9.53357 7.60301 9.84948 6.8073 9.8493C6.01158 9.84911 5.24853 9.53283 4.686 8.97004L3.464 7.74804ZM2.564 4.02104L6.1 7.55604C6.28751 7.74368 6.54188 7.84915 6.80715 7.84925C7.07242 7.84934 7.32686 7.74405 7.5145 7.55654C7.70214 7.36903 7.80761 7.11467 7.80771 6.8494C7.8078 6.58413 7.70251 6.32968 7.515 6.14204L3.979 2.60604C4.98589 1.89108 6.18881 1.5041 7.4237 1.49788C8.65859 1.49166 9.86535 1.8665 10.8794 2.57129C11.8934 3.27608 12.6654 4.27649 13.09 5.43611C13.5146 6.59573 13.5712 7.85809 13.252 9.05104L21.598 17.397C22.1607 17.9597 22.4768 18.7228 22.4768 19.5185C22.4768 20.3143 22.1607 21.0774 21.598 21.64C21.0353 22.2027 20.2722 22.5188 19.4765 22.5188C18.6808 22.5188 17.9177 22.2027 17.355 21.64L9.01 13.294C7.8169 13.6134 6.55431 13.557 5.39448 13.1324C4.23465 12.7078 3.23405 11.9357 2.5292 10.9214C1.82435 9.90717 1.44956 8.70016 1.45597 7.46507C1.46238 6.22997 1.84967 5.02692 2.565 4.02004L2.564 4.02104ZM18.064 19.517L19.484 18.107L18.064 16.693L16.645 18.107L18.063 19.517H18.064Z" fill="black"/>
</svg>
