<svg width="24" height="24" viewBox="0 0 24 24" fill="none" xmlns="http://www.w3.org/2000/svg">
<path d="M19.477 14.84L15.234 19.083L9.01 12.86C7.81705 13.1792 6.55468 13.1226 5.39507 12.698C4.23545 12.2734 3.23503 11.5014 2.53024 10.4874C1.82546 9.47335 1.45061 8.2666 1.45683 7.03171C1.46305 5.79681 1.85003 4.5939 2.565 3.58701L6.1 7.12001C6.2875 7.30765 6.54187 7.41312 6.80714 7.41321C7.07241 7.4133 7.32686 7.30802 7.5145 7.12051C7.70214 6.933 7.8076 6.67863 7.8077 6.41336C7.80779 6.14809 7.7025 5.89365 7.515 5.70601L3.979 2.17001C4.98589 1.45504 6.1888 1.06806 7.42369 1.06184C8.65859 1.05562 9.86534 1.43047 10.8794 2.13525C11.8934 2.84004 12.6654 3.84046 13.09 5.00008C13.5146 6.15969 13.5712 7.42206 13.252 8.61501L19.477 14.84ZM20.891 16.255L21.598 16.962C22.1607 17.5247 22.4767 18.2878 22.4767 19.0835C22.4767 19.8792 22.1607 20.6424 21.598 21.205C21.0353 21.7677 20.2722 22.0838 19.4765 22.0838C18.6808 22.0838 17.9177 21.7677 17.355 21.205L16.648 20.497L20.891 16.255Z" fill="black"/>
</svg>
