<svg width="24" height="24" viewBox="0 0 24 24" fill="none" xmlns="http://www.w3.org/2000/svg">
<path d="M21.789 1.48003L22.379 2.07003C23.192 2.88403 23.069 4.32703 22.102 5.29303L9.935 17.46L5.993 18.902C5.498 19.084 5.016 18.848 4.918 18.377C4.88488 18.2062 4.90047 18.0294 4.963 17.867L6.433 13.891L18.566 1.75703C19.533 0.791025 20.976 0.667025 21.789 1.48103V1.48003ZM9.404 2.69003C9.53532 2.69003 9.66536 2.71589 9.78668 2.76615C9.90801 2.8164 10.0182 2.89006 10.1111 2.98292C10.204 3.07578 10.2776 3.18602 10.3279 3.30734C10.3781 3.42867 10.404 3.5587 10.404 3.69003C10.404 3.82135 10.3781 3.95138 10.3279 4.07271C10.2776 4.19403 10.204 4.30427 10.1111 4.39713C10.0182 4.48999 9.90801 4.56365 9.78668 4.6139C9.66536 4.66416 9.53532 4.69003 9.404 4.69003H5.404C4.87357 4.69003 4.36486 4.90074 3.98979 5.27581C3.61471 5.65088 3.404 6.15959 3.404 6.69003V18.69C3.404 19.2205 3.61471 19.7292 3.98979 20.1042C4.36486 20.4793 4.87357 20.69 5.404 20.69H17.404C17.9344 20.69 18.4431 20.4793 18.8182 20.1042C19.1933 19.7292 19.404 19.2205 19.404 18.69V14.69C19.404 14.4248 19.5094 14.1705 19.6969 13.9829C19.8844 13.7954 20.1388 13.69 20.404 13.69C20.6692 13.69 20.9236 13.7954 21.1111 13.9829C21.2986 14.1705 21.404 14.4248 21.404 14.69V18.69C21.404 19.7509 20.9826 20.7683 20.2324 21.5185C19.4823 22.2686 18.4649 22.69 17.404 22.69H5.404C4.34313 22.69 3.32572 22.2686 2.57557 21.5185C1.82543 20.7683 1.404 19.7509 1.404 18.69V6.69003C1.404 5.62916 1.82543 4.61174 2.57557 3.8616C3.32572 3.11145 4.34313 2.69003 5.404 2.69003H9.404Z" fill="black"/>
</svg>
