<svg width="24" height="24" viewBox="0 0 24 24" fill="none" xmlns="http://www.w3.org/2000/svg">
<path d="M12 20C14.1217 20 16.1566 19.1571 17.6569 17.6569C19.1571 16.1566 20 14.1217 20 12C20 9.87827 19.1571 7.84344 17.6569 6.34315C16.1566 4.84285 14.1217 4 12 4C9.87827 4 7.84344 4.84285 6.34315 6.34315C4.84285 7.84344 4 9.87827 4 12C4 14.1217 4.84285 16.1566 6.34315 17.6569C7.84344 19.1571 9.87827 20 12 20ZM12 22C6.477 22 2 17.523 2 12C2 6.477 6.477 2 12 2C17.523 2 22 6.477 22 12C22 17.523 17.523 22 12 22Z" fill="black"/>
<path d="M15.055 10.483C14.81 10.549 12.571 12.285 12.424 12.711C12.391 12.859 12.427 14.285 12.46 14.499C12.607 14.532 13.672 14.504 13.868 14.536L13.844 14.977C13.653 14.962 12.299 14.966 11.527 14.966C11.135 14.966 9.873 15.009 9.486 14.998L9.559 14.578C9.772 14.563 10.652 14.618 10.844 14.412C10.94 14.31 10.91 12.954 10.878 12.724C10.796 12.479 8.834 10.021 8.321 9.618H7V9H11.457V9.043C11.462 9.04296 11.467 9.04329 11.472 9.044L11.457 9.149V9.618H10.113C10.712 10.494 11.57 11.551 11.937 12.059L13.732 10.433H12.665L12.515 9.815H16.423L16.393 9.859L16.408 9.86L16.128 10.265L16.12 10.266L16.007 10.433H15.286C15.193 10.453 15.111 10.472 15.055 10.483ZM16.33 14.353L15.985 14.337L15.6 14.29L15.604 14.95L15.907 14.976L16.234 15L16.33 14.354V14.353ZM17 11.2C16.5614 11.1667 16.1236 11.1231 15.687 11.069L15.704 13.857L16.303 13.905L17 11.199V11.2Z" fill="black"/>
</svg>
