<svg width="24" height="24" viewBox="0 0 24 24" fill="none" xmlns="http://www.w3.org/2000/svg">
<path d="M10.393 16.08L7.63001 19.444C7.53971 19.554 7.4767 19.6838 7.44612 19.8228C7.41554 19.9619 7.41825 20.1061 7.45403 20.2439C7.48981 20.3816 7.55765 20.509 7.65201 20.6155C7.74637 20.7221 7.86458 20.8048 7.99701 20.857L10.698 21.92C10.833 21.9731 10.9788 21.9928 11.123 21.9776C11.2673 21.9624 11.4057 21.9127 11.5267 21.8326C11.6476 21.7526 11.7475 21.6446 11.8179 21.5177C11.8883 21.3909 11.9271 21.249 11.931 21.104L12.048 16.697C12.071 15.808 10.958 15.393 10.393 16.08ZM9.93401 12.735L5.83601 11.264C5.70211 11.2161 5.55877 11.2004 5.41767 11.2183C5.27658 11.2363 5.14171 11.2873 5.02406 11.3672C4.90641 11.4471 4.80931 11.5537 4.74066 11.6783C4.672 11.8028 4.63375 11.9419 4.62901 12.084L4.53601 14.986C4.53157 15.1309 4.56208 15.2747 4.62496 15.4054C4.68784 15.536 4.78124 15.6495 4.89727 15.7364C5.0133 15.8233 5.14855 15.881 5.29157 15.9046C5.4346 15.9282 5.58121 15.917 5.71901 15.872L9.90901 14.5C10.754 14.224 10.77 13.035 9.93401 12.735ZM14.63 13.207L18.828 12.05C18.9651 12.0121 19.0914 11.9423 19.1964 11.8463C19.3014 11.7503 19.3823 11.6309 19.4324 11.4977C19.4825 11.3646 19.5004 11.2214 19.4847 11.08C19.469 10.9386 19.4201 10.8029 19.342 10.684L17.747 8.25801C17.6672 8.13708 17.5594 8.03713 17.4328 7.96662C17.3062 7.8961 17.1645 7.85709 17.0197 7.85287C16.8748 7.84866 16.7311 7.87936 16.6006 7.94239C16.4701 8.00542 16.3567 8.09893 16.27 8.21501L13.634 11.749C13.103 12.462 13.774 13.443 14.63 13.207ZM11.59 3.12001C11.5975 2.95168 11.5651 2.78395 11.4955 2.63049C11.4259 2.47703 11.3211 2.34218 11.1895 2.23691C11.0579 2.13165 10.9033 2.05895 10.7383 2.02473C10.5733 1.99052 10.4026 1.99575 10.24 2.04001L6.91601 2.94601C6.75006 2.9913 6.59748 3.07592 6.47119 3.19271C6.3449 3.3095 6.24863 3.45502 6.19054 3.61693C6.13245 3.77883 6.11425 3.95236 6.13748 4.1228C6.16072 4.29324 6.2247 4.45556 6.32401 4.59601L10.137 11.202C10.167 11.256 10.202 11.308 10.242 11.355C10.807 12.018 11.867 11.773 12.128 10.995C12.175 10.856 12.188 10.708 12.176 10.561L11.591 3.12101L11.59 3.12001ZM18.856 16.226L14.641 14.932C13.791 14.672 13.093 15.633 13.603 16.361L16.103 19.925C16.1848 20.0415 16.293 20.1371 16.4188 20.2038C16.5445 20.2706 16.6843 20.3067 16.8266 20.3091C16.969 20.3115 17.1099 20.2803 17.2379 20.2179C17.3659 20.1555 17.4773 20.0637 17.563 19.95L19.312 17.633C19.3994 17.5172 19.4576 17.3819 19.4816 17.2388C19.5056 17.0957 19.4948 16.9489 19.4501 16.8109C19.4053 16.6728 19.328 16.5476 19.2246 16.4458C19.1212 16.344 18.9947 16.2686 18.856 16.226Z" fill="black"/>
</svg>
