<svg width="24" height="24" viewBox="0 0 24 24" fill="none" xmlns="http://www.w3.org/2000/svg">
<path d="M11.2 14.095L9.81799 15.777C9.77262 15.8319 9.74092 15.8968 9.72547 15.9664C9.71003 16.036 9.71128 16.1082 9.72914 16.1772C9.74699 16.2461 9.78094 16.3099 9.82819 16.3632C9.87545 16.4166 9.93466 16.458 10.001 16.484L11.352 17.015C11.4195 17.0415 11.4923 17.0514 11.5644 17.0438C11.6365 17.0362 11.7057 17.0113 11.7662 16.9713C11.8266 16.9313 11.8765 16.8773 11.9117 16.8138C11.9468 16.7504 11.9661 16.6795 11.968 16.607L12.027 14.404C12.0297 14.3066 12.0019 14.2108 11.9475 14.1301C11.893 14.0493 11.8147 13.9876 11.7235 13.9535C11.6322 13.9194 11.5326 13.9148 11.4385 13.9401C11.3445 13.9655 11.2607 14.0197 11.199 14.095H11.2ZM10.97 12.423L8.91999 11.687C8.85307 11.663 8.78142 11.6551 8.7109 11.6641C8.64037 11.6731 8.57296 11.6986 8.51417 11.7386C8.45538 11.7785 8.40687 11.8318 8.37261 11.8941C8.33834 11.9564 8.31928 12.0259 8.31699 12.097L8.27099 13.548C8.26099 13.861 8.56499 14.088 8.86199 13.991L10.957 13.306C11.0494 13.2757 11.13 13.2173 11.1876 13.139C11.2452 13.0607 11.277 12.9663 11.2784 12.8691C11.2798 12.7719 11.2509 12.6767 11.1956 12.5967C11.1403 12.5167 11.0614 12.456 10.97 12.423ZM13.318 12.659L15.417 12.08C15.4856 12.0611 15.5488 12.0263 15.6014 11.9783C15.654 11.9303 15.6944 11.8706 15.7195 11.804C15.7446 11.7373 15.7535 11.6657 15.7456 11.595C15.7377 11.5243 15.7132 11.4564 15.674 11.397L14.877 10.184C14.8372 10.1232 14.7832 10.0729 14.7197 10.0374C14.6563 10.0019 14.5852 9.98229 14.5125 9.98023C14.4398 9.97816 14.3677 9.99371 14.3023 10.0255C14.2369 10.0573 14.1802 10.1045 14.137 10.163L12.82 11.93C12.762 12.008 12.7299 12.1021 12.7279 12.1992C12.726 12.2964 12.7544 12.3917 12.8092 12.4719C12.864 12.5522 12.9425 12.6133 13.0337 12.6468C13.1249 12.6804 13.2243 12.6846 13.318 12.659ZM11.798 7.61598C11.802 7.53162 11.7859 7.44752 11.7511 7.37056C11.7163 7.2936 11.6638 7.22597 11.5979 7.1732C11.5319 7.12043 11.4544 7.08402 11.3717 7.06695C11.289 7.04988 11.2034 7.05263 11.122 7.07498L9.46099 7.52798C9.37786 7.55057 9.30141 7.59289 9.23814 7.65135C9.17487 7.70982 9.12666 7.7827 9.09759 7.8638C9.06853 7.94489 9.05949 8.03181 9.07122 8.11715C9.08295 8.20249 9.11512 8.28374 9.16499 8.35398L11.07 11.656C11.0853 11.6832 11.103 11.709 11.123 11.733C11.1867 11.8064 11.2686 11.8618 11.3604 11.8937C11.4522 11.9255 11.5508 11.9327 11.6463 11.9145C11.7418 11.8963 11.8308 11.8533 11.9045 11.7898C11.9781 11.7264 12.0338 11.6447 12.066 11.553C12.0885 11.483 12.0967 11.4092 12.09 11.336L11.797 7.61598H11.798ZM15.431 14.168L13.324 13.521C13.2309 13.4921 13.1311 13.4932 13.0385 13.5239C12.946 13.5546 12.8655 13.6136 12.8081 13.6924C12.7508 13.7712 12.7195 13.866 12.7188 13.9635C12.7181 14.061 12.7479 14.1563 12.804 14.236L14.054 16.018C14.231 16.268 14.6 16.275 14.784 16.03L15.659 14.872C15.7029 14.8141 15.7322 14.7464 15.7443 14.6748C15.7565 14.6031 15.7511 14.5296 15.7287 14.4605C15.7063 14.3913 15.6676 14.3286 15.6157 14.2777C15.5639 14.2268 15.5005 14.1891 15.431 14.168Z" fill="black"/>
<path d="M6 4C5.46957 4 4.96086 4.21071 4.58579 4.58579C4.21071 4.96086 4 5.46957 4 6V18C4 18.5304 4.21071 19.0391 4.58579 19.4142C4.96086 19.7893 5.46957 20 6 20H18C18.5304 20 19.0391 19.7893 19.4142 19.4142C19.7893 19.0391 20 18.5304 20 18V6C20 5.46957 19.7893 4.96086 19.4142 4.58579C19.0391 4.21071 18.5304 4 18 4H6ZM6 2H18C19.0609 2 20.0783 2.42143 20.8284 3.17157C21.5786 3.92172 22 4.93913 22 6V18C22 19.0609 21.5786 20.0783 20.8284 20.8284C20.0783 21.5786 19.0609 22 18 22H6C4.93913 22 3.92172 21.5786 3.17157 20.8284C2.42143 20.0783 2 19.0609 2 18V6C2 4.93913 2.42143 3.92172 3.17157 3.17157C3.92172 2.42143 4.93913 2 6 2V2Z" fill="black"/>
</svg>
