<svg width="24" height="24" viewBox="0 0 24 24" fill="none" xmlns="http://www.w3.org/2000/svg">
<path d="M14.923 8.52588H9.077C7.93 8.52588 7 9.44588 7 10.5799V13.4699C7 14.6049 7.93 15.5239 9.077 15.5239H14.923C16.07 15.5239 17 14.6039 17 13.4699V10.5799C17 9.44488 16.07 8.52588 14.923 8.52588ZM13.519 12.1659L10.784 13.4559C10.7673 13.4638 10.7488 13.4673 10.7303 13.4662C10.7119 13.4651 10.694 13.4593 10.6783 13.4495C10.6627 13.4396 10.6498 13.4259 10.6408 13.4098C10.6318 13.3936 10.6271 13.3754 10.627 13.3569V10.6969C10.6272 10.6781 10.6321 10.6597 10.6414 10.6435C10.6507 10.6272 10.6639 10.6135 10.68 10.6038C10.696 10.5941 10.7142 10.5886 10.733 10.5879C10.7517 10.5872 10.7703 10.5914 10.787 10.5999L13.521 11.9699C13.539 11.9793 13.554 11.9935 13.5644 12.0109C13.5748 12.0283 13.5803 12.0482 13.58 12.0685C13.5798 12.0888 13.574 12.1086 13.5633 12.1258C13.5525 12.143 13.5372 12.1569 13.519 12.1659Z" fill="black"/>
<path d="M6 4C5.46957 4 4.96086 4.21071 4.58579 4.58579C4.21071 4.96086 4 5.46957 4 6V18C4 18.5304 4.21071 19.0391 4.58579 19.4142C4.96086 19.7893 5.46957 20 6 20H18C18.5304 20 19.0391 19.7893 19.4142 19.4142C19.7893 19.0391 20 18.5304 20 18V6C20 5.46957 19.7893 4.96086 19.4142 4.58579C19.0391 4.21071 18.5304 4 18 4H6ZM6 2H18C19.0609 2 20.0783 2.42143 20.8284 3.17157C21.5786 3.92172 22 4.93913 22 6V18C22 19.0609 21.5786 20.0783 20.8284 20.8284C20.0783 21.5786 19.0609 22 18 22H6C4.93913 22 3.92172 21.5786 3.17157 20.8284C2.42143 20.0783 2 19.0609 2 18V6C2 4.93913 2.42143 3.92172 3.17157 3.17157C3.92172 2.42143 4.93913 2 6 2V2Z" fill="black"/>
</svg>
