<svg width="24" height="24" viewBox="0 0 24 24" fill="none" xmlns="http://www.w3.org/2000/svg">
<g clip-path="url(#clip0_201_67469)">
<path d="M13.63 12L17.63 8.21002C17.7543 8.09375 17.851 7.95112 17.913 7.7926C17.975 7.63408 18.0007 7.46369 17.9882 7.29393C17.9757 7.12418 17.9254 6.95937 17.8409 6.81161C17.7565 6.66385 17.64 6.53688 17.5 6.44002L12.83 3.21002C12.6549 3.08741 12.4495 3.01513 12.2362 3.00102C12.0228 2.98692 11.8097 3.03153 11.62 3.13002C11.4362 3.22543 11.2816 3.36871 11.1724 3.54472C11.0633 3.72073 11.0037 3.92295 11 4.13002V10.33L7.81 6.33002C7.63761 6.12315 7.3901 5.99323 7.12192 5.96885C6.85374 5.94447 6.58686 6.02763 6.38 6.20002C6.17313 6.37241 6.04321 6.61992 6.01883 6.88809C5.99445 7.15627 6.07761 7.42315 6.25 7.63002L9.72 12L6.22 16.43C6.05649 16.6372 5.98155 16.9007 6.01152 17.163C6.04149 17.4252 6.17395 17.665 6.38 17.83C6.56232 17.9534 6.78025 18.0131 7 18C7.1502 17.9993 7.29832 17.9648 7.43335 17.899C7.56839 17.8332 7.68687 17.7379 7.78 17.62L11 13.56V19.85C11.0026 20.1559 11.126 20.4484 11.3433 20.6638C11.5605 20.8792 11.8541 21 12.16 21C12.3997 21.0009 12.6337 20.9276 12.83 20.79L17.47 17.61C17.6083 17.5123 17.7238 17.3856 17.8084 17.2389C17.893 17.0921 17.9447 16.9287 17.96 16.76C17.9732 16.5927 17.9495 16.4246 17.8908 16.2674C17.8321 16.1101 17.7396 15.9677 17.62 15.85L13.63 12ZM13 5.76002L15.5 7.49002L13 9.85002V5.76002ZM13 18.25V14.18L15.47 16.56L13 18.25Z" fill="black"/>
</g>
<defs>
<clipPath id="clip0_201_67469">
<rect width="24" height="24" fill="white"/>
</clipPath>
</defs>
</svg>
