<svg width="24" height="24" viewBox="0 0 24 24" fill="none" xmlns="http://www.w3.org/2000/svg">
<g clip-path="url(#clip0_201_67542)">
<path d="M21 9C20.7348 9 20.4804 9.10536 20.2929 9.29289C20.1054 9.48043 20 9.73478 20 10V14C20 14.2652 20.1054 14.5196 20.2929 14.7071C20.4804 14.8946 20.7348 15 21 15C21.2652 15 21.5196 14.8946 21.7071 14.7071C21.8946 14.5196 22 14.2652 22 14V10C22 9.73478 21.8946 9.48043 21.7071 9.29289C21.5196 9.10536 21.2652 9 21 9Z" fill="black"/>
<path d="M15.83 6H12.73L11.59 8H15.82C15.8827 8.05166 15.9318 8.11782 15.9632 8.19274C15.9945 8.26766 16.0072 8.3491 16 8.43V15.57C16.0067 15.6499 15.9949 15.7303 15.9654 15.8049C15.9359 15.8795 15.8896 15.9463 15.83 16H13L11.85 18H15.85C16.4558 17.9588 17.0211 17.6808 17.4234 17.226C17.8258 16.7712 18.0329 16.1763 18 15.57V8.43C18.0328 7.82042 17.8229 7.22265 17.4163 6.76732C17.0097 6.31198 16.4394 6.03612 15.83 6Z" fill="black"/>
<path d="M4 15.57V8.43C3.99401 8.35014 4.0062 8.26996 4.03564 8.19548C4.06508 8.12101 4.11102 8.05417 4.17 8H7L8.13 6H4.13C3.52776 6.04616 2.96754 6.32636 2.5694 6.78058C2.17126 7.2348 1.96686 7.8269 2 8.43V15.57C1.96722 16.1796 2.17707 16.7774 2.58368 17.2327C2.99029 17.688 3.56061 17.9639 4.17 18H7.27L8.41 16H4.18C4.11733 15.9483 4.06819 15.8822 4.03683 15.8073C4.00546 15.7323 3.99283 15.6509 4 15.57Z" fill="black"/>
<path d="M9 20C8.82413 20.0007 8.65118 19.955 8.49861 19.8675C8.34603 19.78 8.21923 19.6539 8.13099 19.5017C8.04275 19.3496 7.9962 19.1769 7.99602 19.001C7.99585 18.8251 8.04206 18.6523 8.13 18.5L11.28 13H7C6.82549 12.9989 6.65429 12.9522 6.50342 12.8645C6.35255 12.7768 6.22726 12.6511 6.14 12.5C6.05223 12.348 6.00603 12.1755 6.00603 12C6.00603 11.8245 6.05223 11.652 6.14 11.5L10.14 4.5C10.2726 4.26926 10.4914 4.10065 10.7484 4.03126C11.0053 3.96187 11.2793 3.99739 11.51 4.13C11.7407 4.26261 11.9093 4.48144 11.9787 4.73837C12.0481 4.99529 12.0126 5.26926 11.88 5.5L8.72 11H13C13.1745 11.0011 13.3457 11.0478 13.4966 11.1355C13.6475 11.2232 13.7727 11.3489 13.86 11.5C13.9478 11.652 13.994 11.8245 13.994 12C13.994 12.1755 13.9478 12.348 13.86 12.5L9.86 19.5C9.77275 19.6511 9.64746 19.7768 9.49659 19.8645C9.34572 19.9522 9.17452 19.9989 9 20Z" fill="black"/>
</g>
<defs>
<clipPath id="clip0_201_67542">
<rect width="24" height="24" fill="white"/>
</clipPath>
</defs>
</svg>
