<svg width="24" height="24" viewBox="0 0 24 24" fill="none" xmlns="http://www.w3.org/2000/svg">
<g clip-path="url(#clip0_201_67633)">
<path d="M12.71 11.29C12.5231 11.1068 12.2718 11.0042 12.01 11.0042C11.7483 11.0042 11.4969 11.1068 11.31 11.29L8.31002 14.19C8.20391 14.2776 8.117 14.3861 8.05474 14.5088C7.99248 14.6314 7.9562 14.7656 7.94818 14.903C7.94015 15.0403 7.96054 15.1778 8.00809 15.3069C8.05563 15.436 8.1293 15.5539 8.22448 15.6532C8.31967 15.7526 8.43433 15.8312 8.56128 15.8842C8.68824 15.9371 8.82476 15.9634 8.96231 15.9612C9.09987 15.959 9.23549 15.9285 9.3607 15.8715C9.48592 15.8145 9.59802 15.7323 9.69002 15.63L11 14.36V20C11 20.2652 11.1054 20.5196 11.2929 20.7071C11.4804 20.8947 11.7348 21 12 21C12.2652 21 12.5196 20.8947 12.7071 20.7071C12.8947 20.5196 13 20.2652 13 20V14.41L14.29 15.71C14.383 15.8037 14.4936 15.8781 14.6154 15.9289C14.7373 15.9797 14.868 16.0058 15 16.0058C15.132 16.0058 15.2627 15.9797 15.3846 15.9289C15.5065 15.8781 15.6171 15.8037 15.71 15.71C15.8037 15.617 15.8781 15.5064 15.9289 15.3846C15.9797 15.2627 16.0058 15.132 16.0058 15C16.0058 14.868 15.9797 14.7373 15.9289 14.6154C15.8781 14.4936 15.8037 14.383 15.71 14.29L12.71 11.29Z" fill="black"/>
<path d="M17.67 7.00001C17.262 5.82106 16.4966 4.79863 15.4804 4.07497C14.4641 3.35132 13.2476 2.96243 12 2.96243C10.7525 2.96243 9.53592 3.35132 8.51968 4.07497C7.50345 4.79863 6.73806 5.82106 6.33002 7.00001C5.43157 7.12035 4.58273 7.48266 3.87432 8.0482C3.1659 8.61374 2.62455 9.36123 2.30818 10.2107C1.99181 11.0602 1.91233 11.9797 2.07822 12.8708C2.24412 13.762 2.64916 14.5913 3.25002 15.27C3.3226 15.3979 3.42247 15.5081 3.54253 15.593C3.66258 15.6778 3.79987 15.7351 3.94461 15.7609C4.08934 15.7866 4.23798 15.7801 4.37992 15.7418C4.52186 15.7036 4.65362 15.6345 4.76582 15.5395C4.87801 15.4445 4.96788 15.3259 5.02903 15.1923C5.09018 15.0586 5.1211 14.913 5.11959 14.766C5.11808 14.619 5.08418 14.4742 5.02031 14.3418C4.95643 14.2094 4.86414 14.0927 4.75002 14C4.36313 13.5675 4.11 13.032 4.02131 12.4585C3.93261 11.885 4.01215 11.2981 4.25029 10.7689C4.48843 10.2397 4.87495 9.7909 5.36301 9.47694C5.85106 9.16298 6.4197 8.99731 7.00002 9.00001H7.10002C7.33396 9.00473 7.56216 8.92726 7.74488 8.78108C7.92759 8.63491 8.05327 8.42929 8.10002 8.20001C8.28363 7.29578 8.7742 6.48283 9.48861 5.89891C10.203 5.31499 11.0973 4.996 12.02 4.996C12.9427 4.996 13.837 5.31499 14.5514 5.89891C15.2658 6.48283 15.7564 7.29578 15.94 8.20001C15.9868 8.42929 16.1124 8.63491 16.2952 8.78108C16.4779 8.92726 16.7061 9.00473 16.94 9.00001H17C17.5803 8.99731 18.149 9.16298 18.637 9.47694C19.1251 9.7909 19.5116 10.2397 19.7497 10.7689C19.9879 11.2981 20.0674 11.885 19.9787 12.4585C19.89 13.032 19.6369 13.5675 19.25 14C19.1619 14.0988 19.0943 14.2141 19.0511 14.3392C19.0079 14.4643 18.99 14.5967 18.9984 14.7288C19.0067 14.8609 19.0413 14.99 19.0999 15.1087C19.1585 15.2273 19.2402 15.3331 19.34 15.42C19.5223 15.5808 19.7569 15.6697 20 15.67C20.142 15.6698 20.2823 15.6394 20.4116 15.5808C20.541 15.5222 20.6563 15.4367 20.75 15.33C21.3675 14.6525 21.7869 13.8182 21.9622 12.9184C22.1376 12.0185 22.0622 11.0878 21.7443 10.228C21.4263 9.36814 20.8781 8.61224 20.1596 8.04295C19.441 7.47365 18.5798 7.11285 17.67 7.00001Z" fill="black"/>
</g>
<defs>
<clipPath id="clip0_201_67633">
<rect width="24" height="24" fill="white"/>
</clipPath>
</defs>
</svg>
