<svg width="24" height="24" viewBox="0 0 24 24" fill="none" xmlns="http://www.w3.org/2000/svg">
<g clip-path="url(#clip0_201_67639)">
<path d="M4.28999 12L8.76999 6.64C8.85404 6.53888 8.91734 6.4222 8.9563 6.29661C8.99525 6.17103 9.00908 6.03901 8.99701 5.90807C8.98494 5.77714 8.9472 5.64987 8.88594 5.53353C8.82468 5.41718 8.74111 5.31404 8.63999 5.23C8.53887 5.14595 8.42219 5.08265 8.29661 5.04369C8.17102 5.00474 8.039 4.99091 7.90807 5.00298C7.77714 5.01505 7.64987 5.05279 7.53352 5.11405C7.41718 5.17531 7.31404 5.25888 7.22999 5.36L2.22999 11.36C2.08291 11.5389 2.0025 11.7634 2.0025 11.995C2.0025 12.2266 2.08291 12.4511 2.22999 12.63L7.05999 18.63C7.15411 18.746 7.27303 18.8395 7.40801 18.9035C7.54298 18.9675 7.6906 19.0005 7.83999 19C8.02923 19.0006 8.21476 18.9476 8.37504 18.847C8.53532 18.7464 8.66376 18.6024 8.74544 18.4317C8.82712 18.261 8.8587 18.0706 8.83649 17.8827C8.81428 17.6947 8.73921 17.517 8.61999 17.37L4.28999 12Z" fill="black"/>
<path d="M21.78 11.37L17 5.36999C16.8329 5.16313 16.5905 5.0311 16.3261 5.00297C16.0616 4.97484 15.7969 5.05291 15.59 5.21999C15.3831 5.38708 15.2511 5.6295 15.223 5.89393C15.1948 6.15835 15.2729 6.42313 15.44 6.63L19.71 12L15.23 17.37C15.1458 17.471 15.0823 17.5877 15.0433 17.7133C15.0043 17.8389 14.9904 17.971 15.0025 18.102C15.0145 18.2329 15.0523 18.3603 15.1137 18.4766C15.175 18.5929 15.2587 18.696 15.36 18.78C15.5413 18.9255 15.7676 19.0033 16 19C16.1469 19.0002 16.2921 18.9681 16.4251 18.9059C16.5582 18.8437 16.676 18.7529 16.77 18.64L21.77 12.64C21.9185 12.4622 22.0007 12.2384 22.0025 12.0068C22.0043 11.7752 21.9257 11.5501 21.78 11.37Z" fill="black"/>
<path d="M15.72 11.41C15.5326 11.2237 15.2792 11.1192 15.015 11.1192C14.7508 11.1192 14.4974 11.2237 14.31 11.41L13 12.64V8C13 7.73478 12.8946 7.48043 12.7071 7.29289C12.5196 7.10536 12.2652 7 12 7C11.7348 7 11.4804 7.10536 11.2929 7.29289C11.1054 7.48043 11 7.73478 11 8V12.59L9.71 11.29C9.5217 11.1017 9.2663 10.9959 9 10.9959C8.7337 10.9959 8.47831 11.1017 8.29 11.29C8.1017 11.4783 7.99591 11.7337 7.99591 12C7.99591 12.2663 8.1017 12.5217 8.29 12.71L11.29 15.71C11.3834 15.8027 11.4943 15.876 11.6161 15.9258C11.7379 15.9755 11.8684 16.0008 12 16C12.2575 15.999 12.5046 15.8987 12.69 15.72L15.69 12.82C15.8803 12.6366 15.9903 12.3854 15.9959 12.1212C16.0015 11.857 15.9023 11.6013 15.72 11.41Z" fill="black"/>
</g>
<defs>
<clipPath id="clip0_201_67639">
<rect width="24" height="24" fill="white"/>
</clipPath>
</defs>
</svg>
