<svg width="24" height="24" viewBox="0 0 24 24" fill="none" xmlns="http://www.w3.org/2000/svg">
<g clip-path="url(#clip0_201_67646)">
<path d="M8.63999 5.22999C8.53894 5.14579 8.42228 5.08235 8.29667 5.0433C8.17107 5.00426 8.039 4.99038 7.90802 5.00245C7.77704 5.01453 7.64973 5.05233 7.53339 5.11368C7.41704 5.17503 7.31394 5.25873 7.22999 5.35999L2.22999 11.36C2.08291 11.5389 2.0025 11.7634 2.0025 11.995C2.0025 12.2266 2.08291 12.4511 2.22999 12.63L7.05999 18.63C7.15411 18.746 7.27303 18.8395 7.40801 18.9035C7.54298 18.9675 7.6906 19.0005 7.83999 19C8.02923 19.0006 8.21476 18.9476 8.37504 18.847C8.53532 18.7464 8.66376 18.6023 8.74544 18.4316C8.82712 18.261 8.8587 18.0706 8.83649 17.8826C8.81428 17.6947 8.73921 17.517 8.61999 17.37L4.28999 12L8.76999 6.63999C8.85419 6.53894 8.91763 6.42228 8.95668 6.29667C8.99572 6.17107 9.0096 6.039 8.99753 5.90802C8.98545 5.77704 8.94765 5.64973 8.8863 5.53339C8.82495 5.41704 8.74125 5.31394 8.63999 5.22999Z" fill="black"/>
<path d="M21.78 11.37L17 5.37C16.9175 5.26728 16.8155 5.18187 16.6998 5.1187C16.5842 5.05552 16.4572 5.01583 16.3262 5.00189C16.1951 4.98795 16.0627 5.00004 15.9363 5.03747C15.81 5.07491 15.6923 5.13694 15.59 5.22C15.4873 5.30253 15.4019 5.40454 15.3387 5.52017C15.2755 5.63581 15.2358 5.76279 15.2219 5.89382C15.2079 6.02485 15.22 6.15734 15.2575 6.28368C15.2949 6.41002 15.3569 6.52772 15.44 6.63L19.71 12L15.23 17.37C15.1458 17.4711 15.0823 17.5877 15.0433 17.7133C15.0043 17.8389 14.9904 17.971 15.0025 18.102C15.0145 18.233 15.0523 18.3603 15.1137 18.4766C15.175 18.593 15.2587 18.6961 15.36 18.78C15.5413 18.9255 15.7676 19.0033 16 19C16.1469 19.0002 16.2921 18.9681 16.4251 18.9059C16.5582 18.8437 16.676 18.7529 16.77 18.64L21.77 12.64C21.9185 12.4622 22.0007 12.2384 22.0025 12.0068C22.0043 11.7752 21.9257 11.5501 21.78 11.37Z" fill="black"/>
</g>
<defs>
<clipPath id="clip0_201_67646">
<rect width="24" height="24" fill="white"/>
</clipPath>
</defs>
</svg>
