<svg width="24" height="24" viewBox="0 0 24 24" fill="none" xmlns="http://www.w3.org/2000/svg">
<g clip-path="url(#clip0_201_67714)">
<path d="M16 9.99999H7.08001L9.78001 6.61999C9.87506 6.51929 9.94816 6.39995 9.99468 6.26952C10.0412 6.1391 10.0601 6.00043 10.0503 5.86231C10.0404 5.72419 10.002 5.58962 9.93736 5.46713C9.87277 5.34464 9.78345 5.2369 9.67505 5.15074C9.56665 5.06458 9.44153 5.00186 9.30763 4.96658C9.17373 4.93129 9.03396 4.9242 8.89717 4.94575C8.76039 4.9673 8.62956 5.01703 8.513 5.09177C8.39643 5.16652 8.29666 5.26467 8.22001 5.37999L4.22001 10.38C4.0805 10.5565 4.00461 10.775 4.00461 11C4.00461 11.225 4.0805 11.4434 4.22001 11.62L8.22001 16.62C8.31313 16.7378 8.43161 16.8332 8.56665 16.899C8.70168 16.9648 8.8498 16.9993 9.00001 17C9.22557 16.9987 9.44407 16.9211 9.62001 16.78C9.82605 16.615 9.95851 16.3752 9.98848 16.113C10.0185 15.8507 9.94351 15.5872 9.78001 15.38L7.08001 12H16C16.2652 12 16.5196 12.1053 16.7071 12.2929C16.8946 12.4804 17 12.7348 17 13V18C17 18.2652 17.1054 18.5196 17.2929 18.7071C17.4804 18.8946 17.7348 19 18 19C18.2652 19 18.5196 18.8946 18.7071 18.7071C18.8946 18.5196 19 18.2652 19 18V13C19 12.2043 18.6839 11.4413 18.1213 10.8787C17.5587 10.3161 16.7957 9.99999 16 9.99999Z" fill="black"/>
</g>
<defs>
<clipPath id="clip0_201_67714">
<rect width="24" height="24" fill="white"/>
</clipPath>
</defs>
</svg>
