<svg width="24" height="24" viewBox="0 0 24 24" fill="none" xmlns="http://www.w3.org/2000/svg">
<g clip-path="url(#clip0_201_67709)">
<path d="M18.62 8.22001L13.62 4.22001C13.4435 4.0805 13.225 4.00461 13 4.00461C12.775 4.00461 12.5565 4.0805 12.38 4.22001L7.38 8.22001C7.19782 8.39197 7.08682 8.62606 7.06897 8.87595C7.05112 9.12584 7.12771 9.37333 7.2836 9.56945C7.43949 9.76557 7.66332 9.89603 7.91079 9.93502C8.15827 9.97401 8.41136 9.91869 8.62 9.78001L12 7.08001V16C12 16.2652 11.8946 16.5196 11.7071 16.7071C11.5196 16.8946 11.2652 17 11 17H6C5.73478 17 5.48043 17.1054 5.29289 17.2929C5.10536 17.4804 5 17.7348 5 18C5 18.2652 5.10536 18.5196 5.29289 18.7071C5.48043 18.8946 5.73478 19 6 19H11C11.7956 19 12.5587 18.6839 13.1213 18.1213C13.6839 17.5587 14 16.7957 14 16V7.08001L17.38 9.78001C17.5559 9.92117 17.7744 9.9987 18 10C18.1502 9.99931 18.2983 9.96479 18.4334 9.89901C18.5684 9.83322 18.6869 9.73786 18.78 9.62001C18.9435 9.41278 19.0184 9.1493 18.9885 8.88704C18.9585 8.62478 18.826 8.385 18.62 8.22001Z" fill="black"/>
</g>
<defs>
<clipPath id="clip0_201_67709">
<rect width="24" height="24" fill="white"/>
</clipPath>
</defs>
</svg>
