<svg width="24" height="24" viewBox="0 0 24 24" fill="none" xmlns="http://www.w3.org/2000/svg">
<g clip-path="url(#clip0_201_67784)">
<path d="M11.9008 20.9256C10.9213 20.9173 9.95331 20.7129 9.05399 20.3245C8.15467 19.9362 7.3422 19.3717 6.66446 18.6644C5.28847 17.2209 4.52915 15.298 4.54766 13.3038C4.56618 11.3097 5.36107 9.40118 6.76364 7.98346L11.3653 3.37189C11.455 3.27535 11.5641 3.19892 11.6855 3.14764C11.8068 3.09635 11.9377 3.07138 12.0694 3.07437C12.2013 3.0762 12.3316 3.10434 12.4525 3.15713C12.5734 3.20992 12.6825 3.2863 12.7736 3.3818L17.2959 8.0628C18.6732 9.50503 19.4343 11.4272 19.4176 13.4214C19.4009 15.4156 18.6078 17.3248 17.2066 18.7438C16.5165 19.4484 15.6902 20.0051 14.7781 20.3802C13.8659 20.7553 12.887 20.9409 11.9008 20.9256ZM12.0298 5.48428L8.1719 9.37189C7.13021 10.4253 6.54023 11.8433 6.52727 13.3247C6.51431 14.8062 7.07939 16.2343 8.10248 17.3058C8.59653 17.8154 9.18644 18.2223 9.8383 18.5031C10.4902 18.784 11.1911 18.9332 11.9008 18.9421C12.6195 18.9481 13.3321 18.8099 13.9965 18.5356C14.6608 18.2613 15.2634 17.8566 15.7686 17.3454C16.8136 16.2932 17.405 14.8736 17.4161 13.3906C17.4272 11.9077 16.8572 10.4794 15.8281 9.41156L12.0298 5.48428Z" fill="black"/>
</g>
<defs>
<clipPath id="clip0_201_67784">
<rect width="24" height="24" fill="white"/>
</clipPath>
</defs>
</svg>
