<svg width="24" height="24" viewBox="0 0 24 24" fill="none" xmlns="http://www.w3.org/2000/svg">
<g clip-path="url(#clip0_201_68029)">
<path d="M8 12C8 12.2652 8.10536 12.5196 8.29289 12.7071C8.48043 12.8946 8.73478 13 9 13H15C15.2652 13 15.5196 12.8946 15.7071 12.7071C15.8946 12.5196 16 12.2652 16 12C16 11.7348 15.8946 11.4804 15.7071 11.2929C15.5196 11.1054 15.2652 11 15 11H9C8.73478 11 8.48043 11.1054 8.29289 11.2929C8.10536 11.4804 8 11.7348 8 12Z" fill="black"/>
<path d="M8.99999 16H7.20999C6.18235 16.0274 5.18142 15.6706 4.40286 14.9993C3.6243 14.328 3.12408 13.3905 2.99999 12.37C2.94838 11.8145 3.01356 11.2543 3.19133 10.7254C3.36911 10.1966 3.65555 9.71076 4.03226 9.29921C4.40897 8.88765 4.86761 8.55946 5.37871 8.33571C5.88981 8.11196 6.44207 7.99761 6.99999 8H8.99999C9.26521 8 9.51956 7.89464 9.7071 7.70711C9.89464 7.51957 9.99999 7.26522 9.99999 7C9.99999 6.73478 9.89464 6.48043 9.7071 6.29289C9.51956 6.10536 9.26521 6 8.99999 6H7.20999C5.72771 5.98019 4.28816 6.49645 3.1563 7.45376C2.02443 8.41106 1.27644 9.74499 1.04999 11.21C0.937439 12.0574 1.00726 12.9191 1.25478 13.7373C1.50229 14.5555 1.92179 15.3114 2.48518 15.9543C3.04857 16.5972 3.74283 17.1124 4.52147 17.4652C5.30011 17.818 6.14515 18.0003 6.99999 18H8.99999C9.26521 18 9.51956 17.8946 9.7071 17.7071C9.89464 17.5196 9.99999 17.2652 9.99999 17C9.99999 16.7348 9.89464 16.4804 9.7071 16.2929C9.51956 16.1054 9.26521 16 8.99999 16Z" fill="black"/>
<path d="M23 11.24C22.7764 9.75652 22.0191 8.40563 20.8702 7.44086C19.7213 6.47609 18.2598 5.96376 16.76 6H15.25C14.44 6 14 6.45 14 7C14 7.26522 14.1054 7.51957 14.2929 7.70711C14.4804 7.89464 14.7348 8 15 8H16.79C17.8176 7.97257 18.8186 8.32938 19.5971 9.00068C20.3757 9.67198 20.8759 10.6095 21 11.63C21.0516 12.1855 20.9864 12.7457 20.8087 13.2746C20.6309 13.8034 20.3444 14.2892 19.9677 14.7008C19.591 15.1123 19.1324 15.4405 18.6213 15.6643C18.1102 15.888 17.5579 16.0024 17 16H15C14.7348 16 14.4804 16.1054 14.2929 16.2929C14.1054 16.4804 14 16.7348 14 17C14 17.2652 14.1054 17.5196 14.2929 17.7071C14.4804 17.8946 14.7348 18 15 18H17C17.8562 18.0069 18.7039 17.8305 19.4862 17.4826C20.2686 17.1347 20.9674 16.6234 21.5357 15.9831C22.1041 15.3427 22.5288 14.5882 22.7814 13.7701C23.0339 12.952 23.1085 12.0893 23 11.24Z" fill="black"/>
</g>
<defs>
<clipPath id="clip0_201_68029">
<rect width="24" height="24" fill="white"/>
</clipPath>
</defs>
</svg>
