<svg width="24" height="24" viewBox="0 0 24 24" fill="none" xmlns="http://www.w3.org/2000/svg">
<g clip-path="url(#clip0_201_68199)">
<path d="M19 15V4C18.9993 3.84979 18.9648 3.70167 18.899 3.56664C18.8332 3.4316 18.7379 3.31312 18.62 3.22C18.5038 3.12602 18.3681 3.05927 18.2227 3.02466C18.0773 2.99005 17.9261 2.98846 17.78 3.02L8.78 5.02C8.55782 5.0701 8.3594 5.19455 8.21757 5.37275C8.07573 5.55096 7.99898 5.77224 8 6V14.34C7.31733 14.0177 6.54857 13.9255 5.80904 14.0771C5.0695 14.2288 4.39908 14.6161 3.89834 15.1811C3.3976 15.746 3.09354 16.4581 3.03178 17.2105C2.97002 17.9629 3.15389 18.715 3.5558 19.354C3.95771 19.9931 4.556 20.4846 5.2609 20.7548C5.9658 21.025 6.73932 21.0593 7.4654 20.8527C8.19149 20.646 8.831 20.2095 9.28799 19.6087C9.74498 19.0078 9.99481 18.2749 10 17.52C10.0103 17.3468 10.0103 17.1732 10 17V6.8L17 5.25V12.34C16.3169 12.0175 15.5477 11.9254 14.8078 12.0773C14.0679 12.2293 13.3973 12.6172 12.8967 13.1829C12.396 13.7485 12.0924 14.4613 12.0314 15.2141C11.9704 15.967 12.1553 16.7194 12.5584 17.3582C12.9614 17.997 13.5609 18.4878 14.2666 18.757C14.9724 19.0261 15.7465 19.0589 16.4725 18.8506C17.1986 18.6423 17.8375 18.204 18.2932 17.6017C18.7489 16.9993 18.997 16.2653 19 15.51C19.0095 15.3401 19.0095 15.1699 19 15ZM6.54 19C6.25818 18.9999 5.98216 18.9199 5.74399 18.7692C5.50582 18.6186 5.31526 18.4035 5.19442 18.1489C5.07359 17.8943 5.02744 17.6106 5.06133 17.3308C5.09522 17.051 5.20776 16.7866 5.38588 16.5682C5.56401 16.3498 5.80042 16.1864 6.06768 16.097C6.33493 16.0076 6.62207 15.9958 6.89576 16.063C7.16946 16.1302 7.41848 16.2736 7.61394 16.4766C7.80939 16.6797 7.94326 16.9339 8 17.21C8.00983 17.3098 8.00983 17.4102 8 17.51C8.00008 17.9 7.84722 18.2745 7.57425 18.5531C7.30128 18.8317 6.92995 18.9921 6.54 19ZM15.54 17C15.2553 17.0022 14.9758 16.9233 14.7342 16.7726C14.4926 16.6218 14.2989 16.4054 14.1758 16.1487C14.0527 15.8919 14.0052 15.6055 14.0388 15.3227C14.0725 15.0399 14.1859 14.7726 14.3659 14.552C14.5459 14.3313 14.785 14.1664 15.0552 14.0766C15.3254 13.9868 15.6156 13.9758 15.8919 14.0448C16.1681 14.1138 16.419 14.26 16.6153 14.4663C16.8115 14.6727 16.9449 14.9306 17 15.21C17.0098 15.3098 17.0098 15.4102 17 15.51C16.9974 15.9044 16.8396 16.2818 16.5607 16.5607C16.2818 16.8396 15.9044 16.9974 15.51 17H15.54Z" fill="black"/>
</g>
<defs>
<clipPath id="clip0_201_68199">
<rect width="24" height="24" fill="white"/>
</clipPath>
</defs>
</svg>
