<svg width="24" height="24" viewBox="0 0 24 24" fill="none" xmlns="http://www.w3.org/2000/svg">
<g clip-path="url(#clip0_201_68209)">
<path d="M20 20C19.8034 20.0022 19.611 19.9428 19.45 19.83L12 14.9L4.54997 19.83C4.36636 19.9483 4.14904 20.0033 3.93124 19.9865C3.71345 19.9697 3.50715 19.882 3.34388 19.7369C3.18061 19.5917 3.06935 19.3971 3.02711 19.1828C2.98487 18.9685 3.01398 18.7462 3.10997 18.55L11.11 2.55C11.1939 2.3862 11.3214 2.24873 11.4784 2.15274C11.6355 2.05675 11.8159 2.00596 12 2.00596C12.184 2.00596 12.3645 2.05675 12.5215 2.15274C12.6786 2.24873 12.8061 2.3862 12.89 2.55L20.89 18.55C20.9897 18.7473 21.0212 18.9721 20.9796 19.1892C20.9379 19.4063 20.8256 19.6035 20.66 19.75C20.4777 19.9108 20.243 19.9996 20 20ZM12 12.7C12.196 12.7015 12.3873 12.7606 12.55 12.87L17.43 16.1L12 5.24L6.56997 16.1L11.45 12.87C11.6127 12.7606 11.8039 12.7015 12 12.7Z" fill="black"/>
</g>
<defs>
<clipPath id="clip0_201_68209">
<rect width="24" height="24" fill="white"/>
</clipPath>
</defs>
</svg>
