<svg width="24" height="24" viewBox="0 0 24 24" fill="none" xmlns="http://www.w3.org/2000/svg">
<g clip-path="url(#clip0_201_68239)">
<path d="M21 4C20.9896 3.90813 20.9695 3.81763 20.94 3.73V3.64C20.892 3.52871 20.8243 3.42706 20.74 3.34C20.6551 3.26026 20.557 3.19597 20.45 3.15H20.36C20.2678 3.07961 20.1624 3.02859 20.05 3H20C19.9006 2.98491 19.7994 2.98491 19.7 3L1.69999 9C1.49992 9.06576 1.32572 9.193 1.20222 9.36359C1.07873 9.53418 1.01224 9.7394 1.01224 9.95C1.01224 10.1606 1.07873 10.3658 1.20222 10.5364C1.32572 10.707 1.49992 10.8342 1.69999 10.9L10.23 13.74L13.07 22.27C13.1357 22.4701 13.263 22.6443 13.4336 22.7678C13.6042 22.8913 13.8094 22.9578 14.02 22.9578C14.2306 22.9578 14.4358 22.8913 14.6064 22.7678C14.777 22.6443 14.9042 22.4701 14.97 22.27L20.97 4.27C20.9922 4.18178 21.0023 4.09095 21 4ZM16.3 6.29L10.73 11.86L5.15999 10L16.3 6.29ZM14 18.84L12.14 13.27L17.71 7.7L14 18.84Z" fill="black"/>
</g>
<defs>
<clipPath id="clip0_201_68239">
<rect width="24" height="24" fill="white"/>
</clipPath>
</defs>
</svg>
