<svg width="24" height="24" viewBox="0 0 24 24" fill="none" xmlns="http://www.w3.org/2000/svg">
<g clip-path="url(#clip0_201_68365)">
<path d="M12.87 22C12.3871 21.9995 11.9238 21.8091 11.58 21.47L5.16999 15.05C5.0055 14.8865 4.90299 14.6708 4.87999 14.44L3.99999 5.09001C3.98652 4.94354 4.00553 4.7959 4.05565 4.65762C4.10578 4.51934 4.18579 4.39382 4.28999 4.29001C4.3938 4.18581 4.51933 4.10579 4.65761 4.05567C4.79589 4.00554 4.94352 3.98654 5.08999 4.00001L14.44 4.88001C14.6708 4.903 14.8864 5.00552 15.05 5.17001L21.47 11.58C21.8101 11.9212 22.0011 12.3833 22.0011 12.865C22.0011 13.3468 21.8101 13.8088 21.47 14.15L14.15 21.47C13.8099 21.8085 13.3498 21.999 12.87 22ZM6.86999 13.89L12.87 19.89L19.92 12.84L13.92 6.84001L6.10999 6.11001L6.86999 13.89Z" fill="black"/>
<path d="M10.5 12C11.3284 12 12 11.3284 12 10.5C12 9.67157 11.3284 9 10.5 9C9.67157 9 9 9.67157 9 10.5C9 11.3284 9.67157 12 10.5 12Z" fill="black"/>
</g>
<defs>
<clipPath id="clip0_201_68365">
<rect width="24" height="24" fill="white"/>
</clipPath>
</defs>
</svg>
