<svg width="24" height="24" viewBox="0 0 24 24" fill="none" xmlns="http://www.w3.org/2000/svg">
<g clip-path="url(#clip0_201_68425)">
<path d="M18.45 6.20001C18.0943 6.03198 17.6985 5.96726 17.3078 6.01323C16.917 6.05919 16.5471 6.214 16.24 6.46001L11.5 10.38V7.79001C11.4961 7.45215 11.395 7.12257 11.2088 6.84063C11.0226 6.55868 10.7592 6.33629 10.45 6.20001C10.0943 6.03198 9.69849 5.96726 9.30775 6.01323C8.91702 6.05919 8.54705 6.214 8.24002 6.46001L3.14002 10.67C2.94003 10.8292 2.77851 11.0315 2.6675 11.2618C2.55649 11.492 2.49884 11.7444 2.49884 12C2.49884 12.2556 2.55649 12.508 2.6675 12.7383C2.77851 12.9685 2.94003 13.1708 3.14002 13.33L8.24002 17.54C8.60764 17.8381 9.06671 18.0006 9.54002 18C9.85405 17.9982 10.1642 17.93 10.45 17.8C10.7592 17.6637 11.0226 17.4413 11.2088 17.1594C11.395 16.8774 11.4961 16.5479 11.5 16.21V13.62L16.24 17.54C16.6076 17.8381 17.0667 18.0006 17.54 18C17.8541 17.9982 18.1642 17.93 18.45 17.8C18.7592 17.6637 19.0226 17.4413 19.2088 17.1594C19.395 16.8774 19.4961 16.5479 19.5 16.21V7.79001C19.4961 7.45215 19.395 7.12257 19.2088 6.84063C19.0226 6.55868 18.7592 6.33629 18.45 6.20001ZM9.50002 16L4.68002 12L9.50002 8.09001V16ZM17.5 16L12.68 12L17.5 8.09001V16Z" fill="black"/>
</g>
<defs>
<clipPath id="clip0_201_68425">
<rect width="24" height="24" fill="white"/>
</clipPath>
</defs>
</svg>
