<svg width="24" height="24" viewBox="0 0 24 24" fill="none" xmlns="http://www.w3.org/2000/svg">
<g clip-path="url(#clip0_201_68520)">
<path d="M16 6.00001C15.7348 6.00001 15.4804 6.10537 15.2929 6.2929C15.1053 6.48044 15 6.73479 15 7.00001V10.82L14.86 10.67L9.75999 6.46001C9.45296 6.214 9.08299 6.05919 8.69226 6.01323C8.30152 5.96726 7.90573 6.03198 7.54999 6.20001C7.25017 6.34355 6.99712 6.56907 6.82015 6.85045C6.64317 7.13184 6.54951 7.4576 6.54999 7.79001V16.21C6.54951 16.5424 6.64317 16.8682 6.82015 17.1496C6.99712 17.4309 7.25017 17.6565 7.54999 17.8C7.83586 17.93 8.14596 17.9982 8.45999 18C8.9333 18.0006 9.39237 17.8381 9.75999 17.54L14.86 13.33L15 13.18V17C15 17.2652 15.1053 17.5196 15.2929 17.7071C15.4804 17.8947 15.7348 18 16 18C16.2652 18 16.5196 17.8947 16.7071 17.7071C16.8946 17.5196 17 17.2652 17 17V7.00001C17 6.73479 16.8946 6.48044 16.7071 6.2929C16.5196 6.10537 16.2652 6.00001 16 6.00001ZM8.49999 15.91V8.00001L13.32 12L8.49999 15.91Z" fill="black"/>
</g>
<defs>
<clipPath id="clip0_201_68520">
<rect width="24" height="24" fill="white"/>
</clipPath>
</defs>
</svg>
