<svg width="24" height="24" viewBox="0 0 24 24" fill="none" xmlns="http://www.w3.org/2000/svg">
<g clip-path="url(#clip0_201_55567)">
<path d="M23.2144 12.5434L20.8625 1.92582C20.776 1.53761 20.5391 1.19956 20.2037 0.985815C19.8683 0.77207 19.4618 0.700094 19.0734 0.785676L8.45592 3.13758C8.26359 3.18018 8.08153 3.26025 7.92014 3.37322C7.75875 3.48618 7.6212 3.62983 7.51533 3.79596C7.40946 3.96209 7.33735 4.14745 7.30312 4.34144C7.26889 4.53544 7.27321 4.73428 7.31583 4.92661L8.30119 9.37505H2.25C1.85231 9.3755 1.47104 9.53368 1.18983 9.81488C0.908625 10.0961 0.750447 10.4774 0.75 10.875V21.75C0.750447 22.1477 0.908625 22.529 1.18983 22.8102C1.47104 23.0914 1.85231 23.2496 2.25 23.25H13.125C13.5227 23.2496 13.904 23.0914 14.1852 22.8102C14.4664 22.529 14.6246 22.1477 14.625 21.75V15.9824L22.0742 14.3324C22.4624 14.246 22.8005 14.009 23.0142 13.6737C23.228 13.3383 23.2999 12.9318 23.2144 12.5434ZM13.125 21.75H2.25V10.875H8.63348L9.66769 15.5441C9.74155 15.877 9.92652 16.1748 10.1922 16.3885C10.4578 16.6023 10.7883 16.7193 11.1292 16.7203C11.2394 16.7202 11.3491 16.7081 11.4566 16.6842L13.1254 16.3146L13.1259 21.75H13.125ZM21.75 12.8678L11.1322 15.2197L8.78034 4.60205L19.398 2.25005L21.7508 12.8675L21.75 12.8678Z" fill="black"/>
<path d="M5.625 12.375H3.75V14.25H5.625V12.375Z" fill="black"/>
<path d="M5.625 18.375H3.75V20.25H5.625V18.375Z" fill="black"/>
<path d="M11.625 18.375H9.75V20.25H11.625V18.375Z" fill="black"/>
<path d="M8.625 15.375H6.75V17.25H8.625V15.375Z" fill="black"/>
<path d="M12.3989 5.33993L10.5682 5.74512L10.9734 7.57582L12.8041 7.17063L12.3989 5.33993Z" fill="black"/>
<path d="M19.5555 9.89738L17.7249 10.3029L18.1303 12.1335L19.961 11.728L19.5555 9.89738Z" fill="black"/>
<path d="M15.9777 7.61659L14.1471 8.02209L14.5526 9.85272L16.3832 9.44722L15.9777 7.61659Z" fill="black"/>
</g>
<defs>
<clipPath id="clip0_201_55567">
<rect width="24" height="24" fill="white"/>
</clipPath>
</defs>
</svg>
