<svg width="24" height="24" viewBox="0 0 24 24" fill="none" xmlns="http://www.w3.org/2000/svg">
<g clip-path="url(#clip0_201_56917)">
<path d="M23.9988 12.7457C23.9806 12.1595 23.733 11.6039 23.3094 11.1984L14.6048 2.7186C14.4743 2.58835 14.3193 2.48516 14.1487 2.41493C13.9782 2.3447 13.7955 2.30881 13.6111 2.30933H12.0576L22.2648 12.275L22.2691 12.2791C22.4114 12.414 22.4948 12.5995 22.5013 12.7955C22.5078 12.9914 22.4369 13.1821 22.3038 13.3261L14.9726 21.4521L16.0016 22.4532L23.4116 14.3375C23.8086 13.9045 24.0195 13.3328 23.9988 12.7457Z" fill="black"/>
<path d="M20.0109 13.274C20.0825 13.077 20.0974 12.864 20.0541 12.659C20.0108 12.454 19.9109 12.2653 19.7657 12.1142C19.7608 12.109 19.7564 12.1033 19.7514 12.0982L10.5144 2.70622L10.51 2.70182C10.371 2.56209 10.2057 2.45131 10.0237 2.37589C9.84158 2.30047 9.64637 2.26192 9.4493 2.26246H2.82159C2.27236 2.26308 1.74581 2.48153 1.35744 2.8699C0.969076 3.25826 0.75062 3.78482 0.75 4.33405V10.9481C0.750335 11.1524 0.792253 11.3546 0.873202 11.5422C0.954152 11.7298 1.07244 11.8989 1.22086 12.0394L11.0796 21.4237L11.0832 21.4272C11.2911 21.6236 11.5664 21.7328 11.8524 21.7322C11.8664 21.7322 11.8804 21.732 11.8946 21.7314C12.0021 21.7275 12.1085 21.7083 12.2106 21.6744C12.391 21.6143 12.5531 21.5091 12.6815 21.3689L19.7805 13.6523C19.8816 13.5427 19.9599 13.4141 20.0109 13.274ZM11.8359 20.0727L2.25361 10.9513L2.25 10.948V4.33405C2.25017 4.18251 2.31045 4.03722 2.41761 3.93006C2.52476 3.82291 2.67005 3.76263 2.82159 3.76246H9.44925L18.4352 12.8992L11.8359 20.0727Z" fill="black"/>
<path d="M6.5625 5.25C6.08041 5.25 5.60914 5.39296 5.2083 5.66079C4.80745 5.92863 4.49503 6.30931 4.31054 6.75471C4.12606 7.2001 4.07779 7.6902 4.17184 8.16303C4.26589 8.63586 4.49804 9.07018 4.83893 9.41107C5.17982 9.75196 5.61414 9.98411 6.08697 10.0782C6.55979 10.1722 7.04989 10.1239 7.49529 9.93945C7.94068 9.75496 8.32137 9.44254 8.5892 9.0417C8.85704 8.64085 8.99999 8.16959 8.99999 7.6875C8.99926 7.04126 8.74222 6.4217 8.28526 5.96473C7.8283 5.50777 7.20874 5.25073 6.5625 5.25ZM6.5625 8.625C6.37708 8.625 6.19582 8.57001 6.04165 8.467C5.88748 8.36398 5.76732 8.21757 5.69636 8.04626C5.6254 7.87496 5.60684 7.68646 5.64301 7.5046C5.67919 7.32274 5.76847 7.1557 5.89959 7.02458C6.0307 6.89347 6.19774 6.80419 6.3796 6.76801C6.56146 6.73184 6.74996 6.7504 6.92126 6.82136C7.09257 6.89232 7.23899 7.01248 7.342 7.16665C7.44501 7.32082 7.5 7.50208 7.5 7.6875C7.49971 7.93605 7.40085 8.17434 7.22509 8.35009C7.04934 8.52585 6.81105 8.62471 6.5625 8.625Z" fill="black"/>
</g>
<defs>
<clipPath id="clip0_201_56917">
<rect width="24" height="24" fill="white"/>
</clipPath>
</defs>
</svg>
