<svg width="24" height="24" viewBox="0 0 24 24" fill="none" xmlns="http://www.w3.org/2000/svg">
<path d="M4.125 3.375V18.1875C4.125 18.4361 4.02623 18.6746 3.85041 18.8504C3.6746 19.0262 3.43614 19.125 3.1875 19.125C2.93886 19.125 2.7004 19.0262 2.52459 18.8504C2.34877 18.6746 2.25 18.4361 2.25 18.1875V7.125H0.75V18.1875C0.750732 18.8337 1.00777 19.4533 1.46474 19.9103C1.9217 20.3672 2.54126 20.6243 3.1875 20.625H20.8125C21.4587 20.6243 22.0783 20.3672 22.5353 19.9103C22.9922 19.4533 23.2493 18.8337 23.25 18.1875V3.375H4.125ZM21.75 18.1875C21.7497 18.4361 21.6509 18.6743 21.4751 18.8501C21.2993 19.0259 21.0611 19.1247 20.8125 19.125H5.4375C5.56161 18.828 5.62535 18.5093 5.625 18.1875V4.875H21.75V18.1875Z" fill="black"/>
<path d="M13.875 6.375H7.125V13.875H13.875V6.375ZM12.375 12.375H8.625V7.875H12.375V12.375Z" fill="black"/>
<path d="M20.25 6.375H15.375V7.875H20.25V6.375Z" fill="black"/>
<path d="M20.25 9.375H15.375V10.875H20.25V9.375Z" fill="black"/>
<path d="M20.25 12.375H15.375V13.875H20.25V12.375Z" fill="black"/>
</svg>
