<svg width="24" height="24" viewBox="0 0 24 24" fill="none" xmlns="http://www.w3.org/2000/svg">
<path d="M20.625 17.25C20.9233 17.2497 21.2092 17.131 21.4201 16.9201C21.631 16.7092 21.7497 16.4233 21.75 16.125V4.875C21.7497 4.57674 21.631 4.29079 21.4201 4.07989C21.2092 3.86899 20.9233 3.75035 20.625 3.75H3.375C3.07674 3.75035 2.79079 3.86899 2.57989 4.07989C2.36899 4.29079 2.25035 4.57674 2.25 4.875V16.125C2.25035 16.4233 2.36899 16.7092 2.57989 16.9201C2.79079 17.131 3.07674 17.2497 3.375 17.25H20.625ZM3.75 5.25H20.25V15.75H3.75V5.25Z" fill="black"/>
<path d="M23.25 18.75H0.75V20.25H23.25V18.75Z" fill="black"/>
</svg>
