<svg width="24" height="24" viewBox="0 0 24 24" fill="none" xmlns="http://www.w3.org/2000/svg">
<g clip-path="url(#clip0_201_56709)">
<path d="M19.962 4.09544C18.9201 3.05355 17.6832 2.22708 16.3219 1.66321C14.9606 1.09935 13.5016 0.809129 12.0281 0.809132C9.05234 0.809136 6.19843 1.99127 4.09424 4.09547C1.99004 6.19967 0.807918 9.05357 0.807922 12.0294C0.807927 15.0051 1.99006 17.859 4.09426 19.9632C6.19846 22.0674 9.05237 23.2496 12.0282 23.2495C15.0039 23.2495 17.8578 22.0674 19.962 19.9632C22.0662 17.859 23.2484 15.0051 23.2484 12.0293C23.2484 9.05354 22.0662 6.19964 19.962 4.09544ZM12.0281 21.7495C6.6684 21.7495 2.3079 17.3891 2.3079 12.0293C2.3079 6.66954 6.6684 2.30913 12.0281 2.30913C17.3879 2.30913 21.7483 6.66958 21.7483 12.0293C21.7483 17.3891 17.3879 21.7495 12.0281 21.7495Z" fill="black"/>
<path d="M12.0281 9.02998C11.4348 9.02998 10.8548 9.20593 10.3614 9.53558C9.86808 9.86522 9.48356 10.3338 9.2565 10.8819C9.02944 11.4301 8.97003 12.0333 9.08578 12.6153C9.20154 13.1972 9.48726 13.7318 9.90682 14.1513C10.3264 14.5709 10.8609 14.8566 11.4429 14.9724C12.0248 15.0881 12.628 15.0287 13.1762 14.8016C13.7244 14.5746 14.1929 14.1901 14.5225 13.6967C14.8522 13.2034 15.0281 12.6233 15.0281 12.03C15.0272 11.2346 14.7109 10.4721 14.1485 9.90967C13.586 9.34725 12.8235 9.03089 12.0281 9.02998ZM12.0281 13.53C11.7315 13.53 11.4415 13.442 11.1948 13.2772C10.9481 13.1124 10.7559 12.8781 10.6423 12.604C10.5288 12.3299 10.4991 12.0283 10.557 11.7374C10.6148 11.4464 10.7577 11.1791 10.9675 10.9693C11.1773 10.7595 11.4445 10.6167 11.7355 10.5588C12.0265 10.5009 12.3281 10.5306 12.6022 10.6442C12.8763 10.7577 13.1105 10.95 13.2753 11.1966C13.4402 11.4433 13.5281 11.7333 13.5281 12.03C13.5277 12.4277 13.3695 12.809 13.0883 13.0902C12.8071 13.3714 12.4258 13.5295 12.0281 13.53Z" fill="black"/>
</g>
<defs>
<clipPath id="clip0_201_56709">
<rect width="24" height="24" fill="white"/>
</clipPath>
</defs>
</svg>
