<svg width="24" height="24" viewBox="0 0 24 24" fill="none" xmlns="http://www.w3.org/2000/svg">
<g clip-path="url(#clip0_201_56070)">
<path d="M7.58658 15H16.5866L16.8173 13.5H7.81734L7.58658 15Z" fill="black"/>
<path d="M21.8963 0.75L21.1266 6H19.7426L20.6011 0.75H19.0812L17.4255 10.875H7.30402C6.78045 10.8755 6.2734 11.0583 5.87003 11.3921C5.46667 11.7259 5.19218 12.1898 5.09377 12.704L4.6553 15.0059C3.89835 15.0463 3.16718 15.2946 2.54207 15.7234C1.91697 16.1521 1.42211 16.7449 1.11183 17.4365C0.801544 18.1281 0.68784 18.8919 0.783198 19.6439C0.878557 20.3959 1.17929 21.1071 1.65238 21.6994C2.12547 22.2917 2.75261 22.7421 3.46496 23.0013C4.1773 23.2605 4.94729 23.3184 5.69038 23.1687C6.43348 23.0189 7.12093 22.6673 7.67727 22.1524C8.23361 21.6375 8.63731 20.9793 8.84405 20.25H14.7211C16.348 20.25 17.9202 19.6624 19.1483 18.5954C20.3764 17.5283 21.1777 16.0537 21.405 14.4427L23.4124 0.75H21.8963ZM4.875 21.75C4.35583 21.75 3.84831 21.596 3.41663 21.3076C2.98495 21.0192 2.6485 20.6092 2.44982 20.1295C2.25114 19.6499 2.19916 19.1221 2.30044 18.6129C2.40173 18.1037 2.65174 17.636 3.01885 17.2688C3.38596 16.9017 3.85369 16.6517 4.36289 16.5504C4.87209 16.4492 5.39989 16.5011 5.87955 16.6998C6.3592 16.8985 6.76917 17.2349 7.05761 17.6666C7.34605 18.0983 7.5 18.6058 7.5 19.125C7.49922 19.821 7.22241 20.4882 6.7303 20.9803C6.23818 21.4724 5.57096 21.7492 4.875 21.75ZM19.9201 14.2297C19.7838 15.1973 19.3783 16.1072 18.75 16.8555C18.3709 17.3086 17.9191 17.6953 17.413 18C16.6007 18.4903 15.6699 18.7496 14.7211 18.75H8.9828C8.94806 18.3643 8.85878 17.9856 8.71763 17.625H16.1827L16.4135 16.125H7.70311C7.62105 16.0476 7.53588 15.9736 7.4476 15.903C7.05946 15.5921 6.61823 15.3541 6.14527 15.2004L6.54057 13.125L6.56733 12.9847C6.60012 12.8133 6.6916 12.6586 6.82605 12.5474C6.9605 12.4361 7.12951 12.3752 7.30402 12.375H18.7001L19.4973 7.5H20.9067L19.9201 14.2297Z" fill="black"/>
</g>
<defs>
<clipPath id="clip0_201_56070">
<rect width="24" height="24" fill="white"/>
</clipPath>
</defs>
</svg>
