<svg width="24" height="24" viewBox="0 0 24 24" fill="none" xmlns="http://www.w3.org/2000/svg">
<path d="M21 10.125H18.75V8.625C18.75 4.90312 15.7219 1.875 12 1.875C8.27812 1.875 5.25 4.90312 5.25 8.625V10.125H3C2.40347 10.1257 1.83157 10.363 1.40976 10.7848C0.987954 11.2066 0.750682 11.7785 0.75 12.375V18.375C0.750682 18.9715 0.987954 19.5434 1.40976 19.9652C1.83157 20.387 2.40347 20.6243 3 20.625H5.25C5.64769 20.6246 6.02896 20.4664 6.31017 20.1852C6.59137 19.904 6.74955 19.5227 6.75 19.125V8.625C6.75 7.23261 7.30312 5.89726 8.28769 4.91269C9.27226 3.92812 10.6076 3.375 12 3.375C13.3924 3.375 14.7277 3.92812 15.7123 4.91269C16.6969 5.89726 17.25 7.23261 17.25 8.625V19.125C17.2504 19.5227 17.4086 19.904 17.6898 20.1852C17.971 20.4664 18.3523 20.6246 18.75 20.625H21C21.5965 20.6243 22.1684 20.387 22.5902 19.9652C23.012 19.5434 23.2493 18.9715 23.25 18.375V12.375C23.2493 11.7785 23.012 11.2066 22.5902 10.7848C22.1684 10.363 21.5965 10.1257 21 10.125ZM5.25 19.125H3C2.80116 19.1248 2.61053 19.0457 2.46993 18.9051C2.32933 18.7645 2.25024 18.5738 2.25 18.375V12.375C2.25024 12.1762 2.32933 11.9855 2.46993 11.8449C2.61053 11.7043 2.80116 11.6252 3 11.625H5.25V14.25H5.25038L5.25094 19.125H5.25ZM21.75 18.375C21.7498 18.5738 21.6707 18.7645 21.5301 18.9051C21.3895 19.0457 21.1988 19.1248 21 19.125H18.75V11.625H21C21.1988 11.6252 21.3895 11.7043 21.5301 11.8449C21.6707 11.9855 21.7498 12.1762 21.75 12.375V18.375Z" fill="black"/>
</svg>
