<svg width="24" height="24" viewBox="0 0 24 24" fill="none" xmlns="http://www.w3.org/2000/svg">
<path d="M1.11029 21.3998C1.03918 21.6068 1.02785 21.8296 1.07759 22.0427C1.12734 22.2559 1.23615 22.4507 1.39154 22.6048L1.39562 22.6089C1.50375 22.7178 1.63236 22.8043 1.77404 22.8634C1.91572 22.9225 2.06769 22.9529 2.22119 22.9531C2.35034 22.953 2.47861 22.9317 2.60087 22.8901C6.9773 21.3993 10.9545 18.9267 14.2277 15.6616L22.0304 7.85874C22.4187 7.47244 22.7269 7.01332 22.9375 6.5077C23.1481 6.00207 23.2569 5.45986 23.2576 4.91213C23.2583 4.3644 23.1509 3.82191 22.9417 3.31574C22.7324 2.80957 22.4253 2.34966 22.038 1.96236C21.6507 1.57506 21.1908 1.26797 20.6846 1.05869C20.1784 0.849409 19.6359 0.742048 19.0882 0.742756C18.5405 0.743463 17.9983 0.852225 17.4927 1.06281C16.987 1.2734 16.5279 1.58167 16.1416 1.96998L15.6947 2.41688L14.7201 1.4423C14.2771 0.999283 13.6762 0.750399 13.0496 0.750399C12.4231 0.750399 11.8222 0.999283 11.3792 1.4423L5.09472 7.72674L6.15531 8.78738L12.4398 2.50294C12.6015 2.34123 12.8209 2.25038 13.0496 2.25038C13.2783 2.25038 13.4977 2.34123 13.6594 2.50294L14.6341 3.47752L8.33875 9.77283C5.07361 13.0461 2.60099 17.0233 1.11029 21.3998ZM17.2025 3.03062C17.4499 2.78324 17.7435 2.58701 18.0668 2.45313C18.39 2.31925 18.7364 2.25034 19.0862 2.25034C19.4361 2.25034 19.7825 2.31925 20.1057 2.45313C20.4289 2.58701 20.7226 2.78324 20.97 3.03062C21.2173 3.27799 21.4136 3.57167 21.5475 3.89488C21.6813 4.2181 21.7502 4.56451 21.7502 4.91436C21.7502 5.2642 21.6813 5.61062 21.5475 5.93383C21.4136 6.25704 21.2173 6.55072 20.97 6.7981L16.775 10.9931L13.0075 7.2256L17.2025 3.03062ZM11.9467 8.28624L15.7141 12.0537L13.1668 14.601C10.2176 17.5425 6.66545 19.8094 2.75528 21.2451C4.19098 17.3349 6.4578 13.7827 9.39939 10.8335L11.9467 8.28624Z" fill="black"/>
</svg>
