<svg width="24" height="24" viewBox="0 0 24 24" fill="none" xmlns="http://www.w3.org/2000/svg">
<path d="M6.375 1.125H0.75V6.75H6.375V1.125ZM4.875 5.25H2.25V2.625H4.875V5.25Z" fill="black"/>
<path d="M6.375 9.375H0.75V15H6.375V9.375ZM4.875 13.5H2.25V10.875H4.875V13.5Z" fill="black"/>
<path d="M6.375 17.625H0.75V23.25H6.375V17.625ZM4.875 21.75H2.25V19.125H4.875V21.75Z" fill="black"/>
<path d="M23.25 1.12488H8.25V2.62488H23.25V1.12488Z" fill="black"/>
<path d="M20.25 5.24988H8.25V6.74988H20.25V5.24988Z" fill="black"/>
<path d="M23.25 9.37488H8.25V10.8749H23.25V9.37488Z" fill="black"/>
<path d="M20.25 13.4999H8.25V14.9999H20.25V13.4999Z" fill="black"/>
<path d="M20.25 21.7499H8.25V23.2499H20.25V21.7499Z" fill="black"/>
<path d="M23.25 17.6249H8.25V19.1249H23.25V17.6249Z" fill="black"/>
</svg>
