<svg width="24" height="24" viewBox="0 0 24 24" fill="none" xmlns="http://www.w3.org/2000/svg">
<g clip-path="url(#clip0_201_55671)">
<path d="M12.7498 20.3788V9.8053H11.2498V20.3788L8.81783 17.9468L7.75714 19.0075L11.9998 23.2502L16.2424 19.0075L15.1818 17.9468L12.7498 20.3788Z" fill="black"/>
<path d="M18.75 7.5553C18.75 3.83342 15.7219 0.805298 12 0.805298C8.27812 0.805298 5.25 3.83342 5.25 7.5553C4.05653 7.5553 2.91193 8.0294 2.06802 8.87332C1.22411 9.71723 0.75 10.8618 0.75 12.0553C0.75 13.2488 1.22411 14.3934 2.06802 15.2373C2.91193 16.0812 4.05653 16.5553 5.25 16.5553H9V15.0553H5.25C4.45435 15.0553 3.69129 14.7392 3.12868 14.1766C2.56607 13.614 2.25 12.8509 2.25 12.0553C2.25 11.2596 2.56607 10.4966 3.12868 9.93398C3.69129 9.37137 4.45435 9.0553 5.25 9.0553H6.75V7.5553C6.75 6.16291 7.30312 4.82755 8.28769 3.84299C9.27226 2.85842 10.6076 2.3053 12 2.3053C13.3924 2.3053 14.7277 2.85842 15.7123 3.84299C16.6969 4.82755 17.25 6.16291 17.25 7.5553V9.0553H18.75C19.5456 9.0553 20.3087 9.37137 20.8713 9.93398C21.4339 10.4966 21.75 11.2596 21.75 12.0553C21.75 12.8509 21.4339 13.614 20.8713 14.1766C20.3087 14.7392 19.5456 15.0553 18.75 15.0553H15V16.5553H18.75C19.9435 16.5553 21.0881 16.0812 21.932 15.2373C22.7759 14.3934 23.25 13.2488 23.25 12.0553C23.25 10.8618 22.7759 9.71723 21.932 8.87332C21.0881 8.0294 19.9435 7.5553 18.75 7.5553Z" fill="black"/>
</g>
<defs>
<clipPath id="clip0_201_55671">
<rect width="24" height="24" fill="white"/>
</clipPath>
</defs>
</svg>
