<svg width="24" height="24" viewBox="0 0 24 24" fill="none" xmlns="http://www.w3.org/2000/svg">
<path d="M12.813 3.09617C12.7308 2.95318 12.6124 2.83439 12.4697 2.75178C12.3269 2.66917 12.165 2.62567 12 2.62567C11.8351 2.62567 11.6731 2.66917 11.5304 2.75178C11.3877 2.83439 11.2693 2.95318 11.1871 3.09617L1.38609 20.1572C1.3042 20.2998 1.26123 20.4613 1.26149 20.6257C1.26175 20.7901 1.30524 20.9516 1.38759 21.0939C1.46994 21.2361 1.58826 21.3543 1.73068 21.4364C1.87309 21.5185 2.0346 21.5617 2.199 21.5617H21.8011C21.9655 21.5617 22.127 21.5185 22.2694 21.4364C22.4118 21.3543 22.5301 21.2361 22.6125 21.0939C22.6948 20.9516 22.7383 20.7902 22.7386 20.6258C22.7388 20.4614 22.6959 20.2998 22.614 20.1573L12.813 3.09617ZM3.17086 20.0617L12 4.69241L20.8292 20.0617H3.17086Z" fill="black"/>
</svg>
