<svg width="24" height="24" viewBox="0 0 24 24" fill="none" xmlns="http://www.w3.org/2000/svg">
<path d="M23.6149 5.82353C21.3731 4.25336 18.8362 3.15415 16.1574 2.59236C13.4787 2.03057 10.7139 2.01787 8.03009 2.55503L9.04222 3.89397C10.0205 3.73896 11.0095 3.66119 12 3.66138C15.5931 3.65562 19.1114 4.68792 22.1318 6.63414L16.8325 14.2023L17.783 15.46L23.625 7.11672V5.83038L23.6149 5.82353Z" fill="black"/>
<path d="M3.86916 0.75V1.77656L5.082 3.38142C3.41607 3.98637 1.83691 4.80774 0.385125 5.82441L0.375 5.83125V7.11741L11.1458 22.5H12.8542L16.0651 17.9143L18.9639 21.75H20.0414V20.6879L4.97344 0.75H3.86916ZM15.1145 16.6566L12 21.1046L1.86825 6.63502C3.16714 5.7988 4.56465 5.12676 6.02883 4.63425L15.1145 16.6566Z" fill="black"/>
</svg>
