<svg width="24" height="24" viewBox="0 0 24 24" fill="none" xmlns="http://www.w3.org/2000/svg">
<path d="M4.76564 18.75H21.75V0.75H4.71877C3.9653 0.752423 3.24338 1.05281 2.7106 1.5856C2.17781 2.11838 1.87742 2.8403 1.875 3.59377V20.168H1.87552C1.87552 20.175 1.875 20.182 1.875 20.1892C1.875 21.8486 3.17728 23.2501 4.71877 23.2501H21.75V21.75H4.71877C4.0155 21.75 3.375 21.006 3.375 20.1891C3.375 19.4091 4.0118 18.75 4.76564 18.75ZM16.875 2.26561V10.3664L14.6063 8.37464L12.375 10.3547V2.26561H16.875ZM10.875 2.25V12.375H12.3582L14.6117 10.3754L16.8893 12.375H18.375V2.25H20.25V17.25H6.37875L6.375 2.25H10.875ZM4.71877 2.25H4.875L4.87856 17.25H4.76545C4.27771 17.2501 3.79844 17.3775 3.375 17.6195V3.60548C3.37385 3.24766 3.51469 2.904 3.7666 2.64989C4.01852 2.39577 4.36095 2.25196 4.71877 2.25Z" fill="black"/>
</svg>
