<svg width="24" height="24" viewBox="0 0 24 24" fill="none" xmlns="http://www.w3.org/2000/svg">
<path d="M22.125 1.875H1.875C1.57674 1.87535 1.29079 1.99399 1.07989 2.20489C0.868985 2.41579 0.750347 2.70174 0.75 3V21C0.750347 21.2983 0.868985 21.5842 1.07989 21.7951C1.29079 22.006 1.57674 22.1247 1.875 22.125H22.125C22.4233 22.1247 22.7092 22.006 22.9201 21.7951C23.131 21.5842 23.2497 21.2983 23.25 21V3C23.2497 2.70174 23.131 2.41579 22.9201 2.20489C22.7092 1.99399 22.4233 1.87535 22.125 1.875ZM21.75 20.625H2.25V3.375H21.75V20.625Z" fill="black"/>
<path d="M7.125 11.25H8.625V9.375H10.5V7.875H8.625V6H7.125V7.875H5.25V9.375H7.125V11.25Z" fill="black"/>
<path d="M9.2008 13.3636L7.87498 14.6895L6.54917 13.3636L5.48853 14.4243L6.81434 15.7501L5.48853 17.0759L6.54917 18.1366L7.87498 16.8107L9.2008 18.1366L10.2614 17.0759L8.93562 15.7501L10.2614 14.4243L9.2008 13.3636Z" fill="black"/>
<path d="M18.75 7.875H13.5V9.375H18.75V7.875Z" fill="black"/>
<path d="M18.75 13.5H13.5V15H18.75V13.5Z" fill="black"/>
<path d="M18.75 16.5H13.5V18H18.75V16.5Z" fill="black"/>
</svg>
