<svg width="24" height="24" viewBox="0 0 24 24" fill="none" xmlns="http://www.w3.org/2000/svg">
<path d="M19.125 14.25C17.6308 14.2514 16.1678 14.6774 14.9064 15.4782C13.6449 16.2791 12.637 17.4218 12 18.7734C11.363 17.4218 10.3551 16.2791 9.09364 15.4782C7.8322 14.6774 6.36918 14.2514 4.875 14.25H0.75V15C0.75 19.3423 4.28269 22.875 8.625 22.875H15.375C19.7173 22.875 23.25 19.3423 23.25 15V14.25H19.125ZM8.625 21.375C5.36339 21.375 2.66606 18.9132 2.29387 15.75H4.875C8.13661 15.75 10.8339 18.2118 11.2061 21.375H8.625ZM15.375 21.375H12.7939C13.1661 18.2118 15.8634 15.75 19.125 15.75H21.7061C21.3339 18.9132 18.6366 21.375 15.375 21.375Z" fill="black"/>
<path d="M7.93244 12.3172C8.07429 13.1606 8.47666 13.9384 9.08308 14.5415L9.30278 14.7612H9.61342C10.4687 14.7636 11.3032 14.4981 11.9999 14.002C12.6966 14.4981 13.5311 14.7637 14.3864 14.7614H14.6971L14.9168 14.5417C15.5232 13.9386 15.9256 13.1608 16.0674 12.3174C16.9108 12.1755 17.6887 11.7731 18.2918 11.1667L18.5114 10.947V10.6364C18.5138 9.78104 18.2484 8.94642 17.7522 8.24968C18.2484 7.55301 18.5139 6.71846 18.5116 5.86318V5.55254L18.292 5.33283C17.6889 4.72641 16.911 4.32404 16.0676 4.18219C15.9257 3.33877 15.5234 2.56094 14.917 1.95783L14.6973 1.73818H14.3866C13.5313 1.73576 12.6967 2.00125 11.9999 2.49737C11.3033 2.00121 10.4687 1.73566 9.61342 1.73799H9.30278L9.08308 1.95765C8.47666 2.56075 8.07429 3.33859 7.93244 4.18201C7.08902 4.32386 6.31118 4.72623 5.70808 5.33265L5.48842 5.55235V5.86299C5.48601 6.71832 5.75149 7.55293 6.24761 8.24968C5.75146 8.94635 5.48591 9.78089 5.48824 10.6362V10.9468L5.70789 11.1665C6.31104 11.773 7.08895 12.1754 7.93244 12.3172ZM7.75731 7.71938C7.34136 7.30593 7.0771 6.7642 7.00731 6.18188C7.4684 5.81932 8.03836 5.623 8.62492 5.62468H9.37492V4.87468C9.37323 4.28819 9.56951 3.71828 9.93199 3.25721C10.5143 3.327 11.056 3.59125 11.4695 4.00721L11.9999 4.53718L12.5302 4.00688C12.9437 3.59093 13.4854 3.32667 14.0677 3.25688C14.4303 3.71802 14.6266 4.28806 14.6249 4.87468V5.62468H15.3749C15.9614 5.62299 16.5313 5.81926 16.9924 6.18174C16.9226 6.76406 16.6583 7.30579 16.2424 7.71924L15.7124 8.24968L16.2428 8.78002C16.6587 9.19348 16.923 9.7352 16.9928 10.3175C16.5316 10.6801 15.9616 10.8764 15.3749 10.8747H14.6249V11.6247C14.6266 12.2112 14.4303 12.7811 14.0679 13.2421C13.4855 13.1724 12.9438 12.9081 12.5304 12.4921L11.9999 11.9622L11.4696 12.4923C11.0561 12.9083 10.5144 13.1725 9.93208 13.2423C9.56953 12.7812 9.37322 12.2112 9.37492 11.6247V10.8747H8.62492C8.03843 10.8764 7.46853 10.6801 7.00745 10.3176C7.07724 9.7353 7.3415 9.19357 7.75745 8.78012L8.28742 8.24968L7.75731 7.71938Z" fill="black"/>
</svg>
