<svg width="24" height="24" viewBox="0 0 24 24" fill="none" xmlns="http://www.w3.org/2000/svg">
<g clip-path="url(#clip0_201_55722)">
<path d="M12 0.75C5.78681 0.75 0.75 5.78681 0.75 12C0.75 18.2132 5.78681 23.25 12 23.25C18.2132 23.25 23.25 18.2132 23.25 12C23.25 5.78681 18.2132 0.75 12 0.75ZM10.9688 21.696C9.23735 21.5107 7.58699 20.8658 6.18863 19.8281C4.79028 18.7905 3.69477 17.3979 3.01561 15.7945C2.99855 15.7542 2.98252 15.7137 2.96606 15.6732L10.9688 20.1534V21.696ZM10.9688 18.4344L2.38542 13.6294C2.29514 13.091 2.24985 12.5459 2.25 12C2.25 11.6903 2.26441 11.3829 2.29322 11.078L10.9688 15.9346V18.4344ZM10.9688 14.2156L2.56964 9.51375C2.68691 9.06753 2.83594 8.63028 3.01561 8.20533C3.10208 8.00073 3.19531 7.79986 3.29531 7.6027L10.9688 11.9032V14.2156ZM10.9688 10.1837L4.07409 6.31964C4.38451 5.88767 4.72952 5.48165 5.10572 5.10558C5.22197 4.98933 5.34072 4.87639 5.46197 4.76677L10.9688 7.78252V10.1837ZM10.9688 6.07238L6.7665 3.77114C8.0346 2.96299 9.47322 2.46071 10.9688 2.30395V6.07238ZM21.75 12C21.7526 14.5055 20.7895 16.9156 19.061 18.7293C17.3325 20.5431 14.9715 21.6209 12.4688 21.7388V2.2612C14.9714 2.37926 17.3323 3.45715 19.0608 5.27085C20.7893 7.08455 21.7524 9.49457 21.75 12Z" fill="black"/>
</g>
<defs>
<clipPath id="clip0_201_55722">
<rect width="24" height="24" fill="white"/>
</clipPath>
</defs>
</svg>
