<svg width="24" height="24" viewBox="0 0 24 24" fill="none" xmlns="http://www.w3.org/2000/svg">
<path d="M4.81064 6.10772L7.24261 3.6758V23.2493H8.74261V3.6758L11.1746 6.10777L12.2353 5.04713L7.99261 0.804474L3.75 5.04713L4.81064 6.10772Z" fill="black"/>
<path d="M20.4053 9.375H18.5303V2.625H17.0303V4.125H15.5303V5.625H17.0303V9.375H15.1553V10.875H20.4053V9.375Z" fill="black"/>
<path d="M16.8053 20.25H15.9053V21.75H16.8053C17.7598 21.7489 18.6748 21.3693 19.3497 20.6944C20.0246 20.0195 20.4043 19.1045 20.4053 18.15V15.7313C20.4046 15.0403 20.1297 14.3778 19.6411 13.8892C19.1525 13.4006 18.4901 13.1258 17.7991 13.125H17.5928C16.9018 13.1258 16.2394 13.4006 15.7508 13.8892C15.2622 14.3778 14.9874 15.0403 14.9866 15.7313V15.9375C14.9874 16.6285 15.2622 17.2909 15.7508 17.7795C16.2394 18.2681 16.9018 18.543 17.5928 18.5438H17.7991C18.1794 18.544 18.5551 18.4606 18.8995 18.2993C18.8612 18.8288 18.624 19.3242 18.2356 19.686C17.8471 20.0478 17.3362 20.2493 16.8053 20.25ZM17.7991 17.0438H17.5928C17.2995 17.0434 17.0183 16.9268 16.811 16.7194C16.6036 16.512 16.4869 16.2308 16.4866 15.9375V15.7313C16.4869 15.438 16.6036 15.1568 16.811 14.9494C17.0183 14.742 17.2995 14.6253 17.5928 14.625H17.7991C18.0924 14.6253 18.3736 14.742 18.581 14.9494C18.7883 15.1568 18.905 15.438 18.9053 15.7313V15.9375C18.905 16.2308 18.7883 16.512 18.5809 16.7194C18.3735 16.9268 18.0923 17.0434 17.799 17.0438H17.7991Z" fill="black"/>
</svg>
