<svg width="24" height="24" viewBox="0 0 24 24" fill="none" xmlns="http://www.w3.org/2000/svg">
<path d="M23.6149 5.82353C20.2107 3.44005 16.1557 2.16156 12 2.16156C7.84433 2.16156 3.78927 3.44005 0.385078 5.82353L0.375 5.83038V7.11649L11.1458 22.4991H12.8542L23.625 7.11667V5.83038L23.6149 5.82353ZM18.906 4.97566L10.0297 18.2898L8.90119 16.6782L17.0099 4.33896C17.6529 4.51695 18.2858 4.7295 18.906 4.97566ZM13.425 3.71528C14.1048 3.76636 14.7813 3.85448 15.4515 3.97924L7.97541 15.3558L6.73153 13.5792L13.425 3.71528ZM5.81077 12.2646L4.74202 10.7382L9.33436 3.84972C10.1005 3.74073 10.8727 3.67896 11.6464 3.66475L5.81077 12.2646ZM7.25222 4.26874L3.81848 9.41936L1.86848 6.63414C3.52677 5.56609 5.3439 4.76771 7.25222 4.26874ZM12 21.1038L10.9532 19.6088L20.2961 5.5945C20.9269 5.90648 21.5398 6.25357 22.1318 6.63414L12 21.1038Z" fill="black"/>
</svg>
