<svg width="24" height="24" viewBox="0 0 24 24" fill="none" xmlns="http://www.w3.org/2000/svg">
<g clip-path="url(#clip0_201_57116)">
<path d="M16.3159 6.6228L12.202 10.7367L8.08806 6.6228L7.02737 7.68344L11.1413 11.7973L7.02737 15.9113L8.08806 16.9719L12.202 12.858L16.3159 16.9719L17.3765 15.9113L13.2626 11.7973L17.3765 7.68344L16.3159 6.6228Z" fill="black"/>
<path d="M19.9549 4.04451C17.8451 1.93472 14.9837 0.749451 12 0.749451C9.01627 0.749451 6.15478 1.93472 4.045 4.04451C1.93521 6.1543 0.749939 9.01578 0.749939 11.9995C0.749939 14.9832 1.93521 17.8447 4.045 19.9544C6.15478 22.0642 9.01627 23.2495 12 23.2495C14.9837 23.2495 17.8451 22.0642 19.9549 19.9544C22.0647 17.8447 23.25 14.9832 23.25 11.9995C23.25 9.01578 22.0647 6.1543 19.9549 4.04451ZM12 21.7495C6.62382 21.7495 2.24996 17.3756 2.24996 11.9995C2.24996 6.62333 6.62382 2.24948 12 2.24948C17.3761 2.24948 21.75 6.62333 21.75 11.9995C21.75 17.3756 17.3761 21.7495 12 21.7495Z" fill="black"/>
</g>
<defs>
<clipPath id="clip0_201_57116">
<rect width="24" height="24" fill="white"/>
</clipPath>
</defs>
</svg>
