<svg width="24" height="24" viewBox="0 0 24 24" fill="none" xmlns="http://www.w3.org/2000/svg">
<path d="M20.2501 1.5C19.6008 1.49972 18.9689 1.7102 18.4495 2.0998C17.93 2.48939 17.5511 3.03706 17.3696 3.66048C17.1881 4.2839 17.2138 4.94939 17.443 5.55693C17.6721 6.16446 18.0922 6.68121 18.6402 7.02952L16.6826 13.8811C16.6222 13.8774 16.5614 13.875 16.5001 13.875C15.8547 13.8743 15.2266 14.0828 14.7098 14.4693L11.0932 11.4555C11.2644 10.9474 11.2964 10.4028 11.1858 9.8783C11.0751 9.35375 10.826 8.86842 10.4642 8.47281C10.1025 8.07719 9.64131 7.78574 9.12873 7.62877C8.61614 7.4718 8.07086 7.45505 7.5496 7.58026C7.02835 7.70548 6.55017 7.96808 6.1648 8.34074C5.77944 8.71341 5.50098 9.18253 5.35839 9.6993C5.21579 10.2161 5.21427 10.7616 5.35399 11.2792C5.49371 11.7967 5.76955 12.2674 6.15284 12.6422L4.02977 16.8885C3.93757 16.8799 3.84443 16.875 3.75007 16.875C3.03137 16.8741 2.33616 17.1309 1.79063 17.5988C1.24509 18.0667 0.885404 18.7147 0.776844 19.4251C0.668283 20.1356 0.818049 20.8614 1.19896 21.4709C1.57986 22.0803 2.16666 22.533 2.85284 22.7468C3.53902 22.9605 4.2791 22.9212 4.93874 22.6358C5.59837 22.3505 6.13385 21.8381 6.44797 21.1917C6.76209 20.5453 6.83403 19.8077 6.65073 19.1127C6.46743 18.4178 6.04104 17.8116 5.44896 17.4042L7.45521 13.3922C7.94256 13.5267 8.45602 13.5355 8.94769 13.4178C9.43935 13.3001 9.8932 13.0598 10.2669 12.7193L13.7684 15.6374C13.5306 16.1614 13.4486 16.7427 13.532 17.312C13.6154 17.8814 13.8609 18.4147 14.239 18.8484C14.6171 19.2822 15.112 19.598 15.6647 19.7583C16.2173 19.9186 16.8044 19.9166 17.3559 19.7524C17.9074 19.5883 18.4001 19.2691 18.7752 18.8327C19.1504 18.3964 19.3921 17.8614 19.4715 17.2915C19.551 16.7215 19.4649 16.1408 19.2235 15.6185C18.9821 15.0961 18.5956 14.6542 18.11 14.3455L20.0675 7.49391C20.128 7.49756 20.1887 7.5 20.2501 7.5C21.0457 7.5 21.8088 7.18393 22.3714 6.62132C22.934 6.05871 23.2501 5.29565 23.2501 4.5C23.2501 3.70435 22.934 2.94129 22.3714 2.37868C21.8088 1.81607 21.0457 1.5 20.2501 1.5ZM3.75007 21.375C3.4534 21.375 3.16339 21.287 2.91671 21.1222C2.67004 20.9574 2.47778 20.7231 2.36425 20.449C2.25072 20.1749 2.22101 19.8733 2.27889 19.5824C2.33677 19.2914 2.47963 19.0241 2.68941 18.8143C2.89919 18.6046 3.16646 18.4617 3.45743 18.4038C3.74841 18.3459 4.05001 18.3756 4.3241 18.4892C4.59818 18.6027 4.83245 18.795 4.99727 19.0416C5.1621 19.2883 5.25007 19.5783 5.25007 19.875C5.24962 20.2727 5.09144 20.654 4.81024 20.9352C4.52903 21.2164 4.14776 21.3746 3.75007 21.375ZM8.25007 12C7.9534 12 7.66339 11.912 7.41671 11.7472C7.17004 11.5824 6.97778 11.3481 6.86425 11.074C6.75072 10.7999 6.72101 10.4983 6.77889 10.2074C6.83677 9.91639 6.97963 9.64912 7.18941 9.43934C7.39919 9.22956 7.66646 9.0867 7.95743 9.02882C8.2484 8.97094 8.55 9.00065 8.82409 9.11418C9.09818 9.22771 9.33245 9.41997 9.49727 9.66665C9.6621 9.91332 9.75007 10.2033 9.75007 10.5C9.74962 10.8977 9.59144 11.279 9.31024 11.5602C9.02903 11.8414 8.64776 11.9996 8.25007 12ZM16.5001 18.375C16.2034 18.375 15.9134 18.287 15.6667 18.1222C15.42 17.9574 15.2278 17.7231 15.1142 17.449C15.0007 17.1749 14.971 16.8733 15.0289 16.5824C15.0868 16.2914 15.2296 16.0241 15.4394 15.8143C15.6492 15.6046 15.9165 15.4617 16.2074 15.4038C16.4984 15.3459 16.8 15.3756 17.0741 15.4892C17.3482 15.6027 17.5825 15.795 17.7473 16.0416C17.9121 16.2883 18.0001 16.5783 18.0001 16.875C17.9996 17.2727 17.8414 17.654 17.5602 17.9352C17.279 18.2164 16.8978 18.3746 16.5001 18.375ZM20.2501 6C19.9534 6 19.6634 5.91203 19.4167 5.7472C19.17 5.58238 18.9778 5.34811 18.8642 5.07403C18.7507 4.79994 18.721 4.49834 18.7789 4.20737C18.8368 3.91639 18.9796 3.64912 19.1894 3.43934C19.3992 3.22956 19.6665 3.0867 19.9574 3.02882C20.2484 2.97094 20.55 3.00065 20.8241 3.11418C21.0982 3.22771 21.3325 3.41997 21.4973 3.66665C21.6621 3.91332 21.7501 4.20333 21.7501 4.5C21.7496 4.89769 21.5914 5.27896 21.3102 5.56017C21.029 5.84137 20.6478 5.99955 20.2501 6Z" fill="black"/>
</svg>
