<svg width="24" height="24" viewBox="0 0 24 24" fill="none" xmlns="http://www.w3.org/2000/svg">
<g clip-path="url(#clip0_201_55165)">
<path d="M23.25 0.75H0.75V2.25H23.25V0.75Z" fill="black"/>
<path d="M23.25 21.75H0.75V23.25H23.25V21.75Z" fill="black"/>
<path d="M4.09552 10.8501C4.7572 10.8501 5.40403 10.6539 5.9542 10.2863C6.50438 9.91864 6.93318 9.39613 7.18639 8.7848C7.4396 8.17348 7.50584 7.5008 7.37673 6.85183C7.24763 6.20286 6.92898 5.60674 6.46109 5.13887C5.99319 4.671 5.39706 4.35239 4.74808 4.22332C4.0991 4.09425 3.42642 4.16053 2.81511 4.41378C2.2038 4.66702 1.68132 5.09585 1.31373 5.64604C0.946142 6.19623 0.749963 6.84307 0.75 7.50476C0.75103 8.39172 1.10384 9.24204 1.73103 9.8692C2.35822 10.4963 3.20856 10.8491 4.09552 10.8501ZM4.09552 5.65911C4.46052 5.65911 4.81732 5.76734 5.12081 5.97012C5.4243 6.1729 5.66085 6.46113 5.80054 6.79834C5.94022 7.13556 5.97678 7.50662 5.90558 7.86461C5.83438 8.2226 5.65863 8.55144 5.40054 8.80955C5.14246 9.06765 4.81363 9.24343 4.45564 9.31466C4.09766 9.38588 3.72659 9.34936 3.38936 9.2097C3.05214 9.07003 2.7639 8.83351 2.56109 8.53004C2.35829 8.22656 2.25003 7.86977 2.25 7.50476C2.25051 7.01544 2.44511 6.54631 2.79109 6.2003C3.13708 5.85428 3.6062 5.65965 4.09552 5.65911Z" fill="black"/>
<path d="M12.8583 10.8501C13.4096 10.85 13.9486 10.6866 14.407 10.3803C14.8654 10.074 15.2226 9.6386 15.4336 9.12925C15.6446 8.61989 15.6998 8.05942 15.5922 7.5187C15.4847 6.97797 15.2192 6.48129 14.8293 6.09145C14.4395 5.70162 13.9428 5.43614 13.4021 5.32858C12.8613 5.22103 12.3009 5.27624 11.7915 5.48722C11.2822 5.6982 10.8468 6.05548 10.5405 6.51389C10.2342 6.97229 10.0707 7.51122 10.0707 8.06254C10.0716 8.80159 10.3655 9.51014 10.8881 10.0327C11.4107 10.5553 12.1193 10.8493 12.8583 10.8501ZM12.8583 6.77503C13.113 6.77504 13.3619 6.85055 13.5736 6.99203C13.7853 7.13351 13.9503 7.3346 14.0478 7.56986C14.1452 7.80513 14.1707 8.064 14.121 8.31375C14.0714 8.5635 13.9487 8.79291 13.7687 8.97297C13.5886 9.15303 13.3592 9.27565 13.1094 9.32532C12.8597 9.375 12.6008 9.3495 12.3655 9.25205C12.1303 9.1546 11.9292 8.98957 11.7877 8.77784C11.6463 8.56611 11.5707 8.31719 11.5707 8.06254C11.5712 7.72119 11.7069 7.39393 11.9483 7.15257C12.1897 6.9112 12.517 6.77542 12.8583 6.77503Z" fill="black"/>
<path d="M20.4148 10.1C20.6895 10.1 20.9581 10.0185 21.1866 9.86587C21.415 9.71322 21.5931 9.49625 21.6983 9.2424C21.8034 8.98855 21.8309 8.70922 21.7773 8.43974C21.7237 8.17025 21.5914 7.92272 21.3971 7.72843C21.2028 7.53414 20.9553 7.40183 20.6858 7.34823C20.4163 7.29462 20.137 7.32213 19.8831 7.42728C19.6293 7.53243 19.4123 7.71049 19.2597 7.93895C19.107 8.16741 19.0255 8.436 19.0255 8.71076C19.0255 9.07921 19.1719 9.43257 19.4324 9.6931C19.693 9.95363 20.0463 10.1 20.4148 10.1Z" fill="black"/>
<path d="M4.09552 20.0321C4.7572 20.0321 5.40402 19.8359 5.95418 19.4683C6.50435 19.1007 6.93315 18.5782 7.18637 17.9669C7.43958 17.3555 7.50584 16.6829 7.37675 16.0339C7.24766 15.3849 6.92903 14.7888 6.46115 14.3209C5.99327 13.8531 5.39716 13.5344 4.74819 13.4053C4.09923 13.2763 3.42656 13.3425 2.81524 13.5957C2.20393 13.8489 1.68143 14.2777 1.31382 14.8279C0.946211 15.3781 0.75 16.0249 0.75 16.6866C0.750993 17.5736 1.10378 18.4239 1.73098 19.0511C2.35817 19.6783 3.20853 20.0311 4.09552 20.0321ZM4.09552 14.8411C4.46052 14.8411 4.81734 14.9493 5.12083 15.1521C5.42432 15.3549 5.66087 15.6431 5.80055 15.9803C5.94023 16.3176 5.97678 16.6886 5.90557 17.0466C5.83436 17.4046 5.65859 17.7335 5.40049 17.9916C5.14239 18.2497 4.81355 18.4254 4.45556 18.4966C4.09756 18.5678 3.72649 18.5313 3.38927 18.3916C3.05204 18.2519 2.76381 18.0154 2.56103 17.7119C2.35824 17.4084 2.25 17.0516 2.25 16.6866C2.25055 16.1973 2.44516 15.7282 2.79114 15.3822C3.13713 15.0362 3.60622 14.8416 4.09552 14.8411Z" fill="black"/>
<path d="M12.8583 18.9161C13.4096 18.9161 13.9486 18.7526 14.407 18.4463C14.8654 18.14 15.2227 17.7046 15.4337 17.1952C15.6446 16.6859 15.6998 16.1254 15.5923 15.5847C15.4847 15.0439 15.2192 14.5472 14.8294 14.1574C14.4395 13.7675 13.9428 13.5021 13.4021 13.3945C12.8614 13.2869 12.3009 13.3422 11.7915 13.5531C11.2822 13.7641 10.8468 14.1214 10.5405 14.5799C10.2342 15.0383 10.0707 15.5772 10.0707 16.1285C10.0716 16.8676 10.3655 17.5761 10.8881 18.0987C11.4107 18.6213 12.1192 18.9152 12.8583 18.9161ZM12.8583 14.841C13.113 14.841 13.3619 14.9165 13.5736 15.058C13.7854 15.1995 13.9504 15.4005 14.0478 15.6358C14.1453 15.8711 14.1708 16.13 14.1211 16.3797C14.0714 16.6295 13.9488 16.8589 13.7687 17.039C13.5887 17.2191 13.3592 17.3417 13.1095 17.3914C12.8597 17.441 12.6008 17.4155 12.3656 17.3181C12.1303 17.2206 11.9292 17.0556 11.7877 16.8439C11.6463 16.6321 11.5707 16.3832 11.5707 16.1285C11.5711 15.7872 11.7069 15.4599 11.9483 15.2185C12.1897 14.9772 12.5169 14.8414 12.8583 14.841Z" fill="black"/>
<path d="M20.4148 16.8695C20.6895 16.8695 20.9581 16.788 21.1866 16.6354C21.415 16.4827 21.5931 16.2658 21.6983 16.0119C21.8034 15.7581 21.8309 15.4788 21.7773 15.2093C21.7237 14.9398 21.5914 14.6922 21.3971 14.498C21.2028 14.3037 20.9553 14.1714 20.6858 14.1178C20.4163 14.0642 20.137 14.0917 19.8831 14.1968C19.6293 14.302 19.4123 14.48 19.2597 14.7085C19.107 14.9369 19.0255 15.2055 19.0255 15.4803C19.0255 15.8487 19.1719 16.2021 19.4324 16.4626C19.693 16.7232 20.0463 16.8695 20.4148 16.8695Z" fill="black"/>
</g>
<defs>
<clipPath id="clip0_201_55165">
<rect width="24" height="24" fill="white"/>
</clipPath>
</defs>
</svg>
