<svg width="24" height="24" viewBox="0 0 24 24" fill="none" xmlns="http://www.w3.org/2000/svg">
<g clip-path="url(#clip0_201_56516)">
<path d="M18.9288 7.73875L17.8681 8.79939L20.3001 11.2314H12.7688V3.70014L15.2008 6.13206L16.2615 5.07147L12.0188 0.828766L7.77619 5.07147L8.83688 6.13206L11.2688 3.70014V11.2314H3.69994L6.13191 8.79939L5.07127 7.73875L0.828613 11.9814L5.07122 16.224L6.13191 15.1633L3.69989 12.7314H11.2688V20.3003L8.83688 17.8683L7.77619 18.9289L12.0188 23.1716L16.2615 18.9289L15.2008 17.8683L12.7688 20.3003V12.7314H20.3001L17.8681 15.1633L18.9288 16.224L23.1714 11.9814L18.9288 7.73875Z" fill="black"/>
</g>
<defs>
<clipPath id="clip0_201_56516">
<rect width="24" height="24" fill="white"/>
</clipPath>
</defs>
</svg>
