<svg width="24" height="24" viewBox="0 0 24 24" fill="none" xmlns="http://www.w3.org/2000/svg">
<path d="M18.9375 16.1248C18.3918 16.1249 17.8535 16.2505 17.3641 16.4919C16.8747 16.7333 16.4474 17.084 16.1153 17.517L8.43139 13.1559C8.68958 12.4068 8.68958 11.5928 8.43139 10.8437L16.1153 6.48259C16.6516 7.17846 17.4264 7.65139 18.2905 7.81037C19.1545 7.96935 20.0469 7.80316 20.7958 7.34377C21.5447 6.88437 22.0973 6.16424 22.3471 5.32194C22.597 4.47964 22.5265 3.57469 22.1493 2.78122C21.7721 1.98775 21.1147 1.36182 20.3037 1.02388C19.4927 0.685949 18.5854 0.659881 17.7564 0.950696C16.9273 1.24151 16.2351 1.82866 15.8129 2.59916C15.3907 3.36967 15.2684 4.26908 15.4695 5.12434L7.65472 9.55974C7.1657 9.03953 6.53166 8.67825 5.83482 8.52277C5.13798 8.36729 4.4105 8.42478 3.74673 8.68778C3.08296 8.95079 2.51353 9.40717 2.11229 9.99773C1.71105 10.5883 1.49652 11.2858 1.49652 11.9998C1.49652 12.7138 1.71105 13.4113 2.11229 14.0018C2.51353 14.5924 3.08296 15.0488 3.74673 15.3118C4.4105 15.5748 5.13798 15.6323 5.83482 15.4768C6.53166 15.3213 7.1657 14.96 7.65472 14.4398L15.4696 18.8753C15.3011 19.5952 15.3609 20.3498 15.6406 21.0343C15.9203 21.7188 16.4061 22.2993 17.0306 22.6952C17.6551 23.0912 18.3873 23.283 19.1257 23.244C19.8641 23.205 20.5721 22.9372 21.1514 22.4777C21.7308 22.0182 22.1528 21.3898 22.3589 20.6797C22.565 19.9696 22.545 19.2129 22.3016 18.5147C22.0583 17.8164 21.6037 17.2112 21.0009 16.783C20.3981 16.3547 19.677 16.1247 18.9375 16.1248ZM18.9375 2.24978C19.3455 2.24978 19.7442 2.37074 20.0834 2.59737C20.4226 2.824 20.6869 3.14612 20.843 3.52299C20.9991 3.89986 21.04 4.31456 20.9604 4.71465C20.8808 5.11474 20.6844 5.48224 20.3959 5.77068C20.1075 6.05913 19.74 6.25556 19.3399 6.33515C18.9398 6.41473 18.5251 6.37388 18.1482 6.21778C17.7714 6.06167 17.4493 5.79732 17.2226 5.45814C16.996 5.11896 16.875 4.7202 16.875 4.31228C16.8756 3.76545 17.0931 3.2412 17.4798 2.85454C17.8665 2.46788 18.3907 2.25038 18.9375 2.24978ZM5.06253 14.0623C4.65461 14.0623 4.25585 13.9413 3.91667 13.7147C3.57749 13.4881 3.31314 13.1659 3.15703 12.7891C3.00093 12.4122 2.96008 11.9975 3.03966 11.5974C3.11925 11.1973 3.31568 10.8298 3.60412 10.5414C3.89257 10.2529 4.26007 10.0565 4.66016 9.97691C5.06024 9.89732 5.47494 9.93817 5.85182 10.0943C6.22869 10.2504 6.55081 10.5147 6.77744 10.8539C7.00407 11.1931 7.12503 11.5919 7.12503 11.9998C7.12442 12.5466 6.90693 13.0709 6.52027 13.4575C6.13361 13.8442 5.60935 14.0617 5.06253 14.0623ZM18.9375 21.7498C18.5296 21.7498 18.1308 21.6288 17.7917 21.4022C17.4525 21.1756 17.1881 20.8534 17.032 20.4766C16.8759 20.0997 16.8351 19.685 16.9147 19.2849C16.9942 18.8848 17.1907 18.5173 17.4791 18.2289C17.7676 17.9404 18.1351 17.744 18.5352 17.6644C18.9352 17.5848 19.3499 17.6257 19.7268 17.7818C20.1037 17.9379 20.4258 18.2022 20.6524 18.5414C20.8791 18.8806 21 19.2794 21 19.6873C20.9994 20.2341 20.7819 20.7584 20.3953 21.145C20.0086 21.5317 19.4844 21.7492 18.9375 21.7498Z" fill="black"/>
</svg>
