<svg width="24" height="24" viewBox="0 0 24 24" fill="none" xmlns="http://www.w3.org/2000/svg">
<g clip-path="url(#clip0_201_56508)">
<path d="M12.5756 23.2503C9.40805 23.2503 6.43598 22.0226 4.2068 19.7935C1.97761 17.5644 0.75 14.5921 0.75 11.4246C0.749527 9.23944 1.35457 7.09692 2.49796 5.23481C3.64135 3.3727 5.27838 1.86385 7.22733 0.875728C7.42784 0.773515 7.65401 0.732625 7.87762 0.758163C8.10122 0.7837 8.31236 0.874533 8.48466 1.01932C8.65696 1.16411 8.78279 1.35645 8.84646 1.57231C8.91012 1.78818 8.9088 2.01802 8.84264 2.23313C8.2865 4.02948 8.23184 5.94366 8.68457 7.76882C9.1373 9.59397 10.0802 11.2607 11.4114 12.5889C12.3667 13.5513 13.5034 14.3147 14.7557 14.8348C16.008 15.3549 17.3511 15.6215 18.7071 15.619C19.7445 15.6198 20.776 15.4642 21.767 15.1575C21.9821 15.0913 22.212 15.09 22.4279 15.1536C22.6438 15.2173 22.8361 15.3431 22.9809 15.5154C23.1257 15.6877 23.2166 15.8989 23.2421 16.1225C23.2676 16.3462 23.2267 16.5724 23.1244 16.7729C22.1363 18.7218 20.6274 20.3589 18.7653 21.5023C16.9032 22.6457 14.7607 23.2507 12.5756 23.2503ZM7.18641 2.61503C5.6751 3.53456 4.42667 4.82857 3.56189 6.37186C2.69711 7.91516 2.24524 9.65551 2.25 11.4246C2.25 17.1181 6.882 21.7503 12.5756 21.7503C14.3446 21.7551 16.085 21.3032 17.6283 20.4384C19.1716 19.5736 20.4656 18.3252 21.3852 16.8139C20.507 17.0171 19.6086 17.1195 18.7072 17.1192C17.1541 17.1221 15.6159 16.817 14.1815 16.2215C12.7471 15.6259 11.4451 14.7518 10.3509 13.6497C8.92934 12.2308 7.8928 10.4731 7.33912 8.54246C6.78544 6.61181 6.73288 4.57191 7.18641 2.61531V2.61503Z" fill="black"/>
</g>
<defs>
<clipPath id="clip0_201_56508">
<rect width="24" height="24" fill="white"/>
</clipPath>
</defs>
</svg>
