<svg width="24" height="24" viewBox="0 0 24 24" fill="none" xmlns="http://www.w3.org/2000/svg">
<path d="M18 9.37482V6.74983C18 5.56834 17.6512 4.41314 16.9973 3.4291C16.3435 2.44505 15.4136 1.67595 14.3244 1.21825C13.2352 0.760546 12.035 0.634609 10.8745 0.856232C9.71401 1.07785 8.64476 1.63717 7.80084 2.46404L8.85084 3.53537C9.4838 2.91528 10.2857 2.49585 11.1561 2.32968C12.0264 2.16351 12.9265 2.25799 13.7434 2.60127C14.5603 2.94456 15.2576 3.52136 15.748 4.25937C16.2384 4.99738 16.5 5.86374 16.5 6.74983V9.37482H4.125V15.3748C4.125 19.7171 7.65769 23.2498 12 23.2498C16.3423 23.2498 19.875 19.7171 19.875 15.3748V9.37482H18ZM18.375 15.3748C18.375 18.89 15.5152 21.7498 12 21.7498C8.4848 21.7498 5.625 18.89 5.625 15.3748V10.8748H18.375V15.3748Z" fill="black"/>
</svg>
