<svg width="24" height="24" viewBox="0 0 24 24" fill="none" xmlns="http://www.w3.org/2000/svg">
<path d="M5.97536 4.875H2.41065C2.15173 4.87574 1.90094 4.96546 1.7003 5.12911C1.49965 5.29275 1.36135 5.52039 1.30857 5.77388L1.23826 6.11653C0.564846 9.37621 0.588441 12.7414 1.3075 15.9914C1.36363 16.2412 1.50286 16.4647 1.70244 16.6252C1.90202 16.7857 2.15014 16.8738 2.40625 16.875H5.97536C6.27362 16.8747 6.55956 16.756 6.77047 16.5451C6.98137 16.3342 7.10001 16.0483 7.10036 15.75V6C7.10002 5.70173 6.98139 5.41578 6.77048 5.20487C6.55957 4.99397 6.27362 4.87533 5.97536 4.875ZM5.60036 15.375H2.70986C2.09785 12.4208 2.09711 9.37254 2.7077 6.41803L2.71651 6.375H5.60036V15.375Z" fill="black"/>
<path d="M23.1016 10.2412L19.7617 4.37114C19.6625 4.19712 19.519 4.05242 19.3458 3.95169C19.1727 3.85097 18.976 3.7978 18.7756 3.79758H12.6069C12.4051 3.7976 12.2069 3.85144 12.0329 3.95353L8.6573 5.93372V7.67278L12.7062 5.29758H18.5631L21.75 10.8987V11.3332L20.8266 13.7955H14.8125L14.0625 14.5455V16.8414L14.129 17.1501L14.6442 18.2911C14.9073 18.874 14.9491 19.5328 14.7618 20.1443C14.5745 20.7558 14.171 21.2782 13.6266 21.6138L9.74911 13.1252H8.625V14.2502L12.4222 22.5871C12.5135 22.785 12.6596 22.9525 12.8432 23.0699C13.0268 23.1873 13.2402 23.2495 13.4581 23.2493C13.6141 23.2494 13.7684 23.2169 13.9111 23.154C14.4105 22.9341 14.8614 22.6174 15.2377 22.2222C15.6141 21.827 15.9084 21.3612 16.1036 20.8517C16.2989 20.3421 16.3913 19.7989 16.3754 19.2534C16.3595 18.708 16.2357 18.1711 16.0111 17.6737L15.5625 16.68V15.2955H21.0797C21.3104 15.2948 21.5355 15.2241 21.7252 15.0927C21.9149 14.9613 22.0602 14.7754 22.1419 14.5596L23.1774 11.7984C23.2253 11.671 23.2497 11.536 23.2497 11.4V10.8021C23.2497 10.6055 23.1987 10.4122 23.1016 10.2412Z" fill="black"/>
</svg>
