<svg width="24" height="24" viewBox="0 0 24 24" fill="none" xmlns="http://www.w3.org/2000/svg">
<path d="M20.25 2.625H17.625V4.125H19.875V21.75H4.125V4.125H6.375V2.625H3.75C3.45174 2.62535 3.16579 2.74399 2.95489 2.95489C2.74399 3.16579 2.62535 3.45174 2.625 3.75V22.125C2.62535 22.4233 2.74399 22.7092 2.95489 22.9201C3.16579 23.131 3.45174 23.2497 3.75 23.25H20.25C20.5483 23.2497 20.8342 23.131 21.0451 22.9201C21.256 22.7092 21.3747 22.4233 21.375 22.125V3.75C21.3747 3.45174 21.256 3.16579 21.0451 2.95489C20.8342 2.74399 20.5483 2.62535 20.25 2.625Z" fill="black"/>
<path d="M9 6.5625H15C15.2983 6.56215 15.5842 6.44351 15.7951 6.23261C16.006 6.02171 16.1247 5.73576 16.125 5.4375V0.75H7.875V5.4375C7.87535 5.73576 7.99399 6.02171 8.20489 6.23261C8.41579 6.44351 8.70174 6.56215 9 6.5625ZM9.375 2.25H14.625V5.0625H9.375V2.25Z" fill="black"/>
</svg>
