<svg width="24" height="24" viewBox="0 0 24 24" fill="none" xmlns="http://www.w3.org/2000/svg">
<path d="M23.6149 5.82353C20.2107 3.44005 16.1557 2.16156 12 2.16156C7.84433 2.16156 3.78927 3.44005 0.385078 5.82353L0.375 5.83038V7.11653L1.92188 9.32556L11.1458 22.4991H12.8542L22.0784 9.32556L23.6252 7.11672V5.83038L23.6149 5.82353ZM8.90016 16.6767L14.7886 7.67078C15.4588 7.79682 16.1195 7.9688 16.766 8.18552L10.0297 18.2898L8.90016 16.6767ZM7.97344 15.3532L6.73345 13.5823L10.9298 7.44906C11.2847 7.42406 11.6414 7.41156 12 7.41156C12.3813 7.41156 12.7606 7.42591 13.1379 7.4546L7.97344 15.3532ZM5.81419 12.2695L4.02131 9.70905C5.52361 8.76214 7.18304 8.09132 8.92134 7.7282L5.81419 12.2695ZM10.9532 19.6089L18.194 8.74792C18.8099 9.02783 19.4061 9.34901 19.9787 9.70928L12 21.1038L10.9532 19.6089ZM20.8396 8.47947C18.1964 6.80208 15.1305 5.91138 12 5.91138C8.86948 5.91138 5.80357 6.80208 3.16036 8.47947L1.86825 6.63414C4.89104 4.69321 8.40772 3.66137 12 3.66137C15.5923 3.66137 19.109 4.69321 22.1318 6.63414L20.8396 8.47947Z" fill="black"/>
</svg>
