<svg width="24" height="24" viewBox="0 0 24 24" fill="none" xmlns="http://www.w3.org/2000/svg">
<path d="M19.955 6.66922C18.3816 5.09587 16.3771 4.0244 14.1948 3.59032C12.0125 3.15623 9.75048 3.37902 7.69481 4.23051C5.63913 5.082 3.88212 6.52394 2.64596 8.374C1.40979 10.2241 0.749993 12.3991 0.75 14.6242V18.7492H7.5V17.2492H2.25V14.6242C2.25 9.24804 6.62386 4.87419 12 4.87419C17.3761 4.87419 21.75 9.24804 21.75 14.6242V17.2492H16.5V18.7492H23.25V14.6242C23.254 13.1462 22.9649 11.6821 22.3993 10.3167C21.8337 8.95118 21.0029 7.71145 19.955 6.66922Z" fill="black"/>
<path d="M5.25 12.375H3.75V13.875H5.25V12.375Z" fill="black"/>
<path d="M12.75 6H11.25V7.5H12.75V6Z" fill="black"/>
<path d="M7.875 7.875H6.375V9.375H7.875V7.875Z" fill="black"/>
<path d="M20.25 12.375H18.75V13.875H20.25V12.375Z" fill="black"/>
<path d="M13.9324 15.7086L17.1761 8.95053L15.8238 8.30141L12.5808 15.0577C11.863 14.9147 11.1177 15.0384 10.4846 15.4057C9.85145 15.773 9.37406 16.3586 9.14191 17.0527C8.90976 17.7469 8.93878 18.5019 9.22355 19.1761C9.50831 19.8504 10.0293 20.3976 10.6887 20.7152C11.3481 21.0328 12.1008 21.0989 12.8055 20.9012C13.5102 20.7035 14.1186 20.2555 14.5166 19.6412C14.9146 19.0269 15.0748 18.2886 14.9672 17.5646C14.8597 16.8406 14.4917 16.1807 13.9324 15.7086ZM12.0001 19.5008C11.7034 19.5008 11.4134 19.4129 11.1667 19.248C10.9201 19.0832 10.7278 18.8489 10.6143 18.5749C10.5007 18.3008 10.471 17.9992 10.5289 17.7082C10.5868 17.4172 10.7297 17.1499 10.9394 16.9402C11.1492 16.7304 11.4165 16.5875 11.7075 16.5297C11.9984 16.4718 12.3 16.5015 12.5741 16.615C12.8482 16.7285 13.0825 16.9208 13.2473 17.1675C13.4121 17.4141 13.5001 17.7042 13.5001 18.0008C13.4996 18.3985 13.3415 18.7798 13.0603 19.061C12.7791 19.3422 12.3978 19.5004 12.0001 19.5008Z" fill="black"/>
</svg>
