<svg width="24" height="24" viewBox="0 0 24 24" fill="none" xmlns="http://www.w3.org/2000/svg">
<path d="M12.8267 6L13.0053 7.5H17.5254L17.1504 10.5H11.8394L11.4905 7.5H11.4947L11.3161 6L11.314 5.98177L10.8902 2.33747L10.7928 1.5H4.875V3H9.45717L9.80602 6H5.52544L7.42388 21.186C7.46971 21.5486 7.64611 21.882 7.92004 22.1239C8.19398 22.3657 8.54668 22.4994 8.91211 22.5H15.8379C16.2034 22.4995 16.5561 22.3658 16.8301 22.1239C17.104 21.8821 17.2805 21.5486 17.3263 21.186L19.2246 6H12.8267ZM7.22456 7.5H9.98044L10.3293 10.5H7.59956L7.22456 7.5ZM15.8385 21H8.91206L7.78706 12H10.5037L11.1578 17.625H12.6678L12.0137 12H16.9631L15.8385 21Z" fill="black"/>
</svg>
