<svg width="24" height="24" viewBox="0 0 24 24" fill="none" xmlns="http://www.w3.org/2000/svg">
<g clip-path="url(#clip0_201_55608)">
<path d="M19.972 4.07489C17.8732 1.97609 15.0266 0.796997 12.0585 0.796997C9.09034 0.796997 6.24376 1.97609 4.14496 4.07489C2.04616 6.17369 0.867065 9.02027 0.867065 11.9884C0.867065 14.9566 2.04616 17.8032 4.14496 19.902C6.24376 22.0007 9.09034 23.1798 12.0585 23.1798C15.0266 23.1798 17.8732 22.0007 19.972 19.902C22.0708 17.8032 23.2499 14.9566 23.2499 11.9884C23.2499 9.02027 22.0708 6.17369 19.972 4.07489ZM12.0585 21.6798C6.71474 21.6798 2.36708 17.3323 2.36708 11.9884C2.36708 6.64458 6.71465 2.29701 12.0585 2.29701C17.4023 2.29701 21.7499 6.64458 21.7499 11.9884C21.7499 17.3323 17.4023 21.6798 12.0585 21.6798Z" fill="black"/>
<path d="M10.3721 14.3348L6.93082 10.8936L5.87018 11.9542L10.3721 16.4561L18.2236 8.60459L17.1629 7.54395L10.3721 14.3348Z" fill="black"/>
</g>
<defs>
<clipPath id="clip0_201_55608">
<rect width="24" height="24" fill="white"/>
</clipPath>
</defs>
</svg>
