<svg width="24" height="24" viewBox="0 0 24 24" fill="none" xmlns="http://www.w3.org/2000/svg">
<path d="M22.2002 4.1288C22.1369 4.12238 15.8272 3.46041 12.8619 0.929531L12.6516 0.75H11.3484L11.1381 0.929531C8.178 3.45595 1.863 4.12238 1.8 4.1288L1.125 4.19681V4.875C1.125 9.05311 1.81139 12.6301 3.16514 15.5069C4.95131 19.3025 7.85733 21.7726 11.8027 22.8486L12 22.9024L12.1973 22.8486C16.1426 21.7726 19.0487 19.3025 20.8349 15.5069C22.1886 12.6301 22.875 9.05311 22.875 4.875V4.19681L22.2002 4.1288ZM21.3689 5.53655C21.3615 5.9362 21.3467 6.34069 21.3245 6.75H12.75V2.71477C15.5588 4.56947 19.7355 5.30798 21.3689 5.53655ZM12.75 15H19.4187C19.1045 15.6534 18.7382 16.2804 18.3234 16.875H12.75V15ZM12.75 13.5V11.625H20.6203C20.451 12.3061 20.2439 12.9772 19.9999 13.6352V13.5H12.75ZM12.75 10.125V8.25H21.2052C21.1396 8.87377 21.0526 9.50072 20.9409 10.125H12.75ZM2.63109 5.53655C4.2645 5.30798 8.4412 4.56947 11.25 2.71467V21.1042C4.40681 18.6745 2.74181 11.5025 2.63109 5.53655ZM12.75 21.1042V18.375H17.0788C15.9398 19.5328 14.5176 20.4767 12.75 21.1042Z" fill="black"/>
</svg>
