<svg width="24" height="24" viewBox="0 0 24 24" fill="none" xmlns="http://www.w3.org/2000/svg">
<path d="M22.1705 5.73479L17.5151 1.0794C17.4109 0.974606 17.287 0.891527 17.1504 0.83497C17.0139 0.778414 16.8675 0.749503 16.7197 0.749913H2.625C2.32674 0.75026 2.04079 0.868898 1.82989 1.0798C1.61899 1.2907 1.50035 1.57665 1.5 1.87491V22.1249C1.50035 22.4232 1.61899 22.7091 1.82989 22.92C2.04079 23.1309 2.32674 23.2496 2.625 23.2499H21.375C21.6733 23.2496 21.9592 23.1309 22.1701 22.92C22.381 22.7091 22.4997 22.4232 22.5 22.1249V6.53021C22.5004 6.38242 22.4715 6.23603 22.4149 6.09949C22.3584 5.96296 22.2753 5.839 22.1705 5.73479ZM15 2.24991V6.74991H8.25V2.24991H15ZM21 21.7499H3V2.24991H6.75V8.24991H16.5V2.24991H16.5644L21 6.68555V21.7499Z" fill="black"/>
<path d="M11.8125 10.5C10.9596 10.5 10.1258 10.7529 9.41661 11.2268C8.70742 11.7007 8.15467 12.3742 7.82827 13.1622C7.50187 13.9502 7.41647 14.8173 7.58287 15.6538C7.74926 16.4904 8.15999 17.2588 8.7631 17.8619C9.36622 18.465 10.1346 18.8757 10.9712 19.0421C11.8077 19.2085 12.6748 19.1231 13.4628 18.7967C14.2508 18.4703 14.9244 17.9176 15.3982 17.2084C15.8721 16.4992 16.125 15.6654 16.125 14.8125C16.1238 13.6691 15.669 12.573 14.8605 11.7645C14.052 10.956 12.9559 10.5012 11.8125 10.5ZM11.8125 17.625C11.2562 17.625 10.7125 17.4601 10.25 17.151C9.78745 16.842 9.42696 16.4027 9.21409 15.8888C9.00122 15.3749 8.94552 14.8094 9.05404 14.2638C9.16256 13.7182 9.43043 13.2171 9.82376 12.8238C10.2171 12.4304 10.7182 12.1626 11.2638 12.054C11.8094 11.9455 12.3749 12.0012 12.8888 12.2141C13.4027 12.427 13.842 12.7874 14.151 13.25C14.4601 13.7125 14.625 14.2562 14.625 14.8125C14.6242 15.5582 14.3276 16.273 13.8003 16.8003C13.273 17.3276 12.5582 17.6242 11.8125 17.625Z" fill="black"/>
</svg>
