<svg width="24" height="24" viewBox="0 0 24 24" fill="none" xmlns="http://www.w3.org/2000/svg">
<path d="M20.4644 5.625H16.5V3H1.5V19.125C1.50089 19.9204 1.81725 20.6829 2.37967 21.2453C2.94208 21.8078 3.70462 22.1241 4.5 22.125H13.5C14.2954 22.1241 15.0579 21.8078 15.6203 21.2453C16.1827 20.6829 16.4991 19.9204 16.5 19.125V18.75H20.4644C21.2029 18.7492 21.911 18.4554 22.4332 17.9332C22.9554 17.411 23.2492 16.7029 23.25 15.9644V8.41059C23.2492 7.67206 22.9554 6.96402 22.4332 6.4418C21.911 5.91958 21.2029 5.62583 20.4644 5.625ZM7.56441 11.1982L9 12.6338V15.3232H6V12.6338L7.43564 11.1982H7.56441ZM21.75 15.9644C21.7496 16.3052 21.614 16.632 21.373 16.873C21.132 17.114 20.8052 17.2496 20.4644 17.25H15V19.125C14.9996 19.5227 14.8414 19.904 14.5602 20.1852C14.279 20.4664 13.8977 20.6246 13.5 20.625H4.5C4.10231 20.6246 3.72104 20.4664 3.43983 20.1852C3.15863 19.904 3.00045 19.5227 3 19.125V4.5H6.75V9.76247L4.5 12.0125V16.8232H10.5V12.0125L8.25 9.76247V4.5H15V7.125H20.4644C20.8052 7.12538 21.132 7.26095 21.373 7.50197C21.614 7.74298 21.7496 8.06975 21.75 8.41059V15.9644Z" fill="black"/>
<path d="M19.5 8.4375H15V15.9375H19.5C19.7486 15.9372 19.9868 15.8384 20.1626 15.6626C20.3384 15.4868 20.4372 15.2486 20.4375 15V9.375C20.4372 9.12645 20.3384 8.88816 20.1626 8.7124C19.9868 8.53665 19.7486 8.43779 19.5 8.4375ZM18.9375 14.4375H16.5V9.9375H18.9375V14.4375Z" fill="black"/>
</svg>
