<svg width="24" height="24" viewBox="0 0 24 24" fill="none" xmlns="http://www.w3.org/2000/svg">
<path d="M16.0463 4.91351C16.723 5.75014 17.0927 6.79331 17.0938 7.86933C17.095 8.94536 16.7275 9.98932 16.0527 10.8274L17.2219 11.7658C18.1112 10.6614 18.5954 9.28562 18.5939 7.86762C18.5923 6.44961 18.1052 5.07491 17.2135 3.97235L16.0463 4.91351Z" fill="black"/>
<path d="M20.2569 1.51837L19.0856 2.4629C20.3222 3.9921 20.9979 5.89872 21 7.8654C21.0021 9.83207 20.3306 11.7401 19.0972 13.272L20.2705 14.2142C21.7159 12.4135 22.5025 10.1729 22.5001 7.86389C22.4976 5.55485 21.7062 3.31598 20.2569 1.51837Z" fill="black"/>
<path d="M16.2937 16.1089L12.8802 13.8901L14.1672 11.5307C14.4671 10.9797 14.6245 10.3624 14.625 9.73505V6C14.625 4.60761 14.0719 3.27226 13.0873 2.28769C12.1027 1.30312 10.7674 0.75 9.37498 0.75C7.98259 0.75 6.64723 1.30312 5.66267 2.28769C4.6781 3.27226 4.12498 4.60761 4.12498 6V9.73505C4.12544 10.3624 4.28285 10.9797 4.58285 11.5307L5.86981 13.8901L2.45623 16.1089C1.9316 16.4485 1.50053 16.9143 1.20245 17.4635C0.904366 18.0128 0.748797 18.6281 0.749976 19.2531V23.25H18V19.2531C18.0012 18.6281 17.8456 18.0128 17.5475 17.4635C17.2494 16.9143 16.8184 16.4485 16.2937 16.1089ZM16.5 21.75H2.24998V19.2531C2.24927 18.8781 2.34262 18.5089 2.52148 18.1793C2.70034 17.8498 2.95899 17.5703 3.27377 17.3665L7.85163 14.3909L5.89971 10.8125C5.71971 10.4819 5.62527 10.1115 5.62498 9.73505V6C5.62498 5.00544 6.02007 4.05161 6.72333 3.34835C7.42659 2.64509 8.38042 2.25 9.37498 2.25C10.3695 2.25 11.3234 2.64509 12.0266 3.34835C12.7299 4.05161 13.125 5.00544 13.125 6V9.73505C13.1247 10.1115 13.0302 10.4818 12.8502 10.8124L10.8984 14.391L15.4763 17.3665C15.7911 17.5703 16.0497 17.8498 16.2285 18.1794C16.4074 18.5089 16.5007 18.8781 16.5 19.2531V21.75Z" fill="black"/>
</svg>
