<svg width="24" height="24" viewBox="0 0 24 24" fill="none" xmlns="http://www.w3.org/2000/svg">
<g clip-path="url(#clip0_201_55869)">
<path d="M0.909816 20.2166V22.1604C0.910114 22.4599 1.02923 22.7471 1.24102 22.9589C1.45282 23.1706 1.73998 23.2898 2.0395 23.2901H3.60363C4.53005 23.2926 5.44776 23.1113 6.30365 22.7568C7.15954 22.4022 7.93661 21.8814 8.58986 21.2245L17.9984 11.8159L20.6162 14.4441L21.6789 13.3856L19.0591 10.7553L19.1194 10.6949L19.1185 10.6939L22.085 7.72737C22.831 6.98145 23.25 5.96976 23.25 4.91487C23.25 3.85998 22.831 2.84829 22.085 2.10237L21.8975 1.91487C21.5282 1.54552 21.0897 1.25254 20.6072 1.05265C20.1246 0.85276 19.6074 0.749878 19.085 0.749878C18.5627 0.749878 18.0455 0.85276 17.5629 1.05265C17.0803 1.25254 16.6419 1.54552 16.2725 1.91487L13.2573 4.93015L10.8257 2.48895L9.76291 3.54739L12.2057 5.99989L2.97522 15.2303C2.31836 15.8836 1.79759 16.6607 1.44306 17.5166C1.08854 18.3724 0.90729 19.2902 0.909816 20.2166ZM17.3332 2.97551C17.5632 2.74545 17.8364 2.56295 18.1369 2.43845C18.4375 2.31394 18.7597 2.24985 19.0851 2.24985C19.4104 2.24985 19.7326 2.31394 20.0332 2.43845C20.3338 2.56295 20.6069 2.74545 20.8369 2.97551L21.0244 3.16301C21.4884 3.62799 21.7489 4.25801 21.7489 4.91485C21.7489 5.57168 21.4884 6.2017 21.0244 6.66668L18.1475 9.54364L14.4563 5.85237L17.3332 2.97551ZM13.3151 7.01178L16.9982 10.6949L13.7555 13.9375V13.9149H6.41196L13.3151 7.01178ZM4.91196 15.4149H12.2782L7.52922 20.1639C7.0149 20.681 6.40312 21.091 5.72929 21.3701C5.05546 21.6492 4.33297 21.7919 3.60363 21.7899H2.40982V20.2166C2.40785 19.4872 2.55056 18.7647 2.82969 18.0909C3.10881 17.4171 3.51881 16.8053 4.03596 16.291L4.91196 15.4149Z" fill="black"/>
</g>
<defs>
<clipPath id="clip0_201_55869">
<rect width="24" height="24" fill="white"/>
</clipPath>
</defs>
</svg>
