<svg width="24" height="24" viewBox="0 0 24 24" fill="none" xmlns="http://www.w3.org/2000/svg">
<path d="M13.8749 11.25H10.1249C9.55028 11.25 8.99918 11.0217 8.59285 10.6154C8.18653 10.2091 7.95825 9.65798 7.95825 9.08334C7.95825 8.50871 8.18653 7.95761 8.59285 7.55129C8.99918 7.14496 9.55028 6.91669 10.1249 6.91669H16.1249V5.41669H12.9374V2.625H11.4374V5.41669H10.1249C9.15245 5.41669 8.21982 5.80299 7.53219 6.49063C6.84456 7.17826 6.45825 8.11089 6.45825 9.08334C6.45825 10.0558 6.84456 10.9884 7.53219 11.6761C8.21982 12.3637 9.15245 12.75 10.1249 12.75H13.8749C14.4494 12.7506 15.0001 12.9791 15.4063 13.3853C15.8125 13.7915 16.0409 14.3422 16.0416 14.9167V15.0833C16.0409 15.6578 15.8125 16.2085 15.4063 16.6147C15.0001 17.0209 14.4494 17.2494 13.8749 17.25H7.52771V18.75H11.4374V21.375H12.9374V18.75H13.8749C14.847 18.7489 15.779 18.3622 16.4664 17.6749C17.1538 16.9875 17.5405 16.0555 17.5416 15.0833V14.9167C17.5405 13.9445 17.1538 13.0125 16.4664 12.3251C15.779 11.6378 14.847 11.2511 13.8749 11.25Z" fill="black"/>
</svg>
