<svg width="24" height="24" viewBox="0 0 24 24" fill="none" xmlns="http://www.w3.org/2000/svg">
<path d="M19.3257 13.7994L18.7398 14.5326C18.3482 15.0227 16.3948 17.5424 16.3948 19.0271C16.3948 20.7358 17.7096 22.1258 19.3257 22.1258C20.9418 22.1258 22.2566 20.7358 22.2566 19.0271C22.2566 17.5424 20.3032 15.0227 19.9116 14.5326L19.3257 13.7994ZM19.3257 20.6258C18.5367 20.6258 17.8948 19.9086 17.8948 19.0271C17.8948 18.4805 18.6207 17.2514 19.326 16.2521C20.0311 17.2506 20.7567 18.4791 20.7567 19.0271C20.7567 19.9086 20.1147 20.6258 19.3257 20.6258Z" fill="black"/>
<path d="M5.75015 2.41351L4.50627 5.83108L1.4106 4.55631L0.839478 5.94358L3.99281 7.24201L1.26098 14.747C1.0576 15.3078 1.08496 15.9263 1.33707 16.467C1.58918 17.0076 2.04545 17.4262 2.60577 17.6309L11.2645 20.7824C11.5421 20.8834 11.837 20.9288 12.1322 20.9159C12.4274 20.9031 12.7171 20.8322 12.9849 20.7073C13.2527 20.5824 13.4933 20.406 13.6929 20.1882C13.8926 19.9703 14.0473 19.7153 14.1484 19.4376L18.6375 7.1042L5.75015 2.41351ZM12.7392 18.9246C12.7055 19.0171 12.6539 19.1021 12.5874 19.1748C12.5209 19.2474 12.4407 19.3062 12.3514 19.3478C12.2621 19.3894 12.1655 19.4131 12.0671 19.4174C11.9687 19.4217 11.8705 19.4065 11.7779 19.3728L3.11896 16.2213C2.93205 16.1533 2.77981 16.0138 2.69575 15.8335C2.61168 15.6533 2.60267 15.447 2.6707 15.2601L3.44784 13.1248H14.85L12.7392 18.9246ZM3.99379 11.6248L5.38101 7.81337L7.08412 8.51467C7.13599 8.84896 7.29719 9.15664 7.5425 9.3896C7.7878 9.62256 8.10339 9.76766 8.43992 9.80221C8.77645 9.83676 9.11494 9.75882 9.40247 9.58057C9.68999 9.40232 9.91035 9.13381 10.0291 8.81703C10.1478 8.50025 10.1582 8.15306 10.0586 7.82974C9.9591 7.50643 9.75521 7.22521 9.47887 7.03007C9.20253 6.83493 8.86931 6.73687 8.53132 6.75121C8.19333 6.76556 7.86962 6.8915 7.61081 7.10936L5.89448 6.40262L6.64663 4.33614L16.7149 8.00068L15.375 11.682V11.6248H3.99379Z" fill="black"/>
</svg>
