<svg width="24" height="24" viewBox="0 0 24 24" fill="none" xmlns="http://www.w3.org/2000/svg">
<path d="M21.75 9.867V12.3743C21.7484 13.7662 21.1948 15.1006 20.2105 16.0849C19.2263 17.0691 17.8919 17.6227 16.5 17.6243H3.6856L5.78026 15.5296L4.71967 14.469L2.62496 16.5637L2.41801 16.7706L0.844604 18.344L4.31439 22.2476L5.43554 21.251L3.54512 19.1243H16.5C20.2218 19.1243 23.25 16.0962 23.25 12.3743V8.367L21.75 9.867Z" fill="black"/>
<path d="M2.25 12.0008C2.25158 10.6089 2.8052 9.27447 3.78943 8.29024C4.77365 7.30602 6.1081 6.75239 7.5 6.75081H20.3144L18.2197 8.84552L19.2803 9.90611L21.375 7.81145L21.568 7.61852L23.1554 6.0311L19.6856 2.12753L18.5644 3.1241L20.4548 5.25081H7.5C3.77812 5.25081 0.75 8.27894 0.75 12.0008V16.0221L2.25 14.5221V12.0008Z" fill="black"/>
</svg>
