<svg width="24" height="24" viewBox="0 0 24 24" fill="none" xmlns="http://www.w3.org/2000/svg">
<path d="M21.375 1.875H2.625C2.42609 1.875 2.23532 1.95402 2.09467 2.09467C1.95402 2.23532 1.875 2.42609 1.875 2.625V21.375C1.875 21.5739 1.95402 21.7647 2.09467 21.9053C2.23532 22.046 2.42609 22.125 2.625 22.125H21.375C21.5739 22.125 21.7647 22.046 21.9053 21.9053C22.046 21.7647 22.125 21.5739 22.125 21.375V2.625C22.125 2.42609 22.046 2.23532 21.9053 2.09467C21.7647 1.95402 21.5739 1.875 21.375 1.875ZM3.375 3.375H19.5644L3.375 19.5644V3.375ZM20.625 20.625H4.43564L20.625 4.43564V20.625Z" fill="black"/>
<path d="M15.75 17.25V19.125H17.25V17.25H19.125V15.75H17.25V13.875H15.75V15.75H13.875V17.25H15.75Z" fill="black"/>
<path d="M10.5 6.375H5.25V7.875H10.5V6.375Z" fill="black"/>
</svg>
