<svg width="24" height="24" viewBox="0 0 24 24" fill="none" xmlns="http://www.w3.org/2000/svg">
<g clip-path="url(#clip0_201_55739)">
<path d="M2.31498 12.0002C2.31498 6.6478 6.66498 2.29236 12.0151 2.28327V4.24072L17.25 0.748535H12.0151L12 0.750176C9.01019 0.754582 6.21498 1.95388 4.1004 4.06846C3.05553 5.10764 2.22715 6.34375 1.6632 7.70523C1.09926 9.06671 0.810957 10.5265 0.814983 12.0002H2.31498Z" fill="black"/>
<path d="M11.9994 21.7202V20.2498L6.76447 23.2498H11.9994C18.2057 23.233 23.2494 18.1773 23.2494 12.0015H21.7494C21.7492 17.3502 17.3784 21.7033 11.9994 21.7202Z" fill="black"/>
<path d="M15.8143 7.125H8.625V5.625H7.125V7.125H5.625V8.625H7.125V16.875H15V18.375H16.5V16.875H18V15.375H16.5V10.4357L15 11.9357V15.375H9.43936L18 6.81431V6H16.9393L15.8143 7.125ZM8.625 14.3143V8.625H14.3143L8.625 14.3143Z" fill="black"/>
</g>
<defs>
<clipPath id="clip0_201_55739">
<rect width="24" height="24" fill="white"/>
</clipPath>
</defs>
</svg>
