<svg width="24" height="24" viewBox="0 0 24 24" fill="none" xmlns="http://www.w3.org/2000/svg">
<path d="M22.8736 7.30506C22.8813 7.14808 22.8561 6.99123 22.7996 6.84458C22.7431 6.69793 22.6565 6.56472 22.5455 6.45353L17.6309 1.53892C17.5198 1.42777 17.3866 1.34114 17.2399 1.28463C17.0932 1.22811 16.9364 1.20295 16.7794 1.21078C16.6224 1.2186 16.4688 1.25924 16.3285 1.33006C16.1882 1.40089 16.0642 1.50033 15.9647 1.62198L11.7489 6.77457L5.64878 8.01742C5.43746 8.05988 5.24042 8.15542 5.0762 8.29504C4.91199 8.43466 4.786 8.61377 4.7101 8.81551L0.838275 19.0232C0.751237 19.2532 0.732382 19.5034 0.783972 19.7438C0.835562 19.9842 0.955406 20.2047 1.12913 20.3787L3.62621 22.8758C3.8002 23.0495 4.02062 23.1694 4.26103 23.221C4.50144 23.2726 4.75164 23.2537 4.9816 23.1667L15.1938 19.2932C15.3926 19.2182 15.5695 19.0946 15.7083 18.9336C15.8471 18.7727 15.9434 18.5796 15.9883 18.3719L17.3055 12.3391L22.4625 8.1197C22.584 8.02008 22.6834 7.89614 22.7542 7.75585C22.825 7.61555 22.8657 7.462 22.8736 7.30506ZM14.5486 17.9335L4.58471 21.713L3.96868 21.0969L8.62618 16.4394C9.17657 16.7486 9.81987 16.8493 10.4384 16.7231C11.057 16.5969 11.6094 16.2523 11.9947 15.7522C12.3801 15.2522 12.5725 14.6302 12.5368 13.9999C12.5012 13.3696 12.2398 12.7732 11.8006 12.3198C11.3614 11.8664 10.7736 11.5863 10.1447 11.5306C9.5159 11.475 8.88806 11.6476 8.37604 12.0169C7.86402 12.3861 7.50204 12.9274 7.3563 13.5416C7.21057 14.1558 7.29081 14.802 7.58237 15.3619L2.90799 20.0363L2.29192 19.4202L6.06892 9.46262L11.915 8.27153L15.8081 12.1645L14.5486 17.9335ZM8.78532 14.151C8.78532 13.9285 8.8513 13.711 8.97492 13.526C9.09854 13.341 9.27424 13.1968 9.4798 13.1116C9.68537 13.0265 9.91157 13.0042 10.1298 13.0476C10.348 13.091 10.5485 13.1982 10.7058 13.3555C10.8632 13.5128 10.9703 13.7133 11.0137 13.9315C11.0571 14.1498 11.0348 14.376 10.9497 14.5815C10.8645 14.7871 10.7203 14.9628 10.5353 15.0864C10.3503 15.21 10.1328 15.276 9.91032 15.276C9.61195 15.276 9.32581 15.1575 9.11483 14.9465C8.90385 14.7355 8.78532 14.4494 8.78532 14.151ZM16.6787 10.9136L13.1706 7.4057L16.8632 2.89257L21.1918 7.22115L16.6787 10.9136Z" fill="black"/>
</svg>
