<svg width="24" height="24" viewBox="0 0 24 24" fill="none" xmlns="http://www.w3.org/2000/svg">
<path d="M10.125 0.75C8.73307 0.751576 7.39863 1.30521 6.41441 2.28943C5.43018 3.27365 4.87655 4.6081 4.87498 6V9.735C4.87545 10.3624 5.03285 10.9797 5.33285 11.5307L6.6198 13.8901L3.20623 16.1089C2.68161 16.4485 2.25054 16.9143 1.95246 17.4636C1.65438 18.0128 1.49881 18.6281 1.49998 19.2531V23.25H14.625V21.75H2.99998V19.2531C2.99928 18.8781 3.09262 18.5089 3.27147 18.1794C3.45032 17.8498 3.70896 17.5703 4.02373 17.3665L8.60154 14.391L6.64966 10.8125C6.46968 10.4818 6.37525 10.1114 6.37498 9.735V6C6.37498 5.00544 6.77006 4.05161 7.47333 3.34835C8.17659 2.64509 9.13041 2.25 10.125 2.25C11.1195 2.25 12.0734 2.64509 12.7766 3.34835C13.4799 4.05161 13.875 5.00544 13.875 6V9.735C13.8747 10.1114 13.7802 10.4818 13.6002 10.8124L11.6484 14.391L14.625 16.3258V14.5367L13.6301 13.8899L14.9171 11.5305C15.2171 10.9795 15.3745 10.3623 15.375 9.735V6C15.3734 4.6081 14.8198 3.27365 13.8355 2.28943C12.8513 1.30521 11.5169 0.751576 10.125 0.75Z" fill="black"/>
<path d="M22.6553 16.6558L21.5946 15.5951L19.3125 17.8772L17.0303 15.5951L15.9696 16.6558L18.2518 18.9379L15.9696 21.2201L17.0303 22.2808L19.3125 19.9986L21.5946 22.2808L22.6553 21.2201L20.3732 18.9379L22.6553 16.6558Z" fill="black"/>
</svg>
