<svg width="24" height="24" viewBox="0 0 24 24" fill="none" xmlns="http://www.w3.org/2000/svg">
<path d="M3.375 20.625V19.0568V17.4887V15.9205V14.3523V12.7841V12.75V11.25V11.2159V9.64772V8.07956V6.51136V4.9432V3.375V1.875H1.875V3.375V4.9432V6.51136V8.07956V9.64772V11.2159V12.7841V14.3523V15.9205V17.4887V19.0568V20.625V22.125H3.375V20.625Z" fill="black"/>
<path d="M22.125 20.625H20.625V22.125H22.125V20.625Z" fill="black"/>
<path d="M15.9204 20.625H14.3522V22.125H15.9204V20.625Z" fill="black"/>
<path d="M9.64776 20.625H8.07956V22.125H9.64776V20.625Z" fill="black"/>
<path d="M19.0568 20.625H17.4886V22.125H19.0568V20.625Z" fill="black"/>
<path d="M6.51144 20.625H4.94324V22.125H6.51144V20.625Z" fill="black"/>
<path d="M15.9204 1.875H14.3522V3.375H15.9204V1.875Z" fill="black"/>
<path d="M9.64776 1.875H8.07956V3.375H9.64776V1.875Z" fill="black"/>
<path d="M19.0568 1.875H17.4886V3.375H19.0568V1.875Z" fill="black"/>
<path d="M12.7841 1.875H11.2159V3.375H12.7841V1.875Z" fill="black"/>
<path d="M6.51144 1.875H4.94324V3.375H6.51144V1.875Z" fill="black"/>
<path d="M22.125 1.875H20.625V3.375H22.125V1.875Z" fill="black"/>
<path d="M22.125 17.4888H20.625V19.0569H22.125V17.4888Z" fill="black"/>
<path d="M22.125 14.3522H20.625V15.9203H22.125V14.3522Z" fill="black"/>
<path d="M22.125 4.94312H20.625V6.51126H22.125V4.94312Z" fill="black"/>
<path d="M22.125 8.07971H20.625V9.64787H22.125V8.07971Z" fill="black"/>
<path d="M22.125 11.2159H20.625V12.7841H22.125V11.2159Z" fill="black"/>
<path d="M12.7841 11.2159H11.2159V12.7841H12.7841V11.2159Z" fill="black"/>
<path d="M12.7841 14.3522H11.2159V15.9203H12.7841V14.3522Z" fill="black"/>
<path d="M12.7841 8.07971H11.2159V9.64787H12.7841V8.07971Z" fill="black"/>
<path d="M12.7841 4.94312H11.2159V6.51126H12.7841V4.94312Z" fill="black"/>
<path d="M12.7841 17.4888H11.2159V19.0569H12.7841V17.4888Z" fill="black"/>
<path d="M12.7841 20.625H11.2159V22.125H12.7841V20.625Z" fill="black"/>
<path d="M15.9204 11.2159H14.3522V12.7841H15.9204V11.2159Z" fill="black"/>
<path d="M19.0568 11.2159H17.4886V12.7841H19.0568V11.2159Z" fill="black"/>
<path d="M9.64776 11.2159H8.07956V12.7841H9.64776V11.2159Z" fill="black"/>
<path d="M6.51144 11.2159H4.94324V12.7841H6.51144V11.2159Z" fill="black"/>
</svg>
