<svg width="24" height="24" viewBox="0 0 24 24" fill="none" xmlns="http://www.w3.org/2000/svg">
<path d="M17.7582 16.0328C15.9081 15.3668 13.4636 15 10.875 15C9.61998 14.997 8.3665 15.0878 7.125 15.2715V9.89798L14.25 7.27298V5.48559L7.125 2.14809V0.75H5.625V19.5H7.125V16.789C8.36526 16.5926 9.61928 16.4959 10.875 16.5C13.2947 16.5 15.5588 16.8353 17.25 17.4442C18.9108 18.0422 19.5 18.7233 19.5 19.125C19.5 19.5267 18.9108 20.2078 17.25 20.8058C15.5588 21.4147 13.2947 21.75 10.875 21.75C8.45527 21.75 6.1912 21.4147 4.5 20.8058C2.83922 20.2078 2.25 19.5267 2.25 19.125C2.25 18.7552 2.75011 18.1485 4.125 17.5881V15.9861C4.08037 16.0015 4.03594 16.017 3.99183 16.0329C1.3125 16.9974 0.75 18.2468 0.75 19.125C0.75 20.0032 1.3125 21.2526 3.99183 22.2172C5.84194 22.8832 8.28642 23.25 10.875 23.25C13.4636 23.25 15.9081 22.8832 17.7582 22.2172C20.4375 21.2526 21 20.0032 21 19.125C21 18.2468 20.4375 16.9974 17.7582 16.0328ZM7.125 3.80452L12.4962 6.32053L7.125 8.29941V3.80452Z" fill="black"/>
<path d="M20.25 14.625C21.0784 14.625 21.75 13.9534 21.75 13.125C21.75 12.2966 21.0784 11.625 20.25 11.625C19.4216 11.625 18.75 12.2966 18.75 13.125C18.75 13.9534 19.4216 14.625 20.25 14.625Z" fill="black"/>
</svg>
