<svg width="24" height="24" viewBox="0 0 24 24" fill="none" xmlns="http://www.w3.org/2000/svg">
<path d="M19.5496 23.3289H12.7917L2.32377 11.7393C2.22375 11.6286 2.14676 11.499 2.09729 11.3582C2.04781 11.2175 2.02684 11.0682 2.0356 10.9193C2.04435 10.7703 2.08266 10.6246 2.14828 10.4905C2.21391 10.3565 2.30554 10.2369 2.41784 10.1386C2.84556 9.76438 3.34418 9.47998 3.88405 9.30236C4.42391 9.12474 4.99399 9.05752 5.56036 9.1047C6.12674 9.15189 6.67783 9.31251 7.18087 9.57701C7.6839 9.84151 8.12859 10.2045 8.48848 10.6444L9.35539 11.7037H10.5V3.26624C10.5 2.61977 10.7568 1.99978 11.2139 1.54266C11.671 1.08554 12.291 0.828735 12.9375 0.828735C13.5839 0.828735 14.2039 1.08554 14.6611 1.54266C15.1182 1.99978 15.375 2.61977 15.375 3.26624V8.50883L21.3011 10.155C21.5377 10.2213 21.7462 10.363 21.8949 10.5587C22.0437 10.7543 22.1244 10.9932 22.125 11.2389V18.7249C22.125 18.9288 22.0696 19.1289 21.9646 19.3037L19.5496 23.3289ZM13.4582 21.8289H18.7003L20.625 18.6211V11.524L13.875 9.64897V3.26638C13.875 3.01774 13.7762 2.77928 13.6004 2.60346C13.4246 2.42765 13.1861 2.32888 12.9375 2.32888C12.6888 2.32888 12.4504 2.42765 12.2746 2.60346C12.0988 2.77928 12 3.01774 12 3.26638V13.2039H8.64458L7.32739 11.5942C6.8994 11.0713 6.29324 10.725 5.62543 10.622C4.95762 10.5189 4.27528 10.6664 3.70958 11.0359L13.4582 21.8289ZM20.8981 11.5998L20.8997 11.6002L20.8981 11.5998Z" fill="black"/>
</svg>
