<svg width="24" height="24" viewBox="0 0 24 24" fill="none" xmlns="http://www.w3.org/2000/svg">
<path d="M19.955 6.67013C18.3816 5.09678 16.3771 4.02532 14.1948 3.59123C12.0125 3.15715 9.75048 3.37993 7.69481 4.23142C5.63913 5.08291 3.88212 6.52486 2.64596 8.37492C1.40979 10.225 0.749993 12.4001 0.75 14.6251V18.7501H7.5V17.2501H2.25V14.6251C2.25 9.24896 6.62386 4.8751 12 4.8751C17.3761 4.8751 21.75 9.24896 21.75 14.6251V17.2501H16.5V18.7501H23.25V14.6251C23.254 13.1471 22.9649 11.683 22.3993 10.3176C21.8337 8.9521 21.0029 7.71237 19.955 6.67013Z" fill="black"/>
<path d="M5.25 12.375H3.75V13.875H5.25V12.375Z" fill="black"/>
<path d="M12.75 6H11.25V7.5H12.75V6Z" fill="black"/>
<path d="M7.875 7.875H6.375V9.375H7.875V7.875Z" fill="black"/>
<path d="M20.25 12.375H18.75V13.875H20.25V12.375Z" fill="black"/>
<path d="M13.9323 15.7077L17.1761 8.9496L15.8238 8.30048L12.5808 15.0568C11.863 14.9138 11.1176 15.0375 10.4845 15.4048C9.85142 15.7721 9.37403 16.3577 9.14188 17.0518C8.90973 17.7459 8.93875 18.5009 9.22352 19.1752C9.50828 19.8495 10.0292 20.3967 10.6887 20.7143C11.3481 21.0319 12.1008 21.098 12.8055 20.9003C13.5102 20.7025 14.1186 20.2545 14.5166 19.6403C14.9145 19.026 15.0748 18.2876 14.9672 17.5636C14.8597 16.8397 14.4917 16.1798 13.9323 15.7077ZM12.0001 19.4999C11.7034 19.4999 11.4134 19.4119 11.1667 19.2471C10.92 19.0823 10.7278 18.848 10.6142 18.5739C10.5007 18.2998 10.471 17.9982 10.5289 17.7073C10.5868 17.4163 10.7296 17.149 10.9394 16.9392C11.1492 16.7295 11.4165 16.5866 11.7074 16.5287C11.9984 16.4708 12.3 16.5005 12.5741 16.6141C12.8482 16.7276 13.0824 16.9199 13.2473 17.1665C13.4121 17.4132 13.5001 17.7032 13.5001 17.9999C13.4996 18.3976 13.3414 18.7789 13.0602 19.0601C12.779 19.3413 12.3978 19.4995 12.0001 19.4999Z" fill="black"/>
</svg>
