<svg width="24" height="24" viewBox="0 0 24 24" fill="none" xmlns="http://www.w3.org/2000/svg">
<path d="M17.9999 1.87489H10.8105C10.6135 1.87436 10.4183 1.91292 10.2362 1.98833C10.0541 2.06375 9.88884 2.17453 9.74988 2.31425L4.56424 7.49989C4.42452 7.63885 4.31374 7.80414 4.23833 7.9862C4.16291 8.16826 4.12435 8.36347 4.12488 8.56053V20.9999C4.12533 21.3976 4.28351 21.7789 4.56472 22.0601C4.84592 22.3413 5.2272 22.4994 5.62488 22.4999H17.9999C18.3976 22.4994 18.7788 22.3413 19.0601 22.0601C19.3413 21.7789 19.4994 21.3976 19.4999 20.9999V3.37489C19.4994 2.9772 19.3413 2.59593 19.0601 2.31472C18.7788 2.03352 18.3976 1.87534 17.9999 1.87489ZM17.9999 20.9999H5.62488V8.56053L10.8105 3.37489H17.9999V20.9999Z" fill="black"/>
<path d="M9.75 19.5H16.5V10.125H9.75V19.5ZM11.25 11.625H15V18H11.25V11.625Z" fill="black"/>
</svg>
