<svg width="24" height="24" viewBox="0 0 24 24" fill="none" xmlns="http://www.w3.org/2000/svg">
<path d="M18.4985 10.3438L12.6317 1.18021C12.5638 1.07424 12.4704 0.987043 12.36 0.926647C12.2497 0.86625 12.1259 0.834595 12 0.834595C11.8742 0.834595 11.7504 0.86625 11.64 0.926647C11.5297 0.987043 11.4362 1.07424 11.3684 1.18021L5.50148 10.3438C4.48436 11.7236 3.93772 13.3938 3.94223 15.108C3.94223 19.551 7.5569 23.1658 12 23.1658C16.4432 23.1658 20.0579 19.5511 20.0579 15.108C20.0624 13.3938 19.5157 11.7235 18.4985 10.3438ZM12 21.6658C8.3841 21.6658 5.44223 18.724 5.44223 15.108C5.43839 13.7061 5.88759 12.3405 6.7229 11.2146C6.73287 11.2011 6.74237 11.1873 6.7514 11.1732L12 2.97557L17.2485 11.1733C17.2575 11.1874 17.267 11.2012 17.277 11.2147C18.1124 12.3405 18.5616 13.7061 18.5579 15.108C18.5579 18.724 15.616 21.6658 12 21.6658Z" fill="black"/>
</svg>
