<svg width="24" height="24" viewBox="0 0 24 24" fill="none" xmlns="http://www.w3.org/2000/svg">
<path d="M22.125 2.25H1.875C1.57674 2.25035 1.29079 2.36899 1.07989 2.57989C0.868985 2.79079 0.750347 3.07674 0.75 3.375V21C0.750347 21.2983 0.868985 21.5842 1.07989 21.7951C1.29079 22.006 1.57674 22.1247 1.875 22.125H22.125C22.4233 22.1247 22.7092 22.006 22.9201 21.7951C23.131 21.5842 23.2497 21.2983 23.25 21V3.375C23.2497 3.07674 23.131 2.79079 22.9201 2.57989C22.7092 2.36899 22.4233 2.25035 22.125 2.25ZM21.75 3.75V6.75H2.25V3.75H21.75ZM2.25 8.25H11.25V20.625H2.25V8.25ZM12.75 20.625V8.25H21.75V20.625H12.75Z" fill="black"/>
</svg>
