<svg width="24" height="24" viewBox="0 0 24 24" fill="none" xmlns="http://www.w3.org/2000/svg">
<path d="M20.7682 6.23182L21.8292 5.17085C21.1981 4.48645 20.4321 3.94022 19.5794 3.56661C18.7267 3.19301 17.8059 3.00012 16.8749 3.00012C15.944 3.00012 15.0231 3.19301 14.1704 3.56661C13.3178 3.94022 12.5517 4.48645 11.9207 5.17085L12.9816 6.23182C13.4732 5.6867 14.0737 5.25088 14.7444 4.95257C15.4151 4.65426 16.1409 4.50012 16.8749 4.50012C17.6089 4.50012 18.3348 4.65426 19.0054 4.95257C19.6761 5.25088 20.2767 5.6867 20.7682 6.23182Z" fill="black"/>
<path d="M14.0445 7.29463L15.1086 8.35869C15.3187 8.09112 15.5869 7.87479 15.8929 7.72604C16.1989 7.57728 16.5346 7.49998 16.8749 7.49998C17.2151 7.49998 17.5509 7.57728 17.8568 7.72604C18.1628 7.87479 18.431 8.09112 18.6412 8.35869L19.7052 7.29463C19.3539 6.88838 18.9193 6.5625 18.4309 6.33915C17.9425 6.11579 17.4117 6.00018 16.8747 6.00018C16.3376 6.00018 15.8068 6.11579 15.3184 6.33915C14.83 6.5625 14.3954 6.88838 14.0441 7.29463H14.0445Z" fill="black"/>
<path d="M22.125 13.125H17.625V10.125H16.125V13.125H1.875C1.57674 13.1253 1.29079 13.244 1.07989 13.4549C0.868985 13.6658 0.750347 13.9517 0.75 14.25V19.5C0.750347 19.7983 0.868985 20.0842 1.07989 20.2951C1.29079 20.506 1.57674 20.6247 1.875 20.625H22.125C22.4233 20.6247 22.7092 20.506 22.9201 20.2951C23.131 20.0842 23.2497 19.7983 23.25 19.5V14.25C23.2497 13.9517 23.131 13.6658 22.9201 13.4549C22.7092 13.244 22.4233 13.1253 22.125 13.125ZM21.75 19.125H2.25V14.625H21.75V19.125Z" fill="black"/>
<path d="M6 16.125H4.5V17.625H6V16.125Z" fill="black"/>
<path d="M9.75 16.125H8.25V17.625H9.75V16.125Z" fill="black"/>
<path d="M13.5 16.125H12V17.625H13.5V16.125Z" fill="black"/>
</svg>
