<svg width="24" height="24" viewBox="0 0 24 24" fill="none" xmlns="http://www.w3.org/2000/svg">
<path d="M23.6149 5.82353C20.2107 3.44005 16.1557 2.16156 12 2.16156C7.84433 2.16156 3.78927 3.44005 0.385078 5.82353L0.375 5.83038V7.11653L4.07255 12.3976L11.1458 22.4991H12.8542L19.9276 12.3976L23.625 7.11672V5.83038L23.6149 5.82353ZM8.898 16.6737L12.4586 11.1709C13.1415 11.198 13.8205 11.2872 14.4872 11.4375L10.0238 18.2812L8.898 16.6737ZM7.96945 15.3475L6.17578 12.7859C7.53224 11.9619 9.04875 11.4366 10.6242 11.245L7.96945 15.3475ZM10.951 19.6056L15.9841 11.8881C16.6235 12.1307 17.2395 12.4312 17.8242 12.7859L12 21.1038L10.951 19.6056ZM18.6862 11.5549C16.6757 10.3169 14.3611 9.66138 12 9.66138C9.63895 9.66138 7.32425 10.3169 5.3138 11.5549L1.86848 6.63414C4.89127 4.69321 8.40796 3.66137 12.0002 3.66137C15.5925 3.66137 19.1092 4.69321 22.132 6.63414L18.6862 11.5549Z" fill="black"/>
</svg>
