<svg width="24" height="24" viewBox="0 0 24 24" fill="none" xmlns="http://www.w3.org/2000/svg">
<g clip-path="url(#clip0_201_56758)">
<path d="M20.25 3.75V0.75H18.75V3.75H15.75V5.25H18.75V8.25H20.25V5.25H23.25V3.75H20.25Z" fill="black"/>
<path d="M7.125 12H5.25V13.875H7.125V12Z" fill="black"/>
<path d="M13.5 12H11.625V13.875H13.5V12Z" fill="black"/>
<path d="M9.53609 18H9.21383C8.61582 18.0019 8.03103 17.8242 7.53519 17.4899C7.03936 17.1556 6.65536 16.6801 6.43292 16.125H4.81714L5.03567 16.6712C5.36721 17.508 5.94317 18.2254 6.68846 18.73C7.43376 19.2346 8.31379 19.5029 9.21383 19.5H9.53609C10.4361 19.5029 11.3161 19.2346 12.0614 18.73C12.8067 18.2254 13.3827 17.508 13.7142 16.6712L13.9327 16.125H12.317C12.0945 16.6801 11.7105 17.1556 11.2147 17.4899C10.7189 17.8242 10.1341 18.0019 9.53609 18Z" fill="black"/>
<path d="M9.375 6C4.61916 6 0.75 9.86916 0.75 14.625C0.75 19.3808 4.61916 23.25 9.375 23.25C14.1308 23.25 18 19.3808 18 14.625C18 9.86916 14.1308 6 9.375 6ZM9.375 21.75C5.44627 21.75 2.25 18.5537 2.25 14.625C2.25 10.6963 5.44627 7.5 9.375 7.5C13.3037 7.5 16.5 10.6963 16.5 14.625C16.5 18.5537 13.3037 21.75 9.375 21.75Z" fill="black"/>
</g>
<defs>
<clipPath id="clip0_201_56758">
<rect width="24" height="24" fill="white"/>
</clipPath>
</defs>
</svg>
