<svg width="24" height="24" viewBox="0 0 24 24" fill="none" xmlns="http://www.w3.org/2000/svg">
<path d="M19.2264 6.23653L17.869 4.87912L21.7506 4.875L21.749 3.375L15.3748 3.38175V9.75H16.8748V6.00619L18.1658 7.29717C19.1647 8.29617 19.8452 9.56873 20.1213 10.9542C20.3975 12.3396 20.2569 13.7759 19.7174 15.0815C19.1779 16.3871 18.2637 17.5036 17.0901 18.29C15.9165 19.0764 14.5362 19.4975 13.1235 19.5L13.1261 21C14.8353 20.997 16.5052 20.4876 17.9251 19.5361C19.3449 18.5847 20.451 17.2339 21.1037 15.6543C21.7564 14.0747 21.9264 12.3371 21.5923 10.6609C21.2582 8.98474 20.4349 7.44515 19.2264 6.23653Z" fill="black"/>
<path d="M10.8765 4.875L10.8739 3.375C9.16476 3.37804 7.49483 3.88743 6.07498 4.83886C4.65513 5.79029 3.54902 7.14109 2.89632 8.72071C2.24362 10.3003 2.07359 12.0379 2.40771 13.7141C2.74183 15.3903 3.56511 16.9299 4.77359 18.1385L6.13513 19.5H2.25022V21H8.62522V14.625H7.12522V18.3688L5.83423 17.0778C4.83536 16.0788 4.15488 14.8063 3.87872 13.4208C3.60257 12.0354 3.74311 10.5991 4.28261 9.29351C4.8221 7.98788 5.73637 6.87137 6.90995 6.08496C8.08354 5.29856 9.46383 4.87751 10.8765 4.875Z" fill="black"/>
</svg>
