<svg width="24" height="24" viewBox="0 0 24 24" fill="none" xmlns="http://www.w3.org/2000/svg">
<path d="M23.1562 9.31253C23.0487 8.97878 22.8509 8.6813 22.5847 8.45302C22.3185 8.22475 21.9943 8.07458 21.6481 8.01915L16.2149 7.13617L13.6962 2.24176C13.5357 1.93018 13.2926 1.6688 12.9934 1.48632C12.6942 1.30384 12.3505 1.20731 12 1.20731C11.6495 1.20731 11.3058 1.30384 11.0066 1.48632C10.7074 1.6688 10.4643 1.93018 10.3038 2.24176L7.78514 7.13617L2.352 8.01915C2.00609 8.07545 1.68238 8.22595 1.41637 8.45412C1.15037 8.68229 0.952353 8.97932 0.844052 9.31262C0.735752 9.64593 0.721352 10.0026 0.802432 10.3436C0.883512 10.6845 1.05694 10.9965 1.30369 11.2454L5.18025 15.1533L4.34119 20.5934C4.28735 20.9399 4.33011 21.2945 4.46477 21.6183C4.59943 21.942 4.82078 22.2224 5.10446 22.4285C5.38814 22.6346 5.72317 22.7585 6.0727 22.7865C6.42224 22.8145 6.77272 22.7456 7.08562 22.5873L12 20.1081L16.9145 22.5873C17.2274 22.7453 17.5778 22.814 17.9272 22.7858C18.2766 22.7576 18.6115 22.6337 18.8951 22.4277C19.1787 22.2216 19.4 21.9414 19.5347 21.6179C19.6695 21.2943 19.7125 20.9398 19.659 20.5934L18.8199 15.1533L22.6965 11.2454C22.944 10.997 23.1179 10.685 23.1991 10.3439C23.2802 10.0027 23.2654 9.64577 23.1562 9.31253ZM21.6314 10.1891L17.2219 14.6342L18.1764 20.8222C18.1883 20.8963 18.1794 20.9722 18.1507 21.0416C18.122 21.1109 18.0747 21.171 18.014 21.2151C17.9533 21.2592 17.8815 21.2856 17.8067 21.2915C17.7319 21.2973 17.6569 21.2823 17.5901 21.2482L12 18.4281L6.40987 21.2483C6.34305 21.2824 6.26808 21.2974 6.19326 21.2916C6.11844 21.2857 6.0467 21.2593 5.98598 21.2152C5.92527 21.1711 5.87795 21.111 5.84927 21.0417C5.8206 20.9723 5.81168 20.8964 5.82351 20.8223L6.77812 14.6342L2.36864 10.189C2.31598 10.1358 2.27898 10.0692 2.26169 9.99635C2.24441 9.92352 2.24749 9.84733 2.27062 9.77614C2.29375 9.70495 2.33603 9.6415 2.39283 9.59274C2.44962 9.54398 2.51874 9.51179 2.59261 9.4997L8.77266 8.49536L11.6376 2.92815C11.6719 2.86156 11.7238 2.80569 11.7877 2.76669C11.8517 2.72768 11.9251 2.70705 12 2.70705C12.0749 2.70705 12.1483 2.72768 12.2123 2.76669C12.2762 2.80569 12.3281 2.86156 12.3624 2.92815L15.2273 8.49536L21.4074 9.4997C21.4813 9.51179 21.5504 9.54398 21.6072 9.59274C21.664 9.6415 21.7062 9.70495 21.7294 9.77614C21.7525 9.84733 21.7556 9.92352 21.7383 9.99635C21.721 10.0692 21.684 10.1358 21.6314 10.189L21.6314 10.1891Z" fill="black"/>
</svg>
