<svg width="24" height="24" viewBox="0 0 24 24" fill="none" xmlns="http://www.w3.org/2000/svg">
<path d="M12 6.74997C12.5933 6.74997 13.1734 6.57402 13.6667 6.24438C14.1601 5.91474 14.5446 5.4462 14.7716 4.89802C14.9987 4.34984 15.0581 3.74664 14.9424 3.1647C14.8266 2.58276 14.5409 2.04821 14.1213 1.62865C13.7018 1.20909 13.1672 0.923371 12.5853 0.807615C12.0033 0.691859 11.4001 0.751269 10.8519 0.978332C10.3038 1.2054 9.83524 1.58991 9.50559 2.08326C9.17595 2.57661 9 3.15663 9 3.74997C9.00089 4.54535 9.31725 5.30789 9.87967 5.8703C10.4421 6.43272 11.2046 6.74908 12 6.74997ZM12 2.24997C12.2967 2.24997 12.5867 2.33794 12.8334 2.50277C13.08 2.66759 13.2723 2.90186 13.3858 3.17595C13.4994 3.45003 13.5291 3.75163 13.4712 4.04261C13.4133 4.33358 13.2704 4.60085 13.0607 4.81063C12.8509 5.02041 12.5836 5.16327 12.2926 5.22115C12.0017 5.27903 11.7001 5.24932 11.426 5.13579C11.1519 5.02226 10.9176 4.83 10.7528 4.58333C10.588 4.33665 10.5 4.04664 10.5 3.74997C10.5004 3.35228 10.6586 2.97101 10.9398 2.6898C11.221 2.4086 11.6023 2.25042 12 2.24997Z" fill="black"/>
<path d="M12 17.25C11.4067 17.25 10.8266 17.4259 10.3333 17.7556C9.83994 18.0852 9.45543 18.5538 9.22836 19.102C9.0013 19.6501 8.94189 20.2533 9.05765 20.8353C9.1734 21.4172 9.45912 21.9518 9.87868 22.3713C10.2982 22.7909 10.8328 23.0766 11.4147 23.1924C11.9967 23.3081 12.5999 23.2487 13.1481 23.0216C13.6962 22.7946 14.1648 22.4101 14.4944 21.9167C14.8241 21.4234 15 20.8433 15 20.25C14.9991 19.4546 14.6828 18.6921 14.1203 18.1297C13.5579 17.5673 12.7954 17.2509 12 17.25ZM12 21.75C11.7033 21.75 11.4133 21.662 11.1666 21.4972C10.92 21.3324 10.7277 21.0981 10.6142 20.824C10.5007 20.5499 10.4709 20.2483 10.5288 19.9574C10.5867 19.6664 10.7296 19.3991 10.9393 19.1893C11.1491 18.9796 11.4164 18.8367 11.7074 18.7788C11.9983 18.7209 12.2999 18.7506 12.574 18.8642C12.8481 18.9777 13.0824 19.17 13.2472 19.4166C13.412 19.6633 13.5 19.9533 13.5 20.25C13.4996 20.6477 13.3414 21.029 13.0602 21.3102C12.779 21.5914 12.3977 21.7496 12 21.75Z" fill="black"/>
<path d="M12 9C11.4067 9 10.8266 9.17595 10.3333 9.50559C9.83994 9.83524 9.45543 10.3038 9.22836 10.8519C9.0013 11.4001 8.94189 12.0033 9.05765 12.5853C9.1734 13.1672 9.45912 13.7018 9.87868 14.1213C10.2982 14.5409 10.8328 14.8266 11.4147 14.9424C11.9967 15.0581 12.5999 14.9987 13.1481 14.7716C13.6962 14.5446 14.1648 14.1601 14.4944 13.6667C14.8241 13.1734 15 12.5933 15 12C14.9991 11.2046 14.6828 10.4421 14.1203 9.87967C13.5579 9.31725 12.7954 9.00089 12 9ZM12 13.5C11.7033 13.5 11.4133 13.412 11.1666 13.2472C10.92 13.0824 10.7277 12.8481 10.6142 12.574C10.5007 12.2999 10.4709 11.9983 10.5288 11.7074C10.5867 11.4164 10.7296 11.1491 10.9393 10.9393C11.1491 10.7296 11.4164 10.5867 11.7074 10.5288C11.9983 10.4709 12.2999 10.5006 12.574 10.6142C12.8481 10.7277 13.0824 10.92 13.2472 11.1666C13.412 11.4133 13.5 11.7033 13.5 12C13.4996 12.3977 13.3414 12.779 13.0602 13.0602C12.779 13.3414 12.3977 13.4996 12 13.5Z" fill="black"/>
</svg>
