<svg width="24" height="24" viewBox="0 0 24 24" fill="none" xmlns="http://www.w3.org/2000/svg">
<path d="M19.6391 10.0836C20.4796 9.95434 21.2402 9.51253 21.7689 8.84653C22.2976 8.18052 22.5553 7.33946 22.4904 6.4916C22.4256 5.64375 22.043 4.85165 21.4192 4.27379C20.7954 3.69593 19.9764 3.37492 19.1261 3.375H18V1.875C17.9997 1.57674 17.881 1.29079 17.6701 1.07989C17.4592 0.868985 17.1733 0.750347 16.875 0.75H3.375C3.07674 0.750347 2.79079 0.868985 2.57989 1.07989C2.36899 1.29079 2.25035 1.57674 2.25 1.875V6.75C2.25035 7.04826 2.36899 7.33421 2.57989 7.54511C2.79079 7.75601 3.07674 7.87465 3.375 7.875H16.875C17.1733 7.87465 17.4592 7.75601 17.6701 7.54511C17.881 7.33421 17.9997 7.04826 18 6.75V4.875H19.1261C19.5983 4.87501 20.0532 5.05332 20.3996 5.37428C20.746 5.69523 20.9585 6.13515 20.9945 6.60603C21.0305 7.07691 20.8874 7.54402 20.5938 7.91392C20.3002 8.28382 19.8778 8.52923 19.411 8.60105L11.25 9.85655V13.125H8.625V23.25H15.375V13.125H12.75V11.1435L19.6391 10.0836ZM16.5 6.375H3.75V2.25H16.5V6.375ZM13.875 14.625V21.75H10.125V14.625H13.875Z" fill="black"/>
</svg>
