<svg width="24" height="24" viewBox="0 0 24 24" fill="none" xmlns="http://www.w3.org/2000/svg">
<path d="M23.6219 11.9967L23.6238 11.9948L20.4325 8.80345L20.1409 8.514L19.9008 8.27564L14.7898 3.16467L11.0651 6.8895L16.1754 11.9999L11.0651 17.1102L14.7898 20.835L19.9002 15.7247L19.9021 15.7266L19.9053 15.7235L23.0966 12.5321L23.625 11.9999L23.6219 11.9967ZM14.7898 18.7139L13.1864 17.1104L18.2967 11.9999L13.1864 6.8895L14.7898 5.286L19.3699 9.86602L19.9021 10.3944L21.5075 11.9999L19.9021 13.6053L19.9002 13.6034L19.8971 13.6065L14.7898 18.7139Z" fill="black"/>
<path d="M13.2559 11.9999L13.2527 11.9967L13.2547 11.9948L10.0633 8.80345L9.53438 8.27799L4.42069 3.16467L0.695862 6.8895L5.80622 11.9999L0.695862 17.1102L4.42069 20.835L9.53438 15.7217L9.5363 15.7237L12.7276 12.5323L13.2559 11.9999ZM9.52969 13.6084L9.52777 13.6065L4.42069 18.7137L2.81719 17.1102L7.92755 11.9999L2.81719 6.8895L4.42069 5.286L9.00071 9.86602L9.52941 10.391L11.1384 11.9999L9.52969 13.6084Z" fill="black"/>
</svg>
