<svg width="24" height="24" viewBox="0 0 24 24" fill="none" xmlns="http://www.w3.org/2000/svg">
<path d="M22.125 4.5H1.875C1.57674 4.50035 1.29079 4.61899 1.07989 4.82989C0.868985 5.04079 0.750347 5.32674 0.75 5.625V9.375H2.25V6H21.75V18H2.25V14.625H0.75V18.375C0.750347 18.6733 0.868985 18.9592 1.07989 19.1701C1.29079 19.381 1.57674 19.4997 1.875 19.5H22.125C22.4233 19.4997 22.7092 19.381 22.9201 19.1701C23.131 18.9592 23.2497 18.6733 23.25 18.375V5.625C23.2497 5.32674 23.131 5.04079 22.9201 4.82989C22.7092 4.61899 22.4233 4.50035 22.125 4.5Z" fill="black"/>
<path d="M9.9697 15.1447L11.0303 16.2054L15.273 11.9627L11.0303 7.72009L9.9697 8.78078L12.4016 11.2127H0.75V12.7127H12.4017L9.9697 15.1447Z" fill="black"/>
</svg>
