<svg width="24" height="24" viewBox="0 0 24 24" fill="none" xmlns="http://www.w3.org/2000/svg">
<path d="M6.18746 6.55425C6.76145 6.55425 7.32255 6.38405 7.7998 6.06516C8.27705 5.74627 8.64902 5.29302 8.86868 4.76272C9.08833 4.23243 9.14581 3.64891 9.03383 3.08595C8.92185 2.52299 8.64545 2.00588 8.23958 1.60001C7.83371 1.19414 7.3166 0.917744 6.75364 0.805765C6.19068 0.693786 5.60716 0.751257 5.07687 0.970912C4.54658 1.19057 4.09333 1.56254 3.77444 2.03979C3.45555 2.51704 3.28534 3.07814 3.28534 3.65213C3.2862 4.42156 3.59223 5.15922 4.1363 5.70329C4.68037 6.24736 5.41804 6.5534 6.18746 6.55425ZM6.18746 2.25C6.46478 2.25 6.73586 2.33223 6.96644 2.4863C7.19702 2.64037 7.37674 2.85935 7.48286 3.11556C7.58898 3.37176 7.61675 3.65368 7.56265 3.92567C7.50855 4.19765 7.37501 4.44749 7.17892 4.64358C6.98283 4.83967 6.73299 4.97321 6.46101 5.02731C6.18902 5.08141 5.9071 5.05364 5.65089 4.94752C5.39469 4.8414 5.17571 4.66168 5.02164 4.43111C4.86757 4.20053 4.78534 3.92944 4.78534 3.65213C4.78577 3.28039 4.93364 2.92401 5.19649 2.66115C5.45935 2.3983 5.81573 2.25044 6.18746 2.25Z" fill="black"/>
<path d="M8.25 7.125H4.125C3.52846 7.12566 2.95655 7.36292 2.53474 7.78474C2.11292 8.20655 1.87566 8.77846 1.875 9.375V16.5H3.375V23.25H9V16.5H10.5V9.375C10.4993 8.77846 10.2621 8.20655 9.84026 7.78474C9.41845 7.36292 8.84654 7.12566 8.25 7.125ZM9 15H7.5V21.75H4.875V15H3.375V9.375C3.37524 9.17616 3.45433 8.98553 3.59493 8.84493C3.73553 8.70433 3.92616 8.62524 4.125 8.625H8.25C8.44884 8.62524 8.63947 8.70433 8.78007 8.84493C8.92067 8.98553 8.99976 9.17616 9 9.375V15Z" fill="black"/>
<path d="M17.3479 6.55425C17.9218 6.55425 18.4829 6.38405 18.9602 6.06516C19.4374 5.74627 19.8094 5.29302 20.0291 4.76272C20.2487 4.23243 20.3062 3.64891 20.1942 3.08595C20.0822 2.52299 19.8058 2.00588 19.4 1.60001C18.9941 1.19414 18.477 0.917744 17.914 0.805765C17.3511 0.693786 16.7676 0.751257 16.2373 0.970912C15.707 1.19057 15.2537 1.56254 14.9348 2.03979C14.6159 2.51704 14.4457 3.07814 14.4457 3.65213C14.4466 4.42156 14.7526 5.15922 15.2967 5.70329C15.8408 6.24736 16.5784 6.5534 17.3479 6.55425ZM17.3479 2.25C17.6252 2.25 17.8963 2.33223 18.1268 2.4863C18.3574 2.64037 18.5371 2.85935 18.6432 3.11556C18.7494 3.37176 18.7771 3.65368 18.723 3.92567C18.6689 4.19765 18.5354 4.44749 18.3393 4.64358C18.1432 4.83967 17.8934 4.97321 17.6214 5.02731C17.3494 5.08141 17.0675 5.05364 16.8113 4.94752C16.5551 4.8414 16.3361 4.66168 16.182 4.43111C16.028 4.20053 15.9457 3.92944 15.9457 3.65213C15.9462 3.28039 16.094 2.92401 16.3569 2.66115C16.6197 2.3983 16.9761 2.25044 17.3479 2.25Z" fill="black"/>
<path d="M19.9575 9.06312C19.7625 8.50248 19.3994 8.01558 18.9177 7.66874C18.436 7.3219 17.8591 7.13198 17.2655 7.12484C16.672 7.11771 16.0907 7.29371 15.6008 7.62888C15.1109 7.96404 14.7362 8.44208 14.5278 8.99787L11.625 16.7387V18.7497H14.625V23.2496H19.5V18.7497H22.5V16.3731L19.9575 9.06312ZM21 17.2497H18V21.7496H16.125V17.2497H13.125V17.0106L15.9323 9.52465C16.0324 9.25765 16.2124 9.028 16.4477 8.86699C16.6831 8.70597 16.9624 8.62142 17.2475 8.62485C17.5326 8.62828 17.8098 8.71952 18.0412 8.88614C18.2726 9.05277 18.447 9.28668 18.5407 9.55601L21 16.6262V17.2497Z" fill="black"/>
</svg>
