<svg width="24" height="24" viewBox="0 0 24 24" fill="none" xmlns="http://www.w3.org/2000/svg">
<g clip-path="url(#clip0_201_55664)">
<path d="M22.125 0.75H7.5C7.20173 0.750335 6.91578 0.868969 6.70487 1.07987C6.49397 1.29078 6.37533 1.57673 6.375 1.875V16.5C6.37533 16.7983 6.49397 17.0842 6.70487 17.2951C6.91578 17.506 7.20173 17.6247 7.5 17.625H22.125C22.4233 17.6247 22.7092 17.506 22.9201 17.2951C23.131 17.0842 23.2497 16.7983 23.25 16.5V1.875C23.2497 1.57673 23.131 1.29078 22.9201 1.07987C22.7092 0.868969 22.4233 0.750335 22.125 0.75ZM21.75 16.125H7.875V2.25H21.75V16.125Z" fill="black"/>
<path d="M16.125 21.75H2.25V7.875H4.875V6.375H1.875C1.57673 6.37533 1.29078 6.49397 1.07987 6.70487C0.868969 6.91578 0.750335 7.20173 0.75 7.5V22.125C0.750335 22.4233 0.868969 22.7092 1.07987 22.9201C1.29078 23.131 1.57673 23.2497 1.875 23.25H16.5C16.7983 23.2497 17.0842 23.131 17.2951 22.9201C17.506 22.7092 17.6247 22.4233 17.625 22.125V19.125H16.125V21.75Z" fill="black"/>
</g>
<defs>
<clipPath id="clip0_201_55664">
<rect width="24" height="24" fill="white"/>
</clipPath>
</defs>
</svg>
