<svg width="24" height="24" viewBox="0 0 24 24" fill="none" xmlns="http://www.w3.org/2000/svg">
<path d="M17.5671 8.75959C17.3965 8.2573 17.0728 7.82114 16.6413 7.51249C16.2099 7.20384 15.6926 7.03824 15.1621 7.039H13.1251V1.0105L12.269 1.13279C10.327 1.4102 8.81434 2.39429 7.77338 4.05779C7.02287 5.2569 6.67398 6.57967 6.51207 7.56901C5.39424 8.42908 4.42177 9.61328 3.6181 11.094C2.9408 12.3417 2.38013 13.8041 1.9516 15.4407C1.22752 18.2058 1.12951 20.4995 1.12571 20.5958L1.12534 23.2502H2.6251V20.6423C2.64385 20.2565 3.11616 11.8134 7.64223 8.59844L7.90754 8.40995L7.95113 8.0874C8.17684 6.41744 8.95684 3.65922 11.6251 2.81139V8.539H15.1621C15.379 8.53835 15.5906 8.60572 15.7672 8.73163C15.9438 8.85755 16.0765 9.03566 16.1465 9.2409C16.7445 11.006 17.772 13.2148 19.3734 14.2528L18.8918 16.0588C18.7241 16.7029 18.3428 17.271 17.8103 17.6701C17.2777 18.0692 16.6254 18.2757 15.9602 18.2559C14.6164 18.2155 13.2177 18.3909 11.8029 18.7767L11.2501 18.9274V23.2502H12.7501V20.0847C13.7866 19.8398 14.8503 19.729 15.9151 19.7552C16.9178 19.7828 17.9005 19.4709 18.7038 18.8702C19.5071 18.2694 20.084 17.415 20.3409 16.4453L21.1419 13.4415L20.5454 13.1859C19.4298 12.7077 18.3721 11.1358 17.5671 8.75959Z" fill="black"/>
</svg>
