<svg width="24" height="24" viewBox="0 0 24 24" fill="none" xmlns="http://www.w3.org/2000/svg">
<path d="M18.9188 16.1085L15.5052 13.8897L16.1271 12.7497H17.2253C17.5976 12.7497 17.9641 12.6572 18.292 12.4807C18.6198 12.3042 18.8987 12.0491 19.1037 11.7383C19.3086 11.4274 19.4333 11.0706 19.4664 10.6997C19.4995 10.3288 19.44 9.95557 19.2933 9.61334L16.9492 4.24512C16.5864 3.2226 15.9158 2.33754 15.0296 1.71162C14.1434 1.08569 13.085 0.749634 12.0001 0.749634C10.9151 0.749634 9.85676 1.08569 8.97054 1.71162C8.08432 2.33754 7.41374 3.2226 7.05096 4.24512L4.70679 9.61334C4.56012 9.95557 4.50067 10.3288 4.53378 10.6997C4.56688 11.0706 4.69151 11.4274 4.89647 11.7383C5.10144 12.0491 5.38035 12.3042 5.70818 12.4807C6.03601 12.6572 6.40253 12.7497 6.77487 12.7497H7.87305L8.4949 13.8897L5.08132 16.1085C4.55669 16.4481 4.12562 16.9139 3.82754 17.4632C3.52946 18.0125 3.37389 18.6278 3.37507 19.2527V23.2497H20.6251V19.2527C20.6262 18.6278 20.4707 18.0125 20.1726 17.4632C19.8745 16.9139 19.4434 16.4482 18.9188 16.1085ZM19.1251 21.7497H4.87507V19.2527C4.87437 18.8777 4.96772 18.5086 5.14657 18.179C5.32543 17.8494 5.58408 17.57 5.89886 17.3662L10.4767 14.3906L8.76349 11.2497H6.77487C6.6509 11.2496 6.52886 11.2189 6.41967 11.1602C6.31049 11.1015 6.21756 11.0166 6.1492 10.9132C6.08084 10.8098 6.03919 10.691 6.02796 10.5676C6.01673 10.4441 6.03628 10.3198 6.08486 10.2057L8.43668 4.81981L8.45768 4.76623C8.71393 4.03097 9.19261 3.39366 9.82735 2.94269C10.4621 2.49173 11.2214 2.24944 12.0001 2.24944C12.7787 2.24944 13.538 2.49173 14.1728 2.94269C14.8075 3.39366 15.2862 4.03097 15.5425 4.76623L15.5518 4.79342L17.9153 10.2057C17.9639 10.3198 17.9834 10.4441 17.9722 10.5676C17.9609 10.691 17.9193 10.8098 17.8509 10.9132C17.7826 11.0166 17.6896 11.1015 17.5805 11.1602C17.4713 11.2189 17.3492 11.2496 17.2253 11.2497H15.2366L13.5235 14.3906L18.1014 17.3662C18.4161 17.57 18.6748 17.8494 18.8536 18.179C19.0324 18.5086 19.1258 18.8777 19.1251 19.2527V21.7497Z" fill="black"/>
</svg>
