<svg width="24" height="24" viewBox="0 0 24 24" fill="none" xmlns="http://www.w3.org/2000/svg">
<g clip-path="url(#clip0_201_56211)">
<path d="M21.5278 4.5L15.375 10.5797V4.5H13.7566L7.875 10.4656V0.75H0.75V23.25H23.25V4.5H21.5278ZM21.75 21.75H2.25V2.25H6.375V12.375H8.09897L13.875 6.51647V12.375H15.6921L21.75 6.38906V21.75Z" fill="black"/>
<path d="M6.375 15.375V15.75H7.875V15.375V14.25H6.375V15.375Z" fill="black"/>
<path d="M7.875 17.625H6.375V19.125H7.875V17.625Z" fill="black"/>
<path d="M10.125 15.375V15.75H11.625V15.375V14.25H10.125V15.375Z" fill="black"/>
<path d="M11.625 17.625H10.125V19.125H11.625V17.625Z" fill="black"/>
<path d="M13.875 15.375V15.75H15.375V15.375V14.25H13.875V15.375Z" fill="black"/>
<path d="M15.375 17.625H13.875V19.125H15.375V17.625Z" fill="black"/>
<path d="M19.125 14.25H17.625V15.75H19.125V14.25Z" fill="black"/>
<path d="M19.125 17.625H17.625V19.125H19.125V17.625Z" fill="black"/>
</g>
<defs>
<clipPath id="clip0_201_56211">
<rect width="24" height="24" fill="white"/>
</clipPath>
</defs>
</svg>
