<svg width="24" height="24" viewBox="0 0 24 24" fill="none" xmlns="http://www.w3.org/2000/svg">
<g clip-path="url(#clip0_201_55624)">
<path d="M12 23.25C9.77496 23.25 7.59989 22.5902 5.74983 21.3541C3.89977 20.1179 2.45782 18.3609 1.60633 16.3052C0.754843 14.2495 0.532055 11.9875 0.966142 9.80525C1.40023 7.62296 2.47169 5.6184 4.04504 4.04506C6.15483 1.93527 9.01632 0.75 12 0.75C14.9837 0.75 17.8452 1.93527 19.955 4.04506C22.0648 6.15484 23.25 9.01633 23.25 12C23.25 14.9837 22.0648 17.8452 19.955 19.955C18.9127 21.0029 17.673 21.8337 16.3075 22.3993C14.9421 22.9649 13.478 23.2541 12 23.25ZM12 2.25002C6.62387 2.25002 2.25001 6.62388 2.25001 12C2.25001 17.3762 6.62387 21.75 12 21.75C17.3762 21.75 21.75 17.3762 21.75 12C21.75 6.62388 17.3762 2.25002 12 2.25002Z" fill="black"/>
<path d="M16.7196 14.7803L12 10.0607L7.28032 14.7803L6.21964 13.7197L12 7.93933L17.7803 13.7197L16.7196 14.7803Z" fill="black"/>
</g>
<defs>
<clipPath id="clip0_201_55624">
<rect width="24" height="24" fill="white"/>
</clipPath>
</defs>
</svg>
