<svg width="24" height="24" viewBox="0 0 24 24" fill="none" xmlns="http://www.w3.org/2000/svg">
<path d="M16.5664 9.37476L15.1142 6.66281L12.2681 5.7141L12.2615 5.73435L7.83803 6.9982C7.52513 7.08864 7.24998 7.27808 7.05382 7.53811C6.85767 7.79813 6.75109 8.11474 6.75007 8.44045V12.3748H8.25007V8.44049L11.7001 7.45481L10.1761 12.1251L10.1688 12.1225L8.78767 15.9897C8.72085 16.1738 8.58503 16.3246 8.40895 16.4104C8.23287 16.4961 8.03035 16.51 7.84422 16.449L4.73725 15.4132L4.26288 16.8363L7.36985 17.8719C7.92806 18.0579 8.53693 18.0179 9.06598 17.7603C9.59502 17.5028 10.0021 17.0483 10.2001 16.4942L11.3359 13.3138L12.1409 13.5763L14.405 15.8403C14.475 15.9098 14.5305 15.9925 14.5682 16.0836C14.606 16.1748 14.6253 16.2725 14.6251 16.3711V21.3748H16.1251V16.3711C16.1259 16.0755 16.068 15.7827 15.9549 15.5096C15.8418 15.2365 15.6756 14.9885 15.4661 14.7801L13.2036 12.5177L14.4591 8.67032L15.3623 10.2961C15.4598 10.4714 15.6023 10.6175 15.7752 10.7193C15.9481 10.821 16.1451 10.8747 16.3457 10.8748H20.2501V9.37476H16.5664Z" fill="black"/>
<path d="M13.4451 5.14265C13.7397 5.38885 14.1095 5.52722 14.4934 5.5349C14.8773 5.54258 15.2523 5.41912 15.5565 5.18491C15.8608 4.95069 16.0761 4.61972 16.1668 4.24664C16.2576 3.87357 16.2184 3.48069 16.0558 3.13289C15.8931 2.78508 15.6167 2.50314 15.2722 2.33362C14.9277 2.1641 14.5357 2.11713 14.1609 2.20047C13.7861 2.28381 13.4509 2.49248 13.2107 2.79201C12.9705 3.09155 12.8396 3.46405 12.8397 3.84801C12.8392 4.09504 12.8932 4.33913 12.9979 4.5629C13.1025 4.78667 13.2552 4.98462 13.4451 5.14265Z" fill="black"/>
</svg>
