<svg width="24" height="24" viewBox="0 0 24 24" fill="none" xmlns="http://www.w3.org/2000/svg">
<path d="M5.4375 21.9375C6.3646 21.9375 7.27088 21.6626 8.04174 21.1475C8.81259 20.6324 9.4134 19.9004 9.76819 19.0438C10.123 18.1873 10.2158 17.2448 10.0349 16.3355C9.85406 15.4262 9.40762 14.591 8.75206 13.9354C8.0965 13.2799 7.26127 12.8334 6.35199 12.6526C5.4427 12.4717 4.5002 12.5645 3.64367 12.9193C2.78714 13.2741 2.05506 13.8749 1.53999 14.6458C1.02492 15.4166 0.75 16.3229 0.75 17.25C0.751402 18.4928 1.24571 19.6842 2.12449 20.563C3.00326 21.4418 4.19473 21.9361 5.4375 21.9375ZM5.4375 14.0625C6.06793 14.0625 6.6842 14.2494 7.20838 14.5997C7.73256 14.9499 8.14111 15.4478 8.38237 16.0302C8.62362 16.6126 8.68674 17.2535 8.56375 17.8719C8.44076 18.4902 8.13718 19.0581 7.6914 19.5039C7.24562 19.9497 6.67766 20.2533 6.05935 20.3763C5.44104 20.4992 4.80014 20.4361 4.2177 20.1949C3.63526 19.9536 3.13744 19.5451 2.78719 19.0209C2.43694 18.4967 2.25 17.8804 2.25 17.25C2.25096 16.4049 2.58709 15.5947 3.18465 14.9972C3.78222 14.3996 4.59242 14.0635 5.4375 14.0625Z" fill="black"/>
<path d="M13.875 17.25C13.875 18.1771 14.1499 19.0834 14.665 19.8542C15.1801 20.6251 15.9121 21.2259 16.7687 21.5807C17.6252 21.9355 18.5677 22.0283 19.477 21.8474C20.3863 21.6666 21.2215 21.2201 21.8771 20.5646C22.5326 19.909 22.9791 19.0738 23.1599 18.1645C23.3408 17.2552 23.248 16.3127 22.8932 15.4562C22.5384 14.5996 21.9376 13.8676 21.1667 13.3525C20.3959 12.8374 19.4896 12.5625 18.5625 12.5625C17.3197 12.5639 16.1283 13.0582 15.2495 13.937C14.3707 14.8158 13.8764 16.0072 13.875 17.25ZM18.5625 14.0625C19.1929 14.0625 19.8092 14.2494 20.3334 14.5997C20.8576 14.9499 21.2661 15.4478 21.5074 16.0302C21.7486 16.6126 21.8117 17.2535 21.6888 17.8719C21.5658 18.4902 21.2622 19.0581 20.8164 19.5039C20.3706 19.9497 19.8027 20.2533 19.1844 20.3763C18.566 20.4992 17.9251 20.4361 17.3427 20.1949C16.7603 19.9536 16.2624 19.5451 15.9122 19.0209C15.5619 18.4967 15.375 17.8804 15.375 17.25C15.376 16.4049 15.7121 15.5947 16.3097 14.9972C16.9072 14.3996 17.7174 14.0635 18.5625 14.0625Z" fill="black"/>
<path d="M14.9021 6.00825C15.7846 6.00825 16.5 5.29286 16.5 4.41037C16.5 3.52789 15.7846 2.8125 14.9021 2.8125C14.0197 2.8125 13.3043 3.52789 13.3043 4.41037C13.3043 5.29286 14.0197 6.00825 14.9021 6.00825Z" fill="black"/>
<path d="M8.95098 12.4829L11.25 14.7512V18.9376H12.75V14.5944C12.7496 14.4454 12.7198 14.298 12.6624 14.1606C12.6049 14.0232 12.5209 13.8985 12.4151 13.7936L10.0117 11.4222L13.1267 8.30726L15.8531 11.0987C15.9582 11.2057 16.0834 11.2907 16.2215 11.3489C16.3597 11.4071 16.508 11.4372 16.6579 11.4376H18V9.93758H16.8159L12.4805 5.49908L12.4583 5.52083L12.0645 5.12708L6.81451 10.3771L8.9358 12.4984L8.95098 12.4829Z" fill="black"/>
</svg>
