<svg width="24" height="24" viewBox="0 0 24 24" fill="none" xmlns="http://www.w3.org/2000/svg">
<path d="M4.09552 7.54784C4.7572 7.54784 5.40402 7.35163 5.95419 6.98402C6.50436 6.61641 6.93316 6.09391 7.18637 5.48259C7.43959 4.87128 7.50584 4.1986 7.37675 3.54963C7.24765 2.90067 6.92902 2.30455 6.46114 1.83668C5.99325 1.3688 5.39713 1.05017 4.74816 0.92109C4.0992 0.792008 3.42652 0.858267 2.81521 1.11149C2.2039 1.36471 1.6814 1.79352 1.3138 2.34369C0.946194 2.89387 0.749991 3.54069 0.75 4.20238C0.750993 5.08935 1.10379 5.93972 1.73098 6.5669C2.35817 7.19408 3.20854 7.54686 4.09552 7.54784ZM4.09552 2.35686C4.46052 2.35686 4.81734 2.4651 5.12083 2.66789C5.42432 2.87067 5.66087 3.1589 5.80055 3.49613C5.94023 3.83335 5.97678 4.20442 5.90557 4.56242C5.83436 4.92041 5.65859 5.24925 5.40049 5.50735C5.14239 5.76545 4.81355 5.94122 4.45556 6.01243C4.09756 6.08364 3.72649 6.04709 3.38927 5.90741C3.05204 5.76773 2.76381 5.53118 2.56103 5.22769C2.35824 4.9242 2.25 4.56738 2.25 4.20238C2.25055 3.71308 2.44516 3.24398 2.79114 2.898C3.13713 2.55202 3.60622 2.35741 4.09552 2.35686Z" fill="black"/>
<path d="M12.8583 7.73308C13.4096 7.73308 13.9486 7.56959 14.407 7.26329C14.8654 6.95698 15.2227 6.52162 15.4337 6.01226C15.6446 5.5029 15.6998 4.94241 15.5923 4.40168C15.4847 3.86094 15.2192 3.36425 14.8294 2.9744C14.4395 2.58456 13.9428 2.31907 13.4021 2.21152C12.8614 2.10396 12.3009 2.15917 11.7915 2.37016C11.2822 2.58115 10.8468 2.93845 10.5405 3.39687C10.2342 3.85529 10.0707 4.39424 10.0707 4.94557C10.0716 5.68461 10.3655 6.39315 10.8881 6.91573C11.4107 7.43831 12.1192 7.73226 12.8583 7.73308ZM12.8583 3.65801C13.113 3.65801 13.3619 3.73352 13.5736 3.875C13.7854 4.01648 13.9504 4.21757 14.0478 4.45284C14.1453 4.68811 14.1708 4.94699 14.1211 5.19676C14.0714 5.44652 13.9488 5.67594 13.7687 5.85601C13.5887 6.03608 13.3592 6.15871 13.1095 6.20839C12.8597 6.25807 12.6008 6.23257 12.3656 6.13512C12.1303 6.03766 11.9292 5.87263 11.7877 5.6609C11.6463 5.44916 11.5707 5.20022 11.5707 4.94557C11.5711 4.60421 11.7069 4.27694 11.9483 4.03556C12.1897 3.79418 12.5169 3.6584 12.8583 3.65801Z" fill="black"/>
<path d="M20.4148 6.79788C21.182 6.79788 21.804 6.1759 21.804 5.40865C21.804 4.64139 21.182 4.01941 20.4148 4.01941C19.6475 4.01941 19.0255 4.64139 19.0255 5.40865C19.0255 6.1759 19.6475 6.79788 20.4148 6.79788Z" fill="black"/>
<path d="M4.09552 15.3989C4.7572 15.3989 5.40402 15.2027 5.95419 14.8351C6.50436 14.4675 6.93316 13.945 7.18637 13.3337C7.43959 12.7223 7.50584 12.0497 7.37675 11.4007C7.24765 10.7517 6.92902 10.1556 6.46114 9.68775C5.99325 9.21987 5.39713 8.90125 4.74816 8.77216C4.0992 8.64308 3.42652 8.70934 2.81521 8.96256C2.2039 9.21578 1.6814 9.64459 1.3138 10.1948C0.946194 10.7449 0.749991 11.3918 0.75 12.0534C0.750993 12.9404 1.10379 13.7908 1.73098 14.418C2.35817 15.0452 3.20854 15.3979 4.09552 15.3989ZM4.09552 10.2079C4.46052 10.2079 4.81734 10.3162 5.12083 10.519C5.42432 10.7217 5.66087 11.01 5.80055 11.3472C5.94023 11.6844 5.97678 12.0555 5.90557 12.4135C5.83436 12.7715 5.65859 13.1003 5.40049 13.3584C5.14239 13.6165 4.81355 13.7923 4.45556 13.8635C4.09756 13.9347 3.72649 13.8982 3.38927 13.7585C3.05204 13.6188 2.76381 13.3823 2.56103 13.0788C2.35824 12.7753 2.25 12.4185 2.25 12.0534C2.25055 11.5642 2.44516 11.0951 2.79114 10.7491C3.13713 10.4031 3.60622 10.2085 4.09552 10.2079Z" fill="black"/>
<path d="M12.8583 14.8411C13.4096 14.8411 13.9486 14.6776 14.407 14.3713C14.8654 14.065 15.2227 13.6297 15.4337 13.1203C15.6446 12.6109 15.6998 12.0504 15.5923 11.5097C15.4847 10.969 15.2192 10.4723 14.8294 10.0824C14.4395 9.69259 13.9428 9.4271 13.4021 9.31955C12.8614 9.212 12.3009 9.26721 11.7915 9.4782C11.2822 9.68919 10.8468 10.0465 10.5405 10.5049C10.2342 10.9633 10.0707 11.5023 10.0707 12.0536C10.0716 12.7926 10.3655 13.5012 10.8881 14.0238C11.4107 14.5463 12.1192 14.8403 12.8583 14.8411ZM12.8583 10.766C13.113 10.766 13.3619 10.8416 13.5736 10.983C13.7854 11.1245 13.9504 11.3256 14.0478 11.5609C14.1453 11.7961 14.1708 12.055 14.1211 12.3048C14.0714 12.5546 13.9488 12.784 13.7687 12.964C13.5887 13.1441 13.3592 13.2667 13.1095 13.3164C12.8597 13.3661 12.6008 13.3406 12.3656 13.2431C12.1303 13.1457 11.9292 12.9807 11.7877 12.7689C11.6463 12.5572 11.5707 12.3083 11.5707 12.0536C11.5711 11.7122 11.7069 11.385 11.9483 11.1436C12.1897 10.9022 12.5169 10.7664 12.8583 10.766Z" fill="black"/>
<path d="M20.4148 13.4428C21.182 13.4428 21.804 12.8208 21.804 12.0535C21.804 11.2863 21.182 10.6643 20.4148 10.6643C19.6475 10.6643 19.0255 11.2863 19.0255 12.0535C19.0255 12.8208 19.6475 13.4428 20.4148 13.4428Z" fill="black"/>
<path d="M4.09552 23.2499C4.7572 23.2499 5.40402 23.0537 5.95418 22.686C6.50435 22.3184 6.93315 21.7959 7.18637 21.1846C7.43958 20.5733 7.50584 19.9006 7.37675 19.2517C7.24766 18.6027 6.92903 18.0066 6.46115 17.5387C5.99327 17.0708 5.39716 16.7522 4.74819 16.6231C4.09923 16.494 3.42656 16.5603 2.81524 16.8135C2.20393 17.0667 1.68143 17.4955 1.31382 18.0457C0.946211 18.5959 0.75 19.2427 0.75 19.9044C0.750993 20.7913 1.10378 21.6417 1.73098 22.2689C2.35817 22.8961 3.20853 23.2489 4.09552 23.2499ZM4.09552 18.0588C4.46052 18.0588 4.81734 18.1671 5.12083 18.3699C5.42432 18.5727 5.66087 18.8609 5.80055 19.1981C5.94023 19.5353 5.97678 19.9064 5.90557 20.2644C5.83436 20.6224 5.65859 20.9512 5.40049 21.2093C5.14239 21.4674 4.81355 21.6432 4.45556 21.7144C4.09756 21.7856 3.72649 21.7491 3.38927 21.6094C3.05204 21.4697 2.76381 21.2332 2.56103 20.9297C2.35824 20.6262 2.25 20.2694 2.25 19.9044C2.25055 19.4151 2.44516 18.946 2.79114 18.6C3.13713 18.254 3.60622 18.0594 4.09552 18.0588Z" fill="black"/>
<path d="M12.8583 21.9489C13.4096 21.9489 13.9486 21.7854 14.407 21.4791C14.8654 21.1728 15.2227 20.7375 15.4337 20.2281C15.6447 19.7187 15.6999 19.1582 15.5923 18.6175C15.4847 18.0768 15.2193 17.5801 14.8294 17.1902C14.4396 16.8004 13.9429 16.5349 13.4021 16.4273C12.8614 16.3198 12.3009 16.375 11.7915 16.586C11.2822 16.797 10.8468 17.1542 10.5405 17.6127C10.2342 18.0711 10.0707 18.61 10.0707 19.1613C10.0716 19.9004 10.3655 20.6089 10.8881 21.1315C11.4107 21.6541 12.1192 21.9481 12.8583 21.9489ZM12.8583 17.8738C13.113 17.8738 13.3619 17.9493 13.5736 18.0908C13.7854 18.2323 13.9504 18.4334 14.0479 18.6687C14.1453 18.9039 14.1708 19.1628 14.1211 19.4126C14.0714 19.6624 13.9488 19.8918 13.7687 20.0718C13.5887 20.2519 13.3592 20.3745 13.1095 20.4242C12.8597 20.4739 12.6008 20.4484 12.3655 20.3509C12.1303 20.2535 11.9292 20.0884 11.7877 19.8767C11.6462 19.6649 11.5707 19.416 11.5707 19.1613C11.5711 18.82 11.7069 18.4927 11.9483 18.2514C12.1897 18.01 12.5169 17.8742 12.8583 17.8738Z" fill="black"/>
<path d="M20.4148 20.0874C21.182 20.0874 21.804 19.4654 21.804 18.6982C21.804 17.9309 21.182 17.309 20.4148 17.309C19.6475 17.309 19.0255 17.9309 19.0255 18.6982C19.0255 19.4654 19.6475 20.0874 20.4148 20.0874Z" fill="black"/>
</svg>
