<svg width="24" height="24" viewBox="0 0 24 24" fill="none" xmlns="http://www.w3.org/2000/svg">
<path d="M9 4.875V18.375H13.5C13.8977 18.3746 14.279 18.2164 14.5602 17.9352C14.8414 17.654 14.9996 17.2727 15 16.875V6.375C14.9996 5.97731 14.8414 5.59604 14.5602 5.31483C14.279 5.03363 13.8977 4.87545 13.5 4.875H9ZM13.5 16.875H10.5V6.375H13.5V16.875Z" fill="black"/>
<path d="M7.5 18.375V4.875H6V10.875H3V4.875H1.5V18.375H3V12.375H6V18.375H7.5Z" fill="black"/>
<path d="M22.5 10.875V6.375C22.4996 5.97731 22.3414 5.59604 22.0602 5.31483C21.779 5.03363 21.3977 4.87545 21 4.875H16.5V18.375H18V12.375H19.3672L20.625 15.5194V18.375H22.125V15.2306L20.9827 12.375H21C21.3977 12.3746 21.779 12.2164 22.0602 11.9352C22.3414 11.654 22.4996 11.2727 22.5 10.875ZM18 10.875V6.375H21V10.875H18Z" fill="black"/>
</svg>
