<svg width="24" height="24" viewBox="0 0 24 24" fill="none" xmlns="http://www.w3.org/2000/svg">
<path d="M8.25 11.25H6.75V12.75H8.25V11.25Z" fill="black"/>
<path d="M12.75 11.25H11.25V12.75H12.75V11.25Z" fill="black"/>
<path d="M17.25 11.25H15.75V12.75H17.25V11.25Z" fill="black"/>
<path d="M21.75 1.5H2.25C1.85231 1.50045 1.47104 1.65863 1.18983 1.93983C0.908625 2.22104 0.750447 2.60231 0.75 3V16.5C0.750447 16.8977 0.908625 17.279 1.18983 17.5602C1.47104 17.8414 1.85231 17.9996 2.25 18H5.25V23.25H6.68564L11.9356 18H21.75C22.1477 17.9996 22.529 17.8414 22.8102 17.5602C23.0914 17.279 23.2496 16.8977 23.25 16.5V3C23.2496 2.60231 23.0914 2.22104 22.8102 1.93983C22.529 1.65863 22.1477 1.50045 21.75 1.5ZM21.75 16.5H11.3144L6.75 21.0644V16.5H2.25V3H21.75V16.5Z" fill="black"/>
</svg>
