<svg width="24" height="24" viewBox="0 0 24 24" fill="none" xmlns="http://www.w3.org/2000/svg">
<path d="M23.25 6.78614V5.21414H21.411V1.96889C21.4082 1.65852 21.2823 1.36197 21.061 1.14431C20.8397 0.926644 20.5412 0.805656 20.2308 0.807892H3.76932C3.45894 0.805656 3.16035 0.926644 2.93908 1.14431C2.71781 1.36197 2.59192 1.65852 2.58905 1.96889V22.1251C2.59192 22.4355 2.71781 22.7321 2.93908 22.9497C3.16035 23.1674 3.45894 23.2884 3.76932 23.2861H20.2308C20.5412 23.2884 20.8397 23.1674 21.061 22.9497C21.2823 22.7321 21.4082 22.4355 21.411 22.1251V18.7861H23.25V17.2141H21.411V12.7861H23.25V11.2141H21.411V6.78614H23.25ZM19.839 11.2141H17.625V12.7861H19.839V17.2141H17.625V18.7861H19.839V21.7141H4.16105V2.37989H19.839V5.21414H17.625V6.78614H19.839V11.2141Z" fill="black"/>
<path d="M14.7017 14.3871L13.3543 13.5112L14.0021 11.9337V9.45534C14.0021 8.63839 13.6776 7.85489 13.0999 7.27721C12.5222 6.69954 11.7387 6.375 10.9218 6.375C10.1048 6.375 9.3213 6.69954 8.74363 7.27721C8.16595 7.85489 7.84141 8.63839 7.84141 9.45534V11.919L8.43771 13.5448L7.1418 14.3871C6.81952 14.5957 6.5547 14.8818 6.37159 15.2193C6.18847 15.5567 6.0929 15.9346 6.09363 16.3185V18.75H15.7499V16.3185C15.7506 15.9346 15.655 15.5567 15.4719 15.2193C15.2888 14.8818 15.024 14.5957 14.7017 14.3871ZM14.2499 17.25H7.59363V16.3185C7.59338 16.1846 7.62672 16.0528 7.69059 15.9351C7.75447 15.8174 7.84684 15.7176 7.95926 15.6448L10.2577 14.1508L9.34141 11.6524V9.45534C9.34141 9.03621 9.50791 8.63424 9.80429 8.33787C10.1007 8.0415 10.5026 7.875 10.9218 7.875C11.3409 7.875 11.7429 8.0415 12.0392 8.33787C12.3356 8.63424 12.5021 9.03621 12.5021 9.45534V11.6377L11.4943 14.0915L13.8843 15.6448C13.9967 15.7176 14.089 15.8174 14.1529 15.9351C14.2168 16.0528 14.2501 16.1846 14.2499 16.3185V17.25Z" fill="black"/>
</svg>
