<svg width="24" height="24" viewBox="0 0 24 24" fill="none" xmlns="http://www.w3.org/2000/svg">
<path d="M19.7812 10.5967H14.625V6.09675H12.9375C13.4598 5.39944 13.7405 4.55079 13.7369 3.67954C13.7369 2.38392 13.1238 1.16653 12.1369 0.502544L11.7182 0.220825L11.2996 0.502544C10.3125 1.16662 9.69961 2.38397 9.69961 3.67954C9.69609 4.5508 9.97684 5.39943 10.4992 6.0967H8.625V10.5967H4.21875C3.49794 10.5975 2.80689 10.8842 2.29721 11.3939C1.78752 11.9036 1.50082 12.5946 1.5 13.3155V21.7499C1.50045 22.1475 1.65863 22.5288 1.93983 22.81C2.22104 23.0912 2.60231 23.2494 3 23.2499H21C21.3977 23.2494 21.779 23.0912 22.0602 22.81C22.3414 22.5288 22.4996 22.1475 22.5 21.7499V13.3155C22.4992 12.5947 22.2125 11.9036 21.7028 11.394C21.1931 10.8843 20.5021 10.5976 19.7812 10.5967ZM11.7182 2.13464C12.0459 2.5417 12.2369 3.09398 12.2369 3.67959C12.2369 4.2652 12.0459 4.81753 11.7182 5.22454C11.3906 4.81753 11.1996 4.2652 11.1996 3.67954C11.1996 3.09389 11.3906 2.5417 11.7182 2.13464ZM10.125 7.59675H13.125V10.5967H10.125V7.59675ZM3 13.3155C3.00037 12.9924 3.1289 12.6826 3.35737 12.4541C3.58585 12.2256 3.89563 12.0971 4.21875 12.0967H19.7812C20.1044 12.0971 20.4141 12.2256 20.6426 12.4541C20.8711 12.6826 20.9996 12.9924 21 13.3155V14.7957L19.9875 15.2424C19.7895 15.3296 19.5755 15.3746 19.3592 15.3746C19.1428 15.3746 18.9288 15.3296 18.7308 15.2424L16.9688 14.4649L15.2062 15.2424C15.0082 15.3295 14.7942 15.3745 14.5779 15.3745C14.3615 15.3745 14.1476 15.3295 13.9495 15.2424L12.1875 14.4649L10.425 15.2423C10.227 15.3295 10.013 15.3745 9.79664 15.3745C9.58029 15.3745 9.3663 15.3295 9.16828 15.2423L7.40625 14.4649L5.64408 15.2423C5.44606 15.3295 5.23207 15.3745 5.01572 15.3745C4.79937 15.3745 4.58538 15.3295 4.38736 15.2423L3 14.6303V13.3155ZM21 21.7499H3V16.2698L3.78178 16.6147C4.17062 16.7858 4.5908 16.8742 5.01562 16.8742C5.44045 16.8742 5.86063 16.7858 6.24947 16.6147L7.40625 16.1044L8.56308 16.6147C8.95191 16.7858 9.37208 16.8742 9.7969 16.8742C10.2217 16.8742 10.6419 16.7858 11.0307 16.6147L12.1875 16.1044L13.3442 16.6147C13.7331 16.7858 14.1532 16.8742 14.578 16.8742C15.0028 16.8742 15.423 16.7858 15.8118 16.6147L16.9688 16.1044L18.1255 16.6148C18.5144 16.7859 18.9345 16.8742 19.3593 16.8742C19.7841 16.8742 20.2043 16.7859 20.5931 16.6148L21.0006 16.435L21.0009 21.7499H21Z" fill="black"/>
</svg>
