<svg width="24" height="24" viewBox="0 0 24 24" fill="none" xmlns="http://www.w3.org/2000/svg">
<path d="M19.2593 8.48733C19.1535 8.19835 18.9617 7.94877 18.7096 7.77222C18.4575 7.59568 18.1574 7.50067 17.8497 7.5H16.0103L15.2603 3H10.3646L11.1146 7.5H9.26034L8.51034 3H3.61462L4.36462 7.5H2.25V11.625H0.75V21H20.7997L23.25 13.2406V11.625H20.4003L19.2593 8.48733ZM13.9897 4.5L14.4897 7.5H12.6353L12.1354 4.5H13.9897ZM7.23966 4.5L7.73967 7.5H5.88534L5.38538 4.5H7.23966ZM3.75 9H17.8497L18.8042 11.625H3.75V9ZM21.7135 13.125L19.7003 19.5H2.25V13.125H21.7135Z" fill="black"/>
<path d="M5.25 15H3.75V16.5H5.25V15Z" fill="black"/>
<path d="M8.25 15H6.75V16.5H8.25V15Z" fill="black"/>
<path d="M11.25 15H9.75V16.5H11.25V15Z" fill="black"/>
<path d="M14.25 15H12.75V16.5H14.25V15Z" fill="black"/>
<path d="M17.25 15H15.75V16.5H17.25V15Z" fill="black"/>
</svg>
