<svg width="24" height="24" viewBox="0 0 24 24" fill="none" xmlns="http://www.w3.org/2000/svg">
<path d="M18.8812 4.24687C18.6953 4.15248 18.4867 4.1119 18.279 4.1297C18.0713 4.14749 17.8726 4.22297 17.7055 4.3476L8.58535 11.1031C8.44411 11.2078 8.32935 11.344 8.25027 11.501C8.17119 11.658 8.13 11.8313 8.13 12.0071C8.13 12.1829 8.17119 12.3562 8.25027 12.5132C8.32935 12.6702 8.44411 12.8065 8.58535 12.9111L17.7054 19.6667C17.8728 19.7907 18.0714 19.8658 18.279 19.8836C18.4865 19.9013 18.695 19.8611 18.8811 19.7674C19.0672 19.6737 19.2235 19.5301 19.3328 19.3527C19.4421 19.1753 19.5 18.9711 19.5 18.7627V5.25163C19.5006 5.04315 19.4431 4.83863 19.3337 4.66111C19.2244 4.48359 19.0677 4.34012 18.8812 4.24687ZM18 18.0183L9.88501 12.0072L18 5.99624V18.0183Z" fill="black"/>
<path d="M6 4.125H4.5V19.875H6V4.125Z" fill="black"/>
</svg>
