<svg width="24" height="24" viewBox="0 0 24 24" fill="none" xmlns="http://www.w3.org/2000/svg">
<path d="M3.09375 12V13.5C7.2293 13.5 10.5938 16.8645 10.5938 21H12.0938C12.0938 16.0374 8.05636 12 3.09375 12Z" fill="black"/>
<path d="M3.09375 6.56327V8.06327C10.2275 8.06327 16.0312 13.867 16.0312 21.0008H17.5312C17.5364 19.104 17.1654 17.2251 16.4395 15.4728C15.7137 13.7204 14.6475 12.1294 13.3026 10.7919C11.9651 9.44707 10.3741 8.38087 8.62174 7.65502C6.86939 6.92917 4.99047 6.5581 3.09375 6.56327Z" fill="black"/>
<path d="M21.4066 13.2632C20.409 10.9017 18.9626 8.75627 17.1475 6.94595C15.3039 5.09774 13.1133 3.63202 10.7015 2.63302C8.28968 1.63402 5.70426 1.12143 3.09375 1.12469V2.62469C13.2257 2.62469 21.4688 10.8677 21.4688 20.9997H22.9688C22.9738 18.342 22.4425 15.7107 21.4066 13.2632Z" fill="black"/>
<path d="M4.21875 16.875C3.62541 16.875 3.04539 17.0509 2.55204 17.3806C2.05869 17.7102 1.67418 18.1788 1.44711 18.727C1.22005 19.2751 1.16064 19.8783 1.2764 20.4603C1.39215 21.0422 1.67787 21.5768 2.09743 21.9963C2.51699 22.4159 3.05154 22.7016 3.63348 22.8174C4.21542 22.9331 4.81862 22.8737 5.3668 22.6466C5.91498 22.4196 6.38352 22.0351 6.71316 21.5417C7.0428 21.0484 7.21875 20.4683 7.21875 19.875C7.21786 19.0796 6.9015 18.3171 6.33908 17.7547C5.77667 17.1923 5.01413 16.8759 4.21875 16.875ZM4.21875 21.375C3.92208 21.375 3.63207 21.287 3.3854 21.1222C3.13872 20.9574 2.94646 20.7231 2.83293 20.449C2.7194 20.1749 2.6897 19.8733 2.74757 19.5824C2.80545 19.2914 2.94831 19.0241 3.15809 18.8143C3.36787 18.6046 3.63514 18.4617 3.92612 18.4038C4.21709 18.3459 4.51869 18.3756 4.79278 18.4892C5.06687 18.6027 5.30113 18.795 5.46596 19.0416C5.63078 19.2883 5.71875 19.5783 5.71875 19.875C5.7183 20.2727 5.56013 20.654 5.27892 20.9352C4.99771 21.2164 4.61644 21.3746 4.21875 21.375Z" fill="black"/>
</svg>
