<svg width="24" height="24" viewBox="0 0 24 24" fill="none" xmlns="http://www.w3.org/2000/svg">
<path d="M20.625 3H9.75C8.1587 3 6.63258 3.63214 5.50736 4.75736C4.38214 5.88258 3.75 7.4087 3.75 9C3.75 10.5913 4.38214 12.1174 5.50736 13.2426C6.63258 14.3679 8.1587 15 9.75 15H12.375V21H17.625V4.5H20.625V3ZM12.375 13.5H9.75C8.55653 13.5 7.41193 13.0259 6.56802 12.182C5.72411 11.3381 5.25 10.1935 5.25 9C5.25 7.80653 5.72411 6.66193 6.56802 5.81802C7.41193 4.97411 8.55653 4.5 9.75 4.5H12.375V13.5ZM16.125 19.5H13.875V4.5H16.125V19.5Z" fill="black"/>
</svg>
