<svg width="24" height="24" viewBox="0 0 24 24" fill="none" xmlns="http://www.w3.org/2000/svg">
<path d="M5.81257 7.79504V16.2053C4.95274 16.3904 4.19181 16.8871 3.67625 17.5997C3.1607 18.3123 2.92698 19.1904 3.02009 20.065C3.11319 20.9396 3.52654 21.7489 4.18056 22.337C4.83458 22.925 5.68303 23.2504 6.56257 23.2504C7.44211 23.2504 8.29056 22.925 8.94458 22.337C9.5986 21.7489 10.0119 20.9396 10.1051 20.065C10.1982 19.1904 9.96444 18.3123 9.44889 17.5997C8.93333 16.8871 8.1724 16.3904 7.31257 16.2053V13.2189H14.4376C15.4318 13.2178 16.385 12.8223 17.088 12.1193C17.791 11.4163 18.1864 10.4631 18.1876 9.46889V7.7491C19.0357 7.51748 19.7683 6.98032 20.2442 6.24102C20.7201 5.50171 20.9057 4.61251 20.7653 3.74456C20.6249 2.8766 20.1685 2.09125 19.4838 1.53964C18.7991 0.988033 17.9346 0.709166 17.0567 0.756713C16.1787 0.804259 15.3494 1.17486 14.7283 1.79718C14.1072 2.4195 13.7382 3.24956 13.6924 4.1276C13.6466 5.00563 13.9272 5.86959 14.4801 6.55318C15.0331 7.23676 15.8193 7.69167 16.6876 7.83033V9.46889C16.6869 10.0654 16.4496 10.6373 16.0278 11.0591C15.606 11.4809 15.0341 11.7182 14.4376 11.7189H7.31257V7.79504C8.1724 7.60987 8.93333 7.11318 9.44889 6.40058C9.96444 5.68798 10.1982 4.80986 10.1051 3.93526C10.0119 3.06066 9.5986 2.25142 8.94458 1.66333C8.29056 1.07524 7.44211 0.749878 6.56257 0.749878C5.68303 0.749878 4.83458 1.07524 4.18056 1.66333C3.52654 2.25142 3.11319 3.06066 3.02009 3.93526C2.92698 4.80986 3.1607 5.68798 3.67625 6.40058C4.19181 7.11318 4.95274 7.60987 5.81257 7.79504ZM15.1876 4.31264C15.1876 3.90472 15.3085 3.50596 15.5352 3.16678C15.7618 2.82761 16.0839 2.56325 16.4608 2.40714C16.8377 2.25104 17.2524 2.21019 17.6524 2.28978C18.0525 2.36936 18.42 2.56579 18.7085 2.85424C18.9969 3.14268 19.1934 3.51019 19.2729 3.91027C19.3525 4.31036 19.3117 4.72506 19.1556 5.10193C18.9995 5.4788 18.7351 5.80092 18.3959 6.02755C18.0568 6.25418 17.658 6.37514 17.2501 6.37514C16.7032 6.37454 16.179 6.15704 15.7923 5.77038C15.4057 5.38372 15.1882 4.85947 15.1876 4.31264ZM8.62507 19.6876C8.62507 20.0956 8.50411 20.4943 8.27748 20.8335C8.05085 21.1727 7.72873 21.437 7.35185 21.5931C6.97498 21.7493 6.56028 21.7901 6.1602 21.7105C5.76011 21.6309 5.39261 21.4345 5.10416 21.1461C4.81572 20.8576 4.61928 20.4901 4.5397 20.09C4.46012 19.6899 4.50096 19.2752 4.65707 18.8984C4.81317 18.5215 5.07753 18.1994 5.41671 17.9727C5.75588 17.7461 6.15465 17.6251 6.56257 17.6251C7.10939 17.6258 7.63364 17.8432 8.02031 18.2299C8.40697 18.6166 8.62446 19.1408 8.62507 19.6876ZM6.56257 2.25015C6.97049 2.25015 7.36926 2.37111 7.70843 2.59774C8.04761 2.82437 8.31197 3.14649 8.46807 3.52336C8.62418 3.90023 8.66502 4.31493 8.58544 4.71502C8.50586 5.1151 8.30942 5.48261 8.02098 5.77105C7.73253 6.0595 7.36503 6.25593 6.96494 6.33551C6.56486 6.4151 6.15016 6.37425 5.77328 6.21815C5.39641 6.06204 5.07429 5.79768 4.84766 5.45851C4.62103 5.11933 4.50007 4.72057 4.50007 4.31264C4.50068 3.76582 4.71817 3.24157 5.10483 2.85491C5.4915 2.46825 6.01575 2.25075 6.56257 2.25015Z" fill="black"/>
</svg>
