<svg width="24" height="24" viewBox="0 0 24 24" fill="none" xmlns="http://www.w3.org/2000/svg">
<path d="M22.125 15.375H21V12.375C20.9997 12.0767 20.881 11.7908 20.6701 11.5799C20.4592 11.369 20.1733 11.2503 19.875 11.25H12.75V8.25H14.25C14.5483 8.24965 14.8342 8.13101 15.0451 7.92011C15.256 7.70921 15.3747 7.42326 15.375 7.125V3.75C15.3747 3.45174 15.256 3.16579 15.0451 2.95489C14.8342 2.74399 14.5483 2.62535 14.25 2.625H9.75C9.45174 2.62535 9.16579 2.74399 8.95489 2.95489C8.74399 3.16579 8.62535 3.45174 8.625 3.75V7.125C8.62535 7.42326 8.74399 7.70921 8.95489 7.92011C9.16579 8.13101 9.45174 8.24965 9.75 8.25H11.25V11.25H4.125C3.82673 11.2503 3.54078 11.369 3.32987 11.5799C3.11897 11.7908 3.00033 12.0767 3 12.375V15.375H1.875C1.57674 15.3753 1.29079 15.494 1.07989 15.7049C0.868985 15.9158 0.750347 16.2017 0.75 16.5V19.875C0.750347 20.1733 0.868985 20.4592 1.07989 20.6701C1.29079 20.881 1.57674 20.9997 1.875 21H5.625C5.92326 20.9997 6.20921 20.881 6.42011 20.6701C6.63101 20.4592 6.74965 20.1733 6.75 19.875V16.5C6.74965 16.2017 6.63101 15.9158 6.42011 15.7049C6.20921 15.494 5.92326 15.3753 5.625 15.375H4.5V12.75H11.25V15.375H10.125C9.82674 15.3753 9.54079 15.494 9.32989 15.7049C9.11899 15.9158 9.00035 16.2017 9 16.5V19.875C9.00035 20.1733 9.11899 20.4592 9.32989 20.6701C9.54079 20.881 9.82674 20.9997 10.125 21H13.875C14.1733 20.9997 14.4592 20.881 14.6701 20.6701C14.881 20.4592 14.9997 20.1733 15 19.875V16.5C14.9997 16.2017 14.881 15.9158 14.6701 15.7049C14.4592 15.494 14.1733 15.3753 13.875 15.375H12.75V12.75H19.5V15.375H18.375C18.0767 15.3753 17.7908 15.494 17.5799 15.7049C17.369 15.9158 17.2503 16.2017 17.25 16.5V19.875C17.2503 20.1733 17.369 20.4592 17.5799 20.6701C17.7908 20.881 18.0767 20.9997 18.375 21H22.125C22.4233 20.9997 22.7092 20.881 22.9201 20.6701C23.131 20.4592 23.2497 20.1733 23.25 19.875V16.5C23.2497 16.2017 23.131 15.9158 22.9201 15.7049C22.7092 15.494 22.4233 15.3753 22.125 15.375ZM10.125 4.125H13.875V6.75H10.125V4.125ZM5.25 16.875V19.5H2.25V16.875H5.25ZM13.5 16.875V19.5H10.5V16.875H13.5ZM21.75 19.5H18.75V16.875H21.75V19.5Z" fill="black"/>
</svg>
