<svg width="24" height="24" viewBox="0 0 24 24" fill="none" xmlns="http://www.w3.org/2000/svg">
<path d="M22.125 20.625V19.0568V17.4886V15.9204V14.3523V12.7841V11.2159V9.64767V8.07952V6.51131V4.94316V3.375V1.875H20.625V3.375V4.94316V6.51131V8.07952V9.64767V11.2159V11.25V12.75V12.7841V14.3523V15.9204V17.4886V19.0568V20.625V22.125H22.125V20.625Z" fill="black"/>
<path d="M15.9204 20.625H14.3522V22.125H15.9204V20.625Z" fill="black"/>
<path d="M9.64773 20.625H8.07953V22.125H9.64773V20.625Z" fill="black"/>
<path d="M19.0568 20.625H17.4886V22.125H19.0568V20.625Z" fill="black"/>
<path d="M6.51132 20.625H4.94312V22.125H6.51132V20.625Z" fill="black"/>
<path d="M3.375 20.625H1.875V22.125H3.375V20.625Z" fill="black"/>
<path d="M3.375 14.3523H1.875V15.9205H3.375V14.3523Z" fill="black"/>
<path d="M3.375 17.4889H1.875V19.057H3.375V17.4889Z" fill="black"/>
<path d="M3.375 11.2159H1.875V12.7841H3.375V11.2159Z" fill="black"/>
<path d="M3.375 8.07983H1.875V9.64799H3.375V8.07983Z" fill="black"/>
<path d="M3.375 4.94312H1.875V6.51127H3.375V4.94312Z" fill="black"/>
<path d="M3.375 1.875H1.875V3.375H3.375V1.875Z" fill="black"/>
<path d="M15.9204 1.875H14.3522V3.375H15.9204V1.875Z" fill="black"/>
<path d="M9.64773 1.875H8.07953V3.375H9.64773V1.875Z" fill="black"/>
<path d="M19.0568 1.875H17.4886V3.375H19.0568V1.875Z" fill="black"/>
<path d="M12.7841 1.875H11.2159V3.375H12.7841V1.875Z" fill="black"/>
<path d="M6.51132 1.875H4.94312V3.375H6.51132V1.875Z" fill="black"/>
<path d="M12.7841 11.2159H11.2159V12.7841H12.7841V11.2159Z" fill="black"/>
<path d="M12.7841 14.3522H11.2159V15.9203H12.7841V14.3522Z" fill="black"/>
<path d="M12.7841 8.07971H11.2159V9.64787H12.7841V8.07971Z" fill="black"/>
<path d="M12.7841 4.94312H11.2159V6.51126H12.7841V4.94312Z" fill="black"/>
<path d="M12.7841 17.4888H11.2159V19.0569H12.7841V17.4888Z" fill="black"/>
<path d="M12.7841 20.625H11.2159V22.125H12.7841V20.625Z" fill="black"/>
<path d="M15.9204 11.2159H14.3522V12.7841H15.9204V11.2159Z" fill="black"/>
<path d="M19.0568 11.2159H17.4886V12.7841H19.0568V11.2159Z" fill="black"/>
<path d="M9.64773 11.2159H8.07953V12.7841H9.64773V11.2159Z" fill="black"/>
<path d="M6.51132 11.2159H4.94312V12.7841H6.51132V11.2159Z" fill="black"/>
</svg>
