<svg width="24" height="24" viewBox="0 0 24 24" fill="none" xmlns="http://www.w3.org/2000/svg">
<path d="M21.0639 4.20263L21.0318 4.18257L16.9728 2.18283L12.5917 8.02425L14.6073 10.7119C14.547 11.7255 14.1172 12.6818 13.3992 13.3998C12.6812 14.1178 11.7249 14.5476 10.7113 14.6079L8.02369 12.5923L2.18231 16.9733L4.16541 20.9984L4.18209 21.0323L4.2022 21.0644C4.30803 21.2349 4.45574 21.3755 4.63127 21.4728C4.8068 21.5701 5.00431 21.6208 5.205 21.6202H6.25238C8.27044 21.6202 10.2688 21.2227 12.1332 20.4504C13.9977 19.6782 15.6917 18.5462 17.1187 17.1192C18.5457 15.6922 19.6777 13.9981 20.4499 12.1337C21.2222 10.2692 21.6197 8.27092 21.6197 6.25285V5.20543C21.6203 5.00474 21.5696 4.80723 21.4723 4.6317C21.375 4.45617 21.2345 4.30846 21.0639 4.20263ZM20.1197 6.25285C20.1197 13.8993 13.8988 20.1202 6.25238 20.1202H5.40487L4.07803 17.4266L8.02397 14.4672L10.2209 16.1148H10.4708C11.9671 16.1131 13.4017 15.518 14.4597 14.4599C15.5178 13.4019 16.1129 11.9673 16.1146 10.471V10.2211L14.467 8.02421L17.4261 4.0785L20.1197 5.40558V6.25285Z" fill="black"/>
</svg>
