<svg width="24" height="24" viewBox="0 0 24 24" fill="none" xmlns="http://www.w3.org/2000/svg">
<path d="M7.08734 0.75V20.3235L4.65532 17.8916L3.59473 18.9522L7.83734 23.1948L12.08 18.9522L11.0194 17.8915L8.58734 20.3235V0.75H7.08734Z" fill="black"/>
<path d="M20.25 9.375H18.375V2.625H16.875V4.125H15.375V5.625H16.875V9.375H15V10.875H20.25V9.375Z" fill="black"/>
<path d="M16.65 20.25H15.75V21.75H16.65C17.6044 21.7489 18.5195 21.3693 19.1944 20.6944C19.8693 20.0195 20.2489 19.1044 20.25 18.15V15.7313C20.2492 15.0403 19.9744 14.3778 19.4858 13.8892C18.9972 13.4006 18.3347 13.1258 17.6437 13.125H17.4375C16.7465 13.1258 16.0841 13.4006 15.5955 13.8892C15.1069 14.3778 14.832 15.0403 14.8312 15.7313V15.9375C14.832 16.6285 15.1069 17.2909 15.5955 17.7795C16.0841 18.2681 16.7465 18.543 17.4375 18.5438H17.6437C18.024 18.544 18.3997 18.4606 18.7441 18.2993C18.7058 18.8288 18.4686 19.3242 18.0802 19.686C17.6918 20.0478 17.1808 20.2493 16.65 20.25ZM17.6437 17.0438H17.4375C17.1442 17.0434 16.863 16.9268 16.6556 16.7194C16.4482 16.512 16.3316 16.2308 16.3312 15.9375V15.7313C16.3316 15.438 16.4482 15.1568 16.6556 14.9494C16.863 14.742 17.1442 14.6253 17.4375 14.625H17.6437C17.937 14.6253 18.2182 14.742 18.4256 14.9494C18.633 15.1568 18.7497 15.438 18.75 15.7313V15.9375C18.7497 16.2308 18.633 16.512 18.4256 16.7194C18.2182 16.9268 17.937 17.0434 17.6437 17.0438Z" fill="black"/>
</svg>
