<svg width="24" height="24" viewBox="0 0 24 24" fill="none" xmlns="http://www.w3.org/2000/svg">
<path d="M21.3013 13.0754L15.3752 11.4293V11.0456C16.4696 10.4967 17.3468 9.59459 17.8647 8.48518C18.3827 7.37577 18.511 6.12403 18.229 4.9326C17.947 3.74117 17.2711 2.67979 16.3109 1.92026C15.3506 1.16074 14.1621 0.747528 12.9377 0.747528C11.7134 0.747528 10.5248 1.16074 9.56455 1.92026C8.60426 2.67979 7.92841 3.74117 7.64641 4.9326C7.3644 6.12403 7.49274 7.37577 8.01066 8.48518C8.52858 9.59459 9.40576 10.4967 10.5002 11.0456V14.6243H9.35561L8.4887 13.5649C7.7822 12.7015 6.76371 12.1514 5.65423 12.0341C4.54474 11.9168 3.43375 12.2417 2.5623 12.9383C2.4139 12.9951 2.28157 13.0872 2.17676 13.2066C2.07195 13.326 1.99782 13.4692 1.96077 13.6237C1.92372 13.7782 1.92487 13.9394 1.96413 14.0933C2.00339 14.2473 2.07957 14.3894 2.18608 14.5073L10.0823 23.2493H22.1252V14.1593C22.1247 13.9136 22.0439 13.6747 21.8952 13.4791C21.7465 13.2834 21.5379 13.1417 21.3013 13.0754ZM9.0002 6.1868C8.99965 5.5195 9.1687 4.863 9.49148 4.27895C9.81426 3.69491 10.2802 3.20247 10.8455 2.8479C11.4108 2.49332 12.0569 2.28823 12.7232 2.25188C13.3896 2.21554 14.0542 2.34913 14.6547 2.64012C15.2552 2.9311 15.7719 3.36994 16.1563 3.91541C16.5407 4.46088 16.7802 5.0951 16.8522 5.7585C16.9242 6.42191 16.8265 7.09274 16.5681 7.708C16.3098 8.32326 15.8993 8.86277 15.3752 9.27586V6.1868C15.3752 5.54034 15.1184 4.92035 14.6613 4.46323C14.2042 4.00611 13.5842 3.7493 12.9377 3.7493C12.2912 3.7493 11.6713 4.00611 11.2141 4.46323C10.757 4.92035 10.5002 5.54034 10.5002 6.1868V9.27586C10.0328 8.908 9.6549 8.43886 9.39508 7.90378C9.13525 7.3687 9.00024 6.78163 9.0002 6.1868ZM20.6252 21.7493H10.7486L3.70994 13.9563C4.27565 13.5868 4.958 13.4394 5.62582 13.5424C6.29363 13.6455 6.8998 13.9917 7.3278 14.5146L8.64498 16.1243H12.0002V6.1868C12.0002 5.93816 12.099 5.69971 12.2748 5.52389C12.4506 5.34807 12.6891 5.2493 12.9377 5.2493C13.1863 5.2493 13.4248 5.34807 13.6006 5.52389C13.7764 5.69971 13.8752 5.93816 13.8752 6.1868V12.5694L20.6252 14.4443V21.7493Z" fill="black"/>
</svg>
