<svg width="24" height="24" viewBox="0 0 24 24" fill="none" xmlns="http://www.w3.org/2000/svg">
<path d="M21.1721 16.3392L19.125 12.5599V8.625C19.125 4.69627 15.9287 1.5 12 1.5C8.07125 1.5 4.87498 4.69627 4.87498 8.625V12.5599L2.8279 16.3391C2.73507 16.5105 2.68835 16.703 2.69231 16.8979C2.69628 17.0927 2.75079 17.2832 2.85052 17.4507C2.95025 17.6181 3.09177 17.7568 3.26122 17.8531C3.43066 17.9494 3.62221 18 3.81711 18H7.89261C7.88131 18.1236 7.87498 18.2484 7.87498 18.375C7.87498 19.469 8.30958 20.5182 9.08317 21.2918C9.85675 22.0654 10.906 22.5 12 22.5C13.094 22.5 14.1432 22.0654 14.9168 21.2918C15.6904 20.5182 16.125 19.469 16.125 18.375C16.125 18.2484 16.1187 18.1236 16.1074 18H20.1829C20.3777 18 20.5693 17.9493 20.7387 17.853C20.9081 17.7567 21.0496 17.6181 21.1493 17.4506C21.249 17.2832 21.3035 17.0927 21.3075 16.8979C21.3115 16.7031 21.2647 16.5105 21.1719 16.3392H21.1721ZM14.625 18.375C14.6253 18.7358 14.5513 19.0927 14.4075 19.4236C14.2637 19.7545 14.0533 20.0522 13.7893 20.2981C13.5254 20.544 13.2136 20.7329 12.8733 20.8529C12.5331 20.9729 12.1718 21.0216 11.812 20.9957C11.4521 20.9699 11.1015 20.8701 10.7819 20.7027C10.4623 20.5353 10.1807 20.3039 9.95459 20.0228C9.72847 19.7416 9.56272 19.4169 9.46769 19.0689C9.37266 18.7209 9.35039 18.357 9.40226 18H14.5977C14.6158 18.1242 14.6249 18.2495 14.625 18.375ZM4.44669 16.5L6.37498 12.9401V8.625C6.37498 7.13316 6.96762 5.70242 8.02251 4.64752C9.0774 3.59263 10.5081 3 12 3C13.4918 3 14.9226 3.59263 15.9775 4.64752C17.0324 5.70242 17.625 7.13316 17.625 8.625V12.9401L19.5533 16.5H4.44669Z" fill="black"/>
<path d="M12.75 5.25H11.25V11.625H12.75V5.25Z" fill="black"/>
<path d="M12.75 13.125H11.25V14.625H12.75V13.125Z" fill="black"/>
</svg>
