<svg width="24" height="24" viewBox="0 0 24 24" fill="none" xmlns="http://www.w3.org/2000/svg">
<path d="M21.7124 8.28762C20.7278 7.30308 19.3925 6.74997 18.0001 6.74997C16.6078 6.74997 15.2724 7.30308 14.2879 8.28762L12.0111 10.5642L9.73428 8.28738C9.00006 7.55316 8.06459 7.05315 7.04619 6.85057C6.02779 6.648 4.9722 6.75197 4.01288 7.14933C3.05357 7.54669 2.23363 8.2196 1.65676 9.08295C1.07988 9.94631 0.771973 10.9613 0.771973 11.9997C0.771973 13.038 1.07988 14.0531 1.65676 14.9164C2.23363 15.7798 3.05357 16.4527 4.01288 16.8501C4.9722 17.2474 6.02779 17.3514 7.04619 17.1488C8.06459 16.9462 9.00006 16.4462 9.73428 15.712L12.0109 13.4353L14.2876 15.712C14.7745 16.2023 15.3534 16.5916 15.9911 16.8576C16.6287 17.1237 17.3126 17.2613 18.0036 17.2625C18.6945 17.2636 19.3789 17.1284 20.0175 16.8646C20.6561 16.6007 21.2363 16.2134 21.7249 15.7249C22.2135 15.2363 22.6008 14.6561 22.8647 14.0175C23.1286 13.379 23.2638 12.6946 23.2626 12.0037C23.2615 11.3127 23.124 10.6288 22.8579 9.99111C22.5919 9.35343 22.2026 8.77454 21.7124 8.28762ZM8.67364 14.6516C8.14919 15.176 7.481 15.5331 6.75358 15.6778C6.02615 15.8225 5.27215 15.7483 4.58694 15.4644C3.90172 15.1806 3.31605 14.6999 2.904 14.0833C2.49194 13.4666 2.27201 12.7416 2.27201 11.9999C2.27201 11.2582 2.49194 10.5332 2.904 9.9165C3.31605 9.29982 3.90172 8.81917 4.58694 8.53534C5.27215 8.25151 6.02615 8.17725 6.75358 8.32194C7.481 8.46662 8.14919 8.82377 8.67364 9.34821L11.2611 11.9357V12.0644L8.67364 14.6516ZM20.6515 14.6516C19.9483 15.3548 18.9944 15.7499 17.9999 15.7499C17.0053 15.7499 16.0515 15.3548 15.3483 14.6516L12.7608 12.0641V11.9354L15.3483 9.34793C15.6965 8.99972 16.1099 8.7235 16.5649 8.53506C17.0199 8.34661 17.5076 8.24963 18 8.24965C18.4925 8.24966 18.9801 8.34668 19.4351 8.53516C19.8901 8.72363 20.3035 8.99988 20.6517 9.34812C20.9999 9.69636 21.2761 10.1098 21.4646 10.5648C21.653 11.0198 21.75 11.5074 21.75 11.9999C21.75 12.4923 21.653 12.98 21.4645 13.435C21.276 13.8899 20.9998 14.3033 20.6515 14.6516Z" fill="black"/>
</svg>
