<svg width="24" height="24" viewBox="0 0 24 24" fill="none" xmlns="http://www.w3.org/2000/svg">
<path d="M0.75 3V21.375H23.25V3H0.75ZM21.75 19.875H2.25V4.5H21.75V19.875Z" fill="black"/>
<path d="M8.25 6.375H4.125V7.875H8.25V6.375Z" fill="black"/>
<path d="M8.25 9.75H4.125V11.25H8.25V9.75Z" fill="black"/>
<path d="M8.25 13.125H4.125V14.625H8.25V13.125Z" fill="black"/>
<path d="M8.25 16.5H4.125V18H8.25V16.5Z" fill="black"/>
<path d="M19.875 6.375H13.5V7.875H19.875V6.375Z" fill="black"/>
<path d="M19.875 9.75H13.5V11.25H19.875V9.75Z" fill="black"/>
<path d="M19.875 13.125H13.5V14.625H19.875V13.125Z" fill="black"/>
<path d="M19.875 16.5H13.5V18H19.875V16.5Z" fill="black"/>
<path d="M11.625 6.375H10.125V7.875H11.625V6.375Z" fill="black"/>
<path d="M11.625 9.75H10.125V11.25H11.625V9.75Z" fill="black"/>
<path d="M11.625 13.125H10.125V14.625H11.625V13.125Z" fill="black"/>
<path d="M11.625 16.5H10.125V18H11.625V16.5Z" fill="black"/>
</svg>
