<svg width="24" height="24" viewBox="0 0 24 24" fill="none" xmlns="http://www.w3.org/2000/svg">
<g clip-path="url(#clip0_201_56485)">
<path d="M22.125 0.75H1.875C1.57674 0.750347 1.29079 0.868985 1.07989 1.07989C0.868985 1.29079 0.750347 1.57674 0.75 1.875V17.625C0.750347 17.9233 0.868985 18.2092 1.07989 18.4201C1.29079 18.631 1.57674 18.7497 1.875 18.75H11.25V21.75H7.5V23.25H16.5V21.75H12.75V18.75H22.125C22.4233 18.7497 22.7092 18.631 22.9201 18.4201C23.131 18.2092 23.2497 17.9233 23.25 17.625V1.875C23.2497 1.57674 23.131 1.29079 22.9201 1.07989C22.7092 0.868985 22.4233 0.750347 22.125 0.75ZM21.75 17.25H2.25V12.75H21.75V17.25ZM21.75 11.25H2.25V2.25H21.75V11.25Z" fill="black"/>
<path d="M20.25 14.25H18.75V15.75H20.25V14.25Z" fill="black"/>
</g>
<defs>
<clipPath id="clip0_201_56485">
<rect width="24" height="24" fill="white"/>
</clipPath>
</defs>
</svg>
