<svg width="24" height="24" viewBox="0 0 24 24" fill="none" xmlns="http://www.w3.org/2000/svg">
<path d="M21.2069 9.98669C20.7096 8.71206 19.9173 7.72469 18.9138 7.12366C18.6823 7.56861 18.4062 7.98886 18.0896 8.37789C18.0914 8.37892 18.0932 8.37981 18.095 8.38084C19.5894 9.23974 20.4586 11.4347 20.2086 13.7185C19.7946 17.5023 18.6453 20.0956 16.9726 21.0205C15.8851 21.6218 14.5288 21.5361 12.9413 20.7663L12.7862 20.6912H11.643L11.488 20.7663C9.90048 21.5362 8.54424 21.6218 7.45674 21.0205C5.78401 20.0956 4.63487 17.5023 4.22068 13.7185C3.97074 11.4347 4.83995 9.23969 6.33432 8.38084C6.81569 8.10591 7.36156 7.96405 7.91588 7.96985C9.04759 7.96985 10.3518 8.50005 11.769 9.54747L11.8195 9.58497C11.8195 9.58497 13.8625 9.33658 14.6718 8.96913C17.1103 7.86208 17.6484 6.10244 17.7438 5.86347C18.0251 5.16535 18.1657 4.41852 18.1575 3.66591C18.1493 2.91329 17.9924 2.16971 17.696 1.47789L17.5051 1.00122L16.9918 1.00638C16.1802 1.01527 15.3797 1.19574 14.6427 1.53593C13.9058 1.87612 13.2492 2.36834 12.7159 2.98027C12.1827 3.59221 11.7849 4.31001 11.5488 5.08655C11.3126 5.86309 11.2433 6.6808 11.3455 7.486C10.4596 6.98959 9.59813 6.67305 8.77285 6.54194C7.60365 6.35608 6.53171 6.53725 5.58685 7.08035C4.54913 7.67678 3.73149 8.68178 3.22239 9.9866C2.75954 11.1729 2.58451 12.5561 2.72954 13.8816C3.20495 18.226 4.58856 21.1485 6.73084 22.3332C7.43474 22.7237 8.22743 22.9262 9.0324 22.9211C9.95045 22.9211 10.9369 22.6777 11.9844 22.1911H12.4451C14.4324 23.1142 16.1991 23.1622 17.6985 22.3332C19.8407 21.1486 21.2244 18.2261 21.6999 13.8816C21.8448 12.5562 21.6698 11.173 21.2069 9.98669ZM15.3759 2.85128C15.7303 2.69869 16.104 2.59517 16.4865 2.5436C16.6564 3.13118 16.6977 3.74848 16.6075 4.35345C16.5173 4.95843 16.2978 5.53686 15.9639 6.04935C15.63 6.56184 15.1896 6.99634 14.6727 7.32326C14.1557 7.65019 13.5744 7.86185 12.9682 7.94383C12.6805 6.94739 12.7663 5.88019 13.2096 4.94254C13.6529 4.0049 14.4232 3.26129 15.3759 2.85128Z" fill="black"/>
</svg>
