<svg width="24" height="24" viewBox="0 0 24 24" fill="none" xmlns="http://www.w3.org/2000/svg">
<g clip-path="url(#clip0_201_56719)">
<path d="M11.3867 0.75732H9.40107V4.88232H7.12496C5.89838 4.88363 4.69812 5.23807 3.6676 5.90328C2.63707 6.5685 1.81987 7.51635 1.31363 8.63359C0.940754 9.38031 0.747721 10.2039 0.749958 11.0386V23.2573H3.1943L5.51958 14.925C5.7557 14.0868 6.25868 13.3485 6.95226 12.822C7.64585 12.2954 8.49221 12.0094 9.363 12.0073H9.40107V16.1323H11.3595L19.0606 8.43123L11.3867 0.75732ZM10.9011 14.4695V10.5073H9.363C8.16486 10.5102 7.00034 10.9037 6.04602 11.6282C5.09171 12.3526 4.39965 13.3685 4.0748 14.5218L2.24996 21.0609V11.0386C2.24818 10.4319 2.38926 9.83329 2.66175 9.29124L2.67544 9.26246C3.06132 8.40513 3.68638 7.67736 4.47564 7.16648C5.26489 6.65561 6.18479 6.38333 7.12496 6.38232H10.9011V2.39298L16.9393 8.43123L10.9011 14.4695Z" fill="black"/>
<path d="M15.5117 0.726254H13.4769L21.1819 8.43128L13.5119 16.1013H15.4845L23.1856 8.40016L15.5117 0.726254Z" fill="black"/>
</g>
<defs>
<clipPath id="clip0_201_56719">
<rect width="24" height="24" fill="white"/>
</clipPath>
</defs>
</svg>
