<svg width="24" height="24" viewBox="0 0 24 24" fill="none" xmlns="http://www.w3.org/2000/svg">
<path d="M23.25 19.5H12V21H23.25V19.5Z" fill="black"/>
<path d="M23.25 14.5H12V16H23.25V14.5Z" fill="black"/>
<path d="M23.25 9.5H12V11H23.25V9.5Z" fill="black"/>
<path d="M23.25 4.5H15.375V6H23.25V4.5Z" fill="black"/>
<path d="M14.1562 5.20332L7.8375 1.27594V4.50019H7.55789C5.70858 4.50019 3.98016 5.37933 2.69063 6.97566C1.43906 8.52516 0.75 10.5759 0.75 12.7502C0.75 14.9244 1.43906 16.9752 2.69063 18.5247C3.98016 20.121 5.70858 21.0002 7.5577 21.0002H10.125V19.5002H7.5577C4.63125 19.5002 2.25 16.4721 2.25 12.7502C2.25 9.02832 4.63125 6.00019 7.5577 6.00019H7.8375V9.24525L14.1562 5.20332ZM9.3375 3.97444L11.3438 5.22164L9.3375 6.50513V3.97444Z" fill="black"/>
</svg>
