<svg width="24" height="24" viewBox="0 0 24 24" fill="none" xmlns="http://www.w3.org/2000/svg">
<g clip-path="url(#clip0_201_56223)">
<path d="M13.6371 4.49988H12V6.13694H13.6371V4.49988Z" fill="black"/>
<path d="M0.75 23.25H23.25V0.75H0.75V23.25ZM2.25 2.25H21.75V21.75H2.25V2.25Z" fill="black"/>
<path d="M13.3741 16.8291C13.2994 16.9568 13.1926 17.0627 13.0643 17.1364C12.9361 17.2102 12.7908 17.2491 12.6428 17.2494C12.5113 17.2494 12.3815 17.2188 12.2638 17.1598C12.1461 17.1009 12.0438 17.0154 11.965 16.91C11.8862 16.8047 11.833 16.6824 11.8096 16.5529C11.7863 16.4234 11.7935 16.2902 11.8306 16.1639L13.5027 10.4791C13.6709 9.90837 13.6138 9.29488 13.3431 8.76502C13.0724 8.23515 12.6089 7.82928 12.0479 7.63103C11.4869 7.43278 10.8712 7.45725 10.3278 7.6994C9.78427 7.94154 9.35436 8.38292 9.12661 8.93259L8.57733 10.2561L9.96282 10.831L10.5121 9.50752C10.5927 9.31235 10.7451 9.15556 10.9379 9.06951C11.1307 8.98346 11.3492 8.97471 11.5483 9.04508C11.7473 9.11545 11.9118 9.25955 12.0077 9.44766C12.1036 9.63576 12.1236 9.85351 12.0637 10.056L10.3916 15.7408C10.2887 16.0907 10.2688 16.4598 10.3334 16.8187C10.398 17.1777 10.5455 17.5166 10.764 17.8087C10.9824 18.1007 11.266 18.3378 11.5921 18.5011C11.9182 18.6644 12.2779 18.7495 12.6427 18.7495C13.0528 18.7487 13.4556 18.6408 13.8112 18.4365C14.1668 18.2322 14.4628 17.9385 14.67 17.5845L15.3778 16.3699L14.0819 15.6145L13.3741 16.8291Z" fill="black"/>
</g>
<defs>
<clipPath id="clip0_201_56223">
<rect width="24" height="24" fill="white"/>
</clipPath>
</defs>
</svg>
