<svg width="24" height="24" viewBox="0 0 24 24" fill="none" xmlns="http://www.w3.org/2000/svg">
<path d="M12.94 6.72483L9.21513 3L4.10477 8.11036L4.10285 8.10844L0.908367 11.3029L0.706804 11.5057L0.374695 11.8339L3.57237 15.0315L4.10402 15.5593L9.21513 20.6703L12.94 16.9453L7.8296 11.8352L12.94 6.72483ZM9.21513 18.549L4.63512 13.969L4.10285 13.4406L2.50057 11.8383L2.50249 11.8364L2.49935 11.8332L4.10285 10.2298L4.10477 10.2317L9.21513 5.12133L10.8186 6.72483L5.70827 11.8352L10.8186 16.9453L9.21513 18.549Z" fill="black"/>
<path d="M23.3092 6.72483L19.5844 3L14.4709 8.1135L14.469 8.11158L11.2777 11.3029L10.7531 11.8315L10.7476 11.8371L13.942 15.0315L14.4711 15.5565L19.5844 20.6703L23.3092 16.9453L18.1989 11.8352L23.3092 6.72483ZM21.1879 16.9453L19.5844 18.549L15.0044 13.969L14.4756 13.444L12.8666 11.835L14.4752 10.2265L14.4772 10.2284L19.5844 5.12133L21.1878 6.72483L16.0775 11.8352L21.1879 16.9453Z" fill="black"/>
</svg>
