<svg width="24" height="24" viewBox="0 0 24 24" fill="none" xmlns="http://www.w3.org/2000/svg">
<g clip-path="url(#clip0_201_56868)">
<path d="M22.3125 0.75H1.6875C1.43895 0.750285 1.20066 0.849149 1.0249 1.0249C0.849149 1.20066 0.750285 1.43895 0.75 1.6875V22.3125C0.750285 22.5611 0.849149 22.7993 1.0249 22.9751C1.20066 23.1509 1.43895 23.2497 1.6875 23.25H22.3125C22.5611 23.2497 22.7993 23.1509 22.9751 22.9751C23.1509 22.7993 23.2497 22.5611 23.25 22.3125V1.6875C23.2497 1.43895 23.1509 1.20066 22.9751 1.0249C22.7993 0.849149 22.5611 0.750285 22.3125 0.75ZM21.75 21.75H2.25V2.25H21.75V21.75Z" fill="black"/>
</g>
<defs>
<clipPath id="clip0_201_56868">
<rect width="24" height="24" fill="white"/>
</clipPath>
</defs>
</svg>
