<svg width="24" height="24" viewBox="0 0 24 24" fill="none" xmlns="http://www.w3.org/2000/svg">
<path d="M18.2369 5.92068C16.9969 3.81981 15.2366 2.07384 13.1256 0.851145L12.75 0.633926L12.3745 0.851145C10.2276 2.09015 8.44488 3.87274 7.20573 6.01956C5.96658 8.16638 5.31469 10.6017 5.31567 13.0805C5.31567 13.2419 5.31849 13.406 5.32397 13.568C5.3986 15.7643 6.23855 17.6125 7.75303 18.9126C8.91197 19.9075 10.3986 20.5148 12.0002 20.6597V23.2504H13.5002V11.2504H12V19.1501C9.4658 18.8565 6.9435 17.0663 6.82299 13.517C6.81802 13.3719 6.81549 13.225 6.81549 13.0805C6.81995 10.9401 7.36657 8.8358 8.40433 6.96388C9.4421 5.09195 10.9372 3.51344 12.75 2.37566C14.5629 3.51347 16.0579 5.09199 17.0957 6.96391C18.1334 8.83583 18.68 10.9401 18.6844 13.0805C18.6844 13.225 18.6819 13.3719 18.6769 13.517C18.5806 16.3564 16.9469 18.0698 14.9999 18.7921V20.3796C16.0102 20.0933 16.9472 19.5929 17.7471 18.9125C19.2615 17.6124 20.1015 15.7642 20.1761 13.5679C20.1816 13.4059 20.1844 13.2419 20.1844 13.0804C20.1858 10.5628 19.5133 8.09072 18.2369 5.92068Z" fill="black"/>
</svg>
