<svg width="24" height="24" viewBox="0 0 24 24" fill="none" xmlns="http://www.w3.org/2000/svg">
<path d="M4.12497 1.5C3.53163 1.5 2.95161 1.67595 2.45826 2.00559C1.96491 2.33524 1.5804 2.80377 1.35333 3.35195C1.12627 3.90013 1.06686 4.50333 1.18261 5.08527C1.29837 5.66721 1.58409 6.20176 2.00365 6.62132C2.42321 7.04088 2.95776 7.3266 3.5397 7.44236C4.12164 7.55811 4.72484 7.4987 5.27302 7.27164C5.8212 7.04458 6.28974 6.66006 6.61938 6.16671C6.94902 5.67336 7.12497 5.09334 7.12497 4.5C7.12408 3.70462 6.80772 2.94208 6.2453 2.37967C5.68289 1.81725 4.92035 1.50089 4.12497 1.5ZM4.12497 6C3.8283 6 3.53829 5.91203 3.29162 5.7472C3.04494 5.58238 2.85268 5.34811 2.73915 5.07403C2.62562 4.79994 2.59592 4.49834 2.65379 4.20736C2.71167 3.91639 2.85453 3.64912 3.06431 3.43934C3.27409 3.22956 3.54136 3.0867 3.83234 3.02882C4.12331 2.97094 4.42491 3.00065 4.699 3.11418C4.97309 3.22771 5.20735 3.41997 5.37218 3.66664C5.537 3.91332 5.62497 4.20333 5.62497 4.5C5.62452 4.89769 5.46635 5.27896 5.18514 5.56017C4.90393 5.84137 4.52266 5.99955 4.12497 6Z" fill="black"/>
<path d="M12 1.5C11.4066 1.5 10.8266 1.67595 10.3333 2.00559C9.83991 2.33524 9.4554 2.80377 9.22833 3.35195C9.00127 3.90013 8.94186 4.50333 9.05761 5.08527C9.17337 5.66721 9.45909 6.20176 9.87865 6.62132C10.2982 7.04088 10.8328 7.3266 11.4147 7.44236C11.9966 7.55811 12.5998 7.4987 13.148 7.27164C13.6962 7.04458 14.1647 6.66006 14.4944 6.16671C14.824 5.67336 15 5.09334 15 4.5C14.9991 3.70462 14.6827 2.94208 14.1203 2.37967C13.5579 1.81725 12.7953 1.50089 12 1.5ZM12 6C11.7033 6 11.4133 5.91203 11.1666 5.7472C10.9199 5.58238 10.7277 5.34811 10.6142 5.07403C10.5006 4.79994 10.4709 4.49834 10.5288 4.20736C10.5867 3.91639 10.7295 3.64912 10.9393 3.43934C11.1491 3.22956 11.4164 3.0867 11.7073 3.02882C11.9983 2.97094 12.2999 3.00065 12.574 3.11418C12.8481 3.22771 13.0824 3.41997 13.2472 3.66664C13.412 3.91332 13.5 4.20333 13.5 4.5C13.4995 4.89769 13.3413 5.27896 13.0601 5.56017C12.7789 5.84137 12.3977 5.99955 12 6Z" fill="black"/>
<path d="M19.875 7.5C20.4683 7.5 21.0484 7.32406 21.5417 6.99441C22.0351 6.66477 22.4196 6.19623 22.6466 5.64805C22.8737 5.09988 22.9331 4.49668 22.8174 3.91473C22.7016 3.33279 22.4159 2.79824 21.9963 2.37868C21.5768 1.95912 21.0422 1.6734 20.4603 1.55765C19.8783 1.44189 19.2751 1.5013 18.727 1.72836C18.1788 1.95543 17.7102 2.33994 17.3806 2.83329C17.0509 3.32664 16.875 3.90666 16.875 4.5C16.8759 5.29538 17.1923 6.05792 17.7547 6.62034C18.3171 7.18275 19.0796 7.49911 19.875 7.5ZM19.875 3C20.1717 3 20.4617 3.08798 20.7084 3.2528C20.955 3.41762 21.1473 3.65189 21.2608 3.92598C21.3744 4.20007 21.4041 4.50167 21.3462 4.79264C21.2883 5.08361 21.1454 5.35089 20.9357 5.56066C20.7259 5.77044 20.4586 5.9133 20.1676 5.97118C19.8767 6.02906 19.5751 5.99935 19.301 5.88582C19.0269 5.77229 18.7926 5.58003 18.6278 5.33336C18.463 5.08668 18.375 4.79668 18.375 4.5C18.3754 4.10232 18.5336 3.72104 18.8148 3.43984C19.096 3.15863 19.4773 3.00045 19.875 3Z" fill="black"/>
<path d="M4.12497 9C3.53163 9 2.95161 9.17595 2.45826 9.50559C1.96491 9.83524 1.5804 10.3038 1.35333 10.8519C1.12627 11.4001 1.06686 12.0033 1.18261 12.5853C1.29837 13.1672 1.58409 13.7018 2.00365 14.1213C2.42321 14.5409 2.95776 14.8266 3.5397 14.9424C4.12164 15.0581 4.72484 14.9987 5.27302 14.7716C5.8212 14.5446 6.28974 14.1601 6.61938 13.6667C6.94902 13.1734 7.12497 12.5933 7.12497 12C7.12408 11.2046 6.80772 10.4421 6.2453 9.87967C5.68289 9.31725 4.92035 9.00089 4.12497 9ZM4.12497 13.5C3.8283 13.5 3.53829 13.412 3.29162 13.2472C3.04494 13.0824 2.85268 12.8481 2.73915 12.574C2.62562 12.2999 2.59592 11.9983 2.65379 11.7074C2.71167 11.4164 2.85453 11.1491 3.06431 10.9393C3.27409 10.7296 3.54136 10.5867 3.83234 10.5288C4.12331 10.4709 4.42491 10.5006 4.699 10.6142C4.97309 10.7277 5.20735 10.92 5.37218 11.1666C5.537 11.4133 5.62497 11.7033 5.62497 12C5.62452 12.3977 5.46635 12.779 5.18514 13.0602C4.90393 13.3414 4.52266 13.4996 4.12497 13.5Z" fill="black"/>
<path d="M12 9C11.4066 9 10.8266 9.17595 10.3333 9.50559C9.83991 9.83524 9.4554 10.3038 9.22833 10.8519C9.00127 11.4001 8.94186 12.0033 9.05761 12.5853C9.17337 13.1672 9.45909 13.7018 9.87865 14.1213C10.2982 14.5409 10.8328 14.8266 11.4147 14.9424C11.9966 15.0581 12.5998 14.9987 13.148 14.7716C13.6962 14.5446 14.1647 14.1601 14.4944 13.6667C14.824 13.1734 15 12.5933 15 12C14.9991 11.2046 14.6827 10.4421 14.1203 9.87967C13.5579 9.31725 12.7953 9.00089 12 9ZM12 13.5C11.7033 13.5 11.4133 13.412 11.1666 13.2472C10.9199 13.0824 10.7277 12.8481 10.6142 12.574C10.5006 12.2999 10.4709 11.9983 10.5288 11.7074C10.5867 11.4164 10.7295 11.1491 10.9393 10.9393C11.1491 10.7296 11.4164 10.5867 11.7073 10.5288C11.9983 10.4709 12.2999 10.5006 12.574 10.6142C12.8481 10.7277 13.0824 10.92 13.2472 11.1666C13.412 11.4133 13.5 11.7033 13.5 12C13.4995 12.3977 13.3413 12.779 13.0601 13.0602C12.7789 13.3414 12.3977 13.4996 12 13.5Z" fill="black"/>
<path d="M19.875 9C19.2816 9 18.7016 9.17595 18.2083 9.50559C17.7149 9.83524 17.3304 10.3038 17.1033 10.8519C16.8763 11.4001 16.8169 12.0033 16.9326 12.5853C17.0484 13.1672 17.3341 13.7018 17.7537 14.1213C18.1732 14.5409 18.7078 14.8266 19.2897 14.9424C19.8716 15.0581 20.4748 14.9987 21.023 14.7716C21.5712 14.5446 22.0397 14.1601 22.3694 13.6667C22.699 13.1734 22.875 12.5933 22.875 12C22.8741 11.2046 22.5577 10.4421 21.9953 9.87967C21.4329 9.31725 20.6703 9.00089 19.875 9ZM19.875 13.5C19.5783 13.5 19.2883 13.412 19.0416 13.2472C18.7949 13.0824 18.6027 12.8481 18.4892 12.574C18.3756 12.2999 18.3459 11.9983 18.4038 11.7074C18.4617 11.4164 18.6045 11.1491 18.8143 10.9393C19.0241 10.7296 19.2914 10.5867 19.5823 10.5288C19.8733 10.4709 20.1749 10.5006 20.449 10.6142C20.7231 10.7277 20.9574 10.92 21.1222 11.1666C21.287 11.4133 21.375 11.7033 21.375 12C21.3745 12.3977 21.2163 12.779 20.9351 13.0602C20.6539 13.3414 20.2727 13.4996 19.875 13.5Z" fill="black"/>
<path d="M4.12497 16.5C3.53163 16.5 2.95161 16.6759 2.45826 17.0056C1.96491 17.3352 1.5804 17.8038 1.35333 18.352C1.12627 18.9001 1.06686 19.5033 1.18261 20.0853C1.29837 20.6672 1.58409 21.2018 2.00365 21.6213C2.42321 22.0409 2.95776 22.3266 3.5397 22.4424C4.12164 22.5581 4.72484 22.4987 5.27302 22.2716C5.8212 22.0446 6.28974 21.6601 6.61938 21.1667C6.94902 20.6734 7.12497 20.0933 7.12497 19.5C7.12408 18.7046 6.80772 17.9421 6.2453 17.3797C5.68289 16.8173 4.92035 16.5009 4.12497 16.5ZM4.12497 21C3.8283 21 3.53829 20.912 3.29162 20.7472C3.04494 20.5824 2.85268 20.3481 2.73915 20.074C2.62562 19.7999 2.59592 19.4983 2.65379 19.2074C2.71167 18.9164 2.85453 18.6491 3.06431 18.4393C3.27409 18.2296 3.54136 18.0867 3.83234 18.0288C4.12331 17.9709 4.42491 18.0006 4.699 18.1142C4.97309 18.2277 5.20735 18.42 5.37218 18.6666C5.537 18.9133 5.62497 19.2033 5.62497 19.5C5.62452 19.8977 5.46635 20.279 5.18514 20.5602C4.90393 20.8414 4.52266 20.9996 4.12497 21Z" fill="black"/>
<path d="M12 16.5C11.4066 16.5 10.8266 16.6759 10.3333 17.0056C9.83991 17.3352 9.4554 17.8038 9.22833 18.352C9.00127 18.9001 8.94186 19.5033 9.05761 20.0853C9.17337 20.6672 9.45909 21.2018 9.87865 21.6213C10.2982 22.0409 10.8328 22.3266 11.4147 22.4424C11.9966 22.5581 12.5998 22.4987 13.148 22.2716C13.6962 22.0446 14.1647 21.6601 14.4944 21.1667C14.824 20.6734 15 20.0933 15 19.5C14.9991 18.7046 14.6827 17.9421 14.1203 17.3797C13.5579 16.8173 12.7953 16.5009 12 16.5ZM12 21C11.7033 21 11.4133 20.912 11.1666 20.7472C10.9199 20.5824 10.7277 20.3481 10.6142 20.074C10.5006 19.7999 10.4709 19.4983 10.5288 19.2074C10.5867 18.9164 10.7295 18.6491 10.9393 18.4393C11.1491 18.2296 11.4164 18.0867 11.7073 18.0288C11.9983 17.9709 12.2999 18.0006 12.574 18.1142C12.8481 18.2277 13.0824 18.42 13.2472 18.6666C13.412 18.9133 13.5 19.2033 13.5 19.5C13.4995 19.8977 13.3413 20.279 13.0601 20.5602C12.7789 20.8414 12.3977 20.9996 12 21Z" fill="black"/>
<path d="M19.875 16.5C19.2816 16.5 18.7016 16.6759 18.2083 17.0056C17.7149 17.3352 17.3304 17.8038 17.1033 18.352C16.8763 18.9001 16.8169 19.5033 16.9326 20.0853C17.0484 20.6672 17.3341 21.2018 17.7537 21.6213C18.1732 22.0409 18.7078 22.3266 19.2897 22.4424C19.8716 22.5581 20.4748 22.4987 21.023 22.2716C21.5712 22.0446 22.0397 21.6601 22.3694 21.1667C22.699 20.6734 22.875 20.0933 22.875 19.5C22.8741 18.7046 22.5577 17.9421 21.9953 17.3797C21.4329 16.8173 20.6703 16.5009 19.875 16.5ZM19.875 21C19.5783 21 19.2883 20.912 19.0416 20.7472C18.7949 20.5824 18.6027 20.3481 18.4892 20.074C18.3756 19.7999 18.3459 19.4983 18.4038 19.2074C18.4617 18.9164 18.6045 18.6491 18.8143 18.4393C19.0241 18.2296 19.2914 18.0867 19.5823 18.0288C19.8733 17.9709 20.1749 18.0006 20.449 18.1142C20.7231 18.2277 20.9574 18.42 21.1222 18.6666C21.287 18.9133 21.375 19.2033 21.375 19.5C21.3745 19.8977 21.2163 20.279 20.9351 20.5602C20.6539 20.8414 20.2727 20.9996 19.875 21Z" fill="black"/>
</svg>
