<svg width="24" height="24" viewBox="0 0 24 24" fill="none" xmlns="http://www.w3.org/2000/svg">
<path d="M22.125 3H1.875C1.57674 3.00035 1.29079 3.11899 1.07989 3.32989C0.868985 3.54079 0.750347 3.82674 0.75 4.125V19.875C0.750347 20.1733 0.868985 20.4592 1.07989 20.6701C1.29079 20.881 1.57674 20.9997 1.875 21H22.125C22.4233 20.9997 22.7092 20.881 22.9201 20.6701C23.131 20.4592 23.2497 20.1733 23.25 19.875V4.125C23.2497 3.82674 23.131 3.54079 22.9201 3.32989C22.7092 3.11899 22.4233 3.00035 22.125 3ZM21.75 19.5H2.25V4.5H21.75V19.5Z" fill="black"/>
<path d="M6.29057 13.5H9.08432L9.95933 16.125H11.5406L8.79051 7.875H6.58438L3.83432 16.125H5.41546L6.29057 13.5ZM7.66555 9.375H7.70943L8.58444 12H6.79054L7.66555 9.375Z" fill="black"/>
<path d="M19.875 12.3437V11.6563C19.8739 10.6538 19.4751 9.69263 18.7662 8.98375C18.0574 8.27487 17.0962 7.87613 16.0937 7.875H13.125V16.125H16.0937C17.0962 16.1239 18.0574 15.7251 18.7662 15.0162C19.4751 14.3074 19.8739 13.3462 19.875 12.3437ZM14.625 9.375H16.0937C16.6986 9.37568 17.2784 9.61625 17.7061 10.0439C18.1338 10.4716 18.3743 11.0514 18.375 11.6563V12.3437C18.3743 12.9486 18.1338 13.5284 17.7061 13.9561C17.2784 14.3838 16.6986 14.6243 16.0937 14.625H14.625V9.375Z" fill="black"/>
</svg>
