<svg width="24" height="24" viewBox="0 0 24 24" fill="none" xmlns="http://www.w3.org/2000/svg">
<path d="M22.125 2.25H1.875C1.57674 2.25035 1.29079 2.36899 1.07989 2.57989C0.868985 2.79079 0.750347 3.07674 0.75 3.375V20.625C0.750347 20.9233 0.868985 21.2092 1.07989 21.4201C1.29079 21.631 1.57674 21.7497 1.875 21.75H6V18.9927C6.00008 18.8256 6.04481 18.6615 6.12956 18.5175C6.21431 18.3734 6.33601 18.2547 6.48206 18.1734L10.7936 15.777L9.375 12.2306V9.375C9.375 8.67881 9.65156 8.01113 10.1438 7.51884C10.6361 7.02656 11.3038 6.75 12 6.75C12.6962 6.75 13.3639 7.02656 13.8562 7.51884C14.3484 8.01113 14.625 8.67881 14.625 9.375V12.2306L13.2064 15.7769L17.5179 18.1734C17.664 18.2547 17.7857 18.3735 17.8704 18.5175C17.9552 18.6615 17.9999 18.8256 18 18.9927V21.75H22.125C22.4233 21.7497 22.7092 21.631 22.9201 21.4201C23.131 21.2092 23.2497 20.9233 23.25 20.625V3.375C23.2497 3.07674 23.131 2.79079 22.9201 2.57989C22.7092 2.36899 22.4233 2.25035 22.125 2.25ZM21.75 20.25H19.5V18.9927C19.4999 18.5581 19.3836 18.1315 19.1632 17.7569C18.9429 17.3823 18.6264 17.0734 18.2467 16.8622L15.0898 15.1078L16.125 12.5194V9.375C16.125 8.28098 15.6904 7.23177 14.9168 6.45818C14.1432 5.6846 13.094 5.25 12 5.25C10.906 5.25 9.85677 5.6846 9.08318 6.45818C8.3096 7.23177 7.875 8.28098 7.875 9.375V12.5194L8.91023 15.1078L5.75334 16.8624C5.37359 17.0737 5.05717 17.3825 4.83681 17.757C4.61646 18.1316 4.50018 18.5582 4.5 18.9927V20.25H2.25V3.75H21.75V20.25Z" fill="black"/>
</svg>
