<svg width="24" height="24" viewBox="0 0 24 24" fill="none" xmlns="http://www.w3.org/2000/svg">
<g clip-path="url(#clip0_201_55479)">
<path d="M23.2528 8.55856L23.2516 5.24449L21.7516 5.24506L21.7524 7.50312L18.6451 8.61776L16.5016 8.61809V7.16665C16.5026 6.11303 16.136 5.09207 15.465 4.27976L17.4867 2.24478H19.4948V0.744775H16.8624L14.3318 3.29215C13.6241 2.85698 12.8105 2.62443 11.9797 2.61985C11.1489 2.61527 10.3328 2.83884 9.62034 3.26618L7.13334 0.742432L4.50094 0.744775L4.5023 2.24478L6.50611 2.24299L8.47613 4.24226C7.78541 5.06011 7.40691 6.09629 7.40784 7.16679V8.61945L5.3812 8.61977L2.25 7.50443V5.24637H0.75V8.5624L4.50164 9.89876L4.50197 13.8698H0.751594V15.3698H4.50206V15.7452C4.50117 16.6243 4.65508 17.4967 4.95675 18.3224L0.751594 19.9429V23.2448H2.25159V20.9725L5.61394 19.6767C6.20705 20.6435 7.01197 21.4629 7.96796 22.0732C8.92395 22.6835 10.0061 23.0688 11.1326 23.1999C12.2592 23.331 13.4009 23.2045 14.4715 22.8301C15.5421 22.4556 16.5136 21.8429 17.3129 21.0382C17.7246 20.6259 18.0872 20.1674 18.3937 19.672L21.7518 20.9717V23.2448H23.2518V19.9438L19.0509 18.3179C19.3524 17.4903 19.505 16.6159 19.5016 15.7351V15.3698H23.2516V13.8698H19.5016V9.90415L23.2528 8.55856ZM11.25 21.7046C8.29645 21.3392 6.00211 18.8063 6.00211 15.7454L6.00164 10.1199H7.40789V10.1202H11.25V21.7046ZM8.90784 8.61921V7.16665C8.90784 6.35857 9.22885 5.58358 9.80025 5.01218C10.3717 4.44078 11.1466 4.11978 11.9547 4.11978C12.7628 4.11978 13.5378 4.44078 14.1092 5.01218C14.6806 5.58358 15.0016 6.35857 15.0016 7.16665V8.61827L8.90784 8.61921ZM18.0016 15.7371C18.0017 17.2001 17.4684 18.6129 16.5017 19.7109C15.535 20.809 14.2012 21.5169 12.75 21.7022V10.1198H16.5015V10.1181H18.0015L18.0016 15.7371Z" fill="black"/>
</g>
<defs>
<clipPath id="clip0_201_55479">
<rect width="24" height="24" fill="white"/>
</clipPath>
</defs>
</svg>
