<svg width="24" height="24" viewBox="0 0 24 24" fill="none" xmlns="http://www.w3.org/2000/svg">
<path d="M21.1065 16.3392L19.0595 12.5599V8.625C19.0595 4.69627 15.8632 1.5 11.9345 1.5C8.00574 1.5 4.80948 4.69627 4.80948 8.625V12.5599L2.76235 16.3391C2.66952 16.5105 2.62279 16.703 2.62676 16.8979C2.63072 17.0927 2.68524 17.2832 2.78497 17.4507C2.8847 17.6181 3.02622 17.7568 3.19566 17.8531C3.36511 17.9494 3.55666 18 3.75156 18H7.82663C7.81548 18.1236 7.80943 18.2484 7.80943 18.375C7.80943 19.469 8.24403 20.5182 9.01762 21.2918C9.7912 22.0654 10.8404 22.5 11.9344 22.5C13.0284 22.5 14.0777 22.0654 14.8512 21.2918C15.6248 20.5182 16.0594 19.469 16.0594 18.375C16.0594 18.2484 16.0534 18.1236 16.0422 18H20.1173C20.3122 18 20.5037 17.9493 20.6731 17.853C20.8425 17.7567 20.984 17.6181 21.0838 17.4506C21.1835 17.2832 21.238 17.0927 21.2419 16.8979C21.2459 16.7031 21.1992 16.5105 21.1064 16.3392H21.1065ZM14.5595 18.375C14.5598 18.7357 14.4857 19.0927 14.3419 19.4235C14.1981 19.7543 13.9877 20.052 13.7237 20.2979C13.4598 20.5438 13.148 20.7326 12.8078 20.8526C12.4676 20.9726 12.1063 21.0212 11.7465 20.9954C11.3867 20.9696 11.036 20.8698 10.7165 20.7025C10.3969 20.5351 10.1153 20.3036 9.88919 20.0226C9.66307 19.7415 9.49731 19.4168 9.40225 19.0688C9.30719 18.7208 9.28488 18.357 9.33671 18H14.5322C14.5502 18.1242 14.5593 18.2495 14.5595 18.375ZM4.38113 16.5L6.30948 12.9401V8.625C6.30948 7.13316 6.90211 5.70242 7.957 4.64752C9.0119 3.59263 10.4426 3 11.9345 3C13.4263 3 14.8571 3.59263 15.912 4.64752C16.9668 5.70242 17.5595 7.13316 17.5595 8.625V12.9401L19.4877 16.5H4.38113Z" fill="black"/>
</svg>
