<svg width="24" height="24" viewBox="0 0 24 24" fill="none" xmlns="http://www.w3.org/2000/svg">
<path d="M0.75 21.75H23.25V2.625H0.75V21.75ZM2.25 4.125H21.75V20.25H2.25V4.125Z" fill="black"/>
<path d="M5.25 6H3.75V18H5.25V6Z" fill="black"/>
<path d="M8.25 6H6.75V15H8.25V6Z" fill="black"/>
<path d="M11.25 6H9.75V18H11.25V6Z" fill="black"/>
<path d="M14.25 6H12.75V15H14.25V6Z" fill="black"/>
<path d="M17.25 6H15.75V15H17.25V6Z" fill="black"/>
<path d="M20.25 6H18.75V18H20.25V6Z" fill="black"/>
<path d="M8.25 16.5H6.75V18H8.25V16.5Z" fill="black"/>
<path d="M14.25 16.5H12.75V18H14.25V16.5Z" fill="black"/>
<path d="M17.25 16.5H15.75V18H17.25V16.5Z" fill="black"/>
</svg>
