<svg width="24" height="24" viewBox="0 0 24 24" fill="none" xmlns="http://www.w3.org/2000/svg">
<g clip-path="url(#clip0_201_55881)">
<path d="M21.5278 4.5L15.375 10.5795V4.5H13.7555L10.7348 7.55288L11.7955 8.61356L13.875 6.51187V10.693L15.6241 12.4422L21.75 6.3892V18.568L23.25 20.068V19.5V4.5H21.5278Z" fill="black"/>
<path d="M7.87504 0.75H4.12504H3.93201L7.87504 4.69303V0.75Z" fill="black"/>
<path d="M7.875 14.25H6.375V15.75H7.875V14.25Z" fill="black"/>
<path d="M7.875 17.625H6.375V19.125H7.875V17.625Z" fill="black"/>
<path d="M11.625 14.25H10.125V15.75H11.625V14.25Z" fill="black"/>
<path d="M11.625 17.625H10.125V19.125H11.625V17.625Z" fill="black"/>
<path d="M15.375 17.625H13.875V19.125H15.375V17.625Z" fill="black"/>
<path d="M1.81064 0.75H0.75V23.25H23.25V22.1894L1.81064 0.75ZM2.25 21.75V3.31064L6.375 7.43564V11.625H7.875V8.93564L20.6894 21.75H2.25Z" fill="black"/>
</g>
<defs>
<clipPath id="clip0_201_55881">
<rect width="24" height="24" fill="white"/>
</clipPath>
</defs>
</svg>
