<svg width="24" height="24" viewBox="0 0 24 24" fill="none" xmlns="http://www.w3.org/2000/svg">
<path d="M5.25 7.5H3.75V16.875H5.25V7.5Z" fill="black"/>
<path d="M8.25 7.5H6.75V16.875H8.25V7.5Z" fill="black"/>
<path d="M11.25 7.5H9.75V16.875H11.25V7.5Z" fill="black"/>
<path d="M14.25 7.5H12.75V16.875H14.25V7.5Z" fill="black"/>
<path d="M17.25 7.5H15.75V16.875H17.25V7.5Z" fill="black"/>
<path d="M20.2499 8.25003V5.60581C20.247 5.31011 20.1269 5.02763 19.916 4.82033C19.7051 4.61303 19.4206 4.49784 19.1249 4.50003H1.87427C1.57856 4.49784 1.29405 4.61303 1.08315 4.82033C0.872249 5.02763 0.752176 5.31011 0.749268 5.60581V18.7692C0.752176 19.065 0.872249 19.3474 1.08315 19.5547C1.29405 19.762 1.57856 19.8772 1.87427 19.875H19.1249C19.4206 19.8772 19.7051 19.762 19.916 19.5547C20.1269 19.3474 20.247 19.065 20.2499 18.7692V16.125H23.2499V8.25003H20.2499ZM21.7499 14.625H18.7499V18.375H2.24927V6.00003H18.7499V9.75003H21.7499V14.625Z" fill="black"/>
</svg>
