<svg width="24" height="24" viewBox="0 0 24 24" fill="none" xmlns="http://www.w3.org/2000/svg">
<g clip-path="url(#clip0_201_55691)">
<path d="M6.72188 15.5583C6.77355 15.5583 6.82511 15.5534 6.87587 15.5437L11.0884 14.5462L20.004 5.63053C20.2779 5.35664 20.4951 5.03149 20.6434 4.67364C20.7916 4.31579 20.8679 3.93225 20.8679 3.54492C20.8679 3.15759 20.7916 2.77405 20.6434 2.41621C20.4951 2.05836 20.2779 1.73321 20.004 1.45933C19.7301 1.18545 19.4049 0.968192 19.0471 0.819968C18.6893 0.671745 18.3057 0.595457 17.9184 0.595459C17.531 0.595461 17.1475 0.671754 16.7897 0.819981C16.4318 0.968208 16.1067 1.18547 15.8328 1.45935L6.91716 10.375L5.92651 14.5555L5.91971 14.5871C5.89705 14.7053 5.90077 14.827 5.93059 14.9436C5.96042 15.0602 6.01562 15.1687 6.09225 15.2615C6.16888 15.3542 6.26505 15.429 6.37389 15.4803C6.48273 15.5316 6.60155 15.5582 6.72188 15.5583ZM8.2786 11.1347L16.8938 2.51981C17.0284 2.38521 17.1881 2.27844 17.364 2.2056C17.5399 2.13275 17.7284 2.09526 17.9187 2.09526C18.1091 2.09526 18.2975 2.13275 18.4734 2.2056C18.6493 2.27844 18.8091 2.38521 18.9436 2.51981C19.0782 2.6544 19.185 2.8142 19.2579 2.99006C19.3307 3.16592 19.3682 3.3544 19.3682 3.54475C19.3682 3.7351 19.3307 3.92359 19.2579 4.09945C19.185 4.27531 19.0782 4.4351 18.9436 4.5697L10.3285 13.1847L7.64194 13.8213L8.2786 11.1347Z" fill="black"/>
<path d="M22.125 17.625H1.875C1.57674 17.6253 1.29079 17.744 1.07989 17.9549C0.868985 18.1658 0.750347 18.4517 0.75 18.75V22.125C0.750347 22.4233 0.868985 22.7092 1.07989 22.9201C1.29079 23.131 1.57674 23.2497 1.875 23.25H22.125C22.4233 23.2497 22.7092 23.131 22.9201 22.9201C23.131 22.7092 23.2497 22.4233 23.25 22.125V18.75C23.2497 18.4517 23.131 18.1658 22.9201 17.9549C22.7092 17.744 22.4233 17.6253 22.125 17.625ZM21.75 21.75H2.25V19.125H21.75V21.75Z" fill="black"/>
</g>
<defs>
<clipPath id="clip0_201_55691">
<rect width="24" height="24" fill="white"/>
</clipPath>
</defs>
</svg>
