<svg width="24" height="24" viewBox="0 0 24 24" fill="none" xmlns="http://www.w3.org/2000/svg">
<path d="M22.3479 15.8345L22.9727 12.7105L14.9999 8.72406V5.33865C15.0009 4.61396 14.842 3.89798 14.5346 3.24171C14.2273 2.58543 13.779 2.00501 13.2216 1.54178C12.8787 1.25592 12.4464 1.09937 11.9999 1.09937C11.5535 1.09937 11.1212 1.25592 10.7782 1.54178C10.2209 2.00501 9.77262 2.58543 9.46525 3.24171C9.15788 3.89798 8.999 4.61396 8.99994 5.33865V8.72406L1.02716 12.7105L1.65196 15.8345L9.02019 14.8735L9.38282 18.6809L5.99994 20.1306V23.2501H17.9999V20.1306L14.6171 18.6808L14.9797 14.8734L22.3479 15.8345ZM16.4999 21.1197V21.7501H7.49994V21.1197L10.9798 19.6282L10.4999 14.5895V13.1677L2.84793 14.1657L2.72272 13.5398L10.4999 9.65115V5.33865C10.4993 4.83393 10.61 4.33528 10.8241 3.87822C11.0381 3.42115 11.3504 3.01691 11.7385 2.69429C11.8119 2.6331 11.9044 2.59958 11.9999 2.59958C12.0955 2.59958 12.188 2.6331 12.2614 2.69429C12.6495 3.01691 12.9617 3.42115 13.1758 3.87822C13.3899 4.33528 13.5006 4.83393 13.4999 5.33865V9.65115L21.2772 13.5398L21.152 14.1657L13.4999 13.1677V14.5895L13.02 19.6282L16.4999 21.1197Z" fill="black"/>
</svg>
