<svg width="24" height="24" viewBox="0 0 24 24" fill="none" xmlns="http://www.w3.org/2000/svg">
<path d="M14.625 4.10933V5.67824C17.8911 6.77727 20.25 9.8682 20.25 13.5C20.25 18.0491 16.5491 21.75 12 21.75C7.45092 21.75 3.75 18.0491 3.75 13.5C3.75 9.8682 6.10894 6.77727 9.375 5.67824V4.10933C5.26978 5.25838 2.25 9.0328 2.25 13.5C2.25 18.8761 6.62386 23.25 12 23.25C17.3761 23.25 21.75 18.8761 21.75 13.5C21.75 9.0328 18.7302 5.25838 14.625 4.10933Z" fill="black"/>
<path d="M12.75 0.75H11.25V13.5H12.75V0.75Z" fill="black"/>
</svg>
