<svg width="24" height="24" viewBox="0 0 24 24" fill="none" xmlns="http://www.w3.org/2000/svg">
<path d="M21.8568 2.24772C21.1507 1.54178 20.2074 1.12342 19.2102 1.07387C18.213 1.02432 17.2329 1.34712 16.4603 1.97959C15.4719 1.63137 14.4313 1.45421 13.3833 1.45572C11.8366 1.45572 10.3051 1.76037 8.87609 2.35227C7.44711 2.94417 6.14872 3.81174 5.05503 4.90543C3.96134 5.99912 3.09378 7.29753 2.50188 8.7265C1.90998 10.1555 1.60534 11.6871 1.60535 13.2338C1.60377 14.2818 1.78093 15.3224 2.12922 16.3108C1.49683 17.0833 1.17411 18.0633 1.22373 19.0605C1.27335 20.0576 1.69177 21.0008 2.39773 21.7067C3.1037 22.4127 4.04683 22.8311 5.04398 22.8807C6.04113 22.9303 7.02114 22.6076 7.79369 21.9752C8.78214 22.3235 9.82274 22.5007 10.8708 22.4991C13.9945 22.4991 16.9902 21.2582 19.199 19.0494C21.4078 16.8406 22.6487 13.8449 22.6488 10.7212C22.6504 9.67309 22.4732 8.6324 22.125 7.64387C22.7564 6.87086 23.0785 5.89107 23.0289 4.8942C22.9794 3.89733 22.5617 2.95431 21.8568 2.24772ZM20.564 7.76097C20.9517 8.69964 21.1504 9.70559 21.1486 10.7212C21.1486 16.3884 16.5379 20.9992 10.8706 20.9992C9.85503 21.0009 8.84909 20.8023 7.91041 20.4146L7.42619 20.2148L7.07186 20.6005C7.0578 20.6161 7.04341 20.6315 7.02836 20.6465C6.79392 20.881 6.51559 21.0669 6.20928 21.1938C5.90296 21.3207 5.57466 21.386 5.2431 21.386C4.91155 21.386 4.58325 21.3207 4.27693 21.1938C3.97062 21.0669 3.69229 20.881 3.45785 20.6465C3.2234 20.4121 3.03743 20.1338 2.91055 19.8274C2.78367 19.5211 2.71837 19.1928 2.71837 18.8613C2.71837 18.5297 2.78367 18.2014 2.91055 17.8951C3.03743 17.5888 3.2234 17.3105 3.45785 17.076C3.47285 17.061 3.48832 17.0467 3.50383 17.0324L3.88957 16.6781L3.68978 16.194C3.30211 15.2553 3.10344 14.2493 3.10516 13.2337C3.10516 7.56653 7.71588 2.95577 13.3832 2.95577C14.3988 2.95403 15.4047 3.15266 16.3434 3.5403L16.8273 3.74003L17.1817 3.35462C17.1957 3.33934 17.2098 3.32401 17.2254 3.30841C17.6994 2.83736 18.3408 2.57344 19.0091 2.57448C19.6773 2.57552 20.3179 2.84144 20.7904 3.31397C21.2629 3.78649 21.5289 4.42707 21.5299 5.09532C21.5309 5.76357 21.267 6.40497 20.796 6.87897C20.7808 6.89411 20.7651 6.90855 20.7494 6.92298L20.3644 7.27731L20.564 7.76097Z" fill="black"/>
<path d="M5.64008 10.6285L6.97465 11.3134C8.1593 8.99495 10.181 7.21359 12.6301 6.33021L12.1201 4.91956C9.31403 5.93152 6.99759 7.97231 5.64008 10.6285Z" fill="black"/>
</svg>
