<svg width="24" height="24" viewBox="0 0 24 24" fill="none" xmlns="http://www.w3.org/2000/svg">
<path d="M23.0482 12.0326L20.4721 9.71414L21.2412 9.08573C21.5854 8.80291 21.8768 8.46135 22.102 8.07689C22.9526 6.60309 22.7051 4.79367 21.4858 3.57445C20.2666 2.35523 18.4571 2.10769 16.9834 2.95842C16.599 3.18354 16.2575 3.47495 15.9747 3.81914L15.3462 4.58822L13.0277 2.01216L13.0006 1.98352C12.7894 1.77286 12.5033 1.65456 12.2051 1.65456C11.9068 1.65456 11.6207 1.77286 11.4096 1.98352L8.33457 5.05875L8.39036 6.16969L9.94229 7.43794C10.1495 7.60726 10.3253 7.81178 10.4616 8.04211C10.9682 8.9197 10.8165 10.0015 10.084 10.734C9.35153 11.4664 8.26993 11.6181 7.39215 11.1117C7.16164 10.9753 6.95695 10.7994 6.78746 10.592L5.51964 9.04045L4.4087 8.98472L1.06839 12.325C0.963914 12.4295 0.881042 12.5535 0.824502 12.69C0.767962 12.8265 0.738861 12.9728 0.738861 13.1205C0.738861 13.2683 0.767962 13.4146 0.824502 13.5511C0.881042 13.6876 0.963914 13.8116 1.06839 13.9161L9.28825 22.136C9.63647 22.4842 10.0499 22.7605 10.5048 22.9489C10.9598 23.1374 11.4475 23.2344 11.9399 23.2344C12.4324 23.2344 12.92 23.1374 13.375 22.9489C13.83 22.7605 14.2434 22.4842 14.5916 22.136L23.0767 13.6508C23.2873 13.4396 23.4056 13.1535 23.4056 12.8553C23.4056 12.557 23.2873 12.271 23.0767 12.0598L23.0482 12.0326ZM13.5309 21.0754C13.322 21.2843 13.0739 21.4501 12.8009 21.5631C12.528 21.6762 12.2354 21.7344 11.9399 21.7344C11.6444 21.7344 11.3518 21.6762 11.0788 21.5631C10.8059 21.4501 10.5578 21.2843 10.3489 21.0754L2.39396 13.1204L4.88303 10.6316L5.62881 11.5444L5.6335 11.55C5.9163 11.8942 6.25784 12.1856 6.64229 12.4107C8.11609 13.2615 9.92546 13.0139 11.1447 11.7946C12.364 10.5753 12.6115 8.766 11.7608 7.29225C11.5357 6.9078 11.2443 6.56626 10.9 6.28345L9.98172 5.53298L12.1907 3.32405L14.8165 6.24159L15.9547 6.21445L17.1295 4.7768C17.2988 4.56957 17.5033 4.39379 17.7336 4.25752C18.6112 3.75094 19.693 3.90272 20.4255 4.63514C21.1579 5.36756 21.3097 6.4492 20.8031 7.32698C20.6669 7.55732 20.4911 7.76184 20.2838 7.93116L18.8462 9.10589L18.819 10.2441L21.7366 12.87L13.5309 21.0754Z" fill="black"/>
</svg>
