<svg width="24" height="24" viewBox="0 0 24 24" fill="none" xmlns="http://www.w3.org/2000/svg">
<path d="M6.35339 21.2775C6.2919 21.3089 6.22292 21.3227 6.15408 21.3173C6.08524 21.3119 6.01924 21.2876 5.96337 21.247C5.90751 21.2064 5.86397 21.1512 5.83758 21.0874C5.81119 21.0236 5.80298 20.9537 5.81386 20.8855L6.77813 14.6353L2.32406 10.1452C2.27554 10.0963 2.24144 10.0349 2.2255 9.96787C2.20956 9.90084 2.21241 9.8307 2.23372 9.76517C2.25503 9.69964 2.29398 9.64125 2.34631 9.59641C2.39863 9.55157 2.46229 9.52201 2.53031 9.51098L8.77266 8.49646L12 3.57281V0.836853L11.1205 2.1786L7.8802 7.12181L2.28952 8.03062C1.94917 8.08511 1.63053 8.23272 1.36889 8.4571C1.10724 8.68149 0.912786 8.9739 0.807047 9.30196C0.783534 9.37513 0.764483 9.44966 0.75 9.52514V10.2412C0.820883 10.6047 0.998089 10.9389 1.25916 11.2016L5.18025 15.1544L4.33125 20.657C4.27835 20.9976 4.3204 21.3461 4.45277 21.6644C4.58514 21.9826 4.8027 22.2581 5.08153 22.4607C5.36036 22.6633 5.68965 22.7851 6.0332 22.8126C6.37676 22.8402 6.72125 22.7725 7.02881 22.6169L12 20.1092V18.4292L6.35339 21.2775Z" fill="black"/>
</svg>
