<svg width="24" height="24" viewBox="0 0 24 24" fill="none" xmlns="http://www.w3.org/2000/svg">
<path d="M3.75 23.2462L20.2518 23.2499H20.2521C20.3999 23.2499 20.5462 23.2208 20.6827 23.1642C20.8192 23.1077 20.9433 23.0248 21.0477 22.9203C21.1522 22.8158 21.2351 22.6917 21.2916 22.5552C21.3481 22.4186 21.3772 22.2723 21.3771 22.1245L21.375 16.6159C21.3752 16.3879 21.3059 16.1653 21.1763 15.9778L16.125 8.64895V5.67187H18C18.2983 5.67153 18.5842 5.55289 18.7951 5.34199C19.006 5.13108 19.1247 4.84514 19.125 4.54687V0.75H4.875V4.54687C4.87534 4.84514 4.99397 5.13109 5.20488 5.342C5.41578 5.55291 5.70174 5.67154 6 5.67187H7.87111V8.70098L2.82544 15.9766C2.69464 16.1647 2.62469 16.3885 2.625 16.6176V22.1212C2.62536 22.4194 2.744 22.7054 2.9549 22.9163C3.1658 23.1272 3.45174 23.2458 3.75 23.2462ZM9.37111 9.1702V4.17187H6.375V2.25H17.625V4.17187H14.625V9.11578L17.6468 13.5H6.36839L9.37111 9.1702ZM4.125 16.7349L5.32814 15H18.6806L19.875 16.733L19.8767 21.75L4.125 21.7462V16.7349Z" fill="black"/>
</svg>
