<svg width="24" height="24" viewBox="0 0 24 24" fill="none" xmlns="http://www.w3.org/2000/svg">
<path d="M20.625 1.875H3.375C2.97731 1.87545 2.59604 2.03363 2.31483 2.31483C2.03363 2.59604 1.87545 2.97731 1.875 3.375V20.625C1.87545 21.0227 2.03363 21.404 2.31483 21.6852C2.59604 21.9664 2.97731 22.1246 3.375 22.125H20.625C21.0227 22.1246 21.404 21.9664 21.6852 21.6852C21.9664 21.404 22.1246 21.0227 22.125 20.625V3.375C22.1246 2.97731 21.9664 2.59604 21.6852 2.31483C21.404 2.03363 21.0227 1.87545 20.625 1.875ZM20.625 20.625H3.375V3.375H20.625V20.625Z" fill="black"/>
<path d="M5.6538 12.2693L5.65525 12.3753L5.67011 13.4524L6.69545 13.7824L9.51653 14.6905L10.3969 17.4862L10.7274 18.5356H13.2727L13.6032 17.4862L14.4836 14.6905L17.3047 13.7824L18.3301 13.4524L18.3448 12.3753L18.3462 12.2693L18.3496 12.0306L18.3647 10.9393L17.3309 10.5893L14.6839 9.69276L13.5917 6.45862L13.2473 5.43848H10.7526L10.4081 6.45862L9.31595 9.69299L6.66911 10.5893L5.63538 10.9394L5.65047 12.0308L5.6538 12.2693ZM10.5 10.8753L11.8293 6.93829H12.1707L13.5 10.8753L16.8497 12.0096C16.8474 12.1746 16.8472 12.1895 16.845 12.3544L13.2857 13.5003L12.1724 17.0356H11.8277L10.7143 13.5003L7.15511 12.3546C7.15281 12.1896 7.15263 12.1748 7.15042 12.0098L10.5 10.8753Z" fill="black"/>
</svg>
