<svg width="24" height="24" viewBox="0 0 24 24" fill="none" xmlns="http://www.w3.org/2000/svg">
<g clip-path="url(#clip0_201_55194)">
<path d="M19.9549 4.04506C17.8451 1.93527 14.9837 0.75 12 0.75C9.01627 0.75 6.15478 1.93527 4.045 4.04506C1.93521 6.15485 0.749939 9.01633 0.749939 12C0.749939 14.9837 1.93521 17.8452 4.045 19.955C6.15478 22.0648 9.01627 23.25 12 23.25C14.9837 23.25 17.8451 22.0648 19.9549 19.955C22.0647 17.8452 23.25 14.9837 23.25 12C23.25 9.01633 22.0647 6.15485 19.9549 4.04506ZM12 21.75C6.62382 21.75 2.24996 17.3762 2.24996 12C2.24996 6.62388 6.62382 2.25002 12 2.25002C17.3761 2.25002 21.75 6.62388 21.75 12C21.75 17.3762 17.3761 21.75 12 21.75Z" fill="black"/>
<path d="M17.4623 5.625H8.45941L5.70935 13.875H9.27405L7.5678 18.75H11.1856L18 11.9356V9.75H14.9414L17.4623 5.625ZM16.5 11.25V11.3144L10.5643 17.25H9.6821L11.3884 12.375H7.7906L9.54059 7.125H14.7877L12.2668 11.25H16.5Z" fill="black"/>
</g>
<defs>
<clipPath id="clip0_201_55194">
<rect width="24" height="24" fill="white"/>
</clipPath>
</defs>
</svg>
