<svg width="24" height="24" viewBox="0 0 24 24" fill="none" xmlns="http://www.w3.org/2000/svg">
<g clip-path="url(#clip0_201_56931)">
<path d="M19.9549 4.04454C17.8451 1.93475 14.9837 0.749481 12 0.749481C9.01627 0.749481 6.15478 1.93475 4.045 4.04454C1.93521 6.15433 0.749939 9.01581 0.749939 11.9995C0.749939 14.9832 1.93521 17.8447 4.045 19.9545C6.15478 22.0643 9.01627 23.2495 12 23.2495C14.9837 23.2495 17.8451 22.0643 19.9549 19.9545C22.0647 17.8447 23.25 14.9832 23.25 11.9995C23.25 9.01581 22.0647 6.15433 19.9549 4.04454ZM13.2465 5.04912C13.6796 4.22093 13.7849 3.33527 13.5611 2.37508C17.6892 3.0423 20.9572 6.31024 21.6244 10.4384C20.6642 10.2146 19.7785 10.3198 18.9504 10.753C17.7276 11.3924 16.8236 12.6655 15.9493 13.8969C15.203 14.948 14.4313 16.0349 13.489 16.7052C12.4883 17.4172 11.4004 17.5771 10.0653 17.2079C8.96725 16.9044 8.03064 15.9851 8.02243 15.977C8.01306 15.9677 7.09323 15.0257 6.79159 13.9342C6.42259 12.5991 6.58229 11.5112 7.29423 10.5105C7.96454 9.56829 9.05148 8.79649 10.1026 8.05015C11.3339 7.17607 12.6071 6.27185 13.2465 5.04912ZM12 21.7495C6.62382 21.7495 2.24996 17.3756 2.24996 11.9995C2.24996 6.63471 6.60545 2.26826 11.966 2.24993C12.7078 4.22294 11.4412 5.26001 9.23434 6.82708C7.01326 8.40419 4.24932 10.3665 5.34578 14.3339C5.75659 15.8201 6.91281 16.9887 6.96184 17.0378C7.01087 17.0868 8.17965 18.2429 9.66559 18.6537C10.2235 18.8134 10.8005 18.8969 11.3807 18.9017C14.2354 18.9017 15.8412 16.64 17.1723 14.7653C18.7394 12.5582 19.7765 11.2916 21.7495 12.0334C21.7312 17.394 17.3648 21.7495 12 21.7495Z" fill="black"/>
</g>
<defs>
<clipPath id="clip0_201_56931">
<rect width="24" height="24" fill="white"/>
</clipPath>
</defs>
</svg>
