<svg width="24" height="24" viewBox="0 0 24 24" fill="none" xmlns="http://www.w3.org/2000/svg">
<g clip-path="url(#clip0_201_55757)">
<path d="M12.0074 3.37465C15.0683 3.39621 17.5735 5.90421 17.5916 8.96538C17.5998 10.4227 17.0426 11.8265 16.0372 12.8816L17.098 13.9424C18.3868 12.6036 19.1021 10.8147 19.0916 8.95653C19.0686 5.07903 15.8954 1.90212 12.0179 1.87465C10.1556 1.85528 8.36092 2.57184 7.02405 3.86853L8.08478 4.92921C9.139 3.91845 10.547 3.36046 12.0074 3.37465Z" fill="black"/>
<path d="M16.8419 15.8079L15.3419 14.3079L11.4047 10.3707L9.42237 8.38833L8.25786 7.22381L1.784 0.75H0.716888V1.80417L5.32442 6.4117C5.00409 7.23698 4.84045 8.11474 4.84189 9V10.5H6.34189V9C6.34147 8.52896 6.39984 8.05971 6.51565 7.60312L7.84334 8.93081C7.84236 8.96789 7.84175 9.00511 7.84175 9.04242V13.061L8.08029 13.2992C8.60076 13.8168 9.0134 14.4325 9.29432 15.1107C9.57524 15.7888 9.71887 16.516 9.71689 17.25H11.2169C11.2219 15.4696 10.5519 13.7535 9.34189 12.4475V10.4292L15.3419 16.4292V17.6563C15.3411 18.4434 15.028 19.198 14.4714 19.7546C13.9149 20.3111 13.1603 20.6242 12.3732 20.625H11.2169V22.125H12.3732C13.5121 22.1236 14.6076 21.688 15.4364 20.9068C16.2652 20.1257 16.765 19.0579 16.8338 17.9211L22.1628 23.25H23.2169V22.1828L16.8419 15.8079Z" fill="black"/>
<path d="M11.9359 4.87536C10.8998 4.88403 9.90575 5.28601 9.15488 5.99994L10.2152 7.06026C10.6875 6.62506 11.3048 6.38095 11.947 6.37536H11.9671C12.6632 6.37536 13.3309 6.65193 13.8232 7.14421C14.3155 7.63649 14.5921 8.30417 14.5921 9.00037H16.0921C16.0921 8.45603 15.9844 7.91708 15.7751 7.41456C15.5659 6.91205 15.2592 6.45592 14.8729 6.07247C14.4865 5.68902 14.0281 5.38583 13.524 5.18037C13.02 4.97491 12.4802 4.87125 11.9359 4.87536Z" fill="black"/>
</g>
<defs>
<clipPath id="clip0_201_55757">
<rect width="24" height="24" fill="white"/>
</clipPath>
</defs>
</svg>
