<svg width="24" height="24" viewBox="0 0 24 24" fill="none" xmlns="http://www.w3.org/2000/svg">
<path d="M9.75002 0.75C8.35811 0.751576 7.02367 1.30521 6.03944 2.28943C5.05522 3.27365 4.50159 4.6081 4.50001 6V9.73505C4.50048 10.3624 4.65788 10.9797 4.95789 11.5307L6.24484 13.8901L2.83126 16.1089C2.30664 16.4485 1.87556 16.9143 1.57748 17.4635C1.2794 18.0128 1.12383 18.6281 1.12501 19.2531V23.25H14.625V21.75H2.62501V19.2531C2.62431 18.8781 2.71766 18.5089 2.89651 18.1793C3.07537 17.8498 3.33402 17.5703 3.64881 17.3665L8.22662 14.391L6.27475 10.8125C6.09475 10.4819 6.0003 10.1115 6.00001 9.73505V6C6.00001 5.00544 6.3951 4.05161 7.09836 3.34835C7.80162 2.64509 8.75545 2.25 9.75002 2.25C10.7446 2.25 11.6984 2.64509 12.4017 3.34835C13.1049 4.05161 13.5 5.00544 13.5 6V9.73505C13.4997 10.1115 13.4053 10.4819 13.2253 10.8125L11.2735 14.391L14.625 16.5695V14.7805L13.2552 13.8899L14.5421 11.5305C14.8421 10.9795 14.9995 10.3623 15 9.73505V6C14.9984 4.6081 14.4448 3.27365 13.4606 2.28943C12.4764 1.30521 11.1419 0.751576 9.75002 0.75Z" fill="black"/>
<path d="M19.875 18.75V15.75H18.375V18.75H15.375V20.25H18.375V23.25H19.875V20.25H22.875V18.75H19.875Z" fill="black"/>
</svg>
