<svg width="24" height="24" viewBox="0 0 24 24" fill="none" xmlns="http://www.w3.org/2000/svg">
<path d="M16.2184 1.96887L8.41546 9.77178C5.15037 13.0451 2.67777 17.0222 1.18705 21.3987C1.11596 21.6056 1.10464 21.8285 1.15438 22.0416C1.20412 22.2548 1.31292 22.4496 1.4683 22.6037L1.47238 22.6078C1.5805 22.7167 1.7091 22.8032 1.85077 22.8623C1.99245 22.9214 2.1444 22.9518 2.29789 22.9519C2.42705 22.9519 2.55532 22.9306 2.67758 22.8889C7.05401 21.3982 11.0312 18.9256 14.3045 15.6605L22.1071 7.85764C22.888 7.07674 23.3267 6.01762 23.3267 4.91327C23.3267 3.80892 22.888 2.74979 22.1072 1.96889C21.7205 1.58223 21.2615 1.27551 20.7563 1.06625C20.2511 0.856991 19.7096 0.749285 19.1628 0.749283C18.0584 0.749278 16.9993 1.18798 16.2184 1.96887ZM13.2436 14.5999C10.2943 17.5414 6.74219 19.8082 2.83208 21.244C4.26782 17.3338 6.53461 13.7817 9.4761 10.8324L14.1243 6.18424L17.8918 9.95168L13.2436 14.5999ZM21.0465 6.79699L18.9524 8.89104L15.185 5.1236L17.279 3.02951C17.5263 2.78155 17.82 2.58476 18.1434 2.4504C18.4667 2.31605 18.8134 2.24676 19.1636 2.24651C19.5138 2.24626 19.8605 2.31504 20.1841 2.44893C20.5077 2.58282 20.8017 2.77918 21.0493 3.02679C21.2969 3.2744 21.4932 3.56839 21.6271 3.89195C21.761 4.21551 21.8298 4.5623 21.8295 4.91247C21.8293 5.26263 21.76 5.60932 21.6256 5.93268C21.4912 6.25605 21.2945 6.54975 21.0465 6.79699Z" fill="black"/>
</svg>
