<svg width="24" height="24" viewBox="0 0 24 24" fill="none" xmlns="http://www.w3.org/2000/svg">
<g clip-path="url(#clip0_201_56422)">
<path d="M18.6198 6.52052L18.6096 6.51006C15.7177 3.61825 11.387 3.02148 7.90076 4.71892L9.03574 5.85391C11.8702 4.70205 15.2467 5.27266 17.544 7.56578L21.75 11.9385V12.0841L18.5709 15.3893L19.6317 16.45L23.25 12.6885V11.3341L18.6198 6.52052Z" fill="black"/>
<path d="M16.8276 13.609C17.2292 12.7083 17.3481 11.7069 17.1686 10.7372C16.9891 9.76753 16.5197 8.87509 15.8223 8.17776C15.125 7.48043 14.2326 7.01102 13.2629 6.83154C12.2932 6.65205 11.2918 6.77092 10.3911 7.17246L11.5672 8.34855C12.1312 8.20923 12.7217 8.21793 13.2814 8.37381C13.8411 8.52968 14.351 8.82745 14.7618 9.23827C15.1727 9.64909 15.4704 10.159 15.6263 10.7187C15.7822 11.2784 15.7909 11.8689 15.6516 12.4329L16.8276 13.609Z" fill="black"/>
<path d="M0.75 0.75V1.77844L5.43642 6.46491C5.42114 6.47995 5.40567 6.49472 5.39044 6.50991L0.75 11.3339V12.6883L5.38022 17.5018L5.39044 17.5122C6.96064 19.0784 9.03586 20.0362 11.2464 20.2151C13.4569 20.394 15.6591 19.7824 17.4608 18.4891L22.2216 23.25H23.25V22.1572L1.8428 0.75H0.75ZM3.84291 10.2823L4.64147 9.45211L13.7409 18.5516C13.2676 18.6585 12.7855 18.7215 12.3006 18.7399L3.84291 10.2823ZM2.25 12.0839V11.9383L2.80284 11.3635L9.90155 18.4622C8.59874 18.1034 7.41152 17.4123 6.45623 16.4565L2.25 12.0839ZM15.3225 18.0118L5.68153 8.37084L6.45605 7.56562C6.46964 7.55208 6.48352 7.53905 6.49716 7.52559L16.3831 17.4115C16.0458 17.639 15.6911 17.8397 15.3225 18.0118Z" fill="black"/>
</g>
<defs>
<clipPath id="clip0_201_56422">
<rect width="24" height="24" fill="white"/>
</clipPath>
</defs>
</svg>
