<svg width="24" height="24" viewBox="0 0 24 24" fill="none" xmlns="http://www.w3.org/2000/svg">
<path d="M16.3725 0.75H7.62758L6.46639 6.94294C5.20159 8.32341 4.5 10.1277 4.5 12C4.5 13.8723 5.20159 15.6766 6.46639 17.0571L7.62758 23.25H16.3725L17.5337 17.0571C18.7985 15.6766 19.5001 13.8723 19.5001 12C19.5001 10.1277 18.7985 8.32341 17.5337 6.94294L16.3725 0.75ZM8.87249 2.25H15.1276L15.737 5.49895C14.6004 4.84447 13.3118 4.5 12.0002 4.5C10.6887 4.5 9.40009 4.84447 8.26349 5.49895L8.87249 2.25ZM15.1276 21.75H8.87249L8.26311 18.501C9.39971 19.1555 10.6883 19.5 11.9998 19.5C13.3114 19.5 14.6 19.1555 15.7366 18.501L15.1276 21.75ZM12 18C10.8133 18 9.65331 17.6481 8.66661 16.9888C7.67992 16.3295 6.91088 15.3925 6.45676 14.2961C6.00263 13.1997 5.88381 11.9933 6.11532 10.8295C6.34683 9.66557 6.91828 8.59647 7.75739 7.75736C8.59651 6.91824 9.6656 6.3468 10.8295 6.11529C11.9934 5.88378 13.1998 6.0026 14.2961 6.45672C15.3925 6.91085 16.3296 7.67988 16.9888 8.66658C17.6481 9.65327 18 10.8133 18 12C17.9982 13.5907 17.3655 15.1158 16.2407 16.2407C15.1159 17.3655 13.5908 17.9982 12 18Z" fill="black"/>
</svg>
