<svg width="24" height="24" viewBox="0 0 24 24" fill="none" xmlns="http://www.w3.org/2000/svg">
<path d="M6.75 3.74997C6.75 3.15663 6.57405 2.57661 6.24441 2.08326C5.91477 1.58991 5.44623 1.2054 4.89805 0.978332C4.34987 0.751269 3.74667 0.691859 3.16473 0.807615C2.58279 0.923371 2.04824 1.20909 1.62868 1.62865C1.20912 2.04821 0.923401 2.58276 0.807646 3.1647C0.69189 3.74664 0.7513 4.34984 0.978363 4.89802C1.20543 5.4462 1.58994 5.91474 2.08329 6.24438C2.57664 6.57402 3.15666 6.74997 3.75 6.74997C4.54538 6.74908 5.30792 6.43272 5.87034 5.8703C6.43275 5.30789 6.74911 4.54535 6.75 3.74997ZM2.25 3.74997C2.25 3.4533 2.33797 3.16329 2.5028 2.91662C2.66762 2.66994 2.90189 2.47768 3.17598 2.36415C3.45007 2.25062 3.75167 2.22092 4.04264 2.27879C4.33361 2.33667 4.60088 2.47953 4.81066 2.68931C5.02044 2.89909 5.1633 3.16636 5.22118 3.45734C5.27906 3.74831 5.24935 4.04991 5.13582 4.324C5.02229 4.59809 4.83003 4.83235 4.58336 4.99718C4.33668 5.162 4.04667 5.24997 3.75 5.24997C3.35231 5.24952 2.97104 5.09135 2.68983 4.81014C2.40863 4.52893 2.25045 4.14766 2.25 3.74997Z" fill="black"/>
<path d="M20.6555 3.34868C20.0765 2.76615 19.3884 2.30342 18.6304 1.98694C17.8725 1.67047 17.0597 1.50644 16.2383 1.50424H16.2092C14.4518 1.50424 12.7357 2.25279 11.3747 3.61395C9.9882 5.00051 8.85528 7.10749 8.34415 9.2502C8.21507 9.78442 8.1295 10.3282 8.08826 10.8763C8.03507 11.7241 7.79043 12.5489 7.37272 13.2886C7.08025 13.7943 6.72264 14.2594 6.30908 14.672L2.59259 18.4788C2.01186 19.0615 1.95003 19.6607 2.00075 20.0611C2.05953 20.526 2.30661 20.9878 2.71526 21.3965C3.12392 21.8052 3.58597 22.0523 4.05078 22.1111C4.12469 22.1204 4.19912 22.1251 4.27362 22.1251C4.65744 22.1251 5.15276 21.9995 5.63647 21.5157L9.35262 17.7095C9.79647 17.265 10.301 16.8855 10.8512 16.5824C11.5548 16.2035 12.3318 15.9806 13.1293 15.9289C13.6806 15.8867 14.2275 15.7995 14.7646 15.6681C16.8995 15.1529 19.0025 14.0169 20.3901 12.6292C21.7588 11.2605 22.508 9.53323 22.4997 7.76562C22.4975 6.94434 22.3335 6.13154 22.0171 5.37366C21.7006 4.61579 21.238 3.92769 20.6555 3.34868ZM4.57297 20.4581C4.38809 20.6417 4.27972 20.628 4.23884 20.6229C4.11092 20.6067 3.94222 20.5021 3.77595 20.3359C3.60969 20.1696 3.50506 20.0009 3.48889 19.8729C3.48369 19.8318 3.4699 19.7229 3.65656 19.5361L6.62722 16.4933L7.54644 17.4125L4.57297 20.4581ZM8.60656 16.3513L7.67037 15.4152C8.04775 14.9963 8.38057 14.5393 8.66347 14.0516C8.97056 14.5991 9.42278 15.0512 9.97034 15.3582C9.48257 15.6411 9.02552 15.974 8.60656 16.3514V16.3513ZM19.3297 11.5689C18.1468 12.7517 16.2628 13.7638 14.4129 14.2103C12.5719 14.6545 11.0297 14.4767 10.2874 13.7345C8.70472 12.1518 9.86909 7.2408 12.4354 4.67449C13.6103 3.49962 14.9432 3.01005 16.1944 3.01005C17.4679 3.01077 18.6897 3.51355 19.5949 4.40932C21.266 6.08041 21.7409 9.15752 19.3297 11.5689Z" fill="black"/>
</svg>
