<svg width="24" height="24" viewBox="0 0 24 24" fill="none" xmlns="http://www.w3.org/2000/svg">
<path d="M10.4022 4.69575C11.2846 4.69575 12 3.98036 12 3.09787C12 2.21539 11.2846 1.5 10.4022 1.5C9.51968 1.5 8.80429 2.21539 8.80429 3.09787C8.80429 3.98036 9.51968 4.69575 10.4022 4.69575Z" fill="black"/>
<path d="M21.5682 16.8983L19.3209 17.4601L18.4219 13.2652C18.367 13.014 18.2281 12.789 18.0281 12.6273C17.8281 12.4657 17.5791 12.377 17.3219 12.3759H13.1639L12.861 9.7509H18.0001V8.2509H12.6879L12.4941 6.57156C12.4772 6.42479 12.4315 6.2828 12.3597 6.15369C12.2879 6.02457 12.1914 5.91087 12.0756 5.81907C11.9599 5.72726 11.8271 5.65916 11.6851 5.61864C11.543 5.57812 11.3943 5.56598 11.2476 5.58292L9.38495 5.79784L10.3172 13.8759H17.019L18.1795 19.2917L21.9322 18.3535L21.5682 16.8983Z" fill="black"/>
<path d="M10.5 20.9998C9.19585 20.9996 7.93228 20.5463 6.92547 19.7173C5.91866 18.8884 5.23118 17.7353 4.98063 16.4555C4.73008 15.1756 4.93203 13.8484 5.55194 12.701C6.17185 11.5536 7.17119 10.6573 8.379 10.1653L8.20186 8.63019C5.39733 9.58845 3.375 12.2498 3.375 15.3748C3.375 19.3035 6.57127 22.4998 10.5 22.4998C11.7261 22.4992 12.9313 22.1823 13.9992 21.5798C15.067 20.9772 15.9614 20.1094 16.5958 19.0602L16.125 16.8748C15.375 19.1248 13.2469 20.9998 10.5 20.9998Z" fill="black"/>
</svg>
