<svg width="24" height="24" viewBox="0 0 24 24" fill="none" xmlns="http://www.w3.org/2000/svg">
<path d="M2.625 11.9999V23.2499H21.375V11.9999C21.3743 11.4034 21.137 10.8315 20.7152 10.4097C20.2934 9.98786 19.7215 9.75059 19.125 9.7499H15.0648L15.6777 4.76883L15.6809 4.73709C15.7216 4.22897 15.6566 3.71792 15.49 3.23614C15.3235 2.75437 15.059 2.31228 14.7133 1.93774C14.3675 1.56319 13.9479 1.26429 13.4809 1.05985C13.014 0.855418 12.5098 0.749878 12 0.749878C11.4902 0.749878 10.986 0.855418 10.5191 1.05985C10.0521 1.26429 9.63252 1.56319 9.28675 1.93774C8.94097 2.31228 8.67649 2.75437 8.50996 3.23614C8.34342 3.71792 8.27843 4.22897 8.31909 4.73709L8.32036 4.75294L8.93517 9.7499H4.875C4.27847 9.75059 3.70657 9.98786 3.28476 10.4097C2.86295 10.8315 2.62568 11.4034 2.625 11.9999ZM19.875 21.7499H4.125V14.9999H19.875V21.7499ZM10.6313 11.2499L9.81319 4.60265C9.79098 4.30192 9.83105 3.99984 9.93088 3.7153C10.0307 3.43075 10.1882 3.16985 10.3934 2.94891C10.5986 2.72797 10.8472 2.55174 11.1236 2.43123C11.4 2.31072 11.6984 2.24852 11.9999 2.24852C12.3015 2.24852 12.5998 2.31072 12.8762 2.43123C13.1526 2.55174 13.4012 2.72797 13.6064 2.94891C13.8117 3.16985 13.9691 3.43075 14.0689 3.7153C14.1688 3.99984 14.2088 4.30192 14.1866 4.60265L13.369 11.2499H19.125C19.3238 11.2501 19.5145 11.3292 19.6551 11.4698C19.7957 11.6104 19.8748 11.8011 19.875 11.9999V13.4999H4.125V11.9999C4.12524 11.8011 4.20433 11.6104 4.34493 11.4698C4.48553 11.3292 4.67616 11.2501 4.875 11.2499H10.6313Z" fill="black"/>
</svg>
