<svg width="24" height="24" viewBox="0 0 24 24" fill="none" xmlns="http://www.w3.org/2000/svg">
<path d="M23.25 2.25H11.25V3.75H23.25V2.25Z" fill="black"/>
<path d="M23.25 8.25H11.25V9.75H23.25V8.25Z" fill="black"/>
<path d="M23.25 14.25H11.25V15.75H23.25V14.25Z" fill="black"/>
<path d="M23.25 20.25H11.25V21.75H23.25V20.25Z" fill="black"/>
<path d="M1.125 17.2499V18.6651L5.29392 23.2461L9.375 18.6604V17.2499H5.9625V6.74994H9.375V5.33478L5.20608 0.753784L1.125 5.33952V6.74994H4.4625V17.2499H1.125ZM3.21272 5.24994L5.21855 2.9961L7.26966 5.24994H3.21272ZM7.28728 18.7499L5.28145 21.0038L3.23034 18.7499H7.28728Z" fill="black"/>
</svg>
