<svg width="24" height="24" viewBox="0 0 24 24" fill="none" xmlns="http://www.w3.org/2000/svg">
<path d="M17.25 6H6.75C5.1587 6 3.63258 6.63214 2.50736 7.75736C1.38214 8.88258 0.75 10.4087 0.75 12C0.75 13.5913 1.38214 15.1174 2.50736 16.2426C3.63258 17.3679 5.1587 18 6.75 18H17.25C18.8413 18 20.3674 17.3679 21.4926 16.2426C22.6179 15.1174 23.25 13.5913 23.25 12C23.25 10.4087 22.6179 8.88258 21.4926 7.75736C20.3674 6.63214 18.8413 6 17.25 6ZM17.25 16.5H6.75C5.55653 16.5 4.41193 16.0259 3.56802 15.182C2.72411 14.3381 2.25 13.1935 2.25 12C2.25 10.8065 2.72411 9.66193 3.56802 8.81802C4.41193 7.97411 5.55653 7.5 6.75 7.5H17.25C18.4435 7.5 19.5881 7.97411 20.432 8.81802C21.2759 9.66193 21.75 10.8065 21.75 12C21.75 13.1935 21.2759 14.3381 20.432 15.182C19.5881 16.0259 18.4435 16.5 17.25 16.5Z" fill="black"/>
<path d="M17.25 9C16.6567 9 16.0766 9.17595 15.5833 9.50559C15.0899 9.83524 14.7054 10.3038 14.4784 10.8519C14.2513 11.4001 14.1919 12.0033 14.3076 12.5853C14.4234 13.1672 14.7091 13.7018 15.1287 14.1213C15.5482 14.5409 16.0828 14.8266 16.6647 14.9424C17.2467 15.0581 17.8499 14.9987 18.3981 14.7716C18.9462 14.5446 19.4148 14.1601 19.7444 13.6667C20.0741 13.1734 20.25 12.5933 20.25 12C20.2491 11.2046 19.9328 10.4421 19.3703 9.87967C18.8079 9.31725 18.0454 9.00089 17.25 9ZM17.25 13.5C16.9533 13.5 16.6633 13.412 16.4166 13.2472C16.17 13.0824 15.9777 12.8481 15.8642 12.574C15.7507 12.2999 15.7209 11.9983 15.7788 11.7074C15.8367 11.4164 15.9796 11.1491 16.1893 10.9393C16.3991 10.7296 16.6664 10.5867 16.9574 10.5288C17.2483 10.4709 17.5499 10.5006 17.824 10.6142C18.0981 10.7277 18.3324 10.92 18.4972 11.1666C18.662 11.4133 18.75 11.7033 18.75 12C18.7496 12.3977 18.5914 12.779 18.3102 13.0602C18.029 13.3414 17.6477 13.4996 17.25 13.5Z" fill="black"/>
</svg>
