<svg width="24" height="24" viewBox="0 0 24 24" fill="none" xmlns="http://www.w3.org/2000/svg">
<g clip-path="url(#clip0_201_55599)">
<path d="M5.8125 6.375H1.6875C1.43895 6.37529 1.20066 6.47415 1.0249 6.6499C0.849149 6.82566 0.750285 7.06395 0.75 7.3125V22.3125C0.750285 22.5611 0.849149 22.7993 1.0249 22.9751C1.20066 23.1509 1.43895 23.2497 1.6875 23.25H5.8125C6.06105 23.2497 6.29934 23.1509 6.4751 22.9751C6.65085 22.7993 6.74971 22.5611 6.75 22.3125V7.3125C6.74971 7.06395 6.65085 6.82566 6.4751 6.6499C6.29934 6.47415 6.06105 6.37529 5.8125 6.375ZM5.25 21.75H2.25V7.875H5.25V21.75Z" fill="black"/>
<path d="M14.0625 11.25H9.9375C9.68895 11.2503 9.45066 11.3491 9.2749 11.5249C9.09915 11.7007 9.00029 11.9389 9 12.1875V22.3125C9.00029 22.5611 9.09915 22.7993 9.2749 22.9751C9.45066 23.1509 9.68895 23.2497 9.9375 23.25H14.0625C14.3111 23.2497 14.5493 23.1509 14.7251 22.9751C14.9009 22.7993 14.9997 22.5611 15 22.3125V12.1875C14.9997 11.9389 14.9009 11.7007 14.7251 11.5249C14.5493 11.3491 14.3111 11.2503 14.0625 11.25ZM13.5 21.75H10.5V12.75H13.5V21.75Z" fill="black"/>
<path d="M22.3125 0.75H18.1875C17.9389 0.750285 17.7007 0.849149 17.5249 1.0249C17.3491 1.20066 17.2503 1.43895 17.25 1.6875V22.3125C17.2503 22.5611 17.3491 22.7993 17.5249 22.9751C17.7007 23.1509 17.9389 23.2497 18.1875 23.25H22.3125C22.5611 23.2497 22.7993 23.1509 22.9751 22.9751C23.1509 22.7993 23.2497 22.5611 23.25 22.3125V1.6875C23.2497 1.43895 23.1509 1.20066 22.9751 1.0249C22.7993 0.849149 22.5611 0.750285 22.3125 0.75ZM21.75 21.75H18.75V2.25H21.75V21.75Z" fill="black"/>
</g>
<defs>
<clipPath id="clip0_201_55599">
<rect width="24" height="24" fill="white"/>
</clipPath>
</defs>
</svg>
