<svg width="24" height="24" viewBox="0 0 24 24" fill="none" xmlns="http://www.w3.org/2000/svg">
<path d="M20.8313 11.0268L6.20039 2.31804C6.02961 2.21639 5.83495 2.1618 5.63621 2.15982C5.43748 2.15783 5.24177 2.20854 5.06899 2.30676C4.89622 2.40499 4.75255 2.54723 4.6526 2.71902C4.55266 2.8908 4.5 3.086 4.5 3.28474V20.3539C4.50023 20.5509 4.55213 20.7443 4.65052 20.9149C4.74891 21.0856 4.89035 21.2274 5.0607 21.3263C5.23105 21.4251 5.42436 21.4776 5.62133 21.4784C5.81829 21.4791 6.01201 21.4282 6.18314 21.3307L20.8139 12.9704C20.9846 12.8729 21.1268 12.7323 21.2262 12.5626C21.3257 12.393 21.3789 12.2003 21.3807 12.0036C21.3824 11.807 21.3326 11.6133 21.2362 11.442C21.1397 11.2706 21.0001 11.1275 20.8311 11.0269L20.8313 11.0268ZM6 19.7077V3.94437L19.5114 11.9869L6 19.7077Z" fill="black"/>
</svg>
