<svg width="24" height="24" viewBox="0 0 24 24" fill="none" xmlns="http://www.w3.org/2000/svg">
<path d="M22.125 3H1.875C1.57674 3.00035 1.29079 3.11899 1.07989 3.32989C0.868985 3.54079 0.750347 3.82674 0.75 4.125V19.875C0.750347 20.1733 0.868985 20.4592 1.07989 20.6701C1.29079 20.881 1.57674 20.9997 1.875 21H22.125C22.4233 20.9997 22.7092 20.881 22.9201 20.6701C23.131 20.4592 23.2497 20.1733 23.25 19.875V4.125C23.2497 3.82674 23.131 3.54079 22.9201 3.32989C22.7092 3.11899 22.4233 3.00035 22.125 3ZM21.75 19.5H2.25V4.5H21.75V19.5Z" fill="black"/>
<path d="M8.625 16.1249C9.55216 16.1282 10.4529 15.8159 11.1789 15.2394L10.2496 14.0619C9.78771 14.4286 9.21476 14.6271 8.625 14.6249C7.92881 14.6249 7.26113 14.3483 6.76884 13.856C6.27656 13.3638 6 12.6961 6 11.9999C6 11.3037 6.27656 10.636 6.76884 10.1437C7.26113 9.65146 7.92881 9.3749 8.625 9.3749C9.21476 9.37267 9.78771 9.57121 10.2496 9.93787L11.1789 8.76042C10.4529 8.18385 9.55216 7.87156 8.625 7.8749C7.53098 7.8749 6.48177 8.3095 5.70818 9.08309C4.9346 9.85667 4.5 10.9059 4.5 11.9999C4.5 13.0939 4.9346 14.1431 5.70818 14.9167C6.48177 15.6903 7.53098 16.1249 8.625 16.1249Z" fill="black"/>
<path d="M16.2857 16.1249C17.2129 16.1282 18.1136 15.8159 18.8397 15.2394L17.9104 14.0619C17.4484 14.4286 16.8755 14.6271 16.2857 14.6249C15.5895 14.6249 14.9219 14.3483 14.4296 13.856C13.9373 13.3638 13.6607 12.6961 13.6607 11.9999C13.6607 11.3037 13.9373 10.636 14.4296 10.1437C14.9219 9.65146 15.5895 9.3749 16.2857 9.3749C16.8755 9.37268 17.4484 9.57122 17.9104 9.93787L18.8397 8.76042C18.1136 8.18385 17.2129 7.87156 16.2857 7.8749C15.1917 7.8749 14.1425 8.3095 13.3689 9.08309C12.5953 9.85667 12.1607 10.9059 12.1607 11.9999C12.1607 13.0939 12.5953 14.1431 13.3689 14.9167C14.1425 15.6903 15.1917 16.1249 16.2857 16.1249Z" fill="black"/>
</svg>
