<svg width="24" height="24" viewBox="0 0 24 24" fill="none" xmlns="http://www.w3.org/2000/svg">
<path d="M3.23358 17.9364L11.2656 22.5736C11.4938 22.7049 11.7524 22.774 12.0156 22.774C12.2788 22.774 12.5375 22.7049 12.7656 22.5736L20.7977 17.9364C21.0255 17.8044 21.2146 17.6149 21.3462 17.387C21.4778 17.159 21.5473 16.9005 21.5477 16.6373V7.36276C21.5473 7.09954 21.4778 6.84104 21.3462 6.61309C21.2146 6.38513 21.0255 6.1957 20.7977 6.06371L12.7657 1.42641C12.5375 1.29516 12.2789 1.22607 12.0157 1.22607C11.7524 1.22607 11.4938 1.29516 11.2657 1.42641L3.23358 6.06371C3.00584 6.19569 2.81671 6.38512 2.6851 6.61308C2.55349 6.84103 2.48401 7.09954 2.48358 7.36276V16.6374C2.48401 16.9006 2.55349 17.1591 2.6851 17.387C2.81671 17.615 3.00584 17.8044 3.23358 17.9364ZM12.7656 3.15849L20.0477 7.36276V15.6774L12.7656 11.5614V3.15849ZM12.0132 12.8591L19.3799 17.0229L12.0158 21.2745L4.64902 17.0215L12.0132 12.8591ZM3.98358 7.36276L11.2656 3.15849V11.5585L3.98358 15.6746V7.36276Z" fill="black"/>
</svg>
