<svg width="24" height="24" viewBox="0 0 24 24" fill="none" xmlns="http://www.w3.org/2000/svg">
<path d="M20.625 0.75H3.75C3.45174 0.750347 3.16579 0.868985 2.95489 1.07989C2.74399 1.29079 2.62535 1.57674 2.625 1.875V22.125C2.62535 22.4233 2.74399 22.7092 2.95489 22.9201C3.16579 23.131 3.45174 23.2497 3.75 23.25H20.625C20.9233 23.2497 21.2092 23.131 21.4201 22.9201C21.631 22.7092 21.7497 22.4233 21.75 22.125V1.875C21.7497 1.57674 21.631 1.29079 21.4201 1.07989C21.2092 0.868985 20.9233 0.750347 20.625 0.75ZM20.25 21.75H4.125V17.25H20.25V21.75ZM20.25 15.75H4.125V2.25H20.25V15.75Z" fill="black"/>
<path d="M12.375 18.75H10.875V20.25H12.375V18.75Z" fill="black"/>
</svg>
