<svg width="24" height="24" viewBox="0 0 24 24" fill="none" xmlns="http://www.w3.org/2000/svg">
<path d="M9.375 2.25H3.375C3.07674 2.25035 2.79079 2.36899 2.57989 2.57989C2.36899 2.79079 2.25035 3.07674 2.25 3.375V20.625C2.25035 20.9233 2.36899 21.2092 2.57989 21.4201C2.79079 21.631 3.07674 21.7497 3.375 21.75H9.375C9.67326 21.7497 9.95921 21.631 10.1701 21.4201C10.381 21.2092 10.4997 20.9233 10.5 20.625V3.375C10.4997 3.07674 10.381 2.79079 10.1701 2.57989C9.95921 2.36899 9.67326 2.25035 9.375 2.25ZM9 20.25H3.75V3.75H9V20.25Z" fill="black"/>
<path d="M20.625 2.25H14.625C14.3267 2.25035 14.0408 2.36899 13.8299 2.57989C13.619 2.79079 13.5003 3.07674 13.5 3.375V20.625C13.5003 20.9233 13.619 21.2092 13.8299 21.4201C14.0408 21.631 14.3267 21.7497 14.625 21.75H20.625C20.9233 21.7497 21.2092 21.631 21.4201 21.4201C21.631 21.2092 21.7497 20.9233 21.75 20.625V3.375C21.7497 3.07674 21.631 2.79079 21.4201 2.57989C21.2092 2.36899 20.9233 2.25035 20.625 2.25ZM20.25 20.25H15V3.75H20.25V20.25Z" fill="black"/>
</svg>
