<svg width="24" height="24" viewBox="0 0 24 24" fill="none" xmlns="http://www.w3.org/2000/svg">
<path d="M17.945 14.277C17.5861 12.9758 16.8101 11.8283 15.7363 11.0106C14.6624 10.1928 13.3499 9.75 12.0001 9.75C10.6503 9.75 9.33778 10.1928 8.2639 11.0106C7.19003 11.8283 6.4141 12.9758 6.05516 14.277L5.19978 17.3778C5.0462 17.9345 5.02329 18.5192 5.13283 19.0863C5.24237 19.6533 5.4814 20.1874 5.83129 20.6469C6.18118 21.1064 6.63247 21.4788 7.14997 21.7352C7.66747 21.9916 8.2372 22.125 8.81474 22.125H15.1854C15.763 22.125 16.3327 21.9916 16.8502 21.7352C17.3677 21.4788 17.819 21.1064 18.1689 20.6469C18.5188 20.1874 18.7578 19.6533 18.8673 19.0863C18.9769 18.5192 18.954 17.9345 18.8004 17.3778L17.945 14.277ZM16.9755 19.738C16.7665 20.0147 16.4959 20.2389 16.1852 20.3929C15.8745 20.5468 15.5322 20.6263 15.1854 20.625H8.81474C8.46821 20.625 8.12637 20.545 7.81586 20.3912C7.50535 20.2373 7.23457 20.0138 7.02463 19.7382C6.8147 19.4625 6.67128 19.142 6.60555 18.8018C6.53983 18.4615 6.55358 18.1107 6.64574 17.7767L7.50111 14.6759C7.77275 13.6912 8.35996 12.8228 9.17264 12.204C9.98532 11.5851 10.9786 11.25 12.0001 11.25C13.0216 11.25 14.0148 11.5851 14.8275 12.204C15.6402 12.8228 16.2274 13.6912 16.499 14.6759L17.3544 17.7767C17.4479 18.1106 17.4623 18.4617 17.3966 18.8021C17.3308 19.1426 17.1867 19.4631 16.9755 19.7382V19.738Z" fill="black"/>
<path d="M6.84846 10.7958C6.97896 9.98014 6.8059 9.10699 6.36096 8.33655C5.91603 7.56611 5.24628 6.97966 4.47485 6.68486C3.64873 6.36935 2.8061 6.4196 2.10139 6.82629C0.700433 7.63516 0.331761 9.62871 1.27971 11.2703C1.72451 12.0407 2.39431 12.6273 3.16573 12.922C3.50745 13.0551 3.87068 13.1246 4.23743 13.1269C4.69434 13.1285 5.14352 13.009 5.5392 12.7805C6.2435 12.3738 6.7085 11.6689 6.84846 10.7958ZM5.36721 10.5587C5.30018 10.9772 5.09487 11.3049 4.7891 11.4815C4.48334 11.658 4.0969 11.6719 3.70081 11.5207C3.2502 11.3486 2.85167 10.9933 2.57857 10.5203C2.05357 9.6109 2.17835 8.51402 2.85139 8.12533C3.02058 8.02932 3.21219 7.97986 3.40671 7.98199C3.58919 7.98388 3.76978 8.0191 3.93959 8.08591C4.3902 8.25808 4.78873 8.61335 5.06182 9.08637C5.33492 9.55938 5.44334 10.0824 5.36721 10.5587Z" fill="black"/>
<path d="M7.01097 7.68829C7.54356 8.11406 8.15176 8.33578 8.76681 8.33573C8.95104 8.33567 9.13473 8.31586 9.31473 8.27662C10.8955 7.93298 11.8539 6.14648 11.4513 4.29422C11.2624 3.42487 10.8031 2.66217 10.1581 2.1465C9.4674 1.59431 8.64925 1.3853 7.85434 1.55817C6.27363 1.90177 5.31517 3.68827 5.71778 5.54053C5.90674 6.40992 6.36602 7.17262 7.01097 7.68829ZM8.1729 3.02395C8.24579 3.00824 8.32015 3.00038 8.39472 3.00052C8.67353 3.00052 8.96031 3.10959 9.22145 3.31837C9.59818 3.61955 9.86954 4.07934 9.98551 4.61311C10.2086 5.63944 9.75554 6.64598 8.99612 6.81108C8.65108 6.88608 8.2787 6.78164 7.94767 6.51693C7.57094 6.21572 7.29958 5.75592 7.18361 5.2222C6.96044 4.19559 7.41353 3.18905 8.1729 3.02395Z" fill="black"/>
<path d="M21.8986 6.82628C21.1942 6.4196 20.3511 6.36935 19.5251 6.68486C18.7537 6.97956 18.0839 7.56611 17.6391 8.33655C17.1943 9.10699 17.0212 9.98031 17.1516 10.7958C17.2914 11.6689 17.7563 12.3738 18.4609 12.7805C18.8565 13.009 19.3057 13.1285 19.7626 13.1268C20.1294 13.1246 20.4926 13.0551 20.8343 12.922C21.6058 12.6273 22.2756 12.0407 22.7204 11.2703C23.6682 9.62871 23.2995 7.63516 21.8986 6.82628ZM21.4214 10.5203C21.1483 10.9933 20.7498 11.3486 20.2992 11.5207C19.9033 11.672 19.5167 11.6581 19.211 11.4814C18.9052 11.3048 18.7 10.9772 18.6329 10.5587C18.5566 10.0824 18.665 9.55957 18.9381 9.08678C19.2113 8.614 19.6098 8.2585 20.0604 8.08633C20.2302 8.01946 20.4108 7.98417 20.5933 7.98222C20.7878 7.98009 20.9794 8.02955 21.1486 8.12556C21.8216 8.51392 21.9465 9.61066 21.4214 10.5203Z" fill="black"/>
<path d="M14.6853 8.27654C14.8653 8.31578 15.049 8.3356 15.2332 8.33565C15.8482 8.33565 16.4567 8.11398 16.9891 7.68822C17.634 7.17259 18.0933 6.40984 18.2822 5.5405C18.6849 3.68823 17.7264 1.90173 16.1457 1.55814C15.3508 1.38536 14.5326 1.59423 13.8419 2.14647C13.1969 2.66209 12.7376 3.42484 12.5487 4.29414C12.1461 6.1464 13.1045 7.9329 14.6853 8.27654ZM14.0145 4.6128C14.1305 4.07903 14.4018 3.61905 14.7786 3.31806C15.0398 3.10928 15.3265 3.0002 15.6053 3.0002C15.6799 3.00007 15.7542 3.00792 15.8271 3.02364C16.5865 3.18873 17.0396 4.19551 16.8165 5.22161C16.7004 5.75537 16.4291 6.21536 16.0524 6.51639C15.7215 6.78104 15.3493 6.88548 15.004 6.81053C14.2445 6.64567 13.7914 5.63898 14.0145 4.6128Z" fill="black"/>
</svg>
