<svg width="24" height="24" viewBox="0 0 24 24" fill="none" xmlns="http://www.w3.org/2000/svg">
<g clip-path="url(#clip0_201_56102)">
<path d="M21.6817 14.8263L18.6656 12.8529L19.8269 10.7239C20.107 10.1923 20.2537 9.60062 20.2545 8.99975V5.62475C20.2568 4.67577 19.982 3.74677 19.4637 2.95182C18.9454 2.15687 18.2062 1.53057 17.337 1.14985C16.4677 0.76912 15.5062 0.650532 14.5705 0.808645C13.6348 0.966759 12.7656 1.39469 12.0697 2.03989L13.0891 3.14038C13.5713 2.69454 14.1732 2.39909 14.8208 2.29025C15.4684 2.18142 16.1338 2.26394 16.7352 2.52768C17.3367 2.79142 17.8481 3.22493 18.2067 3.77506C18.5654 4.32519 18.7558 4.96803 18.7545 5.62475V8.99975C18.7543 9.34964 18.6705 9.69441 18.51 10.0053L16.6859 13.3498L20.8604 16.0813C21.136 16.2617 21.3621 16.508 21.5183 16.798C21.6744 17.088 21.7556 17.4124 21.7545 17.7417V20.2498H18.3795V21.7498H23.2545V17.7417C23.256 17.1632 23.1129 16.5934 22.8382 16.0843C22.5636 15.5752 22.166 15.1427 21.6817 14.8263Z" fill="black"/>
<path d="M14.9316 16.3264L11.9155 14.3529L13.0768 12.224C13.3569 11.6924 13.5036 11.1007 13.5044 10.4998V7.12481C13.5034 5.83117 12.9893 4.59073 12.0749 3.67563C11.1606 2.76053 9.92052 2.2455 8.62687 2.24353C5.94014 2.24353 3.75436 4.4333 3.75436 7.12481V10.4998C3.7515 11.1004 3.89663 11.6925 4.17694 12.2236L5.3445 14.3641L2.34595 16.3264C1.86221 16.6423 1.46501 17.074 1.1904 17.5823C0.915794 18.0907 0.772471 18.6595 0.773438 19.2373L0.75 23.2498H16.5044V19.2417C16.5059 18.6632 16.3628 18.0935 16.0881 17.5844C15.8135 17.0752 15.4159 16.6428 14.9316 16.3264ZM15.0044 21.7498H2.25872L2.27325 19.2417C2.27212 18.9124 2.35331 18.588 2.50945 18.298C2.66559 18.008 2.89172 17.7617 3.1673 17.5814L7.32427 14.8612L5.49375 11.5054C5.33506 11.194 5.25299 10.8493 5.25436 10.4998V7.12481C5.25436 6.22971 5.60994 5.37126 6.24287 4.73833C6.87581 4.10539 7.73425 3.74981 8.62936 3.74981C9.52447 3.74981 10.3829 4.10539 11.0158 4.73833C11.6488 5.37126 12.0044 6.22971 12.0044 7.12481V10.4998C12.0042 10.8497 11.9204 11.1945 11.7599 11.5054L9.93572 14.8498L14.1103 17.5814C14.3859 17.7617 14.612 18.0081 14.7681 18.2981C14.9243 18.588 15.0055 18.9124 15.0044 19.2418V21.7498Z" fill="black"/>
</g>
<defs>
<clipPath id="clip0_201_56102">
<rect width="24" height="24" fill="white"/>
</clipPath>
</defs>
</svg>
