<svg width="24" height="24" viewBox="0 0 24 24" fill="none" xmlns="http://www.w3.org/2000/svg">
<path d="M8.97656 17.625H13.5234C14.9091 17.6234 16.2376 17.0723 17.2174 16.0924C18.1973 15.1126 18.7484 13.7841 18.75 12.3984V11.625H19.875C20.7701 11.625 21.6285 11.2694 22.2615 10.6365C22.8944 10.0036 23.25 9.14511 23.25 8.25C23.25 7.35489 22.8944 6.49645 22.2615 5.86351C21.6285 5.23058 20.7701 4.875 19.875 4.875H3.75V12.3984C3.75158 13.7841 4.30274 15.1126 5.28256 16.0924C6.26239 17.0723 7.59088 17.6234 8.97656 17.625ZM18.75 6.375H19.875C20.3723 6.375 20.8492 6.57254 21.2008 6.92417C21.5525 7.27581 21.75 7.75272 21.75 8.25C21.75 8.74728 21.5525 9.22419 21.2008 9.57583C20.8492 9.92746 20.3723 10.125 19.875 10.125H18.75V6.375ZM5.25 6.375H17.25V12.3984C17.2489 13.3864 16.8559 14.3337 16.1573 15.0323C15.4587 15.7309 14.5114 16.1239 13.5234 16.125H8.97656C7.98856 16.1239 7.04133 15.7309 6.3427 15.0323C5.64408 14.3337 5.2511 13.3864 5.25 12.3984V6.375Z" fill="black"/>
<path d="M23.25 19.5H0.75V21H23.25V19.5Z" fill="black"/>
</svg>
