<svg width="24" height="24" viewBox="0 0 24 24" fill="none" xmlns="http://www.w3.org/2000/svg">
<path d="M17.25 8.625H19.4746C19.256 11.8684 17.609 14.2328 15 15.2282V13.5H9V15.2282C6.39113 14.2328 4.74403 11.8684 4.52541 8.625H6.75V2.625H0.75V8.625H3.02208C3.16237 10.9863 3.97092 13.0252 5.38181 14.5564C6.07082 15.3051 6.89633 15.9154 7.81406 16.3547L5.52188 17.1188C5.40337 16.9625 5.26806 16.8197 5.11837 16.693C4.85214 16.4679 4.54419 16.2976 4.2121 16.1915C3.88002 16.0855 3.5303 16.0459 3.18292 16.0751C2.83554 16.1042 2.4973 16.2015 2.18751 16.3613C1.87773 16.5212 1.60246 16.7405 1.37742 17.0067C1.05102 17.393 0.841721 17.8644 0.774166 18.3656C0.70661 18.8668 0.783604 19.3768 0.996089 19.8357C1.20857 20.2946 1.54771 20.6833 1.97359 20.956C2.39947 21.2287 2.89438 21.374 3.40008 21.375C3.47508 21.375 3.5505 21.3719 3.62634 21.3656C4.32361 21.3073 4.96962 20.9759 5.42376 20.4436C5.8779 19.9113 6.10342 19.2212 6.05123 18.5234L9 17.5406V19.5H15V17.5406L17.9484 18.5233C17.9382 18.6628 17.9389 18.8029 17.9505 18.9423C18.0061 19.6047 18.3083 20.2222 18.7972 20.6726C19.2861 21.1231 19.9262 21.3737 20.591 21.375C20.666 21.375 20.7414 21.3719 20.8173 21.3656C21.2523 21.3292 21.6716 21.186 22.0381 20.9487C22.4045 20.7115 22.7068 20.3875 22.9182 20.0056C23.1295 19.6236 23.2434 19.1954 23.2498 18.7589C23.2561 18.3224 23.1547 17.8911 22.9545 17.5031C22.7543 17.1152 22.4615 16.7826 22.1021 16.5348C21.7427 16.2871 21.3277 16.1318 20.894 16.0827C20.4602 16.0336 20.021 16.0922 19.6153 16.2534C19.2096 16.4146 18.8499 16.6734 18.5681 17.0068C18.5371 17.0435 18.5072 17.081 18.4786 17.1189L16.1859 16.3547C17.1037 15.9154 17.9293 15.3051 18.6183 14.5564C20.0293 13.0252 20.8378 10.9863 20.9781 8.625H23.25V2.625H17.25V8.625ZM2.25 7.125V4.125H5.25V7.125H2.25ZM4.28625 19.4658C4.08858 19.6996 3.80611 19.8454 3.50099 19.871C3.19586 19.8965 2.89306 19.7999 2.65922 19.6022C2.42537 19.4045 2.27963 19.122 2.25405 18.8169C2.22847 18.5118 2.32514 18.209 2.52281 17.9752C2.62041 17.8591 2.74006 17.7635 2.87485 17.6939C3.00964 17.6244 3.15688 17.5822 3.30806 17.57C3.34097 17.5672 3.37378 17.5659 3.4065 17.5658C3.62647 17.5662 3.84175 17.6294 4.027 17.748C4.21226 17.8666 4.35978 18.0357 4.45221 18.2353C4.54463 18.4349 4.57812 18.6567 4.54872 18.8747C4.51931 19.0927 4.42825 19.2978 4.28625 19.4658ZM13.5 18H10.5V15H13.5V18ZM19.7137 17.9752C19.8113 17.8591 19.931 17.7635 20.0658 17.6939C20.2006 17.6244 20.3478 17.5823 20.499 17.57C20.5319 17.5673 20.5647 17.5659 20.5974 17.5659C20.8604 17.5663 21.1153 17.6564 21.3201 17.8213C21.5249 17.9862 21.6672 18.2161 21.7236 18.4729C21.78 18.7298 21.7471 18.9981 21.6303 19.2337C21.5135 19.4693 21.3197 19.6579 21.0812 19.7684C20.8426 19.879 20.5734 19.9048 20.3182 19.8416C20.063 19.7784 19.8369 19.6299 19.6775 19.4209C19.5181 19.2118 19.4348 18.9545 19.4414 18.6917C19.448 18.4288 19.5441 18.1761 19.7138 17.9752L19.7137 17.9752ZM18.75 4.125H21.75V7.125H18.75V4.125Z" fill="black"/>
</svg>
