<svg width="24" height="24" viewBox="0 0 24 24" fill="none" xmlns="http://www.w3.org/2000/svg">
<g clip-path="url(#clip0_201_56651)">
<path d="M12.75 16.5H11.25V18H12.75V16.5Z" fill="black"/>
<path d="M16.6599 0.75H7.34014L5.70251 2.52052L6.764 3.582L7.99597 2.25H16.0041L21.75 8.46234V15.5377L20.294 17.112L21.3554 18.1734L23.25 16.125V7.875L16.6599 0.75Z" fill="black"/>
<path d="M11.25 6V8.06803L12.75 9.56803V6H11.25Z" fill="black"/>
<path d="M0.75 0.75V1.81064L3.66394 4.72458L0.75 7.875V16.125L7.34011 23.25H16.6599L19.3168 20.3775L22.1894 23.25H23.25V22.1894L1.81064 0.75H0.75ZM16.0041 21.75H7.99594L2.25 15.5377V8.46234L4.72537 5.78602L11.25 12.3106V15H12.75V13.8106L18.2553 19.316L16.0041 21.75Z" fill="black"/>
</g>
<defs>
<clipPath id="clip0_201_56651">
<rect width="24" height="24" fill="white"/>
</clipPath>
</defs>
</svg>
