<svg width="24" height="24" viewBox="0 0 24 24" fill="none" xmlns="http://www.w3.org/2000/svg">
<path d="M21.9508 4.97434C18.5101 2.67976 15.2582 1.54398 12.0096 1.50203C8.71987 1.46148 5.4749 2.4722 2.08771 4.59723C1.75595 4.80342 1.51824 5.13144 1.42559 5.51091C1.33294 5.89038 1.39274 6.29104 1.59215 6.62692L10.7134 22.1669C10.8441 22.3922 11.0318 22.5793 11.2576 22.7093C11.4834 22.8393 11.7394 22.9076 11.9999 22.9076H12.0074C12.2666 22.9088 12.5217 22.8423 12.7473 22.7145C12.9728 22.5868 13.1611 22.4023 13.2934 22.1793L22.4043 6.99423C22.6032 6.66389 22.667 6.26958 22.5825 5.89335C22.4981 5.51712 22.2718 5.18795 21.9508 4.97434ZM21.1181 6.22234L12.007 21.4076L2.88492 5.86787C5.95809 3.93971 8.88056 3.0009 11.8127 3.0009C11.8719 3.0009 11.9311 3.00128 11.9902 3.00203C14.9403 3.04009 17.9262 4.09351 21.1185 6.22234H21.1181Z" fill="black"/>
<path d="M10.4802 10.8518C10.4357 10.5985 10.3171 10.3642 10.1394 10.1784C9.96171 9.99259 9.7329 9.86365 9.48192 9.80788C9.23094 9.75211 8.96906 9.77202 8.7294 9.8651C8.48974 9.95817 8.28306 10.1202 8.1355 10.3308C7.98794 10.5413 7.90613 10.7909 7.90041 11.0479C7.89469 11.3049 7.96532 11.5579 8.10337 11.7748C8.24142 11.9917 8.44069 12.1628 8.67598 12.2664C8.91127 12.3701 9.172 12.4016 9.42521 12.357C9.76472 12.2973 10.0666 12.1052 10.2644 11.8229C10.4623 11.5406 10.5399 11.1913 10.4802 10.8518Z" fill="black"/>
<path d="M15.2716 14.2869C15.8165 13.8194 15.8792 12.9988 15.4118 12.4539C14.9443 11.9091 14.1237 11.8463 13.5788 12.3138C13.0339 12.7812 12.9712 13.6019 13.4386 14.1467C13.9061 14.6916 14.7267 14.7544 15.2716 14.2869Z" fill="black"/>
<path d="M10.98 14.8002L10.0197 15.9525L12.2696 17.8275L13.23 16.6752L10.98 14.8002Z" fill="black"/>
<path d="M14.7365 7.92446L11.7365 9.04945L12.2632 10.4539L15.2632 9.32895L14.7365 7.92446Z" fill="black"/>
<path d="M5.64844 8.51169C7.20881 7.53271 9.61153 6.37555 12.2493 6.37555C12.2878 6.37555 12.3265 6.3758 12.3652 6.3763C14.5625 6.40443 16.5782 7.07943 18.7087 8.50035L19.541 7.2524C17.1585 5.66366 14.8845 4.90865 12.3845 4.8764C9.3352 4.83866 6.60539 6.14076 4.85156 7.24105L5.64844 8.51169Z" fill="black"/>
</svg>
