<svg width="24" height="24" viewBox="0 0 24 24" fill="none" xmlns="http://www.w3.org/2000/svg">
<path d="M18.6461 22.1254H11.1602C10.9144 22.1248 10.6756 22.044 10.48 21.8953C10.2843 21.7466 10.1426 21.5381 10.0763 21.3015L8.42991 15.3754H3.1875C2.54103 15.3754 1.92105 15.1186 1.46393 14.6614C1.00681 14.2043 0.75 13.5843 0.75 12.9379C0.75 12.2914 1.00681 11.6714 1.46393 11.2143C1.92105 10.7572 2.54103 10.5004 3.1875 10.5004H11.625V9.35577L10.5656 8.48886C10.1257 8.12898 9.76275 7.68429 9.49823 7.18126C9.2337 6.67823 9.07306 6.12714 9.02586 5.56076C8.97866 4.99438 9.04586 4.4243 9.22347 3.88442C9.40108 3.34455 9.68546 2.84591 10.0597 2.41818C10.158 2.30587 10.2776 2.21424 10.4116 2.14861C10.5457 2.08299 10.6914 2.04468 10.8404 2.03593C10.9894 2.02718 11.1386 2.04816 11.2794 2.09764C11.4202 2.14712 11.5497 2.22412 11.6604 2.32415L23.25 12.7921V19.55L19.2249 21.9651C19.0501 22.07 18.85 22.1254 18.6461 22.1254ZM11.445 20.6254H18.5422L21.75 18.7007V13.4586L10.957 3.7101C10.5875 4.2758 10.4401 4.95814 10.5431 5.62595C10.6462 6.29377 10.9924 6.89992 11.5153 7.32791L13.125 8.6451V12.0004H3.1875C2.93886 12.0004 2.7004 12.0991 2.52459 12.275C2.34877 12.4508 2.25 12.6892 2.25 12.9379C2.25 13.1865 2.34877 13.425 2.52459 13.6008C2.7004 13.7766 2.93886 13.8754 3.1875 13.8754H9.57009L11.445 20.6254ZM10.655 3.43729L10.6561 3.43822L10.655 3.43729Z" fill="black"/>
</svg>
