<svg width="24" height="24" viewBox="0 0 24 24" fill="none" xmlns="http://www.w3.org/2000/svg">
<g clip-path="url(#clip0_201_56026)">
<path d="M12 0.75C5.78681 0.75 0.75 5.78681 0.75 12C0.75 18.2132 5.78681 23.25 12 23.25C18.2132 23.25 23.25 18.2132 23.25 12C23.25 5.78681 18.2132 0.75 12 0.75ZM18.8943 18.8943C17.1848 20.5987 14.9019 21.6056 12.4906 21.7188C10.0792 21.832 7.7121 21.0434 5.85044 19.5066C3.98877 17.9698 2.76594 15.795 2.4202 13.4059C2.07446 11.0168 2.63058 8.5845 3.98021 6.58302C5.32984 4.58153 7.37629 3.15421 9.72081 2.57917C12.0653 2.00412 14.54 2.32255 16.6625 3.4724C18.7851 4.62226 20.4035 6.52117 21.2025 8.79912C22.0014 11.0771 21.9237 13.5709 20.9844 15.7947C20.4948 16.9534 19.785 18.0061 18.8943 18.8943Z" fill="black"/>
<path d="M9 9.375H7.125V11.25H9V9.375Z" fill="black"/>
<path d="M16.875 9.375H15V11.25H16.875V9.375Z" fill="black"/>
<path d="M12 13.5C10.9064 13.5012 9.85787 13.9362 9.08455 14.7096C8.31124 15.4829 7.87624 16.5314 7.875 17.625H9.375C9.375 16.9288 9.65156 16.2611 10.1438 15.7688C10.6361 15.2766 11.3038 15 12 15C12.6962 15 13.3639 15.2766 13.8562 15.7688C14.3484 16.2611 14.625 16.9288 14.625 17.625H16.125C16.1238 16.5314 15.6888 15.4829 14.9154 14.7096C14.1421 13.9362 13.0936 13.5012 12 13.5Z" fill="black"/>
</g>
<defs>
<clipPath id="clip0_201_56026">
<rect width="24" height="24" fill="white"/>
</clipPath>
</defs>
</svg>
