<svg width="24" height="24" viewBox="0 0 24 24" fill="none" xmlns="http://www.w3.org/2000/svg">
<g clip-path="url(#clip0_201_56887)">
<path d="M12 4.875C8.07127 4.875 4.875 8.07127 4.875 12C4.875 15.9287 8.07127 19.125 12 19.125C15.9287 19.125 19.125 15.9287 19.125 12C19.125 8.07127 15.9287 4.875 12 4.875ZM12 17.625C10.8875 17.625 9.79994 17.2951 8.87492 16.677C7.94989 16.0589 7.22892 15.1804 6.80318 14.1526C6.37743 13.1248 6.26604 11.9938 6.48308 10.9026C6.70012 9.81147 7.23585 8.80919 8.02252 8.02252C8.80919 7.23585 9.81147 6.70012 10.9026 6.48308C11.9938 6.26604 13.1248 6.37743 14.1526 6.80318C15.1804 7.22892 16.0589 7.94989 16.677 8.87492C17.2951 9.79994 17.625 10.8875 17.625 12C17.6233 13.4913 17.0301 14.9211 15.9756 15.9756C14.9211 17.0301 13.4913 17.6233 12 17.625Z" fill="black"/>
<path d="M12.75 0.75H11.25V3H12.75V0.75Z" fill="black"/>
<path d="M12.75 21H11.25V23.25H12.75V21Z" fill="black"/>
<path d="M23.25 11.25H21V12.75H23.25V11.25Z" fill="black"/>
<path d="M3 11.25H0.75V12.75H3V11.25Z" fill="black"/>
<path d="M19.2804 18.2192L18.2197 19.2799L19.7197 20.7799L20.7804 19.7193L19.2804 18.2192Z" fill="black"/>
<path d="M4.28042 3.21921L3.21973 4.27991L4.71973 5.77991L5.78043 4.71922L4.28042 3.21921Z" fill="black"/>
<path d="M4.71968 18.2191L3.2197 19.7191L4.28038 20.7798L5.78036 19.2797L4.71968 18.2191Z" fill="black"/>
<path d="M19.7197 3.22009L18.2197 4.72009L19.2804 5.78079L20.7804 4.28078L19.7197 3.22009Z" fill="black"/>
</g>
<defs>
<clipPath id="clip0_201_56887">
<rect width="24" height="24" fill="white"/>
</clipPath>
</defs>
</svg>
