<svg width="24" height="24" viewBox="0 0 24 24" fill="none" xmlns="http://www.w3.org/2000/svg">
<path d="M10.5 7.5H8.25V2.25H6.75V7.5H4.5V2.25H3V8.0625C3 10.1955 4.62445 11.9715 6.75 12.3148V22.125H8.25V12.3148C10.3755 11.9715 12 10.1955 12 8.0625V2.25H10.5V7.5ZM7.5 10.875C6.19636 10.875 5.08481 10.0912 4.67203 9H10.328C9.91519 10.0912 8.80364 10.875 7.5 10.875Z" fill="black"/>
<path d="M19.386 1.88323C17.8516 2.11927 16.4524 2.89676 15.4415 4.075C14.4307 5.25324 13.875 6.7544 13.875 8.30684V16.1245H18.75V22.1245H20.25V1.75029L19.386 1.88323ZM18.75 14.6245H15.375V8.30684C15.3699 7.26392 15.6931 6.24584 16.2988 5.39685C16.9046 4.54787 17.7621 3.91105 18.75 3.57663V14.6245Z" fill="black"/>
</svg>
