<svg width="24" height="24" viewBox="0 0 24 24" fill="none" xmlns="http://www.w3.org/2000/svg">
<path d="M21 3.75C21.2983 3.74967 21.5842 3.63103 21.7951 3.42013C22.006 3.20922 22.1247 2.92327 22.125 2.625V0.75H20.625V2.25H12.375C12.0767 2.25033 11.7908 2.36897 11.5799 2.57987C11.369 2.79078 11.2503 3.07673 11.25 3.375V5.25H9.7793C8.67789 5.25124 7.62195 5.68932 6.84314 6.46814C6.06432 7.24695 5.62624 8.30289 5.625 9.4043V16.9018C5.625 20.4022 8.4728 23.25 11.9732 23.25H12.0268C15.5272 23.25 18.375 20.4022 18.375 16.9018V9.4043C18.3738 8.30289 17.9357 7.24695 17.1569 6.46814C16.3781 5.68932 15.3221 5.25124 14.2207 5.25H12.75V3.75H21ZM7.125 9.4043C7.12579 8.70058 7.4057 8.02591 7.9033 7.5283C8.40091 7.0307 9.07558 6.75079 9.7793 6.75H11.25V10.875H7.125V9.4043ZM16.875 16.9018C16.8736 18.1872 16.3623 19.4195 15.4534 20.3284C14.5445 21.2373 13.3122 21.7486 12.0268 21.75H11.9732C10.6878 21.7486 9.45551 21.2373 8.5466 20.3284C7.6377 19.4195 7.12644 18.1872 7.125 16.9018V12.375H16.875V16.9018ZM14.2207 6.75C14.9244 6.75079 15.5991 7.0307 16.0967 7.5283C16.5943 8.02591 16.8742 8.70058 16.875 9.4043V10.875H12.75V6.75H14.2207Z" fill="black"/>
</svg>
