<svg width="24" height="24" viewBox="0 0 24 24" fill="none" xmlns="http://www.w3.org/2000/svg">
<path d="M23.25 2.625H12V4.125H23.25V2.625Z" fill="black"/>
<path d="M23.25 7.62408H12V9.12408H23.25V7.62408Z" fill="black"/>
<path d="M23.25 12.6259H12V14.1259H23.25V12.6259Z" fill="black"/>
<path d="M23.25 17.625H15.375V19.125H23.25V17.625Z" fill="black"/>
<path d="M7.5577 19.125H7.8375V22.3492L14.1562 18.4219L7.8375 14.3799V17.625H7.55789C4.63125 17.625 2.25 14.5969 2.25 10.875C2.25 7.15312 4.63125 4.125 7.5577 4.125H10.125V2.625H7.5577C5.70858 2.625 3.98016 3.50414 2.69063 5.10047C1.43906 6.64997 0.75 8.70075 0.75 10.875C0.75 13.0492 1.43906 15.1 2.69063 16.6495C3.98016 18.2459 5.70858 19.125 7.5577 19.125ZM9.3375 17.1201L11.3438 18.4035L9.3375 19.6508V17.1201Z" fill="black"/>
</svg>
