<svg width="24" height="24" viewBox="0 0 24 24" fill="none" xmlns="http://www.w3.org/2000/svg">
<path d="M5.2259 8.24977C6.10838 8.24977 6.82377 7.53438 6.82377 6.65189C6.82377 5.76941 6.10838 5.05402 5.2259 5.05402C4.34341 5.05402 3.62802 5.76941 3.62802 6.65189C3.62802 7.53438 4.34341 8.24977 5.2259 8.24977Z" fill="black"/>
<path d="M9 13.875H8.85745L7.22109 9.375H3.8572V13.875H0.75V21C0.75067 21.5965 0.987938 22.1684 1.40975 22.5903C1.83156 23.0121 2.40347 23.2493 3 23.25H21C21.5965 23.2493 22.1684 23.0121 22.5903 22.5903C23.0121 22.1684 23.2493 21.5965 23.25 21V13.875H9ZM21.75 21C21.7498 21.1988 21.6707 21.3895 21.5301 21.5301C21.3895 21.6707 21.1988 21.7498 21 21.75H3C2.80116 21.7498 2.61053 21.6707 2.46993 21.5301C2.32933 21.3895 2.25024 21.1988 2.25 21V15.375H21.75V21Z" fill="black"/>
<path d="M13.875 10.125C13.8749 9.93786 13.9297 9.7548 14.0327 9.59856C14.1358 9.44232 14.2824 9.31979 14.4545 9.24619L15.0114 9.00755C15.4531 8.81815 15.8296 8.50331 16.0942 8.10203C16.3587 7.70075 16.4998 7.23067 16.4998 6.75002C16.4998 6.26938 16.3587 5.79929 16.0942 5.39801C15.8296 4.99673 15.4531 4.68189 15.0114 4.4925L14.4545 4.25381C14.2824 4.18021 14.1358 4.05768 14.0327 3.90144C13.9297 3.7452 13.8749 3.56214 13.875 3.375V1.5H12.375V3.375C12.3746 3.85575 12.5155 4.32602 12.7802 4.72737C13.0448 5.12872 13.4216 5.44346 13.8636 5.6325L14.4205 5.87119C14.5925 5.94491 14.7391 6.06749 14.8421 6.22371C14.9451 6.37994 15 6.56296 15 6.75009C15 6.93723 14.9451 7.12024 14.8421 7.27647C14.7391 7.4327 14.5925 7.55527 14.4205 7.629L13.8636 7.86764C13.4216 8.05668 13.0449 8.3714 12.7802 8.77272C12.5156 9.17405 12.3747 9.64427 12.375 10.125V12.375H13.875V10.125Z" fill="black"/>
<path d="M19.125 10.125C19.1249 9.93786 19.1797 9.7548 19.2827 9.59856C19.3858 9.44232 19.5324 9.31979 19.7045 9.24619L20.2614 9.00755C20.7031 8.81815 21.0796 8.50331 21.3442 8.10203C21.6087 7.70075 21.7498 7.23067 21.7498 6.75002C21.7498 6.26938 21.6087 5.79929 21.3442 5.39801C21.0796 4.99673 20.7031 4.68189 20.2614 4.4925L19.7045 4.25381C19.5324 4.18021 19.3858 4.05768 19.2827 3.90144C19.1797 3.7452 19.1249 3.56214 19.125 3.375V1.5H17.625V3.375C17.6246 3.85575 17.7655 4.32602 18.0302 4.72737C18.2948 5.12872 18.6716 5.44346 19.1136 5.6325L19.6705 5.87119C19.8425 5.94491 19.9891 6.06749 20.0921 6.22371C20.1951 6.37994 20.25 6.56296 20.25 6.75009C20.25 6.93723 20.1951 7.12024 20.0921 7.27647C19.9891 7.4327 19.8425 7.55527 19.6705 7.629L19.1136 7.86764C18.6716 8.05668 18.2949 8.3714 18.0302 8.77272C17.7656 9.17405 17.6247 9.64427 17.625 10.125V12.375H19.125V10.125Z" fill="black"/>
<path d="M6 16.875H4.5V20.25H6V16.875Z" fill="black"/>
<path d="M10.5 16.875H9V20.25H10.5V16.875Z" fill="black"/>
<path d="M15 16.875H13.5V20.25H15V16.875Z" fill="black"/>
<path d="M19.5 16.875H18V20.25H19.5V16.875Z" fill="black"/>
</svg>
