<svg width="24" height="24" viewBox="0 0 24 24" fill="none" xmlns="http://www.w3.org/2000/svg">
<path d="M17.6223 7.50007C17.5854 6.41821 17.125 5.39414 16.3402 4.64855C15.5555 3.90296 14.5091 3.49557 13.4268 3.51416C12.3445 3.53275 11.3128 3.97585 10.5541 4.74795C9.79537 5.52005 9.37039 6.55934 9.37073 7.64182V11.2319H6.375V12.7319H9.37073V18.3709H6.375V19.8709H17.625V18.3709H10.8707V12.7319H16.125V11.2319H10.8707V7.64182C10.8737 6.94699 11.1518 6.28161 11.6441 5.79132C12.1365 5.30103 12.803 5.02577 13.4979 5.02577C14.1927 5.02577 14.8593 5.30103 15.3516 5.79132C15.844 6.28161 16.1221 6.94699 16.125 7.64182V7.87507H17.625V7.50007H17.6223Z" fill="black"/>
</svg>
