<svg width="24" height="24" viewBox="0 0 24 24" fill="none" xmlns="http://www.w3.org/2000/svg">
<g clip-path="url(#clip0_201_56795)">
<path d="M19.9549 4.04453C17.8451 1.93474 14.9837 0.749474 12 0.749474C9.01627 0.749474 6.15478 1.93474 4.045 4.04453C1.93521 6.15432 0.749939 9.01581 0.749939 11.9995C0.749939 14.9832 1.93521 17.8447 4.045 19.9545C6.15478 22.0643 9.01627 23.2495 12 23.2495C14.9837 23.2495 17.8451 22.0643 19.9549 19.9545C22.0647 17.8447 23.25 14.9832 23.25 11.9995C23.25 9.01581 22.0647 6.15432 19.9549 4.04453ZM19.7457 6.08523C20.9672 7.67757 21.6646 9.60969 21.7417 11.6151L18.6414 9.28206L19.7457 6.08523ZM14.814 2.66411L12.0775 4.69708L9.21231 2.65623C11.0401 2.11128 12.9876 2.11402 14.8139 2.66411H14.814ZM5.47496 9.28295L2.25728 11.64C2.33003 9.61297 3.03648 7.65979 4.27721 6.05523L5.47496 9.28295ZM4.04059 17.6245H7.76082L8.93434 21.2553C6.95848 20.5963 5.24422 19.3244 4.04059 17.6245ZM10.64 21.6542L8.85231 16.1245H3.16693C2.76611 15.2701 2.49252 14.3616 2.35487 13.4279L7.2752 9.82323L5.4167 4.81426C6.06109 4.22295 6.78178 3.7206 7.55954 3.32064L12.0962 6.55192L16.4434 3.32223C17.2245 3.72425 17.9479 4.22953 18.5942 4.82448L16.8671 9.8245L21.6461 13.4208C21.5088 14.357 21.2349 15.2679 20.833 16.1245H15.3521L13.3812 21.6511C12.4721 21.7811 11.5493 21.7821 10.6399 21.6541L10.64 21.6542ZM15.1215 21.237L16.4097 17.6245H19.9593C18.7673 19.3081 17.0742 20.5724 15.1214 21.2371L15.1215 21.237Z" fill="black"/>
<path d="M16.2568 10.4724L12.087 7.44301L7.91727 10.4724L9.50989 15.3742H14.664L16.2568 10.4724ZM13.5742 13.8742H10.5997L9.68052 11.0453L12.087 9.29686L14.4934 11.0453L13.5742 13.8742Z" fill="black"/>
</g>
<defs>
<clipPath id="clip0_201_56795">
<rect width="24" height="24" fill="white"/>
</clipPath>
</defs>
</svg>
