<svg width="24" height="24" viewBox="0 0 24 24" fill="none" xmlns="http://www.w3.org/2000/svg">
<path d="M14.5849 12.0748C14.8427 11.6514 15.1092 11.2136 15.3724 10.7623C16.2534 9.25206 16.4151 7.73036 15.8531 6.23936C14.7191 3.23101 10.9285 1.39806 10.051 1.10561L9.43392 0.89978L8.47083 2.82634L8.93559 3.20603C8.94079 3.2102 9.45703 3.66128 9.49144 4.34509C9.52083 4.92883 9.20081 5.55962 8.54053 6.22009C8.082 6.67858 7.57875 7.12192 7.04592 7.59123C4.80408 9.56552 2.26312 11.8038 2.26312 16.0382C2.26312 16.0964 2.26367 16.1542 2.26476 16.2117C2.28101 17.1461 2.4817 18.0681 2.85531 18.9247C3.22891 19.7814 3.76808 20.5557 4.44183 21.2034C5.79474 22.5193 7.60875 23.2538 9.49608 23.2498H13.8133L13.2803 22.1683C11.115 17.7737 12.6463 15.2588 14.5849 12.0748ZM9.49608 21.7498C6.39295 21.7498 3.82186 19.2529 3.76448 16.1839C3.76361 16.1356 3.76315 16.087 3.76312 16.0382C3.76312 12.4815 5.93606 10.5673 8.03747 8.71637C8.56429 8.25231 9.10912 7.77241 9.60117 7.28027C10.574 6.30747 11.0411 5.29441 10.9896 4.26939C10.9671 3.835 10.8517 3.41048 10.6514 3.02439C11.9564 3.73741 13.8165 5.08937 14.4495 6.76862C14.85 7.83105 14.7281 8.89019 14.0768 10.0067C13.8207 10.4459 13.5578 10.8775 13.3037 11.2949C11.4437 14.3497 9.67922 17.2471 11.4544 21.7498H9.49608Z" fill="black"/>
<path d="M21.9489 15.9903C21.9364 15.9407 21.9234 15.8909 21.9098 15.841C21.3686 13.8567 18.3728 11.3053 18.033 11.0209L17.3506 10.4498L16.9032 11.219C15.8835 12.9721 15.0084 14.5711 14.627 16.3851C14.192 18.4539 14.4848 20.5565 15.5223 22.8131L15.7229 23.2498H16.2328C17.131 23.2524 18.0177 23.0488 18.8247 22.6546C19.6317 22.2605 20.3374 21.6863 20.8875 20.9764C21.4343 20.282 21.8143 19.4713 21.9983 18.6068C22.1824 17.7424 22.1655 16.8472 21.9489 15.9903ZM19.7046 20.0535C19.341 20.5229 18.8857 20.9133 18.3664 21.201C17.8471 21.4887 17.2746 21.6677 16.6839 21.727C15.2054 18.1692 16.0778 15.7441 17.7447 12.7685C18.8529 13.7995 20.2035 15.2852 20.4627 16.2354C20.4736 16.2755 20.484 16.3154 20.494 16.3551C20.6543 16.9909 20.6665 17.655 20.5296 18.2962C20.3927 18.9374 20.1105 19.5386 19.7046 20.0535Z" fill="black"/>
</svg>
