<svg width="24" height="24" viewBox="0 0 24 24" fill="none" xmlns="http://www.w3.org/2000/svg">
<path d="M19.2516 13.4517C19.2716 13.4117 19.2913 13.3714 19.3102 13.3315L21.375 8.996V7.92299L21.2314 7.72569C21.2043 7.68847 18.5106 3.98783 17.5979 2.771C16.5871 1.42325 15.6137 0.822267 14.4418 0.822267C13.5278 0.822267 12.5996 1.25675 11.6844 2.11363C11.4648 2.31997 11.2572 2.53864 11.0625 2.76856C10.8678 2.53862 10.6602 2.31994 10.4406 2.11358C9.52523 1.2567 8.59748 0.82222 7.68319 0.82222C6.51131 0.82222 5.53791 1.4232 4.52714 2.77095C3.61444 3.98783 0.920719 7.68847 0.893578 7.72564L0.75 7.92299V8.996L2.81423 13.3309C2.83352 13.3715 2.85323 13.4118 2.87339 13.4519C3.40821 14.5154 4.23233 15.4064 5.25098 16.0224C6.26721 16.6383 7.43297 16.9637 8.6213 16.9629H13.5036C14.6919 16.9637 15.8577 16.6383 16.8739 16.0224C17.8926 15.4063 18.7168 14.5153 19.2516 13.4517ZM8.62139 15.4629C6.76205 15.4629 5.03208 14.4095 4.2142 12.7795C4.19887 12.749 4.18383 12.7182 4.16883 12.6866L2.25 8.6571V8.41119C2.82188 7.62608 4.94231 4.71744 5.72714 3.67091C6.61847 2.48244 7.21613 2.32222 7.68319 2.32222C8.76661 2.32222 9.90553 3.6553 10.2522 4.16788L10.4751 4.49999H11.6499L11.8728 4.16788C12.1941 3.68905 13.3556 2.32222 14.4418 2.32222C14.9089 2.32222 15.5065 2.48244 16.3979 3.67095C17.1826 4.71735 19.3031 7.62608 19.875 8.41119V8.6571L17.9559 12.6872C17.9412 12.7182 17.9261 12.749 17.9109 12.7792C17.0929 14.4095 15.363 15.4629 13.5036 15.4629H8.62139Z" fill="black"/>
<path d="M14.2701 5.28935L13.7979 5.82345C13.787 5.83587 12.6582 7.06236 11.0625 7.06236C9.4613 7.06236 8.33592 5.83334 8.32702 5.82345L7.85485 5.28935L3.93417 8.41536L6.0151 12.6129L6.55214 12.5361C9.54382 12.1086 12.5811 12.1086 15.5728 12.5361L16.1098 12.6129L18.1907 8.41536L14.2701 5.28935ZM15.2458 10.9787C12.4679 10.6277 9.65697 10.6277 6.87914 10.9787L5.81574 8.83358L7.73021 7.30728C8.36653 7.82422 9.54164 8.5625 11.0625 8.5625C12.5833 8.5625 13.7584 7.82422 14.3947 7.30728L16.3092 8.83372L15.2458 10.9787Z" fill="black"/>
<path d="M16.0673 17.9728V19.4728C17.21 19.4713 18.3204 19.0936 19.2269 18.398C20.1335 17.7024 20.7857 16.7277 21.0829 15.6244L19.6336 15.236C19.4223 16.0206 18.9586 16.7137 18.314 17.2084C17.6694 17.7031 16.8798 17.9717 16.0673 17.9728Z" fill="black"/>
<path d="M22.5318 16.0123C21.7666 18.8655 19.1586 20.9725 16.0673 20.9725V22.4725C19.8515 22.4725 23.0441 19.8932 23.9808 16.4006L22.5318 16.0123Z" fill="black"/>
</svg>
