<svg width="24" height="24" viewBox="0 0 24 24" fill="none" xmlns="http://www.w3.org/2000/svg">
<path d="M5.19204 5.19199L4.12798 4.12793C4.12353 4.13262 4.11894 4.13665 4.11448 4.1411C2.02359 6.23187 0.846201 9.06588 0.840051 12.0228C0.833901 14.9796 1.99949 17.8185 4.08167 19.918L5.14573 18.8539C3.3407 17.0357 2.33159 14.5752 2.34027 12.0132C2.34895 9.45118 3.37472 6.9975 5.19204 5.19162V5.19199Z" fill="black"/>
<path d="M19.9251 4.1413C19.9063 4.12255 19.8868 4.10412 19.8678 4.08533L18.8037 5.14939C19.7146 6.0431 20.4394 7.10837 20.9363 8.28371C21.4333 9.45904 21.6925 10.7212 21.699 11.9972C21.7056 13.2733 21.4593 14.538 20.9744 15.7184C20.4895 16.8988 19.7757 17.9714 18.874 18.8744L19.9381 19.9385C22.0289 17.8407 23.2018 14.999 23.1993 12.0373C23.1968 9.07555 22.0192 6.23583 19.9249 4.14158L19.9251 4.1413Z" fill="black"/>
<path d="M7.19636 7.19641C5.91143 8.47115 5.18486 10.2037 5.17617 12.0136C5.16747 13.8236 5.87737 15.563 7.15 16.85L8.21017 15.7899C7.21917 14.7838 6.66754 13.4258 6.67623 12.0136C6.68492 10.6015 7.25322 9.25039 8.25653 8.25658L7.19636 7.19641Z" fill="black"/>
<path d="M15.7394 8.21375C16.2473 8.70534 16.6523 9.29295 16.9311 9.94244C17.2099 10.5919 17.3568 11.2903 17.3634 11.9971C17.3699 12.7039 17.2359 13.4049 16.9692 14.0594C16.7025 14.7139 16.3084 15.3089 15.8098 15.8099L16.8704 16.8703C17.5085 16.2303 18.0132 15.47 18.3554 14.6336C18.6976 13.7971 18.8704 12.9011 18.8639 11.9974C18.8573 11.0937 18.6716 10.2002 18.3173 9.3688C17.963 8.53739 17.4473 7.78452 16.8001 7.15381L15.7394 8.21375Z" fill="black"/>
<path d="M13.8169 10.136C13.3773 9.72356 12.8089 9.47527 12.2076 9.43298C11.6062 9.39068 11.0087 9.55697 10.5156 9.90382C10.0226 10.2507 9.66419 10.7569 9.50081 11.3371C9.33743 11.9174 9.37907 12.5362 9.6187 13.0894C9.85834 13.6425 10.2813 14.0962 10.8164 14.3738C11.3515 14.6515 11.9659 14.7363 12.5561 14.6138C13.1464 14.4913 13.6764 14.1691 14.0568 13.7015C14.4372 13.2339 14.6448 12.6494 14.6446 12.0466C14.6449 11.6884 14.5715 11.334 14.4291 11.0054C14.2868 10.6767 14.0784 10.3808 13.8169 10.136ZM12.0196 13.1716C11.7971 13.1716 11.5796 13.1056 11.3946 12.982C11.2096 12.8584 11.0654 12.6827 10.9803 12.4771C10.8951 12.2715 10.8729 12.0453 10.9163 11.8271C10.9597 11.6089 11.0668 11.4084 11.2241 11.2511C11.3815 11.0938 11.5819 10.9866 11.8002 10.9432C12.0184 10.8998 12.2446 10.9221 12.4502 11.0072C12.6557 11.0924 12.8314 11.2366 12.955 11.4216C13.0787 11.6066 13.1446 11.8241 13.1446 12.0466C13.1446 12.1943 13.1155 12.3406 13.059 12.4771C13.0025 12.6136 12.9196 12.7376 12.8151 12.8421C12.7107 12.9465 12.5866 13.0294 12.4502 13.0859C12.3137 13.1425 12.1674 13.1716 12.0196 13.1716Z" fill="black"/>
</svg>
