<svg width="24" height="24" viewBox="0 0 24 24" fill="none" xmlns="http://www.w3.org/2000/svg">
<path d="M0.75 16.875V19.875H3.75C3.75 19.0794 3.43393 18.3163 2.87132 17.7537C2.30871 17.1911 1.54565 16.875 0.75 16.875Z" fill="black"/>
<path d="M22.125 3.75H1.875C1.57674 3.75035 1.29079 3.86899 1.07989 4.07989C0.868985 4.29079 0.750347 4.57674 0.75 4.875V8.25H2.25V5.25H21.75V18.375H12.375V19.875H22.125C22.4233 19.8747 22.7092 19.756 22.9201 19.5451C23.131 19.3342 23.2497 19.0483 23.25 18.75V4.875C23.2497 4.57674 23.131 4.29079 22.9201 4.07989C22.7092 3.86899 22.4233 3.75035 22.125 3.75Z" fill="black"/>
<path d="M0.75 10.125V11.625C5.29908 11.625 9 15.3259 9 19.875H10.5C10.5 14.4989 6.12614 10.125 0.75 10.125Z" fill="black"/>
<path d="M0.75 13.5V15C2.04248 15.0015 3.28161 15.5155 4.19553 16.4295C5.10945 17.3434 5.62354 18.5825 5.625 19.875H7.125C7.125 16.3598 4.2652 13.5 0.75 13.5Z" fill="black"/>
</svg>
