<svg width="24" height="24" viewBox="0 0 24 24" fill="none" xmlns="http://www.w3.org/2000/svg">
<g clip-path="url(#clip0_201_55652)">
<path d="M12.0282 23.25C14.2473 23.25 16.4166 22.592 18.2618 21.3591C20.107 20.1262 21.5451 18.3738 22.3943 16.3236C23.2436 14.2733 23.4657 12.0173 23.0328 9.84081C22.5999 7.6643 21.5312 5.66505 19.962 4.09588C18.9201 3.05399 17.6832 2.22752 16.3219 1.66365C14.9606 1.09979 13.5016 0.809568 12.0281 0.80957C9.05236 0.809575 6.19846 1.99171 4.09426 4.09591C1.99007 6.20011 0.807948 9.05401 0.807953 12.0298C0.807957 15.0056 1.99009 17.8595 4.09429 19.9637C5.13376 21.0088 6.3702 21.8374 7.73205 22.4015C9.0939 22.9656 10.5541 23.254 12.0282 23.25ZM12.0282 2.30957C17.3879 2.30957 21.7484 6.67002 21.7484 12.0298C21.7484 17.3895 17.3879 21.75 12.0282 21.75C6.66843 21.75 2.30798 17.3895 2.30798 12.0298C2.30798 6.66998 6.66843 2.30957 12.0282 2.30957Z" fill="black"/>
</g>
<defs>
<clipPath id="clip0_201_55652">
<rect width="24" height="24" fill="white"/>
</clipPath>
</defs>
</svg>
