<svg width="24" height="24" viewBox="0 0 24 24" fill="none" xmlns="http://www.w3.org/2000/svg">
<path d="M22.2273 5.625H16.875V1.875H15.375V5.625H9.375V7.125H10.215L10.5035 9.375H5.25C4.25578 9.37613 3.30261 9.77158 2.5996 10.4746C1.89658 11.1776 1.50113 12.1308 1.5 13.125V13.875H14.625V13.125C14.6256 12.5591 14.4974 12.0005 14.25 11.4916C14.0297 11.0381 13.7206 10.6335 13.3408 10.3019C12.9611 9.97022 12.5186 9.71829 12.0396 9.56105L11.7273 7.125H20.5227L18.8399 20.25H1.5V21.75H20.16L22.035 7.125H23.25V5.625H22.2273ZM12.9965 12.375H3.12853C3.28413 11.9366 3.57155 11.5571 3.95138 11.2886C4.3312 11.02 4.78482 10.8755 5.25 10.875H10.875C11.3402 10.8755 11.7938 11.02 12.1736 11.2886C12.5534 11.5571 12.8409 11.9366 12.9965 12.375Z" fill="black"/>
<path d="M14.25 16.5H14.625V15H14.25H8.625H1.5V16.5H8.625H14.25Z" fill="black"/>
<path d="M14.25 19.125H14.625V17.625H14.25H8.625H1.5V19.125H8.625H14.25Z" fill="black"/>
</svg>
