<svg width="24" height="24" viewBox="0 0 24 24" fill="none" xmlns="http://www.w3.org/2000/svg">
<path d="M15.0001 10.4999H16.5001V12.3749H12.7501V3.68558L13.5911 4.52657L14.6518 3.46593L12.0001 0.814301L9.3485 3.46593L10.4091 4.52657L11.2501 3.68558V12.3749H7.87513V10.3902C8.47938 10.2101 8.99859 9.81842 9.33783 9.28693C9.67707 8.75543 9.81366 8.11959 9.72263 7.49566C9.6316 6.87173 9.31903 6.30142 8.84208 5.889C8.36513 5.47659 7.75566 5.24963 7.12513 5.24963C6.4946 5.24963 5.88513 5.47659 5.40818 5.889C4.93123 6.30142 4.61866 6.87173 4.52763 7.49566C4.4366 8.11959 4.57319 8.75543 4.91243 9.28693C5.25167 9.81842 5.77088 10.2101 6.37513 10.3902V13.8749H11.2501V18.1097C10.6459 18.2898 10.1267 18.6815 9.78743 19.213C9.44819 19.7444 9.3116 20.3803 9.40263 21.0042C9.49366 21.6281 9.80623 22.1985 10.2832 22.6109C10.7601 23.0233 11.3696 23.2503 12.0001 23.2503C12.6307 23.2503 13.2401 23.0233 13.7171 22.6109C14.194 22.1985 14.5066 21.6281 14.5976 21.0042C14.6887 20.3803 14.5521 19.7444 14.2128 19.213C13.8736 18.6815 13.3544 18.2898 12.7501 18.1097V13.8749H18.0001V10.4999H19.8751V5.62494H15.0001V10.4999ZM6.00013 7.87494C6.00013 7.65244 6.06611 7.43493 6.18972 7.24992C6.31334 7.06492 6.48904 6.92073 6.69461 6.83558C6.90018 6.75043 7.12638 6.72815 7.34461 6.77156C7.56283 6.81497 7.76329 6.92211 7.92062 7.07945C8.07796 7.23678 8.1851 7.43724 8.22851 7.65546C8.27192 7.87369 8.24964 8.09989 8.16449 8.30546C8.07934 8.51103 7.93515 8.68673 7.75014 8.81034C7.56514 8.93396 7.34763 8.99994 7.12513 8.99994C6.82686 8.99961 6.54091 8.88097 6.33 8.67007C6.1191 8.45916 6.00046 8.17321 6.00013 7.87494ZM13.1251 20.6249C13.1251 20.8474 13.0591 21.065 12.9355 21.25C12.8119 21.435 12.6362 21.5792 12.4306 21.6643C12.2251 21.7495 11.9989 21.7717 11.7807 21.7283C11.5624 21.6849 11.362 21.5778 11.2046 21.4204C11.0473 21.2631 10.9402 21.0626 10.8967 20.8444C10.8533 20.6262 10.8756 20.4 10.9608 20.1944C11.0459 19.9889 11.1901 19.8132 11.3751 19.6895C11.5601 19.5659 11.7776 19.4999 12.0001 19.4999C12.2984 19.5003 12.5843 19.6189 12.7953 19.8298C13.0062 20.0407 13.1248 20.3267 13.1251 20.6249ZM16.5001 7.12494H18.3751V8.99994H16.5001V7.12494Z" fill="black"/>
</svg>
