<svg width="24" height="24" viewBox="0 0 24 24" fill="none" xmlns="http://www.w3.org/2000/svg">
<path d="M12.75 18H11.25V19.5H12.75V18Z" fill="black"/>
<path d="M6 11.25H4.5V12.75H6V11.25Z" fill="black"/>
<path d="M19.5 11.25H18V12.75H19.5V11.25Z" fill="black"/>
<path d="M19.4244 4.57538C17.6427 2.78355 15.2707 1.70007 12.7498 1.52658V1.5H11.2498V6H12.7498V3.0315C17.3628 3.41391 20.9998 7.28995 20.9998 12C20.9998 16.9626 16.9624 21 11.9998 21C7.03719 21 2.9998 16.9626 2.9998 12C2.99876 10.816 3.23184 9.64346 3.68562 8.54986C4.1394 7.45626 4.80493 6.46317 5.64392 5.62772L11.0638 12.4658L12.2393 11.5342L5.84042 3.46069L5.24952 3.95709C3.62897 5.31721 2.45709 7.13515 1.88745 9.17269C1.31781 11.2102 1.37697 13.3723 2.05719 15.3757C2.73741 17.379 4.00695 19.1302 5.69946 20.3996C7.39196 21.6691 9.42848 22.3976 11.5421 22.4898C13.6558 22.582 15.748 22.0335 17.5446 20.9163C19.3412 19.799 20.7584 18.1651 21.6105 16.2286C22.4626 14.292 22.7098 12.1433 22.3197 10.0639C21.9296 7.98449 20.9205 6.07142 19.4245 4.57538H19.4244Z" fill="black"/>
</svg>
