<svg width="24" height="24" viewBox="0 0 24 24" fill="none" xmlns="http://www.w3.org/2000/svg">
<path d="M12 3.75C6.61523 3.75 2.25 8.11523 2.25 13.5C2.25 18.8848 6.61523 23.25 12 23.25C17.3848 23.25 21.75 18.8848 21.75 13.5C21.75 8.11523 17.3848 3.75 12 3.75ZM17.8336 19.3336C16.484 20.6833 14.7081 21.5232 12.8087 21.7103C10.9092 21.8974 9.00357 21.4201 7.41656 20.3597C5.82955 19.2992 4.65931 17.7214 4.10525 15.8949C3.55118 14.0684 3.64757 12.1063 4.37799 10.3429C5.1084 8.5795 6.42766 7.12393 8.11096 6.22418C9.79427 5.32443 11.7375 5.03618 13.6095 5.40854C15.4815 5.7809 17.1665 6.79083 18.3773 8.26626C19.5882 9.74169 20.25 11.5913 20.25 13.5C20.253 14.5838 20.0409 15.6575 19.6262 16.6589C19.2114 17.6602 18.6021 18.5693 17.8336 19.3336Z" fill="black"/>
<path d="M12.75 7.5H11.25V13.8605L15.2815 17.0857L16.2185 15.9143L12.75 13.1395V7.5Z" fill="black"/>
<path d="M8.2013 0.506142L1.07626 5.3811L1.92331 6.61911L9.04835 1.74415L8.2013 0.506142Z" fill="black"/>
<path d="M15.7986 0.50615L14.9515 1.74414L22.0765 6.61923L22.9235 5.38124L15.7986 0.50615Z" fill="black"/>
</svg>
