<svg width="24" height="24" viewBox="0 0 24 24" fill="none" xmlns="http://www.w3.org/2000/svg">
<path d="M18 4.875H6V15.943H18V4.875ZM16.5 14.443H7.5V6.375H16.5V14.443Z" fill="black"/>
<path d="M8.50734 20.068L12 23.5607L15.4927 20.068H20.625C21.0227 20.0675 21.404 19.9094 21.6852 19.6282C21.9664 19.3469 22.1246 18.9657 22.125 18.568V2.25C22.1246 1.85231 21.9664 1.47104 21.6852 1.18983C21.404 0.908625 21.0227 0.750447 20.625 0.75H3.375C2.97731 0.750447 2.59604 0.908625 2.31483 1.18983C2.03363 1.47104 1.87545 1.85231 1.875 2.25V18.568C1.87545 18.9657 2.03363 19.3469 2.31483 19.6282C2.59604 19.9094 2.97731 20.0675 3.375 20.068H8.50734ZM3.375 2.25H20.625V18.568H14.8713L12 21.4393L9.12867 18.568H3.375V2.25Z" fill="black"/>
</svg>
