<svg width="24" height="24" viewBox="0 0 24 24" fill="none" xmlns="http://www.w3.org/2000/svg">
<path d="M4.125 0.75C3.60582 0.75 3.09831 0.903953 2.66663 1.19239C2.23495 1.48083 1.8985 1.8908 1.69982 2.37045C1.50114 2.85011 1.44915 3.37791 1.55044 3.88711C1.65173 4.39631 1.90173 4.86404 2.26884 5.23115C2.63596 5.59826 3.10369 5.84827 3.61289 5.94955C4.12209 6.05084 4.64988 5.99886 5.12954 5.80018C5.6092 5.6015 6.01916 5.26504 6.3076 4.83337C6.59604 4.40169 6.74999 3.89417 6.74999 3.375C6.74921 2.67904 6.4724 2.01182 5.98029 1.51971C5.48817 1.02759 4.82095 0.750782 4.125 0.75ZM4.125 4.49999C3.90249 4.49999 3.68499 4.43401 3.49998 4.3104C3.31498 4.18678 3.17078 4.01108 3.08563 3.80551C3.00049 3.59995 2.97821 3.37375 3.02162 3.15552C3.06502 2.93729 3.17217 2.73684 3.3295 2.5795C3.48684 2.42217 3.68729 2.31502 3.90552 2.27161C4.12375 2.22821 4.34995 2.25048 4.55552 2.33563C4.76108 2.42078 4.93678 2.56498 5.0604 2.74998C5.18402 2.93499 5.25 3.15249 5.25 3.375C5.24965 3.67326 5.13101 3.9592 4.92011 4.17011C4.70921 4.38101 4.42326 4.49965 4.125 4.49999Z" fill="black"/>
<path d="M9.375 6.5C8.85583 6.5 8.34831 6.65395 7.91663 6.94239C7.48495 7.23083 7.1485 7.6408 6.94982 8.12046C6.75114 8.60011 6.69915 9.12791 6.80044 9.63711C6.90173 10.1463 7.15173 10.614 7.51885 10.9812C7.88596 11.3483 8.35369 11.5983 8.86289 11.6996C9.37209 11.8008 9.89989 11.7489 10.3795 11.5502C10.8592 11.3515 11.2692 11.0151 11.5576 10.5834C11.846 10.1517 12 9.64418 12 9.125C11.9992 8.42905 11.7224 7.76182 11.2303 7.26971C10.7382 6.77759 10.071 6.50078 9.375 6.5ZM9.375 10.25C9.1525 10.25 8.93499 10.184 8.74999 10.0604C8.56498 9.93679 8.42079 9.76109 8.33564 9.55552C8.25049 9.34995 8.22821 9.12375 8.27162 8.90552C8.31503 8.68729 8.42217 8.48684 8.57951 8.3295C8.73684 8.17217 8.9373 8.06502 9.15552 8.02162C9.37375 7.97821 9.59995 8.00049 9.80552 8.08564C10.0111 8.17078 10.1868 8.31498 10.3104 8.49998C10.434 8.68499 10.5 8.9025 10.5 9.125C10.4997 9.42326 10.381 9.70921 10.1701 9.92011C9.95921 10.131 9.67326 10.2497 9.375 10.25Z" fill="black"/>
<path d="M4.125 17.4999C4.64418 17.4999 5.15169 17.346 5.58337 17.0575C6.01505 16.7691 6.3515 16.3591 6.55018 15.8795C6.74886 15.3998 6.80085 14.872 6.69956 14.3628C6.59828 13.8536 6.34827 13.3859 5.98116 13.0188C5.61404 12.6517 5.14631 12.4017 4.63711 12.3004C4.12791 12.1991 3.60011 12.2511 3.12046 12.4498C2.6408 12.6484 2.23083 12.9849 1.94239 13.4166C1.65395 13.8482 1.5 14.3558 1.5 14.8749C1.50078 15.5709 1.77759 16.2381 2.26971 16.7302C2.76182 17.2223 3.42905 17.4992 4.125 17.4999ZM4.125 13.7499C4.3475 13.7499 4.56501 13.8159 4.75002 13.9395C4.93502 14.0632 5.07922 14.2389 5.16436 14.4444C5.24951 14.65 5.27179 14.8762 5.22838 15.0944C5.18498 15.3126 5.07783 15.5131 4.9205 15.6704C4.76316 15.8278 4.56271 15.9349 4.34448 15.9783C4.12625 16.0217 3.90005 15.9995 3.69448 15.9143C3.48891 15.8292 3.31321 15.685 3.1896 15.5C3.06598 15.315 3 15.0974 3 14.8749C3.00035 14.5767 3.11899 14.2907 3.32989 14.0798C3.54079 13.8689 3.82674 13.7503 4.125 13.7499Z" fill="black"/>
<path d="M9.375 23.25C9.89418 23.25 10.4017 23.096 10.8334 22.8076C11.2651 22.5192 11.6015 22.1092 11.8002 21.6295C11.9989 21.1499 12.0508 20.6221 11.9496 20.1129C11.8483 19.6037 11.5983 19.136 11.2312 18.7688C10.864 18.4017 10.3963 18.1517 9.88711 18.0504C9.37791 17.9492 8.85011 18.0011 8.37046 18.1998C7.8908 18.3985 7.48083 18.7349 7.19239 19.1666C6.90395 19.5983 6.75 20.1058 6.75 20.625C6.75078 21.321 7.02759 21.9882 7.51971 22.4803C8.01182 22.9724 8.67905 23.2492 9.375 23.25ZM9.375 19.5C9.5975 19.5 9.81501 19.566 10 19.6896C10.185 19.8132 10.3292 19.9889 10.4144 20.1945C10.4995 20.4 10.5218 20.6262 10.4784 20.8445C10.435 21.0627 10.3278 21.2632 10.1705 21.4205C10.0132 21.5778 9.81271 21.685 9.59448 21.7284C9.37625 21.7718 9.15005 21.7495 8.94448 21.6644C8.73891 21.5792 8.56321 21.435 8.4396 21.25C8.31598 21.065 8.25 20.8475 8.25 20.625C8.25035 20.3267 8.36899 20.0408 8.57989 19.8299C8.79079 19.619 9.07674 19.5003 9.375 19.5Z" fill="black"/>
<path d="M14.625 0.75C14.1058 0.75 13.5983 0.903953 13.1666 1.19239C12.7349 1.48083 12.3985 1.8908 12.1998 2.37045C12.0011 2.85011 11.9492 3.37791 12.0504 3.88711C12.1517 4.39631 12.4017 4.86404 12.7688 5.23115C13.136 5.59826 13.6037 5.84827 14.1129 5.94955C14.6221 6.05084 15.1499 5.99886 15.6295 5.80018C16.1092 5.6015 16.5192 5.26504 16.8076 4.83337C17.096 4.40169 17.25 3.89417 17.25 3.375C17.2492 2.67904 16.9724 2.01182 16.4803 1.51971C15.9882 1.02759 15.321 0.750782 14.625 0.75ZM14.625 4.49999C14.4025 4.49999 14.185 4.43401 14 4.3104C13.815 4.18678 13.6708 4.01108 13.5856 3.80551C13.5005 3.59995 13.4782 3.37375 13.5216 3.15552C13.565 2.93729 13.6722 2.73684 13.8295 2.5795C13.9868 2.42217 14.1873 2.31502 14.4055 2.27161C14.6238 2.22821 14.8499 2.25048 15.0555 2.33563C15.2611 2.42078 15.4368 2.56498 15.5604 2.74998C15.684 2.93499 15.75 3.15249 15.75 3.375C15.7496 3.67326 15.631 3.9592 15.4201 4.17011C15.2092 4.38101 14.9233 4.49965 14.625 4.49999Z" fill="black"/>
<path d="M19.875 6.5C19.3558 6.5 18.8483 6.65395 18.4166 6.94239C17.9849 7.23083 17.6485 7.6408 17.4498 8.12046C17.2511 8.60011 17.1992 9.12791 17.3004 9.63711C17.4017 10.1463 17.6517 10.614 18.0188 10.9812C18.386 11.3483 18.8537 11.5983 19.3629 11.6996C19.8721 11.8008 20.3999 11.7489 20.8795 11.5502C21.3592 11.3515 21.7692 11.0151 22.0576 10.5834C22.346 10.1517 22.5 9.64418 22.5 9.125C22.4992 8.42905 22.2224 7.76182 21.7303 7.26971C21.2382 6.77759 20.571 6.50078 19.875 6.5ZM19.875 10.25C19.6525 10.25 19.435 10.184 19.25 10.0604C19.065 9.93679 18.9208 9.76109 18.8356 9.55552C18.7505 9.34995 18.7282 9.12375 18.7716 8.90552C18.815 8.68729 18.9222 8.48684 19.0795 8.3295C19.2368 8.17217 19.4373 8.06502 19.6555 8.02162C19.8738 7.97821 20.0999 8.00049 20.3055 8.08564C20.5111 8.17078 20.6868 8.31498 20.8104 8.49998C20.934 8.68499 21 8.9025 21 9.125C20.9996 9.42326 20.881 9.70921 20.6701 9.92011C20.4592 10.131 20.1733 10.2497 19.875 10.25Z" fill="black"/>
<path d="M14.625 17.4999C15.1442 17.4999 15.6517 17.346 16.0834 17.0575C16.515 16.7691 16.8515 16.3591 17.0502 15.8795C17.2489 15.3998 17.3008 14.872 17.1996 14.3628C17.0983 13.8536 16.8483 13.3859 16.4812 13.0188C16.114 12.6517 15.6463 12.4017 15.1371 12.3004C14.6279 12.1991 14.1001 12.2511 13.6205 12.4498C13.1408 12.6484 12.7308 12.9849 12.4424 13.4166C12.154 13.8482 12 14.3558 12 14.8749C12.0008 15.5709 12.2776 16.2381 12.7697 16.7302C13.2618 17.2223 13.929 17.4992 14.625 17.4999ZM14.625 13.7499C14.8475 13.7499 15.065 13.8159 15.25 13.9395C15.435 14.0632 15.5792 14.2389 15.6644 14.4444C15.7495 14.65 15.7718 14.8762 15.7284 15.0944C15.685 15.3126 15.5778 15.5131 15.4205 15.6704C15.2632 15.8278 15.0627 15.9349 14.8445 15.9783C14.6262 16.0217 14.4 15.9995 14.1945 15.9143C13.9889 15.8292 13.8132 15.685 13.6896 15.5C13.566 15.315 13.5 15.0974 13.5 14.8749C13.5003 14.5767 13.619 14.2907 13.8299 14.0798C14.0408 13.8689 14.3267 13.7503 14.625 13.7499Z" fill="black"/>
<path d="M19.875 18C19.3558 18 18.8483 18.154 18.4166 18.4424C17.9849 18.7308 17.6485 19.1408 17.4498 19.6205C17.2511 20.1001 17.1992 20.6279 17.3004 21.1371C17.4017 21.6463 17.6517 22.114 18.0188 22.4812C18.386 22.8483 18.8537 23.0983 19.3629 23.1996C19.8721 23.3008 20.3999 23.2489 20.8795 23.0502C21.3592 22.8515 21.7692 22.515 22.0576 22.0834C22.346 21.6517 22.5 21.1442 22.5 20.625C22.4992 19.929 22.2224 19.2618 21.7303 18.7697C21.2382 18.2776 20.571 18.0008 19.875 18ZM19.875 21.75C19.6525 21.75 19.435 21.684 19.25 21.5604C19.065 21.4368 18.9208 21.2611 18.8356 21.0555C18.7505 20.8499 18.7282 20.6237 18.7716 20.4055C18.815 20.1873 18.9222 19.9868 19.0795 19.8295C19.2368 19.6722 19.4373 19.565 19.6555 19.5216C19.8738 19.4782 20.0999 19.5005 20.3055 19.5856C20.5111 19.6708 20.6868 19.815 20.8104 20C20.934 20.185 21 20.4025 21 20.625C20.9996 20.9233 20.881 21.2092 20.6701 21.4201C20.4592 21.631 20.1733 21.7496 19.875 21.75Z" fill="black"/>
</svg>
