<svg width="24" height="24" viewBox="0 0 24 24" fill="none" xmlns="http://www.w3.org/2000/svg">
<path d="M21.75 2.20312H2.25C1.85231 2.20357 1.47104 2.36175 1.18983 2.64296C0.908625 2.92417 0.750447 3.30544 0.75 3.70312V17.625C0.750447 18.0227 0.908625 18.404 1.18983 18.6852C1.47104 18.9664 1.85231 19.1246 2.25 19.125H5.8335L7.00022 17.625H2.25V3.70312H21.75L21.7509 17.625H16.9998L18.1665 19.125H21.75C22.1477 19.1246 22.529 18.9664 22.8102 18.6852C23.0914 18.404 23.2496 18.0227 23.25 17.625V3.70312C23.2496 3.30544 23.0914 2.92417 22.8102 2.64296C22.529 2.36175 22.1477 2.20357 21.75 2.20312Z" fill="black"/>
<path d="M4.63287 23.2499H19.3672L12 13.7783L4.63287 23.2499ZM7.69995 21.7499L12 16.2215L16.3001 21.7499H7.69995Z" fill="black"/>
</svg>
