<svg width="24" height="24" viewBox="0 0 24 24" fill="none" xmlns="http://www.w3.org/2000/svg">
<g clip-path="url(#clip0_201_55979)">
<path d="M21.75 0.75H6.75C6.35231 0.750447 5.97104 0.908625 5.68983 1.18983C5.40863 1.47104 5.25045 1.85231 5.25 2.25V17.25C5.25045 17.6477 5.40863 18.029 5.68983 18.3102C5.97104 18.5914 6.35231 18.7496 6.75 18.75H21.75C22.1477 18.7496 22.529 18.5914 22.8102 18.3102C23.0914 18.029 23.2496 17.6477 23.25 17.25V2.25C23.2496 1.85231 23.0914 1.47104 22.8102 1.18983C22.529 0.908625 22.1477 0.750447 21.75 0.75ZM21.75 17.25H6.75V2.25H21.75L21.751 17.25H21.75Z" fill="black"/>
<path d="M5.09139 21.75H3.64905V23.25H5.09139V21.75Z" fill="black"/>
<path d="M19.4423 21.75H18V23.25H19.4423V21.75Z" fill="black"/>
<path d="M10.8318 21.75H9.38947V23.25H10.8318V21.75Z" fill="black"/>
<path d="M7.96152 21.75H6.51923V23.25H7.96152V21.75Z" fill="black"/>
<path d="M13.7019 21.75H12.2596V23.25H13.7019V21.75Z" fill="black"/>
<path d="M16.5721 21.75H15.1298V23.25H16.5721V21.75Z" fill="black"/>
<path d="M2.25 21.75H0.75V23.25H2.25V21.75Z" fill="black"/>
<path d="M2.25 10.5148H0.75V11.9282H2.25V10.5148Z" fill="black"/>
<path d="M2.25 13.3342H0.75V14.7476H2.25V13.3342Z" fill="black"/>
<path d="M2.25 18.974H0.75V20.3875H2.25V18.974Z" fill="black"/>
<path d="M2.25 16.1536H0.75V17.567H2.25V16.1536Z" fill="black"/>
<path d="M2.25 7.69446H0.75V9.10793H2.25V7.69446Z" fill="black"/>
<path d="M2.25 4.875H0.75V6.28847H2.25V4.875Z" fill="black"/>
</g>
<defs>
<clipPath id="clip0_201_55979">
<rect width="24" height="24" fill="white"/>
</clipPath>
</defs>
</svg>
