<svg width="24" height="24" viewBox="0 0 24 24" fill="none" xmlns="http://www.w3.org/2000/svg">
<path d="M12.6832 9.68002L6.96054 15.6044L8.0394 16.6465L13.7621 10.7222L12.6832 9.68002Z" fill="black"/>
<path d="M15.4879 13.2384C16.1895 12.5345 16.5831 11.5809 16.582 10.5871C16.581 9.59326 16.1855 8.64049 15.4825 7.93807C14.7794 7.23566 13.8263 6.84105 12.8325 6.84094C11.8386 6.84083 10.8854 7.23523 10.1822 7.9375L6.67087 11.4488C6.14079 11.9818 5.51027 12.4043 4.81579 12.692C4.12132 12.9796 3.37669 13.1267 2.625 13.1246H2.25V14.6246H2.625C3.57376 14.6272 4.51362 14.4416 5.39016 14.0785C6.26671 13.7155 7.06253 13.1821 7.73156 12.5094L11.2428 8.99814C11.6648 8.57618 12.2371 8.33912 12.8338 8.33912C13.4306 8.33912 14.0029 8.57618 14.4248 8.99814C14.8468 9.4201 15.0839 9.9924 15.0839 10.5891C15.0839 11.1859 14.8468 11.7582 14.4248 12.1802L11.2275 15.433C10.0369 16.6387 9.371 18.266 9.375 19.9605V21.7496H10.875V19.9605C10.8719 18.6596 11.3831 17.4101 12.2973 16.4845L15.4879 13.2384Z" fill="black"/>
<path d="M18.6159 15.4147C17.6845 16.4272 14.7484 19.3991 14.7188 19.4288L14.7141 19.4334C14.6622 19.4869 14.6002 19.5296 14.5318 19.5591C14.4634 19.5886 14.3898 19.6043 14.3153 19.6054C14.2408 19.6064 14.1669 19.5928 14.0976 19.5653C14.0284 19.5378 13.9652 19.4969 13.9118 19.445C13.8584 19.393 13.8157 19.3311 13.7862 19.2627C13.7567 19.1943 13.7409 19.1207 13.7399 19.0462C13.7388 18.9717 13.7524 18.8977 13.7799 18.8285C13.8075 18.7592 13.8483 18.6961 13.9003 18.6427L17.6106 14.8279C18.2021 14.236 18.6713 13.5333 18.9912 12.76C19.3112 11.9868 19.4756 11.1581 19.4753 10.3212C19.4749 9.48436 19.3097 8.65579 18.9892 7.88279C18.6686 7.10979 18.1988 6.40752 17.6068 5.81606C15.1212 3.33052 11.0768 3.33052 8.5912 5.81606L5.71308 8.78325C4.20895 10.1247 3.67266 10.1247 2.25 10.1247V11.6247C3.96305 11.6247 4.86919 11.5508 6.73256 9.88383L6.75239 9.86611L9.65573 6.87305C10.5705 5.9593 11.8108 5.44635 13.1037 5.44705C14.3966 5.44776 15.6364 5.96205 16.5501 6.8768C17.4639 7.79155 17.9768 9.03182 17.9761 10.3248C17.9754 11.6177 17.4611 12.8574 16.5464 13.7712L12.825 17.5969C12.4425 17.9898 12.2318 18.5186 12.2392 19.0668C12.2466 19.6151 12.4715 20.1379 12.8644 20.5204C13.2572 20.9029 13.786 21.1136 14.3342 21.1062C14.8825 21.0988 15.4054 20.8739 15.7878 20.481C15.9371 20.33 18.7754 17.4571 19.7199 16.4301C21.3568 14.6503 22.5 12.2116 22.5 10.4997H21C21 11.8239 19.975 13.9369 18.6159 15.4147Z" fill="black"/>
<path d="M19.9275 3.63281C18.279 2.03906 16.2094 1.125 14.25 1.125V2.625C15.8242 2.625 17.5135 3.38536 18.885 4.71094C20.2094 5.99133 21 7.59464 21 9H22.5C22.5 7.1693 21.5625 5.21297 19.9275 3.63281Z" fill="black"/>
<path d="M6.23227 6.44016C7.26656 5.01323 8.9977 2.625 12.75 2.625V1.125C8.23238 1.125 6.14119 4.00992 5.01773 5.55984C4.25433 6.61303 3.34903 7.125 2.25 7.125V8.625C3.81919 8.625 5.19623 7.86952 6.23227 6.44016Z" fill="black"/>
<path d="M3.75 15.75H2.25V17.25H3.75C4.44595 17.2508 5.11317 17.5276 5.60528 18.0197C6.09739 18.5118 6.37421 19.1791 6.375 19.875V21.75H7.875V19.875C7.87376 18.7814 7.43876 17.7329 6.66545 16.9596C5.89213 16.1862 4.84364 15.7512 3.75 15.75Z" fill="black"/>
</svg>
