<svg width="24" height="24" viewBox="0 0 24 24" fill="none" xmlns="http://www.w3.org/2000/svg">
<path d="M5.9361 9.5001H2.43679C2.17169 9.49886 1.91421 9.58864 1.70737 9.75446C1.50054 9.92027 1.35689 10.1521 1.30044 10.4111C0.585736 13.5962 0.562303 16.8975 1.23172 20.0924L1.30204 20.4294C1.35736 20.691 1.50068 20.9257 1.70812 21.0944C1.91555 21.2632 2.17455 21.3557 2.44194 21.3566H5.93633C6.245 21.3562 6.54093 21.2334 6.75919 21.0152C6.97745 20.7969 7.10022 20.501 7.10057 20.1923V10.6643C7.10022 10.3556 6.97742 10.0597 6.7591 9.8414C6.54079 9.62313 6.24481 9.50039 5.9361 9.5001ZM5.60033 19.8566H2.71475L2.70027 19.7869C2.09296 16.8892 2.09548 13.8968 2.70768 11.0001H5.60033V19.8566Z" fill="black"/>
<path d="M23.1779 12.998L22.1424 10.2368C22.0607 10.021 21.9154 9.83501 21.7257 9.70355C21.536 9.57209 21.3109 9.50131 21.0801 9.50057H15.5626V8.11612L16.0113 7.12237C16.2359 6.62503 16.3597 6.08811 16.3756 5.54265C16.3915 4.99718 16.2992 4.45397 16.1039 3.94441C15.9086 3.43484 15.6143 2.96902 15.238 2.57385C14.8616 2.17869 14.4107 1.86201 13.9113 1.64212C13.6382 1.5232 13.3294 1.51598 13.0511 1.622C12.7727 1.72802 12.547 1.93885 12.4222 2.2093L8.65759 10.4505V11.6253H9.76998L13.6267 3.18229C14.1711 3.51789 14.5747 4.04027 14.762 4.65178C14.9493 5.2633 14.9075 5.92209 14.6444 6.50502L14.1292 7.64601L14.0626 7.95463V10.2506L14.8126 11.0006H20.8267L21.7501 13.4628V13.8974L18.5632 19.4985H12.7065L8.65759 17.1234V18.8624L12.0329 20.8425C12.2071 20.9446 12.4053 20.9985 12.6071 20.9985H18.7759C18.9762 20.9983 19.1729 20.9452 19.3461 20.8445C19.5192 20.7438 19.6627 20.5991 19.7619 20.4251L23.1017 14.555C23.1989 14.384 23.25 14.1907 23.2501 13.994V13.3964C23.2502 13.2603 23.2257 13.1254 23.1779 12.998Z" fill="black"/>
</svg>
