<svg width="24" height="24" viewBox="0 0 24 24" fill="none" xmlns="http://www.w3.org/2000/svg">
<g clip-path="url(#clip0_201_57123)">
<path d="M9.75 4.5H8.25V8.25H4.5V9.75H8.25V13.5H9.75V9.75H13.5V8.25H9.75V4.5Z" fill="black"/>
<path d="M22.4812 18.7683L18.6804 14.9675L15.7569 13.7596C16.7304 12.3754 17.2519 10.724 17.25 9.03174C17.25 4.48266 13.5491 0.781738 9 0.781738C4.45092 0.781738 0.75 4.48266 0.75 9.03174C0.75 13.5808 4.45092 17.2817 9 17.2817C10.707 17.2837 12.3721 16.7531 13.7634 15.764L14.9681 18.6796L18.7687 22.4808C19.2611 22.9731 19.9288 23.2497 20.625 23.2497C21.3212 23.2497 21.9889 22.9731 22.4812 22.4808C22.9736 21.9885 23.2501 21.3208 23.2501 20.6245C23.2501 19.9283 22.9736 19.2606 22.4812 18.7683ZM2.25 9.03174C2.25 5.30986 5.27812 2.28174 9 2.28174C12.7219 2.28174 15.75 5.30986 15.75 9.03174C15.75 12.7536 12.7219 15.7817 9 15.7817C5.27812 15.7817 2.25 12.7537 2.25 9.03174ZM21.4205 21.42C21.2094 21.6307 20.9233 21.749 20.625 21.749C20.3267 21.749 20.0406 21.6307 19.8295 21.42L16.2402 17.8308L15.1201 15.1198L17.8312 16.2397L21.4206 19.829C21.6313 20.0402 21.7495 20.3263 21.7495 20.6246C21.7495 20.9228 21.6312 21.2089 21.4205 21.42Z" fill="black"/>
</g>
<defs>
<clipPath id="clip0_201_57123">
<rect width="24" height="24" fill="white"/>
</clipPath>
</defs>
</svg>
