<svg width="24" height="24" viewBox="0 0 24 24" fill="none" xmlns="http://www.w3.org/2000/svg">
<g clip-path="url(#clip0_201_55477)">
<path d="M19.544 1.2858L8.69086 10.2798C8.61065 10.2761 8.5305 10.2737 8.45067 10.2737H8.4495C7.32107 10.2719 6.2211 10.6278 5.30756 11.2902C4.39402 11.9526 3.7139 12.8875 3.36487 13.9606L0.857718 21.6276C0.796069 21.8164 0.779952 22.0171 0.810682 22.2134C0.841413 22.4096 0.91812 22.5958 1.03454 22.7568C1.15096 22.9177 1.3038 23.0489 1.48057 23.1395C1.65734 23.2301 1.85303 23.2776 2.05167 23.2782C2.18543 23.2781 2.31833 23.2568 2.44542 23.2151L10.1124 20.7081C11.1855 20.3591 12.1204 19.679 12.7828 18.7654C13.4452 17.8519 13.8011 16.7519 13.7993 15.6235C13.7993 15.5055 13.7949 15.3869 13.787 15.2684L22.7399 4.4845C23.1012 4.04923 23.287 3.49476 23.261 2.92965C23.2349 2.36455 22.9989 1.82951 22.5991 1.42932C22.1992 1.02913 21.6644 0.7926 21.0993 0.766053C20.5342 0.739506 19.9796 0.924852 19.544 1.2858ZM9.64612 19.2823L2.43145 21.6415L4.79053 14.4268C5.0417 13.6546 5.53113 12.9818 6.18855 12.5051C6.84597 12.0285 7.63754 11.7724 8.44959 11.7737C8.55605 11.7737 8.66329 11.7784 8.77026 11.7871L12.2859 15.3027C12.2947 15.4096 12.2992 15.5168 12.2992 15.6234C12.3005 16.4354 12.0444 17.227 11.5678 17.8844C11.0911 18.5418 10.4183 19.0312 9.64612 19.2823ZM21.5858 3.52633L13.0022 13.8653L10.153 11.0161L20.5011 2.4407C20.6489 2.31806 20.8372 2.25503 21.0291 2.26398C21.2209 2.27293 21.4026 2.35321 21.5383 2.48908C21.6741 2.62495 21.7542 2.80663 21.763 2.9985C21.7718 3.19037 21.7086 3.37861 21.5858 3.52633Z" fill="black"/>
</g>
<defs>
<clipPath id="clip0_201_55477">
<rect width="24" height="24" fill="white"/>
</clipPath>
</defs>
</svg>
