<svg width="24" height="24" viewBox="0 0 24 24" fill="none" xmlns="http://www.w3.org/2000/svg">
<g clip-path="url(#clip0_201_56157)">
<path d="M9 14.25H7.5V15.75H9V14.25Z" fill="black"/>
<path d="M12.75 14.25H11.25V15.75H12.75V14.25Z" fill="black"/>
<path d="M16.5 14.25H15V15.75H16.5V14.25Z" fill="black"/>
<path d="M20.625 21.75V4.125H17.25V0.75H6.75V4.125H3.375V21.75H0.75V23.25H23.25V21.75H20.625ZM8.25 2.25H15.75V9.75H8.25V2.25ZM19.125 21.75H12.75V18.75H11.25V21.75H4.875V5.625H6.75V11.25H17.25V5.625H19.125V21.75Z" fill="black"/>
<path d="M12.75 3.75H11.25V5.25H9.75V6.75H11.25V8.25H12.75V6.75H14.25V5.25H12.75V3.75Z" fill="black"/>
</g>
<defs>
<clipPath id="clip0_201_56157">
<rect width="24" height="24" fill="white"/>
</clipPath>
</defs>
</svg>
