<svg width="24" height="24" viewBox="0 0 24 24" fill="none" xmlns="http://www.w3.org/2000/svg">
<g clip-path="url(#clip0_201_56914)">
<path d="M22.776 12.3402L11.625 1.18924C11.486 1.04952 11.3207 0.938742 11.1387 0.863326C10.9566 0.78791 10.7614 0.749352 10.5644 0.749883H3C2.40347 0.750566 1.83157 0.987838 1.40976 1.40965C0.987954 1.83146 0.750682 2.40336 0.75 2.99988V10.5504C0.750328 10.7552 0.792448 10.9578 0.873781 11.1458C0.955114 11.3338 1.07395 11.5032 1.22302 11.6436L13.0853 22.787C13.2931 22.9835 13.5684 23.0927 13.8545 23.0921C13.8684 23.0921 13.8825 23.0919 13.8967 23.0914C14.0454 23.0864 14.1916 23.0518 14.3268 22.9895C14.4619 22.9273 14.5833 22.8386 14.6837 22.7288L22.8085 13.8973C23.0056 13.684 23.1124 13.4026 23.1063 13.1122C23.1002 12.8218 22.9818 12.5451 22.776 12.3402ZM13.8361 21.4344L2.25 10.5504V2.99988C2.25024 2.80104 2.32933 2.61041 2.46993 2.46981C2.61053 2.32921 2.80116 2.25012 3 2.24988H10.5644L21.461 13.1465L13.8361 21.4344Z" fill="black"/>
<path d="M6.9375 4.5C6.45541 4.5 5.98414 4.64296 5.5833 4.91079C5.18245 5.17863 4.87003 5.55931 4.68554 6.00471C4.50106 6.4501 4.45279 6.9402 4.54684 7.41303C4.64089 7.88586 4.87304 8.32018 5.21393 8.66107C5.55482 9.00196 5.98914 9.23411 6.46197 9.32816C6.93479 9.42221 7.42489 9.37394 7.87029 9.18945C8.31568 9.00496 8.69637 8.69254 8.9642 8.2917C9.23204 7.89085 9.37499 7.41959 9.37499 6.9375C9.37426 6.29126 9.11722 5.6717 8.66026 5.21473C8.2033 4.75777 7.58374 4.50073 6.9375 4.5ZM6.9375 7.875C6.75208 7.875 6.57082 7.82001 6.41665 7.717C6.26248 7.61398 6.14232 7.46757 6.07136 7.29626C6.0004 7.12496 5.98184 6.93646 6.01801 6.7546C6.05419 6.57274 6.14347 6.4057 6.27459 6.27458C6.4057 6.14347 6.57274 6.05419 6.7546 6.01801C6.93646 5.98184 7.12496 6.0004 7.29626 6.07136C7.46757 6.14232 7.61399 6.26248 7.717 6.41665C7.82001 6.57082 7.875 6.75208 7.875 6.9375C7.87471 7.18605 7.77585 7.42434 7.60009 7.60009C7.42434 7.77585 7.18605 7.87471 6.9375 7.875Z" fill="black"/>
</g>
<defs>
<clipPath id="clip0_201_56914">
<rect width="24" height="24" fill="white"/>
</clipPath>
</defs>
</svg>
