<svg width="24" height="24" viewBox="0 0 24 24" fill="none" xmlns="http://www.w3.org/2000/svg">
<path d="M12 15.375C13.1931 15.3737 14.3369 14.8991 15.1805 14.0555C16.0241 13.2119 16.4987 12.0681 16.5 10.875V5.25C16.5 4.05653 16.0259 2.91193 15.182 2.06802C14.3381 1.22411 13.1935 0.75 12 0.75C10.8065 0.75 9.66193 1.22411 8.81802 2.06802C7.97411 2.91193 7.5 4.05653 7.5 5.25V10.875C7.50134 12.0681 7.97588 13.2119 8.8195 14.0555C9.66312 14.8991 10.8069 15.3737 12 15.375ZM9 5.25C9 4.45435 9.31607 3.69129 9.87868 3.12868C10.4413 2.56607 11.2044 2.25 12 2.25C12.7956 2.25 13.5587 2.56607 14.1213 3.12868C14.6839 3.69129 15 4.45435 15 5.25V10.875C15 11.6706 14.6839 12.4337 14.1213 12.9963C13.5587 13.5589 12.7956 13.875 12 13.875C11.2044 13.875 10.4413 13.5589 9.87868 12.9963C9.31607 12.4337 9 11.6706 9 10.875V5.25Z" fill="black"/>
<path d="M18.75 8.25V10.875C18.75 14.5969 15.7219 17.625 12 17.625C8.27812 17.625 5.25 14.5969 5.25 10.875V8.25H3.75V10.875C3.75 15.1712 7.05113 18.7103 11.25 19.0905V23.25H12.75V19.0905C16.9489 18.7103 20.25 15.1712 20.25 10.875V8.25H18.75Z" fill="black"/>
</svg>
