<svg width="24" height="24" viewBox="0 0 24 24" fill="none" xmlns="http://www.w3.org/2000/svg">
<path d="M22.125 1.875H1.875C1.57674 1.87535 1.29079 1.99399 1.07989 2.20489C0.868985 2.41579 0.750347 2.70174 0.75 3V21.375C0.750347 21.6733 0.868985 21.9592 1.07989 22.1701C1.29079 22.381 1.57674 22.4997 1.875 22.5H22.125C22.4233 22.4997 22.7092 22.381 22.9201 22.1701C23.131 21.9592 23.2497 21.6733 23.25 21.375V3C23.2497 2.70174 23.131 2.41579 22.9201 2.20489C22.7092 1.99399 22.4233 1.87535 22.125 1.875ZM21.75 21H2.25V3.375H21.75V21Z" fill="black"/>
<path d="M5.43565 13.248L8.87839 9.37272L5.43537 5.5014L4.31449 6.49825L6.87148 9.37323L4.31421 12.2517L5.43565 13.248Z" fill="black"/>
<path d="M16.125 11.25H10.125V12.75H16.125V11.25Z" fill="black"/>
</svg>
