<svg width="24" height="24" viewBox="0 0 24 24" fill="none" xmlns="http://www.w3.org/2000/svg">
<g clip-path="url(#clip0_201_55674)">
<path d="M16.2295 13.3473L12.0018 9.11951L7.77405 13.3473L8.83469 14.4079L11.2518 11.9908V23.2498H12.7518V11.9908L15.1689 14.4079L16.2295 13.3473Z" fill="black"/>
<path d="M18.75 7.56811V7.5C18.75 3.77812 15.7219 0.75 12 0.75C8.27812 0.75 5.25 3.77812 5.25 7.5V7.61677C4.13912 7.82641 3.11503 8.35985 2.30653 9.15C1.81452 9.62754 1.42326 10.1989 1.15591 10.8303C0.888555 11.4617 0.750531 12.1402 0.75 12.8259C0.75 14.2846 1.34944 15.6741 2.43797 16.7385C3.50156 17.7785 4.93772 18.375 6.37828 18.375H9.375V16.875H6.37828C4.17909 16.875 2.25 14.9829 2.25 12.8259C2.25 10.8446 3.92062 9.17358 6.0533 9.02175L6.75 8.97211V7.5C6.75 6.10761 7.30312 4.77226 8.28769 3.78769C9.27226 2.80312 10.6076 2.25 12 2.25C13.3924 2.25 14.7277 2.80312 15.7123 3.78769C16.6969 4.77226 17.25 6.10761 17.25 7.5V9.00187L17.9906 9.01125C20.169 9.03881 21.75 10.6431 21.75 12.8259C21.75 15.0964 20.0787 16.875 17.9452 16.875H14.625V18.375H17.9452C18.6598 18.3774 19.3671 18.2308 20.0219 17.9447C20.6768 17.6585 21.2648 17.2391 21.7486 16.7131C22.7168 15.6721 23.25 14.2917 23.25 12.8259C23.25 10.0867 21.3617 7.94025 18.75 7.56811Z" fill="black"/>
</g>
<defs>
<clipPath id="clip0_201_55674">
<rect width="24" height="24" fill="white"/>
</clipPath>
</defs>
</svg>
