<svg width="24" height="24" viewBox="0 0 24 24" fill="none" xmlns="http://www.w3.org/2000/svg">
<g clip-path="url(#clip0_201_55712)">
<path d="M9.82904 14.2949L15.4096 17.0804C15.6208 17.1858 15.8598 17.2221 16.0928 17.1841C16.3258 17.1462 16.5409 17.0359 16.7078 16.8689C16.8746 16.7019 16.9847 16.4867 17.0224 16.2537C17.0602 16.0206 17.0237 15.7816 16.9181 15.5705L14.129 9.99483L8.54686 7.19896C8.3357 7.09319 8.0966 7.05656 7.86345 7.09426C7.63031 7.13196 7.41494 7.24208 7.24787 7.40901C7.0808 7.57594 6.9705 7.79121 6.93261 8.02433C6.89471 8.25744 6.93114 8.49657 7.03674 8.70782L9.82904 14.2949ZM13.0109 11.1124L15.0737 15.2363L10.947 13.1763L8.88183 9.04429L13.0109 11.1124Z" fill="black"/>
<path d="M12 23.25C18.2132 23.25 23.25 18.2132 23.25 12C23.25 5.78681 18.2132 0.75 12 0.75C5.78681 0.75 0.75 5.78681 0.75 12C0.75 18.2132 5.78681 23.25 12 23.25ZM2.26655 11.4375C2.54386 6.56334 6.40092 2.64731 11.25 2.27841V5.39062H12.75V2.27841C17.5991 2.64731 21.4561 6.56334 21.7335 11.4375H18.7486V12.9375H21.705C21.2566 17.6362 17.4741 21.3622 12.75 21.7216V18.8906H11.25V21.7216C6.52594 21.3622 2.74341 17.6362 2.29505 12.9375H5.24864V11.4375H2.26655Z" fill="black"/>
</g>
<defs>
<clipPath id="clip0_201_55712">
<rect width="24" height="24" fill="white"/>
</clipPath>
</defs>
</svg>
