<svg width="24" height="24" viewBox="0 0 24 24" fill="none" xmlns="http://www.w3.org/2000/svg">
<g clip-path="url(#clip0_201_56300)">
<path d="M2.25 21.75V6.75H0.75V22.125C0.750335 22.4233 0.868969 22.7092 1.07987 22.9201C1.29078 23.131 1.57673 23.2497 1.875 23.25H17.25V21.75H2.25Z" fill="black"/>
<path d="M6.75 18.75H5.25V3.75H3.75V19.125C3.75033 19.4233 3.86897 19.7092 4.07987 19.9201C4.29078 20.131 4.57673 20.2497 4.875 20.25H20.25V18.75H6.75Z" fill="black"/>
<path d="M22.125 0.75H7.875C7.57673 0.750335 7.29078 0.868969 7.07987 1.07987C6.86897 1.29078 6.75033 1.57673 6.75 1.875V16.125C6.75033 16.4233 6.86897 16.7092 7.07987 16.9201C7.29078 17.131 7.57673 17.2497 7.875 17.25H22.125C22.4233 17.2497 22.7092 17.131 22.9201 16.9201C23.131 16.7092 23.2497 16.4233 23.25 16.125V1.875C23.2497 1.57673 23.131 1.29078 22.9201 1.07987C22.7092 0.868969 22.4233 0.750335 22.125 0.75ZM21.75 15.75H8.25V2.25H21.75V15.75Z" fill="black"/>
<path d="M14.25 13.5H15.75V9.5625H19.6875V8.0625H15.75V4.125H14.25V8.0625H10.3125V9.5625H14.25V13.5Z" fill="black"/>
</g>
<defs>
<clipPath id="clip0_201_56300">
<rect width="24" height="24" fill="white"/>
</clipPath>
</defs>
</svg>
