<svg width="24" height="24" viewBox="0 0 24 24" fill="none" xmlns="http://www.w3.org/2000/svg">
<path d="M17.945 14.2764C17.586 12.9753 16.8101 11.8278 15.7362 11.01C14.6623 10.1923 13.3498 9.74942 12 9.74942C10.6502 9.74942 9.33772 10.1923 8.26384 11.01C7.18997 11.8278 6.41404 12.9753 6.0551 14.2764L5.19972 17.3772C5.04614 17.934 5.02323 18.5187 5.13277 19.0857C5.24231 19.6528 5.48134 20.1868 5.83123 20.6463C6.18112 21.1058 6.63241 21.4783 7.14991 21.7347C7.66741 21.991 8.23714 22.1244 8.81468 22.1244H15.1854C15.7629 22.1244 16.3326 21.991 16.8501 21.7347C17.3676 21.4783 17.8189 21.1058 18.1688 20.6463C18.5187 20.1868 18.7577 19.6528 18.8673 19.0857C18.9768 18.5187 18.9539 17.934 18.8003 17.3772L17.945 14.2764ZM16.9755 19.7374C16.7665 20.0141 16.4959 20.2383 16.1852 20.3923C15.8744 20.5462 15.5321 20.6257 15.1854 20.6244H8.81468C8.46815 20.6245 8.12631 20.5444 7.8158 20.3906C7.50529 20.2367 7.23451 20.0133 7.02458 19.7376C6.81464 19.4619 6.67122 19.1414 6.60549 18.8012C6.53977 18.461 6.55352 18.1101 6.64568 17.7761L7.50105 14.6754C7.77269 13.6907 8.3599 12.8223 9.17258 12.2034C9.98527 11.5846 10.9785 11.2494 12 11.2494C13.0215 11.2494 14.0148 11.5846 14.8275 12.2034C15.6402 12.8223 16.2274 13.6907 16.499 14.6754L17.3544 17.7761C17.4479 18.11 17.4623 18.4611 17.3965 18.8016C17.3308 19.142 17.1866 19.4625 16.9755 19.7376V19.7374Z" fill="black"/>
<path d="M6.84846 10.7957C6.97896 9.98011 6.8059 9.10697 6.36096 8.33653C5.91603 7.5661 5.24628 6.97964 4.47485 6.68485C3.64873 6.36933 2.8061 6.41958 2.10139 6.82627C0.700433 7.63514 0.331761 9.62869 1.27971 11.2703C1.72451 12.0407 2.39431 12.6273 3.16573 12.9219C3.50745 13.0551 3.87068 13.1246 4.23743 13.1268C4.69434 13.1285 5.14352 13.009 5.5392 12.7805C6.2435 12.3737 6.7085 11.6689 6.84846 10.7957ZM5.36721 10.5586C5.30018 10.9772 5.09487 11.3049 4.7891 11.4814C4.48334 11.658 4.0969 11.6718 3.70081 11.5207C3.2502 11.3486 2.85167 10.9933 2.57857 10.5203C2.05357 9.61088 2.17835 8.514 2.85139 8.12532C3.02058 8.0293 3.21219 7.97984 3.40671 7.98197C3.58919 7.98386 3.76978 8.01908 3.93959 8.08589C4.3902 8.25807 4.78873 8.61333 5.06182 9.08635C5.33492 9.55936 5.44334 10.0823 5.36721 10.5586Z" fill="black"/>
<path d="M7.01091 7.68889C7.5435 8.11466 8.1517 8.33638 8.76675 8.33633C8.95098 8.33627 9.13467 8.31646 9.31467 8.27722C10.8954 7.93358 11.8539 6.14708 11.4512 4.29482C11.2623 3.42547 10.803 2.66277 10.158 2.1471C9.46734 1.59491 8.64919 1.38589 7.85428 1.55877C6.27356 1.90236 5.31511 3.68886 5.71772 5.54113C5.90667 6.41052 6.36596 7.17322 7.01091 7.68889ZM8.17284 3.02455C8.24573 3.00883 8.32009 3.00098 8.39466 3.00111C8.67347 3.00111 8.96025 3.11019 9.22139 3.31897C9.59812 3.62014 9.86948 4.07994 9.98545 4.61371C10.2086 5.64003 9.75548 6.64658 8.99606 6.81167C8.65102 6.88667 8.27864 6.78224 7.94761 6.51753C7.57088 6.21632 7.29952 5.75652 7.18355 5.2228C6.96038 4.19619 7.41347 3.18964 8.17284 3.02455Z" fill="black"/>
<path d="M21.8986 6.82627C21.1942 6.41958 20.3511 6.36933 19.5252 6.68485C18.7537 6.97955 18.084 7.5661 17.6392 8.33654C17.1944 9.10698 17.0213 9.98031 17.1517 10.7957C17.2914 11.6689 17.7563 12.3738 18.4609 12.7805C18.8566 13.009 19.3058 13.1285 19.7627 13.1268C20.1294 13.1246 20.4927 13.0551 20.8344 12.922C21.6058 12.6273 22.2756 12.0407 22.7204 11.2703C23.6682 9.6287 23.2996 7.63515 21.8986 6.82627ZM21.4214 10.5203C21.1483 10.9933 20.7498 11.3486 20.2992 11.5207C19.9033 11.672 19.5168 11.6581 19.211 11.4814C18.9052 11.3048 18.7001 10.9772 18.6329 10.5587C18.5567 10.0824 18.6651 9.55956 18.9382 9.08677C19.2113 8.61399 19.6098 8.25849 20.0604 8.08632C20.2302 8.01944 20.4108 7.98416 20.5933 7.98221C20.7878 7.98008 20.9794 8.02954 21.1486 8.12555C21.8217 8.51391 21.9466 9.61065 21.4214 10.5203Z" fill="black"/>
<path d="M14.6854 8.27697C14.8654 8.31621 15.049 8.33603 15.2333 8.33608C15.8483 8.33608 16.4567 8.11441 16.9891 7.68865C17.6341 7.17302 18.0934 6.41027 18.2823 5.54093C18.6849 3.68866 17.7265 1.90216 16.1457 1.55857C15.3509 1.38579 14.5327 1.59466 13.842 2.1469C13.197 2.66252 12.7377 3.42527 12.5488 4.29457C12.1461 6.14683 13.1046 7.93333 14.6854 8.27697ZM14.0146 4.61322C14.1305 4.07946 14.4019 3.61947 14.7786 3.31849C15.0398 3.10971 15.3266 3.00063 15.6054 3.00063C15.6799 3.00049 15.7543 3.00835 15.8272 3.02407C16.5866 3.18916 17.0396 4.19594 16.8166 5.22204C16.7005 5.7558 16.4291 6.21579 16.0525 6.51682C15.7215 6.78147 15.3494 6.88591 15.0041 6.81096C14.2445 6.6461 13.7914 5.63941 14.0146 4.61322Z" fill="black"/>
</svg>
