<svg width="24" height="24" viewBox="0 0 24 24" fill="none" xmlns="http://www.w3.org/2000/svg">
<g clip-path="url(#clip0_201_55534)">
<path d="M15.375 4.875C15.3746 4.47731 15.2164 4.09604 14.9352 3.81483C14.654 3.53363 14.2727 3.37545 13.875 3.375H13.125V2.25C13.1246 1.85231 12.9664 1.47104 12.6852 1.18983C12.404 0.908625 12.0227 0.750447 11.625 0.75H4.5C4.10231 0.750447 3.72104 0.908625 3.43983 1.18983C3.15863 1.47104 3.00045 1.85231 3 2.25V3.375H2.25C1.85231 3.37545 1.47104 3.53363 1.18983 3.81483C0.908625 4.09604 0.750447 4.47731 0.75 4.875V21.75C0.750447 22.1477 0.908625 22.529 1.18983 22.8102C1.47104 23.0914 1.85231 23.2496 2.25 23.25H13.875C14.2727 23.2496 14.654 23.0914 14.9352 22.8102C15.2164 22.529 15.3746 22.1477 15.375 21.75V20.625H23.25V6.375H15.375V4.875ZM21.75 7.875V19.125H13.875V21.75H2.25V4.875H4.5V2.25H11.625V4.875H13.875V7.875H21.75Z" fill="black"/>
<path d="M20.25 9.375H18.375V11.25H20.25V9.375Z" fill="black"/>
<path d="M16.875 9.375H15V11.25H16.875V9.375Z" fill="black"/>
<path d="M13.5 9.375H11.625V11.25H13.5V9.375Z" fill="black"/>
<path d="M20.25 15.75H18.375V17.625H20.25V15.75Z" fill="black"/>
<path d="M16.875 15.75H15V17.625H16.875V15.75Z" fill="black"/>
<path d="M13.5 15.75H11.625V17.625H13.5V15.75Z" fill="black"/>
<path d="M10.125 9.375H8.25V11.25H10.125V9.375Z" fill="black"/>
<path d="M10.125 15.75H8.25V17.625H10.125V15.75Z" fill="black"/>
</g>
<defs>
<clipPath id="clip0_201_55534">
<rect width="24" height="24" fill="white"/>
</clipPath>
</defs>
</svg>
