<svg width="24" height="24" viewBox="0 0 24 24" fill="none" xmlns="http://www.w3.org/2000/svg">
<path d="M20.862 16.1782L21.75 12.8484V10.875C21.3686 6.46908 17.6281 3 13.125 3H11.625V10.875H6.19491L5.35847 7.18275C5.28476 6.84841 5.09942 6.54912 4.83295 6.33415C4.56649 6.11918 4.23477 6.00133 3.89241 6H0.75V7.5H3.89241L5.78967 15.8752C5.11265 16.0545 4.49938 16.4199 4.01935 16.9299C3.53932 17.4399 3.2117 18.0741 3.07361 18.7607C2.93552 19.4474 2.99248 20.159 3.23804 20.8149C3.4836 21.4708 3.90793 22.0448 4.46298 22.472C5.01803 22.8991 5.68161 23.1623 6.37855 23.2317C7.07548 23.301 7.77792 23.1739 8.40628 22.8645C9.03464 22.5552 9.56382 22.076 9.93386 21.4814C10.3039 20.8868 10.5 20.2004 10.5 19.5C10.5 19.3734 10.4938 19.2484 10.4813 19.125H15.3937C15.3814 19.2484 15.3752 19.3734 15.375 19.5C15.3747 20.165 15.5513 20.8181 15.8866 21.3924C16.2219 21.9667 16.7039 22.4415 17.2832 22.7681C17.8624 23.0947 18.5181 23.2614 19.183 23.2511C19.848 23.2408 20.4982 23.0539 21.0671 22.7095C21.636 22.3651 22.103 21.8756 22.4204 21.2913C22.7378 20.7069 22.894 20.0486 22.8732 19.3839C22.8523 18.7192 22.655 18.0721 22.3016 17.5087C21.9482 16.9454 21.4514 16.4862 20.862 16.1782ZM13.125 4.5C16.8005 4.5 19.8349 7.29741 20.2108 10.875H13.125V4.5ZM6.75 21.75C6.30499 21.75 5.86998 21.618 5.49997 21.3708C5.12996 21.1236 4.84157 20.7722 4.67127 20.361C4.50097 19.9499 4.45642 19.4975 4.54323 19.061C4.63005 18.6246 4.84434 18.2237 5.15901 17.909C5.47368 17.5943 5.87459 17.38 6.31105 17.2932C6.7475 17.2064 7.1999 17.251 7.61104 17.4213C8.02217 17.5916 8.37357 17.88 8.62081 18.25C8.86804 18.62 9 19.055 9 19.5C8.99932 20.0965 8.76205 20.6684 8.34024 21.0902C7.91843 21.512 7.34653 21.7493 6.75 21.75ZM15.8795 17.625H9.99548C9.71358 17.1377 9.32578 16.72 8.86075 16.4027C8.39572 16.0854 7.86534 15.8766 7.3088 15.7918L6.53475 12.375H20.25V12.6516L19.4203 15.7626C19.3227 15.7549 19.2244 15.7499 19.125 15.7499C18.4671 15.7504 17.8209 15.9239 17.2513 16.253C16.6816 16.5821 16.2085 17.0553 15.8795 17.625ZM19.125 21.75C18.68 21.75 18.245 21.618 17.875 21.3708C17.505 21.1236 17.2166 20.7722 17.0463 20.361C16.876 19.9499 16.8314 19.4975 16.9182 19.061C17.005 18.6246 17.2193 18.2237 17.534 17.909C17.8487 17.5943 18.2496 17.38 18.686 17.2932C19.1225 17.2064 19.5749 17.251 19.986 17.4213C20.3972 17.5916 20.7486 17.88 20.9958 18.25C21.243 18.62 21.375 19.055 21.375 19.5C21.3743 20.0965 21.137 20.6684 20.7152 21.0902C20.2934 21.512 19.7215 21.7493 19.125 21.75Z" fill="black"/>
</svg>
