<svg width="24" height="24" viewBox="0 0 24 24" fill="none" xmlns="http://www.w3.org/2000/svg">
<path d="M22.428 4.17212L15.45 2.22025L8.45156 4.19162L1.94339 2.3454C1.80393 2.30583 1.6572 2.29915 1.51472 2.32586C1.37224 2.35258 1.23789 2.41197 1.12224 2.49938C1.00659 2.58678 0.91279 2.69981 0.8482 2.82959C0.783611 2.95937 0.749997 3.10236 0.75 3.24732V19.2129C0.750709 19.4576 0.830844 19.6954 0.97835 19.8906C1.12586 20.0858 1.33276 20.2278 1.56792 20.2952L8.44997 22.2476L15.4515 20.2754L22.06 22.1239C22.1994 22.1629 22.3458 22.1691 22.488 22.142C22.6301 22.1149 22.764 22.0553 22.8793 21.9679C22.9945 21.8804 23.0879 21.7674 23.1523 21.6378C23.2166 21.5082 23.25 21.3655 23.25 21.2208V5.25554C23.2494 5.01015 23.1688 4.77165 23.0205 4.57615C22.8722 4.38066 22.6642 4.23882 22.428 4.17212ZM7.64062 20.4586L2.25 18.9293V3.99156L7.64062 5.52081V20.4586ZM14.7007 18.9282L9.14062 20.4944V5.55587L14.7007 3.98968V18.9282ZM21.75 20.4794L16.2007 18.9273V3.98776L21.75 5.53984V20.4794Z" fill="black"/>
</svg>
