<svg width="24" height="24" viewBox="0 0 24 24" fill="none" xmlns="http://www.w3.org/2000/svg">
<g clip-path="url(#clip0_201_54853)">
<path d="M23.2253 9.24673C23.2253 5.82199 21.1792 2.8662 18.2452 1.53757C18.1827 1.50945 18.1199 1.48192 18.0567 1.45498C17.9303 1.40138 17.8023 1.35084 17.6728 1.30334C17.6081 1.27956 17.543 1.25659 17.4775 1.23443C17.3465 1.18999 17.2142 1.14874 17.0805 1.11068C15.5685 0.682182 13.9672 0.682182 12.4552 1.11068C12.3215 1.14874 12.1891 1.18999 12.0582 1.23443C11.9927 1.25662 11.9276 1.27959 11.8629 1.30334C11.7334 1.35081 11.6055 1.40135 11.479 1.45498C11.4158 1.48176 11.3529 1.50929 11.2905 1.53757C8.3565 2.8662 6.31041 5.82195 6.31041 9.24673V20.3787L1.81064 15.879L0.75 16.9396L7.06045 23.2501L13.3709 16.9396L12.3103 15.879L7.81027 20.379V9.24677C7.81027 5.83001 10.2859 2.98062 13.5377 2.39834C14.3513 2.25321 15.1841 2.25321 15.9977 2.39834C19.2495 2.98081 21.7252 5.8302 21.7252 9.24677H23.2252L23.2253 9.24673Z" fill="black"/>
</g>
<defs>
<clipPath id="clip0_201_54853">
<rect width="24" height="24" fill="white"/>
</clipPath>
</defs>
</svg>
