<svg width="24" height="24" viewBox="0 0 24 24" fill="none" xmlns="http://www.w3.org/2000/svg">
<path d="M18.75 7.65V3.1875C18.7497 2.93895 18.6509 2.70066 18.4751 2.5249C18.2993 2.34915 18.0611 2.25029 17.8125 2.25H6.1875C5.93895 2.25029 5.70066 2.34915 5.5249 2.5249C5.34915 2.70066 5.25029 2.93895 5.25 3.1875V7.65L0.75 10.864V23.25H23.25V10.864L18.75 7.65ZM21.2662 11.2906L18.75 12.9356V9.49312L21.2662 11.2906ZM6.75 3.75H17.25V13.9164L14.5703 15.6685L12.387 14.5364L10.0074 15.6851L6.75 13.7074V3.75ZM12.363 16.2136L21.75 21.081V21.75H2.25V21.0958L12.363 16.2136ZM2.25 12.7301L8.39738 16.4625L2.25 19.4301V12.7301ZM16.099 16.4613L21.75 12.7663V19.3913L16.099 16.4613ZM5.25 9.49312V12.7969L2.74997 11.2788L5.25 9.49312Z" fill="black"/>
</svg>
