<svg width="24" height="24" viewBox="0 0 24 24" fill="none" xmlns="http://www.w3.org/2000/svg">
<g clip-path="url(#clip0_201_55014)">
<path d="M23.2417 10.875C23.191 9.60357 22.8902 8.3546 22.3566 7.19944C21.7758 5.93888 20.9539 4.80412 19.9374 3.85908C17.7987 1.85414 14.9798 0.75 11.9999 0.75C9.77484 0.749993 7.59976 1.40979 5.7497 2.64596C3.89964 3.88212 2.4577 5.63913 1.60621 7.69481C0.754721 9.75048 0.531933 12.0125 0.96602 14.1948C1.40011 16.3771 2.47157 18.3816 4.04492 19.955C6.14065 22.0507 8.97872 23.2347 11.9425 23.2499C14.9063 23.265 17.7563 22.1099 19.8732 20.0357L18.8232 18.9643C17.0042 20.7549 14.5524 21.7559 11.9999 21.75C6.62375 21.75 2.24989 17.3761 2.24989 12C2.24989 6.62386 6.62375 2.25 11.9999 2.25C17.285 2.25 21.7499 6.37148 21.7499 11.25V12.9375C21.7499 14.2815 20.5723 15.375 19.1249 15.375C17.6775 15.375 16.4999 14.2815 16.4999 12.9375V7.5H14.9999V8.75395C14.3038 8.10744 13.4277 7.6877 12.4877 7.55037C11.5477 7.41304 10.5882 7.56461 9.73623 7.98498C8.88431 8.40535 8.18024 9.07467 7.71733 9.90425C7.25443 10.7338 7.05454 11.6845 7.14416 12.6302C7.23378 13.576 7.60868 14.4722 8.21917 15.2001C8.82967 15.9279 9.64693 16.4531 10.5627 16.7059C11.4784 16.9588 12.4493 16.9274 13.3468 16.616C14.2443 16.3045 15.0259 15.7277 15.5882 14.9619C16.3103 16.1072 17.6254 16.875 19.1249 16.875C21.3994 16.875 23.2499 15.1087 23.2499 12.9375V10.875H23.2417ZM11.8124 15.375C11.182 15.375 10.5657 15.1881 10.0415 14.8378C9.51733 14.4876 9.10878 13.9897 8.86752 13.4073C8.62627 12.8249 8.56314 12.184 8.68613 11.5656C8.80912 10.9473 9.1127 10.3794 9.55848 9.9336C10.0043 9.48782 10.5722 9.18424 11.1905 9.06125C11.8089 8.93826 12.4498 9.00138 13.0322 9.24263C13.6146 9.48389 14.1125 9.89244 14.4627 10.4166C14.8129 10.9408 14.9999 11.5571 14.9999 12.1875C14.9989 13.0326 14.6628 13.8428 14.0652 14.4403C13.4677 15.0379 12.6575 15.374 11.8124 15.375Z" fill="black"/>
</g>
<defs>
<clipPath id="clip0_201_55014">
<rect width="24" height="24" fill="white"/>
</clipPath>
</defs>
</svg>
