<svg width="24" height="24" viewBox="0 0 24 24" fill="none" xmlns="http://www.w3.org/2000/svg">
<path d="M15.4146 11.0904L6.29461 4.33481C6.12718 4.2108 5.9286 4.13572 5.72101 4.11793C5.51341 4.10015 5.30496 4.14037 5.11888 4.23411C4.9328 4.32785 4.7764 4.47142 4.66713 4.64882C4.55786 4.82623 4.5 5.03049 4.5 5.23884V18.7499C4.49964 18.9584 4.55727 19.1629 4.66647 19.3405C4.77567 19.5182 4.93212 19.6619 5.11833 19.7557C5.30455 19.8495 5.51318 19.8897 5.72091 19.8717C5.92864 19.8537 6.12728 19.7783 6.29461 19.6539L15.4146 12.8984C15.5559 12.7938 15.6706 12.6575 15.7497 12.5005C15.8288 12.3435 15.87 12.1702 15.87 11.9944C15.87 11.8186 15.8288 11.6453 15.7497 11.4883C15.6706 11.3313 15.5559 11.1951 15.4146 11.0904V11.0904ZM6 18.0053V5.98327L14.115 11.9944L6 18.0053Z" fill="black"/>
<path d="M19.5 4.125H18V19.875H19.5V4.125Z" fill="black"/>
</svg>
