<svg width="24" height="24" viewBox="0 0 24 24" fill="none" xmlns="http://www.w3.org/2000/svg">
<path d="M18.2368 5.92066C16.9968 3.81979 15.2365 2.07383 13.1255 0.85113L12.7499 0.633911L12.3744 0.85113C10.2275 2.09014 8.44476 3.87273 7.20561 6.01954C5.96645 8.16636 5.31457 10.6017 5.31555 13.0804C5.31555 13.2419 5.31837 13.4059 5.32385 13.5679C5.39847 15.7643 6.23843 17.6125 7.75291 18.9125C8.91185 19.9075 10.3984 20.5148 12.0001 20.6597V23.2504H13.5001V11.2503H11.9999V19.1501C9.46568 18.8565 6.94338 17.0663 6.82287 13.5169C6.8179 13.3719 6.81537 13.225 6.81537 13.0804C6.81983 10.9401 7.36645 8.83579 8.40421 6.96386C9.44198 5.09194 10.9371 3.51343 12.7499 2.37565C14.5628 3.51345 16.0578 5.09197 17.0955 6.96389C18.1333 8.83582 18.6799 10.9401 18.6843 13.0804C18.6843 13.225 18.6818 13.3719 18.6768 13.517C18.5804 16.3564 16.9468 18.0698 14.9997 18.7921V20.3796C16.0101 20.0933 16.947 19.5929 17.7469 18.9124C19.2614 17.6124 20.1014 15.7642 20.176 13.5679C20.1815 13.4059 20.1843 13.2419 20.1843 13.0804C20.1856 10.5628 19.5132 8.0907 18.2368 5.92066Z" fill="black"/>
</svg>
