<svg width="24" height="24" viewBox="0 0 24 24" fill="none" xmlns="http://www.w3.org/2000/svg">
<g clip-path="url(#clip0_201_55587)">
<path d="M3 23.25H8.625V21.75H3C2.80116 21.7498 2.61053 21.6707 2.46993 21.5301C2.32933 21.3895 2.25024 21.1988 2.25 21V15.375H0.75V21C0.75067 21.5965 0.987938 22.1684 1.40975 22.5903C1.83156 23.0121 2.40347 23.2493 3 23.25Z" fill="black"/>
<path d="M2.25 3C2.25024 2.80116 2.32933 2.61053 2.46993 2.46993C2.61053 2.32933 2.80116 2.25024 3 2.25H8.625V0.75H3C2.40347 0.75067 1.83156 0.987938 1.40975 1.40975C0.987938 1.83156 0.75067 2.40347 0.75 3V8.625H2.25V3Z" fill="black"/>
<path d="M21 0.75H15.375V2.25H21C21.1988 2.25024 21.3895 2.32933 21.5301 2.46993C21.6707 2.61053 21.7498 2.80116 21.75 3V8.625H23.25V3C23.2493 2.40347 23.0121 1.83156 22.5903 1.40975C22.1684 0.987938 21.5965 0.75067 21 0.75Z" fill="black"/>
<path d="M21.75 21C21.7498 21.1988 21.6707 21.3895 21.5301 21.5301C21.3895 21.6707 21.1988 21.7498 21 21.75H15.375V23.25H21C21.5965 23.2493 22.1684 23.0121 22.5903 22.5903C23.0121 22.1684 23.2493 21.5965 23.25 21V15.375H21.75V21Z" fill="black"/>
<path d="M18.75 12C18.75 8.27812 15.7219 5.25 12 5.25C8.27812 5.25 5.25 8.27812 5.25 12C5.25 15.7219 8.27812 18.75 12 18.75C15.7219 18.75 18.75 15.7219 18.75 12ZM12 17.25C10.9616 17.25 9.94661 16.9421 9.08326 16.3652C8.2199 15.7883 7.54699 14.9684 7.14963 14.0091C6.75227 13.0498 6.64831 11.9942 6.85088 10.9758C7.05345 9.95738 7.55346 9.02192 8.28769 8.28769C9.02192 7.55346 9.95738 7.05345 10.9758 6.85088C11.9942 6.64831 13.0498 6.75227 14.0091 7.14963C14.9684 7.54699 15.7883 8.2199 16.3652 9.08326C16.9421 9.94661 17.25 10.9616 17.25 12C17.2484 13.3919 16.6948 14.7263 15.7106 15.7106C14.7263 16.6948 13.3919 17.2484 12 17.25Z" fill="black"/>
</g>
<defs>
<clipPath id="clip0_201_55587">
<rect width="24" height="24" fill="white"/>
</clipPath>
</defs>
</svg>
