<svg width="24" height="24" viewBox="0 0 24 24" fill="none" xmlns="http://www.w3.org/2000/svg">
<path d="M15 7.875V9.375C15.6962 9.375 16.3639 9.65156 16.8562 10.1438C17.3484 10.6361 17.625 11.3038 17.625 12C17.625 12.6962 17.3484 13.3639 16.8562 13.8562C16.3639 14.3484 15.6962 14.625 15 14.625V16.125C16.094 16.125 17.1432 15.6904 17.9168 14.9168C18.6904 14.1432 19.125 13.094 19.125 12C19.125 10.906 18.6904 9.85677 17.9168 9.08318C17.1432 8.3096 16.094 7.875 15 7.875Z" fill="black"/>
<path d="M6.81436 5.625H0.75V18.375H6.81436L11.6894 23.25H13.5V0.75H11.6894L6.81436 5.625ZM6 16.875H2.25V7.125H6V16.875ZM12 21.4394L7.5 16.9394V7.06064L12 2.56064V21.4394Z" fill="black"/>
</svg>
