<svg width="24" height="24" viewBox="0 0 24 24" fill="none" xmlns="http://www.w3.org/2000/svg">
<g clip-path="url(#clip0_201_56122)">
<path d="M17.0625 6.375H12.75V17.625H17.0625C17.7087 17.6243 18.3283 17.3672 18.7853 16.9103C19.2422 16.4533 19.4993 15.8337 19.5 15.1875V8.8125C19.4993 8.16626 19.2422 7.5467 18.7853 7.08974C18.3283 6.63277 17.7087 6.37573 17.0625 6.375ZM18 15.1875C17.9997 15.4361 17.9009 15.6743 17.7251 15.8501C17.5493 16.0259 17.3111 16.1247 17.0625 16.125H14.25V7.875H17.0625C17.3111 7.87529 17.5493 7.97415 17.7251 8.1499C17.9009 8.32566 17.9997 8.56395 18 8.8125V15.1875Z" fill="black"/>
<path d="M9.75 11.25H6V6.375H4.5V17.625H6V12.75H9.75V17.625H11.25V6.375H9.75V11.25Z" fill="black"/>
<path d="M21.75 0.75H2.25C1.85231 0.750447 1.47104 0.908625 1.18983 1.18983C0.908625 1.47104 0.750447 1.85231 0.75 2.25V21.75C0.750447 22.1477 0.908625 22.529 1.18983 22.8102C1.47104 23.0914 1.85231 23.2496 2.25 23.25H21.75C22.1477 23.2496 22.529 23.0914 22.8102 22.8102C23.0914 22.529 23.2496 22.1477 23.25 21.75V2.25C23.2496 1.85231 23.0914 1.47104 22.8102 1.18983C22.529 0.908625 22.1477 0.750447 21.75 0.75ZM21.75 21.75H2.25V2.25H21.75L21.7509 21.75H21.75Z" fill="black"/>
</g>
<defs>
<clipPath id="clip0_201_56122">
<rect width="24" height="24" fill="white"/>
</clipPath>
</defs>
</svg>
