<svg width="24" height="24" viewBox="0 0 24 24" fill="none" xmlns="http://www.w3.org/2000/svg">
<path d="M12.9909 4.00366L12.5959 5.45777C14.0274 5.69733 15.3539 6.3615 16.4033 7.36413C17.4528 8.36677 18.1767 9.66161 18.4813 11.0807L19.9776 10.912C19.6388 9.1932 18.7917 7.61578 17.546 6.38405C16.3003 5.15232 14.7134 4.32305 12.9909 4.00366Z" fill="black"/>
<path d="M19.784 4.21588C18.1531 2.57652 16.0748 1.4548 13.8093 0.991211L13.4144 2.44457C17.561 3.2602 20.8257 6.56362 21.5831 10.7305L23.0784 10.5618C22.6664 8.15554 21.5149 5.93746 19.784 4.21588Z" fill="black"/>
<path d="M10.9269 6.97266C10.8776 6.972 10.8284 6.972 10.7794 6.97266C9.24615 6.98681 7.78052 7.60581 6.70132 8.695C5.62213 9.7842 5.01667 11.2555 5.01666 12.7888H6.52777C6.52778 11.6522 6.97598 10.5616 7.77512 9.75346C8.57426 8.94535 9.65985 8.48498 10.7963 8.47228C10.8291 8.472 10.8619 8.472 10.8947 8.47228C13.2258 8.50463 15.1346 10.428 15.1498 12.7597C15.1561 13.3499 15.0401 13.935 14.8092 14.4781C14.5783 15.0213 14.2375 15.5108 13.8082 15.9158C13.6985 16.0209 13.6112 16.147 13.5516 16.2866C13.4919 16.4262 13.4611 16.5765 13.461 16.7283V19.1042C13.4602 19.8056 13.1813 20.478 12.6854 20.974C12.1895 21.47 11.5171 21.749 10.8158 21.7499H10.4109V23.2499H10.8267C11.9257 23.2486 12.9794 22.8115 13.7565 22.0343C14.5337 21.2572 14.9708 20.2035 14.972 19.1045V16.8864C16.0608 15.7859 16.6682 14.2982 16.6608 12.7502C16.6465 11.2298 16.0392 9.7751 14.9682 8.69593C13.8971 7.61675 12.4471 6.99842 10.9269 6.97266Z" fill="black"/>
<path d="M13.2722 12.789C13.2736 12.4678 13.2116 12.1495 13.0896 11.8523C12.9677 11.5552 12.7883 11.2851 12.5617 11.0575C12.335 10.8299 12.0657 10.6493 11.7691 10.526C11.4725 10.4028 11.1545 10.3394 10.8333 10.3394C10.5121 10.3394 10.1941 10.4028 9.89752 10.526C9.60092 10.6493 9.33158 10.8299 9.10497 11.0575C8.87836 11.2851 8.69894 11.5552 8.577 11.8523C8.45507 12.1495 8.39302 12.4678 8.39443 12.789H9.89443C9.89356 12.6651 9.91719 12.5423 9.96398 12.4276C10.0108 12.3129 10.0798 12.2087 10.1671 12.1208C10.2543 12.0329 10.3581 11.9631 10.4725 11.9155C10.5868 11.8679 10.7095 11.8434 10.8333 11.8434C10.9572 11.8434 11.0798 11.8679 11.1941 11.9155C11.3085 11.9631 11.4123 12.0329 11.4996 12.1208C11.5868 12.2087 11.6558 12.3129 11.7026 12.4276C11.7494 12.5423 11.7731 12.6651 11.7722 12.789H13.2722Z" fill="black"/>
<path d="M11.625 14.25H10.125V15.75H11.625V14.25Z" fill="black"/>
<path d="M6.75 19.125H5.25V20.625H6.75V19.125Z" fill="black"/>
<path d="M6.85677 14.8932L5.79614 15.9539L9.92115 20.0789L10.9818 19.0182L6.85677 14.8932Z" fill="black"/>
</svg>
