<svg width="24" height="24" viewBox="0 0 24 24" fill="none" xmlns="http://www.w3.org/2000/svg">
<path d="M22.0156 10.146L12.7068 1.58188C12.4042 1.30347 12.0056 1.1528 11.5945 1.16136C11.1834 1.16992 10.7915 1.33705 10.5008 1.62782L1.93936 10.1893L1.5 10.6286V23.2499H9.75V15.3749H14.25V23.2499H22.5V10.5917L22.0156 10.146ZM11.6268 2.66104C11.64 2.66104 11.6318 2.6639 11.6262 2.66948C11.6203 2.6639 11.6136 2.66104 11.6268 2.66104ZM21 21.7499H15.75V15.3749C15.75 14.9771 15.592 14.5955 15.3107 14.3142C15.0294 14.0329 14.6478 13.8749 14.25 13.8749H9.75C9.35218 13.8749 8.97064 14.0329 8.68934 14.3142C8.40804 14.5955 8.25 14.9771 8.25 15.3749V21.7499H3V11.2499L11.6268 2.68846C11.6274 2.6879 11.6274 2.68738 11.6279 2.68682L21 11.2499V21.7499Z" fill="black"/>
</svg>
