<svg width="24" height="24" viewBox="0 0 24 24" fill="none" xmlns="http://www.w3.org/2000/svg">
<path d="M10.4102 11.0458L7.50349 8.13907L3.83435 11.808L6.74102 14.7147L6.73915 14.7166L9.8778 17.8552L10.41 18.3837L10.4119 18.3856L13.5505 15.247L14.0789 14.7147L23.5607 5.23328L19.8917 1.56433L10.4102 11.0458ZM12.4882 14.1844L11.9597 14.7166L10.4102 16.2661L10.4083 16.2643L8.86062 14.7166L8.86249 14.7147L5.95582 11.808L7.50344 10.2604L10.4102 13.1671L19.8917 3.68561L21.4393 5.23328L12.4882 14.1844Z" fill="black"/>
<path d="M21 21.75H2.25V3H16.3228L17.8228 1.5H0.75V23.25H22.5V8.39508L21 9.89508V21.75Z" fill="black"/>
</svg>
