<svg width="24" height="24" viewBox="0 0 24 24" fill="none" xmlns="http://www.w3.org/2000/svg">
<g clip-path="url(#clip0_201_55084)">
<path d="M7.125 14.25H5.625V20.25H7.125V14.25Z" fill="black"/>
<path d="M10.875 14.25H9.375V20.25H10.875V14.25Z" fill="black"/>
<path d="M14.625 14.25H13.125V20.25H14.625V14.25Z" fill="black"/>
<path d="M18.375 14.25H16.875V20.25H18.375V14.25Z" fill="black"/>
<path d="M22.2038 7.875L18.4717 0.75H16.7783L20.5105 7.875H3.48952L7.22166 0.75H5.52834L1.7962 7.875H0.75V13.1001L2.75887 23.25H21.2399L23.25 13.1993V7.875H22.2038ZM21.75 13.0507L20.0101 21.75H3.99112L2.25 12.9531V12.75H21.75V13.0507ZM21.75 11.25H2.25V9.375H21.75V11.25Z" fill="black"/>
</g>
<defs>
<clipPath id="clip0_201_55084">
<rect width="24" height="24" fill="white"/>
</clipPath>
</defs>
</svg>
