<svg width="24" height="24" viewBox="0 0 24 24" fill="none" xmlns="http://www.w3.org/2000/svg">
<path d="M21.374 19.8868C21.6725 19.8864 21.9587 19.7677 22.1698 19.5566C22.3808 19.3455 22.4996 19.0594 22.5 18.7609V5.24983C22.5 5.04147 22.4422 4.83721 22.3329 4.65981C22.2236 4.48241 22.0672 4.33883 21.8811 4.2451C21.6951 4.15136 21.4866 4.11114 21.279 4.12892C21.0714 4.1467 20.8728 4.22178 20.7054 4.3458L12.375 10.5164V5.24983C12.375 5.04147 12.3172 4.83721 12.2079 4.65981C12.0986 4.48241 11.9422 4.33883 11.7561 4.2451C11.5701 4.15136 11.3616 4.11114 11.154 4.12892C10.9464 4.1467 10.7478 4.22178 10.5804 4.3458L1.46041 11.1013C1.31917 11.206 1.20441 11.3422 1.12533 11.4992C1.04626 11.6562 1.00507 11.8295 1.00507 12.0053C1.00507 12.1811 1.04626 12.3544 1.12533 12.5114C1.20441 12.6684 1.31917 12.8047 1.46041 12.9093L10.5804 19.6649C10.7478 19.7889 10.9464 19.864 11.154 19.8818C11.3616 19.8995 11.57 19.8593 11.7561 19.7656C11.9422 19.6719 12.0986 19.5283 12.2079 19.3509C12.3171 19.1735 12.375 18.9692 12.375 18.7609V13.4944L20.7054 19.6649C20.8987 19.8088 21.1331 19.8866 21.374 19.8868ZM10.875 18.0165L2.76002 12.0053L10.875 5.99444V18.0165ZM21 5.99444V18.0165L12.885 12.0053L21 5.99444Z" fill="black"/>
</svg>
