<svg width="24" height="24" viewBox="0 0 24 24" fill="none" xmlns="http://www.w3.org/2000/svg">
<path d="M2.22864 2.97888V21.0214C2.22864 21.2203 2.30766 21.411 2.44831 21.5517C2.58896 21.6923 2.77973 21.7714 2.97864 21.7714H21.0211C21.22 21.7714 21.4108 21.6923 21.5514 21.5517C21.6921 21.411 21.7711 21.2203 21.7711 21.0214V2.97888C21.7711 2.77997 21.6921 2.5892 21.5514 2.44855C21.4108 2.3079 21.22 2.22888 21.0211 2.22888H2.97864C2.77973 2.22888 2.58896 2.3079 2.44831 2.44855C2.30766 2.5892 2.22864 2.77997 2.22864 2.97888ZM15.7568 3.72888H20.2708V8.24294H15.7568V3.72888ZM15.7568 9.74294H20.2708V14.257H15.7568V9.74294ZM15.7568 15.757H20.2708V20.2711H15.7568V15.757ZM9.7427 3.72888H14.2568V8.24294H9.7427V3.72888ZM9.7427 9.74294H14.2568V14.257H9.7427V9.74294ZM9.7427 15.757H14.2568V20.2711H9.7427V15.757ZM3.72864 3.72888H8.2427V8.24294H3.72864V3.72888ZM3.72864 9.74294H8.2427V14.257H3.72864V9.74294ZM3.72864 15.757H8.2427V20.2711H3.72864V15.757Z" fill="black"/>
</svg>
