<svg width="24" height="24" viewBox="0 0 24 24" fill="none" xmlns="http://www.w3.org/2000/svg">
<path d="M22.125 3.75H1.875C1.57674 3.75035 1.29079 3.86899 1.07989 4.07989C0.868985 4.29079 0.750347 4.57674 0.75 4.875V16.125C0.750347 16.4233 0.868985 16.7092 1.07989 16.9201C1.29079 17.131 1.57674 17.2497 1.875 17.25H22.125C22.4233 17.2497 22.7092 17.131 22.9201 16.9201C23.131 16.7092 23.2497 16.4233 23.25 16.125V4.875C23.2497 4.57674 23.131 4.29079 22.9201 4.07989C22.7092 3.86899 22.4233 3.75035 22.125 3.75ZM21.75 15.75H2.25V5.25H21.75V15.75Z" fill="black"/>
<path d="M14.25 12.75H6.75V14.25H14.25V12.75Z" fill="black"/>
<path d="M5.25 12.75H3.75V14.25H5.25V12.75Z" fill="black"/>
<path d="M20.25 12.75H18.75V14.25H20.25V12.75Z" fill="black"/>
<path d="M17.25 12.75H15.75V14.25H17.25V12.75Z" fill="black"/>
<path d="M18.75 9.75H17.25V11.25H18.75V9.75Z" fill="black"/>
<path d="M15.75 9.75H14.25V11.25H15.75V9.75Z" fill="black"/>
<path d="M12.75 9.75H11.25V11.25H12.75V9.75Z" fill="black"/>
<path d="M9.75 9.75H8.25V11.25H9.75V9.75Z" fill="black"/>
<path d="M6.75 9.75H5.25V11.25H6.75V9.75Z" fill="black"/>
<path d="M17.25 6.75H15.75V8.25H17.25V6.75Z" fill="black"/>
<path d="M20.25 6.75H18.75V8.25H20.25V6.75Z" fill="black"/>
<path d="M14.25 6.75H12.75V8.25H14.25V6.75Z" fill="black"/>
<path d="M11.25 6.75H9.75V8.25H11.25V6.75Z" fill="black"/>
<path d="M8.25 6.75H6.75V8.25H8.25V6.75Z" fill="black"/>
<path d="M5.25 6.75H3.75V8.25H5.25V6.75Z" fill="black"/>
</svg>
