<svg width="24" height="24" viewBox="0 0 24 24" fill="none" xmlns="http://www.w3.org/2000/svg">
<g clip-path="url(#clip0_201_56066)">
<path d="M22.125 6H17.4297C17.913 5.27801 18.0992 4.39734 17.9493 3.54151C17.7994 2.68568 17.3251 1.92069 16.6251 1.40593C15.9251 0.891172 15.0536 0.666355 14.1919 0.77832C13.3303 0.890285 12.5451 1.3304 12 2.00695C11.4549 1.3304 10.6697 0.890285 9.80806 0.77832C8.94644 0.666355 8.07485 0.891172 7.3749 1.40593C6.67494 1.92069 6.2006 2.68568 6.05072 3.54151C5.90084 4.39734 6.08697 5.27801 6.57033 6H1.875C1.57674 6.00035 1.29079 6.11899 1.07989 6.32989C0.868985 6.54079 0.750347 6.82674 0.75 7.125V22.1979C0.75 22.7781 1.2547 23.25 1.875 23.25H22.125C22.7453 23.25 23.25 22.7781 23.25 22.1979V7.125C23.2497 6.82674 23.131 6.54079 22.9201 6.32989C22.7092 6.11899 22.4233 6.00035 22.125 6ZM14.625 2.25C15.1223 2.25 15.5992 2.44754 15.9508 2.79917C16.3025 3.1508 16.5 3.62772 16.5 4.125C16.5 4.62228 16.3025 5.09919 15.9508 5.45082C15.5992 5.80246 15.1223 6 14.625 6H12.75V4.125C12.7506 3.62789 12.9483 3.1513 13.2998 2.79979C13.6513 2.44828 14.1279 2.25056 14.625 2.25ZM7.5 4.125C7.5 3.62772 7.69754 3.1508 8.04917 2.79917C8.40081 2.44754 8.87772 2.25 9.375 2.25C9.87228 2.25 10.3492 2.44754 10.7008 2.79917C11.0525 3.1508 11.25 3.62772 11.25 4.125V6H9.375C8.87789 5.99944 8.4013 5.80172 8.04979 5.45021C7.69828 5.0987 7.50056 4.62211 7.5 4.125ZM2.25 21.75V12H9V21.75H2.25ZM10.5 21.75V12H13.5V21.75H10.5ZM21.75 21.75H15V12H21.75V21.75ZM2.25 10.5V7.5H21.75V10.5H2.25Z" fill="black"/>
</g>
<defs>
<clipPath id="clip0_201_56066">
<rect width="24" height="24" fill="white"/>
</clipPath>
</defs>
</svg>
