<svg width="24" height="24" viewBox="0 0 24 24" fill="none" xmlns="http://www.w3.org/2000/svg">
<g clip-path="url(#clip0_201_55821)">
<path d="M12.8719 1.20061C12.6175 1.01893 12.3126 0.921265 12 0.921265C11.6874 0.921265 11.3825 1.01893 11.1281 1.20061L0.75 8.61357V23.2495H23.25V8.61357L12.8719 1.20061ZM21.75 18.8758L15.9361 15.1383L21.75 10.6163V18.8758ZM12 2.42119L21.3014 9.06516L14.5985 14.2784L12 12.6079L9.40153 14.2784L2.69864 9.06516L12 2.42119ZM2.25 10.6163L8.06391 15.1383L2.25 18.8758V10.6163ZM21.75 21.7495H2.25V20.659L12 14.3911L21.75 20.659V21.7495Z" fill="black"/>
</g>
<defs>
<clipPath id="clip0_201_55821">
<rect width="24" height="24" fill="white"/>
</clipPath>
</defs>
</svg>
