<svg width="24" height="24" viewBox="0 0 24 24" fill="none" xmlns="http://www.w3.org/2000/svg">
<path d="M22.125 2.25H1.89075C1.59248 2.25033 1.30653 2.36897 1.09562 2.57987C0.884716 2.79078 0.766082 3.07673 0.765747 3.375V21.375C0.766082 21.6733 0.884716 21.9592 1.09562 22.1701C1.30653 22.381 1.59248 22.4997 1.89075 22.5H22.125C22.4233 22.4997 22.7093 22.381 22.9202 22.1701C23.1311 21.9592 23.2497 21.6733 23.25 21.375V3.375C23.2497 3.07673 23.1311 2.79078 22.9202 2.57987C22.7093 2.36897 22.4233 2.25033 22.125 2.25ZM21.75 3.75V7.12411L2.26575 7.10109V3.75H21.75ZM2.26575 21V8.60109L21.75 8.62411V21H2.26575Z" fill="black"/>
</svg>
