<svg width="24" height="24" viewBox="0 0 24 24" fill="none" xmlns="http://www.w3.org/2000/svg">
<path d="M5.25 7.5H3.75V16.875H5.25V7.5Z" fill="black"/>
<path d="M8.25 7.5H6.75V16.875H8.25V7.5Z" fill="black"/>
<path d="M11.25 7.5H9.75V16.875H11.25V7.5Z" fill="black"/>
<path d="M14.25 7.5H12.75V16.875H14.25V7.5Z" fill="black"/>
<path d="M17.25 7.5H15.75V16.875H17.25V7.5Z" fill="black"/>
<path d="M20.2502 8.25003V5.60581C20.2473 5.31011 20.1272 5.02763 19.9163 4.82033C19.7054 4.61303 19.4209 4.49784 19.1252 4.50003H1.87451C1.5788 4.49784 1.29429 4.61303 1.08339 4.82033C0.872493 5.02763 0.75242 5.31011 0.749512 5.60581V18.7692C0.75242 19.065 0.872493 19.3474 1.08339 19.5547C1.29429 19.762 1.5788 19.8772 1.87451 19.875H19.1252C19.4209 19.8772 19.7054 19.762 19.9163 19.5547C20.1272 19.3474 20.2473 19.065 20.2502 18.7692V16.125H23.2502V8.25003H20.2502ZM21.7502 14.625H18.7502V18.375H2.24951V6.00003H18.7502V9.75003H21.7502V14.625Z" fill="black"/>
</svg>
