<svg width="24" height="24" viewBox="0 0 24 24" fill="none" xmlns="http://www.w3.org/2000/svg">
<path d="M19.125 3.75H4.875C4.57673 3.75033 4.29078 3.86897 4.07987 4.07987C3.86897 4.29078 3.75033 4.57673 3.75 4.875V19.125C3.75033 19.4233 3.86897 19.7092 4.07987 19.9201C4.29078 20.131 4.57673 20.2497 4.875 20.25H19.125C19.4233 20.2497 19.7092 20.131 19.9201 19.9201C20.131 19.7092 20.2497 19.4233 20.25 19.125V4.875C20.2497 4.57673 20.131 4.29078 19.9201 4.07987C19.7092 3.86897 19.4233 3.75033 19.125 3.75ZM18.75 18.75H5.25V5.25H18.75V18.75Z" fill="black"/>
</svg>
