<svg width="24" height="24" viewBox="0 0 24 24" fill="none" xmlns="http://www.w3.org/2000/svg">
<path d="M22.125 10.875H19.875V5.625C19.8747 5.32674 19.756 5.04079 19.5451 4.82989C19.3342 4.61899 19.0483 4.50035 18.75 4.5H1.875C1.57674 4.50035 1.29079 4.61899 1.07989 4.82989C0.868985 5.04079 0.750347 5.32674 0.75 5.625V17.1562C0.750347 17.4545 0.868985 17.7405 1.07989 17.9514C1.29079 18.1623 1.57674 18.2809 1.875 18.2812H9.9375V20.625H7.125V22.125H14.25V20.625H11.4375V18.2812H15.75V21C15.7503 21.2983 15.869 21.5842 16.0799 21.7951C16.2908 22.006 16.5767 22.1247 16.875 22.125H22.125C22.4233 22.1247 22.7092 22.006 22.9201 21.7951C23.131 21.5842 23.2497 21.2983 23.25 21V12C23.2497 11.7017 23.131 11.4158 22.9201 11.2049C22.7092 10.994 22.4233 10.8753 22.125 10.875ZM15.75 12V16.7812H2.25V6H18.375V10.875H16.875C16.5767 10.8753 16.2908 10.994 16.0799 11.2049C15.869 11.4158 15.7503 11.7017 15.75 12ZM21.75 20.625H17.25V12.375H21.75V20.625Z" fill="black"/>
</svg>
