<svg width="24" height="24" viewBox="0 0 24 24" fill="none" xmlns="http://www.w3.org/2000/svg">
<path d="M18.6932 1.04562C18.5541 0.903779 18.388 0.79122 18.2047 0.71458C18.0213 0.637939 17.8245 0.598767 17.6258 0.599372H17.625C17.4261 0.598906 17.2291 0.638286 17.0457 0.715187C16.8623 0.792089 16.6961 0.904954 16.557 1.04712L4.10316 13.6983C3.82648 13.9809 3.67222 14.361 3.67378 14.7565C3.67533 15.1519 3.83257 15.5309 4.11145 15.8112L4.80052 16.5003L0.75 20.598V22.4061H5.75625L8.23125 19.9311L8.8162 20.5161C8.95848 20.6584 9.12793 20.7706 9.31446 20.846C9.50099 20.9215 9.7008 20.9586 9.90198 20.9552C10.1032 20.9519 10.3016 20.9081 10.4855 20.8264C10.6694 20.7448 10.835 20.627 10.9725 20.48L23.0772 7.53593C23.3428 7.25341 23.4883 6.87879 23.483 6.49106C23.4778 6.10332 23.3222 5.73278 23.049 5.45754L18.6932 1.04562ZM5.13506 20.9061H2.55469L4.73681 18.6983L6.03994 20.0014L5.13506 20.9061ZM9.87694 19.4555L8.23125 17.8099L7.1003 18.9408L5.79098 17.6315L6.91533 16.4939L5.172 14.7507L7.43784 12.4489L12.0844 17.0952L9.87694 19.4555ZM13.1093 15.9989L8.49023 11.3799L17.6258 2.09942L21.9816 6.51134L13.1093 15.9989Z" fill="black"/>
</svg>
