<svg width="24" height="24" viewBox="0 0 24 24" fill="none" xmlns="http://www.w3.org/2000/svg">
<path d="M11.8351 16.1733L6.72478 11.063L3 14.7878L8.11345 19.9013L8.11153 19.9032L11.3029 23.0945L11.8351 23.623L11.837 23.6249L15.0315 20.4304L15.5568 19.9013L20.6703 14.7878L16.9453 11.063L11.8351 16.1733ZM13.969 19.3678L13.4454 19.8953L11.8351 21.5055L11.8333 21.5037L10.2266 19.897L10.2285 19.895L5.12128 14.7878L6.72478 13.1843L11.8351 18.2947L16.9453 13.1843L18.5488 14.7878L13.969 19.3678Z" fill="black"/>
<path d="M8.11153 9.53459L11.3029 12.7259L11.8351 13.2543L11.837 13.2563L15.0315 10.0618L15.5568 9.53263L20.6703 4.41899L16.9453 0.69397L11.8351 5.80452L6.72478 0.69397L3 4.41899L8.11345 9.53244L8.11153 9.53459ZM5.12128 4.41899L6.72478 2.81549L11.8351 7.92584L16.9453 2.81549L18.5488 4.41899L13.9688 8.999L13.4446 9.527L11.8349 11.1367L11.8331 11.1349L10.2264 9.52813L10.2283 9.5262L5.12128 4.41899Z" fill="black"/>
</svg>
