<svg width="24" height="24" viewBox="0 0 24 24" fill="none" xmlns="http://www.w3.org/2000/svg">
<g clip-path="url(#clip0_201_56586)">
<path d="M22.3969 6.57177L17.4281 1.60302C16.9071 1.0822 16.208 0.778194 15.4717 0.752251C14.7355 0.726307 14.0167 0.980352 13.4603 1.46321C12.9039 1.94607 12.5511 2.62185 12.4731 3.35443C12.3951 4.087 12.5976 4.82193 13.0398 5.41115L12.8095 5.67051L8.232 7.68145L6.23461 6.6021C6.01657 6.48462 5.7659 6.44226 5.52136 6.48156C5.27682 6.52086 5.05205 6.63963 4.8818 6.81951L2.93437 8.8821C2.73202 9.09431 2.621 9.37745 2.6252 9.67065C2.6294 9.96385 2.74848 10.2437 2.95683 10.45L7.72308 15.2162L0.75 22.1893V23.2499H1.81064L8.78367 16.2769L13.5281 21.0213C13.7334 21.2278 14.0109 21.3463 14.3019 21.352C14.593 21.3576 14.8748 21.2498 15.0879 21.0514L17.1703 19.1235C17.3541 18.9536 17.476 18.7272 17.5165 18.4801C17.557 18.2331 17.5139 17.9796 17.394 17.7599L16.2998 15.7509L18.2747 11.508L18.6778 11.0243C19.2755 11.4384 20.0065 11.6138 20.727 11.5163C21.4475 11.4187 22.1055 11.0552 22.5716 10.4972C23.0377 9.93915 23.2782 9.22695 23.2459 8.50058C23.2136 7.77421 22.9107 7.08619 22.3969 6.57177ZM21.3362 9.62948C21.0714 9.89425 20.7122 10.043 20.3377 10.043C19.9633 10.043 19.6041 9.89425 19.3393 9.62948L18.5478 8.83794L16.9972 10.6979L14.6206 15.8041L15.9372 18.2212L14.3337 19.7057L4.275 9.64705L5.775 8.05846L8.16417 9.34954L13.7135 6.91166L15.0812 5.37121L14.3707 4.66054C14.1122 4.39442 13.9689 4.03732 13.9716 3.6664C13.9744 3.29547 14.1229 2.94052 14.3852 2.67823C14.6475 2.41594 15.0025 2.26738 15.3734 2.26465C15.7443 2.26193 16.1014 2.40526 16.3675 2.66366L21.3363 7.63241C21.601 7.89724 21.7498 8.25638 21.7498 8.63085C21.7498 9.00533 21.601 9.36447 21.3363 9.62929L21.3362 9.62948Z" fill="black"/>
</g>
<defs>
<clipPath id="clip0_201_56586">
<rect width="24" height="24" fill="white"/>
</clipPath>
</defs>
</svg>
