<svg width="24" height="24" viewBox="0 0 24 24" fill="none" xmlns="http://www.w3.org/2000/svg">
<g clip-path="url(#clip0_201_56117)">
<path d="M12 0.75C5.78681 0.75 0.75 5.78681 0.75 12C0.75 18.2132 5.78681 23.25 12 23.25C18.2132 23.25 23.25 18.2132 23.25 12C23.25 5.78681 18.2132 0.75 12 0.75ZM18.8943 18.8943C17.1848 20.5987 14.9019 21.6056 12.4906 21.7188C10.0792 21.832 7.7121 21.0434 5.85044 19.5066C3.98877 17.9698 2.76594 15.795 2.4202 13.4059C2.07446 11.0168 2.63058 8.5845 3.98021 6.58302C5.32984 4.58153 7.37629 3.15421 9.72081 2.57917C12.0653 2.00412 14.54 2.32255 16.6625 3.4724C18.7851 4.62226 20.4035 6.52117 21.2025 8.79912C22.0014 11.0771 21.9237 13.5709 20.9844 15.7947C20.4948 16.9534 19.785 18.0061 18.8943 18.8943Z" fill="black"/>
<path d="M9 9.375H7.125V11.25H9V9.375Z" fill="black"/>
<path d="M16.875 9.375H15V11.25H16.875V9.375Z" fill="black"/>
<path d="M15.8573 14.4C15.5672 15.1321 15.0632 15.7598 14.4111 16.2013C13.759 16.6428 12.989 16.8775 12.2015 16.875H11.7984C11.0109 16.8776 10.2409 16.6428 9.58878 16.2013C8.93666 15.7598 8.43268 15.1321 8.14255 14.4L8.0826 14.25H6.46724L6.74999 14.9569C7.15358 15.9659 7.85024 16.8308 8.75009 17.4401C9.64995 18.0493 10.7117 18.375 11.7984 18.375H12.2015C13.2882 18.375 14.35 18.0493 15.2499 17.4401C16.1497 16.8308 16.8464 15.9659 17.25 14.9569L17.5327 14.25H15.9172L15.8573 14.4Z" fill="black"/>
</g>
<defs>
<clipPath id="clip0_201_56117">
<rect width="24" height="24" fill="white"/>
</clipPath>
</defs>
</svg>
