<svg width="24" height="24" viewBox="0 0 24 24" fill="none" xmlns="http://www.w3.org/2000/svg">
<path d="M17.5736 11.9006L18.1061 11.4165L12.954 5.74927H9.74346L7.66793 7.09697C7.27041 7.35404 6.94374 7.70673 6.71783 8.12275C6.49193 8.53877 6.37401 9.00482 6.37488 9.47822V12.8438H7.87488V9.47822C7.87445 9.25488 7.93007 9.035 8.03664 8.83873C8.14321 8.64245 8.29732 8.47605 8.48487 8.35477L9.74988 7.53347V11.932L14.7046 22.2624H16.2487L12.7834 14.7985V7.79138L16.2815 11.6392L20.1445 22.2622H21.3415L17.5736 11.9006Z" fill="black"/>
<path d="M10.0639 4.54044C10.3327 4.79047 10.6795 4.94027 11.0458 4.96464C11.4121 4.98902 11.7757 4.88648 12.0753 4.67427C12.3749 4.46207 12.5922 4.15316 12.6908 3.7995C12.7893 3.44585 12.7631 3.06904 12.6164 2.73247C12.4698 2.3959 12.2117 2.12012 11.8856 1.95151C11.5594 1.7829 11.1852 1.73177 10.8258 1.80671C10.4664 1.88165 10.1438 2.07809 9.91219 2.36298C9.68062 2.64787 9.55425 3.00383 9.55432 3.37096C9.55403 3.59049 9.59915 3.80772 9.68684 4.00898C9.77454 4.21024 9.90291 4.39118 10.0639 4.54044Z" fill="black"/>
<path d="M6.22491 22.2624H7.84046L10.5364 15.5225L9.65551 13.6859L6.22491 22.2624Z" fill="black"/>
</svg>
