<svg width="24" height="24" viewBox="0 0 24 24" fill="none" xmlns="http://www.w3.org/2000/svg">
<path d="M21.75 3.375H2.25C1.85231 3.37545 1.47104 3.53363 1.18983 3.81483C0.908625 4.09604 0.750447 4.47731 0.75 4.875V19.125C0.750447 19.5227 0.908625 19.904 1.18983 20.1852C1.47104 20.4664 1.85231 20.6246 2.25 20.625H21.75C22.1477 20.6246 22.529 20.4664 22.8102 20.1852C23.0914 19.904 23.2496 19.5227 23.25 19.125V4.875C23.2496 4.47731 23.0914 4.09604 22.8102 3.81483C22.529 3.53363 22.1477 3.37545 21.75 3.375ZM21.75 19.125H2.25V4.875H21.75L21.7509 19.125H21.75Z" fill="black"/>
<path d="M19.5 8.625H10.875V10.125H19.5V8.625Z" fill="black"/>
<path d="M19.5 12H8.25V13.5H19.5V12Z" fill="black"/>
<path d="M19.5 15.375H8.25V16.875H19.5V15.375Z" fill="black"/>
<path d="M4.16815 6.75V12.7933L8.81685 9.5392L4.16815 6.75Z" fill="black"/>
</svg>
