<svg width="24" height="24" viewBox="0 0 24 24" fill="none" xmlns="http://www.w3.org/2000/svg">
<path d="M18.8453 9.6772L15.68 12.7371L15.5372 12.07L15.5351 12.0607C15.3902 11.425 15.0404 10.8547 14.5396 10.4373C14.0388 10.0199 13.4148 9.77861 12.7635 9.75056L12.748 9.74991H9.59878L10.4822 5.63953C10.5542 5.32832 10.7254 5.04893 10.97 4.84341C11.2146 4.6379 11.5193 4.51738 11.8382 4.5H14.0712V3H11.8212L11.7903 3.00066C11.139 3.02878 10.515 3.27011 10.0142 3.68753C9.51344 4.10495 9.16369 4.67533 9.01875 5.31094L8.06456 9.75H4.125V11.25H7.74216L6.21403 18.3604C6.14199 18.6716 5.97081 18.951 5.72624 19.1565C5.48168 19.3621 5.17697 19.4826 4.85798 19.5H2.625V21H4.89042L4.90584 20.9993C5.55716 20.9713 6.18121 20.73 6.682 20.3126C7.18279 19.8952 7.53258 19.3248 7.67756 18.6893L9.27656 11.25H12.7157C13.0346 11.2674 13.3392 11.3879 13.5837 11.5933C13.8282 11.7987 13.9994 12.078 14.0716 12.3891L14.4091 13.9659L9.07177 19.125H11.23L14.7789 15.6944L15.0166 16.805L15.0186 16.8143C15.1636 17.45 15.5134 18.0203 16.0141 18.4377C16.5149 18.8551 17.139 19.0964 17.7903 19.1244L20.25 19.125V17.625H17.8382C17.5193 17.6076 17.2147 17.4872 16.9702 17.2817C16.7257 17.0763 16.5544 16.797 16.4823 16.4859L16.05 14.4656L21.0036 9.6772H18.8453Z" fill="black"/>
</svg>
