<svg width="24" height="24" viewBox="0 0 24 24" fill="none" xmlns="http://www.w3.org/2000/svg">
<path d="M22.125 3.375H1.875C1.57674 3.37535 1.29079 3.49399 1.07989 3.70489C0.868985 3.91579 0.750347 4.20174 0.75 4.5V19.5C0.750347 19.7983 0.868985 20.0842 1.07989 20.2951C1.29079 20.506 1.57674 20.6247 1.875 20.625H22.125C22.4233 20.6247 22.7092 20.506 22.9201 20.2951C23.131 20.0842 23.2497 19.7983 23.25 19.5V4.5C23.2497 4.20174 23.131 3.91579 22.9201 3.70489C22.7092 3.49399 22.4233 3.37535 22.125 3.375ZM21.75 4.875V7.875H2.25V4.875H21.75ZM2.25 19.125V10.875H21.75V19.125H2.25Z" fill="black"/>
<path d="M7.125 14.625H4.125V16.125H7.125V14.625Z" fill="black"/>
<path d="M11.625 14.625H8.625V16.125H11.625V14.625Z" fill="black"/>
</svg>
