<svg width="24" height="24" viewBox="0 0 24 24" fill="none" xmlns="http://www.w3.org/2000/svg">
<g clip-path="url(#clip0_201_56727)">
<path d="M3.19442 23.25H0.75008V11.0312C0.747839 10.1965 0.940872 9.3729 1.31375 8.62613C1.82002 7.50892 2.63724 6.5611 3.66776 5.89592C4.69828 5.23073 5.89852 4.87631 7.12508 4.875H13.5262V0.75H15.5119L23.1857 8.42391L15.4846 16.125H13.5262V12H9.36313C8.49233 12.0021 7.64597 12.2881 6.95239 12.8147C6.2588 13.3412 5.75582 14.0795 5.51971 14.9177L3.19442 23.25ZM7.12508 6.375C6.18491 6.37601 5.26501 6.64829 4.47576 7.15916C3.68651 7.67004 3.06144 8.39781 2.67556 9.25514L2.66188 9.28392C2.38938 9.82597 2.24831 10.4245 2.25008 11.0312V21.0536L4.07492 14.5145C4.39977 13.3612 5.09182 12.3453 6.04613 11.6209C7.00045 10.8964 8.16498 10.5029 9.36313 10.5H15.0262V14.4621L21.0644 8.42391L15.0262 2.38566V6.375H7.12508Z" fill="black"/>
</g>
<defs>
<clipPath id="clip0_201_56727">
<rect width="24" height="24" fill="white"/>
</clipPath>
</defs>
</svg>
