<svg width="24" height="24" viewBox="0 0 24 24" fill="none" xmlns="http://www.w3.org/2000/svg">
<g clip-path="url(#clip0_201_56512)">
<path d="M19.35 5.02488C18.2219 3.52067 17.1403 2.84988 15.8431 2.84988C14.7865 2.84988 13.7784 3.47674 12.9275 4.66273C12.6606 5.0386 12.425 5.43564 12.2228 5.84988H11.7772C11.575 5.43557 11.3393 5.03846 11.0724 4.66254C10.2217 3.4766 9.21348 2.8497 8.15677 2.8497C7.55225 2.84617 6.95811 3.00686 6.43777 3.3146L7.56563 4.44213C7.75627 4.37889 7.95608 4.34772 8.15692 4.34988C9.33699 4.34988 10.3372 6.21851 10.5941 6.87176L10.7802 7.34965H12.707L13.2188 7.34852L13.4057 6.87293C13.663 6.21832 14.6633 4.3497 15.8432 4.3497C16.3998 4.3497 17.1091 4.53682 18.1501 5.9247C19.0214 7.08654 21.2285 9.71281 22.0195 10.6497L19.9188 16.3131C19.9063 16.3392 19.8935 16.3652 19.8804 16.3911C19.8399 16.4718 19.7968 16.5509 19.7525 16.6291L20.8451 17.7217C20.9822 17.5093 21.1077 17.2896 21.2212 17.0637C21.2436 17.0189 21.2657 16.9738 21.2873 16.9285L21.3016 16.8983L23.25 11.6455V9.78185C22.5563 8.96037 20.2194 6.18392 19.35 5.02488Z" fill="black"/>
<path d="M18.1549 15.0322L20.2843 10.2058L15.5531 8.091L15.1882 8.50388C15.1777 8.51578 14.308 9.48249 12.9497 9.82707L14.1295 11.0066C14.7765 10.7307 15.3758 10.3541 15.9053 9.891L18.3094 10.966L17.0173 13.8945L18.1549 15.0322Z" fill="black"/>
<path d="M0.75 0.75V1.77848L4.36908 5.39756C3.36061 6.73125 1.40498 9.27928 0.75 10.1321V11.9667L2.69255 16.882L2.7128 16.9286C2.73441 16.9741 2.75653 17.0193 2.77894 17.0638C3.37849 18.256 4.30236 19.2548 5.4443 19.9453C6.58391 20.6361 7.89122 21.0009 9.22383 21H14.7762C16.1088 21.0009 17.4161 20.6361 18.5557 19.9453C18.6304 19.9 18.7041 19.8533 18.7769 19.8053L22.2215 23.25H23.25V22.1572L1.8428 0.75H0.75ZM8.99906 10.0275L13.0894 14.1179C11.119 14.0609 9.14712 14.158 7.1918 14.4082L5.70984 11.2961L8.62406 9.83906L8.99906 10.0275ZM7.63031 8.6588L3.72291 10.6125L6.31003 16.0453L6.85608 15.9673C9.44416 15.5975 12.0646 15.5079 14.6719 15.7002L17.6828 18.7111C16.8007 19.2262 15.798 19.4984 14.7765 19.5H9.22383C7.07067 19.5 5.06719 18.2797 4.11947 16.3909C4.10541 16.3628 4.09155 16.3346 4.07789 16.3065L1.97878 10.9948C2.64192 10.1312 4.41905 7.81547 5.43984 6.46833L7.63031 8.6588Z" fill="black"/>
</g>
<defs>
<clipPath id="clip0_201_56512">
<rect width="24" height="24" fill="white"/>
</clipPath>
</defs>
</svg>
