<svg width="24" height="24" viewBox="0 0 24 24" fill="none" xmlns="http://www.w3.org/2000/svg">
<g clip-path="url(#clip0_201_55055)">
<path d="M19.955 4.04506C17.8453 1.93527 14.9838 0.750004 12.0001 0.75C9.0164 0.749996 6.15491 1.93526 4.04512 4.04504C1.93534 6.15482 0.750065 9.0163 0.750061 12C0.750057 14.9837 1.93532 17.8452 4.0451 19.955C6.15488 22.0647 9.01637 23.25 12.0001 23.25C14.9837 23.25 17.8452 22.0648 19.955 19.955C22.0648 17.8452 23.2501 14.9837 23.2501 12C23.2501 9.01634 22.0648 6.15485 19.955 4.04506ZM12.0001 2.25003C14.3324 2.24797 16.5876 3.0857 18.3529 4.60995L4.60999 18.3529C3.08573 16.5875 2.24801 14.3324 2.25007 12C2.25007 6.62389 6.62393 2.25003 12.0001 2.25003ZM12.0001 21.75C9.67918 21.752 7.43438 20.9224 5.6726 19.4116L19.4117 5.67252C20.9225 7.43432 21.7521 9.67913 21.7501 12C21.7501 17.3762 17.3762 21.75 12.0001 21.75Z" fill="black"/>
</g>
<defs>
<clipPath id="clip0_201_55055">
<rect width="24" height="24" fill="white"/>
</clipPath>
</defs>
</svg>
