<svg width="24" height="24" viewBox="0 0 24 24" fill="none" xmlns="http://www.w3.org/2000/svg">
<path d="M5.25 14.25V9.75H7.125V8.25H1.875V9.75H3.75V14.25H5.25Z" fill="black"/>
<path d="M15.6321 14.25L16.6876 12.6262L17.7431 14.25H19.5321L17.5821 11.25L19.5321 8.25H17.7431L16.6876 9.87384L15.6321 8.25H13.8431L15.7931 11.25L13.8431 14.25H15.6321Z" fill="black"/>
<path d="M22.125 8.25H20.625V14.25H22.125V8.25Z" fill="black"/>
<path d="M22.125 4.875H1.875V6.375H22.125V4.875Z" fill="black"/>
<path d="M22.125 16.125H1.875V17.625H22.125V16.125Z" fill="black"/>
<path d="M11.3126 13.125L11.6876 14.25H13.2688L11.2687 8.25H9.11469L7.26599 14.25H8.83555L9.18243 13.125H11.3126ZM10.2056 9.80372L10.8126 11.625H9.64438L10.2056 9.80372Z" fill="black"/>
</svg>
