<svg width="24" height="24" viewBox="0 0 24 24" fill="none" xmlns="http://www.w3.org/2000/svg">
<path d="M4.55091 13.4321H19.4489C19.6628 13.4321 19.8722 13.3712 20.0527 13.2564C20.2331 13.1416 20.3771 12.9778 20.4678 12.7841C20.5585 12.5904 20.5921 12.3749 20.5646 12.1628C20.5372 11.9507 20.4499 11.7508 20.3129 11.5866L12.864 2.65415C12.7584 2.52753 12.6263 2.42566 12.4769 2.35575C12.3276 2.28584 12.1648 2.2496 11.9999 2.2496C11.835 2.2496 11.6722 2.28584 11.5229 2.35575C11.3736 2.42566 11.2414 2.52753 11.1359 2.65415L3.68691 11.5866C3.54994 11.7508 3.46263 11.9507 3.4352 12.1628C3.40777 12.3749 3.44136 12.5904 3.53203 12.7841C3.62271 12.9778 3.76671 13.1416 3.94717 13.2564C4.12762 13.3712 4.33705 13.4321 4.55091 13.4321ZM11.9999 3.96014L18.6479 11.9321H5.35191L11.9999 3.96014Z" fill="black"/>
<path d="M19.5 15.375H4.5C4.20173 15.3753 3.91578 15.494 3.70487 15.7049C3.49397 15.9158 3.37533 16.2017 3.375 16.5V19.5C3.37533 19.7983 3.49397 20.0842 3.70487 20.2951C3.91578 20.506 4.20173 20.6247 4.5 20.625H19.5C19.7983 20.6247 20.0842 20.506 20.2951 20.2951C20.506 20.0842 20.6247 19.7983 20.625 19.5V16.5C20.6247 16.2017 20.506 15.9158 20.2951 15.7049C20.0842 15.494 19.7983 15.3753 19.5 15.375ZM19.125 19.125H4.875V16.875H19.125V19.125Z" fill="black"/>
</svg>
