<svg width="24" height="24" viewBox="0 0 24 24" fill="none" xmlns="http://www.w3.org/2000/svg">
<g clip-path="url(#clip0_201_55009)">
<path d="M12.75 10.6696V5.69019H11.25V10.6697L6.62701 7.87208L6.51306 8.06037V9.55639L10.5513 12.0001L6.51306 14.4439V15.9399L6.62701 16.1282L11.25 13.3306V18.3101H12.75V13.3306L17.3729 16.1282L17.4869 15.9399V14.4439L13.4486 12.0001L17.4869 9.55634V8.06033L17.3729 7.87208L12.75 10.6696Z" fill="black"/>
<path d="M19.9621 4.09595C17.857 1.99579 15.0044 0.817119 12.0309 0.81885C9.05735 0.82058 6.2061 2.00258 4.1035 4.10518C2.0009 6.20778 0.818902 9.05902 0.817171 12.0326C0.81544 15.0061 1.99412 17.8587 4.09427 19.9637C6.19932 22.0639 9.05194 23.2426 12.0255 23.2408C14.999 23.2391 17.8502 22.0571 19.9528 19.9545C22.0554 17.8519 23.2374 15.0007 23.2392 12.0271C23.2409 9.05361 22.0622 6.201 19.9621 4.09595ZM12.0281 21.7501C6.66841 21.7501 2.30796 17.3896 2.30796 12.0299C2.30796 6.67013 6.66841 2.30964 12.0281 2.30964C17.3879 2.30964 21.7484 6.67009 21.7484 12.0299C21.7484 17.3897 17.3879 21.7501 12.0281 21.7501Z" fill="black"/>
</g>
<defs>
<clipPath id="clip0_201_55009">
<rect width="24" height="24" fill="white"/>
</clipPath>
</defs>
</svg>
