<svg width="24" height="24" viewBox="0 0 24 24" fill="none" xmlns="http://www.w3.org/2000/svg">
<path d="M11.4914 7.875C10.6755 7.875 9.87802 8.11693 9.19967 8.57019C8.52131 9.02345 7.9926 9.66768 7.68039 10.4214C7.36818 11.1752 7.28649 12.0046 7.44566 12.8047C7.60482 13.6049 7.99769 14.3399 8.57458 14.9168C9.15147 15.4937 9.88647 15.8866 10.6866 16.0457C11.4868 16.2049 12.3162 16.1232 13.07 15.811C13.8237 15.4988 14.4679 14.9701 14.9212 14.2917C15.3745 13.6134 15.6164 12.8158 15.6164 12C15.6151 10.9064 15.1801 9.85787 14.4068 9.08455C13.6335 8.31124 12.585 7.87624 11.4914 7.875ZM11.4914 14.625C10.9722 14.625 10.4647 14.471 10.033 14.1826C9.60134 13.8942 9.26489 13.4842 9.06621 13.0045C8.86753 12.5249 8.81555 11.9971 8.91683 11.4879C9.01812 10.9787 9.26812 10.511 9.63524 10.1438C10.0023 9.77673 10.4701 9.52672 10.9793 9.42544C11.4885 9.32415 12.0163 9.37613 12.4959 9.57481C12.9756 9.77349 13.3856 10.1099 13.674 10.5416C13.9624 10.9733 14.1164 11.4808 14.1164 12C14.1156 12.6959 13.8388 13.3632 13.3467 13.8553C12.8546 14.3474 12.1873 14.6242 11.4914 14.625Z" fill="black"/>
<path d="M21.7829 15.1086L20.2936 13.8827C20.5576 12.6414 20.5576 11.3585 20.2936 10.1171L21.7829 8.89123C21.9546 8.7505 22.0707 8.55322 22.1102 8.33473C22.1498 8.11623 22.1103 7.89079 21.9988 7.69878L20.4701 5.05113C20.3596 4.85849 20.1841 4.7115 19.975 4.63651C19.766 4.56153 19.537 4.56344 19.3293 4.64192L17.5217 5.31912C16.5801 4.46837 15.4693 3.82633 14.262 3.43512L13.9449 1.53335C13.909 1.31418 13.7962 1.11496 13.6267 0.971401C13.4573 0.827841 13.2422 0.749327 13.0201 0.749931H9.96286C9.74078 0.749334 9.52574 0.827845 9.35629 0.971394C9.18683 1.11494 9.07403 1.31415 9.03811 1.53331L8.72114 3.43512C7.51392 3.82632 6.40307 4.46836 5.46145 5.31912L3.65372 4.64182C3.44597 4.5634 3.21708 4.56152 3.00806 4.63651C2.79905 4.7115 2.62357 4.85847 2.51306 5.05109L0.984424 7.69892C0.872937 7.89095 0.833456 8.11639 0.873051 8.33488C0.912647 8.55337 1.02873 8.75063 1.20052 8.89132L2.6896 10.1171C2.4256 11.3585 2.4256 12.6414 2.6896 13.8827L1.20038 15.1086C1.02862 15.2494 0.912565 15.4466 0.872996 15.6651C0.833427 15.8836 0.872927 16.1091 0.984424 16.3011L2.51311 18.9487C2.62363 19.1414 2.79914 19.2883 3.00818 19.3633C3.21723 19.4383 3.44614 19.4364 3.65391 19.3579L5.4615 18.6807C6.40311 19.5315 7.51397 20.1735 8.72119 20.5647L9.03816 22.4665C9.07407 22.6857 9.18685 22.8849 9.3563 23.0284C9.52575 23.172 9.74078 23.2505 9.96286 23.2499H13.0201C13.2422 23.2505 13.4573 23.172 13.6267 23.0285C13.7962 22.8849 13.909 22.6857 13.9449 22.4666L14.2619 20.5647C15.4691 20.1735 16.58 19.5315 17.5216 18.6807L19.3293 19.358C19.537 19.4365 19.7659 19.4383 19.9749 19.3633C20.1839 19.2883 20.3594 19.1414 20.4699 18.9488L21.9985 16.3009C22.11 16.109 22.1496 15.8836 22.11 15.6651C22.0705 15.4467 21.9546 15.2494 21.7829 15.1086ZM19.4093 17.7861L17.1542 16.9413L16.8127 17.285C15.8732 18.232 14.698 18.9112 13.4084 19.2525L12.9397 19.3761L12.5438 21.7499H10.4396L10.0439 19.3761L9.57511 19.2525C8.28553 18.9112 7.11035 18.232 6.17081 17.285L5.82933 16.9413L3.57385 17.7861L2.52192 15.9638L4.37953 14.4345L4.25297 13.967C3.90491 12.6787 3.90491 11.3211 4.25297 10.0328L4.37953 9.56538L2.52192 8.03613L3.57408 6.21373L5.82919 7.0586L6.17067 6.71482C7.11021 5.76783 8.28539 5.08865 9.57497 4.74734L10.0437 4.62377L10.4394 2.24993H12.5438L12.9395 4.62377L13.4083 4.74734C14.6979 5.08865 15.873 5.76783 16.8126 6.71482L17.154 7.0586L19.4092 6.21373L20.4614 8.03609L18.6038 9.56538L18.7303 10.0328C19.0784 11.3211 19.0784 12.6787 18.7303 13.967L18.6038 14.4345L20.4614 15.9637L19.4093 17.7861Z" fill="black"/>
</svg>
