<svg width="24" height="24" viewBox="0 0 24 24" fill="none" xmlns="http://www.w3.org/2000/svg">
<path d="M11.25 12.75V20.625V22.125H12.75V20.625V12.75H20.625H22.125V11.25H20.625H12.75V3.375V1.875H11.25V3.375V11.25H3.375H1.875V12.75H3.375H11.25Z" fill="black"/>
<path d="M22.125 20.625H20.625V22.125H22.125V20.625Z" fill="black"/>
<path d="M15.9205 20.625H14.3523V22.125H15.9205V20.625Z" fill="black"/>
<path d="M9.64776 20.625H8.07956V22.125H9.64776V20.625Z" fill="black"/>
<path d="M19.0568 20.625H17.4886V22.125H19.0568V20.625Z" fill="black"/>
<path d="M6.51144 20.625H4.94324V22.125H6.51144V20.625Z" fill="black"/>
<path d="M3.375 20.625H1.875V22.125H3.375V20.625Z" fill="black"/>
<path d="M3.375 14.3523H1.875V15.9205H3.375V14.3523Z" fill="black"/>
<path d="M3.375 17.4889H1.875V19.057H3.375V17.4889Z" fill="black"/>
<path d="M3.375 8.07983H1.875V9.64799H3.375V8.07983Z" fill="black"/>
<path d="M3.375 4.94312H1.875V6.51127H3.375V4.94312Z" fill="black"/>
<path d="M3.375 1.875H1.875V3.375H3.375V1.875Z" fill="black"/>
<path d="M15.9205 1.875H14.3523V3.375H15.9205V1.875Z" fill="black"/>
<path d="M9.64776 1.875H8.07956V3.375H9.64776V1.875Z" fill="black"/>
<path d="M19.0568 1.875H17.4886V3.375H19.0568V1.875Z" fill="black"/>
<path d="M6.51144 1.875H4.94324V3.375H6.51144V1.875Z" fill="black"/>
<path d="M22.125 1.875H20.625V3.375H22.125V1.875Z" fill="black"/>
<path d="M22.125 17.4888H20.625V19.0569H22.125V17.4888Z" fill="black"/>
<path d="M22.125 14.3522H20.625V15.9203H22.125V14.3522Z" fill="black"/>
<path d="M22.125 4.94312H20.625V6.51126H22.125V4.94312Z" fill="black"/>
<path d="M22.125 8.07971H20.625V9.64787H22.125V8.07971Z" fill="black"/>
</svg>
