<svg width="24" height="24" viewBox="0 0 24 24" fill="none" xmlns="http://www.w3.org/2000/svg">
<path d="M9.74988 0.75C8.35798 0.751576 7.02354 1.30521 6.03931 2.28943C5.05509 3.27365 4.50146 4.6081 4.49988 6V9.73505C4.50035 10.3624 4.65775 10.9797 4.95776 11.5307L6.24471 13.8901L2.83113 16.1089C2.30651 16.4485 1.87544 16.9143 1.57736 17.4635C1.27927 18.0128 1.12371 18.6281 1.12488 19.2531V23.25H14.6249V21.75H2.62488V19.2531C2.62418 18.8781 2.71753 18.5089 2.89639 18.1793C3.07525 17.8498 3.3339 17.5703 3.64868 17.3665L8.22649 14.391L6.27462 10.8125C6.09462 10.4819 6.00017 10.1115 5.99988 9.73505V6C5.99988 5.00544 6.39497 4.05161 7.09823 3.34835C7.8015 2.64509 8.75532 2.25 9.74988 2.25C10.7444 2.25 11.6983 2.64509 12.4015 3.34835C13.1048 4.05161 13.4999 5.00544 13.4999 6V9.73505C13.4996 10.1115 13.4052 10.4819 13.2252 10.8125L11.2733 14.391L14.6249 16.5695V14.7805L13.2551 13.8899L14.542 11.5305C14.842 10.9795 14.9994 10.3623 14.9999 9.73505V6C14.9983 4.6081 14.4447 3.27365 13.4605 2.28943C12.4762 1.30521 11.1418 0.751576 9.74988 0.75Z" fill="black"/>
<path d="M19.875 18.75V15.75H18.375V18.75H15.375V20.25H18.375V23.25H19.875V20.25H22.875V18.75H19.875Z" fill="black"/>
</svg>
