<svg width="24" height="24" viewBox="0 0 24 24" fill="none" xmlns="http://www.w3.org/2000/svg">
<g clip-path="url(#clip0_201_55843)">
<path d="M22.125 0.75H1.875C1.57674 0.750347 1.29079 0.868985 1.07989 1.07989C0.868985 1.29079 0.750347 1.57674 0.75 1.875V9.375H2.25V2.25H21.75V21.75H2.25V14.25H0.75V22.125C0.750347 22.4233 0.868985 22.7092 1.07989 22.9201C1.29079 23.131 1.57674 23.2497 1.875 23.25H22.125C22.4233 23.2497 22.7092 23.131 22.9201 22.9201C23.131 22.7092 23.2497 22.4233 23.25 22.125V1.875C23.2497 1.57674 23.131 1.29079 22.9201 1.07989C22.7092 0.868985 22.4233 0.750347 22.125 0.75Z" fill="black"/>
<path d="M9.81455 17.0305L10.8752 18.0911L17.1856 11.7807L10.8752 5.47021L9.81455 6.53081L14.3144 11.0307H0.75V12.5307H14.3143L9.81455 17.0305Z" fill="black"/>
</g>
<defs>
<clipPath id="clip0_201_55843">
<rect width="24" height="24" fill="white"/>
</clipPath>
</defs>
</svg>
