<svg width="24" height="24" viewBox="0 0 24 24" fill="none" xmlns="http://www.w3.org/2000/svg">
<g clip-path="url(#clip0_201_56637)">
<path d="M18.6656 6.43089C18.4108 4.84212 17.5969 3.39663 16.3705 2.35492C15.1442 1.31322 13.586 0.743825 11.977 0.749361C10.3679 0.754897 8.81375 1.335 7.59459 2.38512C6.37542 3.43524 5.57146 4.8863 5.32758 6.47678C4.18951 6.67569 3.13804 7.21364 2.31084 8.02019C1.81756 8.49784 1.42522 9.06969 1.1571 9.70183C0.888983 10.334 0.750546 11.0135 0.75 11.7002C0.75 13.1589 1.34948 14.5484 2.43797 15.6128C2.52672 15.6995 2.61805 15.7831 2.71195 15.8634L3.24291 14.2705C2.62927 13.5602 2.25 12.6563 2.25 11.7002C2.25 9.71444 3.92456 8.0432 6.0623 7.89541L6.72113 7.84984L6.75928 7.19055C6.83798 5.85489 7.4237 4.59968 8.39676 3.68135C9.36983 2.76303 10.6568 2.25089 11.9948 2.24958C13.3328 2.24826 14.6208 2.75786 15.5956 3.67427C16.5705 4.59068 17.1587 5.84473 17.24 7.18023L17.2818 7.87811L17.9808 7.88537C20.1648 7.90825 21.75 9.51259 21.75 11.7002C21.75 13.2542 20.9669 14.5773 19.7887 15.258L19.1734 17.104C20.1627 16.8636 21.0587 16.3359 21.7486 15.5872C22.7168 14.5464 23.25 13.1659 23.25 11.7002C23.25 8.92928 21.3215 6.76802 18.6656 6.43089Z" fill="black"/>
<path d="M5.90778 23.2507H7.49159L10.4605 14.4914L9.03987 14.0099L5.90778 23.2507Z" fill="black"/>
<path d="M13.7828 23.2507H15.3666L18.3355 14.4914L16.9149 14.0099L13.7828 23.2507Z" fill="black"/>
<path d="M13.5987 11.767L10.5833 20.9998H12.1613L15.0246 12.2326L13.5987 11.767Z" fill="black"/>
<path d="M6.03714 11.767L3.02167 20.9998H4.59967L7.46298 12.2326L6.03714 11.767Z" fill="black"/>
</g>
<defs>
<clipPath id="clip0_201_56637">
<rect width="24" height="24" fill="white"/>
</clipPath>
</defs>
</svg>
