<svg width="24" height="24" viewBox="0 0 24 24" fill="none" xmlns="http://www.w3.org/2000/svg">
<path d="M3.20288 17.9567C3.07004 17.7277 3.00089 17.4673 3.00259 17.2026C3.0043 16.9379 3.0768 16.6784 3.21258 16.4512L5.59772 12.4009L6.13753 14.7803L7.60036 14.4484L6.4808 9.51361L1.54608 10.6332L1.87795 12.096L4.36931 11.5308L1.92 15.69C1.65167 16.1457 1.50854 16.6642 1.50513 17.193C1.50172 17.7217 1.63814 18.242 1.90057 18.7011C2.163 19.1602 2.54212 19.5418 2.99951 19.8072C3.4569 20.0726 3.97631 20.2123 4.50511 20.2123H8.36925L9.86925 18.7123H4.50511C4.24038 18.714 3.98002 18.6448 3.75104 18.5119C3.52206 18.3791 3.33279 18.1874 3.20288 17.9567Z" fill="black"/>
<path d="M13.2834 3.73944L15.8028 8.01763L13.5035 7.65889L13.2722 9.14094L18.2719 9.92099L19.0519 4.9213L17.5699 4.69006L17.154 7.35585L14.576 2.97828C14.311 2.52824 13.9332 2.15517 13.4797 1.89598C13.0263 1.63678 12.5131 1.50044 11.9909 1.50044C11.4686 1.50044 10.9554 1.63678 10.502 1.89598C10.0486 2.15517 9.6707 2.52824 9.40571 2.97828L7.53357 6.15735L8.0214 8.285L10.6982 3.73944C10.8307 3.51444 11.0197 3.32793 11.2464 3.19834C11.4731 3.06876 11.7297 3.0006 11.9908 3.0006C12.2519 3.0006 12.5085 3.06876 12.7352 3.19834C12.9619 3.32793 13.1508 3.51444 13.2833 3.73944H13.2834Z" fill="black"/>
<path d="M22.0617 15.69L19.818 11.8799L17.8892 11.5606L20.7692 16.4512C20.9034 16.679 20.9749 16.9383 20.9767 17.2027C20.9784 17.4671 20.9101 17.7272 20.7789 17.9568C20.6477 18.1863 20.4581 18.3771 20.2294 18.5098C20.0007 18.6425 19.741 18.7124 19.4766 18.7123H14.2522L16.0503 16.9143L14.9896 15.8538L11.4116 19.4318L14.9896 23.0099L16.0503 21.9493L14.3135 20.2125H19.4766C20.0054 20.2125 20.5248 20.0727 20.9822 19.8073C21.4396 19.542 21.8187 19.1604 22.0811 18.7013C22.3436 18.2422 22.48 17.7219 22.4766 17.1931C22.4732 16.6643 22.33 16.1458 22.0617 15.6902L22.0617 15.69Z" fill="black"/>
</svg>
