<svg width="24" height="24" viewBox="0 0 24 24" fill="none" xmlns="http://www.w3.org/2000/svg">
<path d="M10.7906 16.726L11.4668 15.2891C10.7988 14.6231 10.1664 13.9225 9.57206 13.1902C10.0683 12.5208 10.5308 11.834 10.9593 11.1296C12.1486 9.17709 13.0696 7.07332 13.6974 4.875H16.125V3.375H9.375V0.75H7.875V3.375H0.75V4.875H3.55172C4.28444 7.44072 5.41451 9.87584 6.90084 12.0918C7.22011 11.6978 7.54331 11.2747 7.86487 10.8248C6.68099 8.97637 5.75592 6.97451 5.11547 4.875H12.1344C10.7409 9.44672 8.1713 12.8066 6.19814 14.865C3.90159 17.2606 1.88789 18.4678 1.86783 18.4797L1.94381 18.608L2.25 19.125L2.63156 19.7707C2.71936 19.7188 4.81003 18.4709 7.24355 15.9419C7.72417 15.4425 8.18417 14.9279 8.62355 14.3983C9.30203 15.2139 10.0255 15.991 10.7906 16.726Z" fill="black"/>
<path d="M15.6432 9.375L15.375 9.96169L9.81461 22.125H11.4639L13.1782 18.375H19.8218L21.536 22.125H23.1853L17.3567 9.375H15.6432ZM15.375 16.875H13.8639L15.375 13.5696L16.5 11.1086L19.136 16.875H15.375Z" fill="black"/>
</svg>
