<svg width="24" height="24" viewBox="0 0 24 24" fill="none" xmlns="http://www.w3.org/2000/svg">
<g clip-path="url(#clip0_201_55724)">
<path d="M15.7499 12C15.7499 11.2583 15.53 10.5333 15.1179 9.91661C14.7059 9.29993 14.1202 8.81928 13.435 8.53545C12.7498 8.25162 11.9958 8.17736 11.2683 8.32206C10.5409 8.46675 9.87273 8.8239 9.34829 9.34835C8.82384 9.8728 8.46669 10.541 8.322 11.2684C8.1773 11.9958 8.25156 12.7498 8.53539 13.4351C8.81922 14.1203 9.29987 14.7059 9.91655 15.118C10.5332 15.5301 11.2583 15.75 11.9999 15.75C12.9941 15.7489 13.9473 15.3534 14.6503 14.6504C15.3533 13.9474 15.7488 12.9942 15.7499 12ZM9.74994 12C9.74994 11.555 9.8819 11.12 10.1291 10.75C10.3764 10.38 10.7278 10.0916 11.1389 9.92127C11.55 9.75097 12.0024 9.70642 12.4389 9.79323C12.8753 9.88005 13.2763 10.0943 13.5909 10.409C13.9056 10.7237 14.1199 11.1246 14.2067 11.561C14.2935 11.9975 14.249 12.4499 14.0787 12.861C13.9084 13.2722 13.62 13.6236 13.25 13.8708C12.88 14.118 12.4449 14.25 11.9999 14.25C11.4034 14.2493 10.8315 14.012 10.4097 13.5902C9.98789 13.1684 9.75062 12.5965 9.74994 12Z" fill="black"/>
<path d="M7.5 18.6557L11.4988 23.25H12.5012L16.5 18.6557V17.25H7.5V18.6557ZM14.4293 18.75L12 21.5411L9.5707 18.75H14.4293Z" fill="black"/>
<path d="M11.4988 0.75L7.5 5.34431V6.75H16.5V5.34431L12.5012 0.75H11.4988ZM9.5707 5.25L12 2.45888L14.4293 5.25H9.5707Z" fill="black"/>
<path d="M0.75 11.4988V12.5012L5.34436 16.5H6.75V7.5H5.34436L0.75 11.4988ZM5.25 14.4293L2.45883 12L5.25 9.57066V14.4293Z" fill="black"/>
<path d="M18.6556 7.5H17.25V16.5H18.6556L23.25 12.5012V11.4988L18.6556 7.5ZM18.75 14.4293V9.57066L21.5412 12L18.75 14.4293Z" fill="black"/>
</g>
<defs>
<clipPath id="clip0_201_55724">
<rect width="24" height="24" fill="white"/>
</clipPath>
</defs>
</svg>
