<svg width="24" height="24" viewBox="0 0 24 24" fill="none" xmlns="http://www.w3.org/2000/svg">
<g clip-path="url(#clip0_201_56048)">
<path d="M21 11.9744H20.976L19.0813 7.71094C18.9042 7.31339 18.6158 6.97566 18.2509 6.73857C17.886 6.50148 17.4602 6.3752 17.025 6.375H6.975C6.53985 6.37523 6.11409 6.50153 5.7492 6.73861C5.38432 6.9757 5.09593 7.31342 4.91892 7.71094L3.02395 11.9744H3C2.60231 11.9749 2.22104 12.133 1.93983 12.4142C1.65863 12.6954 1.50045 13.0767 1.5 13.4744V18.7244C1.50045 19.1221 1.65863 19.5034 1.93983 19.7846C2.22104 20.0658 2.60231 20.224 3 20.2244V22.125C3.00035 22.4233 3.11899 22.7092 3.32989 22.9201C3.54079 23.131 3.82674 23.2497 4.125 23.25H6.75C7.04826 23.2497 7.33421 23.131 7.54511 22.9201C7.75601 22.7092 7.87465 22.4233 7.875 22.125V20.2244H16.125V22.125C16.1253 22.4233 16.244 22.7092 16.4549 22.9201C16.6658 23.131 16.9517 23.2497 17.25 23.25H19.875C20.1733 23.2497 20.4592 23.131 20.6701 22.9201C20.881 22.7092 20.9997 22.4233 21 22.125V20.2244C21.3977 20.224 21.779 20.0658 22.0602 19.7846C22.3414 19.5034 22.4996 19.1221 22.5 18.7244V13.4744C22.4996 13.0767 22.3414 12.6954 22.0602 12.4142C21.779 12.133 21.3977 11.9749 21 11.9744ZM6.28945 8.32031C6.34846 8.18777 6.44462 8.07517 6.56629 7.99614C6.68795 7.91711 6.82992 7.87503 6.975 7.875H17.025C17.17 7.87508 17.312 7.91717 17.4336 7.9962C17.5552 8.07523 17.6514 8.18781 17.7104 8.32031L19.3344 11.9744H4.66542L6.28945 8.32031ZM6.375 21.75H4.5V20.2244H6.375V21.75ZM19.5 21.75H17.625V20.2244H19.5V21.75ZM21 18.7244H3V13.4744H21V18.7244Z" fill="black"/>
<path d="M8.25 15.375H4.5V16.875H8.25V15.375Z" fill="black"/>
<path d="M19.5 15.375H15.75V16.875H19.5V15.375Z" fill="black"/>
<path d="M12 0.691956L0.75 5.20897V6.82536L12 2.30839L23.25 6.82536V5.20897L12 0.691956Z" fill="black"/>
</g>
<defs>
<clipPath id="clip0_201_56048">
<rect width="24" height="24" fill="white"/>
</clipPath>
</defs>
</svg>
