<svg width="24" height="24" viewBox="0 0 24 24" fill="none" xmlns="http://www.w3.org/2000/svg">
<path d="M14.527 5.44575C15.4094 5.44575 16.1248 4.73036 16.1248 3.84787C16.1248 2.96539 15.4094 2.25 14.527 2.25C13.6445 2.25 12.9291 2.96539 12.9291 3.84787C12.9291 4.73036 13.6445 5.44575 14.527 5.44575Z" fill="black"/>
<path d="M15.0937 6.72452L12.2537 5.75702L8.61552 7.08011C8.39878 7.15943 8.21157 7.3033 8.07914 7.49233C7.94671 7.68135 7.87542 7.90644 7.8749 8.13724V10.8747H9.3749V8.40007L11.6629 7.56808L7.4353 20.6247H9.01091L11.3585 13.3211L11.7275 13.4415L13.4999 16.6909V20.6247H14.9999V16.5954C14.9998 16.4071 14.9525 16.2219 14.8625 16.0566L13.1019 12.8288L14.4589 8.67025L15.3622 10.2961C15.4596 10.4714 15.6022 10.6175 15.7751 10.7193C15.948 10.821 16.1449 10.8747 16.3455 10.8747H18.7499V9.37474H16.5662L15.0937 6.72452Z" fill="black"/>
</svg>
