<svg width="24" height="24" viewBox="0 0 24 24" fill="none" xmlns="http://www.w3.org/2000/svg">
<g id="Iconly/Curved/Buy">
<g id="Buy">
<path id="Stroke 1" d="M5.52383 7C9.41433 5.74386 13.9725 5.45573 16.0001 5.5C18.0277 5.54427 18.8832 6.2663 19.5001 7.5C20.5001 9.5 20.2891 14.4881 18.5001 16.0871C16.7121 17.6861 9.33021 17.8381 6.87021 16.0871C4.27121 14.2361 5.62906 9.192 5.54406 5.743C5.59506 3.813 3.50006 3.5 3.50006 3.5" stroke="black" stroke-width="1.5" stroke-linecap="round" stroke-linejoin="round"/>
<path id="Stroke 3" d="M13.0001 10.5H15.7731" stroke="black" stroke-width="1.5" stroke-linecap="round" stroke-linejoin="round"/>
<path id="Stroke 5" fill-rule="evenodd" clip-rule="evenodd" d="M7.26399 20.1274C7.56399 20.1274 7.80799 20.3714 7.80799 20.6714C7.80799 20.9724 7.56399 21.2164 7.26399 21.2164C6.96299 21.2164 6.71899 20.9724 6.71899 20.6714C6.71899 20.3714 6.96299 20.1274 7.26399 20.1274Z" fill="black" stroke="black" stroke-width="1.5" stroke-linecap="round" stroke-linejoin="round"/>
<path id="Stroke 7" fill-rule="evenodd" clip-rule="evenodd" d="M17.5955 20.1274C17.8965 20.1274 18.1405 20.3714 18.1405 20.6714C18.1405 20.9724 17.8965 21.2164 17.5955 21.2164C17.2955 21.2164 17.0515 20.9724 17.0515 20.6714C17.0515 20.3714 17.2955 20.1274 17.5955 20.1274Z" fill="black" stroke="black" stroke-width="1.5" stroke-linecap="round" stroke-linejoin="round"/>
</g>
</g>
</svg>
