<svg width="24" height="24" viewBox="0 0 24 24" fill="none" xmlns="http://www.w3.org/2000/svg">
<g id="Iconly/Curved/Password">
<g id="Password">
<path id="Stroke 1" fill-rule="evenodd" clip-rule="evenodd" d="M10.6888 11.9999C10.6888 13.0229 9.8598 13.8519 8.8368 13.8519C7.8138 13.8519 6.9848 13.0229 6.9848 11.9999C6.9848 10.9769 7.8138 10.1479 8.8368 10.1479H8.8398C9.8618 10.1489 10.6888 10.9779 10.6888 11.9999Z" stroke="black" stroke-width="1.5" stroke-linecap="round" stroke-linejoin="round"/>
<path id="Stroke 3" d="M10.6918 12H17.0098V13.852" stroke="black" stroke-width="1.5" stroke-linecap="round" stroke-linejoin="round"/>
<path id="Stroke 5" d="M14.182 13.852V12" stroke="black" stroke-width="1.5" stroke-linecap="round" stroke-linejoin="round"/>
<path id="Stroke 7" fill-rule="evenodd" clip-rule="evenodd" d="M2.74988 12C2.74988 5.063 5.06288 2.75 11.9999 2.75C18.9369 2.75 21.2499 5.063 21.2499 12C21.2499 18.937 18.9369 21.25 11.9999 21.25C5.06288 21.25 2.74988 18.937 2.74988 12Z" stroke="black" stroke-width="1.5" stroke-linecap="round" stroke-linejoin="round"/>
</g>
</g>
</svg>
