<svg width="24" height="24" viewBox="0 0 24 24" fill="none" xmlns="http://www.w3.org/2000/svg">
<g id="Iconly/Curved/Volume Down">
<g id="Volume Down">
<path id="Stroke 1" d="M18.6559 8.63452C19.9092 10.9056 19.9092 13.6772 18.6559 15.9403" stroke="black" stroke-width="1.5" stroke-linecap="round" stroke-linejoin="round"/>
<path id="Stroke 3" fill-rule="evenodd" clip-rule="evenodd" d="M4.6672 12.2873C4.66364 13.506 4.6672 14.9353 5.67342 15.7896C6.67964 16.6447 7.47875 16.2918 8.78097 16.7202C10.0841 17.1496 11.909 19.7967 13.925 18.6011C15.0148 17.8269 15.5285 16.3656 15.5285 12.2873C15.5285 8.20912 15.0379 6.76379 13.925 5.97357C11.909 4.7789 10.0841 7.42601 8.78097 7.85445C7.47875 8.28379 6.67964 7.9309 5.67342 8.78512C4.6672 9.63934 4.66364 11.0687 4.6672 12.2873Z" stroke="black" stroke-width="1.5" stroke-linecap="round" stroke-linejoin="round"/>
</g>
</g>
</svg>
