<svg width="24" height="24" viewBox="0 0 24 24" fill="none" xmlns="http://www.w3.org/2000/svg">
<g id="Iconly/Curved/Volume Up">
<g id="Volume Up">
<path id="Stroke 1" d="M19.4356 5.77441C21.9293 9.49441 21.9365 14.4035 19.4356 18.1317" stroke="black" stroke-width="1.5" stroke-linecap="round" stroke-linejoin="round"/>
<path id="Stroke 3" d="M16.9889 8.21729C18.2707 10.54 18.2707 13.3746 16.9889 15.6891" stroke="black" stroke-width="1.5" stroke-linecap="round" stroke-linejoin="round"/>
<path id="Stroke 5" fill-rule="evenodd" clip-rule="evenodd" d="M2.68228 11.953C2.67955 13.1993 2.68228 14.6611 3.71137 15.5348C4.74137 16.4093 5.55773 16.0484 6.88955 16.4866C8.22228 16.9257 10.0886 19.633 12.1505 18.4102C13.265 17.6184 13.7905 16.1239 13.7905 11.953C13.7905 7.78204 13.2886 6.30386 12.1505 5.49568C10.0886 4.27386 8.22228 6.98113 6.88955 7.41932C5.55773 7.85841 4.74137 7.4975 3.71137 8.37113C2.68228 9.24477 2.67955 10.7066 2.68228 11.953Z" stroke="black" stroke-width="1.5" stroke-linecap="round" stroke-linejoin="round"/>
</g>
</g>
</svg>
