<svg width="24" height="24" viewBox="0 0 24 24" fill="none" xmlns="http://www.w3.org/2000/svg">
<g id="Iconly/Curved/Work">
<g id="Work">
<path id="Stroke 1" d="M11.9611 16.5167V13.8887" stroke="black" stroke-width="1.5" stroke-linecap="round" stroke-linejoin="round"/>
<path id="Stroke 2" d="M21.0895 11.4775L21.0605 11.4985C18.6385 12.9905 15.4405 13.8915 11.9565 13.8915C8.47246 13.8915 5.28346 12.9905 2.86246 11.4985L2.83246 11.4775" stroke="black" stroke-width="1.5" stroke-linecap="round" stroke-linejoin="round"/>
<path id="Stroke 4" fill-rule="evenodd" clip-rule="evenodd" d="M2.75018 13.3507C2.75018 7.19871 5.05318 5.14771 11.9612 5.14771C18.8702 5.14771 21.1722 7.19871 21.1722 13.3507C21.1722 19.5027 18.8702 21.5537 11.9612 21.5537C5.05318 21.5537 2.75018 19.5027 2.75018 13.3507Z" stroke="black" stroke-width="1.5" stroke-linecap="round" stroke-linejoin="round"/>
<path id="Stroke 6" d="M15.2238 5.3692V4.7392C15.2238 3.4752 14.3008 2.4502 13.1638 2.4502H10.7588C9.62179 2.4502 8.69879 3.4752 8.69879 4.7392V5.3692" stroke="black" stroke-width="1.5" stroke-linecap="round" stroke-linejoin="round"/>
</g>
</g>
</svg>
