<svg width="24" height="24" viewBox="0 0 24 24" fill="none" xmlns="http://www.w3.org/2000/svg">
<path fill-rule="evenodd" clip-rule="evenodd" d="M10.7024 5.25001C10.5361 5.25001 10.3827 5.3392 10.3004 5.48363L6.95444 11.3569C6.51091 12.1354 6.32478 13.0342 6.42265 13.9249L6.7758 17.1385C6.83863 17.7103 7.2875 18.1632 7.8587 18.2312L9.97575 18.483C11.3733 18.6493 12.7903 18.5052 14.1258 18.061C14.7854 17.8416 15.3136 17.341 15.5681 16.6942L17.2722 12.3636C17.3139 12.2578 17.3427 12.1473 17.358 12.0345C17.4872 11.0824 16.6538 10.2793 15.7071 10.4437L12.2913 11.037C11.2123 11.2244 10.2804 10.2722 10.491 9.19745L11.1564 5.80159C11.2124 5.51582 10.9936 5.25001 10.7024 5.25001ZM8.99708 4.74112C9.34617 4.12837 9.99716 3.75002 10.7024 3.75001C11.9378 3.75 12.8659 4.87769 12.6284 6.09002L11.963 9.48589C11.9601 9.50044 11.9616 9.50932 11.9637 9.51571C11.9661 9.52356 11.9712 9.53277 11.9795 9.54131C11.9879 9.54985 11.997 9.55511 12.0048 9.55775C12.0111 9.55989 12.02 9.56161 12.0346 9.55908L15.4504 8.9658C17.3966 8.62778 19.1101 10.2789 18.8444 12.2363C18.8129 12.4681 18.7537 12.6952 18.6681 12.9129L16.964 17.2435C16.5467 18.3039 15.6806 19.1246 14.5992 19.4843C13.0544 19.9981 11.4152 20.1648 9.79856 19.9725L7.68151 19.7207C6.4173 19.5703 5.42383 18.5679 5.28477 17.3024L4.93163 14.0887C4.79921 12.8837 5.05103 11.6677 5.65111 10.6144L8.99708 4.74112Z" fill="black"/>
</svg>
