<svg width="24" height="24" viewBox="0 0 24 24" fill="none" xmlns="http://www.w3.org/2000/svg">
<path fill-rule="evenodd" clip-rule="evenodd" d="M22.0001 10V14C22.0001 14.8284 21.3285 15.5 20.5001 15.5H19.6001V15.8103C19.6001 16.9508 18.7226 17.8994 17.5855 17.988L16.317 18.0869C12.7778 18.3629 9.22235 18.3629 5.68306 18.0869L4.33546 17.9819C3.24028 17.8965 2.34407 17.0761 2.16244 15.9927C1.71929 13.3493 1.71929 10.6507 2.16244 8.0073C2.34407 6.92392 3.24028 6.10353 4.33546 6.01814L5.68306 5.91306C9.22235 5.63709 12.7778 5.63709 16.317 5.91306L17.5855 6.01197C18.7226 6.10063 19.6001 7.04916 19.6001 8.18967V8.5H20.5001C21.3285 8.5 22.0001 9.17157 22.0001 10ZM13.0671 8.48383C10.6764 8.39585 8.28176 8.44645 5.8954 8.63562L5.70666 8.65058C5.26771 8.68538 4.90263 9.00206 4.80616 9.43169C4.42768 11.1172 4.42782 12.8662 4.80628 14.5516C4.90245 14.98 5.26577 15.2964 5.70356 15.3326L5.87784 15.347C8.27004 15.5445 10.6712 15.5975 13.0682 15.5059C13.4709 15.4905 13.7895 15.1595 13.7895 14.7564V9.23333C13.7895 8.82985 13.4703 8.49867 13.0671 8.48383Z" fill="black"/>
</svg>
