<svg width="24" height="24" viewBox="0 0 24 24" fill="none" xmlns="http://www.w3.org/2000/svg">
<path d="M6.91798 1.59949C6.31253 1.53182 5.68737 1.53182 5.08192 1.59949C4.57609 1.65602 4.16566 2.05404 4.10563 2.56734C4.03315 3.187 4.03315 3.813 4.10563 4.43265C4.16566 4.94596 4.57609 5.34397 5.08193 5.40051C5.68737 5.46818 6.31253 5.46817 6.91798 5.40051C7.42381 5.34397 7.83424 4.94596 7.89428 4.43265C7.96675 3.813 7.96675 3.187 7.89428 2.56734C7.83424 2.05404 7.42381 1.65602 6.91798 1.59949Z" fill="black"/>
<path d="M12.918 1.59949C12.3125 1.53182 11.6874 1.53182 11.0819 1.59949C10.5761 1.65602 10.1657 2.05404 10.1056 2.56734C10.0332 3.187 10.0332 3.813 10.1056 4.43265C10.1657 4.94596 10.5761 5.34397 11.0819 5.40051C11.6874 5.46818 12.3125 5.46817 12.918 5.40051C13.4238 5.34397 13.8342 4.94596 13.8943 4.43265C13.9668 3.813 13.9668 3.187 13.8943 2.56734C13.8342 2.05404 13.4238 1.65602 12.918 1.59949Z" fill="black"/>
<path d="M18.918 1.59949C18.3125 1.53182 17.6874 1.53182 17.0819 1.59949C16.5761 1.65602 16.1657 2.05404 16.1056 2.56734C16.0332 3.187 16.0332 3.813 16.1056 4.43265C16.1657 4.94596 16.5761 5.34397 17.0819 5.40051C17.6874 5.46818 18.3125 5.46817 18.918 5.40051C19.4238 5.34397 19.8342 4.94596 19.8943 4.43265C19.9668 3.813 19.9668 3.187 19.8943 2.56734C19.8342 2.05404 19.4238 1.65602 18.918 1.59949Z" fill="black"/>
<path d="M6.91798 7.09949C6.31253 7.03182 5.68737 7.03182 5.08192 7.09949C4.57609 7.15602 4.16566 7.55404 4.10563 8.06734C4.03315 8.687 4.03315 9.31299 4.10563 9.93266C4.16566 10.446 4.57609 10.844 5.08193 10.9005C5.68737 10.9682 6.31253 10.9682 6.91798 10.9005C7.42381 10.844 7.83424 10.446 7.89428 9.93266C7.96675 9.31299 7.96675 8.687 7.89428 8.06734C7.83424 7.55404 7.42381 7.15602 6.91798 7.09949Z" fill="black"/>
<path d="M12.918 7.09949C12.3125 7.03182 11.6874 7.03182 11.0819 7.09949C10.5761 7.15602 10.1657 7.55404 10.1056 8.06734C10.0332 8.687 10.0332 9.31299 10.1056 9.93266C10.1657 10.446 10.5761 10.844 11.0819 10.9005C11.6874 10.9682 12.3125 10.9682 12.918 10.9005C13.4238 10.844 13.8342 10.446 13.8943 9.93266C13.9668 9.31299 13.9668 8.687 13.8943 8.06734C13.8342 7.55404 13.4238 7.15602 12.918 7.09949Z" fill="black"/>
<path d="M18.918 7.09949C18.3125 7.03182 17.6874 7.03182 17.0819 7.09949C16.5761 7.15602 16.1657 7.55404 16.1056 8.06734C16.0332 8.687 16.0332 9.31299 16.1056 9.93266C16.1657 10.446 16.5761 10.844 17.0819 10.9005C17.6874 10.9682 18.3125 10.9682 18.918 10.9005C19.4238 10.844 19.8342 10.446 19.8943 9.93266C19.9668 9.31299 19.9668 8.687 19.8943 8.06734C19.8342 7.55404 19.4238 7.15602 18.918 7.09949Z" fill="black"/>
<path d="M6.91798 12.5995C6.31253 12.5318 5.68737 12.5318 5.08192 12.5995C4.57609 12.656 4.16566 13.054 4.10563 13.5673C4.03315 14.187 4.03315 14.813 4.10563 15.4327C4.16566 15.946 4.57609 16.344 5.08193 16.4005C5.68737 16.4682 6.31253 16.4682 6.91798 16.4005C7.42381 16.344 7.83424 15.946 7.89428 15.4327C7.96675 14.813 7.96675 14.187 7.89428 13.5673C7.83424 13.054 7.42381 12.656 6.91798 12.5995Z" fill="black"/>
<path d="M12.918 12.5995C12.3125 12.5318 11.6874 12.5318 11.0819 12.5995C10.5761 12.656 10.1657 13.054 10.1056 13.5673C10.0332 14.187 10.0332 14.813 10.1056 15.4327C10.1657 15.946 10.5761 16.344 11.0819 16.4005C11.6874 16.4682 12.3125 16.4682 12.918 16.4005C13.4238 16.344 13.8342 15.946 13.8943 15.4327C13.9668 14.813 13.9668 14.187 13.8943 13.5673C13.8342 13.054 13.4238 12.656 12.918 12.5995Z" fill="black"/>
<path d="M12.918 18.0995C12.3125 18.0318 11.6874 18.0318 11.0819 18.0995C10.5761 18.156 10.1657 18.554 10.1056 19.0673C10.0332 19.687 10.0332 20.313 10.1056 20.9327C10.1657 21.446 10.5761 21.844 11.0819 21.9005C11.6874 21.9682 12.3125 21.9682 12.918 21.9005C13.4238 21.844 13.8342 21.446 13.8943 20.9327C13.9668 20.313 13.9668 19.687 13.8943 19.0673C13.8342 18.554 13.4238 18.156 12.918 18.0995Z" fill="black"/>
<path d="M18.918 12.5995C18.3125 12.5318 17.6874 12.5318 17.0819 12.5995C16.5761 12.656 16.1657 13.054 16.1056 13.5673C16.0332 14.187 16.0332 14.813 16.1056 15.4327C16.1657 15.946 16.5761 16.344 17.0819 16.4005C17.6874 16.4682 18.3125 16.4682 18.918 16.4005C19.4238 16.344 19.8342 15.946 19.8943 15.4327C19.9668 14.813 19.9668 14.187 19.8943 13.5673C19.8342 13.054 19.4238 12.656 18.918 12.5995Z" fill="black"/>
</svg>
