<svg width="24" height="24" viewBox="0 0 24 24" fill="none" xmlns="http://www.w3.org/2000/svg">
<path d="M19.6494 9.62402C17.1562 9.62402 15.6826 11.9883 15.5889 11.9883C15.4951 11.9883 14.0303 9.62402 11.5166 9.62402C9.00586 9.62402 8.28809 11.9883 8.21191 11.9883C8.13574 11.9883 7.55859 10.0488 5.3877 10.0488C3.62988 10.0488 3.38379 10.8574 3.23437 10.8574C3.23437 10.8574 3.36621 9.99023 3.62988 8.44629H7.96582V6.75H2.10059L1.11035 12.4307H3.00879C3.00879 12.4307 3.44238 11.6309 4.59375 11.6309C5.74512 11.6309 6.44531 12.5156 6.44531 13.5146C6.44531 14.5107 5.67187 15.6035 4.59375 15.6035C3.51855 15.6035 2.89453 14.6807 2.89453 14.042C2.00684 14.042 0.779297 14.042 0.779297 14.042C0.779297 14.6074 1.2334 17.25 4.59375 17.25C7.33301 17.25 8.21191 15.208 8.21191 14.9648C8.21191 15.1699 9.26953 17.25 11.5195 17.25C14.127 17.25 15.4395 14.9648 15.5889 14.9648C15.7412 14.9648 17.291 17.25 19.6523 17.25C22.0137 17.25 23.2236 15.1699 23.2236 13.418C23.2207 11.666 22.1455 9.62402 19.6494 9.62402ZM14.3291 13.4531H14.3262C14.3115 13.4736 12.8672 15.2256 11.5283 15.2256C10.1836 15.2256 9.93457 13.8867 9.93457 13.4531C9.93457 13.0195 10.1836 11.6807 11.5283 11.6807C12.8672 11.6807 14.3115 13.4326 14.3262 13.4531H14.3291ZM21.2607 13.4531C21.2607 13.8867 21.0117 15.2285 19.667 15.2285C18.3311 15.2285 16.8867 13.4766 16.8691 13.4561V13.4531C16.8867 13.4326 18.3311 11.6807 19.667 11.6807C21.0117 11.6807 21.2607 13.0225 21.2607 13.4531Z" fill="black"/>
</svg>
