<svg width="24" height="24" viewBox="0 0 24 24" fill="none" xmlns="http://www.w3.org/2000/svg">
<path d="M18 3C16.7666 3 15.75 4.0166 15.75 5.25C15.75 6.4834 16.7666 7.5 18 7.5C19.2334 7.5 20.25 6.4834 20.25 5.25C20.25 4.0166 19.2334 3 18 3ZM18 4.5C18.4219 4.5 18.75 4.82812 18.75 5.25C18.75 5.67188 18.4219 6 18 6C17.5781 6 17.25 5.67188 17.25 5.25C17.25 4.82812 17.5781 4.5 18 4.5ZM13.9219 6.77344L11.2266 7.07812C10.7988 7.12793 10.4414 7.38281 10.1953 7.73438L10.1719 7.71094L10.1484 7.75781L8.41406 10.0547L9.58594 10.9453L11.3672 8.625L11.4141 8.57812L13.0547 8.39062L11.7891 11.2734C10.0986 11.3408 8.59863 12.1963 7.6875 13.5H9.77344C10.3975 13.0342 11.165 12.75 12 12.75C14.0684 12.75 15.75 14.4316 15.75 16.5C15.75 18.5684 14.0684 20.25 12 20.25C10.7783 20.25 9.70898 19.6553 9.02344 18.75H7.26562C8.10938 20.5195 9.91113 21.75 12 21.75C14.8945 21.75 17.25 19.3945 17.25 16.5C17.25 16.2451 17.2148 15.9961 17.1797 15.75H18.6562L17.5078 20.0625L18.9609 20.4375L20.2031 15.7734L20.25 15.6094L20.2266 15.4219C20.0771 14.7363 19.4502 14.25 18.75 14.25H16.7344C16.5146 13.79 16.2275 13.3828 15.8906 13.0078L17.1094 10.4531L17.1328 10.4062V10.3828C17.5107 9.33691 17.0566 8.16504 16.0781 7.64062L14.8125 6.9375V6.96094C14.543 6.81738 14.2236 6.73828 13.9219 6.77344ZM14.6016 8.53125L15.375 8.95312C15.709 9.13184 15.8555 9.5127 15.7266 9.86719L14.6953 12C14.2764 11.748 13.8223 11.5664 13.3359 11.4375L14.6016 8.53125ZM5.25 14.25V15.75H10.5V14.25H5.25ZM3 16.5V18H12.75V16.5H3Z" fill="black"/>
</svg>
