<svg width="24" height="24" viewBox="0 0 24 24" fill="none" xmlns="http://www.w3.org/2000/svg">
<g clip-path="url(#clip0_201_32568)">
<path d="M14.0552 4.5C13.6637 4.5 9.58515 4.51665 9.2124 4.5249C8.46615 4.5249 7.93208 4.51717 8.46533 5.12842C8.76683 5.46217 17.8842 15.8124 18.1069 16.0562C18.6222 16.6352 18.9159 16.5289 19.3066 16.3901C19.4304 16.3496 23.7929 14.6957 23.8813 14.647C24.1918 14.4925 23.819 14.0521 23.606 13.8076C23.5257 13.7266 15.6364 5.05453 15.5479 4.95703C15.1744 4.52503 14.9972 4.5 14.0552 4.5ZM10.0913 9.75C10.0913 9.75 9.6411 9.80803 9.1626 10.3008C8.8221 10.6293 0.143287 18.4628 0.0922868 18.5288C-0.171713 18.8903 0.153154 18.7755 0.681154 18.5947C0.706654 18.5947 4.23779 17.4829 4.23779 17.4829C4.26329 17.4582 4.2372 17.4745 4.2627 17.458C4.2462 17.2773 4.23726 16.5231 4.22901 16.4736C4.20351 16.2846 4.30685 16.2263 4.48535 16.1528L8.63672 14.6865C8.66222 14.6618 11.9408 12.1061 12 12.0483V12.0073L10.0913 9.75ZM11.8315 15C11.7183 15.0082 11.4667 15.0334 11.2837 15.1069C11.1014 15.1804 5.76059 16.7819 5.56934 16.8472C5.37809 16.9207 5.13407 16.9779 5.14307 17.1167C5.15207 17.2067 5.22192 17.2155 5.32617 17.2485C5.42142 17.2725 16.772 19.9835 17.042 20.0405C17.6337 20.1545 18.5029 20.4164 19.0767 20.0977C19.1637 20.0564 23.7916 17.0424 23.8696 16.9937C24.0699 16.8467 24.0341 16.7494 23.7993 16.7007C23.7123 16.6924 22.8694 16.59 22.3564 16.5C22.3564 16.5 17.981 18.2466 17.8843 18.2871C17.276 18.5489 16.8579 18.1714 16.4927 17.7627L14.3188 15.3354C14.1096 15.3032 12.0228 14.9917 11.8315 15Z" fill="black"/>
</g>
<defs>
<clipPath id="clip0_201_32568">
<rect width="24" height="24" fill="white"/>
</clipPath>
</defs>
</svg>
