<svg width="24" height="24" viewBox="0 0 24 24" fill="none" xmlns="http://www.w3.org/2000/svg">
<path d="M5.43604 2.25C5.29504 2.25 5.22886 2.2924 5.25586 2.45215C5.34211 2.95465 5.22435 2.48202 5.50635 4.17627C7.9866 4.17627 8.31551 4.21106 9.48926 4.19531C9.97076 4.18781 10.9366 4.3296 10.9644 5.0376C10.9801 5.47185 10.9215 5.46701 9.68848 8.36426C7.58323 13.306 7.70419 12.9451 7.05469 14.4946C6.98869 14.6506 6.91554 14.6924 6.75879 14.6924C6.42654 14.6849 6.09266 14.6818 5.76416 14.6968C5.68991 14.7005 5.56083 14.7651 5.54883 14.8184C5.49108 15.1221 5.46404 15.4283 5.42579 15.75H9.75V14.7144C9.48 14.7144 8.58564 14.7297 8.51514 14.6045C8.72214 14.1365 8.92191 13.675 9.12891 13.207C9.76641 13.3593 10.4644 13.5038 11.0786 13.6523C11.2114 13.6868 11.2588 13.7669 11.2588 13.9116C11.255 15.5451 11.2624 17.1824 11.2661 18.8159C11.2661 19.2044 11.0506 19.544 10.6831 19.6963C10.4289 19.799 10.4669 19.8254 5.8462 19.7871C5.6392 19.7871 5.56833 19.8641 5.54883 20.0464C5.49033 20.5376 5.43651 21.0317 5.35401 21.5229C5.32251 21.7134 5.40455 21.7397 5.56055 21.7397C12.7283 21.7622 4.35829 21.7397 18.7485 21.7397C18.651 21.169 18.5762 20.6216 18.4907 20.0771C18.4442 19.7831 18.4405 19.7871 18.1157 19.7871C14.2112 19.7946 13.5924 19.695 13.5571 19.6875C13.0756 19.623 12.7511 19.2871 12.7354 18.8071C12.7316 18.7464 12.7273 16.0818 12.6958 13.8926C12.6921 13.7133 12.7585 13.6489 12.9273 13.6069C13.4163 13.4929 14.0519 13.3743 14.5371 13.2378C14.7051 13.1883 14.803 13.2301 14.8652 13.3711C15.0415 13.7633 15.2098 14.1551 15.3823 14.5474C15.4446 14.6884 15.3855 14.7144 15.249 14.7144C14.8575 14.7069 14.658 14.7114 14.2515 14.7114V15.7397H18.5991C18.5444 15.3782 18.4934 15.0501 18.4424 14.6924C18.1686 14.6924 17.902 14.7082 17.644 14.6895C16.7598 14.6287 16.9272 14.5209 14.3569 8.6499C14.0127 7.8849 13.2655 6.28639 12.9287 5.25439C12.757 4.72114 13.1442 4.28794 13.6685 4.24219C14.396 4.17769 15.1352 4.18177 15.8672 4.16602C16.6734 4.15102 17.4794 4.15072 18.2856 4.14697C18.4071 4.14697 18.4429 4.09316 18.4541 3.98291C18.5014 3.61016 18.5598 3.24009 18.6108 2.87109C18.6423 2.66934 18.6731 2.46429 18.7046 2.25879L5.43604 2.25ZM11.8682 6.62842C12.1614 6.71992 12.1773 6.59767 12.2358 6.62842C12.5996 7.48492 12.9432 8.91676 13.292 9.78076C13.55 10.4168 13.8015 11.0565 14.064 11.7188C14.0152 11.7487 13.9641 11.7753 13.9116 11.7993C13.3994 11.9478 12.8776 12.0849 12.3691 12.2446C12.1351 12.3241 11.8817 12.3241 11.6484 12.2446C11.1279 12.0849 10.6081 11.9328 10.0884 11.7686C10.0104 11.7371 9.93408 11.7007 9.86133 11.6587C10.5341 9.97194 11.1992 8.30392 11.8682 6.62842Z" fill="black"/>
</svg>
