<svg width="24" height="24" viewBox="0 0 24 24" fill="none" xmlns="http://www.w3.org/2000/svg">
<path d="M4.00928 3.75C3.20453 3.75 3 3.9581 3 4.7666V18.4849C3 19.3031 3.20453 19.5 4.00928 19.5H19.9482C20.8062 19.5 21 19.3166 21 18.4556V4.81201C21 3.94651 20.81 3.75 19.9482 3.75H4.00928ZM18.6987 5.31445C18.8052 5.31445 18.9262 5.32795 19.0327 5.31445C19.38 5.28745 19.5 5.46468 19.5 5.80518C19.4963 5.81193 19.4956 5.816 19.4956 5.82275H19.5V15.832C19.5 16.0278 19.4715 16.3096 19.2173 16.3096C18.7905 16.2961 18.2728 16.5549 17.9766 16.1177C17.7771 15.8184 17.7071 15.9807 17.5488 16.0767C15.7121 17.0982 13.1433 16.3203 12.583 13.1455C12.373 11.9965 12.5581 10.8378 13.1221 9.70605C13.5278 8.88405 15.0797 7.08898 17.8037 8.65723V6.21533C17.8037 5.31383 17.801 5.31445 18.6987 5.31445ZM8.13574 8.00684C8.8563 7.98274 9.58041 8.12507 10.3008 8.42432C11.7085 9.00182 11.25 10.4595 11.25 12.8438C11.343 13.731 11.1028 14.8494 11.5708 15.8979C11.6361 16.0494 11.5836 16.1689 11.4771 16.2656C11.1883 16.4959 10.3645 16.3422 10.1133 16.0122C10.048 15.9365 10.0505 15.8876 9.97852 15.7983C9.85477 15.6641 9.72807 15.7232 9.56982 15.8335C7.59582 17.0852 4.74418 16.569 4.51318 14.3438C4.40668 13.3357 4.93877 12.3796 5.87402 11.9019C7.18802 11.2314 9.58961 11.4954 9.65186 10.8384C9.69011 10.4866 9.58692 10.1469 9.26367 9.89941C8.31792 9.20491 6.92748 9.59961 6.51123 10.7036C6.36348 11.0854 6.19118 11.0305 5.90918 10.9893C5.57543 10.9375 5.31799 10.879 5.13574 10.8003C4.14499 10.408 5.43021 8.89813 5.99121 8.58838C6.69809 8.2205 7.41518 8.03093 8.13574 8.00684ZM15.9814 9.75293C15.4464 9.77955 14.9337 10.0766 14.6543 10.6436C14.1098 11.7506 14.1236 12.9108 14.6411 14.0186C15.2276 15.2853 17.0578 15.429 17.7261 13.8457C17.9586 13.2967 18.1543 11.4409 17.4478 10.4839C17.0743 9.97014 16.5165 9.7263 15.9814 9.75293ZM9.65039 12.7603C9.6127 12.7472 9.55986 12.7469 9.48486 12.7632C8.66136 12.9207 7.82106 13.0502 6.99756 13.2437C6.59256 13.3352 6.31609 13.6336 6.32959 14.0889C6.35284 14.8914 7.21356 14.9572 7.46631 15C8.86656 15.0127 9.79578 14.1545 9.74854 13.0737C9.73841 12.9483 9.76345 12.7994 9.65039 12.7603ZM4.71973 17.2544C4.83926 17.2355 4.9858 17.2778 5.10205 17.2778C9.75355 17.2636 14.2655 17.2592 18.917 17.2734C19.1555 17.2734 19.5 17.1181 19.5 17.6206C19.5 18.1516 19.11 17.9692 18.8745 17.9692L5.12695 17.9751C4.8667 17.9751 4.48721 18.1439 4.50146 17.5986C4.50859 17.3541 4.6002 17.2733 4.71973 17.2544Z" fill="black"/>
</svg>
