<svg width="24" height="24" viewBox="0 0 24 24" fill="none" xmlns="http://www.w3.org/2000/svg">
<path d="M12.0147 3C11.1004 3 10.2527 3.40222 9.61671 4.14697C9.34371 4.48372 9.14685 4.84057 8.9751 5.15332L8.94141 5.2207C8.81916 5.46595 8.68998 5.72096 8.54298 6.00146L8.51075 6.07324C7.06175 8.94049 5.81214 11.5446 4.67139 14.0698L4.59962 14.2251C4.55087 14.3308 4.50246 14.4396 4.46046 14.5371L4.39893 14.6704C4.35393 14.7694 4.30899 14.8697 4.27149 14.959C4.18374 15.1585 4.09503 15.3661 3.99903 15.6211C3.76428 16.3163 3.69734 16.9472 3.78809 17.6147C3.99134 18.9925 4.90461 20.1761 6.17286 20.7041C6.65661 20.9036 7.14578 21 7.66553 21C7.78028 21 7.95182 20.9911 8.14307 20.9648C8.77007 20.8838 9.3808 20.6716 9.9463 20.3408C10.6058 19.9689 11.2542 19.4332 11.9751 18.6636L12.0044 18.7031L12.0161 18.687C12.6902 19.4085 13.3439 19.9511 14.0068 20.335C14.5828 20.6717 15.1929 20.8832 15.8071 20.9619C16.0074 20.9904 16.1814 21 16.3052 21C16.8182 21 17.3129 20.903 17.7847 20.6968V20.6982C19.0402 20.1942 19.9497 19.0348 20.168 17.6631L20.1899 17.54C20.3084 16.9558 20.2504 16.3331 20.0156 15.6431C19.9856 15.5538 19.9473 15.4654 19.9263 15.4219C19.8685 15.2666 19.8059 15.1206 19.7549 15.0059C19.7106 14.8949 19.6615 14.7907 19.6143 14.6895L19.4956 14.4214C19.4559 14.3314 19.419 14.2425 19.377 14.1548L19.3286 14.061C18.0956 11.3408 16.811 8.66651 15.5127 6.11426L15.4497 5.98828C15.3117 5.73328 15.1726 5.4555 15.0264 5.15625L14.9839 5.07422C14.8301 4.79597 14.6723 4.51032 14.4346 4.22607L14.3994 4.18066C13.8054 3.41866 12.9582 3 12.0147 3ZM11.9941 4.51611C12.4375 4.50918 12.8743 4.69129 13.1807 5.06104L13.2598 5.16064C13.4173 5.34064 13.5286 5.54288 13.6538 5.76562L13.6992 5.86377C13.838 6.14052 13.9839 6.43362 14.1196 6.68262L14.1738 6.79248C15.4646 9.32898 16.7389 11.9827 17.9531 14.6602L18.0601 14.8975L18.0689 14.9062C18.0854 14.9438 18.1022 14.9808 18.1187 15.019L18.2534 15.3208C18.2894 15.3996 18.3263 15.4793 18.3735 15.5933C18.42 15.699 18.4724 15.817 18.5376 15.9888C18.5571 16.0338 18.579 16.0793 18.5947 16.125L18.5962 16.1294C18.7529 16.5869 18.787 16.9566 18.709 17.2896L18.6899 17.4009C18.5617 18.2656 18.0002 18.9964 17.1782 19.3286C16.9352 19.4389 16.6254 19.5 16.3052 19.5C16.2347 19.5 16.136 19.4938 16.0093 19.4751C15.584 19.4211 15.164 19.2748 14.7598 19.0386C14.1699 18.697 13.5725 18.1841 12.936 17.4741L12.9844 17.4111C14.0104 16.0716 14.6524 14.8472 14.8916 13.7725L14.8931 13.7666C15.0086 13.2341 15.0309 12.7326 14.9619 12.2886C14.9049 11.8573 14.7501 11.4448 14.5078 11.0698C13.9866 10.2433 13.05 9.75 12 9.75C10.9935 9.75 10.0646 10.2285 9.51563 11.0303L9.47462 11.0991C9.24137 11.4711 9.09427 11.8697 9.04102 12.271C8.96677 12.748 8.98848 13.2373 9.10548 13.7563C9.33573 14.8401 9.9986 16.1067 11.0171 17.4185L11.0479 17.458L11.0464 17.4595C10.3646 18.2125 9.78123 18.7123 9.19923 19.04C8.79798 19.274 8.37889 19.4218 7.94239 19.478C7.82839 19.4945 7.73078 19.5 7.66553 19.5C7.34003 19.5 7.04708 19.4421 6.74708 19.3184C5.96408 18.9929 5.39869 18.2558 5.27344 17.4038C5.21494 16.9771 5.2611 16.5764 5.4126 16.1279C5.4891 15.9239 5.56741 15.7405 5.64991 15.5537C5.68666 15.466 5.72663 15.3792 5.76563 15.293L5.83448 15.1377C5.87648 15.0409 5.91989 14.9451 5.96339 14.8506L6.05421 14.6484C7.16946 12.1817 8.4108 9.5991 9.8628 6.7251L9.8877 6.6665C10.0205 6.41375 10.1542 6.14807 10.2817 5.89307L10.3008 5.85352C10.4373 5.60677 10.5918 5.32691 10.7695 5.10791C11.101 4.71941 11.5508 4.52305 11.9941 4.51611ZM12 11.25C12.5318 11.25 12.994 11.481 13.2407 11.877C13.369 12.075 13.4458 12.2744 13.4766 12.5024C13.5193 12.7747 13.5018 13.1015 13.4268 13.4473C13.2498 14.24 12.7696 15.1738 11.9956 16.229C11.2314 15.1963 10.7406 14.2388 10.5703 13.437C10.4931 13.095 10.4762 12.7893 10.5234 12.4863C10.5527 12.2741 10.6281 12.075 10.7564 11.877L10.771 11.8521C11.0433 11.4741 11.4998 11.25 12 11.25Z" fill="black"/>
</svg>
