<svg width="24" height="24" viewBox="0 0 24 24" fill="none" xmlns="http://www.w3.org/2000/svg">
<path d="M3.75 3.75V20.25H20.25V3.75H3.75ZM5.25 5.25H18.75V18.75H5.25V5.25Z" fill="black"/>
<path d="M12.75 6.75H11.25V10.5H12.75V6.75Z" fill="black"/>
<path d="M15.75 8.25H7.5V9H15.75V8.25Z" fill="black"/>
<path d="M14.6235 10.5H8.25V9.75H15L14.6235 10.5Z" fill="black"/>
<path d="M13.671 12.9075C13.5712 12.8355 13.4355 12.75 13.4407 12.7455L13.4205 12.708C13.4077 12.681 13.3965 12.6518 13.389 12.618C13.374 12.549 13.3537 12.4838 13.3312 12.4245C13.278 12.318 13.173 12.3008 13.0905 12.2475C12.9165 12.156 12.7402 12.0713 12.5617 11.991C12.207 11.8268 11.8387 11.6963 11.4622 11.5958C10.7107 11.3895 9.93599 11.2718 9.16049 11.2508C8.96624 11.2455 8.77199 11.2538 8.57849 11.2553C8.36549 11.2658 8.14649 11.2845 7.93724 11.3453C7.51574 11.454 7.12649 11.6783 6.82274 11.9835C6.18749 12.582 5.92649 13.4775 6.03599 14.3325C6.12974 15.2145 6.81224 16.023 7.66499 16.3133C8.07749 16.47 8.56199 16.5293 8.94824 16.4865C9.15149 16.482 9.35399 16.4678 9.55649 16.4288C9.75974 16.4003 9.96149 16.3665 10.1587 16.305C10.956 16.1018 11.7045 15.699 12.3105 15.156C12.6135 14.8845 12.8902 14.589 13.1377 14.2718C13.2547 14.1083 13.3822 13.9515 13.476 13.7715C13.5202 13.68 13.5727 13.5938 13.5967 13.4903C13.6095 13.4385 13.629 13.3913 13.6357 13.3373L13.6462 13.254C13.6507 13.2338 13.644 13.2405 13.6567 13.1985C13.6912 13.1085 13.6957 12.9908 13.671 12.9075ZM11.4277 14.1338C10.9777 14.577 10.4467 14.9393 9.84149 15.1838C9.69149 15.2498 9.53249 15.2895 9.37199 15.327C9.21299 15.375 9.04874 15.4013 8.88224 15.4193C8.53424 15.4838 8.25674 15.4763 7.95749 15.405C7.37624 15.276 6.86474 14.8163 6.77699 14.2013C6.66074 13.5908 6.93449 12.9248 7.40624 12.5933C7.63649 12.4193 7.90049 12.3218 8.16449 12.2745C8.29799 12.2483 8.43074 12.252 8.57024 12.2558L9.08249 12.291C9.76574 12.3548 10.4317 12.5333 11.0887 12.7335C11.415 12.8415 11.7382 12.9623 12.0585 13.0883C12.1267 13.116 12.1927 13.1483 12.2602 13.1783C12.1987 13.2645 12.138 13.3508 12.072 13.4348C11.877 13.6875 11.6497 13.908 11.4277 14.1338Z" fill="black"/>
<path d="M13.587 12.3645L19.995 14.6415L18.933 16.6335L13.1062 13.4655L13.587 12.3645Z" fill="black"/>
<path d="M15 9.75C14.8793 10.9987 14.5133 12.2145 13.8113 13.2562L12.6562 12.6083C13.2075 11.8328 13.5442 10.7985 13.6515 9.75H15Z" fill="black"/>
</svg>
