<svg width="24" height="24" viewBox="0 0 24 24" fill="none" xmlns="http://www.w3.org/2000/svg">
<path d="M12 1.5C10.9627 1.5 10.1017 2.22675 9.84375 3.1875C9.57975 3.07875 9.3015 3 9 3C7.76625 3 6.75 4.01625 6.75 5.25V13.3125L6.09375 12.6562C5.22075 11.7832 3.77925 11.7832 2.90625 12.6562C2.03325 13.5293 2.03325 14.9707 2.90625 15.8438L7.99218 20.9297C8.87418 21.8087 10.0927 22.5 11.5312 22.5H15C17.8912 22.5 20.25 20.1413 20.25 17.25V8.25C20.25 7.01625 19.2337 6 18 6C17.736 6 17.487 6.05513 17.25 6.14062V5.25C17.25 4.01625 16.2337 3 15 3C14.6985 3 14.4202 3.07875 14.1562 3.1875C13.8982 2.22675 13.0372 1.5 12 1.5ZM12 3C12.4245 3 12.75 3.3255 12.75 3.75V11.25H14.25V5.25C14.25 4.8255 14.5755 4.5 15 4.5C15.4245 4.5 15.75 4.8255 15.75 5.25V11.25H17.25V8.25C17.25 7.8255 17.5755 7.5 18 7.5C18.4245 7.5 18.75 7.8255 18.75 8.25V17.25C18.75 19.3298 17.0797 21 15 21H11.5312C10.5765 21 9.75581 20.5341 9.07031 19.8516L3.96093 14.7891C3.66243 14.4906 3.66243 14.0102 3.96093 13.7109C4.25943 13.4124 4.73981 13.4124 5.03906 13.7109L6.96093 15.6562L8.25 16.9453V5.25C8.25 4.8255 8.5755 4.5 9 4.5C9.4245 4.5 9.75 4.8255 9.75 5.25V11.25H11.25V3.75C11.25 3.3255 11.5755 3 12 3ZM12 12.75C11.8011 12.75 11.6103 12.829 11.4697 12.9697C11.329 13.1103 11.25 13.3011 11.25 13.5C11.25 13.6989 11.329 13.8897 11.4697 14.0303C11.6103 14.171 11.8011 14.25 12 14.25C12.1989 14.25 12.3897 14.171 12.5303 14.0303C12.671 13.8897 12.75 13.6989 12.75 13.5C12.75 13.3011 12.671 13.1103 12.5303 12.9697C12.3897 12.829 12.1989 12.75 12 12.75ZM16.5 12.75C16.3011 12.75 16.1103 12.829 15.9697 12.9697C15.829 13.1103 15.75 13.3011 15.75 13.5C15.75 13.6989 15.829 13.8897 15.9697 14.0303C16.1103 14.171 16.3011 14.25 16.5 14.25C16.6989 14.25 16.8897 14.171 17.0303 14.0303C17.171 13.8897 17.25 13.6989 17.25 13.5C17.25 13.3011 17.171 13.1103 17.0303 12.9697C16.8897 12.829 16.6989 12.75 16.5 12.75ZM13.5 15C13.3011 15 13.1103 15.079 12.9697 15.2197C12.829 15.3603 12.75 15.5511 12.75 15.75C12.75 15.9489 12.829 16.1397 12.9697 16.2803C13.1103 16.421 13.3011 16.5 13.5 16.5C13.6989 16.5 13.8897 16.421 14.0303 16.2803C14.171 16.1397 14.25 15.9489 14.25 15.75C14.25 15.5511 14.171 15.3603 14.0303 15.2197C13.8897 15.079 13.6989 15 13.5 15ZM10.5 15.75C10.3011 15.75 10.1103 15.829 9.96967 15.9697C9.82901 16.1103 9.75 16.3011 9.75 16.5C9.75 16.6989 9.82901 16.8897 9.96967 17.0303C10.1103 17.171 10.3011 17.25 10.5 17.25C10.6989 17.25 10.8897 17.171 11.0303 17.0303C11.171 16.8897 11.25 16.6989 11.25 16.5C11.25 16.3011 11.171 16.1103 11.0303 15.9697C10.8897 15.829 10.6989 15.75 10.5 15.75ZM16.5 15.75C16.3011 15.75 16.1103 15.829 15.9697 15.9697C15.829 16.1103 15.75 16.3011 15.75 16.5C15.75 16.6989 15.829 16.8897 15.9697 17.0303C16.1103 17.171 16.3011 17.25 16.5 17.25C16.6989 17.25 16.8897 17.171 17.0303 17.0303C17.171 16.8897 17.25 16.6989 17.25 16.5C17.25 16.3011 17.171 16.1103 17.0303 15.9697C16.8897 15.829 16.6989 15.75 16.5 15.75ZM13.5 18C13.3011 18 13.1103 18.079 12.9697 18.2197C12.829 18.3603 12.75 18.5511 12.75 18.75C12.75 18.9489 12.829 19.1397 12.9697 19.2803C13.1103 19.421 13.3011 19.5 13.5 19.5C13.6989 19.5 13.8897 19.421 14.0303 19.2803C14.171 19.1397 14.25 18.9489 14.25 18.75C14.25 18.5511 14.171 18.3603 14.0303 18.2197C13.8897 18.079 13.6989 18 13.5 18Z" fill="black"/>
</svg>
