<svg width="24" height="24" viewBox="0 0 24 24" fill="none" xmlns="http://www.w3.org/2000/svg">
<path d="M6.65332 6L6.49658 6.02637C6.00608 6.08787 5.53313 6.27136 5.14013 6.56836C5.05238 6.62086 4.97371 6.69122 4.88671 6.76172C4.87771 6.74447 4.86914 6.72623 4.86914 6.70898C4.85114 6.61223 4.84244 6.50837 4.82519 6.41162C4.79894 6.25412 4.7117 6.17432 4.5542 6.17432H4.14257C3.88907 6.17432 3.84521 6.22789 3.84521 6.47314V14.0669C3.85421 14.1809 3.92353 14.241 4.01953 14.25H4.78125C4.88625 14.25 4.94731 14.1809 4.95556 14.0669C4.96456 14.0316 4.96435 13.9967 4.96435 13.9614V11.3232C4.9996 11.3585 5.0262 11.3763 5.04345 11.3936C5.68245 11.9276 6.41764 12.1018 7.22314 11.9443C7.95814 11.7958 8.46506 11.3496 8.78906 10.6934C9.04256 10.1946 9.14627 9.68748 9.15527 9.13623C9.17252 8.53248 9.1202 7.95131 8.8667 7.38281C8.56894 6.68306 8.06203 6.21902 7.30078 6.06152C7.18678 6.03527 7.06468 6.02604 6.95068 6.00879C6.84568 5.99979 6.74932 6 6.65332 6ZM12.4819 6C12.4467 6.009 12.4132 6.01758 12.3779 6.01758C12.0277 6.03483 11.6857 6.07853 11.3452 6.16553C11.1262 6.21803 10.9165 6.29646 10.7065 6.36621C10.5753 6.40971 10.5132 6.5065 10.5132 6.646C10.5222 6.76 10.5132 6.88209 10.5132 6.99609C10.5222 7.17084 10.5928 7.21613 10.7593 7.17188C11.039 7.10213 11.3189 7.02369 11.5986 6.97119C12.0359 6.89244 12.4825 6.85696 12.9287 6.91846C13.165 6.96196 13.3837 7.02361 13.5322 7.22461C13.6635 7.39111 13.7166 7.60055 13.7256 7.81055C13.7346 8.1083 13.7344 8.34411 13.7344 8.64111C13.7344 8.65836 13.7346 8.67534 13.7256 8.68359H13.6816C13.3051 8.58759 12.9209 8.53553 12.5361 8.50928C12.1334 8.49203 11.7314 8.50965 11.3467 8.6499C10.8832 8.8074 10.5058 9.08674 10.2876 9.54199C10.1211 9.89224 10.0945 10.2605 10.147 10.6362C10.2257 11.144 10.4712 11.5284 10.9175 11.7729C11.3465 12.0092 11.8014 12.0346 12.2739 11.9648C12.8162 11.8861 13.2968 11.6588 13.7168 11.3086C13.734 11.2913 13.7523 11.2834 13.7695 11.2661C13.7958 11.4064 13.8136 11.5379 13.8398 11.6602C13.8571 11.7742 13.9282 11.8431 14.0332 11.8521H14.6191C14.7069 11.8521 14.7861 11.7737 14.7861 11.6777C14.7951 11.6515 14.7949 11.6156 14.7949 11.5811V7.84717C14.7927 7.69792 14.7831 7.5401 14.7568 7.3916C14.6871 6.9281 14.4942 6.54261 14.0742 6.29736C13.838 6.15711 13.5761 6.08745 13.2964 6.04395C13.1651 6.02595 13.0424 6.01725 12.9111 6H12.4819ZM15.5156 6.00147C15.4279 6.00147 15.3841 6.07924 15.4014 6.16699C15.4186 6.23749 15.4454 6.31697 15.4717 6.38672C16.1714 8.11922 16.8796 9.85056 17.5884 11.5913C17.6499 11.7398 17.6581 11.8632 17.5884 12.0117C17.4751 12.2735 17.3781 12.5446 17.2559 12.8071C17.1509 13.0434 16.9764 13.2193 16.7139 13.2891C16.5391 13.3333 16.3468 13.3505 16.1631 13.3242C16.0753 13.3152 15.9872 13.2981 15.8994 13.2891C15.7764 13.2801 15.7165 13.3321 15.7075 13.4634V13.8149C15.7165 14.0167 15.7775 14.1034 15.9785 14.1387C16.1713 14.1732 16.372 14.1985 16.582 14.2075C17.194 14.2158 17.6762 13.9725 17.9912 13.4385C18.1225 13.2285 18.2277 13.0095 18.3237 12.7822C19.172 10.6387 20.012 8.50406 20.852 6.35156C20.8783 6.29006 20.8943 6.22795 20.9033 6.1582C20.9206 6.0532 20.8682 6.00143 20.7729 6.00293H20.0654C19.9432 5.99393 19.8291 6.07204 19.7856 6.18604C19.7684 6.23854 19.7502 6.28148 19.7329 6.33398L18.4819 9.9126C18.3942 10.1661 18.2972 10.4283 18.2095 10.708C18.1915 10.6638 18.1833 10.6464 18.1743 10.6201C17.7108 9.34287 17.2565 8.0668 16.793 6.78955C16.7232 6.57955 16.6447 6.37678 16.5659 6.17578C16.5314 6.07903 16.4514 6.01025 16.3374 6.01025C16.0659 6.00125 15.7954 6.00147 15.5156 6.00147ZM6.64453 6.90967C7.17853 6.95317 7.61552 7.21591 7.84277 7.83691C7.98302 8.22166 8.01855 8.59286 8.01855 8.99561C8.01855 9.37211 7.99264 9.70498 7.87939 10.0635C7.63414 10.8247 7.0737 11.1219 6.35595 11.0874C5.8482 11.0612 5.41984 10.8676 5.01709 10.5879C4.97359 10.5616 4.94731 10.5193 4.95556 10.4751V7.50439C4.94731 7.4519 4.97359 7.40906 5.01709 7.38281C5.50684 7.04156 6.04903 6.86617 6.64453 6.90967ZM12.3208 9.27246C12.4706 9.25934 12.6216 9.26216 12.7705 9.27979C13.0683 9.30604 13.3663 9.35787 13.6641 9.40137C13.7256 9.41037 13.7417 9.43676 13.7417 9.48926C13.7327 9.66476 13.7417 9.83085 13.7417 10.0063C13.7417 10.1811 13.7329 10.3391 13.7329 10.5146C13.7419 10.5581 13.7154 10.5924 13.6802 10.6187C13.2774 10.9074 12.8401 11.1008 12.3413 11.1533C12.1403 11.1706 11.9386 11.1705 11.7466 11.0918C11.5276 11.013 11.3628 10.8289 11.3013 10.6099C11.2315 10.3826 11.2317 10.1465 11.2925 9.91846C11.3885 9.62071 11.5979 9.45564 11.8784 9.35889C12.0228 9.31501 12.171 9.28559 12.3208 9.27246ZM21.7808 15.0015C21.0807 15.0112 20.2544 15.168 19.6274 15.6079C19.4339 15.7422 19.4679 15.9286 19.6831 15.9038C20.3881 15.8191 21.9573 15.6288 22.2378 15.9873C22.519 16.3458 21.9268 17.8248 21.665 18.4863C21.584 18.6836 21.7553 18.7652 21.936 18.6152C23.109 17.6327 23.4138 15.5731 23.1738 15.2769C23.0534 15.1287 22.4808 14.9917 21.7808 15.0015ZM0.912594 15.7515C0.749047 15.774 0.678605 15.9813 0.849605 16.1455C3.78736 18.901 7.66924 20.25 11.9795 20.25C15.0537 20.25 18.6227 19.2469 21.0864 17.3569C21.4937 17.0427 21.1468 16.5718 20.729 16.7578C17.9668 17.9766 14.9666 18.564 12.2358 18.564C8.18884 18.564 4.27106 17.7191 1.10156 15.7998C1.03218 15.7578 0.967109 15.744 0.912594 15.7515Z" fill="black"/>
</svg>
