<svg width="24" height="24" viewBox="0 0 24 24" fill="none" xmlns="http://www.w3.org/2000/svg">
<path d="M12.15 3C9.67499 3 6.97499 3.9 6.37499 6.975C6.29999 7.275 6.52499 7.5 6.74999 7.5L9.22499 7.725C9.44999 7.725 9.67499 7.5 9.67499 7.275C9.89999 6.225 10.8 5.7 11.775 5.7C12.3 5.7 12.9 5.925 13.2 6.375C13.575 6.9 13.5 7.65 13.5 8.25V8.625C12 8.775 10.05 8.925 8.62499 9.525C6.97499 10.2 5.84999 11.625 5.84999 13.8C5.84999 16.5 7.57499 17.85 9.74999 17.85C11.625 17.85 12.6 17.4 14.025 15.975C14.475 16.65 14.7 17.025 15.525 17.7C15.75 17.775 15.975 17.775 16.125 17.625C16.65 17.175 17.625 16.35 18.15 15.9C18.375 15.75 18.3 15.45 18.15 15.225C17.7 14.55 17.175 14.025 17.175 12.825V8.775C17.175 7.05 17.325 5.475 16.05 4.275C15.075 3.3 13.425 3 12.15 3ZM12.825 10.725C13.05 10.725 13.275 10.725 13.5 10.725V11.325C13.5 12.3 13.575 13.2 13.05 14.1C12.675 14.85 12 15.3 11.25 15.3C10.275 15.3 9.67499 14.55 9.67499 13.425C9.67499 11.4 11.175 10.875 12.825 10.725ZM20.025 16.8C19.35 16.8 18.6 16.95 18 17.4C17.85 17.55 17.85 17.7 18.075 17.7C18.75 17.625 20.175 17.4 20.475 17.775C20.775 18.15 20.175 19.5 19.95 20.1C19.875 20.25 20.025 20.325 20.175 20.25C21.3 19.35 21.6 17.4 21.375 17.1C21.225 16.875 20.7 16.8 20.025 16.8ZM2.77499 17.1C2.62499 17.1 2.54999 17.325 2.69999 17.4C5.17499 19.65 8.39999 20.925 12 20.925C14.55 20.925 17.55 20.1 19.65 18.6C20.025 18.375 19.725 17.925 19.35 18.075C17.025 19.05 14.55 19.5 12.225 19.5C8.84999 19.5 5.62499 18.6 2.92499 17.025C2.84999 17.175 2.77499 17.1 2.77499 17.1Z" fill="black"/>
</svg>
