<svg width="24" height="24" viewBox="0 0 24 24" fill="none" xmlns="http://www.w3.org/2000/svg">
<path d="M6.91406 5.53125L5.10938 7.6875L4.99219 7.82812L4.96875 8.01562L4.5 10.0547V6.75H3V12L2.25 12.75V17.25L5.53125 16.5234L7.21875 17.2031L7.35938 17.25H7.96875L8.13281 17.1328L10.1484 15.9375L10.3359 15.7969L10.4531 15.5859L11.2031 13.7812L9.79688 13.2188L9.14062 14.7891L7.96875 15.5156C7.39453 15.3809 6 14.9033 6 13.5C6 11.751 7.5 11.25 7.5 11.25H8.67188L9.96094 12.5391L11.0391 11.4609L9.53906 9.96094L9.30469 9.75H7.92188L8.0625 9.53906L9.96094 8.36719L9.16406 7.10156L7.10156 8.36719L6.96094 8.4375L6.11719 9.70312L6.39844 8.48438L8.08594 6.46875L6.91406 5.53125ZM16.0312 6.75L15.8672 6.86719L13.8516 8.0625L13.6641 8.20312L13.5469 8.41406L12.7969 10.2188L14.2031 10.7812L14.8594 9.21094L16.0312 8.48438C16.6055 8.61914 18 9.09668 18 10.5C18 12.249 16.5 12.75 16.5 12.75H15.3281L14.0391 11.4609L12.9609 12.5391L14.4609 14.0391L14.6953 14.25H16.0781L15.9375 14.4609L14.0391 15.6328L14.8359 16.8984L16.8984 15.6328L17.0391 15.5625L17.8828 14.2969L17.6016 15.5156L15.9141 17.5312L17.0859 18.4688L18.8906 16.3125L19.0078 16.1719L19.0312 15.9844L19.5 13.9453V17.25H21V12L21.75 11.25V6.75L18.4688 7.47656L16.7812 6.79688L16.6406 6.75H16.0312Z" fill="black"/>
</svg>
