<svg width="24" height="24" viewBox="0 0 24 24" fill="none" xmlns="http://www.w3.org/2000/svg">
<path d="M12 3C10.3506 3 9 4.35059 9 6C9 7.38867 9.96094 8.54883 11.25 8.88281V10.5H9V12H11.25V17.9766C9.43066 17.833 8.2207 17.168 7.35938 16.4062C6.70312 15.8262 6.26367 15.1875 5.95312 14.6484L7.14844 14.0625L4.14844 12.7031L3.35156 15.9375L4.59375 15.3281C4.94824 15.9639 5.49902 16.7783 6.35156 17.5312C7.44141 18.498 9.0498 19.2979 11.25 19.4531V19.5L12 20.25L12.75 19.5V19.4531C14.9502 19.2979 16.5586 18.498 17.6484 17.5312C18.501 16.7783 19.0518 15.9639 19.4062 15.3281L20.6484 15.9375L19.8516 12.7031L16.8516 14.0625L18.0469 14.6484C17.7363 15.1875 17.2969 15.8262 16.6406 16.4062C15.7793 17.168 14.5693 17.833 12.75 17.9766V12H15V10.5H12.75V8.88281C14.0391 8.54883 15 7.38867 15 6C15 4.35059 13.6494 3 12 3ZM12 4.5C12.8379 4.5 13.5 5.16211 13.5 6C13.5 6.83789 12.8379 7.5 12 7.5C11.1621 7.5 10.5 6.83789 10.5 6C10.5 5.16211 11.1621 4.5 12 4.5Z" fill="black"/>
</svg>
