<svg width="24" height="24" viewBox="0 0 24 24" fill="none" xmlns="http://www.w3.org/2000/svg">
<path d="M7.89844 2.625C7.77246 2.65723 7.67285 2.75391 7.63477 2.87695C7.59668 3.00293 7.62598 3.1377 7.71094 3.23437L8.8125 4.82812C7.56152 5.78906 6.75 7.30664 6.75 9V16.5C6.75 17.0273 7.08105 17.4023 7.5 17.6719V19.875C7.5 20.9004 8.34961 21.75 9.375 21.75C10.4004 21.75 11.25 20.9004 11.25 19.875V18H12.75V19.875C12.75 20.9004 13.5996 21.75 14.625 21.75C15.6504 21.75 16.5 20.9004 16.5 19.875V17.6719C16.9189 17.4023 17.25 17.0273 17.25 16.5V9C17.25 7.30664 16.4385 5.78906 15.1875 4.82812L16.2891 3.23437C16.3799 3.12012 16.3975 2.96191 16.333 2.83301C16.2656 2.70117 16.1309 2.61914 15.9844 2.625C15.9609 2.62207 15.9375 2.62207 15.9141 2.625C15.8145 2.65137 15.7295 2.71875 15.6797 2.8125L14.5547 4.40625C13.7988 3.98437 12.9229 3.75 12 3.75C11.0771 3.75 10.2012 3.98437 9.44531 4.40625L8.32031 2.8125C8.25586 2.70117 8.1416 2.63086 8.01562 2.625C7.99219 2.62207 7.96875 2.62207 7.94531 2.625C7.93066 2.625 7.91309 2.625 7.89844 2.625ZM12 5.25C13.8193 5.25 15.3311 6.53613 15.6797 8.25H8.32031C8.66895 6.53613 10.1807 5.25 12 5.25ZM10.5 6C10.0869 6 9.75 6.33691 9.75 6.75C9.75 7.16309 10.0869 7.5 10.5 7.5C10.9131 7.5 11.25 7.16309 11.25 6.75C11.25 6.33691 10.9131 6 10.5 6ZM13.5 6C13.0869 6 12.75 6.33691 12.75 6.75C12.75 7.16309 13.0869 7.5 13.5 7.5C13.9131 7.5 14.25 7.16309 14.25 6.75C14.25 6.33691 13.9131 6 13.5 6ZM4.5 8.25V15.75H6V8.25H4.5ZM18 8.25V15.75H19.5V8.25H18ZM8.25 9.75H15.75V16.5H15V19.875C15 20.0889 14.8389 20.25 14.625 20.25C14.4111 20.25 14.25 20.0889 14.25 19.875V16.5H9.75V19.875C9.75 20.0889 9.58887 20.25 9.375 20.25C9.16113 20.25 9 20.0889 9 19.875V16.5H8.25V9.75Z" fill="black"/>
</svg>
