<svg width="24" height="24" viewBox="0 0 24 24" fill="none" xmlns="http://www.w3.org/2000/svg">
<path d="M12 3C7.03711 3 3 7.03711 3 12C3 16.9629 7.03711 21 12 21C16.9629 21 21 16.9629 21 12C21 7.03711 16.9629 3 12 3ZM12 4.5C16.1514 4.5 19.5 7.84863 19.5 12C19.5 16.1514 16.1514 19.5 12 19.5C7.84863 19.5 4.5 16.1514 4.5 12C4.5 7.84863 7.84863 4.5 12 4.5ZM8.01562 9C7.69922 9.31934 7.5 9.75586 7.5 10.2422C7.5 11.2119 8.28809 12 9.25781 12C9.74121 12 10.1836 11.8037 10.5 11.4844L8.01562 9ZM15.9844 9L13.5 11.4844C13.8164 11.8037 14.2588 12 14.7422 12C15.7119 12 16.5 11.2119 16.5 10.2422C16.5 9.75879 16.3037 9.31641 15.9844 9ZM13.9219 13.3828C13.8135 13.3857 13.6992 13.3916 13.5938 13.4062C12.7529 13.5322 12.1172 13.9922 11.5547 14.3672C10.9922 14.7422 10.4971 15.0352 10.125 15.0938C9.75293 15.1523 9.41895 15.0938 8.78906 14.4609L7.71094 15.5391C8.56055 16.3945 9.52734 16.7021 10.3594 16.5703C11.1914 16.4385 11.8154 15.9814 12.375 15.6094C12.9346 15.2373 13.415 14.9648 13.8047 14.9062C14.1943 14.8477 14.5781 14.8975 15.2344 15.5391L16.2656 14.4609C15.498 13.7109 14.6807 13.3711 13.9219 13.3828Z" fill="black"/>
</svg>
