<svg width="24" height="24" viewBox="0 0 24 24" fill="none" xmlns="http://www.w3.org/2000/svg">
<path d="M12 1.5C9.9375 1.5 8.25 3.1875 8.25 5.25C8.25 6.71777 9.08496 8.15625 9.86719 9.32812C9.9668 9.48047 10.0723 9.60938 10.1719 9.75H6V12.1172L6.86719 12L11.1797 11.3906L10.5 21.7031L10.4531 22.5H13.5469L13.5 21.7031L12.8203 11.3906L17.1328 12L18 12.1172V9.75H13.8281C13.9277 9.60938 14.0332 9.48047 14.1328 9.32812C14.915 8.15625 15.75 6.71777 15.75 5.25C15.75 3.1875 14.0625 1.5 12 1.5ZM12 3C13.251 3 14.25 3.99902 14.25 5.25C14.25 6.05859 13.585 7.43555 12.8672 8.50781C12.4307 9.16406 12.2754 9.32227 12 9.65625C11.7246 9.32227 11.5693 9.16406 11.1328 8.50781C10.415 7.43555 9.75 6.05859 9.75 5.25C9.75 3.99902 10.749 3 12 3Z" fill="black"/>
</svg>
