<svg width="24" height="24" viewBox="0 0 24 24" fill="none" xmlns="http://www.w3.org/2000/svg">
<path d="M3.75 3.75V20.25H20.25V3.75H3.75ZM5.25 5.25H18.75V18.75H5.25V5.25ZM11.9941 6.75732C11.9326 6.74232 11.8797 6.75001 11.8257 6.78076C11.7102 6.84226 11.6472 6.98167 11.7012 7.09717C12.0642 7.94617 13.3373 10.8721 14.4023 12.8408L15.3911 12.3076C14.3809 10.3464 12.6276 7.62265 12.1333 6.8584C12.1026 6.8044 12.0481 6.77307 11.9941 6.75732ZM11.436 8.44775C11.1735 8.417 10.9185 8.52491 10.7798 8.76416L11.915 9.43506C12.0928 9.11931 11.9838 8.70332 11.6748 8.51807C11.5976 8.47982 11.5133 8.4635 11.436 8.44775ZM10.686 8.92676L10.0767 9.96973L11.2354 10.6172L11.8213 9.60645L10.686 8.92676ZM10.0078 10.084L7.59961 14.2837L8.73486 14.9399L11.1431 10.7637L10.0078 10.084ZM6.75 11.25V12.75H8.19727L9.07471 11.25H6.75ZM11.1299 11.25L10.2671 12.75H14.0771C13.8671 12.3375 13.5446 11.6925 13.3271 11.25H11.1299ZM15.0981 11.25C15.2856 11.595 15.5329 12.0668 15.6079 12.2168C15.6229 12.2318 15.6676 12.323 15.6826 12.353L15.8481 12.75H17.25V11.25H15.0981ZM15.4688 12.4541L14.4814 12.9873L15.2227 14.1445L15.9932 13.7051L15.4688 12.4541ZM16.0708 13.8984L15.3457 14.2852L16.1162 16.1221C16.255 16.4461 16.6261 16.6007 16.9351 16.4312C17.2441 16.2684 17.3446 15.8587 17.1519 15.5654L16.0708 13.8984ZM7.49854 14.4302L7.08984 16.3843L7.19092 16.4297L8.65723 15.1025L7.49854 14.4302Z" fill="black"/>
</svg>
