<svg width="24" height="24" viewBox="0 0 24 24" fill="none" xmlns="http://www.w3.org/2000/svg">
<path d="M2.33203 9.01465C1.31203 9.01465 0.878086 9.12703 0.600586 9.45703C0.443086 9.65203 0.397324 9.84756 0.382324 10.3726H1.82959C1.85959 9.98256 1.97191 9.89209 2.39941 9.89209C2.88691 9.89209 3.06738 10.0432 3.06738 10.4707V11.3247H3.03809C2.87309 10.8822 2.61814 10.7769 1.78564 10.7769C0.668145 10.7769 0.202148 11.1751 0.202148 12.1201C0.202148 13.1401 0.607559 13.5 1.74756 13.5C2.56506 13.5 2.87971 13.3423 3.07471 12.7573H3.11279L3.06738 13.4707H4.5V10.6128C4.5 10.3053 4.42559 9.8857 4.35059 9.7207C4.09559 9.2032 3.56953 9.01465 2.33203 9.01465ZM8.0918 9.01465C7.2818 9.01465 7.02762 9.15791 6.68262 9.79541H6.65186L6.71191 9.02197H5.27197V15.3604H6.75732V12.728H6.78809C6.96059 13.313 7.29018 13.5 8.05518 13.5C8.68518 13.5 9.04529 13.4171 9.30029 13.1396C9.63779 12.7721 9.75 12.2856 9.75 11.1606C9.75 10.1181 9.63703 9.67553 9.26953 9.35303C9.01453 9.12803 8.6318 9.01465 8.0918 9.01465ZM13.3198 9.01465C12.5098 9.01465 12.2556 9.15791 11.9106 9.79541H11.8799L11.9399 9.02197H10.5V15.3604H11.978V12.728H12.0073C12.1873 13.313 12.5182 13.5 13.2832 13.5C13.9132 13.5 14.2719 13.4171 14.5269 13.1396C14.8719 12.7721 14.9854 12.2856 14.9854 11.1606C14.9854 10.1181 14.8724 9.67553 14.5049 9.35303C14.2499 9.12803 13.8598 9.01465 13.3198 9.01465ZM17.6543 9.01465C16.7993 9.01465 16.2968 9.13488 15.9668 9.44238C15.6293 9.74238 15.5024 10.2081 15.5024 11.1606C15.5024 12.2631 15.6077 12.7424 15.9302 13.0649C16.2677 13.4024 16.7921 13.5 17.8271 13.5C18.7496 13.5 19.2154 13.3797 19.4854 13.0122C19.6504 12.7947 19.7402 12.4569 19.7402 12.0894V12H18.3369C18.3369 12.4125 18.1881 12.5244 17.6631 12.5244C17.0781 12.5244 16.9131 12.3372 16.9131 11.6997C16.9131 11.6697 16.9129 11.5945 16.9204 11.5195H19.7476V11.1079C19.7476 9.49541 19.2593 9.01465 17.6543 9.01465ZM22.7622 9.01465C22.1847 9.01465 21.8995 9.20947 21.6445 9.77197H21.6226L21.6899 9.02197H20.25V13.4707H21.6826V10.9204C21.6826 10.6204 21.6832 10.5671 21.7207 10.4546C21.8107 10.2296 21.9744 10.1104 22.2144 10.1104C22.5219 10.1104 22.5981 10.2594 22.5981 10.8369C22.5981 10.8594 22.5969 10.9203 22.5894 10.9878H23.9019C23.8944 10.8228 23.8945 10.6948 23.8945 10.6348C23.8945 9.89977 23.8346 9.63785 23.6396 9.36035C23.4746 9.13535 23.1672 9.01465 22.7622 9.01465ZM17.625 10.0356C18.2325 10.0356 18.3604 10.117 18.3604 10.582C18.3604 10.597 18.3602 10.6581 18.3677 10.7256H16.9351L16.9424 10.5981C16.9799 10.1481 17.085 10.0356 17.625 10.0356ZM7.5293 10.0796C8.1818 10.0796 8.31006 10.2677 8.31006 11.3027C8.31006 12.2027 8.16773 12.4131 7.55273 12.4131C6.88523 12.4131 6.75732 12.2106 6.75732 11.1606C6.75732 10.2681 6.8993 10.0796 7.5293 10.0796ZM12.7646 10.0796C13.4171 10.0796 13.5381 10.2677 13.5381 11.3027C13.5381 12.2027 13.3943 12.4131 12.7793 12.4131C12.1118 12.4131 11.9854 12.2106 11.9854 11.1606C11.9854 10.2681 12.1271 10.0796 12.7646 10.0796ZM2.32471 11.647C2.89471 11.647 3.06006 11.737 3.06006 12.082C3.06006 12.472 2.91785 12.5845 2.42285 12.5845C1.79285 12.5845 1.64941 12.4881 1.64941 12.0981C1.64941 11.7606 1.82971 11.647 2.32471 11.647Z" fill="black"/>
</svg>
