<svg width="24" height="24" viewBox="0 0 24 24" fill="none" xmlns="http://www.w3.org/2000/svg">
<path d="M7.78125 2.97653C7.56152 2.97946 7.42969 2.99997 7.42969 2.99997L6.65625 3.07028L6.75 3.84372C6.75 3.84372 6.93457 5.55758 8.15625 6.82028C5.67773 7.20407 3.75 9.24899 3.75 11.7422C3.75 14.4316 4.94824 16.5644 6.35156 18C7.05176 18.7177 7.7959 19.2597 8.50781 19.6406C9.21973 20.0215 9.87305 20.25 10.5 20.25C10.9102 20.25 11.3086 20.1797 11.6719 20.0625C11.8916 19.9922 12.1084 19.9922 12.3281 20.0625C12.6914 20.1797 13.0898 20.25 13.5 20.25C14.1797 20.25 14.833 19.9629 15.5391 19.5234C16.2451 19.084 16.9805 18.4746 17.6719 17.7187C19.0547 16.2099 20.25 14.1152 20.25 11.7422C20.25 8.9736 17.8682 6.74997 15 6.74997C14.2295 6.74997 13.5176 6.93747 12.8672 7.24215C12.8643 7.22165 12.8496 7.18649 12.8438 7.1484C13.2275 5.14743 14.625 4.40622 14.625 4.40622L13.875 3.09372C13.875 3.09372 12.8174 3.72946 12.0469 5.0859C11.8037 4.71383 11.4814 4.34762 11.0859 4.03122C9.89648 3.082 8.4375 2.97067 7.78125 2.97653ZM8.50781 4.57028C9.02637 4.64938 9.66797 4.8193 10.1484 5.20309C10.6377 5.59274 10.9658 6.16403 11.1562 6.65622C10.6348 6.58004 9.98145 6.38961 9.49219 5.99997C9.00879 5.61325 8.69824 5.05954 8.50781 4.57028ZM9 8.24997C9.97559 8.24997 10.8428 8.60446 11.5078 9.16403L12 9.56247L12.4922 9.16403C13.1572 8.60446 14.0244 8.24997 15 8.24997C17.1035 8.24997 18.75 9.83493 18.75 11.7422C18.75 13.6025 17.7744 15.3984 16.5703 16.7109C15.9697 17.3672 15.3164 17.8798 14.7422 18.2343C14.168 18.5888 13.6465 18.75 13.5 18.75C13.2539 18.75 13.0225 18.706 12.7969 18.6328C12.2812 18.4658 11.7188 18.4658 11.2031 18.6328C10.9775 18.706 10.7461 18.75 10.5 18.75C10.2979 18.75 9.7793 18.6328 9.21094 18.3281C8.64258 18.0234 7.99805 17.5517 7.40625 16.9453C6.22266 15.7324 5.25 13.9922 5.25 11.7422C5.25 9.83493 6.89648 8.24997 9 8.24997Z" fill="black"/>
</svg>
