<svg width="24" height="24" viewBox="0 0 24 24" fill="none" xmlns="http://www.w3.org/2000/svg">
<path d="M6.62109 6.75C6.18234 6.75 5.67354 7.00131 5.35254 7.37256C5.10054 7.67931 4.82948 8.1589 4.92773 8.63965C5.37998 8.6944 5.86966 8.41542 6.14941 8.04492C6.47116 7.70142 6.64884 7.23075 6.62109 6.75ZM3.59912 8.74512C2.41037 8.74512 1.5 9.77801 1.5 11.2705C1.5 13.2205 2.86884 15 3.71484 15C4.23234 15 4.42409 14.6616 5.10059 14.6616C5.72984 14.6616 5.92643 15 6.47168 15C7.48493 15 8.32472 12.9339 8.35547 12.8042C8.18897 12.7307 7.21289 12.262 7.21289 11.1475C7.21289 10.072 8.1041 9.58721 8.1416 9.56396C7.6571 8.83196 6.87333 8.74512 6.58008 8.74512C5.89983 8.74512 5.29782 9.11572 4.97607 9.11572C4.64007 9.11572 4.14962 8.74512 3.59912 8.74512ZM9.75 9V15H11.25V12.75H11.625C12.3607 12.75 12.8805 12.2495 13.1865 11.625H13.5V10.875C13.5 9.8482 12.6518 9 11.625 9H9.75ZM15.167 9L13.5 14.1313V15H15V14.3687L15.0381 14.25H16.4619L16.5 14.3687V15H18V14.1313L16.333 9H15.167ZM18 9V9.97266L19.5 12.2798V15H21V12.2798L22.5 9.97266V9H21V9.52734L20.25 10.6816L19.5 9.52734V9H18ZM11.25 10.5H11.625C11.8402 10.5 12 10.6598 12 10.875C12 11.0902 11.8402 11.25 11.625 11.25H11.25V10.5ZM15.75 12.0601L15.9741 12.75H15.5259L15.75 12.0601Z" fill="black"/>
</svg>
