<svg width="24" height="24" viewBox="0 0 24 24" fill="none" xmlns="http://www.w3.org/2000/svg">
<path d="M12 1.18945L7.71973 5.46973L8.78027 6.53027L11.25 4.06055V11.25H4.06055L6.53027 8.78027L5.46973 7.71973L1.18945 12L5.46973 16.2803L6.53027 15.2197L4.06055 12.75H11.25V19.9395L8.78027 17.4697L7.71973 18.5303L12 22.8105L16.2803 18.5303L15.2197 17.4697L12.75 19.9395V12.75H19.9395L17.4697 15.2197L18.5303 16.2803L22.8105 12L18.5303 7.71973L17.4697 8.78027L19.9395 11.25H12.75V4.06055L15.2197 6.53027L16.2803 5.46973L12 1.18945Z" fill="black"/>
</svg>
