<svg width="24" height="24" viewBox="0 0 24 24" fill="none" xmlns="http://www.w3.org/2000/svg">
<path d="M13.5674 4.56295C9.48971 4.49274 4.99842 5.51767 1.5 7.49996C3.5115 6.71621 5.53754 6.14959 7.70654 5.67184C10.4575 5.06584 13.2834 4.74506 15.7734 5.13131C21.3332 5.99906 22.95 9.78174 19.377 13.582C19.005 13.9757 18.496 14.4088 18.022 14.7553L12.6387 6.82613L5.7334 16.8794L5.66455 16.853C2.4553 15.7452 2.40857 13.8608 4.48682 11.4961C5.24507 10.6861 6.26899 10.0071 7.38574 9.37789C8.12974 8.95864 8.92089 8.55279 9.73389 8.25729C7.36014 8.99754 5.17264 10.186 3.75439 11.6455C2.74414 12.688 2.26125 13.7277 2.25 14.6689C2.232 15.9492 3.62733 16.9131 5.26758 17.5664L3.95654 19.5H7.65967L7.6626 19.4941L7.67285 19.5L8.54883 18.1699C9.33408 18.1999 10.1871 18.1655 11.0054 18.0703L10.1323 19.5H15.0615L13.8574 17.4946C14.5122 17.3078 15.1751 17.0823 15.7983 16.831L17.1899 18.9433L17.5342 19.5H21.2373L18.4922 15.4497C19.1664 15.0087 19.8434 14.4687 20.3496 13.9467C21.7641 12.488 22.4674 11.0289 22.4824 9.71188C22.5117 7.32313 20.3176 5.40129 16.3066 4.78854C15.4269 4.65396 14.5084 4.57915 13.5674 4.56295ZM12.6064 12.0161L13.1338 12.7837L15.3926 16.2129C14.7866 16.4694 14.1538 16.697 13.5103 16.8823L12.5991 15.4013L11.4434 17.3452C10.6251 17.4674 9.80511 17.4826 9.01611 17.4609L12.6064 12.0161Z" fill="black"/>
</svg>
