<svg width="24" height="24" viewBox="0 0 24 24" fill="none" xmlns="http://www.w3.org/2000/svg">
<path d="M12.1406 3.00003C6.61816 2.918 2.18554 7.86331 3.11718 13.5235C3.74999 17.3643 6.90234 20.3848 10.7578 20.9063C13.3564 21.2578 15.7852 20.5078 17.625 19.0313L16.6875 17.8594C15.1523 19.0899 13.1338 19.7256 10.9453 19.4297C7.75488 18.9991 5.13867 16.4649 4.61718 13.2891C3.83203 8.51077 7.49414 4.43265 12.1172 4.50003C16.0576 4.55862 19.3799 7.82523 19.5 11.7657C19.5029 11.8506 19.5 11.9326 19.5 12.0235C19.4941 13.6758 18.1553 15 16.5 15C15.6621 15 15 14.3379 15 13.5V7.50003H13.5V8.08597C12.9609 7.71976 12.3193 7.50003 11.625 7.50003C9.7705 7.50003 8.24999 9.02054 8.24999 10.875V13.125C8.24999 14.9795 9.7705 16.5 11.625 16.5C12.6357 16.5 13.5352 16.0401 14.1562 15.3282C14.707 16.0283 15.5478 16.5 16.5 16.5C18.9639 16.5 20.9912 14.4903 21 12.0235C21 11.9239 21.0029 11.8272 21 11.7188C20.8564 6.96683 16.8926 3.07034 12.1406 3.00003ZM11.625 9.00003C12.668 9.00003 13.5 9.83206 13.5 10.875V13.125C13.5 14.168 12.668 15 11.625 15C10.582 15 9.75 14.168 9.75 13.125V10.875C9.75 9.83206 10.582 9.00003 11.625 9.00003Z" fill="black"/>
</svg>
