<svg width="24" height="24" viewBox="0 0 24 24" fill="none" xmlns="http://www.w3.org/2000/svg">
<path d="M6.75 3C5.51625 3 4.5 4.01625 4.5 5.25V18.75C4.5 19.9837 5.51625 21 6.75 21H19.5V3H6.75ZM6.75 4.5H18V16.5H6.75C6.486 16.5 6.237 16.5551 6 16.6406V5.25C6 4.8255 6.3255 4.5 6.75 4.5ZM12 6C9.52425 6 7.5 8.02425 7.5 10.5C7.5 12.9757 9.52425 15 12 15C14.4757 15 16.5 12.9757 16.5 10.5C16.5 8.02425 14.4757 6 12 6ZM12.5156 7.57031C12.8786 7.63181 13.2189 7.74263 13.5234 7.92188L13.5718 8.46094L13.2202 8.32031L12.939 8.55469L12.9858 9.23438L13.7124 9.02344L14.603 9.30469L14.3687 9.70312L13.8281 9.375L13.2422 9.46875L12.6797 9.89062L12.3516 10.875L12.9844 11.3906C12.9844 11.3906 13.6537 11.2734 13.689 11.2734C13.7242 11.2734 13.9702 11.8843 13.9702 11.8843L13.5952 13.0327C13.1347 13.3192 12.5887 13.5 12 13.5C11.8245 13.5 11.6516 13.4589 11.4844 13.4297L11.3423 13.1953L11.6953 11.8828L10.3594 10.875H9.11719L9.02344 10.6875C9.01969 10.623 9 10.5645 9 10.5C9 10.3387 9.02287 10.1835 9.04688 10.0312L9.67969 9.53906L11.0156 8.90625L10.8047 8.03906L11.3906 7.92188L11.6484 8.29688L12.6577 8.10938L12.5156 7.57031ZM9.79688 12.5391H10.0327L10.478 13.0781C10.2223 12.9281 9.99563 12.7528 9.79688 12.5391ZM6.75 18H18V19.5H6.75C6.3255 19.5 6 19.1745 6 18.75C6 18.3255 6.3255 18 6.75 18Z" fill="black"/>
</svg>
