<svg width="24" height="24" viewBox="0 0 24 24" fill="none" xmlns="http://www.w3.org/2000/svg">
<path d="M11.9487 3C11.7882 3 11.6231 3.08946 11.5151 3.27246C7.59489 9.73371 11.2363 15.018 13.6333 19.9702C13.7166 20.136 13.8838 20.25 14.0713 20.25H19.7637C20.1259 20.25 20.3631 19.8544 20.1958 19.5161C20.1958 19.5161 12.5398 3.66039 12.3516 3.26514C12.2646 3.08964 12.1085 3 11.9487 3ZM11.9121 5.80811C13.5021 9.10361 16.7339 15.798 18.1597 18.75H14.7056C14.4881 18.3142 14.2641 17.8763 14.0376 17.436C12.0891 13.641 10.2359 10.0321 11.9121 5.80811ZM7.73731 10.5C7.56706 10.5 7.40554 10.5943 7.31104 10.7915L3.05274 19.5029C2.88699 19.8509 3.14005 20.25 3.5083 20.25H9.43213H9.44971C9.63721 20.25 9.80312 20.1332 9.88037 19.9614C11.1651 17.2599 10.3929 13.1533 8.14893 10.6963C8.02968 10.5673 7.88056 10.5 7.73731 10.5ZM7.92774 12.9448C8.93124 14.7253 9.27619 17.0212 8.74219 18.75H5.09033L7.92774 12.9448Z" fill="black"/>
</svg>
