<svg width="24" height="24" viewBox="0 0 24 24" fill="none" xmlns="http://www.w3.org/2000/svg">
<path d="M12 6C8.19141 6 4.90137 8.18848 3.29883 11.3701C5.00098 9.0293 7.75781 7.5 10.875 7.5C14.2793 7.5 17.2529 9.32227 18.8936 12.0381L20.6104 11.1797C18.9727 8.10059 15.7324 6 12 6ZM12 9C9.2168 9 6.83203 10.6846 5.79785 13.0869C6.95508 11.5195 8.80664 10.5 10.8984 10.5C13.1191 10.5 15.0703 11.6484 16.207 13.3828L17.9297 12.5186C16.7842 10.4209 14.5576 9 12 9ZM0.75 11.5342V13.2129C4.66699 15.1699 11.6631 18.6709 11.6631 18.6709L12 18.8379L23.25 13.2129V11.5371L12 17.1621C5.76855 14.0449 2.48438 12.4043 0.75 11.5342ZM11.9766 12C10.3301 12 8.9502 13.0752 8.45215 14.5605C9.06445 13.9102 9.92578 13.5 10.8867 13.5C11.9355 13.5 12.8613 13.9893 13.4766 14.7451L15.1992 13.8838C14.5547 12.7646 13.3623 12 11.9766 12Z" fill="black"/>
</svg>
