<svg width="24" height="24" viewBox="0 0 24 24" fill="none" xmlns="http://www.w3.org/2000/svg">
<path d="M7.95995 3.00146C6.22145 3.00146 4.6107 4.34692 4.29345 6.06592L2.30419 16.9131C2.14144 17.7928 2.34301 18.6281 2.87401 19.2656C3.40201 19.9001 4.18182 20.25 5.06982 20.25H16.0386C17.7771 20.25 19.3864 18.9038 19.7036 17.1841L21.6973 6.33838C21.857 5.45563 21.6519 4.61895 21.1201 3.98145C20.5921 3.3492 19.813 3.00146 18.9272 3.00146H7.95995ZM7.95995 4.5H18.9272C19.3607 4.5 19.731 4.65735 19.9702 4.94385C20.2125 5.23335 20.3024 5.6331 20.2236 6.06885L18.23 16.9131C18.0462 17.9091 17.0421 18.75 16.0386 18.75H5.06982C4.63557 18.75 4.26531 18.5919 4.02831 18.3062C3.78756 18.0174 3.69904 17.6191 3.77929 17.1841L5.76855 6.33691C5.95305 5.34091 6.9557 4.5 7.95995 4.5ZM8.562 5.98096L8.24706 6.14941L7.58202 7.17188L10.0151 10.7021L10.7402 11.7495C10.3157 12.1845 9.90932 12.6131 9.58007 12.9844L7.52782 11.8843L6.97265 12.4277L8.82714 14.1299L10.2627 16.2876L10.8955 15.8379L10.1147 13.5674C10.5572 13.2989 11.0701 12.9634 11.5898 12.6094L15.6724 16.5L16.8032 16.0225L17.0259 15.7441L13.6699 11.5195L13.5102 11.2617C14.2107 10.76 14.696 10.4022 14.7598 10.3564C15.0395 10.1232 14.9833 9.62027 14.6645 9.24902C14.339 8.86652 13.8499 8.74045 13.5776 8.9707C13.5776 8.9707 13.0686 9.45096 12.3823 10.1162L12.2095 9.95654L8.562 5.98096Z" fill="black"/>
</svg>
