<svg width="24" height="24" viewBox="0 0 24 24" fill="none" xmlns="http://www.w3.org/2000/svg">
<path d="M2.33203 8.25L0 13.1777H0.637207L1.35059 11.6104H3.30762L4.01221 13.1777H4.66553L2.33203 8.25ZM13.125 8.25L10.7856 13.1704H11.4375L12.1494 11.603H13.0547L12.9902 13.0503C12.9902 13.0503 12.1431 13.2974 12.0381 13.9424C12.0306 13.9574 12.0293 13.9728 12.0293 13.9878L9.60059 13.9131L12.0293 14.2207C12.0293 14.3032 12.0377 14.377 12.0527 14.4595C12.0602 14.557 12.0756 14.6405 12.0981 14.7305L3 14.25L6.32227 14.5957V14.8345C6.10477 14.8645 5.93262 15.0605 5.93262 15.293C5.93262 15.548 6.14197 15.7573 6.39697 15.7573C6.65197 15.7573 6.86279 15.548 6.86279 15.293C6.86279 15.0605 6.68936 14.8645 6.46436 14.8345V14.6177L9.48047 14.9546V15.1582C9.27047 15.1957 9.10547 15.3902 9.10547 15.6152C9.10547 15.8702 9.31482 15.9976 9.56982 15.9976C9.82482 15.9976 10.0356 15.8702 10.0356 15.6152C10.0356 15.3902 9.87797 15.1957 9.66797 15.1582V14.9707L10.7329 15.0894V15.9829H10.5073V16.5H10.7329V16.2598H10.9204V16.5H11.1372V15.9902H10.9204V15.1128L12.3604 15.2769C12.6604 15.7044 13.0649 15.7881 13.0649 15.7881V16.0356L12.8774 16.043L12.8701 16.5H13.0195L13.0269 16.3125H13.2231L13.2305 16.5H13.3799L13.3726 16.043L13.1851 16.0356L13.1777 15.7881C13.1777 15.7881 13.5896 15.7044 13.8896 15.2769L15.3296 15.1128V15.9902H15.1055V16.5H15.3296V16.2598H15.5171V16.5H15.7427V15.9902H15.5171V15.0981L16.582 14.978V15.1655C16.372 15.203 16.2144 15.3977 16.2144 15.6152C16.2144 15.8702 16.4177 15.9976 16.6802 15.9976C16.9352 15.9976 17.1372 15.8702 17.1372 15.6152C17.1372 15.3902 16.9795 15.203 16.7695 15.1655V14.9546L19.7769 14.6177V14.8345C19.5594 14.872 19.3872 15.0603 19.3872 15.3003C19.3872 15.5478 19.598 15.7646 19.853 15.7646C20.108 15.7646 20.3174 15.5478 20.3174 15.3003C20.3099 15.0603 20.1379 14.8645 19.9204 14.8345V14.5957L23.25 14.25L14.1372 14.7231C14.1672 14.6406 14.1823 14.557 14.1973 14.4595C14.2048 14.377 14.2119 14.3019 14.2119 14.2119L16.6421 13.9043L14.2119 13.9805V13.9424C14.0994 13.2899 13.2524 13.0503 13.2524 13.0503L13.1909 11.603H14.1006L14.8125 13.1704H15.457L13.125 8.25ZM21.375 8.35547C21.03 8.35547 20.7082 8.41547 20.4082 8.54297C20.1082 8.67797 19.8451 8.76768 19.6201 8.99268C19.3951 9.21768 19.2071 9.48059 19.0796 9.78809C18.9521 10.0806 18.8921 10.4099 18.8921 10.7549C18.8921 11.0999 18.9521 11.4156 19.0796 11.7231C19.2071 12.0231 19.3951 12.2849 19.6201 12.5024C19.8451 12.7349 20.1082 12.9155 20.4082 13.043C20.7082 13.1705 21.03 13.2378 21.375 13.2378C21.72 13.2378 22.0418 13.1705 22.3418 13.043C22.6418 12.9155 22.9047 12.7349 23.1372 12.5024C23.3622 12.2849 23.5356 12.0156 23.6631 11.7231C23.7906 11.4156 23.8579 11.0999 23.8579 10.7549C23.8579 10.4099 23.7906 10.0806 23.6631 9.78809C23.5356 9.48059 23.3622 9.21768 23.1372 8.99268C22.9047 8.76018 22.6418 8.67797 22.3418 8.54297C22.0418 8.41547 21.72 8.35547 21.375 8.35547ZM4.41797 8.4082L6.75732 13.3345L9.08203 8.4082H8.44482L6.75732 12.0073L5.0625 8.4082H4.41797ZM9.83643 8.40967V13.1777H10.4136V8.40967H9.83643ZM15.0117 8.40967V8.8418H16.563V13.1777H17.2031V8.8418H18.7383V8.40967H15.0117ZM21.375 8.81982C21.63 8.81982 21.8854 8.8657 22.1104 8.9707C22.3504 9.0757 22.5531 9.2025 22.7256 9.375C22.8981 9.555 23.0324 9.75791 23.1299 9.98291C23.2274 10.2229 23.272 10.4774 23.272 10.7549C23.272 11.0174 23.2274 11.2722 23.1299 11.5122C23.0324 11.7447 22.8981 11.9551 22.7256 12.1201C22.5531 12.3001 22.3504 12.4357 22.1104 12.5332C21.8854 12.6382 21.63 12.6826 21.375 12.6826C21.1125 12.6826 20.8648 12.6382 20.6323 12.5332C20.3998 12.4357 20.1894 12.3001 20.0244 12.1201C19.8519 11.9551 19.7101 11.7447 19.6201 11.5122C19.5226 11.2722 19.4707 11.0249 19.4707 10.7549C19.4707 10.4849 19.5226 10.2229 19.6201 9.98291C19.7101 9.75791 19.8519 9.555 20.0244 9.375C20.2044 9.21 20.3998 9.0757 20.6323 8.9707C20.8648 8.8657 21.1125 8.81982 21.375 8.81982ZM2.33203 9.49512L3.06738 11.0918H1.59814L2.33203 9.49512ZM13.125 9.49512L13.853 11.0918H13.1689L13.125 10.0356L13.0781 11.0918H12.3896L13.125 9.49512Z" fill="black"/>
</svg>
