<svg width="24" height="24" viewBox="0 0 24 24" fill="none" xmlns="http://www.w3.org/2000/svg">
<path d="M13.5 3V9.75H7.26562C7.09277 9.34277 6.81738 8.79785 6.35156 8.17969C5.56055 7.12793 4.2041 6 2.25 6V7.5C3.6416 7.5 4.53516 8.24707 5.15625 9.07031C5.74805 9.85547 5.97656 10.5938 6 10.6641C6.06152 13.207 7.56152 15.4043 9.70312 16.5C8.49023 16.5264 7.5 17.5312 7.5 18.75C7.5 19.9834 8.5166 21 9.75 21C10.9834 21 12 19.9834 12 18.75C12 18.085 11.7129 17.4756 11.25 17.0625C11.7334 17.1738 12.2344 17.25 12.75 17.25H15C15.5156 17.25 16.0166 17.1738 16.5 17.0625C16.0371 17.4756 15.75 18.085 15.75 18.75C15.75 19.9834 16.7666 21 18 21C19.2334 21 20.25 19.9834 20.25 18.75C20.25 17.5312 19.2598 16.5264 18.0469 16.5C20.0215 15.4893 21.4424 13.541 21.7031 11.25C21.7266 11.0332 21.7471 10.8164 21.75 10.5938C21.75 10.5791 21.75 10.5615 21.75 10.5469C21.75 10.5469 21.7559 10.4238 21.75 10.2188V9.75H21.7031C21.6475 9.03223 21.498 7.94531 20.9531 6.79688C20.0596 4.91602 18.0352 3 14.25 3H13.5ZM15 4.59375C17.71 4.81641 18.9697 6.09082 19.6172 7.45312C20.0596 8.3877 20.1592 9.17285 20.2031 9.75H15V4.59375ZM7.66406 11.25H20.0859C19.7051 13.7725 17.625 15.75 15 15.75H12.75C10.125 15.75 8.04492 13.7725 7.66406 11.25ZM9.75 18C10.1719 18 10.5 18.3281 10.5 18.75C10.5 19.1719 10.1719 19.5 9.75 19.5C9.32812 19.5 9 19.1719 9 18.75C9 18.3281 9.32812 18 9.75 18ZM18 18C18.4219 18 18.75 18.3281 18.75 18.75C18.75 19.1719 18.4219 19.5 18 19.5C17.5781 19.5 17.25 19.1719 17.25 18.75C17.25 18.3281 17.5781 18 18 18Z" fill="black"/>
</svg>
