<svg width="24" height="24" viewBox="0 0 24 24" fill="none" xmlns="http://www.w3.org/2000/svg">
<path d="M7.82812 3.75C5.71289 3.75 4.00781 5.4375 4.00781 5.4375L3.75 5.67188V11.25H4.82812L5.03906 11.0859C5.17676 10.9775 5.61328 10.6289 6.16406 10.3125C6.71484 9.99609 7.36816 9.75 7.82812 9.75C8.45801 9.75 8.98828 9.91113 9.63281 10.1016C10.2773 10.292 11.0361 10.5 12 10.5C12.9639 10.5 13.6934 10.2891 14.3203 10.1016C14.9473 9.91406 15.4746 9.75 16.1719 9.75C16.7256 9.75 17.3906 10.0137 17.9297 10.3359C18.4688 10.6582 18.8379 10.9775 18.9375 11.0625L19.1484 11.25H20.25V5.67188L19.9922 5.4375C19.9922 5.4375 18.2871 3.75 16.1719 3.75C15.2256 3.75 14.499 3.96094 13.875 4.14844C13.251 4.33594 12.7207 4.5 12 4.5C11.2793 4.5 10.749 4.33594 10.125 4.14844C9.50098 3.96094 8.77441 3.75 7.82812 3.75ZM7.82812 5.25C8.54883 5.25 9.0791 5.41406 9.70312 5.60156C10.3271 5.78906 11.0537 6 12 6C12.9463 6 13.6729 5.78906 14.2969 5.60156C14.9209 5.41406 15.4512 5.25 16.1719 5.25C17.2207 5.25 18.4014 6.1084 18.75 6.375V6.86719C18.7061 6.84082 18.6797 6.82324 18.6328 6.79688C17.9736 6.4043 17.1006 6 16.1719 6C15.3018 6 14.6396 6.21094 14.0156 6.39844C13.3916 6.58594 12.7969 6.75 12 6.75C11.2031 6.75 10.5762 6.58594 9.9375 6.39844C9.29883 6.21094 8.64551 6 7.82812 6C6.94922 6 6.08789 6.40723 5.41406 6.79688C5.34375 6.83789 5.31445 6.87305 5.25 6.91406V6.375C5.59863 6.1084 6.7793 5.25 7.82812 5.25ZM7.82812 6.75C8.51953 6.75 9.08496 6.91406 9.72656 7.10156C10.3682 7.28906 11.0918 7.5 12 7.5C12.9082 7.5 13.5996 7.28906 14.2266 7.10156C14.8535 6.91406 15.416 6.75 16.1719 6.75C16.8691 6.75 17.6572 7.0957 18.2578 7.45312C18.46 7.57324 18.6035 7.67578 18.75 7.78125V9.07031C18.7266 9.05566 18.7266 9.06152 18.7031 9.04688C18.0381 8.65137 17.168 8.25 16.1719 8.25C15.2432 8.25 14.5225 8.46094 13.8984 8.64844C13.2744 8.83594 12.7441 9 12 9C11.2559 9 10.6904 8.83301 10.0547 8.64844C9.41895 8.46387 8.70703 8.25 7.82812 8.25C6.90234 8.25 6.0791 8.64258 5.41406 9.02344C5.3291 9.07324 5.3291 9.09082 5.25 9.14062V7.80469C5.41406 7.69629 5.56641 7.58203 5.78906 7.45312C6.40723 7.09277 7.19824 6.75 7.82812 6.75ZM7.82812 12.75C5.71289 12.75 4.00781 14.4375 4.00781 14.4375L3.75 14.6719V20.25H4.82812L5.03906 20.0859C5.17676 19.9775 5.61328 19.6289 6.16406 19.3125C6.71484 18.9961 7.36816 18.75 7.82812 18.75C8.45801 18.75 8.98828 18.9111 9.63281 19.1016C10.2773 19.292 11.0361 19.5 12 19.5C12.9639 19.5 13.6934 19.2891 14.3203 19.1016C14.9473 18.9141 15.4746 18.75 16.1719 18.75C16.7256 18.75 17.3906 19.0137 17.9297 19.3359C18.4688 19.6582 18.8379 19.9775 18.9375 20.0625L19.1484 20.25H20.25V14.6719L19.9922 14.4375C19.9922 14.4375 18.2871 12.75 16.1719 12.75C15.2256 12.75 14.499 12.9609 13.875 13.1484C13.251 13.3359 12.7207 13.5 12 13.5C11.2793 13.5 10.749 13.3359 10.125 13.1484C9.50098 12.9609 8.77441 12.75 7.82812 12.75ZM7.82812 14.25C8.54883 14.25 9.0791 14.4141 9.70312 14.6016C10.3271 14.7891 11.0537 15 12 15C12.9463 15 13.6729 14.7891 14.2969 14.6016C14.9209 14.4141 15.4512 14.25 16.1719 14.25C17.2207 14.25 18.4014 15.1084 18.75 15.375V16.6172C18.7061 16.5908 18.6797 16.5732 18.6328 16.5469C17.9736 16.1543 17.1006 15.75 16.1719 15.75C15.3018 15.75 14.6396 15.9609 14.0156 16.1484C13.3916 16.3359 12.7969 16.5 12 16.5C11.2031 16.5 10.5762 16.3359 9.9375 16.1484C9.29883 15.9609 8.64551 15.75 7.82812 15.75C6.94922 15.75 6.08789 16.1572 5.41406 16.5469C5.34375 16.5879 5.31445 16.623 5.25 16.6641V15.375C5.59863 15.1084 6.7793 14.25 7.82812 14.25ZM7.82812 16.5C8.51953 16.5 9.08496 16.6641 9.72656 16.8516C10.3682 17.0391 11.0918 17.25 12 17.25C12.9082 17.25 13.5996 17.0391 14.2266 16.8516C14.8535 16.6641 15.416 16.5 16.1719 16.5C16.8691 16.5 17.6572 16.8457 18.2578 17.2031C18.46 17.3232 18.6035 17.4258 18.75 17.5312V18.0703C18.7266 18.0557 18.7266 18.0615 18.7031 18.0469C18.0381 17.6514 17.168 17.25 16.1719 17.25C15.2432 17.25 14.5225 17.4609 13.8984 17.6484C13.2744 17.8359 12.7441 18 12 18C11.2559 18 10.6904 17.833 10.0547 17.6484C9.41895 17.4639 8.70703 17.25 7.82812 17.25C6.90234 17.25 6.0791 17.6426 5.41406 18.0234C5.3291 18.0732 5.3291 18.0908 5.25 18.1406V17.5547C5.41406 17.4463 5.56641 17.332 5.78906 17.2031C6.40723 16.8428 7.19824 16.5 7.82812 16.5Z" fill="black"/>
</svg>
