<svg width="24" height="24" viewBox="0 0 24 24" fill="none" xmlns="http://www.w3.org/2000/svg">
<path d="M17.6426 3.83203L13.7109 5.30713C13.2979 4.81809 12.6887 4.5 12 4.5C10.7595 4.5 9.75 5.5095 9.75 6.75C9.75 6.76605 9.75406 6.78091 9.75439 6.79688L6 8.25L2.25 14.8125V15.0117C2.25 17.0787 3.93225 18.75 6 18.75C8.06775 18.75 9.75 17.0787 9.75 15.0117V14.8125L6.75732 9.57422L10.2935 8.19873C10.5474 8.49739 10.8737 8.72808 11.25 8.8623V18V19.5H12.75H15.75V18H12.75V8.8623C13.6209 8.5516 14.25 7.72621 14.25 6.75C14.25 6.73594 14.2459 6.72298 14.2456 6.70898L17.4082 5.52246L14.25 11.0508V11.25C14.25 13.3177 15.9323 15 18 15C20.0677 15 21.75 13.3177 21.75 11.25V11.0508L18.3823 5.15771L17.6426 3.83203ZM12 6C12.414 6 12.75 6.33675 12.75 6.75C12.75 7.16325 12.414 7.5 12 7.5C11.586 7.5 11.25 7.16325 11.25 6.75C11.25 6.33675 11.586 6 12 6ZM18 7.51172L19.708 10.5H16.292L18 7.51172ZM6 11.2734L7.70068 14.25H4.29932L6 11.2734ZM15.8892 12H20.1108C19.8002 12.8712 18.9766 13.5 18 13.5C17.0234 13.5 16.1998 12.8712 15.8892 12ZM3.88477 15.75H8.11523C7.80753 16.6267 6.98056 17.2617 6 17.2617C5.01944 17.2617 4.19247 16.6267 3.88477 15.75Z" fill="black"/>
</svg>
