<svg width="24" height="24" viewBox="0 0 24 24" fill="none" xmlns="http://www.w3.org/2000/svg">
<path d="M6.35742 3.83203L5.61768 5.15771L2.25 11.0508V11.25C2.25 13.3177 3.93225 15 6 15C8.06775 15 9.75 13.3177 9.75 11.25V11.0508L6.5918 5.52246L9.75439 6.70898C9.75414 6.72298 9.75 6.73594 9.75 6.75C9.75 7.72621 10.3791 8.5516 11.25 8.8623V18H8.25V19.5H11.25H12.75V18V8.8623C13.1263 8.72808 13.4526 8.49739 13.7065 8.19873L17.2427 9.57422L14.25 14.8125V15.0117C14.25 17.0787 15.9323 18.75 18 18.75C20.0677 18.75 21.75 17.0787 21.75 15.0117V14.8125L18 8.25L14.2456 6.79688C14.2459 6.78091 14.25 6.76605 14.25 6.75C14.25 5.5095 13.2405 4.5 12 4.5C11.3113 4.5 10.7021 4.81809 10.2891 5.30713L6.35742 3.83203ZM12 6C12.414 6 12.75 6.33675 12.75 6.75C12.75 7.16325 12.414 7.5 12 7.5C11.586 7.5 11.25 7.16325 11.25 6.75C11.25 6.33675 11.586 6 12 6ZM6 7.51172L7.70801 10.5H4.29199L6 7.51172ZM18 11.2734L19.7007 14.25H16.2993L18 11.2734ZM3.88916 12H8.11084C7.80016 12.8712 6.97663 13.5 6 13.5C5.02337 13.5 4.19984 12.8712 3.88916 12ZM15.8848 15.75H20.1152C19.8079 16.6274 18.981 17.2617 18 17.2617C17.019 17.2617 16.1921 16.6274 15.8848 15.75Z" fill="black"/>
</svg>
