<svg width="24" height="24" viewBox="0 0 24 24" fill="none" xmlns="http://www.w3.org/2000/svg">
<path d="M14.8828 2.25005C14.6191 2.26177 14.3906 2.32036 14.3906 2.32036L14.2266 2.39068L2.39062 14.2266L2.3203 14.3907C2.3203 14.3907 2.26171 14.6192 2.24999 14.8829C2.23827 15.1465 2.2705 15.5245 2.39062 15.961C2.62792 16.834 3.22851 17.9942 4.61718 19.3829C6.00585 20.7715 7.16601 21.3721 8.03905 21.6094C8.47558 21.7295 8.85351 21.7618 9.11718 21.7501C9.38085 21.7383 9.60937 21.6797 9.60937 21.6797L9.77343 21.6094L21.6094 9.77349L21.6797 9.60943C21.6797 9.60943 21.7383 9.38091 21.75 9.11724C21.7617 8.85357 21.7295 8.47564 21.6094 8.03911C21.3721 7.16607 20.7715 6.00591 19.3828 4.61724C17.9941 3.22857 16.834 2.62798 15.9609 2.39068C15.5244 2.27056 15.1465 2.23833 14.8828 2.25005ZM14.9531 3.75005H14.9766C15.0937 3.74712 15.2842 3.76763 15.5625 3.8438C16.1396 4.002 17.083 4.42388 18.3281 5.67193L18.3984 5.76568C19.5674 6.96099 20.0039 7.87798 20.1562 8.43755C20.2324 8.71587 20.2529 8.9063 20.25 9.02349C20.25 9.02935 20.25 9.044 20.25 9.04693L9.04687 20.2501C9.04394 20.2501 9.02929 20.2501 9.02343 20.2501C8.90624 20.253 8.71581 20.2325 8.43749 20.1563C7.86034 19.9981 6.91698 19.5762 5.67187 18.3282L5.57812 18.211C4.42968 17.0303 3.99608 16.1192 3.84374 15.5626C3.76757 15.2842 3.74706 15.0938 3.74999 14.9766C3.74999 14.9708 3.74999 14.9561 3.74999 14.9532L14.9531 3.75005ZM14.25 6.75005C13.8369 6.75005 13.5 7.08697 13.5 7.50005C13.5 7.91314 13.8369 8.25005 14.25 8.25005C14.6631 8.25005 15 7.91314 15 7.50005C15 7.08697 14.6631 6.75005 14.25 6.75005ZM16.5 6.75005C16.0869 6.75005 15.75 7.08697 15.75 7.50005C15.75 7.91314 16.0869 8.25005 16.5 8.25005C16.9131 8.25005 17.25 7.91314 17.25 7.50005C17.25 7.08697 16.9131 6.75005 16.5 6.75005ZM12.1641 8.83599L11.0859 9.91411L14.0859 12.9141L15.1641 11.836L12.1641 8.83599ZM16.5 9.00005C16.0869 9.00005 15.75 9.33697 15.75 9.75005C15.75 10.1631 16.0869 10.5001 16.5 10.5001C16.9131 10.5001 17.25 10.1631 17.25 9.75005C17.25 9.33697 16.9131 9.00005 16.5 9.00005ZM9.91405 11.086L8.83593 12.1641L11.8359 15.1641L12.9141 14.086L9.91405 11.086ZM7.49999 13.5001C7.0869 13.5001 6.74999 13.837 6.74999 14.2501C6.74999 14.6631 7.0869 15.0001 7.49999 15.0001C7.91308 15.0001 8.24999 14.6631 8.24999 14.2501C8.24999 13.837 7.91308 13.5001 7.49999 13.5001ZM7.49999 15.7501C7.0869 15.7501 6.74999 16.087 6.74999 16.5001C6.74999 16.9131 7.0869 17.2501 7.49999 17.2501C7.91308 17.2501 8.24999 16.9131 8.24999 16.5001C8.24999 16.087 7.91308 15.7501 7.49999 15.7501ZM9.74999 15.7501C9.3369 15.7501 8.99999 16.087 8.99999 16.5001C8.99999 16.9131 9.3369 17.2501 9.74999 17.2501C10.1631 17.2501 10.5 16.9131 10.5 16.5001C10.5 16.087 10.1631 15.7501 9.74999 15.7501Z" fill="black"/>
</svg>
