<svg width="24" height="24" viewBox="0 0 24 24" fill="none" xmlns="http://www.w3.org/2000/svg">
<path d="M12 2.25C6.624 2.25 2.25 6.624 2.25 12C2.25 17.376 6.624 21.75 12 21.75C17.376 21.75 21.75 17.376 21.75 12C21.75 6.624 17.376 2.25 12 2.25ZM12 3.75C14.3179 3.75 16.4119 4.71473 17.9121 6.25928C17.1347 6.82115 16.484 7.53942 15.9902 8.38477L17.2793 9.14209C17.6759 8.46111 18.2153 7.87795 18.8584 7.4209C19.7366 8.7319 20.25 10.3071 20.25 12C20.25 13.6929 19.7366 15.2681 18.8584 16.5791C18.2078 16.1146 17.6614 15.5231 17.2573 14.8271L15.9595 15.5771C16.4532 16.43 17.1197 17.1639 17.9121 17.7407C16.4119 19.2853 14.3179 20.25 12 20.25C9.6821 20.25 7.58807 19.2853 6.08789 17.7407C6.88028 17.1639 7.54676 16.43 8.04053 15.5771L6.74268 14.8271C6.33857 15.5231 5.79221 16.1146 5.1416 16.5791C4.26342 15.2681 3.75 13.6929 3.75 12C3.75 10.3071 4.26342 8.7319 5.1416 7.4209C5.7847 7.87795 6.32409 8.46111 6.7207 9.14209L8.00977 8.38477C7.51602 7.53942 6.86526 6.82115 6.08789 6.25928C7.58807 4.71473 9.6821 3.75 12 3.75ZM8.68506 9.9082L7.25244 10.3506C7.41744 10.8906 7.5 11.445 7.5 12C7.5 12.5475 7.42459 13.0878 7.26709 13.6128L8.69971 14.0405C8.90221 13.3805 9 12.69 9 12C9 11.295 8.89506 10.5907 8.68506 9.9082ZM15.3149 9.9082C15.1049 10.5907 15 11.295 15 12C15 12.69 15.0978 13.3805 15.3003 14.0405L16.7329 13.6128C16.5754 13.0878 16.5 12.5475 16.5 12C16.5 11.445 16.5826 10.8906 16.7476 10.3506L15.3149 9.9082Z" fill="black"/>
</svg>
