<svg width="24" height="24" viewBox="0 0 24 24" fill="none" xmlns="http://www.w3.org/2000/svg">
<path d="M12 2.25C6.62402 2.25 2.25 6.62402 2.25 12C2.25 17.376 6.62402 21.75 12 21.75C17.376 21.75 21.75 17.376 21.75 12C21.75 6.62402 17.376 2.25 12 2.25ZM11.1562 3.79688C11.1885 3.79395 11.2178 3.7998 11.25 3.79688V11.25H8.95312C8.79199 9.14062 7.97168 7.21582 6.67969 5.69531C7.91309 4.65234 9.4541 3.96973 11.1562 3.79688ZM12.75 3.79688C14.4873 3.95215 16.0635 4.63184 17.3203 5.69531C16.0283 7.21582 15.208 9.14062 15.0469 11.25H12.75V3.79688ZM5.625 6.77344C6.65039 8.01562 7.29785 9.55371 7.45312 11.25H3.79688C3.94922 9.55371 4.60547 8.01562 5.625 6.77344ZM18.375 6.77344C19.3945 8.01562 20.0508 9.55371 20.2031 11.25H16.5469C16.7021 9.55371 17.3496 8.01562 18.375 6.77344ZM3.79688 12.75H7.45312C7.29785 14.4463 6.65039 15.9844 5.625 17.2266C4.60547 15.9844 3.94922 14.4463 3.79688 12.75ZM8.95312 12.75H11.25V20.2031C9.5127 20.0479 7.93652 19.3682 6.67969 18.3047C7.97168 16.7842 8.79199 14.8594 8.95312 12.75ZM12.75 12.75H15.0469C15.208 14.8594 16.0283 16.7842 17.3203 18.3047C16.0635 19.3682 14.4873 20.0479 12.75 20.2031V12.75ZM16.5469 12.75H20.2031C20.0508 14.4463 19.3945 15.9844 18.375 17.2266C17.3496 15.9844 16.7021 14.4463 16.5469 12.75Z" fill="black"/>
</svg>
