<svg width="24" height="24" viewBox="0 0 24 24" fill="none" xmlns="http://www.w3.org/2000/svg">
<path d="M19.5 3C17.8418 3 16.5 4.3418 16.5 6H15V7.5H19.5V6H18C18 5.10645 18.6064 4.5 19.5 4.5C20.3936 4.5 21 5.10645 21 6V10.5H0.75V12H1.64062L2.78906 17.6953V17.7188C2.96191 18.4922 3.53613 19.1279 4.28906 19.3828L3.75 21H5.25L5.74219 19.5H18.2578L18.75 21H20.25L19.7109 19.3828C20.4961 19.1426 21.1055 18.5127 21.2812 17.7188V17.6953L22.3594 12H23.25V10.5H22.5V6C22.5 4.3418 21.1582 3 19.5 3ZM3.16406 12H20.8594L19.8047 17.4141C19.7168 17.7393 19.4414 18 19.0547 18H5.01562C4.61426 18 4.3418 17.7334 4.26562 17.3906L3.16406 12Z" fill="black"/>
</svg>
