<svg width="24" height="24" viewBox="0 0 24 24" fill="none" xmlns="http://www.w3.org/2000/svg">
<path d="M19.9336 10.7549C19.9336 10.7549 21.6621 10.8428 21.6621 9.82617C21.6621 8.49902 19.3594 7.30371 19.3594 7.30371C19.3594 7.30371 19.7197 6.53906 19.9453 6.11133C20.1709 5.68359 20.8037 4.01953 20.8594 3.63867C20.9297 3.1582 20.8213 3.00879 20.8213 3.00879C20.666 4.03418 18.9961 6.9873 18.8613 7.08691C17.2324 6.3252 14.9941 6.11133 14.9941 6.11133C14.9941 6.11133 12.8027 1.5 10.7402 1.5C8.69531 1.5 8.70703 5.44922 8.70703 5.44922C8.70703 5.44922 8.12988 4.33008 7.40332 4.33008C6.34277 4.33008 5.99414 5.92969 5.99414 7.66699C3.90234 7.66699 2.1416 8.13574 1.9834 8.17969C1.82812 8.22363 1.33301 8.58398 1.55566 8.54004C2.01562 8.39355 4.16601 8.05957 6.04687 8.22363C6.15234 9.87305 7.11621 12.0234 7.11621 12.0234C7.11621 12.0234 5.04785 15.0176 5.04785 17.1533C5.04785 17.7158 5.29394 18.7441 6.77636 18.7441C8.02148 18.7441 9.41894 17.9971 9.67968 17.8477C9.45117 18.1729 9.28125 18.7969 9.28125 19.084C9.28125 19.3184 9.42187 19.9834 10.3799 19.9834C11.6103 19.9834 12.9873 19.04 12.9873 19.04C12.9873 19.04 14.2881 21.1963 15.3984 22.1836C15.6973 22.4502 15.9844 22.5 15.9844 22.5C15.9844 22.5 14.8799 21.4395 13.4268 18.7031C14.7773 17.8711 16.1836 15.9023 16.1836 15.9023C16.1836 15.9023 16.3506 15.9082 17.6338 15.9082C19.6436 15.9082 22.4971 15.4863 22.4971 13.8896C22.5 12.2432 19.9336 10.7549 19.9336 10.7549ZM20.1562 9.76172C20.1562 10.3447 19.6025 10.3389 19.6025 10.3389L19.1807 10.3652C19.1807 10.3652 18.3809 9.94629 17.8945 9.74707C17.8945 9.74707 18.6475 8.58984 18.8232 8.26758C18.9551 8.34668 20.1562 9.09668 20.1562 9.76172ZM11.7451 3.82324C12.6914 3.82324 14.0391 6.0498 14.0391 6.0498C14.0391 6.0498 11.9355 5.8623 10.2041 6.87891C10.251 5.27637 10.79 3.82324 11.7451 3.82324ZM8.0039 5.62793C8.30273 5.62793 8.5957 5.99414 8.71875 6.30176C8.71875 6.50684 8.82422 7.70215 8.82422 7.70215L7.08984 7.63477C7.08984 6.07324 7.70215 5.62793 8.0039 5.62793ZM7.82226 16.4824C6.87304 16.4824 6.67969 15.9551 6.67969 15.4805C6.67969 14.4053 7.53808 12.8994 7.53808 12.8994C7.53808 12.8994 8.50195 14.9238 10.1807 15.7764C9.34863 16.2656 8.66015 16.4824 7.82226 16.4824ZM10.9014 18.6006C10.2363 18.6006 10.1543 18.1699 10.1543 18.0703C10.1543 17.7627 10.3975 17.3965 10.3975 17.3965C10.3975 17.3965 11.5137 16.6436 11.584 16.5615L12.4102 18.1025C12.4102 18.1025 11.5664 18.6006 10.9014 18.6006ZM12.9756 17.7627C12.5713 17.0566 12.2725 16.3184 12.2725 16.3184C12.2725 16.3184 13.9336 16.4238 14.8271 15.5039C14.2705 15.7529 13.3828 16.0693 12.3516 15.9727C14.5078 14.0742 15.7676 12.6973 16.8311 11.2764C16.7402 11.165 16.2539 10.8252 16.1338 10.7695C15.4922 11.543 12.9932 14.2119 10.6787 15.5332C7.74902 13.9365 7.13379 9.24023 7.07226 8.26465L8.67187 8.41699C8.67187 8.41699 8.07129 9.4834 8.07129 10.2686C8.07129 11.0508 8.16504 11.0918 8.16504 11.0918C8.16504 11.0918 8.14453 9.72656 8.98828 8.67188C9.63281 12.0938 10.3037 13.8457 10.8252 14.8916C11.0918 14.7803 11.5869 14.5605 11.5869 14.5605C11.5869 14.5605 10.1103 10.3037 10.1924 7.42383C10.8633 7.06641 11.8564 6.69727 12.9756 6.69727C15.9228 6.69727 18.293 7.96289 18.293 7.96289L17.3672 9.25781C17.3672 9.25781 16.541 7.76367 15.3721 7.49707C15.9873 7.9541 16.6787 8.56055 17.0361 9.43066C14.5928 8.47852 11.6455 7.97461 10.6992 7.86328C10.6172 8.21191 10.6289 8.70996 10.6289 8.70996C10.6289 8.70996 14.5811 9.43945 17.458 11.083C17.4375 14.6807 13.5176 17.4434 12.9756 17.7627ZM16.7197 15.0732C16.7197 15.0732 17.9473 13.4648 17.9268 11.332C17.9268 11.332 19.9102 12.5596 19.9102 13.7578C19.9102 15.0938 16.7197 15.0732 16.7197 15.0732Z" fill="black"/>
</svg>
