<svg width="24" height="24" viewBox="0 0 24 24" fill="none" xmlns="http://www.w3.org/2000/svg">
<path d="M10.125 3C9.19043 3 8.39355 3.43652 7.78125 4.05469C7.44727 3.92578 7.13086 3.75 6.75 3.75C5.10059 3.75 3.75 5.10059 3.75 6.75C3.75 7.52051 4.06348 8.20898 4.54688 8.74219C4.51758 8.82422 4.5 8.91211 4.5 9V18.75C4.5 19.9834 5.5166 21 6.75 21H15.75C16.9834 21 18 19.9834 18 18.75V17.25H18.75C19.9834 17.25 21 16.2334 21 15V12C21 10.7666 19.9834 9.75 18.75 9.75H18V8.85938C18.0059 8.80371 18.0059 8.75098 18 8.69531C18.457 8.16797 18.75 7.49707 18.75 6.75C18.75 5.10059 17.3994 3.75 15.75 3.75C15.1904 3.75 14.6953 3.94922 14.25 4.21875C13.8047 3.94922 13.3096 3.75 12.75 3.75C12.5566 3.75 12.4043 3.80859 12.2344 3.84375C11.6514 3.35449 10.9453 3 10.125 3ZM10.125 4.5C10.6758 4.5 11.1592 4.74902 11.5078 5.13281L11.8359 5.48438L12.3047 5.34375C12.4717 5.28809 12.6064 5.25 12.75 5.25C13.1338 5.25 13.4854 5.40234 13.7578 5.64844L14.25 6.09375L14.7422 5.64844C15.0146 5.40234 15.3662 5.25 15.75 5.25C16.5879 5.25 17.25 5.91211 17.25 6.75C17.25 7.58789 16.5879 8.25 15.75 8.25C14.918 8.25 13.7109 7.89844 13.7109 7.89844L12.75 7.61719V8.625C12.75 9.67676 12.9756 10.4795 13.1719 11.0859C13.3682 11.6924 13.5 12.0791 13.5 12.375C13.5 13.0049 13.0049 13.5 12.375 13.5C11.7451 13.5 11.25 13.0049 11.25 12.375C11.25 12.0791 11.3818 11.6689 11.5781 11.0625C11.7744 10.4561 12 9.6709 12 8.625V7.28906L10.875 7.99219C10.875 7.99219 10.7402 8.05957 10.5703 8.13281C10.4004 8.20605 10.1865 8.25 10.125 8.25C9.6416 8.25 9.19922 8.06543 8.85938 7.75781L8.32031 7.26562L7.82812 7.78125C7.55273 8.06543 7.17773 8.25 6.75 8.25C5.91211 8.25 5.25 7.58789 5.25 6.75C5.25 5.91211 5.91211 5.25 6.75 5.25C7.05469 5.25 7.33008 5.35254 7.57031 5.50781L8.17969 5.88281L8.60156 5.29688C8.94141 4.81348 9.48633 4.5 10.125 4.5ZM8.39062 9.1875C8.90332 9.50684 9.47754 9.75 10.125 9.75C10.2041 9.75 10.2393 9.71191 10.3125 9.70312C10.251 9.99316 10.2539 10.3652 10.1719 10.6172C9.99316 11.168 9.75 11.6953 9.75 12.375C9.75 13.8164 10.9336 15 12.375 15C13.8164 15 15 13.8164 15 12.375C15 11.6953 14.7568 11.165 14.5781 10.6172C14.4814 10.3184 14.4551 9.89648 14.3906 9.53906C14.8711 9.65039 15.0879 9.75 15.75 9.75C16.0078 9.75 16.2598 9.69434 16.5 9.63281V10.2656C16.4561 10.4121 16.4561 10.5645 16.5 10.7109V16.3594C16.4795 16.459 16.4795 16.5645 16.5 16.6641V18.75C16.5 19.1748 16.1748 19.5 15.75 19.5H6.75C6.3252 19.5 6 19.1748 6 18.75V9.63281C6.24023 9.69434 6.49219 9.75 6.75 9.75C7.36816 9.75 7.91309 9.50977 8.39062 9.1875ZM18 11.25H18.75C19.1748 11.25 19.5 11.5752 19.5 12V15C19.5 15.4248 19.1748 15.75 18.75 15.75H18V11.25Z" fill="black"/>
</svg>
