<svg width="24" height="24" viewBox="0 0 24 24" fill="none" xmlns="http://www.w3.org/2000/svg">
<path d="M3.75 3.75V20.25H20.25V3.75H3.75ZM5.25 5.25H18.75V18.75H5.25V5.25ZM6.75 8.52686V14.9854H9.88477C11.0548 14.9779 12.1582 14.4155 12.1582 13.103C12.1582 12.2855 11.768 11.5951 10.9805 11.3701C11.558 11.0851 11.8579 10.77 11.8579 10.125C11.8579 8.835 10.9054 8.52686 9.79541 8.52686H6.75ZM13.6055 9V9.63721H16.2144V9H13.6055ZM8.17529 9.51709H9.50977C10.0123 9.51709 10.478 9.65994 10.478 10.2524C10.478 10.7999 10.1179 11.0244 9.60791 11.0244H8.17529V9.51709ZM14.9707 10.0723C13.5532 10.0723 12.5845 11.1305 12.5845 12.5405C12.5845 13.9955 13.4932 15 14.9707 15C16.0882 15 16.8156 14.4978 17.1606 13.4253H16.0269C15.8994 13.8228 15.4046 14.0332 15.0146 14.0332C14.2571 14.0332 13.8677 13.5906 13.8677 12.8481H17.2354C17.2429 12.7731 17.25 12.6831 17.25 12.6006C17.25 11.2206 16.4332 10.0723 14.9707 10.0723ZM14.9253 11.0332C15.5778 11.0332 15.8996 11.4156 15.9521 12.0381H13.8677C13.9052 11.4231 14.3103 11.0332 14.9253 11.0332ZM8.16797 12.0981H9.7207C10.3432 12.0981 10.7402 12.3594 10.7402 13.0269C10.7402 13.6719 10.2674 13.875 9.68994 13.875H8.16797V12.0981Z" fill="black"/>
</svg>
