<svg width="24" height="24" viewBox="0 0 24 24" fill="none" xmlns="http://www.w3.org/2000/svg">
<path d="M14.25 4.5V5.57812L14.3203 5.71875L15.0938 7.5H8.57812L8.34375 7.82812L6.30469 10.7109C5.85059 10.5703 5.37305 10.5 4.875 10.5C2.18848 10.5 0 12.6855 0 15.375C0 18.0645 2.18555 20.25 4.875 20.25C7.43555 20.25 9.53027 18.2607 9.72656 15.75H12.3047L12.5391 15.4219L16.1953 10.0312L16.6875 11.1562C15.2314 12.0029 14.25 13.582 14.25 15.375C14.25 18.0527 16.4473 20.25 19.125 20.25C21.8027 20.25 24 18.0527 24 15.375C24 12.6973 21.8027 10.5 19.125 10.5C18.7646 10.5 18.4102 10.541 18.0703 10.6172L16.0547 6H18.375C18.5889 6 18.75 6.16113 18.75 6.375C18.75 6.58887 18.5889 6.75 18.375 6.75V8.25C19.4004 8.25 20.25 7.40039 20.25 6.375C20.25 5.34961 19.4004 4.5 18.375 4.5H14.25ZM6 5.25V6.75H10.5L9.75 5.25H6ZM10.1016 9H15.0938L12.0703 13.4531L10.1016 9ZM8.78906 9.75L10.7578 14.25H4.5V15.75H8.20312C8.0127 17.4316 6.60645 18.75 4.875 18.75C3.01465 18.75 1.5 17.2354 1.5 15.375C1.5 13.5146 3.01465 12 4.875 12C6.04395 12 7.08105 12.5977 7.6875 13.5H9.375C9.01465 12.6357 8.42285 11.8945 7.66406 11.3672L8.78906 9.75ZM19.125 12C20.9854 12 22.5 13.5146 22.5 15.375C22.5 17.2354 20.9854 18.75 19.125 18.75C17.2646 18.75 15.75 17.2354 15.75 15.375C15.75 14.1943 16.374 13.166 17.2969 12.5625L18.8203 16.0547L20.1797 15.4453L18.7031 12.0469C18.8438 12.0293 18.9814 12 19.125 12Z" fill="black"/>
</svg>
