<svg width="24" height="24" viewBox="0 0 24 24" fill="none" xmlns="http://www.w3.org/2000/svg">
<path d="M14.625 3.75C13.1836 3.75 12 4.93359 12 6.375C12 7.81641 13.1836 9 14.625 9C16.0664 9 17.25 7.81641 17.25 6.375C17.25 4.93359 16.0664 3.75 14.625 3.75ZM14.625 5.25C15.2549 5.25 15.75 5.74512 15.75 6.375C15.75 7.00488 15.2549 7.5 14.625 7.5C13.9951 7.5 13.5 7.00488 13.5 6.375C13.5 5.74512 13.9951 5.25 14.625 5.25ZM11.3203 7.89844C10.9395 7.93652 10.5703 8.12402 10.3125 8.4375L8.55469 10.5703C7.94824 11.3086 8.21191 12.4746 9.07031 12.8906L11.6484 14.1562L10.9688 17.9062L12.4453 18.1641L13.2422 13.8516L13.3359 13.2891L12.8203 13.0312L9.70312 11.5312L11.4844 9.375L14.5312 11.8359L14.7422 12H18.75V10.5H15.2578L12.4219 8.22656C12.1055 7.97168 11.7012 7.86035 11.3203 7.89844ZM6.375 13.5C4.52344 13.5 3 15.0234 3 16.875C3 18.7266 4.52344 20.25 6.375 20.25C8.22656 20.25 9.75 18.7266 9.75 16.875C9.75 15.0234 8.22656 13.5 6.375 13.5ZM17.625 13.5C15.7734 13.5 14.25 15.0234 14.25 16.875C14.25 18.7266 15.7734 20.25 17.625 20.25C19.4766 20.25 21 18.7266 21 16.875C21 15.0234 19.4766 13.5 17.625 13.5ZM6.375 15C7.40918 15 8.25 15.8408 8.25 16.875C8.25 17.9092 7.40918 18.75 6.375 18.75C5.34082 18.75 4.5 17.9092 4.5 16.875C4.5 15.8408 5.34082 15 6.375 15ZM17.625 15C18.6592 15 19.5 15.8408 19.5 16.875C19.5 17.9092 18.6592 18.75 17.625 18.75C16.5908 18.75 15.75 17.9092 15.75 16.875C15.75 15.8408 16.5908 15 17.625 15Z" fill="black"/>
</svg>
