<svg width="24" height="24" viewBox="0 0 24 24" fill="none" xmlns="http://www.w3.org/2000/svg">
<path d="M8.25 3.75C6.77344 3.75 5.5957 4.83105 5.34375 6.23438C3.92578 6.5918 2.69531 7.51465 2.15625 8.97656H2.13281L0.539062 13.4531C0.199219 14.1475 0 14.9268 0 15.75C0 18.6416 2.3584 21 5.25 21C7.85449 21 10.0254 19.0869 10.4297 16.5938C10.8369 16.9951 11.3906 17.25 12 17.25C12.6094 17.25 13.1631 16.9951 13.5703 16.5938C13.9746 19.0869 16.1455 21 18.75 21C21.6416 21 24 18.6416 24 15.75C24 15.0205 23.8506 14.3203 23.5781 13.6875L21.8672 8.90625L21.8438 8.88281V8.85938C21.2959 7.5293 20.083 6.60059 18.6562 6.23438C18.4043 4.83105 17.2266 3.75 15.75 3.75C14.3584 3.75 13.2275 4.71387 12.8906 6H11.1094C10.7725 4.71387 9.6416 3.75 8.25 3.75ZM8.25 5.25C9.14355 5.25 9.75 5.85645 9.75 6.75V7.5H14.25V6.75C14.25 5.85645 14.8564 5.25 15.75 5.25C16.6436 5.25 17.25 5.85645 17.25 6.75V7.42969L17.9297 7.5C19.043 7.61719 20.0039 8.39355 20.4375 9.39844C20.4434 9.41309 20.4551 9.43066 20.4609 9.44531L21.0234 11.0391C20.335 10.7051 19.5645 10.5 18.75 10.5C16.5557 10.5 14.6807 11.8623 13.8984 13.7812C13.4971 13.1572 12.7881 12.75 12 12.75C11.2119 12.75 10.5029 13.1572 10.1016 13.7812C9.31934 11.8623 7.44434 10.5 5.25 10.5C4.44727 10.5 3.68262 10.6904 3 11.0156L3.5625 9.49219V9.46875C3.99902 8.30859 4.91895 7.62012 6.07031 7.5L6.75 7.42969V6.75C6.75 5.85645 7.35645 5.25 8.25 5.25ZM5.25 12C7.33008 12 9 13.6699 9 15.75C9 17.8301 7.33008 19.5 5.25 19.5C3.16992 19.5 1.5 17.8301 1.5 15.75C1.5 15.2197 1.63184 14.7305 1.82812 14.2734C1.83984 14.2441 1.83984 14.209 1.85156 14.1797C2.44336 12.8936 3.73535 12 5.25 12ZM18.75 12C20.8301 12 22.5 13.6699 22.5 15.75C22.5 17.8301 20.8301 19.5 18.75 19.5C16.6699 19.5 15 17.8301 15 15.75C15 13.6699 16.6699 12 18.75 12ZM12 14.25C12.4219 14.25 12.75 14.5781 12.75 15C12.75 15.4219 12.4219 15.75 12 15.75C11.5781 15.75 11.25 15.4219 11.25 15C11.25 14.5781 11.5781 14.25 12 14.25Z" fill="black"/>
</svg>
