<svg width="24" height="24" viewBox="0 0 24 24" fill="none" xmlns="http://www.w3.org/2000/svg">
<path d="M10.1953 3.30469C8.1709 3.97852 6.75 5.77441 6.75 7.875C6.75 8.625 6.9668 9.38086 7.26562 10.0547C6.51562 10.0547 5.7832 10.2656 5.10937 10.6406C3.31055 11.6895 2.4082 13.8105 2.85937 15.9844L4.35937 15.6797C4.06055 14.1797 4.6582 12.6797 5.85937 11.9297C7.43555 11.0303 9.5918 11.7012 10.6406 13.5C11.165 14.3994 11.335 15.3838 11.1094 16.3594C10.8838 17.2588 10.3594 17.9941 9.60937 18.4453C8.4082 19.1191 6.75 18.9082 5.625 17.8594L4.64062 18.9844C5.61621 19.8838 6.9082 20.3203 8.10937 20.3203C8.93555 20.3203 9.67969 20.1094 10.4297 19.7344C11.1035 19.3594 11.625 18.8145 12 18.1406C12.375 18.8145 12.8965 19.3594 13.5703 19.7344C14.2441 20.1094 15.0645 20.3203 15.8906 20.3203C17.0918 20.3203 18.3838 19.8838 19.3594 18.9844L18.375 17.8594C17.25 18.9082 15.5918 19.1191 14.3906 18.4453C13.6406 17.9941 13.1162 17.2588 12.8906 16.3594C12.665 15.3838 12.835 14.3994 13.3594 13.5C14.4082 11.7012 16.4912 11.0303 18.1406 11.9297C19.3418 12.6035 19.9395 14.1035 19.6406 15.6797L21.1406 15.9844C21.5156 13.8105 20.6191 11.6895 18.8203 10.6406C18.1465 10.2656 17.3906 10.0547 16.6406 10.0547C17.0156 9.38086 17.1797 8.70117 17.1797 7.875C17.1797 5.77441 15.7412 3.97852 13.6406 3.30469L13.1953 4.73438C14.6953 5.18555 15.6797 6.45117 15.6797 7.875C15.6797 9.75 14.0303 11.25 11.9297 11.25C9.8291 11.25 8.17969 9.75 8.17969 7.875C8.17969 6.45117 9.14062 5.18555 10.6406 4.73438L10.1953 3.30469ZM12 7.5C11.1738 7.5 10.4238 7.64062 9.75 8.01562C9.82617 8.54004 10.0488 9.00586 10.5 9.30469C10.9512 9.0791 11.4785 9 11.9297 9C12.3809 9 12.9082 9.0791 13.3594 9.30469C13.8105 9.00586 14.1094 8.54004 14.1094 8.01562C13.585 7.64062 12.8262 7.5 12 7.5ZM12 12C12.4512 12 12.75 12.2988 12.75 12.75C12.75 13.2012 12.4512 13.5 12 13.5C11.5488 13.5 11.25 13.2012 11.25 12.75C11.25 12.2988 11.5488 12 12 12ZM7.47656 12.9844C7.22461 12.9668 6.97558 13.0137 6.75 13.125C6.89941 14.7012 7.72558 16.1162 9 17.0156C9.375 16.79 9.60351 16.4355 9.67969 15.9844V15.6797C8.92969 15.0791 8.39941 14.2441 8.25 13.1953C7.98633 13.084 7.72851 13.002 7.47656 12.9844ZM16.5703 13.0547C16.2715 13.0547 15.9756 13.1162 15.75 13.2656C15.6006 14.2412 15.0762 15.1494 14.25 15.75V16.0547C14.3262 16.5059 14.6309 16.8838 14.9297 17.1094C16.2803 16.21 17.1006 14.7715 17.25 13.1953C17.0244 13.1191 16.7959 13.0547 16.5703 13.0547Z" fill="black"/>
</svg>
