<svg width="24" height="24" viewBox="0 0 24 24" fill="none" xmlns="http://www.w3.org/2000/svg">
<path d="M12 3.75C10.2803 3.75 8.55469 3.97266 7.19531 4.33594C6.51562 4.51758 5.93555 4.70801 5.46094 4.99219C4.98633 5.27637 4.5 5.70117 4.5 6.375C4.5 6.54199 4.54102 6.70605 4.59375 6.84375C4.70508 7.41504 6.58301 17.1943 6.77344 18.1406C6.86426 18.5918 7.15137 18.9258 7.47656 19.1719C7.80176 19.418 8.17383 19.6025 8.625 19.7578C9.52734 20.0684 10.6875 20.25 12 20.25C13.3125 20.25 14.4668 20.0684 15.375 19.7578C15.8291 19.6025 16.2188 19.4238 16.5469 19.1719C16.875 18.9199 17.1826 18.5889 17.25 18.1172C17.2646 18.0117 17.4082 17.1094 17.625 15.9844C17.8418 14.8594 18.123 13.4502 18.3984 12.0469C18.9141 9.40723 19.3477 7.13965 19.4062 6.84375C19.459 6.70605 19.5 6.54199 19.5 6.375C19.5 5.70117 19.0137 5.27637 18.5391 4.99219C18.0645 4.70801 17.4844 4.51758 16.8047 4.33594C15.4453 3.97266 13.7197 3.75 12 3.75ZM12 5.25C13.5938 5.25 15.2402 5.44922 16.4297 5.76562C17.0244 5.92383 17.4902 6.11719 17.7656 6.28125C17.8418 6.32812 17.8477 6.3457 17.8828 6.375C17.8477 6.4043 17.8418 6.42188 17.7656 6.46875C17.4902 6.63281 17.0244 6.82617 16.4297 6.98438C15.2402 7.30078 13.5938 7.5 12 7.5C10.4062 7.5 8.75977 7.30078 7.57031 6.98438C6.97559 6.82617 6.50977 6.63281 6.23438 6.46875C6.1582 6.42188 6.15234 6.4043 6.11719 6.375C6.15234 6.3457 6.1582 6.32812 6.23438 6.28125C6.50977 6.11719 6.97559 5.92383 7.57031 5.76562C8.75977 5.44922 10.4062 5.25 12 5.25ZM6.35156 8.15625C6.61816 8.25 6.89062 8.33203 7.19531 8.41406C8.55469 8.77734 10.2803 9 12 9C13.7197 9 15.4453 8.77734 16.8047 8.41406C17.1094 8.33203 17.3818 8.25 17.6484 8.15625C17.4404 9.17578 17.2793 9.91406 16.9219 11.7422C16.7461 12.6387 16.6084 13.4414 16.4531 14.2734C16.4443 14.2852 16.4355 14.2764 16.3594 14.3672C16.2539 14.4932 16.0605 14.707 15.75 14.9062C15.1289 15.3076 14.0068 15.75 12 15.75C9.99316 15.75 8.85059 15.3047 8.22656 14.9062C7.91602 14.707 7.74609 14.5166 7.64062 14.3906C7.53516 14.2646 7.52344 14.25 7.52344 14.25C7.01367 11.6191 6.65332 9.7207 6.35156 8.15625ZM12 9.75C10.7666 9.75 9.75 10.7666 9.75 12C9.75 13.2334 10.7666 14.25 12 14.25C13.2334 14.25 14.25 13.2334 14.25 12C14.25 10.7666 13.2334 9.75 12 9.75ZM12 11.25C12.4219 11.25 12.75 11.5781 12.75 12C12.75 12.4219 12.4219 12.75 12 12.75C11.5781 12.75 11.25 12.4219 11.25 12C11.25 11.5781 11.5781 11.25 12 11.25ZM7.94531 16.4297C8.84766 16.8779 10.1338 17.25 12 17.25C13.8428 17.25 15.1318 16.9014 16.0312 16.4531C15.917 17.0215 15.7764 17.6953 15.75 17.8828C15.7354 17.9033 15.6943 17.9297 15.6328 17.9766C15.4951 18.082 15.252 18.2344 14.9062 18.3516C14.2148 18.5859 13.1748 18.75 12 18.75C10.8252 18.75 9.80273 18.5889 9.11719 18.3516C8.77441 18.2344 8.51074 18.0879 8.36719 17.9766C8.22363 17.8652 8.21777 17.8125 8.22656 17.8594C8.20312 17.748 8.01855 16.7988 7.94531 16.4297Z" fill="black"/>
</svg>
