<svg width="24" height="24" viewBox="0 0 24 24" fill="none" xmlns="http://www.w3.org/2000/svg">
<path d="M12 2.25C9.327 2.25 6.75295 3.23212 4.75195 5.01562C4.4422 5.29087 4.41518 5.76424 4.69043 6.07324C4.96568 6.38224 5.4383 6.41002 5.74805 6.13477C7.47455 4.59652 9.69525 3.75 12 3.75C14.3048 3.75 16.5255 4.59652 18.252 6.13477C18.3952 6.26227 18.573 6.3252 18.75 6.3252C18.9562 6.3252 19.1611 6.24046 19.3096 6.07471C19.5848 5.76571 19.5578 5.29087 19.248 5.01562C17.247 3.23212 14.673 2.25 12 2.25ZM8.25 7.5C7.836 7.5 7.5 7.836 7.5 8.25V10.875C7.5 12.7673 9.477 14.25 12 14.25C14.523 14.25 16.5 12.7673 16.5 10.875V8.25C16.5 7.836 16.164 7.5 15.75 7.5C15.336 7.5 15 7.836 15 8.25V10.875C15 11.8912 13.626 12.75 12 12.75C10.374 12.75 9 11.8912 9 10.875V8.25C9 7.836 8.664 7.5 8.25 7.5ZM3.24463 9.76025C2.83363 9.69425 2.45152 9.97188 2.38477 10.3799C2.29552 10.9244 2.25 11.4837 2.25 12.0425C2.25 16.6055 5.25536 20.5873 9.55811 21.7251C9.62261 21.7423 9.687 21.75 9.75 21.75C10.0823 21.75 10.3858 21.5286 10.4751 21.1934C10.5808 20.7921 10.3424 20.3807 9.94189 20.2749C6.29614 19.3104 3.75 15.926 3.75 12.0425C3.75 11.5647 3.78851 11.0866 3.86426 10.6216C3.93176 10.2128 3.65338 9.827 3.24463 9.76025ZM20.7539 9.76025C20.3452 9.827 20.069 10.2128 20.1357 10.6216C20.2122 11.0866 20.25 11.5647 20.25 12.0425C20.25 15.9252 17.7031 19.3104 14.0581 20.2734C13.6576 20.3792 13.4192 20.7914 13.5249 21.1919C13.6134 21.5286 13.9178 21.75 14.25 21.75C14.313 21.75 14.3774 21.7416 14.4419 21.7251C18.7446 20.5873 21.75 16.6055 21.75 12.0425C21.75 11.4837 21.7052 10.9244 21.6152 10.3799C21.5492 9.97188 21.1657 9.69425 20.7539 9.76025ZM12 15C11.586 15 11.25 15.336 11.25 15.75V18C11.25 18.414 11.586 18.75 12 18.75C12.414 18.75 12.75 18.414 12.75 18V15.75C12.75 15.336 12.414 15 12 15Z" fill="black"/>
</svg>
