<svg width="24" height="24" viewBox="0 0 24 24" fill="none" xmlns="http://www.w3.org/2000/svg">
<path d="M12 2.25C6.62402 2.25 2.25 6.62402 2.25 12C2.25 17.376 6.62402 21.75 12 21.75C17.376 21.75 21.75 17.376 21.75 12C21.75 6.62402 17.376 2.25 12 2.25ZM12 3.75C16.5645 3.75 20.25 7.43555 20.25 12C20.25 16.5645 16.5645 20.25 12 20.25C7.43555 20.25 3.75 16.5645 3.75 12C3.75 7.43555 7.43555 3.75 12 3.75ZM7.28906 8.25L6.84375 10.2656H8.46094C9.71484 10.2656 10.0781 9.69141 10.0781 9.14062C10.0781 8.75098 9.83789 8.25 8.83594 8.25H7.28906ZM11.4375 8.25L10.9922 10.2656H12.6094C13.8633 10.2656 14.2266 9.69141 14.2266 9.14062C14.2266 8.75098 13.9834 8.25 12.9844 8.25H11.4375ZM15.2344 10.0547L14.7891 12.0938H16.3828C17.6367 12.0938 18 11.499 18 10.9453C18 10.5557 17.7568 10.0547 16.7578 10.0547H15.2344ZM6.72656 11.2969L6.30469 13.3359H7.89844C9.15234 13.3359 9.51562 12.7383 9.51562 12.1875C9.51562 11.7979 9.27539 11.2969 8.27344 11.2969H6.72656ZM10.875 11.2969L10.4531 13.3359H12.0469C13.3008 13.3359 13.6641 12.7383 13.6641 12.1875C13.6641 11.7979 13.4209 11.2969 12.4219 11.2969H10.875ZM14.625 13.2422L14.1797 15.2578H15.7969C17.0508 15.2578 17.3906 14.6602 17.3906 14.1094C17.3906 13.7197 17.1709 13.2422 16.1719 13.2422H14.625ZM10.2891 14.4844L9.84375 16.5H11.4609C12.7148 16.5 13.0547 15.9023 13.0547 15.3516C13.0547 14.9619 12.835 14.4844 11.8359 14.4844H10.2891Z" fill="black"/>
</svg>
