<svg width="24" height="24" viewBox="0 0 24 24" fill="none" xmlns="http://www.w3.org/2000/svg">
<path d="M4.93359 3.74997C4.68606 3.75851 4.45123 3.8861 4.32129 4.10885C3.48279 5.5436 3 7.21647 3 8.99997C3 10.7835 3.48282 12.4556 4.31982 13.8911C4.49307 14.1873 4.85269 14.3152 5.17969 14.2177L6.63721 13.7827C6.73921 13.6792 6.77524 13.5266 6.72949 13.3886L6.13037 11.5708C6.07862 11.4133 5.93205 11.3071 5.76855 11.3071H5.14893C4.97643 11.3071 4.82111 11.1917 4.77686 11.0229C4.60886 10.3764 4.52197 9.69672 4.52197 8.99997C4.52197 8.30322 4.60886 7.62352 4.77686 6.97702C4.82036 6.80827 4.97643 6.69284 5.14893 6.69284H5.77002C5.93352 6.69284 6.07934 6.58738 6.13184 6.43063L6.73096 4.61129C6.77596 4.47254 6.74067 4.32 6.63867 4.21725L5.18115 3.78219C5.0994 3.75763 5.01611 3.74712 4.93359 3.74997ZM7.49707 3.74997L8.90771 15.7588C7.71077 15.8084 6.75 16.7911 6.75 18V20.25H19.5V18C19.5 16.8242 18.5899 15.8669 17.439 15.769L20.2178 3.74997H7.49707ZM9.18457 5.24997H18.3311L17.9839 6.74997H14.25V8.24997H17.6382L17.291 9.74997H14.25V11.25H16.9438L16.5967 12.75H14.25V14.25H16.251L15.9038 15.75H10.418L9.18457 5.24997ZM9 17.25H9.08203H17.0962H17.25C17.6632 17.25 18 17.5867 18 18V18.75H8.25V18C8.25 17.5867 8.58675 17.25 9 17.25Z" fill="black"/>
</svg>
