<svg width="24" height="24" viewBox="0 0 24 24" fill="none" xmlns="http://www.w3.org/2000/svg">
<path d="M10.875 2.25C9.43359 2.25 8.25 3.43359 8.25 4.875C8.25 6.31641 9.43359 7.5 10.875 7.5C12.3164 7.5 13.5 6.31641 13.5 4.875C13.5 3.43359 12.3164 2.25 10.875 2.25ZM10.875 3.75C11.5049 3.75 12 4.24512 12 4.875C12 5.50488 11.5049 6 10.875 6C10.2451 6 9.75 5.50488 9.75 4.875C9.75 4.24512 10.2451 3.75 10.875 3.75ZM8.10938 7.6875C7.72266 7.71973 7.3623 7.9043 7.10156 8.20312L5.74219 9.77344C5.56348 9.97852 5.4375 10.2305 5.39062 10.5L4.875 13.4062L6.35156 13.6641L6.86719 10.7578L8.22656 9.1875H8.25L8.83594 9.30469L7.94531 13.3359C7.85449 13.7549 7.95117 14.1855 8.20312 14.5312L12.3516 20.25H14.2031L9.42188 13.6406L10.3125 9.58594L10.6641 9.65625L11.2266 11.625C11.3584 12.0762 11.6982 12.4424 12.1406 12.6094L14.3672 13.4531L17.2734 20.0156L17.9766 19.7344L15 13.0312L15.3047 12.2109L12.6797 11.2031L12.0938 9.23438C11.9385 8.69238 11.499 8.28516 10.9453 8.17969L8.50781 7.71094C8.37891 7.6875 8.23828 7.67578 8.10938 7.6875ZM7.85156 15.7734L7.47656 17.2266L5.29688 20.25H7.14844L8.88281 17.8828L8.97656 17.4375L7.85156 15.7734Z" fill="black"/>
</svg>
