<svg width="24" height="24" viewBox="0 0 24 24" fill="none" xmlns="http://www.w3.org/2000/svg">
<path d="M9.75 5.25C7.2645 5.25 5.25 7.2645 5.25 9.75V15C5.25 17.4855 7.2645 19.5 9.75 19.5H15C17.4855 19.5 19.5 17.4855 19.5 15V11.25C19.5 10.836 19.164 10.5 18.75 10.5H18C17.586 10.5 17.25 10.164 17.25 9.75C17.25 7.2645 15.2355 5.25 12.75 5.25H9.75ZM9.75 9H12.75C13.1625 9 13.5 9.3375 13.5 9.75C13.5 10.1625 13.1625 10.5 12.75 10.5H9.75C9.3375 10.5 9 10.1625 9 9.75C9 9.3375 9.3375 9 9.75 9ZM9.75 14.25H15C15.4125 14.25 15.75 14.5875 15.75 15C15.75 15.4125 15.4125 15.75 15 15.75H9.75C9.3375 15.75 9 15.4125 9 15C9 14.5875 9.3375 14.25 9.75 14.25Z" fill="black"/>
</svg>
