<svg width="24" height="24" viewBox="0 0 24 24" fill="none" xmlns="http://www.w3.org/2000/svg">
<path d="M18.5508 4.40034C18.2871 4.4062 18.0176 4.45308 17.7627 4.53804C16.1982 5.05952 15.2842 6.24019 14.7861 7.13374C14.335 6.89644 13.8252 6.74995 13.2744 6.74995H12.9756L11.7744 7.94819C10.7988 7.49995 9.82324 7.35054 8.69824 7.49995C5.85059 7.72554 3.375 10.1249 3.07617 13.0517C2.85059 14.9999 3.52441 16.9511 4.875 18.375C6.07617 19.5761 7.72559 20.25 9.375 20.25C9.67383 20.25 9.89941 20.2499 10.1982 20.1767C13.125 19.8017 15.4482 17.4755 15.8232 14.4755C15.8994 13.3505 15.75 12.2988 15.375 11.3994L16.5 10.2744V9.97554C16.5 9.29878 16.2979 8.67183 15.9492 8.1562C16.2803 7.48823 16.9893 6.37788 18.2373 5.96187C18.7881 5.77729 19.0811 5.88276 19.2539 6.18159C19.4297 6.47749 19.5176 7.28608 18.8291 8.66304C18.29 9.67085 16.6523 12.4658 17.8271 16.7812L15.75 17.0244L17.6982 18L16.1982 20.1005L18.5244 18.8232L19.4268 20.1005V18.4482L21.8232 19.2744L20.25 17.6982L21.5244 16.7255H19.875V13.4999L19.0166 15.2578C18.4688 12.1289 19.6172 10.3769 20.1621 9.35151C20.165 9.34858 20.168 9.34272 20.1709 9.33686C20.9824 7.71382 21.1084 6.38374 20.5518 5.42573C20.2734 4.94819 19.8311 4.64058 19.333 4.49409C19.084 4.42378 18.8174 4.39155 18.5508 4.40034ZM13.5732 8.24995C14.25 8.39936 14.8506 8.92671 15 9.67671L14.3232 10.3505C13.5732 10.2744 12.9756 9.67671 12.8994 8.92671L13.5732 8.24995ZM9.44824 8.92671C10.1982 8.92671 10.875 9.07319 11.4756 9.44819C11.7744 10.6494 12.6738 11.5488 13.875 11.7744C14.25 12.5244 14.3994 13.3505 14.3232 14.3232C14.1006 16.5732 12.2256 18.4511 10.0518 18.6767C8.55176 18.8261 7.04883 18.375 6 17.25C4.95117 16.2011 4.42383 14.6982 4.57617 13.1982C4.79883 11.0244 6.67676 9.14936 8.85059 8.99995C9.07617 8.99995 9.29883 8.92671 9.44824 8.92671Z" fill="black"/>
</svg>
