<svg width="24" height="24" viewBox="0 0 24 24" fill="none" xmlns="http://www.w3.org/2000/svg">
<path d="M9 3V4.5H15V3H9ZM9.75 5.25V11.0083C7.56829 11.9065 6 13.9956 6 16.5C6 18.1766 6.69387 19.7067 7.81055 20.7891L8.02881 21H15.9712L16.1895 20.7891C17.3061 19.7067 18 18.1766 18 16.5C18 15.4103 17.6484 14.4265 17.1401 13.5454L18.5757 12.1099L19.106 12.6401L20.1665 11.5796L18.0454 9.4585L16.9849 10.519L17.5151 11.0493L16.2246 12.3398C15.6621 11.7689 15.003 11.3183 14.25 11.0083V5.25H12.75V12.0264L13.2861 12.186C14.6644 12.5962 15.7609 13.6476 16.2378 15H7.76221C8.23912 13.6476 9.33564 12.5962 10.7139 12.186L11.25 12.0264V5.25H9.75ZM7.5 16.5H16.5C16.5 17.6706 16.0186 18.7074 15.29 19.5H8.70996C7.98137 18.7074 7.5 17.6706 7.5 16.5Z" fill="black"/>
</svg>
