<svg width="24" height="24" viewBox="0 0 24 24" fill="none" xmlns="http://www.w3.org/2000/svg">
<path d="M12 3C9.52441 3 7.5 5.02441 7.5 7.5C7.5 8.25586 7.68457 8.95898 8.01562 9.58594C6.64746 9.25195 4.98047 9 3 9H2.03906L4.66406 19.5H5.25C7.80469 19.5 9.375 19.8662 10.2891 20.2031C10.7461 20.373 11.0361 20.54 11.2031 20.6484C11.3701 20.7568 11.3906 20.7656 11.3906 20.7656L11.6016 21H12.3984L12.6094 20.7656C12.6094 20.7656 12.6299 20.7568 12.7969 20.6484C12.9639 20.54 13.2539 20.373 13.7109 20.2031C14.625 19.8662 16.1953 19.5 18.75 19.5H19.3359L21.9609 9H21C19.0283 9 17.3643 9.2373 16.0078 9.5625C16.3301 8.94434 16.5 8.24414 16.5 7.5C16.5 5.02441 14.4756 3 12 3ZM12 4.5C13.667 4.5 15 5.83301 15 7.5C15 9.16699 13.667 10.5 12 10.5C10.333 10.5 9 9.16699 9 7.5C9 5.83301 10.333 4.5 12 4.5ZM3.98438 10.5938C6.31641 10.708 8.2207 11.1123 9.46875 11.5781C10.4736 11.9531 10.9688 12.2432 11.25 12.4219V18.9844C11.1152 18.9229 10.9922 18.8584 10.8281 18.7969C9.81445 18.4219 8.15039 18.1055 5.83594 18.0469L3.98438 10.5938ZM20.0156 10.5938L18.1641 18.0469C15.8496 18.1055 14.1855 18.4219 13.1719 18.7969C13.0078 18.8584 12.8848 18.9229 12.75 18.9844V12.4219C13.0312 12.2402 13.5234 11.9473 14.5078 11.5781C15.7471 11.1123 17.6543 10.708 20.0156 10.5938Z" fill="black"/>
</svg>
