<svg width="24" height="24" viewBox="0 0 24 24" fill="none" xmlns="http://www.w3.org/2000/svg">
<path d="M3.75 3.75V20.25H20.25V3.75H3.75ZM5.25 5.25H18.75V18.75H5.25V5.25ZM8.25 7.5V11.6323V16.4927C12.6975 16.4927 13.5874 16.5527 14.4199 16.3052C14.9074 16.1552 16.2422 15.6753 16.2422 13.9878C16.2422 13.2378 16.0174 11.9693 14.5474 11.6543V11.6323H14.2705C15.0205 11.2948 15.4922 10.6582 15.4922 9.7207C15.4922 9.4807 15.5596 7.5 12.9346 7.5H8.25ZM9.75 9H12.75C13.8818 9 13.9922 9.63993 13.9922 10.1177C13.9922 11.2832 12.7725 11.25 12.75 11.25H9.75V9ZM9.75 12.75H13.3198C14.7156 12.75 14.7422 13.6324 14.7422 13.8604C14.7422 15.0304 13.5335 15 13.3872 15H9.75V12.75Z" fill="black"/>
</svg>
