<svg width="24" height="24" viewBox="0 0 24 24" fill="none" xmlns="http://www.w3.org/2000/svg">
<path d="M3.75 3.75V5.25V6.75H5.25V5.25H6.75V3.75H3.75ZM8.25 3.75V5.25H11.25V3.75H8.25ZM12.75 3.75V5.25H15.75V3.75H12.75ZM17.25 3.75V5.25H18.75V6.75H20.25V5.25V3.75H18.75H17.25ZM11.25 6.75V9.75H12.75V6.75H11.25ZM3.75 8.25V11.25H5.25V8.25H3.75ZM18.75 8.25V11.25H20.25V8.25H18.75ZM6.75 11.25V12.75H9.75V11.25H6.75ZM11.25 11.25V12.75H12.75V11.25H11.25ZM14.25 11.25V12.75H17.25V11.25H14.25ZM3.75 12.75V15.75H5.25V12.75H3.75ZM18.75 12.75V15.75H20.25V12.75H18.75ZM11.25 14.25V17.25H12.75V14.25H11.25ZM3.75 17.25V20.25H5.25H6.75V18.75H5.25V17.25H3.75ZM18.75 17.25V18.75H17.25V20.25H18.75H20.25V18.75V17.25H18.75ZM8.25 18.75V20.25H11.25V18.75H8.25ZM12.75 18.75V20.25H15.75V18.75H12.75Z" fill="black"/>
</svg>
