<svg width="24" height="24" viewBox="0 0 24 24" fill="none" xmlns="http://www.w3.org/2000/svg">
<path d="M12 2.25C6.624 2.25 2.25 6.624 2.25 12C2.25 17.376 6.624 21.75 12 21.75C17.376 21.75 21.75 17.376 21.75 12C21.75 6.624 17.376 2.25 12 2.25ZM12 3.75C16.5487 3.75 20.25 7.45125 20.25 12C20.25 16.5487 16.5487 20.25 12 20.25C7.45125 20.25 3.75 16.5487 3.75 12C3.75 7.45125 7.45125 3.75 12 3.75ZM10.875 6.75C10.5766 6.75 10.2905 6.86853 10.0795 7.0795C9.86853 7.29048 9.75 7.57663 9.75 7.875C9.75 8.17337 9.86853 8.45952 10.0795 8.6705C10.2905 8.88147 10.5766 9 10.875 9C11.1734 9 11.4595 8.88147 11.6705 8.6705C11.8815 8.45952 12 8.17337 12 7.875C12 7.57663 11.8815 7.29048 11.6705 7.0795C11.4595 6.86853 11.1734 6.75 10.875 6.75ZM7.875 9.75C7.57663 9.75 7.29048 9.86853 7.0795 10.0795C6.86853 10.2905 6.75 10.5766 6.75 10.875C6.75 11.1734 6.86853 11.4595 7.0795 11.6705C7.29048 11.8815 7.57663 12 7.875 12C8.17337 12 8.45952 11.8815 8.6705 11.6705C8.88147 11.4595 9 11.1734 9 10.875C9 10.5766 8.88147 10.2905 8.6705 10.0795C8.45952 9.86853 8.17337 9.75 7.875 9.75ZM11.625 10.5C11.3266 10.5 11.0405 10.6185 10.8295 10.8295C10.6185 11.0405 10.5 11.3266 10.5 11.625C10.5 11.9234 10.6185 12.2095 10.8295 12.4205C11.0405 12.6315 11.3266 12.75 11.625 12.75C11.9234 12.75 12.2095 12.6315 12.4205 12.4205C12.6315 12.2095 12.75 11.9234 12.75 11.625C12.75 11.3266 12.6315 11.0405 12.4205 10.8295C12.2095 10.6185 11.9234 10.5 11.625 10.5Z" fill="black"/>
</svg>
