<svg width="24" height="24" viewBox="0 0 24 24" fill="none" xmlns="http://www.w3.org/2000/svg">
<path d="M9 4.5C8.1709 4.5 7.5 5.1709 7.5 6C7.5 6.8291 8.1709 7.5 9 7.5C9.8291 7.5 10.5 6.8291 10.5 6C10.5 5.1709 9.8291 4.5 9 4.5ZM15 4.5C14.1709 4.5 13.5 5.1709 13.5 6C13.5 6.8291 14.1709 7.5 15 7.5C15.8291 7.5 16.5 6.8291 16.5 6C16.5 5.1709 15.8291 4.5 15 4.5ZM9 10.5C8.1709 10.5 7.5 11.1709 7.5 12C7.5 12.8291 8.1709 13.5 9 13.5C9.8291 13.5 10.5 12.8291 10.5 12C10.5 11.1709 9.8291 10.5 9 10.5ZM15 10.5C14.1709 10.5 13.5 11.1709 13.5 12C13.5 12.8291 14.1709 13.5 15 13.5C15.8291 13.5 16.5 12.8291 16.5 12C16.5 11.1709 15.8291 10.5 15 10.5ZM9 16.5C8.1709 16.5 7.5 17.1709 7.5 18C7.5 18.8291 8.1709 19.5 9 19.5C9.8291 19.5 10.5 18.8291 10.5 18C10.5 17.1709 9.8291 16.5 9 16.5ZM15 16.5C14.1709 16.5 13.5 17.1709 13.5 18C13.5 18.8291 14.1709 19.5 15 19.5C15.8291 19.5 16.5 18.8291 16.5 18C16.5 17.1709 15.8291 16.5 15 16.5Z" fill="black"/>
</svg>
