<svg width="24" height="24" viewBox="0 0 24 24" fill="none" xmlns="http://www.w3.org/2000/svg">
<path d="M12 3C6.6165 3 3 6.32277 3 9.42627C3 10.5108 3.58125 11.3939 4.5 11.7847V18C4.5 19.6545 5.8455 21 7.5 21H16.5C18.1545 21 19.5 19.6545 19.5 18V11.7847C20.4188 11.3939 21 10.5108 21 9.42627C21 6.32277 17.3835 3 12 3ZM12 4.5C16.8285 4.5 19.5 7.41252 19.5 9.42627C19.5 10.0023 19.1751 10.3969 18.6328 10.4824L18 10.5835V18C18 18.8273 17.3273 19.5 16.5 19.5H7.5C6.67275 19.5 6 18.8273 6 18V10.5835L5.36719 10.4839C4.82494 10.3976 4.5 10.0023 4.5 9.42627C4.5 7.41252 7.1715 4.5 12 4.5Z" fill="black"/>
</svg>
