<svg width="24" height="24" viewBox="0 0 24 24" fill="none" xmlns="http://www.w3.org/2000/svg">
<path d="M5.39063 3.14062C2.16797 6.27832 2.17969 11.4844 5.39063 14.6953L6.44531 13.6406C3.80566 11.001 3.81738 6.7793 6.44531 4.21875L5.39063 3.14062ZM18.6094 3.21094L17.5547 4.28906C20.1973 6.93164 20.1973 11.0684 17.5547 13.7109L18.6094 14.7891C21.8145 11.584 21.8145 6.41602 18.6094 3.21094ZM7.42969 5.39062C5.49024 7.33008 5.49024 10.5059 7.42969 12.4453L8.48438 11.3906C7.125 10.0312 7.125 7.80469 8.48438 6.44531L7.42969 5.39062ZM16.5703 5.46094L15.5156 6.53906C16.875 7.89844 16.875 10.1016 15.5156 11.4609L16.5703 12.5391C18.5098 10.5996 18.5098 7.40039 16.5703 5.46094ZM12 7.5C11.1709 7.5 10.5 8.1709 10.5 9C10.5 9.46875 10.7256 9.87305 11.0625 10.1484L7.73438 19.5H6.75V21H9.75V19.5H9.30469L12 11.9766L14.6953 19.5H14.25V21H17.25V19.5H16.2656L12.9375 10.1484C13.2744 9.87305 13.5 9.46875 13.5 9C13.5 8.1709 12.8291 7.5 12 7.5Z" fill="black"/>
</svg>
