<svg width="24" height="24" viewBox="0 0 24 24" fill="none" xmlns="http://www.w3.org/2000/svg">
<path d="M21.2109 1.71094L13.7109 9.21094L12.75 8.25V8.22656L12.7266 8.20312C12.2461 7.77539 11.6191 7.57031 11.0156 7.57031C10.4121 7.57031 9.8291 7.7959 9.375 8.25L9.25781 8.34375L8.88281 8.71875L8.625 8.92969L1.78125 14.25L1.125 14.7891L9.21094 22.875L9.75 22.2188L15.0469 15.4219L15.0703 15.4453L15.8203 14.6953H15.8438L15.8672 14.6719C16.7227 13.708 16.7285 12.2285 15.8203 11.3203L14.7891 10.2891L22.2891 2.78906L21.2109 1.71094ZM11.0156 9.07031C11.2471 9.06445 11.502 9.14355 11.6953 9.30469C11.7041 9.31055 11.71 9.32227 11.7188 9.32812L14.7656 12.375C15.0469 12.6562 15.0732 13.2539 14.7656 13.6406C14.7539 13.6553 14.7539 13.6729 14.7422 13.6875L14.5078 13.8984L10.1719 9.5625L10.4297 9.30469C10.5732 9.16113 10.7842 9.07617 11.0156 9.07031ZM9.02344 10.5234L13.4766 14.9766L9.07031 20.6016L7.99219 19.5234L9.60938 17.8359L8.53125 16.8047L6.9375 18.4688L5.95312 17.4844L8.85938 14.5547L7.80469 13.5L4.875 16.4062L3.39844 14.9297L9.02344 10.5234Z" fill="black"/>
</svg>
