<svg width="24" height="24" viewBox="0 0 24 24" fill="none" xmlns="http://www.w3.org/2000/svg">
<path d="M12 2.25C6.62109 2.25 2.25 6.62109 2.25 12C2.25 17.3789 6.62109 21.75 12 21.75C17.3789 21.75 21.75 17.3789 21.75 12C21.75 6.62109 17.3789 2.25 12 2.25ZM12 3C16.9746 3 21 7.02539 21 12C21 16.9746 16.9746 21 12 21C7.02539 21 3 16.9746 3 12C3 7.02539 7.02539 3 12 3ZM12 4.5C7.86621 4.5 4.5 7.86621 4.5 12C4.5 16.1338 7.86621 19.5 12 19.5C16.1338 19.5 19.5 16.1338 19.5 12C19.5 7.86621 16.1338 4.5 12 4.5ZM12 6C15.3223 6 18 8.67773 18 12C18 15.3223 15.3223 18 12 18C8.67773 18 6 15.3223 6 12C6 8.67773 8.67773 6 12 6ZM12 7.5C9.52441 7.5 7.5 9.52441 7.5 12C7.5 14.4756 9.52441 16.5 12 16.5C14.4756 16.5 16.5 14.4756 16.5 12C16.5 9.52441 14.4756 7.5 12 7.5ZM12 9C13.667 9 15 10.333 15 12C15 13.667 13.667 15 12 15C10.333 15 9 13.667 9 12C9 10.333 10.333 9 12 9ZM12 10.5C11.1709 10.5 10.5 11.1709 10.5 12C10.5 12.8291 11.1709 13.5 12 13.5C12.8291 13.5 13.5 12.8291 13.5 12C13.5 11.1709 12.8291 10.5 12 10.5Z" fill="black"/>
</svg>
