<svg width="24" height="24" viewBox="0 0 24 24" fill="none" xmlns="http://www.w3.org/2000/svg">
<path d="M3.75 3.75V8.25H8.25V3.75H3.75ZM9.75 3.75V8.25H14.25V3.75H9.75ZM15.75 3.75V8.25H20.25V3.75H15.75ZM5.25 5.25H6.75V6.75H5.25V5.25ZM11.25 5.25H12.75V6.75H11.25V5.25ZM17.25 5.25H18.75V6.75H17.25V5.25ZM3.75 9.75V14.25H8.25V9.75H3.75ZM9.75 9.75V14.25H14.25V9.75H9.75ZM15.75 9.75V14.25H20.25V9.75H15.75ZM5.25 11.25H6.75V12.75H5.25V11.25ZM11.25 11.25H12.75V12.75H11.25V11.25ZM17.25 11.25H18.75V12.75H17.25V11.25ZM3.75 15.75V20.25H8.25V15.75H3.75ZM9.75 15.75V20.25H14.25V15.75H9.75ZM15.75 15.75V20.25H20.25V15.75H15.75ZM5.25 17.25H6.75V18.75H5.25V17.25ZM11.25 17.25H12.75V18.75H11.25V17.25Z" fill="black"/>
</svg>
