<svg width="24" height="24" viewBox="0 0 24 24" fill="none" xmlns="http://www.w3.org/2000/svg">
<path d="M6.75 3C5.10059 3 3.75 4.35059 3.75 6V9.75H2.25V12H3.75V20.25C3.75 20.6631 4.08691 21 4.5 21H6.75L7.00781 20.25H16.9922L17.25 21H19.5C19.9131 21 20.25 20.6631 20.25 20.25V12H21.75V9.75H20.25V6C20.25 4.35059 18.8994 3 17.25 3H6.75ZM6.75 4.5H17.25C18.0879 4.5 18.75 5.16211 18.75 6H5.25C5.25 5.16211 5.91211 4.5 6.75 4.5ZM5.25 7.5H11.25V12.75H5.25V7.5ZM12.75 7.5H18.75V12.75H12.75V7.5ZM5.25 14.25H18.75V18.75H5.25V14.25ZM6 15.75V17.25H9V15.75H6ZM15 15.75V17.25H18V15.75H15Z" fill="black"/>
</svg>
