<svg width="24" height="24" viewBox="0 0 24 24" fill="none" xmlns="http://www.w3.org/2000/svg">
<path d="M9 2.25C8.02379 2.25 7.1984 2.87906 6.8877 3.75H6.75C5.1 3.75 3.75 5.1 3.75 6.75V10.5H2.25V12.75H3.75V20.25C3.75 20.6625 4.0875 21 4.5 21H6.75L7.00488 20.25H16.9951L17.25 21H19.5C19.9125 21 20.25 20.6625 20.25 20.25V12.75H21.75V10.5H20.25V6.75C20.25 5.1 18.9 3.75 17.25 3.75H17.1123C16.8016 2.87906 15.9762 2.25 15 2.25H9ZM9 3.75H15C15.414 3.75 15.75 4.08675 15.75 4.5V5.25H17.25C18.09 5.25 18.75 5.91 18.75 6.75V8.25H5.25V6.75C5.25 5.91 5.91 5.25 6.75 5.25H8.25V4.5C8.25 4.08675 8.586 3.75 9 3.75ZM9.75 5.25V6.75H14.25V5.25H9.75ZM5.25 9.75H11.25V12.75H5.25V9.75ZM12.75 9.75H18.75V12.75H12.75V9.75ZM5.25 14.25H18.75V18.75H5.25V14.25ZM6 15.75V17.25H9V15.75H6ZM15 15.75V17.25H18V15.75H15Z" fill="black"/>
</svg>
