<svg width="24" height="24" viewBox="0 0 24 24" fill="none" xmlns="http://www.w3.org/2000/svg">
<path d="M10.5 2.25C10.11 2.25 9.70541 2.38541 9.42041 2.67041C9.13541 2.95541 9 3.36 9 3.75V4.5H2.25V19.5H10.6494C10.5519 19.02 10.5 18.5175 10.5 18H3.75V13.0796C4.1925 13.3346 4.7025 13.5 5.25 13.5H12.0073C12.4273 12.93 12.9373 12.42 13.5073 12H5.25C4.3575 12 3.75 11.3925 3.75 10.5V6H20.25V10.5C20.25 10.62 20.2432 10.7319 20.2207 10.8369C20.7607 11.0019 21.27 11.2274 21.75 11.5049V4.5H15V3.75C15 3.36 14.8646 2.95541 14.5796 2.67041C14.2946 2.38541 13.89 2.25 13.5 2.25H10.5ZM10.5 3.75H13.5V4.5H10.5V3.75ZM6.75 9V11.25H8.25V9H6.75ZM15.75 9V10.8457C15.99 10.7707 16.235 10.7068 16.4854 10.6553C16.7357 10.6037 16.9913 10.5643 17.25 10.5381V9H15.75ZM18 12C14.6925 12 12 14.6925 12 18C12 21.3075 14.6925 24 18 24C21.3075 24 24 21.3075 24 18C24 14.6925 21.3075 12 18 12ZM18 13.5C20.49 13.5 22.5 15.51 22.5 18C22.5 20.49 20.49 22.5 18 22.5C15.51 22.5 13.5 20.49 13.5 18C13.5 15.51 15.51 13.5 18 13.5ZM17.25 14.25V18.75H21V17.25H18.75V14.25H17.25Z" fill="black"/>
</svg>
