<svg width="24" height="24" viewBox="0 0 24 24" fill="none" xmlns="http://www.w3.org/2000/svg">
<path d="M12 3.1582C5.79 3.1582 0.75 7.1175 0.75 12C0.75 16.8825 5.79 20.8418 12 20.8418C18.21 20.8418 23.25 16.8825 23.25 12C23.25 7.1175 18.21 3.1582 12 3.1582ZM6.62988 6H11.5122C13.8747 6 14.6927 7.10982 14.4302 8.81982C14.4227 8.87982 14.3855 9.01477 14.3555 9.13477C14.093 9.05227 13.8145 9 13.522 9C11.8645 9 10.522 10.3425 10.522 12C10.522 13.5225 11.6623 14.7669 13.1323 14.9619C13.1248 14.9619 13.125 14.9705 13.125 14.978C12.42 16.3205 11.025 17.2275 8.8125 17.25C8.8125 17.25 3.7575 17.2575 3.75 17.25L6.62988 6ZM16.0122 6H19.5L17.4082 14.25H21L20.25 17.25H13.207L13.7695 14.978C15.3145 14.8505 16.522 13.575 16.522 12C16.522 10.9425 15.9746 10.013 15.1421 9.48047L16.0122 6ZM8.99268 8.25L8.50488 10.3198H9.39697C10.1545 10.3198 10.8832 9.72773 11.0332 9.05273C11.1982 8.31023 10.6798 8.25 9.88477 8.25H8.99268ZM12.3223 10.0649H13.5527L14.1372 11.5576L14.5122 10.0649H15.772L14.9019 13.7402H13.5073L13.0723 12.2856L12.7646 13.7402H11.272L12.3223 10.0649ZM7.95703 12.5552L7.37988 15H8.41553C9.09053 15 9.75738 14.8657 10.0049 13.8457C10.2374 12.8782 9.66768 12.5552 8.99268 12.5552H7.95703Z" fill="black"/>
</svg>
