<svg width="24" height="24" viewBox="0 0 24 24" fill="none" xmlns="http://www.w3.org/2000/svg">
<path d="M4.5 2.25V21.75H19.5V2.25H4.5ZM6 3.75H18V20.25H6V3.75ZM7.5 5.25V9.75H16.5V5.25H7.5ZM9 6.75H15V8.25H9V6.75ZM8.25 11.25V12.75H9.75V11.25H8.25ZM11.25 11.25V12.75H12.75V11.25H11.25ZM14.25 11.25V12.75H15.75V11.25H14.25ZM8.25 14.25V15.75H9.75V14.25H8.25ZM11.25 14.25V15.75H12.75V14.25H11.25ZM14.25 14.25V15.75H15.75V14.25H14.25ZM8.25 17.25V18.75H9.75V17.25H8.25ZM11.25 17.25V18.75H12.75V17.25H11.25ZM14.25 17.25V18.75H15.75V17.25H14.25Z" fill="black"/>
</svg>
