<svg width="24" height="24" viewBox="0 0 24 24" fill="none" xmlns="http://www.w3.org/2000/svg">
<path d="M8.625 4.5L8.39062 4.80469L7.5 6H2.25V19.5H21.75V6H16.5L15.6094 4.80469L15.375 4.5H8.625ZM9.375 6H14.625L15.5156 7.19531L15.75 7.5H20.25V18H3.75V7.5H8.25L8.48438 7.19531L9.375 6ZM6 8.25C5.58691 8.25 5.25 8.58691 5.25 9C5.25 9.41309 5.58691 9.75 6 9.75C6.41309 9.75 6.75 9.41309 6.75 9C6.75 8.58691 6.41309 8.25 6 8.25ZM12 8.25C9.52441 8.25 7.5 10.2744 7.5 12.75C7.5 15.2256 9.52441 17.25 12 17.25C14.4756 17.25 16.5 15.2256 16.5 12.75C16.5 10.2744 14.4756 8.25 12 8.25ZM12 9.75C13.667 9.75 15 11.083 15 12.75C15 14.417 13.667 15.75 12 15.75C10.333 15.75 9 14.417 9 12.75C9 11.083 10.333 9.75 12 9.75Z" fill="black"/>
</svg>
