<svg width="24" height="24" viewBox="0 0 24 24" fill="none" xmlns="http://www.w3.org/2000/svg">
<path d="M8.625 4.5L8.39062 4.80469L7.5 6H6.75V5.25H3.75V6H2.25V19.5H21.75V6H16.5L15.6094 4.80469L15.375 4.5H8.625ZM9.375 6H14.625L15.5156 7.19531L15.75 7.5H20.25V10.5H15.8906C15.1084 9.16113 13.6553 8.25 12 8.25C10.3447 8.25 8.8916 9.16113 8.10938 10.5H3.75V7.5H8.25L8.48438 7.19531L9.375 6ZM17.25 8.25V9.75H18.75V8.25H17.25ZM12 9.75C13.667 9.75 15 11.083 15 12.75C15 14.417 13.667 15.75 12 15.75C10.333 15.75 9 14.417 9 12.75C9 11.083 10.333 9.75 12 9.75ZM3.75 12H7.57031C7.5293 12.2402 7.5 12.498 7.5 12.75C7.5 15.2256 9.52441 17.25 12 17.25C14.4756 17.25 16.5 15.2256 16.5 12.75C16.5 12.498 16.4707 12.2402 16.4297 12H20.25V18H3.75V12Z" fill="black"/>
</svg>
