<svg width="24" height="24" viewBox="0 0 24 24" fill="none" xmlns="http://www.w3.org/2000/svg">
<path d="M7.89844 3.65625L7.61719 4.10156C7.61719 4.10156 6.6709 5.55762 5.46094 7.21875C4.25098 8.87988 2.72461 10.7607 1.82812 11.3906L1.45312 11.6484L1.5 12.0938L2.25 18.8438L2.32031 19.5H3C4.11328 19.5 5.41113 19.5586 6.70312 19.6406L7.5 19.6875V13.5H9V19.8047L9.67969 19.875C11.8008 20.0625 13.4062 20.25 13.4062 20.25H13.5234L21.7266 18.6094L21.75 18.0234C21.75 18.0234 21.8174 16.7725 21.9375 15.3047C22.0576 13.8369 22.2539 12.1113 22.4531 11.4844L22.6172 10.9688L22.2188 10.6641C19.6318 8.66016 17.1562 4.14844 17.1562 4.14844L16.9219 3.67969L16.3828 3.75C16.3828 3.75 11.5635 4.41504 8.39062 3.77344L7.89844 3.65625ZM16.1016 5.29688C16.4092 5.86816 17.9268 8.58105 20.1094 10.7344L14.4609 11.625C12.6123 9.84961 10.7285 7.04297 9.70312 5.41406C12.6064 5.71289 15.4717 5.38184 16.1016 5.29688ZM8.20312 5.90625C9.1875 7.49121 11.2529 10.6025 13.4297 12.6797C12.9375 14.6865 12.7881 17.3613 12.75 18.6797C12.249 18.627 11.6455 18.5537 10.5 18.4453V12H6V18.1172C5.2002 18.0732 4.42383 18.0352 3.67969 18.0234L3.04688 12.2578C4.25684 11.2734 5.55176 9.65625 6.67969 8.10938C7.41211 7.10156 7.86914 6.41309 8.20312 5.90625ZM20.8359 12.1641C20.6602 13.0576 20.5254 14.1123 20.4375 15.1641C20.3408 16.3506 20.3174 17.001 20.2969 17.3906L14.2734 18.6094C14.3115 17.2881 14.4492 14.7891 14.8359 13.1016L20.8359 12.1641Z" fill="black"/>
</svg>
