<svg width="24" height="24" viewBox="0 0 24 24" fill="none" xmlns="http://www.w3.org/2000/svg">
<path d="M12 2.27344L11.4609 2.8125L9.82031 4.47656L8.17969 4.99219L7.5 5.20312L7.66406 5.88281L8.55469 9.49219L7.26562 8.60156L6.75 8.25L5.08594 9.91406L2.88281 10.8984L2.22656 11.2031L2.48438 11.8594L3.32812 13.9922L3.09375 15.7734L3 16.5234L8.25 17.1797V18.75H11.25V21.75H12.75V18.75H15.75V17.1797L21 16.5234L20.9062 15.7734L20.6719 13.9922L21.5156 11.8594L21.7734 11.2031L21.1172 10.8984L18.9141 9.91406L17.25 8.25L16.7344 8.60156L15.4453 9.49219L16.3359 5.88281L16.5 5.20312L15.8203 4.99219L14.1797 4.47656L12.5391 2.8125L12 2.27344ZM12 4.40625L13.4062 5.8125L13.5703 5.85938L14.7188 6.21094L13.5234 11.0625L13.0547 13.0078L14.6719 11.8594L17.0625 10.1953L17.9297 11.0859L18.0469 11.1797L18.1641 11.25L19.8516 12L19.2188 13.6172L19.1484 13.8047L19.1719 13.9922L19.3125 15.2109L14.9062 15.75L14.25 15.8438V17.25H9.75V15.8438L9.09375 15.75L4.6875 15.2109L4.82812 13.9922L4.85156 13.8047L4.78125 13.6172L4.14844 12L5.83594 11.25L5.95312 11.1797L6.07031 11.0859L6.9375 10.1953L9.32812 11.8594L10.9453 13.0078L10.4766 11.0625L9.28125 6.21094L10.4297 5.85938L10.5938 5.8125L12 4.40625Z" fill="black"/>
</svg>
