<svg width="24" height="24" viewBox="0 0 24 24" fill="none" xmlns="http://www.w3.org/2000/svg">
<path d="M13.5 1.5C11.8887 1.5 10.3652 2.13574 9.23438 3.28125L8.69531 3.82031L8.17969 4.35938L8.71875 4.875L10.8516 6.98438L11.3672 7.52344L11.9062 6.98438L12.4219 6.44531C12.709 6.15527 13.0898 6 13.5 6C14.335 6 15 6.66504 15 7.5C15 7.90723 14.8418 8.26758 14.5547 8.55469L4.28906 18.7734L3.75 19.3125L4.28906 19.8281L6.39844 21.9609L6.9375 22.5L7.45312 21.9609L17.7422 11.7422C18.873 10.6113 19.5 9.09668 19.5 7.5C19.5 4.19824 16.8018 1.5 13.5 1.5ZM13.5 3C14.1035 3 14.6865 3.11426 15.2109 3.32812L14.4141 4.66406C14.1387 4.57617 13.8486 4.50586 13.5469 4.5L13.0781 3.02344C13.2188 3.01172 13.3564 3 13.5 3ZM11.6484 3.42188L12.0938 4.875C11.833 5.01562 11.5781 5.17676 11.3672 5.39062L10.2891 4.33594C10.6846 3.9375 11.1533 3.64453 11.6484 3.42188ZM16.4766 4.125C16.9482 4.54102 17.3379 5.04492 17.6016 5.625L16.1484 6.14062C16.0254 5.90332 15.8818 5.68066 15.7031 5.48438L16.4766 4.125ZM17.9766 7.07812C17.9883 7.21582 18 7.35938 18 7.5C18 8.02148 17.9062 8.52539 17.7422 9H16.1016C16.3418 8.58398 16.4824 8.10645 16.5 7.61719L17.9766 7.07812ZM14.7422 10.5H16.8516C16.7959 10.5615 16.7461 10.6289 16.6875 10.6875L15.375 12H13.2422L14.7422 10.5ZM11.7188 13.5H13.8516L12.3516 15H10.2188L11.7188 13.5ZM8.71875 16.5H10.8281L9.32812 18H7.19531L8.71875 16.5ZM6.07031 19.5H7.80469L6.9375 20.3672L6.07031 19.5Z" fill="black"/>
</svg>
