<svg width="24" height="24" viewBox="0 0 24 24" fill="none" xmlns="http://www.w3.org/2000/svg">
<path d="M21 14.0771V12.1611L19.5938 11.9678C19.5234 11.959 18.6562 11.877 17.6602 11.8711C18.7412 9.84082 19.1602 8.05957 19.1631 8.03906L19.3975 7.01953L18.5215 6.44824L18.4688 6.41602L17.7246 5.92676L16.9395 6.34863C16.752 6.44824 15.5889 7.08691 14.4229 8.10059C14.2031 6.13184 13.6963 4.48242 13.4883 3.95215L13.1162 3H10.9307L10.5469 3.91992C10.5029 4.02246 9.60059 6.19922 9.37793 8.78906C8.1416 7.78125 6.04688 6.62402 6.04688 6.62402L4.46484 7.85742L4.61719 8.63379C4.77832 9.39551 5.58984 11.25 5.58984 11.25C4.74902 11.25 3 11.5459 3 11.5459V13.5264C3 13.5264 4.40625 14.7188 6.02637 15.5771C5.95898 15.6416 5.91211 15.6885 5.8916 15.709L5.18848 16.3125L5.39648 17.1182L5.61914 17.9736L6.4834 18.2256C6.60938 18.2578 7.41211 18.4189 8.29102 18.4189C8.91211 18.4189 9.49805 18.3398 10.0371 18.1816C10.0928 18.167 10.1484 18.1523 10.2041 18.1348C10.3623 19.04 10.5557 19.7607 10.5908 19.8955L10.8955 21H15.75C14.7803 20.001 14.1152 18.4365 14.1152 18.4365C14.1064 18.4277 14.1006 18.416 14.0918 18.4043C14.6865 18.6562 15.4688 18.75 16.1953 18.7676L17.2178 18.7031L17.6279 18.0322L18.0293 17.3438C18.0293 17.3438 17.6865 16.5322 17.2969 16.1807C18.4512 15.7559 19.8369 15.126 20.4258 14.5664L21 14.0771ZM16.125 14.9883C15.6885 15.1143 14.4229 15.2871 13.9541 15.3457C13.9541 15.3457 15.7646 16.3916 16.0605 17.1738C16.0605 17.1826 16.0664 17.1914 16.0664 17.2002C16.0488 17.2002 16.0312 17.1885 16.0137 17.1914C14.6074 17.2998 12.3955 16.0635 12.1436 15.8467C12.1963 16.6494 12.4834 18.5244 13.1602 19.4766L13.1396 19.5H12.0381C12.0381 19.5 11.2178 17.3027 11.2734 15.7734C10.8896 16.1016 10.4443 16.5234 9.61816 16.7432C9.16406 16.875 8.70117 16.9189 8.29102 16.9189C7.64649 16.9189 7.00488 16.8105 6.85547 16.7725L6.84961 16.7432C6.84961 16.7432 7.91602 15.7588 9.29004 15.4307C9.4541 15.3779 9.62109 15.3223 9.78516 15.3223C9.23438 15.2139 8.68652 15.1055 8.08008 14.8857C6.27539 14.2207 4.72852 13.04 4.58203 12.8936L4.5791 12.8613C4.5791 12.8613 5.15332 12.832 5.58984 12.832C6.29883 12.832 7.45898 12.9141 8.68359 13.3535C9.01465 13.4648 9.3457 13.5732 9.62109 13.7373C9.16406 13.3359 6.89063 11.4375 6.2168 8.58105C6.2168 8.58105 9.51562 10.2803 11.2354 12.999C10.9834 11.8125 10.8311 10.5205 10.8311 9.90234C10.8311 7.12207 11.9297 4.5 11.9297 4.5H12.0938C12.3516 5.15918 13.0283 7.49707 13.0283 9.90234C13.0283 10.7168 12.7998 12.6064 12.7559 12.9727C12.876 12.6797 13.3359 11.7773 13.96 10.8281C15.1582 9.00293 17.6484 7.66992 17.6484 7.66992L17.7012 7.70508C17.6162 8.08008 17.0332 10.1836 15.7236 12.2051C15.3984 12.709 14.3818 13.667 14.2939 13.7373C14.4492 13.6992 14.9795 13.4912 16.5498 13.4004C16.9277 13.3799 17.2734 13.3711 17.5811 13.3711C18.5537 13.3711 19.3887 13.4531 19.3887 13.4531L19.3916 13.4795C18.9316 13.916 17.4434 14.6104 16.125 14.9883Z" fill="black"/>
</svg>
