<svg width="24" height="24" viewBox="0 0 24 24" fill="none" xmlns="http://www.w3.org/2000/svg">
<path d="M6.375 3.75C4.10025 3.75 2.25 5.601 2.25 7.875V16.125C2.25 18.399 4.10025 20.25 6.375 20.25C8.64975 20.25 10.5 18.399 10.5 16.125V12.3032L15.041 18.5522C15.8473 19.6622 17.1065 20.2529 18.3838 20.2529C19.2245 20.2529 20.0725 19.9966 20.8037 19.4663V19.4648C22.6435 18.1276 23.0513 15.5434 21.7148 13.7036L16.8662 7.02832C15.5275 5.18782 12.9455 4.77919 11.105 6.11719C10.8201 6.32423 10.5745 6.56379 10.3594 6.82324C9.89254 5.05771 8.28564 3.75 6.375 3.75ZM6.375 5.25C7.8225 5.25 9 6.4275 9 7.875V11.25H3.75V7.875C3.75 6.4275 4.9275 5.25 6.375 5.25ZM13.5264 6.8291C14.3386 6.8291 15.1396 7.20441 15.6533 7.91016L17.6367 10.6392L13.3901 13.7271L11.4053 10.9966C10.554 9.82508 10.8161 8.18133 11.9868 7.33008C12.4518 6.99258 12.9916 6.8291 13.5264 6.8291ZM18.5186 11.8521L20.5034 14.584C21.3539 15.7555 21.0926 17.4007 19.9219 18.252C18.7511 19.1032 17.1059 18.8419 16.2554 17.6704L14.272 14.9399L18.5186 11.8521ZM3.75 12.75H9V16.125C9 17.5725 7.8225 18.75 6.375 18.75C4.9275 18.75 3.75 17.5725 3.75 16.125V12.75Z" fill="black"/>
</svg>
