<svg width="24" height="24" viewBox="0 0 24 24" fill="none" xmlns="http://www.w3.org/2000/svg">
<path d="M7.125 4.5C6.13477 4.5 5.25293 5.14453 4.96875 6.09375L3.9375 9.53906L2.48438 9.04688L2.01562 10.4531L3.49219 10.9453L3.02344 12.5391C3.00586 12.6064 2.99707 12.6797 3 12.75V17.25C3 17.2734 3 17.2969 3 17.3203V18.75C3 19.1631 3.33691 19.5 3.75 19.5H6L6.49219 18H10.4297L17.8828 19.1484L18 19.5H20.25C20.2588 19.5 20.2646 19.5 20.2734 19.5C20.4551 19.5 20.6309 19.4326 20.7656 19.3125C20.7744 19.3037 20.7803 19.2979 20.7891 19.2891C20.7979 19.2803 20.8066 19.2744 20.8125 19.2656C20.9268 19.1367 20.9941 18.9697 21 18.7969C21 18.7822 21 18.7646 21 18.75V18.7266C21.0029 18.6943 21.0029 18.665 21 18.6328L20.3672 14.25H21.75V12.75H19.9688L18.375 9.49219L19.0312 7.28906C19.125 6.9873 19.0225 6.66211 18.7734 6.46875L17.3203 5.39062C17.209 5.31152 17.0801 5.26172 16.9453 5.25L7.17188 4.5C7.15723 4.5 7.13965 4.5 7.125 4.5ZM7.125 6L16.5938 6.72656L17.4375 7.35938L16.8516 9.32812C16.793 9.51562 16.8105 9.71777 16.8984 9.89062L18.0234 12.1875L13.4297 10.5938L13.3359 10.5469H13.2422L5.41406 9.82031L6.39844 6.53906C6.49512 6.2168 6.79102 6 7.125 6ZM4.96875 11.2969L13.0547 12.0469H13.1016L18.8203 14.0625L19.3594 17.8359L10.6641 16.5C10.626 16.4971 10.585 16.4971 10.5469 16.5H9.67969L10.0078 15.75L13.2422 16.2188L15.1875 16.5L14.25 15L9 14.25L8.0625 16.5H4.5V12.8906L4.96875 11.2969ZM6.375 12C5.75391 12 5.25 12.5039 5.25 13.125C5.25 13.7461 5.75391 14.25 6.375 14.25C6.99609 14.25 7.5 13.7461 7.5 13.125C7.5 12.5039 6.99609 12 6.375 12ZM15.6562 14.0625C15.4043 14.7686 15.7705 15.5449 16.4766 15.7969C17.1826 16.0488 17.959 15.6826 18.2109 14.9766L15.6562 14.0625Z" fill="black"/>
</svg>
