<svg width="24" height="24" viewBox="0 0 24 24" fill="none" xmlns="http://www.w3.org/2000/svg">
<path d="M4.94531 4.5C3.94336 4.5 3.01758 5.00098 2.46094 5.83594L0.375 8.95312C0.128906 9.32227 0 9.75 0 10.1953V15.1641C0 15.8496 0.459961 16.4502 1.125 16.6172L3.07031 17.1094C3.35156 18.4717 4.55859 19.5 6 19.5C7.38867 19.5 8.54883 18.5391 8.88281 17.25H15.8672C16.2012 18.5391 17.3613 19.5 18.75 19.5C20.1387 19.5 21.2988 18.5391 21.6328 17.25H22.5C23.3203 17.25 24 16.5703 24 15.75V13.0078C24 11.6338 23.0596 10.4326 21.7266 10.1016L17.6719 9.07031L14.7422 5.57812C14.1709 4.89551 13.3359 4.5 12.4453 4.5H4.94531ZM4.94531 6H8.25V9H2.15625L3.70312 6.67969V6.65625C3.98145 6.2373 4.44141 6 4.94531 6ZM9.75 6H12.4453C12.8906 6 13.3096 6.19629 13.5938 6.53906L15.6562 9H9.75V6ZM1.5 10.5H17.1562L21.375 11.5547C22.0459 11.7217 22.5 12.3164 22.5 13.0078V15.75H21.6328C21.2988 14.4609 20.1387 13.5 18.75 13.5C17.3613 13.5 16.2012 14.4609 15.8672 15.75H8.88281C8.54883 14.4609 7.38867 13.5 6 13.5C4.66992 13.5 3.55371 14.3789 3.16406 15.5859L1.5 15.1641V10.5ZM6 15C6.83789 15 7.5 15.6621 7.5 16.5C7.5 17.3379 6.83789 18 6 18C5.16211 18 4.5 17.3379 4.5 16.5C4.5 15.6621 5.16211 15 6 15ZM18.75 15C19.5879 15 20.25 15.6621 20.25 16.5C20.25 17.3379 19.5879 18 18.75 18C17.9121 18 17.25 17.3379 17.25 16.5C17.25 15.6621 17.9121 15 18.75 15Z" fill="black"/>
</svg>
