<svg width="24" height="24" viewBox="0 0 24 24" fill="none" xmlns="http://www.w3.org/2000/svg">
<path d="M3 5.25C2.58691 5.25 2.25 5.58691 2.25 6C2.25 6.41309 2.58691 6.75 3 6.75H4.66406L6.63281 14.625C6.7998 15.293 7.39746 15.75 8.08594 15.75H17.4375C18.1143 15.75 18.6885 15.3018 18.8672 14.6484L20.8125 7.5H19.2422L17.4375 14.25H8.08594L6.11719 6.375C5.9502 5.70703 5.35254 5.25 4.66406 5.25H3ZM16.5 15.75C15.2666 15.75 14.25 16.7666 14.25 18C14.25 19.2334 15.2666 20.25 16.5 20.25C17.7334 20.25 18.75 19.2334 18.75 18C18.75 16.7666 17.7334 15.75 16.5 15.75ZM9.75 15.75C8.5166 15.75 7.5 16.7666 7.5 18C7.5 19.2334 8.5166 20.25 9.75 20.25C10.9834 20.25 12 19.2334 12 18C12 16.7666 10.9834 15.75 9.75 15.75ZM12 5.25V9H9.75L12.75 12L15.75 9H13.5V5.25H12ZM9.75 17.25C10.1719 17.25 10.5 17.5781 10.5 18C10.5 18.4219 10.1719 18.75 9.75 18.75C9.32812 18.75 9 18.4219 9 18C9 17.5781 9.32812 17.25 9.75 17.25ZM16.5 17.25C16.9219 17.25 17.25 17.5781 17.25 18C17.25 18.4219 16.9219 18.75 16.5 18.75C16.0781 18.75 15.75 18.4219 15.75 18C15.75 17.5781 16.0781 17.25 16.5 17.25Z" fill="black"/>
</svg>
