<svg width="24" height="24" viewBox="0 0 24 24" fill="none" xmlns="http://www.w3.org/2000/svg">
<path d="M16.5 2.25V5.25C15.1143 5.25 13.79 5.49902 12.5508 5.93262L12.1553 5.07129L12.832 4.76953L12.2227 3.39844L9.4834 4.61719L10.0928 5.98828L10.7842 5.68066L11.168 6.50977C10.3477 6.91992 9.58594 7.42383 8.88574 8.00098L8.29688 7.37402L8.8418 6.87305L7.82812 5.76562L5.61914 7.7959L6.63281 8.90332L7.18945 8.39062L7.79297 9.02637C7.0752 9.78809 6.45703 10.6436 5.95898 11.5723L5.14746 11.1709L5.48438 10.5088L4.14844 9.8291L2.78906 12.5039L4.125 13.1836L4.46777 12.5068L5.32617 12.9346C4.89258 14.0537 4.61719 15.249 4.53809 16.5H3V21H21V2.25H16.5ZM18 3.75H19.5V16.5H6.03809C6.42188 11.0449 10.9453 6.75 16.5 6.75H18V3.75ZM13.5 8.96484C12.6709 8.96484 12 9.63867 12 10.4648C12 11.001 12.2871 11.4961 12.75 11.7656V15H16.5V13.5H14.25V11.7627C14.7129 11.4961 15 11.001 15 10.4648C15 9.63867 14.3291 8.96484 13.5 8.96484ZM4.5 18H19.5V19.5H4.5V18Z" fill="black"/>
</svg>
