<svg width="24" height="24" viewBox="0 0 24 24" fill="none" xmlns="http://www.w3.org/2000/svg">
<path d="M7.5 3C7.5 3.83789 6.83789 4.5 6 4.5H5.25C3.60059 4.5 2.25 5.85059 2.25 7.5C2.25 9.14941 3.60059 10.5 5.25 10.5H6.11719C6.04102 10.8662 6 11.2383 6 11.625V21H7.5V11.625C7.5 9.35156 9.35156 7.5 11.625 7.5C12.3018 7.5 12.9375 7.65527 13.5 7.94531V6.32812C12.9141 6.12012 12.2842 6 11.625 6C9.47461 6 7.60254 7.22168 6.65625 9H5.25C4.41211 9 3.75 8.33789 3.75 7.5C3.75 6.66211 4.41211 6 5.25 6H6C7.64941 6 9 4.64941 9 3H7.5ZM14.25 4.57031V9.375C14.25 11.2881 15.9873 12.75 18 12.75C20.0127 12.75 21.75 11.2881 21.75 9.375V4.57031L20.5781 5.39062L19.3359 6.25781C18.9082 6.10547 18.4863 5.92969 18 5.92969C17.5137 5.92969 17.0918 6.10547 16.6641 6.25781L15.4219 5.39062L14.25 4.57031ZM18 7.42969C18.4336 7.42969 18.832 7.53516 19.1719 7.71094L19.5703 7.92188L19.9453 7.66406L20.25 7.45312V9.375C20.25 10.3623 19.3008 11.25 18 11.25C16.6992 11.25 15.75 10.3623 15.75 9.375V7.45312L16.0547 7.66406L16.4297 7.92188L16.8281 7.71094C17.168 7.53516 17.5664 7.42969 18 7.42969ZM12.75 11.25C10.6816 11.25 9 12.9316 9 15V21H10.5V15C10.5 13.7607 11.5107 12.75 12.75 12.75C13.9893 12.75 15 13.7607 15 15V21H16.5V15C16.5 14.2764 16.2949 13.6055 15.9375 13.0312C15.2139 12.6855 14.6074 12.1641 14.1797 11.5312C13.7402 11.3496 13.2539 11.25 12.75 11.25ZM19.5 13.2656C19.0283 13.418 18.5273 13.5 18 13.5V21H19.5V13.2656Z" fill="black"/>
</svg>
