<svg width="24" height="24" viewBox="0 0 24 24" fill="none" xmlns="http://www.w3.org/2000/svg">
<path d="M3.75 4.5C2.51625 4.5 1.5 5.51625 1.5 6.75V17.25C1.5 18.4838 2.51625 19.5 3.75 19.5H20.25C21.4837 19.5 22.5 18.4838 22.5 17.25V6.75C22.5 5.51625 21.4837 4.5 20.25 4.5H3.75ZM3.75 6H20.25C20.6745 6 21 6.3255 21 6.75V17.25C21 17.6745 20.6745 18 20.25 18H3.75C3.3255 18 3 17.6745 3 17.25V6.75C3 6.3255 3.3255 6 3.75 6ZM8.64258 7.5L8.53711 7.51758C8.20711 7.55883 7.88708 7.68279 7.62158 7.88379C7.56233 7.91904 7.51091 7.96691 7.45166 8.01416C7.44566 8.00216 7.43994 7.991 7.43994 7.979C7.42794 7.91375 7.42189 7.84282 7.41064 7.77832C7.39264 7.67182 7.33404 7.61865 7.22754 7.61865H6.94922C6.77897 7.61715 6.75 7.65359 6.75 7.81934V12.9375C6.756 13.014 6.80269 13.0545 6.86719 13.0605H7.38135C7.45185 13.0605 7.49254 13.014 7.49854 12.9375C7.50454 12.9143 7.50439 12.8904 7.50439 12.8672V11.1211C7.52764 11.1443 7.54513 11.1574 7.55713 11.1694C7.98763 11.5294 8.48337 11.6465 9.02637 11.54C9.52212 11.4395 9.86427 11.1395 10.0825 10.6978C10.2535 10.3618 10.3241 10.0011 10.3301 9.62988C10.3421 9.22188 10.3063 8.81489 10.1353 8.43164C9.935 7.95989 9.5921 7.64677 9.0791 7.54102C9.0026 7.52302 8.92051 7.51786 8.84326 7.50586C8.77276 7.49986 8.70783 7.5 8.64258 7.5ZM12.394 7.5C12.3708 7.506 12.347 7.51172 12.3237 7.51172C12.0875 7.52372 11.8582 7.55354 11.6279 7.61279C11.4802 7.64804 11.339 7.70031 11.1973 7.74756C11.1088 7.77681 11.0669 7.84202 11.0669 7.93652C11.0729 8.01302 11.0669 8.09586 11.0669 8.17236C11.0729 8.29011 11.1207 8.32102 11.2324 8.29102C11.4214 8.24377 11.6089 8.19004 11.7979 8.15479C12.0926 8.10154 12.3936 8.07838 12.6943 8.11963C12.8533 8.14888 13.0011 8.19042 13.1016 8.32617C13.1901 8.43792 13.2259 8.57993 13.2319 8.72168C13.2379 8.92193 13.2378 9.12202 13.2378 9.32227C13.2378 9.33427 13.2379 9.34556 13.2319 9.35156H13.2026C12.9491 9.28706 12.6887 9.25163 12.4292 9.23438C12.1577 9.22237 11.8874 9.23362 11.6279 9.32812C11.3152 9.43463 11.0616 9.62343 10.9146 9.93018C10.8028 10.1657 10.7856 10.4135 10.8208 10.667C10.8741 11.009 11.0386 11.2681 11.3394 11.4331C11.6281 11.5921 11.9347 11.6107 12.2534 11.5635C12.6194 11.5102 12.9433 11.3573 13.2261 11.1211C13.2381 11.1091 13.2492 11.103 13.2612 11.0918C13.2792 11.1863 13.2901 11.2744 13.3081 11.3569C13.3201 11.4334 13.368 11.4813 13.4385 11.4873H13.834C13.8932 11.4873 13.9453 11.4332 13.9453 11.3687C13.9513 11.3507 13.9512 11.3282 13.9512 11.3042V8.74365C13.9497 8.64315 13.9435 8.538 13.9263 8.4375C13.879 8.12475 13.7491 7.86568 13.4663 7.70068C13.3073 7.60618 13.1309 7.55855 12.9419 7.5293C12.8534 7.5173 12.7711 7.51125 12.6826 7.5H12.394ZM17.4302 7.5C17.3477 7.494 17.2705 7.54655 17.2412 7.62305C17.2292 7.65905 17.2181 7.68887 17.2061 7.72412L16.3623 10.1367C16.3031 10.3077 16.2384 10.4839 16.1792 10.6729C16.1679 10.6429 16.1632 10.6323 16.1572 10.6143C15.8452 9.75326 15.5383 8.89127 15.2256 8.03027C15.1791 7.88927 15.125 7.7544 15.0718 7.61865C15.0485 7.55415 14.9959 7.50732 14.9194 7.50732C14.7364 7.50132 14.5533 7.50146 14.3643 7.50146C14.3058 7.50146 14.2761 7.55354 14.2881 7.61279C14.3001 7.66004 14.317 7.71349 14.335 7.76074C14.8067 8.92774 15.2854 10.0953 15.7632 11.269C15.8044 11.3688 15.8104 11.4513 15.7632 11.5518C15.6867 11.7288 15.6216 11.9109 15.5391 12.0879C15.4678 12.2469 15.3499 12.3658 15.1729 12.4131C15.0551 12.4423 14.9245 12.4531 14.8008 12.4351C14.7415 12.4298 14.6828 12.4191 14.6235 12.4131C14.541 12.4071 14.5006 12.4418 14.4946 12.5303V12.7661C14.5006 12.9019 14.542 12.9611 14.6777 12.9844C14.8075 13.0084 14.9432 13.0267 15.085 13.0327C15.4975 13.0387 15.8219 12.8727 16.0342 12.5127C16.1227 12.3709 16.1938 12.2233 16.2583 12.0703C16.8298 10.6258 17.3957 9.18634 17.9619 7.73584C17.9792 7.69459 17.9911 7.65418 17.9971 7.60693C18.0091 7.53643 17.9745 7.50075 17.9077 7.5H17.4302ZM8.63818 8.11377C8.99818 8.14302 9.29231 8.31929 9.44531 8.73779C9.53981 8.99729 9.56396 9.26392 9.56396 9.53467C9.56396 9.78892 9.54525 10.0292 9.46875 10.2715C9.30375 10.7845 8.92711 10.9847 8.44336 10.9614C8.10136 10.9434 7.81252 10.8142 7.54102 10.626C7.51177 10.608 7.49254 10.5791 7.49854 10.5498V8.51514C7.49254 8.47989 7.51177 8.44964 7.54102 8.43164C7.87102 8.20139 8.23693 8.08452 8.63818 8.11377ZM12.2842 9.74854C12.3852 9.73972 12.4873 9.7413 12.5874 9.75293C12.7877 9.77093 12.9892 9.80571 13.1895 9.83496C13.2307 9.84096 13.2422 9.85902 13.2422 9.89502C13.2369 10.0128 13.2422 10.1244 13.2422 10.2422C13.2422 10.3599 13.2363 10.4657 13.2363 10.5835C13.2423 10.6127 13.2244 10.6366 13.2012 10.6538C12.9297 10.8481 12.6348 10.9782 12.2988 11.0142C12.1631 11.0262 12.0272 11.0264 11.8975 10.9731C11.7497 10.9199 11.6384 10.7964 11.5972 10.6494C11.5499 10.4964 11.5486 10.3366 11.5898 10.1836C11.6543 9.98334 11.7964 9.87016 11.9854 9.80566C12.0825 9.77604 12.1831 9.75735 12.2842 9.74854ZM18.3984 13.1235C17.8734 13.1308 17.253 13.2476 16.7827 13.5776C16.6372 13.6781 16.6639 13.819 16.8252 13.8003C17.3539 13.7373 18.5305 13.594 18.7412 13.8633C18.952 14.1325 18.507 15.2411 18.3105 15.7368C18.249 15.8846 18.3784 15.946 18.5142 15.8335C19.3939 15.0962 19.6229 13.5521 19.4429 13.3301C19.3529 13.2191 18.9234 13.1162 18.3984 13.1235ZM4.6084 13.418C4.4992 13.4323 4.45173 13.5662 4.56592 13.6714C6.52492 15.4384 9.1121 16.5 11.9854 16.5C14.0351 16.5 16.4146 15.856 18.0571 14.644C18.3286 14.443 18.0981 14.1417 17.8198 14.2617C15.9778 15.0432 13.977 15.4189 12.1567 15.4189C9.45899 15.4189 6.84713 14.6795 4.73438 13.4487C4.68806 13.4217 4.6448 13.4132 4.6084 13.418Z" fill="black"/>
</svg>
