<svg width="24" height="24" viewBox="0 0 24 24" fill="none" xmlns="http://www.w3.org/2000/svg">
<path d="M3.75 4.5C2.5166 4.5 1.5 5.5166 1.5 6.75V17.25C1.5 18.4834 2.5166 19.5 3.75 19.5H20.25C21.4834 19.5 22.5 18.4834 22.5 17.25V6.75C22.5 5.5166 21.4834 4.5 20.25 4.5H3.75ZM3.75 6H20.25C20.6748 6 21 6.3252 21 6.75V17.25C21 17.6748 20.6748 18 20.25 18H3.75C3.3252 18 3 17.6748 3 17.25V6.75C3 6.3252 3.3252 6 3.75 6ZM5.29688 9.9375L3.75 14.0625H4.6875L4.99219 13.125H6.75L7.05469 14.0625H8.8125V10.9688L9.9375 14.0625H10.7578L11.9062 11.0625V14.0625H12.7266V9.9375H11.3906L10.3594 12.7266L9.32812 9.9375H7.875V13.8516L6.42188 9.9375H5.29688ZM13.8516 9.9375V14.0625H17.1562L18.1875 12.7266L19.2188 14.0625H20.25L18.7031 12L20.25 9.9375H19.125L18.0938 11.1797L17.25 9.9375H13.8516ZM5.8125 10.7578L6.32812 12.2109H5.29688L5.8125 10.7578ZM14.6719 10.875H16.7344L17.5781 12L16.6406 13.2422H14.6719V12.4219H16.5469V11.5781H14.6719V10.875Z" fill="black"/>
</svg>
