<svg width="24" height="24" viewBox="0 0 24 24" fill="none" xmlns="http://www.w3.org/2000/svg">
<path d="M3.75 4.5C2.5166 4.5 1.5 5.5166 1.5 6.75V17.25C1.5 18.4834 2.5166 19.5 3.75 19.5H20.25C21.4834 19.5 22.5 18.4834 22.5 17.25V6.75C22.5 5.5166 21.4834 4.5 20.25 4.5H3.75ZM3.75 6H20.25C20.6748 6 21 6.3252 21 6.75V17.25C21 17.6748 20.6748 18 20.25 18H3.75C3.3252 18 3 17.6748 3 17.25V6.75C3 6.3252 3.3252 6 3.75 6ZM7.82812 10.6172C7.35938 10.6172 7.00781 10.957 7.00781 11.3906C7.00781 11.7539 7.18066 11.9355 7.66406 12.1172C7.94531 12.2227 8.17969 12.2842 8.17969 12.5391C8.17969 12.7529 8.0127 12.9141 7.78125 12.9141C7.53516 12.9141 7.33594 12.7939 7.21875 12.5625L6.86719 12.8672C7.10449 13.2158 7.41211 13.3828 7.80469 13.3828C8.34082 13.3828 8.69531 13.0283 8.69531 12.5156C8.69531 12.0938 8.53125 11.8857 7.94531 11.6719C7.63477 11.5576 7.54688 11.4873 7.54688 11.3438C7.54688 11.1768 7.69922 11.0625 7.92188 11.0625C8.07715 11.0625 8.20898 11.124 8.34375 11.2734L8.625 10.9219C8.40234 10.7285 8.11816 10.6172 7.82812 10.6172ZM10.2656 10.6172C9.4834 10.6201 8.85938 11.2295 8.85938 12C8.85938 12.7764 9.48047 13.3828 10.2656 13.3828C10.4883 13.3828 10.6875 13.3301 10.9219 13.2188V12.6094C10.7168 12.8145 10.5234 12.8906 10.2891 12.8906C9.77051 12.8906 9.39844 12.5127 9.39844 11.9766C9.39844 11.4697 9.78223 11.0859 10.2656 11.0859C10.5117 11.0859 10.708 11.1562 10.9219 11.3672V10.7578C10.6963 10.6436 10.4883 10.6172 10.2656 10.6172ZM12.4453 10.6172C11.6836 10.6172 11.0625 11.2383 11.0625 12C11.0625 12.7617 11.6836 13.3828 12.4453 13.3828C13.207 13.3828 13.8281 12.7617 13.8281 12C13.8281 11.2383 13.207 10.6172 12.4453 10.6172ZM3.75 10.6641V13.3125H4.5C5.65137 13.3125 5.92969 12.4131 5.92969 12C5.92969 11.2207 5.33789 10.6641 4.5 10.6641H3.75ZM6.16406 10.6641V13.3125H6.67969V10.6641H6.16406ZM13.7344 10.6641L14.8594 13.3828H15.1406L16.2891 10.6641H15.7266L15 12.4453L14.2969 10.6641H13.7344ZM16.5234 10.6641V13.3125H17.9766V12.8672H17.0391V12.1406H17.9531V11.6953H17.0391V11.1094H17.9766V10.6641H16.5234ZM18.3281 10.6641V13.3125H18.8438V12.2578H18.8906L19.6172 13.3125H20.25L19.4062 12.1875C19.7959 12.1084 20.0156 11.8418 20.0156 11.4375C20.0156 10.9424 19.6729 10.6641 19.0781 10.6641H18.3281ZM18.8438 11.0859H18.9844C19.3066 11.0859 19.5 11.2266 19.5 11.4844C19.5 11.751 19.3154 11.8828 18.9844 11.8828H18.8438V11.0859ZM4.26562 11.1094H4.42969C5.13281 11.1094 5.39062 11.584 5.39062 12C5.39062 12.1992 5.33496 12.8672 4.40625 12.8672H4.26562V11.1094Z" fill="black"/>
</svg>
