<svg width="24" height="24" viewBox="0 0 24 24" fill="none" xmlns="http://www.w3.org/2000/svg">
<path d="M3.75 4.5C2.5166 4.5 1.5 5.5166 1.5 6.75V17.25C1.5 18.4834 2.5166 19.5 3.75 19.5H20.25C21.4834 19.5 22.5 18.4834 22.5 17.25V6.75C22.5 5.5166 21.4834 4.5 20.25 4.5H3.75ZM3.75 6H20.25C20.6748 6 21 6.3252 21 6.75V17.25C21 17.6748 20.6748 18 20.25 18H3.75C3.3252 18 3 17.6748 3 17.25V6.75C3 6.3252 3.3252 6 3.75 6ZM11.25 7.5C8.77441 7.5 6.75 9.52441 6.75 12C6.75 14.4756 8.77441 16.5 11.25 16.5H12.75C15.2344 16.5 17.25 14.4844 17.25 12C17.25 9.51562 15.2344 7.5 12.75 7.5H11.25ZM11.25 9C12.917 9 14.25 10.333 14.25 12C14.25 13.667 12.917 15 11.25 15C9.58301 15 8.25 13.667 8.25 12C8.25 10.333 9.58301 9 11.25 9ZM10.6406 10.2422C9.91113 10.5 9.375 11.1826 9.375 12C9.375 12.8174 9.91113 13.5 10.6406 13.7578V10.2422ZM11.8594 10.2422V13.7578C12.5889 13.5 13.125 12.8174 13.125 12C13.125 11.1826 12.5889 10.5 11.8594 10.2422Z" fill="black"/>
</svg>
