<svg width="24" height="24" viewBox="0 0 24 24" fill="none" xmlns="http://www.w3.org/2000/svg">
<path d="M3.75 4.5C2.5166 4.5 1.5 5.5166 1.5 6.75V17.25C1.5 18.4834 2.5166 19.5 3.75 19.5H20.25C21.4834 19.5 22.5 18.4834 22.5 17.25V6.75C22.5 5.5166 21.4834 4.5 20.25 4.5H3.75ZM3.75 6H20.25C20.6748 6 21 6.3252 21 6.75V17.25C21 17.6748 20.6748 18 20.25 18H3.75C3.3252 18 3 17.6748 3 17.25V6.75C3 6.3252 3.3252 6 3.75 6ZM6.11719 8.25C5.19727 8.25 4.5 8.83301 4.5 9.84375V15.75H7.45312C8.17383 15.75 9 15.0791 9 14.2031V8.25H6.11719ZM11.3672 8.25C10.4502 8.25 9.75 8.83594 9.75 9.84375V15.7031H12.7031C13.4209 15.7031 14.25 15.0293 14.25 14.1562V8.25H11.3672ZM16.6172 8.25C15.7002 8.25 15 8.83594 15 9.84375V15.7031H17.9297C18.6445 15.7031 19.5 15.0293 19.5 14.1562V8.25H16.6172ZM11.5312 10.5H13.6875V10.9688C13.1719 10.8486 12.668 10.7812 12.4219 10.7812C11.8828 10.7812 11.4609 11.2441 11.4609 11.8125C11.4609 12.3809 11.8828 12.8203 12.4219 12.8203C12.668 12.8203 13.1719 12.7764 13.6875 12.6562V13.1016H11.5312C10.8604 13.1016 10.2891 12.5215 10.2891 11.8125C10.2891 11.1035 10.8604 10.5 11.5312 10.5ZM15.6328 10.5H18.3984C18.7354 10.5 19.0078 10.7959 19.0078 11.1328C19.0078 11.4668 18.7822 11.7891 18.4453 11.7891C18.8262 11.7891 19.125 12.0879 19.125 12.4219C19.125 12.7588 18.8262 13.0781 18.4453 13.0781H15.6328V10.5ZM7.10156 10.5234H8.39062V11.9766C8.39062 12.7852 7.35059 13.2188 6.58594 13.2188C5.75391 13.2188 5.00977 12.7236 4.85156 12.0938H5.41406C5.48145 12.4775 5.85352 12.75 6.28125 12.75C6.75293 12.75 7.10156 12.4043 7.10156 11.9766V10.5234ZM16.6875 10.7578V11.625H17.5781C17.8008 11.625 18 11.4258 18 11.2031C18 10.9805 17.8008 10.7578 17.5781 10.7578H16.6875ZM16.6875 11.9531V12.8203H17.6016C17.8271 12.8203 18.0234 12.6211 18.0234 12.3984C18.0234 12.1729 17.8271 11.9531 17.6016 11.9531H16.6875Z" fill="black"/>
</svg>
