<svg width="24" height="24" viewBox="0 0 24 24" fill="none" xmlns="http://www.w3.org/2000/svg">
<path d="M3.75 4.5C2.5166 4.5 1.5 5.5166 1.5 6.75V17.25C1.5 18.4834 2.5166 19.5 3.75 19.5H20.25C21.4834 19.5 22.5 18.4834 22.5 17.25V6.75C22.5 5.5166 21.4834 4.5 20.25 4.5H3.75ZM3.75 6H20.25C20.6748 6 21 6.3252 21 6.75V17.25C21 17.6748 20.6748 18 20.25 18H3.75C3.3252 18 3 17.6748 3 17.25V6.75C3 6.3252 3.3252 6 3.75 6ZM9 6.75C6.1084 6.75 3.75 9.1084 3.75 12C3.75 14.8916 6.1084 17.25 9 17.25C10.1133 17.25 11.1475 16.9102 12 16.3125C12.8496 16.9072 13.8838 17.25 15 17.25C17.8916 17.25 20.25 14.8916 20.25 12C20.25 9.1084 17.8916 6.75 15 6.75C13.8838 6.75 12.8496 7.09277 12 7.6875C11.1475 7.08984 10.1133 6.75 9 6.75ZM9 8.25C9.96094 8.25 10.8223 8.62207 11.4844 9.21094C11.1768 9.59473 10.9248 10.0283 10.7578 10.5H12.4219C12.5273 10.7402 12.627 10.9893 12.6797 11.25H10.5703C10.5293 11.4932 10.5 11.7422 10.5 12C10.5 12.2578 10.5293 12.5068 10.5703 12.75H12.6797C12.627 13.0107 12.5273 13.2598 12.4219 13.5H10.7578C10.9248 13.9717 11.1768 14.4053 11.4844 14.7891C10.8223 15.3779 9.96094 15.75 9 15.75C6.91992 15.75 5.25 14.0801 5.25 12C5.25 9.91992 6.91992 8.25 9 8.25ZM15 8.25C17.0801 8.25 18.75 9.91992 18.75 12C18.75 14.0801 17.0801 15.75 15 15.75C14.3145 15.75 13.6787 15.5566 13.125 15.2344C13.8311 14.3408 14.25 13.2217 14.25 12C14.25 10.7783 13.8311 9.65918 13.125 8.76562C13.6787 8.44336 14.3145 8.25 15 8.25Z" fill="black"/>
</svg>
