<svg width="24" height="24" viewBox="0 0 24 24" fill="none" xmlns="http://www.w3.org/2000/svg">
<path d="M3.75 4.5C2.5166 4.5 1.5 5.5166 1.5 6.75V17.25C1.5 18.4834 2.5166 19.5 3.75 19.5H20.25C21.4834 19.5 22.5 18.4834 22.5 17.25V6.75C22.5 5.5166 21.4834 4.5 20.25 4.5H3.75ZM3.75 6H20.25C20.6748 6 21 6.3252 21 6.75V17.25C21 17.6748 20.6748 18 20.25 18H3.75C3.3252 18 3 17.6748 3 17.25V6.75C3 6.3252 3.3252 6 3.75 6ZM14.5547 9.28125C13.1104 9.28125 12.3516 9.99316 12.3516 10.8984C12.3516 12.5332 14.2734 12.3076 14.2734 13.1484C14.2734 13.292 14.1533 13.6172 13.3594 13.6172C12.5654 13.6172 12.0469 13.3359 12.0469 13.3359L11.8125 14.4141C11.8125 14.4141 12.3047 14.7188 13.2891 14.7188C14.2734 14.7188 15.6562 13.9629 15.6562 12.8672C15.6562 11.5488 13.7344 11.4609 13.7344 10.875C13.7344 10.5762 13.9893 10.3359 14.6719 10.3359C15.1172 10.3359 15.6094 10.6875 15.6094 10.6875L15.8438 9.53906C15.8438 9.53906 15.1904 9.28125 14.5547 9.28125ZM8.39062 9.375L7.125 13.0781C7.125 13.0781 7.06055 12.7588 7.03125 12.5625C6.31641 10.957 5.15625 10.3594 5.15625 10.3594L6.25781 14.5547H7.75781L9.86719 9.375H8.39062ZM10.4062 9.375L9.58594 14.5547H10.9688L11.7891 9.375H10.4062ZM17.8594 9.375L15.6094 14.5547H16.9688L17.25 13.8281H18.9844L19.125 14.5547H20.3672L19.3125 9.375H17.8594ZM3.63281 9.39844C3.63281 9.39844 6.33105 10.2246 6.96094 12.2578L6.49219 9.91406C6.49219 9.91406 6.28711 9.39844 5.74219 9.39844H3.63281ZM18.375 10.875L18.7734 12.8203H17.6484L18.375 10.875Z" fill="black"/>
</svg>
