<svg width="24" height="24" viewBox="0 0 24 24" fill="none" xmlns="http://www.w3.org/2000/svg">
<path d="M11.9971 2.25L9.75 4.50293H11.25V9L12 9.75L12.75 9V4.50293H14.25L11.9971 2.25ZM5.25 5.25V8.25L6.21973 7.28027L9.43945 10.5H10.5V9.43945L7.28027 6.21973L8.25 5.25H5.25ZM9.31055 5.25L8.34082 6.21973L10.5 8.37891V5.25H9.31055ZM13.5 5.25V8.37891L15.6592 6.21973L14.6895 5.25H13.5ZM15.75 5.25L16.7197 6.21973L13.5 9.43945V10.5H14.5605L17.7803 7.28027L18.75 8.25V5.25H15.75ZM6.21973 8.34082L5.25 9.31055V10.5H8.37891L6.21973 8.34082ZM17.7803 8.34082L15.6211 10.5H18.75V9.31055L17.7803 8.34082ZM4.50293 9.75L2.25 12.0029L4.50293 14.25V12.75H9L9.75 12L9 11.25H4.50293V9.75ZM19.4971 9.75V11.25H15L14.25 12L15 12.75H19.4971V14.25L21.75 11.9971L19.4971 9.75ZM5.25 13.5V14.6895L6.21973 15.6592L8.37891 13.5H5.25ZM9.43945 13.5L6.21973 16.7197L5.25 15.75V18.75H8.25L7.28027 17.7803L10.5 14.5605V13.5H9.43945ZM13.5 13.5V14.5605L16.7197 17.7803L15.75 18.75H18.75V15.75L17.7803 16.7197L14.5605 13.5H13.5ZM15.6211 13.5L17.7803 15.6592L18.75 14.6895V13.5H15.6211ZM12 14.25L11.25 15V19.4971H9.75L12.0029 21.75L14.25 19.4971H12.75V15L12 14.25ZM10.5 15.6211L8.34082 17.7803L9.31055 18.75H10.5V15.6211ZM13.5 15.6211V18.75H14.6895L15.6592 17.7803L13.5 15.6211Z" fill="black"/>
</svg>
