<svg width="24" height="24" viewBox="0 0 24 24" fill="none" xmlns="http://www.w3.org/2000/svg">
<path d="M12 2.25C6.624 2.25 2.25 6.624 2.25 12C2.25 17.376 6.624 21.75 12 21.75C17.376 21.75 21.75 17.376 21.75 12C21.75 6.624 17.376 2.25 12 2.25ZM12 3.75C16.5487 3.75 20.25 7.45125 20.25 12C20.25 16.5487 16.5487 20.25 12 20.25C7.45125 20.25 3.75 16.5487 3.75 12C3.75 7.45125 7.45125 3.75 12 3.75ZM9.89941 6.75C8.13391 8.445 7.78395 12.4419 8.85645 17.1519C10.9714 17.6244 14.039 16.3498 17.1665 13.8223C18.0193 10.2598 12.2507 7.605 9.89941 6.75ZM12 10.5C12.8287 10.5 13.5 11.1713 13.5 12C13.5 12.8287 12.8287 13.5 12 13.5C11.1713 13.5 10.5 12.8287 10.5 12C10.5 11.1713 11.1713 10.5 12 10.5Z" fill="black"/>
</svg>
