<svg width="24" height="24" viewBox="0 0 24 24" fill="none" xmlns="http://www.w3.org/2000/svg">
<path d="M8.25 3V12.3281C8.17383 12.3486 8.08301 12.3779 8.01562 12.3984C7.65234 12.5098 7.40039 12.627 7.21875 12.75C7.12793 12.8115 7.04297 12.876 6.98438 12.9375C6.92578 12.999 6.84375 13.125 6.84375 13.125L6.75 13.2891V15H7.5V21H9V15H15V21H16.5V15H17.25V13.2891L17.1562 13.125C17.1562 13.125 17.0742 12.999 17.0156 12.9375C16.957 12.876 16.8721 12.8115 16.7812 12.75C16.5996 12.627 16.3477 12.5098 15.9844 12.3984C15.917 12.3779 15.8262 12.3486 15.75 12.3281V3H14.25V3.75H9.75V3H8.25ZM9.75 5.25H11.25V12.0234C10.6816 12.0381 10.1719 12.0527 9.75 12.0938V5.25ZM12.75 5.25H14.25V12.0938C13.8281 12.0527 13.3184 12.0381 12.75 12.0234V5.25Z" fill="black"/>
</svg>
