<svg width="24" height="24" viewBox="0 0 24 24" fill="none" xmlns="http://www.w3.org/2000/svg">
<path d="M3 4.5V6H19.5V18H9V19.5H22.5V18H21V4.5H3ZM6.00146 6.75C4.35245 6.75 3 8.102 3 9.75C3 11.399 4.35306 12.75 6.00146 12.75C7.64785 12.75 9 11.399 9 9.75C9 8.102 7.64846 6.75 6.00146 6.75ZM10.5 7.5V9H14.25V7.5H10.5ZM15.75 7.5V9H18V7.5H15.75ZM6.00146 8.25C6.83697 8.25 7.5 8.9125 7.5 9.75C7.5 10.5895 6.83758 11.25 6.00146 11.25C5.16137 11.25 4.5 10.5895 4.5 9.75C4.5 8.9125 5.16198 8.25 6.00146 8.25ZM10.5 10.5V12H18V10.5H10.5ZM3 13.5V19.5H4.5V15H6.75V19.5H8.25V15.4937L9.79834 16.3125C10.2366 16.5451 10.7637 16.5442 11.2017 16.3125V16.314L13.8501 14.9136L13.1499 13.5864L10.5015 14.9868L8.17969 13.7607C7.85631 13.59 7.49513 13.5 7.12793 13.5H3Z" fill="black"/>
</svg>
