<svg width="24" height="24" viewBox="0 0 24 24" fill="none" xmlns="http://www.w3.org/2000/svg">
<path d="M21 3.04688L19.7812 3.98438L16.3125 6.70312L12.1172 6L11.8359 5.95312L11.5781 6.11719L7.3125 8.95312L3.89062 8.27344L3 8.08594V21H21V3.04688ZM19.5 6.11719V10.1484L16.3359 12.6562L12.2344 11.2969L11.8828 11.1797L11.5781 11.3672L7.40625 14.1562L4.5 12.9844V9.91406L7.35938 10.4766L7.66406 10.5469L7.92188 10.3828L12.1641 7.54688L16.3828 8.25L16.7109 8.29688L16.9688 8.08594L19.5 6.11719ZM19.5 12.0703V19.5H4.5V14.625L7.21875 15.7031L7.59375 15.8438L7.92188 15.6328L12.1406 12.8203L16.2656 14.2031L16.6406 14.3438L16.9688 14.0859L19.5 12.0703Z" fill="black"/>
</svg>
