<svg width="24" height="24" viewBox="0 0 24 24" fill="none" xmlns="http://www.w3.org/2000/svg">
<path d="M6.75 3.75C5.51625 3.75 4.5 4.76625 4.5 6V20.25H15V15H16.5V18C16.5 19.2338 17.5162 20.25 18.75 20.25C19.9838 20.25 21 19.2338 21 18V10.3594C21 9.76162 20.7652 9.21056 20.3438 8.78906L16.8047 5.25L15.75 6.30469L17.8828 8.4375C17.0773 8.78025 16.5 9.5745 16.5 10.5C16.5 11.7337 17.5162 12.75 18.75 12.75C19.014 12.75 19.263 12.6949 19.5 12.6094V18C19.5 18.4245 19.1745 18.75 18.75 18.75C18.3255 18.75 18 18.4245 18 18V15C18 14.1795 17.3205 13.5 16.5 13.5H15V6C15 4.76625 13.9838 3.75 12.75 3.75H6.75ZM6.75 5.25H12.75C13.1745 5.25 13.5 5.5755 13.5 6V8.25V9V10.5V13.5V18.75H6V13.5V10.5V9V8.25V6C6 5.5755 6.3255 5.25 6.75 5.25ZM9.81738 7.92041L7.99512 11.5796L8.67041 11.9326L9.49512 12.3296L8.31738 14.6704L9.68262 15.3296L11.5049 11.6704L10.8296 11.3174L10.0049 10.9204L11.1826 8.57959L9.81738 7.92041ZM18.75 9.75C19.1715 9.75 19.5 10.0785 19.5 10.5C19.5 10.9215 19.1715 11.25 18.75 11.25C18.3278 11.25 18 10.9215 18 10.5C18 10.0785 18.3278 9.75 18.75 9.75Z" fill="black"/>
</svg>
