<svg width="24" height="24" viewBox="0 0 24 24" fill="none" xmlns="http://www.w3.org/2000/svg">
<path d="M8.32031 4.47656L8.08594 4.52344C3.23438 5.60156 2.27344 10.3594 2.27344 10.3594L2.25 10.4297V19.5H21.75V15H21C20.5752 15 20.25 14.6748 20.25 14.25C20.25 13.8252 20.5752 13.5 21 13.5H21.75V10.0078L21.2812 9.79688L8.53125 4.54688L8.32031 4.47656ZM8.22656 6.07031L10.3125 6.9375C9.98145 7.0752 9.75 7.26855 9.75 7.5C9.75 7.91309 10.4209 8.25 11.25 8.25C11.8184 8.25 12.3076 8.08594 12.5625 7.85156L17.1797 9.75H4.03125C4.48242 8.63965 5.60156 6.75 8.22656 6.07031ZM3.75 11.25H6.07031C6.0293 11.3672 6 11.4961 6 11.625C6 12.2461 6.50391 12.75 7.125 12.75C7.74609 12.75 8.25 12.2461 8.25 11.625C8.25 11.4961 8.2207 11.3672 8.17969 11.25H20.25V12.3047C19.418 12.6357 18.75 13.3066 18.75 14.25C18.75 15.1934 19.418 15.8643 20.25 16.1953V18H11.0391C11.168 17.7803 11.25 17.5225 11.25 17.25C11.25 16.4209 10.5791 15.75 9.75 15.75C8.9209 15.75 8.25 16.4209 8.25 17.25C8.25 17.5225 8.33203 17.7803 8.46094 18H3.75V11.25ZM14.625 12.75C14.0039 12.75 13.5 13.2539 13.5 13.875C13.5 14.4961 14.0039 15 14.625 15C15.2461 15 15.75 14.4961 15.75 13.875C15.75 13.2539 15.2461 12.75 14.625 12.75Z" fill="black"/>
</svg>
