<svg width="24" height="24" viewBox="0 0 24 24" fill="none" xmlns="http://www.w3.org/2000/svg">
<path d="M12 2.25C10.6729 2.25 9.79395 2.98828 9.44531 3.75C9.18164 4.32715 9.21387 4.72852 9.21094 5.0625C8.65137 5.44336 8.0625 5.92969 7.59375 6.39844C6.54492 7.44727 5.9707 8.94141 6 10.5234C6.01465 11.2529 6.16406 11.9854 6.44531 12.7266C6.58594 13.0986 6.84375 13.7432 7.07812 14.4609C7.3125 15.1787 7.5 15.9697 7.5 16.5H6.75C6.72656 16.5 6.70312 16.5 6.67969 16.5C6.27539 16.5264 5.96484 16.8691 5.97949 17.2734C5.99121 17.6777 6.32227 17.9971 6.72656 18L5.39062 19.8047L5.25 19.9922V21.75H18.75V19.9922L18.6094 19.8047L17.25 18C17.5195 18.0029 17.7715 17.8623 17.9092 17.6279C18.0439 17.3936 18.0439 17.1064 17.9092 16.8721C17.7715 16.6377 17.5195 16.4971 17.25 16.5H16.5C16.5 14.8037 15.4453 13.248 14.4609 12.0469C13.8984 11.3584 13.7139 11.2383 13.3359 10.875C13.4707 10.7959 13.6377 10.7021 13.7344 10.6406C13.8545 10.5645 13.9189 10.5176 13.9453 10.5C14.1562 10.5 14.1709 10.5352 14.3906 10.7109C14.6104 10.8867 15.0586 11.25 15.6797 11.25C16.2246 11.25 16.623 10.8984 16.8281 10.6406C17.0156 10.4033 17.1182 10.2246 17.1328 10.1953C17.2002 10.1631 17.3467 10.1162 17.5312 9.98438C17.7158 9.85254 17.9561 9.55957 18 9.23438C18.0439 8.90918 17.9414 8.625 17.8125 8.34375C17.6221 7.92773 17.2676 7.4502 16.7109 6.86719C16.1543 6.28418 15.4248 5.66602 14.5312 5.29688C14.4639 5.26758 14.5195 5.31152 14.4844 5.27344C14.4492 5.23535 14.3438 5.07715 14.1328 4.92188C13.8574 4.71973 13.2598 4.69629 12.75 4.64062V2.25H12ZM11.25 3.91406V6H12C13.0225 6 13.248 6.12305 13.2422 6.11719C13.2393 6.11426 13.2451 6.12891 13.3594 6.25781C13.4736 6.38672 13.6963 6.58887 13.9688 6.70312C14.5693 6.95215 15.1699 7.43848 15.6328 7.92188C16.0664 8.37305 16.3564 8.82129 16.4062 8.90625C16.2861 8.96484 16.1602 9.00586 16.0078 9.1875C15.8027 9.43652 15.7295 9.60938 15.6562 9.70312C15.6328 9.73242 15.6357 9.74121 15.6328 9.75C15.5684 9.74121 15.5244 9.7002 15.3281 9.53906C15.082 9.33984 14.5928 9 13.9453 9C13.4531 9 13.1748 9.22559 12.9375 9.375C12.7002 9.52441 12.5098 9.63281 12.4453 9.65625L12.4219 9.67969H12.3984C12.2607 9.73828 12.0234 9.75 12.0234 9.75L11.25 9.72656V10.9219L11.5078 11.1328C11.5078 11.1328 12.3984 11.918 13.2891 13.0078C14.1797 14.0977 15 15.501 15 16.5H9C9 15.6592 8.76562 14.7773 8.50781 13.9922C8.25 13.207 7.94531 12.5215 7.82812 12.2109C7.6084 11.6309 7.51172 11.0303 7.5 10.4766C7.47656 9.27246 7.90723 8.19434 8.64844 7.45312C9.1377 6.96387 9.86719 6.35156 10.2656 6.11719L10.6406 5.90625V5.48438C10.6406 5.20605 10.6406 4.74023 10.8047 4.38281C10.8984 4.18066 11.0273 4.02539 11.25 3.91406ZM8.625 18H15.375L17.0625 20.25H6.9375L8.625 18Z" fill="black"/>
</svg>
