<svg width="24" height="24" viewBox="0 0 24 24" fill="none" xmlns="http://www.w3.org/2000/svg">
<path d="M6.75 3V9.75H9.5625L9.39844 10.5H9C8.97656 10.5 8.95312 10.5 8.92969 10.5C8.5166 10.5205 8.19434 10.8721 8.21484 11.2852C8.23535 11.6982 8.58691 12.0205 9 12H9.07031L8.32031 15.4219L7.78125 16.5H6.75C6.72656 16.5 6.70312 16.5 6.67969 16.5C6.2666 16.5205 5.94434 16.8721 5.96484 17.2852C5.98535 17.6982 6.33691 18.0205 6.75 18L5.39062 19.8047L5.25 19.9922V21.75H18.75V19.9922L18.6094 19.8047L17.25 18C17.5195 18.0029 17.7715 17.8623 17.9092 17.6279C18.0439 17.3936 18.0439 17.1064 17.9092 16.8721C17.7715 16.6377 17.5195 16.4971 17.25 16.5H16.2188L15.6797 15.4219L14.9297 12H15C15.2695 12.0029 15.5215 11.8623 15.6592 11.6279C15.7939 11.3936 15.7939 11.1064 15.6592 10.8721C15.5215 10.6377 15.2695 10.4971 15 10.5H14.6016L14.4375 9.75H17.25V3H6.75ZM8.25 4.5H9.75V6.75H11.25V4.5H12.75V6.75H14.25V4.5H15.75V8.25H8.25V4.5ZM11.0859 9.75H12.9141L13.0781 10.5H10.9219L11.0859 9.75ZM10.5938 12H13.4062L14.2734 15.9141L14.2969 16.0078L14.3203 16.0781L14.5312 16.5H9.46875L9.67969 16.0781L9.70312 16.0078L9.72656 15.9141L10.5938 12ZM8.625 18H15.375L17.0625 20.25H6.9375L8.625 18Z" fill="black"/>
</svg>
