<svg width="24" height="24" viewBox="0 0 24 24" fill="none" xmlns="http://www.w3.org/2000/svg">
<path d="M12 2.25C11.1797 2.25 10.5 2.92969 10.5 3.75C10.5 4.29785 10.8018 4.77832 11.25 5.03906V6.1875C11.25 6.50684 11.0068 6.75 10.6875 6.75H8.92969C8.69531 6.75 8.4873 6.63867 8.36719 6.46875C8.75098 6.19629 9 5.75098 9 5.25C9 4.42969 8.32031 3.75 7.5 3.75C6.67969 3.75 6 4.42969 6 5.25C6 5.79785 6.30176 6.27832 6.75 6.53906V7.80469L6.96094 8.03906L8.71875 9.79688C8.37598 9.92578 8.17676 10.2832 8.24707 10.6406C8.31738 11.001 8.63379 11.2588 9 11.25H9.49219L8.32031 15.4219L8.27344 15.5391L7.78125 16.5H6.75C6.72656 16.5 6.70312 16.5 6.67969 16.5C6.2666 16.5205 5.94434 16.8721 5.96484 17.2852C5.98535 17.6982 6.33691 18.0205 6.75 18L5.39062 19.8047L5.25 19.9922V21.75H18.75V19.9922L18.6094 19.8047L17.25 18C17.5195 18.0029 17.7715 17.8623 17.9092 17.6279C18.0439 17.3936 18.0439 17.1064 17.9092 16.8721C17.7715 16.6377 17.5195 16.4971 17.25 16.5H16.2188L15.7266 15.5391L15.7031 15.4922L15.6797 15.4219L14.5078 11.25H15C15.3662 11.2588 15.6885 11.0039 15.7559 10.6436C15.8262 10.2832 15.624 9.92578 15.2812 9.79688L17.0391 8.03906L17.25 7.80469V6.53906C17.6982 6.27832 18 5.79785 18 5.25C18 4.42969 17.3203 3.75 16.5 3.75C15.6797 3.75 15 4.42969 15 5.25C15 5.75098 15.249 6.19629 15.6328 6.46875C15.5127 6.63867 15.3047 6.75 15.0703 6.75H13.3125C12.9932 6.75 12.75 6.50684 12.75 6.1875V5.03906C13.1982 4.77832 13.5 4.29785 13.5 3.75C13.5 2.92969 12.8203 2.25 12 2.25ZM12 7.75781C12.3604 8.05957 12.8115 8.25 13.3125 8.25H14.6719L13.1719 9.75H10.8281L9.32812 8.25H10.6875C11.1885 8.25 11.6396 8.05957 12 7.75781ZM11.0625 11.25H12.9375L14.2734 15.9609L14.2969 16.0312L14.5312 16.5H9.46875L9.70312 16.0312L9.72656 15.9609L11.0625 11.25ZM8.625 18H15.375L17.0625 20.25H6.9375L8.625 18Z" fill="black"/>
</svg>
