<svg width="24" height="24" viewBox="0 0 24 24" fill="none" xmlns="http://www.w3.org/2000/svg">
<path d="M5.25 3V5.25H7.5V3H5.25ZM7.5 5.25V7.5H9.75V5.25H7.5ZM9.75 5.25H12V3H9.75V5.25ZM12 5.25V7.5H14.25V5.25H12ZM14.25 5.25H16.5V3H14.25V5.25ZM16.5 5.25V7.5H18.75V5.25H16.5ZM18.75 5.25H21V3H18.75V5.25ZM18.75 7.5V9.75H21V7.5H18.75ZM18.75 9.75H16.5V12H18.75V9.75ZM18.75 12V14.25H21V12H18.75ZM18.75 14.25H16.5V16.5H18.75V14.25ZM18.75 16.5V18.75H21V16.5H18.75ZM18.75 18.75H16.5V21H18.75V18.75ZM16.5 18.75V16.5H14.25V18.75H16.5ZM14.25 18.75H12V21H14.25V18.75ZM12 18.75V16.5H9.75V18.75H12ZM9.75 18.75H7.5V21H9.75V18.75ZM7.5 18.75V16.5H5.25V18.75H7.5ZM5.25 18.75H3V21H5.25V18.75ZM5.25 16.5V14.25H3V16.5H5.25ZM5.25 14.25H7.5V12H5.25V14.25ZM5.25 12V9.75H3V12H5.25ZM5.25 9.75H7.5V7.5H5.25V9.75ZM5.25 7.5V5.25H3V7.5H5.25ZM7.5 9.75V12H9.75V9.75H7.5ZM9.75 9.75H12V7.5H9.75V9.75ZM12 9.75V12H14.25V9.75H12ZM14.25 9.75H16.5V7.5H14.25V9.75ZM14.25 12V14.25H16.5V12H14.25ZM14.25 14.25H12V16.5H14.25V14.25ZM12 14.25V12H9.75V14.25H12ZM9.75 14.25H7.5V16.5H9.75V14.25Z" fill="black"/>
</svg>
