<svg width="24" height="24" viewBox="0 0 24 24" fill="none" xmlns="http://www.w3.org/2000/svg">
<path d="M6 3V4.5H3.60059L4.55566 9H4.5C4.05 9 3.75 9.3 3.75 9.75C3.75 10.2 4.05 10.5 4.5 10.5H4.58203L3.81885 15.75H3.75C3.3 15.75 3 16.05 3 16.5C3 16.7398 3.08961 16.9321 3.2373 17.064L2.25 18.5244V20.25H11.25H11.3247V18.5244L10.3081 17.02C10.4276 16.89 10.5 16.7139 10.5 16.5C10.5 16.05 10.2 15.75 9.75 15.75H9.66797L8.85645 10.5H9C9.45 10.5 9.75 10.2 9.75 9.75C9.75 9.3 9.45 9 9 9H8.96191L9.97559 4.5H7.5V3H6ZM5.39941 6H8.10059L7.42529 9H6.07471L5.39941 6ZM14.25 6.75V8.25V9V11.5503L14.9253 12.2256L14.3467 15.75H14.25C13.8 15.75 13.5 16.05 13.5 16.5C13.5 16.7398 13.5896 16.9321 13.7373 17.064L12.75 18.5244V20.25H21.75H21.8247V18.5244L20.8081 17.02C20.9276 16.89 21 16.7139 21 16.5C21 16.05 20.7 15.75 20.25 15.75H20.1533L19.5747 12.2256L20.25 11.5503V9V8.25V6.75H18.75V8.25H18V6.75H16.5V8.25H15.75V6.75H14.25ZM15.75 9.75H18.75V10.9497L17.9253 11.7744L18.6006 15.75H15.8994L16.5747 11.7744L15.75 10.9497V9.75ZM6.14941 10.5H7.42529L8.17529 15.75H5.39941L6.14941 10.5ZM4.875 17.25H8.625L9.60059 18.75H3.89941L4.875 17.25ZM15.4497 17.25H19.125L20.1006 18.75H14.3994L15.4497 17.25Z" fill="black"/>
</svg>
