<svg width="24" height="24" viewBox="0 0 24 24" fill="none" xmlns="http://www.w3.org/2000/svg">
<path d="M12 2.25C6.62402 2.25 2.25 6.62402 2.25 12C2.25 17.376 6.62402 21.75 12 21.75C17.376 21.75 21.75 17.376 21.75 12C21.75 6.62402 17.376 2.25 12 2.25ZM12 3.75C16.5645 3.75 20.25 7.43555 20.25 12C20.25 16.5645 16.5645 20.25 12 20.25C7.43555 20.25 3.75 16.5645 3.75 12C3.75 7.43555 7.43555 3.75 12 3.75ZM8.03906 9.58594L6.96094 10.6641L11.4609 15.1641L12 15.6797L12.5391 15.1641L17.0391 10.6641L15.9609 9.58594L12 13.5469L8.03906 9.58594Z" fill="black"/>
</svg>
