<svg width="24" height="24" viewBox="0 0 24 24" fill="none" xmlns="http://www.w3.org/2000/svg">
<path d="M12 2.25C9.9375 2.25 8.25 3.9375 8.25 6C8.25 7.17773 8.82422 8.21777 9.67969 8.90625C8.38184 9.69727 7.5 11.124 7.5 12.75V15.3047L7.71094 15.5391L9 16.8281V21.75H10.5V18H13.5V21.75H15V16.8281L16.2891 15.5391L16.5 15.3047V12.75C16.5 11.124 15.6182 9.69727 14.3203 8.90625C15.1758 8.21777 15.75 7.17773 15.75 6C15.75 3.9375 14.0625 2.25 12 2.25ZM12 3.75C13.251 3.75 14.25 4.74902 14.25 6C14.25 7.25098 13.251 8.25 12 8.25C10.749 8.25 9.75 7.25098 9.75 6C9.75 4.74902 10.749 3.75 12 3.75ZM12 9.75C13.6641 9.75 15 11.0859 15 12.75V14.6719L14.6719 15H9.32812L9 14.6719V12.75C9 11.0859 10.3359 9.75 12 9.75Z" fill="black"/>
</svg>
