<svg width="24" height="24" viewBox="0 0 24 24" fill="none" xmlns="http://www.w3.org/2000/svg">
<path d="M12 3C7.03887 3 3 7.03887 3 12C3 16.9611 7.03887 21 12 21C16.9611 21 21 16.9611 21 12C21 7.03887 16.9611 3 12 3ZM12 4.5C14.9315 4.5 17.457 6.17499 18.6914 8.61914L13.5864 8.61621C13.1025 8.38749 12.5683 8.25 12 8.25C10.7815 8.25 9.70509 8.84736 9.01904 9.75439L6.32959 7.09424C7.70352 5.50686 9.7298 4.5 12 4.5ZM5.72461 7.89258L8.26465 12.2944C8.40435 14.0682 9.78955 15.5029 11.5415 15.7192L10.585 19.3623C7.11523 18.702 4.5 15.6655 4.5 12C4.5 10.4812 4.95228 9.07206 5.72461 7.89258ZM19.0811 9.54346C19.3473 10.3136 19.5 11.1379 19.5 12C19.5 16.1502 16.1502 19.5 12 19.5C11.8604 19.5 11.7246 19.487 11.5869 19.4795L14.1313 15.0762C15.1065 14.3973 15.75 13.2717 15.75 12C15.75 11.4824 15.6429 10.9891 15.4512 10.5396L19.0811 9.54346ZM12 9.75C13.2536 9.75 14.25 10.7464 14.25 12C14.25 13.2536 13.2536 14.25 12 14.25C10.7464 14.25 9.75 13.2536 9.75 12C9.75 10.7464 10.7464 9.75 12 9.75Z" fill="black"/>
</svg>
