<svg width="24" height="24" viewBox="0 0 24 24" fill="none" xmlns="http://www.w3.org/2000/svg">
<path d="M11.25 2.25V3.75H9.75V5.25H11.25V7.17188L8.46094 9.96094L8.25 10.1953V13.0547L3.375 15.8438L4.125 17.1562L5.25 16.5234V21.75H11.25V18.75C11.25 18.334 11.584 18 12 18C12.416 18 12.75 18.334 12.75 18.75V21.75H18.75V16.5234L19.875 17.1562L20.625 15.8438L15.75 13.0547V10.1953L15.5391 9.96094L12.75 7.17188V5.25H14.25V3.75H12.75V2.25H11.25ZM12 8.57812L14.25 10.8281V13.9453L14.625 14.1562L17.25 15.6562V20.25H14.25V18.75C14.25 17.5166 13.2334 16.5 12 16.5C10.7666 16.5 9.75 17.5166 9.75 18.75V20.25H6.75V15.6562L9.375 14.1562L9.75 13.9453V10.8281L12 8.57812ZM12 11.25C11.5869 11.25 11.25 11.5869 11.25 12V14.25H12.75V12C12.75 11.5869 12.4131 11.25 12 11.25Z" fill="black"/>
</svg>
