<svg width="24" height="24" viewBox="0 0 24 24" fill="none" xmlns="http://www.w3.org/2000/svg">
<path d="M7.5 2.91211L2.25 5.53711V21H12.75H21.75V7.5H12.75V5.53711L7.5 2.91211ZM7.5 4.58789L11.25 6.46289V19.5H3.75V6.46289L7.5 4.58789ZM5.25 7.5V9H6.75V7.5H5.25ZM8.25 7.5V9H9.75V7.5H8.25ZM12.75 9H20.25V19.5H12.75V9ZM5.25 10.5V12H6.75V10.5H5.25ZM8.25 10.5V12H9.75V10.5H8.25ZM14.25 10.5V12H15.75V10.5H14.25ZM17.25 10.5V12H18.75V10.5H17.25ZM5.25 13.5V15H6.75V13.5H5.25ZM8.25 13.5V15H9.75V13.5H8.25ZM14.25 13.5V15H15.75V13.5H14.25ZM17.25 13.5V15H18.75V13.5H17.25ZM5.25 16.5V18H6.75V16.5H5.25ZM8.25 16.5V18H9.75V16.5H8.25ZM14.25 16.5V18H15.75V16.5H14.25ZM17.25 16.5V18H18.75V16.5H17.25Z" fill="black"/>
</svg>
