<svg width="24" height="24" viewBox="0 0 24 24" fill="none" xmlns="http://www.w3.org/2000/svg">
<path d="M6.75 3C5.10059 3 3.75 4.35059 3.75 6C3.75 6.83496 4.10742 7.58789 4.66406 8.13281C3.66504 8.80957 3 9.96094 3 11.25V15.4688L4.5 16.2188V21H9V16.2188L10.5 15.4688V14.25H9V14.5312L7.5 15.2812V19.5H6V15.2812L4.5 14.5312V11.25C4.5 9.99902 5.49902 9 6.75 9C8.00098 9 9 9.99902 9 11.25H10.5C10.5 9.96094 9.83496 8.80957 8.83594 8.13281C9.39258 7.58789 9.75 6.83496 9.75 6C9.75 4.35059 8.39941 3 6.75 3ZM17.25 3C15.6006 3 14.25 4.35059 14.25 6C14.25 6.83496 14.6074 7.58789 15.1641 8.13281C14.165 8.80957 13.5 9.96094 13.5 11.25V15.4688L15 16.2188V21H19.5V16.2188L21 15.4688V11.25C21 9.96094 20.335 8.80957 19.3359 8.13281C19.8926 7.58789 20.25 6.83496 20.25 6C20.25 4.35059 18.8994 3 17.25 3ZM6.75 4.5C7.58789 4.5 8.25 5.16211 8.25 6C8.25 6.83789 7.58789 7.5 6.75 7.5C5.91211 7.5 5.25 6.83789 5.25 6C5.25 5.16211 5.91211 4.5 6.75 4.5ZM17.25 4.5C18.0879 4.5 18.75 5.16211 18.75 6C18.75 6.83789 18.0879 7.5 17.25 7.5C16.4121 7.5 15.75 6.83789 15.75 6C15.75 5.16211 16.4121 4.5 17.25 4.5ZM17.25 9C18.501 9 19.5 9.99902 19.5 11.25V14.5312L18 15.2812V19.5H16.5V15.2812L15 14.5312V11.25C15 9.99902 15.999 9 17.25 9ZM11.25 10.6406V12H8.25V13.5H11.25V14.8594L13.3594 12.75L11.25 10.6406Z" fill="black"/>
</svg>
