<svg width="24" height="24" viewBox="0 0 24 24" fill="none" xmlns="http://www.w3.org/2000/svg">
<path d="M1.5 4.5V17.9297H22.5V4.5H1.5ZM3 6H21V16.4297H3V6ZM9 7.5C6.9375 7.5 5.25 9.1875 5.25 11.25C5.25 13.3125 6.9375 15 9 15C9.89648 15 10.708 14.6689 11.3438 14.1562L10.4062 12.9844C10.0107 13.3037 9.53027 13.5 9 13.5C7.74902 13.5 6.75 12.501 6.75 11.25C6.75 9.99902 7.74902 9 9 9C9.53027 9 10.0107 9.19629 10.4062 9.51562L11.3438 8.34375C10.708 7.83105 9.89648 7.5 9 7.5ZM16.5 7.5C14.4375 7.5 12.75 9.1875 12.75 11.25C12.75 13.3125 14.4375 15 16.5 15C17.3965 15 18.208 14.6689 18.8438 14.1562L17.9062 12.9844C17.5107 13.3037 17.0303 13.5 16.5 13.5C15.249 13.5 14.25 12.501 14.25 11.25C14.25 9.99902 15.249 9 16.5 9C17.0303 9 17.5107 9.19629 17.9062 9.51562L18.8438 8.34375C18.208 7.83105 17.3965 7.5 16.5 7.5Z" fill="black"/>
</svg>
