<svg width="24" height="24" viewBox="0 0 24 24" fill="none" xmlns="http://www.w3.org/2000/svg">
<path d="M12 3C9.57975 3 7.47956 4.69331 6.91406 7.00781C5.97956 7.37081 5.20369 8.10919 4.80469 9.02344C2.18269 8.82919 0 10.9163 0 13.5C0 15.9818 2.01825 18 4.5 18H6.75V16.5H4.5C2.84475 16.5 1.5 15.1552 1.5 13.5C1.5 11.8448 2.84475 10.5 4.5 10.5C4.70775 10.5 4.91925 10.5171 5.15625 10.5703L5.90625 10.7344L6.04688 10.0078C6.23138 9.17906 6.90562 8.51981 7.73438 8.32031L8.22656 8.20312L8.29688 7.71094C8.56688 5.88544 10.1573 4.5 12 4.5C13.4213 4.5 14.7096 5.29125 15.3516 6.5625L15.6328 7.14844L16.2656 6.9375C16.6166 6.8145 16.9365 6.75 17.25 6.75C18.9053 6.75 20.25 8.09475 20.25 9.75C20.25 9.77925 20.253 9.8175 20.25 9.84375C20.244 9.89325 20.2326 9.93113 20.2266 9.98438L20.1797 10.5234L20.6719 10.7344C21.7796 11.2054 22.5 12.2963 22.5 13.5C22.5 15.1552 21.1553 16.5 19.5 16.5H18V18H19.5C21.9818 18 24 15.9818 24 13.5C24 11.877 23.133 10.4066 21.75 9.60938C21.6712 7.19588 19.6815 5.25 17.25 5.25C16.9568 5.25 16.6556 5.27925 16.3594 5.34375C15.3926 3.885 13.7782 3 12 3ZM15.75 9.75C15.2723 9.75 14.8857 10.1365 14.8857 10.6143C14.8857 10.6465 14.9003 10.6736 14.9033 10.7051C14.5636 10.4291 14.0699 10.4369 13.7534 10.7534C13.4369 11.0699 13.4291 11.5636 13.7051 11.9033C13.6736 11.8996 13.6465 11.8857 13.6143 11.8857C13.1373 11.885 12.75 12.2723 12.75 12.75C12.75 13.2277 13.1365 13.6143 13.6143 13.6143C13.6465 13.6143 13.6736 13.5997 13.7051 13.5967C13.4291 13.9364 13.4369 14.4301 13.7534 14.7466C14.0699 15.0631 14.5636 15.0709 14.9033 14.7949C14.8996 14.8264 14.8857 14.8535 14.8857 14.8857C14.885 15.3627 15.2723 15.75 15.75 15.75C16.2278 15.75 16.6143 15.3635 16.6143 14.8857C16.6143 14.8535 16.5997 14.8264 16.5967 14.7949C16.9364 15.0709 17.4301 15.0631 17.7466 14.7466C18.0631 14.4301 18.0709 13.9364 17.7949 13.5967C17.8264 13.6004 17.8535 13.6143 17.8857 13.6143C18.3627 13.615 18.75 13.2277 18.75 12.75C18.75 12.2723 18.3635 11.8857 17.8857 11.8857C17.8535 11.8857 17.8264 11.9003 17.7949 11.9033C18.0709 11.5636 18.0631 11.0699 17.7466 10.7534C17.4301 10.4369 16.9364 10.4291 16.5967 10.7051C16.6004 10.6736 16.6143 10.6465 16.6143 10.6143C16.615 10.1373 16.2278 9.75 15.75 9.75ZM9 11.25C8.80109 11.25 8.61032 11.329 8.46967 11.4697C8.32902 11.6103 8.25 11.8011 8.25 12C8.05109 12 7.86032 12.079 7.71967 12.2197C7.57902 12.3603 7.5 12.5511 7.5 12.75C7.5 12.9489 7.57902 13.1397 7.71967 13.2803C7.86032 13.421 8.05109 13.5 8.25 13.5C8.25 13.6989 8.32902 13.8897 8.46967 14.0303C8.61032 14.171 8.80109 14.25 9 14.25C9.19891 14.25 9.38968 14.171 9.53033 14.0303C9.67098 13.8897 9.75 13.6989 9.75 13.5C9.94891 13.5 10.1397 13.421 10.2803 13.2803C10.421 13.1397 10.5 12.9489 10.5 12.75C10.5 12.5511 10.421 12.3603 10.2803 12.2197C10.1397 12.079 9.94891 12 9.75 12C9.75 11.8011 9.67098 11.6103 9.53033 11.4697C9.38968 11.329 9.19891 11.25 9 11.25ZM11.25 15.75C10.7723 15.75 10.3857 16.1365 10.3857 16.6143C10.3857 16.6465 10.4003 16.6736 10.4033 16.7051C10.0636 16.4291 9.56992 16.4369 9.25342 16.7534C8.93692 17.0699 8.92908 17.5636 9.20508 17.9033C9.17358 17.8996 9.14651 17.8857 9.11426 17.8857C8.63726 17.885 8.25 18.2723 8.25 18.75C8.25 19.2278 8.63651 19.6143 9.11426 19.6143C9.14651 19.6143 9.17358 19.5997 9.20508 19.5967C8.92908 19.9364 8.93692 20.4301 9.25342 20.7466C9.56992 21.0631 10.0636 21.0709 10.4033 20.7949C10.3996 20.8264 10.3857 20.8535 10.3857 20.8857C10.385 21.3627 10.7723 21.75 11.25 21.75C11.7277 21.75 12.1143 21.3635 12.1143 20.8857C12.1143 20.8535 12.0997 20.8264 12.0967 20.7949C12.4364 21.0709 12.9301 21.0631 13.2466 20.7466C13.5631 20.4301 13.5709 19.9364 13.2949 19.5967C13.3264 19.6004 13.3535 19.6143 13.3857 19.6143C13.8627 19.615 14.25 19.2278 14.25 18.75C14.25 18.2723 13.8635 17.8857 13.3857 17.8857C13.3535 17.8857 13.3264 17.9003 13.2949 17.9033C13.5709 17.5636 13.5631 17.0699 13.2466 16.7534C12.9301 16.4369 12.4364 16.4291 12.0967 16.7051C12.1004 16.6736 12.1143 16.6465 12.1143 16.6143C12.115 16.1373 11.7277 15.75 11.25 15.75Z" fill="black"/>
</svg>
