<svg width="24" height="24" viewBox="0 0 24 24" fill="none" xmlns="http://www.w3.org/2000/svg">
<path d="M12 3C9.58008 3 7.47949 4.69336 6.91406 7.00781C5.97949 7.37109 5.20312 8.10938 4.80469 9.02344C2.18262 8.83008 0 10.916 0 13.5C0 15.9814 2.01855 18 4.5 18H6L6.75 16.5H4.5C2.84473 16.5 1.5 15.1553 1.5 13.5C1.5 11.8447 2.84473 10.5 4.5 10.5C4.70801 10.5 4.91895 10.5176 5.15625 10.5703L5.90625 10.7344L6.04688 10.0078C6.23145 9.17871 6.90527 8.51953 7.73438 8.32031L8.22656 8.20312L8.29688 7.71094C8.56641 5.88574 10.1572 4.5 12 4.5C13.4209 4.5 14.71 5.29102 15.3516 6.5625L15.6328 7.14844L16.2656 6.9375C16.6172 6.81445 16.9365 6.75 17.25 6.75C18.9053 6.75 20.25 8.09473 20.25 9.75C20.25 9.7793 20.2529 9.81738 20.25 9.84375C20.2441 9.89355 20.2324 9.93164 20.2266 9.98438L20.1797 10.5234L20.6719 10.7344C21.7793 11.2061 22.5 12.2959 22.5 13.5C22.5 15.1553 21.1553 16.5 19.5 16.5H18L18.75 18H19.5C21.9814 18 24 15.9814 24 13.5C24 11.877 23.1328 10.4062 21.75 9.60938C21.6709 7.19531 19.6816 5.25 17.25 5.25C16.957 5.25 16.6553 5.2793 16.3594 5.34375C15.3926 3.88477 13.7783 3 12 3ZM13.5 10.5C13.5 10.5 12 12.6709 12 13.5C12 14.3291 12.6709 15 13.5 15C14.3291 15 15 14.3291 15 13.5C15 12.6709 13.5 10.5 13.5 10.5ZM9.75 14.25C9.75 14.25 8.25 16.4209 8.25 17.25C8.25 18.0791 8.9209 18.75 9.75 18.75C10.5791 18.75 11.25 18.0791 11.25 17.25C11.25 16.4209 9.75 14.25 9.75 14.25ZM15.75 16.5C15.75 16.5 14.25 18.6709 14.25 19.5C14.25 20.3291 14.9209 21 15.75 21C16.5791 21 17.25 20.3291 17.25 19.5C17.25 18.6709 15.75 16.5 15.75 16.5Z" fill="black"/>
</svg>
