<svg width="24" height="24" viewBox="0 0 24 24" fill="none" xmlns="http://www.w3.org/2000/svg">
<path d="M12 5.25C10.0137 5.25 8.28809 6.17871 7.05469 7.54688C6.95215 7.53516 6.86133 7.5 6.75 7.5C5.10059 7.5 3.75 8.85059 3.75 10.5C2.45215 11.291 1.5 12.627 1.5 14.25C1.5 16.7256 3.52441 18.75 6 18.75H9.75V17.25H6C4.33594 17.25 3 15.9141 3 14.25C3 13.0049 3.75586 11.9414 4.82812 11.4844L5.34375 11.2734L5.27344 10.7109C5.25879 10.5879 5.25 10.5176 5.25 10.5C5.25 9.66211 5.91211 9 6.75 9C6.85547 9 6.97266 9.01465 7.10156 9.04688L7.57031 9.16406L7.85156 8.78906C8.8125 7.55566 10.3125 6.75 12 6.75C14.458 6.75 16.5088 8.44043 17.0859 10.7109L17.2266 11.2969L17.8594 11.2734C18.0176 11.2646 18.0527 11.25 18 11.25C19.6641 11.25 21 12.5859 21 14.25C21 15.9141 19.6641 17.25 18 17.25H14.25V18.75H18C20.4756 18.75 22.5 16.7256 22.5 14.25C22.5 11.8828 20.6338 9.9873 18.3047 9.82031C17.3877 7.18066 14.9443 5.25 12 5.25ZM12 11.25L9 14.25H11.25V20.25H12.75V14.25H15L12 11.25Z" fill="black"/>
</svg>
