<svg width="24" height="24" viewBox="0 0 24 24" fill="none" xmlns="http://www.w3.org/2000/svg">
<path d="M14.1401 2.25C12.3326 2.25 10.7183 3.71296 10.7183 5.51221C10.7183 7.31971 9.56971 8.46826 7.76221 8.46826C5.96296 8.46826 4.5 10.0819 4.5 11.8901C4.5 13.6984 5.96296 15 7.76221 15C9.56971 15 11.0303 13.6999 11.0303 11.8916C11.0303 10.0834 12.3326 8.78174 14.1401 8.78174C15.9401 8.78174 17.25 7.31971 17.25 5.51221C17.25 3.71296 15.9401 2.25 14.1401 2.25ZM14.6294 15C12.7619 15 11.25 16.5114 11.25 18.3706C11.25 20.2389 12.7619 21.75 14.6294 21.75C16.4894 21.75 18 20.2389 18 18.3706C18 16.5114 16.4894 15 14.6294 15Z" fill="black"/>
</svg>
