<svg width="24" height="24" viewBox="0 0 24 24" fill="none" xmlns="http://www.w3.org/2000/svg">
<path d="M6.75 4.5V6.82031C6.27539 6.91699 5.83008 7.12207 5.4375 7.38281L3.79688 5.71875L2.71875 6.79688L4.38281 8.4375C4.12207 8.83008 3.91699 9.27539 3.82031 9.75H1.5V11.25H3.84375C3.94043 11.7217 4.13086 12.1494 4.38281 12.5391L2.71875 14.2031L3.1875 14.6719C3.08496 15.0146 3 15.375 3 15.75C3 17.8184 4.68164 19.5 6.75 19.5H18.75C20.8184 19.5 22.5 17.8184 22.5 15.75C22.5 14.2354 21.5918 12.8848 20.2266 12.3047C20.0156 10.4912 18.4922 9.07324 16.6406 9C15.8438 7.61426 14.373 6.75 12.75 6.75C12.5801 6.75 12.4219 6.75586 12.2578 6.77344L11.2031 5.71875L9.5625 7.38281C9.16992 7.13086 8.72168 6.94043 8.25 6.84375V4.5H6.75ZM7.5 8.25C8.07422 8.25 8.58398 8.46387 8.97656 8.8125C8.78027 9.11426 8.60449 9.44824 8.48438 9.79688C7.29785 9.99902 6.3457 10.9072 6.07031 12.0703C6.0293 12.0762 5.99121 12.085 5.95312 12.0938C5.53418 11.6865 5.25 11.1357 5.25 10.5C5.25 9.24902 6.24902 8.25 7.5 8.25ZM12.75 8.25C13.9541 8.25 15.041 8.9707 15.5156 10.0781L15.7266 10.5938L16.4062 10.5234C16.4385 10.5176 16.4648 10.5 16.5 10.5C17.7393 10.5 18.7471 11.5137 18.75 12.7031L18.7266 13.4297L19.3125 13.5703C20.3115 13.8252 21 14.7275 21 15.75C21 16.9893 19.9893 18 18.75 18H6.75C5.51074 18 4.5 16.9893 4.5 15.75C4.5 14.5107 5.51074 13.5 6.75 13.5H7.5V12.75C7.5 11.9238 8.1709 11.2529 8.92969 11.25L9.67969 11.2969L9.82031 10.6641C10.1016 9.26953 11.3262 8.25 12.75 8.25Z" fill="black"/>
</svg>
