<svg width="24" height="24" viewBox="0 0 24 24" fill="none" xmlns="http://www.w3.org/2000/svg">
<path d="M15.2065 5.25157C14.5502 5.23992 13.931 5.32269 13.415 5.47569C11.2603 6.12069 10.2526 7.45092 9.68262 9.54942C9.39387 9.64767 8.6918 9.8768 7.99805 10.44C7.8503 10.5555 7.6626 10.7159 7.4751 10.8839C7.48635 10.9259 7.5 10.9649 7.5 11.0099V12.3751C7.5 12.5821 7.332 12.7501 7.125 12.7501H5.625C5.418 12.7501 5.25 12.5821 5.25 12.3751V12.0001H4.875C4.668 12.0001 4.5 12.1681 4.5 12.3751V13.8678C4.5 14.0748 4.668 14.2428 4.875 14.2428H6.24756C6.32631 14.2428 6.39836 14.2208 6.46436 14.1886L6.52295 14.4625C6.97895 16.8318 9.11026 18.4343 11.937 18.2858C13.8608 19.8938 17.0724 19.9827 18.9302 18.0807C21.5312 18.1212 23.3792 16.4242 23.8667 14.3834C24.4284 12.0652 23.1912 9.46879 20.417 8.62804C19.4883 6.17891 17.1757 5.28652 15.2065 5.25157ZM7.125 6.00011C6.91875 6.00011 6.75 6.16886 6.75 6.37511V7.12511C6.75 7.33136 6.91875 7.50011 7.125 7.50011H7.875C8.08125 7.50011 8.25 7.33136 8.25 7.12511V6.37511C8.25 6.16886 8.08125 6.00011 7.875 6.00011H7.125ZM0.375 7.50011C0.16875 7.50011 0 7.66886 0 7.87511V8.62511C0 8.83136 0.16875 9.00011 0.375 9.00011H1.125C1.33125 9.00011 1.5 8.83136 1.5 8.62511V7.87511C1.5 7.66886 1.33125 7.50011 1.125 7.50011H0.375ZM3.375 7.50011C3.168 7.50011 3 7.66811 3 7.87511V10.1149C3 10.3219 3.168 10.4899 3.375 10.4899H5.625C5.832 10.4899 6 10.3219 6 10.1149V7.87511C6 7.66811 5.832 7.50011 5.625 7.50011H3.375ZM15.6182 7.50011C15.8446 7.50149 16.08 7.51732 16.3257 7.54845C19.0707 7.8972 21.5805 10.6673 19.0005 13.2233C20.3857 12.609 20.9067 11.174 20.855 10.3273L21.2695 11.0655C21.7375 11.8958 21.8681 12.8574 21.6431 13.7784C21.2793 15.2469 20.0408 16.3761 18.4995 16.6671C17.244 16.8996 15.2352 16.4915 14.8887 14.4508C14.4732 16.193 15.746 17.165 17.0713 17.7042C12.845 18.9822 10.3164 15.855 11.7451 13.5983C10.4379 14.4113 10.4108 16.2098 10.5923 17.0318C9.88204 16.5676 8.47078 15.8126 8.33203 14.0201C8.21053 12.5186 9.18121 11.1659 10.5747 10.4767C11.7785 9.87892 14.6455 10.0354 15.832 11.8932C15.2778 10.0842 13.7193 9.37333 11.8315 9.19933C12.8927 8.18279 14.0329 7.49044 15.6182 7.50011ZM1.125 11.2501C0.91875 11.2501 0.75 11.4189 0.75 11.6251V12.3751C0.75 12.5821 0.918 12.7501 1.125 12.7501H1.875C2.082 12.7501 2.25 12.5821 2.25 12.3751V11.6251C2.25 11.4181 2.082 11.2501 1.875 11.2501H1.125Z" fill="black"/>
</svg>
