<svg width="24" height="24" viewBox="0 0 24 24" fill="none" xmlns="http://www.w3.org/2000/svg">
<path d="M7.80469 4.45312L6.5625 4.47656C3.75586 4.5791 1.5 6.89648 1.5 9.72656C1.5 11.3994 2.29102 12.8877 3.51562 13.8516C3.19043 14.4082 3 15.0615 3 15.75C3 17.8184 4.68164 19.5 6.75 19.5H18.75C20.8184 19.5 22.5 17.8184 22.5 15.75C22.5 14.2354 21.5918 12.8848 20.2266 12.3047C20.0156 10.4912 18.4922 9.07324 16.6406 9C15.8438 7.61426 14.373 6.75 12.75 6.75C11.0127 6.75 9.46289 7.75488 8.71875 9.25781C7.72266 8.84766 7.00781 7.88086 7.00781 6.72656C7.00781 6.30762 7.0957 5.91504 7.26562 5.55469L7.80469 4.45312ZM5.625 6.23438C5.60449 6.40723 5.50781 6.54785 5.50781 6.72656C5.50781 8.19141 6.24902 9.47461 7.38281 10.2422C6.74707 10.6582 6.24902 11.3086 6.07031 12.0703C5.49316 12.1758 4.97461 12.416 4.52344 12.75C3.60352 12.0645 3 10.9658 3 9.72656C3 8.04785 4.11328 6.71777 5.625 6.23438ZM12.75 8.25C13.9541 8.25 15.041 8.9707 15.5156 10.0781L15.7266 10.5938L16.4062 10.5234C16.4385 10.5176 16.4648 10.5 16.5 10.5C17.7393 10.5 18.7471 11.5137 18.75 12.7031L18.7266 13.4297L19.3125 13.5703C20.3115 13.8252 21 14.7275 21 15.75C21 16.9893 19.9893 18 18.75 18H6.75C5.51074 18 4.5 16.9893 4.5 15.75C4.5 14.5107 5.51074 13.5 6.75 13.5H7.5V12.75C7.5 11.9238 8.1709 11.2529 8.92969 11.25L9.67969 11.2969L9.82031 10.6641C10.1016 9.26953 11.3262 8.25 12.75 8.25Z" fill="black"/>
</svg>
