<svg width="24" height="24" viewBox="0 0 24 24" fill="none" xmlns="http://www.w3.org/2000/svg">
<path d="M12.0322 2.25C6.64723 2.25 2.28223 6.615 2.28223 12C2.28223 17.385 6.64723 21.75 12.0322 21.75C16.1077 21.75 19.512 19.2478 20.9692 15.6973L12.8438 12L20.7437 7.64355C19.1432 4.44855 15.849 2.25 12.0322 2.25ZM12.0322 3.75C14.6827 3.75 17.1099 4.9997 18.6504 7.08545L15.9639 8.56641C15.0027 7.4549 13.5851 6.75 12 6.75C9.1005 6.75 6.75 9.1005 6.75 12C6.75 14.8995 9.1005 17.25 12 17.25C13.7085 17.25 15.2188 16.4288 16.1763 15.1641L18.9214 16.4136C17.4349 18.7828 14.8597 20.25 12.0322 20.25C7.48348 20.25 3.78223 16.5487 3.78223 12C3.78223 7.45125 7.48273 3.75 12.0322 3.75ZM18 9.75V13.5H19.5V12H19.875C20.496 12 21 11.496 21 10.875C21 10.254 20.496 9.75 19.875 9.75H19.5H18Z" fill="black"/>
</svg>
