<svg width="24" height="24" viewBox="0 0 24 24" fill="none" xmlns="http://www.w3.org/2000/svg">
<path d="M2.25 3.75V17.25H6V21.0586L10.7637 17.25H21.75V3.75H2.25ZM3.75 5.25H20.25V15.75H10.2363L7.5 17.9385V15.75H3.75V5.25ZM7.5 9C6.6709 9 6 9.6709 6 10.5C6 11.3291 6.6709 12 7.5 12C8.3291 12 9 11.3291 9 10.5C9 9.6709 8.3291 9 7.5 9ZM12 9C11.1709 9 10.5 9.6709 10.5 10.5C10.5 11.3291 11.1709 12 12 12C12.8291 12 13.5 11.3291 13.5 10.5C13.5 9.6709 12.8291 9 12 9ZM16.5 9C15.6709 9 15 9.6709 15 10.5C15 11.3291 15.6709 12 16.5 12C17.3291 12 18 11.3291 18 10.5C18 9.6709 17.3291 9 16.5 9Z" fill="black"/>
</svg>
