<svg width="24" height="24" viewBox="0 0 24 24" fill="none" xmlns="http://www.w3.org/2000/svg">
<path d="M2.25 4.5V19.5H9.43945L12 22.0605L14.5605 19.5H21.75V4.5H2.25ZM3.75 6H20.25V18H13.9395L12 19.9395L10.0605 18H3.75V6ZM11.25 7.5V8.39062C10.383 8.70412 9.75 9.53171 9.75 10.5015C9.75 11.7352 10.7662 12.7515 12 12.7515C12.4245 12.7515 12.75 13.077 12.75 13.5015C12.75 13.926 12.4245 14.2515 12 14.2515C11.5755 14.2515 11.25 13.926 11.25 13.5015H9.75C9.75 14.4712 10.383 15.2973 11.25 15.6108V16.5H12.75V15.6094C13.617 15.2959 14.25 14.4683 14.25 13.4985C14.25 12.2648 13.2338 11.2485 12 11.2485C11.5755 11.2485 11.25 10.923 11.25 10.4985C11.25 10.074 11.5755 9.74854 12 9.74854C12.4245 9.74854 12.75 10.074 12.75 10.4985H14.25C14.25 9.52879 13.617 8.70266 12.75 8.38916V7.5H11.25Z" fill="black"/>
</svg>
