<svg width="24" height="24" viewBox="0 0 24 24" fill="none" xmlns="http://www.w3.org/2000/svg">
<path d="M12 3C7.03711 3 3 7.03711 3 12C3 16.9629 7.03711 21 12 21C16.9629 21 21 16.9629 21 12C21 7.03711 16.9629 3 12 3ZM12 4.5C16.1514 4.5 19.5 7.84863 19.5 12C19.5 16.1514 16.1514 19.5 12 19.5C7.84863 19.5 4.5 16.1514 4.5 12C4.5 7.84863 7.84863 4.5 12 4.5ZM9.91406 6.375C8.28223 6.98145 6.98145 8.28223 6.375 9.91406L7.78125 10.4297C8.23535 9.20801 9.20801 8.23535 10.4297 7.78125L9.91406 6.375ZM12 9.75C10.7666 9.75 9.75 10.7666 9.75 12C9.75 13.2334 10.7666 14.25 12 14.25C13.2334 14.25 14.25 13.2334 14.25 12C14.25 10.7666 13.2334 9.75 12 9.75ZM12 11.25C12.4219 11.25 12.75 11.5781 12.75 12C12.75 12.4219 12.4219 12.75 12 12.75C11.5781 12.75 11.25 12.4219 11.25 12C11.25 11.5781 11.5781 11.25 12 11.25ZM16.2188 13.5703C15.7646 14.792 14.792 15.7646 13.5703 16.2188L14.0859 17.625C15.7178 17.0186 17.0186 15.7178 17.625 14.0859L16.2188 13.5703Z" fill="black"/>
</svg>
