<svg width="24" height="24" viewBox="0 0 24 24" fill="none" xmlns="http://www.w3.org/2000/svg">
<path d="M12 3C7.03711 3 3 7.03711 3 12C3 16.9629 7.03711 21 12 21C16.9629 21 21 16.9629 21 12C21 7.03711 16.9629 3 12 3ZM11.2266 4.54688C11.2354 4.54688 11.2412 4.54688 11.25 4.54688V5.25H12.75V4.54688C16.3037 4.89551 19.1045 7.69629 19.4531 11.25H18.75V12.75H19.4531C19.1045 16.3037 16.3037 19.1045 12.75 19.4531V18.75H11.25V19.4531C7.69629 19.1045 4.89551 16.3037 4.54688 12.75H5.25V11.25H4.54688C4.89551 7.70215 7.68457 4.9043 11.2266 4.54688ZM16.875 7.125L10.6172 10.6172L7.125 16.875L13.3828 13.3828L16.875 7.125ZM12 10.875C12.6211 10.875 13.125 11.3789 13.125 12C13.125 12.6211 12.6211 13.125 12 13.125C11.3789 13.125 10.875 12.6211 10.875 12C10.875 11.3789 11.3789 10.875 12 10.875Z" fill="black"/>
</svg>
