<svg width="24" height="24" viewBox="0 0 24 24" fill="none" xmlns="http://www.w3.org/2000/svg">
<path d="M16.8809 3.75C16.7039 3.75 16.5303 3.83423 16.4268 3.99023C16.4193 3.99773 16.4123 4.01332 16.4048 4.02832C15.318 5.84557 14.6461 6.65771 13.4971 6.65771C12.2558 6.65771 10.457 5.70837 6.97705 4.05762C6.9013 4.02012 6.82071 4.00342 6.74121 4.00342C6.53946 4.00342 6.34431 4.11971 6.24756 4.31396C6.24756 4.31396 6.24773 4.32111 6.24023 4.32861L4.5498 8.16211C4.4223 8.43286 4.55005 8.75549 4.8208 8.87549C5.5648 9.22874 7.04458 9.92821 8.38183 10.5747C10.4923 11.5947 12.2447 12 13.7109 12C18.0332 12 19.8537 8.47355 20.9194 6.7793C21.0769 6.52355 20.9943 6.19266 20.7393 6.03516L17.1855 3.84082C17.091 3.77932 16.9851 3.75 16.8809 3.75ZM17.1929 5.60742L19.1367 6.80859C17.8775 8.79984 16.4469 10.5 13.7109 10.5C12.3587 10.5 10.7864 10.0709 9.03515 9.22412C8.09165 8.76812 7.07586 8.28502 6.29736 7.91602L7.21582 5.83447C7.34407 5.89597 7.46928 5.95615 7.59228 6.01465C10.4828 7.39615 12.0744 8.15771 13.4956 8.15771C15.2229 8.15771 16.2284 7.09842 17.1929 5.60742ZM10.2832 12C5.9602 12 4.14181 15.5436 3.08056 17.2236C2.92306 17.4794 3.00499 17.8183 3.26074 17.9766L6.82471 20.168C6.91471 20.2235 7.01356 20.25 7.11181 20.25C7.29406 20.25 7.47417 20.1588 7.57617 19.9878C8.65842 18.166 9.3281 17.3525 10.4853 17.3525C11.7258 17.3525 13.5228 18.301 17.0186 19.957C17.0966 19.9953 17.1785 20.0142 17.2588 20.0142C17.4635 20.0142 17.6558 19.8971 17.748 19.7021C17.7555 19.7021 17.7554 19.6935 17.7554 19.686L19.4546 15.8467C19.5746 15.5759 19.447 15.2526 19.1763 15.1318C18.4323 14.7778 16.9501 14.0775 15.6196 13.437C13.5061 12.4088 11.751 12 10.2832 12ZM10.2832 13.5C11.6362 13.5 13.212 13.9333 14.9707 14.7891C15.9112 15.2413 16.9256 15.723 17.7041 16.0928L16.7798 18.1816C16.638 18.1141 16.5002 18.0484 16.3652 17.9839C13.4867 16.6091 11.9013 15.8525 10.4853 15.8525C8.75585 15.8525 7.75312 16.9054 6.79687 18.3896L4.86035 17.2002C6.1211 15.2067 7.5487 13.5 10.2832 13.5Z" fill="black"/>
</svg>
