<svg width="24" height="24" viewBox="0 0 24 24" fill="none" xmlns="http://www.w3.org/2000/svg">
<path d="M6.86719 3.14062L6.65625 3.51562L1.96875 11.6953L1.75781 12.0703L1.96875 12.4453L6.65625 20.625L6.86719 21H17.1328L17.3438 20.625L22.0312 12.4453L22.2422 12.0703L22.0312 11.6953L17.3438 3.51562L17.1328 3.14062H6.86719ZM8.69531 4.64062H13.2891L9.86719 5.85938L8.69531 4.64062ZM15.5391 4.64062L12.0938 8.15625L10.4531 6.44531L15.5391 4.64062ZM7.71094 4.71094L9.11719 6.14062L7.6875 6.65625V4.75781L7.71094 4.71094ZM16.3594 4.85156L18.3281 8.25L15.3047 11.4609L12.6328 8.69531L16.3594 4.85156ZM6.9375 6.07031V6.91406L6.32812 7.125L6.9375 6.07031ZM9.67969 6.72656L11.5781 8.69531L8.78906 11.5312L7.6875 10.3594V7.45312L9.67969 6.72656ZM6.9375 7.71094V9.5625L5.69531 8.22656L5.74219 8.13281L6.9375 7.71094ZM5.29688 8.90625L6.9375 10.6641V13.4531L5.27344 15.1641L3.49219 12.0703L5.29688 8.90625ZM18.6562 9L17.625 13.8516L15.8203 12L18.6562 9ZM12.0938 9.23438L14.7891 12L12 14.9531L9.30469 12.0938L12.0938 9.23438ZM19.2422 9.86719L20.5078 12.0703L18.7969 15.0469L18.2812 14.5078L19.2422 9.86719ZM7.6875 11.4609L8.27344 12.0703L7.6875 12.6797V11.4609ZM15.3047 12.5391L17.4609 14.7422L17.2031 15.9375H12.9141L12.5156 15.5156L15.3047 12.5391ZM8.78906 12.6328L11.4844 15.5156L11.0625 15.9375H7.6875V13.7344L8.78906 12.6328ZM6.9375 14.5078V15.9375H5.71875L5.64844 15.8438L6.9375 14.5078ZM18.0938 15.3984L18.3984 15.7266L18.2812 15.9375H17.9766L18.0938 15.3984ZM6.14062 16.6875H6.9375V18.0703L6.14062 16.6875ZM7.6875 16.6875H10.3594L7.73438 19.4766L7.6875 19.3828V16.6875ZM11.3906 16.6875H12.5859L15.2109 19.5H8.74219L11.3906 16.6875ZM13.6172 16.6875H17.0391L16.5703 18.9375L16.2422 19.5L13.6172 16.6875ZM17.8125 16.6875H17.8594L17.7891 16.8047L17.8125 16.6875Z" fill="black"/>
</svg>
