<svg width="24" height="24" viewBox="0 0 24 24" fill="none" xmlns="http://www.w3.org/2000/svg">
<path d="M4.24219 4.10156C3.5625 4.10156 3 4.64062 3 5.32031V18.6797C3 19.3594 3.5625 19.8984 4.24219 19.8984H7.03125C5.83301 18.5889 5.29102 16.6904 5.25 16.5234C5.07129 15.8115 4.37109 12.6973 4.125 11.2266C4.02539 10.6348 3.96094 9.98438 3.96094 9.14062C3.96094 6.4541 5.3584 4.85449 6.25781 4.10156H4.24219ZM16.6172 4.10156C17.8271 5.18848 18.4922 7.05469 18.4922 7.05469L13.6875 8.0625C13.6875 8.0625 12.9785 6.46875 11.3438 6.46875C10.4531 6.46875 8.83594 7.09277 8.83594 8.69531C8.83594 9.73242 9.19922 11.9004 9.67969 13.9688C10.2627 16.4736 10.8955 17.7891 12.5156 17.7891C15.1816 17.7891 15.1641 15.1406 15.1641 15.1406L19.9922 14.0625C19.9922 14.0625 19.9922 14.5459 19.9922 15.2344C19.9922 17.5664 18.4746 19.3887 18 19.8984H19.7578C20.4375 19.8984 21 19.3594 21 18.6797V5.32031C21 4.64062 20.4375 4.10156 19.7578 4.10156H16.6172Z" fill="black"/>
</svg>
