<svg width="24" height="24" viewBox="0 0 24 24" fill="none" xmlns="http://www.w3.org/2000/svg">
<path d="M12 3C7.02832 3 3 7.02832 3 12C3 16.9717 7.02832 21 12 21C16.9717 21 21 16.9717 21 12C21 11.6367 20.9736 11.2793 20.9297 10.9248C20.6309 11.1299 20.2676 11.25 19.875 11.25C19.0664 11.25 18.3838 10.7344 18.1201 10.0195C17.6514 10.3184 17.0977 10.5 16.5 10.5C14.8418 10.5 13.5 9.1582 13.5 7.5C13.5 6.94922 13.6582 6.43945 13.9189 5.99414C13.9043 5.99707 13.8896 6 13.875 6C12.8379 6 12 5.16211 12 4.125C12 3.70605 12.1406 3.3252 12.3721 3.01465C12.249 3.00879 12.126 3 12 3ZM17.625 3C17.0039 3 16.5 3.50391 16.5 4.125C16.5 4.74609 17.0039 5.25 17.625 5.25C18.2461 5.25 18.75 4.74609 18.75 4.125C18.75 3.50391 18.2461 3 17.625 3ZM10.5381 4.64062C10.6875 5.60742 11.25 6.43945 12.0352 6.95508C12.0117 7.13379 12 7.31836 12 7.5C12 9.98145 14.0186 12 16.5 12C16.8721 12 17.2441 11.9531 17.6016 11.8594C18.1143 12.3281 18.7617 12.6387 19.4648 12.7266C19.0986 16.5234 15.8906 19.5 12 19.5C7.86328 19.5 4.5 16.1367 4.5 12C4.5 8.36426 7.10156 5.32324 10.5381 4.64062ZM16.5 6.75C16.0869 6.75 15.75 7.08691 15.75 7.5C15.75 7.91309 16.0869 8.25 16.5 8.25C16.9131 8.25 17.25 7.91309 17.25 7.5C17.25 7.08691 16.9131 6.75 16.5 6.75ZM10.5 7.5C10.0869 7.5 9.75 7.83691 9.75 8.25C9.75 8.66309 10.0869 9 10.5 9C10.9131 9 11.25 8.66309 11.25 8.25C11.25 7.83691 10.9131 7.5 10.5 7.5ZM20.25 7.5C19.8369 7.5 19.5 7.83691 19.5 8.25C19.5 8.66309 19.8369 9 20.25 9C20.6631 9 21 8.66309 21 8.25C21 7.83691 20.6631 7.5 20.25 7.5ZM8.25 9.75C7.4209 9.75 6.75 10.4209 6.75 11.25C6.75 12.0791 7.4209 12.75 8.25 12.75C9.0791 12.75 9.75 12.0791 9.75 11.25C9.75 10.4209 9.0791 9.75 8.25 9.75ZM12 11.25C11.5869 11.25 11.25 11.5869 11.25 12C11.25 12.4131 11.5869 12.75 12 12.75C12.4131 12.75 12.75 12.4131 12.75 12C12.75 11.5869 12.4131 11.25 12 11.25ZM9.375 14.25C8.75391 14.25 8.25 14.7539 8.25 15.375C8.25 15.9961 8.75391 16.5 9.375 16.5C9.99609 16.5 10.5 15.9961 10.5 15.375C10.5 14.7539 9.99609 14.25 9.375 14.25ZM14.625 15C14.0039 15 13.5 15.5039 13.5 16.125C13.5 16.7461 14.0039 17.25 14.625 17.25C15.2461 17.25 15.75 16.7461 15.75 16.125C15.75 15.5039 15.2461 15 14.625 15Z" fill="black"/>
</svg>
