<svg width="24" height="24" viewBox="0 0 24 24" fill="none" xmlns="http://www.w3.org/2000/svg">
<path d="M11.5503 2.25C6.52529 2.25 2.25 6.75 2.25 12C2.25 17.25 6.52559 21.75 11.4756 21.75H12.8247C16.6497 21.75 20.1753 19.2 21.6753 15.75H20.1006C18.7712 18.1988 16.2657 19.9935 13.5 20.2236V18.8994C13.5 17.9182 13.9183 17.0408 14.6763 16.5161L14.6982 16.5015L14.9077 16.3345C15.2854 16.4388 15.6912 16.5 16.125 16.5C17.4375 16.5 18.5173 15.9808 19.2173 15.1934C19.9172 14.4059 20.25 13.3854 20.25 12.375C20.25 11.3646 19.9172 10.3441 19.2173 9.55664C18.628 8.89374 17.7669 8.42545 16.7271 8.29248C16.5707 7.66229 16.2896 7.05992 15.8423 6.55664C15.1423 5.76919 14.0625 5.25 12.75 5.25C11.4375 5.25 10.3577 5.76919 9.65771 6.55664C9.21036 7.05992 8.92931 7.66229 8.77295 8.29248C7.7331 8.42545 6.87196 8.89374 6.28271 9.55664C5.58276 10.3441 5.25 11.3646 5.25 12.375C5.25 13.3854 5.58276 14.4059 6.28271 15.1934C6.98267 15.9808 8.0625 16.5 9.375 16.5C9.8088 16.5 10.2146 16.4388 10.5923 16.3345L10.8018 16.5015L10.8237 16.5161C11.5817 17.0408 12 17.9182 12 18.8994V20.25H11.5503C7.27529 20.25 3.75 16.5 3.75 12C3.75 7.5 7.27559 3.75 11.4756 3.75H12.8247C15.8247 3.75 18.6744 5.625 20.0244 8.25H21.75C20.25 4.8 16.7244 2.25 12.8994 2.25H11.5503ZM12.75 6.75C13.6875 6.75 14.2952 7.07456 14.7202 7.55273C14.9219 7.77967 15.076 8.05086 15.186 8.34375C14.2958 8.52668 13.5577 8.96605 13.0327 9.55664C12.9294 9.67284 12.8374 9.79582 12.75 9.92139C12.6626 9.79582 12.5706 9.67284 12.4673 9.55664C11.9423 8.96605 11.2042 8.52668 10.314 8.34375C10.424 8.05086 10.5781 7.77967 10.7798 7.55273C11.2048 7.07456 11.8125 6.75 12.75 6.75ZM8.66309 9.8291C8.74869 10.6857 9.06289 11.5242 9.65771 12.1934C10.1827 12.7839 10.9208 13.2233 11.811 13.4062C11.701 13.6991 11.5469 13.9703 11.3452 14.1973C10.9202 14.6754 10.3125 15 9.375 15C8.4375 15 7.82983 14.6754 7.40479 14.1973C6.97974 13.7191 6.75 13.0521 6.75 12.375C6.75 11.6979 6.97974 11.0309 7.40479 10.5527C7.70992 10.2095 8.11525 9.9508 8.66309 9.8291ZM16.8369 9.8291C17.3847 9.9508 17.7901 10.2095 18.0952 10.5527C18.5203 11.0309 18.75 11.6979 18.75 12.375C18.75 13.0521 18.5203 13.7191 18.0952 14.1973C17.6702 14.6754 17.0625 15 16.125 15C15.1875 15 14.5798 14.6754 14.1548 14.1973C13.9531 13.9703 13.799 13.6991 13.689 13.4062C14.5792 13.2233 15.3173 12.7839 15.8423 12.1934C16.4371 11.5242 16.7513 10.6857 16.8369 9.8291ZM10.166 9.854C10.6711 9.9832 11.0558 10.2272 11.3452 10.5527C11.6689 10.9169 11.8771 11.3917 11.959 11.896C11.4539 11.7668 11.0692 11.5228 10.7798 11.1973C10.4561 10.8331 10.2479 10.3583 10.166 9.854ZM15.334 9.854C15.2521 10.3583 15.0439 10.8331 14.7202 11.1973C14.4308 11.5228 14.0461 11.7668 13.541 11.896C13.6229 11.3917 13.8311 10.9169 14.1548 10.5527C14.4442 10.2272 14.8289 9.9832 15.334 9.854ZM12.75 14.8286C12.8374 14.9542 12.9294 15.0772 13.0327 15.1934C13.1611 15.3378 13.3059 15.4699 13.459 15.5947C13.1796 15.875 12.9582 16.2026 12.75 16.5352C12.5418 16.2026 12.3204 15.875 12.041 15.5947C12.1941 15.4699 12.3389 15.3378 12.4673 15.1934C12.5706 15.0772 12.6626 14.9542 12.75 14.8286Z" fill="black"/>
</svg>
