<svg width="24" height="24" viewBox="0 0 24 24" fill="none" xmlns="http://www.w3.org/2000/svg">
<g clip-path="url(#clip0_201_33248)">
<path d="M4.58936 9C4.31936 9 4.11779 9.1643 4.05029 9.4043L2.74512 14.25L3.66797 14.2427C3.92297 14.2427 4.13221 14.0782 4.19971 13.8457L5.16797 10.2832H5.91064C6.22564 10.2832 6.51809 10.4919 6.60059 10.8369C6.69059 11.2419 6.37564 11.6777 5.91064 11.6777H5.52686C5.26436 11.6777 5.05529 11.8497 4.98779 12.0747L4.74756 12.9595H5.94727C7.34227 12.9595 8.13715 11.6168 7.88965 10.5293C7.67965 9.6068 6.87803 9 5.97803 9H4.58936ZM23.0405 9C22.853 9 22.6944 9.12047 22.6494 9.29297L21.3149 14.25C22.0874 14.25 22.8076 13.732 22.9951 12.9595L23.9927 9.30762C24.0377 9.15012 23.9176 9 23.7451 9H23.0405ZM8.51367 10.5L8.39209 10.9673C8.30659 11.3078 8.54875 11.6191 8.896 11.6191H10.9307C11.0724 11.6191 11.0151 11.7685 11.0083 11.8037L10.7036 12.9243C10.6894 12.9738 10.6686 13.1089 10.5059 13.1089H9.271C9.07975 13.1089 9.07975 12.832 9.271 12.832H10.0371C10.2779 12.832 10.4698 12.6695 10.541 12.4497L10.6611 11.9883H8.9458C7.5568 11.9883 7.40129 14.2354 8.92529 14.2354L10.9585 14.2427C11.3552 14.2427 11.6901 13.9871 11.7891 13.6113L12.2856 11.7905C12.4559 11.117 11.9446 10.5 11.2778 10.5H8.51367ZM1.87793 10.5073C1.06268 10.5073 0.316524 11.0029 0.0615237 11.9531C-0.250476 13.1441 0.657809 14.25 1.84131 14.25H2.28076L2.53564 13.3286C2.57839 13.1726 2.45709 13.0371 2.30859 13.0371H1.9043C1.03205 13.0371 1.0253 11.7188 1.9043 11.7188H2.56494C2.81319 11.7188 3.00346 11.5629 3.07471 11.3364L3.29443 10.5073H1.87793ZM14.8359 10.5073V10.5132H13.1279L12.1992 13.9585C12.1565 14.1145 12.2756 14.25 12.4248 14.25H13.0913C13.2616 14.25 13.4177 14.1441 13.4604 13.9746L14.0698 11.7275H14.7715C15.2177 11.7275 15.5382 12.1383 15.4175 12.5493L15.041 13.9526C14.9983 14.1086 15.1053 14.25 15.2681 14.25H15.9478C16.1105 14.25 16.2668 14.1434 16.3096 13.9731L16.6216 12.8101C16.9403 11.6408 16.0614 10.5073 14.8359 10.5073ZM18.7046 10.5088C18.0738 10.5088 17.5067 10.9338 17.3364 11.5503L16.9541 12.9536C16.7771 13.5776 17.2517 14.2515 17.9604 14.2515H20.3203C20.5611 14.2515 20.7605 14.0874 20.8242 13.8677L21.0293 13.1309H18.4277C18.3002 13.1309 18.2152 13.0097 18.2505 12.8965L18.5347 11.8403C18.5632 11.7053 18.6616 11.6279 18.8101 11.6279H19.9731C20.0654 11.6279 20.1362 11.7135 20.1152 11.8125L20.0859 11.9048C20.0642 11.9753 20.0224 12.0044 19.9512 12.0044H19.1851C18.9368 12.0044 18.7396 12.167 18.6826 12.3867L18.5552 12.8467H20.4478C20.8235 12.8467 21.1705 12.6127 21.2695 12.2227L21.3838 11.8037C21.5608 11.1302 21.0575 10.5073 20.3848 10.5088H18.7046Z" fill="black"/>
</g>
<defs>
<clipPath id="clip0_201_33248">
<rect width="24" height="24" fill="white"/>
</clipPath>
</defs>
</svg>
