<svg width="24" height="24" viewBox="0 0 24 24" fill="none" xmlns="http://www.w3.org/2000/svg">
<path d="M12 2.25C6.624 2.25 2.25 6.624 2.25 12C2.25 17.376 6.624 21.75 12 21.75C17.376 21.75 21.75 17.376 21.75 12C21.75 6.624 17.376 2.25 12 2.25ZM12 3.75C16.5487 3.75 20.25 7.45125 20.25 12C20.25 12.9289 20.0876 13.8189 19.8032 14.6528L10.5 10.5117V10.5C10.5 9.67275 11.1727 9 12 9C12.8273 9 13.5 9.67275 13.5 10.5H15C15 8.8455 13.6545 7.5 12 7.5C10.5609 7.5 9.35834 8.51926 9.06885 9.87305L4.80615 7.97607C6.22039 5.45823 8.91263 3.75 12 3.75ZM4.19678 9.34717L9 11.4858V13.5C9 15.1545 10.3455 16.5 12 16.5C13.4391 16.5 14.6417 15.4807 14.9312 14.127L19.1938 16.0239C17.7796 18.5418 15.0874 20.25 12 20.25C7.45125 20.25 3.75 16.5487 3.75 12C3.75 11.0711 3.9124 10.1811 4.19678 9.34717ZM10.5 12.1538L13.5249 13.5H13.5C13.5 14.3273 12.8273 15 12 15C11.1727 15 10.5 14.3273 10.5 13.5V12.1538Z" fill="black"/>
</svg>
