<svg width="24" height="24" viewBox="0 0 24 24" fill="none" xmlns="http://www.w3.org/2000/svg">
<path d="M12 2.25C6.624 2.25 2.25 6.624 2.25 12C2.25 17.376 6.624 21.75 12 21.75C17.376 21.75 21.75 17.376 21.75 12C21.75 6.624 17.376 2.25 12 2.25ZM12 3.75C16.5487 3.75 20.25 7.45125 20.25 12C20.25 16.5487 16.5487 20.25 12 20.25C7.45125 20.25 3.75 16.5487 3.75 12C3.75 7.45125 7.45125 3.75 12 3.75ZM6.75 9V15H8.25V13.5H9.75C10.9905 13.5 12 12.4905 12 11.25C12 10.0095 10.9905 9 9.75 9H6.75ZM12.75 9V15H15.375C16.8225 15 18 13.6545 18 12C18 10.3455 16.8225 9 15.375 9H12.75ZM8.25 10.5H9.75C10.1632 10.5 10.5 10.836 10.5 11.25C10.5 11.664 10.1632 12 9.75 12H8.25V10.5ZM14.25 10.5H15.375C15.9847 10.5 16.5 11.187 16.5 12C16.5 12.813 15.9847 13.5 15.375 13.5H14.25V10.5Z" fill="black"/>
</svg>
