<svg width="24" height="24" viewBox="0 0 24 24" fill="none" xmlns="http://www.w3.org/2000/svg">
<path d="M12 2.25C6.624 2.25 2.25 6.624 2.25 12C2.25 17.376 6.624 21.75 12 21.75C17.376 21.75 21.75 17.376 21.75 12C21.75 6.624 17.376 2.25 12 2.25ZM12 3.75C16.5487 3.75 20.25 7.45125 20.25 12C20.25 12.9289 20.0876 13.8189 19.8032 14.6528L13.1646 11.6968L15.75 8.25H13.9688L12 10.7344L10.1484 8.25H8.36719L9.84375 10.2188L4.80615 7.97607C6.22039 5.45823 8.91263 3.75 12 3.75ZM4.19678 9.34717L9.75 11.8198V13.5H11.25V14.25H9.75V15.75H11.25V16.5H12.75V15.75H14.25V14.25H12.75V13.5H13.5249L19.1938 16.0239C17.7796 18.5418 15.0874 20.25 12 20.25C7.45125 20.25 3.75 16.5487 3.75 12C3.75 11.0711 3.9124 10.1811 4.19678 9.34717Z" fill="black"/>
</svg>
