<svg width="24" height="24" viewBox="0 0 24 24" fill="none" xmlns="http://www.w3.org/2000/svg">
<path d="M12 2.25C6.64091 2.25 2.25 6.64091 2.25 12C2.25 17.3591 6.64091 21.75 12 21.75C17.3591 21.75 21.75 17.3591 21.75 12C21.75 6.64091 17.3591 2.25 12 2.25ZM12 3.75C16.5409 3.75 20.25 7.45909 20.25 12C20.25 16.5409 16.5409 20.25 12 20.25C7.45909 20.25 3.75 16.5409 3.75 12C3.75 7.45909 7.45909 3.75 12 3.75ZM12 6C11.175 6 10.5 6.675 10.5 7.5C10.5 8.325 11.175 9 12 9C12.825 9 13.5 8.325 13.5 7.5C13.5 6.675 12.825 6 12 6ZM12 9.75C10.725 9.75 9.75 10.725 9.75 12V14.25L10.5 15V18H13.5V15L14.25 14.25V12C14.25 10.725 13.275 9.75 12 9.75Z" fill="black"/>
</svg>
