<svg width="24" height="24" viewBox="0 0 24 24" fill="none" xmlns="http://www.w3.org/2000/svg">
<path d="M12 2.25C6.624 2.25 2.25 6.624 2.25 12C2.25 17.376 6.624 21.75 12 21.75C17.376 21.75 21.75 17.376 21.75 12C21.75 6.624 17.376 2.25 12 2.25ZM12 3.75C16.5487 3.75 20.25 7.45125 20.25 12C20.25 16.5487 16.5487 20.25 12 20.25C7.45125 20.25 3.75 16.5487 3.75 12C3.75 7.45125 7.45125 3.75 12 3.75ZM12 7.5C10.3455 7.5 9 8.8455 9 10.5V13.5C9 15.1545 10.3455 16.5 12 16.5C13.6545 16.5 15 15.1545 15 13.5V10.5C15 8.8455 13.6545 7.5 12 7.5ZM12 9C12.1923 9 12.3743 9.04071 12.5435 9.10693L10.5 13.4062V10.5C10.5 9.67275 11.1727 9 12 9ZM13.5 10.5894V13.5C13.5 14.3273 12.8273 15 12 15C11.8067 15 11.6234 14.9599 11.4536 14.8931L13.5 10.5894Z" fill="black"/>
</svg>
