<svg width="24" height="24" viewBox="0 0 24 24" fill="none" xmlns="http://www.w3.org/2000/svg">
<path d="M12 2.25C6.624 2.25 2.25 6.624 2.25 12C2.25 17.376 6.624 21.75 12 21.75C17.376 21.75 21.75 17.376 21.75 12C21.75 6.624 17.376 2.25 12 2.25ZM12 3.75C16.5487 3.75 20.25 7.45125 20.25 12C20.25 16.5487 16.5487 20.25 12 20.25C7.45125 20.25 3.75 16.5487 3.75 12C3.75 7.45125 7.45125 3.75 12 3.75ZM12.0952 6.75C11.898 6.75 11.7344 6.90431 11.7217 7.10156L11.458 11.2134L11.2236 7.7915C11.2094 7.59425 11.0459 7.44287 10.8486 7.44287C10.6514 7.44287 10.4893 7.595 10.4751 7.7915L10.2393 11.168L10.0195 8.47852C10.003 8.28502 9.84171 8.13578 9.64746 8.13428H9.64453C9.45103 8.13428 9.289 8.28137 9.271 8.47412L8.92969 12.0015L8.78906 11.2119C8.76131 11.0582 8.64034 10.9379 8.48584 10.9102C8.32909 10.8854 8.17494 10.9524 8.09619 11.0874L7.56006 12H6V12.75H7.77393C7.90668 12.75 8.03166 12.6794 8.09766 12.5654L8.22949 12.3398L8.67334 14.8066C8.70709 14.9904 8.88088 15.1187 9.05713 15.1157C9.24388 15.1075 9.39802 14.9626 9.41602 14.7759L9.61377 12.7295L9.89355 16.1558C9.91005 16.3508 10.0736 16.5 10.2686 16.5H10.27C10.4665 16.4985 10.6278 16.3471 10.6421 16.1514L10.8457 13.2363L11.0977 16.8999C11.1112 17.0972 11.2754 17.25 11.4727 17.25H11.4741C11.6721 17.2493 11.8349 17.0957 11.8477 16.8984L12.0835 13.2026L12.2593 16.147C12.2705 16.3427 12.4312 16.497 12.627 16.5H12.6328C12.8263 16.5 12.9883 16.3529 13.0063 16.1587L13.2671 13.2671L13.4619 16.1499C13.4754 16.3449 13.6368 16.4978 13.8325 16.5H13.8369C14.0304 16.5 14.1924 16.3537 14.2104 16.1602L14.5532 12.4775L14.7759 14.0991C14.7984 14.2656 14.9302 14.3974 15.0967 14.4199C15.2684 14.4402 15.424 14.3525 15.4907 14.1987L16.1235 12.75H18V12H15.8774C15.7282 12 15.5947 12.0891 15.5347 12.2256L15.3369 12.6768L14.8521 9.15088C14.8266 8.96188 14.6654 8.83465 14.4727 8.82715C14.2822 8.83165 14.1259 8.97871 14.1079 9.16846L13.8955 11.4492L13.6948 8.48438C13.6821 8.28937 13.52 8.13653 13.3242 8.13428C13.1165 8.12603 12.9635 8.28059 12.9463 8.47559L12.709 11.1123L12.4702 7.10303C12.4582 6.90503 12.2947 6.75075 12.0967 6.75H12.0952Z" fill="black"/>
</svg>
