<svg width="24" height="24" viewBox="0 0 24 24" fill="none" xmlns="http://www.w3.org/2000/svg">
<path d="M12 2.25C6.624 2.25 2.25 6.624 2.25 12C2.25 17.376 6.624 21.75 12 21.75C17.376 21.75 21.75 17.376 21.75 12C21.75 6.624 17.376 2.25 12 2.25ZM12 3.75C16.5487 3.75 20.25 7.45125 20.25 12C20.25 12.9289 20.0876 13.8189 19.8032 14.6528L12.75 11.5122V10.5H10.7109C10.7987 10.2127 10.9071 9.95475 11.0391 9.75C11.3698 9.237 11.7508 9 12.3516 9C12.9021 9 13.2212 9.22837 13.7109 9.79688L14.8594 8.8125C14.2526 8.112 13.4293 7.5 12.3516 7.5C11.2558 7.5 10.3414 8.08594 9.79688 8.92969C9.59261 9.24668 9.44411 9.60874 9.3208 9.98584L4.80615 7.97607C6.22039 5.45823 8.91263 3.75 12 3.75ZM4.19678 9.34717L8.25 11.1519V11.625H9.02344C9.01744 11.751 9 11.874 9 12C9 12.126 9.01744 12.249 9.02344 12.375H8.25V13.5H9.16406C9.29306 14.0715 9.50063 14.6098 9.79688 15.0703C10.3414 15.9141 11.2558 16.5 12.3516 16.5C13.3798 16.5 14.2324 15.9816 14.8594 15.2578L13.7109 14.2734C13.2414 14.8157 12.9523 15 12.3516 15C11.7508 15 11.3698 14.763 11.0391 14.25C10.9071 14.0452 10.7994 13.7872 10.7109 13.5H12.75V13.1558L19.1938 16.0239C17.7796 18.5418 15.0874 20.25 12 20.25C7.45125 20.25 3.75 16.5487 3.75 12C3.75 11.0711 3.9124 10.1811 4.19678 9.34717Z" fill="black"/>
</svg>
