<svg width="24" height="24" viewBox="0 0 24 24" fill="none" xmlns="http://www.w3.org/2000/svg">
<path d="M12 2.25C6.624 2.25 2.25 6.624 2.25 12C2.25 17.376 6.624 21.75 12 21.75C17.376 21.75 21.75 17.376 21.75 12C21.75 6.624 17.376 2.25 12 2.25ZM12 3.75C16.5487 3.75 20.25 7.45125 20.25 12C20.25 12.9289 20.0876 13.8189 19.8032 14.6528L13.5117 11.8521C13.4291 11.7761 13.3455 11.7014 13.2524 11.6382C13.1326 11.5568 13.0044 11.4861 12.8701 11.4287C12.7358 11.3713 12.5953 11.3272 12.4497 11.2969C12.3719 11.2807 12.2898 11.2797 12.2095 11.272L11.376 10.9014C11.3537 10.8659 11.3233 10.8369 11.3071 10.7974C11.2702 10.707 11.25 10.6069 11.25 10.5C11.25 10.3931 11.2702 10.293 11.3071 10.2026C11.344 10.1123 11.3983 10.0324 11.4653 9.96533C11.5324 9.8983 11.6123 9.84404 11.7026 9.80713C11.793 9.77021 11.8931 9.75 12 9.75C12.4275 9.75 12.75 10.0725 12.75 10.5H14.25C14.25 10.3791 14.2396 10.2598 14.2207 10.144C14.2018 10.0283 14.175 9.91629 14.1387 9.80713C13.9207 9.15217 13.4025 8.62834 12.75 8.39209V7.5H11.25V8.39209C11.1412 8.43146 11.0355 8.47959 10.9351 8.53418C10.8346 8.58877 10.7387 8.65037 10.6479 8.71875C10.5572 8.78713 10.4725 8.86214 10.3931 8.94287C10.2343 9.10433 10.099 9.28849 9.99463 9.49072C9.94242 9.59184 9.89766 9.69797 9.86133 9.80713C9.82052 9.92975 9.7951 10.0571 9.77637 10.188L4.80615 7.97607C6.22039 5.45823 8.91263 3.75 12 3.75ZM4.19678 9.34717L10.4883 12.1479C10.6773 12.3217 10.8913 12.4693 11.1299 12.5713C11.3359 12.6594 11.5599 12.7058 11.7905 12.728L12.624 13.0986C12.6463 13.1341 12.6767 13.1631 12.6929 13.2026C12.7298 13.293 12.75 13.3931 12.75 13.5C12.75 13.8206 12.5684 14.0821 12.2974 14.1929C12.207 14.2298 12.1069 14.25 12 14.25C11.8931 14.25 11.793 14.2298 11.7026 14.1929C11.6123 14.156 11.5324 14.1017 11.4653 14.0347C11.3313 13.9006 11.25 13.7137 11.25 13.5H9.75C9.75 13.6209 9.76037 13.7402 9.7793 13.856C9.79822 13.9717 9.825 14.0837 9.86133 14.1929C9.89766 14.302 9.94242 14.4082 9.99463 14.5093C10.0468 14.6104 10.1068 14.7062 10.1733 14.7979C10.2399 14.8895 10.3137 14.9764 10.3931 15.0571C10.4725 15.1379 10.5572 15.2129 10.6479 15.2812C10.7387 15.3496 10.8346 15.4112 10.9351 15.4658C11.0355 15.5204 11.1412 15.5685 11.25 15.6079V16.5H12.75V15.6079C13.5112 15.3323 14.0882 14.6663 14.2207 13.856C14.223 13.8417 14.2216 13.8264 14.2236 13.812L19.1938 16.0239C17.7796 18.5418 15.0874 20.25 12 20.25C7.45125 20.25 3.75 16.5487 3.75 12C3.75 11.0711 3.9124 10.1811 4.19678 9.34717Z" fill="black"/>
</svg>
