<svg width="24" height="24" viewBox="0 0 24 24" fill="none" xmlns="http://www.w3.org/2000/svg">
<path d="M12 3C7.03711 3 3 7.03711 3 12C3 16.9629 7.03711 21 12 21C16.9629 21 21 16.9629 21 12C21 7.03711 16.9629 3 12 3ZM12 4.5C16.1514 4.5 19.5 7.84863 19.5 12C19.5 16.1514 16.1514 19.5 12 19.5C7.84863 19.5 4.5 16.1514 4.5 12C4.5 7.84863 7.84863 4.5 12 4.5ZM9 9C7.7666 9 6.75 10.0166 6.75 11.25V12.75C6.75 13.9834 7.7666 15 9 15C10.2334 15 11.25 13.9834 11.25 12.75H9.75C9.75 13.1748 9.4248 13.5 9 13.5C8.5752 13.5 8.25 13.1748 8.25 12.75V11.25C8.25 10.8252 8.5752 10.5 9 10.5C9.4248 10.5 9.75 10.8252 9.75 11.25H11.25C11.25 10.0166 10.2334 9 9 9ZM15 9C13.7666 9 12.75 10.0166 12.75 11.25V12.75C12.75 13.9834 13.7666 15 15 15C16.2334 15 17.25 13.9834 17.25 12.75H15.75C15.75 13.1748 15.4248 13.5 15 13.5C14.5752 13.5 14.25 13.1748 14.25 12.75V11.25C14.25 10.8252 14.5752 10.5 15 10.5C15.4248 10.5 15.75 10.8252 15.75 11.25H17.25C17.25 10.0166 16.2334 9 15 9Z" fill="black"/>
</svg>
