<svg width="24" height="24" viewBox="0 0 24 24" fill="none" xmlns="http://www.w3.org/2000/svg">
<path d="M12.0103 2.52246C11.6075 2.74446 4.72087 6.67344 3.85987 7.15869C3.78862 7.19019 3.74547 7.26308 3.75147 7.34033C3.75297 8.34608 3.75293 16.6787 3.75293 16.7109C3.74918 16.7612 3.77603 16.8093 3.82178 16.8311C3.82703 16.8341 8.97072 19.7885 11.9077 21.479H12.019C12.4285 21.2458 19.3328 17.3102 20.124 16.8662C20.2065 16.828 20.2553 16.7431 20.2485 16.6523C20.2455 13.5623 20.2455 10.4721 20.2485 7.38281C20.2485 7.26806 20.2233 7.18315 20.1123 7.13965C20.0921 7.1314 12.0837 2.52771 12.0747 2.52246H12.0103ZM12.2666 3.20508C14.6891 4.59708 17.1017 5.98131 19.5234 7.37256C19.2474 7.48056 15.7142 8.80811 15.7105 8.80811C15.6835 8.81786 15.6736 8.83159 15.6856 8.86084C15.7133 8.92909 15.7399 8.99835 15.7632 9.06885C15.7759 9.1086 15.7938 9.11682 15.8335 9.10107C15.925 9.06507 19.6853 7.65059 19.749 7.63184V16.1631C19.7468 16.1608 17.156 11.6682 16.8853 11.2002C16.8455 11.1319 16.8438 11.1317 16.7695 11.146C16.507 11.1977 16.606 11.174 16.522 11.1987C17.5217 12.9327 18.5243 14.6706 19.5293 16.4121H12.6167C12.5717 16.4121 12.5464 16.4083 12.5479 16.3521C12.5479 16.3483 12.5156 15.3626 12.5156 15.3589C12.5164 15.3169 12.4997 15.3038 12.46 15.3091C12.1712 15.3608 11.8764 15.3651 11.5869 15.3208C11.5464 15.3141 11.5356 15.3309 11.5356 15.3677V15.7764C11.5356 15.8034 11.5306 15.8233 11.4976 15.8188C10.8616 15.7258 10.9897 15.8257 9.96973 14.5957C9.86923 14.4772 9.78009 14.351 9.68409 14.231C9.68184 14.2295 9.67973 14.2273 9.67823 14.2251C9.65873 14.2018 9.66159 14.1684 9.68409 14.1489C9.99834 13.7694 10.2715 13.4819 10.2393 12.9419C10.2198 12.6119 10.0614 12.357 9.77491 12.186C9.40591 11.9663 8.94719 12.0073 7.70069 12.0073C7.56119 12.0073 7.52827 12.1493 7.63477 12.186C7.67752 12.2003 7.76409 12.1975 7.80909 12.2065C7.99509 12.2425 8.00831 12.307 8.00831 12.7075C8.01131 15.3145 8.01529 15.142 7.96729 15.6475C7.94854 15.8417 7.8427 15.783 7.7212 15.8115C7.68595 15.8168 7.65624 15.8429 7.64649 15.8774C7.63374 15.9254 7.66148 15.9746 7.70948 15.9873C7.78598 16.0098 8.89756 16.0059 8.95606 15.9917C9.08056 15.9602 9.05327 15.8183 8.93702 15.8086C8.65877 15.7861 8.59763 15.7933 8.57813 15.6313C8.54663 15.3576 8.55201 15.3934 8.54151 14.4229C8.54076 14.3554 8.54293 14.3555 8.60743 14.3555C9.10018 14.3555 9.14231 14.3294 9.22706 14.4434C9.49481 14.8056 9.76411 15.1667 10.0371 15.5244C10.3049 15.8754 10.5521 15.9924 10.8281 15.9946C11.5954 16.0014 11.5078 15.9817 11.5078 16.0312V16.3594C11.5071 16.4119 11.4981 16.4209 11.4448 16.4209H4.54102C4.47202 16.4209 4.46415 16.4302 4.49415 16.3784C5.64465 14.3812 5.46695 14.6891 6.9917 12.0483C7.0172 12.0041 7.01416 11.9986 6.96241 11.9956C6.73591 11.9806 6.68549 11.9485 6.62549 12.0527C6.62324 12.0557 4.28323 16.1091 4.25098 16.1616V7.63037C4.34848 7.65737 5.23893 8.00098 5.24268 8.00098C5.32893 8.03323 5.35244 8.03255 5.63819 7.81055L4.49561 7.37988C4.49411 7.37538 4.49122 7.3712 4.49122 7.3667C6.88672 6.0017 9.2822 4.63746 11.6792 3.27246L11.688 3.27832L11.6851 3.27979C10.6253 5.11279 9.56188 6.95139 8.49463 8.79639C8.61988 8.79639 8.72866 8.79946 8.83741 8.79346C8.90416 8.78896 11.6618 3.91946 11.9985 3.37646C12.3135 3.91196 14.9984 8.5774 15.0352 8.63965C15.0847 8.7259 15.1177 8.75167 15.4717 8.78467L15.4819 8.77295L12.2666 3.20508ZM11.9458 5.72168C11.6636 5.75243 11.4061 5.97961 11.4141 6.32227C11.4193 6.55627 11.5352 6.72843 11.7422 6.83643C11.7827 6.85368 11.8075 6.89618 11.8023 6.94043C11.7873 7.19843 11.7911 7.01692 11.7656 8.03467C11.7641 8.09992 11.762 8.10205 11.6982 8.10205C10.568 8.0938 10.5268 8.10827 10.3198 8.03027C10.2463 8.00252 10.2074 8.02259 10.1924 8.10059C10.1504 8.32334 10.1098 8.54509 10.0708 8.76709C10.0641 8.80759 10.1266 8.98705 10.2158 8.7583C10.3441 8.4298 10.5078 8.46286 11.7056 8.44336C11.7326 8.44336 11.7569 8.44609 11.7554 8.48584C11.7291 9.01309 11.6214 12.77 11.6177 12.9785C11.6222 13.0258 11.5909 13.0684 11.5444 13.0767C11.1139 13.2139 10.6351 13.7111 10.8076 14.4243C11.0251 15.3251 11.9698 15.2901 12.0718 15.2856C13.1615 15.2354 13.3174 14.3467 13.2642 13.9102C13.2259 13.5967 13.075 13.3558 12.8042 13.1953C12.7 13.1391 12.5922 13.0894 12.4819 13.0459C12.4564 13.0339 12.4365 13.0218 12.4365 12.9888C12.4365 12.9843 12.2988 8.47276 12.2988 8.46826C12.2988 8.44201 12.3092 8.43311 12.3355 8.43311C14.014 8.51936 13.5989 8.51992 13.7842 8.87842C13.8104 8.93017 13.8471 8.93528 13.8809 8.88428C13.9146 8.83328 13.9116 8.13217 13.9116 8.12842C13.9094 8.06467 13.8787 8.04539 13.8164 8.05664C13.7489 8.07239 13.6803 8.08215 13.6113 8.0874L13.6128 8.09033C13.1875 8.10083 12.3407 8.10498 12.3369 8.10498C12.3069 8.10498 12.2915 8.09696 12.2915 8.06396C12.251 6.79197 12.2549 6.97243 12.2549 6.95068C12.2474 6.88543 12.2792 6.82252 12.3369 6.79102C12.6422 6.59677 12.6812 6.16225 12.4277 5.896C12.2936 5.75481 12.1151 5.70323 11.9458 5.72168ZM12 6.03223C12.372 6.03298 12.3548 6.58751 11.9971 6.58301C11.6393 6.57851 11.6363 6.03369 12 6.03369V6.03223ZM6.75147 7.69629C6.59218 7.7048 6.4238 7.72625 6.24024 7.76807C5.13624 8.01857 4.65071 9.03834 4.75196 9.99609C4.99796 12.3706 8.15052 11.893 8.20752 11.5532C8.20827 11.5457 8.26747 11.2462 8.33497 10.8442C8.33797 10.8315 8.33793 10.8189 8.33643 10.8062C8.32893 10.7514 8.27839 10.7122 8.22364 10.7197C8.00764 10.7295 8.31247 11.4028 7.30372 11.4771C5.93047 11.5783 5.29002 10.479 5.30127 9.59326C5.32977 7.44226 7.94918 7.82258 8.06543 8.65283C8.07968 8.75783 8.06192 8.98536 8.21192 8.92236C8.24717 8.90736 8.27048 8.87419 8.27198 8.83594C8.27498 8.80519 8.31135 8.16425 8.31885 7.979C8.32335 7.87625 8.28609 7.8423 8.18409 7.83105C7.63396 7.76862 7.22935 7.67077 6.75147 7.69629ZM16.7373 8.85938C16.7202 8.86237 16.7042 8.87183 16.6934 8.88721C16.6431 8.94046 16.6835 8.86822 16.0107 10.4282C15.962 10.543 15.9139 10.6541 15.8584 10.7651C15.8172 10.8476 15.7324 10.8971 15.6401 10.8926C15.5531 10.8948 15.56 11.0112 15.668 11.0112H16.6436C16.7868 11.0112 16.7297 10.8945 16.6187 10.8735C16.4582 10.842 16.1202 10.9122 16.1675 10.793C16.2207 10.6557 16.276 10.52 16.3345 10.3857C16.3472 10.3647 16.3698 10.3507 16.3945 10.3477C16.5745 10.3379 16.7551 10.3357 16.9351 10.3447C16.9696 10.3425 17.0008 10.3645 17.0098 10.3975C17.0593 10.5235 17.1089 10.6509 17.1621 10.7754C17.2311 10.9366 17.0815 10.9594 17.1753 10.9819C17.2188 10.9954 17.2643 11.0053 17.3101 11.0098C17.4173 11.0128 16.9095 11.0043 19.188 11.02C19.3905 11.0215 19.3393 10.9017 19.3843 10.6377L19.3814 10.6362C19.3964 10.55 19.3037 10.4298 19.2422 10.6436C19.2024 10.7861 19.1409 10.7853 18.6504 10.7695C18.5941 10.774 18.5415 10.7342 18.5303 10.6787C18.513 10.5932 18.5178 9.21381 18.52 9.15381C18.5193 9.14931 18.52 9.14366 18.52 9.13916C18.5223 9.08666 18.5657 9.04609 18.6182 9.04834C18.8604 9.02284 18.7498 8.9209 18.6636 8.9209C17.8273 8.91715 17.8683 8.91926 17.8608 8.92676C17.7693 9.01676 17.854 9.03955 17.8638 9.03955C17.9823 9.05905 18.0689 9.03275 18.0689 9.19775C18.0696 10.7683 18.0704 10.6566 18.0674 10.7256C18.0621 10.8433 18.0471 10.8883 17.9136 10.8838C17.8903 10.8838 17.752 10.9088 17.6777 10.8091C17.4842 10.5421 16.912 9.01096 16.8032 8.88721C16.7987 8.88121 16.7939 8.87559 16.7871 8.87109C16.7717 8.86022 16.7544 8.85638 16.7373 8.85938ZM14.8682 8.88281C14.5524 8.88037 14.1839 8.94629 13.9248 9.20654C13.5603 9.57179 13.4019 10.4713 14.1797 10.8853C14.6717 11.147 15.3304 11.0173 15.3897 11.0098C15.6327 10.9783 15.6108 10.5418 15.6108 10.5381C15.5786 10.4293 15.5409 10.4491 15.4951 10.4971C15.4569 10.5368 15.4592 10.7101 15.2402 10.7783C14.986 10.8578 14.3884 10.8393 14.1709 10.2686C13.9617 9.7218 14.2045 8.86291 15.1773 9.14941C15.3445 9.19891 15.4428 9.31004 15.457 9.48779C15.4645 9.57629 15.5568 9.58055 15.5815 9.49805C15.589 9.47255 15.5901 9.33566 15.6021 9.13916C15.6088 9.03191 15.5829 8.98881 15.4922 8.96631H15.4907C15.4461 8.95506 15.1839 8.88525 14.8682 8.88281ZM11.2881 8.92529L10.582 8.92822C10.4598 8.96872 10.4607 9.03998 10.6069 9.05273C10.7134 9.06173 10.7271 9.09544 10.7271 9.30469C10.7203 10.9817 10.7207 10.6809 10.7095 10.8076C10.708 10.8519 10.6717 10.8875 10.6274 10.8867C10.4894 10.9002 10.3595 10.8723 10.2612 10.7695C9.87724 10.3675 9.65635 10.0843 9.6211 10.0415C9.7006 9.956 9.77536 9.87573 9.84961 9.79248C10.1751 9.42198 9.87993 8.99434 9.55518 8.95459C9.28068 8.92084 8.88136 8.92447 8.44336 8.92822C8.36911 8.92897 8.22488 9.02573 8.48438 9.05273C8.58788 9.06323 8.60743 9.10909 8.60743 9.23584C8.60668 9.31309 8.5971 9.76794 8.6001 10.7212C8.6016 10.9822 8.47106 10.8095 8.38331 10.9482C8.39606 10.9902 8.4372 11.0179 8.48145 11.0142H9.20215C9.34203 11.0123 9.34227 10.8801 9.16846 10.8838C9.02071 10.8883 9.05276 10.8402 9.02051 10.2305C9.01676 10.157 9.26449 10.1627 9.32374 10.2437C9.72124 10.7852 9.82497 11.0142 10.2202 11.0142C10.6042 11.0119 10.9876 11.0157 11.3716 11.0127C11.5148 11.0112 11.4638 10.8867 11.3716 10.8867C11.1923 10.8897 11.1864 10.8369 11.1826 10.8062C11.1699 10.7102 11.1582 10.8479 11.168 9.22119C11.1702 9.08694 11.1824 9.05955 11.3159 9.0498C11.3189 9.0498 11.3247 9.0513 11.3247 9.0498C11.4545 8.94405 11.3001 8.92529 11.2881 8.92529ZM12.6577 8.92822C12.5925 8.92972 12.5478 8.9982 12.6431 9.04395C12.6971 9.06945 12.8174 9.01243 12.8174 9.20068C12.8114 10.9459 12.8579 10.8867 12.6914 10.8867C12.5662 10.8875 12.5489 11.0112 12.6914 11.0112C12.9847 11.0135 13.2512 11.0142 13.4912 11.0142C13.5872 11.0134 13.5909 10.8905 13.4941 10.8867C13.3779 10.8822 13.2737 10.9056 13.2715 10.7549H13.27C13.2423 9.19338 13.2715 9.1408 13.2715 9.1333C13.282 9.0313 13.3885 9.06052 13.4253 9.04102C13.51 8.99602 13.4774 8.9588 13.4414 8.93555C13.4054 8.91305 12.7057 8.92822 12.6577 8.92822ZM9.10547 9.1377C9.24002 9.10929 9.51728 9.16591 9.56397 9.47754C9.57747 9.56454 9.6168 10.0244 9.1128 9.97266C9.04755 9.96591 9.0337 9.94419 9.0337 9.87744C9.03145 9.69594 9.03373 9.35546 9.03223 9.18896C9.03186 9.16684 9.06063 9.14716 9.10547 9.1377ZM16.6685 9.52734L16.894 10.1133H16.437C16.5143 9.91828 16.5882 9.73059 16.6685 9.52734ZM8.80518 12.2827C8.94374 12.2857 9.09179 12.3114 9.12891 12.3223C9.68916 12.4858 9.81234 13.2252 9.59034 13.7607C9.41859 14.1702 9.06862 14.0738 8.64112 14.0303C8.55262 14.0228 8.54004 14.0089 8.54004 13.9204C8.54004 12.8089 8.54083 12.6764 8.53858 12.3794C8.53745 12.3003 8.66662 12.2797 8.80518 12.2827ZM16.8618 12.8716C16.5258 12.9098 16.8146 12.889 15.4849 12.895C15.3439 12.8958 15.3501 13.021 15.5068 13.021L15.5098 13.0239C15.6523 13.0239 15.7433 12.8426 15.6533 14.9238C15.6473 15.0386 15.5415 15.0123 15.501 15.019C15.411 15.0355 15.3917 15.1277 15.4922 15.1465C15.5169 15.151 15.4204 15.1552 16.7959 15.1582C16.9624 15.1582 16.9673 15.0823 16.9673 15.0688C16.9815 14.9496 16.9977 14.8299 17.0142 14.7114C17.0262 14.6244 16.9263 14.6032 16.8955 14.6909C16.8205 14.9024 16.9034 14.9199 16.2876 14.9019C16.1151 14.8966 16.144 14.7536 16.144 14.2998C16.144 13.9833 16.0508 14.0456 16.6216 14.0786C16.7588 14.0869 16.7158 14.2007 16.7593 14.2749C16.7848 14.3192 16.835 14.3112 16.8545 14.2632C16.8695 14.2249 16.897 13.8488 16.897 13.8413C16.9052 13.7101 16.8014 13.7694 16.7842 13.7754C16.5847 13.8444 16.3181 13.8235 16.2026 13.8325C16.1426 13.837 16.1426 13.8376 16.1426 13.7769V13.1807C16.1426 13.1244 16.1441 13.1213 16.2026 13.1235C16.7021 13.1468 16.7685 13.116 16.7827 13.3125C16.7902 13.4145 16.8997 13.3986 16.9087 13.3184C16.9214 13.1931 16.9356 13.0671 16.9453 12.9419C16.9498 12.8811 16.9241 12.8648 16.8618 12.8716ZM14.4434 12.8936C14.2536 12.8928 13.6419 12.8943 13.5879 12.895C13.5009 12.895 13.4832 12.9994 13.5747 13.0137C13.6812 13.0302 13.7759 13.0119 13.7856 13.1514C13.7939 13.2684 13.8092 14.3336 13.7725 14.9209C13.7657 15.0394 13.6563 15.0069 13.582 15.0249C13.5213 15.0392 13.5269 15.1412 13.5981 15.1494L15.0117 15.1567C15.056 15.1567 15.2164 15.2022 15.2036 14.6982C15.2036 14.6892 15.17 14.5754 15.1025 14.6587C14.96 14.8327 15.2198 14.9381 14.4053 14.8931C14.3205 14.8886 14.2816 14.8431 14.2778 14.7583C14.2561 14.2993 14.2632 13.2974 14.2632 13.2231C14.2632 13.0049 14.3525 13.033 14.4492 13.021C14.579 13.0052 14.5649 12.8936 14.4434 12.8936ZM11.603 13.2568C11.6135 13.3311 11.565 14.6416 11.562 14.7158C11.5485 15.0256 12.5079 15.1807 12.4951 14.8125C12.4944 14.7952 12.4556 13.4425 12.4556 13.3638V13.3623L12.4688 13.3579C12.9233 13.7104 12.8509 14.515 12.6694 14.8022C12.4969 15.0835 12.1433 15.1957 11.8403 15.0645C11.0678 14.7465 11.081 13.5321 11.603 13.2568ZM12.6138 16.7329C19.7515 16.7359 19.3292 16.7274 19.3345 16.7432C18.7637 17.0739 12.6556 20.5469 12.0264 20.9092C11.9896 20.9339 11.9415 20.9339 11.9048 20.9092H11.9019C11.2479 20.5319 4.74174 16.7944 4.64649 16.7344H11.4199C11.4942 16.7344 11.4946 16.7356 11.4946 16.8076C11.4676 17.9874 11.445 18.4937 11.439 18.5845C11.4322 18.7217 11.4567 18.8591 11.5122 18.9844C11.6712 19.3646 11.8228 19.7503 11.978 20.1328C12.0155 20.2176 12.0257 20.1995 12.0527 20.1357C12.5665 18.9237 12.532 19.0094 12.5523 18.9419C12.5823 18.8489 12.5983 18.753 12.6021 18.6562C12.6036 18.4388 12.5566 16.7953 12.5566 16.7915C12.5551 16.7473 12.5688 16.7329 12.6138 16.7329Z" fill="black"/>
</svg>
