<svg width="24" height="24" viewBox="0 0 24 24" fill="none" xmlns="http://www.w3.org/2000/svg">
<path d="M11.25 2.25V3.79688C7.30078 4.1543 4.1543 7.30078 3.79688 11.25H2.25V12.75H3.79688C4.1543 16.6992 7.30078 19.8457 11.25 20.2031V21.75H12.75V20.2031C16.6992 19.8457 19.8457 16.6992 20.2031 12.75H21.75V11.25H20.2031C19.8457 7.30078 16.6992 4.1543 12.75 3.79688V2.25H11.25ZM11.25 5.27344V6.75H12.75V5.27344C15.8936 5.61328 18.3867 8.10645 18.7266 11.25H17.25V12.75H18.7266C18.3867 15.8936 15.8936 18.3867 12.75 18.7266V17.25H11.25V18.7266C8.10645 18.3867 5.61328 15.8936 5.27344 12.75H6.75V11.25H5.27344C5.61328 8.10645 8.10645 5.61328 11.25 5.27344Z" fill="black"/>
</svg>
