<svg width="24" height="24" viewBox="0 0 24 24" fill="none" xmlns="http://www.w3.org/2000/svg">
<path d="M14.6016 2.99994C14.4844 2.99115 14.3643 3.0058 14.25 3.02338C13.79 3.09955 13.374 3.39252 13.1484 3.84369L12.7734 4.54682V4.57025C12.5801 4.97162 12.5977 5.43744 12.7734 5.83588L11.9766 6.63275C10.9189 7.69037 10.1836 9.00287 9.82031 10.4531L9.28125 12.5859L8.34375 13.4999L8.88281 14.039L5.48437 17.4609L4.82812 17.5546L3.75 18.6328L5.36719 20.2499L6.44531 19.1718L6.53906 18.5156L9.96094 15.1171L10.5 15.6562L11.4141 14.7187L13.5469 14.1796C14.9971 13.8163 16.3096 13.081 17.3672 12.0234L18.1641 11.2265C18.5625 11.3935 19.0254 11.3994 19.4297 11.2031H19.4531L20.1562 10.8515C21.0615 10.4003 21.2695 9.15229 20.5547 8.43744L20.5312 8.39057L15.7031 3.58588L15.5625 3.44525C15.293 3.17572 14.9502 3.02338 14.6016 2.99994ZM14.4844 4.49994C14.4873 4.50287 14.502 4.49408 14.5078 4.49994L19.5 9.49213C19.5059 9.49799 19.4971 9.51264 19.5 9.51557L18.7734 9.86713C18.7676 9.87006 18.7559 9.87299 18.75 9.86713L14.1328 5.24994C14.127 5.24408 14.1299 5.23529 14.1328 5.2265L14.4844 4.49994ZM13.7344 6.98432L17.0156 10.2656L16.3125 10.9453C16.1777 11.08 16.0342 11.1972 15.8906 11.3203L12.6797 8.10932C12.8027 7.96576 12.9199 7.82221 13.0547 7.68744L13.7344 6.98432ZM11.8359 9.39838L14.6016 12.164C14.1445 12.3984 13.6729 12.6005 13.1719 12.7265L12.0703 13.0078L12.5391 12.539L11.4609 11.4609L10.9922 11.9296L11.2734 10.8281C11.3994 10.3271 11.6016 9.85541 11.8359 9.39838Z" fill="black"/>
</svg>
