<svg width="24" height="24" viewBox="0 0 24 24" fill="none" xmlns="http://www.w3.org/2000/svg">
<path d="M14.7422 3.23437C14.1621 3.30468 13.6465 3.71484 13.4766 4.31249L11.4844 11.2969L8.97656 12.0234C8.79785 10.7519 7.69336 9.74999 6.375 9.74999C4.93359 9.74999 3.75 10.9336 3.75 12.375C3.75 13.8164 4.93359 15 6.375 15C7.3418 15 8.19434 14.4521 8.64844 13.6641L10.9922 13.0078L10.3359 15.3516C9.54785 15.8057 9 16.6582 9 17.625C9 19.0664 10.1836 20.25 11.625 20.25C13.0664 20.25 14.25 19.0664 14.25 17.625C14.25 16.3066 13.248 15.2021 11.9766 15.0234L15.3281 3.28124C15.1289 3.22558 14.9355 3.21093 14.7422 3.23437ZM20.7188 8.67187L14.1797 10.5234L13.6875 12.2344L19.6875 10.5234C20.4844 10.2949 20.9473 9.46874 20.7188 8.67187ZM6.375 11.25C7.00488 11.25 7.5 11.7451 7.5 12.375C7.5 13.0049 7.00488 13.5 6.375 13.5C5.74512 13.5 5.25 13.0049 5.25 12.375C5.25 11.7451 5.74512 11.25 6.375 11.25ZM11.625 16.5C12.2549 16.5 12.75 16.9951 12.75 17.625C12.75 18.2549 12.2549 18.75 11.625 18.75C10.9951 18.75 10.5 18.2549 10.5 17.625C10.5 16.9951 10.9951 16.5 11.625 16.5Z" fill="black"/>
</svg>
