<svg width="24" height="24" viewBox="0 0 24 24" fill="none" xmlns="http://www.w3.org/2000/svg">
<path d="M12.75 2.25C7.37325 2.25 3 6.62325 3 12C3 17.3767 7.374 21.75 12.75 21.75C15.4808 21.75 18.0127 20.6513 19.8765 18.6562L20.5327 17.9546L19.73 17.4243C17.4162 15.3513 16.4536 13.1213 16.3389 12.8423C15.4644 14.013 14.0918 15 12.75 15C11.0933 15 9.75 13.6567 9.75 12C9.75 10.3433 11.0933 9 12.75 9C14.0948 9 15.4709 9.99054 16.3462 11.165C16.4489 10.9348 17.759 8.05168 19.73 6.57568L20.5327 6.04541L19.8765 5.34375C18.0112 3.34875 15.4808 2.25 12.75 2.25ZM12.75 3.75C14.8132 3.75 16.7421 4.49155 18.2549 5.85205C17.3016 6.7123 16.5292 7.77752 15.9712 8.68652C15.0547 8.00027 13.9425 7.5 12.75 7.5C10.269 7.5 8.25 9.519 8.25 12C8.25 14.481 10.269 16.5 12.75 16.5C13.9432 16.5 15.0562 15.9975 15.9727 15.3105C16.5037 16.1363 17.2575 17.1323 18.2812 18.123C16.7647 19.4993 14.8252 20.25 12.75 20.25C8.20125 20.25 4.5 16.5487 4.5 12C4.5 7.45125 8.2005 3.75 12.75 3.75Z" fill="black"/>
</svg>
