<svg width="24" height="24" viewBox="0 0 24 24" fill="none" xmlns="http://www.w3.org/2000/svg">
<path d="M11.9399 8.25138C11.2604 8.21763 11.2535 8.81505 11.2603 8.89005C11.2738 9.0603 11.3687 9.14786 11.3687 9.14786C11.3349 9.03236 11.3624 8.91027 11.4097 8.82852C11.4434 8.93052 11.4989 9.04618 11.6616 9.13468C11.6481 9.05293 11.6537 8.94397 11.6807 8.86222C11.6334 8.67847 11.7497 8.52237 11.8989 8.52237C12.1299 8.52237 12.1839 8.8226 12.0542 9.0131C12.1292 9.12185 12.2451 9.20252 12.3193 9.27677C12.4281 9.15452 12.5039 8.95727 12.5039 8.80802C12.5054 8.52902 12.3209 8.27163 11.9399 8.25138ZM12.6196 8.46964C12.6196 8.49664 12.6335 8.75515 12.9463 8.9794C13.0483 9.04765 13.0415 9.12174 13.0415 9.29874C13.103 9.26499 13.1707 9.2232 13.2524 9.1962C13.2119 9.2367 13.1564 9.29219 13.1294 9.35294C13.1631 9.31244 13.3875 9.17514 13.626 9.22989C13.5712 9.24339 13.497 9.27036 13.4355 9.32511C13.4625 9.31836 13.5304 9.299 13.6729 9.31925V9.17569C13.8364 9.17569 14.4609 9.06042 14.4609 9.76017C14.4609 10.4607 13.8291 10.352 13.7886 10.352C13.9858 10.5012 13.9855 10.7588 13.8633 10.9013H13.8779C15.0134 10.9013 15.1216 9.97652 15.1216 9.74552C15.1216 9.61727 15.0884 8.65915 13.9731 8.6044C12.8789 8.6044 12.8581 8.61214 12.6196 8.46964ZM8.76562 8.4755C8.76562 8.5025 8.77954 8.75515 9.09229 8.9794C9.14704 9.02665 9.1875 9.06102 9.1875 9.20352V10.5219C9.1875 10.6644 9.16111 10.7049 9.09961 10.7387C9.09286 10.7454 8.84065 10.8954 8.82715 10.8954H10.0239C10.3637 10.8954 10.6147 10.8477 10.9072 10.6025C10.887 10.4322 10.9133 10.2837 10.9336 10.1952C10.9268 10.1952 10.8721 10.2493 10.8384 10.3168C10.8384 10.1196 10.8935 9.79286 11.165 9.61661C11.165 9.61736 11.0426 9.59084 10.8589 9.65909C10.9271 9.55034 11.1984 9.38663 11.2119 9.38663C10.9607 8.57738 10.0913 8.59823 10.0913 8.61173C9.07206 8.61173 9.01013 8.618 8.76562 8.4755ZM11.7495 8.80216C11.6948 8.85691 11.6605 9.06694 11.7085 9.17569C11.7902 9.22294 11.8583 9.30431 11.8726 9.37931C11.7976 9.20906 11.4842 9.17551 11.3965 8.96476C11.3762 9.03976 11.3897 9.13545 11.4302 9.1962C11.4302 9.1962 11.3556 9.16894 11.1929 9.17569C11.2544 9.19594 11.3704 9.29144 11.3569 9.35294C11.3434 9.41444 11.1185 9.47417 11.0098 9.58292C11.1733 9.54917 11.2479 9.57619 11.2749 9.64444C11.2952 9.69169 11.2685 9.75987 11.2617 9.83487C11.3165 9.77337 11.4995 9.65094 11.6353 9.62393C11.6015 9.61718 11.5196 9.59757 11.4858 9.59757C11.5811 9.48882 11.7849 9.45574 11.9004 9.47599C11.8254 9.47599 11.6893 9.51588 11.6353 9.56388C11.69 9.57063 11.7368 9.58407 11.7773 9.59757C11.7023 9.62457 11.6148 9.71326 11.5811 9.80851C11.8188 9.63826 12.0291 9.98483 11.8184 10.0868C11.8454 10.0936 11.9144 10.088 11.9414 10.0678C11.9279 10.1083 11.8726 10.1685 11.8389 10.182C11.9341 10.182 12.0759 10.1213 12.1172 10.0268C12.1172 10.0268 12.0563 10.0464 12.0293 10.0194C12.009 9.99919 12.0293 9.91754 12.0293 9.89054C11.961 9.96554 11.9206 9.82976 11.9956 9.73526C11.9619 9.72176 11.8726 9.71476 11.8389 9.71476C11.9476 9.68101 12.1934 9.65268 12.2212 9.70743C12.2414 9.74118 12.186 9.82315 12.186 9.82315C12.3218 9.8029 12.4664 9.85658 12.4116 9.99308C12.5121 9.94358 12.6005 9.79458 12.5728 9.63858C12.566 9.67233 12.5188 9.7203 12.4775 9.7338C12.4843 9.68655 12.4432 9.65794 12.4087 9.64444C12.4702 9.31819 11.9116 9.16152 11.9326 8.82852C11.8989 8.87577 11.8717 8.9989 11.9062 9.07315C11.9948 9.1819 12.1988 9.2972 12.2461 9.4877C12.1576 9.2702 11.736 9.10066 11.7495 8.80216ZM10.0093 9.16104C10.2529 9.16136 10.6084 9.22803 10.6084 9.75284C10.6084 10.4601 9.98306 10.3446 9.82031 10.3446V9.16837C9.85931 9.16837 9.92807 9.16094 10.0093 9.16104ZM13.374 9.29727C13.197 9.31077 13.0691 9.5147 13.0151 9.4877C12.9746 9.4742 13.062 9.36612 13.062 9.36612C12.885 9.46137 12.7486 9.67129 12.7148 9.80704C12.8708 9.60979 13.1841 9.47535 13.3813 9.50235C13.0281 9.51585 12.7226 9.82774 12.5801 10.0385C12.6483 10.0655 12.6341 10.0589 12.7969 10.1879C13.1434 9.3584 13.5319 9.6582 13.5454 9.66495C13.6204 9.5967 13.8711 9.53599 14.0068 9.56974C13.9251 9.48199 13.7544 9.3588 13.5571 9.3588C13.3936 9.3588 13.3064 9.43489 13.2861 9.40714C13.2659 9.37339 13.3395 9.31752 13.374 9.29727ZM12.0967 9.45401C12.2054 9.50126 12.2388 9.60343 12.2388 9.60343C12.1435 9.60343 12.1169 9.52901 12.0967 9.45401ZM11.2207 9.64444C11.2207 9.64444 10.9342 9.83502 10.9072 10.141C10.9072 10.141 10.9416 10.087 10.9761 10.0795C10.9963 10.066 11.0221 10.0795 10.9951 10.141C10.9884 10.1613 10.7981 10.6778 11.1724 11.0243C11.1521 10.9696 11.1044 10.7663 11.2544 10.9628C11.2544 10.9763 11.4584 11.2016 11.7847 11.2016C12.2534 11.2016 12.4994 10.8621 12.6284 10.5966C12.5939 10.5561 12.4575 10.4535 12.3765 10.3725C12.2947 10.515 12.0975 10.7328 11.9077 10.7328C11.5612 10.7328 11.3831 10.2363 11.7979 9.82901C11.7776 9.82226 11.6484 9.76779 11.5254 9.91104C11.5254 9.80904 11.5597 9.73946 11.5942 9.68546C11.4787 9.73271 11.2608 9.87617 11.2061 9.95792C11.2128 9.76067 11.2603 9.69977 11.2266 9.65177L11.2207 9.64444ZM13.3682 9.65909C13.2662 9.65909 13.1711 9.7051 13.1104 9.77335C13.0834 9.80035 13.064 9.8357 13.043 9.8627V10.3988C13.1585 10.4873 13.2798 10.2967 13.144 10.1542C13.1913 10.161 13.3012 10.2438 13.3154 10.2641C13.3154 10.2641 13.4036 10.2436 13.4854 10.2436C13.5604 10.2436 13.621 10.2576 13.6758 10.2846V9.65909C13.6398 9.67259 13.5985 9.69247 13.585 9.70597L13.5586 9.72647L13.5249 9.70597C13.4912 9.67222 13.4289 9.65909 13.3682 9.65909ZM12.0835 9.75284C12.0085 9.89534 12.1924 9.95763 12.2329 10.0326C12.2667 10.0941 12.2064 10.196 12.3691 10.3183C12.8724 10.7128 12.6817 10.5899 12.7222 10.9364C12.7424 11.0789 12.8654 11.1614 12.9404 11.1884C12.8654 11.1201 12.8384 10.9696 12.9404 10.8676C12.9404 11.3431 13.5922 11.3236 13.7212 11.0858C13.6462 11.1263 13.4833 11.0791 13.415 11.0243C13.6805 11.0588 13.9054 10.8815 13.9189 10.664C13.9189 10.4465 13.7006 10.2768 13.4561 10.2978C13.7276 10.345 13.6469 10.7655 13.2861 10.6845C13.4151 10.596 13.3944 10.3526 13.2451 10.2641C13.2924 10.4066 13.1439 10.5423 12.9946 10.4193C12.9129 10.3511 12.7228 10.1961 12.6343 10.1278C12.5525 10.0528 12.4439 10.0941 12.4102 10.0663C12.3629 10.0258 12.3896 9.93618 12.3281 9.89493C12.2734 9.86793 12.2269 9.88149 12.1729 9.86124C12.1256 9.84099 12.0835 9.80009 12.0835 9.75284ZM13.374 10.3315C13.4423 10.4672 13.4083 10.5896 13.3813 10.6376C13.4698 10.6241 13.5659 10.5827 13.5659 10.4882C13.5659 10.3517 13.401 10.3382 13.374 10.3315ZM13.2979 12.0292C10.5229 12.0292 10.3882 15.7499 13.2832 15.7499C16.2082 15.7499 16.0654 12.0292 13.2979 12.0292ZM21.7354 12.06C20.9629 12.06 20.2355 12.112 19.853 12.142L20.1299 12.4496V15.3456L19.853 15.6518C20.243 15.6818 21.0081 15.7279 21.7881 15.7279C23.3631 15.7279 24 14.9544 24 13.8969C24 12.7944 23.1304 12.06 21.7354 12.06ZM0.112793 12.1347L0.427734 12.4569V13.56H0L0.427734 14.1078V15.3222L0.112793 15.6444C2.43029 15.6444 2.88053 15.6978 3.35303 15.4203C3.60803 15.2703 3.72803 15.0522 3.72803 14.7597C3.72803 14.5722 3.825 14.0549 3 13.8149C3.645 13.6424 3.60791 13.1397 3.60791 13.0722C3.60791 12.2997 2.7007 12.1347 2.2207 12.1347H0.112793ZM6.68262 12.1347L3.92285 12.142L4.19971 12.4496V15.3368L3.92285 15.6444H6.9668L7.5 14.8505L5.24268 14.8578V14.2792L6.11279 14.288V14.2792L6.63721 13.4853H5.24268V12.9301H7.20703L6.68262 12.142V12.1347ZM15.5552 12.1347L15.832 12.4569V15.3368L15.5625 15.6518H17.0244L16.7476 15.3456V13.5673H16.7622C16.8972 13.9648 18.4271 15.1718 18.5771 15.6518H19.3799V12.4569L19.6582 12.142H18.1875L18.4497 12.4496V14.0478H18.4351C18.2326 13.5078 16.8527 12.4872 16.7402 12.1347H15.5552ZM7.17041 12.142L8.81982 14.6103L8.82715 15.3368L8.54297 15.6444H10.1396L9.87012 15.3368L9.86279 14.6249L11.5122 12.142H9.95215L10.1777 12.413L9.41309 13.8075H9.39697L8.61035 12.413L8.85059 12.142H7.17041ZM1.44727 12.788C2.19727 12.788 2.55762 12.7574 2.55762 13.1249V13.2377C2.55762 13.6952 1.84477 13.5673 1.44727 13.5673V12.788ZM13.2905 12.8627C14.6705 12.8627 14.7457 14.9325 13.2832 14.9325C11.8807 14.9325 11.903 12.8627 13.2905 12.8627ZM21.5713 12.8715C22.4455 12.8492 22.9277 13.1472 22.9277 13.8822C22.9277 14.8422 22.1254 15.0144 21.1729 14.8944V12.8993C21.3135 12.8834 21.4464 12.8747 21.5713 12.8715ZM1.83252 14.1518C2.24279 14.1461 2.67773 14.1751 2.67773 14.4901V14.6542H2.68506C2.68506 15.0742 2.21227 15.0072 1.44727 15.0072V14.1606C1.56164 14.1606 1.69576 14.1536 1.83252 14.1518Z" fill="black"/>
</svg>
