<svg width="24" height="24" viewBox="0 0 24 24" fill="none" xmlns="http://www.w3.org/2000/svg">
<path d="M18.375 2.25L18.1406 2.46094L15.3516 5.25H8.25C6.1875 5.25 4.5 6.9375 4.5 9V16.5C4.5 18.5625 6.1875 20.25 8.25 20.25H15.75C17.8125 20.25 19.5 18.5625 19.5 16.5V2.25H18.375ZM18 4.73438V16.5C18 17.751 17.001 18.75 15.75 18.75H8.25C6.99902 18.75 6 17.751 6 16.5V9C6 7.74902 6.99902 6.75 8.25 6.75H15.9844L18 4.73438ZM9.75 9C8.92969 9 8.25 9.67969 8.25 10.5V15C8.25 15.8203 8.92969 16.5 9.75 16.5H17.5547L16.2891 15.2109L15.75 14.6719V10.5C15.75 9.67969 15.0703 9 14.25 9H9.75ZM9.75 10.5H14.25V15H9.75V10.5Z" fill="black"/>
</svg>
