<svg width="24" height="24" viewBox="0 0 24 24" fill="none" xmlns="http://www.w3.org/2000/svg">
<path d="M2.78906 1.71094L1.71094 2.78906L21.2109 22.2891L22.2891 21.2109L16.4062 15.3281C17.5371 13.6523 18.75 11.3994 18.75 9C18.75 5.69238 16.0576 3 12.75 3C10.4092 3 8.37012 4.34473 7.38281 6.30469L2.78906 1.71094ZM12.75 4.5C15.2314 4.5 17.25 6.51855 17.25 9C17.25 10.8984 16.2949 12.7734 15.3281 14.25L10.5234 9.44531C10.6641 8.31738 11.5723 7.5 12.75 7.5C13.5586 7.5 14.3203 7.94238 14.7188 8.64844L16.0078 7.89844C15.3428 6.72656 14.0977 6 12.75 6C11.1914 6 9.87891 6.90234 9.30469 8.22656L8.53125 7.45312C9.16406 5.73047 10.8105 4.5 12.75 4.5ZM8.36719 11.5078L8.25 11.6016V12C8.25 13.0723 9.16113 13.4854 9.77344 13.7578C10.3359 14.0068 10.5 14.1094 10.5 14.25C10.5 14.7656 9.68848 15 8.92969 15V16.5C10.4004 16.5 11.4609 15.9199 11.8359 15L8.36719 11.5078ZM6.75 16.5V17.25C6.75 19.3184 8.43164 21 10.5 21C12.6797 21 13.5 19.6201 14.1562 18.5156C14.3145 18.252 14.4609 18.0029 14.625 17.7656L13.5469 16.6875C13.5293 16.7139 13.5176 16.7578 13.5 16.7812C13.2627 17.1064 13.0576 17.4434 12.8672 17.7656C12.2402 18.8174 11.8271 19.5 10.5 19.5C9.26074 19.5 8.25 18.4893 8.25 17.25V16.5H6.75Z" fill="black"/>
</svg>
