<svg width="24" height="24" viewBox="0 0 24 24" fill="none" xmlns="http://www.w3.org/2000/svg">
<path d="M4.53662 3.74994C4.46631 3.75557 4.39916 3.79166 4.35791 3.85541C3.98291 4.42541 3.91489 5.54186 4.56739 6.14936C4.67239 6.24686 4.79309 6.30744 4.91309 6.37494C4.84559 6.42744 4.7693 6.47297 4.7168 6.54047L2.44483 9.56977C2.21983 9.86227 2.19047 10.2593 2.35547 10.5893L2.79053 11.4594C2.95553 11.7894 3.29315 11.9999 3.66065 11.9999H4.60547C4.86797 11.9999 5.10791 11.8943 5.29541 11.7143L6.45703 10.6581L8.25 14.2499H18.75V11.6176C19.245 11.9851 19.3804 12.2856 20.0479 13.2831C20.1979 13.5081 20.4981 13.5679 20.7231 13.4179L21.5332 12.8774C21.7582 12.7274 21.818 12.4273 21.668 12.1948L21.0674 11.3027C20.2124 10.0127 18.7805 8.99994 17.228 8.99994H10.0503L7.45459 6.44233C8.20459 5.72233 8.31053 4.57471 7.85303 3.88471C7.74803 3.72721 7.52221 3.7043 7.38721 3.8393L6.06739 5.57953L4.73291 3.82465C4.68041 3.7684 4.60694 3.74432 4.53662 3.74994ZM10.1763 10.4999C10.2274 10.4999 10.2789 10.5255 10.3066 10.5776L10.5908 11.1606L11.2354 11.2573C11.3464 11.2715 11.3875 11.4159 11.3042 11.4916L10.8398 11.9501L10.9512 12.5873C10.9722 12.7051 10.8472 12.7879 10.7505 12.7324L10.1748 12.435L9.60059 12.7324C9.49634 12.7879 9.37744 12.7051 9.39844 12.5873L9.50977 11.9501L9.04541 11.4916C8.95541 11.4151 9.00383 11.2708 9.12158 11.2573L9.76612 11.1606L10.0503 10.5776C10.0747 10.5255 10.1252 10.4999 10.1763 10.4999ZM13.4634 10.4999C13.5145 10.4999 13.5675 10.5255 13.5952 10.5776L13.8794 11.1606L14.5225 11.2573C14.6327 11.2715 14.6813 11.4159 14.5913 11.4916L14.1284 11.9501L14.2383 12.5873C14.2593 12.7051 14.1419 12.7879 14.0376 12.7324L13.4619 12.435L12.8877 12.7324C12.7909 12.7879 12.6645 12.7051 12.6855 12.5873L12.7969 11.9501L12.3325 11.4916C12.2493 11.4151 12.2924 11.2708 12.4102 11.2573L13.0532 11.1606L13.3374 10.5776C13.3618 10.5255 13.4123 10.4999 13.4634 10.4999ZM16.8252 10.4999C16.8763 10.4999 16.9278 10.5255 16.9556 10.5776L17.2397 11.1606L17.8843 11.2573C17.9953 11.2715 18.0431 11.4159 17.9531 11.4916L17.4888 11.9501L17.6001 12.5873C17.6211 12.7051 17.5022 12.7879 17.398 12.7324L16.8237 12.435L16.2481 12.7324C16.1513 12.7879 16.0264 12.7051 16.0474 12.5873L16.1587 11.9501L15.6943 11.4916C15.6111 11.4151 15.6528 11.2708 15.7705 11.2573L16.415 11.1606L16.6992 10.5776C16.7236 10.5255 16.7741 10.4999 16.8252 10.4999ZM8.25 15.7499V19.7621C8.25 20.0322 8.4678 20.2499 8.7378 20.2499H10.7622C11.0322 20.2499 11.25 20.0322 11.25 19.7621V17.2499H15.75V19.7621C15.75 20.0322 15.9678 20.2499 16.2378 20.2499H18.2622C18.5322 20.2499 18.75 20.0322 18.75 19.7621V15.7499H8.25Z" fill="black"/>
</svg>
