<svg width="24" height="24" viewBox="0 0 24 24" fill="none" xmlns="http://www.w3.org/2000/svg">
<path d="M4.5 4.5C2.8455 4.5 1.5 5.8455 1.5 7.5V16.5C1.5 18.1545 2.8455 19.5 4.5 19.5H19.5C21.1545 19.5 22.5 18.1545 22.5 16.5V7.5C22.5 5.8455 21.1545 4.5 19.5 4.5H4.5ZM4.5 6H19.5C20.3272 6 21 6.67275 21 7.5V16.5C21 17.3273 20.3272 18 19.5 18H4.5C3.67275 18 3 17.3273 3 16.5V7.5C3 6.67275 3.67275 6 4.5 6ZM9 7.5V10.916C8.5575 10.658 8.049 10.5 7.5 10.5C5.84325 10.5 4.5 11.8432 4.5 13.5C4.5 15.1567 5.84325 16.5 7.5 16.5C8.049 16.5 8.5575 16.342 9 16.084V16.5H11.25V7.5H9ZM16.5 7.5V10.916C16.0575 10.658 15.549 10.5 15 10.5C13.3433 10.5 12 11.8432 12 13.5C12 15.1567 13.3433 16.5 15 16.5C15.549 16.5 16.0575 16.342 16.5 16.084V16.5H18.75V7.5H16.5ZM7.875 12.375C8.496 12.375 9 12.879 9 13.5C9 14.121 8.496 14.625 7.875 14.625C7.254 14.625 6.75 14.121 6.75 13.5C6.75 12.879 7.254 12.375 7.875 12.375ZM15.375 12.375C15.996 12.375 16.5 12.879 16.5 13.5C16.5 14.121 15.996 14.625 15.375 14.625C14.754 14.625 14.25 14.121 14.25 13.5C14.25 12.879 14.754 12.375 15.375 12.375Z" fill="black"/>
</svg>
