<svg width="24" height="24" viewBox="0 0 24 24" fill="none" xmlns="http://www.w3.org/2000/svg">
<path d="M12 1.59375C11.5869 1.59375 11.25 1.93066 11.25 2.34375C11.25 2.64844 11.4375 2.90625 11.6953 3.02344C9.40723 3.10254 7.33594 4.02539 5.78906 5.50781C5.82715 5.41699 5.85938 5.3291 5.85938 5.22656C5.85938 4.81348 5.52246 4.47656 5.10938 4.47656C4.69629 4.47656 4.35938 4.81348 4.35938 5.22656C4.35938 5.63965 4.69629 5.97656 5.10938 5.97656C5.21191 5.97656 5.2998 5.94434 5.39062 5.90625C3.97559 7.44141 3.09961 9.46582 3.02344 11.6953C2.90625 11.4375 2.64844 11.25 2.34375 11.25C1.93066 11.25 1.59375 11.5869 1.59375 12C1.59375 12.4131 1.93066 12.75 2.34375 12.75C2.64844 12.75 2.90625 12.5625 3.02344 12.3047C3.09961 14.5342 3.97559 16.5586 5.39062 18.0938C5.2998 18.0557 5.21191 18.0234 5.10938 18.0234C4.69629 18.0234 4.35938 18.3604 4.35938 18.7734C4.35938 19.1865 4.69629 19.5234 5.10938 19.5234C5.52246 19.5234 5.85938 19.1865 5.85938 18.7734C5.85938 18.6709 5.82715 18.583 5.78906 18.4922C7.33594 19.9746 9.40723 20.8975 11.6953 20.9766C11.4375 21.0938 11.25 21.3516 11.25 21.6562C11.25 22.0693 11.5869 22.4062 12 22.4062C12.4131 22.4062 12.75 22.0693 12.75 21.6562C12.75 21.3516 12.5625 21.0938 12.3047 20.9766C14.5928 20.8975 16.6641 19.9746 18.2109 18.4922C18.1729 18.583 18.1406 18.6709 18.1406 18.7734C18.1406 19.1865 18.4775 19.5234 18.8906 19.5234C19.3037 19.5234 19.6406 19.1865 19.6406 18.7734C19.6406 18.3604 19.3037 18.0234 18.8906 18.0234C18.7881 18.0234 18.7002 18.0557 18.6094 18.0938C20.0244 16.5586 20.9004 14.5342 20.9766 12.3047C21.0938 12.5625 21.3516 12.75 21.6562 12.75C22.0693 12.75 22.4062 12.4131 22.4062 12C22.4062 11.5869 22.0693 11.25 21.6562 11.25C21.3516 11.25 21.0938 11.4375 20.9766 11.6953C20.9004 9.46582 20.0244 7.44141 18.6094 5.90625C18.7002 5.94434 18.7881 5.97656 18.8906 5.97656C19.3037 5.97656 19.6406 5.63965 19.6406 5.22656C19.6406 4.81348 19.3037 4.47656 18.8906 4.47656C18.4775 4.47656 18.1406 4.81348 18.1406 5.22656C18.1406 5.3291 18.1729 5.41699 18.2109 5.50781C16.6641 4.02539 14.5928 3.10254 12.3047 3.02344C12.5625 2.90625 12.75 2.64844 12.75 2.34375C12.75 1.93066 12.4131 1.59375 12 1.59375ZM11.2266 4.54688C11.2354 4.54688 11.2412 4.54688 11.25 4.54688V9.11719C10.9688 9.19043 10.7197 9.29883 10.4766 9.44531L7.21875 6.21094C8.3291 5.29395 9.71191 4.69922 11.2266 4.54688ZM12.75 4.54688C14.2734 4.69629 15.665 5.29102 16.7812 6.21094L13.5234 9.44531C13.2803 9.29883 13.0312 9.19043 12.75 9.11719V4.54688ZM6.16406 7.28906L9.42188 10.5C9.28418 10.7344 9.1875 10.9805 9.11719 11.25H4.54688C4.69336 9.75586 5.27344 8.39355 6.16406 7.28906ZM17.8359 7.28906C18.7266 8.39355 19.3066 9.75586 19.4531 11.25H14.8828C14.8125 10.9805 14.7158 10.7344 14.5781 10.5L17.8359 7.28906ZM12 10.5C12.8379 10.5 13.5 11.1621 13.5 12C13.5 12.8379 12.8379 13.5 12 13.5C11.1621 13.5 10.5 12.8379 10.5 12C10.5 11.1621 11.1621 10.5 12 10.5ZM4.52344 12.75H9.09375C9.16406 13.0195 9.28125 13.2656 9.42188 13.5L6.16406 16.6875C5.27637 15.5859 4.66992 14.2441 4.52344 12.75ZM14.9062 12.75H19.4766C19.3301 14.2441 18.7236 15.5859 17.8359 16.6875L14.5781 13.5C14.7188 13.2656 14.8359 13.0195 14.9062 12.75ZM10.4766 14.5547C10.7168 14.6953 10.9746 14.8096 11.25 14.8828V19.4531C9.71777 19.3037 8.33789 18.6914 7.21875 17.7656L10.4766 14.5547ZM13.5234 14.5547L16.7812 17.7656C15.6621 18.6914 14.2822 19.3037 12.75 19.4531V14.8828C13.0254 14.8096 13.2832 14.6953 13.5234 14.5547Z" fill="black"/>
</svg>
