<svg width="24" height="24" viewBox="0 0 24 24" fill="none" xmlns="http://www.w3.org/2000/svg">
<path d="M4.22314 9.75L3.45703 10.793H7.63477C7.84477 10.793 7.84084 10.8754 7.73584 11.0142C7.63084 11.1567 7.45559 11.4034 7.35059 11.5459C7.29809 11.6209 7.19572 11.7524 7.52197 11.7524H9.23291C9.23291 11.7524 9.50578 11.3775 9.73828 11.0625C10.0533 10.635 9.76529 9.75 8.64404 9.75H4.22314ZM11.4258 9.75L9.95215 11.7524H15.3369L16.8105 9.75H14.6104L13.7666 10.897H12.7837L13.6274 9.75H11.4258ZM17.5312 9.75L16.0576 11.7524H18.3896L19.8633 9.75H17.5312ZM4.68311 11.0552L3.14209 13.147H6.89648C8.13773 13.147 8.82727 12.3042 9.04102 12.0117H6.4834C6.15715 12.0117 6.25805 11.8764 6.31055 11.8052C6.41555 11.6627 6.59666 11.4151 6.70166 11.2764C6.80666 11.1376 6.80619 11.0552 6.59619 11.0552H4.68311ZM0 12.0117V12.252H3.39697L3.57422 12.0117H0ZM9.76172 12.0117L8.92529 13.144H11.127L11.9619 12.0117H9.76172ZM12.9492 12.0117C12.9455 12.0117 12.1128 13.144 12.1128 13.144H14.3145L15.1494 12.0117H12.9492ZM15.8657 12.0117C15.8657 12.0117 15.7057 12.2319 15.627 12.3369C15.3495 12.7119 15.5919 13.147 16.4956 13.147H20.0332L20.8682 12.0117H15.8657ZM21.2739 12.0117L21.0981 12.252H24V12.0117H21.2739ZM0 12.457V12.6973H3.06738L3.24316 12.457H0ZM20.9443 12.457L20.7671 12.6973H24V12.457H20.9443ZM0 12.9038V13.144H2.74072L2.91797 12.9038H0ZM20.6133 12.9082L20.4375 13.147H24V12.9082H20.6133Z" fill="black"/>
</svg>
