<svg width="24" height="24" viewBox="0 0 24 24" fill="none" xmlns="http://www.w3.org/2000/svg">
<path d="M12 3.75C10.35 3.75 9 5.1 9 6.75C9 8.4 10.35 9.75 12 9.75C13.65 9.75 15 8.4 15 6.75C15 5.1 13.65 3.75 12 3.75ZM12 9.75H10.9644C9.61436 9.75 8.3768 10.4846 7.7168 11.6396C8.2493 11.6996 8.71465 11.9845 9.01465 12.397C9.40465 11.692 10.1469 11.25 10.9644 11.25H13.0356C13.3656 11.25 13.672 11.3173 13.957 11.4448C14.1145 10.9273 14.4907 10.5154 14.9707 10.2979C14.4007 9.94535 13.7331 9.75 13.0356 9.75H12ZM12 5.25C12.84 5.25 13.5 5.91 13.5 6.75C13.5 7.59 12.84 8.25 12 8.25C11.16 8.25 10.5 7.59 10.5 6.75C10.5 5.91 11.16 5.25 12 5.25ZM15.75 11.25C15.5511 11.25 15.3603 11.329 15.2197 11.4697C15.079 11.6103 15 11.8011 15 12C15 12.1989 15.079 12.3897 15.2197 12.5303C15.3603 12.671 15.5511 12.75 15.75 12.75C15.9489 12.75 16.1397 12.671 16.2803 12.5303C16.421 12.3897 16.5 12.1989 16.5 12C16.5 11.8011 16.421 11.6103 16.2803 11.4697C16.1397 11.329 15.9489 11.25 15.75 11.25ZM7.5 12.75C7.30109 12.75 7.11032 12.829 6.96967 12.9697C6.82902 13.1103 6.75 13.3011 6.75 13.5C6.75 13.6989 6.82902 13.8897 6.96967 14.0303C7.11032 14.171 7.30109 14.25 7.5 14.25C7.69891 14.25 7.88968 14.171 8.03033 14.0303C8.17098 13.8897 8.25 13.6989 8.25 13.5C8.25 13.3011 8.17098 13.1103 8.03033 12.9697C7.88968 12.829 7.69891 12.75 7.5 12.75ZM17.0479 13.3579C16.7104 13.6804 16.2525 13.875 15.75 13.875C15.7125 13.875 15.6674 13.8752 15.6299 13.8677L16.5674 16.0576L16.7095 16.4106L17.1079 16.478L20.8579 17.228L21.1421 15.772L17.7905 15.0894L17.0479 13.3579ZM11.25 13.5C11.0511 13.5 10.8603 13.579 10.7197 13.7197C10.579 13.8603 10.5 14.0511 10.5 14.25C10.5 14.4489 10.579 14.6397 10.7197 14.7803C10.8603 14.921 11.0511 15 11.25 15C11.4489 15 11.6397 14.921 11.7803 14.7803C11.921 14.6397 12 14.4489 12 14.25C12 14.0511 11.921 13.8603 11.7803 13.7197C11.6397 13.579 11.4489 13.5 11.25 13.5ZM6.27686 14.9253L6.20947 15.0894L2.85791 15.772L3.14209 17.228L6.89209 16.478L7.29053 16.4106L7.43262 16.0576L7.73291 15.3604C7.65791 15.3679 7.575 15.375 7.5 15.375C7.035 15.375 6.59936 15.2028 6.27686 14.9253ZM13.5 15.75C13.3011 15.75 13.1103 15.829 12.9697 15.9697C12.829 16.1103 12.75 16.3011 12.75 16.5C12.75 16.6989 12.829 16.8897 12.9697 17.0303C13.1103 17.171 13.3011 17.25 13.5 17.25C13.6989 17.25 13.8897 17.171 14.0303 17.0303C14.171 16.8897 14.25 16.6989 14.25 16.5C14.25 16.3011 14.171 16.1103 14.0303 15.9697C13.8897 15.829 13.6989 15.75 13.5 15.75ZM1.5 18.75V20.25H22.5V18.75H1.5Z" fill="black"/>
</svg>
