<svg width="24" height="24" viewBox="0 0 24 24" fill="none" xmlns="http://www.w3.org/2000/svg">
<path d="M3.75 3.75V20.25H20.25V3.75H3.75ZM5.25 5.25H18.75V18.75H5.25V5.25ZM8.25 6C7.85218 6 7.47064 6.15804 7.18934 6.43934C6.90804 6.72064 6.75 7.10218 6.75 7.5C6.75 7.89782 6.90804 8.27936 7.18934 8.56066C7.47064 8.84196 7.85218 9 8.25 9C8.64782 9 9.02936 8.84196 9.31066 8.56066C9.59196 8.27936 9.75 7.89782 9.75 7.5C9.75 7.10218 9.59196 6.72064 9.31066 6.43934C9.02936 6.15804 8.64782 6 8.25 6ZM15.75 6C15.3522 6 14.9706 6.15804 14.6893 6.43934C14.408 6.72064 14.25 7.10218 14.25 7.5C14.25 7.89782 14.408 8.27936 14.6893 8.56066C14.9706 8.84196 15.3522 9 15.75 9C16.1478 9 16.5294 8.84196 16.8107 8.56066C17.092 8.27936 17.25 7.89782 17.25 7.5C17.25 7.10218 17.092 6.72064 16.8107 6.43934C16.5294 6.15804 16.1478 6 15.75 6ZM8.25 10.5C7.85218 10.5 7.47064 10.658 7.18934 10.9393C6.90804 11.2206 6.75 11.6022 6.75 12C6.75 12.3978 6.90804 12.7794 7.18934 13.0607C7.47064 13.342 7.85218 13.5 8.25 13.5C8.64782 13.5 9.02936 13.342 9.31066 13.0607C9.59196 12.7794 9.75 12.3978 9.75 12C9.75 11.6022 9.59196 11.2206 9.31066 10.9393C9.02936 10.658 8.64782 10.5 8.25 10.5ZM15.75 10.5C15.3522 10.5 14.9706 10.658 14.6893 10.9393C14.408 11.2206 14.25 11.6022 14.25 12C14.25 12.3978 14.408 12.7794 14.6893 13.0607C14.9706 13.342 15.3522 13.5 15.75 13.5C16.1478 13.5 16.5294 13.342 16.8107 13.0607C17.092 12.7794 17.25 12.3978 17.25 12C17.25 11.6022 17.092 11.2206 16.8107 10.9393C16.5294 10.658 16.1478 10.5 15.75 10.5ZM8.25 15C7.85218 15 7.47064 15.158 7.18934 15.4393C6.90804 15.7206 6.75 16.1022 6.75 16.5C6.75 16.8978 6.90804 17.2794 7.18934 17.5607C7.47064 17.842 7.85218 18 8.25 18C8.64782 18 9.02936 17.842 9.31066 17.5607C9.59196 17.2794 9.75 16.8978 9.75 16.5C9.75 16.1022 9.59196 15.7206 9.31066 15.4393C9.02936 15.158 8.64782 15 8.25 15ZM15.75 15C15.3522 15 14.9706 15.158 14.6893 15.4393C14.408 15.7206 14.25 16.1022 14.25 16.5C14.25 16.8978 14.408 17.2794 14.6893 17.5607C14.9706 17.842 15.3522 18 15.75 18C16.1478 18 16.5294 17.842 16.8107 17.5607C17.092 17.2794 17.25 16.8978 17.25 16.5C17.25 16.1022 17.092 15.7206 16.8107 15.4393C16.5294 15.158 16.1478 15 15.75 15Z" fill="black"/>
</svg>
