<svg width="24" height="24" viewBox="0 0 24 24" fill="none" xmlns="http://www.w3.org/2000/svg">
<path d="M3.75 3.75V20.25H20.25V3.75H3.75ZM5.25 5.25H18.75V18.75H5.25V5.25ZM8.25 6.75C7.85218 6.75 7.47064 6.90804 7.18934 7.18934C6.90804 7.47064 6.75 7.85218 6.75 8.25C6.75 8.64782 6.90804 9.02936 7.18934 9.31066C7.47064 9.59196 7.85218 9.75 8.25 9.75C8.64782 9.75 9.02936 9.59196 9.31066 9.31066C9.59196 9.02936 9.75 8.64782 9.75 8.25C9.75 7.85218 9.59196 7.47064 9.31066 7.18934C9.02936 6.90804 8.64782 6.75 8.25 6.75ZM15.75 6.75C15.3522 6.75 14.9706 6.90804 14.6893 7.18934C14.408 7.47064 14.25 7.85218 14.25 8.25C14.25 8.64782 14.408 9.02936 14.6893 9.31066C14.9706 9.59196 15.3522 9.75 15.75 9.75C16.1478 9.75 16.5294 9.59196 16.8107 9.31066C17.092 9.02936 17.25 8.64782 17.25 8.25C17.25 7.85218 17.092 7.47064 16.8107 7.18934C16.5294 6.90804 16.1478 6.75 15.75 6.75ZM8.25 14.25C7.85218 14.25 7.47064 14.408 7.18934 14.6893C6.90804 14.9706 6.75 15.3522 6.75 15.75C6.75 16.1478 6.90804 16.5294 7.18934 16.8107C7.47064 17.092 7.85218 17.25 8.25 17.25C8.64782 17.25 9.02936 17.092 9.31066 16.8107C9.59196 16.5294 9.75 16.1478 9.75 15.75C9.75 15.3522 9.59196 14.9706 9.31066 14.6893C9.02936 14.408 8.64782 14.25 8.25 14.25ZM15.75 14.25C15.3522 14.25 14.9706 14.408 14.6893 14.6893C14.408 14.9706 14.25 15.3522 14.25 15.75C14.25 16.1478 14.408 16.5294 14.6893 16.8107C14.9706 17.092 15.3522 17.25 15.75 17.25C16.1478 17.25 16.5294 17.092 16.8107 16.8107C17.092 16.5294 17.25 16.1478 17.25 15.75C17.25 15.3522 17.092 14.9706 16.8107 14.6893C16.5294 14.408 16.1478 14.25 15.75 14.25Z" fill="black"/>
</svg>
