<svg width="24" height="24" viewBox="0 0 24 24" fill="none" xmlns="http://www.w3.org/2000/svg">
<path d="M12 2.20312L3.49219 5.29688L3 5.48438V16.9453L3.39844 17.1562L11.6484 21.6562L12 21.8438L12.3516 21.6562L20.6016 17.1562L21 16.9453V5.48438L20.5078 5.29688L12 2.20312ZM12 3.79688L18.2812 6.07031L12 8.92969L5.71875 6.07031L12 3.79688ZM12 5.25C11.1709 5.25 10.5 5.58691 10.5 6C10.5 6.41309 11.1709 6.75 12 6.75C12.8291 6.75 13.5 6.41309 13.5 6C13.5 5.58691 12.8291 5.25 12 5.25ZM4.5 7.14844L11.25 10.2188V19.7344L4.5 16.0547V7.14844ZM19.5 7.14844V16.0547L12.75 19.7344V10.2188L19.5 7.14844ZM9.49219 10.5C9.21387 10.5 9 10.7666 9 11.1562C9 11.6572 9.2666 12.1758 9.65625 12.3984C9.76758 12.4541 9.89648 12.4453 10.0078 12.4453C10.1748 12.4453 10.2715 12.3926 10.3828 12.2812C10.4385 12.1699 10.5 12.0117 10.5 11.7891C10.5 11.2881 10.1631 10.7695 9.77344 10.5469C9.66211 10.4912 9.60352 10.5 9.49219 10.5ZM15.0234 11.25C14.9678 11.2588 14.9004 11.2881 14.8359 11.3203C14.3789 11.5166 13.9922 12.1641 13.9922 12.75C13.9922 12.9463 13.9775 13.1338 14.1094 13.2656C14.2412 13.3975 14.3818 13.4766 14.5781 13.4766C14.71 13.4766 14.8447 13.4707 14.9766 13.4062C15.4336 13.1455 15.75 12.5449 15.75 12.0234C15.75 11.5664 15.5566 11.25 15.1641 11.25C15.1318 11.25 15.0791 11.2412 15.0234 11.25ZM7.59375 12.2109C7.31543 12.2109 7.10156 12.4775 7.10156 12.8672C7.10156 13.3682 7.36816 13.8633 7.75781 14.0859C7.86914 14.1416 7.97461 14.1562 8.08594 14.1562C8.25293 14.1562 8.37305 14.1035 8.48438 13.9922C8.54004 13.8809 8.60156 13.6992 8.60156 13.4766C8.60156 12.9756 8.26465 12.4805 7.875 12.2578C7.76367 12.2021 7.70508 12.2109 7.59375 12.2109ZM17.6484 13.0781C17.5928 13.0869 17.5254 13.0928 17.4609 13.125C17.0039 13.3213 16.6172 13.9922 16.6172 14.5781C16.6172 14.7744 16.626 14.9619 16.7578 15.0938C16.8896 15.2256 17.0068 15.2812 17.2031 15.2812C17.335 15.2812 17.4697 15.2988 17.6016 15.2344C18.0586 14.9736 18.375 14.373 18.375 13.8516C18.375 13.3945 18.1816 13.0781 17.7891 13.0781C17.7568 13.0781 17.7041 13.0693 17.6484 13.0781ZM5.74219 13.8047C5.46387 13.8047 5.25 14.0713 5.25 14.4609C5.25 14.9619 5.5166 15.4805 5.90625 15.7031C6.01758 15.7588 6.14648 15.75 6.25781 15.75C6.4248 15.75 6.52148 15.6973 6.63281 15.5859C6.68848 15.4746 6.75 15.3164 6.75 15.0938C6.75 14.5928 6.41309 14.0742 6.02344 13.8516C5.91211 13.7959 5.85352 13.8047 5.74219 13.8047Z" fill="black"/>
</svg>
