<svg width="24" height="24" viewBox="0 0 24 24" fill="none" xmlns="http://www.w3.org/2000/svg">
<path d="M12 2.78906L11.5312 3.16406L5.34375 7.96875L5.15625 8.13281L5.08594 8.36719L3.02344 15.9375L2.85938 16.5234L12 21.0938L21.1406 16.5234L20.9766 15.9375L18.9141 8.36719L18.8438 8.13281L18.6562 7.96875L12.4688 3.16406L12 2.78906ZM11.25 5.29688V7.5H8.41406L11.25 5.29688ZM12.75 5.29688L15.5859 7.5H12.75V5.29688ZM6.79688 9H10.5L7.80469 12.5859L6.79688 9ZM13.5 9H17.2031L16.1953 12.5859L13.5 9ZM12 9.51562L15 13.5H9L12 9.51562ZM5.85938 11.25L6.60938 13.875L4.92188 14.7188L5.85938 11.25ZM18.1406 11.25L19.0781 14.7188L17.3906 13.875L18.1406 11.25ZM9 15H15L12 18.9844L9 15ZM7.26562 15.2109L9.46875 18.1406L5.4375 16.125L7.26562 15.2109ZM16.7344 15.2109L18.5625 16.125L14.5312 18.1406L16.7344 15.2109Z" fill="black"/>
</svg>
