<svg width="24" height="24" viewBox="0 0 24 24" fill="none" xmlns="http://www.w3.org/2000/svg">
<path d="M7.13965 5.24122C7.13965 5.51954 7.13965 6.70899 7.13965 6.70899H9.25195C9.25195 6.70899 9.51855 6.71778 9.51855 6.41309C9.51855 6.13477 9.52149 4.94239 9.52149 4.94239H7.40918C7.40918 4.94239 7.13965 4.93653 7.13965 5.24122ZM7.13965 8.29102C7.13965 8.56934 7.13965 16.2305 7.13965 16.2305H9.24902C9.24902 16.2305 9.51855 16.2363 9.51855 15.9346C9.51855 15.8731 9.52149 7.9922 9.52149 7.9922H7.41211C7.41211 7.9922 7.13965 7.98634 7.13965 8.29102ZM4.04004 5.24122V7.9922H0.269531C0.269531 7.9922 0 7.98634 0 8.29102V16.2305H6.15234C6.15234 16.2305 6.42188 16.2363 6.42188 15.9316C6.42188 15.6533 6.42188 4.94239 6.42188 4.94239H4.30957C4.30957 4.94239 4.04004 4.93653 4.04004 5.24122ZM4.04297 14.165C4.04297 14.4697 3.77344 14.4609 3.77344 14.4609H2.33203V10.0547C2.33203 9.75001 2.60156 9.7588 2.60156 9.7588H4.04297V14.165ZM10.3389 8.29102V16.2305H14.3789V17.291H10.6084C10.6084 17.291 10.3389 17.2822 10.3389 17.5869C10.3389 17.8652 10.3389 19.0576 10.3389 19.0576H16.4883C16.4883 19.0576 16.7607 19.0635 16.7607 18.7588C16.7607 18.4805 16.7607 7.99805 16.7607 7.99805L10.6084 7.9922C10.6084 7.9922 10.3389 7.98634 10.3389 8.29102ZM12.6709 10.0547C12.6709 9.75001 12.9404 9.7588 12.9404 9.7588H14.3818V14.165C14.3818 14.4697 14.1123 14.4609 14.1123 14.4609H12.6709V10.0547ZM17.8477 7.9922C17.8477 7.9922 17.5781 7.98634 17.5781 8.29102V16.2305H21.6182V17.291H17.8477C17.8477 17.291 17.5781 17.2822 17.5781 17.5869C17.5781 17.8652 17.5781 19.0576 17.5781 19.0576H23.7305C23.7305 19.0576 23.9971 19.0635 23.9971 18.7588C23.9971 18.4805 24 7.99805 24 7.99805L17.8477 7.9922ZM21.6211 14.165C21.6211 14.4697 21.3516 14.4609 21.3516 14.4609H19.9102V10.0547C19.9102 9.75001 20.1797 9.7588 20.1797 9.7588H21.6211V14.165Z" fill="black"/>
</svg>
