<svg width="24" height="24" viewBox="0 0 24 24" fill="none" xmlns="http://www.w3.org/2000/svg">
<path d="M3.01318 5.25C2.17693 5.25 1.5 5.92693 1.5 6.76318V17.2368C1.5 18.0731 2.17693 18.75 3.01318 18.75H20.2368C21.0731 18.75 21.75 18.0731 21.75 17.2368V6.76318C21.75 5.92693 21.0731 5.25 20.2368 5.25H3.01318ZM3 6.75H20.2368H20.25V17.25H3V6.75ZM4.5 8.25V9.75H12V8.25H4.5ZM4.5 11.25V12.75H6V11.25H4.5ZM7.5 11.25V12.75H9V11.25H7.5ZM10.5 11.25V12.75H12V11.25H10.5ZM4.5 14.25V15.75H12V14.25H4.5ZM13.5 14.25V15.75H18.75V14.25H13.5Z" fill="black"/>
</svg>
