<svg width="24" height="24" viewBox="0 0 24 24" fill="none" xmlns="http://www.w3.org/2000/svg">
<path d="M12 2.25C11.4225 2.25 10.8427 2.46975 10.4062 2.90625L10.3125 3.02344L3.02343 10.3125L2.90625 10.4062C2.03325 11.2793 2.03325 12.7207 2.90625 13.5938L10.4062 21.0938C11.2792 21.9667 12.7207 21.9667 13.5937 21.0938L21.0937 13.5938C21.9667 12.7207 21.9667 11.2793 21.0937 10.4062L13.5937 2.90625C13.1572 2.46975 12.5775 2.25 12 2.25ZM12 3.75C12.1905 3.75 12.3898 3.81169 12.5391 3.96094L20.0391 11.4609C20.3376 11.7594 20.3376 12.2398 20.0391 12.5391L12.5391 20.0391C12.2406 20.3376 11.7602 20.3376 11.4609 20.0391L3.96093 12.5391C3.66243 12.2406 3.66243 11.7602 3.96093 11.4609L11.4609 3.96094C11.6102 3.81169 11.8095 3.75 12 3.75ZM12.75 8.25V10.5H9.75C8.92125 10.5 8.25 11.1713 8.25 12V14.25H9.75V12H12.75V14.25L15.75 11.25L12.75 8.25Z" fill="black"/>
</svg>
