<svg width="24" height="24" viewBox="0 0 24 24" fill="none" xmlns="http://www.w3.org/2000/svg">
<path d="M12 4.5C10.7666 4.5 9.75 5.5166 9.75 6.75C9.75 7.9834 10.7666 9 12 9C13.2334 9 14.25 7.9834 14.25 6.75C14.25 5.5166 13.2334 4.5 12 4.5ZM12 6C12.4219 6 12.75 6.32812 12.75 6.75C12.75 7.17188 12.4219 7.5 12 7.5C11.5781 7.5 11.25 7.17188 11.25 6.75C11.25 6.32812 11.5781 6 12 6ZM3.75 11.25V12.75H20.25V11.25H3.75ZM12 15C10.7666 15 9.75 16.0166 9.75 17.25C9.75 18.4834 10.7666 19.5 12 19.5C13.2334 19.5 14.25 18.4834 14.25 17.25C14.25 16.0166 13.2334 15 12 15ZM12 16.5C12.4219 16.5 12.75 16.8281 12.75 17.25C12.75 17.6719 12.4219 18 12 18C11.5781 18 11.25 17.6719 11.25 17.25C11.25 16.8281 11.5781 16.5 12 16.5Z" fill="black"/>
</svg>
