<svg width="24" height="24" viewBox="0 0 24 24" fill="none" xmlns="http://www.w3.org/2000/svg">
<path d="M12 2.25C6.624 2.25 2.25 6.624 2.25 12C2.25 17.376 6.624 21.75 12 21.75C17.376 21.75 21.75 17.376 21.75 12C21.75 6.624 17.376 2.25 12 2.25ZM12 3.75C16.5487 3.75 20.25 7.45125 20.25 12C20.25 16.5487 16.5487 20.25 12 20.25C7.45125 20.25 3.75 16.5487 3.75 12C3.75 7.45125 7.45125 3.75 12 3.75ZM7.28027 7.71973L6.21973 8.78027L7.56445 10.125L6.21973 11.4697L7.28027 12.5303L8.625 11.1855L9.96973 12.5303L11.0303 11.4697L9.68555 10.125L11.0303 8.78027L9.96973 7.71973L8.625 9.06445L7.28027 7.71973ZM14.0303 7.71973L12.9697 8.78027L14.3145 10.125L12.9697 11.4697L14.0303 12.5303L15.375 11.1855L16.7197 12.5303L17.7803 11.4697L16.4355 10.125L17.7803 8.78027L16.7197 7.71973L15.375 9.06445L14.0303 7.71973ZM12 13.5C10.3455 13.5 9 14.644 9 16.0503C9 17.344 10.0095 18 12 18C13.9905 18 15 17.344 15 16.0503C15 14.644 13.6545 13.5 12 13.5ZM12 15C12.813 15 13.5 15.481 13.5 16.0503C13.5 16.1733 13.5 16.5 12 16.5C10.5 16.5 10.5 16.1733 10.5 16.0503C10.5 15.481 11.187 15 12 15Z" fill="black"/>
</svg>
