<svg width="24" height="24" viewBox="0 0 24 24" fill="none" xmlns="http://www.w3.org/2000/svg">
<path d="M13.9453 1.24219L13.2422 1.5L9.09375 3.02344L8.39062 3.28125L8.64844 3.98438L9.91406 7.40625L10.1719 8.10938L10.875 7.85156L15.0234 6.32812L15.7266 6.07031L15.4688 5.36719L14.2031 1.94531L13.9453 1.24219ZM6.44531 2.25L5.74219 2.50781L3.75 3.23438L4.24219 4.64062L5.55469 4.17188L10.5469 17.5078L10.8047 18.2109L11.5078 17.9531L19.4766 14.9531L18.9609 13.5469L11.6953 16.2891L6.70312 2.95312L6.44531 2.25ZM13.0547 3.16406L13.8047 5.17969L11.0625 6.1875L10.3125 4.17188L13.0547 3.16406ZM16.3359 7.42969L15.6328 7.6875L11.4844 9.21094L10.7812 9.46875L11.0391 10.1719L12.3047 13.5938L12.5625 14.2969L13.2656 14.0391L17.4141 12.5156L18.1172 12.2578L17.8594 11.5312L16.5938 8.13281L16.3359 7.42969ZM15.4453 9.35156L16.1953 11.3672L13.4531 12.375L12.7031 10.3594L15.4453 9.35156ZM8.25 15.75C7.0166 15.75 6 16.7666 6 18C6 19.2334 7.0166 20.25 8.25 20.25C9.4834 20.25 10.5 19.2334 10.5 18C10.5 16.7666 9.4834 15.75 8.25 15.75ZM8.25 20.25H3.75V21.75H20.25V20.25H8.25ZM8.25 17.25C8.67188 17.25 9 17.5781 9 18C9 18.4219 8.67188 18.75 8.25 18.75C7.82812 18.75 7.5 18.4219 7.5 18C7.5 17.5781 7.82812 17.25 8.25 17.25Z" fill="black"/>
</svg>
