<svg width="24" height="24" viewBox="0 0 24 24" fill="none" xmlns="http://www.w3.org/2000/svg">
<path d="M14.25 4.5C13.0166 4.5 12 5.5166 12 6.75H7.5V15.75H21V6.75H16.5C16.5 5.5166 15.4834 4.5 14.25 4.5ZM3 5.25V6.75H3.75C4.16602 6.75 4.5 7.08398 4.5 7.5V15.75C4.5 17.4082 5.8418 18.75 7.5 18.75H21V17.25H7.5C6.60645 17.25 6 16.6436 6 15.75V7.5C6 6.2666 4.9834 5.25 3.75 5.25H3ZM18.375 18.75C17.7539 18.75 17.25 19.2539 17.25 19.875C17.25 20.4961 17.7539 21 18.375 21C18.9961 21 19.5 20.4961 19.5 19.875C19.5 19.2539 18.9961 18.75 18.375 18.75ZM9.375 18.75C8.75391 18.75 8.25 19.2539 8.25 19.875C8.25 20.4961 8.75391 21 9.375 21C9.99609 21 10.5 20.4961 10.5 19.875C10.5 19.2539 9.99609 18.75 9.375 18.75ZM14.25 6C14.666 6 15 6.33398 15 6.75H13.5C13.5 6.33398 13.834 6 14.25 6ZM9 8.25H19.5V14.25H9V8.25Z" fill="black"/>
</svg>
