<svg width="24" height="24" viewBox="0 0 24 24" fill="none" xmlns="http://www.w3.org/2000/svg">
<path d="M12 2.25C7.8645 2.25 4.5 5.6145 4.5 9.75C4.5 13.8855 7.8645 17.25 12 17.25C16.1355 17.25 19.5 13.8855 19.5 9.75C19.5 5.6145 16.1355 2.25 12 2.25ZM12 3.75C15.3082 3.75 18 6.44175 18 9.75C18 13.0582 15.3082 15.75 12 15.75C8.69175 15.75 6 13.0582 6 9.75C6 6.44175 8.69175 3.75 12 3.75ZM11.25 5.25V6.14209C11.1412 6.18146 11.0355 6.22958 10.9351 6.28418C10.8346 6.33877 10.7387 6.40037 10.6479 6.46875C10.5572 6.53713 10.4725 6.61214 10.3931 6.69287C10.2343 6.85433 10.099 7.03849 9.99463 7.24072C9.94242 7.34184 9.89766 7.44797 9.86133 7.55713C9.78867 7.77545 9.75 8.00812 9.75 8.25C9.75 8.40375 9.76658 8.5541 9.79688 8.69971C9.85746 8.99092 9.97541 9.26279 10.1382 9.50244C10.2196 9.62227 10.3114 9.73424 10.4136 9.83643C10.6179 10.0408 10.8613 10.2064 11.1299 10.3213C11.3985 10.4361 11.6925 10.5 12 10.5C12.1069 10.5 12.207 10.5202 12.2974 10.5571C12.3877 10.594 12.4676 10.6483 12.5347 10.7153C12.6017 10.7824 12.656 10.8623 12.6929 10.9526C12.7298 11.043 12.75 11.1431 12.75 11.25C12.75 11.5706 12.5684 11.8321 12.2974 11.9429C12.207 11.9798 12.1069 12 12 12C11.8931 12 11.793 11.9798 11.7026 11.9429C11.6123 11.906 11.5324 11.8517 11.4653 11.7847C11.3313 11.6506 11.25 11.4637 11.25 11.25H9.75C9.75 11.3709 9.76037 11.4902 9.7793 11.606C9.79822 11.7217 9.825 11.8337 9.86133 11.9429C9.89766 12.052 9.94242 12.1582 9.99463 12.2593C10.0468 12.3604 10.1068 12.4562 10.1733 12.5479C10.2399 12.6395 10.3137 12.7264 10.3931 12.8071C10.4725 12.8879 10.5572 12.9629 10.6479 13.0312C10.7387 13.0996 10.8346 13.1612 10.9351 13.2158C11.0355 13.2704 11.1412 13.3185 11.25 13.3579V14.25H12.75V13.3579C13.5112 13.0823 14.0882 12.4163 14.2207 11.606C14.2396 11.4902 14.25 11.3709 14.25 11.25C14.25 11.0962 14.2334 10.9459 14.2031 10.8003C14.1728 10.6547 14.1287 10.5142 14.0713 10.3799C14.0139 10.2456 13.9432 10.1174 13.8618 9.99756C13.7804 9.87773 13.6886 9.76576 13.5864 9.66357C13.4842 9.56139 13.3723 9.46957 13.2524 9.38818C13.1326 9.3068 13.0044 9.23613 12.8701 9.17871C12.7358 9.12129 12.5953 9.07717 12.4497 9.04688C12.3041 9.01658 12.1538 9 12 9C11.8931 9 11.793 8.97979 11.7026 8.94287C11.6123 8.90596 11.5324 8.8517 11.4653 8.78467C11.3983 8.71764 11.344 8.63771 11.3071 8.54736C11.2702 8.45701 11.25 8.35687 11.25 8.25C11.25 8.14313 11.2702 8.04299 11.3071 7.95264C11.344 7.86229 11.3983 7.78236 11.4653 7.71533C11.5324 7.6483 11.6123 7.59404 11.7026 7.55713C11.793 7.52021 11.8931 7.5 12 7.5C12.4275 7.5 12.75 7.8225 12.75 8.25H14.25C14.25 8.12906 14.2396 8.00981 14.2207 7.89404C14.2018 7.77828 14.175 7.66629 14.1387 7.55713C13.9207 6.90217 13.4025 6.37834 12.75 6.14209V5.25H11.25ZM1.5 15.75V21.75H3V17.25H7.03564C6.39739 16.8263 5.82081 16.3185 5.31006 15.75H1.5ZM18.6899 15.75C18.1792 16.3185 17.6026 16.8263 16.9644 17.25H21V21.75H22.5V15.75H18.6899ZM4.5 18.75V20.25H19.5V18.75H4.5Z" fill="black"/>
</svg>
