<svg width="24" height="24" viewBox="0 0 24 24" fill="none" xmlns="http://www.w3.org/2000/svg">
<path d="M12 3C7.03711 3 3 7.03711 3 12C3 16.9629 7.03711 21 12 21C16.9629 21 21 16.9629 21 12C21 7.03711 16.9629 3 12 3ZM12 4.5C16.1514 4.5 19.5 7.84863 19.5 12C19.5 16.1514 16.1514 19.5 12 19.5C7.84863 19.5 4.5 16.1514 4.5 12C4.5 7.84863 7.84863 4.5 12 4.5ZM12 9.75C10.7578 9.75 9.75 10.7578 9.75 12C9.75 13.2422 10.7578 14.25 12 14.25C13.2422 14.25 14.25 13.2422 14.25 12C14.25 10.7578 13.2422 9.75 12 9.75Z" fill="black"/>
</svg>
