<svg width="24" height="24" viewBox="0 0 24 24" fill="none" xmlns="http://www.w3.org/2000/svg">
<path d="M7.38281 1.24805L6.5127 1.53809C5.29395 1.94531 4.48242 2.48145 4.00781 3.14941C3.53028 3.81738 3.4541 4.59082 3.57715 5.20898C3.68848 5.76855 3.94336 6.21094 4.17774 6.56836C3.96387 6.69434 3.91407 6.65039 3.68848 6.87598C3.0791 7.48535 2.58399 8.625 3.03809 9.9873C3.38086 11.0186 4.17774 11.5752 4.82227 11.8037C5.00391 11.8682 5.00684 11.8301 5.16797 11.8594C5.1211 12.1201 5.06836 12.1523 5.07422 12.5156C5.08887 13.3506 5.38477 14.4814 6.43653 15.1611C6.99024 15.5186 7.6084 15.7002 8.21485 15.7969L4.06348 21.3311L4.97168 21.6943C9.07324 23.3379 13.7373 21.7119 13.7373 21.7119L14.25 21.5391V18.6533C14.8301 18.5684 15.6445 18.4102 16.6494 17.9883C18.2373 17.3232 20.0303 15.9639 20.2471 13.5674C20.332 12.6387 20.1152 11.6602 19.8984 10.8662C19.8428 10.6582 19.8369 10.6758 19.7813 10.5H22.2451L21.6621 9.39844C21.6621 9.39844 21.2695 8.62793 21.0645 8.20605C21.6504 6.89941 21.2256 5.47559 20.1445 4.875C19.8457 4.70801 19.5088 4.60547 19.1514 4.57617C18.0879 4.48535 16.8574 5.02734 15.9023 6.29883C15.8057 6.42773 15.4043 6.90234 15.1758 7.17773C15.1055 7.04004 15.0293 6.87012 14.9443 6.65918C14.6104 5.81836 14.25 4.41797 14.25 2.25V1.5H13.5C12.624 1.5 11.918 1.72852 11.4141 2.13281C10.9102 2.53711 10.6436 3.0791 10.5234 3.56836C10.3535 4.23926 10.4648 4.52051 10.5234 4.84863C10.2598 4.96875 10.0723 4.99219 9.68848 5.37598C9.45996 5.60449 9.24903 5.90625 9.09668 6.26367C8.3291 5.17969 7.70215 3.82617 7.49414 2.15625L7.38281 1.24805ZM12.8291 3.17871C12.9229 4.95703 13.2041 6.34277 13.5557 7.21582C13.7666 7.74316 13.9951 8.13281 14.1738 8.39355C13.6553 9.01172 13.5147 9.1875 13.1133 9.65625C12.5801 9.39844 11.5049 8.79785 10.4063 7.76367C10.2451 7.06934 10.4561 6.72949 10.749 6.43652C11.0772 6.1084 11.4873 5.96191 11.4873 5.96191L12.1465 5.74219L11.9766 5.06836C11.9766 5.06836 11.8477 4.45312 11.9766 3.93164C12.0439 3.6709 12.1523 3.46289 12.3516 3.30469C12.4336 3.2373 12.6885 3.23144 12.8291 3.17871ZM6.25781 3.4043C6.75879 5.56055 7.86035 7.20996 9.02344 8.42578C9.0293 8.44629 9.03223 8.4668 9.03809 8.4873L9.07032 8.47559C10.3945 9.84668 11.751 10.6348 12.4395 10.9863L13.3213 11.7363C13.3213 11.7363 16.377 8.15918 17.0977 7.20117H17.1006C18.0762 5.90039 18.9346 5.9209 19.418 6.1875C19.8984 6.4541 20.1826 6.99609 19.626 7.83398L19.4033 8.16797L19.5586 8.53711C19.6201 8.68945 19.6875 8.79492 19.79 9H17.6484L18.0498 10.0225C18.0498 10.0225 18.2578 10.5527 18.4541 11.2617C18.6475 11.9707 18.8057 12.8672 18.7529 13.4326C18.5947 15.1611 17.3877 16.0518 16.0693 16.6055C14.751 17.1592 13.4502 17.25 13.4502 17.25L12.75 17.2969V20.3906C12.1025 20.5781 9.38672 21.2256 6.54492 20.5225L10.0313 15.8789C10.8076 15.8408 11.3906 15.7383 11.3906 15.7383L11.1094 14.2617C11.1094 14.2617 10.4619 14.3877 9.62403 14.3936C8.78907 14.4023 7.80762 14.2617 7.25098 13.9014C6.70899 13.5498 6.58301 13.04 6.57422 12.4922C6.56543 11.9414 6.71192 11.4873 6.71192 11.4873L7.06055 10.4414L5.95899 10.5C5.95899 10.5 5.67188 10.5146 5.32617 10.3916C4.97754 10.2656 4.64942 10.0723 4.46192 9.5127C4.16602 8.625 4.4209 8.26465 4.74903 7.93652C5.07715 7.6084 5.48731 7.46191 5.48731 7.46191L6.63867 7.07812L5.78028 6.21973C5.78028 6.21973 5.17383 5.55176 5.04785 4.91602C4.9834 4.59668 5.00098 4.33887 5.22656 4.02246C5.36133 3.83789 5.88574 3.61816 6.25781 3.4043Z" fill="black"/>
</svg>
