<svg width="24" height="24" viewBox="0 0 24 24" fill="none" xmlns="http://www.w3.org/2000/svg">
<path d="M11.8271 3.78809C9.94465 3.79559 8.25029 4.37988 7.05029 5.31738C6.09779 5.95488 5.43809 6.96006 5.28809 8.12256V8.13721C5.26559 8.29471 5.25 8.46 5.25 8.625C5.25 10.0725 6.4275 11.25 7.875 11.25C9.3225 11.25 10.5 10.0725 10.5 8.625C10.5 7.5 9.78785 6.54785 8.79785 6.17285C8.99285 6.13535 9.19559 6.10547 9.41309 6.10547C10.8381 6.10547 12 7.2375 12 8.625C12 10.7175 8.46773 14.0171 3.99023 18.2021L2.60303 19.5H17.25V21.75L22.5 18.75L17.25 15.75V18H12.8628C15.9828 14.7 18 12.3224 18 8.87988C18 5.98488 15.3677 3.80309 11.8652 3.78809H11.8418H11.8271ZM11.6924 5.28809H11.8418C14.4968 5.29559 16.5 6.83238 16.5 8.87988C16.5 11.9999 14.4299 14.1744 11.0024 17.7744L10.793 18H6.39697C10.9495 13.7025 13.5 11.01 13.5 8.625C13.5 7.2375 12.7799 6.01559 11.6924 5.28809ZM7.875 7.5C8.4975 7.5 9 8.0025 9 8.625C9 9.2475 8.4975 9.75 7.875 9.75C7.2525 9.75 6.75 9.2475 6.75 8.625C6.75 8.5425 6.76447 8.46709 6.77197 8.39209C6.88447 7.88209 7.335 7.5 7.875 7.5ZM18.75 18.3369L19.478 18.75L18.75 19.1631V18.3369Z" fill="black"/>
</svg>
