<svg width="24" height="24" viewBox="0 0 24 24" fill="none" xmlns="http://www.w3.org/2000/svg">
<path d="M6 2.25V6.75L2.25 7.875L4.875 10.5L3 14.25H6.75V21.75H8.25V14.8857C9.22266 15.3076 10.2451 15.7412 12.0029 16.4414C12.0029 16.4619 12 16.4795 12 16.5C12 18.1729 12.5244 19.5352 13.4854 20.4375C14.4434 21.3428 15.7793 21.75 17.25 21.75V20.25C16.0488 20.25 15.1348 19.9307 14.5107 19.3477C13.9775 18.8438 13.6172 18.1143 13.5234 17.0508C14.5107 17.4229 15.3984 17.7363 16.0137 17.9033C16.2275 17.959 16.4473 17.9883 16.6641 17.9883C18.0293 17.9883 19.3506 16.8984 19.5996 15.5156L20.25 12L18 13.5C14.4844 13.5 13.6494 11.25 13.6494 11.25C13.9131 10.6172 14.458 10.1689 15.0908 9.84082L15.75 10.5V9.55371C15.8906 9.50391 16.0312 9.46289 16.1719 9.42188L17.25 10.5V9.16406C17.2939 9.15527 17.3438 9.14355 17.3877 9.1377L18.75 10.5V9L21 10.5V6.86426C21 5.75684 20.25 4.7373 19.1631 4.53809C19.0225 4.51172 18.8848 4.5 18.75 4.5C18.1494 4.5 17.6133 4.75195 17.209 5.13867L16.125 2.25L15 5.25H10.5L6 2.25ZM7.5 5.05078L9.66797 6.49805L10.0459 6.75H17.7539L18.1992 6.25781C18.2871 6.16113 18.4717 6 18.75 6C18.7969 6 18.8438 6.00293 18.8906 6.01172C19.2334 6.07617 19.5 6.44824 19.5 6.86426V7.5H19.2041L19.1924 7.49414L18.75 7.5H18.7266C18.1963 7.50879 13.5234 7.67285 12.2666 10.6699L12.0381 11.2148L12.2432 11.7686C12.6885 12.9697 14.3994 15 18 15H18.1699L18.123 15.2549C18.0059 15.9111 17.3232 16.4883 16.6641 16.4883C16.5732 16.4883 16.4854 16.4766 16.4033 16.4531C14.0918 15.832 7.4209 12.9053 7.35352 12.876L7.06641 12.75H5.42578L6.2168 11.1709L6.7002 10.2041L5.08594 8.58984L6.43359 8.18848L7.5 7.86621V5.05078ZM9.75 7.5C9.75 7.5 9.92285 9 11.25 9C12.5771 9 13.5 7.5 13.5 7.5H9.75Z" fill="black"/>
</svg>
