<svg width="24" height="24" viewBox="0 0 24 24" fill="none" xmlns="http://www.w3.org/2000/svg">
<path d="M20.3906 3.82031L12.0938 7.75781C11.8535 7.59668 11.5605 7.5 11.25 7.5C10.4209 7.5 9.75 8.1709 9.75 9C9.75 9.8291 10.4209 10.5 11.25 10.5C12.0381 10.5 12.6914 9.89062 12.75 9.11719L17.2969 6.96094C18.6592 7.53516 19.5 8.28516 19.5 9C19.5 10.415 16.292 12 12 12C7.70801 12 4.5 10.415 4.5 9C4.5 7.58496 7.70801 6 12 6C12.1289 6 12.2461 5.99707 12.375 6L15.0234 4.75781C14.083 4.59961 13.0752 4.5 12 4.5C6.87012 4.5 3 6.43359 3 9V16.5C3 17.2412 3.33398 17.9209 3.84375 18.4688C4.35352 19.0166 5.04785 19.459 5.85938 19.8281C7.48242 20.5664 9.62988 21 12 21C14.3701 21 16.5176 20.5664 18.1406 19.8281C18.9521 19.459 19.6465 19.0166 20.1562 18.4688C20.666 17.9209 21 17.2412 21 16.5V9C21 7.89258 20.2676 6.9082 19.0312 6.14062L21.0234 5.17969L20.3906 3.82031ZM4.5 11.5547C5.26172 12.1289 6.28418 12.6006 7.5 12.9375V18.8672C7.125 18.75 6.78223 18.6123 6.46875 18.4688C5.78906 18.1582 5.27051 17.7861 4.94531 17.4375C4.62012 17.0889 4.5 16.7959 4.5 16.5V11.5547ZM19.5 11.5547V16.5C19.5 16.7959 19.3799 17.0889 19.0547 17.4375C18.7295 17.7861 18.2109 18.1582 17.5312 18.4688C17.2178 18.6123 16.875 18.75 16.5 18.8672V12.9375C17.7158 12.6006 18.7383 12.1289 19.5 11.5547ZM9 13.2656C9.93164 13.4209 10.9365 13.5 12 13.5C13.0635 13.5 14.0684 13.4209 15 13.2656V19.2188C14.0771 19.3916 13.0664 19.5 12 19.5C10.9336 19.5 9.92285 19.3916 9 19.2188V13.2656Z" fill="black"/>
</svg>
