<svg width="24" height="24" viewBox="0 0 24 24" fill="none" xmlns="http://www.w3.org/2000/svg">
<path d="M12 4.5C6.615 4.5 2.25 6.3465 2.25 8.625V15.375C2.25 17.6535 6.615 19.5 12 19.5C17.385 19.5 21.75 17.6535 21.75 15.375V8.625C21.75 6.3465 17.385 4.5 12 4.5ZM12 6C12.6698 6 13.3007 6.0296 13.8926 6.08203C14.0158 6.09295 14.1302 6.1087 14.25 6.12158V6.44971C14.25 7.43971 13.2375 8.25 12 8.25C10.7625 8.25 9.75 7.43971 9.75 6.44971V6.12158C10.4453 6.04681 11.1907 6 12 6ZM9.67236 6.13037C9.42132 6.15674 9.18067 6.18966 8.94434 6.22559C9.04684 6.20996 9.14361 6.19143 9.24902 6.17725C9.38522 6.15892 9.53135 6.14612 9.67236 6.13037ZM14.3276 6.13037C14.4687 6.14612 14.6148 6.15892 14.751 6.17725C14.8564 6.19143 14.9532 6.20996 15.0557 6.22559C14.8193 6.18966 14.5787 6.15674 14.3276 6.13037ZM8.64258 6.27246C8.51077 6.29512 8.38577 6.322 8.25879 6.34717C8.32669 6.33391 8.3813 6.31586 8.45068 6.30322C8.51228 6.29201 8.57982 6.28316 8.64258 6.27246ZM15.3574 6.27246C15.4202 6.28316 15.4877 6.29201 15.5493 6.30322C15.6187 6.31586 15.6733 6.33391 15.7412 6.34717C15.6142 6.322 15.4892 6.29512 15.3574 6.27246ZM7.88965 6.43213L8.67041 7.78564C9.00041 8.34064 9.08297 8.99256 8.91797 9.62256C8.77683 10.1203 8.48644 10.5505 8.09473 10.8647C5.26605 10.28 3.75 9.17257 3.75 8.625C3.75 8.57737 3.76121 8.52523 3.78369 8.46973C4.01321 7.90315 5.438 6.97447 7.88965 6.43213ZM16.1104 6.43213C18.8022 7.0276 20.25 8.09122 20.25 8.625C20.25 9.17266 18.7334 10.28 15.9038 10.8647C15.5125 10.5507 15.2231 10.1273 15.082 9.62256C14.917 8.99256 14.9998 8.34064 15.3223 7.78564L16.1104 6.43213ZM12 9.75C12.9825 9.75 13.7995 10.3345 14.0845 11.1445C14.3678 11.1188 14.6373 11.0861 14.9019 11.0493C14.0332 11.1739 13.068 11.25 12 11.25C10.932 11.25 9.96679 11.1739 9.09814 11.0493C9.36267 11.0861 9.63225 11.1188 9.91553 11.1445C10.2005 10.3345 11.0175 9.75 12 9.75ZM3.75 10.8164C5.47539 11.9767 8.52043 12.75 12 12.75C15.4796 12.75 18.5246 11.9767 20.25 10.8164V15.375C20.25 16.137 17.3588 18 12 18C6.64125 18 3.75 16.137 3.75 15.375V10.8164ZM8.33496 10.9204C8.45912 10.9445 8.58584 10.9665 8.71436 10.9878C8.58468 10.9662 8.45974 10.9441 8.33496 10.9204ZM15.665 10.9204C15.5403 10.9441 15.4153 10.9662 15.2856 10.9878C15.4142 10.9665 15.5409 10.9445 15.665 10.9204Z" fill="black"/>
</svg>
