<svg width="24" height="24" viewBox="0 0 24 24" fill="none" xmlns="http://www.w3.org/2000/svg">
<path d="M14.7378 3.00293C13.1337 3.00293 11.5291 3.61298 10.3081 4.83398C9.13211 6.00998 7.75086 9.30028 6.20361 14.6133L5.00684 15.8101C4.84034 15.7696 4.67029 15.75 4.49854 15.75C3.25804 15.75 2.24854 16.7595 2.24854 18C2.24854 19.0133 2.92418 19.8728 3.84668 20.1533C4.12718 21.0766 4.98454 21.75 5.99854 21.75C7.23904 21.75 8.24929 20.7405 8.24854 19.5C8.24854 19.3283 8.22823 19.1582 8.18848 18.9917L9.38525 17.7964C10.7105 17.4109 12.5859 16.8331 14.3364 16.1851L15.2007 15.8643L14.7129 15.0835C14.4106 14.5997 14.25 14.052 14.25 13.5C14.25 11.8455 15.5955 10.5 17.25 10.5C18.081 10.5 18.8573 10.8407 19.4355 11.4595L20.3071 12.394L20.6982 11.1753C21.4175 8.92829 20.8303 6.49898 19.166 4.83398C17.945 3.61298 16.3419 3.00293 14.7378 3.00293ZM14.7363 4.50293C15.9561 4.50274 17.1751 4.96603 18.104 5.89453C19.0955 6.88678 19.5851 8.23787 19.4854 9.59912C18.8134 9.20762 18.0487 9 17.25 9C14.7682 9 12.75 11.0182 12.75 13.5C12.75 14.0317 12.8474 14.5598 13.0356 15.0601C11.8377 15.4813 10.6891 15.8374 9.68408 16.1382L7.86035 14.3145C9.19641 9.85753 10.4629 6.79957 11.3672 5.89453C12.2957 4.96678 13.5165 4.50312 14.7363 4.50293ZM7.18066 15.7559L8.24268 16.8179L6.39697 18.6636L6.65625 19.1528C6.71775 19.2683 6.74854 19.3853 6.74854 19.5C6.74854 19.9132 6.41254 20.25 5.99854 20.25C5.58454 20.25 5.24854 19.9132 5.24854 19.5V18.75H4.49854C4.08454 18.75 3.74854 18.4132 3.74854 18C3.74854 17.5868 4.08454 17.25 4.49854 17.25C4.61329 17.25 4.73095 17.2815 4.8457 17.3423L5.33496 17.603L7.18066 15.7559Z" fill="black"/>
</svg>
