<svg width="24" height="24" viewBox="0 0 24 24" fill="none" xmlns="http://www.w3.org/2000/svg">
<path d="M3.75 4.5L2.25 10.5H3.25049L3.49951 12H2.25V13.5H3.75L4.5 18V19.5H6V18H18V19.5H19.5V18L20.25 13.5H21.75V12H20.5005L20.7495 10.5H21.75L20.25 4.5H12.75H11.25H3.75ZM4.92188 6H7.00342L6.4292 9H4.17188L4.92188 6ZM8.54297 6H11.25V9H7.97314L8.54297 6ZM12.75 6H15.457L16.0269 9H12.75V6ZM16.9966 6H19.0781L19.8281 9H17.5708L16.9966 6ZM4.771 10.5H6.14209H7.6875H11.25H12.75H16.3125H17.8579H19.229L18.23 16.5H5.77002L4.771 10.5Z" fill="black"/>
</svg>
