<svg width="24" height="24" viewBox="0 0 24 24" fill="none" xmlns="http://www.w3.org/2000/svg">
<g clip-path="url(#clip0_201_33430)">
<path d="M3.75 4.5L2.25 10.5H3.25049L3.49951 12H2.25V13.5H3.75L4.5 18V19.5H6V18H14.729C14.9518 17.4517 15.2318 16.953 15.5288 16.5H5.77002L4.771 10.5H6.14209H7.6875H11.25H12.75H16.3125H17.8579H19.229L18.8218 12.9419L19.916 12.1128C19.916 12.1128 21.4886 13.4108 21.5801 13.5H21.75V12H20.499L20.7495 10.5H21.75L20.25 4.5H12.75H11.25H3.75ZM4.92188 6H7.00342L6.4292 9H4.17188L4.92188 6ZM8.54297 6H11.25V9H7.97314L8.54297 6ZM12.75 6H15.457L16.0269 9H12.75V6ZM16.9966 6H19.0781L19.8281 9H17.5708L16.9966 6ZM19.897 13.9951L19.4106 14.4155C19.4106 14.4155 18.4955 15.1506 17.603 16.2231C16.7105 17.2956 15.75 18.7212 15.75 20.3262C15.75 21.4587 16.2226 22.4409 16.9951 23.0859C17.7601 23.7384 18.7875 24.0762 19.875 24.0762C20.9625 24.0762 21.9899 23.7384 22.7549 23.0859C23.5274 22.4409 24 21.4587 24 20.3262C24 18.8337 23.032 17.4677 22.147 16.3652C21.262 15.2552 20.3921 14.439 20.3921 14.439L19.897 13.9951ZM19.853 16.0811C20.1455 16.3661 20.4155 16.6052 20.978 17.3027C21.7805 18.3077 22.5 19.5987 22.5 20.3262C22.5 21.0612 22.222 21.5859 21.772 21.9609C21.637 22.0809 21.4801 22.1861 21.3076 22.2686C21.3451 22.1261 21.375 21.9762 21.375 21.8262C21.375 19.6137 20.2046 18.3076 20.2046 18.3076C20.2046 18.3076 20.2421 20.2808 19.6421 20.2808C19.2296 20.2808 18.8174 19.6436 18.8174 19.6436C18.8174 19.6436 18.375 20.5887 18.375 21.8262C18.375 21.9762 18.4049 22.1261 18.4424 22.2686C18.2699 22.1861 18.113 22.0809 17.978 21.9609C17.528 21.5859 17.25 21.0612 17.25 20.3262C17.25 19.3812 17.977 18.1351 18.772 17.1826C19.3195 16.5301 19.568 16.3361 19.853 16.0811Z" fill="black"/>
</g>
<defs>
<clipPath id="clip0_201_33430">
<rect width="24" height="24" fill="white"/>
</clipPath>
</defs>
</svg>
