<svg width="24" height="24" viewBox="0 0 24 24" fill="none" xmlns="http://www.w3.org/2000/svg">
<path d="M11.1372 2.99999C11.0997 3.02249 10.673 3.76569 11.228 4.47069C9.93053 4.71819 9.00809 5.42929 8.28809 6.21679C6.82559 6.26929 5.21262 6.32319 4.99512 7.47069C4.89762 7.49319 4.5743 7.49987 4.5293 7.56737C4.5218 7.58237 4.45477 7.86005 4.44727 8.12255C4.46227 8.63255 4.68774 9.0519 5.30274 8.9619C5.46774 9.8394 5.36221 10.4468 5.88721 11.1518C5.84221 11.3918 5.81303 11.6325 5.79053 11.8725C4.06553 12.705 2.73012 13.2456 3.12012 14.3481C3.51012 15.2931 4.92698 14.9699 5.83448 14.5049C6.24698 16.7999 7.79239 18.2329 10.0049 18.7954C8.71489 18.7429 7.84489 18.7427 7.75489 18.7427C6.99739 18.7427 6.99739 19.8823 7.75489 19.8823C7.83739 19.8823 8.62465 19.7631 9.95215 19.7256L9.91553 20.1753C9.84803 20.7303 10.5977 20.9777 10.8677 20.4902C10.8677 21.1577 11.872 21.1799 11.8945 20.5049L11.918 20.3174C11.963 21.1424 12.9748 21.0005 12.9448 20.3555C13.0948 21.008 14.0847 20.7824 13.9497 20.1299L13.9131 19.7095C15.0681 19.672 16.6456 19.6979 18.3106 19.3154C19.2031 19.1054 19.5025 19.0084 20.02 18.9184C20.5525 18.8509 20.0062 18.408 19.9087 18.438C19.8487 18.4605 19.7207 18.4827 19.5557 18.5127C20.0432 18.0177 19.8632 17.2977 19.8032 17.2602C19.7357 17.2152 19.015 17.2979 18.7075 17.7554C18.4525 17.3954 17.9734 17.3049 17.9209 17.3349C17.8684 17.3724 17.5598 18.2198 18.2798 18.7148C17.0573 18.8948 15.8327 18.99 14.6177 18.9375C13.6727 18.9 13.7552 18.9369 13.7402 18.8994C16.2152 18.4344 17.8348 16.9046 18.3223 14.3921C19.1698 14.8346 20.5653 15.3675 20.9253 14.4975C21.2853 13.6125 19.7995 12.9296 18.457 12.0146C18.427 11.5571 18.3682 11.115 18.2857 10.6875C18.5032 10.155 18.4806 9.5844 18.6006 8.9619C19.2081 9.0444 19.4321 8.62505 19.4546 8.12255C19.4396 7.86005 19.3802 7.58255 19.3652 7.56005C19.3277 7.50005 19.0057 7.49319 18.9082 7.47069C18.7132 6.45069 17.4229 6.2929 16.1104 6.2329C15.2479 5.2954 14.0851 4.52202 12.6226 4.39452C13.0351 3.99702 12.8402 3.47952 12.8027 3.45702C12.7577 3.42702 12.2844 3.52563 12.0894 3.84813C11.9094 3.15813 11.1972 2.97749 11.1372 2.99999ZM15.5479 3.76024C15.107 3.71349 14.6881 3.82165 14.6543 4.1704C14.6243 5.0704 15.6604 4.14063 16.6729 4.41063C16.9354 4.20813 16.0204 3.87046 15.9829 3.85546C15.8442 3.80858 15.6948 3.77583 15.5479 3.76024ZM8.6001 3.76171C8.43862 3.77905 8.27444 3.81468 8.12256 3.86718C8.08506 3.88218 7.08024 4.25009 7.36524 4.47509C8.48274 4.18259 9.61448 5.20288 9.58448 4.21288C9.5451 3.83038 9.08456 3.70968 8.6001 3.76171ZM9.03956 7.14403C10.058 7.16994 10.8448 7.41707 10.8223 8.54882C10.8298 9.18032 10.5905 10.548 10.2905 10.8735C9.82553 11.3835 7.5143 11.2787 7.1543 11.1152C6.5318 10.8317 5.90245 8.36508 6.31495 7.64208C6.55495 7.23108 7.17686 7.20272 7.96436 7.16747C8.33374 7.15153 8.70006 7.1354 9.03956 7.14403ZM14.8843 7.14696C15.2187 7.13834 15.5792 7.15446 15.9448 7.1704C16.7323 7.20565 17.3923 7.23401 17.6323 7.64501C18.0748 8.41601 17.3176 10.8593 16.7476 11.1211C16.3951 11.2771 14.0851 11.3828 13.6201 10.8735C13.3201 10.548 13.1172 9.18028 13.1397 8.55028C13.1115 7.41909 13.8809 7.17284 14.8843 7.14696ZM9.0044 8.24999C8.5889 8.24999 8.25001 8.59049 8.25001 8.99999C8.25001 9.41849 8.5889 9.74999 9.0044 9.74999C9.4109 9.74999 9.75001 9.41849 9.75001 8.99999C9.75001 8.59124 9.4109 8.24999 9.0044 8.24999ZM14.9956 8.24999C14.5891 8.24999 14.25 8.59049 14.25 8.99999C14.25 9.41849 14.5891 9.74999 14.9956 9.74999C15.4111 9.74999 15.75 9.41849 15.75 8.99999C15.75 8.59124 15.4111 8.24999 14.9956 8.24999ZM11.8389 9.44384C11.9109 9.42809 12.1477 9.42809 12.2197 9.44384C12.543 9.54734 12.5993 10.2229 12.75 10.7007C12.291 10.8117 12.2196 11.25 12.0689 11.25C11.9181 11.25 11.781 10.8765 11.25 10.8765C11.4653 10.2952 11.4939 9.55484 11.8389 9.44384Z" fill="black"/>
</svg>
