<svg width="24" height="24" viewBox="0 0 24 24" fill="none" xmlns="http://www.w3.org/2000/svg">
<path d="M6.39843 7.5V11.8828C6.2666 11.0186 5.71875 9.75 3.65625 9.75C0.843745 9.75 0.735347 11.9092 0.749995 12.4688C0.749995 12.4688 0.60937 15 3.58593 15C5.78906 15 6.1875 13.8281 6.25781 13.5H5.0625C4.97167 13.7139 4.62597 14.2939 3.58593 14.2734C2.16796 14.2471 1.93652 13.0635 1.89843 12.75H6.39843V15H7.5V14.3203C7.5 14.3203 8.05957 15 9.5625 15C10.8369 15 11.8799 14.3262 12.1875 13.0781C12.2432 12.8555 12.2754 12.6328 12.2812 12.375C12.3105 10.6641 11.001 9.75879 9.58593 9.75C8.17089 9.74121 7.5 10.7109 7.5 10.7109V7.5H6.39843ZM12.1875 13.0781C11.956 14.5547 13.2949 15.0059 14.3437 15C15.3926 14.9941 16.0547 14.6865 16.5 14.1328V15H17.6484V11.7422C17.6191 11.1885 17.5371 9.84961 15.0937 9.75C15.0937 9.75 12.7588 9.53906 12.5156 11.25H13.7109C13.7109 11.25 13.8076 10.4766 15.0234 10.5C16.1719 10.5234 16.5059 11.3174 16.5 12C16.5 12 15.375 11.9971 15.0469 12C14.4551 12.0029 12.4922 11.9297 12.1875 13.0781ZM16.8984 9.75L19.5 14.6016L18.4922 16.5H19.7578L23.25 9.75H22.0547L20.1328 13.5L18.2109 9.75H16.8984ZM3.63281 10.5C5.24414 10.5 5.25 12 5.25 12H1.89843C1.89843 12 2.01562 10.5 3.63281 10.5ZM9.32812 10.5C11.1475 10.4531 11.0859 12.375 11.0859 12.375C11.0859 12.375 11.1152 14.2266 9.32812 14.25C7.54101 14.2734 7.57031 12.3516 7.57031 12.3516C7.57031 12.3516 7.50878 10.5469 9.32812 10.5ZM14.8125 12.75C14.9766 12.7412 15.0937 12.75 15.0937 12.75H16.3828C16.3828 12.75 16.5937 14.3232 14.5547 14.2969C14.5547 14.2969 13.4033 14.2998 13.3359 13.4062C13.3359 12.9082 14.3203 12.7764 14.8125 12.75Z" fill="black"/>
</svg>
