<svg width="24" height="24" viewBox="0 0 24 24" fill="none" xmlns="http://www.w3.org/2000/svg">
<path d="M7.4707 8.12109C5.50781 9.34277 4.38574 11.0771 4.38574 11.0771C4.38574 11.0771 4.67578 7.43848 7.4707 5.30566C8.58106 4.45898 10.1016 3.75 12.1436 3.75C12.9111 3.75 14.5195 3.88477 15.9697 4.77832C17.4199 5.67188 18.0059 6.41895 18.6592 7.51758C18.9404 7.98926 19.1719 8.59863 19.3154 9.18457C19.582 10.2832 19.6143 11.5957 19.6143 11.5957V13.3271H9.25195C9.25195 13.3271 9 16.8076 13.7666 16.8076C15.4219 16.8076 16.0049 16.5469 16.5498 16.3857C17.4023 16.1338 18.2256 15.5713 18.2256 15.5713L18.2285 19.0488C18.2285 19.0488 16.2773 20.25 13.3301 20.25C12.501 20.25 11.6279 20.1797 10.7842 19.9072C10.0459 19.667 8.50488 19.0225 7.4707 17.5107C7.10449 16.9775 6.70898 16.2656 6.5127 15.5713C6.29883 14.8184 6.30176 14.0889 6.30176 13.6846C6.30176 12.1816 6.81738 10.7461 7.70801 9.70605C8.8623 8.36133 10.3242 7.76953 10.3242 7.76953C10.3242 7.76953 9.84961 8.32324 9.55664 9.01465C9.26367 9.70605 9.18164 10.4004 9.18164 10.4004H15.0352C15.0352 10.4004 15.3779 6.90234 11.7246 6.90234C10.3477 6.90234 8.65723 7.38281 7.4707 8.12109Z" fill="black"/>
</svg>
