<svg width="24" height="24" viewBox="0 0 24 24" fill="none" xmlns="http://www.w3.org/2000/svg">
<path d="M12 2.25C9.75 2.25 7.725 3.975 6.225 6.15C4.725 8.325 3.75 11.025 3.75 13.5C3.75 16.125 4.65 18.225 6.15 19.65C7.725 21 9.75 21.75 12 21.75C14.25 21.75 16.275 21.075 17.85 19.65C19.425 18.225 20.25 16.125 20.25 13.5C20.25 11.025 19.275 8.325 17.775 6.15C16.275 3.975 14.25 2.25 12 2.25ZM12 3.75C13.425 3.75 15.15 5.025 16.5 6.975C17.85 8.925 18.75 11.475 18.75 13.5C18.75 15.825 18 17.475 16.8 18.525C15.6 19.65 13.95 20.25 12 20.25C10.05 20.25 8.4 19.65 7.2 18.525C6 17.4 5.25 15.75 5.25 13.5C5.25 11.4 6.15 8.925 7.5 6.975C8.85 5.025 10.575 3.75 12 3.75Z" fill="black"/>
</svg>
