<svg width="24" height="24" viewBox="0 0 24 24" fill="none" xmlns="http://www.w3.org/2000/svg">
<path d="M4.5 10.5C3.6709 10.5 3 11.1709 3 12C3 12.8291 3.6709 13.5 4.5 13.5C5.3291 13.5 6 12.8291 6 12C6 11.1709 5.3291 10.5 4.5 10.5ZM12 10.5C11.1709 10.5 10.5 11.1709 10.5 12C10.5 12.8291 11.1709 13.5 12 13.5C12.8291 13.5 13.5 12.8291 13.5 12C13.5 11.1709 12.8291 10.5 12 10.5ZM19.5 10.5C18.6709 10.5 18 11.1709 18 12C18 12.8291 18.6709 13.5 19.5 13.5C20.3291 13.5 21 12.8291 21 12C21 11.1709 20.3291 10.5 19.5 10.5Z" fill="black"/>
</svg>
