<svg width="24" height="24" viewBox="0 0 24 24" fill="none" xmlns="http://www.w3.org/2000/svg">
<g clip-path="url(#clip0_201_33460)">
<path d="M13.5117 5.99852C13.4064 5.99576 13.3003 6.01796 13.1953 6.05565C12.5578 6.30915 12.3135 6.68553 12.3135 6.68553C12.3135 6.68553 11.4881 7.89589 11.2969 9.69139C11.2661 9.98014 11.2339 10.2769 11.2002 10.5747C11.0232 12.0762 10.8252 13.5586 10.8252 13.5586C10.8252 13.5586 10.4316 13.9317 10.0679 13.9497C9.70412 13.9677 9.86426 12.9009 9.86426 12.9009C9.86426 12.9009 10.1467 11.3069 10.1279 11.0332C10.1092 10.7594 10.0859 10.6091 9.75586 10.5146C9.42211 10.4164 9.06152 10.8281 9.06152 10.8281C9.06152 10.8281 8.10545 12.2081 8.02295 12.4233L7.97461 12.5112L7.92627 12.4526C7.92627 12.4526 8.60056 10.5278 7.95557 10.4985C7.31056 10.4693 6.88769 11.1855 6.88769 11.1855C6.88769 11.1855 6.15158 12.3835 6.12158 12.5185L6.07471 12.4614C6.07471 12.4614 6.37869 11.1233 6.31494 10.7798C6.25494 10.4363 5.9209 10.5058 5.9209 10.5058C5.9209 10.5058 5.49791 10.4587 5.38916 10.7212C5.28041 10.9844 4.87541 12.6841 4.82666 13.2466C4.82666 13.2466 3.76928 13.984 3.07178 13.9907C2.37803 14.002 2.44482 13.56 2.44482 13.56C2.44482 13.56 4.99535 12.7358 4.29785 11.0596C3.9866 10.6283 3.62215 10.4932 3.1084 10.5C2.59465 10.5112 1.97256 10.7887 1.56006 11.6909C1.36131 12.1222 1.30459 12.5303 1.26709 12.8408C1.26709 12.8408 0.806249 12.9288 0.562499 12.7353C0.318749 12.5418 0.187499 12.7353 0.187499 12.7353C0.187499 12.7353 -0.233145 13.2466 0.183105 13.4033C0.599355 13.5601 1.23779 13.626 1.23779 13.626C1.29779 13.8997 1.47064 14.3372 1.97314 14.7099C2.73064 15.2687 4.17773 14.6631 4.17773 14.6631L4.77392 14.3423C4.77392 14.3423 4.79303 14.8751 5.22803 14.9516C5.66303 15.0281 5.84244 14.9884 6.59619 13.2026C7.03869 12.2899 7.06933 12.3413 7.06933 12.3413L7.11767 12.3296C7.11767 12.3296 6.77695 14.0397 6.9082 14.5107C7.03945 14.978 7.61279 14.9267 7.61279 14.9267C7.61279 14.9267 7.92404 15.0136 8.17529 14.1518C8.42654 13.2901 8.91064 12.3296 8.91064 12.3296H8.9707C8.9707 12.3296 8.75953 14.0872 9.08203 14.6572C9.40453 15.2272 10.2407 14.8506 10.2407 14.8506C10.2407 14.8506 10.826 14.5648 10.916 14.477C10.916 14.477 11.6101 15.0545 12.5889 14.9487C14.7751 14.5287 15.5552 14.0024 15.5552 14.0024C15.5552 14.0024 15.9299 14.894 17.0962 14.978C18.4274 15.077 19.1514 14.2983 19.1514 14.2983C19.1514 14.2983 19.1405 14.7913 19.6055 14.978C20.0705 15.164 20.3818 14.1445 20.3818 14.1445L21.1582 12.0557H21.2285C21.2285 12.0557 21.2706 13.418 22.0356 13.6333C22.8006 13.8485 23.7979 13.1338 23.7979 13.1338C23.7979 13.1338 24.0369 13.0053 23.9956 12.6108C23.9536 12.2201 23.5942 12.3618 23.5942 12.3618C23.5942 12.3618 23.0094 12.8039 22.4956 12.7529C21.9819 12.7057 22.1426 11.6235 22.1426 11.6235C22.1426 11.6235 22.2559 10.5972 21.9521 10.5132C21.6484 10.4254 21.2769 10.7798 21.2769 10.7798C21.2769 10.7798 20.8111 11.2409 20.5898 11.8799L20.5298 11.8974C20.5298 11.8974 20.602 10.7806 20.5195 10.5249C20.4595 10.3974 19.9049 10.4083 19.8149 10.6348C19.7249 10.8613 19.2824 12.4314 19.2524 13.0884C19.2524 13.0884 18.3854 13.8034 17.6279 13.9204C16.8704 14.0374 16.6904 13.5776 16.6904 13.5776C16.6904 13.5776 18.6821 13.1896 18.6108 11.5898C18.5396 9.99008 16.9525 10.5826 16.7725 10.7139C16.6 10.8414 15.7344 11.2139 15.4644 12.7222C15.4569 12.7732 15.438 12.9961 15.438 12.9961C15.438 12.9961 14.6427 13.5136 14.2002 13.6523C14.2002 13.6523 15.4375 11.6232 13.9263 10.6992C13.4988 10.451 13.128 10.6811 12.9067 10.8926C12.9757 10.8063 13.0599 10.6969 13.1499 10.5747C13.7229 9.76844 14.5978 8.2667 14.2896 6.9287C14.1264 6.23739 13.8278 6.00682 13.5117 5.99852ZM13.2905 6.98876C13.3523 6.99463 13.4039 7.06782 13.4355 7.23925C13.5705 7.969 12.5358 9.84716 12.1128 10.5762C12.0055 10.7539 11.9355 10.8647 11.9355 10.8647C11.9378 10.789 11.949 10.6902 11.9678 10.5762C12.0968 9.76991 12.5508 8.20311 12.5508 8.20311C12.5508 8.20311 13.0227 6.96329 13.2905 6.98876ZM3.28564 11.3452C3.33308 11.3539 3.37494 11.3738 3.40869 11.4053C3.68244 11.661 3.58113 12.1838 3.06738 12.5273C2.55363 12.8738 2.32178 12.8042 2.32178 12.8042C2.34803 11.7817 2.95362 11.2847 3.28564 11.3452ZM17.3408 11.4155C17.473 11.4247 17.5532 11.5254 17.5532 11.5254C17.5532 11.5254 17.9061 11.8983 17.5049 12.457C17.1036 13.0158 16.5146 12.9756 16.5146 12.9756C16.5146 12.9756 16.4031 12.5921 16.8193 11.8579C17.0256 11.4889 17.2086 11.4063 17.3408 11.4155ZM12.9727 11.5898C13.1465 11.6089 13.27 11.6748 13.27 11.6748C13.27 11.6748 13.8773 12.1291 13.4048 13.3374C12.9323 14.5426 11.7817 14.0522 11.7817 14.0522C11.7817 14.0522 11.6507 13.6213 12.022 12.4131C12.254 11.6574 12.6829 11.5581 12.9727 11.5898Z" fill="black"/>
</g>
<defs>
<clipPath id="clip0_201_33460">
<rect width="24" height="24" fill="white"/>
</clipPath>
</defs>
</svg>
