<svg width="24" height="24" viewBox="0 0 24 24" fill="none" xmlns="http://www.w3.org/2000/svg">
<path d="M14.1797 3.07031C13.5762 3.07031 12.9492 3.27539 12.4687 3.70312V3.72656L12.4453 3.75L3.67969 12.4453C2.77148 13.3535 2.77734 14.833 3.63281 15.7969L3.65625 15.8203H3.67969L8.17969 20.3203C9.08789 21.2285 10.5674 21.2227 11.5312 20.3672V20.3438L20.25 11.625C21.1992 10.6758 21.2285 9.1582 20.3203 8.25L15.8203 3.75C15.3662 3.2959 14.7832 3.07031 14.1797 3.07031ZM14.1562 4.59375C14.3965 4.59375 14.6191 4.6582 14.7656 4.80469L19.2656 9.30469C19.5557 9.59473 19.5967 10.1689 19.1953 10.5703L15.4219 14.3438L9.67969 8.60156L13.4766 4.82812L13.5 4.80469C13.6904 4.64648 13.9277 4.59375 14.1562 4.59375ZM8.60156 9.67969L14.3437 15.4219L10.5234 19.2422C10.5146 19.248 10.5088 19.2598 10.5 19.2656C10.1133 19.5879 9.51855 19.5498 9.23437 19.2656L4.75781 14.8125C4.74609 14.7979 4.74609 14.7803 4.73437 14.7656C4.42676 14.3789 4.45312 13.7812 4.73437 13.5L8.60156 9.67969Z" fill="black"/>
</svg>
