<svg width="24" height="24" viewBox="0 0 24 24" fill="none" xmlns="http://www.w3.org/2000/svg">
<path d="M1.5 5.25V18.75H4.74023C3.19523 16.7625 2.25 14.13 2.25 11.25C2.25 8.94 3.11309 6.84 4.53809 5.25H1.5ZM12 5.25C11.7375 5.25 11.49 5.28064 11.25 5.34814C9.9525 5.67814 9 6.855 9 8.25H15C15 6.5925 13.6575 5.25 12 5.25ZM19.2451 5.25C20.3476 6.9525 21 9.0225 21 11.25H19.5H18H13.5H12H11.25H9C9 13.8825 9.75 16.1695 11.25 17.272C11.4825 17.452 11.73 17.5945 12 17.707C12.45 17.8945 12.9525 18 13.5 18C15.7275 18 17.6771 16.6355 18.7046 14.603L20.2207 15.3604L21.3896 15.9448C20.8646 16.9948 20.1743 17.94 19.3418 18.75H22.5V16.5V13.5V11.25V5.25H19.2451Z" fill="black"/>
</svg>
