<svg width="24" height="24" viewBox="0 0 24 24" fill="none" xmlns="http://www.w3.org/2000/svg">
<path d="M17.9766 3.75C14.0331 4.203 7.32793 3.9747 4.60693 3.8877V4.82666C6.40693 5.16716 6.8165 5.10384 6.854 6.15234C6.98375 9.01959 6.92 15.3492 6.854 18.0132C6.8405 19.0159 6.28093 18.9818 4.60693 19.311V20.25C10.0804 20.0753 13.837 20.0917 18.1787 20.25C18.2342 19.5562 18.5652 16.7843 18.7002 15.75H17.7759C16.7319 18.2198 16.5304 19.062 14.2939 19.062H11.0068C9.90209 19.062 9.37646 18.6098 9.37646 17.6528V12.5347C11.826 12.5347 12.6167 12.6079 12.6167 12.6079C13.7379 12.6252 13.9125 13.5232 14.25 15H15C14.9205 11.3752 14.838 12.7327 15 9H14.25C13.764 11.0903 13.7322 11.3378 12.6357 11.373C12.6357 11.373 11.5125 11.4833 9.37646 11.4653V5.43457C9.37646 5.20432 9.39472 5.07568 9.77197 5.07568H14.8184C16.0994 5.07568 16.4089 6.7155 16.7959 8.25H17.6997C17.7327 7.58475 17.8648 4.974 17.9766 3.75Z" fill="black"/>
</svg>
