<svg width="24" height="24" viewBox="0 0 24 24" fill="none" xmlns="http://www.w3.org/2000/svg">
<path d="M13.5 3C9.94629 3 7.06055 5.91504 6.23438 9.75H4.5V11.25H6.04688C6.0293 11.4961 6 11.748 6 12C6 12.252 6.0293 12.5039 6.04688 12.75H4.5V14.25H6.23438C7.06055 18.085 9.94629 21 13.5 21C15.5303 21 17.376 20.0215 18.7031 18.4922L17.5547 17.5078C16.4648 18.7646 15.0527 19.5 13.5 19.5C10.8721 19.5 8.55762 17.3262 7.78125 14.25H14.25V12.75H7.52344C7.50293 12.501 7.5 12.2549 7.5 12C7.5 11.7451 7.50293 11.499 7.52344 11.25H14.25V9.75H7.78125C8.55762 6.67383 10.8721 4.5 13.5 4.5C15.0527 4.5 16.4648 5.23535 17.5547 6.49219L18.7031 5.50781C17.376 3.97852 15.5303 3 13.5 3Z" fill="black"/>
</svg>
