<svg width="24" height="24" viewBox="0 0 24 24" fill="none" xmlns="http://www.w3.org/2000/svg">
<path d="M8.98535 2.24419C8.83887 2.24712 8.69531 2.29693 8.57812 2.37896C8.55762 2.39361 8.54004 2.40825 8.52246 2.41997C8.51953 2.4229 8.5166 2.42583 8.5166 2.42583C8.49902 2.44048 8.48437 2.45513 8.46973 2.46978C8.4668 2.47271 8.46387 2.47564 8.46094 2.47857L3.21972 7.71978L3.2168 7.72271C3.21387 7.72564 3.21094 7.72857 3.20801 7.73443C3.0293 7.91314 2.95312 8.17095 3.00586 8.41704C3.01465 9.43072 3.20508 11.3438 3.67383 13.1866C3.91992 14.1534 4.2334 15.0821 4.6875 15.8321C5.11816 16.5469 5.75976 17.1768 6.61816 17.2383C6.6416 17.2442 7.58496 17.4317 8.65137 17.5284C9.19043 17.5782 9.75879 17.6045 10.2891 17.5635C10.8164 17.5225 11.3262 17.4844 11.7803 17.0303C11.8857 16.9249 11.9561 16.793 11.9854 16.6465L12.3047 15.044C12.3281 15.0733 12.3369 15.1055 12.3604 15.1319C12.6035 15.4219 12.9463 15.75 13.5 15.75H16.5V14.25H13.5996C13.5908 14.2442 13.5615 14.2266 13.5088 14.1651C13.3975 14.0333 13.251 13.793 13.1279 13.544C12.8818 13.0459 12.7148 12.5245 12.7148 12.5245C12.6123 12.1963 12.2988 11.9825 11.959 12.003C11.6162 12.0206 11.332 12.2696 11.2646 12.6036L10.585 15.9961C10.5352 16.002 10.4648 16.0459 10.1719 16.0694C9.78808 16.0987 9.27832 16.0782 8.78613 16.0342C7.80469 15.9463 6.89648 15.7647 6.89648 15.7647C6.84961 15.7559 6.7998 15.75 6.75 15.75C6.55371 15.75 6.2959 15.5918 5.9707 15.0586C5.64844 14.5254 5.35254 13.7022 5.12695 12.8174C4.74902 11.335 4.64941 9.93169 4.60254 9.00005H9C9.41308 9.00005 9.75 8.66314 9.75 8.25005V3.75005H11.25C11.7246 3.75005 12.0645 3.99614 12.3428 4.35943C12.6211 4.72271 12.75 5.27056 12.75 5.25005C12.75 5.65435 13.0723 5.98833 13.4766 6.00005C14.1064 6.02056 15.1494 6.05279 16.0664 6.38091C16.9805 6.70611 17.7217 7.23345 18.0234 8.43169C18.3516 9.74712 18.5596 12.9581 18.375 15.7002C18.2842 17.0713 18.0967 18.3458 17.8242 19.2042C17.6895 19.6319 17.5254 19.9542 17.4023 20.1124C17.2764 20.2706 17.2617 20.25 17.25 20.25H15.6416C15.2783 20.25 15 19.9717 15 19.6084C15 19.125 15.375 18.75 15.8584 18.75H16.5V17.25H15.8584C14.5664 17.25 13.5 18.3165 13.5 19.6084C13.5 19.8106 13.5791 20.004 13.7227 20.1446C13.9834 21.0293 14.6748 21.75 15.6416 21.75H17.25C17.8008 21.75 18.2783 21.4249 18.583 21.0381C18.8848 20.6514 19.084 20.1885 19.2539 19.6553C19.5908 18.5918 19.7783 17.2413 19.875 15.7999C20.0654 12.917 19.8984 9.75298 19.4766 8.06841C19.0488 6.35747 17.7861 5.40239 16.5703 4.9688C15.5361 4.59673 14.6426 4.5938 13.9805 4.57036C13.8662 4.19829 13.8252 3.82915 13.5322 3.44536C13.0605 2.83306 12.2754 2.25005 11.25 2.25005H9.1084C9.06738 2.24419 9.02637 2.24126 8.98535 2.24419ZM8.25 4.8106V7.50005H5.56055L8.25 4.8106ZM16.3564 10.5001C15 10.5001 14.9854 11.9327 15 12.0001C16.3564 12.0001 16.7549 12.4952 17.0332 12.7501C17.1592 12.5772 17.71 10.5001 16.3564 10.5001Z" fill="black"/>
</svg>
