<svg width="24" height="24" viewBox="0 0 24 24" fill="none" xmlns="http://www.w3.org/2000/svg">
<path d="M18.4922 2.27344C17.6602 2.27344 16.8252 2.58105 16.1953 3.21094L14.1094 5.32031L13.3594 4.57031L12.3047 5.625L13.0547 6.375L5.92969 13.5C5.15039 14.2793 4.70508 14.8447 4.42969 15.3516C4.1543 15.8584 4.05762 16.3154 4.00781 16.6172C3.95801 16.9189 3.93164 17.083 3.75 17.4141C3.56836 17.7451 3.19922 18.2227 2.46094 18.9609L1.94531 19.5L2.46094 20.0391L3.96094 21.5391L4.5 22.0547L5.03906 21.5391C5.75977 20.8184 6.21973 20.4697 6.53906 20.2969C6.8584 20.124 7.02832 20.0918 7.33594 20.0391C7.64355 19.9863 8.08594 19.9014 8.60156 19.6172C9.11719 19.333 9.70312 18.8672 10.5 18.0703L17.625 10.9453L18.375 11.6953L19.4297 10.6406L18.6797 9.89062L20.7891 7.80469C22.0488 6.54492 22.0488 4.4707 20.7891 3.21094C20.1592 2.58105 19.3242 2.27344 18.4922 2.27344ZM18.4922 3.77344C18.9346 3.77344 19.3652 3.94336 19.7109 4.28906C20.3994 4.97754 20.3994 6.06152 19.7109 6.75L17.625 8.83594L15.1641 6.375L17.25 4.28906C17.5957 3.94336 18.0498 3.77344 18.4922 3.77344ZM14.1094 7.42969L16.5703 9.89062L9.44531 17.0156C8.70703 17.7539 8.20605 18.123 7.875 18.3047C7.54395 18.4863 7.37988 18.5127 7.07812 18.5625C6.77637 18.6123 6.34277 18.6855 5.83594 18.9609C5.49023 19.1484 5.02148 19.5967 4.57031 19.9922L4.00781 19.4297C4.41797 18.9668 4.86914 18.4922 5.0625 18.1406C5.34668 17.625 5.43164 17.1592 5.48438 16.8516C5.53711 16.5439 5.56934 16.3975 5.74219 16.0781C5.91504 15.7588 6.26367 15.2754 6.98438 14.5547L14.1094 7.42969Z" fill="black"/>
</svg>
