<svg width="24" height="24" viewBox="0 0 24 24" fill="none" xmlns="http://www.w3.org/2000/svg">
<path d="M12 1.5L1.5 12L12 22.5L22.5 12L12 1.5ZM12 3.00732L21 12L12 21L3 12L12 3.00732ZM12 4.5L4.5 12L12 19.5L19.5 12L12 4.5ZM12.2329 7.50732C12.7413 7.54521 13.2228 7.73505 13.6509 8.05371C14.4826 8.67396 15.7543 10.0518 15.7603 10.0518C15.779 10.0765 15.798 10.1502 15.7793 10.1689C15.3945 10.5724 15.01 10.9694 14.644 11.3481C13.4838 10.2501 13.2662 10.0445 12.9932 9.85254C12.3909 9.42429 11.5912 9.51161 11.064 10.0269C10.9897 10.1011 11.0017 10.1448 11.064 10.207C11.163 10.3128 12.0186 11.1679 12.2549 11.4229C11.8514 11.8196 11.4544 12.2046 11.0449 12.6021C10.6354 12.1738 10.2137 11.7339 9.8042 11.3057C9.0782 12.0257 8.38979 12.7027 7.70654 13.3784C7.24079 12.9194 6.77483 12.4531 6.30908 11.9941C6.37733 11.9259 6.71269 11.5785 9.58594 8.68652C10.4625 7.80246 11.3856 7.44418 12.2329 7.50732ZM16.3008 10.6421C16.7665 11.0951 17.2259 11.5425 17.6909 12.0015C17.0084 12.7087 14.9176 14.8063 14.2778 15.4453C13.0733 16.6423 11.6275 16.7351 10.6465 16.1396C9.89573 15.6806 9.3124 15.0467 8.1709 13.8677C8.5804 13.4454 8.97825 13.0436 9.375 12.6401C10.4917 13.7201 10.6286 13.8561 10.8896 14.0669C11.5166 14.5634 12.3345 14.5266 12.9053 14.0054C13.029 13.8876 13.029 13.8808 12.9053 13.7563C12.5453 13.3963 12.1863 13.031 11.833 12.665C11.7835 12.6215 11.7272 12.584 11.8022 12.5098C12.1682 12.1438 12.5336 11.7771 12.8936 11.4111C12.9063 11.4051 12.9189 11.3978 12.9624 11.373C13.3779 11.8133 13.8059 12.2557 14.2222 12.6899C14.9354 11.9887 15.6243 11.3118 16.3008 10.6421Z" fill="black"/>
</svg>
