<svg width="24" height="24" viewBox="0 0 24 24" fill="none" xmlns="http://www.w3.org/2000/svg">
<path d="M20.25 3C13.6477 3 10.3489 6.59596 8.76416 8.32471L6.47754 10.6318C5.20179 11.9061 4.5 13.6005 4.5 15.4043V16.5L6.02051 14.9795C6.11951 13.7375 6.64716 12.5818 7.53516 11.6938L9.87012 9.33838C11.2471 7.83688 14.0465 4.78383 19.481 4.51758C19.3149 7.90855 18.0644 10.2726 16.7827 11.9062L14.25 12.75H16.0635C15.5427 13.3173 15.0499 13.7738 14.6616 14.1299L13.9263 14.8579L11.25 15.75H13.0254L12.3076 16.4604C11.3161 17.4519 9.9982 17.9985 8.5957 17.9985H7.06201L14.0303 11.0303L12.9697 9.96973L3 19.9395L4.06055 21L5.56201 19.4985H8.5957C10.3987 19.4985 12.0938 18.7961 13.3711 17.5181L15.6738 15.2344C17.4026 13.6511 21 10.353 21 3.75V3H20.25Z" fill="black"/>
</svg>
