<svg width="24" height="24" viewBox="0 0 24 24" fill="none" xmlns="http://www.w3.org/2000/svg">
<path d="M16.125 3C14.7735 3 13.5157 3.54411 12.5977 4.51611L6.47754 10.6318C5.20254 11.9061 4.5 13.6005 4.5 15.4043V16.5L6.02051 14.9795C6.11951 13.7375 6.64784 12.5826 7.53809 11.6924L13.6729 5.56055C14.3194 4.8758 15.1905 4.5 16.125 4.5C17.9858 4.5 19.5 6.01425 19.5 7.875C19.5 8.8095 19.1238 9.67955 18.4233 10.3418L16.8999 11.8667L14.25 12.75H16.0166L13.1528 15.6152L10.5 16.5H12.2651C11.2784 17.466 9.97907 18 8.5957 18H7.06055L14.0303 11.0303L12.9697 9.96973L3 19.9395L4.06055 21L5.56055 19.5H8.5957C10.3987 19.5 12.0939 18.7982 13.3682 17.5225L19.4678 11.417C20.4563 10.484 21 9.2265 21 7.875C21 5.187 18.813 3 16.125 3Z" fill="black"/>
</svg>
