<svg width="24" height="24" viewBox="0 0 24 24" fill="none" xmlns="http://www.w3.org/2000/svg">
<path d="M12 1.5C10.3506 1.5 9 2.85059 9 4.5C9 5.34668 9.36621 6.1084 9.9375 6.65625C9.75879 6.78516 9.59473 6.91992 9.44531 7.07812C8.81543 7.74609 8.42285 8.63672 8.25 9.60938H8.27344L6.77344 17.1094L6.58594 18H9.75V22.5H11.25V18H12.75V22.5H14.25V18H17.4141L17.2266 17.1094L15.7266 9.60938C15.5537 8.68359 15.1787 7.80176 14.5547 7.125C14.3994 6.95508 14.2266 6.79395 14.0391 6.65625C14.6191 6.1084 15 5.35254 15 4.5C15 2.85059 13.6494 1.5 12 1.5ZM12 3C12.8379 3 13.5 3.66211 13.5 4.5C13.5 5.33789 12.8379 6 12 6C11.1621 6 10.5 5.33789 10.5 4.5C10.5 3.66211 11.1621 3 12 3ZM12 7.5C12.6211 7.5 13.0664 7.7373 13.4531 8.15625C13.8398 8.5752 14.1445 9.19629 14.2734 9.89062L15.5859 16.5H8.41406L9.72656 9.89062H9.75C9.88184 9.14062 10.1689 8.51074 10.5469 8.10938C10.9248 7.70801 11.3643 7.5 12 7.5Z" fill="black"/>
</svg>
