<svg width="24" height="24" viewBox="0 0 24 24" fill="none" xmlns="http://www.w3.org/2000/svg">
<path d="M5.90625 3L6.65625 9.75H6.02344L4.73438 7.82812L4.52344 7.5H1.33594L1.52344 8.39062L2.25 12L1.52344 15.6094L1.33594 16.5H4.52344L4.73438 16.1719L6.02344 14.25H6.65625L5.90625 21H8.55469L8.78906 20.7891L15.3281 14.25H19.5C20.3672 14.25 20.9209 13.7461 21.4219 13.3359C21.9229 12.9258 22.2891 12.5156 22.2891 12.5156L22.7812 12L22.2891 11.4844C22.2891 11.4844 21.9229 11.0742 21.4219 10.6641C20.9209 10.2539 20.3672 9.75 19.5 9.75H15.3281L8.78906 3.21094L8.55469 3H5.90625ZM7.59375 4.5H7.92188L14.4609 11.0391L14.6953 11.25H19.5C19.4619 11.25 20.0449 11.4961 20.4609 11.8359C20.5635 11.9209 20.5605 11.9209 20.6484 12C20.5605 12.0791 20.5635 12.0791 20.4609 12.1641C20.0449 12.5039 19.4619 12.75 19.5 12.75H14.6953L14.4609 12.9609L7.92188 19.5H7.59375L8.34375 12.75H5.20312L4.99219 13.0781L3.70312 15H3.16406L3.72656 12.1406L3.77344 12L3.72656 11.8594L3.16406 9H3.70312L4.99219 10.9219L5.20312 11.25H8.34375L7.59375 4.5ZM12 5.25L13.5 6.75H15L15.75 6L15 5.25H12ZM13.5 17.25L12 18.75H15L15.75 18L15 17.25H13.5Z" fill="black"/>
</svg>
