<svg width="24" height="24" viewBox="0 0 24 24" fill="none" xmlns="http://www.w3.org/2000/svg">
<path d="M4.5 2.25V7.5H6V3.75H18V7.5H19.5V2.25H4.5ZM7.125 9C6.08789 9 5.25 9.83789 5.25 10.875V13.125C5.25 14.1621 6.08789 15 7.125 15C8.16211 15 9 14.1621 9 13.125V12.75H7.5V13.125C7.5 13.2861 7.28613 13.5 7.125 13.5C6.96387 13.5 6.75 13.2861 6.75 13.125V10.875C6.75 10.7139 6.96387 10.5 7.125 10.5C7.28613 10.5 7.5 10.7139 7.5 10.875V11.25H9V10.875C9 9.83789 8.16211 9 7.125 9ZM11.625 9C10.5879 9 9.75 9.83789 9.75 10.875C9.75 11.9121 10.5879 12.75 11.625 12.75C11.7861 12.75 12 12.9639 12 13.125C12 13.3506 11.9121 13.5 11.625 13.5C11.3496 13.5 11.3057 13.4414 11.2969 13.4297C11.2881 13.418 11.25 13.3711 11.25 13.1953H9.75C9.75 13.6201 9.87305 14.0977 10.2188 14.4609C10.5645 14.8242 11.0771 15 11.625 15C12.6885 15 13.5 14.1006 13.5 13.125C13.5 12.0879 12.6621 11.25 11.625 11.25C11.4639 11.25 11.25 11.0361 11.25 10.875C11.25 10.7139 11.4639 10.5 11.625 10.5C11.8242 10.5 11.8857 10.5469 11.9297 10.5938C11.9736 10.6406 12 10.7197 12 10.8047H13.5C13.5 10.3623 13.3389 9.91113 13.0078 9.5625C12.6768 9.21387 12.1758 9 11.625 9ZM14.25 9V9.86719L14.2969 9.98438L15.7969 14.4844L16.5 16.6172L17.2031 14.4844L18.7031 9.98438L18.75 9.86719V9H17.25V9.65625L16.5 11.9062L15.75 9.65625V9H14.25ZM4.5 16.5V21.75H19.5V16.5H18V20.25H6V16.5H4.5Z" fill="black"/>
</svg>
