<svg width="24" height="24" viewBox="0 0 24 24" fill="none" xmlns="http://www.w3.org/2000/svg">
<path d="M4.5 2.25V21.75H19.5V2.25H4.5ZM6 3.75H18V20.25H6V3.75ZM13.5 9V13.875C13.5 14.0361 13.2861 14.25 13.125 14.25C13.0928 14.25 13.1396 14.2852 13.0781 14.2031C13.0166 14.1211 12.9229 13.9131 12.8672 13.6875C12.7559 13.2393 12.75 12.75 12.75 12.75V11.25H11.25V14.625C11.25 14.7861 11.0361 15 10.875 15C10.7139 15 10.5 14.7861 10.5 14.625V9.75H7.5V11.25H9V14.625C9 15.6621 9.83789 16.5 10.875 16.5C11.6133 16.5 12.1406 16.0166 12.4453 15.3984C12.6709 15.5391 12.835 15.75 13.125 15.75C14.1621 15.75 15 14.9121 15 13.875V10.5H16.5V9H13.5Z" fill="black"/>
</svg>
