<svg width="24" height="24" viewBox="0 0 24 24" fill="none" xmlns="http://www.w3.org/2000/svg">
<path d="M4.5 2.25V21.75H19.5V7.19971L19.2744 6.97559L14.7744 2.47559L14.5503 2.25H4.5ZM6 3.75H13.5V8.25H18V20.25H6V3.75ZM15 4.80029L16.9497 6.75H15V4.80029ZM7.5 6.75V8.25H12V6.75H7.5ZM7.5 9.75V11.25H16.5V9.75H7.5ZM10.125 12C9.45 12 8.925 12.4506 8.625 12.9756C8.325 13.5006 8.25 14.1753 8.25 14.9253C8.25 15.3753 8.40059 15.8244 8.47559 16.2744C8.17559 16.3494 7.875 16.5747 7.5 16.5747V18.0747C8.025 18.0747 8.55 18.0006 9 17.8506C9.075 18.0006 9.07559 18.0756 9.22559 18.2256C9.52559 18.5256 9.975 18.75 10.5 18.75C11.7 18.75 12.4506 17.9247 12.9756 17.3247C13.0506 17.1747 13.1247 17.0994 13.1997 17.0244C13.1997 17.0994 13.1994 17.175 13.2744 17.25C13.3494 17.4 13.4247 17.5497 13.5747 17.6997C13.7247 17.8497 14.025 18 14.25 18C14.7 18 14.9994 17.7003 15.1494 17.5503C15.2994 17.4003 15.4506 17.1744 15.6006 17.0244C15.9006 16.7244 16.1253 16.5 16.4253 16.5V15C15.5253 15 14.8506 15.5256 14.4756 15.9756C14.4756 15.9006 14.4744 15.825 14.3994 15.75C14.3244 15.6 14.2506 15.4506 14.1006 15.2256C13.9506 15.0006 13.725 15 13.5 15C12.9 15 12.6747 15.3756 12.4497 15.6006C12.2247 15.8256 12.0006 16.1253 11.8506 16.4253C11.4006 16.9503 11.1 17.25 10.5 17.25C10.425 17.25 10.4256 17.1753 10.3506 17.1753C10.4256 17.1753 10.425 17.1006 10.5 17.1006C11.325 16.4256 12 15.5247 12 14.3247C12 13.7247 11.8503 13.2 11.5503 12.75C11.2503 12.3 10.725 12 10.125 12ZM10.0503 13.5C10.2753 13.5 10.2756 13.4994 10.3506 13.6494C10.4256 13.7994 10.5 14.0244 10.5 14.3994C10.5 14.8494 10.2744 15.3003 9.89941 15.6753C9.89941 15.4503 9.75 15.15 9.75 15C9.75 14.4 9.82559 13.9506 9.97559 13.7256C10.0506 13.5756 10.0503 13.5 10.0503 13.5Z" fill="black"/>
</svg>
