<svg width="24" height="24" viewBox="0 0 24 24" fill="none" xmlns="http://www.w3.org/2000/svg">
<path d="M4.5 2.25V21.75H19.5V7.19971L19.2744 6.97559L14.7744 2.47559L14.5503 2.25H4.5ZM6 3.75H13.5V8.25H18V20.25H6V3.75ZM15 4.80029L16.9497 6.75H15V4.80029ZM9.75 9.75V11.25H12.75C13.65 11.25 14.25 11.85 14.25 12.75C14.25 13.65 13.65 14.25 12.75 14.25C11.85 14.25 11.25 13.65 11.25 12.75H9.75V18H11.25V15.3003C11.7 15.6003 12.225 15.75 12.75 15.75C14.4 15.75 15.75 14.4 15.75 12.75C15.75 11.1 14.4 9.75 12.75 9.75H9.75Z" fill="black"/>
</svg>
