<svg width="24" height="24" viewBox="0 0 24 24" fill="none" xmlns="http://www.w3.org/2000/svg">
<path d="M4.5 2.25V21.75H19.5V7.19531L19.2891 6.96094L14.7891 2.46094L14.5547 2.25H4.5ZM6 3.75H13.5V8.25H18V20.25H6V3.75ZM15 4.82812L16.9219 6.75H15V4.82812ZM12 9.75L10.5 18.75H12L13.5 9.75H12ZM9.16406 11.5312L7.28906 13.7812L6.89062 14.25L7.28906 14.7188L9.16406 16.9688L10.3359 16.0312L8.85938 14.25L10.3359 12.4688L9.16406 11.5312ZM14.8359 11.5312L13.6641 12.4688L15.1406 14.25L13.6641 16.0312L14.8359 16.9688L16.7109 14.7188L17.1094 14.25L16.7109 13.7812L14.8359 11.5312Z" fill="black"/>
</svg>
