<svg width="24" height="24" viewBox="0 0 24 24" fill="none" xmlns="http://www.w3.org/2000/svg">
<path d="M4.5 2.25V10.5H5.52539L6 9.31494V3.75H13.5V8.25H18V20.25H6V15.9346L5.96045 15.895L5.06689 15H4.5V21.75H19.5V7.19531L19.2891 6.96094L14.7891 2.46094L14.5547 2.25H4.5ZM15 4.82812L16.9219 6.75H15V4.82812ZM8.22656 7.79004L6.47461 12.1641L6.31055 12H1.5V13.5H5.68945L7.02246 14.8359L8.27344 11.71L10.5234 16.96L12.0762 13.0781L12.2871 13.5H13.7021C13.9714 13.9628 14.4645 14.25 15 14.25C15.8287 14.25 16.5 13.5787 16.5 12.75C16.5 11.9213 15.8287 11.25 15 11.25C14.4637 11.25 13.9684 11.5372 13.7021 12H13.2129L11.9238 9.42188L10.4766 13.04L8.22656 7.79004Z" fill="black"/>
</svg>
