<svg width="24" height="24" viewBox="0 0 24 24" fill="none" xmlns="http://www.w3.org/2000/svg">
<path d="M4.5 2.25V21.75H19.5V7.19531L19.2891 6.96094L14.7891 2.46094L14.5547 2.25H4.5ZM6 3.75H13.5V8.25H18V20.25H6V3.75ZM15 4.82812L16.9219 6.75H15V4.82812ZM15.8203 10.5C15.4072 10.5 15.0703 10.8369 15.0703 11.25C15.0703 11.6631 15.4072 12 15.8203 12C16.2334 12 16.5703 11.6631 16.5703 11.25C16.5703 10.8369 16.2334 10.5 15.8203 10.5ZM10.5 11.6953L9.96094 12.2109L6.96094 15.2109L8.03906 16.2891L10.5 13.8281L12.2109 15.5391L12.75 16.0547L13.2891 15.5391L14.25 14.5781L15.9609 16.2891L17.0391 15.2109L14.7891 12.9609L14.25 12.4453L13.7109 12.9609L12.75 13.9219L11.0391 12.2109L10.5 11.6953Z" fill="black"/>
</svg>
