<svg width="24" height="24" viewBox="0 0 24 24" fill="none" xmlns="http://www.w3.org/2000/svg">
<path d="M8.4756 2.47559L7.42531 3.52441L8.77443 4.875L3.6006 10.0503C2.7006 10.9503 2.7006 12.3744 3.6006 13.2744L3.67531 13.3506L8.39943 18.0747C9.29943 18.9747 10.725 18.9747 11.625 18.0747L17.3247 12.375L17.8506 11.8506L10.5747 4.57471L9.9756 3.97559L9.82472 3.82471L8.4756 2.47559ZM9.82472 5.92529L15.75 11.8506L14.1006 13.5H5.92384L4.64943 12.2256C4.34943 11.9256 4.34943 11.4006 4.64943 11.1006L9.82472 5.92529ZM18.75 14.4756L18.1494 15.375C18.1494 15.375 17.7747 15.9744 17.3247 16.6494C17.0997 17.0244 16.9503 17.3247 16.8003 17.6997C16.6503 18.0747 16.5 18.3 16.5 18.75C16.5 19.95 17.55 21 18.75 21C19.95 21 21 19.95 21 18.75C21 18.3 20.8497 18 20.6997 17.625C20.5497 17.25 20.3253 16.8747 20.1753 16.5747C19.8003 15.8997 19.3506 15.3003 19.3506 15.3003L18.75 14.4756Z" fill="black"/>
</svg>
