<svg width="24" height="24" viewBox="0 0 24 24" fill="none" xmlns="http://www.w3.org/2000/svg">
<path d="M10.7812 2.25L10.6406 2.83594C10.415 3.84668 8.96484 5.51074 7.47656 7.54688C5.98828 9.58301 4.5 12.1201 4.5 15.3047C4.5 16.8076 4.95996 18.4131 6.09375 19.6641C7.22754 20.915 9.03516 21.75 11.4844 21.75C11.5928 21.75 11.6836 21.7295 11.7891 21.7266C11.8594 21.7295 11.9268 21.75 12 21.75C12.2285 21.75 12.4424 21.7236 12.6562 21.7031C12.7207 21.6973 12.7793 21.6855 12.8438 21.6797C15.3545 21.4717 17.0215 20.6982 18.0469 19.5469C19.251 18.1963 19.5 16.4824 19.5 15C19.5 11.6514 17.5723 8.53711 15.7031 6.23438C13.834 3.93164 11.9531 2.41406 11.9531 2.41406L11.7422 2.25H10.7812ZM11.625 4.125C12.2314 4.6582 13.2539 5.62207 14.5312 7.19531C16.2949 9.36914 18 12.249 18 15C18 16.3154 17.7686 17.5898 16.9219 18.5391C16.7402 18.7441 16.5205 18.9434 16.2656 19.125C16.6699 17.9561 16.582 16.626 16.3125 15.3047C16.0049 13.7959 15.4219 12.2812 14.8594 11.0625C14.2969 9.84375 13.8164 8.98242 13.4062 8.50781L13.1953 8.25H11.7422L12.0234 9.21094C12.8086 11.7627 12.3955 13.5 11.9531 14.0156C11.7334 14.2734 11.6367 14.2969 11.4141 14.2266C11.1914 14.1562 10.79 13.8662 10.4062 13.1484L9.84375 12.0938L9.14062 13.0547C7.7373 14.9443 7.19824 17.0156 7.66406 18.75C7.70508 18.9023 7.76953 19.0518 7.82812 19.1953C7.60547 19.0254 7.39746 18.8525 7.21875 18.6562C6.38086 17.7334 6 16.5 6 15.3047C6 12.5889 7.27734 10.377 8.69531 8.4375C9.84961 6.8584 10.9746 5.52539 11.625 4.125ZM13.9219 12.9141C14.2705 13.7959 14.6484 14.6865 14.8359 15.6094C15.1084 16.9512 15.1025 18.1787 14.7188 18.9609C14.4316 19.5469 13.9863 19.9775 13.0781 20.1562C12.9785 20.1768 12.8613 20.1885 12.75 20.2031C12.5156 20.2236 12.2578 20.2412 12 20.25C11.9326 20.25 11.877 20.2529 11.8125 20.25C10.1895 20.1973 9.41016 19.4736 9.11719 18.375C8.87402 17.4697 9.19043 16.207 9.86719 14.9297C10.2012 15.2754 10.5557 15.5273 10.9688 15.6562C11.7334 15.8965 12.5859 15.6035 13.1016 15C13.5439 14.4814 13.8047 13.7637 13.9219 12.9141Z" fill="black"/>
</svg>
