<svg width="24" height="24" viewBox="0 0 24 24" fill="none" xmlns="http://www.w3.org/2000/svg">
<path d="M12 1.5L3 6.75V17.25L12 22.5L21 17.25V6.75L12 1.5ZM12 2.25L20.25 7.11621V16.8662L12 21.75L3.75 16.8662V7.11621L12 2.25ZM12 3L4.5 7.5V16.5L12 21L19.5 16.5V7.5L12 3ZM12 5.21045C15.717 5.21045 18.75 8.24325 18.75 12C18.75 15.741 15.717 18.7822 12 18.7822C8.2665 18.7822 5.25 15.741 5.25 12C5.25 8.24325 8.2665 5.21045 12 5.21045ZM12.0015 6C11.7345 6 11.4516 6.02184 11.1929 6.05859L11.3335 8.5957L10.5029 6.18457C9.96893 6.32557 9.46432 6.54142 8.99707 6.81592L10.1104 9.13037L8.41113 7.2085C7.98063 7.54225 7.58766 7.9283 7.25391 8.37305L9.15967 10.0869L6.86133 8.96631C6.59433 9.42606 6.3708 9.93067 6.2373 10.4722L8.65576 11.3247L6.09668 11.1694C6.05993 11.4364 6.04541 11.718 6.04541 12C6.04541 12.282 6.06814 12.5489 6.09814 12.8159L8.64844 12.668L6.23877 13.5205C6.37227 14.0545 6.58683 14.5589 6.86133 15.0337L9.16113 13.9131L7.24658 15.6182C7.57958 16.0562 7.96638 16.4566 8.41113 16.7754L10.103 14.8623L8.98975 17.1768C9.4495 17.4505 9.95411 17.6655 10.4956 17.814L11.3335 15.3823L11.1841 17.9414C11.4511 17.9782 11.7345 18 12.0015 18C12.2827 18 12.5497 17.9774 12.8159 17.9399L12.6665 15.3516L13.519 17.8066C14.053 17.6589 14.5577 17.4514 15.0249 17.1694L13.9131 14.8623L15.6035 16.7754C16.049 16.4416 16.4345 16.0554 16.7607 15.6182L14.855 13.9131L17.1548 15.0249C17.4218 14.5577 17.6438 14.0549 17.7773 13.5059L15.3677 12.668L17.9121 12.8159C17.9489 12.5489 17.9634 12.282 17.9634 12C17.9634 11.718 17.9489 11.4364 17.9121 11.1694L15.3604 11.3247L17.77 10.4795C17.629 9.94549 17.4295 9.42606 17.1475 8.96631L14.8491 10.0854L16.7549 8.37305C16.4211 7.93505 16.0355 7.54225 15.605 7.2085L13.9072 9.12891L15.0117 6.82324C14.552 6.54949 14.0474 6.33307 13.5059 6.18457L12.668 8.61035L12.8174 6.05859C12.5504 6.01434 12.2835 6 12.0015 6Z" fill="black"/>
</svg>
