<svg width="24" height="24" viewBox="0 0 24 24" fill="none" xmlns="http://www.w3.org/2000/svg">
<path d="M7.875 4.5L8.29688 5.53125C8.56055 6.17285 8.91797 7.77539 8.83594 8.53125C7.81348 9.16113 7.18652 9.77637 6.70312 10.2891C6.11133 9.81152 4.94238 9 3 9H2.25V9.75C2.25 11.1855 2.76855 12.3516 2.95312 12.75C2.76562 13.1455 2.25 14.2705 2.25 15.75V16.5H3C4.92773 16.5 6.11133 15.6855 6.70312 15.2109C7.59082 16.125 8.85645 17.0889 10.4531 17.8125C10.3828 18.2783 10.3271 18.9287 10.5234 19.6875L10.6641 20.25H11.25C12.1758 20.25 12.9727 19.79 13.6172 19.3828C14.1445 19.0488 14.3994 18.8145 14.5312 18.7031C17.5137 18.5977 19.418 16.9893 20.4375 15.3984C21.4922 13.7549 21.75 12.1172 21.75 12.1172L21.7734 11.9297L21.7031 11.7422C21.7031 11.7422 19.9863 7.02539 15.3281 6.79688C14.833 6.19629 14.1416 5.69824 13.1719 5.29688C12.0264 4.82227 10.585 4.5 9 4.5H7.875ZM10.0547 6.09375C11.001 6.19922 11.8857 6.38965 12.5859 6.67969C13.5439 7.0752 14.2119 7.64355 14.3672 7.89844L14.5781 8.25H15C18.7471 8.25 20.0947 11.7979 20.2031 12.0938C20.1504 12.3691 19.9336 13.415 19.1719 14.6016C18.3018 15.958 16.8926 17.25 14.25 17.25H13.9688L13.7578 17.4375C13.7578 17.4375 13.3623 17.7744 12.8203 18.1172C12.5361 18.2959 12.293 18.3281 12 18.4453C12.0293 18.1025 12 17.6016 12 17.6016L12.1641 16.9453L11.5547 16.7344C9.69727 16.0254 8.11816 14.6895 7.3125 13.7578L6.79688 13.1484L6.23438 13.7109C6.23438 13.7109 5.23535 14.4111 3.9375 14.7422C4.13086 13.8633 4.42969 13.0781 4.42969 13.0781L4.59375 12.75L4.42969 12.4219C4.42969 12.4219 4.10449 11.5605 3.91406 10.6406C5.29688 10.9453 6.23438 11.7891 6.23438 11.7891L6.79688 12.3516L7.3125 11.7422C7.9834 10.9834 9.79102 9.09375 12.4453 8.74219L12.2344 7.26562C11.5166 7.35938 10.8896 7.56738 10.2891 7.80469C10.251 7.1748 10.2188 6.63281 10.0547 6.09375ZM16.875 11.25C16.2539 11.25 15.75 11.7539 15.75 12.375C15.75 12.9961 16.2539 13.5 16.875 13.5C17.4961 13.5 18 12.9961 18 12.375C18 11.7539 17.4961 11.25 16.875 11.25Z" fill="black"/>
</svg>
