<svg width="24" height="24" viewBox="0 0 24 24" fill="none" xmlns="http://www.w3.org/2000/svg">
<path d="M12 4.5C11.2031 4.5 10.5029 4.92188 10.1016 5.55469C9.77343 5.36719 9.40136 5.25 8.99999 5.25C7.76659 5.25 6.74999 6.2666 6.74999 7.5V10.2422L6.65624 10.3594C6.60058 10.4238 6.54784 10.4824 6.49218 10.5469C6.10839 10.9951 5.74218 11.4697 5.41405 11.9531L5.17968 12.2578C4.86034 12.6709 4.66405 13.1514 4.5703 13.6406C4.55858 13.6963 4.53222 13.749 4.52343 13.8047C4.39159 14.7393 4.66991 15.7119 5.3203 16.4531L7.10155 18.4688C8.09765 19.6025 9.53026 20.25 11.0391 20.25H15C17.8916 20.25 20.25 17.8916 20.25 15V8.25C20.25 7.0166 19.2334 6 18 6C17.5986 6 17.2266 6.11719 16.8984 6.30469C16.4971 5.67188 15.7969 5.25 15 5.25C14.5986 5.25 14.2266 5.36719 13.8984 5.55469C13.4971 4.92188 12.7969 4.5 12 4.5ZM12 6C12.4248 6 12.75 6.3252 12.75 6.75V8.39062C12.5127 8.30566 12.2637 8.25 12 8.25H11.25V6.75C11.25 6.3252 11.5752 6 12 6ZM8.99999 6.75C9.42479 6.75 9.74999 7.0752 9.74999 7.5V8.25H8.6953L8.48436 8.46094C8.48436 8.46094 8.31444 8.63379 8.24999 8.69531V7.5C8.24999 7.0752 8.57519 6.75 8.99999 6.75ZM15 6.75C15.4248 6.75 15.75 7.0752 15.75 7.5V9.75C15.75 10.1748 15.4248 10.5 15 10.5C14.5752 10.5 14.25 10.1748 14.25 9.75V7.5C14.25 7.0752 14.5752 6.75 15 6.75ZM18 7.5C18.4248 7.5 18.75 7.8252 18.75 8.25V9.75C18.75 10.1748 18.4248 10.5 18 10.5C17.5752 10.5 17.25 10.1748 17.25 9.75V8.25C17.25 7.8252 17.5752 7.5 18 7.5ZM9.32811 9.75H12C12.4219 9.75 12.75 10.0781 12.75 10.5C12.75 10.9219 12.4219 11.25 12 11.25H9.65624L9.4453 11.5312L7.68749 13.7578L8.85936 14.6953L10.2422 12.9609C10.5117 13.0869 10.8193 13.2744 11.1562 13.5469C11.956 14.1973 12.75 15.2607 12.75 17.25H14.25C14.25 15.0996 13.3916 13.6172 12.4453 12.7031C13.0517 12.5771 13.5762 12.2051 13.8984 11.6953C14.2266 11.8828 14.5986 12 15 12C15.5742 12 16.1016 11.7744 16.5 11.4141C16.8984 11.7744 17.4258 12 18 12C18.2637 12 18.5127 11.9443 18.75 11.8594V15C18.75 17.0801 17.0801 18.75 15 18.75H11.0391C9.96093 18.75 8.93847 18.2959 8.22655 17.4844L6.4453 15.4453C6.12304 15.0791 5.97362 14.6309 5.99999 14.1797C5.99999 14.1738 6.0205 14.124 6.02343 14.1094C6.02636 14.0859 6.0205 14.0625 6.02343 14.0391C6.05858 13.875 6.17284 13.5586 6.42186 13.1484C6.45409 13.0957 6.5039 13.0371 6.53905 12.9844L7.64061 11.5312C8.46972 10.5615 9.16112 9.9082 9.32811 9.75Z" fill="black"/>
</svg>
