<svg width="24" height="24" viewBox="0 0 24 24" fill="none" xmlns="http://www.w3.org/2000/svg">
<path d="M12.75 0C12.3369 0 12 0.336914 12 0.75C12 1.16309 12.3369 1.5 12.75 1.5C13.1631 1.5 13.5 1.16309 13.5 0.75C13.5 0.336914 13.1631 0 12.75 0ZM10.5 2.25C10.0869 2.25 9.75 2.58691 9.75 3H7.5V4.5H8.25V10.2422L3.63281 16.1953C3.22559 16.7197 3 17.3613 3 18.0234C3 19.6611 4.33887 21 5.97656 21H18.0234C19.6611 21 21 19.6611 21 18.0234C21 17.3613 20.7744 16.7197 20.3672 16.1953L15.75 10.2422V4.5H16.5V3H11.25C11.25 2.58691 10.9131 2.25 10.5 2.25ZM9.75 4.5H14.25V10.7578L16.3828 13.5H7.61719L9.75 10.7578V4.5ZM12.75 7.5C12.3369 7.5 12 7.83691 12 8.25C12 8.66309 12.3369 9 12.75 9C13.1631 9 13.5 8.66309 13.5 8.25C13.5 7.83691 13.1631 7.5 12.75 7.5ZM6.44531 15H17.5547L19.1953 17.1094C19.3975 17.3701 19.5 17.6953 19.5 18.0234C19.5 18.8525 18.8525 19.5 18.0234 19.5H5.97656C5.14746 19.5 4.5 18.8525 4.5 18.0234C4.5 17.6953 4.60254 17.3701 4.80469 17.1094L6.44531 15Z" fill="black"/>
</svg>
