<svg width="24" height="24" viewBox="0 0 24 24" fill="none" xmlns="http://www.w3.org/2000/svg">
<path d="M6 3.75C4.7666 3.75 3.75 4.7666 3.75 6V18C3.75 19.2334 4.7666 20.25 6 20.25H18C19.2334 20.25 20.25 19.2334 20.25 18V6C20.25 4.7666 19.2334 3.75 18 3.75H6ZM6 5.25H18C18.4248 5.25 18.75 5.5752 18.75 6V18C18.75 18.4248 18.4248 18.75 18 18.75H6C5.5752 18.75 5.25 18.4248 5.25 18V6C5.25 5.5752 5.5752 5.25 6 5.25ZM8.625 9.375C7.1748 9.375 6 10.5498 6 12C6 13.4502 7.1748 14.625 8.625 14.625C10.0752 14.625 11.25 13.4502 11.25 12C11.25 10.5498 10.0752 9.375 8.625 9.375ZM15.375 9.375C13.9248 9.375 12.75 10.5498 12.75 12C12.75 13.4502 13.9248 14.625 15.375 14.625C16.8252 14.625 18 13.4502 18 12C18 10.5498 16.8252 9.375 15.375 9.375Z" fill="black"/>
</svg>
