<svg width="24" height="24" viewBox="0 0 24 24" fill="none" xmlns="http://www.w3.org/2000/svg">
<path d="M12 2.25C6.624 2.25 2.25 6.624 2.25 12C2.25 17.376 6.624 21.75 12 21.75C17.376 21.75 21.75 17.376 21.75 12C21.75 6.624 17.376 2.25 12 2.25ZM12 3.75C16.5487 3.75 20.25 7.45125 20.25 12C20.25 16.5487 16.5487 20.25 12 20.25C7.45125 20.25 3.75 16.5487 3.75 12C3.75 7.45125 7.45125 3.75 12 3.75ZM8.625 6C6.35025 6 4.5 7.85025 4.5 10.125C4.5 12.3997 6.35025 14.25 8.625 14.25C10.0205 14.25 11.2532 13.5513 12 12.4878C12.7468 13.5513 13.9795 14.25 15.375 14.25C17.6497 14.25 19.5 12.3997 19.5 10.125C19.5 7.85025 17.6497 6 15.375 6C13.9795 6 12.7468 6.69874 12 7.76221C11.2532 6.69874 10.0205 6 8.625 6ZM8.625 7.5C10.0725 7.5 11.25 8.6775 11.25 10.125C11.25 11.5725 10.0725 12.75 8.625 12.75C7.1775 12.75 6 11.5725 6 10.125C6 8.6775 7.1775 7.5 8.625 7.5ZM15.375 7.5C16.8225 7.5 18 8.6775 18 10.125C18 11.5725 16.8225 12.75 15.375 12.75C13.9275 12.75 12.75 11.5725 12.75 10.125C12.75 8.6775 13.9275 7.5 15.375 7.5ZM8.625 9C8.32663 9 8.04048 9.11853 7.8295 9.3295C7.61853 9.54048 7.5 9.82663 7.5 10.125C7.5 10.4234 7.61853 10.7095 7.8295 10.9205C8.04048 11.1315 8.32663 11.25 8.625 11.25C8.92337 11.25 9.20952 11.1315 9.4205 10.9205C9.63147 10.7095 9.75 10.4234 9.75 10.125C9.75 9.82663 9.63147 9.54048 9.4205 9.3295C9.20952 9.11853 8.92337 9 8.625 9ZM15.375 9C15.0766 9 14.7905 9.11853 14.5795 9.3295C14.3685 9.54048 14.25 9.82663 14.25 10.125C14.25 10.4234 14.3685 10.7095 14.5795 10.9205C14.7905 11.1315 15.0766 11.25 15.375 11.25C15.6734 11.25 15.9595 11.1315 16.1705 10.9205C16.3815 10.7095 16.5 10.4234 16.5 10.125C16.5 9.82663 16.3815 9.54048 16.1705 9.3295C15.9595 9.11853 15.6734 9 15.375 9ZM9 15.75V17.25H15V15.75H9Z" fill="black"/>
</svg>
