<svg width="24" height="24" viewBox="0 0 24 24" fill="none" xmlns="http://www.w3.org/2000/svg">
<path d="M12 3C11.8799 3 11.7656 3.01758 11.6484 3.02344C8.12402 3.19629 5.25 5.88574 5.25 9.25781C5.25 11.4697 6.5918 13.4121 7.85156 14.8125C9.11133 16.2129 10.3594 17.1094 10.3594 17.1094L10.5703 17.25H13.4297L13.6406 17.1094C13.6406 17.1094 14.8887 16.2129 16.1484 14.8125C17.4082 13.4121 18.75 11.4697 18.75 9.25781C18.75 5.87695 15.8643 3.18457 12.3281 3.02344C12.2168 3.00879 12.1113 3 12 3ZM12 4.5C12.2051 4.5 12.835 4.73438 13.3359 5.36719C13.8369 6 14.25 6.99609 14.25 8.41406C14.25 11.6514 12.5449 15.1729 12.2578 15.75H11.7422C11.4551 15.1699 9.75 11.6367 9.75 8.41406C9.75 7.04883 10.1807 6.04102 10.6875 5.39062C11.1943 4.74023 11.8184 4.5 12 4.5ZM8.92969 5.41406C8.52539 6.23145 8.25 7.23047 8.25 8.41406C8.25 10.5762 8.89746 12.7881 9.51562 14.4141C9.33105 14.2266 9.15527 14.0273 8.95312 13.8047C7.81348 12.5361 6.75 10.8369 6.75 9.25781C6.75 7.68164 7.6084 6.28125 8.92969 5.41406ZM15.1172 5.4375C16.415 6.30762 17.25 7.69629 17.25 9.25781C17.25 10.8369 16.1865 12.5361 15.0469 13.8047C14.8506 14.0244 14.666 14.209 14.4844 14.3906C15.0967 12.7705 15.75 10.5674 15.75 8.41406C15.75 7.23633 15.501 6.24609 15.1172 5.4375ZM10.5 18.75V21H13.5V18.75H10.5Z" fill="black"/>
</svg>
