<svg width="24" height="24" viewBox="0 0 24 24" fill="none" xmlns="http://www.w3.org/2000/svg">
<path d="M3.75 3.75V20.25H20.25V3.75H3.75ZM5.25 5.25H18.75V18.75H5.25V5.25ZM9.375 6.75C9.07689 6.75039 8.79111 6.86909 8.58045 7.08002C8.36979 7.29096 8.25146 7.57688 8.25146 7.875H8.25V16.5C8.25 16.914 8.586 17.25 9 17.25C9.414 17.25 9.75 16.914 9.75 16.5V13.3081C10.3363 13.0918 10.9839 12.9258 11.6089 12.9258C12.7931 12.9258 13.252 13.5381 14.2383 13.5381C14.9425 13.5381 15.5987 13.2996 16.2114 13.0356C16.3652 12.9696 16.4971 12.9038 16.4971 12.75H16.5015V8.53564C16.5015 8.38189 16.3467 8.25 16.1704 8.25C15.9499 8.25 15.0298 8.84033 14.1973 8.84033C14.0248 8.84033 13.8705 8.81844 13.7168 8.75244C12.972 8.46969 12.3154 8.25 11.4829 8.25C11.1156 8.25 10.7393 8.3079 10.3711 8.39648C10.4608 8.22507 10.5047 8.03344 10.4987 7.84008C10.4927 7.64673 10.437 7.45819 10.3368 7.29267C10.2367 7.12715 10.0956 6.99026 9.92708 6.8952C9.7586 6.80014 9.56845 6.75013 9.375 6.75Z" fill="black"/>
</svg>
