<svg width="24" height="24" viewBox="0 0 24 24" fill="none" xmlns="http://www.w3.org/2000/svg">
<path d="M11.625 2.25C6.45525 2.25 2.25 6.45525 2.25 11.625C2.25 16.7948 6.45525 21 11.625 21C16.7948 21 21 16.7948 21 11.625C21 6.45525 16.7948 2.25 11.625 2.25ZM11.625 3.75C15.9675 3.75 19.5 7.2825 19.5 11.625C19.5 15.9675 15.9675 19.5 11.625 19.5C7.2825 19.5 3.75 15.9675 3.75 11.625C3.75 7.2825 7.2825 3.75 11.625 3.75ZM11.25 6V9V9.75H10.5V9H9.75V9.75H9V9H8.25V13.5H6.75V12.75H6V13.5V14.6177C6.9045 16.3097 8.55 17.545 10.5 17.8945V15.375C10.5 14.7563 11.0063 14.25 11.625 14.25C12.2437 14.25 12.75 14.7563 12.75 15.375V17.8945C14.7 17.5458 16.3455 16.3104 17.25 14.6177V13.5V12.75H16.5V13.5H15V9H14.25V9.75H13.5V9H12.75V9.75H12V9V7.5C12 7.5 12.2928 7.32715 12.6753 7.32715C13.0503 7.32715 13.2599 7.5 13.5674 7.5C13.9799 7.5 14.25 7.32715 14.25 7.32715V6C14.25 6 13.9799 6.17285 13.5674 6.17285C13.2599 6.17285 13.0503 6 12.6753 6C12.2928 6 12 6.17285 12 6.17285V6H11.25ZM9.75 11.25H10.5V12.75H9.75V11.25ZM12.75 11.25H13.5V12.75H12.75V11.25Z" fill="black"/>
</svg>
