<svg width="24" height="24" viewBox="0 0 24 24" fill="none" xmlns="http://www.w3.org/2000/svg">
<path d="M11.625 3C11.4187 3 11.25 3.16875 11.25 3.375V7.5V8.625V9H9.75V7.5H8.25V9H6.74561V7.5H5.25V14.25H3.75V12.75H2.25V20.25H9.75V18C9.75 16.7572 10.7572 15.75 12 15.75C13.2428 15.75 14.25 16.7572 14.25 18V20.25H21.75V12.75H20.25V14.25H18.75V7.5H17.2456V9H15.75V7.5H14.25V9H12.75V7.5H12V5.92969C12.2063 5.85469 12.544 5.75848 12.9565 5.75098C13.528 5.74348 13.8087 5.90027 14.4185 5.96777C14.6787 6.00002 15.0519 6.02188 15.5244 5.96338C15.6519 5.94763 15.75 5.83382 15.75 5.70557V3.32373C15.75 3.24873 15.665 3.19594 15.5713 3.21094C15.0748 3.27094 14.69 3.24826 14.4185 3.21826C13.8087 3.15076 13.528 2.98646 12.9565 3.00146C12.544 3.00896 12.2063 3.10518 12 3.18018V3.375C12 3.16875 11.8313 3 11.625 3ZM8.25 10.5H9.75V13.5H8.25V10.5ZM14.25 10.5H15.75V13.5H14.25V10.5Z" fill="black"/>
</svg>
