<svg width="24" height="24" viewBox="0 0 24 24" fill="none" xmlns="http://www.w3.org/2000/svg">
<path d="M12 2.22656C6.60938 2.22656 2.22656 6.60938 2.22656 12C2.22656 12.7412 2.30273 13.4619 2.46094 14.1562C4.48242 8.89453 8.56641 4.47949 14.0391 2.4375C13.377 2.29688 12.7031 2.22656 12 2.22656ZM17.5312 3.96094C14.9092 4.71973 7.09277 7.75195 3.96094 17.5547C4.50586 18.3369 5.16211 19.0488 5.90625 19.6406C9.27246 9.47168 16.9717 6.62402 19.6406 5.92969C19.043 5.17676 18.3223 4.50879 17.5312 3.96094ZM20.9766 8.15625C12.2871 10.9512 9.11719 18.2432 8.20312 20.9766C8.98535 21.3047 9.81738 21.5391 10.6875 21.6562C11.6074 19.3389 14.54 13.541 21.6562 10.6406C21.5361 9.77051 21.3105 8.93848 20.9766 8.15625ZM21.6562 13.3828C20.7568 13.8311 19.2803 14.7393 17.2734 16.6172C14.9941 18.7529 13.9307 20.5957 13.4766 21.6328C14.7803 21.4307 16.0078 20.9824 17.0859 20.3203L21.75 21.75C21.75 21.75 20.8242 18.3018 20.3672 16.9922C21.0176 15.9053 21.4688 14.6895 21.6562 13.3828Z" fill="black"/>
</svg>
