<svg width="24" height="24" viewBox="0 0 24 24" fill="none" xmlns="http://www.w3.org/2000/svg">
<path d="M7.5 3.75C6.67969 3.75 6 4.42969 6 5.25V19.2891C6 19.6699 6.26953 20.0186 6.58594 20.1328C6.89648 20.2441 7.32422 20.1533 7.57031 19.875L12.3047 14.25H14.8828C15.5947 14.25 16.2217 13.7285 16.3594 13.0313L17.8125 5.53125C17.9883 4.62012 17.2646 3.75 16.3359 3.75H7.5ZM7.5 5.25H16.3359L15.75 8.25H10.8516C10.6641 8.25 10.5 8.41406 10.5 8.60156V9.39844C10.5 9.58594 10.6641 9.75 10.8516 9.75H15.4688L14.8828 12.75H11.9297C11.707 12.7441 11.4902 12.8379 11.3438 13.0078L7.5 17.625V5.25Z" fill="black"/>
</svg>
