<svg width="24" height="24" viewBox="0 0 24 24" fill="none" xmlns="http://www.w3.org/2000/svg">
<path d="M3.75 3.75V4.5C3.75 5.88867 4.21582 7.3916 4.875 8.60156C4.16602 9.82031 3.75 11.2412 3.75 12.75C3.75 17.2969 7.45312 21 12 21C16.2715 21 19.79 17.7363 20.2031 13.5703C20.2295 13.2979 20.25 13.0283 20.25 12.75C20.25 11.5693 19.998 10.4268 19.5234 9.375C19.4854 9.43945 19.4619 9.48633 19.4297 9.53906C19.1719 10.1133 18.873 10.7197 18.5625 11.2266C18.6797 11.7246 18.75 12.2256 18.75 12.75C18.75 12.9785 18.7471 13.207 18.7266 13.4297C18.3867 16.8428 15.5098 19.5 12 19.5C8.26172 19.5 5.25 16.4883 5.25 12.75C5.25 9.01172 8.26172 6 12 6C12.3223 6 12.627 6.02637 12.9375 6.07031C13.1191 5.82715 13.3066 5.61035 13.4766 5.41406V5.39062L13.6172 5.25C13.7812 5.07129 13.9365 4.91895 14.0859 4.78125C13.4092 4.60254 12.7148 4.5 12 4.5C10.9541 4.5 9.94629 4.70508 9.02344 5.0625C8.80664 4.91016 8.54297 4.74023 8.20312 4.57031C7.3623 4.15137 6.12598 3.75 4.5 3.75H3.75ZM19.5 3.75C17.874 3.75 16.6377 4.15137 15.7969 4.57031C14.9561 4.98926 14.4609 5.46094 14.4609 5.46094L14.25 5.69531V6.02344C14.25 6.02344 14.2676 6.93164 14.7422 7.85156C15.2168 8.77148 16.2891 9.75 18 9.75H18.3984L18.6328 9.42188C18.6328 9.42188 20.25 7.08398 20.25 4.5V3.75H19.5ZM5.41406 5.36719C6.23438 5.47266 6.9375 5.66016 7.42969 5.88281C6.87012 6.25488 6.38086 6.7002 5.92969 7.19531C5.70703 6.60938 5.5166 5.97363 5.41406 5.36719ZM18.5391 5.36719C18.293 6.68555 17.8564 7.71973 17.6016 8.15625C16.7783 8.03027 16.3301 7.64062 16.0781 7.14844C15.8672 6.74121 15.8701 6.54199 15.8438 6.32812C15.9727 6.21973 16.0166 6.14941 16.4531 5.92969C16.9365 5.68945 17.6807 5.48145 18.5391 5.36719Z" fill="black"/>
</svg>
