<svg width="24" height="24" viewBox="0 0 24 24" fill="none" xmlns="http://www.w3.org/2000/svg">
<path d="M12 3C7.03711 3 3 7.03711 3 12C3 16.9629 7.03711 21 12 21C16.9629 21 21 16.9629 21 12C21 7.03711 16.9629 3 12 3ZM12 4.5C16.1514 4.5 19.5 7.84863 19.5 12C19.5 16.1514 16.1514 19.5 12 19.5C7.84863 19.5 4.5 16.1514 4.5 12C4.5 7.84863 7.84863 4.5 12 4.5ZM8.625 8.25C8.00391 8.25 7.5 9.09082 7.5 10.125C7.5 11.1592 8.00391 12 8.625 12C9.24609 12 9.75 11.1592 9.75 10.125C9.75 9.09082 9.24609 8.25 8.625 8.25ZM15.375 8.25C14.7539 8.25 14.25 9.09082 14.25 10.125C14.25 11.1592 14.7539 12 15.375 12C15.9961 12 16.5 11.1592 16.5 10.125C16.5 9.09082 15.9961 8.25 15.375 8.25ZM12 12.75C10.2803 12.75 9 14.1416 9 15.75C9 16.4912 9.2666 17.2295 9.86719 17.6016C10.4678 17.9736 11.1328 18 12 18C12.8672 18 13.5322 17.9736 14.1328 17.6016C14.7334 17.2295 15 16.4912 15 15.75C15 14.1416 13.7197 12.75 12 12.75ZM12 14.25C12.9697 14.25 13.5 14.8711 13.5 15.75C13.5 16.251 13.4707 16.2686 13.3594 16.3359C13.248 16.4033 12.791 16.5 12 16.5C11.209 16.5 10.752 16.4033 10.6406 16.3359C10.5293 16.2686 10.5 16.251 10.5 15.75C10.5 14.8711 11.0303 14.25 12 14.25Z" fill="black"/>
</svg>
