<svg width="24" height="24" viewBox="0 0 24 24" fill="none" xmlns="http://www.w3.org/2000/svg">
<path d="M3.75 3V4.75781L3.91406 4.96875L9.75 12.2578V21.0234L10.9453 20.0859L12.1172 19.1953C12.6789 21.9253 15.1088 24 18 24C21.3045 24 24 21.3045 24 18C24 14.6955 21.3045 12 18 12C16.5848 12 15.2782 12.5102 14.25 13.3359V12.2578L20.0859 4.96729L20.25 4.75781V3H3.75ZM5.46094 4.5H18.5391L13.1484 11.25H10.8516L5.46094 4.5ZM11.25 12.75H12.75V15.0938C12.366 15.7852 12.1089 16.5671 12.0234 17.3906L11.25 18V12.75ZM18 13.5C20.493 13.5 22.5 15.507 22.5 18C22.5 20.493 20.493 22.5 18 22.5C15.507 22.5 13.5 20.493 13.5 18C13.5 15.507 15.507 13.5 18 13.5ZM17.25 14.25V15.0469C16.4062 15.1879 15.75 15.9037 15.75 16.7827C15.75 17.3482 16.0633 17.8652 16.5703 18.1172L18.75 19.2188C18.75 19.386 18.636 19.5 18.4688 19.5H17.5312C17.364 19.5 17.25 19.386 17.25 19.2188V18.75H15.75V19.2188C15.75 20.0977 16.4062 20.8121 17.25 20.9531V21.75H18.75V20.9531C19.5938 20.8121 20.25 20.0963 20.25 19.2173C20.25 18.6518 19.9367 18.1378 19.4297 17.8828L17.25 16.7812C17.25 16.614 17.364 16.5 17.5312 16.5H18.4688C18.636 16.5 18.75 16.614 18.75 16.7812V17.25H20.25V16.7812C20.25 15.9023 19.5938 15.1879 18.75 15.0469V14.25H17.25Z" fill="black"/>
</svg>
