<svg width="24" height="24" viewBox="0 0 24 24" fill="none" xmlns="http://www.w3.org/2000/svg">
<path d="M12 2.25C6.62402 2.25 2.25 6.62402 2.25 12C2.25 17.376 6.62402 21.75 12 21.75C17.376 21.75 21.75 17.376 21.75 12C21.75 6.62402 17.376 2.25 12 2.25ZM12 3.75C12.4512 3.75 12.8818 3.79688 13.3125 3.86719L12 4.80469L10.6875 3.86719C11.1152 3.7998 11.5518 3.75 12 3.75ZM8.85938 4.38281L11.5547 6.35156L12 6.67969L12.4453 6.35156L15.1406 4.38281C16.3389 4.88086 17.3965 5.64258 18.2344 6.60938L17.2031 9.82031L17.0391 10.3359L17.4844 10.6406L20.2031 12.6328C20.1035 13.9541 19.6992 15.1934 19.0547 16.2656H15.0938L14.9297 16.7812L13.875 20.0391C13.2744 20.1797 12.6445 20.25 12 20.25C11.3291 20.25 10.6787 20.165 10.0547 20.0156L9.02344 16.8047L8.85938 16.2891H4.94531C4.28906 15.2109 3.89941 13.9658 3.79688 12.6328L6.49219 10.6641L6.9375 10.3594L6.77344 9.84375L5.71875 6.65625C6.5625 5.66602 7.6377 4.88672 8.85938 4.38281ZM12 7.57031L11.5547 7.89844L8.13281 10.3828L7.71094 10.7109L7.875 11.2266L9.1875 15.2344L9.35156 15.75H14.6484L14.8125 15.2344L16.125 11.2266L16.2891 10.7109L15.8672 10.3828L12.4453 7.89844L12 7.57031ZM19.3125 8.17969C19.7227 8.96484 19.9922 9.82617 20.1328 10.7344L18.7969 9.77344L19.3125 8.17969ZM4.66406 8.22656L5.17969 9.77344L3.86719 10.7344C4.00488 9.84375 4.26562 9 4.66406 8.22656ZM12 9.44531L14.5312 11.2734L13.5703 14.25H10.4297L9.46875 11.2734L12 9.44531ZM16.1953 17.7656H17.8828C17.2441 18.4248 16.5088 18.9697 15.6797 19.3828L16.1953 17.7656ZM6.11719 17.7891H7.75781L8.27344 19.3594C7.4707 18.9521 6.74121 18.4219 6.11719 17.7891Z" fill="black"/>
</svg>
