<svg width="24" height="24" viewBox="0 0 24 24" fill="none" xmlns="http://www.w3.org/2000/svg">
<path d="M11.7305 2.25V3.39697C11.1327 4.30447 10.6793 8.17723 10.6523 12.876C11.1691 12.1882 11.4946 11.4097 11.4946 10.7534V10.0093C11.4931 9.77528 11.5276 9.5458 11.5913 9.3208C11.6198 9.2263 11.653 9.1417 11.707 9.06445C11.761 8.9872 11.8582 8.89746 12.0015 8.89746C12.144 8.89746 12.2404 8.98795 12.2944 9.06445C12.3484 9.1417 12.3817 9.2263 12.4102 9.3208C12.4732 9.5458 12.5083 9.77528 12.5068 10.0093V10.7534C12.5068 11.4097 12.8324 12.1882 13.3491 12.876C13.3214 8.17723 12.8673 4.30447 12.2695 3.39697V2.25H11.7305ZM10.5703 8.75537C10.1511 8.84987 9.74732 8.98281 9.36182 9.15381C9.75332 9.86331 9.79127 10.5919 9.43652 10.7959C9.08477 10.9991 8.47514 10.6091 8.05664 9.92285C7.54664 10.3099 7.09366 10.7742 6.71191 11.2925C7.35991 11.7162 7.71858 12.3011 7.51758 12.6416C7.31808 12.9806 6.6363 12.9554 5.95605 12.5991C5.7018 13.1826 5.52736 13.8091 5.44336 14.4653C5.86936 14.4736 6.26619 14.5714 6.59619 14.7319C7.37994 14.7184 8.03916 14.6449 8.37891 14.5459C8.62341 13.3864 9.39125 12.4233 10.4165 11.9268C10.4488 10.8025 10.4998 9.74087 10.5703 8.75537ZM13.4282 8.75537C13.498 9.74162 13.5498 10.8025 13.582 11.9268C14.608 12.4225 15.3766 13.3856 15.6211 14.5459C15.9608 14.6456 16.6201 14.7184 17.4023 14.7319C17.7331 14.5707 18.1292 14.4736 18.5552 14.4653C18.4712 13.8091 18.2975 13.1819 18.0425 12.5991C17.363 12.9554 16.6812 12.9806 16.481 12.6416C16.28 12.3011 16.6386 11.7155 17.2866 11.2925C16.9049 10.7742 16.4511 10.3099 15.9419 9.92285C15.5234 10.6091 14.9138 10.9991 14.562 10.7959C14.208 10.5911 14.2452 9.86331 14.6367 9.15381C14.2482 8.98131 13.843 8.84912 13.4282 8.75537ZM12.0015 9.1333C11.8597 9.1333 11.7431 9.52099 11.7334 10.0107H11.7305V10.7534C11.7305 12.5767 9.57322 14.9355 7.61572 14.9355C5.33497 14.9355 2.23721 14.8743 0.751465 16.207V16.3594C1.16246 17.1019 1.64684 17.7996 2.19434 18.4424C2.74559 17.5139 4.4645 16.6396 6.94775 16.6216C8.9585 16.6666 10.4264 17.5167 10.9424 18.4204V18.4219C11.2799 18.5164 11.6407 18.5655 12.0015 18.564C12.3622 18.5647 12.7216 18.5156 13.0591 18.4219V18.4204C13.5758 17.5167 15.0437 16.6658 17.0537 16.6216C19.5377 16.6388 21.2559 17.5139 21.8071 18.4424C22.3546 17.7996 22.8397 17.1011 23.2515 16.3594V16.207H23.25C21.7642 14.8743 18.6665 14.9355 16.3857 14.9355C14.4282 14.9355 12.271 12.5759 12.271 10.7534V10.0107H12.2681C12.2576 9.52099 12.1432 9.1333 12.0015 9.1333ZM12 13.3828C12.987 13.3828 13.7871 14.1829 13.7871 15.1699C13.7871 16.1569 12.987 16.96 12 16.96C11.013 16.96 10.2129 16.1569 10.2129 15.1699C10.2129 14.1829 11.013 13.3828 12 13.3828ZM12 13.7197C11.199 13.7197 10.5498 14.3697 10.5498 15.1699C10.5498 15.9709 11.1997 16.6201 12 16.6201C12.8003 16.6201 13.4502 15.9702 13.4502 15.1699C13.4502 14.3697 12.801 13.7197 12 13.7197ZM12 13.9907C12.6517 13.9907 13.1807 14.5196 13.1807 15.1714C13.1807 15.8231 12.6517 16.3521 12 16.3521C11.3483 16.3521 10.8193 15.8231 10.8193 15.1714C10.8193 14.5196 11.3483 13.9907 12 13.9907ZM6.94775 16.9248C6.49925 16.9278 5.99599 16.9396 5.60449 16.9966C5.62324 17.1908 5.67197 17.8171 5.91797 18.3076C6.31922 18.1951 6.72579 18.1362 7.13379 18.1362C8.95104 18.1775 10.2791 19.6476 10.5776 21.4131L10.582 21.6196C11.0403 21.7044 11.5162 21.75 12.0015 21.75C12.4867 21.75 12.9605 21.7044 13.418 21.6196L13.4224 21.4131C13.7209 19.6476 15.0504 18.1775 16.8677 18.1362C17.2749 18.1362 17.6822 18.1951 18.0835 18.3076C18.3302 17.8179 18.3768 17.1916 18.3955 16.9966C18.004 16.9396 17.5022 16.9278 17.0537 16.9248C16.228 16.9436 15.5053 17.1088 14.915 17.3511C14.363 18.0568 13.6317 18.6714 12.7324 18.8057C12.7287 18.8064 12.7252 18.8078 12.7207 18.8086L12.7134 18.8101C12.4831 18.8573 12.246 18.8818 12.0015 18.8818C11.757 18.8818 11.5183 18.8573 11.2881 18.8101L11.2822 18.8086C11.2777 18.8078 11.2735 18.8064 11.269 18.8057C10.3705 18.6722 9.63918 18.0568 9.08643 17.3511C8.49543 17.1096 7.7735 16.9436 6.94775 16.9248Z" fill="black"/>
</svg>
