<svg width="24" height="24" viewBox="0 0 24 24" fill="none" xmlns="http://www.w3.org/2000/svg">
<path d="M12 5.25C7.21289 5.25 3.02344 6.79688 3.02344 6.79688L2.57813 6.96094L2.53125 7.40625L1.52344 15.0938C1.25098 17.2207 2.77148 19.2041 4.89844 19.4766C6.87891 19.7314 8.6543 18.3955 9.11719 16.5H14.8828C15.3486 18.3955 17.1211 19.7314 19.1016 19.4766C21.2285 19.2041 22.749 17.2207 22.4766 15.0938L21.4688 7.40625L21.4219 6.96094L20.9766 6.79688C20.9766 6.79688 16.7871 5.25 12 5.25ZM12 6.75C16.1133 6.75 19.5059 7.89258 20.0625 8.08594L20.9766 15.3047C21.1465 16.626 20.2354 17.8066 18.9141 17.9766C17.5928 18.1465 16.3887 17.2354 16.2188 15.9141L16.1953 15.6562L16.1016 15H7.89844L7.80469 15.6562L7.78125 15.9141C7.61133 17.2354 6.40723 18.1465 5.08594 17.9766C3.76465 17.8066 2.85352 16.626 3.02344 15.3047L3.9375 8.08594C4.49414 7.89258 7.88672 6.75 12 6.75ZM6.75 9V10.5H5.25V12H6.75V13.5H8.25V12H9.75V10.5H8.25V9H6.75ZM16.5 9C16.0869 9 15.75 9.33691 15.75 9.75C15.75 10.1631 16.0869 10.5 16.5 10.5C16.9131 10.5 17.25 10.1631 17.25 9.75C17.25 9.33691 16.9131 9 16.5 9ZM15 10.5C14.5869 10.5 14.25 10.8369 14.25 11.25C14.25 11.6631 14.5869 12 15 12C15.4131 12 15.75 11.6631 15.75 11.25C15.75 10.8369 15.4131 10.5 15 10.5ZM18 10.5C17.5869 10.5 17.25 10.8369 17.25 11.25C17.25 11.6631 17.5869 12 18 12C18.4131 12 18.75 11.6631 18.75 11.25C18.75 10.8369 18.4131 10.5 18 10.5ZM16.5 12C16.0869 12 15.75 12.3369 15.75 12.75C15.75 13.1631 16.0869 13.5 16.5 13.5C16.9131 13.5 17.25 13.1631 17.25 12.75C17.25 12.3369 16.9131 12 16.5 12Z" fill="black"/>
</svg>
