<svg width="24" height="24" viewBox="0 0 24 24" fill="none" xmlns="http://www.w3.org/2000/svg">
<path d="M6 3.75C4.7666 3.75 3.75 4.7666 3.75 6V20.25H14.25V15H15.75V18C15.75 19.2334 16.7666 20.25 18 20.25C19.2334 20.25 20.25 19.2334 20.25 18V10.3594C20.25 9.76172 20.0156 9.21094 19.5938 8.78906L16.0547 5.25L15 6.30469L17.1328 8.4375C16.3271 8.78027 15.75 9.57422 15.75 10.5C15.75 11.7334 16.7666 12.75 18 12.75C18.2637 12.75 18.5127 12.6943 18.75 12.6094V18C18.75 18.4248 18.4248 18.75 18 18.75C17.5752 18.75 17.25 18.4248 17.25 18V15C17.25 14.1797 16.5703 13.5 15.75 13.5H14.25V6C14.25 4.7666 13.2334 3.75 12 3.75H6ZM6 5.25H12C12.4248 5.25 12.75 5.5752 12.75 6V9H5.25V6C5.25 5.5752 5.5752 5.25 6 5.25ZM18 9.75C18.4219 9.75 18.75 10.0781 18.75 10.5C18.75 10.9219 18.4219 11.25 18 11.25C17.5781 11.25 17.25 10.9219 17.25 10.5C17.25 10.0781 17.5781 9.75 18 9.75ZM5.25 10.5H12.75V18.75H5.25V10.5Z" fill="black"/>
</svg>
