<svg width="24" height="24" viewBox="0 0 24 24" fill="none" xmlns="http://www.w3.org/2000/svg">
<path d="M7.14844 4.5L3.16406 9.28125L2.78906 9.72656L3.16406 10.2188L11.4141 20.7188L12 21.4688L12.5859 20.7188L20.8359 10.2188L21.2109 9.72656L20.8359 9.28125L16.8516 4.5H7.14844ZM7.85156 6H10.5938L8.57812 9H5.34375L7.85156 6ZM13.4062 6H16.1484L18.6562 9H15.4219L13.4062 6ZM12 6.63281L13.5938 9H10.4062L12 6.63281ZM5.27344 10.5H8.4375L10.2188 16.8047L5.27344 10.5ZM9.98438 10.5H13.9922L12 17.4844L9.98438 10.5ZM15.5625 10.5H18.7266L13.7812 16.7812L15.5625 10.5Z" fill="black"/>
</svg>
