<svg width="24" height="24" viewBox="0 0 24 24" fill="none" xmlns="http://www.w3.org/2000/svg">
<path d="M5.25 3.75C4.0166 3.75 3 4.7666 3 6V11.25C3 16.2129 7.03711 20.25 12 20.25C16.9629 20.25 21 16.2129 21 11.25V6C21 4.7666 19.9834 3.75 18.75 3.75H5.25ZM5.25 5.25H18.75C19.1748 5.25 19.5 5.5752 19.5 6V11.25C19.5 15.4014 16.1514 18.75 12 18.75C7.84863 18.75 4.5 15.4014 4.5 11.25V6C4.5 5.5752 4.8252 5.25 5.25 5.25ZM7.99219 8.55469C7.70508 8.55469 7.41504 8.68652 7.19531 8.90625C6.75586 9.3457 6.75586 10.0371 7.19531 10.4766L11.25 14.5312C11.4609 14.7422 11.748 14.8594 12.0469 14.8594C12.3457 14.8594 12.6328 14.7422 12.8438 14.5312L16.8047 10.5938C17.2441 10.1543 17.2441 9.43945 16.8047 9C16.3652 8.56055 15.6504 8.56055 15.2109 9L12.0469 12.1641L8.78906 8.90625C8.56934 8.68652 8.2793 8.55469 7.99219 8.55469Z" fill="black"/>
</svg>
