<svg width="24" height="24" viewBox="0 0 24 24" fill="none" xmlns="http://www.w3.org/2000/svg">
<path d="M12 2.25C6.624 2.25 2.25 6.624 2.25 12C2.25 17.376 6.624 21.75 12 21.75C17.376 21.75 21.75 17.376 21.75 12C21.75 6.624 17.376 2.25 12 2.25ZM12 3.75C16.5487 3.75 20.25 7.45125 20.25 12C20.25 16.5487 16.5487 20.25 12 20.25C7.45125 20.25 3.75 16.5487 3.75 12C3.75 7.45125 7.45125 3.75 12 3.75ZM13.9087 7.11475L11.0186 10.0049L13.9922 12.98L14.9326 12.0396L12.8862 10.002L13.9072 8.98096L16.8823 11.9561L13.9072 14.9297L13.4795 14.5034L12.5508 15.4424L13.9072 16.7988L18.75 11.959L13.9087 7.11475ZM10.0928 7.19824L5.25 12.041L10.0928 16.8838L12.9814 13.9878L10.0078 11.0127L9.06738 11.9531L11.1138 13.9907L10.0884 15.0146L7.11475 12.041L10.0884 9.06592L10.5161 9.49365L11.4492 8.56055L10.0928 7.19824Z" fill="black"/>
</svg>
