<svg width="24" height="24" viewBox="0 0 24 24" fill="none" xmlns="http://www.w3.org/2000/svg">
<path d="M12 2.25C10.5469 2.25 9.42773 2.63086 8.625 3.25781C7.82227 3.88477 7.35938 4.72852 7.03125 5.50781C6.70312 6.28711 6.49219 7.03418 6.28125 7.57031C6.07031 8.10645 5.89453 8.31445 5.74219 8.36719C3.62109 9.12012 2.25 11.1475 2.25 13.5V14.25H3C4.01074 14.25 4.50293 14.4609 4.73438 14.6484C4.96582 14.8359 5.05664 15.0498 5.10938 15.4219C5.16211 15.7939 5.13574 16.248 5.20312 16.7578C5.23828 17.0127 5.29102 17.2998 5.46094 17.5781C5.63086 17.8564 5.93848 18.0967 6.28125 18.2109C7.0752 18.4746 7.58496 18.6416 7.89844 18.8203C8.21191 18.999 8.39941 19.1602 8.64844 19.6875C8.88574 20.1885 9.20508 20.7363 9.77344 21.1406C10.3418 21.5449 11.1064 21.7617 12.0703 21.75C13.6465 21.7295 14.5869 20.915 15.0703 20.2031C15.3135 19.8457 15.4834 19.5381 15.6328 19.3359C15.7822 19.1338 15.873 19.0547 16.0312 19.0078C17.0479 18.7031 17.7041 18.1875 18.0703 17.6016C18.4365 17.0156 18.5068 16.4414 18.6094 16.0547C18.7119 15.668 18.7852 15.5156 19.0312 15.3516C19.2773 15.1875 19.8398 15 21 15H21.75V14.25C21.75 13.2158 21.7852 12.0117 21.3281 10.875C20.8711 9.73828 19.8311 8.7334 18.1172 8.34375C18.0996 8.34082 18.0791 8.34961 18 8.25C17.9209 8.15039 17.8008 7.95117 17.6953 7.6875C17.4844 7.16309 17.2822 6.39551 16.9453 5.60156C16.6084 4.80762 16.1279 3.95215 15.3281 3.30469C14.5283 2.65723 13.4297 2.25 12 2.25ZM12 3.75C13.1543 3.75 13.8604 4.0459 14.3906 4.47656C14.9209 4.90723 15.2754 5.51074 15.5625 6.1875C15.8496 6.86426 16.0518 7.59668 16.3125 8.25C16.4414 8.5752 16.582 8.87988 16.8047 9.16406C17.0273 9.44824 17.3525 9.72656 17.7656 9.82031C19.1162 10.1279 19.6172 10.6816 19.9219 11.4375C20.1533 12.0117 20.1592 12.7998 20.1797 13.5703C19.3477 13.6406 18.665 13.79 18.1875 14.1094C17.5547 14.5342 17.2881 15.1875 17.1562 15.6797C17.0244 16.1719 16.9746 16.5322 16.8047 16.8047C16.6348 17.0771 16.3564 17.3467 15.5859 17.5781C15.0527 17.7393 14.6689 18.1055 14.4141 18.4453C14.1592 18.7852 14.0068 19.0957 13.8281 19.3594C13.4707 19.8867 13.2129 20.2354 12.0469 20.25C11.3086 20.2588 10.9131 20.1152 10.6406 19.9219C10.3682 19.7285 10.1689 19.4473 9.98438 19.0547C9.65039 18.3457 9.20215 17.8242 8.64844 17.5078C8.09473 17.1914 7.51758 17.0361 6.75 16.7812C6.74414 16.7695 6.7002 16.7139 6.67969 16.5703C6.6416 16.2832 6.66504 15.7764 6.58594 15.2109C6.50684 14.6455 6.27539 13.96 5.67188 13.4766C5.25 13.1367 4.64648 12.9668 3.9375 12.8672C4.15723 11.4229 4.91602 10.2422 6.23438 9.77344C7.03125 9.49219 7.42383 8.79785 7.6875 8.13281C7.95117 7.46777 8.13867 6.72656 8.41406 6.07031C8.68945 5.41406 9.01465 4.86035 9.53906 4.45312C10.0635 4.0459 10.8018 3.75 12 3.75ZM9.75 6.75C9.33691 6.75 9 7.25391 9 7.875C9 8.49609 9.33691 9 9.75 9C10.1631 9 10.5 8.49609 10.5 7.875C10.5 7.25391 10.1631 6.75 9.75 6.75ZM12.75 6.75C12.3369 6.75 12 7.25391 12 7.875C12 8.49609 12.3369 9 12.75 9C13.1631 9 13.5 8.49609 13.5 7.875C13.5 7.25391 13.1631 6.75 12.75 6.75Z" fill="black"/>
</svg>
