<svg width="24" height="24" viewBox="0 0 24 24" fill="none" xmlns="http://www.w3.org/2000/svg">
<path d="M6.75 3V5.42578L4.13672 3.85693L3.36328 5.14307L4.7915 6H2.25V20.25H6.75V18.75H3.75V7.5H9.77051C10.3953 7.035 11.163 6.75 12 6.75C12.264 6.75 12.5115 6.78117 12.75 6.82617V6H10.2085L11.6367 5.14307L10.8633 3.85693L8.25 5.42578V3H6.75ZM12 8.25C10.7662 8.25 9.75 9.26625 9.75 10.5C9.75 10.764 9.80587 11.013 9.89062 11.25H8.25V12.75V20.25H21.75V12.75V11.25H20.1094C20.1949 11.013 20.25 10.764 20.25 10.5C20.25 9.26625 19.2337 8.25 18 8.25C16.6875 8.25 15.7967 9.24563 15.2109 10.0781C15.1322 10.1891 15.0697 10.299 15 10.4077C14.9295 10.299 14.8678 10.1899 14.7891 10.0781C14.2026 9.24563 13.3125 8.25 12 8.25ZM12 9.75C12.4688 9.75 13.0781 10.2536 13.5469 10.9219C13.6609 11.0861 13.6436 11.0955 13.7344 11.2515H12C11.5755 11.2515 11.25 10.926 11.25 10.5015C11.25 10.077 11.5755 9.75 12 9.75ZM18 9.75C18.4245 9.75 18.75 10.0755 18.75 10.5C18.75 10.9245 18.4245 11.25 18 11.25H16.2656C16.3571 11.0948 16.3391 11.0854 16.4531 10.9219C16.9219 10.2536 17.5312 9.75 18 9.75ZM9.75 12.75H14.25V18.75H9.75V12.75ZM15.75 12.75H20.25V18.75H15.75V12.75Z" fill="black"/>
</svg>
