<svg width="24" height="24" viewBox="0 0 24 24" fill="none" xmlns="http://www.w3.org/2000/svg">
<path d="M9 3.75C7.7666 3.75 6.75 4.7666 6.75 6C6.75 6.26367 6.80566 6.5127 6.89062 6.75H3V11.25H3.75V21H20.25V11.25H21V6.75H17.1094C17.1943 6.5127 17.25 6.26367 17.25 6C17.25 4.7666 16.2334 3.75 15 3.75C13.6875 3.75 12.7969 4.74609 12.2109 5.57812C12.1318 5.68945 12.0703 5.79785 12 5.90625C11.9297 5.79785 11.8682 5.68945 11.7891 5.57812C11.2031 4.74609 10.3125 3.75 9 3.75ZM9 5.25C9.46875 5.25 10.0781 5.75391 10.5469 6.42188C10.6611 6.58594 10.6436 6.59473 10.7344 6.75H9C8.5752 6.75 8.25 6.4248 8.25 6C8.25 5.5752 8.5752 5.25 9 5.25ZM15 5.25C15.4248 5.25 15.75 5.5752 15.75 6C15.75 6.4248 15.4248 6.75 15 6.75H13.2656C13.3564 6.59473 13.3389 6.58594 13.4531 6.42188C13.9219 5.75391 14.5312 5.25 15 5.25ZM4.5 8.25H19.5V9.75H12.75V9H11.25V9.75H4.5V8.25ZM5.25 11.25H18.75V19.5H12.75V12H11.25V19.5H5.25V11.25Z" fill="black"/>
</svg>
