<svg width="24" height="24" viewBox="0 0 24 24" fill="none" xmlns="http://www.w3.org/2000/svg">
<path d="M12 1.5C11.6221 1.5 11.2529 1.6377 10.9688 1.92188L8.85938 4.05469C8.74512 4.11621 8.64844 4.2041 8.57812 4.3125L1.92187 10.9688C1.35352 11.5342 1.35352 12.4629 1.92187 13.0312L10.9688 22.0781C11.5371 22.6436 12.4629 22.6436 13.0312 22.0781L22.0781 13.0312C22.6465 12.4658 22.6465 11.5371 22.0781 10.9688L13.0312 1.92188C12.7471 1.6377 12.3779 1.5 12 1.5ZM12 3.02344L20.9766 12L12 20.9766L3.02344 12L9.23438 5.78906L10.5469 7.10156C10.5117 7.22754 10.5 7.3623 10.5 7.5C10.5 8.05371 10.8018 8.52832 11.25 8.78906V15.2109C10.8018 15.4717 10.5 15.9463 10.5 16.5C10.5 17.3291 11.1709 18 12 18C12.8291 18 13.5 17.3291 13.5 16.5C13.5 15.9463 13.1982 15.4717 12.75 15.2109V9.32812L15.0469 11.625C15.0146 11.7451 15 11.8711 15 12C15 12.8291 15.6709 13.5 16.5 13.5C17.3291 13.5 18 12.8291 18 12C18 11.1709 17.3291 10.5 16.5 10.5C16.3711 10.5 16.2451 10.5146 16.125 10.5469L13.4531 7.875C13.4854 7.75488 13.5 7.62891 13.5 7.5C13.5 6.6709 12.8291 6 12 6C11.8623 6 11.7275 6.01172 11.6016 6.04688L10.2891 4.73438L12 3.02344Z" fill="black"/>
</svg>
