<svg width="24" height="24" viewBox="0 0 24 24" fill="none" xmlns="http://www.w3.org/2000/svg">
<path d="M3.75 3.75V20.25H20.25V3.75H3.75ZM5.25 5.25H18.75V18.75H5.25V5.25ZM12.6533 7.771C12.1793 7.771 11.9019 8.02431 11.9019 8.49756C11.9019 8.97981 12.1801 9.24902 12.6533 9.24902C13.1348 9.24902 13.4121 8.97906 13.4121 8.49756C13.4121 8.02356 13.1348 7.771 12.6533 7.771ZM14.9883 8.56201C14.8983 9.46801 14.6047 9.83524 13.8779 9.91699V10.6611C14.5477 10.6611 14.5225 10.6352 14.5225 10.7417V12.9302C14.5225 13.8692 14.899 14.25 15.895 14.25C16.3683 14.25 16.8907 14.1151 17.25 13.9351L17.0215 13.1982C15.6827 13.7045 15.75 12.7906 15.75 12.6519V10.6597H17.0215V9.82764H15.75V8.56201H14.9883ZM8.79639 9.91113C7.92827 9.91493 6.88037 10.2616 6.88037 11.5356C6.88037 12.1476 7.19161 12.5804 7.59961 12.7852C7.08511 13.2577 6.83936 13.4781 6.83936 13.7886C6.83936 14.0173 6.93778 14.22 7.20703 14.3423C6.92128 14.6123 6.75 14.8176 6.75 15.1934C6.75 15.8466 7.32929 16.2305 8.83154 16.2305C10.285 16.2305 11.127 15.6911 11.127 14.7363C11.127 13.5281 10.2041 13.5772 8.01562 13.4385L8.29248 12.9961C8.84748 13.1513 10.7256 13.2011 10.7256 11.6089C10.7256 11.2249 10.5703 10.9556 10.415 10.7681L11.1826 10.7109V9.99902H9.55811C9.35392 9.94596 9.08576 9.90987 8.79639 9.91113ZM11.666 9.91846L11.5752 10.5967C12.0897 10.7759 12.1304 10.7501 12.1304 10.9219V13.3799C12.1304 13.5599 12.1219 13.5276 11.5752 13.6011V14.25H13.9512V13.6011L13.5264 13.5439C13.4041 13.5274 13.396 13.5104 13.396 13.3799V9.91846H11.666ZM8.86523 10.7417C9.88523 10.7417 9.90983 12.1963 8.84033 12.1963C7.76258 12.1963 7.81148 10.7417 8.86523 10.7417ZM7.94971 14.5635C9.54196 14.6782 9.88477 14.6373 9.88477 14.9561C9.88477 15.6176 7.7373 15.6171 7.7373 15.0044C7.7373 14.8409 7.84321 14.7022 7.94971 14.5635Z" fill="black"/>
</svg>
