<svg width="24" height="24" viewBox="0 0 24 24" fill="none" xmlns="http://www.w3.org/2000/svg">
<path d="M15.8394 3.75147C15.6838 3.73691 15.5263 3.81932 15.4526 3.97119C15.3611 4.16019 15.4331 4.39 15.6123 4.48975C17.9111 5.77975 19.4678 8.26438 19.4678 11.1196C19.4678 14.3214 17.5069 17.06 14.7349 18.1685V15.0044C15.2156 14.8499 15.5786 14.3967 15.5786 13.8545C15.5786 13.4052 15.3482 13.0171 14.9927 12.8071C15.2739 10.0786 16.4985 10.7972 16.4985 9.92871V9.42334C16.4985 8.11909 13.5231 3.87098 12.1318 3.77198C12.0471 3.76523 11.9618 3.76523 11.874 3.77198C10.479 3.87473 7.50439 8.11984 7.50439 9.42334V9.93164C7.50439 10.8001 8.73422 10.0786 9.01172 12.8101C8.65322 13.0193 8.42578 13.4074 8.42578 13.8574C8.42578 14.3997 8.78439 14.8528 9.26514 15.0073V18.1714C6.49239 17.0666 4.53223 14.3281 4.53223 11.1226C4.53223 8.27106 6.08895 5.78643 8.3877 4.49268C8.5707 4.38993 8.63886 4.16312 8.54736 3.97412C8.44911 3.77162 8.2048 3.69324 8.0083 3.80274C5.46955 5.22774 3.75 7.97181 3.75 11.1226C3.75 15.0586 6.43097 18.3578 10.043 19.2495V15.6797C10.3002 15.7652 10.5553 15.8381 10.8223 15.8936V20.1387C6.42802 19.5559 3.02783 15.7418 3.02783 11.1226C3.02783 9.99681 3.23159 8.91713 3.60059 7.92188C3.67484 7.72313 3.58093 7.5034 3.38818 7.4209C3.18493 7.33165 2.94763 7.43349 2.86963 7.64649C2.46988 8.72724 2.25 9.89706 2.25 11.1226C2.25 16.4453 6.40099 20.787 11.6045 21V15.9932C11.8347 16.0067 12.1113 16.0104 12.3955 15.9932V20.9956C17.599 20.7864 21.75 16.4453 21.75 11.1226C21.75 9.89706 21.5301 8.72806 21.1304 7.64356C21.0524 7.43431 20.8151 7.32726 20.6118 7.41651C20.4191 7.49901 20.3244 7.72173 20.3994 7.91748C20.7684 8.91273 20.9722 9.99388 20.9722 11.1196C20.9722 15.7389 17.5757 19.5522 13.1777 20.1357V15.8906C13.4455 15.8389 13.7035 15.766 13.957 15.6768V19.2466C17.569 18.3578 20.25 15.0564 20.25 11.1196C20.25 7.96888 18.5304 5.22406 15.9917 3.79981C15.9435 3.77243 15.8912 3.75632 15.8394 3.75147ZM9.63428 13.043C10.0775 13.043 10.4355 13.4067 10.4355 13.856C10.4355 14.3015 10.0813 14.6689 9.63428 14.6689C9.18728 14.6689 8.83154 14.3015 8.83154 13.856C8.83154 13.4105 9.18728 13.043 9.63428 13.043ZM14.3657 13.0444C14.806 13.0444 15.1685 13.4044 15.1685 13.8574C15.1685 14.3067 14.8097 14.6704 14.3657 14.6704C13.9255 14.6704 13.5645 14.3104 13.5645 13.8574C13.5645 13.4082 13.9225 13.0444 14.3657 13.0444Z" fill="black"/>
</svg>
