<svg width="24" height="24" viewBox="0 0 24 24" fill="none" xmlns="http://www.w3.org/2000/svg">
<path d="M6.28711 1.47949L3.05859 10.0898L2.87695 10.5791L1.34766 14.6572L12 22.4062L22.6523 14.6572L21.123 10.5791L17.71 1.47949L14.9121 10.0898H9.08789L6.28711 1.47949ZM6.1875 6.02051L7.51172 10.0898H4.66113L6.1875 6.02051ZM17.8125 6.02051L19.3389 10.0898H16.4883L17.8125 6.02051ZM4.09863 11.5898H7.99805L10.5703 19.5117L3.15234 14.1152L4.09863 11.5898ZM9.57422 11.5898H14.4258L12 19.0518L9.57422 11.5898ZM16.002 11.5898H19.8984L20.8477 14.1152L13.4268 19.5117L16.002 11.5898Z" fill="black"/>
</svg>
