<svg width="24" height="24" viewBox="0 0 24 24" fill="none" xmlns="http://www.w3.org/2000/svg">
<path d="M18.6328 3.04688L17.9062 3.25781L12.1406 4.89844L11.4375 5.10938L11.5781 5.625L6.16406 4.05469L5.4375 3.84375L5.22656 4.57031L3.11719 11.7422C2.8623 12.6299 2.70703 13.6904 3 14.7188C3.2373 15.5508 3.83203 16.3506 4.75781 16.8281L4.07812 19.2891L1.92188 18.6562L1.5 20.1094L7.26562 21.7734L7.6875 20.3203L5.53125 19.6875L6.21094 17.25C7.24805 17.335 8.16797 16.96 8.8125 16.3828C9.60938 15.668 10.0576 14.7158 10.3125 13.8281L12.1641 7.64062L13.6875 13.0547V13.0781C13.9424 13.9658 14.3906 14.918 15.1875 15.6328C15.8379 16.2158 16.7461 16.5674 17.7891 16.4766L18.4688 18.9375L16.3125 19.5703L16.7344 21.0234L22.5 19.3594L22.0781 17.9062L19.9219 18.5391L19.2188 16.0781C20.1445 15.6006 20.7393 14.8008 20.9766 13.9688C21.2695 12.9404 21.1377 11.8799 20.8828 10.9922L18.8438 3.77344L18.6328 3.04688ZM17.625 4.89844L18.5625 8.25H13.875L13.2891 6.14062L17.625 4.89844ZM6.46875 5.71875L10.7812 6.9375L10.1719 9H5.48438L6.46875 5.71875ZM14.2969 9.75H18.9844L19.4531 11.4141C19.6553 12.1113 19.7256 12.9404 19.5469 13.5703C19.3682 14.2002 19.0283 14.6426 18.1172 14.9062C17.2061 15.1699 16.6816 14.9678 16.1953 14.5312C15.709 14.0947 15.3193 13.3535 15.1172 12.6562L14.2969 9.75ZM5.03906 10.5H9.72656L8.88281 13.4062H8.85938C8.65723 14.1035 8.29102 14.8447 7.80469 15.2812C7.31836 15.7178 6.79395 15.9199 5.88281 15.6562C4.97168 15.3926 4.63184 14.9502 4.45312 14.3203C4.27441 13.6904 4.34473 12.8613 4.54688 12.1641L5.03906 10.5Z" fill="black"/>
</svg>
