<svg width="24" height="24" viewBox="0 0 24 24" fill="none" xmlns="http://www.w3.org/2000/svg">
<path d="M6.375 3C4.09863 3 2.25 4.84863 2.25 7.125C2.25 9.40137 4.09863 11.25 6.375 11.25C6.98438 11.25 7.55859 11.0977 8.08594 10.8516L12 16.0078V20.25H9V21.75H16.5V20.25H13.5V16.0078L20.1094 7.28906L20.25 7.07812V6H10.3125C9.8584 4.25977 8.23828 3 6.375 3ZM6.375 4.5C7.41797 4.5 8.31738 5.12988 8.71875 6H5.25V7.07812L5.39062 7.28906L7.14844 9.60938C6.89062 9.7002 6.62695 9.75 6.375 9.75C4.90137 9.75 3.75 8.59863 3.75 7.125C3.75 5.65137 4.90137 4.5 6.375 4.5ZM7.45312 7.5H18.0469L16.9219 9H10.125L11.25 10.5H15.7734L12.75 14.5078L7.45312 7.5Z" fill="black"/>
</svg>
