<svg width="24" height="24" viewBox="0 0 24 24" fill="none" xmlns="http://www.w3.org/2000/svg">
<path d="M3.75 3.75V20.25H20.25V3.75H3.75ZM5.25 5.25H18.75V18.75H5.25V5.25ZM11.9414 6.75C9.58716 6.75 8.39502 9.07369 8.39502 10.8047C8.39502 12.6009 9.44528 13.5967 11.228 13.5967C11.474 13.5967 11.4551 13.5761 11.4551 13.6714C11.1101 16.3076 9.60059 16.3932 9.60059 15.605C9.60059 14.804 10.5195 14.4064 10.5293 14.3569C10.5225 14.1072 9.56673 13.793 9.32373 13.793C8.63073 13.793 8.25 14.8766 8.25 15.4541C8.25 16.5146 8.91902 17.25 9.99902 17.25C11.5815 17.25 12.738 15.6182 13.0957 14.2397C13.4047 13.0022 13.3245 12.9454 13.4985 12.8569C14.1555 12.5254 14.4179 12.3062 15.1597 12.3062C15.5242 12.3062 15.784 12.3823 16.3652 12.4775C16.4245 12.4798 16.5 12.4203 16.5 12.3618C16.5 12.1946 15.8173 11.1247 15.6636 11.0654C15.5916 11.0362 15.4274 10.9893 15.3486 10.9893C14.5904 10.9893 14.3353 11.3346 13.6948 11.6953L13.6772 11.6777C13.8182 10.7125 14.1577 9.79961 14.1577 8.80811C14.1577 7.34336 13.3762 6.75 11.9414 6.75ZM12.0454 7.88672C12.4204 7.88672 12.4497 8.15912 12.4497 8.47412C12.4497 8.76287 12.3962 9.05409 12.3369 9.33984C12.1464 10.2526 11.9568 11.1722 11.77 12.085C11.7243 12.292 11.4981 12.2461 11.3203 12.2461C10.5388 12.2461 10.3184 11.3939 10.3184 10.7534C10.3184 9.79117 10.6863 8.51716 11.5825 8.02441C11.7235 7.94266 11.8849 7.88672 12.0454 7.88672Z" fill="black"/>
</svg>
