<svg width="24" height="24" viewBox="0 0 24 24" fill="none" xmlns="http://www.w3.org/2000/svg">
<path d="M12 2.25C6.624 2.25 2.25 6.624 2.25 12C2.25 17.376 6.624 21.75 12 21.75C17.376 21.75 21.75 17.376 21.75 12C21.75 6.624 17.376 2.25 12 2.25ZM12 3.75C13.5772 3.75 15.0475 4.20361 16.3022 4.97461L16.125 5.39941L17.0068 6.28125L16.1807 7.10596L15 6H13.5L12 7.875L12.75 9.52441L13.5 9V8.25H14.25L15.0747 8.92529L14.25 9.75L11.25 11.25H10.5V12.75H11.25L12.75 12L13.5 12.75H15V12L15.6006 11.1006L17.25 10.5V12H15.75V12.75H17.25L18.75 15L19.5 14.25V13.5H18.75V12.75H19.5L20.2207 12.5947C20.1112 14.1262 19.5847 15.5405 18.75 16.7285V16.5H17.9253L16.125 13.5L14.25 14.25L12 13.5L9.75 14.25L9 16.5L9.75 18H11.25L12 17.25L12.75 18V20.2119C12.5025 20.2344 12.2535 20.25 12 20.25C7.45125 20.25 3.75 16.5487 3.75 12C3.75 11.3048 3.84653 10.6331 4.00928 9.9873L4.42529 9.75H5.25V7.27148C5.37525 7.09373 5.50311 6.91725 5.64111 6.75H6.31494L6.64307 5.73779C7.11407 5.33429 7.62912 4.98361 8.18262 4.69336L7.5 6.75H9L10.5 5.25V4.5H9.75L9 5.25V4.32275C9.9315 3.9575 10.941 3.75 12 3.75ZM10.5 8.25V9.75H11.25V8.25H10.5Z" fill="black"/>
</svg>
