<svg width="24" height="24" viewBox="0 0 24 24" fill="none" xmlns="http://www.w3.org/2000/svg">
<path d="M12.75 3C7.77975 3 3.75 7.02975 3.75 12C3.75 16.9703 7.77975 21 12.75 21C15.4388 21 17.8361 19.806 19.4839 17.9355C19.3969 16.5893 18.3675 15.0575 16.5 15.0088V15.6489C15.5468 16.6307 14.223 17.25 12.75 17.25C9.855 17.25 7.5 14.895 7.5 12C7.5 9.105 9.855 6.75 12.75 6.75C14.019 6.75 15.1838 7.20332 16.0928 7.95557L18.7222 5.2793C17.1322 3.86555 15.0443 3 12.75 3ZM12 9.75V13.5H16.5C18.1575 13.5 19.0635 14.097 19.5 15C19.5 13.0267 19.5015 9.75 16.5 9.75H12Z" fill="black"/>
</svg>
