<svg width="24" height="24" viewBox="0 0 24 24" fill="none" xmlns="http://www.w3.org/2000/svg">
<path d="M12 2.25C7.86621 2.25 4.5 5.61621 4.5 9.75C4.5 12.5127 6.01758 14.918 8.25 16.2188V16.5L8.22656 17.25H8.25C8.28516 17.25 8.99121 17.2705 9.72656 17.7188C10.377 18.1143 11.0596 18.7764 11.2266 20.25H5.25V21.75H18.75V20.25H12.7734C12.9404 18.7764 13.623 18.1143 14.2734 17.7188C15.0088 17.2705 15.7148 17.25 15.75 17.25H15.7734L15.75 16.5V16.2188C17.9824 14.918 19.5 12.5127 19.5 9.75C19.5 5.61621 16.1338 2.25 12 2.25ZM12 3.75C15.3223 3.75 18 6.42773 18 9.75C18 13.0723 15.3223 15.75 12 15.75C8.67773 15.75 6 13.0723 6 9.75C6 6.42773 8.67773 3.75 12 3.75ZM14.25 8.25C13.8369 8.25 13.5 8.58691 13.5 9C13.5 9.41309 13.8369 9.75 14.25 9.75C14.6631 9.75 15 9.41309 15 9C15 8.58691 14.6631 8.25 14.25 8.25ZM12.75 9.75C12.3369 9.75 12 10.0869 12 10.5C12 10.9131 12.3369 11.25 12.75 11.25C13.1631 11.25 13.5 10.9131 13.5 10.5C13.5 10.0869 13.1631 9.75 12.75 9.75ZM15 10.5C14.5869 10.5 14.25 10.8369 14.25 11.25C14.25 11.6631 14.5869 12 15 12C15.4131 12 15.75 11.6631 15.75 11.25C15.75 10.8369 15.4131 10.5 15 10.5ZM11.25 11.25C10.8369 11.25 10.5 11.5869 10.5 12C10.5 12.4131 10.8369 12.75 11.25 12.75C11.6631 12.75 12 12.4131 12 12C12 11.5869 11.6631 11.25 11.25 11.25ZM13.5 12C13.0869 12 12.75 12.3369 12.75 12.75C12.75 13.1631 13.0869 13.5 13.5 13.5C13.9131 13.5 14.25 13.1631 14.25 12.75C14.25 12.3369 13.9131 12 13.5 12ZM11.4609 17.25H12.5391C12.3428 17.4727 12.1641 17.7158 12 18C11.8359 17.7158 11.6572 17.4727 11.4609 17.25Z" fill="black"/>
</svg>
