<svg width="24" height="24" viewBox="0 0 24 24" fill="none" xmlns="http://www.w3.org/2000/svg">
<path d="M3.75 3.75V20.25H20.25V3.75H3.75ZM5.25 5.25H18.75V18.75H5.25V5.25ZM11.625 6.75C9.76425 6.75 8.25 8.43225 8.25 10.5C8.25 12.5677 9.76425 14.25 11.625 14.25C12.6908 14.25 13.6313 13.6871 14.25 12.8276V13.875C14.25 15.3225 13.0725 16.5 11.625 16.5C10.5817 16.5 9.68667 15.8835 9.26367 15H8.45654C8.92229 16.3065 10.1603 17.25 11.625 17.25C13.4858 17.25 15 15.7358 15 13.875V7.5H14.25V8.17236C13.6313 7.31286 12.6908 6.75 11.625 6.75ZM11.625 7.5C13.0725 7.5 14.25 8.8455 14.25 10.5C14.25 12.1545 13.0725 13.5 11.625 13.5C10.1775 13.5 9 12.1545 9 10.5C9 8.8455 10.1775 7.5 11.625 7.5Z" fill="black"/>
</svg>
