<svg width="24" height="24" viewBox="0 0 24 24" fill="none" xmlns="http://www.w3.org/2000/svg">
<path d="M16.5 2.625C16.0664 2.625 15.6416 2.74512 15.2578 2.95312C13.9893 3.64453 13.5176 5.2207 14.2031 6.49219C14.2061 6.50098 14.54 7.20117 14.8594 8.34375C13.2656 6.04688 11.5664 4.83691 11.4844 4.78125C11.4727 4.76953 11.4492 4.76953 11.4375 4.75781C11.4141 4.74023 11.3906 4.72559 11.3672 4.71094C10.9072 4.34473 10.3477 4.125 9.75 4.125C9.2168 4.125 8.71289 4.29199 8.27344 4.59375C7.08691 5.41113 6.78223 7.03418 7.59375 8.22656C7.59375 8.22656 7.78418 8.56348 7.99219 9.04688C7.72559 8.83887 7.45898 8.64844 7.19531 8.48438C6.1377 7.83105 5.25293 7.5 4.5 7.5C3.2666 7.5 2.25 8.5166 2.25 9.75C2.25 10.5059 2.70996 11.0918 3.21094 11.5078C3.71191 11.9238 4.30078 12.2754 4.89844 12.6797C6.01172 13.4297 7.12793 14.3291 7.75781 16.0312C7.59082 16.4238 7.45605 16.7285 7.45312 16.7344C6.75 17.9795 7.2041 19.5615 8.46094 20.2734C8.85352 20.4961 9.29883 20.625 9.75 20.625C10.6934 20.625 11.5576 20.1094 12.0234 19.2891C12.1465 19.0723 12.8584 17.748 13.3594 15.8438C13.6758 16.79 13.9482 18.0176 13.875 19.4531C13.8457 19.6025 13.8604 19.7578 13.9219 19.8984C13.9248 19.9131 13.9189 19.9307 13.9219 19.9453C14.0684 20.7744 14.5986 21.5215 15.4219 21.8906C15.7588 22.043 16.1279 22.125 16.5 22.125C17.5342 22.125 18.4688 21.5215 18.8906 20.5781C19.0664 20.1797 20.625 16.5732 20.625 12.0703C20.625 7.46191 18.9844 4.32422 18.7969 3.98438C18.3369 3.14355 17.458 2.625 16.5 2.625ZM16.5 4.125C16.8984 4.125 17.2793 4.33887 17.4844 4.71094C17.5518 4.83398 19.125 7.75195 19.125 12.0703C19.125 16.3418 17.5957 19.8223 17.5312 19.9688C17.3438 20.3877 16.9307 20.625 16.5 20.625C16.3477 20.625 16.1807 20.5986 16.0312 20.5312C15.4629 20.2764 15.2168 19.5996 15.4688 19.0312C15.4893 18.9844 16.6963 16.2158 16.8516 12.7734C16.8955 12.6445 16.9043 12.5068 16.875 12.375C16.8779 12.2725 16.875 12.1729 16.875 12.0703C16.875 8.3584 15.5303 5.81543 15.5156 5.78906C15.2197 5.24414 15.416 4.56152 15.9609 4.26562C16.1338 4.17188 16.3184 4.125 16.5 4.125ZM9.75 5.625C10.0166 5.625 10.2686 5.72754 10.4766 5.90625C10.4854 5.91504 10.4912 5.9209 10.5 5.92969C10.5586 5.98535 10.6172 6.04688 10.6641 6.11719C10.7344 6.2168 12.375 8.60742 12.375 12.1406C12.375 15.6182 10.8018 18.4453 10.7344 18.5625C10.5264 18.9287 10.1426 19.125 9.75 19.125C9.5625 19.125 9.36328 19.084 9.1875 18.9844C8.64844 18.6797 8.46094 17.9795 8.76562 17.4375C8.78613 17.4023 10.125 15 10.125 12.1406C10.125 9.34277 8.84766 7.40332 8.83594 7.38281C8.4873 6.87012 8.60742 6.1875 9.11719 5.83594C9.31055 5.70117 9.53027 5.625 9.75 5.625ZM13.4766 8.97656C14.1885 9.95508 14.877 11.1504 15.3516 12.5859C15.3076 13.793 15.126 14.9062 14.9062 15.8438C14.4961 14.4141 14.001 13.541 13.8281 13.2656C13.8604 12.8936 13.875 12.5303 13.875 12.1406C13.875 10.9629 13.708 9.89941 13.4766 8.97656ZM4.5 9C4.57617 9 5.51953 9.23145 6.39844 9.77344C7.21875 10.2803 8.06543 11.0244 8.625 12.0234C8.625 12.0615 8.625 12.0996 8.625 12.1406C8.625 12.8027 8.54004 13.4326 8.41406 14.0156C7.62598 12.8232 6.61523 12.0264 5.74219 11.4375C5.09766 11.0039 4.52051 10.6494 4.17188 10.3594C3.82324 10.0693 3.75 9.93164 3.75 9.75C3.75 9.3252 4.0752 9 4.5 9Z" fill="black"/>
</svg>
