<svg width="24" height="24" viewBox="0 0 24 24" fill="none" xmlns="http://www.w3.org/2000/svg">
<path d="M14.0127 11.5547C14.0127 10.0723 16.4209 9.94336 16.4209 7.0459C16.4209 4.94824 14.9619 3.94336 14.8125 3.85254H16.2656L17.7188 3H13.0107C8.2207 3 7.45312 6.35156 7.45312 7.46191C7.45312 9.11719 8.74805 11.1738 11.3525 11.1738C11.5898 11.1738 11.8418 11.1592 12.1084 11.1299C12.0645 11.2529 11.877 11.6748 11.877 12.0557C11.877 12.8525 12.3867 13.3594 12.5625 13.667C9.71191 13.6406 6.28125 14.877 6.28125 17.6279C6.28125 18.6328 7.14551 21 11.2061 21C15.8379 21 17.2412 18.1406 17.2412 16.5381C17.2383 13.4766 14.0127 12.9697 14.0127 11.5547ZM12.4395 10.5322C10.8193 10.5322 9.45117 8.49316 9.45117 6.31348C9.45117 5.66602 9.76172 3.78516 11.5547 3.78516C13.8633 3.78516 14.4258 7.20703 14.4258 8.13867C14.4258 8.35547 14.5781 10.5322 12.4395 10.5322ZM12.3281 20.0098C10.8428 20.0098 8.2793 19.377 8.2793 17.127C8.2793 16.3477 8.7334 14.3115 12.6768 14.3115C12.8789 14.3115 13.0547 14.3203 13.2041 14.335C14.0244 14.9473 15.7236 15.832 15.7236 17.4609C15.7236 18.1992 15.2842 20.0098 12.3281 20.0098Z" fill="black"/>
</svg>
