<svg width="24" height="24" viewBox="0 0 24 24" fill="none" xmlns="http://www.w3.org/2000/svg">
<path d="M8.57812 3.75L8.36719 4.10156L2.36719 13.8516L2.13281 14.2266L2.34375 14.625L5.34375 19.875L5.55469 20.25H18.4453L18.6562 19.875L21.6562 14.625L21.8672 14.2266L21.6328 13.8516L15.6328 4.10156L15.4219 3.75H8.57812ZM10.3359 5.25H14.5781L19.6641 13.5H15.4219L10.3359 5.25ZM9 5.92969L11.2266 9.5625L6.02344 18.0234L3.86719 14.25L9 5.92969ZM12.1172 10.9922L13.6641 13.5H10.5703L12.1172 10.9922ZM9.65625 15H19.7109L17.5547 18.75H7.33594L9.65625 15Z" fill="black"/>
</svg>
