<svg width="24" height="24" viewBox="0 0 24 24" fill="none" xmlns="http://www.w3.org/2000/svg">
<path d="M5.8125 2.24999C5.75684 2.24413 5.70703 2.2705 5.64844 2.27343C5.59863 2.27636 5.55762 2.26464 5.50781 2.27343C5.49902 2.27343 5.49316 2.27343 5.48438 2.27343C5.46094 2.27343 5.4375 2.27343 5.41406 2.27343C5.33203 2.29101 5.25293 2.32323 5.17969 2.36718C5.10059 2.4082 5.02734 2.46386 4.96875 2.53124C4.67578 2.77734 4.5 3.1582 4.5 3.51562V20.6016C4.5 20.9707 4.66406 21.416 5.0625 21.6328C5.0918 21.6475 5.12695 21.6445 5.15625 21.6562C5.17969 21.665 5.20312 21.6738 5.22656 21.6797C5.58398 21.7998 5.95605 21.7295 6.23438 21.5625C6.24316 21.5625 6.24902 21.5625 6.25781 21.5625C6.58008 21.3662 13.3125 17.25 13.3125 17.25L16.8984 15.0937C16.8984 15.0937 19.9395 13.2539 20.3438 13.0078C20.6865 12.7998 21.0059 12.4043 21 11.9297C20.9941 11.4551 20.666 11.1035 20.3438 10.9219C20.2412 10.8633 19.3389 10.3213 18.5156 9.8203C17.7275 9.33984 17.0361 8.92382 16.9688 8.8828C16.9453 8.86523 16.9219 8.85058 16.8984 8.83593L13.3125 6.65624C13.3125 6.65624 6.78809 2.69823 6.39844 2.46093C6.22559 2.35839 6.02051 2.27343 5.8125 2.24999ZM6 4.5703L13.0781 11.9531L6 19.3359V4.5703ZM9.60938 6.16405C10.9336 6.96679 12.5391 7.9453 12.5391 7.9453L15.3047 9.6328L14.1094 10.875L9.60938 6.16405ZM16.6172 10.4297C16.9043 10.6055 17.168 10.7607 17.7422 11.1094C18.3691 11.4902 18.8057 11.7334 19.1719 11.9531C18.4834 12.3691 17.1768 13.1748 16.6406 13.5L15.1641 11.9531L16.6172 10.4297ZM14.1094 13.0547L15.3047 14.2969L12.5391 15.9844C12.5391 15.9844 10.8955 16.9717 9.58594 17.7656L14.1094 13.0547Z" fill="black"/>
</svg>
