<svg width="24" height="24" viewBox="0 0 24 24" fill="none" xmlns="http://www.w3.org/2000/svg">
<path d="M3.75 3.75V20.25H20.25V3.75H3.75ZM5.25 5.25H18.75V18.75H5.25V5.25ZM10.1953 8.25C8.29181 8.25 6.75 9.79199 6.75 11.688C6.75 13.5915 8.29181 15.1333 10.1953 15.1333C12.1783 15.1333 13.5 13.7409 13.5 11.7744C13.5 11.5547 13.4768 11.4233 13.437 11.25H10.1953V12.3882H12.1465C12.0685 12.8914 11.5566 13.8677 10.1953 13.8677C9.02306 13.8677 8.06396 12.9005 8.06396 11.6968C8.06396 10.493 9.02306 9.51709 10.1953 9.51709C10.8636 9.51709 11.3129 9.80801 11.5649 10.0518L12.501 9.15381C11.8957 8.58756 11.1238 8.25 10.1953 8.25ZM15.2476 10.5V11.4976H14.25V12.5024H15.2476V13.5H16.2524V12.5024H17.25V11.4976H16.2524V10.5H15.2476Z" fill="black"/>
</svg>
