<svg width="24" height="24" viewBox="0 0 24 24" fill="none" xmlns="http://www.w3.org/2000/svg">
<path d="M6.75 3.75V7.5H6V10.5H4.5V15H3V20.25H6.75V15H7.5V10.5H8.25V7.5H9.75V10.5H9V15H8.25V20.25H9.75V18.75C9.75 17.5072 10.7572 16.5 12 16.5C13.2428 16.5 14.25 17.5072 14.25 18.75V20.25H15.75V15H15V10.5H14.25V7.5H15.75V10.5H16.5V15H17.25V20.25H21V15H19.5V10.5H18V7.5H17.25V3.75H15.75V5.25H14.25V3.75H12.75V5.25H11.25V3.75H9.75V5.25H8.25V3.75H6.75ZM12 8.25C12.414 8.25 12.75 8.586 12.75 9V10.5H11.25V9C11.25 8.586 11.586 8.25 12 8.25ZM12 12C12.8287 12 13.5 12.6713 13.5 13.5V15H10.5V13.5C10.5 12.6713 11.1713 12 12 12Z" fill="black"/>
</svg>
