<svg width="24" height="24" viewBox="0 0 24 24" fill="none" xmlns="http://www.w3.org/2000/svg">
<path d="M12 3.65625L11.6484 3.84375L1.52344 9.09375L0.234375 9.75L1.5 10.3828V16.7109C1.05176 16.9717 0.75 17.4463 0.75 18C0.75 18.8291 1.4209 19.5 2.25 19.5C3.0791 19.5 3.75 18.8291 3.75 18C3.75 17.4463 3.44824 16.9717 3 16.7109V11.1562L4.5 11.9297V15.75C4.5 16.0811 4.65234 16.3799 4.82812 16.5703C5.00391 16.7607 5.21777 16.875 5.4375 16.9922C5.87988 17.2236 6.4043 17.3877 7.05469 17.5312C8.35547 17.8213 10.0898 18 12 18C13.9102 18 15.6445 17.8213 16.9453 17.5312C17.5957 17.3877 18.1201 17.2236 18.5625 16.9922C18.7822 16.875 18.9961 16.7607 19.1719 16.5703C19.3477 16.3799 19.5 16.0811 19.5 15.75V11.9297L22.4766 10.4062L23.7656 9.75L22.4766 9.09375L12.3516 3.84375L12 3.65625ZM12 5.34375L20.4844 9.75L19.1484 10.4297C18.9785 10.251 18.7734 10.1191 18.5625 10.0078C18.123 9.77637 17.5957 9.6123 16.9453 9.46875C15.6475 9.17871 13.9189 9 12 9C10.0811 9 8.35254 9.17871 7.05469 9.46875C6.4043 9.6123 5.87695 9.77637 5.4375 10.0078C5.22656 10.1191 5.02148 10.251 4.85156 10.4297L3.51562 9.75L12 5.34375ZM12 10.5C13.8311 10.5 15.4775 10.667 16.6172 10.9219C17.1855 11.0479 17.6426 11.1943 17.8828 11.3203C17.959 11.3613 17.9707 11.3906 18 11.4141V14.2734C17.6865 14.1592 17.3438 14.0566 16.9453 13.9688C15.6445 13.6787 13.9102 13.5 12 13.5C10.0898 13.5 8.35547 13.6787 7.05469 13.9688C6.65625 14.0566 6.31348 14.1592 6 14.2734V11.4141C6.0293 11.3906 6.04102 11.3613 6.11719 11.3203C6.35742 11.1943 6.81445 11.0479 7.38281 10.9219C8.52246 10.667 10.1689 10.5 12 10.5ZM12 15C13.8193 15 15.4746 15.167 16.6172 15.4219C17.0918 15.5273 17.3906 15.6387 17.6484 15.75C17.3906 15.8613 17.0918 15.9727 16.6172 16.0781C15.4746 16.333 13.8193 16.5 12 16.5C10.1807 16.5 8.52539 16.333 7.38281 16.0781C6.9082 15.9727 6.60938 15.8613 6.35156 15.75C6.60938 15.6387 6.9082 15.5273 7.38281 15.4219C8.52539 15.167 10.1807 15 12 15Z" fill="black"/>
</svg>
