<svg width="24" height="24" viewBox="0 0 24 24" fill="none" xmlns="http://www.w3.org/2000/svg">
<path d="M12 2.25C6.624 2.25 2.25 6.624 2.25 12C2.25 17.376 6.624 21.75 12 21.75C17.376 21.75 21.75 17.376 21.75 12C21.75 6.624 17.376 2.25 12 2.25ZM12 3.75C16.5487 3.75 20.25 7.45125 20.25 12C20.25 16.5487 16.5487 20.25 12 20.25C7.45125 20.25 3.75 16.5487 3.75 12C3.75 7.45125 7.45125 3.75 12 3.75ZM11.918 5.26465C11.7194 5.26821 11.51 5.37784 11.3848 5.62646C11.3878 5.62046 11.3949 5.61335 11.3979 5.61035C11.2397 5.9876 11.5567 7.4738 12.1274 8.4668C12.0479 8.51105 11.9978 8.55398 11.874 8.67773C11.1893 8.98523 10.0913 10.5908 10.0913 10.5908C9.19731 10.9336 7.64378 11.9559 7.85303 12.8687C7.86278 12.9639 7.89724 13.043 7.94824 13.106C7.85974 13.1757 7.77307 13.2646 7.68457 13.3696C7.30732 13.8076 7.51661 14.4851 8.24561 14.1431C8.74661 13.9151 9.18472 13.5024 9.39697 13.1792C9.39697 13.1792 9.22335 13.0213 8.88135 13.04C9.7596 12.8308 9.98019 12.9592 10.3462 13.002C10.5997 13.1257 10.5996 11.9136 10.5996 11.9136C10.5996 11.4471 10.53 10.9311 10.248 10.5981C10.6448 10.9851 11.1702 11.6343 11.1357 12.5186C11.1102 13.0991 10.6538 13.248 10.6538 13.248C10.3651 13.7745 9.28344 15.3386 9.68994 16.6099C9.68994 16.6099 9.38196 16.1384 9.36621 15.9097C8.81421 16.5247 7.89241 17.5683 8.58691 17.9546C9.43066 18.4211 12.0376 15.1447 12.5889 13.4414C13.6861 12.7814 14.3455 11.9421 14.6147 11.3804C15.3107 12.7611 17.7723 14.1848 17.9561 13.0591C18.0356 12.5483 17.3153 12.5319 17.1562 12.2432C16.725 11.4789 16.142 11.2694 15.2915 11.4727C15.6598 11.2192 16.0371 11.2793 16.0371 11.2793C16.0469 11.076 16.0375 10.867 15.7397 10.4897C15.8635 10.093 15.7485 9.7793 15.7485 9.7793C16.2398 9.5063 16.5986 9.00592 16.6714 8.40967C16.7854 7.42642 16.0755 6.53223 15.0923 6.41748C14.391 6.33798 13.7056 6.66118 13.3696 7.23193C12.6339 8.50393 13.4141 9.48145 14.0801 9.81445C13.6233 9.7702 12.9931 9.43632 12.8086 8.72607C12.6278 8.02182 12.8256 7.35568 13.0078 6.95068C13.0078 6.95068 12.5996 6.61023 12.4849 6.51123C12.4849 6.51123 12.0461 6.51169 11.7041 6.67969C12.0814 6.19744 12.5039 6.22266 12.5039 6.22266C12.5039 6.01941 12.4849 5.75082 12.3896 5.53857C12.3041 5.3642 12.1165 5.26109 11.918 5.26465ZM14.603 6.96973C14.9159 7.00348 15.2185 7.2073 15.5215 7.49268C15.8987 7.85118 16.4504 8.28176 16.0664 9.02051C15.6697 9.76601 14.6369 10.074 14.0024 9.62695C13.3717 9.1702 12.93 8.25606 13.6245 7.46631C13.9669 7.07143 14.2902 6.93598 14.603 6.96973ZM15.2842 8.12109C15.0484 8.15175 14.8378 8.50726 15.0234 8.72607C15.2574 9.01182 16.0407 8.80209 15.5142 8.21484C15.4437 8.13553 15.3628 8.11088 15.2842 8.12109ZM12.8848 10.0576C12.9803 10.0576 13.0767 10.0933 13.1514 10.1631L13.4854 10.5059C13.6249 10.6454 13.6249 10.882 13.4854 11.0215L13.1777 11.3291C13.0382 11.4784 12.7996 11.4784 12.6504 11.3291L12.3179 10.9966C12.1784 10.8473 12.1784 10.62 12.3179 10.4707L12.6255 10.1631C12.6952 10.0933 12.7892 10.0576 12.8848 10.0576Z" fill="black"/>
</svg>
