<svg width="24" height="24" viewBox="0 0 24 24" fill="none" xmlns="http://www.w3.org/2000/svg">
<path d="M12 2.25C6.624 2.25 2.25 6.624 2.25 12C2.25 17.376 6.624 21.75 12 21.75C17.376 21.75 21.75 17.376 21.75 12C21.75 6.624 17.376 2.25 12 2.25ZM12 3.75C16.5487 3.75 20.25 7.45125 20.25 12C20.25 16.5487 16.5487 20.25 12 20.25C7.45125 20.25 3.75 16.5487 3.75 12C3.75 7.45125 7.45125 3.75 12 3.75ZM8.625 9C8.32663 9 8.04048 9.11853 7.8295 9.3295C7.61853 9.54048 7.5 9.82663 7.5 10.125C7.5 10.4234 7.61853 10.7095 7.8295 10.9205C8.04048 11.1315 8.32663 11.25 8.625 11.25C8.92337 11.25 9.20952 11.1315 9.4205 10.9205C9.63147 10.7095 9.75 10.4234 9.75 10.125C9.75 9.82663 9.63147 9.54048 9.4205 9.3295C9.20952 9.11853 8.92337 9 8.625 9ZM15.375 9C15.0766 9 14.7905 9.11853 14.5795 9.3295C14.3685 9.54048 14.25 9.82663 14.25 10.125C14.25 10.4234 14.3685 10.7095 14.5795 10.9205C14.7905 11.1315 15.0766 11.25 15.375 11.25C15.6734 11.25 15.9595 11.1315 16.1705 10.9205C16.3815 10.7095 16.5 10.4234 16.5 10.125C16.5 9.82663 16.3815 9.54048 16.1705 9.3295C15.9595 9.11853 15.6734 9 15.375 9ZM8.82422 13.0181L7.67432 13.9819C8.33189 14.7654 9.33852 15.3198 10.5 15.5801V16.5C10.5 17.325 11.175 18 12 18C12.825 18 13.5 17.325 13.5 16.5V15.5801C14.6614 15.3197 15.6672 14.7659 16.3242 13.9819L15.1743 13.0181C14.5383 13.7786 13.3223 14.25 12 14.25C10.6777 14.25 9.46097 13.7778 8.82422 13.0181Z" fill="black"/>
</svg>
