<svg width="24" height="24" viewBox="0 0 24 24" fill="none" xmlns="http://www.w3.org/2000/svg">
<path d="M12 2.25C6.65251 2.25 2.30016 6.57875 2.25441 11.9165C2.68491 11.744 3.19428 11.5704 3.78078 11.3979C4.09053 7.1297 7.65376 3.75 12 3.75C16.3463 3.75 19.9095 7.1297 20.2193 11.3979C20.8058 11.5704 21.3151 11.744 21.7456 11.9165C21.6999 6.57875 17.3475 2.25 12 2.25ZM6.75001 10.5V12H10.5V10.5H6.75001ZM13.5 10.5V12H17.25V10.5H13.5ZM4.50001 12.75C4.50001 12.75 2.27282 13.3761 1.83107 13.8179C1.38932 14.2596 1.38932 14.9772 1.83107 15.4189C2.27282 15.8607 2.99039 15.8607 3.43214 15.4189C3.87389 14.9772 4.50001 12.75 4.50001 12.75ZM19.5 12.75C19.5 12.75 20.1261 14.9772 20.5679 15.4189C21.0096 15.8607 21.7272 15.8607 22.169 15.4189C22.6107 14.9772 22.6107 14.2596 22.169 13.8179C21.7272 13.3761 19.5 12.75 19.5 12.75ZM6.75001 14.25C6.75001 14.25 7.95751 18 12 18C16.0425 18 17.25 14.25 17.25 14.25H6.75001ZM4.82081 16.0503C4.71131 16.225 4.60069 16.3715 4.49269 16.4795C4.25194 16.7202 3.97173 16.9056 3.66798 17.0361C5.37873 19.8561 8.46826 21.75 12 21.75C15.5318 21.75 18.6213 19.8561 20.332 17.0361C20.0283 16.9056 19.7481 16.721 19.5073 16.4795C19.3986 16.3707 19.2887 16.2243 19.1792 16.0503C17.761 18.5538 15.0773 20.25 12 20.25C8.92276 20.25 6.23906 18.5538 4.82081 16.0503Z" fill="black"/>
</svg>
