<svg width="24" height="24" viewBox="0 0 24 24" fill="none" xmlns="http://www.w3.org/2000/svg">
<path d="M12 2.25C6.624 2.25 2.25 6.624 2.25 12C2.25 17.376 6.624 21.75 12 21.75C17.376 21.75 21.75 17.376 21.75 12C21.75 6.624 17.376 2.25 12 2.25ZM12 3.75C16.5487 3.75 20.25 7.45125 20.25 12C20.25 16.5487 16.5487 20.25 12 20.25C7.45125 20.25 3.75 16.5487 3.75 12C3.75 7.45125 7.45125 3.75 12 3.75ZM8.625 8.25C8.32663 8.25 8.04048 8.48705 7.8295 8.90901C7.61853 9.33097 7.5 9.90326 7.5 10.5C7.5 11.0967 7.61853 11.669 7.8295 12.091C8.04048 12.5129 8.32663 12.75 8.625 12.75C8.92337 12.75 9.20952 12.5129 9.4205 12.091C9.63147 11.669 9.75 11.0967 9.75 10.5C9.75 9.90326 9.63147 9.33097 9.4205 8.90901C9.20952 8.48705 8.92337 8.25 8.625 8.25ZM15.375 8.25C15.0766 8.25 14.7905 8.48705 14.5795 8.90901C14.3685 9.33097 14.25 9.90326 14.25 10.5C14.25 11.0967 14.3685 11.669 14.5795 12.091C14.7905 12.5129 15.0766 12.75 15.375 12.75C15.6734 12.75 15.9595 12.5129 16.1705 12.091C16.3815 11.669 16.5 11.0967 16.5 10.5C16.5 9.90326 16.3815 9.33097 16.1705 8.90901C15.9595 8.48705 15.6734 8.25 15.375 8.25ZM6.75 14.25C6.75 14.25 7.95375 18 12 18C16.0463 18 17.25 14.25 17.25 14.25H6.75Z" fill="black"/>
</svg>
