<svg width="24" height="24" viewBox="0 0 24 24" fill="none" xmlns="http://www.w3.org/2000/svg">
<path d="M12 2.25C6.624 2.25 2.25 6.624 2.25 12C2.25 17.376 6.624 21.75 12 21.75C17.376 21.75 21.75 17.376 21.75 12C21.75 10.4595 21.3812 9.00622 20.7422 7.70947C20.5172 8.23972 20.1486 8.69005 19.6919 9.03955C20.0474 9.9598 20.25 10.956 20.25 12C20.25 16.5487 16.5487 20.25 12 20.25C7.45125 20.25 3.75 16.5487 3.75 12C3.75 7.45125 7.45125 3.75 12 3.75C13.0133 3.75 13.9807 3.94209 14.8784 4.27734C15.0734 3.83334 15.2984 3.37683 15.5361 2.92383C14.4381 2.49483 13.248 2.25 12 2.25ZM17.625 2.25C17.625 2.25 15.75 5.45596 15.75 6.44971C15.75 7.44346 16.59 8.25 17.625 8.25C18.66 8.25 19.5 7.44346 19.5 6.44971C19.5 5.45596 17.625 2.25 17.625 2.25ZM6.75 10.5V12H10.5V10.5H6.75ZM13.5 10.5V12H17.25V10.5H13.5Z" fill="black"/>
</svg>
