<svg width="24" height="24" viewBox="0 0 24 24" fill="none" xmlns="http://www.w3.org/2000/svg">
<path d="M12 2.25C6.624 2.25 2.25 6.624 2.25 12C2.25 17.376 6.624 21.75 12 21.75C17.376 21.75 21.75 17.376 21.75 12C21.75 6.624 17.376 2.25 12 2.25ZM12 3.75C16.5487 3.75 20.25 7.45125 20.25 12C20.25 16.5487 16.5487 20.25 12 20.25C7.45125 20.25 3.75 16.5487 3.75 12C3.75 7.45125 7.45125 3.75 12 3.75ZM8.25 9C6.6795 9 5.54297 9.90527 5.54297 9.90527L6.45703 11.0947C6.45703 11.0947 7.26971 10.5 8.25146 10.5C9.23321 10.5 10.0444 11.0947 10.0444 11.0947L10.9585 9.90527C10.957 9.90527 9.8205 9 8.25 9ZM15.75 9C14.1795 9 13.043 9.90527 13.043 9.90527L13.957 11.0947C13.957 11.0947 14.7697 10.5 15.7515 10.5C16.7332 10.5 17.5444 11.0947 17.5444 11.0947L18.4585 9.90527C18.457 9.90527 17.3205 9 15.75 9ZM8.82422 13.0181L7.67432 13.9819C8.33189 14.7654 9.33852 15.3198 10.5 15.5801V16.5C10.5 17.325 11.175 18 12 18C12.825 18 13.5 17.325 13.5 16.5V15.5801C14.6614 15.3197 15.6672 14.7659 16.3242 13.9819L15.1743 13.0181C14.5383 13.7786 13.3223 14.25 12 14.25C10.6777 14.25 9.46097 13.7778 8.82422 13.0181Z" fill="black"/>
</svg>
