<svg width="24" height="24" viewBox="0 0 24 24" fill="none" xmlns="http://www.w3.org/2000/svg">
<path d="M12 2.25C6.6525 2.25 2.30014 6.57875 2.25439 11.9165C2.68489 11.744 3.19426 11.5704 3.78076 11.3979C4.09051 7.1297 7.65375 3.75 12 3.75C16.3462 3.75 19.9095 7.1297 20.2192 11.3979C20.8057 11.5704 21.3151 11.744 21.7456 11.9165C21.6999 6.57875 17.3475 2.25 12 2.25ZM6.75 10.5V12H10.5V10.5H6.75ZM13.5 10.5V12H17.25V10.5H13.5ZM4.5 12.75C4.5 12.75 2.2728 13.3761 1.83105 13.8179C1.3893 14.2596 1.3893 14.9772 1.83105 15.4189C2.2728 15.8607 2.99038 15.8607 3.43213 15.4189C3.87388 14.9772 4.5 12.75 4.5 12.75ZM19.5 12.75C19.5 12.75 20.1261 14.9772 20.5679 15.4189C21.0096 15.8607 21.7272 15.8607 22.1689 15.4189C22.6107 14.9772 22.6107 14.2596 22.1689 13.8179C21.7272 13.3761 19.5 12.75 19.5 12.75ZM6.75 14.25C6.75 14.25 7.9575 18 12 18C16.0425 18 17.25 14.25 17.25 14.25H6.75ZM4.8208 16.0503C4.7113 16.225 4.60067 16.3715 4.49267 16.4795C4.25192 16.7202 3.97172 16.9056 3.66797 17.0361C5.37872 19.8561 8.46825 21.75 12 21.75C15.5317 21.75 18.6213 19.8561 20.332 17.0361C20.0283 16.9056 19.7481 16.721 19.5073 16.4795C19.3986 16.3707 19.2887 16.2243 19.1792 16.0503C17.7609 18.5538 15.0772 20.25 12 20.25C8.92275 20.25 6.23905 18.5538 4.8208 16.0503Z" fill="black"/>
</svg>
