<svg width="24" height="24" viewBox="0 0 24 24" fill="none" xmlns="http://www.w3.org/2000/svg">
<path d="M12 2.25C6.624 2.25 2.25 6.624 2.25 12C2.25 14.91 3.53841 17.5186 5.56641 19.3066C5.71041 18.9391 5.9277 18.4677 6.23145 17.8887C4.7022 16.3902 3.75 14.3048 3.75 12C3.75 7.45125 7.45125 3.75 12 3.75C14.3048 3.75 16.3902 4.7022 17.8887 6.23145C18.4684 5.9277 18.9391 5.70966 19.3066 5.56641C17.5186 3.53841 14.91 2.25 12 2.25ZM20.625 6.75C20.004 6.75 18 7.875 18 7.875C18 7.875 20.004 9 20.625 9C21.246 9 21.75 8.496 21.75 7.875C21.75 7.254 21.246 6.75 20.625 6.75ZM14.4697 6.96973L11.4697 9.96973L12.5303 11.0303L15.5303 8.03027L14.4697 6.96973ZM17.6777 10.0723L10.0723 17.6777C10.6798 17.8877 11.325 18 12 18C15.315 18 18 15.315 18 12C18 11.325 17.8877 10.6798 17.6777 10.0723ZM21.5933 10.3096C21.2933 10.4296 20.9678 10.5 20.625 10.5C20.5343 10.5 20.3737 10.4978 20.0977 10.4355C20.1952 10.9425 20.25 11.4645 20.25 12C20.25 16.5487 16.5487 20.25 12 20.25C11.4645 20.25 10.9425 20.1952 10.4355 20.0977C10.4978 20.3737 10.5 20.5343 10.5 20.625C10.5 20.9678 10.4296 21.2933 10.3096 21.5933C10.8601 21.69 11.4225 21.75 12 21.75C17.376 21.75 21.75 17.376 21.75 12C21.75 11.4225 21.69 10.8601 21.5933 10.3096ZM9.96973 11.4697L6.96973 14.4697L8.03027 15.5303L11.0303 12.5303L9.96973 11.4697ZM7.875 18C7.875 18 6.75 20.004 6.75 20.625C6.75 21.246 7.254 21.75 7.875 21.75C8.496 21.75 9 21.246 9 20.625C9 20.004 7.875 18 7.875 18Z" fill="black"/>
</svg>
