<svg width="24" height="24" viewBox="0 0 24 24" fill="none" xmlns="http://www.w3.org/2000/svg">
<path d="M12 2.25C6.624 2.25 2.25 6.624 2.25 12C2.25 17.376 6.624 21.75 12 21.75C17.376 21.75 21.75 17.376 21.75 12C21.75 6.624 17.376 2.25 12 2.25ZM12 3.75C16.5487 3.75 20.25 7.45125 20.25 12C20.25 16.5487 16.5487 20.25 12 20.25C7.45125 20.25 3.75 16.5487 3.75 12C3.75 7.45125 7.45125 3.75 12 3.75ZM7.54102 8.37598L6.70898 9.62402L8.02295 10.5L6.70898 11.376L7.54102 12.624L10.7271 10.5L7.54102 8.37598ZM16.459 8.37598L13.2729 10.5L16.459 12.624L17.291 11.376L15.9771 10.5L17.291 9.62402L16.459 8.37598ZM6.75 14.25C6.75 14.25 7.95375 18 12 18C16.0463 18 17.25 14.25 17.25 14.25H6.75Z" fill="black"/>
</svg>
