<svg width="24" height="24" viewBox="0 0 24 24" fill="none" xmlns="http://www.w3.org/2000/svg">
<path d="M12.8394 2.25293C11.7166 2.64893 11.4343 3.25302 11.3511 3.80127C11.0616 3.59577 11.0959 2.92273 11.0771 2.75098C10.7914 2.78548 9.96663 3.58436 10.0049 4.58936C9.92838 4.60811 9.85505 4.63131 9.7793 4.65381C9.5318 4.31856 8.82465 3.4552 7.8999 3.1582C7.5984 3.0727 7.28952 3.02197 6.98877 3.02197C5.88477 3.02197 5.23406 3.68098 5.22656 3.68848L4.91895 4.0459L5.38623 4.13818C5.39373 4.13818 6.17047 4.30137 6.49072 4.80762C6.54397 4.89162 6.55847 5.05832 6.57422 5.23682C6.58172 5.34332 6.56003 5.4469 6.54053 5.5459C6.52553 5.6179 6.50912 5.69427 6.50537 5.77002C6.21212 5.78277 5.96445 5.84012 5.7627 5.94287C5.48895 6.08387 5.30231 6.30687 5.22656 6.58887C5.03606 7.28187 5.65302 8.05529 5.67627 8.08154C5.74827 8.21129 5.77907 9.13995 5.61182 9.5127C5.58932 9.56595 5.52725 9.61519 5.44775 9.67969C5.42075 9.69844 5.39501 9.72164 5.36426 9.74414C5.13176 9.91889 4.77686 10.189 4.77686 10.8018C4.77686 11.6433 5.63019 12.1006 6.31494 12.4658C6.42894 12.5266 6.5361 12.5831 6.63135 12.6401C6.7341 12.7009 7.0957 13.0753 7.0957 13.6348C7.0957 13.8973 7.07211 15.1453 6.95361 16.0093C6.51186 15.6328 6.10833 15.024 6.01758 14.3423C6.01758 14.3423 4.90614 15.2031 5.23389 17.0376C5.43189 18.1603 6.11646 18.7921 7.02246 19.1191C7.35771 19.8459 8.14147 20.8588 9.58447 21.0073C10.1327 21.4566 10.8944 21.7485 12.0059 21.7485H12.0132C13.1209 21.7485 13.8826 21.4566 14.4346 21.0073C15.8768 20.8588 16.6613 19.8459 16.9966 19.1191C17.9026 18.7876 18.5834 18.1603 18.7852 17.0376C19.0972 15.1963 17.9824 14.3394 17.9824 14.3394C17.8909 15.0204 17.4874 15.6262 17.0464 16.0034C16.9286 15.1394 16.9043 13.8899 16.9043 13.6274C16.9043 13.0679 17.2659 12.6958 17.3687 12.6343C17.4639 12.5773 17.5748 12.5192 17.6851 12.4585C18.3706 12.0932 19.2231 11.6374 19.2231 10.7959C19.2231 10.1794 18.8682 9.91232 18.6357 9.73682C18.605 9.71432 18.5792 9.69486 18.5522 9.67236C18.472 9.60786 18.4107 9.55862 18.3882 9.50537C18.2209 9.13262 18.251 8.20322 18.3237 8.07422C18.3462 8.05172 18.9602 7.27901 18.7734 6.58301C18.6969 6.30101 18.5103 6.07655 18.2358 5.93555C18.0341 5.8328 17.7827 5.77541 17.4932 5.76416C17.4894 5.68766 17.4752 5.61579 17.4595 5.54004C17.437 5.44104 17.4168 5.33892 17.4243 5.23242C17.4393 5.05317 17.456 4.88876 17.5093 4.80176C17.8288 4.29551 18.6048 4.13232 18.6123 4.13232L19.0811 4.0415L18.772 3.67969C18.7682 3.67219 18.1138 3.01318 17.0098 3.01318C16.709 3.01318 16.401 3.0636 16.0928 3.1626C15.1718 3.4596 14.4594 4.32295 14.2119 4.6582C14.0942 4.61995 13.9724 4.58641 13.8472 4.55566C13.6874 3.95416 14.1899 3.08936 14.1899 3.08936C14.1899 3.08936 13.6732 2.97572 12.9082 3.66797C12.8092 3.42047 12.5994 2.88893 12.8394 2.25293ZM6.99609 3.59473C7.22859 3.59473 7.45317 3.62902 7.66992 3.69727C8.34717 3.91777 8.87372 4.57995 9.10547 4.91895C9.04472 4.94595 8.98386 4.97169 8.92236 5.00244C8.82711 5.04819 8.73462 5.09732 8.65137 5.14307C8.55237 4.93757 8.33578 4.62203 7.86328 4.29053C7.54753 4.07003 7.17108 3.95215 6.76758 3.95215C6.63933 3.9559 6.5163 3.97084 6.4248 3.98584C6.29955 3.90259 6.17341 3.83319 6.05566 3.78369C6.23866 3.70794 6.57684 3.59473 6.99609 3.59473ZM16.9995 3.59473C17.418 3.59473 17.7569 3.70866 17.9399 3.78516C17.8222 3.83841 17.6961 3.90559 17.5708 3.98584C17.4793 3.97084 17.358 3.95508 17.2207 3.95508C16.821 3.95508 16.4407 4.07367 16.1279 4.29492C15.6599 4.62642 15.4426 4.93821 15.3398 5.14746C15.2558 5.09796 15.1693 5.05259 15.0703 5.00684C15.0096 4.97609 14.9516 4.94887 14.8901 4.92188C15.1226 4.57538 15.6484 3.91402 16.3257 3.69727C16.5387 3.62902 16.7678 3.59473 16.9995 3.59473ZM17.1255 4.38867C17.0947 4.42692 17.0646 4.469 17.0376 4.51025C16.9123 4.70825 16.8894 4.95298 16.8706 5.18848C16.8519 5.43223 16.8289 5.66272 16.7036 5.83447C16.5439 5.86522 16.3954 5.90023 16.2656 5.93848C16.1779 5.82073 16.0525 5.67196 15.8657 5.51221C15.919 5.32921 16.0754 4.89902 16.3799 4.65527C16.5929 4.49177 16.8435 4.39992 17.1255 4.38867ZM6.87012 4.39307C7.15212 4.40432 7.40354 4.49242 7.61279 4.65967C7.91729 4.89967 8.0737 5.32996 8.12695 5.51221C7.9402 5.67196 7.81105 5.81698 7.72705 5.93848C7.5973 5.90398 7.44956 5.86522 7.28906 5.83447C7.16381 5.66722 7.14596 5.43662 7.12646 5.19287C7.10771 4.95662 7.08326 4.71265 6.95801 4.51465C6.93101 4.47265 6.90087 4.43132 6.87012 4.39307ZM11.9971 4.98779C13.0591 4.98779 14.0112 5.19009 14.8257 5.58984C15.3664 5.85234 15.5717 6.05381 15.6475 6.16406C14.353 6.73856 13.6349 7.92234 13.6274 7.93359L13.4927 8.15479L13.7065 8.00684C13.7065 8.00684 13.7137 8.00262 13.7212 7.99512C14.0527 7.73637 15.2061 6.86032 16.1616 6.55957C16.4279 6.47557 16.9453 6.33105 17.4141 6.33105C17.6541 6.33105 17.8435 6.37038 17.9883 6.44238C18.1218 6.51063 18.2049 6.60853 18.2432 6.73828C18.3384 7.08478 18.011 7.5997 17.8857 7.75195C17.867 7.77445 17.8509 7.80095 17.8359 7.83545C17.8247 7.6607 17.8167 7.47435 17.8242 7.2876C17.672 7.62285 17.5776 8.48658 17.6309 8.92383C17.7681 10.0391 18.2285 10.6099 18.2285 10.6099C18.1978 10.5491 18.1605 10.3167 18.126 10.043C18.153 10.0655 18.1825 10.0879 18.2095 10.1104L18.2285 10.1265C18.4033 10.2675 18.5669 10.3963 18.5669 10.8193C18.5669 11.3601 17.9802 11.675 17.417 11.9795C17.3067 12.0365 17.2004 12.0968 17.0977 12.1538C16.7662 12.3443 16.4123 12.7901 16.3711 13.4561C16.3366 14.0118 16.4062 15.3562 16.5015 16.3462C16.0297 16.5292 15.4847 16.589 14.9897 16.604C14.9132 16.448 14.841 16.2815 14.7803 16.106C14.7533 16.0295 14.0341 14.1603 13.7754 13.7373C13.9846 15.2216 14.4417 16.5422 14.6704 17.1475C14.5369 17.1287 14.3931 17.1211 14.2251 17.1211H9.77051C9.60326 17.1211 9.45495 17.1317 9.3252 17.1475C9.55395 16.5422 10.0147 15.2216 10.2202 13.7373C9.96146 14.1633 9.24233 16.0332 9.21533 16.106C9.15458 16.2807 9.08161 16.448 9.00586 16.604C8.51086 16.589 7.97039 16.5284 7.49414 16.3462C7.58939 15.3562 7.65826 14.0156 7.62451 13.4561C7.59001 12.7931 7.23163 12.3436 6.90088 12.1538C6.79813 12.0931 6.68804 12.0365 6.58154 11.9795C6.01454 11.675 5.43164 11.3601 5.43164 10.8193C5.43164 10.3971 5.59598 10.2637 5.77148 10.1265L5.79053 10.1104C5.81753 10.0879 5.84327 10.0655 5.87402 10.043C5.83952 10.3167 5.80223 10.5491 5.77148 10.6099C5.77148 10.6099 6.23189 10.0391 6.36914 8.92383C6.42239 8.48583 6.32657 7.61835 6.17432 7.2876C6.18182 7.47435 6.17531 7.65995 6.16406 7.83545C6.14906 7.8047 6.13301 7.7752 6.11426 7.75195C5.99276 7.5997 5.66534 7.08478 5.75684 6.73828C5.79134 6.60478 5.87447 6.51063 6.01172 6.44238C6.15647 6.37038 6.34669 6.33105 6.58594 6.33105C7.05394 6.33105 7.57138 6.47182 7.83838 6.55957C8.79388 6.86407 9.94659 7.73637 10.2773 7.99512C10.2848 8.00262 10.2935 8.00684 10.2935 8.00684L10.5059 8.15479L10.3726 7.93359C10.3651 7.92234 9.64639 6.73856 8.34814 6.16406C8.42464 6.05381 8.62992 5.85609 9.16992 5.58984C9.98442 5.19009 10.9388 4.98779 11.9971 4.98779ZM10.957 8.729C10.9585 8.729 11.5111 9.39826 11.9941 9.40576H12.0015C12.4852 9.40201 13.0371 8.729 13.0371 8.729C12.6606 8.95775 12.3211 9.03645 11.9971 9.04395C11.6738 9.03645 11.3343 8.957 10.957 8.729ZM7.36084 8.77734C7.17396 8.78162 6.98002 8.80495 6.7793 8.85352C6.94194 8.89157 7.11668 8.94621 7.29053 9.01025C7.13003 9.08675 7.04196 9.27982 7.02246 9.46582C6.98046 9.84682 7.22168 10.1938 7.22168 10.1938C7.24868 9.9081 7.30431 9.70504 7.37256 9.56104C7.38756 9.95329 7.49435 10.4569 7.86035 10.8604C8.12285 11.1499 9.21643 11.7465 9.95068 11.0918C9.98893 11.1833 10.0312 11.294 10.0649 11.4155C10.1752 11.8078 9.96094 12.3794 9.96094 12.3794C9.96094 12.3794 10.5355 11.7274 10.4897 11.1416C10.9007 11.1229 11.3052 10.8219 11.2939 10.3989C11.2939 10.3989 10.5741 10.7962 9.94189 10.0649C9.61902 9.69219 8.669 8.74742 7.36084 8.77734ZM16.6333 8.78467C15.323 8.75461 14.3766 9.69886 14.0537 10.0723C13.4177 10.8028 12.7017 10.4077 12.7017 10.4077C12.6942 10.8225 13.0978 11.1259 13.5088 11.1416C13.463 11.7319 14.0376 12.3794 14.0376 12.3794C14.0376 12.3794 13.8248 11.8078 13.9351 11.4155C13.9696 11.294 14.0118 11.1863 14.0493 11.0918C14.7843 11.7503 15.8765 11.1499 16.1353 10.8604C16.5005 10.4569 16.6021 9.95329 16.6216 9.56104C16.6898 9.70579 16.7514 9.90885 16.7739 10.1938C16.7739 10.1938 17.0189 9.84607 16.9731 9.46582C16.9506 9.27532 16.8625 9.08583 16.7065 9.01758H16.7021C16.8769 8.94933 17.0528 8.89534 17.2163 8.86084C17.015 8.81228 16.8205 8.78896 16.6333 8.78467ZM8.10059 9.39844C8.84309 9.81694 9.52431 10.3757 9.81006 10.8062C9.59331 10.9314 8.98379 11.2022 8.36279 10.7417C7.97054 10.4522 7.98959 9.74494 8.10059 9.39844ZM15.895 9.39844C16.009 9.74494 16.0259 10.4528 15.6299 10.7461C15.0096 11.2066 14.4038 10.9359 14.187 10.8062C14.472 10.3719 15.1533 9.81694 15.895 9.39844ZM5.87256 15.4131C6.28731 16.7226 7.66982 17.0981 8.70557 17.1401C8.60282 17.2999 8.50721 17.4295 8.43896 17.521L8.38623 17.5752C8.11248 17.8722 8.05849 18.2789 8.22949 18.7852C7.36549 18.7807 6.46765 18.4116 6.01465 17.6616C5.55415 16.9004 5.68206 15.6028 5.87256 15.4131ZM18.1274 15.416C18.3172 15.6073 18.4467 16.9041 17.9824 17.6616C17.5257 18.4116 16.627 18.7775 15.7705 18.7925C15.9415 18.2862 15.8875 17.8743 15.6138 17.5811C15.5988 17.5623 15.5798 17.5427 15.561 17.5239C15.4928 17.4324 15.3972 17.3036 15.2944 17.1431C16.3294 17.0973 17.7127 16.7255 18.1274 15.416ZM9.73682 17.6089H14.2588C14.8333 17.6089 15.0883 17.7576 15.1948 17.8828C15.3546 18.0658 15.365 18.362 15.2285 18.7617C14.978 19.4772 14.3041 21.2218 11.9971 21.2256C9.69007 21.2218 9.01687 19.4817 8.76562 18.7617C8.62462 18.362 8.63653 18.0688 8.80078 17.8828C8.91103 17.7576 9.16232 17.6089 9.73682 17.6089ZM13.2246 18.1875C13.0649 18.1875 12.95 18.2218 12.8848 18.29C12.8008 18.3778 12.8286 18.4879 12.8511 18.5449C12.8893 18.6439 13.0604 18.975 13.3462 19.2803C13.4489 19.3905 13.5964 19.4517 13.7637 19.4517C13.9309 19.4517 14.0956 19.391 14.2134 19.292C14.3011 19.2155 14.6021 18.9411 14.7349 18.6021C14.7844 18.4768 14.7725 18.3738 14.6997 18.3018C14.651 18.2523 14.5478 18.1912 14.3423 18.1875H13.2246ZM9.66064 18.1919C9.45139 18.1919 9.34833 18.2523 9.29883 18.3018C9.22683 18.3783 9.21564 18.4804 9.26514 18.6094C9.39864 18.9559 9.69962 19.2381 9.78662 19.3184C9.90437 19.4211 10.0714 19.481 10.2349 19.481C10.4021 19.481 10.5511 19.4169 10.6538 19.3066C10.9396 18.9946 11.1069 18.655 11.1489 18.5522C11.1714 18.4952 11.1978 18.3822 11.1138 18.2944C11.0463 18.2254 10.9358 18.1919 10.7798 18.1919H9.66064ZM7.75488 19.3184C7.98363 19.3604 8.21865 19.3897 8.4624 19.4092C8.5959 19.7137 8.74369 20.0143 8.92969 20.2881C8.38144 20.0638 8.00238 19.6799 7.75488 19.3184ZM16.2422 19.3184C15.9947 19.6799 15.6142 20.0638 15.0659 20.2881C15.2527 20.0143 15.4019 19.7137 15.5347 19.4092C15.7784 19.3904 16.0134 19.3604 16.2422 19.3184Z" fill="black"/>
</svg>
