<svg width="24" height="24" viewBox="0 0 24 24" fill="none" xmlns="http://www.w3.org/2000/svg">
<path d="M19.9453 2.29688C19.8662 2.29688 19.79 2.33496 19.7109 2.41406L19.1484 2.97656L18.9141 2.74219L18.5859 3.04688L18.8438 3.30469L18.5156 3.60938L18.2812 3.375L17.9531 3.70312L18.1875 3.9375L17.6484 4.5C17.4873 4.66113 17.4873 4.80762 17.6484 4.96875L14.5078 8.10938C13.8076 7.5498 13.0605 7.125 12.3516 6.91406C11.0332 6.52441 9.86133 6.80566 8.95312 7.71094C8.55176 8.1123 8.30566 8.60156 8.20312 9.1875C8.03906 10.1367 7.20117 10.8779 6.21094 10.9453C5.12988 11.0186 4.18066 11.4521 3.46875 12.1641C1.59082 14.042 1.93066 17.4492 4.24219 19.7578C5.55469 21.0703 7.22754 21.75 8.76562 21.75C9.9375 21.75 11.0244 21.3428 11.8359 20.5312C12.5479 19.8193 12.9814 18.8701 13.0547 17.7891C13.1221 16.7988 13.8398 15.9609 14.7891 15.7969C15.375 15.6943 15.8877 15.4482 16.2891 15.0469C17.1943 14.1416 17.4756 12.9668 17.0859 11.6484C16.957 11.209 16.7256 10.7607 16.4531 10.3125L15.3516 11.4141C15.4688 11.6396 15.5684 11.8564 15.6328 12.0703C15.8643 12.8496 15.7412 13.4854 15.2344 13.9922C15.0527 14.1709 14.8359 14.2705 14.5547 14.3203C12.9316 14.6016 11.666 16.0254 11.5547 17.6953C11.5078 18.4072 11.2324 19.0225 10.7812 19.4766C9.48633 20.7686 7.0459 20.4287 5.32031 18.7031C3.59473 16.9775 3.23144 14.5107 4.52344 13.2188C4.97754 12.7676 5.59277 12.4922 6.30469 12.4453C7.97461 12.334 9.39551 11.0684 9.67969 9.44531C9.72949 9.16406 9.82617 8.94727 10.0078 8.76562C10.3564 8.41699 10.7549 8.25 11.2266 8.25C11.4404 8.25 11.6865 8.29395 11.9297 8.36719C12.4014 8.50781 12.9287 8.78613 13.4297 9.16406L10.9219 11.6719C10.7871 11.6396 10.6465 11.625 10.5 11.625C9.46582 11.625 8.625 12.4658 8.625 13.5C8.625 14.5342 9.46582 15.375 10.5 15.375C11.5342 15.375 12.375 14.5342 12.375 13.5C12.375 13.3857 12.3486 13.2803 12.3281 13.1719L19.1484 6.32812C19.3096 6.48926 19.4795 6.48926 19.6406 6.32812L20.2031 5.76562L20.4375 6L20.7422 5.69531L20.5078 5.46094L20.8359 5.13281L21 5.46094L21.3047 5.13281L21.0703 4.89844L21.6328 4.33594C21.7939 4.1748 21.7939 4.00488 21.6328 3.84375L20.2031 2.41406C20.124 2.33496 20.0244 2.29688 19.9453 2.29688ZM19.875 3.21094L20.2031 3.53906L18.75 4.96875L18.4453 4.66406L19.875 3.21094ZM20.5078 3.77344L20.8359 4.10156L19.3828 5.53125L19.0781 5.20312L20.5078 3.77344ZM6.82031 14.7656L5.76562 15.8203L8.17969 18.2344L9.23437 17.1797L6.82031 14.7656Z" fill="black"/>
</svg>
