<svg width="24" height="24" viewBox="0 0 24 24" fill="none" xmlns="http://www.w3.org/2000/svg">
<path d="M16.6157 0.750029C16.5851 0.751213 16.5613 0.759744 16.5454 0.774932L13.7593 4.08401L13.1909 6.03812C12.8047 6.02537 12.4058 6.02054 11.9971 6.02054C9.10132 6.02054 6.75 6.3273 6.75 6.70755C6.75 7.61505 17.2427 7.61505 17.2427 6.70755C17.2427 6.4263 15.9865 6.1887 14.1753 6.0762L14.625 4.4678L17.231 1.33304L17.2354 1.32864C17.2939 1.26789 17.1797 1.08556 16.9937 0.92581C16.8542 0.805435 16.7074 0.746478 16.6157 0.750029ZM12.9771 6.80716L12.9668 6.83792C12.9623 6.84167 12.9624 6.8466 12.9624 6.8511C12.9624 6.90735 13.1896 6.95364 13.4663 6.95364C13.7431 6.95364 13.9717 6.90735 13.9717 6.8511L13.9805 6.81595C14.0532 6.8422 14.0933 6.87227 14.0933 6.90677C14.0933 6.99752 13.8122 7.07165 13.4619 7.0679C13.1214 7.0679 12.8394 6.99898 12.8394 6.90823C12.8394 6.86923 12.8953 6.83341 12.9771 6.80716ZM17.1841 7.06497C15.7958 7.80522 8.21235 7.81023 6.81885 7.07523L7.43555 12.4995C7.7033 11.6348 8.38045 10.4673 9.25195 10.1133C9.5377 9.99631 9.82785 9.99686 10.1001 10.1529C10.3363 10.2826 10.5361 10.5546 10.5586 10.6626C10.6133 10.9439 10.4682 11.0552 10.355 11.0552C10.2185 11.0552 10.1141 10.8573 10.0459 10.7403C9.8599 10.4245 9.57832 10.4109 9.27832 10.6187C8.96482 10.8347 8.69245 11.198 8.50195 11.5137C8.2702 11.894 8.07478 12.3132 7.95703 12.7325C7.88878 12.9747 7.82641 13.3628 7.93066 13.5923C7.97641 13.6876 8.04382 13.7476 8.15332 13.7476C8.38057 13.7476 8.71063 13.4626 8.86963 13.3111C9.07363 13.1168 9.33677 12.8139 9.43652 12.6197L9.67383 11.9502C9.79158 11.6562 10.1221 11.708 10.1221 11.9502C10.1221 12.3912 9.95518 12.5382 9.66943 13.4502C9.40618 14.2932 9.32373 14.5664 9.32373 14.5664C9.29223 14.6872 9.16934 14.8902 9.03809 14.8902C8.98334 14.8902 8.9434 14.8719 8.9209 14.8374C8.87515 14.7767 8.87978 14.6099 8.88428 14.5664C8.89328 14.4284 9.16958 13.6063 9.21533 13.4766C9.12458 13.5718 9.02954 13.6677 8.92529 13.7622C8.68004 13.9827 8.28571 14.272 7.94971 14.272C7.79521 14.272 7.69632 14.2325 7.60107 14.168L7.94531 17.6089C8.03606 17.8249 9.72498 18.3487 11.9487 18.3487C14.177 18.3487 15.8644 17.8212 15.9507 17.6089L16.4458 13.5205C16.187 13.7455 15.8881 14.0227 15.5566 14.1607C15.3114 14.2604 14.7671 14.3241 14.7671 13.9131C14.7671 13.6881 15.1804 13.2739 15.4204 12.9844C15.4842 12.9109 15.6328 12.7296 15.6328 12.6343C15.6328 12.5091 15.3613 12.538 15.1025 12.7412C14.957 12.8582 14.8203 13.0147 14.707 13.1617C14.512 13.4212 14.408 13.6451 14.3218 13.8311C14.0405 14.4446 14.1359 14.2028 13.9087 14.7818C13.6814 15.357 13.7186 15.2915 13.6729 15.3867C13.6324 15.4692 13.573 15.5388 13.4912 15.5816C13.405 15.6251 13.2871 15.6201 13.2144 15.5684C13.1739 15.5421 13.1543 15.486 13.1543 15.4087C13.1543 15.3697 13.1599 15.3305 13.1689 15.2915C13.2372 15.0275 13.5231 14.5096 13.8501 13.8091C13.9228 13.6494 13.895 13.6968 13.8853 13.7095C13.604 13.969 13.3902 14.0946 13.2319 14.1636C12.9687 14.2761 12.6417 14.2759 12.5742 13.9864C12.5697 13.9691 12.5699 13.9509 12.5654 13.9336C12.0299 14.3311 11.4629 14.4393 11.6587 13.5835C11.4502 13.9383 11.0861 14.2281 10.6406 14.2281C10.4546 14.2281 10.3185 14.1681 10.251 14.0083C10.1467 13.7706 10.3097 13.3633 10.459 12.9785C10.5362 12.7843 10.6417 12.5506 10.7827 12.2784C10.8555 12.1314 10.9725 12.0445 11.127 12.0835C11.154 12.0925 11.1777 12.1015 11.2002 12.1143C11.3179 12.1923 11.2726 12.3078 11.2134 12.4248C11.0409 12.7488 10.8913 12.9867 10.7915 13.3242C10.751 13.4667 10.6999 13.7139 10.8589 13.7139C10.9676 13.7139 11.0719 13.6789 11.1724 13.6099C11.3809 13.4629 11.5488 13.2429 11.6763 13.0269C11.767 12.8716 11.8764 12.6684 11.9312 12.4951C11.9537 12.4216 11.9817 12.3524 12.0132 12.2871C12.0634 12.1791 12.1305 12.0674 12.249 12.0674C12.3083 12.0674 12.3573 12.0891 12.394 12.1319C12.4713 12.2271 12.4543 12.325 12.4131 12.4292C12.3223 12.6715 12.2001 12.8881 12.0996 13.1514C12.0404 13.3029 11.9766 13.497 11.9766 13.6568C11.9766 13.8038 12.1446 13.7688 12.2856 13.708C12.3944 13.6608 12.5032 13.5882 12.5947 13.5147C12.6495 13.3032 12.635 13.3499 13.793 10.5659C13.8522 10.4234 13.9611 10.3623 14.0698 10.3623C14.1246 10.3623 14.1691 10.3807 14.2148 10.4107C14.2921 10.4669 14.2932 10.5865 14.2617 10.6773C14.2302 10.7598 14.2336 10.7339 14.0566 11.1314C13.8204 11.6541 13.6668 12.0313 13.4575 12.5113C13.3713 12.71 13.1085 13.3281 13.0635 13.4751C13.0365 13.5704 13.0039 13.7256 13.1089 13.7256C13.3541 13.7256 13.9852 13.159 14.1577 12.9903C14.1667 12.9775 14.1807 12.9729 14.1987 12.9639C14.2257 12.8814 14.2524 12.8046 14.2749 12.7266C14.3387 12.5623 14.3981 12.3708 14.5166 12.2373C14.5526 12.1938 14.5932 12.1685 14.6382 12.1685C14.7649 12.1685 14.8286 12.2198 14.8286 12.3413C14.8286 12.3886 14.7976 12.5622 14.7788 12.6094C14.8426 12.5449 14.9097 12.4805 14.9824 12.416C15.6634 11.8153 16.1484 12.1218 16.1484 12.4248C16.1484 12.7443 15.7449 13.1888 15.5229 13.4356C15.4502 13.5181 15.3004 13.6689 15.2959 13.7124C15.2959 13.7687 15.3363 13.7915 15.3955 13.7915C15.4863 13.7915 15.686 13.6397 15.7588 13.5879C15.986 13.4192 16.2935 13.16 16.5117 12.9785L17.1841 7.06497ZM8.19727 18.0235L8.87402 19.1221L9.1377 22.5542C9.1377 22.939 10.422 23.25 12.0015 23.25C13.581 23.25 14.8652 22.939 14.8652 22.5542L15.0747 19.0869L15.7134 18.0235C13.9156 18.7457 10.0678 18.7712 8.19727 18.0235Z" fill="black"/>
</svg>
