<svg width="24" height="24" viewBox="0 0 24 24" fill="none" xmlns="http://www.w3.org/2000/svg">
<path d="M8.25 3.75C5.77441 3.75 3.75 5.77441 3.75 8.25V8.4375L2.90625 9.5625C3.17285 9.76172 3.45117 9.89355 3.75 9.98438V11.8359C3.29297 12.249 3 12.8408 3 13.5C3 14.1592 3.29297 14.751 3.75 15.1641V17.25C3.75 18.0703 4.42969 18.75 5.25 18.75H18.75C19.5703 18.75 20.25 18.0703 20.25 17.25V15.1641C20.707 14.751 21 14.1592 21 13.5C21 12.8408 20.707 12.249 20.25 11.8359V9.98438C20.5488 9.89355 20.8271 9.76172 21.0938 9.5625L20.25 8.41406V8.25C20.25 5.77441 18.2256 3.75 15.75 3.75H8.25ZM8.25 5.25H9C9 5.66309 9.33691 6 9.75 6C10.1631 6 10.5 5.66309 10.5 5.25H15.75C17.4141 5.25 18.75 6.58594 18.75 8.25V8.625C18.5566 8.57227 18.3779 8.46973 18.2109 8.34375L17.8125 8.0625L17.3672 8.32031L16.8047 8.64844C16.2803 8.96191 15.6416 8.96191 15.1172 8.64844L14.5547 8.32031L14.2031 8.10938L13.8281 8.27344L12.75 8.83594C12.2842 9.06738 11.7393 9.06738 11.2734 8.83594L10.1719 8.27344L9.79688 8.10938L9.44531 8.32031L8.88281 8.64844C8.3584 8.96191 7.71973 8.96191 7.19531 8.64844L6.63281 8.32031L6.1875 8.0625L5.78906 8.34375C5.62207 8.46973 5.44043 8.57227 5.25 8.625V8.25C5.25 6.58594 6.58594 5.25 8.25 5.25ZM8.25 6C7.83691 6 7.5 6.33691 7.5 6.75C7.5 7.16309 7.83691 7.5 8.25 7.5C8.66309 7.5 9 7.16309 9 6.75C9 6.33691 8.66309 6 8.25 6ZM11.25 6C10.8369 6 10.5 6.33691 10.5 6.75C10.5 7.16309 10.8369 7.5 11.25 7.5C11.6631 7.5 12 7.16309 12 6.75C12 6.33691 11.6631 6 11.25 6ZM6.11719 9.75L6.42188 9.9375C7.41797 10.5352 8.66016 10.5352 9.65625 9.9375L9.86719 9.79688L10.5938 10.1719C11.4785 10.6143 12.5215 10.6143 13.4062 10.1719L14.1328 9.79688L14.3438 9.9375C15.3398 10.5352 16.582 10.5352 17.5781 9.9375L17.8828 9.75C18.1641 9.88477 18.4512 9.96973 18.75 10.0312V11.25H5.25V10.0312C5.54883 9.96973 5.83594 9.88477 6.11719 9.75ZM5.25 12.75H18.75C19.1748 12.75 19.5 13.0752 19.5 13.5C19.5 13.9248 19.1748 14.25 18.75 14.25H5.25C4.8252 14.25 4.5 13.9248 4.5 13.5C4.5 13.0752 4.8252 12.75 5.25 12.75ZM5.25 15.75H18.75V17.25H5.25V15.75Z" fill="black"/>
</svg>
