<svg width="24" height="24" viewBox="0 0 24 24" fill="none" xmlns="http://www.w3.org/2000/svg">
<path d="M5.29688 1.5L7.17188 2.85938C10.708 5.4082 11.7803 7.90723 12 8.46094L11.3203 9.14062V9.16406L10.8047 9.67969L2.01562 18.7969L1.5 19.3359L4.6875 22.5234L5.22656 21.9609L14.5312 12.3281L14.7656 12.0469L14.8359 12L15.5625 11.7422L15.7031 11.8828L15.4219 12.5625L15.2109 13.0312L17.6953 15.5156L22.4766 10.7344L20.3438 8.60156L19.9922 8.27344L19.5469 8.4375L18.8672 8.69531L18.7031 8.53125L18.9375 7.78125L19.0312 7.47656L18.8906 7.19531C18.8906 7.19531 18.0996 5.72754 16.3125 4.3125C14.5254 2.89746 11.6953 1.5 7.61719 1.5H5.29688ZM9.82031 3.1875C12.3457 3.5625 14.168 4.51172 15.3984 5.48438C16.7227 6.5332 17.25 7.38281 17.4141 7.66406L17.1328 8.53125L17.0156 8.95312L17.3203 9.28125L18.5156 10.4766L18.9844 10.2891L19.6406 10.0312L20.3438 10.7344L17.6953 13.3828L16.9922 12.6797L17.2734 12L17.4844 11.5312L17.1094 11.1797L16.2656 10.3359L15.9375 9.98438L15.4688 10.1484L14.1328 10.6875L13.9922 10.7344L13.4531 10.2188L12.9141 9.67969L13.7812 8.8125L13.6172 8.36719C13.6172 8.36719 12.6094 5.82129 9.82031 3.1875ZM11.8594 10.7344L12.9375 11.8125L4.66406 20.3672L3.60938 19.3125L11.8594 10.7344Z" fill="black"/>
</svg>
