<svg width="24" height="24" viewBox="0 0 24 24" fill="none" xmlns="http://www.w3.org/2000/svg">
<path d="M12 2.25C10.7414 2.25 9.66587 3.03135 9.22119 4.13232C8.82622 3.89421 8.36888 3.75 7.875 3.75C6.4275 3.75 5.25 4.9275 5.25 6.375V11.25V12.75H4.125C3.09075 12.75 2.25 13.5907 2.25 14.625C2.25 15.138 2.45511 15.6171 2.82861 15.9756L6.54199 19.5454C8.01874 20.9674 9.957 21.75 12 21.75C14.043 21.75 15.9805 20.9674 17.4565 19.5454L21.1729 15.9756C21.5456 15.6171 21.75 15.138 21.75 14.625C21.75 13.5907 20.9093 12.75 19.875 12.75H18.75V11.25V6.375C18.75 4.9275 17.5725 3.75 16.125 3.75C15.6311 3.75 15.1738 3.89421 14.7788 4.13232C14.3341 3.03135 13.2586 2.25 12 2.25ZM12 3.75C12.8273 3.75 13.5 4.42275 13.5 5.25V11.25H15V6.375C15 5.75475 15.5048 5.25 16.125 5.25C16.7452 5.25 17.25 5.75475 17.25 6.375V11.25V13.5V14.25H19.875C20.0812 14.25 20.25 14.4187 20.25 14.625C20.25 14.7615 20.177 14.8533 20.1343 14.8945L16.418 18.4629C15.221 19.6149 13.6523 20.25 12 20.25C10.3477 20.25 8.77832 19.6149 7.58057 18.4629L3.86719 14.8945C3.82369 14.8533 3.75 14.7615 3.75 14.625C3.75 14.4187 3.91875 14.25 4.125 14.25H6.75V13.5V11.25V6.375C6.75 5.75475 7.25475 5.25 7.875 5.25C8.49525 5.25 9 5.75475 9 6.375V11.25H10.5V6.375V5.25C10.5 4.42275 11.1727 3.75 12 3.75ZM12 12.75C9.37875 12.75 7.69648 15.229 7.62598 15.334L7.34912 15.75L7.62598 16.166C7.69648 16.271 9.37875 18.75 12 18.75C14.6213 18.75 16.3035 16.271 16.374 16.166L16.6509 15.75L16.374 15.334C16.3035 15.229 14.6213 12.75 12 12.75ZM12 14.25C13.2727 14.25 14.294 15.186 14.7935 15.75C14.2932 16.314 13.2712 17.25 12 17.25C10.7273 17.25 9.70604 16.314 9.20654 15.75C9.70679 15.186 10.7288 14.25 12 14.25ZM12 15C11.8011 15 11.6103 15.079 11.4697 15.2197C11.329 15.3603 11.25 15.5511 11.25 15.75C11.25 15.9489 11.329 16.1397 11.4697 16.2803C11.6103 16.421 11.8011 16.5 12 16.5C12.1989 16.5 12.3897 16.421 12.5303 16.2803C12.671 16.1397 12.75 15.9489 12.75 15.75C12.75 15.5511 12.671 15.3603 12.5303 15.2197C12.3897 15.079 12.1989 15 12 15Z" fill="black"/>
</svg>
