<svg width="24" height="24" viewBox="0 0 24 24" fill="none" xmlns="http://www.w3.org/2000/svg">
<path d="M11.25 1.5C10.0166 1.5 8.99999 2.5166 8.99999 3.75V4.89844L8.90624 4.59375C8.54882 3.41309 7.2744 2.73633 6.09374 3.09375C4.91307 3.45117 4.23632 4.72559 4.59374 5.90625L6.53905 12.2344C6.39843 12.29 6.24608 12.3545 6.09374 12.4453C5.46679 12.8203 4.7578 13.5791 4.54686 14.7891C4.38866 15.6855 4.56151 16.4736 4.68749 16.8984C4.68749 16.9072 4.68749 16.9131 4.68749 16.9219L5.27343 18.7969C5.95018 20.9971 7.98925 22.5 10.2891 22.5H14.25C17.1416 22.5 19.5 20.1416 19.5 17.25V9.82031C19.5 9.78809 19.5 9.75879 19.5 9.72656C19.5 9.71191 19.5 9.69434 19.5 9.67969C19.5 9.6709 19.5 9.66504 19.5 9.65625C19.4941 9.63281 19.4853 9.60938 19.4766 9.58594C19.4092 8.75977 18.9082 7.98926 18.0937 7.66406C17.5283 7.43848 16.9336 7.4707 16.4062 7.6875C16.1631 7.22754 15.7705 6.83789 15.2578 6.63281C14.6689 6.39844 14.042 6.43652 13.5 6.67969V3.75C13.5 2.5166 12.4834 1.5 11.25 1.5ZM11.25 3C11.6748 3 12 3.3252 12 3.75V8.69531L11.2266 10.6641C11.1152 10.9424 11.0625 11.2441 11.0625 11.5312L7.99218 11.9297L6.04686 5.46094C5.92382 5.05664 6.13475 4.64648 6.53905 4.52344C6.94335 4.40039 7.3535 4.63477 7.47655 5.03906L9.02343 10.1719L9.86718 9.91406H10.5V3.75C10.5 3.3252 10.8252 3 11.25 3ZM14.3906 7.96875C14.4873 7.96582 14.5986 7.97754 14.6953 8.01562C15.0879 8.17383 15.2754 8.60742 15.1172 9L14.3203 10.9922V11.0156L14.0156 11.7891C14.001 11.8301 13.9658 11.8477 13.9453 11.8828C13.5644 11.5869 13.084 11.3965 12.5859 11.3906C12.5947 11.335 12.5859 11.2822 12.6094 11.2266L13.7344 8.4375C13.8516 8.1416 14.1006 7.97461 14.3906 7.96875ZM17.2266 9C17.3262 9 17.4316 9.00879 17.5312 9.04688C17.8271 9.16406 17.9941 9.43066 18 9.72656C18 9.73535 18 9.74121 18 9.75C18 9.84082 17.9883 9.94043 17.9531 10.0312L17.1094 12.1172C16.9512 12.5098 16.5176 12.6973 16.125 12.5391C15.7324 12.3809 15.5683 11.9473 15.7266 11.5547L16.5234 9.5625C16.5351 9.5332 16.5351 9.49805 16.5469 9.46875C16.626 9.27246 16.7695 9.12305 16.9453 9.04688C17.0332 9.00879 17.1269 9 17.2266 9ZM12.375 12.8672C12.7705 12.7734 13.1484 13.0107 13.2422 13.4062C13.3008 13.6494 13.2685 13.7725 13.1953 13.8984C13.1221 14.0244 12.9668 14.1797 12.6328 14.2969L8.99999 15.2344C8.77733 15.293 8.59569 15.4512 8.50487 15.6592C8.41405 15.8701 8.42284 16.1104 8.53124 16.3125L9.21093 17.5547C9.41014 17.918 9.86718 18.0498 10.2305 17.8477C10.5937 17.6484 10.7256 17.1914 10.5234 16.8281L10.3125 16.4531L13.0781 15.7266C13.1016 15.7207 13.125 15.7119 13.1484 15.7031C13.7285 15.501 14.1943 15.1553 14.4844 14.6719C14.7217 14.2764 14.8125 13.8164 14.7656 13.3594C14.9853 13.5967 15.2666 13.793 15.5859 13.9219C16.4443 14.2646 17.3877 14.0479 18 13.4297V17.25C18 19.3301 16.3301 21 14.25 21H10.2891C8.63964 21 7.18944 19.9277 6.70311 18.3516L6.14061 16.4766C6.07909 16.2744 5.95604 15.5654 6.04686 15.0469C6.18749 14.2412 6.53905 13.9307 6.86718 13.7344C7.1953 13.5381 7.42968 13.5234 7.42968 13.5234C7.44432 13.5234 7.4619 13.5234 7.47655 13.5234L12.3047 12.8906C12.3281 12.8848 12.3516 12.876 12.375 12.8672Z" fill="black"/>
</svg>
