<svg width="24" height="24" viewBox="0 0 24 24" fill="none" xmlns="http://www.w3.org/2000/svg">
<path d="M12.6797 2.25C11.4668 2.25 10.5 3.17285 10.5 4.24219C10.5 5.24414 10.8516 5.98828 11.2031 6.46875C11.4229 6.77051 11.5195 6.82031 11.6719 6.9375L11.8125 7.5H3.75C2.5166 7.5 1.5 8.5166 1.5 9.75C1.5 10.9834 2.5166 12 3.75 12H6.42188L7.66406 17.7188C7.88672 18.7529 8.80957 19.5 9.86719 19.5H22.5V7.5H18.3047L13.2188 2.46094L12.9844 2.25H12.6797ZM12.4453 3.82031L17.25 8.55469V18H9.86719C9.50977 18 9.19336 17.7656 9.11719 17.4141L7.78125 11.0859L7.64062 10.5H3.75C3.3252 10.5 3 10.1748 3 9.75C3 9.3252 3.3252 9 3.75 9H13.7578L13.5234 8.0625L13.0781 6.375L12.9844 6.07031L12.7266 5.92969C12.7266 5.92969 12.5918 5.86523 12.3984 5.60156C12.2051 5.33789 12 4.91895 12 4.24219C12 4.01074 12.1289 3.88184 12.4453 3.82031ZM18.75 9H21V18H18.75V9Z" fill="black"/>
</svg>
