<svg width="24" height="24" viewBox="0 0 24 24" fill="none" xmlns="http://www.w3.org/2000/svg">
<path d="M12 1.5C10.7666 1.5 9.74999 2.5166 9.74999 3.75V7.64062C9.51269 7.55566 9.26367 7.5 8.99999 7.5C7.7666 7.5 6.74999 8.5166 6.74999 9.75V12.4922L5.17968 14.5078C4.22167 15.7471 4.28613 17.5254 5.32031 18.7031L7.10156 20.7188C8.09765 21.8525 9.53027 22.5 11.0391 22.5H15C17.8916 22.5 20.25 20.1416 20.25 17.25V10.5C20.25 9.2666 19.2334 8.25 18 8.25C17.5986 8.25 17.2266 8.36719 16.8984 8.55469C16.4971 7.92188 15.7969 7.5 15 7.5C14.7363 7.5 14.4873 7.55566 14.25 7.64062V3.75C14.25 2.5166 13.2334 1.5 12 1.5ZM12 3C12.4248 3 12.75 3.3252 12.75 3.75V11.25H14.25V9.75C14.25 9.3252 14.5752 9 15 9C15.4248 9 15.75 9.3252 15.75 9.75V11.25H17.25V10.5C17.25 10.0752 17.5752 9.75 18 9.75C18.4248 9.75 18.75 10.0752 18.75 10.5V17.25C18.75 19.3301 17.0801 21 15 21H11.0391C9.96093 21 8.93847 20.5459 8.22656 19.7344L6.44531 17.6953C5.87988 17.0508 5.85058 16.125 6.37499 15.4453L6.74999 14.9531V15.75H8.24999V9.75C8.24999 9.3252 8.57519 9 8.99999 9C9.4248 9 9.74999 9.3252 9.74999 9.75V11.25H11.25V3.75C11.25 3.3252 11.5752 3 12 3Z" fill="black"/>
</svg>
