<svg width="24" height="24" viewBox="0 0 24 24" fill="none" xmlns="http://www.w3.org/2000/svg">
<path d="M9.75 1.5C8.5166 1.5 7.5 2.5166 7.5 3.75V11.8125L6.9375 11.6719C6.82031 11.5195 6.77051 11.4229 6.46875 11.2031C5.98828 10.8516 5.24414 10.5 4.24219 10.5C3.17285 10.5 2.25 11.4668 2.25 12.6797V12.9844L2.46094 13.2188L7.5 18.3047V22.5H19.5V9.86719C19.5 8.80957 18.7529 7.88672 17.7188 7.66406L12 6.42188V3.75C12 2.5166 10.9834 1.5 9.75 1.5ZM9.75 3C10.1748 3 10.5 3.3252 10.5 3.75V7.64062L11.0859 7.78125L17.4141 9.11719C17.7656 9.19336 18 9.50977 18 9.86719V17.25H8.55469L3.82031 12.4453C3.88184 12.1289 4.01074 12 4.24219 12C4.91895 12 5.33789 12.2051 5.60156 12.3984C5.86523 12.5918 5.92969 12.7266 5.92969 12.7266L6.07031 12.9844L6.375 13.0781L8.0625 13.5234L9 13.7578V3.75C9 3.3252 9.3252 3 9.75 3ZM9 18.75H18V21H9V18.75Z" fill="black"/>
</svg>
