<svg width="24" height="24" viewBox="0 0 24 24" fill="none" xmlns="http://www.w3.org/2000/svg">
<path d="M9.30469 1.49998C9.1582 1.50291 9.00879 1.5117 8.85938 1.54686C7.85449 1.77537 7.14844 2.66893 7.10156 3.65623C6.82617 3.61228 6.54199 3.61521 6.25781 3.67967C5.05371 3.95213 4.27441 5.17088 4.54687 6.37498L6 12.6797V13.3125L5.34375 12.6562C4.4707 11.7832 3.0293 11.7832 2.15625 12.6562C1.2832 13.5293 1.2832 14.9707 2.15625 15.8437L7.24219 20.9297C8.12402 21.8086 9.34277 22.5 10.7812 22.5H14.25C17.1416 22.5 19.5 20.1416 19.5 17.25V12L20.2031 8.46092C20.4404 7.25096 19.6318 6.04978 18.4219 5.81248C18.167 5.76268 17.915 5.75389 17.6719 5.78904L17.8359 4.94529C18.0732 3.73533 17.2646 2.53416 16.0547 2.29686C14.8447 2.05955 13.667 2.86814 13.4297 4.0781L12.6797 7.64061L11.5312 3.25779C11.5283 3.25193 11.5342 3.24021 11.5312 3.23436H11.5078C11.2559 2.20018 10.3301 1.4824 9.30469 1.49998ZM9.1875 3.02342C9.60059 2.92967 9.98438 3.17283 10.0781 3.58592V3.60935L11.9531 10.8047L12.0938 11.3672H13.4297L13.5703 10.7578L14.8828 4.38279V4.35935C14.9648 3.94334 15.3574 3.69139 15.7734 3.77342C16.1895 3.85545 16.4414 4.24803 16.3594 4.66404L15 11.5078L16.4766 11.789L17.25 7.89842H17.2734C17.3555 7.4824 17.7246 7.20701 18.1406 7.28904C18.5566 7.37107 18.8086 7.76365 18.7266 8.17967L18.0234 11.8594L18 11.9297V17.25C18 19.3301 16.3301 21 14.25 21H10.7812C9.82617 21 9.00586 20.5342 8.32031 19.8515L3.21094 14.789C2.91211 14.4902 2.91211 14.0097 3.21094 13.7109C3.50977 13.4121 3.99023 13.4121 4.28906 13.7109L6.21094 15.6562L7.5 16.9453V12.5859L7.47656 12.5156L6.02344 6.04685C5.92969 5.63377 6.17285 5.22654 6.58594 5.13279C6.99902 5.03904 7.38281 5.30564 7.47656 5.71873L8.8125 11.6719L10.2891 11.3437L8.95312 5.36717C8.9502 5.35838 8.95605 5.35252 8.95312 5.34373L8.625 3.91404C8.53125 3.50096 8.77441 3.11717 9.1875 3.02342Z" fill="black"/>
</svg>
