<svg width="24" height="24" viewBox="0 0 24 24" fill="none" xmlns="http://www.w3.org/2000/svg">
<path d="M9.75 1.5C8.5166 1.5 7.5 2.5166 7.5 3.75V12.6094L7.00781 12.0938L6.82031 11.9297C5.95605 11.0654 4.54395 11.0654 3.67969 11.9297C2.81543 12.7939 2.81543 14.2061 3.67969 15.0703V15.0938L9.82031 21.1641L9.86719 21.1875L9.89062 21.2344C10.9014 21.9932 12.1904 22.5 13.6406 22.5H14.9297C18.3311 22.5 21.0703 19.7607 21.0703 16.3594V10.5C21.0703 9.2666 20.0537 8.25 18.8203 8.25C18.501 8.25 18.2051 8.33789 17.9297 8.46094C17.6836 7.48535 16.7959 6.75 15.75 6.75C15.1758 6.75 14.6484 6.97559 14.25 7.33594C13.8516 6.97559 13.3242 6.75 12.75 6.75C12.4863 6.75 12.2373 6.80566 12 6.89062V3.75C12 2.5166 10.9834 1.5 9.75 1.5ZM9.75 3C10.166 3 10.5 3.33398 10.5 3.75V12H12V9C12 8.58398 12.334 8.25 12.75 8.25C13.166 8.25 13.5 8.58398 13.5 9V12H15V9C15 8.58398 15.334 8.25 15.75 8.25C16.166 8.25 16.5 8.58398 16.5 9V12H18.0703V10.5C18.0703 10.084 18.4043 9.75 18.8203 9.75C19.2363 9.75 19.5703 10.084 19.5703 10.5V16.3594C19.5703 18.958 17.5283 21 14.9297 21H13.6406C12.542 21 11.5928 20.6074 10.8047 20.0156L4.73438 14.0156C4.40039 13.6816 4.40039 13.3184 4.73438 12.9844C5.06836 12.6504 5.43164 12.6504 5.76563 12.9844L9 16.2188V3.75C9 3.33398 9.33398 3 9.75 3Z" fill="black"/>
</svg>
