<svg width="24" height="24" viewBox="0 0 24 24" fill="none" xmlns="http://www.w3.org/2000/svg">
<path d="M12.75 3V3.89209C12.6412 3.93146 12.5355 3.97958 12.4351 4.03418C12.2341 4.14337 12.0519 4.28142 11.8931 4.44287C11.7343 4.60433 11.599 4.78849 11.4946 4.99072C11.338 5.29408 11.25 5.63719 11.25 6C11.25 6.15375 11.2666 6.3041 11.2969 6.44971C11.3575 6.74092 11.4754 7.01279 11.6382 7.25244C11.7196 7.37227 11.8114 7.48424 11.9136 7.58643C12.0158 7.68861 12.1277 7.78043 12.2476 7.86182C12.607 8.10598 13.0387 8.25 13.5 8.25C13.6069 8.25 13.707 8.27021 13.7974 8.30713C13.8877 8.34404 13.9676 8.3983 14.0347 8.46533C14.1017 8.53236 14.156 8.61229 14.1929 8.70264C14.2298 8.79299 14.25 8.89313 14.25 9C14.25 9.32062 14.0684 9.58213 13.7974 9.69287C13.707 9.72979 13.6069 9.75 13.5 9.75C13.3931 9.75 13.293 9.72979 13.2026 9.69287C13.1123 9.65596 13.0324 9.6017 12.9653 9.53467C12.8983 9.46764 12.844 9.38771 12.8071 9.29736C12.7702 9.20701 12.75 9.10687 12.75 9H11.25C11.25 9.12094 11.2604 9.24019 11.2793 9.35596C11.2982 9.47172 11.325 9.58371 11.3613 9.69287C11.4703 10.0204 11.6549 10.3149 11.8931 10.5571C11.9725 10.6379 12.0572 10.7129 12.1479 10.7812C12.2387 10.8496 12.3346 10.9112 12.4351 10.9658C12.5355 11.0204 12.6412 11.0685 12.75 11.1079V12H14.25V11.1079C15.12 10.7929 15.75 9.9675 15.75 9C15.75 7.92375 14.9689 7.00893 13.9497 6.79688C13.8041 6.76658 13.6538 6.75 13.5 6.75C13.3931 6.75 13.293 6.72979 13.2026 6.69287C13.1123 6.65596 13.0324 6.6017 12.9653 6.53467C12.8983 6.46764 12.844 6.38771 12.8071 6.29736C12.7702 6.20701 12.75 6.10687 12.75 6C12.75 5.89313 12.7702 5.79299 12.8071 5.70264C12.844 5.61229 12.8983 5.53236 12.9653 5.46533C13.0994 5.33127 13.2863 5.25 13.5 5.25C13.9275 5.25 14.25 5.5725 14.25 6H15.75C15.75 5.87906 15.7396 5.75981 15.7207 5.64404C15.7018 5.52828 15.675 5.41629 15.6387 5.30713C15.4207 4.65217 14.9025 4.12834 14.25 3.89209V3H12.75ZM7.88672 13.5C7.11347 13.503 6.52441 13.6992 6.52441 13.6992L6.50977 13.7051L2.25586 15.3369L3.74414 19.5146L7.44141 18.0967L12.7939 21.0439L22.0371 17.2148L21.4629 15.832L12.8848 19.3828L7.55859 16.4502L4.64062 17.5664L4.16016 16.2129L7.00781 15.1201C7.01456 15.1171 7.36472 15 7.88672 15C8.41397 15 9.02871 15.117 9.55371 15.5918L9.56396 15.5977L9.56689 15.6006C10.3401 16.2718 10.9234 16.7409 11.7349 16.9951C12.5464 17.2501 13.4669 17.2794 15.0044 17.2734L14.9971 15.7734C13.4881 15.7794 12.6998 15.726 12.1846 15.5625C11.6686 15.4043 11.3026 15.1198 10.5586 14.4756L10.5498 14.4697C9.68205 13.6905 8.65097 13.497 7.88672 13.5Z" fill="black"/>
</svg>
