<svg width="24" height="24" viewBox="0 0 24 24" fill="none" xmlns="http://www.w3.org/2000/svg">
<path d="M11.0156 2.25L10.7812 2.46094L5.69531 7.5H1.5V19.5H14.1328C15.1904 19.5 16.1133 18.7529 16.3359 17.7188L17.5781 12H20.25C21.4834 12 22.5 10.9834 22.5 9.75C22.5 8.5166 21.4834 7.5 20.25 7.5H12.1875L12.3281 6.9375C12.4805 6.82031 12.5771 6.77051 12.7969 6.46875C13.1484 5.98828 13.5 5.24414 13.5 4.24219C13.5 3.17285 12.5332 2.25 11.3203 2.25H11.0156ZM11.5547 3.82031C11.8711 3.88184 12 4.01074 12 4.24219C12 4.91895 11.7949 5.33789 11.6016 5.60156C11.4082 5.86523 11.2734 5.92969 11.2734 5.92969L11.0156 6.07031L10.9219 6.375L10.4766 8.0625L10.2422 9H20.25C20.6748 9 21 9.3252 21 9.75C21 10.1748 20.6748 10.5 20.25 10.5H16.3594L16.2188 11.0859L14.8828 17.4141C14.8066 17.7656 14.4902 18 14.1328 18H6.75V8.55469L11.5547 3.82031ZM3 9H5.25V18H3V9Z" fill="black"/>
</svg>
