<svg width="24" height="24" viewBox="0 0 24 24" fill="none" xmlns="http://www.w3.org/2000/svg">
<path d="M2.25 3.75V12.3047L2.46094 12.5391L6.75 16.8281V21H11.25V16.5234V16.5C11.253 16.4587 11.3591 14.1334 9.42188 12.8906C9.41587 12.8876 9.42788 12.8702 9.42188 12.8672C9.41587 12.8642 9.40444 12.8702 9.39844 12.8672C8.51044 12.2874 7.59394 11.8131 6.96094 11.3203C6.32269 10.8261 6 10.4152 6 9.75H4.5C4.5 10.9627 5.20894 11.8826 6.02344 12.5156C6.83794 13.1486 7.78463 13.6146 8.57812 14.1328H8.60156C9.80306 14.8858 9.75 16.4766 9.75 16.4766V19.5H8.25V16.1953L8.03906 15.9609L3.75 11.6719V3.75H2.25ZM20.25 3.75V11.6719L15.9609 15.9609L15.75 16.1953V19.5H14.25V16.4531C14.25 16.4531 14.1977 14.8858 15.3984 14.1328H15.4219C16.2131 13.6146 17.1621 13.1479 17.9766 12.5156C18.7911 11.8834 19.5 10.9627 19.5 9.75H18C18 10.4152 17.6773 10.8253 17.0391 11.3203C16.4061 11.8123 15.4896 12.2867 14.6016 12.8672C14.5956 12.8702 14.5841 12.8642 14.5781 12.8672V12.8906C12.6559 14.1206 12.747 16.4213 12.75 16.5V16.5469V21H17.25V16.8281L21.5391 12.5391L21.75 12.3047V3.75H20.25Z" fill="black"/>
</svg>
