<svg width="24" height="24" viewBox="0 0 24 24" fill="none" xmlns="http://www.w3.org/2000/svg">
<path d="M7.88672 13.5C7.11347 13.503 6.52441 13.6992 6.52441 13.6992L6.50977 13.7051L2.25586 15.3369L3.74414 19.5146L7.44141 18.0967L12.7939 21.0439L22.0371 17.2148L21.4629 15.832L12.8848 19.3828L7.55859 16.4502L4.64062 17.5664L4.16016 16.2114L7.00781 15.1186C7.01456 15.1164 7.36472 15 7.88672 15C8.41397 15 9.02871 15.117 9.55371 15.5918L9.56396 15.5976L9.56689 15.6006C10.3401 16.2718 10.9234 16.7408 11.7349 16.9951C12.5464 17.2501 13.4669 17.2794 15.0044 17.2734L14.9971 15.7734C13.4881 15.7794 12.6998 15.726 12.1846 15.5625C11.6686 15.4042 11.3026 15.1198 10.5586 14.4756L10.5498 14.4697C9.68205 13.6904 8.65097 13.497 7.88672 13.5Z" fill="black"/>
</svg>
