<svg width="24" height="24" viewBox="0 0 24 24" fill="none" xmlns="http://www.w3.org/2000/svg">
<path d="M7.5 1.5V5.69531L2.46094 10.7812L2.25 11.0156V11.3203C2.25 12.5332 3.17285 13.5 4.24219 13.5C5.24414 13.5 5.98828 13.1484 6.46875 12.7969C6.77051 12.5771 6.82031 12.4805 6.9375 12.3281L7.5 12.1875V20.25C7.5 21.4834 8.5166 22.5 9.75 22.5C10.9834 22.5 12 21.4834 12 20.25V17.5781L17.7188 16.3359C18.7529 16.1133 19.5 15.1904 19.5 14.1328V1.5H7.5ZM9 3H18V5.25H9V3ZM8.55469 6.75H18V14.1328C18 14.4902 17.7656 14.8066 17.4141 14.8828L11.0859 16.2188L10.5 16.3594V20.25C10.5 20.6748 10.1748 21 9.75 21C9.3252 21 9 20.6748 9 20.25V10.2422L8.0625 10.4766L6.375 10.9219L6.07031 11.0156L5.92969 11.2734C5.92969 11.2734 5.86523 11.4082 5.60156 11.6016C5.33789 11.7949 4.91895 12 4.24219 12C4.01074 12 3.88184 11.8711 3.82031 11.5547L8.55469 6.75Z" fill="black"/>
</svg>
