<svg width="24" height="24" viewBox="0 0 24 24" fill="none" xmlns="http://www.w3.org/2000/svg">
<path d="M9.75 5.25V6.30469C6.02637 7.26562 3.30762 10.5615 3.09375 14.5312C2.21484 14.8389 1.5 15.5215 1.5 16.5V18.75H22.5V16.5C22.5 15.5215 21.7852 14.8389 20.9062 14.5312C20.6924 10.5615 17.9736 7.26562 14.25 6.30469V5.25H9.75ZM11.2734 6.75H12.75C12.7354 6.83496 12.7354 6.92285 12.75 7.00781V11.25H14.25V7.875C17.0537 8.75977 19.1748 11.2295 19.4766 14.25H18V15.75H20.25C20.6748 15.75 21 16.0752 21 16.5V17.25H3V16.5C3 16.0752 3.3252 15.75 3.75 15.75H6V14.25H4.52344C4.8252 11.2295 6.94629 8.75977 9.75 7.875V11.25H11.25V7.125C11.2881 7.00488 11.2969 6.87598 11.2734 6.75Z" fill="black"/>
</svg>
