<svg width="24" height="24" viewBox="0 0 24 24" fill="none" xmlns="http://www.w3.org/2000/svg">
<path d="M10.5 4.5C9.82617 4.5 9.32812 4.875 8.88281 5.36719C8.44043 5.85352 8.08008 6.51562 7.89844 7.3125C7.89551 7.32129 7.90137 7.32715 7.89844 7.33594C7.70215 8.08594 7.42383 9.38086 7.19531 10.5C6.6709 10.0459 6 9.75 5.25 9.75C3.5918 9.75 2.25 11.0918 2.25 12.75C2.25 14.3291 2.65723 16.1074 4.14844 17.4141C5.63965 18.7207 8.07422 19.5 12 19.5C15.9287 19.5 18.3867 18.7061 19.875 17.3906C21.3633 16.0752 21.75 14.2939 21.75 12.75C21.75 11.0918 20.4082 9.75 18.75 9.75C18.0059 9.75 17.3291 10.0283 16.8047 10.4766C16.7959 10.4678 16.79 10.4619 16.7812 10.4531C16.7812 10.4502 16.7578 10.4561 16.7578 10.4531C16.4912 9.2168 16.2773 8.17676 16.1016 7.33594C15.9229 6.49219 15.5449 5.80957 15.0938 5.32031C14.6426 4.83105 14.1445 4.5 13.5 4.5C12.8877 4.5 12.4863 4.81348 12.2109 5.01562C12.1143 5.08594 12.0615 5.13574 12 5.17969C11.9385 5.13574 11.8857 5.08594 11.7891 5.01562C11.5137 4.81348 11.1123 4.5 10.5 4.5ZM10.5 6C10.4883 6 10.667 6.06152 10.8984 6.23438C11.0156 6.31934 11.1357 6.41309 11.2969 6.51562C11.458 6.61816 11.6572 6.75 12 6.75C12.3428 6.75 12.542 6.61816 12.7031 6.51562C12.8643 6.41309 12.9844 6.31934 13.1016 6.23438C13.333 6.06152 13.5117 6 13.5 6C13.4561 6 13.7314 6.07031 13.9922 6.35156C14.2529 6.63281 14.5254 7.08398 14.6484 7.66406C14.8564 8.64844 15.1582 10.0488 15.4219 11.2734C15.3838 11.2998 15.3516 11.3174 15.3047 11.3438C14.7979 11.6396 13.8135 12 12 12C10.1865 12 9.20215 11.6396 8.69531 11.3438C8.63672 11.3115 8.60156 11.2822 8.55469 11.25C8.8125 10.0049 9.13477 8.50781 9.35156 7.6875C9.35156 7.67871 9.35156 7.67285 9.35156 7.66406C9.47168 7.12207 9.74121 6.6709 10.0078 6.375C10.2744 6.0791 10.5762 6 10.5 6ZM5.25 11.25C6.12012 11.25 6.71777 11.8271 6.75 12.6797C6.75 12.6885 6.75 12.6943 6.75 12.7031C6.71777 12.8438 6.72656 12.9902 6.77344 13.125C6.7793 13.1484 6.78809 13.1719 6.79688 13.1953C6.94336 14.6572 7.7666 15.6357 8.76562 16.0547C9.86426 16.5176 11.0625 16.5 12 16.5C12.958 16.5 14.1709 16.4883 15.2578 16.0078C16.2686 15.5596 17.1123 14.5488 17.2266 13.0781C17.2588 12.9727 17.2676 12.8584 17.25 12.75C17.25 12.7412 17.25 12.7354 17.25 12.7266C17.2529 12.6943 17.2529 12.665 17.25 12.6328C17.2998 11.8037 17.8975 11.25 18.75 11.25C19.6436 11.25 20.25 11.8564 20.25 12.75C20.25 14.0566 19.9658 15.2959 18.8672 16.2656C17.7686 17.2354 15.7207 18 12 18C8.27637 18 6.22852 17.25 5.13281 16.2891C4.03711 15.3281 3.75 14.0977 3.75 12.75C3.75 11.8564 4.35645 11.25 5.25 11.25ZM8.25 12.7969C9.04395 13.1836 10.2129 13.5 12 13.5C13.7871 13.5 14.9561 13.1836 15.75 12.7969C15.7383 13.9541 15.3311 14.3232 14.6484 14.625C13.9541 14.9326 12.917 15 12 15C11.0625 15 10.0107 14.9824 9.32812 14.6953C8.6543 14.4111 8.25879 14.0391 8.25 12.7969Z" fill="black"/>
</svg>
