<svg width="24" height="24" viewBox="0 0 24 24" fill="none" xmlns="http://www.w3.org/2000/svg">
<path d="M12 21C7.34766 21 5.65137 19.459 5.47266 19.2832L5.11816 18.9346L11.4932 3H17.2061L13.6611 5.52246L18.8789 18.9375L18.5273 19.2832C18.3486 19.459 16.6523 21 12 21ZM6.91699 18.4775C7.57617 18.8525 9.13184 19.5 12 19.5C14.8711 19.5 16.4238 18.8525 17.0859 18.4746L12.0762 5.58398L6.91699 18.4775ZM13.5 18C12.2578 18 11.25 16.9922 11.25 15.75C11.25 14.5078 12.2578 13.5 13.5 13.5C13.6963 13.5 13.8809 13.5322 14.0625 13.5791C13.5234 13.0693 12.7998 12.75 12 12.75C10.3418 12.75 9 14.0918 9 15.75C9 17.4082 10.3418 18.75 12 18.75C12.7998 18.75 13.5234 18.4307 14.0625 17.9209C13.8809 17.9678 13.6963 18 13.5 18ZM12 9.75C12.4131 9.75 12.75 10.0869 12.75 10.5C12.75 10.9131 12.4131 11.25 12 11.25C11.5869 11.25 11.25 10.9131 11.25 10.5C11.25 10.0869 11.5869 9.75 12 9.75ZM14.25 15C14.6631 15 15 15.3369 15 15.75C15 16.1631 14.6631 16.5 14.25 16.5C13.8369 16.5 13.5 16.1631 13.5 15.75C13.5 15.3369 13.8369 15 14.25 15Z" fill="black"/>
</svg>
