<svg width="24" height="24" viewBox="0 0 24 24" fill="none" xmlns="http://www.w3.org/2000/svg">
<path d="M12 2.25C11.721 2.25 11.4428 2.41229 11.3393 2.73779L10.0415 6.82031L6.56689 4.79883C6.44614 4.72233 6.31925 4.6875 6.19775 4.6875C5.744 4.6875 5.35297 5.16066 5.55322 5.66016L7.04003 9.375L2.85058 9.9624C2.18233 10.0562 2.02435 10.9634 2.6206 11.2837L6.35888 13.2891L3.24462 16.5103C2.82912 16.9768 3.17996 17.688 3.75146 17.688C3.80171 17.688 3.85348 17.6824 3.90673 17.6704L8.4082 16.7314L8.25146 21.0176C8.23496 21.4616 8.58937 21.7485 8.95312 21.7485C9.14962 21.7485 9.3489 21.6658 9.49365 21.4761L12 18.0894L14.5078 21.4761C14.6526 21.6651 14.8518 21.7485 15.0483 21.7485C15.4113 21.7485 15.765 21.4616 15.7485 21.0176L15.5918 16.7314L20.124 17.6704C20.1773 17.6817 20.2298 17.688 20.2793 17.688C20.8523 17.688 21.2016 16.976 20.7861 16.5103L17.6411 13.2891L21.3809 11.2837C21.9764 10.9642 21.8177 10.0576 21.1494 9.96387L16.96 9.375L18.4468 5.66016C18.647 5.16066 18.256 4.6875 17.8022 4.6875C17.68 4.6875 17.5538 4.72233 17.4331 4.79883L13.96 6.82031L12.6621 2.73779C12.5579 2.41304 12.279 2.25 12 2.25ZM12 8.15039L12.646 10.1821L14.6792 8.99854L13.7886 11.2266L16.1265 11.5532L13.894 12.7515L15.5098 14.4053L13.314 13.9409L13.396 16.2056L12 14.3877L10.6055 16.207L10.689 13.9365L8.48144 14.4067L10.0898 12.7427L7.87499 11.5547L10.2114 11.2266L9.32079 9L11.354 10.1821L12 8.15039Z" fill="black"/>
</svg>
