<svg width="24" height="24" viewBox="0 0 24 24" fill="none" xmlns="http://www.w3.org/2000/svg">
<path d="M12 3.75C7.45312 3.75 3.75 7.45312 3.75 12V18C3.75 19.2334 4.7666 20.25 6 20.25H8.25V13.5H5.25V12C5.25 8.26172 8.26172 5.25 12 5.25C15.7383 5.25 18.75 8.26172 18.75 12V13.5H15.75V20.25H18C19.2334 20.25 20.25 19.2334 20.25 18V12C20.25 7.45312 16.5469 3.75 12 3.75ZM5.25 15H6.75V18.75H6C5.5752 18.75 5.25 18.4248 5.25 18V15ZM17.25 15H18.75V18C18.75 18.4248 18.4248 18.75 18 18.75H17.25V15Z" fill="black"/>
</svg>
