<svg width="24" height="24" viewBox="0 0 24 24" fill="none" xmlns="http://www.w3.org/2000/svg">
<path d="M8.08594 3.75C4.86914 3.75 2.25 6.22559 2.25 9.26953C2.25 9.43359 2.26465 9.58887 2.27637 9.75H3.7793C3.76465 9.5918 3.75 9.43359 3.75 9.26953C3.75 7.05469 5.69531 5.25 8.08594 5.25C9.17871 5.25 10.2217 5.62793 11.0244 6.31348L12 7.14844L12.9756 6.31348C13.7754 5.62793 14.8184 5.25 15.9141 5.25C18.3047 5.25 20.25 7.05469 20.25 9.26953C20.25 13.1104 16.6318 15.3867 13.7227 17.2178C13.0576 17.6338 12.4746 18.0029 12 18.3516C11.5254 18.0029 10.9424 17.6338 10.2773 17.2178C8.9209 16.3652 7.41211 15.4131 6.18457 14.25H4.14844C5.63379 16.0576 7.7373 17.3906 9.48047 18.4893C10.21 18.9463 10.8369 19.3418 11.2822 19.6904C11.2822 19.6904 11.9941 20.2441 12 20.25C12.0029 20.2441 12.7148 19.6904 12.7148 19.6904C13.1602 19.3418 13.7871 18.9463 14.5195 18.4893C17.5693 16.5674 21.75 13.9395 21.75 9.26953C21.75 6.22559 19.1309 3.75 15.9141 3.75C14.4521 3.75 13.0664 4.25977 12 5.17383C10.9336 4.25977 9.54492 3.75 8.08594 3.75ZM8.97656 7.04004L7.22461 11.4141L7.06055 11.25H2.25V12.75H6.43945L7.77246 14.0859L9.02344 10.96L11.2734 16.21L12.8262 12.3281L13.0371 12.75H14.4521C14.7217 13.2129 15.2139 13.5 15.75 13.5C16.5791 13.5 17.25 12.8291 17.25 12C17.25 11.1709 16.5791 10.5 15.75 10.5C15.2139 10.5 14.7188 10.7871 14.4521 11.25H13.9629L12.6738 8.67188L11.2266 12.29L8.97656 7.04004Z" fill="black"/>
</svg>
