<svg width="24" height="24" viewBox="0 0 24 24" fill="none" xmlns="http://www.w3.org/2000/svg">
<path d="M7.125 3C4.02164 3 1.5 5.55264 1.5 8.625C1.5 9.69625 1.98885 10.6151 2.43896 11.2866C2.88908 11.9582 3.34863 12.4087 3.34863 12.4087L12 21.0615L20.6514 12.4087C20.6514 12.4087 22.5 10.768 22.5 8.625C22.5 5.55264 19.9784 3 16.875 3C15.6977 3 14.6452 3.39246 13.793 3.86133L13.5454 3.99756L12.0029 8.25H14.7188L12 12.9111V9.75H9.33984L10.4985 4.01953L9.99463 3.76025C9.18707 3.34459 8.21406 3 7.125 3ZM7.125 4.5C7.70855 4.5 8.24737 4.73147 8.78027 4.95117L7.50586 11.25H10.5V15.75H12.082L16.5 8.1709V6.75H14.1416L14.7363 5.1123C15.3915 4.78026 16.1149 4.5 16.875 4.5C19.1566 4.5 21 6.37236 21 8.625C21 9.78347 19.5981 11.3408 19.5981 11.3408L19.5967 11.3423L12 18.939L4.40332 11.3423L4.40186 11.3408C4.40186 11.3408 4.04805 10.9925 3.68555 10.4517C3.32304 9.91086 3 9.20375 3 8.625C3 6.37236 4.84336 4.5 7.125 4.5Z" fill="black"/>
</svg>
