<svg width="24" height="24" viewBox="0 0 24 24" fill="none" xmlns="http://www.w3.org/2000/svg">
<path d="M13.5 4.5V7.54688C12.1143 7.66699 11.0566 8.08887 10.3359 8.60156C9.91406 8.90332 9.61816 9.2373 9.39844 9.53906C9.34863 9.60645 9.3457 9.68848 9.30469 9.75H4.35938C4.0459 8.88281 3.21973 8.25 2.25 8.25C1.0166 8.25 0 9.2666 0 10.5C0 11.7334 1.0166 12.75 2.25 12.75C3.21973 12.75 4.0459 12.1172 4.35938 11.25H10.5V10.6172C10.5088 10.5791 10.5352 10.4854 10.5938 10.4062C10.708 10.248 10.9102 10.0283 11.2031 9.82031C11.792 9.40137 12.7617 9 14.25 9C14.5869 9 14.9326 9.11719 15.2812 9.16406C14.8887 9.7998 14.7656 10.6084 14.7656 11.8359C14.7656 12.3838 14.9531 12.9346 15.3516 13.3359C15.75 13.7373 16.3301 13.9688 16.9688 13.9688C18.4805 13.9688 19.4795 13.9131 20.2266 13.7812C20.291 13.7695 20.3057 13.7256 20.3672 13.7109C20.335 13.7666 20.3379 13.8721 20.2969 13.9219C20.0947 14.1797 19.793 14.3877 19.3594 14.5547C18.4922 14.8916 17.1768 15 15.8672 15H12.1641C11.2412 15 10.5 14.2588 10.5 13.3359V12H9V13.3359C9 15.0703 10.4297 16.5 12.1641 16.5H15.8672C17.2383 16.5 18.6797 16.4326 19.8984 15.9609C20.5078 15.7236 21.0791 15.3633 21.4922 14.8359C21.9053 14.3086 22.125 13.623 22.125 12.8438C22.125 11.2148 20.9502 9.89355 19.4531 8.97656C18.8818 8.62793 18.2139 8.39062 17.5547 8.15625C16.7256 7.86035 15.8672 7.63477 15 7.54688V4.5H13.5ZM5.25 5.25V6.75H12.75V5.25H5.25ZM15.75 5.25V6.75H23.25V5.25H15.75ZM17.2969 9.67969C17.7656 9.86133 18.2549 10.0225 18.6562 10.2656C19.5732 10.8252 20.0977 11.4785 20.3672 12.1406C20.25 12.1934 20.2441 12.2549 19.9688 12.3047C19.4033 12.4043 18.4482 12.4688 16.9688 12.4688C16.6582 12.4688 16.5029 12.3809 16.4062 12.2812C16.3096 12.1816 16.2656 12.041 16.2656 11.8359C16.2656 10.5586 16.4326 9.98145 16.5469 9.84375C16.6025 9.77344 16.6553 9.74121 16.8047 9.70312C16.9014 9.67676 17.1123 9.68848 17.2969 9.67969ZM2.25 9.75C2.67188 9.75 3 10.0781 3 10.5C3 10.9219 2.67188 11.25 2.25 11.25C1.82812 11.25 1.5 10.9219 1.5 10.5C1.5 10.0781 1.82812 9.75 2.25 9.75ZM21 16.5C21 16.9248 20.6748 17.25 20.25 17.25H8.25V18.75H20.25C21.4834 18.75 22.5 17.7334 22.5 16.5H21Z" fill="black"/>
</svg>
