<svg width="24" height="24" viewBox="0 0 24 24" fill="none" xmlns="http://www.w3.org/2000/svg">
<path d="M12.375 3C10.9336 3 9.75 4.18359 9.75 5.625C9.75 7.06641 10.9336 8.25 12.375 8.25C13.8164 8.25 15 7.06641 15 5.625C15 4.18359 13.8164 3 12.375 3ZM12.375 4.5C13.0049 4.5 13.5 4.99512 13.5 5.625C13.5 6.25488 13.0049 6.75 12.375 6.75C11.7451 6.75 11.25 6.25488 11.25 5.625C11.25 4.99512 11.7451 4.5 12.375 4.5ZM8.32031 7.875C8.12695 7.86621 7.92773 7.86621 7.73437 7.89844C7.34472 7.96289 6.96093 8.13574 6.63281 8.41406C5.97656 8.9707 5.5957 9.85547 5.32031 11.1562C5.23242 11.5752 5.25879 12.0088 5.46093 12.3516C5.66308 12.6943 5.97949 12.9023 6.25781 13.0312C6.81738 13.2891 7.36523 13.3389 7.66406 13.4062L8.01562 11.9531C7.56445 11.8506 7.10156 11.7686 6.89062 11.6719C6.78515 11.6221 6.77051 11.5928 6.77343 11.6016C6.76758 11.584 6.75879 11.5371 6.77343 11.4609C7.01367 10.3242 7.3623 9.77637 7.61718 9.5625C7.87207 9.34863 8.08301 9.31348 8.55468 9.42188L8.88281 7.94531C8.69824 7.9043 8.51367 7.88379 8.32031 7.875ZM9.63281 8.10938L8.53125 13.125C8.4082 13.6875 8.63965 14.2969 9.09375 14.6484L11.7422 16.7109L12.3984 21H13.9219L13.2187 16.4766C13.1602 16.0957 12.9609 15.7529 12.6562 15.5156L10.0078 13.4531L10.7812 9.96094L11.5547 10.1719L12.8906 11.4609C13.3242 11.8799 13.9775 11.9795 14.5312 11.7422L15.75 11.2266V21H17.25V8.25H15.75V9.60938L13.9453 10.3828L12.6094 9.09375C12.4248 8.91504 12.1992 8.7832 11.9531 8.71875L9.63281 8.10938ZM8.64843 15.4688L8.01562 17.3672L6.14062 21H7.82812L9.35156 18.0703C9.38965 17.9971 9.42187 17.9121 9.44531 17.8359L9.91406 16.4531L8.64843 15.4688Z" fill="black"/>
</svg>
