<svg width="24" height="24" viewBox="0 0 24 24" fill="none" xmlns="http://www.w3.org/2000/svg">
<path d="M12.1201 3.00292C11.9571 2.99401 11.7926 3.00248 11.6279 3.02929C10.5577 3.20329 9.75 4.19356 9.75 5.33056V6.74999H6.85254C4.01896 6.74999 1.69857 9.09754 1.51758 12.0527L1.5 12L0.75 15.75L1.72998 14.77C1.8721 15.6957 2.06535 16.6694 2.27197 17.4316L3.16406 21H6.75V18.4145C7.30425 18.6013 7.97025 18.75 8.625 18.75C8.9175 18.75 9.6885 18.7211 10.5 18.4556V21H14.0859L14.9575 17.4975C14.9823 17.4263 15.5251 15.843 15.7134 12.75H19.5C21.1545 12.75 22.5 11.4045 22.5 9.74999V8.11669C22.5 6.42919 21.3137 5.25146 19.6157 5.25146C18.6475 5.25146 17.911 5.50572 17.4258 5.75097C16.897 5.19747 15.903 4.49999 14.25 4.49999H14.1211C13.9898 4.12949 13.7636 3.79712 13.4561 3.53612C13.0786 3.21494 12.6092 3.02964 12.1201 3.00292ZM11.8682 4.51025C12.0962 4.4735 12.3146 4.53324 12.4849 4.67724C12.6536 4.82049 12.75 5.02949 12.75 5.24999V5.99999H14.25C15.9735 5.99999 16.5604 7.05019 16.5791 7.08544L17.0142 7.93358L17.7422 7.31542C17.7692 7.29217 18.421 6.75146 19.6157 6.75146C20.4827 6.75146 21 7.26094 21 8.11669V9.74999C21 10.5772 20.3272 11.25 19.5 11.25H14.2793L14.2515 11.9707C14.121 15.2864 13.5467 16.9881 13.522 17.0683L12.9141 19.5H12V15.75L10.8003 16.6494C10.039 17.2209 8.8545 17.25 8.625 17.25C7.641 17.25 6.62067 16.7702 6.45117 16.6494L5.25 15.7485V19.5H4.33594L3.72363 17.0552C3.34488 15.6542 3 13.4449 3 12.4219C3 10.1209 4.72854 8.24999 6.85254 8.24999H11.25V5.33056C11.25 4.92706 11.5209 4.56725 11.8682 4.51025ZM15 6.74999C14.8011 6.74999 14.6103 6.82901 14.4697 6.96966C14.329 7.11031 14.25 7.30108 14.25 7.49999C14.25 7.6989 14.329 7.88967 14.4697 8.03032C14.6103 8.17097 14.8011 8.24999 15 8.24999C15.1989 8.24999 15.3897 8.17097 15.5303 8.03032C15.671 7.88967 15.75 7.6989 15.75 7.49999C15.75 7.30108 15.671 7.11031 15.5303 6.96966C15.3897 6.82901 15.1989 6.74999 15 6.74999Z" fill="black"/>
</svg>
