<svg width="24" height="24" viewBox="0 0 24 24" fill="none" xmlns="http://www.w3.org/2000/svg">
<path d="M8.60889 5.25C8.01639 5.25 7.5293 5.75268 7.5293 6.36768C7.5293 6.96768 8.00139 7.48535 8.60889 7.48535C9.21639 7.48535 9.69727 6.97518 9.69727 6.36768C9.69727 5.73768 9.20889 5.25 8.60889 5.25ZM0.19043 5.44482C0.12293 5.44482 0.0922852 5.47529 0.0922852 5.55029V16.3418C0.0922852 16.4168 0.12293 16.4546 0.19043 16.4546H1.72852C1.80352 16.4546 1.83252 16.4168 1.83252 16.3418V11.0845C1.83252 11.047 1.72828 10.0356 3.55078 10.0356C5.37328 10.0356 5.26758 11.047 5.26758 11.0845V15.8247C5.26758 16.1697 5.54531 16.4546 5.88281 16.4546H6.91113C6.97863 16.4546 7.00781 16.4168 7.00781 16.3418V11.0845C7.00706 10.177 6.66252 9.46494 5.95752 8.93994C5.35752 8.48994 4.6002 8.25 3.7002 8.25C3.0177 8.2425 2.40252 8.39256 1.83252 8.68506V5.55029C1.83252 5.47529 1.79602 5.44482 1.72852 5.44482H0.19043ZM14.1606 8.25C12.9891 8.25 10.3228 9.00928 10.3228 12.1758V19.1426C10.3228 19.1793 10.3452 19.2466 10.4194 19.2466H11.9282C11.9942 19.2466 12.0322 19.2168 12.0322 19.1426V15.7764C12.636 16.2549 13.3494 16.4985 14.1519 16.4985C16.3839 16.4985 18.1597 14.6573 18.1597 12.3735C18.1604 10.0838 16.3851 8.25 14.1606 8.25ZM21.4526 8.25C20.4739 8.25 19.7824 8.46404 19.2964 8.83154C19.2814 8.84654 18.2506 9.58889 18.4644 10.8691C18.5896 11.6124 19.045 12.1651 19.8325 12.5259L21.8057 13.4165C22.2332 13.6085 22.3656 13.9163 22.2554 14.2178C22.1151 14.5635 21.7687 14.7334 20.9077 14.7334C20.0175 14.7334 19.2665 14.3952 18.7588 14.0127C18.6853 13.9617 18.5977 14.0196 18.5977 14.1006V15.4028C18.5977 15.8003 18.7805 16.0582 19.1338 16.1909C19.7083 16.3972 20.2972 16.5 20.9077 16.5C21.3787 16.5 21.8573 16.4552 22.248 16.3374C22.2698 16.3224 23.572 15.9996 23.9253 14.6016C24.0498 14.0863 24.0129 13.5925 23.8066 13.1147C23.5569 12.5185 23.1301 12.0921 22.5264 11.8198L20.4082 10.8633C20.0917 10.7238 20.0685 10.4362 20.3115 10.2524C20.5838 10.0387 21.9376 9.72275 23.4023 10.5103C23.4608 10.547 23.5488 10.4944 23.5488 10.4209V8.72168C23.5488 8.66993 23.5273 8.64 23.4756 8.625C22.8283 8.37525 22.1516 8.25 21.4526 8.25ZM7.84424 8.43018C7.78424 8.43018 7.74609 8.49047 7.74609 8.54297V16.3418C7.74609 16.4018 7.78424 16.4546 7.84424 16.4546H9.38232C9.44982 16.4546 9.48633 16.4168 9.48633 16.3418V8.54297C9.48633 8.46797 9.44982 8.43018 9.38232 8.43018H7.84424ZM14.1606 10.0107C15.4274 10.0107 16.4502 11.064 16.4502 12.375C16.4517 13.6785 15.4424 14.7393 14.1606 14.7393C13.5269 14.7393 12.983 14.5031 12.5405 14.0464C12.0913 13.5821 11.8696 13.0305 11.8696 12.375C11.8696 11.064 12.8864 10.0107 14.1606 10.0107Z" fill="black"/>
</svg>
