<svg width="24" height="24" viewBox="0 0 24 24" fill="none" xmlns="http://www.w3.org/2000/svg">
<path d="M12 5.25C6.78225 5.25 1.5 6.5385 1.5 9V15C1.5 17.4615 6.78225 18.75 12 18.75C17.2177 18.75 22.5 17.4615 22.5 15V9C22.5 6.5385 17.2177 5.25 12 5.25ZM12 6.75C17.583 6.75 21 8.2065 21 9C21 9.69431 18.3835 10.8959 13.9893 11.1855C13.3615 11.2269 12.6979 11.25 12 11.25C6.417 11.25 3 9.7935 3 9C3 8.2065 6.417 6.75 12 6.75ZM3 11.0303C3.04448 11.0563 3.10034 11.0781 3.14648 11.1035C3.31452 11.1962 3.49217 11.2851 3.68115 11.3701C3.75553 11.4035 3.82933 11.4361 3.90674 11.4683C4.16595 11.5763 4.43659 11.6799 4.72705 11.7744C5.33674 11.9728 6.02073 12.1342 6.73828 12.2725C6.95447 12.3134 7.1782 12.3469 7.40186 12.3823C8.03944 12.4855 8.69593 12.5675 9.37646 12.6255C10.2386 12.699 11.1156 12.75 12 12.75C12.8844 12.75 13.7614 12.699 14.6235 12.6255C15.3041 12.5675 15.9606 12.4855 16.5981 12.3823C16.8218 12.3469 17.0455 12.3134 17.2617 12.2725C17.9793 12.1342 18.6633 11.9728 19.2729 11.7744C19.5634 11.6799 19.834 11.5763 20.0933 11.4683C20.1707 11.4361 20.2445 11.4035 20.3188 11.3701C20.5078 11.2851 20.6855 11.1962 20.8535 11.1035C20.8997 11.0781 20.9555 11.0563 21 11.0303V15C21 15.7935 17.583 17.25 12 17.25C6.417 17.25 3 15.7935 3 15V11.0303Z" fill="black"/>
</svg>
