<svg width="24" height="24" viewBox="0 0 24 24" fill="none" xmlns="http://www.w3.org/2000/svg">
<path d="M12 2.25C10.3455 2.25 9 3.5955 9 5.25C9 5.81225 9.16496 6.33202 9.43506 6.78223C7.93029 6.94219 6.75 8.20343 6.75 9.75C6.75 10.6385 7.14524 11.4297 7.76074 11.9795C7.66599 11.9852 7.5713 11.9983 7.47656 12.0015C7.23431 12.009 7.00065 12.009 6.7749 12.0015L6.05859 11.9766L6.00293 12.6914C5.96543 13.1654 5.82394 13.8794 5.36719 14.5972C5.04544 15.1034 4.60642 15.5417 4.09717 15.8672L3.54492 16.2202L3.81885 16.8149C4.22685 17.6977 4.45646 18.6134 4.50146 19.5366C4.51346 19.7721 4.51271 19.9981 4.50146 20.2134L4.4458 21.3501L5.51221 20.9531C6.66271 20.5249 7.84437 20.289 9.02637 20.25C9.26712 20.2418 9.50081 20.2425 9.72656 20.25L10.4429 20.2734L10.4985 19.5601C10.536 19.0861 10.6775 18.3706 11.1343 17.6528C11.456 17.1466 11.895 16.7083 12.4043 16.3828L13.0049 16.0005L12.6533 15.3809C12.3031 14.7636 12.0811 14.1 11.9941 13.4077C11.9538 13.0838 11.9537 12.7549 11.9736 12.4263C12.0194 12.4639 12.0839 12.5146 12.1729 12.5625C12.2029 12.5775 12.2249 12.5929 12.2549 12.6079C12.3749 12.6604 12.427 12.6824 12.457 12.6899L12.4878 12.7046C13.7928 13.1846 15.1355 13.455 16.478 13.5H16.5981C16.6056 13.5075 16.6055 13.5145 16.6055 13.522C16.748 14.1895 17.0101 14.8343 17.3701 15.4043C17.6926 15.9143 18.1046 16.3724 18.5771 16.7549C18.2696 17.5649 18.0821 18.3906 18.0146 19.2231C17.0321 18.9381 16.027 18.78 15.022 18.75H14.9019C14.7594 18.075 14.4974 17.4232 14.1299 16.8457C14.0954 16.7917 14.048 16.7437 14.0112 16.6904L13.0078 17.3306C12.9343 17.3778 12.8502 17.4373 12.7632 17.5063C12.7977 17.5558 12.8364 17.6033 12.8687 17.6543C13.3262 18.3668 13.461 19.0861 13.4985 19.5586L13.5586 20.272L14.272 20.25C14.497 20.2425 14.738 20.2425 14.978 20.25C16.1555 20.2875 17.3403 20.5271 18.4878 20.9546L19.5527 21.353L19.5 20.2119C19.485 19.9944 19.485 19.7706 19.5 19.5381C19.545 18.6156 19.7701 17.6999 20.1826 16.8149L20.4521 16.2231L19.9043 15.8701C19.3943 15.5401 18.9524 15.1057 18.6299 14.5957C18.1724 13.8832 18.0375 13.1624 18 12.6899L17.9399 11.978L17.228 12C17.078 12.0075 16.9197 12.0073 16.7622 12.0073C16.6797 11.9998 16.6045 12 16.522 12C16.4278 11.9969 16.3335 11.9851 16.2393 11.9795C16.8548 11.4297 17.25 10.6385 17.25 9.75C17.25 8.20343 16.0697 6.94219 14.5649 6.78223C14.835 6.33202 15 5.81225 15 5.25C15 3.5955 13.6545 2.25 12 2.25ZM12 3.75C12.8273 3.75 13.5 4.42275 13.5 5.25C13.5 6.07725 12.8273 6.75 12 6.75C11.1727 6.75 10.5 6.07725 10.5 5.25C10.5 4.42275 11.1727 3.75 12 3.75ZM9.75 8.25C10.5773 8.25 11.25 8.92275 11.25 9.75C11.25 10.5773 10.5773 11.25 9.75 11.25C8.92275 11.25 8.25 10.5773 8.25 9.75C8.25 8.92275 8.92275 8.25 9.75 8.25ZM14.25 8.25C15.0773 8.25 15.75 8.92275 15.75 9.75C15.75 10.5773 15.0773 11.25 14.25 11.25C13.4227 11.25 12.75 10.5773 12.75 9.75C12.75 8.92275 13.4227 8.25 14.25 8.25ZM10.4575 13.0459C10.4658 13.2289 10.4819 13.4115 10.5044 13.5938C10.5884 14.2598 10.7697 14.9051 11.0435 15.5186C10.5845 15.8973 10.183 16.3484 9.86572 16.8472C9.49747 17.4254 9.23836 18.0728 9.09961 18.7471C9.05836 18.7478 9.01785 18.75 8.9751 18.7515C7.9716 18.7837 6.96939 18.9419 5.98389 19.2217C5.91939 18.3869 5.7311 17.5603 5.42285 16.7578C5.89535 16.3738 6.30735 15.9136 6.63135 15.4028C6.9996 14.8246 7.25871 14.1772 7.39746 13.5029C7.43871 13.5022 7.48069 13.5 7.52344 13.4985C8.50669 13.467 9.49002 13.3151 10.4575 13.0459Z" fill="black"/>
</svg>
