<svg width="24" height="24" viewBox="0 0 24 24" fill="none" xmlns="http://www.w3.org/2000/svg">
<path d="M17.4375 3C16.4912 3 15.6797 3.34277 15.0938 3.84375C14.5078 4.34473 14.1211 4.99512 13.8516 5.60156C13.4297 6.55078 13.4033 7.11914 13.3594 7.47656C13.0166 7.62012 12.1318 7.96875 11.25 7.96875C10.1016 7.96875 9.29297 7.5 7.78125 7.5C6.84668 7.5 6.00586 7.8457 5.41406 8.46094C5.3584 8.51953 5.30273 8.58398 5.25 8.64844C5.04492 8.59277 4.76074 8.53125 4.40625 8.53125C3.87598 8.53125 3.4043 8.79492 3.04688 9.14062C2.68945 9.48633 2.42578 9.91699 2.20312 10.4297C1.75781 11.4551 1.5 12.7822 1.5 14.25H3C3 12.958 3.22852 11.8066 3.5625 11.0391C3.72949 10.6553 3.91992 10.374 4.07812 10.2188C4.23633 10.0635 4.3418 10.0312 4.40625 10.0312C4.50879 10.0312 4.54688 10.0459 4.61719 10.0547C4.55859 10.3271 4.5 10.6055 4.5 10.8984C4.5 12.6885 5.58105 13.7725 5.97656 14.1328C5.97363 14.417 5.94434 15.3018 5.39062 16.0547L5.25 16.2422V21H6.75V16.5938C7.53516 15.2578 7.5 13.8047 7.5 13.8047L7.47656 13.5L7.24219 13.2891C7.24219 13.2891 6 12.1289 6 10.8984C6 10.2568 6.19922 9.79688 6.49219 9.49219C6.78516 9.1875 7.18652 9 7.78125 9C8.93555 9 9.74414 9.46875 11.25 9.46875C12.835 9.46875 14.2969 8.71875 14.2969 8.71875L14.6719 8.53125L14.7188 8.10938C14.7188 8.10938 14.7949 7.14844 15.2109 6.21094C15.4189 5.74219 15.7236 5.29395 16.0781 4.99219C16.3916 4.72266 16.752 4.53516 17.25 4.5V5.25C18.3809 5.25 18.8203 6.30469 18.8203 6.30469L18.8672 6.42188L18.9609 6.53906L20.25 7.80469L20.1094 7.96875C19.7783 7.88086 19.4033 7.78711 19.2422 7.73438L18.9844 7.64062L18.7266 7.73438C18.7119 7.74023 18.2812 7.84277 17.9531 7.78125C17.625 7.71973 17.3818 7.6377 17.2031 7.14844L15.7969 7.66406C15.9111 7.97754 16.0723 8.24121 16.2656 8.46094C16.1982 8.80957 16.2041 9.14941 16.2422 9.46875C16.3242 10.1807 16.5 10.8574 16.5 11.4141C16.5 12.3838 15.3047 13.3828 15.3047 13.3828L15 13.6172V21H16.5V14.3203C16.9219 13.9951 18 13.0635 18 11.4141C18 10.585 17.8037 9.84961 17.7422 9.30469C17.7393 9.28711 17.7451 9.27539 17.7422 9.25781C18.2139 9.33398 18.5361 9.24609 18.8672 9.16406C19.3125 9.30176 20.1562 9.53906 20.1562 9.53906L20.6016 9.65625L20.9062 9.30469L21.3984 8.76562C21.9053 8.20312 21.8877 7.33301 21.3516 6.79688L20.0391 5.46094L20.0156 5.48438C19.8984 5.25293 19.5205 4.56152 18.75 4.125V3H17.4375ZM9 12.75V13.5C9 15.3428 7.78125 16.2891 7.78125 16.2891L7.5 16.5V21H9V17.1328C9.31348 16.8369 9.94043 16.1191 10.2891 14.7188C10.8193 14.9561 11.6514 15.1201 12.75 15.1875V21H14.25V13.7578H13.5C11.9766 13.7578 11.1797 13.5205 10.8047 13.3359C10.6172 13.2422 10.5293 13.1572 10.5 13.125L10.3359 12.75H9Z" fill="black"/>
</svg>
