<svg width="24" height="24" viewBox="0 0 24 24" fill="none" xmlns="http://www.w3.org/2000/svg">
<path d="M17.25 3C15.7178 3 14.7715 3.90527 14.25 4.61719V3.75C2.3877 3.75 2.25 20.8271 2.25 21H5.25C5.25 21 5.23828 17.3438 6.39844 13.7344C6.97852 11.9297 7.86035 10.1455 9.11719 8.85938C10.374 7.57324 11.9795 6.75 14.25 6.75H14.7188L14.9297 6.32812C14.9297 6.32812 15.5947 5.21484 16.5 4.73438V6.9375L19.5703 13.0781L19.6406 13.1953L19.7344 13.2891C20.0361 13.5732 20.1504 13.8428 20.2031 14.0156C20.2441 14.1416 20.2266 14.1387 20.2266 14.1562C20.2061 14.2295 20.1738 14.3877 20.0391 14.6016C19.875 14.8623 19.7285 15 19.5 15C19.2715 15 19.125 14.8623 18.9609 14.6016C18.7969 14.3408 18.7266 14.0625 18.7266 14.0625L18.5625 13.4297L17.9062 13.5C17.9062 13.5 17.2822 13.5732 16.5938 13.3828C15.9053 13.1924 15.2549 12.8555 14.9766 11.8125L14.7188 10.8516L13.875 11.3438C12.9053 11.9121 12.3428 12.7793 12.2344 13.6641C12.126 14.5488 12.3867 15.4014 12.7031 16.2422C13.333 17.9238 14.25 19.6377 14.25 21H15.75C15.75 19.0342 14.6514 17.209 14.0859 15.7031C13.8047 14.9502 13.6758 14.3145 13.7344 13.8516C13.7695 13.5703 13.8838 13.3301 14.0859 13.1016C14.6572 13.9951 15.4395 14.6279 16.1953 14.8359C16.8926 15.0293 17.1768 14.9678 17.5078 14.9531C17.5752 15.1289 17.5547 15.1729 17.6953 15.3984C18 15.8877 18.6035 16.5 19.5 16.5C20.3965 16.5 21 15.8877 21.3047 15.3984C21.6094 14.9092 21.7266 14.4375 21.7266 14.4375L21.75 14.3672V14.2969C21.75 14.2969 21.7559 13.9365 21.6328 13.5469C21.5303 13.2188 21.2607 12.8203 20.9062 12.4219H20.9297L18 6.5625V3H17.25ZM13.8516 5.27344C13.8486 5.2793 13.8311 5.29102 13.8281 5.29688C13.5234 5.31152 13.2275 5.32617 12.9375 5.36719C12.7031 5.39941 12.4805 5.45801 12.2578 5.50781C12.4805 5.44922 12.7031 5.40527 12.9375 5.36719C13.2305 5.31738 13.5381 5.28809 13.8516 5.27344ZM16.5 9C16.0869 9 15.75 9.33691 15.75 9.75C15.75 10.1631 16.0869 10.5 16.5 10.5C16.9131 10.5 17.25 10.1631 17.25 9.75C17.25 9.33691 16.9131 9 16.5 9Z" fill="black"/>
</svg>
