<svg width="24" height="24" viewBox="0 0 24 24" fill="none" xmlns="http://www.w3.org/2000/svg">
<path d="M8.41406 3.28125C7.79297 4.04883 7.50586 4.70508 7.5 5.34375C7.49414 5.98242 7.77832 6.47754 7.96875 6.79688C8.15918 7.11621 8.24414 7.27734 8.25 7.45312C8.25586 7.62891 8.19727 7.93652 7.73438 8.53125L8.90625 9.46875C9.49219 8.71289 9.77051 8.0332 9.75 7.40625C9.72949 6.7793 9.44238 6.33105 9.25781 6.02344C9.07324 5.71582 8.99707 5.55176 9 5.36719C9.00293 5.18262 9.08203 4.83984 9.58594 4.21875L8.41406 3.28125ZM12.1641 3.28125C11.543 4.04883 11.2559 4.70508 11.25 5.34375C11.2441 5.98242 11.5283 6.47754 11.7188 6.79688C11.9092 7.11621 11.9941 7.27734 12 7.45312C12.0059 7.62891 11.9473 7.93652 11.4844 8.53125L12.6562 9.46875C13.2422 8.71289 13.5205 8.0332 13.5 7.40625C13.4795 6.7793 13.1924 6.33105 13.0078 6.02344C12.8232 5.71582 12.7471 5.55176 12.75 5.36719C12.7529 5.18262 12.832 4.83984 13.3359 4.21875L12.1641 3.28125ZM15.9141 3.28125C15.293 4.04883 15.0059 4.70508 15 5.34375C14.9941 5.98242 15.2783 6.47754 15.4688 6.79688C15.6592 7.11621 15.7441 7.27734 15.75 7.45312C15.7559 7.62891 15.6973 7.93652 15.2344 8.53125L16.4062 9.46875C16.9922 8.71289 17.2705 8.0332 17.25 7.40625C17.2295 6.7793 16.9424 6.33105 16.7578 6.02344C16.5732 5.71582 16.4971 5.55176 16.5 5.36719C16.5029 5.18262 16.582 4.83984 17.0859 4.21875L15.9141 3.28125ZM2.25 10.5V12H3.14062L4.28906 17.6953V17.7188C4.46191 18.4922 5.03613 19.1279 5.78906 19.3828L5.25 21H6.75L7.24219 19.5H16.7578L17.25 21H18.75L18.2109 19.3828C18.9961 19.1426 19.6055 18.5127 19.7812 17.7188V17.6953L20.8594 12H21.75V10.5H2.25ZM4.66406 12H19.3594L18.3047 17.4141C18.2168 17.7393 17.9414 18 17.5547 18H6.51562C6.11426 18 5.8418 17.7334 5.76562 17.3906L4.66406 12Z" fill="black"/>
</svg>
