<svg width="24" height="24" viewBox="0 0 24 24" fill="none" xmlns="http://www.w3.org/2000/svg">
<path d="M18.1641 3C17.2383 3 16.6904 3.37207 16.2891 3.98438C15.9229 3.93164 15.5713 3.89062 15.2812 3.89062C14.3438 3.89062 13.5439 4.3623 12.9844 4.96875C12.4424 5.55469 12.0908 6.26953 11.7891 6.98438C11.7861 6.9873 11.7686 6.98145 11.7656 6.98438C10.9863 8.44922 10.1572 10.374 7.33594 11.6953C5.23535 12.6855 4.21582 14.1328 3.96094 15.5625C3.36621 15.9346 3 16.4854 3 17.4844C3 19.043 4.125 19.9453 5.53125 20.3438C6.32812 21.1992 7.39453 21.75 8.71875 21.75C11.0215 21.75 13.7256 20.2354 16.9688 16.875H16.9922C20.5752 13.2891 21.75 10.3154 21.75 8.20312C21.75 6.8291 21.3691 5.85059 20.6484 5.36719C20.8564 3.65918 19.2832 3 18.1641 3ZM15.2812 5.39062C15.3779 5.39062 15.5068 5.40527 15.6328 5.41406C15.0264 7.12207 14.4111 9.49805 12.0938 11.8125C9.87598 14.0801 7.5 14.4932 5.71875 14.9297C6.06152 14.2764 6.7207 13.6436 7.96875 13.0547C11.2119 11.5342 12.3428 9.08789 13.0781 7.71094C13.0957 7.6875 13.1104 7.66406 13.125 7.64062C13.3945 6.9873 13.7197 6.37207 14.0859 5.97656C14.4521 5.58105 14.8096 5.39062 15.2812 5.39062ZM18.7266 6.75C19.1045 6.73242 19.5322 6.7998 20.0391 6.98438C20.1445 7.23926 20.25 7.62305 20.25 8.20312C20.25 9.75586 19.3506 12.4072 15.9375 15.8203C15.9287 15.8291 15.9229 15.835 15.9141 15.8438C13.6934 18.1465 11.8037 19.3887 10.3125 19.9219C8.56348 19.8105 6.62402 18.4629 13.4062 13.5C16.1514 11.4932 16.0723 6.88184 18.7266 6.75Z" fill="black"/>
</svg>
