<svg width="24" height="24" viewBox="0 0 24 24" fill="none" xmlns="http://www.w3.org/2000/svg">
<path d="M6.75001 3L8.04494 4.43115C8.05619 4.4439 9.13596 5.69183 8.96046 7.15283C8.84871 8.08583 8.24021 8.9478 7.15871 9.70605C3.97946 11.8601 3.01527 14.7576 4.33302 17.5693C5.32452 19.6858 7.49798 21 9.83498 21H11.1958L10.3433 19.7915C9.66228 18.911 9.67516 17.9048 9.83791 17.1548C10.9967 18.0315 12.35 17.9196 13.2905 17.3203C14.1538 16.7698 14.7644 15.7785 14.7847 14.5957C14.9782 14.9017 15.138 15.2581 15.252 15.6533C15.5835 16.8016 15.5431 18.553 14.3408 19.7095L13.0884 21H14.2691C14.9373 21 15.6078 20.8751 16.2056 20.5781C18.0723 19.6519 19.3321 17.9599 19.9966 15.5142C20.5373 13.5229 20.1919 10.8929 19.0474 8.84619C16.3931 4.08294 8.99929 3.22346 8.68654 3.18896L6.75001 3ZM10.0899 4.96143C12.2701 5.45193 16.1358 6.70015 17.7393 9.57715C18.6865 11.2699 18.9949 13.4006 18.5449 15.1406C18.1722 16.5964 17.5861 17.684 16.7476 18.4497C17.0438 17.3262 16.9619 16.1688 16.6934 15.2373C16.2021 13.5363 15.0376 12.3026 13.6524 12.0161L12 11.6704L12.8569 13.1338C13.6527 14.4718 13.2214 15.5852 12.4849 16.0547C11.8976 16.4289 10.9379 16.4651 10.1631 15.3281L9.44826 14.2778L8.87404 15.4116C8.67529 15.8039 7.90533 17.4983 8.42433 19.2788C7.32933 18.9233 6.22295 18.1284 5.64845 16.8384C4.4327 14.1099 6.25703 12.1289 8.00978 10.9409C9.47078 9.91717 10.2934 8.69693 10.4531 7.31543C10.5566 6.42218 10.3591 5.60943 10.0899 4.96143Z" fill="black"/>
</svg>
