<svg width="24" height="24" viewBox="0 0 24 24" fill="none" xmlns="http://www.w3.org/2000/svg">
<path d="M10.6582 3.75C9.9157 3.75 9.19688 3.96813 8.57812 4.37988L7.08398 5.37598L7.91602 6.62402L9.41016 5.62793C9.78141 5.38043 10.2127 5.25 10.6582 5.25H13.9468C14.9413 5.25 15.75 6.05872 15.75 7.05322C15.75 7.59022 15.5136 8.09618 15.1011 8.44043L14.4302 9H6V10.5H12.6299L9.92871 12.75H6V14.25H8.12988L7.93945 14.4082C7.1842 15.0382 6.75 15.9635 6.75 16.9468C6.75 18.7685 8.23147 20.25 10.0532 20.25H13.3418C14.0843 20.25 14.8039 20.0319 15.4219 19.6201L16.916 18.624L16.084 17.376L14.5898 18.3721C14.2186 18.6196 13.7873 18.75 13.3418 18.75H10.0532C9.05872 18.75 8.25 17.9413 8.25 16.9468C8.25 16.4098 8.48643 15.9038 8.89893 15.5596L10.4707 14.25H18V12.75H12.271L14.9707 10.5H18V9H16.6128C17.0221 8.44025 17.25 7.76257 17.25 7.05322C17.25 5.23147 15.7685 3.75 13.9468 3.75H10.6582Z" fill="black"/>
</svg>
