<svg width="24" height="24" viewBox="0 0 24 24" fill="none" xmlns="http://www.w3.org/2000/svg">
<path d="M5.625 3C5.12772 3 4.65081 3.19754 4.29917 3.54917C3.94754 3.90081 3.75 4.37772 3.75 4.875C3.75 5.37228 3.94754 5.84919 4.29917 6.20083C4.65081 6.55246 5.12772 6.75 5.625 6.75C5.97884 6.74904 6.32519 6.64798 6.62402 6.4585L12.2388 10.689C11.6211 11.4594 11.25 12.4356 11.25 13.5C11.25 14.6638 11.6956 15.7202 12.4204 16.519L10.1367 18.8027C10.0107 18.7684 9.88065 18.7507 9.75 18.75C9.35218 18.75 8.97064 18.908 8.68934 19.1893C8.40804 19.4706 8.25 19.8522 8.25 20.25C8.25 20.6478 8.40804 21.0294 8.68934 21.3107C8.97064 21.592 9.35218 21.75 9.75 21.75C9.97978 21.7497 10.2064 21.6966 10.4124 21.5948C10.6184 21.493 10.7983 21.3453 10.9381 21.163C11.078 20.9806 11.1741 20.7686 11.219 20.5433C11.2639 20.3179 11.2565 20.0853 11.1973 19.8633L13.604 17.4565C13.6044 17.4567 13.6051 17.4563 13.6055 17.4565C14.2431 17.8029 14.9733 18 15.75 18C18.2355 18 20.25 15.9855 20.25 13.5C20.25 11.2707 18.6275 9.42517 16.5 9.06738V6.54785C16.7854 6.38249 17.0083 6.12768 17.1343 5.82286C17.2602 5.51803 17.2822 5.18019 17.1968 4.86162C17.1114 4.54304 16.9234 4.26149 16.6618 4.06054C16.4003 3.8596 16.0798 3.75045 15.75 3.75C15.4202 3.75045 15.0997 3.8596 14.8382 4.06054C14.5766 4.26149 14.3886 4.54304 14.3032 4.86162C14.2178 5.18019 14.2398 5.51803 14.3657 5.82286C14.4917 6.12768 14.7146 6.38249 15 6.54785V9.06738C14.4161 9.16558 13.8717 9.37674 13.3872 9.67676L7.46777 5.21631C7.51784 4.94584 7.50779 4.66766 7.43833 4.40151C7.36887 4.13536 7.2417 3.88775 7.06584 3.67625C6.88998 3.46474 6.66974 3.29452 6.42074 3.17765C6.17173 3.06078 5.90007 3.00013 5.625 3ZM15.75 11.25C16.9905 11.25 18 12.2595 18 13.5C18 14.7405 16.9905 15.75 15.75 15.75C14.5095 15.75 13.5 14.7405 13.5 13.5C13.5 12.2595 14.5095 11.25 15.75 11.25Z" fill="black"/>
</svg>
