<svg width="24" height="24" viewBox="0 0 24 24" fill="none" xmlns="http://www.w3.org/2000/svg">
<path d="M4.5 3.75V5.53125L5.10938 5.74219C5.66016 6.20215 6 6.86719 6 7.59375V15.75C6 16.9834 7.0166 18 8.25 18C9.4834 18 10.5 16.9834 10.5 15.75V14.1562C10.5 13.6084 10.9951 13.2598 11.5078 13.4531C11.8037 13.5645 12 13.8398 12 14.1562V18.75C12 19.9834 13.0166 21 14.25 21C15.4834 21 16.5 19.9834 16.5 18.75V12.0234C16.5 11.0684 17.2354 10.3477 18.1406 10.3125H18.1641L19.5 10.7812V9L4.5 3.75ZM7.35938 6.53906L16.125 9.60938C15.4453 10.1953 15 11.0479 15 12.0234V18.75C15 19.1748 14.6748 19.5 14.25 19.5C13.8252 19.5 13.5 19.1748 13.5 18.75V14.1562C13.5 13.2217 12.9229 12.375 12.0469 12.0469C10.5996 11.5049 9 12.6094 9 14.1562V15.75C9 16.1748 8.6748 16.5 8.25 16.5C7.8252 16.5 7.5 16.1748 7.5 15.75V7.59375C7.5 7.2334 7.45312 6.87891 7.35938 6.53906Z" fill="black"/>
</svg>
