<svg width="24" height="24" viewBox="0 0 24 24" fill="none" xmlns="http://www.w3.org/2000/svg">
<path d="M3.75 3.75V20.25H20.25V3.75H3.75ZM5.25 5.25H11.25V11.25H5.25V5.25ZM12.75 5.25H18.75V11.25H12.75V5.25ZM8.25 6.75L6 9.75H10.5L8.25 6.75ZM14.25 6.75V9.75H17.25V6.75H14.25ZM5.25 12.75H11.25V18.75H5.25V12.75ZM12.75 12.75H18.75V18.75H12.75V12.75ZM15.75 13.5L14.25 15.75L15.75 18L17.25 15.75L15.75 13.5ZM8.25 14.25C7.4209 14.25 6.75 14.9209 6.75 15.75C6.75 16.5791 7.4209 17.25 8.25 17.25C9.0791 17.25 9.75 16.5791 9.75 15.75C9.75 14.9209 9.0791 14.25 8.25 14.25Z" fill="black"/>
</svg>
