<svg width="24" height="24" viewBox="0 0 24 24" fill="none" xmlns="http://www.w3.org/2000/svg">
<path d="M3.75 4.5C2.5166 4.5 1.5 5.5166 1.5 6.75V17.25C1.5 18.4834 2.5166 19.5 3.75 19.5H20.25C21.4834 19.5 22.5 18.4834 22.5 17.25V6.75C22.5 5.5166 21.4834 4.5 20.25 4.5H3.75ZM3.75 6H20.25C20.6748 6 21 6.3252 21 6.75V17.25C21 17.6748 20.6748 18 20.25 18H3.75C3.3252 18 3 17.6748 3 17.25V6.75C3 6.3252 3.3252 6 3.75 6ZM8.25 7.5C6.60059 7.5 5.25 8.85059 5.25 10.5C5.25 11.335 5.60742 12.0879 6.16406 12.6328C5.16504 13.3096 4.5 14.4609 4.5 15.75H6C6 14.499 6.99902 13.5 8.25 13.5C9.50098 13.5 10.5 14.499 10.5 15.75H12C12 14.4609 11.335 13.3096 10.3359 12.6328C10.8926 12.0879 11.25 11.335 11.25 10.5C11.25 8.85059 9.89941 7.5 8.25 7.5ZM13.5 8.25V9.75H19.5V8.25H13.5ZM8.25 9C9.08789 9 9.75 9.66211 9.75 10.5C9.75 11.3379 9.08789 12 8.25 12C7.41211 12 6.75 11.3379 6.75 10.5C6.75 9.66211 7.41211 9 8.25 9ZM13.5 11.25V12.75H19.5V11.25H13.5ZM13.5 14.25V15.75H17.25V14.25H13.5Z" fill="black"/>
</svg>
