<svg width="24" height="24" viewBox="0 0 24 24" fill="none" xmlns="http://www.w3.org/2000/svg">
<path d="M12 4.5C6.624 4.5 2.25 8.874 2.25 14.25V19.5H21.75V14.25C21.75 8.874 17.376 4.5 12 4.5ZM12 6C12.2532 6 12.5026 6.01565 12.75 6.03809V9H5.64258C7.15708 7.16938 9.4443 6 12 6ZM14.25 6.3208C15.8787 6.78376 17.3055 7.72856 18.3574 9H14.25V6.3208ZM4.66113 10.5H6V14.25H3.75C3.75 12.899 4.08292 11.6267 4.66113 10.5ZM7.5 10.5H16.5V14.25H15.4336C14.8535 12.9275 13.5342 12 12 12C10.4658 12 9.14648 12.9275 8.56641 14.25H7.5V10.5ZM18 10.5H19.3389C19.9171 11.6267 20.25 12.899 20.25 14.25H18V10.5ZM12 13.5C13.2405 13.5 14.25 14.5095 14.25 15.75V18H9.75V15.75C9.75 14.5095 10.7595 13.5 12 13.5ZM3.75 15.75H8.25V18H3.75V15.75ZM15.75 15.75H20.25V18H15.75V15.75Z" fill="black"/>
</svg>
