<svg width="24" height="24" viewBox="0 0 24 24" fill="none" xmlns="http://www.w3.org/2000/svg">
<path d="M15 3.75V7.85156L12.75 9.1875V6.91406L11.625 7.61719L9 9.1875V6.91406L7.875 7.61719L4.125 9.86719L3.75 10.0781V20.25H20.25V3.75H15ZM16.5 5.25H18.75V18.75H5.25V10.8984L7.5 9.5625V11.8359L8.625 11.1328L11.25 9.5625V11.8359L12.375 11.1328L16.125 8.88281L16.5 8.67188V5.25ZM6.75 12.75V14.25H8.25V12.75H6.75ZM9.75 12.75V14.25H11.25V12.75H9.75ZM12.75 12.75V14.25H14.25V12.75H12.75ZM15.75 12.75V14.25H17.25V12.75H15.75ZM6.75 15.75V17.25H8.25V15.75H6.75ZM9.75 15.75V17.25H11.25V15.75H9.75ZM12.75 15.75V17.25H14.25V15.75H12.75ZM15.75 15.75V17.25H17.25V15.75H15.75Z" fill="black"/>
</svg>
