<svg width="24" height="24" viewBox="0 0 24 24" fill="none" xmlns="http://www.w3.org/2000/svg">
<path d="M6.75 6.75C3.8584 6.75 1.5 9.1084 1.5 12C1.5 14.8945 3.85547 17.25 6.75 17.25C8.94727 17.25 10.2891 16.043 11.3203 14.5547C11.0127 14.0596 10.7549 13.5703 10.5 13.1016C9.58008 14.6221 8.54883 15.75 6.75 15.75C4.68164 15.75 3 14.0684 3 12C3 9.91992 4.66992 8.25 6.75 8.25C7.96289 8.25 8.7334 8.68359 9.44531 9.42188C10.1572 10.1602 10.7578 11.2266 11.3672 12.3516C11.9766 13.4766 12.5947 14.6602 13.5 15.6094C14.4053 16.5586 15.6533 17.25 17.25 17.25C20.1416 17.25 22.5 14.8916 22.5 12C22.5 9.10547 20.1445 6.75 17.25 6.75C15.0645 6.75 13.7139 7.91895 12.6797 9.375C12.9873 9.86133 13.2686 10.3389 13.5234 10.8047C14.4375 9.32812 15.457 8.25 17.25 8.25C19.3184 8.25 21 9.93164 21 12C21 14.0801 19.3301 15.75 17.25 15.75C16.0576 15.75 15.3076 15.3164 14.6016 14.5781C13.8955 13.8398 13.292 12.7734 12.6797 11.6484C12.0674 10.5234 11.4375 9.33984 10.5234 8.39062C9.60938 7.44141 8.36133 6.75 6.75 6.75Z" fill="black"/>
</svg>
