<svg width="24" height="24" viewBox="0 0 24 24" fill="none" xmlns="http://www.w3.org/2000/svg">
<path d="M20.7744 6.60937C22.6084 1.92773 19.0488 2.25586 19.0488 2.25586C16.7637 2.25586 13.9072 4.30371 13.9072 4.30371C13.9072 4.30371 10.5 3.39843 7.09277 5.42578C3.38086 7.75488 3.50391 11.8916 3.50391 11.8916C6.52149 7.63769 10.7256 5.90918 10.7256 5.90918V6.19043C4.52051 10.3623 3.05274 16.4678 2.68652 17.7129C2.31738 18.958 2.56348 21.75 5.17383 21.75C7.78711 21.75 10.4385 19.6787 10.4385 19.6787C10.4385 19.6787 11.0098 19.8018 12.5596 19.8018C19.0898 19.8018 20.6396 14.1387 20.6396 14.1387H14.8447C14.8447 14.1387 14.4375 15.9873 12.3574 15.9873C9.49805 15.9873 9.66211 13.0547 9.66211 13.0547H20.7217C21.252 5.50781 14.5605 4.42382 14.5605 4.42382C14.5605 4.42382 16.9248 2.77734 18.9668 2.77734C22.2012 2.77734 20.6719 6.50683 20.6719 6.50683L20.7744 6.60937ZM10.1133 19.5967C10.1133 19.5967 6.12891 21.9756 4.33887 20.3262C3.38379 18.6768 4.93945 16.3418 4.93945 16.3418C4.93945 16.3418 6.25781 18.7471 10.1133 19.5967ZM14.9062 10.4853H9.64746C9.64746 10.4853 9.58008 7.96289 12.3428 7.96289C15.0117 7.96289 14.9062 10.4853 14.9062 10.4853Z" fill="black"/>
</svg>
