<svg width="24" height="24" viewBox="0 0 24 24" fill="none" xmlns="http://www.w3.org/2000/svg">
<path d="M3.75 3.75V20.25H20.25V3.75H3.75ZM5.25 5.25H18.75V18.75H5.25V5.25ZM12.0015 6.75C11.7628 6.75 11.5239 6.90848 11.5239 7.22461V14.1372C11.5239 14.7695 12.479 14.7695 12.479 14.1372V7.22461C12.479 6.90848 12.2402 6.75 12.0015 6.75ZM9.6167 6.98877C9.37801 6.98877 9.13916 7.14725 9.13916 7.46338V13.8325C9.13916 14.4648 10.0928 14.4648 10.0928 13.8325V7.46338C10.0928 7.14725 9.85539 6.98877 9.6167 6.98877ZM14.3833 6.98877C14.1446 6.98877 13.9058 7.14725 13.9058 7.46338V13.8325C13.9058 14.4648 14.8608 14.4648 14.8608 13.8325V7.46338C14.8608 7.14725 14.622 6.98877 14.3833 6.98877ZM7.23047 7.94385C6.99178 7.94385 6.75439 8.10233 6.75439 8.41846V12.7061C6.75439 13.3383 7.70801 13.3383 7.70801 12.7061V8.41846C7.70801 8.10233 7.46916 7.94385 7.23047 7.94385ZM16.7681 7.94385C16.5294 7.94385 16.2905 8.10233 16.2905 8.41846V12.7061C16.2905 13.3383 17.2456 13.3383 17.2456 12.7061V8.41846C17.2456 8.10233 17.0068 7.94385 16.7681 7.94385ZM16.8237 14.8491C16.7061 14.8327 16.578 14.8634 16.459 14.9663C14.4415 16.6876 9.64623 16.7318 7.54248 14.9663C7.06323 14.5576 6.4436 15.2827 6.92285 15.6914C9.36185 17.7794 14.7544 17.7029 17.0786 15.6914C17.4358 15.3826 17.1766 14.8985 16.8237 14.8491Z" fill="black"/>
</svg>
