<svg width="24" height="24" viewBox="0 0 24 24" fill="none" xmlns="http://www.w3.org/2000/svg">
<path d="M3.75 3.75V20.25H20.25V3.75H3.75ZM5.25 5.25H18.75V18.75H5.25V5.25ZM9.67676 7.5C9.25038 7.50281 8.82609 7.78711 8.82422 8.34961C8.82422 8.82961 9.21516 9.2124 9.69141 9.2124C9.82566 9.20865 10.5538 9.08418 10.541 8.33643C10.5316 7.77543 10.1031 7.49719 9.67676 7.5ZM14.7026 9.90234C14.066 9.95561 13.3702 10.3965 12.8848 11.3013L13.1689 10.0078H10.9702L10.6611 11.1445H11.6924L11.0596 13.6831C10.5323 14.8561 9.22559 15.0926 9.22559 14.4243C9.23534 14.0636 9.20188 14.2813 10.2759 10.0078H7.83398L7.5249 11.146H8.5415C7.835 14.0252 7.80915 14.0159 7.80615 14.4727C7.80615 16.0289 9.82309 16.2656 10.8296 14.6104L10.5703 15.6489H12.0117L12.8364 12.3472C13.3067 10.4392 15.2017 10.8424 14.751 12.3252C14.46 13.3677 13.4523 15.7324 15.5493 15.7324C16.3098 15.7324 16.9148 15.2428 17.25 14.0698L16.6787 13.856C16.222 15.1182 15.6621 14.8908 15.6621 14.395C15.6719 14.1363 15.6844 14.1491 16.1382 12.5156C16.6594 10.8019 15.7636 9.81357 14.7026 9.90234Z" fill="black"/>
</svg>
