<svg width="24" height="24" viewBox="0 0 24 24" fill="none" xmlns="http://www.w3.org/2000/svg">
<path d="M12 3.75C9.561 3.75 6.23408 3.78814 5.55908 3.84814C4.80158 4.30264 3.30211 6.02321 3.28711 6.47021V7.22021C3.28711 8.16746 4.17429 9 4.97754 9C5.93979 9 6.74268 8.19748 6.74268 7.25098C6.74268 8.19748 7.52287 9 8.48438 9C9.45412 9 10.2041 8.19823 10.2041 7.25098C10.2041 8.19748 11.0215 9 11.9912 9H12.0073C12.9771 9 13.7944 8.19823 13.7944 7.25098C13.7944 8.19748 14.5519 9 15.5142 9C16.4764 9 17.2573 8.19823 17.2573 7.25098C17.2573 8.19748 18.0602 9 19.0225 9C19.8257 9 20.7114 8.16746 20.7114 7.22021V6.47021C20.6964 6.02321 19.197 4.30264 18.4395 3.84814C16.083 3.76489 14.439 3.75 12 3.75ZM10.1631 8.80664C9.37334 10.1641 7.38923 10.1804 6.61523 8.81543C6.14273 9.63443 5.07322 9.95066 4.61572 9.79541C4.48222 11.2197 4.39011 18.5316 5.35986 19.7578C8.20761 20.4216 15.8734 20.4073 18.6401 19.7578C19.7614 18.6148 19.5103 11.1162 19.3843 9.79541C18.9268 9.95066 17.8571 9.63443 17.3921 8.81543C16.6098 10.1804 14.6259 10.1641 13.8369 8.80664C13.5932 9.24914 13.0253 9.83203 12 9.83203C11.2477 9.86128 10.5388 9.45539 10.1631 8.80664ZM8.56494 10.5C9.16494 10.5 9.71256 10.5004 10.3726 11.2354C11.4601 11.1229 12.5399 11.1229 13.6274 11.2354C14.2949 10.5079 14.8351 10.5073 15.4351 10.5073C17.3701 10.5073 17.8357 13.3647 18.5332 15.8247C19.1632 18.1122 18.3218 18.1729 17.2793 18.1729C15.7268 18.1129 14.8652 16.988 14.8652 15.8555C13.4177 16.0955 11.1073 16.1855 9.13477 15.8555C9.13477 16.988 8.2732 18.1129 6.7207 18.1729C5.6782 18.1729 4.8368 18.1122 5.4668 15.8247C6.1643 13.3497 6.62994 10.5073 8.56494 10.5073V10.5ZM12 12.6577C12 12.6577 10.7295 13.8295 10.5 14.2383L11.3306 14.2075V14.9326C11.3306 14.9761 11.9445 14.9385 12 14.9385C12.3352 14.9512 12.6694 14.9634 12.6694 14.9326V14.2075L13.5 14.2383C13.2705 13.8288 12 12.6577 12 12.6577Z" fill="black"/>
</svg>
