<svg width="24" height="24" viewBox="0 0 24 24" fill="none" xmlns="http://www.w3.org/2000/svg">
<path d="M17.3013 3.7544C17.1678 3.7544 16.2194 3.94145 8.44335 5.39795C8.3826 5.39795 8.09187 5.47393 7.93212 5.60743C7.77537 5.73343 7.69188 5.90161 7.66113 6.09961C7.53138 6.61786 7.9448 15.9609 7.56005 16.3989C7.39205 16.5857 7.09593 16.6396 6.86718 16.6816C5.49918 16.9216 4.58842 17.0473 3.94042 17.6646C2.82367 18.7543 3.40231 20.6558 5.04931 20.9648C5.66656 21.0788 6.8258 20.9241 7.4663 20.5693C8.0303 20.2791 8.45792 19.7572 8.61767 19.0635C8.75492 18.4687 8.71288 18.8799 8.71288 9.93311C8.71288 9.49436 8.83561 9.3799 9.22411 9.2959C9.22411 9.2959 15.9895 8.03079 16.3022 7.97754C16.7402 7.90104 16.9497 8.01954 16.9497 8.44629C16.9497 14.5115 17.0265 14.393 16.7827 14.6675C16.6147 14.8542 16.4153 14.9067 16.1865 14.9487C14.8178 15.1887 13.9913 15.2309 13.3433 15.8481C12.5235 16.6484 12.5345 17.9176 13.4458 18.6841C14.1245 19.2016 14.8866 19.329 15.8203 19.1572C16.8838 18.9585 17.6771 18.3709 17.9209 17.3262C18.0311 16.8499 17.9957 17.5548 17.9912 4.4253C17.9912 3.9828 17.7393 3.72365 17.3013 3.7544Z" fill="black"/>
</svg>
