<svg width="24" height="24" viewBox="0 0 24 24" fill="none" xmlns="http://www.w3.org/2000/svg">
<path d="M11.6235 3C11.4743 3 11.3541 3.11592 11.3481 3.26367L10.9512 13.5425L9.90234 12.8306C9.79434 12.7578 9.65261 12.7669 9.55811 12.8569C9.46436 12.9462 9.44448 13.0872 9.51123 13.1997L10.2041 14.3628L8.75391 14.6631C8.62641 14.6886 8.53418 14.8021 8.53418 14.9326C8.53418 15.0631 8.62641 15.1774 8.75391 15.2036L10.2041 15.5039L9.50977 16.6685C9.44377 16.7795 9.46361 16.9212 9.55811 17.0112C9.64736 17.096 9.79959 17.1051 9.90234 17.0361L10.8384 16.3989L10.7534 18.6489C8.79067 18.2477 7.30957 16.5155 7.30957 14.4463C7.30957 13.2373 7.814 12.1161 8.729 11.2895C8.85725 11.1741 8.92622 11.0101 8.91797 10.8413C8.90972 10.6726 8.82452 10.5178 8.68652 10.415C7.42277 9.47904 6.69873 8.04915 6.69873 6.49365C6.69873 5.8884 6.81211 5.29405 7.03711 4.72705C7.10761 4.5523 7.08791 4.36228 6.98291 4.20703C6.87641 4.05103 6.70234 3.95801 6.51709 3.95801C6.40309 3.95801 6.293 3.99305 6.19775 4.06055C4.27175 5.42255 2.97059 7.41771 2.47559 9.64746L3.90234 11.0742H2.2749C2.25315 11.4162 2.24082 11.7597 2.25732 12.1069C2.27832 12.5697 2.34461 13.0208 2.43311 13.4648L4.45312 15.4849H3.07764C4.49964 18.5951 7.59765 20.8247 11.1812 20.9897C11.3297 20.9965 11.4765 21 11.6235 21C15.4268 21 18.7016 18.7309 20.1709 15.4849H18.7939L20.8228 13.4561C20.936 12.8771 21 12.2809 21 11.6689C21 11.4687 20.9761 11.2715 20.9634 11.0728H19.3462L20.7671 9.65185C20.2676 7.4191 18.9604 5.41058 17.0479 4.05908C16.9526 3.99158 16.8432 3.95654 16.73 3.95654C16.5447 3.95654 16.3707 4.04957 16.2642 4.20557C16.1592 4.36007 16.1387 4.55008 16.2085 4.72558C16.4342 5.29258 16.5483 5.88765 16.5483 6.49365C16.5483 8.04915 15.8243 9.47829 14.5605 10.415C14.4218 10.5178 14.3374 10.6726 14.3291 10.8413C14.3209 11.0108 14.3898 11.1748 14.5181 11.291C15.6528 12.3163 16.1504 13.8252 15.8481 15.3267C15.5121 16.9932 14.1647 18.3279 12.4937 18.6519L12.4087 16.4004L13.3447 17.0376C13.4475 17.1088 13.6004 17.096 13.6904 17.0098C13.7842 16.9205 13.8018 16.778 13.7358 16.667L13.043 15.5054L14.4932 15.2036C14.6207 15.1781 14.7129 15.0646 14.7129 14.9341C14.7129 14.8043 14.6199 14.6916 14.4932 14.6646L13.043 14.3628L13.7373 13.1997C13.8033 13.0887 13.7842 12.9476 13.6904 12.8584C13.5974 12.7706 13.4497 12.7586 13.3447 12.8306L12.2974 13.5425L11.8989 3.26514C11.8937 3.11664 11.772 2.99925 11.6235 3Z" fill="black"/>
</svg>
