<svg width="24" height="24" viewBox="0 0 24 24" fill="none" xmlns="http://www.w3.org/2000/svg">
<path d="M11.6147 2.25C11.6147 2.25 11.3804 11.2121 11.2837 14.8901L9.96973 12.9697L10.8149 15.2915L8.1958 15.6724L10.8149 16.0532L9.80273 18.0366L11.2456 16.522C11.1706 19.4005 11.1533 20.1079 11.1533 20.1079C11.1533 20.1079 4.69344 17.108 8.28369 10.4795C8.28369 10.4795 3.80657 5.53652 7.86182 2.49902C7.86182 2.49902 0.937067 6.6806 5.33057 13.8604C5.33057 13.8604 1.69791 10.3123 3.59766 6.72656C3.59766 6.72656 0.30511 11.3705 4.31836 16.4795C4.31836 16.4795 3.22196 15.8068 2.25146 13.229C2.25146 13.229 2.95779 20.8988 11.54 20.9985H11.7114C20.2884 20.8995 21 13.2305 21 13.2305C20.0123 15.8037 18.9126 16.481 18.9126 16.481C22.9251 11.372 19.6318 6.72803 19.6318 6.72803C21.5316 10.3183 17.8989 13.8618 17.8989 13.8618C22.2924 6.68582 15.3677 2.50195 15.3677 2.50195C19.4222 5.54395 14.9458 10.481 14.9458 10.481C18.5361 17.1087 12.0762 20.1094 12.0762 20.1094C12.0762 20.1094 12.0596 19.4019 11.9839 16.5234C12.1639 16.7117 13.4268 18.0381 13.4268 18.0381L12.4146 16.0547L15.0352 15.6738L12.4146 15.293L13.2598 12.9712L11.9458 14.8916C11.8528 11.2211 11.6192 2.325 11.6147 2.25Z" fill="black"/>
</svg>
