<svg width="24" height="24" viewBox="0 0 24 24" fill="none" xmlns="http://www.w3.org/2000/svg">
<path d="M13.0693 1.4209C9.96387 1.48829 8.18848 2.88575 8.08887 2.96485C8.00977 2.99121 5.95898 3.69434 5.54297 5.52832C5.47852 5.55469 5.46094 5.55176 5.36719 5.60743C5.17969 5.73047 4.94531 5.93262 4.75488 6.25782C4.3916 6.87598 4.23926 7.93653 4.63477 9.58594C4.08398 10.0107 3.78516 10.6758 3.7793 11.3789C3.77344 12.1963 4.05176 13.0518 4.61133 13.6494C5.1123 14.1856 5.59863 14.417 5.97363 14.4961C6.12012 14.5283 6.12598 14.499 6.23437 14.4961C6.30176 14.8477 6.55664 15.8643 7.10449 16.919C6.78809 17.0977 5.88281 17.6045 4.81641 18.2227C4.21582 18.5713 3.62402 18.9199 3.17578 19.1953C2.95312 19.3359 2.76855 19.4561 2.62793 19.5527C2.55762 19.6025 2.50195 19.6436 2.44922 19.6875C2.42285 19.708 2.39941 19.7285 2.37012 19.7607C2.34082 19.7959 2.28223 19.8164 2.26172 19.9951L2.23242 20.2822L3.12305 22.5H20.9004L20.9824 22.2363C20.9824 22.2363 21.1875 21.5859 21.3838 20.8506C21.4834 20.4844 21.5801 20.0977 21.6533 19.7549C21.7236 19.4092 21.7764 19.1309 21.7617 18.876C21.75 18.7295 21.7031 18.6768 21.668 18.6211C21.6299 18.5654 21.5918 18.5186 21.5479 18.4688C21.46 18.3691 21.3516 18.2666 21.2227 18.1494C20.9678 17.918 20.6426 17.6484 20.3174 17.3877C19.793 16.9688 19.459 16.7227 19.2744 16.582C19.4326 16.3857 19.7725 16.0313 20.2061 14.9326C20.7363 13.5967 21.208 11.5664 21.0117 8.78614C20.8242 6.15528 19.916 4.32422 18.5771 3.15235C17.4932 2.20899 16.1514 1.71094 14.7275 1.51758V1.51172C14.7158 1.51172 14.707 1.51465 14.6953 1.51172C14.3701 1.47071 14.042 1.43848 13.708 1.42383C13.4883 1.41797 13.2773 1.41504 13.0693 1.4209ZM13.8867 2.26172C14.127 2.24707 14.376 2.25 14.6338 2.26172C15.9404 2.44043 17.1387 2.89161 18.085 3.72071C18.6035 4.17481 19.0518 4.74903 19.4092 5.45801C19.1309 5.34961 18.8525 5.3086 18.6064 5.32032C17.9707 5.35547 17.5049 5.65723 17.5049 5.65723L17.9062 6.29297C17.9062 6.29297 18.2314 6.09082 18.6445 6.07032C19.0488 6.04981 19.5088 6.15528 19.9512 6.91407C20.1006 7.48536 20.209 8.11231 20.2617 8.81836C20.2383 8.77735 20.2207 8.74219 20.1914 8.69532C20.1064 8.53711 19.9951 8.34082 19.8867 8.15039C19.6641 7.76954 19.4473 7.40332 19.4473 7.40332L18.8027 7.78418C18.8027 7.78418 19.0166 8.14746 19.2334 8.52539C19.3447 8.71289 19.4531 8.90625 19.5352 9.05567C19.5615 9.09961 19.5762 9.12891 19.5938 9.16407C19.5615 9.18164 19.5469 9.19336 19.4766 9.20801C19.248 9.25782 18.8672 9.25196 18.501 9.14356L18.293 9.86719C18.7734 10.0049 19.2451 10.0254 19.6318 9.94043C19.8281 9.89942 20.0039 9.83789 20.1592 9.70606C20.209 9.66504 20.2529 9.60352 20.2939 9.53907C20.3643 11.8447 19.9541 13.5322 19.5117 14.6572C19.0225 15.8936 18.5156 16.4326 18.5156 16.4326L18.2344 16.7402V16.7432C17.8242 17.1445 16.8926 17.8535 15.3164 17.9678C13.125 18.1289 11.625 16.7578 10.9014 15.9873C10.21 15.2549 10.1133 14.6953 10.1133 14.6953L9.375 14.8389C9.375 14.8389 9.54785 15.6445 10.3564 16.5029C10.6787 16.8457 11.1738 17.3174 11.8154 17.7422C11.7686 17.7451 11.7188 17.7393 11.6689 17.7481C11.376 17.7979 11.0859 17.9326 10.8838 18.1816C9.82031 18.1201 9.07324 17.8125 8.59863 17.5049C8.08887 17.1709 7.89551 16.8838 7.88965 16.875C7.38867 16.0606 7.09277 14.918 6.97266 14.3789C7.1748 14.2764 7.42676 14.0918 7.6875 13.7725L7.10449 13.2979C6.89941 13.5469 6.72949 13.6611 6.62109 13.7168C6.61523 13.7197 6.62109 13.7168 6.61523 13.7197L6.42773 13.7783C6.42773 13.7783 6.35449 13.8106 6.13184 13.7637C5.90918 13.7168 5.56934 13.5762 5.15918 13.1367C4.76367 12.7148 4.52344 12.0176 4.5293 11.3877C4.53516 10.7549 4.76367 10.2451 5.19141 10.0283L5.20312 10.0195C5.70996 9.73829 6.04688 9.7002 6.27539 9.74707C6.50391 9.79395 6.66211 9.92579 6.79687 10.1162C7.06934 10.5 7.14844 11.0772 7.14844 11.0772L7.20117 11.543L8.72168 11.0186L8.68359 10.7168C8.68359 10.7168 8.61328 10.1982 8.39062 9.5625C8.25293 9.17871 8.31445 8.68067 8.46094 8.16504C8.60449 7.64942 8.81836 7.13965 8.90625 6.67383C9 6.18165 8.87988 5.83008 8.74512 5.58985C9.01465 5.04493 10.4502 2.45801 13.8867 2.26172ZM10.6055 2.55762C9.33691 3.36621 8.57812 4.41211 8.21191 5.01563L8.10937 5.02735C7.41504 5.0918 6.81445 5.20313 6.36328 5.29981C6.88477 4.18946 8.36719 3.65625 8.36719 3.65625L8.43457 3.63282L8.4873 3.58887C8.4873 3.58887 9.22559 2.9795 10.6055 2.55762ZM12.3398 5.49024C11.5547 5.53125 11.0186 5.9209 10.7314 6.35743C10.3447 6.94043 10.3242 7.57325 10.3242 7.57325L11.0713 7.61426C11.0713 7.61426 11.1035 7.15137 11.3555 6.77051C11.6074 6.38965 11.9941 6.0586 13.0342 6.30176L13.207 5.57227C12.8906 5.49903 12.6006 5.47559 12.3398 5.49024ZM7.98633 5.80664C8.13867 5.97657 8.25879 6.06446 8.1709 6.53321C8.10938 6.86133 7.89551 7.38868 7.73437 7.96582C7.57617 8.54004 7.46191 9.1875 7.68164 9.81153C7.82227 10.21 7.83398 10.3594 7.86328 10.5234L7.73437 10.5674C7.6875 10.3096 7.69629 10.084 7.41211 9.68262C7.19824 9.38379 6.87305 9.10254 6.42187 9.01172C6.08789 8.94434 5.70703 8.98829 5.2793 9.15528C4.9834 7.77246 5.17383 7.0254 5.40234 6.63868C5.52539 6.42481 5.66602 6.30762 5.76855 6.24317C5.87109 6.17871 5.91211 6.16993 5.91211 6.16993H5.91797C5.91797 6.16993 6.94336 5.92969 7.98633 5.80664ZM13.9863 7.52051L13.2949 7.81055C13.2949 7.81055 13.8047 9.01758 14.1416 9.61231C14.1182 9.62696 14.1152 9.63575 14.0361 9.65332C13.7842 9.70899 13.3037 9.68262 12.7588 9.44532L12.457 10.1338C13.125 10.4238 13.7314 10.4883 14.1943 10.3857C14.4258 10.3359 14.6367 10.251 14.7891 10.0576C14.9443 9.86426 14.959 9.53614 14.8271 9.31934C14.5928 8.92969 13.9863 7.52051 13.9863 7.52051ZM16.8896 7.96875L16.1396 7.97754C16.1396 7.97754 16.1602 9.76172 17.5898 11.0566H17.5869C18.1875 11.6016 18.4395 11.9561 18.4805 12.082C18.501 12.1465 18.4951 12.1406 18.4834 12.1641C18.4746 12.1875 18.4307 12.2461 18.3428 12.3281C18.2314 12.4277 17.792 12.6475 17.3174 12.791C16.8428 12.9346 16.3096 13.0283 15.9727 13.0195C15.8467 13.0137 15.8291 12.9902 15.8086 12.9697C15.7852 12.9463 15.7617 12.8965 15.75 12.8174C15.7266 12.6621 15.7705 12.4629 15.7705 12.4629L15.041 12.2783C15.041 12.2783 14.9561 12.5801 15.0088 12.9287C15.0352 13.1045 15.0996 13.3066 15.2578 13.4795C15.4189 13.6523 15.6738 13.7607 15.9521 13.7695C16.4326 13.7813 17.0039 13.6699 17.5342 13.5088C18.0645 13.3477 18.5332 13.166 18.8438 12.8848C18.9668 12.7734 19.0898 12.6475 19.1689 12.4688C19.248 12.29 19.2598 12.0586 19.1953 11.8506C19.0605 11.4404 18.7207 11.0742 18.0908 10.5C16.9131 9.4336 16.8896 7.96875 16.8896 7.96875ZM5.76562 10.4356C5.52539 10.4502 5.27344 10.5586 5.04492 10.7461L5.4668 11.2529C5.36426 11.5606 5.26172 12.0117 5.34668 12.4775L6.08496 12.3428C6.04395 12.1201 6.10547 11.8184 6.17285 11.5664C6.2666 11.7568 6.33984 11.9443 6.33984 11.9443L7.06348 11.7539C7.06348 11.7539 6.95508 11.2969 6.66211 10.9102C6.5127 10.7168 6.30469 10.5176 6 10.4531C5.92383 10.4356 5.84473 10.4297 5.76562 10.4356ZM18.9639 13.3242C18.3926 13.9717 17.3467 14.0596 17.3467 14.0596L17.3906 14.8096C17.3906 14.8096 18.6973 14.7656 19.5264 13.8164L18.9639 13.3242ZM13.9307 13.5908L13.4561 14.1709C15.0469 15.4629 16.9688 14.9092 16.9688 14.9092L16.7607 14.1914C16.7607 14.1914 15.2109 14.6279 13.9307 13.5908ZM13.7227 14.792L12.999 14.9971C13.1455 15.5186 13.5088 15.8906 13.9219 16.1221C14.332 16.3535 14.7979 16.4619 15.2373 16.5205C16.1162 16.6348 16.9131 16.5264 16.9131 16.5264L16.8164 15.7822C16.8164 15.7822 16.0928 15.876 15.3369 15.7764C14.9561 15.7295 14.5752 15.6299 14.2852 15.4688C13.998 15.3047 13.8076 15.1055 13.7227 14.792ZM18.835 17.1914C19.0225 17.335 19.3418 17.5693 19.8486 17.9736C20.168 18.2285 20.4873 18.4922 20.7188 18.7031C20.8359 18.8115 20.9326 18.9053 20.9883 18.9697C20.9971 18.9785 20.9971 18.9785 21.0029 18.9844C21 19.0811 20.9795 19.3066 20.918 19.5996C20.8506 19.9219 20.7539 20.2998 20.6602 20.6572C20.502 21.2344 20.3994 21.5684 20.3438 21.75H19.4619L19.4355 21.5361C19.4033 21.249 19.248 21.0732 19.0898 20.9531C19.1191 20.8975 19.1572 20.8447 19.1748 20.7891C19.2539 20.5576 19.2773 20.3145 19.2773 20.0772C19.2832 19.5996 19.1982 19.1191 19.166 18.8555C19.1162 18.4248 18.9521 18.0557 18.6768 17.8037C18.5801 17.7188 18.4717 17.6543 18.3545 17.6016C18.5537 17.4522 18.7178 17.3086 18.835 17.1914ZM7.41211 17.6045C7.52637 17.8682 7.72559 18.2695 8.23828 18.9346C8.95898 19.8721 10.1484 20.2002 10.708 20.3057C10.7402 20.6543 10.7812 20.9883 10.8721 21.29C10.9189 21.4512 10.9863 21.6065 11.0771 21.75H3.62695L3.00586 20.2031C3.02637 20.1885 3.03223 20.1826 3.05566 20.168C3.17285 20.0859 3.35449 19.9688 3.57422 19.8369C4.00781 19.5674 4.59375 19.2188 5.19141 18.8731C6.22266 18.2754 7.04004 17.8154 7.41211 17.6045ZM17.7715 18.2607C17.9502 18.2256 18.0645 18.2637 18.1729 18.3633C18.2812 18.46 18.3867 18.6475 18.4219 18.9434C18.457 19.2481 18.5303 19.6904 18.5273 20.0742C18.5273 20.2647 18.5039 20.4375 18.4688 20.5459C18.4307 20.6572 18.3926 20.6924 18.3516 20.7129C18.0527 20.8652 17.5049 20.833 17.0391 20.7188C16.8252 20.666 16.6406 20.6016 16.4941 20.5488C16.5381 20.4316 16.5674 20.3057 16.5674 20.1738C16.5674 19.8398 16.4121 19.544 16.1748 19.3389C16.4268 19.1397 16.7021 18.9199 16.9893 18.7178C17.1709 18.5918 17.3438 18.4746 17.4873 18.3926C17.6338 18.3106 17.7598 18.2637 17.7715 18.2607ZM8.79199 18.4102C9.28125 18.6416 9.86719 18.8408 10.6143 18.917C10.6055 19.04 10.6055 19.169 10.6201 19.3066C10.6289 19.3711 10.6318 19.4326 10.6377 19.5C10.1191 19.3623 9.29004 19.0752 8.83008 18.4775C8.79785 18.4365 8.82129 18.4512 8.79199 18.4102ZM12.0938 18.4805C12.4277 18.5039 12.8467 18.6211 13.1836 18.7881L14.5752 19.5147C14.4346 19.6992 14.3467 19.9277 14.3467 20.1738C14.3467 20.3731 14.4053 20.5576 14.499 20.7217C14.0068 21.0029 13.0547 21.4922 12.2695 21.5508C12.0117 21.5684 11.8887 21.5215 11.8037 21.457C11.7217 21.3926 11.6484 21.2783 11.5898 21.0762C11.4697 20.6719 11.4551 19.9834 11.3672 19.2188C11.3291 18.9141 11.3848 18.7559 11.4492 18.665C11.5166 18.5742 11.6162 18.5156 11.7891 18.4893C11.877 18.4746 11.9795 18.4717 12.0938 18.4805ZM15.8525 18.6445C15.7354 18.7354 15.5889 18.8408 15.4951 18.9141C15.5303 18.8877 15.3984 18.9434 15.2666 18.9404C15.1582 18.9404 15.0996 18.9316 15.0703 18.9258L14.6719 18.7178C14.8975 18.7324 15.1289 18.7324 15.3691 18.7148C15.542 18.7031 15.6914 18.6709 15.8525 18.6445ZM15.457 19.8164C15.6592 19.8164 15.8174 19.9717 15.8174 20.1738C15.8174 20.376 15.6592 20.5313 15.457 20.5313C15.2549 20.5313 15.0967 20.376 15.0967 20.1738C15.0967 19.9717 15.2549 19.8164 15.457 19.8164ZM16.0811 21.1787C16.1982 21.2315 16.415 21.3311 16.8223 21.4336V21.75H15.5273L15.2812 21.2637C15.3398 21.2725 15.3984 21.2813 15.457 21.2813C15.4805 21.2813 15.501 21.2754 15.5244 21.2754C15.6445 21.3135 15.7588 21.3398 15.8496 21.3135C15.9902 21.2695 15.999 21.2373 16.0811 21.1787ZM18.5039 21.457V21.4688C18.5039 21.4688 18.6826 21.5449 18.6914 21.6211L18.7061 21.75H17.5723V21.5625C17.8799 21.5859 18.1992 21.5654 18.5039 21.457ZM14.5811 21.5449L14.6865 21.75H14.1826C14.3262 21.6797 14.4639 21.6094 14.5811 21.5449Z" fill="black"/>
</svg>
