<svg width="24" height="24" viewBox="0 0 24 24" fill="none" xmlns="http://www.w3.org/2000/svg">
<path d="M12.0161 1.64941L2.68506 10.9512C2.10831 11.5264 2.10681 12.4675 2.68506 13.0532L12.0161 22.3506L12.5464 21.8232C15.2756 19.1045 16.9456 17.4394 17.9326 16.4531L18.9492 15.4351C19.007 15.3781 19.0715 15.3122 19.1353 15.2402C19.1623 15.214 19.1834 15.1951 19.1939 15.1846L19.1895 15.1787C19.2052 15.1592 19.2206 15.1404 19.2363 15.1201C19.9346 14.4226 20.8876 13.4718 21.3091 13.0518C21.5933 12.7713 21.75 12.3982 21.75 12C21.75 11.6025 21.5941 11.2302 21.3106 10.9497C20.0633 9.70471 18.6257 8.26274 17.1797 6.81299C15.5597 5.18849 13.9294 3.55376 12.5464 2.17676L12.0161 1.64941ZM12.0161 3.76758C13.2761 5.02458 14.7009 6.45232 16.1177 7.87207C17.5599 9.31807 18.994 10.7558 20.2397 11.9985C19.2243 13.011 18.5088 13.7252 18.019 14.2412C17.926 14.326 17.8309 14.4191 17.7334 14.5151C17.5654 14.6801 17.401 14.8395 17.3643 14.874L17.3774 14.8887C16.4482 15.8172 14.6726 17.5872 12.0176 20.2324L3.74415 12.0117L12.0161 3.76758ZM12.0161 8.19434L8.19581 12L12.0161 15.8057L15.8379 12L12.0161 8.19434ZM12.0161 10.311L13.7124 12L12.0161 13.689L10.3213 12L12.0161 10.311Z" fill="black"/>
</svg>
