<svg width="24" height="24" viewBox="0 0 24 24" fill="none" xmlns="http://www.w3.org/2000/svg">
<path d="M11.1797 2.99414C10.9087 3.26509 10.7118 3.59405 10.478 4.10596C10.2443 4.61787 10.0333 5.26314 10.0312 5.97949C10.0292 6.69585 10.2767 7.50527 10.9219 8.12256C11.5671 8.73984 12.5398 9.14727 13.9116 9.32227C15.0553 9.46813 15.8034 9.67041 16.2217 9.92139C16.64 10.1724 16.8145 10.4234 16.9497 11.0376L18.4146 10.7139C18.2197 9.82884 17.7394 9.08272 16.9937 8.63525C16.2479 8.18779 15.3224 7.98962 14.1021 7.83398C12.934 7.68498 12.2926 7.35773 11.959 7.03857C11.6254 6.71942 11.5301 6.39244 11.5312 5.98389C11.5324 5.57533 11.6709 5.10599 11.8433 4.72852C12.0156 4.35104 12.2813 4.01361 12.2402 4.05469L11.1797 2.99414ZM15.3223 3.23438V4.73438C15.7879 4.73438 16.4046 4.79175 16.8618 5.05078C17.319 5.30982 17.6981 5.70636 17.7905 6.80273L17.8477 7.48975H18.5376C18.9248 7.48975 19.7358 7.61502 20.1357 7.96436C20.3357 8.13902 20.4712 8.34057 20.5181 8.7334C20.565 9.12622 20.4946 9.73006 20.1416 10.5894L21.5288 11.1606C21.9472 10.1419 22.0955 9.29072 22.0078 8.55615C21.9201 7.82159 21.5675 7.22448 21.1216 6.83496C20.439 6.23881 19.6936 6.10199 19.0898 6.05127C18.8304 4.96728 18.2996 4.14113 17.6016 3.74561C16.7605 3.26908 15.8789 3.23438 15.3223 3.23438ZM22.5 12L1.5 12.75V17.25L22.5 18V12ZM21 13.5542V16.4458L19.5 16.3916V13.6084L21 13.5542ZM18 13.6611V16.3389L16.5 16.2847V13.7153L18 13.6611ZM15 13.7681V16.2319L3 15.8027V14.1973L15 13.7681Z" fill="black"/>
</svg>
