<svg width="24" height="24" viewBox="0 0 24 24" fill="none" xmlns="http://www.w3.org/2000/svg">
<path d="M6.75 3C5.51625 3 4.5 4.01625 4.5 5.25V18.75C4.5 19.9837 5.51625 21 6.75 21H19.5V3H6.75ZM6.75 4.5H18V16.5H6.75C6.486 16.5 6.237 16.5551 6 16.6406V5.25C6 4.8255 6.3255 4.5 6.75 4.5ZM12 6.16113C11.9145 6.16113 11.8426 6.22869 11.8389 6.31494L11.6528 10.7681L11.1709 10.4399C11.1079 10.3987 11.025 10.4036 10.9702 10.4561C10.9155 10.5071 10.9041 10.5908 10.9424 10.6553L11.2866 11.231L10.5659 11.3804C10.4909 11.3961 10.4385 11.4614 10.4385 11.5371C10.4385 11.6129 10.4909 11.6796 10.5659 11.6953L11.2866 11.8447L10.9424 12.4189C10.9041 12.4834 10.9155 12.5664 10.9702 12.6182C11.001 12.6467 11.0396 12.6621 11.0801 12.6621C11.1116 12.6621 11.1431 12.6523 11.1709 12.6343L11.5884 12.3516L11.5342 13.6655C10.5157 13.4503 9.75 12.5461 9.75 11.4639C9.75 10.8594 9.99213 10.3139 10.3799 9.90967C9.80388 9.43792 9.42773 8.72948 9.42773 7.92773C9.42773 7.43498 9.5737 6.98037 9.81445 6.58887C9.00595 7.04262 8.35317 7.72787 7.95117 8.56787L9.01318 9.62988C9.13843 9.75513 9.13843 9.95873 9.01318 10.084C8.95018 10.1462 8.86863 10.1777 8.78613 10.1777C8.70363 10.1777 8.62062 10.147 8.55762 10.084L7.70361 9.22998C7.58361 9.63573 7.49925 10.056 7.5 10.5C7.5 10.521 7.50657 10.5391 7.50732 10.5601L8.99707 11.8652C9.13057 11.9815 9.14483 12.1858 9.02783 12.3193C8.96408 12.3921 8.87538 12.4277 8.78613 12.4277C8.70813 12.4277 8.63223 12.4004 8.57373 12.3486L7.62598 11.5195C8.08948 13.5123 9.867 15 12 15C14.133 15 15.9105 13.5115 16.374 11.5195L15.4263 12.3501C15.3655 12.4033 15.2896 12.4292 15.2139 12.4292C15.1209 12.4292 15.0329 12.3891 14.9722 12.3193V12.3179C14.8559 12.1844 14.8694 11.9815 15.0029 11.8652L16.4941 10.5601C16.4941 10.5391 16.5 10.521 16.5 10.5C16.5 10.056 16.4149 9.63573 16.2964 9.22998L15.4424 10.084C15.3794 10.1462 15.2978 10.1777 15.2153 10.1777C15.1328 10.1777 15.0513 10.147 14.9883 10.084C14.863 9.95873 14.863 9.75513 14.9883 9.62988L16.0488 8.56787C15.6468 7.72787 14.994 7.04187 14.1855 6.58887C14.4255 6.98037 14.5723 7.43498 14.5723 7.92773C14.5723 8.73023 14.1961 9.43792 13.6201 9.90967C14.0079 10.3139 14.25 10.8594 14.25 11.4639C14.25 12.5461 13.4843 13.4488 12.4673 13.6641L12.4102 12.2871L12.9199 12.6328C12.9477 12.6516 12.9792 12.6606 13.0107 12.6606C13.0497 12.6606 13.0899 12.6459 13.1206 12.6167C13.1754 12.5657 13.1867 12.4834 13.1484 12.4189L12.8042 11.8433L13.5249 11.6938C13.5999 11.6781 13.6523 11.6129 13.6523 11.5371C13.6523 11.4614 13.5999 11.3947 13.5249 11.3789L12.8042 11.2295L13.1484 10.6538C13.1867 10.5893 13.1754 10.5078 13.1206 10.4561C13.0651 10.4051 12.9829 10.3987 12.9199 10.4399L12.3486 10.8267L12.1611 6.31494C12.1574 6.22944 12.0862 6.16113 12 6.16113ZM6.75 18H18V19.5H6.75C6.3255 19.5 6 19.1745 6 18.75C6 18.3255 6.3255 18 6.75 18Z" fill="black"/>
</svg>
