<svg width="24" height="24" viewBox="0 0 24 24" fill="none" xmlns="http://www.w3.org/2000/svg">
<path d="M3.75 3.75V20.25H20.25V3.75H3.75ZM5.25 5.25H18.75V18.75H5.25V5.25ZM15.1831 11.25C14.1144 11.25 13.4238 11.9341 13.4238 12.8394C13.4238 13.8226 14.0004 14.2926 14.8696 14.6631L15.1699 14.792C15.7189 15.0342 16.0459 15.1756 16.0459 15.5889C16.0459 15.9376 15.7258 16.188 15.2271 16.188C14.6361 16.188 14.3 15.8749 14.0435 15.4541L13.0605 16.0166C13.4093 16.7149 14.1359 17.25 15.2549 17.25C16.3949 17.25 17.25 16.6587 17.25 15.5757C17.25 14.5639 16.6727 14.1144 15.646 13.6802L15.3472 13.5513C14.8274 13.3233 14.606 13.1736 14.606 12.8174C14.606 12.5249 14.8269 12.2974 15.1831 12.2974C15.5326 12.2974 15.7525 12.4469 15.9595 12.8174L16.9014 12.2124C16.5024 11.5142 15.9526 11.25 15.1831 11.25ZM10.7959 11.3218V15.4189C10.7959 16.0174 10.5392 16.1733 10.147 16.1733C9.73372 16.1733 9.55586 15.889 9.37061 15.5537L8.3877 16.1455C8.6727 16.7515 9.23453 17.25 10.1968 17.25C11.2655 17.25 12 16.6794 12 15.4321V11.3218H10.7959Z" fill="black"/>
</svg>
