<svg width="24" height="24" viewBox="0 0 24 24" fill="none" xmlns="http://www.w3.org/2000/svg">
<path d="M19.4941 10.7607C19.4326 7.29199 16.6055 4.5 13.125 4.5C10.5205 4.5 8.28223 6.06445 7.29492 8.30566C7.11621 8.27344 6.93457 8.25 6.75 8.25C5.14453 8.25 3.84668 9.5127 3.76465 11.0977C2.41406 11.874 1.5 13.3301 1.5 15C1.5 17.4844 3.51562 19.5 6 19.5H18C20.4844 19.5 22.5 17.4844 22.5 15C22.5 13.04 21.2432 11.376 19.4941 10.7607ZM15.668 17.25C14.2324 17.25 12.8584 16.0166 11.5312 14.8242C10.3975 13.8047 9.22559 12.75 8.33203 12.75C7.44434 12.75 6.75 13.4092 6.75 14.25C6.75 15.0645 7.47656 15.75 8.33203 15.75C9.07324 15.75 9.74121 15.4424 10.3799 14.8066L11.4375 15.8672C10.5176 16.7871 9.47461 17.25 8.33203 17.25C6.63281 17.25 5.25 15.9053 5.25 14.25C5.25 12.5947 6.63281 11.25 8.33203 11.25C9.7998 11.25 11.1914 12.498 12.5332 13.708C13.6494 14.71 14.8066 15.75 15.665 15.75C16.541 15.75 17.25 15.0762 17.25 14.25C17.25 13.4092 16.5557 12.75 15.668 12.75C14.6514 12.75 13.7461 13.4268 13.5088 13.6641L12.4482 12.6064C12.501 12.5508 13.8193 11.25 15.668 11.25C17.3672 11.25 18.75 12.5947 18.75 14.25C18.75 15.9053 17.3672 17.25 15.668 17.25Z" fill="black"/>
</svg>
