<svg width="24" height="24" viewBox="0 0 24 24" fill="none" xmlns="http://www.w3.org/2000/svg">
<path d="M12 3.75C11.8395 3.75 11.6791 3.77589 11.5254 3.82764L3.76904 6.41309C3.30929 6.56609 3 6.99499 3 7.47949V17.168C3 17.684 3.35154 18.134 3.85254 18.2593L11.6367 20.2046C11.756 20.2346 11.8778 20.25 12 20.25C12.1222 20.25 12.244 20.2346 12.3633 20.2046L20.1475 18.2593C20.6485 18.1348 21 17.6847 21 17.168V7.47949C21 6.99499 20.6907 6.56609 20.231 6.41309L12.4746 3.82764C12.3209 3.77589 12.1605 3.75 12 3.75ZM12 5.25L19.5 7.74902V9.65771L12.6006 7.58936C12.2068 7.47086 11.7932 7.47086 11.3994 7.58936L4.5 9.65771V7.74902L12 5.25ZM12 8.72461C12.121 8.72461 12.2429 8.74138 12.3618 8.77588L19.5 10.9189V16.875L12 18.75L4.5 16.875V10.9189L11.644 8.77588C11.7595 8.74138 11.879 8.72461 12 8.72461ZM11.4155 9.75439C11.3848 9.74807 11.3517 9.74814 11.3188 9.75732L8.81982 10.4385C8.73207 10.464 8.66895 10.5454 8.66895 10.6392V11.0757C8.66895 11.2137 8.7999 11.3079 8.93115 11.2764L11.4316 10.5952C11.5194 10.5705 11.5811 10.4824 11.5811 10.3887V9.95801C11.5811 9.85507 11.5078 9.77338 11.4155 9.75439ZM12.5859 9.75439C12.4937 9.77327 12.4189 9.85507 12.4189 9.95801V10.3901C12.4189 10.4899 12.4821 10.5719 12.5698 10.5967L15.0688 11.2764C15.2001 11.3139 15.3311 11.2144 15.3311 11.0771V10.6392C15.3311 10.5454 15.2686 10.4647 15.1816 10.4399L12.6812 9.75879C12.6483 9.74941 12.6167 9.7481 12.5859 9.75439ZM7.66553 10.7783C7.63477 10.772 7.60166 10.7733 7.56885 10.7827L5.4873 11.3511C5.39355 11.3766 5.33203 11.458 5.33203 11.5518V11.9824C5.33203 12.1204 5.46299 12.2206 5.59424 12.1831L7.68164 11.6147C7.76939 11.5892 7.83105 11.5078 7.83105 11.4141V10.9834C7.83105 10.8805 7.75781 10.7972 7.66553 10.7783ZM16.3359 10.7783C16.2437 10.7972 16.1689 10.8805 16.1689 10.9834V11.4141C16.1689 11.5078 16.2321 11.59 16.3198 11.6147L18.4072 12.1831C18.5385 12.2206 18.6694 12.1197 18.6694 11.9824V11.5518C18.6694 11.458 18.6057 11.3766 18.5127 11.3511L16.4312 10.7827C16.3983 10.7733 16.3667 10.772 16.3359 10.7783Z" fill="black"/>
</svg>
