<svg width="24" height="24" viewBox="0 0 24 24" fill="none" xmlns="http://www.w3.org/2000/svg">
<path d="M7.76367 3C7.58817 3 7.5 3.08742 7.5 3.26367V20.7334C7.5 20.9089 7.58742 20.9971 7.76367 20.9971H9.48633C9.66183 20.9971 9.75146 20.9096 9.75146 20.7334V17.1064L11.1079 15.8145L15.0366 20.8125C15.1431 20.9363 15.2662 21 15.4087 21H17.7876C17.9121 21 17.9827 20.9643 18 20.8931L17.9502 20.6235L12.7676 14.1826L17.7378 9.37354C17.83 9.27753 17.7978 9 17.5488 9H15.0879C14.9634 9 14.8389 9.06447 14.7144 9.18896L9.75 14.231V3.26367C9.75 3.08742 9.66258 3 9.48633 3H7.76367Z" fill="black"/>
</svg>
