<svg width="24" height="24" viewBox="0 0 24 24" fill="none" xmlns="http://www.w3.org/2000/svg">
<path d="M2.25 5.25C1.42969 5.25 0.75 5.92969 0.75 6.75V17.25C0.75 18.0703 1.42969 18.75 2.25 18.75H21.75C22.5703 18.75 23.25 18.0703 23.25 17.25V6.75C23.25 5.92969 22.5703 5.25 21.75 5.25H2.25ZM2.25 6.75H21.75V17.25H2.25V6.75ZM3.75 8.25V9.75H5.25V8.25H3.75ZM6.75 8.25V9.75H8.25V8.25H6.75ZM9.75 8.25V9.75H11.25V8.25H9.75ZM12.75 8.25V9.75H14.25V8.25H12.75ZM15.75 8.25V9.75H17.25V8.25H15.75ZM18.75 8.25V9.75H20.25V8.25H18.75ZM3.75 11.25V12.75H6.75V11.25H3.75ZM8.25 11.25V12.75H9.75V11.25H8.25ZM11.25 11.25V12.75H12.75V11.25H11.25ZM14.25 11.25V12.75H15.75V11.25H14.25ZM17.25 11.25V12.75H20.25V11.25H17.25ZM3.75 14.25V15.75H6.75V14.25H3.75ZM8.25 14.25V15.75H15.75V14.25H8.25ZM17.25 14.25V15.75H20.25V14.25H17.25Z" fill="black"/>
</svg>
