<svg width="24" height="24" viewBox="0 0 24 24" fill="none" xmlns="http://www.w3.org/2000/svg">
<path d="M19.3447 3.29443C18.4297 3.29443 17.644 4.05015 17.644 4.99365C17.644 5.1669 17.6744 5.3406 17.7246 5.50635L16.2759 6.85986C15.1171 5.88036 13.6631 5.33305 12.1436 5.28955C10.7898 5.26105 9.47254 5.62171 8.34229 6.35596L9.0835 7.12646C9.991 6.57971 11.0432 6.31281 12.1157 6.34131C13.8797 6.38481 15.4273 7.16889 16.5718 8.70264L18.7822 6.60059C18.8542 6.62909 19.1212 6.67254 19.3447 6.66504C20.259 6.66504 21 5.90204 21 4.98779C21 4.08029 20.259 3.29518 19.3447 3.29443ZM5.91211 4.5498C5.64389 4.54259 5.37647 4.63745 5.16797 4.83545C4.74272 5.23895 4.72802 5.90216 5.12402 6.32666C5.36177 6.57866 5.69984 6.69332 6.03809 6.64307L6.92285 7.57178C5.9006 8.75228 5.28893 10.2647 5.25293 11.8345C5.21693 13.1305 5.55641 14.3982 6.23291 15.5142L7.01074 14.7568C6.52099 13.8711 6.28294 12.8772 6.30469 11.855C6.34069 10.5162 6.84481 9.24171 7.7373 8.24121C8.0688 7.86021 8.37136 7.62918 8.53711 7.49268L6.92432 5.80078C6.98957 5.46928 6.89546 5.12389 6.65771 4.87939C6.44884 4.66677 6.18033 4.55702 5.91211 4.5498ZM12.022 7.51172C9.73222 7.51847 7.81151 9.16536 7.52051 11.4536C7.21676 13.9166 8.96203 16.1661 11.4258 16.4766C13.8895 16.7803 16.1412 15.0359 16.4517 12.5669C16.7562 10.1106 15.0096 7.85355 12.5391 7.5498C12.3711 7.5243 12.1967 7.51172 12.022 7.51172ZM17.7173 8.52979L16.9468 9.26367C17.429 10.1427 17.7112 11.1354 17.6895 12.1509C17.646 13.7206 16.9249 15.3197 15.4204 16.522C15.4204 16.522 16.1051 17.2487 16.9834 18.1772C16.9181 18.5155 17.0108 18.8615 17.2485 19.106C17.6513 19.5237 18.3152 19.5386 18.7397 19.1426C19.1642 18.7398 19.1784 18.0759 18.7764 17.6514C18.5454 17.3994 18.2064 17.2847 17.8682 17.335C17.8539 17.3207 17.0328 16.4498 17.0186 16.4355C18.0626 15.2618 18.6889 13.7567 18.7324 12.1802C18.7609 10.8984 18.3938 9.62404 17.7173 8.52979ZM11.9985 9.75C12.9375 9.768 13.674 10.4865 13.686 11.4375C13.68 12.1088 13.3298 12.6371 12.7471 12.9521L13.1235 14.25H10.8735L11.2515 12.9521C10.6635 12.6491 10.3232 12.0968 10.3052 11.4375C10.3352 10.4693 11.0655 9.768 11.9985 9.75ZM7.36963 15.3267L5.24561 17.3994C4.16561 17.0109 3 17.7966 3 19.0063C3 19.9491 3.72792 20.7041 4.66992 20.7041C5.83692 20.7041 6.62886 19.5596 6.29736 18.5156C6.31161 18.5014 7.64338 17.1841 7.65088 17.1841C8.81713 18.1561 10.271 18.7021 11.7905 18.7456C13.1443 18.7741 14.4615 18.4082 15.5918 17.6807C15.5055 17.5944 15.0379 17.0977 14.8579 16.9102C13.9437 17.4502 12.8923 17.7171 11.8198 17.6953C9.86832 17.6451 8.49988 16.8312 7.36963 15.3267Z" fill="black"/>
</svg>
