<svg width="24" height="24" viewBox="0 0 24 24" fill="none" xmlns="http://www.w3.org/2000/svg">
<path d="M11.6192 2.25L9.45997 4.18359C9.29497 4.33809 9.2441 4.5685 9.3296 4.771L9.52003 5.19141C8.32753 5.90841 7.52052 7.20278 7.52052 8.69678C7.52052 10.226 8.36671 11.5418 9.60646 12.2476L9.31935 12.8804C9.2391 13.0701 9.27864 13.2862 9.42189 13.4399L11.0347 14.7612V15.4893L8.2295 13.5366C6.608 12.4544 5.63541 10.6445 5.62941 8.69678C5.62941 7.55828 6.06569 6.33448 6.66944 5.37598C6.81119 5.14948 6.75723 4.87078 6.57423 4.67578C6.39123 4.48078 6.07356 4.44939 5.84181 4.57764C2.96556 6.14664 1.43352 9.76884 2.73927 13.0898C2.99802 13.7483 3.39573 14.3495 3.85548 14.8872L5.82862 17.0522C6.00712 17.2607 6.30636 17.3175 6.54786 17.1885L9.52882 15.8701L10.5996 16.6157L8.56056 17.7803C8.49906 17.7668 8.4427 17.7437 8.37745 17.7437C7.8922 17.7437 7.49855 18.1366 7.49855 18.6226C7.4993 19.1063 7.89367 19.5 8.37892 19.5C8.82217 19.5 9.17292 19.1665 9.23292 18.7397L11.0347 17.7393V18.835C10.6912 19.0397 10.5 19.3991 10.5 19.8281C10.5 20.4754 10.9727 21 11.6192 21C12.2664 21 12.75 20.4754 12.75 19.8281C12.75 19.3991 12.5486 19.0404 12.2051 18.8364V17.7319L14.0171 18.7397C14.0779 19.1657 14.4279 19.5 14.8711 19.5C15.3564 19.5 15.75 19.1063 15.75 18.6211C15.75 18.1358 15.3564 17.7422 14.8711 17.7422C14.8059 17.7422 14.7495 17.7653 14.688 17.7788L12.6504 16.6143L13.7197 15.8687L16.7022 17.187C16.9444 17.316 17.2436 17.2585 17.4214 17.0508L19.2671 15.0352C19.9579 14.2289 20.5119 13.2956 20.7774 12.2666C21.5709 9.20285 20.0679 6.04699 17.3687 4.57324C17.1354 4.44499 16.8434 4.48736 16.6611 4.68311C16.4774 4.87736 16.4476 5.17145 16.5908 5.39795C17.1946 6.3557 17.6221 7.55688 17.6221 8.69238C17.6153 10.6424 16.6415 12.4528 15.0117 13.541L12.2051 15.4951V14.7598L13.8193 13.4385C13.9626 13.2847 14.0021 13.0687 13.9219 12.8789L13.6348 12.2476C14.8738 11.5426 15.7192 10.2238 15.7192 8.69531C15.7192 7.20131 14.913 5.90841 13.7197 5.19141L13.9116 4.771C13.9971 4.5685 13.944 4.33734 13.7798 4.18359L11.6192 2.25ZM13.0869 6.50391C13.7882 6.99591 14.25 7.79017 14.25 8.69092C14.25 9.63292 13.7485 10.4623 12.9917 10.9468L12.7456 10.4224C12.3639 9.38661 12.3639 8.26622 12.7456 7.23047L13.0869 6.50391ZM10.1572 6.51709L10.4956 7.23926C10.8751 8.26901 10.8751 9.38161 10.4956 10.4121L10.251 10.9336C9.49874 10.4521 9.00001 9.62767 9.00001 8.69092C9.00001 7.79542 9.45974 7.00609 10.1572 6.51709Z" fill="black"/>
</svg>
