<svg width="24" height="24" viewBox="0 0 24 24" fill="none" xmlns="http://www.w3.org/2000/svg">
<path d="M8.25 3.75001C7.00725 3.75001 6 4.75726 6 6.00001V18C6 19.2428 7.00725 20.25 8.25 20.25C9.49275 20.25 10.5 19.2428 10.5 18V14.5606L14.8066 19.4824C15.2514 19.9902 15.8752 20.25 16.5015 20.25C17.0272 20.25 17.5549 20.0669 17.9824 19.6934C18.9177 18.8751 19.0116 17.4543 18.1934 16.5191L14.1445 11.8916L17.5503 7.3506C18.2958 6.35685 18.0951 4.94522 17.1006 4.19972C16.1068 3.45422 14.6952 3.65493 13.9497 4.64943L10.5 9.2505V6.00001C10.5 4.75726 9.49275 3.75001 8.25 3.75001Z" fill="black"/>
</svg>
