<svg width="24" height="24" viewBox="0 0 24 24" fill="none" xmlns="http://www.w3.org/2000/svg">
<path d="M12 2.25C6.624 2.25 2.25 6.624 2.25 12C2.25 17.376 6.624 21.75 12 21.75C17.376 21.75 21.75 17.376 21.75 12C21.75 6.624 17.376 2.25 12 2.25ZM12 3.75C16.5487 3.75 20.25 7.45125 20.25 12C20.25 16.5487 16.5487 20.25 12 20.25C7.45125 20.25 3.75 16.5487 3.75 12C3.75 7.45125 7.45125 3.75 12 3.75ZM8.25 9C6.6795 9 5.54297 9.90527 5.54297 9.90527L6.45703 11.0947C6.45703 11.0947 7.26971 10.5 8.25146 10.5C9.23321 10.5 10.0444 11.0947 10.0444 11.0947L10.9585 9.90527C10.957 9.90527 9.8205 9 8.25 9ZM15.75 9C14.1795 9 13.043 9.90527 13.043 9.90527L13.957 11.0947C13.957 11.0947 14.7697 10.5 15.7515 10.5C16.7332 10.5 17.5444 11.0947 17.5444 11.0947L18.4585 9.90527C18.457 9.90527 17.3205 9 15.75 9ZM11.25 12.7559V13.8735C11.9265 13.8735 12.3574 14.1847 12.3574 14.3467C12.3574 14.508 11.9284 14.8159 11.2573 14.8184C11.2548 14.8184 11.2525 14.8184 11.25 14.8184V14.8198V15.936V15.9375C11.2525 15.9375 11.2548 15.9375 11.2573 15.9375C11.9291 15.94 12.3574 16.2478 12.3574 16.4092C12.3574 16.5712 11.9257 16.8823 11.25 16.8823V18C12.5017 18 13.4824 17.3009 13.4824 16.4092C13.4824 16.01 13.2787 15.6545 12.9492 15.3779C13.2787 15.1014 13.4824 14.7459 13.4824 14.3467C13.4824 13.4549 12.5017 12.7559 11.25 12.7559Z" fill="black"/>
</svg>
