<svg width="24" height="24" viewBox="0 0 24 24" fill="none" xmlns="http://www.w3.org/2000/svg">
<path d="M8.61036 3C4.81055 3.08496 1.58496 6.31055 1.5 10.1104C1.4502 12.5684 2.64551 14.6953 4.5 15.9727V20.6514L7.08399 22.374L7.91602 21.126L6 19.8486V16.7607C6.47754 16.9453 6.97852 17.0771 7.5 17.1562V19.2891L10.2627 20.2119L10.7373 18.7881L9 18.2109V17.2354C12.2871 17.1592 12.8818 16.1748 13.8545 15.7705C15.7412 15.0088 16.4326 14.0156 16.7754 13.3418C16.9453 13.0049 17.042 12.8086 17.1709 12.6768C17.2998 12.5449 17.499 12.4072 18.0234 12.2812L18.0264 12.2783C18.5068 12.1641 18.9199 12.0234 19.2861 11.8652C19.3594 12.085 19.4414 12.3428 19.5234 12.6621C19.8809 13.9951 20.25 16.1807 20.25 19.5H21.75C21.75 16.0693 21.3691 13.7549 20.9766 12.2754C20.8389 11.7598 20.7012 11.373 20.5693 11.0391C20.7246 10.8896 20.8594 10.7314 20.9678 10.5703C21.4541 9.83789 21.4482 9.07324 21.4482 8.69824C21.4482 7.8252 21.2344 6.92578 20.6338 6.22266C20.0303 5.52246 19.0606 5.10059 17.8506 5.10059C16.5059 5.10059 15.2988 5.83301 14.6602 6.95508C13.6406 4.54102 11.5313 3 8.625 3H8.61036ZM8.63672 4.5C11.3643 4.50586 12.9229 5.78027 13.6025 8.22656L13.7549 8.77441H15.5947L15.7295 8.19727C15.9463 7.28027 16.834 6.60059 17.8506 6.60059C18.7412 6.60059 19.1953 6.85254 19.4912 7.20117C19.79 7.5498 19.9482 8.07422 19.9482 8.69824C19.9482 9.07324 19.9453 9.39844 19.7197 9.73828C19.4941 10.0752 18.9873 10.5117 17.6777 10.8193H17.6719C16.9658 10.9922 16.4502 11.2676 16.0986 11.6279C15.7441 11.9912 15.5859 12.3721 15.4365 12.665C15.1406 13.248 14.9326 13.7168 13.292 14.3789L13.2891 14.3818C11.7539 15.0146 12.0234 15.75 8.625 15.75C5.41114 15.75 2.93262 13.3389 3 10.1396C3.06446 7.19238 5.68653 4.57031 8.63672 4.5Z" fill="black"/>
</svg>
