<svg width="24" height="24" viewBox="0 0 24 24" fill="none" xmlns="http://www.w3.org/2000/svg">
<path d="M3.75 4.5V14.6719L2.03906 16.4062C1.69922 16.7461 1.5 17.2148 1.5 17.6953C1.5 18.6855 2.31445 19.5 3.30469 19.5H20.6953C21.6855 19.5 22.5 18.6855 22.5 17.6953C22.5 17.2148 22.3008 16.7461 21.9609 16.4062L20.25 14.6719V4.5H3.75ZM5.25 6H18.75V14.25H5.25V6ZM4.82812 15.75H19.1719L20.9062 17.4609C20.9648 17.5195 21 17.6133 21 17.6953C21 17.877 20.877 18 20.6953 18H3.30469C3.12305 18 3 17.877 3 17.6953C3 17.6133 3.03516 17.5195 3.09375 17.4609L4.82812 15.75Z" fill="black"/>
</svg>
