<svg width="24" height="24" viewBox="0 0 24 24" fill="none" xmlns="http://www.w3.org/2000/svg">
<path d="M3.75 4.5V14.6719L2.03906 16.4077C1.69931 16.7467 1.5 17.2146 1.5 17.6953C1.5 18.6853 2.31469 19.5 3.30469 19.5H20.6953C21.6853 19.5 22.5 18.6853 22.5 17.6953C22.5 17.2146 22.3007 16.746 21.9609 16.4062L20.25 14.6719V4.5H3.75ZM5.25 6H18.75V14.25H5.25V6ZM12 6.75L10.875 13.5H12L13.125 6.75H12ZM9.06445 8.25L7.77539 9.80127L7.5 10.125L7.77539 10.4487L9.06445 12L9.87891 11.3525L8.85791 10.125L9.87891 8.89746L9.06445 8.25ZM14.9355 8.25L14.1211 8.89746L15.1421 10.125L14.1211 11.3525L14.9355 12L16.2246 10.4487L16.5 10.125L16.2246 9.80127L14.9355 8.25ZM4.82812 15.75H19.1719L20.9062 17.4609C20.9648 17.5194 21 17.6128 21 17.6953C21 17.8768 20.8768 18 20.6953 18H3.30469C3.12319 18 3 17.8768 3 17.6953C3 17.6136 3.03525 17.5202 3.09375 17.4609L4.82812 15.75Z" fill="black"/>
</svg>
