<svg width="24" height="24" viewBox="0 0 24 24" fill="none" xmlns="http://www.w3.org/2000/svg">
<path d="M5.66748 3.75438C5.17473 3.77538 1.4169 4.09437 1.1499 4.11912C0.882899 4.14087 0.588466 4.26435 0.855466 4.9116C1.12247 5.55885 5.38927 14.9635 5.50927 15.2373C5.62852 15.5103 5.93836 15.9563 6.66211 15.7763C7.40386 15.5933 9.97705 14.9056 11.3833 14.5283C12.125 15.9053 13.6406 18.6967 13.9219 19.0957C14.2946 19.6312 14.5544 19.5401 15.1274 19.3608C15.5774 19.2206 22.1444 16.8053 22.4399 16.6831C22.7354 16.5571 22.917 16.4712 22.7168 16.166C22.569 15.9432 20.8359 13.5694 19.9292 12.3252C20.5517 12.1564 22.7625 11.5555 22.998 11.4873C23.2748 11.4145 23.3136 11.2789 23.1621 11.1064C23.0144 10.9339 20.955 8.29851 20.5928 7.85301C20.2305 7.40751 20.0508 7.48531 19.8296 7.51756C19.6046 7.54981 17 7.99905 16.6978 8.0493C16.3955 8.1033 16.2056 8.22543 16.3916 8.49168C16.5566 8.72868 18.2694 11.2145 18.6489 11.7612L11.8389 13.4282L6.42041 4.17039C6.20591 3.84339 6.15948 3.72888 5.66748 3.75438ZM5.58252 4.39744C5.70927 4.38994 5.69497 4.4183 5.74072 4.49705C5.74072 4.49705 10.7397 13.3206 10.8237 13.4751C10.9152 13.6296 10.8637 13.6768 10.7827 13.6948C10.7017 13.7128 6.88661 14.6466 6.68261 14.6938C6.47861 14.7403 6.47885 14.719 6.4541 14.647C6.42935 14.575 1.92042 5.05868 1.85742 4.93943C1.79442 4.82093 1.79742 4.72703 1.85742 4.72703C1.91742 4.72703 5.45952 4.40419 5.58252 4.39744ZM20.0786 8.13426C20.1291 8.14598 20.1822 8.18383 20.2456 8.27195C20.3724 8.4482 22.0949 10.6803 22.1616 10.7666C22.2246 10.8498 22.1116 10.9005 21.9639 10.9365C21.8161 10.9688 19.377 11.5869 19.377 11.5869L17.3833 8.79051C17.327 8.70801 17.2818 8.62833 17.4228 8.61033C17.5631 8.59233 19.8272 8.17066 19.9292 8.14891C19.9802 8.13616 20.0281 8.12254 20.0786 8.13426ZM19.1455 12.4629C19.1926 12.4682 19.2322 12.5015 19.2847 12.5859C19.3874 12.7592 21.4791 15.6613 21.5391 15.7588C21.5991 15.8555 21.6608 15.9205 21.4673 15.9888C21.2775 16.0608 15.0108 18.2214 14.8916 18.2754C14.7686 18.3294 14.6726 18.3468 14.5181 18.1128C14.3636 17.8788 12.3252 14.2734 12.3252 14.2734L18.9609 12.5083C19.0434 12.4813 19.0984 12.4575 19.1455 12.4629Z" fill="black"/>
</svg>
