<svg width="24" height="24" viewBox="0 0 24 24" fill="none" xmlns="http://www.w3.org/2000/svg">
<path d="M3.75 3.75V20.25H20.25V3.75H3.75ZM5.25 5.25H18.75V18.75H5.25V5.25ZM9.4585 9.08057C7.6885 9.08057 6.75 10.2013 6.75 12.1025C6.75 13.931 7.68829 14.9194 9.37354 14.9194C10.7325 14.9194 11.3833 14.2822 11.3833 14.2822L10.9995 13.2349C10.9995 13.2349 10.3755 13.9336 9.43652 13.9336C8.60552 13.9336 8.01416 13.2114 8.01416 12.0557C8.01416 10.5752 8.75937 10.0474 9.49512 10.0474C10.8579 10.0474 11.028 11.1397 11.5635 12.8145C11.9475 13.98 12.6712 14.9194 14.7524 14.9194C16.2427 14.9194 17.253 14.4628 17.25 13.2583C17.25 11.7643 15.9663 11.6026 14.8931 11.3701C14.3643 11.2486 14.2061 11.0329 14.2061 10.6714C14.2061 10.2611 14.5313 10.021 15.0601 10.021C15.6376 10.021 15.9495 10.2373 15.999 10.7563L17.2046 10.6113C17.1093 9.52758 16.364 9.08203 15.1362 9.08203C14.0562 9.08203 12.9946 9.48851 12.9946 10.8018C12.9946 11.6193 13.3924 12.1379 14.3906 12.3779C15.3131 12.5947 16.0283 12.6636 16.0283 13.3169C16.0283 13.7631 15.5948 13.9438 14.7773 13.9438C13.5623 13.9438 13.0578 13.306 12.769 12.4263C12.112 10.4395 11.872 9.08057 9.4585 9.08057Z" fill="black"/>
</svg>
