<svg width="24" height="24" viewBox="0 0 24 24" fill="none" xmlns="http://www.w3.org/2000/svg">
<path d="M10.7607 16.5586L9.99024 14.4668C9.99024 14.4668 8.73926 15.8613 6.86426 15.8613C5.20605 15.8613 4.02539 14.417 4.02539 12.1084C4.02539 9.14941 5.5166 8.0918 6.98438 8.0918C9.10254 8.0918 9.77344 9.46289 10.3535 11.2178L11.1211 13.623C11.8916 15.958 13.3359 17.833 17.4961 17.833C20.4785 17.833 22.5 16.9189 22.5 14.5137C22.5 12.5654 21.3926 11.5547 19.3242 11.0742L17.7832 10.7373C16.7256 10.4971 16.4121 10.0635 16.4121 9.34277C16.4121 8.52539 17.0625 8.04199 18.1201 8.04199C19.2744 8.04199 19.9014 8.47559 19.998 9.50977L22.4033 9.22266C22.21 7.05762 20.7188 6.16699 18.2637 6.16699C16.1016 6.16699 13.9834 6.98437 13.9834 9.60645C13.9834 11.2412 14.7773 12.2754 16.7725 12.7588L18.4102 13.1426C19.6348 13.4326 20.0449 13.9365 20.0449 14.6338C20.0449 15.5244 19.1777 15.8848 17.543 15.8848C15.1143 15.8848 14.1035 14.6104 13.5264 12.8555L12.7324 10.4502C11.7217 7.32129 10.1104 6.16699 6.91113 6.16699C3.37793 6.16699 1.5 8.40234 1.5 12.2051C1.5 15.8613 3.37793 17.833 6.74414 17.833C9.46289 17.833 10.7607 16.5586 10.7607 16.5586Z" fill="black"/>
</svg>
