<svg width="24" height="24" viewBox="0 0 24 24" fill="none" xmlns="http://www.w3.org/2000/svg">
<path d="M12 4.45312L11.7188 4.54688L4.21875 7.54688L2.48438 8.25L4.21875 8.95312L7.14844 10.125L4.21875 11.2969L2.48438 12L4.21875 12.7031L7.14844 13.875L4.21875 15.0469L2.48438 15.75L4.21875 16.4531L11.7188 19.4531L12 19.5469L12.2812 19.4531L19.7812 16.4531L21.5156 15.75L19.7812 15.0469L16.8516 13.875L19.7812 12.7031L21.5156 12L19.7812 11.2969L16.8516 10.125L19.7812 8.95312L21.5156 8.25L19.7812 7.54688L12.2812 4.54688L12 4.45312ZM12 6.07031L17.4609 8.25L12 10.4297L6.53906 8.25L12 6.07031ZM9.1875 10.9453L11.7188 11.9531L12 12.0469L12.2812 11.9531L14.8125 10.9453L17.4609 12L12 14.1797L6.53906 12L9.1875 10.9453ZM9.1875 14.6953L11.7188 15.7031L12 15.7969L12.2812 15.7031L14.8125 14.6953L17.4609 15.75L12 17.9297L6.53906 15.75L9.1875 14.6953Z" fill="black"/>
</svg>
