<svg width="24" height="24" viewBox="0 0 24 24" fill="none" xmlns="http://www.w3.org/2000/svg">
<path d="M7.75781 4.5C5.21484 4.5 2.55469 5.92969 2.55469 5.92969L2.20312 6.11719L2.15625 6.51562L0.75 18.6562L0.609375 19.9453L1.80469 19.4297C1.80469 19.4297 4.89258 18.1406 7.80469 18.1406C9.53027 18.1406 11.6016 19.3828 11.6016 19.3828L12 19.6406L12.3984 19.3828C12.3984 19.3828 14.4697 18.1406 16.1953 18.1406C19.1074 18.1406 22.1953 19.4297 22.1953 19.4297L23.3906 19.9453L23.25 18.6562L21.8438 6.51562L21.7969 6.11719L21.4453 5.92969C21.4453 5.92969 18.7852 4.5 16.2422 4.5C14.083 4.5 12.5127 5.44336 12 5.76562C11.4873 5.44336 9.91699 4.5 7.75781 4.5ZM7.75781 6C9.69727 6 11.5781 7.21875 11.5781 7.21875L12 7.5L12.4219 7.21875C12.4219 7.21875 14.3027 6 16.2422 6C17.9502 6 19.8896 6.89062 20.3906 7.125L21.6094 17.6484C20.4609 17.2354 18.5684 16.6406 16.1953 16.6406C14.1533 16.6406 12.5068 17.5986 12 17.9062C11.4932 17.5986 9.84668 16.6406 7.80469 16.6406C5.43164 16.6406 3.53906 17.2354 2.39062 17.6484L3.60938 7.125C4.11035 6.89062 6.0498 6 7.75781 6ZM7.75781 7.125C6.67383 7.125 5.3291 7.59961 4.64062 7.875L3.70312 16.0781C5.17383 15.7119 6.54785 15.5156 7.80469 15.5156C9.40137 15.5156 10.9395 16.0986 12 16.6172C13.1309 16.0664 14.8359 15.4541 16.5234 15.5391L15.5859 7.19531C14.2266 7.40332 13.0459 8.14746 13.0312 8.15625L12 8.85938L10.9453 8.15625C10.9307 8.14746 9.36914 7.125 7.75781 7.125Z" fill="black"/>
</svg>
