<svg width="24" height="24" viewBox="0 0 24 24" fill="none" xmlns="http://www.w3.org/2000/svg">
<path d="M2.44189 6.86279C1.37689 6.86279 0.903809 7.27512 0.903809 8.55762C0.903809 9.40512 1.02393 9.87797 1.02393 10.6055C1.02393 11.018 0.770215 11.4527 0.00146484 11.4902V12.5142C0.770215 12.5329 1.02393 12.9688 1.02393 13.3813C1.02393 14.1088 0.903809 14.5436 0.903809 15.3911C0.903809 16.6736 1.3766 17.0859 2.42285 17.0859H3.19189V16.1777H2.95605C2.4648 16.1777 2.30713 15.9798 2.30713 15.3311C2.30713 14.6823 2.36719 14.1264 2.36719 13.3989C2.36719 12.4914 2.07117 12.1402 1.48242 12.0015V11.9414C2.07492 11.8027 2.36719 11.45 2.36719 10.5425C2.36719 9.83373 2.30713 9.2591 2.30713 8.61035C2.30713 7.9616 2.44605 7.78271 2.95605 7.78271H3.48486V13.4385C3.48486 14.6422 3.89684 15.4292 5.10059 15.4292C5.47559 15.4292 5.7716 15.3688 5.98535 15.29L5.7876 14.0083C5.67135 14.0391 5.61469 14.0391 5.55469 14.0391C5.41594 14.0391 5.23975 13.9181 5.23975 13.5469V6.86279H2.44189ZM20.8081 6.86719V7.77539H21.0454C21.5779 7.77539 21.6943 7.95199 21.6943 8.60449C21.6943 9.21574 21.6343 9.82641 21.6343 10.5352C21.6343 11.4427 21.9303 11.7953 22.519 11.9341V11.9941C21.9265 12.1329 21.6343 12.4856 21.6343 13.3931C21.6343 14.1018 21.6943 14.675 21.6943 15.3237C21.6943 15.995 21.5554 16.1719 21.0454 16.1719V16.1909H20.8081V17.1357H21.5771C22.6196 17.1357 23.0962 16.7234 23.0962 15.4409C23.0962 14.5934 22.9761 14.1581 22.9761 13.3931C22.9761 12.9806 23.2313 12.5458 24 12.5083V11.4844C23.2313 11.4581 22.9761 11.0224 22.9761 10.6099C22.9761 9.84111 23.0962 9.38848 23.0962 8.56348C23.0962 7.28098 22.6234 6.86719 21.5771 6.86719H20.8081ZM8.43164 9.22998C6.99164 9.22998 5.61387 10.4344 5.65137 12.3252C5.65137 14.2752 6.93446 15.4189 8.62646 15.4189C9.33521 15.4189 10.1231 15.1643 10.7344 14.748L10.1411 13.7051C9.70611 13.9601 9.29438 14.0801 8.85938 14.0801C8.07187 14.0801 7.45975 13.7058 7.30225 12.7983H10.8735C10.8923 12.6596 10.9336 12.3853 10.9336 12.0703C10.9553 10.4713 10.0854 9.22998 8.43164 9.22998ZM13.7314 9.24902C12.3927 9.24902 11.4844 10.0183 11.4844 11.1021C11.4844 12.0658 12.3328 12.5597 13.0415 12.8335C13.6528 13.0697 14.2441 13.2688 14.2441 13.6626C14.2441 13.9588 14.0091 14.1533 13.4766 14.1533C12.9853 14.1533 12.49 13.955 11.9575 13.5425L11.1885 14.6865C11.781 15.1778 12.6841 15.5156 13.4341 15.5156C15.0091 15.5156 15.8584 14.6863 15.8584 13.6025C15.8614 12.5195 15.0129 12.0653 14.2441 11.8096C13.6329 11.5733 13.0825 11.4357 13.0825 11.042C13.0825 10.7457 13.3184 10.5688 13.7534 10.5688C14.1884 10.5688 14.5819 10.7446 15.0132 11.0596L15.8013 10.0181C15.31 9.64307 14.6389 9.24902 13.7314 9.24902ZM18.52 9.24902C17.1813 9.24902 16.2744 10.0183 16.2744 11.1021C16.2744 12.0658 17.1213 12.5597 17.8301 12.8335C18.4413 13.0697 19.0342 13.2688 19.0342 13.6626C19.0342 13.9588 18.7976 14.1533 18.2651 14.1533C17.7739 14.1533 17.2786 13.955 16.7461 13.5425L15.9595 14.6865C16.552 15.1778 17.4551 15.5156 18.2051 15.5156C19.7801 15.5156 20.6294 14.6863 20.6294 13.6025C20.6294 12.5188 19.7839 12.0653 19.0151 11.8096C18.4226 11.5733 17.8711 11.4357 17.8711 11.042C17.8711 10.7457 18.1085 10.5688 18.5435 10.5688C18.9785 10.5688 19.372 10.7446 19.8032 11.0596L20.5898 10.0181C20.0986 9.64307 19.4275 9.24902 18.52 9.24902ZM8.45068 10.5498C9.15943 10.5498 9.43652 11.0416 9.43652 11.7129H7.30664C7.42664 10.9254 7.89943 10.5498 8.45068 10.5498Z" fill="black"/>
</svg>
