<svg width="24" height="24" viewBox="0 0 24 24" fill="none" xmlns="http://www.w3.org/2000/svg">
<path d="M8.625 2.25L4.14844 3.67969L7.40625 5.67188L12.1875 3.86719L8.90625 2.29688C8.82715 2.25586 8.7041 2.25 8.625 2.25ZM3.75 4.38281L4.73438 9.14062C4.73438 9.21973 4.81934 9.2959 4.89844 9.375L7.75781 11.625L6.98438 6.35156L3.75 4.38281ZM12.5391 4.57031L7.80469 6.35156L8.60156 11.5781L12.5391 9.53906C12.6562 9.49805 12.7266 9.3457 12.7266 9.1875L12.5391 4.57031ZM17.2266 9.16406C17.1562 9.16406 17.0742 9.19629 17.0156 9.23438L14.7891 10.6406L17.3906 12.2578L19.7812 10.5234L17.4141 9.23438C17.3555 9.19629 17.2969 9.16406 17.2266 9.16406ZM5.03906 10.4766L5.88281 14.6484C5.88281 14.7275 5.9209 14.8184 6 14.8594L8.60156 17.2969L7.96875 12.7969L5.03906 10.4766ZM12.7734 10.4766L8.83594 12.7266L9.375 17.2969L12.7734 15.0234C12.8906 14.9443 12.9785 14.8066 12.9375 14.6484L12.7734 10.4766ZM20.25 11.1562L20.1797 11.2266C20.1387 11.2676 20.1475 11.3203 20.1094 11.3203L17.6953 12.9609L17.5781 15.4922V15.6328L19.7344 13.9453C19.8135 13.8662 19.8604 13.79 19.8984 13.7109L20.25 11.1562ZM13.9453 11.2031C13.8721 11.2031 13.79 11.2354 13.7109 11.2734L13.6406 11.3203L13.7578 14.6484C13.7578 14.7275 13.752 14.8506 13.7109 14.9297L16.5469 12.8438L14.1562 11.2734C14.0977 11.2354 14.0186 11.2031 13.9453 11.2031ZM16.9922 13.4766L13.8281 15.6797L13.9219 18.3984V18.6094L16.6641 16.4297C16.7432 16.3506 16.8281 16.2656 16.8281 16.1484L16.9922 13.4766ZM6.23438 15.9141L6.82031 19.0781C6.82031 19.1572 6.8584 19.1865 6.9375 19.2656L9.30469 21.75L9.23438 21.5859L8.71875 18.3281L6.23438 15.9141ZM13.0781 15.9609L9.53906 18.2344L10.0078 21.5156L10.0547 21.75L13.0078 19.3828C13.125 19.3037 13.1719 19.1953 13.1719 19.0781L13.0781 15.9609Z" fill="black"/>
</svg>
