<svg width="24" height="24" viewBox="0 0 24 24" fill="none" xmlns="http://www.w3.org/2000/svg">
<path d="M12 3.75C7.86621 3.75 4.5 7.11621 4.5 11.25V17.25C4.5 18.0879 3.83789 18.75 3 18.75V20.25C4.64941 20.25 6 18.8994 6 17.25V11.25C6 7.92773 8.67773 5.25 12 5.25C12.7617 5.25 13.4883 5.39062 14.1562 5.64844C13.9365 5.95898 14.0537 6.50684 14.4609 6.91406C14.9004 7.35352 15.5039 7.46484 15.7969 7.17188C15.9053 7.06348 15.9375 6.89648 15.9375 6.72656C17.1973 7.8252 18 9.43945 18 11.25V17.25C18 18.8994 19.3506 20.25 21 20.25V18.75C20.1621 18.75 19.5 18.0879 19.5 17.25V11.25C19.5 7.11621 16.1338 3.75 12 3.75ZM9.75 8.25C8.61035 8.25 7.74902 8.88867 7.3125 9.65625C6.87598 10.4238 6.75 11.2852 6.75 12C6.75 13.0166 7.06055 13.7607 7.40625 14.2266C7.43848 14.2705 7.46777 14.3027 7.5 14.3438C7.04004 14.8359 6.75 15.4453 6.75 16.125C6.75 17.1973 7.47949 18.0732 8.4375 18.6328C9.39551 19.1924 10.6377 19.5 12 19.5C13.3623 19.5 14.6045 19.1924 15.5625 18.6328C16.5205 18.0732 17.25 17.1973 17.25 16.125C17.25 15.4453 16.96 14.8359 16.5 14.3438C16.5322 14.3027 16.5615 14.2705 16.5938 14.2266C16.9395 13.7607 17.25 13.0166 17.25 12C17.25 11.2852 17.124 10.4238 16.6875 9.65625C16.251 8.88867 15.3896 8.25 14.25 8.25C13.251 8.25 12.4717 8.73926 12 9.375C11.5283 8.73926 10.749 8.25 9.75 8.25ZM9.75 9.75C10.4004 9.75 10.6582 9.98438 10.8984 10.4062C11.1387 10.8281 11.25 11.4697 11.25 12H12.75C12.75 11.4697 12.8613 10.8281 13.1016 10.4062C13.3418 9.98438 13.5996 9.75 14.25 9.75C14.9004 9.75 15.1582 9.98438 15.3984 10.4062C15.6387 10.8281 15.75 11.4697 15.75 12C15.75 12.7207 15.542 13.1104 15.375 13.3359C15.3223 13.4092 15.293 13.4414 15.2578 13.4766C15.0879 13.3916 14.9238 13.2891 14.7422 13.2188C14.9004 13.0137 15 12.7148 15 12.375C15 11.7539 14.6631 11.25 14.25 11.25C13.8369 11.25 13.5 11.7539 13.5 12.375C13.5 12.5742 13.5586 12.7529 13.6172 12.9141C13.1016 12.8115 12.5684 12.75 12 12.75C11.4316 12.75 10.8984 12.8115 10.3828 12.9141C10.4414 12.7529 10.5 12.5742 10.5 12.375C10.5 11.7539 10.1631 11.25 9.75 11.25C9.33691 11.25 9 11.7539 9 12.375C9 12.7148 9.09961 13.0137 9.25781 13.2188C9.07617 13.2891 8.91211 13.3916 8.74219 13.4766C8.70703 13.4414 8.67773 13.4092 8.625 13.3359C8.45801 13.1104 8.25 12.7207 8.25 12C8.25 11.4697 8.36133 10.8281 8.60156 10.4062C8.8418 9.98438 9.09961 9.75 9.75 9.75ZM12 14.25C13.125 14.25 14.1416 14.5137 14.8125 14.9062C15.4834 15.2988 15.75 15.7471 15.75 16.125C15.75 16.5029 15.4834 16.9512 14.8125 17.3438C14.1416 17.7363 13.125 18 12 18C10.875 18 9.8584 17.7363 9.1875 17.3438C8.5166 16.9512 8.25 16.5029 8.25 16.125C8.25 15.7471 8.5166 15.2988 9.1875 14.9062C9.8584 14.5137 10.875 14.25 12 14.25ZM10.125 15.3281L9.375 16.6172C9.375 16.6172 10.4443 17.25 12 17.25C13.5557 17.25 14.625 16.6172 14.625 16.6172L13.875 15.3281C13.875 15.3281 13.1602 15.75 12 15.75C10.8398 15.75 10.125 15.3281 10.125 15.3281Z" fill="black"/>
</svg>
