<svg width="24" height="24" viewBox="0 0 24 24" fill="none" xmlns="http://www.w3.org/2000/svg">
<path d="M7.71094 3.96094L5.25 6.42188L4.28906 5.46094L3.21094 6.53906L4.71094 8.03906L5.25 8.55469L5.78906 8.03906L8.78906 5.03906L7.71094 3.96094ZM11.25 5.25V6.75H21V5.25H11.25ZM7.71094 9.96094L5.25 12.4219L4.28906 11.4609L3.21094 12.5391L4.71094 14.0391L5.25 14.5547L5.78906 14.0391L8.78906 11.0391L7.71094 9.96094ZM11.25 11.25V12.75H21V11.25H11.25ZM7.71094 15.9609L5.25 18.4219L4.28906 17.4609L3.21094 18.5391L4.71094 20.0391L5.25 20.5547L5.78906 20.0391L8.78906 17.0391L7.71094 15.9609ZM11.25 17.25V18.75H21V17.25H11.25Z" fill="black"/>
</svg>
