<svg width="24" height="24" viewBox="0 0 24 24" fill="none" xmlns="http://www.w3.org/2000/svg">
<path d="M2.78906 1.71094L1.71094 2.78906L21.2109 22.2891L22.2891 21.2109L17.3438 16.2656C19.8281 14.7158 21.4775 12.6768 21.5859 12.5391L21.75 12.3281V11.6484L21.5625 11.4375C21.3721 11.2148 16.8926 6 12 6C10.5732 6 9.24023 6.39844 8.03906 6.96094L2.78906 1.71094ZM12 7.5C15.4863 7.5 18.9609 10.8604 20.0625 12.0234C19.4531 12.7119 18.0732 14.124 16.2656 15.1875L14.5781 13.5C15.252 12.3516 15.0967 10.8545 14.1094 9.86719C13.1221 8.87988 11.6484 8.74805 10.5 9.42188L9.1875 8.10938C10.0752 7.75195 11.0127 7.5 12 7.5ZM5.8125 8.27344C3.80273 9.71777 2.51074 11.3408 2.41406 11.4609L2.25 11.6484V12.3516L2.4375 12.5625C2.63379 12.7852 7.28906 18 12 18C13.0488 18 14.0625 17.7949 15 17.4609L5.8125 8.27344ZM6.28125 9.82031L12.8906 16.4297C12.6006 16.4707 12.2988 16.5 12 16.5C11.6367 16.5 11.2646 16.4561 10.8984 16.3828L5.22656 10.6875C5.53711 10.4033 5.89746 10.1162 6.28125 9.82031ZM4.66406 11.2031L9.39844 15.9141C6.9668 14.9004 4.78418 12.8408 3.9375 11.9766C4.11328 11.7773 4.36523 11.499 4.66406 11.2031Z" fill="black"/>
</svg>
