<svg width="24" height="24" viewBox="0 0 24 24" fill="none" xmlns="http://www.w3.org/2000/svg">
<path d="M15.6562 1.92188L15.1406 2.48438L13.875 3.82031H11.1797V6.44531L9.89062 7.80469L9.375 8.34375L11.0156 9.98438L2.27344 18.75L1.73438 19.2891L2.27344 19.8047L4.73438 22.2656L5.25 21.7266L14.0156 12.9844L15.6562 14.625L16.1953 14.1094L17.5547 12.8203H20.1797V10.125L21.5156 8.85938L22.0781 8.34375L20.1797 6.44531V3.82031H17.5547L15.6562 1.92188ZM15.6797 4.07812L16.7109 5.10938L16.9453 5.32031H18.6797V7.05469L18.8906 7.28906L19.9219 8.32031L18.9141 9.28125L18.6797 9.49219V11.3203H16.9453L16.7344 11.5312L15.6797 12.5391L15.0703 11.9297L18.4688 8.53125L15.4922 5.55469L14.9531 6.07031L12.0938 8.95312L11.4609 8.32031L12.4688 7.26562L12.6797 7.05469V5.32031H14.5078L14.7188 5.08594L15.6797 4.07812ZM15.4922 7.66406L16.3359 8.53125L4.73438 20.1562L3.86719 19.2891L15.4922 7.66406ZM14.25 15.75V16.5H13.5V18H14.25V18.75H15.75V18H16.5V16.5H15.75V15.75H14.25ZM18.75 17.25V18.75H17.25V20.25H18.75V21.75H20.25V20.25H21.75V18.75H20.25V17.25H18.75Z" fill="black"/>
</svg>
