<svg width="24" height="24" viewBox="0 0 24 24" fill="none" xmlns="http://www.w3.org/2000/svg">
<path d="M11.0464 3.00587C7.64793 3.25634 1.45938 10.7139 3.8291 12.7148L4.4209 13.2173C4.26115 13.6455 4.20509 14.1061 4.25684 14.5606C4.39184 15.8993 5.69937 16.9834 6.96387 16.9819C9.27837 22.3167 17.7043 22.3251 19.8853 17.1021C19.9543 16.9221 20.25 16.1139 20.25 15.4014C20.25 14.6889 19.8452 14.3892 19.5864 14.3892C19.4522 13.9189 19.3654 13.8648 19.2026 13.6436C19.3009 13.4966 19.8153 12.6809 19.0796 11.9092C18.6626 11.4712 17.8317 11.1691 17.543 11.0889C17.483 10.6321 17.7294 8.735 16.6802 7.76075C17.5134 6.8975 18.0015 5.94664 18 5.12989C17.9977 3.56014 16.1031 3.08463 13.7271 4.06788L13.2231 4.28174C13.2209 4.27949 12.3123 3.38994 12.2988 3.37794C11.9603 3.08262 11.5319 2.97008 11.0464 3.00587ZM11.3555 3.65479C11.4528 3.65951 11.5453 3.67416 11.6309 3.69727C11.8536 3.76027 12.5903 4.61426 12.5903 4.61426C12.5903 4.61426 11.2211 5.37313 9.95215 6.43213C8.2414 7.74988 6.94978 9.66398 6.17578 11.7407C5.56828 11.8592 5.03136 12.2042 4.70361 12.6812C4.50786 12.5177 4.14334 12.1999 4.07959 12.0791C3.55834 11.0831 4.64981 9.15229 5.41406 8.06104C7.18453 5.53401 9.89514 3.58404 11.3555 3.65479ZM13.7446 6.10694C13.7619 6.10544 13.7754 6.11974 13.7769 6.13624C13.7776 6.14674 13.7734 6.15585 13.7651 6.1626C13.6496 6.25185 13.5453 6.3569 13.4561 6.47315C13.4463 6.48665 13.4499 6.50442 13.4634 6.51417C13.4686 6.51792 13.4742 6.51928 13.481 6.52003C13.9745 6.52378 14.6693 6.69644 15.1245 6.95069C15.1553 6.96794 15.1341 7.02704 15.0996 7.01954C12.3111 6.38054 10.1643 7.76395 9.70605 8.0962C9.6918 8.1052 9.67404 8.10019 9.66504 8.08594C9.65754 8.07469 9.65825 8.06129 9.6665 8.05079H9.66357C10.3348 7.27529 11.1616 6.60141 11.9019 6.22266C11.9161 6.21441 11.9332 6.21867 11.9414 6.23292C11.9467 6.24192 11.9467 6.25246 11.9414 6.26221C11.8829 6.36871 11.7694 6.59655 11.7334 6.76905C11.7296 6.78555 11.7403 6.80192 11.7568 6.80567C11.7651 6.80792 11.7735 6.80578 11.7803 6.80128C12.2408 6.48703 13.0426 6.15044 13.7446 6.10694ZM16.1309 8.521C16.2237 8.53638 16.3135 8.57033 16.3945 8.62208C16.7958 8.88833 16.8511 9.53314 16.8721 10.0049C16.8841 10.2741 16.9165 10.9263 16.9277 11.1123C16.9532 11.5398 17.0659 11.6006 17.2939 11.6733C17.4222 11.7153 17.5396 11.7469 17.7144 11.7964C18.2439 11.9449 18.445 12.1734 18.646 12.3677C18.748 12.4682 18.8154 12.598 18.8364 12.7398C18.8987 13.1958 18.5942 13.6814 17.4917 14.1929C15.6189 15.0621 13.7356 14.7715 13.4634 14.7407C12.6556 14.632 12.1952 15.6769 12.6797 16.3916C13.5872 17.7311 17.5861 17.1936 18.7471 15.5361C18.7748 15.4964 18.7515 15.4711 18.7178 15.4951C17.043 16.6411 14.8281 17.0271 13.5688 16.5381C13.3776 16.4638 12.9775 16.2804 12.9287 15.8701C14.677 16.4109 15.7749 15.8994 15.7749 15.8994C15.7749 15.8994 15.8564 15.7864 15.7529 15.7969C15.7529 15.7969 14.3198 16.0084 12.9653 15.5127C13.2143 14.7042 14.0471 15.757 16.8296 14.959C17.4423 14.7835 18.1362 14.5158 18.7632 14.02C18.9484 14.2128 19.1054 14.582 19.1602 14.9165C19.3072 14.8903 19.7312 14.8946 19.6187 15.6416C19.4867 16.4381 19.1493 17.0852 18.5801 17.6807C18.2246 18.0662 17.8008 18.3827 17.3306 18.6152C17.0688 18.7525 16.7966 18.8672 16.5161 18.9595C14.3711 19.66 12.1734 18.8899 11.4639 17.2354C11.4061 17.1094 11.3593 16.9785 11.3218 16.8442C11.0195 15.7537 11.2766 14.4451 12.0776 13.6216C12.1271 13.5691 12.1772 13.5077 12.1772 13.4297C12.1705 13.3629 12.1431 13.2998 12.0996 13.2481C11.8191 12.8423 10.8499 12.1493 11.0449 10.8091C11.1852 9.84684 12.0263 9.16898 12.8115 9.20948L13.0122 9.2212C13.352 9.24145 13.6487 9.28465 13.9292 9.2959C14.3979 9.31615 14.8191 9.24851 15.3179 8.83301C15.4866 8.69276 15.6216 8.57097 15.8496 8.53272C15.9426 8.50947 16.038 8.50563 16.1309 8.521ZM15.98 10.147C15.7302 10.1875 15.7208 10.498 15.8101 10.9263C15.8603 11.167 15.9498 11.3715 16.0503 11.499C16.174 11.4833 16.2986 11.4833 16.4224 11.499C16.4891 11.3453 16.5014 11.0817 16.4414 10.7944C16.3522 10.3669 16.2297 10.1065 15.98 10.147ZM13.1162 11.313C12.9046 11.3385 12.6989 11.4172 12.5215 11.5474C12.4015 11.6351 12.2882 11.7566 12.3047 11.8301C12.3384 11.9801 12.7067 11.7217 13.2114 11.6909C13.4919 11.6737 13.7243 11.7609 13.9028 11.8389C14.0821 11.9191 14.1919 11.9703 14.2354 11.9253C14.3111 11.8473 14.0955 11.5479 13.749 11.3994C13.5458 11.315 13.3278 11.2875 13.1162 11.313ZM16.3418 11.9092V11.9107C16.035 11.9054 16.0233 12.5441 16.3315 12.5493C16.6398 12.5546 16.6508 11.9152 16.3418 11.9092ZM13.5425 12.0454C13.1787 12.1024 12.9405 12.3065 13.002 12.4497C13.038 12.4632 13.0487 12.482 13.21 12.4175C13.4492 12.3275 13.7087 12.3008 13.9614 12.3398C14.0784 12.3533 14.1337 12.3613 14.1592 12.3208C14.2177 12.2316 13.931 11.9997 13.5425 12.0454ZM15.3076 12.3384C15.2369 12.3466 15.1746 12.3801 15.1406 12.4497C15.0045 12.7265 15.5758 13.0043 15.7134 12.731C15.8152 12.5245 15.5197 12.3136 15.3076 12.3384ZM6.67236 12.3604C7.40001 12.3833 8.11274 12.8972 8.28369 14.001C8.46594 15.189 8.09603 16.3461 6.91553 16.3184L6.91699 16.3198C6.00199 16.2951 5.01427 15.4711 4.91602 14.4946C4.7768 13.1122 5.73681 12.3308 6.67236 12.3604ZM6.61963 13.0503C6.3501 13.0422 6.09093 13.1623 5.9458 13.3228C5.5963 13.7075 5.59587 14.2663 5.74512 14.2881C5.91612 14.3106 5.90902 14.0293 6.04102 13.8223C6.19552 13.5838 6.51443 13.5154 6.75293 13.6699C6.75443 13.6707 6.75582 13.6714 6.75732 13.6729C7.22232 13.9774 6.81139 14.3841 6.84814 14.8198C6.90364 15.4888 7.58712 15.4757 7.71387 15.1802C7.73037 15.1502 7.72683 15.1134 7.70508 15.0864C7.70658 15.1224 7.73303 15.0358 7.57178 15.0718L7.57031 15.0732C7.51706 15.086 7.32947 15.1325 7.23047 14.9795C7.02197 14.6585 7.67609 14.1627 7.35059 13.5454C7.16834 13.1952 6.88916 13.0584 6.61963 13.0503Z" fill="black"/>
</svg>
