<svg width="24" height="24" viewBox="0 0 24 24" fill="none" xmlns="http://www.w3.org/2000/svg">
<path d="M12 1.5C10.3506 1.5 9 2.85059 9 4.5C9 5.2998 9.3252 6.02344 9.84375 6.5625C8.45508 7.33008 7.5 8.80957 7.5 10.5V14.5547L7.71094 14.7891L9 16.0781V22.5H10.5V15.4453L10.2891 15.2109L9 13.9219V10.5C9 8.83594 10.3359 7.5 12 7.5C13.6641 7.5 15 8.83594 15 10.5V13.9219L13.7109 15.2109L13.5 15.4453V22.5H15V16.0781L16.2891 14.7891L16.5 14.5547V10.5C16.5 8.80957 15.5449 7.33008 14.1562 6.5625C14.6748 6.02344 15 5.2998 15 4.5C15 2.85059 13.6494 1.5 12 1.5ZM12 3C12.8379 3 13.5 3.66211 13.5 4.5C13.5 5.33789 12.8379 6 12 6C11.1621 6 10.5 5.33789 10.5 4.5C10.5 3.66211 11.1621 3 12 3Z" fill="black"/>
</svg>
