<svg width="24" height="24" viewBox="0 0 24 24" fill="none" xmlns="http://www.w3.org/2000/svg">
<path d="M14.7349 1.5L14.5459 1.59229C14.3629 1.68304 14.3487 1.68711 13.9204 1.70361L13.4795 1.71973L13.3008 1.81787C13.1343 1.90937 13.115 1.913 13.0122 1.88525C12.941 1.8635 12.8716 1.8334 12.8071 1.7959C12.7306 1.75615 12.6473 1.72951 12.561 1.71826C12.48 1.70776 12.3995 1.68885 12.3223 1.6626C12.2465 1.6311 12.2115 1.63296 12.0615 1.67871C11.982 1.70496 11.9009 1.72391 11.8169 1.73291C11.7119 1.74716 11.6076 1.77026 11.5063 1.80176C11.3751 1.84001 11.2406 1.86349 11.2046 1.85449C11.1146 1.83199 10.9088 1.92841 10.8428 2.02441C10.7228 2.22991 10.5 2.56804 10.5952 2.81104C10.7347 2.99554 11.2386 2.85571 11.2266 3.16846C11.1388 3.53596 10.9996 3.88815 10.8721 4.24365L10.4077 4.13965C10.7145 3.10465 10.6676 3.4992 9.8291 2.9502C9.85085 2.85345 9.88374 2.75966 9.92724 2.67041C10.042 2.50316 10.1484 2.32527 10.1484 2.30127C10.1597 2.26602 10.1793 2.2338 10.2041 2.20605C10.2716 2.1198 10.2788 1.92117 10.2158 1.85742C10.1528 1.79367 10.0871 1.78693 9.73681 1.79443C9.45256 1.79893 9.40674 1.80746 9.27099 1.87646C9.18474 1.92071 8.99794 2.06842 8.83594 2.22217L8.55322 2.49023L8.56201 3.02344L8.5708 3.55664L8.67041 3.76172C8.76941 3.96647 8.87755 4.08066 9.1333 4.25391C9.1723 4.27791 9.20866 4.30447 9.24316 4.33447C9.25141 4.34422 9.33538 4.414 9.43213 4.48975C9.52813 4.5655 9.64562 4.6565 9.69287 4.69775C9.85487 4.838 10.039 4.94652 10.2393 5.02002C10.6045 5.14977 10.702 5.2774 10.7695 5.7334C10.8048 5.96815 10.9079 6.30497 10.9717 6.38672C10.9897 6.40847 11.0359 6.58547 11.1401 7.04297C11.1566 7.11797 11.1752 7.22263 11.1812 7.27588C11.1872 7.32913 11.2042 7.42736 11.2192 7.49561C11.2627 7.73786 11.2908 7.98278 11.3013 8.22803C11.3013 8.32853 11.2907 8.34916 11.209 8.39941C11.1677 8.42716 11.1215 8.44679 11.0728 8.45654C11.0128 8.45654 10.9026 8.23273 10.8486 8.00098C10.7669 7.63798 10.6507 7.48466 10.4385 7.45166C10.2607 7.42391 9.95483 7.19975 9.49658 6.76025C9.43808 6.7115 9.37297 6.67232 9.30322 6.64307C8.99722 6.51557 8.8157 6.39019 8.6792 6.21094C8.59445 6.09994 8.58691 6.07343 8.58691 5.90918C8.59216 5.75618 8.60764 5.6029 8.62939 5.45215C8.68189 5.09215 8.67975 4.88839 8.625 4.69189C8.5545 4.44589 8.36878 4.34432 8.23828 4.48682C8.12053 4.61507 7.89847 5.22606 7.80322 5.68506C7.76047 5.89206 7.71308 6.00898 7.62158 6.12598C7.58333 6.16948 7.56921 6.22939 7.58496 6.28564C7.60521 6.39214 7.7763 6.77564 7.83105 6.83789C7.8708 6.89114 7.90649 6.94785 7.93799 7.00635L8.00683 7.12939L7.95117 7.31982C7.85967 7.63332 7.85911 7.61487 7.97461 7.71387C8.03236 7.76262 8.28657 8.00986 8.53857 8.25586C9.06507 8.77486 9.15334 8.82655 9.51709 8.85205C9.74209 8.86855 9.83344 8.90153 9.86719 8.97803C9.87694 9.00128 9.88834 9.22414 9.89209 9.47314C9.90934 10.5201 9.90622 10.5054 10.147 10.8369L10.2817 11.0244L10.3184 11.3818C10.3634 11.8123 10.3634 13.159 10.3184 13.8032L10.2876 14.2515L10.3682 14.3657C10.4117 14.4287 10.651 14.6851 10.897 14.9341C11.2397 15.2783 11.3699 15.4297 11.4404 15.564L11.5327 15.7397L11.5151 16.4268C11.5054 16.8048 11.484 17.1572 11.4683 17.2104C11.4525 17.2637 11.4212 17.5912 11.3979 17.9385C11.3589 18.5302 11.3248 18.9812 11.291 19.3652C11.2828 19.456 11.2635 19.691 11.2485 19.8867C11.205 20.4747 11.1408 21.1011 11.1123 21.2241C11.0643 21.4356 11.0757 21.4738 11.2295 21.6328C11.4125 21.8203 11.7159 22.051 11.7422 22.021C11.7879 21.9685 11.8268 21.5144 11.8418 20.8462C11.8508 20.4539 11.8614 20.0637 11.8667 19.9819C11.8727 19.8499 11.8947 19.1842 11.9487 17.4712C11.957 17.2147 11.9698 16.895 11.978 16.7607C11.9938 16.5125 11.9714 16.3268 11.8799 15.9346C11.8476 15.7943 11.8246 15.653 11.8096 15.5098C11.7961 15.3838 11.7674 15.2599 11.7246 15.1406C11.6879 15.0506 11.6651 14.9716 11.6719 14.9648C11.6786 14.9581 11.6722 14.9303 11.6572 14.9033C11.6145 14.8231 11.5782 14.3771 11.5752 13.8896C11.5722 13.4021 11.5353 13.1996 11.395 12.9229C11.3245 12.7841 10.9616 12.2614 10.8296 12.1099L10.7476 12.0176L10.7622 11.5166C10.7787 10.9879 10.8125 10.7373 10.8853 10.6143C10.946 10.5108 11.0008 10.5295 11.0713 10.6772C11.1373 10.816 11.203 10.8881 11.4902 11.1416C11.704 11.3291 11.7949 11.4491 11.7949 11.5474C11.7837 11.6141 11.7598 11.6778 11.7261 11.7363C11.6226 11.9358 11.6328 12.1507 11.7671 12.5977C11.8263 12.7949 11.8826 13.0157 11.8931 13.0869C11.9021 13.1552 11.9224 13.2202 11.9531 13.2817C11.9906 13.341 11.9954 13.345 12.0366 13.3037C12.0711 13.2512 12.0936 13.1916 12.1011 13.1294C12.1108 13.0566 12.1321 12.9043 12.1509 12.791C12.1696 12.6778 12.1952 12.5269 12.2109 12.4541C12.2589 12.2456 12.2484 12.0275 12.1816 11.8242C12.1486 11.7222 12.1109 11.6318 12.0967 11.6235C12.0622 11.6018 12.0635 11.4362 12.1025 11.3057C12.1415 11.1752 12.2776 11.0398 12.6211 10.79C12.7658 10.685 12.9189 10.5476 12.9609 10.4868C13.0037 10.4261 13.0485 10.377 13.0605 10.377C13.1475 10.377 13.1389 10.7518 13.0459 11.0083C12.9709 11.2093 12.91 11.415 12.8643 11.625C12.835 11.7705 12.7683 12.0718 12.6753 12.4761C12.589 12.8563 12.4475 13.2362 12.3223 13.4297C12.2555 13.5332 12.2456 13.5724 12.2373 13.8267C12.2291 14.0809 12.2889 14.6835 12.3706 15.2168C12.3879 15.39 12.3928 15.5643 12.3853 15.7383C12.3763 16.0495 12.3813 16.1118 12.4263 16.207C12.5163 16.3975 12.5338 16.5479 12.5391 17.2236C12.5421 17.5859 12.5541 17.9675 12.5669 18.0732C12.5931 18.2892 12.6019 19.3914 12.5771 19.4326C12.5606 19.4596 12.4686 20.0543 12.4424 20.3086C12.4259 20.4743 12.4078 20.8375 12.3853 21.4893C12.3733 21.8465 12.4014 22.3585 12.4424 22.4941C12.4802 22.5242 12.961 22.1498 13.0693 21.9932L13.144 21.8848V21.104C13.144 20.6225 13.1313 20.2639 13.1118 20.1709C13.0946 20.0876 13.0746 19.9494 13.0679 19.8677C13.0589 19.7709 13.0427 19.6751 13.0225 19.5806C12.9865 19.4208 12.9788 18.853 12.9976 17.77C13.0118 16.9405 13.0064 16.9028 12.8174 16.2466C12.7889 16.1273 12.7728 16.0056 12.7705 15.8833L12.7676 15.6694L12.9316 15.5259C13.4041 15.1096 13.5245 14.8643 13.3843 14.5898C13.295 14.4106 13.2707 14.1416 13.3022 13.6406C13.3165 13.3924 13.3422 13.0947 13.3579 12.9814C13.3737 12.8682 13.3914 12.7058 13.3989 12.624C13.4402 12.1538 13.5334 11.7744 13.6069 11.7744C13.6504 11.7744 13.7711 11.466 13.7988 11.2822C13.8438 10.9912 13.8229 10.3953 13.7651 10.3301C13.7366 10.2948 13.7149 10.2542 13.7007 10.2114C13.6767 10.1439 13.6487 10.0782 13.6157 10.0137C13.5685 9.92142 13.5453 9.81834 13.5498 9.71484C13.5498 9.51609 13.6003 9.39994 13.7256 9.30469C13.7736 9.26719 13.9453 9.11695 14.102 8.9707L14.3892 8.7041L14.4829 8.4082C14.5774 8.11045 14.7525 7.70367 14.8418 7.57617C14.868 7.53942 14.9492 7.3913 15.022 7.24805C15.1817 6.93305 15.3587 6.70382 15.709 6.36182L15.9741 6.104L15.9404 6.00293C15.9224 5.94668 15.9046 5.7459 15.9023 5.55615L15.8979 5.21045L15.7148 5.04346L15.5332 4.875L15.5581 4.57178C15.5724 4.40603 15.5979 4.1397 15.6167 3.98145C15.6744 3.49095 15.6219 3.36438 15.4292 3.53613C15.3174 3.63513 15.2419 3.79031 15.2007 4.00781C15.1812 4.11431 15.1405 4.21661 15.082 4.30811C15.0198 4.40336 14.9791 4.51273 14.9648 4.62598C14.8478 5.32648 14.7292 5.63046 14.4375 5.99121C14.2717 6.19896 14.0572 6.36371 13.8135 6.47021C13.7077 6.52046 13.5339 6.61165 13.4297 6.6709C13.3254 6.73015 13.1403 6.83277 13.0195 6.89502C12.607 7.10652 12.5433 7.18497 12.4541 7.59521C12.3551 8.04972 12.3425 8.08205 12.2607 8.0918C12.203 8.09855 12.1799 8.08283 12.1289 7.99658C12.0779 7.91033 12.0688 7.85406 12.0688 7.65381C12.0666 7.53081 12.0806 7.40831 12.1113 7.28906C12.1706 7.11356 12.1638 7.03378 12.082 6.92578C11.9898 6.80578 11.9724 6.6442 12.0264 6.5332C12.0804 6.4222 12.0804 6.25561 12.0264 6.09961C12.0001 6.02086 11.9805 5.93966 11.9678 5.85791C11.9535 5.75516 11.9606 5.72595 12.0146 5.66895C12.0386 5.6397 12.0688 5.61656 12.1025 5.60156C12.1393 5.58506 12.1729 5.56196 12.2007 5.53271C12.2412 5.49146 12.3864 5.38262 12.5229 5.28662C12.6234 5.21987 12.7193 5.14493 12.8101 5.06543C12.8378 5.03468 12.8729 5.01087 12.9111 4.99512C12.9576 4.96812 12.9927 4.92671 13.0122 4.87646C13.0557 4.79771 13.1174 4.73043 13.1924 4.68018C13.2561 4.63818 13.3128 4.58562 13.3608 4.52637C13.3826 4.48512 13.4194 4.4751 13.5469 4.4751C13.7074 4.4751 13.8347 4.4352 14.2119 4.2627C14.5194 4.1217 14.5916 4.03718 14.7964 3.56543C14.8159 3.52643 14.8298 3.48513 14.8403 3.44238C14.8403 3.38388 15.0397 3.11859 15.1289 3.05859C15.2279 2.99259 15.2398 2.95216 15.227 2.77441C15.2173 2.71741 15.1991 2.6621 15.1728 2.61035C15.1368 2.53235 15.1082 2.4519 15.0864 2.36865C15.0534 2.2419 15.0548 2.2062 15.0908 2.10645C15.1321 1.9917 15.1319 1.98994 15.0352 1.80469C14.9654 1.67044 14.9079 1.59984 14.8359 1.55859L14.7349 1.5ZM12.4424 22.4941C12.4415 22.4934 12.434 22.4983 12.4336 22.4971H12.4424C12.4422 22.4966 12.4425 22.4946 12.4424 22.4941ZM16.3374 6.85547C15.4727 7.74497 15.2065 8.42924 15.0835 9.06299C16.618 10.6485 17.7217 11.8521 17.7217 11.8521C19.1894 13.9641 18.1358 15.7947 15.8115 15.5127V15.5142C16.902 16.7232 20.3076 15.8802 20.1313 12.9829C20.1126 12.6649 19.9967 9.46022 16.3374 6.85547ZM7.16455 8.16943V8.17236C3.75655 11.0171 3.6501 14.2299 4.6626 15.8687C5.51085 17.2442 8.12796 17.2701 8.70996 16.0708C5.88996 16.6603 4.86423 14.6252 6.13623 12.4922C6.45198 11.9589 7.49171 11.0687 9.28271 9.58594C9.10721 9.18619 8.86674 9.07078 8.33349 8.89453C7.89699 8.75053 8.02855 8.69368 7.16455 8.16943ZM10.3242 15.2388C10.2987 15.2643 10.3053 16.1439 10.333 16.3989C10.3473 16.5354 10.3623 16.6707 10.3623 16.7007C10.3653 16.7712 10.4617 17.3684 10.5029 17.5649C10.5202 17.6474 10.5444 17.8226 10.5571 17.9531C10.5631 18.0431 10.5764 18.1327 10.5981 18.2197C10.6304 18.366 10.6542 18.5136 10.6699 18.6621C10.6857 18.8106 10.7087 18.9582 10.7402 19.1045C10.741 19.1075 10.7439 19.1096 10.7446 19.1104C10.7551 19.1201 10.77 19.1209 10.7798 19.1104C10.809 19.0811 10.8574 18.5119 10.8896 17.7979C10.9031 17.4964 10.9202 17.1873 10.9277 17.1123C10.9352 17.0373 10.9481 16.8208 10.9556 16.6318C10.9631 16.4428 10.9773 16.1702 10.9878 16.0239L11.0068 15.7588L10.79 15.5435C10.5973 15.3522 10.3655 15.1975 10.3242 15.2388ZM13.6655 15.5039C13.6344 15.5077 13.5834 15.5409 13.4956 15.605C13.3201 15.7332 13.2788 15.8053 13.2788 15.9785C13.2788 16.1278 13.3749 16.8088 13.4019 16.853C13.4521 16.9355 13.5043 17.4451 13.5103 17.9341C13.514 18.2356 13.5304 18.5525 13.5469 18.6343C13.6031 18.9178 13.6406 19.4711 13.6406 20.0479C13.6406 20.3644 13.6463 20.6335 13.6538 20.6455H13.6597C13.6859 20.689 13.771 20.5779 13.8003 20.4639C13.8558 20.2366 13.8891 19.5663 13.8823 18.7705C13.8756 18.1128 13.8821 17.8947 13.9233 17.6045C13.9893 17.1282 13.9899 17.1149 13.9937 16.8779C13.9967 16.6537 13.9894 16.6061 13.8281 15.9858C13.7809 15.8058 13.7324 15.6207 13.7212 15.5757C13.7084 15.5258 13.6967 15.5002 13.6655 15.5039Z" fill="black"/>
</svg>
