<svg width="24" height="24" viewBox="0 0 24 24" fill="none" xmlns="http://www.w3.org/2000/svg">
<path d="M16.5 2.25C14.0243 2.25 12 4.27425 12 6.75C12 7.494 12.2872 8.253 12.6562 9.09375C13.0253 9.9345 13.491 10.8257 13.9688 11.6484C14.9235 13.2947 15.8906 14.6719 15.8906 14.6719L16.5 15.5625L17.1094 14.6719C17.1094 14.6719 18.0758 13.2947 19.0312 11.6484C19.509 10.8249 19.9748 9.9345 20.3438 9.09375C20.7127 8.253 21 7.494 21 6.75C21 4.27425 18.9757 2.25 16.5 2.25ZM8.97656 3.70312L3 6.25781V20.6484L9.02344 18.0469L15.0234 20.2969L21 17.7422V11.2031C20.5222 12.1204 19.992 12.999 19.5 13.7812V16.7578L15.75 18.3516V17.1328L14.6484 15.5391C14.5314 15.3688 14.3933 15.1669 14.25 14.9531V18.4219L9.75 16.7344V5.57812L10.5703 5.88281C10.6438 5.37581 10.7752 4.88719 10.9688 4.42969L8.97656 3.70312ZM16.5 3.75C18.1643 3.75 19.5 5.08575 19.5 6.75C19.5 7.04025 19.3189 7.72538 18.9844 8.48438C18.6506 9.24337 18.1785 10.1042 17.7188 10.8984C17.1068 11.9529 16.8427 12.3292 16.5 12.8452C16.1573 12.3292 15.8932 11.9529 15.2812 10.8984C14.8215 10.1042 14.3501 9.24337 14.0156 8.48438C13.6819 7.72538 13.5 7.04025 13.5 6.75C13.5 5.08575 14.8357 3.75 16.5 3.75ZM8.25 5.625V16.7578L4.5 18.3516V7.24219L8.25 5.625Z" fill="black"/>
</svg>
