<svg width="24" height="24" viewBox="0 0 24 24" fill="none" xmlns="http://www.w3.org/2000/svg">
<path d="M2.15625 4.5C0.990235 4.5 0 5.44043 0 6.60938V17.3906C0 18.5596 0.990235 19.5 2.15625 19.5H21.8438C23.0098 19.5 24 18.5596 24 17.3906V6.60938C24 5.44043 23.0098 4.5 21.8438 4.5H2.15625ZM2.15625 6H21.8438C22.2305 6 22.5 6.28711 22.5 6.60938V17.3906C22.5 17.7129 22.2305 18 21.8438 18H2.15625C1.76953 18 1.5 17.7129 1.5 17.3906V6.60938C1.5 6.28711 1.76953 6 2.15625 6ZM3.75 8.25V15.75H6V10.7578L8.25 13.7344L10.5 10.7578V15.75H12.75V8.25H10.5L8.25 11.25L6 8.25H3.75ZM16.5 8.25V12H14.25L17.625 15.75L21 12H18.75V8.25H16.5Z" fill="black"/>
</svg>
