<svg width="24" height="24" viewBox="0 0 24 24" fill="none" xmlns="http://www.w3.org/2000/svg">
<path d="M10.5 2.25V3.75H14.6719L10.6172 7.80469C9.71777 7.13379 8.64258 6.75 7.5 6.75C6.09668 6.75 4.78711 7.30664 3.79688 8.29688C2.80664 9.28711 2.25 10.5967 2.25 12C2.25 13.4033 2.80664 14.71 3.79688 15.7031C4.78711 16.6963 6.09668 17.25 7.5 17.25C8.90332 17.25 10.2129 16.6934 11.2031 15.7031C11.8125 15.0938 12.2637 14.3672 12.5156 13.5703C11.9355 13.4766 11.3232 13.5498 10.7812 13.7812C10.6113 14.0947 10.4092 14.3906 10.1484 14.6484C9.43945 15.3574 8.50195 15.75 7.5 15.75C6.49805 15.75 5.56055 15.3574 4.85156 14.6484C4.14258 13.9395 3.75 13.002 3.75 12C3.75 10.998 4.14258 10.0605 4.85156 9.35156C5.56055 8.64258 6.49805 8.25 7.5 8.25C8.50195 8.25 9.43945 8.64258 10.1484 9.35156C10.5088 9.71191 10.7842 10.1338 10.9688 10.5938C11.3057 10.5352 11.6514 10.5 12 10.5C12.1816 10.5 12.3604 10.5088 12.5391 10.5234C12.3662 9.92871 12.0674 9.38379 11.6953 8.88281L15.75 4.82812V8.25H19.1719L15.1172 12.3047C14.2178 11.6338 13.1426 11.25 12 11.25C10.5967 11.25 9.28711 11.8066 8.29688 12.7969C7.6875 13.4062 7.23633 14.1328 6.98438 14.9297C7.56445 15.0234 8.17676 14.9502 8.71875 14.7188C8.88867 14.4053 9.09082 14.1094 9.35156 13.8516C10.0605 13.1426 10.998 12.75 12 12.75C13.002 12.75 13.9395 13.1426 14.6484 13.8516C15.3574 14.5605 15.75 15.498 15.75 16.5C15.75 17.502 15.3574 18.4395 14.6484 19.1484C13.9395 19.8574 13.002 20.25 12 20.25C10.998 20.25 10.0605 19.8574 9.35156 19.1484C8.99121 18.7881 8.71582 18.3662 8.53125 17.9062C8.19434 17.9648 7.84863 18 7.5 18C7.31836 18 7.13965 17.9912 6.96094 17.9766C7.2041 18.8145 7.66406 19.5703 8.29688 20.2031C9.28711 21.1934 10.5967 21.75 12 21.75C13.4004 21.75 14.7129 21.1934 15.7031 20.2031C16.6934 19.2129 17.25 17.9033 17.25 16.5C17.25 15.3574 16.8662 14.2822 16.1953 13.3828L20.25 9.32812V13.5H21.75V6.75H17.25V2.25H10.5Z" fill="black"/>
</svg>
