<svg width="24" height="24" viewBox="0 0 24 24" fill="none" xmlns="http://www.w3.org/2000/svg">
<path d="M12 1.19531L11.4609 1.71094L6.96094 6.21094L8.03906 7.28906L11.25 4.07812V7.5H9V9H11.25V10.5469C8.2998 10.9219 6 13.4502 6 16.5C6 19.8047 8.69531 22.5 12 22.5C15.3047 22.5 18 19.8047 18 16.5C18 13.4502 15.7002 10.9219 12.75 10.5469V9H15V7.5H12.75V4.07812L15.9609 7.28906L17.0391 6.21094L12.5391 1.71094L12 1.19531ZM12 12C14.4932 12 16.5 14.0068 16.5 16.5C16.5 18.9932 14.4932 21 12 21C9.50684 21 7.5 18.9932 7.5 16.5C7.5 14.0068 9.50684 12 12 12Z" fill="black"/>
</svg>
