<svg width="24" height="24" viewBox="0 0 24 24" fill="none" xmlns="http://www.w3.org/2000/svg">
<path d="M7.5 6C4.19531 6 1.5 8.69531 1.5 12C1.5 15.3047 4.19531 18 7.5 18C10.5498 18 13.0781 15.7002 13.4531 12.75H15V15H16.5V12.75H19.9219L16.7109 15.9609L17.7891 17.0391L22.2891 12.5391L22.8047 12L22.2891 11.4609L17.7891 6.96094L16.7109 8.03906L19.9219 11.25H16.5V9H15V11.25H13.4531C13.0781 8.2998 10.5498 6 7.5 6ZM7.5 7.5C9.99316 7.5 12 9.50684 12 12C12 14.4932 9.99316 16.5 7.5 16.5C5.00684 16.5 3 14.4932 3 12C3 9.50684 5.00684 7.5 7.5 7.5Z" fill="black"/>
</svg>
