<svg width="24" height="24" viewBox="0 0 24 24" fill="none" xmlns="http://www.w3.org/2000/svg">
<path d="M12.022 5.25C8.30797 5.25 5.41327 6.04522 3.41602 7.61572C1.69702 8.96647 0.75 10.8541 0.75 12.9316C0.75 16.5526 3.47449 19.5 6.82324 19.5C8.37574 19.5 9.85271 18.6821 10.7827 17.2998L11.6162 15.999C11.7212 15.843 11.8652 15.7588 12.022 15.7588C12.178 15.7588 12.3229 15.8441 12.4189 15.9858L13.2715 17.3145C14.1925 18.6832 15.6697 19.5 17.2222 19.5C20.4899 19.5 23.25 16.4385 23.25 12.8145C23.25 10.7542 22.3121 8.89113 20.6104 7.56738C18.6326 6.03063 15.7435 5.25 12.022 5.25ZM12.022 6.75C15.355 6.75 18.0059 7.44223 19.6904 8.75098C21.3922 10.0747 21.75 11.6917 21.75 12.8145C21.75 15.5775 19.6349 18 17.2222 18C16.1699 18 15.1569 17.431 14.5239 16.4897L13.6714 15.1626C13.2904 14.5971 12.6745 14.2588 12.022 14.2588C11.3702 14.2588 10.7531 14.5953 10.3623 15.1758L9.52734 16.4766C8.88609 17.4306 7.87549 18 6.82324 18C4.08799 18 2.25 15.3789 2.25 12.9316C2.25 11.3244 2.99255 9.85542 4.3418 8.79492C6.0443 7.45692 8.70022 6.75 12.022 6.75ZM7.5 9C5.718 9 4.57597 10.098 4.05322 10.752C3.64897 11.2582 3.64897 11.9925 4.05322 12.498C4.57597 13.1528 5.71875 14.25 7.5 14.25C9.282 14.25 10.424 13.152 10.9468 12.498C11.351 11.9918 11.351 11.2575 10.9468 10.752C10.424 10.0972 9.28125 9 7.5 9ZM16.5 9C14.718 9 13.576 10.098 13.0532 10.752C12.649 11.2582 12.649 11.9925 13.0532 12.498C13.576 13.1528 14.7188 14.25 16.5 14.25C18.282 14.25 19.424 13.152 19.9468 12.498C20.351 11.9918 20.351 11.2575 19.9468 10.752C19.424 10.0972 18.2812 9 16.5 9ZM7.5 10.5C8.60025 10.5 9.34863 11.1772 9.72363 11.625C9.34938 12.0728 8.601 12.75 7.5 12.75C6.39975 12.75 5.65137 12.0728 5.27637 11.625C5.65062 11.1772 6.399 10.5 7.5 10.5ZM16.5 10.5C17.6003 10.5 18.3486 11.1772 18.7236 11.625C18.3494 12.0728 17.601 12.75 16.5 12.75C15.3997 12.75 14.6514 12.0728 14.2764 11.625C14.6506 11.1772 15.399 10.5 16.5 10.5Z" fill="black"/>
</svg>
