<svg width="24" height="24" viewBox="0 0 24 24" fill="none" xmlns="http://www.w3.org/2000/svg">
<path d="M0.810059 6.75L0.0600586 15.75H1.56592L1.9834 10.7285L3.9917 15.75H5.0083L7.0166 10.7285L7.43408 15.75H8.93994L8.18994 6.75H6.9917L4.5 12.9814L2.0083 6.75H0.810059ZM10.5 6.75V15.75H12C14.4762 15.75 16.5 13.7262 16.5 11.25C16.5 8.77378 14.4762 6.75 12 6.75H10.5ZM18 6.75V10.5V12V15.7588H21.3706C22.814 15.7588 24 14.5727 24 13.1294C24 12.177 23.4579 11.3732 22.6919 10.9116C23.0191 10.4738 23.25 9.95891 23.25 9.375C23.25 7.93411 22.0659 6.75 20.625 6.75H18ZM12 8.25C13.6653 8.25 15 9.58472 15 11.25C15 12.9153 13.6653 14.25 12 14.25V8.25ZM19.5 8.25H20.625C21.2556 8.25 21.75 8.74439 21.75 9.375C21.75 10.0056 21.2556 10.5 20.625 10.5H19.5V8.25ZM19.5 12H20.625H21.3706C22.0033 12 22.5 12.4967 22.5 13.1294C22.5 13.762 22.0033 14.2588 21.3706 14.2588H19.5V12Z" fill="black"/>
</svg>
