<svg width="24" height="24" viewBox="0 0 24 24" fill="none" xmlns="http://www.w3.org/2000/svg">
<path d="M5.25 2.25L8.44922 10.0195C6.53227 11.2117 5.25 13.3316 5.25 15.75C5.25 19.4715 8.27775 22.5 12 22.5C15.7222 22.5 18.75 19.4715 18.75 15.75C18.75 13.3316 17.4677 11.2117 15.5508 10.0195L18.75 2.25H17.1284L14.1943 9.37354C13.7014 9.2034 13.1857 9.08511 12.6489 9.03369L15.4409 2.25H13.8193L11.0054 9.08203C10.5919 9.14348 10.1913 9.24043 9.80566 9.37354L6.87158 2.25H5.25ZM8.55908 2.25L10.4648 6.88037L11.2764 4.91016L10.1807 2.25H8.55908ZM12 10.5C14.8942 10.5 17.25 12.855 17.25 15.75C17.25 18.645 14.8942 21 12 21C9.10575 21 6.75 18.645 6.75 15.75C6.75 12.855 9.10575 10.5 12 10.5ZM12 12.8716L11.124 14.8359L9 15.0688L10.5894 16.4971L10.1426 18.605L12 17.5327L13.8574 18.605L13.4106 16.4971L15 15.0688L12.876 14.8359L12 12.8716Z" fill="black"/>
</svg>
