<svg width="24" height="24" viewBox="0 0 24 24" fill="none" xmlns="http://www.w3.org/2000/svg">
<path d="M11.1401 2.25C5.80914 2.25 1.5 6.6105 1.5 12C1.5 17.3895 5.80914 21.75 11.1401 21.75C11.9179 21.75 12.6716 21.6598 13.3931 21.479C9.14807 20.7628 5.25 16.7887 5.25 12C5.25 7.21125 9.255 3.2365 13.5 2.521C12.7793 2.34025 11.9179 2.25 11.1401 2.25ZM13.1543 5.25C11.7884 5.2552 10.373 5.69968 9.15234 6.60498C9.09609 6.64473 9.048 6.68388 9 6.72363C11.4683 6.04938 14.217 6.87415 15.873 9.01465C17.2478 10.7989 17.5222 13.0575 16.8149 15C18.9937 12.8752 19.4112 9.61766 17.6675 7.35791C16.5866 5.96235 14.9105 5.24331 13.1543 5.25ZM20.3818 7.51904C20.7778 8.43329 21 9.44025 21 10.5C21 14.6423 17.6423 18 13.5 18C11.2935 18 9.31635 17.0409 7.94385 15.5244C8.16735 16.0299 8.53259 16.5795 8.85059 17.0303C11.2393 20.4593 15.9277 21.2794 19.3154 18.8584C22.7114 16.4374 23.5162 11.701 21.1274 8.27197C20.8717 7.90372 20.6503 7.73504 20.3818 7.51904ZM10.875 9C10.668 9 10.5 9.168 10.5 9.375V10.875C10.5 11.082 10.332 11.25 10.125 11.25H8.625C8.418 11.25 8.25 11.418 8.25 11.625V12.375C8.25 12.582 8.418 12.75 8.625 12.75H10.125C10.332 12.75 10.5 12.918 10.5 13.125V14.625C10.5 14.832 10.668 15 10.875 15H11.625C11.832 15 12 14.832 12 14.625V13.125C12 12.918 12.168 12.75 12.375 12.75H13.875C14.082 12.75 14.25 12.582 14.25 12.375V11.625C14.25 11.418 14.082 11.25 13.875 11.25H12.375C12.168 11.25 12 11.082 12 10.875V9.375C12 9.168 11.832 9 11.625 9H10.875Z" fill="black"/>
</svg>
