<svg width="24" height="24" viewBox="0 0 24 24" fill="none" xmlns="http://www.w3.org/2000/svg">
<g clip-path="url(#clip0_201_34366)">
<path d="M7.125 0.75C7.02554 0.75 6.93016 0.789509 6.85983 0.859835C6.78951 0.930161 6.75 1.02554 6.75 1.125C6.75 1.22446 6.78951 1.31984 6.85983 1.39017C6.93016 1.46049 7.02554 1.5 7.125 1.5C7.22446 1.5 7.31984 1.46049 7.39017 1.39017C7.46049 1.31984 7.5 1.22446 7.5 1.125C7.5 1.02554 7.46049 0.930161 7.39017 0.859835C7.31984 0.789509 7.22446 0.75 7.125 0.75ZM13.875 1.5C13.5766 1.5 13.2905 1.61853 13.0795 1.8295C12.8685 2.04048 12.75 2.32663 12.75 2.625C12.75 2.92337 12.8685 3.20952 13.0795 3.4205C13.2905 3.63147 13.5766 3.75 13.875 3.75C14.1734 3.75 14.4595 3.63147 14.6705 3.4205C14.8815 3.20952 15 2.92337 15 2.625C15 2.32663 14.8815 2.04048 14.6705 1.8295C14.4595 1.61853 14.1734 1.5 13.875 1.5ZM10.5 3.75C8.53725 3.75 6.87281 5.00897 6.25781 6.76172C4.44956 6.82472 3 8.301 3 10.125C3 10.6552 3.13331 11.1509 3.35156 11.5972C2.67131 12.2759 2.25 13.2135 2.25 14.25C2.25 16.0665 3.54207 17.581 5.25732 17.9253C5.25657 17.9508 5.25 17.9745 5.25 18C5.25 20.0707 6.92925 21.75 9 21.75C9.90975 21.75 10.7323 21.4133 11.3818 20.874C11.9248 21.4155 12.6735 21.75 13.5 21.75C14.901 21.75 16.0682 20.7851 16.3975 19.4868C18.5477 19.3451 20.25 17.5613 20.25 15.375C20.25 14.511 19.9838 13.7096 19.5293 13.0474C19.9733 12.5771 20.25 11.9475 20.25 11.25C20.25 10.1993 19.6286 9.29988 18.7368 8.87988C18.7421 8.79513 18.75 8.71125 18.75 8.625C18.75 6.3465 16.9035 4.5 14.625 4.5C14.1578 4.5 13.7105 4.58087 13.292 4.72412C12.5247 4.11587 11.5553 3.75 10.5 3.75ZM5.25 4.5C5.05109 4.5 4.86032 4.57902 4.71967 4.71967C4.57902 4.86032 4.5 5.05109 4.5 5.25C4.5 5.44891 4.57902 5.63968 4.71967 5.78033C4.86032 5.92098 5.05109 6 5.25 6C5.44891 6 5.63968 5.92098 5.78033 5.78033C5.92098 5.63968 6 5.44891 6 5.25C6 5.05109 5.92098 4.86032 5.78033 4.71967C5.63968 4.57902 5.44891 4.5 5.25 4.5ZM20.25 6.75C20.0511 6.75 19.8603 6.82902 19.7197 6.96967C19.579 7.11032 19.5 7.30109 19.5 7.5C19.5 7.69891 19.579 7.88968 19.7197 8.03033C19.8603 8.17098 20.0511 8.25 20.25 8.25C20.4489 8.25 20.6397 8.17098 20.7803 8.03033C20.921 7.88968 21 7.69891 21 7.5C21 7.30109 20.921 7.11032 20.7803 6.96967C20.6397 6.82902 20.4489 6.75 20.25 6.75ZM12.7544 7.49414C12.8641 7.4843 12.986 7.48993 13.1279 7.51318C13.5112 7.56868 13.7334 7.83116 14.0244 8.10791C14.2599 8.34791 14.4307 8.19984 14.5649 8.12109C14.7727 8.00109 14.935 7.89591 15.5537 7.91016C16.2002 7.92366 16.9394 8.15957 17.0962 9.26807C17.2672 10.5108 15.1051 13.7019 15.2476 15.1802C15.3488 16.2197 17.0958 15.4794 17.2383 16.4312C17.4243 17.6679 15.0644 17.2071 14.5371 16.9438C13.6919 16.5186 13.175 15.557 13.3872 14.606C13.5627 13.895 15.1186 10.9899 15.1831 10.5557C15.2386 10.0937 14.9997 10.0518 14.8564 10.0518C14.6577 10.0383 14.5147 10.1314 14.3159 10.4224C14.1449 10.6856 12.2039 14.6342 12.0337 14.9619C11.4929 16.0059 10.0935 15.8348 10.251 14.7773C10.2922 14.4631 11.5344 11.6377 11.5854 11.1899C11.6267 10.9267 11.5726 10.6345 11.3086 10.4912C11.0453 10.357 10.727 10.5703 10.6348 10.7271C10.5005 10.9536 8.75898 15.5867 8.57373 15.9287C8.24598 16.5197 7.91264 16.7052 7.40039 16.7329C6.19964 16.8019 5.30003 15.7847 5.69678 14.5562C5.86778 14.0019 7.02608 9.83559 7.62158 8.77734C8.01908 8.06634 9.11419 7.52674 9.86719 7.85449C10.2647 8.02549 10.8193 8.30162 10.9761 8.38037C11.3458 8.55587 11.7414 8.09346 11.8989 7.95996C12.2072 7.69334 12.4254 7.52367 12.7544 7.49414ZM22.875 9.75C22.7755 9.75 22.6802 9.78951 22.6098 9.85983C22.5395 9.93016 22.5 10.0255 22.5 10.125C22.5 10.2245 22.5395 10.3198 22.6098 10.3902C22.6802 10.4605 22.7755 10.5 22.875 10.5C22.9745 10.5 23.0698 10.4605 23.1402 10.3902C23.2105 10.3198 23.25 10.2245 23.25 10.125C23.25 10.0255 23.2105 9.93016 23.1402 9.85983C23.0698 9.78951 22.9745 9.75 22.875 9.75ZM1.125 10.5C0.826631 10.5 0.540483 10.6185 0.329505 10.8295C0.118526 11.0405 0 11.3266 0 11.625C0 11.9234 0.118526 12.2095 0.329505 12.4205C0.540483 12.6315 0.826631 12.75 1.125 12.75C1.42337 12.75 1.70952 12.6315 1.9205 12.4205C2.13147 12.2095 2.25 11.9234 2.25 11.625C2.25 11.3266 2.13147 11.0405 1.9205 10.8295C1.70952 10.6185 1.42337 10.5 1.125 10.5ZM21.75 12C21.5511 12 21.3603 12.079 21.2197 12.2197C21.079 12.3603 21 12.5511 21 12.75C21 12.9489 21.079 13.1397 21.2197 13.2803C21.3603 13.421 21.5511 13.5 21.75 13.5C21.9489 13.5 22.1397 13.421 22.2803 13.2803C22.421 13.1397 22.5 12.9489 22.5 12.75C22.5 12.5511 22.421 12.3603 22.2803 12.2197C22.1397 12.079 21.9489 12 21.75 12ZM4.125 18.75C4.02554 18.75 3.93016 18.7895 3.85984 18.8598C3.78951 18.9302 3.75 19.0255 3.75 19.125C3.75 19.2245 3.78951 19.3198 3.85984 19.3902C3.93016 19.4605 4.02554 19.5 4.125 19.5C4.22446 19.5 4.31984 19.4605 4.39016 19.3902C4.46049 19.3198 4.5 19.2245 4.5 19.125C4.5 19.0255 4.46049 18.9302 4.39016 18.8598C4.31984 18.7895 4.22446 18.75 4.125 18.75ZM17.625 20.25C17.3266 20.25 17.0405 20.3685 16.8295 20.5795C16.6185 20.7905 16.5 21.0766 16.5 21.375C16.5 21.6734 16.6185 21.9595 16.8295 22.1705C17.0405 22.3815 17.3266 22.5 17.625 22.5C17.9234 22.5 18.2095 22.3815 18.4205 22.1705C18.6315 21.9595 18.75 21.6734 18.75 21.375C18.75 21.0766 18.6315 20.7905 18.4205 20.5795C18.2095 20.3685 17.9234 20.25 17.625 20.25ZM11.25 21.75C11.0511 21.75 10.8603 21.829 10.7197 21.9697C10.579 22.1103 10.5 22.3011 10.5 22.5C10.5 22.6989 10.579 22.8897 10.7197 23.0303C10.8603 23.171 11.0511 23.25 11.25 23.25C11.4489 23.25 11.6397 23.171 11.7803 23.0303C11.921 22.8897 12 22.6989 12 22.5C12 22.3011 11.921 22.1103 11.7803 21.9697C11.6397 21.829 11.4489 21.75 11.25 21.75Z" fill="black"/>
</g>
<defs>
<clipPath id="clip0_201_34366">
<rect width="24" height="24" fill="white"/>
</clipPath>
</defs>
</svg>
