<svg width="24" height="24" viewBox="0 0 24 24" fill="none" xmlns="http://www.w3.org/2000/svg">
<path d="M12 2.25C6.624 2.25 2.25 6.624 2.25 12C2.25 17.376 6.624 21.75 12 21.75C17.376 21.75 21.75 17.376 21.75 12C21.75 6.624 17.376 2.25 12 2.25ZM12 3.75C16.5487 3.75 20.25 7.45125 20.25 12C20.25 16.5487 16.5487 20.25 12 20.25C7.45125 20.25 3.75 16.5487 3.75 12C3.75 7.45125 7.45125 3.75 12 3.75ZM12 5.25L11.25 6V8.00391L9.75 9.50391V11.7803L7.5 13.5791V14.6895V16.5L8.25 17.25L9 16.5V14.6895V14.2998L10.125 13.3989L11.25 14.2998V16.5L12 17.25L12.75 16.5V14.6895V14.2998L13.875 13.3989L15 14.2998V16.5L15.75 17.25L16.5 16.5V14.6895V13.5791L14.25 11.7803V9.50391L12.75 8.00391V6L12 5.25ZM12 9.375L12.75 10.125V12.1289L12 12.8789L11.25 12.1289V10.125L12 9.375Z" fill="black"/>
</svg>
