<svg width="24" height="24" viewBox="0 0 24 24" fill="none" xmlns="http://www.w3.org/2000/svg">
<g clip-path="url(#clip0_201_34384)">
<path d="M7.24365 5.40088C4.53465 5.37088 3.15309 8.12448 3.99609 10.2612C4.44909 12.6357 4.01038 13.8954 2.40088 13.9321C1.61337 13.8466 1.02541 14.1738 0.43066 14.7686C-0.30884 15.5006 -0.286094 18.2913 2.01416 18.5815C3.76466 18.8005 4.98431 16.8913 4.28906 15.3193C2.53106 11.4658 11.3048 11.3764 9.84082 15.0146C9.83707 15.0184 9.83285 15.0218 9.8291 15.0293C8.8331 16.62 10.0826 18.6501 12.0146 18.5684C13.9504 18.6464 15.1872 16.6125 14.1987 15.0293C14.195 15.0218 14.1922 15.0184 14.1885 15.0146C12.7245 11.3764 21.4975 11.4658 19.7402 15.3193C19.5692 15.6906 19.4903 16.1104 19.5278 16.5454C19.7101 18.5299 22.0817 19.2995 23.4272 17.8535C24.0895 17.303 24.2852 15.416 23.4272 14.5723C22.9705 14.1118 22.3244 13.8579 21.6299 13.9321C20.0211 13.8946 19.5502 12.6357 20.0039 10.2612C20.8514 8.12448 19.4511 5.37463 16.7563 5.40088C13.8801 5.42713 13.8431 8.44775 12.0146 8.44775C10.2274 8.44775 10.1011 5.42713 7.24365 5.40088ZM12.0044 9.19482H12.0264C13.3156 9.19482 14.3599 10.2383 14.3599 11.5283C14.3599 12.4576 13.6464 13.8618 12.0264 13.8618H12.0044C10.3919 13.8618 9.66943 12.4688 9.66943 11.5283C9.66943 10.2391 10.7181 9.19482 12.0044 9.19482Z" fill="black"/>
</g>
<defs>
<clipPath id="clip0_201_34384">
<rect width="24" height="24" fill="white"/>
</clipPath>
</defs>
</svg>
