<svg width="24" height="24" viewBox="0 0 24 24" fill="none" xmlns="http://www.w3.org/2000/svg">
<path d="M3 3.75C3 3.75 2.25 5.26172 2.25 6C2.25 6.41309 2.58691 6.75 3 6.75C3.41309 6.75 3.75 6.41309 3.75 6C3.75 5.29688 3 3.75 3 3.75ZM6 3.75C6 3.75 5.25 5.26172 5.25 6C5.25 6.41309 5.58691 6.75 6 6.75C6.41309 6.75 6.75 6.41309 6.75 6C6.75 5.29688 6 3.75 6 3.75ZM9 3.75C9 3.75 8.25 5.26172 8.25 6C8.25 6.41309 8.58691 6.75 9 6.75C9.41309 6.75 9.75 6.41309 9.75 6C9.75 5.29688 9 3.75 9 3.75ZM12 3.75C12 3.75 11.25 5.26172 11.25 6C11.25 6.41309 11.5869 6.75 12 6.75C12.4131 6.75 12.75 6.41309 12.75 6C12.75 5.29688 12 3.75 12 3.75ZM15 3.75C15 3.75 14.25 5.26172 14.25 6C14.25 6.41309 14.5869 6.75 15 6.75C15.4131 6.75 15.75 6.41309 15.75 6C15.75 5.29688 15 3.75 15 3.75ZM18 3.75C18 3.75 17.25 5.26172 17.25 6C17.25 6.41309 17.5869 6.75 18 6.75C18.4131 6.75 18.75 6.41309 18.75 6C18.75 5.29688 18 3.75 18 3.75ZM21 3.75C21 3.75 20.25 5.26172 20.25 6C20.25 6.41309 20.5869 6.75 21 6.75C21.4131 6.75 21.75 6.41309 21.75 6C21.75 5.29688 21 3.75 21 3.75ZM2.25 7.5C2.25 12.6035 6.24023 16.8105 11.25 17.2031V18.75H7.5V20.25H16.5V18.75H12.75V17.2031C17.7598 16.8105 21.75 12.6035 21.75 7.5H20.25C20.25 11.7891 16.9424 15.3223 12.75 15.7031V14.2031C16.1074 13.8223 18.75 10.9541 18.75 7.5H17.25C17.25 10.1367 15.2871 12.3135 12.75 12.6797V11.1797C14.4521 10.8281 15.75 9.30176 15.75 7.5H14.25C14.25 8.47559 13.6172 9.2959 12.75 9.60938V7.5H11.25V9.60938C10.3828 9.2959 9.75 8.47559 9.75 7.5H8.25C8.25 9.30176 9.54785 10.8281 11.25 11.1797V12.6797C8.71289 12.3135 6.75 10.1367 6.75 7.5H5.25C5.25 10.9541 7.89258 13.8223 11.25 14.2031V15.7031C7.05762 15.3223 3.75 11.7891 3.75 7.5H2.25Z" fill="black"/>
</svg>
