<svg width="24" height="24" viewBox="0 0 24 24" fill="none" xmlns="http://www.w3.org/2000/svg">
<path d="M15.75 3C13.0664 3 10.8516 5.03613 10.5469 7.64062L4.5 16.1953L4.14844 16.7109L4.57031 17.1562L5.17969 17.7656L3.21094 19.7109L4.28906 20.7891L6.21094 18.8438L7.24219 19.875L7.78125 19.5L16.3828 13.4531C18.9785 13.1396 21 10.9277 21 8.25C21 5.3584 18.6416 3 15.75 3ZM15.75 4.5C17.8301 4.5 19.5 6.16992 19.5 8.25C19.5 9.01172 19.2773 9.72363 18.8906 10.3125L13.6875 5.10938C14.2764 4.72266 14.9883 4.5 15.75 4.5ZM12.6094 6.1875L17.8125 11.3906C17.2236 11.7773 16.5117 12 15.75 12C13.6699 12 12 10.3301 12 8.25C12 7.48828 12.2227 6.77637 12.6094 6.1875ZM10.7812 9.89062C11.3027 11.4463 12.5303 12.6914 14.0859 13.2188L7.42969 17.9297L6.09375 16.5469L10.7812 9.89062Z" fill="black"/>
</svg>
