<svg width="24" height="24" viewBox="0 0 24 24" fill="none" xmlns="http://www.w3.org/2000/svg">
<path d="M5.25 4.5V6H2.25V19.5H5.25V21H6.75V19.5H8.25V21H9.75V19.5H11.25V21H12.75V19.5H14.25V21H15.75V19.5H17.25V21H18.75V19.5H21.75V6H18.75V4.5H17.25V6H15.75V4.5H14.25V6H12.75V4.5H11.25V6H9.75V4.5H8.25V6H6.75V4.5H5.25ZM3.75 7.5H20.25V18H3.75V7.5ZM6 9C5.58691 9 5.25 9.33691 5.25 9.75C5.25 10.1631 5.58691 10.5 6 10.5C6.41309 10.5 6.75 10.1631 6.75 9.75C6.75 9.33691 6.41309 9 6 9ZM9 9C8.58691 9 8.25 9.33691 8.25 9.75C8.25 10.1631 8.58691 10.5 9 10.5C9.41309 10.5 9.75 10.1631 9.75 9.75C9.75 9.33691 9.41309 9 9 9ZM12 9C11.5869 9 11.25 9.33691 11.25 9.75C11.25 10.1631 11.5869 10.5 12 10.5C12.4131 10.5 12.75 10.1631 12.75 9.75C12.75 9.33691 12.4131 9 12 9ZM15 9C14.5869 9 14.25 9.33691 14.25 9.75C14.25 10.1631 14.5869 10.5 15 10.5C15.4131 10.5 15.75 10.1631 15.75 9.75C15.75 9.33691 15.4131 9 15 9ZM18 9C17.5869 9 17.25 9.33691 17.25 9.75C17.25 10.1631 17.5869 10.5 18 10.5C18.4131 10.5 18.75 10.1631 18.75 9.75C18.75 9.33691 18.4131 9 18 9ZM6 12C5.58691 12 5.25 12.3369 5.25 12.75C5.25 13.1631 5.58691 13.5 6 13.5C6.41309 13.5 6.75 13.1631 6.75 12.75C6.75 12.3369 6.41309 12 6 12ZM18 12C17.5869 12 17.25 12.3369 17.25 12.75C17.25 13.1631 17.5869 13.5 18 13.5C18.4131 13.5 18.75 13.1631 18.75 12.75C18.75 12.3369 18.4131 12 18 12ZM6 15C5.58691 15 5.25 15.3369 5.25 15.75C5.25 16.1631 5.58691 16.5 6 16.5C6.41309 16.5 6.75 16.1631 6.75 15.75C6.75 15.3369 6.41309 15 6 15ZM9 15C8.58691 15 8.25 15.3369 8.25 15.75C8.25 16.1631 8.58691 16.5 9 16.5C9.41309 16.5 9.75 16.1631 9.75 15.75C9.75 15.3369 9.41309 15 9 15ZM12 15C11.5869 15 11.25 15.3369 11.25 15.75C11.25 16.1631 11.5869 16.5 12 16.5C12.4131 16.5 12.75 16.1631 12.75 15.75C12.75 15.3369 12.4131 15 12 15ZM15 15C14.5869 15 14.25 15.3369 14.25 15.75C14.25 16.1631 14.5869 16.5 15 16.5C15.4131 16.5 15.75 16.1631 15.75 15.75C15.75 15.3369 15.4131 15 15 15ZM18 15C17.5869 15 17.25 15.3369 17.25 15.75C17.25 16.1631 17.5869 16.5 18 16.5C18.4131 16.5 18.75 16.1631 18.75 15.75C18.75 15.3369 18.4131 15 18 15Z" fill="black"/>
</svg>
