<svg width="24" height="24" viewBox="0 0 24 24" fill="none" xmlns="http://www.w3.org/2000/svg">
<path d="M2.79053 1.70947L1.70947 2.79053L8.896 9.97705L9.9668 11.0464L12.9463 14.0259L14.0273 15.1084L21.2095 22.2905L22.2905 21.2095L15.2974 14.2163L16.3828 13.4531C18.9793 13.1404 21 10.9275 21 8.25C21 5.35875 18.6413 3 15.75 3C13.0665 3 10.8521 5.03587 10.5469 7.64062L9.79102 8.70996L2.79053 1.70947ZM15.75 4.5C17.8298 4.5 19.5 6.17025 19.5 8.25C19.5 9.012 19.2776 9.72375 18.8906 10.3125L13.6875 5.10938C14.2762 4.72237 14.988 4.5 15.75 4.5ZM12.6094 6.1875L17.8125 11.3906C17.2238 11.7769 16.512 12 15.75 12C13.6702 12 12 10.3298 12 8.25C12 7.488 12.2231 6.77625 12.6094 6.1875ZM8.04199 11.1841L4.5 16.1953L4.14844 16.7109L4.57031 17.1562L5.17969 17.7656L3.21094 19.7109L4.28906 20.7891L6.21094 18.8438L7.24219 19.875L7.78125 19.5L12.8174 15.9595L11.7378 14.8813L7.42969 17.9297L6.09375 16.5469L9.11426 12.2578L8.04199 11.1841Z" fill="black"/>
</svg>
