<svg width="24" height="24" viewBox="0 0 24 24" fill="none" xmlns="http://www.w3.org/2000/svg">
<path d="M14.25 2.25C10.9541 2.25 8.24999 4.9541 8.24999 8.25V10.2188C6.958 9.46289 5.27929 9.71777 4.35937 10.9453C3.36913 12.2637 3.62694 14.1533 4.9453 15.1406V15.1641H4.96874L8.99999 18.1172V21.75H19.5V17.7891C19.5146 17.7598 19.5293 17.7334 19.5469 17.6953C19.6318 17.5254 19.7226 17.2852 19.8281 16.9688C20.0391 16.3389 20.25 15.4277 20.25 14.25V8.25C20.25 4.9541 17.5459 2.25 14.25 2.25ZM14.25 3.75C16.7285 3.75 18.75 5.77148 18.75 8.25V14.25C18.75 15.2578 18.5859 16.0078 18.4219 16.5C18.3398 16.7461 18.2432 16.9248 18.1875 17.0391C18.1582 17.0947 18.1553 17.1328 18.1406 17.1562C18.1348 17.168 18.1201 17.1768 18.1172 17.1797L18.2344 17.25H10.3828L10.1953 17.1094L5.85937 13.9453C5.18847 13.4443 5.0537 12.5273 5.55468 11.8594C6.05858 11.1885 6.97265 11.0537 7.64062 11.5547H7.66405L8.57812 12.1875L9.74999 13.0078V8.25C9.74999 5.77148 11.7715 3.75 14.25 3.75ZM10.5 18.75H18V20.25H10.5V18.75Z" fill="black"/>
</svg>
