<svg width="24" height="24" viewBox="0 0 24 24" fill="none" xmlns="http://www.w3.org/2000/svg">
<path d="M3.75 3.75V18.75C3.75 19.9905 4.7595 21 6 21C7.2405 21 8.25 19.9905 8.25 18.75V9.75C8.25 9.336 8.586 9 9 9C9.414 9 9.75 9.336 9.75 9.75V15.75C9.75 16.9905 10.7595 18 12 18C13.2405 18 14.25 16.9905 14.25 15.75V11.25C14.25 10.836 14.586 10.5 15 10.5C15.414 10.5 15.75 10.836 15.75 11.25V12.75C15.75 13.9905 16.7595 15 18 15C19.2405 15 20.25 13.9905 20.25 12.75V3.75H3.75ZM5.25 5.25H18.75V12.75C18.75 13.164 18.414 13.5 18 13.5C17.586 13.5 17.25 13.164 17.25 12.75V11.25C17.25 10.0095 16.2405 9 15 9C13.7595 9 12.75 10.0095 12.75 11.25V15.75C12.75 16.164 12.414 16.5 12 16.5C11.586 16.5 11.25 16.164 11.25 15.75V9.75C11.25 8.5095 10.2405 7.5 9 7.5C7.7595 7.5 6.75 8.5095 6.75 9.75V18.75C6.75 19.164 6.414 19.5 6 19.5C5.586 19.5 5.25 19.164 5.25 18.75V5.25Z" fill="black"/>
</svg>
