<svg width="24" height="24" viewBox="0 0 24 24" fill="none" xmlns="http://www.w3.org/2000/svg">
<path d="M9.63428 4.5C6.91628 4.5 4.5056 6.24799 3.6416 8.79199C1.5851 9.09274 0 10.8556 0 12.9946C0 15.3361 1.90762 17.25 4.26562 17.25H15.1758C17.1423 17.25 18.75 15.6511 18.75 13.6846C18.75 11.9813 17.5407 10.5557 15.9492 10.21C15.6335 7.01346 12.9238 4.5 9.63428 4.5ZM9.63721 6C12.2885 6 14.439 8.17384 14.439 10.8296C14.439 11.3501 14.3556 11.8633 14.1958 12.353C13.8538 13.409 15.4272 13.8447 15.731 12.8569C15.8375 12.5434 15.9209 12.215 15.9741 11.8857C16.7114 12.1685 17.25 12.8874 17.25 13.7446C17.25 14.8464 16.3539 15.75 15.2446 15.75H4.2041C2.71535 15.75 1.5 14.5415 1.5 13.0415C1.5 11.5415 2.71535 10.3315 4.2041 10.3315C4.9181 10.3315 5.59475 10.6162 6.104 11.1284C6.86375 11.8934 8.01969 10.7371 7.25244 9.96387C6.69819 9.41262 6.01379 9.03012 5.26904 8.83887C6.02879 7.13937 7.73746 6 9.63721 6ZM22.1016 9.00586C21.5193 8.92866 20.8995 9.59304 21.3354 10.2275C22.0494 11.3015 22.4399 12.5677 22.4399 13.8779C22.4399 15.1807 22.0494 16.4541 21.3354 17.5356C20.9747 18.0584 21.3718 18.75 21.9756 18.75C22.2336 18.75 22.4773 18.6248 22.6318 18.4043C23.5296 17.0648 24 15.4972 24 13.8779C24 12.2512 23.5289 10.6834 22.6304 9.35889C22.4851 9.13989 22.2956 9.03159 22.1016 9.00586ZM19.8574 10.2759C19.2709 10.1996 18.6554 10.8581 19.0913 11.4932C19.5766 12.1997 19.8193 13.0244 19.8193 13.8779C19.8193 14.7322 19.5773 15.5489 19.0913 16.2554C18.7381 16.7706 19.1058 17.4697 19.7388 17.4697C19.996 17.4697 20.2391 17.3592 20.3936 17.1387C21.0483 16.1674 21.3809 15.0404 21.3809 13.8779C21.3809 12.7079 21.0483 11.5822 20.3936 10.626C20.2445 10.4089 20.0529 10.3013 19.8574 10.2759Z" fill="black"/>
</svg>
