<svg width="24" height="24" viewBox="0 0 24 24" fill="none" xmlns="http://www.w3.org/2000/svg">
<path d="M12 2.25C6.624 2.25 2.25 6.624 2.25 12C2.25 17.376 6.624 21.75 12 21.75C17.376 21.75 21.75 17.376 21.75 12C21.75 6.624 17.376 2.25 12 2.25ZM12 3.75C16.5487 3.75 20.25 7.45125 20.25 12C20.25 16.5487 16.5487 20.25 12 20.25C7.45125 20.25 3.75 16.5487 3.75 12C3.75 7.45125 7.45125 3.75 12 3.75ZM8.625 7.5C8.0025 7.5 7.5 8.0025 7.5 8.625V16.5C8.0925 15.915 8.865 15.4419 9.75 15.1494V8.625C9.75 8.0025 9.2475 7.5 8.625 7.5ZM12 7.5C11.3775 7.5 10.875 8.0025 10.875 8.625V14.8726C11.2425 14.8126 11.6173 14.7832 12.0073 14.7832C12.3898 14.7832 12.7575 14.8126 13.125 14.8726V8.625C13.125 8.0025 12.6225 7.5 12 7.5ZM15.375 7.5C14.7525 7.5 14.25 8.0025 14.25 8.625V15.1421C15.135 15.4421 15.9075 15.9077 16.5 16.4927V8.625C16.5 8.0025 15.9975 7.5 15.375 7.5Z" fill="black"/>
</svg>
