<svg width="24" height="24" viewBox="0 0 24 24" fill="none" xmlns="http://www.w3.org/2000/svg">
<path d="M1.5 5.25V18.75H22.5V5.25H1.5ZM3 6.75H21V17.25H3V6.75ZM4.5 8.25V9.75H12V8.25H4.5ZM15 8.25V12H19.5V8.25H15ZM4.5 10.5V12H9.75V10.5H4.5ZM6.375 12.75C5.92125 12.75 5.60213 13.0082 5.39062 13.2422C5.17987 13.4769 5.02444 13.7374 4.89844 14.0156C4.64644 14.5759 4.5 15.1785 4.5 15.75H6C6 15.51 6.117 14.988 6.28125 14.625C6.32775 14.5192 6.37537 14.4838 6.42188 14.4141C6.47738 14.4906 6.51844 14.5397 6.58594 14.6484C6.69469 14.8239 6.81469 15.0356 6.96094 15.2344C7.10719 15.4339 7.28606 15.7614 7.85156 15.7734C8.29706 15.7824 8.43412 15.6214 8.57812 15.5156C8.72137 15.4099 8.82094 15.3107 8.92969 15.2109C9.00319 15.1434 9.06169 15.0941 9.11719 15.0469C9.13744 15.0761 9.22103 15.1254 9.63428 15.3047C10.1345 15.5237 10.8923 15.75 12 15.75V14.25C11.0775 14.25 10.5969 14.1006 10.2422 13.9453C9.88744 13.7901 9.618 13.5 9 13.5C8.5485 13.5 8.43488 13.6755 8.29688 13.7812C8.17387 13.875 8.08894 13.9747 7.99219 14.0625C7.94794 13.992 7.9275 13.9567 7.875 13.875C7.749 13.6702 7.59956 13.4385 7.38281 13.2188C7.16606 12.999 6.8235 12.75 6.375 12.75ZM15 14.25V15.75H19.5V14.25H15Z" fill="black"/>
</svg>
