<svg width="24" height="24" viewBox="0 0 24 24" fill="none" xmlns="http://www.w3.org/2000/svg">
<path d="M1.5 5.25V18H22.5V5.25H1.5ZM4.5 6.75H19.5C19.5 7.57875 20.1712 8.25 21 8.25V15C20.1712 15 19.5 15.6713 19.5 16.5H4.5C4.5 15.6713 3.82875 15 3 15V8.25C3.82875 8.25 4.5 7.57875 4.5 6.75ZM12 8.25C10.3418 8.25 9 9.762 9 11.625C9 13.488 10.3418 15 12 15C13.6582 15 15 13.488 15 11.625C15 9.762 13.6582 8.25 12 8.25ZM12 9.75C12.8265 9.75 13.5 10.5908 13.5 11.625C13.5 12.6592 12.8265 13.5 12 13.5C11.1735 13.5 10.5 12.6592 10.5 11.625C10.5 10.5908 11.1735 9.75 12 9.75ZM6.375 10.5C5.754 10.5 5.25 11.004 5.25 11.625C5.25 12.246 5.754 12.75 6.375 12.75C6.996 12.75 7.5 12.246 7.5 11.625C7.5 11.004 6.996 10.5 6.375 10.5ZM17.625 10.5C17.004 10.5 16.5 11.004 16.5 11.625C16.5 12.246 17.004 12.75 17.625 12.75C18.246 12.75 18.75 12.246 18.75 11.625C18.75 11.004 18.246 10.5 17.625 10.5Z" fill="black"/>
</svg>
