<svg width="24" height="24" viewBox="0 0 24 24" fill="none" xmlns="http://www.w3.org/2000/svg">
<path d="M17.1401 4.50588C15.1231 4.56123 13.5591 5.10927 12.0366 5.6382C10.4084 6.2037 8.87118 6.73706 6.74268 6.75881C5.31993 6.78131 3.89488 6.53579 2.49463 6.05129L1.5 5.70705V18.5186L1.99951 18.6958C3.30376 19.1571 4.63734 19.4231 5.96484 19.4868C6.17559 19.4966 6.38197 19.5015 6.58447 19.5015C8.84422 19.5015 10.5742 18.902 12.252 18.3223C14.0205 17.7103 15.6886 17.1325 17.9648 17.2398C19.1453 17.296 20.334 17.5348 21.4995 17.9473L22.5 18.3018V5.48586L22.0063 5.30568C20.7126 4.83693 19.3762 4.57095 18.0337 4.5132C17.7258 4.49952 17.4283 4.49797 17.1401 4.50588ZM17.1812 5.99562C17.4353 5.98776 17.6968 5.98787 17.9678 5.99855C18.2482 6.01072 18.5289 6.03614 18.8086 6.06887C19.0087 6.88915 19.743 7.50002 20.625 7.50002C20.7533 7.50002 20.8785 7.48593 21 7.46193V14.2881C20.8785 14.2641 20.7533 14.25 20.625 14.25C19.6982 14.25 18.9338 14.9236 18.7822 15.8071C18.5332 15.7811 18.2839 15.7634 18.0352 15.7515C15.4739 15.639 13.5853 16.283 11.7598 16.916C9.98902 17.5295 8.31137 18.1095 6.03662 18.0015C5.75475 17.9879 5.47239 17.9609 5.18994 17.9268C4.98823 17.1088 4.25539 16.5 3.375 16.5C3.24675 16.5 3.1215 16.5141 3 16.5381V9.71193C3.1215 9.73593 3.24675 9.75002 3.375 9.75002C4.30836 9.75002 5.07537 9.06653 5.21924 8.17385C5.73292 8.22755 6.24711 8.25861 6.75879 8.25002C9.13254 8.22602 10.8586 7.62495 12.5288 7.04445C13.9995 6.53258 15.4018 6.05071 17.1812 5.99562ZM12 8.25002C10.3455 8.25002 9 9.93227 9 12C9 14.0678 10.3455 15.75 12 15.75C13.6545 15.75 15 14.0678 15 12C15 9.93227 13.6545 8.25002 12 8.25002ZM12 9.75002C12.813 9.75002 13.5 10.7805 13.5 12C13.5 13.2195 12.813 14.25 12 14.25C11.187 14.25 10.5 13.2195 10.5 12C10.5 10.7805 11.187 9.75002 12 9.75002ZM17.625 9.75002C17.3266 9.75002 17.0405 9.86855 16.8295 10.0795C16.6185 10.2905 16.5 10.5767 16.5 10.875C16.5 11.1734 16.6185 11.4595 16.8295 11.6705C17.0405 11.8815 17.3266 12 17.625 12C17.9234 12 18.2095 11.8815 18.4205 11.6705C18.6315 11.4595 18.75 11.1734 18.75 10.875C18.75 10.5767 18.6315 10.2905 18.4205 10.0795C18.2095 9.86855 17.9234 9.75002 17.625 9.75002ZM6.375 12C6.07663 12 5.79048 12.1185 5.5795 12.3295C5.36853 12.5405 5.25 12.8266 5.25 13.125C5.25 13.4234 5.36853 13.7095 5.5795 13.9205C5.79048 14.1315 6.07663 14.25 6.375 14.25C6.67337 14.25 6.95952 14.1315 7.1705 13.9205C7.38147 13.7095 7.5 13.4234 7.5 13.125C7.5 12.8266 7.38147 12.5405 7.1705 12.3295C6.95952 12.1185 6.67337 12 6.375 12Z" fill="black"/>
</svg>
