<svg width="24" height="24" viewBox="0 0 24 24" fill="none" xmlns="http://www.w3.org/2000/svg">
<path d="M12 2.25C6.624 2.25 2.25 6.624 2.25 12C2.25 17.376 6.624 21.75 12 21.75C17.376 21.75 21.75 17.376 21.75 12C21.75 6.624 17.376 2.25 12 2.25ZM12 3.75C16.5487 3.75 20.25 7.45125 20.25 12C20.25 12.7807 20.1328 13.5337 19.9292 14.25H16.5V8.23242L12 12.9463L7.5 8.23242V14.25H4.0708C3.86719 13.5337 3.75 12.7807 3.75 12C3.75 7.45125 7.45125 3.75 12 3.75ZM9 11.9766L12 15.1172L15 11.9766V15.75H19.3389C17.9703 18.4169 15.1978 20.25 12 20.25C8.80224 20.25 6.02975 18.4169 4.66113 15.75H9V11.9766Z" fill="black"/>
</svg>
