<svg width="24" height="24" viewBox="0 0 24 24" fill="none" xmlns="http://www.w3.org/2000/svg">
<path d="M16.8047 2.24995C16.1689 2.27925 15.5098 2.74214 15.2109 3.4687V3.49214H15.1875C14.8711 4.33296 14.4258 5.21187 13.9219 6.07027C13.3037 6.02046 12.6621 5.99995 12 5.99995C9.64746 5.99995 7.51465 6.32808 5.90625 6.91402C5.10352 7.20699 4.43262 7.56734 3.91406 8.01558C3.45703 8.40816 3.12598 8.92671 3.04687 9.51558C3.02344 9.5771 3.00879 9.63863 3 9.70308C2.99707 9.74117 2.99707 9.78218 3 9.82027C3 10.0341 3 10.3154 3.02344 10.664C3.02637 10.6875 3.02051 10.7109 3.02344 10.7343C3.03516 10.9043 3.07031 11.0771 3.09375 11.2734C3.11719 11.458 3.13477 11.6367 3.16406 11.8125C3.31934 12.8261 3.62402 14.0302 4.24219 15.2109C4.67871 16.0459 5.28223 16.8662 6.09375 17.5546C6.11719 17.5781 6.20801 17.6923 6.21094 17.6953C6.97266 18.457 8.48145 19.2626 10.8984 19.4531C11.0068 19.4619 11.1152 19.4707 11.2266 19.4765C11.4756 19.4912 11.7305 19.5 12 19.5C12.3838 19.5 12.7559 19.4853 13.1016 19.4531C13.1572 19.4472 13.21 19.4355 13.2656 19.4296C13.5059 19.4033 13.7256 19.374 13.9453 19.3359C13.9834 19.33 14.0244 19.3183 14.0625 19.3125C14.1035 19.3037 14.1387 19.2978 14.1797 19.289C14.7334 19.1777 15.2314 19.0312 15.7031 18.8437C16.0195 18.7236 16.2715 18.5976 16.5234 18.4687C16.6436 18.4043 16.7607 18.3486 16.875 18.2812C17.2031 18.0937 17.4727 17.9296 17.6719 17.789C17.9971 17.5576 18.791 16.9013 19.5703 15.5859C20.2559 14.4257 20.8711 12.7734 20.9766 10.664C21 10.3037 21 10.0136 21 9.79683C21 9.78218 21 9.76753 21 9.74995C21 9.74117 21 9.73531 21 9.72652C21 9.71187 21 9.69429 21 9.67964C21 9.6562 20.9795 9.63277 20.9766 9.60933C20.9766 9.58589 20.9766 9.56245 20.9766 9.53902C20.8887 8.79195 20.3672 8.1855 19.7109 7.73433C19.2422 7.41206 18.668 7.14253 18.0234 6.91402C18.2578 6.62691 18.4893 6.3398 18.75 6.07027C18.7734 6.04683 18.7969 6.02339 18.8203 5.99995L18.7969 5.97652C19.3506 5.47554 19.5967 4.73433 19.4297 4.14839C19.2539 3.53316 18.8291 3.09956 18.3984 2.78902C17.9707 2.47847 17.4404 2.22066 16.8047 2.24995ZM16.875 3.74995C16.998 3.7441 17.291 3.83199 17.5312 4.00777C17.7715 4.18062 17.9648 4.42378 18 4.54683C18.0352 4.66988 18.0879 4.67574 17.8125 4.89839L17.7656 4.92183L17.7422 4.94527C15.4365 7.30074 14.1006 10.0898 13.7109 11.9296C13.1631 11.9736 12.5859 12 12 12C11.7686 12 11.5459 11.9853 11.3203 11.9765C13.1982 10.1279 15.457 7.06636 16.5938 4.0312C16.7314 3.69722 16.752 3.75581 16.875 3.74995ZM12 7.49995C12.3369 7.49995 12.6621 7.50874 12.9844 7.52339C11.6719 9.43355 10.2012 11.0771 9.25781 11.8125C8.1709 11.663 7.19238 11.4375 6.42188 11.1562C5.7334 10.9043 5.21484 10.6289 4.89844 10.3593C4.58203 10.0898 4.5 9.88472 4.5 9.74995C4.5 9.72652 4.5 9.70308 4.5 9.67964C4.52344 9.54781 4.62891 9.37203 4.89844 9.14058C5.21484 8.87105 5.7334 8.59566 6.42188 8.3437C7.79883 7.84273 9.79688 7.49995 12 7.49995ZM17.0859 8.20308C17.8359 8.43453 18.46 8.6982 18.8672 8.97652C19.3652 9.31929 19.5 9.58589 19.5 9.74995C19.5 9.7646 19.5 9.78218 19.5 9.79683C19.4854 9.9316 19.3857 10.1132 19.1016 10.3593C18.7852 10.6289 18.2666 10.9043 17.5781 11.1562C16.9541 11.3818 16.1895 11.5751 15.3516 11.7187C15.6504 10.7841 16.2422 9.50093 17.0859 8.20308ZM19.2656 12.0468C19.1982 12.3896 19.1426 12.7382 19.0312 13.1015C19.0049 13.1806 18.9873 13.2597 18.9609 13.3359C18.9434 13.3916 18.9111 13.4443 18.8906 13.5C18.7002 13.998 18.4805 14.4375 18.2578 14.8125C17.6016 15.9228 16.8281 16.5527 16.8047 16.5703C16.2715 16.9482 15.4014 17.5459 13.8984 17.8359C13.8135 17.8505 13.7256 17.8681 13.6406 17.8828C13.1572 17.9619 12.6123 18 12 18C11.7598 18 11.54 17.9882 11.3203 17.9765C11.2236 17.9707 11.1328 17.9619 11.0391 17.9531C10.6992 17.9238 10.3945 17.8886 10.1016 17.8359C9.87012 17.7919 9.65625 17.7539 9.44531 17.6953C9.30176 17.6572 9.17578 17.6191 9.04688 17.5781C8.47559 17.3876 7.97461 17.1416 7.54688 16.8515C7.45605 16.7841 7.37109 16.7226 7.3125 16.664L7.28906 16.6406C7.16309 16.5146 6.99609 16.3828 6.72656 16.0781C6.45703 15.7734 6.11719 15.3251 5.78906 14.7656C5.41992 14.1386 5.05078 13.3564 4.80469 12.3984C4.77832 12.2841 4.75488 12.1816 4.73437 12.0703C5.08301 12.2695 5.47852 12.4306 5.90625 12.5859C7.51465 13.1718 9.64746 13.5 12 13.5C14.3525 13.5 16.4854 13.1718 18.0938 12.5859C18.5273 12.4277 18.9141 12.246 19.2656 12.0468Z" fill="black"/>
</svg>
