<svg width="24" height="24" viewBox="0 0 24 24" fill="none" xmlns="http://www.w3.org/2000/svg">
<path d="M12 3C7.86621 3 4.5 6.36621 4.5 10.5V13.5C4.5 17.6338 7.86621 21 12 21C16.1338 21 19.5 17.6338 19.5 13.5V10.5C19.5 6.36621 16.1338 3 12 3ZM11.25 4.54688V9.75H6.04688C6.38672 7.03125 8.53125 4.88672 11.25 4.54688ZM12.75 4.54688C15.4688 4.88672 17.6133 7.03125 17.9531 9.75H12.75V4.54688ZM6 11.25H18V13.5C18 16.8223 15.3223 19.5 12 19.5C8.67773 19.5 6 16.8223 6 13.5V11.25Z" fill="black"/>
</svg>
