<svg width="24" height="24" viewBox="0 0 24 24" fill="none" xmlns="http://www.w3.org/2000/svg">
<path d="M9 1.5V4.5H10.5V1.5H9ZM12 2.25V4.5H13.5V2.25H12ZM4.5 5.25V18.75C4.5 19.9834 5.5166 21 6.75 21H15.75C16.9834 21 18 19.9834 18 18.75V15H19.5C20.7334 15 21.75 13.9834 21.75 12.75V10.5C21.75 9.2666 20.7334 8.25 19.5 8.25H18V5.25H4.5ZM6 6.75H16.5V18.75C16.5 19.166 16.166 19.5 15.75 19.5H6.75C6.33398 19.5 6 19.166 6 18.75V6.75ZM18 9.75H19.5C19.916 9.75 20.25 10.084 20.25 10.5V12.75C20.25 13.166 19.916 13.5 19.5 13.5H18V9.75Z" fill="black"/>
</svg>
