<svg width="24" height="24" viewBox="0 0 24 24" fill="none" xmlns="http://www.w3.org/2000/svg">
<path d="M20.25 2.83594L19.3594 3.02344L7.35938 5.27344L6.75 5.36719V15.4219C6.30469 15.1611 5.80078 15 5.25 15C3.60059 15 2.25 16.3506 2.25 18C2.25 19.6494 3.60059 21 5.25 21C6.89941 21 8.25 19.6494 8.25 18V9.60938L18.75 7.64062V13.1719C18.3047 12.9111 17.8008 12.75 17.25 12.75C15.6006 12.75 14.25 14.1006 14.25 15.75C14.25 17.3994 15.6006 18.75 17.25 18.75C18.8994 18.75 20.25 17.3994 20.25 15.75V2.83594ZM18.75 4.64062V6.14062L8.25 8.10938V6.60938L18.75 4.64062ZM17.25 14.25C18.0879 14.25 18.75 14.9121 18.75 15.75C18.75 16.5879 18.0879 17.25 17.25 17.25C16.4121 17.25 15.75 16.5879 15.75 15.75C15.75 14.9121 16.4121 14.25 17.25 14.25ZM5.25 16.5C6.08789 16.5 6.75 17.1621 6.75 18C6.75 18.8379 6.08789 19.5 5.25 19.5C4.41211 19.5 3.75 18.8379 3.75 18C3.75 17.1621 4.41211 16.5 5.25 16.5Z" fill="black"/>
</svg>
