<svg width="24" height="24" viewBox="0 0 24 24" fill="none" xmlns="http://www.w3.org/2000/svg">
<path d="M12 3C9.5212 3 7.31419 4.15577 5.87256 5.95312C5.18851 5.69803 4.72687 5.57936 4.6875 5.56934L3.75439 5.3335L3.75293 8.25879C2.84564 8.94593 2.25 10.0253 2.25 11.25C2.25 12.4905 2.86086 13.5821 3.78809 14.2676C4.17649 18.4575 7.70522 21.75 11.9956 21.75C16.2843 21.75 19.8159 18.4584 20.2061 14.2705C21.1362 13.5853 21.75 12.4929 21.75 11.25C21.75 10.026 21.1549 8.94746 20.2485 8.26025L20.25 5.33203L19.3198 5.56934C19.2803 5.5794 18.8157 5.69892 18.1274 5.95605C16.6858 4.15763 14.4797 3 12 3ZM12 4.5C13.9172 4.5 15.6356 5.27202 16.8633 6.49072C16.4443 6.68867 15.999 6.92029 15.5449 7.19238C13.3624 6.01788 10.6434 6.01788 8.46094 7.19238C8.00524 6.91922 7.55842 6.68766 7.13818 6.48926C8.36579 5.2714 10.0836 4.5 12 4.5ZM5.25 7.32422C5.96775 7.58672 7.01078 8.03153 8.04053 8.69678L8.44043 8.95459L8.84473 8.7041C10.7535 7.5161 13.2553 7.5161 15.1641 8.7041L15.5684 8.95459L15.9668 8.69678C16.9943 8.03228 18.0315 7.58893 18.75 7.32568V13.5C18.75 17.2222 15.7179 20.25 11.9956 20.25C8.27336 20.25 5.24561 17.223 5.24561 13.5015L5.25 7.32422ZM7.82959 13.5044C7.50319 13.5018 7.14469 13.5045 6.75 13.5073C6.78 13.8448 6.74297 14.8202 7.79297 15.4277C7.96547 15.5252 8.4 15.6674 8.8125 15.6899C9.8175 15.7349 11.25 15.75 11.25 15.75C10.8195 13.7799 10.1144 13.5227 7.82959 13.5044ZM16.1675 13.5044C13.8778 13.5227 13.1739 13.7799 12.75 15.75C12.75 15.75 14.1825 15.7349 15.1875 15.6899C15.6 15.6674 16.0345 15.5252 16.207 15.4277C17.257 14.8127 17.22 13.8373 17.25 13.5073C16.8544 13.5045 16.4946 13.5018 16.1675 13.5044ZM10.0195 16.5C10.5745 17.085 11.25 17.535 12 17.8125C12.75 17.535 13.418 17.085 13.9805 16.5H10.0195ZM10.5073 18.3267C10.5073 18.3267 10.3949 18.3864 10.2524 18.5889C10.1474 18.7539 10.1104 18.9712 10.1104 18.9712C11.2579 19.6762 12.7496 19.6762 13.8896 18.9712C13.8896 18.9712 13.8822 18.8132 13.7622 18.6182C13.6347 18.4082 13.4927 18.3267 13.4927 18.3267C12.5177 18.6192 11.4373 18.6042 10.5073 18.3267Z" fill="black"/>
</svg>
