<svg width="24" height="24" viewBox="0 0 24 24" fill="none" xmlns="http://www.w3.org/2000/svg">
<path d="M6.21533 3.75L4.5 5.02588V19.5H5.00098H7.99658L10.5029 17.6675L10.5015 14.6426L13.7754 19.5H16.3403L18.75 18V3.75H15.2534L12.75 5.56494V8.51221L9.57568 3.75H6.21533ZM7.0415 4.5H9.17432L15.75 14.3628V4.5H18V17.25H15.5405L7.0415 4.5ZM6.24609 4.66113L15.1392 18H17.2808L16.106 18.75H14.2383L10.5 13.311V13.3008H10.4927L7.5 8.94727V16.6875L5.25 18.375V5.40234L6.24609 4.66113ZM15 4.86035V11.8872L13.5 9.63721V5.94727L15 4.86035ZM8.25 11.3027L9.75 13.5278L9.75293 17.2866L7.75342 18.75H6L8.25 17.0625V11.3027Z" fill="black"/>
</svg>
