<svg width="24" height="24" viewBox="0 0 24 24" fill="none" xmlns="http://www.w3.org/2000/svg">
<path d="M2.25 3.75V17.25C2.25 18.9082 3.5918 20.25 5.25 20.25H18.75C20.4082 20.25 21.75 18.9082 21.75 17.25V9H17.25V3.75H2.25ZM3.75 5.25H15.75V17.25C15.75 17.7979 15.917 18.3076 16.1719 18.75H5.25C4.35645 18.75 3.75 18.1436 3.75 17.25V5.25ZM5.25 6.75V10.5H14.25V6.75H5.25ZM6.75 8.25H12.75V9H6.75V8.25ZM17.25 10.5H20.25V17.25C20.25 18.1436 19.6436 18.75 18.75 18.75C17.8564 18.75 17.25 18.1436 17.25 17.25V10.5ZM5.25 11.25V12.75H9V11.25H5.25ZM10.5 11.25V12.75H14.25V11.25H10.5ZM5.25 13.5V15H9V13.5H5.25ZM10.5 13.5V15H14.25V13.5H10.5ZM5.25 15.75V17.25H9V15.75H5.25ZM10.5 15.75V17.25H14.25V15.75H10.5Z" fill="black"/>
</svg>
