<svg width="24" height="24" viewBox="0 0 24 24" fill="none" xmlns="http://www.w3.org/2000/svg">
<path d="M5.25 0.75V14.25H5.26904C5.2625 14.3749 5.25 14.4985 5.25 14.625C5.25 18.5535 8.4465 21.75 12.375 21.75C16.3035 21.75 19.5 18.5535 19.5 14.625C19.5 10.6965 16.3035 7.5 12.375 7.5C10.2701 7.5 8.38071 8.42271 7.0752 9.87891L5.25 0.75ZM12.375 9C15.477 9 18 11.523 18 14.625C18 17.727 15.477 20.25 12.375 20.25C9.273 20.25 6.75 17.727 6.75 14.625C6.75 11.523 9.273 9 12.375 9ZM10.125 12.75C9.82663 12.75 9.54048 12.8685 9.3295 13.0795C9.11853 13.2905 9 13.5766 9 13.875C9 14.1734 9.11853 14.4595 9.3295 14.6705C9.54048 14.8815 9.82663 15 10.125 15C10.4234 15 10.7095 14.8815 10.9205 14.6705C11.1315 14.4595 11.25 14.1734 11.25 13.875C11.25 13.5766 11.1315 13.2905 10.9205 13.0795C10.7095 12.8685 10.4234 12.75 10.125 12.75ZM14.625 12.75C14.3266 12.75 14.0405 12.8685 13.8295 13.0795C13.6185 13.2905 13.5 13.5766 13.5 13.875C13.5 14.1734 13.6185 14.4595 13.8295 14.6705C14.0405 14.8815 14.3266 15 14.625 15C14.9234 15 15.2095 14.8815 15.4205 14.6705C15.6315 14.4595 15.75 14.1734 15.75 13.875C15.75 13.5766 15.6315 13.2905 15.4205 13.0795C15.2095 12.8685 14.9234 12.75 14.625 12.75Z" fill="black"/>
</svg>
