<svg width="24" height="24" viewBox="0 0 24 24" fill="none" xmlns="http://www.w3.org/2000/svg">
<g clip-path="url(#clip0_201_34490)">
<path d="M21.7646 7.51611C20.2398 7.51494 18.6487 8.38184 19.0884 9.77637V9.7793C17.4459 10.1055 16.3029 10.7844 15.5566 11.5869C15.4441 11.2194 15.0472 10.9644 14.2822 10.9644H10.9966C10.6478 10.9644 10.5134 10.8788 10.5659 10.6875C10.6259 10.4813 10.6361 10.433 10.7036 10.2305C10.7824 9.99047 10.9969 9.96387 11.2031 9.96387H16.2085L16.5732 8.7832C11.3345 8.7832 11.1546 8.7634 10.5688 8.82715C10.1076 8.8759 9.68666 9.00715 9.42041 9.38965C9.16541 9.7609 8.88123 10.725 8.76123 11.1563C8.55873 11.8838 8.73773 12.2285 9.99023 12.2285H13.2642C13.5567 12.2285 13.594 12.3298 13.5527 12.4761C13.5115 12.6411 13.448 12.8514 13.3843 13.0239C13.3243 13.1814 13.2084 13.3008 12.8672 13.3008H8.1123L7.67725 14.7832C12.9235 14.7832 13.1252 14.7605 13.7109 14.6968C13.9584 14.6705 14.199 14.6172 14.4053 14.5122C14.4128 14.651 14.4244 14.7867 14.4507 14.918C14.6532 16.0617 15.4781 16.8789 16.5806 17.1489C18.4031 17.5952 20.656 16.5186 21.646 14.5986C22.3472 13.2411 22.1748 11.7408 21.5186 10.6421H21.5229C22.6329 10.4208 24.1593 9.81762 23.9868 8.74512C23.8781 8.07012 23.0902 7.69178 22.4077 7.57178C22.1987 7.53522 21.9825 7.51628 21.7646 7.51611ZM21.4951 8.24854C21.6064 8.24678 21.7167 8.2568 21.8188 8.2793C22.3926 8.4068 22.5584 8.87608 22.0034 9.19483C21.6022 9.42358 21.1177 9.49893 20.7202 9.55518C20.5627 9.33018 20.3527 8.86184 20.6265 8.56934C20.8149 8.36684 21.1611 8.25381 21.4951 8.24854ZM7.0166 8.77734V8.77881L5.73486 13.043L3.68994 8.77881H1.83691L0 14.7832H1.68311L2.85059 10.7886L4.74756 14.7832H6.88184L8.69971 8.77734H7.0166ZM19.6333 10.8794C19.8846 11.4074 20.0191 12.0791 19.9028 12.6724C19.6816 13.7786 18.5303 14.4651 17.5928 14.3188C16.434 14.1388 16.149 12.8374 17.064 11.8887C17.6715 11.2587 18.7596 10.9881 19.6333 10.8794Z" fill="black"/>
</g>
<defs>
<clipPath id="clip0_201_34490">
<rect width="24" height="24" fill="white"/>
</clipPath>
</defs>
</svg>
