<svg width="24" height="24" viewBox="0 0 24 24" fill="none" xmlns="http://www.w3.org/2000/svg">
<path d="M7.5 1.5C7.5 6.75 11.6777 6.31934 11.6777 6.31934C11.5862 2.99984 8.92588 2.10366 8.58838 2.00391C11.5321 2.23416 12.3223 6.00586 12.3223 6.00586C14.0165 3.62911 15.6182 4.04297 15.6182 4.04297C13.5482 4.11947 12.9653 6.31934 12.9653 6.31934C15.7861 7.04009 16.5 4.06641 16.5 4.06641C13.0898 2.85441 12.3604 5.69824 12.3604 5.69824C12.7504 1.49974 7.5 1.5 7.5 1.5ZM12 6.75C9.402 6.75 7.14252 7.48745 5.39502 8.77295C4.47402 10.3127 3.75 12.234 3.75 14.25C3.75 16.266 4.15193 18.2093 5.06543 19.749C6.81293 21.0353 9.402 21.75 12 21.75C14.598 21.75 17.1871 21.0353 18.9346 19.749C19.8481 18.2093 20.25 16.266 20.25 14.25C20.25 12.234 19.526 10.3127 18.605 8.77295C16.8575 7.47995 14.598 6.75 12 6.75ZM12 7.72559C14.253 7.72559 16.4337 8.23314 18.0747 9.07764C18.437 9.88239 18.5407 10.4933 18.75 11.4346C16.9642 11.1046 14.5822 10.8149 12 10.8149C9.41775 10.8149 7.03575 11.1046 5.25 11.4346C5.45925 10.5016 5.55554 9.89814 5.92529 9.07764C7.56629 8.23314 9.747 7.72559 12 7.72559ZM7.83252 12C8.42877 12 8.91504 12.4788 8.91504 13.0825C8.91504 13.6788 8.42877 14.1577 7.83252 14.1577C7.23627 14.1577 6.75 13.6788 6.75 13.0825C6.75 12.4788 7.23627 12 7.83252 12ZM10.6084 12.0015C11.2121 12.0015 11.6909 12.4788 11.6909 13.0825C11.6917 13.678 11.2129 14.1577 10.6084 14.1577C10.0121 14.1577 9.5332 13.6788 9.5332 13.0825C9.5332 12.4788 10.0121 12.0015 10.6084 12.0015ZM13.3916 12.0015C13.9879 12.0015 14.4668 12.4788 14.4668 13.0825C14.4668 13.678 13.9879 14.1577 13.3916 14.1577C12.7879 14.1577 12.3091 13.6788 12.3091 13.0825C12.3091 12.4788 12.7879 12.0015 13.3916 12.0015ZM16.1675 12.0015C16.7637 12.0015 17.25 12.4788 17.25 13.0825C17.25 13.6788 16.7637 14.1577 16.1675 14.1577C15.5712 14.1577 15.085 13.6788 15.085 13.0825C15.085 12.4788 15.5712 12.0015 16.1675 12.0015ZM7.83252 14.6807C8.42877 14.6807 8.91504 15.1594 8.91504 15.7632C8.91504 16.3594 8.42877 16.8384 7.83252 16.8384C7.23627 16.8384 6.75 16.3594 6.75 15.7632C6.75 15.1594 7.23627 14.6807 7.83252 14.6807ZM10.6084 14.6807C11.2121 14.6807 11.6909 15.1594 11.6909 15.7632C11.6917 16.3594 11.2129 16.8384 10.6084 16.8384C10.0121 16.8384 9.5332 16.3594 9.5332 15.7632C9.5332 15.1594 10.0121 14.6807 10.6084 14.6807ZM13.3916 14.6807C13.9879 14.6807 14.4668 15.1594 14.4668 15.7632C14.4668 16.3594 13.9879 16.8384 13.3916 16.8384C12.7879 16.8384 12.3091 16.3594 12.3091 15.7632C12.3091 15.1594 12.7879 14.6807 13.3916 14.6807ZM16.1675 14.6807C16.7637 14.6807 17.25 15.1594 17.25 15.7632C17.25 16.3594 16.7637 16.8384 16.1675 16.8384C15.5712 16.8384 15.085 16.3594 15.085 15.7632C15.085 15.1594 15.5712 14.6807 16.1675 14.6807ZM7.83252 17.3423C8.42877 17.3423 8.91504 17.8211 8.91504 18.4248C8.91504 19.0211 8.42877 19.5 7.83252 19.5C7.23627 19.5 6.75 19.0211 6.75 18.4248C6.75 17.8211 7.23627 17.3423 7.83252 17.3423ZM10.6084 17.3423C11.2121 17.3423 11.6909 17.8211 11.6909 18.4248C11.6917 19.0211 11.2129 19.5 10.6084 19.5C10.0121 19.5 9.5332 19.0211 9.5332 18.4248C9.5332 17.8211 10.0121 17.3423 10.6084 17.3423ZM13.3916 17.3423C13.9879 17.3423 14.4668 17.8211 14.4668 18.4248C14.4668 19.0211 13.9879 19.5 13.3916 19.5C12.7879 19.5 12.3091 19.0211 12.3091 18.4248C12.3091 17.8211 12.7879 17.3423 13.3916 17.3423ZM16.1675 17.3423C16.7637 17.3423 17.25 17.8211 17.25 18.4248C17.25 19.0211 16.7637 19.5 16.1675 19.5C15.5712 19.5 15.085 19.0211 15.085 18.4248C15.085 17.8211 15.5712 17.3423 16.1675 17.3423Z" fill="black"/>
</svg>
