<svg width="24" height="24" viewBox="0 0 24 24" fill="none" xmlns="http://www.w3.org/2000/svg">
<path d="M21.75 14.3408C21.75 15.9053 21.1172 19.9307 17.6924 19.9307C14.4287 19.9307 13.2392 17.0479 13.4648 16.0049C13.6523 16.3242 14.2471 17.9678 17.458 17.9678C20.751 17.9678 20.7861 14.3086 20.7861 14.3086C20.7861 14.3086 20.7305 11.7129 18.7236 11.7129C16.2744 11.7129 16.1924 15.6064 13.7314 15.6064C12.498 15.6064 12.085 14.9531 11.8359 14.7744C12.3662 16.4209 11.7392 20.25 7.708 20.25C1.95409 20.25 2.25292 14.042 2.25292 14.042C2.25292 14.042 3.21679 17.8682 7.60839 17.8682C10.2861 17.8682 10.6377 16.3389 10.6377 15.6387C10.6377 14.9414 10.1045 13.7109 7.708 13.7109L7.18359 11.2236C7.18359 11.2236 7.89257 11.4551 8.76855 11.4551C9.92284 11.4551 10.1865 10.6846 10.1865 10.0518C10.1865 9.42188 9.56835 8.7832 8.43749 8.7832C6.68554 8.7832 5.27929 10.582 5.27929 10.582L3.91698 8.05371C3.91698 8.05371 5.18261 6.42187 7.74609 6.42187C10.3066 6.42187 11.4697 8.51953 11.4697 9.75C11.4697 10.9805 10.8955 12 9.80566 12.5771C11.2764 13.2686 10.831 13.7754 11.7685 13.7754C13.3213 13.7754 13.5322 12.5068 14.2617 11.3555C14.9355 10.2979 15.8935 9.35156 17.5898 9.35156C20.9853 9.35156 21.75 12.7793 21.75 14.3408ZM15.1289 8.98535C16.8545 8.98535 18.1904 7.98633 18.1904 7.98633L16.7578 5.45801C16.7578 5.45801 15.7617 6.85547 13.831 6.85547C11.9004 6.85547 10.3037 5.0918 10.3037 5.0918C10.3037 5.0918 11.0361 8.98535 15.1289 8.98535ZM15.3955 4.95996L13.9629 3.42773L12.3662 4.8252L13.7988 6.45703L15.3955 4.95996Z" fill="black"/>
</svg>
