<svg width="24" height="24" viewBox="0 0 24 24" fill="none" xmlns="http://www.w3.org/2000/svg">
<path d="M0.75 3.9375C2.9502 8.1123 6.83789 8.7627 11.5547 8.85938C14.3379 8.91797 20.4609 8.68066 20.4609 10.1719C20.4609 11.291 16.3828 14.7979 16.3828 15.5156C16.3828 15.5156 19.21 13.125 20.7891 11.7188C22.3682 10.3125 23.25 9.48047 23.25 8.64844C23.25 6.95508 16.7021 7.26562 11.4141 7.26562C6.12598 7.26562 3.23438 6.26367 0.75 3.9375ZM6.65625 16.8984C5.78027 16.8984 5.0625 17.5928 5.0625 18.4688C5.0625 19.3447 5.78027 20.0625 6.65625 20.0625C7.53223 20.0625 8.22656 19.3447 8.22656 18.4688C8.22656 17.5928 7.53223 16.8984 6.65625 16.8984ZM13.9688 16.8984C13.0928 16.8984 12.3984 17.5928 12.3984 18.4688C12.3984 19.3447 13.0928 20.0625 13.9688 20.0625C14.8447 20.0625 15.5625 19.3447 15.5625 18.4688C15.5625 17.5928 14.8447 16.8984 13.9688 16.8984Z" fill="black"/>
</svg>
