<svg width="24" height="24" viewBox="0 0 24 24" fill="none" xmlns="http://www.w3.org/2000/svg">
<path d="M11.9766 3C7.25391 3 3.75 6.70898 3.75 11.9297C3.75 16.6436 7.0957 21 11.9766 21C16.8955 21 20.25 16.6436 20.25 11.9297C20.25 6.66211 16.6582 3 11.9766 3ZM11.9766 4.5C15.9082 4.5 18.75 7.31543 18.75 11.9297C18.75 15.9463 16.0078 19.5 11.9766 19.5C7.98926 19.5 5.25 15.9463 5.25 11.9297C5.25 7.34473 8.00684 4.5 11.9766 4.5ZM11.9766 4.73438C11.1943 4.73438 10.4795 5.03906 9.98438 5.53125C9.48926 6.02344 9.17578 6.65039 8.95312 7.33594C8.50488 8.70996 8.41406 10.3477 8.41406 11.7891C8.41406 13.1104 8.46387 14.7949 8.88281 16.2422C9.09082 16.9658 9.38672 17.6514 9.89062 18.1875C10.3945 18.7236 11.1416 19.0781 11.9766 19.0781C12.8174 19.0781 13.5498 18.7207 14.0625 18.1875C14.5752 17.6543 14.8799 16.9658 15.0938 16.2422C15.5244 14.7949 15.5859 13.125 15.5859 11.7891C15.5859 10.2393 15.4658 8.61914 15 7.26562C14.7656 6.58887 14.4492 5.95605 13.9453 5.48438C13.4414 5.0127 12.7471 4.73438 11.9766 4.73438ZM11.9766 6.23438C12.4043 6.23438 12.6562 6.3457 12.9141 6.58594C13.1719 6.82617 13.4121 7.20996 13.5938 7.73438C13.957 8.78613 14.0859 10.3154 14.0859 11.7891C14.0859 13.0781 14.0068 14.6602 13.6641 15.8203C13.4912 16.4004 13.2539 16.875 12.9844 17.1562C12.7148 17.4375 12.4453 17.5781 11.9766 17.5781C11.5195 17.5781 11.2559 17.4375 10.9922 17.1562C10.7285 16.875 10.4795 16.4033 10.3125 15.8203C9.97559 14.6543 9.91406 13.0693 9.91406 11.7891C9.91406 10.418 10.0312 8.88867 10.3828 7.80469C10.5586 7.2627 10.8076 6.86133 11.0625 6.60938C11.3174 6.35742 11.5605 6.23438 11.9766 6.23438Z" fill="black"/>
</svg>
