<svg width="24" height="24" viewBox="0 0 24 24" fill="none" xmlns="http://www.w3.org/2000/svg">
<path d="M12.6328 2.4375C11.0537 2.4375 10.5 3.77344 10.5 3.77344C10.5 3.77344 11.291 3.28125 12.3047 3.28125C14.042 3.28125 15.0938 4.64062 15.0938 4.64062C15.0938 4.64062 15.0439 2.4375 12.6328 2.4375ZM11.1562 4.14844C8.82715 4.14844 7.61719 4.52344 7.61719 4.52344C7.61719 4.52344 8.83008 4.71973 9.70312 5.10938C6.4541 5.56348 4.89844 7.52344 4.89844 7.52344C4.89844 7.52344 6.10254 7.3125 6.53906 7.35938C6.12891 7.59375 5.8125 7.85742 5.55469 8.10938C5.50781 8.10938 5.45508 8.1123 5.41406 8.10938C4.88965 8.0625 4.67871 8.0918 4.64062 7.57031C4.60254 7.04883 4.51465 6.75 4.03125 6.75C3.54785 6.75 2.85938 7.81055 2.85938 8.88281C2.85938 10.1016 3.1377 11.1562 5.27344 11.2266C5.27051 11.25 5.27344 11.3203 5.27344 11.3203C5.27344 11.3203 5.99121 11.3643 6.1875 11.7891C6.27832 11.8154 6.35742 11.8682 6.44531 11.9297L5.83594 12C5.63965 11.7568 5.36719 11.7188 5.10938 11.7188C5.08887 11.5898 4.91309 11.3203 4.66406 11.3203C4.23633 11.3203 4.03125 11.9297 4.03125 11.9297C4.03125 11.9297 3.09375 12.2109 3.09375 13.2188C3.09375 14.3818 4.13379 14.9531 4.80469 14.9531V15.7266C4.62305 15.5654 4.44434 15.4688 4.28906 15.4688C4.13086 15.4688 3.9668 15.4922 3.82031 15.5156C3.74707 15.4365 3.60938 15.3047 3.44531 15.3047C3.2373 15.3047 3.19336 15.5537 3.1875 15.7031C2.9707 15.7939 2.75684 15.8994 2.57812 16.0312C2.50488 15.9932 2.41992 15.9609 2.34375 15.9609C2.21484 15.9609 2.20312 16.0928 2.20312 16.1719C2.20312 16.21 2.19141 16.2832 2.20312 16.3594C2.04785 16.5234 1.93066 16.6992 1.82812 16.875C1.76953 16.8545 1.67285 16.8281 1.61719 16.8281C1.52637 16.8281 1.5 16.8574 1.5 16.9219C1.5 16.9688 1.55273 17.1738 1.61719 17.3203C1.56738 17.4756 1.54688 17.6279 1.54688 17.7656C1.54688 18.6299 2.91797 20.0625 4.3125 20.0625C4.4707 20.0625 5.36719 19.9102 5.74219 19.1953C5.82422 19.1982 9.95215 19.3125 11.9062 19.3125C13.8516 19.3125 18.1113 19.1748 18.2344 19.1719C18.6035 19.9043 19.5264 20.0625 19.6875 20.0625C21.082 20.0625 22.4531 18.6299 22.4531 17.7656C22.4531 17.6279 22.4326 17.499 22.3828 17.3438C22.4473 17.1973 22.5 16.9688 22.5 16.9219C22.5 16.8574 22.4736 16.8281 22.3828 16.8281C22.3271 16.8281 22.2305 16.8545 22.1719 16.875C22.0693 16.6992 21.9521 16.5234 21.7969 16.3594C21.8086 16.2832 21.7969 16.21 21.7969 16.1719C21.7969 16.0928 21.7852 15.9609 21.6562 15.9609C21.5801 15.9609 21.4951 15.9932 21.4219 16.0312C21.2432 15.8994 21.0293 15.7939 20.8125 15.7031C20.8066 15.5537 20.7627 15.3047 20.5547 15.3047C20.3906 15.3047 20.2529 15.4365 20.1797 15.5156C20.0332 15.4922 19.8691 15.4922 19.7109 15.4922C19.5557 15.4922 19.377 15.5654 19.1953 15.7266V14.9531C19.8662 14.9531 20.9062 14.3818 20.9062 13.2188C20.9062 12.2109 19.9688 11.9297 19.9688 11.9297C19.9688 11.9297 19.7637 11.3203 19.3359 11.3203C19.0869 11.3203 18.9111 11.5898 18.8906 11.7188C18.624 11.7188 18.3369 11.7539 18.1406 12.0234C18.0146 12.0117 17.7744 11.9795 17.4844 11.9531C17.5811 11.8887 17.6836 11.833 17.8125 11.7891C18.0879 11.3701 18.7266 11.3438 18.7266 11.3438C18.7266 11.3438 18.7266 11.2588 18.7266 11.2266C20.9268 11.1768 21.1875 10.0928 21.1875 8.85938C21.1875 7.79004 20.5225 6.75 20.0391 6.75C19.5557 6.75 19.4443 7.02539 19.4062 7.54688C19.3682 8.06836 19.1572 8.0625 18.6328 8.10938C18.4453 8.12695 18.2109 8.10352 18.0469 8.08594C17.2031 6.17871 15.3311 4.14844 11.1562 4.14844ZM12.0469 4.89844C13.5879 4.89844 14.8359 6.14648 14.8359 7.6875C14.8359 9.22852 13.5879 10.4766 12.0469 10.4766C10.5059 10.4766 9.23438 9.22852 9.23438 7.6875C9.23438 6.14648 10.5059 4.89844 12.0469 4.89844ZM12.0938 6.82031C11.8359 6.82031 11.5898 6.85254 11.3672 6.9375C11.7012 7.06055 11.9297 7.37695 11.9297 7.73438C11.9297 8.2002 11.5371 8.57812 11.0391 8.57812C10.7021 8.57812 10.3975 8.41406 10.2422 8.15625C10.207 8.29102 10.1953 8.41113 10.1953 8.55469C10.1953 9.52148 11.0479 10.3125 12.0938 10.3125C13.1396 10.3125 13.9922 9.52148 13.9922 8.55469C13.9922 7.58789 13.1396 6.82031 12.0938 6.82031ZM4.10156 7.26562C4.27734 7.26562 4.28027 7.59961 4.28906 7.71094C4.29785 7.82227 4.35938 7.99219 4.35938 7.99219C3.52441 8.4082 3.35449 9.08203 3.23438 9.32812C3.23438 7.59082 3.92578 7.26562 4.10156 7.26562ZM19.9453 7.28906C20.1211 7.28906 20.8359 7.59375 20.8359 9.32812C20.7158 9.08203 20.5225 8.40527 19.6875 7.99219C19.6875 7.99219 19.749 7.82227 19.7578 7.71094C19.7666 7.59961 19.7695 7.28906 19.9453 7.28906ZM4.52344 8.25C4.61133 8.32324 4.69043 8.4375 5.01562 8.46094C5.01562 8.46094 4.52344 9.17285 4.52344 9.96094C4.52344 10.749 4.59375 10.7578 4.59375 10.7578C4.59375 10.7578 3.65332 10.6113 3.42188 10.0547C3.47754 9.21973 3.82324 8.49609 4.52344 8.25ZM19.5469 8.25C20.2471 8.49609 20.5693 9.21973 20.625 10.0547C20.3936 10.6113 19.4531 10.7578 19.4531 10.7578C19.4531 10.7578 19.5234 10.749 19.5234 9.96094C19.5234 9.17285 19.0312 8.46094 19.0312 8.46094C19.3564 8.4375 19.459 8.32031 19.5469 8.25ZM18.2109 8.50781H18.6797C18.6797 8.50781 19.2422 9.19922 19.2422 9.86719C19.2422 10.5352 19.1719 10.8281 19.1719 10.8281L18.7031 10.8516C18.6709 10.3359 18.5713 9.47754 18.2109 8.50781ZM5.90625 8.57812L5.83594 8.95312L5.8125 9C5.53711 9.65625 5.3877 10.3828 5.32031 10.8516L4.89844 10.8281C4.89844 10.8281 4.80469 10.5352 4.80469 9.86719C4.80469 9.44238 5.00977 9.07031 5.17969 8.8125C5.41992 8.71875 5.67773 8.64258 5.90625 8.57812ZM13.3125 11.2031C13.6582 11.2031 14.2969 11.2266 14.2969 11.2266C14.2969 11.2266 14.3438 11.5957 14.3438 11.9766C14.3438 12.1875 14.335 12.3984 14.3203 12.5156C14.2998 12.668 14.2939 12.8203 13.9453 12.8203C13.5293 12.8203 13.5879 12.8672 13.3125 12.8672C13.0371 12.8672 12.3223 12.8701 12.2812 12.4922C12.2344 12.0762 12.1875 11.2266 12.1875 11.2266C12.1875 11.2266 12.9668 11.2031 13.3125 11.2031ZM11.6719 11.2266C11.6719 11.2266 11.7422 11.8184 11.7422 12.375C11.7422 12.9316 11.751 12.4512 11.7188 12.9141C11.7012 13.1631 11.8184 13.2891 10.6875 13.2891C9.51562 13.2891 9.51562 13.2217 9.51562 12.3281C9.51562 11.4346 9.58594 11.25 9.58594 11.25C9.58594 11.25 11.5049 11.25 11.6719 11.2266ZM14.8125 11.2266C14.8125 11.2266 16.1543 11.2764 16.2656 11.2969C16.2656 11.707 16.0195 13.4062 15.2578 13.4062C14.9941 13.4062 14.9883 12.5156 14.9531 12.1406C14.9121 11.6924 14.8125 11.2266 14.8125 11.2266ZM9.09375 11.25C9.09375 11.25 9.01465 12.3164 9 12.5156C8.98535 12.7148 8.92969 13.1074 8.92969 13.1484C8.92969 13.1895 8.88574 13.3828 8.74219 13.3828C8.58105 13.3828 7.6875 13.0957 7.6875 11.8359C7.6875 11.6045 7.73438 11.3203 7.73438 11.3203L9.09375 11.25ZM7.33594 12.3516C7.56152 13.3652 8.44629 13.8047 8.78906 13.8047C9.14941 13.8047 9.20508 13.459 9.23438 13.2656C9.45996 13.6582 10.1074 13.6875 10.5469 13.6875C12.2021 13.6875 12.1816 13.292 12.2109 13.125C12.2109 13.125 12.4688 13.2891 13.1953 13.2891C14.6338 13.2891 14.7188 12.9375 14.7188 12.9375C14.7188 12.9375 14.8623 13.8516 15.2812 13.8516C16.1865 13.8516 16.5938 12.375 16.5938 12.375C16.6641 12.3779 16.7695 12.3867 16.9688 12.3984H17.0625C17.2529 12.4102 17.4287 12.4277 17.5781 12.4453C17.5576 12.4893 17.5312 12.5244 17.5312 12.5625C17.5312 12.7529 17.8359 12.8906 17.8359 12.8906C17.8359 12.8906 17.7451 12.9609 17.6719 13.0547C17.2441 13.4473 16.5322 14.1182 15.9609 14.6016C15.2314 15.2197 13.8574 16.2363 11.8594 16.8047C11.666 16.7637 9.59766 15.9258 8.39062 14.9531C7.54395 14.2705 6.84082 13.6113 6.39844 13.1719C6.32227 13.0107 6.16406 12.8906 6.16406 12.8906C6.16406 12.8906 6.46875 12.7529 6.46875 12.5625C6.46875 12.5244 6.44238 12.4893 6.42188 12.4453L7.33594 12.3516ZM17.7422 13.6875C17.877 13.7871 18.0234 13.8281 18.0234 13.8281L18.0469 13.9453C18.0469 13.9453 17.8359 14.0186 17.8359 14.2266C17.8359 14.5049 18.3984 14.6016 18.3984 14.6016C18.3984 14.6016 18.4717 14.7363 18.6562 14.8359V16.4062C18.3486 16.9219 18.1318 17.6016 18.0938 18.3281C16.9277 17.5195 14.4727 16.6963 13.9453 16.5234C14.5635 16.207 15.1904 15.8232 15.7969 15.375C16.5322 14.8301 17.2412 14.1621 17.7422 13.6875ZM6.23438 13.7109C6.55664 14.0098 7.51172 14.8799 8.10938 15.375C8.49023 15.6914 9.18457 16.1191 9.89062 16.5C7.92773 17.1211 6.09961 18.1904 5.90625 18.3047C5.86523 17.5869 5.64551 16.916 5.34375 16.4062V14.8359C5.52832 14.7363 5.60156 14.6016 5.60156 14.6016C5.60156 14.6016 6.16406 14.5049 6.16406 14.2266C6.16406 14.0186 5.95312 13.9453 5.95312 13.9453L5.97656 13.8281C5.97656 13.8281 6.1084 13.7959 6.23438 13.7109ZM4.26562 16.4531C5.19434 16.4531 5.69531 18.2139 5.69531 18.6094C5.69531 19.374 4.8457 19.8281 4.26562 19.8281C3.40137 19.8281 2.0625 18.7881 2.0625 18.3984C2.0625 17.4639 3.28125 16.4531 4.26562 16.4531ZM19.7344 16.4531C20.7188 16.4531 21.9375 17.4639 21.9375 18.3984C21.9375 18.7881 20.5986 19.8281 19.7344 19.8281C19.1543 19.8281 18.3047 19.374 18.3047 18.6094C18.3047 18.2139 18.8057 16.4531 19.7344 16.4531ZM4.28906 16.7578C3.76465 16.7578 2.41406 17.6777 2.41406 18.3281C2.41406 18.8936 3.15234 18.9375 3.25781 18.9375C3.62695 18.9375 4.96875 18.3135 4.96875 17.5781C4.96875 17.4141 4.81348 16.7578 4.28906 16.7578ZM13.4531 16.7578C13.7344 16.8604 15.0205 17.332 15.6328 17.6016C16.3125 17.9004 17.6484 18.7031 17.6484 18.7031C17.6484 18.7031 14.4316 18.8203 12 18.8203C9.56836 18.8203 6.39844 18.6797 6.39844 18.6797C7.75781 17.7686 10.4062 16.8457 10.5234 16.8047C11.0742 17.0742 11.5957 17.3174 11.8828 17.3672C12.3369 17.2354 12.8789 17.0244 13.4531 16.7578ZM19.7109 16.7578C19.1865 16.7578 19.0312 17.4141 19.0312 17.5781C19.0312 18.3135 20.373 18.9375 20.7422 18.9375C20.8477 18.9375 21.5859 18.8936 21.5859 18.3281C21.5859 17.6777 20.2354 16.7578 19.7109 16.7578ZM5.10938 18.2812C4.83398 18.2812 3.98438 18.8643 3.98438 19.1953C3.98438 19.5264 4.41797 19.5703 4.54688 19.5703C4.67578 19.5703 5.41406 19.2832 5.41406 18.7734C5.41406 18.7734 5.38477 18.2812 5.10938 18.2812ZM18.8906 18.2812C18.6152 18.2812 18.5859 18.7734 18.5859 18.7734C18.5859 19.2832 19.3242 19.5703 19.4531 19.5703C19.582 19.5703 20.0156 19.5264 20.0156 19.1953C20.0156 18.8643 19.166 18.2812 18.8906 18.2812Z" fill="black"/>
</svg>
