<svg width="24" height="24" viewBox="0 0 24 24" fill="none" xmlns="http://www.w3.org/2000/svg">
<path d="M12 3C7.03711 3 3 7.03711 3 12C3 15.8438 5.41113 19.1279 8.8125 20.4141L9.51562 20.6953L9.79688 19.9922L11.6484 15.0703L11.9062 14.3672L11.2031 14.1094C10.3535 13.7871 9.75 12.9697 9.75 12C9.75 10.749 10.749 9.75 12 9.75C13.251 9.75 14.25 10.749 14.25 12C14.25 12.9697 13.6465 13.7871 12.7969 14.1094L12.0938 14.3672L12.3516 15.0703L14.2031 19.9922L14.4844 20.6953L15.1875 20.4141C18.5889 19.1279 21 15.8438 21 12C21 7.03711 16.9629 3 12 3ZM12 4.5C16.1514 4.5 19.5 7.84863 19.5 12C19.5 14.9414 17.7627 17.4023 15.3047 18.6328L13.9453 15.0469C14.9824 14.3789 15.75 13.3184 15.75 12C15.75 9.9375 14.0625 8.25 12 8.25C9.9375 8.25 8.25 9.9375 8.25 12C8.25 13.3184 9.01758 14.3789 10.0547 15.0469L8.69531 18.6328C6.2373 17.4023 4.5 14.9414 4.5 12C4.5 7.84863 7.84863 4.5 12 4.5Z" fill="black"/>
</svg>
