<svg width="24" height="24" viewBox="0 0 24 24" fill="none" xmlns="http://www.w3.org/2000/svg">
<path d="M10.875 3.75C8.09175 3.75 5.58244 4.93796 4.42969 6.75146C3.22144 6.78896 2.25 7.78275 2.25 9C2.25 9.67425 2.55525 10.516 3 11.1138V20.25H4.5V10.5513L4.29932 10.3359C3.97532 9.98569 3.75 9.35175 3.75 9C3.75 8.586 4.086 8.25 4.5 8.25C4.54875 8.25 4.6061 8.25844 4.67285 8.27344L5.26025 8.41406L5.521 7.86768C6.2605 6.32643 8.46225 5.25 10.875 5.25H13.125C15.5378 5.25 17.7395 6.32643 18.479 7.86768L18.7397 8.41406L19.3271 8.27344C19.3939 8.25844 19.4513 8.25 19.5 8.25C19.914 8.25 20.25 8.586 20.25 9C20.25 9.35175 20.0247 9.98569 19.7007 10.3359L19.5 10.5513V20.25H21V11.1138C21.4447 10.516 21.75 9.67425 21.75 9C21.75 7.78275 20.7786 6.78896 19.5703 6.75146C18.4176 4.93796 15.9082 3.75 13.125 3.75H10.875ZM7.5 9C7.30109 9 7.11032 9.11853 6.96967 9.3295C6.82902 9.54048 6.75 9.82663 6.75 10.125C6.75 10.4234 6.82902 10.7095 6.96967 10.9205C7.11032 11.1315 7.30109 11.25 7.5 11.25C7.69891 11.25 7.88968 11.1315 8.03033 10.9205C8.17098 10.7095 8.25 10.4234 8.25 10.125C8.25 9.82663 8.17098 9.54048 8.03033 9.3295C7.88968 9.11853 7.69891 9 7.5 9ZM16.5 9C16.3011 9 16.1103 9.11853 15.9697 9.3295C15.829 9.54048 15.75 9.82663 15.75 10.125C15.75 10.4234 15.829 10.7095 15.9697 10.9205C16.1103 11.1315 16.3011 11.25 16.5 11.25C16.6989 11.25 16.8897 11.1315 17.0303 10.9205C17.171 10.7095 17.25 10.4234 17.25 10.125C17.25 9.82663 17.171 9.54048 17.0303 9.3295C16.8897 9.11853 16.6989 9 16.5 9ZM12 9.76318C11.3138 9.76318 10.6276 10.0056 10.0283 10.4897C7.36057 12.6482 7.29778 12.7017 7.11328 12.8569L7.03271 12.9243C6.36671 13.4816 6 14.2192 6 15C6 16.6545 7.3455 18 9 18C10.1235 18 11.1855 17.7294 12 17.2456C12.8145 17.7294 13.8765 18 15 18C16.6545 18 18 16.6545 18 15C18 14.2192 17.6333 13.4823 16.9673 12.9243L16.8867 12.8569C16.7022 12.7017 16.6402 12.6475 13.9717 10.4883C13.3732 10.0049 12.6862 9.76318 12 9.76318ZM12 11.2529C12.3475 11.2529 12.6949 11.3869 13.0283 11.6558C15.6736 13.7963 15.7377 13.8502 15.9199 14.0039L16.0049 14.0757C16.2306 14.2647 16.5 14.5778 16.5 15C16.5 15.8273 15.8273 16.5 15 16.5C13.9958 16.5 13.0507 16.2216 12.4717 15.7544L12.0249 15.394C12.0809 14.7422 12.2897 14.25 12.75 14.25C13.5787 14.25 14.25 14.0988 14.25 13.7051C14.25 13.1771 13.2428 12.75 12 12.75C10.7572 12.75 9.75 13.1771 9.75 13.7051C9.75 14.0988 10.4213 14.25 11.25 14.25C11.7103 14.25 11.9191 14.7422 11.9751 15.394L11.5283 15.7544C10.9493 16.2216 10.0043 16.5 9 16.5C8.17275 16.5 7.5 15.8273 7.5 15C7.5 14.5785 7.76933 14.2647 7.99658 14.0757L8.08154 14.0039C8.26454 13.8502 8.32718 13.797 10.9717 11.6572C11.3054 11.3876 11.6525 11.2529 12 11.2529Z" fill="black"/>
</svg>
