<svg width="24" height="24" viewBox="0 0 24 24" fill="none" xmlns="http://www.w3.org/2000/svg">
<path d="M11.3203 3C11.3203 3 10.415 4.24805 10.6875 6.21094C10.8955 7.69629 12.1348 8.62793 12.8203 9.02344C12.8438 9.73828 12.8262 10.4678 12.75 11.2031C12.4043 10.3594 11.6309 8.88281 10.1953 8.36719C8.80078 7.86328 7.03125 8.50781 7.03125 8.50781C7.26855 10.2451 8.4082 11.5957 10.2656 11.9297C11.4551 12.1436 12.249 12.0059 12.6562 11.9062C12.4688 13.1602 12.123 14.3994 11.625 15.5156C11.3555 14.6865 10.4912 12.9902 7.99219 12.7031C6.52441 12.5361 5.13281 13.4531 5.13281 13.4531C5.13281 13.4531 6.02637 16.6641 8.90625 16.6641C10.0752 16.6641 10.8486 16.3975 11.2969 16.1953C11.2734 16.2422 11.2529 16.2891 11.2266 16.3359C9.94629 18.6475 7.91895 20.25 4.85156 20.25V21C8.18555 21 10.5088 19.1689 11.8828 16.6875C11.9678 16.5352 12.0381 16.377 12.1172 16.2188C12.3223 16.374 13.4355 17.1562 15.6328 17.1562C18.0615 17.1562 19.1484 14.4141 19.1484 14.4141C19.1484 14.4141 17.9355 13.4062 16.0781 13.4062C14.3203 13.4062 13.0049 14.8066 12.3984 15.6094C12.8818 14.4785 13.2217 13.2598 13.4062 12.0234C13.5381 12.0498 16.0459 12.501 17.4609 11.0625C18.9141 9.58594 18.6797 8.22656 18.6797 8.22656C18.6797 8.22656 16.2363 7.87793 14.9062 9.09375C14.0684 9.86133 13.626 11.1357 13.4531 11.7188C13.585 10.7227 13.6143 9.72949 13.5703 8.76562C13.8369 8.27344 14.2031 7.43262 14.2031 6.32812C14.2031 3.93164 11.3203 3 11.3203 3Z" fill="black"/>
</svg>
