<svg width="24" height="24" viewBox="0 0 24 24" fill="none" xmlns="http://www.w3.org/2000/svg">
<path d="M12 2.25C6.615 2.25 2.25 6.615 2.25 12C2.25 14.1923 2.98164 16.2077 4.20264 17.8359L14.9268 2.69824C14.0028 2.40724 13.02 2.25 12 2.25ZM15.75 3V16.5H20.644C21.3468 15.153 21.75 13.6245 21.75 12C21.75 7.94475 19.2728 4.46925 15.75 3ZM16.5381 6H16.5396H17.0903V7.28027H17.5898V6.10693H18.1348V7.28027H18.6855V6H19.2305V7.86328H16.5381V6ZM17.6367 8.41553H19.04C19.646 9.56678 19.2238 10.9863 17.8813 10.9863C16.3393 10.9863 16.1864 9.15223 16.8149 8.46973L17.2749 8.88428C16.7687 9.37553 17.0068 10.3638 17.8813 10.3638C18.6718 10.3638 18.9557 9.59739 18.6182 8.98389H18.1802V9.4585H17.6367V8.41553ZM12 8.65723L6.45264 16.5H12V8.65723ZM19.2246 11.1079V11.7759L18.6636 12.0059V13.0503L19.2246 13.2715V13.9321L16.5396 12.7661V12.2739L19.2246 11.1079ZM18.1582 12.2065L17.3291 12.5361L18.1582 12.8657V12.2065ZM17.3599 13.7402C17.9659 13.7402 18.1802 14.1235 18.1802 14.7378V15.1685H19.2305V15.75H16.5469V14.7612C16.5469 14.1552 16.7614 13.7402 17.3599 13.7402ZM17.3599 14.354C17.0989 14.354 17.0464 14.6066 17.0464 14.8594V15.167H17.6909V14.7671C17.6902 14.5376 17.5976 14.354 17.3599 14.354ZM4.32568 18C6.11068 20.2792 8.88 21.75 12 21.75V18H4.32568ZM15.75 18V21C17.3048 20.3512 18.6498 19.308 19.6743 18H15.75Z" fill="black"/>
</svg>
