<svg width="24" height="24" viewBox="0 0 24 24" fill="none" xmlns="http://www.w3.org/2000/svg">
<path d="M5.25 5.25C4.01627 5.25 3 6.26627 3 7.5V16.5C3 17.7337 4.01627 18.75 5.25 18.75H18.75C19.9837 18.75 21 17.7337 21 16.5V7.5C21 6.26627 19.9837 5.25 18.75 5.25H5.25ZM5.25 6.75H18.75C19.1738 6.75 19.5 7.07623 19.5 7.5V16.5C19.5 16.9238 19.1738 17.25 18.75 17.25H5.25C4.82623 17.25 4.5 16.9238 4.5 16.5V7.5C4.5 7.07623 4.82623 6.75 5.25 6.75ZM6 8.25V12.75H15V8.25H6ZM16.5 8.25V9.75H18V8.25H16.5ZM16.5 11.25V12.75H18V11.25H16.5ZM6 14.25V15.75H15V14.25H6ZM16.5 14.25V15.75H18V14.25H16.5Z" fill="black"/>
</svg>
