<svg width="24" height="24" viewBox="0 0 24 24" fill="none" xmlns="http://www.w3.org/2000/svg">
<path d="M18.6094 3.02344C17.9824 3.02344 17.3496 3.27539 16.875 3.75L7.35938 13.125L6.89062 13.5703C6.32812 13.6758 5.79199 13.9512 5.36719 14.4141C4.74316 15.0967 4.62012 15.9316 4.38281 16.8281C4.14551 17.7246 3.84375 18.7236 3.11719 19.8281L2.36719 21H3.75C6.68555 21 8.62207 19.5967 9.60938 18.6094L9.63281 18.5859C10.084 18.123 10.3359 17.54 10.4297 16.9453L10.8047 16.5938L20.3203 7.21875V7.19531C21.2695 6.24609 21.2695 4.69922 20.3203 3.75C19.8457 3.27539 19.2363 3.02344 18.6094 3.02344ZM18.6094 4.5C18.8438 4.5 19.0664 4.60547 19.2656 4.80469C19.667 5.20605 19.667 5.73926 19.2656 6.14062L12.4922 12.8438L11.1328 11.4844L17.9297 4.80469C18.1289 4.60547 18.375 4.5 18.6094 4.5ZM10.0547 12.5391L11.4141 13.8984L10.2891 15L8.92969 13.6406L10.0547 12.5391ZM7.47656 15.0234C7.85449 15.0352 8.26465 15.1816 8.57812 15.4688C9.16113 16.002 9.17578 16.9336 8.55469 17.5547C7.9043 18.2051 6.75 19.043 5.0625 19.3594C5.42285 18.5713 5.6748 17.8359 5.83594 17.2266C6.08496 16.2861 6.26953 15.6416 6.46875 15.4219C6.72949 15.1377 7.09863 15.0117 7.47656 15.0234Z" fill="black"/>
</svg>
