<svg width="24" height="24" viewBox="0 0 24 24" fill="none" xmlns="http://www.w3.org/2000/svg">
<path d="M10.5 3C10.0875 3 9.75 3.3375 9.75 3.75V4.5C6.4365 4.5 3.75 5.84325 3.75 7.5H3C2.175 7.5 1.5 8.175 1.5 9C1.5 9.825 2.175 10.5 3 10.5H4.03125L5.08594 18.936C5.17969 19.6868 5.81747 20.25 6.57422 20.25H17.4258C18.1825 20.25 18.821 19.6868 18.9155 18.936L19.9688 10.5H21C21.825 10.5 22.5 9.825 22.5 9C22.5 8.175 21.825 7.5 21 7.5H20.25C20.25 5.84325 17.5635 4.5 14.25 4.5V3.75C14.25 3.3375 13.9125 3 13.5 3H10.5ZM11.4961 6.14062C11.7816 6.16709 12.0366 6.37922 12.1055 6.72656C14.8527 5.88206 17.25 6.76357 17.25 9.46582C17.25 12.4306 14.3138 15.2743 12 14.7261V18.5317V18.5391C12.0075 18.6688 12.0441 19.0144 11.8198 19.2656C11.4546 19.6691 10.5481 19.6467 10.4341 18.4175C10.2781 16.7277 10.4411 10.5742 10.4868 9.18896C9.66857 9.75971 8.26172 11.1019 8.26172 12.0762C8.26922 12.1714 8.27619 12.2295 8.28369 12.252C8.29119 12.252 8.53146 12.1479 8.70996 12.1479C9.72246 12.1479 9.49786 13.8267 8.16211 13.8267C7.34461 13.8274 6.75 13.1399 6.75 12.1919C6.75 10.5936 8.38228 8.55295 10.582 7.37695C10.6203 6.9052 10.6962 6.53947 10.9819 6.30322C11.1417 6.17469 11.3248 6.12474 11.4961 6.14062ZM13.9043 8.0127C13.3204 8.0192 12.6775 8.16452 12.1128 8.37012C12.064 9.86937 12.0188 11.4422 12 12.9302C12.0262 13.0367 12.0974 13.166 12.5654 13.166C13.9439 13.166 15.6893 11.5371 15.6855 9.50537C15.6855 8.37756 14.8775 8.00185 13.9043 8.0127Z" fill="black"/>
</svg>
