<svg width="24" height="24" viewBox="0 0 24 24" fill="none" xmlns="http://www.w3.org/2000/svg">
<path d="M21 12C21 7.03711 16.9629 3 12 3C7.03711 3 3 7.03711 3 12V12.3398L9 17.5898V21H15V17.5898L21 12.3398V12ZM12 4.77246C12.6504 5.47852 13.8164 7.15137 14.1533 10.2422C13.6113 9.96094 12.9053 9.75 12 9.75C11.0947 9.75 10.3887 9.96094 9.84668 10.2422C10.1836 7.14844 11.3525 5.47559 12 4.77246ZM8.31445 12.2988L10.1133 16.5H10.0312L4.75195 11.8799C5.03906 11.5869 5.54297 11.25 6.375 11.25C7.80176 11.25 8.29395 12.2637 8.31445 12.2988ZM11.7451 16.5L9.85547 12.0938C10.1426 11.7686 10.7842 11.25 12 11.25C13.2188 11.25 13.8633 11.7715 14.1445 12.0908L12.2549 16.5H11.7451ZM13.8867 16.5L15.6855 12.2988C15.6943 12.2871 16.166 11.25 17.625 11.25C18.4512 11.25 18.9551 11.5898 19.2451 11.8828L13.9688 16.5H13.8867ZM19.2451 10.084C18.8086 9.88477 18.2754 9.75 17.625 9.75C16.793 9.75 16.1514 9.96973 15.6592 10.2627C15.4014 7.65527 14.6016 5.86816 13.8574 4.74023C16.4824 5.41406 18.5537 7.46777 19.2451 10.084ZM10.1396 4.74316C9.39844 5.86816 8.59863 7.65527 8.34082 10.2627C7.84863 9.96973 7.20703 9.75 6.375 9.75C5.72461 9.75 5.19141 9.88477 4.75488 10.084C5.44629 7.46777 7.51758 5.41406 10.1396 4.74316ZM13.5 19.5H10.5V18H13.5V19.5Z" fill="black"/>
</svg>
