<svg width="24" height="24" viewBox="0 0 24 24" fill="none" xmlns="http://www.w3.org/2000/svg">
<path d="M4.5 2.25V21.75H19.5V2.25H4.5ZM6 3.75H18V20.25H6V3.75ZM12 6C9.52441 6 7.5 8.02441 7.5 10.5C7.5 12.9756 9.52441 15 12 15C14.4756 15 16.5 12.9756 16.5 10.5C16.5 8.02441 14.4756 6 12 6ZM12.5156 7.57031C12.8789 7.63184 13.2188 7.74316 13.5234 7.92188L13.5703 8.46094L13.2188 8.32031L12.9375 8.55469L12.9844 9.23438L13.7109 9.02344L14.6016 9.30469L14.3672 9.70312L13.8281 9.375L13.2422 9.46875L12.6797 9.89062L12.3516 10.875L12.9844 11.3906C12.9844 11.3906 13.6523 11.2734 13.6875 11.2734C13.7227 11.2734 13.9688 11.8828 13.9688 11.8828L13.5938 13.0312C13.1338 13.3184 12.5889 13.5 12 13.5C11.8242 13.5 11.6514 13.459 11.4844 13.4297L11.3438 13.1953L11.6953 11.8828L10.3594 10.875H9.11719L9.02344 10.6875C9.02051 10.623 9 10.5645 9 10.5C9 10.3389 9.02344 10.1836 9.04688 10.0312L9.67969 9.53906L11.0156 8.90625L10.8047 8.03906L11.3906 7.92188L11.6484 8.29688L12.6562 8.10938L12.5156 7.57031ZM9.79688 12.5391H10.0312L10.4766 13.0781C10.2217 12.9287 9.99609 12.7529 9.79688 12.5391ZM7.5 16.5V18H16.5V16.5H7.5Z" fill="black"/>
</svg>
