<svg width="24" height="24" viewBox="0 0 24 24" fill="none" xmlns="http://www.w3.org/2000/svg">
<path d="M17.8594 3.02344C17.042 3.02344 16.21 3.33691 15.5859 3.96094L8.625 10.9219L4.52344 12.4922L4.125 12.6562L4.05469 13.0781L3 20.1328L2.85938 21.1406L3.86719 21L10.9219 19.9453L11.3438 19.875L11.5078 19.4766L12.9844 15.5859L13.3594 15.2344L20.1094 8.48438C21.3193 7.27441 21.3428 5.33203 20.2031 4.07812L20.1094 3.96094C19.4854 3.33691 18.6768 3.02344 17.8594 3.02344ZM17.8594 4.5C18.2812 4.5 18.7031 4.6875 19.0547 5.03906C19.7578 5.74219 19.7578 6.72656 19.0547 7.42969L15.2812 11.2031L12.8906 8.8125L16.6641 5.03906C17.0156 4.6875 17.4375 4.5 17.8594 4.5ZM11.8125 9.89062L14.2031 12.2812L12.8438 13.6406L10.4531 11.25L11.8125 9.89062ZM9.30469 12.2578H9.32812L11.7422 14.6719L10.2656 18.5391L5.88281 19.1719L7.89844 17.1562C7.93945 17.1592 7.97461 17.1797 8.01562 17.1797C8.67773 17.1797 9.23438 16.6465 9.23438 15.9844C9.23438 15.3223 8.67773 14.7656 8.01562 14.7656C7.35352 14.7656 6.82031 15.3223 6.82031 15.9844C6.82031 16.0254 6.84082 16.0605 6.84375 16.1016L4.82812 18.1172L5.46094 13.7344L9.30469 12.2578Z" fill="black"/>
</svg>
