<svg width="24" height="24" viewBox="0 0 24 24" fill="none" xmlns="http://www.w3.org/2000/svg">
<path d="M3.75 3.75V20.25H20.25V3.75H3.75ZM5.25 5.25H18.75V18.75H5.25V5.25ZM15.0952 6.65771C14.5177 6.65771 13.938 6.87746 13.5015 7.31396L7.30225 13.5132L7.27881 13.7476L6.92725 16.2334L6.76318 17.2412L7.771 17.0771L10.2554 16.7256L10.4897 16.7021L16.6904 10.5029C17.5604 9.63293 17.5604 8.18543 16.6904 7.31543C16.2532 6.87818 15.6727 6.65771 15.0952 6.65771ZM15.0952 8.15771C15.2857 8.15771 15.485 8.2194 15.6343 8.36865C15.9245 8.6589 15.933 9.1014 15.6577 9.3999L15.6343 9.42334L9.78662 15.2944L8.54443 15.4585L8.7085 14.2163L14.5796 8.36865C14.7288 8.2194 14.9055 8.15771 15.0952 8.15771Z" fill="black"/>
</svg>
