<svg width="24" height="24" viewBox="0 0 24 24" fill="none" xmlns="http://www.w3.org/2000/svg">
<path d="M14.3672 2.25003C13.793 2.25296 13.2334 2.47561 12.8203 2.92971C12.8145 2.93557 12.8262 2.94729 12.8203 2.95315C11.8975 3.88186 11.54 4.80471 11.2266 5.62503C11.0918 5.97952 10.957 6.3135 10.7812 6.65628C10.4355 6.25784 9.9375 6.00003 9.375 6.00003C8.34961 6.00003 7.5 6.84964 7.5 7.87503C7.5 8.90042 8.34961 9.75003 9.375 9.75003C9.93164 9.75003 10.4121 9.48635 10.7578 9.09378L10.8047 9.14065L3.96094 15.961L3.75 16.1953V19.1719L3 19.9453L4.05469 21L4.82812 20.25H7.80469L8.03906 20.0391L20.4609 7.59378L20.4844 7.57034C21.3486 6.70608 21.3486 5.29397 20.4844 4.42971L19.5703 3.51565C19.1367 3.08206 18.5742 2.8594 18 2.8594C17.4639 2.8594 16.9424 3.06741 16.5234 3.44534L15.9844 2.92971C15.542 2.48733 14.9502 2.2471 14.3672 2.25003ZM14.3906 3.75003C14.5752 3.75296 14.7744 3.82913 14.9297 3.9844L15.4453 4.50003L10.8516 9.07034C11.8682 7.99221 12.3164 6.99026 12.6328 6.16409C12.9551 5.32034 13.1572 4.70217 13.875 3.9844L13.9219 3.93753C14.0332 3.81155 14.2061 3.7471 14.3906 3.75003ZM18 4.33596C18.1758 4.33596 18.3486 4.40335 18.5156 4.57034L19.4297 5.4844C19.7637 5.81839 19.7637 6.18167 19.4297 6.51565L18.75 7.1719L16.8281 5.25003L17.4141 4.66409L17.4844 4.57034C17.6514 4.40335 17.8242 4.33596 18 4.33596ZM15.75 6.32815L17.6719 8.25003L12 13.9219L10.0781 12L15.75 6.32815ZM9.375 7.50003C9.5918 7.50003 9.75 7.65823 9.75 7.87503C9.75 8.09182 9.5918 8.25003 9.375 8.25003C9.1582 8.25003 9 8.09182 9 7.87503C9 7.65823 9.1582 7.50003 9.375 7.50003ZM9 13.0782L10.9219 15L7.17188 18.75H5.25V16.8282L9 13.0782Z" fill="black"/>
</svg>
