<svg width="24" height="24" viewBox="0 0 24 24" fill="none" xmlns="http://www.w3.org/2000/svg">
<path d="M6.60938 2.25L6.09375 2.78906L2.78906 6.09375L2.25 6.60938L7.64062 12L3.89062 15.75L3.84375 15.9844L3.02344 20.1094L2.78906 21.2109L3.89062 20.9766L8.01562 20.1562L8.25 20.1094L12 16.3594L17.3672 21.7266L17.8828 21.1875L21.1875 17.8828L21.7266 17.3672L16.3594 12L20.0625 8.29688C21.2695 7.08984 21.2695 5.14453 20.0625 3.9375C19.459 3.33398 18.6709 3.02344 17.8828 3.02344C17.0947 3.02344 16.3066 3.33398 15.7031 3.9375L12 7.64062L6.60938 2.25ZM6.60938 4.38281L8.0625 5.85938L6.96094 6.96094L8.03906 8.03906L9.14062 6.9375L10.9219 8.71875L8.69531 10.9453L4.35938 6.60938L6.60938 4.38281ZM17.8828 4.47656C18.2725 4.47656 18.668 4.65234 19.0078 4.99219C19.6846 5.66895 19.6846 6.54199 19.0078 7.21875L18.5156 7.71094L16.2891 5.48438L16.7812 4.99219C17.1211 4.65234 17.4932 4.47656 17.8828 4.47656ZM15.2344 6.53906L17.4609 8.76562L8.39062 17.8359C7.89551 16.8838 7.11621 16.1045 6.16406 15.6094L15.2344 6.53906ZM15.3047 13.0547L17.0859 14.8359L15.9609 15.9609L17.0391 17.0391L18.1641 15.9141L19.5938 17.3438L17.3438 19.5938L13.0547 15.3047L15.3047 13.0547ZM5.20312 16.8047C6.10254 17.1826 6.81738 17.8975 7.19531 18.7969L4.71094 19.2891L5.20312 16.8047Z" fill="black"/>
</svg>
