<svg width="24" height="24" viewBox="0 0 24 24" fill="none" xmlns="http://www.w3.org/2000/svg">
<path d="M17.7656 5.25444C17.6445 5.24309 17.5199 5.25276 17.3965 5.2852C14.761 5.9797 15.9435 5.66775 12.3105 6.627C11.9813 6.714 11.7178 6.95428 11.603 7.27153C5.41028 6.71428 0 8.21459 0 10.9146C0 12.1551 1.15044 13.3993 3.03369 14.4463L3.09961 15.1084C2.66161 15.2749 2.38739 15.7085 2.43164 16.1705L2.59277 17.8169C2.64527 18.3472 3.09724 18.7508 3.63574 18.75C3.82999 18.75 3.52246 18.8158 8.23096 17.5738C8.70271 17.4493 9.02318 17.0174 9.00293 16.5367C17.1254 18.2212 24.0773 16.3158 23.9985 13.396C23.9993 12.3528 23.1672 10.9292 20.3247 9.52592L18.6196 5.85356C18.4593 5.50987 18.129 5.28847 17.7656 5.25444ZM17.666 6.27983L20.1665 11.6675L20.9473 11.461L21.1084 13.1075L17.0376 14.1812L16.8911 12.7193L17.4492 12.5713L17.2017 12.0279L15.0352 12.5992L14.8813 13.2481L15.6021 13.0577L15.7544 14.5225L11.521 15.6358L11.354 13.9908L12.1421 13.7842L13.3828 9.10112L12.7383 9.26957L12.5815 7.62162C16.0825 6.69612 15.0193 6.97658 17.666 6.27983ZM9.87598 8.45219C12.0007 8.41019 12.2812 11.1126 11.4712 12.3194C11.0107 12.9486 10.3349 13.3919 9.56836 13.5674L8.74512 13.7842L6.93018 14.2618L7.02246 15.1348L7.79297 14.9297L7.96143 16.5791L3.63721 17.7188L3.47607 16.0708L4.22754 15.8716L3.81006 11.628L3.05566 11.8272L2.8916 10.1792C9.5726 8.41899 9.27448 8.46044 9.87598 8.45219ZM15.8218 8.60307C15.653 9.32307 15.7701 8.82778 15.2563 11.0215L16.7461 10.6289C15.9076 8.79145 16.097 9.20532 15.8218 8.60307ZM8.31152 10.4576C8.24236 10.4631 8.16943 10.4748 8.09326 10.4956C7.33576 10.6959 7.66845 10.6092 6.60645 10.8882L6.77344 12.5992C7.83019 12.3179 7.54758 12.393 8.08008 12.2535C9.56789 11.9131 9.3489 10.3742 8.31152 10.4576Z" fill="black"/>
</svg>
