<svg width="24" height="24" viewBox="0 0 24 24" fill="none" xmlns="http://www.w3.org/2000/svg">
<path d="M6 3.75C4.7595 3.75 3.75 4.7595 3.75 6C3.75 7.2405 4.7595 8.25 6 8.25C7.2405 8.25 8.25 7.2405 8.25 6C8.25 4.7595 7.2405 3.75 6 3.75ZM18 3.75C16.7595 3.75 15.75 4.7595 15.75 6C15.75 7.2405 16.7595 8.25 18 8.25C19.2405 8.25 20.25 7.2405 20.25 6C20.25 4.7595 19.2405 3.75 18 3.75ZM6 5.25C6.414 5.25 6.75 5.586 6.75 6C6.75 6.414 6.414 6.75 6 6.75C5.586 6.75 5.25 6.414 5.25 6C5.25 5.586 5.586 5.25 6 5.25ZM18 5.25C18.414 5.25 18.75 5.586 18.75 6C18.75 6.414 18.414 6.75 18 6.75C17.586 6.75 17.25 6.414 17.25 6C17.25 5.586 17.586 5.25 18 5.25ZM5.13574 9C4.81249 9 4.52583 9.20595 4.42383 9.5127L3.09521 13.4985C2.89046 14.1113 3.10031 14.7856 3.63281 15.1846L6 16.875V21H7.5V16.875C7.5 16.4047 7.27548 15.9553 6.88623 15.665L4.51758 13.9746L5.58691 10.7695C5.84191 11.4408 6.2666 12.5259 6.2666 12.5259C6.4451 12.9886 6.77453 13.3819 7.19678 13.6392L9 15H15L16.8047 13.6392C17.2262 13.3827 17.5556 12.9886 17.7334 12.5288C17.7334 12.5288 18.152 11.4581 18.416 10.7651L19.4956 13.9644L17.1021 15.6738C16.7256 15.9551 16.5 16.4047 16.5 16.875V21H18L17.9868 16.8853L20.3833 15.1743C20.9008 14.7858 21.1095 14.112 20.9048 13.5L19.5762 9.5127C19.4749 9.20595 19.1875 9 18.8643 9H18.3779C18.0389 9 17.4275 9.11845 17.1357 9.9082C16.9452 10.4302 16.3374 11.9816 16.3359 11.9854C16.2737 12.1459 16.1577 12.2815 16.0107 12.3662C15.9837 12.3812 15.9586 12.398 15.9346 12.416L15 13.1191V9H9V13.1191L8.06543 12.416C8.04068 12.398 8.01551 12.382 7.98926 12.3662C7.84151 12.2807 7.72706 12.1459 7.66406 11.9824C7.66406 11.9824 7.05626 10.4288 6.86426 9.90527C6.57401 9.11702 5.96107 9 5.62207 9H5.13574ZM10.5 10.5H13.5V13.5H10.5V10.5ZM3.19336 15.7925L3.04102 17.3291C3.02452 17.4949 2.98111 17.6544 2.91211 17.8052L1.4502 21H3.09961L4.27588 18.4292C4.41388 18.1284 4.49994 17.8086 4.53369 17.4771L4.60107 16.7974L3.19629 15.7954C3.19554 15.7947 3.19411 15.7932 3.19336 15.7925ZM20.8066 15.7925L19.3989 16.7974L19.4663 17.4785C19.5001 17.8085 19.5861 18.1277 19.7241 18.4292L20.9004 21H22.5498L21.0879 17.8052C21.0189 17.6544 20.9762 17.4941 20.959 17.3291L20.8066 15.7925Z" fill="black"/>
</svg>
