<svg width="24" height="24" viewBox="0 0 24 24" fill="none" xmlns="http://www.w3.org/2000/svg">
<path d="M21 3.75V2.25C19.5088 2.25 18.3457 2.66602 17.5459 3.48047C17.083 3.95215 16.834 4.47656 16.6904 4.92773C16.3096 4.66406 15.8672 4.5 15.375 4.5C13.4824 4.5 12.7676 6.00586 12.75 7.03125C12.75 7.19531 12.7441 7.36816 12.7324 7.54688C12.2285 9.03809 11.25 8.05078 11.25 6C8.83301 8.56641 11.4375 9.5127 9.95215 10.998C9.63574 11.3145 8.87988 11.4375 8.4082 10.8574C7.78418 10.1162 9.05273 8.89746 7.85156 7.98633C8.07129 9.35742 7.01367 9.07324 6.65625 8.78027C6.19043 8.39941 5.34375 7.56152 6.75 5.25C5.31152 5.90625 4.44434 7.23926 4.5 8.25C4.64941 10.9014 8.74805 13.2041 7.09277 14.751C6.25781 15.5332 4.61719 14.4756 5.25 12.75C4.46191 13.1514 3.53613 14.1064 3.83203 15.5918C4.03711 16.6201 5.53125 18.9375 3 20.25C3 20.25 3.01172 20.2529 3.03223 20.2588L2.96777 21.75C3.01758 21.7529 3.21973 21.7588 3.54492 21.7588C5.6543 21.7588 12.9551 21.4336 17.4492 17.1299C19.8047 14.874 21 11.8857 21 8.25C21 7.21289 20.5283 5.25 18.75 5.25C18.5303 5.25 18.3252 5.2793 18.1318 5.32617C18.2168 5.07422 18.3633 4.78711 18.6152 4.5293C19.125 4.01367 19.9248 3.75 21 3.75ZM18.75 6.75C19.459 6.75 19.5 8.23828 19.5 8.25C19.5 11.458 18.46 14.0801 16.415 16.043C13.0957 19.2246 7.86621 20.0127 5.02734 20.2002C5.71875 20.042 6.55078 19.7197 7.46191 19.1045C11.8506 16.6992 14.1592 11.0273 14.2441 7.25098H14.25V7.0459C14.2529 6.87012 14.3232 6 15.375 6C16.0166 6 16.5 6.91113 16.5 7.5H18C18 7.17773 18.0791 6.75 18.75 6.75Z" fill="black"/>
</svg>
