<svg width="24" height="24" viewBox="0 0 24 24" fill="none" xmlns="http://www.w3.org/2000/svg">
<path d="M7.125 4.5C5.68359 4.5 4.5 5.68359 4.5 7.125V9.375C4.5 10.8164 5.68359 12 7.125 12C8.56641 12 9.75 10.8164 9.75 9.375V7.125C9.75 5.68359 8.56641 4.5 7.125 4.5ZM15.5625 4.5L6.5625 19.5H8.4375L17.4375 4.5H15.5625ZM7.125 6C7.75488 6 8.25 6.49512 8.25 7.125V9.375C8.25 10.0049 7.75488 10.5 7.125 10.5C6.49512 10.5 6 10.0049 6 9.375V7.125C6 6.49512 6.49512 6 7.125 6ZM16.875 12C15.4336 12 14.25 13.1836 14.25 14.625V16.875C14.25 18.3164 15.4336 19.5 16.875 19.5C18.3164 19.5 19.5 18.3164 19.5 16.875V14.625C19.5 13.1836 18.3164 12 16.875 12ZM16.875 13.5C17.5049 13.5 18 13.9951 18 14.625V16.875C18 17.5049 17.5049 18 16.875 18C16.2451 18 15.75 17.5049 15.75 16.875V14.625C15.75 13.9951 16.2451 13.5 16.875 13.5Z" fill="black"/>
</svg>
