<svg width="24" height="24" viewBox="0 0 24 24" fill="none" xmlns="http://www.w3.org/2000/svg">
<path d="M12.0879 3.07765C9.86114 3.0214 7.63124 3.77443 5.87549 5.13868C3.79349 6.74068 2.3985 9.24078 2.25 11.874V13.0576C2.32725 14.2801 2.65304 15.4739 3.20654 16.5674C3.99254 18.1026 5.18693 19.3917 6.65918 20.2925C9.42818 22.0295 13.0674 22.2157 16.0239 20.8477C17.8809 20.0024 19.463 18.5561 20.4492 16.7681C21.0792 15.6303 21.4596 14.3727 21.5669 13.0767C21.5856 12.5959 21.5856 12.1145 21.5669 11.6338C21.4401 10.2028 21.033 8.78736 20.2485 7.57911C20.8103 8.81511 20.9669 10.1844 20.7554 11.5254C20.5536 12.6639 20.0395 13.7244 19.27 14.5869C19.3503 14.1744 19.4925 13.7778 19.5645 13.3623C19.6545 12.8283 19.7017 12.2814 19.626 11.7422C19.5562 10.9442 19.4668 9.92619 19.1645 9.19044C19.1683 9.47319 19.1451 9.75655 19.1645 10.04C19.2163 11.3293 18.7293 12.8926 17.9575 13.9321C17.2188 14.9499 16.1372 15.7603 14.8989 16.0415C14.3544 16.1533 13.7458 16.1519 13.2583 15.8496C12.7985 15.5729 12.5422 15.0465 12.4687 14.5298C12.366 13.7063 12.5616 12.8707 12.9141 12.1275C13.3528 11.2095 14.0281 10.4247 14.8726 9.85694C15.0473 9.73469 15.254 9.64716 15.3867 9.47316C15.8645 8.88066 16.3531 8.29536 16.9014 7.76661C17.4541 7.20561 17.9827 6.70364 18.564 6.24464C17.463 6.21389 16.5579 6.66176 15.5874 7.11476C14.4017 7.69751 13.277 8.39737 12.23 9.20362C11.564 9.71662 11.2013 10.2197 10.437 10.5864C9.99601 10.8039 9.49472 10.8582 9.01172 10.793C9.76472 11.0832 10.6017 10.9969 11.3569 10.7637C11.8257 10.6144 12.0155 10.5004 12.4468 10.2642C12.5188 10.2109 12.6038 10.2412 12.6841 10.2539C12.6803 10.4182 12.7292 10.6144 12.5859 10.7359C12.2334 11.1019 11.8124 11.3941 11.3774 11.6514C10.8667 11.9416 10.3145 12.1751 9.73096 12.2681C9.24346 12.3611 8.73895 12.2712 8.31445 12.0147C7.7632 11.6682 7.55242 10.976 7.56592 10.3535C7.60492 9.43703 7.97631 8.56188 8.49756 7.81788C9.29181 6.70563 10.4563 5.87137 11.7568 5.45362C12.2811 5.26387 12.8354 5.19534 13.3799 5.09034C12.6381 5.00109 11.8871 4.93832 11.1416 5.01857C10.3961 5.07782 9.66424 5.28114 8.97949 5.57814C8.78224 5.66064 8.58973 5.76183 8.37598 5.79933C9.46348 4.58958 10.9806 3.76569 12.5991 3.56544C13.5194 3.41844 14.0887 3.37751 15 3.55226C13.95 3.17576 13.2046 3.0634 12.0879 3.07765ZM15.2534 7.57911C15.2122 7.77861 15.0513 7.9357 14.8623 8.00245C14.6673 8.08045 14.4658 8.13712 14.2588 8.17237C14.5738 7.95412 14.9144 7.76811 15.2534 7.57911Z" fill="black"/>
</svg>
