<svg width="24" height="24" viewBox="0 0 24 24" fill="none" xmlns="http://www.w3.org/2000/svg">
<path d="M5.01855 4.49999C3.58659 4.5104 1.96295 4.92343 0.827637 5.75096C0.799887 5.77271 0.77475 5.79295 0.75 5.81395C0.75375 5.8207 0.754324 5.82478 0.757324 5.83153C0.785824 5.83153 0.81232 5.82721 0.84082 5.82421C1.06207 5.78896 1.28104 5.79621 1.49854 5.83446C2.33554 5.98596 3.17489 6.64666 3.46289 8.52391C3.64889 9.72991 3.43814 10.3105 3.74414 11.5517C4.41239 14.2622 6.9446 15.335 8.23535 15.293C8.36885 15.2892 9.03652 15.2431 9.13477 15.2153C9.05002 15.1238 7.60214 15.1807 6.74414 13.4722C6.59264 13.1699 6.47955 12.8527 6.51855 12.501C6.62055 11.6047 7.67543 11.4463 8.34668 11.8506C9.61268 12.6096 10.572 15.0608 12.3442 15.2783C13.6447 15.4366 15.3189 14.6799 16.1484 13.6816C16.1274 13.6779 16.12 13.6757 16.1133 13.6787C16.099 13.6824 16.0842 13.6852 16.0737 13.689C14.903 14.1142 12.7584 14.0307 11.3379 13.1689C10.0156 12.3672 9.47134 11.1041 9.51709 10.5454C9.58009 9.7969 10.3223 9.73092 10.7798 9.85692C11.286 9.99417 11.6372 10.4751 12.1465 10.8193C12.6947 11.1846 13.3039 11.3004 13.9512 11.1811C14.4747 11.0859 15.1601 10.7486 15.2344 10.6714C15.1954 10.6676 15.1712 10.6685 15.1465 10.6655C14.9282 10.6445 14.7106 10.6377 14.4961 10.6055C10.5871 10.0257 9.96464 4.85278 5.61914 4.51903C5.42442 4.50412 5.22312 4.4985 5.01855 4.49999ZM4.63916 5.23094C4.60016 5.74769 3.85747 5.97971 3.39697 5.46971C3.36472 5.43446 3.36506 5.4279 3.35156 5.3994C3.77681 5.3079 4.20266 5.25569 4.63916 5.23094ZM10.1191 6.52733C10.1536 6.56633 10.1728 6.58836 10.1938 6.60936C10.7211 7.16136 11.3212 7.61781 12 7.96581C12.8123 8.37756 13.6638 8.5993 14.5811 8.5078C14.8938 8.4793 15.1955 8.39831 15.4805 8.25731C15.5015 8.24681 15.5225 8.22908 15.5435 8.21483C15.5225 8.20433 15.505 8.20083 15.4907 8.20458C15.3392 8.22258 15.1925 8.25039 15.041 8.26464C14.5843 8.30664 14.1522 8.23696 13.7622 7.98046C13.1292 7.56196 12.6893 7.10448 11.9971 6.82323C11.1638 6.48573 10.3861 6.52733 10.1191 6.52733ZM11.4302 8.25145C11.3912 8.30245 11.4523 8.3291 11.4771 8.35985C13.1121 10.3166 15.9306 10.618 17.6953 9.98729C19.0206 9.51629 19.8973 10.2562 20.0728 11.0024C20.0758 11.0159 20.0821 11.0329 20.0889 11.0464C20.0956 11.0426 20.1041 11.042 20.1108 11.042C20.1108 10.7367 20.0537 10.3881 19.9307 10.0693C19.7229 9.53082 19.369 9.11648 18.8027 8.89598C17.917 8.55323 17.0416 8.83106 16.4648 9.00731C15.5753 9.28181 14.7277 9.39081 13.6567 9.18456C12.8827 9.03831 12.1731 8.7499 11.5371 8.2954C11.5049 8.2714 11.4339 8.2447 11.4302 8.25145ZM17.7905 11.5825C17.5686 11.5732 17.3326 11.5859 17.0801 11.6221C16.0158 11.7766 15.4082 12.2582 14.647 12.7119C13.9952 13.0952 13.6041 13.0505 12.7544 12.917C12.7544 12.9237 12.75 12.9263 12.75 12.9331C12.7635 12.9398 12.7732 12.9483 12.7837 12.9551C13.5007 13.3203 14.1148 13.3556 15.0396 13.2363C16.0836 13.0991 16.5743 12.7259 17.1548 12.3779C17.8545 11.9594 18.5064 12.0828 19.4927 12.2373C19.4957 12.2305 19.4963 12.2221 19.5 12.2153C18.9982 11.8356 18.4563 11.6104 17.7905 11.5825ZM19.207 12.7002C18.1001 12.7825 17.4377 13.4513 16.8398 14.0727C16.5773 14.3465 16.3183 14.6219 16.0415 14.8784C15.5158 15.3704 15.0983 15.4089 15 15.4614V15.4761C15.2175 15.4903 15.9357 15.4579 16.5732 15.3281C19.0197 14.8249 19.0691 13.0702 20.2046 13.0635C20.4678 13.0635 20.7225 13.0839 20.9678 13.1792C20.9745 13.1829 20.9827 13.1792 21 13.1792C20.9895 13.1649 20.9856 13.1552 20.9751 13.1484C20.7366 12.9902 20.5187 12.7646 19.7095 12.7016C19.5321 12.6876 19.3652 12.6884 19.207 12.7002ZM20.9194 13.6611C20.4908 13.6215 20.0823 13.7409 19.6919 13.9834C19.6814 13.9909 19.6704 14.0054 19.6494 14.0332C19.9022 14.0512 20.2864 14.0621 20.6382 14.3291C21.0634 14.6531 21.3158 15.0385 21.7485 15.1758C22.452 15.3978 23.127 15.0985 23.25 14.9897C23.2432 14.9755 23.2391 14.9728 23.2354 14.9751C23.1611 14.9541 22.8033 14.9712 22.4238 14.6059C22.0301 14.2302 21.794 13.9026 21.3545 13.7549C21.2069 13.7048 21.0623 13.6743 20.9194 13.6611ZM5.26465 15L5.25 15.0132C5.31375 15.1219 5.74643 15.6383 5.90918 15.8086C7.02593 16.9868 8.76963 17.935 10.2861 17.8945C11.3916 17.8638 12.1582 17.616 13.0327 17.685C13.8765 17.7458 14.2863 17.9505 14.4565 18.0015C14.4603 17.9947 14.4674 17.9906 14.4712 17.9839C14.4007 17.8849 14.1985 17.6874 14.1138 17.6191C12.9018 16.6606 11.597 17.1778 10.6685 16.7563C10.2575 16.5696 10.2401 16.3211 10.4209 16.1719C10.5589 16.0526 10.615 16.0328 11.2705 15.9038C11.1955 15.7883 10.5474 15.4899 9.74268 15.8057C8.91018 16.1312 8.06357 16.1547 7.20557 15.917C6.17432 15.632 5.49865 15.1395 5.26465 15ZM12.5156 18.0381C12.5059 18.0381 12.4948 18.0445 12.4775 18.0513C12.7138 18.1143 13.3954 18.2272 14.1416 19.0957C14.5834 19.6094 15.1104 19.827 15.7441 19.8765C15.7479 19.8585 15.7693 19.8481 15.6943 19.8061C15.5226 19.7079 15.3812 19.5852 15.271 19.4165C15.0452 19.0685 14.7134 18.3993 13.8472 18.1743C13.4092 18.0618 12.9641 18.0418 12.5156 18.0381Z" fill="black"/>
</svg>
