<svg width="24" height="24" viewBox="0 0 24 24" fill="none" xmlns="http://www.w3.org/2000/svg">
<path d="M2.78027 1.71973L1.71973 2.78027L7.29346 8.354L8.35547 9.41602L9.74268 10.8032V10.8047L21.2197 22.2803L22.2803 21.2197L11.8506 10.79C12.8692 9.90418 13.907 9.42212 14.3496 9.22998L15.8496 10.73C15.8856 10.766 15.9442 10.7519 15.9829 10.7842L15.813 10.9497H16.3843C16.8165 11.1489 17.2242 11.1453 17.6499 10.9497H17.6528V10.9482C17.6561 10.9467 17.6598 10.9468 17.6631 10.9453L17.6528 10.9497H17.959L21.3589 7.62891L21.3867 7.59375C21.9033 6.95284 21.9033 6.01981 21.3867 5.37891L21.3574 5.34229L18.9258 2.98389L18.9712 3.03369C18.6344 2.64264 18.1999 2.39313 17.7378 2.28369C17.2771 2.1746 16.7904 2.20547 16.3447 2.37305C14.6235 2.96996 11.3872 4.4587 8.3584 7.29785L2.78027 1.71973ZM17.1152 3.72803C17.3752 3.71595 17.6639 3.81241 17.8359 4.01221L17.8579 4.03711L20.2192 6.32812C20.2985 6.43223 20.2993 6.54194 20.2192 6.646L17.061 9.73096C17.0623 9.72556 16.9987 9.75799 16.9102 9.66943L14.6924 7.45166L14.2397 7.62305C14.2397 7.62305 12.41 8.30079 10.79 9.72949L9.41895 8.3584C12.246 5.72356 15.3145 4.3149 16.8501 3.78369L16.8604 3.78076L16.8706 3.77637C16.9457 3.74798 17.0286 3.73205 17.1152 3.72803ZM6.30469 9.48779C4.72144 11.4415 3.41055 13.7297 2.39355 16.3374C2.0883 17.2494 2.27598 18.1962 2.94873 18.98L5.27197 21.3032C5.60497 21.6362 6.0217 21.8027 6.43945 21.8027C6.85645 21.8027 7.27393 21.6355 7.60693 21.3032L10.6831 18.23C11.3499 17.5632 11.3499 16.5588 10.6831 15.8921L9.18311 14.3906C9.34361 14.0726 9.59442 13.6116 9.91992 13.1016L8.83447 12.0161C8.04922 13.1906 7.61561 14.1907 7.58936 14.2515L7.38867 14.7173L9.62256 16.9526C9.67356 17.0036 9.67356 17.1192 9.62256 17.1694L6.54639 20.2427C6.49614 20.2922 6.38352 20.2922 6.33252 20.2427L4.05029 17.9619C3.84704 17.7249 3.64148 17.3324 3.80273 16.8472C4.73273 14.4652 5.92813 12.3558 7.36963 10.5513L6.30469 9.48779Z" fill="black"/>
</svg>
