<svg width="24" height="24" viewBox="0 0 24 24" fill="none" xmlns="http://www.w3.org/2000/svg">
<path d="M14.25 0V1.5C18.7988 1.5 22.5 5.20125 22.5 9.75H24C24 4.374 19.626 0 14.25 0ZM6.48779 2.25439C6.09413 2.25439 5.70083 2.38283 5.38037 2.64111L5.34375 2.67041L2.98535 5.10352L3.03516 5.05664C2.25468 5.72881 2.03959 6.79059 2.37451 7.68311C3.00651 9.50556 4.61764 13.0297 7.7959 16.2041C10.981 19.393 14.5421 20.9351 16.3037 21.6226L16.3213 21.6284L16.3389 21.6343C17.2497 21.9396 18.2336 21.7218 18.939 21.1187L18.9609 21.0996L21.3047 18.7559C21.9268 18.1337 21.9268 17.043 21.3047 16.4209L18.2314 13.3447C17.6075 12.7208 16.5175 12.7208 15.8936 13.3447L14.4053 14.833C13.8725 14.5787 12.5616 13.919 11.3159 12.731C10.0864 11.5585 9.45877 10.2033 9.23145 9.67969L10.7314 8.17969C11.3896 7.52149 11.4271 6.39146 10.6685 5.7876L10.7373 5.85059L7.63037 2.67041L7.59522 2.64111C7.27476 2.38285 6.88146 2.25439 6.48779 2.25439ZM14.25 3V4.5C17.1443 4.5 19.5 6.855 19.5 9.75H21C21 6.0285 17.9723 3 14.25 3ZM6.48926 3.75C6.54271 3.74991 6.59543 3.77005 6.64746 3.81006L9.69727 6.93311L9.73389 6.9624C9.72526 6.95554 9.76271 7.02734 9.6709 7.11914L7.45313 9.33691L7.62451 9.78955C7.62451 9.78955 8.471 12.0911 10.2803 13.8164C12.0594 15.5132 14.2529 16.4399 14.2529 16.4399L14.7202 16.6392L16.9541 14.4053C17.0802 14.2792 17.0448 14.2792 17.1709 14.4053L20.2441 17.4814C20.372 17.6093 20.372 17.5674 20.2441 17.6953L17.959 19.9805C17.611 20.2762 17.2515 20.3537 16.8193 20.2104C15.1227 19.547 11.8045 18.0952 8.85645 15.1436C5.88799 12.1787 4.3498 8.80995 3.78516 7.17773L3.78223 7.16895L3.77783 7.15869C3.66427 6.85836 3.74728 6.42279 4.01367 6.19336L4.03858 6.17139L6.32959 3.81006C6.38164 3.77042 6.43581 3.75009 6.48926 3.75ZM14.25 6V7.5C15.4905 7.5 16.5 8.5095 16.5 9.75H18C18 7.68225 16.3178 6 14.25 6Z" fill="black"/>
</svg>
