<svg width="24" height="24" viewBox="0 0 24 24" fill="none" xmlns="http://www.w3.org/2000/svg">
<path d="M3.75 3.75V20.25H20.25V3.75H3.75ZM5.25 5.25H18.75V18.75H5.25V5.25ZM15.0952 6.75C14.7112 6.75 14.3508 6.89891 14.0801 7.17041L13.2173 8.0332C12.675 8.57545 12.675 9.52194 13.2173 10.0649L14.4976 11.3452C14.1023 11.9235 13.6481 12.4659 13.1411 12.9609L12.9521 13.1484C12.4616 13.6509 11.9198 14.1045 11.3423 14.499L10.062 13.2188C9.79126 12.9473 9.43012 12.7983 9.04688 12.7983C8.66363 12.7983 8.30252 12.9473 8.03027 13.2188L7.16748 14.083C6.60948 14.6418 6.60945 15.5523 7.16895 16.1133L7.88379 16.8296C8.27979 17.2241 8.85154 17.3547 9.37354 17.1694L9.47168 17.1372C9.84893 17.0135 10.7331 16.7236 12.1333 15.7778C12.8143 15.3188 13.4515 14.7873 14.02 14.2046L14.1958 14.0288C14.7838 13.4543 15.3144 12.8187 15.7749 12.1377C16.7207 10.7359 17.0098 9.85186 17.1343 9.47461L17.1665 9.37646C17.2213 9.21971 17.2485 9.05721 17.2485 8.89746C17.2485 8.52546 17.1019 8.16347 16.8252 7.88672L16.1104 7.17041C15.8381 6.89891 15.4785 6.75 15.0952 6.75Z" fill="black"/>
</svg>
