<svg width="24" height="24" viewBox="0 0 24 24" fill="none" xmlns="http://www.w3.org/2000/svg">
<path d="M12 5.37598C5.37375 5.37598 0 8.19902 0 11.6865C0 15.174 5.37375 17.9985 12 17.9985C18.6262 17.9985 24 15.174 24 11.6865C24 8.19902 18.6262 5.37598 12 5.37598ZM12 6.00586C18.4275 6.00586 23.3701 8.71277 23.3701 11.6865C23.3701 14.6603 18.4237 17.3687 12 17.3687C5.5725 17.3687 0.629883 14.6603 0.629883 11.6865C0.629883 8.71277 5.57625 6.00586 12 6.00586ZM10.5425 7.25684L9.32959 13.5117H10.6831L11.3818 9.92725C12.4836 9.92725 12.9394 9.88338 13.1396 10.0986C13.3474 10.3214 13.2409 10.5657 12.6694 13.5117H14.042C14.636 10.466 14.8986 9.81969 14.3496 9.31494C13.8269 8.83269 12.7437 8.91797 11.5752 8.91797L11.8975 7.25684H10.5425ZM4.86621 8.92236L3.65186 15.1816H5.01416L5.33643 13.519C6.86118 13.519 7.80834 13.6298 8.68359 12.8101C9.65184 11.9198 9.90462 10.3355 9.21387 9.54199C8.85387 9.12649 8.27428 8.92236 7.48828 8.92236H4.86621ZM15.5098 8.92236L14.2939 15.1816H15.6592L15.9814 13.519C17.5842 13.519 18.4714 13.6118 19.3286 12.8101C20.2969 11.9198 20.5496 10.3355 19.8589 9.54199C19.4989 9.12649 18.9193 8.92236 18.1333 8.92236H15.5098ZM7.00195 9.9082C7.85309 9.93218 8.34015 10.1124 8.13428 11.1812C7.84103 12.6842 6.80693 12.5288 5.53418 12.5288L6.04248 9.90967C6.39498 9.90967 6.71824 9.90021 7.00195 9.9082ZM17.647 9.9082C18.4992 9.93218 18.9808 10.1124 18.7749 11.1812C18.4779 12.7059 17.4138 12.5288 16.1748 12.5288L16.6831 9.90967C17.0375 9.90967 17.3629 9.90021 17.647 9.9082Z" fill="black"/>
</svg>
