<svg width="24" height="24" viewBox="0 0 24 24" fill="none" xmlns="http://www.w3.org/2000/svg">
<path d="M10.1016 3C9.46582 3 8.89453 3.20215 8.34375 3.44531H5.25V15.75L6.14062 15.5625L8.83594 15.0234L9.44531 14.9062V12.5391C9.55078 12.5566 9.65039 12.6035 9.75 12.6328V21.1641L10.6406 20.9766L13.3359 20.4375L13.9453 20.3203V17.9531C14.1709 17.9883 14.3672 18.0938 14.6016 18.0938C17.1709 18.0938 19.2422 15.8848 19.2422 13.2422C19.2422 10.6348 17.2207 8.4668 14.6953 8.41406C14.7188 8.2207 14.7422 8.02734 14.7422 7.82812C14.7422 5.18555 12.6709 3 10.1016 3ZM10.1016 4.5C11.8184 4.5 13.2422 5.95605 13.2422 7.82812C13.2422 9.7002 11.8184 11.1797 10.1016 11.1797C9.70312 11.1797 9.32812 11.0918 8.97656 10.9453L7.94531 10.5234V13.6641L6.75 13.9219V4.94531H8.53125L8.69531 4.85156C9.12012 4.62305 9.59473 4.5 10.1016 4.5ZM9.46875 5.08594C9.0498 5.08594 8.66016 5.21777 8.32031 5.41406L7.94531 5.625V9.98438L8.32031 10.1953C8.66016 10.3916 9.05273 10.5234 9.46875 10.5234C10.8838 10.5234 11.9531 9.24609 11.9531 7.80469C11.9531 6.36328 10.8838 5.08594 9.46875 5.08594ZM9.44531 6.58594C9.4541 6.58594 9.45996 6.58594 9.46875 6.58594C9.96387 6.58594 10.4531 7.07812 10.4531 7.80469C10.4531 8.53125 9.96387 9.02344 9.46875 9.02344C9.45996 9.02344 9.4541 9.02344 9.44531 9.02344V6.58594ZM14.6016 9.91406C16.3184 9.91406 17.7422 11.3701 17.7422 13.2422C17.7422 15.1143 16.3184 16.5938 14.6016 16.5938C14.2031 16.5938 13.8281 16.5059 13.4766 16.3594L12.4453 15.9375V19.0781L11.25 19.3359V12.5391C11.6719 12.4248 12.0791 12.249 12.4453 12.0234V15.3984L12.8203 15.6094C13.1602 15.8057 13.5527 15.9375 13.9688 15.9375C15.3838 15.9375 16.4531 14.6602 16.4531 13.2188C16.4531 11.7773 15.3838 10.5 13.9688 10.5C14.0801 10.3242 14.1592 10.1279 14.25 9.9375C14.25 9.93457 14.2734 9.94043 14.2734 9.9375C14.3789 9.92285 14.4932 9.91406 14.6016 9.91406ZM13.9453 12C13.9541 12 13.96 12 13.9688 12C14.4639 12 14.9531 12.4922 14.9531 13.2188C14.9531 13.9453 14.4639 14.4375 13.9688 14.4375C13.96 14.4375 13.9541 14.4375 13.9453 14.4375V12Z" fill="black"/>
</svg>
