<svg width="24" height="24" viewBox="0 0 24 24" fill="none" xmlns="http://www.w3.org/2000/svg">
<path d="M6.375 3.75C4.10025 3.75 2.25 5.601 2.25 7.875V16.125C2.25 18.399 4.10025 20.25 6.375 20.25C8.64975 20.25 10.5 18.399 10.5 16.125V7.875C10.5 5.601 8.64975 3.75 6.375 3.75ZM6.375 5.25C7.8225 5.25 9 6.4275 9 7.875V11.25H3.75V7.875C3.75 6.4275 4.9275 5.25 6.375 5.25ZM16.875 10.5C14.187 10.5 12 12.687 12 15.375C12 18.063 14.187 20.25 16.875 20.25C19.563 20.25 21.75 18.063 21.75 15.375C21.75 12.687 19.563 10.5 16.875 10.5ZM16.875 12C18.7358 12 20.25 13.5142 20.25 15.375C20.25 16.034 20.0535 16.6449 19.7256 17.165L15.085 12.5244C15.6051 12.1965 16.216 12 16.875 12ZM3.75 12.75H9V16.125C9 17.5725 7.8225 18.75 6.375 18.75C4.9275 18.75 3.75 17.5725 3.75 16.125V12.75ZM14.0244 13.585L18.665 18.2256C18.1449 18.5535 17.534 18.75 16.875 18.75C15.0142 18.75 13.5 17.2358 13.5 15.375C13.5 14.716 13.6965 14.1051 14.0244 13.585Z" fill="black"/>
</svg>
