<svg width="24" height="24" viewBox="0 0 24 24" fill="none" xmlns="http://www.w3.org/2000/svg">
<path d="M12 3C7.02832 3 3 7.02832 3 12C3 15.8145 5.37305 19.0693 8.72168 20.3818C8.64258 19.6699 8.56934 18.5771 8.75098 17.7979C8.91504 17.0977 9.80566 13.3242 9.80566 13.3242C9.80566 13.3242 9.53906 12.7852 9.53906 11.9883C9.53906 10.7373 10.2627 9.80274 11.165 9.80274C11.9326 9.80274 12.3047 10.3799 12.3047 11.0713C12.3047 11.8447 11.8125 12.999 11.5576 14.0684C11.3467 14.9648 12.0088 15.6943 12.8906 15.6943C14.4902 15.6943 15.7207 14.0068 15.7207 11.5723C15.7207 9.41895 14.1738 7.91309 11.9619 7.91309C9.40137 7.91309 7.89844 9.83203 7.89844 11.8184C7.89844 12.5918 8.19727 13.4209 8.56934 13.8721C8.64258 13.96 8.65137 14.0391 8.63086 14.1299C8.56055 14.4141 8.41113 15.0264 8.38184 15.1494C8.34082 15.3164 8.25 15.3516 8.08008 15.2695C6.95508 14.748 6.25195 13.1045 6.25195 11.7832C6.25195 8.94434 8.31445 6.33691 12.1992 6.33691C15.3223 6.33691 17.748 8.56055 17.748 11.5371C17.748 14.6367 15.791 17.1328 13.0781 17.1328C12.167 17.1328 11.3086 16.6611 11.0156 16.1016C11.0156 16.1016 10.5645 17.8184 10.4531 18.2402C10.251 19.0225 9.70313 20.001 9.33399 20.5986C10.1777 20.8594 11.0713 21 12 21C16.9717 21 21 16.9717 21 12C21 7.02832 16.9717 3 12 3Z" fill="black"/>
</svg>
