<svg width="24" height="24" viewBox="0 0 24 24" fill="none" xmlns="http://www.w3.org/2000/svg">
<path d="M3.75 3.75V20.25H20.25V3.75H3.75ZM5.25 5.25H18.75V18.75H10.1353C10.3241 18.3703 10.4941 17.9786 10.5864 17.6221C10.6869 17.2366 11.25 15.5552 11.25 15.5552C11.5177 16.0674 12.302 16.5 13.1353 16.5C15.6163 16.5 17.25 14.3303 17.25 11.4976C17.25 8.78256 15.0332 6.75 12.1802 6.75C8.63118 6.75 6.75 9.13107 6.75 11.7261C6.75 12.9313 7.39249 14.4314 8.41699 14.9106C8.57449 14.9841 8.65563 14.9501 8.69238 14.7993C8.71938 14.6853 8.85868 14.1271 8.91943 13.8691C8.93968 13.7851 8.92905 13.7158 8.8623 13.6348C8.52405 13.2223 8.25 12.4663 8.25 11.7598C8.25 9.94477 9.62263 8.18994 11.9634 8.18994C13.9824 8.18994 15.3984 9.56689 15.3984 11.5356C15.3984 13.7586 14.4271 15.189 12.9639 15.189C12.1569 15.189 11.4037 14.6325 11.5942 13.812C11.8252 12.834 12.2739 11.7793 12.2739 11.0728C12.2739 9.29825 9.74854 9.54364 9.74854 11.9106C9.74854 12.6374 9.99023 13.1323 9.99023 13.1323C9.19314 16.6863 8.96673 17.4617 9.03662 18.75H5.25V5.25Z" fill="black"/>
</svg>
