<svg width="24" height="24" viewBox="0 0 24 24" fill="none" xmlns="http://www.w3.org/2000/svg">
<path d="M9.28125 2.85938L9.04688 3.49219L3.04688 19.9219L2.88281 20.3672L3.63281 21.1172L4.07812 20.9531L20.5078 14.9531L21.1406 14.7188L20.9766 14.0625C20.9766 14.0625 19.9189 9.84082 17.0391 6.96094C14.1592 4.08105 9.9375 3.02344 9.9375 3.02344L9.28125 2.85938ZM10.1953 4.71094C11.0479 4.97461 13.8223 5.90039 15.9609 8.03906C18.0996 10.1777 19.0254 12.9521 19.2891 13.8047L18.1406 14.2266C18.0645 13.9248 17.9736 13.5732 17.8125 13.1719C17.3555 12.0381 16.5029 10.5498 14.9766 9.02344C13.4502 7.49707 11.9619 6.66797 10.8281 6.21094C10.4238 6.0498 10.0781 5.94141 9.77344 5.85938L10.1953 4.71094ZM9.28125 7.26562C9.5332 7.33301 9.85547 7.42969 10.2656 7.59375C11.2324 7.9834 12.5508 8.70703 13.9219 10.0781C14.3232 10.4795 14.6543 10.8662 14.9531 11.25C14.1475 11.2764 13.5 11.9385 13.5 12.75C13.5 13.5791 14.1709 14.25 15 14.25C15.5537 14.25 16.0283 13.9482 16.2891 13.5C16.3213 13.5762 16.377 13.6611 16.4062 13.7344C16.5762 14.1562 16.667 14.4902 16.7344 14.7422L9.23438 17.4609C9.04395 17.1094 8.67773 16.875 8.25 16.875C7.62891 16.875 7.125 17.3789 7.125 18C7.125 18.0791 7.13379 18.1611 7.14844 18.2344L4.96875 19.0312L7.59375 11.8359C7.79297 11.9326 8.0127 12 8.25 12C9.0791 12 9.75 11.3291 9.75 10.5C9.75 9.7998 9.27246 9.21387 8.625 9.04688L9.28125 7.26562ZM10.5 13.125C9.87891 13.125 9.375 13.6289 9.375 14.25C9.375 14.8711 9.87891 15.375 10.5 15.375C11.1211 15.375 11.625 14.8711 11.625 14.25C11.625 13.6289 11.1211 13.125 10.5 13.125Z" fill="black"/>
</svg>
