<svg width="24" height="24" viewBox="0 0 24 24" fill="none" xmlns="http://www.w3.org/2000/svg">
<path d="M12 3.30469L11.4141 4.03125L8.41406 7.78125L8.25 7.99219V12.7031L4.10156 15.3047L4.89844 16.5703L5.25 16.3594V20.25H11.25V17.25C11.25 16.8252 11.5752 16.5 12 16.5C12.4248 16.5 12.75 16.8252 12.75 17.25V20.25H18.75V16.3594L19.1016 16.5703L19.8984 15.3047L15.75 12.7031V7.99219L15.5859 7.78125L12.5859 4.03125L12 3.30469ZM12 5.69531L14.25 8.50781V11.7656L12.3984 10.6172L12 10.3594L11.6016 10.6172L9.75 11.7656V8.50781L12 5.69531ZM12 8.25C11.5869 8.25 11.25 8.58691 11.25 9C11.25 9.41309 11.5869 9.75 12 9.75C12.4131 9.75 12.75 9.41309 12.75 9C12.75 8.58691 12.4131 8.25 12 8.25ZM12 12.1406L17.25 15.4219V18.75H14.25V17.25C14.25 16.0166 13.2334 15 12 15C10.7666 15 9.75 16.0166 9.75 17.25V18.75H6.75V15.4219L12 12.1406Z" fill="black"/>
</svg>
