<svg width="24" height="24" viewBox="0 0 24 24" fill="none" xmlns="http://www.w3.org/2000/svg">
<path d="M19.2891 3.58591C18.999 3.61228 18.7178 3.69724 18.4453 3.84372L14.9062 5.71872L10.125 4.54685L9.84375 4.47654L9.5625 4.61716L7.94531 5.55466L6.98438 6.11716L7.875 6.79685L9.91406 8.34372L7.35938 9.7031L4.61719 8.46091L4.28906 8.32029L3.96094 8.48435L2.64844 9.18747L1.78125 9.65622L2.4375 10.3593L6.49219 14.7187L6.86719 15.164L7.38281 14.8828L11.25 12.8203L10.4766 17.0859L10.2188 18.4453L11.5078 17.9062L13.4297 17.0859L13.7109 16.9687L13.8281 16.6875L16.6172 9.91404L20.5547 7.80466C21.6387 7.22165 22.0752 5.84177 21.4922 4.75779C21.2021 4.21579 20.707 3.84665 20.1562 3.67966C19.8809 3.59763 19.5791 3.55954 19.2891 3.58591ZM19.4297 5.08591C19.5234 5.08005 19.6201 5.08298 19.7109 5.10935C19.8926 5.16501 20.0566 5.27634 20.1562 5.46091C20.3555 5.83298 20.2236 6.26951 19.8516 6.46872L15.6562 8.74216L15.4219 8.85935L15.3281 9.11716L12.5391 15.8203L12.2109 15.9609L13.0078 11.5312L13.2891 10.0078L11.9297 10.7343L7.19531 13.289L4.21875 10.0547L4.33594 9.98435L7.07812 11.2031L7.42969 11.3672L7.73438 11.1797L19.1484 5.15622C19.2422 5.10642 19.3359 5.09177 19.4297 5.08591ZM10.0312 6.07029L12.9141 6.77341L11.3672 7.57029L9.67969 6.28122L10.0312 6.07029ZM2.25 19.5V21H21.75V19.5H2.25Z" fill="black"/>
</svg>
