<svg width="24" height="24" viewBox="0 0 24 24" fill="none" xmlns="http://www.w3.org/2000/svg">
<path d="M9.70311 4.5V18.5625L12.75 19.5V7.75781C12.75 7.44727 12.7851 7.2334 12.914 7.10156C13.043 6.92285 13.1777 6.9082 13.3594 6.98438C13.8017 7.11328 13.9922 7.48535 13.9922 8.13281V12.8672C14.9795 13.333 15.876 13.3828 16.5234 12.8906C17.2002 12.4248 17.5547 11.5811 17.5547 10.3359C17.5547 9.04102 17.3086 8.05664 16.7344 7.40625C16.2158 6.70605 15.2988 6.1377 13.9453 5.67188C12.2578 5.12695 10.8457 4.74023 9.70311 4.5ZM8.76561 13.0078L8.15624 13.1953L4.3828 14.5547L3.72655 14.8125C2.73924 15.2285 2.22362 15.665 2.24999 16.0547C2.30272 16.626 2.95604 17.0332 4.12499 17.3438C5.64257 17.7539 7.18944 17.8359 8.76561 17.6016V16.0078L8.15624 16.2422L7.49999 16.5L6.39842 16.7109L5.36717 16.5703C5.15917 16.4385 5.11815 16.3008 5.24999 16.1719C5.37889 16.0928 5.5576 15.9932 5.76561 15.9141L6.46874 15.6562L8.76561 14.8594V13.0078ZM17.5078 13.7578C17.2265 13.7461 16.9365 13.7666 16.664 13.7812C15.6533 13.8018 14.625 13.9805 13.5469 14.3203V16.1953L15.6797 15.4453L16.7812 15.0703C16.7812 15.0703 17.2031 14.9619 17.5078 14.8828C17.9736 14.7598 18.4687 14.9297 18.4687 14.9297C18.7529 14.9561 18.8848 15.0557 18.9375 15.1875C18.9902 15.3428 18.8115 15.4775 18.4219 15.6094L17.4609 15.9844L13.5469 17.3906V19.2188L15.375 18.5625L19.7578 17.0156L20.2969 16.7812C21.3369 16.3916 21.8027 15.9639 21.75 15.4453C21.7236 14.9502 21.1494 14.5635 20.1094 14.2266C19.2334 13.9336 18.3515 13.79 17.5078 13.7578Z" fill="black"/>
</svg>
