<svg width="24" height="24" viewBox="0 0 24 24" fill="none" xmlns="http://www.w3.org/2000/svg">
<path d="M16.5 2.69531L13.5 5.67188L11.7891 3.96094L10.7109 5.03906L11.2734 5.60156L7.42969 9.44531C6.52148 10.3535 6.52148 11.8418 7.42969 12.75L8.8125 14.1328L3.21094 19.7109L4.28906 20.7891L9.86719 15.1875L11.25 16.5703C12.1582 17.4785 13.6465 17.4785 14.5547 16.5703L18.3984 12.7266L18.9609 13.2891L20.0391 12.2109L18.3281 10.5L21.3047 7.5L20.25 6.44531L17.25 9.42188L14.5781 6.75L17.5547 3.75L16.5 2.69531ZM12.3281 6.65625L17.3438 11.6719L13.5 15.5156C13.21 15.8057 12.5947 15.8057 12.3047 15.5156L8.48438 11.6953C8.19434 11.4053 8.19434 10.79 8.48438 10.5L12.3281 6.65625Z" fill="black"/>
</svg>
