<svg width="24" height="24" viewBox="0 0 24 24" fill="none" xmlns="http://www.w3.org/2000/svg">
<path d="M12.375 2.25C7.61925 2.25 3.75 6.11925 3.75 10.875C3.75 14.3617 5.83411 17.3654 8.81836 18.7236C8.73361 18.0906 8.66665 17.4624 8.63965 16.9307C6.6094 15.6737 5.25 13.4333 5.25 10.875C5.25 6.9465 8.4465 3.75 12.375 3.75C16.3035 3.75 19.5 6.9465 19.5 10.875C19.5 13.4333 18.1406 15.6737 16.1104 16.9307C16.0834 17.4617 16.0164 18.0906 15.9316 18.7236C18.9159 17.3654 21 14.3617 21 10.875C21 6.11925 17.1307 2.25 12.375 2.25ZM12.375 5.25C9.273 5.25 6.75 7.773 6.75 10.875C6.75 12.6405 7.56969 14.217 8.84619 15.249C9.01569 14.7908 9.30188 14.366 9.70312 14.0112C8.81588 13.2537 8.25 12.1298 8.25 10.875C8.25 8.601 10.101 6.75 12.375 6.75C14.649 6.75 16.5 8.601 16.5 10.875C16.5 12.1298 15.9341 13.2537 15.0469 14.0112C15.4481 14.3652 15.7351 14.79 15.9038 15.249C17.1803 14.217 18 12.6405 18 10.875C18 7.773 15.477 5.25 12.375 5.25ZM12.375 8.25C10.9275 8.25 9.75 9.4275 9.75 10.875C9.75 12.3225 10.9275 13.5 12.375 13.5C13.8225 13.5 15 12.3225 15 10.875C15 9.4275 13.8225 8.25 12.375 8.25ZM12.375 9.75C12.9952 9.75 13.5 10.2548 13.5 10.875C13.5 11.4952 12.9952 12 12.375 12C11.7548 12 11.25 11.4952 11.25 10.875C11.25 10.2548 11.7548 9.75 12.375 9.75ZM12.375 14.25C10.0058 14.25 9.75 15.8068 9.75 16.4766C9.75 17.7096 10.1528 20.1899 10.3726 21.1304C10.4693 21.5429 10.8585 22.5 12.375 22.5C13.8915 22.5 14.2807 21.5429 14.3774 21.1304C14.5972 20.1906 15 17.7096 15 16.4766C15 15.8068 14.7443 14.25 12.375 14.25ZM12.375 15.75C13.5 15.75 13.5 16.1698 13.5 16.4766C13.5 17.4778 13.1472 19.7998 12.917 20.7876C12.8982 20.8663 12.867 21 12.375 21C11.883 21 11.8518 20.8671 11.833 20.7891C11.6035 19.8036 11.25 17.4786 11.25 16.4766C11.25 16.1698 11.25 15.75 12.375 15.75Z" fill="black"/>
</svg>
