<svg width="24" height="24" viewBox="0 0 24 24" fill="none" xmlns="http://www.w3.org/2000/svg">
<path d="M12.75 4.5C10.6215 4.5 8.25 6.45996 8.25 9.27246V9.75H7.5C5.8455 9.75 4.5 11.0955 4.5 12.75C4.5 13.056 4.54837 13.3585 4.64062 13.6465C3.25912 14.0687 2.25 15.3562 2.25 16.875C2.25 18.7358 3.76425 20.25 5.625 20.25H18.375C20.2358 20.25 21.75 18.7358 21.75 16.875C21.75 15.3562 20.7416 14.068 19.3594 13.645C19.4524 13.357 19.5 13.0545 19.5 12.7485C19.5 11.094 18.1545 9.74854 16.5 9.74854H15.6987C15.506 8.41879 14.8038 7.89893 14.269 7.50293C13.7088 7.08743 13.3389 6.81185 13.4956 5.3291L13.5835 4.5H12.75ZM11.9648 6.14062C12.0196 7.56862 12.6397 8.16028 13.377 8.70703C13.9027 9.09778 14.25 9.3555 14.25 10.5V11.25H16.5C17.3273 11.25 18 11.9227 18 12.75C18 13.1123 17.8602 13.4656 17.6074 13.7461L16.4736 15H18.375C19.4093 15 20.25 15.8407 20.25 16.875C20.25 17.9093 19.4093 18.75 18.375 18.75H5.625C4.59075 18.75 3.75 17.9093 3.75 16.875C3.75 15.8407 4.59075 15 5.625 15H7.52637L6.39258 13.7461C6.13983 13.4656 6 13.1123 6 12.75C6 11.9227 6.67275 11.25 7.5 11.25H9.75V9.27246C9.75 7.77171 10.8196 6.54562 11.9648 6.14062ZM9 12.75C8.80109 12.75 8.61032 12.829 8.46967 12.9697C8.32902 13.1103 8.25 13.3011 8.25 13.5C8.25 13.6989 8.32902 13.8897 8.46967 14.0303C8.61032 14.171 8.80109 14.25 9 14.25C9.19891 14.25 9.38968 14.171 9.53033 14.0303C9.67098 13.8897 9.75 13.6989 9.75 13.5C9.75 13.3011 9.67098 13.1103 9.53033 12.9697C9.38968 12.829 9.19891 12.75 9 12.75ZM15 12.75C14.8011 12.75 14.6103 12.829 14.4697 12.9697C14.329 13.1103 14.25 13.3011 14.25 13.5C14.25 13.6989 14.329 13.8897 14.4697 14.0303C14.6103 14.171 14.8011 14.25 15 14.25C15.1989 14.25 15.3897 14.171 15.5303 14.0303C15.671 13.8897 15.75 13.6989 15.75 13.5C15.75 13.3011 15.671 13.1103 15.5303 12.9697C15.3897 12.829 15.1989 12.75 15 12.75ZM10.5 15C10.5 15.8287 11.1713 16.5 12 16.5C12.8287 16.5 13.5 15.8287 13.5 15H10.5Z" fill="black"/>
</svg>
