<svg width="24" height="24" viewBox="0 0 24 24" fill="none" xmlns="http://www.w3.org/2000/svg">
<path d="M12.75 3C10.6215 3 8.25 4.95996 8.25 7.77246V8.25H7.5C5.8455 8.25 4.5 9.5955 4.5 11.25C4.5 11.556 4.54837 11.8585 4.64062 12.1465C3.25912 12.5687 2.25 13.8562 2.25 15.375C2.25 17.2358 3.76425 18.75 5.625 18.75H11.25V18.3076L8.07715 17.25H5.625C4.59075 17.25 3.75 16.4093 3.75 15.375C3.75 14.3407 4.59075 13.5 5.625 13.5H7.52637L6.39258 12.2461C6.13983 11.9656 6 11.6123 6 11.25C6 10.4227 6.67275 9.75 7.5 9.75H9.75V7.77246C9.75 6.27171 10.8196 5.04487 11.9648 4.64062C12.0196 6.06862 12.639 6.65953 13.377 7.20703C13.9027 7.59778 14.25 7.8555 14.25 9V9.75H16.5C17.3273 9.75 18 10.4227 18 11.25C18 11.6123 17.8602 11.9656 17.6074 12.2461L16.4736 13.5H18.375C19.4093 13.5 20.25 14.3407 20.25 15.375C20.25 16.4093 19.4093 17.25 18.375 17.25H16.4429L15.75 18.75H18.375C20.2358 18.75 21.75 17.2358 21.75 15.375C21.75 13.8562 20.7416 12.5687 19.3594 12.1465C19.4524 11.8585 19.5 11.556 19.5 11.25C19.5 9.5955 18.1545 8.25 16.5 8.25H15.7002C15.5074 6.92025 14.8053 6.39893 14.2705 6.00293C13.7103 5.58668 13.3389 5.3111 13.4956 3.8291L13.5835 3H12.75ZM12.75 11.625L10.5 16.4766L12.75 17.2266V21.375L15 16.5L12.75 15.75V11.625Z" fill="black"/>
</svg>
