<svg width="24" height="24" viewBox="0 0 24 24" fill="none" xmlns="http://www.w3.org/2000/svg">
<path d="M15.8438 3L14.6016 3.46875C13.2041 3.99609 12.2959 4.54102 11.6953 5.10938C11.0947 5.67773 10.8106 6.30176 10.6641 6.77344C10.5176 7.24512 10.459 7.52051 10.3594 7.66406C10.2715 7.79004 10.1191 7.94238 9.63282 8.08594C9.62403 8.08008 9.56543 8.04199 9.56251 8.03906H9.53907C9.16407 7.79297 8.73633 7.64062 8.32032 7.57031C7.07227 7.35938 5.76563 7.9043 5.03907 9.07031L5.01563 9.09375C4.57032 9.84961 4.32715 10.8076 4.45313 11.8125C4.49122 12.1172 4.56739 12.4277 4.6875 12.7266C3.58887 12.791 2.55762 13.4092 1.96875 14.4141H1.94532C1.03125 16.0283 1.5879 18.1113 3.21094 19.0312H3.23438V19.0547C3.31934 19.0957 4.31836 19.623 5.8125 20.0859C7.30665 20.5488 9.39844 21 12 21C14.6016 21 16.6904 20.5664 18.1875 20.1094C19.667 19.6553 20.499 19.21 20.7891 19.0312C20.792 19.0283 20.8096 19.0107 20.8125 19.0078C22.4121 18.0791 22.9512 16.0342 22.0313 14.4609H22.0547C21.624 13.6992 20.9502 13.1807 20.1797 12.9375C20.1797 12.9346 20.1563 12.9404 20.1563 12.9375C19.919 12.082 19.3565 11.3496 18.5859 10.9219C18.6885 10.5938 18.75 10.2129 18.75 9.75C18.75 8.87988 18.4395 8.14746 18.0234 7.61719C17.6074 7.08691 17.1065 6.73242 16.6875 6.39844C16.2686 6.06445 15.9316 5.75684 15.75 5.46094C15.5684 5.16504 15.4775 4.88379 15.5859 4.3125L15.8438 3ZM14.1563 5.39062C14.2266 5.7041 14.332 6.00879 14.4844 6.25781C14.8389 6.83496 15.3135 7.20117 15.75 7.54688C16.1865 7.89258 16.5938 8.22363 16.8516 8.55469C17.1094 8.88574 17.25 9.20215 17.25 9.75C17.25 10.1104 17.209 10.3301 17.1563 10.5C15.1113 10.2012 13.3213 9.68555 12 9.1875C11.7363 9.08789 11.5049 8.98242 11.2734 8.88281C11.3994 8.77148 11.5107 8.63965 11.6016 8.50781C11.9385 8.01855 11.9854 7.54395 12.0938 7.19531C12.2022 6.84668 12.3252 6.56836 12.7266 6.1875C12.9668 5.95898 13.6348 5.66309 14.1563 5.39062ZM7.73438 8.97656C8.06543 8.97363 8.40528 9.07617 8.71876 9.28125C9.13184 9.56836 10.0166 10.0195 11.4844 10.5703C12.9668 11.127 14.9502 11.7188 17.2734 12.0234H17.2969C17.8184 12.0879 18.249 12.3955 18.5156 12.8438C18.249 12.8936 17.9736 12.9639 17.7188 13.0781C17.6807 13.0957 17.6397 13.084 17.6016 13.1016C17.5723 13.1104 17.5664 13.1191 17.5547 13.125C17.5313 13.1367 17.5078 13.1367 17.4844 13.1484C17.4639 13.1572 17.4404 13.1836 17.4141 13.1953C17.3496 13.2246 17.2559 13.2627 17.1328 13.3125C16.8897 13.415 16.5264 13.5469 16.0547 13.6875C15.1113 13.9658 13.7402 14.25 12 14.25C10.708 14.25 9.60352 14.1035 8.74219 13.9219C8.47266 13.8574 8.21192 13.7871 7.96876 13.7109C7.4795 13.5557 7.0254 13.333 7.03125 13.3359C6.30469 12.8467 6.00879 12.2578 5.92969 11.625C5.85059 10.9922 6.02637 10.3184 6.30469 9.84375C6.65625 9.27832 7.1836 8.98242 7.73438 8.97656ZM4.71094 14.2031C5.06836 14.1768 5.44336 14.2646 5.78907 14.4609C5.79493 14.4639 5.80665 14.4814 5.8125 14.4844C5.85352 14.5078 5.90625 14.5312 5.95313 14.5547C6.04688 14.6045 6.15528 14.6543 6.30469 14.7188C6.60352 14.8477 7.01661 14.9883 7.54688 15.1406C7.73438 15.1934 7.9629 15.252 8.17969 15.3047C8.25879 15.3252 8.33204 15.3545 8.41407 15.375C8.42286 15.3779 8.42872 15.3721 8.43751 15.375C8.73633 15.4512 9.03223 15.5186 9.32813 15.5625V15.5391C10.1104 15.668 10.9981 15.75 12 15.75C13.9014 15.75 15.419 15.4307 16.4766 15.1172C17.0068 14.959 17.4316 14.792 17.7188 14.6719C17.8242 14.6279 17.8828 14.5869 17.9531 14.5547H18.0234L18.0469 14.5312L18.1875 14.4609C19.1191 13.9629 20.2383 14.2588 20.7656 15.1875V15.2109C21.2783 16.0869 20.9824 17.2207 20.0625 17.7422H20.0391V17.7656C19.9805 17.8008 19.1367 18.2607 17.7656 18.6797C16.3945 19.0986 14.4375 19.5 12 19.5C9.56251 19.5 7.6084 19.1045 6.23438 18.6797C4.87793 18.2578 4.19825 17.874 3.9375 17.7422C3.92579 17.7363 3.92286 17.7246 3.91407 17.7188C3.01758 17.1885 2.73926 16.0811 3.25782 15.1641C3.51856 14.7275 3.90821 14.4023 4.35938 14.2734C4.47364 14.2412 4.59083 14.2119 4.71094 14.2031Z" fill="black"/>
</svg>
