<svg width="24" height="24" viewBox="0 0 24 24" fill="none" xmlns="http://www.w3.org/2000/svg">
<path d="M11.25 2.25C10.0166 2.25 9 3.2666 9 4.5L9.01172 4.37695L8.27344 8.80957L6.85547 12.6885C6.8291 12.7236 6.79688 12.75 6.75 12.75H6V12H2.25V21.75H6V19.5H8.94434C10.1777 19.5 11.2881 18.9023 12 17.9736C12.7119 18.9023 13.8223 19.5 15.0557 19.5H18V21.75H21.75V12H18V12.75H17.25C17.2031 12.75 17.1709 12.7236 17.1445 12.6885L15.7266 8.80957L14.9883 4.37695L15 4.5C15 3.2666 13.9834 2.25 12.75 2.25C12.4951 2.25 12.2344 2.2998 12 2.41992C11.7656 2.2998 11.5049 2.25 11.25 2.25ZM11.2236 3.76172C11.2383 3.87012 11.25 4.11621 11.25 4.5V16.0781C11.042 17.1914 10.084 18 8.94434 18H6V14.25H6.75C7.33887 14.25 7.88672 13.9307 8.17676 13.418L8.20605 13.3623L9.72656 9.19043L10.5 4.56152V4.5C10.5 4.08691 10.8164 3.77637 11.2236 3.76172ZM12.7764 3.76172C13.1836 3.77637 13.5 4.08691 13.5 4.5V4.56152L14.2734 9.19043L15.7939 13.3623L15.8232 13.418C16.1133 13.9307 16.6611 14.25 17.25 14.25H18V18H15.0557C13.916 18 12.958 17.1914 12.75 16.0781V4.5C12.75 4.11621 12.7617 3.87012 12.7764 3.76172ZM3.75 13.5H4.5V20.25H3.75V13.5ZM19.5 13.5H20.25V20.25H19.5V13.5Z" fill="black"/>
</svg>
