<svg width="24" height="24" viewBox="0 0 24 24" fill="none" xmlns="http://www.w3.org/2000/svg">
<path d="M13.125 3C11.6775 3 10.5 4.1775 10.5 5.625C10.5 7.0725 11.6775 8.25 13.125 8.25C14.5725 8.25 15.75 7.0725 15.75 5.625C15.75 4.1775 14.5725 3 13.125 3ZM13.125 4.5C13.7452 4.5 14.25 5.00475 14.25 5.625C14.25 6.24525 13.7452 6.75 13.125 6.75C12.5047 6.75 12 6.24525 12 5.625C12 5.00475 12.5047 4.5 13.125 4.5ZM9.86719 9C9.03994 9 8.29571 9.49119 7.97021 10.2524L6.49512 13.6919C6.10587 14.6009 6.34829 15.644 7.14404 16.3228L10.4575 18.75H5.25V20.25H11.6133C12.1 20.25 12.5297 19.9408 12.6812 19.478C12.8327 19.0153 12.6691 18.5114 12.2769 18.2241L8.07568 15.1479C7.82518 14.9334 7.74379 14.5867 7.87354 14.2837L9.34863 10.8428C9.50088 10.4873 10.0266 10.3996 10.2861 10.6831L12.1113 13.6743L12.1655 13.752C12.4018 14.0467 12.7544 14.2283 13.1309 14.2485C13.5141 14.268 13.8768 14.1274 14.1431 13.8604L17.0845 10.2217L15.917 9.27832L13.2231 12.6167L11.5356 9.85254L11.4814 9.7749C11.0869 9.28215 10.4979 9 9.86719 9Z" fill="black"/>
</svg>
