<svg width="24" height="24" viewBox="0 0 24 24" fill="none" xmlns="http://www.w3.org/2000/svg">
<path d="M7.4458 2.25C6.73105 2.25 6.08805 2.64811 5.76855 3.28711L5.53711 3.75H5.25C4.42275 3.75 3.75 4.42275 3.75 5.25V8.25H4.5V20.25C4.5 21.0772 5.17275 21.75 6 21.75H18C18.8273 21.75 19.5 21.0772 19.5 20.25V8.25H20.25V5.25C20.25 4.42275 19.5773 3.75 18.75 3.75H18.4629L18.2314 3.28711C17.9127 2.64811 17.2697 2.25 16.5542 2.25H7.4458ZM7.4458 3.75H16.5542C16.6974 3.75 16.8259 3.82904 16.8896 3.95654L17.5371 5.25H18.75V6.75H5.25V5.25H6.46289L7.11035 3.95654C7.1741 3.82904 7.30255 3.75 7.4458 3.75ZM6 8.25H18V20.25H6V8.25ZM11.25 10.5V13.5H8.25V15H11.25V18H12.75V15H15.75V13.5H12.75V10.5H11.25Z" fill="black"/>
</svg>
