<svg width="24" height="24" viewBox="0 0 24 24" fill="none" xmlns="http://www.w3.org/2000/svg">
<path d="M12.8438 0.328125L10.7812 4.5H6.75V6H11.7188L12.6562 4.07812L14.7891 9.75L17.625 6H21V4.5H16.875L15.2109 6.65625L12.8438 0.328125ZM4.875 8.25C3.83775 8.25 3 9.08775 3 10.125V21H6.75V19.5H17.25V21H21V12.75C21 11.5162 19.9837 10.5 18.75 10.5H9.75V10.9219C9.3045 10.6609 8.8005 10.5 8.25 10.5C7.6995 10.5 7.1955 10.6609 6.75 10.9219V10.125C6.75 9.08775 5.91225 8.25 4.875 8.25ZM4.875 9.75C5.03625 9.75 5.25 9.96375 5.25 10.125V16.5H19.5V19.5H18.75V18H5.25V19.5H4.5V10.125C4.5 9.96375 4.71375 9.75 4.875 9.75ZM8.25 12C9.08775 12 9.75 12.6622 9.75 13.5C9.75 14.3378 9.08775 15 8.25 15C7.41225 15 6.75 14.3378 6.75 13.5C6.75 12.6622 7.41225 12 8.25 12ZM11.25 12H18.75C19.1663 12 19.5 12.3337 19.5 12.75V15H11.25V12Z" fill="black"/>
</svg>
