<svg width="24" height="24" viewBox="0 0 24 24" fill="none" xmlns="http://www.w3.org/2000/svg">
<path d="M12 2.25C6.624 2.25 2.25 6.624 2.25 12C2.25 17.376 6.624 21.75 12 21.75C17.376 21.75 21.75 17.376 21.75 12C21.75 6.624 17.376 2.25 12 2.25ZM12 3.75C16.5487 3.75 20.25 7.45125 20.25 12C20.25 16.5487 16.5487 20.25 12 20.25C7.45125 20.25 3.75 16.5487 3.75 12C3.75 7.45125 7.45125 3.75 12 3.75ZM9.75 8.25V16.5H11.25V13.5H13.125C14.5732 13.5 15.75 12.3232 15.75 10.875C15.75 9.42675 14.5732 8.25 13.125 8.25H9.75ZM11.25 9.75H13.125C13.7452 9.75 14.25 10.2548 14.25 10.875C14.25 11.4952 13.7452 12 13.125 12H11.25V9.75Z" fill="black"/>
</svg>
