<svg width="24" height="24" viewBox="0 0 24 24" fill="none" xmlns="http://www.w3.org/2000/svg">
<path d="M15.3984 3.00294C15.3071 2.99558 15.2159 3.00053 15.126 3.01759L4.22313 4.80177C3.61638 4.91052 3.17877 5.53747 3.36327 6.27247L7.58641 20.2691C7.84741 21.1248 9.06139 21.2418 9.50389 20.5503L10.9219 17.3042L20.543 8.00831C21.2022 7.33331 20.715 6.28452 19.8428 6.20802L15.7163 5.84767L16.2788 4.50441C16.6443 3.67819 16.0376 3.05447 15.3984 3.00294ZM15.2783 3.86573C15.4831 3.83723 15.58 3.96585 15.4878 4.1631L14.8125 5.7671L7.68309 5.11232L15.2783 3.86573ZM4.47655 5.68214L14.4712 6.59474L10.5762 15.8643L4.23045 6.04689C4.10595 5.84214 4.2718 5.64614 4.47655 5.68214ZM15.3662 6.67823L19.8105 7.06935C19.9718 7.11285 20.0413 7.28084 19.916 7.41359L11.7612 15.2666L15.3662 6.67823ZM5.06688 8.93263L10.1982 16.8735C9.91698 17.4758 8.78465 20.0523 8.78465 20.0523C8.6804 20.2128 8.46601 20.1779 8.40526 20.0054L5.06688 8.93263Z" fill="black"/>
</svg>
