<svg width="24" height="24" viewBox="0 0 24 24" fill="none" xmlns="http://www.w3.org/2000/svg">
<path d="M12 3.75C8.25879 3.75 8.25 5.25 8.25 5.25V8.25H12.75V9H5.25C5.25 9 3 8.6543 3 12.75C3 16.8457 5.25 16.5 5.25 16.5H7.5V15.2812C7.5 13.4736 8.97363 12 10.7812 12H13.2188C14.6133 12 15.75 11.6133 15.75 10.2188V5.25C15.75 5.25 15.7412 3.75 12 3.75ZM9.75 5.25C10.1631 5.25 10.5 5.58691 10.5 6C10.5 6.41309 10.1631 6.75 9.75 6.75C9.33691 6.75 9 6.41309 9 6C9 5.58691 9.33691 5.25 9.75 5.25ZM16.5 8.25V10.2188C16.5 12.0264 15.0264 12.75 13.2188 12.75H10.7812C9.38672 12.75 8.25 13.8867 8.25 15.2812V19.5C8.25 19.5 8.29688 21 12 21C15.7031 21 15.75 19.5 15.75 19.5V16.5H11.25V15.75H18.75C18.75 15.75 21 16.1279 21 12C21 7.87207 18.75 8.25 18.75 8.25H16.5ZM14.25 18C14.6631 18 15 18.3369 15 18.75C15 19.1631 14.6631 19.5 14.25 19.5C13.8369 19.5 13.5 19.1631 13.5 18.75C13.5 18.3369 13.8369 18 14.25 18Z" fill="black"/>
</svg>
