<svg width="24" height="24" viewBox="0 0 24 24" fill="none" xmlns="http://www.w3.org/2000/svg">
<path d="M12 4.41504C16.5645 4.41504 16.7959 8.49316 17.0479 9.2959C17.0479 9.2959 17.4082 9.69727 17.4932 10.3096C17.5488 10.7051 17.3232 11.1533 17.3232 11.1533C17.3232 11.1533 18.7822 13.1191 18.7822 14.6631C18.7822 15.627 18.498 16.125 18.167 16.125C17.833 16.125 17.3467 15.1055 17.3467 15.1055C17.3467 15.1055 16.585 16.7314 16.2041 16.9658C15.8232 17.1973 17.5781 17.4521 17.5781 18.2109C17.5781 18.9727 16.1836 19.3096 15.0439 19.3096C13.9014 19.3096 12.085 18.7178 12.085 18.7178L11.4287 18.6973C11.4287 18.6973 10.9219 19.415 8.83008 19.415C6.73828 19.415 5.83008 18.8467 5.83008 18.1699C5.83008 17.2588 7.16309 17.1357 7.16309 17.1357C7.16309 17.1357 6.31348 16.8984 5.5957 14.8887C5.5957 14.8887 5.09766 15.9727 4.39453 15.9727C4.39453 15.9727 4.09863 15.7969 4.09863 14.8096C4.09863 12.7676 5.56641 11.7715 6.19922 11.1592C6.19922 11.1592 6.09375 10.8926 6.14941 10.5615C6.21094 10.1924 6.43066 9.96973 6.43066 9.96973C6.43066 9.96973 6.34863 9.52734 6.65625 9.16992C6.71777 8.17676 7.43555 4.41504 12 4.41504ZM12 2.91504C7.20117 2.91504 5.49902 6.35742 5.19727 8.66602C5.05371 8.94727 4.97168 9.2373 4.93945 9.50977C4.8252 9.72656 4.72266 9.99316 4.66992 10.3096C4.65527 10.3887 4.64648 10.4707 4.64062 10.5469C3.80859 11.3115 2.59863 12.6152 2.59863 14.8096C2.59863 16.333 3.1582 16.9834 3.62988 17.2617L3.98145 17.4727H4.39453C4.40625 17.4727 4.41797 17.4727 4.43262 17.4727C4.36523 17.6865 4.33008 17.918 4.33008 18.1699C4.33008 18.8145 4.65527 20.918 8.83008 20.918C10.3594 20.918 11.3145 20.5869 11.9004 20.2324C12.5156 20.417 13.9541 20.8096 15.041 20.8096C17.4932 20.8096 19.0781 19.79 19.0781 18.2109C19.0781 17.9297 19.0225 17.6807 18.9316 17.458C19.6553 17.1299 20.2793 16.2832 20.2793 14.6631C20.2793 13.2422 19.4941 11.751 18.9609 10.9014C19.002 10.6582 19.0166 10.3857 18.9785 10.1045C18.8906 9.47461 18.6387 8.97363 18.4365 8.66016C18.4307 8.63086 18.4248 8.60156 18.4189 8.57227C17.6338 4.81641 15.4717 2.91504 12 2.91504Z" fill="black"/>
</svg>
