<svg width="24" height="24" viewBox="0 0 24 24" fill="none" xmlns="http://www.w3.org/2000/svg">
<path d="M21.3018 3.90234L13.3799 9.83936L13.0576 9.41016H13.0547L12.271 8.37012L11.0728 9.27246L11.3687 9.66504L7.96143 10.1777C6.42768 10.4215 5.06968 11.2406 4.13818 12.4834L2.25 15H3.51855C2.64555 16.0852 2.01407 17.3514 1.67432 18.7119L1.29053 20.25H6.63281C9.26006 20.25 11.6282 18.5908 12.5229 16.1323L13.771 12.8525L14.0391 13.2085L15.2358 12.3062L14.2808 11.0376L22.2012 5.10205L21.3018 3.90234ZM12.394 11.0259L12.7031 11.4375L11.1167 15.6094C10.4327 17.4881 8.63156 18.75 6.63281 18.75H3.2168C3.6023 17.4427 4.30965 16.2501 5.2749 15.2856L7.05908 13.5H5.25L5.33643 13.3828C6.03393 12.4536 7.05066 11.8417 8.19141 11.6602L12.394 11.0259ZM17.625 15C16.1775 15 15 16.1775 15 17.625C15 19.0725 16.1775 20.25 17.625 20.25C19.0725 20.25 20.25 19.0725 20.25 17.625C20.25 16.1775 19.0725 15 17.625 15ZM17.625 16.5C18.2453 16.5 18.75 17.0048 18.75 17.625C18.75 18.2452 18.2453 18.75 17.625 18.75C17.0048 18.75 16.5 18.2452 16.5 17.625C16.5 17.0048 17.0048 16.5 17.625 16.5Z" fill="black"/>
</svg>
