<svg width="24" height="24" viewBox="0 0 24 24" fill="none" xmlns="http://www.w3.org/2000/svg">
<path d="M11.6191 3C7.65089 3 3.75 6.17284 3.75 10.8296C3.75 16.1673 8.97663 19.6491 13.6611 18.3516C14.4456 19.6888 15.479 21 17.4492 21C20.705 21 21 18 21 17.25H19.834C19.774 17.787 19.4082 18.3428 18.5127 18.3428C17.6967 18.3428 17.108 17.7784 16.5425 16.9189C18.302 15.5577 19.4619 13.4351 19.4619 10.8281C19.4657 6.15188 15.6706 3 11.6191 3ZM11.6191 4.5C14.6521 4.5 15.9463 6.68209 15.9463 10.8296C15.95 12.4931 15.7298 13.8379 15.2798 14.8286C14.5035 13.6661 13.5409 12.7515 11.6382 12.7515C10.4239 12.7515 9.59454 13.105 9.00879 13.6143L9.49365 14.5825C9.7404 14.4633 9.89527 14.4668 10.166 14.4668C11.579 14.4668 12.3034 15.6937 12.9199 16.9072C12.5217 17.0265 12.0947 17.0742 11.6177 17.0742C8.63268 17.0742 7.33887 14.9642 7.33887 10.8369C7.33962 6.68116 8.63414 4.5 11.6191 4.5Z" fill="black"/>
</svg>
