<svg width="24" height="24" viewBox="0 0 24 24" fill="none" xmlns="http://www.w3.org/2000/svg">
<path d="M6 2.25C4.7666 2.25 3.75 3.2666 3.75 4.5V19.5C3.75 20.7334 4.7666 21.75 6 21.75H20.25V2.25H6ZM6 3.75H18.75V17.25H6C5.73633 17.25 5.4873 17.3057 5.25 17.3906V4.5C5.25 4.0752 5.5752 3.75 6 3.75ZM6 4.5V16.5H18V4.5H6ZM7.5 6H16.5V15H7.5V6ZM12 6.75C11.5869 6.75 11.25 7.08691 11.25 7.5C11.25 7.91309 11.5869 8.25 12 8.25C12.4131 8.25 12.75 7.91309 12.75 7.5C12.75 7.08691 12.4131 6.75 12 6.75ZM12 8.25H9.75V12.75H14.25V8.25H12ZM14.25 10.5C14.25 10.9131 14.5869 11.25 15 11.25C15.4131 11.25 15.75 10.9131 15.75 10.5C15.75 10.0869 15.4131 9.75 15 9.75C14.5869 9.75 14.25 10.0869 14.25 10.5ZM12 12.75C11.5869 12.75 11.25 13.0869 11.25 13.5C11.25 13.9131 11.5869 14.25 12 14.25C12.4131 14.25 12.75 13.9131 12.75 13.5C12.75 13.0869 12.4131 12.75 12 12.75ZM9.75 10.5C9.75 10.0869 9.41309 9.75 9 9.75C8.58691 9.75 8.25 10.0869 8.25 10.5C8.25 10.9131 8.58691 11.25 9 11.25C9.41309 11.25 9.75 10.9131 9.75 10.5ZM11.25 9.75H12.75V11.25H11.25V9.75ZM6 18.75H18.75V20.25H6C5.5752 20.25 5.25 19.9248 5.25 19.5C5.25 19.0752 5.5752 18.75 6 18.75Z" fill="black"/>
</svg>
