<svg width="24" height="24" viewBox="0 0 24 24" fill="none" xmlns="http://www.w3.org/2000/svg">
<path d="M12 3.75C6.201 3.75 1.5 6.93975 1.5 10.875C1.5 14.4638 5.41334 17.4245 10.5 17.9194V19.5H13.5V17.9194C14.4929 17.8228 15.4398 17.6341 16.3228 17.3628L17.4976 19.5H21L18.9756 16.1895C21.1336 14.8845 22.5 12.9909 22.5 10.875C22.5 6.93975 17.799 3.75 12 3.75ZM13.125 6C17.4742 6 21 8.3505 21 11.25C21 12.8476 19.926 14.2759 18.2373 15.2388C18.067 15.0979 17.8793 14.9819 17.6748 14.8945C19.1505 14.5338 20.25 13.2117 20.25 11.625C20.25 9.76125 18.7388 8.25 16.875 8.25H10.5V16.1953C7.44309 15.474 5.25 13.5351 5.25 11.25C5.25 8.3505 8.77575 6 13.125 6ZM13.5 10.5H16.125C16.746 10.5 17.25 11.004 17.25 11.625C17.25 12.246 16.746 12.75 16.125 12.75H13.5V10.5ZM13.5 15H14.3467C14.7652 15 15.1491 15.228 15.3501 15.5947L15.6885 16.21C14.9973 16.3687 14.2631 16.4628 13.5 16.4868V15Z" fill="black"/>
</svg>
