<svg width="24" height="24" viewBox="0 0 24 24" fill="none" xmlns="http://www.w3.org/2000/svg">
<path d="M12 2.25C6.62402 2.25 2.25 6.62402 2.25 12C2.25 17.376 6.62402 21.75 12 21.75C17.376 21.75 21.75 17.376 21.75 12C21.75 6.62402 17.376 2.25 12 2.25ZM12 3.75C16.5645 3.75 20.25 7.43555 20.25 12C20.25 16.5645 16.5645 20.25 12 20.25C7.43555 20.25 3.75 16.5645 3.75 12C3.75 7.43555 7.43555 3.75 12 3.75ZM8.625 6.14062C6.60059 7.3418 5.25 9.52441 5.25 12H10.125C10.125 11.3262 10.5088 10.7344 11.1094 10.3594L8.625 6.14062ZM15.375 6.14062L12.9844 10.3594C13.585 10.6582 13.9453 11.25 13.9453 12H18.75C18.75 9.52441 17.3994 7.3418 15.375 6.14062ZM8.17969 8.39062L9.14062 10.125C9.06445 10.2744 9.00586 10.3506 8.92969 10.5H6.98438C7.20996 9.75 7.65527 8.99121 8.17969 8.39062ZM15.8203 8.39062C16.4209 8.99121 16.79 9.75 17.0156 10.5H15.0703C14.9941 10.3506 14.9355 10.2012 14.8594 10.125L15.8203 8.39062ZM12 10.8047C11.3262 10.8047 10.8047 11.3262 10.8047 12C10.8047 12.6738 11.3262 13.1953 12 13.1953C12.6738 13.1953 13.1953 12.6738 13.1953 12C13.1953 11.3262 12.6738 10.8047 12 10.8047ZM11.0156 13.6406L8.625 17.8594C9.60059 18.46 10.7988 18.75 12 18.75C13.2012 18.75 14.3994 18.46 15.375 17.8594L12.9844 13.6406C12.6855 13.79 12.375 13.875 12 13.875C11.625 13.875 11.3145 13.79 11.0156 13.6406ZM11.7656 15.375H12.2344L13.1953 17.1094C12.8203 17.1855 12.375 17.25 12 17.25C11.625 17.25 11.1797 17.1855 10.8047 17.1094L11.7656 15.375Z" fill="black"/>
</svg>
