<svg width="24" height="24" viewBox="0 0 24 24" fill="none" xmlns="http://www.w3.org/2000/svg">
<path d="M12 3.75C6.21 3.75 1.5 8.46 1.5 14.25V20.25H3V14.25C3 9.28725 7.03725 5.25 12 5.25C16.9628 5.25 21 9.28725 21 14.25V20.25H22.5V14.25C22.5 8.46 17.79 3.75 12 3.75ZM12 6.75C7.8645 6.75 4.5 10.1145 4.5 14.25V20.25H6V14.25C6 10.9418 8.69175 8.25 12 8.25C15.3082 8.25 18 10.9418 18 14.25V20.25H19.5V14.25C19.5 10.1145 16.1355 6.75 12 6.75ZM12 9.75C9.51825 9.75 7.5 11.7682 7.5 14.25V20.25H9V14.25C9 12.5955 10.3455 11.25 12 11.25C13.6545 11.25 15 12.5955 15 14.25V20.25H16.5V14.25C16.5 11.7682 14.4818 9.75 12 9.75Z" fill="black"/>
</svg>
