<svg width="24" height="24" viewBox="0 0 24 24" fill="none" xmlns="http://www.w3.org/2000/svg">
<path d="M18.2988 11.1006L18.1494 10.875C18.1494 9.07617 17.3262 8.39941 16.4238 7.875C16.7256 7.79883 17.0244 7.72558 17.1006 7.35058C17.625 7.20117 17.7012 6.97558 17.7744 6.75C17.9238 6.67383 18.2988 6.45117 18.2988 6C18.5244 5.85058 18.6738 5.625 18.6006 5.32617C18.8262 5.02441 18.8994 4.79883 18.8262 4.57617C19.125 4.20117 18.9756 3.97559 18.8994 3.75C19.125 3.29883 18.8994 2.85059 18.2988 2.92383C18.0762 2.54883 17.4756 2.625 17.3994 2.625C17.3262 2.47559 17.1738 2.39941 16.7988 2.47559C16.4238 2.25 16.125 2.25 15.8262 2.39941C15.4512 2.10059 15.2256 2.32617 15 2.39941C14.5488 2.25 14.4756 2.47559 14.25 2.54883C13.7988 2.47559 13.6494 2.70117 13.4238 2.92383H13.2012C12.5244 3.29883 12.1494 4.20117 12 4.57617C11.8506 4.125 11.5488 3.29883 10.7988 2.92383H10.5762C10.3506 2.70117 10.2012 2.47559 9.75 2.54883C9.52441 2.47559 9.45117 2.25 9 2.39941C8.85058 2.32617 8.70117 2.25 8.47558 2.25C8.39941 2.25 8.32617 2.32617 8.17383 2.39941C7.875 2.25 7.57617 2.25 7.35058 2.47559C6.97558 2.39941 6.82617 2.54883 6.75 2.625C6.67383 2.625 6.07617 2.54883 5.85058 2.92383C5.17383 2.85059 4.95117 3.29883 5.17383 3.75C5.02441 3.97559 4.95117 4.125 5.25 4.57617C5.10058 4.72558 5.17383 5.02441 5.47558 5.25C5.39941 5.54883 5.47558 5.77441 5.77441 6C5.70117 6.375 6.14941 6.60058 6.22558 6.75C6.29883 6.97558 6.375 7.20117 6.89941 7.35058C6.97558 7.72558 7.27441 7.79883 7.57617 7.875C6.60058 8.39941 5.85058 9.14941 5.85058 10.875L5.70117 11.1006C4.64941 11.7744 3.67383 13.875 5.17383 15.6006C5.25 16.125 5.39941 16.5 5.54883 16.9512C5.77441 18.6738 7.20117 19.5 7.57617 19.5762C8.10058 20.0244 8.70117 20.3994 9.52441 20.7012C10.2744 21.4512 11.1006 21.75 11.9238 21.75C12.75 21.75 13.5762 21.4512 14.3262 20.7012C15.1494 20.3994 15.75 20.0244 16.2744 19.5762C16.6494 19.5 18.0762 18.6738 18.2988 16.9512C18.4512 16.5 18.6006 16.125 18.75 15.6006C20.3994 13.875 19.4238 11.7744 18.2988 11.1006ZM17.3262 10.7988C17.25 11.5488 13.6494 8.32617 14.25 8.25C15.9756 7.95117 17.3994 8.92383 17.3262 10.7988ZM13.3506 3.375C13.3506 3.52441 13.4238 3.60059 13.4238 3.67383C13.6494 3.45117 13.7988 3.22559 14.0244 3C14.0244 3.14941 13.9512 3.22559 14.1006 3.375C14.25 3.14941 14.3994 3 14.7012 2.85059C14.5488 3.07617 14.7012 3.14941 14.7744 3.22558C15 3.07617 15.1494 2.92383 15.5244 2.77441C15.4512 2.92383 15.2988 3 15.4512 3.14941C15.6738 3 15.8262 2.92383 16.3506 2.77441C16.2744 2.92383 16.0488 3 16.125 3.14941C16.3506 3.07617 16.6494 3 16.9512 2.92383C16.7988 3.07617 16.6494 3.14941 16.7988 3.22558C17.1006 3.14941 17.3994 3 17.7744 3.14941L17.5488 3.375C17.5488 3.375 18.0762 3.375 18.4512 3.375C18.2988 3.60059 18.1494 3.75 18.0762 4.04883C18.0762 4.04883 18.2988 4.04883 18.4512 4.04883C18.2988 4.5 18 4.57617 17.9238 4.72558C18 4.79883 18.1494 4.79883 18.375 4.72558C18.2256 5.02441 18 5.17383 17.7744 5.39941C17.8506 5.47558 17.9238 5.47558 18.1494 5.39941C17.9238 5.625 17.7012 5.77441 17.4756 6C17.5488 6.07617 17.7012 6.07617 17.8506 6.07617C17.625 6.29883 17.25 6.45117 16.9512 6.60058C17.0244 6.75 17.1738 6.67383 17.25 6.67383C17.0244 6.82617 16.6494 6.97559 16.3506 7.04883C16.4238 7.125 16.5 7.20117 16.6494 7.20117C16.2744 7.42383 15.75 7.27441 15.6006 7.42383C15.6006 7.5 15.75 7.57617 15.8262 7.64941C15.2256 7.64941 13.6494 7.64941 13.3506 6.45117C13.9512 5.77441 15 5.02441 16.875 4.04883C15.4512 4.57617 14.1006 5.17383 13.0488 6.07617C11.8506 5.47559 12.6738 3.97559 13.3506 3.375ZM12 7.72558C12.8994 7.72558 14.0244 8.39941 14.0244 9.07617C14.0244 9.67383 13.2012 10.125 12 10.125C10.7988 10.125 9.97558 9.52441 9.97558 9C9.97558 8.47559 10.9512 7.72558 12 7.72558ZM7.42383 7.27441C7.57617 7.27441 7.64941 7.20117 7.72558 7.125C7.35058 6.97558 6.97558 6.89941 6.75 6.67383C6.89941 6.67383 6.97558 6.67383 7.125 6.60058C6.82617 6.45117 6.52441 6.29883 6.22558 6.07617C6.375 6.07617 6.52441 6.07617 6.60058 6C6.375 5.85058 6.14941 5.625 5.92383 5.47558C6.14941 5.47558 6.22558 5.47558 6.29883 5.47558C6.07617 5.17383 5.85058 5.02441 5.70117 4.72558C5.85058 4.79883 6 4.79883 6.14941 4.72558C6.07617 4.57617 5.70117 4.5 5.54883 4.125C5.70117 4.125 5.92383 4.125 5.92383 4.125C5.85058 3.82617 5.70117 3.60059 5.625 3.45117C6 3.45117 6.52441 3.45117 6.52441 3.45117L6.29883 3.14941C6.67383 3.07617 7.04883 3.14941 7.27441 3.22558C7.42383 3.14941 7.27441 3 7.125 2.92383C7.42383 3 7.72558 3.07617 7.95117 3.14941C8.10058 3 7.875 2.92383 7.72558 2.77441C8.25 2.85059 8.39941 3 8.625 3.14941C8.77441 3 8.625 2.92383 8.54883 2.77441C8.92383 2.92383 9.07617 3.07617 9.29883 3.22558C9.375 3.14941 9.45117 3.07617 9.375 2.85059C9.52441 3 9.75 3.14941 9.89941 3.375C10.0488 3.29883 9.97558 3.14941 9.97558 3C10.2012 3.22559 10.4238 3.45117 10.5762 3.67383C10.6494 3.67383 10.6494 3.52441 10.6494 3.375C11.25 3.97559 12.1494 5.47559 10.875 6.07617C9.82617 5.17383 8.47558 4.5 7.04883 4.04883C8.92383 5.02441 9.97558 5.77441 10.5762 6.45117C10.2744 7.64941 8.70117 7.72558 8.10058 7.64941C8.25 7.57617 8.32617 7.5 8.32617 7.42383C8.25 7.35059 7.79883 7.42383 7.42383 7.27441ZM9.52441 8.17383C10.125 8.25 6.52441 11.4756 6.45117 10.7256C6.375 8.92383 7.79883 7.875 9.52441 8.17383ZM5.70117 15.2988C4.79883 14.5488 4.5 12.5244 6.14941 11.5488C7.125 11.25 6.52441 15.6006 5.70117 15.2988ZM9.14941 19.0488C8.625 19.3506 7.42383 19.2012 6.60058 18C6 16.9512 6.07617 15.8994 6.52441 15.6006C7.125 15.2256 8.10058 15.75 8.77441 16.5762C9.375 17.25 9.67383 18.6006 9.14941 19.0488ZM8.17383 14.4756C7.27441 13.875 7.125 12.5244 7.79883 11.3994C8.54883 10.3506 9.82617 9.89941 10.7256 10.5C11.625 11.1006 11.7744 12.4512 11.1006 13.5762C10.4238 14.7012 9.07617 15.0762 8.17383 14.4756ZM12 21.1494C10.875 21.2256 9.82617 20.25 9.82617 19.9512C9.82617 19.5 11.1738 19.125 12.0762 19.125C12.9756 19.0488 14.1738 19.4238 14.1738 19.875C14.1738 20.1738 13.0488 21.1494 12 21.1494ZM14.25 16.3506C14.25 17.4756 13.2744 18.375 12.0762 18.375C10.875 18.375 9.82617 17.4756 9.82617 16.3506C9.82617 15.2256 10.7988 14.3262 12 14.3262C13.2744 14.3262 14.25 15.2256 14.25 16.3506ZM12.8994 13.5C12.1494 12.4512 12.375 11.0244 13.2744 10.4238C14.1738 9.82617 15.5244 10.2012 16.2012 11.3262C16.875 12.4512 16.7256 13.7988 15.8262 14.3994C14.9238 14.9238 13.5762 14.5488 12.8994 13.5ZM17.3994 18C16.4238 19.3506 15.1494 19.3506 14.7012 18.9756C14.1738 18.5244 14.5488 17.0244 15.2988 16.2012C16.0488 15.2988 16.9512 14.7012 17.4756 15.1494C17.8506 15.6738 18.0762 17.1006 17.3994 18ZM18.0762 15.2256C17.25 15.6006 16.5762 11.25 17.625 11.4756C19.2744 12.375 18.9756 14.4756 18.0762 15.2256Z" fill="black"/>
</svg>
