<svg width="24" height="24" viewBox="0 0 24 24" fill="none" xmlns="http://www.w3.org/2000/svg">
<path d="M12.8364 3.00881C11.3133 3.07725 9.79574 3.52599 8.26611 4.24074C7.80486 4.45299 7.63312 4.67361 7.45312 5.01711C7.03237 5.80161 6.79164 6.54421 6.64014 7.16896C5.77389 8.21446 5.15261 9.46058 4.87061 10.8413C4.43786 11.5763 4.01725 12.5323 3.92725 13.7578C3.92725 13.7578 3.89995 14.0681 3.9082 14.0801C2.46595 13.8918 0.79541 13.2056 0.79541 13.2056C1.16741 13.7981 3.29913 14.2967 3.91113 14.5254C3.91113 14.5254 3.98139 18.5278 6.54639 19.8838C6.08514 19.1811 6.00293 19.0591 6.00293 19.0591C6.00293 19.0591 4.66676 16.6157 4.89551 14.8067C4.92401 14.8067 4.95783 14.8154 4.98633 14.8154C5.96283 18.3854 9.20107 21 13.0283 21C13.2818 21 13.5229 20.9924 13.7637 20.9722C14.3352 21.0337 14.8906 20.9918 15.4014 20.8125C15.6834 20.7225 15.9665 20.5508 16.2275 20.3716C19.0948 18.7749 20.3481 17.0214 21.2549 14.3379C21.4754 13.6847 21.585 12.8891 21.6548 12.2066C22.0103 8.84431 20.406 5.60417 17.436 4.05617C15.888 3.25142 14.3596 2.94037 12.8364 3.00881ZM13.0415 4.63332C17.3878 4.63332 20.9238 8.19188 20.9238 12.5786C20.9163 15.6821 19.1348 18.3781 16.5615 19.6846C15.969 19.8766 15.0829 20.0267 13.9189 19.8355C13.9189 19.8355 10.1987 18.8919 8.71143 15.4321C10.2714 15.4606 10.852 15.4247 11.8975 15.2739C13.507 15.0414 15.1245 14.6125 16.5952 13.9263C17.0775 13.7058 17.0478 13.1335 16.9863 12.709C16.9046 12.1863 16.5333 12.2149 16.1133 12.5171C16.1133 12.5171 12.7631 14.9095 8.35986 14.71C7.59636 13.4027 7.26562 10.1851 7.26562 10.1851C8.95687 8.74733 10.6631 7.75094 14.1431 8.04494C14.1513 7.78319 14.2651 6.937 13.3096 6.8965C13.3096 6.8965 9.49191 6.44292 7.34766 8.26467C7.44966 7.59042 7.58729 7.0673 7.80029 6.6548C9.19754 5.39705 11.0278 4.63332 13.0415 4.63332ZM6.46436 8.21047C6.46436 8.21047 6.41627 8.71388 6.43652 9.01613C6.29777 9.11813 6.0246 9.347 5.69385 9.69875C5.9061 9.17525 6.15386 8.67172 6.46436 8.21047ZM6.40869 10.9395C6.40869 10.9395 6.47797 12.8994 7.05322 14.6192L5.36133 14.3379C5.27208 13.9622 5.21991 13.5832 5.19141 13.1909C5.37141 12.4882 5.73444 11.5935 6.40869 10.9395ZM5.51367 14.9385C6.11817 15.069 6.9017 15.2491 7.27295 15.3106C8.3882 18.4478 11.6968 20.3877 11.6968 20.3877C11.7373 20.408 11.7661 20.4167 11.8066 20.4287C8.82089 19.9547 6.38742 17.7855 5.51367 14.9385Z" fill="black"/>
</svg>
