<svg width="24" height="24" viewBox="0 0 24 24" fill="none" xmlns="http://www.w3.org/2000/svg">
<path d="M8.55322 2.51952C7.91924 2.47748 7.29616 2.59091 6.75 2.90624C6.02178 3.32668 5.53684 4.04433 5.27637 4.8706C5.01589 5.69686 4.95569 6.64909 5.05078 7.68896C5.06041 7.79429 5.07894 7.90408 5.0918 8.01122C4.99239 8.05374 4.88771 8.0928 4.7915 8.1372C3.84341 8.57478 3.0492 9.10249 2.46387 9.7412C1.87854 10.3799 1.5 11.1591 1.5 12C1.5 12.8409 1.87854 13.6201 2.46387 14.2588C3.0492 14.8975 3.84341 15.4252 4.7915 15.8628C4.88771 15.9072 4.99239 15.9462 5.0918 15.9888C5.07894 16.0959 5.06041 16.2057 5.05078 16.311C4.95569 17.3509 5.01589 18.3031 5.27637 19.1294C5.53684 19.9556 6.02178 20.6733 6.75 21.0937C7.47822 21.5142 8.3417 21.5757 9.1875 21.3882C10.0333 21.2006 10.8877 20.7761 11.7407 20.1738C11.8271 20.1128 11.9137 20.0422 12 19.9775C12.0863 20.0422 12.1729 20.1128 12.2593 20.1738C13.1123 20.7761 13.9667 21.2006 14.8125 21.3882C15.6583 21.5757 16.5218 21.5142 17.25 21.0937C17.9782 20.6733 18.4632 19.9556 18.7236 19.1294C18.9841 18.3031 19.0443 17.3509 18.9492 16.311C18.9396 16.2057 18.9211 16.0959 18.9082 15.9888C19.0076 15.9462 19.1123 15.9072 19.2085 15.8628C20.1566 15.4252 20.9508 14.8975 21.5361 14.2588C22.1215 13.6201 22.5 12.8409 22.5 12C22.5 11.1591 22.1215 10.3799 21.5361 9.7412C20.9508 9.10249 20.1566 8.57478 19.2085 8.1372C19.1123 8.0928 19.0076 8.05374 18.9082 8.01122C18.9211 7.90408 18.9396 7.79429 18.9492 7.68896C19.0443 6.64909 18.9841 5.69686 18.7236 4.8706C18.4632 4.04433 17.9782 3.32668 17.25 2.90624C16.5218 2.4858 15.6583 2.42425 14.8125 2.61181C13.9667 2.79936 13.1123 3.22388 12.2593 3.82616C12.1729 3.88714 12.0863 3.95778 12 4.02245C11.9137 3.95778 11.8271 3.88714 11.7407 3.82616C10.8877 3.22388 10.0333 2.79936 9.1875 2.61181C8.97605 2.56492 8.76455 2.53354 8.55322 2.51952ZM8.45508 4.01366C8.58289 4.02329 8.71875 4.0445 8.86377 4.07665C9.43053 4.20233 10.1093 4.52044 10.8252 5.01855C10.2289 5.58417 9.64215 6.22766 9.08203 6.94775C8.17938 7.07277 7.32916 7.25788 6.54199 7.4912C6.46869 6.62251 6.53157 5.87526 6.70605 5.32177C6.88469 4.75511 7.15206 4.40644 7.5 4.20556C7.76095 4.0549 8.07165 3.9848 8.45508 4.01366ZM15.5449 4.01366C15.9283 3.9848 16.239 4.0549 16.5 4.20556C16.8479 4.40644 17.1153 4.75511 17.2939 5.32177C17.4684 5.87526 17.5313 6.62251 17.458 7.4912C16.6708 7.25788 15.8206 7.07277 14.918 6.94775C14.3579 6.22766 13.7711 5.58417 13.1748 5.01855C13.8907 4.52044 14.5695 4.20233 15.1362 4.07665C15.2812 4.0445 15.4171 4.02329 15.5449 4.01366ZM12 5.96923C12.2636 6.21296 12.5268 6.48399 12.7896 6.76757C12.528 6.75832 12.2666 6.74999 12 6.74999C11.7334 6.74999 11.472 6.75832 11.2104 6.76757C11.4732 6.48399 11.7364 6.21296 12 5.96923ZM12 8.24999C12.7234 8.24999 13.4245 8.29253 14.0991 8.36425C14.4985 8.91259 14.8859 9.49851 15.2476 10.125C15.6093 10.7515 15.923 11.3799 16.1982 12C15.923 12.6201 15.6093 13.2485 15.2476 13.875C14.8859 14.5015 14.4985 15.0874 14.0991 15.6357C13.4245 15.7075 12.7234 15.75 12 15.75C11.2766 15.75 10.5755 15.7075 9.90088 15.6357C9.50148 15.0874 9.11414 14.5015 8.75244 13.875C8.39072 13.2485 8.07695 12.6201 7.80176 12C8.07695 11.3799 8.39072 10.7515 8.75244 10.125C9.11414 9.49851 9.50148 8.91259 9.90088 8.36425C10.5755 8.29253 11.2766 8.24999 12 8.24999ZM7.86328 8.6997C7.72451 8.92156 7.58643 9.1441 7.45312 9.37499C7.31982 9.60588 7.19649 9.83675 7.07373 10.0679C6.95972 9.69904 6.85702 9.33502 6.77783 8.98534C7.12059 8.87894 7.48646 8.78547 7.86328 8.6997ZM16.1367 8.6997C16.5135 8.78547 16.8794 8.87894 17.2222 8.98534C17.143 9.33502 17.0403 9.69904 16.9263 10.0679C16.8035 9.83675 16.6802 9.60588 16.5469 9.37499C16.4136 9.1441 16.2755 8.92156 16.1367 8.6997ZM5.36572 9.52734C5.55739 10.3264 5.82208 11.155 6.16553 12C5.82208 12.8449 5.55739 13.6736 5.36572 14.4726C4.57711 14.1019 3.9618 13.6728 3.56982 13.2451C3.1684 12.8071 3 12.4018 3 12C3 11.5982 3.1684 11.1929 3.56982 10.7549C3.9618 10.3271 4.57711 9.89812 5.36572 9.52734ZM18.6343 9.52734C19.4229 9.89812 20.0382 10.3271 20.4302 10.7549C20.8316 11.1929 21 11.5982 21 12C21 12.4018 20.8316 12.8071 20.4302 13.2451C20.0382 13.6728 19.4229 14.1019 18.6343 14.4726C18.4426 13.6736 18.1779 12.8449 17.8345 12C18.1779 11.155 18.4426 10.3264 18.6343 9.52734ZM12 9.74999C10.7662 9.74999 9.75 10.7662 9.75 12C9.75 13.2337 10.7662 14.25 12 14.25C13.2338 14.25 14.25 13.2337 14.25 12C14.25 10.7662 13.2338 9.74999 12 9.74999ZM12 11.25C12.4231 11.25 12.75 11.5769 12.75 12C12.75 12.4231 12.4231 12.75 12 12.75C11.5769 12.75 11.25 12.4231 11.25 12C11.25 11.5769 11.5769 11.25 12 11.25ZM7.07373 13.9321C7.19649 14.1632 7.31982 14.3941 7.45312 14.625C7.58643 14.8559 7.72451 15.0784 7.86328 15.3003C7.48646 15.2145 7.12059 15.121 6.77783 15.0146C6.85702 14.665 6.95972 14.3009 7.07373 13.9321ZM16.9263 13.9321C17.0403 14.3009 17.143 14.665 17.2222 15.0146C16.8794 15.121 16.5135 15.2145 16.1367 15.3003C16.2755 15.0784 16.4136 14.8559 16.5469 14.625C16.6802 14.3941 16.8035 14.1632 16.9263 13.9321ZM6.54199 16.5088C7.32916 16.7421 8.17938 16.9272 9.08203 17.0522C9.64215 17.7723 10.2289 18.4158 10.8252 18.9814C10.1093 19.4795 9.43053 19.7977 8.86377 19.9233C8.28371 20.052 7.84794 19.9953 7.5 19.7944C7.15206 19.5935 6.88469 19.2449 6.70605 18.6782C6.53157 18.1247 6.46869 17.3775 6.54199 16.5088ZM17.458 16.5088C17.5313 17.3775 17.4684 18.1247 17.2939 18.6782C17.1153 19.2449 16.8479 19.5935 16.5 19.7944C16.1521 19.9953 15.7163 20.052 15.1362 19.9233C14.5695 19.7977 13.8907 19.4795 13.1748 18.9814C13.7711 18.4158 14.3579 17.7723 14.918 17.0522C15.8206 16.9272 16.6708 16.7421 17.458 16.5088ZM11.2104 17.2324C11.472 17.2417 11.7334 17.25 12 17.25C12.2666 17.25 12.528 17.2417 12.7896 17.2324C12.5268 17.516 12.2636 17.787 12 18.0308C11.7364 17.787 11.4732 17.516 11.2104 17.2324Z" fill="black"/>
</svg>
