<svg width="24" height="24" viewBox="0 0 24 24" fill="none" xmlns="http://www.w3.org/2000/svg">
<path d="M12 3C6.5625 3 3 7.53223 3 11.9795C3 16.9541 7.03711 21 12 21C16.9629 21 21 16.9541 21 11.9795C21 7.53223 17.4404 3 12 3ZM12 19.5C7.85742 19.5 4.5 16.1338 4.5 11.9795C4.5 8.38477 7.0166 5.37891 10.3799 4.63477C7.92188 6.03223 7.22754 8.00684 7.01074 9.36621C6.73242 11.1152 7.47656 12.9902 8.8916 13.2275C9.00293 13.2451 9.10547 13.2539 9.20801 13.2539C10.4502 13.2539 11.0977 11.959 11.1914 11.2266C11.3057 10.3418 10.9307 9.41016 10.4238 8.7627C10.1514 8.41406 9.75879 7.94531 9.19629 7.5293L10.0459 6.60059C10.4414 6.8584 10.752 7.29785 10.9043 7.62891C10.9043 7.62891 10.916 7.29492 10.8457 7.03711C10.7549 6.69727 10.6289 6.43945 10.5645 6.3252C10.5234 6.25488 10.4883 6.19922 10.4561 6.15234L12 4.45898L13.5469 6.14941C13.5117 6.19922 13.4766 6.25488 13.4355 6.32227C13.3711 6.43945 13.2451 6.69727 13.1543 7.03711C13.084 7.29492 13.0957 7.62891 13.0957 7.62891C13.248 7.29785 13.5586 6.85547 13.957 6.60059L14.8037 7.52637C14.2412 7.94238 13.8486 8.41113 13.5762 8.75977C13.0664 9.41016 12.6943 10.3389 12.8086 11.2266C12.9023 11.959 13.5498 13.251 14.792 13.251C14.8916 13.251 14.9971 13.2422 15.1084 13.2246C16.5234 12.9873 17.2646 11.1152 16.9863 9.36621C16.7725 8.00684 16.0781 6.03223 13.623 4.63477C16.9863 5.37891 19.5 8.38477 19.5 11.9795C19.5 16.1338 16.1426 19.5 12 19.5ZM9.24316 9.68555C9.57129 10.1045 9.75586 10.6436 9.70312 11.0332C9.67383 11.2705 9.4248 11.7539 9.20801 11.7539C9.1875 11.7539 9.16406 11.751 9.14062 11.7451C8.75977 11.6836 8.32031 10.6963 8.49316 9.60059C8.52539 9.39258 8.56934 9.19336 8.62207 8.99707C8.87402 9.22852 9.07324 9.47168 9.24316 9.68555ZM15.3779 8.99707C15.4307 9.19336 15.4746 9.39258 15.5068 9.60059C15.6797 10.6963 15.2402 11.6836 14.8594 11.7451C14.8359 11.751 14.8125 11.7539 14.792 11.7539C14.5752 11.7539 14.3262 11.2705 14.2969 11.0332C14.2441 10.6436 14.4287 10.1016 14.7568 9.68555C14.9268 9.46875 15.126 9.22852 15.3779 8.99707Z" fill="black"/>
</svg>
