<svg width="24" height="24" viewBox="0 0 24 24" fill="none" xmlns="http://www.w3.org/2000/svg">
<path d="M5.25 4.03125V9.75H2.25V20.25H21.75V9.75H18.75V4.03125L16.5 5.15625L15 4.40625L13.5 5.15625L12 4.40625L10.5 5.15625L9 4.40625L7.5 5.15625L5.25 4.03125ZM9 6.09375L10.5 6.84375L12 6.09375L13.5 6.84375L15 6.09375L16.5 6.84375L17.25 6.46875V12.75H6.75V6.46875L7.5 6.84375L9 6.09375ZM3.75 11.25H5.25V14.25H18.75V11.25H20.25V18.75H3.75V11.25ZM6.75 15.75V17.25H8.25V15.75H6.75ZM9.75 15.75V17.25H11.25V15.75H9.75ZM12.75 15.75V17.25H14.25V15.75H12.75ZM15.75 15.75V17.25H17.25V15.75H15.75Z" fill="black"/>
</svg>
