<svg width="24" height="24" viewBox="0 0 24 24" fill="none" xmlns="http://www.w3.org/2000/svg">
<path d="M12 3C7.03711 3 3 7.03711 3 12C3 16.9629 7.03711 21 12 21C16.9629 21 21 16.9629 21 12C21 7.03711 16.9629 3 12 3ZM12 4.5C16.1514 4.5 19.5 7.84863 19.5 12C19.5 16.1514 16.1514 19.5 12 19.5C7.84863 19.5 4.5 16.1514 4.5 12C4.5 7.84863 7.84863 4.5 12 4.5ZM16.1484 6.79688L14.7188 8.20312L15.7969 9.28125L17.2031 7.85156L16.1484 6.79688ZM12 8.25C9.9375 8.25 8.25 9.9375 8.25 12C8.25 14.0625 9.9375 15.75 12 15.75C14.0625 15.75 15.75 14.0625 15.75 12C15.75 9.9375 14.0625 8.25 12 8.25ZM12 9.75C13.251 9.75 14.25 10.749 14.25 12C14.25 13.251 13.251 14.25 12 14.25C10.749 14.25 9.75 13.251 9.75 12C9.75 10.749 10.749 9.75 12 9.75ZM12 11.25C11.5869 11.25 11.25 11.5869 11.25 12C11.25 12.4131 11.5869 12.75 12 12.75C12.4131 12.75 12.75 12.4131 12.75 12C12.75 11.5869 12.4131 11.25 12 11.25ZM8.20312 14.7188L6.79688 16.1484L7.85156 17.2031L9.28125 15.7969L8.20312 14.7188Z" fill="black"/>
</svg>
