<svg width="24" height="24" viewBox="0 0 24 24" fill="none" xmlns="http://www.w3.org/2000/svg">
<path d="M12 2.97656C11.209 2.97656 10.4121 3.36328 9.9375 4.10156L7.82813 7.57031L9.11719 8.34375L11.2266 4.89844C11.6309 4.29492 12.3984 4.28027 12.7969 4.89844L15.1406 8.64844L14.0156 9.30469L17.4844 11.25V7.26562L16.4062 7.89844L14.0625 4.10156C13.5879 3.36328 12.791 2.97656 12 2.97656ZM7.80469 9.07031L4.42969 11.0156L5.36719 11.5781L3.44531 14.7422L3.42188 14.7188C3.41309 14.7334 3.43067 14.751 3.42188 14.7656C2.31738 16.4385 3.5918 18.75 5.625 18.75H9.75V17.25H5.625C4.67578 17.25 4.16602 16.3125 4.66406 15.5859L4.6875 15.5625V15.5391L6.65625 12.3516L7.80469 13.0547V9.07031ZM18.7969 11.7422L17.5078 12.5391L19.3828 15.5391C19.8633 16.3564 19.3184 17.25 18.4453 17.25H14.25V15.75L10.5703 18L14.25 20.25V18.75H18.4453C20.4229 18.75 21.6914 16.5 20.6719 14.7656V14.7422L18.7969 11.7422Z" fill="black"/>
</svg>
