<svg width="24" height="24" viewBox="0 0 24 24" fill="none" xmlns="http://www.w3.org/2000/svg">
<path d="M13.9922 3C12.4189 3 11.25 4.28027 11.25 5.74219V8.27344C9.18164 8.38184 7.30664 8.92969 5.78906 9.79688C5.20898 9.2373 4.43555 9 3.67969 9C2.8623 9 2.03027 9.2666 1.45312 9.91406V9.9375L1.42969 9.96094C0.875975 10.6523 0.650389 11.5752 0.796873 12.4922C0.931639 13.333 1.42383 14.1885 2.27344 14.7422C2.26758 14.8271 2.25 14.9121 2.25 15C2.25 16.9541 3.43066 18.665 5.20312 19.8516C6.97558 21.0381 9.36621 21.75 12 21.75C14.6338 21.75 17.0244 21.0381 18.7969 19.8516C20.5693 18.665 21.75 16.9541 21.75 15C21.75 14.9121 21.7324 14.8271 21.7266 14.7422C22.5762 14.1885 23.0684 13.333 23.2031 12.4922C23.3496 11.5752 23.124 10.6523 22.5703 9.96094L22.5469 9.9375C21.9697 9.29004 21.1377 9 20.3203 9C19.5645 9 18.791 9.2373 18.2109 9.79688C16.6934 8.92969 14.8184 8.38184 12.75 8.27344V5.74219C12.75 5.00684 13.1689 4.5 13.9922 4.5C14.3818 4.5 14.8652 4.68457 15.6094 4.94531C16.2422 5.16797 17.0625 5.41406 18.1172 5.48438C18.3721 6.2168 19.0605 6.75 19.875 6.75C20.9062 6.75 21.75 5.90625 21.75 4.875C21.75 3.84375 20.9062 3 19.875 3C19.166 3 18.5537 3.40137 18.2344 3.98438C17.335 3.93164 16.6846 3.74414 16.1016 3.53906C15.4248 3.30176 14.8008 3 13.9922 3ZM12 9.75C14.3643 9.75 16.4736 10.4004 17.9531 11.3906C19.4326 12.3809 20.25 13.6523 20.25 15C20.25 16.3477 19.4326 17.6191 17.9531 18.6094C16.4736 19.5996 14.3643 20.25 12 20.25C9.63574 20.25 7.52636 19.5996 6.04687 18.6094C4.56738 17.6191 3.75 16.3477 3.75 15C3.75 13.6523 4.56738 12.3809 6.04687 11.3906C7.52636 10.4004 9.63574 9.75 12 9.75ZM3.67969 10.5C3.96387 10.5 4.24511 10.5703 4.47656 10.6875C3.66211 11.3701 3.0293 12.1816 2.64844 13.0781C2.45801 12.8379 2.34375 12.5508 2.29687 12.2578C2.21484 11.7539 2.36133 11.2324 2.60156 10.9219C2.60449 10.916 2.59863 10.9043 2.60156 10.8984C2.83008 10.6582 3.23437 10.5 3.67969 10.5ZM20.3203 10.5C20.7656 10.5 21.1699 10.6582 21.3984 10.8984C21.4014 10.9014 21.3955 10.9189 21.3984 10.9219C21.6387 11.2324 21.7852 11.7539 21.7031 12.2578C21.6562 12.5508 21.542 12.8379 21.3516 13.0781C20.9707 12.1816 20.3379 11.3701 19.5234 10.6875C19.7549 10.5703 20.0361 10.5 20.3203 10.5ZM8.25 12C7.4209 12 6.75 12.6709 6.75 13.5C6.75 14.3291 7.4209 15 8.25 15C9.0791 15 9.75 14.3291 9.75 13.5C9.75 12.6709 9.0791 12 8.25 12ZM15.75 12C14.9209 12 14.25 12.6709 14.25 13.5C14.25 14.3291 14.9209 15 15.75 15C16.5791 15 17.25 14.3291 17.25 13.5C17.25 12.6709 16.5791 12 15.75 12ZM15.9375 16.1484C15.0762 16.9482 13.6289 17.4609 12 17.4609C10.3711 17.4609 8.92383 16.9424 8.0625 16.2422C8.54297 17.543 10.084 18.75 12 18.75C13.916 18.75 15.457 17.5488 15.9375 16.1484Z" fill="black"/>
</svg>
