<svg width="24" height="24" viewBox="0 0 24 24" fill="none" xmlns="http://www.w3.org/2000/svg">
<path d="M3.75 3.75V20.25H20.25V3.75H3.75ZM5.25 5.25H18.75V18.75H5.25V5.25ZM12.7939 6.74561C12.6604 6.72311 12.5281 6.81129 12.4966 6.94629L11.8491 9.75586C10.5966 9.78736 9.47556 10.2014 8.68506 10.8486C8.48031 10.6349 8.1945 10.5 7.875 10.5C7.254 10.5 6.75 11.004 6.75 11.625C6.75 12.129 7.08427 12.5511 7.54102 12.6943C7.51702 12.8361 7.5 12.9788 7.5 13.125C7.5 14.9887 9.5145 16.5 12 16.5C14.4855 16.5 16.5 14.9887 16.5 13.125C16.5 12.9788 16.483 12.8361 16.459 12.6943C16.9157 12.5511 17.25 12.129 17.25 11.625C17.25 11.004 16.746 10.5 16.125 10.5C15.8055 10.5 15.5197 10.6349 15.3149 10.8486C14.5739 10.2419 13.5425 9.83815 12.3853 9.76465L12.9521 7.30371L15.0293 7.64648C15.099 7.98773 15.3877 8.25 15.75 8.25C16.164 8.25 16.5 7.914 16.5 7.5C16.5 7.086 16.164 6.75 15.75 6.75C15.474 6.75 15.2433 6.90664 15.1128 7.12939L12.7939 6.74561ZM9.81885 11.8638C10.2711 11.8638 10.6362 12.2289 10.6362 12.6812C10.6362 13.1334 10.2703 13.5 9.81885 13.5C9.36735 13.5 9 13.1334 9 12.6812C9 12.2297 9.3666 11.8638 9.81885 11.8638ZM14.1812 11.8638C14.6334 11.8638 15 12.2297 15 12.6812C15 13.1327 14.6334 13.5 14.1812 13.5C13.7297 13.5 13.3638 13.1334 13.3638 12.6812C13.3638 12.2289 13.7289 11.8638 14.1812 11.8638ZM10.1045 14.2661C10.1715 14.261 10.2405 14.2819 10.2949 14.3291C11.1604 15.0701 12.8381 15.0701 13.7036 14.3291C13.8131 14.2354 13.9797 14.2467 14.0742 14.3569C14.1687 14.4672 14.1566 14.633 14.0464 14.7275C13.5206 15.179 12.7747 15.438 12 15.438C11.2253 15.438 10.4801 15.179 9.95361 14.7275C9.84336 14.633 9.83128 14.4672 9.92578 14.3569C9.97303 14.3018 10.0375 14.2713 10.1045 14.2661Z" fill="black"/>
</svg>
