<svg width="24" height="24" viewBox="0 0 24 24" fill="none" xmlns="http://www.w3.org/2000/svg">
<path d="M12.2915 4.50146C11.7088 4.50146 11.5389 5.31152 10.8384 5.31152C10.1596 5.31152 9.66673 4.70361 9.03223 4.70361C8.42698 4.70361 8.03516 5.14802 7.73291 6.06152C6.70016 9.18377 6.74543 9.05108 6.75293 9.21533C6.75293 10.2143 10.4109 13.4927 15.3076 13.4927V13.5C16.5684 13.5 18.3896 13.2185 18.3896 11.603C18.4046 11.33 18.4271 11.5333 17.6089 7.72559C17.4394 6.95234 17.2838 6.60094 16.0298 5.92969C15.0488 5.39044 12.9185 4.50146 12.2915 4.50146ZM6.20215 9.7793C4.47715 9.8618 2.25 10.1777 2.25 12.1802C2.25 15.4577 9.89232 19.5 15.9448 19.5C20.5798 19.5 21.75 17.3701 21.75 15.6826C21.75 14.3551 20.6243 12.8546 18.5918 11.9546C18.765 12.8831 18.75 13.169 18.75 13.2905C18.75 14.8708 17.1336 15.75 15.0059 15.75C10.2096 15.7583 6 12.6551 6 10.6113C6 10.3263 6.09715 10.0403 6.20215 9.7793Z" fill="black"/>
</svg>
