<svg width="24" height="24" viewBox="0 0 24 24" fill="none" xmlns="http://www.w3.org/2000/svg">
<path d="M12 2.25C6.62402 2.25 2.25 6.62402 2.25 12C2.25 17.376 6.62402 21.75 12 21.75C17.376 21.75 21.75 17.376 21.75 12C21.75 6.62402 17.376 2.25 12 2.25ZM12 3.75C16.5645 3.75 20.25 7.43555 20.25 12C20.25 16.5645 16.5645 20.25 12 20.25C7.43555 20.25 3.75 16.5645 3.75 12C3.75 7.43555 7.43555 3.75 12 3.75ZM9 7.5V16.5H10.5V13.5H13.0547L14.25 16.5H15.75L14.4844 13.3125C15.6562 12.9053 16.5 11.8125 16.5 10.5C16.5 8.8418 15.1582 7.5 13.5 7.5H9ZM10.5 9H13.5C14.3936 9 15 9.60645 15 10.5C15 11.3936 14.3936 12 13.5 12H10.5V9Z" fill="black"/>
</svg>
