<svg width="24" height="24" viewBox="0 0 24 24" fill="none" xmlns="http://www.w3.org/2000/svg">
<path d="M3.2168 4.47949L2.31299 5.67773L20.833 19.6333L21.7354 18.4351L13.5205 12.2446L15.2139 7.5H18.75V8.625C18.75 8.832 18.918 9 19.125 9H19.875C20.082 9 20.25 8.832 20.25 8.625V5.625C20.25 5.418 20.082 5.25 19.875 5.25H7.875C7.668 5.25 7.5 5.418 7.5 5.625V7.70801L3.2168 4.47949ZM9 7.5H12.9639L11.7466 10.9087L8.9502 8.80078C8.97904 8.74767 9 8.68965 9 8.625V7.5ZM10.6904 13.8677L9.75 16.5H8.625C8.418 16.5 8.25 16.668 8.25 16.875V18.375C8.25 18.582 8.418 18.75 8.625 18.75H12.375C12.582 18.75 12.75 18.582 12.75 18.375V16.875C12.75 16.668 12.582 16.5 12.375 16.5H12L12.4644 15.1992L10.6904 13.8677Z" fill="black"/>
</svg>
