<svg width="24" height="24" viewBox="0 0 24 24" fill="none" xmlns="http://www.w3.org/2000/svg">
<path d="M5.67188 5.25C2.46094 5.78906 0 8.58691 0 11.9531C0 13.626 0.615235 15.1523 1.61719 16.3359C3.99609 15.1846 5.66016 12.5947 5.67188 9.5625V5.25ZM7.92188 5.25V9.51562C7.92188 12.5596 9.5918 15.1816 11.9766 16.3359C10.9746 15.1523 10.3594 13.626 10.3594 11.9531C10.3594 10.2803 10.9717 8.75391 11.9766 7.57031C10.9629 6.37207 9.53613 5.51953 7.92188 5.25ZM11.9766 7.57031C12.9785 8.75391 13.6406 10.2803 13.6406 11.9531C13.6406 13.626 12.9785 15.1523 11.9766 16.3359C14.3555 15.1846 16.0664 12.5918 16.0781 9.5625V5.25C14.4639 5.52246 12.9902 6.37207 11.9766 7.57031ZM18.3281 5.25V9.51562C18.3281 12.5596 19.998 15.1816 22.3828 16.3359C23.3848 15.1523 24 13.626 24 11.9531C24 8.58691 21.5391 5.78906 18.3281 5.25ZM6.79688 13.6641C6.375 15.416 5.11523 16.9102 3.53906 17.9062C4.50586 18.4365 5.61621 18.75 6.79688 18.75C7.97754 18.75 9.08789 18.4365 10.0547 17.9062C8.48145 16.9102 7.21875 15.416 6.79688 13.6641ZM17.2031 13.6641C16.7812 15.416 15.5215 16.9102 13.9453 17.9062C14.9121 18.4365 16.0225 18.75 17.2031 18.75C18.3838 18.75 19.4941 18.4365 20.4609 17.9062C18.8877 16.9102 17.625 15.416 17.2031 13.6641Z" fill="black"/>
</svg>
