<svg width="24" height="24" viewBox="0 0 24 24" fill="none" xmlns="http://www.w3.org/2000/svg">
<path d="M7.71094 3.96094L1.71094 9.96094L1.19531 10.5L1.71094 11.0391L7.71094 17.0391L8.78906 15.9609L3.32812 10.5L8.78906 5.03906L7.71094 3.96094ZM11.4609 3.96094L5.46094 9.96094L4.94531 10.5L5.46094 11.0391L11.4609 17.0391L12.5391 15.9609L7.82812 11.25H17.25C19.3301 11.25 21 12.9199 21 15C21 17.0801 19.3301 18.75 17.25 18.75V20.25C20.1416 20.25 22.5 17.8916 22.5 15C22.5 12.1084 20.1416 9.75 17.25 9.75H7.82812L12.5391 5.03906L11.4609 3.96094Z" fill="black"/>
</svg>
