<svg width="24" height="24" viewBox="0 0 24 24" fill="none" xmlns="http://www.w3.org/2000/svg">
<path d="M3.75 3.75V20.25H20.25V3.75H3.75ZM5.25 5.25H18.75V18.75H5.25V5.25ZM13.2979 12.7573C12.6454 12.7573 12.143 12.9448 11.7905 13.3198C11.4305 13.6873 11.25 14.25 11.25 15C11.25 15.705 11.408 16.2519 11.7305 16.6494C12.0455 17.0469 12.5478 17.25 13.2378 17.25C13.5678 17.25 13.8755 17.2054 14.168 17.1079C14.4605 17.0179 14.6927 16.8972 14.8652 16.7622L14.4976 16.043C14.3926 16.118 14.2571 16.1923 14.0771 16.2598C13.8896 16.3273 13.6798 16.3652 13.4473 16.3652C13.0723 16.3652 12.8022 16.2757 12.6372 16.0957C12.4647 15.9157 12.3754 15.6456 12.3604 15.2856H14.918C14.9405 15.1356 14.963 15.0004 14.978 14.8579C14.993 14.7229 15 14.5956 15 14.4756C15 14.1456 14.9479 13.8744 14.8579 13.6494C14.7604 13.4319 14.6331 13.2525 14.4756 13.125C14.3106 12.99 14.1302 12.8994 13.9277 12.8394C13.7252 12.7869 13.5154 12.7573 13.2979 12.7573ZM10.2451 12.7793C10.0201 12.7793 9.82564 12.8321 9.66064 12.9521C9.49564 13.0646 9.36703 13.2226 9.26953 13.4326H9.24023L9.10547 12.8701H8.25V17.1299H9.36035V14.3774C9.40535 14.2124 9.49506 14.0781 9.62256 13.9731C9.75756 13.8756 9.92268 13.8223 10.1177 13.8223C10.2602 13.8223 10.4181 13.8531 10.5981 13.9131L10.7476 12.8701C10.5601 12.8101 10.3876 12.7793 10.2451 12.7793ZM16.5527 12.8394C16.3427 12.8394 16.1851 12.8997 16.0576 13.0122C15.9301 13.1322 15.8701 13.2904 15.8701 13.4854C15.8701 13.6879 15.9301 13.8444 16.0576 13.9644C16.1851 14.0844 16.3427 14.1445 16.5527 14.1445C16.7627 14.1445 16.935 14.0844 17.0625 13.9644C17.19 13.8444 17.25 13.6879 17.25 13.4854C17.25 13.2904 17.19 13.1322 17.0625 13.0122C16.935 12.8997 16.7702 12.8394 16.5527 12.8394ZM13.2744 13.6421C13.5294 13.6421 13.7098 13.7246 13.8223 13.8896C13.9423 14.0546 13.9869 14.2882 13.9644 14.5957H12.3823C12.4123 14.3107 12.4949 14.0768 12.6299 13.9043C12.7724 13.7318 12.9819 13.6421 13.2744 13.6421ZM16.5527 15.9229C16.3427 15.9229 16.1851 15.9757 16.0576 16.0957C15.9301 16.2082 15.8701 16.3649 15.8701 16.5674C15.8701 16.7699 15.9301 16.9279 16.0576 17.0479C16.1851 17.1679 16.3427 17.2207 16.5527 17.2207C16.7627 17.2207 16.935 17.1679 17.0625 17.0479C17.19 16.9279 17.25 16.7624 17.25 16.5674C17.25 16.3649 17.19 16.2082 17.0625 16.0957C16.935 15.9757 16.7702 15.9229 16.5527 15.9229Z" fill="black"/>
</svg>
