<svg width="24" height="24" viewBox="0 0 24 24" fill="none" xmlns="http://www.w3.org/2000/svg">
<path d="M7.5 5.25C5.0145 5.25 3 7.2645 3 9.75V12H19.5V9.75C19.5 7.2645 17.4855 5.25 15 5.25H7.5ZM11.2603 7.61133C11.3265 7.61133 11.3945 7.64245 11.4331 7.70508L11.7891 8.45654L12.6182 8.58105C12.7614 8.60055 12.8289 8.78388 12.7134 8.87988L12.1157 9.46729L12.252 10.2876C12.2812 10.4421 12.1365 10.547 12.0015 10.4795L11.2588 10.0942L10.5176 10.4795C10.3923 10.547 10.2386 10.4421 10.2671 10.2876L10.4019 9.46729L9.8042 8.87988C9.69845 8.78313 9.75738 8.5998 9.91113 8.58105L10.73 8.45654L11.0962 7.70508C11.1299 7.64245 11.194 7.61133 11.2603 7.61133ZM6.75293 7.62158C6.81771 7.62158 6.88215 7.65162 6.91553 7.71387L7.28027 8.4624L8.10645 8.58691C8.2512 8.60641 8.29862 8.78974 8.19287 8.88574L7.59814 9.47168L7.7417 10.2876C7.7702 10.4413 7.60767 10.547 7.48242 10.4795L6.75293 10.0957L6.01318 10.4795C5.87893 10.547 5.73516 10.4413 5.75391 10.2876L5.89746 9.47168L5.30273 8.88574C5.18723 8.78974 5.25395 8.60641 5.39795 8.58691L6.22559 8.4624L6.58887 7.71387C6.62262 7.65162 6.68815 7.62158 6.75293 7.62158ZM15.7515 7.62451C15.8162 7.62451 15.8842 7.65601 15.9229 7.71826L16.2876 8.46533L17.1021 8.58984C17.2446 8.60934 17.312 8.79196 17.1973 8.88721L16.6025 9.47314L16.7461 10.2876C16.7656 10.4413 16.6211 10.5462 16.4868 10.4795L15.7485 10.0972L15.0117 10.4795C14.897 10.5462 14.7334 10.4413 14.7627 10.2876L14.896 9.47314L14.3115 8.88721C14.1968 8.79121 14.2545 8.60859 14.4082 8.58984L15.2314 8.46533L15.5962 7.71826C15.6251 7.65601 15.6868 7.62451 15.7515 7.62451ZM3 13.5V14.25V15.75V18C3 18.414 3.336 18.75 3.75 18.75H6C6.414 18.75 6.75 18.414 6.75 18V15.75H12.75V18C12.75 18.414 13.086 18.75 13.5 18.75H15.75C16.164 18.75 16.5 18.414 16.5 18V15.75V15H18V16.4121C18 17.4996 18.7338 18.4983 19.8018 18.7061C21.238 18.9851 22.5 17.8875 22.5 16.5V14.7817C22.5 14.4877 22.263 14.25 21.9697 14.25H21.5317C21.2377 14.25 21 14.4877 21 14.7817V16.5C21 16.9132 20.6632 17.25 20.25 17.25C19.8368 17.25 19.5 16.9132 19.5 16.5V13.5H16.5H3Z" fill="black"/>
</svg>
