<svg width="24" height="24" viewBox="0 0 24 24" fill="none" xmlns="http://www.w3.org/2000/svg">
<path d="M12 2.25C7.39275 2.25 3.5335 5.46629 2.521 9.76904L2.53271 9.76465L11.2017 7.26709C12.5584 6.87184 13.3173 6.8135 14.3013 6.94775C15.7173 7.18625 16.3596 7.9234 16.6948 9.1084L17.1182 10.585C17.4384 11.6807 17.1568 12.5597 16.1953 13.4619C15.4423 14.1399 14.9794 14.4156 13.7944 14.7583L10.1792 15.7939L18.7881 16.853L19.1675 18.186L17.2896 18.709L6.08789 17.2544L6.96533 20.3335C8.43683 21.2267 10.1565 21.75 12 21.75C17.376 21.75 21.75 17.376 21.75 12C21.75 6.624 17.376 2.25 12 2.25ZM13.5293 8.79785C13.1277 8.79346 12.5741 8.89512 11.7979 9.12012L4.40186 11.2427L5.52686 15.1201L13.3052 12.8701C15.1127 12.3526 15.2556 11.948 15.0381 11.168L14.5957 9.62256C14.4457 9.10693 14.1986 8.80518 13.5293 8.79785ZM2.25586 12.0996C2.27461 13.9356 2.8067 15.6469 3.71045 17.1079L2.25586 12.0996Z" fill="black"/>
</svg>
