<svg width="24" height="24" viewBox="0 0 24 24" fill="none" xmlns="http://www.w3.org/2000/svg">
<path d="M11.25 2.25V3.78809C7.05183 4.16878 3.75 7.7044 3.75 12C3.75 16.5487 7.45125 20.25 12 20.25H20.25V12C20.25 9.47475 19.1077 7.21396 17.3145 5.69971L15.917 6.51416C17.6285 7.73966 18.75 9.7395 18.75 12C18.75 15.7215 15.7222 18.75 12 18.75C8.27775 18.75 5.25 15.7215 5.25 12C5.25 8.53194 7.87948 5.66825 11.25 5.29395V7.5L15.75 4.875L11.25 2.25ZM12 9.75C11.4033 9.75 10.831 9.98705 10.409 10.409C9.98705 10.831 9.75 11.4033 9.75 12C9.75 12.5967 9.98705 13.169 10.409 13.591C10.831 14.0129 11.4033 14.25 12 14.25C12.5967 14.25 13.169 14.0129 13.591 13.591C14.0129 13.169 14.25 12.5967 14.25 12C14.25 11.4033 14.0129 10.831 13.591 10.409C13.169 9.98705 12.5967 9.75 12 9.75Z" fill="black"/>
</svg>
