<svg width="24" height="24" viewBox="0 0 24 24" fill="none" xmlns="http://www.w3.org/2000/svg">
<path d="M19.5 5.25003L19.2744 5.02444C18 3.60061 16.125 3.14944 16.125 3.14944C13.875 2.47561 10.3506 3.97561 7.20117 7.04886C4.57617 9.52444 3 12.5244 3 14.7744C3 15.0762 3.07617 15.375 3.07617 15.6739C3.22559 17.1739 4.20117 18.75 5.02441 19.5C6.07617 20.5489 7.42383 21.0762 8.92383 21.0762C11.3994 21.0762 14.3262 19.6494 17.0244 17.1006C21.2256 12.9756 22.2744 8.10061 19.5 5.25003ZM7.5 16.2744C7.5 15.2989 8.54883 13.2744 10.7988 11.0244C12.9756 8.85061 15.2256 8.25003 16.2744 8.02444C15.75 9.4512 14.625 11.1739 12.9756 12.8262C11.3994 14.3262 9.60059 15.5244 8.02441 16.125C7.875 16.2012 7.64941 16.2012 7.5 16.2744ZM8.25 8.10061C10.7256 5.62503 13.3506 4.42386 15 4.42386C15.5244 4.42386 15.9756 4.5762 16.2744 4.87503C16.5762 5.17386 16.7256 5.77444 16.6494 6.4512C15.75 6.52444 12.6738 7.04886 9.75 9.97561C7.875 11.8506 5.92383 14.5489 6.07617 16.4239C5.625 16.4239 5.17383 16.2744 4.95117 16.0489C4.79883 15.8994 4.64941 15.6739 4.57617 15.375C4.57617 15.375 4.5 15 4.5 14.7744C4.57617 12.8994 6 10.2744 8.25 8.10061ZM15.9756 15.9756C12.375 19.5762 8.25 20.5489 6.07617 18.4512C5.92383 18.2989 5.77441 18.1494 5.625 17.9239C5.77441 18 6 18 6.22559 18C6.89941 18 7.72559 17.8506 8.54883 17.5489C10.3506 16.875 12.2988 15.6006 14.0244 13.875C16.6494 11.25 18.1494 8.25003 18.1494 6.0762L18.2256 6.14944L18.4512 6.29886C20.5488 8.47561 19.5 12.5244 15.9756 15.9756Z" fill="black"/>
</svg>
