<svg width="24" height="24" viewBox="0 0 24 24" fill="none" xmlns="http://www.w3.org/2000/svg">
<path d="M12 0.75C11.1709 0.75 10.5 1.4209 10.5 2.25C10.5 2.80371 10.8018 3.27832 11.25 3.53906V5.25H7.5C5.4375 5.25 3.75 6.9375 3.75 9V10.5H1.5V16.5H3.75V20.25H20.25V16.5H22.5V10.5H20.25V9C20.25 6.9375 18.5625 5.25 16.5 5.25H12.75V3.53906C13.1982 3.27832 13.5 2.80371 13.5 2.25C13.5 1.4209 12.8291 0.75 12 0.75ZM7.5 6.75H16.5C17.751 6.75 18.75 7.74902 18.75 9V18.75H17.25V15H6.75V18.75H5.25V9C5.25 7.74902 6.24902 6.75 7.5 6.75ZM9 9.75C8.1709 9.75 7.5 10.4209 7.5 11.25C7.5 12.0791 8.1709 12.75 9 12.75C9.8291 12.75 10.5 12.0791 10.5 11.25C10.5 10.4209 9.8291 9.75 9 9.75ZM15 9.75C14.1709 9.75 13.5 10.4209 13.5 11.25C13.5 12.0791 14.1709 12.75 15 12.75C15.8291 12.75 16.5 12.0791 16.5 11.25C16.5 10.4209 15.8291 9.75 15 9.75ZM3 12H3.75V15H3V12ZM20.25 12H21V15H20.25V12ZM8.25 16.5H9.75V18.75H8.25V16.5ZM11.25 16.5H12.75V18.75H11.25V16.5ZM14.25 16.5H15.75V18.75H14.25V16.5Z" fill="black"/>
</svg>
