<svg width="24" height="24" viewBox="0 0 24 24" fill="none" xmlns="http://www.w3.org/2000/svg">
<path d="M12 2.25C6.624 2.25 2.25 6.624 2.25 12C2.25 17.376 6.624 21.75 12 21.75C17.376 21.75 21.75 17.376 21.75 12C21.75 6.624 17.376 2.25 12 2.25ZM12 3.75C16.5487 3.75 20.25 7.45125 20.25 12C20.25 16.5487 16.5487 20.25 12 20.25C7.45125 20.25 3.75 16.5487 3.75 12C3.75 7.45125 7.45125 3.75 12 3.75ZM11.625 6C11.409 6 11.2021 6.09435 11.0596 6.25635L6.03516 12H8.02734L11.6045 7.91309L14.9238 12H11.25C10.9567 12 10.6911 12.171 10.5688 12.4365C10.4466 12.7028 10.4897 13.015 10.6802 13.2378L14.1196 17.25H16.0957L12.8804 13.5H16.5C16.7895 13.5 17.0523 13.3333 17.1768 13.0723C17.3005 12.8113 17.2638 12.5011 17.0815 12.2769L12.2065 6.27686C12.067 6.10511 11.8594 6.00375 11.6396 6H11.625Z" fill="black"/>
</svg>
