<svg width="24" height="24" viewBox="0 0 24 24" fill="none" xmlns="http://www.w3.org/2000/svg">
<path d="M19.4297 3C18.9082 3 18.1816 3.02344 17.4141 3.09375C15.8789 3.2373 14.1064 3.49512 13.0078 4.59375C12.085 5.5166 10.1777 7.96582 8.41406 10.2656C8.06543 10.7197 8.08008 10.7109 7.75781 11.1328L6.46875 11.0625C5.51074 11.0127 4.58789 11.417 3.98438 12.1641L2.41406 14.0859L1.64062 15.0703L2.85938 15.3047L5.32031 15.7969L8.20312 18.6797L8.69531 21.1406L8.95312 22.3594L9.91406 21.5859L11.8359 20.0156C12.583 19.4121 12.9873 18.4893 12.9375 17.5312L12.8672 16.2656C13.3037 15.9346 13.2891 15.9434 13.7578 15.5859C16.0635 13.8193 18.5215 11.9238 19.4297 11.0156C20.5195 9.92578 20.7627 8.12695 20.9062 6.58594C21.0498 5.04492 20.9766 3.72656 20.9766 3.72656L20.9531 3.04688L20.2734 3.02344C20.2734 3.02344 19.9512 3 19.4297 3ZM18.75 4.5C19.0488 4.5 19.2598 4.51758 19.4766 4.52344C19.4854 4.95996 19.5029 5.41406 19.4062 6.44531C19.2744 7.86621 18.8408 9.44824 18.3516 9.9375C17.6836 10.6055 15.1406 12.6299 12.8438 14.3906C10.8135 15.9463 9.38379 17.0391 8.97656 17.3438L6.67969 15.0469C6.9873 14.6338 8.03906 13.1982 9.58594 11.1797C11.3438 8.88867 13.374 6.33691 14.0625 5.64844C14.5752 5.13574 16.1396 4.70215 17.5547 4.57031C18.0674 4.52344 18.4512 4.5 18.75 4.5ZM15.3281 7.14844C14.4902 7.14844 13.8281 7.83398 13.8281 8.67188C13.8281 9.50977 14.4902 10.1953 15.3281 10.1953C16.166 10.1953 16.8516 9.50977 16.8516 8.67188C16.8516 7.83398 16.166 7.14844 15.3281 7.14844ZM6.375 12.5625L6.65625 12.5859C6.20508 13.1836 5.4668 14.1416 5.36719 14.2734L4.35938 14.0625L5.13281 13.125C5.43457 12.7529 5.89453 12.5361 6.375 12.5625ZM4.66406 16.4531C4.02246 17.0947 3.65625 17.9824 3.39844 18.7266C3.14062 19.4707 3.02344 20.0859 3.02344 20.0859L2.78906 21.1875L3.89062 20.9766C3.89062 20.9766 4.48828 20.874 5.22656 20.625C5.96484 20.376 6.85254 20.0068 7.52344 19.3359L6.46875 18.2812C6.13477 18.6152 5.47266 18.9082 4.875 19.125C5.10352 18.501 5.4375 17.792 5.71875 17.5078L4.66406 16.4531ZM11.4141 17.3438L11.4375 17.625C11.4639 18.1055 11.2734 18.5654 10.8984 18.8672L9.9375 19.6406L9.72656 18.6328C9.8584 18.5361 10.8164 17.792 11.4141 17.3438Z" fill="black"/>
</svg>
