<svg width="24" height="24" viewBox="0 0 24 24" fill="none" xmlns="http://www.w3.org/2000/svg">
<path d="M4.5 3C3.67969 3 3 3.67969 3 4.5C3 5.32031 3.67969 6 4.5 6C5.32031 6 6 5.32031 6 4.5C6 3.67969 5.32031 3 4.5 3ZM7.5 3.75C7.08691 3.75 6.75 4.08691 6.75 4.5C6.75 4.91309 7.08691 5.25 7.5 5.25C7.91309 5.25 8.25 4.91309 8.25 4.5C8.25 4.08691 7.91309 3.75 7.5 3.75ZM9.75 3.75C9.33691 3.75 9 4.08691 9 4.5C9 4.91309 9.33691 5.25 9.75 5.25C10.1631 5.25 10.5 4.91309 10.5 4.5C10.5 4.08691 10.1631 3.75 9.75 3.75ZM12 3.75C11.5869 3.75 11.25 4.08691 11.25 4.5C11.25 4.91309 11.5869 5.25 12 5.25C12.4131 5.25 12.75 4.91309 12.75 4.5C12.75 4.08691 12.4131 3.75 12 3.75ZM14.25 3.75C13.8369 3.75 13.5 4.08691 13.5 4.5C13.5 4.91309 13.8369 5.25 14.25 5.25C14.6631 5.25 15 4.91309 15 4.5C15 4.08691 14.6631 3.75 14.25 3.75ZM16.5 3.75C16.0869 3.75 15.75 4.08691 15.75 4.5C15.75 4.91309 16.0869 5.25 16.5 5.25C16.9131 5.25 17.25 4.91309 17.25 4.5C17.25 4.08691 16.9131 3.75 16.5 3.75ZM18.75 3.75C18.3369 3.75 18 4.08691 18 4.5C18 4.91309 18.3369 5.25 18.75 5.25C19.1631 5.25 19.5 4.91309 19.5 4.5C19.5 4.08691 19.1631 3.75 18.75 3.75ZM20.25 5.25C19.8369 5.25 19.5 5.58691 19.5 6C19.5 6.41309 19.8369 6.75 20.25 6.75C20.6631 6.75 21 6.41309 21 6C21 5.58691 20.6631 5.25 20.25 5.25ZM12 7.5C10.7607 7.5 9.75 8.51074 9.75 9.75C9.75 10.6875 10.96 13.1191 11.332 13.8428L12 15.1406L12.668 13.8428C13.04 13.1191 14.25 10.6875 14.25 9.75C14.25 8.51074 13.2393 7.5 12 7.5ZM20.25 7.5C19.8369 7.5 19.5 7.83691 19.5 8.25C19.5 8.66309 19.8369 9 20.25 9C20.6631 9 21 8.66309 21 8.25C21 7.83691 20.6631 7.5 20.25 7.5ZM12 9C12.4131 9 12.75 9.33691 12.75 9.75C12.75 10.1631 12.4131 10.5 12 10.5C11.5869 10.5 11.25 10.1631 11.25 9.75C11.25 9.33691 11.5869 9 12 9ZM20.25 9.75C19.8369 9.75 19.5 10.0869 19.5 10.5C19.5 10.9131 19.8369 11.25 20.25 11.25C20.6631 11.25 21 10.9131 21 10.5C21 10.0869 20.6631 9.75 20.25 9.75ZM20.25 12C19.8369 12 19.5 12.3369 19.5 12.75C19.5 13.1631 19.8369 13.5 20.25 13.5C20.6631 13.5 21 13.1631 21 12.75C21 12.3369 20.6631 12 20.25 12ZM5.25 13.5C4.83691 13.5 4.5 13.8369 4.5 14.25C4.5 14.6631 4.83691 15 5.25 15C5.66309 15 6 14.6631 6 14.25C6 13.8369 5.66309 13.5 5.25 13.5ZM7.5 13.5C7.08691 13.5 6.75 13.8369 6.75 14.25C6.75 14.6631 7.08691 15 7.5 15C7.91309 15 8.25 14.6631 8.25 14.25C8.25 13.8369 7.91309 13.5 7.5 13.5ZM9.75 13.5C9.33691 13.5 9 13.8369 9 14.25C9 14.6631 9.33691 15 9.75 15C10.1631 15 10.5 14.6631 10.5 14.25C10.5 13.8369 10.1631 13.5 9.75 13.5ZM14.25 13.5C13.8369 13.5 13.5 13.8369 13.5 14.25C13.5 14.6631 13.8369 15 14.25 15C14.6631 15 15 14.6631 15 14.25C15 13.8369 14.6631 13.5 14.25 13.5ZM16.5 13.5C16.0869 13.5 15.75 13.8369 15.75 14.25C15.75 14.6631 16.0869 15 16.5 15C16.9131 15 17.25 14.6631 17.25 14.25C17.25 13.8369 16.9131 13.5 16.5 13.5ZM18.75 13.5C18.3369 13.5 18 13.8369 18 14.25C18 14.6631 18.3369 15 18.75 15C19.1631 15 19.5 14.6631 19.5 14.25C19.5 13.8369 19.1631 13.5 18.75 13.5ZM3.75 15C3.33691 15 3 15.3369 3 15.75C3 16.1631 3.33691 16.5 3.75 16.5C4.16309 16.5 4.5 16.1631 4.5 15.75C4.5 15.3369 4.16309 15 3.75 15ZM3.75 17.25C3.33691 17.25 3 17.5869 3 18C3 18.4131 3.33691 18.75 3.75 18.75C4.16309 18.75 4.5 18.4131 4.5 18C4.5 17.5869 4.16309 17.25 3.75 17.25ZM19.5 18C18.6797 18 18 18.6797 18 19.5C18 20.3203 18.6797 21 19.5 21C20.3203 21 21 20.3203 21 19.5C21 18.6797 20.3203 18 19.5 18ZM5.25 18.75C4.83691 18.75 4.5 19.0869 4.5 19.5C4.5 19.9131 4.83691 20.25 5.25 20.25C5.66309 20.25 6 19.9131 6 19.5C6 19.0869 5.66309 18.75 5.25 18.75ZM7.5 18.75C7.08691 18.75 6.75 19.0869 6.75 19.5C6.75 19.9131 7.08691 20.25 7.5 20.25C7.91309 20.25 8.25 19.9131 8.25 19.5C8.25 19.0869 7.91309 18.75 7.5 18.75ZM9.75 18.75C9.33691 18.75 9 19.0869 9 19.5C9 19.9131 9.33691 20.25 9.75 20.25C10.1631 20.25 10.5 19.9131 10.5 19.5C10.5 19.0869 10.1631 18.75 9.75 18.75ZM12 18.75C11.5869 18.75 11.25 19.0869 11.25 19.5C11.25 19.9131 11.5869 20.25 12 20.25C12.4131 20.25 12.75 19.9131 12.75 19.5C12.75 19.0869 12.4131 18.75 12 18.75ZM14.25 18.75C13.8369 18.75 13.5 19.0869 13.5 19.5C13.5 19.9131 13.8369 20.25 14.25 20.25C14.6631 20.25 15 19.9131 15 19.5C15 19.0869 14.6631 18.75 14.25 18.75ZM16.5 18.75C16.0869 18.75 15.75 19.0869 15.75 19.5C15.75 19.9131 16.0869 20.25 16.5 20.25C16.9131 20.25 17.25 19.9131 17.25 19.5C17.25 19.0869 16.9131 18.75 16.5 18.75Z" fill="black"/>
</svg>
