<svg width="24" height="24" viewBox="0 0 24 24" fill="none" xmlns="http://www.w3.org/2000/svg">
<path d="M3.75 3.75V20.25H20.25V3.75H3.75ZM5.25 5.25H18.75V18.75H5.25V5.25ZM9 7.5C8.4873 7.5 7.9834 7.54102 7.5 7.64062V9.1875C7.98047 9.06152 8.48145 9 9 9C12.3076 9 15 11.6924 15 15C15 15.5186 14.9355 16.0195 14.8125 16.5H16.3594C16.459 16.0166 16.5 15.5127 16.5 15C16.5 10.8633 13.1367 7.5 9 7.5ZM9 10.5C8.47266 10.5 7.97168 10.5908 7.5 10.7578V12.4219C7.94238 12.1641 8.45215 12 9 12C10.6553 12 12 13.3447 12 15C12 15.5479 11.8359 16.0576 11.5781 16.5H13.2422C13.4092 16.0283 13.5 15.5273 13.5 15C13.5 12.5186 11.4814 10.5 9 10.5ZM9 13.5C8.1709 13.5 7.5 14.1709 7.5 15C7.5 15.8291 8.1709 16.5 9 16.5C9.8291 16.5 10.5 15.8291 10.5 15C10.5 14.1709 9.8291 13.5 9 13.5Z" fill="black"/>
</svg>
