<svg width="24" height="24" viewBox="0 0 24 24" fill="none" xmlns="http://www.w3.org/2000/svg">
<path d="M15.3984 2.69531L2.69531 15.3984L8.60156 21.3047L21.3047 8.60156L15.3984 2.69531ZM15.3984 4.82812L19.1719 8.60156L8.60156 19.1719L4.82812 15.3984L5.69531 14.5312L7.3125 16.1484L8.39062 15.0938L6.75 13.4531L7.64062 12.5859L8.29688 13.2422L9.35156 12.1641L8.69531 11.5312L9.58594 10.6406L11.2031 12.2578L12.2578 11.2031L10.6406 9.58594L11.5312 8.69531L12.1641 9.35156L13.2422 8.29688L12.5859 7.64062L13.4531 6.75L15.0938 8.39062L16.1484 7.3125L14.5312 5.69531L15.3984 4.82812Z" fill="black"/>
</svg>
