<svg width="24" height="24" viewBox="0 0 24 24" fill="none" xmlns="http://www.w3.org/2000/svg">
<path d="M15.1641 3.75C13.9043 3.75 12.8672 4.78711 12.8672 6.04688C12.8672 7.30664 13.9043 8.34375 15.1641 8.34375C16.4268 8.34375 17.4844 7.30664 17.4844 6.04688C17.4844 4.78711 16.4268 3.75 15.1641 3.75ZM15.1641 5.25C15.6152 5.25 15.9844 5.59863 15.9844 6.04688C15.9844 6.49512 15.6152 6.84375 15.1641 6.84375C14.7158 6.84375 14.3672 6.49805 14.3672 6.04688C14.3672 5.59863 14.7158 5.25 15.1641 5.25ZM9.70312 6.75C9.34277 6.79395 8.97949 6.96094 8.71875 7.24219L6.1875 9.98438L7.3125 11.0156L9.82031 8.27344C9.84668 8.24707 9.88184 8.22949 9.91406 8.25L11.1094 9.04688L9.35156 11.4844C8.80078 12.2578 8.8916 13.3213 9.5625 13.9922L12.2109 16.6406L10.0312 21H11.7188L13.5703 17.3203C13.8604 16.7432 13.7461 16.043 13.2891 15.5859L10.6406 12.9375C10.4883 12.7852 10.4678 12.5273 10.5938 12.3516L12.3516 9.89062L12.9609 10.2891L14.1562 12.0938C14.4346 12.5098 14.8975 12.75 15.3984 12.75H18.75V11.25H15.3984L14.1328 9.32812L14.0391 9.21094L13.9219 9.11719L10.7578 7.00781C10.4385 6.79395 10.0635 6.70605 9.70312 6.75ZM9.04688 14.6484L7.94531 15.75H4.5V17.25H7.94531C8.34082 17.25 8.71875 17.0889 9 16.8047L10.1016 15.7031L9.04688 14.6484Z" fill="black"/>
</svg>
