<svg width="24" height="24" viewBox="0 0 24 24" fill="none" xmlns="http://www.w3.org/2000/svg">
<path d="M12 3C7.03711 3 3 7.03711 3 12C3 16.9629 7.03711 21 12 21C16.9629 21 21 16.9629 21 12C21 7.03711 16.9629 3 12 3ZM12 4.5C16.1514 4.5 19.5 7.84863 19.5 12C19.5 16.1514 16.1514 19.5 12 19.5C7.84863 19.5 4.5 16.1514 4.5 12C4.5 7.84863 7.84863 4.5 12 4.5ZM9 7.5C8.07129 7.5 7.36523 8.01855 6.89062 8.46094C6.41602 8.90332 6.11719 9.32812 6.11719 9.32812L7.38281 10.1719C7.38281 10.1719 7.56738 9.84668 7.89844 9.53906C8.22949 9.23145 8.66016 9 9 9H11.25V7.5H9ZM12.75 7.5V9H15C15.3398 9 15.7705 9.23145 16.1016 9.53906C16.4326 9.84668 16.6172 10.1719 16.6172 10.1719L17.8828 9.32812C17.8828 9.32812 17.584 8.90332 17.1094 8.46094C16.6348 8.01855 15.9287 7.5 15 7.5H12.75ZM6.375 10.5C6.375 10.5 5.25 12.5039 5.25 13.125C5.25 13.7461 5.75391 14.25 6.375 14.25C6.99609 14.25 7.5 13.7461 7.5 13.125C7.5 12.5039 6.375 10.5 6.375 10.5ZM12 12C10.248 12 9.0498 12.9258 8.39062 13.8047C7.73145 14.6836 7.52344 15.5625 7.52344 15.5625L7.28906 16.5H16.7109L16.4766 15.5625C16.4766 15.5625 16.2686 14.6836 15.6094 13.8047C14.9502 12.9258 13.752 12 12 12ZM12 13.5C13.2539 13.5 13.9248 14.0742 14.3906 14.6953C14.5049 14.8506 14.4756 14.8564 14.5547 15H9.44531C9.52441 14.8564 9.49512 14.8506 9.60938 14.6953C10.0752 14.0742 10.7461 13.5 12 13.5Z" fill="black"/>
</svg>
