<svg width="24" height="24" viewBox="0 0 24 24" fill="none" xmlns="http://www.w3.org/2000/svg">
<path d="M12 2.25C6.624 2.25 2.25 6.624 2.25 12C2.25 17.376 6.624 21.75 12 21.75C17.376 21.75 21.75 17.376 21.75 12C21.75 6.624 17.376 2.25 12 2.25ZM12 3.75C16.5487 3.75 20.25 7.45125 20.25 12C20.25 14.5557 19.0806 16.8429 17.25 18.3574V12C17.25 11.586 16.9148 11.25 16.5 11.25C16.0852 11.25 15.75 11.586 15.75 12V19.3389C14.6233 19.9171 13.351 20.25 12 20.25C10.649 20.25 9.37671 19.9171 8.25 19.3389V12C8.25 11.586 7.91475 11.25 7.5 11.25C7.08525 11.25 6.75 11.586 6.75 12V18.3574C4.91938 16.8429 3.75 14.5557 3.75 12C3.75 7.45125 7.45125 3.75 12 3.75ZM9 7.5C8.07 7.5 7.36459 8.01697 6.89209 8.45947C6.41209 8.90197 6.12012 9.32959 6.12012 9.32959L7.37988 10.1704C7.37988 10.1704 7.56697 9.84803 7.89697 9.54053C8.22697 9.23303 8.6625 9 9 9H11.25V7.5H9ZM12.75 7.5V9H15C15.3375 9 15.773 9.23303 16.103 9.54053C16.433 9.84803 16.6201 10.1704 16.6201 10.1704L17.8799 9.32959C17.8799 9.32959 17.5879 8.90197 17.1079 8.45947C16.6354 8.01697 15.93 7.5 15 7.5H12.75ZM12 12C10.7595 12 9.75 13.1775 9.75 14.625C9.75 16.0725 10.7595 17.25 12 17.25C13.2405 17.25 14.25 16.0725 14.25 14.625C14.25 13.1775 13.2405 12 12 12ZM12 13.5C12.399 13.5 12.75 14.0258 12.75 14.625C12.75 15.2242 12.399 15.75 12 15.75C11.601 15.75 11.25 15.2242 11.25 14.625C11.25 14.0258 11.601 13.5 12 13.5Z" fill="black"/>
</svg>
