<svg width="24" height="24" viewBox="0 0 24 24" fill="none" xmlns="http://www.w3.org/2000/svg">
<path d="M12 3C7.03711 3 3 7.03711 3 12C3 16.9629 7.03711 21 12 21C16.9629 21 21 16.9629 21 12C21 7.03711 16.9629 3 12 3ZM12 4.5C16.1514 4.5 19.5 7.84863 19.5 12C19.5 16.1514 16.1514 19.5 12 19.5C7.84863 19.5 4.5 16.1514 4.5 12C4.5 7.84863 7.84863 4.5 12 4.5ZM12.3984 5.27344L12.3281 6.77344H12.4922L12.6328 6.79688L12.8438 5.29688H12.7266L12.6797 5.27344H12.3984ZM11.1094 5.32031L10.7578 5.36719L10.9688 6.84375L11.3438 6.79688L11.1094 5.32031ZM14.0859 5.57812L13.5703 6.98438L13.9219 7.125L14.4375 5.71875L14.0859 5.57812ZM9.51562 5.71875L9.39844 5.76562L9.375 5.78906H9.32812L9.11719 5.90625L9.75 7.26562L9.91406 7.17188L9.98438 7.14844L10.0312 7.125L9.51562 5.71875ZM15.5859 6.28125L14.8125 7.57031L14.9531 7.64062L14.9766 7.66406L15.0703 7.73438L15.9609 6.53906L15.7969 6.42188L15.75 6.375L15.5859 6.28125ZM8.01562 6.5625L7.73438 6.77344L7.6875 6.82031H7.66406L8.32031 7.54688L8.625 7.96875L8.67188 7.94531L8.69531 7.92188L8.90625 7.75781L8.01562 6.5625ZM16.7109 7.19531L11.2031 11.1797L7.33594 16.6875L8.10938 16.1484L7.40625 16.9219L7.6875 17.1797L8.69531 16.0781L8.48438 15.8906L12.8672 12.8438L15.8438 8.46094L16.0547 8.67188L17.1562 7.66406L16.9219 7.38281L16.0547 8.15625L16.7109 7.19531ZM6.77344 7.73438L6.53906 8.03906L7.73438 8.92969L7.96875 8.625L6.77344 7.73438ZM17.8828 8.69531L16.8516 9.35156L16.5938 9.46875L16.6172 9.49219L16.6406 9.53906L16.7344 9.75L18.0938 9.09375L17.9531 8.8125L17.9297 8.78906L17.8828 8.69531ZM5.90625 9.14062L5.78906 9.32812V9.375L5.76562 9.39844L5.71875 9.53906L7.125 10.0547L7.17188 9.91406L7.24219 9.77344L5.90625 9.14062ZM18.5156 10.3125L17.0625 10.6641L17.1328 10.8984L17.1562 10.9688L18.6328 10.7344L18.6094 10.6875V10.5938L18.5156 10.3125ZM5.36719 10.7812L5.32031 11.1562L6.79688 11.3672L6.84375 10.9922L5.36719 10.7812ZM18.75 11.9297L17.8125 12L17.25 11.9531V12.0469L17.2266 12.3281L18.7266 12.4219L18.75 12.0469L18 12L18.75 11.9531V11.9297ZM6.77344 12.3516L5.27344 12.4219V12.6797L5.29688 12.7266L5.32031 12.8672L6.79688 12.6562L6.77344 12.5859V12.3516ZM17.0859 13.3125L16.9922 13.5938L18.3984 14.1094L18.4453 14.0391V13.9688L18.5391 13.6875L17.0859 13.3125ZM7.00781 13.5938L5.60156 14.1094L5.71875 14.4844L7.125 13.9688L7.00781 13.5938ZM16.6172 14.5078L16.4297 14.8125L17.6953 15.6094L17.9062 15.2812L16.6172 14.5078ZM7.59375 14.8359L6.30469 15.6094L6.375 15.75L6.42188 15.7969L6.5625 15.9844L7.75781 15.0703L7.66406 14.9766L7.64062 14.9297L7.61719 14.9062L7.59375 14.8359ZM15.8203 15.5859L15.6797 15.7266L15.6094 15.8203L16.6172 16.9219L16.7578 16.8047L16.8047 16.7578L16.9219 16.6172L15.8203 15.5859ZM14.8359 16.4297L14.5078 16.6172L15.2812 17.9062L15.6094 17.6953L14.8359 16.4297ZM9.46875 16.5938L9.25781 17.0391L8.71875 17.9062H8.74219L8.78906 17.9297L8.8125 17.9531L9.11719 18.0938L9.77344 16.7578L9.53906 16.6406L9.51562 16.6172L9.46875 16.5938ZM13.5938 16.9922L13.3125 17.0859L13.6875 18.5391L13.9688 18.4453H14.0391L14.1094 18.3984L13.5938 16.9922ZM10.7109 17.0859L10.3359 18.5391L10.5938 18.6094H10.6875L10.7578 18.6328L10.9922 17.1562H10.9688L10.8984 17.1328L10.7109 17.0859ZM12.3516 17.2266L11.9766 17.25L12.0469 18.75L12.4219 18.7266L12.3516 17.2266Z" fill="black"/>
</svg>
