<svg width="24" height="24" viewBox="0 0 24 24" fill="none" xmlns="http://www.w3.org/2000/svg">
<path d="M7.5 4.5C4.6084 4.5 2.25 6.8584 2.25 9.75C2.25 10.0664 2.30566 10.3594 2.36133 10.6523C1.85156 11.4023 1.5 12.2812 1.5 13.2656C1.5 15.8496 3.59473 17.9502 6.16992 17.9883C7.11328 18.8877 8.34668 19.5 9.75 19.5C11.1914 19.5 12.4482 18.8555 13.3975 17.915C13.4414 17.918 13.4473 17.9209 13.5 17.9209C14.6982 17.9209 15.6738 17.2676 16.3418 16.3799C16.6406 16.4326 16.9336 16.5 17.25 16.5C20.1416 16.5 22.5 14.1416 22.5 11.25C22.5 8.3584 20.1416 6 17.25 6C16.7285 6 16.248 6.13477 15.7734 6.27539C14.915 5.65723 13.8867 5.25 12.75 5.25C12.041 5.25 11.4023 5.48438 10.7812 5.74219C9.87891 5.00098 8.75977 4.5 7.5 4.5ZM7.5 6C8.52246 6 9.43652 6.4043 10.1133 7.06641L10.5059 7.44727L10.9893 7.18945C11.5137 6.9082 12.1113 6.75 12.75 6.75C13.6699 6.75 14.5049 7.07812 15.1553 7.62598L15.4951 7.91016L15.9082 7.75195C16.3301 7.59082 16.7783 7.5 17.25 7.5C19.3301 7.5 21 9.16992 21 11.25C21 13.3301 19.3301 15 17.25 15C16.9189 15 16.5938 14.9502 16.2773 14.8682L15.6943 14.71L15.4189 15.2461C15.0527 15.9463 14.3408 16.4209 13.5 16.4209C13.4941 16.4209 13.4238 16.4121 13.2744 16.3945L12.8789 16.3564L12.6211 16.6611C11.9326 17.4785 10.9072 18 9.75 18C8.63086 18 7.6377 17.5107 6.94922 16.7344L6.71191 16.4678L6.35742 16.4854C6.19629 16.4912 6.1582 16.5 6.23438 16.5C4.43848 16.5 3 15.0615 3 13.2656C3 12.5098 3.26953 11.8242 3.71484 11.2646L3.94336 10.9805L3.85547 10.626C3.78809 10.3359 3.75 10.0459 3.75 9.75C3.75 7.66992 5.41992 6 7.5 6ZM8.44922 9.75C8.43457 9.75 8.42285 9.76172 8.42285 9.7793V11.9678C8.42285 11.9854 8.43457 12 8.44922 12H8.7041C8.72168 12 8.73047 11.9854 8.73047 11.9678V9.7793C8.73047 9.76465 8.71875 9.75 8.7041 9.75H8.44922ZM12.8994 9.75C12.7178 9.75 12.5771 9.7998 12.4775 9.90234C12.3779 10.002 12.3076 10.1719 12.2725 10.3711L12.2549 10.5H12.0293C12.0293 10.5 12 10.5088 11.9971 10.5381L11.959 10.7461C11.9561 10.7637 11.9648 10.7783 11.9912 10.7783H12.2109L11.9912 12.0029C11.9736 12.1055 11.9531 12.1875 11.9297 12.249C11.9092 12.3105 11.8887 12.3574 11.8623 12.3896C11.8359 12.4248 11.8125 12.4482 11.7715 12.46C11.7363 12.4717 11.6982 12.4775 11.6543 12.4775C11.6309 12.4775 11.5986 12.4746 11.5752 12.4688C11.5518 12.4629 11.54 12.46 11.5195 12.4512C11.5195 12.4512 11.4961 12.4424 11.4844 12.4688C11.4756 12.4893 11.417 12.6504 11.4111 12.668C11.4053 12.6885 11.4141 12.7031 11.4258 12.709C11.4551 12.7207 11.4785 12.7266 11.5195 12.7354C11.5723 12.75 11.6191 12.75 11.6602 12.75C11.7539 12.75 11.8359 12.7354 11.9062 12.7119C11.9766 12.6855 12.0352 12.6445 12.0908 12.5859C12.1465 12.5215 12.1846 12.4541 12.2197 12.3633C12.2549 12.2725 12.2812 12.1582 12.3047 12.0264L12.5273 10.7783H12.8555C12.8555 10.7783 12.8848 10.7783 12.8906 10.7461L12.9258 10.541C12.9287 10.5205 12.9199 10.5 12.8936 10.5H12.5771C12.5801 10.4941 12.6006 10.3008 12.6387 10.1953C12.6533 10.1514 12.6826 10.1133 12.7061 10.0898C12.7324 10.0635 12.7617 10.0459 12.791 10.0371C12.8232 10.0283 12.8584 10.0225 12.8994 10.0225C12.9287 10.0225 12.958 10.0254 12.9814 10.0312C13.0107 10.0371 13.0225 10.04 13.0312 10.043C13.0635 10.0518 13.0664 10.043 13.0752 10.0283L13.1484 9.82031C13.1572 9.79688 13.1396 9.78809 13.1338 9.78516C13.1016 9.77344 13.0723 9.76758 13.0342 9.76172C12.9961 9.75293 12.9492 9.75 12.8994 9.75ZM6.01758 10.5C5.69238 10.5 5.4668 10.6816 5.4668 10.9395V10.9453C5.4668 11.2148 5.71582 11.3057 5.9502 11.3672L5.98828 11.3789C6.1582 11.4258 6.30469 11.4668 6.30469 11.5781V11.5811C6.30469 11.6836 6.20801 11.7568 6.05566 11.7568C5.99707 11.7568 5.80664 11.7568 5.60156 11.6367C5.5752 11.625 5.56055 11.6162 5.54297 11.6045C5.53125 11.5986 5.50781 11.5898 5.49609 11.6191L5.42578 11.7979C5.41406 11.8242 5.42871 11.8301 5.43164 11.8359C5.4668 11.8564 5.49902 11.8711 5.53125 11.8887C5.70703 11.9736 5.87402 12 6.04688 12C6.40137 12 6.62109 11.8271 6.62109 11.5459V11.543C6.62109 11.2822 6.37207 11.1885 6.14062 11.1211L6.11133 11.1123C5.93555 11.0596 5.7832 11.0156 5.7832 10.9102V10.9014C5.7832 10.8105 5.87109 10.7461 6.00879 10.7461C6.16113 10.7461 6.33984 10.79 6.45703 10.8516C6.45703 10.8516 6.49219 10.8691 6.50391 10.8398C6.5127 10.8223 6.57129 10.6758 6.57715 10.6611C6.58301 10.6436 6.57129 10.6318 6.55957 10.626C6.42773 10.5498 6.24316 10.5 6.05274 10.5H6.01758ZM7.49121 10.5C7.41504 10.5 7.29785 10.5088 7.22461 10.5234C7.22461 10.5234 7.00488 10.5615 6.91406 10.6289C6.91406 10.6289 6.89649 10.6377 6.9082 10.6641L6.97852 10.8398C6.9873 10.8633 7.01074 10.8545 7.01074 10.8545C7.01074 10.8545 7.0166 10.8516 7.02539 10.8486C7.21875 10.749 7.46191 10.7549 7.46191 10.7549C7.57031 10.7549 7.65234 10.7725 7.71094 10.8135C7.76367 10.8516 7.79297 10.9131 7.79297 11.0361V11.0742C7.70801 11.0625 7.62891 11.0537 7.62891 11.0537C7.58789 11.0508 7.53516 11.0508 7.4707 11.0508C7.38574 11.0508 7.30371 11.0596 7.22461 11.0801C7.14551 11.1006 7.0752 11.1299 7.0166 11.1709C6.95508 11.2119 6.9082 11.2617 6.87305 11.3232C6.83496 11.3848 6.81738 11.458 6.81738 11.5371C6.81738 11.6191 6.83203 11.6895 6.86133 11.748C6.89355 11.8066 6.9375 11.8564 6.99316 11.8945C7.04883 11.9297 7.11914 11.959 7.19531 11.9766C7.27441 11.9912 7.36523 12 7.46191 12C7.56445 12 7.66699 11.9912 7.7666 11.9766C7.86621 11.9619 7.9834 11.9385 8.01855 11.9297C8.05078 11.9238 8.08594 11.915 8.08594 11.915C8.1123 11.9092 8.10938 11.8857 8.10938 11.8857V11.0391C8.10938 10.8516 8.05664 10.7139 7.95117 10.6289C7.8457 10.5439 7.69043 10.5 7.49121 10.5ZM9.74121 10.5C9.61816 10.5 9.50391 10.5176 9.41309 10.5586C9.32227 10.5996 9.24316 10.6553 9.18457 10.7227C9.12305 10.79 9.07617 10.8721 9.04688 10.9629C9.01758 11.0537 9.00293 11.1533 9.00293 11.2588C9.00293 11.3672 9.02051 11.4668 9.0498 11.5547C9.0791 11.6455 9.12891 11.7246 9.19629 11.7891C9.26074 11.8564 9.34277 11.9092 9.44531 11.9443C9.54492 11.9824 9.66797 12 9.80859 12C10.0986 11.9971 10.248 11.9385 10.3125 11.9062C10.3213 11.9004 10.333 11.8916 10.3213 11.8623L10.2539 11.6924C10.2451 11.666 10.2158 11.6748 10.2158 11.6748C10.1426 11.7012 10.043 11.7451 9.80566 11.7451C9.65039 11.7451 9.53613 11.7041 9.46582 11.6367C9.38965 11.5693 9.35449 11.4697 9.34863 11.3291H10.3477C10.3477 11.3291 10.374 11.3291 10.377 11.3057C10.377 11.2939 10.4121 11.1123 10.3477 10.9043C10.3242 10.8164 10.2598 10.7285 10.2188 10.6875C10.1543 10.623 10.0928 10.5791 10.0312 10.5557C9.94922 10.5205 9.84961 10.5 9.74121 10.5ZM11.168 10.5C10.8457 10.5 10.6172 10.6816 10.6172 10.9395V10.9453C10.6172 11.2148 10.8691 11.3057 11.1006 11.3672L11.1416 11.3789C11.3115 11.4258 11.458 11.4668 11.458 11.5781V11.5811C11.458 11.6836 11.3613 11.7568 11.2061 11.7568C11.1475 11.7568 10.957 11.7568 10.752 11.6367C10.7285 11.625 10.7109 11.6162 10.6934 11.6045C10.6875 11.6016 10.6582 11.5898 10.6465 11.6191L10.5791 11.7979C10.5674 11.8242 10.582 11.8301 10.585 11.8359C10.6172 11.8564 10.6494 11.8711 10.6846 11.8887C10.8604 11.9736 11.0244 12 11.2002 12C11.5518 12 11.7744 11.8271 11.7744 11.5459V11.543C11.7744 11.2822 11.5254 11.1885 11.2939 11.1211L11.2617 11.1123C11.0859 11.0596 10.9336 11.0156 10.9336 10.9102V10.9014C10.9336 10.8105 11.0244 10.7461 11.1592 10.7461C11.3115 10.7461 11.4932 10.79 11.6104 10.8516C11.6104 10.8516 11.6455 10.8691 11.6572 10.8398C11.6631 10.8223 11.7217 10.6758 11.7305 10.6611C11.7363 10.6436 11.7246 10.6318 11.71 10.626C11.5781 10.5498 11.3936 10.5 11.2031 10.5H11.168ZM13.6201 10.5C13.5 10.5 13.3916 10.5205 13.3008 10.5586C13.2129 10.5967 13.1367 10.6523 13.0781 10.7197C13.0166 10.7871 12.9697 10.8662 12.9404 10.957C12.9141 11.0479 12.8994 11.1475 12.8994 11.2529C12.8994 11.3584 12.9141 11.458 12.9404 11.5459C12.9697 11.6367 13.0166 11.7188 13.0781 11.7861C13.1367 11.8506 13.2129 11.9062 13.3037 11.9443C13.3945 11.9824 13.5 12 13.6201 12C13.7402 12 13.8457 11.9824 13.9365 11.9414C14.0273 11.9033 14.1035 11.8506 14.165 11.7832C14.2236 11.7158 14.2705 11.6367 14.2969 11.5459C14.3262 11.4551 14.3408 11.3555 14.3408 11.25C14.3408 11.1475 14.3262 11.0479 14.2969 10.957C14.2705 10.8662 14.2236 10.7871 14.165 10.7197C14.1035 10.6523 14.0273 10.5967 13.9365 10.5586C13.8457 10.5205 13.7402 10.5 13.6201 10.5ZM16.2334 10.5C16.1104 10.5 15.999 10.5205 15.9023 10.5586C15.8086 10.5967 15.7295 10.6523 15.668 10.7197C15.6035 10.7842 15.5537 10.8662 15.5244 10.957C15.4893 11.0449 15.4746 11.1475 15.4746 11.25C15.4746 11.4785 15.5391 11.6631 15.6709 11.7979C15.8027 11.9326 15.9961 12 16.2539 12C16.4062 12 16.5615 11.9707 16.6729 11.9297C16.6729 11.9297 16.6934 11.9209 16.6846 11.8975L16.6113 11.7129C16.6025 11.6865 16.5732 11.6953 16.5732 11.6953C16.5322 11.7129 16.4854 11.7246 16.4385 11.7305C16.3887 11.7393 16.333 11.7422 16.2744 11.7422C16.1309 11.7422 16.0166 11.7041 15.9375 11.625C15.8555 11.5488 15.8086 11.4229 15.8086 11.25C15.8115 11.0977 15.8496 10.9805 15.9229 10.8896C15.9961 10.8018 16.1045 10.7578 16.251 10.7578C16.3711 10.7578 16.4648 10.7725 16.5615 10.7988C16.5615 10.7988 16.5879 10.8076 16.5967 10.7812C16.623 10.7139 16.6436 10.667 16.6699 10.5938C16.6787 10.5703 16.6582 10.5615 16.6523 10.5586C16.6113 10.5469 16.5234 10.5234 16.4531 10.5117C16.3916 10.5029 16.3154 10.5 16.2334 10.5ZM17.458 10.5C17.335 10.5 17.2207 10.5176 17.1299 10.5586C17.0361 10.5996 16.96 10.6553 16.8984 10.7227C16.8369 10.79 16.79 10.8721 16.7607 10.9629C16.7344 11.0537 16.7197 11.1533 16.7197 11.2588C16.7197 11.3672 16.7344 11.4668 16.7666 11.5547C16.7959 11.6455 16.8428 11.7246 16.9102 11.7891C16.9775 11.8564 17.0596 11.9092 17.1592 11.9443C17.2617 11.9824 17.3848 12 17.5225 12C17.8125 11.9971 17.9648 11.9385 18.0264 11.9062C18.0381 11.9004 18.0498 11.8916 18.0352 11.8623L17.9678 11.6924C17.959 11.666 17.9297 11.6748 17.9297 11.6748C17.8594 11.7012 17.7568 11.7451 17.5195 11.7451C17.3672 11.7451 17.2529 11.7041 17.1797 11.6367C17.1064 11.5693 17.0713 11.4697 17.0625 11.3291H18.0615C18.0615 11.3291 18.0879 11.3291 18.0938 11.3057C18.0938 11.2939 18.126 11.1123 18.0615 10.9043C18.0381 10.8164 17.9736 10.7285 17.9326 10.6875C17.8682 10.623 17.8066 10.5791 17.7451 10.5557C17.6631 10.5205 17.5664 10.5 17.458 10.5ZM15.29 10.5C15.1611 10.4941 15.0908 10.5146 15.0293 10.541C14.9678 10.5674 14.9004 10.6113 14.8594 10.6611V10.5439C14.8594 10.5264 14.8506 10.5146 14.833 10.5146H14.5781C14.5605 10.5146 14.5459 10.5264 14.5459 10.5439V11.9707C14.5459 11.9854 14.5605 12 14.5781 12H14.8389C14.8564 12 14.8711 11.9854 14.8711 11.9707V11.2588C14.8711 11.1621 14.8828 11.0654 14.9033 11.0039C14.9238 10.9453 14.9531 10.8984 14.9912 10.8633C15.0293 10.8311 15.0703 10.8076 15.1172 10.793C15.1611 10.7783 15.2139 10.7754 15.249 10.7754C15.3018 10.7754 15.3604 10.79 15.3604 10.79C15.3779 10.79 15.3896 10.7783 15.3955 10.7607C15.4131 10.7197 15.46 10.5879 15.4688 10.5615C15.4775 10.541 15.4629 10.5293 15.457 10.5264C15.4395 10.5205 15.3545 10.5059 15.29 10.5ZM9.71777 10.7461C9.84961 10.7461 9.9375 10.793 9.99902 10.8809C10.04 10.9395 10.0576 11.0127 10.0664 11.0977H9.35156C9.36621 11.0098 9.39258 10.9395 9.43359 10.8809C9.49219 10.793 9.58594 10.7461 9.71777 10.7461ZM17.4346 10.7461C17.5664 10.7461 17.6514 10.793 17.7158 10.8809C17.7568 10.9395 17.7744 11.0127 17.7803 11.0977H17.0684C17.083 11.0098 17.1094 10.9395 17.1475 10.8809C17.209 10.793 17.3027 10.7461 17.4346 10.7461ZM13.6201 10.752C13.752 10.752 13.8457 10.793 13.9072 10.8809C13.9717 10.9688 14.0039 11.0918 14.0039 11.25C14.0039 11.4111 13.9717 11.5342 13.9102 11.625C13.8457 11.71 13.752 11.7539 13.6201 11.7539C13.4883 11.7539 13.3945 11.71 13.3359 11.625C13.2715 11.5342 13.2422 11.4111 13.2422 11.25C13.2422 11.0918 13.2715 10.9688 13.333 10.8809C13.3945 10.7959 13.4883 10.752 13.6201 10.752ZM7.52051 11.2852C7.66406 11.2881 7.79297 11.3086 7.79297 11.3086V11.7305C7.79297 11.7305 7.66406 11.7539 7.52344 11.7627C7.31836 11.7715 7.22754 11.707 7.23047 11.707C7.18945 11.6777 7.18652 11.6689 7.17188 11.6514C7.15137 11.6221 7.14258 11.584 7.14258 11.5312C7.14258 11.4492 7.17188 11.3906 7.23047 11.3525C7.23047 11.3525 7.31543 11.2822 7.52051 11.2852Z" fill="black"/>
</svg>
