<svg width="24" height="24" viewBox="0 0 24 24" fill="none" xmlns="http://www.w3.org/2000/svg">
<path d="M11.3584 3.76021C10.2984 3.70427 9.10669 3.86672 7.94091 4.27144C6.08841 4.91419 4.08478 5.92514 2.64403 7.24214C0.932535 8.80964 0.658 10.1738 0.7705 10.7446C1.171 12.7688 4.02571 14.0894 5.16796 15.0659C5.11171 15.0966 5.05926 15.1231 5.00976 15.1508C4.43676 15.4291 2.31109 16.5222 1.76659 17.6982C1.15159 19.0317 1.86835 19.9862 2.33935 20.1167C3.8086 20.5157 5.26255 19.8183 6.0703 18.6401C6.8788 17.4611 6.78143 15.9224 6.40868 15.2211C6.40493 15.2106 6.39779 15.2038 6.39403 15.1933C6.54178 15.1071 6.69224 15.0203 6.84374 14.934C7.13549 14.7653 7.42016 14.6113 7.66991 14.477C7.52891 14.8483 7.42727 15.2961 7.37402 15.9418C7.31102 16.6978 7.63016 17.676 8.04491 18.0615C8.22791 18.2302 8.44894 18.2343 8.58544 18.2343C9.07069 18.2343 9.28877 17.8425 9.53027 17.3745C9.82877 16.8037 10.0928 16.1411 10.0928 16.1411C10.0928 16.1411 9.76323 17.934 10.667 17.934C10.997 17.934 11.3278 17.5186 11.4756 17.3056V17.3085C11.4756 17.3085 11.481 17.2953 11.499 17.2675C11.5343 17.2158 11.5518 17.1855 11.5518 17.1855V17.1752C11.6853 16.9517 11.978 16.4399 12.4175 15.5947C12.9867 14.5019 13.5308 13.1367 13.5308 13.1367C13.5833 13.4367 13.656 13.7327 13.749 14.0229C13.8473 14.3492 14.0557 14.7069 14.2207 15.0542C14.0872 15.2327 14.0054 15.3354 14.0054 15.3354C14.0054 15.3384 14.0075 15.3412 14.0098 15.3427C13.904 15.48 13.7841 15.6272 13.6611 15.7719C13.2111 16.2947 12.6762 16.8936 12.6064 17.0654C12.5217 17.2679 12.5433 17.4186 12.7046 17.5356C12.8238 17.6248 13.0363 17.6385 13.2568 17.622C13.6611 17.5943 13.9458 17.4975 14.083 17.436C14.3358 17.3475 14.5745 17.2257 14.792 17.0727C15.2315 16.7562 15.4994 16.3023 15.4746 15.7045C15.4604 15.3745 15.3503 15.0438 15.2168 14.7348C15.2558 14.6801 15.2987 14.6219 15.3369 14.5634C16.0329 13.5704 16.5703 12.4804 16.5703 12.4804C16.6228 12.7804 16.6956 13.0764 16.7886 13.3667C16.8733 13.6449 17.0384 13.9507 17.1899 14.25C16.5367 14.769 16.1312 15.3708 15.9902 15.7661C15.73 16.4981 15.9351 16.827 16.3184 16.9028C16.4909 16.9373 16.7359 16.8591 16.9189 16.7841C17.1904 16.6956 17.446 16.5668 17.6777 16.4018C18.1172 16.0853 18.5427 15.6425 18.5142 15.041C18.5037 14.7695 18.4272 14.4978 18.3252 14.2368C18.8772 14.0103 19.5936 13.8865 20.5078 13.9892C22.4653 14.2127 22.8489 15.4087 22.7754 15.9067C22.7019 16.4054 22.2901 16.6841 22.1528 16.7666C22.0156 16.8491 21.9739 16.8801 21.9844 16.9423C22.0016 17.0316 22.0644 17.0278 22.1807 17.0068C22.3427 16.979 23.2066 16.6015 23.2456 15.6767C23.3018 14.5088 22.1539 13.2242 20.1196 13.2334H20.1167C19.4104 13.2338 18.7142 13.3921 18.0806 13.6977C17.8728 13.289 17.658 12.9313 17.6235 12.6635C17.5815 12.3508 17.5367 12.1654 17.5854 11.7949C17.6349 11.4236 17.8558 10.8971 17.852 10.8588C17.8483 10.8213 17.8026 10.6326 17.3496 10.6289C16.8966 10.6251 16.5054 10.7148 16.4604 10.831C16.3802 11.0448 16.3179 11.2638 16.2744 11.4873C16.1934 11.8893 15.3676 13.3264 14.9004 14.0756C14.7459 13.7831 14.6161 13.526 14.5884 13.3198C14.5464 13.007 14.5001 12.8216 14.5488 12.4511C14.5983 12.0799 14.8206 11.5533 14.8169 11.5151C14.8131 11.4776 14.7674 11.2889 14.3144 11.2851C13.8614 11.2814 13.4696 11.371 13.4238 11.4873C13.3781 11.6043 13.3285 11.8788 13.2378 12.1435C13.1463 12.4083 12.0463 14.8015 11.7583 15.4233C11.6105 15.7398 11.4836 15.9942 11.3921 16.166C11.3778 16.1937 11.3681 16.2111 11.3613 16.2246C11.3718 16.2073 11.3789 16.19 11.3789 16.1967C11.3016 16.3445 11.2559 16.4267 11.2559 16.4267V16.4296C11.1959 16.5399 11.1291 16.6406 11.0976 16.6406C11.0766 16.6406 11.0307 16.3517 11.1079 15.9565C11.2729 15.1247 11.6639 13.8321 11.6601 13.7871C11.6564 13.7631 11.7323 13.5394 11.4023 13.4194C11.0821 13.3061 10.9679 13.4956 10.9394 13.4956C10.9109 13.4956 10.8896 13.5644 10.8896 13.5644C10.8896 13.5644 11.2435 12.1069 10.207 12.1069C9.55977 12.1069 8.65952 12.8011 8.21777 13.4296C7.94027 13.5774 7.33905 13.8977 6.70605 14.2382C6.4638 14.3687 6.21498 14.5026 5.97948 14.6293C5.96223 14.6121 5.94768 14.5953 5.92968 14.5781C4.67118 13.2648 2.34803 12.3364 2.44628 10.5732C2.48153 9.93045 2.71105 8.24378 6.91405 6.19478C10.3596 4.51778 13.1139 4.97767 13.5879 6.00142C14.2696 7.46242 12.1146 10.1817 8.5371 10.5732C7.1736 10.7209 6.54545 10.1449 6.3662 9.9521C6.1802 9.7496 6.15106 9.73882 6.08056 9.77632C5.96431 9.83782 6.03856 10.017 6.08056 10.1235C6.18631 10.395 6.65628 10.8202 7.40478 11.061C8.06253 11.271 9.57284 11.4473 11.5063 10.7153C13.6783 9.89704 15.3375 7.6743 14.8418 5.76705C14.5263 4.55533 13.125 3.85345 11.3584 3.76021ZM10.2056 12.9668C10.2605 12.9708 10.3013 12.9911 10.3242 13.0297C10.4472 13.233 9.89685 14.7291 9.75585 15.0659C9.53085 15.6059 9.05583 16.9814 8.76708 16.9086C8.52108 16.8471 8.36928 15.7983 8.71728 14.767C8.89278 14.248 9.26579 13.6294 9.48779 13.3886C9.75385 13.0973 10.0406 12.9546 10.2056 12.9668ZM17.5107 14.663C17.552 14.783 17.5737 14.9091 17.5767 15.0351C17.5729 15.8091 17.0075 16.0972 16.667 16.2172C16.5965 16.1692 16.6058 16.0071 16.8413 15.5053C16.9328 15.3096 17.1447 14.9795 17.5107 14.663ZM5.70263 15.5156C5.99438 16.5603 5.71348 17.482 5.03173 18.208C4.38523 18.8987 3.47788 19.1601 3.08788 18.9404C2.66938 18.7026 2.8348 17.6847 3.6328 16.9482C4.11805 16.5012 4.74442 16.0892 5.15917 15.8349C5.25442 15.7802 5.39032 15.6974 5.55907 15.5976C5.58757 15.5804 5.60155 15.5742 5.60155 15.5742C5.63305 15.5539 5.66738 15.5366 5.70263 15.5156ZM14.5356 15.6357C14.5356 15.6529 14.54 15.6711 14.54 15.6914C14.5355 16.3064 13.9298 16.7217 13.6553 16.8867H13.6582V16.8881C13.5629 16.9361 13.4746 16.9663 13.4326 16.9423C13.4011 16.9251 13.4722 16.8603 13.4722 16.8603C13.4722 16.8603 13.9606 16.3472 14.1533 16.1132C14.2658 15.976 14.3954 15.8142 14.5356 15.6357Z" fill="black"/>
</svg>
