<svg width="24" height="24" viewBox="0 0 24 24" fill="none" xmlns="http://www.w3.org/2000/svg">
<path d="M12.375 3.375V4.875C16.1133 4.875 19.125 7.88672 19.125 11.625H20.625C20.625 7.07812 16.9219 3.375 12.375 3.375ZM12.375 6.375V7.875C14.4551 7.875 16.125 9.54492 16.125 11.625H17.625C17.625 8.7334 15.2666 6.375 12.375 6.375ZM5.92969 6.44531L5.41406 6.96094C2.21191 10.1631 2.21191 15.3838 5.41406 18.5859C8.61621 21.7881 13.8369 21.7881 17.0391 18.5859L17.5547 18.0703L17.0391 17.5312L12.9141 13.4062C13.6816 13.1719 14.25 12.4717 14.25 11.625C14.25 10.5908 13.4092 9.75 12.375 9.75C11.5283 9.75 10.8281 10.3184 10.5938 11.0859L6.46875 6.96094L5.92969 6.44531ZM6.04687 8.67188L15.3281 17.9531C12.6885 20.0479 8.91211 19.9746 6.46875 17.5312C4.02539 15.0879 3.95215 11.3115 6.04687 8.67188Z" fill="black"/>
</svg>
