<svg width="24" height="24" viewBox="0 0 24 24" fill="none" xmlns="http://www.w3.org/2000/svg">
<path d="M6.65625 2.69531L6.11719 3.21094L3.23438 6.11719L2.69531 6.65625L3.23438 7.17188L7.54688 11.5078L7.05469 12L12 16.9453L12.4922 16.4531L16.8047 20.7891L17.3438 21.3047L17.8828 20.7891L20.7891 17.8594L21.3281 17.3438L16.2422 12.2578C16.7051 11.0127 16.4414 9.55078 15.4453 8.55469C14.7656 7.875 13.8574 7.54688 12.9609 7.54688C12.5449 7.54688 12.1348 7.6377 11.7422 7.78125L7.19531 3.21094L6.65625 2.69531ZM6.65625 4.80469L10.4531 8.60156L8.60156 10.4531L4.80469 6.65625L6.65625 4.80469ZM12.9609 9.02344C13.4707 9.02344 13.998 9.2168 14.3906 9.60938C15.1758 10.3945 15.1758 11.6602 14.3906 12.4453L12.2109 14.6016L12 14.8125L9.1875 12L11.4609 9.72656L11.5547 9.60938C11.6074 9.55664 11.6631 9.51562 11.7188 9.46875L11.8594 9.35156C12.1904 9.13184 12.5801 9.02344 12.9609 9.02344ZM6.32812 12.75L5.25 13.8047L10.1953 18.75L11.25 17.6719L6.32812 12.75ZM15.3984 13.5469L19.1953 17.3438L17.3438 19.1953L13.5469 15.3984L15.3984 13.5469Z" fill="black"/>
</svg>
