<svg width="24" height="24" viewBox="0 0 24 24" fill="none" xmlns="http://www.w3.org/2000/svg">
<path d="M19.0913 3.75L15.8965 5.44775L18.2563 7.45459L22.5 5.67334L19.0913 3.75ZM13.3462 4.67725L11.3569 5.90479L12.4453 7.4458L14.8564 6.18311L13.3462 4.67725ZM9.9126 5.22949L8.52393 6.19189L9.06299 7.4458L10.6611 6.46582L9.9126 5.22949ZM7.62744 5.6001L6.58594 6.38818L6.85254 7.44141L8.01416 6.64453L7.62744 5.6001ZM6.38232 7.66699L5.41113 8.34229L5.56787 9.57861L6.64746 8.9165L6.38232 7.66699ZM8.41553 7.71973L7.12646 8.5166L7.51025 10.0312L8.98535 9.25635L8.41553 7.71973ZM11.4741 7.79443L9.63721 8.76855L10.4824 10.7197L12.6929 9.79248L11.4741 7.79443ZM16.5894 7.92041L13.6597 9.17285L15.583 11.9077L19.4399 10.7666L16.5894 7.92041ZM5.1416 9.74268L4.23633 10.3008L4.28906 11.7188L5.28516 11.1973L5.1416 9.74268ZM6.92139 10.2085L5.729 10.8354L5.95605 12.6123L7.30957 12.0469L6.92139 10.2085ZM9.60352 10.9102L7.91895 11.6323L8.51514 13.9878L10.5249 13.396L9.60352 10.9102ZM3.89648 11.811L3.06006 12.2549L3 13.8574L3.91406 13.4736L3.89648 11.811ZM14.0903 12.085L11.4229 12.8994L12.9155 16.3477L16.3887 15.8555L14.0903 12.085ZM5.42432 12.6958L4.33154 13.1616L4.40186 15.1978L5.63379 14.8359L5.42432 12.6958ZM7.73145 14.0215L6.19922 14.4917L6.55225 17.2559L8.36279 16.9995L7.73145 14.0215ZM11.5928 16.2554L9.19043 16.6289L10.2466 20.7993L13.333 20.9429L11.5928 16.2554Z" fill="black"/>
</svg>
