<svg width="24" height="24" viewBox="0 0 24 24" fill="none" xmlns="http://www.w3.org/2000/svg">
<path d="M12 3L2.25 5.25V6.75L12 4.5L21.75 6.75V5.25L12 3ZM7.5 7.5C5.08008 7.5 2.71875 8.48438 2.71875 8.48438L2.25 8.69531V20.25H10.7109C10.9717 20.6982 11.4463 21 12 21C12.5537 21 13.0283 20.6982 13.2891 20.25H21.75V8.69531L21.2812 8.48438C21.2812 8.48438 18.9199 7.5 16.5 7.5C14.3115 7.5 12.3896 8.23535 12 8.39062C11.6104 8.23535 9.68848 7.5 7.5 7.5ZM7.5 9C8.9502 9 10.5 9.46875 11.25 9.72656V18.0703C10.415 17.7949 9.04395 17.4141 7.5 17.4141C5.92383 17.4141 4.64062 17.7773 3.75 18.0703V9.72656C4.32715 9.51855 5.85059 9 7.5 9ZM16.5 9C18.1494 9 19.6729 9.51855 20.25 9.72656V18.0703C19.3594 17.7773 18.0762 17.4141 16.5 17.4141C14.9561 17.4141 13.585 17.7949 12.75 18.0703V9.72656C13.5 9.46875 15.0498 9 16.5 9Z" fill="black"/>
</svg>
