<svg width="24" height="24" viewBox="0 0 24 24" fill="none" xmlns="http://www.w3.org/2000/svg">
<path d="M20.3906 1.33594L19.8984 1.59375C19.8984 1.59375 19.0576 2.04199 18.0703 2.64844C17.083 3.25488 15.9434 3.97852 15.2109 4.71094C14.1006 5.82129 13.1602 7.23047 12.7031 7.875L12.5391 7.71094L12 7.19531L11.4609 7.71094L9.60938 9.58594L9.07031 10.125L9.60938 10.6406L10.1953 11.2266L4.94531 16.4766L3.35156 17.2734L3.23438 17.5078L1.73438 20.5312L1.5 21L1.875 21.3984L2.625 22.125L3 22.5L3.49219 22.2656L6.72656 20.6484L7.52344 19.0547L12.7734 13.8047L13.3594 14.3906L13.875 14.9297L14.4141 14.3906L16.2891 12.5391L16.8047 12L16.2891 11.4609L16.125 11.2969C16.7461 10.8633 18.085 9.99316 19.2891 8.78906C20.8564 7.22168 22.4062 4.10156 22.4062 4.10156L22.6641 3.60938L22.2891 3.21094L20.7891 1.71094L20.3906 1.33594ZM20.1094 3.1875L20.8125 3.89062C20.4375 4.56738 19.2246 6.69727 18.2109 7.71094C16.9336 8.98828 14.5781 10.6406 14.5781 10.6406L13.8281 11.1328L14.4609 11.7891L14.6719 12L13.875 12.7969L13.8047 12.75L13.2891 12.2109L11.7891 10.7109L11.25 10.1953L11.2031 10.125L12 9.32812L12.8438 10.1719L13.3594 9.42188C13.3594 9.42188 15.1436 6.93457 16.2891 5.78906C16.8076 5.27051 17.918 4.49707 18.8672 3.91406C19.5469 3.49805 19.8223 3.3457 20.1094 3.1875ZM11.25 12.3281L11.6719 12.75L6.375 18.0469L6.30469 18.1406L6.23438 18.2578L5.60156 19.5234L3.375 20.625L4.47656 18.3984L5.74219 17.7656L5.85938 17.6953L5.95312 17.625L11.25 12.3281Z" fill="black"/>
</svg>
