<svg width="24" height="24" viewBox="0 0 24 24" fill="none" xmlns="http://www.w3.org/2000/svg">
<path d="M12.2241 3.00145C8.80112 3.00145 6 4.96534 6 8.70409C6.0075 9.96484 6.32282 10.9698 6.92432 11.6733C8.02382 13.0076 10.112 13.0878 11.1973 11.9883C12.0845 11.086 12.2091 9.47393 11.2266 8.56493C10.7061 8.06618 10.0173 7.84691 9.14502 8.04491C8.50002 8.23541 8.08154 8.16158 8.08154 7.46483C8.08154 5.63933 10.3548 4.59964 12.2388 4.62889C13.8663 4.60714 15.4573 5.0679 16.8208 5.9619L15.8159 7.39891L17.209 8.31591L19.0854 5.63378C18.0594 4.82753 15.8969 2.94295 12.2241 3.00145ZM16.2495 11.2544C14.8373 11.1816 13.6086 12.2933 13.6304 13.749C13.6086 14.3783 13.8561 14.9785 14.3174 15.3955C14.8364 15.9145 15.5399 16.1259 16.4106 15.9287C17.0549 15.7382 17.4712 15.8194 17.4712 16.5146C17.4712 16.6676 17.4492 16.8282 17.4199 16.9819C16.7974 18.5037 15.21 19.374 12.9053 19.374C10.9808 19.3815 9.09991 18.7681 7.55566 17.6191L8.80664 16.1558L7.48242 15.1391L5.22217 17.8022L5.79932 18.3149C7.74557 20.0564 10.2711 21.0142 12.8833 21C14.7928 21 16.3882 20.6126 17.8447 19.3608C19.9665 17.4513 19.8569 13.8142 18.5991 12.3149C18.0284 11.6197 17.157 11.2251 16.2495 11.2544Z" fill="black"/>
</svg>
