<svg width="24" height="24" viewBox="0 0 24 24" fill="none" xmlns="http://www.w3.org/2000/svg">
<path d="M7.5 3C6.26625 3 5.25 4.01625 5.25 5.25V15.75H3V18.75C3 19.9837 4.01625 21 5.25 21H15.75H15.7734C16.9952 20.988 18 19.9748 18 18.75V8.25H21V5.25C21 4.01625 19.9837 3 18.75 3H7.5ZM7.5 4.5H16.6406C16.5559 4.737 16.5 4.986 16.5 5.25V18.75C16.5 19.1745 16.1745 19.5 15.75 19.5C15.3278 19.506 15.006 19.1715 15 18.75L14.9766 15.75H6.75V5.25C6.75 4.8255 7.0755 4.5 7.5 4.5ZM18.75 4.5C19.1745 4.5 19.5 4.8255 19.5 5.25V6.75H18V5.25C18 4.8255 18.3255 4.5 18.75 4.5ZM4.5 17.25H10.5H13.4766H13.5V18.75V18.7734C13.503 19.0314 13.5559 19.2682 13.6406 19.5H5.25C4.8255 19.5 4.5 19.1745 4.5 18.75V17.25Z" fill="black"/>
</svg>
