<svg width="24" height="24" viewBox="0 0 24 24" fill="none" xmlns="http://www.w3.org/2000/svg">
<path d="M14.25 2.25C10.1167 2.25 6.75 5.61675 6.75 9.75C6.75 11.5463 7.37925 13.1906 8.4375 14.4844L2.46094 20.4609L3.53906 21.5405L9.51562 15.564C10.8086 16.6215 12.4537 17.25 14.25 17.25C18.3833 17.25 21.75 13.8833 21.75 9.75C21.75 5.61675 18.3833 2.25 14.25 2.25ZM14.25 3.75C17.5725 3.75 20.25 6.4275 20.25 9.75C20.25 13.0725 17.5725 15.75 14.25 15.75C10.9275 15.75 8.25 13.0725 8.25 9.75C8.25 6.4275 10.9275 3.75 14.25 3.75ZM14.25 6C12.5933 6 11.25 7.34325 11.25 9C11.25 11.25 14.25 14.25 14.25 14.25C14.25 14.25 17.25 11.25 17.25 9C17.25 7.34325 15.9067 6 14.25 6ZM14.25 7.5C15.0787 7.5 15.75 8.17125 15.75 9C15.75 9.828 15.0787 10.5 14.25 10.5C13.4213 10.5 12.75 9.828 12.75 9C12.75 8.17125 13.4213 7.5 14.25 7.5Z" fill="black"/>
</svg>
