<svg width="24" height="24" viewBox="0 0 24 24" fill="none" xmlns="http://www.w3.org/2000/svg">
<path d="M14.25 2.25C10.1167 2.25 6.75 5.61675 6.75 9.75C6.75 11.5463 7.37925 13.1906 8.4375 14.4844L2.46094 20.4609L3.53906 21.5405L9.51562 15.564C10.8086 16.6215 12.4537 17.25 14.25 17.25C18.3833 17.25 21.75 13.8833 21.75 9.75C21.75 5.61675 18.3833 2.25 14.25 2.25ZM14.25 3.75C17.5725 3.75 20.25 6.4275 20.25 9.75C20.25 13.0725 17.5725 15.75 14.25 15.75C10.9275 15.75 8.25 13.0725 8.25 9.75C8.25 6.4275 10.9275 3.75 14.25 3.75ZM13.5 6V6.79688C12.6562 6.93787 12 7.65371 12 8.53271C12 9.09821 12.3133 9.61519 12.8203 9.86719L15 10.9688C15 11.136 14.886 11.25 14.7188 11.25H13.7812C13.614 11.25 13.5 11.136 13.5 10.9688V10.5H12V10.9688C12 11.8477 12.6562 12.5621 13.5 12.7031V13.5H15V12.7031C15.8438 12.5621 16.5 11.8463 16.5 10.9673C16.5 10.4018 16.1867 9.88781 15.6797 9.63281L13.5 8.53125C13.5 8.364 13.614 8.25 13.7812 8.25H14.7188C14.886 8.25 15 8.364 15 8.53125V9H16.5V8.53125C16.5 7.65225 15.8438 6.93787 15 6.79688V6H13.5Z" fill="black"/>
</svg>
