<svg width="24" height="24" viewBox="0 0 24 24" fill="none" xmlns="http://www.w3.org/2000/svg">
<path d="M9.70459 3V5.0376C11.9583 5.23935 13.4619 7.09759 13.4619 9.23584C13.4619 11.2016 12.1167 12.8498 10.2949 13.311L9.67529 15.2549L9.58887 15.5142C10.6974 15.4422 11.806 15.047 12.7705 14.3848L13.1528 14.9605C14.2186 15.349 15.0397 16.1989 15.4072 17.0127C15.7747 17.8407 15.7876 18.2718 17.0903 19.2363C18.3938 20.1941 19.2439 20.9002 19.4531 20.9722C19.6691 21.0442 20.1372 21.0008 20.5767 20.562C21.0147 20.1218 21.0574 19.6536 20.9854 19.4443C20.9134 19.2358 20.2082 18.3865 19.2437 17.083C18.2792 15.7795 17.8391 15.7652 17.0186 15.3984C16.1981 15.0309 15.3481 14.2171 14.9663 13.1514L14.3979 12.7778C15.0894 11.7698 15.5288 10.5536 15.5288 9.23584C15.5288 5.91634 12.9656 3.20175 9.70459 3ZM8.37891 3.05127C5.34066 3.47577 3 6.08959 3 9.23584C3 12.4038 5.25405 15.0519 8.2998 15.4629V13.3682C6.37755 12.9872 5.0376 11.2803 5.0376 9.23584C5.0376 7.44259 6.1533 5.91545 7.7373 5.3042L8.32764 3.23877L8.37891 3.05127ZM9 3.4248L6.86572 10.8765L9.00439 9.93311V15.0322L11.6396 6.83789L9 7.93945V3.4248ZM19.8691 19.5454C20.0424 19.5454 20.1855 19.6893 20.1855 19.8618C20.1855 20.0351 20.0416 20.1724 19.8691 20.1724C19.6966 20.1724 19.5601 20.0351 19.5601 19.8618C19.5601 19.6893 19.6959 19.5454 19.8691 19.5454Z" fill="black"/>
</svg>
