<svg width="24" height="24" viewBox="0 0 24 24" fill="none" xmlns="http://www.w3.org/2000/svg">
<path d="M17.5488 10.5176C17.2939 10.5323 17.127 10.4502 17.1064 10.4356L15.8408 11.2442C16.1191 11.6807 16.6934 11.9766 17.3379 12.0147C17.3877 12.0176 17.4375 12.0176 17.4873 12.0176C18.334 12.0176 19.166 11.5899 19.7959 10.8281C20.8711 9.52151 21.627 8.13577 21.6592 8.07717L21.999 7.44729L21.3867 7.07815C17.9883 5.03616 16.0459 6.00589 15.3691 6.51858C14.4961 7.18069 14.0977 8.26467 14.3174 9.32229C13.6201 9.7676 12.9258 10.3301 12.3721 11.0156C12.0527 10.2686 11.5547 9.59768 10.9746 9.00589C11.0273 8.86819 11.0625 8.73342 11.0859 8.63381C11.0977 8.58108 11.1094 8.53128 11.124 8.48733C11.5078 7.2012 10.9805 5.7012 9.81152 4.75784C8.97949 4.08694 6.61523 2.76272 2.63965 4.95413L2.12695 5.23538L2.27344 5.79788C2.30273 5.91214 3.01172 8.58401 4.4209 10.1485C5.03027 10.8252 5.79492 11.2061 6.63574 11.2471C6.68848 11.25 6.74121 11.25 6.79102 11.25C7.73438 11.25 8.54297 10.8311 8.87109 10.5323L7.86328 9.4219C7.85156 9.43069 6.5918 10.3155 5.53711 9.14358C4.71973 8.23831 4.16309 6.78518 3.89941 5.98831C6.73828 4.62014 8.30859 5.47268 8.86816 5.92385C9.52441 6.45413 9.84961 7.23635 9.71484 7.91604C8.10059 6.72073 6.41895 6.05276 6.28418 6.00295L5.74219 7.40042C7.27441 7.99221 11.25 10.1133 11.25 12.75V15.1084C10.6787 15.2578 10.1572 15.5655 9.76465 16.0078C9.41309 15.8379 9.02637 15.75 8.625 15.75C7.55273 15.75 6.62988 16.3946 6.22266 17.3203C6.02637 17.2735 5.82715 17.25 5.625 17.25C4.17773 17.25 3 18.4278 3 19.875V20.25H4.5V19.875C4.5 19.2539 5.00391 18.75 5.625 18.75C5.92676 18.75 6.1582 18.876 6.29883 18.9815L7.5 18.3838V18.3721C7.50293 17.7539 8.00684 17.25 8.625 17.25C8.92676 17.25 9.21094 17.3701 9.4248 17.5869L10.6406 17.376C10.8867 16.8428 11.4199 16.5 12 16.5C12.5449 16.5 13.0488 16.8047 13.3125 17.2969L14.4961 17.4785C14.6455 17.3321 14.8447 17.25 15.0527 17.25C15.4922 17.25 15.8525 17.6104 15.8525 18.0498C15.8525 18.1377 15.835 18.2256 15.7998 18.3223L17.0039 19.1397C17.2031 18.961 17.5371 18.75 18 18.75C18.8262 18.75 19.5 19.4239 19.5 20.25H21C21 18.5948 19.6553 17.25 18 17.25C17.7422 17.25 17.4873 17.2852 17.2441 17.3496C16.9453 16.4209 16.0752 15.75 15.0527 15.75C14.7393 15.75 14.4404 15.8115 14.1592 15.9287C13.7754 15.5274 13.2861 15.249 12.75 15.1084V14.25H12.7529V14.0039C12.7529 10.8897 17.6514 9.39846 17.7012 9.38381L17.2793 7.94534C17.2031 7.96585 16.5908 8.15335 15.7852 8.52249C15.8438 8.21194 16.0049 7.9219 16.2773 7.71682C17.0713 7.11331 18.4189 7.22756 19.9629 8.00686C19.6611 8.49905 19.1924 9.2051 18.6387 9.876C18.2256 10.377 17.8184 10.503 17.5488 10.5176ZM10.1133 8.11526L10.1221 8.23245C10.084 8.20315 10.043 8.17385 10.0049 8.14163C10.04 8.13284 10.0723 8.11819 10.1133 8.11526Z" fill="black"/>
</svg>
