<svg width="24" height="24" viewBox="0 0 24 24" fill="none" xmlns="http://www.w3.org/2000/svg">
<path d="M3.75 3.75V20.25H20.25V3.75H3.75ZM5.25 5.25H18.75V18.75H5.25V5.25ZM15.0498 6.79541C14.7654 6.74436 14.4556 6.84332 14.2646 7.17041L14.0933 7.46338C12.3675 6.49363 10.152 7.07884 9.15527 8.76709C8.16152 10.4583 8.75896 12.6393 10.481 13.6128C11.1455 13.9915 10.4771 13.6098 11.1416 13.9878C12.0349 14.4918 12.7926 13.1725 11.9136 12.6753C11.9098 12.6753 11.2485 12.3032 11.2485 12.3032C10.2623 11.743 9.91457 10.4897 10.4868 9.52295C11.0591 8.5562 12.338 8.22084 13.3242 8.77734C13.9887 9.15609 13.3204 8.77434 13.9849 9.15234C14.3486 9.33084 14.6987 9.25437 14.9312 9.02637C15.0272 8.93187 15.0033 8.95609 15.6108 7.92334C15.9301 7.38053 15.5239 6.8805 15.0498 6.79541ZM12.5156 9.90088C11.7842 9.82269 11.3012 10.8881 12.0703 11.3232C12.7131 11.6802 12.0979 11.3383 12.7339 11.6953C13.7201 12.2556 14.0634 13.5088 13.4956 14.4756C12.9234 15.4423 11.6445 15.7777 10.6582 15.2212C9.9937 14.8424 10.6621 15.2242 9.99756 14.8462C9.63006 14.6362 9.15509 14.7623 8.94434 15.123L8.3833 16.0752C7.9333 16.8387 9.0753 17.9316 9.89355 16.5381C11.6193 17.5078 13.8348 16.9226 14.8315 15.2344C15.8283 13.5461 15.2324 11.3652 13.5029 10.3857C12.8384 10.007 13.5053 10.3887 12.8408 10.0107C12.7292 9.94774 12.6201 9.91205 12.5156 9.90088Z" fill="black"/>
</svg>
