<svg width="24" height="24" viewBox="0 0 24 24" fill="none" xmlns="http://www.w3.org/2000/svg">
<path d="M13.5 3C10.752 3 8.45508 4.6875 7.40625 7.05469C6.96973 6.87305 6.50391 6.75 6 6.75C3.9375 6.75 2.25 8.4375 2.25 10.5C2.25 10.6084 2.26465 10.7021 2.27344 10.8047C0.94336 11.7568 0 13.2451 0 15C0 17.8916 2.3584 20.25 5.25 20.25H18.75C21.6416 20.25 24 17.8916 24 15C24 12.6357 22.3857 10.7051 20.2266 10.0547C20.2324 9.95215 20.25 9.85547 20.25 9.75C20.25 6.03223 17.2178 3 13.5 3ZM13.5 4.5C16.4092 4.5 18.75 6.84082 18.75 9.75C18.75 9.97852 18.7354 10.21 18.7031 10.4531L18.5859 11.1797L19.3359 11.2969C21.1348 11.5752 22.5 13.1162 22.5 15C22.5 17.0801 20.8301 18.75 18.75 18.75H5.25C3.16992 18.75 1.5 17.0801 1.5 15C1.5 13.5879 2.27344 12.3604 3.42188 11.7188L3.89062 11.4609L3.79688 10.9219C3.76758 10.7754 3.75 10.6406 3.75 10.5C3.75 9.24902 4.74902 8.25 6 8.25C6.48926 8.25 6.9375 8.40234 7.3125 8.67188L8.15625 9.30469L8.46094 8.27344C9.09668 6.09375 11.1064 4.5 13.5 4.5ZM15 9.75V16.5H16.5V9.75H15ZM12 11.25V16.5H13.5V11.25H12ZM9 12V16.5H10.5V12H9ZM6 12.75V16.5H7.5V12.75H6Z" fill="black"/>
</svg>
