<svg width="24" height="24" viewBox="0 0 24 24" fill="none" xmlns="http://www.w3.org/2000/svg">
<path d="M2.25 4.5V19.5H21.75V4.5H2.25ZM3.75 6H20.25V9H3.75V6ZM5.25 6.75V8.25H11.25V6.75H5.25ZM18 6.75C17.5869 6.75 17.25 7.08691 17.25 7.5C17.25 7.91309 17.5869 8.25 18 8.25C18.4131 8.25 18.75 7.91309 18.75 7.5C18.75 7.08691 18.4131 6.75 18 6.75ZM3.75 10.5H20.25V13.5H3.75V10.5ZM5.25 11.25V12.75H11.25V11.25H5.25ZM18 11.25C17.5869 11.25 17.25 11.5869 17.25 12C17.25 12.4131 17.5869 12.75 18 12.75C18.4131 12.75 18.75 12.4131 18.75 12C18.75 11.5869 18.4131 11.25 18 11.25ZM3.75 15H20.25V18H3.75V15ZM5.25 15.75V17.25H11.25V15.75H5.25ZM18 15.75C17.5869 15.75 17.25 16.0869 17.25 16.5C17.25 16.9131 17.5869 17.25 18 17.25C18.4131 17.25 18.75 16.9131 18.75 16.5C18.75 16.0869 18.4131 15.75 18 15.75Z" fill="black"/>
</svg>
