<svg width="24" height="24" viewBox="0 0 24 24" fill="none" xmlns="http://www.w3.org/2000/svg">
<path d="M16.7681 2.89746L12.1421 11.25H21.394L16.7681 2.89746ZM16.7681 5.99268L18.8481 9.75H14.688L16.7681 5.99268ZM6.75 12C4.26825 12 2.25 14.0182 2.25 16.5C2.25 18.9818 4.26825 21 6.75 21C9.23175 21 11.25 18.9818 11.25 16.5C11.25 14.0182 9.23175 12 6.75 12ZM12.75 12.75V21H21V12.75H12.75ZM6.75 13.5C8.4045 13.5 9.75 14.8455 9.75 16.5C9.75 18.1545 8.4045 19.5 6.75 19.5C5.0955 19.5 3.75 18.1545 3.75 16.5C3.75 14.8455 5.0955 13.5 6.75 13.5ZM14.25 14.25H19.5V19.5H14.25V14.25Z" fill="black"/>
</svg>
