<svg width="24" height="24" viewBox="0 0 24 24" fill="none" xmlns="http://www.w3.org/2000/svg">
<path d="M3.75 3.75V20.25H20.25V3.75H3.75ZM5.25 5.25H18.75V18.75H5.25V5.25ZM15 7.5C14.7932 7.50018 14.5888 7.54309 14.3994 7.62605C14.21 7.70901 14.0398 7.83022 13.8995 7.98208C13.7592 8.13394 13.6518 8.31316 13.5841 8.5085C13.5163 8.70384 13.4897 8.91107 13.5059 9.11719L9.99023 10.875C9.71672 10.6338 9.36469 10.5005 9 10.5C8.60218 10.5 8.22064 10.658 7.93934 10.9393C7.65804 11.2206 7.5 11.6022 7.5 12C7.5 12.3978 7.65804 12.7794 7.93934 13.0607C8.22064 13.342 8.60218 13.5 9 13.5C9.36469 13.4995 9.71672 13.3662 9.99023 13.125L13.5059 14.8828C13.4897 15.0889 13.5163 15.2962 13.5841 15.4915C13.6518 15.6868 13.7592 15.8661 13.8995 16.0179C14.0398 16.1698 14.21 16.291 14.3994 16.3739C14.5888 16.4569 14.7932 16.4998 15 16.5C15.3978 16.5 15.7794 16.342 16.0607 16.0607C16.342 15.7794 16.5 15.3978 16.5 15C16.5 14.6022 16.342 14.2206 16.0607 13.9393C15.7794 13.658 15.3978 13.5 15 13.5C14.6353 13.5005 14.2833 13.6338 14.0098 13.875L10.4941 12.1172C10.5003 12.0392 10.5003 11.9608 10.4941 11.8828L14.0098 10.125C14.2833 10.3662 14.6353 10.4995 15 10.5C15.3978 10.5 15.7794 10.342 16.0607 10.0607C16.342 9.77936 16.5 9.39782 16.5 9C16.5 8.60218 16.342 8.22064 16.0607 7.93934C15.7794 7.65804 15.3978 7.5 15 7.5Z" fill="black"/>
</svg>
