<svg width="24" height="24" viewBox="0 0 24 24" fill="none" xmlns="http://www.w3.org/2000/svg">
<path d="M12 3C10.3125 3 9.17578 3.66504 8.15625 4.21875C7.13672 4.77246 6.21094 5.25 4.5 5.25H3.75V6C3.75 11.7891 5.70703 15.5566 7.6875 17.8359C9.66797 20.1152 11.7188 20.9531 11.7188 20.9531L12 21.0469L12.2812 20.9531C12.2812 20.9531 14.332 20.1328 16.3125 17.8594C18.293 15.5859 20.25 11.8096 20.25 6V5.25H19.5C17.7979 5.25 16.8633 4.77246 15.8438 4.21875C14.8242 3.66504 13.6875 3 12 3ZM12 4.5C13.3125 4.5 14.0654 4.95996 15.1172 5.53125C16.0049 6.01465 17.1826 6.47754 18.7031 6.63281C18.5596 11.707 16.8809 14.9326 15.1875 16.875C13.6523 18.6357 12.3633 19.2217 12 19.3828C11.6338 19.2188 10.3477 18.6182 8.8125 16.8516C7.11914 14.9033 5.44043 11.6836 5.29688 6.63281C6.82324 6.47754 7.99512 6.01465 8.88281 5.53125C9.93457 4.95996 10.6875 4.5 12 4.5Z" fill="black"/>
</svg>
