<svg width="24" height="24" viewBox="0 0 24 24" fill="none" xmlns="http://www.w3.org/2000/svg">
<path d="M11.25 2.25V3.75H8.25V6H5.25V10.4297L4.61719 10.5703V10.5938C3.26367 10.8867 2.59277 12.4541 3.30469 13.6406L4.5 15.6562V19.3828C3.89355 19.2129 3.46875 18.9141 3.46875 18.9141L2.53125 20.0859C2.53125 20.0859 3.68848 21 5.27344 21C6.36914 21 7.06641 20.6367 7.5 20.3672C7.93652 20.6338 8.66895 21 9.77344 21C10.8691 21 11.5664 20.6367 12 20.3672C12.4365 20.6338 13.1689 21 14.2734 21C15.3691 21 16.0664 20.6367 16.5 20.3672C16.9365 20.6338 17.6689 21 18.7734 21C20.3584 21 21.4688 20.0859 21.4688 20.0859L20.5312 18.9141C20.5312 18.9141 20.124 19.2393 19.5 19.4062V15.6562L20.6953 13.6406C21.4072 12.4541 20.7363 10.8867 19.3828 10.5938L18.75 10.4531V6H15.75V3.75H12.75V2.25H11.25ZM9.75 5.25H14.25V7.5H17.25V10.125L12.1641 9.02344L12 9L11.8359 9.02344L6.75 10.125V7.5H9.75V5.25ZM12 10.5469L19.0547 12.0469C19.4473 12.1318 19.6377 12.5244 19.4297 12.8672L18.1172 15.0703L18 15.2344V19.3828C17.3936 19.2129 16.9688 18.9141 16.9688 18.9141L16.5 18.5391L16.0312 18.9141C16.0312 18.9141 15.2783 19.5 14.2734 19.5C13.2686 19.5 12.4688 18.9141 12.4688 18.9141L12 18.5391L11.5312 18.9141C11.5312 18.9141 10.7783 19.5 9.77344 19.5C8.76855 19.5 7.96875 18.9141 7.96875 18.9141L7.5 18.5391L7.03125 18.9141C7.03125 18.9141 6.62402 19.2393 6 19.4062V15.2344L5.88281 15.0703L4.57031 12.8672C4.3623 12.5215 4.55273 12.1318 4.94531 12.0469L12 10.5469ZM8.25 12C7.79883 12 7.5 12.5244 7.5 13.125C7.5 13.7256 7.79883 14.25 8.25 14.25C8.70117 14.25 9 13.7256 9 13.125C9 12.5244 8.70117 12 8.25 12ZM15.75 12C15.2988 12 15 12.5244 15 13.125C15 13.7256 15.2988 14.25 15.75 14.25C16.2012 14.25 16.5 13.7256 16.5 13.125C16.5 12.5244 16.2012 12 15.75 12Z" fill="black"/>
</svg>
