<svg width="24" height="24" viewBox="0 0 24 24" fill="none" xmlns="http://www.w3.org/2000/svg">
<path d="M3.75 3V17.5781L4.19531 17.7656L11.6016 20.9297L11.8828 21.0703L12.1875 20.9531L19.7812 17.7656L20.25 17.5781V3H3.75ZM5.25 4.5H18.75V6.75H5.25V4.5ZM5.25 8.25H18.75V16.5703L11.8828 19.4297L5.25 16.5703V8.25ZM12 9.75C9.92871 9.75 8.25 11.4287 8.25 13.5C8.25 15.5713 9.92871 17.25 12 17.25C14.0713 17.25 15.75 15.5713 15.75 13.5C15.75 11.4287 14.0713 9.75 12 9.75ZM12.1406 11.2734C13.1953 11.2734 14.0508 11.8799 14.0859 11.9062L13.5234 12.6797C13.5176 12.6738 12.8789 12.2109 12.1406 12.2109C11.6895 12.2109 10.9219 12.3369 10.9219 12.7969C11.0889 12.9902 11.7422 12.9814 12.0234 12.9844H12.1641C13.3887 12.9844 14.1797 13.4502 14.1797 14.2031C14.1797 14.9033 13.626 15.7266 12.0938 15.7266C10.9395 15.7266 9.97852 15.1201 9.9375 15.0938L10.4531 14.3203C10.4619 14.3262 11.2207 14.7891 12.0938 14.7891C12.6182 14.7891 13.2422 14.6309 13.2422 14.2031C13.2422 14.083 12.7793 13.9219 12.1641 13.9219H12.0469C11.4756 13.9189 10.6992 13.9072 10.2656 13.4766C10.0811 13.292 9.98438 13.0693 9.98438 12.7969C9.98438 11.874 10.8311 11.2734 12.1406 11.2734Z" fill="black"/>
</svg>
