<svg width="24" height="24" viewBox="0 0 24 24" fill="none" xmlns="http://www.w3.org/2000/svg">
<path d="M7.5 2.25C5.85352 2.25 4.65235 3.4541 3.96094 4.875C3.26953 6.2959 2.97071 8.00977 3 9.51562C3.03516 11.2646 3.79688 13.0312 3.79688 13.0312L4.00782 13.5H10.3125L10.4766 12.9375C10.4766 12.9375 11.0684 10.7314 11.2266 8.625C11.2881 7.7959 11.2617 6.35449 10.8047 4.99219C10.5762 4.30957 10.2451 3.6416 9.70313 3.11719C9.16114 2.59277 8.39063 2.25 7.5 2.25ZM16.5 2.25C15.6094 2.25 14.8389 2.59277 14.2969 3.11719C13.7549 3.6416 13.4238 4.30957 13.1953 4.99219C12.7383 6.35449 12.7119 7.7959 12.7734 8.625C12.9316 10.7314 13.5234 12.9375 13.5234 12.9375L13.6875 13.5H19.9922L20.2031 13.0312C20.2031 13.0312 20.9648 11.2646 21 9.51562C21.0293 8.00977 20.7305 6.2959 20.0391 4.875C19.3477 3.4541 18.1465 2.25 16.5 2.25ZM7.5 3.75C8.02735 3.75 8.34668 3.90234 8.64844 4.19531C8.9502 4.48828 9.21973 4.9541 9.39844 5.48438C9.75293 6.54492 9.79688 7.89551 9.75 8.53125C9.62696 10.1631 9.23731 11.5283 9.11719 12H5.03907C4.85743 11.4873 4.52051 10.4883 4.5 9.49219C4.47364 8.2207 4.7666 6.6709 5.32032 5.53125C5.87403 4.3916 6.57715 3.75 7.5 3.75ZM16.5 3.75C17.4229 3.75 18.126 4.3916 18.6797 5.53125C19.2334 6.6709 19.5234 8.2207 19.5 9.49219C19.4795 10.4883 19.1426 11.4873 18.9609 12H14.8828C14.7627 11.5283 14.3731 10.1631 14.25 8.53125C14.2031 7.89551 14.2471 6.54492 14.6016 5.48438C14.7803 4.9541 15.0498 4.48828 15.3516 4.19531C15.6533 3.90234 15.9727 3.75 16.5 3.75ZM3.75 15.75V16.5C3.74121 17.5342 3.84082 18.7412 4.35938 19.8047C4.87793 20.8682 5.96778 21.75 7.5 21.75C9.19629 21.75 10.4854 20.0889 10.5 18C10.5029 17.5166 10.4824 16.9482 10.3125 16.3125L10.1719 15.75H3.75ZM13.8281 15.75L13.6875 16.3125C13.5176 16.9482 13.4971 17.5166 13.5 18C13.5147 20.0889 14.8037 21.75 16.5 21.75C18.0322 21.75 19.1221 20.8682 19.6406 19.8047C20.1592 18.7412 20.2588 17.5342 20.25 16.5V15.75H13.8281ZM5.36719 17.25H8.92969C8.95606 17.4961 9.00293 17.748 9 18C8.98828 19.5176 8.19727 20.25 7.5 20.25C6.46582 20.25 6.03809 19.8486 5.69532 19.1484C5.44922 18.6475 5.41993 17.9268 5.36719 17.25ZM15.0703 17.25H18.6328C18.5801 17.9268 18.5508 18.6475 18.3047 19.1484C17.9619 19.8486 17.5342 20.25 16.5 20.25C15.8027 20.25 15.0117 19.5176 15 18C14.9971 17.748 15.0439 17.4961 15.0703 17.25Z" fill="black"/>
</svg>
