<svg width="24" height="24" viewBox="0 0 24 24" fill="none" xmlns="http://www.w3.org/2000/svg">
<path d="M6.98438 3C6.41895 3 5.92969 3.27539 5.48438 3.65625C5.03906 4.03711 4.62891 4.5498 4.26562 5.20312C3.53906 6.5127 3 8.34961 3 10.6406C3 11.8154 3.27246 13.0254 3.82031 13.9922C3.94043 14.2031 4.13672 14.3438 4.28906 14.5312C3.88184 15.0293 3.21094 15.9609 3.21094 15.9609L4.28906 17.0391C4.28906 17.0391 5.0332 16.0137 5.50781 15.4453C5.80957 15.5742 6.09375 15.75 6.44531 15.75C7.73145 15.75 9.07324 15.1875 10.3125 14.4844C10.7109 14.7891 11.1592 15 11.625 15C13.166 15 14.3379 14.0947 15.1641 13.2891C15.4043 13.0547 15.5654 12.8818 15.75 12.6797C15.7471 12.8848 15.7412 13.0723 15.7969 13.3125C15.8408 13.4941 15.8906 13.7197 16.0781 13.9219C16.2656 14.124 16.6025 14.25 16.875 14.25C17.4229 14.25 17.7393 13.998 18.0703 13.7578C18.4014 13.5176 18.7148 13.2305 19.0547 12.9609C19.7373 12.4219 20.4639 12 21 12V10.5C19.8105 10.5 18.8818 11.2031 18.1406 11.7891C17.7891 12.0674 17.4727 12.3105 17.2266 12.4922C17.2266 12.4512 17.2266 12.4424 17.2266 12.3984C17.2354 12.126 17.2764 11.8213 17.2266 11.4844C17.2031 11.3174 17.1475 11.1416 16.9922 10.9219C16.8369 10.7021 16.4883 10.5 16.1953 10.5C15.7734 10.5 15.6182 10.6816 15.4688 10.8047C15.3193 10.9277 15.208 11.0537 15.0703 11.2031C14.7949 11.502 14.4668 11.8623 14.1094 12.2109C13.4795 12.8262 12.7383 13.292 11.9297 13.4062C12.4658 12.9756 13.0049 12.5479 13.3828 12.0703C13.8809 11.4434 14.25 10.8047 14.25 10.0547C14.25 9.63281 14.1973 9.05566 13.875 8.50781C13.5527 7.95996 12.8584 7.5 12 7.5C11.0771 7.5 10.2363 7.9541 9.72656 8.67188C9.2168 9.38965 9 10.3096 9 11.3906C9 12.126 9.16699 12.7354 9.39844 13.2656C8.35547 13.8135 7.27441 14.25 6.44531 14.25C7.71387 12.3486 9 9.75879 9 6.60938C9 5.95605 9.00586 5.18555 8.78906 4.47656C8.68066 4.12207 8.50781 3.76172 8.20312 3.46875C7.89844 3.17578 7.44727 3 6.98438 3ZM6.98438 4.5C7.11914 4.5 7.125 4.52637 7.17188 4.57031C7.21875 4.61426 7.27441 4.72266 7.33594 4.92188C7.45605 5.31738 7.5 5.98535 7.5 6.60938C7.5 9.2666 6.36328 11.5928 5.22656 13.3359C5.2002 13.292 5.15918 13.2891 5.13281 13.2422C4.74316 12.5596 4.5 11.5664 4.5 10.6406C4.5 8.58105 4.99219 6.98438 5.57812 5.92969C5.87109 5.40234 6.17285 5.01562 6.44531 4.78125C6.71777 4.54688 6.94922 4.5 6.98438 4.5ZM12 9C12.416 9 12.4775 9.09961 12.5859 9.28125C12.6943 9.46289 12.75 9.7998 12.75 10.0547C12.75 10.2422 12.5918 10.6787 12.2109 11.1562C11.8799 11.5723 11.376 12.0029 10.8281 12.4219C10.6963 12.1201 10.5 11.9004 10.5 11.3906C10.5 10.5205 10.6846 9.88477 10.9453 9.51562C11.2061 9.14648 11.499 9 12 9ZM3 19.5V21H21V19.5H3Z" fill="black"/>
</svg>
