<svg width="24" height="24" viewBox="0 0 24 24" fill="none" xmlns="http://www.w3.org/2000/svg">
<path d="M15.1685 1.02539L13.9556 1.90723L20.2368 10.5527C20.2034 11 19.9796 11.4143 19.6084 11.6733L17.5049 13.1426C16.8396 13.6076 15.9365 13.4639 15.4482 12.8159L11.0991 7.04883L9.90088 7.95117L14.25 13.7197C14.841 14.5027 15.7353 14.9165 16.6436 14.9165C17.2376 14.9165 17.8383 14.7391 18.3633 14.3716L20.4668 12.9023C21.27 12.3421 21.75 11.4224 21.75 10.4429V5.25H20.25V8.01709L15.1685 1.02539ZM12.9082 1.7417L11.6953 2.62354L15.6299 8.03906L16.8428 7.15723L12.9082 1.7417ZM11.5283 3.6709L10.314 4.55273L13.7842 9.32812L14.9971 8.44629L11.5283 3.6709ZM9.43506 11.3892L8.56494 12.6094L10.8604 14.25H2.25V15.75H12.939C13.2877 16.033 13.5 16.4558 13.5 16.9087V19.5C13.5 20.3272 12.8273 21 12 21H4.5V22.5H12C13.6545 22.5 15 21.1545 15 19.5V16.9087C15 15.9419 14.5299 15.0285 13.7432 14.4668L9.43506 11.3892ZM1.5 16.5V18H8.25V16.5H1.5ZM2.25 18.75V20.25H8.25V18.75H2.25Z" fill="black"/>
</svg>
