<svg width="24" height="24" viewBox="0 0 24 24" fill="none" xmlns="http://www.w3.org/2000/svg">
<path d="M4.5 5.25C3.67969 5.25 3 5.92969 3 6.75V17.25C3 18.0703 3.67969 18.75 4.5 18.75H19.5C20.3203 18.75 21 18.0703 21 17.25V6.75C21 5.92969 20.3203 5.25 19.5 5.25H16.5C15.6797 5.25 15 5.92969 15 6.75V7.5H9V6.75C9 5.92969 8.32031 5.25 7.5 5.25H4.5ZM4.5 6.75H7.5V9H16.5V6.75H19.5V17.25H4.5V6.75ZM9 10.875C7.75781 10.875 6.75 11.8828 6.75 13.125C6.75 14.3672 7.75781 15.375 9 15.375C10.2422 15.375 11.25 14.3672 11.25 13.125C11.25 11.8828 10.2422 10.875 9 10.875ZM15 10.875C13.7578 10.875 12.75 11.8828 12.75 13.125C12.75 14.3672 13.7578 15.375 15 15.375C16.2422 15.375 17.25 14.3672 17.25 13.125C17.25 11.8828 16.2422 10.875 15 10.875Z" fill="black"/>
</svg>
