<svg width="24" height="24" viewBox="0 0 24 24" fill="none" xmlns="http://www.w3.org/2000/svg">
<path d="M3 3L5.80078 7.771L3.75 7.5L6.18604 10.5439C6.06887 11.0112 6 11.497 6 12C6 12.503 6.06887 12.9888 6.18604 13.4561L3.75 16.5L5.80078 16.229L3 21L7.771 18.1992L7.5 20.25L10.5439 17.814C11.0112 17.9311 11.497 18 12 18C12.503 18 12.9888 17.9311 13.4561 17.814L16.5 20.25L16.229 18.1992L21 21L18.1992 16.229L20.25 16.5L17.814 13.4561C17.9311 12.9888 18 12.503 18 12C18 11.497 17.9311 11.0112 17.814 10.5439L20.25 7.5L18.1992 7.771L21 3L16.229 5.80078L16.5 3.75L13.4561 6.18604C12.9888 6.06887 12.503 6 12 6C11.497 6 11.0112 6.06887 10.5439 6.18604L7.5 3.75L7.771 5.80078L3 3ZM12 7.5C14.4818 7.5 16.5 9.51825 16.5 12C16.5 14.4818 14.4818 16.5 12 16.5C9.51825 16.5 7.5 14.4818 7.5 12C7.5 9.51825 9.51825 7.5 12 7.5ZM12 9C11.2044 9 10.4413 9.31607 9.87868 9.87868C9.31607 10.4413 9 11.2044 9 12C9 12.7956 9.31607 13.5587 9.87868 14.1213C10.4413 14.6839 11.2044 15 12 15C12.7956 15 13.5587 14.6839 14.1213 14.1213C14.6839 13.5587 15 12.7956 15 12C15 11.2044 14.6839 10.4413 14.1213 9.87868C13.5587 9.31607 12.7956 9 12 9Z" fill="black"/>
</svg>
