<svg width="24" height="24" viewBox="0 0 24 24" fill="none" xmlns="http://www.w3.org/2000/svg">
<path d="M12 2.99268L6.3252 3.80273L2.04785 9.79248L12 21.4028L21.9507 9.79248L17.6733 3.80273L12 2.99268ZM10.103 4.77832L7.65234 7.5791L7.82227 5.10498L10.103 4.77832ZM13.897 4.77832L16.1777 5.10352L16.3477 7.5791L13.897 4.77832ZM12 4.88965L15.5977 9H8.40234L12 4.88965ZM6.22119 6.53027L6.0498 9H4.45752L6.22119 6.53027ZM17.7788 6.53174L19.5425 9H17.9502L17.7788 6.53174ZM4.63184 10.5H6.28711L8.60449 15.1362L4.63184 10.5ZM7.96436 10.5H16.0356L12 18.5728L7.96436 10.5ZM17.7129 10.5H19.3682L15.3955 15.1362L17.7129 10.5Z" fill="black"/>
</svg>
