<svg width="24" height="24" viewBox="0 0 24 24" fill="none" xmlns="http://www.w3.org/2000/svg">
<path d="M18 3C16.7666 3 15.75 4.0166 15.75 5.25C15.75 6.4834 16.7666 7.5 18 7.5C19.2334 7.5 20.25 6.4834 20.25 5.25C20.25 4.0166 19.2334 3 18 3ZM6.02344 3.16406L5.15625 4.35938L9.89062 7.80469C9.80859 7.89258 9.71191 7.97461 9.63281 8.0625C8.66016 9.12598 8.85645 10.8486 10.0547 11.6484L12.8203 13.4766L9.96094 15.1641L4.125 11.8125L3.375 13.125L16.5234 20.6719C16.5469 20.6807 16.5703 20.6895 16.5938 20.6953C16.5938 20.6953 17.124 20.9531 17.8125 21C18.501 21.0469 19.4795 20.8477 20.1094 19.9922L18.9141 19.1016C18.6387 19.4766 18.3193 19.5264 17.9297 19.5C17.5781 19.4766 17.3291 19.3828 17.2734 19.3594L17.2031 19.3359L11.4375 16.0312L13.5703 14.7656C14.4932 14.2178 14.5342 12.832 13.6406 12.2344L10.8984 10.4062C10.4385 10.0986 10.3623 9.47754 10.7344 9.07031C11.1299 8.63672 11.5693 8.1709 11.9766 7.78125C12.5625 7.21875 13.333 6.96094 13.9453 6.84375C14.1094 6.81152 14.2266 6.92285 14.2266 7.10156L14.25 10.1016V10.4531L14.5547 10.6875L17.5312 12.9609L18.4453 11.7891L15.75 9.72656L15.7266 7.10156C15.7207 6.02051 14.7158 5.15918 13.6406 5.36719C12.8438 5.52246 11.8125 5.87109 10.9453 6.70312L6.02344 3.16406ZM18 4.5C18.4219 4.5 18.75 4.82812 18.75 5.25C18.75 5.67188 18.4219 6 18 6C17.5781 6 17.25 5.67188 17.25 5.25C17.25 4.82812 17.5781 4.5 18 4.5Z" fill="black"/>
</svg>
