<svg width="24" height="24" viewBox="0 0 24 24" fill="none" xmlns="http://www.w3.org/2000/svg">
<path d="M4.875 2.25C4.25391 2.25 3.75 2.75391 3.75 3.375C3.75 3.55078 3.79688 3.7207 3.86719 3.86719C3.7207 3.79688 3.55078 3.75 3.375 3.75C2.75391 3.75 2.25 4.25391 2.25 4.875C2.25 5.49609 2.75391 6 3.375 6C3.80273 6 4.16895 5.76562 4.35938 5.41406L6.39844 7.47656C5.87109 8.25586 5.50195 9.16113 5.34375 10.125C5.09766 11.6191 5.3877 13.0283 6 14.25V15C6 15.5332 6.19922 16.0195 6.51562 16.4062L4.35938 18.5625C4.16602 18.2227 3.79395 18 3.375 18C2.75391 18 2.25 18.5039 2.25 19.125C2.25 19.7461 2.75391 20.25 3.375 20.25C3.55078 20.25 3.7207 20.2031 3.86719 20.1328C3.79395 20.2793 3.75 20.4492 3.75 20.625C3.75 21.2461 4.25391 21.75 4.875 21.75C5.49609 21.75 6 21.2461 6 20.625C6 20.2061 5.77734 19.834 5.4375 19.6406L7.875 17.2031C7.99805 17.2236 8.12109 17.25 8.25 17.25C8.25 18.4834 9.2666 19.5 10.5 19.5H13.5C14.7334 19.5 15.75 18.4834 15.75 17.25C15.8789 17.25 16.002 17.2236 16.125 17.2031L18.5625 19.6406C18.2227 19.834 18 20.2061 18 20.625C18 21.2461 18.5039 21.75 19.125 21.75C19.7461 21.75 20.25 21.2461 20.25 20.625C20.25 20.4492 20.2031 20.2793 20.1328 20.1328C20.2793 20.2031 20.4492 20.25 20.625 20.25C21.2461 20.25 21.75 19.7461 21.75 19.125C21.75 18.5039 21.2461 18 20.625 18C20.2061 18 19.834 18.2227 19.6406 18.5625L17.4844 16.4062C17.8008 16.0195 18 15.5332 18 15V14.2734C18.4629 13.3594 18.75 12.3428 18.75 11.25C18.75 9.85254 18.3135 8.55469 17.5781 7.47656L19.6406 5.41406C19.8311 5.76562 20.1973 6 20.625 6C21.2461 6 21.75 5.49609 21.75 4.875C21.75 4.25391 21.2461 3.75 20.625 3.75C20.4492 3.75 20.2793 3.79688 20.1328 3.86719C20.2031 3.7207 20.25 3.55078 20.25 3.375C20.25 2.75391 19.7461 2.25 19.125 2.25C18.5039 2.25 18 2.75391 18 3.375C18 3.80273 18.2344 4.16895 18.5859 4.35938L16.5938 6.32812C15.375 5.19141 13.7402 4.49121 11.9531 4.5C11.7041 4.5 11.458 4.51758 11.2031 4.54688C9.74707 4.71387 8.41113 5.34375 7.38281 6.30469L5.41406 4.35938C5.76562 4.16895 6 3.80273 6 3.375C6 2.75391 5.49609 2.25 4.875 2.25ZM11.9766 6C14.9033 5.98242 17.25 8.33203 17.25 11.25C17.25 12.1729 17.0127 13.0283 16.5938 13.7812L16.5 13.9688V15C16.5 15.4248 16.1748 15.75 15.75 15.75H14.25V17.25C14.25 17.6748 13.9248 18 13.5 18H10.5C10.0752 18 9.75 17.6748 9.75 17.25V15.75H8.25C7.8252 15.75 7.5 15.4248 7.5 15V13.9688L7.40625 13.7812C6.8584 12.791 6.6123 11.6191 6.82031 10.3594C7.18945 8.09766 9.11133 6.30469 11.3906 6.04688C11.5898 6.02344 11.7803 6 11.9766 6ZM9.75 11.25C8.9209 11.25 8.25 11.9209 8.25 12.75C8.25 13.5791 8.9209 14.25 9.75 14.25C10.5791 14.25 11.25 13.5791 11.25 12.75C11.25 11.9209 10.5791 11.25 9.75 11.25ZM14.25 11.25C13.4209 11.25 12.75 11.9209 12.75 12.75C12.75 13.5791 13.4209 14.25 14.25 14.25C15.0791 14.25 15.75 13.5791 15.75 12.75C15.75 11.9209 15.0791 11.25 14.25 11.25ZM11.25 15V16.5H12.75V15H11.25Z" fill="black"/>
</svg>
