<svg width="24" height="24" viewBox="0 0 24 24" fill="none" xmlns="http://www.w3.org/2000/svg">
<path d="M12 3C9.81152 3 7.76074 3.57129 6.23438 4.75781C4.70801 5.94434 3.75 7.78125 3.75 10.0781C3.75 12.1816 4.78418 13.8193 5.34375 14.5547C5.29688 14.7979 5.25 15.0527 5.25 15.3516C5.25 16.2451 5.78613 16.9951 6.49219 17.4141C6.9873 17.707 7.62891 17.7598 8.25 17.8359V19.8047L8.48438 20.0391C8.48438 20.0391 8.80957 20.3525 9.375 20.5781C9.94043 20.8037 10.7988 21 12 21C13.2012 21 14.0596 20.8037 14.625 20.5781C15.1904 20.3525 15.5156 20.0391 15.5156 20.0391L15.75 19.8047V17.8359C16.3711 17.7598 17.0127 17.707 17.5078 17.4141C18.2139 16.9951 18.75 16.2451 18.75 15.3516C18.75 15.0527 18.7031 14.7979 18.6562 14.5547C19.2158 13.8193 20.25 12.1816 20.25 10.0781C20.25 7.77832 19.292 5.94434 17.7656 4.75781C16.2393 3.57129 14.1885 3 12 3ZM12 4.5C13.9307 4.5 15.6357 5.00391 16.8281 5.92969C18.0205 6.85547 18.75 8.18262 18.75 10.0781C18.75 11.0977 18.4219 12 18.0703 12.6797C18.0322 12.4951 18 12.29 18 12H16.5C16.5 12.9287 16.7549 13.5439 16.9453 13.9922C17.1357 14.4404 17.25 14.7158 17.25 15.3516C17.25 15.7119 17.1123 15.9023 16.7344 16.125C16.3564 16.3477 15.7324 16.5 15 16.5H14.25V19.0781C14.1885 19.1133 14.2295 19.1045 14.0625 19.1719C13.6875 19.3213 13.0342 19.5 12 19.5C10.9658 19.5 10.3125 19.3213 9.9375 19.1719C9.77051 19.1045 9.81152 19.1133 9.75 19.0781V16.5H9C8.26758 16.5 7.64355 16.3477 7.26562 16.125C6.8877 15.9023 6.75 15.7119 6.75 15.3516C6.75 14.7158 6.86426 14.4404 7.05469 13.9922C7.24512 13.5439 7.5 12.9287 7.5 12H6C6 12.29 5.96777 12.4951 5.92969 12.6797C5.57812 12 5.25 11.0977 5.25 10.0781C5.25 8.18262 5.97949 6.85547 7.17188 5.92969C8.36426 5.00391 10.0693 4.5 12 4.5ZM9.75 12C8.9209 12 8.25 12.6709 8.25 13.5C8.25 14.3291 8.9209 15 9.75 15C10.5791 15 11.25 14.3291 11.25 13.5C11.25 12.6709 10.5791 12 9.75 12ZM14.25 12C13.4209 12 12.75 12.6709 12.75 13.5C12.75 14.3291 13.4209 15 14.25 15C15.0791 15 15.75 14.3291 15.75 13.5C15.75 12.6709 15.0791 12 14.25 12ZM12 14.8125C12 14.8125 11.0625 16.0078 11.0625 16.5703C11.0625 16.8516 11.25 16.9922 11.4375 16.9922C11.751 16.9922 12 16.4297 12 16.4297C12 16.4297 12.249 16.9922 12.5625 16.9922C12.75 16.9922 12.9375 16.8516 12.9375 16.5703C12.9375 16.0078 12 14.8125 12 14.8125Z" fill="black"/>
</svg>
