<svg width="24" height="24" viewBox="0 0 24 24" fill="none" xmlns="http://www.w3.org/2000/svg">
<path d="M13.2422 2.25003C13.0312 2.23245 12.7969 2.27347 12.5859 2.34378C11.7393 2.62796 11.2939 3.53616 11.5781 4.38284L12.2578 6.37503L8.41406 7.66409L7.78125 5.74222C7.49707 4.89554 6.58886 4.45023 5.74218 4.73441C4.89257 5.01859 4.42675 5.92679 4.71093 6.77347L5.34375 8.67191L3.35156 9.35159C2.50488 9.63577 2.05957 10.5674 2.34375 11.4141C2.62793 12.2608 3.53613 12.7061 4.38281 12.4219L6.375 11.7657L7.66406 15.586L5.74218 16.2188C4.8955 16.503 4.45019 17.4112 4.73437 18.2578C5.01855 19.1075 5.92675 19.5733 6.77343 19.2891L8.67187 18.6563L9.35156 20.6485C9.63574 21.4951 10.5674 21.9405 11.4141 21.6563C12.2607 21.3721 12.7061 20.4639 12.4219 19.6172L11.7656 17.625L15.5859 16.336L16.2187 18.2578C16.5029 19.1045 17.4111 19.5498 18.2578 19.2657C19.1074 18.9815 19.5732 18.0733 19.2891 17.2266L18.6562 15.3282L20.6484 14.6485C21.4951 14.3643 21.9404 13.4326 21.6562 12.586C21.3721 11.7393 20.4639 11.294 19.6172 11.5782L17.625 12.2344L16.3359 8.41409L18.2578 7.78128C19.1045 7.4971 19.5498 6.5889 19.2656 5.74222C18.9814 4.89554 18.0732 4.42679 17.2266 4.71097L15.3281 5.34378L14.6484 3.35159C14.4346 2.71585 13.8721 2.29984 13.2422 2.25003ZM13.2656 9.44534L14.5547 13.2657L10.7344 14.5547L9.44531 10.7344L13.2656 9.44534Z" fill="black"/>
</svg>
