<svg width="24" height="24" viewBox="0 0 24 24" fill="none" xmlns="http://www.w3.org/2000/svg">
<path d="M12 2.25C6.624 2.25 2.25 6.624 2.25 12C2.25 17.376 6.624 21.75 12 21.75C17.376 21.75 21.75 17.376 21.75 12C21.75 6.624 17.376 2.25 12 2.25ZM12 3.75C16.5487 3.75 20.25 7.45125 20.25 12C20.25 16.5487 16.5487 20.25 12 20.25C7.45125 20.25 3.75 16.5487 3.75 12C3.75 7.45125 7.45125 3.75 12 3.75ZM8.25 9C6.6795 9 5.54297 9.90527 5.54297 9.90527L6.45703 11.0947C6.45703 11.0947 7.26971 10.5 8.25146 10.5C9.23321 10.5 10.0444 11.0947 10.0444 11.0947L10.9585 9.90527C10.957 9.90527 9.8205 9 8.25 9ZM15.75 9C14.1795 9 13.043 9.90527 13.043 9.90527L13.957 11.0947C13.957 11.0947 14.7697 10.5 15.7515 10.5C16.7332 10.5 17.5444 11.0947 17.5444 11.0947L18.4585 9.90527C18.457 9.90527 17.3205 9 15.75 9ZM8.10791 14.25L6.81738 15C6.9477 15.2241 7.09125 15.4385 7.24805 15.6431C7.40484 15.8476 7.57541 16.042 7.75635 16.2246C8.11822 16.5899 8.52633 16.9094 8.9707 17.1724C9.19289 17.3038 9.42281 17.4217 9.66211 17.5239C9.90141 17.6262 10.1493 17.7126 10.4033 17.7832C10.6574 17.8538 10.9191 17.9078 11.1855 17.9443C11.452 17.9809 11.7234 18 12 18C12.2766 18 12.548 17.9809 12.8145 17.9443C14.1469 17.7617 15.339 17.1378 16.2437 16.2246C16.4246 16.042 16.5952 15.8476 16.752 15.6431C16.9087 15.4385 17.0523 15.2241 17.1826 15L15.8921 14.25C15.2096 15.4247 14.022 16.2669 12.6152 16.459C12.4143 16.4864 12.2091 16.5 12 16.5C11.7909 16.5 11.5857 16.4864 11.3848 16.459C11.1838 16.4315 10.9871 16.3904 10.7959 16.3374C10.4135 16.2313 10.0525 16.0763 9.71924 15.8789C9.38596 15.6816 9.08039 15.4423 8.80957 15.1685C8.67416 15.0315 8.54747 14.8852 8.43018 14.7319C8.31289 14.5786 8.20541 14.4178 8.10791 14.25Z" fill="black"/>
</svg>
