<svg width="24" height="24" viewBox="0 0 24 24" fill="none" xmlns="http://www.w3.org/2000/svg">
<path d="M12 3C7.03711 3 3 7.03711 3 12C3 16.9629 7.03711 21 12 21C16.9629 21 21 16.9629 21 12C21 7.03711 16.9629 3 12 3ZM12 4.5C16.1514 4.5 19.5 7.84863 19.5 12C19.5 16.1514 16.1514 19.5 12 19.5C7.84863 19.5 4.5 16.1514 4.5 12C4.5 7.84863 7.84863 4.5 12 4.5ZM8.625 9C8.00391 9 7.5 9.50391 7.5 10.125C7.5 10.7461 8.00391 11.25 8.625 11.25C9.24609 11.25 9.75 10.7461 9.75 10.125C9.75 9.50391 9.24609 9 8.625 9ZM13.5 9.75V11.25H17.25V9.75H13.5ZM15.7266 12.7734C15.7266 14.0361 15.2197 14.9121 14.4844 15.5391C13.749 16.166 12.7764 16.5 12 16.5C10.4092 16.5 9.32812 15.8555 8.48438 15.0234L7.42969 16.1016C8.47559 17.1299 9.99023 18 12 18C13.166 18 14.4463 17.5605 15.4688 16.6875C16.4912 15.8145 17.2266 14.4668 17.2266 12.7734H15.7266Z" fill="black"/>
</svg>
