<svg width="24" height="24" viewBox="0 0 24 24" fill="none" xmlns="http://www.w3.org/2000/svg">
<path d="M12 3C7.03711 3 3 7.03711 3 12C3 16.9629 7.03711 21 12 21C16.9629 21 21 16.9629 21 12C21 7.03711 16.9629 3 12 3ZM12 4.5C16.1514 4.5 19.5 7.84863 19.5 12C19.5 16.1514 16.1514 19.5 12 19.5C7.84863 19.5 4.5 16.1514 4.5 12C4.5 7.84863 7.84863 4.5 12 4.5ZM8.625 9C8.00391 9 7.5 9.50391 7.5 10.125C7.5 10.7461 8.00391 11.25 8.625 11.25C9.24609 11.25 9.75 10.7461 9.75 10.125C9.75 9.50391 9.24609 9 8.625 9ZM15.375 9C14.7539 9 14.25 9.50391 14.25 10.125C14.25 10.7461 14.7539 11.25 15.375 11.25C15.9961 11.25 16.5 10.7461 16.5 10.125C16.5 9.50391 15.9961 9 15.375 9ZM8.10938 14.25L6.82031 15C7.85742 16.79 9.78516 18 12 18C14.2148 18 16.1426 16.79 17.1797 15L15.8906 14.25C15.1113 15.5947 13.6699 16.5 12 16.5C10.3301 16.5 8.88867 15.5947 8.10938 14.25Z" fill="black"/>
</svg>
