<svg width="24" height="24" viewBox="0 0 24 24" fill="none" xmlns="http://www.w3.org/2000/svg">
<path d="M6 3.75C3.5145 3.75 1.5 5.7645 1.5 8.25C1.5 10.7355 3.5145 12.75 6 12.75H11.2676C11.9523 13.656 13.0275 14.25 14.25 14.25C15.4725 14.25 16.5484 13.656 17.2324 12.75H19.125C20.9888 12.75 22.5 11.2387 22.5 9.375C22.5 7.51125 20.9888 6 19.125 6C18.447 6 17.8183 6.2036 17.2896 6.54785C16.6183 4.90685 15.0075 3.75 13.125 3.75C11.673 3.75 10.3853 4.44056 9.5625 5.50781C8.73975 4.44056 7.452 3.75 6 3.75ZM3.75 15.75V17.25H22.5V15.75H3.75ZM1.5 18.75V20.25H6.75V18.75H1.5ZM8.25 18.75V20.25H20.25V18.75H8.25Z" fill="black"/>
</svg>
