<svg width="24" height="24" viewBox="0 0 24 24" fill="none" xmlns="http://www.w3.org/2000/svg">
<path d="M2.78906 1.71094L1.71094 2.78906L21.2109 22.2891L22.2891 21.2109L17.5781 16.5H23.25V12H13.0781L2.78906 1.71094ZM12.0234 3C11.7539 3.26953 11.5547 3.58887 11.3203 4.10156C11.0859 4.61426 10.8779 5.25879 10.875 5.97656C10.8721 6.69434 11.1211 7.51465 11.7656 8.13281C12.4102 8.75098 13.3945 9.15234 14.7656 9.32812C15.9082 9.47461 16.6436 9.66211 17.0625 9.91406C17.4814 10.166 17.6543 10.4238 17.7891 11.0391L19.2656 10.7109C19.0723 9.82617 18.583 9.07324 17.8359 8.625C17.0889 8.17676 16.1748 7.9834 14.9531 7.82812C13.7842 7.67871 13.1309 7.35059 12.7969 7.03125C12.4629 6.71191 12.375 6.38379 12.375 5.97656C12.375 5.56934 12.5068 5.1123 12.6797 4.73438C12.8525 4.35645 13.1191 4.01367 13.0781 4.05469L12.0234 3ZM16.1719 3.23438V4.73438C16.6377 4.73438 17.2383 4.80469 17.6953 5.0625C18.1523 5.32031 18.5391 5.70117 18.6328 6.79688L18.7031 7.5H19.3828C19.7695 7.5 20.5752 7.62012 20.9766 7.96875C21.1758 8.14453 21.3047 8.34961 21.3516 8.74219C21.3984 9.13477 21.3281 9.73535 20.9766 10.5938L22.3828 11.1562C22.8018 10.1367 22.9395 9.29004 22.8516 8.55469C22.7637 7.81934 22.4062 7.2334 21.9609 6.84375C21.2842 6.25195 20.5488 6.09961 19.9453 6.04688C19.6846 4.96289 19.1426 4.14551 18.4453 3.75C17.6045 3.27246 16.7285 3.23438 16.1719 3.23438ZM0.75 12V16.5H13.3594L11.8594 15H2.25V13.5H10.3594L8.85938 12H0.75ZM14.5781 13.5H17.25V15H16.0781L14.5781 13.5ZM18.75 13.5H19.5V15H18.75V13.5ZM21 13.5H21.75V15H21V13.5Z" fill="black"/>
</svg>
