<svg width="24" height="24" viewBox="0 0 24 24" fill="none" xmlns="http://www.w3.org/2000/svg">
<path d="M3.75 3.75V20.25H20.25V3.75H3.75ZM5.25 5.25H18.75V18.75H5.25V5.25ZM12.0894 7.49854C12.0736 7.49854 11.9293 7.50293 11.9136 7.50293C11.5438 7.50293 10.2847 7.61408 9.68994 9.02783C9.46494 9.56483 9.55212 10.5238 9.58887 11.1958C9.55962 11.2123 9.50155 11.2354 9.41455 11.2354C9.29605 11.2354 9.156 11.1954 9 11.1167C8.802 11.0184 8.46339 11.1675 8.42139 11.4067C8.39514 11.5447 8.45188 11.7469 8.86963 11.9209C9.03088 11.9914 9.41537 12.071 9.50537 12.293C9.54287 12.386 9.52889 12.5043 9.46289 12.6445C9.46064 12.6475 9.45703 12.6489 9.45703 12.6519C9.43303 12.7081 8.88367 14.0436 7.65967 14.2573C7.56442 14.2738 7.49914 14.3641 7.50439 14.4653C7.52314 14.8561 8.34253 15.0081 8.70703 15.0674C8.74453 15.1206 8.77404 15.3453 8.82129 15.5171C8.84304 15.5928 8.89852 15.6855 9.04102 15.6855C9.18352 15.6855 9.39142 15.5991 9.72217 15.5991C10.1872 15.5991 10.3464 15.7114 10.7109 15.9844C10.9727 16.1809 11.4377 16.5406 11.9927 16.4956C12.5424 16.5211 12.9102 16.2739 13.2935 15.9844C13.6557 15.7114 13.8172 15.5991 14.2822 15.5991C14.6257 15.5991 14.7991 15.6797 14.9634 15.6797H14.9678C15.084 15.6797 15.1524 15.6184 15.1816 15.5142C15.2296 15.3424 15.2591 15.1206 15.2959 15.0674C16.0016 14.9496 16.3887 14.7842 16.481 14.5562C16.5395 14.4077 16.4571 14.2807 16.3506 14.2515C15.1266 14.0377 14.5772 12.7022 14.5532 12.646C14.551 12.643 14.5504 12.6417 14.5474 12.6387C14.4844 12.4977 14.4696 12.3801 14.5063 12.2871C14.5753 12.1101 14.837 12.0226 15.0088 11.9634C15.0568 11.9461 15.1009 11.9315 15.1377 11.915C15.4414 11.789 15.5948 11.6322 15.5918 11.4492C15.5888 11.306 15.4844 11.1783 15.3179 11.1138C15.2121 11.0688 15.0633 11.0605 14.9575 11.1138C14.812 11.1865 14.6833 11.2272 14.5693 11.2324C14.4951 11.2302 14.4477 11.2094 14.4185 11.1929C14.4552 10.5179 14.5438 9.5619 14.3188 9.0249C13.8883 7.9989 13.0066 7.49854 12.0894 7.49854Z" fill="black"/>
</svg>
