<svg width="24" height="24" viewBox="0 0 24 24" fill="none" xmlns="http://www.w3.org/2000/svg">
<path d="M11.7656 2.99992C11.3232 3.00285 10.4619 3.07316 9.49219 3.49211C8.50488 3.91691 7.43555 4.73429 6.77344 6.18742C6.25195 7.33293 6.41016 8.76261 6.49219 9.93742C6.37207 9.91398 6.27246 9.9257 6.09375 9.84367C5.9209 9.76457 5.74805 9.72648 5.57813 9.72648C5.27344 9.72648 5.0127 9.80851 4.75781 9.96086C4.50293 10.1132 4.20703 10.3593 4.125 10.7812C4.0752 11.0448 4.15137 11.4374 4.38281 11.7187C4.61426 11.9999 4.95703 12.1991 5.41406 12.3749C5.52246 12.4159 5.60449 12.4628 5.69531 12.4921C5.88867 12.5507 6.09961 12.6093 6.23438 12.6796C6.36914 12.7499 6.38965 12.8056 6.375 12.7734C6.37207 12.7997 6.35449 12.8642 6.30469 12.9609C6.2959 12.9696 6.29004 12.9755 6.28125 12.9843C6.26074 13.0282 5.2002 15.3339 3.04688 15.6796C2.58106 15.7528 2.22363 16.1806 2.25 16.664C2.25879 16.7958 2.2998 16.913 2.34375 17.0155C2.51074 17.3993 2.8418 17.6454 3.28125 17.8359C3.63574 17.9882 4.2041 18.0966 4.82813 18.2109C4.83984 18.2519 4.83984 18.2489 4.85156 18.3046C4.88086 18.4364 4.91602 18.6034 4.96875 18.7734C5.03613 18.996 5.21777 19.2392 5.4375 19.3593C5.65723 19.4794 5.84766 19.4765 5.95313 19.4765C6.17871 19.4765 6.31934 19.4355 6.46875 19.4062C6.71484 19.3593 6.98145 19.3124 7.33594 19.3124C7.53223 19.3124 7.75781 19.3241 7.96875 19.3593C8.26172 19.4062 8.58984 19.6288 9.04688 19.9452C9.70898 20.4023 10.5938 20.9999 11.8828 20.9999C11.8975 20.9999 11.915 20.9999 11.9297 20.9999C11.9678 20.9999 12.0176 21.0028 12.0469 20.9999C12.0703 20.9999 12.0938 20.9999 12.1172 20.9999C13.4062 20.9999 14.2881 20.4023 14.9531 19.9452C15.4102 19.6318 15.7617 19.4062 16.0547 19.3593C16.2656 19.3241 16.4678 19.3124 16.6641 19.3124C17.0127 19.3124 17.2617 19.3564 17.5313 19.4062C17.7188 19.4413 17.8682 19.4765 18.0469 19.4765H18.0703C18.2432 19.4765 18.4834 19.4296 18.6797 19.289C18.876 19.1484 18.9814 18.9198 19.0312 18.7499C19.0811 18.5829 19.1162 18.4423 19.1484 18.3046C19.1602 18.246 19.1602 18.2519 19.1719 18.2109C19.7959 18.0966 20.3643 17.9882 20.7188 17.8359C21.1582 17.6454 21.4893 17.3993 21.6562 17.0155C21.7002 16.9101 21.7412 16.7929 21.75 16.664C21.7764 16.1894 21.4336 15.7558 20.9766 15.6796C20.9678 15.6796 20.9619 15.6796 20.9531 15.6796C19.875 15.5068 19.0869 14.8798 18.5391 14.2499C17.9912 13.62 17.7158 12.9989 17.7188 13.0077C17.7129 12.9989 17.6953 12.9609 17.6953 12.9609C17.6455 12.8642 17.6279 12.7997 17.625 12.7734C17.6104 12.8056 17.6309 12.7499 17.7656 12.6796C17.9004 12.6093 18.1113 12.5507 18.3047 12.4921C18.4014 12.4628 18.501 12.4159 18.6094 12.3749C19.0107 12.2196 19.2949 12.0673 19.5234 11.8359C19.752 11.6044 19.9043 11.2587 19.8984 10.9687C19.8867 10.3476 19.4297 10.0048 18.9844 9.84367C18.9814 9.84367 18.9873 9.82023 18.9844 9.82023C18.9756 9.8173 18.9697 9.82316 18.9609 9.82023C18.7734 9.74699 18.5947 9.72648 18.3984 9.72648C18.2637 9.72648 18.0645 9.72941 17.8125 9.84367C17.6836 9.90226 17.6074 9.88761 17.5078 9.91398C17.5898 8.74504 17.748 7.32707 17.2266 6.18742C16.5645 4.73429 15.498 3.8964 14.5078 3.46867C13.5176 3.04093 12.6211 2.99992 12.1875 2.99992H12.1406C12.1406 2.99992 12.0557 2.99992 11.9766 2.99992C11.9385 2.99992 11.8916 2.99992 11.8594 2.99992C11.8418 2.99992 11.8184 2.99992 11.8125 2.99992C11.8066 2.99992 11.833 2.99406 11.7656 2.99992ZM11.8125 4.49992C11.8359 4.49992 11.8594 4.49992 11.8828 4.49992C11.9121 4.49992 11.9619 4.49992 12 4.49992C12.0762 4.49992 12.1406 4.49992 12.1406 4.49992H12.1875C12.4863 4.49992 13.1748 4.54093 13.8984 4.85148C14.6221 5.16203 15.3633 5.71867 15.8672 6.82023C16.0986 7.33 16.1104 8.80949 16.0313 10.0077L16.0078 10.0546C15.9961 10.2216 15.9932 10.3886 15.9844 10.5468C15.9727 10.7548 16.0488 10.9599 16.1953 11.1093C16.2832 11.1972 16.626 11.3554 16.9922 11.4374C16.7197 11.5927 16.4121 11.7948 16.2422 12.1874C16.0547 12.621 16.1396 13.0722 16.3125 13.4765C16.3184 13.4999 16.3271 13.5234 16.3359 13.5468C16.3389 13.5527 16.333 13.5644 16.3359 13.5702C16.3359 13.5732 16.3359 13.5907 16.3359 13.5937C16.3418 13.6025 16.3535 13.6083 16.3594 13.6171C16.418 13.7519 16.7285 14.4462 17.4141 15.2343C17.8711 15.7587 18.5537 16.248 19.3594 16.6405C19.1045 16.705 18.9902 16.7665 18.5859 16.828C18.2227 16.8837 17.9473 17.2118 17.8594 17.414C17.7773 17.5986 17.7568 17.7568 17.7188 17.9296C17.4258 17.8769 17.0977 17.8124 16.6641 17.8124C16.3828 17.8124 16.0811 17.8359 15.7969 17.8827C15.0732 17.9999 14.5635 18.3896 14.1094 18.703C13.4414 19.1601 12.9609 19.4999 12.1172 19.4999C12.0879 19.4999 12.0586 19.5028 12.0234 19.4999C11.9912 19.497 11.9619 19.497 11.9297 19.4999C11.915 19.4999 11.8887 19.4999 11.8828 19.4999C11.0391 19.4999 10.5527 19.1601 9.89062 18.703C9.43359 18.3896 8.92969 17.9999 8.20313 17.8827C7.91895 17.8359 7.61719 17.8124 7.33594 17.8124C6.88184 17.8124 6.55664 17.8593 6.30469 17.9062C6.27246 17.7568 6.23731 17.6103 6.16406 17.4374C6.0791 17.2382 5.81836 16.8896 5.41406 16.828C5.02149 16.7695 4.91602 16.705 4.66406 16.6405C6.63867 15.6855 7.55274 13.8398 7.64063 13.6405V13.6171C7.64063 13.6142 7.66113 13.5995 7.66406 13.5937C7.67578 13.5732 7.69043 13.5585 7.71094 13.4765L7.66406 13.453C7.83106 13.0487 7.94531 12.6152 7.75781 12.1874C7.58203 11.7831 7.2627 11.5693 6.98438 11.414C7.33301 11.3407 7.68164 11.2353 7.80469 11.1093C7.95117 10.9599 8.02734 10.7548 8.01563 10.5468C8.00684 10.371 8.00391 10.1952 7.99219 10.0077C7.91602 8.80656 7.90137 7.33 8.13281 6.82023C8.63672 5.71867 9.38086 5.16203 10.1016 4.85148C10.8223 4.54093 11.5166 4.49992 11.8125 4.49992Z" fill="black"/>
</svg>
