<svg width="24" height="24" viewBox="0 0 24 24" fill="none" xmlns="http://www.w3.org/2000/svg">
<path d="M11.25 2.25V4.92188L9.53906 3.21094L8.46094 4.28906L11.25 7.07812V10.6875L8.15625 8.83594L7.17188 5.01562L5.71875 5.39062L6.32812 7.73438L4.03125 6.35156L3.25781 7.61719L5.60156 9.02344L3.1875 9.63281L3.5625 11.0859L7.40625 10.1016L10.5703 12L7.40625 13.8984L3.5625 12.9141L3.1875 14.3672L5.60156 14.9766L3.25781 16.3828L4.03125 17.6484L6.32812 16.2656L5.71875 18.6094L7.17188 18.9844L8.15625 15.1641L11.25 13.3125V16.9219L8.46094 19.7109L9.53906 20.7891L11.25 19.0781V21.75H12.75V19.0781L14.4609 20.7891L15.5391 19.7109L12.75 16.9219V13.3125L15.8438 15.1641L16.8281 18.9844L18.2812 18.6094L17.6719 16.2656L19.9688 17.6484L20.7422 16.3828L18.3984 14.9766L20.8125 14.3672L20.4375 12.9141L16.5938 13.8984L13.4297 12L16.5938 10.1016L20.4375 11.0859L20.8125 9.63281L18.3984 9.02344L20.7422 7.61719L19.9688 6.35156L17.6719 7.73438L18.2812 5.39062L16.8281 5.01562L15.8438 8.83594L12.75 10.6875V7.07812L15.5391 4.28906L14.4609 3.21094L12.75 4.92188V2.25H11.25Z" fill="black"/>
</svg>
