<svg width="24" height="24" viewBox="0 0 24 24" fill="none" xmlns="http://www.w3.org/2000/svg">
<path d="M7.875 4.5C6.87305 4.5 5.99414 5.17676 5.71875 6.14062L4.73438 9.53906L3.23438 9.04688L2.76562 10.4531L3.86719 10.8281L3.65625 11.0391C3.23438 11.4609 3 12.0117 3 12.6094V14.25H2.39062L2.27344 14.8594L1.52344 18.6094L1.33594 19.5H22.6641L22.4766 18.6094L21.7266 14.8594L21.6094 14.25H21V12.6094C21 12.0117 20.7656 11.4609 20.3438 11.0391L20.1328 10.8281L21.2344 10.4531L20.7656 9.04688L19.2656 9.53906L18.2812 6.14062C18.0059 5.17676 17.127 4.5 16.125 4.5H7.875ZM7.875 6H16.125C16.4619 6 16.7344 6.21387 16.8281 6.53906L17.7422 9.75H6.25781L7.17188 6.53906C7.26562 6.21387 7.53809 6 7.875 6ZM5.57812 11.25H18.4219L19.2891 12.0938C19.4297 12.2344 19.5 12.4102 19.5 12.6094V14.25H18V12.75H15V14.25H9V12.75H6V14.25H4.5V12.6094C4.5 12.4102 4.57031 12.2344 4.71094 12.0938L5.57812 11.25ZM3.60938 15.75H20.3906L20.8359 18H3.16406L3.60938 15.75Z" fill="black"/>
</svg>
