<svg width="24" height="24" viewBox="0 0 24 24" fill="none" xmlns="http://www.w3.org/2000/svg">
<path d="M7.45311 1.5L7.24217 2.22656L3.91405 13.8984V13.9219C3.38963 15.6621 4.18358 17.5371 5.81249 18.3516L5.83592 18.375H5.85936L14.8125 22.1016C14.8271 22.1104 14.8447 22.1162 14.8594 22.125C15.3808 22.377 15.9521 22.5 16.5 22.5C17.8769 22.5 19.1953 21.7441 19.8515 20.4375C20.7715 18.5918 20.0332 16.3213 18.1875 15.3984L18.1406 15.375H18.1172L17.625 15.1641C17.6191 15.167 17.6074 15.1611 17.6015 15.1641L12.3515 13.0781L14.789 4.45312L14.9765 3.75L8.17967 1.71094L7.45311 1.5ZM8.48436 3.35156L13.1484 4.75781L12.75 6.16406L8.08592 4.75781L8.48436 3.35156ZM7.66405 6.21094L12.3281 7.61719L10.7109 13.3125L10.5469 13.9688L11.1562 14.2266L16.2422 16.2422C15.1787 17.2998 14.4668 18.7031 14.2969 20.2734L8.76561 17.9531C8.91796 17.499 8.99999 17.0039 8.99999 16.5C8.99999 14.5254 7.70799 12.8613 5.92967 12.2578L7.66405 6.21094ZM5.53124 13.6875C6.67967 14.1035 7.49999 15.1963 7.49999 16.5C7.49999 16.8047 7.44432 17.0889 7.35936 17.3672L6.49217 17.0156C5.50487 16.5205 5.01854 15.4014 5.34374 14.3438V14.3203L5.53124 13.6875ZM17.7422 16.875C18.6855 17.4961 19.0342 18.7207 18.5156 19.7578C18.1172 20.5518 17.3232 21 16.5 21C16.251 21 15.9961 20.9443 15.75 20.8594C15.791 19.2422 16.5615 17.8096 17.7422 16.875Z" fill="black"/>
</svg>
