<svg width="24" height="24" viewBox="0 0 24 24" fill="none" xmlns="http://www.w3.org/2000/svg">
<path d="M6.44238 3.75L6.32959 4.33447C6.32959 4.33447 6.20314 4.76959 5.91064 5.20459C5.61064 5.63959 5.235 6 4.5 6V7.5C5.535 7.5 6.24 6.98988 6.75 6.44238V11.25H8.25V3.75H6.44238ZM17.25 4.125L16.7095 4.64209L13.5 7.875L14.5576 8.93262L16.5 6.98291V21H18V6.98291L19.9424 8.93262L21 7.875L17.7905 4.64209L17.25 4.125ZM6.375 12.75C4.935 12.75 3.75 13.935 3.75 15.375V15.75H5.25V15.375C5.25 14.715 5.715 14.25 6.375 14.25H7.125C7.785 14.25 8.25 14.715 8.25 15.375C8.25 15.72 7.98791 16.1099 7.54541 16.3799C6.62291 16.9499 5.81238 17.3174 5.12988 17.6924C4.79238 17.8874 4.48436 18.068 4.21436 18.353C3.95186 18.638 3.75 19.065 3.75 19.5V20.25H9.75V18.75H6.32959C6.87709 18.465 7.51436 18.1804 8.33936 17.6704C9.10436 17.1979 9.75 16.38 9.75 15.375C9.75 13.935 8.565 12.75 7.125 12.75H6.375Z" fill="black"/>
</svg>
