<svg width="24" height="24" viewBox="0 0 24 24" fill="none" xmlns="http://www.w3.org/2000/svg">
<path d="M3.75 3.75V5.25H7.92041L3.95947 9.20947L3.75 9.44238V11.25H9.75V9.75H5.57959L9.54053 5.79053L9.75 5.55762V3.75H3.75ZM17.25 4.125L16.7095 4.64209L13.5 7.875L14.5576 8.93262L16.5 6.98291V21H18V6.98291L19.9424 8.93262L21 7.875L17.7905 4.64209L17.25 4.125ZM6.14209 12.75L5.97803 13.2451L4.52197 17.25H4.5V17.2954L3.79541 19.2451L3.75 19.3579V20.25H5.25V19.6201L5.55762 18.75H7.94238L8.25 19.6201V20.25H9.75V19.3579L9.70459 19.2451L9 17.2954V17.25H8.97803L7.52197 13.2451L7.35791 12.75H6.14209ZM6.75 15.4951L7.37988 17.25H6.12012L6.75 15.4951Z" fill="black"/>
</svg>
