<svg width="24" height="24" viewBox="0 0 24 24" fill="none" xmlns="http://www.w3.org/2000/svg">
<path d="M6.44531 3.75L6.32812 4.33594C6.32812 4.33594 6.20508 4.7666 5.90625 5.20312C5.60742 5.63965 5.23535 6 4.5 6V7.5C5.53125 7.5 6.24023 6.99316 6.75 6.44531V11.25H8.25V3.75H6.44531ZM16.5 3.75V17.7656L14.5547 15.8203L13.5 16.875L16.7109 20.1094L17.25 20.625L17.7891 20.1094L21 16.875L19.9453 15.8203L18 17.7656V3.75H16.5ZM6.375 12.75C4.93359 12.75 3.75 13.9336 3.75 15.375V15.75H5.25V15.375C5.25 14.7188 5.71875 14.25 6.375 14.25H7.125C7.78125 14.25 8.25 14.7188 8.25 15.375C8.25 15.7178 7.98633 16.1104 7.54688 16.3828C6.62109 16.9512 5.80957 17.3145 5.13281 17.6953C4.79297 17.8857 4.48242 18.0674 4.21875 18.3516C3.95508 18.6357 3.75 19.0635 3.75 19.5V20.25H9.75V18.75H6.32812C6.87891 18.4658 7.51465 18.1816 8.34375 17.6719C9.10547 17.1943 9.75 16.3828 9.75 15.375C9.75 13.9336 8.56641 12.75 7.125 12.75H6.375Z" fill="black"/>
</svg>
