<svg width="24" height="24" viewBox="0 0 24 24" fill="none" xmlns="http://www.w3.org/2000/svg">
<path d="M6.14062 3.75L5.97656 4.24219L4.52344 8.25H4.5V8.29688L3.79688 10.2422L3.75 10.3594V11.25H5.25V10.6172L5.55469 9.75H7.94531L8.25 10.6172V11.25H9.75V10.3594L9.70312 10.2422L9 8.29688V8.25H8.97656L7.52344 4.24219L7.35938 3.75H6.14062ZM16.5 3.75V17.7656L14.5547 15.8203L13.5 16.875L16.7109 20.1094L17.25 20.625L17.7891 20.1094L21 16.875L19.9453 15.8203L18 17.7656V3.75H16.5ZM6.75 6.49219L7.38281 8.25H6.11719L6.75 6.49219ZM3.75 12.75V14.25H7.92188L3.96094 18.2109L3.75 18.4453V20.25H9.75V18.75H5.57812L9.53906 14.7891L9.75 14.5547V12.75H3.75Z" fill="black"/>
</svg>
