<svg width="24" height="24" viewBox="0 0 24 24" fill="none" xmlns="http://www.w3.org/2000/svg">
<path d="M6.375 3.75C4.935 3.75 3.75 4.935 3.75 6.375V6.75H5.25V6.375C5.25 5.715 5.715 5.25 6.375 5.25H7.125C7.785 5.25 8.25 5.715 8.25 6.375C8.25 6.72 7.98791 7.10988 7.54541 7.37988C6.62291 7.94988 5.81238 8.31738 5.12988 8.69238C4.79238 8.88738 4.48436 9.06803 4.21436 9.35303C3.95186 9.63803 3.75 10.065 3.75 10.5V11.25H9.75V9.75H6.32959C6.87709 9.465 7.51436 9.18041 8.33936 8.67041C9.10436 8.19791 9.75 7.38 9.75 6.375C9.75 4.935 8.565 3.75 7.125 3.75H6.375ZM17.25 4.125L16.7095 4.64209L13.5 7.875L14.5576 8.93262L16.5 6.98291V21H18V6.98291L19.9424 8.93262L21 7.875L17.7905 4.64209L17.25 4.125ZM6.44238 12.75L6.32959 13.3345C6.32959 13.3345 6.20314 13.7696 5.91064 14.2046C5.61064 14.6396 5.235 15 4.5 15V16.5C5.535 16.5 6.24 15.9899 6.75 15.4424V20.25H8.25V12.75H6.44238Z" fill="black"/>
</svg>
