<svg width="24" height="24" viewBox="0 0 24 24" fill="none" xmlns="http://www.w3.org/2000/svg">
<path d="M6.14209 3.75L5.97803 4.24512L4.52197 8.25H4.5V8.29541L3.79541 10.2451L3.75 10.3579V11.25H5.25V10.6201L5.55762 9.75H7.94238L8.25 10.6201V11.25H9.75V10.3579L9.70459 10.2451L9 8.29541V8.25H8.97803L7.52197 4.24512L7.35791 3.75H6.14209ZM17.25 4.125L16.7095 4.64209L13.5 7.875L14.5576 8.93262L16.5 6.98291V21H18V6.98291L19.9424 8.93262L21 7.875L17.7905 4.64209L17.25 4.125ZM6.75 6.49512L7.37988 8.25H6.12012L6.75 6.49512ZM3.75 12.75V14.25H7.92041L3.95947 18.2095L3.75 18.4424V20.25H9.75V18.75H5.57959L9.54053 14.7905L9.75 14.5576V12.75H3.75Z" fill="black"/>
</svg>
