<svg width="24" height="24" viewBox="0 0 24 24" fill="none" xmlns="http://www.w3.org/2000/svg">
<path d="M14.7188 6.78809C14.0537 6.78809 13.4033 6.91992 12.832 7.14258C12.6094 7.22754 12.5479 7.31543 12.5479 7.48828V16.8574C12.5479 17.0391 12.6885 17.1797 12.8643 17.1973H21.0469C22.6787 17.1973 24 15.8906 24 14.2588C24 12.6299 22.6787 11.3057 21.0469 11.3057C20.6426 11.3057 20.2588 11.3877 19.9072 11.5371C19.6729 8.87695 17.4404 6.78809 14.7188 6.78809ZM11.9443 7.47949C11.8652 7.47949 11.7949 7.50879 11.7393 7.55566C11.666 7.61426 11.6191 7.70508 11.6191 7.80469V7.83691L11.4844 14.4551L11.5518 15.6768L11.6191 16.8691C11.6221 17.0449 11.7656 17.1914 11.9443 17.1914C12.1201 17.1914 12.2666 17.0449 12.2695 16.8662L12.4131 14.4551L12.2695 7.80469C12.2666 7.6875 12.2021 7.58496 12.1084 7.52637C12.0586 7.49707 12.0029 7.47949 11.9443 7.47949ZM10.9365 8.05371C10.875 8.05371 10.8193 8.07129 10.7725 8.10352C10.6875 8.15625 10.6318 8.25 10.6318 8.3584V8.41406L10.5176 14.4521C10.5176 14.4551 10.6318 16.9043 10.6318 16.9043V16.9131C10.6348 16.9834 10.6611 17.0449 10.7021 17.0947C10.7607 17.1621 10.8428 17.2061 10.9365 17.2061C11.0186 17.2061 11.0947 17.1709 11.1504 17.1152C11.2031 17.0596 11.2383 16.9863 11.2412 16.9014L11.2529 16.6582L11.3701 14.4521L11.2412 8.35547C11.2383 8.25293 11.1826 8.15918 11.1035 8.10645C11.0537 8.07129 10.998 8.05371 10.9365 8.05371ZM7.92188 8.75391C7.79004 8.75391 7.68164 8.85938 7.67871 8.99414L7.52637 14.4521L7.67871 16.957C7.68164 17.0918 7.79004 17.1973 7.92188 17.1973C8.05371 17.1973 8.15918 17.0918 8.16504 16.957L8.33496 14.4521L8.16504 8.99414C8.15918 8.85937 8.05371 8.75391 7.92188 8.75391ZM8.91797 8.87402C8.77441 8.87402 8.65723 8.98828 8.6543 9.13477L8.51367 14.4521L8.6543 16.9336C8.65723 17.0801 8.77441 17.1943 8.91797 17.1943C9.06152 17.1943 9.17578 17.0801 9.18164 16.9336L9.33691 14.4521L9.18164 9.13477C9.17871 8.98828 9.06152 8.87402 8.91797 8.87402ZM6.93164 8.95312C6.81152 8.95312 6.71484 9.0498 6.70898 9.17285L6.54492 14.4521L6.70898 16.9746C6.71484 17.0977 6.81152 17.1943 6.93164 17.1943C7.05176 17.1943 7.14844 17.0977 7.1543 16.9717L7.33887 14.4521L7.1543 9.17285C7.14844 9.0498 7.05176 8.95312 6.93164 8.95312ZM9.92285 9.04688C9.76758 9.04688 9.6416 9.16992 9.63867 9.32812L9.5127 14.4521L9.63867 16.9189C9.6416 17.0742 9.76465 17.2002 9.92285 17.2002C10.0781 17.2002 10.2041 17.0742 10.207 16.916L10.3506 14.4521L10.207 9.32812C10.2041 9.16992 10.0781 9.04688 9.92285 9.04688ZM5.93555 9.39258C5.82715 9.39258 5.73633 9.48047 5.7334 9.5918L5.55762 14.4639L5.7334 17.0127C5.73633 17.124 5.82715 17.2119 5.93555 17.2119C6.04395 17.2119 6.13184 17.124 6.1377 17.0127L6.33691 14.4668L6.1377 9.5918C6.13184 9.48047 6.04395 9.39258 5.93555 9.39258ZM4.97754 10.3066C4.88086 10.3066 4.79883 10.3857 4.7959 10.4854L4.6084 14.4521L4.7959 17.0127C4.80176 17.1123 4.88086 17.1943 4.97754 17.1943C5.07422 17.1943 5.15332 17.1123 5.15918 17.0127L5.37012 14.4521L5.15918 10.4854C5.15332 10.3857 5.07422 10.3066 4.97754 10.3066ZM3.05273 11.6836C2.97949 11.6836 2.91797 11.7422 2.91211 11.8242L2.70117 14.4492L2.91211 16.9922C2.91797 17.0713 2.97949 17.1299 3.05273 17.1299C3.12598 17.1299 3.1875 17.0713 3.19336 16.9922L3.43359 14.4492L3.19336 11.8213C3.1875 11.7422 3.12598 11.6836 3.05273 11.6836ZM2.10352 11.7744C2.03906 11.7744 1.98926 11.8242 1.9834 11.8916L1.75781 14.4492L1.9834 16.9131C1.98926 16.9805 2.03906 17.0303 2.10352 17.0303C2.16504 17.0303 2.21484 16.9805 2.22363 16.9131L2.47559 14.4492L2.22363 11.8916C2.21484 11.8242 2.16504 11.7744 2.10352 11.7744ZM4.01074 11.8535C3.92578 11.8535 3.85547 11.9209 3.84961 12.0117L3.65039 14.4492L3.84961 17.0127C3.85547 17.1035 3.92578 17.1709 4.01074 17.1709C4.0957 17.1709 4.16602 17.1035 4.17188 17.0127L4.39746 14.4492L4.17188 12.0117C4.16602 11.9209 4.0957 11.8535 4.01074 11.8535ZM1.16016 12.1963C1.10742 12.1963 1.06641 12.2373 1.05762 12.293L0.823242 14.4492L1.05762 16.5557C1.06641 16.6143 1.10742 16.6553 1.16016 16.6553C1.20996 16.6553 1.25098 16.6143 1.25977 16.5586L1.52637 14.4492L1.25977 12.293C1.25098 12.2373 1.20996 12.1963 1.16016 12.1963ZM0.272461 13.0225C0.222656 13.0225 0.181641 13.0605 0.175781 13.1162L0 14.4492L0.175781 15.7588C0.181641 15.8145 0.222656 15.8525 0.272461 15.8525C0.319336 15.8525 0.360352 15.8145 0.366211 15.7617L0.574219 14.4492L0.366211 13.1162C0.360352 13.0605 0.319336 13.0225 0.272461 13.0225Z" fill="black"/>
</svg>
