<svg width="24" height="24" viewBox="0 0 24 24" fill="none" xmlns="http://www.w3.org/2000/svg">
<path d="M12 3C7.8645 3 4.5 6.3645 4.5 10.5C4.5 13.4873 6.28725 16.1829 9 17.3672V21H15V17.3672C17.7128 16.1829 19.5 13.4873 19.5 10.5C19.5 6.3645 16.1355 3 12 3ZM12 4.5C15.3082 4.5 18 7.19175 18 10.5C18 13.0328 16.392 15.3031 13.9995 16.1514L13.5 16.3271V19.5H10.5V16.3271L10.0005 16.1499C7.60799 15.3024 6 13.0328 6 10.5C6 7.19175 8.69175 4.5 12 4.5ZM12 7.5C10.3455 7.5 9 8.8455 9 10.5C9 12.1545 10.3455 13.5 12 13.5C13.6545 13.5 15 12.1545 15 10.5C15 8.8455 13.6545 7.5 12 7.5ZM12 9C12.8273 9 13.5 9.67275 13.5 10.5C13.5 11.3273 12.8273 12 12 12C11.1727 12 10.5 11.3273 10.5 10.5C10.5 9.67275 11.1727 9 12 9Z" fill="black"/>
</svg>
