<svg width="24" height="24" viewBox="0 0 24 24" fill="none" xmlns="http://www.w3.org/2000/svg">
<path d="M12 3C9.81445 3 8.05078 4.7373 7.92188 6.89063C5.98535 6.50977 3.97852 7.51758 3.25781 9.42188C2.50781 11.4023 3.45117 13.5674 5.29688 14.5078C4.06934 16.2363 4.32715 18.6533 5.97656 20.0391C7.71387 21.501 10.3301 21.2607 11.7891 19.5234C11.8799 19.415 11.9033 19.2686 11.9766 19.1484C12.0557 19.2773 12.0879 19.4297 12.1875 19.5469C13.6494 21.2842 16.2627 21.5244 18 20.0625C19.6523 18.6709 19.8926 16.2598 18.6562 14.5313C20.5342 13.6025 21.498 11.417 20.7422 9.42188C20.0215 7.51758 18.0117 6.50977 16.0781 6.89063C15.9492 4.7373 14.1855 3 12 3ZM12 4.5C13.459 4.5 14.625 5.66602 14.625 7.125C14.625 7.24219 14.5752 7.45313 14.4844 7.71094C14.4814 7.71973 14.4873 7.72559 14.4844 7.73438L12.2578 10.8984C12.4922 10.125 12.75 9.24609 12.75 9C12.75 8.58691 12.4131 8.25 12 8.25C11.5869 8.25 11.25 8.58691 11.25 9C11.25 9.23731 11.4551 10.0693 11.6484 10.8281L9.46875 7.54688C9.41895 7.37402 9.375 7.21875 9.375 7.125C9.375 5.66602 10.541 4.5 12 4.5ZM7.03125 8.25C7.37402 8.23828 7.72266 8.28516 8.0625 8.41406C8.12109 8.43457 8.21777 8.51367 8.34375 8.60156C8.35254 8.60742 8.3584 8.5957 8.36719 8.60156L10.4531 11.7656C9.79688 11.3203 9.06445 10.8398 8.83594 10.7578C8.44629 10.6172 8.01563 10.8135 7.875 11.2031C7.73438 11.5928 7.93066 12.0234 8.32031 12.1641C8.5459 12.2461 9.4248 12.3076 10.2188 12.3516L6.42188 13.4063C6.3252 13.3887 6.24316 13.3564 6.1875 13.3359C4.82227 12.8203 4.14551 11.3027 4.66406 9.9375C5.05078 8.91504 6.00586 8.28516 7.03125 8.25ZM16.9688 8.25C17.9941 8.28516 18.9492 8.91504 19.3359 9.9375C19.8516 11.2998 19.1777 12.8203 17.8125 13.3359C17.7188 13.3711 17.5312 13.415 17.3203 13.4297L13.6641 12.3516C14.4814 12.3076 15.4395 12.252 15.6797 12.1641C16.0693 12.0234 16.2656 11.5928 16.125 11.2031C15.9844 10.8135 15.5537 10.6172 15.1641 10.7578C14.915 10.8457 14.1006 11.3789 13.4297 11.8359L15.7031 8.55469C15.7969 8.49024 15.8906 8.43164 15.9375 8.41406C16.2773 8.28516 16.626 8.23828 16.9688 8.25ZM10.7344 13.7813C10.0664 14.2471 9.24609 14.8213 9.07031 15.0234C8.80078 15.3369 8.85059 15.832 9.16406 16.1016C9.48047 16.3711 9.94922 16.3213 10.2188 16.0078C10.4209 15.7734 10.9424 14.5869 11.25 13.875V16.6406C11.1123 17.54 10.8398 18.3252 10.6406 18.5625C9.70312 19.6787 8.05371 19.8311 6.9375 18.8906C5.82129 17.9531 5.66895 16.3037 6.60938 15.1875C6.68848 15.0938 6.87012 14.9531 7.10156 14.8125L7.19531 14.7656L10.7344 13.7813ZM13.3359 13.8281L16.9219 14.8594C17.1299 14.9912 17.2939 15.123 17.3672 15.2109C18.3047 16.3271 18.1553 17.9736 17.0391 18.9141C15.9229 19.8516 14.2764 19.7022 13.3359 18.5859C13.1455 18.3604 12.8906 17.6279 12.75 16.7813V13.875C13.0576 14.5869 13.5791 15.7734 13.7812 16.0078C14.0508 16.3213 14.5225 16.3711 14.8359 16.1016C15.1494 15.832 15.1992 15.3369 14.9297 15.0234C14.7627 14.8301 13.998 14.291 13.3359 13.8281Z" fill="black"/>
</svg>
