<svg width="24" height="24" viewBox="0 0 24 24" fill="none" xmlns="http://www.w3.org/2000/svg">
<g clip-path="url(#clip0_201_35056)">
<path d="M1.5 3V7.5H0V9.75H0.75V14.25H0V16.5H1.5V21H4.92188C6.76465 21 8.54004 20.2646 9.84375 18.9609L13.1016 15.7266L19.125 15.2109C21.0557 15.0498 22.8076 14.0332 23.8828 12.4219L24.1406 12L23.8828 11.5781C22.8076 9.9668 21.0557 8.9502 19.125 8.78906L13.1016 8.27344L9.96094 5.13281L9.84375 5.03906C8.54004 3.73535 6.76465 3 4.92188 3H1.5ZM3 4.5H4.92188C6.36914 4.5 7.7666 5.07129 8.78906 6.09375L10.9219 8.25H7.5V9.75H12.75L18.9844 10.2656C20.25 10.3711 21.3486 11.0537 22.1719 12C21.3486 12.9463 20.25 13.6289 18.9844 13.7344L12.6797 14.25H7.5V15.75H10.9219L8.78906 17.9062C7.7666 18.9287 6.36914 19.5 4.92188 19.5H3V14.25H2.25V9.75H3V4.5ZM18 11.25V12.75H19.5V11.25H18ZM4.5 15.75V18H6V15.75H4.5Z" fill="black"/>
</g>
<defs>
<clipPath id="clip0_201_35056">
<rect width="24" height="24" fill="white"/>
</clipPath>
</defs>
</svg>
