<svg width="24" height="24" viewBox="0 0 24 24" fill="none" xmlns="http://www.w3.org/2000/svg">
<path d="M6 6C3.93225 6 2.25 7.68225 2.25 9.75C2.25 11.8177 3.93225 13.5 6 13.5H10.5C10.9132 13.5 11.25 13.836 11.25 14.25C11.25 14.664 10.9132 15 10.5 15H3.75C2.922 15 2.25 15.672 2.25 16.5C2.25 17.328 2.922 18 3.75 18H10.5C12.5677 18 14.25 16.3177 14.25 14.25C14.25 12.1823 12.5677 10.5 10.5 10.5H6C5.58675 10.5 5.25 10.164 5.25 9.75C5.25 9.336 5.58675 9 6 9H11.25C12.078 9 12.75 8.328 12.75 7.5C12.75 6.672 12.078 6 11.25 6H6ZM13.834 6C14.092 6.4425 14.25 6.951 14.25 7.5C14.25 8.0505 14.0876 8.55675 13.8296 9H18C18.414 9 18.75 9.336 18.75 9.75V14.25C18.75 14.664 18.414 15 18 15H15.6899C15.5219 16.167 14.9728 17.2118 14.1665 18H18.75C20.4067 18 21.75 16.6567 21.75 15V9C21.75 7.34325 20.4067 6 18.75 6H13.834Z" fill="black"/>
</svg>
