<svg width="24" height="24" viewBox="0 0 24 24" fill="none" xmlns="http://www.w3.org/2000/svg">
<path d="M11.5459 2.25C6.4204 2.25 2.25 6.44102 2.25 11.5928C2.25 16.6478 5.99998 21.75 14.376 21.75C16.4857 21.75 19.3273 20.9408 19.4473 20.9062L21 20.4609L19.7139 19.478C19.2451 19.1195 18.7119 18.6726 18.1494 18.1626C19.8707 16.4241 20.8418 14.0768 20.8418 11.5928C20.8418 6.44102 16.6714 2.25 11.5459 2.25ZM11.5459 3.75C15.8449 3.75 19.3418 7.26827 19.3418 11.5928C19.3418 13.677 18.541 15.6349 17.0845 17.1064L15.9814 18.2212L17.1431 19.2729C17.3418 19.4529 17.537 19.6265 17.7275 19.7915C16.7638 20.0075 15.441 20.25 14.376 20.25C6.53323 20.25 3.75 15.5865 3.75 11.5928C3.75 7.26827 7.2469 3.75 11.5459 3.75ZM12.1846 6.75146C10.2496 6.71321 8.63889 7.79741 8.60889 9.70166C8.60139 10.1232 8.61662 11.0636 9.69287 11.7334C10.9656 12.5231 12.8926 12.5241 12.8701 13.6611C12.8551 14.4516 11.8993 14.6164 11.4478 14.6089C11.3345 14.6089 10.3253 14.5947 9.68555 13.6992L8.21045 15.2725C9.2492 16.2737 10.3864 16.4835 11.2969 16.4985C11.6734 16.506 14.8581 16.5067 14.9106 13.5029C14.9181 12.9157 14.8343 12.0359 13.8413 11.4111C12.5768 10.6131 10.7031 10.688 10.7256 9.57422C10.7406 8.71547 11.8691 8.63215 12.1099 8.63965C12.1249 8.63965 13.0961 8.64754 13.5776 9.27979L15.0015 7.7666C14.6475 7.4351 13.8181 6.77396 12.1846 6.75146Z" fill="black"/>
</svg>
