<svg width="24" height="24" viewBox="0 0 24 24" fill="none" xmlns="http://www.w3.org/2000/svg">
<path d="M5.49902 3.75L2.25 13.5H3.83057L4.58057 11.25H8.00098L8.75098 13.5H10.3315L7.08105 3.75H5.49902ZM11.25 3.75V7.5V9V13.5H15.75C17.4045 13.5 18.75 12.1545 18.75 10.5C18.75 9.24139 17.9687 8.16587 16.8677 7.72119C17.1058 7.32622 17.25 6.86888 17.25 6.375C17.25 4.9275 16.0725 3.75 14.625 3.75H11.25ZM12.75 5.25H14.625C15.2452 5.25 15.75 5.75475 15.75 6.375C15.75 6.99525 15.2452 7.5 14.625 7.5H12.75V5.25ZM6.2915 6.12158L7.50146 9.75H5.08154L6.2915 6.12158ZM12.75 9H14.625H15.75C16.5773 9 17.25 9.67275 17.25 10.5C17.25 11.3273 16.5773 12 15.75 12H12.75V9ZM20.8564 13.333L14.3379 19.585L11.395 16.752L10.355 17.8315L14.335 21.665L21.8936 14.417L20.8564 13.333Z" fill="black"/>
</svg>
