<svg width="24" height="24" viewBox="0 0 24 24" fill="none" xmlns="http://www.w3.org/2000/svg">
<path d="M5.25 2.25V6.35156L5.53125 6.58594L8.55469 9H6.25781L3.44531 6.89062L2.55469 8.10938L5.74219 10.5H8.41406L5.71875 12.75H2.25V14.25H6.28125L6.46875 14.0859L7.52344 13.2188C7.51758 13.3125 7.5 13.4033 7.5 13.5C7.5 13.6318 7.51172 13.7637 7.52344 13.8984L4.71094 16.7109L4.5 16.9453V21.75H6V17.5781L7.92188 15.6562C8.12695 16.2217 8.3877 16.7812 8.71875 17.2969C9.47461 18.4717 10.582 19.5 12 19.5C13.418 19.5 14.5254 18.4717 15.2812 17.2969C15.6123 16.7812 15.873 16.2217 16.0781 15.6562L18 17.5781V21.75H19.5V16.9453L19.2891 16.7109L16.4766 13.8984C16.4883 13.7637 16.5 13.6318 16.5 13.5C16.5 13.4092 16.4824 13.3301 16.4766 13.2422L17.5312 14.0859L17.7422 14.25H21.75V12.75H18.2578L15.4453 10.5H18.2578L21.4453 8.10938L20.5547 6.89062L17.7422 9H15.4453L18.4688 6.58594L18.75 6.35156V2.25H17.25V5.64844L14.9062 7.52344C14.7891 7.05762 14.5547 6.65625 14.25 6.30469V3.75H12.75V5.36719C12.5098 5.30566 12.2578 5.25 12 5.25C11.7422 5.25 11.4902 5.30566 11.25 5.36719V3.75H9.75V6.30469C9.44531 6.65625 9.21094 7.05762 9.09375 7.52344L6.75 5.64844V2.25H5.25ZM12 6.75C12.8379 6.75 13.5 7.41211 13.5 8.25C13.5 9.08789 12.8379 9.75 12 9.75C11.1621 9.75 10.5 9.08789 10.5 8.25C10.5 7.41211 11.1621 6.75 12 6.75ZM12 11.25C12.9229 11.25 13.6992 11.4727 14.2031 11.8359C14.707 12.1992 15 12.668 15 13.5C15 14.332 14.6162 15.5654 14.0156 16.5C13.415 17.4346 12.6504 18 12 18C11.3496 18 10.585 17.4346 9.98438 16.5C9.38379 15.5654 9 14.332 9 13.5C9 12.668 9.29297 12.1992 9.79688 11.8359C10.3008 11.4727 11.0771 11.25 12 11.25Z" fill="black"/>
</svg>
