<svg width="24" height="24" viewBox="0 0 24 24" fill="none" xmlns="http://www.w3.org/2000/svg">
<path d="M12 2.25C10.7578 2.25 9.75 3.25781 9.75 4.5C9.75 5.74219 10.7578 6.75 12 6.75C13.2422 6.75 14.25 5.74219 14.25 4.5C14.25 3.25781 13.2422 2.25 12 2.25ZM6.70312 4.82812C5.66895 4.82812 4.82812 5.66895 4.82812 6.70312C4.82812 7.7373 5.66895 8.57812 6.70312 8.57812C7.7373 8.57812 8.57812 7.7373 8.57812 6.70312C8.57812 5.66895 7.7373 4.82812 6.70312 4.82812ZM17.2969 5.95312C16.8838 5.95312 16.5469 6.29004 16.5469 6.70312C16.5469 7.11621 16.8838 7.45312 17.2969 7.45312C17.71 7.45312 18.0469 7.11621 18.0469 6.70312C18.0469 6.29004 17.71 5.95312 17.2969 5.95312ZM4.5 10.3125C3.56836 10.3125 2.8125 11.0684 2.8125 12C2.8125 12.9316 3.56836 13.6875 4.5 13.6875C5.43164 13.6875 6.1875 12.9316 6.1875 12C6.1875 11.0684 5.43164 10.3125 4.5 10.3125ZM19.5 11.0625C18.9814 11.0625 18.5625 11.4814 18.5625 12C18.5625 12.5186 18.9814 12.9375 19.5 12.9375C20.0186 12.9375 20.4375 12.5186 20.4375 12C20.4375 11.4814 20.0186 11.0625 19.5 11.0625ZM6.70312 15.7969C5.87402 15.7969 5.20312 16.4678 5.20312 17.2969C5.20312 18.126 5.87402 18.7969 6.70312 18.7969C7.53223 18.7969 8.20312 18.126 8.20312 17.2969C8.20312 16.4678 7.53223 15.7969 6.70312 15.7969ZM17.2969 16.1719C16.6758 16.1719 16.1719 16.6758 16.1719 17.2969C16.1719 17.918 16.6758 18.4219 17.2969 18.4219C17.918 18.4219 18.4219 17.918 18.4219 17.2969C18.4219 16.6758 17.918 16.1719 17.2969 16.1719ZM12 18.1875C11.2764 18.1875 10.6875 18.7764 10.6875 19.5C10.6875 20.2236 11.2764 20.8125 12 20.8125C12.7236 20.8125 13.3125 20.2236 13.3125 19.5C13.3125 18.7764 12.7236 18.1875 12 18.1875Z" fill="black"/>
</svg>
