<svg width="24" height="24" viewBox="0 0 24 24" fill="none" xmlns="http://www.w3.org/2000/svg">
<path d="M13.0342 3.68854C12.2486 3.69982 11.4961 4.02032 10.9482 4.61432L9.49218 6.33844C9.21993 6.63394 8.79487 6.78606 8.29687 6.75006H5.97655C4.72705 6.75006 3.66067 7.36557 3.19042 8.35406C2.80567 9.16481 2.91816 10.0687 3.53466 10.8179L5.03319 12.3575C5.23569 12.6072 5.29901 12.8156 5.11376 13.2086L4.03271 15.0997C3.62246 15.9614 3.73732 16.9233 4.34032 17.6763C5.01157 18.5133 6.15094 18.8945 7.27294 18.6373L9.43651 18.0528C9.86626 17.9545 10.3174 18.0507 10.6699 18.3267L12.5522 19.6817C13.0705 20.0897 13.7025 20.2999 14.3452 20.2999C14.7532 20.2999 15.1652 20.2153 15.5552 20.0421C16.4732 19.6371 17.0631 18.8337 17.1313 17.8902L17.2822 15.7999C17.3062 15.4579 17.5281 15.1433 17.9106 14.9371L19.6128 13.9C20.5375 13.4042 21.0654 12.4817 20.9927 11.4932C20.9184 10.4837 20.2401 9.6297 19.2231 9.2652L17.064 8.49029C16.6785 8.3523 16.3951 8.06404 16.3081 7.71979L15.7925 5.6778C15.5562 4.74405 14.8205 4.03654 13.8237 3.78229C13.5608 3.71573 13.296 3.68478 13.0342 3.68854ZM13.1206 5.19C13.238 5.19375 13.35 5.20973 13.4517 5.23541C13.9069 5.35091 14.2374 5.65544 14.3364 6.04694L14.852 8.08746C15.062 8.91621 15.6969 9.59415 16.5542 9.9024L18.7148 10.6773C19.1731 10.8408 19.4648 11.1883 19.4956 11.6046C19.5256 12.0058 19.3097 12.36 18.8672 12.5977L17.1665 13.6363C16.364 14.0668 15.8474 14.8349 15.7851 15.6929L15.6343 17.7818C15.5945 18.3293 15.1422 18.5862 14.9502 18.671C14.5609 18.8427 13.9706 18.8899 13.4546 18.4849L11.5723 17.1299C11.0683 16.7332 10.4305 16.5191 9.76903 16.5191C9.53878 16.5191 9.3057 16.5457 9.0747 16.5997L6.91259 17.1841C6.26009 17.3304 5.75216 17.038 5.51366 16.7403C5.37341 16.5655 5.16932 16.2035 5.36132 15.7955L6.44384 13.9058C6.88034 12.9908 6.79726 12.1526 6.15526 11.3643L4.65526 9.82184C4.39351 9.50234 4.45237 9.19738 4.54687 8.99713C4.71037 8.65288 5.1823 8.25006 5.97655 8.25006L8.23388 8.2486C9.12638 8.32135 10.0105 7.9886 10.6157 7.3316L12.0703 5.60748C12.3701 5.28292 12.7684 5.17875 13.1206 5.19Z" fill="black"/>
</svg>
