<svg width="24" height="24" viewBox="0 0 24 24" fill="none" xmlns="http://www.w3.org/2000/svg">
<path d="M14.6953 2.13281L13.4766 2.97656L17.6719 9.14062L18.8906 8.29688L14.6953 2.13281ZM11.5312 4.89844L10.5469 6.02344L16.1719 10.8984L17.1562 9.77344L11.5312 4.89844ZM9.28125 8.17969L8.60156 9.51562L15.2344 12.8906L15.9141 11.5547L9.28125 8.17969ZM7.99219 11.5781L7.66406 13.0312L14.9062 14.7422L15.2344 13.2891L7.99219 11.5781ZM4.5 13.5V21.75H18V13.5H16.5V20.25H6V13.5H4.5ZM7.57031 14.7656L7.47656 16.2656L14.9062 16.6875L15 15.1875L7.57031 14.7656ZM7.5 17.25V18.75H14.9531V17.25H7.5Z" fill="black"/>
</svg>
