<svg width="24" height="24" viewBox="0 0 24 24" fill="none" xmlns="http://www.w3.org/2000/svg">
<path d="M12 1.54688L11.3672 2.60156L8.83594 6.75H2.48438L3.16406 7.89844L5.64844 12L3.16406 16.1016L2.48438 17.25H8.83594L11.3672 21.3984L12 22.4531L12.6328 21.3984L15.1641 17.25H21.5859L20.8828 16.1016L18.375 12L20.8828 7.89844L21.5859 6.75H15.1641L12.6328 2.60156L12 1.54688ZM12 4.42969L13.4062 6.75H10.5938L12 4.42969ZM5.15625 8.25H7.94531L6.53906 10.5469L5.15625 8.25ZM9.67969 8.25H14.3438L16.6172 12L14.3438 15.75H9.67969L7.42969 12L9.67969 8.25ZM16.0781 8.25H18.9141L17.5078 10.5703L16.0781 8.25ZM17.5078 13.4297L18.9141 15.75H16.0781L17.5078 13.4297ZM6.53906 13.4531L7.94531 15.75H5.15625L6.53906 13.4531ZM10.5938 17.25H13.4062L12 19.5703L10.5938 17.25Z" fill="black"/>
</svg>
