<svg width="24" height="24" viewBox="0 0 24 24" fill="none" xmlns="http://www.w3.org/2000/svg">
<path d="M9.75 3V8.10352L5.33057 5.55176L3.08057 9.44971L7.5 12L3.08057 14.5503L5.33057 18.4482L9.75 15.8965V21H14.25V15.8965L18.6694 18.4482L20.9194 14.5503L16.5 12L20.9194 9.44971L18.6694 5.55176L14.25 8.10352V3H9.75ZM11.25 4.5H12.75V10.7021L18.1201 7.60107L18.8701 8.89893L13.5 12L18.8701 15.1011L18.1201 16.3989L12.75 13.2979V19.5H11.25V13.2979L5.87988 16.3989L5.12988 15.1011L10.5 12L5.12988 8.89893L5.87988 7.60107L11.25 10.7021V4.5Z" fill="black"/>
</svg>
