<svg width="24" height="24" viewBox="0 0 24 24" fill="none" xmlns="http://www.w3.org/2000/svg">
<path d="M10.875 3C6.1084 3 2.27344 7.05762 2.27344 12C2.27344 16.9424 6.1084 21 10.875 21C13.7754 21 15.7324 19.834 17.2031 18.4453L16.6875 17.9062L16.3125 17.25C15.4453 17.7627 14.6514 18 12.75 18C9.43066 18 6.75 15.4951 6.75 12C6.75 8.50488 9.43359 6 12.75 6C14.3613 6 15.4834 6.25488 16.2891 6.70312L16.4531 6.39844L16.5 6.35156L16.3125 6.70312C16.3271 6.71191 16.3389 6.71484 16.3594 6.72656L16.7344 6.09375L17.2734 5.55469C15.7734 4.13965 13.6318 3 10.875 3ZM10.875 4.5C11.2207 4.5 11.54 4.53223 11.8594 4.57031C8.17969 5.00098 5.25 8.03906 5.25 12C5.25 15.9697 8.19434 19.0078 11.8828 19.4297C11.5635 19.4648 11.2354 19.5 10.875 19.5C6.95801 19.5 3.77344 16.1689 3.77344 12C3.77344 7.82812 6.95801 4.5 10.875 4.5ZM19.1953 8.25L17.5781 10.5703L15.0234 9.65625L16.5938 12L15 14.2969L17.5781 13.4297L19.1719 15.75V12.8906L21.75 12L19.1719 11.1094L19.1953 8.25Z" fill="black"/>
</svg>
