<svg width="24" height="24" viewBox="0 0 24 24" fill="none" xmlns="http://www.w3.org/2000/svg">
<path d="M12.041 3.0044C11.9438 2.99034 11.8176 3.01048 11.6763 3.12598L4.62305 8.80665C4.4798 8.91915 4.45978 9.11213 4.58203 9.23438L6.0249 10.6963L11.8813 16.4839C12.0073 16.6069 12.2259 16.614 12.3691 16.4985L14.0815 15.1392L14.0713 15.1289L14.3335 14.918C14.4767 14.8055 14.4903 14.6125 14.3643 14.4902L12.416 12.583C12.293 12.46 12.0744 12.4544 11.9312 12.5669L11.9282 12.5698C11.785 12.6823 11.5701 12.6782 11.4434 12.5552L8.21631 9.33692C8.09331 9.21392 8.11114 9.02615 8.25439 8.91065L11.3994 6.40284C11.5389 6.29034 11.751 6.29817 11.874 6.42042L17.3452 11.9941C17.4712 12.1171 17.6862 12.1242 17.8257 12.0117L19.3872 10.7578C19.5275 10.6453 19.5389 10.4523 19.4121 10.3301L12.2329 3.08643C12.2074 3.06543 12.1382 3.01846 12.041 3.0044ZM11.6191 7.38575C11.5338 7.38275 11.4461 7.4086 11.376 7.46485L9.42187 8.99415C9.27862 9.10665 9.26454 9.29963 9.38379 9.42188L11.707 11.6748C11.83 11.7978 12.0443 11.8049 12.1846 11.6924L12.189 11.6895C12.3285 11.577 12.5435 11.5833 12.6665 11.7056L15.5303 14.5562C15.6533 14.6792 15.6412 14.8721 15.501 14.9839L12.3223 17.5781C12.179 17.6936 11.9642 17.6865 11.8374 17.5635L6.65625 12.3926C6.537 12.2696 6.32489 12.264 6.18164 12.3765L4.62012 13.5996C4.47687 13.7121 4.45985 13.9051 4.5791 14.0274L11.6968 20.9019C11.6968 20.9019 11.9496 21.1403 12.2871 20.874L19.04 15.1289C19.1765 15.0164 19.1895 14.8234 19.0635 14.7012L17.5532 13.2539L11.8477 7.48243C11.788 7.42093 11.7045 7.38875 11.6191 7.38575Z" fill="black"/>
</svg>
