<svg width="24" height="24" viewBox="0 0 24 24" fill="none" xmlns="http://www.w3.org/2000/svg">
<path d="M12 2.25C6.624 2.25 2.25 6.624 2.25 12C2.25 17.376 6.624 21.75 12 21.75C17.376 21.75 21.75 17.376 21.75 12C21.75 6.624 17.376 2.25 12 2.25ZM12 3.75C16.5487 3.75 20.25 7.45125 20.25 12C20.25 16.5487 16.5487 20.25 12 20.25C8.16862 20.25 4.94892 17.6207 4.02539 14.0742L6.7749 15.252C6.90146 16.3747 7.84343 17.25 9 17.25C10.2428 17.25 11.25 16.2428 11.25 15C11.25 14.976 11.2434 14.9529 11.2427 14.9297L14.376 12.7383C15.9735 12.6708 17.25 11.364 17.25 9.75C17.25 8.09325 15.9067 6.75 14.25 6.75C12.636 6.75 11.3299 8.02652 11.2632 9.62402L9.07031 12.7573C9.04631 12.7566 9.024 12.75 9 12.75C8.50252 12.75 8.04681 12.9161 7.67432 13.1895L3.7749 11.5181C4.02665 7.19396 7.61393 3.75 12 3.75ZM14.25 7.5C15.4928 7.5 16.5 8.50725 16.5 9.75C16.5 10.9928 15.4928 12 14.25 12C13.0072 12 12 10.9928 12 9.75C12 8.50725 13.0072 7.5 14.25 7.5ZM14.25 8.25C13.8522 8.25 13.4706 8.40804 13.1893 8.68934C12.908 8.97064 12.75 9.35218 12.75 9.75C12.75 10.1478 12.908 10.5294 13.1893 10.8107C13.4706 11.092 13.8522 11.25 14.25 11.25C14.6478 11.25 15.0294 11.092 15.3107 10.8107C15.592 10.5294 15.75 10.1478 15.75 9.75C15.75 9.35218 15.592 8.97064 15.3107 8.68934C15.0294 8.40804 14.6478 8.25 14.25 8.25ZM9 13.5C9.82875 13.5 10.5 14.1713 10.5 15C10.5 15.8287 9.82875 16.5 9 16.5C8.39341 16.5 7.87408 16.1389 7.6377 15.6211L8.2251 15.873C8.3691 15.9353 8.51973 15.9653 8.66748 15.9653C9.10398 15.9653 9.52012 15.7095 9.70312 15.2827C9.94763 14.712 9.68283 14.0507 9.11133 13.8062L8.56494 13.5718C8.70355 13.5295 8.84753 13.5 9 13.5Z" fill="black"/>
</svg>
