<svg width="24" height="24" viewBox="0 0 24 24" fill="none" xmlns="http://www.w3.org/2000/svg">
<path d="M16.5 4.5C14.0592 4.5 12.071 6.45314 12.0059 8.87842L9.25342 12.813C9.04945 12.7743 8.84003 12.75 8.625 12.75C7.91376 12.75 7.25523 12.9733 6.71045 13.3506L3 11.8828V15.9155L5.3291 16.8369C5.6572 18.3566 7.00872 19.5 8.625 19.5C10.2777 19.5 11.6507 18.3039 11.9385 16.7329L16.2686 13.4883C16.3456 13.4922 16.422 13.5 16.5 13.5C18.9818 13.5 21 11.4818 21 9C21 6.51825 18.9818 4.5 16.5 4.5ZM16.5 6C18.1545 6 19.5 7.3455 19.5 9C19.5 10.6545 18.1545 12 16.5 12C14.8455 12 13.5 10.6545 13.5 9C13.5 7.3455 14.8455 6 16.5 6ZM16.5 6.75C15.9033 6.75 15.331 6.98705 14.909 7.40901C14.4871 7.83097 14.25 8.40326 14.25 9C14.25 9.59674 14.4871 10.169 14.909 10.591C15.331 11.0129 15.9033 11.25 16.5 11.25C17.0967 11.25 17.669 11.0129 18.091 10.591C18.5129 10.169 18.75 9.59674 18.75 9C18.75 8.40326 18.5129 7.83097 18.091 7.40901C17.669 6.98705 17.0967 6.75 16.5 6.75ZM8.625 13.5C10.0725 13.5 11.25 14.6775 11.25 16.125C11.25 17.5725 10.0725 18.75 8.625 18.75C7.55904 18.75 6.6436 18.109 6.23291 17.1943L7.93506 17.8682C8.16156 17.9582 8.39404 18.0015 8.62354 18.0015C9.37054 18.0015 10.0772 17.5529 10.3682 16.8164C10.7499 15.8534 10.2779 14.7628 9.31494 14.3818L7.60693 13.7051C7.92009 13.5729 8.26426 13.5 8.625 13.5Z" fill="black"/>
</svg>
