<svg width="24" height="24" viewBox="0 0 24 24" fill="none" xmlns="http://www.w3.org/2000/svg">
<path d="M3.75 3.75V12L6.60938 13.1953C7.14258 12.4951 7.96582 12.0264 8.90625 12L10.5234 9.5625C10.6172 7.57617 12.2402 6 14.25 6C16.3213 6 18 7.67871 18 9.75C18 11.7598 16.4238 13.3828 14.4375 13.4766L12 15.0938C11.9531 16.7109 10.6289 18 9 18C7.3418 18 6 16.6582 6 15C6 14.8564 6.02637 14.7158 6.04688 14.5781L3.75 13.6172V20.25H20.25V3.75H3.75ZM14.25 7.5C13.0107 7.5 12 8.51074 12 9.75C12 10.9893 13.0107 12 14.25 12C15.4893 12 16.5 10.9893 16.5 9.75C16.5 8.51074 15.4893 7.5 14.25 7.5ZM14.25 8.25C15.082 8.25 15.75 8.91797 15.75 9.75C15.75 10.582 15.082 11.25 14.25 11.25C13.418 11.25 12.75 10.582 12.75 9.75C12.75 8.91797 13.418 8.25 14.25 8.25ZM9 13.5C8.66016 13.5 8.33789 13.6113 8.08594 13.8047L9.28125 14.2969C9.66504 14.4551 9.86426 14.8975 9.70312 15.2812C9.58301 15.5684 9.29297 15.75 9 15.75C8.90332 15.75 8.8125 15.7441 8.71875 15.7031L7.52344 15.1875C7.62012 15.9229 8.23828 16.5 9 16.5C9.8291 16.5 10.5 15.8291 10.5 15C10.5 14.1709 9.8291 13.5 9 13.5Z" fill="black"/>
</svg>
