<svg width="24" height="24" viewBox="0 0 24 24" fill="none" xmlns="http://www.w3.org/2000/svg">
<path d="M5.25 3C4.6582 3 4.15723 3.3457 3.91406 3.84375C2.96484 4.10742 2.25 4.97168 2.25 6V13.0312L2.4375 13.2422C2.4375 13.2422 4.2041 15.3105 6.75 15.6797V17.25C6.75 19.7256 8.77441 21.75 11.25 21.75C13.7256 21.75 15.75 19.7256 15.75 17.25V13.5C15.75 12.6621 16.4121 12 17.25 12C18.0879 12 18.75 12.6621 18.75 13.5V13.6406C17.8828 13.9541 17.25 14.7803 17.25 15.75C17.25 16.9834 18.2666 18 19.5 18C20.7334 18 21.75 16.9834 21.75 15.75C21.75 14.7803 21.1172 13.9541 20.25 13.6406V13.5C20.25 11.8506 18.8994 10.5 17.25 10.5C15.6006 10.5 14.25 11.8506 14.25 13.5V17.25C14.25 18.9141 12.9141 20.25 11.25 20.25C9.58594 20.25 8.25 18.9141 8.25 17.25V15.6797C10.7959 15.3105 12.5625 13.2422 12.5625 13.2422L12.75 13.0312V6C12.75 4.97168 12.0352 4.10742 11.0859 3.84375C10.8428 3.3457 10.3418 3 9.75 3C8.9209 3 8.25 3.6709 8.25 4.5C8.25 5.3291 8.9209 6 9.75 6C10.2422 6 10.6729 5.75977 10.9453 5.39062C11.1328 5.52539 11.25 5.74512 11.25 6V12.4219C10.9805 12.6943 9.38379 14.25 7.5 14.25C5.61621 14.25 4.01953 12.6943 3.75 12.4219V6C3.75 5.74512 3.86719 5.52539 4.05469 5.39062C4.32715 5.75977 4.75781 6 5.25 6C6.0791 6 6.75 5.3291 6.75 4.5C6.75 3.6709 6.0791 3 5.25 3ZM19.5 15C19.9219 15 20.25 15.3281 20.25 15.75C20.25 16.1719 19.9219 16.5 19.5 16.5C19.0781 16.5 18.75 16.1719 18.75 15.75C18.75 15.3281 19.0781 15 19.5 15Z" fill="black"/>
</svg>
