<svg width="24" height="24" viewBox="0 0 24 24" fill="none" xmlns="http://www.w3.org/2000/svg">
<path d="M19.6729 3.75C19.5604 3.75 19.2881 4.52416 19.1411 4.55566C18.9784 4.59616 18.2697 4.19941 16.7944 5.11816C16.0039 5.53066 14.0794 7.15569 14.0757 7.15869C13.8664 7.30569 13.4513 7.30642 12.9668 7.65967C11.5793 8.60017 9.5428 7.98882 9.5083 7.97607C6.0523 7.13832 5.5078 7.50096 4.53955 8.33496C3.8893 8.89446 3.79944 9.47578 3.78369 9.55078C3.65244 10.1883 3.94666 11.0588 3.99316 11.5591C4.04941 12.1621 3.90865 12.0772 4.2334 14.5957C4.24915 14.6272 4.36231 14.5961 4.39306 14.6426C4.39306 14.9051 4.27391 15.0198 4.26416 15.0483C4.21766 15.1886 4.21766 15.3768 4.26416 15.5493C4.33616 15.8058 4.52051 16.6833 4.52051 16.9863C4.52051 18.2921 4.53429 18.3601 4.60254 18.5288C4.72404 18.8416 4.99256 18.8131 5.13281 18.9038C5.22956 19.0133 5.11779 19.1697 5.16504 19.2949C5.18079 19.3572 5.2774 19.4209 5.3584 19.4517C5.64565 19.5642 6.20222 19.4596 6.29297 19.3726C6.34322 19.3261 6.30865 19.233 6.38965 19.2173C6.54865 19.2173 6.72685 19.2019 6.83935 19.1396C6.99835 19.0616 6.96798 18.9518 6.88623 18.8115C6.87348 18.7868 6.66708 18.3953 6.58008 18.3105C6.51483 18.2483 6.42049 18.2179 6.35449 18.1714C6.17299 18.0184 6.03369 17.565 6.03369 17.562C5.88969 16.956 5.71128 16.1444 5.90478 15.5039C6.04878 14.9662 7.13958 12.7633 7.14258 12.7603C7.27083 12.557 7.67337 12.4003 7.99512 12.5405C8.18262 12.5998 8.59782 13.1163 10.0386 13.3945C11.5356 13.666 13.0819 13.333 13.5439 13.333C13.6317 13.3953 13.4843 13.8509 13.5278 14.6602C13.5278 15.4852 13.5159 15.0885 13.4004 15.5947C13.3314 15.8977 13.5065 16.3193 13.3535 17.0596C13.31 17.3656 13.0447 17.8332 13.0972 18.167C13.1129 18.1985 13.129 18.2281 13.144 18.2754C13.1598 18.4156 13.1901 18.5416 13.2876 18.5889C13.5156 18.7014 13.6627 18.479 13.5937 18.9478C13.572 19.0445 13.5131 19.3228 13.6406 19.4165C13.7779 19.532 14.5958 19.5234 14.7803 19.4326C14.8613 19.3861 14.831 19.2919 14.981 19.2012C15.0402 19.1734 15.334 19.1881 15.334 18.9976C15.343 18.9413 15.0469 18.3765 15.0439 18.3735C14.9629 18.264 14.7569 18.2325 14.6909 18.123C14.4757 17.8073 14.638 16.7284 14.707 16.5161C14.8008 16.1726 14.8813 15.8167 14.978 15.5039C15.3215 14.1757 15.3002 13.9224 15.4937 13.3696C15.5184 13.3134 15.6944 12.6481 15.8159 12.4351C16.1062 11.9041 16.4928 11.4229 16.8618 10.9541C17.4243 10.2386 17.9238 9.48845 18.4863 8.77295C18.6768 8.55395 18.7428 8.34543 19.0488 8.52393C19.3863 8.70168 19.7246 8.7422 20.0464 9.0542C20.5024 9.45395 20.3653 9.62351 20.4155 9.77051C20.462 9.92651 20.6563 10.0986 20.8813 10.0679C21.2061 10.0056 21.2868 9.98877 21.2988 9.98877C21.3798 9.97302 21.4772 9.8335 21.5244 9.73975C21.6212 9.568 21.7485 9.45812 21.7485 9.22412C21.7493 8.98037 21.7377 9.1341 21.1069 7.56885C20.8662 6.8721 20.9475 7.34377 20.688 6.41602C20.6377 6.21277 20.5756 5.96228 20.4946 5.79053C20.3574 5.51903 20.3511 5.55616 20.3511 5.49316C20.3511 5.32741 21.3096 4.07857 20.9443 4.02832C20.7666 4.00957 20.5638 4.38984 20.3013 4.55859C20.0328 4.68984 20.051 4.71533 19.979 4.71533C19.898 4.71533 19.8014 4.62084 19.7856 4.55859C19.7219 4.38084 19.8446 3.75 19.6729 3.75Z" fill="black"/>
</svg>
