<svg width="24" height="24" viewBox="0 0 24 24" fill="none" xmlns="http://www.w3.org/2000/svg">
<path d="M12 2.25C6.6375 2.25 2.25 6.6375 2.25 12C2.25 17.3625 6.6375 21.75 12 21.75C17.3625 21.75 21.75 17.3625 21.75 12C21.75 6.6375 17.3625 2.25 12 2.25ZM12 3.75C16.5375 3.75 20.25 7.4625 20.25 12C20.25 16.5375 16.5375 20.25 12 20.25C7.4625 20.25 3.75 16.5375 3.75 12C3.75 7.4625 7.4625 3.75 12 3.75ZM8.25 8.25V10.125V13.875V15.75H10.125H13.875H15.75V13.875V10.125V8.25H13.875H10.125H8.25ZM9.75 9.75H14.25V14.25H9.75V9.75Z" fill="black"/>
</svg>
