<svg width="24" height="24" viewBox="0 0 24 24" fill="none" xmlns="http://www.w3.org/2000/svg">
<path d="M3 3V5.74219L0.75 8.74219V9C0.75 10.2334 1.7666 11.25 3 11.25V21H15V14.25H16.5V21H21V11.25C22.2334 11.25 23.25 10.2334 23.25 9V8.74219L21 5.74219V3H3ZM4.5 4.5H19.5V5.25H4.5V4.5ZM4.125 6.75H19.875L21.6797 9.16406C21.5977 9.48926 21.3516 9.75 21 9.75C20.584 9.75 20.25 9.41602 20.25 9H18.75C18.75 9.41602 18.416 9.75 18 9.75C17.584 9.75 17.25 9.41602 17.25 9H15.75C15.75 9.41602 15.416 9.75 15 9.75C14.584 9.75 14.25 9.41602 14.25 9H12.75C12.75 9.41602 12.416 9.75 12 9.75C11.584 9.75 11.25 9.41602 11.25 9H9.75C9.75 9.41602 9.41602 9.75 9 9.75C8.58398 9.75 8.25 9.41602 8.25 9H6.75C6.75 9.41602 6.41602 9.75 6 9.75C5.58398 9.75 5.25 9.41602 5.25 9H3.75C3.75 9.41602 3.41602 9.75 3 9.75C2.64844 9.75 2.40234 9.48926 2.32031 9.16406L4.125 6.75ZM4.5 10.6641C4.89844 11.0244 5.42578 11.25 6 11.25C6.57422 11.25 7.10156 11.0244 7.5 10.6641C7.89844 11.0244 8.42578 11.25 9 11.25C9.57422 11.25 10.1016 11.0244 10.5 10.6641C10.8984 11.0244 11.4258 11.25 12 11.25C12.5742 11.25 13.1016 11.0244 13.5 10.6641C13.8984 11.0244 14.4258 11.25 15 11.25C15.5742 11.25 16.1016 11.0244 16.5 10.6641C16.8984 11.0244 17.4258 11.25 18 11.25C18.5742 11.25 19.1016 11.0244 19.5 10.6641V19.5H18V12.75H13.5V19.5H4.5V10.6641ZM6 12.75V18H12V12.75H6ZM7.5 14.25H10.5V16.5H7.5V14.25Z" fill="black"/>
</svg>
