<svg width="24" height="24" viewBox="0 0 24 24" fill="none" xmlns="http://www.w3.org/2000/svg">
<path d="M3 3V5.74219L0.75 8.74219V9C0.75 10.2337 1.76625 11.25 3 11.25V21H21V11.25C22.2337 11.25 23.25 10.2337 23.25 9V8.74219L21 5.74219V3H3ZM4.5 4.5H19.5V5.25H4.5V4.5ZM4.125 6.75H19.875L21.6797 9.16406C21.5979 9.48881 21.3517 9.75 21 9.75C20.5837 9.75 20.25 9.41625 20.25 9H18.75C18.75 9.41625 18.4163 9.75 18 9.75C17.5837 9.75 17.25 9.41625 17.25 9H15.75C15.75 9.41625 15.4163 9.75 15 9.75C14.5837 9.75 14.25 9.41625 14.25 9H12.75C12.75 9.41625 12.4163 9.75 12 9.75C11.5837 9.75 11.25 9.41625 11.25 9H9.75C9.75 9.41625 9.41625 9.75 9 9.75C8.58375 9.75 8.25 9.41625 8.25 9H6.75C6.75 9.41625 6.41625 9.75 6 9.75C5.58375 9.75 5.25 9.41625 5.25 9H3.75C3.75 9.41625 3.41625 9.75 3 9.75C2.64825 9.75 2.40206 9.48881 2.32031 9.16406L4.125 6.75ZM4.5 10.6641C4.89825 11.0241 5.4255 11.25 6 11.25C6.5745 11.25 7.10175 11.0241 7.5 10.6641C7.89825 11.0241 8.4255 11.25 9 11.25C9.5745 11.25 10.1018 11.0241 10.5 10.6641C10.8982 11.0241 11.4255 11.25 12 11.25C12.5745 11.25 13.1018 11.0241 13.5 10.6641C13.8982 11.0241 14.4255 11.25 15 11.25C15.5745 11.25 16.1018 11.0241 16.5 10.6641C16.8983 11.0241 17.4255 11.25 18 11.25C18.5745 11.25 19.1017 11.0241 19.5 10.6641V15.75H4.5V10.6641ZM4.5 17.25H19.5V19.5H4.5V17.25Z" fill="black"/>
</svg>
