<svg width="24" height="24" viewBox="0 0 24 24" fill="none" xmlns="http://www.w3.org/2000/svg">
<path d="M12 3C10.3506 3 9 4.35059 9 6C9 6.83496 9.35742 7.58789 9.91406 8.13281C8.91504 8.80957 8.25 9.96094 8.25 11.25V14.7188L9.75 15.4688V18.75H14.25V15.4688L15.75 14.7188V11.25C15.75 9.96094 15.085 8.80957 14.0859 8.13281C14.6426 7.58789 15 6.83496 15 6C15 4.35059 13.6494 3 12 3ZM12 4.5C12.8379 4.5 13.5 5.16211 13.5 6C13.5 6.83789 12.8379 7.5 12 7.5C11.1621 7.5 10.5 6.83789 10.5 6C10.5 5.16211 11.1621 4.5 12 4.5ZM12 9C13.251 9 14.25 9.99902 14.25 11.25V13.7812L12.75 14.5312V17.25H11.25V14.5312L9.75 13.7812V11.25C9.75 9.99902 10.749 9 12 9ZM6.75 14.1562C4.56152 14.7686 3 15.8057 3 17.25C3 19.7109 7.52637 21 12 21C16.4736 21 21 19.7109 21 17.25C21 15.8057 19.4385 14.7686 17.25 14.1562V15.7266C18.6768 16.1865 19.5 16.7812 19.5 17.25C19.5 18.1465 16.5088 19.5 12 19.5C7.49121 19.5 4.5 18.1465 4.5 17.25C4.5 16.7812 5.32324 16.1865 6.75 15.7266V14.1562Z" fill="black"/>
</svg>
