<svg width="24" height="24" viewBox="0 0 24 24" fill="none" xmlns="http://www.w3.org/2000/svg">
<path d="M12.3867 3C8.05172 3 5.25 5.3352 5.25 8.9502C5.25 12.5299 8.46671 13.597 10.5952 14.3027C11.5522 14.62 12.7417 15.0136 12.75 15.4028C12.744 15.7036 12.0319 15.75 11.6074 15.75C10.1929 15.75 8.02377 15.1654 6.33252 14.3276L5.25 13.7915V19.6392L5.7085 19.8311C7.46875 20.5706 9.53047 20.9963 11.3657 21C15.9895 21 18.75 18.8688 18.75 15.3003C18.75 11.4063 15.4438 10.348 13.2568 9.64746C12.4573 9.39096 11.25 9.00391 11.25 8.68066C11.25 8.50891 11.2504 8.25 12.1729 8.25C13.5596 8.25 15.4892 8.82403 16.8662 9.64453L18 10.3213V4.16016L17.5225 3.97412C15.9055 3.34562 14.0825 3 12.3867 3ZM12.3867 4.5C13.736 4.5 15.1777 4.74577 16.5 5.19727V7.771C15.0855 7.14175 13.4651 6.75 12.1729 6.75C9.9866 6.75 9.75 8.10016 9.75 8.68066C9.75 10.0989 11.2316 10.5739 12.7998 11.0757C15.4061 11.9104 17.25 12.7008 17.25 15.3003C17.25 19.09 13.1349 19.5 11.3672 19.5C9.88144 19.497 8.22525 19.1826 6.75 18.6313V16.1528C8.24475 16.7506 10.0992 17.25 11.6074 17.25C13.8979 17.25 14.2478 16.0995 14.25 15.4072V15.4028V15.3984C14.244 13.9314 12.7011 13.4204 11.0669 12.8789C8.53939 12.0404 6.75 11.2684 6.75 8.9502C6.75 6.20445 8.90972 4.5 12.3867 4.5Z" fill="black"/>
</svg>
