<svg width="24" height="24" viewBox="0 0 24 24" fill="none" xmlns="http://www.w3.org/2000/svg">
<path d="M12 2.25C6.624 2.25 2.25 6.624 2.25 12C2.25 17.376 6.624 21.75 12 21.75C17.376 21.75 21.75 17.376 21.75 12C21.75 6.624 17.376 2.25 12 2.25ZM12 3.75C12.3759 3.75 12.7433 3.78456 13.106 3.8335L12 4.93945L10.894 3.8335C11.2567 3.78456 11.6241 3.75 12 3.75ZM9.19189 4.25244L10.9395 6L9 7.93945L6.7251 5.66455C7.45177 5.05846 8.28634 4.58183 9.19189 4.25244ZM14.8081 4.25244C15.7137 4.58183 16.5482 5.05846 17.2749 5.66455L15 7.93945L13.0605 6L14.8081 4.25244ZM5.66455 6.7251L7.93945 9L6 10.9395L4.25244 9.19189C4.58183 8.28634 5.05846 7.45177 5.66455 6.7251ZM18.3354 6.7251C18.9415 7.45177 19.4182 8.28634 19.7476 9.19189L18 10.9395L16.0605 9L18.3354 6.7251ZM12 7.06055L13.9395 9L12 10.9395L10.0605 9L12 7.06055ZM9 10.0605L10.9395 12L9 13.9395L7.06055 12L9 10.0605ZM15 10.0605L16.9395 12L15 13.9395L13.0605 12L15 10.0605ZM3.8335 10.894L4.93945 12L3.8335 13.106C3.78456 12.7433 3.75 12.3759 3.75 12C3.75 11.6241 3.78456 11.2567 3.8335 10.894ZM20.1665 10.894C20.2154 11.2567 20.25 11.6241 20.25 12C20.25 12.3759 20.2154 12.7433 20.1665 13.106L19.0605 12L20.1665 10.894ZM6 13.0605L7.93945 15L5.66455 17.2749C5.05846 16.5482 4.58183 15.7137 4.25244 14.8081L6 13.0605ZM12 13.0605L13.9395 15L12 16.9395L10.0605 15L12 13.0605ZM18 13.0605L19.7476 14.8081C19.4182 15.7137 18.9415 16.5482 18.3354 17.2749L16.0605 15L18 13.0605ZM9 16.0605L10.9395 18L9.19189 19.7476C8.28634 19.4182 7.45177 18.9415 6.7251 18.3354L9 16.0605ZM15 16.0605L17.2749 18.3354C16.5482 18.9415 15.7137 19.4182 14.8081 19.7476L13.0605 18L15 16.0605ZM12 19.0605L13.106 20.1665C12.7433 20.2154 12.3759 20.25 12 20.25C11.6241 20.25 11.2567 20.2154 10.894 20.1665L12 19.0605Z" fill="black"/>
</svg>
