<svg width="24" height="24" viewBox="0 0 24 24" fill="none" xmlns="http://www.w3.org/2000/svg">
<path d="M2.69238 2.25L6.55078 6.36328L2.25 5.67334L8.49609 10.355L5.37744 10.7549L12 12.75L11.25 13.5L16.1777 12.5903L15.6138 15.1963L13.4517 17.1577L10.0884 18.8789L9.30029 18.3867L9.03809 18.5962L8.25 21.3999L8.49609 21.3472L9.36475 20.2793L11.4946 18.8789L15.0176 17.8843L12.4775 19.355C12.4775 19.355 11.7836 19.3271 11.7041 19.3271C11.6246 19.3271 10.9644 21.75 10.9644 21.75L11.3291 21.5977L11.6221 21.1406L12.2974 20.2075L15.3091 18.7676L17.4463 16.1968L18.9624 13.2114L19.9189 11.5327V10.4648L19.7593 9.39844L19.3594 8.48877L19.752 7.71973L20.25 7.43701L19.9263 6.97852L20.1929 6.74268L19.7549 6.58301L18.6416 5.64258L17.2017 6.03809L17.042 7.47803L17.8418 8.10352L17.3848 8.44189L13.2715 4.771L14.9062 6.89648L7.5 2.25L9.22852 5.46094L11.1167 6.14941L10.4048 4.6875L15.8628 8.45801L11.124 5.62354L12.3252 7.07227L2.69238 2.25Z" fill="black"/>
</svg>
