<svg width="24" height="24" viewBox="0 0 24 24" fill="none" xmlns="http://www.w3.org/2000/svg">
<path d="M12 3C9.10575 3 6.75 5.355 6.75 8.25V15.375C6.75 15.9952 6.24525 16.5 5.625 16.5C5.00475 16.5 4.5 15.9952 4.5 15.375V12H0.75V15.375C0.75 18.063 2.937 20.25 5.625 20.25C8.313 20.25 10.5 18.063 10.5 15.375V8.25C10.5 7.42275 11.1727 6.75 12 6.75C12.8273 6.75 13.5 7.42275 13.5 8.25V9.69141L14.9165 10.3506L17.25 9.65771V8.25C17.25 5.355 14.8942 3 12 3ZM19.5 12V15.375C19.5 15.9952 18.9953 16.5 18.375 16.5C17.7547 16.5 17.25 15.9952 17.25 15.375V12.0044L14.7393 12.7515L13.5 12.1729V15.375C13.5 18.063 15.687 20.25 18.375 20.25C21.063 20.25 23.25 18.063 23.25 15.375V12H19.5Z" fill="black"/>
</svg>
