<svg width="24" height="24" viewBox="0 0 24 24" fill="none" xmlns="http://www.w3.org/2000/svg">
<path d="M3.11719 6L3.86719 7.14844L6.98438 12L3.86719 16.8516L3.11719 18H7.89844L8.13281 17.6484L9.375 15.7266L10.6172 17.6484L10.8516 18H15.6328L14.8828 16.8516L11.7656 12L14.8828 7.14844L15.6328 6H10.8516L10.6172 6.35156L9.375 8.27344L8.13281 6.35156L7.89844 6H3.11719ZM5.85938 7.5H7.10156L8.74219 10.0781L9.375 11.0625L10.0078 10.0781L11.6484 7.5H12.8906L10.2422 11.6016L9.98438 12L10.2422 12.3984L12.8906 16.5H11.6484L10.0078 13.9219L9.375 12.9375L8.74219 13.9219L7.10156 16.5H5.85938L8.50781 12.3984L8.76562 12L8.50781 11.6016L5.85938 7.5ZM18.7266 14.25C17.5078 14.25 16.5 15.2578 16.5 16.4766V16.5H18V16.4766C18 16.0664 18.3164 15.75 18.7266 15.75H18.7734C19.1836 15.75 19.5 16.0664 19.5 16.4766C19.5 16.7139 19.3916 16.9277 19.1953 17.0625L17.6016 18.1641C16.916 18.6357 16.5 19.418 16.5 20.25V21H21V19.5H18.3984C18.4277 19.4766 18.4131 19.4268 18.4453 19.4062L20.0391 18.3047C20.6426 17.8887 21 17.209 21 16.4766C21 15.2578 19.9922 14.25 18.7734 14.25H18.7266Z" fill="black"/>
</svg>
