<svg width="24" height="24" viewBox="0 0 24 24" fill="none" xmlns="http://www.w3.org/2000/svg">
<path d="M11.25 2.25V6H12.75V2.25H11.25ZM5.625 4.57031L4.57031 5.625L7.21875 8.29688L8.29688 7.21875L5.625 4.57031ZM18.375 4.57031L15.7031 7.21875L16.7812 8.29688L19.4297 5.625L18.375 4.57031ZM12 6.75C9.1084 6.75 6.75 9.1084 6.75 12C6.75 14.8916 9.1084 17.25 12 17.25C14.8916 17.25 17.25 14.8916 17.25 12C17.25 9.1084 14.8916 6.75 12 6.75ZM12 8.25C14.0801 8.25 15.75 9.91992 15.75 12C15.75 14.0801 14.0801 15.75 12 15.75C9.91992 15.75 8.25 14.0801 8.25 12C8.25 9.91992 9.91992 8.25 12 8.25ZM2.25 11.25V12.75H6V11.25H2.25ZM18 11.25V12.75H21.75V11.25H18ZM7.21875 15.7031L4.57031 18.375L5.625 19.4297L8.29688 16.7812L7.21875 15.7031ZM16.7812 15.7031L15.7031 16.7812L18.375 19.4297L19.4297 18.375L16.7812 15.7031ZM11.25 18V21.75H12.75V18H11.25Z" fill="black"/>
</svg>
