<svg width="24" height="24" viewBox="0 0 24 24" fill="none" xmlns="http://www.w3.org/2000/svg">
<path d="M21.75 2.25L11.1577 3.79248L10.4912 3.88916L10.5015 3.89355C6.66632 4.60107 3.75 7.9634 3.75 12C3.75 14.2744 4.67602 16.3362 6.16992 17.8301L2.25 21.75L12.8423 20.2075L13.5088 20.1108L13.4985 20.1064C17.3337 19.3989 20.25 16.0366 20.25 12C20.25 9.72563 19.324 7.66383 17.8301 6.16992L21.75 2.25ZM12 5.25C15.7222 5.25 18.75 8.27775 18.75 12C18.75 15.7222 15.7222 18.75 12 18.75C8.27775 18.75 5.25 15.7222 5.25 12C5.25 8.27775 8.27775 5.25 12 5.25Z" fill="black"/>
</svg>
