<svg width="24" height="24" viewBox="0 0 24 24" fill="none" xmlns="http://www.w3.org/2000/svg">
<path d="M9.14941 6.75C4.15441 6.765 0.112793 8.69947 0.112793 11.0845C0.120293 12.5095 1.515 13.7703 3.75 14.5503C2.55 13.7478 1.88965 12.7418 1.88965 11.6543C1.88215 9.0443 5.92541 6.92303 10.9204 6.91553C11.2204 6.91553 11.5055 6.92268 11.7905 6.93018C10.9505 6.81018 10.0644 6.75 9.14941 6.75ZM20.25 9.47314C21.4425 10.2681 22.1104 11.2727 22.1104 12.3677C22.1104 14.9702 18.0673 17.0845 13.0723 17.0845C12.7798 17.0845 12.4871 17.0775 12.2021 17.0625C13.0346 17.1825 13.9193 17.25 14.8418 17.25C19.8368 17.25 23.8872 15.315 23.8872 12.9375C23.8872 11.5125 22.4775 10.2531 20.25 9.47314ZM5.88428 10.5015C5.32553 10.5015 4.92334 10.8486 4.92334 11.3188C4.92334 12.2113 6.27832 12.1769 6.27832 12.6606C6.27832 12.8856 6.08202 13.002 5.86377 13.002C5.46177 13.002 5.16211 12.6606 5.16211 12.6606L4.86914 13.0269C4.86914 13.0269 5.2227 13.478 5.85645 13.478C6.4557 13.478 6.81006 13.089 6.81006 12.6255C6.81006 11.6857 5.45508 11.7815 5.45508 11.291C5.45508 11.1073 5.63845 10.9834 5.87695 10.9834C6.06745 10.9834 6.25928 11.0719 6.25928 11.2017V11.3379H6.73535V11.0728C6.73535 10.664 6.21878 10.5015 5.88428 10.5015ZM16.8882 10.541V10.998H17.1533V13.1514C17.1533 13.3486 17.2344 13.4297 17.4316 13.4297H18.7339C18.9311 13.4297 19.0122 13.3486 19.0122 13.1514V12.7148H18.5288V12.8848C18.5288 12.9463 18.4957 12.9727 18.4409 12.9727H17.7803C17.7188 12.9727 17.6924 12.9395 17.6924 12.8848V12.2036H18.6255V11.7539H17.6924V10.9966H18.3384C18.3931 10.9966 18.4277 11.0312 18.4277 11.0859V11.2559H18.9038V10.8208C18.9038 10.6303 18.8233 10.541 18.6328 10.541H16.8882ZM14.7554 10.5469V10.9966H14.9326C14.9874 10.9966 15.0205 11.0312 15.0205 11.0859V13.1499H15.0146C15.0146 13.3472 15.0957 13.4297 15.293 13.4297H16.5601C16.7573 13.4297 16.8398 13.3472 16.8398 13.1499V12.7148H16.3564V12.8848C16.3564 12.9463 16.3218 12.9727 16.2671 12.9727H15.6401C15.5786 12.9727 15.5522 12.9395 15.5522 12.8848V10.8193C15.5522 10.6288 15.4697 10.5469 15.2725 10.5469H14.7554ZM7.20557 10.5483V12.4014C7.20557 13.0419 7.66275 13.478 8.34375 13.478C9.02475 13.478 9.47461 13.0419 9.47461 12.4014V10.5483H8.94287V12.3809C8.94287 12.7626 8.7045 12.98 8.34375 12.98C7.983 12.98 7.74463 12.7624 7.74463 12.3882V10.5483H7.20557ZM9.84229 10.5483V10.998H10.1016V13.4297H10.6333V12.4351H11.1577C11.6962 12.4351 12.0776 12.0469 12.0776 11.4814C12.0776 10.9227 11.6962 10.5483 11.1577 10.5483H9.84229ZM12.2959 10.5483V10.998H12.561V13.4297H13.0928V12.4351H13.6172C14.1557 12.4351 14.5298 12.0469 14.5298 11.4814C14.5298 10.9227 14.1557 10.5483 13.6172 10.5483H12.2959ZM19.0547 10.5483V10.5894H19.1426V10.7871H19.1982V10.5894H19.2861V10.5483H19.0547ZM19.333 10.5483V10.7871H19.3887V10.5967L19.4634 10.7871H19.5044L19.5864 10.5967V10.7871H19.6348V10.5483H19.5586L19.4839 10.7183L19.415 10.5483H19.333ZM10.6333 10.9966H11.0698C11.3631 10.9966 11.5327 11.1882 11.5327 11.4814C11.5327 11.7814 11.3617 11.978 11.0625 11.978H10.6333V10.9966ZM13.0854 10.9966H13.522C13.8152 10.9966 13.9849 11.1882 13.9849 11.4814C13.9849 11.7814 13.8146 11.978 13.5146 11.978H13.0854V10.9966Z" fill="black"/>
</svg>
