<svg width="24" height="24" viewBox="0 0 24 24" fill="none" xmlns="http://www.w3.org/2000/svg">
<path d="M12.8203 5.25C9.33398 5.25 4.78125 8.08887 4.78125 11.25C4.78125 12.9521 6.17285 14.25 7.875 14.25C9.17285 14.25 10.1484 13.2891 10.1484 12.2344C10.1484 11.2617 9.48926 10.125 8.10938 10.125C7.78418 10.125 6.65625 10.3477 6.65625 11.4844C6.65625 12.2959 7.29492 12.7031 7.78125 12.7031C8.51074 12.7031 8.60156 12.3984 8.60156 12.2344C8.60156 11.9912 8.44629 11.8945 8.20312 11.8125C8.04199 11.8125 7.86328 11.9062 7.78125 11.9062C7.69922 11.9062 7.45312 11.8096 7.45312 11.4844C7.45312 11.1592 7.79883 11.0156 8.20312 11.0156C8.85059 11.0156 9.23438 11.6543 9.23438 12.1406C9.23438 12.3838 9.16113 13.2656 7.94531 13.2656C7.05469 13.2656 6 12.6299 6 11.4141C6 10.1982 7.06641 9.46875 8.03906 9.46875C10.6348 9.46875 11.0391 12.0703 11.0391 12.0703L12.1641 12.6328C12.1641 12.6328 12.0938 12.2314 12.0938 11.9062C12.0938 10.8516 12.5742 10.4297 13.5469 10.4297C15.0059 10.4297 15.5801 11.666 16.1484 12.2344L17.6016 12.8672C17.6016 12.8672 16.875 11.9062 16.875 11.0156C16.875 9.96094 17.8506 10.4297 19.1484 10.4297C20.5283 10.4297 22.3828 10.125 22.3828 9.07031C22.1396 9.07031 21.6475 9.53906 20.8359 9.53906C20.2676 9.37793 18.8174 8.64844 18.6562 8.64844L18.3281 7.92188C19.3828 8.56934 20.3643 9.07031 21.0938 9.07031C21.8232 9.07031 22.4531 8.48438 22.4531 8.48438C21.8057 6.13184 21.8086 6.2959 17.8359 5.48438V6.14062C17.6719 5.89746 15.8145 5.33203 13.3828 5.25H12.8203ZM20.6719 6.46875C21.2402 6.46875 21.7266 6.95508 21.7266 7.52344C21.7266 8.0918 21.2402 8.57812 20.6719 8.57812C20.1035 8.57812 19.6172 8.0918 19.6172 7.52344C19.6172 6.95508 20.0244 6.46875 20.6719 6.46875ZM20.6719 6.98438C20.2676 6.98438 19.9453 7.30664 19.9453 7.71094C19.9453 8.11523 20.2676 8.4375 20.6719 8.4375C21.0762 8.4375 21.3984 8.11523 21.3984 7.71094C21.3984 7.30664 21.0762 6.98438 20.6719 6.98438ZM20.8359 7.28906C20.9971 7.28906 21.1641 7.38574 21.1641 7.54688C21.082 7.70801 20.9971 7.78125 20.8359 7.78125C20.6748 7.78125 20.5078 7.70801 20.5078 7.54688C20.5078 7.46484 20.6748 7.28906 20.8359 7.28906ZM2.74219 14.2031C2.09473 14.2031 1.52344 14.7744 1.52344 15.4219V15.75C1.52344 16.3975 2.00098 16.8047 2.64844 16.8047H3.86719C4.02832 16.8047 4.19531 16.8896 4.19531 17.1328V17.4609C4.19531 17.6221 4.02832 17.7656 3.86719 17.7656H1.59375V18.3516C1.59375 18.5947 1.77246 18.75 2.01562 18.75H4.03125C4.67871 18.75 5.25 18.1787 5.25 17.5312V17.0391C5.25 16.3916 4.85449 16.0781 4.125 16.0781H2.97656C2.7334 16.0781 2.64844 15.9814 2.64844 15.8203V15.5859C2.64844 15.4248 2.82715 15.2578 3.07031 15.2578H5.01562V14.625C5.01562 14.3818 4.84863 14.2031 4.6875 14.2031H2.74219ZM12.1172 14.2031C11.4697 14.2031 10.8984 14.7744 10.8984 15.4219V15.75C10.8984 16.3975 11.3994 16.8047 12.0469 16.8047H13.2656C13.4268 16.8047 13.5703 16.8896 13.5703 17.1328V17.4609C13.5703 17.6221 13.4268 17.7656 13.2656 17.7656H10.8984V18.3516C10.8984 18.5947 11.0771 18.75 11.3203 18.75H13.3359C13.9834 18.75 14.5547 18.1787 14.5547 17.5312V17.0391C14.5547 16.3916 14.1592 16.0781 13.4297 16.0781H12.2109C11.9678 16.0781 11.8828 15.9814 11.8828 15.8203V15.5859C11.8828 15.4248 12.0381 15.2578 12.2812 15.2578H14.3203V14.625C14.3203 14.3818 14.1416 14.2031 13.8984 14.2031H12.1172ZM16.6641 14.2969C16.0166 14.2969 15.4453 14.8682 15.4453 15.5156V17.5312C15.4453 18.1787 16.0166 18.75 16.6641 18.75H18.375C18.6182 18.75 18.7734 18.5947 18.7734 18.3516V17.7656H16.8281C16.585 17.7656 16.5 17.6221 16.5 17.4609V16.875H18.8438C19.1689 16.875 19.5 16.6377 19.5 16.3125V15.5156C19.5 14.8682 18.9287 14.2969 18.2812 14.2969H16.6641ZM16.8281 15.1875H18.0469C18.208 15.1875 18.375 15.3545 18.375 15.5156V15.9844H16.4297C16.5117 15.9844 16.5 15.5156 16.5 15.5156C16.5 15.3545 16.667 15.1875 16.8281 15.1875ZM9.32812 15.3516V15.4219C9.08496 15.4219 8.92969 15.5771 8.92969 15.8203V17.4609C8.92969 17.7041 8.75098 17.8594 8.50781 17.8594H7.45312C7.20996 17.8594 7.05469 17.7041 7.05469 17.4609V15.8203C7.05469 15.5771 6.80566 15.4219 6.5625 15.4219H6.39844C6.15527 15.4219 6 15.5771 6 15.8203V17.5312C6 18.3428 6.49219 18.75 7.38281 18.75H7.54688C7.95117 18.75 8.27637 18.583 8.60156 18.4219C8.7627 18.3398 8.84766 18.2578 8.92969 18.2578C8.92969 18.2578 8.98828 18.2695 9.07031 18.3516L9.32812 18.6797H9.65625C9.89941 18.6797 10.0547 18.4219 10.0547 18.2578V15.75C10.0547 15.5068 9.80566 15.3516 9.5625 15.3516H9.32812Z" fill="black"/>
</svg>
