<svg width="24" height="24" viewBox="0 0 24 24" fill="none" xmlns="http://www.w3.org/2000/svg">
<path d="M3.75 3.75V17.25C3.75 18.9045 5.0955 20.25 6.75 20.25C8.4045 20.25 9.75 18.9045 9.75 17.25V3.75H3.75ZM5.25 5.25H8.25V8.25H5.25V5.25ZM14.1753 5.58252L10.8765 8.88281V11.0024L14.1738 7.70361L16.2964 9.82471L10.875 15.2461V17.25C10.875 17.292 10.8699 17.331 10.8691 17.373L18.4175 9.82617L14.1753 5.58252ZM5.25 9.75H8.25V12.75H5.25V9.75ZM5.25 14.25H8.25V17.25C8.25 18.0773 7.57725 18.75 6.75 18.75C5.92275 18.75 5.25 18.0773 5.25 17.25V14.25ZM15.583 14.25L14.083 15.75H18.75V18.75H11.083L9.6665 20.1665C9.635 20.198 9.59768 20.22 9.56543 20.25H20.25V14.25H15.583Z" fill="black"/>
</svg>
