<svg width="24" height="24" viewBox="0 0 24 24" fill="none" xmlns="http://www.w3.org/2000/svg">
<path d="M6.70312 3.75C5.08008 3.75 3.75 5.08008 3.75 6.70312V17.2969C3.75 18.9199 5.08008 20.25 6.70312 20.25H17.2969C18.9199 20.25 20.25 18.9199 20.25 17.2969V6.70312C20.25 5.08008 18.9199 3.75 17.2969 3.75H6.70312ZM6.70312 5.25H17.2969C18.1084 5.25 18.75 5.8916 18.75 6.70312V17.2969C18.75 18.1084 18.1084 18.75 17.2969 18.75H6.70312C5.8916 18.75 5.25 18.1084 5.25 17.2969V6.70312C5.25 5.8916 5.8916 5.25 6.70312 5.25ZM13.2188 7.125C13.2188 7.125 15.0967 9.49512 14.1328 12.1641C14.1328 12.1641 10.752 9.76758 9.04688 8.03906C9.04688 8.03906 11.168 11.1123 11.9297 11.7422C11.9297 11.7422 10.6582 11.0654 7.71094 8.55469C7.71094 8.55469 11.1123 12.9756 12.7031 13.8984C12.7031 13.8984 10.2832 15.542 6.75 13.2188C6.75 13.2188 8.5957 16.5 12.5156 16.5C14.2764 16.5 14.8066 15.5859 15.6797 15.5859C16.5879 15.5859 17.1328 16.5 17.1328 16.5C17.6631 15.2051 16.3359 13.7344 16.3359 13.7344C16.3359 13.7344 17.833 10.2627 13.2188 7.125Z" fill="black"/>
</svg>
