<svg width="24" height="24" viewBox="0 0 24 24" fill="none" xmlns="http://www.w3.org/2000/svg">
<path d="M9 3C7.76074 3 6.75 4.01074 6.75 5.25V14.7188L7.5 14.1797L8.25 14.7188V5.25C8.25 4.83691 8.58691 4.5 9 4.5H9.75V3H9ZM18 3C16.7607 3 15.75 4.01074 15.75 5.25V6H9V7.5H15.75V9H9V10.5H15.75V12H9V13.5H15.75V14.7188L16.5 14.1797L17.25 14.7188V5.25C17.25 4.83691 17.5869 4.5 18 4.5H18.75V3H18ZM7.5 15.5391L7.03125 15.9141C7.03125 15.9141 6.27832 16.5 5.27344 16.5C4.26855 16.5 3.46875 15.9141 3.46875 15.9141L2.53125 17.0859C2.53125 17.0859 3.68848 18 5.27344 18C6.36914 18 7.06641 17.6367 7.5 17.3672C7.93652 17.6338 8.66895 18 9.77344 18C10.8691 18 11.5664 17.6367 12 17.3672C12.4365 17.6338 13.1689 18 14.2734 18C15.3691 18 16.0664 17.6367 16.5 17.3672C16.9365 17.6338 17.6689 18 18.7734 18C20.3584 18 21.4688 17.0859 21.4688 17.0859L20.5312 15.9141C20.5312 15.9141 19.7783 16.5 18.7734 16.5C17.7686 16.5 16.9688 15.9141 16.9688 15.9141L16.5 15.5391L16.0312 15.9141C16.0312 15.9141 15.2783 16.5 14.2734 16.5C13.2686 16.5 12.4688 15.9141 12.4688 15.9141L12 15.5391L11.5312 15.9141C11.5312 15.9141 10.7783 16.5 9.77344 16.5C8.76855 16.5 7.96875 15.9141 7.96875 15.9141L7.5 15.5391ZM7.5 18.5391L7.03125 18.9141C7.03125 18.9141 6.27832 19.5 5.27344 19.5C4.26855 19.5 3.46875 18.9141 3.46875 18.9141L2.53125 20.0859C2.53125 20.0859 3.68848 21 5.27344 21C6.36914 21 7.06641 20.6367 7.5 20.3672C7.93652 20.6338 8.66895 21 9.77344 21C10.8691 21 11.5664 20.6367 12 20.3672C12.4365 20.6338 13.1689 21 14.2734 21C15.3691 21 16.0664 20.6367 16.5 20.3672C16.9365 20.6338 17.6689 21 18.7734 21C20.3584 21 21.4688 20.0859 21.4688 20.0859L20.5312 18.9141C20.5312 18.9141 19.7783 19.5 18.7734 19.5C17.7686 19.5 16.9688 18.9141 16.9688 18.9141L16.5 18.5391L16.0312 18.9141C16.0312 18.9141 15.2783 19.5 14.2734 19.5C13.2686 19.5 12.4688 18.9141 12.4688 18.9141L12 18.5391L11.5312 18.9141C11.5312 18.9141 10.7783 19.5 9.77344 19.5C8.76855 19.5 7.96875 18.9141 7.96875 18.9141L7.5 18.5391Z" fill="black"/>
</svg>
