<svg width="24" height="24" viewBox="0 0 24 24" fill="none" xmlns="http://www.w3.org/2000/svg">
<path d="M17.625 8.25C16.1836 8.25 15 9.43359 15 10.875C15 12.3164 16.1836 13.5 17.625 13.5C19.0664 13.5 20.25 12.3164 20.25 10.875C20.25 9.43359 19.0664 8.25 17.625 8.25ZM10.2891 8.27344C10.0166 8.29102 9.75293 8.38184 9.51562 8.55469L5.55469 11.3906L6.44531 12.6094L10.3828 9.77344L12.0938 11.7422L6.53906 16.4531C6.84375 16.4795 7.16895 16.5 7.5 16.5C8.00684 16.5 8.49316 16.4473 8.97656 16.3594L13.0547 12.8672L14.5781 14.625C15.1318 14.4814 15.7002 14.3584 16.2891 14.2969L11.5078 8.78906C11.1885 8.41699 10.7432 8.24414 10.2891 8.27344ZM17.625 9.75C18.2549 9.75 18.75 10.2451 18.75 10.875C18.75 11.5078 18.2549 12 17.625 12C16.9922 12 16.5 11.5078 16.5 10.875C16.5 10.2451 16.9922 9.75 17.625 9.75ZM17.25 15C15.4219 15 13.8193 15.6123 12.2578 16.1719C10.6963 16.7314 9.17578 17.25 7.5 17.25C3.37793 17.25 1.26562 15.2109 1.26562 15.2109L0.234375 16.2891C0.234375 16.2891 2.8623 18.75 7.5 18.75C9.4834 18.75 11.1797 18.1436 12.75 17.5781C14.3203 17.0127 15.7617 16.5 17.25 16.5C20.2266 16.5 22.7578 18.5859 22.7578 18.5859L23.7422 17.4141C23.7422 17.4141 20.9062 15 17.25 15Z" fill="black"/>
</svg>
