<svg width="24" height="24" viewBox="0 0 24 24" fill="none" xmlns="http://www.w3.org/2000/svg">
<path d="M12 2.25C6.624 2.25 2.25 6.624 2.25 12C2.25 17.376 6.624 21.75 12 21.75C17.376 21.75 21.75 17.376 21.75 12C21.75 6.624 17.376 2.25 12 2.25ZM12 3.75C16.5487 3.75 20.25 7.45125 20.25 12C20.25 16.5487 16.5487 20.25 12 20.25C7.45125 20.25 3.75 16.5487 3.75 12C3.75 7.45125 7.45125 3.75 12 3.75ZM15.2036 7.55713C15.1489 7.55863 13.3186 7.45622 12.2446 10.6055C11.9536 10.3662 10.5753 8.72286 9.0498 9.85986C8.5023 10.2694 8.14063 11.2453 8.96338 12.1626C9.45313 12.6868 9.73545 12.8947 9.60645 13.314C9.3417 14.175 8.00081 13.7803 8.13281 13.3535C8.17181 13.226 8.2342 13.2238 8.31445 12.9756C8.53795 12.2436 7.53071 11.8855 7.31396 12.583C7.18947 12.9895 7.3826 13.7239 8.42285 14.0449C9.64085 14.4192 10.6716 13.7554 10.8179 12.8906C10.9109 12.3491 10.6658 11.947 10.2173 11.4287L9.85254 11.0244C9.63129 10.8017 9.55494 10.4255 9.78369 10.1367C9.97644 9.89222 10.2514 9.78888 10.7021 9.91113C11.3599 10.0896 11.6531 10.5463 12.1421 10.9146C12.1068 11.0301 11.8532 11.8485 11.6162 13.2832C11.2667 15.1177 10.9989 16.1246 10.3052 16.7021C10.1657 16.8034 9.96579 16.9524 9.66504 16.9629C9.60879 16.9651 9.25695 16.8816 9.60645 16.6011C10.0467 16.3603 9.80803 15.5964 9.17578 15.6182C8.89078 15.6272 8.45762 15.8945 8.47412 16.3857C8.49062 16.8927 8.96279 17.2733 9.67529 17.2485C10.0563 17.2358 10.9059 17.0814 11.7437 16.0854C12.8949 14.7354 13.114 13.1323 13.4253 11.4126C14.9185 11.5896 15.6575 10.8973 15.668 10.3813C15.6837 9.67935 14.8577 9.704 14.7422 10.229C14.6867 10.484 15.1312 10.7137 14.7847 10.938C14.5394 11.097 14.099 11.2089 13.4795 11.1182C13.7772 9.47566 14.0319 7.86562 15.1816 7.82812C15.2604 7.82363 15.547 7.83248 15.5537 8.02148C15.5575 8.17748 15.3572 8.30091 15.3647 8.56641C15.376 8.86791 15.6045 9.06473 15.936 9.05273C16.3793 9.03698 16.506 8.60677 16.4985 8.38477C16.4798 7.86277 15.9304 7.53388 15.2036 7.55713Z" fill="black"/>
</svg>
