<svg width="24" height="24" viewBox="0 0 24 24" fill="none" xmlns="http://www.w3.org/2000/svg">
<path d="M12 3.49219L11.5078 3.9375L5.71875 9H3V20.25H10.5V17.25C10.5 16.4121 11.1621 15.75 12 15.75C12.8379 15.75 13.5 16.4121 13.5 17.25V20.25H21V9H18.2812L12.4922 3.9375L12 3.49219ZM4.5 5.25C4.06348 5.90625 3 6.00586 3 7.24219C3 7.93652 3.49219 8.25 3.49219 8.25H5.50781C5.50781 8.25 6 7.93652 6 7.24219C6 5.94141 4.99219 5.88574 4.5 5.25ZM19.5 5.25C19.0635 5.90625 18 6.375 18 7.24219C18 7.93652 18.4922 8.25 18.4922 8.25H20.5078C20.5078 8.25 21 7.93652 21 7.24219C21 6.31055 19.9922 5.88574 19.5 5.25ZM12 5.48438L17.5078 10.3125L17.7188 10.5H19.5V18.75H15V17.25C15 15.6006 13.6494 14.25 12 14.25C10.3506 14.25 9 15.6006 9 17.25V18.75H4.5V10.5H6.28125L6.49219 10.3125L12 5.48438ZM12 8.60156L11.3438 9.72656H10.0547L10.6875 10.8516L10.0547 11.9766H11.3438L12 13.125L12.6562 11.9766H13.9453L13.3125 10.8516L13.9453 9.72656H12.6562L12 8.60156Z" fill="black"/>
</svg>
