<svg width="24" height="24" viewBox="0 0 24 24" fill="none" xmlns="http://www.w3.org/2000/svg">
<path d="M5.25 3C4.0166 3 3 4.0166 3 5.25C3 6.4834 4.0166 7.5 5.25 7.5C6.4834 7.5 7.5 6.4834 7.5 5.25C7.5 4.0166 6.4834 3 5.25 3ZM14.2031 3.67969C13.9688 3.68262 13.7314 3.7002 13.5 3.72656C11.6484 3.94336 9.91992 4.89258 8.60156 6.21094C7.67578 7.13379 6.9082 8.46094 6.65625 10.9219C6.64746 10.9453 6.63867 10.9688 6.63281 10.9922C6.63281 11.001 6.63281 11.0068 6.63281 11.0156C6.61523 11.0537 6.59766 11.0918 6.58594 11.1328C6.58301 11.1504 6.58887 11.1592 6.58594 11.1797C6.58594 11.2031 6.58594 11.2266 6.58594 11.25C6.58594 11.2588 6.58594 11.2646 6.58594 11.2734C6.58887 11.3203 6.59766 11.3672 6.60938 11.4141C6.62109 11.4609 6.63574 11.5107 6.65625 11.5547C6.69434 12.2285 6.78809 12.917 7.03125 13.5703H7.00781C7.01953 13.6348 7.0957 13.957 7.10156 14.2734C7.10449 14.5107 7.01953 14.7275 7.00781 14.7891C6.55078 15.2432 6.00293 15.7178 5.48438 16.125C4.96582 16.5322 4.51758 16.8838 4.19531 17.2031H4.17188C3.77344 17.6104 3.6123 18.2314 3.72656 18.75C3.84082 19.2744 4.14258 19.7285 4.54688 20.1328C4.94824 20.5342 5.40527 20.833 5.92969 20.9531C6.4541 21.0732 7.08984 20.918 7.5 20.5078C7.82812 20.1797 8.14453 19.7168 8.55469 19.1953C8.96484 18.6738 9.43066 18.1084 9.89062 17.6484C9.83789 17.7012 10.0664 17.5781 10.3594 17.5781C10.5967 17.5781 10.793 17.6016 10.9453 17.625C10.9834 17.6309 11.0625 17.6455 11.0859 17.6484C11.7393 17.8916 12.4277 17.9824 13.1016 18.0234C13.1104 18.0234 13.1162 18.0469 13.125 18.0469C13.1777 18.0615 13.2334 18.0674 13.2891 18.0703C13.3125 18.0791 13.3359 18.0879 13.3594 18.0938C13.3828 18.0938 13.4062 18.0938 13.4297 18.0938C13.4443 18.0938 13.4619 18.0938 13.4766 18.0938C13.4854 18.0938 13.4912 18.0938 13.5 18.0938C13.5469 18.0908 13.5938 18.082 13.6406 18.0703C13.6699 18.0674 13.6816 18.0498 13.7109 18.0469C13.7197 18.0469 13.7256 18.0469 13.7344 18.0469C15.9932 17.8594 17.5078 17.042 18.4688 16.0781C19.7871 14.7598 20.7363 13.0312 20.9531 11.1797C21.1699 9.32812 20.5928 7.35059 18.9609 5.71875C17.5342 4.29199 15.8438 3.66797 14.2031 3.67969ZM5.25 4.5C5.67188 4.5 6 4.82812 6 5.25C6 5.67188 5.67188 6 5.25 6C4.82812 6 4.5 5.67188 4.5 5.25C4.5 4.82812 4.82812 4.5 5.25 4.5ZM14.2031 5.17969C15.4688 5.15625 16.7373 5.60449 17.9062 6.77344C19.2451 8.10938 19.623 9.57129 19.4531 11.0156C19.2832 12.46 18.5244 13.9131 17.4141 15.0234C16.667 15.7705 15.583 16.3535 13.6875 16.5234L8.15625 10.9922C8.37598 8.87695 8.89746 8.07129 9.67969 7.28906C10.79 6.17871 12.2168 5.39648 13.6641 5.22656C13.8457 5.20605 14.0215 5.18262 14.2031 5.17969ZM8.50781 13.5L11.1797 16.1484C10.9805 16.1162 10.7314 16.0781 10.3594 16.0781C9.90234 16.0811 9.32227 16.1074 8.83594 16.5938C8.29688 17.1328 7.80176 17.7246 7.38281 18.2578C6.96387 18.791 6.5918 19.2832 6.42188 19.4531C6.33398 19.541 6.37793 19.5264 6.25781 19.5C6.1377 19.4736 5.89453 19.3242 5.625 19.0547C5.36133 18.791 5.22949 18.5479 5.20312 18.4219C5.17676 18.2959 5.15039 18.3311 5.22656 18.2578C5.38477 18.0996 5.8623 17.7188 6.39844 17.2969C6.93457 16.875 7.54688 16.3828 8.08594 15.8438C8.60449 15.3252 8.61035 14.7246 8.60156 14.25C8.5957 13.8896 8.54004 13.6787 8.50781 13.5Z" fill="black"/>
</svg>
