<svg width="24" height="24" viewBox="0 0 24 24" fill="none" xmlns="http://www.w3.org/2000/svg">
<path d="M16.5 2.25C13.605 2.25 11.25 4.60575 11.25 7.5C11.25 10.3942 13.605 12.75 16.5 12.75C19.395 12.75 21.75 10.3942 21.75 7.5C21.75 4.60575 19.395 2.25 16.5 2.25ZM16.5 3.75C18.5677 3.75 20.25 5.43225 20.25 7.5C20.25 8.26302 20.0175 8.97109 19.6245 9.56396L14.436 4.37549C15.0289 3.98251 15.737 3.75 16.5 3.75ZM13.3755 5.43604L18.564 10.626C17.9712 11.0187 17.2628 11.25 16.5 11.25C14.4323 11.25 12.75 9.56775 12.75 7.5C12.75 6.73698 12.9825 6.02891 13.3755 5.43604ZM7.5 10.5C4.605 10.5 2.25 12.8558 2.25 15.75C2.25 18.6443 4.605 21 7.5 21C10.395 21 12.75 18.6443 12.75 15.75C12.75 12.8558 10.395 10.5 7.5 10.5ZM7.5 12C9.31077 12 10.8252 13.2907 11.1738 15H3.82617C4.1748 13.2907 5.68923 12 7.5 12ZM3.82617 16.5H11.1738C10.8252 18.2093 9.31077 19.5 7.5 19.5C5.68923 19.5 4.1748 18.2093 3.82617 16.5Z" fill="black"/>
</svg>
