<svg width="24" height="24" viewBox="0 0 24 24" fill="none" xmlns="http://www.w3.org/2000/svg">
<path d="M9 3.75C4.45125 3.75 0.75 7.45125 0.75 12C0.75 16.5487 4.45125 20.25 9 20.25H23.25V18.75H13.7285C15.8545 17.2561 17.25 14.7897 17.25 12C17.25 7.45125 13.5487 3.75 9 3.75ZM9 5.25C12.7215 5.25 15.75 8.27775 15.75 12C15.75 15.7222 12.7215 18.75 9 18.75C5.2785 18.75 2.25 15.7222 2.25 12C2.25 8.27775 5.2785 5.25 9 5.25ZM9 9C7.3455 9 6 10.3455 6 12C6 13.6545 7.3455 15 9 15C10.6545 15 12 13.6545 12 12C12 10.3455 10.6545 9 9 9ZM9 10.5C9.82725 10.5 10.5 11.1727 10.5 12C10.5 12.8273 9.82725 13.5 9 13.5C8.17275 13.5 7.5 12.8273 7.5 12C7.5 11.1727 8.17275 10.5 9 10.5Z" fill="black"/>
</svg>
