<svg width="24" height="24" viewBox="0 0 24 24" fill="none" xmlns="http://www.w3.org/2000/svg">
<path d="M12.2812 2.99844C11.3086 2.9808 10.2949 3.1335 9.24023 3.45694C7.83023 3.89194 6.63697 4.70955 5.64697 5.82705C5.51197 5.98455 5.41547 6.14932 5.54297 6.33682C5.64797 6.47932 5.58721 6.55537 5.51221 6.66787C4.81471 7.64287 4.3425 8.7145 4.125 9.892C4.1025 10.042 4.02691 10.103 3.89941 10.163C3.40441 10.4105 3.1118 10.8152 3.0293 11.3627L3 12.2929V13.267C3 14.347 3.73477 15.0376 4.82227 14.9926C5.09227 14.9776 5.25 14.8343 5.25 14.5868V11.3041C5.25 11.2854 5.28537 10.3555 5.37012 9.92276C5.54562 9.04076 5.8571 8.30509 6.2666 7.70059C7.45685 5.78209 9.576 4.49991 12 4.49991C15.7283 4.49991 18.75 7.52166 18.75 11.2499V14.4667C18.75 14.7142 18.8099 14.9106 19.0649 14.9706C19.9124 15.1431 20.7974 14.5501 20.9399 13.6801C21.0374 13.0801 20.9707 12.2251 20.9707 11.6176C20.9632 10.9576 20.6702 10.4471 20.0552 10.1396C19.9577 10.0946 19.883 10.0429 19.853 9.91543C19.6355 8.72293 19.1552 7.59746 18.4277 6.62246C18.3902 6.56996 18.308 6.50961 18.353 6.44961C18.653 6.04461 18.3455 5.81182 18.1055 5.58682C16.3627 3.90073 14.4211 3.03725 12.2812 2.99844ZM7.76953 12.0014C7.29717 11.971 6.91581 12.2789 6.81006 12.8217C6.64956 13.6024 6.80962 14.3506 7.26562 15.0233C7.58063 15.4801 8.06468 15.697 8.62793 15.7353C8.99018 15.754 10.2779 15.8041 10.5659 15.7089C10.9417 15.5754 11.1961 15.3535 11.2764 14.9853C11.3499 14.6178 10.8943 14.0909 10.2568 13.5321C9.59984 12.9606 8.7409 12.3699 8.26465 12.1479C8.09365 12.059 7.92698 12.0115 7.76953 12.0014ZM16.4868 13.5058C15.7849 13.4411 14.7869 13.9037 14.3364 14.0902C11.9117 15.0645 12.8465 16.0014 13.6025 16.2099L15.3135 16.4779C16.5217 16.5739 17.277 15.4802 17.2485 14.3642C17.2221 13.7727 16.908 13.5445 16.4868 13.5058ZM18.2227 15.7514C18.1771 15.7552 18.1337 15.7757 18.1011 15.8144C18.0861 15.8376 18.0793 15.8609 18.0718 15.8759C17.795 16.7991 16.5425 19.9384 12.1963 20.2616C7.08654 20.6381 14.9346 21.8309 17.1621 20.0302C17.9339 19.3987 18.7853 18.7683 18.7485 16.9525C18.7343 16.5828 18.5817 15.9904 18.356 15.7909C18.3158 15.7602 18.2682 15.7475 18.2227 15.7514Z" fill="black"/>
</svg>
