<svg width="24" height="24" viewBox="0 0 24 24" fill="none" xmlns="http://www.w3.org/2000/svg">
<path d="M7.5 2.25C3.77775 2.25 0.75 5.27775 0.75 9V9.75C0.75 10.9875 1.7625 12 3 12C3.5775 12 4.1025 11.7755 4.5 11.4155C4.8975 11.7755 5.4225 12 6 12H6.75C7.3275 12 7.8525 11.7755 8.25 11.4155C8.6475 11.7755 9.1725 12 9.75 12H10.5C11.0775 12 11.6025 11.7755 12 11.4155C12.3975 11.7755 12.9225 12 13.5 12H14.25C14.8275 12 15.3525 11.7755 15.75 11.4155C16.1475 11.7755 16.6725 12 17.25 12H18C18.5775 12 19.1025 11.7755 19.5 11.4155C19.8975 11.7755 20.4225 12 21 12C22.2375 12 23.25 10.9875 23.25 9.75V9C23.25 5.27775 20.2222 2.25 16.5 2.25H7.5ZM7.5 3.75H16.5C18.5985 3.75 20.4094 4.99068 21.249 6.7749C21.1663 6.76558 21.0851 6.75 21 6.75C20.5425 6.75 20.122 6.88518 19.7695 7.11768C19.297 6.44268 18.51 6 17.625 6C17.055 6 16.5305 6.18762 16.103 6.49512C15.638 5.75262 14.8125 5.25 13.875 5.25C13.14 5.25 12.48 5.55791 12 6.04541C11.52 5.55791 10.86 5.25 10.125 5.25C9.1875 5.25 8.36197 5.75262 7.89697 6.49512C7.46947 6.18762 6.945 6 6.375 6C5.49 6 4.70297 6.44268 4.23047 7.11768C3.87797 6.88518 3.4575 6.75 3 6.75C2.9149 6.75 2.83369 6.76558 2.75098 6.7749C3.5906 4.99068 5.40148 3.75 7.5 3.75ZM10.125 6.75C10.7475 6.75 11.25 7.2525 11.25 7.875V9.75C11.25 10.1625 10.9125 10.5 10.5 10.5H9.75C9.3375 10.5 9 10.1625 9 9.75V7.875C9 7.2525 9.5025 6.75 10.125 6.75ZM13.875 6.75C14.4975 6.75 15 7.2525 15 7.875V9.75C15 10.1625 14.6625 10.5 14.25 10.5H13.5C13.0875 10.5 12.75 10.1625 12.75 9.75V7.875C12.75 7.2525 13.2525 6.75 13.875 6.75ZM6.375 7.5C6.9975 7.5 7.5 8.0025 7.5 8.625V9.75C7.5 10.1625 7.1625 10.5 6.75 10.5H6C5.5875 10.5 5.25 10.1625 5.25 9.75V8.625C5.25 8.0025 5.7525 7.5 6.375 7.5ZM17.625 7.5C18.2475 7.5 18.75 8.0025 18.75 8.625V9.75C18.75 10.1625 18.4125 10.5 18 10.5H17.25C16.8375 10.5 16.5 10.1625 16.5 9.75V8.625C16.5 8.0025 17.0025 7.5 17.625 7.5ZM3 8.25C3.4125 8.25 3.75 8.5875 3.75 9V9.75C3.75 10.1625 3.4125 10.5 3 10.5C2.5875 10.5 2.25 10.1625 2.25 9.75V9C2.25 8.5875 2.5875 8.25 3 8.25ZM21 8.25C21.4125 8.25 21.75 8.5875 21.75 9V9.75C21.75 10.1625 21.4125 10.5 21 10.5C20.5875 10.5 20.25 10.1625 20.25 9.75V9C20.25 8.5875 20.5875 8.25 21 8.25ZM3 13.5C1.7625 13.5 0.75 14.5125 0.75 15.75V16.5C0.75 19.3943 3.10575 21.75 6 21.75H18C20.8943 21.75 23.25 19.3943 23.25 16.5V15.75C23.25 14.5125 22.2375 13.5 21 13.5C20.4225 13.5 19.8975 13.7245 19.5 14.0845C19.1025 13.7245 18.5775 13.5 18 13.5H17.25C16.6725 13.5 16.1475 13.7245 15.75 14.0845C15.3525 13.7245 14.8275 13.5 14.25 13.5H13.5C12.9225 13.5 12.3975 13.7245 12 14.0845C11.6025 13.7245 11.0775 13.5 10.5 13.5H9.75C9.1725 13.5 8.6475 13.7245 8.25 14.0845C7.8525 13.7245 7.3275 13.5 6.75 13.5H6C5.4225 13.5 4.8975 13.7245 4.5 14.0845C4.1025 13.7245 3.5775 13.5 3 13.5ZM3 15C3.4125 15 3.75 15.3375 3.75 15.75C3.75 16.1625 3.4125 16.5 3 16.5C2.5875 16.5 2.25 16.1625 2.25 15.75C2.25 15.3375 2.5875 15 3 15ZM6 15H6.75C7.1625 15 7.5 15.3375 7.5 15.75V16.5C7.5 16.9125 7.1625 17.25 6.75 17.25C5.925 17.25 5.25 16.575 5.25 15.75C5.25 15.3375 5.5875 15 6 15ZM9.75 15H10.5C10.9125 15 11.25 15.3375 11.25 15.75V16.5C11.25 16.9125 10.9125 17.25 10.5 17.25H9.75C9.3375 17.25 9 16.9125 9 16.5V15.75C9 15.3375 9.3375 15 9.75 15ZM13.5 15H14.25C14.6625 15 15 15.3375 15 15.75V16.5C15 16.9125 14.6625 17.25 14.25 17.25H13.5C13.0875 17.25 12.75 16.9125 12.75 16.5V15.75C12.75 15.3375 13.0875 15 13.5 15ZM17.25 15H18C18.4125 15 18.75 15.3375 18.75 15.75C18.75 16.575 18.075 17.25 17.25 17.25C16.8375 17.25 16.5 16.9125 16.5 16.5V15.75C16.5 15.3375 16.8375 15 17.25 15ZM21 15C21.4125 15 21.75 15.3375 21.75 15.75C21.75 16.1625 21.4125 16.5 21 16.5C20.5875 16.5 20.25 16.1625 20.25 15.75C20.25 15.3375 20.5875 15 21 15ZM4.35059 17.5356C4.90559 18.2706 5.7675 18.75 6.75 18.75C7.3275 18.75 7.8525 18.5255 8.25 18.1655C8.6475 18.5255 9.1725 18.75 9.75 18.75H10.5C11.0775 18.75 11.6025 18.5255 12 18.1655C12.3975 18.5255 12.9225 18.75 13.5 18.75H14.25C14.8275 18.75 15.3525 18.5255 15.75 18.1655C16.1475 18.5255 16.6725 18.75 17.25 18.75C18.2325 18.75 19.0944 18.2706 19.6494 17.5356C20.0244 17.8281 20.49 18 21 18C21.1563 18 21.3095 17.9838 21.457 17.9531C20.8883 19.3015 19.5529 20.25 18 20.25H6C4.44707 20.25 3.11172 19.3015 2.54297 17.9531C2.69052 17.9838 2.84369 18 3 18C3.51 18 3.97559 17.8281 4.35059 17.5356Z" fill="black"/>
</svg>
