<svg width="24" height="24" viewBox="0 0 24 24" fill="none" xmlns="http://www.w3.org/2000/svg">
<path d="M19.5527 2.99699C19.3008 3.00871 19.0635 3.08195 18.8526 3.16398H18.8496C18.6358 3.24895 17.6192 3.67668 16.0752 4.32414C14.5313 4.97453 12.5274 5.81828 10.5381 6.65617C6.56544 8.32902 2.66017 9.97551 2.66017 9.97551L2.70704 9.95793C2.70704 9.95793 2.43751 10.0458 2.15626 10.2392C2.01271 10.3329 1.8545 10.4618 1.71681 10.664C1.57911 10.8661 1.46779 11.1767 1.5088 11.496C1.57618 12.038 1.92775 12.3632 2.1797 12.5419C2.43458 12.7236 2.67775 12.8085 2.67775 12.8085H2.68361L6.34572 14.0419C6.50978 14.5693 7.46193 17.6982 7.69044 18.4189C7.82521 18.8495 7.95704 19.1191 8.12111 19.3241C8.20021 19.4296 8.29396 19.5175 8.40528 19.5878C8.44923 19.6142 8.49611 19.6347 8.54298 19.6523C8.55763 19.6611 8.57228 19.664 8.58986 19.6669L8.55177 19.6581C8.56349 19.6611 8.57228 19.6698 8.58107 19.6728C8.61036 19.6816 8.63087 19.6845 8.66896 19.6904C9.24903 19.8661 9.71486 19.5058 9.71486 19.5058L9.74122 19.4853L11.9033 17.5165L15.5274 20.2968L15.6094 20.332C16.3652 20.663 17.1299 20.4784 17.5342 20.1532C17.9414 19.8251 18.0996 19.4062 18.0996 19.4062L18.126 19.3388L20.9268 4.99211C21.0059 4.63762 21.0264 4.30656 20.9385 3.9843C20.8506 3.66203 20.625 3.36027 20.3526 3.19914C20.0772 3.03508 19.8047 2.98527 19.5527 2.99699ZM19.4766 4.53508C19.4736 4.58195 19.4824 4.57609 19.4619 4.66691V4.6757L16.6875 18.873C16.6758 18.8935 16.6553 18.9374 16.5996 18.9814C16.541 19.0282 16.4942 19.0575 16.251 18.9609L11.8184 15.5624L9.14064 18.0029L9.70314 14.4111C9.70314 14.4111 16.6465 7.93937 16.9453 7.66105C17.2442 7.38273 17.1445 7.32414 17.1445 7.32414C17.1651 6.9843 16.6934 7.22453 16.6934 7.22453L7.56153 12.8818L7.55861 12.8671L3.18165 11.3935V11.3905C3.17872 11.3905 3.17286 11.3876 3.16993 11.3876C3.17286 11.3876 3.19337 11.3788 3.19337 11.3788L3.21681 11.3671L3.24025 11.3583C3.24025 11.3583 7.14845 9.71184 11.1211 8.03898C13.1104 7.20109 15.1143 6.35734 16.6553 5.70695C18.1963 5.05949 19.3359 4.58488 19.4004 4.55852C19.4619 4.53508 19.4326 4.53508 19.4766 4.53508Z" fill="black"/>
</svg>
