<svg width="24" height="24" viewBox="0 0 24 24" fill="none" xmlns="http://www.w3.org/2000/svg">
<path d="M4.97461 3.75C4.71361 3.75 4.5 3.95557 4.5 4.21582V6.27539C4.5 6.53639 4.71361 6.75 4.97461 6.75H19.0342C19.2944 6.75 19.5 6.53639 19.5 6.27539V4.21582C19.5 3.95557 19.2944 3.75 19.0342 3.75H4.97461ZM4.97461 9C4.71361 9 4.5 9.21307 4.5 9.46582V11.5254C4.5 11.7864 4.71361 12 4.97461 12H10.5V20.5342C10.5 20.7944 10.7056 21 10.9658 21H13.0342C13.2944 21 13.5 20.7944 13.5 20.5342V12H19.0342C19.2944 12 19.5 11.7864 19.5 11.5254V9.46582C19.5 9.21307 19.2944 9 19.0342 9H4.97461Z" fill="black"/>
</svg>
