<svg width="24" height="24" viewBox="0 0 24 24" fill="none" xmlns="http://www.w3.org/2000/svg">
<path d="M9.25928 2.25C8.14853 3.1005 8.09897 3.72286 8.07422 3.84961C8.04272 3.76486 7.8523 3.16064 7.53955 2.90039C7.4233 3.18464 7.41697 3.50155 7.52197 3.78955C7.62772 4.08505 7.73012 4.31059 7.81787 4.45459C7.25537 4.33834 6.82214 4.28209 6.08789 4.45459H5.95752L7.11768 4.95703C6.40743 5.62153 5.84834 6.4294 5.47559 7.32715L5.41553 7.62158L5.47559 7.68164L5.74219 7.51758C5.62594 7.92558 5.55649 8.19932 5.51074 8.42432C5.12824 8.85482 4.79994 9.33007 4.53369 9.84082C4.00644 9.87607 3.41569 10.2203 3.11719 10.3433L3.22266 10.4619L4.23486 10.4971C4.21761 10.5323 4.2111 10.5746 4.19385 10.6099C3.93735 10.8349 2.79444 11.9353 3.03369 13.4473L3.74268 12.6606C3.75993 12.7206 3.76791 12.7785 3.78516 12.8423C3.78516 13.7385 3.80013 15.9935 6.06738 18.1348C7.60038 19.541 9.44224 20.2515 11.6045 20.2515C15.8832 20.2515 19.4443 17.1824 19.4443 12.8159C19.6836 12.4747 19.401 12.9211 20.0303 11.9326L20.4873 12.4351L20.5752 12.4175C20.5099 12.0072 20.4064 11.6041 20.2632 11.2148C20.2099 11.0468 20.1287 10.8886 20.0229 10.7476H20.0244L20.7524 10.9966C20.4149 10.1566 19.9122 9.69637 19.6377 9.42188L19.8882 8.7832C19.8949 8.7832 20.3208 7.80561 19.8003 7.70361C19.7793 7.30611 19.5676 6.75439 19.1528 6.75439C18.8858 6.38164 18.5315 6.32139 18.0747 6.54639C17.7552 6.70239 17.4556 6.89771 17.1841 7.12646C16.9981 6.90146 17.0786 7.13964 17.0786 6.07764C15.7744 5.22339 15.4827 5.66636 14.4492 6.18311L14.4668 6.20068C13.692 5.92843 12.8813 5.7709 12.0615 5.7334C11.868 5.4274 11.4084 5.06306 11.1797 4.85156L12.0513 5.10059C11.8578 4.90709 11.1089 4.64763 10.8486 4.56738C11.4884 4.42338 11.8965 3.83623 12.3428 3.40723C11.1158 3.05248 9.95489 3.19928 8.90039 3.82178L9.32373 2.26758L9.25928 2.25ZM8.99854 2.73486C8.90703 3.02661 8.83291 3.32327 8.77441 3.62402L8.71436 3.87451L8.69678 4.04004L8.78467 4.12793C9.55492 3.65318 10.3843 3.44564 11.291 3.46289L12.0337 3.48047C11.6182 3.95522 11.0546 4.25005 10.3271 4.35205C10.0549 4.4023 9.78137 4.43659 9.50537 4.45459L9.49805 4.43701L9.41016 4.39453C9.24291 4.35928 9.06872 4.38459 8.91797 4.46484C8.83022 4.45809 8.7462 4.44891 8.66895 4.44141L8.57959 4.5L8.59717 4.54248C8.66767 4.54923 8.73443 4.55988 8.81543 4.56738L8.74512 4.68604L8.86377 4.66846L8.4917 5.06689C8.34395 5.17264 8.30175 5.29155 8.34375 5.39355L8.53418 5.27344H8.5752C8.7912 4.98694 9.10961 4.79573 9.46436 4.74023V4.6333C9.68936 4.65055 9.92197 4.66903 10.147 4.67578C10.372 4.67578 10.4417 4.69205 10.3359 4.7168C10.5887 4.8593 10.8322 5.01887 11.064 5.19287C11.5387 5.54762 11.8937 5.96252 12.1187 6.43652C12.4284 7.07627 12.5933 7.74028 12.5933 8.42578C12.5918 8.76028 12.5568 9.09412 12.4878 9.42188C12.364 9.98063 12.175 10.5238 11.9253 11.0391L12.0132 11.0552C12.6529 10.3629 13.4852 10.4927 13.7417 10.4927L13.5176 10.7007L14.3042 11.3232L14.2441 12.4028C14.0544 11.9701 13.6645 11.6613 13.084 11.4258C13.6637 11.9463 13.9137 12.1677 13.8545 12.1362C13.6857 12.038 13.7316 12.0689 13.4751 12.0059C13.6191 12.1499 14.0905 12.6671 14.1152 12.7339L14.1211 12.7397L14.1152 12.7471C14.1152 12.8101 14.1713 12.7045 13.623 13.5513C10.9793 13.0135 9.88719 12.0499 8.65869 11.3291L9.07324 11.3716C8.65849 10.7213 8.52587 10.7493 7.72412 10.4546L8.09619 10.1587C7.78719 10.0529 7.45706 10.0533 7.10156 10.1763L7.36816 9.80273L7.32568 9.74268C6.80218 9.89418 6.62999 10.0669 6.53174 10.1411C6.49274 9.94761 6.43411 9.70566 6.09961 9.12891L6.06006 10.0796L5.5957 9.90381C5.6482 9.01731 5.78556 8.12702 6.06006 7.28027L6.10254 7.22168C6.14454 7.11968 6.24995 6.95401 6.4292 6.68701L6.51709 6.56836L6.06006 6.99902L6.24902 6.83496L5.89453 7.16162L5.74658 7.2041C6.17933 6.3566 6.55916 5.75171 6.88916 5.43896C7.21616 5.11196 7.45186 4.87706 7.59961 4.75781L7.37402 4.79883C6.97727 4.65108 6.69219 4.55014 6.50244 4.50439C6.59019 4.48714 6.63248 4.48682 6.61523 4.48682C6.97748 4.48682 7.23059 4.50308 7.35059 4.52783C7.53209 4.58633 7.72184 4.61572 7.91309 4.61572L7.9292 4.55566L7.63477 3.29736L8.10938 4.31689C8.20837 4.16314 8.27913 3.99295 8.31738 3.81445C8.37738 3.58945 8.50688 3.3583 8.67188 3.1333C8.83687 2.9083 8.93854 2.75961 8.99854 2.73486ZM9.86865 4.76074C9.787 4.77105 9.70767 4.80169 9.63867 4.85156C9.19242 5.08706 8.65364 5.58715 8.61914 5.63965C8.55914 5.69965 8.49921 5.84726 8.42871 6.11426C8.36196 6.38576 8.32839 6.66361 8.32764 6.94336C8.16264 6.66211 7.95819 6.7181 7.62744 6.73535L7.87793 7.00342C7.29818 7.00342 7.05786 7.54492 7.04736 7.56592C7.28661 7.56592 7.20955 7.29807 8.10205 7.13232C7.95055 6.91182 7.98545 6.95713 7.9292 6.90088C8.69195 7.49188 8.51018 7.6542 9.56543 7.73145L9.46289 7.56592C9.75839 7.31392 9.94466 6.95829 9.98291 6.57129C10.0429 6.00879 9.94158 5.53291 9.67383 5.11816L10.1309 4.85156C10.1331 4.82981 10.1268 4.80875 10.1133 4.7915C10.0342 4.76038 9.95031 4.75043 9.86865 4.76074ZM10.3052 4.99219L10.3228 5.08008L10.4546 5.16504L10.3667 5.18115L10.3843 5.28809C10.7038 5.27084 11.0208 5.34163 11.3013 5.49463C11.2135 5.30113 10.9487 4.99219 10.3052 4.99219ZM9.47754 5.21045C9.57348 5.22718 9.65074 5.33801 9.72949 5.55176C9.81724 5.83976 9.85221 6.14017 9.83496 6.44092C9.81696 6.76717 9.71678 7.04544 9.54053 7.25244C9.43853 7.37169 9.35019 7.45979 9.31494 7.51904C9.18219 7.53254 9.04922 7.52768 8.91797 7.50293L8.66748 7.38281L8.47852 7.15869C8.50702 6.80694 8.52316 6.49666 8.58691 6.24316C8.62891 5.97616 8.70675 5.7874 8.8125 5.63965C9.00225 5.41465 9.18525 5.2851 9.375 5.2251C9.41194 5.2101 9.44556 5.20487 9.47754 5.21045ZM10.6377 5.4668C10.4984 5.50596 10.4044 5.73621 10.3594 6.15527C10.2994 6.71402 10.4469 7.19359 10.7739 7.54834C11.1009 7.90309 11.4134 7.92081 11.6909 7.65381C11.9684 7.38681 11.8107 6.82406 11.2939 5.97656C11.1717 5.77481 10.9992 5.60795 10.793 5.4917H10.7915C10.7353 5.46189 10.6841 5.45374 10.6377 5.4668ZM10.6875 5.61621C10.7507 5.60095 10.8647 5.6614 11.0391 5.80371C11.2641 5.99346 11.4358 6.36654 11.5723 6.94629C11.8003 7.93104 10.8764 7.86839 10.6274 7.11914C10.8172 7.19639 10.9958 7.18511 11.0596 6.74561V6.58154L11.0171 6.59912C10.8656 6.49037 10.9293 6.44086 10.957 6.38086L10.9746 6.36328C10.9431 6.32128 10.7992 6.07734 10.5352 6.52734C10.5179 6.05259 10.5521 5.75848 10.6406 5.65723C10.6511 5.63529 10.6664 5.6213 10.6875 5.61621ZM15.46 5.80371C15.5552 5.87046 15.861 5.99394 16.125 6.40869C16.2727 6.70419 16.2654 6.75259 16.2437 6.79834C16.2264 6.88309 16.2267 6.95058 16.1382 7.04883C16.0782 7.13658 15.9486 7.21343 15.7236 7.31543C15.4566 6.85868 15.1441 6.48673 14.7466 6.21973L15.46 5.80371ZM16.0312 5.8125C16.231 5.8067 16.5077 5.92511 16.853 6.15967L16.8354 6.92871C17.0289 7.56471 17.4286 7.53369 17.6221 7.53369L17.5034 7.36816L18.2915 7.1792C17.975 7.1972 17.6573 7.1972 17.3408 7.1792C17.7908 7.1057 18.5128 6.16048 18.854 6.78223C18.9733 7.04923 19.0787 7.38653 19.1807 7.75928L19.2407 7.55127C19.1965 7.37652 19.1762 7.1966 19.1807 7.0166C19.3704 7.03385 19.4901 7.13559 19.5073 7.37109C19.5246 7.59609 19.5682 7.89272 19.6274 8.26172L19.7915 7.86328C19.9535 7.86328 19.9496 7.73706 19.7036 8.59131C18.9686 8.28531 18.4701 8.29541 18.0688 8.29541L18.709 7.73291C17.8195 8.02091 17.5492 8.11276 16.7827 8.46826C16.7437 8.27851 16.6072 7.99307 16.2202 7.76807C16.1077 7.90157 16.1218 7.80055 16.1953 8.28955H16.1074C16.0639 8.0023 15.963 7.72481 15.8115 7.47656L15.9595 7.35791C16.255 7.10816 16.3735 6.85515 16.3315 6.5874C16.3143 6.3624 16.1419 6.11212 15.8569 5.85938C15.9062 5.82975 15.9647 5.81443 16.0312 5.8125ZM9.13916 6.03223C8.85416 6.03223 8.73198 6.47858 8.85498 6.77783C8.89098 6.85508 8.96141 6.91003 9.04541 6.92578C9.10344 6.93564 9.37061 6.88347 9.37061 6.4043H9.35449C9.16474 6.3653 9.27709 6.212 9.32959 6.19775C9.26959 6.092 9.20966 6.04948 9.13916 6.03223ZM7.8501 7.70215C7.44127 7.732 7.21857 7.87109 7.1792 7.88965C7.19645 7.9069 7.28521 8.00856 7.38721 8.21631C7.53496 7.99131 7.69616 7.86077 7.92041 7.84277C7.85966 8.23727 7.87997 8.64083 7.98047 9.02783C7.98422 9.04508 8.07202 9.64048 8.94727 9.87598C9.34477 9.98173 9.89749 9.9173 10.667 9.68555L10.3433 9.70312C10.1955 9.18262 10.118 8.83102 10.1353 8.66602C10.5328 8.35627 10.9058 8.26891 11.2148 8.39941H11.3027L10.8882 8.13281L10.6377 8.14893C10.4299 8.19093 10.2055 8.29707 9.95654 8.44482L10.0649 8.21631C8.84169 8.72256 8.84367 8.70825 8.79492 8.71875C8.06367 8.88375 8.1276 7.86142 8.13135 7.84717L8.33789 7.80469L8.32178 7.7168C8.14421 7.69392 7.98637 7.6922 7.8501 7.70215ZM18.1699 7.95264L17.6484 8.40967L17.666 8.51074L18.2886 8.49316C18.6793 8.50741 19.067 8.55711 19.4487 8.64111L18.6196 8.729L18.5771 8.83447L19.5132 9.64746C19.8597 9.99546 20.1774 10.372 20.4624 10.7725C20.0687 10.6562 20.1 10.6523 19.7168 10.6523L20.1489 11.7949L19.834 11.3452L19.7461 11.3628L19.8516 11.6895C19.7286 11.8972 19.0187 13.2474 17.335 14.4917C15.946 15.5394 14.641 15.8662 14.4902 15.9082L14.2236 15.6592L14.1812 15.7646L14.6836 16.3271L14.4346 16.1616L14.5532 16.3096H14.5122L13.7417 15.835L14.0684 16.7695L13.4004 15.7896L13.3579 15.8774L13.626 16.8955C13.4115 16.6075 12.8872 15.7499 11.6279 15.5039L12.7705 16.2495C11.6748 16.416 10.5564 16.3382 9.49365 16.0239C9.3459 15.9819 9.18104 15.9374 9.01904 15.8774L9.06006 15.7705L7.48535 14.9839L8.40234 15.7705C6.37359 16.0908 4.43047 14.8779 3.95947 12.8394L3.87305 12.2622L3.08936 13.0459C3.77486 11.0246 3.99022 11.011 4.89697 10.582C4.57672 10.396 4.84014 10.4661 3.54639 10.2554C4.10214 10.0514 4.70654 9.71398 6.11279 10.4385C6.15404 10.4137 6.19816 10.3934 6.24316 10.3784C6.26416 10.2659 6.25732 10.3487 6.27832 9.9624C6.41557 10.3142 6.40479 10.2695 6.38379 10.2905L6.44385 10.3066C6.8901 10.0779 6.7565 10.1491 7.0415 9.99463L6.85254 10.4692L7.63623 10.2656L7.34033 10.5601L7.42822 10.6479C7.58647 10.5849 8.49255 10.7672 8.8623 11.2104L8.0332 11.1226C9.41845 11.9311 9.84313 13.0221 9.99463 13.5703L10.0547 13.5278C9.95644 12.7441 9.61894 12.3354 9.49219 12.1172C9.63994 12.2927 10.8705 13.3339 13.374 13.7344C12.9765 13.7171 12.5612 13.9247 12.1465 14.3994L13.7886 13.689L13.4619 14.4595C13.7289 14.1047 13.9825 13.6304 14.2075 13.0679V13.0503L14.2485 12.9448L14.2075 13.5073C14.6823 12.0381 15.0964 10.7469 15.4512 9.65039L15.9258 8.67334V8.60303L15.7368 8.45508H16.0913L16.2993 8.60303L16.3872 8.56055L16.2671 7.99805L16.7007 8.66309L18.1699 7.95264ZM19.6187 8.8374L19.4824 9.29443L18.98 8.87988L19.6187 8.8374ZM10.6611 9.08789C10.7211 9.46064 10.8269 9.71065 10.9717 9.8584C10.6447 10.0901 10.0037 10.3474 9.33545 10.4209L9.35303 10.4619C9.64628 10.5062 9.94707 10.476 10.2261 10.374L9.97559 10.8311C10.1233 10.7711 10.3304 10.5818 10.5981 10.311C11.0166 10.1175 11.0446 10.1318 11.3086 9.74854C10.8623 9.52354 10.7564 9.26714 10.6611 9.08789ZM4.61572 14.6704C6.36997 16.6077 8.7958 15.9884 8.85205 15.9741C10.0753 16.5509 11.3104 16.8044 12.8569 16.3477C12.9732 16.3477 13.5706 16.9447 13.7461 17.7217L13.894 17.6162L13.8062 16.7871C14.1227 17.1036 14.6809 17.5802 15.0146 17.2427C14.4664 17.0567 14.1883 16.9101 13.9775 16.1294C14.1395 16.2771 14.2443 16.4445 14.9546 16.6553L15 16.6143L14.6309 16.1147C15.0419 15.946 14.5079 16.1501 15.7559 15.7354C15.9066 16.9414 16.0718 17.4666 15.7793 18.8833C14.025 19.7623 13.8071 19.6702 13.7051 19.7227C12.6573 19.3079 11.9159 18.6083 11.4727 17.6558L12.5273 18.2358C12.1831 17.9088 11.8833 17.6552 11.1768 16.6772L11.5913 17.4902L10.9702 17.2236C11.4697 17.9654 11.796 19.0397 13.311 19.8062C9.06379 20.6567 6.31431 17.2716 6.24756 17.1943C6.63756 17.5183 7.05468 17.8109 7.49268 18.0674C7.61193 18.1274 7.74217 18.1541 7.84717 18.1084L7.28467 17.3818C7.60792 17.5296 7.61788 17.5389 9.71338 18.3999C8.21938 17.6724 7.11902 16.9664 6.43652 16.2847C6.41927 16.5097 6.39551 16.6392 6.39551 16.6392C6.70151 16.8957 6.94882 17.2137 7.12207 17.5737C5.75107 16.9092 5.09722 15.9012 4.61572 14.6704Z" fill="black"/>
</svg>
