<svg width="24" height="24" viewBox="0 0 24 24" fill="none" xmlns="http://www.w3.org/2000/svg">
<path d="M11.8799 2.24858C11.5159 2.25083 11.1522 2.33587 10.856 2.502L4.04297 6.3311C3.43847 6.6701 3 7.41224 3 8.09624V15.8584C3 16.5379 3.43636 17.2801 4.03711 17.6221L10.8545 21.4952C11.1552 21.6662 11.5233 21.7515 11.8931 21.7515C12.2531 21.7515 12.6135 21.6703 12.9082 21.5083L19.9526 17.6207C20.5594 17.2809 21 16.5402 21 15.8584V8.09624C21 7.40774 20.5565 6.66628 19.9468 6.33403L12.9053 2.48882C12.6071 2.32644 12.2439 2.24633 11.8799 2.24858ZM11.8945 3.75005C12.007 3.75005 12.1185 3.76746 12.1875 3.80571L19.229 7.65239C19.3528 7.71989 19.5 7.96049 19.5 8.09624V15.8584C19.5 15.9829 19.3596 16.2332 19.2246 16.3082L12.1816 20.1944C12.0444 20.2701 11.7322 20.2695 11.5957 20.1915L4.77832 16.3184C4.63957 16.2404 4.5 15.9844 4.5 15.8584V8.09624C4.5 7.95824 4.64936 7.71046 4.77686 7.63921L11.5898 3.8101C11.6603 3.7696 11.7783 3.75005 11.8945 3.75005ZM15.8848 9.85258C13.1053 9.85258 13.0018 14.1475 15.8848 14.1475C18.7063 14.1468 18.7033 9.85258 15.8848 9.85258ZM7.94238 9.92876C7.29513 9.92876 6.64725 9.93462 6 9.93462V14.0538H6.77637V12.8409H7.94238C9.95988 12.8409 9.95463 9.92876 7.94238 9.92876ZM9.98291 9.92876V14.0538H10.7607V12.6768H11.5078L12.7075 14.0538H13.6318V14.001L12.3838 12.5948C13.886 12.2895 13.7969 9.94587 11.9429 9.93462C11.2896 9.93462 10.6362 9.92876 9.98291 9.92876ZM15.8848 10.5586C17.6758 10.5586 17.7035 13.4356 15.8848 13.4356C14.066 13.4356 14.081 10.5586 15.8848 10.5586ZM6.75146 10.5923H8.06396C8.92421 10.5923 8.92122 12.17 8.06396 12.17H6.75146V10.5923ZM10.7607 10.6582H11.9429C12.8909 10.6582 12.8871 11.9766 11.9429 11.9766H10.7607V10.6582Z" fill="black"/>
</svg>
