<svg width="24" height="24" viewBox="0 0 24 24" fill="none" xmlns="http://www.w3.org/2000/svg">
<path d="M15.1143 3C14.5615 3 14.0282 3.23057 13.6465 3.64307C13.4462 3.61232 13.2347 3.60352 13.0239 3.60352C11.1557 3.60352 9.41844 4.5972 8.28369 6.04395C7.93194 6.4962 7.80176 6.79751 7.52051 7.23926C7.47026 7.33976 7.33977 7.4393 7.27002 7.5293C7.11777 7.70105 6.97714 7.88375 6.84814 8.07275C6.69739 7.72175 6.40569 7.5498 6.03369 7.5498C3.71319 7.5498 3 11.4273 3 13.1748C3 13.6773 3.03998 14.31 3.24023 14.7832C3.66173 15.7875 4.87812 17.0832 5.65137 17.8564C4.91562 18.3064 4.043 18.4111 3.2915 18.2476C3.734 18.8603 4.38613 19.3224 5.11963 19.5234C4.77763 19.6442 4.41619 19.7158 4.05469 19.7256C4.64719 20.2378 5.40107 20.5283 6.17432 20.5283C6.90782 20.5283 7.59132 20.2777 8.16357 19.8457C8.16357 20.448 8.53475 21 9.19775 21C9.5495 21 9.8798 20.7991 10.0605 20.4976C10.251 20.7991 10.5736 21 10.9351 21C11.2868 21 11.6186 20.7991 11.7993 20.4976C11.9898 20.7991 12.3206 21 12.6724 21C13.0241 21 13.3564 20.7991 13.5469 20.4976C13.7276 20.7991 14.0594 21 14.4111 21C14.9939 21 15.4351 20.4971 15.4351 19.9248V18.7793L15.4761 18.769C16.6513 18.4375 18.9209 17.1628 19.7241 16.2891C20.5979 15.3253 21 12.995 21 11.729C21 10.7953 20.8289 9.57926 20.0962 8.92676C19.8254 8.68601 19.4633 8.43457 19.0913 8.43457C18.8498 8.43457 18.64 8.55558 18.4893 8.73633C18.2485 7.29933 17.615 5.9137 16.5103 4.93945C16.5703 4.86895 16.6714 4.788 16.6714 4.6875C16.6714 4.506 16.2684 4.31588 16.1177 4.26562C16.2084 4.16513 16.5703 3.82337 16.5703 3.69287C16.5703 3.65237 16.5505 3.60275 16.5205 3.57275C16.159 3.21125 15.6265 3 15.1143 3ZM10.7432 4.84863C11.4362 4.84863 11.8784 5.51055 11.8784 6.14355C11.8784 6.7863 11.4362 7.4502 10.7432 7.4502C10.0502 7.4502 9.60938 6.7863 9.60938 6.14355C9.60938 5.51055 10.0509 4.84863 10.7432 4.84863ZM10.9351 5.33936C10.5338 5.33936 10.3125 5.75225 10.3125 6.104C10.3125 6.46625 10.5338 6.86719 10.9351 6.86719C11.3266 6.86719 11.5576 6.4655 11.5576 6.104C11.5576 5.75225 11.3266 5.33936 10.9351 5.33936ZM14.9429 5.83301C16.9814 5.83301 18.1978 7.66082 18.1978 9.54932C18.1978 10.9158 17.6048 12.3111 16.5908 13.2261C17.0506 10.9266 14.6399 11.9297 13.6274 11.9297C11.2057 11.9297 11.4686 9.46339 12.1714 7.12939C12.8839 6.36589 13.8779 5.83301 14.9429 5.83301ZM11.6587 7.771C11.4877 8.44375 11.3569 9.12731 11.3569 9.82031C11.3569 12.1993 12.8977 12.5158 15.126 12.0703C15.276 12.0403 15.4372 12.0103 15.5977 12.0103C16.0994 12.0103 16.3198 12.2607 16.3198 12.7632C16.3198 13.0347 16.26 13.2961 16.1895 13.5571C15.5767 13.9891 14.8331 14.2603 14.0801 14.2603C11.1836 14.2603 9.82944 10.567 11.6587 7.771ZM6.81738 8.70557C6.67713 9.27782 6.60645 9.86062 6.60645 10.4531C6.60645 13.6879 8.8567 16.6611 12.252 16.6611C14.6527 16.6611 16.7412 15.1337 17.8257 13.0547C17.7252 15.0339 16.8419 16.9923 15.3149 18.2681C15.1447 17.9366 14.7929 17.7056 14.4111 17.7056C14.0594 17.7056 13.7276 17.9065 13.5469 18.208C13.3564 17.9065 13.0241 17.7056 12.6724 17.7056C12.3206 17.7056 11.9898 17.9065 11.7993 18.208C11.6186 17.9065 11.2868 17.7056 10.9351 17.7056C10.5736 17.7056 10.251 17.9065 10.0605 18.208C9.8798 17.9065 9.5495 17.7056 9.19775 17.7056C8.8055 17.7056 8.46444 17.9356 8.28369 18.2769C6.64644 16.9006 5.77148 14.7421 5.77148 12.6226C5.77148 11.2568 6.11388 9.89057 6.81738 8.70557ZM9.19775 18.0469C9.59975 18.0469 9.91113 18.3878 9.91113 18.7793V19.9248C9.91113 20.3268 9.59975 20.6689 9.19775 20.6689C8.79575 20.6689 8.49316 20.3163 8.49316 19.9248V18.7793C8.49316 18.387 8.79575 18.0469 9.19775 18.0469ZM10.9351 18.0469C11.3371 18.0469 11.6382 18.3878 11.6382 18.7793V19.9248C11.6382 20.3163 11.3371 20.6689 10.9351 20.6689C10.5331 20.6689 10.2217 20.3163 10.2217 19.9248V18.7793C10.2217 18.387 10.5331 18.0469 10.9351 18.0469ZM12.6724 18.0469C13.0744 18.0469 13.3857 18.3878 13.3857 18.7793V19.9248C13.3857 20.3268 13.0744 20.6689 12.6724 20.6689C12.2704 20.6689 11.959 20.3163 11.959 19.9248V18.7793C11.959 18.387 12.2704 18.0469 12.6724 18.0469ZM14.4214 18.0469C14.8234 18.0469 15.1348 18.3878 15.1348 18.7793V19.9248C15.1348 20.3163 14.8234 20.6689 14.4214 20.6689C14.0194 20.6689 13.708 20.3163 13.708 19.9248V18.7793C13.708 18.387 14.0194 18.0469 14.4214 18.0469Z" fill="black"/>
</svg>
