<svg width="24" height="24" viewBox="0 0 24 24" fill="none" xmlns="http://www.w3.org/2000/svg">
<path d="M16.3125 3C15.1113 3 13.8984 3.46875 12.9844 4.38281L7.24219 10.1016L7.14844 10.2188C6.41602 10.9512 6 11.9502 6 12.9844V14.7188L3.67969 17.0156L3.65625 17.0625C2.79199 17.9678 2.78906 19.4297 3.67969 20.3203C4.58203 21.2227 6.08203 21.2227 6.98437 20.3203L9.28125 18H11.0156C12.0498 18 13.0488 17.584 13.7812 16.8516L19.6172 11.0156C21.4424 9.19043 21.4424 6.20801 19.6172 4.38281C18.7031 3.46875 17.5137 3 16.3125 3ZM16.3125 4.5C17.127 4.5 17.9355 4.81055 18.5625 5.4375C19.8164 6.69141 19.8164 8.70703 18.5625 9.96094L12.7266 15.7969C12.2754 16.248 11.6543 16.5 11.0156 16.5H8.67187L5.90625 19.2656C5.57812 19.5938 5.0625 19.5938 4.73437 19.2656C4.40625 18.9375 4.40625 18.4219 4.73437 18.0938L7.5 15.3281V12.9844C7.5 12.3457 7.75195 11.7246 8.20312 11.2734L8.83594 10.6406L9.58594 11.4141L10.6641 10.3359L9.91406 9.58594L11.0859 8.41406L11.8359 9.16406L12.9141 8.08594L12.1641 7.33594L13.3359 6.16406L14.0859 6.91406L15.1641 5.83594L14.4375 5.10938C15 4.70215 15.6562 4.5 16.3125 4.5ZM16.7109 6.21094L7.54687 15.375L8.625 16.4531L17.7891 7.28906L16.7109 6.21094Z" fill="black"/>
</svg>
