<svg width="24" height="24" viewBox="0 0 24 24" fill="none" xmlns="http://www.w3.org/2000/svg">
<path d="M9 3V11.625C7.65 12.6 6.75 14.025 6.75 15.75C6.75 18.675 9.075 21 12 21C14.925 21 17.25 18.675 17.25 15.75C17.25 14.025 16.35 12.525 15 11.625V10.5H16.5V9H15V7.5H16.5V6H15V4.5H16.5V3H9ZM10.5 4.5H13.5V12.3003L13.875 12.5244C15 13.1244 15.75 14.4 15.75 15.75C15.75 17.85 14.1 19.5 12 19.5C9.9 19.5 8.25 17.85 8.25 15.75C8.25 14.4 9 13.1244 10.125 12.5244L10.5 12.3003V4.5ZM10.3506 14.25C9.97559 14.625 9.75 15.15 9.75 15.75C9.75 17.025 10.725 18 12 18C13.275 18 14.25 17.025 14.25 15.75C14.25 15.15 14.0244 14.625 13.6494 14.25H10.3506Z" fill="black"/>
</svg>
