<svg width="24" height="24" viewBox="0 0 24 24" fill="none" xmlns="http://www.w3.org/2000/svg">
<path d="M9.75 3.75V12C8.44629 12.7881 7.5 14.1211 7.5 15.75C7.5 18.2256 9.52441 20.25 12 20.25C14.4756 20.25 16.5 18.2256 16.5 15.75C16.5 14.1211 15.5537 12.7881 14.25 12V11.25H15.75V9.75H14.25V8.25H15.75V6.75H14.25V5.25H15.75V3.75H9.75ZM11.25 5.25H12.75V12.7969L13.1953 13.0078C14.2529 13.4707 15 14.5137 15 15.75C15 17.4141 13.6641 18.75 12 18.75C10.3359 18.75 9 17.4141 9 15.75C9 14.5137 9.74707 13.4707 10.8047 13.0078L11.25 12.7969V5.25Z" fill="black"/>
</svg>
