<svg width="24" height="24" viewBox="0 0 24 24" fill="none" xmlns="http://www.w3.org/2000/svg">
<path d="M7.61719 4.5C6.55957 4.5 5.63672 5.24707 5.41406 6.28125L3.79688 13.7812C3.50098 15.167 4.58496 16.5 6 16.5H10.3125L10.1719 17.0625C10.0195 17.1797 9.92285 17.2295 9.70313 17.5312C9.35156 18.0117 9 18.7559 9 19.7578C9 20.8271 9.9668 21.75 11.1797 21.75H11.4844L11.7188 21.5391L16.8047 16.5H20.25V4.5H7.61719ZM7.61719 6H15.75V15.4453L10.9453 20.1797C10.6289 20.1182 10.5 19.9893 10.5 19.7578C10.5 19.0811 10.7051 18.6621 10.8984 18.3984C11.0918 18.1348 11.2266 18.0703 11.2266 18.0703L11.4844 17.9297L11.5781 17.625L12.0234 15.9375L12.2578 15H6C5.50489 15 5.1709 14.5693 5.27344 14.0859L6.86719 6.58594C6.94336 6.23438 7.25977 6 7.61719 6ZM17.25 6H18.75V15H17.25V6Z" fill="black"/>
</svg>
