<svg width="24" height="24" viewBox="0 0 24 24" fill="none" xmlns="http://www.w3.org/2000/svg">
<path d="M1.5 5.25V10.5H2.25C3.14355 10.5 3.75 11.1064 3.75 12C3.75 12.8936 3.14355 13.5 2.25 13.5H1.5V18.75H22.5V13.5H21.75C20.8564 13.5 20.25 12.8936 20.25 12C20.25 11.1064 20.8564 10.5 21.75 10.5H22.5V5.25H1.5ZM3 6.75H21V9.14062C19.7139 9.47754 18.75 10.6084 18.75 12C18.75 13.3916 19.7139 14.5225 21 14.8594V17.25H3V14.8594C4.28613 14.5225 5.25 13.3916 5.25 12C5.25 10.6084 4.28613 9.47754 3 9.14062V6.75Z" fill="black"/>
</svg>
