<svg width="24" height="24" viewBox="0 0 24 24" fill="none" xmlns="http://www.w3.org/2000/svg">
<path d="M2.79053 1.70947L1.70947 2.79053L7.54541 8.625L8.63232 9.71191L16.2451 17.3247L17.3174 18.397L21.2095 22.2905L22.2905 21.2095L18.1362 17.0552C18.5303 16.1993 18.75 15.2498 18.75 14.25C18.75 13.2 18.3301 12.06 17.7451 10.875C17.1526 9.69 16.3729 8.45947 15.6079 7.33447C14.0854 5.08447 12.5845 3.28564 12.5845 3.28564L12 2.57959L11.4155 3.28564C11.4155 3.28564 9.92146 5.07808 8.40234 7.32129L2.79053 1.70947ZM12 4.99512C12.42 5.51262 13.2071 6.42762 14.3921 8.18262C15.1271 9.27012 15.8474 10.4626 16.3799 11.5576C16.9199 12.6451 17.25 13.65 17.25 14.25C17.25 14.8259 17.1557 15.3817 16.9819 15.9009L9.47314 8.39209C9.51864 8.32333 9.5626 8.25059 9.60791 8.18262C10.7929 6.42762 11.58 5.51262 12 4.99512ZM6.77197 9.91553C6.58447 10.238 6.41238 10.56 6.25488 10.875C5.66988 12.06 5.25 13.2 5.25 14.25C5.25 17.9625 8.2875 21 12 21C13.635 21 15.1277 20.4148 16.3052 19.4473L15.2256 18.3677C14.3331 19.0802 13.2075 19.5 12 19.5C9.1125 19.5 6.75 17.1375 6.75 14.25C6.75 13.65 7.08012 12.6451 7.62012 11.5576C7.70262 11.3851 7.79215 11.2132 7.88965 11.0332L6.77197 9.91553ZM8.25 14.25C8.25 14.5078 8.276 14.7594 8.32617 15.0029C8.37634 15.2465 8.45068 15.4819 8.5459 15.7061C8.73633 16.1543 9.01172 16.5586 9.35156 16.8984C9.69141 17.2383 10.0957 17.5137 10.5439 17.7041C10.7681 17.7993 11.0035 17.8737 11.2471 17.9238C11.3688 17.9489 11.492 17.9681 11.6177 17.981C11.7433 17.9938 11.8711 18 12 18V16.5C11.8453 16.5 11.6935 16.4847 11.5474 16.4546C11.4012 16.4245 11.2614 16.3799 11.127 16.3228C10.9925 16.2656 10.8644 16.1958 10.7446 16.1147C10.6249 16.0337 10.5126 15.9413 10.4106 15.8394C10.3087 15.7374 10.2163 15.6251 10.1353 15.5054C10.0542 15.3856 9.98438 15.2575 9.92725 15.123C9.87012 14.9886 9.82551 14.8488 9.79541 14.7026C9.76531 14.5565 9.75 14.4047 9.75 14.25H8.25Z" fill="black"/>
</svg>
