<svg width="24" height="24" viewBox="0 0 24 24" fill="none" xmlns="http://www.w3.org/2000/svg">
<path d="M6.75 5.25C6.28418 5.25 5.83008 5.2998 5.39062 5.39062C5.1709 5.43457 4.94531 5.49023 4.73438 5.55469C2.84473 6.15234 1.30664 7.56445 0.539062 9.375C0.454102 9.57715 0.369141 9.77344 0.304688 9.98438C0.102539 10.623 0 11.2939 0 12C0 12.6973 0.108398 13.3594 0.304688 13.9922C0.307617 13.998 0.301758 14.0098 0.304688 14.0156C0.902344 15.9053 2.31445 17.4434 4.125 18.2109C4.32715 18.2959 4.52344 18.3809 4.73438 18.4453C5.37305 18.6475 6.04395 18.75 6.75 18.75H17.25C20.9678 18.75 24 15.7178 24 12C24 8.28223 20.9678 5.25 17.25 5.25H6.75ZM6.75 6.75C9.65918 6.75 12 9.09082 12 12C12 14.9092 9.65918 17.25 6.75 17.25C3.84082 17.25 1.5 14.9092 1.5 12C1.5 11.8184 1.50586 11.6367 1.52344 11.4609C1.79004 8.80664 4.02246 6.75 6.75 6.75ZM10.9688 6.75H17.25C20.1592 6.75 22.5 9.09082 22.5 12C22.5 14.9092 20.1592 17.25 17.25 17.25H10.9688C12.5068 16.0107 13.5 14.1211 13.5 12C13.5 9.87891 12.5068 7.98926 10.9688 6.75Z" fill="black"/>
</svg>
