<svg width="24" height="24" viewBox="0 0 24 24" fill="none" xmlns="http://www.w3.org/2000/svg">
<path d="M4.5 3C4.10742 3 3.70605 3.1377 3.42188 3.42188C3.1377 3.70605 3 4.10742 3 4.5V12.75C3 14.8418 4.23926 16.5879 6 17.6953V21H17.25V17.6953C19.0107 16.5879 20.25 14.8418 20.25 12.75V12H10.5V4.5C10.5 4.10742 10.3623 3.70605 10.0781 3.42188C9.79395 3.1377 9.39258 3 9 3H4.5ZM4.5 4.5H9V12H4.5V4.5ZM6 6V8.25H7.5V6H6ZM4.73438 13.5H18.5156C18.249 14.7949 17.4902 15.9375 16.1484 16.6641L15.75 16.875V19.5H7.5V16.875L7.10156 16.6641C5.75977 15.9375 5.00098 14.7949 4.73438 13.5Z" fill="black"/>
</svg>
