<svg width="24" height="24" viewBox="0 0 24 24" fill="none" xmlns="http://www.w3.org/2000/svg">
<path d="M9.96094 3C8.11523 3 6.53906 3.58887 5.4375 4.64062C4.33594 5.69238 3.75 7.18945 3.75 8.88281C3.75 10.1602 4.23926 11.1445 4.73438 12.0234C5.22949 12.9023 5.72754 13.6904 6 14.6719C6.32813 15.8818 6.55664 17.3291 6.9375 18.5391C7.12793 19.1426 7.35645 19.6934 7.71094 20.1562C8.06543 20.6191 8.62793 21 9.28125 21C9.9082 21 10.5322 20.6748 10.8516 20.1797C11.1709 19.6846 11.25 19.0986 11.25 18.4688C11.25 17.6953 11.25 16.4883 11.4141 15.5391C11.4961 15.0645 11.6367 14.6689 11.7656 14.4609C11.8945 14.2529 11.9004 14.25 12 14.25C12.0996 14.25 12.1055 14.25 12.2344 14.4609C12.3633 14.6719 12.5039 15.0645 12.5859 15.5391C12.7529 16.4883 12.75 17.6953 12.75 18.4688C12.75 19.0986 12.8291 19.6846 13.1484 20.1797C13.4678 20.6748 14.0918 21 14.7188 21C15.375 21 15.9375 20.6221 16.2891 20.1562C16.6406 19.6904 16.8721 19.1221 17.0625 18.5156C17.4434 17.3027 17.6748 15.8613 18 14.6719C18.2725 13.6904 18.7705 12.9023 19.2656 12.0234C19.7607 11.1445 20.25 10.1602 20.25 8.88281C20.2881 5.47852 17.6953 3 14.2969 3C13.3096 3 12.1436 3.36621 11.9531 3.42188C11.3438 3.18164 10.6787 3 9.96094 3ZM9.96094 4.5C11.6982 4.5 13.6875 6.32812 13.6875 6.32812L14.7422 5.25C14.7422 5.25 14.2471 4.86035 13.8984 4.57031C14.0566 4.54688 14.1943 4.5 14.2969 4.5C17.0127 4.5 18.7793 6.17871 18.75 8.85938V8.88281C18.75 9.79102 18.4395 10.4766 17.9766 11.2969C17.5137 12.1172 16.8896 13.0342 16.5469 14.2734C16.1895 15.5771 15.9609 17.0215 15.6328 18.0703C15.4688 18.5947 15.2666 19.0166 15.0938 19.2422C14.9209 19.4678 14.8652 19.5 14.7188 19.5C14.4902 19.5 14.4902 19.4766 14.4141 19.3594C14.3379 19.2422 14.25 18.9316 14.25 18.4688C14.25 17.7041 14.2646 16.4355 14.0625 15.2812C13.96 14.7041 13.8193 14.1475 13.5234 13.6641C13.2275 13.1807 12.6621 12.75 12 12.75C11.3379 12.75 10.7725 13.1807 10.4766 13.6641C10.1807 14.1475 10.0371 14.7041 9.9375 15.2812C9.73535 16.4355 9.75 17.7041 9.75 18.4688C9.75 18.9316 9.66211 19.2422 9.58594 19.3594C9.50977 19.4766 9.50977 19.5 9.28125 19.5C9.13184 19.5 9.07617 19.4648 8.90625 19.2422C8.73633 19.0195 8.53125 18.6152 8.36719 18.0938C8.03906 17.0508 7.81055 15.5918 7.45313 14.2734C7.11035 13.0342 6.48633 12.1172 6.02344 11.2969C5.56055 10.4766 5.25 9.79395 5.25 8.88281C5.25 7.53223 5.7041 6.46875 6.49219 5.71875C7.28027 4.96875 8.42285 4.5 9.96094 4.5Z" fill="black"/>
</svg>
