<svg width="24" height="24" viewBox="0 0 24 24" fill="none" xmlns="http://www.w3.org/2000/svg">
<path d="M2.20312 3.72656V5.08594L2.4375 5.32031L5.4375 8.0625L5.67188 8.25H6.75V10.5H5.25V12H6.75V20.25H8.25V12H15.75V20.25H17.25V12H18.75V10.5H17.25V8.25H18.2812L18.5156 8.0625L21.5156 5.32031L21.75 5.08594V3.72656L20.8359 3.9375C20.8096 3.94336 17.6455 4.5 12 4.5C6.35449 4.5 3.14355 3.94336 3.11719 3.9375L2.20312 3.72656ZM5.08594 5.67188C6.6709 5.83008 8.93555 6 12 6C15.041 6 17.2939 5.82715 18.8672 5.67188L17.6953 6.75H6.25781L5.08594 5.67188ZM8.25 8.25H10.5V10.5H8.25V8.25ZM13.5 8.25H15.75V10.5H13.5V8.25Z" fill="black"/>
</svg>
