<svg width="24" height="24" viewBox="0 0 24 24" fill="none" xmlns="http://www.w3.org/2000/svg">
<path d="M5.25 3.75V9.1875C4.23926 9.41602 3.31348 9.84961 2.53125 10.4766L3.46875 11.6484C4.36816 10.9277 5.50488 10.5 6.75 10.5C9.65918 10.5 12 12.8408 12 15.75H15.4219C15.1611 16.1953 15 16.6992 15 17.25C15 18.8994 16.3506 20.25 18 20.25C19.6494 20.25 21 18.8994 21 17.25C21 16.4795 20.6865 15.791 20.2031 15.2578L21.7031 11.5312L21.75 11.3906V9.75H18V7.5C18 7.0752 18.3252 6.75 18.75 6.75V5.25C17.5166 5.25 16.5 6.2666 16.5 7.5V9.75H14.0156L11.9531 4.24219L11.7656 3.75H5.25ZM6.75 5.25H10.7344L12.7969 10.7578L12.9844 11.25H20.1797L18.9844 14.25H13.3125C12.624 11.2529 9.95215 9 6.75 9V5.25ZM6.75 11.25C4.27441 11.25 2.25 13.2744 2.25 15.75C2.25 18.2256 4.27441 20.25 6.75 20.25C9.22559 20.25 11.25 18.2256 11.25 15.75C11.25 13.2744 9.22559 11.25 6.75 11.25ZM6.75 12.75C8.41699 12.75 9.75 14.083 9.75 15.75C9.75 17.417 8.41699 18.75 6.75 18.75C5.08301 18.75 3.75 17.417 3.75 15.75C3.75 14.083 5.08301 12.75 6.75 12.75ZM6.75 14.25C5.9209 14.25 5.25 14.9209 5.25 15.75C5.25 16.5791 5.9209 17.25 6.75 17.25C7.5791 17.25 8.25 16.5791 8.25 15.75C8.25 14.9209 7.5791 14.25 6.75 14.25ZM18 15.75C18.8379 15.75 19.5 16.4121 19.5 17.25C19.5 18.0879 18.8379 18.75 18 18.75C17.1621 18.75 16.5 18.0879 16.5 17.25C16.5 16.4121 17.1621 15.75 18 15.75Z" fill="black"/>
</svg>
