<svg width="24" height="24" viewBox="0 0 24 24" fill="none" xmlns="http://www.w3.org/2000/svg">
<path d="M7.5 3V5.25H5.25V6C5.25 7.41504 5.80957 8.40527 6.46875 8.97656C6.7998 9.26367 7.15137 9.46875 7.45312 9.58594C7.4707 9.5918 7.48242 9.58008 7.5 9.58594V9.75H5.25V10.5C5.25 11.915 5.80957 12.9053 6.46875 13.4766C6.7998 13.7637 7.15137 13.9688 7.45312 14.0859C7.4707 14.0918 7.48242 14.0801 7.5 14.0859V14.25H5.25V15C5.25 16.415 5.80957 17.4053 6.46875 17.9766C6.7998 18.2637 7.15137 18.4688 7.45312 18.5859C7.4707 18.5918 7.48242 18.5801 7.5 18.5859V21H16.5V18.5859C16.5176 18.5801 16.5293 18.5918 16.5469 18.5859C16.8486 18.4688 17.2002 18.2637 17.5312 17.9766C18.1904 17.4053 18.75 16.415 18.75 15V14.25H16.5V14.0859C16.5176 14.0801 16.5293 14.0918 16.5469 14.0859C16.8486 13.9688 17.2002 13.7637 17.5312 13.4766C18.1904 12.9053 18.75 11.915 18.75 10.5V9.75H16.5V9.58594C16.5176 9.58008 16.5293 9.5918 16.5469 9.58594C16.8486 9.46875 17.2002 9.26367 17.5312 8.97656C18.1904 8.40527 18.75 7.41504 18.75 6V5.25H16.5V3H7.5ZM9 4.5H15V6.75H17.1094C16.9805 7.25391 16.7959 7.6377 16.5469 7.85156C16.3652 8.00977 16.166 8.11816 16.0078 8.17969C15.8496 8.24121 15.6885 8.25 15.75 8.25H15V11.25H17.1094C16.9805 11.7539 16.7959 12.1377 16.5469 12.3516C16.3652 12.5098 16.166 12.6182 16.0078 12.6797C15.8496 12.7412 15.6885 12.75 15.75 12.75H15V15.75H17.1094C16.9805 16.2539 16.7959 16.6377 16.5469 16.8516C16.3652 17.0098 16.166 17.1182 16.0078 17.1797C15.8496 17.2412 15.6885 17.25 15.75 17.25H15V19.5H9V17.25H8.25C8.31152 17.25 8.15039 17.2412 7.99219 17.1797C7.83398 17.1182 7.63477 17.0098 7.45312 16.8516C7.2041 16.6377 7.01953 16.2539 6.89062 15.75H9V12.75H8.25C8.31152 12.75 8.15039 12.7412 7.99219 12.6797C7.83398 12.6182 7.63477 12.5098 7.45312 12.3516C7.2041 12.1377 7.01953 11.7539 6.89062 11.25H9V8.25H8.25C8.31152 8.25 8.15039 8.24121 7.99219 8.17969C7.83398 8.11816 7.63477 8.00977 7.45312 7.85156C7.2041 7.6377 7.01953 7.25391 6.89062 6.75H9V4.5ZM12 6C11.1709 6 10.5 6.6709 10.5 7.5C10.5 8.3291 11.1709 9 12 9C12.8291 9 13.5 8.3291 13.5 7.5C13.5 6.6709 12.8291 6 12 6ZM12 10.5C11.1709 10.5 10.5 11.1709 10.5 12C10.5 12.8291 11.1709 13.5 12 13.5C12.8291 13.5 13.5 12.8291 13.5 12C13.5 11.1709 12.8291 10.5 12 10.5ZM12 15C11.1709 15 10.5 15.6709 10.5 16.5C10.5 17.3291 11.1709 18 12 18C12.8291 18 13.5 17.3291 13.5 16.5C13.5 15.6709 12.8291 15 12 15Z" fill="black"/>
</svg>
