<svg width="24" height="24" viewBox="0 0 24 24" fill="none" xmlns="http://www.w3.org/2000/svg">
<path d="M10.5 2.25C9.55664 2.25 8.88574 2.91797 8.55469 3.75H7.5C5.4375 3.75 3.75 5.4375 3.75 7.5V15.75C3.75 17.5693 4.83691 19.1426 6.39844 19.8516L4.5 21.75H6.25781L7.78125 20.2266C7.93066 20.2412 8.09473 20.25 8.25 20.25H15.75C15.9053 20.25 16.0693 20.2412 16.2188 20.2266L17.7422 21.75H19.5L17.6016 19.8516C19.1631 19.1426 20.25 17.5693 20.25 15.75V7.5C20.25 5.4375 18.5625 3.75 16.5 3.75H15.4453C15.1143 2.91797 14.4434 2.25 13.5 2.25H10.5ZM10.5 3.75H13.5C13.9248 3.75 14.25 4.0752 14.25 4.5V5.25H16.5C17.4902 5.25 18.3281 5.87109 18.6328 6.75H5.36719C5.67188 5.87109 6.50977 5.25 7.5 5.25H9.75V4.5C9.75 4.0752 10.0752 3.75 10.5 3.75ZM5.25 8.25H18.75V12H5.25V8.25ZM5.25 13.5H18.75V15.75C18.75 17.4141 17.4141 18.75 15.75 18.75H8.25C6.58594 18.75 5.25 17.4141 5.25 15.75V13.5ZM12 14.25C11.1709 14.25 10.5 14.9209 10.5 15.75C10.5 16.5791 11.1709 17.25 12 17.25C12.8291 17.25 13.5 16.5791 13.5 15.75C13.5 14.9209 12.8291 14.25 12 14.25Z" fill="black"/>
</svg>
