<svg width="24" height="24" viewBox="0 0 24 24" fill="none" xmlns="http://www.w3.org/2000/svg">
<path d="M14.25 2.25V3.75H16.9453L13.6406 7.05469C12.7617 6.39258 11.6807 6 10.5 6C7.6084 6 5.25 8.3584 5.25 11.25C5.25 13.8867 7.21289 16.0635 9.75 16.4297V18.75H7.5V20.25H9.75V22.5H11.25V20.25H13.5V18.75H11.25V16.4297C13.7871 16.0635 15.75 13.8867 15.75 11.25C15.75 10.0693 15.3574 8.98828 14.6953 8.10938L18 4.80469V7.5H19.5V2.25H14.25ZM10.5 7.5C12.5801 7.5 14.25 9.16992 14.25 11.25C14.25 13.3301 12.5801 15 10.5 15C8.41992 15 6.75 13.3301 6.75 11.25C6.75 9.16992 8.41992 7.5 10.5 7.5Z" fill="black"/>
</svg>
