<svg width="24" height="24" viewBox="0 0 24 24" fill="none" xmlns="http://www.w3.org/2000/svg">
<path d="M3 3V8.25H4.5V5.55469L6.79688 7.875L5.46094 9.21094L6.53906 10.2891L7.875 8.95312L8.85938 9.9375C8.46387 10.5322 8.25 11.2383 8.25 12C8.25 13.8047 9.54492 15.3281 11.25 15.6797V17.25H9V18.75H11.25V21H12.75V18.75H15V17.25H12.75V15.6797C14.4551 15.3281 15.75 13.8047 15.75 12C15.75 11.2383 15.5361 10.5322 15.1406 9.9375L19.5 5.55469V8.25H21V3H15.75V4.5H18.4453L14.0625 8.85938C13.4678 8.46387 12.7617 8.25 12 8.25C11.2383 8.25 10.5322 8.46387 9.9375 8.85938L8.95312 7.875L10.2891 6.53906L9.21094 5.46094L7.875 6.79688L5.55469 4.5H8.25V3H3ZM12 9.75C13.251 9.75 14.25 10.749 14.25 12C14.25 13.251 13.251 14.25 12 14.25C10.749 14.25 9.75 13.251 9.75 12C9.75 10.749 10.749 9.75 12 9.75Z" fill="black"/>
</svg>
