<svg width="24" height="24" viewBox="0 0 24 24" fill="none" xmlns="http://www.w3.org/2000/svg">
<path d="M12 2.69531L11.4609 3.21094L7.00781 7.6875L6.25781 8.41406L7.21875 8.88281C7.21875 8.88281 7.98047 9.1582 9.04688 9.39844L5.74219 12.7031L4.99219 13.4297L5.92969 13.8984C5.92969 13.8984 6.73828 14.127 7.14844 14.2734L4.45312 16.9688L3.72656 17.7188L4.66406 18.1875C4.66406 18.1875 6.49219 19.0693 9.75 19.3828V21.75H11.25V19.4766C11.502 19.4854 11.7363 19.5 12 19.5C12.2637 19.5 12.498 19.4854 12.75 19.4766V21.75H14.25V19.3828C17.5137 19.0693 19.3594 18.1875 19.3594 18.1875L20.2734 17.7188L19.5469 16.9688L16.8516 14.2734C17.2617 14.127 18.0703 13.8984 18.0703 13.8984L19.0078 13.4297L18.2578 12.7031L14.9531 9.39844C16.0195 9.1582 16.7812 8.88281 16.7812 8.88281L17.7422 8.41406L16.9922 7.6875L12.5391 3.21094L12 2.69531ZM12 4.82812L15 7.80469C14.5547 7.9541 14.4639 8.07129 13.3594 8.17969L12 8.32031L10.6406 8.17969C9.53613 8.07129 9.44531 7.9541 9 7.80469L12 4.82812ZM12 8.57812L12.8906 9.44531L16.3359 12.8906C15.9873 13.0137 15.9961 13.0547 15.2812 13.1953L13.8984 13.4766L14.9062 14.4609L17.6484 17.2031C16.6934 17.5459 15.0586 18 12 18C8.9707 18 7.3418 17.5459 6.375 17.2031L9.09375 14.4609L10.1016 13.4766L8.71875 13.1953C8.00391 13.0547 8.0127 13.0137 7.66406 12.8906L11.1094 9.44531L12 8.57812Z" fill="black"/>
</svg>
