<svg width="24" height="24" viewBox="0 0 24 24" fill="none" xmlns="http://www.w3.org/2000/svg">
<path d="M0.75 3V18.75H3.11719C3.45117 20.0391 4.61133 21 6 21C7.38867 21 8.54883 20.0391 8.88281 18.75H15.1172C15.4512 20.0391 16.6113 21 18 21C19.3887 21 20.5488 20.0391 20.8828 18.75H23.25V10.9453L23.0391 10.7109L18.5391 6.21094L18.3047 6H14.25V3H0.75ZM2.25 4.5H12.75V17.25H8.88281C8.54883 15.9609 7.38867 15 6 15C4.61133 15 3.45117 15.9609 3.11719 17.25H2.25V4.5ZM14.25 7.5H17.6719L21.75 11.5781V17.25H20.8828C20.5488 15.9609 19.3887 15 18 15C16.6113 15 15.4512 15.9609 15.1172 17.25H14.25V7.5ZM6 16.5C6.83789 16.5 7.5 17.1621 7.5 18C7.5 18.8379 6.83789 19.5 6 19.5C5.16211 19.5 4.5 18.8379 4.5 18C4.5 17.1621 5.16211 16.5 6 16.5ZM18 16.5C18.8379 16.5 19.5 17.1621 19.5 18C19.5 18.8379 18.8379 19.5 18 19.5C17.1621 19.5 16.5 18.8379 16.5 18C16.5 17.1621 17.1621 16.5 18 16.5Z" fill="black"/>
</svg>
