<svg width="24" height="24" viewBox="0 0 24 24" fill="none" xmlns="http://www.w3.org/2000/svg">
<path d="M10.5 3C9.67275 3 9 3.67275 9 4.5V7.5H4.5C3.2595 7.5 2.25 8.5095 2.25 9.75V11.8652C1.32731 12.7528 0.75 13.9967 0.75 15.375C0.75 18.063 2.937 20.25 5.625 20.25C8.313 20.25 10.5 18.063 10.5 15.375C10.5 14.9874 10.4497 14.6117 10.3638 14.25H13.6362C13.5503 14.6117 13.5 14.9874 13.5 15.375C13.5 18.063 15.687 20.25 18.375 20.25C21.063 20.25 23.25 18.063 23.25 15.375C23.25 13.9967 22.6727 12.7528 21.75 11.8652V9C21.75 8.17275 21.0772 7.5 20.25 7.5H18H17.6514L15.542 4.33594C14.9847 3.49969 14.0516 3 13.0459 3H10.5ZM10.5 4.5H13.0459C13.5476 4.5 14.0149 4.74947 14.2939 5.16797L15.8481 7.5H10.5V4.5ZM4.5 9H10.5H18H20.25V10.8765C19.6723 10.6348 19.0393 10.5 18.375 10.5C16.6539 10.5 15.1412 11.3993 14.2734 12.75H9.72656C8.85884 11.3993 7.34613 10.5 5.625 10.5C4.96069 10.5 4.32766 10.6348 3.75 10.8765V9.75C3.75 9.336 4.086 9 4.5 9ZM5.625 12C5.75482 12 5.87834 12.0237 6.00439 12.0381L5.96484 12.3955C6.38334 12.4413 6.78029 12.5736 7.14404 12.7881L7.32715 12.4775C7.93554 12.8365 8.42636 13.3715 8.71289 14.0229L8.37451 14.1724C8.54101 14.5511 8.625 14.9557 8.625 15.375V15.394L8.99854 15.3853C8.99625 16.1279 8.74672 16.8087 8.33643 17.3657L8.04346 17.1504C7.79746 17.4856 7.47625 17.7725 7.11475 17.9795L7.29346 18.2915C6.79927 18.5755 6.23465 18.75 5.625 18.75C5.50168 18.75 5.38458 18.7263 5.26465 18.7134L5.30127 18.3574C4.88277 18.3132 4.48439 18.183 4.11914 17.9707L3.93896 18.2812C3.32847 17.9255 2.83589 17.3927 2.5459 16.7432L2.88281 16.5938C2.71106 16.209 2.62429 15.799 2.62354 15.394L2.62646 15.334L2.25146 15.3545C2.25603 14.6088 2.5113 13.9268 2.92676 13.3696L3.2168 13.5864C3.46505 13.2519 3.78765 12.9672 4.1499 12.7617L3.97412 12.4497C4.4644 12.1717 5.02236 12 5.625 12ZM18.375 12C18.9776 12 19.5356 12.1717 20.0259 12.4497L19.8501 12.7617C20.2123 12.9672 20.535 13.2519 20.7832 13.5864L21.0732 13.3696C21.489 13.9272 21.7443 14.6097 21.7485 15.356L21.375 15.375C21.375 15.7995 21.2889 16.209 21.1172 16.5938L21.4541 16.7432C21.1639 17.3931 20.6706 17.9255 20.0596 18.2812L19.8794 17.9707C19.5141 18.1837 19.1165 18.3132 18.6973 18.3574L18.7339 18.7134C18.6144 18.7262 18.4978 18.75 18.375 18.75C17.7654 18.75 17.2007 18.5755 16.7065 18.2915L16.8853 17.9795C16.5238 17.7725 16.2025 17.4842 15.9565 17.1489L15.6636 17.3643C15.2534 16.807 15.0034 16.1266 15.0015 15.3838L15.375 15.375C15.375 14.9557 15.459 14.5511 15.6255 14.1724L15.2871 14.0229C15.5736 13.3715 16.0645 12.8365 16.6729 12.4775L16.856 12.7881C17.2197 12.5736 17.6159 12.4413 18.0352 12.3955L17.9956 12.0381C18.1217 12.0237 18.2452 12 18.375 12ZM5.625 14.25C5.32663 14.25 5.04048 14.3685 4.8295 14.5795C4.61853 14.7905 4.5 15.0766 4.5 15.375C4.5 15.6734 4.61853 15.9595 4.8295 16.1705C5.04048 16.3815 5.32663 16.5 5.625 16.5C5.92337 16.5 6.20952 16.3815 6.4205 16.1705C6.63147 15.9595 6.75 15.6734 6.75 15.375C6.75 15.0766 6.63147 14.7905 6.4205 14.5795C6.20952 14.3685 5.92337 14.25 5.625 14.25ZM18.375 14.25C18.0766 14.25 17.7905 14.3685 17.5795 14.5795C17.3685 14.7905 17.25 15.0766 17.25 15.375C17.25 15.6734 17.3685 15.9595 17.5795 16.1705C17.7905 16.3815 18.0766 16.5 18.375 16.5C18.6734 16.5 18.9595 16.3815 19.1705 16.1705C19.3815 15.9595 19.5 15.6734 19.5 15.375C19.5 15.0766 19.3815 14.7905 19.1705 14.5795C18.9595 14.3685 18.6734 14.25 18.375 14.25Z" fill="black"/>
</svg>
