<svg width="24" height="24" viewBox="0 0 24 24" fill="none" xmlns="http://www.w3.org/2000/svg">
<path d="M12 2.25C11.3057 2.25 10.541 2.45215 9.89062 2.64844C9.25195 2.8418 8.7832 3.04102 8.76562 3.04688H8.74219L6.58594 3.77344L6.51562 3.79688C6.47168 3.80859 6.40137 3.8291 6.23438 3.89062L6 3.96094V3.98438C5.37305 4.25391 4.3916 4.83691 3.82031 6.04688C3.04395 7.6875 3 9.72656 3 9.72656V11.25H6V21.75H18V11.25H21V9.67969C21 9.67969 20.9355 9.04395 20.8125 8.27344C20.6895 7.50293 20.5635 6.65332 20.1328 5.97656C19.4326 4.875 18.5625 4.31543 18 4.03125V3.96094L17.6953 3.86719C17.6514 3.84668 17.6602 3.8584 17.625 3.84375L17.4844 3.79688L15.2578 3.04688H15.2344C15.2168 3.04102 14.748 2.8418 14.1094 2.64844C13.459 2.45215 12.6943 2.25 12 2.25ZM12 3.75C12.3252 3.75 13.0693 3.92285 13.6641 4.10156C13.8193 4.14844 13.8105 4.15137 13.9453 4.19531C13.8984 4.26562 13.8633 4.33301 13.8047 4.40625C13.4531 4.84277 12.9609 5.25 12 5.25C11.0391 5.25 10.5469 4.84277 10.1953 4.40625C10.1367 4.33301 10.1016 4.26562 10.0547 4.19531C10.1895 4.15137 10.1807 4.14844 10.3359 4.10156C10.9307 3.92285 11.6748 3.75 12 3.75ZM8.57812 4.66406C8.68945 4.87793 8.83301 5.10645 9.02344 5.34375C9.57715 6.03223 10.5703 6.75 12 6.75C13.4297 6.75 14.4229 6.03223 14.9766 5.34375C15.167 5.10645 15.3105 4.87793 15.4219 4.66406L16.5 5.03906V20.25H7.5V5.03906L8.57812 4.66406ZM6 5.67188V9.75H4.5C4.50293 9.70898 4.61719 7.89258 5.17969 6.70312C5.40527 6.22559 5.7041 5.89453 6 5.67188ZM18 5.78906C18.2754 6.02051 18.5801 6.32227 18.8672 6.77344C18.9873 6.96387 19.2217 7.80469 19.3359 8.50781C19.4443 9.17285 19.4941 9.69141 19.5 9.75H18V5.78906Z" fill="black"/>
</svg>
