<svg width="24" height="24" viewBox="0 0 24 24" fill="none" xmlns="http://www.w3.org/2000/svg">
<path d="M3.75 3.75V20.25H20.25V3.75H3.75ZM5.25 5.25H18.75V18.75H5.25V5.25ZM14.0171 7.97168C12.7046 7.97168 11.6113 9.15547 11.9165 10.6157C10.1315 10.5242 8.54071 9.67147 7.48096 8.36572C7.29421 8.68372 7.18945 9.05067 7.18945 9.45117C7.1887 10.1712 7.54821 10.8437 8.14746 11.2427C7.79646 11.2299 7.46202 11.1322 7.17627 10.9717V10.9966C7.17627 12.0428 7.91418 12.9101 8.89893 13.1104C8.55768 13.1996 8.25923 13.1994 7.92773 13.1499C8.19998 14.0034 8.99396 14.6231 9.93896 14.6426C9.20096 15.2201 8.2758 15.561 7.26855 15.561C7.09155 15.561 6.924 15.5556 6.75 15.5361C7.70175 16.1466 8.83369 16.5 10.0547 16.5C14.0117 16.5 16.1777 13.2217 16.1777 10.377C16.1777 10.2847 16.1772 10.1909 16.1704 10.0986C16.5904 9.79338 16.9575 9.41217 17.2485 8.98242C16.8615 9.14967 16.4428 9.27212 16.0093 9.31787C16.4555 9.05237 16.7936 8.63156 16.9541 8.13281C16.5409 8.37881 16.0741 8.55912 15.5889 8.65137C15.1951 8.23137 14.6373 7.97168 14.0171 7.97168Z" fill="black"/>
</svg>
