<svg width="24" height="24" viewBox="0 0 24 24" fill="none" xmlns="http://www.w3.org/2000/svg">
<path d="M8.775 4.875C8.85 6.75 9.9 9.75 10.95 12C12.3 14.85 13.5 16.2 14.475 16.875C12.75 19.2 11.25 20.25 10.8 20.25C10.35 20.25 8.85 19.125 7.05 15.525C5.55 12.6 4.5 9.3 4.5 7.425C4.5 7.05 4.575 6.825 4.575 6.75C5.175 6.15 6.75 5.4 8.775 4.875ZM10.8 3C7.875 3.375 4.5 4.425 3.375 5.85C3.15 6.15 3 6.675 3 7.425C3 11.775 7.5 21.75 10.8 21.75C12.3 21.75 14.925 19.2 17.025 15.825C16.725 15.9 16.5 15.9 16.2 15.9C13.8 15.9 10.275 7.425 10.275 4.65C10.275 3.6 10.5 3.3 10.8 3ZM15.225 4.5C18.525 4.5 19.35 5.1 19.5 5.25C19.5 7.725 18.225 10.275 17.55 11.1C16.575 10.2 15 6.75 15 4.5C15.075 4.5 15.15 4.5 15.225 4.5ZM15.225 3C13.95 3 13.5 3.225 13.5 4.5C13.5 7.275 15.75 12.75 17.7 12.75C18.825 12.75 21 8.625 21 5.175C21 3.45 18.225 3 15.225 3Z" fill="black"/>
</svg>
