<svg width="24" height="24" viewBox="0 0 24 24" fill="none" xmlns="http://www.w3.org/2000/svg">
<path d="M12 3C7.03711 3 3 7.03711 3 12C3 16.9629 7.03711 21 12 21C16.9629 21 21 16.9629 21 12C21 7.03711 16.9629 3 12 3ZM12 4.5C16.1514 4.5 19.5 7.84863 19.5 12C19.5 16.1514 16.1514 19.5 12 19.5C7.84863 19.5 4.5 16.1514 4.5 12C4.5 7.84863 7.84863 4.5 12 4.5ZM12 6C11.1709 6 10.5 6.6709 10.5 7.5C10.5 8.3291 11.1709 9 12 9C12.8291 9 13.5 8.3291 13.5 7.5C13.5 6.6709 12.8291 6 12 6ZM7.66406 9.02344L7.33594 10.4766L10.5 11.1797V14.25L9.77344 17.8594L11.2266 18.1406L11.9766 14.3906L12 14.3203L12.0234 14.3906L12.7734 18.1406L14.2266 17.8594L13.5 14.25V11.1797L16.6641 10.4766L16.3359 9.02344L13.125 9.75H10.875L7.66406 9.02344Z" fill="black"/>
</svg>
