<svg width="24" height="24" viewBox="0 0 24 24" fill="none" xmlns="http://www.w3.org/2000/svg">
<path d="M13.6494 3.97559C13.5744 3.97559 13.5747 4.05 13.5747 4.125V4.27441C13.5747 4.42441 13.4256 4.42529 13.3506 4.42529C13.2756 4.42529 13.2744 4.49941 13.2744 4.64941C9.29942 8.69941 9.6 8.77471 9 9.07471L8.10059 9.60059C7.72559 9.75059 7.42471 10.0506 7.19971 10.3506L2.47559 16.9497C2.25059 17.2497 2.17441 17.6997 2.39941 18.0747C2.92441 19.1997 4.12441 20.1 5.39941 20.25C5.77441 20.25 6.15 20.1003 6.375 19.8003L11.1006 13.1997C11.3256 12.8997 11.4753 12.5244 11.5503 12.1494L11.6997 11.1006C11.7747 10.4256 11.9256 10.65 14.4756 5.625C14.6256 5.475 14.6997 5.47441 14.6997 5.39941C14.6997 5.32441 14.6994 5.17529 14.7744 5.17529H14.9253C15.0003 5.17529 15 5.09941 15 5.02441C14.925 4.94941 14.8506 4.64941 14.4756 4.27441C14.1006 3.97441 13.7994 3.97559 13.6494 3.97559ZM10.4253 4.05029C10.2753 4.05029 9.97559 4.05059 9.60059 4.35059C9.22559 4.65059 9.07471 4.87441 9.07471 5.02441C8.99971 5.09941 8.99971 5.17529 9.07471 5.17529H9.22559C9.30059 5.17529 9.30029 5.32441 9.30029 5.39941C9.30029 5.47441 9.37441 5.475 9.52442 5.625C9.74941 6.15 10.0497 6.60029 10.1997 7.05029C10.5747 6.67529 11.025 6.15029 11.625 5.55029C11.4 5.25029 11.1003 5.02559 10.8003 4.72559C10.8003 4.57559 10.8006 4.5 10.7256 4.5C10.6506 4.5 10.5 4.50059 10.5 4.35059V4.19971C10.5 4.12471 10.5003 4.05029 10.4253 4.05029ZM13.875 7.94971C13.275 9.14971 12.8256 9.89941 12.6006 10.2744C12.3006 10.8744 12.2256 10.8756 12.2256 11.1006L12.375 12.0747C12.45 12.4497 12.5997 12.825 12.8247 13.125L17.5503 19.7256C17.7753 20.0256 18.2256 20.2503 18.6006 20.1753C19.8756 20.0253 21.0756 19.125 21.6006 18C21.8256 17.7 21.7494 17.2497 21.5244 16.9497L16.8003 10.3506C16.5753 10.0506 16.2744 9.75059 15.8994 9.60059L15 9.07471C14.7 8.92471 14.625 8.77471 13.875 7.94971Z" fill="black"/>
</svg>
