<svg width="24" height="24" viewBox="0 0 24 24" fill="none" xmlns="http://www.w3.org/2000/svg">
<path d="M12 2.25L9.75 6H11.25V15.0469C10.6641 14.8008 10.0576 14.707 9.49219 14.625C8.83594 14.5312 8.23828 14.4375 7.92188 14.2734C7.60547 14.1094 7.5 14.0303 7.5 13.5V11.7891C7.94824 11.5283 8.25 11.0537 8.25 10.5C8.25 9.6709 7.5791 9 6.75 9C5.9209 9 5.25 9.6709 5.25 10.5C5.25 11.0537 5.55176 11.5283 6 11.7891V13.5C6 14.4697 6.55078 15.2344 7.21875 15.5859C7.88672 15.9375 8.60156 16.0312 9.25781 16.125C9.91406 16.2188 10.5117 16.3125 10.8281 16.4766C11.1445 16.6406 11.25 16.7197 11.25 17.25C11.25 17.2734 11.25 17.2969 11.25 17.3203V17.3906C10.3799 17.7012 9.75 18.5244 9.75 19.5C9.75 20.7422 10.7578 21.75 12 21.75C13.2422 21.75 14.25 20.7422 14.25 19.5C14.25 18.5244 13.6201 17.7012 12.75 17.3906C12.7559 17.3438 12.7559 17.2969 12.75 17.25V15.8672C12.7529 15.8291 12.7529 15.7881 12.75 15.75C12.75 15.249 12.8936 15.1025 13.3125 14.8594C13.7314 14.6162 14.4375 14.4141 15.1875 14.2266C15.9375 14.0391 16.7314 13.8662 17.4375 13.4531C18.1436 13.04 18.75 12.249 18.75 11.25V9.75H19.5V6.75H16.5V9.75H17.25V11.25C17.25 11.751 17.1064 11.8975 16.6875 12.1406C16.2686 12.3838 15.5625 12.5859 14.8125 12.7734C14.127 12.9434 13.4062 13.1133 12.75 13.4531V6H14.25L12 2.25Z" fill="black"/>
</svg>
