<svg width="24" height="24" viewBox="0 0 24 24" fill="none" xmlns="http://www.w3.org/2000/svg">
<path d="M9.79688 3C9.14062 3 8.56348 3.33691 8.15625 3.77344C7.74902 4.20996 7.45605 4.75488 7.19531 5.34375C6.79688 6.25195 6.5127 7.25977 6.25781 8.20312C5.44336 8.44043 4.75195 8.73633 4.19531 9.09375C3.54492 9.5127 3 10.0928 3 10.875C3 11.5547 3.41602 12.0996 3.9375 12.4922C4.38281 12.8262 4.93066 13.1045 5.57812 13.3359C5.61621 13.5088 5.67188 13.6846 5.74219 13.8516C5.10938 14.209 4.10742 14.9004 3.14062 16.2188L2.69531 16.8516L3.32812 17.2969L5.78906 18.9844L4.78125 21H19.2188L18.2109 18.9844L20.6719 17.2969L21.3047 16.8516L20.8594 16.2188C19.8926 14.9004 18.8906 14.209 18.2578 13.8516C18.3281 13.6846 18.3838 13.5088 18.4219 13.3359C19.0693 13.1045 19.6172 12.8262 20.0625 12.4922C20.584 12.0996 21 11.5547 21 10.875C21 10.0928 20.4551 9.5127 19.8047 9.09375C19.248 8.73633 18.5566 8.44043 17.7422 8.20312C17.4609 7.22461 17.1504 6.19922 16.7578 5.29688C16.5029 4.71387 16.2217 4.17773 15.8203 3.75C15.4189 3.32227 14.8477 3 14.2031 3C13.7666 3 13.4355 3.12012 13.0781 3.21094C12.7207 3.30176 12.3604 3.375 12 3.375C11.2793 3.375 10.6758 3 9.79688 3ZM9.79688 4.5C9.95215 4.5 10.875 4.875 12 4.875C12.5625 4.875 13.0635 4.76074 13.4531 4.66406C13.8428 4.56738 14.1387 4.5 14.2031 4.5C14.376 4.5 14.5049 4.55566 14.7188 4.78125C14.9326 5.00684 15.1846 5.41406 15.3984 5.90625C15.8057 6.83789 16.1162 8.10938 16.4531 9.28125C16.4531 9.27832 16.4941 9.24609 16.3828 9.30469C16.1953 9.40723 15.8027 9.53906 15.3281 9.60938C14.376 9.75293 13.0781 9.75 12 9.75C10.9277 9.75 9.62695 9.73535 8.67188 9.58594C8.19434 9.5127 7.80762 9.38379 7.61719 9.28125C7.55859 9.24902 7.53809 9.26074 7.52344 9.25781C7.52344 9.24902 7.52344 9.24316 7.52344 9.23438C7.52637 9.22852 7.52051 9.2168 7.52344 9.21094C7.53223 9.20215 7.53809 9.19629 7.54688 9.1875C7.60254 9.08789 7.63477 8.97363 7.64062 8.85938C7.64062 8.85059 7.64062 8.84473 7.64062 8.83594C7.91016 7.83984 8.21191 6.78516 8.57812 5.95312C8.79785 5.45215 9.03516 5.04492 9.25781 4.80469C9.48047 4.56445 9.63281 4.5 9.79688 4.5ZM6.14062 9.82031C6.31055 10.1719 6.60938 10.4531 6.91406 10.6172C7.37109 10.8604 7.89551 10.9746 8.46094 11.0625C9.5918 11.2383 10.916 11.25 12 11.25C13.0781 11.25 14.4053 11.2559 15.5391 11.0859C16.1074 11.001 16.626 10.8896 17.0859 10.6406C17.3936 10.4736 17.6924 10.1777 17.8594 9.82031C18.3223 9.98438 18.7119 10.1602 18.9844 10.3359C19.4209 10.6172 19.5 10.8252 19.5 10.875C19.5 10.9189 19.4619 11.0625 19.1484 11.2969C18.835 11.5312 18.2959 11.8037 17.6016 12.0234C16.2129 12.4658 14.2148 12.75 12 12.75C9.78516 12.75 7.78711 12.4658 6.39844 12.0234C5.7041 11.8037 5.16504 11.5312 4.85156 11.2969C4.53809 11.0625 4.5 10.9189 4.5 10.875C4.5 10.8252 4.55859 10.6377 4.99219 10.3594C5.26465 10.1836 5.66602 9.99316 6.14062 9.82031ZM8.08594 13.9219C8.33203 13.9629 8.5752 14.0303 8.83594 14.0625C8.93262 14.7217 9.44531 15.3018 10.2656 15.3516C10.8984 15.3896 11.6104 15.0908 11.6719 14.25C11.7832 14.25 11.8887 14.25 12 14.25C12.1113 14.25 12.2168 14.25 12.3281 14.25C12.3896 15.0908 13.1016 15.3896 13.7344 15.3516C14.5547 15.3018 15.0674 14.7217 15.1641 14.0625C15.4248 14.0303 15.668 13.9629 15.9141 13.9219L15.8438 14.3906C15.6123 15.624 15.0615 16.7666 14.3672 17.5547C13.6729 18.3428 12.8584 18.7617 12 18.75C11.1182 18.7383 10.3213 18.3135 9.63281 17.5312C8.94434 16.749 8.40234 15.6299 8.15625 14.3906L8.08594 13.9219ZM17.25 15C17.5283 15.1641 18.2607 15.6445 19.1016 16.5703L16.8281 18.1406L16.2891 18.4922L16.5703 19.0781L16.7812 19.5H14.4141C14.8066 19.2363 15.1699 18.9053 15.4922 18.5391C16.3184 17.6016 16.8721 16.374 17.1797 15.0469C17.2061 15.0322 17.2266 15.0146 17.25 15ZM6.72656 15.0234C6.75586 15.041 6.79102 15.0527 6.82031 15.0703C7.14258 16.3799 7.69336 17.5928 8.50781 18.5156C8.84473 18.8994 9.2373 19.2275 9.65625 19.5H7.21875L7.42969 19.0781L7.71094 18.4922L7.17188 18.1406L4.89844 16.5703C5.69238 15.6943 6.41602 15.2109 6.72656 15.0234Z" fill="black"/>
</svg>
