<svg width="24" height="24" viewBox="0 0 24 24" fill="none" xmlns="http://www.w3.org/2000/svg">
<path d="M6 3.75C3.525 3.75 1.5 5.775 1.5 8.25C1.5 9.75 2.25 11.1006 3.375 11.8506C1.35 12.9006 0 14.925 0 17.25H1.5C1.5 14.775 3.525 12.75 6 12.75C8.475 12.75 10.5 14.775 10.5 17.25H12C12 14.85 13.9506 12.825 16.3506 12.75H16.5C18.375 12.75 19.95 11.6253 20.625 10.0503C20.625 10.0503 20.6247 9.97559 20.6997 9.97559C20.7747 9.90059 20.7744 9.75029 20.7744 9.67529C20.7744 9.60029 20.7756 9.59941 20.8506 9.52441C20.8506 9.44941 20.9253 9.30059 20.9253 9.22559C20.9253 9.15059 20.925 9.075 21 9C21 8.925 20.9997 8.84941 21.0747 8.77441V8.39941V8.32471C21.0747 5.84971 19.0497 3.82471 16.5747 3.82471C14.0997 3.82471 12.0747 5.84971 12.0747 8.32471C12.0747 9.82471 12.8247 11.1753 13.9497 11.9253C12.8247 12.4503 11.9247 13.3494 11.3247 14.3994C10.7247 13.3494 9.82471 12.4503 8.69971 11.9253C9.74971 11.1003 10.5 9.75 10.5 8.25C10.5 5.775 8.475 3.75 6 3.75ZM6 5.25C7.65 5.25 9 6.6 9 8.25C9 9.9 7.65 11.25 6 11.25C4.35 11.25 3 9.9 3 8.25C3 6.6 4.35 5.25 6 5.25ZM16.5 5.25C18.15 5.25 19.5 6.6 19.5 8.25C19.5 9.9 18.15 11.25 16.5 11.25C14.85 11.25 13.5 9.9 13.5 8.25C13.5 6.6 14.85 5.25 16.5 5.25ZM18.0747 13.5V15.0747C17.6247 15.1497 17.1753 15.3756 16.8003 15.6006L15.6753 14.4756L14.625 15.5244L15.75 16.6494C15.45 17.0244 15.3006 17.475 15.2256 18H13.5V19.5H15.0747C15.1497 19.95 15.3756 20.4006 15.6006 20.8506L14.4756 21.9756L15.5244 23.0244L16.6494 21.8994C17.0244 22.1244 17.4753 22.3503 17.9253 22.4253V24H19.4253V22.4253C19.8753 22.3503 20.3247 22.1244 20.6997 21.8994L21.8247 23.0244L22.875 21.9756L21.75 20.8506C22.05 20.4756 22.1994 20.025 22.2744 19.5H24V18H22.4253C22.3503 17.55 22.1244 17.0994 21.8994 16.6494L23.0244 15.5244L21.9756 14.4756L20.8506 15.6006C20.4756 15.3756 20.0247 15.1497 19.5747 15.0747V13.5H18.0747ZM18.75 16.5C20.025 16.5 21 17.475 21 18.75C21 20.025 20.025 21 18.75 21C17.475 21 16.5 20.025 16.5 18.75C16.5 17.475 17.475 16.5 18.75 16.5ZM18.75 18C18.6562 18 18.5625 18.0234 18.4746 18.0645C18.3867 18.1055 18.3047 18.1641 18.2344 18.2344C18.1641 18.3047 18.1055 18.3867 18.0645 18.4746C18.0234 18.5625 18 18.6562 18 18.75C18 18.8438 18.0234 18.9375 18.0645 19.0254C18.1055 19.1133 18.1641 19.1953 18.2344 19.2656C18.3047 19.3359 18.3867 19.3945 18.4746 19.4355C18.5625 19.4766 18.6562 19.5 18.75 19.5C19.125 19.5 19.5 19.125 19.5 18.75C19.5 18.375 19.125 18 18.75 18Z" fill="black"/>
</svg>
