<svg width="24" height="24" viewBox="0 0 24 24" fill="none" xmlns="http://www.w3.org/2000/svg">
<path d="M12 3.75C9.07499 3.75 6.74999 6.075 6.74999 9C6.74999 10.8262 7.65556 12.4178 9.04833 13.3564C6.62863 14.3865 4.84725 16.6453 4.5747 19.4253C4.4997 19.8003 4.6497 20.2503 4.9497 20.5503C5.1747 20.8503 5.62499 21 5.99999 21H12.75C14.025 21 15 20.025 15 18.75C15 17.475 14.025 16.5 12.75 16.5H9.89355L9.29589 14.9062C10.1124 14.4879 11.0317 14.25 12 14.25C15.3 14.25 18 16.95 18 20.25H19.5C19.5 17.17 17.6178 14.5089 14.9473 13.3579C16.3416 12.4195 17.25 10.8274 17.25 9C17.25 6.075 14.925 3.75 12 3.75ZM12 5.25C12.3141 5.25 12.6138 5.29736 12.9038 5.36719L10.2378 7.5H8.55468C9.124 6.16587 10.4364 5.25 12 5.25ZM14.3818 6.10547C14.8375 6.47883 15.2097 6.94786 15.4453 7.5H12.6387L14.3818 6.10547ZM8.24999 9H15.75C15.75 11.1 14.1 12.75 12 12.75C9.89999 12.75 8.24999 11.1 8.24999 9ZM8.02148 15.7808L9.41601 19.5H6.0747C6.26024 18.0157 6.98003 16.7162 8.02148 15.7808ZM10.456 18H12.75C13.2 18 13.5 18.3 13.5 18.75C13.5 19.2 13.2 19.5 12.75 19.5H11.0185L10.456 18Z" fill="black"/>
</svg>
