<svg width="24" height="24" viewBox="0 0 24 24" fill="none" xmlns="http://www.w3.org/2000/svg">
<path d="M12 2.25L2.25 5.25L4.5791 5.96484L6.75 6.63281V8.63086C6.65625 8.74512 6.58594 8.85645 6.53027 8.97363C6.39551 9.25781 6.31055 9.57422 6.23438 9.94922C6.09082 10.6611 6.01465 11.5811 6.00586 12.5889C5.54883 12.999 5.25 13.5879 5.25 14.25C5.25 15.208 5.92969 15.8994 6.77637 16.2217C7.11621 17.2002 7.68164 18.2754 8.49609 19.1865C9.38672 20.1797 10.5762 21 12 21C13.4238 21 14.6133 20.1797 15.5039 19.1865C16.3184 18.2754 16.8838 17.2002 17.2236 16.2217C18.0703 15.8994 18.75 15.208 18.75 14.25C18.75 13.5879 18.4541 12.9902 17.9912 12.5771C17.9824 11.5723 17.9062 10.6582 17.7656 9.94922C17.6895 9.57422 17.6045 9.25781 17.4697 8.97363C17.4141 8.85645 17.3438 8.74512 17.25 8.63086V6.63281L21.75 5.25L12 2.25ZM12 3.82031L16.6523 5.25L12 6.67969L7.34766 5.25L12 3.82031ZM8.25 7.0957L12 8.25L12.2227 8.18262L15.75 7.0957V8.83594C15.7412 8.84766 15.75 8.85059 15.7148 8.87402C15.5977 8.97363 15.3545 9.11719 15.0205 9.25195C14.3496 9.51855 13.3096 9.75 12 9.75C10.6904 9.75 9.65039 9.51855 8.97949 9.25195C8.64551 9.11719 8.40234 8.97363 8.28516 8.87402C8.25 8.85059 8.25879 8.84766 8.25 8.83594V7.0957ZM7.69922 10.2803C7.91602 10.4121 8.15039 10.5352 8.42578 10.6436C9.30762 10.9951 10.5176 11.25 12 11.25C13.4824 11.25 14.6924 10.9951 15.5742 10.6436C15.8496 10.5352 16.084 10.4121 16.3008 10.2803C16.418 10.8867 16.5 11.7715 16.5 12.75V13.3857L16.875 13.6055C17.1035 13.7344 17.25 13.9658 17.25 14.25C17.25 14.6514 16.9512 14.959 16.5586 14.9912L16.0547 15.0322L15.9053 15.5156C15.6562 16.3271 15.0996 17.3877 14.3818 18.1875C13.667 18.9873 12.832 19.5 12 19.5C11.168 19.5 10.333 18.9873 9.61816 18.1875C8.90039 17.3877 8.34375 16.3271 8.09473 15.5156L7.94531 15.0322L7.44141 14.9912C7.04883 14.959 6.75 14.6514 6.75 14.25C6.75 13.9688 6.89941 13.7373 7.13086 13.6055L7.51465 13.3828L7.5 12.75V12.7412C7.5 11.7686 7.58203 10.8867 7.69922 10.2803ZM6.12891 12.75H6.75293L6.12305 12.7646L6.12891 12.75ZM9.75 13.5C9.33691 13.5 9 13.8369 9 14.25C9 14.6631 9.33691 15 9.75 15C10.1631 15 10.5 14.6631 10.5 14.25C10.5 13.8369 10.1631 13.5 9.75 13.5ZM14.25 13.5C13.8369 13.5 13.5 13.8369 13.5 14.25C13.5 14.6631 13.8369 15 14.25 15C14.6631 15 15 14.6631 15 14.25C15 13.8369 14.6631 13.5 14.25 13.5Z" fill="black"/>
</svg>
