<svg width="24" height="24" viewBox="0 0 24 24" fill="none" xmlns="http://www.w3.org/2000/svg">
<path d="M2.77441 1.72559L1.72559 2.77441L6.85693 7.90576C6.84724 7.94572 6.83352 7.98412 6.82471 8.02441L8.25 9.375V9.29883L11.7012 12.75H11.625L13.3506 14.4756C13.3809 14.4756 13.4111 14.4854 13.4414 14.4902L13.7256 14.7744L14.8506 15.8994L17.9253 18.9741C17.9254 18.9746 17.9252 18.9751 17.9253 18.9756L19.2744 20.3247H19.2759L21.2256 22.2744L22.2744 21.2256L19.1675 18.1187C18.5154 16.0047 16.9535 14.2704 14.9253 13.4253C16.3503 12.4503 17.25 10.8747 17.25 9.07471C17.25 6.14971 14.925 3.82471 12 3.82471C10.063 3.82471 8.39093 4.86627 7.46631 6.41748L2.77441 1.72559ZM12 5.25C14.1 5.25 15.75 6.9 15.75 9C15.75 10.5652 14.832 11.8784 13.4956 12.4468L8.55322 7.50439C9.12157 6.16797 10.4348 5.25 12 5.25ZM6.89941 9.97559C7.19941 11.4006 7.94941 12.6006 9.14941 13.3506C6.37441 14.4756 4.5 17.175 4.5 20.25H6C6 18.075 7.12559 16.1994 8.85059 15.1494C9.37559 16.3494 10.575 17.25 12 17.25C12.6 17.25 13.1994 17.1003 13.6494 16.8003L12.5244 15.6753C12.3744 15.7503 12.15 15.75 12 15.75C11.175 15.75 10.4994 15.2256 10.2744 14.4756L11.1753 14.25L6.89941 9.97559Z" fill="black"/>
</svg>
