<svg width="24" height="24" viewBox="0 0 24 24" fill="none" xmlns="http://www.w3.org/2000/svg">
<path d="M12 3.82471C9.075 3.82471 6.75 6.14971 6.75 9.07471C6.75 10.8747 7.64971 12.5253 9.07471 13.4253C6.37471 14.4753 4.5 17.175 4.5 20.25H6C6 16.95 8.7 14.25 12 14.25C12.45 14.25 12.8247 14.3244 13.1997 14.3994C13.2348 14.3526 13.2802 14.3121 13.3169 14.2661C12.4956 15.293 12 16.5907 12 18C12 21.3 14.7 24 18 24C21.3 24 24 21.3 24 18C24 14.7 21.3 12 18 12C17.3339 12 16.6942 12.1151 16.0942 12.3179C16.8169 11.4244 17.25 10.2502 17.25 9.07471C17.25 6.14971 14.925 3.82471 12 3.82471ZM12 5.25C14.1 5.25 15.75 6.9 15.75 9C15.75 11.1 14.1 12.75 12 12.75C9.9 12.75 8.25 11.1 8.25 9C8.25 6.9 9.9 5.25 12 5.25ZM14.4565 13.1748C14.4352 13.1906 14.4133 13.2056 14.3921 13.2217C14.4136 13.2058 14.4348 13.1904 14.4565 13.1748ZM18 13.5C20.475 13.5 22.5 15.525 22.5 18C22.5 20.475 20.475 22.5 18 22.5C15.525 22.5 13.5 20.475 13.5 18C13.5 15.525 15.525 13.5 18 13.5ZM13.8735 13.6611C13.7811 13.7491 13.6922 13.84 13.6055 13.9336C13.6923 13.8404 13.7797 13.7493 13.8735 13.6611ZM17.25 15V18.4497L15.9756 19.7256L17.0244 20.7744L18.75 19.0503V15H17.25Z" fill="black"/>
</svg>
