<svg width="24" height="24" viewBox="0 0 24 24" fill="none" xmlns="http://www.w3.org/2000/svg">
<path d="M6.32812 4.5L6.11719 4.85156C6.11719 4.85156 3.75 8.73926 3.75 15V15.75H8.32031C8.27051 15.9932 8.25 16.2422 8.25 16.5C8.25 18.5625 9.9375 20.25 12 20.25C14.0625 20.25 15.75 18.5625 15.75 16.5C15.75 16.2422 15.7295 15.9932 15.6797 15.75H20.25V15C20.25 11.543 19.667 9.00879 19.0781 7.33594C18.4893 5.66309 17.8594 4.80469 17.8594 4.80469L17.625 4.5H6.32812ZM7.24219 6H16.7812C16.8896 6.15527 17.2119 6.54785 17.6719 7.85156C18.1582 9.23145 18.5947 11.3994 18.6797 14.25H15C14.3145 13.3418 13.2188 12.75 12 12.75C10.7812 12.75 9.68555 13.3418 9 14.25H5.32031C5.49023 9.26367 6.99316 6.42773 7.24219 6ZM11.25 7.5V9H9.75V10.5H11.25V12H12.75V10.5H14.25V9H12.75V7.5H11.25ZM12 14.25C13.251 14.25 14.25 15.249 14.25 16.5C14.25 17.751 13.251 18.75 12 18.75C10.749 18.75 9.75 17.751 9.75 16.5C9.75 15.249 10.749 14.25 12 14.25ZM12 15.75C11.5869 15.75 11.25 16.0869 11.25 16.5C11.25 16.9131 11.5869 17.25 12 17.25C12.4131 17.25 12.75 16.9131 12.75 16.5C12.75 16.0869 12.4131 15.75 12 15.75Z" fill="black"/>
</svg>
