<svg width="24" height="24" viewBox="0 0 24 24" fill="none" xmlns="http://www.w3.org/2000/svg">
<path d="M7.61719 3L7.5 3.60938L6.75 7.82812V10.5H6.82031C7.03711 11.9941 7.87207 13.2979 9.07031 14.1094C6.39551 15.2578 4.5 17.9121 4.5 21H6C6 19.1016 6.87891 17.4111 8.25 16.3125V16.8047L8.46094 17.0391L11.4609 20.0391L12 20.5547L12.5391 20.0391L15.5391 17.0391L15.75 16.8047V16.3125C17.1211 17.4111 18 19.1016 18 21H19.5C19.5 17.9121 17.6045 15.2578 14.9297 14.1094C16.1279 13.2979 16.9629 11.9941 17.1797 10.5H17.25V7.82812L16.5 3.60938L16.3828 3H7.61719ZM8.88281 4.5H15.1172L15.75 8.08594V9H8.25V8.08594L8.88281 4.5ZM11.25 5.25V6H10.5V7.5H11.25V8.25H12.75V7.5H13.5V6H12.75V5.25H11.25ZM8.32031 10.5H15.6797C15.3311 12.2139 13.8193 13.5 12 13.5C10.1807 13.5 8.66895 12.2139 8.32031 10.5ZM12 15C12.7939 15 13.5557 15.1436 14.25 15.4219V16.1719L12 18.4219L9.75 16.1719V15.4219C10.4443 15.1436 11.2061 15 12 15Z" fill="black"/>
</svg>
