<svg width="24" height="24" viewBox="0 0 24 24" fill="none" xmlns="http://www.w3.org/2000/svg">
<path d="M12 3C8.25001 3 5.25001 6 5.25001 9.75C5.02501 9.75 4.79942 9.90029 4.64942 10.0503C4.49942 10.2753 4.42472 10.5006 4.57472 10.7256L5.32472 12.9756C5.39972 13.2756 5.70001 13.5 6.00001 13.5H6.37648C6.52008 13.716 6.67681 13.9209 6.84376 14.1182C7.07502 14.4754 7.34896 14.8003 7.65821 15.0894C6.14554 16.3602 5.25001 18.2484 5.25001 20.25H6.75001C6.75001 18.5478 7.56015 16.9757 8.94288 15.9697C9.63812 16.3063 10.418 16.5 11.25 16.5H12.75C13.5715 16.5 14.3422 16.3115 15.0308 15.9829C16.3986 16.9482 17.25 18.5661 17.25 20.25H18.75C18.75 18.2586 17.8612 16.3806 16.3198 15.1099C16.6381 14.8158 16.9195 14.4838 17.1563 14.1182C17.3232 13.9209 17.4799 13.716 17.6235 13.5H18C18.3 13.5 18.6003 13.2756 18.6753 12.9756L19.4253 10.7256C19.5753 10.5006 19.5006 10.2753 19.3506 10.0503C19.2006 9.90029 18.975 9.75 18.75 9.75C18.75 6 15.75 3 12 3ZM12 4.5C14.638 4.5 16.7817 6.39382 17.1782 8.91064C16.4962 8.05281 15.4534 7.5 14.25 7.5H9.75001C8.54662 7.5 7.50383 8.05281 6.82179 8.91064C7.2183 6.39382 9.36201 4.5 12 4.5ZM9.75001 9H14.25C15.525 9 16.5 9.975 16.5 11.25C16.5 11.7864 16.3906 12.2923 16.1953 12.75H12.75C12.3 12.75 12 13.125 12 13.5C12 13.95 12.375 14.25 12.75 14.25H14.7144C13.9241 14.7236 12.9989 15 12 15C10.4246 15 9.02761 14.3216 8.06983 13.2422C7.71326 12.6668 7.50001 11.9892 7.50001 11.25C7.50001 9.975 8.47501 9 9.75001 9Z" fill="black"/>
</svg>
