<svg width="24" height="24" viewBox="0 0 24 24" fill="none" xmlns="http://www.w3.org/2000/svg">
<path d="M10.5 3C7.575 3 5.25 5.325 5.25 8.25C5.25 10.05 6.14971 11.7006 7.57471 12.6006C4.87471 13.7256 3 16.425 3 19.5H4.5C4.5 16.2 7.2 13.5 10.5 13.5C11.55 13.5 12.5256 13.8 13.3506 14.25C12.5256 15.3 12 16.575 12 18C12 21.3 14.7 24 18 24C21.3 24 24 21.3 24 18C24 14.7 21.3 12 18 12C16.725 12 15.4506 12.45 14.4756 13.125C14.1756 12.9 13.8003 12.7506 13.4253 12.6006C14.8503 11.6256 15.75 10.05 15.75 8.25C15.75 5.325 13.425 3 10.5 3ZM10.5 4.5C12.6 4.5 14.25 6.15 14.25 8.25C14.25 10.35 12.6 12 10.5 12C8.4 12 6.75 10.35 6.75 8.25C6.75 6.15 8.4 4.5 10.5 4.5ZM18 13.5C20.475 13.5 22.5 15.525 22.5 18C22.5 20.475 20.475 22.5 18 22.5C15.525 22.5 13.5 20.475 13.5 18C13.5 15.525 15.525 13.5 18 13.5ZM15 17.25V18.75H21V17.25H15Z" fill="black"/>
</svg>
