<svg width="24" height="24" viewBox="0 0 24 24" fill="none" xmlns="http://www.w3.org/2000/svg">
<path d="M4.19971 5.25C14.3997 7.425 17.4753 7.875 17.5503 8.625C19.0503 8.625 19.4244 8.62529 19.6494 8.92529C20.4744 9.67529 19.0503 11.625 19.0503 11.625C18.9003 11.7 2.77441 18 2.77441 18H19.8003L22.5 5.25H4.19971ZM3.60059 8.25L1.5 18C9.375 14.1 11.9244 12.8253 14.3994 11.9253C17.0244 11.1003 18.2994 11.0247 18.5244 10.9497C18.6744 10.7997 18.3756 10.6506 17.4756 10.7256C15.3756 10.8006 11.925 12.2244 10.5 12.8994L9.30029 9.14941H17.1753C17.1003 8.39941 13.1244 8.325 7.64941 8.25H3.60059ZM17.3994 9.07471C17.3994 9.07471 17.3247 9 16.9497 9.375C16.4997 9.6 15.4497 9.6 15.4497 9.75C15.4497 9.9 18.3006 9.6 18.9756 9.75C19.3506 9.825 18.8997 10.5744 18.8247 11.0244C18.7497 11.2494 18.8994 11.1744 18.8994 11.0244C19.9494 9.37441 19.4997 9.07471 18.4497 9.07471H17.3994Z" fill="black"/>
</svg>
