<svg width="24" height="24" viewBox="0 0 24 24" fill="none" xmlns="http://www.w3.org/2000/svg">
<path d="M12 1.5L11.8506 4.5C11.4006 4.5 10.875 4.49971 10.5 4.57471L9.67529 1.72559L10.1997 4.64941C9.74971 4.72441 9.30059 4.87559 8.85059 5.10059L7.42529 2.55029L8.55029 5.17529C8.10029 5.40029 7.72441 5.62559 7.27441 5.85059L5.47559 3.82471L7.125 6.07471C6.675 6.37471 6.3 6.67529 6 7.05029L3.75 5.47559L5.77441 7.27441C5.47441 7.64941 5.175 8.02559 4.875 8.47559L2.55029 7.42529L4.80029 8.625C4.57529 9.075 4.34971 9.52529 4.19971 10.0503L1.80029 9.60059L4.125 10.2744C3.975 10.7994 3.89971 11.3256 3.82471 11.8506L1.5 12L3.75 12.1494V12.75C3.75 13.125 3.74971 13.5003 3.82471 13.8003L1.72559 14.3994L3.82471 14.0244C3.89971 14.6244 4.04941 15.1503 4.27441 15.6753L2.55029 16.6494L4.35059 15.8994C4.57559 16.4244 4.87529 16.9494 5.17529 17.3994L3.75 18.5244L5.25 17.4756C5.625 18.0006 5.99971 18.3747 6.44971 18.8247L5.47559 20.25L6.60059 18.9756C7.05059 19.3506 7.57559 19.7244 8.10059 20.0244L7.42529 21.5244L8.17529 20.1006C8.70029 20.4006 9.29941 20.6244 9.89941 20.7744L9.60059 22.3506L10.0503 20.8506C10.6503 21.0006 11.2506 21.0747 11.8506 21.0747L12 22.5L12.0747 20.9253C12.6747 20.9253 13.35 20.8497 13.875 20.6997L14.3247 22.1997L14.0244 20.625C14.6244 20.475 15.225 20.2497 15.75 19.9497L16.5747 21.375L15.8994 19.875C16.4244 19.575 16.9494 19.2747 17.3994 18.8247L18.5244 20.1006L17.5503 18.75C18.0003 18.375 18.375 17.9244 18.75 17.3994L20.25 18.5244L18.8247 17.25C19.1247 16.8 19.4244 16.275 19.6494 15.75L21.5244 16.5L19.8003 15.5244C20.0253 14.9994 20.175 14.475 20.25 13.875L22.2744 14.3247L20.1753 13.7256C20.1753 13.3506 20.25 13.0503 20.25 12.6753V12.0747L22.5 12L20.1753 11.8506C20.1003 11.3256 20.025 10.7994 19.875 10.2744L22.1997 9.60059L19.7256 10.0503C19.5756 9.60029 19.35 9.075 19.125 8.625L21.375 7.42529L18.9756 8.39941C18.7506 7.94941 18.4497 7.57471 18.0747 7.19971L20.25 5.47559L18 7.05029C17.7 6.67529 17.325 6.37471 16.875 6.07471L18.5244 3.82471L16.6494 5.92529C16.2744 5.62529 15.8247 5.4 15.4497 5.25L16.5747 2.55029L15.1494 5.10059L13.8003 4.64941L14.3247 1.72559L13.5 4.57471C13.05 4.49971 12.5994 4.5 12.1494 4.5L12 1.5ZM12 5.17529C16.125 5.17529 19.5 8.55029 19.5 12.6753C19.5 16.8753 16.125 20.1753 12 20.1753C7.875 20.1753 4.5 16.8003 4.5 12.6753C4.5 8.55029 7.875 5.17529 12 5.17529ZM12 6C8.325 6 5.32471 9.00029 5.32471 12.6753C5.32471 16.3503 8.325 19.3506 12 19.3506C15.675 19.3506 18.6753 16.3503 18.6753 12.6753C18.6753 9.00029 15.675 6 12 6ZM15.375 8.625V13.5747C15.375 13.9497 15.375 14.1 15.75 14.25C15.6 14.475 15.4506 14.5503 15.2256 14.5503H10.5C10.425 14.6253 10.35 14.7744 9.75 15.5244C9.675 15.1494 9.29971 14.5503 9.07471 14.5503H6.44971C6.59971 14.2503 6.59941 14.2497 6.52441 13.9497C6.37441 13.5747 6.45029 13.2006 6.67529 12.9756C6.90029 12.7506 7.19941 12.3756 7.27441 12.2256C7.19941 12.0756 7.12529 11.7747 7.05029 11.6997C7.20029 11.4747 7.42471 11.2506 7.57471 11.1006C7.64971 11.2506 7.72529 11.475 7.80029 11.625C7.87529 11.55 8.02441 11.3997 8.02441 11.3247C7.94941 11.5497 7.94971 11.7006 7.94971 11.8506C7.94971 12.0006 8.02529 12.2253 8.17529 12.6753L8.69971 13.875H9.22559C9.37559 13.875 9.60029 14.2494 10.0503 14.7744C10.1253 14.6994 10.125 14.6253 10.125 14.5503C10.125 14.3253 9.67529 13.425 9.67529 13.125C9.67529 12.75 9.89941 12.525 10.2744 12C10.2744 12.15 10.1997 12.3 10.1997 12.375C10.1997 12.675 10.5006 13.275 10.7256 13.875H11.4756V13.8003C11.4006 13.7253 11.325 13.575 11.25 13.5C11.4 13.275 11.6247 12.9744 11.6997 12.8994C11.8497 13.1994 11.9997 13.65 12.0747 13.875H12.4497C12.3747 13.725 12.3003 13.5003 12.3003 13.4253C12.2253 13.2753 12.1497 13.2 12.0747 13.125C12.2247 12.9 12.4494 12.5994 12.5244 12.5244C12.5994 12.7494 12.9003 13.425 13.0503 13.875H13.4253C13.3503 13.725 13.2003 13.2756 13.0503 12.9756C12.9753 12.8256 12.8997 12.7503 12.8247 12.6753C12.9747 12.4503 13.1994 12.1497 13.2744 12.0747C13.4994 12.6747 13.7997 13.5 13.9497 13.875H14.7744C14.8494 13.875 15 13.6497 15 13.5747V10.7256C15 10.5006 14.8503 10.1247 14.5503 9.44971C14.7003 9.44971 15 9.15 15.375 8.625ZM16.5747 8.625V13.0503C16.5747 13.8753 17.0247 14.0253 17.3247 14.1753C17.3997 14.2503 17.5494 14.2497 17.7744 14.3247C17.6994 14.3997 17.5503 14.3994 17.1753 14.3994C16.5003 14.5494 16.125 14.3994 16.125 13.6494V10.7256C16.125 10.5006 15.9753 10.1247 15.6753 9.44971C15.9003 9.44971 16.1997 9.15 16.5747 8.625ZM7.125 9.89941C7.125 9.97441 7.19941 10.1247 7.27441 10.1997C7.34941 10.2747 7.42529 10.425 7.42529 10.5C7.42529 10.575 7.34971 10.7244 7.19971 11.0244C7.12471 10.8744 6.97471 10.7244 6.82471 10.6494C6.74971 10.5744 6.67529 10.5003 6.67529 10.4253C6.67529 10.4253 6.825 10.1994 7.125 9.89941ZM7.94971 9.89941C7.94971 9.97441 8.02559 10.1247 8.10059 10.1997C8.17559 10.2747 8.25 10.425 8.25 10.5C8.25 10.575 8.17441 10.7244 8.02441 11.0244C7.94941 10.8744 7.79941 10.7244 7.64941 10.6494C7.57441 10.5744 7.5 10.5003 7.5 10.4253C7.575 10.4253 7.64971 10.1994 7.94971 9.89941ZM9.75 10.7256C9.75 10.8006 9.82441 10.9494 9.89941 11.0244C9.97441 11.0994 10.0503 11.2497 10.0503 11.3247C10.0503 11.3997 9.97441 11.5506 9.89941 11.8506C9.82441 11.7006 9.67441 11.5506 9.52441 11.4756C9.44941 11.4006 9.375 11.325 9.375 11.25C9.3 11.25 9.45 11.0256 9.75 10.7256ZM7.80029 13.125C7.80029 13.125 7.72441 13.2006 7.64941 13.3506C7.61191 13.3881 7.59375 13.4247 7.59375 13.481C7.59375 13.5372 7.61191 13.6131 7.64941 13.7256C7.64941 13.7631 7.66816 13.8182 7.69629 13.8838C7.72441 13.9494 7.76279 14.0256 7.80029 14.1006H8.17529L7.94971 13.5747C7.91221 13.4622 7.87529 13.3869 7.84717 13.3213C7.81904 13.2557 7.80029 13.2 7.80029 13.125Z" fill="black"/>
</svg>
