<svg width="24" height="24" viewBox="0 0 24 24" fill="none" xmlns="http://www.w3.org/2000/svg">
<path d="M8.25 3.75C7.02246 3.75 6.10254 4.6582 5.48438 5.67188C4.86621 6.68555 4.5 7.88672 4.5 9C4.5 10.9365 5.83594 12.3486 7.5 12.6797V21H9V12.6797C10.6641 12.3486 12 10.9365 12 9C12 7.88672 11.6338 6.68555 11.0156 5.67188C10.3975 4.6582 9.47754 3.75 8.25 3.75ZM13.5 3.75V9C13.5 10.3887 14.4609 11.5488 15.75 11.8828V21H17.25V11.8828C18.5391 11.5488 19.5 10.3887 19.5 9V3.75H18V9C18 9.83789 17.3379 10.5 16.5 10.5C15.6621 10.5 15 9.83789 15 9V3.75H13.5ZM15.75 3.75V9C15.75 9.41309 16.0869 9.75 16.5 9.75C16.9131 9.75 17.25 9.41309 17.25 9V3.75H15.75ZM8.25 5.25C8.68066 5.25 9.25781 5.6748 9.72656 6.44531C10.1953 7.21582 10.5 8.24707 10.5 9C10.5 10.5029 9.5625 11.25 8.25 11.25C6.9375 11.25 6 10.5029 6 9C6 8.24707 6.30469 7.21582 6.77344 6.44531C7.24219 5.6748 7.81934 5.25 8.25 5.25Z" fill="black"/>
</svg>
