<svg width="24" height="24" viewBox="0 0 24 24" fill="none" xmlns="http://www.w3.org/2000/svg">
<path d="M3 3C2.55 3 2.25 3.3 2.25 3.75V5.625C2.25 7.05 3.45 8.25 4.875 8.25H10.1997C10.7997 8.25 11.25 8.70029 11.25 9.30029V9.75C11.25 10.2 11.55 10.5 12 10.5C12.45 10.5 12.75 10.2 12.75 9.75V9.30029C12.75 8.70029 13.2003 8.25 13.8003 8.25H19.125C20.55 8.25 21.75 7.05 21.75 5.625V3.75C21.75 3.3 21.45 3 21 3C20.55 3 20.25 3.3 20.25 3.75V4.19971C20.25 4.79971 19.7997 5.25 19.1997 5.25H14.25C12.975 5.25 12 6.225 12 7.5C12 6.225 11.025 5.25 9.75 5.25H4.80029C4.20029 5.25 3.75 4.79971 3.75 4.19971V3.75C3.75 3.3 3.45 3 3 3ZM7.76367 11.2705C7.62187 11.2834 7.48184 11.3244 7.35059 11.3994C6.82559 11.6994 6.59941 12.3744 6.89941 12.8994L11.0244 20.3994C11.1744 20.7744 11.625 21 12 21C12.375 21 12.8256 20.7744 12.9756 20.3994L17.1006 12.8994C17.4006 12.3744 17.1744 11.6994 16.6494 11.3994C16.1244 11.0994 15.4494 11.3256 15.1494 11.8506L12 17.5503L8.85059 11.8506C8.62559 11.4568 8.18906 11.2318 7.76367 11.2705Z" fill="black"/>
</svg>
