<svg width="24" height="24" viewBox="0 0 24 24" fill="none" xmlns="http://www.w3.org/2000/svg">
<path d="M8.25 2.25C4.94238 2.25 2.25 4.94238 2.25 8.25C2.25 11.3027 4.54395 13.8311 7.5 14.2031V17.25H4.5V18.75H7.5V21.75H9V18.75H15V21.75H16.5V18.75H19.5V17.25H16.5V14.2031C19.4561 13.8311 21.75 11.3027 21.75 8.25C21.75 4.94238 19.0576 2.25 15.75 2.25C14.6104 2.25 13.541 2.58691 12.6328 3.14062C13.0225 3.47461 13.3828 3.85254 13.6875 4.26562C14.3086 3.94336 15.0029 3.75 15.75 3.75C18.2314 3.75 20.25 5.76855 20.25 8.25C20.25 10.7314 18.2314 12.75 15.75 12.75C13.2686 12.75 11.25 10.7314 11.25 8.25C11.25 7.65234 11.3672 7.08398 11.5781 6.5625C11.3262 6.06445 10.9629 5.63672 10.5234 5.29688C10.0283 6.16992 9.75 7.1748 9.75 8.25C9.75 11.3027 12.0439 13.8311 15 14.2031V17.25H9V14.1797C9.8584 14.0713 10.6611 13.79 11.3672 13.3594C10.9775 13.0254 10.6172 12.6475 10.3125 12.2344C9.69141 12.5566 8.99707 12.75 8.25 12.75C5.76855 12.75 3.75 10.7314 3.75 8.25C3.75 5.76855 5.76855 3.75 8.25 3.75C10.7314 3.75 12.75 5.76855 12.75 8.25C12.75 8.84766 12.6328 9.41602 12.4219 9.9375C12.6738 10.4355 13.0371 10.8633 13.4766 11.2031C13.9717 10.3301 14.25 9.3252 14.25 8.25C14.25 4.94238 11.5576 2.25 8.25 2.25Z" fill="black"/>
</svg>
