<svg width="24" height="24" viewBox="0 0 24 24" fill="none" xmlns="http://www.w3.org/2000/svg">
<path d="M16.5 2.25V3.75H19.1719L16.6406 6.30469C15.7383 5.62793 14.6484 5.25 13.5 5.25C12.0967 5.25 10.7871 5.80664 9.79688 6.79688C8.80664 7.78711 8.25 9.09668 8.25 10.5C8.25 11.9033 8.80664 13.21 9.79688 14.2031C10.4502 14.8564 11.2266 15.3252 12.0938 15.5625C12.1787 15.498 12.2754 15.4277 12.3516 15.3516C12.6768 15.0264 12.8877 14.6338 13.0078 14.2031C12.1904 14.0977 11.4434 13.7402 10.8516 13.1484C10.1426 12.4395 9.75 11.502 9.75 10.5C9.75 9.49805 10.1426 8.56055 10.8516 7.85156C11.5605 7.14258 12.498 6.75 13.5 6.75C14.502 6.75 15.4395 7.14258 16.1484 7.85156C16.8574 8.56055 17.25 9.49805 17.25 10.5C17.25 11.1475 17.0654 11.7539 16.7578 12.3047C16.8311 12.6914 16.875 13.0986 16.875 13.5C16.875 13.8721 16.8428 14.2412 16.7812 14.6016C16.9307 14.4814 17.0654 14.3408 17.2031 14.2031C18.1934 13.21 18.75 11.9033 18.75 10.5C18.75 9.35156 18.3721 8.26172 17.6953 7.35938L20.25 4.82812V7.5H21.75V2.25H16.5ZM11.9062 8.4375C11.8213 8.50195 11.7246 8.57227 11.6484 8.64844C11.3232 8.97363 11.1123 9.36621 10.9922 9.79688C11.8096 9.90234 12.5566 10.2598 13.1484 10.8516C13.8574 11.5605 14.25 12.498 14.25 13.5C14.25 14.502 13.8574 15.4395 13.1484 16.1484C12.4395 16.8574 11.502 17.25 10.5 17.25C9.49805 17.25 8.56055 16.8574 7.85156 16.1484C7.14258 15.4395 6.75 14.502 6.75 13.5C6.75 12.8525 6.93457 12.2461 7.24219 11.6953C7.16895 11.3086 7.125 10.9014 7.125 10.5C7.125 10.1279 7.15723 9.75879 7.21875 9.39844C7.06934 9.51855 6.93457 9.65918 6.79688 9.79688C5.80664 10.79 5.25 12.0967 5.25 13.5C5.25 14.6484 5.62793 15.7383 6.30469 16.6406L5.03906 17.9062L3.53906 16.4062L2.46094 17.4609L3.96094 18.9609L2.46094 20.4609L3.53906 21.5391L5.03906 20.0391L6.53906 21.5391L7.59375 20.4609L6.09375 18.9609L7.35938 17.6953C8.26172 18.375 9.34863 18.75 10.5 18.75C11.9033 18.75 13.2129 18.1934 14.2031 17.2031C15.1934 16.2129 15.75 14.9033 15.75 13.5C15.75 12.0967 15.1934 10.79 14.2031 9.79688C13.5498 9.14355 12.7734 8.6748 11.9062 8.4375Z" fill="black"/>
</svg>
