<svg width="24" height="24" viewBox="0 0 24 24" fill="none" xmlns="http://www.w3.org/2000/svg">
<path d="M5.55029 3.75C4.57529 3.75 3.75 4.57529 3.75 5.55029V18.5244C3.75 19.4244 4.57529 20.25 5.55029 20.25H18.5244C19.4994 20.25 20.3247 19.4247 20.3247 18.4497V5.55029C20.2497 4.57529 19.4247 3.75 18.4497 3.75H5.55029ZM11.4756 5.77441C12.5256 6.44941 13.0497 8.175 13.1997 9.375C13.4997 10.2 13.6494 11.1747 13.6494 12.0747C13.6494 14.174 12.8246 15.8233 11.0259 16.9482C12.8626 16.9777 14.25 15.4246 14.25 13.6494C14.25 13.1994 14.1747 12.7503 13.9497 12.3003C14.3247 12.2253 14.6253 12.0753 14.9253 11.9253C15.6003 13.2753 15.5253 15.2244 14.1753 16.6494C12.5253 18.4494 9.59971 18.4494 7.94971 16.6494C5.32471 13.7994 7.19941 9.14941 11.0244 9.14941C11.5494 9.14941 12.0744 9.225 12.5244 9.375C12.3744 9.675 12.2256 10.0503 12.2256 10.4253C11.8506 10.2753 11.4744 10.1997 11.0244 10.1997C9.14941 10.1997 7.80029 11.7747 7.80029 13.5747C7.80029 15.2247 8.92529 16.575 10.4253 16.875C12.7503 15.975 13.1997 12.3747 13.1997 10.1997V9.375C12.7497 8.1 12.1506 6.89941 11.4756 5.77441ZM11.0259 16.9482C11.0002 16.9478 10.9755 16.9507 10.9497 16.9497H11.0244C11.025 16.9493 11.0253 16.9486 11.0259 16.9482ZM16.5747 6.14941C17.8497 7.79941 17.1756 11.0244 15.2256 11.0244C14.7006 11.0244 14.25 10.7253 13.875 10.4253C14.7 9.97529 15.7494 9.22441 16.2744 8.39941C16.3494 8.24941 16.4253 8.09971 16.4253 7.94971C15.9753 8.99971 14.6997 9.825 13.5747 10.125C13.4247 9.825 13.2744 9.52559 13.2744 9.22559C13.2744 8.85059 13.5003 8.32441 13.8003 8.02441C14.6253 7.27441 15.8247 7.72441 16.5747 6.14941Z" fill="black"/>
</svg>
