<svg width="24" height="24" viewBox="0 0 24 24" fill="none" xmlns="http://www.w3.org/2000/svg">
<path d="M14.0156 2.45508L12.9536 3.51562L13.9438 4.50586L4.125 14.3247C2.625 15.8247 2.625 18.375 4.125 19.875C4.875 20.625 5.92441 21 6.89941 21C7.94941 21 8.92529 20.625 9.67529 19.875L19.4941 10.0562L20.4316 10.9922L21.4922 9.93164L14.0156 2.45508ZM14.9941 5.55615L18.4438 9.00586L15.4497 12H8.55029L14.9941 5.55615ZM7.05029 13.5H13.9497L8.625 18.8247C7.65 19.7997 6.15029 19.7997 5.17529 18.8247C4.20029 17.8497 4.20029 16.35 5.17529 15.375L7.05029 13.5Z" fill="black"/>
</svg>
