<svg width="24" height="24" viewBox="0 0 24 24" fill="none" xmlns="http://www.w3.org/2000/svg">
<path d="M12 2.77441L6.07471 7.5H7.5V9.39258L3.82471 12.1494L5.25 12.8423V15.3955L1.5 18.2256L4.5 19.4106V21H6V19.5H11.25V21H12.75V19.5H18V21H19.5V19.4136L22.5747 18.2256L18.75 15.3398V12.8599L20.25 12.1494L16.5 9.33691V7.5H17.9253L12 2.77441ZM12 4.72559L13.6494 6H10.4253L12 4.72559ZM9 7.5H15V9H9V7.5ZM8.55029 10.5H15.5244L17.25 11.8506L17.0244 12H6.89941L6.75 11.8506L8.55029 10.5ZM6.75 13.5H17.25V15H6.75V13.5ZM6.22559 16.5H6.75H17.25H17.7744L19.5 17.7744L18.9756 18H5.02441L4.5 17.7744L6.22559 16.5Z" fill="black"/>
</svg>
