<svg width="24" height="24" viewBox="0 0 24 24" fill="none" xmlns="http://www.w3.org/2000/svg">
<path d="M3.75 3.75V20.25H20.25V3.75H3.75ZM5.25 5.25H18.75V18.75H5.25V5.25ZM15.6592 7.5C14.2282 7.5 13.257 8.12094 12.75 9.78369C13.383 9.51219 14.3185 9.441 14.209 10.5C14.1797 10.8585 13.8624 11.5189 13.4297 12.2036C12.2282 14.0989 11.9357 13.4655 11.2734 9.28125C11.0859 8.103 10.5921 7.55459 9.78809 7.63184C9.07784 7.69634 7.941 8.8268 6.75 9.87305L7.23486 10.5C7.69686 10.1737 7.96692 10.043 8.04492 10.043C8.71692 10.043 9.06223 11.7895 9.87598 14.77C10.2922 15.8808 10.7986 16.4355 11.4023 16.4355C12.3743 16.4355 13.563 15.5225 14.9678 13.6978C16.3268 11.951 17.1083 10.5726 17.1533 9.56836C17.1916 8.28586 16.6447 7.5 15.6592 7.5Z" fill="black"/>
</svg>
