<svg width="24" height="24" viewBox="0 0 24 24" fill="none" xmlns="http://www.w3.org/2000/svg">
<path d="M20.9912 7.80758C20.9121 9.56539 19.6875 11.9677 17.3203 15.0205C14.8711 18.205 12.8027 19.7988 11.1094 19.7988C10.0576 19.7988 9.16992 18.8291 8.44629 16.8896C7.95996 15.1084 7.47656 13.33 6.99316 11.5517C6.4541 9.60933 5.87695 8.63961 5.25879 8.63961C5.12402 8.63961 4.65234 8.92379 3.84668 9.48922L3 8.39644C3.8877 7.61422 4.76367 6.83199 5.62793 6.04976C6.81152 5.02437 7.70215 4.48531 8.29395 4.42965C9.69434 4.29488 10.5586 5.25289 10.8809 7.3066C11.2295 9.52437 11.4727 10.9013 11.6074 11.4404C12.0117 13.2802 12.457 14.1972 12.9434 14.1972C13.3184 14.1972 13.8838 13.6025 14.6396 12.4101C15.3926 11.2148 15.7969 10.3095 15.8525 9.68551C15.958 8.65719 15.5537 8.14156 14.6396 8.14156C14.209 8.14156 13.7637 8.23824 13.3066 8.43453C14.1914 5.53414 15.8818 4.12203 18.3779 4.20406C20.2266 4.2568 21.0967 5.45797 20.9912 7.80758Z" fill="black"/>
</svg>
