<svg width="24" height="24" viewBox="0 0 24 24" fill="none" xmlns="http://www.w3.org/2000/svg">
<path d="M19.2334 11.9531C18.8057 12.0498 18.3955 12.0938 18.0264 12.0938C15.9434 12.0938 14.3408 10.6406 14.3408 8.1123C14.3408 6.87305 14.8213 6.22852 15.498 6.22852C16.1426 6.22852 16.5732 6.80566 16.5732 7.98047C16.5732 8.64551 16.3945 9.37793 16.2627 9.81152C16.2627 9.81152 16.9014 10.9307 18.6562 10.585C19.0283 9.75879 19.2334 8.68945 19.2334 7.74902C19.2334 5.2207 17.9443 3.75 15.5801 3.75C13.1514 3.75 11.7305 5.61621 11.7305 8.08008C11.7305 10.5176 12.8701 12.6123 14.751 13.5645C13.96 15.1465 12.9551 16.541 11.9062 17.5898C10.002 15.2871 8.28223 12.2168 7.57617 6.22852H4.7666C6.06445 16.2041 9.93164 19.3828 10.9541 19.9922C11.5312 20.3379 12.0293 20.3232 12.5596 20.0244C13.3887 19.5527 15.8818 17.0596 17.2617 14.1416C17.8418 14.1387 18.5391 14.0742 19.2334 13.916V11.9531Z" fill="black"/>
</svg>
