<svg width="24" height="24" viewBox="0 0 24 24" fill="none" xmlns="http://www.w3.org/2000/svg">
<path d="M6.81152 3.75C5.12988 3.75 3.75 5.12988 3.75 6.81152V17.1885C3.75 18.8701 5.12988 20.25 6.81152 20.25H17.1885C18.8701 20.25 20.25 18.8701 20.25 17.1885V6.81152C20.25 5.12988 18.8701 3.75 17.1885 3.75H6.81152ZM6.81152 5.25H17.1885C18.0586 5.25 18.75 5.94141 18.75 6.81152V17.1885C18.75 18.0586 18.0586 18.75 17.1885 18.75H6.81152C5.94141 18.75 5.25 18.0586 5.25 17.1885V6.81152C5.25 5.94141 5.94141 5.25 6.81152 5.25ZM11.7891 9.17285C11.2383 9.16699 10.7695 9.17285 10.5059 9.30176C10.3301 9.38672 10.1953 9.58008 10.2773 9.58887C10.3799 9.60352 10.6113 9.65332 10.7344 9.82031C10.8926 10.0342 10.8867 10.5176 10.8867 10.5176C10.8867 10.5176 10.9746 11.8477 10.6729 12.0146C10.4648 12.1289 10.1807 11.8975 9.56543 10.8398C9.25195 10.2949 9.01465 9.69434 9.01465 9.69434C9.01465 9.69434 8.9707 9.58301 8.88867 9.52441C8.78906 9.45117 8.65137 9.42774 8.65137 9.42774L7.18359 9.43652C7.18359 9.43652 6.96387 9.44531 6.88477 9.53906C6.81152 9.62695 6.87891 9.7998 6.87891 9.7998C6.87891 9.7998 8.02734 12.4863 9.32812 13.8398C10.5205 15.082 11.874 15 11.874 15H12.4893C12.4893 15 12.6738 14.9795 12.7676 14.8799C12.8555 14.7861 12.8525 14.6104 12.8525 14.6104C12.8525 14.6104 12.8408 13.7871 13.2217 13.6641C13.5996 13.5469 14.0801 14.4609 14.5928 14.8125C14.9824 15.0791 15.2783 15.0205 15.2783 15.0205L16.6494 15C16.6494 15 17.3643 14.9561 17.0244 14.3906C16.998 14.3467 16.8281 13.9746 16.0078 13.2129C15.1465 12.416 15.2607 12.5449 16.2979 11.165C16.9277 10.3242 17.1797 9.81152 17.1006 9.58887C17.0244 9.38086 16.5615 9.43652 16.5615 9.43652L15.0176 9.44531C15.0176 9.44531 14.9033 9.43066 14.8184 9.48047C14.7363 9.53027 14.6836 9.64746 14.6836 9.64746C14.6836 9.64746 14.4375 10.2979 14.1123 10.8516C13.4268 12.0176 13.1484 12.082 13.0371 12.0088C12.7764 11.8389 12.8408 11.3291 12.8408 10.9688C12.8408 9.83496 13.0137 9.36621 12.5068 9.24316C12.3398 9.20215 12.2168 9.17578 11.7891 9.17285Z" fill="black"/>
</svg>
