<svg width="24" height="24" viewBox="0 0 24 24" fill="none" xmlns="http://www.w3.org/2000/svg">
<g clip-path="url(#clip0_201_35522)">
<path d="M0.449707 9C-0.300293 9 0.074707 9.67529 0.074707 9.67529L2.10059 13.875C2.10059 13.875 2.54971 15 3.82471 15H5.17529C6.45029 15 6.89941 13.875 6.89941 13.875L8.92529 9.67529C8.92529 9.67529 9.30029 9 8.55029 9H7.35059C6.90059 9 6.82559 9.30029 6.60059 9.67529L5.25 12.4497C5.25 12.4497 5.1 12.9756 4.5 12.9756C3.9 12.9756 3.75 12.4497 3.75 12.4497L2.32471 9.67529C2.09971 9.30029 2.02441 9 1.64941 9H0.449707ZM11.3994 9C10.1244 9 9.67529 10.125 9.67529 10.125L7.64941 14.3247C7.64941 14.3247 7.27441 15 8.02441 15H9.22559C9.60059 15 9.67441 14.6997 9.89941 14.3247L11.25 11.5503C11.25 11.5503 11.4 11.0244 12 11.0244C12.525 11.0244 12.75 11.5503 12.75 11.5503L14.1753 14.3247C14.3253 14.6997 14.4756 15 14.8506 15H16.0503C16.8003 15 16.4253 14.3247 16.4253 14.3247L14.3994 10.125C14.3994 10.125 13.9503 9 12.6753 9H11.3994ZM15.5244 9C14.7744 9 15.1494 9.67529 15.1494 9.67529L17.1753 13.875C17.1753 13.875 17.6244 15 18.8994 15H20.1753C21.4503 15 21.8994 13.875 21.8994 13.875L23.9253 9.67529C23.9253 9.67529 24.3006 9 23.4756 9H22.2744C21.8994 9 21.8256 9.30029 21.6006 9.67529L20.25 12.4497C20.25 12.4497 20.1 12.9756 19.5 12.9756C18.975 12.9756 18.75 12.4497 18.75 12.4497L17.3994 9.67529C17.1744 9.30029 17.1006 9 16.7256 9H15.5244Z" fill="black"/>
</g>
<defs>
<clipPath id="clip0_201_35522">
<rect width="24" height="24" fill="white"/>
</clipPath>
</defs>
</svg>
