<svg width="24" height="24" viewBox="0 0 24 24" fill="none" xmlns="http://www.w3.org/2000/svg">
<path d="M6 6.75C3.1084 6.75 0.75 9.1084 0.75 12C0.75 14.8916 3.1084 17.25 6 17.25H18C20.8916 17.25 23.25 14.8916 23.25 12C23.25 9.1084 20.8916 6.75 18 6.75C15.1084 6.75 12.75 9.1084 12.75 12C12.75 13.4678 13.3652 14.7949 14.3438 15.75H9.65625C10.6348 14.7949 11.25 13.4678 11.25 12C11.25 9.1084 8.8916 6.75 6 6.75ZM6 8.25C8.08008 8.25 9.75 9.91992 9.75 12C9.75 14.0801 8.08008 15.75 6 15.75C3.91992 15.75 2.25 14.0801 2.25 12C2.25 9.91992 3.91992 8.25 6 8.25ZM18 8.25C20.0801 8.25 21.75 9.91992 21.75 12C21.75 14.0801 20.0801 15.75 18 15.75C15.9199 15.75 14.25 14.0801 14.25 12C14.25 9.91992 15.9199 8.25 18 8.25Z" fill="black"/>
</svg>
