<svg width="24" height="24" viewBox="0 0 24 24" fill="none" xmlns="http://www.w3.org/2000/svg">
<path d="M6 3.75C4.62891 3.75 3.74707 4.55566 3.375 5.29688C3.22559 5.59277 3.14648 5.87402 3.09375 6.11719C2.17969 6.4043 1.5 7.24805 1.5 8.25V18C1.5 19.2334 2.5166 20.25 3.75 20.25H9C9.99023 20.25 10.8896 19.6523 11.2969 18.75H12.7031C13.1074 19.6523 14.0098 20.25 15 20.25H20.25C21.4834 20.25 22.5 19.2334 22.5 18V8.25C22.5 7.24805 21.8203 6.4043 20.9062 6.11719C20.8535 5.87402 20.7744 5.59277 20.625 5.29688C20.2529 4.55859 19.3652 3.75 18 3.75H6ZM6 5.25H18C18.8613 5.25 19.0928 5.56641 19.2891 5.95312C19.2979 5.9707 19.3037 5.98242 19.3125 6H4.6875C4.69629 5.98242 4.70215 5.9707 4.71094 5.95312C4.9043 5.56934 5.12988 5.25 6 5.25ZM3.75 7.5H20.25C20.6748 7.5 21 7.8252 21 8.25V18C21 18.4248 20.6748 18.75 20.25 18.75H15C14.5928 18.75 14.2236 18.501 14.0625 18.1172L13.2891 16.0547V16.0312L13.2656 16.0078C13.043 15.4863 12.5449 15.1406 11.9766 15.1406C11.4053 15.1406 10.8867 15.4863 10.6641 16.0078L10.6406 16.0312V16.0781L9.9375 18.1172C9.77344 18.501 9.40723 18.75 9 18.75H3.75C3.3252 18.75 3 18.4248 3 18V8.25C3 7.8252 3.3252 7.5 3.75 7.5ZM7.5 9.75C5.85059 9.75 4.5 11.1006 4.5 12.75C4.5 14.3994 5.85059 15.75 7.5 15.75C9.14941 15.75 10.5 14.3994 10.5 12.75C10.5 11.1006 9.14941 9.75 7.5 9.75ZM16.5 9.75C14.8506 9.75 13.5 11.1006 13.5 12.75C13.5 14.3994 14.8506 15.75 16.5 15.75C18.1494 15.75 19.5 14.3994 19.5 12.75C19.5 11.1006 18.1494 9.75 16.5 9.75ZM7.5 11.25C8.33789 11.25 9 11.9121 9 12.75C9 13.5879 8.33789 14.25 7.5 14.25C6.66211 14.25 6 13.5879 6 12.75C6 11.9121 6.66211 11.25 7.5 11.25ZM16.5 11.25C17.3379 11.25 18 11.9121 18 12.75C18 13.5879 17.3379 14.25 16.5 14.25C15.6621 14.25 15 13.5879 15 12.75C15 11.9121 15.6621 11.25 16.5 11.25ZM11.9766 16.8281L12.1406 17.25H11.8359L11.9766 16.8281Z" fill="black"/>
</svg>
