<svg width="24" height="24" viewBox="0 0 24 24" fill="none" xmlns="http://www.w3.org/2000/svg">
<path d="M12.375 3C10.9336 3 9.75 4.18359 9.75 5.625C9.75 7.06641 10.9336 8.25 12.375 8.25C13.8164 8.25 15 7.06641 15 5.625C15 4.18359 13.8164 3 12.375 3ZM12.375 4.5C13.0049 4.5 13.5 4.99512 13.5 5.625C13.5 6.25488 13.0049 6.75 12.375 6.75C11.7451 6.75 11.25 6.25488 11.25 5.625C11.25 4.99512 11.7451 4.5 12.375 4.5ZM9.60938 8.4375C9.22266 8.46973 8.8623 8.6543 8.60156 8.95312L7.24219 10.5234C7.06348 10.7285 6.9375 10.9805 6.89062 11.25L6.375 14.1562L7.85156 14.4141L8.36719 11.5078L9.72656 9.9375H9.75L10.3359 10.0547L9.44531 14.0859C9.35449 14.5049 9.45117 14.9355 9.70312 15.2812L13.8516 21H15.7031L10.9219 14.3906L11.8125 10.3359L12.1641 10.4062L12.7266 12.375C12.8584 12.8262 13.1982 13.1924 13.6406 13.3594L16.2891 14.3672L16.8047 12.9609L14.1797 11.9531L13.5938 9.98438C13.4385 9.44238 12.999 9.03516 12.4453 8.92969L10.0078 8.46094C9.87891 8.4375 9.73828 8.42578 9.60938 8.4375ZM9.35156 16.5234L8.97656 17.9766L6.79688 21H8.64844L10.3828 18.6328L10.4766 18.1875L9.35156 16.5234Z" fill="black"/>
</svg>
