<svg width="24" height="24" viewBox="0 0 24 24" fill="none" xmlns="http://www.w3.org/2000/svg">
<path d="M17.2266 2.99991C17.1123 3.00284 16.9922 3.01749 16.875 3.04678L4.6875 6.25772C3.70312 6.51553 3 7.41788 3 8.43741V18.7499C3 19.9833 4.0166 20.9999 5.25 20.9999H18.75C19.9834 20.9999 21 19.9833 21 18.7499V8.99991C21 7.76651 19.9834 6.74991 18.75 6.74991H8.71875L17.25 4.49991V5.99991H18.75V4.49991C18.75 3.65616 18.0322 2.98819 17.2266 2.99991ZM5.25 8.24991H18.75C19.1748 8.24991 19.5 8.5751 19.5 8.99991V18.7499C19.5 19.1747 19.1748 19.4999 18.75 19.4999H5.25C4.8252 19.4999 4.5 19.1747 4.5 18.7499V8.99991C4.5 8.5751 4.8252 8.24991 5.25 8.24991ZM16.875 12.7499C16.2539 12.7499 15.75 13.2538 15.75 13.8749C15.75 14.496 16.2539 14.9999 16.875 14.9999C17.4961 14.9999 18 14.496 18 13.8749C18 13.2538 17.4961 12.7499 16.875 12.7499Z" fill="black"/>
</svg>
