<svg width="24" height="24" viewBox="0 0 24 24" fill="none" xmlns="http://www.w3.org/2000/svg">
<path d="M13.2744 3C9.52442 3 5.69971 5.47559 4.94971 9.22559C4.49971 11.4756 5.10059 13.5747 3.22559 13.5747C2.40059 13.5747 1.87442 14.5506 2.39942 15.2256C3.44942 16.6506 4.8753 17.475 6.3003 18L6.76172 18.1846C6.7351 18.4453 6.76345 18.7088 6.84494 18.9579C6.92643 19.207 7.05925 19.4363 7.23482 19.6309C7.4104 19.8256 7.62483 19.9812 7.86429 20.0879C8.10374 20.1945 8.36288 20.2497 8.625 20.25C9.05664 20.2493 9.47482 20.0997 9.80894 19.8264C10.1431 19.5531 10.3727 19.1729 10.459 18.75H13.4253H13.5396C13.6259 19.1732 13.8557 19.5535 14.1902 19.8268C14.5246 20.1001 14.9431 20.2496 15.375 20.25C15.6721 20.2499 15.9649 20.1793 16.2294 20.0439C16.4938 19.9084 16.7223 19.7121 16.8959 19.471C17.0696 19.23 17.1835 18.9511 17.2283 18.6574C17.273 18.3637 17.2473 18.0636 17.1533 17.7817C20.2956 16.184 22.0415 13.0034 21.4497 9.60059C20.9997 5.77559 17.2494 3 13.2744 3ZM13.2744 4.5C16.6494 4.5 19.6503 6.82559 20.1753 9.97559C20.6253 12.6756 19.1997 15.2997 16.5747 16.5747L16.2349 16.7109C15.9692 16.573 15.6744 16.5007 15.375 16.5C15.0842 16.5002 14.7974 16.5681 14.5373 16.6983C14.2772 16.8284 14.051 17.0173 13.8765 17.25C13.8759 17.25 13.8755 17.25 13.875 17.25H13.5747H10.4253C10.3335 17.25 10.2156 17.2381 10.1104 17.2339C9.93553 17.006 9.71067 16.8212 9.45313 16.694C9.19559 16.5667 8.91226 16.5004 8.625 16.5C8.26057 16.5007 7.90425 16.6076 7.59961 16.8076C7.59175 16.805 7.58249 16.8029 7.57471 16.8003L6.89942 16.5747C5.84942 16.1997 4.94971 15.6753 4.19971 14.9253C5.99971 14.4003 6.15059 12.3006 6.22559 11.1006C6.30059 10.5756 6.3 10.0494 6.375 9.52441C7.05 6.37441 10.3494 4.5 13.2744 4.5ZM10.875 8.25C10.5766 8.25 10.2905 8.36853 10.0795 8.5795C9.86853 8.79048 9.75 9.07663 9.75 9.375C9.75 9.67337 9.86853 9.95952 10.0795 10.1705C10.2905 10.3815 10.5766 10.5 10.875 10.5C11.1734 10.5 11.4595 10.3815 11.6705 10.1705C11.8815 9.95952 12 9.67337 12 9.375C12 9.07663 11.8815 8.79048 11.6705 8.5795C11.4595 8.36853 11.1734 8.25 10.875 8.25ZM15.375 8.25C15.0766 8.25 14.7905 8.36853 14.5795 8.5795C14.3685 8.79048 14.25 9.07663 14.25 9.375C14.25 9.67337 14.3685 9.95952 14.5795 10.1705C14.7905 10.3815 15.0766 10.5 15.375 10.5C15.6734 10.5 15.9595 10.3815 16.1705 10.1705C16.3815 9.95952 16.5 9.67337 16.5 9.375C16.5 9.07663 16.3815 8.79048 16.1705 8.5795C15.9595 8.36853 15.6734 8.25 15.375 8.25ZM10.2041 11.2339C10.1572 11.2269 10.1065 11.2312 10.0503 11.25C9.8253 11.325 9.675 11.4747 9.75 11.6997C10.125 13.4247 11.775 14.25 13.125 14.25C14.475 14.25 16.125 13.4247 16.5 11.6997C16.5 11.4747 16.4247 11.325 16.1997 11.25C15.9747 11.25 15.825 11.3253 15.75 11.5503C15.45 12.9003 14.175 13.5 13.125 13.5C12.075 13.5 10.8 12.9003 10.5 11.5503C10.4438 11.3815 10.3447 11.255 10.2041 11.2339Z" fill="black"/>
</svg>
