<svg width="24" height="24" viewBox="0 0 24 24" fill="none" xmlns="http://www.w3.org/2000/svg">
<path d="M16.4531 4.71087C16.0459 4.69036 15.6357 4.71966 15.2344 4.80462C14.8623 4.88372 14.6162 5.25287 14.6953 5.62494C14.7744 5.99701 15.1436 6.2431 15.5156 6.164C16.6611 5.92083 17.9092 6.26654 18.75 7.19525C19.5879 8.12689 19.8135 9.41009 19.4531 10.5234C19.3359 10.8867 19.5352 11.2734 19.8984 11.3906C20.2588 11.5077 20.6484 11.3056 20.7656 10.9452C21.2695 9.37786 20.9648 7.59076 19.7812 6.28119C18.8936 5.29974 17.6777 4.76947 16.4531 4.71087ZM10.2422 6.77337C8.98535 6.90814 7.23047 7.88665 5.67188 9.44525C3.97559 11.1445 3 12.9521 3 14.5077C3 17.4843 6.81152 19.289 10.5469 19.289C15.4424 19.289 18.7031 16.4384 18.7031 14.1796C18.7031 12.8144 17.5576 12.038 16.5234 11.7187C16.2686 11.6425 16.0869 11.6074 16.2188 11.2734C16.5059 10.5497 16.5527 9.914 16.2422 9.46869C15.6592 8.63372 14.042 8.67767 12.2109 9.44525C12.2109 9.44525 11.6426 9.71478 11.7891 9.25775C12.0703 8.35247 12.0176 7.58783 11.5781 7.14837C11.2676 6.83783 10.8135 6.71185 10.2422 6.77337ZM16.3359 7.14837C16.1367 7.13958 15.9463 7.15423 15.75 7.19525C15.4277 7.26263 15.2109 7.59955 15.2812 7.92181C15.3516 8.24115 15.665 8.43744 15.9844 8.36712C16.3682 8.28509 16.8047 8.40814 17.0859 8.71869C17.3672 9.02923 17.4404 9.44818 17.3203 9.82025C17.2207 10.1308 17.3848 10.4677 17.6953 10.5702C18.0059 10.6699 18.3457 10.5058 18.4453 10.1952C18.6914 9.43353 18.5303 8.56048 17.9531 7.92181C17.5225 7.44427 16.9336 7.17474 16.3359 7.14837ZM10.9453 11.1093C13.4355 11.1972 15.4395 12.4452 15.6094 14.1562C15.8027 16.1132 13.5498 17.9413 10.5703 18.2343C7.59082 18.5273 4.99805 17.1679 4.80469 15.2109C4.61133 13.2538 6.8877 11.4257 9.86719 11.1327C10.2393 11.0947 10.5908 11.0976 10.9453 11.1093ZM9.77344 12.5624C8.69531 12.665 7.68164 13.289 7.21875 14.2265C6.5918 15.5009 7.19238 16.9277 8.625 17.3906C10.1104 17.8681 11.8594 17.1269 12.4688 15.7499C13.0693 14.4052 12.3193 13.0341 10.8516 12.6562C10.4971 12.5654 10.1338 12.5273 9.77344 12.5624ZM10.4531 14.2031C10.5 14.2031 10.5264 14.2089 10.5703 14.2265C10.752 14.2939 10.834 14.4931 10.7344 14.6718C10.6289 14.8505 10.4004 14.9326 10.2188 14.8593C10.04 14.7861 9.97852 14.5898 10.0781 14.414C10.1572 14.2822 10.3125 14.206 10.4531 14.2031ZM9.07031 14.6249C9.19629 14.6279 9.33105 14.6454 9.44531 14.6952C9.91113 14.8945 10.0576 15.4277 9.77344 15.8906C9.48633 16.3505 8.87988 16.5702 8.41406 16.3593C7.95703 16.1513 7.82227 15.6122 8.10938 15.164C8.32324 14.83 8.69531 14.6191 9.07031 14.6249Z" fill="black"/>
</svg>
