<svg width="24" height="24" viewBox="0 0 24 24" fill="none" xmlns="http://www.w3.org/2000/svg">
<path d="M3 4.5V19.5H21V4.5H3ZM4.5 6H19.5V18H4.5V6ZM12 7.5C8.75098 7.5 6.32812 9.11719 6.32812 9.11719L5.74219 9.51562L6.11719 10.125L8.36719 13.875L8.57812 14.25H15.4219L15.6328 13.875L17.8828 10.125L18.2578 9.51562L17.6719 9.11719C17.6719 9.11719 15.249 7.5 12 7.5ZM12 9C14.1182 9 15.5156 9.67969 16.1953 10.0547L14.6016 12.75H13.2188L14.1797 10.8281L12.8203 10.1719L11.5312 12.75H9.39844L7.80469 10.0547C8.48438 9.67969 9.88184 9 12 9Z" fill="black"/>
</svg>
