<svg width="24" height="24" viewBox="0 0 24 24" fill="none" xmlns="http://www.w3.org/2000/svg">
<path d="M12 3.75C10.7666 3.75 9.75 4.7666 9.75 6C9.75 6.26367 9.80566 6.5127 9.89062 6.75H6.14062L6.02344 7.35938L3.77344 18.6094L3.75 18.6797V20.25H20.25V18.6797L20.2266 18.6094L17.9766 7.35938L17.8594 6.75H14.1094C14.1943 6.5127 14.25 6.26367 14.25 6C14.25 4.7666 13.2334 3.75 12 3.75ZM12 5.25C12.4219 5.25 12.75 5.57812 12.75 6C12.75 6.42188 12.4219 6.75 12 6.75C11.5781 6.75 11.25 6.42188 11.25 6C11.25 5.57812 11.5781 5.25 12 5.25ZM7.35938 8.25H16.6406L18.75 18.75H5.25L7.35938 8.25Z" fill="black"/>
</svg>
