<svg width="24" height="24" viewBox="0 0 24 24" fill="none" xmlns="http://www.w3.org/2000/svg">
<path d="M10.5 3.75C6.43359 3.75 3 6.5332 3 10.125C3 11.3379 3.44531 12.4512 4.125 13.4062L3.84375 15.5859L3.67969 16.8984L4.875 16.3828L6.75 15.6094C7.6875 16.0723 8.74219 16.3652 9.86719 16.4531C10.415 18.668 12.7324 20.25 15.375 20.25C16.4648 20.25 17.4609 19.9424 18.3281 19.4766L19.2188 19.9922L20.5078 20.6953L20.3203 19.2422L20.1562 17.8828C20.6543 17.168 21 16.3506 21 15.4453C21 13.5264 19.7197 11.918 17.9062 11.1328C17.9707 10.8047 18 10.4766 18 10.125C18 6.5332 14.5664 3.75 10.5 3.75ZM10.5 5.25C13.8896 5.25 16.5 7.50586 16.5 10.125C16.5 10.3242 16.4854 10.5205 16.4531 10.7109C16.0986 10.6494 15.7471 10.6172 15.375 10.6172C12.5244 10.6172 10.0576 12.4629 9.77344 14.9531C8.7832 14.8535 7.875 14.5693 7.10156 14.1328L6.77344 13.9688L6.44531 14.1094L5.48438 14.5078L5.64844 13.3594L5.67188 13.0312L5.48438 12.7969C4.85449 12.0176 4.5 11.1035 4.5 10.125C4.5 7.50586 7.11035 5.25 10.5 5.25ZM7.92188 6.86719C7.33887 6.86719 6.86719 7.33887 6.86719 7.92188C6.86719 8.50488 7.33887 9 7.92188 9C8.50488 9 8.97656 8.50488 8.97656 7.92188C8.97656 7.33887 8.50488 6.86719 7.92188 6.86719ZM12.9375 6.86719C12.3545 6.86719 11.8594 7.33887 11.8594 7.92188C11.8594 8.50488 12.3545 9 12.9375 9C13.5205 9 13.9922 8.50488 13.9922 7.92188C13.9922 7.33887 13.5205 6.86719 12.9375 6.86719ZM15.375 12.1172C17.7305 12.1172 19.5 13.6875 19.5 15.4453C19.5 16.1104 19.2598 16.7139 18.8203 17.25L18.6094 17.5078L18.6562 17.8125L18.6797 17.9531L18.3281 17.7656L17.9531 18.0234C17.2529 18.4775 16.3594 18.75 15.375 18.75C13.0195 18.75 11.25 17.2031 11.25 15.4453C11.25 13.6875 13.0195 12.1172 15.375 12.1172ZM13.5 13.0781C13.0576 13.0781 12.6797 13.4326 12.6797 13.875C12.6797 14.3174 13.0576 14.6719 13.5 14.6719C13.9395 14.6719 14.2969 14.3174 14.2969 13.875C14.2969 13.4326 13.9424 13.0781 13.5 13.0781ZM17.2734 13.0781C16.834 13.0781 16.4766 13.4326 16.4766 13.875C16.4766 14.3174 16.8311 14.6719 17.2734 14.6719C17.7158 14.6719 18.0703 14.3174 18.0703 13.875C18.0703 13.4326 17.7158 13.0781 17.2734 13.0781Z" fill="black"/>
</svg>
