<svg width="24" height="24" viewBox="0 0 24 24" fill="none" xmlns="http://www.w3.org/2000/svg">
<path d="M3.75 3.75V20.25H20.25V3.75H3.75ZM5.25 5.25H18.75V18.75H5.25V5.25ZM12 6.75C9.075 6.75 6.75 9.075 6.75 12C6.75 12.975 7.05 13.875 7.5 14.625L6.75 17.25L9.375 16.5747C10.125 17.0247 11.025 17.25 12 17.25C14.925 17.25 17.25 14.925 17.25 12C17.25 9.075 14.925 6.75 12 6.75ZM12 7.875C14.25 7.875 16.125 9.75 16.125 12C16.125 14.25 14.25 16.125 12 16.125C11.25 16.125 10.5756 15.9006 9.97559 15.6006L9.60059 15.375L9.14941 15.5244L8.39941 15.75L8.625 15L8.77441 14.5503L8.55029 14.1753C8.17529 13.5753 7.94971 12.8247 7.94971 12.0747C7.87471 9.74971 9.75 7.875 12 7.875ZM10.3506 9.82471C10.2756 9.82471 10.1253 9.82559 10.0503 9.97559C9.90029 10.0506 9.60059 10.3497 9.60059 10.9497C9.60059 11.4747 9.97529 12.0744 10.0503 12.1494C10.1253 12.2244 10.8747 13.4247 12.0747 13.9497C12.8247 14.2497 13.125 14.325 13.5 14.25C13.725 14.175 14.2497 13.9494 14.3247 13.6494C14.3997 13.3494 14.4006 13.1244 14.4756 13.2744C14.4756 13.1994 14.4 13.2 14.25 13.125C14.1 13.05 13.5003 12.75 13.4253 12.75C13.2753 12.75 13.2 12.6747 13.125 12.8247C13.05 12.8997 12.825 13.1994 12.75 13.2744C12.675 13.3494 12.6744 13.3494 12.5244 13.2744C11.7744 12.8994 11.325 12.6006 10.875 11.8506C10.8 11.6256 11.025 11.6253 11.25 11.1753C11.325 11.1003 11.25 11.0247 11.25 10.9497C11.175 10.8747 10.95 10.2753 10.875 10.0503C10.725 9.82529 10.6497 9.82471 10.5747 9.82471H10.3506Z" fill="black"/>
</svg>
