<svg width="24" height="24" viewBox="0 0 24 24" fill="none" xmlns="http://www.w3.org/2000/svg">
<path d="M15 2.25C13.7666 2.25 12.75 3.2666 12.75 4.5C12.75 5.7334 13.7666 6.75 15 6.75C16.2334 6.75 17.25 5.7334 17.25 4.5C17.25 3.2666 16.2334 2.25 15 2.25ZM15 3.75C15.4219 3.75 15.75 4.07812 15.75 4.5C15.75 4.92188 15.4219 5.25 15 5.25C14.5781 5.25 14.25 4.92188 14.25 4.5C14.25 4.07812 14.5781 3.75 15 3.75ZM10.8984 5.83594L8.20312 6.14062C7.75781 6.19043 7.36816 6.44238 7.125 6.82031L5.25 9.72656L6.51562 10.5234L8.39062 7.64062L10.1016 7.45312L9 10.5703C6.46289 10.9365 4.5 13.1133 4.5 15.75C4.5 18.6416 6.8584 21 9.75 21C12.6416 21 15 18.6416 15 15.75C15 15.4951 14.9648 15.2461 14.9297 15H15.8906L16.8984 19.5703L18.3516 19.2422L17.3672 14.6719C17.2178 13.9863 16.5908 13.5 15.8906 13.5H14.4844C14.1855 12.8701 13.7549 12.3223 13.2422 11.8594L14.1094 9.44531C14.4873 8.39941 14.0332 7.22754 13.0547 6.70312L11.7891 6V6.02344C11.5195 5.87988 11.2002 5.80078 10.8984 5.83594ZM11.6484 7.64062L12.3516 8.01562C12.6855 8.19434 12.832 8.5752 12.7031 8.92969L11.9531 10.9922C11.5195 10.79 11.0566 10.6465 10.5703 10.5703L11.6484 7.64062ZM9.75 12C11.8301 12 13.5 13.6699 13.5 15.75C13.5 17.8301 11.8301 19.5 9.75 19.5C7.66992 19.5 6 17.8301 6 15.75C6 13.6699 7.66992 12 9.75 12Z" fill="black"/>
</svg>
