<svg width="24" height="24" viewBox="0 0 24 24" fill="none" xmlns="http://www.w3.org/2000/svg">
<path d="M12 5.25C8.23828 5.25 4.84277 6.81152 2.39062 9.30469L3.44531 10.3594C5.625 8.13867 8.65137 6.75 12 6.75C15.3486 6.75 18.375 8.13867 20.5547 10.3594L21.6094 9.30469C19.1572 6.81152 15.7617 5.25 12 5.25ZM12 9C9.26953 9 6.81152 10.1396 5.03906 11.9531L6.09375 13.0078C7.59375 11.4668 9.68555 10.5 12 10.5C14.3145 10.5 16.4062 11.4668 17.9062 13.0078L18.9609 11.9531C17.1885 10.1396 14.7305 9 12 9ZM12 12.75C10.3037 12.75 8.78027 13.4678 7.6875 14.6016L8.74219 15.6562C9.5625 14.7949 10.7168 14.25 12 14.25C13.2832 14.25 14.4375 14.7949 15.2578 15.6562L16.3125 14.6016C15.2227 13.4678 13.6963 12.75 12 12.75ZM12 16.5C11.3379 16.5 10.749 16.793 10.3359 17.25L12 18.9141L13.6641 17.25C13.251 16.793 12.6621 16.5 12 16.5Z" fill="black"/>
</svg>
