<svg width="24" height="24" viewBox="0 0 24 24" fill="none" xmlns="http://www.w3.org/2000/svg">
<path d="M22.5 6.91113C22.5 7.04004 22.3975 7.14258 22.2656 7.14258H21.0059L15.293 19.3037C15.2549 19.3857 15.1729 19.4385 15.085 19.4385C15.082 19.4385 15.082 19.4385 15.082 19.4385C14.9912 19.4385 14.9121 19.3887 14.8711 19.3096L12.1611 13.9336L9.23438 19.3184C9.19336 19.3945 9.11719 19.4385 9.02344 19.4385C8.93555 19.4355 8.85645 19.3857 8.81836 19.3066L3.04102 7.14258H1.73438C1.60547 7.14258 1.5 7.04004 1.5 6.91113V6.29297C1.5 6.16406 1.60547 6.06152 1.73438 6.06152H6.39258C6.52149 6.06152 6.62695 6.16406 6.62695 6.29297V6.91113C6.62695 7.04004 6.52149 7.14258 6.39258 7.14258H5.39062L9.37793 16.3389L11.4521 12.4629L8.82129 7.14551H8.18848C8.05957 7.14551 7.9541 7.04004 7.9541 6.91113V6.2959C7.9541 6.16699 8.05957 6.06152 8.18848 6.06152H11.6367C11.7656 6.06152 11.8682 6.16699 11.8682 6.2959V6.91113C11.8682 7.04004 11.7656 7.14258 11.6367 7.14258H11.0273L12.542 10.4531L14.3438 7.14258H13.2393C13.1074 7.14258 13.0049 7.04004 13.0049 6.91113V6.2959C13.0049 6.16699 13.1074 6.06152 13.2393 6.06152H16.5879C16.7168 6.06152 16.8193 6.16699 16.8193 6.2959V6.91113C16.8193 7.04004 16.7168 7.14258 16.5879 7.14258H15.8525L13.2246 11.9209L15.3662 16.3271L19.5 7.14258H18.1904C18.0615 7.14258 17.9561 7.04004 17.9561 6.91113V6.2959C17.9561 6.16699 18.0615 6.06152 18.1904 6.06152H22.2656C22.3975 6.06152 22.5 6.16699 22.5 6.2959V6.91113Z" fill="black"/>
</svg>
