<svg width="24" height="24" viewBox="0 0 24 24" fill="none" xmlns="http://www.w3.org/2000/svg">
<path d="M6.22559 3.75L6 4.19971C5.55 5.17471 5.25 6.525 5.25 8.25C5.25 11.7 7.875 14.5503 11.25 14.9253V19.5H7.5V21H16.5V19.5H12.75V14.9253C16.125 14.5503 18.75 11.7 18.75 8.25C18.75 6.525 18.45 5.17471 18 4.19971L17.8506 3.75H6.22559ZM7.19971 5.25H16.8003C17.1003 6.15 17.25 7.2 17.25 8.25C17.25 9.825 16.5744 11.1744 15.5244 12.1494L15.4497 12.2256C15.3747 12.3006 15.3006 12.375 15.2256 12.375C15.1506 12.45 15.0747 12.4494 15.0747 12.5244C14.9997 12.5994 14.9256 12.6003 14.8506 12.6753C14.7756 12.7503 14.7 12.7497 14.625 12.8247C14.55 12.8247 14.4756 12.8994 14.4756 12.8994C14.4006 12.9744 14.3253 12.9753 14.1753 13.0503C14.1003 13.0503 14.0244 13.125 14.0244 13.125C13.9494 13.2 13.8006 13.1997 13.7256 13.1997C13.6506 13.1997 13.6497 13.2744 13.5747 13.2744C13.4997 13.2744 13.3494 13.3506 13.2744 13.3506C13.1994 13.3506 13.2 13.3503 13.125 13.4253H12.6753H12.5244H12C9.075 13.4253 6.75 11.1003 6.75 8.17529V7.35059V7.05029L7.19971 5.25Z" fill="black"/>
</svg>
