<svg width="24" height="24" viewBox="0 0 24 24" fill="none" xmlns="http://www.w3.org/2000/svg">
<path d="M16.5381 7.4618C16.1443 7.44305 15.8247 7.49989 15.8247 7.49989L18.8247 11.9999L15.8247 16.4252C15.8247 16.4252 17.1744 16.6502 17.7744 16.0502C18.1494 15.6752 18.3744 15.2999 19.6494 13.4999C19.8744 13.1249 20.1006 13.4999 20.1006 13.4999C21.2256 14.9999 21.5253 15.6002 22.0503 16.0502C22.7253 16.5752 24 16.4252 24 16.4252L21 11.9999L23.9253 7.49989C23.9253 7.49989 22.6503 7.27489 22.0503 7.87489C21.6003 8.32489 21.1506 8.92489 20.1006 10.4999C20.1006 10.4999 19.8744 10.8749 19.6494 10.4999C18.5994 8.99989 18.1497 8.32489 17.6997 7.87489C17.3997 7.57489 16.9318 7.48055 16.5381 7.4618ZM0.314941 7.49256C0.208887 7.48758 0.103125 7.49051 0 7.49989L2.39941 16.4999C2.39941 16.4999 3.14941 16.5005 3.52441 16.3505C4.04941 16.1255 4.27471 15.8996 4.57471 14.6996C4.87471 13.6496 5.62471 10.4246 5.69971 10.1996C5.84971 9.6746 6.07559 9.6746 6.22559 10.1996C6.30059 10.4246 7.05059 13.5746 7.35059 14.6996C7.65059 15.8996 7.87441 16.1255 8.39941 16.3505C8.84941 16.5755 9.60059 16.4999 9.60059 16.4999L12 7.49989C11.175 7.42489 10.2 7.8743 10.125 8.7743L8.85059 13.5746L7.80029 9.67518C7.57529 8.55018 7.04971 7.9496 6.07471 7.9496C5.09971 7.9496 4.65059 8.47518 4.35059 9.67518L3.30029 13.5746L2.02441 8.7743C1.82754 7.92118 1.05732 7.52743 0.314941 7.49256ZM14.6997 7.49989C14.6997 7.49989 14.1006 7.4993 13.7256 7.6493C13.2756 7.8743 13.125 8.3246 13.125 9.4496C13.125 9.4496 13.3506 9.2246 13.7256 9.0746C14.7756 8.6996 14.6997 7.94989 14.6997 7.49989ZM14.625 8.99989V9.05702C14.6432 9.02438 14.6476 8.99989 14.625 8.99989ZM14.625 9.05702C14.5827 9.13272 14.4373 9.27008 14.1753 9.37489C13.9503 9.52489 13.725 9.60018 13.5 9.67518C12.975 9.90018 13.0503 10.1996 13.0503 10.9496V16.4999C13.0503 16.4999 13.6494 16.5755 14.0244 16.3505C14.5494 16.1255 14.625 15.8246 14.625 14.6996V9.05702Z" fill="black"/>
</svg>
