<svg width="24" height="24" viewBox="0 0 24 24" fill="none" xmlns="http://www.w3.org/2000/svg">
<path d="M5.55029 2.25C4.87529 4.575 5.40029 6.74971 5.55029 7.19971C6.15029 6.97471 7.42441 5.77529 5.77441 4.42529C6.74941 4.72529 7.27559 5.55029 7.35059 6.30029C7.50059 7.35029 6.07471 8.25 5.32471 8.25C4.12471 8.325 3 9.525 3 10.5L3.82471 10.125C3.59971 10.8 3.37441 11.4753 3.52441 12.3003L4.5 12.0747C3.9 13.0497 4.12471 14.5503 4.19971 15.3003L5.17529 14.7744L5.47559 16.125L6.375 15.8994L6.75 17.0244L7.72559 16.1997L6.97559 16.5L6.67529 15.2256L6 15.4497L5.77441 14.1753L4.72559 14.4756C4.57559 13.5006 4.8 12.5997 5.25 11.6997L4.125 11.3994C4.5 9.74941 5.47441 9.45 6.52441 9.375C6.89941 10.575 6.74971 11.5497 6.44971 12.4497C9.52471 14.6247 9.37441 16.9494 9.52441 18.1494C9.67441 19.2744 9.675 21.5247 10.5 21.8247V20.6997L10.7256 20.3994L10.9497 20.8506L11.3247 20.25L11.7744 21.0747L12.0747 20.1753L12.4497 20.7744L12.6753 20.3247L12.8994 20.625V21.75C13.7244 21.45 13.725 19.1997 13.875 18.0747C14.025 16.8747 13.8747 14.55 16.9497 12.375C16.6497 11.475 16.5 10.5003 16.875 9.30029C17.925 9.45029 18.8994 9.67471 19.2744 11.3247L18.1494 11.625C18.5994 12.525 18.8253 13.4244 18.6753 14.3994L17.625 14.1006L17.25 15.4497L16.5747 15.1494L16.2744 16.4253L15.5244 16.125L16.5 16.9497L16.8003 15.8994L17.6997 16.125L18 14.7744L18.9756 15.3003C18.9756 14.5503 19.2753 13.1247 18.6753 12.0747L19.6494 12.3003C19.7994 11.4753 19.5756 10.8 19.3506 10.125L20.25 10.5C20.25 9.525 19.1253 8.325 17.9253 8.25C17.1753 8.175 15.7494 7.27529 15.8994 6.30029C15.9744 5.55029 16.5006 4.65029 17.4756 4.42529C15.8256 5.85029 17.0997 6.97471 17.6997 7.19971C17.8497 6.74971 18.3747 4.575 17.6997 2.25C16.1997 3.15 14.4 4.725 14.25 7.875L12.1494 9.22559L12 12.75L15.8994 10.6494L16.1997 10.9497L15.5244 11.1006L13.875 12.6006L13.2744 12.375L12.2256 14.25L12.0747 18.75L12.8994 19.3506L11.6997 19.9497L10.5 19.3506L11.3247 18.75L11.1753 14.1753L10.125 12.3003L9.52441 12.5244L7.875 11.0244L7.19971 10.875L7.5 10.5747L11.25 12.75L11.1006 9.22559L9 7.875C8.85 4.725 7.12529 3.15 5.55029 2.25ZM6.14941 10.125C5.47441 10.2 4.80029 10.4253 4.42529 11.1753C4.95029 11.3253 5.32471 11.3997 6.07471 11.6997C6.07471 11.2497 6.14941 10.65 6.14941 10.125ZM17.1006 10.125C17.1006 10.65 17.1753 11.2497 17.1753 11.6997C17.9253 11.3997 18.2997 11.3253 18.8247 11.1753C18.4497 10.4253 17.8506 10.2 17.1006 10.125ZM6.07471 11.8506C5.32471 12.3756 5.02471 13.1244 4.94971 14.0244C5.39971 13.8744 5.85 13.6494 6.375 13.6494C6.15 13.1244 6.07471 12.5256 6.07471 11.8506ZM17.1753 11.8506C17.1753 12.5256 17.1 13.1244 16.875 13.6494C17.4 13.6494 17.8503 13.8744 18.3003 14.0244C18.2253 13.1244 17.9253 12.3756 17.1753 11.8506ZM6.44971 13.6494C6.29971 14.0244 6.22559 14.4003 6.22559 14.9253L7.125 14.6997C6.9 14.3247 6.67471 14.0244 6.44971 13.6494ZM7.125 14.6997C7.125 15.1497 7.12471 15.5244 7.19971 15.8994C7.49971 15.8244 7.79941 15.7506 8.02441 15.6006C7.72441 15.3756 7.425 14.9997 7.125 14.6997ZM16.8003 13.6494C16.5753 14.0244 16.35 14.3247 16.125 14.6997L17.0244 14.9253C17.0244 14.4003 16.9503 14.0244 16.8003 13.6494ZM16.125 14.6997C15.825 14.9997 15.5256 15.3756 15.2256 15.6006C15.4506 15.7506 15.7503 15.8244 16.0503 15.8994C16.1253 15.5244 16.125 15.1497 16.125 14.6997ZM8.02441 15.75C8.09941 15.975 8.10029 16.2747 8.17529 16.5747L8.77441 16.1997C8.47441 16.0497 8.24941 15.9 8.02441 15.75ZM15.2256 15.75C15.0006 15.9 14.7756 16.0497 14.4756 16.1997L15.0747 16.5747C15.1497 16.2747 15.1506 15.975 15.2256 15.75Z" fill="black"/>
</svg>
