<svg width="24" height="24" viewBox="0 0 24 24" fill="none" xmlns="http://www.w3.org/2000/svg">
<path d="M3 4.5L4.35938 9H3V10.5H4.80469L5.25 12H3V13.5H5.69531L7.5 19.5H9L10.5 13.5H13.5L15 19.5H16.5L18.3047 13.5H21V12H18.75L19.1953 10.5H21V9H19.6406L21 4.5H19.5L18.1406 9H13.875L12.75 4.5H11.25L10.125 9H5.85938L4.5 4.5H3ZM12 7.5L12.375 9H11.625L12 7.5ZM6.30469 10.5H9.75L9.375 12H6.75L6.30469 10.5ZM11.25 10.5H12.75L13.125 12H10.875L11.25 10.5ZM14.25 10.5H17.6953L17.25 12H14.625L14.25 10.5ZM7.19531 13.5H9L8.17969 16.7812L7.19531 13.5ZM15 13.5H16.8047L15.8203 16.7812L15 13.5Z" fill="black"/>
</svg>
