<svg width="24" height="24" viewBox="0 0 24 24" fill="none" xmlns="http://www.w3.org/2000/svg">
<path d="M12 2.25C6.621 2.25 2.25 6.621 2.25 12C2.25 17.379 6.621 21.75 12 21.75C17.379 21.75 21.75 17.379 21.75 12C21.75 6.621 17.379 2.25 12 2.25ZM12 3.87598C14.1189 3.87598 16.0366 4.68513 17.48 6.00439C17.449 6.00377 17.4177 5.99561 17.3789 5.99561C16.5824 5.99561 16.0635 6.69366 16.0635 7.44141C16.0635 8.11566 16.4031 8.67731 16.8179 9.35156C17.1261 9.88781 17.4844 10.5864 17.4844 11.5854C17.4844 12.2844 17.224 13.0883 16.8662 14.2178L16.0635 16.9233L13.0137 7.52783C13.5012 7.50308 13.9395 7.45459 13.9395 7.45459C14.3782 7.40584 14.3299 6.75601 13.8911 6.78076C13.8911 6.78076 12.5752 6.88623 11.7217 6.88623C10.9259 6.88623 9.58447 6.78076 9.58447 6.78076C9.14572 6.75601 9.09738 7.43059 9.53613 7.45459C9.53613 7.45459 9.94992 7.50308 10.3887 7.52783L11.7568 11.6587L9.98438 16.9893L6.91113 7.5293C7.40688 7.50455 7.8457 7.45605 7.8457 7.45605C8.28445 7.4073 8.22786 6.75748 7.79736 6.78223C7.79736 6.78223 6.53602 6.88231 5.68213 6.88623C7.1692 5.04881 9.44109 3.87598 12 3.87598ZM19.1338 8.10059C19.7649 9.25704 20.124 10.5845 20.124 12C20.124 15.2171 18.269 17.977 15.5698 19.2949C15.7449 19.2085 15.919 19.122 16.0869 19.0195L18.5654 11.8462C19.0282 10.6927 19.1821 9.76576 19.1821 8.93701C19.1821 8.63626 19.1668 8.36741 19.1353 8.10791C19.1341 8.1057 19.1348 8.10284 19.1338 8.10059ZM4.65234 8.53857L8.44922 19.3052C5.73947 17.991 3.87598 15.2248 3.87598 12C3.87598 10.7586 4.15883 9.5888 4.65234 8.53857ZM12.1377 12.7075L14.6411 19.5557C14.6572 19.5951 14.6732 19.6282 14.6968 19.6597C13.8525 19.9553 12.9478 20.124 12 20.124C11.1998 20.124 10.4294 20.0051 9.7002 19.7915L12.1377 12.7075ZM8.54736 19.3521C8.75844 19.4486 8.97168 19.5361 9.1875 19.6187C8.96937 19.5385 8.75614 19.4498 8.54736 19.3521ZM15.312 19.4194C15.1407 19.4957 14.965 19.5629 14.7876 19.6274C14.9657 19.5654 15.1404 19.4952 15.312 19.4194ZM9.42041 19.7036C9.50721 19.7323 9.59352 19.761 9.68262 19.7871C9.59426 19.761 9.50746 19.7326 9.42041 19.7036Z" fill="black"/>
</svg>
