<svg width="24" height="24" viewBox="0 0 24 24" fill="none" xmlns="http://www.w3.org/2000/svg">
<path d="M12 3C7.03711 3 3 7.03711 3 12C3 16.9629 7.03711 21 12 21C16.9629 21 21 16.9629 21 12C21 7.03711 16.9629 3 12 3ZM12 3.42188C16.7344 3.42188 20.5781 7.26562 20.5781 12C20.5781 16.7344 16.7344 20.5781 12 20.5781C7.26562 20.5781 3.42188 16.7344 3.42188 12C3.42188 7.26562 7.26562 3.42188 12 3.42188ZM12 4.28906C9.30176 4.28906 6.93457 5.66016 5.55469 7.75781C5.73633 7.76367 5.90039 7.75781 6.04688 7.75781C6.85547 7.75781 8.10938 7.66406 8.10938 7.66406C8.52539 7.64062 8.57227 8.24707 8.15625 8.29688C8.15625 8.29688 7.73145 8.36719 7.26562 8.39062L10.0781 16.7344L11.7656 11.6719L10.5703 8.39062C10.1543 8.36719 9.75 8.29688 9.75 8.29688C9.33398 8.27344 9.38086 7.64062 9.79688 7.66406C9.79688 7.66406 11.0771 7.75781 11.8359 7.75781C12.6445 7.75781 13.8984 7.66406 13.8984 7.66406C14.3145 7.64062 14.3613 8.24707 13.9453 8.29688C13.9453 8.29688 13.5176 8.36719 13.0547 8.39062L15.8438 16.6875L16.6172 14.1094C17.0068 13.1074 17.2031 12.2637 17.2031 11.6016C17.2031 10.6465 16.8662 10.0049 16.5703 9.49219C16.1807 8.85645 15.8203 8.2998 15.8203 7.66406C15.8203 6.95508 16.3506 6.30469 17.1094 6.30469C17.1445 6.30469 17.168 6.30469 17.2031 6.30469C15.8291 5.04492 14.0098 4.28906 12 4.28906ZM18.7734 8.29688C18.8086 8.54297 18.8203 8.80957 18.8203 9.09375C18.8203 9.87598 18.6738 10.7578 18.2344 11.8594L15.8906 18.6797C18.1875 17.3408 19.7109 14.8477 19.7109 12C19.7109 10.6582 19.377 9.39551 18.7734 8.29688ZM4.94531 8.85938C4.51758 9.81738 4.28906 10.8809 4.28906 12C4.28906 15.0557 6.0498 17.6865 8.625 18.9375L4.94531 8.85938ZM12.1406 12.6797L9.82031 19.4062C10.5117 19.6084 11.2412 19.7109 12 19.7109C12.8994 19.7109 13.752 19.5703 14.5547 19.2891C14.5342 19.2568 14.5225 19.21 14.5078 19.1719L12.1406 12.6797Z" fill="black"/>
</svg>
