<svg width="24" height="24" viewBox="0 0 24 24" fill="none" xmlns="http://www.w3.org/2000/svg">
<path d="M12 3C7.05 3 3 6.375 3 10.5C3 11.775 3.37529 12.9756 4.05029 14.1006C3.37529 14.7006 3 15.6 3 16.5C3 18.6 5.025 20.25 7.5 20.25C9.375 20.25 10.95 19.35 11.625 18H12.375C13.05 19.35 14.625 20.25 16.5 20.25C18.975 20.25 21 18.6 21 16.5C21 15.6 20.6247 14.7006 19.9497 14.1006C20.6247 13.0506 21 11.85 21 10.5C21 6.375 16.95 3 12 3ZM12 4.5C16.125 4.5 19.5 7.2 19.5 10.5C19.5 10.7318 19.4802 10.9583 19.4473 11.1826C19.4427 11.2152 19.4349 11.2469 19.4297 11.2793C19.3963 11.4782 19.3526 11.6749 19.2949 11.8696C19.2871 11.896 19.2798 11.9225 19.2715 11.9487C19.2165 12.1241 19.1473 12.2985 19.0737 12.4717C18.7553 13.1845 18.2687 13.8361 17.625 14.3994C18.732 14.7684 19.4721 15.5743 19.4956 16.4575C19.4713 17.6438 18.1349 18.6753 16.5 18.6753C15.3 18.6753 14.1756 18.075 13.7256 17.25L13.2744 16.5H12.375H11.625H10.7256L10.2744 17.3247C9.82441 18.1497 8.7 18.75 7.5 18.75C5.85 18.75 4.5 17.7 4.5 16.5C4.5 16.3526 4.52259 16.2147 4.56006 16.0854C4.56173 16.079 4.56417 16.0728 4.56592 16.0664C4.6712 15.7192 4.87913 15.4433 5.04199 15.2285C5.3688 14.8748 5.82602 14.5824 6.375 14.3994C5.96106 14.0372 5.61487 13.6374 5.33203 13.21C5.32972 13.2065 5.32701 13.2032 5.32471 13.1997C5.06281 12.7882 4.8574 12.3581 4.7168 11.9092C4.71587 11.9062 4.71479 11.9033 4.71387 11.9004C4.65038 11.6964 4.60448 11.4881 4.56885 11.2764C4.56378 11.245 4.55719 11.2141 4.55273 11.1826C4.51983 10.9593 4.5 10.7318 4.5 10.5C4.5 7.2 7.875 4.5 12 4.5ZM7.5 9V11.25H9V9H7.5ZM9.75 9V11.25H15.75V9H9.75ZM8.25 12.1494V13.1997C10.125 14.9997 12.975 15.4506 15 14.4756V13.5C12.825 14.325 10.2 13.8744 8.25 12.1494Z" fill="black"/>
</svg>
