<svg width="24" height="24" viewBox="0 0 24 24" fill="none" xmlns="http://www.w3.org/2000/svg">
<path d="M12 2.25C6.6 2.25 2.25 6.6 2.25 12C2.25 17.4 6.6 21.75 12 21.75C17.4 21.75 21.75 17.4 21.75 12C21.75 6.6 17.4 2.25 12 2.25ZM12 3.75C16.575 3.75 20.25 7.425 20.25 12C20.25 16.575 16.575 20.25 12 20.25C7.425 20.25 3.75 16.575 3.75 12C3.75 7.425 7.425 3.75 12 3.75ZM8.39941 7.5L7.05029 10.7256L10.2744 12.0747L11.625 8.85059L8.39941 7.5ZM12 9.44971L10.9497 12L13.4253 13.0503L13.437 13.0239L13.5 13.0503L14.625 10.5L12 9.44971ZM15 11.0244L14.1753 13.0503L16.1997 13.875L17.1006 11.8506L15 11.0244ZM10.7256 12.4497L10.5 12.8994L11.3247 13.2744L9.44971 17.25H9.97559L11.7744 13.5747L13.6494 17.25H14.1753L12.4497 13.8003L13.0503 14.0244L13.2744 13.5L10.7256 12.4497Z" fill="black"/>
</svg>
