<svg width="24" height="24" viewBox="0 0 24 24" fill="none" xmlns="http://www.w3.org/2000/svg">
<path d="M3.75 3.75V20.25H20.25V3.75H3.75ZM5.25 5.25H5.65137L9.44971 8.47559L12 6.22559L14.5503 8.47559L18.3486 5.25H18.75V18.75H5.25V5.25ZM8.02881 5.25H10.894L9.44971 6.52441L8.02881 5.25ZM13.106 5.25H15.9712L14.5503 6.52441L13.106 5.25ZM6.75 9.75V11.25H9V9.75H6.75ZM10.5 9.75V11.25H17.25V9.75H10.5ZM6.75 12.75V14.25H9V12.75H6.75ZM10.5 12.75V14.25H17.25V12.75H10.5ZM13.5 15.75V17.25H17.25V15.75H13.5Z" fill="black"/>
</svg>
