<svg width="24" height="24" viewBox="0 0 24 24" fill="none" xmlns="http://www.w3.org/2000/svg">
<path d="M15.75 3C12.8584 3 10.5 5.3584 10.5 8.25C10.5 8.78613 10.6611 9.27246 10.8105 9.76172L3.70898 16.8633C2.76562 17.8037 2.76562 19.3506 3.70898 20.2939C4.64941 21.2344 6.19629 21.2344 7.13672 20.2939L14.2383 13.1924C14.7246 13.3418 15.2139 13.5 15.75 13.5C18.6416 13.5 21 11.1416 21 8.25C21 7.47949 20.8301 6.75 20.5312 6.09375L20.0859 5.10352L19.3213 5.87109L16.9395 8.25H15.75V7.06055L18.8965 3.91406L17.9062 3.46875C17.25 3.16992 16.5205 3 15.75 3ZM15.75 4.5C15.8789 4.5 15.9873 4.56445 16.1133 4.57617L14.25 6.43945V9.75H17.5605L19.4209 7.88672C19.4355 8.0127 19.5 8.12109 19.5 8.25C19.5 10.3301 17.8301 12 15.75 12C15.2256 12 14.7275 11.8916 14.2734 11.6982L13.8076 11.499L6.07617 19.2305C5.71582 19.5938 5.12988 19.5938 4.76953 19.2305C4.40625 18.8701 4.40625 18.2842 4.76953 17.9209L12.501 10.1924L12.3018 9.72363C12.1084 9.26953 12 8.77441 12 8.25C12 6.16992 13.6699 4.5 15.75 4.5Z" fill="black"/>
</svg>
