<svg width="24" height="24" viewBox="0 0 24 24" fill="none" xmlns="http://www.w3.org/2000/svg">
<path d="M3.75 3.75V20.25H20.25V3.75H3.75ZM5.25 5.25H18.75V18.75H5.25V5.25ZM14.729 6.75C14.564 6.75 14.4284 6.84814 14.3159 7.03564C12.1349 10.8876 11.0027 12.8801 10.9277 13.0151L13.0942 16.9644C13.2 17.1519 13.3346 17.25 13.5146 17.25H15.0439C15.2464 17.25 15.3363 17.0854 15.2388 16.9204L13.0957 13.0151V13.0078L16.4678 7.07959C16.5578 6.90709 16.4529 6.75 16.2729 6.75H14.729ZM8.30566 9C8.11966 9 8.01555 9.14816 8.1123 9.32666L9.13916 11.0889L7.53223 13.916C7.44298 14.0795 7.54709 14.25 7.72559 14.25H9.24316C9.39916 14.25 9.53936 14.1536 9.65186 13.9526C10.7004 12.1159 11.2438 11.1558 11.2881 11.0815L10.2466 9.28271C10.1348 9.09671 9.99424 9 9.82324 9H8.30566Z" fill="black"/>
</svg>
