<svg width="24" height="24" viewBox="0 0 24 24" fill="none" xmlns="http://www.w3.org/2000/svg">
<path d="M16.0547 3.75C15.7354 3.75 15.3955 3.87598 15.1875 4.05469C14.9795 4.2334 14.8828 4.4209 14.8125 4.54688C14.8125 4.54688 13.0049 7.75781 11.5781 10.2891C11.5605 10.207 11.5283 10.1279 11.4844 10.0547C11.4756 10.04 10.0078 7.5 10.0078 7.5C9.93457 7.36816 9.82031 7.17773 9.60938 7.00781C9.39844 6.83789 9.09375 6.70312 8.76562 6.70312H6.58594C6.27832 6.70312 5.90039 6.83203 5.67188 7.19531C5.66309 7.19531 5.65723 7.19531 5.64844 7.19531C5.42871 7.55859 5.50488 7.99512 5.64844 8.27344C5.65723 8.28223 5.66309 8.28809 5.67188 8.29688L6.91406 10.4766L4.82813 14.1562C4.81934 14.165 4.81348 14.1709 4.80469 14.1797C4.64355 14.4932 4.62012 14.9238 4.82813 15.2578C5.0127 15.5537 5.40527 15.75 5.76563 15.75H7.92188C8.25293 15.75 8.58398 15.6211 8.78906 15.4453C8.99414 15.2695 9.09375 15.082 9.16406 14.9531C9.16406 14.9531 9.59473 14.1826 9.91406 13.6172C9.93164 13.6758 9.95508 13.7285 9.98438 13.7812C9.99316 13.7959 13.0781 19.4531 13.0781 19.4531C13.1543 19.5879 13.2686 19.7725 13.4766 19.9453C13.6846 20.1182 14.0127 20.25 14.3438 20.25H16.5C16.8193 20.25 17.209 20.0859 17.4141 19.7578C17.6338 19.4092 17.6104 18.9756 17.4609 18.6797C17.4521 18.6709 17.4463 18.665 17.4375 18.6562L14.5781 13.4531L19.1719 5.34375C19.1807 5.3291 19.1895 5.31152 19.1953 5.29688C19.3447 4.99805 19.3916 4.59375 19.1719 4.24219C18.9609 3.89941 18.5508 3.75 18.2344 3.75H16.0547ZM16.1484 5.25H17.4844L13.0781 13.0781C12.9932 13.2305 13.0049 13.5908 13.1016 13.8047H13.0781L13.1016 13.8516V13.875L15.7734 18.75H14.4141C14.4053 18.7383 14.4023 18.75 14.3906 18.7266C14.3906 18.7266 11.8711 14.0801 11.5312 13.4531C12.0439 12.5449 16.125 5.27344 16.125 5.27344C16.1426 5.24121 16.1396 5.26465 16.1484 5.25ZM7.33594 8.20312H8.67188C8.67773 8.20898 8.6748 8.19141 8.69531 8.22656C8.7041 8.23535 8.70996 8.24121 8.71875 8.25C8.71875 8.25 9.65039 9.87012 9.98438 10.4531C9.60059 11.1299 7.85156 14.2266 7.85156 14.2266C7.83691 14.2529 7.83691 14.2354 7.82812 14.25H6.49219L8.4375 10.8516C8.44629 10.8223 8.45508 10.79 8.46094 10.7578C8.47852 10.7197 8.53125 10.6289 8.53125 10.4766C8.53125 10.3242 8.47852 10.21 8.46094 10.1719C8.44629 10.1396 8.43164 10.1074 8.41406 10.0781L7.33594 8.20312Z" fill="black"/>
</svg>
