<svg width="24" height="24" viewBox="0 0 24 24" fill="none" xmlns="http://www.w3.org/2000/svg">
<path d="M14.7473 3H12.1275C9.55351 3 7.50001 5.04 7.50001 9C7.50001 11.376 8.42776 13.128 10.3118 13.992L6.79576 20.616C6.68101 20.8328 6.79576 21 6.97951 21H8.61076C8.74876 21 8.84101 20.952 8.88676 20.8328L12.1875 14.25H13.125L13.119 20.8328C13.119 20.9048 13.188 21 13.2795 21H14.8163C14.9543 21 15 20.928 15 20.8088V3.24C15 3.072 14.9078 3 14.7473 3ZM13.125 12.75H12C10.875 12.75 9.37501 11.88 9.37501 9C9.37501 5.99925 10.5983 4.5 12 4.5H13.125V12.75Z" fill="black"/>
</svg>
