<svg width="24" height="24" viewBox="0 0 24 24" fill="none" xmlns="http://www.w3.org/2000/svg">
<path d="M12 3C7.03711 3 3 7.03711 3 12C3 16.9629 7.03711 21 12 21C12.0645 21 12.123 21 12.1875 21C12.252 21.0029 12.3105 21 12.375 21V20.9766C17.1621 20.7773 21 16.834 21 12C21 7.59375 17.8066 3.93164 13.6172 3.16406C13.2217 3.05859 12.8027 3 12.375 3V3.02344C12.249 3.01758 12.126 3 12 3ZM12 4.5C12.2607 4.5 12.5215 4.52051 12.7734 4.54687C12.8672 4.55859 12.9639 4.55273 13.0547 4.57031C13.0781 4.57324 13.1016 4.59082 13.125 4.59375C14.6309 4.93359 15.75 6.26074 15.75 7.875C15.75 9.74707 14.2471 11.25 12.375 11.25C9.69141 11.25 7.5 13.4414 7.5 16.125C7.5 16.9277 7.69336 17.6836 8.03906 18.3516C5.91504 17.0303 4.5 14.6924 4.5 12C4.5 7.84863 7.84863 4.5 12 4.5ZM17.0391 6.46875C18.5449 7.83984 19.5 9.79687 19.5 12C19.5 16.0723 16.2744 19.3535 12.2344 19.4766C10.4297 19.4004 9 17.9502 9 16.125C9 14.2529 10.5029 12.75 12.375 12.75C15.0586 12.75 17.25 10.5586 17.25 7.875C17.25 7.38867 17.1738 6.91406 17.0391 6.46875ZM12.375 6.75C11.7539 6.75 11.25 7.25391 11.25 7.875C11.25 8.49609 11.7539 9 12.375 9C12.9961 9 13.5 8.49609 13.5 7.875C13.5 7.25391 12.9961 6.75 12.375 6.75ZM12.375 15C11.7539 15 11.25 15.5039 11.25 16.125C11.25 16.7461 11.7539 17.25 12.375 17.25C12.9961 17.25 13.5 16.7461 13.5 16.125C13.5 15.5039 12.9961 15 12.375 15Z" fill="black"/>
</svg>
