<svg width="24" height="24" viewBox="0 0 24 24" fill="none" xmlns="http://www.w3.org/2000/svg">
<path d="M3.75 3.75V20.25H20.25V3.75H3.75ZM5.25 5.25H18.75V18.75H5.25V5.25ZM12 8.31006C12 8.31006 8.70697 8.30936 7.89697 8.52686C7.44697 8.65436 7.0868 9.00686 6.9668 9.46436C6.7493 10.2819 6.75 12.0073 6.75 12.0073C6.75 12.0073 6.7493 13.7326 6.9668 14.5576C7.0868 15.0076 7.44697 15.3531 7.89697 15.4731C8.70697 15.6906 12 15.6899 12 15.6899C12 15.6899 15.293 15.6906 16.103 15.4731C16.553 15.3456 16.9132 15.0078 17.0332 14.5503C17.2507 13.7328 17.25 12.0073 17.25 12.0073C17.25 12.0073 17.2507 10.2894 17.0332 9.46436C16.9132 9.00686 16.553 8.65436 16.103 8.52686C15.293 8.30936 12 8.31006 12 8.31006ZM10.5 9.86719L14.25 12.0088L10.5 14.1401V9.86719Z" fill="black"/>
</svg>
