<svg width="24" height="24" viewBox="0 0 24 24" fill="none" xmlns="http://www.w3.org/2000/svg">
<g clip-path="url(#clip0_201_68966)">
<path d="M7.12 12.55C6.25055 12.7578 5.47576 13.2509 4.91931 13.9505C4.36285 14.6502 4.0568 15.5161 4.05 16.41V19.52C4.04864 19.5834 4.06012 19.6464 4.08376 19.7053C4.1074 19.7641 4.14271 19.8176 4.18756 19.8624C4.2324 19.9073 4.28586 19.9426 4.34472 19.9662C4.40357 19.9899 4.4666 20.0014 4.53 20L7.77 19.94C8.49386 19.9412 9.20282 19.7345 9.81263 19.3445C10.4224 18.9545 10.9074 18.3976 11.21 17.74C11.5205 17.1203 11.648 16.4249 11.5778 15.7353C11.5076 15.0457 11.2424 14.3904 10.8134 13.846C10.3844 13.3016 9.80917 12.8905 9.15511 12.661C8.50105 12.4315 7.79516 12.393 7.12 12.55Z" fill="black"/>
<path d="M19.26 4.46C18.8404 4.12911 18.3122 3.96717 17.7792 4.00604C17.2463 4.0449 16.7471 4.28174 16.38 4.67L9.99999 11.08C9.91327 11.1679 9.86465 11.2865 9.86465 11.41C9.86465 11.5335 9.91327 11.6521 9.99999 11.74L12.25 14C12.3379 14.0867 12.4565 14.1353 12.58 14.1353C12.7035 14.1353 12.822 14.0867 12.91 14L19.4 7.53C19.5923 7.33685 19.7443 7.10746 19.8473 6.85513C19.9503 6.6028 20.0022 6.33254 20 6.06C20.0071 5.7545 19.9441 5.45143 19.8158 5.17407C19.6875 4.89672 19.4974 4.65244 19.26 4.46Z" fill="black"/>
</g>
<defs>
<clipPath id="clip0_201_68966">
<rect width="24" height="24" fill="white"/>
</clipPath>
</defs>
</svg>
