<svg width="24" height="24" viewBox="0 0 24 24" fill="none" xmlns="http://www.w3.org/2000/svg">
<g clip-path="url(#clip0_201_69095)">
<path d="M21.9 12C21.9 11.89 21.84 11.78 21.81 11.67C21.7637 11.4759 21.7036 11.2855 21.63 11.1C21.58 10.98 21.51 10.86 21.45 10.73C21.39 10.6 21.3 10.43 21.21 10.29C21.12 10.15 21 10.08 21 10C21 9.92001 20.8 9.75001 20.69 9.63001C20.58 9.51001 20.48 9.43001 20.37 9.33001L20 9.00001L19.64 8.76001C19.4987 8.67353 19.3517 8.59668 19.2 8.53001L18.81 8.35001C18.6467 8.28952 18.4797 8.23942 18.31 8.20001C18.1756 8.16047 18.0386 8.1304 17.9 8.11001L17.67 8.00001C17.262 6.82106 16.4966 5.79863 15.4803 5.07497C14.4641 4.35132 13.2476 3.96243 12 3.96243C10.7524 3.96243 9.5359 4.35132 8.51966 5.07497C7.50343 5.79863 6.73804 6.82106 6.33 8.00001L6.15 8.05001C6.0114 8.0704 5.8744 8.10048 5.74 8.14001C5.57034 8.17942 5.40334 8.22952 5.24 8.29001L4.85 8.47001C4.69832 8.53669 4.55132 8.61353 4.41 8.70001L4.05 9.00001L3.68 9.31001C3.57 9.41001 3.46 9.50001 3.36 9.61001C3.26 9.72001 3.15 9.86001 3.05 9.98001C2.95 10.1 2.87 10.21 2.79 10.34C2.71 10.47 2.63 10.63 2.55 10.78C2.47 10.93 2.42 11.03 2.37 11.15C2.29644 11.3355 2.23629 11.5259 2.19 11.72C2.19 11.83 2.12 11.94 2.1 12.05C2.03776 12.363 2.00428 12.681 2 13C2.00469 13.3053 2.03479 13.6097 2.09 13.91C2.09 14.01 2.14 14.1 2.16 14.2C2.20943 14.3965 2.26952 14.5901 2.34 14.78L2.46 15.07C2.54803 15.2628 2.64823 15.4499 2.76 15.63L2.9 15.85C2.91439 15.878 2.93111 15.9048 2.95 15.93L3 16C3.46574 16.621 4.06965 17.125 4.76393 17.4721C5.45821 17.8193 6.22377 18 7 18H10V16.63C9.69616 16.8063 9.35126 16.8994 9 16.9C8.45825 16.8949 7.94054 16.6756 7.56 16.29C7.37729 16.101 7.23364 15.8778 7.13726 15.6332C7.04087 15.3887 6.99365 15.1275 6.9983 14.8646C7.00294 14.6018 7.05936 14.3425 7.16432 14.1014C7.26928 13.8604 7.42073 13.6424 7.61 13.46L10.61 10.56C10.9832 10.2003 11.4816 9.99948 12 10C12.5296 10.0022 13.0366 10.2144 13.41 10.59L16.41 13.59C16.7825 13.9647 16.9916 14.4716 16.9916 15C16.9916 15.5284 16.7825 16.0353 16.41 16.41C16.0366 16.7856 15.5296 16.9978 15 17C14.6482 17.0033 14.3023 16.9099 14 16.73V18H17C17.7762 18 18.5418 17.8193 19.2361 17.4721C19.9303 17.125 20.5343 16.621 21 16L21.05 15.95C21.0689 15.9248 21.0856 15.898 21.1 15.87L21.24 15.65C21.3518 15.4699 21.452 15.2828 21.54 15.09L21.66 14.8C21.7305 14.6101 21.7906 14.4165 21.84 14.22C21.84 14.12 21.89 14.03 21.91 13.93C21.9663 13.6231 21.9964 13.312 22 13C21.9988 12.6642 21.9654 12.3294 21.9 12Z" fill="black"/>
<path d="M12.71 11.29C12.5231 11.1068 12.2717 11.0042 12.01 11.0042C11.7482 11.0042 11.4969 11.1068 11.31 11.29L8.30999 14.19C8.20388 14.2776 8.11697 14.3861 8.05471 14.5088C7.99245 14.6314 7.95617 14.7656 7.94815 14.903C7.94012 15.0403 7.96051 15.1778 8.00806 15.3069C8.0556 15.436 8.12927 15.5539 8.22445 15.6532C8.31964 15.7526 8.4343 15.8312 8.56125 15.8842C8.68821 15.9371 8.82473 15.9634 8.96228 15.9612C9.09984 15.959 9.23546 15.9285 9.36067 15.8715C9.48589 15.8145 9.59799 15.7323 9.68999 15.63L11 14.36V20C11 20.2652 11.1053 20.5196 11.2929 20.7071C11.4804 20.8947 11.7348 21 12 21C12.2652 21 12.5196 20.8947 12.7071 20.7071C12.8946 20.5196 13 20.2652 13 20V14.41L14.29 15.71C14.3829 15.8037 14.4935 15.8781 14.6154 15.9289C14.7373 15.9797 14.868 16.0058 15 16.0058C15.132 16.0058 15.2627 15.9797 15.3846 15.9289C15.5064 15.8781 15.617 15.8037 15.71 15.71C15.8037 15.617 15.8781 15.5064 15.9289 15.3846C15.9796 15.2627 16.0058 15.132 16.0058 15C16.0058 14.868 15.9796 14.7373 15.9289 14.6154C15.8781 14.4936 15.8037 14.383 15.71 14.29L12.71 11.29Z" fill="black"/>
</g>
<defs>
<clipPath id="clip0_201_69095">
<rect width="24" height="24" fill="white"/>
</clipPath>
</defs>
</svg>
