<svg width="24" height="24" viewBox="0 0 24 24" fill="none" xmlns="http://www.w3.org/2000/svg">
<g clip-path="url(#clip0_201_69120)">
<path d="M19.54 5.07999C18.5373 4.08442 17.3459 3.29914 16.0357 2.77023C14.7255 2.24133 13.3228 1.97946 11.91 1.99999C9.25781 1.99336 6.71164 3.04057 4.83159 4.91125C2.95154 6.78192 1.89161 9.32283 1.88498 11.975C1.87835 14.6272 2.92556 17.1733 4.79623 19.0534C6.66691 20.9334 9.20781 21.9934 11.86 22C12.4315 22.0097 12.99 21.8294 13.4479 21.4873C13.9058 21.1452 14.2372 20.6608 14.39 20.11C14.4874 19.7122 14.4864 19.2967 14.387 18.8995C14.2877 18.5022 14.0931 18.1351 13.82 17.83C13.7568 17.7581 13.7156 17.6696 13.7013 17.5751C13.6869 17.4805 13.7 17.3838 13.7389 17.2964C13.7779 17.209 13.8411 17.1346 13.921 17.0821C14.001 17.0296 14.0943 17.0011 14.19 17H15.84C17.3929 17.0073 18.8911 16.4267 20.0337 15.375C21.1764 14.3233 21.8788 12.8782 22 11.33C22.0372 10.1756 21.8382 9.02578 21.4152 7.95105C20.9921 6.87632 20.354 5.89932 19.54 5.07999ZM6.83998 14.74C6.59445 14.9069 6.30493 14.9971 6.00807 14.9993C5.71122 15.0016 5.42038 14.9157 5.17237 14.7525C4.92437 14.5893 4.73036 14.3562 4.61491 14.0827C4.49946 13.8092 4.46776 13.5076 4.52382 13.2161C4.57988 12.9246 4.72119 12.6563 4.92984 12.4451C5.1385 12.2339 5.40512 12.0894 5.69595 12.0299C5.98679 11.9703 6.28875 11.9984 6.5636 12.1106C6.83846 12.2228 7.07385 12.414 7.23998 12.66C7.3513 12.8225 7.42929 13.0055 7.46945 13.1983C7.50961 13.3911 7.51113 13.59 7.47394 13.7834C7.43674 13.9769 7.36156 14.161 7.25274 14.3252C7.14392 14.4894 7.00363 14.6304 6.83998 14.74ZM8.29998 9.24999C8.1577 9.51351 7.93979 9.72841 7.67432 9.86701C7.40885 10.0056 7.10797 10.0616 6.81041 10.0277C6.51286 9.99384 6.23225 9.87167 6.00473 9.67694C5.77721 9.48221 5.61318 9.22383 5.53378 8.93507C5.45437 8.64632 5.46321 8.3404 5.55917 8.05671C5.65513 7.77302 5.83381 7.52455 6.0722 7.34329C6.31059 7.16203 6.59778 7.05628 6.8968 7.03965C7.19581 7.02302 7.49296 7.09628 7.74998 7.24999C8.08162 7.44833 8.32393 7.76701 8.42639 8.1396C8.52886 8.5122 8.48357 8.90996 8.29998 9.24999ZM11 6.99999C10.7033 6.99999 10.4133 6.91202 10.1666 6.7472C9.91995 6.58237 9.72769 6.34811 9.61416 6.07402C9.50063 5.79993 9.47092 5.49833 9.5288 5.20736C9.58668 4.91638 9.72954 4.64911 9.93932 4.43933C10.1491 4.22955 10.4164 4.08669 10.7073 4.02881C10.9983 3.97094 11.2999 4.00064 11.574 4.11417C11.8481 4.2277 12.0824 4.41996 12.2472 4.66664C12.412 4.91331 12.5 5.20332 12.5 5.49999C12.5 5.89782 12.3419 6.27935 12.0606 6.56065C11.7793 6.84196 11.3978 6.99999 11 6.99999ZM16.75 7.79999C16.493 7.9537 16.1958 8.02696 15.8968 8.01033C15.5978 7.9937 15.3106 7.88795 15.0722 7.70669C14.8338 7.52543 14.6551 7.27696 14.5592 6.99327C14.4632 6.70958 14.4544 6.40367 14.5338 6.11491C14.6132 5.82615 14.7772 5.56778 15.0047 5.37304C15.2323 5.17831 15.5129 5.05615 15.8104 5.02227C16.108 4.9884 16.4088 5.04436 16.6743 5.18297C16.9398 5.32158 17.1577 5.53647 17.3 5.79999C17.4836 6.14002 17.5289 6.53778 17.4264 6.91038C17.3239 7.28297 17.0816 7.60165 16.75 7.79999Z" fill="black"/>
</g>
<defs>
<clipPath id="clip0_201_69120">
<rect width="24" height="24" fill="white"/>
</clipPath>
</defs>
</svg>
