<svg width="24" height="24" viewBox="0 0 24 24" fill="none" xmlns="http://www.w3.org/2000/svg">
<g clip-path="url(#clip0_201_69328)">
<path d="M17.33 14.5L19.83 10.76C19.9317 10.6095 19.9905 10.4341 20.0001 10.2527C20.0097 10.0713 19.9697 9.89067 19.8843 9.73029C19.799 9.5699 19.6716 9.4358 19.5158 9.34237C19.36 9.24894 19.1817 9.19972 19 9.19999H13.11L13.88 2.10999C13.8934 1.8956 13.8375 1.68259 13.7204 1.50248C13.6033 1.32238 13.4314 1.18476 13.23 1.10999C13.0205 1.0339 12.7916 1.02996 12.5797 1.0988C12.3677 1.16765 12.1848 1.30533 12.06 1.48999L8.94 6.10999L17.33 14.5Z" fill="black"/>
<path d="M6.66998 9.5L4.16998 13.24C4.06825 13.3905 4.00944 13.5659 3.99986 13.7473C3.99029 13.9287 4.03032 14.1093 4.11565 14.2697C4.20098 14.4301 4.32839 14.5642 4.4842 14.6576C4.64 14.7511 4.81831 14.8003 4.99998 14.8H10.89L10.12 21.89C10.0951 22.1125 10.1457 22.3369 10.2635 22.5273C10.3814 22.7177 10.5597 22.863 10.77 22.94C10.879 22.9796 10.994 22.9999 11.11 23C11.2738 23.0002 11.4351 22.9603 11.5799 22.8835C11.7246 22.8068 11.8483 22.6957 11.94 22.56L15.06 17.89L6.66998 9.5Z" fill="black"/>
<path d="M20.71 19.29L4.71 3.29C4.61676 3.19676 4.50607 3.1228 4.38425 3.07234C4.26243 3.02188 4.13186 2.99591 4 2.99591C3.86814 2.99591 3.73758 3.02188 3.61575 3.07234C3.49393 3.1228 3.38324 3.19676 3.29 3.29C3.1017 3.47831 2.99591 3.7337 2.99591 4C2.99591 4.2663 3.1017 4.5217 3.29 4.71L19.29 20.71C19.383 20.8037 19.4936 20.8781 19.6154 20.9289C19.7373 20.9797 19.868 21.0058 20 21.0058C20.132 21.0058 20.2627 20.9797 20.3846 20.9289C20.5064 20.8781 20.617 20.8037 20.71 20.71C20.8037 20.617 20.8781 20.5064 20.9289 20.3846C20.9797 20.2627 21.0058 20.132 21.0058 20C21.0058 19.868 20.9797 19.7373 20.9289 19.6154C20.8781 19.4936 20.8037 19.383 20.71 19.29Z" fill="black"/>
</g>
<defs>
<clipPath id="clip0_201_69328">
<rect width="24" height="24" fill="white"/>
</clipPath>
</defs>
</svg>
