<svg width="24" height="24" viewBox="0 0 24 24" fill="none" xmlns="http://www.w3.org/2000/svg">
<g clip-path="url(#clip0_201_69413)">
<path d="M20.79 11.34L17.45 4.66C17.2006 4.16035 16.8166 3.74025 16.3414 3.44697C15.8661 3.1537 15.3184 2.9989 14.76 3H9.24C8.68155 2.9989 8.13388 3.1537 7.65864 3.44697C7.18339 3.74025 6.79944 4.16035 6.55 4.66L3.21 11.34C3.0707 11.6195 2.99878 11.9277 3 12.24V18C3 18.7956 3.31607 19.5587 3.87868 20.1213C4.44129 20.6839 5.20435 21 6 21H18C18.7956 21 19.5587 20.6839 20.1213 20.1213C20.6839 19.5587 21 18.7956 21 18V12.24C21.0012 11.9277 20.9293 11.6195 20.79 11.34ZM8 17C7.80222 17 7.60888 16.9413 7.44443 16.8315C7.27998 16.7216 7.15181 16.5654 7.07612 16.3827C7.00043 16.2 6.98063 15.9989 7.01921 15.8049C7.0578 15.6109 7.15304 15.4327 7.29289 15.2929C7.43275 15.153 7.61093 15.0578 7.80491 15.0192C7.99889 14.9806 8.19996 15.0004 8.38268 15.0761C8.56541 15.1518 8.72159 15.28 8.83147 15.4444C8.94135 15.6089 9 15.8022 9 16C9 16.2652 8.89464 16.5196 8.70711 16.7071C8.51957 16.8946 8.26522 17 8 17ZM16 17H12C11.7348 17 11.4804 16.8946 11.2929 16.7071C11.1054 16.5196 11 16.2652 11 16C11 15.7348 11.1054 15.4804 11.2929 15.2929C11.4804 15.1054 11.7348 15 12 15H16C16.2652 15 16.5196 15.1054 16.7071 15.2929C16.8946 15.4804 17 15.7348 17 16C17 16.2652 16.8946 16.5196 16.7071 16.7071C16.5196 16.8946 16.2652 17 16 17ZM5.62 11L8.34 5.55C8.42386 5.38356 8.55257 5.24387 8.71159 5.14669C8.87062 5.04951 9.05364 4.9987 9.24 5H14.76C14.9464 4.9987 15.1294 5.04951 15.2884 5.14669C15.4474 5.24387 15.5761 5.38356 15.66 5.55L18.38 11H5.62Z" fill="black"/>
</g>
<defs>
<clipPath id="clip0_201_69413">
<rect width="24" height="24" fill="white"/>
</clipPath>
</defs>
</svg>
