<svg width="24" height="24" viewBox="0 0 24 24" fill="none" xmlns="http://www.w3.org/2000/svg">
<g clip-path="url(#clip0_201_69554)">
<path d="M20.05 11H5.91L7.21 9.71C7.3983 9.5217 7.50409 9.2663 7.50409 9C7.50409 8.7337 7.3983 8.4783 7.21 8.29C7.0217 8.1017 6.7663 7.99591 6.5 7.99591C6.2337 7.99591 5.9783 8.1017 5.79 8.29L2.79 11.29C2.69627 11.383 2.62188 11.4936 2.57111 11.6154C2.52034 11.7373 2.4942 11.868 2.4942 12C2.4942 12.132 2.52034 12.2627 2.57111 12.3846C2.62188 12.5064 2.69627 12.617 2.79 12.71L5.79 15.71C5.88296 15.8037 5.99356 15.8781 6.11542 15.9289C6.23728 15.9797 6.36799 16.0058 6.5 16.0058C6.63201 16.0058 6.76272 15.9797 6.88458 15.9289C7.00644 15.8781 7.11704 15.8037 7.21 15.71C7.30373 15.617 7.37812 15.5064 7.42889 15.3846C7.47966 15.2627 7.5058 15.132 7.5058 15C7.5058 14.868 7.47966 14.7373 7.42889 14.6154C7.37812 14.4936 7.30373 14.383 7.21 14.29L5.91 13H20.05C20.298 12.9879 20.5327 12.8839 20.7083 12.7083C20.8839 12.5327 20.9879 12.298 21 12.05V12C21.0003 11.7432 20.9019 11.4962 20.725 11.31C20.5481 11.1238 20.3065 11.0128 20.05 11Z" fill="black"/>
<path d="M20.05 17H3.95C3.42533 17 3 17.4253 3 17.95V18.05C3 18.5747 3.42533 19 3.95 19H20.05C20.5747 19 21 18.5747 21 18.05V17.95C21 17.4253 20.5747 17 20.05 17Z" fill="black"/>
<path d="M20.05 5H3.95C3.42533 5 3 5.42533 3 5.95V6.05C3 6.57467 3.42533 7 3.95 7H20.05C20.5747 7 21 6.57467 21 6.05V5.95C21 5.42533 20.5747 5 20.05 5Z" fill="black"/>
</g>
<defs>
<clipPath id="clip0_201_69554">
<rect width="24" height="24" fill="white"/>
</clipPath>
</defs>
</svg>
