<svg width="24" height="24" viewBox="0 0 24 24" fill="none" xmlns="http://www.w3.org/2000/svg">
<g clip-path="url(#clip0_201_69653)">
<path d="M20 20C19.8034 20.0022 19.611 19.9428 19.45 19.83L12.55 15.27C12.3867 15.1625 12.1955 15.1052 12 15.1052C11.8045 15.1052 11.6133 15.1625 11.45 15.27L4.55 19.83C4.36639 19.9483 4.14907 20.0033 3.93127 19.9865C3.71348 19.9697 3.50718 19.882 3.34391 19.7369C3.18064 19.5917 3.06938 19.3971 3.02714 19.1828C2.9849 18.9685 3.01401 18.7462 3.11 18.55L11.11 2.55C11.1939 2.3862 11.3214 2.24873 11.4784 2.15274C11.6355 2.05675 11.816 2.00596 12 2.00596C12.1841 2.00596 12.3645 2.05675 12.5216 2.15274C12.6786 2.24873 12.8061 2.3862 12.89 2.55L20.89 18.55C20.9897 18.7473 21.0212 18.9721 20.9796 19.1892C20.938 19.4063 20.8256 19.6035 20.66 19.75C20.4777 19.9108 20.2431 19.9996 20 20Z" fill="black"/>
</g>
<defs>
<clipPath id="clip0_201_69653">
<rect width="24" height="24" fill="white"/>
</clipPath>
</defs>
</svg>
