<svg width="24" height="24" viewBox="0 0 24 24" fill="none" xmlns="http://www.w3.org/2000/svg">
<g clip-path="url(#clip0_201_69670)">
<path d="M7.00001 14.18V3C7.00001 2.73478 6.89465 2.48043 6.70711 2.29289C6.51958 2.10536 6.26522 2 6.00001 2C5.73479 2 5.48044 2.10536 5.2929 2.29289C5.10536 2.48043 5.00001 2.73478 5.00001 3V14.18C4.42085 14.3902 3.92047 14.7736 3.56685 15.2782C3.21323 15.7827 3.02353 16.3839 3.02353 17C3.02353 17.6161 3.21323 18.2173 3.56685 18.7218C3.92047 19.2264 4.42085 19.6098 5.00001 19.82V21C5.00001 21.2652 5.10536 21.5196 5.2929 21.7071C5.48044 21.8946 5.73479 22 6.00001 22C6.26522 22 6.51958 21.8946 6.70711 21.7071C6.89465 21.5196 7.00001 21.2652 7.00001 21V19.82C7.57916 19.6098 8.07955 19.2264 8.43316 18.7218C8.78678 18.2173 8.97648 17.6161 8.97648 17C8.97648 16.3839 8.78678 15.7827 8.43316 15.2782C8.07955 14.7736 7.57916 14.3902 7.00001 14.18Z" fill="black"/>
<path d="M21 13C20.9983 12.3811 20.8051 11.7778 20.4471 11.2729C20.089 10.7681 19.5836 10.3863 19 10.18V3C19 2.73478 18.8946 2.48043 18.7071 2.29289C18.5196 2.10536 18.2652 2 18 2C17.7348 2 17.4804 2.10536 17.2929 2.29289C17.1054 2.48043 17 2.73478 17 3V10.18C16.4209 10.3902 15.9205 10.7736 15.5668 11.2782C15.2132 11.7827 15.0235 12.3839 15.0235 13C15.0235 13.6161 15.2132 14.2173 15.5668 14.7218C15.9205 15.2264 16.4209 15.6098 17 15.82V21C17 21.2652 17.1054 21.5196 17.2929 21.7071C17.4804 21.8946 17.7348 22 18 22C18.2652 22 18.5196 21.8946 18.7071 21.7071C18.8946 21.5196 19 21.2652 19 21V15.82C19.5836 15.6137 20.089 15.2319 20.4471 14.7271C20.8051 14.2222 20.9983 13.6189 21 13Z" fill="black"/>
<path d="M15 5C15.0015 4.44965 14.8517 3.90948 14.5668 3.4386C14.2819 2.96773 13.8729 2.5843 13.3847 2.33027C12.8965 2.07624 12.3478 1.96141 11.7987 1.99834C11.2496 2.03527 10.7212 2.22254 10.2714 2.53966C9.82159 2.85677 9.46768 3.29151 9.2484 3.79629C9.02913 4.30108 8.95293 4.85645 9.02816 5.40164C9.10338 5.94683 9.32713 6.46082 9.67492 6.88736C10.0227 7.3139 10.4811 7.63655 11 7.82V21C11 21.2652 11.1053 21.5196 11.2929 21.7071C11.4804 21.8946 11.7348 22 12 22C12.2652 22 12.5196 21.8946 12.7071 21.7071C12.8946 21.5196 13 21.2652 13 21V7.82C13.5835 7.61369 14.089 7.23193 14.4471 6.72707C14.8051 6.2222 14.9983 5.61895 15 5Z" fill="black"/>
</g>
<defs>
<clipPath id="clip0_201_69670">
<rect width="24" height="24" fill="white"/>
</clipPath>
</defs>
</svg>
