<svg width="24" height="24" viewBox="0 0 24 24" fill="none" xmlns="http://www.w3.org/2000/svg">
<g clip-path="url(#clip0_201_69812)">
<path d="M21.47 11.58L15.05 5.17001C14.8864 5.00552 14.6708 4.903 14.44 4.88001L5.08999 4.00001C4.94352 3.98654 4.79589 4.00554 4.65761 4.05567C4.51933 4.10579 4.3938 4.18581 4.28999 4.29001C4.18579 4.39382 4.10578 4.51934 4.05565 4.65762C4.00553 4.7959 3.98652 4.94354 3.99999 5.09001L4.87999 14.44C4.90299 14.6708 5.0055 14.8865 5.16999 15.05L11.58 21.47C11.9238 21.8091 12.3871 21.9995 12.87 22C13.3498 21.999 13.8099 21.8085 14.15 21.47L21.47 14.15C21.8101 13.8088 22.0011 13.3468 22.0011 12.865C22.0011 12.3833 21.8101 11.9212 21.47 11.58ZM11.56 11.58C11.3503 11.79 11.083 11.933 10.792 11.991C10.501 12.0491 10.1993 12.0195 9.92508 11.906C9.65088 11.7925 9.4165 11.6003 9.2516 11.3536C9.08669 11.1068 8.99867 10.8168 8.99867 10.52C8.99867 10.2233 9.08669 9.93317 9.2516 9.68646C9.4165 9.43974 9.65088 9.24749 9.92508 9.13401C10.1993 9.02053 10.501 8.99094 10.792 9.04897C11.083 9.10699 11.3503 9.25004 11.56 9.46001C11.8372 9.73914 11.9928 10.1166 11.9928 10.51C11.9928 10.9034 11.8372 11.2809 11.56 11.56V11.58Z" fill="black"/>
</g>
<defs>
<clipPath id="clip0_201_69812">
<rect width="24" height="24" fill="white"/>
</clipPath>
</defs>
</svg>
