<svg width="24" height="24" viewBox="0 0 24 24" fill="none" xmlns="http://www.w3.org/2000/svg">
<g clip-path="url(#clip0_201_69817)">
<path d="M19.36 7H18V5C18.0217 4.49233 17.8413 3.99675 17.4983 3.62186C17.1552 3.24698 16.6776 3.02335 16.17 3H7.82999C7.32239 3.02335 6.84475 3.24698 6.50172 3.62186C6.1587 3.99675 5.97828 4.49233 5.99999 5V7H4.63999C3.93625 7.00529 3.26328 7.28924 2.76847 7.78968C2.27366 8.29011 1.99732 8.96625 1.99999 9.67V16.33C1.99732 17.0338 2.27366 17.7099 2.76847 18.2103C3.26328 18.7108 3.93625 18.9947 4.63999 19H5.49999C5.49999 19.5304 5.7107 20.0391 6.08577 20.4142C6.46085 20.7893 6.96956 21 7.49999 21H16.5C17.0304 21 17.5391 20.7893 17.9142 20.4142C18.2893 20.0391 18.5 19.5304 18.5 19H19.36C20.0637 18.9947 20.7367 18.7108 21.2315 18.2103C21.7263 17.7099 22.0027 17.0338 22 16.33V9.67C22.0027 8.96625 21.7263 8.29011 21.2315 7.78968C20.7367 7.28924 20.0637 7.00529 19.36 7ZM7.99999 5H16V7H7.99999V5ZM7.49999 19V15H16.5V19H7.49999Z" fill="black"/>
</g>
<defs>
<clipPath id="clip0_201_69817">
<rect width="24" height="24" fill="white"/>
</clipPath>
</defs>
</svg>
