<svg width="24" height="24" viewBox="0 0 24 24" fill="none" xmlns="http://www.w3.org/2000/svg">
<g clip-path="url(#clip0_201_69869)">
<path d="M18.45 6.20001C18.0942 6.03198 17.6985 5.96726 17.3077 6.01323C16.917 6.05919 16.547 6.214 16.24 6.46001L11.5 10.38V7.79001C11.4961 7.45215 11.395 7.12257 11.2088 6.84063C11.0226 6.55868 10.7592 6.33629 10.45 6.20001C10.0942 6.03198 9.69846 5.96726 9.30772 6.01323C8.91699 6.05919 8.54702 6.214 8.23999 6.46001L3.13999 10.67C2.94 10.8292 2.77848 11.0315 2.66747 11.2618C2.55646 11.492 2.49881 11.7444 2.49881 12C2.49881 12.2556 2.55646 12.508 2.66747 12.7383C2.77848 12.9685 2.94 13.1708 3.13999 13.33L8.23999 17.54C8.60761 17.8381 9.06668 18.0006 9.53999 18C9.85402 17.9982 10.1641 17.93 10.45 17.8C10.7592 17.6637 11.0226 17.4413 11.2088 17.1594C11.395 16.8774 11.4961 16.5479 11.5 16.21V13.62L16.24 17.54C16.6076 17.8381 17.0667 18.0006 17.54 18C17.854 17.9982 18.1641 17.93 18.45 17.8C18.7592 17.6637 19.0226 17.4413 19.2088 17.1594C19.395 16.8774 19.4961 16.5479 19.5 16.21V7.79001C19.4961 7.45215 19.395 7.12257 19.2088 6.84063C19.0226 6.55868 18.7592 6.33629 18.45 6.20001Z" fill="black"/>
</g>
<defs>
<clipPath id="clip0_201_69869">
<rect width="24" height="24" fill="white"/>
</clipPath>
</defs>
</svg>
