<svg width="24" height="24" viewBox="0 0 24 24" fill="none" xmlns="http://www.w3.org/2000/svg">
<g clip-path="url(#clip0_201_69874)">
<path d="M20.86 10.67L15.76 6.46001C15.453 6.214 15.083 6.05919 14.6923 6.01323C14.3015 5.96726 13.9057 6.03198 13.55 6.20001C13.2408 6.33629 12.9774 6.55868 12.7912 6.84063C12.605 7.12257 12.5039 7.45215 12.5 7.79001V10.38L7.75999 6.46001C7.45296 6.214 7.08299 6.05919 6.69226 6.01323C6.30152 5.96726 5.90573 6.03198 5.54999 6.20001C5.25017 6.34355 4.99712 6.56907 4.82015 6.85045C4.64317 7.13184 4.54951 7.4576 4.54999 7.79001V16.21C4.54951 16.5424 4.64317 16.8682 4.82015 17.1496C4.99712 17.4309 5.25017 17.6565 5.54999 17.8C5.83586 17.93 6.14596 17.9982 6.45999 18C6.9333 18.0006 7.39237 17.8381 7.75999 17.54L12.5 13.62V16.21C12.5039 16.5479 12.605 16.8774 12.7912 17.1594C12.9774 17.4413 13.2408 17.6637 13.55 17.8C13.8359 17.93 14.146 17.9982 14.46 18C14.9333 18.0006 15.3924 17.8381 15.76 17.54L20.86 13.33C21.06 13.1708 21.2215 12.9685 21.3325 12.7383C21.4435 12.508 21.5012 12.2556 21.5012 12C21.5012 11.7444 21.4435 11.492 21.3325 11.2618C21.2215 11.0315 21.06 10.8292 20.86 10.67Z" fill="black"/>
</g>
<defs>
<clipPath id="clip0_201_69874">
<rect width="24" height="24" fill="white"/>
</clipPath>
</defs>
</svg>
