<svg width="24" height="24" viewBox="0 0 24 24" fill="none" xmlns="http://www.w3.org/2000/svg">
<g clip-path="url(#clip0_201_69924)">
<path d="M3.73 6.56C3.5037 6.746 3.32102 6.97945 3.19488 7.24383C3.06873 7.50821 3.00221 7.79707 3 8.09V8.23C3.00259 10.9168 3.7187 13.5546 5.07511 15.8739C6.43152 18.1931 8.37955 20.1105 10.72 21.43L11.02 21.6C11.324 21.7755 11.6689 21.8679 12.02 21.8679C12.3711 21.8679 12.716 21.7755 13.02 21.6L13.32 21.43C14.41 20.8003 15.4177 20.0378 16.32 19.16L3.73 6.56Z" fill="black"/>
<path d="M18.84 16C20.252 13.6541 20.9987 10.9681 21 8.23V8.09C21.0032 7.73589 20.9123 7.38728 20.7366 7.07982C20.5609 6.77235 20.3067 6.51705 20 6.34L13 2.4C12.696 2.22446 12.3511 2.13205 12 2.13205C11.6489 2.13205 11.304 2.22446 11 2.4L7.32 4.49L18.84 16Z" fill="black"/>
<path d="M4.71 3.29C4.61676 3.19676 4.50607 3.1228 4.38425 3.07234C4.26243 3.02188 4.13186 2.99591 4 2.99591C3.86814 2.99591 3.73758 3.02188 3.61575 3.07234C3.49393 3.1228 3.38324 3.19676 3.29 3.29C3.1017 3.47831 2.99591 3.7337 2.99591 4C2.99591 4.2663 3.1017 4.5217 3.29 4.71L19.29 20.71C19.383 20.8037 19.4936 20.8781 19.6154 20.9289C19.7373 20.9797 19.868 21.0058 20 21.0058C20.132 21.0058 20.2627 20.9797 20.3846 20.9289C20.5064 20.8781 20.617 20.8037 20.71 20.71C20.8037 20.617 20.8781 20.5064 20.9289 20.3846C20.9797 20.2627 21.0058 20.132 21.0058 20C21.0058 19.868 20.9797 19.7373 20.9289 19.6154C20.8781 19.4936 20.8037 19.383 20.71 19.29L4.71 3.29Z" fill="black"/>
</g>
<defs>
<clipPath id="clip0_201_69924">
<rect width="24" height="24" fill="white"/>
</clipPath>
</defs>
</svg>
