<svg width="24" height="24" viewBox="0 0 24 24" fill="none" xmlns="http://www.w3.org/2000/svg">
<g clip-path="url(#clip0_201_70021)">
<path d="M4 9.00001H17L15.4 10.2C15.2949 10.2788 15.2064 10.3775 15.1395 10.4905C15.0726 10.6035 15.0286 10.7286 15.0101 10.8586C14.9915 10.9886 14.9987 11.121 15.0313 11.2482C15.0639 11.3754 15.1212 11.4949 15.2 11.6C15.2931 11.7242 15.4139 11.825 15.5528 11.8944C15.6916 11.9639 15.8448 12 16 12C16.2164 12 16.4269 11.9298 16.6 11.8L20.6 8.80001C20.7223 8.70668 20.8214 8.5864 20.8897 8.44851C20.9579 8.31062 20.9934 8.15885 20.9934 8.00501C20.9934 7.85116 20.9579 7.69939 20.8897 7.5615C20.8214 7.42362 20.7223 7.30333 20.6 7.21001L16.74 4.21001C16.5305 4.0469 16.2647 3.9737 16.0013 4.00652C15.7378 4.03934 15.4981 4.17549 15.335 4.38501C15.1719 4.59453 15.0987 4.86026 15.1315 5.12375C15.1643 5.38724 15.3005 5.6269 15.51 5.79001L17.08 7.00001H4C3.73478 7.00001 3.48043 7.10536 3.29289 7.2929C3.10536 7.48044 3 7.73479 3 8.00001C3 8.26522 3.10536 8.51958 3.29289 8.70711C3.48043 8.89465 3.73478 9.00001 4 9.00001Z" fill="black"/>
<path d="M20 16H7.00001L8.60001 14.8C8.81219 14.6409 8.95246 14.404 8.98996 14.1414C9.02747 13.8789 8.95914 13.6122 8.80001 13.4C8.64088 13.1878 8.40399 13.0476 8.14143 13.0101C7.87888 12.9725 7.61219 13.0409 7.40001 13.2L3.40001 16.2C3.27771 16.2933 3.17858 16.4136 3.11035 16.5515C3.04212 16.6894 3.00662 16.8412 3.00662 16.995C3.00662 17.1488 3.04212 17.3006 3.11035 17.4385C3.17858 17.5764 3.27771 17.6967 3.40001 17.79L7.26001 20.79C7.43456 20.9255 7.64906 20.9993 7.87001 21C8.02273 20.9996 8.17334 20.9643 8.31028 20.8967C8.44722 20.8291 8.56685 20.731 8.66001 20.61C8.8224 20.4015 8.89568 20.1373 8.86383 19.8749C8.83197 19.6126 8.69758 19.3735 8.49001 19.21L6.92001 18H20C20.2652 18 20.5196 17.8946 20.7071 17.7071C20.8947 17.5196 21 17.2652 21 17C21 16.7348 20.8947 16.4804 20.7071 16.2929C20.5196 16.1054 20.2652 16 20 16Z" fill="black"/>
</g>
<defs>
<clipPath id="clip0_201_70021">
<rect width="24" height="24" fill="white"/>
</clipPath>
</defs>
</svg>
