<svg width="24" height="24" viewBox="0 0 24 24" fill="none" xmlns="http://www.w3.org/2000/svg">
<g clip-path="url(#clip0_201_70078)">
<path d="M21 12C21 11.7348 20.8946 11.4804 20.7071 11.2929C20.5196 11.1054 20.2652 11 20 11C19.7348 11 19.4804 11.1054 19.2929 11.2929C19.1054 11.4804 19 11.7348 19 12V14.3L14.76 9.3C14.6069 9.12107 14.3956 9.0019 14.1633 8.96348C13.931 8.92507 13.6925 8.96987 13.49 9.09L9.22 11.7L4.77 6.36C4.68595 6.25888 4.58281 6.17531 4.46647 6.11405C4.35012 6.05279 4.22285 6.01505 4.09192 6.00298C3.96099 5.99091 3.82897 6.00474 3.70338 6.04369C3.5778 6.08265 3.46112 6.14595 3.36 6.23C3.25888 6.31404 3.17531 6.41718 3.11405 6.53353C3.05279 6.64987 3.01505 6.77714 3.00298 6.90807C2.99091 7.03901 3.00474 7.17103 3.04369 7.29661C3.08265 7.4222 3.14595 7.53888 3.23 7.64L8.23 13.64C8.38224 13.823 8.59479 13.9457 8.82942 13.9861C9.06406 14.0264 9.30538 13.9817 9.51 13.86L13.79 11.29L17.79 16H15C14.7348 16 14.4804 16.1054 14.2929 16.2929C14.1054 16.4804 14 16.7348 14 17C14 17.2652 14.1054 17.5196 14.2929 17.7071C14.4804 17.8946 14.7348 18 15 18H20C20.1231 17.997 20.2448 17.9733 20.36 17.93L20.5 17.85C20.5521 17.8237 20.6023 17.7936 20.65 17.76C20.7048 17.7105 20.752 17.6532 20.79 17.59C20.8235 17.5457 20.8536 17.4989 20.88 17.45C20.9045 17.3959 20.9213 17.3387 20.93 17.28C20.9705 17.1918 20.9943 17.0969 21 17V12Z" fill="black"/>
</g>
<defs>
<clipPath id="clip0_201_70078">
<rect width="24" height="24" fill="white"/>
</clipPath>
</defs>
</svg>
