<svg width="24" height="24" viewBox="0 0 24 24" fill="none" xmlns="http://www.w3.org/2000/svg">
<g clip-path="url(#clip0_201_70123)">
<path d="M14.22 17.05L4.88 7.70999L3.12 5.99999L3 5.79999C2.68988 6.07731 2.44084 6.4161 2.26868 6.79484C2.09653 7.17358 2.00503 7.58399 2 7.99999V16C2 16.7956 2.31607 17.5587 2.87868 18.1213C3.44129 18.6839 4.20435 19 5 19H14C14.5921 19.001 15.1706 18.8233 15.66 18.49L14.22 17.05Z" fill="black"/>
<path d="M21 7.15C20.6962 7.0132 20.3589 6.9687 20.0299 7.02204C19.701 7.07537 19.395 7.22419 19.15 7.45L17 9.45V8C17 7.20435 16.6839 6.44129 16.1213 5.87868C15.5587 5.31607 14.7957 5 14 5H7.83002L9.12002 6.29L15.71 12.88L17.71 14.88L19.71 16.88C19.9019 16.9519 20.1051 16.9892 20.31 16.99C20.548 16.9894 20.7832 16.9383 21 16.84C21.295 16.7207 21.5476 16.5162 21.7258 16.2525C21.9039 15.9889 21.9994 15.6782 22 15.36V8.63C21.9994 8.31184 21.9039 8.00109 21.7258 7.73747C21.5476 7.47384 21.295 7.26931 21 7.15Z" fill="black"/>
<path d="M17 15.59L15 13.59L8.41 7L6.41 5L4.71 3.29C4.61676 3.19676 4.50607 3.1228 4.38425 3.07234C4.26243 3.02188 4.13186 2.99591 4 2.99591C3.86814 2.99591 3.73758 3.02188 3.61575 3.07234C3.49393 3.1228 3.38324 3.19676 3.29 3.29C3.1017 3.47831 2.99591 3.7337 2.99591 4C2.99591 4.2663 3.1017 4.5217 3.29 4.71L3.83 5.24L5.59 7L14.93 16.34L16.39 17.8L19.29 20.71C19.383 20.8037 19.4936 20.8781 19.6154 20.9289C19.7373 20.9797 19.868 21.0058 20 21.0058C20.132 21.0058 20.2627 20.9797 20.3846 20.9289C20.5064 20.8781 20.617 20.8037 20.71 20.71C20.8037 20.617 20.8781 20.5064 20.9289 20.3846C20.9797 20.2627 21.0058 20.132 21.0058 20C21.0058 19.868 20.9797 19.7373 20.9289 19.6154C20.8781 19.4936 20.8037 19.383 20.71 19.29L17 15.59Z" fill="black"/>
</g>
<defs>
<clipPath id="clip0_201_70123">
<rect width="24" height="24" fill="white"/>
</clipPath>
</defs>
</svg>
