<svg width="24" height="24" viewBox="0 0 24 24" fill="none" xmlns="http://www.w3.org/2000/svg">
<g clip-path="url(#clip0_201_70141)">
<path d="M17 21C16.7977 20.9989 16.5999 20.9399 16.43 20.83L10 16.43H5C4.73478 16.43 4.48043 16.3247 4.29289 16.1371C4.10536 15.9496 4 15.6952 4 15.43V8.57002C4 8.3048 4.10536 8.05045 4.29289 7.86291C4.48043 7.67538 4.73478 7.57002 5 7.57002H10L16.41 3.17002C16.5606 3.05987 16.7391 2.99407 16.9252 2.98006C17.1113 2.96605 17.2976 3.00439 17.463 3.09075C17.6285 3.17711 17.7664 3.30804 17.8613 3.46872C17.9562 3.62941 18.0043 3.81345 18 4.00002V20C18 20.2652 17.8946 20.5196 17.7071 20.7071C17.5196 20.8947 17.2652 21 17 21Z" fill="black"/>
</g>
<defs>
<clipPath id="clip0_201_70141">
<rect width="24" height="24" fill="white"/>
</clipPath>
</defs>
</svg>
