<svg width="24" height="24" viewBox="0 0 24 24" fill="none" xmlns="http://www.w3.org/2000/svg">
<g clip-path="url(#clip0_201_70146)">
<path d="M16.91 14.08L18.35 15.52C19.1071 14.4785 19.509 13.221 19.4964 11.9335C19.4838 10.6459 19.0573 9.39654 18.28 8.37003C18.1129 8.16316 17.8705 8.03114 17.6061 8.003C17.3416 7.97487 17.0769 8.05294 16.87 8.22003C16.6631 8.38711 16.5311 8.62953 16.503 8.89396C16.4748 9.15839 16.5529 9.42316 16.72 9.63003C17.1892 10.2694 17.4578 11.0338 17.4917 11.8261C17.5255 12.6185 17.323 13.403 16.91 14.08Z" fill="black"/>
<path d="M21 12C20.979 13.635 20.3436 15.2022 19.22 16.39L20.64 17.81C22.1358 16.2433 22.9796 14.1661 23 12C22.9815 10.6922 22.6701 9.40514 22.0886 8.23354C21.5072 7.06194 20.6704 6.0356 19.64 5.23003C19.5389 5.14598 19.4222 5.08268 19.2966 5.04372C19.171 5.00477 19.039 4.99094 18.9081 5.00301C18.7771 5.01508 18.6499 5.05282 18.5335 5.11408C18.4172 5.17534 18.314 5.25891 18.23 5.36003C18.146 5.46115 18.0826 5.57783 18.0437 5.70341C18.0047 5.829 17.9909 5.96102 18.003 6.09195C18.015 6.22288 18.0528 6.35015 18.114 6.4665C18.1753 6.58284 18.2589 6.68598 18.36 6.77003C19.162 7.3899 19.8153 8.18124 20.2721 9.08614C20.7289 9.99104 20.9776 10.9866 21 12Z" fill="black"/>
<path d="M15 12.17V4.00002C15.0015 3.81674 14.9527 3.63656 14.8587 3.47917C14.7648 3.32179 14.6294 3.19324 14.4674 3.10758C14.3054 3.02191 14.1229 2.98243 13.94 2.99344C13.757 3.00446 13.5806 3.06554 13.43 3.17002L9 6.20002L15 12.17Z" fill="black"/>
<path d="M4.74 7.57001H2C1.73478 7.57001 1.48043 7.67536 1.29289 7.8629C1.10536 8.05044 1 8.30479 1 8.57001V15.43C1 15.6952 1.10536 15.9496 1.29289 16.1371C1.48043 16.3246 1.73478 16.43 2 16.43H7L13.41 20.83C13.5856 20.9436 13.7909 21.0028 14 21C14.2652 21 14.5196 20.8947 14.7071 20.7071C14.8946 20.5196 15 20.2652 15 20V17.83L4.74 7.57001Z" fill="black"/>
<path d="M4.71 3.29C4.61676 3.19676 4.50607 3.1228 4.38425 3.07234C4.26243 3.02188 4.13186 2.99591 4 2.99591C3.86814 2.99591 3.73758 3.02188 3.61575 3.07234C3.49393 3.1228 3.38324 3.19676 3.29 3.29C3.1017 3.47831 2.99591 3.7337 2.99591 4C2.99591 4.2663 3.1017 4.5217 3.29 4.71L19.29 20.71C19.383 20.8037 19.4936 20.8781 19.6154 20.9289C19.7373 20.9797 19.868 21.0058 20 21.0058C20.132 21.0058 20.2627 20.9797 20.3846 20.9289C20.5064 20.8781 20.617 20.8037 20.71 20.71C20.8037 20.617 20.8781 20.5064 20.9289 20.3846C20.9797 20.2627 21.0058 20.132 21.0058 20C21.0058 19.868 20.9797 19.7373 20.9289 19.6154C20.8781 19.4936 20.8037 19.383 20.71 19.29L4.71 3.29Z" fill="black"/>
</g>
<defs>
<clipPath id="clip0_201_70146">
<rect width="24" height="24" fill="white"/>
</clipPath>
</defs>
</svg>
