<svg width="24" height="24" viewBox="0 0 24 24" fill="none" xmlns="http://www.w3.org/2000/svg">
<g clip-path="url(#clip0_201_70173)">
<path d="M12 20C12.5523 20 13 19.5523 13 19C13 18.4477 12.5523 18 12 18C11.4477 18 11 18.4477 11 19C11 19.5523 11.4477 20 12 20Z" fill="black"/>
<path d="M12 14C10.7057 14 9.46186 14.5018 8.52999 15.4C8.33903 15.5843 8.22912 15.837 8.22443 16.1023C8.21974 16.3677 8.32066 16.624 8.50499 16.815C8.68931 17.006 8.94194 17.1159 9.20731 17.1206C9.47267 17.1252 9.72903 17.0243 9.91999 16.84C10.4879 16.32 11.23 16.0316 12 16.0316C12.77 16.0316 13.5121 16.32 14.08 16.84C14.2709 17.0243 14.5273 17.1252 14.7927 17.1206C15.058 17.1159 15.3107 17.006 15.495 16.815C15.6793 16.624 15.7802 16.3677 15.7755 16.1023C15.7709 15.837 15.6609 15.5843 15.47 15.4C14.5381 14.5018 13.2943 14 12 14Z" fill="black"/>
<path d="M12 9C10.7922 9.0008 9.59694 9.24469 8.48539 9.71714C7.37384 10.1896 6.36875 10.8809 5.53001 11.75C5.43874 11.8465 5.36737 11.9601 5.31999 12.0842C5.27261 12.2083 5.25013 12.3405 5.25384 12.4733C5.25756 12.6061 5.28739 12.7368 5.34164 12.8581C5.39589 12.9793 5.47349 13.0887 5.57001 13.18C5.76494 13.3643 6.02511 13.4637 6.29329 13.4562C6.42608 13.4525 6.55683 13.4226 6.67809 13.3684C6.79935 13.3141 6.90874 13.2365 7.00001 13.14C7.65299 12.4625 8.43586 11.9237 9.30183 11.5556C10.1678 11.1875 11.0991 10.9978 12.04 10.9978C12.9809 10.9978 13.9122 11.1875 14.7782 11.5556C15.6442 11.9237 16.427 12.4625 17.08 13.14C17.1726 13.2345 17.2831 13.3097 17.4049 13.3612C17.5268 13.4127 17.6577 13.4395 17.79 13.44C17.9854 13.4393 18.1763 13.3813 18.3392 13.2732C18.502 13.1651 18.6296 13.0117 18.7062 12.832C18.7828 12.6522 18.805 12.4539 18.7702 12.2616C18.7353 12.0693 18.6448 11.8915 18.51 11.75C17.6666 10.8761 16.655 10.1819 15.5362 9.7093C14.4174 9.23669 13.2145 8.99541 12 9Z" fill="black"/>
<path d="M21.72 7.93001C19.1104 5.41258 15.6259 4.0058 12 4.0058C8.37406 4.0058 4.88956 5.41258 2.27999 7.93001C2.11122 8.11766 2.01966 8.36219 2.02365 8.61453C2.02765 8.86688 2.12692 9.10838 2.30154 9.2906C2.47616 9.47281 2.71323 9.58226 2.96517 9.59699C3.21712 9.61172 3.46532 9.53063 3.65999 9.37001C5.89758 7.20713 8.88793 5.99812 12 5.99812C15.112 5.99812 18.1024 7.20713 20.34 9.37001C20.5254 9.54869 20.7725 9.64898 21.03 9.65001C21.1647 9.64949 21.2979 9.62177 21.4216 9.5685C21.5454 9.51523 21.657 9.43751 21.75 9.34001C21.9323 9.14871 22.0315 8.89302 22.0259 8.62882C22.0202 8.36461 21.9103 8.11338 21.72 7.93001Z" fill="black"/>
</g>
<defs>
<clipPath id="clip0_201_70173">
<rect width="24" height="24" fill="white"/>
</clipPath>
</defs>
</svg>
