<svg width="24" height="24" viewBox="0 0 24 24" fill="none" xmlns="http://www.w3.org/2000/svg">
<path d="M11 16C11 16.5523 11.4477 17 12 17C12.5523 17 13 16.5523 13 16H11ZM13 10C13 9.44772 12.5523 9 12 9C11.4477 9 11 9.44772 11 10H13ZM9 12C8.44772 12 8 12.4477 8 13C8 13.5523 8.44772 14 9 14V12ZM15 14C15.5523 14 16 13.5523 16 13C16 12.4477 15.5523 12 15 12V14ZM20.2929 6.70711C20.6834 7.09763 21.3166 7.09763 21.7071 6.70711C22.0976 6.31658 22.0976 5.68342 21.7071 5.29289L20.2929 6.70711ZM19.7071 3.29289C19.3166 2.90237 18.6834 2.90237 18.2929 3.29289C17.9024 3.68342 17.9024 4.31658 18.2929 4.70711L19.7071 3.29289ZM10 1C9.44772 1 9 1.44772 9 2C9 2.55228 9.44772 3 10 3V1ZM14 3C14.5523 3 15 2.55228 15 2C15 1.44772 14.5523 1 14 1V3ZM12 20C8.13401 20 5 16.866 5 13H3C3 17.9706 7.02944 22 12 22V20ZM5 13C5 9.13401 8.13401 6 12 6V4C7.02944 4 3 8.02944 3 13H5ZM12 6C15.866 6 19 9.13401 19 13H21C21 8.02944 16.9706 4 12 4V6ZM19 13C19 16.866 15.866 20 12 20V22C16.9706 22 21 17.9706 21 13H19ZM13 16V10H11V16H13ZM9 14H15V12H9V14ZM21.7071 5.29289L19.7071 3.29289L18.2929 4.70711L20.2929 6.70711L21.7071 5.29289ZM10 3H14V1H10V3Z" fill="black"/>
</svg>
