<svg width="24" height="24" viewBox="0 0 24 24" fill="none" xmlns="http://www.w3.org/2000/svg">
<path d="M9.29289 14.2929C8.90237 14.6834 8.90237 15.3165 9.29289 15.7071C9.68342 16.0976 10.3166 16.0976 10.7071 15.7071L9.29289 14.2929ZM14.7071 11.7071C15.0976 11.3166 15.0976 10.6834 14.7071 10.2929C14.3165 9.90237 13.6834 9.90237 13.2929 10.2929L14.7071 11.7071ZM10.7071 10.2929C10.3166 9.90237 9.68342 9.90237 9.29289 10.2929C8.90237 10.6834 8.90237 11.3166 9.29289 11.7071L10.7071 10.2929ZM13.2929 15.7071C13.6834 16.0976 14.3165 16.0976 14.7071 15.7071C15.0976 15.3166 15.0976 14.6834 14.7071 14.2929L13.2929 15.7071ZM20.2929 6.70711C20.6834 7.09763 21.3166 7.09763 21.7071 6.70711C22.0976 6.31658 22.0976 5.68342 21.7071 5.29289L20.2929 6.70711ZM19.7071 3.29289C19.3166 2.90237 18.6834 2.90237 18.2929 3.29289C17.9024 3.68342 17.9024 4.31658 18.2929 4.70711L19.7071 3.29289ZM10 1C9.44772 1 9 1.44772 9 2C9 2.55228 9.44772 3 10 3V1ZM14 3C14.5523 3 15 2.55228 15 2C15 1.44772 14.5523 1 14 1V3ZM12 20C8.13401 20 5 16.866 5 13H3C3 17.9706 7.02944 22 12 22V20ZM5 13C5 9.13401 8.13401 6 12 6V4C7.02944 4 3 8.02944 3 13H5ZM12 6C15.866 6 19 9.13401 19 13H21C21 8.02944 16.9706 4 12 4V6ZM19 13C19 16.866 15.866 20 12 20V22C16.9706 22 21 17.9706 21 13H19ZM10.7071 15.7071L14.7071 11.7071L13.2929 10.2929L9.29289 14.2929L10.7071 15.7071ZM9.29289 11.7071L13.2929 15.7071L14.7071 14.2929L10.7071 10.2929L9.29289 11.7071ZM21.7071 5.29289L19.7071 3.29289L18.2929 4.70711L20.2929 6.70711L21.7071 5.29289ZM10 3H14V1H10V3Z" fill="black"/>
</svg>
