<svg width="24" height="24" viewBox="0 0 24 24" fill="none" xmlns="http://www.w3.org/2000/svg">
<path d="M18 5C18 4.44772 17.5523 4 17 4C16.4477 4 16 4.44772 16 5L18 5ZM16 19C16 19.5523 16.4477 20 17 20C17.5523 20 18 19.5523 18 19H16ZM10.8125 16.1928L10.3086 15.3291L10.8125 16.1928ZM13.2617 14.7642L13.7655 15.6279L13.2617 14.7642ZM13.2617 9.23593L13.7655 8.37216L13.7655 8.37216L13.2617 9.23593ZM10.8125 7.80725L11.3164 6.94347V6.94347L10.8125 7.80725ZM15.8594 12.8103L14.9452 12.4052L15.8594 12.8103ZM15.8594 11.1899L14.9452 11.595L15.8594 11.1899ZM6.38355 16.6957L7.19177 16.1068L6.38355 16.6957ZM7.79688 17.5077L7.69546 18.5026L7.79688 17.5077ZM6.38355 7.30444L5.57532 6.71557H5.57532L6.38355 7.30444ZM7.79688 6.49244L7.69546 5.49759L7.79688 6.49244ZM16 5L16 19H18L18 5L16 5ZM5 10.5714V13.4288H7V10.5714H5ZM11.3164 17.0566L13.7655 15.6279L12.7578 13.9004L10.3086 15.3291L11.3164 17.0566ZM13.7655 8.37216L11.3164 6.94347L10.3086 8.67103L12.7578 10.0997L13.7655 8.37216ZM13.7655 15.6279C14.5271 15.1837 15.1586 14.8165 15.6268 14.4826C16.0913 14.1513 16.5318 13.7613 16.7737 13.2154L14.9452 12.4052C14.925 12.4507 14.8452 12.5835 14.4656 12.8542C14.0897 13.1223 13.5534 13.4363 12.7578 13.9004L13.7655 15.6279ZM12.7578 10.0997C13.5534 10.5638 14.0897 10.8778 14.4655 11.1459C14.8451 11.4166 14.925 11.5494 14.9452 11.595L16.7737 10.7848C16.5318 10.2389 16.0914 9.84888 15.6269 9.51759C15.1586 9.18362 14.5271 8.8164 13.7655 8.37216L12.7578 10.0997ZM16.7737 13.2154C17.1166 12.4415 17.1166 11.5587 16.7737 10.7848L14.9452 11.595C15.0595 11.8529 15.0595 12.1472 14.9452 12.4052L16.7737 13.2154ZM5 13.4288C5 14.3226 4.99899 15.0622 5.05213 15.6413C5.10475 16.2149 5.22077 16.798 5.57532 17.2846L7.19177 16.1068C7.16277 16.067 7.08702 15.9301 7.04376 15.4586C7.00101 14.9926 7 14.362 7 13.4288H5ZM10.3086 15.3291C9.50256 15.7993 8.95724 16.1162 8.53308 16.314C8.10386 16.5143 7.9473 16.5179 7.89829 16.5129L7.69546 18.5026C8.29442 18.5636 8.85659 18.3701 9.37865 18.1265C9.90577 17.8806 10.5443 17.507 11.3164 17.0566L10.3086 15.3291ZM5.57532 17.2846C6.07693 17.973 6.84748 18.4161 7.69546 18.5026L7.89829 16.5129C7.61599 16.4841 7.35919 16.3366 7.19177 16.1068L5.57532 17.2846ZM7 10.5714C7 9.63816 7.00101 9.00757 7.04376 8.54155C7.08702 8.07003 7.16278 7.93311 7.19177 7.89331L5.57532 6.71557C5.22077 7.20219 5.10475 7.78523 5.05213 8.35883C4.99899 8.93793 5 9.67762 5 10.5714H7ZM11.3164 6.94347C10.5443 6.49308 9.90575 6.11952 9.37862 5.87361C8.85655 5.63006 8.29439 5.43654 7.69546 5.49759L7.89829 7.48728C7.94732 7.48229 8.1039 7.48587 8.5331 7.68609C8.95726 7.88396 9.50257 8.20083 10.3086 8.67103L11.3164 6.94347ZM7.19177 7.89331C7.35919 7.66354 7.61598 7.51606 7.89829 7.48728L7.69546 5.49759C6.8475 5.58403 6.07694 6.0271 5.57532 6.71557L7.19177 7.89331Z" fill="black"/>
</svg>
