<svg width="24" height="24" viewBox="0 0 24 24" fill="none" xmlns="http://www.w3.org/2000/svg">
<path d="M19 15.8V8.19995V8.19666C19 7.07875 19 6.51945 18.7822 6.09204C18.5905 5.71572 18.2841 5.40973 17.9078 5.21799C17.48 5 16.9203 5 15.8002 5H8.2002C7.08009 5 6.51962 5 6.0918 5.21799C5.71547 5.40973 5.40973 5.71572 5.21799 6.09204C5 6.51986 5 7.07985 5 8.19995V15.8C5 16.9201 5 17.4802 5.21799 17.908C5.40973 18.2844 5.71547 18.5902 6.0918 18.782C6.51962 19 7.08009 19 8.2002 19H15.8002C16.9203 19 17.48 19 17.9078 18.782C18.2841 18.5902 18.5905 18.2844 18.7822 17.908C19 17.4806 19 16.9212 19 15.8032V15.8Z" stroke="black" stroke-width="2" stroke-linecap="round" stroke-linejoin="round"/>
</svg>
