<svg width="24" height="24" viewBox="0 0 24 24" fill="none" xmlns="http://www.w3.org/2000/svg">
<path d="M6.20558 2.63161C5.41062 2.54276 4.58949 2.54276 3.79453 2.63161C3.19587 2.69852 2.71071 3.16972 2.63983 3.7758C2.5447 4.58915 2.5447 5.41082 2.63983 6.22417C2.71071 6.83025 3.19587 7.30145 3.79453 7.36836C4.58949 7.45721 5.41062 7.45721 6.20558 7.36836C6.80425 7.30145 7.2894 6.83025 7.36029 6.22417C7.45541 5.41082 7.45541 4.58915 7.36029 3.7758C7.2894 3.16972 6.80425 2.69852 6.20558 2.63161Z" fill="black"/>
<path d="M13.2056 2.63161C12.4106 2.54276 11.5895 2.54276 10.7945 2.63161C10.1959 2.69852 9.71071 3.16972 9.63982 3.7758C9.54469 4.58915 9.54469 5.41082 9.63982 6.22417C9.71071 6.83025 10.1959 7.30145 10.7945 7.36836C11.5895 7.45721 12.4106 7.45721 13.2056 7.36836C13.8042 7.30145 14.2894 6.83025 14.3603 6.22417C14.4554 5.41082 14.4554 4.58915 14.3603 3.7758C14.2894 3.16972 13.8042 2.69852 13.2056 2.63161Z" fill="black"/>
<path d="M20.2056 2.63161C19.4106 2.54276 18.5895 2.54276 17.7945 2.63161C17.1959 2.69852 16.7107 3.16972 16.6398 3.7758C16.5447 4.58915 16.5447 5.41082 16.6398 6.22417C16.7107 6.83025 17.1959 7.30145 17.7945 7.36836C18.5895 7.45721 19.4106 7.45721 20.2056 7.36836C20.8042 7.30145 21.2894 6.83025 21.3603 6.22417C21.4554 5.41082 21.4554 4.58915 21.3603 3.7758C21.2894 3.16972 20.8042 2.69852 20.2056 2.63161Z" fill="black"/>
<path d="M6.20558 9.63161C5.41062 9.54276 4.58949 9.54276 3.79453 9.63161C3.19587 9.69852 2.71071 10.1697 2.63983 10.7758C2.5447 11.5892 2.5447 12.4108 2.63983 13.2242C2.71071 13.8303 3.19587 14.3015 3.79453 14.3684C4.58949 14.4572 5.41062 14.4572 6.20558 14.3684C6.80425 14.3015 7.2894 13.8303 7.36029 13.2242C7.45541 12.4108 7.45541 11.5892 7.36029 10.7758C7.2894 10.1697 6.80425 9.69852 6.20558 9.63161Z" fill="black"/>
<path d="M13.2056 9.63161C12.4106 9.54276 11.5895 9.54276 10.7945 9.63161C10.1959 9.69852 9.71071 10.1697 9.63982 10.7758C9.54469 11.5892 9.54469 12.4108 9.63982 13.2242C9.71071 13.8303 10.1959 14.3015 10.7945 14.3684C11.5895 14.4572 12.4106 14.4572 13.2056 14.3684C13.8042 14.3015 14.2894 13.8303 14.3603 13.2242C14.4554 12.4108 14.4554 11.5892 14.3603 10.7758C14.2894 10.1697 13.8042 9.69852 13.2056 9.63161Z" fill="black"/>
<path d="M20.2056 9.63161C19.4106 9.54276 18.5895 9.54276 17.7945 9.63161C17.1959 9.69852 16.7107 10.1697 16.6398 10.7758C16.5447 11.5892 16.5447 12.4108 16.6398 13.2242C16.7107 13.8303 17.1959 14.3015 17.7945 14.3684C18.5895 14.4572 19.4106 14.4572 20.2056 14.3684C20.8042 14.3015 21.2894 13.8303 21.3603 13.2242C21.4554 12.4108 21.4554 11.5892 21.3603 10.7758C21.2894 10.1697 20.8042 9.69852 20.2056 9.63161Z" fill="black"/>
<path d="M6.20558 16.6316C5.41062 16.5428 4.58949 16.5428 3.79453 16.6316C3.19587 16.6985 2.71071 17.1697 2.63983 17.7758C2.5447 18.5892 2.5447 19.4108 2.63983 20.2242C2.71071 20.8303 3.19587 21.3015 3.79453 21.3684C4.58949 21.4572 5.41062 21.4572 6.20558 21.3684C6.80425 21.3015 7.2894 20.8303 7.36029 20.2242C7.45541 19.4108 7.45541 18.5892 7.36029 17.7758C7.2894 17.1697 6.80425 16.6985 6.20558 16.6316Z" fill="black"/>
<path d="M13.2056 16.6316C12.4106 16.5428 11.5895 16.5428 10.7945 16.6316C10.1959 16.6985 9.71071 17.1697 9.63982 17.7758C9.54469 18.5892 9.54469 19.4108 9.63982 20.2242C9.71071 20.8303 10.1959 21.3015 10.7945 21.3684C11.5895 21.4572 12.4106 21.4572 13.2056 21.3684C13.8042 21.3015 14.2894 20.8303 14.3603 20.2242C14.4554 19.4108 14.4554 18.5892 14.3603 17.7758C14.2894 17.1697 13.8042 16.6985 13.2056 16.6316Z" fill="black"/>
<path d="M20.2056 16.6316C19.4106 16.5428 18.5895 16.5428 17.7945 16.6316C17.1959 16.6985 16.7107 17.1697 16.6398 17.7758C16.5447 18.5892 16.5447 19.4108 16.6398 20.2242C16.7107 20.8303 17.1959 21.3015 17.7945 21.3684C18.5895 21.4572 19.4106 21.4572 20.2056 21.3684C20.8042 21.3015 21.2894 20.8303 21.3603 20.2242C21.4554 19.4108 21.4554 18.5892 21.3603 17.7758C21.2894 17.1697 20.8042 16.6985 20.2056 16.6316Z" fill="black"/>
</svg>
