<svg width="24" height="24" viewBox="0 0 24 24" fill="none" xmlns="http://www.w3.org/2000/svg">
<path d="M10.5417 19.2669C11.0143 14.4338 11.0143 9.56616 10.5417 4.73308C10.4992 4.29836 10.201 3.93229 9.78898 3.79852C8.14606 3.2652 6.35388 3.2652 4.71096 3.79852C4.2989 3.93229 4.00076 4.29836 3.95825 4.73308C3.4856 9.56616 3.4856 14.4338 3.95824 19.2669C4.00076 19.7016 4.2989 20.0677 4.71096 20.2015C6.35388 20.7348 8.14606 20.7348 9.78897 20.2015C10.201 20.0677 10.4992 19.7016 10.5417 19.2669Z" fill="black"/>
<path d="M20.0417 19.2669C20.5143 14.4338 20.5143 9.56616 20.0417 4.73308C19.9992 4.29836 19.701 3.93229 19.289 3.79852C17.6461 3.2652 15.8539 3.2652 14.211 3.79852C13.7989 3.93229 13.5008 4.29836 13.4582 4.73308C12.9856 9.56616 12.9856 14.4338 13.4582 19.2669C13.5008 19.7016 13.7989 20.0677 14.211 20.2015C15.8539 20.7348 17.6461 20.7348 19.289 20.2015C19.701 20.0677 19.9992 19.7016 20.0417 19.2669Z" fill="black"/>
</svg>
