<svg width="24" height="24" viewBox="0 0 24 24" fill="none" xmlns="http://www.w3.org/2000/svg">
<path d="M16.0659 8.99479C16.3588 8.7019 16.3588 8.22703 16.0659 7.93413C15.773 7.64124 15.2981 7.64124 15.0052 7.93413L12 10.9393L8.99482 7.93413C8.70192 7.64124 8.22705 7.64124 7.93416 7.93413C7.64126 8.22703 7.64126 8.7019 7.93416 8.99479L10.9394 12L7.93415 15.0052C7.64125 15.2981 7.64125 15.773 7.93415 16.0659C8.22704 16.3588 8.70191 16.3588 8.99481 16.0659L12 13.0607L15.0052 16.0659C15.2981 16.3588 15.773 16.3588 16.0659 16.0659C16.3588 15.773 16.3588 15.2981 16.0659 15.0052L13.0607 12L16.0659 8.99479Z" fill="black"/>
</svg>
