<svg width="24" height="24" viewBox="0 0 24 24" fill="none" xmlns="http://www.w3.org/2000/svg">
<path d="M16.4765 3.00353C16.644 3.01946 16.7163 3.22293 16.5973 3.34196L8.27721 11.6621C8.18299 11.7563 8.11557 11.8739 8.08189 12.0028L7.08189 15.8313C7.0146 16.0889 7.08894 16.3629 7.27721 16.5511C7.46549 16.7394 7.73947 16.8138 7.99709 16.7465L11.8255 15.7465C11.9544 15.7128 12.0721 15.6454 12.1663 15.5511L20.6042 7.11322C20.7226 6.99483 20.925 7.06566 20.9425 7.23217C21.294 10.5813 21.2742 13.9597 20.8828 17.3055C20.66 19.2106 19.1288 20.7064 17.2304 20.9185C13.7823 21.3039 10.2176 21.3039 6.76948 20.9185C4.87108 20.7064 3.33989 19.2106 3.11707 17.3055C2.70479 13.7805 2.70479 10.2195 3.11707 6.69449C3.33989 4.78944 4.87108 3.29366 6.76948 3.08148C9.96687 2.72413 13.2645 2.69814 16.4765 3.00353Z" fill="black"/>
<path d="M17.8233 4.23729C17.9209 4.13985 18.079 4.13985 18.1766 4.23729L19.5909 5.65165C19.6886 5.74928 19.6886 5.90757 19.5909 6.0052L11.2975 14.2986C11.2663 14.3299 11.2266 14.3524 11.1839 14.3637L9.26949 14.8638C9.08485 14.9119 8.9167 14.7433 8.96462 14.5587L9.46462 12.6445C9.47585 12.6015 9.49833 12.5623 9.52973 12.5309L17.8233 4.23729Z" fill="black"/>
</svg>
