<svg width="24" height="24" viewBox="0 0 24 24" fill="none" xmlns="http://www.w3.org/2000/svg">
<path d="M19.2669 3.95828C14.4339 3.48563 9.56619 3.48563 4.73311 3.95828C4.29839 4.00079 3.93232 4.29893 3.79855 4.71099C3.26523 6.35391 3.26523 8.14609 3.79855 9.78901C3.93232 10.2011 4.29839 10.4992 4.73311 10.5417C9.56619 11.0144 14.4339 11.0144 19.2669 10.5417C19.7017 10.4992 20.0677 10.2011 20.2015 9.78901C20.7348 8.14609 20.7348 6.35391 20.2015 4.71099C20.0677 4.29893 19.7017 4.00079 19.2669 3.95828Z" fill="black"/>
<path d="M19.2669 13.4583C14.4339 12.9856 9.56619 12.9856 4.73311 13.4583C4.29839 13.5008 3.93232 13.7989 3.79855 14.211C3.26523 15.8539 3.26523 17.6461 3.79855 19.289C3.93232 19.7011 4.29839 19.9992 4.73311 20.0417C9.56619 20.5144 14.4339 20.5144 19.2669 20.0417C19.7017 19.9992 20.0677 19.7011 20.2015 19.289C20.7348 17.6461 20.7348 15.8539 20.2015 14.211C20.0677 13.7989 19.7017 13.5008 19.2669 13.4583Z" fill="black"/>
</svg>
