<svg width="24" height="24" viewBox="0 0 24 24" fill="none" xmlns="http://www.w3.org/2000/svg">
<g clip-path="url(#clip0_211_48156)">
<mask id="mask0_211_48156" style="mask-type:luminance" maskUnits="userSpaceOnUse" x="0" y="0" width="24" height="24">
<path d="M24 0H0V24H24V0Z" fill="white"/>
</mask>
<g mask="url(#mask0_211_48156)">
<path d="M20.4253 21.9602L19.6381 21.8028C18.4633 21.5678 17.928 19.9993 18.3014 18.8609C19.2786 15.8814 18.5623 12.0558 18.1663 10.4046C18.0435 9.89221 17.6376 9.50766 17.1265 9.37986L15.9951 9.09701C15.4577 8.96266 15.0381 8.54306 14.9037 8.00561L14.6209 6.87426C14.4931 6.36306 14.1085 5.95726 13.5961 5.83436C11.945 5.43841 8.11929 4.72216 5.13979 5.69936C4.00143 6.07271 2.43292 5.53741 2.19797 4.36262L2.04053 3.57544" stroke="#333333" stroke-width="2" stroke-linecap="round" stroke-linejoin="round"/>
<path d="M3 5.5L19 21.5" stroke="#333333" stroke-width="2" stroke-linecap="round" stroke-linejoin="round"/>
<path d="M6 18L21.5 2.5" stroke="#333333" stroke-width="2" stroke-linecap="round" stroke-linejoin="round"/>
</g>
</g>
<defs>
<clipPath id="clip0_211_48156">
<rect width="24" height="24" fill="white"/>
</clipPath>
</defs>
</svg>
