<svg width="24" height="24" viewBox="0 0 24 24" fill="none" xmlns="http://www.w3.org/2000/svg">
<path d="M7.17045 10.7059L12.0001 12L16.8297 13.2941L21.6593 14.5882C22.8284 10.2253 20.9238 5.76295 17.2729 3.50006C16.4598 2.99605 15.56 2.60116 14.5883 2.34078C13.4692 2.04091 12.3434 1.94328 11.25 2.02547C7.1314 2.33509 3.47037 5.1963 2.34082 9.41185L7.17045 10.7059Z" fill="#333333" stroke="#333333" stroke-width="2" stroke-linecap="round" stroke-linejoin="round"/>
<path d="M14.5881 2.3407C14.5881 2.3407 11.7677 4.17317 10.1547 6.32915C8.54178 8.48515 8.13623 10.9647 8.13623 10.9647" stroke="white" stroke-width="2" stroke-linecap="round" stroke-linejoin="round"/>
<path d="M14.5884 2.3407C14.5884 2.3407 16.1146 5.33785 16.4335 8.0115C16.7524 10.6851 15.8639 13.0352 15.8639 13.0352" stroke="white" stroke-width="2" stroke-linecap="round" stroke-linejoin="round"/>
<path d="M2.34082 9.41187L7.17045 10.706L12.0001 12.0001L16.8297 13.2942L21.6593 14.5883" stroke="#333333" stroke-width="2" stroke-linecap="round" stroke-linejoin="round"/>
<path d="M2 22H22" stroke="#333333" stroke-width="2" stroke-linecap="round" stroke-linejoin="round"/>
<path d="M12 12L9.25 22" stroke="#333333" stroke-width="2" stroke-linecap="round" stroke-linejoin="round"/>
<path d="M11.25 2.02547C12.3434 1.94328 13.4691 2.04091 14.5882 2.34078C15.5599 2.60116 16.4597 2.99605 17.2729 3.50006" stroke="#333333" stroke-width="2" stroke-linecap="round" stroke-linejoin="round"/>
</svg>
