<svg width="24" height="24" viewBox="0 0 24 24" fill="none" xmlns="http://www.w3.org/2000/svg">
<path d="M6.74813 10.0408H8.70732C8.70732 10.0408 12.1359 13.6065 12.1359 16.8979C12.1359 20.1893 9.19711 21.7959 9.19711 21.7959H6.25834C6.25834 21.7959 3.31958 20.1893 3.31958 16.8979C3.31958 13.6065 6.74813 10.0408 6.74813 10.0408Z" fill="#333333" stroke="#333333" stroke-width="1.95918" stroke-linecap="round" stroke-linejoin="round"/>
<path d="M7.72754 2.2041C8.74798 2.2041 10.1765 2.94859 10.1765 5.14288C10.1765 7.33716 8.54389 10.0408 8.54389 10.0408H6.91125C6.91125 10.0408 5.27856 7.33716 5.27856 5.14288C5.27856 2.94859 6.70715 2.2041 7.72754 2.2041Z" fill="#333333" stroke="#333333" stroke-width="1.95918" stroke-linecap="round" stroke-linejoin="round"/>
<path d="M15.5643 10.0408H17.5235C17.5235 10.0408 20.9521 13.6065 20.9521 16.8979C20.9521 20.1893 18.0133 21.7959 18.0133 21.7959H15.0745C15.0745 21.7959 12.1357 20.1893 12.1357 16.8979C12.1357 13.6065 15.5643 10.0408 15.5643 10.0408Z" fill="#333333" stroke="#333333" stroke-width="1.95918" stroke-linecap="round" stroke-linejoin="round"/>
<path d="M16.544 2.2041C17.5644 2.2041 18.9929 2.94859 18.9929 5.14288C18.9929 7.33716 17.3603 10.0408 17.3603 10.0408H15.7277C15.7277 10.0408 14.095 7.33716 14.095 5.14288C14.095 2.94859 15.5236 2.2041 16.544 2.2041Z" fill="#333333" stroke="#333333" stroke-width="1.95918" stroke-linecap="round" stroke-linejoin="round"/>
</svg>
