<svg width="24" height="24" viewBox="0 0 24 24" fill="none" xmlns="http://www.w3.org/2000/svg">
<path d="M12 14.3146C13.2552 14.3146 14.2727 13.3002 14.2727 12.0489C14.2727 10.7977 13.2552 9.78333 12 9.78333C10.7448 9.78333 9.72729 10.7977 9.72729 12.0489C9.72729 13.3002 10.7448 14.3146 12 14.3146Z" fill="#333333" stroke="#333333" stroke-width="2" stroke-linejoin="round"/>
<path d="M7.99999 7.5C5.33334 9.9853 5.33334 14.0147 7.99999 16.5" stroke="#333333" stroke-width="2" stroke-linecap="round" stroke-linejoin="round"/>
<path d="M16 16.5C18.6667 14.0147 18.6667 9.9853 16 7.5" stroke="#333333" stroke-width="2" stroke-linecap="round" stroke-linejoin="round"/>
<path d="M4.92893 5C1.02369 8.89305 1.02369 15.2049 4.92893 19.0979" stroke="#333333" stroke-width="2" stroke-linecap="round" stroke-linejoin="round"/>
<path d="M19.071 19.0979C22.9763 15.2049 22.9763 8.89305 19.071 5" stroke="#333333" stroke-width="2" stroke-linecap="round" stroke-linejoin="round"/>
</svg>
