<svg width="24" height="24" viewBox="0 0 24 24" fill="none" xmlns="http://www.w3.org/2000/svg">
<path d="M17.4999 13.3069L7.573 3.65691C6.9933 3.09336 6.0665 3.10647 5.50295 3.68619C5.4825 3.70723 5.4627 3.72888 5.44355 3.75111C4.87206 4.41447 4.91128 5.4069 5.5333 6.0231L10.5454 10.9881" stroke="#333333" stroke-width="2" stroke-linecap="round"/>
<path d="M10.5454 10.988L5.08865 5.57735C4.44176 4.93591 3.41005 4.90081 2.72107 5.4968C2.08777 6.0446 2.01847 7.00205 2.56628 7.63535C2.58705 7.6594 2.60857 7.68275 2.63082 7.7054L8.12765 13.3068" stroke="#333333" stroke-width="2" stroke-linecap="round" stroke-linejoin="round"/>
<path d="M8.12755 13.3068L4.99988 10.25C4.36871 9.6051 3.33647 9.5872 2.68329 10.2097C2.0371 10.8257 2.01257 11.8488 2.62849 12.495C2.63132 12.498 2.63417 12.5009 2.63703 12.5039C7.2518 17.2721 9.6469 19.5242 10.5454 20.2767C11.9999 21.4948 14.8674 22 16.3651 21C17.8629 20 19.2166 18.5772 19.8591 17.1643C20.2416 16.3232 20.9844 13.7297 22.0878 9.3839C22.3124 8.4993 21.7774 7.60005 20.8927 7.37545C20.8813 7.37255 20.8698 7.36975 20.8582 7.3671C19.9416 7.1552 19.0214 7.70575 18.7748 8.61365L17.4999 13.3068" stroke="#333333" stroke-width="2" stroke-linecap="round"/>
<path d="M15.8578 6.3329C15.5018 5.8012 15.095 5.3065 14.6442 4.85569C14.1934 4.40489 13.6986 3.99803 13.167 3.64209C12.9024 3.46498 12.6287 3.30048 12.3467 3.14945C12.0663 2.99929 11.7778 2.86244 11.4819 2.73975" stroke="#333333" stroke-width="2" stroke-linecap="round"/>
<path d="M2.59692 16.8881C2.92455 17.4377 3.30496 17.953 3.73155 18.4268C4.15813 18.9006 4.6309 19.3328 5.14324 19.7161C5.39814 19.9068 5.66289 20.0854 5.93659 20.251C6.20869 20.4156 6.48969 20.5673 6.77874 20.7053" stroke="#333333" stroke-width="2" stroke-linecap="round"/>
</svg>
