<svg width="24" height="24" viewBox="0 0 24 24" fill="none" xmlns="http://www.w3.org/2000/svg">
<path d="M12 22C17.5229 22 22 17.5229 22 12C22 6.47715 17.5229 2 12 2C6.47715 2 2 6.47715 2 12C2 17.5229 6.47715 22 12 22Z" fill="#333333" stroke="#333333" stroke-width="2" stroke-linecap="round" stroke-linejoin="round"/>
<path d="M13.0608 10.9395L10.9395 13.0608" stroke="white" stroke-width="2" stroke-linecap="round" stroke-linejoin="round"/>
<path d="M16.2425 13.4143L16.9496 12.7072C17.7307 11.9261 17.7307 10.6598 16.9496 9.87872L14.1212 7.05027C13.3402 6.26922 12.0738 6.26922 11.2928 7.05027L10.5857 7.75742" stroke="white" stroke-width="2" stroke-linecap="round" stroke-linejoin="round"/>
<path d="M13.4141 16.2427L12.707 16.9498C11.9259 17.7308 10.6596 17.7308 9.87859 16.9498L7.05014 14.1214C6.26909 13.3403 6.26909 12.074 7.05014 11.2929L7.75724 10.5858" stroke="white" stroke-width="2" stroke-linecap="round" stroke-linejoin="round"/>
</svg>
