<svg width="24" height="24" viewBox="0 0 24 24" fill="none" xmlns="http://www.w3.org/2000/svg">
<path d="M4.98748 4.27829C5.09725 3.54365 5.7282 3 6.471 3H17.9888C18.7489 3 19.3889 3.56847 19.4784 4.32322L21.051 17.5732C21.1569 18.4655 20.4599 19.25 19.5614 19.25H4.49079C3.57406 19.25 2.87176 18.4349 3.00726 17.5283L4.98748 4.27829Z" stroke="#333333" stroke-width="2"/>
<path d="M18 15H6C4.34315 15 3 16.3431 3 18C3 19.6569 4.34315 21 6 21H18C19.6569 21 21 19.6569 21 18C21 16.3431 19.6569 15 18 15Z" fill="#333333" stroke="#333333" stroke-width="2"/>
<path d="M11.5 18C11.5 17.4477 11.0523 17 10.5 17C9.94772 17 9.5 17.4477 9.5 18C9.5 18.5523 9.94772 19 10.5 19C11.0523 19 11.5 18.5523 11.5 18Z" fill="white"/>
<path d="M14.5 18H17.5" stroke="white" stroke-width="2" stroke-linecap="round" stroke-linejoin="round"/>
<path d="M11 6H13" stroke="#333333" stroke-width="2" stroke-linecap="round" stroke-linejoin="round"/>
</svg>
