<svg width="24" height="24" viewBox="0 0 24 24" fill="none" xmlns="http://www.w3.org/2000/svg">
<g clip-path="url(#clip0_211_49790)">
<mask id="mask0_211_49790" style="mask-type:luminance" maskUnits="userSpaceOnUse" x="0" y="0" width="24" height="24">
<path d="M24 0H0V24H24V0Z" fill="white"/>
</mask>
<g mask="url(#mask0_211_49790)">
<path d="M16.6874 16.9373C18.8087 14.816 17.3945 7.74491 14.2125 4.56292C12.7983 3.14867 8.7325 0.143497 4.31303 4.56288C-0.106422 8.98226 2.89885 13.0482 4.31303 14.4624C7.49505 17.6444 14.5661 19.0586 16.6874 16.9373Z" fill="#333333" stroke="#333333" stroke-width="2" stroke-linecap="round" stroke-linejoin="round"/>
<path d="M20.5 20.5C20.1267 20.1267 18.0112 18.0112 17 17" stroke="#333333" stroke-width="2"/>
<path d="M20.2126 19.1519C19.7245 19.64 19.7245 20.4315 20.2126 20.9197C20.7008 21.4078 21.4922 21.4078 21.9804 20.9197C22.4685 20.4315 22.4685 19.64 21.9804 19.1519C21.4922 18.6637 20.7008 18.6637 20.2126 19.1519Z" fill="#333333"/>
<path d="M19.1521 20.2124C18.6639 20.7006 18.6639 21.492 19.1521 21.9802C19.6402 22.4684 20.4317 22.4684 20.9198 21.9802C21.408 21.492 21.408 20.7006 20.9198 20.2124C20.4317 19.7243 19.6402 19.7243 19.1521 20.2124Z" fill="#333333"/>
<path d="M8.5 10C9.05228 10 9.5 9.55228 9.5 9C9.5 8.44772 9.05228 8 8.5 8C7.94772 8 7.5 8.44772 7.5 9C7.5 9.55228 7.94772 10 8.5 10Z" fill="white"/>
<path d="M6 11.5C6.55228 11.5 7 11.0523 7 10.5C7 9.94772 6.55228 9.5 6 9.5C5.44772 9.5 5 9.94772 5 10.5C5 11.0523 5.44772 11.5 6 11.5Z" fill="white"/>
<path d="M8.5 13C9.05228 13 9.5 12.5523 9.5 12C9.5 11.4477 9.05228 11 8.5 11C7.94772 11 7.5 11.4477 7.5 12C7.5 12.5523 7.94772 13 8.5 13Z" fill="white"/>
</g>
</g>
<defs>
<clipPath id="clip0_211_49790">
<rect width="24" height="24" fill="white"/>
</clipPath>
</defs>
</svg>
