<svg width="24" height="24" viewBox="0 0 24 24" fill="none" xmlns="http://www.w3.org/2000/svg">
<path fill-rule="evenodd" clip-rule="evenodd" d="M19.9141 10.893L10.9843 19.8227C9.27725 21.5299 6.4687 21.4892 4.71132 19.7318C2.95397 17.9745 2.91326 15.1659 4.62041 13.4588L13.5501 4.52899" fill="#333333"/>
<path d="M19.9141 10.893L10.9843 19.8227C9.27725 21.5299 6.4687 21.4892 4.71132 19.7318C2.95397 17.9745 2.91326 15.1659 4.62041 13.4588L13.5501 4.52899" stroke="#333333" stroke-width="2" stroke-linecap="round"/>
<path d="M4.36719 13.7119L17.4392 13.3678" stroke="#333333" stroke-width="2" stroke-linecap="round"/>
<path d="M14.6966 10.4535C15.0871 10.0629 15.0871 9.42975 14.6966 9.03925C14.3061 8.6487 13.6729 8.6487 13.2824 9.03925C12.8919 9.42975 12.8919 10.0629 13.2824 10.4535C13.6729 10.844 14.3061 10.844 14.6966 10.4535Z" fill="white"/>
<path d="M11.868 11.8678C12.2586 11.4773 12.2586 10.8441 11.868 10.4536C11.4775 10.063 10.8443 10.063 10.4538 10.4536C10.0633 10.8441 10.0633 11.4773 10.4538 11.8678C10.8443 12.2583 11.4775 12.2583 11.868 11.8678Z" fill="white"/>
<path d="M11.7822 2.76123L21.6817 12.6608" stroke="#333333" stroke-width="2" stroke-linecap="round"/>
</svg>
