<svg width="24" height="24" viewBox="0 0 24 24" fill="none" xmlns="http://www.w3.org/2000/svg">
<path d="M4.45988 4.35705C4.24761 3.69469 4.73791 3 5.43347 3H18.5667C19.2622 3 19.7525 3.69469 19.5403 4.35705C18.9497 6.19975 18.0001 9.5447 18.0001 12C18.0001 14.4553 18.9497 17.8003 19.5403 19.643C19.7525 20.3053 19.2622 21 18.5667 21H5.43347C4.73791 21 4.24761 20.3053 4.45988 19.643C5.05042 17.8003 6.00007 14.4553 6.00007 12C6.00007 9.5447 5.05042 6.19975 4.45988 4.35705Z" fill="#333333" stroke="#333333" stroke-width="2" stroke-linecap="round" stroke-linejoin="round"/>
<path d="M2 7.5C2.75 8.5 2.99994 10.5 2.99994 12C2.99994 13.5 2.75 15.5 2 16.5" stroke="#333333" stroke-width="2" stroke-linecap="round" stroke-linejoin="round"/>
<path d="M9 7.75H15" stroke="white" stroke-width="2" stroke-linecap="round"/>
<path d="M9 12H15" stroke="white" stroke-width="2" stroke-linecap="round"/>
<path d="M9 16H11" stroke="white" stroke-width="2" stroke-linecap="round"/>
<path d="M22 7.5C21.25 8.5 21 10.5 21 12C21 13.5 21.25 15 22 16.5" stroke="#333333" stroke-width="2" stroke-linecap="round" stroke-linejoin="round"/>
</svg>
