<svg width="24" height="24" viewBox="0 0 24 24" fill="none" xmlns="http://www.w3.org/2000/svg">
<g clip-path="url(#clip0_211_50731)">
<mask id="mask0_211_50731" style="mask-type:luminance" maskUnits="userSpaceOnUse" x="0" y="0" width="24" height="24">
<path d="M24 0H0V24H24V0Z" fill="white"/>
</mask>
<g mask="url(#mask0_211_50731)">
<path d="M3.50007 14.5C3.50007 14.5 3.47826 16.3738 4.22826 18.6238C4.66438 19.9322 5.18507 20.7333 5.83942 21.1256C6.67797 21.6282 7.53792 20.6358 8.02902 19.7904C8.51017 18.9622 9.21682 18.1138 9.77397 17.5" stroke="#333333" stroke-width="2" stroke-linecap="round" stroke-linejoin="round"/>
<path d="M16.5002 3.95569C17.8116 4.17519 19.2659 4.45826 19.8131 4.70928C20.526 5.03634 21.243 5.70274 21.5288 6.41504C21.7943 7.07704 21.1052 7.58504 20.4822 7.93224C19.7798 8.32359 19.0478 8.93709 18.4495 9.49979" stroke="#333333" stroke-width="2" stroke-linecap="round" stroke-linejoin="round"/>
<path d="M12.1011 14.8879L10.8502 15.7567C10.6214 15.9156 10.4419 16.1356 10.3322 16.3916C10.0102 17.1429 9.14177 17.4929 8.38887 17.1747L4.40159 15.4901C3.66541 15.179 3.30904 14.3398 3.59648 13.5941L3.82177 13.0096C4.26166 11.8684 5.06582 10.9043 6.10947 10.2667" stroke="#333333" stroke-width="2" stroke-linecap="round" stroke-linejoin="round"/>
<path d="M15.36 12.2538L16.055 11.5018L16.5111 11.0084C16.6686 10.8379 16.8603 10.7026 17.0737 10.6111C17.8755 10.2675 18.2721 9.35972 17.9795 8.53787L16.5534 4.53289C16.3155 3.86494 15.6155 3.48066 14.9243 3.63863L14.3149 3.7779C12.9876 4.08126 11.8239 4.87488 11.0569 5.99982" stroke="#333333" stroke-width="2" stroke-linecap="round" stroke-linejoin="round"/>
<path d="M6.70553 11.5392C5.88738 10.9548 5.66558 9.8327 6.19678 8.97905C6.97153 7.734 8.02598 6.682 9.27373 5.9116C10.11 5.3953 11.202 5.602 11.7917 6.38825L14.7577 10.3429C15.4369 11.2485 15.2298 12.5368 14.301 13.1839L14.181 13.2675C14.0306 13.3723 13.8952 13.4973 13.7788 13.639L13.4371 14.0551C12.7692 14.8683 11.5854 15.0248 10.7291 14.4132L6.70553 11.5392Z" stroke="#333333" stroke-width="2"/>
</g>
</g>
<defs>
<clipPath id="clip0_211_50731">
<rect width="24" height="24" fill="white"/>
</clipPath>
</defs>
</svg>
