<svg width="24" height="24" viewBox="0 0 24 24" fill="none" xmlns="http://www.w3.org/2000/svg">
<path d="M4.29932 8.57728C4.29932 8.30353 4.52125 8.0816 4.79501 8.0816H16.5383C16.8121 8.0816 17.034 8.30353 17.034 8.57728V15.4285C17.034 18.9451 14.1832 21.7959 10.6666 21.7959C7.15006 21.7959 4.29932 18.9451 4.29932 15.4285V8.57728Z" stroke="#333333" stroke-width="1.95918"/>
<path d="M17.034 11.5102H4.29932V15.4286H17.034V11.5102Z" fill="#333333" stroke="#333333" stroke-width="1.95918" stroke-linecap="round" stroke-linejoin="round"/>
<path d="M10.6667 2.2041V5.14288" stroke="#333333" stroke-width="1.95918" stroke-linecap="round" stroke-linejoin="round"/>
<path d="M6.74829 3.18365V4.16325" stroke="#333333" stroke-width="1.95918" stroke-linecap="round" stroke-linejoin="round"/>
<path d="M14.585 3.18365V4.16325" stroke="#333333" stroke-width="1.95918" stroke-linecap="round" stroke-linejoin="round"/>
<path d="M17.0339 16.898C18.9275 16.898 20.4625 15.363 20.4625 13.4694C20.4625 11.5759 18.9275 10.0408 17.0339 10.0408" stroke="#333333" stroke-width="1.95918" stroke-linecap="round"/>
</svg>
