<svg width="24" height="24" viewBox="0 0 24 24" fill="none" xmlns="http://www.w3.org/2000/svg">
<path fill-rule="evenodd" clip-rule="evenodd" d="M4.30434 18.4933C2.66066 16.6891 1.66071 14.3072 1.66071 11.6956C1.66071 6.06355 6.30895 1.4978 12.0428 1.4978C17.7767 1.4978 22.425 6.06355 22.425 11.6956C22.425 15.678 20.1002 19.1257 16.7117 20.8046C14.6385 21.8854 12.2734 22.4978 9.76265 22.4978C6.6863 22.4978 3.82845 21.5785 1.4585 20.0043C1.4585 20.0043 3.04779 19.831 4.30393 18.4937L4.30434 18.4933ZM16.9199 16.7427C19.6059 14.0568 19.6059 9.70205 16.9199 7.0161C15.6744 5.77065 14.0701 5.1031 12.4397 5.01275C12.3905 3.78953 13.049 2.96304 13.0522 2.95901L13.0515 2.95914L13.052 2.95849C11.1782 3.32046 9.3889 4.22699 7.93795 5.67795C6.8252 6.79065 6.0329 8.1024 5.56055 9.4985C5.6297 9.3154 5.7068 9.1346 5.79185 8.9567C5.69395 9.20635 5.6055 9.46145 5.5255 9.72245C4.73888 12.1104 5.2941 14.8436 7.1932 16.7427C9.8792 19.4287 14.234 19.4287 16.9199 16.7427Z" fill="#333333"/>
<path fill-rule="evenodd" clip-rule="evenodd" d="M8.56494 11.1724V12.0269V12.596C8.56494 13.1641 9.02544 13.6246 9.59359 13.6246C10.1617 13.6246 10.6221 13.1641 10.6221 12.596V12.026V11.1724C10.6221 10.6044 10.1617 10.1438 9.59359 10.1438C9.02544 10.1438 8.56494 10.6044 8.56494 11.1724Z" fill="#333333"/>
<path fill-rule="evenodd" clip-rule="evenodd" d="M13.6562 11.1724V12.0269V12.596C13.6562 13.1641 14.1168 13.6246 14.6848 13.6246C15.2529 13.6246 15.7135 13.1641 15.7135 12.596V12.026V11.1724C15.7135 10.6044 15.2529 10.1438 14.6848 10.1438C14.1168 10.1438 13.6562 10.6044 13.6562 11.1724Z" fill="#333333"/>
</svg>
