<svg width="24" height="24" viewBox="0 0 24 24" fill="none" xmlns="http://www.w3.org/2000/svg">
<path d="M12.1362 3.67346C6.7261 3.67346 2.34033 8.05924 2.34033 13.4694C2.34033 16.0311 3.17957 18.581 4.78931 20.3265H19.4832C21.0929 18.581 21.9322 16.0311 21.9322 13.4694C21.9322 8.05924 17.5464 3.67346 12.1362 3.67346Z" stroke="#333333" stroke-width="1.95918" stroke-linecap="round" stroke-linejoin="round"/>
<path d="M12.1359 16.898C13.218 16.898 14.0951 16.0208 14.0951 14.9388C14.0951 13.8568 13.218 12.9796 12.1359 12.9796C11.0539 12.9796 10.1768 13.8568 10.1768 14.9388C10.1768 16.0208 11.0539 16.898 12.1359 16.898Z" fill="#333333" stroke="#333333" stroke-width="1.95918" stroke-linecap="round" stroke-linejoin="round"/>
<path d="M12.1362 10.0408V12.9796" stroke="#333333" stroke-width="1.95918" stroke-linecap="round" stroke-linejoin="round"/>
<path d="M12.1362 6.12244V7.10203" stroke="#333333" stroke-width="1.95918" stroke-linecap="round" stroke-linejoin="round"/>
<path d="M4.78906 13.9592H5.76864" stroke="#333333" stroke-width="1.95918" stroke-linecap="round" stroke-linejoin="round"/>
<path d="M6.74854 9.06122L7.4412 9.75389" stroke="#333333" stroke-width="1.95918" stroke-linecap="round" stroke-linejoin="round"/>
<path d="M18.5034 13.9592H19.483" stroke="#333333" stroke-width="1.95918" stroke-linecap="round" stroke-linejoin="round"/>
<path d="M17.0342 9.75388L17.7268 9.06116" stroke="#333333" stroke-width="1.95918" stroke-linecap="round" stroke-linejoin="round"/>
</svg>
