<svg width="24" height="24" viewBox="0 0 24 24" fill="none" xmlns="http://www.w3.org/2000/svg">
<path d="M18 13.5C18 17.1082 15.3137 22 12 22C8.6863 22 6 17.1082 6 13.5C6 9.89175 6.75 8 12 8C17.25 8 18 9.89175 18 13.5Z" fill="#333333" stroke="#333333" stroke-width="2"/>
<path d="M18.2621 7.51273C19.2384 6.53642 20.5839 6.29898 21.2673 6.9824C21.9508 7.66582 21.7133 9.01129 20.737 9.9876C19.7607 10.9639 18.4152 11.2014 17.7318 10.5179C17.0484 9.83452 17.2858 8.48904 18.2621 7.51273Z" fill="#333333" stroke="#333333" stroke-width="2"/>
<path d="M3.26262 9.98727C4.23893 10.9636 5.58441 11.201 6.26782 10.5176C6.95124 9.83418 6.7138 8.48871 5.73749 7.5124C4.76118 6.53609 3.41571 6.29865 2.73229 6.98207C2.04887 7.66548 2.28631 9.01096 3.26262 9.98727Z" fill="#333333" stroke="#333333" stroke-width="2"/>
<path d="M6 2C6 5.3137 8.6863 8 12 8C15.3137 8 18 5.3137 18 2" stroke="#333333" stroke-width="2" stroke-linecap="round"/>
<path d="M9 3.5C9 5.9853 10.3432 8 12 8C13.6568 8 15 5.9853 15 3.5" stroke="#333333" stroke-width="2" stroke-linecap="round"/>
<path d="M9.99951 14C10.5518 14 10.9995 13.5523 10.9995 13C10.9995 12.4477 10.5518 12 9.99951 12C9.44723 12 8.99951 12.4477 8.99951 13C8.99951 13.5523 9.44723 14 9.99951 14Z" fill="white"/>
<path d="M11.9995 18C12.5518 18 12.9995 17.5523 12.9995 17C12.9995 16.4477 12.5518 16 11.9995 16C11.4472 16 10.9995 16.4477 10.9995 17C10.9995 17.5523 11.4472 18 11.9995 18Z" fill="white"/>
<path d="M13.9995 14C14.5518 14 14.9995 13.5523 14.9995 13C14.9995 12.4477 14.5518 12 13.9995 12C13.4472 12 12.9995 12.4477 12.9995 13C12.9995 13.5523 13.4472 14 13.9995 14Z" fill="white"/>
</svg>
