<svg width="24" height="24" viewBox="0 0 24 24" fill="none" xmlns="http://www.w3.org/2000/svg">
<g clip-path="url(#clip0_211_51379)">
<mask id="mask0_211_51379" style="mask-type:luminance" maskUnits="userSpaceOnUse" x="0" y="0" width="24" height="24">
<path d="M24 0H0V24H24V0Z" fill="white"/>
</mask>
<g mask="url(#mask0_211_51379)">
<path d="M19.5002 3H4.50024C3.67182 3 3.00024 3.67157 3.00024 4.5V19.5C3.00024 20.3284 3.67182 21 4.50024 21H19.5002C20.3287 21 21.0002 20.3284 21.0002 19.5V4.5C21.0002 3.67157 20.3287 3 19.5002 3Z" fill="#333333" stroke="#333333" stroke-width="2"/>
<path d="M11.6464 5.28242L10.0251 6.90372C9.71014 7.21872 9.93324 7.75727 10.3787 7.75727H13.6213C14.0668 7.75727 14.2898 7.21872 13.9749 6.90372L12.3535 5.28242C12.1583 5.08717 11.8417 5.08717 11.6464 5.28242Z" fill="white"/>
<path d="M5.28242 12.3535L6.90372 13.9748C7.21872 14.2898 7.75727 14.0667 7.75727 13.6213V10.3786C7.75727 9.93316 7.21872 9.71011 6.90372 10.0251L5.28242 11.6464C5.08717 11.8417 5.08717 12.1583 5.28242 12.3535Z" fill="white"/>
<path d="M12.3536 18.7175L13.9749 17.0962C14.2899 16.7812 14.0668 16.2427 13.6213 16.2427H10.3787C9.93322 16.2427 9.71017 16.7812 10.0251 17.0962L11.6465 18.7175C11.8417 18.9128 12.1583 18.9128 12.3536 18.7175Z" fill="white"/>
<path d="M18.7175 11.6465L17.0962 10.0252C16.7812 9.7102 16.2427 9.9333 16.2427 10.3788V13.6214C16.2427 14.0669 16.7812 14.2899 17.0962 13.975L18.7175 12.3536C18.9128 12.1584 18.9128 11.8418 18.7175 11.6465Z" fill="white"/>
</g>
</g>
<defs>
<clipPath id="clip0_211_51379">
<rect width="24" height="24" fill="white"/>
</clipPath>
</defs>
</svg>
