<svg width="24" height="24" viewBox="0 0 24 24" fill="none" xmlns="http://www.w3.org/2000/svg">
<path d="M11.5 4.49951H5.5C4.67158 4.49951 4 5.1711 4 5.9995V16.4995H20V12.9995" stroke="#333333" stroke-width="2" stroke-linecap="round" stroke-linejoin="round"/>
<path d="M2 16.4995H22V17.4995C22 19.1564 20.6569 20.4995 19 20.4995H5C3.34315 20.4995 2 19.1564 2 17.4995V16.4995Z" fill="#333333" stroke="#333333" stroke-width="2" stroke-linejoin="round"/>
<path d="M18 9.5C19.6569 9.5 21 8.15685 21 6.5C21 4.84315 19.6569 3.5 18 3.5C16.3431 3.5 15 4.84315 15 6.5C15 8.15685 16.3431 9.5 18 9.5Z" stroke="#333333" stroke-width="2"/>
<path d="M16 4.5L20 8.5" stroke="#333333" stroke-width="2" stroke-linecap="round" stroke-linejoin="round"/>
</svg>
