<svg width="24" height="24" viewBox="0 0 24 24" fill="none" xmlns="http://www.w3.org/2000/svg">
<path d="M8.5 12H7.045C4.26 12 2 9.76015 2 7C2 4.23984 4.26 2 7.045 2L10 4.5L12.955 2C15.74 2 18 4.23984 18 7C18 9.76015 15.74 12 12.955 12H11.5" stroke="#333333" stroke-width="2" stroke-miterlimit="2" stroke-linecap="round" stroke-linejoin="round"/>
<path d="M13 18H7V22H13V18Z" fill="#333333" stroke="#333333" stroke-width="2" stroke-miterlimit="2" stroke-linecap="round" stroke-linejoin="round"/>
<path d="M13 20H18C20.21 20 22 18.21 22 16V7H18" stroke="#333333" stroke-width="2" stroke-miterlimit="2" stroke-linecap="round" stroke-linejoin="round"/>
<path d="M10.6099 15H9.99987H9.38987C8.65987 15 8.10487 14.345 8.22487 13.63L8.83487 9.985C8.92987 9.415 9.41987 9 9.99987 9C10.5749 9 11.0699 9.415 11.1649 9.985L11.7749 13.63C11.8899 14.345 11.3349 15 10.6099 15Z" fill="#333333" stroke="#333333" stroke-width="2" stroke-miterlimit="2" stroke-linecap="round" stroke-linejoin="round"/>
</svg>
