<svg width="24" height="24" viewBox="0 0 24 24" fill="none" xmlns="http://www.w3.org/2000/svg">
<path d="M6 3.99979C4.47387 6.25852 3.00654 6.90452 2 6.49957C2.27137 7.41662 4.22128 8.68772 5.4637 9.41897C5.9989 9.73392 6.15475 10.4514 5.78245 10.9485C5.10105 11.8582 4.15782 13.1445 4 13.5C0.477135 19.8943 8.241 22.3239 12 22C23.0718 21.0459 22.6775 12.4013 21 9.00002C16.9739 15.997 10.7593 11.9577 11 10.5C11.2407 9.04227 12.8961 9.33232 13.5 6.99997C14.5065 2.38388 8.18685 0.199439 6 3.99979Z" fill="#333333" stroke="#333333" stroke-width="2" stroke-linecap="round" stroke-linejoin="round"/>
<path d="M9.5 15.5C10.75 17.25 14.5 19 17.5 16.5" stroke="white" stroke-width="2" stroke-linecap="round" stroke-linejoin="round"/>
<path d="M8.5 7C9.05228 7 9.5 6.55228 9.5 6C9.5 5.44772 9.05228 5 8.5 5C7.94772 5 7.5 5.44772 7.5 6C7.5 6.55228 7.94772 7 8.5 7Z" fill="white"/>
</svg>
