<svg width="24" height="24" viewBox="0 0 24 24" fill="none" xmlns="http://www.w3.org/2000/svg">
<path d="M2.99984 11.5004C0.980189 7.97839 4.81191 5.93185 6.99985 5.5002C14.2705 -0.922175 20.2425 5.3566 20.9999 9.5C21.7573 13.6434 21.5791 16.9465 21.9998 18.5004C18.7684 14.1497 16.5612 14.9207 15.9998 16.0004C14.99 18.0721 13.3431 18.1259 12.4998 17.5004C10.4802 15.843 7.2621 19.1011 5.99985 21.0002C8.4235 16.6496 8.75235 13.8636 8.49985 13.0004C7.49 8.85689 4.3463 10.2918 2.99984 11.5004Z" fill="#333333" stroke="#333333" stroke-width="2" stroke-linecap="round" stroke-linejoin="round"/>
<path d="M11.5 9C12.0523 9 12.5 8.55228 12.5 8C12.5 7.44772 12.0523 7 11.5 7C10.9477 7 10.5 7.44772 10.5 8C10.5 8.55228 10.9477 9 11.5 9Z" fill="white"/>
</svg>
