<svg width="24" height="24" viewBox="0 0 24 24" fill="none" xmlns="http://www.w3.org/2000/svg">
<path d="M16.5 2.49988H20.5C21.0523 2.49988 21.5 2.94759 21.5 3.49988V7.4999M21.5 16.4999V20.4999C21.5 21.0521 21.0523 21.4999 20.5 21.4999H16.5M7.5 21.4999H3.5C2.94771 21.4999 2.5 21.0521 2.5 20.4999V16.4999M2.5 7.4999V3.49988C2.5 2.94759 2.94771 2.49988 3.5 2.49988H7.5" stroke="#333333" stroke-width="2" stroke-linecap="round" stroke-linejoin="round"/>
<path d="M12 19C15.3137 19 18 15.866 18 12C18 8.134 15.3137 5 12 5C8.6863 5 6 8.134 6 12C6 15.866 8.6863 19 12 19Z" stroke="#333333" stroke-width="2"/>
<path d="M3 12H21" stroke="#333333" stroke-width="2" stroke-linecap="round"/>
<path d="M10.0347 15.0529C10.6686 15.5215 11.3237 15.7558 11.9998 15.7558C12.676 15.7558 13.349 15.5215 14.0189 15.0529" stroke="#333333" stroke-width="2" stroke-linecap="round"/>
</svg>
