<svg width="24" height="24" viewBox="0 0 24 24" fill="none" xmlns="http://www.w3.org/2000/svg">
<path d="M11.571 7.92896L5.91416 13.5858C5.13311 14.3669 5.13311 15.6332 5.91416 16.4142L10.8639 21.364C11.645 22.145 12.9113 22.145 13.6924 21.364L18.6421 16.4142C19.4232 15.6332 19.4232 14.3669 18.6421 13.5858L12.9853 7.92896C12.5947 7.53841 11.9616 7.53841 11.571 7.92896Z" fill="#333333" stroke="#333333" stroke-width="2" stroke-linecap="round" stroke-linejoin="round"/>
<path d="M12.5 6.9197C12.5 6.9197 14.7772 4.36514 15.6864 3.28697C16.5957 2.20879 17.5703 2.34792 18.3826 3.04898C19.195 3.75004 19.2166 4.85709 18.3826 5.8875C17.5486 6.9179 15.2782 9.50025 15.2782 9.50025" stroke="#333333" stroke-width="2" stroke-linecap="round" stroke-linejoin="round"/>
<path d="M12.5 6.91945C12.5 6.91945 10.2229 4.3649 9.31361 3.28672C8.40436 2.20855 7.42976 2.34767 6.61741 3.04873C5.80506 3.74979 5.78341 4.85684 6.61741 5.88725C7.45141 6.91765 9.72176 9.5 9.72176 9.5" stroke="#333333" stroke-width="2" stroke-linecap="round" stroke-linejoin="round"/>
</svg>
