<svg width="24" height="24" viewBox="0 0 24 24" fill="none" xmlns="http://www.w3.org/2000/svg">
<path fill-rule="evenodd" clip-rule="evenodd" d="M3.92675 12.0603C2.59695 10.4509 1.58821 8.56198 1 6.49408C2.18448 8.09988 3.6229 9.50328 5.2558 10.6441C7.9667 8.09888 11.6012 6.54163 15.5965 6.54023C18.2163 6.54063 20.5448 7.77433 22.0474 9.69603C22.1322 9.79708 22.2107 9.90258 22.2831 10.0125C22.6189 10.5178 22.8338 11.1112 22.8865 11.7517C22.2659 11.4777 21.6296 11.2385 20.978 11.0355C19.4307 10.5526 17.7955 10.273 16.1017 10.227C15.9233 10.2219 15.7633 10.2198 15.6027 10.2198C13.7281 10.2198 11.9225 10.5051 10.2228 11.0351C9.42485 11.2839 8.6502 11.5865 7.90335 11.9391C7.81925 11.9786 7.73575 12.0189 7.65215 12.0598C7.73615 12.1006 7.8209 12.1415 7.90585 12.1814C8.6516 12.5329 9.42525 12.8355 10.2222 13.0838C11.9225 13.6138 13.7292 13.8996 15.6017 13.8996C15.7627 13.8996 15.9233 13.8976 16.0835 13.8931C17.7958 13.8465 19.4312 13.5669 20.9785 13.0851C21.6299 12.8816 22.2654 12.6428 22.8834 12.3699C22.8338 13.0073 22.6189 13.6002 22.2845 14.104C22.2095 14.2176 22.128 14.3264 22.0415 14.4306C20.5398 16.3492 18.2133 17.5803 15.6017 17.5809C11.6007 17.5794 7.9652 16.0217 5.25415 13.4758C3.62227 14.6161 2.18448 16.0195 1.00063 17.6248C1.58922 15.5575 2.59745 13.669 3.92675 12.0603Z" fill="#333333"/>
<path fill-rule="evenodd" clip-rule="evenodd" d="M16.2988 13.6911C17.0636 13.4588 17.6276 13.0696 17.6276 12.1219C17.6276 11.1737 17.0636 10.6407 16.2983 10.408C16.2929 10.4065 16.2873 10.4048 16.2824 10.403C16.1402 10.3615 15.9915 10.3392 15.8384 10.3392C15.996 10.3392 16.1531 10.3416 16.3098 10.3467C16.3098 10.3467 16.3222 10.3467 16.3282 10.3473C17.9907 10.3985 19.5706 10.7159 21.1145 11.2117C21.7541 11.4375 22.2805 11.602 22.8867 11.9047C22.8867 12.0235 22.8867 11.9877 22.8867 12.103C22.8867 12.2191 22.8867 12.1565 22.8728 12.2735C22.2112 12.5502 21.7544 12.7109 21.115 12.9372C19.578 13.3694 17.991 13.7009 16.3292 13.752C16.3227 13.7527 16.3162 13.7527 16.3103 13.7527C16.1531 13.7578 15.9955 13.76 15.8374 13.76C15.9911 13.76 16.1402 13.7376 16.2829 13.6963C16.2879 13.6946 16.2934 13.6929 16.2988 13.6911Z" fill="#333333"/>
</svg>
