<svg width="24" height="24" viewBox="0 0 24 24" fill="none" xmlns="http://www.w3.org/2000/svg">
<path d="M7.49991 7.19241C9.56261 8.00011 12.0041 8.00011 12.0041 8.00011C12.0041 8.00011 14.4399 8.00011 16.4999 7.19241C18.7508 9.81931 20.3281 13.2823 21.3648 16.1989C22.4143 19.1515 20.1002 22.0001 16.9666 22.0001H7.00976C3.88399 22.0001 1.57284 19.1645 2.61705 16.2183C3.64887 13.307 5.22731 9.84281 7.49991 7.19241Z" fill="#333333" stroke="#333333" stroke-width="2" stroke-linejoin="round"/>
<path d="M9 14H15" stroke="white" stroke-width="2" stroke-linecap="round" stroke-linejoin="round"/>
<path d="M9 17H15" stroke="white" stroke-width="2" stroke-linecap="round" stroke-linejoin="round"/>
<path d="M12.0044 14V19" stroke="white" stroke-width="2" stroke-linecap="round" stroke-linejoin="round"/>
<path d="M15 11L12 14L9 11" stroke="white" stroke-width="2" stroke-linecap="round" stroke-linejoin="round"/>
<path fill-rule="evenodd" clip-rule="evenodd" d="M12 8C15.5898 8 18.5 6.65685 18.5 5C18.5 3.34315 15.5898 2 12 2C8.41015 2 5.5 3.34315 5.5 5C5.5 6.65685 8.41015 8 12 8Z" stroke="#333333" stroke-width="2" stroke-linecap="round" stroke-linejoin="round"/>
</svg>
