<svg width="24" height="24" viewBox="0 0 24 24" fill="none" xmlns="http://www.w3.org/2000/svg">
<path d="M12.3399 10.0184C11.7827 9.86915 10.1328 9.33975 7.58517 11.0462C6.06962 12.0613 5.43222 13.6199 5.21727 14.7649C5.11507 15.3093 5.57732 15.7483 6.12727 15.6832C6.52527 15.636 6.96697 15.5624 7.30117 15.4494C8.28637 15.1161 8.15702 14.4843 8.65962 13.7231C9.16222 12.9618 10.426 12.7032 11.4658 13.2804C12.5057 13.8577 12.8389 14.8429 12.615 15.6788C12.391 16.5146 11.8884 17.2758 10.6246 17.5344C9.36082 17.7931 8.95287 17.0865 7.63447 16.4346C6.94742 16.0949 6.05127 16.5354 5.50997 16.8839C5.20347 17.0811 5.07647 17.4538 5.20512 17.7948C5.29247 18.0264 5.41267 18.2973 5.56942 18.5689C5.97737 19.2754 7.75837 21.5444 10.062 21.8631C12.3656 22.1817 14.7639 21.0326 16.1224 19.3062C17.4808 17.5798 17.5208 15.2015 16.5757 13.1565" stroke="#333333" stroke-width="2" stroke-linecap="round" stroke-linejoin="round"/>
<path d="M16.5226 13.2099L14.1383 2.07788C14.0848 1.82822 13.8503 1.65525 13.6035 1.72047C13.0227 1.87393 12.2854 2.25909 12.2507 3.15509C12.206 4.30802 12.433 13.1744 12.7363 14.7835" stroke="#333333" stroke-width="2" stroke-linecap="round" stroke-linejoin="round"/>
</svg>
