<svg width="24" height="24" viewBox="0 0 24 24" fill="none" xmlns="http://www.w3.org/2000/svg">
<path d="M12.9999 10.5C11.9999 10.25 10.6232 9.68109 8.58514 11.0462C7.06964 12.0613 6.43224 13.6199 6.21724 14.765C6.11509 15.3094 6.57729 15.7484 7.12729 15.6832C7.52524 15.636 7.96699 15.5625 8.30119 15.4495C9.28634 15.1162 9.15704 14.4843 9.65964 13.7231C10.1622 12.9619 11.426 12.7033 12.4658 13.2805C13.5056 13.8577 13.8389 14.8429 13.6149 15.6788C13.391 16.5146 12.8884 17.2759 11.6246 17.5345C10.3608 17.7931 9.95288 17.0865 8.63443 16.4346C7.94738 16.0949 7.05129 16.5354 6.50999 16.8839C6.20349 17.0812 6.07649 17.4538 6.20509 17.7948C6.29244 18.0264 6.41264 18.2974 6.56944 18.5689C6.97734 19.2755 8.75839 21.5445 11.062 21.8631C13.3656 22.1817 15.7639 21.0326 17.1224 19.3062C18.4808 17.5798 18.5208 15.2016 17.5757 13.1565" stroke="#333333" stroke-width="2" stroke-linecap="round" stroke-linejoin="round"/>
<path d="M17.523 13.2099L16.0003 6.99999L11.3539 2.3536C11.1587 2.15832 10.8441 2.16159 10.6866 2.38849C10.3103 2.93092 9.81086 3.96546 10.5004 4.99999C10.744 5.36554 12.5008 7.49999 12.5008 7.49999C12.5008 7.49999 13.5489 13.7871 13.7367 14.7836" stroke="#333333" stroke-width="2" stroke-linecap="round" stroke-linejoin="round"/>
</svg>
