<svg width="24" height="24" viewBox="0 0 24 24" fill="none" xmlns="http://www.w3.org/2000/svg">
<path d="M2.5 3C2.5 2.72386 2.72386 2.5 3 2.5H8C8.27615 2.5 8.5 2.72386 8.5 3V21C8.5 21.2761 8.27615 21.5 8 21.5H3C2.72386 21.5 2.5 21.2761 2.5 21V3Z" fill="#333333" stroke="#333333" stroke-width="2" stroke-linejoin="round"/>
<path d="M5.5 18.4999C6.05228 18.4999 6.5 18.0522 6.5 17.4999C6.5 16.9477 6.05228 16.4999 5.5 16.4999C4.94772 16.4999 4.5 16.9477 4.5 17.4999C4.5 18.0522 4.94772 18.4999 5.5 18.4999Z" fill="white"/>
<path d="M5.5 5.49994V12.4999" stroke="white" stroke-width="2" stroke-linecap="round" stroke-linejoin="round"/>
<path d="M11.9887 4.87782L17.0186 3.62036C17.285 3.55374 17.5553 3.71454 17.624 3.98049L21.3741 18.5122C21.4435 18.781 21.2805 19.0549 21.0112 19.1222L15.9814 20.3797C15.7149 20.4463 15.4446 20.2855 15.376 20.0195L11.6259 5.48781C11.5565 5.21901 11.7194 4.94515 11.9887 4.87782Z" fill="#333333" stroke="#333333" stroke-width="2" stroke-linecap="round" stroke-linejoin="round"/>
<path d="M17.5 17C18.0523 17 18.5 16.5523 18.5 16C18.5 15.4477 18.0523 15 17.5 15C16.9477 15 16.5 15.4477 16.5 16C16.5 16.5523 16.9477 17 17.5 17Z" fill="white"/>
<path d="M15.5 8L16.75 13" stroke="white" stroke-width="2" stroke-linecap="round" stroke-linejoin="round"/>
</svg>
