<svg width="24" height="24" viewBox="0 0 24 24" fill="none" xmlns="http://www.w3.org/2000/svg">
<path d="M12 12L9.5 9.5M12 12V4M12 12L14.5 9.5" stroke="#333333" stroke-width="2" stroke-linecap="round" stroke-linejoin="round"/>
<path d="M12 12L9.5 14.5M12 12V20M12 12L14.5 14.5" stroke="#333333" stroke-width="2" stroke-linecap="round" stroke-linejoin="round"/>
<path d="M10 6C11.1045 6 12 5.10455 12 4C12 2.89543 11.1045 2 10 2C8.89545 2 8 2.89543 8 4C8 5.10455 8.89545 6 10 6Z" fill="#333333" stroke="#333333" stroke-width="2" stroke-linecap="round" stroke-linejoin="round"/>
<path d="M4 16C5.10455 16 6 15.1045 6 14C6 12.8954 5.10455 12 4 12C2.89543 12 2 12.8954 2 14C2 15.1045 2.89543 16 4 16Z" fill="#333333" stroke="#333333" stroke-width="2" stroke-linecap="round" stroke-linejoin="round"/>
<path d="M4 12H20" stroke="#333333" stroke-width="2" stroke-linecap="round" stroke-linejoin="round"/>
<path d="M20 12C21.1045 12 22 11.1045 22 10C22 8.89545 21.1045 8 20 8C18.8954 8 18 8.89545 18 10C18 11.1045 18.8954 12 20 12Z" fill="#333333" stroke="#333333" stroke-width="2" stroke-linecap="round" stroke-linejoin="round"/>
<path d="M14 22C15.1045 22 16 21.1045 16 20C16 18.8954 15.1045 18 14 18C12.8954 18 12 18.8954 12 20C12 21.1045 12.8954 22 14 22Z" fill="#333333" stroke="#333333" stroke-width="2" stroke-linecap="round" stroke-linejoin="round"/>
</svg>
