<svg width="24" height="24" viewBox="0 0 24 24" fill="none" xmlns="http://www.w3.org/2000/svg">
<path d="M6.5 20L4 12.75L3.02078 7.85389C3.00696 7.78479 3 7.71449 3 7.64404V7.56359C3 6.87849 3.89119 6.61299 4.26613 7.18644C4.2938 7.22874 4.31833 7.27304 4.33952 7.31894L6.30535 11.5783C6.4151 11.816 6.6897 11.9288 6.9349 11.8369L7 11.8125L6.06455 4.97211C6.0232 4.66962 6.10275 4.36302 6.2859 4.11877C6.5422 3.77703 7.02705 3.70777 7.3688 3.96408L7.43535 4.014C7.6404 4.1678 7.7948 4.37943 7.87865 4.62167L9.9345 10.5608C9.9737 10.674 10.0803 10.75 10.2001 10.75C10.3625 10.75 10.4911 10.6128 10.4807 10.4508L10.0393 3.60863C10.0143 3.22175 10.1571 2.84285 10.4312 2.56872C10.755 2.24494 11.2705 2.21639 11.628 2.50243L11.7983 2.63862C12.089 2.87118 12.2829 3.20354 12.3421 3.57108L13.4614 10.5111C13.4836 10.6488 13.6025 10.75 13.742 10.75C13.8883 10.75 14.0107 10.6388 14.0248 10.4932L14.6889 3.63086C14.728 3.22754 14.9285 2.85717 15.245 2.60404L15.3482 2.52145C15.7193 2.22458 16.2542 2.25421 16.5903 2.59024C16.8526 2.8526 17 3.20843 17 3.57945V9.95564C17 9.98514 17.0025 10.0142 17.0088 10.043C17.0646 10.3001 17.4037 11.6345 18.5 12C18.9537 12.1512 19.6819 13.4004 20.1864 14.3637C20.5565 15.0703 20.521 15.9121 20.1336 16.6094L18.25 20C18.25 20 16.5 22 12.5 22C8.5 22 6.83335 20.6666 6.5 20Z" fill="#333333" stroke="#333333" stroke-width="2" stroke-linecap="round" stroke-linejoin="round"/>
</svg>
