<svg width="24" height="24" viewBox="0 0 24 24" fill="none" xmlns="http://www.w3.org/2000/svg">
<path d="M5 8C6.65685 8 8 6.65685 8 5C8 3.34315 6.65685 2 5 2C3.34315 2 2 3.34315 2 5C2 6.65685 3.34315 8 5 8Z" fill="#333333" stroke="#333333" stroke-width="2" stroke-linecap="round" stroke-linejoin="round"/>
<path d="M3.1417 7.35544C2.71041 8.17629 2.38987 9.06444 2.19995 10" stroke="#333333" stroke-width="2" stroke-linecap="round" stroke-linejoin="round"/>
<path d="M7.35547 3.1417C8.17637 2.7104 9.06452 2.38987 10.0001 2.19995" stroke="#333333" stroke-width="2" stroke-linecap="round" stroke-linejoin="round"/>
<path d="M19 8C20.6568 8 22 6.65685 22 5C22 3.34315 20.6568 2 19 2C17.3432 2 16 3.34315 16 5C16 6.65685 17.3432 8 19 8Z" fill="#333333" stroke="#333333" stroke-width="2" stroke-linecap="round" stroke-linejoin="round"/>
<path d="M16.6446 3.1417C15.8237 2.7104 14.9356 2.38987 14 2.19995" stroke="#333333" stroke-width="2" stroke-linecap="round" stroke-linejoin="round"/>
<path d="M20.8582 7.35544C21.2895 8.17629 21.61 9.06444 21.7999 10" stroke="#333333" stroke-width="2" stroke-linecap="round" stroke-linejoin="round"/>
<path d="M19 22C20.6568 22 22 20.6568 22 19C22 17.3432 20.6568 16 19 16C17.3432 16 16 17.3432 16 19C16 20.6568 17.3432 22 19 22Z" fill="#333333" stroke="#333333" stroke-width="2" stroke-linecap="round" stroke-linejoin="round"/>
<path d="M20.8582 16.6446C21.2895 15.8237 21.61 14.9356 21.7999 14" stroke="#333333" stroke-width="2" stroke-linecap="round" stroke-linejoin="round"/>
<path d="M16.6446 20.8582C15.8237 21.2895 14.9356 21.61 14 21.7999" stroke="#333333" stroke-width="2" stroke-linecap="round" stroke-linejoin="round"/>
<path d="M5 22C6.65685 22 8 20.6568 8 19C8 17.3432 6.65685 16 5 16C3.34315 16 2 17.3432 2 19C2 20.6568 3.34315 22 5 22Z" fill="#333333" stroke="#333333" stroke-width="2" stroke-linecap="round" stroke-linejoin="round"/>
<path d="M7.35547 20.8582C8.17637 21.2895 9.06452 21.61 10.0001 21.7999" stroke="#333333" stroke-width="2" stroke-linecap="round" stroke-linejoin="round"/>
<path d="M3.1417 16.6446C2.71041 15.8237 2.38987 14.9356 2.19995 14" stroke="#333333" stroke-width="2" stroke-linecap="round" stroke-linejoin="round"/>
<path d="M12 15V9M9 12H15" stroke="#333333" stroke-width="2" stroke-linecap="round" stroke-linejoin="round"/>
</svg>
