<svg width="24" height="24" viewBox="0 0 24 24" fill="none" xmlns="http://www.w3.org/2000/svg">
<path d="M11.5244 4.89428C12.3373 4.67647 13.1701 5.14856 13.3845 5.94876C13.5989 6.74896 13.1137 7.57426 12.3008 7.79206C11.4879 8.00986 3.354 8.50001 3.354 8.50001C3.354 8.50001 10.7115 5.11211 11.5244 4.89428Z" fill="#333333" stroke="#333333" stroke-width="2" stroke-linejoin="round"/>
<path d="M11.5534 19.2234C12.3663 19.4412 13.1991 18.9691 13.4135 18.1689C13.6279 17.3687 13.1428 16.5434 12.3299 16.3256C11.517 16.1078 3.38306 15.502 3.38306 15.502C3.38306 15.502 10.7405 19.0055 11.5534 19.2234Z" fill="#333333" stroke="#333333" stroke-width="2" stroke-linejoin="round"/>
<path d="M16.9998 8.00195C17.4559 7.39475 18.1821 7.00195 19 7.00195C20.3807 7.00195 21.5 8.12125 21.5 9.50195C21.5 10.8827 20.3807 12.002 19 12.002H8" stroke="#333333" stroke-width="2" stroke-linecap="round"/>
</svg>
