<svg width="24" height="24" viewBox="0 0 24 24" fill="none" xmlns="http://www.w3.org/2000/svg">
<path d="M11.5 2.5C10.9269 4.73011 10.9269 6.38635 11.5 7.46875C12.3595 9.09235 14.35 9.9902 11.7871 12.1558C9.2241 14.3214 6.6256 12.5042 5.02125 12.5042C3.41694 12.5042 2.01123 14.3107 2.01123 17C2.01123 18.7929 2.3408 20.2929 2.99993 21.5" stroke="#333333" stroke-width="2" stroke-linecap="round" stroke-linejoin="round"/>
<path d="M14.9921 2.5C14.2714 5.1645 14.4355 6.85435 15.4847 7.56965C17.0584 8.64255 17.179 6.4018 20.0705 7.73495C22.962 9.06815 22.2102 13.7155 20.547 16.1078C18.8838 18.5 15.3337 20.9173 12.0042 20.5C8.67464 20.0827 7.43664 16.01 7.00804 16.01C6.57949 16.01 5.67394 16.0227 5.49714 17.7086C5.37924 18.8324 5.71434 20.0963 6.50239 21.5" stroke="#333333" stroke-width="2" stroke-linecap="round" stroke-linejoin="round"/>
<path d="M17.8224 14.145C17.5333 15.0009 17.045 15.6692 16.3574 16.15C15.6699 16.6307 14.7971 16.9141 13.7393 17.0001" stroke="#333333" stroke-width="2" stroke-linecap="round"/>
</svg>
