<svg width="24" height="24" viewBox="0 0 24 24" fill="none" xmlns="http://www.w3.org/2000/svg">
<path d="M5.5373 18.5396C3.84432 19.2705 3.01806 20.2621 2.68247 20.9547C2.54962 21.2289 2.77305 21.5 3.07773 21.5H13.6933C14.0644 21.5 14.2993 21.1118 14.083 20.8102C13.2084 19.591 11.8909 18.8213 11.1944 18.5341C11.1378 18.5108 11.0774 18.5 11.0162 18.5H5.7308C5.6646 18.5 5.59815 18.5134 5.5373 18.5396Z" fill="#333333" stroke="#333333" stroke-width="2" stroke-linecap="round" stroke-linejoin="round"/>
<path d="M9.86597 5.09807L7.36597 9.42819L11.6961 11.9282L14.1961 7.59807L9.86597 5.09807Z" fill="#333333" stroke="#333333" stroke-width="2" stroke-linejoin="round"/>
<path d="M13.696 8.46384L14.196 7.59784C13.7177 7.32169 13.1061 7.48554 12.8299 7.96384L13.696 8.46384ZM12.196 11.0619L11.3299 10.5619C11.0538 11.0402 11.2177 11.6518 11.696 11.9279L12.196 11.0619ZM13.196 9.32989L19.6912 13.0799L20.6912 11.3478L14.196 7.59784L13.196 9.32989ZM19.1912 13.9459L12.696 10.1959L11.696 11.9279L18.1912 15.6779L19.1912 13.9459ZM13.062 11.5619L14.562 8.96384L12.8299 7.96384L11.3299 10.5619L13.062 11.5619ZM19.8742 13.7629C19.7361 14.002 19.4303 14.084 19.1912 13.9459L18.1912 15.6779C19.3869 16.3683 20.9159 15.9586 21.6062 14.7629L19.8742 13.7629ZM19.6912 13.0799C19.9303 13.2179 20.0122 13.5237 19.8742 13.7629L21.6062 14.7629C22.2966 13.5671 21.8869 12.0382 20.6912 11.3478L19.6912 13.0799Z" fill="#333333"/>
<path d="M15.2631 4.75L11.799 2.75C11.0816 2.33579 10.1642 2.5816 9.75 3.29904C9.33579 4.01648 9.5816 4.93386 10.299 5.34808L13.7631 7.34808C14.4806 7.76229 15.398 7.51648 15.8122 6.79904C16.2264 6.0816 15.9806 5.16421 15.2631 4.75Z" fill="#333333" stroke="#333333" stroke-width="2" stroke-linejoin="round"/>
<path d="M11.2631 11.6782L7.79904 9.67819C7.0816 9.26398 6.16421 9.50979 5.75 10.2272C5.33579 10.9447 5.5816 11.8621 6.29904 12.2763L9.76314 14.2763C10.4806 14.6905 11.398 14.4447 11.8122 13.7272C12.2264 13.0098 11.9806 12.0924 11.2631 11.6782Z" fill="#333333" stroke="#333333" stroke-width="2" stroke-linejoin="round"/>
</svg>
