<svg width="24" height="24" viewBox="0 0 24 24" fill="none" xmlns="http://www.w3.org/2000/svg">
<g clip-path="url(#clip0_211_53819)">
<mask id="mask0_211_53819" style="mask-type:luminance" maskUnits="userSpaceOnUse" x="0" y="0" width="24" height="24">
<path d="M24 0H0V24H24V0Z" fill="white"/>
</mask>
<g mask="url(#mask0_211_53819)">
<path d="M20.6778 17.0763L14.7612 4.38805C14.0609 2.88643 12.276 2.23676 10.7744 2.93698C9.27276 3.63719 8.62306 5.42215 9.32331 6.92375L15.24 19.612C15.9402 21.1137 17.7251 21.7633 19.2267 21.0631C20.7284 20.3629 21.378 18.578 20.6778 17.0763Z" fill="#333333" stroke="#333333" stroke-width="2"/>
<path d="M11.719 13.2678L8.76067 19.612C8.06042 21.1136 6.27552 21.7633 4.77388 21.0631C3.27226 20.3629 2.62259 18.5779 3.32281 17.0763L9.18722 4.5" stroke="#333333" stroke-width="2" stroke-linecap="round"/>
<path d="M4.77355 21.063C6.27517 21.7632 8.06011 21.1136 8.76032 19.612C9.46054 18.1103 8.81088 16.3254 7.30926 15.6252C5.80764 14.925 4.02269 15.5746 3.32248 17.0763C2.62226 18.5779 3.27193 20.3628 4.77355 21.063Z" fill="#333333" stroke="#333333" stroke-width="2"/>
</g>
</g>
<defs>
<clipPath id="clip0_211_53819">
<rect width="24" height="24" fill="white"/>
</clipPath>
</defs>
</svg>
