<svg width="24" height="24" viewBox="0 0 24 24" fill="none" xmlns="http://www.w3.org/2000/svg">
<path d="M4.79176 13.5912C3.93384 14.1771 3.50488 15.1467 3.50488 16.5001C3.50488 18.5301 6.00029 22.0001 8.25054 22.0001C10.5007 22.0001 11.8058 22.0001 14.0082 22.0001C16.2107 22.0001 17.5485 20.0748 17.5485 18.5301C17.5485 16.4535 17.5485 14.3768 17.5485 12.3001C17.5485 11.4036 16.823 10.6761 15.9265 10.6736C15.0332 10.6711 14.307 11.3933 14.3045 12.2866C14.3045 12.2881 14.3045 12.2896 14.3045 12.2911V12.3418" stroke="#333333" stroke-width="2" stroke-linecap="round"/>
<path d="M5.49072 14.7227V3.83123C5.49072 2.94284 6.21092 2.22266 7.09932 2.22266C7.98772 2.22266 8.70787 2.94284 8.70787 3.83123V11.824" stroke="#333333" stroke-width="2" stroke-linecap="round"/>
<path d="M8.70752 12V9.90379C8.70752 9.12944 9.33527 8.50169 10.1096 8.50169C10.884 8.50169 11.5117 9.12944 11.5117 9.90379V12.2136" stroke="#333333" stroke-width="2" stroke-linecap="round" stroke-linejoin="round"/>
<path d="M11.5 12.3291V10.9038C11.5 10.1294 12.1277 9.50169 12.9021 9.50169C13.6764 9.50169 14.3042 10.1294 14.3042 10.9038V12.5017" stroke="#333333" stroke-width="2" stroke-linecap="round" stroke-linejoin="round"/>
<path d="M5.5 4H20.5" stroke="#333333" stroke-width="2" stroke-linecap="round"/>
<path d="M18 6.25L18.8333 5.5L20.5 4L18.8333 2.5L18 1.75" stroke="#333333" stroke-width="2" stroke-linecap="round" stroke-linejoin="round"/>
</svg>
