<svg width="24" height="24" viewBox="0 0 24 24" fill="none" xmlns="http://www.w3.org/2000/svg">
<path d="M5.5 12H2V22H5.5V12Z" stroke="#333333" stroke-width="2" stroke-linecap="round" stroke-linejoin="round"/>
<path d="M16.0002 8C15.2503 6.25 18.0002 3 18.0002 3C18.0002 3 20.7501 6.25 20.0002 8C19.2503 9.75 16.75 9.75 16.0002 8Z" fill="#333333" stroke="#333333" stroke-width="2" stroke-linecap="round" stroke-linejoin="round"/>
<path d="M15.5 21.2501C11 21.2501 7.5 20.0001 5.5 20.0001V15.0001C9 15.0001 8.75 13.7501 11 13.0001C13.25 12.2501 15 13.0001 14.75 14.5001C14.5 16.0001 12 17.5001 12 17.5001C16 17.5001 16 16.5001 18 15.0001C20 13.5001 22 14.0001 22 15.5001C22 17.0001 20 21.2501 15.5 21.2501Z" fill="#333333" stroke="#333333" stroke-width="2" stroke-linecap="round" stroke-linejoin="round"/>
</svg>
