<svg width="24" height="24" viewBox="0 0 24 24" fill="none" xmlns="http://www.w3.org/2000/svg">
<path d="M20.5 19H9.5V22H20.5V19Z" fill="#333333" stroke="#333333" stroke-width="2" stroke-linejoin="round"/>
<path fill-rule="evenodd" clip-rule="evenodd" d="M9.50029 19C6.24084 15.4385 4.37051 13.3746 3.88939 12.8081C3.1677 11.9584 3.47074 10.998 5.27684 10.998C7.08289 10.998 8.12449 13.6407 9.50029 13.6407C9.50849 13.6424 9.50904 10.2628 9.50194 3.50202C9.50109 2.67335 10.1721 2.00087 11.0008 2H11.0024C11.832 2 12.5045 2.6725 12.5045 3.50208V7.5068C16.4909 8.1112 18.6581 8.44465 19.0063 8.5072C19.5286 8.60095 20.5003 9.0995 20.5003 10.534C20.5003 11.4904 20.5003 13.9791 20.5003 19H9.50029Z" stroke="#333333" stroke-width="2" stroke-linejoin="round"/>
</svg>
