<svg width="24" height="24" viewBox="0 0 24 24" fill="none" xmlns="http://www.w3.org/2000/svg">
<path d="M3 16.5V19.5C3 20.3285 3.67158 21 4.5 21H7.5" stroke="#333333" stroke-width="2" stroke-linecap="round" stroke-linejoin="round"/>
<path d="M16.5 21H19.5C20.3285 21 21 20.3285 21 19.5V16.5" stroke="#333333" stroke-width="2" stroke-linecap="round" stroke-linejoin="round"/>
<path d="M21 7.5V4.5C21 3.67158 20.3285 3 19.5 3H16.5" stroke="#333333" stroke-width="2" stroke-linecap="round" stroke-linejoin="round"/>
<path d="M3 7.5V4.5C3 3.67158 3.67158 3 4.5 3H7.5" stroke="#333333" stroke-width="2" stroke-linecap="round" stroke-linejoin="round"/>
<path d="M17.0002 12L12.0002 17C12.0002 17 7.50034 12.5 7.00024 12C6.50014 11.5 6.25024 10.5 7.00024 9.50004C7.75024 8.50004 9.25024 8.50004 10.0002 9.00004C10.7503 9.50004 11.0003 10 12.0002 10C13.0002 10 13.2503 9.50004 14.0002 9.00004C14.7502 8.50004 16.2504 8.50004 17.0004 9.50004C17.7504 10.5 17.5002 11.5 17.0002 12Z" fill="#333333" stroke="#333333" stroke-width="2" stroke-linecap="round" stroke-linejoin="round"/>
</svg>
