<svg width="24" height="24" viewBox="0 0 24 24" fill="none" xmlns="http://www.w3.org/2000/svg">
<path d="M7.26985 10.0093C6.4261 8.97175 5.63375 8.749 4.89282 9.3411C3.78145 10.2292 3.46226 13.3248 4.35662 16.0543C5.251 18.7839 6.99005 22.5009 10.5008 22.5009C14.0115 22.5009 14.842 18.7611 16.2743 16.5001C17.7065 14.239 18.4642 12.0576 17.0604 9.3411" stroke="#333333" stroke-width="2" stroke-linecap="round" stroke-linejoin="round"/>
<path d="M5.5 9.0185C4.64853 7.72145 3.98187 6.71535 3.49998 6.00015C2.77715 4.92737 4.62553 3.54087 5.5 4.48409C6.08295 5.1129 6.8574 6.03905 7.8233 7.26255" stroke="#333333" stroke-width="2" stroke-linecap="round"/>
<path d="M7.5118 12.8199C7.26955 9.788 7.46665 7.81385 8.1031 6.8974C9.05775 5.5228 10.8316 5.0016 12.5018 5.0016C13.4962 5.0016 14.4044 5.42515 15.2263 6.27225" stroke="#333333" stroke-width="2" stroke-linecap="round" stroke-linejoin="round"/>
<path fill-rule="evenodd" clip-rule="evenodd" d="M20.5001 6.30645C20.7929 7.32465 20.3147 8.2549 18.8422 8.46555C17.3696 8.67625 16.2656 9.4167 15.4694 10.0396C14.6731 10.6624 13.2491 12.5523 12.968 13.5012C12.6869 14.45 11.0801 13.5774 10.6485 13.1986C10.217 12.8197 9.79275 11.9903 10.6485 11.1229C11.5043 10.2554 11.3191 10.0823 11.3191 9.20265C11.3191 8.323 16.0001 5.4132 18.6364 5.1471C19.2224 5.1129 20.2073 5.28825 20.5001 6.30645Z" stroke="#333333" stroke-width="2"/>
<path d="M11.5039 2.00012V4.63147" stroke="#333333" stroke-width="2" stroke-linecap="round"/>
<path d="M10.1533 5.35895C8.64442 3.46272 7.42777 2.40439 6.50342 2.18396" stroke="#333333" stroke-width="2" stroke-linecap="round"/>
<path d="M8.50195 3.51452L8.9972 1.48083" stroke="#333333" stroke-width="2" stroke-linecap="round"/>
<path d="M17.8064 5.35875C17.6453 5.911 17.6453 6.4288 17.8064 6.9121C17.9675 7.39545 18.3128 7.91325 18.8421 8.4655" stroke="#333333" stroke-width="2" stroke-linecap="round"/>
</svg>
