<svg width="24" height="24" viewBox="0 0 24 24" fill="none" xmlns="http://www.w3.org/2000/svg">
<path d="M7.3063 2.42125L4.96166 4.76587C4.31421 5.4133 4.31421 6.46305 4.96166 7.1105C5.6091 7.75795 6.65885 7.75795 7.3063 7.1105L9.6509 4.76587C10.2984 4.11842 10.2984 3.0687 9.6509 2.42125C9.00345 1.7738 7.9537 1.77381 7.3063 2.42125Z" fill="#333333" stroke="#333333" stroke-width="2"/>
<path d="M12.3867 6.71985L9.26049 9.846C8.61304 10.4934 8.61304 11.5431 9.26049 12.1906C9.90794 12.838 10.9577 12.838 11.6051 12.1906L14.7313 9.06445C15.3787 8.417 15.3787 7.3673 14.7313 6.71985C14.0838 6.0724 13.0341 6.0724 12.3867 6.71985Z" fill="#333333" stroke="#333333" stroke-width="2"/>
<path d="M14.3402 9.4552L21.2252 16.3402C21.7391 16.854 21.6308 17.7955 20.9833 18.4429C20.3359 19.0903 19.3944 19.1986 18.8806 18.6848L11.9956 11.7998" stroke="#333333" stroke-width="2"/>
<path d="M11.2142 3.20287L5.7434 8.67365C5.09595 9.3211 5.09595 10.3708 5.7434 11.0182C6.39085 11.6657 7.4406 11.6657 8.08805 11.0182L13.5588 5.54745C14.2062 4.90004 14.2062 3.85032 13.5588 3.20287C12.9113 2.55542 11.8616 2.55542 11.2142 3.20287Z" fill="#333333" stroke="#333333" stroke-width="2"/>
<path d="M6.92708 11.5711C7.63888 13.7894 7.52033 15.4284 6.57153 16.488C5.14828 18.0774 5.36963 22.0711 8.58508 22.0711C11.8005 22.0711 12.745 18.0774 10.0211 16.6764" stroke="#333333" stroke-width="2" stroke-linecap="round"/>
</svg>
