<svg width="24" height="24" viewBox="0 0 24 24" fill="none" xmlns="http://www.w3.org/2000/svg">
<path d="M5.58892 3.37358L3.1587 5.89231C2.77523 6.28976 2.78655 6.92282 3.18399 7.3063L3.54381 7.65348C3.94126 8.03695 4.57432 8.02563 4.9578 7.62819L7.38802 5.10945C7.7715 4.712 7.76018 4.07894 7.36273 3.69546L7.00291 3.34829C6.60546 2.96481 5.9724 2.97613 5.58892 3.37358Z" stroke="#333333" stroke-width="2"/>
<path d="M12.7852 10.317L10.355 12.8358C9.97151 13.2332 9.98284 13.8663 10.3803 14.2497L10.7401 14.5969C11.1375 14.9804 11.7706 14.9691 12.1541 14.5716L14.5843 12.0529C14.9678 11.6554 14.9565 11.0224 14.559 10.6389L14.1992 10.2917C13.8018 9.90825 13.1687 9.91957 12.7852 10.317Z" stroke="#333333" stroke-width="2"/>
<path d="M8.42929 4.02995L3.91603 8.70761C3.53255 9.10505 3.54387 9.73812 3.94132 10.1216L4.30114 10.4688C4.69858 10.8522 5.33165 10.8409 5.71513 10.4435L10.2284 5.76582C10.6119 5.36838 10.6005 4.73531 10.2031 4.35184L9.84328 4.00466C9.44583 3.62118 8.81277 3.63251 8.42929 4.02995Z" stroke="#333333" stroke-width="2"/>
<path d="M12.0279 7.50175L7.51466 12.1794C7.13118 12.5769 7.14251 13.2099 7.53995 13.5934L7.89977 13.9406C8.29722 14.324 8.93028 14.3127 9.31376 13.9153L13.827 9.23762C14.2105 8.84018 14.1992 8.20712 13.8017 7.82364L13.4419 7.47646C13.0445 7.09299 12.4114 7.10431 12.0279 7.50175Z" stroke="#333333" stroke-width="2"/>
<path d="M11.6173 4.32655L4.32667 11.8828C3.94319 12.2802 3.95452 12.9133 4.35196 13.2967L4.71178 13.6439C5.10923 14.0274 5.74229 14.0161 6.12577 13.6186L13.4164 6.06242C13.7999 5.66498 13.7886 5.03191 13.3911 4.64843L13.0313 4.30126C12.6339 3.91778 12.0008 3.92911 11.6173 4.32655Z" stroke="#333333" stroke-width="2"/>
<path d="M12.5015 14.2119L14.5845 12.053L21.7878 19.0031L19.7048 21.1621L12.5015 14.2119Z" fill="#333333" stroke="#333333" stroke-width="2" stroke-linecap="round" stroke-linejoin="round"/>
<path d="M10.5 20.125C10.5 21.1605 9.60455 22 8.5 22C7.39545 22 6.5 21.1605 6.5 20.125C6.5 19.0895 8.5 17 8.5 17C8.5 17 10.5 19.0895 10.5 20.125Z" stroke="#333333" stroke-width="2" stroke-linejoin="round"/>
</svg>
