<svg width="24" height="24" viewBox="0 0 24 24" fill="none" xmlns="http://www.w3.org/2000/svg">
<path d="M6.2829 13.0912C5.42765 13.6771 5 14.6467 5 16.0001C5 18.0301 7.48765 21.5001 9.7309 21.5001C11.9741 21.5001 13.2751 21.5001 15.4707 21.5001C17.6664 21.5001 19 19.5748 19 18.0301C19 15.8549 19 13.6798 19 11.5047C19 10.6762 18.3285 10.0047 17.5 10.0047H17.4954C16.6695 10.0047 16 10.6742 16 11.5001" stroke="#333333" stroke-width="2" stroke-linecap="round"/>
<path d="M6.99048 14.2226V4.00294C6.99048 3.17518 7.66148 2.50415 8.48923 2.50415C8.49063 2.50415 8.49203 2.50415 8.49338 2.50416C9.32408 2.50646 9.99633 3.18053 9.99633 4.01125V11.796" stroke="#333333" stroke-width="2" stroke-linecap="round"/>
<path d="M9.99634 11.5042V9.50775C9.99634 8.67505 10.6714 8 11.5041 8C12.3368 8 13.0118 8.67505 13.0118 9.50775V11.5042" stroke="#333333" stroke-width="2" stroke-linecap="round" stroke-linejoin="round"/>
<path d="M13 11.3579V10.0017C13 9.1733 13.6715 8.5017 14.5 8.5017C15.3285 8.5017 16 9.1733 16 10.0017V11.5017" stroke="#333333" stroke-width="2" stroke-linecap="round" stroke-linejoin="round"/>
</svg>
