<svg width="24" height="24" viewBox="0 0 24 24" fill="none" xmlns="http://www.w3.org/2000/svg">
<path fill-rule="evenodd" clip-rule="evenodd" d="M12 22C14.7614 22 17.2614 20.8806 19.0711 19.0711C20.8806 17.2614 22 14.7614 22 12C22 9.2386 20.8806 6.7386 19.0711 4.92894C17.2614 3.11929 14.7614 2 12 2C9.2386 2 6.7386 3.11929 4.92894 4.92894C3.11929 6.7386 2 9.2386 2 12C2 14.7614 3.11929 17.2614 4.92894 19.0711C6.7386 20.8806 9.2386 22 12 22Z" fill="#333333" stroke="#333333" stroke-width="2" stroke-linecap="round"/>
<path d="M16.9498 16.9498C15.683 18.2165 13.933 19 12 19C10.067 19 8.31704 18.2165 7.05029 16.9498" stroke="white" stroke-width="2" stroke-linecap="round"/>
</svg>
