<svg width="24" height="24" viewBox="0 0 24 24" fill="none" xmlns="http://www.w3.org/2000/svg">
<path d="M18 6.0001H5V18.0001H18V6.0001Z" fill="#333333" stroke="#333333" stroke-width="2" stroke-linejoin="round"/>
<path d="M13.5 12.0001C13.5 10.8955 12.6045 10.0001 11.5 10.0001C10.3954 10.0001 9.5 10.8955 9.5 12.0001C9.5 13.1047 10.3954 14.0001 11.5 14.0001C12.6045 14.0001 13.5 13.1047 13.5 12.0001Z" fill="white" stroke="white" stroke-width="2" stroke-linejoin="round"/>
<path d="M7.5 6.0001C7.5 5.96365 7.50415 5.92725 7.5123 5.89165L8.31605 2.39166C8.3686 2.16289 8.57825 2.00012 8.82045 2.00012H14.1918C14.434 2.00012 14.6437 2.16289 14.6962 2.39166L15.5 5.89165" stroke="#333333" stroke-width="2" stroke-linecap="round"/>
<path d="M7.5 18.0001C7.5 18.0366 7.50415 18.073 7.5123 18.1086L8.31605 21.6086C8.3686 21.8374 8.57825 22.0001 8.82045 22.0001H14.1918C14.434 22.0001 14.6437 21.8374 14.6962 21.6086L15.5 18.1086" stroke="#333333" stroke-width="2" stroke-linecap="round"/>
<path d="M19.5 8.0001V10.0001" stroke="#333333" stroke-width="2" stroke-linecap="round"/>
</svg>
