<svg width="24" height="24" viewBox="0 0 24 24" fill="none" xmlns="http://www.w3.org/2000/svg">
<path fill-rule="evenodd" clip-rule="evenodd" d="M20.5357 2.99705L1.65527 8.25935L6.19272 12.9063L10.3998 12.9797L15.2413 8.25935C15.1132 7.99715 15.0492 7.7776 15.0492 7.60065C15.0492 7.2037 15.2051 6.8893 15.4473 6.6665C15.862 6.285 16.361 6.2279 16.9444 6.49525L20.5357 2.99705Z" fill="#333333"/>
<path fill-rule="evenodd" clip-rule="evenodd" d="M21.0511 3.36421L15.7888 22.2446L11.1418 17.7072L11.0684 13.5001L15.7558 8.7408C16.0098 8.9227 16.2872 9.00525 16.588 8.98845C17.0392 8.9632 17.3307 8.69065 17.4675 8.5301C17.6042 8.3696 17.7647 8.10255 17.7513 7.70565C17.7424 7.44105 17.6555 7.19705 17.4906 6.9736L21.0511 3.36421Z" fill="#333333"/>
</svg>
