<svg width="24" height="24" viewBox="0 0 24 24" fill="none" xmlns="http://www.w3.org/2000/svg">
<path d="M6.5 16.4999C8.15685 16.4999 9.5 15.1568 9.5 13.4999C9.5 11.843 8.15685 10.4999 6.5 10.4999C4.84315 10.4999 3.5 11.843 3.5 13.4999C3.5 15.1568 4.84315 16.4999 6.5 16.4999Z" fill="#333333" stroke="#333333" stroke-width="2"/>
<path d="M6.5 10.5C6.5 7.7501 7.5 2.50012 12 2.50012C14.25 2.50012 18.3603 3.66596 16.7679 10.2807C16.6276 10.8636 16.077 11.9874 16.077 11.9874L15.2751 13.7887C14.4457 15.459 13.374 19.7271 16.7679 21.3053C17.7971 21.7839 20.0085 21.4748 20.5 19.3009" stroke="#333333" stroke-width="2" stroke-linecap="round" stroke-linejoin="round"/>
</svg>
