<svg width="24" height="24" viewBox="0 0 24 24" fill="none" xmlns="http://www.w3.org/2000/svg">
<path fill-rule="evenodd" clip-rule="evenodd" d="M19.0711 19.0711C22.9763 15.1658 22.9763 8.8342 19.0711 4.92893C15.1658 1.02369 8.8342 1.02369 4.92893 4.92893C1.02369 8.8342 1.02369 15.1658 4.92893 19.0711C8.8342 22.9763 15.1658 22.9763 19.0711 19.0711ZM16.2426 7.75735C18.5858 10.1005 18.5858 13.8995 16.2426 16.2426C13.8995 18.5858 10.1005 18.5858 7.75735 16.2426C5.4142 13.8995 5.4142 10.1005 7.75735 7.75735C10.1005 5.4142 13.8995 5.4142 16.2426 7.75735Z" stroke="#333333" stroke-width="2" stroke-linecap="round" stroke-linejoin="round"/>
<path d="M19.0709 19.0711L16.2424 16.2426" stroke="#333333" stroke-width="2" stroke-linecap="round" stroke-linejoin="round"/>
<path d="M4.92896 19.0711L7.7574 16.2426" stroke="#333333" stroke-width="2" stroke-linecap="round" stroke-linejoin="round"/>
<path d="M4.92896 4.92896L7.7574 7.7574" stroke="#333333" stroke-width="2" stroke-linecap="round" stroke-linejoin="round"/>
<path d="M19.0709 4.92896L16.2424 7.7574" stroke="#333333" stroke-width="2" stroke-linecap="round" stroke-linejoin="round"/>
<path d="M16.2427 16.2426C18.5858 13.8995 18.5858 10.1005 16.2427 7.75735C13.8995 5.4142 10.1005 5.4142 7.75736 7.75735C5.41421 10.1005 5.41421 13.8995 7.75736 16.2426C10.1005 18.5858 13.8995 18.5858 16.2427 16.2426Z" stroke="#333333" stroke-width="2" stroke-linecap="round" stroke-linejoin="round"/>
</svg>
