<svg width="24" height="24" viewBox="0 0 24 24" fill="none" xmlns="http://www.w3.org/2000/svg">
<path fill-rule="evenodd" clip-rule="evenodd" d="M12 1.50009L12.1744 1.50152C17.8629 1.59465 22.5 6.23395 22.5 12.037L22.4986 12.212C22.4043 17.9184 17.7094 22.5001 12 22.5001L11.8256 22.4987C6.13715 22.4055 1.5 17.7659 1.5 12.037C1.5 6.17475 6.23225 1.50009 12 1.50009ZM19.1898 12.6937L10.5333 14.8618C10.4515 14.8824 10.3695 14.892 10.2888 14.892L10.1947 14.8875C9.9771 14.8669 9.7739 14.7755 9.6147 14.6314L8.77025 17.5706L8.7588 17.6359C8.65405 18.3941 9.53885 19.014 10.4583 18.5451L18.4499 13.9984L18.5457 13.9411C19.1012 13.5909 19.3146 13.1295 19.1898 12.6937ZM8.98995 6.38905C8.3852 5.9253 7.41075 6.3816 7.35715 7.41L7.29905 16.6043C7.29455 17.325 7.59465 17.7816 8.0592 17.897L10.5097 9.31665L10.5368 9.23475C10.6481 8.9415 10.8859 8.72685 11.1685 8.63635L9.0455 6.4352L8.98995 6.38905ZM10.5309 5.63975C9.94965 5.33385 9.4435 5.37985 9.1287 5.7061L15.3344 12.1183C15.5767 12.3685 15.6624 12.7126 15.5942 13.0293L18.5619 12.2909L18.6297 12.2659C19.3335 11.9741 19.4254 10.9021 18.5619 10.3417L10.6284 5.694L10.5309 5.63975Z" fill="#333333"/>
</svg>
