<svg width="24" height="24" viewBox="0 0 24 24" fill="none" xmlns="http://www.w3.org/2000/svg">
<path d="M3.68286 8.17215C3.24285 9.3512 3 10.644 3 11.9999C3 13.3557 3.24285 14.6485 3.68286 15.8276M5.63605 19.0709C6.46505 19.992 7.455 20.7343 8.55505 21.2411C9.6162 21.73 10.7797 21.9999 12 21.9999C13.2203 21.9999 14.3838 21.73 15.445 21.2411C16.545 20.7343 17.535 19.992 18.364 19.0709M20.3172 15.8276C20.7572 14.6485 21 13.3557 21 11.9999C21 10.644 20.7572 9.3512 20.3172 8.17215M18.364 4.92881C17.535 4.00769 16.545 3.26544 15.445 2.75861C14.3838 2.26971 13.2203 1.99988 12 1.99988C9.5147 1.99988 7.2647 3.11916 5.63605 4.92881" stroke="#333333" stroke-width="2" stroke-linecap="round"/>
<path d="M9 11.4999C9.82845 11.4999 10.5 10.8283 10.5 9.99989C10.5 9.17144 9.82845 8.49989 9 8.49989C8.17155 8.49989 7.5 9.17144 7.5 9.99989C7.5 10.8283 8.17155 11.4999 9 11.4999Z" fill="#333333" stroke="#333333" stroke-width="2"/>
<path d="M15 11.4999C15.8284 11.4999 16.5 10.8283 16.5 9.99989C16.5 9.17144 15.8284 8.49989 15 8.49989C14.1715 8.49989 13.5 9.17144 13.5 9.99989C13.5 10.8283 14.1715 11.4999 15 11.4999Z" fill="#333333" stroke="#333333" stroke-width="2"/>
<path d="M12 17.4999C13.3807 17.4999 14.5 16.8283 14.5 15.9999C14.5 15.1714 13.3807 14.4999 12 14.4999C10.6193 14.4999 9.5 15.1714 9.5 15.9999C9.5 16.8283 10.6193 17.4999 12 17.4999Z" fill="#333333" stroke="#333333" stroke-width="2"/>
</svg>
