<svg width="24" height="24" viewBox="0 0 24 24" fill="none" xmlns="http://www.w3.org/2000/svg">
<path d="M14.5014 9.18666L15.0538 8.63426L15.319 8.36906C16.3929 7.29511 16.3929 5.55391 15.319 4.47999C14.245 3.40605 12.5038 3.40605 11.4299 4.47999L4.58611 11.3238C4.55821 11.3517 4.55821 11.3969 4.58611 11.4248L8.07113 14.9098C8.26638 15.1051 8.58298 15.1051 8.77823 14.9098L10.6344 13.0537L11.1868 12.5012" stroke="#333333" stroke-width="2" stroke-linecap="round"/>
<path d="M14.0813 3.24267L14.9652 2.35878C15.6486 1.67537 16.7566 1.67537 17.4401 2.35878C18.1235 3.0422 18.1235 4.15024 17.4401 4.83366L16.5562 5.71754L14.0813 3.24267Z" fill="#333333" stroke="#333333" stroke-width="2" stroke-linecap="round" stroke-linejoin="round"/>
<path d="M5.24268 12.0815L3.12134 14.2028L5.59623 16.6777L7.71753 14.5564L5.24268 12.0815Z" stroke="#333333" stroke-width="2" stroke-linecap="round" stroke-linejoin="round"/>
<path d="M11.4298 12.6118C12.3084 13.4905 13.7331 13.4905 14.6117 12.6118C15.4904 11.7332 15.4904 10.3085 14.6117 9.42986C13.7331 8.55118 12.3084 8.55118 11.4298 9.42986C10.5511 10.3085 10.5511 11.7332 11.4298 12.6118Z" fill="#333333" stroke="#333333" stroke-width="2"/>
<path d="M3 10L9.36395 16.364" stroke="#333333" stroke-width="2" stroke-linecap="round" stroke-linejoin="round"/>
<path d="M5 22H21" stroke="#333333" stroke-width="2" stroke-linecap="round" stroke-linejoin="round"/>
<path d="M15.5 11C17.5 11 19.5 13 19.5 16C19.5 19.2 16.9167 20.9167 15.5 22" stroke="#333333" stroke-width="2" stroke-linecap="round" stroke-linejoin="round"/>
</svg>
