<svg width="24" height="24" viewBox="0 0 24 24" fill="none" xmlns="http://www.w3.org/2000/svg">
<path d="M22 13C22 14.3196 21.6348 15.554 21 16.6076C20.4099 17.5868 19.5868 18.4099 18.6076 19C17.554 19.6348 16.3196 20 15 20C13.6803 20 12.4459 19.6348 11.3924 19C9.3596 17.7751 8 15.5464 8 13C8 10.4536 9.3596 8.2249 11.3924 7C12.4459 6.3652 13.6803 6 15 6C16.3196 6 17.554 6.3652 18.6076 7C19.5868 7.5901 20.4099 8.41315 21 9.3924C21.6348 10.4459 22 11.6803 22 13Z" fill="#333333"/>
<path d="M2 7V19H11.3924C9.3596 17.7751 8 15.5464 8 13C8 10.4536 9.3596 8.2249 11.3924 7H2Z" fill="#333333"/>
<path d="M18.6076 7C17.554 6.3652 16.3197 6 15 6C13.6803 6 12.4459 6.3652 11.3924 7M18.6076 7H21V9.3924M18.6076 7C19.5868 7.5901 20.4099 8.41315 21 9.3924M11.3924 7H2V19H11.3924M11.3924 7C9.3596 8.2249 8 10.4536 8 13C8 15.5464 9.3596 17.7751 11.3924 19M21 9.3924C21.6348 10.4459 22 11.6803 22 13C22 14.3197 21.6348 15.554 21 16.6076M11.3924 19C12.4459 19.6348 13.6803 20 15 20C16.3197 20 17.554 19.6348 18.6076 19M18.6076 19H21V16.6076M18.6076 19C19.5868 18.4099 20.4099 17.5868 21 16.6076" stroke="#333333" stroke-width="2" stroke-linecap="round" stroke-linejoin="round"/>
<path d="M8.5 4.5H4V7H8.5V4.5Z" fill="#333333" stroke="#333333" stroke-width="2" stroke-linecap="round" stroke-linejoin="round"/>
<path d="M5 11V15" stroke="white" stroke-width="2" stroke-linecap="round" stroke-linejoin="round"/>
<path d="M18 13C18 14.6568 16.6568 16 15 16M12 13C12 11.3432 13.3432 10 15 10" stroke="white" stroke-width="2" stroke-linecap="round" stroke-linejoin="round"/>
</svg>
