<svg width="24" height="24" viewBox="0 0 24 24" fill="none" xmlns="http://www.w3.org/2000/svg">
<path d="M10.0352 4.79294L7.91395 2.67162C7.52345 2.28109 6.89025 2.28109 6.49975 2.67162L3.67131 5.50005C3.28079 5.89055 3.28079 6.52375 3.67131 6.91425L5.79265 9.0356" stroke="#333333" stroke-width="2" stroke-linecap="round" stroke-linejoin="round"/>
<path d="M14.4644 18.7072L16.5857 20.8285C16.9762 21.219 17.6094 21.219 17.9999 20.8285L20.8283 18.0001C21.2189 17.6095 21.2189 16.9764 20.8283 16.5859L18.707 14.4645" stroke="#333333" stroke-width="2" stroke-linecap="round" stroke-linejoin="round"/>
<path d="M20.8388 5.98964L18.0103 3.16121C17.6198 2.77068 16.9866 2.77068 16.5961 3.16121L3.16109 16.5962C2.77056 16.9868 2.77056 17.6199 3.16109 18.0105L5.98951 20.8389C6.38004 21.2294 7.0132 21.2294 7.40373 20.8389L20.8388 7.40385C21.2293 7.01332 21.2293 6.38016 20.8388 5.98964Z" fill="#333333" stroke="#333333" stroke-width="2" stroke-linecap="round" stroke-linejoin="round"/>
<path d="M12 13C12.5523 13 13 12.5523 13 12C13 11.4477 12.5523 11 12 11C11.4477 11 11 11.4477 11 12C11 12.5523 11.4477 13 12 13Z" fill="white"/>
<path d="M10 15C10.5523 15 11 14.5523 11 14C11 13.4477 10.5523 13 10 13C9.44772 13 9 13.4477 9 14C9 14.5523 9.44772 15 10 15Z" fill="white"/>
<path d="M14 11C14.5523 11 15 10.5523 15 10C15 9.44772 14.5523 9 14 9C13.4477 9 13 9.44772 13 10C13 10.5523 13.4477 11 14 11Z" fill="white"/>
</svg>
