<svg width="24" height="24" viewBox="0 0 24 24" fill="none" xmlns="http://www.w3.org/2000/svg">
<path d="M2.49951 16.1569L10.017 2.97147C10.479 1.99057 11.3134 1.50012 12.5201 1.50012C14.3302 1.50012 15.5086 3.99325 15.5086 3.99325C15.5086 3.99325 16.1723 4.09213 17.4995 4.28989C15.4944 4.32269 14.335 4.72611 14.0212 5.5001C13.5506 6.66115 15.2492 7.86555 15.5086 9.50205C15.7681 11.1386 14.7332 13.9027 12.2441 15.2836C10.5847 16.2043 8.5131 16.4431 6.02915 16.0001L2.97922 21.5001" stroke="#333333" stroke-width="2" stroke-linecap="round" stroke-linejoin="round"/>
<path fill-rule="evenodd" clip-rule="evenodd" d="M7.47119 13.4891C8.76064 11.1643 9.60844 9.67159 10.0146 9.01089C10.6239 8.01984 13.1372 8.31864 12.2342 10.7922C11.6322 12.4413 10.0445 13.3403 7.47119 13.4891Z" fill="#333333" stroke="#333333" stroke-width="2" stroke-linejoin="round"/>
<path fill-rule="evenodd" clip-rule="evenodd" d="M16.4839 16.4919C17.0549 15.1236 17.8887 14.2945 18.9853 14.0045C20.0818 13.7144 21.0819 13.891 21.9855 14.5342C21.4227 15.8321 20.5886 16.6643 19.483 17.0305C18.3774 17.3968 17.3777 17.2172 16.4839 16.4919Z" fill="#333333" stroke="#333333" stroke-width="2" stroke-linejoin="round"/>
<path fill-rule="evenodd" clip-rule="evenodd" d="M13.4927 17.5571C13.8711 18.918 14.8734 19.8282 16.4996 20.2876C18.1259 20.7471 19.4648 20.4846 20.5162 19.5002C19.2158 17.985 18.044 17.1532 17.0007 17.005C15.9575 16.8568 14.7881 17.0408 13.4927 17.5571Z" fill="#333333" stroke="#333333" stroke-width="2" stroke-linejoin="round"/>
</svg>
