<svg width="24" height="24" viewBox="0 0 24 24" fill="none" xmlns="http://www.w3.org/2000/svg">
<path d="M12 5C6.37162 5 2.99259 8.37405 2.18757 9.27895C2.06737 9.41405 2.04342 9.6032 2.1136 9.76985L5.77627 18.4687C5.89432 18.7491 6.23522 18.8657 6.50977 18.7346C7.41182 18.3038 9.43797 17.5 12 17.5C14.562 17.5 16.5881 18.3038 17.4902 18.7346C17.7647 18.8657 18.1056 18.7491 18.2237 18.4687L21.8863 9.76985C21.9565 9.6032 21.9326 9.41405 21.8124 9.27895C21.0074 8.37405 17.6284 5 12 5Z" fill="#333333" stroke="#333333" stroke-width="2" stroke-linecap="round" stroke-linejoin="round"/>
<path d="M10 12.0005H14" stroke="white" stroke-width="2" stroke-linecap="round" stroke-linejoin="round"/>
<path d="M12 10V14" stroke="white" stroke-width="2" stroke-linecap="round" stroke-linejoin="round"/>
</svg>
