<svg width="24" height="24" viewBox="0 0 24 24" fill="none" xmlns="http://www.w3.org/2000/svg">
<path d="M18.8494 3C18.586 3.26722 17.6197 4.33614 17.0048 4.87059C16.917 5.1378 18.0589 6.2067 18.3224 6.47395C18.5859 6.7412 21.7479 4.87059 21.4844 4.60336C21.2736 4.38958 19.6399 3.44538 18.8494 3Z" stroke="#333333" stroke-width="2" stroke-linecap="round" stroke-linejoin="round"/>
<path d="M5.68595 8.36085C5.68 8.317 5.6751 8.2731 5.6712 8.22925C4.72795 9.14465 4.00824 10.1953 3.52135 11.3C4.31792 11.467 4.91611 12.1734 4.91611 13.0196C4.91611 13.9899 4.1295 14.7765 3.15917 14.7765C3.02479 14.7765 2.89394 14.7615 2.7682 14.7329C2.75788 16.5059 3.34263 18.2103 4.55827 19.5335C6.31055 21.4408 8.96285 22.109 11.5735 21.5657C13.1799 21.2314 14.7705 20.4384 16.1259 19.1931C16.7977 18.576 17.3637 17.8918 17.8208 17.1673C16.7086 17.5023 15.4834 16.9614 15.0204 15.8686C14.7893 15.3232 14.3099 14.9222 13.7322 14.7911L12.8909 14.6002C11.9254 14.3811 11.1313 13.6978 10.7707 12.7758L10.7254 12.66C10.3294 11.6477 9.3818 10.9572 8.29685 10.8906C6.9667 10.8088 5.87985 9.79825 5.7017 8.47755L5.68595 8.36085Z" fill="#333333" stroke="#333333" stroke-width="2" stroke-linecap="round" stroke-linejoin="round"/>
<path d="M6.57729 5.82916L6.45144 5.96371C5.84939 6.60736 5.56844 7.48751 5.68629 8.36091L5.70204 8.47766C5.88019 9.79836 6.96704 10.8089 8.29719 10.8907C9.38214 10.9574 10.3297 11.6478 10.7256 12.6601L10.7709 12.7759C11.1316 13.6979 11.9257 14.3812 12.8912 14.6003L13.7325 14.7912C14.3102 14.9223 14.7896 15.3233 15.0207 15.8687C15.5187 17.0439 16.898 17.5809 18.0705 17.0765C19.2548 16.567 20.1125 15.4771 20.3118 14.2034L20.4158 13.5388C20.4718 13.1807 20.4885 12.8175 20.4655 12.4558L20.4118 11.6106C20.3036 9.90836 19.6939 8.27631 18.6595 6.92011L18.5335 6.75501C17.658 5.60701 16.4843 4.72111 15.1404 4.19365C13.9786 3.73772 12.7254 3.56369 11.4834 3.68582L10.7808 3.75491C9.17424 3.91289 7.68009 4.65019 6.57729 5.82916Z" stroke="#333333" stroke-width="2" stroke-linecap="round" stroke-linejoin="round"/>
</svg>
