<svg width="24" height="24" viewBox="0 0 24 24" fill="none" xmlns="http://www.w3.org/2000/svg">
<path d="M7.5569 12.4731C6.35575 13.8459 6.14345 15.5164 6.2322 16.6781C6.27435 17.2304 6.83445 17.5348 7.34885 17.3295C7.72105 17.1809 8.1287 16.9956 8.42225 16.7999C9.2876 16.223 8.99915 15.6461 9.2876 14.7807C9.57605 13.9154 10.8462 13.2115 12 13.4999C13.1538 13.7884 13.6143 14.7807 13.6143 15.6461C13.6143 16.5114 13.25 17.4999 12.1721 17.9537C10.9831 18.4542 10.4414 17.9537 8.99915 17.6652C8.24755 17.5149 7.496 18.1724 7.06335 18.649C6.81835 18.9189 6.7921 19.3117 7.0046 19.6078C7.14895 19.8089 7.33515 20.0396 7.5569 20.2613C8.1338 20.8382 10.4414 22.5689 12.749 22.2804C15.0565 21.992 17.0757 20.2613 17.941 18.2421C18.8064 16.223 18.2295 13.9154 16.7872 12.1847C15.345 10.454 12.749 10.1656 12.1721 10.1656C11.5952 10.1656 9.57605 10.1656 7.5569 12.4731Z" stroke="#333333" stroke-width="2" stroke-linecap="round" stroke-linejoin="round"/>
<path d="M15.7811 11.3193L6.32164 4.0855C6.12254 3.93327 5.83804 3.95 5.68959 4.1519C5.33314 4.63675 4.99644 5.40546 5.53774 6.12721C6.22999 7.05021 8.90294 9.39626 10.1528 10.4539" stroke="#333333" stroke-width="2" stroke-linecap="round" stroke-linejoin="round"/>
<path d="M17.5003 12.9999L11.5707 2.09904C11.451 1.87902 11.1846 1.77829 10.9667 1.90194C10.4434 2.19903 9.82204 2.76343 10.0216 3.64336C10.2769 4.76857 11.2909 6.77414 12.0003 8.24989" stroke="#333333" stroke-width="2" stroke-linecap="round" stroke-linejoin="round"/>
<path d="M18 14L17.5252 3.8461C17.5135 3.59607 17.3179 3.38926 17.0681 3.40522C16.4675 3.4436 15.6616 3.67956 15.4565 4.55842C15.1943 5.68204 15.0069 7.36264 15 8.99999" stroke="#333333" stroke-width="2" stroke-linecap="round" stroke-linejoin="round"/>
</svg>
