<svg width="24" height="24" viewBox="0 0 24 24" fill="none" xmlns="http://www.w3.org/2000/svg">
<path d="M12.8721 22H12.4245C9.81936 22 7.38961 20.6871 5.96191 18.508L4.86418 16.8326C4.08512 15.6434 4.31514 14.0601 5.40036 13.1418L6.54411 12.1741C6.67456 12.0637 6.74976 11.9015 6.74976 11.7305V3.625C6.74976 2.72754 7.47731 2 8.37476 2C9.27221 2 9.99976 2.72754 9.99976 3.625V8.125C9.99976 7.22755 10.7273 6.5 11.6248 6.5C12.5222 6.5 13.2498 7.22755 13.2498 8.125V8.875C13.2498 7.97755 13.9773 7.25 14.8748 7.25C15.7722 7.25 16.4998 7.97755 16.4998 8.875V10.875C16.4998 9.97755 17.2273 9.25 18.1248 9.25C19.0222 9.25 19.7498 9.97755 19.7498 10.875V15.9844C19.7498 16.8088 19.5007 17.6141 19.0351 18.2945L18.5483 19.006C17.2663 20.8797 15.1423 22 12.8721 22Z" fill="#333333" stroke="#333333" stroke-width="2" stroke-linecap="round" stroke-linejoin="round"/>
</svg>
