<svg width="24" height="24" viewBox="0 0 24 24" fill="none" xmlns="http://www.w3.org/2000/svg">
<path d="M5.50002 20L3.46977 15.6011C2.92251 14.4154 3.3801 13.0082 4.52012 12.3711L10.1486 9.22579C10.6663 8.93649 11.3059 8.97939 11.7803 9.33519L12.2935 9.72014C12.6045 9.95334 13.0509 9.75819 13.0909 9.37159L13.6854 3.62465C13.7267 3.22502 13.9267 2.85867 14.2404 2.60769L14.3482 2.52146C14.7193 2.22459 15.2542 2.25421 15.5903 2.59025C15.8526 2.8526 16 3.20843 16 3.57946V14.7097C16 15.1289 16.4848 15.3622 16.8122 15.1003L18.5 13.75C19.3265 13.0888 20.4375 13.5205 21.1275 13.9725C21.3468 14.1161 21.3794 14.4132 21.2235 14.6241L17.25 20C17.25 20 15.5 22 11.5 22C7.50002 22 5.83337 20.6666 5.50002 20Z" fill="#333333" stroke="#333333" stroke-width="2"/>
</svg>
