<svg width="24" height="24" viewBox="0 0 24 24" fill="none" xmlns="http://www.w3.org/2000/svg">
<path d="M13.9735 8.41406L20.3785 3.86856C20.8367 3.54343 21.4769 3.70347 21.7281 4.20596C21.8929 4.53563 21.8441 4.93199 21.6043 5.21186L20.5001 6.50001L17.8622 10.0173C17.6395 10.3142 17.5996 10.71 17.7584 11.0454L21.3237 18.5719C21.6379 19.2354 21.154 20 20.4199 20H16.3183C15.8423 20 15.4324 19.6646 15.3381 19.1981L13.76 11.387L13.5571 9.32766C13.5219 8.97046 13.6808 8.62181 13.9735 8.41406Z" stroke="#333333" stroke-width="2" stroke-linecap="round" stroke-linejoin="round"/>
<path d="M14 11.5L17.5 10.5" stroke="#333333" stroke-width="2" stroke-linecap="round" stroke-linejoin="round"/>
<path d="M9.96785 8.55141L3.6042 4.09788C3.15302 3.78213 2.52683 3.93858 2.27718 4.42943C2.10963 4.75885 2.15896 5.15701 2.40185 5.43556L3.4999 6.69491L6.11605 10.0131C6.3512 10.3114 6.39705 10.7171 6.2345 11.0604L2.67636 18.5719C2.3621 19.2354 2.84598 20 3.5801 20H7.6609C8.14615 20 8.56135 19.6517 8.6457 19.1738L9.9999 11.5L10.3762 9.56121C10.4514 9.17351 10.2914 8.77786 9.96785 8.55141Z" stroke="#333333" stroke-width="2" stroke-linecap="round" stroke-linejoin="round"/>
<path d="M6.5 10.5L10 11.5" stroke="#333333" stroke-width="2" stroke-linecap="round" stroke-linejoin="round"/>
</svg>
