<svg width="24" height="24" viewBox="0 0 24 24" fill="none" xmlns="http://www.w3.org/2000/svg">
<path fill-rule="evenodd" clip-rule="evenodd" d="M8.53011 4.80766C11.5545 5.442 12.1371 6.5196 12.138 6.52095C11.0195 0.0576153 7.59536 1.63985 6.86641 2.0145C6.77556 2.06123 6.71331 2.14812 6.70046 2.24949C6.63611 2.75654 6.56241 4.39506 8.53011 4.80766Z" fill="#333333"/>
<path fill-rule="evenodd" clip-rule="evenodd" d="M7.32665 11.3461C7.0395 12.1433 6.95335 13.0372 7.1081 13.9595C7.49615 16.2717 9.40815 17.9474 11.6428 18.1301L12.4078 18.4023C12.7082 18.4994 13.1015 18.5953 13.5632 18.6625C14.2463 18.762 14.9469 18.7768 15.6403 18.6784C17.3235 18.4396 18.742 17.573 19.7295 15.9277L19.9518 15.5394C19.3459 18.8777 16.9684 21.948 13.169 22.6593C10.5242 23.1545 8.02375 22.4722 6.15555 20.9857L6.1773 21.0283C4.94292 18.6323 4.72204 16.472 5.2873 14.5457C5.5579 13.6236 6.02655 12.7992 6.64045 12.068C6.85605 11.8112 7.0813 11.5757 7.3133 11.3587L7.32665 11.3461ZM8.6943 7.16785C9.94905 6.96985 11.997 6.9812 13.146 8.26435C13.1623 8.28255 13.1462 8.31145 13.1222 8.30655C12.5087 8.18135 11.6764 8.17885 11.0374 8.28615C9.6904 8.5121 8.60515 9.2301 7.90585 10.2275L7.65995 10.4136C7.54725 10.5005 7.4272 10.5948 7.3453 10.6632C6.96685 10.9797 6.601 11.3374 6.2575 11.7465C5.60155 12.5278 5.0989 13.412 4.80753 14.405C4.29944 16.1364 4.38745 18.0402 5.2052 20.1013C4.49105 19.3239 3.91603 18.4037 3.52232 17.3727C2.60415 14.968 2.88393 11.8385 4.46131 9.81855C5.5864 8.37785 7.24365 7.39685 8.6943 7.16785ZM15.8402 3.51961C18.1414 0.438608 20.9011 2.69054 21.2639 3.00927C21.2906 3.03281 21.3072 3.06463 21.3108 3.09994C21.36 3.57718 21.489 7.022 14.8605 6.90565C16.6648 7.3479 18.5777 8.8517 19.3783 10.5026C19.6465 11.0559 19.8533 11.632 19.9629 12.2369C20.0694 12.8248 20.1157 13.4261 20.1036 14.0288C20.0772 14.168 19.9862 14.3964 19.8448 14.6816L19.7874 14.7951L19.6675 15.0217L19.3914 15.5147C18.4809 17.127 17.1618 17.9576 15.5701 18.1834C14.9275 18.2745 14.2739 18.2607 13.6352 18.1677C13.4112 18.1351 13.2048 18.0954 13.0196 18.0523C14.4166 17.7792 15.569 16.9468 16.2833 15.8287C16.4483 15.6087 16.5887 15.3663 16.6986 15.0962C17.2015 13.8583 17.2681 12.6248 16.8783 11.2416C16.2542 9.02765 14.5826 7.40735 12.4734 6.6808C12.4551 6.67445 12.4547 6.6491 12.4734 6.6437C12.7504 6.56335 13.9201 6.09025 15.8402 3.51961Z" fill="#333333"/>
</svg>
