<svg width="24" height="24" viewBox="0 0 24 24" fill="none" xmlns="http://www.w3.org/2000/svg">
<path d="M9.16649 17.9066L4.30951 12.4668C3.59357 11.6649 3.68467 10.4293 4.51048 9.74115C5.32819 9.05975 6.54609 9.18275 7.21104 10.014L7.99989 11V4.49695C7.99989 3.66972 8.66959 2.99864 9.49684 2.99695C10.3264 2.99527 10.9999 3.66733 10.9999 4.49695V3.5C10.9999 2.67158 11.6714 2 12.4999 2C13.3283 2 13.9999 2.67158 13.9999 3.5V4.41464C13.9999 3.58621 14.6714 2.91463 15.4999 2.91463C16.3283 2.91463 16.9999 3.58621 16.9999 4.41464V6.07315C16.9999 5.24475 17.6714 4.57317 18.4999 4.57317C19.3283 4.57317 19.9999 5.24475 19.9999 6.07315V12.9139C19.9999 13.9844 19.6608 15.0273 19.0314 15.8932L17.6149 17.8418C17.5426 17.9412 17.4272 18 17.3043 18H9.37509C9.29544 18 9.21954 17.9661 9.16649 17.9066Z" fill="#333333" stroke="#333333" stroke-width="2" stroke-linecap="round" stroke-linejoin="round"/>
<path d="M17 18H10C9.72386 18 9.5 18.2239 9.5 18.5V21.5C9.5 21.7761 9.72386 22 10 22H17C17.2761 22 17.5 21.7761 17.5 21.5V18.5C17.5 18.2239 17.2761 18 17 18Z" fill="#333333" stroke="#333333" stroke-width="2" stroke-linecap="round" stroke-linejoin="round"/>
</svg>
