<svg width="24" height="24" viewBox="0 0 24 24" fill="none" xmlns="http://www.w3.org/2000/svg">
<path d="M5.0386 6.71576C7.52355 3.93504 11.8434 5.15741 13.5 6.00006C14.3283 5.68406 16.5986 5.32136 18.0896 6.33256C19.9533 7.59651 22.3014 10.9521 20.1271 15.692C18.3877 19.4838 13.8445 21.0788 12.1879 21.5001C10.9455 20.9734 8.21515 19.916 5.3033 17.276C2.66287 14.882 1.93249 10.1917 5.0386 6.71576Z" fill="#333333" stroke="#333333" stroke-width="2" stroke-linejoin="round"/>
<path d="M13.5 6C12.538 6.375 10.6141 7.125 9.56475 9.375C8.43705 11.793 9.3024 13.875 9.56475 15" stroke="#333333" stroke-width="2" stroke-linecap="round" stroke-linejoin="round"/>
<path d="M10.5 2C10.6666 2.08333 11.75 2.25 12 3.25C12.2186 4.12448 11.8334 4.66667 11.75 5.25" stroke="#333333" stroke-width="2" stroke-linecap="round"/>
<path d="M14.2396 5.66425C13.7627 5.64775 13.4334 5.2275 13.5315 4.76053C13.6666 4.11681 13.9728 3.23838 14.6648 2.69614C15.3568 2.1539 16.283 2.06672 16.9404 2.08946C17.4172 2.10595 17.7465 2.52622 17.6485 2.99318C17.5133 3.6369 17.2071 4.51533 16.5151 5.05755C15.8231 5.5998 14.8969 5.687 14.2396 5.66425Z" stroke="#333333" stroke-width="2"/>
</svg>
