<svg width="24" height="24" viewBox="0 0 24 24" fill="none" xmlns="http://www.w3.org/2000/svg">
<path d="M8.31948 6.37305C8.97413 4.92817 10.4137 4 11.9999 4C13.5862 4 15.0257 4.92817 15.6804 6.37305L17.2105 9.75L19.0533 12.9109C20.1968 14.8724 19.856 17.3609 18.2272 18.9426L17.6324 19.5203C16.1759 20.9347 13.8917 21.036 12.3156 19.7563C12.1317 19.6069 11.8682 19.6069 11.6842 19.7563C10.1081 21.036 7.82393 20.9347 6.36748 19.5203L5.77268 18.9426C4.14385 17.3609 3.80303 14.8724 4.94658 12.9109L6.78938 9.75L8.31948 6.37305Z" fill="#333333" stroke="#333333" stroke-width="2"/>
<path d="M10.75 2C11.0834 2.25 11.8 2.95 12 3.75C12.2 4.55 12.0834 5.41665 12 5.75" stroke="#333333" stroke-width="2" stroke-linecap="round"/>
<path d="M8 15C8.55228 15 9 14.5523 9 14C9 13.4477 8.55228 13 8 13C7.44772 13 7 13.4477 7 14C7 14.5523 7.44772 15 8 15Z" fill="white"/>
<path d="M9 18C9.55228 18 10 17.5523 10 17C10 16.4477 9.55228 16 9 16C8.44772 16 8 16.4477 8 17C8 17.5523 8.44772 18 9 18Z" fill="white"/>
<path d="M11.5 16C12.0523 16 12.5 15.5523 12.5 15C12.5 14.4477 12.0523 14 11.5 14C10.9477 14 10.5 14.4477 10.5 15C10.5 15.5523 10.9477 16 11.5 16Z" fill="white"/>
</svg>
