<svg width="24" height="24" viewBox="0 0 24 24" fill="none" xmlns="http://www.w3.org/2000/svg">
<g clip-path="url(#clip0_211_57351)">
<mask id="mask0_211_57351" style="mask-type:luminance" maskUnits="userSpaceOnUse" x="0" y="0" width="24" height="24">
<path d="M24 0H0V24H24V0Z" fill="white"/>
</mask>
<g mask="url(#mask0_211_57351)">
<path d="M13.5001 6.00012C13.5001 6.00012 16.9998 9.50012 16.9999 14.0001C16.9999 18.5001 14.7778 22.1115 12.9999 22.0001C11.222 21.8887 9.50008 18.5001 10.0001 14.0001C10.5001 9.50012 13.5001 6.00012 13.5001 6.00012Z" stroke="#333333" stroke-width="2" stroke-linecap="round" stroke-linejoin="round"/>
<path d="M13.5 6.00015C13.5 6.00015 14.0007 3.93778 15.5002 2.96896C16.9998 2.00014 19.9452 4.50015 19.5001 6.00015C19.0551 7.50015 17.4999 7.50015 16.9999 6.00015C16.5 4.50015 19.0001 2.75015 20.5001 2.96896C22.0001 3.18776 22.1286 5.59005 22.0001 7.00015C21.7496 9.75015 21.0001 12.0001 21.0001 12.0001" stroke="#333333" stroke-width="2" stroke-linecap="round" stroke-linejoin="round"/>
<path d="M13.5 5.99997C13.5 5.99997 13.5 9.99997 10 14C6.50007 18 3.16275 18.8498 2.00021 17.5C0.837678 16.1502 2.00021 12.5 5.50007 8.99997C8.99987 5.49997 13.5 5.99997 13.5 5.99997Z" fill="#333333" stroke="#333333" stroke-width="2" stroke-linecap="round" stroke-linejoin="round"/>
<path d="M13.6216 14.9539C14.3119 14.9539 14.8716 14.3942 14.8716 13.7039C14.8716 13.0135 14.3119 12.4539 13.6216 12.4539C12.9312 12.4539 12.3716 13.0135 12.3716 13.7039C12.3716 14.3942 12.9312 14.9539 13.6216 14.9539Z" fill="#333333"/>
<path d="M13.1216 18.4539C13.8119 18.4539 14.3716 17.8942 14.3716 17.2039C14.3716 16.5135 13.8119 15.9539 13.1216 15.9539C12.4312 15.9539 11.8716 16.5135 11.8716 17.2039C11.8716 17.8942 12.4312 18.4539 13.1216 18.4539Z" fill="#333333"/>
</g>
</g>
<defs>
<clipPath id="clip0_211_57351">
<rect width="24" height="24" fill="white"/>
</clipPath>
</defs>
</svg>
