<svg width="24" height="24" viewBox="0 0 24 24" fill="none" xmlns="http://www.w3.org/2000/svg">
<path d="M9.72184 10.7501C9.50844 10.2163 9.43729 9.85037 9.43729 9.85037L10.6157 7.49352C10.7632 7.19837 10.7557 6.84942 10.5956 6.56092L9.37234 4.35753C9.19604 4.03991 8.86134 3.8429 8.49804 3.8429H5.96174C4.66991 3.8429 3.73721 5.04402 4.15026 6.26802C4.75599 8.06302 5.75254 10.5654 7.17319 12.7501M13.3385 14.4558C13.952 14.7167 14.387 14.8001 14.387 14.8001L16.7435 13.6219C17.0388 13.4742 17.388 13.4818 17.6766 13.6423L19.8863 14.8708C20.2036 15.0472 20.4004 15.3817 20.4004 15.7448V18.2816C20.4004 19.5734 19.1986 20.5059 17.9746 20.0928C16.101 19.4605 13.457 18.4025 11.208 16.8809" stroke="#333333" stroke-width="2" stroke-linecap="round" stroke-linejoin="round"/>
<path d="M20 4L4 20" stroke="#333333" stroke-width="2" stroke-linecap="round" stroke-linejoin="round"/>
</svg>
