<svg width="24" height="24" viewBox="0 0 24 24" fill="none" xmlns="http://www.w3.org/2000/svg">
<path d="M7.68784 4.89709C8.05114 4.89709 8.38584 5.09411 8.56214 5.41171L9.78539 7.61516C9.94554 7.90366 9.95304 8.25256 9.80549 8.54771L8.62709 10.9046C8.62709 10.9046 8.96859 12.6603 10.3978 14.0895C11.827 15.5187 13.5768 15.8543 13.5768 15.8543L15.9333 14.6761C16.2286 14.5284 16.5778 14.5361 16.8664 14.6965L19.0761 15.925C19.3934 16.1014 19.5902 16.436 19.5902 16.799V19.3358C19.5902 20.6276 18.3902 21.5606 17.1662 21.1476C14.6522 20.2993 10.7499 18.6842 8.27649 16.2108C5.80304 13.7374 4.18794 9.83506 3.33967 7.32106C2.92666 6.09706 3.85971 4.89709 5.15154 4.89709H7.68784Z" fill="#333333" stroke="#333333" stroke-width="2" stroke-linejoin="round"/>
<path d="M14.5 9.99998L21 3.75" stroke="#333333" stroke-width="2" stroke-linecap="round" stroke-linejoin="round"/>
<path d="M21 9.99998H14.5V3.5" stroke="#333333" stroke-width="2" stroke-linecap="round" stroke-linejoin="round"/>
</svg>
