<svg width="24" height="24" viewBox="0 0 24 24" fill="none" xmlns="http://www.w3.org/2000/svg">
<path d="M20.8897 10.3033C21.0161 9.4554 20.9746 8.58735 20.7653 7.7527C20.4889 6.6501 19.9195 5.6059 19.0572 4.74365C18.195 3.88141 17.1508 3.31205 16.0482 3.03558C15.2136 2.82629 14.3455 2.78484 13.4976 2.91123" stroke="#333333" stroke-width="2" stroke-linecap="round" stroke-linejoin="round"/>
<path d="M17.0948 9.90173C17.2302 8.99343 16.9483 8.03493 16.2491 7.33573C15.5499 6.63653 14.5914 6.35458 13.6831 6.48998" stroke="#333333" stroke-width="2" stroke-linecap="round" stroke-linejoin="round"/>
<path d="M7.18784 4.39709C7.55114 4.39709 7.88584 4.5941 8.06214 4.91172L9.28539 7.11513C9.44554 7.40363 9.45304 7.75258 9.30549 8.04773L8.12709 10.4045C8.12709 10.4045 8.46859 12.1603 9.89779 13.5895C11.327 15.0187 13.0768 15.3543 13.0768 15.3543L15.4333 14.1761C15.7286 14.0284 16.0778 14.036 16.3664 14.1965L18.5761 15.425C18.8934 15.6014 19.0902 15.9359 19.0902 16.299V18.8357C19.0902 20.1276 17.8902 21.0606 16.6662 20.6476C14.1522 19.7993 10.2499 18.1842 7.77649 15.7108C5.30304 13.2374 3.68794 9.33503 2.83967 6.82108C2.42666 5.59703 3.35971 4.39709 4.65153 4.39709H7.18784Z" fill="#333333" stroke="#333333" stroke-width="2" stroke-linejoin="round"/>
</svg>
