<svg width="24" height="24" viewBox="0 0 24 24" fill="none" xmlns="http://www.w3.org/2000/svg">
<path d="M7.18786 4.89703C7.55116 4.89703 7.88586 5.09403 8.06216 5.41168L9.28536 7.61508C9.44556 7.90358 9.45306 8.25253 9.30551 8.54768L8.12706 10.9045C8.12706 10.9045 8.46856 12.6602 9.89781 14.0894C11.327 15.5186 13.0768 15.8542 13.0768 15.8542L15.4333 14.676C15.7287 14.5283 16.0778 14.536 16.3664 14.6964L18.5761 15.9249C18.8934 16.1013 19.0902 16.4359 19.0902 16.7989V19.3357C19.0902 20.6275 17.8902 21.5605 16.6662 21.1475C14.1522 20.2993 10.2499 18.6842 7.77646 16.2107C5.30306 13.7373 3.68794 9.83498 2.83967 7.32103C2.42666 6.09698 3.35971 4.89703 4.65153 4.89703H7.18786Z" fill="#333333" stroke="#333333" stroke-width="2" stroke-linejoin="round"/>
<path d="M19.5 7.5H13.5V2.5H19.5V4L22 3V7L19.5 6V7.5Z" fill="#333333" stroke="#333333" stroke-width="2" stroke-linecap="round" stroke-linejoin="round"/>
</svg>
