<svg width="24" height="24" viewBox="0 0 24 24" fill="none" xmlns="http://www.w3.org/2000/svg">
<path d="M14 10L20.5 3.75" stroke="#333333" stroke-width="2" stroke-linecap="round" stroke-linejoin="round"/>
<path d="M14 3.5H20.5V10" stroke="#333333" stroke-width="2" stroke-linecap="round" stroke-linejoin="round"/>
<path d="M7.18784 4.89709C7.55114 4.89709 7.88584 5.09413 8.06214 5.41173L9.28539 7.61513C9.44554 7.90363 9.45304 8.25258 9.30549 8.54773L8.12709 10.9046C8.12709 10.9046 8.46859 12.6603 9.89779 14.0895C11.327 15.5187 13.0768 15.8543 13.0768 15.8543L15.4333 14.6761C15.7286 14.5284 16.0778 14.536 16.3664 14.6965L18.5761 15.925C18.8934 16.1014 19.0902 16.4359 19.0902 16.799V19.3357C19.0902 20.6276 17.8902 21.5606 16.6662 21.1476C14.1522 20.2993 10.2499 18.6842 7.77649 16.2108C5.30304 13.7374 3.68794 9.83503 2.83967 7.32108C2.42666 6.09703 3.35971 4.89709 4.65153 4.89709H7.18784Z" fill="#333333" stroke="#333333" stroke-width="2" stroke-linejoin="round"/>
</svg>
