<svg width="24" height="24" viewBox="0 0 24 24" fill="none" xmlns="http://www.w3.org/2000/svg">
<path d="M6.68784 4.89709C7.05114 4.89709 7.38584 5.09413 7.56214 5.41173L8.78539 7.61513C8.94554 7.90363 8.95304 8.25258 8.80549 8.54773L7.62709 10.9046C7.62709 10.9046 7.96859 12.6603 9.39779 14.0895C10.827 15.5187 12.5768 15.8543 12.5768 15.8543L14.9333 14.6761C15.2286 14.5284 15.5778 14.536 15.8664 14.6965L18.0761 15.925C18.3934 16.1014 18.5902 16.4359 18.5902 16.799V19.3357C18.5902 20.6276 17.3902 21.5606 16.1662 21.1476C13.6522 20.2993 9.74989 18.6842 7.27649 16.2108C4.80305 13.7374 3.18794 9.83503 2.33967 7.32108C1.92666 6.09703 2.85971 4.89709 4.15153 4.89709H6.68784Z" fill="#333333" stroke="#333333" stroke-width="2" stroke-linejoin="round"/>
<path d="M17.1201 3L13.1201 7L17.1201 11" stroke="#333333" stroke-width="2" stroke-linecap="round" stroke-linejoin="round"/>
<path d="M21.1201 7.00415H13.1201" stroke="#333333" stroke-width="2" stroke-linecap="round" stroke-linejoin="round"/>
</svg>
