<svg width="24" height="24" viewBox="0 0 24 24" fill="none" xmlns="http://www.w3.org/2000/svg">
<g clip-path="url(#clip0_211_57616)">
<mask id="mask0_211_57616" style="mask-type:luminance" maskUnits="userSpaceOnUse" x="0" y="0" width="24" height="24">
<path d="M24 0H0V24H24V0Z" fill="white"/>
</mask>
<g mask="url(#mask0_211_57616)">
<path d="M17 6.5V3C17 2.44771 16.5523 2 16 2H4C3.44771 2 3 2.44771 3 3V17C3 17.5523 3.44771 18 4 18H11.5" stroke="#333333" stroke-width="2" stroke-linecap="round" stroke-linejoin="round"/>
<path d="M14.0004 21C10.5001 19 12.166 16.1129 11.4887 15.5C10.6625 14.7523 10.1938 14.0561 9.99992 13C9.80602 11.9439 10.5352 10.7369 11.4888 11.5C12.4425 12.2632 14.0001 15.5 14.0001 15.5L15.0001 14.5L15.5001 9C15.5001 9 15.0001 7 15.0001 6C15.0001 5 17.0001 6.5 18.0001 8C18.0001 13.2209 18.7499 18 20.9997 22" stroke="#333333" stroke-width="2" stroke-linecap="round" stroke-linejoin="round"/>
<path d="M12.5 8.7L10.5 5.5L6.5 13.5H10" stroke="#333333" stroke-width="2" stroke-linecap="round" stroke-linejoin="round"/>
<path d="M3 11L6 5.5L8.5 9" stroke="#333333" stroke-width="2" stroke-linecap="round" stroke-linejoin="round"/>
</g>
</g>
<defs>
<clipPath id="clip0_211_57616">
<rect width="24" height="24" fill="white"/>
</clipPath>
</defs>
</svg>
