<svg width="24" height="24" viewBox="0 0 24 24" fill="none" xmlns="http://www.w3.org/2000/svg">
<path d="M6.50005 13.5C7.53635 13.2291 9.5071 11.9166 10.0001 11.5V8L7.00005 7C6.79465 6.1898 6.1573 4.55555 5.50005 4L4.77594 6.25695C3.4751 6.83565 1.34983 9.44445 2.50004 12.5C3.00004 13.5 4.0385 17 5.50005 19.5" stroke="#333333" stroke-width="2" stroke-linecap="round" stroke-linejoin="round"/>
<path d="M12 6.60273C14.1955 6.23948 18.7623 6.63903 19.4648 11.1432C19.6112 11.8092 19.3771 15.0044 17.2693 16.4573C16.8448 16.75 16.5 18 16.5 19.5" stroke="#333333" stroke-width="2" stroke-linecap="round" stroke-linejoin="round"/>
<path d="M13 20C13 18.8954 12.1046 18 11 18C9.89545 18 9 18.8954 9 20" stroke="#333333" stroke-width="2" stroke-linecap="round"/>
<path d="M19.5 12C19.75 12.5 20.8492 12.8347 21.6138 12.0508C22.0589 11.5945 22.4233 10.1669 21.299 9.5" stroke="#333333" stroke-width="2" stroke-linecap="round" stroke-linejoin="round"/>
</svg>
