<svg width="24" height="24" viewBox="0 0 24 24" fill="none" xmlns="http://www.w3.org/2000/svg">
<path d="M18.5001 22H8.7381C8.69375 22 8.65255 21.977 8.62915 21.9394L3.93016 14.3637C3.39568 13.502 3.57248 12.3788 4.34584 11.723C5.3154 10.9008 6.7921 11.1518 7.4356 12.2481L8.66675 14.3457V3.97101C8.66675 2.88245 9.5492 2 10.6378 2C11.7264 2 12.6088 2.88245 12.6088 3.97101V8.63545C12.6088 8.9282 12.841 9.16825 13.1336 9.178L18.9442 9.37215C19.533 9.3918 20.0001 9.8748 20.0001 10.4639V20.5C20.0001 21.3284 19.3286 22 18.5001 22Z" fill="#333333" stroke="#333333" stroke-width="2" stroke-linecap="round" stroke-linejoin="round"/>
</svg>
