<svg width="24" height="24" viewBox="0 0 24 24" fill="none" xmlns="http://www.w3.org/2000/svg">
<path d="M0.693399 13.6402C1.67456 18.3397 6.25555 21.3761 10.973 20.4895L10.97 20.4922C16.4661 19.5945 19.0397 16.2736 21.1317 14.6115C22.2439 13.7279 22.8265 13.2114 23.3966 12.9137C23.0232 12.9768 22.7833 12.8629 22.4611 12.7495C22.1055 12.6241 21.6495 12.4986 20.8041 12.6106C19.1925 12.8244 17.7824 14.4353 17.7824 14.4353L16.9228 15.1995C15.8927 15.997 14.669 16.5788 13.3054 16.8611C11.7388 17.1852 10.1828 17.0744 8.7643 16.6113C8.1895 16.4236 7.63765 16.1776 7.1163 15.8796C5.00295 14.6721 3.39816 12.6051 2.86324 10.0432C2.54786 8.53337 2.64265 7.03347 3.07111 5.65802C1.05687 7.68237 0.0671706 10.6415 0.693399 13.6402Z" fill="#333333"/>
<path fill-rule="evenodd" clip-rule="evenodd" d="M10.973 20.4895L10.97 20.4922C16.4661 19.5945 19.0397 16.2736 21.1317 14.6115C22.2439 13.7279 22.8265 13.2114 23.3966 12.9137C23.0232 12.9766 22.7833 12.8629 22.4611 12.7495C22.1055 12.6241 21.6495 12.4986 20.8041 12.6106C19.1925 12.8244 17.7824 14.4353 17.7824 14.4353L16.9228 15.1995C15.8927 15.997 14.669 16.5788 13.3054 16.8611C11.7388 17.1852 10.1828 17.0744 8.7643 16.6113C8.1895 16.4236 7.63765 16.1776 7.1163 15.8796C5.00295 14.6721 3.39816 12.6051 2.86324 10.0432C2.54786 8.53337 2.64265 7.03347 3.07111 5.65802C1.05687 7.68237 0.0671706 10.6415 0.693399 13.6402C1.67456 18.3397 6.25555 21.3761 10.973 20.4895Z" fill="#333333"/>
<path fill-rule="evenodd" clip-rule="evenodd" d="M17.8746 14.2929C16.5373 18.9659 11.6484 21.6752 6.9545 20.3438C2.86189 19.1833 0.268989 15.3339 0.558056 11.2692C0.898006 14.491 3.15636 17.3379 6.47725 18.2797C10.8386 19.517 15.3812 16.9995 16.6238 12.6572C16.9829 11.402 17.0268 10.1316 16.8025 8.92992C16.5279 7.45937 15.8516 6.09162 14.8592 4.98029C16.1431 5.99197 17.1116 7.33667 17.6703 8.84567C18.2957 10.5345 18.4079 12.4291 17.8746 14.2929Z" fill="#333333"/>
<path d="M13.7295 16.2341L13.9932 16.6934L14.4213 16.5172L14.8163 16.341C15.6128 15.9437 15.5753 16.0038 16.5335 15.3694C17.4917 14.7349 17.9975 14.3494 18.7339 13.4623L18.3243 13.1376C17.8401 13.7485 17.3057 14.2067 16.3898 14.8131C15.8124 15.1954 14.9246 15.6699 13.7295 16.2341Z" fill="white"/>
<path fill-rule="evenodd" clip-rule="evenodd" d="M9.3482 3.05896C10.5228 3.05896 11.6628 3.29367 12.7118 3.72631C8.37625 4.95002 5.6368 9.26443 6.4357 13.7214C6.43625 13.7235 6.4366 13.7259 6.43675 13.728C6.44895 13.7953 6.46185 13.8625 6.4756 13.9296C6.4765 13.9341 6.47735 13.9388 6.4784 13.9432C6.48035 13.9524 6.4819 13.9617 6.4838 13.9709C6.49585 14.0284 6.50875 14.0854 6.5218 14.1422C6.5244 14.1531 6.527 14.1639 6.52965 14.1751C6.53505 14.1986 6.54045 14.2221 6.54725 14.2472C6.6359 14.6111 6.7473 14.966 6.88005 15.3104C5.4048 14.2599 4.44076 12.977 3.82014 11.6407C2.99498 9.86408 2.87518 7.81693 3.51636 5.24098C4.62524 4.2706 5.99325 3.56449 7.5411 3.24418C7.6631 3.21874 7.78505 3.19678 7.907 3.17692C8.39055 3.09746 8.87215 3.05896 9.3482 3.05896ZM2.69278 8.70853L2.70011 8.88398C2.66027 8.34053 2.67189 7.80228 2.7313 7.27468C2.6904 7.76668 2.6771 8.24503 2.69278 8.70853Z" fill="#333333"/>
</svg>
