<svg width="24" height="24" viewBox="0 0 24 24" fill="none" xmlns="http://www.w3.org/2000/svg">
<path fill-rule="evenodd" clip-rule="evenodd" d="M9.42641 4.55793C5.66111 6.97605 3.56932 9.79055 3.15104 13.0014C2.49986 17.9999 6.96996 20.4466 9.23491 18.2483C11.4999 16.05 10.1422 13.2597 8.50211 12.497C6.86206 11.7343 5.85911 11.9999 6.03406 10.9807C6.20901 9.9615 8.54231 7.1356 10.5922 5.81955C10.7282 5.7039 10.78 5.4795 10.649 5.30925C10.5629 5.1973 10.3939 4.97772 10.1422 4.65051C9.92201 4.36437 9.71111 4.37508 9.42641 4.55793Z" fill="#333333"/>
<path fill-rule="evenodd" clip-rule="evenodd" d="M19.3395 4.55793C15.5742 6.97605 13.4824 9.79055 13.0641 13.0014C12.413 17.9999 16.8831 20.4466 19.148 18.2483C21.413 16.05 20.0553 13.2597 18.4152 12.497C16.7752 11.7343 15.7722 11.9999 15.9472 10.9807C16.1221 9.9615 18.4554 7.1356 20.5053 5.81955C20.6413 5.7039 20.6931 5.4795 20.5621 5.30925C20.476 5.1973 20.307 4.97772 20.0553 4.65051C19.8351 4.36437 19.6242 4.37508 19.3395 4.55793Z" fill="#333333"/>
</svg>
