<svg width="24" height="24" viewBox="0 0 24 24" fill="none" xmlns="http://www.w3.org/2000/svg">
<path d="M4.92893 19.0711C8.8342 22.9764 15.1658 22.9764 19.0711 19.0711L4.92893 4.92896C1.02369 8.8342 1.02369 15.1658 4.92893 19.0711Z" fill="#333333" stroke="#333333" stroke-width="2" stroke-linecap="round" stroke-linejoin="round"/>
<path d="M16.9497 16.9498L19.5849 5.95691" stroke="#333333" stroke-width="2" stroke-linecap="round" stroke-linejoin="round"/>
<path d="M12 11.9999L18.5858 5.41418" stroke="#333333" stroke-width="2" stroke-linecap="round" stroke-linejoin="round"/>
<path d="M7.05029 7.05025L18.0431 4.41504" stroke="#333333" stroke-width="2" stroke-linecap="round" stroke-linejoin="round"/>
<path d="M22 4C22 5.10455 21.1045 6 20 6C19.8577 6 19.7188 5.98515 19.5849 5.95685C19.1992 5.87545 18.8545 5.6829 18.5858 5.4142C18.3171 5.14555 18.1245 4.8008 18.0431 4.41506C18.0148 4.28116 18 4.14231 18 4C18 2.89543 18.8954 2 20 2C21.1045 2 22 2.89543 22 4Z" fill="#333333" stroke="#333333" stroke-width="2" stroke-linecap="round" stroke-linejoin="round"/>
</svg>
