<svg width="24" height="24" viewBox="0 0 24 24" fill="none" xmlns="http://www.w3.org/2000/svg">
<path d="M4.92888 15.5355C4.53836 15.145 4.53836 14.5118 4.92888 14.1213L6.40375 12.6464C6.5913 12.4589 6.84565 12.3535 7.11085 12.3535H8.40375C8.669 12.3535 8.92335 12.2482 9.1109 12.0606L12.0606 9.11086C12.2481 8.92336 12.3535 8.66896 12.3535 8.40376V7.11085C12.3535 6.84565 12.4588 6.59131 12.6464 6.40376L14.1212 4.92888C14.5118 4.53836 15.1449 4.53836 15.5355 4.92888L19.071 8.46441C19.4615 8.85496 19.4615 9.48811 19.071 9.87861L17.5961 11.3535C17.4086 11.5411 17.1542 11.6464 16.889 11.6464H15.5961C15.3309 11.6464 15.0766 11.7518 14.889 11.9393L11.9393 14.8891C11.7517 15.0766 11.6464 15.331 11.6464 15.5962V16.8891C11.6464 17.1543 11.541 17.4086 11.3535 17.5962L9.87864 19.071C9.48809 19.4616 8.85495 19.4616 8.4644 19.071L4.92888 15.5355Z" fill="#333333" stroke="#333333" stroke-width="2" stroke-linejoin="round"/>
<path d="M3.51465 20.4851L6.69665 17.3032" stroke="#333333" stroke-width="2" stroke-linecap="round" stroke-linejoin="round"/>
<path d="M17.3037 6.69652L20.4857 3.51453" stroke="#333333" stroke-width="2" stroke-linecap="round" stroke-linejoin="round"/>
</svg>
