<svg width="24" height="24" viewBox="0 0 24 24" fill="none" xmlns="http://www.w3.org/2000/svg">
<path d="M21.9999 21H15.4999L14.0221 14.1036C14.0073 14.0347 13.9999 13.9645 13.9999 13.894V7.49997L10.2847 4.51796C9.85454 4.17269 9.79349 3.54075 10.1496 3.11951C10.4535 2.75999 10.97 2.66706 11.3802 2.89809L15.9999 5.49997L17.9736 12.9015C17.9911 12.967 18.0151 13.0305 18.0454 13.0911L21.9999 21Z" stroke="#333333" stroke-width="2" stroke-linecap="round" stroke-linejoin="round"/>
<path d="M18 13L14 14" stroke="#333333" stroke-width="2" stroke-linecap="round" stroke-linejoin="round"/>
<path d="M9.6895 12.7605L9.72145 12.7872C10.1931 13.1816 10.9056 13.0609 11.2212 12.5332L12 11.2308V8.8846L10.16 7.5L6.98 7.92305L4.90727 11.9708C4.88247 12.0192 4.86165 12.0697 4.84505 12.1215L2 21H7.98V14.5L8.5 12.0436L8.75 11H9.5L9.34815 11.8088C9.28135 12.1644 9.4119 12.5284 9.6895 12.7605Z" stroke="#333333" stroke-width="2" stroke-linecap="round" stroke-linejoin="round"/>
<path d="M5 12.5L8 14" stroke="#333333" stroke-width="2" stroke-linecap="round" stroke-linejoin="round"/>
</svg>
