<svg width="24" height="24" viewBox="0 0 24 24" fill="none" xmlns="http://www.w3.org/2000/svg">
<path d="M11.9998 5.63635C13.004 5.63635 13.818 4.82234 13.818 3.81818C13.818 2.81403 13.004 2 11.9998 2C10.9956 2 10.1816 2.81403 10.1816 3.81818C10.1816 4.82234 10.9956 5.63635 11.9998 5.63635Z" fill="#333333" stroke="#333333" stroke-width="2" stroke-linejoin="round"/>
<path d="M11.9998 22C13.004 22 13.818 21.186 13.818 20.1818C13.818 19.1777 13.004 18.3636 11.9998 18.3636C10.9956 18.3636 10.1816 19.1777 10.1816 20.1818C10.1816 21.186 10.9956 22 11.9998 22Z" fill="#333333" stroke="#333333" stroke-width="2" stroke-linejoin="round"/>
<path d="M3.81818 13.8182C4.82234 13.8182 5.63635 13.0041 5.63635 12C5.63635 10.9958 4.82234 10.1818 3.81818 10.1818C2.81403 10.1818 2 10.9958 2 12C2 13.0041 2.81403 13.8182 3.81818 13.8182Z" fill="#333333" stroke="#333333" stroke-width="2" stroke-linejoin="round"/>
<path d="M20.182 13.8182C21.1861 13.8182 22.0002 13.0041 22.0002 12C22.0002 10.9958 21.1861 10.1818 20.182 10.1818C19.1778 10.1818 18.3638 10.9958 18.3638 12C18.3638 13.0041 19.1778 13.8182 20.182 13.8182Z" fill="#333333" stroke="#333333" stroke-width="2" stroke-linejoin="round"/>
<path d="M16.3672 5.07983C17.396 5.73043 18.2697 6.60418 18.9203 7.63298" stroke="#333333" stroke-width="2" stroke-linecap="round" stroke-linejoin="round"/>
<path d="M18.9203 16.3669C18.2697 17.3958 17.396 18.2695 16.3672 18.9201" stroke="#333333" stroke-width="2" stroke-linecap="round" stroke-linejoin="round"/>
<path d="M7.63323 18.9201C6.60438 18.2695 5.73068 17.3958 5.08008 16.3669" stroke="#333333" stroke-width="2" stroke-linecap="round" stroke-linejoin="round"/>
<path d="M5.08008 7.63298C5.73068 6.60418 6.60438 5.73043 7.63323 5.07983" stroke="#333333" stroke-width="2" stroke-linecap="round" stroke-linejoin="round"/>
</svg>
