<svg width="24" height="24" viewBox="0 0 24 24" fill="none" xmlns="http://www.w3.org/2000/svg">
<path d="M12.0002 5.8095C13.0467 5.8095 13.895 4.95673 13.895 3.90476C13.895 2.85279 13.0467 2 12.0002 2C10.9538 2 10.1055 2.85279 10.1055 3.90476C10.1055 4.95673 10.9538 5.8095 12.0002 5.8095Z" fill="#333333" stroke="#333333" stroke-width="2" stroke-linejoin="round"/>
<path d="M4.89473 20.0953C5.94115 20.0953 6.78945 19.2425 6.78945 18.1906C6.78945 17.1386 5.94115 16.2858 4.89473 16.2858C3.8483 16.2858 3 17.1386 3 18.1906C3 19.2425 3.8483 20.0953 4.89473 20.0953Z" fill="#333333" stroke="#333333" stroke-width="2" stroke-linejoin="round"/>
<path d="M19.1052 20.0953C20.1516 20.0953 20.9999 19.2425 20.9999 18.1906C20.9999 17.1386 20.1516 16.2858 19.1052 16.2858C18.0587 16.2858 17.2104 17.1386 17.2104 18.1906C17.2104 19.2425 18.0587 20.0953 19.1052 20.0953Z" fill="#333333" stroke="#333333" stroke-width="2" stroke-linejoin="round"/>
<path d="M16.5713 5.1571C19.222 6.73145 20.9999 9.6332 20.9999 12.9524C20.9999 13.2408 20.9865 13.5261 20.9603 13.8076" stroke="#333333" stroke-width="2" stroke-linecap="round" stroke-linejoin="round"/>
<path d="M15.507 21.2875C14.4293 21.7463 13.2442 22 12.0001 22C10.756 22 9.57091 21.7463 8.49316 21.2875" stroke="#333333" stroke-width="2" stroke-linecap="round" stroke-linejoin="round"/>
<path d="M3.03968 13.8076C3.01343 13.5261 3 13.2408 3 12.9524C3 9.6332 4.77795 6.73145 7.42865 5.1571" stroke="#333333" stroke-width="2" stroke-linecap="round" stroke-linejoin="round"/>
</svg>
