<svg width="24" height="24" viewBox="0 0 24 24" fill="none" xmlns="http://www.w3.org/2000/svg">
<path d="M11.75 10.2499C11.1731 10.2499 9.57605 10.1656 7.5569 12.4732C6.35575 13.846 6.14345 15.5165 6.2322 16.6782C6.27435 17.2304 6.83445 17.5348 7.34885 17.3295C7.72105 17.181 8.1287 16.9956 8.42225 16.7999C9.2876 16.223 8.99915 15.6461 9.2876 14.7808C9.57605 13.9154 10.7298 13.3385 11.8836 13.627C13.0374 13.9154 13.4785 14.7915 13.6143 15.6461C13.75 16.5 13.25 17.5 12.1721 17.9537C10.9831 18.4542 10.4414 17.9537 8.99915 17.6653C8.24755 17.515 7.496 18.1724 7.06335 18.6491C6.81835 18.919 6.7921 19.3118 7.0046 19.6079C7.14895 19.809 7.33515 20.0396 7.5569 20.2613C8.1338 20.8382 10.4414 22.5689 12.749 22.2805C15.0565 21.992 17.0757 20.2613 17.941 18.2422C18.8064 16.223 18.5 13.5 16.5 12" stroke="#333333" stroke-width="2" stroke-linecap="round" stroke-linejoin="round"/>
<path d="M16.5003 11.9999L11.5642 2.1201C11.4492 1.89009 11.1762 1.78155 10.9533 1.90966C10.4328 2.20875 9.82375 2.771 10.0216 3.6434C10.2769 4.76861 12.7906 13.5242 13.5 14.9999" stroke="#333333" stroke-width="2" stroke-linecap="round" stroke-linejoin="round"/>
<path d="M18 13.5L17.5261 3.84503C17.5139 3.59547 17.3185 3.38931 17.0692 3.40515C16.4684 3.44333 15.6618 3.67905 15.4565 4.55842C15.1943 5.68204 15.0069 7.36264 15 8.99999" stroke="#333333" stroke-width="2" stroke-linecap="round" stroke-linejoin="round"/>
</svg>
