<svg width="24" height="24" viewBox="0 0 24 24" fill="none" xmlns="http://www.w3.org/2000/svg">
<path d="M10.453 3.03136L11.1679 2.55472C11.6718 2.21882 12.3282 2.21882 12.8321 2.55472L13.547 3.03136C16.329 4.88602 18 8.00832 18 11.3519V16.5H6V11.3519C6 8.00832 7.671 4.88602 10.453 3.03136Z" stroke="#333333" stroke-width="2" stroke-linecap="round" stroke-linejoin="round"/>
<path d="M12 13C13.6569 13 15 11.6569 15 10C15 8.34315 13.6569 7 12 7C10.3431 7 9 8.34315 9 10C9 11.6569 10.3431 13 12 13Z" fill="#333333" stroke="#333333" stroke-width="2"/>
<path d="M6 11L3 14.1087V16.5H21V14.1087L18 11" stroke="#333333" stroke-width="2" stroke-linecap="round" stroke-linejoin="round"/>
<path d="M12 19V22" stroke="#333333" stroke-width="2" stroke-linecap="round" stroke-linejoin="round"/>
<path d="M8 20V21" stroke="#333333" stroke-width="2" stroke-linecap="round" stroke-linejoin="round"/>
<path d="M16 20V21" stroke="#333333" stroke-width="2" stroke-linecap="round" stroke-linejoin="round"/>
</svg>
