<svg width="24" height="24" viewBox="0 0 24 24" fill="none" xmlns="http://www.w3.org/2000/svg">
<path d="M12 22C17.5229 22 22 17.5229 22 12C22 6.47715 17.5229 2 12 2C6.47715 2 2 6.47715 2 12C2 17.5229 6.47715 22 12 22Z" stroke="#333333" stroke-width="2" stroke-linecap="round" stroke-linejoin="round"/>
<path d="M12 14C13.1045 14 14 13.1045 14 12C14 10.8954 13.1045 10 12 10C10.8954 10 10 10.8954 10 12C10 13.1045 10.8954 14 12 14Z" fill="#333333" stroke="#333333" stroke-width="2" stroke-linecap="round" stroke-linejoin="round"/>
<path d="M21.9999 12C21.9999 13.6844 21.5744 15.3415 20.7629 16.8176C19.9515 18.2936 18.7803 19.5408 17.3581 20.4433L15.2148 17.066C16.0681 16.5245 16.7708 15.7761 17.2577 14.8905C17.7446 14.0049 17.9999 13.0107 17.9999 12H21.9999Z" fill="#333333" stroke="#333333" stroke-width="2" stroke-linecap="round" stroke-linejoin="round"/>
<path d="M6.71155 20.4873C5.28195 19.5965 4.10055 18.3591 3.27693 16.8898C2.4533 15.4205 2.01416 13.767 2.00024 12.0826L6.0001 12.0496C6.00845 13.0602 6.27195 14.0523 6.7661 14.9339C7.2603 15.8155 7.96915 16.5579 8.8269 17.0924L6.71155 20.4873Z" fill="#333333" stroke="#333333" stroke-width="2" stroke-linecap="round" stroke-linejoin="round"/>
<path d="M7.22119 3.21581C8.70079 2.41085 10.3597 1.99268 12.0441 2.0001C13.7285 2.00752 15.3837 2.44028 16.8561 3.25823L14.9137 6.75495C14.0302 6.26415 13.0371 6.0045 12.0265 6.00005C11.0159 5.9956 10.0205 6.2465 9.13274 6.7295L7.22119 3.21581Z" fill="#333333" stroke="#333333" stroke-width="2" stroke-linecap="round" stroke-linejoin="round"/>
</svg>
