<svg width="24" height="24" viewBox="0 0 24 24" fill="none" xmlns="http://www.w3.org/2000/svg">
<g clip-path="url(#clip0_211_58861)">
<mask id="mask0_211_58861" style="mask-type:luminance" maskUnits="userSpaceOnUse" x="0" y="0" width="24" height="24">
<path d="M24 0H0V24H24V0Z" fill="white"/>
</mask>
<g mask="url(#mask0_211_58861)">
<path d="M16.9496 16.9497C21.6359 12.2634 23.2188 6.24838 20.4851 3.51468C17.7515 0.781015 11.7364 2.36393 7.05008 7.05023C2.3638 11.7365 0.780895 17.7516 3.51457 20.4852C6.24823 23.2189 12.2633 21.636 16.9496 16.9497Z" stroke="#333333" stroke-width="2" stroke-linecap="round" stroke-linejoin="round"/>
<path d="M10.5854 10.5858L13.4138 13.4142" stroke="#333333" stroke-width="2" stroke-linecap="round" stroke-linejoin="round"/>
<path d="M12.707 8.46436L15.5355 11.2928" stroke="#333333" stroke-width="2" stroke-linecap="round" stroke-linejoin="round"/>
<path d="M8.46436 12.7071L11.2928 15.5355" stroke="#333333" stroke-width="2" stroke-linecap="round" stroke-linejoin="round"/>
<path d="M6.34619 17.6598L17.6599 6.34607" stroke="#333333" stroke-width="2" stroke-linecap="round" stroke-linejoin="round"/>
<path d="M2.80713 14.1213L9.87818 21.1924" stroke="#333333" stroke-width="2" stroke-linecap="round" stroke-linejoin="round"/>
<path d="M14.1211 2.80756L21.1922 9.87861" stroke="#333333" stroke-width="2" stroke-linecap="round" stroke-linejoin="round"/>
</g>
</g>
<defs>
<clipPath id="clip0_211_58861">
<rect width="24" height="24" fill="white"/>
</clipPath>
</defs>
</svg>
