<svg width="24" height="24" viewBox="0 0 24 24" fill="none" xmlns="http://www.w3.org/2000/svg">
<path d="M12 15.5V17.5C12 19.5 10.5 21 8.5 21C6.5 21 5 19.5 5 17.5V8" stroke="#333333" stroke-width="2" stroke-linecap="round" stroke-linejoin="round"/>
<path d="M19 21V6.50001C19 4.5 17.5 3 15.5 3C13.5 3 12 4.5 12 6.50001V15.5" stroke="#333333" stroke-width="2" stroke-linecap="round" stroke-linejoin="round"/>
<path d="M16.5 18.5L19 21L21.5 18.5" stroke="#333333" stroke-width="2" stroke-linecap="round" stroke-linejoin="round"/>
<path d="M5 2.99994C3.61929 2.99994 2.5 4.11923 2.5 5.49994C2.5 6.88065 3.61929 7.99994 5 7.99994C6.38071 7.99994 7.5 6.88065 7.5 5.49994C7.5 4.11923 6.38071 2.99994 5 2.99994Z" fill="#333333" stroke="#333333" stroke-width="2"/>
</svg>
