<svg width="24" height="24" viewBox="0 0 24 24" fill="none" xmlns="http://www.w3.org/2000/svg">
<path d="M5.60036 3.42719L5.24616 3.53936C3.5023 4.09159 2.47802 5.89445 2.79724 7.6956C3.16186 9.75295 3.44274 11.7152 3.84463 13.5261C4.23713 15.2946 4.068 16.8703 3.96963 18.5417C3.87352 20.1748 5.17376 21.4634 6.80566 21.5768C9.11716 21.7375 10.8966 19.5362 10.454 17.2618C10.1118 15.5041 9.85281 13.6032 9.96956 12.25C10.0949 10.7977 10.1082 8.6054 10.0846 6.6244C10.0571 4.31654 7.80071 2.73042 5.60036 3.42719Z" stroke="#333333" stroke-width="2" stroke-linecap="round" stroke-linejoin="round"/>
<path d="M17.405 2.86157L17.0205 2.93366C15.2926 3.25764 14.0739 4.81413 14.0571 6.57204C14.0355 8.85069 13.9156 11.0746 14.0001 13C14.0781 14.7765 13.7816 16.0762 13.4915 17.5265C13.1784 19.0914 14.2129 20.5485 15.7616 20.9339C18.004 21.492 20.1178 19.5848 20.0502 17.275C20.0038 15.6873 20.0656 14.019 20.3907 12.7998C20.7854 11.3197 21.1643 8.84839 21.4551 6.64299C21.7606 4.3272 19.7008 2.43109 17.405 2.86157Z" stroke="#333333" stroke-width="2" stroke-linecap="round" stroke-linejoin="round"/>
<path d="M4 14.5C4.5 10 7 7.5 7 7.5C7.8182 8.5 9.00005 11.5 10 14.5" stroke="#333333" stroke-width="2" stroke-miterlimit="2" stroke-linecap="round" stroke-linejoin="round"/>
<path d="M20.0002 15C20.2502 11 17.5002 7 17.5002 7C16.682 8 14.0005 9.6389 14.0005 12.75" stroke="#333333" stroke-width="2" stroke-miterlimit="2" stroke-linecap="round" stroke-linejoin="round"/>
</svg>
