<svg width="24" height="24" viewBox="0 0 24 24" fill="none" xmlns="http://www.w3.org/2000/svg">
<g clip-path="url(#clip0_211_59013)">
<mask id="mask0_211_59013" style="mask-type:luminance" maskUnits="userSpaceOnUse" x="0" y="0" width="24" height="24">
<path d="M24 0H0V24H24V0Z" fill="white"/>
</mask>
<g mask="url(#mask0_211_59013)">
<path d="M10 11.9999C10 11.9999 11.2498 9.74993 11.4998 7.49993C11.7498 5.24993 10.9998 3.49994 10.9998 3.49994L13.5 1.99994C13.5 1.99994 13.9996 4.99994 13.9996 6.49993" stroke="#333333" stroke-width="2" stroke-linecap="round" stroke-linejoin="round"/>
<path d="M3 21.4999C1.99978 20.7499 2.00064 18.0447 4.00026 16.4999C5.99988 14.9552 6.09293 15.3586 8.50003 13.4999C10.9071 11.6413 17 1.99994 17 1.99994L19.2501 3.74994L13.1552 11.87C11.6629 13.8582 11.2758 16.5264 10.0254 18.675C9.05058 20.3501 7.99998 20.9999 6.99998 21.4999C5.99998 21.9999 4.00021 22.2499 3 21.4999Z" fill="#333333" stroke="#333333" stroke-width="2" stroke-linecap="round" stroke-linejoin="round"/>
<path d="M11.5 15C11.5 15 12.9999 14 14.9999 13C16.9999 12 21.5 12 21.5 12L20 8.5C20 8.5 15.9998 8.5 14.5 10" stroke="#333333" stroke-width="2" stroke-linecap="round" stroke-linejoin="round"/>
</g>
</g>
<defs>
<clipPath id="clip0_211_59013">
<rect width="24" height="24" fill="white"/>
</clipPath>
</defs>
</svg>
