<svg width="24" height="24" viewBox="0 0 24 24" fill="none" xmlns="http://www.w3.org/2000/svg">
<path d="M5 21C6.65685 21 8 19.6568 8 18C8 16.3432 6.65685 15 5 15C3.34315 15 2 16.3432 2 18C2 19.6568 3.34315 21 5 21Z" fill="#333333" stroke="#333333" stroke-width="2" stroke-linejoin="round"/>
<path d="M20.0308 4C12 14.2165 7.90235 19.3402 7.1213 20.1213C5.94975 21.2929 4.05024 21.2929 2.87866 20.1213" stroke="#333333" stroke-width="2" stroke-linecap="round" stroke-linejoin="round"/>
<path d="M19 21C20.6568 21 22 19.6568 22 18C22 16.3432 20.6568 15 19 15C17.3432 15 16 16.3432 16 18C16 19.6568 17.3432 21 19 21Z" fill="#333333" stroke="#333333" stroke-width="2" stroke-linejoin="round"/>
<path d="M21.1212 20.1213C19.9497 21.2929 18.0501 21.2929 16.8785 20.1213C16.0975 19.3402 11.9999 14.223 4.00024 4" stroke="#333333" stroke-width="2" stroke-linecap="round" stroke-linejoin="round"/>
</svg>
