<svg width="24" height="24" viewBox="0 0 24 24" fill="none" xmlns="http://www.w3.org/2000/svg">
<path d="M12 21V13" stroke="#333333" stroke-width="2" stroke-linecap="round" stroke-linejoin="round"/>
<path d="M20.9708 5.00337C20.5831 11.5156 16.4057 13.6215 12.9979 13.9514C12.4482 14.0046 12 13.552 12 12.9997V8.81377C12 8.69762 12.0204 8.58017 12.0623 8.47187C13.5588 4.59939 17.1415 4.07747 20.0007 4.00974C20.5528 3.99666 21.0036 4.45203 20.9708 5.00337Z" fill="#333333" stroke="#333333" stroke-width="2" stroke-linecap="round" stroke-linejoin="round"/>
<path d="M3.99916 3.03603C8.66324 3.37829 11.0975 6.08155 11.9169 7.8149C11.9742 7.9361 12 8.0691 12 8.20315V11.955C12 12.5245 11.5196 12.9822 10.9529 12.9252C3.66848 12.1919 3.05546 7.3932 3.00451 3.99935C2.99622 3.44713 3.44836 2.99561 3.99916 3.03603Z" fill="#333333" stroke="#333333" stroke-width="2" stroke-linecap="round" stroke-linejoin="round"/>
</svg>
