<svg width="24" height="24" viewBox="0 0 24 24" fill="none" xmlns="http://www.w3.org/2000/svg">
<path d="M10.3923 9.36497C10.5326 9.22462 10.7602 9.22462 10.9005 9.36497L14.6349 13.0994C14.7753 13.2397 14.7753 13.4673 14.6349 13.6076L8.87863 19.3639C7.70708 20.5355 5.80758 20.5355 4.636 19.3639C3.46443 18.1923 3.46443 16.2928 4.636 15.1213L10.3923 9.36497Z" fill="#333333" stroke="#333333" stroke-width="2"/>
<path d="M21.2906 11.1945C21.465 11.02 21.465 10.7371 21.2906 10.5626L13.4372 2.70918C13.2627 2.53469 12.9798 2.53469 12.8053 2.70918L12.4141 3.10034C10.071 5.44348 10.071 9.24248 12.4141 11.5856C14.7572 13.9288 18.5562 13.9288 20.8994 11.5856L21.2906 11.1945Z" stroke="#333333" stroke-width="2"/>
<path d="M9.93933 14.0605L9.23218 14.7676" stroke="white" stroke-width="2" stroke-linecap="round" stroke-linejoin="round"/>
<path d="M13.8286 8.75732L15.2428 10.1716" stroke="#333333" stroke-width="2" stroke-linecap="round" stroke-linejoin="round"/>
</svg>
