<svg width="24" height="24" viewBox="0 0 24 24" fill="none" xmlns="http://www.w3.org/2000/svg">
<path d="M2.49994 6.9999C1.74993 5.7499 1.49996 3 3.99995 2.49983C4.99995 2.42512 5.74995 2.75005 6.99995 3.99989L12.5 9.9999L11 11.9999" stroke="#333333" stroke-width="2" stroke-linecap="round" stroke-linejoin="round"/>
<path d="M9.49995 7.00006C7.4643 7.35356 3.49998 9.00006 3.99998 14.0001C4.24998 15.5001 4.92958 16.9728 6.49995 18.5001V21.0001" stroke="#333333" stroke-width="2" stroke-linecap="round" stroke-linejoin="round"/>
<path d="M14.5 8.49989C16.6107 8.28509 21.1557 8.71939 22 12.4999C22.2814 13.4307 22.0328 16.0787 19.5 19V21" stroke="#333333" stroke-width="2" stroke-linecap="round" stroke-linejoin="round"/>
<path d="M16.5 21.0001C16.5 19.0671 14.8003 18.0001 13 18.0001C11.1997 18.0001 9.5 19.0671 9.5 21.0001" stroke="#333333" stroke-width="2" stroke-linecap="round"/>
</svg>
