<svg width="24" height="24" viewBox="0 0 24 24" fill="none" xmlns="http://www.w3.org/2000/svg">
<path d="M19.0713 19.0711C20.8809 17.2615 22.0002 14.7615 22.0002 12C22.0002 9.2386 20.8809 6.7386 19.0713 4.92896" stroke="#333333" stroke-width="2" stroke-linecap="round"/>
<path d="M4.92893 4.92896C3.11929 6.7386 2 9.2386 2 12C2 14.7615 3.11929 17.2615 4.92893 19.0711" stroke="#333333" stroke-width="2" stroke-linecap="round"/>
<path d="M7.55025 7.05029C6.2835 8.31704 5.5 10.067 5.5 12C5.5 13.933 6.2835 15.683 7.55025 16.9498" stroke="#333333" stroke-width="2" stroke-linecap="round"/>
<path d="M16.4497 16.9498C17.7165 15.683 18.5 13.933 18.5 12C18.5 10.067 17.7165 8.31704 16.4497 7.05029" stroke="#333333" stroke-width="2" stroke-linecap="round"/>
<path d="M12 22V17" stroke="#333333" stroke-width="2" stroke-linecap="round" stroke-linejoin="round"/>
<path d="M12 2V7" stroke="#333333" stroke-width="2" stroke-linecap="round" stroke-linejoin="round"/>
<path d="M12 13.5C12.8284 13.5 13.5 12.8284 13.5 12C13.5 11.1715 12.8284 10.5 12 10.5C11.1715 10.5 10.5 11.1715 10.5 12C10.5 12.8284 11.1715 13.5 12 13.5Z" fill="#333333"/>
</svg>
