<svg width="24" height="24" viewBox="0 0 24 24" fill="none" xmlns="http://www.w3.org/2000/svg">
<path d="M22 19.9099H2L18.27 10.9099H22V19.9099Z" fill="#333333" stroke="#333333" stroke-width="2" stroke-miterlimit="2" stroke-linecap="round" stroke-linejoin="round"/>
<path d="M1.92871 9.6006L3.54474 10.3996L12.205 5.3996L12.321 3.60059" stroke="#333333" stroke-width="2" stroke-miterlimit="2" stroke-linecap="round" stroke-linejoin="round"/>
<path d="M6.16505 12.4399C6.99345 12.4399 7.66505 11.7683 7.66505 10.9399C7.66505 10.1115 6.99345 9.43994 6.16505 9.43994C5.3366 9.43994 4.66504 10.1115 4.66504 10.9399C4.66504 11.7683 5.3366 12.4399 6.16505 12.4399Z" fill="#333333"/>
<path d="M11.7251 9.43994C12.5535 9.43994 13.2251 8.76834 13.2251 7.93994C13.2251 7.11149 12.5535 6.43994 11.7251 6.43994C10.8966 6.43994 10.2251 7.11149 10.2251 7.93994C10.2251 8.76834 10.8966 9.43994 11.7251 9.43994Z" fill="#333333"/>
</svg>
