<svg width="24" height="24" viewBox="0 0 24 24" fill="none" xmlns="http://www.w3.org/2000/svg">
<path d="M15.1487 9.38928C15.1487 9.38928 13.5341 13.9404 12.7668 14.735C11.9995 15.5295 10.7334 15.5516 9.93884 14.7843C9.14424 14.017 9.12214 12.7509 9.88944 11.9563C10.6567 11.1618 15.1487 9.38928 15.1487 9.38928Z" fill="#333333" stroke="#333333" stroke-width="2" stroke-linejoin="round"/>
<path d="M19.4246 19.4246C21.3248 17.5245 22.5 14.8995 22.5 12C22.5 6.201 17.799 1.5 12 1.5C6.201 1.5 1.5 6.201 1.5 12C1.5 14.8995 2.67525 17.5245 4.57538 19.4246" stroke="#333333" stroke-width="2" stroke-linecap="round" stroke-linejoin="round"/>
<path d="M12 2V4" stroke="#333333" stroke-width="2" stroke-linecap="round" stroke-linejoin="round"/>
<path d="M19.4225 5.57104L17.8682 6.82964" stroke="#333333" stroke-width="2" stroke-linecap="round" stroke-linejoin="round"/>
<path d="M21.2612 13.6164L19.3125 13.1665" stroke="#333333" stroke-width="2" stroke-linecap="round" stroke-linejoin="round"/>
<path d="M2.73877 13.6164L4.68751 13.1665" stroke="#333333" stroke-width="2" stroke-linecap="round" stroke-linejoin="round"/>
<path d="M4.57715 5.57104L6.13143 6.82969" stroke="#333333" stroke-width="2" stroke-linecap="round" stroke-linejoin="round"/>
</svg>
