<svg width="24" height="24" viewBox="0 0 24 24" fill="none" xmlns="http://www.w3.org/2000/svg">
<path d="M16.5 11.9998C18.25 13.4998 18.8064 16.2228 17.941 18.242C17.0757 20.2611 15.0565 21.9918 12.749 22.2803C10.4414 22.5687 8.1338 20.838 7.5569 20.2611C7.33515 20.0394 7.14895 19.8088 7.0046 19.6077C6.7921 19.3116 6.81835 18.9188 7.06335 18.6489C7.496 18.1722 8.24755 17.5148 8.99915 17.6651C10.4414 17.9535 10.9831 18.454 12.1721 17.9535C13.25 17.4998 13.6143 16.5113 13.6143 15.646C13.6143 14.7806 13.0374 13.9153 11.8836 13.6268C10.7298 13.3384 9.57605 13.9153 9.2876 14.7806C8.99915 15.646 9.2876 16.2229 8.42225 16.7997C8.1287 16.9954 7.72105 17.1808 7.34885 17.3293C6.83445 17.5346 6.27435 17.2302 6.2322 16.678C6.14345 15.5163 6.35575 13.8458 7.5569 12.473C8.1798 11.7611 8.76255 11.2768 9.2876 10.9475" stroke="#333333" stroke-width="2" stroke-linecap="round" stroke-linejoin="round"/>
<path d="M16.5 11.9999L11.5639 2.1201C11.449 1.89009 11.176 1.78155 10.953 1.90966C10.4326 2.20875 9.8235 2.771 10.0214 3.6434C10.2766 4.76861 11.7901 10.0242 12.4995 11.4999" stroke="#333333" stroke-width="2" stroke-linecap="round" stroke-linejoin="round"/>
<path d="M11.2494 8.4997L7.81483 5.2398C7.63433 5.0685 7.35213 5.0536 7.18228 5.2355C6.77138 5.67565 6.34523 6.4019 6.80058 7.18305C7.38168 8.17985 8.88048 10.3049 9.99993 11.4997" stroke="#333333" stroke-width="2" stroke-linecap="round" stroke-linejoin="round"/>
</svg>
