<svg width="24" height="24" viewBox="0 0 24 24" fill="none" xmlns="http://www.w3.org/2000/svg">
<path d="M21 17.5V21.5H3V17.5H15.5" stroke="#333333" stroke-width="2" stroke-linecap="round" stroke-linejoin="round"/>
<path d="M19.192 10.9033L4.1569 5.43091L2.78882 9.18971L14.8767 13.5893" stroke="#333333" stroke-width="2" stroke-linecap="round" stroke-linejoin="round"/>
<path d="M4.18481 5.38921L11.441 8.07926C11.449 8.08221 11.4578 8.07816 11.4608 8.07021C11.9681 6.70181 11.27 5.18131 9.90165 4.674L5.1507 2.91272C5.1275 2.90411 5.1017 2.91595 5.0931 2.93916L4.18481 5.38921Z" stroke="#333333" stroke-width="2" stroke-linecap="round" stroke-linejoin="round"/>
<path d="M8.37726 11.36L7.69326 13.2394C7.59881 13.4989 7.31186 13.6327 7.05236 13.5382L3.76345 12.3412C3.50396 12.2467 3.37017 11.9598 3.46462 11.7003L4.14866 9.82092" stroke="#333333" stroke-width="2" stroke-linecap="round" stroke-linejoin="round"/>
<path d="M18 18.5C19.933 18.5 21.5 16.933 21.5 15C21.5 13.067 19.933 11.5 18 11.5C16.067 11.5 14.5 13.067 14.5 15C14.5 16.933 16.067 18.5 18 18.5Z" fill="#333333" stroke="#333333" stroke-width="2"/>
</svg>
