<svg width="24" height="24" viewBox="0 0 24 24" fill="none" xmlns="http://www.w3.org/2000/svg">
<path d="M20 12H6L7.25 17H18L20 12Z" fill="#333333" stroke="#333333" stroke-width="2" stroke-linecap="round" stroke-linejoin="round"/>
<path d="M6 12L4 7.5H1.75" stroke="#333333" stroke-width="2" stroke-linecap="round" stroke-linejoin="round"/>
<path d="M10 22C10.8284 22 11.5 21.3284 11.5 20.5C11.5 19.6716 10.8284 19 10 19C9.17157 19 8.5 19.6716 8.5 20.5C8.5 21.3284 9.17157 22 10 22Z" fill="#333333" stroke="#333333" stroke-width="2" stroke-linecap="round" stroke-linejoin="round"/>
<path d="M15.5 22C16.3284 22 17 21.3284 17 20.5C17 19.6716 16.3284 19 15.5 19C14.6716 19 14 19.6716 14 20.5C14 21.3284 14.6716 22 15.5 22Z" fill="#333333" stroke="#333333" stroke-width="2" stroke-linecap="round" stroke-linejoin="round"/>
<path d="M11.5 4.0001L14 12.0001H20C20 12.0001 21.75 8.0001 18.75 5.0001C15.75 2.00011 12.8333 3.33343 11.5 4.0001Z" fill="#333333" stroke="#333333" stroke-width="2" stroke-linecap="round" stroke-linejoin="round"/>
</svg>
