<svg width="24" height="24" viewBox="0 0 24 24" fill="none" xmlns="http://www.w3.org/2000/svg">
<g clip-path="url(#clip0_211_60287)">
<mask id="mask0_211_60287" style="mask-type:luminance" maskUnits="userSpaceOnUse" x="0" y="0" width="24" height="24">
<path d="M24 0H0V24H24V0Z" fill="white"/>
</mask>
<g mask="url(#mask0_211_60287)">
<path d="M4.99982 17.9999C4.00029 16.2499 3.99939 12.9999 3.99977 8.4999C3.9999 6.9999 5.99964 6.4999 6.99954 7.9999C7.55349 8.83085 7.90784 11.132 7.90784 11.132L11.1553 5.50725C11.5033 4.90452 12.274 4.698 12.8768 5.046C13.4795 5.394 13.686 6.1647 13.338 6.76745L13.5319 6.43165C13.8799 5.8289 14.6506 5.6224 15.2534 5.9704C15.8561 6.3184 16.0627 7.08915 15.7147 7.6919L15.5208 8.0277C15.8688 7.42495 16.6395 7.2184 17.2423 7.5664C17.845 7.9144 18.0515 8.68515 17.7035 9.2879L16.9273 10.6323C17.2757 10.0289 18.0473 9.82215 18.6507 10.1706C19.2532 10.5184 19.4604 11.2883 19.1138 11.8915L14.5293 19.8725C14.4805 19.9574 14.4306 20.0408 14.369 20.1169C14.0832 20.4698 13.0716 21.4999 10.9998 21.4999C8.67029 21.4999 6.23899 20.1695 4.99982 17.9999Z" fill="#333333" stroke="#333333" stroke-width="2" stroke-linecap="round" stroke-linejoin="round"/>
<path d="M18.5 2.5C19.1894 2.86667 20.2527 3.37914 21 4.5C21.5 5.25 21.75 6.25 21.8954 7.5" stroke="#333333" stroke-width="2" stroke-linecap="round" stroke-linejoin="round"/>
</g>
</g>
<defs>
<clipPath id="clip0_211_60287">
<rect width="24" height="24" fill="white"/>
</clipPath>
</defs>
</svg>
