<svg width="24" height="24" viewBox="0 0 24 24" fill="none" xmlns="http://www.w3.org/2000/svg">
<path d="M12 21.5C17.2467 21.5 21.5 17.2467 21.5 12C21.5 6.75329 17.2467 2.5 12 2.5C6.75329 2.5 2.5 6.75329 2.5 12C2.5 17.2467 6.75329 21.5 12 21.5Z" fill="#333333" stroke="#333333" stroke-width="2"/>
<path d="M18.0032 12.2965V12.2965C18.0032 10.8441 16.8258 9.66675 15.3735 9.66675H8.62664C7.17429 9.66675 5.99692 10.8441 5.99692 12.2965V12.2965C5.99692 13.7488 7.17429 14.9262 8.62664 14.9262H15.3735C16.8258 14.9262 18.0032 13.7488 18.0032 12.2965Z" fill="white" stroke="white" stroke-width="2"/>
<path d="M13.0032 12.4263C13.0032 13.807 14.1225 14.9263 15.5032 14.9263C16.8839 14.9263 18.0032 13.807 18.0032 12.4263C18.0032 11.0456 16.8839 9.92627 15.5032 9.92627C14.1225 9.92627 13.0032 11.0456 13.0032 12.4263Z" stroke="white" stroke-width="2"/>
</svg>
