<svg width="24" height="24" viewBox="0 0 24 24" fill="none" xmlns="http://www.w3.org/2000/svg">
<path d="M8 14H4C3.44771 14 3 14.4477 3 15V22" stroke="#333333" stroke-width="2" stroke-linejoin="round"/>
<path d="M16 14H20C20.5523 14 21 14.4477 21 15V22" stroke="#333333" stroke-width="2" stroke-linejoin="round"/>
<path d="M9.99971 12H13.9997C13.9997 12 16.5826 9.16075 15.9997 7.5C15.6223 6.4247 14.7808 5.82985 13.9997 5C13.2187 4.17014 11.9997 3 11.9997 3C11.9997 3 10.7808 4.17014 9.99971 5C9.21866 5.82985 8.37711 6.4247 7.99971 7.5C7.41686 9.16075 9.99971 12 9.99971 12Z" fill="#333333" stroke="#333333" stroke-width="2" stroke-linejoin="round"/>
<path d="M2 22H22" stroke="#333333" stroke-width="2" stroke-linecap="round" stroke-linejoin="round"/>
<path d="M8 12H12H16V22H8V12Z" fill="#333333" stroke="#333333" stroke-width="2" stroke-linecap="round" stroke-linejoin="round"/>
<path d="M12 17V22" stroke="white" stroke-width="2" stroke-linecap="round"/>
<path d="M12 2V3.5" stroke="#333333" stroke-width="2" stroke-linecap="round"/>
<path d="M5 12V14" stroke="#333333" stroke-width="2" stroke-linecap="round"/>
<path d="M19 12V14" stroke="#333333" stroke-width="2" stroke-linecap="round"/>
<path d="M10 22H14" stroke="#333333" stroke-width="2" stroke-linecap="round"/>
</svg>
