<svg width="24" height="24" viewBox="0 0 24 24" fill="none" xmlns="http://www.w3.org/2000/svg">
<path d="M5.49978 20L3.3959 15.4416C2.87998 14.3238 3.25468 12.9968 4.27905 12.3138L5.23118 11.6791C5.39468 11.5701 5.60688 11.567 5.77353 11.6711L5.99978 11.8125L5.06433 4.97214C5.02298 4.66965 5.10253 4.36305 5.28568 4.1188C5.54198 3.77706 6.02683 3.7078 6.36858 3.96411L6.43513 4.01403C6.64018 4.16783 6.79458 4.37946 6.87843 4.6217L8.93428 10.5609C8.97348 10.6741 9.08013 10.75 9.19993 10.75C9.36233 10.75 9.49093 10.6129 9.48048 10.4508L9.03903 3.60866C9.01408 3.22178 9.15693 2.84288 9.43103 2.56875C9.75483 2.24497 10.2703 2.21642 10.6278 2.50246L10.7981 2.63865C11.0888 2.87121 11.2826 3.20357 11.3419 3.57111L12.4612 10.5111C12.4834 10.6488 12.6023 10.75 12.7418 10.75C12.8881 10.75 13.0105 10.6389 13.0246 10.4932L13.6887 3.63089C13.7278 3.22757 13.9283 2.8572 14.2447 2.60407L14.3479 2.52148C14.719 2.22461 15.254 2.25424 15.59 2.59027C15.8524 2.85263 15.9998 3.20846 15.9998 3.57948V9.95567C15.9998 9.98517 16.0023 10.0142 16.0085 10.043C16.0643 10.3001 16.4035 11.6346 17.4998 12C17.9535 12.1513 18.6817 13.4004 19.1862 14.3637C19.5563 15.0703 19.5208 15.9122 19.1334 16.6095L17.2498 20C17.2498 20 15.4998 22 11.4998 22C7.49978 22 5.83313 20.6667 5.49978 20Z" fill="#333333" stroke="#333333" stroke-width="2" stroke-linecap="round" stroke-linejoin="round"/>
</svg>
