<svg width="24" height="24" viewBox="0 0 24 24" fill="none" xmlns="http://www.w3.org/2000/svg">
<path d="M17.0002 15V14.4945C17.0002 13.6691 17.6693 13 18.4947 13C19.3193 13 19.988 13.6678 19.9892 14.4923L19.9952 18.5926C19.998 20.4736 18.4739 22 16.5929 22H12.8238C10.6173 22 8.54131 20.9544 7.22781 19.1815L5.09521 16.3031C4.73505 15.817 4.70317 15.1618 5.01446 14.6429C5.51516 13.8084 6.66681 13.6666 7.35501 14.3548L8.00021 15V8C8.00021 7.17155 8.67176 6.5 9.50021 6.5C10.3287 6.5 11.0002 7.17155 11.0002 8V13.9375V10.5132C11.0002 9.67745 11.6777 9 12.5134 9C13.3491 9 14.0265 9.67745 14.0265 10.5132V14.5V13.9494C14.0265 13.1282 14.6922 12.4625 15.5134 12.4625C16.3345 12.4625 17.0002 13.1282 17.0002 13.9494V15Z" stroke="#333333" stroke-width="2" stroke-linecap="round" stroke-linejoin="round"/>
<path d="M16 2V6" stroke="#333333" stroke-width="2" stroke-linecap="round"/>
<path d="M8 10H3V8C4 8 5 7.25 4.98701 6C4.97402 4.75 4 4 3 4V2H21V4C20 4 19.026 4.75 19.013 6C19 7.25 20 8 21 8V10H14" stroke="#333333" stroke-width="2" stroke-linecap="round" stroke-linejoin="round"/>
</svg>
