<svg width="24" height="24" viewBox="0 0 24 24" fill="none" xmlns="http://www.w3.org/2000/svg">
<path d="M6.85728 10.2856C8.75083 10.2856 10.2859 8.75058 10.2859 6.85704C10.2859 4.96349 8.75083 3.42847 6.85728 3.42847C4.96373 3.42847 3.42871 4.96349 3.42871 6.85704C3.42871 8.75058 4.96373 10.2856 6.85728 10.2856Z" fill="#333333" stroke="#333333" stroke-width="2" stroke-linecap="round" stroke-linejoin="round"/>
<path d="M17.1429 20.5713C19.0365 20.5713 20.5715 19.0362 20.5715 17.1427C20.5715 15.2491 19.0365 13.7141 17.1429 13.7141C15.2494 13.7141 13.7144 15.2491 13.7144 17.1427C13.7144 19.0362 15.2494 20.5713 17.1429 20.5713Z" fill="#333333" stroke="#333333" stroke-width="2" stroke-linecap="round" stroke-linejoin="round"/>
<path d="M12.0005 22C6.47765 22 2.00049 17.5229 2.00049 12L5.3338 13.6666" stroke="#333333" stroke-width="2" stroke-linecap="round" stroke-linejoin="round"/>
<path d="M12.0005 2C17.5233 2 22.0005 6.47715 22.0005 12L18.6671 10.3334" stroke="#333333" stroke-width="2" stroke-linecap="round" stroke-linejoin="round"/>
</svg>
