<svg width="24" height="24" viewBox="0 0 24 24" fill="none" xmlns="http://www.w3.org/2000/svg">
<path d="M2 18H22L19.5 22H4.5L2 18Z" stroke="#333333" stroke-width="2" stroke-linecap="round" stroke-linejoin="round"/>
<path d="M5.5 15V18H18.5V15.5C18.5 12.5 17 11.5 17 11.5C18 10.25 18.5 8.50003 17 7.50003C15.5 6.50003 14.25 7.50003 13.5 8.50003C13.5 8.50003 5.5 7.50003 5.5 15Z" fill="#333333" stroke="#333333" stroke-width="2" stroke-linecap="round" stroke-linejoin="round"/>
<path d="M10.5 12C10.5 12 10 12.25 9.5 13C9 13.75 9 14.5 9 14.5" stroke="white" stroke-width="2" stroke-linecap="round"/>
<path d="M19.5 4.5C19.2334 4.82 17.7222 6.63335 17 7.5" stroke="#333333" stroke-width="2"/>
<path d="M18.4596 4.76434C19.0246 5.16101 19.8042 5.02456 20.2009 4.45954C20.5976 3.89453 20.4611 3.11493 19.8961 2.71825C19.3311 2.32157 18.5515 2.45803 18.1548 3.02304C17.7581 3.58805 17.8946 4.36766 18.4596 4.76434Z" fill="#333333"/>
<path d="M19.6871 5.62627C20.2521 6.02295 21.0317 5.88649 21.4284 5.32148C21.8251 4.75647 21.6886 3.97687 21.1236 3.58019C20.5586 3.18351 19.779 3.31997 19.3823 3.88498C18.9857 4.44999 19.1221 5.22959 19.6871 5.62627Z" fill="#333333"/>
</svg>
