<svg width="24" height="24" viewBox="0 0 24 24" fill="none" xmlns="http://www.w3.org/2000/svg">
<path d="M6.2829 13.5912C5.42765 14.1771 5 15.1467 5 16.5001C5 18.5301 7.48765 22.0001 9.7309 22.0001C11.9741 22.0001 13.2751 22.0001 15.4707 22.0001C17.6664 22.0001 19 20.0748 19 18.5301C19 16.3549 19 14.1798 19 12.0046C19 11.1762 18.3285 10.5046 17.5 10.5046H17.4954C16.6695 10.5046 16 11.1742 16 12.0001" stroke="#333333" stroke-width="2" stroke-linecap="round"/>
<path d="M6.99072 14.7226V5.50295C6.99072 4.67518 7.66172 4.00415 8.48947 4.00415C8.49087 4.00415 8.49227 4.00415 8.49362 4.00416C9.32432 4.00646 9.99657 4.68053 9.99657 5.51125V12.296" stroke="#333333" stroke-width="2" stroke-linecap="round"/>
<path d="M9.99658 12.0042V3.50775C9.99658 2.67504 10.6716 2 11.5043 2C12.337 2 13.012 2.67504 13.012 3.50775V12.0042" stroke="#333333" stroke-width="2" stroke-linecap="round" stroke-linejoin="round"/>
<path d="M13 11.8579V10.5017C13 9.67331 13.6715 9.00171 14.5 9.00171C15.3285 9.00171 16 9.67331 16 10.5017V12.0017" stroke="#333333" stroke-width="2" stroke-linecap="round" stroke-linejoin="round"/>
</svg>
