<svg width="24" height="24" viewBox="0 0 24 24" fill="none" xmlns="http://www.w3.org/2000/svg">
<path d="M13.3721 22H12.9245C10.3194 22 7.88961 20.6871 6.46191 18.508L5.36416 16.8326C4.58512 15.6434 4.81515 14.0601 5.90036 13.1418L7.04411 12.1741C7.17456 12.0637 7.24976 11.9015 7.24976 11.7305V3.625C7.24976 2.72754 7.97731 2 8.87476 2C9.77221 2 10.4998 2.72754 10.4998 3.625V3.125C10.4998 2.22754 11.2273 1.5 12.1248 1.5C13.0222 1.5 13.7498 2.22754 13.7498 3.125V8.875C13.7498 7.97755 14.4773 7.25 15.3748 7.25C16.2722 7.25 16.9998 7.97755 16.9998 8.875V10.875C16.9998 9.97755 17.7273 9.25 18.6248 9.25C19.5222 9.25 20.2498 9.97755 20.2498 10.875V15.9844C20.2498 16.8088 20.0007 17.6141 19.5351 18.2945L19.0483 19.006C17.7663 20.8797 15.6423 22 13.3721 22Z" fill="#333333" stroke="#333333" stroke-width="2" stroke-linecap="round" stroke-linejoin="round"/>
</svg>
