<svg width="24" height="24" viewBox="0 0 24 24" fill="none" xmlns="http://www.w3.org/2000/svg">
<path d="M5.50023 19.9999L3.44678 15.5508C2.9092 14.386 3.34044 13.0034 4.44485 12.3508L7.21528 10.7138C7.69753 10.4288 8.29838 10.4363 8.77338 10.7331L9.11693 10.9479C9.47268 11.1702 9.92753 10.8821 9.87853 10.4655L9.07428 3.6294C9.02753 3.23187 9.16538 2.83481 9.44838 2.55177C9.76258 2.23761 10.2627 2.20991 10.6096 2.48746L10.7985 2.63857C11.0892 2.87113 11.2831 3.20349 11.3423 3.57103L12.4617 10.511C12.4839 10.6487 12.6028 10.7499 12.7422 10.7499C12.8886 10.7499 13.011 10.6388 13.0251 10.4931L13.6892 3.63081C13.7282 3.22749 13.9287 2.85712 14.2452 2.60399L14.3484 2.5214C14.7195 2.22453 15.2544 2.25416 15.5905 2.59019C15.8528 2.85255 16.0002 3.20838 16.0002 3.5794V14.7096C16.0002 15.1289 16.485 15.3621 16.8124 15.1002L18.5002 13.7499C19.3267 13.0888 20.4377 13.5204 21.1277 13.9724C21.347 14.1161 21.3796 14.4132 21.2237 14.624L17.2502 19.9999C17.2502 19.9999 15.5002 21.9999 11.5002 21.9999C7.50023 21.9999 5.83358 20.6666 5.50023 19.9999Z" fill="#333333" stroke="#333333" stroke-width="2" stroke-linecap="round" stroke-linejoin="round"/>
</svg>
