<svg width="24" height="24" viewBox="0 0 24 24" fill="none" xmlns="http://www.w3.org/2000/svg">
<path d="M18.9932 2.2041H5.27891C4.73789 2.2041 4.29932 2.64268 4.29932 3.18369V20.8163C4.29932 21.3574 4.73789 21.7959 5.27891 21.7959H18.9932C19.5342 21.7959 19.9728 21.3574 19.9728 20.8163V3.18369C19.9728 2.64268 19.5342 2.2041 18.9932 2.2041Z" stroke="#333333" stroke-width="1.95918"/>
<path d="M4.29932 7.83679H19.9728" stroke="#333333" stroke-width="1.95918" stroke-linecap="round" stroke-linejoin="round"/>
<path d="M14.0953 6.12239C14.6363 6.12239 15.0749 5.68381 15.0749 5.1428C15.0749 4.60179 14.6363 4.16321 14.0953 4.16321C13.5543 4.16321 13.1157 4.60179 13.1157 5.1428C13.1157 5.68381 13.5543 6.12239 14.0953 6.12239Z" fill="#333333"/>
<path d="M17.0338 6.12239C17.5748 6.12239 18.0134 5.68381 18.0134 5.1428C18.0134 4.60179 17.5748 4.16321 17.0338 4.16321C16.4928 4.16321 16.0542 4.60179 16.0542 5.1428C16.0542 5.68381 16.4928 6.12239 17.0338 6.12239Z" fill="#333333"/>
<path d="M12.1361 18.3674C14.0296 18.3674 15.5647 16.8324 15.5647 14.9388C15.5647 13.0453 14.0296 11.5103 12.1361 11.5103C10.2425 11.5103 8.70752 13.0453 8.70752 14.9388C8.70752 16.8324 10.2425 18.3674 12.1361 18.3674Z" fill="#333333" stroke="#333333" stroke-width="1.95918"/>
</svg>
