<svg width="24" height="24" viewBox="0 0 24 24" fill="none" xmlns="http://www.w3.org/2000/svg">
<path d="M17.2588 6.92312L17 5.49997L13.5653 3.78259C12.5799 3.28992 11.4201 3.28992 10.4347 3.78259L8.69065 4.65466M17.8458 10.1523L18.5 13.75L19.5455 19.5M18 22H4L4.478 19.371M5.3182 14.75L6.7859 6.67767" stroke="#333333" stroke-width="2" stroke-linecap="round" stroke-linejoin="round"/>
<path d="M19.6464 4.3536C19.8416 4.15834 20.1582 4.15834 20.3535 4.3536L21.6464 5.6465C21.8416 5.84175 21.8416 6.15835 21.6464 6.3536L17.3535 10.6465C17.1582 10.8417 16.8416 10.8417 16.6464 10.6465L15.3535 9.3536C15.1582 9.15835 15.1582 8.84175 15.3535 8.6465L19.6464 4.3536Z" stroke="#333333" stroke-width="2" stroke-linejoin="round"/>
<path d="M13.5 10.5L15.5 8.5" stroke="#333333" stroke-width="2" stroke-linecap="round" stroke-linejoin="round"/>
<path d="M19.6464 19.6465C19.8416 19.8417 19.8416 20.1583 19.6464 20.3536L18.3535 21.6465C18.1582 21.8417 17.8416 21.8417 17.6464 21.6465L13.3535 17.3536C13.1582 17.1583 13.1582 16.8417 13.3535 16.6465L14.6464 15.3536C14.8416 15.1583 15.1582 15.1583 15.3535 15.3536L19.6464 19.6465Z" stroke="#333333" stroke-width="2" stroke-linejoin="round"/>
<path d="M13.5 13.5L15.5 15.5" stroke="#333333" stroke-width="2" stroke-linecap="round" stroke-linejoin="round"/>
<path d="M4.35348 19.6465C4.15822 19.8417 3.84164 19.8417 3.64637 19.6465L2.35348 18.3536C2.15822 18.1583 2.15822 17.8417 2.35348 17.6465L6.64638 13.3536C6.84163 13.1583 7.15823 13.1583 7.35348 13.3536L8.64638 14.6465C8.84163 14.8417 8.84163 15.1583 8.64638 15.3536L4.35348 19.6465Z" stroke="#333333" stroke-width="2" stroke-linejoin="round"/>
<path d="M10.5 13.5L8.5 15.5" stroke="#333333" stroke-width="2" stroke-linecap="round" stroke-linejoin="round"/>
<path d="M4.35348 4.3536C4.15822 4.15834 4.15822 3.84176 4.35348 3.64649L5.64637 2.3536C5.84162 2.15834 6.15822 2.15834 6.35347 2.3536L10.6464 6.6465C10.8416 6.84175 10.8416 7.15835 10.6464 7.3536L9.35347 8.6465C9.15822 8.84175 8.84162 8.84175 8.64637 8.6465L4.35348 4.3536Z" stroke="#333333" stroke-width="2" stroke-linejoin="round"/>
<path d="M10.5 10.5L8.5 8.5" stroke="#333333" stroke-width="2" stroke-linecap="round" stroke-linejoin="round"/>
<path d="M12 14C13.1046 14 14 13.1046 14 12C14 10.8954 13.1046 10 12 10C10.8954 10 10 10.8954 10 12C10 13.1046 10.8954 14 12 14Z" stroke="#333333" stroke-width="2"/>
</svg>
