<svg width="24" height="24" viewBox="0 0 24 24" fill="none" xmlns="http://www.w3.org/2000/svg">
<path d="M16.2426 12.2427C17.3284 11.1568 18 9.65685 18 8C18 4.68629 15.3137 2 12 2C8.6863 2 6 4.68629 6 8C6 9.65685 6.67155 11.1568 7.75735 12.2427" stroke="#333333" stroke-width="2" stroke-linecap="round"/>
<path d="M3 22L3.5 19.5L9 15.5L12 18.5L15 15.5L20.5 19.5L21 22" stroke="#333333" stroke-width="2" stroke-linecap="round" stroke-linejoin="round"/>
<path d="M6.49658 10.5036C6.50293 8.44825 6.83733 6.94705 7.49988 5.99995C8.49373 4.57936 9.19338 4.68378 9.70258 4.90505C10.2118 5.1263 10.5112 6.5721 11.3617 6.98885C12.2122 7.4056 14.3887 7.45705 15.1342 7.95835C15.8797 8.4597 17.5847 9.3922 17.1596 10.9842" stroke="#333333" stroke-width="2"/>
</svg>
