<svg width="24" height="24" viewBox="0 0 24 24" fill="none" xmlns="http://www.w3.org/2000/svg">
<path d="M12 22C17.5229 22 22 17.5229 22 12C22 6.47715 17.5229 2 12 2C6.47715 2 2 6.47715 2 12C2 17.5229 6.47715 22 12 22Z" stroke="#333333" stroke-width="2"/>
<path d="M2 10.4202C3.50742 9.7084 4.62233 9.60925 5.3447 10.1227C6.4283 10.893 6.56415 14.032 9.02875 12.5318C11.4934 11.0315 7.97335 10.4202 8.7375 8.24695C9.50165 6.0737 12.0041 7.76185 12.2529 5.38135C12.4187 3.79431 10.5204 3.18707 6.5578 3.55961" stroke="#333333" stroke-width="2"/>
<path d="M18.0002 4C15.143 6.4943 14.1451 8.00055 15.0065 8.51865C16.2985 9.29585 16.8468 8.20165 18.4235 8.51865C20.0002 8.8357 19.6588 10.9728 18.8295 10.9728C18.0002 10.9728 13.7051 10.4259 13.9215 12.9325C14.1378 15.439 16.7212 15.8102 16.7212 17.2106C16.7212 18.1442 16.1496 19.573 15.0065 21.4971" stroke="#333333" stroke-width="2" stroke-linecap="round"/>
<path d="M3.05225 16.4632C3.50799 16.2644 3.85058 16.1187 4.08 16.026C6.00355 15.2489 7.43085 15.0657 8.3618 15.4765C10.0081 16.203 9.37515 17.6701 9.8908 18.2106C10.4064 18.7511 11.694 18.5938 11.694 19.622C11.694 20.3075 11.4638 21.0819 11.0033 21.9451" stroke="#333333" stroke-width="2" stroke-linecap="round"/>
</svg>
