<svg width="24" height="24" viewBox="0 0 24 24" fill="none" xmlns="http://www.w3.org/2000/svg">
<path d="M2 10L12 3L22 10V21H2V10Z" fill="#333333" stroke="#333333" stroke-width="2" stroke-linecap="round" stroke-linejoin="round"/>
<path d="M6.34326 13.3432C7.08616 12.6003 7.96806 12.011 8.93866 11.6089C9.90926 11.2069 10.9496 11 12.0001 11C13.0507 11 14.091 11.2069 15.0616 11.6089C16.0322 12.011 16.9141 12.6003 17.657 13.3432" stroke="white" stroke-width="2" stroke-linecap="round" stroke-linejoin="round"/>
<path d="M9.17139 16.1716C9.54279 15.8002 9.98379 15.5055 10.4691 15.3045C10.9544 15.1034 11.4745 15 11.9998 15C12.5251 15 13.0452 15.1034 13.5305 15.3045C14.0158 15.5055 14.4568 15.8002 14.8282 16.1716" stroke="white" stroke-width="2" stroke-linecap="round" stroke-linejoin="round"/>
</svg>
