<svg width="24" height="24" viewBox="0 0 24 24" fill="none" xmlns="http://www.w3.org/2000/svg">
<g clip-path="url(#clip0_201_66019)">
<path d="M23.1205 0.878869C21.949 -0.292631 20.05 -0.292631 18.8785 0.878869L14.845 4.91237L12.001 2.06837L8.81951 5.24987L11.314 7.74437L0.248507 18.8099C0.0595071 18.9989 -0.0199929 19.2539 0.00700708 19.4999H0.00100708V23.2499C0.00100708 23.6639 0.337007 23.9999 0.751007 23.9999H4.50101C4.50101 23.9999 4.56401 23.9999 4.59551 23.9999C4.81151 23.9999 5.02751 23.9174 5.19251 23.7524L16.258 12.6869L18.7525 15.1814L21.934 11.9999L19.09 9.15587L23.1235 5.12237C24.295 3.95087 24.295 2.05187 23.1235 0.880369L23.1205 0.878869ZM4.05701 22.4999H1.49951V19.9424L12.505 8.93687L15.061 11.4929L4.05551 22.4984L4.05701 22.4999Z" fill="black"/>
</g>
<defs>
<clipPath id="clip0_201_66019">
<rect width="24" height="24" fill="white"/>
</clipPath>
</defs>
</svg>
