<svg width="24" height="24" viewBox="0 0 24 24" fill="none" xmlns="http://www.w3.org/2000/svg">
<path d="M20.265 11.0895C18.7245 6.7905 15.4575 2.9295 12 0C8.54251 2.9295 5.27701 6.7905 3.73501 11.0895C2.78251 13.7475 2.68801 16.6335 4.03051 19.185C5.57401 22.1175 8.68651 24 12 24C15.3135 24 18.426 22.1175 19.9695 19.185C21.312 16.6335 21.2175 13.749 20.265 11.0895ZM17.3145 17.7885C16.2885 19.74 14.202 21 12 21C10.7085 21 9.45601 20.565 8.43451 19.8135C8.74501 19.854 9.05851 19.875 9.37501 19.875C12.1275 19.875 14.7345 18.3 16.017 15.861C17.0685 13.8615 16.977 11.787 16.5765 10.134C16.917 10.794 17.2065 11.451 17.4405 12.1005C17.97 13.578 18.378 15.765 17.3145 17.787V17.7885Z" fill="black"/>
</svg>
