<svg width="24" height="24" viewBox="0 0 24 24" fill="none" xmlns="http://www.w3.org/2000/svg">
<path d="M7.125 14.25C7.125 16.9425 9.3075 19.125 12 19.125C14.6925 19.125 16.875 16.9425 16.875 14.25C16.875 11.5575 14.6925 9.375 12 9.375C9.3075 9.375 7.125 11.5575 7.125 14.25ZM22.5 6H17.25C16.875 4.5 16.5 3 15 3H9C7.5 3 7.125 4.5 6.75 6H1.5C0.675 6 0 6.675 0 7.5V21C0 21.825 0.675 22.5 1.5 22.5H22.5C23.325 22.5 24 21.825 24 21V7.5C24 6.675 23.325 6 22.5 6ZM12 20.907C8.3235 20.907 5.343 17.9265 5.343 14.25C5.343 10.5735 8.3235 7.593 12 7.593C15.6765 7.593 18.657 10.5735 18.657 14.25C18.657 17.9265 15.6765 20.907 12 20.907ZM22.5 10.5H19.5V9H22.5V10.5Z" fill="black"/>
</svg>
