<svg width="24" height="24" viewBox="0 0 24 24" fill="none" xmlns="http://www.w3.org/2000/svg">
<g clip-path="url(#clip0_201_66035)">
<path d="M6.75 13.5H5.25V24H6.75C7.1625 24 7.5 23.6625 7.5 23.25V14.25C7.5 13.8375 7.1625 13.5 6.75 13.5Z" fill="black"/>
<path d="M17.25 13.5C16.8375 13.5 16.5 13.8375 16.5 14.25V23.25C16.5 23.6625 16.8375 24 17.25 24H18.75V13.5H17.25Z" fill="black"/>
<path d="M24 12C24 5.373 18.627 0 12 0C5.373 0 0 5.373 0 12C0 13.44 0.2535 14.82 0.7185 16.098C0.2625 16.8765 0 17.7825 0 18.75C0 21.3945 1.956 23.583 4.5 23.946V13.554C3.7515 13.6605 3.0555 13.926 2.4435 14.313C2.3175 13.6875 2.25 13.0395 2.25 12.375C2.25 6.99 6.615 2.625 12 2.625C17.385 2.625 21.75 6.99 21.75 12.375C21.75 13.038 21.684 13.686 21.558 14.313C20.946 13.9245 20.2485 13.6605 19.5 13.5525V23.946C22.044 23.5815 24 21.3945 24 18.75C24 17.7825 23.7375 16.8765 23.2815 16.098C23.7465 14.8185 24 13.4385 24 12Z" fill="black"/>
</g>
<defs>
<clipPath id="clip0_201_66035">
<rect width="24" height="24" fill="white"/>
</clipPath>
</defs>
</svg>
