<svg width="24" height="24" viewBox="0 0 24 24" fill="none" xmlns="http://www.w3.org/2000/svg">
<g clip-path="url(#clip0_201_66039)">
<path d="M22.5 0H24V17.25C24 19.3215 21.6495 21 18.75 21C15.8505 21 13.5 19.3215 13.5 17.25C13.5 15.1785 15.8505 13.5 18.75 13.5C20.2185 13.5 21.5475 13.9305 22.5 14.6265V6L10.5 8.667V20.25C10.5 22.3215 8.1495 24 5.25 24C2.3505 24 0 22.3215 0 20.25C0 18.1785 2.3505 16.5 5.25 16.5C6.7185 16.5 8.0475 16.9305 9 17.6265V3L22.5 0Z" fill="black"/>
</g>
<defs>
<clipPath id="clip0_201_66039">
<rect width="24" height="24" fill="white"/>
</clipPath>
</defs>
</svg>
