<svg width="24" height="24" viewBox="0 0 24 24" fill="none" xmlns="http://www.w3.org/2000/svg">
<g clip-path="url(#clip0_201_66041)">
<path d="M22.9965 3.753C19.6305 3.2685 15.9105 3 12 3C8.0895 3 4.3695 3.2685 1.0035 3.753C0.3585 6.2775 0 9.0675 0 12C0 14.9325 0.3585 17.7225 1.0035 20.247C4.3695 20.7315 8.0895 21 12 21C15.9105 21 19.6305 20.7315 22.9965 20.247C23.6415 17.7225 24 14.9325 24 12C24 9.0675 23.6415 6.2775 22.9965 3.753ZM9 16.5V7.5L16.5 12L9 16.5Z" fill="black"/>
</g>
<defs>
<clipPath id="clip0_201_66041">
<rect width="24" height="24" fill="white"/>
</clipPath>
</defs>
</svg>
