<svg width="24" height="24" viewBox="0 0 24 24" fill="none" xmlns="http://www.w3.org/2000/svg">
<path d="M9 6.75C9 4.6785 10.6785 3 12.75 3C14.8215 3 16.5 4.6785 16.5 6.75C16.5 8.8215 14.8215 10.5 12.75 10.5C10.6785 10.5 9 8.8215 9 6.75ZM0 6.75C0 4.6785 1.6785 3 3.75 3C5.8215 3 7.5 4.6785 7.5 6.75C7.5 8.8215 5.8215 10.5 3.75 10.5C1.6785 10.5 0 8.8215 0 6.75ZM18 14.25V12C18 11.175 17.325 10.5 16.5 10.5H1.5C0.675 10.5 0 11.175 0 12V19.5C0 20.325 0.675 21 1.5 21H16.5C17.325 21 18 20.325 18 19.5V17.25L24 21V10.5L18 14.25ZM15 18H3V13.5H15V18Z" fill="black"/>
</svg>
