<svg width="24" height="24" viewBox="0 0 24 24" fill="none" xmlns="http://www.w3.org/2000/svg">
<g clip-path="url(#clip0_201_66053)">
<path d="M18.441 9.20553C17.058 9.20553 15.8145 9.78154 14.9295 10.722C14.5545 11.1195 13.9035 11.592 13.2 12.006C13.53 10.743 14.5755 9.15304 15.3 8.45553C16.2285 7.56154 16.8 6.30303 16.8 4.90504C16.8 2.21254 14.6565 0.0270352 12 -0.00146484C9.34349 0.0270352 7.19999 2.21104 7.19999 4.90504C7.19999 6.30303 7.76999 7.56154 8.69999 8.45553C9.42599 9.15304 10.47 10.743 10.8 12.006C10.0965 11.5905 9.44549 11.1195 9.07049 10.722C8.18549 9.78154 6.94199 9.20553 5.55899 9.20553C2.87849 9.20553 0.704987 11.4 0.704987 14.112C0.704987 16.824 2.87699 19.0185 5.55899 19.0185C6.94349 19.0185 8.18549 18.4245 9.07049 17.484C9.46499 17.0655 10.1595 16.5435 10.905 16.11C10.8345 19.572 9.18149 22.1145 7.49849 23.115V24H16.4985V23.115C14.8155 22.113 13.1625 19.5705 13.092 16.11C13.839 16.5435 14.5335 17.0655 14.9265 17.484C15.8115 18.423 17.055 19.0185 18.438 19.0185C21.1185 19.0185 23.292 16.8225 23.292 14.112C23.292 11.4015 21.12 9.20553 18.438 9.20553H18.441Z" fill="black"/>
</g>
<defs>
<clipPath id="clip0_201_66053">
<rect width="24" height="24" fill="white"/>
</clipPath>
</defs>
</svg>
