<svg width="24" height="24" viewBox="0 0 24 24" fill="none" xmlns="http://www.w3.org/2000/svg">
<g clip-path="url(#clip0_201_66057)">
<path d="M24 10.0605C24 5.352 22.6215 1.53 20.919 1.5C20.9265 1.5 20.9325 1.5 20.94 1.5H18.996C18.996 1.5 14.43 4.9305 7.8585 6.276C7.6575 7.338 7.53 8.6025 7.53 10.0605C7.53 11.5185 7.6575 12.7845 7.8585 13.845C14.4315 15.1905 18.996 18.621 18.996 18.621H20.94C20.9325 18.621 20.9265 18.621 20.919 18.6195C22.623 18.5895 24 14.769 24 10.059V10.0605ZM20.2695 17.3265C20.049 17.3265 19.812 17.0985 19.689 16.962C19.3935 16.632 19.1085 16.119 18.864 15.4785C18.3195 14.043 18.018 12.12 18.018 10.062C18.018 8.004 18.318 6.0795 18.864 4.6455C19.107 4.0035 19.3935 3.4905 19.689 3.1605C19.8105 3.024 20.049 2.796 20.2695 2.796C20.49 2.796 20.727 3.024 20.85 3.1605C21.1455 3.4905 21.4305 4.0035 21.675 4.6455C22.2195 6.081 22.521 8.004 22.521 10.062C22.521 12.12 22.221 14.0445 21.675 15.4785C21.432 16.1205 21.1455 16.6335 20.85 16.962C20.7285 17.0985 20.49 17.3265 20.2695 17.3265ZM5.9025 10.0605C5.9025 8.8425 5.9925 7.6605 6.162 6.5655C5.052 6.7185 4.077 6.807 2.8725 6.807C1.3005 6.807 1.3005 6.807 1.3005 6.807L0 9.0255V11.0925L1.3005 13.311C1.3005 13.311 1.3005 13.311 2.8725 13.311C4.077 13.311 5.052 13.3995 6.162 13.5525C5.9925 12.459 5.9025 11.2755 5.9025 10.0575V10.0605ZM8.628 15.051L5.628 14.4765L7.5465 22.0125C7.6455 22.4025 8.0325 22.599 8.406 22.449L11.184 21.3375C11.5575 21.1875 11.7075 20.7765 11.517 20.421L8.628 15.0495V15.051ZM20.2695 12.861C20.184 12.861 20.0925 12.7725 20.046 12.72C19.932 12.5925 19.8225 12.3945 19.728 12.1485C19.518 11.595 19.4025 10.854 19.4025 10.0605C19.4025 9.267 19.518 8.526 19.728 7.9725C19.8225 7.725 19.932 7.527 20.046 7.401C20.0925 7.3485 20.184 7.26 20.2695 7.26C20.355 7.26 20.4465 7.3485 20.493 7.401C20.607 7.5285 20.7165 7.7265 20.811 7.9725C21.021 8.526 21.1365 9.267 21.1365 10.0605C21.1365 10.854 21.021 11.595 20.811 12.1485C20.7165 12.396 20.607 12.594 20.493 12.72C20.4465 12.7725 20.355 12.861 20.2695 12.861Z" fill="black"/>
</g>
<defs>
<clipPath id="clip0_201_66057">
<rect width="24" height="24" fill="white"/>
</clipPath>
</defs>
</svg>
