<svg width="24" height="24" viewBox="0 0 24 24" fill="none" xmlns="http://www.w3.org/2000/svg">
<path d="M12 13.5C13.9848 13.5 15.7848 14.5095 17.0892 16.1385L15.3924 18.2595C14.5236 17.1735 13.3236 16.5 12 16.5C10.6764 16.5 9.47641 17.1735 8.60761 18.2595L6.91081 16.1385C8.21401 14.5095 10.014 13.5 12 13.5ZM3.51481 11.8935C5.78161 9.06 8.79481 7.5 12 7.5C15.2052 7.5 18.2184 9.06 20.4852 11.8935L18.7884 14.0145C16.9752 11.748 14.5644 10.5 12 10.5C9.43561 10.5 7.02481 11.748 5.21161 14.0145L3.51481 11.8935ZM18.54 3.1515C20.5404 4.209 22.3368 5.724 23.88 7.6515L22.1832 9.7725C19.4628 6.3735 15.8472 4.5 12.0012 4.5C8.15521 4.5 4.53841 6.372 1.81921 9.7725L0.122406 7.6515C1.66441 5.724 3.46201 4.209 5.46241 3.1515C7.53481 2.0565 9.73441 1.5 12.0024 1.5C14.2704 1.5 16.47 2.055 18.5424 3.1515H18.54ZM10.8 21C10.8 20.172 11.3376 19.5 12 19.5C12.6624 19.5 13.2 20.172 13.2 21C13.2 21.828 12.6624 22.5 12 22.5C11.3376 22.5 10.8 21.828 10.8 21Z" fill="black"/>
</svg>
