<svg width="24" height="24" viewBox="0 0 24 24" fill="none" xmlns="http://www.w3.org/2000/svg">
<path d="M4.66667 3H0.666667C0.3 3 0 3.3375 0 3.75V20.25C0 20.6625 0.3 21 0.666667 21H4.66667C5.03333 21 5.33333 20.6625 5.33333 20.25V3.75C5.33333 3.3375 5.03333 3 4.66667 3ZM4 7.5H1.33333V6H4V7.5Z" fill="black"/>
<path d="M11.3333 3H7.33334C6.96667 3 6.66667 3.3375 6.66667 3.75V20.25C6.66667 20.6625 6.96667 21 7.33334 21H11.3333C11.7 21 12 20.6625 12 20.25V3.75C12 3.3375 11.7 3 11.3333 3ZM10.6667 7.5H8.00001V6H10.6667V7.5Z" fill="black"/>
<path d="M15.9387 4.15944L12.3667 6.18445C12.0387 6.37045 11.9067 6.82345 12.0707 7.19095L18.0707 20.5859C18.236 20.9549 18.6387 21.1034 18.9653 20.9189L22.5373 18.8939C22.8653 18.7079 22.9973 18.2549 22.8333 17.8874L16.8333 4.49244C16.668 4.12344 16.2653 3.97494 15.9387 4.15944Z" fill="black"/>
<path d="M19.3333 20.25C19.3333 20.664 19.0347 21 18.6667 21C18.2987 21 18 20.664 18 20.25C18 19.836 18.2987 19.5 18.6667 19.5C19.0347 19.5 19.3333 19.836 19.3333 20.25Z" fill="black"/>
</svg>
