<svg width="24" height="24" viewBox="0 0 24 24" fill="none" xmlns="http://www.w3.org/2000/svg">
<g clip-path="url(#clip0_201_66087)">
<path d="M21.5115 5.3685C20.991 4.659 20.265 3.828 19.4685 3.0315C18.672 2.235 17.841 1.509 17.1315 0.9885C15.9225 0.102 15.336 0 15 0H3.375C2.3415 0 1.5 0.8415 1.5 1.875V22.125C1.5 23.1585 2.3415 24 3.375 24H20.625C21.6585 24 22.5 23.1585 22.5 22.125V7.5C22.5 7.164 22.398 6.5775 21.5115 5.3685ZM18.4065 4.0935C19.1265 4.8135 19.6905 5.4615 20.1075 6H16.4985V2.3925C17.037 2.8095 17.6865 3.3735 18.405 4.0935H18.4065ZM21 22.125C21 22.329 20.829 22.5 20.625 22.5H3.375C3.1725 22.5 3 22.329 3 22.125V1.875C3 1.6725 3.1725 1.5 3.375 1.5C3.375 1.5 14.9985 1.5 15 1.5V6.75C15 7.164 15.336 7.5 15.75 7.5H21V22.125Z" fill="black"/>
<path d="M17.25 19.5H6.75C6.336 19.5 6 19.164 6 18.75C6 18.336 6.336 18 6.75 18H17.25C17.664 18 18 18.336 18 18.75C18 19.164 17.664 19.5 17.25 19.5Z" fill="black"/>
<path d="M17.25 16.5H6.75C6.336 16.5 6 16.164 6 15.75C6 15.336 6.336 15 6.75 15H17.25C17.664 15 18 15.336 18 15.75C18 16.164 17.664 16.5 17.25 16.5Z" fill="black"/>
<path d="M17.25 13.5H6.75C6.336 13.5 6 13.164 6 12.75C6 12.336 6.336 12 6.75 12H17.25C17.664 12 18 12.336 18 12.75C18 13.164 17.664 13.5 17.25 13.5Z" fill="black"/>
</g>
<defs>
<clipPath id="clip0_201_66087">
<rect width="24" height="24" fill="white"/>
</clipPath>
</defs>
</svg>
