<svg width="24" height="24" viewBox="0 0 24 24" fill="none" xmlns="http://www.w3.org/2000/svg">
<g clip-path="url(#clip0_201_66096)">
<path d="M21.5115 5.3685C20.991 4.659 20.265 3.828 19.4685 3.0315C18.672 2.235 17.841 1.509 17.1315 0.9885C15.9225 0.102 15.336 0 15 0H3.375C2.3415 0 1.5 0.8415 1.5 1.875V22.125C1.5 23.1585 2.3415 24 3.375 24H20.625C21.6585 24 22.5 23.1585 22.5 22.125V7.5C22.5 7.164 22.398 6.5775 21.5115 5.3685ZM18.4065 4.0935C19.1265 4.8135 19.6905 5.4615 20.1075 6H16.4985V2.3925C17.037 2.8095 17.6865 3.3735 18.405 4.0935H18.4065ZM21 22.125C21 22.329 20.829 22.5 20.625 22.5H3.375C3.1725 22.5 3 22.329 3 22.125V1.875C3 1.6725 3.1725 1.5 3.375 1.5C3.375 1.5 14.9985 1.5 15 1.5V6.75C15 7.164 15.336 7.5 15.75 7.5H21V22.125Z" fill="black"/>
<path d="M17.7255 9.16954C17.5515 9.02704 17.3235 8.97004 17.103 9.01354L9.603 10.5135C9.252 10.584 9 10.8915 9 11.2485V16.8C8.559 16.608 8.046 16.4985 7.5 16.4985C5.8425 16.4985 4.5 17.5065 4.5 18.7485C4.5 19.9905 5.8425 20.9985 7.5 20.9985C9.1575 20.9985 10.5 19.9905 10.5 18.7485V13.3635L16.5 12.1635V15.3C16.059 15.108 15.546 14.9985 15 14.9985C13.3425 14.9985 12 16.0065 12 17.2485C12 18.4905 13.3425 19.4985 15 19.4985C16.6575 19.4985 18 18.4905 18 17.2485V9.74854C18 9.52354 17.8995 9.31054 17.7255 9.16804V9.16954Z" fill="black"/>
</g>
<defs>
<clipPath id="clip0_201_66096">
<rect width="24" height="24" fill="white"/>
</clipPath>
</defs>
</svg>
