<svg width="24" height="24" viewBox="0 0 24 24" fill="none" xmlns="http://www.w3.org/2000/svg">
<g clip-path="url(#clip0_201_66106)">
<path d="M21.5115 5.3685C20.991 4.659 20.265 3.828 19.4685 3.0315C18.672 2.235 17.841 1.509 17.1315 0.9885C15.9225 0.102 15.336 0 15 0H3.375C2.3415 0 1.5 0.8415 1.5 1.875V22.125C1.5 23.1585 2.3415 24 3.375 24H20.625C21.6585 24 22.5 23.1585 22.5 22.125V7.5C22.5 7.164 22.398 6.5775 21.5115 5.3685ZM18.4065 4.0935C19.1265 4.8135 19.6905 5.4615 20.1075 6H16.4985V2.3925C17.037 2.8095 17.6865 3.3735 18.405 4.0935H18.4065ZM21 22.125C21 22.329 20.829 22.5 20.625 22.5H3.375C3.1725 22.5 3 22.329 3 22.125V1.875C3 1.6725 3.1725 1.5 3.375 1.5C3.375 1.5 14.9985 1.5 15 1.5V6.75C15 7.164 15.336 7.5 15.75 7.5H21V22.125Z" fill="black"/>
<path d="M6 1.5H9V3H6V1.5Z" fill="black"/>
<path d="M9 3H12V4.5H9V3Z" fill="black"/>
<path d="M6 4.5H9V6H6V4.5Z" fill="black"/>
<path d="M9 6H12V7.5H9V6Z" fill="black"/>
<path d="M6 7.5H9V9H6V7.5Z" fill="black"/>
<path d="M9 9H12V10.5H9V9Z" fill="black"/>
<path d="M6 10.5H9V12H6V10.5Z" fill="black"/>
<path d="M9 12H12V13.5H9V12Z" fill="black"/>
<path d="M6 19.875C6 20.493 6.507 21 7.125 21H10.875C11.493 21 12 20.493 12 19.875V16.125C12 15.507 11.493 15 10.875 15H9V13.5H6V19.875ZM10.5 18V19.5H7.5V18H10.5Z" fill="black"/>
</g>
<defs>
<clipPath id="clip0_201_66106">
<rect width="24" height="24" fill="white"/>
</clipPath>
</defs>
</svg>
