<svg width="24" height="24" viewBox="0 0 24 24" fill="none" xmlns="http://www.w3.org/2000/svg">
<path d="M16.5 3H13.5V1.5C13.5 0.675 12.825 0 12 0H9C8.175 0 7.5 0.675 7.5 1.5V3H4.5V6H16.5V3ZM12 3H9V1.503C9.0015 1.5015 9.0015 1.5015 9.003 1.5H11.997C11.9985 1.5015 11.9985 1.5015 12 1.503V3ZM19.5 7.5V3.75C19.5 3.3375 19.1625 3 18.75 3H17.25V4.5H18V7.5H13.5L9 12V18H3V4.5H3.75V3H2.25C1.8375 3 1.5 3.3375 1.5 3.75V18.75C1.5 19.1625 1.8375 19.5 2.25 19.5H9V24H24V7.5H19.5ZM13.5 9.621V12H11.121L13.5 9.621ZM22.5 22.5H10.5V13.5H15V9H22.5V22.5Z" fill="black"/>
</svg>
