<svg width="24" height="24" viewBox="0 0 24 24" fill="none" xmlns="http://www.w3.org/2000/svg">
<g clip-path="url(#clip0_201_66137)">
<path d="M23.1 0H15.9C15.4056 0 14.7132 0.3585 14.364 0.795L5.4372 11.9535C5.0868 12.3915 5.0868 13.107 5.4372 13.545L13.164 23.2035C13.5144 23.6415 14.0868 23.6415 14.4372 23.2035L23.364 12.045C23.7144 11.607 24 10.743 24 10.125V1.125C24 0.507 23.5956 0 23.1 0V0ZM18.6 9C17.6064 9 16.8 7.992 16.8 6.75C16.8 5.508 17.6064 4.5 18.6 4.5C19.5936 4.5 20.4 5.508 20.4 6.75C20.4 7.992 19.5936 9 18.6 9Z" fill="black"/>
<path d="M2.4 12.75L12.6 0H11.1C10.6056 0 9.9132 0.3585 9.564 0.795L0.637199 11.9535C0.286799 12.3915 0.286799 13.107 0.637199 13.545L8.364 23.2035C8.7144 23.6415 9.2868 23.6415 9.6372 23.2035L10.2012 22.4985L2.4012 12.7485L2.4 12.75Z" fill="black"/>
</g>
<defs>
<clipPath id="clip0_201_66137">
<rect width="24" height="24" fill="white"/>
</clipPath>
</defs>
</svg>
