<svg width="24" height="24" viewBox="0 0 24 24" fill="none" xmlns="http://www.w3.org/2000/svg">
<g clip-path="url(#clip0_201_66142)">
<path d="M13.4995 7.5L16.4995 10.5L10.4995 16.5L7.49951 13.5L13.4995 7.5ZM23.473 6.9735L21.7495 5.25L20.9995 6C20.6155 6.384 20.0845 6.621 19.4995 6.621C18.328 6.621 17.3785 5.6715 17.3785 4.5C17.3785 3.9135 17.6155 3.384 18.001 3L18.751 2.25L17.0275 0.5265C16.3255 -0.1755 15.175 -0.1755 14.473 0.5265L0.527507 14.472C-0.174493 15.174 -0.174493 16.3245 0.527507 17.0265L2.25101 18.75L2.99951 18.0015C3.38351 17.6175 3.91451 17.379 4.50101 17.379C5.67251 17.379 6.62201 18.3285 6.62201 19.5C6.62201 20.0865 6.38501 20.616 5.99951 21L5.24951 21.75L6.97301 23.4735C7.67501 24.1755 8.82401 24.1755 9.52751 23.4735L23.473 9.528C24.175 8.826 24.175 7.6755 23.473 6.9735ZM10.4995 19.5L4.49951 13.5L13.4995 4.5L19.4995 10.5L10.4995 19.5Z" fill="black"/>
</g>
<defs>
<clipPath id="clip0_201_66142">
<rect width="24" height="24" fill="white"/>
</clipPath>
</defs>
</svg>
