<svg width="24" height="24" viewBox="0 0 24 24" fill="none" xmlns="http://www.w3.org/2000/svg">
<path d="M11.25 1.5C5.037 1.5 0 6.537 0 12.75C0 18.963 5.037 24 11.25 24C17.463 24 22.5 18.963 22.5 12.75C22.5 6.537 17.463 1.5 11.25 1.5ZM11.25 21.75C6.279 21.75 2.25 17.721 2.25 12.75C2.25 7.779 6.279 3.75 11.25 3.75C16.221 3.75 20.25 7.779 20.25 12.75C20.25 17.721 16.221 21.75 11.25 21.75Z" fill="black"/>
<path d="M14.25 16.5H9V13.5H11.25C11.664 13.5 12 13.164 12 12.75C12 12.336 11.664 12 11.25 12H9V11.25C9 10.0095 10.0095 8.99997 11.25 8.99997C12.051 8.99997 12.798 9.43197 13.2 10.125C13.407 10.4835 13.866 10.6065 14.2245 10.398C14.583 10.1895 14.706 9.73197 14.4975 9.37347C13.8285 8.21697 12.5835 7.49847 11.25 7.49847C9.183 7.49847 7.5 9.18147 7.5 11.2485V11.9985H6.75C6.336 11.9985 6 12.3345 6 12.7485C6 13.1625 6.336 13.4985 6.75 13.4985H7.5V17.9985H14.25C14.664 17.9985 15 17.6625 15 17.2485C15 16.8345 14.664 16.4985 14.25 16.4985V16.5Z" fill="black"/>
</svg>
