<svg width="24" height="24" viewBox="0 0 24 24" fill="none" xmlns="http://www.w3.org/2000/svg">
<path d="M11.25 1.5C5.037 1.5 0 6.537 0 12.75C0 18.963 5.037 24 11.25 24C17.463 24 22.5 18.963 22.5 12.75C22.5 6.537 17.463 1.5 11.25 1.5ZM11.25 21.75C6.279 21.75 2.25 17.721 2.25 12.75C2.25 7.779 6.279 3.75 11.25 3.75C16.221 3.75 20.25 7.779 20.25 12.75C20.25 17.721 16.221 21.75 11.25 21.75Z" fill="black"/>
<path d="M14.25 13.5C14.664 13.5 15 13.164 15 12.75C15 12.336 14.664 12 14.25 12H12.651L14.874 8.66549C15.1035 8.32049 15.0105 7.85549 14.6655 7.62599C14.3205 7.39649 13.8555 7.48949 13.626 7.83449L11.25 11.3985L8.874 7.83449C8.6445 7.48949 8.178 7.39649 7.8345 7.62599C7.491 7.85549 7.3965 8.32199 7.626 8.66549L9.849 12H8.25C7.836 12 7.5 12.336 7.5 12.75C7.5 13.164 7.836 13.5 8.25 13.5H10.5V15H8.25C7.836 15 7.5 15.336 7.5 15.75C7.5 16.164 7.836 16.5 8.25 16.5H10.5V18.75C10.5 19.164 10.836 19.5 11.25 19.5C11.664 19.5 12 19.164 12 18.75V16.5H14.25C14.664 16.5 15 16.164 15 15.75C15 15.336 14.664 15 14.25 15H12V13.5H14.25Z" fill="black"/>
</svg>
