<svg width="24" height="24" viewBox="0 0 24 24" fill="none" xmlns="http://www.w3.org/2000/svg">
<path d="M21.75 3H2.25C1.0125 3 0 4.0125 0 5.25V18.75C0 19.9875 1.0125 21 2.25 21H21.75C22.9875 21 24 19.9875 24 18.75V5.25C24 4.0125 22.9875 3 21.75 3ZM2.25 4.5H21.75C22.1565 4.5 22.5 4.8435 22.5 5.25V7.5H1.5V5.25C1.5 4.8435 1.8435 4.5 2.25 4.5ZM21.75 19.5H2.25C1.8435 19.5 1.5 19.1565 1.5 18.75V12H22.5V18.75C22.5 19.1565 22.1565 19.5 21.75 19.5ZM3 15H4.5V18H3V15ZM6 15H7.5V18H6V15ZM9 15H10.5V18H9V15Z" fill="black"/>
</svg>
