<svg width="24" height="24" viewBox="0 0 24 24" fill="none" xmlns="http://www.w3.org/2000/svg">
<path d="M4.5 0V24H22.5V0H4.5ZM13.5 6.0075C15.153 6.0075 16.4925 7.347 16.4925 9C16.4925 10.653 15.153 11.9925 13.5 11.9925C11.847 11.9925 10.5075 10.653 10.5075 9C10.5075 7.347 11.847 6.0075 13.5 6.0075ZM18 18H9V16.5C9 14.8425 10.3425 13.5 12 13.5H15C16.6575 13.5 18 14.8425 18 16.5V18Z" fill="black"/>
<path d="M1.5 1.5H3.75V6H1.5V1.5Z" fill="black"/>
<path d="M1.5 7.5H3.75V12H1.5V7.5Z" fill="black"/>
<path d="M1.5 13.5H3.75V18H1.5V13.5Z" fill="black"/>
<path d="M1.5 19.5H3.75V24H1.5V19.5Z" fill="black"/>
</svg>
