<svg width="24" height="24" viewBox="0 0 24 24" fill="none" xmlns="http://www.w3.org/2000/svg">
<g clip-path="url(#clip0_201_66185)">
<path d="M12.75 24C12.696 24 12.642 23.994 12.588 23.982C12.2445 23.9055 12 23.601 12 23.25V12H0.750016C0.399016 12 0.0945156 11.7555 0.0180156 11.412C-0.0584844 11.0685 0.114016 10.719 0.433516 10.5705L22.9335 0.0704843C23.22 -0.0630157 23.5575 -0.00301573 23.781 0.220484C24.0045 0.443984 24.063 0.781484 23.931 1.06798L13.431 23.568C13.3065 23.8365 13.038 24.0015 12.7515 24.0015L12.75 24ZM4.13102 10.5H12.75C13.164 10.5 13.5 10.836 13.5 11.25V19.869L21.6975 2.30098L4.12952 10.4985L4.13102 10.5Z" fill="black"/>
</g>
<defs>
<clipPath id="clip0_201_66185">
<rect width="24" height="24" fill="white"/>
</clipPath>
</defs>
</svg>
