<svg width="24" height="24" viewBox="0 0 24 24" fill="none" xmlns="http://www.w3.org/2000/svg">
<g clip-path="url(#clip0_201_66187)">
<path d="M12 0C5.373 0 0 5.373 0 12C0 18.627 5.373 24 12 24C18.627 24 24 18.627 24 12C24 5.373 18.627 0 12 0ZM2.25 12C2.25 6.615 6.615 2.25 12 2.25C14.568 2.25 16.9035 3.243 18.645 4.866L9 9L4.866 18.645C3.243 16.9035 2.25 14.568 2.25 12ZM13.7145 13.7145L7.713 16.287L10.2855 10.2855L13.7145 13.7145ZM12 21.75C9.432 21.75 7.0965 20.757 5.355 19.134L15 15L19.134 5.355C20.757 7.0965 21.75 9.432 21.75 12C21.75 17.385 17.385 21.75 12 21.75Z" fill="black"/>
</g>
<defs>
<clipPath id="clip0_201_66187">
<rect width="24" height="24" fill="white"/>
</clipPath>
</defs>
</svg>
