<svg width="24" height="24" viewBox="0 0 24 24" fill="none" xmlns="http://www.w3.org/2000/svg">
<path d="M14.1176 1.5C19.5755 1.5 24 6.201 24 12C24 17.799 19.5755 22.5 14.1176 22.5V20.25C16.1915 20.25 18.1412 19.392 19.608 17.8335C21.0748 16.275 21.8824 14.2035 21.8824 12C21.8824 9.7965 21.0748 7.725 19.608 6.1665C18.1412 4.608 16.1915 3.75 14.1176 3.75C12.0438 3.75 10.0941 4.608 8.62729 6.1665C7.49929 7.365 6.76094 8.868 6.48141 10.5H10.5882L5.64706 16.5L0.705883 10.5H4.33553C5.02024 5.412 9.13835 1.5 14.1176 1.5ZM18.3529 10.5V13.5H12.7059V6H15.5294V10.5H18.3529Z" fill="black"/>
</svg>
