<svg width="24" height="24" viewBox="0 0 24 24" fill="none" xmlns="http://www.w3.org/2000/svg">
<path d="M12 3C6.201 3 1.5 7.701 1.5 13.5C1.5 19.299 6.201 24 12 24C17.799 24 22.5 19.299 22.5 13.5C22.5 7.701 17.799 3 12 3ZM12 21.9375C7.3395 21.9375 3.5625 18.1605 3.5625 13.5C3.5625 8.8395 7.3395 5.0625 12 5.0625C16.6605 5.0625 20.4375 8.8395 20.4375 13.5C20.4375 18.1605 16.6605 21.9375 12 21.9375ZM21.909 6.7305C22.2855 6.0735 22.5 5.3115 22.5 4.5C22.5 2.0145 20.4855 0 18 0C16.551 0 15.2625 0.6855 14.439 1.749C17.5305 2.388 20.1855 4.215 21.909 6.732V6.7305ZM9.561 1.749C8.7375 0.6855 7.449 0 6 0C3.5145 0 1.5 2.0145 1.5 4.5C1.5 5.3115 1.7145 6.0735 2.091 6.7305C3.813 4.2135 6.4695 2.3865 9.561 1.7475V1.749Z" fill="black"/>
<path d="M12 13.5V7.5H10.5V15H16.5V13.5H12Z" fill="black"/>
</svg>
