<svg width="24" height="24" viewBox="0 0 24 24" fill="none" xmlns="http://www.w3.org/2000/svg">
<g clip-path="url(#clip0_201_66223)">
<path d="M22.9965 6.75248C20.9145 6.45398 18.699 6.23648 16.386 6.11498L20.25 2.25098L18.75 0.750977L13.4865 6.01448C12.9945 6.00548 12.498 6.00098 12 6.00098L6 0.000976562L4.5 1.50098L9.051 6.05198C6.2175 6.15098 3.5115 6.39248 1.0035 6.75248C0.3585 9.27698 0 12.067 0 14.9995C0 17.932 0.3585 20.722 1.0035 23.2465C4.3695 23.731 8.0895 23.9995 12 23.9995C15.9105 23.9995 19.6305 23.731 22.9965 23.2465C23.6415 20.722 24 17.932 24 14.9995C24 12.067 23.6415 9.27698 22.9965 6.75248ZM20.247 20.4985C17.7225 20.821 14.9325 20.9995 12 20.9995C9.0675 20.9995 6.2775 20.821 3.753 20.4985C3.2685 18.8155 3 16.9555 3 14.9995C3 13.0435 3.2685 11.185 3.753 9.50048C6.2775 9.17798 9.0675 8.99948 12 8.99948C14.9325 8.99948 17.7225 9.17798 20.247 9.50048C20.7315 11.1835 21 13.0435 21 14.9995C21 16.9555 20.7315 18.814 20.247 20.4985Z" fill="black"/>
</g>
<defs>
<clipPath id="clip0_201_66223">
<rect width="24" height="24" fill="white"/>
</clipPath>
</defs>
</svg>
