<svg width="24" height="24" viewBox="0 0 24 24" fill="none" xmlns="http://www.w3.org/2000/svg">
<g clip-path="url(#clip0_201_66263)">
<path d="M22.667 21.1215C22.667 22.188 23.2097 23.112 24.0003 23.5635V23.937C23.779 23.9715 23.5537 23.9895 23.323 23.9895C21.9057 23.9895 20.6283 23.3205 19.7243 22.2495C19.1777 22.413 18.599 22.5015 18.0003 22.5015C14.687 22.5015 12.0003 19.815 12.0003 16.5015C12.0003 13.188 14.687 10.5015 18.0003 10.5015C21.3137 10.5015 24.0003 13.188 24.0003 16.5015C24.0003 17.799 23.5883 18.999 22.8883 19.9815C22.7457 20.3295 22.667 20.715 22.667 21.123V21.1215ZM10.667 0C16.4683 0 21.187 4.233 21.3297 9.504C20.3057 8.9895 19.171 8.718 18.0003 8.718C16.0097 8.718 14.1297 9.5025 12.7057 10.926C11.2297 12.402 10.4163 14.382 10.4163 16.5C10.4163 17.547 10.615 18.5595 10.9937 19.4955C10.8843 19.4985 10.775 19.5 10.6657 19.5C10.1003 19.5 9.54433 19.4595 9.00299 19.3815C6.71233 21.9585 3.97633 22.422 1.33233 22.4895V21.858C2.76033 21.0705 3.99899 19.638 3.99899 18C3.99899 17.772 3.98299 17.547 3.95366 17.328C1.54166 15.54 -0.00100708 12.81 -0.00100708 9.75C-0.00100708 4.365 4.77499 0 10.6657 0H10.667Z" fill="black"/>
</g>
<defs>
<clipPath id="clip0_201_66263">
<rect width="24" height="24" fill="white"/>
</clipPath>
</defs>
</svg>
