<svg width="24" height="24" viewBox="0 0 24 24" fill="none" xmlns="http://www.w3.org/2000/svg">
<g clip-path="url(#clip0_201_66265)">
<path d="M10 0.000523438C15.5227 0.000523438 20 4.07602 20 9.10402C20 14.132 15.5227 18.2075 10 18.2075C9.46933 18.2075 8.94933 18.17 8.44133 18.0965C6.29333 20.504 3.81333 20.9345 1.33333 20.999V20.4095C2.672 19.6745 3.75067 18.3365 3.75067 16.8065C3.75067 16.5935 3.736 16.3835 3.708 16.178C1.44667 14.5085 0 11.96 0 9.10252C0 4.07452 4.47733 -0.000976562 10 -0.000976562V0.000523438ZM20.7507 20.4065C20.7507 21.7175 21.5067 22.865 22.668 23.495V24.0005C20.52 23.9465 18.548 23.576 16.6853 21.5135C16.2453 21.575 15.7933 21.608 15.3347 21.608C13.3453 21.608 11.5133 21.005 10.0507 19.9895C13.0653 19.9775 15.9107 18.8915 18.068 16.9265C19.156 15.9365 20.0133 14.774 20.6187 13.4735C21.26 12.0935 21.584 10.6235 21.584 9.10402C21.584 8.85952 21.5747 8.61502 21.5573 8.37352C23.0693 9.77752 24 11.693 24 13.8035C24 16.253 22.7467 18.437 20.7867 19.868C20.7627 20.0435 20.7507 20.2235 20.7507 20.4065Z" fill="black"/>
</g>
<defs>
<clipPath id="clip0_201_66265">
<rect width="24" height="24" fill="white"/>
</clipPath>
</defs>
</svg>
