<svg width="24" height="24" viewBox="0 0 24 24" fill="none" xmlns="http://www.w3.org/2000/svg">
<g clip-path="url(#clip0_201_66275)">
<path d="M16 18.0615V16.824C17.4693 15.8925 18.6667 13.572 18.6667 11.25C18.6667 7.5225 18.6667 4.5 14.6667 4.5C10.6667 4.5 10.6667 7.5225 10.6667 11.25C10.6667 13.572 11.864 15.8925 13.3333 16.824V18.0615C8.81067 18.477 5.33333 20.9775 5.33333 24H24C24 20.9775 20.5227 18.477 16 18.0615Z" fill="black"/>
<path d="M6.816 18.64C7.968 17.7925 9.40133 17.149 10.9787 16.756C10.6653 16.339 10.38 15.874 10.1347 15.373C9.50133 14.0785 9.16667 12.6535 9.16667 11.251C9.16667 9.23498 9.16667 7.32998 9.804 5.77148C10.4227 4.25948 11.536 3.32198 13.1213 2.97098C12.7693 1.17848 11.8307 0.000976562 9.33333 0.000976562C5.33333 0.000976562 5.33333 3.02348 5.33333 6.75098C5.33333 9.07298 6.53067 11.3935 8 12.325V13.5625C3.47733 13.978 0 16.4785 0 19.501H5.812C6.11467 19.198 6.44933 18.9115 6.816 18.6415V18.64Z" fill="black"/>
</g>
<defs>
<clipPath id="clip0_201_66275">
<rect width="24" height="24" fill="white"/>
</clipPath>
</defs>
</svg>
