<svg width="24" height="24" viewBox="0 0 24 24" fill="none" xmlns="http://www.w3.org/2000/svg">
<g clip-path="url(#clip0_201_66284)">
<path d="M22.5 14.25L15.75 21L13.5 18.75L12 20.25L15.75 24L24 15.75L22.5 14.25Z" fill="black"/>
<path d="M10.5 18H18V15.3015C16.425 14.382 14.337 13.752 12 13.5615V12.324C13.653 11.3925 15 9.072 15 6.75C15 3.0225 15 0 10.5 0C6 0 6 3.0225 6 6.75C6 9.072 7.347 11.3925 9 12.324V13.5615C3.912 13.977 0 16.4775 0 19.5H10.5V18Z" fill="black"/>
</g>
<defs>
<clipPath id="clip0_201_66284">
<rect width="24" height="24" fill="white"/>
</clipPath>
</defs>
</svg>
