<svg width="24" height="24" viewBox="0 0 24 24" fill="none" xmlns="http://www.w3.org/2000/svg">
<g clip-path="url(#clip0_201_66289)">
<path d="M5.274 10.5C8.1735 10.5 10.524 12.8505 10.524 15.75C10.524 18.6495 8.1735 21 5.274 21C2.3745 21 0.024 18.6495 0.024 15.75L0 15C0 9.201 4.701 4.5 10.5 4.5V7.5C8.496 7.5 6.6135 8.28 5.196 9.696C4.923 9.969 4.674 10.2585 4.4505 10.563C4.719 10.521 4.9935 10.4985 5.2725 10.4985L5.274 10.5ZM18.774 10.5C21.6735 10.5 24.024 12.8505 24.024 15.75C24.024 18.6495 21.6735 21 18.774 21C15.8745 21 13.524 18.6495 13.524 15.75L13.5 15C13.5 9.201 18.201 4.5 24 4.5V7.5C21.996 7.5 20.1135 8.28 18.696 9.696C18.423 9.969 18.174 10.2585 17.9505 10.563C18.219 10.521 18.4935 10.4985 18.774 10.4985V10.5Z" fill="black"/>
</g>
<defs>
<clipPath id="clip0_201_66289">
<rect width="24" height="24" fill="white"/>
</clipPath>
</defs>
</svg>
