<svg width="24" height="24" viewBox="0 0 24 24" fill="none" xmlns="http://www.w3.org/2000/svg">
<g clip-path="url(#clip0_201_66291)">
<path d="M18.75 15C15.8505 15 13.5 12.6495 13.5 9.75C13.5 6.8505 15.8505 4.5 18.75 4.5C21.6495 4.5 24 6.8505 24 9.75L24.024 10.5C24.024 16.299 19.323 21 13.524 21V18C15.528 18 17.4105 17.22 18.828 15.804C19.101 15.531 19.35 15.2415 19.5735 14.937C19.305 14.979 19.0305 15.0015 18.75 15.0015V15ZM5.25 15C2.3505 15 0 12.6495 0 9.75C0 6.8505 2.3505 4.5 5.25 4.5C8.1495 4.5 10.5 6.8505 10.5 9.75L10.524 10.5C10.524 16.299 5.823 21 0.024 21V18C2.028 18 3.9105 17.22 5.328 15.804C5.601 15.531 5.85 15.2415 6.0735 14.937C5.805 14.979 5.5305 15.0015 5.25 15.0015V15Z" fill="black"/>
</g>
<defs>
<clipPath id="clip0_201_66291">
<rect width="24" height="24" fill="white"/>
</clipPath>
</defs>
</svg>
