<svg width="24" height="24" viewBox="0 0 24 24" fill="none" xmlns="http://www.w3.org/2000/svg">
<path d="M9 3C9 1.3425 10.3425 0 12 0C13.6575 0 15 1.3425 15 3C15 4.6575 13.6575 6 12 6C10.3425 6 9 4.6575 9 3ZM15.3645 5.6355C15.3645 3.978 16.707 2.6355 18.3645 2.6355C20.022 2.6355 21.3645 3.978 21.3645 5.6355C21.3645 7.293 20.022 8.6355 18.3645 8.6355C16.707 8.6355 15.3645 7.293 15.3645 5.6355ZM19.5 12C19.5 11.172 20.172 10.5 21 10.5C21.828 10.5 22.5 11.172 22.5 12C22.5 12.828 21.828 13.5 21 13.5C20.172 13.5 19.5 12.828 19.5 12ZM16.8645 18.3645C16.8645 17.5365 17.5365 16.8645 18.3645 16.8645C19.1925 16.8645 19.8645 17.5365 19.8645 18.3645C19.8645 19.1925 19.1925 19.8645 18.3645 19.8645C17.5365 19.8645 16.8645 19.1925 16.8645 18.3645ZM10.5 21C10.5 20.172 11.172 19.5 12 19.5C12.828 19.5 13.5 20.172 13.5 21C13.5 21.828 12.828 22.5 12 22.5C11.172 22.5 10.5 21.828 10.5 21ZM4.1355 18.3645C4.1355 17.5365 4.8075 16.8645 5.6355 16.8645C6.4635 16.8645 7.1355 17.5365 7.1355 18.3645C7.1355 19.1925 6.4635 19.8645 5.6355 19.8645C4.8075 19.8645 4.1355 19.1925 4.1355 18.3645ZM3.3855 5.6355C3.3855 4.3935 4.3935 3.3855 5.6355 3.3855C6.8775 3.3855 7.8855 4.3935 7.8855 5.6355C7.8855 6.8775 6.8775 7.8855 5.6355 7.8855C4.3935 7.8855 3.3855 6.8775 3.3855 5.6355ZM1.3125 12C1.3125 11.0685 2.0685 10.3125 3 10.3125C3.9315 10.3125 4.6875 11.0685 4.6875 12C4.6875 12.9315 3.9315 13.6875 3 13.6875C2.0685 13.6875 1.3125 12.9315 1.3125 12Z" fill="black"/>
</svg>
