<svg width="24" height="24" viewBox="0 0 24 24" fill="none" xmlns="http://www.w3.org/2000/svg">
<path d="M24 12C23.97 10.4325 23.6295 8.87099 23.0025 7.44299C22.377 6.01349 21.468 4.71749 20.3535 3.64799C19.239 2.57849 17.9175 1.73099 16.4865 1.17149C15.057 0.610491 13.5195 0.343491 12 0.374991C10.4805 0.404991 8.9685 0.734991 7.5855 1.34399C6.201 1.95149 4.9485 2.83199 3.912 3.91199C2.8755 4.99199 2.0565 6.27299 1.5165 7.65749C0.974997 9.04199 0.716997 10.5285 0.748497 12C0.778497 13.4715 1.0995 14.9325 1.689 16.2705C2.277 17.6085 3.1305 18.8205 4.176 19.8225C5.2215 20.8245 6.4605 21.615 7.8 22.137C9.138 22.659 10.5765 22.908 11.9985 22.8765C13.422 22.8465 14.8335 22.536 16.125 21.9645C17.418 21.396 18.588 20.571 19.5555 19.5585C20.523 18.546 21.2865 17.3505 21.7875 16.056C22.0935 15.2715 22.3005 14.4525 22.41 13.623C22.4385 13.6245 22.4685 13.626 22.4985 13.626C23.3265 13.626 23.9985 12.954 23.9985 12.126C23.9985 12.084 23.997 12.042 23.9925 12.0015H23.9985L24 12ZM21.6165 15.9825C21.066 17.229 20.2695 18.3585 19.2915 19.2915C18.3135 20.2245 17.1585 20.9595 15.9105 21.4425C14.6625 21.927 13.326 22.1565 11.9985 22.1235C10.6725 22.0935 9.36 21.801 8.1585 21.2685C6.957 20.7375 5.8695 19.968 4.971 19.026C4.0725 18.084 3.3645 16.9695 2.901 15.7665C2.436 14.565 2.2155 13.2765 2.2485 11.9985C2.2815 10.7205 2.5605 9.45749 3.075 8.30249C3.588 7.14749 4.329 6.10049 5.2365 5.23649C6.144 4.37249 7.218 3.69299 8.3745 3.24749C9.531 2.80049 10.7685 2.59049 11.9985 2.62349C13.2285 2.65649 14.442 2.92649 15.5505 3.42149C16.6605 3.91499 17.6655 4.62899 18.495 5.50199C19.3245 6.37499 19.977 7.40699 20.403 8.51849C20.8305 9.62849 21.03 10.8165 20.9985 11.9985H21.0045C21.0015 12.039 20.9985 12.081 20.9985 12.123C20.9985 12.897 21.5835 13.533 22.3365 13.614C22.191 14.43 21.9495 15.2265 21.615 15.981L21.6165 15.9825Z" fill="black"/>
</svg>
