<svg width="24" height="24" viewBox="0 0 24 24" fill="none" xmlns="http://www.w3.org/2000/svg">
<g clip-path="url(#clip0_201_66314)">
<path d="M12 0C5.373 0 0 5.373 0 12C0 18.627 5.373 24 12 24C18.627 24 24 18.627 24 12C24 5.373 18.627 0 12 0ZM12 6C15.3135 6 18 8.6865 18 12C18 15.3135 15.3135 18 12 18C8.6865 18 6 15.3135 6 12C6 8.6865 8.6865 6 12 6ZM19.1595 19.1595C17.247 21.072 14.7045 22.125 12 22.125C9.2955 22.125 6.753 21.072 4.8405 19.1595C2.928 17.247 1.875 14.7045 1.875 12C1.875 9.2955 2.928 6.753 4.8405 4.8405L6.432 6.432C3.3615 9.5025 3.3615 14.499 6.432 17.5695C7.92 19.0575 9.897 19.8765 12 19.8765C14.103 19.8765 16.0815 19.0575 17.568 17.5695C20.6385 14.499 20.6385 9.5025 17.568 6.432L19.1595 4.8405C21.072 6.753 22.125 9.2955 22.125 12C22.125 14.7045 21.072 17.247 19.1595 19.1595Z" fill="black"/>
</g>
<defs>
<clipPath id="clip0_201_66314">
<rect width="24" height="24" fill="white"/>
</clipPath>
</defs>
</svg>
