<svg width="24" height="24" viewBox="0 0 24 24" fill="none" xmlns="http://www.w3.org/2000/svg">
<path d="M9.75 21.75C9.75 20.508 10.758 19.5 12 19.5C13.242 19.5 14.25 20.508 14.25 21.75C14.25 22.992 13.242 24 12 24C10.758 24 9.75 22.992 9.75 21.75ZM0 12C0 10.758 1.008 9.75002 2.25 9.75002C3.492 9.75002 4.5 10.758 4.5 12C4.5 13.242 3.492 14.25 2.25 14.25C1.008 14.25 0 13.242 0 12ZM19.5 12C19.5 10.758 20.508 9.75002 21.75 9.75002C22.992 9.75002 24 10.758 24 12C24 13.242 22.992 14.25 21.75 14.25C20.508 14.25 19.5 13.242 19.5 12ZM2.856 5.10602C2.856 3.86402 3.864 2.85602 5.106 2.85602C6.348 2.85602 7.356 3.86402 7.356 5.10602C7.356 6.34802 6.348 7.35602 5.106 7.35602C3.864 7.35602 2.856 6.34802 2.856 5.10602ZM16.644 18.894C16.644 17.652 17.652 16.644 18.894 16.644C20.136 16.644 21.144 17.652 21.144 18.894C21.144 20.136 20.136 21.144 18.894 21.144C17.652 21.144 16.644 20.136 16.644 18.894ZM2.856 18.894C2.856 17.652 3.864 16.644 5.106 16.644C6.348 16.644 7.356 17.652 7.356 18.894C7.356 20.136 6.348 21.144 5.106 21.144C3.864 21.144 2.856 20.136 2.856 18.894ZM16.644 5.10602C16.644 3.86402 17.652 2.85602 18.894 2.85602C20.136 2.85602 21.144 3.86402 21.144 5.10602C21.144 6.34802 20.136 7.35602 18.894 7.35602C17.652 7.35602 16.644 6.34802 16.644 5.10602Z" fill="black"/>
</svg>
