<svg width="24" height="24" viewBox="0 0 24 24" fill="none" xmlns="http://www.w3.org/2000/svg">
<g clip-path="url(#clip0_201_66320)">
<path d="M12 24C8.7945 24 5.781 22.752 3.5145 20.4855C1.248 18.219 0 15.2055 0 12C0 9.73049 0.6375 7.52099 1.842 5.60849C3.0135 3.74999 4.6695 2.24849 6.6315 1.26599L7.6395 3.27749C6.045 4.07699 4.698 5.29799 3.7455 6.80849C2.7675 8.35949 2.25 10.155 2.25 12C2.25 17.376 6.624 21.75 12 21.75C17.376 21.75 21.75 17.376 21.75 12C21.75 10.155 21.2325 8.36099 20.2545 6.80849C19.302 5.29649 17.955 4.07549 16.3605 3.27749L17.3685 1.26599C19.3305 2.24849 20.9865 3.74999 22.158 5.60849C23.3625 7.51949 24 9.73049 24 12C24 15.2055 22.752 18.219 20.4855 20.4855C18.219 22.752 15.2055 24 12 24Z" fill="black"/>
</g>
<defs>
<clipPath id="clip0_201_66320">
<rect width="24" height="24" fill="white"/>
</clipPath>
</defs>
</svg>
