<svg width="24" height="24" viewBox="0 0 24 24" fill="none" xmlns="http://www.w3.org/2000/svg">
<g clip-path="url(#clip0_201_66322)">
<path d="M12 0C5.4675 0 0.153 5.2215 0.003 11.718C0.141 6.0495 4.452 1.5 9.75 1.5C15.135 1.5 19.5 6.201 19.5 12C19.5 13.242 20.508 14.25 21.75 14.25C22.992 14.25 24 13.242 24 12C24 5.373 18.627 0 12 0ZM12 24C18.5325 24 23.847 18.7785 23.997 12.282C23.859 17.9505 19.548 22.5 14.25 22.5C8.865 22.5 4.5 17.799 4.5 12C4.5 10.758 3.492 9.75 2.25 9.75C1.008 9.75 0 10.758 0 12C0 18.627 5.373 24 12 24Z" fill="black"/>
</g>
<defs>
<clipPath id="clip0_201_66322">
<rect width="24" height="24" fill="white"/>
</clipPath>
</defs>
</svg>
