<svg width="24" height="24" viewBox="0 0 24 24" fill="none" xmlns="http://www.w3.org/2000/svg">
<g clip-path="url(#clip0_201_66324)">
<path d="M0.00100708 12.0385C0.00100708 12.0385 0.00100708 12.04 0.00100708 12.043C0.00400708 12.1345 0.0145071 12.223 0.0325071 12.3085C0.0370071 12.349 0.0430071 12.394 0.0490071 12.4435C0.0535071 12.487 0.0595071 12.535 0.0655071 12.586C0.0745071 12.646 0.0835071 12.7105 0.0940071 12.778C0.113507 12.913 0.136007 13.0615 0.161507 13.222C0.193007 13.3735 0.227507 13.537 0.263507 13.711C0.280007 13.798 0.305507 13.8865 0.329507 13.978C0.353507 14.0695 0.377507 14.1625 0.403007 14.26C0.416507 14.308 0.427007 14.3575 0.443507 14.4055C0.460007 14.4535 0.475007 14.503 0.490007 14.5525C0.505007 14.602 0.554507 14.7535 0.587507 14.857C0.596507 14.8825 0.604007 14.9095 0.613007 14.935C0.622007 14.9605 0.632507 14.986 0.641507 15.013C0.650507 15.04 0.680507 15.118 0.700007 15.1705C0.740507 15.2755 0.779507 15.3835 0.821507 15.493C0.868007 15.5995 0.914507 15.709 0.962507 15.82C0.986507 15.8755 1.01051 15.931 1.03451 15.9865C1.05851 16.042 1.08701 16.096 1.11401 16.153C1.14101 16.21 1.22351 16.375 1.27901 16.489C1.33751 16.6015 1.40051 16.7125 1.46351 16.825C1.49501 16.8805 1.52651 16.9375 1.55801 16.9945C1.58951 17.0515 1.62551 17.1055 1.66001 17.1625C1.69451 17.2195 1.79951 17.386 1.87001 17.4985C2.16701 17.941 2.49551 18.379 2.86001 18.7945C3.22751 19.207 3.62651 19.597 4.04801 19.957C4.47401 20.311 4.92101 20.635 5.37701 20.92C5.83601 21.202 6.30551 21.4435 6.76901 21.6505C6.88601 21.6985 7.00301 21.745 7.11701 21.793C7.17401 21.8155 7.23101 21.841 7.28951 21.862C7.34801 21.883 7.40501 21.9025 7.46201 21.9235C7.51901 21.9445 7.68851 22.0045 7.80101 22.0405C7.91351 22.0735 8.02601 22.1065 8.13701 22.1395C8.19251 22.156 8.24651 22.1725 8.30051 22.186C8.35451 22.1995 8.41001 22.213 8.46401 22.2265C8.51801 22.24 8.67851 22.279 8.78351 22.3045C8.88851 22.3255 8.99201 22.345 9.09401 22.3645C9.14501 22.3735 9.19451 22.384 9.24551 22.393C9.27101 22.3975 9.29501 22.402 9.31901 22.4065C9.34301 22.411 9.36851 22.414 9.39251 22.417C9.49151 22.4305 9.58751 22.444 9.68051 22.4575C9.72701 22.4635 9.77351 22.471 9.82001 22.477C9.86651 22.483 9.91151 22.486 9.95651 22.4905C10.0015 22.495 10.1335 22.5055 10.2175 22.513C10.3015 22.5205 10.384 22.5295 10.4635 22.531C10.4695 22.531 10.474 22.531 10.48 22.531C10.495 23.347 11.1595 24.004 11.98 24.004C11.992 24.004 12.0055 24.004 12.0175 24.0025C12.0175 24.0025 12.019 24.0025 12.0235 24.0025C12.115 23.9995 12.2035 23.989 12.289 23.971C12.3295 23.9665 12.3745 23.9605 12.424 23.9545C12.4675 23.95 12.5155 23.944 12.5665 23.938C12.6265 23.929 12.691 23.92 12.7585 23.9095C12.8935 23.89 13.042 23.8675 13.2025 23.842C13.354 23.8105 13.5175 23.776 13.6915 23.74C13.7785 23.7235 13.867 23.698 13.9585 23.674C14.05 23.65 14.143 23.6245 14.2405 23.6005C14.2885 23.587 14.338 23.5765 14.386 23.56C14.434 23.5435 14.4835 23.5285 14.533 23.5135C14.5825 23.4985 14.734 23.449 14.8375 23.416C14.863 23.407 14.89 23.3995 14.9155 23.3905C14.941 23.3815 14.9665 23.371 14.9935 23.362C15.0205 23.353 15.0985 23.323 15.151 23.3035C15.256 23.263 15.364 23.224 15.4735 23.182C15.58 23.1355 15.6895 23.089 15.8005 23.041C15.856 23.017 15.9115 22.993 15.967 22.969C16.0225 22.945 16.0765 22.9165 16.1335 22.8895C16.1905 22.8625 16.3555 22.78 16.4695 22.7245C16.582 22.666 16.693 22.603 16.8055 22.54C16.861 22.5085 16.918 22.477 16.975 22.4455C17.032 22.414 17.086 22.378 17.143 22.3435C17.2 22.309 17.3665 22.204 17.479 22.1335C17.9215 21.838 18.3595 21.508 18.775 21.1435C19.1875 20.776 19.5775 20.377 19.9375 19.9555C20.2915 19.5295 20.6155 19.0825 20.9005 18.6265C21.1825 18.1675 21.424 17.698 21.631 17.2345C21.679 17.1175 21.7255 17.0005 21.7735 16.8865C21.796 16.8295 21.8215 16.7725 21.8425 16.714C21.8635 16.6555 21.883 16.5985 21.9025 16.5415C21.922 16.4845 21.9835 16.315 22.0195 16.2025C22.0525 16.09 22.0855 15.9775 22.1185 15.8665C22.135 15.811 22.1515 15.757 22.165 15.703C22.1785 15.649 22.192 15.5935 22.2055 15.5395C22.219 15.4855 22.258 15.325 22.2835 15.22C22.3045 15.115 22.324 15.0115 22.3435 14.9095C22.3525 14.8585 22.363 14.809 22.372 14.758C22.3765 14.7325 22.381 14.7085 22.3855 14.6845C22.39 14.6605 22.393 14.635 22.396 14.6095C22.4095 14.512 22.423 14.4145 22.4365 14.3215C22.4425 14.275 22.45 14.2285 22.456 14.182C22.462 14.1355 22.465 14.0905 22.4695 14.0455C22.474 14.0005 22.4845 13.8685 22.492 13.7845C22.4995 13.7005 22.5085 13.618 22.51 13.537C22.51 13.525 22.5115 13.513 22.5115 13.4995C23.3365 13.4965 24.0055 12.826 24.0055 11.9995C24.0055 11.9875 24.0055 11.974 24.004 11.962C24.004 11.962 24.004 11.9605 24.004 11.9575C24.001 11.866 23.9905 11.7775 23.9725 11.692C23.968 11.6515 23.962 11.6065 23.956 11.557C23.9515 11.5135 23.9455 11.4655 23.9395 11.4145C23.9305 11.3545 23.9215 11.29 23.911 11.2225C23.8915 11.0875 23.869 10.939 23.8435 10.7785C23.812 10.627 23.7775 10.4635 23.7415 10.2895C23.725 10.2025 23.6995 10.114 23.6755 10.0225C23.6515 9.93099 23.6275 9.83799 23.602 9.74049C23.5885 9.69249 23.578 9.64299 23.5615 9.59499C23.545 9.54699 23.53 9.49749 23.515 9.44799C23.5 9.39849 23.4505 9.24699 23.4175 9.14349C23.41 9.11799 23.401 9.09099 23.392 9.06549C23.383 9.03999 23.3725 9.01449 23.3635 8.98749C23.3545 8.96049 23.3245 8.88249 23.305 8.82999C23.2645 8.72499 23.2255 8.61699 23.1835 8.50749C23.137 8.40099 23.0905 8.29149 23.0425 8.18049C23.0185 8.12499 22.9945 8.06949 22.9705 8.01399C22.9465 7.95849 22.918 7.90449 22.891 7.84749C22.864 7.79049 22.7815 7.62549 22.726 7.51149C22.6675 7.39899 22.6045 7.28799 22.5415 7.17549C22.51 7.11999 22.4785 7.06299 22.447 7.00599C22.4155 6.94899 22.3795 6.89499 22.345 6.83799C22.3105 6.78099 22.2055 6.61449 22.135 6.50199C21.8395 6.05949 21.5095 5.62149 21.145 5.20599C20.7775 4.79349 20.3785 4.40349 19.957 4.04349C19.531 3.68949 19.084 3.36549 18.628 3.08049C18.169 2.79849 17.6995 2.55699 17.236 2.34999C17.119 2.30199 17.002 2.25549 16.888 2.20749C16.831 2.18499 16.774 2.15949 16.7155 2.13849C16.657 2.11749 16.6 2.09799 16.543 2.07849C16.486 2.05899 16.3165 1.99749 16.204 1.96149C16.0915 1.92849 15.979 1.89549 15.868 1.86249C15.8125 1.84749 15.7585 1.82949 15.7045 1.81599C15.6505 1.80249 15.595 1.78899 15.541 1.77549C15.487 1.76199 15.3265 1.72299 15.2215 1.69749C15.1165 1.67649 15.013 1.65699 14.911 1.63749C14.86 1.62849 14.8105 1.61799 14.7595 1.60899C14.734 1.60449 14.71 1.59999 14.686 1.59549C14.662 1.59099 14.6365 1.58799 14.6125 1.58499C14.5135 1.57149 14.4175 1.55799 14.3245 1.54449C14.278 1.53849 14.2315 1.53099 14.185 1.52499C14.1385 1.51899 14.0935 1.51599 14.0485 1.51149C14.0035 1.50699 13.8715 1.49649 13.7875 1.48899C13.7035 1.48149 13.621 1.47249 13.5415 1.47099C13.522 1.47099 13.5025 1.46949 13.483 1.46949C13.468 0.654986 12.802 -0.00201416 11.9845 -0.00201416C11.9725 -0.00201416 11.959 -0.00201416 11.947 -0.00051416C11.947 -0.00051416 11.9455 -0.00051416 11.9425 -0.00051416C11.851 0.00248584 11.7625 0.0129858 11.677 0.0309858C11.6365 0.0354858 11.5915 0.0414858 11.542 0.0474858C11.4985 0.0519858 11.4505 0.0579858 11.3995 0.0639858C11.3395 0.0729858 11.275 0.0819858 11.2075 0.0924858C11.0725 0.111986 10.924 0.134486 10.7635 0.159986C10.612 0.191486 10.4485 0.225986 10.2745 0.261986C10.1875 0.278486 10.099 0.303986 10.0075 0.327986C9.91601 0.351986 9.82301 0.377486 9.72551 0.401486C9.67751 0.414986 9.62801 0.425486 9.58001 0.441986C9.53201 0.458486 9.48251 0.473486 9.43301 0.488486C9.38351 0.503486 9.23201 0.552986 9.12851 0.585986C9.10301 0.594986 9.07601 0.602486 9.05051 0.611486C9.02501 0.620486 8.99951 0.630986 8.97251 0.639986C8.94551 0.648986 8.86751 0.678986 8.81501 0.698486C8.71001 0.738986 8.60201 0.777986 8.49251 0.819986C8.38601 0.866486 8.27651 0.912986 8.16551 0.960986C8.11001 0.984986 8.05451 1.00899 7.99901 1.03299C7.94351 1.05699 7.88951 1.08549 7.83251 1.11249C7.77551 1.13949 7.61051 1.22199 7.49651 1.27749C7.38401 1.33599 7.27301 1.39899 7.16051 1.46199C7.10501 1.49349 7.04801 1.52499 6.99101 1.55649C6.93401 1.58799 6.88001 1.62399 6.82301 1.65849C6.76601 1.69299 6.59951 1.79799 6.48701 1.86849C6.04451 2.16549 5.60651 2.49399 5.19101 2.85849C4.77851 3.22599 4.38851 3.62499 4.02851 4.04649C3.67451 4.47249 3.35051 4.91949 3.06551 5.37549C2.78351 5.83449 2.54201 6.30399 2.33501 6.76749C2.28701 6.88449 2.24051 7.00149 2.19251 7.11549C2.17001 7.17249 2.14451 7.22949 2.12351 7.28799C2.10251 7.34649 2.08301 7.40349 2.06351 7.46049C2.04401 7.51749 1.98251 7.68699 1.94651 7.79949C1.91351 7.91199 1.88051 8.02449 1.84751 8.13549C1.83101 8.19099 1.81451 8.24499 1.79951 8.29899C1.78451 8.35299 1.77251 8.40849 1.75901 8.46249C1.74551 8.51649 1.70651 8.67699 1.68101 8.78199C1.66001 8.88699 1.64051 8.99049 1.62101 9.09249C1.61201 9.14349 1.60151 9.19299 1.59251 9.24399C1.58801 9.26949 1.58351 9.29349 1.57901 9.31749C1.57451 9.34149 1.57151 9.36699 1.56851 9.39249C1.55501 9.48999 1.54151 9.58749 1.52801 9.68049C1.52201 9.72699 1.51451 9.77349 1.50851 9.81999C1.50251 9.86649 1.49951 9.91149 1.49501 9.95649C1.49051 10.0015 1.48001 10.1335 1.47251 10.2175C1.46501 10.3015 1.45601 10.384 1.45451 10.465C1.45451 10.4785 1.45301 10.4905 1.45301 10.5025C0.647507 10.528 0.00250708 11.1895 0.00250708 12.001C0.00250708 12.013 0.00250708 12.0265 0.00400708 12.0385H0.00100708ZM1.72301 10.5175C1.72451 10.513 1.72451 10.5085 1.72601 10.504C1.74101 10.4275 1.76501 10.351 1.78601 10.2715C1.80701 10.192 1.83101 10.111 1.85351 10.027C1.86551 9.98499 1.87601 9.94299 1.88951 9.90099C1.90301 9.85899 1.91801 9.81549 1.93151 9.77199C1.94501 9.72849 1.98851 9.59799 2.01851 9.50799C2.02601 9.48549 2.03351 9.46299 2.04101 9.44049C2.04851 9.41799 2.05901 9.39549 2.06651 9.37299C2.07401 9.35049 2.10101 9.28299 2.11901 9.23649C2.13701 9.18999 2.19101 9.05199 2.22851 8.95749C2.27051 8.86449 2.31251 8.76999 2.35451 8.67399C2.37551 8.62599 2.39651 8.57799 2.41901 8.52999C2.44151 8.48199 2.46701 8.43399 2.49101 8.38599C2.51501 8.33799 2.58851 8.19399 2.63801 8.09499C2.68901 7.99749 2.74751 7.90299 2.80151 7.80399C2.82851 7.75599 2.85701 7.70649 2.88551 7.65699C2.91401 7.60749 2.94551 7.56099 2.97701 7.51299C3.03851 7.41699 3.10001 7.31949 3.16301 7.22199C3.42701 6.83949 3.71651 6.46299 4.03751 6.10599C4.36301 5.75199 4.71401 5.41749 5.08301 5.10849C5.45801 4.80549 5.84951 4.53099 6.24701 4.28799C6.64901 4.04949 7.05851 3.84699 7.45901 3.67299C7.56101 3.63249 7.66151 3.59349 7.76201 3.55449C7.81151 3.53499 7.86101 3.51399 7.91051 3.49749C7.96001 3.48099 8.01101 3.46449 8.06051 3.44799C8.11001 3.43149 8.25701 3.38049 8.35451 3.35049C8.45201 3.32349 8.54951 3.29649 8.64551 3.26949C8.69351 3.25599 8.74001 3.24099 8.78801 3.23049C8.83601 3.21999 8.88251 3.20949 8.92901 3.19899C8.97551 3.18849 9.11351 3.15699 9.20501 3.13599C9.29651 3.11949 9.38501 3.10449 9.47351 3.08799C9.51701 3.08049 9.56051 3.07299 9.60401 3.06549C9.62501 3.06099 9.64751 3.05799 9.66851 3.05349C9.68951 3.04899 9.71201 3.04899 9.73301 3.04599C9.81701 3.03549 9.90101 3.02499 9.98201 3.01599C10.0225 3.01149 10.0615 3.00549 10.102 3.00099C10.1425 2.99649 10.1815 2.99499 10.219 2.99199C10.2565 2.98899 10.372 2.98149 10.444 2.97549C10.5175 2.97099 10.5865 2.96349 10.657 2.96349C10.7935 2.96049 10.9225 2.95749 11.041 2.95449C11.1505 2.95899 11.251 2.96199 11.341 2.96499C11.386 2.96649 11.428 2.96799 11.4685 2.96799C11.518 2.97099 11.5645 2.97399 11.608 2.97699C11.6575 2.97999 11.7025 2.98299 11.7445 2.98599C11.821 2.99799 11.899 3.00399 11.9785 3.00399C11.989 3.00399 12.001 3.00399 12.0115 3.00249C12.0145 3.00249 12.0175 3.00249 12.0175 3.00249C12.748 2.98449 13.348 2.44449 13.4605 1.74249C13.4725 1.74549 13.486 1.74849 13.498 1.75149C13.5745 1.76649 13.651 1.79049 13.7305 1.81149C13.81 1.83249 13.891 1.85649 13.975 1.87899C14.017 1.89099 14.059 1.90149 14.101 1.91499C14.143 1.92849 14.1865 1.94349 14.23 1.95699C14.2735 1.97049 14.404 2.01399 14.494 2.04399C14.5165 2.05149 14.539 2.05899 14.5615 2.06649C14.584 2.07399 14.6065 2.08449 14.629 2.09199C14.6515 2.09949 14.719 2.12649 14.7655 2.14449C14.812 2.16249 14.95 2.21649 15.0445 2.25399C15.1375 2.29599 15.232 2.33799 15.328 2.37999C15.376 2.40099 15.424 2.42199 15.472 2.44449C15.52 2.46699 15.568 2.49249 15.616 2.51649C15.664 2.54049 15.808 2.61399 15.907 2.66349C16.0045 2.71449 16.1005 2.77299 16.198 2.82699C16.246 2.85399 16.2955 2.88249 16.345 2.91099C16.3945 2.93949 16.441 2.97099 16.489 3.00249C16.537 3.03399 16.6825 3.12549 16.78 3.18849C17.1625 3.45249 17.539 3.74199 17.896 4.06299C18.25 4.38849 18.5845 4.73949 18.8935 5.10849C19.1965 5.48349 19.471 5.87499 19.714 6.27249C19.9525 6.67449 20.155 7.08399 20.329 7.48449C20.3695 7.58649 20.4085 7.68699 20.4475 7.78749C20.467 7.83699 20.488 7.88649 20.5045 7.93599C20.521 7.98549 20.5375 8.03649 20.554 8.08599C20.5705 8.13549 20.6215 8.28249 20.6515 8.37999C20.6785 8.47749 20.7055 8.57499 20.7325 8.67099C20.746 8.71899 20.761 8.76549 20.7715 8.81349C20.782 8.86149 20.7925 8.90799 20.803 8.95448C20.8135 9.00099 20.845 9.13899 20.866 9.23049C20.8825 9.32199 20.8975 9.41049 20.914 9.49899C20.9215 9.54249 20.929 9.58599 20.9365 9.62949C20.941 9.65049 20.944 9.67299 20.9485 9.69398C20.953 9.71499 20.953 9.73749 20.956 9.75849C20.9665 9.84249 20.977 9.92649 20.986 10.0075C20.9905 10.048 20.9965 10.087 21.001 10.1275C21.0055 10.168 21.007 10.207 21.01 10.2445C21.013 10.282 21.0205 10.3975 21.0265 10.4695C21.031 10.543 21.0385 10.612 21.0385 10.6825C21.0415 10.819 21.0445 10.948 21.0475 11.0665C21.043 11.176 21.04 11.2765 21.037 11.3665C21.0355 11.4115 21.034 11.4535 21.034 11.494C21.031 11.5435 21.028 11.59 21.025 11.6335C21.022 11.683 21.019 11.728 21.016 11.77C21.004 11.8465 20.998 11.9245 20.998 12.004C20.998 12.0145 20.998 12.0265 20.9995 12.037C20.9995 12.04 20.9995 12.043 20.9995 12.043C21.0175 12.7645 21.544 13.3585 22.234 13.4815C22.2325 13.489 22.231 13.495 22.2295 13.5025C22.2145 13.579 22.192 13.6555 22.1695 13.735C22.147 13.8145 22.1245 13.8955 22.102 13.9795C22.09 14.0215 22.0795 14.0635 22.066 14.1055C22.0525 14.1475 22.0375 14.191 22.024 14.2345C22.0105 14.278 21.9655 14.4085 21.937 14.4985C21.9295 14.521 21.922 14.5435 21.9145 14.566C21.907 14.5885 21.8965 14.611 21.889 14.6335C21.8815 14.656 21.8545 14.7235 21.8365 14.77C21.8185 14.8165 21.7645 14.9545 21.727 15.049C21.685 15.142 21.643 15.2365 21.601 15.3325C21.58 15.3805 21.559 15.4285 21.5365 15.4765C21.514 15.5245 21.4885 15.5725 21.4645 15.6205C21.4405 15.6685 21.367 15.8125 21.3175 15.9115C21.2665 16.009 21.208 16.105 21.154 16.2025C21.127 16.2505 21.0985 16.3 21.07 16.3495C21.0415 16.399 21.01 16.4455 20.9785 16.4935C20.947 16.5415 20.8555 16.687 20.7925 16.7845C20.5285 17.167 20.239 17.5435 19.918 17.9005C19.5925 18.2545 19.2415 18.589 18.8725 18.898C18.4975 19.201 18.106 19.4755 17.7085 19.7185C17.3065 19.957 16.897 20.1595 16.4965 20.3335C16.3945 20.374 16.294 20.413 16.1935 20.452C16.144 20.4715 16.0945 20.4925 16.045 20.509C15.9955 20.5255 15.9445 20.542 15.895 20.5585C15.8455 20.575 15.6985 20.626 15.601 20.656C15.5035 20.683 15.406 20.71 15.31 20.737C15.262 20.7505 15.2155 20.7655 15.1675 20.776C15.1195 20.7865 15.073 20.797 15.0265 20.8075C14.98 20.818 14.842 20.8495 14.7505 20.8705C14.659 20.887 14.5705 20.902 14.482 20.9185C14.4385 20.926 14.395 20.9335 14.3515 20.941C14.3305 20.9455 14.3095 20.9485 14.287 20.953C14.2645 20.9575 14.2435 20.9575 14.2225 20.9605C14.1385 20.971 14.0545 20.9815 13.9735 20.9905C13.933 20.995 13.894 21.001 13.8535 21.0055C13.813 21.01 13.774 21.0115 13.7365 21.0145C13.699 21.0175 13.5835 21.025 13.5115 21.031C13.438 21.0355 13.369 21.043 13.2985 21.043C13.162 21.046 13.033 21.049 12.9145 21.052C12.805 21.0475 12.7045 21.0445 12.6145 21.0415C12.5695 21.04 12.5275 21.0385 12.487 21.0385C12.4375 21.0355 12.391 21.0325 12.3475 21.0295C12.298 21.0265 12.253 21.0235 12.211 21.0205C12.1345 21.0085 12.0565 21.0025 11.977 21.0025C11.9665 21.0025 11.9545 21.0025 11.944 21.004C11.941 21.004 11.9395 21.004 11.9395 21.004C11.2135 21.022 10.615 21.5575 10.498 22.255C10.423 22.24 10.3465 22.2175 10.2685 22.1965C10.1905 22.1755 10.108 22.1515 10.024 22.129C9.98201 22.117 9.94001 22.1065 9.89801 22.093C9.85601 22.0795 9.81251 22.0645 9.76901 22.051C9.72551 22.0375 9.59501 21.9925 9.50501 21.964C9.48251 21.9565 9.46001 21.949 9.43751 21.9415C9.41501 21.934 9.39251 21.9235 9.37001 21.916C9.34751 21.9085 9.28001 21.8815 9.23351 21.8635C9.18701 21.8455 9.04901 21.7915 8.95451 21.754C8.86151 21.712 8.76701 21.67 8.67101 21.628C8.62301 21.607 8.57501 21.586 8.52701 21.5635C8.47901 21.541 8.43101 21.5155 8.38301 21.4915C8.33501 21.4675 8.19101 21.394 8.09201 21.3445C7.99451 21.2935 7.89851 21.235 7.80101 21.181C7.75301 21.154 7.70351 21.1255 7.65401 21.097C7.60451 21.0685 7.55801 21.037 7.51001 21.0055C7.41401 20.944 7.31651 20.8825 7.21901 20.8195C6.83651 20.557 6.46001 20.266 6.10301 19.945C5.74901 19.6195 5.41451 19.2685 5.10551 18.8995C4.80251 18.5245 4.52801 18.133 4.28501 17.7355C4.04651 17.3335 3.84401 16.924 3.67001 16.5235C3.62951 16.4215 3.59051 16.321 3.55151 16.2205C3.53201 16.171 3.51101 16.1215 3.49451 16.072C3.47801 16.0225 3.46151 15.9715 3.44501 15.922C3.42851 15.8725 3.37751 15.7255 3.34751 15.628C3.32051 15.5305 3.29351 15.433 3.26651 15.337C3.25301 15.289 3.23801 15.2425 3.22751 15.1945C3.21701 15.1465 3.20651 15.1 3.19601 15.0535C3.18551 15.007 3.15401 14.869 3.13301 14.7775C3.11651 14.686 3.10151 14.5975 3.08501 14.509C3.07751 14.4655 3.07001 14.422 3.06251 14.3785C3.05801 14.3575 3.05501 14.3365 3.05051 14.314C3.04601 14.2915 3.04601 14.2705 3.04301 14.2495C3.03251 14.1655 3.02201 14.0815 3.01301 14.0005C3.00851 13.96 3.00251 13.921 2.99801 13.8805C2.99351 13.84 2.99201 13.801 2.98901 13.7635C2.98601 13.726 2.97851 13.612 2.97251 13.5385C2.96801 13.465 2.96051 13.396 2.96051 13.3255C2.95751 13.189 2.95451 13.06 2.95151 12.9415C2.95601 12.832 2.95901 12.7315 2.96201 12.6415C2.96351 12.5965 2.96501 12.5545 2.96501 12.514C2.96801 12.4645 2.97101 12.418 2.97401 12.3745C2.97701 12.325 2.98001 12.28 2.98301 12.238C2.99501 12.1615 3.00101 12.0835 3.00101 12.004C3.00101 11.9935 3.00101 11.9815 2.99951 11.971C2.99951 11.968 2.99951 11.9665 2.99951 11.9665C2.98151 11.2315 2.43401 10.627 1.72301 10.5205V10.5175Z" fill="black"/>
</g>
<defs>
<clipPath id="clip0_201_66324">
<rect width="24" height="24" fill="white"/>
</clipPath>
</defs>
</svg>
