<svg width="24" height="24" viewBox="0 0 24 24" fill="none" xmlns="http://www.w3.org/2000/svg">
<g clip-path="url(#clip0_201_66326)">
<path d="M23.9995 9H14.9995L18.364 5.6355C16.6645 3.936 14.404 3 11.9995 3C9.59501 3 7.33601 3.936 5.63501 5.6355C3.93551 7.335 2.99951 9.5955 2.99951 12C2.99951 14.4045 3.93551 16.6635 5.63501 18.3645C7.33451 20.064 9.59501 21 11.9995 21C14.404 21 16.663 20.064 18.364 18.3645C18.5065 18.222 18.6415 18.0765 18.7735 17.9265L21.031 19.902C18.832 22.413 15.601 24 12.001 24C5.37401 24 0.00100708 18.627 0.00100708 12C0.00100708 5.373 5.37401 0 12.001 0C15.3145 0 18.3145 1.344 20.485 3.516L23.9995 0V9Z" fill="black"/>
</g>
<defs>
<clipPath id="clip0_201_66326">
<rect width="24" height="24" fill="white"/>
</clipPath>
</defs>
</svg>
