<svg width="24" height="24" viewBox="0 0 24 24" fill="none" xmlns="http://www.w3.org/2000/svg">
<g clip-path="url(#clip0_201_66330)">
<path d="M23.256 20.4235L17.571 15.589C16.983 15.0595 16.3545 14.818 15.8475 14.8405C17.19 13.2685 18 11.23 18 9.00098C18 4.02998 13.971 0.000976562 9 0.000976562C4.029 0.000976562 0 4.02998 0 9.00098C0 13.972 4.029 18.001 9 18.001C11.229 18.001 13.2675 17.191 14.8395 15.8485C14.8155 16.3555 15.0585 16.984 15.588 17.572L20.4225 23.257C21.2505 24.1765 22.602 24.2545 23.427 23.4295C24.252 22.6045 24.174 21.2515 23.2545 20.425L23.256 20.4235ZM9 14.9995C5.6865 14.9995 3 12.313 3 8.99948C3 5.68598 5.6865 2.99948 9 2.99948C12.3135 2.99948 15 5.68598 15 8.99948C15 12.313 12.3135 14.9995 9 14.9995Z" fill="black"/>
</g>
<defs>
<clipPath id="clip0_201_66330">
<rect width="24" height="24" fill="white"/>
</clipPath>
</defs>
</svg>
