<svg width="24" height="24" viewBox="0 0 24 24" fill="none" xmlns="http://www.w3.org/2000/svg">
<g clip-path="url(#clip0_201_66350)">
<path d="M16.5 0C12.3585 0 9 3.3585 9 7.5C9 7.9695 9.0435 8.4285 9.126 8.874L0 18V22.5C0 23.328 0.672 24 1.5 24H3V22.5H6V19.5H9V16.5H12L13.947 14.553C14.7435 14.841 15.6045 15 16.5 15C20.6415 15 24 11.6415 24 7.5C24 3.3585 20.6415 0 16.5 0ZM18.747 7.503C17.505 7.503 16.497 6.495 16.497 5.253C16.497 4.011 17.505 3.003 18.747 3.003C19.989 3.003 20.997 4.011 20.997 5.253C20.997 6.495 19.989 7.503 18.747 7.503Z" fill="black"/>
</g>
<defs>
<clipPath id="clip0_201_66350">
<rect width="24" height="24" fill="white"/>
</clipPath>
</defs>
</svg>
