<svg width="24" height="24" viewBox="0 0 24 24" fill="none" xmlns="http://www.w3.org/2000/svg">
<g clip-path="url(#clip0_201_66352)">
<path d="M23.4875 7.36535L21.1175 4.99535C20.537 4.41485 19.586 3.46385 19.004 2.88185L16.634 0.511853C16.0535 -0.0686471 15.0185 -0.172147 14.3345 0.283853L7.85599 4.60385C7.17199 5.05985 6.91399 6.03485 7.28149 6.76985L8.93299 10.0744C8.98399 10.1749 9.04249 10.2829 9.10549 10.3939L0.748993 18.7504L-0.00100708 24.0004H4.49899V22.5004H7.49899V19.5004H10.499V16.5004H13.499V14.8324C13.649 14.9224 13.793 15.0019 13.925 15.0679L17.2295 16.7194C17.9645 17.0869 18.9395 16.8274 19.3955 16.1449L23.7155 9.66635C24.1715 8.98235 24.0695 7.94735 23.4875 7.36685V7.36535ZM3.53149 20.0314L2.47099 18.9709L9.77299 11.6689L10.8335 12.7294L3.53149 20.0314ZM21.4925 9.93185L20.432 10.9924C20.141 11.2834 19.6625 11.2834 19.3715 10.9924L13.007 4.62785C12.716 4.33685 12.716 3.85835 13.007 3.56735L14.0675 2.50685C14.3585 2.21585 14.837 2.21585 15.128 2.50685L21.4925 8.87135C21.7835 9.16235 21.7835 9.64085 21.4925 9.93185Z" fill="black"/>
</g>
<defs>
<clipPath id="clip0_201_66352">
<rect width="24" height="24" fill="white"/>
</clipPath>
</defs>
</svg>
