<svg width="24" height="24" viewBox="0 0 24 24" fill="none" xmlns="http://www.w3.org/2000/svg">
<g clip-path="url(#clip0_201_66364)">
<path d="M21.885 14.3025C20.6265 12.1215 21.3825 9.327 23.5755 8.0565L21.2175 3.972C20.544 4.3665 19.7595 4.593 18.924 4.593C16.404 4.593 14.361 2.5365 14.361 0H9.6435C9.6495 0.783 9.4545 1.5765 9.0345 2.3025C7.776 4.4835 4.9755 5.2245 2.7795 3.9615L0.421501 8.046C1.101 8.4315 1.689 8.997 2.106 9.7215C3.363 11.8995 2.61 14.688 0.426001 15.9615L2.784 20.046C3.456 19.6545 4.2345 19.431 5.067 19.431C7.5795 19.431 9.6165 21.474 9.63 24H14.3475C14.346 23.2245 14.541 22.44 14.9565 21.7215C16.2135 19.5435 19.0065 18.801 21.201 20.0565L23.559 15.972C22.884 15.5865 22.3005 15.0225 21.885 14.3025ZM12 16.86C9.3165 16.86 7.14 14.685 7.14 12C7.14 9.315 9.315 7.14 12 7.14C14.6835 7.14 16.86 9.315 16.86 12C16.86 14.685 14.685 16.86 12 16.86Z" fill="black"/>
</g>
<defs>
<clipPath id="clip0_201_66364">
<rect width="24" height="24" fill="white"/>
</clipPath>
</defs>
</svg>
