<svg width="24" height="24" viewBox="0 0 24 24" fill="none" xmlns="http://www.w3.org/2000/svg">
<g clip-path="url(#clip0_201_66366)">
<path d="M8.5245 16.924L9.492 15.5695L8.4315 14.509L7.077 15.4765C6.825 15.3355 6.5565 15.2245 6.2745 15.1435L6 13.501H4.5L4.2255 15.1435C3.9435 15.223 3.6735 15.3355 3.423 15.4765L2.0685 14.509L1.008 15.5695L1.9755 16.924C1.8345 17.176 1.7235 17.4445 1.6425 17.7265L0 18.001V19.501L1.6425 19.7755C1.722 20.0575 1.8345 20.3275 1.9755 20.578L1.008 21.9325L2.0685 22.993L3.423 22.0255C3.675 22.1665 3.9435 22.2775 4.2255 22.3585L4.5 24.001H6L6.2745 22.3585C6.5565 22.279 6.8265 22.1665 7.077 22.0255L8.4315 22.993L9.492 21.9325L8.5245 20.578C8.6655 20.326 8.7765 20.0575 8.8575 19.7755L10.5 19.5025V18.0025L8.8575 17.728C8.778 17.446 8.6655 17.176 8.5245 16.9255V16.924ZM5.25 20.251C4.422 20.251 3.75 19.579 3.75 18.751C3.75 17.923 4.422 17.251 5.25 17.251C6.078 17.251 6.75 17.923 6.75 18.751C6.75 19.579 6.078 20.251 5.25 20.251ZM24 9.00099V7.50099L22.4205 7.21449C22.392 7.02549 22.3545 6.83949 22.3095 6.65649L23.658 5.78649L23.0835 4.40049L21.5145 4.73949C21.4155 4.57749 21.3105 4.41999 21.198 4.26699L22.1115 2.94699L21.051 1.88649L19.731 2.79999C19.578 2.68899 19.4205 2.58249 19.2585 2.48349L19.5975 0.914486L18.2115 0.339986L17.3415 1.68849C17.1585 1.64349 16.9725 1.60749 16.7835 1.57749L16.497 -0.00201416H14.997L14.7105 1.57749C14.5215 1.60599 14.3355 1.64349 14.1525 1.68849L13.2825 0.339986L11.8965 0.914486L12.2355 2.48349C12.0735 2.58249 11.916 2.68749 11.763 2.79999L10.443 1.88649L9.3825 2.94699L10.296 4.26699C10.185 4.41999 10.0785 4.57749 9.9795 4.73949L8.4105 4.40049L7.836 5.78649L9.1845 6.65649C9.1395 6.83949 9.1035 7.02549 9.0735 7.21449L7.494 7.50099V9.00099L9.0735 9.28749C9.102 9.47649 9.1395 9.66249 9.1845 9.84549L7.836 10.7155L8.4105 12.1015L9.9795 11.7625C10.0785 11.9245 10.1835 12.082 10.296 12.235L9.3825 13.555L10.443 14.6155L11.763 13.702C11.916 13.813 12.0735 13.9195 12.2355 14.0185L11.8965 15.5875L13.2825 16.162L14.1525 14.8135C14.3355 14.8585 14.5215 14.8945 14.7105 14.9245L14.997 16.504H16.497L16.7835 14.9245C16.9725 14.896 17.1585 14.8585 17.3415 14.8135L18.2115 16.162L19.5975 15.5875L19.2585 14.0185C19.4205 13.9195 19.578 13.8145 19.731 13.702L21.051 14.6155L22.1115 13.555L21.198 12.235C21.309 12.082 21.4155 11.9245 21.5145 11.7625L23.0835 12.1015L23.658 10.7155L22.3095 9.84549C22.3545 9.66249 22.3905 9.47649 22.4205 9.28749L24 9.00099ZM15.75 11.5135C13.9485 11.5135 12.4875 10.0525 12.4875 8.25099C12.4875 6.44949 13.9485 4.98849 15.75 4.98849C17.5515 4.98849 19.0125 6.44949 19.0125 8.25099C19.0125 10.0525 17.5515 11.5135 15.75 11.5135Z" fill="black"/>
</g>
<defs>
<clipPath id="clip0_201_66366">
<rect width="24" height="24" fill="white"/>
</clipPath>
</defs>
</svg>
