<svg width="24" height="24" viewBox="0 0 24 24" fill="none" xmlns="http://www.w3.org/2000/svg">
<g clip-path="url(#clip0_201_66370)">
<path d="M6 4.5L3 1.5H1.5V3L4.5 6L6 4.5ZM7.5 0H9V3H7.5V0ZM13.5 7.5H16.5V9H13.5V7.5ZM15 3V1.5H13.5L10.5 4.5L12 6L15 3ZM0 7.5H3V9H0V7.5ZM7.5 13.5H9V16.5H7.5V13.5ZM1.5 13.5V15H3L6 12L4.5 10.5L1.5 13.5ZM23.6715 20.6715L8.763 5.763C8.325 5.325 7.6095 5.325 7.1715 5.763L5.763 7.1715C5.325 7.6095 5.325 8.325 5.763 8.763L20.6715 23.6715C21.1095 24.1095 21.825 24.1095 22.263 23.6715L23.6715 22.263C24.1095 21.825 24.1095 21.1095 23.6715 20.6715ZM11.25 12.75L6.75 8.25L8.25 6.75L12.75 11.25L11.25 12.75Z" fill="black"/>
</g>
<defs>
<clipPath id="clip0_201_66370">
<rect width="24" height="24" fill="white"/>
</clipPath>
</defs>
</svg>
