<svg width="24" height="24" viewBox="0 0 24 24" fill="none" xmlns="http://www.w3.org/2000/svg">
<g clip-path="url(#clip0_201_66374)">
<path d="M23.999 13.5005V12.0005H19.469C19.331 10.2965 18.7235 8.74252 17.789 7.49452H21.584L23.2265 0.926023L21.7715 0.561523L20.414 5.99302H16.3205C16.2995 5.97652 16.2785 5.96152 16.2575 5.94502C16.415 5.48752 16.5005 4.99702 16.5005 4.48702C16.5005 2.00752 14.486 -0.000976562 12.0005 -0.000976562C9.515 -0.000976562 7.5005 2.00902 7.5005 4.48702C7.5005 4.99702 7.586 5.48752 7.7435 5.94502C7.7225 5.96152 7.7015 5.97652 7.6805 5.99302H3.587L2.2295 0.561523L0.774499 0.926023L2.417 7.49452H6.212C5.2775 8.74252 4.67 10.2965 4.532 12.0005H0.0019989V13.5005H4.5335C4.622 14.57 4.8965 15.5825 5.3225 16.4945H2.417L0.774499 23.063L2.2295 23.4275L3.587 17.996H6.221C7.5965 19.8245 9.6755 20.99 12.002 20.99C14.3285 20.99 16.4075 19.8245 17.783 17.996H20.417L21.7745 23.4275L23.2295 23.063L21.587 16.4945H18.6815C19.106 15.5825 19.3805 14.57 19.4705 13.5005H24.002H23.999Z" fill="black"/>
</g>
<defs>
<clipPath id="clip0_201_66374">
<rect width="24" height="24" fill="white"/>
</clipPath>
</defs>
</svg>
