<svg width="24" height="24" viewBox="0 0 24 24" fill="none" xmlns="http://www.w3.org/2000/svg">
<path d="M6.75 9H2.25C1.8375 9 1.5 9.3375 1.5 9.75V23.25C1.5 23.6625 1.8375 24 2.25 24H6.75C7.1625 24 7.5 23.6625 7.5 23.25V9.75C7.5 9.3375 7.1625 9 6.75 9ZM6.75 22.5H2.25V16.5H6.75V22.5ZM14.25 6H9.75C9.3375 6 9 6.3375 9 6.75V23.25C9 23.6625 9.3375 24 9.75 24H14.25C14.6625 24 15 23.6625 15 23.25V6.75C15 6.3375 14.6625 6 14.25 6ZM14.25 22.5H9.75V15H14.25V22.5ZM21.75 3H17.25C16.8375 3 16.5 3.3375 16.5 3.75V23.25C16.5 23.6625 16.8375 24 17.25 24H21.75C22.1625 24 22.5 23.6625 22.5 23.25V3.75C22.5 3.3375 22.1625 3 21.75 3ZM21.75 22.5H17.25V13.5H21.75V22.5Z" fill="black"/>
</svg>
