<svg width="24" height="24" viewBox="0 0 24 24" fill="none" xmlns="http://www.w3.org/2000/svg">
<path d="M18.0825 7.49999C18.507 7.19849 18.915 6.86249 19.2885 6.48899C20.0715 5.70599 20.595 4.74299 20.763 3.77699C20.9475 2.71799 20.6775 1.73399 20.022 1.07999C19.5 0.557987 18.792 0.280487 17.9745 0.280487C16.812 0.280487 15.585 0.838487 14.6115 1.81199C13.053 3.37049 12.1455 5.51999 11.6565 7.05599C11.295 5.51399 10.5735 3.43199 9.171 2.02949C8.4195 1.27799 7.458 0.890987 6.549 0.890987C5.8065 0.890987 5.1015 1.14899 4.5735 1.67549C3.402 2.84699 3.561 4.90499 4.9275 6.27149C5.415 6.75899 5.985 7.16399 6.585 7.49999H1.4985V13.5H2.9985V24H20.9985V13.5H22.4985V7.49999H18.081H18.0825ZM15.804 3.00449C16.4535 2.35499 17.265 1.96649 17.973 1.96649C18.2235 1.96649 18.576 2.01899 18.828 2.27099C19.4385 2.88149 19.095 4.29449 18.0945 5.29499C17.064 6.32549 15.6795 7.03349 14.475 7.49999H13.287C13.722 6.15149 14.5065 4.30199 15.804 3.00449ZM5.4825 3.77099C5.466 3.55649 5.481 3.15599 5.769 2.86949C6.009 2.62949 6.327 2.57849 6.5505 2.57849C7.0485 2.57849 7.569 2.81399 7.9785 3.22199C8.772 4.01549 9.426 5.27849 9.8685 6.87599C9.8805 6.91949 9.8925 6.96149 9.903 7.00499C9.861 6.99299 9.8175 6.98249 9.774 6.97049C8.178 6.52799 6.915 5.87399 6.12 5.08049C5.7495 4.70999 5.5155 4.23299 5.481 3.77249L5.4825 3.77099ZM10.5 22.5H4.5V12.75H10.5V22.5ZM10.5 12H3V8.99999H10.5V12ZM19.5 22.5H13.5V12.75H19.5V22.5ZM21 12H13.5V8.99999H21V12Z" fill="black"/>
</svg>
