<svg width="24" height="24" viewBox="0 0 24 24" fill="none" xmlns="http://www.w3.org/2000/svg">
<path d="M18.2295 0.3945C18.099 0.1515 17.8455 0 17.5695 0H6.432C6.156 0 5.9025 0.1515 5.772 0.3945C4.941 1.9425 4.5015 3.75 4.5015 5.625C4.5015 8.0955 5.2605 10.425 6.6375 12.186C7.7025 13.5465 9.039 14.448 10.5015 14.8155V22.5H8.2515C7.8375 22.5 7.5015 22.836 7.5015 23.25C7.5015 23.664 7.8375 24 8.2515 24H15.7515C16.1655 24 16.5015 23.664 16.5015 23.25C16.5015 22.836 16.1655 22.5 15.7515 22.5H13.5015V14.8155C14.964 14.4495 16.3005 13.5465 17.3655 12.186C18.7425 10.425 19.5015 8.0955 19.5015 5.625C19.5015 3.7515 19.062 1.9425 18.231 0.3945H18.2295ZM6.8925 1.5H17.106C17.691 2.7405 17.9985 4.1565 17.9985 5.625C17.9985 5.751 17.9955 5.8755 17.991 6H6.0045C6 5.8755 5.997 5.751 5.997 5.625C5.997 4.1565 6.3045 2.7405 6.8895 1.5H6.8925Z" fill="black"/>
</svg>
