<svg width="24" height="24" viewBox="0 0 24 24" fill="none" xmlns="http://www.w3.org/2000/svg">
<g clip-path="url(#clip0_201_66390)">
<path d="M20.8395 4.2135C21.0165 3.987 21.0495 3.681 20.925 3.423C20.8005 3.165 20.538 3.0015 20.25 3.0015H3.75C3.4635 3.0015 3.201 3.165 3.075 3.423C2.949 3.681 2.982 3.9885 3.1605 4.2135L10.5 13.5555V22.5H8.25C7.836 22.5 7.5 22.836 7.5 23.25C7.5 23.664 7.836 24 8.25 24H15.75C16.164 24 16.5 23.664 16.5 23.25C16.5 22.836 16.164 22.5 15.75 22.5H13.5V13.5555L20.8395 4.2135ZM18.7065 4.5L16.35 7.5H7.65L5.2935 4.5H18.708H18.7065Z" fill="black"/>
</g>
<defs>
<clipPath id="clip0_201_66390">
<rect width="24" height="24" fill="white"/>
</clipPath>
</defs>
</svg>
