<svg width="24" height="24" viewBox="0 0 24 24" fill="none" xmlns="http://www.w3.org/2000/svg">
<path d="M22.5 7.5H18V5.25C18 3.1785 13.971 1.5 9 1.5C4.029 1.5 0 3.1785 0 5.25V20.25C0 22.3215 4.029 24 9 24C13.971 24 18 22.3215 18 20.25V18H22.5C23.328 18 24 17.328 24 16.5V9C24 8.172 23.328 7.5 22.5 7.5ZM4.1265 6.0555C3.2595 5.7705 2.7345 5.4645 2.4525 5.25C2.7345 5.0355 3.2595 4.7295 4.1265 4.4445C5.484 3.9975 7.215 3.75 9 3.75C10.785 3.75 12.516 3.996 13.8735 4.4445C14.7405 4.7295 15.2655 5.0355 15.5475 5.25C15.2655 5.4645 14.7405 5.7705 13.8735 6.0555C12.516 6.5025 10.785 6.75 9 6.75C7.215 6.75 5.484 6.504 4.1265 6.0555ZM21 15H18V10.5H21V15Z" fill="black"/>
</svg>
