<svg width="24" height="24" viewBox="0 0 24 24" fill="none" xmlns="http://www.w3.org/2000/svg">
<g clip-path="url(#clip0_201_66396)">
<path d="M23.703 3.15299C21.108 1.18649 17.1135 0.0119934 13.017 0.0119934C7.95151 0.0119934 3.82351 1.78049 1.69351 4.86449C0.693007 6.31199 0.139507 8.02799 0.0480069 9.96149C-0.0329931 11.6835 0.256507 13.5885 0.907507 15.6375C3.13051 8.97149 9.34051 3.75299 16.5 3.75299C16.5 3.75299 9.80101 5.51549 5.58901 10.977C5.58601 10.98 5.53051 11.049 5.43451 11.181C4.58851 12.312 3.85201 13.599 3.30001 15.0555C2.36551 17.2785 1.50001 20.328 1.50001 24.003H4.50001C4.50001 24.003 4.04401 21.138 4.83601 17.844C6.14551 18.021 7.31701 18.1095 8.37151 18.1095C11.13 18.1095 13.0905 17.5125 14.544 16.2315C15.846 15.084 16.5645 13.5405 17.325 11.9085C18.486 9.41399 19.8015 6.58799 23.622 4.40549C23.841 4.28099 23.982 4.05449 23.9985 3.80249C24.015 3.55049 23.904 3.30899 23.703 3.15599V3.15299Z" fill="black"/>
</g>
<defs>
<clipPath id="clip0_201_66396">
<rect width="24" height="24" fill="white"/>
</clipPath>
</defs>
</svg>
