<svg width="24" height="24" viewBox="0 0 24 24" fill="none" xmlns="http://www.w3.org/2000/svg">
<g clip-path="url(#clip0_201_66402)">
<path d="M12 0C5.373 0 0 5.373 0 12C0 18.627 5.373 24 12 24C18.627 24 24 18.627 24 12C24 5.373 18.627 0 12 0ZM7.098 19.551C7.359 18.8325 7.5 18.0585 7.5 17.25C7.5 14.3355 5.6535 11.853 3.066 10.908C3.306 8.9175 4.197 7.0755 5.637 5.637C7.3365 3.9375 9.597 3.0015 12.0015 3.0015C14.406 3.0015 16.665 3.9375 18.366 5.637C19.806 7.077 20.697 8.919 20.937 10.908C18.3495 11.853 16.503 14.3355 16.503 17.25C16.503 18.0585 16.6455 18.8325 16.905 19.551C15.459 20.4945 13.77 21 12.003 21C10.236 21 8.547 20.493 7.101 19.551H7.098ZM12.9315 15.024C13.257 15.1065 13.5 15.4005 13.5 15.75V17.25C13.5 17.6625 13.1625 18 12.75 18H11.25C10.8375 18 10.5 17.6625 10.5 17.25V15.75C10.5 15.4005 10.743 15.105 11.0685 15.024L11.625 4.5H12.375L12.9315 15.024Z" fill="black"/>
</g>
<defs>
<clipPath id="clip0_201_66402">
<rect width="24" height="24" fill="white"/>
</clipPath>
</defs>
</svg>
