<svg width="24" height="24" viewBox="0 0 24 24" fill="none" xmlns="http://www.w3.org/2000/svg">
<g clip-path="url(#clip0_201_66404)">
<path d="M23.6758 21.4628L10.8178 9.75677L11.4163 9.15677C11.9053 8.66627 12.1708 8.03177 12.2113 7.38527C12.2353 7.37477 12.2578 7.36427 12.2803 7.35077L14.6938 5.84177C15.0208 5.45777 14.9968 4.85177 14.6398 4.49477L10.4413 0.285768C10.0858 -0.0712322 9.47979 -0.0952322 9.09729 0.231768L7.59129 2.65277C7.57929 2.67527 7.56879 2.69927 7.55829 2.72177C6.91329 2.76227 6.28029 3.02777 5.79129 3.51827L3.50829 5.80877C3.01779 6.29927 2.75379 6.93377 2.71329 7.58027C2.68929 7.59077 2.66679 7.60127 2.64429 7.61477L0.230791 9.12377C-0.0962088 9.50777 -0.0722088 10.1138 0.284791 10.4708L4.48329 14.6798C4.83879 15.0368 5.44479 15.0608 5.82729 14.7338L7.33329 12.3128C7.34529 12.2903 7.35579 12.2663 7.36779 12.2438C8.01279 12.2033 8.64579 11.9378 9.13479 11.4473L9.79779 10.7828L21.4723 23.6768C21.8113 24.0503 22.3318 24.1103 22.6318 23.8103L23.8123 22.6268C24.1108 22.3268 24.0508 21.8033 23.6788 21.4643L23.6758 21.4628Z" fill="black"/>
</g>
<defs>
<clipPath id="clip0_201_66404">
<rect width="24" height="24" fill="white"/>
</clipPath>
</defs>
</svg>
