<svg width="24" height="24" viewBox="0 0 24 24" fill="none" xmlns="http://www.w3.org/2000/svg">
<path d="M21 0H15L16.5 13.5C16.5 15.9855 14.4855 18 12 18C9.5145 18 7.5 15.9855 7.5 13.5L9 0H3L1.5 13.5C1.5 19.299 6.201 24 12 24C17.799 24 22.5 19.299 22.5 13.5L21 0ZM18.231 19.731C16.566 21.396 14.3535 22.3125 12 22.3125C9.6465 22.3125 7.4325 21.396 5.769 19.731C4.125 18.087 3.2115 15.909 3.189 13.5885L4.035 5.976H6.639L5.814 13.4055V13.4985C5.814 15.1515 6.4575 16.7055 7.626 17.874C8.7945 19.0425 10.3485 19.686 12.0015 19.686C13.6545 19.686 15.2085 19.0425 16.377 17.874C17.5455 16.7055 18.189 15.1515 18.189 13.4985V13.4055L18.1785 13.3125L17.364 5.976H19.968L20.814 13.5885C20.7915 15.909 19.8765 18.087 18.234 19.731H18.231Z" fill="black"/>
</svg>
