<svg width="24" height="24" viewBox="0 0 24 24" fill="none" xmlns="http://www.w3.org/2000/svg">
<path d="M3 7.5V22.5C3 23.325 3.675 24 4.5 24H18C18.825 24 19.5 23.325 19.5 22.5V7.5H3ZM7.5 21H6V10.5H7.5V21ZM10.5 21H9V10.5H10.5V21ZM13.5 21H12V10.5H13.5V21ZM16.5 21H15V10.5H16.5V21Z" fill="black"/>
<path d="M19.875 3H15V1.125C15 0.507 14.493 0 13.875 0H8.625C8.007 0 7.5 0.507 7.5 1.125V3H2.625C2.0055 3 1.5 3.5055 1.5 4.125V6H21V4.125C21 3.5055 20.493 3 19.875 3ZM13.5 3H9V1.5195H13.5V3Z" fill="black"/>
</svg>
