<svg width="24" height="24" viewBox="0 0 24 24" fill="none" xmlns="http://www.w3.org/2000/svg">
<path d="M22.5 6H16.5V4.5C16.5 3.675 15.825 3 15 3H9C8.175 3 7.5 3.675 7.5 4.5V6H1.5C0.675 6 0 6.675 0 7.5V21C0 21.825 0.675 22.5 1.5 22.5H22.5C23.325 22.5 24 21.825 24 21V7.5C24 6.675 23.325 6 22.5 6ZM9 4.503C9.0015 4.5015 9.0015 4.5015 9.003 4.5H14.997C14.9985 4.5015 14.9985 4.5015 15 4.503V6H9V4.503ZM22.5 12H19.5V14.25C19.5 14.6625 19.1625 15 18.75 15H17.25C16.8375 15 16.5 14.6625 16.5 14.25V12H7.5V14.25C7.5 14.6625 7.1625 15 6.75 15H5.25C4.8375 15 4.5 14.6625 4.5 14.25V12H1.5V10.5H22.5V12Z" fill="black"/>
</svg>
