<svg width="24" height="24" viewBox="0 0 24 24" fill="none" xmlns="http://www.w3.org/2000/svg">
<path d="M24 13.5L21 7.5H16.5V4.5C16.5 3.675 15.825 3 15 3H1.5C0.675 3 0 3.675 0 4.5V16.5L1.5 18H3.402C3.147 18.441 3 18.954 3 19.5C3 21.1575 4.3425 22.5 6 22.5C7.6575 22.5 9 21.1575 9 19.5C9 18.954 8.853 18.441 8.598 18H16.902C16.647 18.441 16.5 18.954 16.5 19.5C16.5 21.1575 17.8425 22.5 19.5 22.5C21.1575 22.5 22.5 21.1575 22.5 19.5C22.5 18.954 22.353 18.441 22.098 18H24V13.5ZM16.5 13.5V9H19.6095L21.8595 13.5H16.5Z" fill="black"/>
</svg>
