<svg width="24" height="24" viewBox="0 0 24 24" fill="none" xmlns="http://www.w3.org/2000/svg">
<g clip-path="url(#clip0_201_66428)">
<path d="M24 10.5H21.6345C20.9865 6.3225 17.6775 3.0135 13.5 2.3655V0H10.5V2.3655C6.3225 3.0135 3.0135 6.3225 2.3655 10.5H0V13.5H2.3655C3.0135 17.6775 6.3225 20.9865 10.5 21.6345V24H13.5V21.6345C17.6775 20.9865 20.9865 17.6775 21.6345 13.5H24V10.5ZM18.582 10.5H16.2435C15.792 9.222 14.778 8.208 13.5 7.7565V5.418C16.02 5.9925 18.0075 7.98 18.582 10.5ZM12 13.5C11.172 13.5 10.5 12.828 10.5 12C10.5 11.172 11.172 10.5 12 10.5C12.828 10.5 13.5 11.172 13.5 12C13.5 12.828 12.828 13.5 12 13.5ZM10.5 5.418V7.7565C9.222 8.208 8.208 9.222 7.7565 10.5H5.418C5.9925 7.98 7.98 5.9925 10.5 5.418ZM5.418 13.5H7.7565C8.208 14.778 9.222 15.792 10.5 16.2435V18.582C7.98 18.0075 5.9925 16.02 5.418 13.5ZM13.5 18.582V16.2435C14.778 15.792 15.792 14.778 16.2435 13.5H18.582C18.0075 16.02 16.02 18.0075 13.5 18.582Z" fill="black"/>
</g>
<defs>
<clipPath id="clip0_201_66428">
<rect width="24" height="24" fill="white"/>
</clipPath>
</defs>
</svg>
