<svg width="24" height="24" viewBox="0 0 24 24" fill="none" xmlns="http://www.w3.org/2000/svg">
<g clip-path="url(#clip0_201_66436)">
<path d="M24 6.621L21.879 4.5L17.6895 8.6895L15.3105 6.3105L19.5 2.121L17.379 0L13.1895 4.1895L10.5 1.5L8.46899 3.5295L20.469 15.5295L22.5 13.5L19.8105 10.8105L24 6.621Z" fill="black"/>
<path d="M18.6105 15.792L8.208 5.3895C5.9625 8.082 3.414 12.2445 5.175 15.825L2.076 18.924C1.347 19.653 1.347 20.847 2.076 21.576L2.424 21.924C3.153 22.653 4.347 22.653 5.076 21.924L8.175 18.825C11.7555 20.586 15.9165 18.039 18.6105 15.792Z" fill="black"/>
</g>
<defs>
<clipPath id="clip0_201_66436">
<rect width="24" height="24" fill="white"/>
</clipPath>
</defs>
</svg>
