<svg width="24" height="24" viewBox="0 0 24 24" fill="none" xmlns="http://www.w3.org/2000/svg">
<path d="M21.75 3H15C15 1.3425 13.6575 0 12 0C10.3425 0 9 1.3425 9 3H2.25C1.836 3 1.5 3.336 1.5 3.75V23.25C1.5 23.664 1.836 24 2.25 24H21.75C22.164 24 22.5 23.664 22.5 23.25V3.75C22.5 3.336 22.164 3 21.75 3ZM12 1.5C12.828 1.5 13.5 2.172 13.5 3C13.5 3.828 12.828 4.5 12 4.5C11.172 4.5 10.5 3.828 10.5 3C10.5 2.172 11.172 1.5 12 1.5ZM21 22.5H3V4.5H6V6.75C6 7.164 6.336 7.5 6.75 7.5H17.25C17.664 7.5 18 7.164 18 6.75V4.5H21V22.5Z" fill="black"/>
<path d="M10.5 20.121L5.6895 14.5605L7.0605 13.1895L10.5 15.879L16.9395 10.1895L18.3105 11.5605L10.5 20.121Z" fill="black"/>
</svg>
