<svg width="24" height="24" viewBox="0 0 24 24" fill="none" xmlns="http://www.w3.org/2000/svg">
<g clip-path="url(#clip0_201_66462)">
<path d="M24 15.411C24 13.4865 22.671 11.874 20.883 11.439C20.8065 8.4225 18.3405 6 15.3075 6C13.5315 6 11.949 6.8325 10.9275 8.127C10.3545 7.386 9.4575 6.909 8.4495 6.909C6.72 6.909 5.3175 8.313 5.3175 10.0425C5.3175 10.194 5.328 10.341 5.349 10.4865C5.0865 10.4385 4.815 10.413 4.539 10.413C2.031 10.413 -0.00149536 12.447 -0.00149536 14.9565C-0.00149536 17.466 2.031 19.5 4.539 19.5H19.92C22.173 19.4955 23.9985 17.667 23.9985 15.411H24Z" fill="black"/>
</g>
<defs>
<clipPath id="clip0_201_66462">
<rect width="24" height="24" fill="white"/>
</clipPath>
</defs>
</svg>
