<svg width="24" height="24" viewBox="0 0 24 24" fill="none" xmlns="http://www.w3.org/2000/svg">
<g clip-path="url(#clip0_201_66464)">
<path d="M20.883 8.439C20.8065 5.4225 18.3405 3 15.3075 3C13.5315 3 11.949 3.8325 10.9275 5.127C10.3545 4.386 9.4575 3.909 8.4495 3.909C6.72 3.909 5.3175 5.313 5.3175 7.0425C5.3175 7.194 5.328 7.341 5.349 7.4865C5.0865 7.4385 4.815 7.413 4.539 7.413C2.031 7.413 -0.00149536 9.447 -0.00149536 11.9565C-0.00149536 14.466 2.031 16.5 4.539 16.5H6.69L11.9985 21.996L17.307 16.5H19.92C22.173 16.4955 23.9985 14.667 23.9985 12.411C23.9985 10.4865 22.6695 8.874 20.8815 8.439H20.883ZM12 19.5L7.5 15H10.5V10.5H13.5V15H16.5L12 19.5Z" fill="black"/>
</g>
<defs>
<clipPath id="clip0_201_66464">
<rect width="24" height="24" fill="white"/>
</clipPath>
</defs>
</svg>
