<svg width="24" height="24" viewBox="0 0 24 24" fill="none" xmlns="http://www.w3.org/2000/svg">
<g clip-path="url(#clip0_201_66466)">
<path d="M20.913 9.0585C20.97 8.7975 21 8.5275 21 8.25C21 6.1785 19.3215 4.5 17.25 4.5C16.917 4.5 16.593 4.5435 16.2855 4.626C15.705 2.8125 14.0055 1.5 12 1.5C9.9525 1.5 8.226 2.8665 7.68 4.7385C7.1475 4.584 6.5835 4.5 6 4.5C2.6865 4.5 0 7.1865 0 10.5C0 13.8135 2.6865 16.5 6 16.5H9V21H15V16.5H20.25C22.3215 16.5 24 14.8215 24 12.75C24 10.905 22.668 9.3705 20.913 9.0585ZM13.5 15V19.5H10.5V15H6.75L12 9.75L17.25 15H13.5Z" fill="black"/>
</g>
<defs>
<clipPath id="clip0_201_66466">
<rect width="24" height="24" fill="white"/>
</clipPath>
</defs>
</svg>
