<svg width="24" height="24" viewBox="0 0 24 24" fill="none" xmlns="http://www.w3.org/2000/svg">
<g clip-path="url(#clip0_201_66468)">
<path d="M20.913 12.0585C20.97 11.7975 21 11.5275 21 11.25C21 9.1785 19.3215 7.5 17.25 7.5C16.917 7.5 16.593 7.5435 16.2855 7.626C15.705 5.8125 14.0055 4.5 12 4.5C9.9525 4.5 8.226 5.8665 7.68 7.7385C7.1475 7.584 6.5835 7.5 6 7.5C2.6865 7.5 0 10.1865 0 13.5C0 16.8135 2.6865 19.5 6 19.5H20.25C22.3215 19.5 24 17.8215 24 15.75C24 13.905 22.668 12.372 20.913 12.0585ZM9.75 18L6 14.25L7.5 12.75L9.75 15L15 9.75L16.5 11.25L9.75 18Z" fill="black"/>
</g>
<defs>
<clipPath id="clip0_201_66468">
<rect width="24" height="24" fill="white"/>
</clipPath>
</defs>
</svg>
