<svg width="24" height="24" viewBox="0 0 24 24" fill="none" xmlns="http://www.w3.org/2000/svg">
<path d="M11.25 1.5C5.037 1.5 0 6.537 0 12.75C0 18.963 5.037 24 11.25 24C17.463 24 22.5 18.963 22.5 12.75C22.5 6.537 17.463 1.5 11.25 1.5ZM17.616 16.5C17.817 15.552 17.9445 14.5455 17.985 13.5H20.9715C20.8935 14.5365 20.652 15.5415 20.253 16.5H17.616ZM4.884 9C4.683 9.948 4.5555 10.9545 4.515 12H1.5285C1.6065 10.9635 1.848 9.9585 2.247 9H4.884ZM16.0785 9C16.3035 9.96 16.44 10.965 16.4835 12H12V9H16.0785ZM12 7.5V3.1095C12.342 3.2085 12.681 3.3765 13.0125 3.6105C13.635 4.05 14.232 4.7265 14.736 5.5665C15.0855 6.1485 15.387 6.795 15.6375 7.5H11.9985H12ZM7.764 5.5665C8.268 4.725 8.865 4.0485 9.4875 3.6105C9.8205 3.3765 10.158 3.2085 10.5 3.1095V7.5H6.861C7.113 6.795 7.4145 6.1485 7.7625 5.5665H7.764ZM10.5 9V12H6.0165C6.06 10.965 6.1965 9.96 6.4215 9H10.5ZM2.247 16.5C1.848 15.5415 1.6065 14.5365 1.5285 13.5H4.515C4.557 14.5455 4.683 15.552 4.884 16.5H2.247ZM6.0165 13.5H10.5V16.5H6.4215C6.1965 15.54 6.06 14.535 6.0165 13.5ZM10.5 18V22.3905C10.158 22.2915 9.819 22.1235 9.4875 21.8895C8.865 21.45 8.268 20.7735 7.764 19.9335C7.4145 19.3515 7.113 18.705 6.861 18H10.5ZM14.7375 19.9335C14.2335 20.775 13.6365 21.4515 13.014 21.8895C12.681 22.1235 12.3435 22.2915 12.0015 22.3905V18H15.6405C15.3885 18.705 15.087 19.3515 14.7375 19.9335ZM12 16.5V13.5H16.4835C16.44 14.535 16.3035 15.54 16.0785 16.5H12ZM17.985 12C17.943 10.9545 17.817 9.948 17.616 9H20.253C20.6535 9.9585 20.8935 10.9635 20.9715 12H17.985ZM19.4685 7.5H17.2215C16.785 6.123 16.182 4.9155 15.456 3.951C16.4535 4.428 17.3565 5.067 18.144 5.856C18.648 6.36 19.0905 6.909 19.4685 7.5ZM4.356 5.856C5.145 5.067 6.048 4.428 7.044 3.951C6.3195 4.9155 5.715 6.123 5.2785 7.5H3.0315C3.4095 6.909 3.852 6.3585 4.356 5.856ZM3.0315 18H5.2785C5.715 19.377 6.318 20.5845 7.044 21.549C6.0465 21.072 5.1435 20.433 4.356 19.644C3.852 19.14 3.4095 18.591 3.0315 18ZM18.144 19.644C17.355 20.433 16.452 21.072 15.456 21.549C16.1805 20.5845 16.785 19.377 17.2215 18H19.4685C19.0905 18.591 18.648 19.1415 18.144 19.644Z" fill="black"/>
</svg>
