<svg width="24" height="24" viewBox="0 0 24 24" fill="none" xmlns="http://www.w3.org/2000/svg">
<g clip-path="url(#clip0_201_66482)">
<path d="M10.3185 14.901C10.0065 14.901 9.69449 14.7825 9.45599 14.544C7.22699 12.315 7.22699 8.68649 9.45599 6.45599L13.956 1.95599C15.036 0.875987 16.473 0.280487 18 0.280487C19.527 0.280487 20.964 0.875987 22.044 1.95599C24.273 4.18649 24.273 7.81349 22.044 10.044L19.9875 12.1005C19.512 12.576 18.7395 12.576 18.264 12.1005C17.7885 11.625 17.7885 10.8525 18.264 10.377L20.3205 8.32049C21.6 7.04099 21.6 4.95899 20.3205 3.67949C19.701 3.05999 18.876 2.71799 18 2.71799C17.124 2.71799 16.299 3.05999 15.6795 3.67949L11.1795 8.17949C9.89999 9.45899 9.89999 11.541 11.1795 12.8205C11.655 13.296 11.655 14.0685 11.1795 14.544C10.941 14.7825 10.629 14.901 10.317 14.901H10.3185Z" fill="black"/>
<path d="M5.99999 23.7195C4.47299 23.7195 3.03599 23.124 1.95599 22.044C-0.273009 19.815 -0.273009 16.1865 1.95599 13.956L4.01249 11.8995C4.48799 11.424 5.26049 11.424 5.73599 11.8995C6.21149 12.375 6.21149 13.1475 5.73599 13.623L3.67949 15.6795C2.39999 16.959 2.39999 19.041 3.67949 20.3205C4.29899 20.94 5.12249 21.282 5.99999 21.282C6.87749 21.282 7.70099 20.94 8.32049 20.3205L12.8205 15.8205C14.1 14.541 14.1 12.459 12.8205 11.1795C12.345 10.704 12.345 9.93149 12.8205 9.45599C13.296 8.98049 14.0685 8.98049 14.544 9.45599C16.773 11.685 16.773 15.3135 14.544 17.544L10.044 22.044C8.96399 23.124 7.52699 23.7195 5.99999 23.7195Z" fill="black"/>
</g>
<defs>
<clipPath id="clip0_201_66482">
<rect width="24" height="24" fill="white"/>
</clipPath>
</defs>
</svg>
