<svg width="24" height="24" viewBox="0 0 24 24" fill="none" xmlns="http://www.w3.org/2000/svg">
<g clip-path="url(#clip0_201_66485)">
<path d="M0 0H3V24H0V0Z" fill="black"/>
<path d="M19.5 15.0705C21.4365 15.0705 23.1225 14.6025 24 13.911V1.911C23.1225 2.6025 21.4365 3.0705 19.5 3.0705C17.5635 3.0705 15.8775 2.6025 15 1.911V13.911C15.8775 14.6025 17.5635 15.0705 19.5 15.0705Z" fill="black"/>
<path d="M14.25 0.762C13.1505 0.294 11.5425 0 9.75 0C7.491 0 5.523 0.468 4.5 1.1595V13.1595C5.523 12.468 7.491 12 9.75 12C11.5425 12 13.1505 12.2955 14.25 12.762V0.762Z" fill="black"/>
</g>
<defs>
<clipPath id="clip0_201_66485">
<rect width="24" height="24" fill="white"/>
</clipPath>
</defs>
</svg>
