<svg width="24" height="24" viewBox="0 0 24 24" fill="none" xmlns="http://www.w3.org/2000/svg">
<g clip-path="url(#clip0_201_66489)">
<path d="M15.606 7.665L14.0835 6.144L6.47101 13.755C5.20951 15.0165 5.20951 17.061 6.47101 18.321C7.73251 19.581 9.77701 19.5825 11.0385 18.321L20.1735 9.1875C22.2765 7.086 22.2765 3.678 20.1735 1.5765C18.0705 -0.524996 14.6625 -0.526495 12.561 1.5765L2.97001 11.166C2.96251 11.1735 2.95501 11.1795 2.94901 11.1855C0.0165088 14.118 0.0165088 18.87 2.94901 21.801C5.88151 24.732 10.6335 24.732 13.566 21.801C13.572 21.795 13.578 21.7875 13.5855 21.78L13.587 21.7815L20.1345 15.2355L18.612 13.7145L12.0645 20.259C12.057 20.265 12.051 20.2725 12.045 20.2785C9.95701 22.3665 6.56101 22.3665 4.47301 20.2785C2.38501 18.1905 2.38501 14.796 4.47301 12.708C4.48051 12.7005 4.48651 12.6945 4.49401 12.6885L4.49251 12.687L14.085 3.0975C15.3435 1.8375 17.3925 1.8375 18.6525 3.0975C19.9125 4.3575 19.911 6.405 18.6525 7.6635L9.51751 16.797C9.09751 17.217 8.41501 17.217 7.99501 16.797C7.57501 16.377 7.57501 15.6945 7.99501 15.276L15.6075 7.6635L15.606 7.665Z" fill="black"/>
</g>
<defs>
<clipPath id="clip0_201_66489">
<rect width="24" height="24" fill="white"/>
</clipPath>
</defs>
</svg>
