<svg width="24" height="24" viewBox="0 0 24 24" fill="none" xmlns="http://www.w3.org/2000/svg">
<path d="M24 3H21V0H18V3H15V6H18V9H21V6H24V3Z" fill="black"/>
<path d="M20.247 10.4535C20.679 10.9335 21.072 11.451 21.42 12C20.523 13.419 19.3275 14.6235 17.9175 15.522C16.146 16.6515 14.1 17.25 12.0015 17.25C9.903 17.25 7.857 16.653 6.084 15.522C4.674 14.622 3.48 13.4175 2.5815 12C3.4785 10.581 4.674 9.37651 6.084 8.47801C6.1755 8.41951 6.2685 8.36251 6.3615 8.30701C6.1275 8.94751 6 9.63901 6 10.3605C6 13.674 8.6865 16.3605 12 16.3605C15.3135 16.3605 18 13.674 18 10.3605C18 10.344 18 10.3275 18 10.3125C15.438 9.65251 13.5405 7.34401 13.5015 4.58701C13.008 4.53151 12.5085 4.50151 12 4.50151C6.7665 4.50151 2.229 7.54951 0 12.0015C2.229 16.4535 6.7665 19.5015 12 19.5015C17.2335 19.5015 21.771 16.4535 24 12.0015C23.586 11.1765 23.094 10.398 22.5315 9.67951C21.846 10.0815 21.072 10.353 20.247 10.455V10.4535ZM9.75 7.50001C10.992 7.50001 12 8.50801 12 9.75001C12 10.992 10.992 12 9.75 12C8.508 12 7.5 10.992 7.5 9.75001C7.5 8.50801 8.508 7.50001 9.75 7.50001Z" fill="black"/>
</svg>
