<svg width="24" height="24" viewBox="0 0 24 24" fill="none" xmlns="http://www.w3.org/2000/svg">
<path d="M15 3H24V6H15V3Z" fill="black"/>
<path d="M20.3985 7.5H13.5V4.584C13.008 4.5285 12.507 4.5 12 4.5C6.7665 4.5 2.229 7.548 0 12C2.229 16.452 6.7665 19.5 12 19.5C17.2335 19.5 21.771 16.452 24 12C23.124 10.2495 21.8895 8.7165 20.3985 7.5ZM9.75 7.5C10.992 7.5 12 8.508 12 9.75C12 10.992 10.992 12 9.75 12C8.508 12 7.5 10.992 7.5 9.75C7.5 8.508 8.508 7.5 9.75 7.5ZM17.916 15.522C16.1445 16.6515 14.0985 17.25 12 17.25C9.9015 17.25 7.8555 16.653 6.0825 15.522C4.6725 14.622 3.4785 13.4175 2.58 12C3.477 10.581 4.6725 9.3765 6.0825 8.478C6.174 8.4195 6.267 8.3625 6.36 8.307C6.126 8.9475 5.9985 9.639 5.9985 10.3605C5.9985 13.674 8.685 16.3605 11.9985 16.3605C15.312 16.3605 17.9985 13.674 17.9985 10.3605C17.9985 9.639 17.871 8.9475 17.637 8.307C17.73 8.3625 17.823 8.4195 17.9145 8.478C19.3245 9.378 20.52 10.5825 21.417 12C20.52 13.419 19.3245 14.6235 17.9145 15.522H17.916Z" fill="black"/>
</svg>
