<svg width="24" height="24" viewBox="0 0 24 24" fill="none" xmlns="http://www.w3.org/2000/svg">
<path d="M13.5 2.25C13.5 3.492 12.492 4.5 11.25 4.5C10.008 4.5 9 3.492 9 2.25C9 1.008 10.008 0 11.25 0C12.492 0 13.5 1.008 13.5 2.25Z" fill="black"/>
<path d="M16.851 12L18 11.1675L14.8755 6.33599C14.7375 6.12599 14.502 5.99849 14.25 5.99849H8.25C7.998 5.99849 7.7625 6.12449 7.6245 6.33599L4.5 11.1675L5.649 12L8.2425 8.63399L9.144 10.737L6.0015 16.4985H8.877L9.3765 23.9985H10.8765V16.4985H11.6265V23.9985H13.1265L13.626 16.4985H16.5015L13.359 10.7355L14.2605 8.63249L16.854 11.9985L16.851 12Z" fill="black"/>
</svg>
