<svg width="24" height="24" viewBox="0 0 24 24" fill="none" xmlns="http://www.w3.org/2000/svg">
<g clip-path="url(#clip0_201_66535)">
<path d="M12 24C18.627 24 24 18.627 24 12C24 5.373 18.627 0 12 0C5.373 0 0 5.373 0 12C0 18.627 5.373 24 12 24ZM12 2.25C17.385 2.25 21.75 6.615 21.75 12C21.75 17.385 17.385 21.75 12 21.75C6.615 21.75 2.25 17.385 2.25 12C2.25 6.615 6.615 2.25 12 2.25ZM12 14.034C14.718 14.034 17.3025 13.3125 19.5 12.0435C19.158 16.2255 15.9105 19.5 12 19.5C8.0895 19.5 4.842 16.221 4.5 12.0405C6.6975 13.308 9.282 14.034 12 14.034ZM6 8.25C6 7.008 6.672 6 7.5 6C8.328 6 9 7.008 9 8.25C9 9.492 8.328 10.5 7.5 10.5C6.672 10.5 6 9.492 6 8.25ZM15 8.25C15 7.008 15.672 6 16.5 6C17.328 6 18 7.008 18 8.25C18 9.492 17.328 10.5 16.5 10.5C15.672 10.5 15 9.492 15 8.25Z" fill="black"/>
</g>
<defs>
<clipPath id="clip0_201_66535">
<rect width="24" height="24" fill="white"/>
</clipPath>
</defs>
</svg>
