<svg width="24" height="24" viewBox="0 0 24 24" fill="none" xmlns="http://www.w3.org/2000/svg">
<g clip-path="url(#clip0_201_66537)">
<path d="M12 0C5.373 0 0 5.373 0 12C0 18.627 5.373 24 12 24C18.627 24 24 18.627 24 12C24 5.373 18.627 0 12 0ZM16.5 6C17.328 6 18 7.008 18 8.25C18 9.492 17.328 10.5 16.5 10.5C15.672 10.5 15 9.492 15 8.25C15 7.008 15.672 6 16.5 6ZM7.5 6C8.328 6 9 7.008 9 8.25C9 9.492 8.328 10.5 7.5 10.5C6.672 10.5 6 9.492 6 8.25C6 7.008 6.672 6 7.5 6ZM12 21C8.0895 21 4.842 17.721 4.5 13.5405C6.6975 14.8095 9.282 15.534 12 15.534C14.718 15.534 17.3025 14.8125 19.5 13.5435C19.158 17.7255 15.9105 21 12 21Z" fill="black"/>
</g>
<defs>
<clipPath id="clip0_201_66537">
<rect width="24" height="24" fill="white"/>
</clipPath>
</defs>
</svg>
