<svg width="24" height="24" viewBox="0 0 24 24" fill="none" xmlns="http://www.w3.org/2000/svg">
<g clip-path="url(#clip0_201_66541)">
<path d="M12 0C5.373 0 0 5.373 0 12C0 18.627 5.373 24 12 24C18.627 24 24 18.627 24 12C24 5.373 18.627 0 12 0ZM16.5 6C17.328 6 18 6.672 18 7.5C18 8.328 17.328 9 16.5 9C15.672 9 15 8.328 15 7.5C15 6.672 15.672 6 16.5 6ZM7.5 6C8.328 6 9 6.672 9 7.5C9 8.328 8.328 9 7.5 9C6.672 9 6 8.328 6 7.5C6 6.672 6.672 6 7.5 6ZM12 19.5C9.27 19.5 6.8805 18.0405 5.568 15.8595L7.497 14.7015C8.415 16.2285 10.0875 17.25 12 17.25C13.9125 17.25 15.5835 16.2285 16.503 14.7015L18.432 15.8595C17.121 18.0405 14.7315 19.5 12 19.5Z" fill="black"/>
</g>
<defs>
<clipPath id="clip0_201_66541">
<rect width="24" height="24" fill="white"/>
</clipPath>
</defs>
</svg>
