<svg width="24" height="24" viewBox="0 0 24 24" fill="none" xmlns="http://www.w3.org/2000/svg">
<g clip-path="url(#clip0_201_66551)">
<path d="M12 24C18.627 24 24 18.627 24 12C24 5.373 18.627 0 12 0C5.373 0 0 5.373 0 12C0 18.627 5.373 24 12 24ZM12 2.25C17.385 2.25 21.75 6.615 21.75 12C21.75 17.385 17.385 21.75 12 21.75C6.615 21.75 2.25 17.385 2.25 12C2.25 6.615 6.615 2.25 12 2.25ZM12.72 16.665C16.0065 16.0155 18.558 14.52 19.4805 12.5265C18.9735 16.4625 15.6945 19.5 11.7255 19.5C8.931 19.5 6.4785 17.994 5.0955 15.7275C6.7455 17.0175 9.6555 17.2695 12.72 16.665ZM15 8.25C15 7.008 15.672 6 16.5 6C17.328 6 18 7.008 18 8.25C18 9.492 17.328 10.5 16.5 10.5C15.672 10.5 15 9.492 15 8.25ZM8.25 8.7075C7.2705 8.7075 6.438 9.075 6.129 9.5865C6.0465 9.4485 6 8.832 6 8.679C6 7.9515 7.008 7.3605 8.25 7.3605C9.492 7.3605 10.5 7.9515 10.5 8.679C10.5 8.8335 10.455 9.45 10.371 9.5865C10.062 9.075 9.2295 8.7075 8.25 8.7075Z" fill="black"/>
</g>
<defs>
<clipPath id="clip0_201_66551">
<rect width="24" height="24" fill="white"/>
</clipPath>
</defs>
</svg>
