<svg width="24" height="24" viewBox="0 0 24 24" fill="none" xmlns="http://www.w3.org/2000/svg">
<g clip-path="url(#clip0_201_66553)">
<path d="M12 0C5.373 0 0 5.373 0 12C0 18.627 5.373 24 12 24C18.627 24 24 18.627 24 12C24 5.373 18.627 0 12 0ZM16.5 6C17.328 6 18 7.008 18 8.25C18 9.492 17.328 10.5 16.5 10.5C15.672 10.5 15 9.492 15 8.25C15 7.008 15.672 6 16.5 6ZM8.25 7.314C9.648 7.314 10.641 7.8375 10.641 8.6565C10.641 8.8305 10.731 9.6645 10.6365 9.819C10.2885 9.243 9.3525 8.8305 8.25 8.8305C7.1475 8.8305 6.2115 9.243 5.8635 9.819C5.7705 9.6645 5.859 8.8305 5.859 8.6565C5.859 7.8375 6.852 7.314 8.25 7.314ZM11.727 19.5C8.9325 19.5 6.48 17.994 5.097 15.7275C6.747 17.0175 9.657 17.2695 12.7215 16.665C16.008 16.0155 18.5595 14.52 19.482 12.5265C18.975 16.4625 15.696 19.5 11.727 19.5Z" fill="black"/>
</g>
<defs>
<clipPath id="clip0_201_66553">
<rect width="24" height="24" fill="white"/>
</clipPath>
</defs>
</svg>
