<svg width="24" height="24" viewBox="0 0 24 24" fill="none" xmlns="http://www.w3.org/2000/svg">
<g clip-path="url(#clip0_201_66559)">
<path d="M12 24C18.627 24 24 18.627 24 12C24 5.373 18.627 0 12 0C5.373 0 0 5.373 0 12C0 18.627 5.373 24 12 24ZM12 2.25C17.385 2.25 21.75 6.615 21.75 12C21.75 17.385 17.385 21.75 12 21.75C6.615 21.75 2.25 17.385 2.25 12C2.25 6.615 6.615 2.25 12 2.25ZM18.75 6C19.1625 6 19.5 6.3375 19.5 6.75V9C19.5 9.825 18.825 10.5 18 10.5H15C14.175 10.5 13.5 9.825 13.5 9H10.5C10.5 9.825 9.825 10.5 9 10.5H6C5.175 10.5 4.5 9.825 4.5 9V6.75C4.5 6.3375 4.8375 6 5.25 6H9.75C10.1625 6 10.5 6.3375 10.5 6.75V7.5H13.5V6.75C13.5 6.3375 13.8375 6 14.25 6H18.75ZM12 18C14.184 18 16.0965 16.833 17.145 15.087L18.4305 15.8595C17.1195 18.0405 14.73 19.5 11.9985 19.5C10.863 19.5 9.786 19.2465 8.8215 18.795L9.5985 17.499C10.3335 17.82 11.145 18 11.9985 18H12Z" fill="black"/>
</g>
<defs>
<clipPath id="clip0_201_66559">
<rect width="24" height="24" fill="white"/>
</clipPath>
</defs>
</svg>
