<svg width="24" height="24" viewBox="0 0 24 24" fill="none" xmlns="http://www.w3.org/2000/svg">
<g clip-path="url(#clip0_201_66561)">
<path d="M12 0C5.373 0 0 5.373 0 12C0 18.627 5.373 24 12 24C18.627 24 24 18.627 24 12C24 5.373 18.627 0 12 0ZM12 19.5C10.8645 19.5 9.7875 19.2465 8.823 18.795L9.6 17.499C10.335 17.82 11.1465 18 12 18C14.184 18 16.0965 16.833 17.145 15.087L18.432 15.8595C17.121 18.0405 14.7315 19.5 12 19.5ZM19.5 9C19.5 9.825 18.825 10.5 18 10.5H15C14.175 10.5 13.5 9.825 13.5 9H10.5C10.5 9.825 9.825 10.5 9 10.5H6C5.175 10.5 4.5 9.825 4.5 9V6.75C4.5 6.3375 4.8375 6 5.25 6H9.75C10.1625 6 10.5 6.3375 10.5 6.75V7.5H13.5V6.75C13.5 6.3375 13.8375 6 14.25 6H18.75C19.1625 6 19.5 6.3375 19.5 6.75V9Z" fill="black"/>
</g>
<defs>
<clipPath id="clip0_201_66561">
<rect width="24" height="24" fill="white"/>
</clipPath>
</defs>
</svg>
