<svg width="24" height="24" viewBox="0 0 24 24" fill="none" xmlns="http://www.w3.org/2000/svg">
<g clip-path="url(#clip0_201_66563)">
<path d="M12 24C18.627 24 24 18.627 24 12C24 5.373 18.627 0 12 0C5.373 0 0 5.373 0 12C0 18.627 5.373 24 12 24ZM12 2.25C17.385 2.25 21.75 6.615 21.75 12C21.75 17.385 17.385 21.75 12 21.75C6.615 21.75 2.25 17.385 2.25 12C2.25 6.615 6.615 2.25 12 2.25ZM16.503 18.2985C15.585 16.7715 13.9125 15.75 12 15.75C10.0875 15.75 8.4165 16.7715 7.497 18.2985L5.568 17.1405C6.879 14.9595 9.2685 13.5 12 13.5C14.7315 13.5 17.121 14.9595 18.432 17.1405L16.503 18.2985ZM17.9775 6.5685C18.078 6.9705 17.8335 7.377 17.4315 7.4775C17.019 7.5825 16.5285 7.761 16.0965 7.9785C16.3455 8.247 16.4985 8.6055 16.4985 9C16.4985 9.828 15.8265 10.5 14.9985 10.5C14.1705 10.5 13.4985 9.828 13.4985 9C13.4985 8.973 13.5 8.946 13.5015 8.919C13.5495 7.8075 14.5605 7.068 15.414 6.642C16.2285 6.2355 17.034 6.0315 17.067 6.0225C17.469 5.922 17.8755 6.1665 17.976 6.5685H17.9775ZM6.0225 6.5685C6.123 6.1665 6.5295 5.922 6.9315 6.0225C6.966 6.0315 7.77 6.234 8.5845 6.642C9.4365 7.068 10.449 7.806 10.497 8.919C10.4985 8.946 10.5 8.973 10.5 9C10.5 9.828 9.828 10.5 9 10.5C8.172 10.5 7.5 9.828 7.5 9C7.5 8.6055 7.653 8.2455 7.902 7.9785C7.47 7.7625 6.981 7.5825 6.567 7.4775C6.165 7.377 5.9205 6.9705 6.021 6.5685H6.0225Z" fill="black"/>
</g>
<defs>
<clipPath id="clip0_201_66563">
<rect width="24" height="24" fill="white"/>
</clipPath>
</defs>
</svg>
