<svg width="24" height="24" viewBox="0 0 24 24" fill="none" xmlns="http://www.w3.org/2000/svg">
<g clip-path="url(#clip0_201_66565)">
<path d="M12 0C5.373 0 0 5.373 0 12C0 18.627 5.373 24 12 24C18.627 24 24 18.627 24 12C24 5.373 18.627 0 12 0ZM13.5015 8.919C13.5495 7.8075 14.5605 7.068 15.414 6.642C16.2285 6.2355 17.034 6.0315 17.067 6.0225C17.469 5.922 17.8755 6.1665 17.976 6.5685C18.0765 6.9705 17.832 7.377 17.43 7.4775C17.0175 7.5825 16.527 7.761 16.095 7.9785C16.344 8.247 16.497 8.6055 16.497 9C16.497 9.828 15.825 10.5 14.997 10.5C14.169 10.5 13.497 9.828 13.497 9C13.497 8.973 13.4985 8.946 13.5 8.919H13.5015ZM6.0225 6.5685C6.123 6.1665 6.5295 5.922 6.9315 6.0225C6.966 6.0315 7.77 6.234 8.5845 6.642C9.4365 7.068 10.449 7.806 10.497 8.919C10.4985 8.946 10.5 8.973 10.5 9C10.5 9.828 9.828 10.5 9 10.5C8.172 10.5 7.5 9.828 7.5 9C7.5 8.6055 7.653 8.2455 7.902 7.9785C7.47 7.7625 6.981 7.5825 6.567 7.4775C6.165 7.377 5.9205 6.9705 6.021 6.5685H6.0225ZM16.503 18.2985C15.585 16.7715 13.9125 15.75 12 15.75C10.0875 15.75 8.4165 16.7715 7.497 18.2985L5.568 17.1405C6.879 14.9595 9.2685 13.5 12 13.5C14.7315 13.5 17.121 14.9595 18.432 17.1405L16.503 18.2985Z" fill="black"/>
</g>
<defs>
<clipPath id="clip0_201_66565">
<rect width="24" height="24" fill="white"/>
</clipPath>
</defs>
</svg>
