<svg width="24" height="24" viewBox="0 0 24 24" fill="none" xmlns="http://www.w3.org/2000/svg">
<g clip-path="url(#clip0_201_66569)">
<path d="M24 1.5C24 0.4335 23.7765 -0.5805 23.376 -1.5C22.5885 0.3015 21.1155 1.7325 19.287 2.4645C17.2665 0.918 14.742 0 12.0015 0C9.26099 0 6.73649 0.9195 4.71599 2.4645C2.88599 1.7325 1.41299 0.3 0.626991 -1.5C0.224991 -0.5805 0.00299072 0.4335 0.00299072 1.5C0.00299072 3.225 0.584991 4.812 1.56299 6.0795C0.569991 7.827 0.00299072 9.8475 0.00299072 12C0.00299072 18.627 5.37599 24 12.003 24C18.63 24 24.003 18.627 24.003 12C24.003 9.846 23.436 7.8255 22.443 6.0795C23.421 4.812 24.003 3.225 24.003 1.5H24ZM13.5015 8.919C13.5495 7.8075 14.5605 7.068 15.414 6.642C16.2285 6.2355 17.034 6.0315 17.067 6.0225C17.469 5.922 17.8755 6.1665 17.976 6.5685C18.0765 6.9705 17.832 7.377 17.43 7.4775C17.0175 7.5825 16.527 7.761 16.095 7.9785C16.344 8.247 16.497 8.6055 16.497 9C16.497 9.828 15.825 10.5 14.997 10.5C14.169 10.5 13.497 9.828 13.497 9C13.497 8.973 13.4985 8.946 13.5 8.919H13.5015ZM6.02249 6.5685C6.12299 6.1665 6.52949 5.922 6.93149 6.0225C6.96599 6.0315 7.76999 6.234 8.58449 6.642C9.43649 7.068 10.449 7.806 10.497 8.919C10.4985 8.946 10.5 8.973 10.5 9C10.5 9.828 9.82799 10.5 8.99999 10.5C8.17199 10.5 7.49999 9.828 7.49999 9C7.49999 8.6055 7.65299 8.2455 7.90199 7.9785C7.46999 7.7625 6.98099 7.5825 6.56699 7.4775C6.16499 7.377 5.92049 6.9705 6.02099 6.5685H6.02249ZM12 19.5C9.26999 19.5 6.88049 18.0405 5.56799 15.8595L7.49699 14.7015C8.41499 16.2285 10.0875 17.25 12 17.25C13.9125 17.25 15.5835 16.2285 16.503 14.7015L18.432 15.8595C17.121 18.0405 14.7315 19.5 12 19.5Z" fill="black"/>
</g>
<defs>
<clipPath id="clip0_201_66569">
<rect width="24" height="24" fill="white"/>
</clipPath>
</defs>
</svg>
