<svg width="24" height="24" viewBox="0 0 24 24" fill="none" xmlns="http://www.w3.org/2000/svg">
<g clip-path="url(#clip0_201_66582)">
<path d="M9 9.75C9 10.164 8.664 10.5 8.25 10.5C7.836 10.5 7.5 10.164 7.5 9.75C7.5 9.336 7.836 9 8.25 9C8.664 9 9 9.336 9 9.75Z" fill="black"/>
<path d="M16.5 9.75C16.5 10.164 16.164 10.5 15.75 10.5C15.336 10.5 15 10.164 15 9.75C15 9.336 15.336 9 15.75 9C16.164 9 16.5 9.336 16.5 9.75Z" fill="black"/>
<path d="M12 0C5.373 0 0 5.373 0 12C0 18.627 5.373 24 12 24C18.627 24 24 18.627 24 12C24 5.373 18.627 0 12 0ZM6 9.75C6 8.508 7.008 7.5 8.25 7.5C9.492 7.5 10.5 8.508 10.5 9.75C10.5 10.992 9.492 12 8.25 12C7.008 12 6 10.992 6 9.75ZM15 18H9V16.5H15V18ZM15.75 12C14.508 12 13.5 10.992 13.5 9.75C13.5 8.508 14.508 7.5 15.75 7.5C16.992 7.5 18 8.508 18 9.75C18 10.992 16.992 12 15.75 12Z" fill="black"/>
</g>
<defs>
<clipPath id="clip0_201_66582">
<rect width="24" height="24" fill="white"/>
</clipPath>
</defs>
</svg>
