<svg width="24" height="24" viewBox="0 0 24 24" fill="none" xmlns="http://www.w3.org/2000/svg">
<g clip-path="url(#clip0_201_66594)">
<path d="M12 24C18.627 24 24 18.627 24 12C24 5.373 18.627 0 12 0C5.373 0 0 5.373 0 12C0 18.627 5.373 24 12 24ZM12 2.25C17.385 2.25 21.75 6.615 21.75 12C21.75 17.385 17.385 21.75 12 21.75C6.615 21.75 2.25 17.385 2.25 12C2.25 6.615 6.615 2.25 12 2.25ZM6 7.5C6 6.672 6.672 6 7.5 6C8.328 6 9 6.672 9 7.5C9 8.328 8.328 9 7.5 9C6.672 9 6 8.328 6 7.5ZM15 7.5C15 6.672 15.672 6 16.5 6C17.328 6 18 6.672 18 7.5C18 8.328 17.328 9 16.5 9C15.672 9 15 8.328 15 7.5Z" fill="black"/>
<path d="M15.8415 12.6585C14.9625 11.7795 13.5375 11.7795 12.66 12.6585C11.7825 13.5375 11.781 14.9625 12.66 15.84C12.6885 15.8685 12.717 15.8955 12.747 15.9225C14.775 17.763 19.5015 15.879 19.5015 13.5C18.048 14.4375 16.9125 13.7295 15.843 12.6585H15.8415Z" fill="black"/>
<path d="M8.1585 12.6585C9.0375 11.7795 10.4625 11.7795 11.34 12.6585C12.2175 13.5375 12.219 14.9625 11.34 15.84C11.3115 15.8685 11.283 15.8955 11.253 15.9225C9.225 17.763 4.4985 15.879 4.4985 13.5C5.952 14.4375 7.0875 13.7295 8.157 12.6585H8.1585Z" fill="black"/>
</g>
<defs>
<clipPath id="clip0_201_66594">
<rect width="24" height="24" fill="white"/>
</clipPath>
</defs>
</svg>
