<svg width="24" height="24" viewBox="0 0 24 24" fill="none" xmlns="http://www.w3.org/2000/svg">
<g clip-path="url(#clip0_201_66598)">
<path d="M12 0C5.373 0 0 5.373 0 12C0 18.627 5.373 24 12 24C18.627 24 24 18.627 24 12C24 5.373 18.627 0 12 0ZM16.5 6C17.328 6 18 6.672 18 7.5C18 8.328 17.328 9 16.5 9C15.672 9 15 8.328 15 7.5C15 6.672 15.672 6 16.5 6ZM7.5 6C8.328 6 9 6.672 9 7.5C9 8.328 8.328 9 7.5 9C6.672 9 6 8.328 6 7.5C6 6.672 6.672 6 7.5 6ZM12.7455 15.9225C12.7155 15.8955 12.687 15.8685 12.6585 15.84C12.219 15.4005 12 14.8245 12 14.25C12 14.826 11.781 15.402 11.3415 15.84C11.313 15.8685 11.2845 15.8955 11.2545 15.9225C9.2265 17.763 4.5 15.879 4.5 13.5C5.9535 14.4375 7.089 13.7295 8.1585 12.6585C9.0375 11.7795 10.4625 11.7795 11.34 12.6585C11.7795 13.098 11.9985 13.674 11.9985 14.2485C11.9985 13.6725 12.2175 13.0965 12.657 12.6585C13.536 11.7795 14.961 11.7795 15.8385 12.6585C16.908 13.7295 18.045 14.4375 19.497 13.5C19.497 15.879 14.7705 17.763 12.7425 15.9225H12.7455Z" fill="black"/>
</g>
<defs>
<clipPath id="clip0_201_66598">
<rect width="24" height="24" fill="white"/>
</clipPath>
</defs>
</svg>
