<svg width="24" height="24" viewBox="0 0 24 24" fill="none" xmlns="http://www.w3.org/2000/svg">
<g clip-path="url(#clip0_201_66600)">
<path d="M12 24C18.627 24 24 18.627 24 12C24 5.373 18.627 0 12 0C5.373 0 0 5.373 0 12C0 18.627 5.373 24 12 24ZM12 2.25C17.385 2.25 21.75 6.615 21.75 12C21.75 17.385 17.385 21.75 12 21.75C6.615 21.75 2.25 17.385 2.25 12C2.25 6.615 6.615 2.25 12 2.25ZM17.478 14.1L18.0045 15.9L7.7625 18.9L7.236 17.1L17.478 14.1ZM6 7.5C6 6.672 6.672 6 7.5 6C8.328 6 9 6.672 9 7.5C9 8.328 8.328 9 7.5 9C6.672 9 6 8.328 6 7.5ZM15 7.5C15 6.672 15.672 6 16.5 6C17.328 6 18 6.672 18 7.5C18 8.328 17.328 9 16.5 9C15.672 9 15 8.328 15 7.5Z" fill="black"/>
</g>
<defs>
<clipPath id="clip0_201_66600">
<rect width="24" height="24" fill="white"/>
</clipPath>
</defs>
</svg>
