<svg width="24" height="24" viewBox="0 0 24 24" fill="none" xmlns="http://www.w3.org/2000/svg">
<g clip-path="url(#clip0_201_66604)">
<path d="M12 24C18.627 24 24 18.627 24 12C24 5.373 18.627 0 12 0C5.373 0 0 5.373 0 12C0 18.627 5.373 24 12 24ZM12 2.25C17.385 2.25 21.75 6.615 21.75 12C21.75 17.385 17.385 21.75 12 21.75C6.615 21.75 2.25 17.385 2.25 12C2.25 6.615 6.615 2.25 12 2.25Z" fill="black"/>
<path d="M15 15.75C15 17.8215 13.6575 19.5 12 19.5C10.3425 19.5 9 17.8215 9 15.75C9 13.6785 10.3425 12 12 12C13.6575 12 15 13.6785 15 15.75Z" fill="black"/>
<path d="M9.75001 7.9695C9.55801 7.9695 9.36601 7.896 9.21901 7.7505C8.76601 7.2975 7.73251 7.2975 7.27951 7.7505C6.98701 8.043 6.51151 8.043 6.21901 7.7505C5.92651 7.458 5.92651 6.9825 6.21901 6.69C7.26301 5.646 9.23551 5.646 10.2795 6.69C10.572 6.9825 10.572 7.458 10.2795 7.7505C10.1325 7.8975 9.94051 7.9695 9.74851 7.9695H9.75001Z" fill="black"/>
<path d="M17.25 7.9695C17.058 7.9695 16.866 7.896 16.719 7.7505C16.266 7.2975 15.2325 7.2975 14.7795 7.7505C14.487 8.043 14.0115 8.043 13.719 7.7505C13.4265 7.458 13.4265 6.9825 13.719 6.69C14.763 5.646 16.7355 5.646 17.7795 6.69C18.072 6.9825 18.072 7.458 17.7795 7.7505C17.6325 7.8975 17.4405 7.9695 17.2485 7.9695H17.25Z" fill="black"/>
</g>
<defs>
<clipPath id="clip0_201_66604">
<rect width="24" height="24" fill="white"/>
</clipPath>
</defs>
</svg>
