<svg width="24" height="24" viewBox="0 0 24 24" fill="none" xmlns="http://www.w3.org/2000/svg">
<g clip-path="url(#clip0_201_66609)">
<path d="M12 0C5.373 0 0 5.373 0 12C0 18.627 5.373 24 12 24C18.627 24 24 18.627 24 12C24 5.373 18.627 0 12 0ZM7.281 7.749C6.9885 8.0415 6.513 8.0415 6.2205 7.749C5.928 7.4565 5.928 6.981 6.2205 6.6885C7.2645 5.6445 9.237 5.6445 10.281 6.6885C10.5735 6.981 10.5735 7.4565 10.281 7.749C10.134 7.896 9.942 7.968 9.75 7.968C9.558 7.968 9.366 7.8945 9.219 7.749C8.766 7.296 7.7325 7.296 7.2795 7.749H7.281ZM12 19.5C10.3425 19.5 9 17.8215 9 15.75C9 13.6785 10.3425 12 12 12C13.6575 12 15 13.6785 15 15.75C15 17.8215 13.6575 19.5 12 19.5ZM17.781 7.749C17.634 7.896 17.442 7.968 17.25 7.968C17.058 7.968 16.866 7.8945 16.719 7.749C16.266 7.296 15.2325 7.296 14.7795 7.749C14.487 8.0415 14.0115 8.0415 13.719 7.749C13.4265 7.4565 13.4265 6.981 13.719 6.6885C14.763 5.6445 16.7355 5.6445 17.7795 6.6885C18.072 6.981 18.072 7.4565 17.7795 7.749H17.781Z" fill="black"/>
</g>
<defs>
<clipPath id="clip0_201_66609">
<rect width="24" height="24" fill="white"/>
</clipPath>
</defs>
</svg>
