<svg width="24" height="24" viewBox="0 0 24 24" fill="none" xmlns="http://www.w3.org/2000/svg">
<g clip-path="url(#clip0_201_66611)">
<path d="M8.58599 6.642C7.77149 6.2355 6.96599 6.0315 6.93299 6.0225C6.53099 5.922 6.12449 6.1665 6.02399 6.5685C5.92349 6.9705 6.16799 7.377 6.56999 7.4775C6.98249 7.5825 7.47299 7.761 7.90499 7.9785C7.65599 8.247 7.50299 8.6055 7.50299 9C7.50299 9.828 8.17499 10.5 9.00299 10.5C9.83099 10.5 10.503 9.828 10.503 9C10.503 8.973 10.5015 8.946 10.5 8.919C10.452 7.8075 9.44099 7.068 8.58749 6.642H8.58599Z" fill="black"/>
<path d="M12 0C5.373 0 0 5.373 0 12C0 18.627 5.373 24 12 24C18.627 24 24 18.627 24 12C24 5.373 18.627 0 12 0ZM5.5425 19.305C5.793 19.4295 6.0765 19.5 6.375 19.5H17.625C17.9235 19.5 18.2055 19.4295 18.4575 19.305C16.737 20.826 14.4765 21.75 12 21.75C9.5235 21.75 7.263 20.826 5.5425 19.305ZM6 17.625V15.375C6 15.171 6.171 15 6.375 15H9V18H6.375C6.171 18 6 17.829 6 17.625ZM10.5 18V15H13.5V18H10.5ZM15 18V15H17.625C17.829 15 18 15.171 18 15.375V17.625C18 17.829 17.829 18 17.625 18H15ZM19.305 18.4575C19.4295 18.207 19.5 17.9235 19.5 17.625V15.375C19.5 14.3415 18.6585 13.5 17.625 13.5H6.375C5.3415 13.5 4.5 14.3415 4.5 15.375V17.625C4.5 17.9235 4.5705 18.2055 4.695 18.4575C3.174 16.737 2.25 14.4765 2.25 12C2.25 6.615 6.615 2.25 12 2.25C17.385 2.25 21.75 6.615 21.75 12C21.75 14.4765 20.826 16.737 19.305 18.4575Z" fill="black"/>
<path d="M17.0685 6.0225C17.034 6.0315 16.23 6.234 15.4155 6.642C14.5635 7.068 13.551 7.806 13.503 8.919C13.5015 8.946 13.5 8.973 13.5 9C13.5 9.828 14.172 10.5 15 10.5C15.828 10.5 16.5 9.828 16.5 9C16.5 8.6055 16.347 8.2455 16.098 7.9785C16.53 7.7625 17.019 7.5825 17.433 7.4775C17.835 7.377 18.0795 6.9705 17.979 6.5685C17.8785 6.1665 17.472 5.922 17.07 6.0225H17.0685Z" fill="black"/>
</g>
<defs>
<clipPath id="clip0_201_66611">
<rect width="24" height="24" fill="white"/>
</clipPath>
</defs>
</svg>
