<svg width="24" height="24" viewBox="0 0 24 24" fill="none" xmlns="http://www.w3.org/2000/svg">
<g clip-path="url(#clip0_201_66629)">
<path d="M12 0C5.373 0 0 5.373 0 12C0 18.627 5.373 24 12 24C18.627 24 24 18.627 24 12C24 5.373 18.627 0 12 0ZM7.5 17.25C7.5 17.664 7.164 18 6.75 18C6.336 18 6 17.664 6 17.25V15.75C6 15.336 6.336 15 6.75 15C7.164 15 7.5 15.336 7.5 15.75V17.25ZM7.5 12.75C7.5 13.164 7.164 13.5 6.75 13.5C6.336 13.5 6 13.164 6 12.75V11.25C6 10.836 6.336 10.5 6.75 10.5C7.164 10.5 7.5 10.836 7.5 11.25V12.75ZM8.25 9H5.25C4.836 9 4.5 8.664 4.5 8.25C4.5 7.836 4.836 7.5 5.25 7.5H8.25C8.664 7.5 9 7.836 9 8.25C9 8.664 8.664 9 8.25 9ZM14.781 19.8435C14.634 19.9905 14.442 20.0625 14.25 20.0625C14.058 20.0625 13.866 19.989 13.719 19.8435C13.611 19.7355 13.029 19.5 12 19.5C10.971 19.5 10.3875 19.7355 10.281 19.8435C9.9885 20.136 9.513 20.136 9.2205 19.8435C8.928 19.551 8.928 19.0755 9.2205 18.783C9.927 18.0765 11.4 18.0015 12.0015 18.0015C12.603 18.0015 14.076 18.078 14.7825 18.783C15.075 19.0755 15.075 19.551 14.7825 19.8435H14.781ZM18 17.25C18 17.664 17.664 18 17.25 18C16.836 18 16.5 17.664 16.5 17.25V15.75C16.5 15.336 16.836 15 17.25 15C17.664 15 18 15.336 18 15.75V17.25ZM18 12.75C18 13.164 17.664 13.5 17.25 13.5C16.836 13.5 16.5 13.164 16.5 12.75V11.25C16.5 10.836 16.836 10.5 17.25 10.5C17.664 10.5 18 10.836 18 11.25V12.75ZM18.75 9H15.75C15.336 9 15 8.664 15 8.25C15 7.836 15.336 7.5 15.75 7.5H18.75C19.164 7.5 19.5 7.836 19.5 8.25C19.5 8.664 19.164 9 18.75 9Z" fill="black"/>
</g>
<defs>
<clipPath id="clip0_201_66629">
<rect width="24" height="24" fill="white"/>
</clipPath>
</defs>
</svg>
