<svg width="24" height="24" viewBox="0 0 24 24" fill="none" xmlns="http://www.w3.org/2000/svg">
<path d="M9.75 22.5H13.5C14.7405 22.5 15.75 21.4905 15.75 20.25C15.75 19.8495 15.645 19.473 15.4605 19.146C16.086 18.7455 16.5 18.045 16.5 17.25C16.5 16.674 16.2825 16.149 15.9255 15.75C16.2825 15.351 16.5 14.826 16.5 14.25C16.5 13.9875 16.455 13.734 16.371 13.5H21.75C22.9905 13.5 24 12.4905 24 11.25C24 10.0095 22.9905 9 21.75 9H12.4995L14.6985 4.875C14.895 4.5345 15 4.146 15 3.75C15 2.5095 13.9905 1.5 12.75 1.5C12.132 1.5 11.556 1.746 11.127 2.1915C11.121 2.1975 11.1165 2.2035 11.1105 2.2095L6 7.815V6.75C6 6.336 5.664 6 5.25 6H0.75C0.336 6 0 6.336 0 6.75V21.75C0 22.164 0.336 22.5 0.75 22.5H5.25C5.664 22.5 6 22.164 6 21.75V20.7135L9.414 22.4205C9.5175 22.473 9.633 22.5 9.75 22.5ZM3.75 21C3.336 21 3 20.664 3 20.25C3 19.836 3.336 19.5 3.75 19.5C4.164 19.5 4.5 19.836 4.5 20.25C4.5 20.664 4.164 21 3.75 21ZM9.927 21L6 19.0365V10.041L12.2145 3.225C12.357 3.0795 12.546 3 12.75 3C13.164 3 13.5 3.336 13.5 3.75C13.5 3.8775 13.47 3.999 13.4085 4.1085C13.401 4.1205 13.3935 4.134 13.3875 4.146L10.5885 9.396C10.464 9.6285 10.4715 9.909 10.608 10.134C10.7445 10.359 10.9875 10.4985 11.2515 10.4985H21.7515C22.1655 10.4985 22.5015 10.8345 22.5015 11.2485C22.5015 11.6625 22.1655 11.9985 21.7515 11.9985H14.2515C13.8375 11.9985 13.5015 12.3345 13.5015 12.7485C13.5015 13.1625 13.8375 13.4985 14.2515 13.4985C14.6655 13.4985 15.0015 13.8345 15.0015 14.2485C15.0015 14.6625 14.6655 14.9985 14.2515 14.9985C13.8375 14.9985 13.5015 15.3345 13.5015 15.7485C13.5015 16.1625 13.8375 16.4985 14.2515 16.4985C14.6655 16.4985 15.0015 16.8345 15.0015 17.2485C15.0015 17.6625 14.6655 17.9985 14.2515 17.9985H13.5015C13.0875 17.9985 12.7515 18.3345 12.7515 18.7485C12.7515 19.1625 13.0875 19.4985 13.5015 19.4985C13.9155 19.4985 14.2515 19.8345 14.2515 20.2485C14.2515 20.6625 13.9155 20.9985 13.5015 20.9985H9.9285L9.927 21Z" fill="black"/>
</svg>
