<svg width="24" height="24" viewBox="0 0 24 24" fill="none" xmlns="http://www.w3.org/2000/svg">
<path d="M22.5 9.75V13.5C22.5 14.7405 21.4905 15.75 20.25 15.75C19.8495 15.75 19.473 15.645 19.146 15.4605C18.7455 16.086 18.045 16.5 17.25 16.5C16.674 16.5 16.149 16.2825 15.75 15.9255C15.351 16.2825 14.826 16.5 14.25 16.5C13.9875 16.5 13.734 16.455 13.5 16.371V21.75C13.5 22.9905 12.4905 24 11.25 24C10.0095 24 9 22.9905 9 21.75V12.4995L4.875 14.6985C4.5345 14.895 4.146 15 3.75 15C2.5095 15 1.5 13.9905 1.5 12.75C1.5 12.132 1.746 11.556 2.1915 11.127C2.1975 11.121 2.2035 11.1165 2.2095 11.1105L7.815 6H6.75C6.336 6 6 5.664 6 5.25V0.75C6 0.336 6.336 0 6.75 0H21.75C22.164 0 22.5 0.336 22.5 0.75V5.25C22.5 5.664 22.164 6 21.75 6H20.7135L22.4205 9.414C22.473 9.5175 22.5 9.633 22.5 9.75ZM21 3.75C21 3.336 20.664 3 20.25 3C19.836 3 19.5 3.336 19.5 3.75C19.5 4.164 19.836 4.5 20.25 4.5C20.664 4.5 21 4.164 21 3.75ZM21 9.927L19.0365 6H10.041L3.225 12.2145C3.0795 12.357 3 12.546 3 12.75C3 13.164 3.336 13.5 3.75 13.5C3.8775 13.5 3.999 13.47 4.1085 13.4085C4.1205 13.401 4.134 13.3935 4.146 13.3875L9.396 10.5885C9.6285 10.464 9.909 10.4715 10.134 10.608C10.359 10.7445 10.4985 10.9875 10.4985 11.2515V21.7515C10.4985 22.1655 10.8345 22.5015 11.2485 22.5015C11.6625 22.5015 11.9985 22.1655 11.9985 21.7515V14.2515C11.9985 13.8375 12.3345 13.5015 12.7485 13.5015C13.1625 13.5015 13.4985 13.8375 13.4985 14.2515C13.4985 14.6655 13.8345 15.0015 14.2485 15.0015C14.6625 15.0015 14.9985 14.6655 14.9985 14.2515C14.9985 13.8375 15.3345 13.5015 15.7485 13.5015C16.1625 13.5015 16.4985 13.8375 16.4985 14.2515C16.4985 14.6655 16.8345 15.0015 17.2485 15.0015C17.6625 15.0015 17.9985 14.6655 17.9985 14.2515V13.5015C17.9985 13.0875 18.3345 12.7515 18.7485 12.7515C19.1625 12.7515 19.4985 13.0875 19.4985 13.5015C19.4985 13.9155 19.8345 14.2515 20.2485 14.2515C20.6625 14.2515 20.9985 13.9155 20.9985 13.5015V9.9285L21 9.927Z" fill="black"/>
</svg>
