<svg width="24" height="24" viewBox="0 0 24 24" fill="none" xmlns="http://www.w3.org/2000/svg">
<path d="M14.25 22.5H10.5C9.2595 22.5 8.25 21.4905 8.25 20.25C8.25 19.8495 8.355 19.473 8.5395 19.146C7.914 18.7455 7.5 18.045 7.5 17.25C7.5 16.674 7.7175 16.149 8.0745 15.75C7.7175 15.351 7.5 14.826 7.5 14.25C7.5 13.9875 7.545 13.734 7.629 13.5H2.25C1.0095 13.5 0 12.4905 0 11.25C0 10.0095 1.0095 9 2.25 9H11.5005L9.3015 4.875C9.105 4.5345 9 4.146 9 3.75C9 2.5095 10.0095 1.5 11.25 1.5C11.868 1.5 12.444 1.746 12.873 2.1915C12.879 2.1975 12.8835 2.2035 12.8895 2.2095L18 7.815V6.75C18 6.336 18.336 6 18.75 6H23.25C23.664 6 24 6.336 24 6.75V21.75C24 22.164 23.664 22.5 23.25 22.5H18.75C18.336 22.5 18 22.164 18 21.75V20.7135L14.586 22.4205C14.4825 22.473 14.367 22.5 14.25 22.5ZM20.25 21C20.664 21 21 20.664 21 20.25C21 19.836 20.664 19.5 20.25 19.5C19.836 19.5 19.5 19.836 19.5 20.25C19.5 20.664 19.836 21 20.25 21ZM14.073 21L18 19.0365V10.041L11.7855 3.225C11.643 3.0795 11.454 3 11.25 3C10.836 3 10.5 3.336 10.5 3.75C10.5 3.8775 10.53 3.999 10.5915 4.1085C10.599 4.1205 10.6065 4.134 10.6125 4.146L13.4115 9.396C13.536 9.6285 13.5285 9.909 13.3935 10.134C13.2585 10.359 13.014 10.4985 12.75 10.4985H2.25C1.836 10.4985 1.5 10.8345 1.5 11.2485C1.5 11.6625 1.836 11.9985 2.25 11.9985H9.75C10.164 11.9985 10.5 12.3345 10.5 12.7485C10.5 13.1625 10.164 13.4985 9.75 13.4985C9.336 13.4985 9 13.8345 9 14.2485C9 14.6625 9.336 14.9985 9.75 14.9985C10.164 14.9985 10.5 15.3345 10.5 15.7485C10.5 16.1625 10.164 16.4985 9.75 16.4985C9.336 16.4985 9 16.8345 9 17.2485C9 17.6625 9.336 17.9985 9.75 17.9985H10.5C10.914 17.9985 11.25 18.3345 11.25 18.7485C11.25 19.1625 10.914 19.4985 10.5 19.4985C10.086 19.4985 9.75 19.8345 9.75 20.2485C9.75 20.6625 10.086 20.9985 10.5 20.9985H14.073V21Z" fill="black"/>
</svg>
