<svg width="24" height="24" viewBox="0 0 24 24" fill="none" xmlns="http://www.w3.org/2000/svg">
<g clip-path="url(#clip0_201_66645)">
<path d="M10.5 16.5H13.5V19.5H10.5V16.5ZM16.5 6C17.328 6 18 6.672 18 7.5V12L13.5 15H10.5V13.5L15 10.5V9H7.5V6H16.5ZM12 2.25C9.396 2.25 6.9465 3.264 5.106 5.106C3.2655 6.948 2.25 9.396 2.25 12C2.25 14.604 3.264 17.0535 5.106 18.894C6.948 20.7345 9.396 21.75 12 21.75C14.604 21.75 17.0535 20.736 18.894 18.894C20.7345 17.052 21.75 14.604 21.75 12C21.75 9.396 20.736 6.9465 18.894 5.106C17.052 3.2655 14.604 2.25 12 2.25ZM12 0C18.627 0 24 5.373 24 12C24 18.627 18.627 24 12 24C5.373 24 0 18.627 0 12C0 5.373 5.373 0 12 0Z" fill="black"/>
</g>
<defs>
<clipPath id="clip0_201_66645">
<rect width="24" height="24" fill="white"/>
</clipPath>
</defs>
</svg>
