<svg width="24" height="24" viewBox="0 0 24 24" fill="none" xmlns="http://www.w3.org/2000/svg">
<g clip-path="url(#clip0_201_66651)">
<path d="M10.5 7.125C10.5 6.507 11.007 6 11.625 6H12.375C12.993 6 13.5 6.507 13.5 7.125V7.875C13.5 8.493 12.993 9 12.375 9H11.625C11.007 9 10.5 8.493 10.5 7.875V7.125Z" fill="black"/>
<path d="M15 18H9V16.5H10.5V12H9V10.5H13.5V16.5H15V18Z" fill="black"/>
<path d="M12 0C5.373 0 0 5.373 0 12C0 18.627 5.373 24 12 24C18.627 24 24 18.627 24 12C24 5.373 18.627 0 12 0ZM12 21.75C6.615 21.75 2.25 17.385 2.25 12C2.25 6.615 6.615 2.25 12 2.25C17.385 2.25 21.75 6.615 21.75 12C21.75 17.385 17.385 21.75 12 21.75Z" fill="black"/>
</g>
<defs>
<clipPath id="clip0_201_66651">
<rect width="24" height="24" fill="white"/>
</clipPath>
</defs>
</svg>
