<svg width="24" height="24" viewBox="0 0 24 24" fill="none" xmlns="http://www.w3.org/2000/svg">
<g clip-path="url(#clip0_201_66658)">
<path d="M20.4855 3.5145C18.219 1.248 15.2055 0 12 0C8.7945 0 5.781 1.248 3.5145 3.5145C1.248 5.781 0 8.7945 0 12C0 15.2055 1.248 18.219 3.5145 20.4855C5.781 22.752 8.7945 24 12 24C15.2055 24 18.219 22.752 20.4855 20.4855C22.752 18.219 24 15.2055 24 12C24 8.7945 22.752 5.781 20.4855 3.5145ZM21 12C21 13.941 20.382 15.741 19.3335 17.2125L6.7875 4.6665C8.259 3.618 10.059 3 12 3C16.962 3 21 7.038 21 12ZM3 12C3 10.059 3.618 8.259 4.6665 6.7875L17.2125 19.3335C15.741 20.382 13.941 21 12 21C7.038 21 3 16.962 3 12Z" fill="black"/>
</g>
<defs>
<clipPath id="clip0_201_66658">
<rect width="24" height="24" fill="white"/>
</clipPath>
</defs>
</svg>
