<svg width="24" height="24" viewBox="0 0 24 24" fill="none" xmlns="http://www.w3.org/2000/svg">
<g clip-path="url(#clip0_201_66660)">
<path d="M23.781 19.281L16.5 12L23.781 4.71903C23.859 4.64103 23.916 4.54953 23.952 4.45203C24.051 4.18503 23.994 3.87303 23.781 3.65853L20.3415 0.219032C20.127 0.00453156 19.815 -0.0524684 19.548 0.0480316C19.4505 0.0840316 19.359 0.141032 19.281 0.219032L12 7.50003L4.71904 0.219032C4.64104 0.141032 4.54954 0.0840316 4.45204 0.0480316C4.18504 -0.0509684 3.87304 0.00453156 3.65854 0.219032L0.219035 3.65853C0.00453538 3.87303 -0.0524646 4.18503 0.0480354 4.45203C0.0840354 4.54953 0.141035 4.64103 0.219035 4.71903L7.50004 12L0.219035 19.281C0.141035 19.359 0.0840354 19.4505 0.0480354 19.548C-0.0509646 19.815 0.00453538 20.127 0.219035 20.3415L3.65854 23.781C3.87304 23.9955 4.18504 24.0525 4.45204 23.952C4.54954 23.916 4.64104 23.859 4.71904 23.781L12 16.5L19.281 23.781C19.359 23.859 19.4505 23.916 19.548 23.952C19.815 24.051 20.127 23.9955 20.3415 23.781L23.781 20.3415C23.9955 20.127 24.0525 19.815 23.952 19.548C23.916 19.4505 23.859 19.359 23.781 19.281Z" fill="black"/>
</g>
<defs>
<clipPath id="clip0_201_66660">
<rect width="24" height="24" fill="white"/>
</clipPath>
</defs>
</svg>
