<svg width="24" height="24" viewBox="0 0 24 24" fill="none" xmlns="http://www.w3.org/2000/svg">
<path d="M3 6H6V10.5H7.5V1.5C7.5 0.675 6.825 0 6 0H3C2.175 0 1.5 0.675 1.5 1.5V10.5H3V6ZM3 1.5H6V4.5H3V1.5ZM22.5 1.5V0H18C17.175 0 16.5 0.675 16.5 1.5V9C16.5 9.825 17.175 10.5 18 10.5H22.5V9H18V1.5H22.5ZM15 3.75V1.5C15 0.675 14.325 0 13.5 0H9V10.5H13.5C14.325 10.5 15 9.825 15 9V6.75C15 5.925 14.7945 5.25 13.968 5.25C14.793 5.25 15 4.575 15 3.75ZM13.5 9H10.5V6H13.5V9ZM13.5 4.5H10.5V1.5H13.5V4.5ZM19.5 13.5L9.75 24L4.5 17.25L6.4215 15.609L9.75 19.0785L18 12L19.5 13.5Z" fill="black"/>
</svg>
