<svg width="24" height="24" viewBox="0 0 24 24" fill="none" xmlns="http://www.w3.org/2000/svg">
<g clip-path="url(#clip0_201_66674)">
<path d="M12 0C5.373 0 0 5.373 0 12C0 18.627 5.373 24 12 24C18.627 24 24 18.627 24 12C24 5.373 18.627 0 12 0ZM12 21.75C6.615 21.75 2.25 17.385 2.25 12C2.25 6.615 6.615 2.25 12 2.25C17.385 2.25 21.75 6.615 21.75 12C21.75 17.385 17.385 21.75 12 21.75ZM7.5 7.5H10.5V16.5H7.5V7.5ZM13.5 7.5H16.5V16.5H13.5V7.5Z" fill="black"/>
</g>
<defs>
<clipPath id="clip0_201_66674">
<rect width="24" height="24" fill="white"/>
</clipPath>
</defs>
</svg>
