<svg width="24" height="24" viewBox="0 0 24 24" fill="none" xmlns="http://www.w3.org/2000/svg">
<g clip-path="url(#clip0_201_66710)">
<path d="M19.6334 21.6105C19.3624 21.6105 19.0913 21.501 18.8852 21.2805C18.4715 20.841 18.4715 20.1285 18.8852 19.689C20.8179 17.6355 21.8824 14.904 21.8824 11.9985C21.8824 9.093 20.8179 6.363 18.8852 4.308C18.4715 3.8685 18.4715 3.156 18.8852 2.7165C19.2988 2.277 19.9694 2.277 20.3831 2.7165C22.7167 5.196 24.0014 8.4915 24.0014 11.997C24.0014 15.5025 22.7167 18.798 20.3831 21.2775C20.1769 21.4965 19.9059 21.6075 19.6348 21.6075L19.6334 21.6105ZM15.8725 19.4895C15.6014 19.4895 15.3304 19.38 15.1242 19.1595C14.7106 18.72 14.7106 18.0075 15.1242 17.568C18.0141 14.4975 18.0141 9.501 15.1242 6.4305C14.7106 5.991 14.7106 5.2785 15.1242 4.839C15.5379 4.3995 16.2085 4.3995 16.6221 4.839C18.4221 6.7515 19.4132 9.294 19.4132 11.9985C19.4132 14.703 18.4221 17.2455 16.6221 19.158C16.416 19.377 16.1449 19.488 15.8739 19.488L15.8725 19.4895ZM12.1101 17.367C11.8391 17.367 11.568 17.2575 11.3619 17.037C10.9482 16.5975 10.9482 15.885 11.3619 15.4455C13.1506 13.545 13.1506 10.452 11.3619 8.5515C10.9482 8.112 10.9482 7.3995 11.3619 6.96C11.7755 6.5205 12.4461 6.5205 12.8598 6.96C15.4744 9.738 15.4744 14.2575 12.8598 17.037C12.6536 17.256 12.3826 17.367 12.1115 17.367H12.1101Z" fill="black"/>
<path d="M9.17647 22.5C8.99294 22.5 8.81223 22.4235 8.67671 22.281L3.23576 16.5H0.704471C0.314824 16.5 -0.00141144 16.164 -0.00141144 15.75V8.25C-0.00141144 7.836 0.314824 7.5 0.704471 7.5H3.23576L8.67671 1.719C8.87859 1.5045 9.18212 1.44 9.44612 1.557C9.71012 1.674 9.88235 1.947 9.88235 2.25V21.75C9.88235 22.053 9.71012 22.3275 9.44612 22.443C9.35859 22.482 9.26682 22.5 9.17647 22.5Z" fill="black"/>
</g>
<defs>
<clipPath id="clip0_201_66710">
<rect width="24" height="24" fill="white"/>
</clipPath>
</defs>
</svg>
