<svg width="24" height="24" viewBox="0 0 24 24" fill="none" xmlns="http://www.w3.org/2000/svg">
<g clip-path="url(#clip0_201_66713)">
<path d="M16.8645 19.4895C16.5765 19.4895 16.2885 19.38 16.0695 19.1595C15.63 18.72 15.63 18.0075 16.0695 17.568C19.14 14.4975 19.14 9.50101 16.0695 6.43051C15.63 5.99101 15.63 5.27851 16.0695 4.83901C16.509 4.39951 17.2215 4.39951 17.661 4.83901C19.5735 6.75151 20.6265 9.29401 20.6265 11.9985C20.6265 14.703 19.5735 17.2455 17.661 19.158C17.442 19.377 17.154 19.488 16.866 19.488L16.8645 19.4895ZM12.867 17.367C12.579 17.367 12.291 17.2575 12.072 17.037C11.6325 16.5975 11.6325 15.885 12.072 15.4455C13.9725 13.545 13.9725 10.452 12.072 8.55151C11.6325 8.11201 11.6325 7.39951 12.072 6.96001C12.5115 6.52051 13.224 6.52051 13.6635 6.96001C16.4415 9.73801 16.4415 14.2575 13.6635 17.037C13.4445 17.256 13.1565 17.367 12.8685 17.367H12.867Z" fill="black"/>
<path d="M9.75 22.5C9.555 22.5 9.363 22.4235 9.219 22.281L3.438 16.5H0.748497C0.334497 16.5 -0.00150299 16.164 -0.00150299 15.75V8.25C-0.00150299 7.836 0.334497 7.5 0.748497 7.5H3.438L9.219 1.719C9.4335 1.5045 9.756 1.44 10.0365 1.557C10.317 1.674 10.5 1.947 10.5 2.25V21.75C10.5 22.053 10.317 22.3275 10.0365 22.443C9.9435 22.482 9.846 22.5 9.75 22.5Z" fill="black"/>
</g>
<defs>
<clipPath id="clip0_201_66713">
<rect width="24" height="24" fill="white"/>
</clipPath>
</defs>
</svg>
