<svg width="24" height="24" viewBox="0 0 24 24" fill="none" xmlns="http://www.w3.org/2000/svg">
<g clip-path="url(#clip0_201_66724)">
<path d="M24 13.5H19.5V18H16.5V13.5H12V10.5H16.5V6H19.5V10.5H24V13.5Z" fill="black"/>
<path d="M9.75 22.5C9.555 22.5 9.363 22.4235 9.219 22.281L3.438 16.5H0.748505C0.334505 16.5 -0.00149536 16.164 -0.00149536 15.75V8.25C-0.00149536 7.836 0.334505 7.5 0.748505 7.5H3.438L9.219 1.719C9.4335 1.5045 9.756 1.44 10.0365 1.557C10.317 1.674 10.5 1.947 10.5 2.25V21.75C10.5 22.053 10.317 22.3275 10.0365 22.443C9.9435 22.482 9.846 22.5 9.75 22.5Z" fill="black"/>
</g>
<defs>
<clipPath id="clip0_201_66724">
<rect width="24" height="24" fill="white"/>
</clipPath>
</defs>
</svg>
