<svg width="24" height="24" viewBox="0 0 24 24" fill="none" xmlns="http://www.w3.org/2000/svg">
<g clip-path="url(#clip0_201_66737)">
<path d="M18 16.5H15.621L11.871 12.75L15.621 9H18V12.75L23.25 7.5L18 2.25V6H15C14.6025 6 14.22 6.1575 13.9395 6.4395L9.75 10.629L5.5605 6.4395C5.2785 6.1575 4.8975 6 4.5 6H0V9H3.879L7.629 12.75L3.879 16.5H0V19.5H4.5C4.8975 19.5 5.28 19.3425 5.5605 19.0605L9.75 14.871L13.9395 19.0605C14.2215 19.3425 14.6025 19.5 15 19.5H18V23.25L23.25 18L18 12.75V16.5Z" fill="black"/>
</g>
<defs>
<clipPath id="clip0_201_66737">
<rect width="24" height="24" fill="white"/>
</clipPath>
</defs>
</svg>
