<svg width="24" height="24" viewBox="0 0 24 24" fill="none" xmlns="http://www.w3.org/2000/svg">
<path d="M20.5605 9.43951L13.0605 1.93951C12.4755 1.35301 11.5245 1.35301 10.9395 1.93951L3.43949 9.43951C2.85299 10.026 2.85299 10.9755 3.43949 11.5605C4.02599 12.1455 4.97549 12.147 5.56049 11.5605L10.5 6.62101V21C10.5 21.828 11.172 22.5 12 22.5C12.828 22.5 13.5 21.828 13.5 21V6.62101L18.4395 11.5605C18.732 11.853 19.116 12 19.5 12C19.884 12 20.268 11.853 20.5605 11.5605C21.147 10.974 21.147 10.0245 20.5605 9.43951Z" fill="black"/>
</svg>
