<svg width="24" height="24" viewBox="0 0 24 24" fill="none" xmlns="http://www.w3.org/2000/svg">
<path d="M5.5605 20.5605L18 8.121V13.5C18 14.328 18.672 15 19.5 15C20.328 15 21 14.328 21 13.5V4.5C21 3.894 20.634 3.3465 20.0745 3.114C19.8885 3.0375 19.6935 3 19.5 3V2.9985H10.5C9.672 2.9985 9 3.6705 9 4.4985C9 5.3265 9.672 5.9985 10.5 5.9985H15.879L3.4395 18.438C3.147 18.7305 3 19.1145 3 19.4985C3 19.8825 3.147 20.2665 3.4395 20.559C4.0245 21.1455 4.9755 21.1455 5.5605 20.559V20.5605Z" fill="black"/>
</svg>
