<svg width="24" height="24" viewBox="0 0 24 24" fill="none" xmlns="http://www.w3.org/2000/svg">
<path d="M14.5605 20.5605L22.0605 13.0605C22.647 12.4755 22.647 11.5245 22.0605 10.9395L14.5605 3.43951C13.974 2.85301 13.0245 2.85301 12.4395 3.43951C11.8545 4.02601 11.853 4.97551 12.4395 5.56051L17.379 10.5H3C2.172 10.5 1.5 11.172 1.5 12C1.5 12.828 2.172 13.5 3 13.5H17.379L12.4395 18.4395C12.147 18.732 12 19.116 12 19.5C12 19.884 12.147 20.268 12.4395 20.5605C13.026 21.147 13.9755 21.147 14.5605 20.5605Z" fill="black"/>
</svg>
