<svg width="24" height="24" viewBox="0 0 24 24" fill="none" xmlns="http://www.w3.org/2000/svg">
<path d="M3.4395 5.5605L15.879 18H10.5C9.672 18 9 18.672 9 19.5C9 20.328 9.672 21 10.5 21H19.5C20.106 21 20.6535 20.634 20.886 20.0745C20.9625 19.8885 21 19.6935 21 19.5H21.0015V10.5C21.0015 9.672 20.3295 9 19.5015 9C18.6735 9 18.0015 9.672 18.0015 10.5V15.879L5.562 3.4395C5.2695 3.147 4.8855 3 4.5015 3C4.1175 3 3.7335 3.147 3.441 3.4395C2.8545 4.0245 2.8545 4.9755 3.441 5.5605H3.4395Z" fill="black"/>
</svg>
