<svg width="24" height="24" viewBox="0 0 24 24" fill="none" xmlns="http://www.w3.org/2000/svg">
<path d="M20.5605 14.5605L13.0605 22.0605C12.4755 22.647 11.5245 22.647 10.9395 22.0605L3.4395 14.5605C2.853 13.974 2.853 13.0245 3.4395 12.4395C4.026 11.8545 4.9755 11.853 5.5605 12.4395L10.5 17.379V3C10.5 2.172 11.172 1.5 12 1.5C12.828 1.5 13.5 2.172 13.5 3V17.379L18.4395 12.4395C18.732 12.147 19.116 12 19.5 12C19.884 12 20.268 12.147 20.5605 12.4395C21.147 13.026 21.147 13.9755 20.5605 14.5605Z" fill="black"/>
</svg>
