<svg width="24" height="24" viewBox="0 0 24 24" fill="none" xmlns="http://www.w3.org/2000/svg">
<path d="M18.4395 3.4395L6 15.879V10.5C6 9.672 5.328 9 4.5 9C3.672 9 3 9.672 3 10.5V19.5C3 20.106 3.366 20.6535 3.9255 20.886C4.1115 20.9625 4.3065 21 4.5 21V21.0015H13.5C14.328 21.0015 15 20.3295 15 19.5015C15 18.6735 14.328 18.0015 13.5 18.0015H8.121L20.5605 5.562C20.853 5.2695 21 4.8855 21 4.5015C21 4.1175 20.853 3.7335 20.5605 3.441C19.9755 2.8545 19.0245 2.8545 18.4395 3.441V3.4395Z" fill="black"/>
</svg>
