<svg width="24" height="24" viewBox="0 0 24 24" fill="none" xmlns="http://www.w3.org/2000/svg">
<path d="M9.43949 20.5605L1.93949 13.0605C1.35299 12.4755 1.35299 11.5245 1.93949 10.9395L9.43949 3.43951C10.026 2.85301 10.9755 2.85301 11.5605 3.43951C12.1455 4.02601 12.147 4.97551 11.5605 5.56051L6.62099 10.5H21C21.828 10.5 22.5 11.172 22.5 12C22.5 12.828 21.828 13.5 21 13.5H6.62099L11.5605 18.4395C11.853 18.732 12 19.116 12 19.5C12 19.884 11.853 20.268 11.5605 20.5605C10.974 21.147 10.0245 21.147 9.43949 20.5605Z" fill="black"/>
</svg>
