<svg width="24" height="24" viewBox="0 0 24 24" fill="none" xmlns="http://www.w3.org/2000/svg">
<g clip-path="url(#clip0_201_66771)">
<path d="M0 12C0 18.627 5.373 24 12 24C18.627 24 24 18.627 24 12C24 5.373 18.627 0 12 0C5.373 0 0 5.373 0 12ZM21.75 12C21.75 17.385 17.385 21.75 12 21.75C6.615 21.75 2.25 17.385 2.25 12C2.25 6.615 6.615 2.25 12 2.25C17.385 2.25 21.75 6.615 21.75 12Z" fill="black"/>
<path d="M16.5645 15.6855L18.6855 13.5645L12 6.879L5.3145 13.5645L7.4355 15.6855L12 11.121L16.5645 15.6855Z" fill="black"/>
</g>
<defs>
<clipPath id="clip0_201_66771">
<rect width="24" height="24" fill="white"/>
</clipPath>
</defs>
</svg>
