<svg width="24" height="24" viewBox="0 0 24 24" fill="none" xmlns="http://www.w3.org/2000/svg">
<path d="M18 16.5V7.5H16.5V16.5H12.75L17.25 21L21.75 16.5H18Z" fill="black"/>
<path d="M7.5 6V10.5H3V6H7.5ZM9 4.5H1.5V12H9V4.5Z" fill="black"/>
<path d="M1.5 15H3.75V16.5H1.5V15Z" fill="black"/>
<path d="M4.5 15H6.75V16.5H4.5V15Z" fill="black"/>
<path d="M7.5 15H9V17.25H7.5V15Z" fill="black"/>
<path d="M1.5 20.25H3V22.5H1.5V20.25Z" fill="black"/>
<path d="M3.75 21H6V22.5H3.75V21Z" fill="black"/>
<path d="M6.75 21H9V22.5H6.75V21Z" fill="black"/>
<path d="M1.5 17.25H3V19.5H1.5V17.25Z" fill="black"/>
<path d="M7.5 18H9V20.25H7.5V18Z" fill="black"/>
</svg>
