<svg width="24" height="24" viewBox="0 0 24 24" fill="none" xmlns="http://www.w3.org/2000/svg">
<g clip-path="url(#clip0_201_66814)">
<path d="M7.5 18V0H4.5V18H0.75L6 23.25L11.25 18H7.5Z" fill="black"/>
<path d="M21.75 10.5H15.75C15.474 10.5 15.219 10.3485 15.0885 10.104C14.958 9.8595 14.973 9.564 15.126 9.3345L20.349 1.5H15.75C15.336 1.5 15 1.164 15 0.75C15 0.336 15.336 0 15.75 0H21.75C22.026 0 22.281 0.153 22.4115 0.396C22.542 0.639 22.527 0.936 22.374 1.1655L17.151 9H21.75C22.164 9 22.5 9.336 22.5 9.75C22.5 10.164 22.164 10.5 21.75 10.5Z" fill="black"/>
<path d="M23.9205 22.914L19.4205 13.914C19.293 13.6605 19.0335 13.5 18.75 13.5C18.4665 13.5 18.2055 13.6605 18.0795 13.914L13.5795 22.914C13.395 23.2845 13.545 23.7345 13.9155 23.9205C14.0235 23.9745 14.1375 24 14.25 24C14.5245 24 14.79 23.8485 14.922 23.5845L16.215 20.9985H21.288L22.581 23.5845C22.7655 23.955 23.217 24.105 23.5875 23.9205C23.958 23.736 24.108 23.2845 23.9235 22.914H23.9205ZM16.9635 19.5L18.75 15.927L20.5365 19.5H16.9635Z" fill="black"/>
</g>
<defs>
<clipPath id="clip0_201_66814">
<rect width="24" height="24" fill="white"/>
</clipPath>
</defs>
</svg>
