<svg width="24" height="24" viewBox="0 0 24 24" fill="none" xmlns="http://www.w3.org/2000/svg">
<path d="M7.5 18V0H4.5V18H0.75L6 23.25L11.25 18H7.5Z" fill="black"/>
<path d="M20.25 10.5C19.836 10.5 19.5 10.164 19.5 9.75V1.5H18.75C18.336 1.5 18 1.164 18 0.75C18 0.336 18.336 0 18.75 0H20.25C20.664 0 21 0.336 21 0.75V9.75C21 10.164 20.664 10.5 20.25 10.5Z" fill="black"/>
<path d="M21.75 13.5H17.25C16.836 13.5 16.5 13.836 16.5 14.25V18.75C16.5 19.164 16.836 19.5 17.25 19.5H21V22.5H17.25C16.836 22.5 16.5 22.836 16.5 23.25C16.5 23.664 16.836 24 17.25 24H21.75C22.164 24 22.5 23.664 22.5 23.25V14.25C22.5 13.836 22.164 13.5 21.75 13.5ZM18 15H21V18H18V15Z" fill="black"/>
</svg>
