<svg width="24" height="24" viewBox="0 0 24 24" fill="none" xmlns="http://www.w3.org/2000/svg">
<path d="M7.5 18V0H4.5V18H0.75L6 23.25L11.25 18H7.5Z" fill="black"/>
<path d="M20.25 24C19.836 24 19.5 23.664 19.5 23.25V15H18.75C18.336 15 18 14.664 18 14.25C18 13.836 18.336 13.5 18.75 13.5H20.25C20.664 13.5 21 13.836 21 14.25V23.25C21 23.664 20.664 24 20.25 24Z" fill="black"/>
<path d="M21.75 0H17.25C16.836 0 16.5 0.336 16.5 0.75V5.25C16.5 5.664 16.836 6 17.25 6H21V9H17.25C16.836 9 16.5 9.336 16.5 9.75C16.5 10.164 16.836 10.5 17.25 10.5H21.75C22.164 10.5 22.5 10.164 22.5 9.75V0.75C22.5 0.336 22.164 0 21.75 0ZM18 1.5H21V4.5H18V1.5Z" fill="black"/>
</svg>
