<svg width="24" height="24" viewBox="0 0 24 24" fill="none" xmlns="http://www.w3.org/2000/svg">
<path d="M17.25 21C15.1815 21 13.5 19.3185 13.5 17.25V15H10.5V17.25C10.5 19.3185 8.817 21 6.75 21C4.683 21 3 19.3185 3 17.25C3 15.1815 4.683 13.5 6.75 13.5H9V10.5H6.75C4.683 10.5 3 8.817 3 6.75C3 4.683 4.683 3 6.75 3C8.817 3 10.5 4.683 10.5 6.75V9H13.5V6.75C13.5 4.683 15.1815 3 17.25 3C19.3185 3 21 4.683 21 6.75C21 8.817 19.3185 10.5 17.25 10.5H15V13.5H17.25C19.3185 13.5 21 15.1815 21 17.25C21 19.3185 19.3185 21 17.25 21ZM15 15V17.25C15 18.4905 16.0095 19.5 17.25 19.5C18.4905 19.5 19.5 18.4905 19.5 17.25C19.5 16.0095 18.4905 15 17.25 15H15ZM6.75 15C5.5095 15 4.5 16.0095 4.5 17.25C4.5 18.4905 5.5095 19.5 6.75 19.5C7.9905 19.5 9 18.4905 9 17.25V15H6.75ZM10.5 13.5H13.5V10.5H10.5V13.5ZM15 9H17.25C18.4905 9 19.5 7.9905 19.5 6.75C19.5 5.5095 18.4905 4.5 17.25 4.5C16.0095 4.5 15 5.5095 15 6.75V9ZM6.75 4.5C5.5095 4.5 4.5 5.5095 4.5 6.75C4.5 7.9905 5.5095 9 6.75 9H9V6.75C9 5.5095 7.9905 4.5 6.75 4.5Z" fill="black"/>
</svg>
