<svg width="24" height="24" viewBox="0 0 24 24" fill="none" xmlns="http://www.w3.org/2000/svg">
<path d="M21.75 19.5H15.75C15.453 19.5 15.1845 19.326 15.0645 19.0545L9.2625 6H2.25C1.836 6 1.5 5.664 1.5 5.25C1.5 4.836 1.836 4.5 2.25 4.5H9.75C10.047 4.5 10.3155 4.674 10.4355 4.9455L16.2375 18H21.75C22.164 18 22.5 18.336 22.5 18.75C22.5 19.164 22.164 19.5 21.75 19.5Z" fill="black"/>
<path d="M21.75 6H14.25C13.836 6 13.5 5.664 13.5 5.25C13.5 4.836 13.836 4.5 14.25 4.5H21.75C22.164 4.5 22.5 4.836 22.5 5.25C22.5 5.664 22.164 6 21.75 6Z" fill="black"/>
</svg>
