<svg width="24" height="24" viewBox="0 0 24 24" fill="none" xmlns="http://www.w3.org/2000/svg">
<g clip-path="url(#clip0_201_66851)">
<path d="M12 0C5.373 0 0 5.373 0 12C0 18.627 5.373 24 12 24C18.627 24 24 18.627 24 12C24 5.373 18.627 0 12 0ZM12 21C7.029 21 3 16.971 3 12C3 7.029 7.029 3 12 3C16.971 3 21 7.029 21 12C21 16.971 16.971 21 12 21ZM7.5 12C7.5 9.5145 9.5145 7.5 12 7.5C14.4855 7.5 16.5 9.5145 16.5 12C16.5 14.4855 14.4855 16.5 12 16.5C9.5145 16.5 7.5 14.4855 7.5 12Z" fill="black"/>
</g>
<defs>
<clipPath id="clip0_201_66851">
<rect width="24" height="24" fill="white"/>
</clipPath>
</defs>
</svg>
