<svg width="24" height="24" viewBox="0 0 24 24" fill="none" xmlns="http://www.w3.org/2000/svg">
<g clip-path="url(#clip0_201_66859)">
<path d="M7.5 3H4.5C3.675 3 3 3.675 3 4.5V7.5C3 8.325 3.675 9 4.5 9H7.5C8.325 9 9 8.325 9 7.5V4.5C9 3.675 8.325 3 7.5 3Z" fill="black"/>
<path d="M16.5 9H19.5C20.325 9 21 8.325 21 7.5V4.5C21 3.675 20.325 3 19.5 3H16.5C15.675 3 15 3.675 15 4.5V7.5C15 8.325 15.675 9 16.5 9ZM16.5 4.5H19.5V7.5H16.5V4.5Z" fill="black"/>
<path d="M7.5 15H4.5C3.675 15 3 15.675 3 16.5V19.5C3 20.325 3.675 21 4.5 21H7.5C8.325 21 9 20.325 9 19.5V16.5C9 15.675 8.325 15 7.5 15ZM7.5 19.5H4.5V16.5H7.5V19.5Z" fill="black"/>
<path d="M19.5 15H16.5C15.675 15 15 15.675 15 16.5V19.5C15 20.325 15.675 21 16.5 21H19.5C20.325 21 21 20.325 21 19.5V16.5C21 15.675 20.325 15 19.5 15Z" fill="black"/>
<path d="M21 12H19.5C17.496 12 15.6135 11.22 14.196 9.804C12.7785 8.388 12 6.504 12 4.5V3C12 1.35 10.65 0 9 0H3C1.35 0 0 1.35 0 3V9C0 10.65 1.35 12 3 12H4.5C6.504 12 8.3865 12.78 9.804 14.196C11.2215 15.612 12 17.496 12 19.5V21C12 22.65 13.35 24 15 24H21C22.65 24 24 22.65 24 21V15C24 13.35 22.65 12 21 12ZM22.5 21C22.5 21.3975 22.3425 21.7725 22.0575 22.0575C21.7725 22.3425 21.3975 22.5 21 22.5H15C14.6025 22.5 14.2275 22.3425 13.9425 22.0575C13.6575 21.7725 13.5 21.3975 13.5 21V19.5C13.5 14.529 9.471 10.5 4.5 10.5H3C2.6025 10.5 2.2275 10.3425 1.9425 10.0575C1.6575 9.7725 1.5 9.396 1.5 9V3C1.5 2.6025 1.6575 2.2275 1.9425 1.9425C2.2275 1.6575 2.6025 1.5 3 1.5H9C9.3975 1.5 9.7725 1.6575 10.0575 1.9425C10.3425 2.2275 10.5 2.6025 10.5 3V4.5C10.5 9.471 14.529 13.5 19.5 13.5H21C21.3975 13.5 21.7725 13.6575 22.0575 13.9425C22.3425 14.2275 22.5 14.6025 22.5 15V21Z" fill="black"/>
</g>
<defs>
<clipPath id="clip0_201_66859">
<rect width="24" height="24" fill="white"/>
</clipPath>
</defs>
</svg>
