<svg width="24" height="24" viewBox="0 0 24 24" fill="none" xmlns="http://www.w3.org/2000/svg">
<g clip-path="url(#clip0_201_66885)">
<path d="M21.4185 15.93C19.8555 13.488 17.175 12.4125 15.4305 13.5285C15.2805 13.6245 15.141 13.7355 15.015 13.8555L13.1535 10.9425L17.454 4.19248C17.8065 3.54298 17.9355 2.76898 17.7645 1.99048C17.601 1.24648 17.19 0.620979 16.6365 0.179979L16.3485 -0.00302124L11.2515 7.96798L6.15451 -0.00302124L5.86651 0.179979C5.31301 0.620979 4.90201 1.24648 4.73851 1.99048C4.56751 2.76898 4.69801 3.54298 5.04901 4.19248L9.34951 10.9425L7.48801 13.8555C7.36051 13.734 7.22251 13.6245 7.07251 13.5285C5.32801 12.4125 2.64751 13.4865 1.08451 15.93C-0.478489 18.3735 -0.331489 21.2565 1.41301 22.374C3.15751 23.49 5.83801 22.416 7.40101 19.9725L11.2515 13.929L15.102 19.9725C16.665 22.4145 19.3455 23.49 21.09 22.374C22.8345 21.258 22.9815 18.3735 21.4185 15.93ZM5.50501 18.7605C4.80151 19.86 3.89851 20.394 3.28801 20.529C3.08851 20.5725 2.81251 20.5995 2.62351 20.4795C2.41501 20.346 2.27701 19.9935 2.25301 19.536C2.21551 18.795 2.47951 17.922 2.97751 17.145C3.68101 16.0455 4.58401 15.5115 5.19451 15.3765C5.39401 15.333 5.67001 15.306 5.85901 15.426C6.06751 15.5595 6.20551 15.912 6.22951 16.3695C6.26701 17.112 6.00301 17.9835 5.50501 18.7605ZM11.25 12C10.836 12 10.5 11.664 10.5 11.25C10.5 10.836 10.836 10.5 11.25 10.5C11.664 10.5 12 10.836 12 11.25C12 11.664 11.664 12 11.25 12ZM20.247 19.5345C20.223 19.992 20.085 20.3445 19.8765 20.478C19.689 20.598 19.4115 20.571 19.212 20.5275C18.6015 20.394 17.6985 19.8585 16.995 18.759C16.497 17.9805 16.233 17.109 16.2705 16.368C16.2945 15.9105 16.4325 15.558 16.641 15.4245C16.8285 15.3045 17.106 15.3315 17.3055 15.375C17.916 15.5085 18.819 16.044 19.5225 17.1435C20.0205 17.922 20.2845 18.7935 20.247 19.5345Z" fill="black"/>
</g>
<defs>
<clipPath id="clip0_201_66885">
<rect width="24" height="24" fill="white"/>
</clipPath>
</defs>
</svg>
