<svg width="24" height="24" viewBox="0 0 24 24" fill="none" xmlns="http://www.w3.org/2000/svg">
<g clip-path="url(#clip0_201_66887)">
<path d="M12 0C5.373 0 0 1.6785 0 3.75V6L9 15V22.5C9 23.328 10.3425 24 12 24C13.6575 24 15 23.328 15 22.5V15L24 6V3.75C24 1.6785 18.627 0 12 0ZM2.2125 3.2535C2.7735 2.934 3.5625 2.6295 4.4925 2.3745C6.5535 1.8105 9.2205 1.5 12 1.5C14.7795 1.5 17.4465 1.8105 19.5075 2.3745C20.4375 2.6295 21.2265 2.9325 21.7875 3.2535C22.158 3.465 22.3575 3.6435 22.4505 3.75C22.3575 3.8565 22.158 4.035 21.7875 4.2465C21.2265 4.566 20.4375 4.8705 19.5075 5.1255C17.4465 5.6895 14.7795 6 12 6C9.2205 6 6.5535 5.6895 4.4925 5.1255C3.5625 4.8705 2.7735 4.5675 2.2125 4.2465C1.842 4.035 1.6425 3.8565 1.5495 3.75C1.6425 3.6435 1.842 3.465 2.2125 3.2535Z" fill="black"/>
</g>
<defs>
<clipPath id="clip0_201_66887">
<rect width="24" height="24" fill="white"/>
</clipPath>
</defs>
</svg>
