<svg width="24" height="24" viewBox="0 0 24 24" fill="none" xmlns="http://www.w3.org/2000/svg">
<g clip-path="url(#clip0_201_66889)">
<path d="M18.741 0.379479C16.62 0.379479 15.258 -2.12402e-05 13.0725 -2.12402e-05C6.0105 -2.12402e-05 2.718 4.02148 2.718 8.10598C2.718 10.512 3.858 11.304 6.1065 11.304C5.9475 10.956 5.6625 10.575 5.6625 8.86498C5.6625 4.08298 7.467 2.68948 9.7785 2.59498C9.7785 2.59498 7.8825 21.189 2.3775 23.4195V23.997H9.798L12.33 11.997H16.9665L18 8.99698H12.963L14.181 3.22648C15.5745 3.51148 16.9365 3.79648 18.108 3.79648C19.5645 3.79648 20.895 3.35248 21.6225 -0.00302124C20.736 0.281979 19.7865 0.376479 18.741 0.376479V0.379479Z" fill="black"/>
</g>
<defs>
<clipPath id="clip0_201_66889">
<rect width="24" height="24" fill="white"/>
</clipPath>
</defs>
</svg>
