<svg width="24" height="24" viewBox="0 0 24 24" fill="none" xmlns="http://www.w3.org/2000/svg">
<path d="M20.046 21.5025C19.7715 21.5025 18.0855 21.1935 17.9835 20.8155C17.742 19.887 17.709 18.8895 17.709 17.7555V5.076C17.709 3.1845 18.087 2.085 18.087 2.085C18.0525 1.9125 17.88 1.5345 17.6745 1.5345H17.571C17.4675 1.5345 16.2645 2.2905 15.1635 2.2905C14.2695 2.2905 13.713 1.5 12.681 1.5C8.343 1.5 6.3075 5.0235 6.3075 10.008V10.2675C6.3075 10.371 6.2385 10.4745 6.135 10.4745H4.725C4.5525 10.4745 4.209 11.4375 4.209 11.8845C4.209 12.0225 4.2435 12.09 4.3125 12.09H6.135C6.2385 12.09 6.3075 12.228 6.3075 12.33C6.3075 15.39 6.273 18.408 6.273 18.408C6.273 18.8895 6.2385 19.9545 6.033 20.8155C5.9295 21.1935 4.3485 21.5025 3.936 21.5025C3.7635 21.5025 3.7635 22.3275 3.936 22.5C5.346 22.431 6.2745 22.3275 7.6845 22.3275C8.991 22.3275 9.9885 22.431 11.364 22.5C11.433 22.293 11.433 21.5025 11.2605 21.5025C10.986 21.5025 9.3 21.1935 9.198 20.8155C8.958 19.887 8.958 18.8895 8.9235 17.7555V12.297C8.9235 12.1935 9.027 12.09 9.1305 12.09H12.672C12.912 11.6085 13.0845 11.0235 13.0845 10.7145C13.0845 10.5075 13.0845 10.4745 12.912 10.4745H9.096C9.027 10.4745 8.9235 10.371 8.9235 10.302V9.0645C8.9235 6.0045 10.1775 3.309 12.2745 3.309C13.7595 3.309 15.0555 4.272 15.0555 7.9485C15.06 8.043 15.063 8.1195 15.063 8.1705V18.408C15.063 18.8895 15.0285 19.9545 14.823 20.8155C14.7195 21.1935 13.1385 21.5025 12.726 21.5025C12.5535 21.5025 12.5535 22.3275 12.726 22.5C14.136 22.431 15.0645 22.3275 16.4745 22.3275C17.781 22.3275 18.7785 22.431 20.154 22.5C20.223 22.2945 20.223 21.5025 20.0505 21.5025H20.046Z" fill="black"/>
</svg>
