<svg width="24" height="24" viewBox="0 0 24 24" fill="none" xmlns="http://www.w3.org/2000/svg">
<path d="M24 12V13.5H18.504C19.149 14.403 19.5 15.438 19.5 16.5C19.5 18.1605 18.6405 19.758 17.142 20.8815C15.7515 21.9255 13.9245 22.5 12 22.5C10.0755 22.5 8.2485 21.9255 6.858 20.8815C5.3595 19.758 4.5 18.1605 4.5 16.5H7.5C7.5 18.126 9.561 19.5 12 19.5C14.439 19.5 16.5 18.126 16.5 16.5C16.5 14.874 14.439 13.5 12 13.5H0V12H7.02C6.9645 11.961 6.9105 11.922 6.858 11.8815C5.3595 10.758 4.5 9.1605 4.5 7.5C4.5 5.8395 5.3595 4.242 6.858 3.1185C8.2485 2.0745 10.0755 1.5 12 1.5C13.9245 1.5 15.7515 2.0745 17.142 3.1185C18.6405 4.242 19.5 5.8395 19.5 7.5H16.5C16.5 5.874 14.439 4.5 12 4.5C9.561 4.5 7.5 5.874 7.5 7.5C7.5 9.126 9.561 10.5 12 10.5C13.851 10.5 15.6105 11.031 16.98 12H24Z" fill="black"/>
</svg>
