<svg width="24" height="24" viewBox="0 0 24 24" fill="none" xmlns="http://www.w3.org/2000/svg">
<g clip-path="url(#clip0_201_66909)">
<path d="M16.5 21H22.5L24 18V24H15V18.9795C18.0735 17.655 20.25 14.358 20.25 10.5C20.25 5.475 16.557 1.5405 12 1.5405C7.443 1.5405 3.75 5.4735 3.75 10.5C3.75 14.358 5.9265 17.655 9 18.9795V24H0V18L1.5 21H7.5V20.2365C3.102 18.6795 0 14.907 0 10.5C0 4.701 5.373 0 12 0C18.627 0 24 4.701 24 10.5C24 14.907 20.898 18.678 16.5 20.2365V21Z" fill="black"/>
</g>
<defs>
<clipPath id="clip0_201_66909">
<rect width="24" height="24" fill="white"/>
</clipPath>
</defs>
</svg>
