<svg width="24" height="24" viewBox="0 0 24 24" fill="none" xmlns="http://www.w3.org/2000/svg">
<path d="M4.548 19.5L5.898 15H12.1035L13.4535 19.5H16.116L11.616 4.5H6.384L1.884 19.5H4.548ZM8.148 7.5H9.8535L11.2035 12H6.798L8.148 7.5ZM16.5 19.5L20.25 13.5L24 19.5H16.5Z" fill="black"/>
<path d="M20.25 3H18.75C18.336 3 18 2.664 18 2.25C18 1.836 18.336 1.5 18.75 1.5H21.75C22.164 1.5 22.5 1.164 22.5 0.75C22.5 0.336 22.164 0 21.75 0H18.75C17.5095 0 16.5 1.0095 16.5 2.25C16.5 2.826 16.7175 3.351 17.0745 3.75C17.487 4.2105 18.0855 4.5 18.75 4.5H20.25C20.664 4.5 21 4.836 21 5.25C21 5.664 20.664 6 20.25 6H17.25C16.836 6 16.5 6.336 16.5 6.75C16.5 7.164 16.836 7.5 17.25 7.5H20.25C21.4905 7.5 22.5 6.4905 22.5 5.25C22.5 4.674 22.2825 4.149 21.9255 3.75C21.513 3.2895 20.9145 3 20.25 3Z" fill="black"/>
</svg>
