<svg width="24" height="24" viewBox="0 0 24 24" fill="none" xmlns="http://www.w3.org/2000/svg">
<path d="M4.548 19.5L5.898 15H12.1035L13.4535 19.5H16.116L11.616 4.5H6.384L1.884 19.5H4.548ZM8.148 7.5H9.8535L11.2035 12H6.798L8.148 7.5ZM24 4.5L20.25 10.5L16.5 4.5H24Z" fill="black"/>
<path d="M20.25 19.5H18.75C18.336 19.5 18 19.164 18 18.75C18 18.336 18.336 18 18.75 18H21.75C22.164 18 22.5 17.664 22.5 17.25C22.5 16.836 22.164 16.5 21.75 16.5H18.75C17.5095 16.5 16.5 17.5095 16.5 18.75C16.5 19.326 16.7175 19.851 17.0745 20.25C17.487 20.7105 18.0855 21 18.75 21H20.25C20.664 21 21 21.336 21 21.75C21 22.164 20.664 22.5 20.25 22.5H17.25C16.836 22.5 16.5 22.836 16.5 23.25C16.5 23.664 16.836 24 17.25 24H20.25C21.4905 24 22.5 22.9905 22.5 21.75C22.5 21.174 22.2825 20.649 21.9255 20.25C21.513 19.7895 20.9145 19.5 20.25 19.5Z" fill="black"/>
</svg>
