<svg width="24" height="24" viewBox="0 0 24 24" fill="none" xmlns="http://www.w3.org/2000/svg">
<g clip-path="url(#clip0_201_66935)">
<path d="M9 4.5H12V6H9V4.5ZM13.5 4.5H16.5V6H13.5V4.5ZM21 4.5V10.5H16.5V9H19.5V6H18V4.5H21ZM7.5 9H10.5V10.5H7.5V9ZM12 9H15V10.5H12V9ZM4.5 6V9H6V10.5H3V4.5H7.5V6H4.5ZM9 13.5H12V15H9V13.5ZM13.5 13.5H16.5V15H13.5V13.5ZM21 13.5V19.5H16.5V18H19.5V15H18V13.5H21ZM7.5 18H10.5V19.5H7.5V18ZM12 18H15V19.5H12V18ZM4.5 15V18H6V19.5H3V13.5H7.5V15H4.5ZM22.5 1.5H1.5V22.5H22.5V1.5ZM24 0V24H0V0H24Z" fill="black"/>
</g>
<defs>
<clipPath id="clip0_201_66935">
<rect width="24" height="24" fill="white"/>
</clipPath>
</defs>
</svg>
