<svg width="24" height="24" viewBox="0 0 24 24" fill="none" xmlns="http://www.w3.org/2000/svg">
<g clip-path="url(#clip0_201_66943)">
<path d="M11.6235 24C10.467 24 9.4875 23.6625 8.715 22.9965C7.9365 22.326 7.542 21.543 7.542 20.6685C7.542 20.244 7.6965 19.878 8.0025 19.5795C8.313 19.2765 8.7 19.116 9.1245 19.116C9.546 19.116 9.9255 19.266 10.2225 19.551C10.515 19.8315 10.6635 20.2035 10.6635 20.655C10.6635 20.9205 10.62 21.213 10.5345 21.525C10.4505 21.834 10.4325 21.993 10.4325 22.071C10.4325 22.158 10.4535 22.26 10.614 22.3695C10.9125 22.5765 11.2725 22.6755 11.712 22.6755C12.2415 22.6755 12.7125 22.491 13.155 22.113C13.59 21.7395 13.8015 21.3555 13.8015 20.94C13.8015 20.478 13.6785 20.0775 13.4235 19.716C12.993 19.113 12.1845 18.405 11.019 17.6145C9.147 16.362 7.9005 15.276 7.209 14.298C6.672 13.5315 6.4005 12.7065 6.4005 11.844C6.4005 10.9755 6.6855 10.1115 7.2465 9.27453C7.7265 8.55903 8.4375 7.91253 9.3615 7.35003C8.8665 6.81753 8.496 6.31653 8.2575 5.85753C7.956 5.27703 7.803 4.67703 7.803 4.07403C7.803 2.95353 8.2455 1.98453 9.12 1.19403C9.9945 0.403526 11.085 0.00152588 12.3615 0.00152588C13.536 0.00152588 14.523 0.331526 15.2955 0.982526C16.077 1.64103 16.473 2.41053 16.473 3.26853C16.473 3.70653 16.3095 4.09803 15.987 4.43253L15.981 4.43853C15.7935 4.62453 15.4515 4.84503 14.8785 4.84503C14.43 4.84503 14.037 4.69803 13.7415 4.42053C13.4475 4.14453 13.2975 3.81303 13.2975 3.43653C13.2975 3.27453 13.338 3.02853 13.4235 2.66403C13.4655 2.49153 13.4865 2.33253 13.4865 2.19003C13.4865 1.94703 13.3995 1.76253 13.212 1.60503C13.0185 1.44303 12.741 1.36353 12.3645 1.36353C11.781 1.36353 11.3025 1.54053 10.902 1.90503C10.5015 2.26953 10.3035 2.70453 10.3035 3.22953C10.3035 3.70203 10.41 4.09053 10.6215 4.38603C11.022 4.94703 11.718 5.55303 12.6885 6.18753C14.661 7.46703 16.038 8.64153 16.779 9.67503C17.3265 10.452 17.6025 11.277 17.6025 12.1305C17.6025 12.9885 17.3235 13.8525 16.7745 14.7015C16.3005 15.432 15.585 16.0905 14.6445 16.6635C15.165 17.214 15.531 17.6955 15.759 18.129C16.0425 18.6675 16.185 19.2555 16.185 19.8765C16.185 21.0405 15.741 22.029 14.8665 22.8165C13.992 23.604 12.9015 24.0015 11.625 24.0015L11.6235 24ZM10.4625 8.35203C9.333 9.03003 8.7825 9.81003 8.7825 10.7265C8.7825 11.2605 8.9355 11.7375 9.2475 12.186C9.714 12.84 10.6365 13.641 11.985 14.5605C12.5565 14.949 13.071 15.327 13.5225 15.687C14.673 14.9955 15.2325 14.226 15.2325 13.3395C15.2325 12.8565 15.042 12.3375 14.6655 11.7945C14.271 11.2275 13.4265 10.4865 12.1545 9.59403C11.49 9.13503 10.923 8.71953 10.4625 8.35353V8.35203Z" fill="black"/>
</g>
<defs>
<clipPath id="clip0_201_66943">
<rect width="24" height="24" fill="white"/>
</clipPath>
</defs>
</svg>
