<svg width="24" height="24" viewBox="0 0 24 24" fill="none" xmlns="http://www.w3.org/2000/svg">
<g clip-path="url(#clip0_201_66971)">
<path d="M20.25 16.5C19.191 16.5 18.237 16.9395 17.5545 17.6445L7.4535 12.594C7.485 12.4005 7.5015 12.2025 7.5015 12C7.5015 11.7975 7.485 11.5995 7.4535 11.406L17.5545 6.3555C18.237 7.0605 19.191 7.5 20.25 7.5C22.3215 7.5 24 5.8215 24 3.75C24 1.6785 22.3215 0 20.25 0C18.1785 0 16.5 1.6785 16.5 3.75C16.5 3.9525 16.5165 4.1505 16.5465 4.344L6.4455 9.3945C5.763 8.6895 4.809 8.25 3.75 8.25C1.6785 8.25 0 9.9285 0 12C0 14.0715 1.6785 15.75 3.75 15.75C4.809 15.75 5.7645 15.3105 6.4455 14.6055L16.5465 19.656C16.515 19.8495 16.5 20.0475 16.5 20.25C16.5 22.3215 18.1785 24 20.25 24C22.3215 24 24 22.3215 24 20.25C24 18.1785 22.3215 16.5 20.25 16.5Z" fill="black"/>
</g>
<defs>
<clipPath id="clip0_201_66971">
<rect width="24" height="24" fill="white"/>
</clipPath>
</defs>
</svg>
