<svg width="24" height="24" viewBox="0 0 24 24" fill="none" xmlns="http://www.w3.org/2000/svg">
<g clip-path="url(#clip0_201_66975)">
<path d="M19.9995 0H4.0005C1.8 0 0 1.8 0 4.0005V19.9995C0 22.2015 1.8 24 4.0005 24H19.9995C22.2 24 24 22.2015 24 19.9995V4.0005C24 1.8 22.2 0 19.9995 0ZM19.9995 3C20.187 3 20.364 3.054 20.5155 3.1485L11.9985 10.1895L3.483 3.1485C3.6345 3.054 3.8115 3 3.999 3H19.998H19.9995ZM4.0005 21C3.9555 21 3.9105 20.997 3.867 20.991L9.1545 13.656L8.469 12.9705L3 18.4395V4.116L12 15L21 4.116V18.4395L15.531 12.9705L14.8455 13.656L20.133 20.991C20.0895 20.997 20.0445 21 20.001 21H4.002H4.0005Z" fill="black"/>
</g>
<defs>
<clipPath id="clip0_201_66975">
<rect width="24" height="24" fill="white"/>
</clipPath>
</defs>
</svg>
