<svg width="24" height="24" viewBox="0 0 24 24" fill="none" xmlns="http://www.w3.org/2000/svg">
<g clip-path="url(#clip0_201_66977)">
<path d="M19.9995 0H4.0005C1.8 0 0 1.8 0 4.0005V19.9995C0 22.2015 1.8 24 4.0005 24H19.9995C22.2 24 24 22.2015 24 19.9995V4.0005C24 1.8 22.2 0 19.9995 0ZM4.281 20.781L2.4705 18.9705L8.4705 12.9705L9.156 13.656L4.281 20.781ZM3.594 4.656L4.2795 3.9705L11.9985 10.1895L19.7175 3.9705L20.403 4.656L11.997 14.562L3.591 4.656H3.594ZM19.719 20.781L14.844 13.656L15.5295 12.9705L21.5295 18.9705L19.719 20.781Z" fill="black"/>
</g>
<defs>
<clipPath id="clip0_201_66977">
<rect width="24" height="24" fill="white"/>
</clipPath>
</defs>
</svg>
