<svg width="24" height="24" viewBox="0 0 24 24" fill="none" xmlns="http://www.w3.org/2000/svg">
<g clip-path="url(#clip0_201_66979)">
<path d="M12 0C5.373 0 0 5.373 0 12C0 18.627 5.373 24 12 24C18.627 24 24 18.627 24 12C24 5.373 18.627 0 12 0ZM6 6H18C18.2145 6 18.4215 6.0465 18.6135 6.132L12 13.8465L5.3865 6.132C5.577 6.045 5.7855 6 6 6ZM4.5 16.5V7.5C4.5 7.4685 4.5015 7.437 4.503 7.4055L8.901 12.537L4.551 16.887C4.5165 16.7625 4.5 16.632 4.5 16.5ZM18 18H6C5.868 18 5.7375 17.982 5.613 17.949L9.882 13.68L12.0015 16.152L14.121 13.68L18.39 17.949C18.2655 17.9835 18.135 18 18.003 18H18ZM19.5 16.5C19.5 16.632 19.482 16.7625 19.449 16.887L15.099 12.537L19.497 7.4055C19.4985 7.437 19.5 7.4685 19.5 7.5V16.5Z" fill="black"/>
</g>
<defs>
<clipPath id="clip0_201_66979">
<rect width="24" height="24" fill="white"/>
</clipPath>
</defs>
</svg>
