<svg width="24" height="24" viewBox="0 0 24 24" fill="none" xmlns="http://www.w3.org/2000/svg">
<path d="M21.6945 20.7465C19.065 22.6875 15.258 23.718 11.9775 23.718C7.37849 23.718 3.23999 22.0215 0.109494 19.1895C-0.135006 18.969 0.0809944 18.6645 0.376494 18.8385C3.75599 20.808 7.93799 21.9885 12.255 21.9885C15.1665 21.9885 18.3675 21.384 21.3165 20.1315C21.7575 19.944 22.1325 20.427 21.696 20.745L21.6945 20.7465Z" fill="black"/>
<path d="M22.7865 19.5C22.449 19.0695 20.565 19.2945 19.716 19.3965C19.458 19.425 19.4205 19.2045 19.65 19.0395C21.1545 17.985 23.6205 18.2895 23.907 18.6405C24.198 18.9975 23.832 21.4665 22.4205 22.6485C22.2045 22.8315 21.999 22.7325 22.092 22.494C22.416 21.702 23.124 19.9305 22.7865 19.4985V19.5Z" fill="black"/>
<path d="M16.5795 17.757L16.584 17.7615C17.1645 17.25 18.21 16.3365 18.801 15.8445C19.035 15.657 18.993 15.3435 18.81 15.081C18.2805 14.349 17.718 13.755 17.718 12.405V7.90503C17.718 5.99703 17.85 4.24803 16.4475 2.93553C15.3405 1.87653 13.503 1.50153 12.0975 1.50153C9.351 1.50153 6.285 2.52753 5.643 5.92203C5.5725 6.28353 5.8395 6.47553 6.0735 6.52653L8.8725 6.83103C9.135 6.81753 9.3225 6.55953 9.3735 6.29703C9.612 5.13003 10.593 4.56303 11.694 4.56303C12.2895 4.56303 12.9645 4.77903 13.3155 5.31303C13.719 5.90853 13.6665 6.72003 13.6665 7.40853V7.78353C11.9925 7.97103 9.804 8.09253 8.238 8.78253C6.429 9.56553 5.1585 11.1585 5.1585 13.503C5.1585 16.503 7.047 18.003 9.48 18.003C11.5335 18.003 12.654 17.52 14.238 15.8985C14.763 16.6575 14.9325 17.028 15.8925 17.8245C16.113 17.9415 16.3845 17.9325 16.5765 17.7585L16.5795 17.757ZM13.6695 10.716C13.6695 11.841 13.698 12.7785 13.131 13.7775C12.672 14.5935 11.9445 15.09 11.1345 15.09C10.029 15.09 9.381 14.2455 9.381 12.999C9.381 10.5375 11.589 10.092 13.6755 10.092V10.716H13.6695Z" fill="black"/>
</svg>
