<svg width="24" height="24" viewBox="0 0 24 24" fill="none" xmlns="http://www.w3.org/2000/svg">
<g clip-path="url(#clip0_201_66985)">
<path d="M12.2385 10.284V14.4H19.044C18.768 16.167 16.986 19.575 12.2385 19.575C8.14201 19.575 4.80001 16.182 4.80001 12C4.80001 7.81797 8.14201 4.42497 12.2385 4.42497C14.568 4.42497 16.1295 5.41947 17.0205 6.27597L20.2785 3.13947C18.1875 1.18047 15.4785 -0.00152588 12.24 -0.00152588C5.60701 -0.00152588 0.240005 5.36547 0.240005 11.9985C0.240005 18.6315 5.60701 23.9985 12.24 23.9985C19.164 23.9985 23.7615 19.128 23.7615 12.2745C23.7615 11.487 23.6775 10.887 23.574 10.287L12.24 10.2825L12.2385 10.284Z" fill="black"/>
</g>
<defs>
<clipPath id="clip0_201_66985">
<rect width="24" height="24" fill="white"/>
</clipPath>
</defs>
</svg>
