<svg width="24" height="24" viewBox="0 0 24 24" fill="none" xmlns="http://www.w3.org/2000/svg">
<g clip-path="url(#clip0_201_66987)">
<path d="M21.75 0H2.25C1.0125 0 0 1.0125 0 2.25V21.75C0 22.9875 1.0125 24 2.25 24H21.75C22.9875 24 24 22.9875 24 21.75V2.25C24 1.0125 22.9875 0 21.75 0ZM12.1785 21C7.2045 21 3.1785 16.974 3.1785 12C3.1785 7.026 7.2045 3 12.1785 3C14.607 3 16.641 3.8865 18.207 5.3535L15.765 7.707C15.0945 7.065 13.9275 6.3195 12.1785 6.3195C9.1035 6.3195 6.6 8.865 6.6 12C6.6 15.135 9.108 17.6805 12.1785 17.6805C15.741 17.6805 17.0775 15.1215 17.283 13.7985H12.1785V10.7145H20.6775C20.7525 11.1645 20.8185 11.6145 20.8185 12.2055C20.823 17.3475 17.3775 21 12.18 21H12.1785Z" fill="black"/>
</g>
<defs>
<clipPath id="clip0_201_66987">
<rect width="24" height="24" fill="white"/>
</clipPath>
</defs>
</svg>
