<svg width="24" height="24" viewBox="0 0 24 24" fill="none" xmlns="http://www.w3.org/2000/svg">
<path d="M7.6365 10.7205V13.341H11.9685C11.7945 14.466 10.6605 16.6365 7.6365 16.6365C5.031 16.6365 2.9025 14.475 2.9025 11.8125C2.9025 9.15001 5.031 6.98851 7.6365 6.98851C9.123 6.98851 10.1115 7.62151 10.6785 8.16451L12.75 6.16801C11.418 4.92601 9.6945 4.17151 7.6365 4.17151C3.4125 4.17601 0 7.58851 0 11.8125C0 16.0365 3.4125 19.449 7.6365 19.449C12.042 19.449 14.9685 16.35 14.9685 11.9865C14.9685 11.4855 14.913 11.1 14.847 10.7205H7.638H7.6365Z" fill="black"/>
<path d="M24 10.5H21.75V8.25H19.5V10.5H17.25V12.75H19.5V15H21.75V12.75H24V10.5Z" fill="black"/>
</svg>
