<svg width="24" height="24" viewBox="0 0 24 24" fill="none" xmlns="http://www.w3.org/2000/svg">
<g clip-path="url(#clip0_201_66994)">
<path d="M21.75 0H2.25C1.0125 0 0 1.0125 0 2.25V21.75C0 22.9875 1.0125 24 2.25 24H21.75C22.9875 24 24 22.9875 24 21.75V2.25C24 1.0125 22.9875 0 21.75 0ZM9 18C5.682 18 3 15.3195 3 12C3 8.6805 5.682 6 9 6C10.6215 6 11.976 6.591 13.0215 7.5705L11.3895 9.1365C10.944 8.7105 10.1655 8.2125 8.9985 8.2125C6.9495 8.2125 5.277 9.909 5.277 12C5.277 14.091 6.951 15.7875 8.9985 15.7875C11.3745 15.7875 12.2655 14.082 12.402 13.2H8.9985V11.142H14.6655C14.7165 11.442 14.76 11.742 14.76 12.1365C14.76 15.567 12.4635 18 8.9985 18H9ZM21 12H19.5V13.5H18V12H16.5V10.5H18V9H19.5V10.5H21V12Z" fill="black"/>
</g>
<defs>
<clipPath id="clip0_201_66994">
<rect width="24" height="24" fill="white"/>
</clipPath>
</defs>
</svg>
