<svg width="24" height="24" viewBox="0 0 24 24" fill="none" xmlns="http://www.w3.org/2000/svg">
<g clip-path="url(#clip0_201_66996)">
<path d="M12 0C5.3715 0 0 5.3715 0 12C0 18.6285 5.3715 24 12 24C18.6285 24 24 18.6285 24 12C24 5.3715 18.6285 0 12 0ZM9 18C5.682 18 3 15.3195 3 12C3 8.6805 5.682 6 9 6C10.6215 6 11.976 6.591 13.0215 7.5705L11.3895 9.1365C10.944 8.7105 10.1655 8.2125 8.9985 8.2125C6.9495 8.2125 5.277 9.909 5.277 12C5.277 14.091 6.951 15.7875 8.9985 15.7875C11.3745 15.7875 12.2655 14.082 12.402 13.2H8.9985V11.142H14.6655C14.7165 11.442 14.76 11.742 14.76 12.1365C14.76 15.567 12.4635 18 8.9985 18H9ZM19.5 12V13.5H18V12H16.5V10.5H18V9H19.5V10.5H21V12H19.5Z" fill="black"/>
</g>
<defs>
<clipPath id="clip0_201_66996">
<rect width="24" height="24" fill="white"/>
</clipPath>
</defs>
</svg>
