<svg width="24" height="24" viewBox="0 0 24 24" fill="none" xmlns="http://www.w3.org/2000/svg">
<g clip-path="url(#clip0_201_67006)">
<path d="M21.75 0H2.25C1.0125 0 0 1.0125 0 2.25V21.75C0 22.9875 1.0125 24 2.25 24H12V13.5H9V10.5H12V9C12 6.5205 14.0205 4.5 16.5 4.5H19.5V7.5H16.5C15.675 7.5 15 8.175 15 9V10.5H19.5L18.75 13.5H15V24H21.75C22.9875 24 24 22.9875 24 21.75V2.25C24 1.0125 22.9875 0 21.75 0Z" fill="black"/>
</g>
<defs>
<clipPath id="clip0_201_67006">
<rect width="24" height="24" fill="white"/>
</clipPath>
</defs>
</svg>
