<svg width="24" height="24" viewBox="0 0 24 24" fill="none" xmlns="http://www.w3.org/2000/svg">
<g clip-path="url(#clip0_201_67008)">
<path d="M21.75 0H2.25C1.0125 0 0 1.0125 0 2.25V21.75C0 22.9875 1.0125 24 2.25 24H21.75C22.9875 24 24 22.9875 24 21.75V2.25C24 1.0125 22.9875 0 21.75 0ZM16.5 3.75C16.5 3.3375 16.8375 3 17.25 3H20.25C20.6625 3 21 3.3375 21 3.75V6.75C21 7.1625 20.6625 7.5 20.25 7.5H17.25C16.8375 7.5 16.5 7.1625 16.5 6.75V3.75ZM12 7.5C14.484 7.5 16.5 9.516 16.5 12C16.5 14.484 14.484 16.5 12 16.5C9.516 16.5 7.5 14.484 7.5 12C7.5 9.516 9.516 7.5 12 7.5ZM21 20.25C21 20.6625 20.6625 21 20.25 21H3.75C3.3375 21 3 20.6625 3 20.25V10.5H4.65C4.551 10.983 4.5 11.484 4.5 12C4.5 16.143 7.8555 19.5 12 19.5C16.1445 19.5 19.5 16.143 19.5 12C19.5 11.484 19.449 10.983 19.35 10.5H21V20.25Z" fill="black"/>
</g>
<defs>
<clipPath id="clip0_201_67008">
<rect width="24" height="24" fill="white"/>
</clipPath>
</defs>
</svg>
