<svg width="24" height="24" viewBox="0 0 24 24" fill="none" xmlns="http://www.w3.org/2000/svg">
<g clip-path="url(#clip0_201_67010)">
<path d="M20.4615 3.4875C18.216 1.2375 15.2295 0 12.048 0C5.4945 0 0.160501 5.334 0.160501 11.892C0.160501 13.9875 0.709501 16.0365 1.749 17.8365L0.0615005 24L6.366 22.3455C8.1045 23.292 10.0605 23.7945 12.0465 23.7945H12.051C18.6045 23.7945 23.943 18.4605 23.943 11.9025C23.943 8.724 22.7055 5.739 20.46 3.489L20.4615 3.4875ZM12.051 21.7875C10.275 21.7875 8.535 21.309 7.017 20.409L6.6555 20.193L2.9145 21.1725L3.9135 17.526L3.6795 17.151C2.685 15.5805 2.166 13.7625 2.166 11.892C2.166 6.441 6.6 2.0055 12.057 2.0055C14.6955 2.0055 17.181 3.0375 19.0455 4.902C20.9115 6.7725 21.9375 9.252 21.9375 11.895C21.933 17.3505 17.499 21.786 12.051 21.786V21.7875ZM17.4705 14.382C17.175 14.232 15.7125 13.515 15.441 13.416C15.1695 13.317 14.9715 13.266 14.7705 13.566C14.574 13.8615 14.0025 14.532 13.8285 14.733C13.6545 14.9295 13.482 14.958 13.1865 14.808C12.891 14.658 11.9295 14.3445 10.7955 13.332C9.9135 12.5445 9.315 11.5695 9.141 11.274C8.967 10.9785 9.1215 10.815 9.273 10.6695C9.4095 10.5375 9.5685 10.323 9.7185 10.149C9.8685 9.975 9.915 9.8535 10.014 9.6525C10.113 9.456 10.065 9.282 9.99 9.132C9.915 8.982 9.3195 7.5195 9.0765 6.924C8.838 6.342 8.589 6.423 8.406 6.4125C8.232 6.4035 8.0355 6.4035 7.839 6.4035C7.6425 6.4035 7.3185 6.4785 7.047 6.774C6.7755 7.0695 6.006 7.791 6.006 9.2535C6.006 10.716 7.0695 12.1275 7.2195 12.3285C7.3695 12.525 9.315 15.5295 12.2955 16.815C13.0035 17.1195 13.557 17.3025 13.9875 17.4435C14.7 17.6685 15.3465 17.6355 15.858 17.5605C16.4295 17.4765 17.616 16.8435 17.865 16.149C18.114 15.4545 18.114 14.8605 18.039 14.7375C17.9685 14.6055 17.772 14.532 17.472 14.3805L17.4705 14.382Z" fill="black"/>
</g>
<defs>
<clipPath id="clip0_201_67010">
<rect width="24" height="24" fill="white"/>
</clipPath>
</defs>
</svg>
