<svg width="24" height="24" viewBox="0 0 24 24" fill="none" xmlns="http://www.w3.org/2000/svg">
<g clip-path="url(#clip0_201_67014)">
<path d="M12 0C5.3715 0 0 5.3715 0 12C0 18.6285 5.3715 24 12 24C18.6285 24 24 18.6285 24 12C24 5.3715 18.6285 0 12 0ZM17.8965 8.226L15.927 17.502C15.7905 18.1635 15.393 18.318 14.8395 18.0135L11.8395 15.7965L10.401 17.1975C10.233 17.361 10.101 17.4975 9.801 17.4975C9.4125 17.4975 9.477 17.352 9.3465 16.9815L8.325 13.626L5.358 12.702C4.716 12.5055 4.7115 12.0645 5.5035 11.751L17.0625 7.2885C17.5875 7.05 18.099 7.4145 17.8965 8.226Z" fill="black"/>
</g>
<defs>
<clipPath id="clip0_201_67014">
<rect width="24" height="24" fill="white"/>
</clipPath>
</defs>
</svg>
