<svg width="24" height="24" viewBox="0 0 24 24" fill="none" xmlns="http://www.w3.org/2000/svg">
<g clip-path="url(#clip0_201_67016)">
<path d="M24 5.30703C23.118 5.70153 22.167 5.96403 21.174 6.08103C22.191 5.47203 22.9695 4.50603 23.34 3.35703C22.389 3.91953 21.333 4.33203 20.214 4.55253C19.314 3.59553 18.0345 3.00153 16.6185 3.00153C13.899 3.00153 11.697 5.20503 11.697 7.92303C11.697 8.30703 11.739 8.68203 11.823 9.04353C7.73099 8.83653 4.10249 6.87753 1.67399 3.89703C1.25249 4.62303 1.00799 5.47203 1.00799 6.37203C1.00799 8.07903 1.87499 9.58803 3.19649 10.4685C2.38949 10.4445 1.63049 10.2195 0.964488 9.85503C0.964488 9.87453 0.964488 9.89703 0.964488 9.91653C0.964488 12.303 2.66099 14.295 4.91549 14.745C4.50299 14.8575 4.06649 14.919 3.61649 14.919C3.29849 14.919 2.99249 14.886 2.68799 14.8305C3.31649 16.785 5.13449 18.21 7.28699 18.252C5.59949 19.5735 3.47999 20.361 1.16999 20.361C0.770988 20.361 0.382488 20.337 -0.00601196 20.2905C2.17799 21.6915 4.76549 22.503 7.54499 22.503C16.6005 22.503 21.5565 14.9985 21.5565 8.49153C21.5565 8.27553 21.552 8.06553 21.543 7.85403C22.5045 7.16553 23.3385 6.29703 23.9985 5.30853L24 5.30703Z" fill="black"/>
</g>
<defs>
<clipPath id="clip0_201_67016">
<rect width="24" height="24" fill="white"/>
</clipPath>
</defs>
</svg>
