<svg width="24" height="24" viewBox="0 0 24 24" fill="none" xmlns="http://www.w3.org/2000/svg">
<g clip-path="url(#clip0_201_67018)">
<path d="M22.518 11.9295C21.9 12.0705 21.3045 12.135 20.7645 12.135C17.736 12.135 15.4065 10.0215 15.4065 6.342C15.4065 4.5375 16.1055 3.6045 17.0895 3.6045C18.027 3.6045 18.651 4.443 18.651 6.15C18.651 7.1205 18.393 8.184 18.201 8.8125C18.201 8.8125 19.134 10.4385 21.684 9.942C22.2285 8.7375 22.518 7.1805 22.518 5.817C22.518 2.142 20.643 0 17.2065 0C13.6725 0 11.6055 2.7135 11.6055 6.2955C11.6055 9.8445 13.2645 12.8865 15.9975 14.274C14.8485 16.575 13.386 18.6 11.859 20.1285C9.093 16.782 6.5895 12.3195 5.5635 3.6045H1.4805C3.369 18.117 8.9895 22.7385 10.4805 23.625C11.319 24.1305 12.0465 24.108 12.8145 23.6715C14.0235 22.9875 17.6475 19.359 19.659 15.117C20.5035 15.117 21.516 15.018 22.5225 14.7885V11.9295H22.518Z" fill="black"/>
</g>
<defs>
<clipPath id="clip0_201_67018">
<rect width="24" height="24" fill="white"/>
</clipPath>
</defs>
</svg>
