<svg width="24" height="24" viewBox="0 0 24 24" fill="none" xmlns="http://www.w3.org/2000/svg">
<g clip-path="url(#clip0_201_67022)">
<path d="M9.966 0.248998C4.3125 1.2 0 6.1185 0 12.042C0 14.9865 1.0695 17.6805 2.8305 19.767C7.017 17.742 9.9465 13.158 9.9645 7.818V0.247498L9.966 0.248998Z" fill="black"/>
<path d="M14.034 0.248998C19.6875 1.2 24 6.1185 24 12.042C24 14.9865 22.9305 17.6805 21.1695 19.767C16.983 17.742 14.0535 13.158 14.0355 7.818V0.247498L14.034 0.248998Z" fill="black"/>
<path d="M11.958 15.0615C11.2125 18.1455 8.9865 20.781 6.216 22.533C7.923 23.466 9.8775 24 11.958 24C14.0385 24 15.9945 23.466 17.7 22.533C14.9295 20.7795 12.7035 18.1455 11.958 15.0615Z" fill="black"/>
</g>
<defs>
<clipPath id="clip0_201_67022">
<rect width="24" height="24" fill="white"/>
</clipPath>
</defs>
</svg>
