<svg width="24" height="24" viewBox="0 0 24 24" fill="none" xmlns="http://www.w3.org/2000/svg">
<g clip-path="url(#clip0_201_67026)">
<path d="M10.083 21.0465C6.108 21.4395 2.676 19.6395 2.4195 17.034C2.1615 14.4225 5.175 11.9955 9.1455 11.601C13.1205 11.2065 16.5525 13.008 16.8045 15.6135C17.067 18.225 14.0535 20.6565 10.083 21.0465ZM18.0285 12.3885C17.691 12.285 17.457 12.219 17.6355 11.775C18.0195 10.809 18.057 9.97951 17.64 9.38401C16.8615 8.27251 14.7285 8.32951 12.2865 9.35551C12.2865 9.35551 11.517 9.68851 11.715 9.08401C12.09 7.87501 12.0345 6.86701 11.448 6.28051C10.122 4.95451 6.597 6.33151 3.573 9.35551C1.314 11.61 0.00149536 14.0145 0.00149536 16.092C0.00149536 20.058 5.0925 22.4715 10.071 22.4715C16.596 22.4715 20.9415 18.6795 20.9415 15.6705C20.9415 13.8465 19.4085 12.816 18.03 12.3885H18.0285Z" fill="black"/>
<path d="M22.3635 5.12399C20.7885 3.37499 18.4635 2.71049 16.317 3.16499C15.8205 3.27299 15.5055 3.76049 15.6135 4.25249C15.7215 4.74899 16.2045 5.06399 16.701 4.95599C18.2295 4.63199 19.8795 5.10599 21 6.34799C22.1205 7.58999 22.425 9.28199 21.942 10.764C21.7875 11.247 22.05 11.763 22.533 11.922C23.016 12.0765 23.532 11.814 23.691 11.331V11.3265C24.366 9.25499 23.94 6.87299 22.365 5.12549L22.3635 5.12399Z" fill="black"/>
<path d="M19.941 7.31249C19.173 6.45899 18.0375 6.13649 16.9965 6.36149C16.5705 6.44999 16.2975 6.87749 16.3875 7.30349C16.482 7.72949 16.9035 8.00249 17.325 7.90798C17.8365 7.79998 18.3885 7.95898 18.7635 8.37148C19.1385 8.78849 19.242 9.35549 19.077 9.85199C18.945 10.2645 19.1715 10.7145 19.5885 10.851C20.0055 10.983 20.451 10.7565 20.5875 10.3395C20.916 9.32249 20.709 8.15999 19.941 7.31099V7.31249Z" fill="black"/>
<path d="M10.3035 16.326C10.1625 16.5645 9.858 16.677 9.6195 16.5795C9.381 16.485 9.3105 16.2135 9.4455 15.984C9.5865 15.7545 9.882 15.642 10.116 15.7305C10.35 15.8145 10.4355 16.0815 10.3035 16.326ZM9.033 17.949C8.649 18.5625 7.824 18.831 7.2045 18.549C6.5955 18.273 6.4125 17.5605 6.7965 16.9605C7.176 16.365 7.9725 16.098 8.5875 16.356C9.2115 16.623 9.4125 17.331 9.033 17.9505V17.949ZM10.476 13.608C8.5875 13.116 6.45 14.058 5.6295 15.7215C4.791 17.418 5.601 19.308 7.509 19.926C9.4875 20.5635 11.8215 19.584 12.633 17.7555C13.434 15.96 12.4365 14.118 10.476 13.6065V13.608Z" fill="black"/>
</g>
<defs>
<clipPath id="clip0_201_67026">
<rect width="24" height="24" fill="white"/>
</clipPath>
</defs>
</svg>
