<svg width="24" height="24" viewBox="0 0 24 24" fill="none" xmlns="http://www.w3.org/2000/svg">
<g clip-path="url(#clip0_201_67031)">
<path d="M3.195 17.5995C1.4325 17.5995 0 19.0365 0 20.7885C0 22.5495 1.4325 23.9715 3.195 23.9715C4.9635 23.9715 6.3945 22.5495 6.3945 20.7885C6.3945 19.0365 4.9635 17.5995 3.195 17.5995ZM0.003 8.154V12.7545C2.9985 12.7545 5.814 13.926 7.935 16.0485C10.053 18.165 11.223 20.994 11.223 24.0015H15.843C15.843 15.264 8.7345 8.1555 0.003 8.1555V8.154ZM0.009 0V4.602C10.692 4.602 19.386 13.305 19.386 24H24C24 10.77 13.236 0 0.009 0Z" fill="black"/>
</g>
<defs>
<clipPath id="clip0_201_67031">
<rect width="24" height="24" fill="white"/>
</clipPath>
</defs>
</svg>
