<svg width="24" height="24" viewBox="0 0 24 24" fill="none" xmlns="http://www.w3.org/2000/svg">
<g clip-path="url(#clip0_201_67033)">
<path d="M21.75 0H2.25C1.0125 0 0 1.0125 0 2.25V21.75C0 22.9875 1.0125 24 2.25 24H21.75C22.9875 24 24 22.9875 24 21.75V2.25C24 1.0125 22.9875 0 21.75 0ZM6.5385 19.482C5.4135 19.482 4.5 18.5775 4.5 17.4525C4.5 16.3365 5.4135 15.4185 6.5385 15.4185C7.668 15.4185 8.577 16.338 8.577 17.4525C8.577 18.5775 7.6635 19.482 6.5385 19.482ZM11.658 19.5C11.658 17.583 10.9125 15.7785 9.5625 14.4285C8.208 13.074 6.4125 12.3285 4.5 12.3285V9.3945C10.0695 9.3945 14.607 13.9275 14.607 19.5H11.658ZM16.866 19.5C16.866 12.6795 11.3205 7.125 4.5045 7.125V4.191C12.942 4.191 19.809 11.0625 19.809 19.5H16.8645H16.866Z" fill="black"/>
</g>
<defs>
<clipPath id="clip0_201_67033">
<rect width="24" height="24" fill="white"/>
</clipPath>
</defs>
</svg>
