<svg width="24" height="24" viewBox="0 0 24 24" fill="none" xmlns="http://www.w3.org/2000/svg">
<g clip-path="url(#clip0_201_67037)">
<path d="M3.225 3.97049C3.2268 3.94949 3.228 3.93599 3.2286 3.92849L3.2382 3.75149L2.7942 3.74549C2.3934 3.73949 2.2704 3.74549 2.2596 3.77099C2.2542 3.78299 2.1156 5.09849 1.869 7.48049C1.7514 8.61749 1.6524 9.52499 1.6488 9.49799C1.6452 9.47099 1.5048 8.17349 1.3356 6.61499C1.167 5.05649 1.0254 3.77399 1.0212 3.76349C1.0152 3.74849 0.477599 3.74249 0.0419995 3.75149C-0.0210005 3.75299 -0.0564005 3.44399 0.604799 8.69999C0.695999 9.42749 0.833399 10.458 0.908999 10.989C0.996599 11.601 1.059 12.075 1.1016 12.4695C1.1772 13.221 1.1796 13.692 1.1634 14.2425C1.1442 14.877 1.1418 19.362 1.1604 19.437C1.1748 19.494 2.0154 19.521 2.0952 19.467C2.1078 19.458 2.1162 19.428 2.1222 19.2585C2.142 19.113 2.1438 18.5325 2.1438 16.1235V13.047L2.1978 12.6225C2.2332 12.345 2.3214 11.6145 2.3946 10.9995C2.4678 10.3845 2.556 9.64949 2.5908 9.36449C2.9082 6.77849 3.2106 4.23599 3.219 4.09049L3.2256 3.97199L3.225 3.97049Z" fill="black"/>
<path d="M7.9326 7.70246V7.86296H7.9224L7.917 12.2925L7.9116 16.587L7.7742 16.9365C7.62 17.328 7.497 17.478 7.3854 17.4075C7.2636 17.331 7.2672 17.4495 7.257 12.3735L7.2474 7.70096H6.363V7.86146H6.3528V12.9315C6.3528 18.363 6.3528 18.36 6.4632 18.9045C6.5508 19.3395 6.6792 19.551 6.8982 19.623C7.1868 19.719 7.4982 19.392 7.7868 18.69L7.9122 18.3855V18.912C7.9122 19.3665 7.9176 19.4415 7.9506 19.464C8.0046 19.5015 8.6742 19.5045 8.7462 19.467L8.8062 19.4355V19.2795L8.8164 19.275V7.67096L7.9332 7.70096L7.9326 7.70246Z" fill="black"/>
<path d="M5.6898 9.9915C5.6058 9.093 5.4492 8.4885 5.1906 8.0715C4.785 7.416 4.3212 7.3455 3.8916 7.8765C3.5784 8.2635 3.3762 8.9055 3.2724 9.8475C3.2598 9.96 3.2508 10.0545 3.2442 10.194C3.2178 10.527 3.2148 11.022 3.2076 13.3335C3.1968 16.8945 3.2136 17.3175 3.3918 18.126C3.567 18.9195 3.93 19.5015 4.3254 19.6215C4.4442 19.6575 4.6854 19.602 4.8246 19.5045C5.1396 19.2855 5.442 18.663 5.5758 17.9565C5.6334 17.6505 5.6682 17.439 5.6892 17.0505C5.7282 16.521 5.7312 15.663 5.7312 13.479C5.7312 10.6935 5.7276 10.389 5.6904 9.99L5.6898 9.9915ZM4.6812 17.25C4.6068 17.391 4.4772 17.4525 4.3722 17.397C4.2912 17.3535 4.1814 17.0355 4.1478 16.746C4.1058 16.3845 4.1028 11.355 4.1388 10.3695C4.1988 9.876 4.3656 9.618 4.548 9.741C4.6902 9.837 4.7628 10.059 4.8042 10.5255C4.8348 10.872 4.8384 11.3025 4.8318 13.836C4.8276 15.516 4.8252 16.338 4.803 16.779C4.7808 17.0565 4.7436 17.1315 4.6812 17.2515V17.25Z" fill="black"/>
<path d="M21.5664 12.519H21.9936L21.987 11.5515C21.9804 10.6635 21.975 10.563 21.9276 10.3215C21.8526 9.94196 21.7422 9.77246 21.567 9.77246C21.3564 9.77246 21.2232 10.0275 21.1602 10.5495C21.1332 10.7715 21.105 12.3 21.1254 12.432C21.1368 12.5055 21.198 12.519 21.5664 12.519Z" fill="black"/>
<path d="M18.7104 10.3185C18.6534 10.032 18.5472 9.88952 18.4242 9.90152C18.3282 9.91052 18.222 10.011 18.1194 10.206L18.0432 10.3515V17.3025L18.1194 17.448C18.2922 17.778 18.4818 17.847 18.6126 17.628C18.6642 17.541 18.6978 17.4225 18.7242 17.2335C18.7584 16.9875 18.7614 16.671 18.7572 13.746C18.7524 10.698 18.75 10.518 18.7104 10.3185Z" fill="black"/>
<path d="M24.0084 7.18712C23.9232 4.63562 23.8554 3.80762 23.6454 2.74412C23.3664 1.33562 22.9638 0.593125 22.3902 0.429625C21.9468 0.303625 20.2776 0.125125 18.7338 0.039625C16.0602 -0.108875 11.6646 0.177625 11.103 0.536125C10.8438 0.702625 10.6488 0.984625 10.4466 1.48712C10.092 2.36912 9.8802 3.63512 9.7956 5.38712C9.6018 9.38612 9.5976 14.2161 9.7842 18.3606C9.8646 20.1426 10.0302 21.3006 10.341 22.2546C10.5348 22.8501 10.8696 23.3556 11.1684 23.5071C11.3784 23.6136 12.4284 23.7606 13.9584 23.8971C14.1864 23.9181 14.7894 23.9526 15.2994 23.9751C16.3614 24.0216 18.3144 23.9946 19.431 23.9166C20.1822 23.8641 21.5514 23.7246 21.8076 23.6751C21.8796 23.6616 22.0464 23.6346 22.1784 23.6166C22.6218 23.5536 22.9038 23.3226 23.1684 22.8021C23.511 22.1286 23.7762 20.8851 23.8884 19.4256C23.9946 18.0456 24.0654 15.5871 24.0798 12.7956C24.0918 10.4631 24.0756 9.20612 24.0084 7.18412V7.18712ZM13.362 6.26312L12.8652 6.27812L12.8436 19.5231L12.4128 19.5366C12.0798 19.5486 11.9784 19.5351 11.9706 19.4826C11.9646 19.4451 11.958 16.4586 11.955 12.8466L11.9496 6.27812L10.9794 6.24812V4.17812L13.8468 4.20662L13.8588 6.24662L13.362 6.26162V6.26312ZM16.4082 13.8546V19.5501H15.6234V18.9501C15.6234 18.4986 15.6168 18.3501 15.5952 18.3501C15.5796 18.3501 15.5088 18.4986 15.4374 18.6801C15.282 19.0746 15.0984 19.3911 14.9412 19.5381C14.616 19.8426 14.3076 19.6641 14.1762 19.0986C14.0556 18.5811 14.0538 18.4641 14.0538 13.0911V8.15612H14.838L14.844 12.8031C14.85 17.3691 14.8506 17.4531 14.8944 17.6391C14.9526 17.8851 15.0408 17.9526 15.1812 17.8551C15.264 17.7981 15.3204 17.6976 15.4542 17.3646L15.6234 16.9446V8.15612H16.4082V13.8516V13.8546ZM19.4694 18.7371C19.4004 19.1226 19.2462 19.4991 19.1196 19.5921C18.7902 19.8351 18.5256 19.6371 18.2202 18.9186C18.1254 18.6951 18.0372 18.5151 18.024 18.5151C18.0078 18.5151 17.9994 18.6891 17.9994 19.0326V19.5501H17.2146V4.17812H17.9994V6.68612C17.9994 8.06462 18.0066 9.19412 18.0156 9.19412C18.0246 9.19412 18.1074 9.01112 18.1998 8.78912C18.4122 8.27762 18.5892 8.05262 18.8142 8.01062C19.2156 7.93412 19.455 8.45162 19.5642 9.63062C19.5984 9.99812 19.6014 10.4181 19.6014 13.8276C19.6014 17.9796 19.6014 17.9976 19.4688 18.7371H19.4694ZM22.7904 16.4571C22.7832 16.8846 22.7628 17.3751 22.7442 17.5476C22.635 18.5586 22.3446 19.2756 21.9246 19.5696C21.3594 19.9656 20.7366 19.3176 20.4882 18.0741C20.349 17.3766 20.3436 17.2371 20.3436 13.8276C20.3436 11.0481 20.3478 10.7061 20.3832 10.3266C20.484 9.25412 20.7336 8.55962 21.1566 8.17412C21.279 8.06312 21.4068 8.00462 21.5346 7.99862C21.9912 7.97462 22.4436 8.58812 22.6338 9.58712C22.7616 10.2606 22.7778 10.5501 22.7904 12.4491L22.8018 14.1531L21.1284 14.1816L21.1224 15.3261C21.1134 16.9416 21.1572 17.4381 21.3318 17.7306C21.4782 17.9781 21.7038 17.9586 21.8262 17.6901C21.9414 17.4381 21.9738 17.1666 21.9852 16.3746L21.9954 15.6801H22.8036L22.7904 16.4571Z" fill="black"/>
</g>
<defs>
<clipPath id="clip0_201_67037">
<rect width="24" height="24" fill="white"/>
</clipPath>
</defs>
</svg>
