<svg width="24" height="24" viewBox="0 0 24 24" fill="none" xmlns="http://www.w3.org/2000/svg">
<path d="M23.991 6.42148C23.883 8.75548 22.2525 11.958 19.0965 16.017C15.834 20.2545 13.0725 22.3785 10.8135 22.3785C9.41701 22.3785 8.23051 21.09 7.26451 18.507C6.61801 16.14 5.97601 13.773 5.32801 11.406C4.61101 8.82298 3.84151 7.53447 3.01651 7.53447C2.83801 7.53447 2.20951 7.91398 1.13251 8.66398L0.00300598 7.21048C1.18951 6.16948 2.35651 5.12848 3.50401 4.08897C5.08351 2.72547 6.27001 2.00847 7.06201 1.93197C8.92801 1.75347 10.0815 3.02847 10.512 5.76148C10.9755 8.71048 11.2995 10.5435 11.4825 11.2605C12.021 13.707 12.612 14.931 13.2585 14.931C13.7595 14.931 14.5155 14.139 15.522 12.549C16.5255 10.965 17.064 9.75597 17.139 8.92497C17.2845 7.55697 16.746 6.86698 15.522 6.86698C14.946 6.86698 14.355 6.99898 13.746 7.26148C14.9265 3.39897 17.1765 1.52397 20.505 1.63197C22.9665 1.69797 24.129 3.29547 23.988 6.42298L23.991 6.42148Z" fill="black"/>
</svg>
