<svg width="24" height="24" viewBox="0 0 24 24" fill="none" xmlns="http://www.w3.org/2000/svg">
<g clip-path="url(#clip0_201_67050)">
<path d="M21.75 0H2.25C1.0125 0 0 1.0125 0 2.25V21.75C0 22.9875 1.0125 24 2.25 24H21.75C22.9875 24 24 22.9875 24 21.75V2.25C24 1.0125 22.9875 0 21.75 0ZM20.1945 7.9695C20.1195 9.657 18.9375 11.9685 16.656 14.9025C14.298 17.9685 12.3015 19.5015 10.6695 19.5015C9.657 19.5015 8.8035 18.5685 8.106 16.7025C7.6365 14.991 7.173 13.281 6.705 11.5695C6.189 9.7035 5.631 8.7705 5.037 8.7705C4.9065 8.7705 4.4505 9.042 3.678 9.5865L2.862 8.5365C3.72 7.7865 4.563 7.032 5.3925 6.282C6.537 5.298 7.389 4.7775 7.9605 4.725C9.3105 4.5945 10.14 5.517 10.4535 7.491C10.791 9.624 11.025 10.9455 11.157 11.466C11.5455 13.233 11.973 14.115 12.441 14.115C12.8025 14.115 13.35 13.5435 14.0775 12.3945C14.805 11.2455 15.1935 10.374 15.2445 9.774C15.348 8.7855 14.958 8.2875 14.0775 8.2875C13.6605 8.2875 13.233 8.382 12.7935 8.574C13.647 5.7855 15.273 4.425 17.6775 4.506C19.4595 4.557 20.298 5.7105 20.1945 7.9695Z" fill="black"/>
</g>
<defs>
<clipPath id="clip0_201_67050">
<rect width="24" height="24" fill="white"/>
</clipPath>
</defs>
</svg>
