<svg width="24" height="24" viewBox="0 0 24 24" fill="none" xmlns="http://www.w3.org/2000/svg">
<g clip-path="url(#clip0_201_67052)">
<path d="M21.75 0H2.25C1.0125 0 0 1.0125 0 2.25V21.75C0 22.9875 1.0125 24 2.25 24H21.75C22.9875 24 24 22.9875 24 21.75V2.25C24 1.0125 22.9875 0 21.75 0ZM19.275 18.018L11.109 20.6895C9.243 21.2985 9.0555 21.201 8.2125 18.5895L6.15 12.201C5.658 10.6875 4.158 6.609 3.9045 5.826C3.435 4.3725 3.435 4.293 6.1785 3.402C8.325 2.6985 8.415 2.7225 9.192 5.1465C9.8205 7.0965 10.224 8.6715 10.8705 10.6635L12.6285 16.101L18.2445 14.2635C19.3515 13.8975 19.7205 13.917 20.0355 15.2805L20.2605 16.3125C20.523 17.508 19.9185 17.8125 19.2765 18.018H19.275Z" fill="black"/>
</g>
<defs>
<clipPath id="clip0_201_67052">
<rect width="24" height="24" fill="white"/>
</clipPath>
</defs>
</svg>
