<svg width="24" height="24" viewBox="0 0 24 24" fill="none" xmlns="http://www.w3.org/2000/svg">
<g clip-path="url(#clip0_201_67058)">
<path d="M21.75 0H2.25C1.0125 0 0 1.0125 0 2.25V21.75C0 22.9875 1.0125 24 2.25 24H21.75C22.9875 24 24 22.9875 24 21.75V2.25C24 1.0125 22.9875 0 21.75 0ZM6.75 15.75C4.6785 15.75 3 14.0715 3 12C3 9.9285 4.6785 8.25 6.75 8.25C8.8215 8.25 10.5 9.9285 10.5 12C10.5 14.0715 8.8215 15.75 6.75 15.75ZM17.25 15.75C15.1785 15.75 13.5 14.0715 13.5 12C13.5 9.9285 15.1785 8.25 17.25 8.25C19.3215 8.25 21 9.9285 21 12C21 14.0715 19.3215 15.75 17.25 15.75Z" fill="black"/>
</g>
<defs>
<clipPath id="clip0_201_67058">
<rect width="24" height="24" fill="white"/>
</clipPath>
</defs>
</svg>
