<svg width="24" height="24" viewBox="0 0 24 24" fill="none" xmlns="http://www.w3.org/2000/svg">
<g clip-path="url(#clip0_201_67062)">
<path d="M12 24C5.382 24 0 18.618 0 12C0 5.382 5.3805 0 12 0C18.618 0 24 5.3805 24 12C24 18.6195 18.618 24 12 24ZM22.1205 13.641C21.7695 13.5285 18.9465 12.69 15.7365 13.2045C17.0775 16.8885 17.6205 19.8885 17.7285 20.5125C20.025 18.957 21.666 16.4955 22.1205 13.641ZM16.0035 21.45C15.849 20.55 15.258 17.418 13.8195 13.6785C13.7955 13.6875 13.773 13.692 13.7535 13.7025C7.9695 15.7185 5.892 19.7265 5.7105 20.1015C7.449 21.456 9.6345 22.2675 12.0015 22.2675C13.422 22.2675 14.7765 21.9765 16.005 21.4515L16.0035 21.45ZM4.383 18.867C4.617 18.468 7.4295 13.8135 12.7125 12.1035C12.8445 12.0615 12.9795 12.0195 13.116 11.982C12.858 11.4 12.5775 10.815 12.2865 10.2435C7.173 11.7765 2.2035 11.7105 1.7535 11.706C1.749 11.8095 1.749 11.913 1.749 12.0195C1.749 14.649 2.748 17.0535 4.383 18.8685V18.867ZM1.9695 9.9135C2.4285 9.918 6.6525 9.9375 11.448 8.667C9.7515 5.6475 7.9185 3.108 7.647 2.7375C4.7775 4.092 2.631 6.7365 1.971 9.9135H1.9695ZM9.6 2.049C9.882 2.4285 11.7465 4.965 13.425 8.049C17.0715 6.6855 18.6135 4.608 18.7965 4.3455C16.9875 2.7375 14.6055 1.7625 12 1.7625C11.175 1.767 10.368 1.866 9.6 2.049ZM19.9365 5.5365C19.7205 5.8275 18 8.031 14.2125 9.5775C14.451 10.065 14.682 10.5615 14.892 11.064C14.967 11.2425 15.042 11.415 15.1125 11.5935C18.525 11.1675 21.9135 11.8515 22.251 11.922C22.227 9.504 21.36 7.281 19.935 5.538L19.9365 5.5365Z" fill="black"/>
</g>
<defs>
<clipPath id="clip0_201_67062">
<rect width="24" height="24" fill="white"/>
</clipPath>
</defs>
</svg>
