<svg width="24" height="24" viewBox="0 0 24 24" fill="none" xmlns="http://www.w3.org/2000/svg">
<g clip-path="url(#clip0_201_67064)">
<path d="M6.9615 4.80902C7.6695 4.80902 8.307 4.87052 8.8875 4.99652C9.4695 5.11802 9.9615 5.32502 10.3785 5.60552C10.791 5.88752 11.109 6.26252 11.3445 6.73052C11.5695 7.19402 11.682 7.77602 11.682 8.46452C11.682 9.21002 11.514 9.82802 11.175 10.326C10.833 10.8225 10.3365 11.226 9.6705 11.5455C10.5795 11.808 11.25 12.267 11.7 12.9195C12.15 13.5765 12.366 14.364 12.366 15.291C12.366 16.041 12.2205 16.683 11.9355 17.2275C11.6445 17.7765 11.2515 18.2205 10.7685 18.564C10.281 18.9105 9.7185 19.164 9.09 19.3275C8.466 19.491 7.824 19.5765 7.1595 19.5765H0.00150299V4.81052H6.963L6.9615 4.80902ZM6.5385 10.7715C7.1145 10.7715 7.593 10.635 7.968 10.359C8.343 10.0875 8.5215 9.63752 8.5215 9.01802C8.5215 8.67602 8.46 8.38952 8.3385 8.16902C8.2125 7.94852 8.0475 7.77452 7.8375 7.65302C7.6305 7.52702 7.3965 7.44152 7.1205 7.39502C6.8535 7.34402 6.5715 7.32002 6.2865 7.32002H3.249V10.77H6.54L6.5385 10.7715ZM6.717 17.058C7.0365 17.058 7.341 17.0295 7.626 16.9635C7.917 16.8975 8.175 16.8 8.3895 16.65C8.6055 16.5045 8.7885 16.3125 8.919 16.059C9.051 15.81 9.111 15.492 9.111 15.1035C9.111 14.3445 8.895 13.8 8.469 13.4715C8.043 13.1475 7.476 12.9885 6.7725 12.9885H3.2475V17.052H6.717V17.058Z" fill="black"/>
<path d="M16.9965 17.007C17.4375 17.4375 18.0705 17.6535 18.8955 17.6535C19.4865 17.6535 20.0025 17.5035 20.4285 17.2035C20.8545 16.9035 21.1125 16.5855 21.2115 16.257H23.799C23.382 17.5455 22.7535 18.4605 21.891 19.014C21.042 19.5675 20.0025 19.848 18.7965 19.848C17.952 19.848 17.1975 19.7115 16.518 19.4445C15.8385 19.173 15.2715 18.7935 14.793 18.2955C14.3295 17.799 13.9635 17.208 13.7055 16.5135C13.452 15.825 13.3215 15.06 13.3215 14.235C13.3215 13.434 13.4535 12.6885 13.7145 11.9985C13.9815 11.304 14.3475 10.71 14.835 10.2075C15.3225 9.70496 15.894 9.30746 16.569 9.01646C17.2395 8.72546 17.9805 8.57996 18.801 8.57996C19.7055 8.57996 20.4975 8.75396 21.177 9.10946C21.852 9.46046 22.41 9.93446 22.8465 10.5255C23.283 11.1165 23.592 11.796 23.784 12.555C23.976 13.314 24.042 14.106 23.9895 14.937H16.269C16.269 15.7755 16.551 16.578 16.995 17.004L16.9965 17.007ZM20.367 11.391C20.0205 11.007 19.425 10.7955 18.708 10.7955C18.2385 10.7955 17.85 10.875 17.541 11.034C17.2365 11.193 16.9875 11.3895 16.7955 11.625C16.608 11.859 16.476 12.1125 16.4025 12.3795C16.3275 12.6375 16.281 12.876 16.266 13.083H21.048C20.9775 12.333 20.7195 11.7795 20.3685 11.391H20.367Z" fill="black"/>
<path d="M15.666 6H21.6525V7.458H15.666V6Z" fill="black"/>
</g>
<defs>
<clipPath id="clip0_201_67064">
<rect width="24" height="24" fill="white"/>
</clipPath>
</defs>
</svg>
