<svg width="24" height="24" viewBox="0 0 24 24" fill="none" xmlns="http://www.w3.org/2000/svg">
<g clip-path="url(#clip0_201_67075)">
<path d="M5.9295 15.768C5.934 15.7815 6.0615 16.125 6.1305 16.2975C6.525 17.2305 7.092 18.0735 7.8135 18.7965C8.535 19.5195 9.375 20.085 10.3125 20.4795C11.283 20.8875 12.309 21.0975 13.368 21.0975C14.427 21.0975 15.459 20.892 16.4235 20.4795C17.361 20.0865 18.1995 19.518 18.9225 18.7965C19.6455 18.075 20.211 17.235 20.6055 16.2975C21.0135 15.327 21.2235 14.301 21.2235 13.242C21.2235 12.183 21.018 11.151 20.6055 10.1865C20.2125 9.24899 19.644 8.41049 18.9225 7.68749C18.201 6.96449 17.361 6.39899 16.4235 6.00449C15.453 5.59649 14.427 5.38499 13.368 5.38499C12.294 5.38499 11.2215 5.60099 10.269 6.00449C9.5055 6.32849 8.211 7.15799 7.4565 7.94099L7.452 7.94549V1.47599H18.3135C18.7065 1.47149 18.7065 0.917991 18.7065 0.739491C18.7065 0.556491 18.7065 0.00899072 18.3075 0.00299072H6.5655C6.246 0.00299072 6.0495 0.269991 6.0495 0.514491V9.61349C6.0495 9.90899 6.4155 10.1205 6.7575 10.1895C7.4235 10.3305 7.5735 10.119 7.737 9.89399L7.761 9.86549C8.01 9.49499 8.7825 8.71649 8.793 8.70749C10.002 7.49849 11.619 6.83249 13.3485 6.83249C15.069 6.83249 16.6815 7.49849 17.8905 8.70749C19.104 9.92099 19.7745 11.529 19.7745 13.236C19.7745 14.9475 19.1085 16.56 17.8995 17.7645C16.7085 18.9555 15.0405 19.6395 13.329 19.6395C12.171 19.6395 11.0505 19.3305 10.0905 18.744L10.095 13.212C10.095 12.4755 10.4145 11.67 10.953 11.0655C11.5665 10.371 12.411 9.99149 13.335 9.99149C14.226 9.99149 15.06 10.329 15.684 10.9425C16.2975 11.5515 16.6395 12.3675 16.6395 13.2345C16.6395 15.081 15.186 16.53 13.3305 16.53C12.9735 16.53 12.3225 16.371 12.294 16.3665C11.919 16.254 11.76 16.7745 11.7075 16.947C11.5065 17.6085 11.811 17.739 11.871 17.7585C12.4665 17.946 12.8595 17.979 13.3755 17.979C15.996 17.979 18.129 15.846 18.129 13.2255C18.129 10.6245 15.996 8.50949 13.38 8.50949C12.096 8.50949 10.8915 9.00149 9.9855 9.88799C9.123 10.737 8.631 11.8665 8.631 12.9915V13.02C8.6265 13.161 8.6265 16.479 8.622 17.5665L8.6175 17.562C8.1255 17.0175 7.638 16.1835 7.314 15.33C7.188 14.997 6.9015 15.054 6.513 15.1755C6.3255 15.2265 5.8095 15.387 5.9265 15.7665L5.9295 15.768ZM11.5125 14.4705C11.5125 14.6295 11.658 14.7705 11.7465 14.85L11.775 14.8785C11.925 15.024 12.066 15.099 12.1965 15.099C12.3045 15.099 12.3705 15.048 12.393 15.024C12.459 14.9625 13.1985 14.208 13.275 14.1375L14.1045 14.9625C14.1795 15.0465 14.2635 15.0945 14.3625 15.0945C14.4945 15.0945 14.6385 15.015 14.7885 14.8605C15.1455 14.4945 14.967 14.298 14.883 14.2035L14.0445 13.365L14.9205 12.483C15.1125 12.2775 14.9445 12.057 14.775 11.8875C14.532 11.6445 14.292 11.5785 14.142 11.7195L13.2705 12.591L12.3885 11.709C12.342 11.6625 12.2805 11.6385 12.219 11.6385C12.102 11.6385 11.961 11.718 11.8065 11.8725C11.535 12.144 11.478 12.3315 11.619 12.4815L12.501 13.3575L11.625 14.2335C11.5455 14.3085 11.508 14.388 11.5125 14.4675V14.4705ZM13.4295 2.57399C12.0225 2.57399 10.5225 2.86049 9.426 3.33299C9.309 3.37949 9.2385 3.47399 9.225 3.60449C9.2115 3.73049 9.2445 3.89549 9.3285 4.10999C9.399 4.28399 9.5775 4.74749 9.9285 4.61099C11.0535 4.17899 12.3 3.94499 13.4295 3.94499C14.7135 3.94499 15.9615 4.19849 17.133 4.69049C18.066 5.08499 18.942 5.65649 19.899 6.48149C19.9695 6.54299 20.0445 6.56999 20.1195 6.56999C20.307 6.56999 20.4855 6.38699 20.64 6.21449C20.8935 5.92799 21.0705 5.68949 20.8185 5.45099C19.905 4.58849 18.906 3.94199 17.6685 3.41699C16.3275 2.85899 14.898 2.57249 13.431 2.57249L13.4295 2.57399ZM21.009 19.95C20.8395 19.7805 20.6955 19.683 20.568 19.6455C20.4405 19.608 20.325 19.6365 20.235 19.725L20.151 19.809C19.2795 20.6805 18.2625 21.3645 17.133 21.843C15.9615 22.3395 14.7195 22.5885 13.4385 22.5885C12.1545 22.5885 10.9125 22.335 9.744 21.843C8.6145 21.3645 7.5975 20.6805 6.7245 19.809C5.8155 18.9 5.13 17.883 4.6905 16.791C4.2585 15.7215 4.119 14.9205 4.071 14.658C4.0665 14.634 4.062 14.616 4.062 14.6025C4.0005 14.2935 3.7155 14.2695 3.3075 14.3355C3.1395 14.364 2.619 14.4435 2.6655 14.814V14.823C2.802 15.69 3.045 16.539 3.387 17.3445C3.936 18.6435 4.7235 19.8105 5.7255 20.814C6.7275 21.8175 7.896 22.6005 9.195 23.1525C10.5405 23.7195 11.97 24.0105 13.4415 24.0105C14.913 24.0105 16.3425 23.7195 17.688 23.1525C18.987 22.6035 20.154 21.816 21.1575 20.814C21.1575 20.814 21.213 20.7585 21.246 20.7255C21.3495 20.5995 21.447 20.388 21.0075 19.9515L21.009 19.95Z" fill="black"/>
</g>
<defs>
<clipPath id="clip0_201_67075">
<rect width="24" height="24" fill="white"/>
</clipPath>
</defs>
</svg>
