<svg width="24" height="24" viewBox="0 0 24 24" fill="none" xmlns="http://www.w3.org/2000/svg">
<g clip-path="url(#clip0_201_67077)">
<path d="M16.5 6.75001C16.5 5.50801 17.508 4.50001 18.75 4.50001C19.992 4.50001 21 5.50801 21 6.75001C21 7.99201 19.992 9.00001 18.75 9.00001C17.508 9.00001 16.5 7.99201 16.5 6.75001ZM22.4625 3.03751C20.412 0.987009 17.088 0.987009 15.0375 3.03751C14.2035 3.87151 13.7085 4.91551 13.554 6.00001L8.757 13.2705C8.112 13.3035 7.473 13.4685 6.8835 13.7625L3.183 10.8705C2.3265 10.2015 1.089 10.353 0.420005 11.2095C-0.248995 12.066 -0.0974954 13.3035 0.759005 13.9725L4.413 16.83C4.0155 18.3945 4.428 20.124 5.6535 21.348C7.503 23.1975 10.5015 23.1975 12.351 21.348C13.4865 20.2125 13.9245 18.642 13.665 17.172L19.5015 11.946C20.586 11.79 21.63 11.295 22.464 10.4625C24.5145 8.41201 24.5145 5.08801 22.464 3.03751H22.4625ZM9 21.1575C7.257 21.1575 5.8425 19.7445 5.8425 18C5.8425 17.9835 5.844 17.967 5.844 17.9505L7.413 19.176C7.773 19.458 8.2005 19.593 8.6235 19.593C9.2085 19.593 9.7875 19.3335 10.176 18.837C10.845 17.9805 10.6935 16.743 9.837 16.074L8.349 14.91C8.559 14.8665 8.7765 14.8425 9 14.8425C10.743 14.8425 12.1575 16.2555 12.1575 18C12.1575 19.7445 10.7445 21.1575 9 21.1575ZM18.75 10.5C16.6785 10.5 15 8.82151 15 6.75001C15 4.67851 16.6785 3.00001 18.75 3.00001C20.8215 3.00001 22.5 4.67851 22.5 6.75001C22.5 8.82151 20.8215 10.5 18.75 10.5Z" fill="black"/>
</g>
<defs>
<clipPath id="clip0_201_67077">
<rect width="24" height="24" fill="white"/>
</clipPath>
</defs>
</svg>
