<svg width="24" height="24" viewBox="0 0 24 24" fill="none" xmlns="http://www.w3.org/2000/svg">
<g clip-path="url(#clip0_201_67079)">
<path d="M7.1235 19.5945C7.7595 19.5945 8.3835 19.287 8.763 18.717C9.366 17.8125 9.1215 16.59 8.217 15.987L6.669 14.955C6.9345 14.883 7.212 14.844 7.5 14.844C9.243 14.844 10.6575 16.257 10.6575 18.0015C10.6575 19.746 9.2445 21.159 7.5 21.159C5.8035 21.159 4.419 19.8195 4.347 18.141L6.033 19.2645C6.369 19.488 6.7485 19.596 7.1235 19.596V19.5945ZM19.9995 0C22.2 0 24 1.8 24 4.0005V19.9995C24 22.2015 22.2 24 19.9995 24H4.0005C1.8 24 0 22.2015 0 19.9995V15.2415L2.844 17.1375C2.571 18.618 3.006 20.2035 4.152 21.3495C6.0015 23.199 9 23.199 10.8495 21.3495C11.985 20.214 12.423 18.6435 12.1635 17.1735L18.0015 11.9475C19.086 11.7915 20.13 11.298 20.964 10.464C23.0145 8.4135 23.0145 5.0895 20.964 3.039C18.9135 0.9885 15.5895 0.9885 13.539 3.039C12.705 3.873 12.21 4.917 12.0555 6.0015L7.2585 13.272C6.5115 13.3095 5.7735 13.524 5.109 13.914L0.003 10.5105V4.002C0.003 1.8015 1.803 0.0015 4.0035 0.0015H20.0025L19.9995 0ZM21 6.75C21 4.6785 19.3215 3 17.25 3C15.1785 3 13.5 4.6785 13.5 6.75C13.5 8.8215 15.1785 10.5 17.25 10.5C19.3215 10.5 21 8.8215 21 6.75ZM15 6.75C15 5.508 16.008 4.5 17.25 4.5C18.492 4.5 19.5 5.508 19.5 6.75C19.5 7.992 18.492 9 17.25 9C16.008 9 15 7.992 15 6.75Z" fill="black"/>
</g>
<defs>
<clipPath id="clip0_201_67079">
<rect width="24" height="24" fill="white"/>
</clipPath>
</defs>
</svg>
