<svg width="24" height="24" viewBox="0 0 24 24" fill="none" xmlns="http://www.w3.org/2000/svg">
<g clip-path="url(#clip0_201_67081)">
<path d="M17.25 0.75L12 5.25L18.75 9.75L24 5.25L17.25 0.75Z" fill="black"/>
<path d="M12 5.25L6.75 0.75L0 5.25L5.25 9.75L12 5.25Z" fill="black"/>
<path d="M18.75 9.75L24 14.25L17.25 18L12 13.5L18.75 9.75Z" fill="black"/>
<path d="M12 13.5L5.25 9.75L0 14.25L6.75 18L12 13.5Z" fill="black"/>
<path d="M17.0655 19.818L12 15.4755L6.9345 19.818L3.75 18.0495V20.25L12 24L20.25 20.25V18.0495L17.0655 19.818Z" fill="black"/>
</g>
<defs>
<clipPath id="clip0_201_67081">
<rect width="24" height="24" fill="white"/>
</clipPath>
</defs>
</svg>
