<svg width="24" height="24" viewBox="0 0 24 24" fill="none" xmlns="http://www.w3.org/2000/svg">
<g clip-path="url(#clip0_201_67087)">
<path d="M8.223 19.416C6.81 19.0635 6.024 17.94 6.021 16.2735C6.021 15.741 6.0585 15.486 6.192 15.1425C6.5175 14.3025 7.3815 13.6695 8.517 13.4355C9.0825 13.32 9.2565 13.1955 9.2565 12.906C9.2565 12.816 9.324 12.546 9.4065 12.3075C9.78 11.2215 10.4715 10.317 11.2095 9.948C11.982 9.561 12.3735 9.474 13.308 9.4785C14.637 9.486 15.2985 9.774 16.2255 10.7475L16.7355 11.283L17.1915 11.1255C19.401 10.3605 21.6045 11.6625 21.783 13.839L21.831 14.4345L22.266 14.5905C23.5095 15.036 24.093 15.9705 23.988 17.346C23.919 18.2445 23.499 18.963 22.833 19.3185L22.5195 19.4865L15.5625 19.5C10.2165 19.5105 8.517 19.491 8.223 19.4175V19.416ZM2.4195 18.4215C1.572 18.2085 0.6735 17.4165 0.252 16.512C0.0135 15.999 0 15.9225 0 15.015C0 14.151 0.021 14.013 0.21 13.584C0.6105 12.6795 1.38 12.027 2.343 11.769C2.547 11.715 2.7375 11.628 2.7675 11.577C2.7975 11.526 2.832 11.2455 2.8425 10.9545C2.91 9.1455 4.0335 7.551 5.601 7.0395C6.4485 6.7635 7.56 6.7365 8.481 7.1265C8.7735 7.2495 8.7405 7.2765 9.3585 6.42C9.7245 5.913 10.416 5.3775 11.0205 5.0565C11.673 4.71 12.351 4.551 13.1625 4.5525C15.4305 4.5585 17.385 6.057 18.108 8.346C18.339 9.0765 18.327 9.282 18.0555 9.288C17.937 9.291 17.5965 9.36 17.298 9.441L16.7565 9.5895L16.263 9.0675C14.871 7.5975 12.6015 7.2795 10.671 8.2845C9.9 8.6865 9.2805 9.2625 8.8125 10.014C8.4795 10.5495 8.0535 11.55 8.0535 11.7975C8.0535 11.973 7.9185 12.0615 7.3425 12.261C5.559 12.879 4.518 14.307 4.5195 16.134C4.5195 16.7985 4.6815 17.613 4.9065 18.078C4.992 18.2535 5.0385 18.42 5.0115 18.4485C4.9425 18.522 2.724 18.4965 2.4165 18.42L2.4195 18.4215Z" fill="black"/>
</g>
<defs>
<clipPath id="clip0_201_67087">
<rect width="24" height="24" fill="white"/>
</clipPath>
</defs>
</svg>
