<svg width="24" height="24" viewBox="0 0 24 24" fill="none" xmlns="http://www.w3.org/2000/svg">
<g clip-path="url(#clip0_201_67089)">
<path d="M12 0.297006C5.373 0.297006 0 5.67001 0 12.297C0 17.5995 3.438 22.0965 8.2065 23.6835C8.8065 23.7945 9.027 23.4225 9.027 23.106C9.027 22.8195 9.015 21.8745 9.0105 20.8725C5.6715 21.5985 4.968 19.4565 4.968 19.4565C4.422 18.069 3.636 17.7 3.636 17.7C2.547 16.9545 3.7185 16.971 3.7185 16.971C4.923 17.055 5.5575 18.207 5.5575 18.207C6.6285 20.0415 8.3655 19.5105 9.0495 19.2045C9.1575 18.429 9.468 17.8995 9.8115 17.5995C7.146 17.2965 4.344 16.2675 4.344 11.6685C4.344 10.359 4.8135 9.28801 5.58 8.44801C5.4555 8.14501 5.0445 6.92551 5.6955 5.27251C5.6955 5.27251 6.7035 4.95001 8.997 6.50251C9.954 6.23701 10.98 6.10351 12 6.09901C13.02 6.10351 14.0475 6.23701 15.006 6.50251C17.2965 4.95001 18.303 5.27251 18.303 5.27251C18.9555 6.92551 18.546 8.14651 18.4215 8.44801C19.191 9.28801 19.656 10.359 19.656 11.6685C19.656 16.278 16.848 17.292 14.1765 17.589C14.607 17.961 14.991 18.6915 14.991 19.8105C14.991 21.4155 14.9775 22.7085 14.9775 23.103C14.9775 23.4225 15.1935 23.796 15.8025 23.679C20.568 22.0905 24.0015 17.5935 24.0015 12.294C24.0015 5.66701 18.6285 0.294006 12.0015 0.294006L12 0.297006Z" fill="black"/>
</g>
<defs>
<clipPath id="clip0_201_67089">
<rect width="24" height="24" fill="white"/>
</clipPath>
</defs>
</svg>
