<svg width="24" height="24" viewBox="0 0 24 24" fill="none" xmlns="http://www.w3.org/2000/svg">
<path d="M12 2.49902C7.62149 2.49902 4.24649 6.16502 2.334 9.75602C1.2555 11.7765 0.500995 13.989 0.154495 16.2525C0.116995 16.5105 0.0794953 16.7685 0.0509953 17.031C0.0374953 17.172 0.0224953 17.313 0.0134953 17.4525C-4.65568e-06 17.631 0.00899535 17.6865 0.101995 17.8365C0.382495 18.291 0.715495 18.7125 1.0905 19.0935C1.8585 19.881 2.7915 20.4855 3.7815 20.955C6.036 22.0185 8.58149 22.404 11.0565 22.488C13.611 22.572 16.236 22.362 18.678 21.564C20.7645 20.8845 22.7745 19.698 23.9325 17.781C24.0585 17.5755 23.97 17.2695 23.946 17.031C23.9175 16.7445 23.88 16.464 23.8335 16.182C23.7495 15.6285 23.637 15.0855 23.5005 14.541C23.229 13.434 22.8585 12.3465 22.4085 11.3025C20.7765 7.51502 17.7585 3.47402 13.464 2.64002C12.981 2.54552 12.489 2.49902 11.997 2.49902H12ZM12.15 20.8635C9.47399 20.8635 6.55799 20.625 4.149 19.335C3.2115 18.834 2.256 18.1065 1.8045 17.109C1.674 16.818 1.7205 16.7055 1.7805 16.3635C1.8225 16.143 1.842 15.927 1.9395 15.7215C2.076 15.435 2.2155 15.1545 2.361 14.8725C2.853 13.9215 3.3825 12.9795 3.9975 12.093C4.302 11.6565 4.626 11.226 5.001 10.851C5.2635 10.5885 5.58299 10.308 5.95199 10.218C7.08599 9.94652 7.95299 11.259 8.64299 11.919C8.976 12.2385 9.42149 12.5985 9.91799 12.537C10.26 12.495 10.5645 12.228 10.809 12.0075C11.6385 11.262 12.3045 10.3395 12.993 9.47102C13.335 9.04502 13.6725 8.61302 14.043 8.20502C14.292 7.92902 14.5635 7.61402 14.8965 7.43552C15.492 7.11152 16.251 7.77752 16.6635 8.11952C17.367 8.70602 17.9895 9.39002 18.585 10.083C19.152 10.7445 19.701 11.415 20.184 12.141C20.9295 13.266 21.576 14.466 22.167 15.6795C22.293 15.942 22.3365 16.1205 22.383 16.4115C22.4115 16.5705 22.4715 16.7535 22.449 16.9185C22.416 17.148 22.257 17.397 22.14 17.5845C21.858 18.03 21.4785 18.414 21.0615 18.738C19.3125 20.0925 16.9455 20.5425 14.7945 20.745C13.9125 20.829 13.032 20.862 12.1515 20.862L12.15 20.8635Z" fill="black"/>
</svg>
