<svg width="24" height="24" viewBox="0 0 24 24" fill="none" xmlns="http://www.w3.org/2000/svg">
<g clip-path="url(#clip0_201_67095)">
<path d="M21.75 0H2.25C1.0125 0 0 1.0125 0 2.25V21.75C0 22.9875 1.0125 24 2.25 24H21.75C22.9875 24 24 22.9875 24 21.75V2.25C24 1.0125 22.9875 0 21.75 0ZM10.5 18C10.5 18.825 9.825 19.5 9 19.5H6C5.175 19.5 4.5 18.825 4.5 18V6C4.5 5.175 5.175 4.5 6 4.5H9C9.825 4.5 10.5 5.175 10.5 6V18ZM19.5 13.5C19.5 14.325 18.825 15 18 15H15C14.175 15 13.5 14.325 13.5 13.5V6C13.5 5.175 14.175 4.5 15 4.5H18C18.825 4.5 19.5 5.175 19.5 6V13.5Z" fill="black"/>
</g>
<defs>
<clipPath id="clip0_201_67095">
<rect width="24" height="24" fill="white"/>
</clipPath>
</defs>
</svg>
