<svg width="24" height="24" viewBox="0 0 24 24" fill="none" xmlns="http://www.w3.org/2000/svg">
<g clip-path="url(#clip0_201_67097)">
<path d="M3 12C3 15.4695 5.07 18.468 8.073 19.8885L3.78 8.433C3.2805 9.5235 3 10.7295 3 12ZM18.075 11.5575C18.075 10.4745 17.676 9.7245 17.3325 9.1395C16.8765 8.4165 16.449 7.806 16.449 7.083C16.449 6.2775 17.076 5.5275 17.961 5.5275C18.0015 5.5275 18.039 5.532 18.078 5.535C16.4775 4.1055 14.343 3.234 12 3.234C8.856 3.234 6.09 4.806 4.4805 7.185C4.692 7.191 4.8915 7.1955 5.0595 7.1955C6 7.1955 7.458 7.0845 7.458 7.0845C7.9425 7.0575 7.9995 7.7505 7.515 7.8075C7.515 7.8075 7.0275 7.863 6.4845 7.89L9.762 17.385L11.7315 11.6325L10.329 7.89C9.8445 7.8615 9.3855 7.8075 9.3855 7.8075C8.901 7.779 8.958 7.0575 9.4425 7.0845C9.4425 7.0845 10.929 7.1955 11.8125 7.1955C12.753 7.1955 14.211 7.0845 14.211 7.0845C14.6955 7.0575 14.754 7.7505 14.268 7.8075C14.268 7.8075 13.779 7.863 13.2375 7.89L16.4895 17.313L17.388 14.3925C17.7765 13.179 18.0735 12.309 18.0735 11.559L18.075 11.5575ZM12.1575 12.7665L9.4575 20.409C10.2645 20.64 11.1165 20.766 12 20.766C13.0485 20.766 14.0535 20.5905 14.988 20.2695C14.964 20.232 14.9415 20.1915 14.9235 20.148L12.1575 12.7665ZM19.8975 7.794C19.9365 8.073 19.9575 8.373 19.9575 8.6955C19.9575 9.585 19.7865 10.584 19.2735 11.835L16.524 19.575C19.2 18.0555 20.9985 15.2325 20.9985 11.9985C20.9985 10.4745 20.598 9.042 19.896 7.794H19.8975ZM12 0C5.373 0 0 5.373 0 12C0 18.627 5.373 24 12 24C18.627 24 24 18.627 24 12C24 5.373 18.627 0 12 0ZM12 22.5C6.201 22.5 1.5 17.799 1.5 12C1.5 6.201 6.201 1.5 12 1.5C17.799 1.5 22.5 6.201 22.5 12C22.5 17.799 17.799 22.5 12 22.5Z" fill="black"/>
</g>
<defs>
<clipPath id="clip0_201_67097">
<rect width="24" height="24" fill="white"/>
</clipPath>
</defs>
</svg>
