<svg width="24" height="24" viewBox="0 0 24 24" fill="none" xmlns="http://www.w3.org/2000/svg">
<g clip-path="url(#clip0_201_67099)">
<path d="M6.234 6.4845C7.0035 5.715 8.25 5.715 9.018 6.4845L9.201 6.669L11.571 4.2975L11.3865 4.113C10.0365 2.76 8.1405 2.2875 6.408 2.694C6.159 1.167 4.836 0 3.24 0C1.467 0 0.03 1.44 0.03 3.2145C0.03 4.746 1.098 6.027 2.5305 6.351C1.9875 8.166 2.4315 10.215 3.8625 11.6475L9.2025 16.989L11.5695 14.6175L6.2295 9.276C5.463 8.5095 5.4615 7.257 6.234 6.4845ZM23.97 3.2145C23.97 1.4385 22.533 0 20.76 0C19.137 0 17.796 1.206 17.58 2.7705C15.774 2.2395 13.7415 2.688 12.315 4.116L6.975 9.4575L9.345 11.829L14.6835 6.489C15.456 5.7165 16.6995 5.718 17.4645 6.4845C18.2325 7.254 18.2325 8.5035 17.463 9.273L17.28 9.456L19.647 11.829L19.8315 11.643C21.249 10.224 21.699 8.2035 21.1815 6.402C22.755 6.195 23.9685 4.8465 23.9685 3.2145H23.97ZM21.24 17.6025C21.6645 15.858 21.1935 13.938 19.8315 12.5745L14.499 7.2315L12.129 9.6015L17.4615 14.946C18.234 15.72 18.2325 16.9635 17.466 17.7315C16.6965 18.501 15.45 18.501 14.6805 17.7315L14.499 17.5485L12.132 19.9215L12.3135 20.103C13.755 21.546 15.8205 21.9885 17.643 21.4275C17.9385 22.896 19.2345 24.0015 20.79 24.0015C22.5615 24.0015 24 22.563 24 20.787C24 19.1655 22.8 17.823 21.24 17.604V17.6025ZM14.352 12.3915L9.0195 17.7345C8.253 18.5025 7.0035 18.504 6.231 17.7315C5.4615 16.9605 5.4615 15.714 6.2295 14.943L6.4125 14.7615L4.044 12.3915L3.8625 12.5715C2.4855 13.95 2.0205 15.8955 2.469 17.6565C1.053 17.991 0 19.2645 0 20.7855C0 22.5615 1.437 24 3.21 24C4.7355 23.9985 6.0135 22.935 6.3405 21.507C8.091 21.942 10.02 21.477 11.388 20.106L16.7205 14.763L14.3535 12.39L14.352 12.3915Z" fill="black"/>
</g>
<defs>
<clipPath id="clip0_201_67099">
<rect width="24" height="24" fill="white"/>
</clipPath>
</defs>
</svg>
