<svg width="24" height="24" viewBox="0 0 24 24" fill="none" xmlns="http://www.w3.org/2000/svg">
<g clip-path="url(#clip0_201_67101)">
<path d="M12 0C5.373 0 0 5.373 0 12C0 18.627 5.373 24 12 24C18.627 24 24 18.627 24 12C24 5.373 18.627 0 12 0ZM19.3275 13.818C18.465 17.163 15.4515 19.5 12 19.5C8.5485 19.5 5.535 17.163 4.6725 13.818C4.527 13.2525 4.869 12.672 5.4345 12.5265C5.5215 12.504 5.6115 12.492 5.7 12.492C6.183 12.492 6.606 12.819 6.726 13.2885C7.347 15.696 9.516 17.379 12 17.379C14.484 17.379 16.653 15.6975 17.274 13.2885C17.3955 12.819 17.817 12.492 18.3 12.492C18.39 12.492 18.48 12.504 18.567 12.5265C18.8415 12.597 19.071 12.771 19.215 13.0155C19.359 13.26 19.3995 13.545 19.3275 13.8195V13.818Z" fill="black"/>
</g>
<defs>
<clipPath id="clip0_201_67101">
<rect width="24" height="24" fill="white"/>
</clipPath>
</defs>
</svg>
