<svg width="24" height="24" viewBox="0 0 24 24" fill="none" xmlns="http://www.w3.org/2000/svg">
<g clip-path="url(#clip0_201_67103)">
<path d="M22.449 9H21.1035C20.28 9 19.557 8.3025 19.5 7.5C19.5 3.219 16.0485 0 11.7375 0H7.8045C3.4965 0 0.003 3.4695 0 7.7505V16.254C0 20.535 3.4965 24.0015 7.8045 24.0015H16.2045C20.5155 24.0015 24 20.535 24 16.254V10.761C24 9.906 23.31 9.0015 22.449 9.0015V9ZM7.5 6H12C12.825 6 13.5 6.675 13.5 7.5C13.5 8.325 12.825 9 12 9H7.5C6.675 9 6 8.325 6 7.5C6 6.675 6.675 6 7.5 6ZM16.5 18H7.5C6.675 18 6 17.325 6 16.5C6 15.675 6.675 15 7.5 15H16.5C17.325 15 18 15.675 18 16.5C18 17.325 17.325 18 16.5 18Z" fill="black"/>
</g>
<defs>
<clipPath id="clip0_201_67103">
<rect width="24" height="24" fill="white"/>
</clipPath>
</defs>
</svg>
