<svg width="24" height="24" viewBox="0 0 24 24" fill="none" xmlns="http://www.w3.org/2000/svg">
<g clip-path="url(#clip0_201_67105)">
<path d="M21.75 0H2.25C1.0125 0 0 1.0125 0 2.25V21.75C0 22.9875 1.0125 24 2.25 24H21.75C22.9875 24 24 22.9875 24 21.75V2.25C24 1.0125 22.9875 0 21.75 0ZM21 15.1875C21 18.399 18.3885 21 15.1545 21H8.8545C5.6205 21 3 18.399 3 15.1875V8.8125C3 5.601 5.6205 3 8.8545 3H11.8035C15.0375 3 17.625 5.4135 17.625 8.625C17.667 9.225 18.2115 9.75 18.825 9.75H19.833C20.4795 9.75 20.9955 10.4295 20.9955 11.0715V15.1875H21Z" fill="black"/>
<path d="M16.5 15C16.5 15.825 15.825 16.5 15 16.5H9C8.175 16.5 7.5 15.825 7.5 15C7.5 14.175 8.175 13.5 9 13.5H15C15.825 13.5 16.5 14.175 16.5 15Z" fill="black"/>
<path d="M13.5 9C13.5 9.825 12.825 10.5 12 10.5H9C8.175 10.5 7.5 9.825 7.5 9C7.5 8.175 8.175 7.5 9 7.5H12C12.825 7.5 13.5 8.175 13.5 9Z" fill="black"/>
</g>
<defs>
<clipPath id="clip0_201_67105">
<rect width="24" height="24" fill="white"/>
</clipPath>
</defs>
</svg>
