<svg width="24" height="24" viewBox="0 0 24 24" fill="none" xmlns="http://www.w3.org/2000/svg">
<path d="M13.5015 10.5V15.9885C13.5015 17.3805 13.4835 18.183 13.6305 18.579C13.7775 18.972 14.1435 19.38 14.544 19.6155C15.075 19.9335 15.681 20.0925 16.365 20.0925C17.58 20.0925 18.2985 19.932 19.5 19.143V22.7505C18.4755 23.232 17.5815 23.514 16.7505 23.709C15.918 23.9025 15.0195 24 14.0535 24C12.9555 24 12.309 23.862 11.466 23.586C10.623 23.3085 9.903 22.911 9.309 22.401C8.712 21.8865 8.301 21.342 8.07 20.7645C7.839 20.187 7.725 19.3485 7.725 18.2505V9.834H4.5045V6.435C5.4465 6.129 6.501 5.6895 7.1715 5.1195C7.845 4.5465 8.385 3.861 8.7915 3.0585C9.1995 2.2575 9.48 1.2375 9.633 0H13.5015V6H19.5V10.5H13.5015Z" fill="black"/>
</svg>
