<svg width="24" height="24" viewBox="0 0 24 24" fill="none" xmlns="http://www.w3.org/2000/svg">
<g clip-path="url(#clip0_201_67111)">
<path d="M21.75 0H2.25C1.0125 0 0 1.0125 0 2.25V21.75C0 22.9875 1.0125 24 2.25 24H21.75C22.9875 24 24 22.9875 24 21.75V2.25C24 1.0125 22.9875 0 21.75 0ZM17.151 19.326C16.443 19.659 15.801 19.893 15.2295 20.0295C14.658 20.1615 14.034 20.2305 13.368 20.2305C12.609 20.2305 12.1635 20.136 11.5815 19.944C10.9995 19.752 10.503 19.4805 10.0905 19.128C9.678 18.771 9.396 18.396 9.237 17.9985C9.078 17.601 8.9985 17.0235 8.9985 16.2645V10.4565H6.7485V8.112C7.3995 7.9005 8.1555 7.596 8.6145 7.203C9.078 6.8085 9.453 6.336 9.7305 5.7825C10.0125 5.229 10.2045 4.527 10.3125 3.6735H12.666V7.4985H16.5V10.4565H12.6705V14.703C12.6705 15.6645 12.657 16.2165 12.759 16.4895C12.861 16.7625 13.116 17.043 13.392 17.202C13.758 17.4225 14.1795 17.5305 14.649 17.5305C15.4875 17.5305 16.323 17.259 17.1525 16.7145V19.326H17.151Z" fill="black"/>
</g>
<defs>
<clipPath id="clip0_201_67111">
<rect width="24" height="24" fill="white"/>
</clipPath>
</defs>
</svg>
