<svg width="24" height="24" viewBox="0 0 24 24" fill="none" xmlns="http://www.w3.org/2000/svg">
<g clip-path="url(#clip0_201_67115)">
<path d="M12.0285 1.6305C7.7865 1.6305 3.7785 1.0725 0 0C0 8.4795 0 21.8715 0 24C3.783 22.926 7.791 22.368 12.0285 22.368C16.2195 22.368 20.217 22.9125 24 24C24 15.834 24 8.7705 24 0C20.217 1.0875 16.224 1.6305 12.0285 1.6305ZM18.675 3.6795L18.5295 3.909C18.393 4.125 18.2715 4.308 18.1035 4.566C17.8785 4.9035 17.457 5.574 16.95 6.4365C16.809 6.675 16.6365 6.9615 16.458 7.2705C16.116 7.8465 15.732 8.499 15.426 9.0135C15.3 9.234 15.1725 9.459 15.042 9.684C14.7045 10.2705 14.358 10.875 14.025 11.4555C13.683 12.06 13.3455 12.6555 13.008 13.2465V13.842C13.008 14.667 13.026 15.567 13.0545 16.368C13.068 16.734 13.083 17.385 13.101 18.0735C13.119 18.894 13.1385 19.743 13.1625 20.1735L13.167 20.3055V20.319L13.026 20.2815C12.9705 20.268 12.918 20.253 12.8625 20.2395C12.693 20.202 12.5115 20.1735 12.333 20.1555C12.225 20.1465 12.1125 20.142 12 20.142C11.8875 20.142 11.775 20.1465 11.667 20.1555C11.4885 20.1735 11.3055 20.202 11.1375 20.2395C11.082 20.253 11.025 20.268 10.974 20.2815L10.833 20.319V20.3055L10.8375 20.1735C10.857 19.7475 10.8795 18.894 10.899 18.0735C10.9125 17.385 10.932 16.7325 10.9455 16.368C10.9785 15.5625 10.992 14.667 10.992 13.842V13.2465C10.6545 12.651 10.317 12.06 9.975 11.4555C9.642 10.869 9.2955 10.269 8.9625 9.684C8.8305 9.459 8.7045 9.234 8.5785 9.0135C8.2785 8.493 7.89 7.842 7.5465 7.2705C7.3635 6.966 7.191 6.675 7.0545 6.4365C6.5475 5.574 6.126 4.908 5.901 4.566C5.733 4.308 5.61 4.125 5.475 3.909L5.3295 3.6795L5.592 3.7545C5.925 3.849 6.267 3.8955 6.633 3.8955C6.999 3.8955 7.35 3.849 7.6785 3.7545L7.758 3.7305L7.8 3.801C8.4465 4.968 10.1865 7.827 11.226 9.5385C11.5815 10.1295 11.868 10.593 12.009 10.8315C12.009 10.8315 12.009 10.8315 12.009 10.827C12.009 10.827 12.009 10.827 12.009 10.8315C12.15 10.5975 12.435 10.128 12.792 9.5385C13.833 7.8315 15.5715 4.9725 16.218 3.801L16.26 3.7305L16.3395 3.7545C16.668 3.849 17.019 3.8955 17.385 3.8955C17.751 3.8955 18.093 3.849 18.426 3.7545L18.675 3.6795Z" fill="black"/>
</g>
<defs>
<clipPath id="clip0_201_67115">
<rect width="24" height="24" fill="white"/>
</clipPath>
</defs>
</svg>
