<svg width="24" height="24" viewBox="0 0 24 24" fill="none" xmlns="http://www.w3.org/2000/svg">
<g clip-path="url(#clip0_201_67117)">
<path d="M13.305 17.2707C11.385 18.1647 9.5985 18.1542 8.3985 18.0687C6.9675 17.9652 5.817 17.5737 5.3115 17.2317C4.9995 17.0202 4.5765 17.1027 4.365 17.4147C4.1535 17.7267 4.236 18.1497 4.548 18.3612C5.361 18.9117 6.7995 19.3212 8.3025 19.4292C8.5575 19.4472 8.8365 19.4592 9.138 19.4592C10.446 19.4592 12.1065 19.3347 13.8825 18.5082C14.2245 18.3492 14.3715 17.9442 14.2125 17.6022C14.0535 17.2602 13.6485 17.1132 13.3065 17.2722L13.305 17.2707ZM20.8815 16.2612C20.9475 10.3392 21.555 -0.852278 10.218 0.0522223C-0.9765 0.953722 1.992 12.7782 1.8255 16.7382C1.677 18.8337 0.9825 21.3942 0 23.9997H3.0255C3.336 22.8957 3.5655 21.8037 3.663 20.7612C3.846 20.8887 4.041 21.0117 4.2495 21.1287C4.5885 21.3282 4.8795 21.5937 5.1885 21.8742C5.9085 22.5312 6.726 23.2752 8.322 23.3682C8.4285 23.3742 8.5365 23.3772 8.643 23.3772C10.2585 23.3772 11.3625 22.6707 12.249 22.1022C12.6735 21.8307 13.041 21.5952 13.3875 21.4827C14.37 21.1752 15.228 20.6787 15.87 20.0472C15.9705 19.9482 16.0635 19.8477 16.1505 19.7442C16.5075 21.0537 16.9965 22.5282 17.5395 23.9982H24C22.449 21.6027 20.8485 19.2552 20.8815 16.2597V16.2612ZM2.9085 13.0392C2.9085 13.0392 2.9085 13.0392 2.9085 13.0377C2.7975 11.1057 3.7215 9.47972 4.974 9.40622C6.2265 9.33272 7.3305 10.8417 7.4415 12.7737C7.4415 12.7737 7.4415 12.7737 7.4415 12.7752C7.4475 12.8787 7.4505 12.9822 7.4505 13.0842C7.0545 13.1832 6.696 13.3287 6.375 13.4967C6.3735 13.4817 6.3735 13.4682 6.372 13.4532C6.2655 12.3567 5.679 11.5272 5.0625 11.6022C4.446 11.6772 4.0335 12.6282 4.1415 13.7247C4.188 14.2032 4.326 14.6307 4.518 14.9532C4.47 14.9907 4.335 15.0897 4.1805 15.2022C4.0635 15.2877 3.9225 15.3912 3.7515 15.5172C3.285 14.9052 2.9655 14.0277 2.9085 13.0347V13.0392ZM15.5925 17.8167C15.5475 18.8382 14.2125 19.7997 12.978 20.1852L12.9705 20.1882C12.4575 20.3547 12 20.6472 11.5155 20.9577C10.701 21.4782 9.8595 22.0167 8.6445 22.0167C8.565 22.0167 8.4825 22.0137 8.403 22.0092C7.29 21.9447 6.768 21.4692 6.1095 20.8677C5.7615 20.5512 5.4015 20.2227 4.938 19.9512L4.9275 19.9452C3.927 19.3797 3.306 18.6777 3.2655 18.0657C3.246 17.7612 3.381 17.4987 3.6675 17.2827C4.2915 16.8147 4.71 16.5087 4.986 16.3062C5.2935 16.0812 5.3865 16.0137 5.4555 15.9477C5.505 15.9012 5.5575 15.8502 5.6145 15.7932C6.1875 15.2367 7.146 14.3037 8.6175 14.3037C9.5175 14.3037 10.5135 14.6502 11.574 15.3327C12.0735 15.6582 12.5085 15.8082 13.059 15.9987C13.437 16.1292 13.8675 16.2777 14.442 16.5237L14.451 16.5282C14.9865 16.7487 15.621 17.1507 15.591 17.8152L15.5925 17.8167ZM15.297 15.4167C15.1935 15.3642 15.087 15.3147 14.9745 15.2697C14.457 15.0477 14.0415 14.8977 13.6965 14.7777C13.887 14.4057 14.0055 13.9407 14.016 13.4367C14.043 12.2097 13.4235 11.2122 12.633 11.2107C11.8425 11.2092 11.181 12.2022 11.154 13.4292C11.1525 13.4697 11.1525 13.5087 11.154 13.5492C10.668 13.3257 10.1895 13.1622 9.72 13.0632C9.7185 13.0167 9.7155 12.9717 9.714 12.9252V12.9237C9.669 10.6872 11.04 8.83622 12.7785 8.78972C14.517 8.74322 15.9615 10.5177 16.008 12.7527V12.7542C16.029 13.7652 15.7575 14.6967 15.2955 15.4182L15.297 15.4167Z" fill="black"/>
</g>
<defs>
<clipPath id="clip0_201_67117">
<rect width="24" height="24" fill="white"/>
</clipPath>
</defs>
</svg>
