<svg width="24" height="24" viewBox="0 0 24 24" fill="none" xmlns="http://www.w3.org/2000/svg">
<g clip-path="url(#clip0_201_67134)">
<path d="M21 9C20.175 9 19.5 9.675 19.5 10.5V16.5C19.5 17.325 20.175 18 21 18C21.825 18 22.5 17.325 22.5 16.5V10.5C22.5 9.675 21.825 9 21 9ZM3 9C2.175 9 1.5 9.675 1.5 10.5V16.5C1.5 17.325 2.175 18 3 18C3.825 18 4.5 17.325 4.5 16.5V10.5C4.5 9.675 3.825 9 3 9ZM5.25 17.25C5.25 18.492 6.258 19.5 7.5 19.5V22.5C7.5 23.325 8.175 24 9 24C9.825 24 10.5 23.325 10.5 22.5V19.5H13.5V22.5C13.5 23.325 14.175 24 15 24C15.825 24 16.5 23.325 16.5 22.5V19.5C17.742 19.5 18.75 18.492 18.75 17.25V9H5.25V17.25Z" fill="black"/>
<path d="M18.708 7.49997C18.48 5.44047 17.325 3.66147 15.6705 2.58597L16.4205 1.08447C16.605 0.713972 16.455 0.263972 16.0845 0.077972C15.714 -0.108028 15.264 0.043472 15.078 0.413972L14.325 1.91997L14.13 1.84197C13.461 1.61997 12.744 1.49847 12 1.49847C11.256 1.49847 10.539 1.61997 9.87 1.84197L9.675 1.91997L8.922 0.413972C8.7375 0.043472 8.286 -0.106528 7.9155 0.077972C7.545 0.262472 7.395 0.713972 7.5795 1.08447L8.3295 2.58597C6.675 3.65997 5.52 5.44047 5.292 7.49997V8.24997H18.75V7.49997H18.708ZM9.75 5.99997C9.336 5.99997 9 5.66397 9 5.24997C9 4.83597 9.3345 4.50147 9.7485 4.49997H9.75H9.7515C10.1655 4.50147 10.5 4.83597 10.5 5.24997C10.5 5.66397 10.164 5.99997 9.75 5.99997ZM14.25 5.99997C13.836 5.99997 13.5 5.66397 13.5 5.24997C13.5 4.83597 13.8345 4.50147 14.2485 4.49997H14.25C14.25 4.49997 14.2515 4.49997 14.253 4.49997C14.667 4.50147 15.0015 4.83597 15.0015 5.24997C15.0015 5.66397 14.6655 5.99997 14.2515 5.99997H14.25Z" fill="black"/>
</g>
<defs>
<clipPath id="clip0_201_67134">
<rect width="24" height="24" fill="white"/>
</clipPath>
</defs>
</svg>
