<svg width="24" height="24" viewBox="0 0 24 24" fill="none" xmlns="http://www.w3.org/2000/svg">
<path d="M20.9055 12.051C20.481 12.051 20.0775 12.1335 19.7085 12.282C19.4625 9.6015 17.124 7.5 14.271 7.5C13.5735 7.5 12.8955 7.632 12.2955 7.8555C12.0615 7.9425 12 8.031 12 8.205V17.643C12 17.8245 12.147 17.976 12.3315 17.994C12.339 17.9955 20.8515 17.9985 20.907 17.9985C22.6155 17.9985 24 16.6665 24 15.024C24 13.3815 22.614 12.0495 20.9055 12.0495V12.051ZM9.375 18H10.125L10.5 12.7455L10.125 7.5H9.375L9 12.7455L9.375 18ZM7.125 18H6.375L6 14.1855L6.375 10.5H7.125L7.5 14.25L7.125 18ZM3.375 18H4.125L4.5 15L4.125 12H3.375L3 15L3.375 18ZM0.375 16.5H1.125L1.5 15L1.125 13.5H0.375L0 15L0.375 16.5Z" fill="black"/>
</svg>
