<svg width="24" height="24" viewBox="0 0 24 24" fill="none" xmlns="http://www.w3.org/2000/svg">
<g clip-path="url(#clip0_201_67143)">
<path d="M21.75 0H2.25C1.0125 0 0 1.0125 0 2.25V21.75C0 22.9875 1.0125 24 2.25 24H21.75C22.9875 24 24 22.9875 24 21.75V2.25C24 1.0125 22.9875 0 21.75 0ZM4.125 16.5H3.375L3 14.25L3.375 12H4.125L4.5 14.25L4.125 16.5ZM7.125 16.5H6.375L6 13.5L6.375 10.5H7.125L7.5 13.5L7.125 16.5ZM10.125 16.5H9.375L9 12L9.375 7.5H10.125L10.5 12L10.125 16.5ZM19.341 16.5C19.2945 16.5 12.282 16.4955 12.2775 16.4955C12.1275 16.482 12.006 16.35 12.0015 16.1955V8.1045C12.0015 7.9545 12.0525 7.8795 12.2445 7.8045C12.741 7.6125 13.299 7.5 13.8765 7.5C16.2255 7.5 18.1515 9.3 18.357 11.601C18.6615 11.475 18.9945 11.4045 19.341 11.4045C20.748 11.4045 21.891 12.5475 21.891 13.9545C21.891 15.3615 20.748 16.5 19.341 16.5Z" fill="black"/>
</g>
<defs>
<clipPath id="clip0_201_67143">
<rect width="24" height="24" fill="white"/>
</clipPath>
</defs>
</svg>
