<svg width="24" height="24" viewBox="0 0 24 24" fill="none" xmlns="http://www.w3.org/2000/svg">
<g clip-path="url(#clip0_201_67145)">
<path d="M9.975 0.876014C9.9375 0.852014 9.8955 0.834014 9.858 0.814514C9.816 0.823514 9.7785 0.828014 9.7365 0.838514L9.975 0.876014Z" fill="black"/>
<path d="M0.862498 9.867C0.853498 9.909 0.848998 9.951 0.844498 9.9885C0.868498 10.026 0.881998 10.0635 0.905998 10.101L0.863998 9.867H0.862498Z" fill="black"/>
<path d="M23.1285 14.124C23.1375 14.082 23.142 14.04 23.1525 13.998C23.1285 13.9605 23.115 13.923 23.091 13.8855L23.1285 14.124Z" fill="black"/>
<path d="M13.875 23.0385C13.9125 23.0625 13.9545 23.0805 13.992 23.1C14.034 23.091 14.076 23.0865 14.118 23.082L13.875 23.04V23.0385Z" fill="black"/>
<path d="M23.151 13.9965C23.142 14.0385 23.1375 14.0805 23.127 14.1225L23.085 13.8795C23.109 13.9215 23.127 13.959 23.151 13.9965C23.2725 13.3215 23.3385 12.633 23.3385 11.943C23.3385 10.4145 23.0385 8.9295 22.4475 7.5315C21.876 6.1815 21.06 4.968 20.019 3.927C18.978 2.886 17.7645 2.07 16.419 1.4985C15.0225 0.907496 13.536 0.607496 12.0075 0.607496C11.286 0.607496 10.563 0.673496 9.86101 0.808496H9.85651C9.89401 0.826496 9.93601 0.845996 9.97351 0.869996L9.73501 0.832496C9.77701 0.823496 9.81451 0.818996 9.85651 0.808496C8.89051 0.296996 7.80751 0.0209961 6.71101 0.0209961C4.92001 0.0209961 3.23251 0.719996 1.96651 1.9845C0.700506 3.249 0.00300598 4.938 0.00300598 6.729C0.00300598 7.8675 0.298506 8.9925 0.847506 9.9825C0.856506 9.9405 0.861006 9.8985 0.865506 9.861L0.907506 10.0995C0.883506 10.062 0.865506 10.0245 0.846006 9.987C0.733506 10.629 0.678006 11.286 0.678006 11.9415C0.678006 13.47 0.978006 14.955 1.56901 16.353C2.14051 17.703 2.95651 18.912 3.99751 19.953C5.03851 20.994 6.25201 21.81 7.60201 22.3815C8.99851 22.9725 10.485 23.2725 12.0135 23.2725C12.6795 23.2725 13.344 23.211 13.9965 23.094C13.959 23.07 13.9215 23.052 13.8795 23.0325L14.1225 23.0745C14.0805 23.0835 14.0385 23.088 13.9965 23.0925C15 23.6595 16.1385 23.964 17.2965 23.964C19.0875 23.964 20.775 23.265 22.0395 22.0005C23.304 20.736 24.003 19.047 24.003 17.2575C23.9985 16.119 23.703 14.994 23.1495 13.995L23.151 13.9965ZM12.051 18.8865C8.02501 18.8865 6.22501 16.908 6.22501 15.423C6.22501 14.664 6.78751 14.1285 7.56151 14.1285C9.28651 14.1285 8.83651 16.6035 12.0525 16.6035C13.698 16.6035 14.607 15.708 14.607 14.7945C14.607 14.2455 14.3355 13.6365 13.2525 13.3695L9.67051 12.474C6.78751 11.7525 6.26251 10.191 6.26251 8.724C6.26251 5.682 9.12601 4.5375 11.817 4.5375C14.2965 4.5375 17.217 5.907 17.217 7.734C17.217 8.517 16.5375 8.9715 15.7635 8.9715C14.292 8.9715 14.5635 6.9375 11.601 6.9375C10.1295 6.9375 9.31801 7.6035 9.31801 8.5545C9.31801 9.5055 10.4805 9.8115 11.4885 10.041L14.142 10.632C17.043 11.2785 17.7795 12.9765 17.7795 14.5695C17.7795 17.04 15.8805 18.8865 12.051 18.8865Z" fill="black"/>
</g>
<defs>
<clipPath id="clip0_201_67145">
<rect width="24" height="24" fill="white"/>
</clipPath>
</defs>
</svg>
