<svg width="24" height="24" viewBox="0 0 24 24" fill="none" xmlns="http://www.w3.org/2000/svg">
<g clip-path="url(#clip0_201_67151)">
<path d="M6 15C6 14.172 6.672 13.5 7.5 13.5C8.328 13.5 9 14.172 9 15C9 15.828 8.328 16.5 7.5 16.5C6.672 16.5 6 15.828 6 15ZM15 15C15 14.172 15.672 13.5 16.5 13.5C17.328 13.5 18 14.172 18 15C18 15.828 17.328 16.5 16.5 16.5C15.672 16.5 15 15.828 15 15ZM15.0735 18.2055C15.4605 17.901 16.02 17.967 16.3245 18.354C16.629 18.741 16.563 19.3005 16.176 19.605C15.1005 20.4525 13.461 21 12.0015 21C10.542 21 8.9025 20.4525 7.8255 19.605C7.4385 19.3005 7.3725 18.741 7.677 18.354C7.9815 17.967 8.541 17.901 8.928 18.2055C9.5475 18.693 10.773 19.218 12.0015 19.218C13.23 19.218 14.4555 18.693 15.075 18.2055H15.0735ZM24 12C24 10.3425 22.6575 9.00004 21 9.00004C19.872 9.00004 18.891 9.62253 18.378 10.542C16.836 9.69903 14.958 9.15304 12.9105 9.02704L14.7 5.00704L18.126 5.99554C18.435 6.87004 19.2675 7.49854 20.2485 7.49854C21.4905 7.49854 22.4985 6.49054 22.4985 5.24854C22.4985 4.00654 21.4905 2.99854 20.2485 2.99854C19.392 2.99854 18.6465 3.47704 18.267 4.18204L14.4495 3.07954C14.022 2.95654 13.569 3.16654 13.389 3.57304L10.9575 9.03453C8.9625 9.17553 7.131 9.71404 5.622 10.5405C5.109 9.62104 4.128 8.99854 3 8.99854C1.3425 8.99854 0 10.341 0 11.9985C0 13.224 0.7365 14.2785 1.7895 14.7435C1.6005 15.306 1.5 15.894 1.5 16.4985C1.5 20.64 6.201 23.9985 12 23.9985C17.799 23.9985 22.5 20.64 22.5 16.4985C22.5 15.894 22.3995 15.306 22.2105 14.7435C23.265 14.2785 24 13.224 24 11.9985V12ZM20.25 4.40704C20.7165 4.40704 21.0945 4.78504 21.0945 5.25154C21.0945 5.71804 20.7165 6.09604 20.25 6.09604C19.7835 6.09604 19.4055 5.71804 19.4055 5.25154C19.4055 4.78504 19.7835 4.40704 20.25 4.40704ZM1.5 12C1.5 11.1735 2.1735 10.5 3 10.5C3.5985 10.5 4.1145 10.851 4.356 11.3595C3.5715 11.9535 2.922 12.6405 2.442 13.392C1.89 13.17 1.5 12.63 1.5 12ZM12 22.2195C7.185 22.2195 3.2805 19.659 3.2805 16.5C3.2805 13.341 7.1835 10.7805 12 10.7805C16.815 10.7805 20.7195 13.341 20.7195 16.5C20.7195 19.659 16.8165 22.2195 12 22.2195ZM21.558 13.392C21.078 12.639 20.4285 11.9535 19.644 11.3595C19.8855 10.8525 20.4015 10.5 21 10.5C21.8265 10.5 22.5 11.1735 22.5 12C22.5 12.63 22.11 13.17 21.558 13.392Z" fill="black"/>
</g>
<defs>
<clipPath id="clip0_201_67151">
<rect width="24" height="24" fill="white"/>
</clipPath>
</defs>
</svg>
