<svg width="24" height="24" viewBox="0 0 24 24" fill="none" xmlns="http://www.w3.org/2000/svg">
<path d="M22.659 5.47497C22.659 5.54997 22.635 5.62046 22.5885 5.68646C22.542 5.74796 22.4895 5.78097 22.4295 5.78097C21.96 5.82747 21.576 5.97746 21.2805 6.23096C20.9805 6.48446 20.676 6.97647 20.361 7.69347L15.5235 18.6015C15.4905 18.705 15.402 18.7515 15.2565 18.7515C15.144 18.7515 15.0555 18.7005 14.9895 18.6015L12.276 12.93L9.15449 18.6015C9.08849 18.705 9.00449 18.7515 8.88749 18.7515C8.74649 18.7515 8.65799 18.7005 8.61149 18.6015L3.86249 7.69796C3.56699 7.02296 3.25349 6.54897 2.92499 6.28197C2.59649 6.01497 2.13749 5.84547 1.55099 5.78547C1.49999 5.78547 1.45199 5.75696 1.40999 5.70596C1.36349 5.65496 1.34399 5.59346 1.34399 5.52296C1.34399 5.34446 1.39499 5.25596 1.49399 5.25596C1.91549 5.25596 2.36099 5.27547 2.82599 5.31297C3.25799 5.35047 3.65999 5.36996 4.03949 5.36996C4.42349 5.36996 4.88399 5.35047 5.40899 5.31297C5.95799 5.27547 6.44549 5.25596 6.87149 5.25596C6.97499 5.25596 7.02149 5.34446 7.02149 5.52296C7.02149 5.70146 6.98849 5.78547 6.92699 5.78547C6.50549 5.81847 6.16799 5.92646 5.92349 6.10946C5.67899 6.29246 5.55749 6.53096 5.55749 6.83096C5.55749 6.98096 5.60849 7.17297 5.70749 7.39797L9.63149 16.266L11.862 12.057L9.78599 7.70247C9.41099 6.92397 9.10649 6.42296 8.86799 6.19796C8.62949 5.97296 8.26349 5.83647 7.77599 5.78547C7.72949 5.78547 7.69199 5.75696 7.64999 5.70596C7.60799 5.65496 7.58849 5.59346 7.58849 5.52296C7.58849 5.34446 7.63049 5.25596 7.72049 5.25596C8.14199 5.25596 8.53199 5.27547 8.88749 5.31297C9.22949 5.35047 9.59099 5.36996 9.97949 5.36996C10.359 5.36996 10.758 5.35047 11.184 5.31297C11.6205 5.27547 12.051 5.25596 12.4725 5.25596C12.576 5.25596 12.6225 5.34446 12.6225 5.52296C12.6225 5.70146 12.594 5.78547 12.528 5.78547C11.679 5.84247 11.2575 6.08546 11.2575 6.50696C11.2575 6.69446 11.3565 6.98997 11.553 7.38897L12.927 10.1775L14.295 7.62747C14.4825 7.26596 14.5815 6.96147 14.5815 6.71847C14.5815 6.13647 14.16 5.82746 13.311 5.78996C13.236 5.78996 13.1985 5.70146 13.1985 5.52746C13.1985 5.46146 13.2165 5.40596 13.254 5.34896C13.2915 5.29196 13.329 5.26496 13.3665 5.26496C13.671 5.26496 14.0415 5.28447 14.487 5.32197C14.9085 5.35947 15.261 5.37896 15.5325 5.37896C15.729 5.37896 16.0155 5.35947 16.395 5.33247C16.8735 5.29047 17.277 5.26646 17.5995 5.26646C17.6745 5.26646 17.712 5.34146 17.712 5.49146C17.712 5.69246 17.6415 5.79597 17.5065 5.79597C17.0145 5.84697 16.6155 5.98347 16.3155 6.20397C16.0155 6.42447 15.6405 6.92547 15.1905 7.71297L13.3575 11.0685L15.8235 16.0935L19.4655 7.62296C19.5915 7.31396 19.653 7.02746 19.653 6.76946C19.653 6.15146 19.2315 5.82297 18.3825 5.78097C18.3075 5.78097 18.27 5.69246 18.27 5.51846C18.27 5.33996 18.3255 5.25146 18.4395 5.25146C18.7485 5.25146 19.1145 5.27097 19.5405 5.30847C19.9335 5.34597 20.262 5.36546 20.5245 5.36546C20.8065 5.36546 21.1245 5.34597 21.4905 5.30847C21.87 5.27097 22.212 5.25146 22.5165 5.25146C22.611 5.25146 22.6575 5.32646 22.6575 5.47646L22.659 5.47497Z" fill="black"/>
</svg>
