<svg width="24" height="24" viewBox="0 0 24 24" fill="none" xmlns="http://www.w3.org/2000/svg">
<g clip-path="url(#clip0_201_67157)">
<path d="M21.75 0H2.25C1.0125 0 0 1.0125 0 2.25V21.75C0 22.9875 1.0125 24 2.25 24H21.75C22.9875 24 24 22.9875 24 21.75V2.25C24 1.0125 22.9875 0 21.75 0ZM9 19.5H6V9H9V19.5ZM7.5 7.5C6.6705 7.5 6 6.8295 6 6C6 5.1705 6.6705 4.5 7.5 4.5C8.3295 4.5 9 5.1705 9 6C9 6.8295 8.3295 7.5 7.5 7.5ZM19.5 19.5H16.5V13.5C16.5 12.6705 15.8295 12 15 12C14.1705 12 13.5 12.6705 13.5 13.5V19.5H10.5V9H13.5V10.8615C14.118 10.0125 15.066 9 16.125 9C17.991 9 19.5 10.6785 19.5 12.75V19.5Z" fill="black"/>
</g>
<defs>
<clipPath id="clip0_201_67157">
<rect width="24" height="24" fill="white"/>
</clipPath>
</defs>
</svg>
