<svg width="24" height="24" viewBox="0 0 24 24" fill="none" xmlns="http://www.w3.org/2000/svg">
<path d="M10.584 17.958L9.702 15.567C9.702 15.567 8.2725 17.1615 6.1305 17.1615C4.2315 17.1615 2.886 15.5115 2.886 12.873C2.886 9.49347 4.5915 8.28447 6.2655 8.28447C8.6835 8.28447 9.453 9.85047 10.1145 11.856L10.9965 14.6025C11.8785 17.2695 13.5285 19.4115 18.2805 19.4115C21.6885 19.4115 24 18.366 24 15.6195C24 13.3935 22.734 12.24 20.3715 11.6865L18.6135 11.3025C17.4045 11.0265 17.0475 10.533 17.0475 9.70797C17.0475 8.77497 17.7885 8.22147 18.9975 8.22147C20.319 8.22147 21.0315 8.71797 21.1395 9.89997L23.886 9.57147C23.6655 7.09647 21.96 6.07947 19.1565 6.07947C16.6815 6.07947 14.2635 7.01247 14.2635 10.0125C14.2635 11.883 15.1725 13.0635 17.451 13.6125L19.3215 14.0535C20.7225 14.382 21.192 14.9625 21.192 15.759C21.192 16.776 20.2035 17.1885 18.333 17.1885C15.558 17.1885 14.4 15.7305 13.7445 13.725L12.8355 10.9785C11.6865 7.40247 9.8445 6.08397 6.189 6.08397C2.148 6.08397 0.00149536 8.63847 0.00149536 12.984C0.00149536 17.16 2.1435 19.4145 5.997 19.4145C9.1005 19.4145 10.5855 17.9565 10.5855 17.9565L10.584 17.958Z" fill="black"/>
</svg>
