<svg width="24" height="24" viewBox="0 0 24 24" fill="none" xmlns="http://www.w3.org/2000/svg">
<path d="M12 7.5C11.175 7.5 10.5 8.175 10.5 9V15C10.5 17.4795 8.4795 19.5 6 19.5C3.5205 19.5 1.5 17.4795 1.5 15V12H4.5V15C4.5 15.825 5.175 16.5 6 16.5C6.825 16.5 7.5 15.825 7.5 15V9C7.5 6.5205 9.5205 4.5 12 4.5C14.4795 4.5 16.5 6.5205 16.5 8.6715V10.125L14.5785 10.6875L13.5 10.125V8.6715C13.5 8.175 12.825 7.5 12 7.5Z" fill="black"/>
<path d="M22.5 15C22.5 17.4795 20.4795 19.5 18 19.5C15.5205 19.5 13.5 17.4795 13.5 14.6715V11.7645L14.5785 12.327L16.5 11.7645V14.6715C16.5 15.825 17.175 16.5 18 16.5C18.825 16.5 19.5 15.825 19.5 15V12H22.5V15Z" fill="black"/>
</svg>
