<svg width="24" height="24" viewBox="0 0 24 24" fill="none" xmlns="http://www.w3.org/2000/svg">
<g clip-path="url(#clip0_201_67172)">
<path d="M19.9695 0H4.032C1.815 0 0 1.8135 0 4.032V19.9695C0 22.1865 1.8135 24.0015 4.032 24.0015H19.9695C22.1865 24.0015 24.0015 22.188 24.0015 19.9695V4.032C24.0015 1.815 22.188 0 19.9695 0V0ZM12 7.5C11.1735 7.5 10.5 8.1735 10.5 9V15C10.5 17.481 8.481 19.5 6 19.5C3.519 19.5 1.5 17.481 1.5 15V12H4.5V15C4.5 15.8265 5.1735 16.5 6 16.5C6.8265 16.5 7.5 15.8265 7.5 15V9C7.5 6.519 9.519 4.5 12 4.5C14.481 4.5 16.5 6.519 16.5 8.6715V10.125L14.5785 10.6875L13.5 10.125V8.6715C13.5 8.172 12.8265 7.5 12 7.5ZM22.5 15C22.5 17.481 20.481 19.5 18 19.5C15.519 19.5 13.5 17.481 13.5 14.6715V11.7645L14.5785 12.327L16.5 11.7645V14.6715C16.5 15.8265 17.1735 16.5 18 16.5C18.8265 16.5 19.5 15.8265 19.5 15V12H22.5V15Z" fill="black"/>
</g>
<defs>
<clipPath id="clip0_201_67172">
<rect width="24" height="24" fill="white"/>
</clipPath>
</defs>
</svg>
