<svg width="24" height="24" viewBox="0 0 24 24" fill="none" xmlns="http://www.w3.org/2000/svg">
<path d="M12 1.60355C6.258 1.60355 1.6035 6.25805 1.6035 12.0001C1.6035 16.4071 4.3455 20.1661 8.2125 21.6796C8.124 20.8591 8.0385 19.5931 8.25 18.6976C8.4375 17.8861 9.4695 13.5316 9.4695 13.5316C9.4695 13.5316 9.1605 12.9076 9.1605 11.9896C9.1605 10.5451 9.999 9.46355 11.04 9.46355C11.9265 9.46355 12.357 10.1296 12.357 10.9261C12.357 11.8171 11.79 13.1521 11.4945 14.3851C11.2455 15.4216 12.0105 16.2646 13.032 16.2646C14.8785 16.2646 16.299 14.3146 16.299 11.5021C16.299 9.01355 14.508 7.27355 11.958 7.27355C9 7.27355 7.266 9.49055 7.266 11.7871C7.266 12.6826 7.608 13.6381 8.04 14.1586C8.124 14.2621 8.139 14.3506 8.1105 14.4586C8.031 14.7871 7.857 15.4951 7.8195 15.6391C7.773 15.8311 7.6695 15.8686 7.473 15.7801C6.174 15.1756 5.364 13.2766 5.364 11.7541C5.364 8.47205 7.7445 5.46305 12.231 5.46305C15.8355 5.46305 18.639 8.03105 18.639 11.4676C18.639 15.0496 16.38 17.9371 13.2435 17.9371C12.189 17.9371 11.2005 17.3881 10.8615 16.7416C10.8615 16.7416 10.341 18.7246 10.215 19.2121C9.981 20.1166 9.348 21.2461 8.922 21.9361C9.897 22.2361 10.9275 22.3996 12.0015 22.3996C17.7435 22.3996 22.398 17.7451 22.398 12.0031C22.398 6.25655 17.7435 1.60205 12.0015 1.60205L12 1.60355Z" fill="black"/>
</svg>
