<svg width="24" height="24" viewBox="0 0 24 24" fill="none" xmlns="http://www.w3.org/2000/svg">
<g clip-path="url(#clip0_201_67178)">
<path d="M12 0C5.382 0 0 5.3805 0 12C0 18.6195 5.3805 24 12 24C18.6195 24 24 18.618 24 12C24 5.382 18.618 0 12 0ZM12 22.3965C10.926 22.3965 9.8955 22.233 8.9205 21.933C9.342 21.2445 9.9795 20.109 10.2135 19.209C10.3395 18.7215 10.86 16.7385 10.86 16.7385C11.1975 17.385 12.192 17.934 13.2405 17.934C16.377 17.934 18.636 15.051 18.636 11.4645C18.636 8.028 15.8325 5.46 12.228 5.46C7.7415 5.46 5.361 8.4735 5.361 11.751C5.361 13.275 6.1725 15.1725 7.47 15.777C7.6665 15.8715 7.77 15.828 7.8165 15.636C7.8495 15.4905 8.028 14.787 8.1075 14.4555C8.1315 14.352 8.121 14.259 8.037 14.1555C7.6065 13.635 7.263 12.6735 7.263 11.784C7.263 9.492 8.997 7.2705 11.955 7.2705C14.5095 7.2705 16.296 9.009 16.296 11.499C16.296 14.3115 14.8755 16.2615 13.029 16.2615C12.0075 16.2615 11.2425 15.417 11.4915 14.382C11.787 13.1445 12.354 11.8125 12.354 10.923C12.354 10.1265 11.928 9.4605 11.037 9.4605C9.9915 9.4605 9.1575 10.539 9.1575 11.9865C9.1575 12.9045 9.4665 13.5285 9.4665 13.5285C9.4665 13.5285 8.4345 17.883 8.247 18.6945C8.0355 19.5945 8.121 20.856 8.2095 21.6765C4.3425 20.1675 1.6005 16.4085 1.6005 12.0015C1.6005 6.2595 6.255 1.605 11.997 1.605C17.739 1.605 22.3935 6.2595 22.3935 12.0015C22.3935 17.7435 17.739 22.398 11.997 22.398L12 22.3965Z" fill="black"/>
</g>
<defs>
<clipPath id="clip0_201_67178">
<rect width="24" height="24" fill="white"/>
</clipPath>
</defs>
</svg>
