<svg width="24" height="24" viewBox="0 0 24 24" fill="none" xmlns="http://www.w3.org/2000/svg">
<g clip-path="url(#clip0_201_67182)">
<path d="M3.64651 4.73853C3.43951 4.73853 3.26251 4.81353 3.17251 4.95453C3.08401 5.10453 3.09751 5.29203 3.19201 5.48403L5.53051 9.53403C5.53501 9.54303 5.53501 9.54753 5.53051 9.55353L1.85551 16.05C1.76101 16.242 1.76701 16.434 1.85551 16.5795C1.94401 16.7205 2.10001 16.8135 2.30551 16.8135H5.76451C6.28051 16.8135 6.53401 16.4625 6.70651 16.143C6.70651 16.143 10.302 9.78153 10.443 9.53403C10.4295 9.51003 8.06101 5.38503 8.06101 5.38503C7.88701 5.08053 7.63051 4.73853 7.09501 4.73853H3.64501H3.64651Z" fill="black"/>
<path d="M18.1875 0C17.6715 0 17.4465 0.324 17.259 0.6615C17.259 0.6615 9.80101 13.8855 9.55801 14.3205C9.57151 14.3445 14.475 23.3445 14.475 23.3445C14.649 23.649 14.9115 24.006 15.441 24.006H18.9C19.1055 24.006 19.2705 23.9265 19.359 23.7855C19.4535 23.6355 19.4475 23.4435 19.35 23.2515L14.475 14.331C14.4705 14.322 14.4705 14.3175 14.475 14.307L22.1385 0.756C22.233 0.564 22.2375 0.372 22.1475 0.222C22.059 0.081 21.894 0.0015 21.6885 0.0015H18.1875V0Z" fill="black"/>
</g>
<defs>
<clipPath id="clip0_201_67182">
<rect width="24" height="24" fill="white"/>
</clipPath>
</defs>
</svg>
