<svg width="24" height="24" viewBox="0 0 24 24" fill="none" xmlns="http://www.w3.org/2000/svg">
<g clip-path="url(#clip0_201_67185)">
<path d="M8.6145 0.000523438C2.9115 0.000523438 0 3.28552 0 9.41902V22.2875L5.5875 16.694V10.157C5.5875 7.61602 6.261 5.99902 8.52 5.63602C9.309 5.48152 10.9515 5.53552 11.9955 5.53552V9.41602C11.9955 9.45202 12 9.51502 12.009 9.54652C12.0525 9.70402 12.195 9.81802 12.363 9.81952C12.4575 9.81952 12.5475 9.77002 12.639 9.68002L22.3215 0.000523438L8.613 -0.000976562L8.6145 0.000523438ZM18.4125 7.30702V13.844C18.4125 16.385 17.739 18.002 15.48 18.365C14.691 18.5195 13.0485 18.4655 12.0045 18.4655V14.585C12.0045 14.5505 12 14.486 11.991 14.4545C11.9475 14.297 11.805 14.1815 11.637 14.1815C11.541 14.1815 11.4525 14.231 11.361 14.321L1.6785 24.0005L15.387 24.002C21.09 24.002 24.0015 20.717 24.0015 14.5835V1.71502L18.414 7.30852L18.4125 7.30702Z" fill="black"/>
</g>
<defs>
<clipPath id="clip0_201_67185">
<rect width="24" height="24" fill="white"/>
</clipPath>
</defs>
</svg>
