<svg width="24" height="24" viewBox="0 0 24 24" fill="none" xmlns="http://www.w3.org/2000/svg">
<g clip-path="url(#clip0_201_67189)">
<path d="M14.271 15.315C13.866 15.723 14.208 16.467 14.208 16.467L17.2575 21.558C17.2575 21.558 17.7585 22.2285 18.192 22.2285C18.627 22.2285 19.0575 21.87 19.0575 21.87L21.468 18.4245C21.468 18.4245 21.711 17.9895 21.717 17.6085C21.726 17.067 20.91 16.9185 20.91 16.9185L15.2025 15.0855C15.2025 15.0855 14.643 14.937 14.271 15.3135V15.315ZM13.9815 12.75C14.274 13.245 15.0795 13.101 15.0795 13.101L20.7735 11.4375C20.7735 11.4375 21.549 11.1225 21.66 10.701C21.768 10.2795 21.5325 9.7725 21.5325 9.7725L18.8115 6.567C18.8115 6.567 18.576 6.162 18.087 6.1215C17.547 6.075 17.2155 6.729 17.2155 6.729L13.998 11.7915C13.998 11.7915 13.713 12.2955 13.983 12.7515L13.9815 12.75ZM11.2905 10.776C11.961 10.611 12.0675 9.6375 12.0675 9.6375L12.0225 1.5315C12.0225 1.5315 11.922 0.531002 11.472 0.261002C10.767 -0.166498 10.5585 0.0570021 10.356 0.0870021L5.62949 1.8435C5.62949 1.8435 5.16599 1.9965 4.92599 2.3835C4.58099 2.931 5.27549 3.732 5.27549 3.732L10.1895 10.4295C10.1895 10.4295 10.674 10.9305 11.292 10.779L11.2905 10.776ZM10.1235 14.0565C10.14 13.431 9.37349 13.056 9.37349 13.056L4.29299 10.4895C4.29299 10.4895 3.53999 10.179 3.17399 10.395C2.89349 10.56 2.64599 10.86 2.62199 11.124L2.29049 15.198C2.29049 15.198 2.24099 15.9045 2.42399 16.2255C2.68349 16.6815 3.53549 16.3635 3.53549 16.3635L9.46799 15.0525C9.69899 14.898 10.1025 14.883 10.125 14.0565H10.1235ZM11.598 16.2555C11.0895 15.9945 10.479 16.536 10.479 16.536L6.50699 20.9085C6.50699 20.9085 6.01199 21.5775 6.13799 21.9885C6.25649 22.374 6.45299 22.5645 6.73199 22.6995L10.7205 23.958C10.7205 23.958 11.2035 24.0585 11.571 23.952C12.0915 23.802 11.9955 22.9875 11.9955 22.9875L12.0855 17.067C12.0855 17.067 12.0645 16.497 11.5995 16.2555H11.598Z" fill="black"/>
</g>
<defs>
<clipPath id="clip0_201_67189">
<rect width="24" height="24" fill="white"/>
</clipPath>
</defs>
</svg>
