<svg width="24" height="24" viewBox="0 0 24 24" fill="none" xmlns="http://www.w3.org/2000/svg">
<g clip-path="url(#clip0_201_67191)">
<path d="M21.7965 7.23303C20.676 12.207 17.217 14.832 11.7645 14.832H9.951L8.6895 22.839H7.17L7.0905 23.355C7.0395 23.697 7.302 24.0015 7.644 24.0015H11.526C11.985 24.0015 12.375 23.6685 12.45 23.214L12.4875 23.0175L13.2195 18.381L13.266 18.1275C13.3365 17.673 13.7295 17.34 14.19 17.34H14.766C18.525 17.34 21.4695 15.8115 22.332 11.3955C22.656 9.71703 22.533 8.29203 21.798 7.23303H21.7965Z" fill="black"/>
<path d="M19.476 1.809C18.3645 0.543 16.3545 0 13.785 0H6.327C5.802 0 5.352 0.3795 5.2725 0.9L2.1645 20.5965C2.103 20.985 2.403 21.3375 2.7975 21.3375H7.4055L8.5635 14.001L8.526 14.2305C8.6055 13.71 9.051 13.3305 9.576 13.3305H11.7645C16.0635 13.3305 19.428 11.5875 20.4135 6.534C20.442 6.384 20.469 6.2385 20.4885 6.0975C20.7795 4.2315 20.4885 2.9565 19.476 1.809Z" fill="black"/>
</g>
<defs>
<clipPath id="clip0_201_67191">
<rect width="24" height="24" fill="white"/>
</clipPath>
</defs>
</svg>
