<svg width="24" height="24" viewBox="0 0 24 24" fill="none" xmlns="http://www.w3.org/2000/svg">
<g clip-path="url(#clip0_201_67194)">
<path d="M6.0535 10.466L2.6185 4.51702C4.8175 1.76452 8.2015 -0.000976562 11.9995 -0.000976562C16.393 -0.000976562 20.233 2.36002 22.324 5.88202H12.532C12.3565 5.86702 12.178 5.85802 11.998 5.85802C9.142 5.85802 6.7345 7.81852 6.052 10.4645L6.0535 10.466ZM16.2955 7.61752H23.173C23.7055 8.97502 23.9995 10.454 23.9995 12.0005C23.9995 18.5825 18.7 23.9255 12.136 23.999L17.044 15.4985C17.7355 14.5055 18.1405 13.2995 18.1405 12.0005C18.1405 10.286 17.434 8.73352 16.2955 7.61752ZM7.6405 12.0005C7.6405 9.59602 9.5965 7.64152 11.9995 7.64152C14.4025 7.64152 16.3585 9.59752 16.3585 12.0005C16.3585 14.4035 14.4025 16.3595 11.9995 16.3595C9.5965 16.3595 7.6405 14.4035 7.6405 12.0005ZM13.645 17.9165L10.21 23.867C4.432 23.003 0.000999451 18.0185 0.000999451 12.0005C0.000999451 9.86302 0.560499 7.85602 1.54 6.11752L6.439 14.603C7.42 16.691 9.544 18.1415 11.9995 18.1415C12.5695 18.1415 13.12 18.0635 13.645 17.918V17.9165Z" fill="black"/>
</g>
<defs>
<clipPath id="clip0_201_67194">
<rect width="24" height="24" fill="white"/>
</clipPath>
</defs>
</svg>
