<svg width="24" height="24" viewBox="0 0 24 24" fill="none" xmlns="http://www.w3.org/2000/svg">
<path d="M23.9655 7.83152L23.688 9.61502C23.688 9.61502 23.2905 6.31352 22.803 5.07902C22.056 3.18752 21.7245 3.20252 21.723 3.20552C22.2225 4.47602 22.1325 5.15852 22.1325 5.15852C22.1325 5.15852 21.246 2.74502 18.9045 1.97702C16.311 1.12652 14.907 1.35902 14.745 1.40252C14.721 1.40252 14.697 1.40252 14.6745 1.40252C14.694 1.40402 14.712 1.40552 14.7315 1.40702C14.73 1.40702 14.73 1.40852 14.73 1.40852C14.7405 1.42202 17.5965 1.90802 18.1035 2.60402C18.1035 2.60402 16.89 2.60402 15.6825 2.95202C15.6285 2.96702 20.124 3.51302 21.0435 8.00702C21.0435 8.00702 20.55 6.97802 19.941 6.80402C20.3415 8.02352 20.2395 10.338 19.857 11.4885C19.8075 11.637 19.758 10.8495 19.005 10.5105C19.2465 12.237 18.99 14.9745 17.793 15.729C17.7 15.7875 18.543 13.026 17.9625 14.094C14.6175 19.2225 10.6635 16.461 8.886 15.2445C9.7965 15.4425 11.526 15.213 12.2925 14.6445C12.294 14.6445 12.294 14.643 12.2955 14.643C13.1265 14.0745 13.6185 13.659 14.061 13.758C14.5035 13.857 14.7975 13.413 14.454 13.0185C14.1105 12.624 13.275 12.081 12.1455 12.3765C11.349 12.585 10.3605 13.467 8.8545 12.5745C7.698 11.889 7.5885 11.319 7.578 10.9245C7.6065 10.785 7.6425 10.6545 7.686 10.5345C7.8195 10.1625 8.223 10.05 8.448 9.96152C8.829 10.0275 9.1575 10.146 9.5025 10.323C9.507 10.209 9.5085 10.056 9.5025 9.88352C9.5355 9.81752 9.5145 9.61952 9.462 9.37802C9.432 9.13652 9.3825 8.88602 9.303 8.65802L9.306 8.65652C9.3075 8.65502 9.309 8.65352 9.3105 8.65202C9.312 8.65052 9.3105 8.65052 9.312 8.65052C9.3135 8.64752 9.315 8.64452 9.3165 8.64002C9.3405 8.53202 9.5985 8.32352 9.9195 8.09852C10.2075 7.89752 10.545 7.68302 10.812 7.51802C11.0475 7.37102 11.2275 7.26302 11.265 7.23452C11.28 7.22402 11.2965 7.21052 11.316 7.19552C11.319 7.19252 11.3235 7.18952 11.3265 7.18652C11.3295 7.18352 11.331 7.18352 11.3325 7.18052C11.46 7.08002 11.649 6.88952 11.688 6.48752C11.688 6.48602 11.688 6.48602 11.688 6.48452C11.6895 6.47252 11.6895 6.46052 11.691 6.44852C11.691 6.43952 11.6925 6.43202 11.6925 6.42302C11.6925 6.41702 11.6925 6.40952 11.694 6.40352C11.694 6.38702 11.6955 6.37202 11.6955 6.35552C11.6955 6.35402 11.6955 6.35402 11.6955 6.35252C11.6955 6.31352 11.6955 6.27302 11.6925 6.23102C11.691 6.20702 11.6895 6.18602 11.685 6.16652C11.685 6.16502 11.685 6.16502 11.685 6.16352C11.685 6.16202 11.6835 6.15902 11.6835 6.15752C11.6835 6.15602 11.682 6.15002 11.6805 6.14702C11.6805 6.14702 11.6805 6.14702 11.6805 6.14552C11.679 6.14102 11.6775 6.13802 11.676 6.13502C11.6355 6.03902 11.481 6.00302 10.845 5.99102H10.8435C10.584 5.98652 10.245 5.98652 9.801 5.98802C9.021 5.99102 8.5905 5.22602 8.454 4.93052C8.643 3.88802 9.1875 3.14552 10.0815 2.64302C10.098 2.63402 10.095 2.62502 10.0755 2.62052C10.251 2.51402 7.9605 2.61752 6.9075 3.95702C5.973 3.72452 5.1585 3.74102 4.455 3.90452C4.32 3.90002 4.152 3.88352 3.9525 3.84302C3.486 3.42002 2.817 2.63852 2.781 1.70552C2.781 1.70552 2.7795 1.70702 2.775 1.71002C2.775 1.70102 2.7735 1.69202 2.7735 1.68302C2.7735 1.68302 1.35 2.77652 1.563 5.75852C1.563 5.80652 1.5615 5.85152 1.56 5.89652C1.1745 6.41852 0.984 6.85802 0.969 6.95552C0.627 7.65002 0.282 8.69552 0 10.2825C0 10.2825 0.1965 9.65702 0.5925 8.94902C0.3015 9.84002 0.0735 11.226 0.207 13.305C0.207 13.305 0.243 12.8445 0.3675 12.18C0.465 13.47 0.8955 15.0615 1.9815 16.9335C4.0665 20.5275 7.2705 22.341 10.812 22.62C11.4405 22.6725 12.0795 22.6725 12.72 22.6245C12.7785 22.62 12.8385 22.6155 12.897 22.611C13.623 22.56 14.3535 22.4505 15.0825 22.275C25.047 19.866 23.964 7.83302 23.964 7.83302L23.9655 7.83152Z" fill="black"/>
</svg>
