<svg width="24" height="24" viewBox="0 0 24 24" fill="none" xmlns="http://www.w3.org/2000/svg">
<path d="M17.208 14.7374H22.74C22.782 14.3534 22.8 13.9619 22.8 13.5614C22.8 11.6819 22.296 9.91794 21.414 8.39844C22.3245 5.97744 22.293 3.92244 21.0735 2.69394C19.914 1.53894 16.8015 1.72644 13.2825 3.28494C13.0215 3.26544 12.759 3.25494 12.4935 3.25494C7.6635 3.25494 3.612 6.57894 2.493 11.0564C4.008 9.11694 5.601 7.70994 7.731 6.68694C7.5375 6.86844 6.408 7.99194 6.2175 8.18094C0.602998 13.7939 -1.167 21.1259 0.737998 23.0309C2.1855 24.4784 4.8105 24.2339 7.8255 22.7579C9.2265 23.4719 10.8135 23.8739 12.495 23.8739C17.022 23.8739 20.8575 20.9609 22.2465 16.9019H16.671C15.9045 18.3164 14.403 19.2809 12.681 19.2809C10.959 19.2809 9.459 18.3179 8.691 16.9019C8.3505 16.2629 8.154 15.5294 8.154 14.7539V14.7374H17.2065H17.208ZM8.163 12.0194C8.2905 9.74394 10.1835 7.92744 12.4935 7.92744C14.8035 7.92744 16.6965 9.74244 16.824 12.0194H8.163ZM21.0225 3.83844C21.8085 4.63194 21.789 6.09294 21.117 7.91694C19.965 6.16194 18.2925 4.77744 16.317 3.98844C18.429 3.08244 20.1465 2.96244 21.0225 3.83844ZM2.1915 22.6694C1.1895 21.6659 1.491 19.5614 2.7825 17.0249C3.5865 19.2809 5.154 21.1754 7.173 22.3964C4.9365 23.4119 3.105 23.5844 2.1915 22.6694Z" fill="black"/>
</svg>
