<svg width="24" height="24" viewBox="0 0 24 24" fill="none" xmlns="http://www.w3.org/2000/svg">
<g clip-path="url(#clip0_201_67202)">
<path d="M12 0C5.3715 0 0 5.3715 0 12C0 18.6285 5.3715 24 12 24C18.6285 24 24 18.6285 24 12C24 5.3715 18.6285 0 12 0ZM22.4625 11.082L22.4385 10.833C22.443 10.917 22.452 10.9965 22.4625 11.082ZM20.8215 6.3L20.652 6.0465C20.7075 6.1305 20.7645 6.2145 20.8215 6.3ZM20.1705 5.4045L20.067 5.2785C20.1045 5.3205 20.1375 5.3625 20.1705 5.4045ZM18.717 3.9285L18.591 3.825C18.6375 3.8625 18.675 3.8955 18.717 3.9285ZM17.9535 3.3465L17.7 3.1785C17.784 3.2355 17.8695 3.291 17.9535 3.3465ZM13.167 1.566L12.9135 1.542C12.9975 1.5465 13.083 1.5555 13.167 1.566ZM11.082 1.5375L10.8285 1.5615C10.9125 1.557 10.9965 1.548 11.082 1.5375ZM6.3 3.1785L6.0465 3.3465C6.1305 3.2895 6.2145 3.234 6.3 3.1785ZM5.4045 3.8295L5.283 3.9285C5.325 3.8955 5.3625 3.8625 5.4045 3.8295ZM3.9285 5.283L3.825 5.409C3.8625 5.367 3.8955 5.325 3.9285 5.283ZM3.3465 6.0465L3.1785 6.3C3.2355 6.216 3.291 6.132 3.3465 6.0465ZM1.566 10.833L1.542 11.0865C1.5465 11.0025 1.5555 10.9185 1.566 10.833ZM1.5375 12.9195L1.5615 13.173C1.557 13.089 1.548 13.0035 1.5375 12.9195ZM3.1785 17.6955L3.3465 17.949C3.2895 17.8695 3.234 17.7855 3.1785 17.6955ZM3.375 17.991L5.2455 16.74L5.0385 16.4265L3.168 17.6775C2.319 16.3605 1.761 14.847 1.5735 13.215L2.694 13.1025L2.6565 12.7275L1.536 12.84C1.518 12.624 1.5075 12.4035 1.503 12.183H3.753V11.808H1.503C1.5075 11.5875 1.5165 11.3715 1.536 11.151L2.6565 11.259L2.694 10.884L1.5735 10.776C1.761 9.144 2.3235 7.6305 3.1725 6.3135L5.043 7.5645L5.25 7.251L3.375 6.009C3.501 5.8305 3.6285 5.6535 3.7635 5.484L4.6305 6.1965L4.869 5.9055L4.002 5.193C4.143 5.025 4.293 4.8645 4.443 4.7055L6.0315 6.294L6.2985 6.027L4.71 4.4385C4.869 4.2885 5.028 4.1385 5.193 3.9975L5.9055 4.869L6.1965 4.6305L5.484 3.7635C5.658 3.627 5.8305 3.4965 6.009 3.369L7.26 5.2395L7.5735 5.0325L6.3225 3.162C7.6395 2.313 9.1545 1.755 10.785 1.5675L10.8975 2.688L11.2725 2.6505L11.16 1.53C11.376 1.512 11.5965 1.5015 11.817 1.497V3.747H12.192V1.497C12.4125 1.5015 12.6285 1.5105 12.849 1.53L12.741 2.6505L13.116 2.688L13.224 1.5675C14.856 1.755 16.3695 2.3175 17.6865 3.1665L16.4355 5.037L16.749 5.244L18 3.3735C18.1785 3.4995 18.357 3.627 18.525 3.762L17.8125 4.629L18.1035 4.8675L18.816 4.0005C18.9855 4.1415 19.1445 4.2915 19.3035 4.4415L18.7035 5.028L10.5 10.4985L5.0295 18.702L4.443 19.2885C4.293 19.1295 4.143 18.969 4.002 18.8055L4.869 18.093L4.6305 17.802L3.7635 18.5145C3.627 18.345 3.501 18.168 3.375 17.9895V17.991ZM3.9285 18.717C3.8955 18.675 3.8625 18.6375 3.8295 18.5955L3.9285 18.717ZM5.283 20.0715L5.4045 20.1705C5.3625 20.1375 5.325 20.1045 5.283 20.0715ZM6.0465 20.649L6.3 20.8185C6.216 20.7675 6.132 20.7105 6.0465 20.649ZM10.833 22.434L11.0865 22.458C11.0025 22.4535 10.9185 22.4445 10.833 22.434ZM12.9195 22.4625L13.1685 22.4385C13.0845 22.443 13.005 22.452 12.9195 22.4625ZM17.7 20.8215L17.9535 20.652C17.8695 20.7075 17.784 20.7645 17.7 20.8215ZM18.5955 20.1705L18.7215 20.067C18.6795 20.1045 18.6375 20.1375 18.5955 20.1705ZM19.416 19.434L19.434 19.416C19.4295 19.4205 19.4205 19.4295 19.416 19.434ZM20.0715 18.717L20.175 18.591C20.1375 18.633 20.1045 18.675 20.0715 18.717ZM20.2365 18.516L19.3695 17.8035L19.131 18.0945L19.998 18.807C19.857 18.9765 19.707 19.1355 19.557 19.2945L17.9685 17.706L17.7015 17.973L19.29 19.5615C19.131 19.7115 18.9705 19.8615 18.807 20.0025L18.0945 19.131L17.8035 19.3695L18.516 20.2365C18.342 20.373 18.1695 20.5035 17.991 20.6295L16.74 18.759L16.4265 18.9645L17.6775 20.835C16.3605 21.684 14.847 22.242 13.215 22.4295L13.1025 21.309L12.7275 21.3465L12.84 22.467C12.624 22.485 12.4035 22.4955 12.183 22.5V20.25H11.808V22.5C11.5875 22.4955 11.3715 22.4865 11.151 22.467L11.259 21.3465L10.884 21.309L10.776 22.4295C9.144 22.242 7.6305 21.6795 6.3135 20.8305L7.5645 18.96L7.251 18.7545L6.009 20.625C5.8305 20.499 5.6535 20.3715 5.484 20.2365L6.1965 19.3695L5.9055 19.131L5.193 19.998C5.025 19.857 4.8645 19.707 4.7055 19.557L5.2965 18.9705L13.5 13.5L18.9705 5.2965L19.557 4.71C19.707 4.869 19.857 5.028 19.998 5.193L19.131 5.9055L19.3695 6.1965L20.2365 5.484C20.373 5.658 20.5035 5.8305 20.6295 6.009L18.759 7.26L18.9645 7.5735L20.835 6.3225C21.684 7.6395 22.242 9.1545 22.4295 10.785L21.309 10.8975L21.3465 11.2725L22.467 11.16C22.485 11.376 22.4955 11.5965 22.5 11.817H20.25V12.192H22.5C22.4955 12.4125 22.4865 12.6285 22.467 12.849L21.3465 12.741L21.309 13.116L22.4295 13.224C22.242 14.856 21.6795 16.3695 20.8305 17.6865L18.96 16.4355L18.7545 16.749L20.625 18C20.5035 18.1695 20.3715 18.342 20.2365 18.516ZM22.4625 12.9135C22.4535 12.9975 22.449 13.083 22.4385 13.167L22.4625 12.9135ZM20.8215 17.7C20.766 17.784 20.709 17.8695 20.652 17.9535L20.8215 17.7Z" fill="black"/>
<path d="M10.137 1.6665L10.5765 3.873L10.209 3.9465L9.7695 1.74L10.137 1.6665Z" fill="black"/>
<path d="M13.8675 22.3351L13.428 20.1286L13.7955 20.0551L14.235 22.2616L13.8675 22.3351Z" fill="black"/>
<path d="M9.132 1.896L9.459 2.973L9.1005 3.0825L8.7735 2.0055L9.132 1.896Z" fill="black"/>
<path d="M14.8695 22.0995L14.5425 21.0225L14.901 20.913L15.228 21.99L14.8695 22.0995Z" fill="black"/>
<path d="M8.157 2.229L9.018 4.308L8.6715 4.452L7.8105 2.373L8.157 2.229Z" fill="black"/>
<path d="M15.846 21.7726L14.985 19.6936L15.3315 19.5496L16.1925 21.6286L15.846 21.7726Z" fill="black"/>
<path d="M6.882 2.82751L7.212 2.65051L7.743 3.64201L7.413 3.81901L6.882 2.82751Z" fill="black"/>
<path d="M17.112 21.1709L16.782 21.3479L16.251 20.3564L16.581 20.1794L17.112 21.1709Z" fill="black"/>
<path d="M2.826 6.88647L3.819 7.41597L3.642 7.74747L2.6505 7.21797L2.8275 6.88647H2.826Z" fill="black"/>
<path d="M21.1695 17.1135L20.1765 16.584L20.3535 16.254L21.3465 16.7835L21.1695 17.1135Z" fill="black"/>
<path d="M4.308 9.015L2.229 8.154L2.373 7.8075L4.452 8.66849L4.308 9.015Z" fill="black"/>
<path d="M19.695 14.9835L21.774 15.8445L21.63 16.191L19.551 15.33L19.695 14.9835Z" fill="black"/>
<path d="M2.0055 8.77502L3.0825 9.10202L2.973 9.46052L1.896 9.13352L2.0055 8.77502Z" fill="black"/>
<path d="M21.9915 15.2265L20.9145 14.8995L21.024 14.541L22.101 14.868L21.9915 15.2265Z" fill="black"/>
<path d="M1.7355 9.76807L3.942 10.2076L3.8685 10.5751L1.662 10.1356L1.7355 9.76807Z" fill="black"/>
<path d="M22.26 14.232L20.0535 13.7925L20.127 13.425L22.3335 13.8645L22.26 14.232Z" fill="black"/>
<path d="M1.6635 13.8645L3.87 13.425L3.9435 13.7925L1.737 14.232L1.6635 13.8645Z" fill="black"/>
<path d="M22.332 10.1356L20.1255 10.5751L20.052 10.2076L22.2585 9.76807L22.332 10.1356Z" fill="black"/>
<path d="M1.89751 14.8709L2.97451 14.5439L3.08401 14.9024L2.00701 15.2294L1.89751 14.8709Z" fill="black"/>
<path d="M22.101 9.13352L21.024 9.46052L20.9145 9.10202L21.9915 8.77502L22.101 9.13352Z" fill="black"/>
<path d="M2.37 16.1941L2.226 15.8476L4.305 14.9866L4.449 15.3331L2.37 16.1941Z" fill="black"/>
<path d="M21.6285 7.81042L21.7725 8.15693L19.6935 9.01793L19.5495 8.67143L21.6285 7.81042Z" fill="black"/>
<path d="M2.832 17.115L2.655 16.785L3.6465 16.254L3.8235 16.584L2.832 17.115Z" fill="black"/>
<path d="M21.174 6.88501L21.351 7.21501L20.3595 7.74601L20.1825 7.41601L21.174 6.88501Z" fill="black"/>
<path d="M7.2165 21.3479L6.88651 21.1709L7.41751 20.1794L7.74751 20.3564L7.2165 21.3479Z" fill="black"/>
<path d="M16.7835 2.65051L17.1135 2.82751L16.584 3.81901L16.254 3.64201L16.7835 2.65051Z" fill="black"/>
<path d="M7.8105 21.6286L8.6715 19.5496L9.018 19.6936L8.157 21.7726L7.8105 21.6286Z" fill="black"/>
<path d="M16.1925 2.36995L15.3315 4.44895L14.985 4.30495L15.846 2.22595L16.1925 2.36995Z" fill="black"/>
<path d="M9.132 22.1025L8.7735 21.993L9.1005 20.916L9.459 21.0255L9.132 22.1025Z" fill="black"/>
<path d="M14.868 1.896L15.2265 2.0055L14.8995 3.0825L14.541 2.973L14.868 1.896Z" fill="black"/>
<path d="M10.1355 22.332L9.76801 22.2585L10.2075 20.052L10.575 20.1255L10.1355 22.332Z" fill="black"/>
<path d="M13.8645 1.66345L14.232 1.73695L13.7925 3.94345L13.425 3.86995L13.8645 1.66345Z" fill="black"/>
</g>
<defs>
<clipPath id="clip0_201_67202">
<rect width="24" height="24" fill="white"/>
</clipPath>
</defs>
</svg>
