<svg width="24" height="24" viewBox="0 0 24 24" fill="none" xmlns="http://www.w3.org/2000/svg">
<g clip-path="url(#clip0_201_67236)">
<path d="M24 12C24 15.5535 22.4535 18.75 19.9965 20.9445C16.917 22.4445 14.0475 21.3945 13.101 20.739C16.125 20.0775 18.4065 16.422 18.4065 12.0015C18.4065 7.58101 16.1235 3.92551 13.101 3.25951C14.052 2.60251 16.9215 1.55401 19.9965 3.05251C22.452 5.25151 24 8.44801 24 12.0015V12Z" fill="black"/>
<path d="M8.049 5.2365C6.723 6.8025 5.865 9.117 5.808 11.7195C5.808 11.724 5.808 12.2775 5.808 12.2865C5.865 14.883 6.7275 17.199 8.0535 18.765C9.774 21.0015 12.333 22.416 15.192 22.416C16.95 22.416 18.5955 21.882 20.001 20.949C17.8725 22.848 15.0705 24 12 24C11.808 24 11.616 23.9955 11.4285 23.9865C5.067 23.6865 0 18.4365 0 12C0 5.3715 5.3715 0 12 0C12.0135 0 12.0285 0 12.0465 0C15.102 0.009 17.8875 1.1625 20.001 3.057C18.594 2.124 16.95 1.5855 15.192 1.5855C12.333 1.5855 9.774 3.0015 8.0475 5.2365H8.049Z" fill="black"/>
</g>
<defs>
<clipPath id="clip0_201_67236">
<rect width="24" height="24" fill="white"/>
</clipPath>
</defs>
</svg>
