<svg width="24" height="24" viewBox="0 0 24 24" fill="none" xmlns="http://www.w3.org/2000/svg">
<g clip-path="url(#clip0_201_67239)">
<path d="M19.734 13.8165C19.4145 13.5015 18.705 13.335 17.625 13.32C16.8945 13.3125 16.0155 13.377 15.09 13.506C14.676 13.2675 14.2485 13.0065 13.914 12.693C13.0125 11.8515 12.2595 10.683 11.7915 9.39754C11.8215 9.27754 11.8485 9.17254 11.8725 9.06454C11.8725 9.06454 12.381 6.18004 12.246 5.20504C12.228 5.07154 12.216 5.03254 12.18 4.92904L12.1365 4.81504C11.9985 4.49704 11.727 4.15954 11.3025 4.17754L11.046 4.17004C10.572 4.17004 10.1865 4.41154 10.086 4.77454C9.77851 5.91004 10.0965 7.60804 10.671 9.80704L10.524 10.1655C10.1115 11.1705 9.59551 12.183 9.13951 13.0755L9.07951 13.191C8.59951 14.13 8.16451 14.9265 7.77001 15.6015L7.36351 15.8175C7.33351 15.8325 6.63601 16.203 6.47251 16.302C5.08351 17.1315 4.16401 18.072 4.01101 18.819C3.96301 19.0575 3.99901 19.362 4.24501 19.503L4.63951 19.701C4.81051 19.7865 4.99051 19.83 5.17501 19.83C6.16351 19.83 7.31251 18.5985 8.89501 15.837C10.722 15.243 12.801 14.748 14.6235 14.475C16.0125 15.2565 17.721 15.7995 18.798 15.7995C18.99 15.7995 19.155 15.7815 19.2885 15.7455C19.4955 15.69 19.6695 15.573 19.776 15.4125C19.9845 15.0975 20.028 14.664 19.971 14.22C19.9545 14.088 19.8495 13.926 19.7355 13.8135L19.734 13.8165ZM4.96051 19.08C5.14051 18.5865 5.85451 17.6115 6.91051 16.746C6.97651 16.692 7.14001 16.539 7.29001 16.3965C6.18601 18.1575 5.44651 18.8595 4.96051 19.0785V19.08ZM11.214 4.68004C11.532 4.68004 11.7135 5.48104 11.7285 6.23254C11.7435 6.98404 11.568 7.51204 11.3505 7.90204C11.1705 7.32454 11.082 6.41404 11.082 5.81854C11.082 5.81854 11.0685 4.68004 11.214 4.68004ZM9.34801 14.9415C9.57001 14.5455 9.79951 14.127 10.035 13.683C10.6095 12.597 10.971 11.748 11.241 11.0505C11.778 12.027 12.447 12.858 13.233 13.524C13.3305 13.6065 13.4355 13.6905 13.5435 13.773C11.9445 14.0895 10.563 14.4735 9.34651 14.9415H9.34801ZM19.428 14.8515C19.3305 14.913 19.0515 14.9475 18.873 14.9475C18.294 14.9475 17.577 14.6835 16.5735 14.2515C16.959 14.223 17.313 14.208 17.631 14.208C18.2115 14.208 18.384 14.205 18.951 14.3505C19.518 14.496 19.5255 14.79 19.428 14.85V14.8515Z" fill="black"/>
<path d="M21.5115 5.3685C20.991 4.659 20.265 3.828 19.4685 3.0315C18.672 2.235 17.841 1.509 17.1315 0.9885C15.9225 0.102 15.336 0 15 0H3.375C2.3415 0 1.5 0.8415 1.5 1.875V22.125C1.5 23.1585 2.3415 24 3.375 24H20.625C21.6585 24 22.5 23.1585 22.5 22.125V7.5C22.5 7.164 22.398 6.5775 21.5115 5.3685ZM18.4065 4.0935C19.1265 4.8135 19.6905 5.4615 20.1075 6H16.4985V2.3925C17.037 2.8095 17.6865 3.3735 18.405 4.0935H18.4065ZM21 22.125C21 22.329 20.829 22.5 20.625 22.5H3.375C3.1725 22.5 3 22.329 3 22.125V1.875C3 1.6725 3.1725 1.5 3.375 1.5C3.375 1.5 14.9985 1.5 15 1.5V6.75C15 7.164 15.336 7.5 15.75 7.5H21V22.125Z" fill="black"/>
</g>
<defs>
<clipPath id="clip0_201_67239">
<rect width="24" height="24" fill="white"/>
</clipPath>
</defs>
</svg>
