<svg width="24" height="24" viewBox="0 0 24 24" fill="none" xmlns="http://www.w3.org/2000/svg">
<g clip-path="url(#clip0_201_67242)">
<path d="M16.1775 11.055C14.7555 10.383 12.9435 10.248 11.6115 11.1975C13.2315 11.043 15.009 11.3115 16.185 12.537C17.31 11.2455 19.0935 11.004 20.7075 11.1375C19.3605 10.2435 17.5845 10.3635 16.179 11.0565L16.1775 11.055ZM15.6015 14.1975C13.9995 14.16 12.45 14.7405 11.1225 15.606C8.61001 14.538 5.43301 14.736 3.29401 16.5195C3.91051 16.497 4.51351 16.3455 5.12401 16.266C7.35451 16.044 9.73201 16.5975 11.418 18.1365C12.1155 17.1165 13.0965 16.302 14.223 15.795C15.702 15.0795 17.367 15.006 18.9765 14.9865C18 14.3145 16.7595 14.19 15.603 14.1975H15.6015Z" fill="black"/>
<path d="M21.5115 5.3685C20.991 4.659 20.265 3.828 19.4685 3.0315C18.672 2.235 17.841 1.509 17.1315 0.9885C15.9225 0.102 15.336 0 15 0H3.375C2.3415 0 1.5 0.8415 1.5 1.875V22.125C1.5 23.1585 2.3415 24 3.375 24H20.625C21.6585 24 22.5 23.1585 22.5 22.125V7.5C22.5 7.164 22.398 6.5775 21.5115 5.3685ZM18.4065 4.0935C19.1265 4.8135 19.6905 5.4615 20.1075 6H16.4985V2.3925C17.037 2.8095 17.6865 3.3735 18.405 4.0935H18.4065ZM21 22.125C21 22.329 20.829 22.5 20.625 22.5H3.375C3.1725 22.5 3 22.329 3 22.125V1.875C3 1.6725 3.1725 1.5 3.375 1.5C3.375 1.5 14.9985 1.5 15 1.5V6.75C15 7.164 15.336 7.5 15.75 7.5H21V22.125Z" fill="black"/>
</g>
<defs>
<clipPath id="clip0_201_67242">
<rect width="24" height="24" fill="white"/>
</clipPath>
</defs>
</svg>
