<svg width="24" height="24" viewBox="0 0 24 24" fill="none" xmlns="http://www.w3.org/2000/svg">
<g clip-path="url(#clip0_201_67259)">
<path d="M23.5468 10.9308L13.0678 0.451762C12.4648 -0.151238 11.4853 -0.151238 10.8823 0.451762L8.44775 2.88626L10.2793 4.71776C10.5733 4.57676 10.9018 4.49876 11.2498 4.49876C12.4918 4.49876 13.4998 5.50676 13.4998 6.74876C13.4998 7.09676 13.4203 7.42526 13.2808 7.71926L16.2808 10.7193C16.5748 10.5783 16.9033 10.5003 17.2513 10.5003C18.4933 10.5003 19.5013 11.5083 19.5013 12.7503C19.5013 13.9923 18.4933 15.0003 17.2513 15.0003C16.0093 15.0003 15.0013 13.9923 15.0013 12.7503C15.0013 12.4023 15.0808 12.0738 15.2203 11.7798L12.2203 8.77976C12.1483 8.81426 12.0748 8.84426 11.9998 8.87126V15.1278C12.8743 15.4368 13.4998 16.2693 13.4998 17.2488C13.4998 18.4908 12.4918 19.4988 11.2498 19.4988C10.0078 19.4988 8.99975 18.4908 8.99975 17.2488C8.99975 16.2693 9.62525 15.4368 10.4998 15.1278V8.87126C9.62525 8.56226 8.99975 7.72976 8.99975 6.75026C8.99975 6.40226 9.07925 6.07376 9.21875 5.77976L7.38725 3.94826L0.452754 10.8828C-0.150246 11.4873 -0.150246 12.4653 0.452754 13.0698L10.9318 23.5488C11.5348 24.1518 12.5128 24.1518 13.1173 23.5488L23.5468 13.1193C24.1498 12.5148 24.1498 11.5368 23.5468 10.9323V10.9308Z" fill="black"/>
</g>
<defs>
<clipPath id="clip0_201_67259">
<rect width="24" height="24" fill="white"/>
</clipPath>
</defs>
</svg>
