<svg width="24" height="24" viewBox="0 0 24 24" fill="none" xmlns="http://www.w3.org/2000/svg">
<g clip-path="url(#clip0_201_67261)">
<path d="M22.1655 8.6265L11.6655 1.626C11.4135 1.458 11.085 1.458 10.833 1.626L0.333005 8.6265C0.124505 8.766 -0.00149536 9 -0.00149536 9.2505V16.251C-0.00149536 16.5015 0.124505 16.7355 0.333005 16.875L10.833 23.8755C10.959 23.9595 11.1045 24.0015 11.2485 24.0015C11.3925 24.0015 11.538 23.9595 11.664 23.8755L22.164 16.875C22.3725 16.7355 22.4985 16.5015 22.4985 16.251V9.2505C22.4985 9 22.3725 8.766 22.164 8.6265H22.1655ZM11.25 15.348L7.3515 12.75L11.25 10.152L15.1485 12.75L11.25 15.348ZM12 8.8485V3.651L20.3985 9.249L16.5 11.847L12 8.847V8.8485ZM10.5 8.8485L6 11.8485L2.1015 9.2505L10.5 3.6525V8.85V8.8485ZM4.6485 12.75L1.5 14.8485V10.6515L4.6485 12.75ZM6 13.6515L10.5 16.6515V21.849L2.1015 16.251L6 13.653V13.6515ZM12 16.6515L16.5 13.6515L20.3985 16.2495L12 21.8475V16.65V16.6515ZM17.8515 12.75L21 10.6515V14.8485L17.8515 12.75Z" fill="black"/>
</g>
<defs>
<clipPath id="clip0_201_67261">
<rect width="24" height="24" fill="white"/>
</clipPath>
</defs>
</svg>
