<svg width="24" height="24" viewBox="0 0 24 24" fill="none" xmlns="http://www.w3.org/2000/svg">
<g clip-path="url(#clip0_201_67265)">
<path d="M6.0825 12C6.0825 10.467 7.326 9.2235 8.859 9.2235C10.392 9.2235 11.6355 10.467 11.6355 12C11.6355 13.533 10.392 14.7765 8.859 14.7765C7.326 14.7765 6.0825 13.533 6.0825 12ZM12 0C5.373 0 0 5.373 0 12C0 18.627 5.373 24 12 24C18.627 24 24 18.627 24 12C24 5.373 18.627 0 12 0ZM8.892 22.4835C5.283 20.3835 2.8575 16.476 2.8575 12C2.8575 7.524 5.283 3.6165 8.892 1.5165C12.501 3.615 14.9295 7.524 14.9295 12C14.9295 16.476 12.5025 20.3835 8.892 22.4835Z" fill="black"/>
</g>
<defs>
<clipPath id="clip0_201_67265">
<rect width="24" height="24" fill="white"/>
</clipPath>
</defs>
</svg>
