<svg width="24" height="24" viewBox="0 0 24 24" fill="none" xmlns="http://www.w3.org/2000/svg">
<path d="M10.401 10.55L9.82897 12.376H11.732L11.149 10.55C11.0332 10.185 10.9319 9.78393 10.8392 9.41684C10.8173 9.33037 10.7959 9.24579 10.775 9.164H10.753C10.7153 9.31099 10.6776 9.46831 10.639 9.62933C10.565 9.93825 10.4877 10.2608 10.401 10.55Z" fill="black"/>
<path fill-rule="evenodd" clip-rule="evenodd" d="M6.76948 3.08148C10.2176 2.69611 13.7823 2.69611 17.2304 3.08148C19.1288 3.29366 20.66 4.78944 20.8828 6.69449C21.2951 10.2195 21.2951 13.7805 20.8828 17.3055C20.66 19.2106 19.1288 20.7064 17.2304 20.9185C13.7823 21.3039 10.2176 21.3039 6.76948 20.9185C4.87108 20.7064 3.33989 19.2106 3.11707 17.3055C2.70479 13.7805 2.70479 10.2195 3.11707 6.69449C3.33989 4.78944 4.87108 3.29366 6.76948 3.08148ZM15.9324 10.143V15.5H14.5684V10.143H15.9324ZM14.4914 8.647C14.4914 8.229 14.7994 7.91 15.2504 7.91C15.7124 7.91 15.9984 8.229 16.0094 8.647C16.0094 9.054 15.7124 9.373 15.2394 9.373C14.7884 9.373 14.4914 9.054 14.4914 8.647ZM12.634 15.5L11.963 13.399H9.60897L8.97097 15.5H7.57397L9.94997 8.086H11.677L14.086 15.5H12.634Z" fill="black"/>
</svg>
