<svg width="24" height="24" viewBox="0 0 24 24" fill="none" xmlns="http://www.w3.org/2000/svg">
<path d="M9.87636 9.06501C9.50236 9.06501 9.23836 9.09801 9.09536 9.13101V11.639C9.26036 11.683 9.48036 11.694 9.75536 11.694C10.7674 11.694 11.3834 11.199 11.3834 10.33C11.3834 9.50501 10.8114 9.06501 9.87636 9.06501Z" fill="black"/>
<path fill-rule="evenodd" clip-rule="evenodd" d="M6.76948 3.08148C10.2176 2.69611 13.7823 2.69611 17.2304 3.08148C19.1288 3.29366 20.66 4.78944 20.8828 6.69449C21.2951 10.2195 21.2951 13.7805 20.8828 17.3055C20.66 19.2106 19.1288 20.7064 17.2304 20.9185C13.7823 21.3039 10.2176 21.3039 6.76948 20.9185C4.87108 20.7064 3.33989 19.2106 3.11707 17.3055C2.70479 13.7805 2.70479 10.2195 3.11707 6.69449C3.33989 4.78944 4.87108 3.29366 6.76948 3.08148ZM9.09536 15.5H7.75336V8.18501C8.23736 8.09701 8.90836 8.03101 9.82136 8.03101C10.8114 8.03101 11.5374 8.24001 12.0104 8.63601C12.4504 8.99901 12.7364 9.58201 12.7364 10.275C12.7364 10.979 12.5164 11.562 12.0984 11.958C11.5594 12.497 10.7124 12.75 9.75536 12.75C9.50236 12.75 9.27136 12.739 9.09536 12.706V15.5ZM14.4646 15.621C13.8156 15.621 13.2326 15.456 12.8366 15.236L13.1006 14.257C13.4086 14.444 13.9916 14.642 14.4756 14.642C15.0696 14.642 15.3336 14.4 15.3336 14.048C15.3336 13.685 15.1136 13.498 14.4536 13.267C13.4086 12.904 12.9686 12.332 12.9796 11.705C12.9796 10.759 13.7606 10.022 15.0036 10.022C15.5976 10.022 16.1146 10.176 16.4226 10.341L16.1586 11.298C15.9276 11.166 15.4986 10.99 15.0256 10.99C14.5416 10.99 14.2776 11.221 14.2776 11.551C14.2776 11.892 14.5306 12.057 15.2126 12.299C16.1806 12.651 16.6316 13.146 16.6426 13.938C16.6426 14.906 15.8836 15.621 14.4646 15.621Z" fill="black"/>
</svg>
