<svg width="24" height="24" viewBox="0 0 24 24" fill="none" xmlns="http://www.w3.org/2000/svg">
<path fill-rule="evenodd" clip-rule="evenodd" d="M6.76948 3.08148C10.2176 2.69611 13.7823 2.69611 17.2304 3.08148C19.1288 3.29366 20.66 4.78944 20.8828 6.69449C21.2951 10.2195 21.2951 13.7805 20.8828 17.3055C20.66 19.2106 19.1288 20.7064 17.2304 20.9185C13.7823 21.3039 10.2176 21.3039 6.76948 20.9185C4.87108 20.7064 3.33989 19.2106 3.11707 17.3055C2.70479 13.7805 2.70479 10.2195 3.11707 6.69449C3.33989 4.78944 4.87108 3.29366 6.76948 3.08148ZM16.4105 8.98006L17.2499 8.17713L17.2493 8H14.3475L12.2793 13.1601L9.92651 8.00065H6.88278V8.17713L7.8635 9.35776C7.91091 9.40044 7.94759 9.4537 7.97056 9.51322C7.99353 9.57273 8.00214 9.63682 7.99569 9.70029V14.3414C8.00976 14.4239 8.00424 14.5086 7.97958 14.5885C7.95493 14.6685 7.91181 14.7416 7.85373 14.8018L6.74994 16.14V16.3159H9.87702V16.14L8.77388 14.8018C8.71532 14.7416 8.67122 14.6689 8.64493 14.5891C8.61865 14.5093 8.61085 14.4246 8.62215 14.3414V10.3281L11.367 16.3165H11.6861L14.0434 10.3281V15.1014C14.0434 15.2277 14.0434 15.2525 13.9601 15.3358L13.1115 16.1589V16.3348H17.2291V16.1589L16.4105 15.3553C16.3751 15.3283 16.3478 15.2921 16.3314 15.2507C16.315 15.2093 16.3102 15.1642 16.3174 15.1203V9.21515C16.3102 9.1712 16.315 9.1261 16.3314 9.08469C16.3478 9.04328 16.3751 9.00711 16.4105 8.98006Z" fill="black"/>
</svg>
