<svg width="24" height="24" viewBox="0 0 24 24" fill="none" xmlns="http://www.w3.org/2000/svg">
<path fill-rule="evenodd" clip-rule="evenodd" d="M6.76948 3.08148C10.2176 2.69611 13.7823 2.69611 17.2304 3.08148C19.1288 3.29366 20.66 4.78944 20.8828 6.69449C21.2951 10.2195 21.2951 13.7805 20.8828 17.3055C20.66 19.2106 19.1288 20.7064 17.2304 20.9185C13.7823 21.3039 10.2176 21.3039 6.76948 20.9185C4.87108 20.7064 3.33989 19.2106 3.11707 17.3055C2.70479 13.7805 2.70479 10.2195 3.11707 6.69449C3.33989 4.78944 4.87108 3.29366 6.76948 3.08148ZM16.5749 7.25C16.6366 7.5947 16.5568 7.93083 16.2366 7.96106L15.7053 8.05695L15.4846 16.374C15.0167 16.6242 14.591 16.7615 14.2396 16.7492C13.6729 16.7295 13.5362 16.5344 13.1292 15.9534L9.82402 10.0074L9.67444 15.643L10.7624 15.9474C10.7624 15.9474 10.7443 16.6282 9.86184 16.5975L7.42238 16.6647C7.35557 16.5103 7.4365 16.1328 7.68668 16.0685L8.32652 15.9003L8.52425 8.45078L7.6438 8.34408C7.58204 7.99938 7.77246 7.515 8.26599 7.49445L10.8833 7.39509L14.3279 13.4217L14.4665 8.20063L13.5514 8.0544C13.4915 7.63736 13.7802 7.34318 14.1353 7.32025L16.5749 7.25Z" fill="black"/>
</svg>
