<svg width="24" height="24" viewBox="0 0 24 24" fill="none" xmlns="http://www.w3.org/2000/svg">
<path fill-rule="evenodd" clip-rule="evenodd" d="M6.76948 3.08148C10.2176 2.69611 13.7823 2.69611 17.2304 3.08148C19.1288 3.29366 20.66 4.78944 20.8828 6.69449C21.2951 10.2195 21.2951 13.7805 20.8828 17.3055C20.66 19.2106 19.1288 20.7064 17.2304 20.9185C13.7823 21.3039 10.2176 21.3039 6.76948 20.9185C4.87108 20.7064 3.33989 19.2106 3.11707 17.3055C2.70479 13.7805 2.70479 10.2195 3.11707 6.69449C3.33989 4.78944 4.87108 3.29366 6.76948 3.08148ZM10.8729 16.4069C10.9218 16.2903 10.9469 16.1652 10.9468 16.039V6.9585C10.9468 6.4295 10.5115 6 9.97274 6H6.97147C6.43528 6 5.99994 6.43 5.99994 6.9585V16.039C6.00021 16.2934 6.10257 16.5373 6.28464 16.7174C6.4667 16.8974 6.71366 16.9991 6.97147 17H9.97274C10.1007 17.0001 10.2274 16.9754 10.3457 16.9271C10.4639 16.8789 10.5713 16.8081 10.6618 16.7188C10.7523 16.6296 10.824 16.5236 10.8729 16.4069ZM17.7154 12.7175C17.8975 12.5374 17.9998 12.2934 17.9999 12.039V6.9585C17.9999 6.4295 17.5641 6 17.0284 6H14.0271C13.4914 6 13.0531 6.43 13.0531 6.9585V12.039C13.0533 12.2938 13.156 12.5381 13.3387 12.7182C13.5213 12.8984 13.7689 12.9997 14.0271 13H17.0284C17.2863 12.9992 17.5333 12.8976 17.7154 12.7175Z" fill="black"/>
</svg>
