<svg width="24" height="24" viewBox="0 0 24 24" fill="none" xmlns="http://www.w3.org/2000/svg">
<path d="M20.6699 5.84994C20.2654 5.61161 19.8045 5.48593 19.3349 5.48593C18.8654 5.48593 18.4045 5.61161 17.9999 5.84994L13.9999 8.14994C13.999 7.68219 13.8753 7.22288 13.641 6.818C13.4068 6.41313 13.0703 6.07689 12.6652 5.84297C12.2601 5.60905 11.8007 5.48564 11.333 5.48511C10.8652 5.48458 10.4055 5.60694 9.99995 5.83994L3.32995 9.68994C2.92513 9.92459 2.58908 10.2615 2.35547 10.6669C2.12186 11.0723 1.9989 11.532 1.9989 11.9999C1.9989 12.4679 2.12186 12.9275 2.35547 13.333C2.58908 13.7384 2.92513 14.0753 3.32995 14.3099L9.99995 18.1599C10.4055 18.3953 10.8661 18.5192 11.3349 18.5192C11.8038 18.5192 12.2644 18.3953 12.6699 18.1599C13.0759 17.9267 13.4129 17.5901 13.6465 17.1843C13.8801 16.7786 14.0021 16.3182 13.9999 15.8499L17.9999 18.1599C18.4045 18.3934 18.8629 18.5174 19.3299 18.5199C19.8018 18.52 20.2649 18.3921 20.6699 18.1499C21.0758 17.9191 21.413 17.5844 21.6467 17.1802C21.8805 16.776 22.0024 16.3169 21.9999 15.8499V8.14994C22.0024 7.68302 21.8805 7.22386 21.6467 6.81965C21.413 6.41544 21.0758 6.08074 20.6699 5.84994ZM11.9999 15.8499C12.0014 15.9672 11.9716 16.0828 11.9136 16.1847C11.8556 16.2867 11.7715 16.3713 11.6699 16.4299C11.5675 16.4869 11.4522 16.5167 11.3349 16.5167C11.2177 16.5167 11.1024 16.4869 10.9999 16.4299L4.32995 12.5799C4.2282 12.5211 4.14373 12.4365 4.085 12.3347C4.02627 12.2329 3.99536 12.1175 3.99536 11.9999C3.99536 11.8824 4.02627 11.767 4.085 11.6651C4.14373 11.5633 4.2282 11.4788 4.32995 11.4199L10.9999 7.56994C11.1018 7.51114 11.2173 7.48018 11.3349 7.48018C11.4526 7.48018 11.5681 7.51114 11.6699 7.56994C11.7715 7.62858 11.8556 7.71322 11.9136 7.81516C11.9716 7.91711 12.0014 8.03266 11.9999 8.14994V15.8499ZM19.9999 15.8499C19.9977 15.966 19.9653 16.0794 19.9061 16.1791C19.8468 16.2789 19.7627 16.3615 19.6619 16.419C19.5611 16.4765 19.4471 16.5068 19.331 16.5069C19.215 16.5071 19.1009 16.4771 18.9999 16.4199L13.9999 13.5399V10.4599L18.9999 7.57994C19.1009 7.52277 19.215 7.4928 19.331 7.49297C19.4471 7.49313 19.5611 7.52343 19.6619 7.58089C19.7627 7.63834 19.8468 7.721 19.9061 7.82075C19.9653 7.9205 19.9977 8.03393 19.9999 8.14994V15.8499Z" fill="black"/>
</svg>
