<svg width="24" height="24" viewBox="0 0 24 24" fill="none" xmlns="http://www.w3.org/2000/svg">
<path d="M11 12V13H10C9.73482 13 9.48046 13.1054 9.29293 13.2929C9.10539 13.4804 9.00003 13.7348 9.00003 14C9.00003 14.2652 9.10539 14.5196 9.29293 14.7071C9.48046 14.8946 9.73482 15 10 15H11V16C11 16.2652 11.1054 16.5196 11.2929 16.7071C11.4805 16.8946 11.7348 17 12 17C12.2653 17 12.5196 16.8946 12.7071 16.7071C12.8947 16.5196 13 16.2652 13 16V15H14C14.2653 15 14.5196 14.8946 14.7071 14.7071C14.8947 14.5196 15 14.2652 15 14C15 13.7348 14.8947 13.4804 14.7071 13.2929C14.5196 13.1054 14.2653 13 14 13H13V12C13 11.7348 12.8947 11.4804 12.7071 11.2929C12.5196 11.1054 12.2653 11 12 11C11.7348 11 11.4805 11.1054 11.2929 11.2929C11.1054 11.4804 11 11.7348 11 12ZM21.6641 10.2524L12.6641 2.25244C12.4812 2.08968 12.2449 1.99976 12 1.99976C11.7552 1.99976 11.5189 2.08968 11.336 2.25244L2.33597 10.2524C2.13771 10.4286 2.01753 10.6762 2.00187 10.941C1.98621 11.2057 2.07635 11.4658 2.25247 11.6641C2.42859 11.8623 2.67626 11.9825 2.94099 11.9982C3.20572 12.0138 3.46583 11.9237 3.66409 11.7476L4.00003 11.449V21C4 21.1313 4.02584 21.2614 4.07609 21.3827C4.12633 21.5041 4.19999 21.6143 4.29285 21.7072C4.38572 21.8 4.49597 21.8737 4.61731 21.9239C4.73865 21.9742 4.8687 22 5.00003 22H19C19.1314 22 19.2614 21.9742 19.3828 21.9239C19.5041 21.8737 19.6144 21.8 19.7072 21.7072C19.8001 21.6143 19.8737 21.5041 19.924 21.3827C19.9742 21.2614 20.0001 21.1313 20 21V11.449L20.336 11.7476C20.4341 11.8348 20.5485 11.9018 20.6726 11.9448C20.7967 11.9878 20.928 12.0059 21.0591 11.9982C21.1902 11.9904 21.3184 11.9569 21.4366 11.8996C21.5547 11.8423 21.6604 11.7623 21.7476 11.6641C21.8348 11.5659 21.9018 11.4515 21.9448 11.3275C21.9878 11.2034 22.006 11.0721 21.9982 10.941C21.9904 10.8099 21.9569 10.6816 21.8996 10.5635C21.8423 10.4454 21.7623 10.3397 21.6641 10.2525V10.2524ZM18 20H6.00003V9.6712L12 4.33789L18 9.6712V20Z" fill="black"/>
</svg>
