<svg width="24" height="24" viewBox="0 0 24 24" fill="none" xmlns="http://www.w3.org/2000/svg">
<path d="M12.5 16.92H11.73L12.12 16.25C12.2526 16.0193 12.2882 15.7453 12.2188 15.4884C12.1494 15.2315 11.9808 15.0127 11.75 14.88C11.5193 14.7474 11.2453 14.7119 10.9884 14.7813C10.7315 14.8507 10.5126 15.0193 10.38 15.25L10 15.92L9.62004 15.25C9.48743 15.0193 9.26859 14.8507 9.01167 14.7813C8.75474 14.7119 8.48077 14.7474 8.25004 14.88C8.0193 15.0127 7.85069 15.2315 7.7813 15.4884C7.71191 15.7453 7.74743 16.0193 7.88004 16.25L8.27004 16.92H7.50004C7.23482 16.92 6.98047 17.0254 6.79293 17.2129C6.60539 17.4005 6.50004 17.6548 6.50004 17.92C6.50004 18.1853 6.60539 18.4396 6.79293 18.6272C6.98047 18.8147 7.23482 18.92 7.50004 18.92H8.27004L7.88004 19.58C7.74743 19.8108 7.71191 20.0847 7.7813 20.3417C7.85069 20.5986 8.0193 20.8174 8.25004 20.95C8.48077 21.0827 8.75474 21.1182 9.01167 21.0488C9.26859 20.9794 9.48743 20.8108 9.62004 20.58L10 19.92L10.38 20.58C10.4457 20.6943 10.5332 20.7945 10.6376 20.8749C10.742 20.9553 10.8612 21.0144 10.9884 21.0488C11.1156 21.0831 11.2484 21.0921 11.379 21.0752C11.5097 21.0582 11.6358 21.0157 11.75 20.95C11.8643 20.8844 11.9645 20.7969 12.0449 20.6925C12.1253 20.5881 12.1844 20.4689 12.2188 20.3417C12.2531 20.2145 12.2621 20.0817 12.2452 19.951C12.2282 19.8204 12.1857 19.6943 12.12 19.58L11.73 18.92H12.5C12.7653 18.92 13.0196 18.8147 13.2071 18.6272C13.3947 18.4396 13.5 18.1853 13.5 17.92C13.5 17.6548 13.3947 17.4005 13.2071 17.2129C13.0196 17.0254 12.7653 16.92 12.5 16.92ZM21 7.92004H20.2C20.0966 7.47134 19.921 7.04241 19.68 6.65004L20.24 6.09004C20.4039 5.89874 20.4895 5.65267 20.4797 5.40099C20.47 5.14931 20.3657 4.91058 20.1876 4.73248C20.0095 4.55439 19.7708 4.45005 19.5191 4.44033C19.2674 4.43061 19.0213 4.51622 18.83 4.68004L18.27 5.24004C17.8777 4.99906 17.4487 4.82343 17 4.72004V3.92004C17 3.65483 16.8947 3.40047 16.7071 3.21294C16.5196 3.0254 16.2653 2.92004 16 2.92004C15.7348 2.92004 15.4805 3.0254 15.2929 3.21294C15.1054 3.40047 15 3.65483 15 3.92004V4.72004C14.554 4.82186 14.1281 4.99762 13.74 5.24004L13.17 4.68004C12.9787 4.51622 12.7327 4.43061 12.481 4.44033C12.2293 4.45005 11.9906 4.55439 11.8125 4.73248C11.6344 4.91058 11.53 5.14931 11.5203 5.40099C11.5106 5.65267 11.5962 5.89874 11.76 6.09004L12.32 6.65004C12.23 6.81004 12.16 6.98004 12.08 7.14004C11.5659 6.99491 11.0343 6.92089 10.5 6.92004C9.0663 6.91743 7.67901 7.4283 6.5894 8.36016C5.49978 9.29202 4.77987 10.5833 4.56004 12C3.81737 12.2105 3.16448 12.6593 2.7019 13.2773C2.23933 13.8953 1.99271 14.6482 2.00004 15.42C2.00041 15.963 2.12817 16.4982 2.37306 16.9828C2.61795 17.4674 2.97313 17.8877 3.41004 18.21C3.51495 18.2975 3.63665 18.3625 3.76765 18.4011C3.89865 18.4397 4.03616 18.451 4.17172 18.4344C4.30727 18.4178 4.43799 18.3737 4.55582 18.3046C4.67364 18.2356 4.77608 18.1431 4.85681 18.033C4.93754 17.9228 4.99485 17.7973 5.02522 17.6642C5.05558 17.531 5.05835 17.3931 5.03335 17.2588C5.00836 17.1246 4.95613 16.9968 4.87988 16.8835C4.80364 16.7702 4.705 16.6738 4.59004 16.6C4.40598 16.4635 4.25665 16.2855 4.15415 16.0805C4.05165 15.8755 3.99886 15.6492 4.00004 15.42C4.00004 15.0222 4.15807 14.6407 4.43938 14.3594C4.72068 14.0781 5.10221 13.92 5.50004 13.92C5.76525 13.92 6.01961 13.8147 6.20714 13.6272C6.39468 13.4396 6.50004 13.1853 6.50004 12.92C6.50432 11.9757 6.84256 11.0634 7.45487 10.3445C8.06719 9.62563 8.9141 9.14655 9.84569 8.99208C10.7773 8.83762 11.7335 9.01772 12.5451 9.50051C13.3566 9.98331 13.9712 10.7377 14.28 11.63C14.3387 11.8 14.4421 11.951 14.5794 12.0672C14.7166 12.1833 14.8827 12.2603 15.06 12.29C15.5572 12.372 16.0144 12.613 16.363 12.9767C16.7117 13.3405 16.933 13.8075 16.9939 14.3077C17.0547 14.8079 16.9517 15.3143 16.7004 15.751C16.4492 16.1878 16.063 16.5313 15.6 16.73C15.4789 16.7822 15.3694 16.8579 15.2776 16.9526C15.1859 17.0473 15.1137 17.1592 15.0654 17.2819C15.0171 17.4045 14.9935 17.5356 14.996 17.6674C14.9985 17.7992 15.0271 17.9293 15.08 18.05C15.1581 18.2289 15.2868 18.381 15.4503 18.4877C15.6138 18.5943 15.8049 18.6507 16 18.65C16.1384 18.6502 16.2751 18.6194 16.4 18.56C17.1775 18.2212 17.8384 17.6615 18.3006 16.9504C18.7628 16.2393 19.006 15.4081 19 14.56C18.998 14.0259 18.8963 13.4968 18.7 13L18.83 13.13C19.0163 13.3148 19.2677 13.4189 19.53 13.42C19.6616 13.4208 19.7921 13.3956 19.9139 13.3458C20.0358 13.2961 20.1466 13.2227 20.24 13.13C20.3338 13.0371 20.4082 12.9265 20.4589 12.8046C20.5097 12.6828 20.5358 12.5521 20.5358 12.42C20.5358 12.288 20.5097 12.1573 20.4589 12.0355C20.4082 11.9136 20.3338 11.803 20.24 11.71L19.68 11.15C19.9208 10.7612 20.0965 10.3356 20.2 9.89004H21C21.2653 9.89004 21.5196 9.78469 21.7071 9.59715C21.8947 9.40961 22 9.15526 22 8.89004C22 8.62483 21.8947 8.37047 21.7071 8.18294C21.5196 7.9954 21.2653 7.89004 21 7.89004V7.92004ZM17.66 10.56C17.4884 10.7342 17.2847 10.8735 17.06 10.97C16.7327 10.7506 16.3758 10.5789 16 10.46C15.5329 9.46076 14.7994 8.60958 13.88 8.00004C13.9867 7.73917 14.1429 7.50145 14.34 7.30004C14.788 6.8825 15.3776 6.65033 15.99 6.65033C16.6024 6.65033 17.1921 6.8825 17.64 7.30004C18.073 7.73807 18.3158 8.32914 18.3158 8.94504C18.3158 9.56095 18.073 10.152 17.64 10.59L17.66 10.56Z" fill="black"/>
</svg>
