<svg width="24" height="24" viewBox="0 0 24 24" fill="none" xmlns="http://www.w3.org/2000/svg">
<path d="M21.7 8.00006C21.5786 7.88008 21.4284 7.79321 21.2639 7.74769C21.0993 7.70218 20.9259 7.69955 20.76 7.74006C20.5469 7.79036 20.329 7.81719 20.11 7.82006C19.3144 7.82006 18.5513 7.50399 17.9887 6.94138C17.4261 6.37877 17.11 5.61571 17.11 4.82006C17.1126 4.5978 17.1394 4.37649 17.19 4.16006C17.2305 3.99421 17.2279 3.82076 17.1824 3.65621C17.1369 3.49167 17.05 3.34152 16.93 3.22006C16.8116 3.09821 16.664 3.00856 16.5013 2.95957C16.3386 2.91058 16.1661 2.90387 16 2.94006C15.0078 3.1697 14.1094 3.69685 13.425 4.45099C12.7405 5.20513 12.3027 6.1503 12.17 7.16006C11.6279 6.99992 11.0654 6.91908 10.5 6.92006C9.0663 6.91744 7.67901 7.42832 6.5894 8.36018C5.49978 9.29204 4.77987 10.5833 4.56004 12.0001C3.81737 12.2105 3.16448 12.6593 2.7019 13.2773C2.23933 13.8953 1.99271 14.6482 2.00004 15.4201C2.00041 15.963 2.12817 16.4983 2.37306 16.9828C2.61795 17.4674 2.97313 17.8877 3.41004 18.2101C3.51495 18.2975 3.63665 18.3625 3.76765 18.4011C3.89865 18.4397 4.03616 18.451 4.17172 18.4345C4.30727 18.4179 4.43799 18.3737 4.55582 18.3046C4.67364 18.2356 4.77608 18.1432 4.85681 18.033C4.93754 17.9229 4.99485 17.7973 5.02522 17.6642C5.05558 17.531 5.05835 17.3931 5.03335 17.2588C5.00836 17.1246 4.95613 16.9969 4.87988 16.8836C4.80364 16.7703 4.705 16.6738 4.59004 16.6001C4.40598 16.4635 4.25665 16.2855 4.15415 16.0805C4.05165 15.8755 3.99886 15.6493 4.00004 15.4201C4.00004 15.0222 4.15807 14.6407 4.43938 14.3594C4.72068 14.0781 5.10221 13.9201 5.50004 13.9201C5.76525 13.9201 6.01961 13.8147 6.20714 13.6272C6.39468 13.4396 6.50004 13.1853 6.50004 12.9201C6.50187 12.2019 6.69703 11.4974 7.06502 10.8807C7.43301 10.264 7.96025 9.75768 8.5914 9.415C9.22255 9.07231 9.93432 8.90588 10.652 8.93316C11.3696 8.96044 12.0667 9.18044 12.67 9.57006C13.4021 10.0426 13.9548 10.7467 14.24 11.5701C14.2987 11.74 14.4021 11.891 14.5394 12.0072C14.6766 12.1233 14.8427 12.2003 15.02 12.2301C15.5172 12.312 15.9744 12.553 16.323 12.9168C16.6717 13.2805 16.893 13.7475 16.9539 14.2477C17.0147 14.7479 16.9117 15.2543 16.6604 15.6911C16.4092 16.1278 16.023 16.4713 15.56 16.6701C15.4389 16.7222 15.3294 16.7979 15.2376 16.8926C15.1459 16.9873 15.0737 17.0992 15.0254 17.2219C14.9771 17.3446 14.9535 17.4756 14.956 17.6074C14.9585 17.7393 14.9871 17.8693 15.04 17.9901C15.1181 18.1689 15.2468 18.3211 15.4103 18.4277C15.5738 18.5343 15.7649 18.5907 15.96 18.5901C16.0982 18.588 16.2344 18.5574 16.36 18.5001C17.1375 18.1612 17.7984 17.6015 18.2606 16.8904C18.7228 16.1793 18.966 15.3482 18.96 14.5001C18.9639 13.8032 18.7956 13.1162 18.47 12.5001C19.325 12.2739 20.1036 11.8224 20.7245 11.1927C21.3455 10.563 21.786 9.77813 22 8.92006C22.032 8.75385 22.0212 8.58226 21.9687 8.42135C21.9163 8.26045 21.8238 8.11549 21.7 8.00006ZM17.11 10.8201C16.9702 10.8309 16.8298 10.8309 16.69 10.8201C16.4593 10.6964 16.2184 10.5927 15.97 10.5101C15.5634 9.60991 14.9377 8.82603 14.15 8.23006C14.15 8.11006 14.15 7.98006 14.15 7.86006C14.15 7.42674 14.2439 6.99855 14.4251 6.60496C14.6064 6.21137 14.8707 5.86172 15.2 5.58006C15.3569 6.6451 15.8532 7.63108 16.6154 8.3914C17.3775 9.15172 18.3646 9.64576 19.43 9.80006C19.1402 10.1272 18.7825 10.3872 18.3817 10.5616C17.981 10.7361 17.547 10.8209 17.11 10.8101V10.8201ZM12.5 16.9201H11.73L12.12 16.2501C12.2526 16.0193 12.2882 15.7454 12.2188 15.4884C12.1494 15.2315 11.9808 15.0127 11.75 14.8801C11.5193 14.7474 11.2453 14.7119 10.9884 14.7813C10.7315 14.8507 10.5126 15.0193 10.38 15.2501L10 15.9201L9.62004 15.2501C9.48743 15.0193 9.26859 14.8507 9.01167 14.7813C8.75474 14.7119 8.48077 14.7474 8.25004 14.8801C8.0193 15.0127 7.85069 15.2315 7.7813 15.4884C7.71191 15.7454 7.74743 16.0193 7.88004 16.2501L8.27004 16.9201H7.50004C7.23482 16.9201 6.98047 17.0254 6.79293 17.213C6.60539 17.4005 6.50004 17.6548 6.50004 17.9201C6.50004 18.1853 6.60539 18.4396 6.79293 18.6272C6.98047 18.8147 7.23482 18.9201 7.50004 18.9201H8.27004L7.88004 19.5801C7.74743 19.8108 7.71191 20.0848 7.7813 20.3417C7.85069 20.5986 8.0193 20.8175 8.25004 20.9501C8.48077 21.0827 8.75474 21.1182 9.01167 21.0488C9.26859 20.9794 9.48743 20.8108 9.62004 20.5801L10 19.9201L10.38 20.5801C10.4457 20.6943 10.5332 20.7945 10.6376 20.8749C10.742 20.9554 10.8612 21.0144 10.9884 21.0488C11.1156 21.0832 11.2484 21.0921 11.379 21.0752C11.5097 21.0582 11.6358 21.0157 11.75 20.9501C11.8643 20.8844 11.9645 20.7969 12.0449 20.6925C12.1253 20.5881 12.1844 20.4689 12.2188 20.3417C12.2531 20.2145 12.2621 20.0817 12.2452 19.9511C12.2282 19.8204 12.1857 19.6943 12.12 19.5801L11.73 18.9201H12.5C12.7653 18.9201 13.0196 18.8147 13.2071 18.6272C13.3947 18.4396 13.5 18.1853 13.5 17.9201C13.5 17.6548 13.3947 17.4005 13.2071 17.213C13.0196 17.0254 12.7653 16.9201 12.5 16.9201Z" fill="black"/>
</svg>
