<svg width="24" height="24" viewBox="0 0 24 24" fill="none" xmlns="http://www.w3.org/2000/svg">
<path d="M19.47 10.5401C18.9961 9.48581 18.2278 8.59088 17.2574 7.96288C16.287 7.33488 15.1559 7.00054 14 7.00006C13.5312 7.00384 13.0644 7.06428 12.61 7.18006C12.0408 6.3766 11.2471 5.75909 10.3283 5.40498C9.40955 5.05086 8.40668 4.9759 7.44548 5.1895C6.48428 5.4031 5.60754 5.89575 4.92522 6.60566C4.24291 7.31558 3.78539 8.21115 3.61005 9.18006C2.95578 9.4156 2.40366 9.87111 2.04809 10.4687C1.69252 11.0663 1.55559 11.7688 1.6607 12.4562C1.76581 13.1436 2.10645 13.7731 2.62436 14.2371C3.14227 14.7011 3.80529 14.9708 4.50005 15.0001H5.50005C5.48962 15.1666 5.48962 15.3336 5.50005 15.5001C5.50005 16.4283 5.8688 17.3186 6.52517 17.9749C7.18155 18.6313 8.07179 19.0001 9.00005 19.0001H18.17C19.2043 18.9999 20.2044 18.6295 20.9893 17.9559C21.7741 17.2823 22.292 16.35 22.449 15.3277C22.6061 14.3054 22.3921 13.2607 21.8457 12.3825C21.2993 11.5043 20.4566 10.8508 19.47 10.5401ZM4.50005 13.0001C4.23483 13.0001 3.98048 12.8947 3.79294 12.7072C3.6054 12.5196 3.50005 12.2653 3.50005 12.0001C3.50005 11.7348 3.6054 11.4805 3.79294 11.293C3.98048 11.1054 4.23483 11.0001 4.50005 11.0001C4.76526 11.0001 5.01962 10.8947 5.20715 10.7072C5.39469 10.5196 5.50005 10.2653 5.50005 10.0001C5.50005 9.20441 5.81612 8.44135 6.37873 7.87874C6.94134 7.31613 7.7044 7.00006 8.50005 7.00006C8.91943 7.00231 9.33368 7.09247 9.71606 7.26471C10.0984 7.43696 10.4405 7.68746 10.72 8.00006C10.0104 8.46181 9.40646 9.06854 8.948 9.78035C8.48954 10.4922 8.18693 11.2929 8.06005 12.1301C7.49482 12.2892 6.97889 12.5885 6.56005 13.0001H4.50005ZM18.17 17.0001H9.00005C8.60222 17.0001 8.22069 16.842 7.93939 16.5607C7.65808 16.2794 7.50005 15.8979 7.50005 15.5001C7.50005 15.1022 7.65808 14.7207 7.93939 14.4394C8.22069 14.1581 8.60222 14.0001 9.00005 14.0001C9.26526 14.0001 9.51962 13.8947 9.70715 13.7072C9.89469 13.5196 10 13.2653 10 13.0001C10.0043 12.0558 10.3426 11.1434 10.9549 10.4245C11.5672 9.70564 12.4141 9.22657 13.3457 9.0721C14.2773 8.91763 15.2335 9.09773 16.0451 9.58053C16.8566 10.0633 17.4712 10.8177 17.78 11.7101C17.8372 11.8819 17.94 12.035 18.0773 12.153C18.2147 12.271 18.3816 12.3495 18.56 12.3801C19.1276 12.4862 19.6356 12.7993 19.9855 13.2587C20.3353 13.718 20.5022 14.291 20.4536 14.8664C20.405 15.4418 20.1445 15.9786 19.7226 16.3728C19.3007 16.7671 18.7474 16.9906 18.17 17.0001Z" fill="black"/>
</svg>
