<svg width="24" height="24" viewBox="0 0 24 24" fill="none" xmlns="http://www.w3.org/2000/svg">
<path d="M21 12.5C20.9958 11.393 20.6589 10.3129 20.0329 9.39986C19.407 8.48683 18.521 7.78308 17.49 7.38C17.49 5.92131 16.9106 4.52237 15.8791 3.49092C14.8477 2.45947 13.4487 1.88 11.99 1.88C10.5313 1.88 9.13239 2.45947 8.10094 3.49092C7.06949 4.52237 6.49003 5.92131 6.49003 7.38C5.29714 7.84805 4.30511 8.71793 3.68524 9.83945C3.06537 10.961 2.85655 12.2637 3.09485 13.5228C3.33315 14.7819 4.0036 15.9182 4.99045 16.7357C5.9773 17.5531 7.2186 18.0003 8.50003 18H8.70003C8.44741 18.8703 8.02608 19.6824 7.46003 20.39C7.34672 20.5372 7.27663 20.713 7.25762 20.8978C7.23862 21.0825 7.27144 21.2689 7.35243 21.4361C7.43341 21.6032 7.55934 21.7445 7.71612 21.8441C7.87289 21.9437 8.05431 21.9977 8.24003 22H15.76C15.9493 22.0007 16.1348 21.9476 16.2951 21.847C16.4554 21.7464 16.5838 21.6024 16.6655 21.4317C16.7472 21.261 16.7787 21.0706 16.7565 20.8827C16.7343 20.6947 16.6593 20.517 16.54 20.37C15.9763 19.6683 15.5551 18.8632 15.3 18H15.5C16.9579 17.9974 18.3553 17.417 19.3862 16.3862C20.4171 15.3553 20.9974 13.9579 21 12.5ZM10.06 20C10.4581 19.1926 10.7312 18.3294 10.87 17.44C11.2738 17.2535 11.6532 17.0184 12 16.74C12.3468 17.0184 12.7263 17.2535 13.13 17.44C13.2689 18.3294 13.542 19.1926 13.94 20H10.06ZM12.78 14.7L12.7 14.62L12.62 14.54H12.55L12.37 14.45L12.19 14.39H11.81L11.63 14.45C11.5686 14.47 11.5111 14.5004 11.46 14.54H11.38L11.3 14.62L11.22 14.7C10.8683 15.1348 10.4176 15.4791 9.90546 15.7038C9.39336 15.9286 8.83485 16.0274 8.27671 15.9919C7.71858 15.9565 7.17707 15.7878 6.69755 15.5C6.21803 15.2122 5.81446 14.8136 5.52065 14.3378C5.22683 13.8619 5.05133 13.3226 5.00884 12.7649C4.96634 12.2073 5.0581 11.6476 5.27642 11.1327C5.49474 10.6178 5.83327 10.1627 6.26365 9.80558C6.69402 9.44844 7.20372 9.19964 7.75003 9.08C7.80543 9.05769 7.85894 9.03093 7.91003 9C7.97181 8.97754 8.03196 8.95081 8.09003 8.92C8.14155 8.8822 8.18852 8.83858 8.23003 8.79C8.33031 8.71078 8.40365 8.60251 8.44003 8.48C8.47182 8.4272 8.49542 8.36988 8.51003 8.31001C8.51974 8.24369 8.51974 8.17632 8.51003 8.11C8.51486 8.05344 8.51486 7.99657 8.51003 7.94C8.50009 7.79017 8.50009 7.63984 8.51003 7.49C8.51003 6.56175 8.87878 5.67151 9.53516 5.01513C10.1915 4.35875 11.0818 3.99001 12.01 3.99001C12.9383 3.99001 13.8285 4.35875 14.4849 5.01513C15.1413 5.67151 15.51 6.56175 15.51 7.49C15.52 7.63984 15.52 7.79017 15.51 7.94C15.5048 7.99321 15.5048 8.0468 15.51 8.10001C15.5 8.16965 15.5 8.24036 15.51 8.31001C15.5246 8.36988 15.5482 8.4272 15.58 8.48C15.6164 8.60251 15.6898 8.71078 15.79 8.79C15.8315 8.83858 15.8785 8.8822 15.93 8.92C15.9881 8.95081 16.0483 8.97754 16.11 9C16.1614 9.0275 16.2149 9.05091 16.27 9.07C16.8163 9.18964 17.326 9.43844 17.7564 9.79558C18.1868 10.1527 18.5253 10.6078 18.7436 11.1227C18.962 11.6376 19.0537 12.1973 19.0112 12.7549C18.9687 13.3126 18.7932 13.8519 18.4994 14.3278C18.2056 14.8036 17.802 15.2022 17.3225 15.49C16.843 15.7778 16.3015 15.9465 15.7433 15.9819C15.1852 16.0174 14.6267 15.9186 14.1146 15.6938C13.6025 15.4691 13.1517 15.1248 12.8 14.69L12.78 14.7Z" fill="black"/>
</svg>
