<svg width="24" height="24" viewBox="0 0 24 24" fill="none" xmlns="http://www.w3.org/2000/svg">
<path d="M19.9999 9.67004V9.50005C20.006 7.79899 19.4663 6.14084 18.4601 4.76926C17.4539 3.39768 16.0343 2.38501 14.4099 1.88005H14.3499C13.511 1.62428 12.6369 1.50278 11.7599 1.52005C9.67177 1.63464 7.70604 2.54179 6.26394 4.05637C4.82184 5.57095 4.01208 7.57877 3.99994 9.67004C3.41395 9.87619 2.9064 10.2591 2.54736 10.7661C2.18832 11.273 1.99548 11.8789 1.99548 12.5C1.99548 13.1212 2.18832 13.7271 2.54736 14.234C2.9064 14.7409 3.41395 15.1239 3.99994 15.33C4.20591 17.3048 5.13886 19.1325 6.61742 20.4576C8.09598 21.7828 10.0145 22.5108 11.9999 22.5H12.2299C14.1499 22.4071 15.9748 21.6369 17.3808 20.3261C18.7868 19.0153 19.6828 17.2488 19.9099 15.34C20.5028 15.1456 21.0203 14.7711 21.3904 14.2687C21.7604 13.7663 21.9646 13.161 21.9745 12.5371C21.9844 11.9132 21.7995 11.3018 21.4456 10.7879C21.0917 10.274 20.5864 9.88325 19.9999 9.67004ZM12.1799 20.5C10.7323 20.5419 9.31844 20.0588 8.19915 19.1398C7.07985 18.2209 6.33071 16.9281 6.08994 15.5H17.8599C17.6159 16.8519 16.9219 18.0816 15.8908 18.9893C14.8596 19.897 13.5519 20.4294 12.1799 20.5ZM18.9999 13.5H4.99994C4.73473 13.5 4.48037 13.3947 4.29284 13.2072C4.1053 13.0196 3.99994 12.7653 3.99994 12.5C3.99994 12.2348 4.1053 11.9805 4.29284 11.7929C4.48037 11.6054 4.73473 11.5 4.99994 11.5H6.99994C7.26516 11.5 7.51951 11.3947 7.70705 11.2072C7.89459 11.0196 7.99994 10.7653 7.99994 10.5C7.99994 10.2348 7.89459 9.98047 7.70705 9.79294C7.51951 9.6054 7.26516 9.50005 6.99994 9.50005H5.99994C6.04471 8.46266 6.34121 7.45174 6.86386 6.55451C7.38652 5.65729 8.11963 4.90071 8.99994 4.35004V7.50005C8.99994 7.76526 9.1053 8.01962 9.29284 8.20715C9.48037 8.39469 9.73473 8.50005 9.99994 8.50005C10.2652 8.50005 10.5195 8.39469 10.7071 8.20715C10.8946 8.01962 10.9999 7.76526 10.9999 7.50005V3.59004C11.2714 3.5447 11.5451 3.51465 11.8199 3.50005H11.9999C12.3351 3.50476 12.6694 3.53485 12.9999 3.59004V7.50005C12.9999 7.76526 13.1053 8.01962 13.2928 8.20715C13.4804 8.39469 13.7347 8.50005 13.9999 8.50005C14.2652 8.50005 14.5195 8.39469 14.7071 8.20715C14.8946 8.01962 14.9999 7.76526 14.9999 7.50005V4.32005C15.4241 4.56567 15.8199 4.85744 16.1799 5.19005C16.7565 5.74994 17.2147 6.41997 17.5273 7.16034C17.84 7.90072 18.0007 8.69636 17.9999 9.50005H16.9999C16.7347 9.50005 16.4804 9.6054 16.2928 9.79294C16.1053 9.98047 15.9999 10.2348 15.9999 10.5C15.9999 10.7653 16.1053 11.0196 16.2928 11.2072C16.4804 11.3947 16.7347 11.5 16.9999 11.5H18.9999C19.2652 11.5 19.5195 11.6054 19.7071 11.7929C19.8946 11.9805 19.9999 12.2348 19.9999 12.5C19.9999 12.7653 19.8946 13.0196 19.7071 13.2072C19.5195 13.3947 19.2652 13.5 18.9999 13.5Z" fill="black"/>
</svg>
