<svg width="24" height="24" viewBox="0 0 24 24" fill="none" xmlns="http://www.w3.org/2000/svg">
<path d="M8.8 8.79998H10.6C10.7 8.79998 10.8 8.69998 10.8 8.59998V7.09998C10.8 6.99998 10.7 6.89998 10.6 6.89998H8.8C8.7 6.89998 8.6 6.99998 8.6 7.09998V8.69998C8.6 8.69998 8.7 8.79998 8.8 8.79998ZM11.2 11.1H13C13.1 11.1 13.2 11 13.2 10.9V9.29998C13.2 9.19998 13.1 9.09998 13 9.09998H11.2C11.1 9.09998 11 9.19998 11 9.29998V10.9C11 11 11.1 11.1 11.2 11.1ZM11.2 8.79998H13C13.1 8.79998 13.2 8.69998 13.2 8.59998V7.09998C13.1 6.99998 13 6.89998 13 6.89998H11.2C11.1 6.89998 11 6.99998 11 7.09998V8.69998C11 8.69998 11.1 8.79998 11.2 8.79998ZM13.7 11.1H15.5C15.6 11.1 15.7 11 15.7 10.9V9.29998C15.7 9.19998 15.6 9.09998 15.5 9.09998H13.7C13.6 9.09998 13.5 9.19998 13.5 9.29998V10.9C13.5 11 13.6 11.1 13.7 11.1ZM11.2 6.49998H13C13.1 6.49998 13.2 6.39998 13.2 6.29998V4.79998C13.2 4.69998 13.1 4.59998 13 4.59998H11.2C11.1 4.59998 11 4.69998 11 4.79998V6.39998C11 6.49998 11.1 6.49998 11.2 6.49998ZM3.8 11.1H5.6C5.7 11.1 5.8 11 5.8 10.9V9.29998C5.8 9.19998 5.7 9.09998 5.6 9.09998H3.8C3.7 9.09998 3.6 9.19998 3.6 9.29998V10.9C3.7 11 3.8 11.1 3.8 11.1ZM21.8 10.1C21.3 9.79998 20.7 9.59998 20.2 9.69998C19.9 9.69998 19.6 9.69998 19.4 9.79998C19.2 8.89998 18.7 8.09998 18 7.69998L17.7 7.49998L17.5 7.79998C17.2 7.99998 17 8.39998 16.9 8.89998C16.7 9.69998 16.8 10.5 17.2 11.1C16.7 11.3 16.2 11.4 15.7 11.5H2.6C2.3 11.5 2 11.8 2 12.1C2 13.3 2.2 14.4 2.6 15.5C3 16.6 3.7 17.5 4.6 18.1C6 18.8 7.5 19.1 9 19C9.8 19 10.6 18.9 11.4 18.8C12.5 18.6 13.6 18.2 14.6 17.6C15.4 17.1 16.1 16.5 16.8 15.8C17.7 14.7 18.4 13.5 18.9 12.1H19.1C19.9 12.1 20.7 11.8 21.3 11.3C21.6 11.1 21.8 10.8 21.9 10.4L22 10.2L21.8 10.1ZM6.3 11.1H8C8.1 11.1 8.2 11 8.2 10.9V9.29998C8.2 9.19998 8.1 9.09998 8 9.09998H6.3C6.2 9.09998 6.1 9.19998 6.1 9.29998V10.9C6.1 11 6.2 11.1 6.3 11.1ZM6.3 8.79998H8C8.1 8.79998 8.2 8.69998 8.2 8.59998V7.09998C8.2 6.99998 8.1 6.89998 8 6.89998H6.3C6.2 6.89998 6.1 6.99998 6.1 7.09998V8.69998C6.1 8.69998 6.2 8.79998 6.3 8.79998ZM8.8 11.1H10.6C10.7 11.1 10.8 11 10.8 10.9V9.29998C10.8 9.19998 10.7 9.09998 10.6 9.09998H8.8C8.7 9.09998 8.6 9.19998 8.6 9.29998V10.9C8.6 11 8.7 11.1 8.8 11.1Z" fill="black"/>
</svg>
