<svg width="24" height="24" viewBox="0 0 24 24" fill="none" xmlns="http://www.w3.org/2000/svg">
<path d="M13.2101 5.7C13.2898 5.70963 13.3703 5.70963 13.4501 5.7L15.3901 5.21C15.6472 5.14617 15.8685 4.98289 16.0054 4.75602C16.1423 4.52916 16.1835 4.25725 16.1201 4C16.0562 3.74284 15.893 3.52153 15.6661 3.38466C15.4392 3.24779 15.1673 3.20655 14.9101 3.27L13.0001 3.73C12.7348 3.76182 12.4931 3.8977 12.3281 4.10774C12.1631 4.31778 12.0882 4.58478 12.1201 4.85C12.1519 5.11521 12.2878 5.35693 12.4978 5.52196C12.7078 5.68699 12.9748 5.76182 13.2401 5.73L13.2101 5.7ZM9.51006 9H7.51006C7.24484 9 6.99049 9.10535 6.80295 9.29289C6.61541 9.48043 6.51006 9.73478 6.51006 10C6.51006 10.2652 6.61541 10.5196 6.80295 10.7071C6.99049 10.8946 7.24484 11 7.51006 11H9.51006C9.77527 11 10.0296 10.8946 10.2172 10.7071C10.4047 10.5196 10.5101 10.2652 10.5101 10C10.5101 9.73478 10.4047 9.48043 10.2172 9.29289C10.0296 9.10535 9.77527 9 9.51006 9ZM13.5101 9C13.2448 9 12.9905 9.10535 12.803 9.29289C12.6154 9.48043 12.5101 9.73478 12.5101 10C12.5101 10.2652 12.6154 10.5196 12.803 10.7071C12.9905 10.8946 13.2448 11 13.5101 11H15.5101C15.7753 11 16.0296 10.8946 16.2172 10.7071C16.4047 10.5196 16.5101 10.2652 16.5101 10C16.5101 9.73478 16.4047 9.48043 16.2172 9.29289C16.0296 9.10535 15.7753 9 15.5101 9H13.5101ZM7.39006 7.15H7.63006L9.57006 6.67C9.8313 6.60635 10.0565 6.44152 10.1963 6.21179C10.336 5.98206 10.3787 5.70624 10.3151 5.445C10.2514 5.18376 10.0866 4.95851 9.85685 4.81879C9.62712 4.67908 9.3513 4.63634 9.09006 4.7L7.15006 5.18C6.88484 5.21182 6.64313 5.3477 6.4781 5.55774C6.31307 5.76778 6.23823 6.03478 6.27006 6.3C6.30188 6.56521 6.43776 6.80692 6.6478 6.97196C6.85785 7.13699 7.12484 7.21182 7.39006 7.18V7.15ZM4.00006 10.51C4.26527 10.51 4.51963 10.4046 4.70716 10.2171C4.8947 10.0296 5.00006 9.77521 5.00006 9.51V7.51C5.00006 7.24478 4.8947 6.99043 4.70716 6.80289C4.51963 6.61535 4.26527 6.51 4.00006 6.51C3.73484 6.51 3.48049 6.61535 3.29295 6.80289C3.10542 6.99043 3.00006 7.24478 3.00006 7.51V9.51C3.00006 9.77521 3.10542 10.0296 3.29295 10.2171C3.48049 10.4046 3.73484 10.51 4.00006 10.51ZM20.6201 2.21C20.5024 2.11133 20.3637 2.04106 20.2146 2.00465C20.0654 1.96823 19.9099 1.96664 19.7601 2L18.7601 2.24C18.5029 2.30383 18.2816 2.4671 18.1447 2.69397C18.0079 2.92084 17.9666 3.19275 18.0301 3.45C18.0848 3.67187 18.2139 3.8683 18.3959 4.00658C18.5778 4.14486 18.8016 4.21665 19.0301 4.21C19.0883 4.44437 19.2294 4.64974 19.4273 4.78819C19.6251 4.92664 19.8664 4.9888 20.1065 4.9632C20.3467 4.93761 20.5694 4.82597 20.7337 4.64892C20.8979 4.47188 20.9925 4.24138 21.0001 4V3C21.0009 2.8481 20.9671 2.69802 20.9012 2.56114C20.8354 2.42425 20.7392 2.30417 20.6201 2.21ZM20.0001 7C19.7348 7 19.4805 7.10535 19.293 7.29289C19.1054 7.48043 19.0001 7.73478 19.0001 8V9.14C18.8116 9.2518 18.6652 9.42238 18.5831 9.62553C18.5011 9.82867 18.488 10.0531 18.5459 10.2644C18.6039 10.4757 18.7296 10.6621 18.9038 10.795C19.078 10.9279 19.291 10.9999 19.5101 11H20.0001C20.2653 11 20.5196 10.8946 20.7072 10.7071C20.8947 10.5196 21.0001 10.2652 21.0001 10V8C21.0001 7.73478 20.8947 7.48043 20.7072 7.29289C20.5196 7.10535 20.2653 7 20.0001 7ZM20.0001 13H4.00006C3.73484 13 3.48049 13.1054 3.29295 13.2929C3.10542 13.4804 3.00006 13.7348 3.00006 14V17C2.9934 17.2284 3.06519 17.4523 3.20347 17.6342C3.34175 17.8162 3.53818 17.9452 3.76006 18L19.7601 22C19.8398 22.0096 19.9203 22.0096 20.0001 22C20.2653 22 20.5196 21.8946 20.7072 21.7071C20.8947 21.5196 21.0001 21.2652 21.0001 21V14C21.0001 13.7348 20.8947 13.4804 20.7072 13.2929C20.5196 13.1054 20.2653 13 20.0001 13ZM19.0001 19.72L5.00006 16.22V15H19.0001V19.72Z" fill="black"/>
</svg>
