<svg width="24" height="24" viewBox="0 0 24 24" fill="none" xmlns="http://www.w3.org/2000/svg">
<path d="M21.7099 20.29L20.1099 18.69L3.70994 2.29C3.6167 2.19676 3.50601 2.1228 3.38419 2.07234C3.26237 2.02188 3.1318 1.99591 2.99994 1.99591C2.86808 1.99591 2.73751 2.02188 2.61569 2.07234C2.49387 2.1228 2.38318 2.19676 2.28994 2.29C2.10164 2.47831 1.99585 2.7337 1.99585 3C1.99585 3.2663 2.10164 3.5217 2.28994 3.71L3.68994 5.1C3.24707 5.63445 3.00322 6.30592 2.99994 7V18C2.99994 18.7957 3.31601 19.5587 3.87862 20.1213C4.44123 20.6839 5.20429 21 5.99994 21H17.9999C18.4469 20.9974 18.8877 20.8949 19.2899 20.7L20.2899 21.7C20.3829 21.7937 20.4935 21.8681 20.6154 21.9189C20.7372 21.9697 20.8679 21.9958 20.9999 21.9958C21.132 21.9958 21.2627 21.9697 21.3845 21.9189C21.5064 21.8681 21.617 21.7937 21.7099 21.7C21.8962 21.5126 22.0007 21.2592 22.0007 20.995C22.0007 20.7308 21.8962 20.4774 21.7099 20.29ZM5.99994 19C5.73472 19 5.48037 18.8946 5.29283 18.7071C5.1053 18.5196 4.99994 18.2652 4.99994 18V7C5.00238 6.83925 5.04355 6.68146 5.11994 6.54L17.5899 19H5.99994ZM10.6199 6C10.818 6.01081 11.0084 6.08029 11.1669 6.19959C11.3254 6.3189 11.4448 6.48264 11.5099 6.67L12.0499 8.31C12.1153 8.51049 12.2424 8.68518 12.413 8.80911C12.5836 8.93303 12.7891 8.99985 12.9999 9H17.9999C18.2652 9 18.5195 9.10536 18.707 9.2929C18.8946 9.48043 18.9999 9.73479 18.9999 10V14.34C18.9999 14.6052 19.1053 14.8596 19.2928 15.0471C19.4804 15.2346 19.7347 15.34 19.9999 15.34C20.2652 15.34 20.5195 15.2346 20.707 15.0471C20.8946 14.8596 20.9999 14.6052 20.9999 14.34V10C20.9999 9.20435 20.6839 8.44129 20.1213 7.87868C19.5587 7.31607 18.7956 7 17.9999 7H13.7199L13.3999 6C13.2022 5.43828 12.8417 4.94813 12.3644 4.59196C11.8872 4.2358 11.3147 4.02973 10.7199 4C10.5886 3.99344 10.4573 4.0128 10.3335 4.05699C10.2096 4.10118 10.0957 4.16932 9.99819 4.25754C9.90069 4.34576 9.82152 4.45231 9.7652 4.57113C9.70888 4.68994 9.67651 4.81868 9.66994 4.95C9.66338 5.08132 9.68274 5.21265 9.72693 5.33649C9.77112 5.46033 9.83926 5.57425 9.92748 5.67175C10.0157 5.76926 10.1223 5.84843 10.2411 5.90475C10.3599 5.96107 10.4886 5.99344 10.6199 6Z" fill="black"/>
</svg>
