<svg width="24" height="24" viewBox="0 0 24 24" fill="none" xmlns="http://www.w3.org/2000/svg">
<path d="M22.78 10.37C22.6859 10.254 22.567 10.1605 22.432 10.0965C22.297 10.0325 22.1494 9.99948 22 9.99999H20V8.99999C20 8.20434 19.6839 7.44128 19.1213 6.87867C18.5587 6.31606 17.7956 5.99999 17 5.99999H10.72L10.4 4.99999C10.1926 4.41322 9.80775 3.9055 9.2989 3.54715C8.79005 3.18881 8.18236 2.99759 7.56 2.99999H4C3.20435 2.99999 2.44129 3.31606 1.87868 3.87867C1.31607 4.44128 1 5.20434 1 5.99999V18C1 18.7956 1.31607 19.5587 1.87868 20.1213C2.44129 20.6839 3.20435 21 4 21H18.4C19.0812 20.998 19.7415 20.7642 20.2722 20.3371C20.8029 19.91 21.1724 19.315 21.32 18.65L23 11.22C23.0304 11.0709 23.0264 10.9169 22.9883 10.7696C22.9502 10.6223 22.8789 10.4856 22.78 10.37ZM5.37 18.22C5.3192 18.4456 5.19179 18.6466 5.00946 18.7888C4.82714 18.931 4.60116 19.0056 4.37 19H4C3.73478 19 3.48043 18.8946 3.29289 18.7071C3.10536 18.5196 3 18.2652 3 18V5.99999C3 5.73478 3.10536 5.48042 3.29289 5.29289C3.48043 5.10535 3.73478 4.99999 4 4.99999H7.56C7.77807 4.98861 7.99386 5.04892 8.17443 5.17171C8.355 5.29449 8.49042 5.47301 8.56 5.67999L9.1 7.31999C9.16417 7.51074 9.2844 7.67768 9.44497 7.799C9.60554 7.92032 9.79898 7.99037 10 7.99999H17C17.2652 7.99999 17.5196 8.10535 17.7071 8.29289C17.8946 8.48042 18 8.73478 18 8.99999V9.99999H8C7.76884 9.99434 7.54286 10.069 7.36054 10.2112C7.17821 10.3534 7.0508 10.5544 7 10.78L5.37 18.22ZM19.37 18.22C19.3192 18.4456 19.1918 18.6466 19.0095 18.7888C18.8271 18.931 18.6012 19.0056 18.37 19H7.21C7.26165 18.8886 7.29862 18.7709 7.32 18.65L8.8 12H20.8L19.37 18.22Z" fill="black"/>
</svg>
