<svg width="24" height="24" viewBox="0 0 24 24" fill="none" xmlns="http://www.w3.org/2000/svg">
<path d="M21.84 5.56C21.7072 4.70841 21.3081 3.92076 20.7 3.31C20.0892 2.70189 19.3016 2.30281 18.45 2.17C16.6879 1.90391 14.8908 1.98545 13.16 2.41C13.0917 2.424 13.0247 2.44408 12.96 2.47C10.4274 3.10833 8.11529 4.42161 6.26999 6.27C4.41409 8.12859 3.09433 10.4537 2.44999 13C2.44999 13.06 2.44999 13.12 2.39999 13.19C1.97541 14.9241 1.89388 16.7246 2.15999 18.49C2.30274 19.3238 2.70112 20.0926 3.29999 20.69C3.91076 21.2981 4.69841 21.6972 5.54999 21.83C6.23771 21.9418 6.93324 21.9987 7.62999 22C8.72911 21.9936 9.82353 21.856 10.89 21.59H11.03C13.5659 20.948 15.8816 19.6338 17.7331 17.7858C19.5845 15.9379 20.9032 13.6246 21.55 11.09C21.55 11.03 21.55 10.97 21.6 10.9C22.0298 9.15302 22.1114 7.33849 21.84 5.56ZM16.37 4C16.9596 3.99688 17.5483 4.04372 18.13 4.14C18.2116 4.15734 18.2918 4.18074 18.37 4.21L17 5.59L15.46 4.05C15.76 4 16.07 4 16.37 4ZM7.66999 7.67C9.17552 6.17261 11.0319 5.07594 13.07 4.48L15.59 7L13.44 9.15L12.71 8.42C12.617 8.32627 12.5064 8.25187 12.3846 8.20111C12.2627 8.15034 12.132 8.1242 12 8.1242C11.868 8.1242 11.7373 8.15034 11.6154 8.20111C11.4936 8.25187 11.383 8.32627 11.29 8.42C11.1037 8.60736 10.9992 8.86081 10.9992 9.125C10.9992 9.38918 11.1037 9.64263 11.29 9.83L12.02 10.56L10.56 12L9.82999 11.27C9.64263 11.0837 9.38918 10.9792 9.12499 10.9792C8.86081 10.9792 8.60735 11.0837 8.41999 11.27C8.32626 11.363 8.25187 11.4736 8.2011 11.5954C8.15033 11.7173 8.12419 11.848 8.12419 11.98C8.12419 12.112 8.15033 12.2427 8.2011 12.3646C8.25187 12.4864 8.32626 12.597 8.41999 12.69L9.14999 13.42L6.99999 15.59L4.48999 13.08C5.07956 11.0385 6.17311 9.17814 7.66999 7.67ZM4.20999 18.37C4.18073 18.2918 4.15733 18.2116 4.13999 18.13C3.98857 17.2486 3.94158 16.3524 3.99999 15.46L5.58999 17L4.20999 18.37ZM5.86999 19.86C5.78836 19.8427 5.70814 19.8193 5.62999 19.79L6.99999 18.41L8.53999 20C7.64758 20.0584 6.7514 20.0114 5.86999 19.86ZM16.33 16.33C14.8218 17.8269 12.9615 18.9204 10.92 19.51L8.40999 17L10.56 14.85L11.29 15.58C11.3826 15.6732 11.4926 15.7473 11.6138 15.798C11.735 15.8487 11.8651 15.8751 11.9965 15.8756C12.1279 15.876 12.2581 15.8506 12.3796 15.8007C12.5012 15.7509 12.6118 15.6776 12.705 15.585C12.7982 15.4924 12.8723 15.3824 12.923 15.2612C12.9737 15.1399 13.0001 15.0099 13.0005 14.8785C13.001 14.7471 12.9756 14.6169 12.9257 14.4954C12.8759 14.3738 12.8026 14.2632 12.71 14.17L12 13.44L13.44 12L14.17 12.73C14.2634 12.8227 14.3742 12.896 14.4961 12.9458C14.6179 12.9955 14.7484 13.0208 14.88 13.02C15.0778 13.0192 15.2709 12.9597 15.4348 12.8491C15.5988 12.7386 15.7263 12.5819 15.8013 12.3988C15.8762 12.2158 15.8952 12.0147 15.8558 11.8209C15.8164 11.6271 15.7204 11.4493 15.58 11.31L14.85 10.58L17 8.41L19.51 10.92C18.9204 12.9615 17.8269 14.8219 16.33 16.33ZM20 8.54L18.41 7L19.79 5.63C19.8193 5.70815 19.8427 5.78837 19.86 5.87C20.0114 6.7514 20.0584 7.64759 20 8.54Z" fill="black"/>
</svg>
