<svg width="24" height="24" viewBox="0 0 24 24" fill="none" xmlns="http://www.w3.org/2000/svg">
<path d="M21.84 5.56C21.7072 4.70842 21.3081 3.92077 20.7 3.31C20.0892 2.70189 19.3016 2.30281 18.45 2.17C16.2411 1.86557 13.9918 2.07644 11.878 2.78612C9.76421 3.49579 7.84332 4.68502 6.26569 6.26072C4.68805 7.83642 3.49647 9.75584 2.78419 11.8688C2.07192 13.9817 1.85829 16.2308 2.16001 18.44C2.29282 19.2916 2.69189 20.0792 3.30001 20.69C3.91077 21.2981 4.69842 21.6972 5.55001 21.83C6.23773 21.9418 6.93326 21.9987 7.63001 22C11.4308 21.9729 15.066 20.4412 17.74 17.74C19.331 16.1737 20.5311 14.2551 21.2433 12.1392C21.9556 10.0233 22.16 7.76952 21.84 5.56ZM4.21001 18.37C4.18074 18.2919 4.15735 18.2116 4.14001 18.13C3.86551 16.2318 4.04205 14.2956 4.65535 12.4783C5.26864 10.661 6.30142 9.01374 7.67001 7.67C9.9719 5.34626 13.0993 4.02702 16.37 4C16.9596 3.99689 17.5483 4.04372 18.13 4.14C18.2116 4.15734 18.2919 4.18074 18.37 4.21L13.44 9.15L12.71 8.42C12.617 8.32627 12.5064 8.25188 12.3846 8.20111C12.2627 8.15034 12.132 8.1242 12 8.1242C11.868 8.1242 11.7373 8.15034 11.6154 8.20111C11.4936 8.25188 11.383 8.32627 11.29 8.42C11.1038 8.60736 10.9992 8.86082 10.9992 9.125C10.9992 9.38919 11.1038 9.64264 11.29 9.83L12.02 10.56L10.56 12L9.83001 11.27C9.64264 11.0838 9.38919 10.9792 9.12501 10.9792C8.86082 10.9792 8.60737 11.0838 8.42001 11.27C8.32628 11.363 8.25188 11.4736 8.20111 11.5954C8.15035 11.7173 8.12421 11.848 8.12421 11.98C8.12421 12.112 8.15035 12.2427 8.20111 12.3646C8.25188 12.4864 8.32628 12.597 8.42001 12.69L9.15001 13.42L4.21001 18.37ZM16.33 16.37C14.9811 17.7295 13.332 18.7535 11.5153 19.3596C9.69858 19.9658 7.76499 20.1372 5.87001 19.86C5.78838 19.8427 5.70816 19.8193 5.63001 19.79L10.56 14.85L11.29 15.58C11.3826 15.6732 11.4926 15.7473 11.6138 15.798C11.7351 15.8488 11.8651 15.8751 11.9965 15.8756C12.1279 15.876 12.2581 15.8506 12.3796 15.8007C12.5012 15.7509 12.6118 15.6776 12.705 15.585C12.7982 15.4924 12.8723 15.3824 12.923 15.2612C12.9738 15.1399 13.0001 15.0099 13.0006 14.8785C13.001 14.7471 12.9756 14.6169 12.9258 14.4954C12.8759 14.3738 12.8026 14.2632 12.71 14.17L12 13.44L13.44 12L14.17 12.73C14.2634 12.8227 14.3743 12.896 14.4961 12.9458C14.6179 12.9955 14.7484 13.0208 14.88 13.02C15.0778 13.0192 15.2709 12.9597 15.4348 12.8492C15.5988 12.7386 15.7263 12.5819 15.8013 12.3989C15.8762 12.2158 15.8952 12.0147 15.8558 11.8209C15.8164 11.6271 15.7204 11.4493 15.58 11.31L14.85 10.58L19.79 5.65C19.8193 5.72815 19.8427 5.80837 19.86 5.89C20.1312 7.78508 19.9531 9.71739 19.3399 11.5309C18.7267 13.3445 17.6956 14.9884 16.33 16.33V16.37Z" fill="black"/>
</svg>
