<svg width="24" height="24" viewBox="0 0 24 24" fill="none" xmlns="http://www.w3.org/2000/svg">
<path d="M21.7 7.57C21.5795 7.45166 21.4311 7.36576 21.2685 7.3203C21.1058 7.27484 20.9344 7.27129 20.77 7.31C20.5534 7.35951 20.3322 7.38632 20.11 7.39C19.3144 7.39 18.5513 7.07392 17.9887 6.51132C17.4261 5.94871 17.11 5.18564 17.11 4.38999C17.1129 4.17106 17.1397 3.95309 17.19 3.74C17.2297 3.57492 17.2268 3.40246 17.1814 3.23884C17.1361 3.07523 17.0498 2.92586 16.9307 2.80481C16.8117 2.68375 16.6638 2.59501 16.5009 2.54693C16.3381 2.49885 16.1657 2.49302 16 2.53C15.0047 2.74973 14.102 3.27255 13.4161 4.02649C12.7302 4.78043 12.2949 5.72843 12.17 6.74C11.6268 6.58476 11.065 6.50402 10.5 6.49999C9.05886 6.49918 7.66557 7.0171 6.57488 7.95906C5.48419 8.90102 4.76897 10.2041 4.56001 11.63C3.86364 11.8239 3.2444 12.2287 2.78734 12.7887C2.33028 13.3487 2.05784 14.0365 2.00743 14.7576C1.95701 15.4787 2.13111 16.1977 2.5058 16.8159C2.88049 17.4341 3.43739 17.9211 4.10001 18.21C4.22744 18.2605 4.36295 18.2876 4.50001 18.29C4.7312 18.2919 4.95591 18.2136 5.13589 18.0685C5.31586 17.9233 5.43999 17.7203 5.48715 17.494C5.5343 17.2676 5.50157 17.0319 5.39452 16.827C5.28747 16.6221 5.11272 16.4606 4.90001 16.37C4.6317 16.2557 4.40314 16.0647 4.24302 15.821C4.0829 15.5772 3.99836 15.2916 4.00001 15C4.00001 14.6022 4.15804 14.2206 4.43935 13.9393C4.72065 13.658 5.10218 13.5 5.50001 13.5C5.76522 13.5 6.01958 13.3946 6.20711 13.2071C6.39465 13.0196 6.50001 12.7652 6.50001 12.5C6.50001 11.4391 6.92143 10.4217 7.67158 9.67157C8.42172 8.92142 9.43914 8.5 10.5 8.5C11.276 8.49938 12.0347 8.72908 12.68 9.16C13.4069 9.63816 13.9581 10.3403 14.25 11.16C14.3072 11.3318 14.4099 11.4849 14.5473 11.6029C14.6847 11.7209 14.8515 11.7994 15.03 11.83C15.5106 11.882 15.9629 12.0829 16.3238 12.4045C16.6846 12.726 16.936 13.1523 17.0429 13.6237C17.1497 14.0951 17.1066 14.5882 16.9197 15.0339C16.7327 15.4796 16.4112 15.8559 16 16.11C15.7772 16.2559 15.6215 16.4843 15.5671 16.7449C15.5127 17.0056 15.5641 17.2772 15.71 17.5C15.8559 17.7228 16.0843 17.8785 16.3449 17.9329C16.6056 17.9873 16.8772 17.9359 17.1 17.79C17.691 17.3904 18.1738 16.8507 18.5053 16.219C18.8369 15.5873 19.0068 14.8834 19 14.17C19.0039 13.4731 18.8356 12.7861 18.51 12.17C19.3688 11.9302 20.1467 11.4624 20.7611 10.8163C21.3755 10.1701 21.8036 9.36974 22 8.5C22.0337 8.33226 22.0239 8.15868 21.9713 7.99586C21.9188 7.83303 21.8254 7.6864 21.7 7.57ZM17.11 10.39C16.9702 10.4013 16.8298 10.4013 16.69 10.39C16.4717 10.2404 16.2408 10.1099 16 10C15.5902 9.10184 14.965 8.31869 14.18 7.72C14.18 7.6 14.18 7.47 14.18 7.35C14.18 6.91667 14.2738 6.48849 14.4551 6.0949C14.6363 5.70131 14.9007 5.35165 15.23 5.07C15.3848 6.13685 15.8803 7.12509 16.6426 7.88737C17.4049 8.64966 18.3932 9.14516 19.46 9.3C19.1746 9.64572 18.8154 9.92309 18.4087 10.1117C18.002 10.3003 17.5583 10.3954 17.11 10.39ZM11.11 14.33C10.9446 14.2182 10.7496 14.1585 10.55 14.1585C10.3504 14.1585 10.1554 14.2182 9.99001 14.33C9.84001 14.41 7.50001 16 7.50001 18.5C7.50001 19.2956 7.81608 20.0587 8.37868 20.6213C8.94129 21.1839 9.70436 21.5 10.5 21.5C11.2957 21.5 12.0587 21.1839 12.6213 20.6213C13.1839 20.0587 13.5 19.2956 13.5 18.5C13.5 16 11.15 14.4 11.06 14.33H11.11ZM10.5 19.5C10.2348 19.5 9.98044 19.3946 9.7929 19.2071C9.60536 19.0196 9.50001 18.7652 9.50001 18.5C9.56315 17.7294 9.92139 17.0129 10.5 16.5C11.0786 17.0129 11.4369 17.7294 11.5 18.5C11.5 18.7652 11.3946 19.0196 11.2071 19.2071C11.0196 19.3946 10.7652 19.5 10.5 19.5Z" fill="black"/>
</svg>
