<svg width="24" height="24" viewBox="0 0 24 24" fill="none" xmlns="http://www.w3.org/2000/svg">
<path d="M20.9188 10.653C20.6044 10.4831 17.9081 8.91862 16.8964 8.32976L16.8934 8.32776L4.63854 1.25262C4.42976 1.12517 4.19566 1.04488 3.9526 1.01736C3.70955 0.989847 3.46342 1.01577 3.23143 1.09332C3.20525 1.10272 3.18065 1.11218 3.1552 1.12383C3.09611 1.14309 3.03835 1.16621 2.98229 1.19305C2.74798 1.3331 2.55575 1.53372 2.42583 1.7738C2.2959 2.01388 2.2331 2.28455 2.24401 2.55731V21.5427C2.23658 21.7968 2.29676 22.0483 2.41841 22.2715C2.54006 22.4948 2.71882 22.6817 2.93639 22.8132C2.98658 22.8377 3.03828 22.859 3.09118 22.8769C3.12011 22.8902 3.14769 22.9019 3.17754 22.9124C3.32075 22.9643 3.47158 22.9922 3.62389 22.9948C3.91639 22.9917 4.20294 22.9118 4.45495 22.7634C4.84362 22.5378 16.8934 15.5807 16.8934 15.5807L20.9139 13.2594C21.1625 13.1349 21.3723 12.9448 21.5207 12.7097C21.6691 12.4746 21.7503 12.2034 21.7557 11.9254C21.7435 11.6577 21.6593 11.3982 21.512 11.1743C21.3647 10.9504 21.1598 10.7703 20.9188 10.653ZM4.24401 19.839V4.10186L12.1841 11.9609L4.24401 19.839ZM9.26201 17.6773L13.6055 13.3677L14.7551 14.5056C13.4904 15.2358 11.3538 16.4696 9.26201 17.6774V17.6773ZM13.6038 10.5523L9.20594 6.19933L14.7596 9.40563L13.6038 10.5523ZM16.5506 13.469L15.0252 11.9592L16.5529 10.4434C17.2732 10.8617 18.3958 11.5127 19.1688 11.9577L16.5506 13.469Z" fill="black"/>
</svg>
