<svg width="24" height="24" viewBox="0 0 24 24" fill="none" xmlns="http://www.w3.org/2000/svg">
<path d="M19.0693 5.93555C17.866 4.72079 16.3698 3.83679 14.7252 3.36894C13.0806 2.90108 11.3432 2.86516 9.68066 3.26465C9.42255 3.32341 9.19828 3.48212 9.057 3.70598C8.91573 3.92985 8.86899 4.2006 8.92703 4.45887C8.98507 4.71714 9.14315 4.94186 9.36662 5.08375C9.59009 5.22565 9.86071 5.27314 10.1191 5.21582C11.2962 4.93492 12.5215 4.92403 13.7033 5.18396C14.8851 5.44389 15.9928 5.9679 16.9434 6.71674C17.8939 7.46557 18.6626 8.41981 19.192 9.50796C19.7213 10.5961 19.9976 11.7899 20 13H19.6602C19.3949 13 19.1406 13.1054 18.9531 13.2929C18.7655 13.4804 18.6602 13.7348 18.6602 14C18.6602 14.2652 18.7655 14.5196 18.9531 14.7071C19.1406 14.8946 19.3949 15 19.6602 15H20V15.3398C20 15.6051 20.1054 15.8594 20.2929 16.0469C20.4804 16.2345 20.7348 16.3398 21 16.3398C21.2652 16.3398 21.5196 16.2345 21.7071 16.0469C21.8946 15.8594 22 15.6051 22 15.3398V13C22.005 11.6869 21.7485 10.3859 21.2453 9.17297C20.7421 7.96005 20.0024 6.85951 19.0693 5.93555ZM3.707 2.293C3.51892 2.10829 3.26549 2.00533 3.00188 2.00653C2.73826 2.00772 2.48578 2.11297 2.29938 2.29938C2.11297 2.48578 2.00772 2.73826 2.00653 3.00188C2.00533 3.26549 2.10829 3.51891 2.293 3.707L4.72833 6.1424C2.97443 7.99464 1.9979 10.4491 2 13V20C2 20.2652 2.10536 20.5196 2.2929 20.7071C2.48043 20.8946 2.73479 21 3 21H6C6.79539 20.9991 7.55794 20.6828 8.12036 20.1204C8.68279 19.5579 8.99914 18.7954 9 18V16C8.99914 15.2046 8.68279 14.4421 8.12036 13.8796C7.55794 13.3172 6.79539 13.0009 6 13H4C3.99878 10.9798 4.76538 9.03473 6.14453 7.55859L15 16.4141V18C15.0009 18.7954 15.3172 19.5579 15.8796 20.1204C16.4421 20.6828 17.2046 20.9991 18 21H19.5859L20.2929 21.707C20.4809 21.8926 20.7346 21.9963 20.9986 21.9954C21.2627 21.9946 21.5158 21.8893 21.7025 21.7026C21.8893 21.5159 21.9946 21.2628 21.9954 20.9987C21.9962 20.7346 21.8926 20.4809 21.707 20.293L3.707 2.293ZM6 15C6.26511 15.0003 6.51927 15.1058 6.70673 15.2933C6.89419 15.4807 6.99966 15.7349 7 16V18C6.99966 18.2651 6.89419 18.5193 6.70673 18.7067C6.51927 18.8942 6.26511 18.9997 6 19H4V15H6Z" fill="black"/>
</svg>
