<svg width="24" height="24" viewBox="0 0 24 24" fill="none" xmlns="http://www.w3.org/2000/svg">
<path d="M11.022 2H9.02205C8.75683 2 8.50248 2.10536 8.31494 2.29289C8.12741 2.48043 8.02205 2.73478 8.02205 3C8.02205 3.26522 8.12741 3.51957 8.31494 3.70711C8.50248 3.89464 8.75683 4 9.02205 4V6H7.83776C7.95632 5.67977 8.01867 5.34146 8.02205 5C8.02208 4.33957 7.80419 3.69758 7.40215 3.17361C7.00012 2.64965 6.43642 2.27299 5.79849 2.10206C5.16056 1.93113 4.48406 1.97548 3.87391 2.22824C3.26375 2.48099 2.75406 2.92803 2.42388 3.5C2.35814 3.61376 2.31545 3.73935 2.29827 3.86961C2.28108 3.99986 2.28973 4.13223 2.32371 4.25915C2.35769 4.38606 2.41635 4.50504 2.49633 4.60927C2.57631 4.71351 2.67604 4.80097 2.78983 4.86665C2.90362 4.93234 3.02924 4.97495 3.1595 4.99207C3.28977 5.0092 3.42213 5.00048 3.54903 4.96643C3.67593 4.93238 3.79487 4.87367 3.89907 4.79363C4.00327 4.7136 4.09067 4.61382 4.1563 4.5C4.24418 4.34814 4.3704 4.22202 4.52234 4.13427C4.67427 4.04652 4.84659 4.00022 5.02205 4C5.28726 4 5.54162 4.10536 5.72916 4.29289C5.91669 4.48043 6.02205 4.73478 6.02205 5C6.02205 5.26522 5.91669 5.51957 5.72916 5.70711C5.54162 5.89464 5.28726 6 5.02205 6C4.75683 6 4.50248 6.10536 4.31494 6.29289C4.12741 6.48043 4.02205 6.73478 4.02205 7C4.02205 7.26522 4.12741 7.51957 4.31494 7.70711C4.50248 7.89464 4.75683 8 5.02205 8C5.28726 8 5.54162 8.10536 5.72916 8.29289C5.91669 8.48043 6.02205 8.73478 6.02205 9C6.02205 9.26522 5.91669 9.51957 5.72916 9.70711C5.54162 9.89464 5.28726 10 5.02205 10C4.8466 9.99977 4.67428 9.95347 4.52235 9.86572C4.37042 9.77797 4.2442 9.65186 4.15633 9.5C4.0907 9.38618 4.0033 9.2864 3.8991 9.20637C3.7949 9.12633 3.67596 9.06762 3.54906 9.03357C3.42216 8.99952 3.2898 8.9908 3.15953 9.00793C3.02927 9.02505 2.90365 9.06766 2.78986 9.13335C2.67607 9.19903 2.57634 9.28649 2.49636 9.39073C2.41638 9.49496 2.35772 9.61394 2.32374 9.74085C2.28976 9.86777 2.28111 10.0001 2.2983 10.1304C2.31548 10.2607 2.35817 10.3862 2.42391 10.5C2.7541 11.072 3.26379 11.519 3.87394 11.7717C4.48408 12.0245 5.16058 12.0688 5.7985 11.8979C6.43642 11.727 7.00011 11.3503 7.40214 10.8264C7.80417 10.3024 8.02207 9.66042 8.02205 9C8.01867 8.65854 7.95634 8.32023 7.83779 8H9.02205V11C9.02205 11.2652 9.12741 11.5196 9.31494 11.7071C9.50248 11.8946 9.75683 12 10.022 12C10.2873 12 10.5416 11.8946 10.7292 11.7071C10.9167 11.5196 11.022 11.2652 11.022 11V4C11.2873 4 11.5416 3.89464 11.7292 3.70711C11.9167 3.51957 12.022 3.26522 12.022 3C12.022 2.73478 11.9167 2.48043 11.7292 2.29289C11.5416 2.10536 11.2873 2 11.022 2ZM14.022 7H15.022C15.2872 7.00034 15.5413 7.10581 15.7288 7.29327C15.9162 7.48073 16.0217 7.73489 16.022 8V9C16.022 9.26522 16.1274 9.51957 16.3149 9.70711C16.5025 9.89464 16.7568 10 17.022 10C17.2873 10 17.5416 9.89464 17.7292 9.70711C17.9167 9.51957 18.022 9.26522 18.022 9V8C18.0212 7.20462 17.7048 6.44206 17.1424 5.87964C16.58 5.31722 15.8174 5.00087 15.022 5H14.022C13.7568 5 13.5025 5.10536 13.3149 5.29289C13.1274 5.48043 13.022 5.73478 13.022 6C13.022 6.26522 13.1274 6.51957 13.3149 6.70711C13.5025 6.89464 13.7568 7 14.022 7ZM10.022 16H9.02205C8.75694 15.9997 8.50278 15.8942 8.31532 15.7067C8.12786 15.5193 8.02239 15.2651 8.02205 15V14C8.02205 13.7348 7.91669 13.4804 7.72916 13.2929C7.54162 13.1054 7.28726 13 7.02205 13C6.75683 13 6.50248 13.1054 6.31494 13.2929C6.12741 13.4804 6.02205 13.7348 6.02205 14V15C6.02292 15.7954 6.33927 16.5579 6.90169 17.1204C7.46411 17.6828 8.22667 17.9991 9.02205 18H10.022C10.2873 18 10.5416 17.8946 10.7292 17.7071C10.9167 17.5196 11.022 17.2652 11.022 17C11.022 16.7348 10.9167 16.4804 10.7292 16.2929C10.5416 16.1054 10.2873 16 10.022 16ZM21.022 15C21.2873 15 21.5416 14.8946 21.7292 14.7071C21.9167 14.5196 22.022 14.2652 22.022 14C22.022 13.7348 21.9167 13.4804 21.7292 13.2929C21.5416 13.1054 21.2873 13 21.022 13H18.022V12.5C18.022 12.2348 17.9167 11.9804 17.7292 11.7929C17.5416 11.6054 17.2873 11.5 17.022 11.5C16.7568 11.5 16.5025 11.6054 16.3149 11.7929C16.1274 11.9804 16.022 12.2348 16.022 12.5V13H13.022C12.7568 13 12.5025 13.1054 12.3149 13.2929C12.1274 13.4804 12.022 13.7348 12.022 14C12.022 14.2652 12.1274 14.5196 12.3149 14.7071C12.5025 14.8946 12.7568 15 13.022 15H18.2063C17.9801 15.9191 17.5625 16.78 16.9808 17.5267C16.7428 17.2181 16.5322 16.8893 16.3516 16.5439C16.2917 16.4271 16.2094 16.3232 16.1094 16.2382C16.0094 16.1532 15.8936 16.0887 15.7686 16.0485C15.6436 16.0082 15.512 15.9929 15.3811 16.0036C15.2503 16.0142 15.1228 16.0505 15.0059 16.1104C14.8891 16.1702 14.7852 16.2526 14.7002 16.3526C14.6152 16.4526 14.5507 16.5684 14.5104 16.6934C14.4291 16.9458 14.4514 17.2201 14.5723 17.4561C14.8417 17.9765 15.163 18.4684 15.5314 18.924C14.8059 19.4508 13.9809 19.8247 13.1065 20.023C12.8478 20.0801 12.6224 20.2374 12.4796 20.4605C12.3368 20.6836 12.2884 20.9542 12.3449 21.213C12.4014 21.4718 12.5582 21.6975 12.781 21.8408C13.0038 21.984 13.2744 22.0331 13.5332 21.9771C14.7879 21.6996 15.9649 21.1456 16.9782 20.3555C18.0001 21.146 19.1848 21.6997 20.4468 21.9766C20.5751 22.0049 20.7076 22.0076 20.8369 21.9847C20.9662 21.9617 21.0897 21.9135 21.2004 21.8428C21.3111 21.7722 21.4068 21.6804 21.482 21.5727C21.5572 21.465 21.6104 21.3436 21.6387 21.2154C21.667 21.0871 21.6697 20.9546 21.6468 20.8253C21.6238 20.696 21.5756 20.5725 21.5049 20.4618C21.4343 20.3511 21.3425 20.2554 21.2348 20.1802C21.1271 20.105 21.0057 20.0518 20.8775 20.0235C19.9973 19.8278 19.1654 19.4571 18.4314 18.9334C19.3561 17.7952 19.9793 16.4425 20.2438 15H21.022Z" fill="black"/>
</svg>
