<svg width="24" height="24" viewBox="0 0 24 24" fill="none" xmlns="http://www.w3.org/2000/svg">
<path d="M7.95212 8.00044H14.9384L14.7613 10.0004H9.99118C9.72596 10.0004 9.47161 10.1058 9.28407 10.2933C9.09653 10.4809 8.99118 10.7352 8.99118 11.0004C8.99118 11.2657 9.09653 11.52 9.28407 11.7075C9.47161 11.8951 9.72596 12.0004 9.99118 12.0004H14.584L14.3203 14.977L11.9912 15.5053L9.66306 14.976L9.56735 13.9115C9.55568 13.7807 9.51835 13.6535 9.45751 13.5371C9.39667 13.4207 9.31351 13.3175 9.21276 13.2332C9.11201 13.149 8.99566 13.0854 8.87034 13.0461C8.74502 13.0069 8.61319 12.9927 8.48239 13.0043C8.35158 13.016 8.22435 13.0533 8.10796 13.1142C7.99158 13.175 7.88832 13.2582 7.80407 13.3589C7.71983 13.4597 7.65626 13.576 7.61698 13.7013C7.5777 13.8267 7.5635 13.9585 7.57517 14.0893L7.73532 15.8793C7.75423 16.0899 7.83934 16.2892 7.97846 16.4485C8.11758 16.6078 8.30356 16.7189 8.50974 16.766L11.7695 17.5062C11.9155 17.5388 12.0669 17.5388 12.2129 17.5062L15.4736 16.766C15.6799 16.7189 15.866 16.6076 16.0051 16.4481C16.1443 16.2886 16.2293 16.0891 16.248 15.8783L16.6796 11.0104L16.6816 11.0004L16.6808 10.9965L17.0273 7.08829C17.0393 6.95013 17.0225 6.81098 16.978 6.67965C16.9334 6.54833 16.862 6.4277 16.7684 6.32542C16.6747 6.22314 16.5608 6.14143 16.4339 6.08548C16.307 6.02953 16.1699 6.00056 16.0312 6.0004H7.95212C7.6869 6.0004 7.43255 6.10576 7.24501 6.29329C7.05747 6.48083 6.95212 6.73518 6.95212 7.0004C6.95212 7.26562 7.05747 7.51997 7.24501 7.70751C7.43255 7.89504 7.6869 8.0004 7.95212 8.0004V8.00044ZM20.6543 2.32563C20.5605 2.22322 20.4464 2.14143 20.3193 2.08545C20.1922 2.02947 20.0549 2.00052 19.916 2.00044H4.06638C3.92754 2.00037 3.79021 2.02923 3.66315 2.08517C3.53608 2.14111 3.42206 2.2229 3.32835 2.32534C3.23464 2.42778 3.16329 2.54862 3.11886 2.68015C3.07443 2.81168 3.05788 2.95103 3.07028 3.08931L4.51364 19.2836C4.53164 19.486 4.61092 19.6781 4.74091 19.8343C4.8709 19.9904 5.04542 20.1032 5.24118 20.1576L11.7138 21.9633C11.8895 22.0128 12.0753 22.0128 12.2509 21.9633L18.7412 20.1508C18.9369 20.0964 19.1115 19.9836 19.2414 19.8274C19.3714 19.6713 19.4507 19.4792 19.4687 19.2768L20.9121 3.0893C20.9243 2.95109 20.9078 2.81185 20.8634 2.68039C20.819 2.54893 20.7478 2.42812 20.6543 2.32563ZM17.5381 18.4106L11.9824 19.9624L6.44431 18.4174L5.15915 4.00044H18.8232L17.5381 18.4106Z" fill="black"/>
</svg>
