<svg width="24" height="24" viewBox="0 0 24 24" fill="none" xmlns="http://www.w3.org/2000/svg">
<path d="M21.9 9.6C21.7 9.1 21.1 8.9 20.6 9.1L17.7 10.5L15.6 8.4L13.5 6.3L14.9 3.4C15.1 2.9 14.9 2.3 14.4 2.1C13.9 1.9 13.3 2.1 13.1 2.6L11.6 5.7L5.20002 6.7C4.80002 6.8 4.50002 7.1 4.40002 7.5L2.00002 19.1C1.90002 19.4 2.00002 19.8 2.30002 20L4.00002 21.7C4.20002 21.9 4.50002 22 4.70002 22C4.80002 22 4.80002 22 4.90002 22L16.5 19.6C16.9 19.5 17.2 19.2 17.3 18.8L18.3 12.4L21.4 10.9C21.9 10.7 22.1 10.1 21.9 9.6ZM15.4 17.8L5.60002 19.8L9.30002 16.1C10.8 16.8 12.6 16.2 13.3 14.7C14 13.2 13.4 11.4 11.9 10.7C10.8 10.2 9.40002 10.4 8.50002 11.3C7.60002 12.2 7.40002 13.6 7.90002 14.7L4.20002 18.4L6.20002 8.6L12 7.6L14.2 9.8L16.4 12L15.4 17.8ZM9.60002 13.4C9.60002 13.1 9.70002 12.9 9.90002 12.7C10.3 12.3 10.9 12.3 11.3 12.7C11.7 13.1 11.7 13.7 11.3 14.1C10.9 14.5 10.3 14.5 9.90002 14.1C9.70002 13.9 9.60002 13.6 9.60002 13.4Z" fill="black"/>
</svg>
