<svg width="24" height="24" viewBox="0 0 24 24" fill="none" xmlns="http://www.w3.org/2000/svg">
<path d="M19 9.99999C18.7348 9.99999 18.4804 10.1054 18.2929 10.2929C18.1054 10.4804 18 10.7348 18 11V14.39L16.52 12.91C16.2626 12.6509 15.9564 12.4452 15.6192 12.3049C15.2819 12.1646 14.9203 12.0923 14.555 12.0923C14.1897 12.0923 13.8281 12.1646 13.4908 12.3049C13.1536 12.4452 12.8474 12.6509 12.59 12.91L11.89 13.61L9.41 11.12C8.88742 10.6015 8.18113 10.3106 7.445 10.3106C6.70887 10.3106 6.00258 10.6015 5.48 11.12L4 12.6V6.99999C4 6.73478 4.10536 6.48042 4.29289 6.29289C4.48043 6.10535 4.73478 5.99999 5 5.99999H13C13.2652 5.99999 13.5196 5.89464 13.7071 5.7071C13.8946 5.51956 14 5.26521 14 4.99999C14 4.73478 13.8946 4.48042 13.7071 4.29289C13.5196 4.10535 13.2652 3.99999 13 3.99999H5C4.20435 3.99999 3.44129 4.31607 2.87868 4.87867C2.31607 5.44128 2 6.20434 2 6.99999V19C2 19.7956 2.31607 20.5587 2.87868 21.1213C3.44129 21.6839 4.20435 22 5 22H17C17.7956 22 18.5587 21.6839 19.1213 21.1213C19.6839 20.5587 20 19.7956 20 19V11C20 10.7348 19.8946 10.4804 19.7071 10.2929C19.5196 10.1054 19.2652 9.99999 19 9.99999ZM5 20C4.73478 20 4.48043 19.8946 4.29289 19.7071C4.10536 19.5196 4 19.2652 4 19V15.43L6.9 12.53C7.04691 12.39 7.24206 12.3119 7.445 12.3119C7.64794 12.3119 7.84309 12.39 7.99 12.53L11.16 15.7L15.45 20H5ZM18 19C17.9986 19.1914 17.9354 19.3773 17.82 19.53L13.31 15L14.01 14.3C14.1562 14.1547 14.3539 14.0731 14.56 14.0731C14.7661 14.0731 14.9638 14.1547 15.11 14.3L18 17.22V19ZM20.41 4.99999L21.71 3.70999C21.8962 3.52263 22.0008 3.26918 22.0008 3.00499C22.0008 2.74081 21.8962 2.48736 21.71 2.29999C21.617 2.20627 21.5064 2.13187 21.3846 2.0811C21.2627 2.03033 21.132 2.0042 21 2.0042C20.868 2.0042 20.7373 2.03033 20.6154 2.0811C20.4936 2.13187 20.383 2.20627 20.29 2.29999L19 3.58999L17.71 2.29999C17.617 2.20627 17.5064 2.13187 17.3846 2.0811C17.2627 2.03033 17.132 2.0042 17 2.0042C16.868 2.0042 16.7373 2.03033 16.6154 2.0811C16.4936 2.13187 16.383 2.20627 16.29 2.29999C16.1038 2.48736 15.9992 2.74081 15.9992 3.00499C15.9992 3.26918 16.1038 3.52263 16.29 3.70999L17.59 4.99999L16.29 6.29999C16.1038 6.48736 15.9992 6.74081 15.9992 7.00499C15.9992 7.26918 16.1038 7.52263 16.29 7.70999C16.383 7.80372 16.4936 7.87812 16.6154 7.92889C16.7373 7.97965 16.868 8.00579 17 8.00579C17.132 8.00579 17.2627 7.97965 17.3846 7.92889C17.5064 7.87812 17.617 7.80372 17.71 7.70999L19 6.41999L20.29 7.70999C20.383 7.80372 20.4936 7.87812 20.6154 7.92889C20.7373 7.97965 20.868 8.00579 21 8.00579C21.132 8.00579 21.2627 7.97965 21.3846 7.92889C21.5064 7.87812 21.617 7.80372 21.71 7.70999C21.8962 7.52263 22.0008 7.26918 22.0008 7.00499C22.0008 6.74081 21.8962 6.48736 21.71 6.29999L20.41 4.99999Z" fill="black"/>
</svg>
