<svg width="24" height="24" viewBox="0 0 24 24" fill="none" xmlns="http://www.w3.org/2000/svg">
<path d="M4.5 10H10C10.7 9.99836 11.3774 9.75197 11.915 9.30349C12.4525 8.85501 12.8162 8.23268 12.9432 7.54427C13.0702 6.85585 12.9525 6.1447 12.6104 5.53395C12.2683 4.9232 11.7234 4.45131 11.07 4.2C10.694 3.46203 10.0982 2.85897 9.36489 2.47406C8.63154 2.08915 7.79679 1.94137 6.97587 2.05112C6.15495 2.16087 5.38834 2.52273 4.78186 3.08676C4.17537 3.6508 3.75893 4.38918 3.59 5.2C3.06481 5.42315 2.63176 5.81925 2.36279 6.32252C2.09381 6.82579 2.00511 7.40593 2.1114 7.96657C2.21769 8.52722 2.51258 9.03464 2.94709 9.40454C3.3816 9.77444 3.92957 9.98456 4.5 10ZM4.5 7C4.76522 7 5.01957 6.89464 5.20711 6.7071C5.39464 6.51957 5.5 6.26521 5.5 6C5.5033 5.52827 5.67324 5.07289 5.9798 4.71433C6.28635 4.35577 6.70978 4.11711 7.17527 4.04053C7.64075 3.96394 8.11832 4.05436 8.52359 4.29581C8.92886 4.53726 9.23574 4.91419 9.39 5.36C9.44866 5.52997 9.55207 5.68099 9.68934 5.79714C9.82661 5.91329 9.99266 5.99027 10.17 6.02C10.4014 6.05991 10.6114 6.17997 10.7631 6.35915C10.9149 6.53833 10.9987 6.76519 11 7C11 7.26521 10.8946 7.51957 10.7071 7.7071C10.5196 7.89464 10.2652 8 10 8H4.5C4.36739 8 4.24021 7.94732 4.14645 7.85355C4.05268 7.75978 4 7.6326 4 7.5C4 7.36739 4.05268 7.24021 4.14645 7.14644C4.24021 7.05267 4.36739 7 4.5 7ZM21 16H20V9C20 8.20435 19.6839 7.44128 19.1213 6.87867C18.5587 6.31607 17.7956 6 17 6H16C15.7348 6 15.4804 6.10535 15.2929 6.29289C15.1054 6.48042 15 6.73478 15 7C15 7.26521 15.1054 7.51957 15.2929 7.7071C15.4804 7.89464 15.7348 8 16 8H17C17.2652 8 17.5196 8.10535 17.7071 8.29289C17.8946 8.48042 18 8.73478 18 9V16H6V13C6 12.7348 5.89464 12.4804 5.70711 12.2929C5.51957 12.1054 5.26522 12 5 12C4.73478 12 4.48043 12.1054 4.29289 12.2929C4.10536 12.4804 4 12.7348 4 13V16H3C2.73478 16 2.48043 16.1054 2.29289 16.2929C2.10536 16.4804 2 16.7348 2 17V19C2 19.7956 2.31607 20.5587 2.87868 21.1213C3.44129 21.6839 4.20435 22 5 22H19C19.7956 22 20.5587 21.6839 21.1213 21.1213C21.6839 20.5587 22 19.7956 22 19V17C22 16.7348 21.8946 16.4804 21.7071 16.2929C21.5196 16.1054 21.2652 16 21 16ZM20 19C20 19.2652 19.8946 19.5196 19.7071 19.7071C19.5196 19.8946 19.2652 20 19 20H5C4.73478 20 4.48043 19.8946 4.29289 19.7071C4.10536 19.5196 4 19.2652 4 19V18H20V19Z" fill="black"/>
</svg>
