<svg width="24" height="24" viewBox="0 0 24 24" fill="none" xmlns="http://www.w3.org/2000/svg">
<path d="M10.8399 5.38C11.2243 5.1062 11.693 4.97711 12.1633 5.01554C12.6336 5.05397 13.0752 5.25745 13.4099 5.59C13.7855 5.96335 13.9977 6.47043 13.9999 7V10C13.9999 10.2652 14.1053 10.5196 14.2928 10.7071C14.4804 10.8946 14.7347 11 14.9999 11H15.9999C16.2652 11 16.5195 11.1054 16.707 11.2929C16.8946 11.4804 16.9999 11.7348 16.9999 12V12.34C16.9999 12.6052 17.1053 12.8596 17.2928 13.0471C17.4804 13.2346 17.7347 13.34 17.9999 13.34C18.2652 13.34 18.5195 13.2346 18.707 13.0471C18.8946 12.8596 18.9999 12.6052 18.9999 12.34V12C18.9999 11.2044 18.6839 10.4413 18.1213 9.87868C17.5587 9.31607 16.7956 9 15.9999 9V7C16.0004 6.47456 15.8972 5.95418 15.6965 5.4686C15.4957 4.98302 15.2013 4.54175 14.8299 4.17C14.1476 3.50732 13.2542 3.10527 12.3057 3.03399C11.3571 2.96271 10.4137 3.22674 9.63994 3.78C9.53488 3.8588 9.44637 3.95751 9.37947 4.07051C9.31256 4.18351 9.26856 4.30858 9.24999 4.43858C9.23142 4.56858 9.23864 4.70097 9.27123 4.82818C9.30382 4.9554 9.36115 5.07494 9.43994 5.18C9.51873 5.28506 9.61745 5.37357 9.73045 5.44048C9.84345 5.50738 9.96852 5.55138 10.0985 5.56995C10.2285 5.58852 10.3609 5.58131 10.4881 5.54872C10.6153 5.51612 10.7349 5.4588 10.8399 5.38ZM21.7099 20.29L3.70994 2.29C3.52164 2.1017 3.26624 1.99591 2.99994 1.99591C2.73364 1.99591 2.47824 2.1017 2.28994 2.29C2.10164 2.47831 1.99585 2.7337 1.99585 3C1.99585 3.2663 2.10164 3.5217 2.28994 3.71L7.61994 9C6.89184 9.09295 6.22308 9.44961 5.74025 10.0025C5.25742 10.5553 4.99403 11.266 4.99994 12V18C4.99994 18.7957 5.31601 19.5587 5.87862 20.1213C6.44123 20.6839 7.20429 21 7.99994 21H15.9999C16.464 20.9985 16.9213 20.8893 17.3361 20.6811C17.7508 20.4728 18.1115 20.1712 18.3899 19.8L20.2899 21.71C20.3829 21.8037 20.4935 21.8781 20.6154 21.9289C20.7372 21.9797 20.8679 22.0058 20.9999 22.0058C21.132 22.0058 21.2627 21.9797 21.3845 21.9289C21.5064 21.8781 21.617 21.8037 21.7099 21.71C21.8037 21.617 21.8781 21.5064 21.9288 21.3846C21.9796 21.2627 22.0057 21.132 22.0057 21C22.0057 20.868 21.9796 20.7373 21.9288 20.6154C21.8781 20.4936 21.8037 20.383 21.7099 20.29ZM15.9999 19H7.99994C7.73472 19 7.48037 18.8946 7.29283 18.7071C7.1053 18.5196 6.99994 18.2652 6.99994 18V12C6.99994 11.7348 7.1053 11.4804 7.29283 11.2929C7.48037 11.1054 7.73472 11 7.99994 11H9.58994L11.6599 13.07C11.4683 13.1393 11.3023 13.2655 11.1844 13.4317C11.0664 13.5979 11.0021 13.7962 10.9999 14V16C10.9999 16.2652 11.1053 16.5196 11.2928 16.7071C11.4804 16.8946 11.7347 17 11.9999 17C12.2652 17 12.5195 16.8946 12.707 16.7071C12.8946 16.5196 12.9999 16.2652 12.9999 16V14.41L16.9299 18.34C16.8607 18.5317 16.7345 18.6976 16.5682 18.8156C16.402 18.9335 16.2037 18.9979 15.9999 19Z" fill="black"/>
</svg>
