<svg width="24" height="24" viewBox="0 0 24 24" fill="none" xmlns="http://www.w3.org/2000/svg">
<path d="M18.8851 13.9928C20.6354 13.0915 21.1665 10.6432 21.1665 10.6432C21.1665 10.6432 18.8624 9.65308 17.1121 10.5576C16.375 10.9797 15.7829 11.615 15.4138 12.3801C15.4519 12.0514 15.4718 11.7208 15.4734 11.3899C16.5633 10.0626 17.1267 8.38046 17.0559 6.66437C16.7119 3.90131 13.7097 2 13.7097 2C13.7097 2 11.268 4.58258 11.6154 7.34906C11.9437 8.95136 12.8371 10.3822 14.1326 11.3807C14.1257 11.7183 14.1005 12.0553 14.0571 12.3901C13.665 11.5152 12.9976 10.7924 12.1566 10.3319C10.3828 9.47943 8.10809 10.535 8.10809 10.535C8.10809 10.535 8.71137 12.9666 10.4843 13.8191C11.527 14.2302 12.6819 14.257 13.7424 13.8946C13.4276 14.9385 12.9342 15.9199 12.2841 16.7952C11.8495 15.9318 11.1423 15.2358 10.272 14.8151C8.4588 14.0515 6.24365 15.2186 6.24365 15.2186C6.24365 15.2186 6.96442 17.6209 8.78021 18.381C9.33102 18.5978 9.92538 18.6809 10.5145 18.6235C8.85093 19.9397 6.79172 20.6558 4.67041 20.6558C4.49215 20.6558 4.3212 20.7266 4.19515 20.8526C4.0691 20.9787 3.99829 21.1496 3.99829 21.3279C3.99829 21.5061 4.0691 21.6771 4.19515 21.8031C4.3212 21.9292 4.49215 22 4.67041 22C6.17075 21.9987 7.6543 21.6843 9.02626 21.0771C10.3982 20.4698 11.6284 19.583 12.6382 18.4734C13.5651 19.2688 14.7532 19.6937 15.9743 19.6666C17.9344 19.4601 19.3146 17.3683 19.3146 17.3683C19.3146 17.3683 17.5216 15.6155 15.5649 15.8253C15.0852 15.8827 14.6223 16.0378 14.2048 16.2809C14.5885 15.5591 14.8885 14.796 15.0992 14.0062C16.3171 14.4822 17.6705 14.4774 18.8851 13.9928Z" fill="black"/>
</svg>
