<svg width="24" height="24" viewBox="0 0 24 24" fill="none" xmlns="http://www.w3.org/2000/svg">
<path d="M19.85 5.56004L21.64 3.77004C21.7447 3.68039 21.8297 3.57008 21.8897 3.44601C21.9497 3.32195 21.9835 3.18681 21.9888 3.0491C21.9941 2.91138 21.9709 2.77404 21.9206 2.64572C21.8703 2.51739 21.7941 2.40085 21.6966 2.30339C21.5992 2.20594 21.4826 2.12968 21.3543 2.0794C21.226 2.02913 21.0886 2.00592 20.9509 2.01124C20.8132 2.01656 20.6781 2.05029 20.554 2.11032C20.4299 2.17034 20.3196 2.25536 20.23 2.36004L18.44 4.15004L16.64 2.36004C16.4487 2.19622 16.2026 2.11061 15.9509 2.12033C15.6993 2.13005 15.4605 2.23438 15.2824 2.41248C15.1043 2.59057 15 2.82931 14.9903 3.08099C14.9805 3.33266 15.0662 3.57874 15.23 3.77004L17 5.56004L15.21 7.36004C15.0237 7.5474 14.9192 7.80086 14.9192 8.06504C14.9192 8.32923 15.0237 8.58268 15.21 8.77004C15.3973 8.95629 15.6508 9.06083 15.915 9.06083C16.1792 9.06083 16.4326 8.95629 16.62 8.77004L18.44 7.00004L20.23 8.79004C20.4173 8.97629 20.6708 9.08083 20.935 9.08083C21.1992 9.08083 21.4526 8.97629 21.64 8.79004C21.8262 8.60268 21.9308 8.34923 21.9308 8.08504C21.9308 7.82086 21.8262 7.5674 21.64 7.38004L19.85 5.56004ZM19.44 13C19.22 13 18.99 12.93 18.77 12.88C18.3245 12.7819 17.8866 12.6515 17.46 12.49C16.9961 12.3213 16.4861 12.33 16.0283 12.5146C15.5704 12.6993 15.1971 13.0467 14.98 13.49L14.76 13.94C13.786 13.3982 12.891 12.7253 12.1 11.94C11.3147 11.1491 10.6418 10.254 10.1 9.28004L10.52 9.00004C10.9633 8.78296 11.3108 8.40957 11.4954 7.95173C11.68 7.49389 11.6888 6.98395 11.52 6.52004C11.3612 6.09246 11.2309 5.65484 11.13 5.21004C11.08 4.99004 11.04 4.76004 11.01 4.53004C10.8885 3.82566 10.5196 3.18778 9.9696 2.73128C9.4196 2.27478 8.72467 2.02965 8.00998 2.04004H5.00998C4.57901 2.036 4.15223 2.12485 3.75869 2.30057C3.36515 2.47629 3.01409 2.73474 2.72941 3.05832C2.44473 3.38191 2.23311 3.76304 2.10897 4.17576C1.98482 4.58848 1.95106 5.0231 2.00998 5.45004C2.54272 9.63942 4.45601 13.5319 7.44763 16.5127C10.4393 19.4934 14.3387 21.3925 18.53 21.91H18.91C19.6474 21.9111 20.3594 21.6406 20.91 21.15C21.2263 20.8671 21.4791 20.5202 21.6514 20.1324C21.8238 19.7445 21.9119 19.3245 21.91 18.9V15.9C21.8977 15.2054 21.6448 14.5366 21.1943 14.0077C20.7439 13.4788 20.1238 13.1227 19.44 13ZM19.94 19C19.9398 19.142 19.9094 19.2823 19.8508 19.4117C19.7921 19.541 19.7066 19.6563 19.6 19.75C19.4882 19.8465 19.3576 19.9186 19.2164 19.9616C19.0752 20.0047 18.9265 20.0178 18.78 20C15.0349 19.5198 11.5562 17.8065 8.89269 15.1303C6.22917 12.4541 4.53239 8.96738 4.06998 5.22004C4.05406 5.07356 4.06801 4.92537 4.11098 4.78443C4.15395 4.64349 4.22505 4.51273 4.31998 4.40004C4.41369 4.29337 4.52904 4.20788 4.65836 4.14926C4.78767 4.09063 4.92799 4.06022 5.06998 4.06004H8.06998C8.30253 4.05487 8.5296 4.13092 8.71212 4.27511C8.89464 4.4193 9.02119 4.62261 9.06998 4.85004C9.10998 5.12337 9.15998 5.39337 9.21998 5.66004C9.3355 6.18719 9.48924 6.70522 9.67998 7.21004L8.27998 7.86004C8.16028 7.91496 8.0526 7.99299 7.96314 8.08964C7.87367 8.18629 7.80418 8.29966 7.75865 8.42324C7.71312 8.54682 7.69245 8.67817 7.69783 8.80976C7.7032 8.94135 7.73452 9.07059 7.78998 9.19004C9.22918 12.2728 11.7072 14.7508 14.79 16.19C15.0334 16.2901 15.3065 16.2901 15.55 16.19C15.6747 16.1454 15.7893 16.0765 15.8871 15.9872C15.985 15.898 16.0641 15.7901 16.12 15.67L16.74 14.27C17.2569 14.4549 17.7846 14.6085 18.32 14.73C18.5866 14.79 18.8566 14.84 19.13 14.88C19.3574 14.9288 19.5607 15.0554 19.7049 15.2379C19.8491 15.4204 19.9252 15.6475 19.92 15.88L19.94 19Z" fill="black"/>
</svg>
