<svg width="24" height="24" viewBox="0 0 24 24" fill="none" xmlns="http://www.w3.org/2000/svg">
<path d="M8.50997 12.4799C8.31219 12.4799 8.11885 12.5386 7.9544 12.6485C7.78995 12.7584 7.66177 12.9145 7.58609 13.0973C7.5104 13.28 7.4906 13.4811 7.52918 13.675C7.56777 13.869 7.66301 14.0472 7.80286 14.1871C7.94271 14.3269 8.1209 14.4221 8.31488 14.4607C8.50886 14.4993 8.70992 14.4795 8.89265 14.4038C9.07538 14.3281 9.23155 14.2 9.34144 14.0355C9.45132 13.8711 9.50997 13.6777 9.50997 13.4799C9.50997 13.2147 9.40461 12.9604 9.21707 12.7728C9.02954 12.5853 8.77518 12.4799 8.50997 12.4799ZM8.50997 7.99995C8.31219 7.99995 8.11885 8.0586 7.9544 8.16848C7.78995 8.27836 7.66177 8.43454 7.58609 8.61726C7.5104 8.79999 7.4906 9.00106 7.52918 9.19504C7.56777 9.38902 7.66301 9.5672 7.80286 9.70705C7.94271 9.84691 8.1209 9.94215 8.31488 9.98073C8.50886 10.0193 8.70992 9.99951 8.89265 9.92383C9.07538 9.84814 9.23155 9.71997 9.34144 9.55552C9.45132 9.39107 9.50997 9.19773 9.50997 8.99995C9.50997 8.73473 9.40461 8.48038 9.21707 8.29284C9.02954 8.1053 8.77518 7.99995 8.50997 7.99995ZM12 9.99995C11.7347 9.99995 11.4804 10.1053 11.2929 10.2928C11.1053 10.4804 11 10.7347 11 10.9999V11.9999C11 12.2652 11.1053 12.5195 11.2929 12.7071C11.4804 12.8946 11.7347 12.9999 12 12.9999C12.2652 12.9999 12.5195 12.8946 12.7071 12.7071C12.8946 12.5195 13 12.2652 13 11.9999V10.9999C13 10.7347 12.8946 10.4804 12.7071 10.2928C12.5195 10.1053 12.2652 9.99995 12 9.99995ZM20.5 8.56995C20.155 8.37146 19.774 8.2436 19.3791 8.19381C18.9842 8.14402 18.5834 8.1733 18.2 8.27995C17.8009 8.38684 17.4293 8.57777 17.11 8.83995L5.50997 2.12995C5.35795 2.04218 5.1855 1.99597 5.00997 1.99597C4.83443 1.99597 4.66199 2.04218 4.50997 2.12995C4.3555 2.21677 4.22688 2.34308 4.13727 2.49595C4.04766 2.64882 4.00027 2.82275 3.99997 2.99995V16.1699C3.40982 16.369 2.89814 16.7503 2.53869 17.259C2.17924 17.7676 1.9906 18.3772 1.99997 18.9999C1.99969 19.7819 2.30475 20.5331 2.85018 21.0935C3.3956 21.6538 4.13826 21.9791 4.91997 21.9999H5.49997C8.7767 21.9922 11.9931 21.1176 14.8225 19.465C17.6519 17.8123 19.9937 15.4403 21.61 12.5899C21.9833 11.9079 22.0772 11.1077 21.872 10.3577C21.6668 9.60783 21.1785 8.96687 20.51 8.56995H20.5ZM5.99997 4.72995L15.89 10.4399C14.7928 12.0772 13.3259 13.4334 11.608 14.3993C9.88996 15.3651 7.96893 15.9134 5.99997 15.9999V4.72995ZM19.87 11.6099C18.3854 14.2256 16.2174 16.3882 13.5979 17.8661C10.9785 19.3441 8.00645 20.0817 4.99997 19.9999C4.73475 19.9999 4.4804 19.8946 4.29286 19.7071C4.10532 19.5195 3.99997 19.2652 3.99997 18.9999C3.99918 18.866 4.02534 18.7332 4.07687 18.6095C4.12841 18.4858 4.20427 18.3737 4.29997 18.2799C4.48783 18.0989 4.73904 17.9984 4.99997 17.9999H5.50997C8.07768 17.9989 10.5991 17.316 12.8164 16.0211C15.0337 14.7263 16.8674 12.8658 18.13 10.6299C18.1907 10.5203 18.2736 10.4245 18.3735 10.3487C18.4734 10.2729 18.588 10.2188 18.71 10.1899C18.9621 10.1207 19.2313 10.153 19.46 10.2799C19.6894 10.4033 19.8617 10.6112 19.9401 10.8596C20.0185 11.108 19.997 11.3772 19.88 11.6099H19.87Z" fill="black"/>
</svg>
