<svg width="24" height="24" viewBox="0 0 24 24" fill="none" xmlns="http://www.w3.org/2000/svg">
<path d="M23 9.32004C23.0626 9.06311 23.027 8.79203 22.9 8.56005C22.5759 7.99769 22.144 7.50486 21.6289 7.10984C21.1139 6.71482 20.526 6.42539 19.8988 6.25815C19.2717 6.09092 18.6177 6.04916 17.9744 6.13529C17.331 6.22142 16.7111 6.43373 16.15 6.76005L14 8.00004L8.99999 5.65004C8.85784 5.5764 8.70008 5.53796 8.53999 5.53796C8.37989 5.53796 8.22214 5.5764 8.07999 5.65004L5.07999 7.38004C4.93173 7.46557 4.8079 7.58771 4.72035 7.73478C4.63281 7.88186 4.58448 8.04894 4.57999 8.22005C4.57515 8.39241 4.61496 8.56311 4.69556 8.71555C4.77616 8.86799 4.89481 8.997 5.03999 9.09004L8.33999 11.17L6.59999 12.17L1.81999 12.75C1.62783 12.7738 1.44671 12.8529 1.29861 12.9776C1.15051 13.1023 1.0418 13.2673 0.985679 13.4526C0.929557 13.6379 0.928438 13.8355 0.982457 14.0215C1.03648 14.2074 1.14331 14.3737 1.28999 14.5L4.82999 17.56C5.29604 18.0048 5.89289 18.2878 6.53223 18.367C7.17158 18.4463 7.81945 18.3176 8.37999 18L22.5 9.93005C22.6203 9.86758 22.7267 9.78129 22.8127 9.67642C22.8986 9.57156 22.9624 9.45031 23 9.32004ZM7.46999 16.32C7.2779 16.4257 7.05639 16.4654 6.83957 16.4329C6.62274 16.4003 6.42261 16.2974 6.26999 16.14L4.36999 14.51L7.09999 14.18C7.23414 14.1629 7.36342 14.1186 7.47999 14.05L10.84 12.12C10.9897 12.0337 11.1144 11.9099 11.2021 11.761C11.2897 11.612 11.3372 11.4429 11.34 11.27C11.342 11.0984 11.2999 10.9291 11.2176 10.7785C11.1352 10.6279 11.0155 10.501 10.87 10.41L7.56999 8.32004L8.66999 7.69004L13.67 10.01C13.8121 10.0837 13.9699 10.1221 14.13 10.1221C14.2901 10.1221 14.4478 10.0837 14.59 10.01L17.15 8.53004C17.6746 8.23605 18.2755 8.1065 18.8746 8.15821C19.4737 8.20992 20.0435 8.44051 20.51 8.82004L7.46999 16.32Z" fill="black"/>
</svg>
