<svg width="24" height="24" viewBox="0 0 24 24" fill="none" xmlns="http://www.w3.org/2000/svg">
<path d="M18 7H15.79C15.5974 6.27179 15.2571 5.59101 14.79 5H18C18.2653 5 18.5196 4.89464 18.7072 4.70711C18.8947 4.51957 19 4.26522 19 4C19 3.73478 18.8947 3.48043 18.7072 3.29289C18.5196 3.10536 18.2653 3 18 3H7.00005C6.73483 3 6.48048 3.10536 6.29294 3.29289C6.1054 3.48043 6.00005 3.73478 6.00005 4C6.00005 4.26522 6.1054 4.51957 6.29294 4.70711C6.48048 4.89464 6.73483 5 7.00005 5H10.5C11.1603 5.00232 11.8064 5.19134 12.3638 5.54523C12.9212 5.89913 13.3671 6.40346 13.65 7H7.00005C6.73483 7 6.48048 7.10536 6.29294 7.29289C6.1054 7.48043 6.00005 7.73478 6.00005 8C6.00005 8.26522 6.1054 8.51957 6.29294 8.70711C6.48048 8.89464 6.73483 9 7.00005 9H14C13.8802 9.8306 13.4658 10.5905 12.8326 11.1411C12.1993 11.6918 11.3892 11.9966 10.55 12H7.00005C6.9535 11.9953 6.9066 11.9953 6.86005 12C6.79378 11.9897 6.72632 11.9897 6.66005 12C6.59188 12.0232 6.52778 12.057 6.47005 12.1L6.35005 12.17C6.29527 12.2195 6.2481 12.2768 6.21005 12.34C6.17656 12.3843 6.14647 12.4311 6.12005 12.48C6.11115 12.5397 6.11115 12.6003 6.12005 12.66C6.04879 12.7597 6.00719 12.8776 6.00005 13C5.99537 13.0465 5.99537 13.0935 6.00005 13.14C5.98973 13.2063 5.98973 13.2737 6.00005 13.34C6.02326 13.4082 6.057 13.4723 6.10005 13.53C6.10005 13.53 6.10005 13.61 6.17005 13.65L12.17 20.65C12.3424 20.8516 12.5878 20.9764 12.8523 20.997C13.1167 21.0177 13.3785 20.9324 13.58 20.76C13.7816 20.5876 13.9064 20.3422 13.9271 20.0778C13.9477 19.8134 13.8624 19.5516 13.69 19.35L9.18005 14H10.5C11.8761 14.0057 13.2043 13.4954 14.2225 12.5697C15.2407 11.6441 15.875 10.3704 16 9H18C18.2653 9 18.5196 8.89464 18.7072 8.70711C18.8947 8.51957 19 8.26522 19 8C19 7.73478 18.8947 7.48043 18.7072 7.29289C18.5196 7.10536 18.2653 7 18 7Z" fill="black"/>
</svg>
