<svg width="24" height="24" viewBox="0 0 24 24" fill="none" xmlns="http://www.w3.org/2000/svg">
<path d="M12.9999 12C12.4066 12 11.8266 12.176 11.3332 12.5056C10.8399 12.8353 10.4554 13.3038 10.2283 13.852C10.0012 14.4001 9.94183 15.0033 10.0576 15.5853C10.1733 16.1672 10.4591 16.7018 10.8786 17.1213C11.2982 17.5409 11.8327 17.8266 12.4147 17.9424C12.9966 18.0581 13.5998 17.9987 14.148 17.7717C14.6962 17.5446 15.1647 17.1601 15.4944 16.6667C15.824 16.1734 15.9999 15.5934 15.9999 15C15.9991 14.2046 15.6827 13.4421 15.1203 12.8797C14.5579 12.3172 13.7953 12.0009 12.9999 12ZM12.9999 16C12.8022 16 12.6088 15.9414 12.4444 15.8315C12.2799 15.7216 12.1518 15.5654 12.0761 15.3827C12.0004 15.2 11.9806 14.9989 12.0192 14.8049C12.0577 14.6109 12.153 14.4328 12.2928 14.2929C12.4327 14.1531 12.6109 14.0578 12.8049 14.0192C12.9988 13.9806 13.1999 14.0005 13.3826 14.0761C13.5654 14.1518 13.7215 14.28 13.8314 14.4444C13.9413 14.6089 13.9999 14.8022 13.9999 15C13.9996 15.2651 13.8941 15.5193 13.7067 15.7067C13.5192 15.8942 13.2651 15.9997 12.9999 16ZM18.8002 7.60012L15.9999 5.50014V3.00002H16.9999C17.2652 3.00002 17.5195 2.89466 17.7071 2.70713C17.8946 2.51959 17.9999 2.26524 17.9999 2.00002C17.9999 1.7348 17.8946 1.48045 17.7071 1.29291C17.5195 1.10538 17.2652 1.00002 16.9999 1.00002H8.65669C7.99988 0.998221 7.34923 1.12672 6.74242 1.37808C6.13561 1.62944 5.58468 1.99866 5.12153 2.46438L4.29295 3.29302C4.19872 3.38556 4.12375 3.49584 4.07239 3.61751C4.02102 3.73918 3.99426 3.86983 3.99366 4.00189C3.99306 4.13396 4.01864 4.26484 4.0689 4.38697C4.11916 4.5091 4.19313 4.62006 4.28651 4.71345C4.3799 4.80684 4.49086 4.8808 4.61299 4.93106C4.73512 4.98133 4.866 5.0069 4.99807 5.0063C5.13014 5.0057 5.26078 4.97895 5.38245 4.92758C5.50412 4.87621 5.61441 4.80125 5.70695 4.70702L6.53556 3.87841C7.09952 3.31798 7.86162 3.00239 8.65669 3.00002H9.99995V5.50008L7.19917 7.60008C6.82762 7.88043 6.52602 8.24298 6.31797 8.65934C6.10992 9.0757 6.00107 9.53457 5.99995 10V22C5.99995 22.2652 6.1053 22.5196 6.29284 22.7071C6.48038 22.8947 6.73473 23 6.99995 23H18.9999C19.2652 23 19.5195 22.8947 19.7071 22.7071C19.8946 22.5196 19.9999 22.2652 19.9999 22V10C19.9988 9.53453 19.8899 9.07561 19.6818 8.65925C19.4736 8.24288 19.1719 7.88037 18.8002 7.60012ZM11.9999 3.00002H13.9999V5.00002H11.9999V3.00002ZM17.9999 21H7.99995V10C8.00031 9.84481 8.03661 9.69179 8.10599 9.55295C8.17537 9.41411 8.27595 9.29321 8.39985 9.19973L11.3334 7.00002H14.6664L17.5996 9.19973C17.7236 9.29311 17.8243 9.41397 17.8938 9.55283C17.9633 9.69168 17.9996 9.84475 17.9999 10V21Z" fill="black"/>
</svg>
