<svg width="24" height="24" viewBox="0 0 24 24" fill="none" xmlns="http://www.w3.org/2000/svg">
<path d="M21.9 7.58998L20.9 3.71998C20.7981 3.33565 20.6209 2.97541 20.3786 2.66019C20.1363 2.34497 19.8337 2.08106 19.4885 1.8838C19.1433 1.68654 18.7623 1.55986 18.3677 1.51114C17.9731 1.46241 17.5728 1.49261 17.19 1.59998L15.26 2.11998C15.1323 2.15362 15.0125 2.21221 14.9076 2.29238C14.8027 2.37254 14.7147 2.47269 14.6487 2.58705C14.5827 2.7014 14.54 2.82769 14.523 2.95864C14.5061 3.08958 14.5152 3.22259 14.55 3.34998L14.81 4.34998L4.18996 7.15998C3.9343 7.22805 3.71604 7.39466 3.58296 7.62332C3.44989 7.85198 3.41285 8.12406 3.47996 8.37998L3.73996 9.37998L2.73996 9.63998C2.47475 9.67313 2.23356 9.81028 2.06947 10.0213C1.90537 10.2322 1.83181 10.4998 1.86496 10.765C1.89812 11.0302 2.03527 11.2714 2.24625 11.4355C2.45722 11.5996 2.72475 11.6731 2.98996 11.64C3.07632 11.6504 3.16361 11.6504 3.24996 11.64L4.24996 11.37L4.50996 12.37C4.57887 12.6225 4.74402 12.8379 4.96996 12.97C5.1214 13.0599 5.29388 13.1081 5.46996 13.11C5.55597 13.1251 5.64396 13.1251 5.72996 13.11L8.99996 12.08V12.5C9.00066 12.944 9.10329 13.3819 9.29996 13.78L4.29996 18.78C4.11166 18.967 4.00535 19.2211 4.00441 19.4864C4.00347 19.7518 4.10799 20.0067 4.29496 20.195C4.48194 20.3833 4.73606 20.4896 5.00143 20.4905C5.26679 20.4915 5.52166 20.387 5.70996 20.2L10.71 15.2L10.99 15.31V21.5C10.99 21.7652 11.0953 22.0195 11.2829 22.2071C11.4704 22.3946 11.7247 22.5 11.99 22.5C12.2552 22.5 12.5095 22.3946 12.6971 22.2071C12.8846 22.0195 12.99 21.7652 12.99 21.5V15.32C13.089 15.286 13.1859 15.246 13.28 15.2L18.28 20.2C18.4683 20.387 18.7231 20.4915 18.9885 20.4905C19.2539 20.4896 19.508 20.3833 19.695 20.195C19.8819 20.0067 19.9865 19.7518 19.9855 19.4864C19.9846 19.2211 19.8783 18.967 19.69 18.78L14.69 13.78C14.8841 13.3805 14.9898 12.944 15 12.5V10.5L16.35 10.14L16.6 11.14C16.6586 11.3581 16.7893 11.55 16.9709 11.6844C17.1525 11.8188 17.3742 11.8877 17.6 11.88H17.86L19.79 11.36C20.18 11.2576 20.5455 11.0776 20.8644 10.8308C21.1834 10.584 21.4493 10.2754 21.6462 9.92344C21.8432 9.57151 21.9672 9.18348 22.0108 8.78255C22.0544 8.38162 22.0167 7.97601 21.9 7.58998ZM13 12.5C12.9989 12.7574 12.8986 13.0046 12.72 13.19C12.5346 13.3687 12.2874 13.469 12.03 13.47C11.7676 13.4689 11.5162 13.3647 11.33 13.18C11.1452 12.9937 11.0411 12.7423 11.04 12.48V11.48L13 11V12.5ZM6.18996 10.76L5.66996 8.82998L15.33 6.23998L15.59 7.23998L15.85 8.23998L6.18996 10.76ZM19.87 8.85998C19.8044 8.97474 19.7167 9.07538 19.612 9.15605C19.5073 9.23672 19.3877 9.29584 19.26 9.32998L18.26 9.58998L17.48 6.68998L17 4.75998L16.74 3.75998L17.74 3.49998C17.8674 3.46525 18.0004 3.4561 18.1313 3.47304C18.2622 3.48999 18.3885 3.53269 18.5029 3.5987C18.6172 3.66471 18.7174 3.75271 18.7976 3.85763C18.8777 3.96254 18.9363 4.0823 18.97 4.20998L19.97 8.07998C20.0069 8.21 20.017 8.34616 19.9999 8.48022C19.9827 8.61428 19.9385 8.74347 19.87 8.85998Z" fill="black"/>
</svg>
