<svg width="24" height="24" viewBox="0 0 24 24" fill="none" xmlns="http://www.w3.org/2000/svg">
<path d="M16.1745 12.9163C16.1563 12.9081 16.1393 12.8994 16.1207 12.8925C15.983 12.8303 15.8468 12.7655 15.7059 12.7095C16.6873 11.9387 17.404 10.8811 17.7562 9.68394C18.1083 8.48676 18.0784 7.20957 17.6707 6.03017C17.2629 4.85077 16.4976 3.82785 15.4812 3.10384C14.4648 2.37982 13.2479 1.99072 12 1.99072C10.7521 1.99072 9.53528 2.37982 8.51889 3.10384C7.5025 3.82785 6.73715 4.85077 6.32939 6.03017C5.92163 7.20957 5.89174 8.48676 6.24391 9.68394C6.59607 10.8811 7.31275 11.9387 8.29416 12.7095C8.15329 12.7655 8.01706 12.8303 7.87936 12.8925C7.86075 12.8994 7.84378 12.9081 7.82553 12.9163C6.25641 13.6321 4.90042 14.7438 3.89066 16.142C2.8809 17.5402 2.25209 19.177 2.06595 20.8916C2.0372 21.1553 2.11437 21.4195 2.28048 21.6263C2.44659 21.8331 2.68803 21.9654 2.95169 21.9941C3.21536 22.0229 3.47964 21.9457 3.68641 21.7796C3.89317 21.6135 4.02549 21.3721 4.05423 21.1084C4.19028 19.8546 4.62286 18.6511 5.31621 17.5976C6.00956 16.544 6.94375 15.6707 8.04153 15.0498L11.293 18.3013C11.3859 18.3942 11.4961 18.4678 11.6174 18.5181C11.7387 18.5684 11.8687 18.5942 12.0001 18.5942C12.1314 18.5942 12.2614 18.5684 12.3827 18.5181C12.504 18.4678 12.6143 18.3942 12.7071 18.3013L15.9585 15.0498C17.0563 15.6707 17.9905 16.544 18.6839 17.5976C19.3772 18.6511 19.8098 19.8546 19.9458 21.1084C19.9725 21.3532 20.0885 21.5795 20.2717 21.744C20.4549 21.9085 20.6923 21.9997 20.9385 22C20.9752 22 21.0119 21.998 21.0484 21.9941C21.312 21.9654 21.5535 21.8331 21.7196 21.6263C21.8857 21.4195 21.9629 21.1553 21.9341 20.8916C21.748 19.177 21.1192 17.5402 20.1094 16.142C19.0997 14.7438 17.7437 13.6321 16.1745 12.9163ZM8.04103 7.59424C8.13625 6.61026 8.59447 5.697 9.32639 5.03248C10.0583 4.36797 11.0115 3.99983 12 3.99983C12.9886 3.99983 13.9418 4.36797 14.6737 5.03248C15.4056 5.697 15.8638 6.61026 15.959 7.59424H8.04103ZM12 16.1802L10.0631 14.2432C11.334 13.9189 12.666 13.9189 13.937 14.2432L12 16.1802ZM12 12C11.2215 11.9988 10.4602 11.7705 9.80943 11.3432C9.15863 10.9159 8.64656 10.3081 8.33591 9.59424H15.6642C15.3535 10.3081 14.8414 10.9159 14.1906 11.3432C13.5398 11.7705 12.7786 11.9988 12 12Z" fill="black"/>
</svg>
