<svg width="24" height="24" viewBox="0 0 24 24" fill="none" xmlns="http://www.w3.org/2000/svg">
<path d="M15.8985 13.229L15.8943 13.2272C15.8309 13.2004 15.7699 13.1694 15.7059 13.144C16.4202 12.5842 16.9979 11.8694 17.3953 11.0535C17.7928 10.2376 17.9995 9.34209 18 8.43457C17.9977 8.2237 17.9828 8.01316 17.9554 7.80408C17.9707 7.76433 17.9833 7.72358 17.9932 7.68213L18.2744 5.28467C18.362 4.52717 18.1583 3.76472 17.7048 3.15176C17.2512 2.53879 16.5816 2.12114 15.8316 1.9834L15.0416 1.83984C13.0307 1.47266 10.9699 1.47266 8.95905 1.83984L8.16805 1.9834C7.41815 2.12124 6.74865 2.53894 6.29516 3.15189C5.84167 3.76485 5.63808 4.52724 5.72562 5.28467L6.00687 7.68213C6.01672 7.7236 6.02937 7.76436 6.04471 7.80413C6.01727 8.0132 6.00235 8.22372 6.00003 8.43457C6.00053 9.34209 6.20731 10.2376 6.60475 11.0535C7.00218 11.8693 7.57988 12.5842 8.29416 13.144C8.23016 13.1694 8.16916 13.2004 8.1058 13.2271L8.10153 13.229C6.46433 13.9171 5.04117 15.0309 3.97982 16.4547C2.91847 17.8786 2.25765 19.5606 2.06595 21.3262C2.0372 21.5898 2.11437 21.8541 2.28048 22.0609C2.44659 22.2676 2.68803 22.4 2.95169 22.4287C3.21536 22.4575 3.47964 22.3803 3.68641 22.2142C3.89317 22.0481 4.02549 21.8066 4.05423 21.543C4.19494 20.2451 4.65314 19.0019 5.38836 17.9232C6.12357 16.8445 7.11316 15.9635 8.26968 15.358L11.293 18.3813C11.3859 18.4742 11.4961 18.5479 11.6174 18.5982C11.7387 18.6484 11.8687 18.6743 12.0001 18.6743C12.1314 18.6743 12.2614 18.6484 12.3827 18.5982C12.504 18.5479 12.6143 18.4742 12.7071 18.3813L15.7304 15.358C16.8869 15.9635 17.8765 16.8445 18.6117 17.9232C19.3469 19.002 19.8051 20.2452 19.9458 21.543C19.9725 21.7878 20.0885 22.0141 20.2717 22.1786C20.4549 22.3431 20.6923 22.4343 20.9385 22.4346C20.9752 22.4346 21.0119 22.4326 21.0484 22.4287C21.312 22.4 21.5535 22.2677 21.7196 22.0609C21.8857 21.8541 21.9629 21.5899 21.9341 21.3262C21.7424 19.5607 21.0816 17.8786 20.0203 16.4547C18.9589 15.0309 17.5357 13.9171 15.8985 13.229ZM7.71194 5.05127C7.68282 4.79886 7.75069 4.54481 7.90182 4.34056C8.05296 4.13631 8.27605 3.99712 8.52594 3.95117L9.31647 3.80762C11.0908 3.4834 12.9093 3.4834 14.6837 3.80762L15.4737 3.95117C15.7236 3.99701 15.9468 4.13616 16.0981 4.34042C16.2493 4.54469 16.3172 4.79879 16.2881 5.05127L16.1104 6.56543H7.88968L7.71194 5.05127ZM12 16.2602L10.3498 14.61C11.4375 14.3761 12.5626 14.3761 13.6503 14.61L12 16.2602ZM12 12.4346C10.9622 12.4334 9.96532 12.0293 9.21953 11.3075C8.47373 10.5858 8.03724 9.60269 8.00203 8.56543H15.9981C15.9629 9.60271 15.5264 10.5858 14.7806 11.3076C14.0348 12.0293 13.0379 12.4334 12 12.4346Z" fill="black"/>
</svg>
