<svg width="24" height="24" viewBox="0 0 24 24" fill="none" xmlns="http://www.w3.org/2000/svg">
<path d="M14.49 10.8601C14.8249 10.399 15.0258 9.85435 15.0705 9.28626C15.1152 8.71817 15.0019 8.14879 14.7432 7.64106C14.4844 7.13334 14.0904 6.70704 13.6045 6.40931C13.1186 6.11157 12.5598 5.954 11.99 5.954C11.4202 5.954 10.8614 6.11157 10.3755 6.40931C9.88965 6.70704 9.49557 7.13334 9.23685 7.64106C8.97812 8.14879 8.86484 8.71817 8.90951 9.28626C8.95419 9.85435 9.15509 10.399 9.49 10.8601C9.06518 11.1308 8.68696 11.4685 8.37 11.8601C8.28727 11.9671 8.22643 12.0894 8.19095 12.2199C8.15547 12.3504 8.14606 12.4867 8.16323 12.6209C8.18041 12.7551 8.22385 12.8845 8.29107 13.0019C8.35829 13.1193 8.44798 13.2223 8.555 13.3051C8.66203 13.3878 8.78431 13.4486 8.91485 13.4841C9.04539 13.5196 9.18164 13.529 9.31582 13.5118C9.45 13.4947 9.57948 13.4512 9.69687 13.384C9.81427 13.3168 9.91727 13.2271 10 13.1201C10.2442 12.8096 10.5555 12.5584 10.9105 12.3853C11.2655 12.2121 11.655 12.1214 12.05 12.1201C12.445 12.1214 12.8345 12.2121 13.1895 12.3853C13.5445 12.5584 13.8558 12.8096 14.1 13.1201C14.1941 13.2361 14.313 13.3295 14.448 13.3936C14.583 13.4576 14.7306 13.4906 14.88 13.4901C15.0675 13.4892 15.2509 13.4357 15.4094 13.3356C15.5679 13.2354 15.6951 13.0928 15.7764 12.9239C15.8577 12.755 15.8899 12.5666 15.8694 12.3803C15.8488 12.1939 15.7762 12.0172 15.66 11.8701C15.3288 11.4707 14.9334 11.1294 14.49 10.8601ZM12 10.1301C11.7862 10.1299 11.5771 10.0669 11.3988 9.94878C11.2205 9.83069 11.0809 9.66276 10.9974 9.46591C10.9138 9.26905 10.89 9.05198 10.9289 8.8417C10.9679 8.63142 11.0678 8.43724 11.2162 8.28333C11.3647 8.12942 11.5552 8.02258 11.7639 7.97611C11.9726 7.92964 12.1904 7.9456 12.3902 8.022C12.5899 8.0984 12.7627 8.23187 12.8872 8.40578C13.0116 8.57969 13.0822 8.78636 13.09 9.00006C13.0954 9.14654 13.0712 9.29259 13.0188 9.42948C12.9664 9.56638 12.887 9.69131 12.7852 9.7968C12.6835 9.90229 12.5615 9.98618 12.4266 10.0434C12.2917 10.1007 12.1466 10.1302 12 10.1301ZM20.46 9.63006C20.3196 8.16898 19.8032 6.76915 18.9612 5.56688C18.1191 4.36462 16.9801 3.4009 15.655 2.76956C14.3299 2.13822 12.8639 1.86079 11.3997 1.96427C9.93555 2.06775 8.52314 2.54863 7.3 3.36006C6.2492 4.06271 5.36706 4.98936 4.71695 6.07346C4.06684 7.15755 3.6649 8.37217 3.54 9.63006C3.41749 10.8797 3.57468 12.141 4.00017 13.3223C4.42567 14.5037 5.1088 15.5755 6 16.4601L11.3 21.7701C11.393 21.8638 11.5036 21.9382 11.6254 21.989C11.7473 22.0397 11.878 22.0659 12.01 22.0659C12.142 22.0659 12.2727 22.0397 12.3946 21.989C12.5164 21.9382 12.627 21.8638 12.72 21.7701L18 16.4601C18.8912 15.5755 19.5743 14.5037 19.9998 13.3223C20.4253 12.141 20.5825 10.8797 20.46 9.63006ZM16.6 15.0501L12 19.6501L7.4 15.0501C6.72209 14.3721 6.20281 13.5524 5.87947 12.6498C5.55614 11.7473 5.43679 10.7843 5.53 9.83006C5.62382 8.86117 5.93177 7.92522 6.43157 7.08991C6.93138 6.25459 7.61056 5.54077 8.42 5.00006C9.48095 4.2953 10.7263 3.91936 12 3.91936C13.2737 3.91936 14.5191 4.2953 15.58 5.00006C16.387 5.53868 17.0647 6.24935 17.5644 7.081C18.064 7.91266 18.3733 8.84467 18.47 9.81007C18.5663 10.7675 18.4484 11.7343 18.125 12.6406C17.8016 13.5469 17.2807 14.3699 16.6 15.0501Z" fill="black"/>
</svg>
