<svg width="24" height="24" viewBox="0 0 24 24" fill="none" xmlns="http://www.w3.org/2000/svg">
<path d="M20.6403 15.7719C21.1913 15.143 21.4966 14.3362 21.5 13.5001C21.5 12.5718 21.1313 11.6816 20.4749 11.0252C19.8185 10.3688 18.9283 10.0001 18 10.0001C17.0717 10.0001 16.1815 10.3688 15.5251 11.0252C14.8687 11.6816 14.5 12.5718 14.5 13.5001C14.5034 14.3362 14.8087 15.143 15.3597 15.7719C14.6397 16.2183 14.0453 16.8407 13.6324 17.5804C13.2196 18.3202 13.0019 19.1529 13 20.0001C13 20.2653 13.1054 20.5197 13.2929 20.7072C13.4804 20.8947 13.7348 21.0001 14 21.0001C14.2652 21.0001 14.5196 20.8947 14.7071 20.7072C14.8946 20.5197 15 20.2653 15 20.0001C15 19.2044 15.3161 18.4414 15.8787 17.8788C16.4413 17.3161 17.2044 17.0001 18 17.0001C18.7956 17.0001 19.5587 17.3161 20.1213 17.8788C20.6839 18.4414 21 19.2044 21 20.0001C21 20.2653 21.1054 20.5197 21.2929 20.7072C21.4804 20.8947 21.7348 21.0001 22 21.0001C22.2652 21.0001 22.5196 20.8947 22.7071 20.7072C22.8946 20.5197 23 20.2653 23 20.0001C22.9981 19.1529 22.7804 18.3202 22.3676 17.5804C21.9547 16.8407 21.3603 16.2183 20.6403 15.7719ZM18 15.0001C17.7033 15.0001 17.4133 14.9121 17.1666 14.7473C16.92 14.5825 16.7277 14.3482 16.6142 14.0741C16.5007 13.8 16.4709 13.4984 16.5288 13.2074C16.5867 12.9165 16.7296 12.6492 16.9393 12.4394C17.1491 12.2296 17.4164 12.0868 17.7074 12.0289C17.9983 11.971 18.2999 12.0007 18.574 12.1143C18.8481 12.2278 19.0824 12.4201 19.2472 12.6667C19.412 12.9134 19.5 13.2034 19.5 13.5001C19.4996 13.8978 19.3414 14.279 19.0602 14.5603C18.779 14.8415 18.3977 14.9996 18 15.0001ZM6.79327 7.70742L8.793 9.70708C8.98109 9.89179 9.23451 9.99475 9.49812 9.99356C9.76174 9.99236 10.0142 9.88711 10.2006 9.7007C10.387 9.5143 10.4923 9.26182 10.4935 8.9982C10.4947 8.73459 10.3917 8.48117 10.207 8.29308L9.91406 8.00008H14.0859L13.7929 8.29308C13.6991 8.38572 13.6246 8.49599 13.5736 8.61755C13.5225 8.73911 13.496 8.86957 13.4956 9.0014C13.4952 9.13324 13.5209 9.26386 13.5711 9.38574C13.6214 9.50762 13.6953 9.61835 13.7885 9.71157C13.8817 9.80479 13.9925 9.87866 14.1144 9.92892C14.2362 9.97917 14.3669 10.0048 14.4987 10.0044C14.6305 10.004 14.761 9.97751 14.8825 9.92648C15.0041 9.87545 15.1144 9.80089 15.207 9.70708L17.2067 7.70739C17.3935 7.51938 17.4984 7.26509 17.4984 7.00005C17.4984 6.735 17.3935 6.48072 17.2067 6.29271L15.207 4.29308C15.0189 4.10837 14.7655 4.00541 14.5019 4.0066C14.2383 4.0078 13.9858 4.11305 13.7994 4.29945C13.613 4.48586 13.5077 4.73834 13.5065 5.00195C13.5053 5.26557 13.6083 5.51899 13.793 5.70708L14.086 6.00008H9.91406L10.2071 5.70708C10.3926 5.51916 10.4963 5.26546 10.4955 5.00136C10.4946 4.73727 10.3893 4.48423 10.2026 4.29748C10.0158 4.11074 9.7628 4.00547 9.49871 4.00464C9.23461 4.00382 8.98091 4.10751 8.793 4.29308L6.79327 6.29274C6.60645 6.48075 6.5016 6.73503 6.5016 7.00008C6.5016 7.26512 6.60645 7.51941 6.79327 7.70742ZM8.64027 15.7719C9.19131 15.143 9.49662 14.3362 9.5 13.5001C9.5 12.5718 9.13125 11.6816 8.47487 11.0252C7.8185 10.3688 6.92826 10.0001 6 10.0001C5.07174 10.0001 4.1815 10.3688 3.52513 11.0252C2.86875 11.6816 2.5 12.5718 2.5 13.5001C2.50338 14.3362 2.8087 15.143 3.35974 15.7719C2.63973 16.2183 2.04527 16.8407 1.63242 17.5804C1.21957 18.3202 1.00192 19.1529 1 20.0001C1 20.2653 1.10536 20.5197 1.29289 20.7072C1.48043 20.8947 1.73478 21.0001 2 21.0001C2.26522 21.0001 2.51957 20.8947 2.70711 20.7072C2.89464 20.5197 3 20.2653 3 20.0001C3 19.2044 3.31607 18.4414 3.87868 17.8788C4.44129 17.3161 5.20435 17.0001 6 17.0001C6.79565 17.0001 7.55871 17.3161 8.12132 17.8788C8.68393 18.4414 9 19.2044 9 20.0001C9 20.2653 9.10536 20.5197 9.29289 20.7072C9.48043 20.8947 9.73478 21.0001 10 21.0001C10.2652 21.0001 10.5196 20.8947 10.7071 20.7072C10.8946 20.5197 11 20.2653 11 20.0001C10.9981 19.1529 10.7804 18.3202 10.3676 17.5804C9.95473 16.8407 9.36027 16.2183 8.64026 15.7719H8.64027ZM6 15.0001C5.70333 15.0001 5.41332 14.9121 5.16664 14.7473C4.91997 14.5825 4.72771 14.3482 4.61418 14.0741C4.50065 13.8 4.47094 13.4984 4.52882 13.2074C4.5867 12.9165 4.72956 12.6492 4.93934 12.4394C5.14912 12.2296 5.41639 12.0868 5.70736 12.0289C5.99834 11.971 6.29994 12.0007 6.57403 12.1143C6.84811 12.2278 7.08238 12.4201 7.2472 12.6667C7.41203 12.9134 7.5 13.2034 7.5 13.5001C7.49957 13.8978 7.34139 14.279 7.06018 14.5603C6.77897 14.8415 6.39769 14.9996 6 15.0001Z" fill="black"/>
</svg>
