<svg width="24" height="24" viewBox="0 0 24 24" fill="none" xmlns="http://www.w3.org/2000/svg">
<path d="M6.92005 5.50994L3.71005 2.28994C3.61681 2.1967 3.50612 2.12274 3.38429 2.07228C3.26247 2.02182 3.1319 1.99585 3.00005 1.99585C2.86819 1.99585 2.73762 2.02182 2.6158 2.07228C2.49397 2.12274 2.38328 2.1967 2.29005 2.28994C2.10174 2.47824 1.99595 2.73364 1.99595 2.99994C1.99595 3.26624 2.10174 3.52164 2.29005 3.70994L4.56005 5.99994C3.40701 6.65542 2.34467 7.45891 1.40005 8.38994C1.21379 8.5773 1.10925 8.83076 1.10925 9.09494C1.10925 9.35913 1.21379 9.61258 1.40005 9.79994C1.49266 9.89443 1.6031 9.9696 1.72498 10.0211C1.84686 10.0726 1.97774 10.0994 2.11005 10.0999C2.37239 10.0988 2.62379 9.99469 2.81005 9.80994C3.76299 8.86491 4.8558 8.07228 6.05005 7.45994L7.54005 8.99994C6.30078 9.54164 5.17451 10.3117 4.22005 11.2699C4.11605 11.3603 4.03187 11.4713 3.97277 11.5957C3.91367 11.7202 3.88093 11.8556 3.87661 11.9933C3.87229 12.131 3.89648 12.2682 3.94767 12.3961C3.99885 12.524 4.07592 12.64 4.17404 12.7367C4.27217 12.8335 4.38923 12.9089 4.51788 12.9583C4.64652 13.0076 4.78399 13.0299 4.92164 13.0236C5.05929 13.0173 5.19416 12.9827 5.31779 12.9218C5.44141 12.861 5.55113 12.7752 5.64005 12.6699C6.60961 11.7047 7.79088 10.9788 9.09005 10.5499L10.71 12.1599C9.32372 12.4267 8.04899 13.1024 7.05005 14.0999C6.94605 14.1903 6.86187 14.3013 6.80277 14.4257C6.74367 14.5502 6.71093 14.6856 6.70661 14.8233C6.70229 14.961 6.72648 15.0982 6.77767 15.2261C6.82885 15.354 6.90592 15.47 7.00404 15.5667C7.10217 15.6635 7.21923 15.7389 7.34788 15.7883C7.47652 15.8376 7.61399 15.8599 7.75164 15.8536C7.88929 15.8473 8.02416 15.8127 8.14779 15.7518C8.27141 15.691 8.38113 15.6052 8.47005 15.4999C8.93075 15.0299 9.47973 14.6554 10.0855 14.398C10.6913 14.1406 11.3419 14.0053 12 13.9999C12.211 14.0005 12.4216 14.0172 12.63 14.0499L20.29 21.7099C20.383 21.8037 20.4936 21.8781 20.6155 21.9288C20.7373 21.9796 20.868 22.0057 21 22.0057C21.1321 22.0057 21.2628 21.9796 21.3846 21.9288C21.5065 21.8781 21.6171 21.8037 21.71 21.7099C21.8038 21.617 21.8782 21.5064 21.9289 21.3845C21.9797 21.2627 22.0058 21.132 22.0058 20.9999C22.0058 20.8679 21.9797 20.7372 21.9289 20.6154C21.8782 20.4935 21.8038 20.3829 21.71 20.2899L6.92005 5.50994ZM12 15.9999C11.4067 15.9999 10.8267 16.1759 10.3333 16.5055C9.83999 16.8352 9.45547 17.3037 9.22841 17.8519C9.00134 18.4001 8.94193 19.0033 9.05769 19.5852C9.17345 20.1672 9.45917 20.7017 9.87873 21.1213C10.2983 21.5408 10.8328 21.8265 11.4148 21.9423C11.9967 22.0581 12.5999 21.9986 13.1481 21.7716C13.6963 21.5445 14.1648 21.16 14.4945 20.6667C14.8241 20.1733 15 19.5933 15 18.9999C15 18.2043 14.684 17.4412 14.1214 16.8786C13.5588 16.316 12.7957 15.9999 12 15.9999ZM12 19.9999C11.8023 19.9999 11.6089 19.9413 11.4445 19.8314C11.28 19.7215 11.1519 19.5653 11.0762 19.3826C11.0005 19.1999 10.9807 18.9988 11.0193 18.8048C11.0578 18.6109 11.1531 18.4327 11.2929 18.2928C11.4328 18.153 11.611 18.0577 11.805 18.0192C11.9989 17.9806 12.2 18.0004 12.3827 18.0761C12.5655 18.1517 12.7216 18.2799 12.8315 18.4444C12.9414 18.6088 13 18.8022 13 18.9999C13 19.2652 12.8947 19.5195 12.7072 19.707C12.5196 19.8946 12.2653 19.9999 12 19.9999ZM22.61 8.38994C21.0121 6.79336 19.0741 5.57831 16.9408 4.83548C14.8076 4.09264 12.5341 3.84121 10.29 4.09994C10.1587 4.11439 10.0315 4.15456 9.91574 4.21816C9.79994 4.28176 9.6978 4.36754 9.61516 4.47062C9.44825 4.67878 9.37087 4.94472 9.40005 5.20994C9.42922 5.47516 9.56256 5.71792 9.77072 5.88483C9.97889 6.05174 10.2448 6.12912 10.51 6.09994C12.456 5.87785 14.427 6.09595 16.2774 6.73811C18.1277 7.38028 19.81 8.43009 21.2 9.80994C21.3883 9.99692 21.6432 10.1014 21.9086 10.1005C22.1739 10.0996 22.4281 9.99325 22.615 9.80494C22.802 9.61664 22.9065 9.36177 22.9056 9.09641C22.9047 8.83104 22.7983 8.57692 22.61 8.38994ZM18.36 12.6299C18.5502 12.7952 18.7957 12.8826 19.0475 12.8748C19.2993 12.8669 19.5388 12.7642 19.7182 12.5873C19.8976 12.4105 20.0036 12.1724 20.0151 11.9208C20.0265 11.6691 19.9426 11.4224 19.78 11.2299C18.4443 9.87873 16.7742 8.9057 14.94 8.40994C14.8094 8.35947 14.6695 8.33701 14.5296 8.34403C14.3897 8.35105 14.2528 8.38739 14.1279 8.45069C14.0029 8.51399 13.8926 8.60284 13.8042 8.71148C13.7158 8.82013 13.6511 8.94614 13.6145 9.08136C13.5779 9.21657 13.5701 9.35798 13.5916 9.4964C13.6131 9.63483 13.6635 9.76719 13.7394 9.8849C13.8154 10.0026 13.9152 10.1031 14.0325 10.1797C14.1497 10.2564 14.2818 10.3076 14.42 10.3299C15.9102 10.743 17.2677 11.5354 18.36 12.6299Z" fill="black"/>
</svg>
