<svg width="24" height="24" viewBox="0 0 24 24" fill="none" xmlns="http://www.w3.org/2000/svg">
<path d="M11.9999 2C10.0221 1.99998 8.08865 2.58647 6.44413 3.6853C4.7996 4.78413 3.51785 6.34594 2.76097 8.17323C2.00408 10.0005 1.80605 12.0112 2.19192 13.9511C2.57779 15.8909 3.53024 17.6728 4.9288 19.0713C6.32737 20.4698 8.10925 21.4222 10.0491 21.8081C11.9889 22.1939 13.9996 21.9958 15.8269 21.2389C17.6542 20.482 19.216 19.2002 20.3148 17.5556C21.4136 15.9111 22 13.9776 21.9999 11.9998C21.9969 9.34854 20.9424 6.80678 19.0677 4.93211C17.1929 3.05744 14.6512 2.00296 11.9999 2ZM3.00922 11.9998C3.00823 10.7389 3.27349 9.49203 3.78766 8.34076L8.07648 20.0913C6.5573 19.3544 5.27631 18.2047 4.38016 16.7737C3.484 15.3427 3.00889 13.6882 3.00922 11.9998ZM11.9999 20.9912C11.1401 20.9912 10.2847 20.8679 9.45994 20.6249L12.1578 12.7862L14.9211 20.3575C14.9391 20.4006 14.9607 20.442 14.9856 20.4814C14.0264 20.8194 13.0169 20.9917 11.9999 20.9912ZM13.2389 7.78436C13.7802 7.75592 14.268 7.69897 14.268 7.69897C14.3652 7.68999 14.455 7.64313 14.5179 7.56852C14.5808 7.4939 14.6119 7.39752 14.6044 7.3002C14.5968 7.20288 14.5513 7.11243 14.4776 7.04839C14.404 6.98436 14.308 6.95188 14.2106 6.95797C14.2106 6.95797 12.7543 7.07229 11.8141 7.07229C10.9308 7.07229 9.44634 6.95797 9.44634 6.95797C9.34906 6.95218 9.25339 6.98482 9.17995 7.04888C9.1065 7.11294 9.06116 7.20329 9.05369 7.30046C9.04621 7.39763 9.0772 7.49384 9.13999 7.56838C9.20277 7.64292 9.29232 7.68982 9.38934 7.69897C9.38934 7.69897 9.84784 7.75592 10.3323 7.78436L11.7331 11.6224L9.76509 17.5232L6.49127 7.78436C7.03294 7.75592 7.5202 7.699 7.5202 7.699C7.61733 7.68992 7.70699 7.64301 7.76984 7.5684C7.83268 7.49379 7.86368 7.39747 7.85613 7.30021C7.84859 7.20295 7.80311 7.11256 7.7295 7.04853C7.6559 6.98451 7.56008 6.952 7.46271 6.958C7.46271 6.958 6.00678 7.07232 5.06659 7.07232C4.89789 7.07232 4.69891 7.06817 4.48798 7.06139C5.20279 5.97352 6.14537 5.05389 7.25052 4.3661C8.35567 3.67831 9.59703 3.23877 10.8887 3.07789C12.1805 2.917 13.4917 3.0386 14.7318 3.43428C15.9719 3.82996 17.1113 4.49028 18.0711 5.36957C18.0324 5.36719 17.9946 5.36237 17.9548 5.36237C17.5433 5.37463 17.1534 5.5494 16.8704 5.84844C16.5874 6.14748 16.4345 6.54644 16.4449 6.958C16.5392 7.7289 16.8449 8.45871 17.3281 9.0667C17.8006 9.80837 18.0573 10.6669 18.0693 11.5463C17.9759 12.5419 17.7457 13.5199 17.3852 14.4528L16.4882 17.4491L13.2389 7.78436ZM16.5199 19.771L19.266 11.8313C19.7019 10.8128 19.9342 9.71877 19.9498 8.611C19.9503 8.30181 19.9301 7.99293 19.8893 7.68644C21.0129 9.74267 21.2895 12.1563 20.6602 14.4134C20.0308 16.6705 18.5453 18.5928 16.5199 19.771Z" fill="black"/>
</svg>
