<svg width="24" height="24" viewBox="0 0 24 24" fill="none" xmlns="http://www.w3.org/2000/svg">
<path d="M3.66675 11.9996C3.6662 15.1929 5.49042 18.1057 8.36353 19.4993L4.38818 8.60834C3.91162 9.67536 3.66583 10.831 3.66675 11.9996ZM12.1465 12.7286L9.64575 19.9938C11.3246 20.4882 13.1165 20.4417 14.7675 19.8608C14.7443 19.8243 14.7243 19.786 14.7078 19.746L12.1465 12.7286ZM17.6257 11.5794C17.6146 10.7644 17.3767 9.96863 16.9387 9.28125C16.4908 8.71771 16.2075 8.04126 16.1201 7.32672C16.0999 6.53259 16.7255 5.87146 17.5195 5.84778C17.5565 5.84778 17.5915 5.85224 17.6274 5.85449C14.2344 2.74646 8.96436 2.97754 5.85638 6.37049C5.55566 6.69873 5.2818 7.05054 5.03735 7.42255C5.23291 7.42877 5.41724 7.43268 5.57361 7.43268C6.44507 7.43268 7.79468 7.32666 7.79468 7.32666C7.98462 7.31568 8.14752 7.46076 8.15851 7.6507C8.16919 7.83539 8.03204 7.99555 7.8479 8.01343C7.8479 8.01343 7.39624 8.06629 6.89429 8.09259L9.92871 17.1191L11.7527 11.6498L10.4543 8.09265C10.0054 8.06634 9.58032 8.01349 9.58032 8.01349C9.39099 7.99518 9.25232 7.82684 9.27057 7.63751C9.28839 7.45324 9.44861 7.31604 9.63336 7.32672C9.63336 7.32672 11.0092 7.43274 11.8279 7.43274C12.6994 7.43274 14.0492 7.32672 14.0492 7.32672C14.2391 7.31561 14.4022 7.46057 14.4133 7.65045C14.4241 7.83539 14.2867 7.99579 14.1024 8.01349C14.1024 8.01349 13.6503 8.06635 13.1487 8.09265L16.1602 17.0504L17.0198 14.3264C17.3555 13.4454 17.5597 12.5198 17.6257 11.5794ZM19.3688 8.85877C19.3543 9.8855 19.139 10.8995 18.7349 11.8435L16.1897 19.2024C20.0933 16.9317 21.4781 11.965 19.3127 8.00196C19.3506 8.28595 19.3693 8.57221 19.3688 8.85877ZM12 2C6.47717 2 2 6.47717 2 12C2 17.5228 6.47717 22 12 22C17.5228 22 22 17.5228 22 12C22 6.47717 17.5228 2 12 2ZM15.6587 20.6615C12.7322 21.9 9.37787 21.5739 6.74475 19.795C5.23328 18.7745 4.05011 17.3378 3.33838 15.6587C2.09961 12.7322 2.42578 9.37775 4.20508 6.74475C5.22534 5.23315 6.66211 4.04986 8.34131 3.33844C11.2678 2.09998 14.6221 2.42603 17.2553 4.20496C18.7667 5.22541 19.9499 6.66217 20.6616 8.34125C21.9004 11.2677 21.5742 14.6222 19.7949 17.2552C18.7747 18.7668 17.3379 19.9501 15.6587 20.6615Z" fill="black"/>
</svg>
