<svg width="24" height="24" viewBox="0 0 24 24" fill="none" xmlns="http://www.w3.org/2000/svg">
<path fill-rule="evenodd" clip-rule="evenodd" d="M6.94581 1.35103C6.32191 1.2813 5.67812 1.2813 5.05422 1.35103C4.43473 1.42027 3.93115 1.90752 3.85738 2.5383C3.78265 3.17725 3.78265 3.82274 3.85738 4.4617C3.93115 5.09247 4.43473 5.57972 5.05422 5.64896C5.67812 5.71869 6.32191 5.71869 6.94581 5.64896C7.56529 5.57972 8.06887 5.09247 8.14265 4.4617C8.21738 3.82274 8.21738 3.17725 8.14265 2.5383C8.06887 1.90752 7.56529 1.42027 6.94581 1.35103ZM5.33452 4.16998C5.29027 3.72442 5.29027 3.27557 5.33452 2.83001C5.77429 2.78831 6.22574 2.78831 6.6655 2.83001C6.70976 3.27557 6.70976 3.72442 6.6655 4.16998C6.22574 4.21168 5.77429 4.21168 5.33452 4.16998Z" fill="black"/>
<path fill-rule="evenodd" clip-rule="evenodd" d="M12.9458 1.35103C12.3219 1.2813 11.6781 1.2813 11.0542 1.35103C10.4347 1.42027 9.93115 1.90752 9.85738 2.5383C9.78265 3.17725 9.78265 3.82274 9.85738 4.4617C9.93115 5.09247 10.4347 5.57972 11.0542 5.64896C11.6781 5.71869 12.3219 5.71869 12.9458 5.64896C13.5653 5.57972 14.0689 5.09247 14.1426 4.4617C14.2174 3.82274 14.2174 3.17725 14.1426 2.5383C14.0689 1.90752 13.5653 1.42027 12.9458 1.35103ZM11.3345 4.16998C11.2903 3.72442 11.2903 3.27557 11.3345 2.83001C11.7743 2.78831 12.2257 2.78831 12.6655 2.83001C12.7098 3.27557 12.7098 3.72442 12.6655 4.16998C12.2257 4.21168 11.7743 4.21168 11.3345 4.16998Z" fill="black"/>
<path fill-rule="evenodd" clip-rule="evenodd" d="M17.0542 1.35103C17.6781 1.2813 18.3219 1.2813 18.9458 1.35103C19.5653 1.42027 20.0689 1.90752 20.1426 2.5383C20.2174 3.17725 20.2174 3.82274 20.1426 4.4617C20.0689 5.09247 19.5653 5.57972 18.9458 5.64896C18.3219 5.71869 17.6781 5.71869 17.0542 5.64896C16.4347 5.57972 15.9312 5.09247 15.8574 4.4617C15.7826 3.82274 15.7826 3.17725 15.8574 2.5383C15.9312 1.90752 16.4347 1.42027 17.0542 1.35103ZM17.3345 2.83001C17.2903 3.27557 17.2903 3.72442 17.3345 4.16998C17.7743 4.21168 18.2257 4.21168 18.6655 4.16998C18.7098 3.72442 18.7098 3.27557 18.6655 2.83001C18.2257 2.78831 17.7743 2.78831 17.3345 2.83001Z" fill="black"/>
<path fill-rule="evenodd" clip-rule="evenodd" d="M6.94581 6.85103C6.32191 6.7813 5.67812 6.7813 5.05422 6.85103C4.43473 6.92027 3.93115 7.40752 3.85738 8.0383C3.78265 8.67725 3.78265 9.32274 3.85738 9.9617C3.93115 10.5925 4.43473 11.0797 5.05422 11.149C5.67812 11.2187 6.32191 11.2187 6.94581 11.149C7.56529 11.0797 8.06887 10.5925 8.14265 9.9617C8.21738 9.32274 8.21738 8.67725 8.14265 8.0383C8.06887 7.40752 7.56529 6.92027 6.94581 6.85103ZM5.33452 9.66998C5.29027 9.22442 5.29027 8.77557 5.33452 8.33001C5.77429 8.28831 6.22574 8.28831 6.6655 8.33001C6.70976 8.77557 6.70976 9.22442 6.6655 9.66998C6.22574 9.71168 5.77429 9.71168 5.33452 9.66998Z" fill="black"/>
<path fill-rule="evenodd" clip-rule="evenodd" d="M11.0542 6.85103C11.6781 6.7813 12.3219 6.7813 12.9458 6.85103C13.5653 6.92027 14.0689 7.40752 14.1426 8.0383C14.2174 8.67725 14.2174 9.32274 14.1426 9.9617C14.0689 10.5925 13.5653 11.0797 12.9458 11.149C12.3219 11.2187 11.6781 11.2187 11.0542 11.149C10.4347 11.0797 9.93115 10.5925 9.85738 9.9617C9.78265 9.32274 9.78265 8.67725 9.85738 8.0383C9.93115 7.40752 10.4347 6.92027 11.0542 6.85103ZM11.3345 8.33001C11.2903 8.77557 11.2903 9.22442 11.3345 9.66998C11.7743 9.71168 12.2257 9.71168 12.6655 9.66998C12.7098 9.22442 12.7098 8.77557 12.6655 8.33001C12.2257 8.28831 11.7743 8.28831 11.3345 8.33001Z" fill="black"/>
<path fill-rule="evenodd" clip-rule="evenodd" d="M18.9458 6.85103C18.3219 6.7813 17.6781 6.7813 17.0542 6.85103C16.4347 6.92027 15.9312 7.40752 15.8574 8.0383C15.7826 8.67725 15.7826 9.32274 15.8574 9.9617C15.9312 10.5925 16.4347 11.0797 17.0542 11.149C17.6781 11.2187 18.3219 11.2187 18.9458 11.149C19.5653 11.0797 20.0689 10.5925 20.1426 9.9617C20.2174 9.32274 20.2174 8.67725 20.1426 8.0383C20.0689 7.40752 19.5653 6.92027 18.9458 6.85103ZM17.3345 9.66998C17.2903 9.22442 17.2903 8.77557 17.3345 8.33001C17.7743 8.28831 18.2257 8.28831 18.6655 8.33001C18.7098 8.77557 18.7098 9.22442 18.6655 9.66998C18.2257 9.71168 17.7743 9.71168 17.3345 9.66998Z" fill="black"/>
<path fill-rule="evenodd" clip-rule="evenodd" d="M5.05422 12.351C5.67812 12.2813 6.32191 12.2813 6.94581 12.351C7.56529 12.4203 8.06887 12.9075 8.14265 13.5383C8.21738 14.1773 8.21738 14.8227 8.14265 15.4617C8.06887 16.0925 7.56529 16.5797 6.94581 16.649C6.32191 16.7187 5.67812 16.7187 5.05422 16.649C4.43473 16.5797 3.93115 16.0925 3.85738 15.4617C3.78265 14.8227 3.78265 14.1773 3.85738 13.5383C3.93115 12.9075 4.43473 12.4203 5.05422 12.351ZM5.33452 13.83C5.29027 14.2756 5.29027 14.7244 5.33452 15.17C5.77429 15.2117 6.22574 15.2117 6.6655 15.17C6.70976 14.7244 6.70976 14.2756 6.6655 13.83C6.22574 13.7883 5.77429 13.7883 5.33452 13.83Z" fill="black"/>
<path fill-rule="evenodd" clip-rule="evenodd" d="M12.9458 12.351C12.3219 12.2813 11.6781 12.2813 11.0542 12.351C10.4347 12.4203 9.93115 12.9075 9.85738 13.5383C9.78265 14.1773 9.78265 14.8227 9.85738 15.4617C9.93115 16.0925 10.4347 16.5797 11.0542 16.649C11.6781 16.7187 12.3219 16.7187 12.9458 16.649C13.5653 16.5797 14.0689 16.0925 14.1426 15.4617C14.2174 14.8227 14.2174 14.1773 14.1426 13.5383C14.0689 12.9075 13.5653 12.4203 12.9458 12.351ZM11.3345 15.17C11.2903 14.7244 11.2903 14.2756 11.3345 13.83C11.7743 13.7883 12.2257 13.7883 12.6655 13.83C12.7098 14.2756 12.7098 14.7244 12.6655 15.17C12.2257 15.2117 11.7743 15.2117 11.3345 15.17Z" fill="black"/>
<path fill-rule="evenodd" clip-rule="evenodd" d="M11.0542 17.851C11.6781 17.7813 12.3219 17.7813 12.9458 17.851C13.5653 17.9203 14.0689 18.4075 14.1426 19.0383C14.2174 19.6773 14.2174 20.3227 14.1426 20.9617C14.0689 21.5925 13.5653 22.0797 12.9458 22.149C12.3219 22.2187 11.6781 22.2187 11.0542 22.149C10.4347 22.0797 9.93115 21.5925 9.85738 20.9617C9.78265 20.3227 9.78265 19.6773 9.85738 19.0383C9.93115 18.4075 10.4347 17.9203 11.0542 17.851ZM11.3345 19.33C11.2903 19.7756 11.2903 20.2244 11.3345 20.67C11.7743 20.7117 12.2257 20.7117 12.6655 20.67C12.7098 20.2244 12.7098 19.7756 12.6655 19.33C12.2257 19.2883 11.7743 19.2883 11.3345 19.33Z" fill="black"/>
<path fill-rule="evenodd" clip-rule="evenodd" d="M18.9458 12.351C18.3219 12.2813 17.6781 12.2813 17.0542 12.351C16.4347 12.4203 15.9312 12.9075 15.8574 13.5383C15.7826 14.1773 15.7826 14.8227 15.8574 15.4617C15.9312 16.0925 16.4347 16.5797 17.0542 16.649C17.6781 16.7187 18.3219 16.7187 18.9458 16.649C19.5653 16.5797 20.0689 16.0925 20.1426 15.4617C20.2174 14.8227 20.2174 14.1773 20.1426 13.5383C20.0689 12.9075 19.5653 12.4203 18.9458 12.351ZM17.3345 15.17C17.2903 14.7244 17.2903 14.2756 17.3345 13.83C17.7743 13.7883 18.2257 13.7883 18.6655 13.83C18.7098 14.2756 18.7098 14.7244 18.6655 15.17C18.2257 15.2117 17.7743 15.2117 17.3345 15.17Z" fill="black"/>
</svg>
