<svg width="24" height="24" viewBox="0 0 24 24" fill="none" xmlns="http://www.w3.org/2000/svg">
<g clip-path="url(#clip0_201_58006)">
<path d="M0 1.69125V5.88675H1.8285C3.10575 5.88675 3.3285 6.75 3.3285 7.9455L3.3405 15.3555C3.3405 19.1955 6.78225 22.3088 11.0205 22.3088H21.4852C22.8247 22.3088 24.0007 21.477 24.0007 20.199V8.70675C24.0007 4.86675 20.559 1.75725 16.317 1.75725H11.9107V1.7415L0 1.69125ZM5.7225 4.25775H7.824V14.82C7.824 16.2337 8.80875 17.328 9.9645 17.328L17.1322 17.3595C18.6285 17.3595 19.7962 16.3515 19.7962 15.1522L19.7805 9.54675C19.7925 9.20325 19.6515 8.871 19.398 8.63625C19.1595 8.3865 18.828 8.2455 18.48 8.25375C18.105 8.25375 17.8275 8.37075 17.562 8.63625C17.3078 8.871 17.1675 9.2025 17.175 9.54675V14.3437H14.952V9.54675C14.952 9.18375 14.8268 8.898 14.5613 8.63625C14.3265 8.382 13.9912 8.2455 13.647 8.25375C13.2795 8.25375 12.9982 8.3745 12.7327 8.63625C12.4672 8.898 12.342 9.183 12.342 9.54675V14.3475H10.119V9.54675C10.119 8.59725 10.4782 7.758 11.1578 7.08225C11.814 6.4185 12.7125 6.051 13.6462 6.0585C14.5837 6.0585 15.396 6.4065 16.0568 7.03125C16.7055 6.402 17.5763 6.05475 18.4785 6.0585C19.4318 6.0585 20.2793 6.4065 20.9632 7.08225C21.6353 7.7265 22.0103 8.6175 22.0065 9.54675L22.014 15.5392C21.9082 16.5435 21.4747 17.4337 20.733 18.1762C19.8967 19.0275 18.7523 19.5045 17.5575 19.4887H9.573V19.4535C8.5965 19.3477 7.725 18.9337 7.00275 18.2347C6.159 17.4105 5.72175 16.3912 5.72175 15.2272L5.7225 4.25775Z" fill="black"/>
</g>
<defs>
<clipPath id="clip0_201_58006">
<rect width="24" height="24" fill="white"/>
</clipPath>
</defs>
</svg>
