<svg width="24" height="24" viewBox="0 0 24 24" fill="none" xmlns="http://www.w3.org/2000/svg">
<g clip-path="url(#clip0_201_57670)">
<path d="M23.727 0.590256C24.996 1.85926 21.4732 7.44901 20.8747 8.04751C20.277 8.64151 18.7657 8.09476 17.4915 6.82051C16.2187 5.55151 15.6712 4.03576 16.2697 3.43876C16.863 2.84476 22.4527 -0.683244 23.727 0.591006V0.590256ZM5.88673 1.93426C3.94048 0.832506 1.17973 -0.394494 0.300727 0.484506C-0.590273 1.37551 0.679477 4.20376 1.79248 6.14851C2.78473 4.42651 4.19473 2.97376 5.88673 1.93426ZM21.7852 7.60876C21.9652 8.21476 21.9345 8.71501 21.6412 9.00376C20.9655 9.68401 19.1332 8.96101 17.484 7.39051C17.367 7.28476 17.2537 7.17976 17.145 7.06575C16.5472 6.47251 16.0822 5.83576 15.7852 5.25001C15.207 4.21501 15.0622 3.30076 15.5002 2.86276C15.738 2.62501 16.1175 2.55901 16.5825 2.64451C16.8877 2.45251 17.2425 2.23726 17.6377 2.01976C15.9885 1.16401 14.1607 0.714756 12.306 0.718506C5.92723 0.718506 0.758977 5.89051 0.758977 12.2655C0.758977 18.6443 5.92723 23.8155 12.306 23.8155C18.6847 23.8155 23.856 18.6443 23.856 12.2655C23.856 10.2068 23.313 8.27626 22.368 6.60151C22.185 6.94051 21.9892 7.27651 21.786 7.60876H21.7852Z" fill="black"/>
</g>
<defs>
<clipPath id="clip0_201_57670">
<rect width="24" height="24" fill="white"/>
</clipPath>
</defs>
</svg>
