<svg width="24" height="24" viewBox="0 0 24 24" fill="none" xmlns="http://www.w3.org/2000/svg">
<g clip-path="url(#clip0_201_57276)">
<path d="M21.387 9.77024H14.3123L10.02 14.7892H1.55925L3.84 12.102H1.12125C0.504 12.102 0 12.6172 0 13.2502V15.6802C0 16.3125 0.504 16.8285 1.12125 16.8285H14.055C14.6722 16.8285 15.516 16.4452 15.93 15.9735L17.8868 13.7505L21.3547 9.80549L21.387 9.77024ZM20.262 11.0467L19.512 11.9017L20.262 11.0467ZM22.8787 7.17224H9.9795C9.36225 7.17224 8.51925 7.55549 8.1045 8.02349L2.61675 14.2342H9.66375L14.031 9.21524H22.4528L20.1908 11.9025H22.8787C23.496 11.9025 24 11.3835 24 10.7505V8.32424C24 7.69124 23.496 7.17224 22.8787 7.17224ZM21.0082 10.1947L20.6332 10.6207L20.535 10.7377L21.0082 10.1947Z" fill="black"/>
</g>
<defs>
<clipPath id="clip0_201_57276">
<rect width="24" height="24" fill="white"/>
</clipPath>
</defs>
</svg>
