<svg width="24" height="24" viewBox="0 0 24 24" fill="none" xmlns="http://www.w3.org/2000/svg">
<path d="M22.9335 6.40949C22.8405 6.16199 22.5562 6.03674 22.3132 6.14174C22.0822 6.23924 21.969 6.50249 22.0582 6.73349C22.5 7.90949 22.743 9.18599 22.743 10.5157C22.743 15.9727 18.6765 20.4765 13.4107 21.1657V16.1505C13.731 16.0897 14.0392 16.005 14.343 15.8992V20.1157C18.669 19.0657 21.8797 15.1657 21.8797 10.5157C21.8797 6.79424 19.8202 3.55124 16.7797 1.86824C16.5487 1.73849 16.2525 1.83149 16.1355 2.07074C16.026 2.29349 16.1107 2.56499 16.326 2.68274C19.0785 4.20749 20.9437 7.14224 20.9437 10.515C20.9437 14.2972 18.5962 17.5327 15.276 18.8422V15.1042C15.852 14.922 16.2855 14.3865 16.2855 13.746C16.2855 13.215 16.0095 12.7567 15.5842 12.5092C15.921 9.28649 17.388 10.1332 17.388 9.10799V8.51174C17.388 6.97124 13.8247 1.95224 12.1582 1.83449C12.057 1.82624 11.9557 1.82624 11.85 1.83449C10.1797 1.95599 6.61647 6.97124 6.61647 8.51174V9.11174C6.61647 10.1377 8.08797 9.28574 8.42022 12.513C7.99047 12.7605 7.71897 13.2187 7.71897 13.7497C7.71897 14.3902 8.14872 14.9257 8.72472 15.108V18.846C5.40447 17.5402 3.05697 14.3055 3.05697 10.5187C3.05697 7.14974 4.92222 4.21499 7.67472 2.68649C7.89372 2.56499 7.97472 2.29724 7.86522 2.07449C7.74747 1.83524 7.45572 1.74224 7.22097 1.87199C4.18047 3.55424 2.12097 6.79799 2.12097 10.5195C2.12097 15.1695 5.33172 19.0657 9.65772 20.1195V15.903C9.96597 16.0042 10.2697 16.0897 10.59 16.1542V21.1687C5.32797 20.4795 1.25772 15.9757 1.25772 10.5187C1.25772 9.18899 1.50072 7.91174 1.94247 6.73649C2.03172 6.50099 1.91847 6.24224 1.68747 6.14474C1.44447 6.03899 1.16022 6.16124 1.06722 6.41249C0.58872 7.68974 0.32547 9.07199 0.32547 10.5195C0.32547 16.8075 5.29572 21.936 11.5267 22.1872V16.272C11.8027 16.2885 12.135 16.2922 12.4755 16.272V22.1827C18.7065 21.9352 23.6767 16.8075 23.6767 10.5195C23.6767 9.07199 23.4135 7.68974 22.935 6.40874L22.9335 6.40949ZM14.8335 12.7905C15.3607 12.7905 15.7942 13.2165 15.7942 13.7512C15.7942 14.2822 15.3645 14.712 14.8335 14.712C14.3062 14.712 13.8727 14.286 13.8727 13.7512C13.8727 13.2202 14.3025 12.7905 14.8335 12.7905ZM9.16647 14.7082C8.63097 14.7082 8.20572 14.2747 8.20572 13.7475C8.20572 13.2202 8.63172 12.7867 9.16647 12.7867C9.69747 12.7867 10.1272 13.2165 10.1272 13.7475C10.1272 14.2747 9.70122 14.7082 9.16647 14.7082Z" fill="black"/>
</svg>
