<svg width="24" height="24" viewBox="0 0 24 24" fill="none" xmlns="http://www.w3.org/2000/svg">
<g clip-path="url(#clip0_201_58180)">
<path d="M21.8588 5.17198C24.723 9.27298 24.723 14.727 21.8588 18.828L18.762 15.7297C20.0468 13.41 20.0468 10.59 18.762 8.26948L21.8588 5.17198ZM18.828 2.14123L15.7298 5.23798C13.3395 3.92623 10.4378 3.96898 8.08951 5.35873C5.74126 6.74548 4.30426 9.26998 4.30426 11.9955C4.30426 14.7225 5.74126 17.2455 8.08951 18.6322C10.4378 20.019 13.3395 20.061 15.7298 18.7492L18.828 21.858C15.1598 24.4012 10.383 24.6937 6.42976 22.6237C2.47651 20.5537 -0.00448608 16.4557 -0.00448608 11.9947C-0.00448608 7.52998 2.47651 3.43648 6.42976 1.36198C10.383 -0.708021 15.1598 -0.411021 18.828 2.12773V2.14123ZM21.8588 5.17198C24.723 9.27298 24.723 14.727 21.8588 18.828L18.762 15.7297C20.0468 13.41 20.0468 10.59 18.762 8.26948L21.8588 5.17198Z" fill="black"/>
</g>
<defs>
<clipPath id="clip0_201_58180">
<rect width="24" height="24" fill="white"/>
</clipPath>
</defs>
</svg>
