<svg width="24" height="24" viewBox="0 0 24 24" fill="none" xmlns="http://www.w3.org/2000/svg">
<g clip-path="url(#clip0_201_58044)">
<path d="M12 0C5.379 0 0 5.379 0 12C0 18.621 5.379 24 12 24C18.621 24 24 18.621 24 12C24 5.379 18.621 0 12 0ZM12 0.75C14.871 0.75 17.4802 1.83225 19.4685 3.6015H4.53075C6.58575 1.76175 9.2415 0.75 11.9992 0.75H12ZM4.81275 4.3515H19.188L12.0007 18.7222L4.81275 4.3515ZM3.6015 4.5315V19.4692C1.76175 17.4142 0.75 14.7585 0.75 12.0007C0.75 9.12975 1.83225 6.5205 3.6015 4.53225V4.5315ZM20.3985 4.5315C22.2383 6.5865 23.25 9.24225 23.25 12C23.25 14.871 22.1677 17.4802 20.3985 19.4685V4.5315ZM4.3515 5.1015L11.625 19.6485H4.3515V5.1015ZM19.6485 5.1015V19.6485H12.375L19.6522 5.1015H19.6485ZM4.5315 20.3985H19.4692C17.4142 22.2383 14.7547 23.25 12.0007 23.25C9.24675 23.25 6.5865 22.2383 4.53225 20.3985H4.5315Z" fill="black"/>
</g>
<defs>
<clipPath id="clip0_201_58044">
<rect width="24" height="24" fill="white"/>
</clipPath>
</defs>
</svg>
