<svg width="24" height="24" viewBox="0 0 24 24" fill="none" xmlns="http://www.w3.org/2000/svg">
<path d="M12.0203 6.53476C9.5205 6.53476 7.41825 8.25001 6.777 10.551C6.219 9.32026 4.98375 8.44501 3.55125 8.44501C1.5945 8.45701 0.00825 10.0433 0 12C0.00825 13.9568 1.59375 15.543 3.55125 15.555C4.9845 15.555 6.21525 14.6798 6.777 13.4453C7.41825 15.75 9.51975 17.4653 12.0203 17.4653C14.5043 17.4653 16.5945 15.7703 17.25 13.4843C17.8162 14.6955 19.0312 15.555 20.445 15.555C22.4062 15.543 23.9918 13.9568 24 12C23.9918 10.0433 22.4062 8.45701 20.445 8.44501C19.0312 8.44501 17.8162 9.30526 17.2463 10.5158C16.5945 8.22976 14.5043 6.53476 12.0203 6.53476ZM12.0203 8.62126C13.8953 8.62126 15.3953 10.1213 15.3953 12C15.3953 13.8788 13.8953 15.3788 12.0203 15.3788C10.1483 15.387 8.63325 13.8668 8.6415 12C8.6415 10.1213 10.1415 8.62126 12.0203 8.62126ZM3.55125 10.5308C4.3755 10.5308 5.0205 11.1758 5.0205 12C5.0205 12.8243 4.3755 13.4693 3.55125 13.4693C2.73825 13.4775 2.0745 12.8123 2.0865 12C2.0865 11.1758 2.73075 10.5308 3.55125 10.5308ZM20.445 10.5308C21.27 10.5308 21.9142 11.1758 21.9142 12C21.9142 12.8243 21.27 13.4693 20.445 13.4693C19.6327 13.4775 18.9727 12.8123 18.9802 12C18.9802 11.1758 19.6252 10.5308 20.445 10.5308Z" fill="black"/>
</svg>
