<svg width="24" height="24" viewBox="0 0 24 24" fill="none" xmlns="http://www.w3.org/2000/svg">
<g clip-path="url(#clip0_201_57844)">
<path d="M18.1642 7.92974V5.08574C18.9337 4.72649 19.4257 3.95699 19.4302 3.10499V3.03824C19.4265 1.83149 18.45 0.850488 17.2387 0.846738H17.172C15.9607 0.850488 14.9805 1.82699 14.9767 3.03824V3.10499C14.9805 3.94874 15.4687 4.71449 16.2307 5.07749L16.2427 5.08499V7.93649C15.1567 8.10074 14.1292 8.55374 13.2742 9.24524L13.2862 9.23774L5.45774 3.14024C6.16499 0.499488 2.71949 -1.19176 1.06349 0.983988C-0.597013 3.15599 1.93874 6.03074 4.30199 4.65599L4.28999 4.66349L11.985 10.6515C11.3055 11.6752 10.9417 12.8745 10.9462 14.1007C10.9462 15.4402 11.3722 16.6867 12.0945 17.706L12.0825 17.6865L9.73874 20.0265C9.55124 19.968 9.35624 19.9365 9.16049 19.9327H9.15674C7.34849 19.9327 6.43799 22.1242 7.71899 23.4052C8.99999 24.6825 11.1915 23.7765 11.1915 21.9675C11.1877 21.7642 11.1525 21.561 11.0902 21.3697L11.094 21.3855L13.4107 19.0687C14.9422 20.2365 16.9267 20.6355 18.7897 20.1472C20.649 19.6552 22.1842 18.339 22.9417 16.569C23.7037 14.7997 23.6055 12.78 22.6762 11.0925C21.7507 9.40499 20.094 8.24099 18.1957 7.93649L18.1567 7.92899L18.1642 7.92974ZM17.199 17.3085C14.3437 17.301 12.9217 13.8472 14.9452 11.832C16.965 9.81599 20.4142 11.2462 20.4142 14.1015V14.1052C20.4142 15.8745 18.981 17.3085 17.2072 17.3085H17.199Z" fill="black"/>
</g>
<defs>
<clipPath id="clip0_201_57844">
<rect width="24" height="24" fill="white"/>
</clipPath>
</defs>
</svg>
