<svg width="24" height="24" viewBox="0 0 24 24" fill="none" xmlns="http://www.w3.org/2000/svg">
<g clip-path="url(#clip0_201_57810)">
<path d="M16.6882 17.9692C17.0745 17.6955 17.961 18.2933 18.6682 19.3013C19.3755 20.3092 19.6335 21.3442 19.242 21.6173C18.855 21.891 17.9692 21.2933 17.262 20.2853C16.5592 19.2773 16.3012 18.2423 16.6882 17.9692ZM7.40171 17.9692C7.01546 17.6955 6.12896 18.2933 5.42546 19.3013C4.71821 20.3092 4.46021 21.3442 4.85171 21.6173C5.23796 21.891 6.12446 21.2933 6.82796 20.2853C7.53521 19.2773 7.79321 18.2423 7.40171 17.9692ZM12.039 19.5472C11.5657 19.5472 11.184 20.5433 11.184 21.7733C11.184 23.004 11.5657 24 12.039 24C12.516 24 12.8977 23.004 12.8977 21.7733C12.8977 20.5433 12.516 19.5472 12.039 19.5472ZM16.6882 6.03075C17.0745 6.3045 17.961 5.70675 18.6682 4.69875C19.3755 3.69075 19.6335 2.65575 19.242 2.38275C18.855 2.109 17.9692 2.70675 17.262 3.71475C16.5592 4.72275 16.3012 5.75775 16.6882 6.03075ZM7.40171 6.03075C7.01546 6.3045 6.12896 5.70675 5.42546 4.69875C4.71821 3.69075 4.46021 2.65575 4.85171 2.38275C5.23796 2.109 6.12446 2.70675 6.82796 3.71475C7.53521 4.72275 7.79321 5.75775 7.40171 6.03075ZM12.039 4.45275C11.5657 4.45275 11.184 3.45675 11.184 2.22675C11.184 0.996 11.5657 0 12.039 0C12.516 0 12.8977 0.996 12.8977 2.22675C12.8977 3.45675 12.516 4.45275 12.039 4.45275ZM0.473206 9.066H2.12546V11.391H3.98846V9.066H5.64146V15.312H3.98846V12.8317H2.12546V15.312H0.473206V9.066ZM7.02296 9.066H11.0587V10.449H8.67596V11.43H10.7107V12.8123H8.67596V13.9305H11.1517V15.3127H7.02296V9.066ZM12.363 9.066H14.0197V13.9298H16.383V15.312H12.3667V9.066H12.363ZM17.457 9.066H19.1677L20.148 11.6602L20.4922 12.6803H20.5312L20.8792 11.6602L21.8205 9.066H23.5275V15.312H21.9922V13.4647C21.9922 13.305 22.0005 13.1287 22.0162 12.9375C22.0312 12.7455 22.0515 12.5505 22.0702 12.3472C22.0905 12.144 22.1092 11.9482 22.137 11.757C22.1602 11.5612 22.1842 11.3903 22.203 11.2372H22.164L21.645 12.6945L20.781 14.8005H20.1637L19.3005 12.6945L18.8002 11.2372H18.7612L18.8272 11.757C18.8542 11.9482 18.8782 12.144 18.897 12.3472C18.9127 12.5505 18.933 12.7455 18.948 12.9375C18.9637 13.1287 18.972 13.3042 18.972 13.4647V15.312H17.4562L17.457 9.066Z" fill="black"/>
</g>
<defs>
<clipPath id="clip0_201_57810">
<rect width="24" height="24" fill="white"/>
</clipPath>
</defs>
</svg>
