<svg width="24" height="24" viewBox="0 0 24 24" fill="none" xmlns="http://www.w3.org/2000/svg">
<g clip-path="url(#clip0_201_57534)">
<path d="M12.1012 0C18.6637 0 24 5.48475 24 11.9963C24 18.5077 18.672 23.9888 12.1012 23.9888L0 24.0007V11.79C0 5.28225 5.53125 0.00075 12.1012 0.00075V0ZM12.219 4.56225C9.6255 4.5585 7.22325 5.91375 5.883 8.13225C4.551 10.3395 4.49625 13.089 5.7345 15.351L4.39875 19.6087L9.19575 18.5347C11.9377 19.761 15.1605 19.2105 17.3288 17.1442C19.5007 15.0937 20.1922 11.9175 19.0672 9.1485C17.9347 6.37125 15.2272 4.5585 12.2272 4.56225H12.219Z" fill="black"/>
</g>
<defs>
<clipPath id="clip0_201_57534">
<rect width="24" height="24" fill="white"/>
</clipPath>
</defs>
</svg>
