<svg width="24" height="24" viewBox="0 0 24 24" fill="none" xmlns="http://www.w3.org/2000/svg">
<g clip-path="url(#clip0_201_58772)">
<path d="M5.52 2.95276C3.57375 2.95276 1.992 4.53076 1.99575 6.48001V9.03901C1.99575 10.1603 1.1205 11.0903 0 11.1563L0.03075 11.7195L0 12.2813C1.12125 12.348 2.00025 13.2773 1.99575 14.4023V17.3483C1.992 19.3875 3.6405 21.039 5.676 21.0473V19.9223C4.266 19.9223 3.12075 18.777 3.117 17.3633V14.4023C3.12075 13.3283 2.586 12.3203 1.69875 11.7195C2.586 11.1135 3.117 10.1093 3.117 9.03526V6.48001C3.12525 5.15626 4.19475 4.08601 5.52 4.07776H5.95725V2.95276H5.52ZM18.0592 2.95276V4.07776H18.4965C19.8165 4.08151 20.8875 5.15551 20.8837 6.48001V9.03526C20.8837 10.1093 21.4147 11.1135 22.302 11.7195C21.4147 12.3203 20.88 13.3283 20.8837 14.4023V17.3633C20.88 18.777 19.7348 19.9223 18.3248 19.9223V21.0473C20.3595 21.039 22.0088 19.3875 22.005 17.3483V14.3985C22.005 13.2773 22.8802 12.3488 24.0007 12.2813L23.97 11.7195L24.0007 11.1563C22.8795 11.094 22.005 10.1603 22.005 9.03901V6.47701C22.0088 4.53526 20.439 2.95726 18.4972 2.95276H18.0592ZM6.25425 7.47676L9.7305 10.7378C11.0235 11.9055 12.9923 11.9055 14.2853 10.7378L17.7623 7.47676H16.0942L13.4415 9.94051C12.6293 10.6905 11.3715 10.6905 10.5592 9.94051L7.92225 7.47676H6.25425ZM11.859 12.363C11.0662 12.3983 10.3117 12.711 9.72975 13.2458L6.23775 16.5225H7.90575L10.5735 14.0265C11.3902 13.2765 12.6405 13.2765 13.4565 14.0265L16.1085 16.5225H17.7765L14.2845 13.2458C13.6245 12.6405 12.7537 12.324 11.8582 12.363H11.859Z" fill="black"/>
</g>
<defs>
<clipPath id="clip0_201_58772">
<rect width="24" height="24" fill="white"/>
</clipPath>
</defs>
</svg>
