<svg width="24" height="24" viewBox="0 0 24 24" fill="none" xmlns="http://www.w3.org/2000/svg">
<g clip-path="url(#clip0_201_58138)">
<path d="M12.0938 2.89801C12.0938 2.89801 11.1757 3.68026 10.2375 4.44901C9.27225 4.41826 7.38225 4.64776 6.3585 5.04676C5.40975 4.40551 4.58175 3.69901 4.58175 3.69901C4.58175 3.69901 3.87075 5.00401 3.42975 5.76976C2.766 6.14776 2.1015 6.57001 1.512 7.12876C0.82425 6.84001 0.027 6.48001 0 6.47251C0.90975 8.43751 1.52325 10.4055 3.19125 11.5898C5.844 7.10476 18.1725 7.51951 20.883 11.5658C22.6327 10.59 23.3123 8.48776 24 6.54676C23.9258 6.57376 22.9883 6.90976 22.383 7.15576C22.02 6.73351 21.1642 6.08551 20.6798 5.77276C20.3115 5.05876 19.9335 4.35151 19.5465 3.64801C19.5465 3.64801 18.7537 4.28101 17.8312 4.97326C16.5893 4.72726 15.0855 4.43026 13.8195 4.50451C13.2338 3.98026 12.6593 3.44551 12.0938 2.89876V2.89801ZM0.94125 10.6478L3.1335 16.32C6.9345 21.6878 16.6418 22.059 20.8717 16.4258C21.8715 14.0115 23.2238 10.617 23.2238 10.617C22.1378 12.3398 20.3715 13.527 19.2817 14.1638C18.5085 14.6168 16.728 14.895 16.728 14.895L12.0397 12.297L7.33275 14.8403C7.33275 14.8403 5.571 14.5395 4.77375 14.1413C3.165 13.2233 2.08275 12.1373 0.942 10.6485L0.94125 10.6478Z" fill="black"/>
</g>
<defs>
<clipPath id="clip0_201_58138">
<rect width="24" height="24" fill="white"/>
</clipPath>
</defs>
</svg>
