<svg width="24" height="24" viewBox="0 0 24 24" fill="none" xmlns="http://www.w3.org/2000/svg">
<g clip-path="url(#clip0_201_58634)">
<path d="M20.535 4.11753C19.7302 3.66453 18.4455 4.39503 17.664 5.75403L16.2502 8.21478C15.7305 9.23403 15.8085 10.4528 16.461 11.3948L16.5 11.457C17.1525 12.3983 18.0352 13.2653 18.324 13.5743C19.1482 14.457 18.7462 15.8985 17.586 16.2308C16.4805 16.539 15.414 15.621 15.5587 14.481C15.606 14.133 15.492 13.5555 14.9842 12.993C14.4802 12.4305 13.4452 13.4933 13.113 14.6025L13.0972 14.6648C12.7612 15.7583 12.5505 16.7153 12.6127 16.809C12.6517 16.8675 12.687 16.926 12.7185 16.989C13.851 19.122 10.656 20.8208 9.52348 18.6923C9.05098 17.8095 9.38698 16.7115 10.2697 16.2428L10.3905 16.1843C10.4572 16.1528 10.6522 15.696 10.8127 15.153L11.1135 14.1645C11.133 14.1173 11.1487 14.0588 11.1607 13.9965L12.0592 10.8053L11.1022 12.7665C10.989 12.4035 10.8015 12.3878 10.3912 12.6765C10.149 12.8603 9.73873 13.2075 9.53998 13.3448C9.17698 13.6185 8.85673 14.1338 8.69248 14.454C8.59873 14.6535 8.45773 14.8253 8.28223 14.9543C7.59898 15.5168 6.59473 15.411 6.04798 14.7278C5.30548 13.8023 5.79823 12.4193 6.95848 12.177C7.36873 12.0833 8.73598 11.247 9.55648 10.6538C9.70873 10.548 9.83023 10.4588 9.93523 10.353L12.1387 8.68128L10.2247 9.71253C10.2247 9.71253 10.0297 9.69678 9.79873 9.73203C9.09973 9.80628 8.36923 9.91203 8.23648 10.08C8.15848 10.1895 8.06098 10.2833 7.94323 10.3538C7.30648 10.8105 6.42748 10.674 5.95498 10.0373C5.50198 9.39303 5.65048 8.50203 6.29098 8.04153C6.55273 7.85778 6.86923 7.76778 7.15798 7.76778C7.67398 7.78353 9.02548 8.05653 10.1505 7.86153L10.4392 7.81428C11.5762 7.61928 12.912 6.63078 13.4625 5.62653L14.646 3.56028C15.2985 2.42328 15.2557 1.17753 14.5402 0.767282L13.2157 0.00528222C12.5632 -0.357718 11.5012 -0.357718 10.8645 0.00528222L2.00473 4.97028C1.33648 5.32203 0.805481 6.23178 0.805481 6.97803V16.7205C0.805481 17.4668 1.33648 18.3765 1.98523 18.7403L10.833 23.7248C11.4855 24.0878 12.552 24.0878 13.1887 23.7248L22.0132 18.7403C22.6657 18.3728 23.1967 17.4668 23.1967 16.7205V6.96303C23.1967 6.21678 22.6657 5.30703 22.029 4.93953L20.568 4.11903L20.535 4.11753Z" fill="black"/>
</g>
<defs>
<clipPath id="clip0_201_58634">
<rect width="24" height="24" fill="white"/>
</clipPath>
</defs>
</svg>
