<svg width="24" height="24" viewBox="0 0 24 24" fill="none" xmlns="http://www.w3.org/2000/svg">
<path d="M18.984 21.8632V15.4613H21.1208V24H1.84351V15.4613H3.97276V21.8632H18.984ZM6.10876 19.7302H16.8518V17.5942H6.10876V19.7302ZM6.37126 14.8793L16.8525 17.0662L17.3018 14.9963L6.82501 12.8123L6.37126 14.8793ZM7.73026 9.82425L17.4345 14.352L18.3368 12.402L8.63401 7.87125L7.73101 9.80925L7.73026 9.82425ZM10.4453 5.03925L18.66 11.895L20.0198 10.2727L11.805 3.4215L10.4528 5.03475L10.4453 5.03925ZM15.75 0L14.004 1.293L20.4098 9.89775L22.1558 8.60475L15.75 0Z" fill="black"/>
</svg>
