<svg width="24" height="24" viewBox="0 0 24 24" fill="none" xmlns="http://www.w3.org/2000/svg">
<path d="M16.1993 9C14.8478 9.8985 14.3985 11.6993 14.5507 12.8985C12.3007 10.6485 18 4.3515 11.5507 0C15.1485 5.3985 6 9.75 6 17.3985C6 20.3985 7.94925 23.1015 12 24C16.0507 23.1015 18 20.3985 18 17.3985C18 12.8985 15.3008 11.3985 16.1993 9ZM12 20.8515C10.1993 20.8515 8.55075 19.3515 8.55075 17.4022C8.55075 15.6015 10.0507 13.9493 12 13.9493C13.8007 13.9493 15.4493 15.4492 15.4493 17.4022C15.3008 19.3515 13.8007 20.8515 12 20.8515Z" fill="black"/>
</svg>
