<svg width="24" height="24" viewBox="0 0 24 24" fill="none" xmlns="http://www.w3.org/2000/svg">
<g clip-path="url(#clip0_201_57434)">
<path d="M0.87071 18.258C0.62096 18.6405 0.33971 19.1332 0.10496 19.5037C-0.10579 19.8592 0.00746045 20.3242 0.36296 20.5425L5.32796 23.5972C5.69096 23.82 6.16796 23.703 6.38621 23.3355C6.58571 23.0032 6.83921 22.5735 7.11671 22.113C9.08546 18.867 11.0617 19.2615 14.6242 20.9685L19.581 23.3047C19.9717 23.4922 20.4367 23.3205 20.6085 22.926L22.9755 17.5785C23.1397 17.196 22.9717 16.7505 22.593 16.5787C20.9325 15.7972 19.2802 15.012 17.628 14.2192C10.9095 10.9695 5.22146 11.184 0.86996 18.258H0.87071ZM23.133 5.74196C23.379 5.33996 23.6602 4.86671 23.895 4.49171C24.1057 4.13621 23.9887 3.67496 23.6407 3.46046L18.6757 0.40196C18.3127 0.17921 17.8357 0.29621 17.6175 0.66371C17.4225 0.99971 17.1645 1.42571 16.8832 1.88996C14.9182 5.13596 12.9382 4.73771 9.37571 3.03446L4.43846 0.69446C4.04771 0.50696 3.58271 0.68246 3.41096 1.07321L1.04771 6.42071C0.87971 6.80321 1.05146 7.24871 1.43021 7.42046C2.46896 7.90871 4.53146 8.88896 6.39521 9.77996C13.0905 13.026 18.786 12.8115 23.1337 5.74121L23.133 5.74196Z" fill="black"/>
</g>
<defs>
<clipPath id="clip0_201_57434">
<rect width="24" height="24" fill="white"/>
</clipPath>
</defs>
</svg>
