<svg width="24" height="24" viewBox="0 0 24 24" fill="none" xmlns="http://www.w3.org/2000/svg">
<g clip-path="url(#clip0_201_57690)">
<path d="M12.6488 2.67977L12.4028 2.41052C12.4065 2.40677 12.6915 2.14502 12.8168 2.00402C12.9375 1.85552 13.1565 1.51952 13.1603 1.51577L13.4648 1.71077C13.449 1.72652 13.23 2.07002 13.0898 2.23427C12.9495 2.39852 12.66 2.66402 12.648 2.67977H12.6488ZM14.2268 13.2735C14.2148 13.2698 13.9845 13.1213 13.8593 13.0545C13.7423 12.996 13.539 12.906 13.437 12.8633L13.6515 12.2498L12.753 11.808L12.468 12.6788C12.2925 12.6825 11.7533 12.7298 10.956 13.0658C9.99526 13.4678 9.26851 14.0933 9.26101 14.097L9.11626 14.2223L9.76051 14.2455L9.78001 14.2298C9.78376 14.2223 10.4985 13.6943 10.8975 13.5225C10.9875 13.4873 11.1045 13.4483 11.2298 13.4213C11.019 13.5225 10.788 13.6478 10.6283 13.7378C10.4288 13.8585 10.0583 14.1203 10.0425 14.1323L9.85501 14.2613L10.5383 14.277L10.5578 14.2695C10.5698 14.262 11.7218 13.6448 12.3465 13.5075L12.5415 13.4603C12.6863 13.425 12.7875 13.398 12.9638 13.398C13.1198 13.398 13.3313 13.4175 13.6515 13.4685C14.0498 13.527 14.3115 13.6245 14.3153 13.629L14.5538 13.7228L14.2335 13.2855L14.2215 13.278L14.2268 13.2735ZM5.24626 5.97677H5.21476L4.21051 6.89477V6.92177C4.19476 7.18727 4.28851 7.44152 4.46851 7.64027C4.64851 7.83527 4.88626 7.94852 5.15176 7.95677H5.19451C5.72551 7.95677 6.15901 7.54652 6.18676 7.01927C6.21001 6.47252 5.78851 6.00752 5.24551 5.97602L5.24626 5.97677ZM5.19901 7.80827H5.16001C5.04301 7.80452 4.92976 7.77677 4.82776 7.72202C4.87501 7.72952 4.92526 7.73402 4.97626 7.72577C5.26126 7.69052 5.45701 7.43252 5.42551 7.14752C5.39026 6.87002 5.13226 6.67127 4.84726 6.70577C4.58551 6.74102 4.39051 6.97502 4.40176 7.23677C4.37026 7.14677 4.35901 7.05302 4.35901 6.95927L5.26951 6.12302C5.71501 6.16577 6.05851 6.55652 6.03901 7.00577C6.01576 7.45877 5.64826 7.80677 5.19526 7.80677L5.19901 7.80827ZM14.5275 4.08227L14.2343 3.88727L13.824 4.15277L13.4295 3.86777L13.1288 4.04777L13.5353 4.34102L13.1175 4.61027L13.4145 4.79027L13.8165 4.53602L14.2035 4.81727L14.5118 4.64552L14.1053 4.35227L14.5275 4.08227ZM24 19.5233C23.7855 19.3163 23.5823 19.1093 23.3708 18.8985C22.89 18.4103 22.4138 17.9138 21.9525 17.4105C21.4058 16.8128 20.8703 16.2038 20.3708 15.567C20.1443 15.2858 19.929 14.9888 19.7265 14.688C19.4723 14.301 19.2578 13.8908 19.0583 13.473C18.8475 13.0275 18.66 12.5708 18.48 12.1178C18.7223 12.3248 18.945 12.5595 19.1438 12.8093C19.1633 12.5948 19.1865 12.3795 19.2023 12.1605L19.2255 11.8403C19.2255 11.805 19.2375 11.7735 19.218 11.7428C19.2023 11.7158 19.1865 11.6918 19.1633 11.6685C19.0463 11.52 18.9015 11.3873 18.7613 11.2545C18.57 11.0745 18.3705 10.8953 18.1755 10.7235L17.9955 10.5675C17.9685 10.5405 17.937 10.5165 17.9093 10.4933C17.8778 10.4618 17.8665 10.3958 17.8545 10.3568L17.6985 9.87602C18.3083 10.161 18.8078 10.6185 19.2765 11.091C19.2803 10.872 19.2803 10.6575 19.2765 10.4385C19.2765 10.3253 19.2765 10.212 19.269 10.095C19.269 10.0635 19.2765 9.99377 19.2533 9.96602C19.2413 9.94652 19.2218 9.93077 19.2105 9.91127C19.101 9.79427 18.9758 9.69677 18.855 9.59852C18.6833 9.45377 18.5033 9.32102 18.3278 9.18827C18.1718 9.07127 18.0113 8.95802 17.8515 8.84477C17.832 8.82902 17.7735 8.80577 17.7848 8.78627L17.8238 8.70452C17.847 8.66927 17.8395 8.66177 17.8785 8.67752L18.0503 8.73602C18.4523 8.89202 18.8273 9.10352 19.191 9.34577C19.0703 8.89277 18.8828 8.45927 18.6675 8.04902C18.2768 7.28702 17.7728 6.58052 17.2028 5.94377C16.824 5.51777 16.4175 5.11952 15.984 4.74827C15.7613 4.56077 15.5273 4.38077 15.285 4.21727C15.1718 4.14302 15.0623 4.06877 14.9415 3.99827C14.8905 3.97127 14.8358 3.94352 14.7893 3.90452C14.6093 3.76352 14.4263 3.62327 14.2425 3.47852C14.481 3.57602 14.7113 3.68552 14.9303 3.81452C14.805 3.61952 14.5905 3.48227 14.3873 3.38102C14.079 3.22052 13.7468 3.10352 13.4183 3.00227C13.5315 2.88152 13.653 2.77202 13.7663 2.65427C13.8795 2.53352 13.989 2.40827 14.0948 2.27927C14.2238 2.13077 14.349 1.98227 14.4698 1.82627L12.8333 0.798767C12.7125 1.04102 12.5558 1.27127 12.3765 1.47827C12.1965 1.68152 11.9858 1.84577 11.775 2.01752C11.5875 2.17352 11.3963 2.33027 11.2125 2.48627C11.1615 2.52902 11.1188 2.57252 11.064 2.60702C11.0408 2.63027 10.9703 2.61077 10.9388 2.61077H10.7003C10.4033 2.61827 10.1063 2.64227 9.80926 2.68127C9.75076 2.68502 9.69601 2.69327 9.63376 2.68877L9.45826 2.67677C9.32176 2.66927 9.18451 2.66102 9.04801 2.66102C8.75926 2.65727 8.46976 2.66102 8.17726 2.68427C7.93501 2.70752 7.68901 2.73902 7.45051 2.79752C7.21201 2.85227 6.98926 2.96927 6.79051 3.11027C6.59551 3.25127 6.40351 3.43052 6.28651 3.64127C6.16951 3.84827 6.11476 4.09427 6.07201 4.32902C5.93926 4.34102 5.80651 4.34102 5.67376 4.34477C5.53276 4.35227 5.39626 4.36427 5.25601 4.38377C4.98676 4.42277 4.72051 4.48127 4.46326 4.56377C3.96751 4.71977 3.51826 4.97027 3.12751 5.31377C2.93251 5.49377 2.74876 5.69252 2.58826 5.91152C2.56876 5.93477 2.54926 5.96252 2.52601 5.97827C2.51401 5.98577 2.49901 5.99402 2.49076 6.00527C2.47501 6.03227 2.45926 6.05627 2.43976 6.07952L2.30701 6.29402C2.13901 6.57902 2.02951 6.88802 1.92451 7.20002L1.87726 7.32077L1.91251 7.30127C1.90051 7.36802 1.89301 7.43402 1.88551 7.50452L1.87801 7.60577V7.66052L1.81126 7.67252C1.67851 7.69952 1.54201 7.73477 1.41301 7.77377C1.29226 7.81277 1.17826 7.86002 1.07701 7.92602C0.971261 7.98827 0.882011 8.07827 0.792011 8.16452C0.471761 8.47277 0.229511 8.85977 0.104261 9.28952C0.00301092 9.64127 -0.0322391 10.0275 0.0457609 10.383C0.0652609 10.473 0.0930109 10.5705 0.151511 10.6448C0.225761 10.7348 0.351011 10.77 0.464261 10.7385C0.597011 10.7033 0.714011 10.6178 0.835511 10.5548L1.15201 10.3943C1.60501 10.1715 2.08201 9.94877 2.58976 9.87077C2.62501 9.86702 2.68726 9.93752 2.71876 9.96077C2.76976 9.99977 2.82001 10.035 2.86726 10.0665C2.97676 10.137 3.09001 10.1955 3.20326 10.2465C3.46501 10.3598 3.74251 10.422 4.02001 10.4768C4.52401 10.5825 5.03551 10.6485 5.55151 10.6568C5.75851 10.6605 5.96551 10.6568 6.17626 10.641C6.39901 10.6215 6.62551 10.59 6.85201 10.59C7.10176 10.5863 7.34776 10.6133 7.59451 10.6448C7.84876 10.6763 8.10226 10.7115 8.35651 10.7505C8.87626 10.8285 9.38776 10.9185 9.89926 11.028C9.78601 11.208 9.67276 11.391 9.56326 11.5748C9.55576 11.5868 9.48901 11.5748 9.47326 11.5748C9.43426 11.571 9.38701 11.571 9.34801 11.5748C9.27376 11.5748 9.19576 11.5823 9.12151 11.5943C8.91076 11.6213 8.70376 11.676 8.50801 11.7465C8.01601 11.9303 7.56676 12.231 7.17976 12.5828C6.95701 12.7778 6.75001 12.9893 6.57001 13.2233C6.52276 13.2855 6.47626 13.3523 6.43351 13.4145C6.53476 13.3913 6.64426 13.3718 6.75001 13.344C6.81226 13.3283 6.86701 13.317 6.92551 13.305C6.94501 13.2975 6.95251 13.2893 6.97651 13.278C7.19551 13.0748 7.42576 12.8873 7.66801 12.7155C7.78126 12.6375 7.89451 12.5633 8.01976 12.501C8.18401 12.4193 8.37151 12.372 8.55076 12.3293C8.22226 12.5093 7.87126 12.6773 7.57426 12.9113C7.40251 13.0523 7.24576 13.2045 7.08226 13.353L7.73851 13.2473C7.74601 13.2473 7.75051 13.2435 7.76176 13.2353L7.92976 13.1415C8.04301 13.0793 8.16001 13.0163 8.27776 12.9578C8.51626 12.8325 8.75851 12.7155 9.00826 12.618C9.24676 12.5243 9.48901 12.438 9.74251 12.3915C9.96151 12.3443 10.1685 12.3405 10.3913 12.3915C10.731 12.4658 11.0595 12.6218 11.3603 12.8055C11.3798 12.8213 11.3955 12.8408 11.415 12.8213C11.4308 12.8055 11.5125 12.747 11.505 12.7275L11.325 12.3953C11.3093 12.3638 11.3018 12.3443 11.274 12.3285L11.1413 12.2505C10.9658 12.1448 10.7933 12.0398 10.6335 11.9183C10.5945 11.895 10.5555 11.8793 10.5518 11.8283C10.5443 11.7855 10.5638 11.7383 10.5788 11.6955C10.6103 11.6055 10.6568 11.5238 10.7078 11.4458C10.743 11.3873 10.782 11.3363 10.8173 11.2815C10.833 11.262 10.8293 11.2583 10.8488 11.2658L10.9695 11.301C11.2043 11.379 11.4383 11.4615 11.6805 11.52C11.9498 11.5905 12.2235 11.6453 12.501 11.6955L12.5483 11.7075C12.4935 11.676 12.4583 11.6175 12.4155 11.571C12.3923 11.5395 12.3803 11.52 12.3413 11.5125L12.2355 11.4893C12.1613 11.4735 12.0908 11.4623 12.0128 11.442C11.751 11.3835 11.4855 11.3213 11.2358 11.2313C10.8608 11.1023 10.4783 11.001 10.0913 10.911C9.60301 10.8053 9.11476 10.716 8.62651 10.6373C8.37676 10.5945 8.12626 10.563 7.87651 10.5278C7.63051 10.4925 7.38076 10.4573 7.13026 10.4378C6.59101 10.4063 6.05626 10.5278 5.51326 10.5195C5.15026 10.5158 4.77901 10.4648 4.41976 10.4138L4.34926 10.4063C4.60351 10.3125 4.84951 10.2188 5.09926 10.1213C5.33776 10.0275 5.57176 9.93002 5.80651 9.83252C5.93176 9.78152 6.05626 9.72677 6.17776 9.67652C6.29101 9.62552 6.40426 9.57527 6.50626 9.50477C6.91651 9.22727 7.18201 8.77802 7.48276 8.39552C7.75651 8.03627 8.06851 7.69652 8.47126 7.48952C8.60026 7.42277 8.73301 7.37252 8.87326 7.33352C8.58826 6.89627 8.32276 6.40352 8.24851 5.88002C8.28001 5.89202 8.31076 5.90327 8.34226 5.91527C8.37751 5.92727 8.40901 5.93102 8.41651 5.96252L8.44351 6.09527C8.47051 6.18527 8.49826 6.27077 8.52976 6.35702C8.60401 6.54827 8.69026 6.73202 8.79151 6.90752C9.01051 7.30577 9.27601 7.67327 9.55726 8.02877C10.0965 8.71652 10.7018 9.33377 11.292 9.97052C11.4368 10.1265 11.5695 10.2945 11.7023 10.4625C11.8545 10.65 12.0068 10.8375 12.159 11.0213C12.2798 11.1623 12.3938 11.3063 12.5145 11.4473L12.6083 11.5605C12.624 11.58 12.6473 11.5875 12.6705 11.5958C13.2758 11.8965 13.8855 12.1973 14.4908 12.4905C14.928 12.7013 15.3615 12.9128 15.8033 13.1153C16.038 13.2248 16.272 13.3343 16.5143 13.4355C16.5413 13.4475 16.5765 13.4625 16.6118 13.4745C16.6275 13.482 16.6388 13.4903 16.659 13.4978L16.6748 13.545C16.7018 13.6193 16.7258 13.6898 16.749 13.764C16.8 13.905 16.8465 14.0415 16.8975 14.178C17.2298 15.0923 17.5928 15.9945 18.042 16.854C18.39 17.5103 18.7568 18.1545 19.1318 18.7958C19.5338 19.4753 19.944 20.1473 20.358 20.8193C20.6903 21.3548 21.0218 21.8933 21.366 22.425C21.5108 22.6515 21.6548 22.8863 21.8033 23.1128L21.8655 23.2065L22.8345 21.7845C22.842 21.777 22.9163 21.6833 22.9088 21.675L22.7528 21.4328C22.464 20.9835 22.1708 20.5343 21.882 20.085L20.9483 18.636L21.6045 19.4333L22.722 20.7848C22.8428 20.9295 22.9568 21.0735 23.0738 21.222C23.2928 20.82 23.5155 20.421 23.7375 20.0228C23.8238 19.8585 23.913 19.6905 24.003 19.5308L24 19.5233ZM12.129 1.91402C12.4373 1.66802 12.6915 1.35152 12.8865 1.00802L14.0663 1.75427L14.2463 1.86377C14.0003 2.16452 13.7505 2.46902 13.4693 2.73902C13.434 2.77052 13.395 2.80577 13.3635 2.84027C13.344 2.86727 13.3163 2.89127 13.293 2.91452L13.2615 2.95352C13.2383 2.94602 13.2143 2.93777 13.191 2.93402C13.0463 2.89502 12.9023 2.85602 12.7575 2.82452C12.4643 2.75777 12.168 2.70752 11.871 2.67227C11.6798 2.64902 11.484 2.63327 11.2928 2.61377C11.5665 2.37902 11.8478 2.14502 12.129 1.91477V1.91402ZM10.3748 3.28502C10.6095 3.18752 10.8593 3.13652 11.1053 3.09377C11.5973 3.01202 12.1013 3.00002 12.5933 3.05477C12.9488 3.09377 13.2968 3.16052 13.6365 3.26552L13.4955 3.37877L13.269 3.31652C13.128 3.28952 12.9878 3.25802 12.8468 3.23477C12.6008 3.19952 12.351 3.17627 12.0968 3.17252C11.6355 3.16502 11.1713 3.21527 10.7258 3.32852C10.425 3.40652 10.1243 3.51977 9.84676 3.66077C9.56176 3.81677 9.29176 4.00877 9.06976 4.24277C8.93326 4.38377 8.81176 4.53152 8.71051 4.69952C8.65201 4.78952 8.60476 4.87952 8.55826 4.97327C8.53501 5.02052 8.51551 5.07077 8.49976 5.11802L8.46826 5.19227C8.46451 5.20802 8.46076 5.21927 8.45626 5.23127L8.38951 5.21927L8.30776 5.21177C8.54251 4.48877 9.06976 3.92252 9.72601 3.55952C9.93301 3.44627 10.152 3.34502 10.3748 3.28202V3.28502ZM6.44551 3.65627C6.71101 3.27377 7.13326 3.00752 7.58626 2.91002C8.08651 2.81252 8.60176 2.79302 9.10951 2.80427C8.58601 2.93702 8.05876 3.13277 7.62151 3.45677C7.28176 3.53102 6.95776 3.69527 6.68776 3.91352C6.59776 3.98777 6.51976 4.06577 6.44176 4.15202C6.40651 4.18727 6.37501 4.22627 6.34426 4.26902C6.33226 4.28102 6.31726 4.29602 6.30901 4.31627H6.22276C6.24601 4.18352 6.27751 4.04702 6.32026 3.91802C6.35176 3.82802 6.38701 3.73802 6.44101 3.65627H6.44551ZM7.32451 3.71477C7.17976 3.85577 7.05526 4.01552 6.93376 4.18352C6.88651 4.25027 6.83626 4.33577 6.75376 4.37102C6.66751 4.41002 6.55876 4.36727 6.47251 4.34402C6.69526 4.06277 6.99226 3.84827 7.32376 3.71477H7.32451ZM2.30851 6.58577C2.38651 6.42527 2.48851 6.26927 2.58226 6.12077C2.59801 6.09377 2.63701 6.07352 2.65651 6.05852C2.70751 6.02327 2.75401 5.98802 2.80126 5.94902C3.10951 5.72627 3.42226 5.50352 3.73876 5.29652C3.90676 5.18702 4.07101 5.08202 4.24276 4.98827C4.42276 4.88702 4.61026 4.80827 4.80526 4.74227C5.15326 4.63277 5.51251 4.55477 5.87551 4.50002C6.04726 4.47677 6.23476 4.44152 6.40651 4.48427C6.07426 4.67177 5.74651 4.85927 5.41426 5.04302C5.07451 5.23427 4.72651 5.41052 4.37926 5.59352C4.04701 5.77352 3.71926 5.96852 3.39901 6.17177C3.06301 6.37877 2.73076 6.58952 2.39926 6.80102C2.31751 6.85202 2.23876 6.90677 2.15701 6.95702C2.20426 6.83177 2.24701 6.70277 2.30926 6.58577H2.30851ZM3.31651 9.64052C3.28951 9.69527 3.18376 9.68327 3.12901 9.68327C3.03526 9.68327 2.94526 9.68327 2.85151 9.68702C2.59351 9.70277 2.34001 9.74927 2.09401 9.82802C1.61776 9.97277 1.17226 10.203 0.726761 10.4295C0.629261 10.4843 0.523511 10.566 0.410261 10.5938C0.351761 10.6095 0.281261 10.5863 0.246011 10.5315C0.210761 10.4693 0.191261 10.3988 0.183761 10.332C0.156761 10.2113 0.148511 10.086 0.148511 9.96452C0.148511 9.63227 0.226511 9.30452 0.363011 9.00377C0.460511 8.79302 0.585761 8.60177 0.734261 8.42927C0.886511 8.25377 1.06276 8.07752 1.27351 7.98002C1.62901 7.81577 2.05051 7.76552 2.43751 7.74527C2.51176 7.73777 2.58226 7.73777 2.65651 7.73777C2.75401 7.73777 2.87101 7.72202 2.96476 7.75727C3.03901 7.78427 3.08551 7.86302 3.11701 7.92902C3.15976 8.03477 3.19126 8.15552 3.21451 8.26502C3.27676 8.52677 3.33976 8.78852 3.35926 9.05777C3.37126 9.17477 3.37876 9.29627 3.36301 9.41327C3.35551 9.48752 3.35101 9.56927 3.31576 9.63977L3.31651 9.64052ZM6.14476 7.66427C5.94976 7.78952 5.74276 7.88327 5.52751 7.96502C5.31301 8.03927 5.09401 8.10977 4.86751 8.14502C4.77001 8.15702 4.67251 8.17202 4.57426 8.16452C4.47301 8.16452 4.38301 8.12927 4.28101 8.09777C4.08601 8.03552 3.89026 7.96877 3.71101 7.86752C3.64876 7.82852 3.57826 7.78127 3.53926 7.71527C3.50776 7.66427 3.50776 7.60202 3.51601 7.54352C3.52801 7.31327 3.60976 7.08677 3.71926 6.88352C3.90676 6.54002 4.20001 6.27002 4.55926 6.10652C5.43826 5.71202 6.42226 6.07952 7.16851 6.59852L7.25026 6.65702C7.09426 6.82502 6.93751 6.98102 6.77776 7.13777C6.57826 7.32527 6.37126 7.51652 6.14101 7.66502L6.14476 7.66427ZM8.30851 5.73827C7.83601 5.53502 7.38301 5.28152 6.95326 5.00027C7.40251 5.18777 7.88701 5.30102 8.36701 5.37152C8.62501 5.40677 8.89051 5.44202 9.14851 5.44952C9.42976 5.46152 9.71476 5.43002 9.98851 5.37527C10.5353 5.27402 11.0588 5.07077 11.5553 4.82477C12.0518 4.57877 12.5198 4.28927 12.969 3.96527C13.1835 3.81302 13.3988 3.65252 13.602 3.48077C13.6215 3.46502 13.7738 3.31652 13.7858 3.32477L13.8248 3.35627L14.364 3.77402C14.6925 4.02827 15.0203 4.28177 15.3525 4.53602C14.4465 4.86002 13.524 5.16527 12.5985 5.43827C12.0788 5.59427 11.5635 5.73902 11.0363 5.86052C10.6223 5.95802 10.2 6.04802 9.77851 6.06752C9.27076 6.09077 8.77426 5.93477 8.31001 5.73902L8.30851 5.73827ZM17.1563 9.67952C17.2343 9.69902 17.3048 9.72677 17.3708 9.74627L17.4683 9.78152C17.484 9.78527 17.4953 9.79727 17.511 9.80102L17.5305 9.85952C17.5778 10.008 17.6205 10.1483 17.6715 10.293C17.523 10.164 17.3708 10.0388 17.2223 9.91427L17.1323 9.84002C17.109 9.82427 17.085 9.81677 17.1008 9.79277L17.1593 9.67952H17.1563ZM16.488 11.121L16.5233 11.0588L16.5503 11.016C16.5623 10.9965 16.5578 10.9928 16.5818 11.004C16.7108 11.055 16.8398 11.1135 16.9643 11.172C17.2065 11.2815 17.4405 11.4023 17.6678 11.535C17.7773 11.6018 17.8868 11.6715 17.9918 11.742L18.1403 11.8478L18.2145 11.9025C18.246 11.9295 18.2573 11.9648 18.273 12.0038C18.3743 12.285 18.492 12.57 18.609 12.8475C18.687 13.0388 18.7733 13.2263 18.8588 13.4138C18.5655 13.0425 18.2378 12.699 17.9018 12.3705C17.5538 12.0225 17.1945 11.6985 16.8233 11.3903L16.4993 11.1248L16.488 11.121ZM20.2463 17.547L20.1255 17.637L20.133 17.6528L20.1953 17.7465L20.469 18.1643L21.3713 19.5668C21.684 20.0475 21.9923 20.5313 22.305 21.012L22.6133 21.4928L22.695 21.6255C22.6988 21.6293 22.7265 21.6645 22.7265 21.6728C22.4648 22.0553 22.203 22.4423 21.9413 22.8248C21.9143 22.86 21.8903 22.899 21.867 22.9343C21.6285 22.563 21.3908 22.1918 21.1523 21.8168C20.754 21.1838 20.3595 20.5395 19.9688 19.9028C19.5353 19.1918 19.113 18.4845 18.7028 17.7623C18.3203 17.0865 17.9528 16.3988 17.6445 15.684C17.3438 14.9888 17.082 14.2778 16.836 13.563C17.3205 13.758 17.8163 13.9305 18.3165 14.0865C18.4613 14.1293 18.6053 14.1765 18.75 14.2118L18.8123 14.2313C18.8198 14.2313 18.828 14.1923 18.8318 14.1803C18.8513 14.118 18.8633 14.0513 18.879 13.9853C18.906 13.86 18.93 13.731 18.9495 13.6065C19.1565 14.0325 19.3868 14.4503 19.653 14.841C19.8675 15.1575 20.0985 15.462 20.3408 15.7628C20.8605 16.419 21.411 17.0438 21.9818 17.661C22.4468 18.153 22.9155 18.6458 23.3918 19.1258L23.7788 19.5128C23.7863 19.5203 23.8178 19.5443 23.8178 19.5555L23.7863 19.6065L23.6378 19.884L23.0483 20.9505C22.8683 20.7315 22.689 20.517 22.509 20.2943L21.384 18.9308C21.0675 18.5438 20.7473 18.1575 20.4308 17.7705L20.2433 17.5478L20.2463 17.547Z" fill="black"/>
</g>
<defs>
<clipPath id="clip0_201_57690">
<rect width="24" height="24" fill="white"/>
</clipPath>
</defs>
</svg>
