<svg width="24" height="24" viewBox="0 0 24 24" fill="none" xmlns="http://www.w3.org/2000/svg">
<g clip-path="url(#clip0_201_57208)">
<path d="M10.617 11.4727L15.3045 15.168L12.1987 7.5075L10.617 11.4727ZM12 0C5.37075 0 0 5.37075 0 12C0 18.6292 5.37075 24 12 24C18.6292 24 24 18.6292 24 12C24 5.37075 18.6292 0 12 0ZM17.7967 17.3048C17.7847 17.7773 17.3948 18.1485 16.9215 18.1365C16.6868 18.1365 16.5075 18.0465 16.2577 17.8433L10.0665 12.843L7.98825 18.0465H6.19125L11.4375 5.44125C11.5627 5.12475 11.8635 4.9215 12.2032 4.9335C12.5273 4.9215 12.8325 5.121 12.9457 5.44125L17.7195 16.9335C17.7622 17.0467 17.7975 17.1682 17.7975 17.2815C17.7975 17.289 17.7975 17.289 17.7975 17.3048H17.7967Z" fill="black"/>
</g>
<defs>
<clipPath id="clip0_201_57208">
<rect width="24" height="24" fill="white"/>
</clipPath>
</defs>
</svg>
