<svg width="24" height="24" viewBox="0 0 24 24" fill="none" xmlns="http://www.w3.org/2000/svg">
<g clip-path="url(#clip0_201_58304)">
<path d="M12.879 13.008V16.6567L9.87525 13.6095V10.1137H13.4573L16.3088 13.008H12.879ZM23.766 20.613V24H20.1097L14.3835 18.1012V14.5507H17.7352L23.766 20.613ZM12.9375 19.164L16.3088 22.5353C15 22.977 13.7542 23.262 11.9843 23.262C5.13675 23.262 0 18.2423 0 11.5665C0 4.92225 5.13675 0 11.9843 0C18.8633 0 24 4.953 24 11.5665C24 13.6838 23.4765 15.6405 22.5427 17.3243L18.918 13.5975C19.0785 12.9412 19.1602 12.2692 19.1565 11.5935C19.1565 7.30425 16.0117 4.0665 12.0585 4.0665C8.10525 4.0665 4.80825 7.305 4.80825 11.5935C4.80825 15.8865 8.1405 19.1947 12.0585 19.1947C12.6052 19.1947 12.7185 19.2105 12.9375 19.1632V19.164Z" fill="black"/>
</g>
<defs>
<clipPath id="clip0_201_58304">
<rect width="24" height="24" fill="white"/>
</clipPath>
</defs>
</svg>
