<svg width="24" height="24" viewBox="0 0 24 24" fill="none" xmlns="http://www.w3.org/2000/svg">
<g clip-path="url(#clip0_201_57992)">
<path d="M2.31975 0C1.03875 0 0 1.03875 0 2.31975V21.6795C0 22.9605 1.03875 23.9993 2.31975 23.9993H21.6795C22.9605 23.9993 23.9993 22.9605 23.9993 21.6795V2.31975C23.9993 1.03875 22.9605 0 21.6795 0H2.31975ZM11.5268 3.98025L9.258 13.3875C9.219 13.5623 9.19125 13.7423 9.18375 13.9268C9.1755 14.0745 9.207 14.2238 9.273 14.3558C9.35175 14.493 9.46875 14.5988 9.609 14.6565C9.76575 14.7345 9.98775 14.7855 10.2697 14.8057L9.78075 16.8127C9.0075 16.8127 8.39775 16.716 7.9605 16.5128C7.5195 16.3095 7.20225 16.0357 7.01175 15.6885C6.816 15.3165 6.723 14.9063 6.7335 14.4885C6.73725 14.0355 6.80475 13.5555 6.92175 13.0433L8.9955 4.371L11.5268 3.98025ZM15.4298 7.86675C16.0387 7.86675 16.5615 7.9605 17.004 8.145C17.445 8.328 17.805 8.58225 18.09 8.90625C18.3713 9.22725 18.582 9.60225 18.7192 10.0312C18.855 10.461 18.9225 10.9222 18.9225 11.4105C18.9225 12.2032 18.7935 12.9307 18.5317 13.5907C18.2857 14.2275 17.9145 14.8057 17.4457 15.2977C16.974 15.7815 16.407 16.161 15.7778 16.4145C15.1335 16.6807 14.427 16.8127 13.665 16.8127C13.2982 16.8127 12.927 16.782 12.5557 16.716L11.8207 19.6733H9.40275L12.114 8.376C12.5483 8.24325 13.0478 8.12625 13.6058 8.02425C14.208 7.91925 14.817 7.8645 15.4305 7.86825L15.4298 7.86675ZM15.117 9.90975C14.7893 9.906 14.4608 9.9405 14.1368 10.008L12.996 14.7577C13.1797 14.805 13.4062 14.8237 13.68 14.8237C14.1052 14.8237 14.4923 14.7458 14.8403 14.586C15.18 14.4338 15.4845 14.2073 15.7305 13.926C15.9735 13.6448 16.1648 13.305 16.3013 12.906C16.4415 12.48 16.512 12.039 16.5045 11.5898C16.5045 11.121 16.4025 10.7265 16.1955 10.398C15.9885 10.074 15.6292 9.90975 15.1178 9.90975H15.117Z" fill="black"/>
</g>
<defs>
<clipPath id="clip0_201_57992">
<rect width="24" height="24" fill="white"/>
</clipPath>
</defs>
</svg>
