<svg width="24" height="24" viewBox="0 0 24 24" fill="none" xmlns="http://www.w3.org/2000/svg">
<g clip-path="url(#clip0_201_57962)">
<path d="M0.651748 0.761995C0.456748 0.758245 0.269998 0.851995 0.151498 1.00799C-0.199502 1.45274 0.116248 1.90199 0.515248 2.27024C0.718498 2.45699 2.2845 4.062 3.9405 5.79749C4.46475 5.0625 5.07375 4.39875 5.75775 3.81225C3.6675 2.51625 1.695 1.266 1.461 1.1025C1.19925 0.914245 0.917998 0.762745 0.651748 0.762745V0.761995ZM5.75775 3.81225C7.605 4.96125 9.543 6.14549 10.449 6.65249C11.9182 7.47374 14.2072 9.33674 14.5432 11.0865C15.078 11.5515 16.7235 13.0042 17.1375 13.5007C17.8365 13.29 18.6562 13.6335 19.1992 14.6175C20.0625 16.2037 19.4265 18.3675 17.2305 19.6057C17.1337 19.6995 17.0355 19.7895 16.9342 19.8757L17.2305 19.6057C18.3712 18.1417 16.5165 17.169 16.0552 15.7425C15.969 15.4927 15.93 15.2272 15.945 14.9655C15.4102 14.6805 13.836 13.5127 13.1482 12.9967C11.3482 13.1565 8.9415 11.2275 7.8015 9.91875C7.1025 9.11775 5.48025 7.4025 3.94125 5.79749C2.613 7.66425 1.89825 9.89549 1.89525 12.1882C1.89525 16.656 4.59 20.688 8.7195 22.398C12.8482 24.1087 17.6025 23.1637 20.7622 20.004C23.922 16.8442 24.8715 12.09 23.16 7.95675C21.4492 3.82799 17.418 1.137 12.9487 1.137C10.3087 1.14075 7.758 2.09025 5.75775 3.81225ZM14.469 11.3632C13.953 11.4885 13.5 12.195 13.3477 12.672C13.3117 12.7852 13.3087 12.9727 13.4137 13.0117C14.2185 13.605 14.973 14.1795 15.816 14.7105C15.9772 14.3197 16.5622 13.7497 16.9102 13.5112L14.469 11.3632ZM2.93775 13.0042C3.75 14.9025 8.73375 20.172 14.9955 15.699C14.9917 15.9412 15.0307 16.1842 15.1087 16.4137C15.57 17.832 17.4727 18.84 16.3477 20.3047C14.2147 21.6675 11.3475 21.504 9.3585 20.832C5.8005 19.629 3.44475 16.5 2.93775 13.0042ZM16.719 13.7032C16.695 13.719 16.6762 13.734 16.6522 13.7542C16.6485 13.7542 16.6455 13.7625 16.6455 13.7625C16.6455 13.7587 16.6485 13.7542 16.6522 13.7542C16.6762 13.7385 16.695 13.719 16.719 13.7032Z" fill="black"/>
</g>
<defs>
<clipPath id="clip0_201_57962">
<rect width="24" height="24" fill="white"/>
</clipPath>
</defs>
</svg>
