<svg width="24" height="24" viewBox="0 0 24 24" fill="none" xmlns="http://www.w3.org/2000/svg">
<path d="M12.1987 18.102C8.39772 18.102 4.99947 16.6988 3.19872 14.6993C3.89772 16.5 5.10147 18.102 6.69897 19.1993C8.30097 20.301 10.1992 20.898 12.1987 20.898C14.1982 20.898 16.1017 20.301 17.6985 19.1993C19.3005 18.102 20.4997 16.5 21.1987 14.6993C19.398 16.6995 15.9997 18.102 12.1987 18.102ZM12.1987 4.89826C15.9997 4.89826 19.398 6.30151 21.1987 8.30101C20.4997 6.50026 19.3005 4.89826 17.6985 3.80101C15.9997 2.60175 14.1015 2.00026 12.1987 2.00026C10.1985 2.00026 8.30097 2.60251 6.69897 3.69901C5.10222 4.89826 3.89772 6.39826 3.19872 8.30101C4.99947 6.19876 8.30097 4.89826 12.1987 4.89826ZM19.1992 0.102005C17.3325 0.102005 17.3325 2.89801 19.1992 2.89801C21.066 2.89801 21.066 0.102005 19.1992 0.102005ZM5.10222 20.301C4.10547 20.301 3.30147 21.105 3.30147 22.1018C3.30147 23.094 4.10547 23.898 5.10222 23.898C6.09447 23.898 6.89847 23.094 6.89847 22.1018C6.89847 21.105 6.09447 20.301 5.10222 20.301ZM3.60222 2.30101C2.26647 2.30101 2.26647 4.30126 3.60222 4.30126C4.93422 4.30126 4.93422 2.30101 3.60222 2.30101Z" fill="black"/>
</svg>
