<svg width="24" height="24" viewBox="0 0 24 24" fill="none" xmlns="http://www.w3.org/2000/svg">
<path d="M19.2067 1.50002H4.79398C2.97298 1.50002 1.50073 2.97227 1.50073 4.79327V19.206C1.50073 21.027 2.97298 22.4993 4.79398 22.4993H19.2067C21.0127 22.4993 22.4767 21.0428 22.5 19.2368C20.3452 18.036 17.316 16.4085 14.4562 15.0915C12.9532 17.1525 10.5127 18.8888 7.48948 18.8888C4.18048 18.8888 3.09598 16.7655 2.94073 15.309C2.75473 13.4805 3.63823 11.4885 7.60573 11.4885C9.26398 11.4885 11.325 11.9693 13.5652 12.6585C14.34 11.2478 14.805 9.83027 14.805 9.83027H6.45223V9.04727H10.7685V7.58252H5.63848V6.69152H10.7685V4.32827H13.1557V6.69152H18.2857V7.58252H13.155V9.04727H17.316C17.316 9.04727 16.6035 11.2328 15.5182 13.3088C17.8117 14.0918 20.2057 14.9978 22.485 15.7808V4.79252C22.4925 2.97902 21.0202 1.49927 19.2067 1.49927V1.50002ZM3.71623 15.138C3.76273 16.0838 4.19698 17.6565 6.99448 17.6565C9.43498 17.6565 11.334 15.7965 12.5197 14.2395C10.428 13.3643 8.55973 12.7673 7.38973 12.7673C4.22773 12.7673 3.66973 14.3168 3.71698 15.138H3.71623Z" fill="black"/>
</svg>
