<svg width="24" height="24" viewBox="0 0 24 24" fill="none" xmlns="http://www.w3.org/2000/svg">
<g clip-path="url(#clip0_201_57272)">
<path d="M4.31176 12.648C6.92176 12.09 6.56176 8.96475 6.48751 8.28525C6.35851 7.2345 5.12026 5.3955 3.44476 5.54325C1.33576 5.73 1.02676 8.7855 1.02676 8.7855C0.73801 10.1955 1.70701 13.2113 4.31176 12.6488V12.648ZM9.15601 7.41C10.5983 7.41 11.7623 5.75025 11.7623 3.699C11.7623 1.65975 10.602 0 9.16051 0C7.72351 0 6.55126 1.64775 6.55126 3.699C6.55126 5.75025 7.71901 7.41 9.16051 7.41H9.15601ZM15.3668 7.656C17.2965 7.914 18.5265 5.85525 18.777 4.29675C19.0268 2.74575 17.7773 0.93375 16.4183 0.62475C15.051 0.309 13.359 2.49975 13.188 3.9255C13.008 5.67525 13.4378 7.41375 15.3593 7.65975L15.3668 7.656ZM23.0003 10.2847C23.0003 9.5385 22.3875 7.2885 20.0903 7.2885C17.7975 7.2885 17.4803 9.4095 17.4803 10.9095C17.4803 12.3397 17.598 14.3317 20.4653 14.2695C23.3205 14.1982 23.0085 11.0302 23.0085 10.2802L23.0003 10.2847ZM20.1023 16.8202C20.1023 16.8202 17.1135 14.5125 15.375 12.0203C13.0163 8.3445 9.66001 9.84 8.53876 11.703C7.42201 13.5863 5.67976 14.766 5.43376 15.0817C5.18401 15.3907 1.83601 17.199 2.58151 20.4998C3.33151 23.8005 5.94076 23.742 5.94076 23.742C5.94076 23.742 7.85851 23.9303 10.1018 23.43C12.3398 22.9298 14.262 23.5507 14.262 23.5507C14.262 23.5507 19.4693 25.3005 20.91 21.9405C22.332 18.5693 20.0978 16.8315 20.0978 16.8315L20.1023 16.8202Z" fill="black"/>
</g>
<defs>
<clipPath id="clip0_201_57272">
<rect width="24" height="24" fill="white"/>
</clipPath>
</defs>
</svg>
