<svg width="24" height="24" viewBox="0 0 24 24" fill="none" xmlns="http://www.w3.org/2000/svg">
<g clip-path="url(#clip0_201_58434)">
<path d="M12.012 2.598C6.79346 2.598 2.55896 6.4965 2.55896 11.3092C2.55896 14.325 3.77771 16.6103 5.71496 18.0825H5.71121L5.94596 21.1215V21.129C5.94596 21.1448 5.94596 21.156 5.94971 21.1717V21.1793C5.97296 21.324 6.09821 21.4335 6.25046 21.4335C6.30146 21.4335 6.34796 21.4177 6.39521 21.3983L6.40271 21.3908L9.30146 19.719C10.1527 19.914 11.067 20.016 12.0127 20.016C17.2312 20.016 21.462 16.1175 21.462 11.3048C21.462 6.4965 17.2312 2.598 12.009 2.598H12.012ZM10.3905 0.7185C10.914 0.65625 11.4487 0.61725 11.9962 0.61725C12.375 0.61725 12.7462 0.63675 13.1137 0.66825L13.1722 0.05475C12.7815 0.0195 12.3907 0 11.9962 0C11.4262 0 10.8637 0.03525 10.305 0.1095L10.3912 0.723L10.3905 0.7185ZM14.1877 0.81225C15.102 0.98025 15.9727 1.2495 16.797 1.6095L17.0512 1.04325C16.9185 0.98475 16.7857 0.93 16.653 0.879C15.891 0.57825 15.102 0.35175 14.2972 0.207L14.1877 0.81225ZM23.3557 11.3708C23.34 12.285 23.1997 13.1753 22.9492 14.0228L23.5387 14.1982C23.808 13.296 23.9565 12.3465 23.9722 11.3663L23.3557 11.3708ZM6.74621 1.81275C7.55471 1.42575 8.42171 1.1175 9.33221 0.9105L9.19571 0.309C8.56646 0.45 7.94546 0.6375 7.34396 0.879C7.04696 0.99225 6.75821 1.12125 6.47696 1.25775L6.74621 1.81275ZM20.3947 3.2145C19.6875 2.562 18.9105 2.00775 18.0667 1.539L17.754 2.082C18.5662 2.5275 19.3162 3.06225 19.9807 3.67575L20.3947 3.2145ZM15.1522 22.0507C16.0972 21.8123 16.9957 21.4612 17.8357 21.0195L17.523 20.4885C16.734 20.9025 15.8902 21.2265 14.9992 21.453L15.1522 22.0507ZM3.67571 4.00425C4.30871 3.3675 5.02346 2.805 5.80871 2.32875L5.48021 1.8015C4.78121 2.22375 4.12871 2.71575 3.53471 3.2745C3.43346 3.36825 3.33521 3.46575 3.23396 3.56325L3.67571 4.00425ZM23.1562 15.285L22.59 15.0502C22.2382 15.882 21.7852 16.6635 21.2347 17.382L21.7305 17.7495C22.3087 16.992 22.7887 16.1632 23.1525 15.285H23.1562ZM20.7262 4.43325C21.3315 5.109 21.8475 5.859 22.2615 6.66L22.8165 6.38625C22.3792 5.535 21.8362 4.7415 21.1875 4.01925L20.7225 4.43325H20.7262ZM23.2815 7.43775L22.7115 7.68C23.0242 8.508 23.235 9.38325 23.3167 10.2892L23.9302 10.2308C23.844 9.27375 23.6257 8.33625 23.2815 7.43775ZM6.38696 22.848L5.41796 23.274L5.08571 22.2502L4.49996 22.4377L4.93721 23.7855C4.96871 23.8673 5.02721 23.9377 5.10521 23.973C5.14421 23.9925 5.18696 24 5.23046 24C5.27396 24 5.31671 23.9925 5.35571 23.973L6.63671 23.4105L6.38696 22.848ZM10.2112 21.6562C10.1332 21.6405 10.0507 21.6293 9.97271 21.6135L9.50771 21.5355C9.44546 21.528 9.38696 21.5355 9.33596 21.5588L7.38296 22.41L7.65671 22.965L9.50021 22.164C9.62546 22.1835 9.74996 22.203 9.87146 22.2225C9.93821 22.2382 10.0125 22.2457 10.0785 22.2615L10.2112 21.6562ZM13.9372 21.6757C13.3042 21.7815 12.6562 21.8317 11.9955 21.8317C11.7217 21.8317 11.4682 21.816 11.2222 21.7927L11.2027 22.41C11.4525 22.4332 11.7142 22.449 11.9955 22.449C12.6907 22.449 13.3785 22.3905 14.0422 22.281L13.9372 21.6757ZM1.51571 7.1175C1.88696 6.2895 2.36696 5.52 2.94146 4.81275L2.47271 4.40625C1.86296 5.1525 1.35521 5.96475 0.96521 6.83625L0.95321 6.85575L1.51571 7.1175ZM20.5312 18.2108C19.9215 18.8595 19.2225 19.437 18.4612 19.9373L18.801 20.4533C19.6057 19.9298 20.3437 19.3125 20.9925 18.6248L20.5312 18.2108ZM0.96896 14.5507C0.78146 13.7535 0.67571 12.8752 0.64871 11.8785H0.03146C0.06296 12.9488 0.17621 13.8862 0.37496 14.7225L0.96896 14.5507ZM0.53921 7.926C0.24221 8.8365 0.07046 9.77775 0.02771 10.7385L0.64496 10.77C0.68396 9.8445 0.85196 8.9535 1.12946 8.106L0.53921 7.926ZM4.73846 21.1838L4.14896 19.371C4.12946 19.3088 4.09046 19.2615 4.04321 19.2225C3.80846 19.0387 3.59396 18.855 3.38321 18.6637L2.96096 19.1092C3.15221 19.2967 3.36746 19.4722 3.59021 19.6522L4.14896 21.3668L4.73846 21.1838ZM2.63246 17.8942C2.03846 17.2027 1.59371 16.4452 1.27721 15.5775L0.70271 15.8077C0.74546 15.9135 0.78446 16.0222 0.82796 16.128C1.16021 16.9252 1.60121 17.6355 2.17196 18.3038L2.63246 17.8942Z" fill="black"/>
</g>
<defs>
<clipPath id="clip0_201_58434">
<rect width="24" height="24" fill="white"/>
</clipPath>
</defs>
</svg>
