<svg width="24" height="24" viewBox="0 0 24 24" fill="none" xmlns="http://www.w3.org/2000/svg">
<g clip-path="url(#clip0_201_57726)">
<path d="M9.55874 0.687744C8.46524 0.933744 7.37924 1.27349 6.35924 1.78574C6.38249 2.68424 6.44099 3.54374 6.55874 4.41449C6.16424 4.66874 5.75024 4.88699 5.38274 5.18399C5.00774 5.46899 4.62524 5.74649 4.28474 6.08249C3.60524 5.63699 2.89049 5.21549 2.14799 4.84424C1.35074 5.69999 0.608987 6.62549 -0.000762939 7.66049C0.455987 8.40299 0.936737 9.09374 1.45274 9.75449H1.46474V16.11C1.47674 16.11 1.48799 16.11 1.49999 16.1137L5.39849 16.4887C5.60174 16.5082 5.76149 16.6725 5.77349 16.8795L5.89424 18.5985L9.29249 18.8407L9.52724 17.2545C9.55874 17.0475 9.73424 16.8952 9.94124 16.8952H14.0542C14.2612 16.8952 14.4367 17.0475 14.4682 17.2545L14.703 18.8407L18.1012 18.5985L18.222 16.8795C18.234 16.6725 18.3937 16.5082 18.6007 16.4887L22.4955 16.1137C22.5075 16.1137 22.5187 16.11 22.5307 16.11V9.75449H22.5465C23.0625 9.09824 23.5387 8.40299 23.9955 7.66049C23.3902 6.62549 22.644 5.69924 21.8467 4.84424C21.1087 5.21549 20.3895 5.63699 19.71 6.08249C19.3702 5.74649 18.9915 5.46899 18.6165 5.18399C18.2452 4.88699 17.8312 4.66799 17.4367 4.41449C17.5537 3.54374 17.6122 2.68424 17.6362 1.78574C16.6207 1.27424 15.5347 0.934494 14.4367 0.687744C13.9995 1.42574 13.6005 2.22299 13.2532 2.99999C12.8392 2.93324 12.4215 2.90624 12.0075 2.90249H11.988C11.574 2.90624 11.1562 2.93399 10.7422 2.99999C10.3942 2.22299 9.99599 1.42574 9.55499 0.687744H9.55874ZM6.47624 9.99224C7.77299 9.99224 8.82374 11.0467 8.82374 12.3435C8.82374 13.6402 7.77299 14.691 6.47624 14.691C5.17949 14.691 4.12874 13.6402 4.12874 12.3435C4.12874 11.0467 5.17949 9.99224 6.47624 9.99224ZM17.5237 9.99224C18.8205 9.99224 19.8712 11.0467 19.8712 12.3435C19.8712 13.6402 18.8205 14.691 17.5237 14.691C16.227 14.691 15.1762 13.6402 15.1762 12.3435C15.1762 11.0467 16.227 9.99224 17.5237 9.99224ZM6.69899 10.926C5.83949 10.926 5.14049 11.6212 5.14049 12.4845C5.14049 13.344 5.83949 14.0392 6.69899 14.0392C7.56224 14.0392 8.26124 13.344 8.26124 12.4845C8.26124 11.6212 7.56224 10.926 6.69899 10.926ZM17.2972 10.926C16.4377 10.926 15.7387 11.6212 15.7387 12.4845C15.7387 13.344 16.4377 14.0392 17.2972 14.0392C18.1605 14.0392 18.8557 13.344 18.8557 12.4845C18.8557 11.6212 18.1605 10.926 17.2972 10.926ZM12 11.379C12.4177 11.379 12.7575 11.6835 12.7575 12.0622V14.226C12.7575 14.6047 12.4177 14.9137 12 14.9137C11.5822 14.9137 11.2425 14.6055 11.2425 14.226V12.0622C11.2425 11.6835 11.5822 11.379 12 11.379ZM1.46099 16.9492C1.46099 17.328 1.46474 17.7382 1.46474 17.82C1.46474 21.5235 6.15974 23.3002 11.9917 23.3197H12.0075C17.8395 23.3002 22.5307 21.5227 22.5307 17.82C22.5307 17.7382 22.5345 17.328 22.5382 16.9492L19.0342 17.289L18.9135 19.0192C18.8977 19.2262 18.7335 19.3942 18.5265 19.4062L14.343 19.7032C14.1397 19.7032 13.9605 19.5547 13.929 19.3477L13.6905 17.7307H10.3035L10.065 19.3477C10.0335 19.5622 9.84224 19.719 9.61949 19.7032L5.47124 19.4062C5.26424 19.3905 5.09624 19.2262 5.08049 19.0192L4.96349 17.289L1.45949 16.953L1.46099 16.9492Z" fill="black"/>
</g>
<defs>
<clipPath id="clip0_201_57726">
<rect width="24" height="24" fill="white"/>
</clipPath>
</defs>
</svg>
