<svg width="24" height="24" viewBox="0 0 24 24" fill="none" xmlns="http://www.w3.org/2000/svg">
<g clip-path="url(#clip0_201_58598)">
<path d="M4.25402 23.9378C4.04327 23.8395 3.87527 23.676 3.77702 23.469C3.69902 23.3048 3.69077 23.2463 3.69077 22.8158C3.69077 21.8865 3.84377 20.391 4.05452 19.23C4.75352 15.402 6.42527 12.102 8.96852 9.55879L9.54226 8.97979L9.46802 8.68804C9.32701 8.12479 9.39002 7.37929 9.61577 6.85879C9.86552 6.29704 10.401 5.71879 10.917 5.44504C11.0498 5.37079 11.1668 5.31604 11.1713 5.31979C11.1795 5.31979 11.2373 5.30104 11.3085 5.27254C11.3783 5.24179 11.4608 5.21029 11.4953 5.20279C11.5305 5.19904 11.5935 5.17954 11.6363 5.17204C12.0773 5.06629 12.534 5.06629 12.9765 5.17204C13.0155 5.17579 13.0898 5.19904 13.1445 5.22304C13.1903 5.24179 13.2338 5.25004 13.2338 5.24179C13.2338 5.22979 13.4055 5.31154 13.6088 5.41804C14.2185 5.73379 14.6408 6.16804 14.9258 6.78079C15.1478 7.24579 15.1988 7.48354 15.195 8.02654C15.1913 8.42554 15.18 8.53429 15.102 8.79229C14.922 9.39754 14.652 9.79654 14.1368 10.2495C14.0198 10.3478 13.887 10.4483 13.8435 10.4798C13.6635 10.5735 13.4835 10.6635 13.3005 10.746C13.2885 10.7543 13.2615 10.7663 13.2338 10.7768C13.2068 10.7888 13.1445 10.8045 13.0898 10.812C13.047 10.8203 13.0035 10.8323 12.9645 10.848C12.9488 10.8593 12.8438 10.875 12.7335 10.887C12.6203 10.8953 12.4763 10.9103 12.4133 10.9178C12.2655 10.941 11.8043 10.887 11.538 10.824C11.3228 10.758 11.1158 10.6718 10.917 10.5623L10.6553 10.4265L10.5465 10.5045C10.4018 10.6178 9.71477 11.3558 9.36227 11.7735C7.02602 14.5785 5.71052 18.2235 5.53427 22.3958C5.50727 23.0235 5.48327 23.31 5.44427 23.4188C5.37452 23.61 5.16752 23.8365 4.97627 23.931C4.74152 24.024 4.48352 24.024 4.25327 23.9393L4.25402 23.9378ZM12.105 16.0553C12.0038 16.035 11.9018 16.02 11.7968 16.02C11.5155 16.008 11.2335 15.9728 10.9605 15.9143C10.9215 15.906 10.8315 15.891 10.7573 15.879C10.7025 15.8708 10.647 15.8588 10.593 15.84C10.554 15.8243 10.5113 15.8123 10.4723 15.8093C10.3943 15.789 10.3155 15.7665 10.2413 15.738C10.194 15.7148 10.1445 15.699 10.0935 15.6908C9.99977 15.6675 9.90526 15.6368 9.81151 15.6045C9.72226 15.5693 9.62852 15.5423 9.53477 15.5228C9.50777 15.5385 9.19502 15.312 9.11702 15.2228C8.90177 14.9685 8.82377 14.5778 8.93402 14.3198C9.08177 13.977 9.43802 13.719 9.78077 13.7108C9.89777 13.707 10.0118 13.719 10.0388 13.7415C10.0658 13.7655 10.0898 13.7723 10.0898 13.7618C10.0898 13.746 10.125 13.7655 10.1715 13.797C10.218 13.8285 10.2578 13.8398 10.2578 13.8278C10.2578 13.812 10.281 13.8158 10.305 13.836C10.3478 13.8713 10.6373 13.9688 10.7663 13.9958C10.8053 14.004 10.8555 14.0198 10.8713 14.0265C10.887 14.0348 10.9493 14.0588 11.016 14.0655C11.0783 14.0693 11.262 14.1045 11.4218 14.1368C11.7338 14.1945 12.75 14.2268 12.9608 14.184C13.023 14.1683 13.1558 14.148 13.2495 14.1368C13.3478 14.133 13.4445 14.1128 13.4723 14.1015C13.503 14.0933 13.5735 14.0775 13.6283 14.0693C13.7655 14.046 13.9133 14.0115 14.019 13.9725C14.046 13.9643 14.1398 13.9373 14.2223 13.9095C14.3085 13.8908 14.4135 13.8548 14.46 13.8353C14.511 13.815 14.5688 13.7963 14.601 13.788C14.6198 13.7843 14.8268 13.6868 15.0578 13.5728C15.9675 13.128 16.7528 12.4718 17.3505 11.655C17.6235 11.2613 18.0495 10.425 18.1898 9.97879C18.9128 7.72579 18.339 5.24479 16.7138 3.60379C16.05 2.95954 15.2565 2.46379 14.3858 2.14654C14.2485 2.10079 14.112 2.06029 13.9755 2.02579C13.8893 2.01079 13.8075 1.99054 13.7288 1.96804C13.6665 1.95229 13.6035 1.93729 13.5375 1.92079C13.3815 1.89004 13.2218 1.86604 13.0605 1.85404C12.9675 1.85104 12.8775 1.83529 12.7875 1.81879C12.7328 1.80004 11.9325 1.80379 11.7285 1.82254C11.4825 1.84654 11.3303 1.86979 11.1623 1.90054C11.076 1.92079 10.9943 1.93954 10.9043 1.95154L10.7363 1.99054L10.6005 2.02579C10.5645 2.03404 10.5293 2.04604 10.4985 2.05804C10.4753 2.06104 10.4558 2.06929 10.4393 2.08504C10.428 2.10079 10.3815 2.11204 10.3425 2.11204C10.2998 2.11204 10.2608 2.12779 10.2285 2.15104C10.2053 2.17879 10.1895 2.18329 10.1895 2.16679C10.1895 2.14654 10.1625 2.15479 10.1393 2.18254C10.107 2.20129 10.0883 2.20954 10.0883 2.20129C10.0883 2.18629 10.0493 2.19304 10.0103 2.22154C9.96752 2.24029 9.91652 2.26429 9.89627 2.26879C9.82652 2.28379 9.17027 2.61604 8.96702 2.74879C8.50577 3.03754 8.34227 3.17104 7.91177 3.60079C7.38077 4.12804 7.09577 4.52179 6.76802 5.17504C6.15377 6.38629 5.95127 7.76479 6.18602 9.10429C6.24827 9.46429 6.33002 9.75754 6.48977 10.194C6.55277 10.3538 6.55952 10.425 6.53252 10.5608C6.43577 11.1075 5.82527 11.5185 5.38427 11.331C5.31752 11.3078 5.26352 11.2883 5.26352 11.3003C5.26352 11.3355 4.97477 11.1015 4.88852 10.9875C4.80227 10.8548 4.73177 10.7145 4.68152 10.5653C4.21277 9.26554 4.13027 7.62004 4.46627 6.19804C4.75502 5.02204 5.29427 3.92104 6.05252 2.97604C6.36827 2.58904 7.04477 1.92529 7.41152 1.64029C7.68527 1.42954 8.30927 1.01929 8.35277 1.01929C8.36102 1.01929 8.48552 0.948042 8.62652 0.862542C8.71277 0.811542 8.79827 0.765792 8.88827 0.726792C8.88827 0.738042 8.95052 0.711042 9.03227 0.672042C9.11402 0.629292 9.19202 0.590292 9.21227 0.590292C9.23102 0.586542 9.30902 0.555042 9.38402 0.523542C9.45827 0.488292 9.51977 0.469542 9.52427 0.477792C9.52427 0.480792 9.55202 0.469542 9.58352 0.441792C9.61427 0.414792 9.64277 0.406542 9.64277 0.423042C9.64277 0.435042 9.66602 0.431292 9.69302 0.402792C9.72077 0.379542 9.74027 0.372042 9.74027 0.387792C9.74027 0.399042 9.76802 0.391542 9.79502 0.367542C9.82202 0.344292 9.84602 0.340542 9.84602 0.352542C9.84602 0.367542 9.86927 0.359292 9.89627 0.336792C9.92402 0.312792 9.94726 0.301542 9.94726 0.312792C9.94726 0.324792 9.99002 0.316542 10.0455 0.297792C10.0965 0.277542 10.1625 0.255042 10.1978 0.246792C10.2525 0.231042 10.362 0.207792 10.4438 0.184542C10.479 0.176292 10.515 0.164292 10.5458 0.152292C10.5848 0.145542 10.671 0.121542 10.737 0.113292C10.8 0.102042 10.9988 0.0705417 11.175 0.0472917C11.409 0.0082917 11.7098 -0.0037083 12.39 0.0045417C12.882 0.0082917 13.335 0.0232917 13.386 0.0315417C13.4438 0.0472917 13.5578 0.0622917 13.6403 0.0742917C13.7265 0.0900417 13.854 0.113292 13.929 0.133542C14.0108 0.148542 14.1203 0.172542 14.187 0.184542C14.241 0.191292 14.292 0.203292 14.343 0.223542C14.3663 0.238542 14.394 0.250542 14.4248 0.258792C14.5215 0.282042 14.5845 0.297792 14.5928 0.301542C14.601 0.309792 14.6078 0.312792 14.628 0.312792L14.8943 0.402792C15.0263 0.445542 15.1403 0.489042 15.147 0.489042C15.1553 0.489042 15.198 0.509292 15.2333 0.531792C15.2693 0.552042 15.3113 0.567042 15.327 0.570792C15.3428 0.570792 15.4013 0.598542 15.456 0.625542C15.5153 0.656292 15.558 0.672792 15.558 0.664542C15.558 0.641292 16.2998 1.04329 16.5068 1.18054C16.6118 1.25029 16.7258 1.32829 16.761 1.34479C17.1038 1.55554 17.6198 1.98454 18.042 2.42254C19.1363 3.54379 19.8818 4.95379 20.1938 6.48829C20.2755 6.90229 20.292 7.04704 20.304 7.82404C20.319 8.82004 20.28 9.21529 20.0888 9.96529C19.6868 11.5395 18.858 12.8715 17.55 14.0625C17.163 14.3873 16.7573 14.6805 16.3268 14.9453C16.1468 15.051 15.2835 15.48 15.2835 15.465C15.2835 15.453 15.2528 15.4688 15.2093 15.492C15.162 15.516 15.123 15.5348 15.111 15.5348C15.1028 15.5348 14.9858 15.5775 14.853 15.621C14.7278 15.6638 14.607 15.7073 14.6003 15.7073L14.529 15.7343C14.4863 15.7545 14.439 15.7665 14.3933 15.7733C14.2283 15.8093 14.154 15.8243 14.127 15.84C14.0798 15.8588 14.0288 15.8708 13.9778 15.879C13.8885 15.891 13.7985 15.906 13.7085 15.9263C13.4708 15.9735 13.2315 16.0043 12.9893 16.0163C12.4155 16.062 12.114 16.074 12.102 16.0553H12.105Z" fill="black"/>
</g>
<defs>
<clipPath id="clip0_201_58598">
<rect width="24" height="24" fill="white"/>
</clipPath>
</defs>
</svg>
