<svg width="24" height="24" viewBox="0 0 24 24" fill="none" xmlns="http://www.w3.org/2000/svg">
<g clip-path="url(#clip0_201_58654)">
<path d="M18.078 16.539C17.7225 16.6448 17.4413 16.6838 17.0663 16.6838C14.019 16.6838 9.54303 6.0315 9.54303 2.48475C9.54303 1.17975 9.85578 0.74625 10.2893 0.37125C6.55878 0.8085 2.08203 2.17575 0.652533 3.918C0.339783 4.3515 0.152283 5.0355 0.152283 5.90625C0.152283 11.4412 6.05853 24 10.2263 24C12.156 24 15.4058 20.832 18.078 16.539ZM16.1325 0C19.9883 0 23.847 0.621 23.847 2.79675C23.847 7.215 21.0465 12.5625 19.6163 12.5625C17.0655 12.5625 13.8975 5.47275 13.8975 1.92975C13.8975 0.309 14.5185 0 16.1318 0L16.1325 0Z" fill="black"/>
</g>
<defs>
<clipPath id="clip0_201_58654">
<rect width="24" height="24" fill="white"/>
</clipPath>
</defs>
</svg>
