<svg width="24" height="24" viewBox="0 0 24 24" fill="none" xmlns="http://www.w3.org/2000/svg">
<g clip-path="url(#clip0_201_57146)">
<path d="M12 1.75781e-05C8.51996 1.75781e-05 4.42571 0.828018 0.929963 2.62877L0.386963 2.90552V3.52277C0.386963 7.23377 0.456713 17.1368 11.4877 23.691L12 24L12.5122 23.691C23.5432 17.1368 23.613 7.23377 23.613 3.52277V2.91377L23.0737 2.63252C19.6207 0.823518 15.48 -0.000732422 12 -0.000732422V1.75781e-05ZM12 2.01227C14.9767 2.01227 18.5857 2.77352 21.5737 4.21127C21.5655 8.09852 21.156 15.7545 12 21.5393C2.84396 15.7545 2.42996 8.09852 2.42621 4.21127C5.46146 2.77052 9.02321 2.01227 12 2.01227ZM17.0347 7.57802C16.773 7.58627 16.551 7.74977 16.4257 7.87502L11.0467 13.4573L9.03071 11.043C8.07746 9.93827 6.76946 10.7933 6.46871 10.992L11.145 16.422L17.5312 7.77302C17.3985 7.64477 17.2192 7.57427 17.0355 7.57802H17.0347Z" fill="black"/>
</g>
<defs>
<clipPath id="clip0_201_57146">
<rect width="24" height="24" fill="white"/>
</clipPath>
</defs>
</svg>
