<svg width="24" height="24" viewBox="0 0 24 24" fill="none" xmlns="http://www.w3.org/2000/svg">
<path d="M20.4 1.5H3.6C2.442 1.5 1.5 2.442 1.5 3.6V20.4C1.5 21.558 2.442 22.5 3.6 22.5H20.4C21.558 22.5 22.5 21.558 22.5 20.4V3.6C22.5 2.442 21.558 1.5 20.4 1.5ZM19.1722 8.475C19.107 9.95175 18.0758 11.9767 16.0785 14.5402C14.016 17.2215 12.2677 18.5625 10.8427 18.5625C9.957 18.5625 9.2115 17.7473 8.59725 16.1108C7.40175 11.7375 6.891 9.17325 5.907 9.17325C5.7945 9.17325 5.39625 9.4125 4.71675 9.88575L4.00425 8.967C5.7525 7.4295 7.42125 5.72325 8.46675 5.6295C9.648 5.517 10.3748 6.32325 10.6462 8.05275C11.6167 14.2028 12.048 15.1313 13.815 12.3465C14.448 11.3438 14.79 10.5795 14.8373 10.0545C15.0015 8.49825 13.623 8.60625 12.69 9.0045C13.4355 6.5625 14.8605 5.376 16.965 5.442C18.5258 5.484 19.2622 6.4965 19.173 8.475H19.1722Z" fill="black"/>
</svg>
