<svg width="24" height="24" viewBox="0 0 24 24" fill="none" xmlns="http://www.w3.org/2000/svg">
<g clip-path="url(#clip0_201_58256)">
<path d="M11.977 0C11.8593 0.00375 11.746 0.00825 11.629 0.012C11.305 0.03075 10.8588 0.07425 10.5003 0.12075C7.21151 0.57 4.40201 2.223 2.50826 4.68375C2.03951 5.289 1.63301 5.93775 1.28501 6.621C1.22726 6.74175 1.16801 6.85875 1.11326 6.98025C1.02326 7.1805 0.934007 7.37925 0.852257 7.5825C0.746507 7.84425 0.652007 8.10525 0.566507 8.3715L0.520757 8.51625C0.176507 9.64125 0.00475708 10.809 0.00100708 11.9843V12.0233C0.0130071 18.6413 5.38376 24 12.001 24C18.1608 24 23.317 19.3358 23.9388 13.2113L23.9418 13.188C23.9808 12.7972 24.001 12.4058 24.001 12.0203V11.9692C23.9973 10.5435 23.7348 9.12525 23.2308 7.7895C23.1918 7.6845 23.149 7.57875 23.1055 7.4775C23.0358 7.30575 22.9615 7.13775 22.8798 6.96975C21.3955 3.81675 18.583 1.38 15.1848 0.462C14.4228 0.255 13.204 0.07125 12.3678 0.021C12.2545 0.01275 12.142 0.00525 12.0235 0.00075L11.977 0ZM14.2975 2.87925C14.4655 2.883 14.6763 2.9385 14.9733 3.039C16.7545 3.648 18.7465 5.19525 19.828 6.80475C20.578 7.9215 21.1638 9.2295 21.1638 9.789C21.1638 10.1482 20.8158 10.473 20.4408 10.473C20.0898 10.473 19.7298 10.164 19.6368 9.789C19.5078 9.26625 18.805 7.938 18.289 7.25775C17.3748 6.051 15.961 4.99575 14.5698 4.47975C13.594 4.113 13.3398 3.684 13.7928 3.14475C13.945 2.961 14.0815 2.8785 14.2968 2.8785L14.2975 2.87925ZM10.4103 4.281C10.672 4.281 10.906 4.33575 11.113 4.44525C12.4218 5.109 12.352 7.0125 10.9878 7.53525C9.30476 8.1765 8.45651 8.85525 7.90601 9.9735C6.75401 12.3127 7.69526 15.0743 10.027 16.1917C11.7423 17.013 13.6953 16.728 15.0588 15.4695C15.6798 14.8912 16.0195 14.3955 16.324 13.5907C16.7538 12.4657 17.242 12.0435 18.1173 12.0435C19.234 12.0435 20.0043 12.9885 19.777 14.0707C19.312 16.2 17.5233 18.3405 15.355 19.3447C14.1603 19.896 13.504 20.0355 11.992 20.0355C10.5078 20.0355 9.86276 19.9028 8.71076 19.3792C5.56601 17.9573 3.63701 14.5515 4.03451 11.172C4.41326 8.04675 6.56126 5.42625 9.54626 4.43775C9.86201 4.332 10.1515 4.2765 10.4095 4.281H10.4103ZM13.8753 5.238C14.0943 5.24175 14.3755 5.34375 14.7895 5.547C16.4778 6.348 17.8713 7.824 18.6213 9.582C18.9025 10.254 18.7623 10.6912 18.2155 10.863C17.7933 10.9882 17.5128 10.7618 17.1483 9.99975C16.465 8.559 15.496 7.5615 14.1333 6.891C13.3405 6.50775 13.2423 6.41775 13.1643 6.04275C13.129 5.844 13.1643 5.73 13.348 5.51175C13.504 5.328 13.6563 5.2335 13.8753 5.238ZM13.477 7.68375C13.7073 7.68375 13.9728 7.78875 14.3163 8.016C15.277 8.64525 16.3593 9.99975 16.3593 10.566C16.3593 10.8548 16.0825 11.223 15.8013 11.2928C15.4263 11.391 15.1563 11.2028 14.7625 10.5855C14.3365 9.92925 13.8363 9.4335 13.3203 9.17175C12.8755 8.94075 12.7465 8.76975 12.7465 8.4015C12.7308 8.19825 12.8245 8.00325 12.9888 7.88625C13.1215 7.75725 13.2978 7.6875 13.4778 7.683L13.477 7.68375Z" fill="black"/>
</g>
<defs>
<clipPath id="clip0_201_58256">
<rect width="24" height="24" fill="white"/>
</clipPath>
</defs>
</svg>
