<svg width="24" height="24" viewBox="0 0 24 24" fill="none" xmlns="http://www.w3.org/2000/svg">
<path d="M4.38677 8.28524C4.10477 8.62124 3.65552 8.88749 3.20702 8.84849C3.14777 8.39549 3.37127 7.91024 3.62927 7.60949C3.91052 7.26674 4.40252 7.02074 4.80152 7.00049C4.84877 7.47374 4.66427 7.93874 4.38752 8.28524H4.38677ZM4.79702 8.93774C4.14527 8.89799 3.58577 9.31199 3.27677 9.31199C2.96102 9.31199 2.48777 8.95724 1.97252 8.96924C1.30427 8.97749 0.679518 9.35924 0.339768 9.97349C-0.367482 11.1952 0.156018 13.0042 0.835518 14.0002C1.16777 14.4922 1.56527 15.0315 2.08952 15.0165C2.58527 14.9962 2.78477 14.6887 3.38252 14.6887C3.98777 14.6887 4.15952 15.0165 4.68752 15.0045C5.22977 14.9962 5.57327 14.5125 5.90552 14.0205C6.28427 13.4617 6.44027 12.9142 6.44852 12.8872C6.44027 12.8752 5.39777 12.4732 5.39027 11.262C5.38202 10.2457 6.21002 9.76199 6.24527 9.73424C5.78027 9.03149 5.04602 8.95724 4.79627 8.93849L4.79702 8.93774ZM8.55902 7.56224V14.9535H9.69527V12.4267H11.2665C12.6998 12.4267 13.7078 11.4307 13.7078 9.99299C13.7078 8.55224 12.72 7.56299 11.3055 7.56299L8.55902 7.56224ZM9.69527 8.53124H11.004C11.988 8.53124 12.5513 9.06224 12.5513 9.99599C12.5513 10.9297 11.988 11.4652 10.9965 11.4652H9.69527V8.53124ZM15.777 15.0082C16.4918 15.0082 17.1518 14.6452 17.4533 14.0662H17.4773V14.9535H18.5273V11.2732C18.5273 10.2112 17.6843 9.52049 16.383 9.52049C15.18 9.52049 14.289 10.2195 14.2583 11.1765H15.2775C15.3638 10.7197 15.7778 10.4227 16.3523 10.4227C17.0475 10.4227 17.4345 10.7505 17.4345 11.3527V11.7585L16.0208 11.8447C14.7 11.9265 13.989 12.4695 13.989 13.419C13.989 14.376 14.724 15.009 15.7778 15.009L15.777 15.0082ZM16.086 14.133C15.48 14.133 15.0938 13.8397 15.0938 13.3912C15.0938 12.9262 15.465 12.6525 16.1715 12.609L17.4338 12.531V12.9487C17.4338 13.641 16.8518 14.133 16.0815 14.133H16.086ZM19.9298 16.965C21.0345 16.965 21.555 16.5352 22.008 15.2422L24 9.59399H22.848L21.5123 13.9567H21.4883L20.1525 9.59399H18.9653L20.8875 14.973L20.7855 15.3007C20.6093 15.852 20.3288 16.0657 19.8285 16.0657C19.7385 16.0657 19.5668 16.0545 19.4963 16.047V16.9342C19.5623 16.953 19.8443 16.9612 19.926 16.9612L19.9298 16.965Z" fill="black"/>
</svg>
