<svg width="24" height="24" viewBox="0 0 24 24" fill="none" xmlns="http://www.w3.org/2000/svg">
<g clip-path="url(#clip0_201_57856)">
<path d="M5.50802 5.87474C5.01602 5.87474 4.56977 5.42174 4.56977 4.92149C4.56977 3.76574 7.42952 2.90924 10.68 2.90924C10.977 2.90924 11.172 2.90924 11.172 2.65949C11.172 2.21024 10.188 2.05874 10.188 1.30424C10.188 0.503237 11.121 -0.000762939 12.3053 -0.000762939C13.488 -0.000762939 14.4263 0.503237 14.4263 1.30424C14.4263 2.05799 13.4385 2.15924 13.4385 2.65949C13.4385 2.81174 13.5863 2.90924 13.9305 2.90924C17.1848 2.90924 20.0903 3.71399 20.0903 4.92149C20.0985 5.44049 19.6763 5.87024 19.152 5.87474H5.50802ZM20.238 10.4407C21.4223 11.1945 21.8633 12.5505 21.6683 13.809L20.289 21.387C19.992 22.8982 18.711 24 17.184 24H7.52702C6.00002 24 4.71902 22.8952 4.42202 21.3907L3.04277 13.809C2.83202 12.5077 3.40952 11.2027 4.51952 10.4917C5.21027 9.99149 5.35877 9.13649 4.51952 8.83574C3.33977 8.38649 3.58577 6.92999 4.76552 6.92999H11.9603C13.0935 6.92999 14.472 7.78124 14.472 10.5427C14.472 13.3042 13.1903 13.0545 13.1903 15.012C13.1903 15.867 13.8825 16.77 14.718 16.8712C16.1468 17.0205 16.983 16.4692 16.983 14.4615C16.983 12.4027 15.804 11.4495 15.804 9.74249C15.804 7.68449 17.085 6.87974 17.9213 6.87974H19.9913C21.1755 6.87974 21.4215 8.33699 20.2373 8.78549C19.401 9.13724 19.5465 9.99224 20.2373 10.4415L20.238 10.4407Z" fill="black"/>
</g>
<defs>
<clipPath id="clip0_201_57856">
<rect width="24" height="24" fill="white"/>
</clipPath>
</defs>
</svg>
