<svg width="24" height="24" viewBox="0 0 24 24" fill="none" xmlns="http://www.w3.org/2000/svg">
<g clip-path="url(#clip0_201_58268)">
<path d="M15.7192 1.75425C10.0785 -0.30075 3.81225 2.625 1.77 8.25C-0.30075 13.9493 2.625 20.2073 8.26575 22.2623C13.9215 24.3165 20.223 21.3915 22.2728 15.75C24.3315 10.0778 21.4058 3.81225 15.75 1.75425H15.7192ZM12 24C5.39775 24 0 18.6023 0 12C0 5.39775 5.39775 0 12 0C18.6023 0 24 5.39775 24 12C24 18.6023 18.6023 24 12 24ZM8.92575 5.805V18.195L19.68 12L8.92575 5.805ZM9.97725 7.57425L17.625 12L9.97725 16.4257V7.5735V7.57425ZM6.44925 7.15575V16.8435L14.8522 11.9992L6.44925 7.15575ZM7.5 8.95275L12.8123 12L7.5 15.0623V8.9385V8.95275Z" fill="black"/>
</g>
<defs>
<clipPath id="clip0_201_58268">
<rect width="24" height="24" fill="white"/>
</clipPath>
</defs>
</svg>
