<svg width="24" height="24" viewBox="0 0 24 24" fill="none" xmlns="http://www.w3.org/2000/svg">
<g clip-path="url(#clip0_201_57424)">
<path d="M4.641 7.4685C6.73875 7.9995 9.42225 8.2695 12.6488 8.2695C15.9495 8.2695 18.5708 8.00025 20.6603 7.4685C22.8908 6.94875 23.961 6.24975 23.961 5.58975C23.961 5.121 23.4803 4.65975 22.6095 4.30875C22.809 4.4415 22.9613 4.6605 22.9613 4.89825C22.9613 5.57025 21.9495 6.12075 19.9223 6.57825C18.0398 6.9885 15.6413 7.28175 12.7193 7.28175C9.89925 7.28175 7.39125 6.9885 5.5785 6.60225C3.62925 6.1215 2.61 5.6025 2.61 4.92225C2.61 4.641 2.739 4.39875 3.12975 4.12125C1.911 4.59 1.251 4.98825 1.251 5.58975C1.3215 6.26925 2.41125 6.94875 4.64175 7.4685H4.641ZM9.3285 5.3085C11.6018 5.109 12.2618 3.648 14.922 3.41025C16.2308 3.309 17.0588 3.57075 17.1488 4.03125C17.2305 4.461 16.5788 4.74975 15.789 4.80825C14.6993 4.9215 14.25 4.53075 14.16 4.1595C13.3515 4.2495 13.2188 4.58925 13.2615 4.82775C13.3515 5.289 14.328 5.7495 16.0118 5.58975C17.91 5.44125 18.5505 4.69125 18.3908 3.94125C18.1913 2.961 16.7303 2.1405 14.1098 2.39025C10.7505 2.691 10.77 4.2495 8.481 4.44075C7.53975 4.53075 7.02 4.308 6.93 3.9405C6.8715 3.56925 7.32825 3.39 7.87125 3.351C8.3715 3.3 8.9805 3.39 9.27 3.5505C9.48075 3.441 9.55125 3.32775 9.53175 3.19875C9.4305 2.85075 8.739 2.6985 7.87125 2.7615C6.17175 2.91 6.17175 3.672 6.23025 4.01175C6.39825 4.87875 7.71075 5.46075 9.32775 5.3085H9.3285ZM20.7503 9.1485C18.6488 9.6405 15.969 9.96075 12.7388 9.96075C9.44175 9.96075 6.75075 9.621 4.6605 9.15975C2.78175 8.679 1.78125 8.148 1.43025 7.60125C1.61025 8.8275 1.92225 10.0192 2.32125 11.148C1.8405 11.4487 1.41075 11.82 1.02075 12.3202C0.306004 13.191 -0.0577461 14.2965 0.00150388 15.4215C0.0757539 16.4565 0.591004 17.4135 1.4235 18.039C2.2905 18.7185 3.23175 18.9217 4.30275 18.7185C4.713 18.648 5.1735 18.441 5.592 18.3007C4.713 18.3007 3.97125 18.0195 3.2325 17.43C2.42025 16.8675 1.881 15.9885 1.74 15.012C1.5405 14.0707 1.74 13.1992 2.271 12.4297C2.39175 12.2812 2.52075 12.1485 2.66175 12.0315C2.9625 12.762 3.28275 13.4805 3.642 14.1487C4.4505 15.3795 5.26275 16.4497 6.072 17.61C6.42375 18.2895 6.65025 18.9615 6.81 19.6297C7.353 20.3797 8.142 20.9107 9.0405 21.1297C10.1925 21.5317 11.3918 21.7117 12.6225 21.6412H12.7515C14.0018 21.696 15.2558 21.5205 16.443 21.1215C17.3025 20.8672 18.06 20.3445 18.603 19.629H18.6735C18.8025 18.9607 19.0215 18.2895 19.3418 17.6092C20.1428 16.4415 20.9625 15.3787 21.7635 14.148C22.8653 12.1087 23.6228 9.89775 24.0015 7.60875C23.5718 8.21025 22.56 8.7375 20.7518 9.14775L20.7503 9.1485Z" fill="black"/>
</g>
<defs>
<clipPath id="clip0_201_57424">
<rect width="24" height="24" fill="white"/>
</clipPath>
</defs>
</svg>
