<svg width="24" height="24" viewBox="0 0 24 24" fill="none" xmlns="http://www.w3.org/2000/svg">
<g clip-path="url(#clip0_201_57646)">
<path d="M12 12C12 6.66827 20.0002 6.66827 20.0002 12C20.0002 17.3318 12 17.3318 12 12ZM3.99974 20.0003C3.99974 17.7893 5.78849 16.0005 7.99949 16.0005H11.9992V20.0003C11.9992 25.332 3.99899 25.332 3.99899 20.0003H3.99974ZM12 1.75781e-05V8.00027H15.9997C21.3315 8.00027 21.3315 1.75781e-05 15.9997 1.75781e-05H12ZM3.99974 3.99977C3.99974 6.21077 5.78849 7.99952 7.99949 7.99952H11.9992V-0.000732422H7.99949C5.78849 -0.000732422 3.99974 1.78802 3.99974 3.99902V3.99977ZM3.99974 12C3.99974 14.211 5.78849 15.9998 7.99949 15.9998H11.9992V7.99952H7.99949C5.78849 7.99952 3.99974 9.78827 3.99974 11.9993V12Z" fill="black"/>
</g>
<defs>
<clipPath id="clip0_201_57646">
<rect width="24" height="24" fill="white"/>
</clipPath>
</defs>
</svg>
