<svg width="24" height="24" viewBox="0 0 24 24" fill="none" xmlns="http://www.w3.org/2000/svg">
<g clip-path="url(#clip0_201_57990)">
<path d="M12.0075 4.86749C9.09376 4.86749 6.63226 5.54699 5.01151 6.97724C4.96426 6.88724 4.92976 6.81299 4.87051 6.72299C4.70251 6.44924 4.54201 6.14099 4.04251 5.83199C3.73426 5.63699 3.39001 5.50349 3.03076 5.44499C2.87476 5.42924 2.71426 5.42924 2.55826 5.44499L2.65951 5.43299C1.74901 5.43299 1.21801 5.97599 0.870761 6.44849C0.527261 6.91724 0.304511 7.44449 0.159761 8.02274C-0.125239 9.17924 -0.128989 10.6747 0.972011 11.7922C1.54651 12.378 2.22226 12.6555 2.83501 12.8197C2.95201 12.8512 3.05776 12.8587 3.17101 12.882C3.56926 14.7727 4.74901 16.374 6.32701 17.2612V17.265C7.25701 17.7847 8.13976 18.0225 8.79976 18.2767C9.72526 18.636 10.7018 19.0267 11.8388 19.128L11.8973 19.1317H12.0458C13.3545 19.1317 14.343 18.6045 15.198 18.276C15.8543 18.0262 16.737 17.7952 17.6745 17.268C18.108 17.0257 18.5108 16.7287 18.87 16.389C19.8585 15.4635 20.5418 14.2597 20.8388 12.9397C21.675 12.8032 22.4445 12.4005 23.0303 11.7877C24.1283 10.6747 24.1238 9.17849 23.8388 8.02199C23.694 7.44374 23.4713 6.91649 23.1278 6.44774C22.7843 5.97524 22.2488 5.43224 21.339 5.43224L21.4403 5.44424C21.2843 5.42849 21.1238 5.42849 20.9678 5.44424C20.6085 5.50274 20.2643 5.63549 19.9598 5.83124C19.4595 6.13949 19.2998 6.44849 19.1318 6.71774C19.077 6.80774 19.0418 6.88199 18.9908 6.96749C17.3738 5.54174 14.9168 4.86599 12.006 4.86599L12.0075 4.86749ZM12.0315 6.23474C15.5903 6.23474 18.0435 7.30124 19.0898 9.20774C19.719 8.96549 20.1795 7.31699 20.6993 6.99674C21.1215 6.73874 21.363 6.80174 21.363 6.80174C22.3163 6.80174 23.2965 9.59849 22.0778 10.8367C21.4335 11.493 20.2455 11.6767 19.656 11.6295C19.6088 13.536 18.4995 15.2542 17.031 16.0785C16.281 16.5007 15.48 16.719 14.7338 17.004C13.812 17.3557 12.9488 17.766 12.0735 17.766H11.9798C11.109 17.6917 10.2413 17.3595 9.31951 17.004C8.57326 16.719 7.76851 16.4925 7.02226 16.074C5.56126 15.2497 4.45201 13.5307 4.40476 11.6287C3.81901 11.6797 2.61601 11.496 1.97101 10.836C0.752261 9.59774 1.73251 6.80099 2.68201 6.80099C2.68201 6.80099 2.92801 6.73874 3.34576 6.99599C3.86926 7.31624 4.33426 8.98049 4.96651 9.21074C6.00976 7.30049 8.46676 6.23399 12.0293 6.23399L12.0315 6.23474ZM8.15626 8.56649C6.44926 8.53499 5.04676 9.91049 5.04676 11.6175C5.04676 13.3282 6.44926 14.7037 8.15626 14.6722C12.1523 14.598 12.1523 8.63699 8.15626 8.56649ZM15.906 8.56649C11.8358 8.56649 11.8358 14.6722 15.906 14.6722C19.9763 14.6722 19.9763 8.56649 15.906 8.56649ZM8.58976 10.281C10.3515 10.3282 10.3515 12.945 8.58976 12.9922C7.70326 12.9922 7.05826 12.156 7.27726 11.301C7.51576 11.8792 8.37901 11.7112 8.37526 11.082C8.37526 10.7775 8.13676 10.5232 7.82851 10.512C8.05501 10.3597 8.32051 10.2772 8.59051 10.2817L8.58976 10.281ZM15.4808 10.281C17.2388 10.3282 17.2388 12.945 15.4808 12.9922C14.5943 12.9922 13.9455 12.156 14.1645 11.301C14.3363 11.715 14.8988 11.7817 15.1605 11.4105C15.4185 11.043 15.168 10.5352 14.7188 10.5157C14.9415 10.3597 15.207 10.281 15.4808 10.281ZM11.5193 14.9295C11.2808 14.949 11.1443 15.0742 11.1443 15.4057C11.1443 15.6165 11.2808 15.7687 11.5193 15.7687C11.691 15.7687 11.7188 15.5265 11.5545 15.4875C11.5313 15.4837 11.4255 15.4447 11.4255 15.351C11.4255 15.261 11.4255 15.2257 11.6055 15.2025C11.6835 15.1905 11.7225 15.0967 11.6993 15.0225C11.676 14.9482 11.6055 14.9212 11.5193 14.9287V14.9295ZM12.543 14.9295C12.4568 14.9257 12.387 14.949 12.363 15.0232C12.339 15.0975 12.3788 15.1912 12.4568 15.2032C12.6368 15.2265 12.6368 15.2617 12.6368 15.3517C12.6368 15.4455 12.531 15.4845 12.5078 15.4882C12.3435 15.5272 12.3713 15.7695 12.5393 15.7695C12.7815 15.7695 12.9218 15.6172 12.9218 15.4065C12.9218 15.0742 12.7808 14.9497 12.543 14.9302V14.9295Z" fill="black"/>
</g>
<defs>
<clipPath id="clip0_201_57990">
<rect width="24" height="24" fill="white"/>
</clipPath>
</defs>
</svg>
