<svg width="24" height="24" viewBox="0 0 24 24" fill="none" xmlns="http://www.w3.org/2000/svg">
<g clip-path="url(#clip0_201_58420)">
<path d="M23.664 21.5701C24.1133 20.8238 24.1133 20.0738 23.664 19.3283L13.941 2.43006C13.4963 1.68381 12.7463 1.38306 12 1.38306C11.2538 1.38306 10.5038 1.83231 10.059 2.43006L6.91425 7.96506L7.66425 8.40981C10.059 9.75756 12 11.6986 13.3485 14.0941C14.5433 16.1881 15.2895 18.4298 15.4418 20.8238H13.1955C13.0478 18.8791 12.4493 16.9336 11.4023 15.1411C10.3553 13.0471 8.71125 11.4023 6.61725 10.2031L5.86725 9.75831L2.87925 14.8441L3.6255 15.2888C5.57025 16.4836 6.91425 18.4298 7.21575 20.6761H2.2815C2.13375 20.6761 1.98075 20.5231 1.98075 20.5231C1.98075 20.5231 1.833 20.3753 1.98075 20.2268L3.3285 17.8321C2.87925 17.3873 2.2815 17.0858 1.6845 16.9381L0.336754 19.3283C-0.112496 20.0783 -0.112496 20.8246 0.336754 21.5746C0.786004 22.3208 1.38375 22.6178 2.27775 22.6178H9.15675V21.7238C9.15675 20.0791 8.712 18.5828 7.962 17.0866C7.36425 15.8918 6.46575 14.9926 5.42325 14.2463L6.47025 12.3016C7.8135 13.3486 9.0135 14.5433 9.9075 16.0396C10.9545 17.8328 11.4038 19.7776 11.4038 21.7238V22.6178H17.2358V21.7238C17.2358 18.7306 16.4858 15.7388 14.8418 13.0478C13.647 10.6531 11.7008 8.71206 9.459 7.21581L11.7008 3.32856C11.8538 3.18081 12.0015 3.18081 12.0015 3.18081C12.1493 3.18081 12.1493 3.18081 12.3023 3.32856L22.0215 20.2238C22.1693 20.3716 22.0215 20.5238 22.0215 20.5238C22.0215 20.5238 21.8723 20.6731 21.7208 20.6731H19.479V22.4701H21.7208C22.6185 22.6178 23.217 22.3171 23.6655 21.5708L23.664 21.5701Z" fill="black"/>
</g>
<defs>
<clipPath id="clip0_201_58420">
<rect width="24" height="24" fill="white"/>
</clipPath>
</defs>
</svg>
