<svg width="24" height="24" viewBox="0 0 24 24" fill="none" xmlns="http://www.w3.org/2000/svg">
<path d="M0.0472759 18.0196C0.117776 17.9026 0.231026 17.8943 0.395276 17.9963C4.02828 20.1098 7.98903 21.1643 12.2625 21.1643C15.114 21.1643 17.9303 20.6333 20.712 19.5706L21.0248 19.4296C21.1658 19.3673 21.2595 19.3283 21.318 19.3006C21.5445 19.2106 21.7088 19.2533 21.8453 19.4296C21.966 19.6013 21.9353 19.7656 21.7245 19.9103C21.4703 20.0978 21.123 20.3206 20.7203 20.5628C19.4745 21.3053 18.0795 21.8791 16.533 22.2893C15.006 22.6958 13.4903 22.8991 12.0173 22.8991C9.75153 22.8991 7.60728 22.5046 5.58378 21.7118C3.56403 20.9191 1.76328 19.8016 0.153776 18.3638C0.0525259 18.2896 0.00152588 18.2116 0.00152588 18.1411C0.00152588 18.0938 0.0210259 18.0511 0.0525259 18.0121L0.0472759 18.0196ZM6.60978 11.8006C6.60978 10.7963 6.85578 9.93756 7.35228 9.22656C7.84878 8.51556 8.52453 7.97631 9.39528 7.60956C10.188 7.27356 11.1495 7.03506 12.3053 6.89106C12.696 6.84381 13.3403 6.78531 14.2275 6.71556V6.34806C14.2275 5.41431 14.1218 4.78956 13.9268 4.47306C13.6223 4.03956 13.1453 3.82056 12.4853 3.82056H12.3053C11.8245 3.86781 11.4068 4.01556 11.0595 4.28181C10.7078 4.55106 10.4813 4.91106 10.3838 5.37981C10.3215 5.67681 10.1768 5.84481 9.94653 5.88756L7.42728 5.57106C7.18128 5.51256 7.05603 5.39106 7.05603 5.18406C7.05603 5.13681 7.06353 5.09406 7.07928 5.03181C7.32528 3.74256 7.93503 2.78181 8.89953 2.15256C9.87228 1.53531 10.9973 1.17606 12.2865 1.10181H12.8295C14.478 1.10181 15.7868 1.53531 16.716 2.39106C16.8525 2.54331 16.9853 2.69181 17.1225 2.87181C17.2395 3.03606 17.3453 3.18831 17.4038 3.32106C17.478 3.45756 17.556 3.65331 17.5988 3.89106C17.6573 4.14531 17.7045 4.31331 17.7353 4.40256C17.7623 4.50831 17.7975 4.70331 17.8095 5.01606C17.8215 5.32881 17.829 5.51181 17.829 5.57106V10.8526C17.829 11.2276 17.8913 11.5711 17.9933 11.8876C18.099 12.2003 18.204 12.4268 18.3098 12.5596L18.8213 13.2353C18.9113 13.3718 18.954 13.4896 18.954 13.5946C18.954 13.7153 18.8955 13.8211 18.774 13.9073C17.5748 14.9581 16.9148 15.5281 16.8128 15.6181C16.6485 15.7546 16.4378 15.7703 16.1835 15.6653C15.9885 15.4973 15.8085 15.3331 15.6563 15.1696L15.348 14.8216C15.2858 14.7473 15.18 14.6108 15.0278 14.3993L14.7308 13.9658C13.9185 14.8523 13.125 15.4073 12.3285 15.6301C11.8365 15.7823 11.235 15.8566 10.5 15.8566C9.39078 15.8566 8.46078 15.5168 7.73853 14.8253C7.02003 14.1338 6.66003 13.1573 6.66003 11.8838L6.60903 11.8096L6.60978 11.8006ZM10.3635 11.3633C10.3635 11.9296 10.5045 12.3826 10.7895 12.7268C11.0745 13.0666 11.4653 13.2383 11.9415 13.2383C11.9888 13.2383 12.051 13.2346 12.1365 13.2188C12.2265 13.2031 12.273 13.1956 12.3045 13.1956C12.918 13.0351 13.383 12.6451 13.7265 12.0196C13.8945 11.7383 14.0115 11.4376 14.0895 11.1091C14.1795 10.7888 14.2065 10.5196 14.2223 10.3081C14.238 10.1131 14.238 9.76881 14.238 9.30381V8.76456C13.398 8.76456 12.7538 8.82306 12.3158 8.94456C11.0423 9.30381 10.398 10.1123 10.398 11.3746L10.3628 11.3551L10.3635 11.3633ZM19.5233 18.3908C19.5548 18.3323 19.6013 18.2813 19.656 18.2228C20.019 17.9768 20.3708 17.8126 20.7068 17.7226C21.2573 17.5898 21.7965 17.4998 22.32 17.4803C22.461 17.4683 22.5975 17.4803 22.7303 17.5118C23.379 17.5703 23.7773 17.6798 23.9025 17.8403C23.9648 17.9303 23.9925 18.0706 23.9925 18.2311V18.3833C23.9925 18.8911 23.8515 19.4926 23.5748 20.1803C23.2973 20.8718 22.911 21.4306 22.4228 21.8603C22.3485 21.9226 22.2818 21.9503 22.2233 21.9503C22.1918 21.9503 22.1648 21.9503 22.1333 21.9383C22.0433 21.8956 22.0275 21.8213 22.071 21.6998C22.6103 20.4383 22.8758 19.5556 22.8758 19.0591C22.8758 18.9106 22.8443 18.7898 22.7895 18.7156C22.6448 18.5513 22.239 18.4576 21.5633 18.4576C21.321 18.4576 21.0323 18.4733 20.6963 18.5048C20.3333 18.5521 19.9928 18.5948 19.6965 18.6413C19.6065 18.6413 19.548 18.6256 19.5165 18.5941C19.485 18.5671 19.4775 18.5468 19.4933 18.5198C19.4933 18.5003 19.5008 18.4883 19.5165 18.4531V18.3946L19.5233 18.3908Z" fill="black"/>
</svg>
