<svg width="24" height="24" viewBox="0 0 24 24" fill="none" xmlns="http://www.w3.org/2000/svg">
<g clip-path="url(#clip0_201_58366)">
<path d="M10.2847 7.97701V4.03876C10.2847 3.90601 10.176 3.79651 10.0387 3.79651C9.9015 3.79651 9.7965 3.90526 9.7965 4.03876C9.80475 6.56551 8.80425 8.98801 7.01925 10.773L1.38225 16.4303C1.308 16.5083 1.2885 16.6253 1.3395 16.719C1.60125 17.2268 1.8975 17.715 2.22675 18.18C2.2695 18.2378 2.33175 18.2768 2.406 18.2813H2.42625C2.49225 18.2813 2.55525 18.258 2.598 18.2115L8.51625 12.2738C9.6525 11.1338 10.2892 9.58651 10.2855 7.97776L10.2847 7.97701ZM17.9963 0.777014C17.922 0.734264 17.8283 0.734264 17.754 0.777014C17.6798 0.824264 17.6332 0.902264 17.6332 0.992264V11.91C17.6332 13.5308 18.2625 15.0593 19.4062 16.2068L21.402 18.2145C21.4447 18.2573 21.5077 18.2843 21.5737 18.2843L21.5978 18.2805C21.6675 18.2768 21.7335 18.2378 21.777 18.1838C23.223 16.1445 24.0037 13.707 24 11.2065C23.9918 6.90976 21.7073 2.94451 17.9963 0.780764V0.777014ZM6.36675 4.03876V0.991514C6.36675 0.905264 6.3195 0.823514 6.246 0.776264C6.17175 0.733514 6.078 0.733514 6.00375 0.776264C2.29275 2.94001 0.0075 6.90901 0 11.202C0 11.5463 0.02025 11.913 0.05925 12.3233C0.066 12.4215 0.129 12.5033 0.219 12.534C0.24225 12.546 0.273 12.5498 0.30075 12.5498C0.363 12.5498 0.426 12.522 0.4725 12.4755L4.5975 8.33851C5.73375 7.19776 6.3705 5.65051 6.36675 4.04176V4.03876ZM16.98 18.6413C15.195 16.8555 14.1953 14.4345 14.2028 11.91V7.97701C14.2028 7.83976 14.094 7.72726 13.9605 7.72726C13.8232 7.73026 13.7145 7.84051 13.7145 7.97701C13.7145 10.5203 12.7268 12.9098 10.9373 14.7068L5.022 20.6445C4.92525 20.7375 4.92525 20.8943 5.022 20.9918C5.03025 21.0038 5.04225 21.012 5.05425 21.0195C7.07325 22.4723 9.507 23.2575 11.9992 23.2538C14.4915 23.2575 16.9215 22.473 18.9443 21.0195C19.0072 20.9768 19.0425 20.9138 19.0462 20.8395C19.0545 20.7698 19.026 20.6948 18.9765 20.6445L16.98 18.6413Z" fill="black"/>
</g>
<defs>
<clipPath id="clip0_201_58366">
<rect width="24" height="24" fill="white"/>
</clipPath>
</defs>
</svg>
