<svg width="24" height="24" viewBox="0 0 24 24" fill="none" xmlns="http://www.w3.org/2000/svg">
<path d="M22.6207 19.461C20.355 22.2893 16.9252 23.9378 13.3005 23.9415C9.6757 23.9378 6.24595 22.2893 3.9802 19.461C6.2497 16.6365 9.67945 14.9963 13.3005 15C17.058 15 20.4412 16.7618 22.6207 19.4805V19.461ZM10.32 12C10.32 10.4805 11.5702 9.01202 12.9412 9.01202H13.359C17.2695 9.01202 20.4607 7.25027 22.6477 4.53153C20.3662 1.70328 16.9327 0.0585254 13.2997 0.0510254C9.67495 0.0510254 6.2452 1.69953 3.97945 4.53153C2.2687 6.64502 1.34245 9.28127 1.3507 12C1.3507 13.9418 1.79995 15.762 2.63995 17.379C4.7062 15.09 7.4602 13.5278 10.488 12.93C10.398 12.6293 10.308 12.3008 10.308 12H10.32Z" fill="black"/>
</svg>
