<svg width="24" height="24" viewBox="0 0 24 24" fill="none" xmlns="http://www.w3.org/2000/svg">
<g clip-path="url(#clip0_201_57478)">
<path d="M11.9813 0.375C18.6278 0.375 23.625 5.53575 23.625 12C23.625 18.8955 18.0705 23.625 11.9813 23.625C5.7 23.625 0.375 18.492 0.375 12C0.375 5.7705 5.283 0.375 11.9813 0.375ZM12.0187 2.4705C6.4785 2.4705 2.4705 7.05975 2.4705 12C2.4705 17.1472 6.7455 21.5062 12.0187 21.5062C16.8562 21.5062 21.525 17.7045 21.525 12C21.5295 6.66525 17.2972 2.4705 12.0187 2.4705ZM16.7528 8.67675C17.1187 8.67675 17.3955 8.9625 17.3955 9.31875V17.8732C17.3955 18.234 17.1098 18.5153 16.7528 18.5153H10.4198C10.059 18.5153 9.77775 18.234 9.77775 17.8732V15.342H7.2465C6.8805 15.342 6.60375 15.0608 6.60375 14.7V6.1455C6.60375 5.76075 6.9135 5.55 7.185 5.50275H13.5787C13.9395 5.50275 14.2208 5.784 14.2208 6.1455V8.67675H16.7528ZM7.8705 14.0767H9.7785V9.32325C9.7785 8.97675 10.05 8.733 10.341 8.68125H12.9562V6.792H7.8705V14.0767ZM16.1295 9.9465H11.0438V17.2313H16.1295V9.9465Z" fill="black"/>
</g>
<defs>
<clipPath id="clip0_201_57478">
<rect width="24" height="24" fill="white"/>
</clipPath>
</defs>
</svg>
