<svg width="24" height="24" viewBox="0 0 24 24" fill="none" xmlns="http://www.w3.org/2000/svg">
<path d="M7.36272 6.027C3.95697 8.05875 1.81197 11.676 1.66797 15.6367C1.67172 18.7417 3.39522 21.594 6.14772 23.0385C8.89797 24.4837 12.2227 24.2805 14.7847 22.5195C17.3437 20.7577 18.7147 17.7187 18.3435 14.6325C17.9767 11.5462 15.9255 8.92125 13.0222 7.81125C12.0772 7.4295 11.0692 7.2375 10.0545 7.2495C8.24172 8.47275 6.78822 10.1512 5.84322 12.1207C7.04997 10.68 8.90922 9.957 10.7722 10.203C12.6405 10.449 14.2455 11.6287 15.0382 13.3357C15.831 15.039 15.6945 17.031 14.6835 18.6165C13.6672 20.1982 11.9137 21.1515 10.0342 21.1477C8.42097 21.1477 6.89022 20.445 5.84322 19.2187C4.48722 17.7067 3.90147 15.6517 4.25697 13.6515C5.33097 7.23374 13.0222 3.53475 18.7177 2.1015C16.0807 3.3705 13.542 4.8315 11.124 6.47625C18.0067 9.132 19.1122 3.339 22.3312 0.745495C19.128 -0.508505 7.37847 -0.969754 7.36197 6.03075L7.36272 6.027Z" fill="black"/>
</svg>
