<svg width="24" height="24" viewBox="0 0 24 24" fill="none" xmlns="http://www.w3.org/2000/svg">
<g clip-path="url(#clip0_201_58458)">
<path d="M7.73476 12.0038C8.50051 12.5273 9.39526 13.0118 10.4415 13.4453C12.2265 14.1878 13.4258 14.832 14.043 15.3825C14.6565 15.9293 14.973 16.6283 14.973 17.484C14.9655 18.9412 13.9493 19.6755 11.895 19.6755C9.91876 19.6755 8.14501 19.0462 6.57076 17.8005L4.69951 21.984C6.12151 22.746 7.27801 23.2418 8.172 23.4802L8.313 23.5155L6.51601 23.9295C5.24625 24.2227 3.97726 23.4255 3.68401 22.1603L0.0630048 6.50025C-0.230245 5.2305 0.563255 3.9615 1.83675 3.6645L6.2115 2.6565C6.051 2.8125 5.90326 2.973 5.76976 3.141L5.75026 3.1605C4.99651 4.11 4.61776 5.27775 4.61776 6.66825C4.61776 8.76975 5.649 10.5353 7.6995 11.9655L7.74226 11.9925L7.73476 12.0038ZM18.0938 12.0743C17.2538 11.4023 16.1873 10.8045 14.8515 10.2893C12.8708 9.504 11.5823 8.87925 10.9808 8.41425C10.383 7.94925 10.0665 7.434 10.0665 6.8595C10.0665 5.3985 10.9808 4.668 12.828 4.668C14.8673 4.668 16.4723 5.16375 17.613 6.14475L19.1288 2.06625C18.0308 1.5075 16.8945 1.1055 15.7223 0.847501L15.6638 0.835501C15.4058 0.773251 15.1365 0.714751 14.8515 0.671251L17.4765 0.066001C18.7538 -0.218999 20.0115 0.577501 20.3123 1.83975L23.9415 17.484C24.2265 18.7613 23.4338 20.0347 22.1603 20.3198L19.176 21.0112C19.9965 19.9605 20.418 18.6713 20.418 17.1405C20.418 15.5663 19.9808 14.2305 19.113 13.1213C18.828 12.7733 18.4958 12.4455 18.105 12.1132L18.0623 12.0863L18.0938 12.0743Z" fill="black"/>
</g>
<defs>
<clipPath id="clip0_201_58458">
<rect width="24" height="24" fill="white"/>
</clipPath>
</defs>
</svg>
