<svg width="24" height="24" viewBox="0 0 24 24" fill="none" xmlns="http://www.w3.org/2000/svg">
<path d="M18.324 9.13649L19.8825 10.695H22.437V13.2532L23.9993 14.8117V9.13574L18.324 9.13649ZM2.00025 9.51974L0 14.481H1.30875L1.68 13.4962H3.8985L4.30875 14.481H5.6445L3.4335 9.51974H2.00025ZM6.21075 9.51974V14.4765H7.44525V11.3827L8.78475 12.945H8.97225L10.3117 11.3902V14.4802H11.55V9.51899H10.4677L8.87775 11.3625L7.284 9.51899L6.21075 9.51974ZM12.492 9.51974V14.481H14.5507C16.527 14.481 17.43 13.434 17.43 12.0082C17.43 10.6485 16.4925 9.51974 14.6842 9.51974H12.492ZM13.7302 10.4295H14.5192C15.6915 10.4295 16.152 11.1405 16.152 12C16.152 12.7267 15.777 13.5705 14.535 13.5705H13.7302V10.4295ZM2.742 10.7032L3.53475 12.6367H2.00775L2.742 10.7032ZM19.8825 11.0115L18.2767 12.6127V14.8627H20.523L22.1287 13.257H19.8825V11.0115Z" fill="black"/>
</svg>
