<svg width="24" height="24" viewBox="0 0 24 24" fill="none" xmlns="http://www.w3.org/2000/svg">
<g clip-path="url(#clip0_201_58110)">
<path d="M0 24V0H24V24H0ZM16.3913 6.762L16.1603 6.789L15.9412 6.828L15.7305 6.891L15.5317 6.96075L15.3285 7.0305L15.1417 7.1205L14.9618 7.21875L14.79 7.3275L14.622 7.44825L14.4623 7.57725L14.31 7.71825L14.1727 7.8705L14.04 8.03025L13.911 8.19825L13.8022 8.37L13.692 8.55825L13.5907 8.7495L13.5007 8.96025L13.4227 8.7375L13.3207 8.5305L13.2195 8.32725L13.1025 8.1405L12.9697 7.96875L12.8287 7.809L12.681 7.65975L12.5317 7.5195L12.36 7.3905L12.192 7.28025L12.0007 7.1715L11.8207 7.07775L11.622 6.99975L11.4233 6.93L11.22 6.87075L11.013 6.81975L10.7902 6.78075L10.5712 6.762L10.353 6.738H9.92325L9.7125 6.762L9.51375 6.78075L9.3105 6.8085L9.12225 6.85875L8.94225 6.90975L8.763 6.969L8.57925 7.03875L8.42325 7.1205L8.2515 7.1985L8.10375 7.3005L7.95075 7.39725L7.8105 7.51125L7.67325 7.62825L7.5405 7.761L7.4235 7.89L7.30275 8.03025L7.1925 8.1795L7.09125 8.33925L7.00125 8.499V6.948H2.649V9.171H4.02075V15.03H2.649V17.2882H8.98125V15.03H7.00125V11.2177L7.01325 11.0107L7.04025 10.8075L7.071 10.6193L7.11 10.4392L7.161 10.26L7.22025 10.1003L7.29 9.939L7.37175 9.79875L7.46175 9.65775L7.5705 9.537L7.68075 9.42825L7.8015 9.32625L7.94175 9.23625L8.091 9.15825L8.23875 9.1005L8.4105 9.0495L8.6025 9.0105L8.78925 8.9865L9 8.97825H9.17175L9.32775 8.9985L9.4875 9.02925L9.6285 9.06825L9.7695 9.11925L9.89775 9.1785L10.02 9.24825L10.1287 9.33825L10.23 9.4395L10.3282 9.54975L10.41 9.6705L10.488 9.80775L10.551 9.9675L10.6088 10.1273L10.6597 10.3185L10.6988 10.5105L10.7295 10.7175L10.7618 10.9478L10.77 11.1975V17.2875H15.0697V15.0292H13.6987V11.4285L13.7108 11.2177L13.719 11.0107L13.7377 10.8075L13.7805 10.6193L13.8195 10.4392L13.8705 10.26L13.9298 10.1003L13.9995 9.939L14.0775 9.79875L14.1713 9.65775L14.2695 9.537L14.3903 9.42825L14.511 9.32625L14.6467 9.23625L14.7877 9.15825L14.9475 9.1005L15.1193 9.0495L15.3075 9.0105L15.4988 8.9865L15.7095 8.97825H15.8775L16.0373 8.9985L16.197 9.02925L16.338 9.06825L16.4783 9.11925L16.6073 9.1785L16.728 9.24825L16.8382 9.33825L16.9395 9.4395L17.0295 9.54975L17.1195 9.6705L17.1975 9.80775L17.2605 9.9675L17.3182 10.1273L17.3693 10.3185L17.4083 10.5105L17.439 10.7175L17.4667 10.9478L17.478 11.1975V17.2875H21.7792V15.0292H20.4083V10.3073L20.3962 9.94725L20.3573 9.6195L20.2995 9.29925L20.2178 8.9985L20.1195 8.71725L19.9988 8.45925L19.8577 8.217L19.698 7.986L19.5187 7.78725L19.3387 7.6005L19.128 7.43925L18.921 7.287L18.69 7.158L18.4478 7.03725L18.198 6.94725L17.9482 6.86925L17.679 6.807L17.421 6.768L17.1398 6.73575H16.62L16.3913 6.762Z" fill="black"/>
</g>
<defs>
<clipPath id="clip0_201_58110">
<rect width="24" height="24" fill="white"/>
</clipPath>
</defs>
</svg>
