<svg width="24" height="24" viewBox="0 0 24 24" fill="none" xmlns="http://www.w3.org/2000/svg">
<g clip-path="url(#clip0_201_58730)">
<path d="M23.5388 12.7462C22.9335 11.367 21.7808 10.2735 20.4488 9.59774C18.093 8.40599 15.1673 8.41049 12.8198 9.62924C11.187 10.4655 9.82726 11.9655 9.44101 13.7895C9.12076 15.1335 9.40576 16.5787 10.1205 17.7502C11.1833 19.512 13.101 20.637 15.093 20.9962C16.5345 21.2895 18.0263 21.117 19.4288 20.715C20.2725 21.039 21.0225 21.5662 21.8393 21.9607C21.6285 21.2535 21.402 20.5545 21.1598 19.8555C22.0778 19.2067 22.9058 18.3945 23.406 17.379C24.1485 15.9652 24.195 14.2072 23.5388 12.7462ZM13.617 3.28124C11.121 1.87874 8.01526 1.66799 5.33176 2.63699C3.56626 3.27374 1.97251 4.45349 0.984012 6.05924C0.0892619 7.50824 -0.246738 9.31724 0.186762 10.9732C0.616512 12.813 1.89751 14.3557 3.44851 15.387C3.14776 16.2382 2.86276 17.0865 2.59276 17.9415C3.56551 17.4337 4.54201 16.8982 5.51851 16.383C6.68626 16.758 7.93276 16.9417 9.17851 16.899C8.84626 15.9577 8.77201 14.934 8.92426 13.95C9.14701 12.579 9.89701 11.325 10.9163 10.395C12.6428 8.77799 15.0885 8.09774 17.412 8.26199C16.9748 6.12899 15.4748 4.32449 13.5878 3.28124H13.617ZM15.3518 13.2697C15.141 13.9222 14.1953 14.1172 13.7348 13.6215C13.2308 13.1647 13.4265 12.2032 14.0903 12.0007C14.8245 11.6925 15.672 12.5362 15.3518 13.2705V13.2697ZM20.1443 13.3635C19.89 13.9492 19.0035 14.0865 18.57 13.6327C18.3593 13.4415 18.3008 13.152 18.2265 12.9022C18.3278 12.4455 18.6443 11.9685 19.1565 11.949C19.86 11.8515 20.4923 12.7222 20.1293 13.3627L20.1443 13.3635ZM12.9885 6.91049C12.996 7.87124 11.715 8.46899 10.9965 7.81649C10.2465 7.28099 10.461 5.98049 11.3363 5.71124C12.1215 5.39849 13.0508 6.05474 12.9885 6.89849V6.91049ZM6.93001 7.15199C6.75826 7.98824 5.64076 8.39024 4.98451 7.83149C4.22701 7.29599 4.43776 5.96849 5.32801 5.69849C6.20326 5.36249 7.19551 6.24899 6.92926 7.15199H6.93001Z" fill="black"/>
</g>
<defs>
<clipPath id="clip0_201_58730">
<rect width="24" height="24" fill="white"/>
</clipPath>
</defs>
</svg>
