<svg width="24" height="24" viewBox="0 0 24 24" fill="none" xmlns="http://www.w3.org/2000/svg">
<g clip-path="url(#clip0_201_58126)">
<path d="M5.39101 0.00373706L10.1408 13.4647V13.4572L10.5158 14.5155C12.6053 20.4255 13.7265 23.5935 13.7303 23.5972C13.734 23.5972 14.0505 23.6167 14.4338 23.64C15.5903 23.6872 17.0235 23.82 18.1095 23.9482C18.3593 23.9797 18.5745 23.9872 18.5903 23.9797L13.446 9.38999L11.0205 2.53874C10.5638 1.23824 10.173 0.132737 10.1535 0.0892371L10.122 -0.000762939H5.39551L5.39101 0.00373706ZM13.8983 0.0119871L13.8863 5.31674L13.8788 10.6252L13.4415 9.39074L12.879 21.1995C13.434 22.7662 13.7303 23.6017 13.7348 23.6055C13.7393 23.6092 14.055 23.6325 14.4338 23.6482C15.594 23.6992 17.0235 23.8282 18.1133 23.961C18.363 23.988 18.582 24 18.594 23.988C18.6098 23.9805 18.6135 18.57 18.6135 11.9805L18.606 0.0119871H13.8983ZM5.39101 0.00373706V11.9917C5.39101 18.5857 5.39851 23.988 5.40676 23.9955C5.41501 24.003 5.82076 23.964 6.31276 23.9092C6.80101 23.847 7.48051 23.7765 7.82026 23.7487C8.34001 23.6977 9.89026 23.5965 10.0703 23.5965C10.1213 23.5965 10.125 23.3272 10.1325 18.5182L10.14 13.4362L10.5188 14.499L10.6515 14.874L11.2215 3.07349L11.0303 2.52674L10.1198 0.00298706L5.39101 0.00373706Z" fill="black"/>
</g>
<defs>
<clipPath id="clip0_201_58126">
<rect width="24" height="24" fill="white"/>
</clipPath>
</defs>
</svg>
