<svg width="24" height="24" viewBox="0 0 24 24" fill="none" xmlns="http://www.w3.org/2000/svg">
<g clip-path="url(#clip0_201_58050)">
<path d="M12.0818 -0.000249451C7.04701 -0.0354994 2.34001 3.125 0.636763 8.1515C-1.48799 14.4298 1.87876 21.2375 8.15176 23.3622C14.43 25.487 21.2378 22.1202 23.3625 15.8472C25.0898 10.745 23.1908 5.29625 19.0508 2.288L19.1798 4.835C21.2415 7.11575 22.059 10.3467 21.0308 13.3857C19.4955 17.9165 14.4375 20.3 9.72976 18.7055C5.02276 17.1117 2.44876 12.1467 3.98401 7.6115C5.01601 4.56875 7.64101 2.4905 10.68 1.94375L12.3203 0.00275055C12.2423 -0.00099945 12.1605 -0.000999451 12.078 -0.000999451L12.0818 -0.000249451ZM15.609 1.094C15.5663 1.094 15.5228 1.10225 15.4838 1.11725H15.48C15.441 1.1375 15.402 1.16 15.3713 1.1915C15.2273 1.3325 14.715 2.02025 14.715 2.02025L13.602 3.398L12.3008 4.98425L10.0658 7.76225C10.0658 7.76225 9.04276 9.0395 9.27001 10.613C9.49576 12.188 10.6643 12.953 11.574 13.262C12.48 13.5657 13.875 13.6677 15.012 12.5547C16.1483 11.4447 16.1093 9.8045 16.1093 9.8045L16.023 6.24575L15.9533 4.1945L15.906 2.4215C15.906 2.4215 15.9143 1.56575 15.8873 1.3625C15.879 1.32725 15.867 1.28825 15.852 1.2575L15.8438 1.2455L15.84 1.2335C15.789 1.15175 15.7028 1.09775 15.609 1.09325V1.094Z" fill="black"/>
</g>
<defs>
<clipPath id="clip0_201_58050">
<rect width="24" height="24" fill="white"/>
</clipPath>
</defs>
</svg>
