<svg width="24" height="24" viewBox="0 0 24 24" fill="none" xmlns="http://www.w3.org/2000/svg">
<g clip-path="url(#clip0_201_58588)">
<path d="M2.43 9.88645H0V7.66345H7.5315V9.88645H5.1015V16.3357H2.42925L2.43 9.88645ZM7.9455 7.6642H15.2543V9.8872H10.6178V10.9695H15.2543V13.032H10.6178V14.1142H15.2543V16.3372H7.9455V7.6642ZM18.375 14.1172H19.422C21.0863 14.1172 21.3285 12.7657 21.3285 11.949C21.3285 11.406 21.1485 9.88645 19.215 9.88645H18.3592V14.1172H18.375ZM15.7035 7.6642H20.0903C22.9808 7.6642 24.0007 9.80095 24.0007 11.9842C24.0007 14.6445 22.5907 16.3357 19.5675 16.3357H15.7042L15.7035 7.6642Z" fill="black"/>
</g>
<defs>
<clipPath id="clip0_201_58588">
<rect width="24" height="24" fill="white"/>
</clipPath>
</defs>
</svg>
