<svg width="24" height="24" viewBox="0 0 24 24" fill="none" xmlns="http://www.w3.org/2000/svg">
<g clip-path="url(#clip0_201_58556)">
<path d="M12 20.9138H21.5235C22.1213 20.9138 22.617 20.5778 22.617 20.1638V18.246C22.3673 18.4958 21.9728 18.6525 21.5235 18.6525H2.48027C2.03477 18.6525 1.63652 18.4965 1.38227 18.246V20.1638C1.38227 20.574 1.87427 20.9138 2.48027 20.9138H12ZM12 22.3673H22.4415C23.301 22.3673 24 21.8513 24 21.2228C24 21.1718 23.9925 21.1215 23.9843 21.0743L22.3785 4.0628C22.3275 3.66455 22.023 3.34805 21.6833 3.21905L22.8983 17.6213V20.1645C22.8983 20.7345 22.2848 21.1995 21.519 21.1995H2.48027C1.72277 21.1995 1.10102 20.7308 1.10102 20.1645V17.6213L2.31602 3.21905C1.97627 3.3518 1.67177 3.6683 1.62077 4.0628L0.0150176 21.0668C0.00301758 21.1178 -0.000732422 21.1643 -0.000732422 21.219C-0.000732422 21.8483 0.694517 22.3673 1.55402 22.3673H12ZM21.3825 2.9648L21.3555 2.6483C21.3555 2.6288 21.3555 2.61305 21.3518 2.5898L21.3443 2.5193C21.282 2.0153 20.868 1.6283 20.262 1.6283H3.73502C3.13352 1.6283 2.71952 2.0108 2.65652 2.5148L2.65277 2.58905L2.64902 2.64755L2.61752 2.96405L1.39127 17.6243C1.39127 18.0345 1.87952 18.3743 2.48102 18.3743H21.528C22.1295 18.3743 22.6178 18.0345 22.6215 17.6243L21.3825 2.9648ZM15.6953 12.2693C15.4298 12.9683 14.82 13.4685 14.1525 13.7693C13.4258 14.1053 12.6173 14.2343 11.8208 14.2455C10.977 14.2575 10.1258 14.1713 9.30527 13.9763C8.88752 13.8825 8.45777 13.7693 8.06327 13.5975C7.70777 13.4415 7.41902 13.0898 7.42652 12.6915C7.43402 12.2895 7.72352 11.949 8.09477 11.805C8.48177 11.649 8.85227 11.715 9.23177 11.8478C10.0718 12.141 10.962 12.2618 11.853 12.2303C12.357 12.2145 13.2398 11.9453 13.0988 11.1638C13.0673 10.9883 12.9308 10.746 12.7553 10.5818C12.6143 10.4453 12.3255 10.3125 12.138 10.2615C11.724 10.1483 11.298 10.0665 10.8803 9.9728C10.0328 9.78905 9.58352 9.6488 8.83352 9.1913C8.17352 8.80055 8.02877 8.54705 7.92752 7.95305C7.79477 7.1798 8.17352 6.56255 8.79827 6.0938C10.1925 5.03555 11.529 5.07005 13.1775 5.3708C13.584 5.4488 14.0685 5.51555 14.4233 5.73005C14.7713 5.9408 14.97 6.3668 14.8178 6.76505C14.6768 7.14005 14.3175 7.1948 13.9313 7.1558C13.5173 7.10855 13.3455 6.9998 12.9548 6.92555C12.1305 6.77705 11.8298 6.6518 11.037 6.87455C10.7243 6.96455 10.299 7.2653 10.4588 7.65605C10.5915 7.98455 11.088 8.08955 11.3843 8.16755C12.1965 8.38655 12.8333 8.6363 13.6418 8.8748C14.3993 9.0938 14.9738 9.5153 15.4463 10.1835C15.8685 10.7775 15.9578 11.5973 15.7043 12.2775L15.6953 12.2693Z" fill="black"/>
</g>
<defs>
<clipPath id="clip0_201_58556">
<rect width="24" height="24" fill="white"/>
</clipPath>
</defs>
</svg>
