<svg width="24" height="24" viewBox="0 0 24 24" fill="none" xmlns="http://www.w3.org/2000/svg">
<g clip-path="url(#clip0_201_57380)">
<path d="M20.7893 3.83179C20.688 3.72604 20.5898 3.61729 20.4885 3.51529C20.3828 3.40954 20.2778 3.31204 20.1683 3.21454C17.9535 1.14004 15.0315 -0.00820585 12 4.41496e-05C8.81627 -0.00745585 5.76152 1.25779 3.51527 3.51604C-1.06273 8.09029 -1.16023 15.4695 3.21452 20.1683C3.31202 20.2778 3.40952 20.3828 3.51152 20.4885C3.61727 20.5898 3.72227 20.688 3.82802 20.7893C6.04652 22.8593 8.96852 24.0083 12 24C15.207 24 18.219 22.7543 20.4885 20.4885C25.0628 15.9105 25.1603 8.53129 20.7893 3.83254V3.83179ZM4.13252 4.13254C6.21452 2.03854 9.04652 0.867044 12 0.874544C14.8245 0.874544 17.4885 1.92154 19.551 3.83179L18.5513 4.83604C16.7625 3.19504 14.4263 2.28529 12.0008 2.29279C9.42227 2.28529 6.95402 3.30829 5.13752 5.13679C3.30902 6.95329 2.28602 9.42604 2.29352 12C2.29352 14.4495 3.19202 16.7543 4.83677 18.5505L3.83252 19.5503C-0.198732 15.1905 -0.101232 8.36704 4.13327 4.13254H4.13252ZM17.9295 5.44954V5.45329L16.914 6.46879C15.5663 5.25379 13.8128 4.58629 12 4.59004C10.035 4.58254 8.14877 5.36704 6.76202 6.76204C5.36777 8.14504 4.58627 10.0358 4.59002 12C4.58627 13.8128 5.25377 15.5625 6.46502 16.914L5.45327 17.9295C3.97652 16.3088 3.16052 14.1915 3.16802 12C3.16052 9.65629 4.09352 7.40629 5.75402 5.75404C7.40627 4.09354 9.65627 3.16054 12 3.16804C14.2148 3.16804 16.3005 3.97654 17.9295 5.44954ZM18.5355 12C18.5355 13.746 17.856 15.387 16.6215 16.6208C15.387 17.8545 13.7468 18.5385 12.0008 18.5385C10.419 18.5385 8.89127 17.9603 7.70402 16.9178V16.914C7.59452 16.8203 7.48502 16.7265 7.38002 16.6208C7.27877 16.515 7.18052 16.4063 7.08677 16.2968C6.03977 15.1095 5.46152 13.5818 5.46602 12C5.46602 10.254 6.14552 8.61304 7.38002 7.37929C8.60252 6.14854 10.2668 5.46154 12.0008 5.46529C13.5983 5.46529 15.1065 6.03979 16.2975 7.08604C16.407 7.17979 16.5203 7.27354 16.6215 7.37929C16.7273 7.48504 16.821 7.59379 16.9148 7.70329C17.9618 8.89054 18.54 10.4183 18.5355 12ZM7.08602 17.535C8.43377 18.7463 10.1873 19.4138 12 19.4138C13.9688 19.4175 15.8558 18.6368 17.238 17.238C18.6323 15.8513 19.4175 13.9643 19.41 12C19.4138 10.1873 18.7463 8.43754 17.535 7.08604L18.5505 6.07054C20.0235 7.69129 20.8395 9.80854 20.8358 12C20.8395 14.3438 19.9103 16.5938 18.246 18.246C16.5938 19.9103 14.3438 20.8395 12 20.8358C9.80852 20.8395 7.69127 20.0235 6.07052 18.5505L7.08602 17.535ZM19.8675 19.8675C17.7855 21.9615 14.9535 23.133 12 23.1255C9.19952 23.133 6.50027 22.0748 4.44902 20.1683L5.45327 19.1685C7.23827 20.8095 9.57827 21.7155 12.0038 21.7118C14.5778 21.7155 17.0505 20.6925 18.867 18.864C20.691 17.0475 21.7185 14.5748 21.711 12.0008C21.7148 9.57529 20.8088 7.23904 19.1678 5.45404L20.1675 4.44979C24.1988 8.80954 24.1013 15.633 19.8668 19.8675H19.8675Z" fill="black"/>
</g>
<defs>
<clipPath id="clip0_201_57380">
<rect width="24" height="24" fill="white"/>
</clipPath>
</defs>
</svg>
