<svg width="24" height="24" viewBox="0 0 24 24" fill="none" xmlns="http://www.w3.org/2000/svg">
<path d="M23.6387 8.76564C23.6579 8.76564 23.6867 8.76564 23.6963 8.73684C23.7059 8.72724 23.7059 8.71764 23.7059 8.70804C23.7059 8.68895 23.6963 8.66964 23.6771 8.66004C23.6579 8.65044 23.6387 8.65044 23.6099 8.65044H23.5907V8.75594H23.6387V8.76564ZM23.6099 8.60255C23.6579 8.60255 23.6867 8.60255 23.7059 8.61215C23.773 8.63135 23.773 8.69844 23.773 8.71764C23.773 8.72724 23.773 8.73684 23.773 8.74634C23.773 8.76564 23.7634 8.79434 23.725 8.81354C23.725 8.81354 23.7154 8.82314 23.7059 8.82314L23.7922 8.97653H23.7059L23.6387 8.83264H23.5907V8.97653H23.5142V8.60255H23.6099ZM23.6387 9.13003C23.8209 9.13003 23.9744 8.98613 23.9744 8.79434C23.9744 8.60255 23.8305 8.45865 23.6387 8.45865C23.4566 8.45865 23.3031 8.61215 23.3031 8.79434C23.3031 8.97653 23.4566 9.13003 23.6387 9.13003ZM23.3799 8.79434C23.3799 8.65044 23.4949 8.53545 23.6483 8.53545C23.7922 8.53545 23.9072 8.65044 23.9072 8.79434C23.9072 8.93824 23.7922 9.05333 23.6483 9.05333C23.4949 9.06293 23.3799 8.93824 23.3799 8.79434ZM21.0496 10.9328C20.6084 10.9328 20.2344 10.6356 20.1194 10.2328H22.5647L22.9004 9.7054H20.1194C20.2344 9.30262 20.6084 9.00533 21.0496 9.00533H22.7278L23.0634 8.47785H21.0112C20.1864 8.47785 19.5247 9.14923 19.5247 9.96429C19.5247 10.7891 20.196 11.4507 21.0112 11.4507H22.7758L23.1113 10.9233H21.0496V10.9328ZM14.049 11.4507H15.8231L16.1587 10.9233H14.097C13.5599 10.9233 13.1283 10.4918 13.1283 9.96429C13.1283 9.42731 13.5599 9.00533 14.097 9.00533H15.7752L16.1109 8.47785H14.0587C13.2338 8.47785 12.5626 9.14923 12.5626 9.96429C12.5626 10.7891 13.2338 11.4507 14.049 11.4507ZM3.18376 10.9328H1.52473C0.997357 10.9328 0.565774 10.5014 0.565774 9.97389C0.565774 9.43691 0.997357 9.01493 1.52473 9.01493H3.17416C3.71113 9.01493 4.14271 9.44641 4.14271 9.97389C4.14271 10.5014 3.71113 10.9328 3.18376 10.9328ZM1.48633 11.4507H3.21256C4.03722 11.4507 4.69889 10.7891 4.69889 9.96429C4.69889 9.13963 4.03722 8.47785 3.21256 8.47785H1.48633C0.67127 8.47785 0 9.14923 0 9.96429C0 10.7891 0.67127 11.4507 1.48633 11.4507ZM7.51836 10.4918C8.07454 10.4918 8.52522 10.0411 8.52522 9.48481C8.52522 8.92853 8.07454 8.47785 7.51836 8.47785H5.01537V11.4507H5.59085V9.00533H7.48007C7.74856 9.00533 7.95944 9.21632 7.95944 9.48481C7.95944 9.7534 7.74856 9.96429 7.48007 9.96429H5.86883L7.57596 11.4507H8.41023L7.25937 10.4822H7.51836V10.4918ZM16.9834 10.9328V8.47785H16.4081V11.1726C16.4081 11.2493 16.437 11.3164 16.4944 11.374C16.5519 11.4316 16.6286 11.4603 16.7054 11.4603H19.3138L19.6494 10.9328H16.9834ZM9.98296 10.4055H11.5077L10.7022 9.10123L9.21569 11.4507H8.53482L10.3377 8.63135C10.4144 8.51625 10.5487 8.44916 10.6926 8.44916C10.8364 8.44916 10.9611 8.51625 11.0378 8.63135L12.8502 11.4603H12.1791L11.8626 10.9328H10.3186L9.98296 10.4055Z" fill="black"/>
<path d="M0.278198 13.2442H1.0357L1.95595 15.1717V13.2442H2.4457V15.699H1.7257L0.776948 13.656V15.6892H0.278198V13.2442Z" fill="black"/>
<path d="M3.00153 13.2442H4.64178V13.647H3.52878V14.232H4.57428V14.6347H3.52878V15.2962H4.68003V15.699H3.00153V13.2442Z" fill="black"/>
<path d="M5.69622 13.647H4.96722V13.2442H6.96222V13.647H6.23322V15.699H5.70597V13.647H5.69622Z" fill="black"/>
<path d="M7.59502 14.9798C7.60462 15.1523 7.62382 15.4688 8.18949 15.4688C8.69776 15.4688 8.76496 15.1523 8.76496 15.0278C8.76496 14.7497 8.54448 14.7017 8.19919 14.6154C7.8251 14.5195 7.66222 14.4811 7.53742 14.3948C7.33613 14.2605 7.27853 14.0783 7.27853 13.9153C7.27853 13.4166 7.74851 13.1961 8.20879 13.1961C8.37178 13.1961 8.69776 13.2248 8.89926 13.4358C9.03345 13.5893 9.04305 13.7523 9.05265 13.8578H8.69776C8.67867 13.5508 8.41968 13.4837 8.17999 13.4837C7.84441 13.4837 7.63331 13.6372 7.63331 13.8769C7.63331 14.0975 7.77721 14.1646 8.0745 14.2414C8.65947 14.3948 8.72667 14.4044 8.87046 14.5003C9.10065 14.6538 9.11025 14.8839 9.11025 14.9894C9.11025 15.4208 8.77456 15.7565 8.14159 15.7565C7.9594 15.7565 7.57592 15.7278 7.38413 15.4784C7.24023 15.2962 7.24023 15.1044 7.24023 14.9798H7.59502Z" fill="#1A1919"/>
<path d="M9.99252 13.244V14.7592C9.99252 15.0182 10.05 15.1332 10.0979 15.2004C10.2514 15.4018 10.4911 15.4401 10.6542 15.4401C11.3159 15.4401 11.3159 14.9223 11.3159 14.7401V13.244H11.6418V14.7592C11.6418 14.8935 11.6418 15.162 11.4406 15.4112C11.2008 15.7182 10.8268 15.7469 10.6446 15.7469C10.4144 15.7469 10.0021 15.6798 9.78153 15.3539C9.70483 15.2483 9.63763 15.1045 9.63763 14.7401V13.244H9.99252Z" fill="black"/>
<path d="M12.3517 15.699H12.687V13.2442H12.3517V15.699Z" fill="black"/>
<path d="M14.0107 15.699V13.5315H13.1857V13.2442H15.1612V13.5315H14.337V15.699H14.0107Z" fill="black"/>
<path d="M15.5738 13.2442H17.1083V13.5315H15.9098V14.2987H17.0505V14.5867H15.9098V15.402H17.1368V15.699H15.5738V13.2442Z" fill="black"/>
</svg>
