<svg width="24" height="24" viewBox="0 0 24 24" fill="none" xmlns="http://www.w3.org/2000/svg">
<g clip-path="url(#clip0_201_58532)">
<path d="M20.9797 7.24579C20.016 6.28054 18.8587 5.53054 17.5815 5.04304C18.3045 2.92579 20.8582 2.15179 20.8582 2.15179C16.956 0.292541 12.585 -0.359209 8.30848 0.288791C6.01948 0.741791 3.95623 1.97254 2.46823 3.76954C0.862479 5.61229 0.0652295 8.02654 0.248979 10.4685C0.437229 12.9053 1.59298 15.1718 3.45973 16.7535C4.05748 17.2658 5.39398 18.0585 5.41648 18.1013C4.53748 20.3273 1.73623 20.937 1.73623 20.937C4.40848 22.4723 7.35748 23.4638 10.4122 23.8508C11.7952 24.0255 13.197 24.0458 14.5845 23.901C16.9905 23.616 19.2285 22.5188 20.9242 20.7803C22.7362 18.999 23.7645 16.569 23.775 14.0265C23.787 11.4833 22.779 9.04279 20.982 7.24579H20.9797ZM19.2772 19.305C17.871 20.637 16.0665 21.4733 14.1412 21.684C12.957 21.8093 11.766 21.8048 10.5862 21.6683C9.13723 21.4695 7.71523 21.0825 6.36748 20.5163C7.01248 19.914 7.52323 19.1843 7.86748 18.3713C8.03173 17.9453 8.01223 17.4735 7.81648 17.0625C6.49648 14.3445 7.07473 11.0865 9.24223 8.98429C12.078 6.23854 16.5945 6.26254 19.4025 9.04354C22.1647 11.9265 22.1092 16.4888 19.2772 19.3058V19.305Z" fill="black"/>
</g>
<defs>
<clipPath id="clip0_201_58532">
<rect width="24" height="24" fill="white"/>
</clipPath>
</defs>
</svg>
