<svg width="24" height="24" viewBox="0 0 24 24" fill="none" xmlns="http://www.w3.org/2000/svg">
<g clip-path="url(#clip0_201_57758)">
<path d="M22.6988 4.30123C21.1988 2.80123 18.8978 2.80123 17.3978 4.19923C17.301 4.30123 17.301 4.39798 17.301 4.49998C17.301 4.60198 17.301 4.69873 17.3978 4.80073L17.898 5.30098C18 5.39773 18.1988 5.39773 18.3983 5.30098C18.801 5.00023 19.1993 4.89823 19.6995 4.89823C20.8988 4.89823 21.8985 5.89798 21.8985 7.10248C21.8985 7.69948 21.6998 8.19973 21.3015 8.60248C18.3015 11.6025 14.1998 3.19948 5.10228 7.50073C4.50003 7.80148 4.19928 8.50048 4.50003 9.10273V9.19948L6.00003 11.8987C6.30078 12.501 7.10178 12.6997 7.69878 12.399L8.39778 12.0007C9.19878 11.5005 9.89778 11.001 10.602 10.3987C10.6988 10.302 11.0003 10.302 11.1023 10.3987C11.301 10.5007 11.301 10.6995 11.199 10.899L11.1023 11.001C10.398 11.6032 9.60228 12.2002 8.80128 12.6997L8.10228 13.0005C7.80153 13.1992 7.50003 13.3012 7.10253 13.3012C6.39828 13.3012 5.69928 12.8985 5.39853 12.3015L3.89853 9.69973C1.10253 11.7 -0.698221 15.603 0.301529 20.5005C0.301529 20.6992 0.500279 20.8012 0.699779 20.8012H2.39853C2.60253 20.8012 2.69928 20.6992 2.80128 20.5005C3.00003 19.1025 4.19928 18.1995 5.60253 18.3982C6.69978 18.5002 7.60278 19.398 7.69953 20.5005C7.69953 20.6992 7.89828 20.8012 8.10228 20.8012H9.69903C9.89778 20.8012 9.99978 20.6992 10.1018 20.5005C10.3005 19.1025 11.4998 18.1995 12.8978 18.3982C13.9995 18.5002 14.898 19.398 15 20.5005C15 20.6992 15.1988 20.8012 15.3983 20.8012H17.0003C17.199 20.8012 17.3985 20.6025 17.3985 20.3985C17.3985 18.1027 18.1028 15.5002 19.8015 14.1997C25.6995 9.60298 24.1028 5.69998 22.6995 4.30198L22.6988 4.30123ZM16.5 11.199L15.3008 10.602C15.3008 10.1992 15.6015 9.89773 15.9998 9.89773C16.398 9.89773 16.6988 10.1985 16.6988 10.602C16.8008 10.8982 16.6988 11.1022 16.5 11.199Z" fill="black"/>
</g>
<defs>
<clipPath id="clip0_201_57758">
<rect width="24" height="24" fill="white"/>
</clipPath>
</defs>
</svg>
