<svg width="24" height="24" viewBox="0 0 24 24" fill="none" xmlns="http://www.w3.org/2000/svg">
<g clip-path="url(#clip0_201_57410)">
<path d="M8.48778 24.0001C6.94878 23.3198 5.90178 21.8551 5.76603 20.1758C5.85528 18.4486 6.77028 16.8706 8.21927 15.9301C7.98002 16.5121 8.03553 17.1721 8.36703 17.6993C8.74203 18.2273 9.39078 18.4771 10.023 18.3481C10.926 18.0938 11.4533 17.1563 11.199 16.2541C11.109 15.9383 10.9298 15.6518 10.6838 15.4381C9.66003 14.6048 9.14778 13.3051 9.33153 12.0001C9.50778 11.3093 9.89028 10.6883 10.4295 10.2151C10.0223 11.2973 11.1638 12.3593 11.9333 12.8873C13.2923 13.6996 14.601 14.5981 15.8543 15.5701C17.226 16.6523 17.9723 18.3398 17.8545 20.0701C17.5463 21.9098 16.2458 23.4301 14.4728 24.0001C18.0195 23.2111 21.6795 20.3911 21.75 16.3913C21.6803 13.1911 19.77 10.3201 16.8518 9.01205H16.7228C16.785 9.16805 16.8158 9.33605 16.812 9.5078C16.8203 9.39755 16.8203 9.28505 16.812 9.17555C16.8278 9.3083 16.8278 9.4373 16.812 9.56555C16.59 10.4768 15.672 11.0348 14.7578 10.8158C14.3948 10.7266 14.07 10.5196 13.836 10.2271C12.6638 8.72705 13.836 7.02005 14.031 5.36705C14.1518 3.25805 13.188 1.24205 11.4773 0.00830078C12.3323 1.43405 11.1915 3.30905 10.3635 4.37555C9.53553 5.44205 8.33628 6.2348 7.35528 7.1648C6.30153 8.1458 5.33628 9.22355 4.46928 10.3756C2.59428 12.6646 1.85928 15.6848 2.46903 18.5783C3.30528 21.3676 5.62503 23.4653 8.48403 24.0083H8.49978L8.48778 24.0001Z" fill="black"/>
</g>
<defs>
<clipPath id="clip0_201_57410">
<rect width="24" height="24" fill="white"/>
</clipPath>
</defs>
</svg>
