<svg width="24" height="24" viewBox="0 0 24 24" fill="none" xmlns="http://www.w3.org/2000/svg">
<g clip-path="url(#clip0_201_58258)">
<path d="M8.98423 2.59804V20.145L12.8985 21.4058V6.68779C12.8985 5.99554 13.2037 5.53504 13.6957 5.69479C14.3287 5.87854 14.454 6.51154 14.454 7.20304V13.0778C16.896 14.2695 18.8167 13.074 18.8167 9.92554C18.8167 6.68779 17.6917 5.24929 14.3797 4.09729C13.071 3.64729 10.6485 2.90929 8.98873 2.59729L8.98423 2.59804ZM13.641 18.84L19.938 16.5623C20.652 16.305 20.7622 15.9383 20.184 15.7463C19.5982 15.555 18.5467 15.6053 17.8237 15.867L13.6207 17.367V14.9798L13.8585 14.898C13.8585 14.898 15.0615 14.4773 16.7722 14.2808C18.468 14.1015 20.5582 14.3115 22.2105 14.9408C24.0585 15.543 24.2535 16.4138 23.7847 17.016C23.3197 17.613 22.164 18.051 22.164 18.051L13.6207 21.156V18.8588L13.641 18.84ZM1.80898 18.6023C-0.0937673 18.0555 -0.405767 16.9343 0.456733 16.2773C1.25773 15.6953 2.61298 15.2273 2.61298 15.2273L8.22973 13.215V15.5273L4.20673 17.0003C3.49948 17.2703 3.38248 17.6333 3.96898 17.8245C4.55473 18.0203 5.60473 17.9775 6.30898 17.7075L8.24623 17.0003V19.074C8.12923 19.1018 7.99198 19.1168 7.85548 19.1483C5.91823 19.4775 3.86323 19.344 1.82023 18.6683L1.80898 18.6023Z" fill="black"/>
</g>
<defs>
<clipPath id="clip0_201_58258">
<rect width="24" height="24" fill="white"/>
</clipPath>
</defs>
</svg>
