<svg width="24" height="24" viewBox="0 0 24 24" fill="none" xmlns="http://www.w3.org/2000/svg">
<path d="M1.81272 10.7145C1.76547 10.7145 1.75422 10.6913 1.77747 10.656L2.02347 10.3395C2.04672 10.3043 2.10147 10.281 2.14872 10.281H6.32097C6.36822 10.281 6.37947 10.3163 6.35622 10.3515L6.15672 10.656C6.13722 10.6913 6.07497 10.7265 6.03972 10.7265L1.81272 10.7145ZM0.0472193 11.7893C-3.07504e-05 11.7893 -0.0112807 11.766 0.0119693 11.7308L0.257969 11.4143C0.281219 11.3828 0.339719 11.3595 0.386969 11.3595H5.71497C5.76222 11.3595 5.78547 11.3948 5.77347 11.43L5.67972 11.7075C5.66772 11.7548 5.62122 11.778 5.57397 11.778L0.0472193 11.7893ZM2.87472 12.8633C2.82747 12.8633 2.81622 12.828 2.83947 12.7965L3.00372 12.5033C3.02697 12.468 3.07422 12.4328 3.12072 12.4328H5.45697C5.50422 12.4328 5.52747 12.468 5.52747 12.5145L5.50422 12.7958C5.50422 12.843 5.45697 12.8775 5.42247 12.8775L2.87472 12.8633ZM15.0037 10.5038C14.2695 10.6913 13.7655 10.8323 13.0387 11.0198C12.8632 11.067 12.855 11.0783 12.699 10.9028C12.5272 10.7033 12.3982 10.5743 12.1522 10.4573C11.4142 10.098 10.7032 10.1993 10.0387 10.6328C9.24147 11.1488 8.83572 11.9063 8.84697 12.8513C8.85447 13.7888 9.49947 14.5583 10.4212 14.6873C11.2185 14.793 11.8822 14.5118 12.4095 13.9178C12.5152 13.7888 12.609 13.6485 12.726 13.4843H10.4685C10.2262 13.4843 10.164 13.332 10.2457 13.1325C10.398 12.7733 10.6792 12.1635 10.8435 11.859C10.8945 11.7458 11.0115 11.6715 11.1367 11.6715H15.3907C15.3675 11.988 15.3675 12.3045 15.3202 12.621C15.1995 13.4528 14.8672 14.238 14.3595 14.91C13.5195 16.0193 12.4222 16.7108 11.031 16.8945C9.88647 17.0468 8.81997 16.824 7.88622 16.125C7.02297 15.4725 6.53097 14.6055 6.40197 13.5315C6.25347 12.258 6.62472 11.1135 7.39797 10.1055C8.22597 9.0195 9.32397 8.33175 10.6672 8.08575C11.7652 7.88625 12.8197 8.01525 13.7647 8.65575C14.3857 9.066 14.8275 9.6285 15.12 10.3043C15.1905 10.41 15.1432 10.4685 15.003 10.5038H15.0037ZM18.8707 16.9688C17.808 16.9418 16.8397 16.6403 16.0192 15.9375C15.3397 15.363 14.8905 14.5628 14.7577 13.6838C14.547 12.3638 14.91 11.1953 15.7027 10.1528C16.5585 9.0315 17.5852 8.4495 18.9765 8.2035C20.1682 7.99275 21.2887 8.10975 22.3087 8.80125C23.2305 9.4305 23.805 10.2818 23.9535 11.403C24.153 12.981 23.6992 14.2665 22.6095 15.3675C21.84 16.149 20.895 16.641 19.8045 16.86C19.4917 16.9223 19.1752 16.9305 18.8707 16.9695V16.9688ZM21.6525 12.246C21.6405 12.0938 21.6405 11.9768 21.6172 11.859C21.4065 10.7025 20.3437 10.0508 19.2345 10.3043C18.1485 10.5503 17.4457 11.2418 17.1877 12.3398C16.9807 13.2503 17.4225 14.1758 18.2662 14.547C18.9067 14.8283 19.5517 14.793 20.1682 14.4765C21.0937 13.9958 21.594 13.2503 21.6525 12.246Z" fill="black"/>
</svg>
