<svg width="24" height="24" viewBox="0 0 24 24" fill="none" xmlns="http://www.w3.org/2000/svg">
<g clip-path="url(#clip0_201_58108)">
<path d="M8.85527 7.33199C8.85902 7.33199 8.86352 7.33199 8.85527 7.33199V7.33199ZM6.08177 5.94524C6.08552 5.94524 6.09002 5.94524 6.08177 5.94524V5.94524ZM22.6718 8.08574C22.1715 6.88274 21.156 5.58599 20.3625 5.17199C21.0113 6.44099 21.3863 7.71899 21.5265 8.66774L21.5303 8.68799C20.226 5.44124 18.0195 4.13324 16.2143 1.28474C16.1243 1.14074 16.0343 0.995991 15.9443 0.843741C15.897 0.765741 15.858 0.687741 15.8153 0.604491C15.741 0.460491 15.687 0.308241 15.6473 0.147741C15.6473 0.132741 15.636 0.120741 15.6203 0.116991C15.612 0.116991 15.6045 0.116991 15.597 0.116991L15.5933 0.120741C15.5895 0.120741 15.585 0.124491 15.585 0.124491C15.585 0.124491 15.585 0.120741 15.5888 0.116241C13.026 1.61624 11.9678 4.24499 11.694 5.91299C10.9013 5.96024 10.128 6.15899 9.41327 6.49499C9.27602 6.56474 9.21452 6.72224 9.26552 6.86174C9.32327 7.02149 9.50327 7.10099 9.65927 7.02974C10.284 6.73649 10.956 6.56099 11.6475 6.51449L11.7143 6.50624C11.808 6.50249 11.9055 6.49799 11.9993 6.49799C12.558 6.49424 13.116 6.57224 13.6515 6.72824L13.7453 6.75599C13.8353 6.78299 13.9215 6.81374 14.0115 6.84599C14.0738 6.86924 14.1405 6.89324 14.2028 6.92024C14.2538 6.93899 14.3048 6.96299 14.355 6.98249C14.4338 7.01849 14.5118 7.05749 14.5898 7.09649L14.6948 7.14674C14.7728 7.18649 14.8478 7.22849 14.922 7.27199C14.9693 7.29974 15.0158 7.32674 15.0623 7.35824C15.8955 7.87424 16.59 8.58899 17.0745 9.44024C16.4618 9.01124 15.3593 8.58149 14.3018 8.76899C18.4418 10.839 17.3288 17.9677 11.5905 17.6977C11.0783 17.679 10.5743 17.5807 10.0943 17.409C9.97727 17.3662 9.86327 17.319 9.75452 17.2717C9.68852 17.241 9.62177 17.2095 9.55952 17.1787C8.15252 16.452 6.99227 15.0765 6.84827 13.4085C6.84827 13.4085 7.37927 11.4285 10.6523 11.4285C11.0085 11.4285 12.0203 10.4392 12.039 10.1542C12.0308 10.0605 10.0268 9.26399 9.24602 8.49449C8.82827 8.08424 8.63327 7.88549 8.45702 7.73624C8.36327 7.65449 8.26202 7.58024 8.15627 7.51049C7.89527 6.59249 7.88327 5.61974 8.12552 4.69724C6.94127 5.23649 6.02327 6.08849 5.35577 6.83849H5.34902C4.89227 6.26024 4.92677 4.35374 4.95002 3.95549C4.94627 3.92849 4.61027 4.12724 4.56677 4.15874C4.16477 4.44749 3.78602 4.76849 3.44177 5.12399C3.04802 5.52224 2.68877 5.95199 2.36402 6.41324C1.62602 7.46024 1.09877 8.64749 0.82127 9.89699C0.81752 9.91274 0.71252 10.3822 0.63452 10.9597C0.61877 11.0497 0.60677 11.1397 0.59552 11.229C0.56327 11.448 0.54077 11.6707 0.52877 11.8897L0.52502 11.925C0.51827 12.054 0.51002 12.1792 0.50177 12.3082V12.366C0.50177 18.726 5.65802 23.8822 12.018 23.8822C17.7128 23.8822 22.443 19.7452 23.3693 14.3152C23.3895 14.1675 23.4045 14.019 23.4203 13.8705C23.6505 11.8972 23.397 9.81974 22.674 8.08574H22.6718Z" fill="black"/>
</g>
<defs>
<clipPath id="clip0_201_58108">
<rect width="24" height="24" fill="white"/>
</clipPath>
</defs>
</svg>
