<svg width="24" height="24" viewBox="0 0 24 24" fill="none" xmlns="http://www.w3.org/2000/svg">
<path d="M21.7148 13.6447H16.7265C16.3973 13.6364 16.1168 13.8749 16.0695 14.1989C15.7808 16.2187 14.0505 17.7232 12.0075 17.7299L13.3583 23.9017C18.249 23.2657 22.011 19.2727 22.3665 14.3549C22.4018 13.9732 22.1018 13.6409 21.7148 13.6447ZM13.0823 13.4842L20.2815 7.31244C20.5868 7.05519 20.5868 6.58644 20.2815 6.32844L13.0823 0.16044C12.6645 -0.20256 12.012 0.0906897 12.0083 0.64569V12.9847C12.0045 13.5434 12.6563 13.8487 13.0823 13.4849V13.4842ZM1.72725 14.9879C2.41425 20.1449 6.81225 23.9962 12.012 23.9999V17.7299C9.75 17.7337 7.914 15.9022 7.91025 13.6447L1.72725 14.9879ZM1.63275 13.5427V13.6447H7.9095C7.91325 11.3827 9.74925 9.55494 12.0075 9.55494L10.6598 3.38694C5.5425 4.05069 1.695 8.38269 1.63275 13.5427Z" fill="black"/>
</svg>
