<svg width="24" height="24" viewBox="0 0 24 24" fill="none" xmlns="http://www.w3.org/2000/svg">
<g clip-path="url(#clip0_201_58152)">
<path d="M22.3283 7.85175L21.6135 7.4535C22.7153 5.883 23.3715 3.528 22.5473 0C22.5473 0 20.6918 5.02725 16.9575 4.863L12.5903 2.433C12.426 2.33925 12.2385 2.28825 12.051 2.28075H11.9498C11.7623 2.28825 11.5785 2.33925 11.4143 2.433L7.04326 4.863C3.30901 5.031 1.45351 0 1.45351 0C0.629261 3.52725 1.28551 5.883 2.38726 7.4535L1.67251 7.85175C1.30951 8.04675 1.08301 8.42625 1.08301 8.84025L1.10251 23.43C1.10251 23.6332 1.21201 23.8207 1.39951 23.922C1.57951 24.0278 1.80151 24.0278 1.98151 23.922L7.77076 20.7188C8.13826 20.508 8.36026 20.1367 8.36026 19.7302V12.9135C8.36026 12.507 8.58301 12.1283 8.94976 11.9288L11.4143 10.5577C11.5943 10.4565 11.7968 10.4018 12.0038 10.4018C12.2033 10.4018 12.4103 10.4528 12.5895 10.5577L15.054 11.9288C15.417 12.1283 15.6398 12.507 15.6398 12.9135V19.7302C15.6398 20.1367 15.8663 20.5072 16.2293 20.7188L22.0185 23.922C22.2023 24.0278 22.425 24.0278 22.608 23.922C22.788 23.8245 22.8968 23.6332 22.8968 23.43L22.9163 8.84025C22.9163 8.42625 22.6898 8.0475 22.3268 7.85175H22.3283Z" fill="black"/>
</g>
<defs>
<clipPath id="clip0_201_58152">
<rect width="24" height="24" fill="white"/>
</clipPath>
</defs>
</svg>
