<svg width="24" height="24" viewBox="0 0 24 24" fill="none" xmlns="http://www.w3.org/2000/svg">
<g clip-path="url(#clip0_201_58666)">
<path d="M23.5785 13.3792C23.5005 13.3124 23.403 13.2622 23.301 13.2382C22.6995 13.8517 21.9495 14.4884 21.3007 14.9219C20.988 15.1214 20.6017 15.2189 20.3512 15.2189C19.7617 15.2189 19.5112 14.6722 19.4407 13.7812C19.3117 12.1717 19.2532 10.5622 19.269 8.94895C19.269 6.69145 18.7492 5.14795 17.3902 5.03095L17.2102 5.01895C16.3785 5.01895 15.9682 5.4487 15.441 6.53845C14.9797 7.4797 14.2687 8.83945 12.9607 11.4404C11.9722 13.4054 10.8007 15.2722 9.46046 17.0189C9.14771 17.3977 8.90996 17.6594 8.67896 17.8199C8.54996 17.9099 8.39771 17.9564 8.23721 17.9609C7.80746 17.9609 7.48721 17.6017 7.38971 16.7497C7.36271 16.5194 7.34696 16.2884 7.35071 16.0582C7.35071 14.3084 8.01071 11.4607 9.14771 7.28095C9.97946 4.22995 9.62846 2.14795 7.80821 2.14795H7.78121C7.37096 2.14795 7.03121 2.30845 6.69896 2.5702C6.37046 2.81995 6.05021 3.3787 5.73821 4.1287C5.39846 4.9687 3.32021 9.1597 -3.82201e-05 11.3279C-0.0390382 12.1402 0.422212 12.9607 1.37096 13.0582C2.21846 13.1399 2.82821 12.7807 3.60896 12.2497L3.44846 12.9802C3.24521 13.8397 3.08096 14.7067 2.94821 15.5782C2.48696 19.7812 4.42121 21.8519 6.69071 21.8519C7.06946 21.8519 7.44821 21.8009 7.81946 21.6997C10.3192 21.0704 12.7177 18.1919 15.5692 11.5709C15.5302 12.2429 15.5265 12.9187 15.5572 13.5907C15.7485 17.3917 17.2372 18.5204 19.3582 18.5204C20.9595 18.5204 22.4482 17.6924 23.2095 16.6492C23.7015 16.0244 23.979 15.2587 23.9985 14.4614C23.979 13.9694 23.8267 13.5787 23.5762 13.3792H23.5785Z" fill="black"/>
</g>
<defs>
<clipPath id="clip0_201_58666">
<rect width="24" height="24" fill="white"/>
</clipPath>
</defs>
</svg>
