<svg width="24" height="24" viewBox="0 0 24 24" fill="none" xmlns="http://www.w3.org/2000/svg">
<g clip-path="url(#clip0_201_58686)">
<path d="M5.67225 6.77328V4.91778L8.8365 3.09378L3.5595 0.00378418L0.399002 1.85178V4.11378L7.52025 21.411L12.0008 23.997V17.5013L14.106 16.275L14.0828 16.263L18.3285 6.77478V4.91928L23.6018 1.85253L20.4375 0.00453418L15.1643 3.09453V5.20428L12 12.5873V15.0518L9.89025 16.2743L5.67225 6.77328ZM8.83575 3.11328L8.8125 3.10128L5.6715 4.91778V6.77328L9.89025 16.2735L12 15.2348V12.5865L8.83575 5.20353V3.11328ZM18.3285 4.91778V6.77328L14.1098 15.8745L12 17.3318V23.9955L16.5195 21.3863L23.6018 4.05003V1.85103L18.3285 4.91778Z" fill="black"/>
</g>
<defs>
<clipPath id="clip0_201_58686">
<rect width="24" height="24" fill="white"/>
</clipPath>
</defs>
</svg>
