<svg width="24" height="24" viewBox="0 0 24 24" fill="none" xmlns="http://www.w3.org/2000/svg">
<g clip-path="url(#clip0_201_58100)">
<path d="M20.0005 0H4.00073C1.78973 0 0.000976562 1.78875 0.000976562 3.99975V19.9995C0.000976562 22.2105 1.78973 23.9993 4.00073 23.9993H20.0005C22.2115 23.9993 24.0002 22.2105 24.0002 19.9995V3.99975C24.0002 1.78875 22.2115 0 20.0005 0V0ZM12.3362 16.2967L11.4692 9.53475L8.89148 14.1757L6.30923 9.5505L5.44898 16.2967H3.51998L4.91798 6.21075H6.42998L8.88698 10.8007L11.344 6.21075H12.8552L14.254 16.2967H12.3362ZM18.8635 10.5592H17.2772V13.8165C17.2772 14.9108 17.3672 14.9692 18.3752 14.9692H18.8635L18.6955 16.4385H17.4025C16.0472 16.4385 15.4735 15.4883 15.4735 14.5515V10.5518H14.4452L14.602 9.0825H15.4532V7.5045L17.2465 7.31625V9.09H18.8327V10.5592H18.8635ZM20.539 16.4377H19.0592L19.2152 14.9528H20.7032L20.5315 16.434L20.539 16.4377Z" fill="black"/>
</g>
<defs>
<clipPath id="clip0_201_58100">
<rect width="24" height="24" fill="white"/>
</clipPath>
</defs>
</svg>
