<svg width="24" height="24" viewBox="0 0 24 24" fill="none" xmlns="http://www.w3.org/2000/svg">
<g clip-path="url(#clip0_201_57244)">
<path d="M18.7815 12.6525C15.8985 12.6525 13.5585 14.9888 13.5585 17.871C13.5585 20.7578 15.8985 23.094 18.7815 23.094C21.6607 23.094 24 20.754 24 17.871C24 14.9918 21.6637 12.6525 18.7815 12.6525ZM5.2185 12.6525C2.33925 12.6525 0 14.9888 0 17.871C0 20.7578 2.34 23.094 5.2185 23.094C8.1015 23.094 10.4415 20.754 10.4415 17.871C10.4415 14.9918 8.10525 12.6525 5.2185 12.6525ZM17.2185 6.12901C17.2185 9.01201 14.8822 11.3475 12 11.3475C9.11775 11.3475 6.7815 9.01126 6.7815 6.12901C6.7815 3.24601 9.11775 0.906006 12 0.906006C14.8822 0.906006 17.2185 3.24601 17.2185 6.12901Z" fill="black"/>
</g>
<defs>
<clipPath id="clip0_201_57244">
<rect width="24" height="24" fill="white"/>
</clipPath>
</defs>
</svg>
