<svg width="24" height="24" viewBox="0 0 24 24" fill="none" xmlns="http://www.w3.org/2000/svg">
<g clip-path="url(#clip0_201_58748)">
<path d="M22.9882 2.34003H21.4335L20.3475 2.33628C19.4842 2.33628 18.6915 2.99253 18.0855 3.51228C17.484 4.00803 16.9762 4.62153 16.4955 5.23878C16.3155 4.76628 16.0972 4.30878 15.8467 3.87153C15.534 3.25803 14.9325 2.67228 14.241 2.53578C13.8975 2.46153 13.5067 2.49303 13.1625 2.49303H10.854C10.5022 2.49303 10.116 2.44578 9.77172 2.52453C9.08847 2.65728 8.47872 3.24303 8.17422 3.86028C7.93197 4.27803 7.70922 4.74303 7.52997 5.22378C7.04547 4.61028 6.53772 3.99303 5.94822 3.48528C5.34297 2.95803 4.55397 2.29803 3.69072 2.29803H1.05822C0.683219 2.29803 -0.156781 2.19228 0.042719 2.80953C0.089969 2.95803 0.257219 3.09453 0.350969 3.21153C0.464219 3.34803 0.569969 3.49652 0.663719 3.64877C0.815969 3.88727 0.964469 4.12953 1.10547 4.38303C1.44147 4.98452 1.73022 5.61378 2.06622 6.21527C2.80872 7.55102 3.60147 8.84027 4.55847 10.0275C5.26947 10.8983 6.12072 11.7818 7.17972 12.219L4.79697 16.7228C4.10922 17.9963 3.41772 19.2893 2.69172 20.5508L2.58597 20.7308C2.49222 20.9108 2.35572 21.1643 2.35572 21.36C2.35572 21.7665 2.95722 21.7823 3.25797 21.7823C3.57447 21.7823 3.88722 21.7665 4.20297 21.7665C4.74222 21.7508 5.28522 21.7508 5.83947 21.735C6.15597 21.735 6.48372 21.7508 6.81597 21.708C7.63272 21.6218 8.37822 21.1965 8.87097 20.5358C9.01947 20.3093 10.4917 17.895 11.094 16.9185C11.3167 16.5435 12.024 15.4455 12.024 15.4455C12.024 15.4455 12.7312 16.5435 12.954 16.9185C13.5397 17.895 15.0127 20.2973 15.177 20.52C15.6577 21.18 16.4077 21.6023 17.2357 21.6765C17.5485 21.7035 17.88 21.6923 18.1927 21.6923L19.8292 21.708H20.7742C21.063 21.708 21.6765 21.6923 21.6765 21.2708C21.6765 21.06 21.54 20.8095 21.438 20.6303L21.3322 20.4503C20.5942 19.173 19.9222 17.8958 19.2307 16.6223C18.4335 15.1343 17.6407 13.6343 16.8285 12.1613C17.895 11.7278 18.735 10.845 19.4535 9.97353C20.4142 8.78627 21.1957 7.48128 21.9457 6.15677C22.278 5.54327 22.563 4.91103 22.9065 4.31328C23.043 4.05903 23.1915 3.81753 23.3437 3.57528C23.4337 3.42678 23.535 3.27828 23.6565 3.14178C23.7465 3.01278 23.9145 2.88003 23.973 2.73528C24.168 2.11803 23.3632 2.35278 22.9882 2.34078V2.34003ZM10.2855 5.26953C10.3522 5.26203 10.3987 5.43003 10.4302 5.76528L10.434 5.78103C10.434 5.79678 10.2855 5.78102 10.149 5.76528L9.98472 5.73828C9.91047 5.72253 9.83622 5.69103 9.75822 5.66027C9.55872 5.59353 9.43797 5.49977 9.34797 5.43003C9.29322 5.39103 9.25047 5.34003 9.21522 5.28527C9.69147 5.29278 10.0515 5.28903 10.2855 5.26953ZM10.4685 7.68753V7.67553H10.4722L10.4685 7.68753ZM10.4842 7.63653C10.3785 7.75353 10.2187 7.79703 10.0665 7.82778C9.91422 7.85853 9.74247 7.88253 9.60147 7.80453C9.43722 7.72278 9.37122 7.52328 9.32397 7.35528C9.26547 7.14453 9.21447 6.91803 9.23397 6.69528H9.24972C9.24972 6.57453 9.29247 6.44103 9.33972 6.33227C9.37872 6.23852 9.44097 6.15678 9.52347 6.09378C9.73422 5.93328 10.059 5.93328 10.2502 6.12078C10.3402 6.21078 10.4107 6.31578 10.4572 6.43353C10.5667 6.69152 10.6522 6.98853 10.6327 7.27728C10.6252 7.41003 10.5742 7.53528 10.4842 7.63653ZM12.5745 8.04678C12.555 8.07828 12.5272 8.09403 12.5002 8.10903C12.3517 8.21478 12.1717 8.26503 11.9887 8.25753C11.805 8.26503 11.6257 8.21478 11.4772 8.10903C11.4457 8.09328 11.4225 8.07378 11.403 8.04678C11.3955 8.04678 11.3872 8.03102 11.3872 8.01977C11.3872 8.00852 11.391 8.00027 11.3992 7.99277V8.03177C11.4112 8.01977 11.4382 8.01977 11.4502 8.01977C11.4735 8.03177 11.493 8.04678 11.517 8.06253C11.658 8.15628 11.8215 8.20353 11.9895 8.19903C12.1575 8.20278 12.3217 8.15628 12.462 8.06253C12.4852 8.04678 12.5092 8.01977 12.5325 8.00402C12.5557 7.98828 12.5752 7.98828 12.591 8.00402C12.6067 8.01977 12.5985 8.03103 12.5752 8.04678H12.5745ZM14.6445 7.35978C14.6017 7.52402 14.535 7.73478 14.367 7.80902C14.226 7.88328 14.0542 7.85628 13.902 7.82853C13.7497 7.79702 13.5937 7.75052 13.4797 7.63727C13.3935 7.53603 13.3432 7.41078 13.335 7.27803C13.3155 6.98928 13.4017 6.69228 13.515 6.43428C13.5622 6.31728 13.632 6.21152 13.7182 6.12152C13.9095 5.93402 14.2342 5.93403 14.4487 6.09002C14.5267 6.15677 14.5897 6.23852 14.6325 6.33227V6.33978C14.6872 6.44928 14.7225 6.57453 14.7337 6.69903C14.757 6.92178 14.7022 7.14828 14.6437 7.35903L14.6445 7.35978ZM14.6212 5.43753C14.5312 5.51178 14.4105 5.60178 14.2147 5.66027C14.1405 5.68728 14.0625 5.71128 13.9845 5.72703C13.9725 5.73078 13.9027 5.74278 13.8202 5.75853V5.78178C13.6875 5.79753 13.5352 5.81328 13.539 5.78178C13.5705 5.45328 13.617 5.28603 13.6837 5.28603C13.9222 5.31753 14.2777 5.31752 14.7577 5.30177C14.7225 5.35652 14.676 5.40303 14.6212 5.43828V5.43753Z" fill="black"/>
</g>
<defs>
<clipPath id="clip0_201_58748">
<rect width="24" height="24" fill="white"/>
</clipPath>
</defs>
</svg>
