<svg width="24" height="24" viewBox="0 0 24 24" fill="none" xmlns="http://www.w3.org/2000/svg">
<g clip-path="url(#clip0_201_57698)">
<path d="M23.5471 10.9295L13.0666 0.452717C12.4651 -0.152533 11.4848 -0.152533 10.8788 0.452717L8.70681 2.62847L11.4683 5.38622C12.1126 5.17172 12.8476 5.31572 13.3553 5.82797C13.8713 6.34397 14.0153 7.08572 13.7971 7.72622L16.4536 10.3865C17.0978 10.1637 17.8403 10.3085 18.3518 10.8237C19.0748 11.5422 19.0748 12.7062 18.3518 13.4255C17.6333 14.144 16.4731 14.144 15.7538 13.4255C15.2146 12.8862 15.0781 12.0897 15.3473 11.4297L12.8588 8.95322V15.4805C13.0343 15.5667 13.2023 15.6837 13.3471 15.8285C14.0618 16.5515 14.0618 17.711 13.3471 18.4302C12.6286 19.1487 11.4601 19.1487 10.7378 18.4302C10.0193 17.7117 10.0193 16.5515 10.7378 15.8285C10.9216 15.6485 11.1248 15.5157 11.3431 15.4265V8.83697C11.1286 8.74322 10.9208 8.61422 10.7416 8.43497C10.1986 7.89197 10.0658 7.09547 10.3471 6.42722L7.63581 3.70097L0.448557 10.8845C-0.149193 11.486 -0.149193 12.4662 0.448557 13.0722L10.9291 23.549C11.5343 24.1542 12.5108 24.1542 13.1168 23.549L23.5463 13.1195C24.1516 12.518 24.1516 11.5377 23.5463 10.9317L23.5471 10.9295Z" fill="black"/>
</g>
<defs>
<clipPath id="clip0_201_57698">
<rect width="24" height="24" fill="white"/>
</clipPath>
</defs>
</svg>
