<svg width="24" height="24" viewBox="0 0 24 24" fill="none" xmlns="http://www.w3.org/2000/svg">
<g clip-path="url(#clip0_201_57654)">
<path d="M7.17224 20.6565C6.25799 19.9335 5.28149 19.2465 4.61774 18.2737C3.21524 16.563 2.13299 14.5822 1.39499 12.4965C0.949491 11.145 0.797241 9.69149 0.222741 8.38724C-0.378759 7.44599 0.323991 6.41099 1.35974 6.11024C1.82099 6.02024 2.63324 5.58674 1.65299 5.89949C0.773991 6.53999 0.692241 5.31374 1.59074 5.23574C2.20424 5.15399 2.43074 4.64999 2.21999 4.20074C1.56374 3.77099 3.82124 3.29849 2.68499 2.65349C1.50149 1.37624 4.34099 1.13024 3.64199 2.57924C3.47399 3.69674 5.62649 2.37599 5.12624 3.66524C5.63399 4.28249 7.02449 3.80624 6.98924 4.67324C7.73174 4.72424 7.98524 5.34524 8.67674 5.39174C9.39974 5.72024 10.7002 5.97374 10.9462 6.78224C10.2315 7.34849 8.57924 5.61824 8.50124 7.18049C8.71574 9.48899 8.66174 11.868 9.50549 14.067C9.90749 15.399 10.8765 16.4497 11.7517 17.4847C12.588 18.504 13.7205 19.215 14.877 19.821C15.8925 20.2972 16.9867 20.6137 18.0915 20.8132C18.537 20.4697 19.3297 19.1962 20.0287 19.7347C20.0602 20.3362 18.642 20.9962 19.962 20.9302C20.7352 20.6955 21.2745 21.528 21.915 20.778C22.5007 21.4732 24.36 20.3325 23.9422 21.7582C23.376 22.1212 22.548 21.903 21.981 22.4025C21.0472 21.9375 20.301 22.8202 19.266 22.7107C18.1177 22.914 16.9455 22.9995 15.7815 22.9995C13.8712 22.8472 11.9182 22.785 10.098 22.1205C9.07424 21.8197 8.07449 21.2377 7.17224 20.6557V20.6565ZM8.78549 21.3555C9.78524 21.7852 10.7662 22.242 11.8635 22.383C13.602 22.6215 15.399 22.9965 17.145 22.6567C16.356 22.2975 15.5355 22.7977 14.7502 22.3987C13.8052 22.602 12.7935 22.3477 11.832 22.2232C10.7422 21.7387 9.56249 21.4027 8.53874 20.7697C7.26524 20.3047 9.19874 21.3675 9.54674 21.4575C10.344 21.9105 8.66774 21.2227 8.43374 21.0352C7.76549 20.6602 7.67999 20.7382 8.36699 21.117C8.50349 21.1987 8.64074 21.285 8.78474 21.3555H8.78549ZM6.88274 20.0077C7.85174 20.367 6.87899 19.3282 6.43349 19.3867C6.23849 19.047 5.68349 18.828 6.07424 18.6487C5.36699 18.891 5.33624 17.7187 5.00399 17.883C4.25774 17.6482 4.71524 16.8165 3.82799 16.305C3.74624 15.7657 2.94524 15.297 2.68724 14.481C2.57399 14.067 1.78499 12.8677 2.26949 13.9807C2.68349 15.0547 3.41399 15.9727 4.01924 16.8907C4.49174 17.7615 5.04674 18.6757 5.90624 19.2187C6.19499 19.4962 6.47249 19.9222 6.88274 20.0077ZM4.08974 16.9417C4.12124 16.797 4.26524 17.2582 4.08974 16.9417V16.9417ZM8.04299 20.4375C7.73474 20.3205 8.25749 20.3437 8.04299 20.4375V20.4375ZM8.57024 20.6325C8.32799 20.7772 8.51549 20.367 8.57024 20.6325V20.6325ZM9.23024 20.9062C8.74574 20.7187 9.54299 20.6055 9.23024 20.9062V20.9062ZM10.3597 21.5355C9.74624 21.4297 10.551 21.2542 10.3597 21.5355V21.5355ZM8.19149 20.0235C7.55849 20.0197 8.67599 19.707 8.19149 20.0235V20.0235ZM8.68349 20.2695C8.50799 20.3437 8.67149 20.1015 8.68349 20.2695V20.2695ZM11.1525 21.8122C11.5507 22.062 13.473 22.359 12.27 21.9135C12.0705 21.9562 10.0395 21.339 11.1525 21.8122ZM7.23449 18.7575C6.61724 18.57 7.19549 18.5895 7.23449 18.7575V18.7575ZM8.38274 19.4257C7.76174 19.2652 8.68349 19.2187 8.38274 19.4257V19.4257ZM9.35174 20.0197C8.65274 19.8555 9.78149 19.8592 9.35174 20.0197V20.0197ZM6.76574 18.246C7.23074 18.6052 8.64449 18.2932 7.48049 18.0352C6.94949 17.7502 5.75399 17.559 6.56624 18.2032L6.76574 18.246ZM10.0042 20.2267C9.19199 20.0355 10.1992 19.8945 10.0042 20.2267V20.2267ZM9.01949 19.4415C10.1602 19.7655 8.06249 18.723 8.73824 19.3245L8.89049 19.3912L9.01949 19.4415ZM10.9957 20.5822C10.0192 20.4337 12.0735 20.5942 10.9957 20.5822V20.5822ZM6.35174 17.6212C6.08624 17.6407 6.30899 17.4217 6.35174 17.6212V17.6212ZM12.8205 21.6052C12.4687 21.879 12.8475 21.2422 12.8205 21.6052V21.6052ZM8.19149 18.75C7.85549 18.7425 8.12474 18.5587 8.19149 18.75V18.75ZM6.45299 17.496C5.60549 17.2222 7.07024 17.4607 6.45299 17.496V17.496ZM4.39049 16.164C3.71849 15.633 4.31624 15.867 4.39049 16.164V16.164ZM9.80099 19.6012C9.68774 19.4685 9.74624 19.6282 9.80099 19.6012V19.6012ZM13.164 21.6637C12.984 21.738 13.1565 21.4687 13.164 21.6637V21.6637ZM9.50399 19.293C8.97299 19.215 9.56249 19.035 9.50399 19.293V19.293ZM6.99599 17.6992C6.25799 17.391 7.45274 17.652 6.99599 17.6992V17.6992ZM11.238 20.3362C10.5345 20.1952 11.9527 20.0512 11.238 20.3362V20.3362ZM9.03149 18.84C9.85949 18.9457 8.04674 18.2775 8.84774 18.7815L9.03149 18.84ZM11.9062 20.6092C12.6795 20.1442 12.426 21.6915 13.2187 20.7382C14.0002 20.1682 12.543 21.4455 13.5075 20.8395C14.2027 20.3745 15.234 21.0622 15.8827 21.285C16.3515 21.2617 16.8082 21.6915 17.2852 21.4297C18.2107 21.18 15.4807 21.0622 16.1955 20.6212C15.3517 20.8672 14.727 20.328 14.313 19.785C13.3635 19.566 12.27 19.0815 11.7975 18.2422C11.6025 17.9295 12.075 18.2895 11.6295 17.7735C11.0595 17.2657 10.7737 16.6875 10.3912 16.0702C9.93449 15.828 9.87974 15.1095 9.83249 16.047C9.83624 15.453 9.27749 15.0547 9.14474 15.2227C9.14099 14.6527 9.73874 14.9377 9.32024 14.5155C9.23024 13.9215 8.93324 13.3042 8.84399 12.6367C8.70749 12.3165 8.82449 11.6287 8.37149 12.3555C8.20724 13.125 8.31674 11.4105 8.57474 11.9767C8.91074 11.3985 8.45399 11.4652 8.43374 11.547C8.65274 11.0587 8.57474 10.3672 8.37524 10.629C8.49224 10.113 8.56274 8.72699 8.19974 8.97299C8.41874 8.43374 8.61374 6.50024 7.66874 7.23824C7.28174 7.24199 6.61799 7.37924 6.30524 7.53524C7.28999 8.07824 6.20399 7.73024 5.80499 7.64474C5.75399 8.14499 5.35574 7.92974 4.85999 7.93349C5.65274 8.03099 4.47299 8.74199 4.01624 8.46899C3.42674 8.75024 4.52774 9.45374 4.02824 9.67199C4.09049 10.0005 3.12599 9.55499 3.20024 10.3125C2.62574 10.0702 3.12224 11.2147 3.40724 10.8285C4.38374 11.0902 4.09499 11.6917 4.11824 12.2662C3.96224 12.5985 3.33674 11.481 3.98174 11.532C3.47399 10.7077 3.41924 11.235 2.99324 11.6182C2.89574 11.6452 4.07549 12.165 3.33674 12.423C3.98549 12.5205 4.00499 13.0912 4.13399 13.4505C4.52474 13.8607 4.44674 13.0012 4.91549 13.4932C4.61849 13.056 3.34874 12.2625 4.36874 12.5167C4.36499 12.0795 4.18499 11.724 4.49774 11.7352C4.81049 11.1727 4.17374 13.122 4.87274 12.4072C5.06774 12.321 5.11499 11.8447 5.46674 12.45C5.97074 12.9502 5.64674 13.3095 4.93574 12.852C5.06099 13.2855 5.88899 13.4415 5.73299 14.118C5.89724 14.7157 6.12749 14.493 6.33074 14.4615C6.48674 15.0397 6.57674 14.6137 6.58499 14.3362C7.30799 14.4922 7.13549 14.9182 7.36199 15.219C7.85774 15.4417 6.65099 13.6957 7.50674 14.6917C8.40149 15.504 7.84274 15.84 7.03424 15.711C7.54574 15.672 7.70999 16.4025 8.34674 16.3747C8.92874 16.6522 9.32324 17.7142 8.31974 17.2732C7.97174 16.9605 6.74174 16.5697 7.74974 17.1675C8.67974 17.5972 9.41399 17.8552 10.3125 18.3937C10.9492 18.8505 11.2305 19.3785 11.4727 19.4797C10.9335 19.7377 9.84749 19.2727 10.6522 19.1317C10.152 19.0417 9.58574 18.7882 10.0665 19.413C10.4767 19.7565 11.5155 19.7175 11.703 19.7565C11.5425 20.1045 11.2732 20.1315 11.7105 20.1585C11.2222 20.4202 11.8665 20.4592 11.91 20.6077L11.9062 20.6092ZM10.914 17.8005C10.617 17.4877 10.539 16.9095 10.8592 17.4135C11.0235 17.4802 11.3865 18.363 10.914 17.8005ZM14.1525 19.8555C14.1562 19.9965 14.3362 19.848 14.1525 19.8555V19.8555ZM10.4452 17.0392C10.4332 16.5742 10.551 17.4022 10.4452 17.0392V17.0392ZM10.1212 16.6095C9.74999 15.891 10.5937 16.8127 10.1212 16.6095V16.6095ZM6.22274 13.914C6.32849 14.289 6.44174 13.8555 6.22274 13.914V13.914ZM9.32849 15.5977C9.46124 15.0937 9.48449 16.0237 9.32849 15.5977V15.5977ZM7.13249 14.0745C6.98024 13.797 7.45649 14.3362 7.13249 14.0745V14.0745ZM9.01574 14.676C8.66399 13.887 9.26549 14.2462 9.09374 14.8087L9.01574 14.676ZM5.76974 12.5115C5.61374 12.2535 5.35199 11.4922 5.43749 11.2612C5.51174 11.6362 6.23849 12.8865 5.79299 11.7772C5.30099 10.8472 6.38249 12.078 6.49649 12.3127C6.54749 12.543 6.19199 12.2505 6.42974 12.789C5.99249 12.1717 6.17174 13.1287 5.76974 12.5115ZM4.76549 11.82C4.80824 11.2185 4.99574 12.234 4.76549 11.82V11.82ZM5.21849 11.9767C5.43299 11.52 5.58149 12.6097 5.21849 11.9767V11.9767ZM4.13249 11.1367C3.75749 10.7655 3.48824 10.422 4.14824 10.9065C4.40624 10.914 3.58574 10.1295 4.21049 10.6567C4.87049 10.7775 4.53449 11.739 4.13249 11.1375V11.1367ZM4.70324 11.121C4.81649 11.3317 4.92224 10.9065 4.70324 11.121V11.121ZM5.05499 11.2342C4.72649 10.617 5.45324 11.4922 5.05499 11.2342V11.2342ZM4.35524 10.5667C3.26924 9.60224 5.72249 11.0745 4.53074 10.7467L4.35524 10.5667ZM7.46849 12.375C6.99599 12.0937 7.34324 10.3905 7.50374 11.5545C7.96049 11.406 7.47674 12.156 7.81649 12.1485C7.76549 12.621 7.61324 12.7927 7.46849 12.375ZM8.61749 13.0545C8.66474 12.543 8.71499 13.4062 8.61749 13.0545V13.0545ZM8.41799 12.8557C8.42174 13.1137 8.46899 12.6367 8.41799 12.8557V12.8557ZM4.57049 10.2502C3.87149 9.28574 6.59774 11.223 5.01599 10.4925C4.85174 10.4497 4.65299 10.434 4.57049 10.2502ZM6.78524 11.4255C6.71849 10.6132 6.93374 11.5582 6.78524 11.4255V11.4255ZM8.46899 12.504C8.47649 12.8085 8.59799 12.0427 8.46899 12.504V12.504ZM4.67549 9.88274C5.08949 9.79274 6.39449 10.6095 5.19524 10.1175C5.06249 9.96899 4.78124 10.0357 4.67549 9.88274ZM8.23424 11.6565C8.28149 10.8285 8.48399 11.1607 8.23799 11.7735L8.23424 11.6565ZM4.98449 9.59399C5.15249 9.34799 4.53524 8.47274 5.07449 9.28124C5.30474 9.46499 5.74649 9.58949 5.35574 9.66824C5.96924 10.2075 5.20724 9.81299 4.98449 9.59399ZM8.05874 11.3985C8.16449 11.949 8.17574 10.4535 8.05874 11.3985V11.3985ZM4.63274 8.72249C4.69949 8.89424 4.76174 8.66774 4.63274 8.72249V8.72249ZM5.43374 9.19949C5.64074 8.76599 5.81249 9.68399 5.43374 9.19949V9.19949ZM7.69499 10.461C7.69499 10.293 7.73774 10.6995 7.69499 10.461V10.461ZM7.56674 10.1677C7.25399 9.39449 7.85999 10.578 7.56674 10.1677V10.1677ZM7.37099 9.65999C7.31999 9.33974 7.55474 10.062 7.37099 9.65999V9.65999ZM7.68749 9.14849C7.47299 8.76974 7.96124 7.47674 8.01149 8.27774C7.78499 8.90249 7.94924 9.25424 8.10524 8.41424C8.39849 7.75424 8.04299 9.71924 7.68749 9.14849ZM8.00774 7.22624C8.03099 7.36274 8.10149 7.10924 8.00774 7.22624V7.22624ZM7.47299 17.8395C7.34399 17.7262 7.48874 17.91 7.47299 17.8395V17.8395ZM8.58224 18.3982C9.19574 18.5587 9.19574 18.3045 8.63699 18.2302C8.33624 17.949 7.39124 17.652 8.23874 18.195C8.29349 18.336 8.47349 18.3315 8.57849 18.3982H8.58224ZM6.39074 16.9455C6.73049 17.1997 7.66799 17.664 6.87149 17.0392C7.14074 16.731 6.35999 16.563 6.61724 16.356C5.96099 15.9495 6.09749 15.9885 6.56249 16.0005C5.76524 15.645 6.67574 15.672 6.63299 15.489C6.32474 15.4305 5.11349 14.9497 5.82824 15.528C5.10149 15.1605 5.65274 15.669 5.43374 15.6142C4.69124 15.411 6.09374 16.1805 5.31674 15.9892C5.74274 16.3252 6.46499 16.8525 5.49674 16.3447C5.36774 16.5285 6.18824 16.806 6.39149 16.9462L6.39074 16.9455ZM7.55099 17.613C6.85949 17.0542 8.96099 18.066 7.55099 17.613V17.613ZM13.488 21.2107C13.2967 21.4492 13.5075 20.9295 13.488 21.2107V21.2107ZM14.1015 21.4687C14.4255 21.1522 14.1135 21.969 14.6407 21.3907C14.6445 20.9767 14.625 20.7307 14.0355 21.2347C13.8712 21.3247 13.8007 21.7072 14.1022 21.4695L14.1015 21.4687ZM4.40624 15.3787C3.70724 14.988 4.30874 14.988 4.40624 15.3787V15.3787ZM5.05874 15.8085C4.19549 15.4455 4.81649 15.4065 5.05874 15.8085V15.8085ZM8.76974 18.0472C9.13274 18.3675 10.434 18.282 9.21149 18.0862C9.02774 17.817 8.05949 17.883 8.76974 18.0472ZM13.8675 21.195C13.3282 21.402 14.4262 20.7262 13.8675 21.195V21.195ZM15.027 21.9885C14.7885 22.0552 15.0307 21.84 15.027 21.9885V21.9885ZM15.027 21.7815C14.4292 21.8205 15.6442 21.1252 15.027 21.7815V21.7815ZM2.80499 14.0392C2.27774 13.2892 2.47649 12.9495 1.96874 12.3397C1.87499 11.8672 1.10174 10.8045 1.57049 11.9332C2.00024 12.5895 2.12924 13.6087 2.80499 14.0385V14.0392ZM14.8357 21.57C14.3707 21.2535 15.9727 20.8395 14.8357 21.57V21.57ZM15.7035 21.9105C15.3442 21.8092 16.2735 21.426 15.7035 21.9105V21.9105ZM4.21499 14.5507C3.79724 14.5192 4.37924 14.3085 4.21499 14.5507V14.5507ZM15.5197 21.6795C16.0702 21.324 15.3945 21.3787 15.4222 21.711L15.5197 21.6795ZM8.05049 16.9687C7.75724 16.9882 8.03099 16.7302 8.05049 16.9687V16.9687ZM8.51174 17.2342C8.28524 17.2815 8.36324 16.9372 8.51174 17.2342V17.2342ZM16.4062 21.9217C17.1097 21.4102 15.9765 21.8205 16.2577 22.0155L16.4062 21.9217ZM16.137 21.789C15.5272 22.0035 16.7115 21.3082 16.137 21.789V21.789ZM17.5155 22.707C17.0467 22.6252 17.9025 22.449 17.5155 22.707V22.707ZM4.57049 14.3752C5.08649 14.4922 6.63674 15.6487 5.72249 14.457C5.25374 14.316 5.53499 13.1715 5.05424 13.3747C5.37449 13.9102 5.31974 14.1405 4.64774 13.8007C3.80024 13.3905 4.17149 14.0077 4.33499 14.1757C4.11224 14.2267 4.63574 14.3707 4.56974 14.3752H4.57049ZM2.21474 12.516C2.30474 12.1335 1.35899 10.4107 1.76549 11.6527C1.91399 11.9107 1.89824 12.4065 2.21474 12.516ZM6.53549 15.1837C6.26999 14.961 6.52349 15.1485 6.53549 15.1837V15.1837ZM7.19174 15.336C6.46874 15.1717 7.19174 14.9295 7.19174 15.336V15.336ZM12.8752 18.918C12.4455 18.9105 12.7657 18.6405 12.8752 18.918V18.918ZM13.1482 19.1175C12.9922 19.1445 13.1092 18.9615 13.1482 19.1175V19.1175ZM15.402 20.535C15.1327 20.5155 15.6165 20.3745 15.402 20.535V20.535ZM3.39074 12.8167C2.72699 12.645 4.01174 12.5745 3.39074 12.8167V12.8167ZM12.375 18.4762C11.9805 18.5775 12.3675 18.0742 12.375 18.4762V18.4762ZM3.14474 12.246C2.77724 12.156 3.54299 12.1095 3.14474 12.246V12.246ZM4.30049 12.8047C4.17974 12.8557 4.29299 12.672 4.30049 12.8047V12.8047ZM18.3907 21.4455C18.9022 21.3442 20.0707 21.7072 20.2582 21.309C19.6372 21.297 18.1057 20.8717 18.0352 21.4102L18.1717 21.4335L18.3907 21.4455ZM4.66799 12.8985C4.35149 12.8827 4.67549 12.492 4.66799 12.8985V12.8985ZM1.62899 10.7887C1.10549 10.6717 1.49249 10.0155 1.62899 10.7887V10.7887ZM2.35574 10.9725C1.69199 10.746 2.36324 10.7227 2.35574 10.9725V10.9725ZM2.76974 11.1757C2.64899 11.0782 2.67599 11.2965 2.76974 11.1757V11.1757ZM5.37074 12.8437C5.08199 12.762 5.49599 12.7342 5.37074 12.8437V12.8437ZM2.49224 10.719C1.65224 10.629 2.42174 10.1332 2.49224 10.719V10.719ZM1.00799 9.75374C0.863241 9.85499 0.988491 9.48449 1.00799 9.75374V9.75374ZM1.22624 9.58574C1.03874 9.62474 1.19099 9.26549 1.22624 9.58574V9.58574ZM2.44949 10.3162C2.96549 10.113 1.50824 9.89399 2.34374 10.2772L2.44949 10.3162ZM18.7815 20.4022C18.3637 20.3085 19.1137 20.1015 18.7815 20.4022V20.4022ZM20.7577 21.426C20.4217 21.477 20.8867 21.0352 20.7577 21.426V21.426ZM2.57399 9.67574C2.16374 9.74999 2.62874 9.29699 2.57399 9.67574V9.67574ZM0.836241 8.51174C0.742491 7.97624 0.758241 7.03874 1.64849 7.35524C0.456741 7.59374 2.47274 8.83574 2.21849 7.85549C2.71874 7.87874 3.19874 7.55849 2.93324 8.04674C3.92174 7.93724 4.60499 7.08224 5.55824 7.19924C6.30074 7.10174 7.11299 7.02749 7.91399 6.73049C8.57024 6.67949 9.20324 5.97299 8.84399 5.55449C7.94549 5.47649 7.00799 5.58974 6.01574 5.78474C4.91774 6.01499 3.92174 6.44849 2.81249 6.63599C1.73024 6.78074 3.02699 7.03424 2.71874 7.09274C2.15624 7.28774 3.39074 7.42124 2.64449 7.62374C2.18774 7.53749 1.70699 7.37774 1.90199 6.89324C0.866991 7.02599 -0.0435086 7.45949 0.776991 8.51024L0.836241 8.51174ZM3.33224 7.24199C3.57449 6.34724 4.63274 7.97624 3.73049 7.35899C3.62099 7.28099 3.44549 7.21424 3.33224 7.24199ZM3.37874 6.80849C3.56249 6.95324 3.72674 6.55049 3.37874 6.80849V6.80849ZM3.82424 6.81674C3.85574 6.40649 4.83974 7.03574 3.98474 6.96524L3.82424 6.81674ZM4.42949 6.56999C4.49624 6.80474 4.65224 6.31199 4.42949 6.56999V6.56999ZM4.58624 6.46874C4.95749 6.02324 6.68399 6.18374 5.41799 6.42599C5.08199 6.17174 4.82024 6.57449 4.58624 6.46874ZM6.83999 6.12074C6.78149 4.90574 7.95749 6.55424 6.83999 6.12074V6.12074ZM7.47674 6.11699C7.71149 5.50349 8.38274 5.87099 7.58624 5.99174C7.60199 6.05849 7.56299 6.30824 7.47674 6.11699ZM2.32049 9.36299C1.58249 8.99174 3.01949 8.93324 2.32049 9.36299V9.36299ZM2.83574 9.50774C2.30474 9.39824 3.08174 9.24599 2.83574 9.50774V9.50774ZM1.31624 8.42549C0.847491 8.30849 1.71449 8.12099 1.31624 8.42549V8.42549ZM21.9217 21.3165C21.6172 21.477 21.9337 20.961 21.9217 21.3165V21.3165ZM19.8285 19.887C19.5592 19.9222 19.887 19.4767 19.8285 19.887V19.887ZM22.4962 21.453C23.055 21.453 24.1837 21.2812 22.9725 21.2812C22.7812 21.3127 21.8632 21.3045 22.4962 21.453ZM3.28874 9.25424C3.74174 9.22274 3.99599 8.75849 3.20249 8.78549C1.97174 8.65649 4.28474 9.20324 3.04649 9.04724C2.87849 9.15674 3.28124 9.28574 3.28874 9.25424ZM3.68774 9.45674C3.54674 9.60899 3.64049 9.16349 3.68774 9.45674V9.45674ZM4.15649 8.19899C3.88724 8.13224 4.35599 7.95674 4.15649 8.19899V8.19899ZM2.65649 5.69174C3.46499 5.41799 4.56674 5.10974 4.94549 5.82449C4.55849 5.35949 4.78949 4.90274 5.15624 5.58224C5.67224 6.27374 5.92949 5.26949 5.59349 5.03924C5.97599 5.51549 6.41024 5.73824 5.85149 5.06624C6.46124 4.33574 4.62899 5.16374 4.21049 5.15624C4.01099 5.24624 2.14049 5.63249 2.65949 5.69174H2.65649ZM3.12899 4.78874C3.59024 4.44074 4.71899 4.99199 3.99224 4.44074C3.92549 4.38224 2.40599 4.85849 3.12899 4.78874ZM4.80449 4.85549C5.34374 4.87124 4.57424 4.13699 5.21474 4.46849C5.10899 4.12499 4.46849 4.05824 4.15199 3.92174C3.97649 4.23824 4.51499 4.85924 4.80449 4.85549ZM3.42599 3.33599C3.09749 3.46499 3.60974 3.08624 3.42599 3.33599V3.33599ZM4.10924 3.50024C4.97249 3.38699 3.88649 3.12899 3.93374 3.49274L4.10924 3.50024ZM2.83199 2.49974C2.22224 1.70249 3.97649 2.63624 3.35924 1.80074C2.83574 1.38674 2.33549 2.26949 2.83199 2.49974ZM10.656 6.71474C10.9372 6.21899 9.49949 6.04649 10.4685 6.53924C10.5585 6.57074 10.5352 6.74999 10.656 6.71474Z" fill="black"/>
</g>
<defs>
<clipPath id="clip0_201_57654">
<rect width="24" height="24" fill="white"/>
</clipPath>
</defs>
</svg>
