<svg width="24" height="24" viewBox="0 0 24 24" fill="none" xmlns="http://www.w3.org/2000/svg">
<g clip-path="url(#clip0_201_57414)">
<path d="M21.3547 18.7073C22.812 18.7073 24 19.8953 24 21.3555C24 22.8127 22.812 24.0007 21.3547 24.0007C19.8945 24.0007 18.7065 22.8127 18.7065 21.3555C18.7065 19.8953 19.8945 18.7073 21.3547 18.7073ZM12 9.35475C13.461 9.35475 14.6453 10.539 14.6453 12C14.6453 13.461 13.461 14.6453 12 14.6453C10.539 14.6453 9.35475 13.461 9.35475 12C9.35475 10.539 10.539 9.35475 12 9.35475ZM21.3547 9.35475C22.812 9.35475 24 10.539 24 12C24 13.461 22.812 14.6453 21.3547 14.6453C19.8945 14.6453 18.7065 13.461 18.7065 12C18.7065 10.539 19.8945 9.35475 21.3547 9.35475ZM12 0C13.461 0 14.6453 1.18425 14.6453 2.64525C14.6453 4.1055 13.461 5.2935 12 5.2935C10.539 5.2935 9.35475 4.1055 9.35475 2.64525C9.35475 1.188 10.539 0 12 0V0ZM2.64525 0C4.1055 0 5.2935 1.18425 5.2935 2.64525C5.2935 4.1055 4.1055 5.2935 2.64525 5.2935C1.188 5.2935 0 4.1055 0 2.64525C0 1.188 1.188 0 2.64525 0V0ZM21.3547 0C22.812 0 24 1.18425 24 2.64525C24 4.1055 22.812 5.2935 21.3547 5.2935C19.8945 5.2935 18.7065 4.1055 18.7065 2.64525C18.7065 1.188 19.8945 0 21.3547 0V0Z" fill="black"/>
</g>
<defs>
<clipPath id="clip0_201_57414">
<rect width="24" height="24" fill="white"/>
</clipPath>
</defs>
</svg>
