<svg width="24" height="24" viewBox="0 0 24 24" fill="none" xmlns="http://www.w3.org/2000/svg">
<g clip-path="url(#clip0_201_57800)">
<path d="M8.66026 1.23076C8.23426 1.23451 7.73476 1.38676 7.53151 1.46551C5.84026 2.14501 4.75051 4.55551 5.32801 6.98476C5.01151 6.84826 4.71451 6.73051 4.65226 6.70726C4.18351 6.52726 3.69901 6.38701 3.20326 6.29326C2.35576 6.13726 1.40251 6.10576 0.675758 6.76576C-0.0194922 7.39501 -0.288742 8.63701 0.402008 9.36376C1.15201 10.149 2.70301 10.0043 3.67126 9.91426C3.77251 9.90226 4.23001 9.87151 4.67101 9.80851C4.58926 10.332 4.55026 10.863 4.55776 11.3985C0.827258 12.7185 1.12801 21.4965 9.64726 22.5975C20.4443 23.988 21.2453 15.7853 18.7178 13.4565C18.8078 12.9368 18.8588 12.4568 18.882 12.0075C19.3155 12.2108 19.8158 12.3945 19.9208 12.4335C20.823 12.7853 22.2608 13.3515 23.2095 12.8948C24.0848 12.477 24.1935 11.3363 23.721 10.6058C23.2253 9.83626 22.299 9.59401 21.4515 9.48451C20.9475 9.42601 20.4435 9.40276 19.9395 9.42601C19.8885 9.42601 19.6898 9.43801 19.4438 9.45301C20.772 7.62451 20.8425 5.26576 19.764 3.97276C19.5143 3.67576 18.5415 2.74201 18.1118 3.23026C17.8343 3.62101 18.3383 4.39051 18.2993 4.97251C18.2055 5.87101 17.4435 6.58951 16.9395 6.98026C16.221 6.41026 15.576 6.23401 15.576 6.23401L15.2558 6.17551C14.6115 5.67526 13.7243 5.60926 13.7243 5.60926C14.0873 5.17201 15.2865 5.51176 15.2865 5.51176C14.2238 4.44901 12.9743 5.18326 12.9743 5.18326C12.9743 4.66351 12.5955 4.35151 12.5955 4.35151C12.1973 4.65601 12.1815 5.06626 12.1815 5.06626C11.1698 4.00801 10.0605 4.27351 10.0605 4.27351C10.0605 4.27351 11.0408 4.58176 11.2283 5.35201C11.0528 5.31676 10.8765 5.30101 10.6973 5.30476L10.3493 5.23801C9.74776 5.17576 9.13801 5.19901 8.54101 5.30026C8.29501 4.70626 8.02951 3.80026 8.34976 3.01876C8.58826 2.49151 9.38851 2.05426 9.33451 1.57726C9.27226 1.29976 8.98651 1.21426 8.65876 1.21801L8.66026 1.23076ZM10.6913 4.44151C11.301 4.50376 11.8785 4.95301 12.2888 5.43376C12.2925 5.13676 12.336 4.80901 12.558 4.59001C12.7845 4.77751 12.8235 5.16001 12.8078 5.45701C13.335 5.11351 14.0385 4.97626 14.628 5.25376C14.163 5.19151 13.6395 5.31226 13.3898 5.75401C14.1555 5.79676 15.0188 6.01201 15.4875 6.67201C14.796 6.28501 13.8465 5.79676 13.0695 6.30901C13.6088 6.44551 14.1983 6.79726 14.2373 7.41826C13.788 6.79726 13.1003 6.39076 12.339 6.29701C11.6475 6.32401 10.917 6.64051 10.4993 7.19926C10.3935 7.37476 10.3118 7.55476 10.3238 7.21126C10.281 6.53926 11.0618 6.30526 11.5853 6.21526C10.9718 5.91451 10.2728 5.69926 9.59326 5.84026C10.1048 5.42626 10.8158 5.41051 11.4255 5.55901C11.355 5.09776 11.0895 4.69201 10.695 4.43776L10.6913 4.44151ZM2.26201 6.92176C2.43751 6.92176 2.61376 6.94126 2.78551 6.97276C3.07051 7.02376 3.66076 7.18351 3.91426 7.47301C4.16401 7.75801 4.89076 8.83276 3.16426 9.09001C2.60176 9.15226 1.70326 9.25051 1.27351 8.79301C0.882758 8.37076 1.04701 7.63276 1.44901 7.25401C1.71451 7.00426 1.98001 6.92551 2.26126 6.92176H2.26201ZM8.03101 7.92226C8.11726 7.91851 8.20651 7.92601 8.29276 7.94176C10.9448 8.37151 9.43351 12.75 9.43351 12.75L9.14026 12.5468C9.34351 12.0623 9.56626 11.2965 9.55426 10.5353C9.53851 9.46876 8.92501 8.59801 8.18701 8.61751C7.44451 8.62951 6.85501 9.50851 6.87451 10.5863C6.87826 10.8675 6.92176 11.3715 6.99526 11.637C6.99151 11.6213 6.99151 11.5043 6.98776 11.4885L6.30826 11.274C6.30826 11.274 6.32026 7.95376 8.02726 7.92601L8.03101 7.92226ZM15.6405 9.12901C15.7965 9.13276 15.9608 9.15226 16.1363 9.19126C18.078 9.65251 16.8 12.7613 16.8 12.7613L16.1948 12.8625V12.8663C15.5385 12.9675 14.8043 13.077 14.0618 13.2143C14.0385 13.1873 14.0813 13.2458 14.0618 13.2143L13.1985 13.359C13.1985 13.359 13.3043 9.10876 15.6398 9.12826L15.6405 9.12901ZM14.0588 13.281L16.2698 12.9645C16.3868 12.7965 16.4535 12.5228 16.4963 12.3008C16.6995 11.25 16.6523 10.2698 15.9653 9.99976C15.8595 9.95701 15.7463 9.93751 15.633 9.93301C15.0158 9.92101 14.34 10.4723 14.0003 11.3123C13.797 11.832 13.6095 12.945 13.7423 13.3125C13.7933 13.4535 14.2538 13.4333 14.16 13.3283L14.0588 13.281ZM8.26951 9.57001C8.49601 9.57001 8.67976 9.75376 8.67976 9.98026C8.67976 10.203 8.49601 10.3868 8.26951 10.3868C7.72651 10.3868 7.72651 9.57001 8.26951 9.57001ZM21.3713 10.1213C21.5355 10.1213 21.6915 10.137 21.7973 10.1483C22.2893 10.215 22.6995 10.3088 22.989 10.7655C23.2628 11.2028 23.1998 11.8785 22.7003 12.129C22.1573 12.3945 21.3293 12.0585 20.8095 11.8478C19.239 11.1368 20.247 10.4258 20.571 10.2578C20.7743 10.1445 21.0908 10.1168 21.3683 10.1213H21.3713ZM15.4493 10.7655C15.996 10.746 16.0193 11.5665 15.4763 11.5823C14.9295 11.6018 14.9063 10.7813 15.4493 10.7655ZM5.60176 11.508C7.05076 11.4923 8.23876 12.453 9.48076 13.0665C11.1803 13.977 13.1993 13.8638 15.012 13.4145C16.11 13.0785 17.5005 12.8753 18.4418 13.6493C19.6995 14.8995 19.8518 16.86 19.2818 18.438C18.5828 20.4773 16.5788 21.7703 14.5395 22.188C11.9888 22.6373 9.25051 22.5473 6.84001 21.5243C4.08976 20.466 2.14051 17.4345 2.62876 14.466C2.77726 12.9975 4.03876 11.5478 5.58976 11.4975L5.60176 11.508ZM7.37101 13.2578C7.31626 13.2578 7.25776 13.2653 7.20676 13.281C6.78901 13.4063 6.69901 13.953 7.00726 14.5118C7.31551 15.0623 7.90576 15.4103 8.32726 15.285C8.74501 15.1598 8.83501 14.6093 8.52676 14.0543C8.25751 13.5698 7.76926 13.2458 7.37476 13.2533L7.37101 13.2578ZM4.82026 14.199C4.60126 14.1915 4.38676 14.2538 4.20676 14.3745C3.67126 14.757 3.65626 15.7965 4.28101 16.6635C4.90201 17.5305 5.92951 17.9055 6.46051 17.523C6.99601 17.136 6.99151 15.9803 6.37051 15.1125C5.94451 14.5148 5.33176 14.2103 4.81951 14.1983L4.82026 14.199ZM15.5198 14.3708C15.309 14.3745 15.102 14.4218 14.91 14.5155C14.34 14.7893 13.9568 15.3555 14.0543 15.777C14.1518 16.203 14.6948 16.3238 15.2655 16.0545C15.8355 15.7808 16.2188 15.2183 16.1213 14.7968C16.0628 14.5275 15.8243 14.3828 15.5198 14.3745V14.3708ZM4.71901 14.5118C5.35201 14.4923 5.89876 14.9258 6.21901 15.4455C6.51976 15.9765 6.78526 16.8555 6.21526 17.2935C5.34001 17.5005 4.55476 16.719 4.25851 15.9653C4.01251 15.489 4.04776 14.5553 4.72726 14.5163L4.71901 14.5118ZM17.6213 15.9923C17.586 15.9923 17.5508 15.9923 17.5155 15.9923C17.0468 16.0155 16.4843 16.281 16.008 16.758C15.2505 17.5118 15.0158 18.5078 15.4808 18.969C15.9458 19.434 16.9418 19.1955 17.6918 18.4418C18.4455 17.688 18.684 16.692 18.2153 16.2345C18.0548 16.0785 17.8403 15.9923 17.6138 15.996L17.6213 15.9923ZM17.6325 16.3005C17.808 16.3125 17.9843 16.3943 18.0743 16.5465C18.309 17.328 17.7188 18.1245 17.0895 18.5348C16.6635 18.8393 15.8783 19.152 15.5775 18.5468C15.4875 17.4375 16.4918 16.4258 17.5583 16.2968C17.5815 16.2968 17.6093 16.2968 17.6325 16.2968V16.3005ZM7.33576 17.754C7.29301 17.754 7.25401 17.7773 7.23001 17.8125C7.22251 17.8283 7.03876 18.1253 6.68326 18.1208C6.60901 18.1208 6.55051 18.1793 6.55426 18.2535C6.55426 18.3158 6.60901 18.3705 6.67126 18.3825H6.68701C6.79651 18.3825 6.90151 18.363 7.00351 18.324C7.22251 18.7575 8.10526 20.226 10.2848 20.574C12.4958 20.9295 14.1555 19.836 14.5853 19.5233C14.6828 19.6013 14.7998 19.656 14.925 19.6838H14.9408C15.003 19.6913 15.066 19.6485 15.0773 19.5863C15.093 19.5158 15.0458 19.4453 14.976 19.4303C14.628 19.3523 14.5035 19.02 14.4953 19.0043C14.472 18.9375 14.3978 18.8985 14.331 18.9225C14.2605 18.942 14.2253 19.0163 14.2493 19.083C14.253 19.095 14.2965 19.212 14.394 19.341C13.9605 19.6418 12.3743 20.5988 10.3043 20.31C8.37451 20.0363 7.47601 18.6188 7.24576 18.1965C7.38226 18.087 7.45276 17.97 7.46026 17.9618C7.49551 17.895 7.47226 17.817 7.40926 17.7818C7.38601 17.7698 7.36201 17.7623 7.33501 17.7623L7.33576 17.754Z" fill="black"/>
</g>
<defs>
<clipPath id="clip0_201_57800">
<rect width="24" height="24" fill="white"/>
</clipPath>
</defs>
</svg>
