<svg width="24" height="24" viewBox="0 0 24 24" fill="none" xmlns="http://www.w3.org/2000/svg">
<g clip-path="url(#clip0_201_58160)">
<path d="M7.24574 22.5C8.73374 23.16 10.3042 23.574 12.039 23.574C13.7775 23.574 15.4297 23.16 16.836 22.5C15.2655 21.426 13.6132 20.1015 12.039 18.6953C10.4722 20.1015 8.81625 21.426 7.24574 22.5ZM21.9607 17.8673C22.992 16.086 23.5312 14.0588 23.5312 12C23.5312 10.2653 23.1172 8.60926 22.4572 7.20301C20.7225 9.76951 18.2422 12.66 15.4297 15.4725C14.8515 16.0508 14.1915 16.7108 13.5277 17.289C13.2817 17.043 13.032 16.797 12.7035 16.5465C13.3792 15.9525 14.0122 15.3203 14.6055 14.6445C17.664 11.586 20.2267 8.52751 21.879 5.96476C23.781 3.07051 24.2775 1.25401 23.4495 0.343511C23.3677 0.179261 22.9537 0.011261 22.539 0.011261C21.5467 0.011261 19.8945 0.757511 17.91 2.07751C16.1752 1.08901 14.1915 0.425261 12.039 0.425261C9.89024 0.425261 7.90649 1.00351 6.17174 2.07751C4.18724 0.757511 2.53499 0.011261 1.54274 0.011261C1.04699 0.011261 0.714745 0.179261 0.468745 0.425261C-1.51576 2.40976 4.68374 10.101 9.31274 14.7263C14.7697 20.1833 20.2267 23.988 22.539 23.988C23.0347 23.988 23.367 23.82 23.613 23.574C24.441 22.746 23.9452 20.8478 22.0462 17.9528L21.9607 17.8673ZM22.539 1.08976C22.6207 1.08976 22.7887 1.08976 22.8712 1.17151C23.1172 1.41751 23.0355 2.49151 21.3832 5.13601C20.7232 4.23001 19.8952 3.31951 18.903 2.65576C20.5552 1.66351 21.7972 1.08901 22.5397 1.08901L22.539 1.08976ZM2.69924 5.13676C1.29299 2.90626 0.878995 1.50001 1.21124 1.17226C1.29299 1.09051 1.46099 1.09051 1.54349 1.09051C2.28599 1.09051 3.52799 1.66501 5.18024 2.65726C4.27424 3.39976 3.44174 4.23151 2.69999 5.13751L2.69924 5.13676ZM22.8712 22.8285C22.785 22.9103 22.6215 22.9103 22.539 22.9103C21.7965 22.9103 20.5545 22.3358 18.9022 21.3435C19.8127 20.6798 20.7225 19.8555 21.3825 18.8633C23.0347 21.5078 23.1172 22.5818 22.8705 22.8278L22.8712 22.8285ZM10.719 17.457C9.97274 16.797 9.23099 16.1325 8.56649 15.3908C5.84024 12.66 3.19574 9.60151 1.53899 7.12126C0.882745 8.60926 0.468745 10.266 0.468745 11.9183C0.468745 14.067 1.04699 16.0508 2.03924 17.7855L1.95749 17.8673C0.0554947 20.7615 -0.441005 22.5818 0.386995 23.4923C0.632995 23.7383 1.04699 23.9025 1.46099 23.9025C3.27749 23.9025 6.99974 21.5903 11.133 17.9535C10.977 17.8013 10.8397 17.637 10.719 17.4578V17.457ZM1.53899 22.9103C1.46099 22.9103 1.29299 22.9103 1.21049 22.8285C0.964495 22.5825 1.04624 21.5085 2.69849 18.864C3.35849 19.77 4.18649 20.5988 5.17874 21.3443C3.52274 22.3365 2.28449 22.911 1.53824 22.911L1.53899 22.9103Z" fill="black"/>
</g>
<defs>
<clipPath id="clip0_201_58160">
<rect width="24" height="24" fill="white"/>
</clipPath>
</defs>
</svg>
