<svg width="24" height="24" viewBox="0 0 24 24" fill="none" xmlns="http://www.w3.org/2000/svg">
<path d="M20.6992 15.402L18.8055 10.4377H20.2192L21.6052 14.0197L22.9845 10.4377H23.9452L22.0275 15.402H20.6992ZM16.2967 9.60222V8.48022H17.637V9.60222H16.2967ZM16.2967 15.4057V10.4377H17.637V15.402L16.2967 15.4057ZM9.33221 15.4057L11.4802 12.105L9.43046 8.70672H11.0595L12.4222 10.9605L13.8982 8.70672H15.0202L12.9735 11.8627L15.1027 15.3975H13.4775L12.0277 12.9997L10.4737 15.3975H9.33296L9.33221 15.4057ZM5.98796 15.4057V10.4377H7.32371V11.3745C7.66796 10.6755 8.19896 10.3237 8.90996 10.3237C8.99171 10.3237 9.07796 10.332 9.15596 10.3477V11.5425C8.98796 11.4795 8.80871 11.4442 8.62871 11.4405C8.08946 11.4405 7.65971 11.7067 7.32371 12.2415V15.4057H5.98796ZM2.96096 14.8672C2.51621 15.3015 2.03921 15.5205 1.52321 15.5205C1.12946 15.5317 0.749962 15.3915 0.461212 15.1215C0.188212 14.8522 0.043462 14.4772 0.055462 14.0902C0.035212 13.5825 0.285712 13.098 0.715462 12.8205C1.15271 12.5235 1.78121 12.3712 2.59871 12.3712H2.95346V11.9182C2.95346 11.406 2.66021 11.148 2.07446 11.148C1.51646 11.16 0.969712 11.3122 0.488212 11.5897V10.668C1.06196 10.4407 1.67621 10.3237 2.29721 10.3237C3.59846 10.3237 4.24646 10.8397 4.24646 11.871V14.0782C4.24646 14.469 4.36721 14.6602 4.62146 14.6602C4.68071 14.6602 4.73846 14.652 4.79771 14.6415L4.82846 15.3915C4.58621 15.4695 4.33271 15.5122 4.07846 15.5205C3.52346 15.5205 3.17621 15.3052 3.01646 14.8717H2.96546L2.96096 14.8672ZM2.96096 14.148V13.1407H2.64071C1.77296 13.1407 1.34396 13.4137 1.34396 13.953C1.33571 14.3122 1.62521 14.6017 1.97996 14.6017C2.31221 14.6047 2.62871 14.4525 2.96096 14.148Z" fill="black"/>
</svg>
