<svg width="24" height="24" viewBox="0 0 24 24" fill="none" xmlns="http://www.w3.org/2000/svg">
<g clip-path="url(#clip0_201_58248)">
<path d="M12.0157 0C5.39471 0 0.02771 5.367 0.02771 11.988C0.02771 17.0662 3.18821 21.402 7.64846 23.148C7.54271 22.1985 7.44896 20.7458 7.68746 19.7108C7.90646 18.7733 9.09371 13.7535 9.09371 13.7535C9.09371 13.7535 8.73446 13.0305 8.73446 11.9722C8.73446 10.308 9.70346 9.06225 10.9027 9.06225C11.9265 9.06225 12.4222 9.828 12.4222 10.7498C12.4222 11.7773 11.7697 13.3162 11.43 14.742C11.145 15.9338 12.0277 16.9058 13.2037 16.9058C15.333 16.9058 16.9732 14.6595 16.9732 11.4172C16.9732 8.5575 14.9107 6.54975 11.9655 6.54975C8.55521 6.54975 6.55496 9.1125 6.55496 11.7487C6.55496 12.78 6.94946 13.8892 7.44596 14.487C7.54346 14.6077 7.55546 14.7135 7.52771 14.835C7.43771 15.21 7.23446 16.0343 7.19546 16.1985C7.14071 16.4212 7.02371 16.4677 6.79346 16.3627C5.30096 15.6712 4.35971 13.4835 4.35971 11.718C4.35971 7.941 7.10996 4.464 12.282 4.464C16.4385 4.464 19.6725 7.4325 19.6725 11.3857C19.6725 15.5227 17.067 18.8505 13.4422 18.8505C12.2272 18.8505 11.0865 18.2213 10.6845 17.4713L9.93446 20.319C9.66521 21.3622 8.93021 22.6702 8.43446 23.4637C9.55946 23.8072 10.743 23.9993 11.985 23.9993C18.5947 23.9993 23.9692 18.636 23.9692 12.0112C23.9692 5.39025 18.594 0.027 11.985 0.027L12.0157 0Z" fill="black"/>
</g>
<defs>
<clipPath id="clip0_201_58248">
<rect width="24" height="24" fill="white"/>
</clipPath>
</defs>
</svg>
