<svg width="24" height="24" viewBox="0 0 24 24" fill="none" xmlns="http://www.w3.org/2000/svg">
<path d="M20.6798 3.17168C18.4845 -0.0158194 14.1878 -0.937569 10.8788 1.07018L5.28079 4.62893C3.74929 5.58968 2.69854 7.15268 2.39029 8.92943C2.11654 10.4062 2.35504 11.9332 3.05854 13.2614C2.57779 13.9844 2.25379 14.8004 2.10904 15.6599C1.78879 17.4644 2.20654 19.3237 3.26929 20.8199C5.46829 23.9999 9.75379 24.9254 13.0703 22.9409L18.672 19.3784C20.1953 18.4177 21.2423 16.8547 21.5513 15.0779C21.8205 13.6049 21.5828 12.0817 20.8793 10.7617C22.3673 8.42543 22.2893 5.42168 20.6798 3.17168ZM10.32 21.1289C8.51929 21.5977 6.61654 20.8904 5.55829 19.3597C4.90954 18.4612 4.67179 17.3519 4.85929 16.2502L4.96879 15.7192L5.07004 15.3907L5.37079 15.5902C6.03079 16.0904 6.76954 16.4497 7.55854 16.6919L7.76179 16.7624L7.73854 16.9619C7.71904 17.2394 7.80079 17.5514 7.96129 17.7899C8.28979 18.2624 8.85979 18.4889 9.41029 18.3404C9.53104 18.3014 9.64879 18.2624 9.75004 18.1994L15.3285 14.6407C15.6098 14.4607 15.7898 14.1914 15.8595 13.8712C15.9218 13.5389 15.84 13.1992 15.66 12.9299C15.3278 12.4687 14.7615 12.2617 14.211 12.3989C14.0903 12.4417 13.9613 12.4889 13.8593 12.5512L11.7495 13.8907C9.75379 15.0779 7.17529 14.5199 5.85079 12.6097C5.20654 11.7112 4.95229 10.5899 5.14729 9.50018C5.34229 8.42168 5.98729 7.47668 6.92104 6.89843L12.4875 3.33968C12.8393 3.12068 13.218 2.96093 13.6283 2.83943C15.429 2.37068 17.3273 3.07793 18.39 4.60118C19.14 5.65568 19.3508 7.00343 18.96 8.23793L18.8588 8.57018L18.57 8.37068C17.9018 7.88243 17.16 7.51118 16.371 7.26893L16.1715 7.21043L16.191 7.01093C16.2105 6.71768 16.1288 6.40943 15.9683 6.17093C15.6398 5.69843 15.0698 5.49893 14.5193 5.63993C14.3985 5.67893 14.2808 5.71793 14.1795 5.78093L8.58979 9.37043C8.30854 9.55793 8.12854 9.81968 8.07004 10.1474C8.01154 10.4677 8.08954 10.8194 8.26954 11.0774C8.58979 11.5499 9.17179 11.7494 9.71104 11.6084C9.84004 11.5694 9.96079 11.5304 10.059 11.4674L12.192 10.1077C12.54 9.87743 12.93 9.70943 13.329 9.59993C15.1418 9.12743 17.0325 9.83843 18.0908 11.3692C18.7395 12.2677 18.9893 13.3769 18.8093 14.4667C18.6218 15.5452 17.985 16.4902 17.0595 17.0684L11.481 20.6189C11.118 20.8379 10.7273 21.0097 10.3208 21.1267L10.32 21.1289Z" fill="black"/>
</svg>
