<svg width="24" height="24" viewBox="0 0 24 24" fill="none" xmlns="http://www.w3.org/2000/svg">
<g clip-path="url(#clip0_201_57882)">
<path d="M22.8008 7.38299C23.9258 4.67999 24 2.42999 22.6485 1.08224C21.1485 -0.417761 17.5508 0.0314894 13.7265 1.83224H13.2773C10.5743 1.83224 7.95302 2.80874 6.00377 4.53149C4.35152 6.03149 3.15227 7.98074 2.62877 10.1565C3.00377 9.70724 5.10152 7.23074 7.50377 5.88299C7.57802 5.88299 8.17577 5.50799 8.17577 5.50799C8.10152 5.50799 6.97652 6.63299 6.75377 6.85574C1.50377 12.258 -1.57048 20.43 0.82802 22.8285C2.40227 24.4027 5.25377 24.0277 8.55077 22.2307C9.97652 22.9027 11.5508 23.2035 13.2773 23.2035C15.5273 23.2035 17.625 22.6057 19.4258 21.4027C21.3008 20.2035 22.6485 18.3285 23.4765 16.1565H17.625C16.875 17.5785 15.1523 18.555 13.3515 18.555C10.8008 18.555 8.69927 16.4535 8.62877 14.055V13.8285H23.9258V13.6057C23.9258 13.2307 24 12.7815 24 12.4807C24 10.68 23.5508 8.95724 22.8008 7.38299ZM2.47652 22.3792C1.27727 21.18 1.65227 18.8557 3.07802 16.0822C3.75377 17.9572 4.87877 19.6057 6.30077 20.805C6.75377 21.18 7.27727 21.555 7.80077 21.8557C5.40227 23.1292 3.45302 23.3557 2.47652 22.3792ZM17.8515 10.9807H8.70302V10.9065C8.85152 8.58224 11.0273 6.55874 13.5743 6.55874C15.9765 6.55874 17.9258 8.43374 18.0743 10.9065V10.9807H17.8515ZM22.4258 6.78149C21.9765 6.03149 21.375 5.28149 20.6993 4.68374C19.6523 3.71099 18.4335 2.94524 17.1015 2.43374C19.5 1.30874 21.5235 1.15649 22.5743 2.20724C23.3985 3.18374 23.3243 4.83224 22.4258 6.78149C22.4258 6.85574 22.4258 6.85574 22.4258 6.78149C22.4258 6.85574 22.4258 6.85574 22.4258 6.78149Z" fill="black"/>
</g>
<defs>
<clipPath id="clip0_201_57882">
<rect width="24" height="24" fill="white"/>
</clipPath>
</defs>
</svg>
