<svg width="24" height="24" viewBox="0 0 24 24" fill="none" xmlns="http://www.w3.org/2000/svg">
<g clip-path="url(#clip0_201_57674)">
<path d="M16.8202 5.13301L16.5623 7.12501L18.996 7.84351L19.0275 9.99226L21.258 10.035L21.2033 12.2888L23.3715 12.1478C23.3752 11.3903 23.4225 7.10476 24.0007 5.13226L16.8202 5.13301ZM11.3558 18.2385C11.4105 18.0278 11.3558 17.3363 11.3558 17.094L11.3085 15.633C9.285 15.5468 7.1055 15.9533 7.1055 17.8163C7.1055 18.2228 7.27725 18.5858 7.5315 18.867H10.8442C11.094 18.726 11.2778 18.531 11.3558 18.2378V18.2385ZM20.391 13.0665L20.442 10.8203L18.2385 10.7775L18.2033 8.35576L15.6757 7.49251L16.0155 5.13301H6.58575C2.76525 5.13301 0 8.38726 0 11.9498V18.8678H4.1175C4.0905 18.618 4.08225 18.3638 4.09425 18.114C4.24275 14.4458 8.2935 13.8173 11.3363 13.9073V12.8528C11.2852 12.0015 10.5938 11.247 8.59425 11.247C7.26225 11.247 5.6805 11.4188 4.65675 11.79L4.926 9.40351C5.90625 9.12976 7.008 8.86051 9.3795 8.86051C13.9537 8.86051 14.4577 10.8878 14.4225 13.2435L14.3993 18.8685H16.8795V18.8648L16.9733 18.8685C20.2778 18.8685 22.9965 16.1768 23.3363 12.9503L20.391 13.0665Z" fill="black"/>
</g>
<defs>
<clipPath id="clip0_201_57674">
<rect width="24" height="24" fill="white"/>
</clipPath>
</defs>
</svg>
