<svg width="24" height="24" viewBox="0 0 24 24" fill="none" xmlns="http://www.w3.org/2000/svg">
<g clip-path="url(#clip0_201_58580)">
<path d="M11.652 0.17627V2.37902H9.684V2.95727H11.652V5.16002H12.3517V2.95727H14.3197V2.37902H12.3517V0.17627H11.652ZM17.6842 2.43827V5.68427H14.727V6.60902H17.6842V9.79727H18.7275L18.7342 8.21552L18.7582 6.64127L20.223 6.61727L21.6803 6.60902V5.68427H18.7275V2.43827H17.6842ZM5.277 2.49602V5.68802H2.289V6.60902H5.277V9.80102H6.26175V6.60902H9.273V5.68427H6.26175V2.49602H5.277ZM11.3632 7.76627V11.3595H8.0595V12.5475H11.3632V16.1453H12.645V12.5475H15.9532V11.3595H12.645V7.76627H11.3632ZM21.0863 9.31577V11.535H19.0702V12.348H21.0863V14.6093H21.9735V12.348H24.0007V11.535H21.9735V9.31577H21.0863ZM1.97325 9.44477V11.6205H0V12.2415H1.97325V14.4375H2.6415V12.2415H4.64175V11.6205H2.61V9.44477H1.97325ZM17.6842 13.965V17.2193H14.664V18.1455H17.6842V21.3593H18.7545V18.1455H21.7388V17.2193H18.7545V13.965H17.6842ZM5.21925 13.9733V17.2193H2.262V18.1455H5.21925V21.3368H6.32025V18.1455H9.273V17.2193H6.32025V13.9695H5.7705L5.21925 13.9733ZM11.535 18.5513V20.754H9.56625V21.5618H11.535V23.8238H12.465L12.477 22.707L12.492 21.5618H14.4653V20.754H12.465V18.5513H11.535Z" fill="black"/>
</g>
<defs>
<clipPath id="clip0_201_58580">
<rect width="24" height="24" fill="white"/>
</clipPath>
</defs>
</svg>
