<svg width="24" height="24" viewBox="0 0 24 24" fill="none" xmlns="http://www.w3.org/2000/svg">
<g clip-path="url(#clip0_201_57978)">
<path d="M21.9998 18.6757L17.5658 16.1205L12.7845 18.8827V24L21.9998 18.6757ZM11.2148 24V18.8827L6.42975 16.1168L1.9995 18.6757L11.2148 24ZM11.9963 17.523L16.785 14.7623V9.234L12 6.477L7.215 9.234V14.7623L11.9963 17.523ZM1.21875 6.684V17.3243L5.652 14.766V9.23775L1.21875 6.6795V6.684ZM20.8358 7.80525L18.3517 9.2385V14.7623L22.7805 17.3205V6.68025L20.8358 7.80525ZM2.00025 5.32425L6.438 7.88325L11.2192 5.121V0.00375L2.00025 5.32425ZM17.5658 7.88325L21.9998 5.32425L12.7808 0V5.121L17.5658 7.88325Z" fill="black"/>
</g>
<defs>
<clipPath id="clip0_201_57978">
<rect width="24" height="24" fill="white"/>
</clipPath>
</defs>
</svg>
