<svg width="24" height="24" viewBox="0 0 24 24" fill="none" xmlns="http://www.w3.org/2000/svg">
<g clip-path="url(#clip0_201_57492)">
<path d="M0.0314941 16.4295V1.11677C0.0314941 0.499518 0.531744 -0.000732422 1.14899 -0.000732422H22.8015C23.4262 -0.000732422 23.9227 0.499518 23.9227 1.12052V15.8783C23.2507 15.468 22.4617 15.2648 21.5632 15.2648C20.3092 15.2648 19.3597 15.5618 18.7117 16.1595C18.0592 16.7573 17.739 17.4878 17.739 18.3863C17.739 19.3553 18.0712 20.0738 18.7387 20.535C19.1295 20.82 19.848 21.0743 20.8792 21.297L21.93 21.5355C22.5592 21.672 23.0002 21.8363 23.2897 21.9968C23.571 22.1805 23.7195 22.434 23.7195 22.7625C23.7195 23.3288 23.4307 23.7195 22.8487 23.9108L22.8217 23.9265H20.6107C20.322 23.8208 20.0992 23.6723 19.9192 23.4773C19.7392 23.2545 19.6185 22.9268 19.56 22.4655H17.5792C17.5792 23.028 17.685 23.5088 17.9115 23.9423H16.2315C16.419 23.5553 16.5285 23.1218 16.5285 22.626C16.5285 21.747 16.2315 21.075 15.6457 20.61C15.2707 20.313 14.7045 20.0745 13.9545 19.8953L12.2355 19.4933C11.5755 19.3523 11.1457 19.212 10.935 19.0913C10.6267 18.9113 10.4782 18.642 10.4782 18.3023C10.4782 17.9235 10.6387 17.6228 10.947 17.4113C11.2755 17.2005 11.697 17.103 12.2362 17.103C12.7282 17.103 13.1152 17.193 13.4475 17.361C13.9395 17.619 14.1975 18.0525 14.2365 18.6503H16.2367C16.2052 17.6033 15.8227 16.7985 15.0885 16.2443C14.3422 15.6975 13.4632 15.4125 12.4162 15.4125C11.1622 15.4125 10.221 15.7133 9.56474 16.2915C8.92424 16.8735 8.59575 17.6198 8.59575 18.5025C8.59575 19.4715 8.92424 20.19 9.59549 20.6513C9.99374 20.9205 10.713 21.1748 11.7442 21.4133L12.7875 21.6518C13.401 21.7883 13.8502 21.9368 14.151 22.1168C14.4285 22.2968 14.5807 22.5465 14.5807 22.8788C14.5807 23.4488 14.28 23.8163 13.698 24.027H11.46C11.175 23.9213 10.9402 23.7728 10.7685 23.562C10.5885 23.343 10.4602 22.9995 10.401 22.5503H8.38124C8.38124 23.1053 8.48699 23.5973 8.70149 24.027H6.61199C6.94424 23.5073 7.16699 22.9095 7.27574 22.2383H5.22074C5.07974 22.7498 4.90799 23.1368 4.69724 23.3903C4.43549 23.7188 4.09574 23.9295 3.67799 24.0345H2.45174C1.99874 23.9288 1.61174 23.6753 1.29974 23.2725C0.838494 22.7138 0.611994 21.8783 0.611994 20.7728C0.611994 19.6515 0.842244 18.804 1.27199 18.1943C1.72124 17.5808 2.30324 17.2838 3.06074 17.2838C3.81074 17.2838 4.36124 17.4908 4.75199 17.928C4.96274 18.1665 5.14274 18.5258 5.27174 19.002H7.35374C7.32224 18.3848 7.09199 17.7638 6.66599 17.1428C5.89274 16.041 4.67399 15.4905 3.00224 15.4905C1.84199 15.4905 0.869244 15.8535 0.0922441 16.5533L0.0412441 16.4438L0.0314941 16.4295ZM23.9257 20.0625V18.5115H23.406C23.3707 17.9138 23.109 17.4878 22.6245 17.2343C22.3117 17.07 21.906 16.9883 21.4327 16.9883C20.8897 16.9883 20.4757 17.0978 20.1592 17.3085C19.851 17.523 19.683 17.8283 19.683 18.2108C19.683 18.5663 19.851 18.8318 20.1592 19.008C20.382 19.1138 20.8117 19.2623 21.4717 19.41L23.1907 19.8203C23.4915 19.8825 23.7495 19.9725 23.9917 20.0505L23.9407 20.082L23.9257 20.0625Z" fill="black"/>
</g>
<defs>
<clipPath id="clip0_201_57492">
<rect width="24" height="24" fill="white"/>
</clipPath>
</defs>
</svg>
