<svg width="24" height="24" viewBox="0 0 24 24" fill="none" xmlns="http://www.w3.org/2000/svg">
<g clip-path="url(#clip0_201_57364)">
<path d="M7.76252 12.0915C7.76252 12.6 7.35827 12.987 6.84602 12.987C6.46277 12.987 6.17927 12.7703 6.17927 12.3623C6.17927 11.8538 6.57527 11.4458 7.08377 11.4458C7.47152 11.4458 7.76327 11.6835 7.76327 12.0915H7.76252ZM3.35402 10.071H3.15827C3.09602 10.071 3.03302 10.113 3.02477 10.1835L2.84552 11.2965L3.18752 11.2838C3.64577 11.2838 3.99977 11.2215 4.08302 10.692C4.17902 10.1333 3.82502 10.071 3.35402 10.071ZM15.1875 10.071H15C14.925 10.071 14.8748 10.113 14.8665 10.1835L14.6918 11.2965L15.0248 11.2838C15.5663 11.2838 15.9413 11.1585 15.9413 10.5338C15.9368 10.092 15.5415 10.071 15.1868 10.071H15.1875ZM24 4.66651V19.3335C24 20.4375 23.1045 21.3338 21.9998 21.3338H1.99952C0.895517 21.3338 -0.000732422 20.4383 -0.000732422 19.3335V4.66651C-0.000732422 3.56251 0.894767 2.66626 1.99952 2.66626H21.9998C23.1038 2.66626 24 3.56176 24 4.66651ZM5.34602 10.308C5.34602 9.43276 4.67102 9.14101 3.90002 9.14101H2.23352C2.12927 9.14101 2.02502 9.22426 2.01677 9.33676L1.33352 13.5908C1.32077 13.674 1.38377 13.7573 1.46702 13.7573H2.25902C2.37152 13.7573 2.47577 13.6365 2.48852 13.5195L2.67602 12.411C2.71802 12.111 3.22577 12.2153 3.42602 12.2153C4.61777 12.2153 5.34677 11.5073 5.34677 10.3073L5.34602 10.308ZM8.85452 10.6748H8.06252C7.90427 10.6748 7.89602 10.9043 7.88777 11.0168C7.64627 10.6628 7.29602 10.5998 6.90002 10.5998C5.87927 10.5998 5.10002 11.4953 5.10002 12.483C5.10002 13.2953 5.60852 13.8248 6.42077 13.8248C6.79577 13.8248 7.26227 13.6208 7.52477 13.329C7.50377 13.3913 7.48277 13.5248 7.48277 13.5878C7.48277 13.6838 7.52477 13.7543 7.61627 13.7543H8.33327C8.44577 13.7543 8.54177 13.6335 8.56277 13.5165L8.98802 10.8375C9.00077 10.758 8.93777 10.6748 8.85452 10.6748ZM10.542 14.754L13.1963 10.8953C13.2173 10.8743 13.2173 10.8533 13.2173 10.8248C13.2173 10.7543 13.155 10.6793 13.0838 10.6793H12.2835C12.213 10.6793 12.138 10.7213 12.096 10.7835L10.992 12.4088L10.5338 10.8465C10.5008 10.755 10.4085 10.68 10.3043 10.68H9.52502C9.45377 10.68 9.39152 10.755 9.39152 10.8255C9.39152 10.8758 10.2038 13.1925 10.275 13.413C10.1625 13.5713 9.42077 14.6048 9.42077 14.73C9.42077 14.805 9.48302 14.8635 9.55427 14.8635H10.3545C10.4295 14.8598 10.5 14.8178 10.542 14.7555V14.754ZM17.1795 10.308C17.1795 9.43276 16.5045 9.14101 15.7335 9.14101H14.079C13.9665 9.14101 13.8623 9.22426 13.8495 9.33676L13.1745 13.587C13.1663 13.6703 13.2285 13.7535 13.308 13.7535H14.1623C14.2455 13.7535 14.3078 13.6913 14.3288 13.62L14.5163 12.4118C14.5583 12.1118 15.0668 12.216 15.2663 12.216C16.4498 12.216 17.1788 11.508 17.1788 10.308H17.1795ZM20.6873 10.6748H19.8953C19.737 10.6748 19.7288 10.9043 19.716 11.0168C19.4865 10.6628 19.1325 10.5998 18.7283 10.5998C17.7075 10.5998 16.9283 11.4953 16.9283 12.483C16.9283 13.2953 17.4368 13.8248 18.249 13.8248C18.6368 13.8248 19.1033 13.6208 19.353 13.329C19.3403 13.3913 19.311 13.5248 19.311 13.5878C19.311 13.6838 19.353 13.7543 19.4445 13.7543H20.1653C20.2778 13.7543 20.3738 13.6335 20.3948 13.5165L20.82 10.8375C20.8328 10.758 20.7698 10.6748 20.6865 10.6748H20.6873ZM22.6665 9.28726C22.6665 9.20401 22.6043 9.14176 22.533 9.14176H21.762C21.6998 9.14176 21.6368 9.19201 21.6285 9.25426L20.9535 13.5878L20.9415 13.6088C20.9415 13.6838 21.0038 13.7543 21.087 13.7543H21.7748C21.879 13.7543 21.9833 13.6335 21.9915 13.5165L22.6665 9.30001V9.28726ZM18.9165 11.4458C18.408 11.4458 18.012 11.85 18.012 12.3623C18.012 12.7665 18.3038 12.987 18.687 12.987C19.1873 12.987 19.5915 12.6038 19.5915 12.0915C19.596 11.6835 19.3043 11.4458 18.9165 11.4458Z" fill="black"/>
</g>
<defs>
<clipPath id="clip0_201_57364">
<rect width="24" height="24" fill="white"/>
</clipPath>
</defs>
</svg>
