<svg width="24" height="24" viewBox="0 0 24 24" fill="none" xmlns="http://www.w3.org/2000/svg">
<path d="M15.336 23.9805L22.5548 22.4183C22.5548 22.4183 19.9493 4.80525 19.9298 4.6875C19.9103 4.56975 19.8128 4.49625 19.719 4.49625C19.6215 4.49625 17.7893 4.35975 17.7893 4.35975C17.7893 4.35975 16.512 3.08625 16.3478 2.94975C16.305 2.91075 16.2735 2.89125 16.227 2.8755L15.3128 23.9813L15.336 23.9805ZM11.7113 11.3048C11.7113 11.3048 10.899 10.8825 9.93754 10.8825C8.48854 10.8825 8.43379 11.7847 8.43379 12.0233C8.43379 13.254 11.6723 13.7377 11.6723 16.6522C11.6723 18.945 10.2308 20.4097 8.26579 20.4097C5.91004 20.4097 4.72654 18.945 4.72654 18.945L5.37079 16.8592C5.37079 16.8592 6.61654 17.9257 7.65229 17.9257C8.32804 17.9257 8.62879 17.3827 8.62879 16.992C8.62879 15.375 5.97229 15.3008 5.97229 12.6368C5.93704 10.3988 7.54279 8.2185 10.8008 8.2185C12.0585 8.2185 12.6758 8.57775 12.6758 8.57775L11.7308 11.2965L11.7113 11.3048ZM11.172 0.828C11.3048 0.828 11.4413 0.867 11.574 0.9645C10.5893 1.4295 9.51154 2.6055 9.06604 4.95675C8.40979 5.17125 7.77304 5.36325 7.17904 5.535C7.69503 3.75 8.94829 0.84 11.1713 0.84L11.172 0.828ZM12.4065 3.777V3.9135C11.6528 4.14375 10.8203 4.398 10.0118 4.64775C10.4768 2.87025 11.3438 2.00325 12.0975 1.67925C12.2888 2.1795 12.4058 2.85525 12.4058 3.777H12.4065ZM12.945 1.54725C13.6365 1.61775 14.0858 2.4105 14.3708 3.3015C14.0228 3.41475 13.6365 3.53175 13.2143 3.6645V3.41475C13.2143 2.661 13.1168 2.04375 12.945 1.5435V1.54725ZM15.9375 2.83575C15.9143 2.83575 15.8753 2.85525 15.8595 2.85525C15.84 2.85525 15.5708 2.9295 15.1448 3.066C14.7225 1.8315 13.9688 0.69525 12.6368 0.69525H12.5198C12.1373 0.21075 11.6685 0 11.2658 0C8.16004 0 6.67579 3.879 6.21079 5.84775C5.01529 6.21075 4.14829 6.48075 4.05079 6.51975C3.37504 6.73425 3.35554 6.7545 3.27754 7.3905C3.20329 7.85175 1.44904 21.453 1.44904 21.453L15.0075 24L15.9375 2.83575Z" fill="black"/>
</svg>
