<svg width="24" height="24" viewBox="0 0 24 24" fill="none" xmlns="http://www.w3.org/2000/svg">
<g clip-path="url(#clip0_201_58226)">
<path d="M19.0505 0H4.94827C2.24902 0 -0.000976562 2.223 -0.000976562 4.94925V19.0515C-0.000976562 21.7507 2.21827 24.0007 4.94827 24.0007H19.0505C21.7768 24.0007 23.9998 21.7778 23.9998 19.0515V4.94925C23.9998 2.25 21.7768 0 19.0505 0V0ZM12.3748 15.8123H11.1448V18.6022C11.1448 18.9615 10.844 19.2465 10.4998 19.2465H6.64477V4.75875H13.199C16.3828 4.75875 18.8443 6.4065 18.8443 10.1565C18.8443 13.7115 16.1135 15.8092 12.3913 15.8092H12.3755L12.3748 15.8123Z" fill="black"/>
</g>
<defs>
<clipPath id="clip0_201_58226">
<rect width="24" height="24" fill="white"/>
</clipPath>
</defs>
</svg>
