<svg width="24" height="24" viewBox="0 0 24 24" fill="none" xmlns="http://www.w3.org/2000/svg">
<g clip-path="url(#clip0_201_58404)">
<path d="M16.6095 11.1098V16.8285C16.578 17.6955 15.9263 18.4103 15.0705 18.5198H11.0708C10.4025 18.4725 9.85575 17.9648 9.762 17.301C9.7545 17.2388 9.7545 17.1803 9.762 17.121C9.76575 16.3673 10.3793 15.7613 11.1293 15.7613H12.8715C13.422 15.7613 13.8713 15.312 13.8713 14.7615V11.1405C13.8675 10.449 14.367 9.85952 15.051 9.75002H15.219C15.981 9.73802 16.6058 10.3478 16.6095 11.1098ZM10.1483 12.8513V9.26177C10.1483 8.70677 10.5975 8.26202 11.148 8.26202H12.9998C13.7573 8.26202 14.3708 7.64852 14.3708 6.89102C14.3745 6.83252 14.3745 6.77777 14.3708 6.71927C14.25 6.03152 13.656 5.52752 12.9608 5.52002H9C8.14425 5.62952 7.48425 6.32102 7.422 7.18052V12.8798C7.422 13.6373 8.0355 14.2508 8.78925 14.2508H9C9.67575 14.13 10.1603 13.536 10.1483 12.852V12.8513ZM22.1483 8.55827V19.9995C21.9023 22.1558 20.1638 23.8313 18 23.9993H10.422C5.69175 23.9955 1.85925 20.1593 1.85925 15.429V4.53827C1.85925 2.03027 3.89475 -0.000732422 6.39825 -0.000732422H13.578C18.3083 -0.000732422 22.1408 3.83102 22.1408 8.55752L22.1483 8.55827ZM19.41 8.55827C19.4063 5.34752 16.8008 2.74577 13.59 2.73827H6.39825C5.40225 2.73452 4.59375 3.54302 4.60125 4.53902V15.4298C4.617 18.633 7.21425 21.2228 10.4213 21.2303H17.859C18.6443 21.129 19.269 20.5268 19.398 19.7498L19.41 8.55827Z" fill="black"/>
</g>
<defs>
<clipPath id="clip0_201_58404">
<rect width="24" height="24" fill="white"/>
</clipPath>
</defs>
</svg>
