<svg width="24" height="24" viewBox="0 0 24 24" fill="none" xmlns="http://www.w3.org/2000/svg">
<g clip-path="url(#clip0_201_58276)">
<path d="M13.527 0.0982847C6.95328 -0.741715 0.941285 3.89853 0.0982847 10.473C-0.741715 17.0468 3.89853 23.0588 10.473 23.9018C17.0468 24.7418 23.0588 20.1015 23.898 13.527C24.7418 6.95328 20.1023 0.941285 13.527 0.0982847ZM15.996 7.58628C15.7733 7.58628 15.5618 7.67628 15.4058 7.83603L10.953 12.285L10.6448 11.9798L10.0035 11.3355C14.3903 6.96078 15.1838 6.91728 15.9953 7.58554L15.996 7.58628ZM11.1368 12.4448L15.5738 8.00403C15.8198 7.74603 16.23 7.74978 16.4768 8.00778C16.719 8.26954 16.695 8.67978 16.422 8.90553L11.7233 13.0305L11.1368 12.4448ZM11.4653 13.1408L10.3635 13.3785C10.3403 13.3823 10.3095 13.3703 10.2975 13.3433C10.2855 13.3193 10.2893 13.2923 10.3095 13.272L10.9538 12.6278L11.4653 13.1408ZM8.66028 12.6803L9.83628 11.508L10.7153 12.387L8.73453 12.8123C8.69928 12.8205 8.66478 12.8055 8.64828 12.7733C8.62953 12.7425 8.63703 12.7035 8.66028 12.6803ZM5.01603 18.738C4.97328 18.7343 4.94103 18.6953 4.94478 18.6563C4.94853 18.6375 4.95678 18.621 4.96878 18.609H4.97253L5.91753 17.664L7.14078 18.8873L5.01603 18.738ZM7.44078 17.4803C7.34778 17.5313 7.30053 17.637 7.32378 17.7383L7.52703 18.6023C7.55928 18.7275 7.40628 18.8123 7.31628 18.7193H7.31253L6.08628 17.4923L9.84828 13.734L11.6685 13.3403L12.5393 14.2155C11.2853 15.3165 9.57003 16.4145 7.44153 17.4803H7.44078ZM12.7193 14.055L11.8793 13.215L16.578 9.09003C16.6208 9.05103 16.6598 9.00828 16.695 8.96478C16.551 10.3088 14.6678 12.207 12.7193 14.055ZM16.3793 7.59378H16.3755C14.7383 5.94903 17.0513 3.42153 18.8325 4.90578L17.2238 6.51978C17.1765 6.56553 17.1765 6.64503 17.2238 6.69078L18.4695 7.93803C17.7705 8.28528 16.9305 8.14503 16.3793 7.59378ZM18.9533 7.59378C18.8715 7.67553 18.7815 7.74978 18.684 7.81203L17.4773 6.60528L19.008 5.07003C19.6718 5.79303 19.6448 6.90228 18.9533 7.59378ZM18.855 6.05103C18.8048 6.08628 18.7853 6.14778 18.801 6.20703C18.8753 6.35478 18.855 6.53103 18.75 6.65628C18.699 6.71928 18.711 6.80553 18.7733 6.85503C18.7973 6.87078 18.8243 6.88278 18.855 6.88278C18.8978 6.88278 18.9383 6.86703 18.9608 6.83554C19.137 6.62478 19.1715 6.32778 19.0508 6.08178C19.0035 6.01953 18.918 6.00378 18.855 6.05103Z" fill="black"/>
</g>
<defs>
<clipPath id="clip0_201_58276">
<rect width="24" height="24" fill="white"/>
</clipPath>
</defs>
</svg>
