<svg width="24" height="24" viewBox="0 0 24 24" fill="none" xmlns="http://www.w3.org/2000/svg">
<g clip-path="url(#clip0_201_57456)">
<path d="M11.9858 0.375C5.23125 0.375 0.375 5.85 0.375 12C0.375 18.3892 5.61075 23.625 11.9858 23.625C18.0885 23.625 23.625 18.8955 23.625 12C23.625 5.484 18.5812 0.375 11.9858 0.375ZM12.0142 21.5018C6.76425 21.5018 2.4705 17.166 2.4705 12C2.4705 10.9125 2.64375 9.88125 2.98125 8.90625L6.06075 10.2705H5.84025V11.6535H6.93225C6.93225 11.9438 6.9135 11.8035 6.9135 12.5677H5.84475V13.9508H7.11075C7.6455 17.0917 10.2607 18.699 12.9517 18.699C14.1982 18.699 15.3232 18.3285 15.9893 17.9587L15.5205 15.798C15.1125 16.014 14.1983 16.3043 13.3035 16.3043C11.982 16.3043 10.5802 15.7935 10.149 13.9515H14.382L20.3962 16.614C20.3258 16.7122 17.7615 21.5033 12.015 21.5033L12.0142 21.5018ZM11.2313 12.567L11.208 12.5483L11.25 12.567H11.2313ZM14.85 11.6535H15.0233V10.2705H11.7277L10.3875 9.6795C10.5045 9.4215 10.6402 9.1875 10.8 9.009C11.4045 8.268 12.258 7.959 13.1955 7.959C14.0535 7.959 14.85 8.21175 15.3563 8.42775L15.9 6.21075C15.1965 5.901 14.1652 5.6295 12.9795 5.6295C11.151 5.6295 9.5955 6.36975 8.484 7.6125C8.23575 7.89825 8.02425 8.217 7.83225 8.5545L4.00725 6.8625C7.03575 2.325 11.3992 2.475 12.009 2.475C17.3062 2.475 21.525 6.70275 21.525 12.009C21.525 12.8857 21.4268 13.7108 21.2295 14.4885L14.85 11.6535Z" fill="black"/>
</g>
<defs>
<clipPath id="clip0_201_57456">
<rect width="24" height="24" fill="white"/>
</clipPath>
</defs>
</svg>
