<svg width="24" height="24" viewBox="0 0 24 24" fill="none" xmlns="http://www.w3.org/2000/svg">
<g clip-path="url(#clip0_201_58714)">
<path d="M11.8912 13.4647C15.648 13.4647 16.746 12.117 16.9575 11.7885L15.5985 7.45275C15.2347 7.797 14.2702 8.391 11.9145 8.391C9.6255 8.391 8.72775 7.824 8.3955 7.47975L7.00875 11.9018C7.2345 12.2655 8.26275 13.4647 11.892 13.4647H11.8912ZM11.9183 3.80925C12.7343 3.79725 13.5435 3.6255 14.2935 3.3015L13.4347 0.56625C13.3635 0.37125 13.2195 0.21525 13.0275 0.129C13.0275 0.129 12.9142 0 12.0315 0C11.1488 0 10.9777 0.13725 10.9777 0.13725C10.7858 0.21525 10.638 0.37125 10.5667 0.56625L9.68475 3.38325C10.3988 3.648 11.1525 3.7935 11.919 3.80925H11.9183ZM22.59 23.3197C22.5938 23.2658 22.59 23.211 22.5743 23.16L20.238 15.5272C20.1517 15.2775 19.9223 15.105 19.656 15.0983H17.9918L18.195 15.7343C17.9527 16.2232 16.707 18.117 11.8912 18.117C7.28925 18.117 6.06225 16.3868 5.781 15.8092L6.00375 15.0983H4.344C4.07775 15.105 3.84825 15.2775 3.762 15.5272L1.42575 23.16C1.41 23.2072 1.4055 23.2583 1.41 23.3092L1.40625 23.328C1.41 23.406 1.41825 23.4802 1.43025 23.5553C1.473 23.8095 1.68825 23.9963 1.941 24H22.059C22.3162 23.9963 22.5308 23.8088 22.5697 23.5553C22.5818 23.4802 22.59 23.406 22.5938 23.328L22.59 23.3197Z" fill="black"/>
</g>
<defs>
<clipPath id="clip0_201_58714">
<rect width="24" height="24" fill="white"/>
</clipPath>
</defs>
</svg>
