<svg width="24" height="24" viewBox="0 0 24 24" fill="none" xmlns="http://www.w3.org/2000/svg">
<g clip-path="url(#clip0_201_57612)">
<path d="M10.8398 23.973C4.76175 23.3872 0 18.258 0 12.027C0 5.40598 5.379 0.0269775 12 0.0269775C18.621 0.0269775 24 5.40598 24 12.027C24 18.258 19.2383 23.3872 13.1603 23.973V16.926C15.3833 16.398 17.031 14.4022 17.031 12.027C17.031 9.24973 14.7773 6.99598 12 6.99598C9.22275 6.99598 6.969 9.24973 6.969 12.027C6.969 14.406 8.62125 16.398 10.8398 16.926V23.973ZM10.449 9.31573C11.094 9.31573 11.613 9.83998 11.613 10.4797C11.613 11.121 11.094 11.6407 10.449 11.6407C9.80925 11.6407 9.28875 11.121 9.28875 10.4797C9.28875 9.83998 9.8115 9.31573 10.449 9.31573Z" fill="black"/>
</g>
<defs>
<clipPath id="clip0_201_57612">
<rect width="24" height="24" fill="white"/>
</clipPath>
</defs>
</svg>
