<svg width="24" height="24" viewBox="0 0 24 24" fill="none" xmlns="http://www.w3.org/2000/svg">
<g clip-path="url(#clip0_201_58350)">
<path d="M23.9925 14.34C23.985 14.5703 23.6797 14.8245 23.0587 15.1485C21.7777 15.8168 15.1447 18.5468 13.7302 19.281C12.3165 20.019 11.535 20.0115 10.4175 19.476C9.29999 18.945 2.24174 16.089 0.968237 15.4838C0.335237 15.1793 0.0112371 14.925 -0.000762939 14.6828V17.1083C-0.000762939 17.3505 0.335237 17.604 0.968237 17.9093C2.24174 18.519 9.30449 21.3705 10.4175 21.9015C11.535 22.437 12.3157 22.4445 13.7302 21.7065C15.144 20.9723 21.777 18.2415 23.0587 17.574C23.7112 17.238 24 16.9725 24 16.734C24 16.5075 24 14.343 24 14.343C24 14.3393 23.9962 14.3393 23.9925 14.3393V14.34ZM23.9925 10.3868C23.9805 10.6133 23.6797 10.8675 23.0587 11.1953C21.7777 11.859 15.1447 14.5898 13.7302 15.324C12.3165 16.062 11.535 16.0545 10.4175 15.5235C9.29999 14.988 2.24174 12.1365 0.968237 11.5275C0.335237 11.2268 0.0112371 10.9688 -0.000762939 10.7265V13.152C-0.000762939 13.3943 0.335237 13.6523 0.968237 13.953C2.24174 14.5628 9.29999 17.4143 10.4175 17.949C11.535 18.48 12.3157 18.4883 13.7302 17.754C15.144 17.016 21.777 14.289 23.0587 13.6215C23.7112 13.2818 24 13.0163 24 12.7778C24 12.5513 24 10.3868 24 10.3868C24 10.3868 23.9962 10.3868 23.9925 10.3868ZM23.9925 6.2813C24.0045 6.03905 23.688 5.82455 23.043 5.5898C21.7972 5.13305 15.1995 2.50805 13.9372 2.04305C12.6757 1.5818 12.1597 1.6013 10.6755 2.13305C9.19124 2.66855 2.17124 5.4218 0.921737 5.91005C0.296987 6.15605 -0.00826294 6.38255 0.00373706 6.6248V9.0503C0.00373706 9.29255 0.335987 9.54605 0.972737 9.8513C2.24249 10.461 9.30449 13.3125 10.422 13.8473C11.535 14.3783 12.3202 14.3865 13.7347 13.6478C15.1447 12.9135 21.7815 10.1828 23.0632 9.51905C23.712 9.1793 24.0007 8.9138 24.0007 8.6753C24.0007 8.4488 24.0007 6.28055 24.0007 6.28055L23.9925 6.2813ZM8.59349 8.57855L14.1562 7.7273L12.4762 10.188L8.59349 8.57855ZM20.8942 6.3593L17.25 7.8008L13.9612 6.5003L17.6017 5.06255L20.8942 6.3593ZM11.238 3.97655L10.6987 2.9843L12.3787 3.64055L13.9605 3.12455L13.5307 4.1483L15.144 4.75355L13.0657 4.96805L12.597 6.0893L11.847 4.83905L9.44474 4.62455L11.238 3.97655ZM7.09349 5.37905C8.73824 5.37905 10.0665 5.89505 10.0665 6.5273C10.0665 7.16405 8.73449 7.6793 7.09349 7.6793C5.45249 7.6793 4.12049 7.1633 4.12049 6.5273C4.12049 5.8943 5.45249 5.37905 7.09349 5.37905Z" fill="black"/>
</g>
<defs>
<clipPath id="clip0_201_58350">
<rect width="24" height="24" fill="white"/>
</clipPath>
</defs>
</svg>
