<svg width="24" height="24" viewBox="0 0 24 24" fill="none" xmlns="http://www.w3.org/2000/svg">
<path d="M5.66022 9.60225V5.3055C3.25422 5.71125 1.25397 7.3755 0.413972 9.66825C-0.422278 11.961 0.0307218 14.523 1.60872 16.3875C3.98397 15.2347 5.64747 12.6337 5.65947 9.60225H5.66022ZM6.79272 13.7152C6.37047 15.4695 5.10447 16.965 3.53097 17.961C4.53072 18.5077 5.65197 18.7927 6.79272 18.7927C7.93347 18.7927 9.05472 18.5077 10.0545 17.961C8.47947 16.965 7.21422 15.465 6.79272 13.7152ZM11.9767 7.61325C10.941 6.387 9.50772 5.57025 7.92597 5.3055V9.56625C7.92597 12.6135 9.59022 15.2302 11.9767 16.3875C10.938 15.1605 10.3665 13.6057 10.3665 12.0007C10.3665 10.392 10.9372 8.8365 11.9767 7.614V7.61325ZM11.9767 7.61325C12.9795 8.7975 13.6327 10.3282 13.6327 12C13.6327 13.6717 12.9795 15.2032 11.9767 16.3867C14.355 15.234 16.062 12.633 16.074 9.6015V5.30475C14.4802 5.5695 13.0312 6.387 11.9767 7.6125V7.61325ZM18.3397 9.56625C18.3397 12.6135 20.0077 15.2302 22.3905 16.3875C23.9685 14.5237 24.4215 11.9617 23.5852 9.66825C22.7452 7.37925 20.745 5.71125 18.339 5.3055L18.3397 9.56625ZM17.2072 13.7152C16.785 15.4695 15.5205 16.965 13.9455 17.961C14.9452 18.5077 16.0665 18.7927 17.2072 18.7927C18.348 18.7927 19.4692 18.5077 20.469 17.961C18.8947 16.965 17.6332 15.465 17.2072 13.7152Z" fill="black"/>
</svg>
