<svg width="24" height="24" viewBox="0 0 24 24" fill="none" xmlns="http://www.w3.org/2000/svg">
<g clip-path="url(#clip0_201_57722)">
<path d="M5.07002 13.9335C4.85102 13.9455 4.65227 14.0745 4.55402 14.2695C4.43702 14.4802 4.16327 14.5117 4.03427 14.4727C3.82352 14.4022 3.55352 14.352 3.29177 14.5395C3.02627 14.727 2.74502 14.5867 2.79602 14.2425C2.84702 13.9027 2.96777 13.5982 3.29627 13.4107C4.01102 13.0042 3.51077 12.7192 3.90152 12.3052C4.29602 11.8912 4.20977 11.766 4.19477 11.2035C2.87027 11.004 2.11652 10.6215 1.28102 9.57448C0.441015 8.52748 0.117015 7.66423 0.0307653 6.34798C-0.0592347 5.03173 0.0187654 4.17973 0.585765 3.08998C1.15577 2.00023 1.75352 1.47673 2.78927 0.929982C3.82502 0.383232 4.83977 0.254232 5.77727 0.269982C6.71852 0.285732 7.34402 0.351732 7.87126 0.656982C8.40226 0.961482 8.88676 1.34023 9.19576 1.34023C9.43801 1.35598 9.67201 1.28923 9.86776 1.14898C9.91051 2.16823 8.99252 2.25823 8.17277 2.27773C7.35227 2.30098 6.84827 1.96123 6.09076 2.08648C5.33702 2.21548 4.09877 2.55898 3.49727 3.60598C2.89577 4.65673 2.87252 5.02798 2.92277 5.90698C2.97302 6.78598 3.73127 7.44223 4.15727 7.44973C4.58702 7.45723 4.68077 7.33273 5.05577 7.09048C5.43077 6.84448 7.34102 4.48123 7.98902 3.94948C8.64152 3.41848 9.28576 3.25423 9.98101 3.24598C10.6763 3.23773 10.8518 3.26173 11.4105 3.49198C11.973 3.71848 12.3165 4.14448 12.7703 4.40248C12.9968 4.26598 13.1453 4.06273 13.3523 3.90673C14.1143 3.35623 14.5043 3.20323 15.4073 3.28948C15.9233 3.34423 16.575 3.63748 16.9658 3.97723C17.6573 4.58248 18.2318 5.41873 18.6923 6.05548C19.0553 6.55573 19.4775 7.14898 20.0865 7.33273C20.7428 7.53598 21.243 6.68023 21.3173 6.20398C21.36 5.93473 21.411 5.69998 21.411 5.40298C21.411 5.10598 21.384 4.74673 21.2978 4.43848C21.2078 4.13398 21.075 3.84073 20.907 3.57148C20.649 3.15373 20.2275 2.72023 19.7895 2.49748C19.5435 2.37223 18.9653 2.14573 18.5978 2.13823C18.1485 2.12623 17.8088 2.27923 17.3948 2.30623C16.8945 2.34148 16.0005 2.45098 15.6098 2.06773C15.36 1.82173 15.3285 1.65373 15.2858 1.33723C15.3953 1.42723 15.5513 1.48573 15.6878 1.49773C16.0005 1.52473 16.293 1.27123 16.5473 1.11898C16.758 0.998232 17.0513 0.779232 17.3243 0.669732C18.0278 0.384732 18.891 0.392232 19.6328 0.470232C20.2305 0.528732 21.0038 0.794232 21.5235 1.09123C22.0508 1.38823 22.5548 1.88848 22.926 2.36098C23.391 2.95498 23.6445 3.46273 23.8125 4.20448C24.027 5.14948 24.09 6.56773 23.8283 7.50148C23.6213 8.23573 22.9418 9.36448 22.3598 9.91573C21.7898 10.4625 21.1253 10.728 20.3753 10.8727C20.4068 11.0212 20.4068 11.1615 20.4458 11.2867C20.5043 11.4667 20.61 11.6617 20.8245 11.5995C20.9108 11.5762 20.961 11.5522 21.0705 11.6542C21.1875 11.7555 21.129 12.1387 20.805 12.3142C20.6408 12.4005 20.4728 12.42 20.211 12.4275C19.8908 12.4395 19.5705 12.4237 19.2578 12.3802C18.9765 12.333 18.8085 12.1065 18.492 12.072C18.0075 12.0172 17.6363 11.6655 17.2463 11.4157C17.0858 11.3145 17.0318 11.3145 16.938 11.2597C16.989 11.412 17.055 11.5725 17.0903 11.7247C17.1218 11.8695 17.1098 12.0097 17.1255 12.1267C17.145 12.2475 17.1765 12.3375 17.196 12.435C17.274 12.5055 17.2973 12.6105 17.4308 12.642C17.5598 12.6772 17.763 12.6262 17.8958 12.6067C18.0323 12.5872 18.1223 12.5167 18.2243 12.5362C18.33 12.5557 18.4313 12.6337 18.5175 12.7005C18.6075 12.771 18.6818 12.7822 18.7523 12.9547C18.8228 13.1347 18.8888 13.494 18.897 13.7317C18.909 13.974 18.8813 14.1885 18.8108 14.3805C18.7403 14.5725 18.6743 14.6542 18.4823 14.8455C18.291 15.033 17.9745 15.3105 17.6618 15.5055C17.7203 15.5872 17.7435 15.666 17.8373 15.7597C17.9273 15.8535 18.111 15.9547 18.1928 16.053C18.279 16.1505 18.3218 16.221 18.3218 16.3305C18.3338 16.4632 18.3023 16.5922 18.228 16.7055C18.0053 17.0025 17.7473 17.0572 17.427 17.1975C17.4818 17.5297 17.5245 17.7675 17.4465 18.1035C17.415 18.24 17.3453 18.549 17.1773 18.627C17.0093 18.705 16.6853 18.666 16.4783 18.7012C16.275 18.7327 16.158 18.7635 15.9975 18.795C15.9 18.936 15.759 19.092 15.7088 19.2172C15.6578 19.3462 15.6735 19.389 15.7163 19.518C15.7553 19.647 15.9 19.8307 15.939 19.9867C15.978 20.1352 15.99 20.295 15.951 20.448C15.912 20.601 15.834 20.7367 15.7208 20.8462C15.5918 20.979 15.3383 21.0847 15.213 21.1897C15.0878 21.303 14.9588 21.315 14.994 21.4942C15.0413 21.7402 15.4043 22.1385 15.666 22.2367C15.8498 22.2915 16.0485 22.2757 16.221 22.1977C16.209 22.4047 16.026 22.5495 15.9083 22.6897C16.2285 22.596 16.5413 22.4205 16.7595 22.1857C16.6928 22.389 16.4625 22.7167 16.1153 23.0025C15.7718 23.2875 15.7718 23.2327 15.5993 23.346C15.912 23.4082 16.2045 23.3932 16.4468 23.3497C16.2518 23.4592 16.0328 23.5297 15.8063 23.5567C15.5175 23.5882 15.3413 23.5642 15.0795 23.4982C14.8178 23.436 14.5793 23.1975 14.2628 23.0332C14.2943 23.154 14.3175 23.295 14.4503 23.4157C14.5868 23.5327 14.7825 23.5995 14.997 23.697C14.7278 23.67 14.4383 23.6617 14.1728 23.6032C13.9733 23.556 13.8405 23.5095 13.6965 23.439C13.5525 23.3685 13.4423 23.2635 13.314 23.1735C13.3725 23.2905 13.392 23.4315 13.4978 23.5252C13.599 23.6227 13.7715 23.6617 13.908 23.7247C13.767 23.721 13.6268 23.7562 13.4783 23.7172C13.3178 23.6782 13.1655 23.6077 13.0365 23.5065C12.876 23.3895 12.7238 23.2567 12.591 23.112C12.4583 22.9672 12.294 22.7797 12.243 22.647C12.1958 22.5142 12.2745 22.4242 12.2903 22.311C12.2003 22.3695 12.087 22.4047 12.0165 22.491C11.946 22.5772 11.8838 22.6552 11.9153 22.8075C11.9468 22.9597 12.087 23.1472 12.189 23.3152C11.892 23.073 11.7278 22.9792 11.658 22.6905C11.5913 22.4167 11.7593 22.1707 11.8883 21.9637C11.955 21.8625 12.0525 21.7642 12.111 21.6667C11.9745 21.5377 11.826 21.4245 11.7128 21.276C11.5995 21.1275 11.5485 20.9242 11.4353 20.784C11.3183 20.643 11.1578 20.5537 11.025 20.436C11.142 20.694 11.3415 21.0105 11.3843 21.2055C11.427 21.405 11.3333 21.5295 11.2635 21.639C11.193 21.7447 11.0798 21.7717 10.9703 21.834C10.8608 21.9007 10.6928 21.8497 10.6305 21.9472C10.5638 22.0447 10.5488 22.1932 10.6073 22.2907L10.8653 22.689C10.74 22.6147 10.6305 22.521 10.5368 22.4077C10.4625 22.3102 10.353 22.2202 10.3373 22.0912C10.3215 21.9622 10.314 21.8452 10.3995 21.7282C10.4858 21.6112 10.7198 21.5722 10.8218 21.4822C10.9275 21.3922 10.986 21.3337 10.9778 21.2205C10.974 21.1035 10.8608 21.021 10.7633 20.9467C10.4625 20.7202 10.0838 20.517 9.82952 20.2477C9.72001 20.142 9.63826 20.013 9.59101 19.869C9.55951 19.7632 9.59101 19.6815 9.66152 19.5525C9.73201 19.4235 9.97427 19.248 10.005 19.1107C10.0365 18.9697 9.91127 18.939 9.80177 18.888C9.68852 18.8407 9.47777 18.915 9.37576 18.8295C9.27377 18.744 9.40726 18.564 9.28951 18.462C9.17251 18.3645 8.90701 18.4192 8.76976 18.3135C8.64901 18.2122 8.56651 18.0712 8.53127 17.919C8.48402 17.778 8.47651 17.6257 8.50801 17.4817C8.53951 17.3685 8.63702 17.349 8.69551 17.2905C8.75401 17.2357 8.80501 17.1892 8.72701 17.0992C8.65276 17.013 8.39476 17.103 8.25076 16.9935C8.10227 16.884 8.19226 16.6147 8.08651 16.5015C7.98526 16.392 7.80152 16.4347 7.69951 16.3957C7.60576 16.3605 7.56676 16.4857 7.50826 16.2862C7.44601 16.0912 7.44601 15.489 7.36351 15.267C7.28551 15.0442 7.12501 15.2512 7.05526 15.0322C6.97726 14.8095 7.05151 14.4577 7.01626 14.1217L6.86776 13.2157C6.34426 13.5675 6.00077 13.677 5.43827 13.7745C5.39102 15.1492 5.26277 15.9577 5.73152 17.4817C6.19652 19.0012 7.13776 19.8997 8.41127 21.189C6.73127 19.9312 5.93102 18.9075 5.43077 17.5995C4.92677 16.287 5.02427 15.1935 5.07152 13.9357L5.07002 13.9335ZM13.992 13.3792C14.121 13.3867 14.277 13.4182 14.367 13.4767C14.457 13.539 14.5545 13.5862 14.6363 13.6642C14.8433 13.8787 14.9955 14.1292 15.066 14.418C15.1088 14.6055 15.1133 14.8402 15.1283 15.0585C15.066 14.859 15.027 14.6482 14.937 14.469C14.796 14.184 14.562 13.9065 14.265 13.7812C14.1983 13.7497 14.124 13.7385 14.0505 13.7542C14.0738 13.797 14.1128 13.8285 14.1173 13.887C14.1173 13.9455 14.1053 14.0625 14.004 14.1097C13.8435 14.1877 13.6643 14.133 13.539 14.0235C13.4138 13.9065 13.3748 13.7227 13.4378 13.5667C13.5158 13.3717 13.8128 13.3717 13.9928 13.3792H13.992ZM12.3713 13.1055C12.387 12.7732 12.504 12.4957 12.8048 12.336C12.9885 12.2302 13.1955 12.156 13.4063 12.1215C13.6133 12.0945 14.121 12.114 14.4255 12.2542C14.6558 12.3555 14.8163 12.5235 15.0233 12.645C15.2265 12.7657 15.3713 12.8482 15.5663 12.9847C15.867 13.1955 16.0425 13.422 16.2495 13.5592C16.3508 13.626 16.488 13.6177 16.6245 13.6567C16.5188 13.6882 16.386 13.7235 16.2728 13.6882C16.1123 13.6215 15.9645 13.536 15.8355 13.4227C15.6833 13.2862 15.5153 13.1647 15.3398 13.0635C15.2145 12.993 15.0113 12.9075 14.871 12.8175C14.7383 12.7275 14.5035 12.5362 14.3708 12.4695C14.1638 12.3832 13.941 12.3405 13.722 12.3442C13.464 12.3517 13.0928 12.3952 12.8978 12.5707C12.7028 12.7545 12.6285 12.9067 12.6713 13.137C12.7455 13.0552 12.7965 12.9457 12.8663 12.8827C13.0185 12.75 13.1948 12.7462 13.386 12.7695C13.6005 12.7965 13.71 12.9217 13.7805 13.125C13.7333 13.0935 13.644 13.0155 13.5773 12.9885C13.4325 12.9337 13.269 12.9495 13.14 13.0312C12.96 13.1325 13.0073 13.2735 12.984 13.4295C12.972 13.5037 12.945 13.5622 12.9255 13.629C12.855 13.6132 12.7965 13.578 12.7418 13.5315C12.7455 13.6057 12.7343 13.6725 12.7493 13.7542C12.7643 13.836 12.804 13.938 12.8355 14.028C12.7065 13.9027 12.5775 13.7857 12.4995 13.626C12.4133 13.47 12.3668 13.2862 12.3705 13.1062L12.3713 13.1055ZM12.5895 10.707C12.6795 10.5705 12.7065 10.3635 12.7613 10.191C12.7418 10.4055 12.7845 10.644 12.6795 10.8007C12.5745 10.9575 12.3863 10.9297 12.2378 10.9762C12.3548 10.8862 12.4958 10.8435 12.5895 10.707ZM10.383 13.9102C10.5 13.8127 10.8203 13.8907 11.0588 13.9065L10.5428 14.0392C10.527 14.1015 10.5353 14.1645 10.4955 14.2147C10.4558 14.265 10.3823 14.2815 10.3238 14.3205C10.3313 14.1645 10.2615 14.0077 10.3823 13.9102H10.383ZM12.0668 7.25773C12.2078 7.33198 12.387 7.43773 12.516 7.43773C12.6368 7.44148 12.672 7.35973 12.7463 7.30873C12.8595 7.68748 12.996 8.10598 13.1955 8.44948C13.2773 8.59423 13.3283 8.52748 13.395 8.67223C13.4573 8.81698 13.485 9.11398 13.5435 9.30148C13.602 9.48523 13.68 9.62173 13.7505 9.78223C13.5788 9.53248 13.3523 9.21598 13.2503 9.00898C13.1528 8.80198 13.215 8.78623 13.137 8.59123C13.059 8.39173 12.8985 8.08723 12.7778 7.83373C12.6915 7.84573 12.5903 7.86073 12.5235 7.84123C12.4613 7.81798 12.4688 7.74748 12.4103 7.70473C12.3518 7.66198 12.2543 7.67773 12.1718 7.60723C12.09 7.53673 12.0705 7.38823 12.066 7.25923L12.0668 7.25773ZM11.2973 9.13273C11.4338 9.12073 11.598 9.15598 11.7233 9.14848C11.8485 9.14473 11.9378 9.10948 12.0473 9.08998C12.0278 8.90248 12.0473 8.55448 11.8718 8.42623C11.7585 8.34823 11.2935 8.40673 11.1728 8.43373C10.8915 8.49223 10.5675 8.66023 10.2975 8.76223C10.5555 8.58223 10.7783 8.41423 11.0903 8.32498C11.2778 8.27023 11.7113 8.19598 11.9025 8.24698C11.9925 8.27023 12.0083 8.30923 12.063 8.38348C12.243 8.63773 12.243 8.85598 12.2895 9.15673C12.3368 9.22723 12.387 9.27373 12.426 9.34798C12.465 9.44173 12.4883 9.53923 12.4928 9.63673C12.4455 9.56998 12.477 9.48448 12.3443 9.43348C12.2115 9.37873 12.0083 9.42598 11.8283 9.44548C11.9573 9.54298 12.0233 9.63298 12.0278 9.82798C12.0353 10.0627 11.8365 10.23 11.6295 10.2457C11.3445 10.269 11.196 10.2067 11.0828 9.96073C11.0318 9.85498 11.067 9.72598 11.0633 9.62098C10.7198 9.64423 10.7235 9.63298 10.4738 9.84373C10.6103 10.0432 10.6965 10.1565 10.923 10.2772C11.0483 10.344 11.1923 10.41 11.349 10.4377C11.5058 10.4655 11.763 10.4925 11.931 10.4647C12.0758 10.449 12.2085 10.383 12.3098 10.2772C12.4305 10.1677 12.4425 10.0035 12.4898 9.87523C12.486 10.0042 12.4628 10.1295 12.4193 10.2465C12.2783 10.5157 12.0405 10.5982 11.751 10.5982C11.4773 10.5982 11.1375 10.536 10.8803 10.4302C10.6733 10.344 10.3335 10.1062 10.2555 9.89473C10.197 9.75373 10.2435 9.57823 10.236 9.41848C10.521 9.23098 10.5915 9.27748 10.9275 9.22348C11.0685 9.19648 11.166 9.14548 11.2988 9.13348L11.2973 9.13273ZM9.64427 7.85548C9.64802 7.73848 9.66376 7.74223 9.67127 7.68748C9.41327 7.61698 9.31202 7.78498 9.15977 8.09773C9.10126 8.21473 9.15977 8.28523 9.09752 8.35948C9.03901 8.43748 8.93702 8.42623 8.83952 8.50048C8.74201 8.57473 8.64452 8.71498 8.55077 8.79373C8.36327 8.94973 8.10527 9.04348 7.88251 9.14923C8.03477 9.03973 8.32802 8.87173 8.42177 8.71198C8.47276 8.62573 8.46452 8.46598 8.54251 8.38798C8.62051 8.31373 8.64826 8.25898 8.74577 8.23948C8.84702 8.21998 8.80801 8.10298 8.83952 8.00923C8.87102 7.91923 8.93702 7.85323 9.00377 7.75948C9.07427 7.66573 9.15977 7.52923 9.29702 7.47823C9.42976 7.42723 9.64501 7.48198 9.74627 7.45498C9.84752 7.42348 9.78901 7.34923 9.86327 7.30273C9.93752 7.25998 10.0823 7.27948 10.1835 7.23223C10.359 7.14598 10.4453 7.00573 10.551 6.85348C10.5668 7.18198 10.563 7.41598 10.4453 7.72423C10.3125 8.06773 10.1798 8.27473 9.80476 8.48623C9.67577 8.56048 9.54677 8.58373 9.43727 8.62273C9.49952 8.53648 9.58951 8.50198 9.62477 8.36848C9.66002 8.23198 9.63677 7.96648 9.64427 7.85698V7.85548ZM15.7035 9.44548C15.5235 9.46123 15.4845 9.43348 15.3405 9.53548L15.5708 9.89848C15.567 9.65998 15.5903 9.61348 15.7035 9.44548ZM15.2385 9.27373C15.4845 9.17248 15.6998 9.08623 15.969 9.06673C16.0748 9.05923 16.2428 9.07423 16.3515 9.08248C16.4453 8.94598 16.5623 8.84023 16.6058 8.68423C16.6328 8.57848 16.6215 8.09848 16.5668 7.97323C16.422 7.61398 16.278 7.59823 16.0748 7.39123C15.9263 7.23898 15.9225 7.00873 15.8753 6.75073C15.8595 6.65698 15.813 6.53998 15.7935 6.44248C15.5085 6.39523 15.2235 6.38023 14.934 6.39523C15.0825 6.25423 15.2273 6.12598 15.27 5.91073C15.3128 5.68048 15.2738 5.44573 15.1568 5.24248C15.036 5.05123 14.8403 4.88323 14.661 4.72648C14.4855 4.57048 14.2275 4.44148 14.0595 4.31248C14.2785 4.23823 14.505 4.12123 14.7195 4.07773C15.2783 3.97198 15.7628 4.13623 16.3013 4.46473C16.6178 4.65223 16.8758 4.83223 17.2035 5.17948C17.532 5.52298 17.9378 6.15223 18.258 6.52723C18.5745 6.90223 18.8325 7.19548 19.1093 7.42198C19.3868 7.64473 19.6403 7.71073 19.902 7.85173L20.316 8.28898L20.6483 7.87498L21.1838 7.93723L21.297 7.33573L21.7853 7.19923L21.7073 6.38698L22.0628 6.13723L21.7935 5.63323L22.0628 5.07823L21.711 4.44898L21.8475 3.84373L21.441 3.49198L21.3863 2.84773L20.8163 2.63323L20.5898 2.07073L19.9493 2.06323L19.6365 1.64548L19.203 1.67698L18.7268 1.62223L18.4575 1.42723L18.0593 1.68523L17.583 1.43923L16.638 1.79848L17.2553 1.25923L17.8958 1.15798L18.384 1.03273L19.0478 1.24723L19.6298 1.10248L20.1923 1.43473L20.79 1.40323L21.0833 1.92673L21.6728 1.99348L21.993 2.57548L22.3643 2.77873L22.4655 3.52498L22.7978 3.84148L22.6493 4.49398L23.04 4.98973L22.677 5.51698L23.0678 5.84923L22.5675 6.29098L23.0753 6.82198L22.4618 7.02148L22.86 7.58773L22.356 7.67773L22.6845 8.29873L22.122 8.29123L22.407 8.75623L21.786 8.68198L21.9345 9.35398L21.4658 8.94373L21.3098 9.75598L20.9858 9.17398L20.8103 9.90073L20.4158 9.36523L20.4278 10.131L19.986 9.44323C20.076 9.83398 20.0603 10.26 20.3145 10.6267C21.1118 10.521 21.627 10.3185 22.2368 9.73573C22.7873 9.20023 23.4518 8.09098 23.631 7.38448C23.8343 6.58348 23.8418 5.10298 23.6385 4.28323C23.4473 3.49798 23.193 3.11923 22.7438 2.47873C22.314 2.02198 21.8925 1.53748 21.345 1.21273C20.5403 0.731982 19.5165 0.602982 18.603 0.614982C18.2085 0.618732 17.8215 0.689232 17.4548 0.829482C16.9275 1.02073 16.5053 1.44298 15.9668 1.64998C15.7913 1.71673 15.654 1.71673 15.5138 1.64623C15.6503 1.91548 15.795 2.03698 16.1348 2.13448C16.377 2.20498 16.959 2.16148 17.361 2.12248C17.7908 2.08348 18.0135 1.95448 18.5993 1.96198C19.1693 1.97398 19.623 2.18848 19.869 2.32948C20.3805 2.62273 20.748 2.94673 21.0683 3.46198C21.24 3.74323 21.3653 4.05973 21.4508 4.38373C21.5363 4.70773 21.5715 5.07148 21.5798 5.39173C21.5873 5.70823 21.5603 5.99323 21.4823 6.27823C21.3023 6.94648 20.9003 7.62973 20.076 7.52398C19.572 7.46173 18.8145 6.51223 18.5565 6.16423C18.0405 5.46523 17.5133 4.68748 16.869 4.10548C16.4625 3.74248 15.951 3.51148 15.408 3.45673C14.4158 3.36673 14.1188 3.55423 13.3725 4.17148C13.5248 4.21873 13.6733 4.24573 13.8293 4.31623C14.1728 4.47223 14.4893 4.67548 14.7668 4.93348C15.0555 5.20273 15.1845 5.37523 15.1965 5.76148C15.204 6.01948 14.9933 6.22648 14.7983 6.41023C14.6813 6.52348 14.5208 6.62923 14.427 6.71848C14.298 6.83548 14.142 6.96448 14.3018 7.14823C14.3603 7.21873 14.466 7.27348 14.5515 7.33948C14.6925 7.44073 14.6295 7.82398 14.4458 7.92898C14.2193 8.06548 13.9298 8.03848 13.731 7.86673C13.977 7.83523 14.133 7.79998 14.1255 7.59748C14.1255 7.48423 13.977 7.38673 13.8285 7.31998C13.4805 7.15948 13.215 7.18348 12.8678 6.93298C12.5123 6.67873 12.5085 6.53848 12.411 6.14398C12.243 6.15973 12.087 6.16348 11.856 6.23773C11.6295 6.31198 11.3798 6.49198 11.1728 6.53848C10.653 6.64798 10.5518 6.61648 10.2668 6.54598C9.76651 6.41323 9.11477 6.63598 8.46601 6.84298C8.36026 6.87823 7.92302 6.84298 7.62977 6.94423C7.10252 7.15498 6.61051 7.43998 6.17251 7.79998C5.61751 8.26873 4.88702 9.66748 4.47302 11.2762C4.43027 11.7645 4.57052 12.093 4.26227 12.3307C3.95402 12.573 3.96152 13.182 3.85577 13.3545C3.75452 13.5262 3.63302 13.4482 3.40652 13.6905C3.18377 13.9327 3.07052 13.8937 3.07427 14.3467C3.26927 14.2215 3.55052 14.073 3.80102 14.0617C4.02002 14.0542 4.02002 14.343 4.58627 13.788C4.88702 13.4872 5.46527 13.4797 5.86727 13.3462C6.26927 13.2172 6.99226 12.9442 7.71902 12.135C8.44201 11.3265 8.78926 10.4707 8.93026 9.24073C8.94976 9.45523 8.98876 9.70198 8.89876 10.3035C8.80126 10.9087 8.60176 11.5845 9.02777 12.3975L9.28951 12.9015C9.13351 12.687 8.82451 12.339 8.73076 12.0892L8.52001 11.511C8.03926 12.261 7.93051 12.3975 7.26602 12.933C7.23901 13.269 7.23076 13.6162 7.34026 13.9372C7.44976 14.2582 7.27801 14.625 7.35977 14.8357C7.44151 15.0465 7.63351 14.9257 7.69576 15.1402C7.76251 15.351 7.66427 15.7732 7.76252 15.9802C7.86077 16.1872 8.09852 16.062 8.21552 16.1325C8.32876 16.1992 8.36776 16.2885 8.43001 16.3785C8.49226 16.4647 8.40676 16.6755 8.53127 16.7415C8.65576 16.8075 8.85151 16.7535 8.98427 16.8157C9.11327 16.8825 9.13276 17.0385 9.10501 17.1787C9.06977 17.3197 8.93326 17.382 8.87027 17.5267C8.80801 17.6437 8.81551 17.7885 8.88976 17.898C8.96402 18.0307 9.12826 18.1012 9.28802 18.1672C9.45226 18.234 9.68252 18.1942 9.85052 18.288C10.0185 18.378 10.1708 18.5617 10.257 18.6945C10.347 18.8235 10.3703 18.9172 10.3665 19.0575C10.3508 19.2097 10.308 19.3582 10.23 19.491C10.1558 19.6237 9.99152 19.788 10.2495 20.046C10.5038 20.3002 10.4955 20.1907 10.644 20.3587C10.6245 20.07 10.5075 19.839 10.593 19.6207C10.683 19.4017 10.941 19.3627 11.0775 19.269C11.2185 19.1677 11.2965 19.0342 11.4015 18.921C11.4015 19.0695 11.4173 19.2292 11.4015 19.3387C11.3663 19.5652 11.3003 19.7722 11.64 19.8075C11.7923 19.8232 11.937 19.7257 12.0968 19.6665C12.015 19.815 11.8665 19.9357 11.8425 20.1157C11.8155 20.3107 11.862 20.5102 11.9753 20.6745C12.096 20.8545 12.315 20.9872 12.471 21.0922C12.6315 21.198 12.717 21.2055 12.8385 21.264C12.8423 21.4395 12.807 21.627 12.8265 21.795C12.846 21.963 12.9008 22.1115 12.9983 22.248C13.0958 22.389 13.248 22.467 13.3965 22.5682C13.3148 22.3807 13.1543 22.2052 13.1543 22.0095C13.158 21.81 13.2165 21.6735 13.4085 21.498C13.6005 21.3225 14.0453 21.174 14.256 21.006C14.412 20.8965 14.5373 20.7442 14.6115 20.5687C14.6858 20.4045 14.6663 20.139 14.682 19.9905C14.7525 20.1975 14.76 20.2642 14.7833 20.4787C14.8065 20.6932 14.658 20.9985 14.5958 21.1582C14.8223 21.0525 15.006 20.865 15.1035 20.6347C15.162 20.67 15.135 20.76 15.1545 20.9355C15.2483 20.8417 15.354 20.7712 15.4478 20.6857C15.5415 20.5957 15.6428 20.5215 15.69 20.397C15.7373 20.2762 15.717 20.1472 15.6825 20.0062C15.6473 19.8615 15.4913 19.698 15.405 19.5412C15.3188 19.389 15.4208 19.2367 15.4125 19.0492C15.2445 19.0222 15.0998 18.9322 14.901 18.963C14.7098 18.99 14.4833 19.209 14.28 19.2127C14.085 19.2127 13.9673 19.0252 13.8038 18.9742C13.6403 18.9232 13.4753 18.9315 13.308 18.9037C13.5188 18.7042 14.3318 18.6105 14.886 18.5212C15.3705 18.4395 15.8625 18.396 16.3545 18.3885C16.5773 18.381 16.8623 18.4552 17.0145 18.4117C17.1668 18.3645 17.1353 18.2632 17.1788 18.1462C17.3078 17.8297 17.2455 17.5447 17.175 17.2245C16.7333 17.1697 16.269 17.1075 15.8198 17.1427C15.3825 17.1742 14.8628 17.385 14.4098 17.397C14.019 17.4127 13.437 17.3227 13.101 17.1157C12.687 16.866 12.3668 16.3267 12.2535 16.1512C12.0698 15.87 11.8395 15.315 11.6948 15.0652C11.5538 14.811 11.523 14.7412 11.406 14.6355C11.289 14.5297 11.1285 14.5222 10.9883 14.4637C11.1488 14.4795 11.3243 14.4285 11.469 14.511C11.6918 14.64 11.934 15.1597 12.0705 15.39C12.2153 14.9017 12.1838 14.7142 12.6015 14.4367C12.2655 14.8155 12.2535 15.105 12.1718 15.5497C12.453 16.0065 12.8438 16.7415 13.3515 16.944C13.539 17.0182 13.8555 17.0647 14.055 17.0887C14.676 17.1667 15.2738 16.9717 15.8835 16.8195C16.3253 16.71 16.7783 16.7527 17.3213 16.7842C17.505 16.7962 17.9348 16.6867 18.0285 16.503C18.0795 16.3935 18.0675 16.2682 18.0053 16.1707C17.9348 16.065 17.7473 16.0147 17.6498 15.9165C17.5485 15.819 17.4938 15.7057 17.4113 15.6037C17.0633 15.6705 16.7078 15.7095 16.353 15.717C16.572 15.627 16.7828 15.576 17.013 15.4867C17.2478 15.3892 17.4743 15.2677 17.6888 15.1312C17.8725 15.006 17.9895 14.9362 18.126 14.7952C18.2588 14.6505 18.4305 14.5065 18.528 14.334C18.6293 14.1585 18.6413 13.9627 18.6488 13.7482C18.6525 13.5337 18.645 13.2322 18.5588 13.0567C18.477 12.885 18.3165 12.834 18.1875 12.795C18.0623 12.7522 17.973 12.8572 17.8395 12.8692C17.703 12.885 17.5815 12.9667 17.3865 12.8767C17.1405 12.744 16.9253 12.5565 16.7693 12.3262C16.5743 12.0525 16.4333 11.6032 16.2338 11.2597C15.894 10.662 15.4643 10.1077 15.0578 9.55648C15.0225 9.41998 14.9715 9.23248 14.952 9.04873C14.925 8.72473 14.9205 8.39248 15.0188 8.07973C15.093 7.83748 15.2063 7.58398 15.456 7.48573C15.5573 7.44298 15.6705 7.43473 15.7725 7.46623C15.8625 7.49773 15.9525 7.59898 15.9173 7.71598C15.8783 7.84498 15.7883 7.84873 15.7298 7.91548C15.636 8.00548 15.5738 8.11873 15.546 8.24398C15.6555 8.24023 15.8078 8.23198 15.8978 8.25973C16.0185 8.28673 16.128 8.36923 16.191 8.53723C16.0463 8.41198 15.9765 8.35348 15.8003 8.34973C15.7185 8.34598 15.6165 8.37673 15.531 8.38873C15.4958 8.49823 15.4763 8.63473 15.4298 8.72098C15.3788 8.80273 15.2888 8.78323 15.2543 8.88148C15.219 9.01048 15.2153 9.14323 15.2348 9.27223L15.2385 9.27373ZM16.4805 9.12523C16.5353 9.14473 16.5548 9.15223 16.6253 9.20323C16.6958 9.25798 16.7895 9.30898 16.8443 9.43348C16.8915 9.56248 16.9028 9.69898 16.887 9.83548C16.836 9.81973 16.7738 9.82798 16.7228 9.78448C16.6718 9.74098 16.6448 9.64798 16.578 9.60448C16.5158 9.56173 16.461 9.57298 16.3905 9.56173C16.4295 9.65923 16.4415 9.76123 16.4258 9.86248C16.3905 10.0657 16.2698 10.1707 16.074 10.1947C15.9923 10.2067 15.855 10.179 15.7808 10.1632C15.816 10.2412 15.8745 10.308 15.9098 10.386C16.074 10.3627 16.1948 10.3627 16.2848 10.3237C16.371 10.281 16.4685 10.1872 16.578 10.152C16.6913 10.113 16.7925 10.113 16.9178 10.0935C16.8203 10.1752 16.7573 10.2577 16.6598 10.3432L16.8705 10.968C17.0228 11.0617 17.1675 11.1127 17.3588 11.2297C17.55 11.3467 17.7765 11.5582 18.027 11.6715C18.2768 11.7847 18.4253 11.847 18.6833 11.8942C18.945 11.9452 19.152 12.156 19.4063 12.1912C19.6605 12.2227 20.1405 12.234 20.34 12.2145C20.5628 12.1912 20.856 12.078 20.883 11.832C20.6918 11.8747 20.4068 11.8357 20.262 11.4802C20.1998 11.3242 20.2268 11.0347 20.1293 10.851C20.0318 10.6635 19.8945 10.605 19.731 10.3747C19.5668 10.1482 19.3013 9.78523 19.149 9.47998C19.0005 9.17173 18.9615 8.82748 18.8363 8.54998C18.711 8.27623 18.5198 8.05798 18.3675 7.84273C18.0435 7.38148 17.7818 7.06573 17.2463 6.83098C16.9883 6.72148 16.6958 6.68998 16.4258 6.62023C16.3125 6.67123 16.1565 6.72148 16.1288 6.85498C16.1093 7.00723 16.1483 7.15948 16.2495 7.27723C16.4055 7.44148 16.644 7.62073 16.734 7.88248C16.7963 8.05048 16.812 8.60923 16.761 8.76523C16.7063 8.92573 16.581 9.01948 16.4798 9.12448L16.4805 9.12523ZM16.5315 10.4572C16.4805 10.5 16.4453 10.5435 16.3635 10.578C16.2855 10.6132 16.176 10.6207 16.0703 10.6485C16.2188 10.8787 16.3748 11.1135 16.5158 11.3595C16.6605 11.6017 16.7813 11.8672 16.9178 12.1215C16.9103 11.9767 16.9178 11.8207 16.8983 11.6842C16.8788 11.5515 16.8165 11.43 16.7535 11.223C16.6913 11.0197 16.617 10.7385 16.5308 10.4572H16.5315ZM12.531 5.36698C12.5115 5.59348 12.5505 5.94898 12.5978 6.17548C12.6525 6.44098 12.7073 6.57748 12.9263 6.73798C13.3208 7.03498 13.5705 6.98398 13.8795 7.15573C14.0243 7.23373 14.208 7.37023 14.262 7.51498C14.313 7.65973 14.2268 7.81573 14.1135 7.87798C14.3085 7.90498 14.5238 7.68673 14.4338 7.46773C14.3865 7.35823 14.1795 7.30723 14.1135 7.19398C14.055 7.09273 14.043 6.97123 14.0783 6.85798C14.133 6.65848 14.535 6.47098 14.676 6.31498C14.895 6.06523 14.9768 5.86198 14.856 5.54548C14.6843 5.09998 14.0123 4.74073 13.614 4.56523C13.4303 4.48348 13.3253 4.47898 13.1843 4.43623C13.4775 4.60798 13.7858 4.74448 13.9343 5.12773C14.055 5.44798 13.95 5.56948 13.9538 5.84623C13.9575 5.97898 14.1255 6.04123 14.2035 6.12373C14.2658 6.19423 14.262 6.24898 14.211 6.34648C14.2073 6.26473 14.1638 6.19048 14.0978 6.14698C13.9883 6.06523 13.863 6.08473 13.8045 5.92048C13.7145 5.67448 13.8945 5.43598 13.6913 5.15848C13.5428 4.95148 13.3395 4.71673 13.0665 4.71298C12.9458 4.71298 12.8243 4.72873 12.7073 4.77148L12.5235 4.54873H12.5198C12.1485 4.20898 11.895 3.92773 11.3715 3.69298C10.8518 3.46273 10.5945 3.42373 9.99226 3.43873C9.39826 3.45073 8.80501 3.50098 8.10977 4.09873C7.41826 4.69648 5.62952 6.98548 5.19602 7.27423C4.76627 7.56298 4.66877 7.66498 4.12952 7.66498C3.58652 7.66498 2.74277 6.89923 2.70752 5.94223C2.67602 4.98523 2.66477 4.64548 3.32852 3.49273C3.99227 2.33998 5.19601 1.98523 6.09001 1.86748C6.98477 1.74673 7.52326 2.05873 8.18402 2.06248C8.84402 2.06248 9.49652 1.94923 9.69151 1.42573C9.59776 1.48048 9.46877 1.54273 9.11327 1.52323C8.75776 1.50748 8.26577 1.09348 7.71076 0.819732C7.15577 0.542232 6.54302 0.511482 5.74952 0.495732C4.96052 0.479982 3.97202 0.542982 2.99552 1.07023C2.01527 1.59373 1.35077 2.15623 0.780765 3.19123C0.214515 4.22248 0.128265 5.06623 0.222015 6.31648C0.312015 7.56673 0.698265 8.49973 1.44077 9.41398C2.18327 10.3282 2.92502 10.7775 4.26527 10.9455L4.54652 9.70348L4.04252 10.422L4.05827 9.62098L3.60152 10.1835L3.40202 9.41773L3.03452 10.0312L2.85077 9.17998L2.31527 9.60973L2.48327 8.90623L1.77602 8.98423L2.10002 8.49223L1.45577 8.49973L1.83077 7.84348L1.26077 7.75348L1.71752 7.15573L1.01852 6.95248L1.59677 6.39748L1.02227 5.92873L1.47152 5.58073L1.04927 5.02198L1.49852 4.50223L1.33052 3.81448L1.70927 3.48598L1.82252 2.70073L2.24852 2.48623L2.61602 1.87648L3.29177 1.80223L3.62777 1.25173L4.30727 1.28698L4.94777 0.938982L5.61602 1.09123L6.36977 0.864732L6.93227 0.993732L7.66277 1.10323L8.37002 1.66573L7.28777 1.29073L6.74477 1.54873L6.29177 1.27498L5.98352 1.48573L5.43302 1.54048L4.94102 1.51348L4.58552 1.94698L3.85127 1.95448L3.59327 2.54398L2.94077 2.77048L2.88227 3.44998L2.41352 3.81298L2.56952 4.45348L2.16752 5.11348L2.47577 5.69548L2.17127 6.22648L2.57777 6.48823L2.48777 7.34398L3.05027 7.48498L3.17552 8.11798L3.78902 8.05573L4.16777 8.48923L4.64027 8.02798C5.49602 7.59823 5.85152 7.35973 6.51902 6.63748C7.28102 5.81323 7.71827 5.05123 8.73001 4.48873C9.45677 4.08223 10.05 3.93823 10.8668 4.08223C11.6325 4.21123 11.8905 4.67173 12.4568 5.15623C12.519 5.04673 12.5273 5.01973 12.6285 4.93723C12.597 5.08198 12.5468 5.22598 12.5348 5.36323L12.531 5.36698Z" fill="black"/>
</g>
<defs>
<clipPath id="clip0_201_57722">
<rect width="24" height="24" fill="white"/>
</clipPath>
</defs>
</svg>
