<svg width="24" height="24" viewBox="0 0 24 24" fill="none" xmlns="http://www.w3.org/2000/svg">
<g clip-path="url(#clip0_201_58672)">
<path d="M19.8983 19.1993L15.6022 12L19.8983 4.80075L22.0005 12L19.8983 19.1993ZM10.398 18.5002L5.00025 13.1993H13.602L17.898 20.3985L10.398 18.5002ZM10.398 5.39775L17.898 3.4995L13.602 10.6988H4.89825C4.89825 10.8008 10.398 5.39775 10.398 5.39775ZM21.3983 0L11.6025 2.49975L10.1025 4.9995H7.19925L0 11.9992L7.19925 18.999H10.1025L11.5005 21.4988L21.3015 23.9985L23.8988 14.4982L22.5007 11.9985L24.0007 9.49875L21.3983 0Z" fill="black"/>
</g>
<defs>
<clipPath id="clip0_201_58672">
<rect width="24" height="24" fill="white"/>
</clipPath>
</defs>
</svg>
