<svg width="24" height="24" viewBox="0 0 24 24" fill="none" xmlns="http://www.w3.org/2000/svg">
<g clip-path="url(#clip0_201_58464)">
<path d="M15.3007 0.00378906C15.2887 3.90625e-05 15.285 3.90625e-05 15.2805 0.00378906C15.2332 0.0585391 15.0307 1.27654 14.8312 2.71054C14.628 4.17979 14.3625 5.56129 14.226 5.87854L13.983 6.44479L13.4287 6.33604C12.7215 6.19504 11.3385 6.19504 10.644 6.33229C10.128 6.43429 10.0927 6.42229 9.84671 6.00829C9.65846 5.69554 9.49046 4.85254 9.23246 2.96929C9.04121 1.53904 8.85071 0.258039 8.81021 0.121539C8.75996 -0.0652109 8.65421 0.0352891 8.34221 0.578289C7.71746 1.67254 6.58796 4.23004 6.34646 5.09854L6.12746 5.88754L6.61121 7.18429L7.10021 8.47729L6.95921 9.88354C6.87746 10.6763 6.83021 11.4773 6.81446 12.2738C6.81446 13.224 6.83846 13.2938 7.38521 14.106L7.95521 14.9543L7.63946 17.802C7.34246 20.532 7.33871 20.6573 7.56071 20.8253C7.68971 20.9235 7.83071 21.0053 7.87346 21.009C7.92071 21.009 8.06021 19.9583 8.18921 18.6653C8.32196 17.376 8.46746 16.3215 8.51846 16.3215C8.72546 16.3215 8.76821 18.3998 8.59271 19.8413C8.45546 20.9543 8.44796 21.3765 8.55746 21.4935C8.63921 21.5798 9.43646 22.1775 10.3342 22.8218C11.2282 23.4668 11.9782 23.9978 11.9985 24.0015C12.0217 24.0053 13.0762 23.2635 14.3467 22.3568C15.612 21.447 16.6665 20.697 16.6867 20.6858C16.7017 20.6738 16.5727 19.365 16.401 17.7788L16.089 14.8928L16.6627 14.0325C17.3227 13.0485 17.3347 12.9548 17.097 10.1348L16.9522 8.44279L17.433 7.16554L17.9092 5.89279L17.628 4.95079C17.304 3.87304 15.522 0.106539 15.3 0.00603906L15.3007 0.00378906ZM15.6562 2.25379C15.789 2.25379 16.4385 3.66754 16.863 4.88254C17.1292 5.64079 17.145 5.79679 17.0002 6.27229C16.9102 6.56929 16.785 6.81154 16.7235 6.81154C16.4535 6.81154 15.6022 4.46479 15.5392 3.55429C15.492 2.87854 15.5512 2.25304 15.66 2.25304L15.6562 2.25379ZM8.38721 2.34829C8.39546 2.34829 8.39846 2.34829 8.40221 2.35204C8.74196 2.69104 8.42246 4.69129 7.80521 6.09004C7.63721 6.46879 7.44146 6.81604 7.37096 6.85879C7.30046 6.90154 7.16771 6.67204 7.07396 6.34804C6.94496 5.87929 6.94496 5.64829 7.07021 5.21104C7.35521 4.24204 8.22746 2.35504 8.38721 2.34829ZM9.94496 4.20679V4.56604C9.94496 4.76179 10.008 5.14504 10.0822 5.41429C10.23 5.95354 10.242 5.95729 11.2852 5.76604C11.7975 5.66779 12.3165 5.67229 12.8242 5.77279C13.8015 5.94904 13.9185 5.86654 14.0475 4.89079L14.1375 4.20679H9.94496ZM5.90621 4.74979L4.27721 5.18779L4.25021 11.8275L4.22321 18.4725L5.47721 19.3478C6.16796 19.8315 6.76196 20.1945 6.80096 20.16C6.83621 20.1248 6.99221 18.9383 7.14521 17.523L7.43021 14.9528L7.05146 14.3978C6.27371 13.254 6.25046 13.1085 6.43046 10.641L6.59021 8.40979L6.16421 7.28479C5.80496 6.32404 5.75396 6.05479 5.82446 5.45254L5.90621 4.74979ZM18.1477 4.74979L18.2265 5.42179C18.2925 5.99179 18.2332 6.28504 17.8395 7.33204C17.5852 8.01604 17.4015 8.68804 17.4375 8.83204C17.5815 9.46129 17.7262 12.531 17.6325 13.0388C17.5777 13.3515 17.3235 13.9058 17.0737 14.277L16.617 14.9528L16.914 17.559C17.0782 18.9923 17.2192 20.1803 17.2267 20.199C17.2455 20.2658 17.676 19.9883 18.7335 19.215L19.7767 18.453V5.18779L18.9645 4.96879L18.1477 4.74979ZM8.94521 5.18779C8.97746 5.18404 8.99996 5.28079 9.03521 5.45704C9.12521 5.87104 9.14096 5.90629 9.63746 6.70279L9.93071 7.17979L10.4535 6.99604C10.7422 6.89779 11.2155 6.78079 11.5042 6.73429C11.9775 6.65629 12.027 6.67654 12.027 6.92629C12.027 7.14829 11.949 7.20304 11.6332 7.20304C11.418 7.20304 10.9065 7.32004 10.5 7.46479C10.0897 7.60504 9.74171 7.72279 9.72671 7.72279C9.71096 7.72279 9.53846 7.46104 9.35171 7.13704C9.15971 6.81604 8.99171 6.55129 8.97296 6.55129C8.95721 6.55129 8.74196 6.85954 8.50421 7.23454C8.19146 7.72729 8.06246 8.08654 8.05121 8.50879C8.03921 8.82904 7.98446 9.95779 7.92596 11.0168L7.82021 12.939L8.31221 13.653C8.58221 14.0483 8.81621 14.3678 8.83196 14.3678C9.14471 14.3678 9.74171 13.9695 10.137 13.5045C10.5 13.0628 10.6597 12.9533 10.7302 13.0823C10.863 13.32 10.9065 16.2893 10.7895 16.7505C10.6642 17.2275 11.0355 17.6723 11.4697 17.5628C11.7345 17.4968 11.7705 17.5358 11.7705 17.9265C11.7735 18.1958 11.6647 18.4575 11.4652 18.6458C11.0745 19.0125 10.3552 19.017 9.89846 18.657C9.50846 18.3533 9.22721 17.493 9.09071 16.1918C9.00896 15.423 8.93096 15.2468 8.23046 14.313C7.80971 13.743 7.42646 13.1258 7.37921 12.942C7.33196 12.759 7.36721 11.6303 7.45721 10.431C7.54721 9.23479 7.58621 8.19604 7.54346 8.13004C7.50071 8.06029 7.69571 7.64629 7.98071 7.20379C8.26646 6.76654 8.59871 6.10279 8.72396 5.73079C8.85296 5.35279 8.90696 5.18854 8.94596 5.18854L8.94521 5.18779ZM14.508 9.96529C14.715 9.97729 14.8282 10.098 14.8282 10.3283C14.8282 10.641 14.7892 10.656 13.9492 10.695C13.4655 10.7153 13.0702 10.7033 13.0702 10.668C13.0702 10.6328 13.332 10.4453 13.6522 10.2623C14.0122 10.0515 14.3055 9.94954 14.508 9.96529ZM9.51596 9.98404C9.87071 9.97729 10.4062 10.176 10.6597 10.461C10.8945 10.719 10.8907 10.719 10.1017 10.719C9.44846 10.719 9.27671 10.6763 9.17171 10.473C9.06971 10.2893 9.08996 10.1843 9.23396 10.062C9.31571 10.008 9.41771 9.98029 9.51596 9.98404ZM10.266 11.2418C10.551 11.2418 10.5157 11.727 10.215 11.8868C9.85496 12.078 9.71921 12.0585 9.42596 11.7615C9.07796 11.4173 9.09371 11.2148 9.45671 11.2658C9.65546 11.2928 9.73346 11.3828 9.70646 11.547C9.67946 11.7188 9.73346 11.7698 9.90146 11.7338C10.0425 11.7068 10.1205 11.598 10.1017 11.4645C10.0777 11.3355 10.1445 11.2418 10.266 11.2418ZM14.562 11.2418C14.8522 11.2418 14.8117 11.727 14.5117 11.8868C14.1517 12.078 14.016 12.0585 13.7227 11.7615C13.3785 11.4173 13.3905 11.2148 13.7535 11.2658C13.9567 11.2928 14.0347 11.3828 14.0077 11.547C13.977 11.7188 14.031 11.7698 14.2027 11.7338C14.34 11.7068 14.4217 11.598 14.3977 11.4645C14.379 11.3355 14.445 11.2418 14.562 11.2418ZM13.293 12.9383C13.3552 12.9413 13.641 13.1993 13.9567 13.5435C14.3707 13.9928 14.715 14.2343 15.0225 14.3018C15.6832 14.442 15.7267 14.493 15.4215 14.817C15.1012 15.1568 14.8942 15.8063 14.8942 16.4618C14.8942 17.1608 14.5222 18.267 14.175 18.618C13.4872 19.302 12.288 18.849 12.288 17.8988C12.288 17.5395 12.327 17.4885 12.5422 17.5598C12.9375 17.685 13.3822 17.1728 13.257 16.731C13.155 16.3763 13.179 13.0478 13.284 12.939C13.284 12.939 13.2877 12.939 13.2922 12.939L13.293 12.9383ZM12.027 19.3163C12.6637 19.3163 12.8872 19.473 12.4732 19.629C12.0622 19.785 11.379 19.6643 11.379 19.4378C11.379 19.371 11.6722 19.3155 12.027 19.3155V19.3163ZM10.7032 19.4018L11.1135 19.7535C11.6722 20.2185 12.3832 20.2223 12.9307 19.7618C13.3125 19.4408 13.3327 19.4378 13.3327 19.695C13.3327 19.8443 13.1887 20.0588 13.0125 20.172C12.2272 20.688 10.8442 20.4098 10.7467 19.719L10.7032 19.4018Z" fill="black"/>
</g>
<defs>
<clipPath id="clip0_201_58464">
<rect width="24" height="24" fill="white"/>
</clipPath>
</defs>
</svg>
