<svg width="24" height="24" viewBox="0 0 24 24" fill="none" xmlns="http://www.w3.org/2000/svg">
<g clip-path="url(#clip0_201_58308)">
<path d="M21.8325 19.7085C21.2925 19.7737 19.7295 17.2365 19.7295 17.2365C19.7295 18.7057 18.9728 20.6227 17.3363 22.008C18.1253 22.2517 19.9073 22.9065 19.4835 23.6212C19.1408 24.2002 13.6005 23.991 12.0008 23.8102C10.401 23.9902 4.86077 24.1995 4.51802 23.6212C4.09427 22.9065 5.87327 22.2517 6.66377 22.008C5.02727 20.6235 4.27052 18.7057 4.27052 17.2365C4.27052 17.2365 2.70827 19.7745 2.16752 19.7085C1.91627 19.6777 1.58552 18.3187 2.60552 15.0352C3.08627 13.4872 3.63677 12.2002 4.48727 10.077C4.34402 4.59748 6.60827 0.000732422 11.9993 0.000732422C17.331 0.00148242 19.647 4.50673 19.512 10.077C20.361 12.1965 20.9138 13.4917 21.3938 15.0352C22.4145 18.3195 22.0838 19.6785 21.8318 19.7085H21.8325Z" fill="black"/>
</g>
<defs>
<clipPath id="clip0_201_58308">
<rect width="24" height="24" fill="white"/>
</clipPath>
</defs>
</svg>
