<svg width="24" height="24" viewBox="0 0 24 24" fill="none" xmlns="http://www.w3.org/2000/svg">
<g clip-path="url(#clip0_201_57576)">
<path d="M20.3197 16.3163L16.3747 15.3915L15.324 13.3913L20.4877 8.86727C22.02 9.44552 23.0385 10.914 23.0385 12.5595C23.0385 14.2463 21.9217 15.7853 20.3197 16.3163ZM17.352 20.9798C16.7377 20.9798 16.137 20.7728 15.645 20.3978L16.4257 16.332L20.0077 17.172C20.121 17.4803 20.1795 17.8088 20.1795 18.1523C20.1795 19.7153 18.9135 20.9805 17.3512 20.9805L17.352 20.9798ZM14.7232 20.3978C13.6252 22.02 11.793 22.992 9.83249 22.9875C6.56624 22.9875 3.91049 20.3318 3.91049 17.0693C3.91049 16.6673 3.94949 16.272 4.02749 15.8903L9.17624 11.2335L14.4345 13.6283L15.5985 15.8543L14.7232 20.3978ZM0.965241 11.4413C0.965241 9.75452 2.07824 8.21552 3.68024 7.68452L7.61699 8.61752L8.54324 10.5908L3.50849 15.1418C1.98074 14.5598 0.965241 13.0905 0.965241 11.442V11.4413ZM6.64799 3.02027C7.26974 3.02027 7.87124 3.22352 8.36699 3.59852L7.58174 7.67627L3.99149 6.83252C3.87824 6.52052 3.81974 6.19127 3.81974 5.84852C3.81974 4.28927 5.08949 3.02027 6.64799 3.02027ZM9.30074 3.60527C10.4055 2.00027 12.2227 1.03952 14.172 1.03952C17.4262 1.03952 20.0737 3.68852 20.0737 6.94577C20.0737 7.34477 20.0385 7.72352 19.9605 8.10602L14.6797 12.735L9.44474 10.3493L8.42174 8.16527L9.30074 3.60527ZM23.9647 12.57C23.9647 10.5623 22.719 8.80877 20.8477 8.12927C20.934 7.70327 20.973 7.27352 20.973 6.84452C20.973 3.11777 17.9407 0.0825195 14.2147 0.0825195C12.0345 0.0825195 10.0117 1.12952 8.73749 2.88752C8.10824 2.39852 7.33574 2.13377 6.54224 2.13752C4.56149 2.13752 2.95199 3.74627 2.95199 5.72327C2.95199 6.16052 3.02999 6.57827 3.17474 6.97352C1.31474 7.64552 0.0374908 9.43877 0.0374908 11.4345C0.0374908 13.4498 1.28774 15.2078 3.16649 15.8873C3.08474 16.3095 3.04124 16.7385 3.04124 17.172C3.04124 20.8913 6.06824 23.9138 9.78749 23.9138C11.9715 23.9138 13.9942 22.8668 15.2602 21.0975C15.8895 21.5933 16.6582 21.8625 17.4592 21.8625C19.4362 21.8625 21.045 20.2575 21.045 18.2768C21.045 17.8395 20.967 17.4218 20.8222 17.0265C22.6822 16.3545 23.9632 14.5613 23.9632 12.5693L23.9647 12.57Z" fill="black"/>
</g>
<defs>
<clipPath id="clip0_201_57576">
<rect width="24" height="24" fill="white"/>
</clipPath>
</defs>
</svg>
