<svg width="24" height="24" viewBox="0 0 24 24" fill="none" xmlns="http://www.w3.org/2000/svg">
<g clip-path="url(#clip0_201_57582)">
<path d="M3.38696 12.0308V0.0307617H20.5897V24.0308H3.38696V12.0308ZM16.5547 18.102C16.6875 18.09 16.812 18.0548 16.9297 17.9963C17.3587 17.781 17.6085 17.3243 17.805 16.3673C17.883 15.996 18.9997 10.1993 19.0162 10.1055C19.0395 9.92251 19.008 9.72376 18.93 9.62926C18.906 9.60526 18.8752 9.58201 18.8437 9.56626L18.7845 9.53551H18.4912C18.237 9.53551 18.1942 9.53551 18.144 9.55576C18.03 9.59476 17.937 9.71176 17.8897 9.87151C17.8777 9.91051 17.7217 10.7543 17.5417 11.7428L17.214 13.548L17.1667 13.3373C16.608 10.7903 16.401 9.88426 16.374 9.80626C16.3537 9.74326 16.3147 9.68926 16.269 9.64651C16.1632 9.53626 16.1512 9.53626 15.702 9.53626C15.2917 9.53626 15.2797 9.53626 15.2017 9.61051C15.1155 9.68926 15.081 9.82576 15.093 10.0283C15.0967 10.146 15.1357 10.2983 15.78 12.813C16.4437 15.399 16.53 15.7553 16.5652 15.9893C16.6125 16.29 16.5195 16.704 16.3582 16.884C16.3275 16.9193 16.323 16.923 16.2765 16.9148C16.2457 16.9148 16.1557 16.8878 16.0695 16.8638C15.8047 16.7858 15.7102 16.7895 15.6082 16.8915C15.5152 16.9883 15.4725 17.1413 15.4725 17.4023C15.4725 17.6565 15.4995 17.742 15.6322 17.8755C15.7612 18.0083 15.9525 18.0825 16.2262 18.1058C16.3905 18.1178 16.4445 18.1178 16.554 18.1028L16.5547 18.102ZM14.6602 16.3913C14.7382 16.3523 14.7975 16.281 14.82 16.1993C14.8402 16.1415 14.844 16.1025 14.844 15.8445C14.844 15.5865 14.8402 15.5438 14.82 15.4883C14.781 15.3675 14.6842 15.2933 14.5432 15.27C14.5042 15.2618 14.3445 15.2618 14.1885 15.2618C13.8247 15.2618 13.8097 15.2498 13.7422 15.078C13.6762 14.898 13.6455 14.7503 13.629 14.4773C13.617 13.8285 13.6132 13.1843 13.617 12.5355V10.7708H13.9687C14.4217 10.7708 14.4727 10.7625 14.5695 10.6568C14.6242 10.5908 14.6595 10.5045 14.6715 10.419C14.6835 10.239 14.6835 10.0628 14.6715 9.88426C14.6445 9.72451 14.5695 9.61426 14.4607 9.56326C14.4015 9.53626 14.3947 9.53626 14.0115 9.53251H13.6162L13.6125 8.31376C13.6125 7.22476 13.6087 7.08751 13.5937 7.03276C13.566 6.92776 13.4917 6.83776 13.395 6.78676C13.3402 6.76351 13.32 6.76351 13.074 6.75976C12.8047 6.75976 12.7192 6.75976 12.645 6.79876C12.5587 6.83776 12.4957 6.93151 12.4612 7.07551C12.4455 7.13026 12.426 7.41976 12.3832 8.33776L12.324 9.52876C12.324 9.52876 12.2422 9.52876 12.1447 9.54076C11.9377 9.55276 11.8785 9.56401 11.8155 9.62701C11.7225 9.72076 11.6947 9.81826 11.6872 10.08C11.679 10.416 11.7105 10.5683 11.8042 10.6703C11.8785 10.752 11.937 10.7723 12.147 10.7753L12.3187 10.7873V12.5723C12.3187 14.2725 12.327 14.592 12.354 14.8463C12.3967 15.2175 12.483 15.5535 12.597 15.7725C12.7882 16.1543 13.14 16.3898 13.5847 16.4408H14.589L14.6587 16.401L14.6602 16.3913ZM7.21496 16.3913C7.31171 16.3365 7.37096 16.2345 7.41371 16.059C7.42946 15.9803 7.42946 15.6563 7.42946 11.5388C7.42946 7.35451 7.42946 7.10176 7.40921 7.03051C7.35821 6.83551 7.22246 6.73726 7.03046 6.76951C6.99521 6.78076 6.68771 6.85426 6.34721 6.94426C6.00296 7.03426 5.66321 7.12426 5.58896 7.14451C5.41721 7.18726 5.37371 7.20226 5.30771 7.26976C5.20196 7.36651 5.18696 7.45276 5.18696 7.87501C5.18696 8.28901 5.20196 8.37526 5.30396 8.48026C5.39696 8.57401 5.49521 8.57851 5.76071 8.50801C5.86196 8.48401 5.95196 8.46076 5.95946 8.46076C5.97146 8.46076 5.97521 9.24601 5.97821 12.2228C5.97821 15.66 5.98196 15.9915 5.99846 16.062C6.04571 16.266 6.11171 16.359 6.23246 16.4018C6.26846 16.4175 6.36521 16.422 6.72146 16.4175C7.15421 16.4175 7.16621 16.4175 7.21346 16.3905L7.21496 16.3913ZM10.4137 16.3913C10.5075 16.344 10.566 16.254 10.6125 16.1025L10.6365 16.0163L10.6402 11.5823C10.6402 8.38726 10.6402 7.12501 10.6282 7.07026C10.5975 6.87151 10.4835 6.76651 10.308 6.76651C10.2412 6.76651 10.1077 6.79351 9.44771 6.96976C8.88971 7.11376 8.65046 7.18501 8.60096 7.20751C8.52221 7.24651 8.46371 7.30951 8.43296 7.39126C8.40521 7.44901 8.40521 7.46101 8.40521 7.87126C8.40521 8.28526 8.40521 8.28526 8.43296 8.35201C8.45171 8.39776 8.47871 8.43826 8.51471 8.47276C8.61596 8.57401 8.68646 8.57776 8.97146 8.50801C9.04121 8.48776 9.11171 8.47276 9.17846 8.45701C9.18671 8.45701 9.18971 9.66001 9.19346 12.246L9.19721 16.0388L9.22121 16.125C9.24446 16.2113 9.29096 16.293 9.35696 16.3553C9.43571 16.4145 9.44321 16.4183 9.92771 16.4145C10.3417 16.4145 10.3725 16.4145 10.4115 16.3913H10.4137Z" fill="black"/>
</g>
<defs>
<clipPath id="clip0_201_57582">
<rect width="24" height="24" fill="white"/>
</clipPath>
</defs>
</svg>
