<svg width="24" height="24" viewBox="0 0 24 24" fill="none" xmlns="http://www.w3.org/2000/svg">
<g clip-path="url(#clip0_201_57696)">
<path d="M23.5785 2.3985C22.6178 3.60525 21.0315 8.87475 12.1215 9.1095C7.86752 9.22275 5.76227 4.37925 5.76227 4.37925L5.42627 12.1485C4.59452 11.1097 3.48077 10.4452 2.41052 10.41C1.89452 10.3867 1.38677 10.5427 0.972773 10.8517C0.309023 11.352 -0.00747664 12.1957 2.33608e-05 13.1332C0.00752336 14.067 0.332273 15.0982 0.972773 16.0275C1.60952 16.9575 2.44577 17.6137 3.29702 17.9182C3.75002 18.0825 4.21127 18.1327 4.64477 18.0742C10.6763 22.8825 26.7968 26.559 23.5785 2.3985ZM8.40227 8.8515C9.66827 8.8515 10.719 9.789 11.0198 11.0467C11.5043 9.855 12.633 9.0195 13.9493 9.0195C15.7073 9.0195 17.1293 10.5075 17.1293 12.3397C17.1293 14.1757 15.7073 15.6757 13.9493 15.6757C12.4178 15.6757 11.1405 14.535 10.836 13.0312C10.3988 14.0077 9.48077 14.6955 8.40227 14.6955C7.48802 14.6955 6.68777 14.1997 6.19877 13.4497C6.11702 13.2585 6.01877 13.0672 5.91002 12.8835C5.77727 12.528 5.70677 12.153 5.70677 11.7705C5.70677 10.1692 6.90602 8.8485 8.40227 8.8485V8.8515ZM8.40227 9.21075C7.12127 9.21075 6.07427 10.3477 6.07427 11.769C6.07427 13.1947 7.12127 14.3272 8.40227 14.3272C8.61677 14.3272 8.82002 14.2845 9.01952 14.226C8.11727 14.1907 7.40627 13.4175 7.40252 12.4717C7.40627 11.499 8.15627 10.7137 9.07802 10.7137C9.86327 10.7137 10.5428 11.2837 10.7145 12.0847C10.7265 11.979 10.7415 11.8777 10.7415 11.7682C10.7415 10.3462 9.68702 9.21 8.40152 9.21L8.40227 9.21075ZM13.9493 9.33975C12.3713 9.33975 11.0895 10.6755 11.0895 12.3397C11.0895 14.0077 12.3705 15.3472 13.9493 15.3472C14.5388 15.3472 15.09 15.1597 15.5468 14.8357C15.273 14.961 14.9805 15.027 14.6873 15.027C13.5038 15.027 12.543 14.019 12.543 12.7732C12.543 11.5312 13.5038 10.5232 14.6873 10.5232C15.7223 10.5232 16.6133 11.2965 16.8008 12.3667V12.3435C16.8008 10.6755 15.5235 9.3435 13.9493 9.3435V9.33975ZM2.40227 10.7302C3.44102 10.7655 4.60952 11.4997 5.40977 12.6675C6.01877 13.5502 6.32402 14.5305 6.33152 15.3937C6.33902 16.2532 6.05027 16.9837 5.48402 17.4097C4.92152 17.8357 4.17527 17.8905 3.40202 17.613C2.63252 17.3392 1.83977 16.7302 1.23377 15.8512C0.628523 14.9685 0.323273 13.9837 0.315773 13.1205C0.308273 12.261 0.597023 11.5342 1.15952 11.1045C1.51877 10.839 1.96052 10.71 2.40152 10.7295L2.40227 10.7302ZM14.094 10.9762C13.539 10.9762 13.086 11.4487 13.0898 12.0345C13.0898 12.6165 13.539 13.089 14.094 13.089C14.649 13.089 15.0983 12.6165 15.0983 12.0345C15.102 11.4487 14.649 10.9762 14.094 10.9762ZM8.44952 11.1952C8.08202 11.1952 7.78952 11.508 7.78577 11.8905C7.78577 12.273 8.08277 12.5857 8.44952 12.5857C8.81627 12.5857 9.11327 12.273 9.10952 11.8905C9.10952 11.508 8.81252 11.1952 8.44952 11.1952ZM2.03552 11.418C1.41827 11.418 0.918023 12.0472 0.914273 12.8242C0.914273 13.6057 1.41827 14.2342 2.03552 14.2342C2.65277 14.2342 3.15302 13.6012 3.15302 12.8242C3.15302 12.051 2.65277 11.418 2.03552 11.418ZM16.2113 15.4177C16.2113 15.4177 17.6993 15.8512 18.2228 16.5622C18.7463 17.2695 18.414 17.7067 18.2775 18.6127C18.078 18.0855 17.871 17.6715 17.6565 17.4292C16.848 18.687 14.5553 19.2847 11.4765 18.9877C12.8595 18.9135 13.9298 18.699 14.7773 18.402C13.3785 18.492 11.5665 18.1327 9.41402 17.3355C13.6755 18.2302 15.8475 17.3977 17.1173 16.371C16.7813 15.9142 16.2113 15.4177 16.2113 15.4177Z" fill="black"/>
</g>
<defs>
<clipPath id="clip0_201_57696">
<rect width="24" height="24" fill="white"/>
</clipPath>
</defs>
</svg>
