<svg width="24" height="24" viewBox="0 0 24 24" fill="none" xmlns="http://www.w3.org/2000/svg">
<g clip-path="url(#clip0_201_57968)">
<path d="M20.4847 3.51597C15.801 -1.17153 8.2035 -1.17153 3.516 3.51222C1.26225 5.76222 -0.00375315 8.81697 -3.15281e-06 11.997C-0.00750315 15.513 1.527 18.8482 4.19925 21.1297H4.21125C8.973 25.1925 16.059 24.9112 20.4847 20.4855C25.1722 15.8017 25.1722 8.20422 20.4847 3.51672V3.51597ZM15.9997 13.9957C12 13.9957 12 9.99597 7.9995 9.99597C5.49975 9.99597 4.55775 11.5627 3.234 12.738H3.23025C2.82 7.89447 6.41775 3.63672 11.2612 3.22647C16.1047 2.81997 20.3587 6.41397 20.769 11.2575C19.4407 12.4335 18.4995 13.9957 15.9997 13.9957Z" fill="black"/>
</g>
<defs>
<clipPath id="clip0_201_57968">
<rect width="24" height="24" fill="white"/>
</clipPath>
</defs>
</svg>
