<svg width="24" height="24" viewBox="0 0 24 24" fill="none" xmlns="http://www.w3.org/2000/svg">
<g clip-path="url(#clip0_201_58016)">
<path d="M0.37875 10.3792L0.10875 10.3403C0.0585 10.6845 0.027 11.0355 0.0075 11.3835L0.2805 11.3985C0.30075 11.0595 0.3315 10.7153 0.37875 10.3792ZM4.137 3.28875L3.95325 3.0855C3.69525 3.31575 3.441 3.56175 3.207 3.81525L3.40575 4.00725C3.6405 3.7575 3.88275 3.51525 4.137 3.288V3.28875ZM5.76975 2.05875L5.6205 1.824C5.32725 2.01225 5.03475 2.211 4.76175 2.418L4.926 2.637C5.19525 2.43375 5.48025 2.238 5.76975 2.05875ZM1.824 18.3668C2.00775 18.6637 2.20725 18.9525 2.418 19.23L2.637 19.0658C2.43375 18.7965 2.238 18.5115 2.05875 18.2228L1.824 18.3668ZM1.12875 16.4017L0.87075 16.5075C0.99975 16.8232 1.1445 17.1405 1.305 17.4487L1.30875 17.4608L1.55475 17.3355L1.5465 17.3235C1.39425 17.0227 1.25325 16.7145 1.12875 16.4017ZM0.297 9.309L0.56625 9.37125C0.645 9.039 0.73425 8.7075 0.84 8.38725L0.57825 8.301C0.4695 8.63325 0.375 8.973 0.297 9.309ZM0.273 12.4222L0 12.4305C0.012 12.7778 0.039 13.1295 0.08175 13.4738L0.35475 13.4415C0.312 13.1055 0.285 12.7627 0.273 12.4222ZM0.258 14.508C0.32775 14.8477 0.41775 15.1883 0.51975 15.5198L0.78075 15.441C0.684 15.1132 0.59775 14.781 0.52275 14.4487L0.258 14.508ZM11.574 0.273L11.562 0C11.2148 0.012 10.863 0.039 10.5203 0.08175L10.5555 0.35475C10.8915 0.312 11.2343 0.285 11.5747 0.273H11.574ZM23.223 8.56575C23.3197 8.8905 23.406 9.2265 23.4772 9.55875L23.7465 9.4995C23.6768 9.15975 23.5868 8.8155 23.4847 8.48325L23.223 8.56575ZM17.6213 1.39125C17.3123 1.227 16.992 1.074 16.6763 0.94125L16.566 1.191C16.8832 1.32375 17.1908 1.473 17.4923 1.63275L17.6213 1.39125ZM15.6908 0.57C15.3585 0.46875 15.0225 0.37125 14.6835 0.297L14.6205 0.56175C14.9527 0.6405 15.2843 0.72975 15.6083 0.8355L15.6908 0.57ZM6.67575 1.54725C6.97275 1.395 7.281 1.254 7.59 1.1295L7.48425 0.8715C7.1685 1.0005 6.855 1.14525 6.55125 1.30125L6.5355 1.3095L6.66075 1.5555L6.67575 1.54725ZM23.727 11.5898L24.0037 11.5778C23.988 11.2298 23.961 10.8787 23.922 10.5308L23.6483 10.566C23.688 10.902 23.715 11.2463 23.727 11.5898ZM13.6522 0.105C13.3095 0.05925 12.957 0.02325 12.609 0.00825L12.5978 0.28125C12.9375 0.297 13.281 0.33225 13.617 0.3795L13.6522 0.105ZM9.543 0.52725L9.48375 0.258C9.14475 0.32775 8.805 0.41775 8.47275 0.51975L8.5545 0.78075C8.8785 0.684 9.21075 0.59775 9.54225 0.5265L9.543 0.52725ZM1.92225 5.469L2.1525 5.61675C2.33625 5.3355 2.53575 5.055 2.74275 4.785L2.5275 4.61325C2.31225 4.8915 2.10975 5.18025 1.92225 5.469ZM0.94125 7.31625L1.1955 7.4265C1.32825 7.11375 1.4775 6.80175 1.63725 6.50025L1.39125 6.37125C1.23 6.68025 1.0785 6.996 0.94125 7.31625ZM18.2228 21.9412L18.3668 22.176C18.6637 21.9923 18.9525 21.7927 19.23 21.582L19.0658 21.363C18.7965 21.5662 18.5115 21.7657 18.2228 21.9412ZM21.246 19.2188L21.465 19.3905C21.6803 19.1168 21.8827 18.8272 22.0702 18.5347L21.8445 18.387C21.6562 18.672 21.4575 18.9487 21.2467 19.2188H21.246ZM19.8547 20.715L20.0385 20.9183C20.2965 20.688 20.5507 20.4382 20.7847 20.1885L20.586 19.9965C20.355 20.2463 20.1052 20.4848 19.8547 20.7157V20.715ZM22.359 17.5042L22.602 17.6332C22.7663 17.3242 22.9178 17.0085 23.0513 16.6882L22.797 16.5825C22.6642 16.8953 22.5203 17.2035 22.359 17.5042ZM23.6168 13.629L23.8905 13.668C23.9377 13.32 23.9722 12.9727 23.9918 12.6248L23.7188 12.609C23.6985 12.9488 23.664 13.293 23.6168 13.629ZM23.1562 15.621L23.4225 15.7073C23.5275 15.375 23.6213 15.0352 23.6993 14.6955L23.43 14.6332C23.355 14.9692 23.262 15.3015 23.1562 15.621ZM22.4528 6.672C22.605 6.97725 22.7498 7.28925 22.8787 7.605L23.133 7.5C23.004 7.17975 22.8547 6.855 22.695 6.54675L22.4528 6.672ZM8.29725 23.418C8.6295 23.523 8.9655 23.6168 9.30525 23.6947L9.3675 23.43C9.03525 23.352 8.70375 23.262 8.3835 23.1562L8.29725 23.418ZM10.3358 23.8913C10.68 23.9385 11.031 23.973 11.379 23.9925L11.391 23.7157C11.055 23.7 10.7107 23.6647 10.371 23.6175L10.3358 23.8913ZM17.3243 22.449C17.0235 22.602 16.7153 22.746 16.398 22.8713L16.5037 23.1292C16.8195 22.9965 17.145 22.8555 17.4487 22.695L17.4525 22.6912L17.3317 22.4452L17.3243 22.449ZM4.61325 21.4688C4.887 21.6795 5.1765 21.8865 5.469 22.0695L5.61675 21.8438C5.33175 21.6555 5.0505 21.4568 4.7805 21.2498L4.61325 21.4688ZM12.4177 23.727L12.426 24C12.7733 23.9842 13.125 23.961 13.473 23.9137L13.4377 23.6445C13.1017 23.6873 12.7575 23.7143 12.4177 23.7262V23.727ZM6.37125 22.605C6.6765 22.7662 6.996 22.9177 7.31625 23.055L7.422 22.8007C7.10925 22.6635 6.801 22.5195 6.50025 22.359L6.37125 22.605ZM3.08175 20.0392C3.31575 20.301 3.56175 20.5515 3.816 20.7855L4.00425 20.5868C3.75825 20.3557 3.516 20.1098 3.2895 19.8555L3.08175 20.0392ZM14.445 23.4772L14.5043 23.7465C14.844 23.6723 15.1845 23.5822 15.5205 23.4802L15.4387 23.2192C15.1095 23.316 14.778 23.4023 14.4457 23.4772H14.445ZM21.18 0.129C19.695 0.129 18.492 1.332 18.492 2.81625C18.492 4.305 19.695 5.508 21.18 5.508C24.7658 5.508 24.7658 0.129 21.18 0.129ZM15.324 15.4447C15.324 15.918 15.6368 16.1047 16.176 16.1047C16.848 16.1047 17.4728 15.711 17.4728 15.09V14.445C17.2418 14.5553 17.094 14.586 16.3665 14.688C15.6323 14.7968 15.3232 14.9918 15.3232 15.4447H15.324ZM12 2.81625C6.93 2.81625 2.82 6.92625 2.82 11.9963C2.82 17.0662 6.93 21.18 12 21.18C17.07 21.18 21.18 17.0662 21.18 11.9963C21.18 6.93 17.07 2.81625 12 2.81625ZM9.51225 16.59H5.7705V10.566H6.53925V15.9097H9.516V16.59H9.51225ZM13.6448 16.59H13.023V15.918C12.6173 16.488 12.2153 16.7108 11.5778 16.7108C10.734 16.7108 10.1985 16.2458 10.1985 15.5265V12.2572H10.8825V15.2572C10.8825 15.7762 11.2297 16.1085 11.7765 16.1085C12.4957 16.1085 12.9562 15.5303 12.9562 14.6475V12.2572H13.644L13.6448 16.59ZM13.113 8.19525C13.113 6.711 14.316 5.508 15.801 5.508C17.2852 5.508 18.4882 6.711 18.4882 8.19525C18.4882 9.68025 17.2852 10.8832 15.801 10.8832C14.316 10.8832 13.113 9.68025 13.113 8.19525ZM18.6803 16.0507V16.5697C18.4575 16.629 18.3525 16.6448 18.2115 16.6448C17.8673 16.6448 17.5702 16.4055 17.4967 16.074C17.118 16.4797 16.5788 16.7108 16.0275 16.7108C15.1485 16.7108 14.6055 16.2495 14.6055 15.465C14.6055 14.9378 14.8598 14.547 15.3638 14.34C15.6338 14.2343 15.7778 14.199 16.755 14.0782C17.3018 14.0122 17.4743 13.887 17.4743 13.5983V13.4145C17.4743 13.0042 17.1262 12.7703 16.509 12.7703C15.8602 12.7703 15.552 13.0125 15.489 13.539H14.7983C14.841 12.5393 15.4852 12.1373 16.5322 12.1373C17.5995 12.1373 18.1575 12.5475 18.1575 13.3162V15.7305C18.1575 15.9458 18.2902 16.0665 18.5325 16.0665C18.5715 16.0665 18.6068 16.0665 18.6818 16.0515L18.6803 16.0507Z" fill="black"/>
</g>
<defs>
<clipPath id="clip0_201_58016">
<rect width="24" height="24" fill="white"/>
</clipPath>
</defs>
</svg>
