<svg width="24" height="24" viewBox="0 0 24 24" fill="none" xmlns="http://www.w3.org/2000/svg">
<path d="M20.25 1.5H3.75C2.508 1.5 1.5 2.508 1.5 3.75V20.25C1.5 21.492 2.508 22.5 3.75 22.5H20.25C21.492 22.5 22.5 21.492 22.5 20.25V3.75C22.5 2.508 21.492 1.5 20.25 1.5ZM7.4535 18.0233C7.1955 18.4732 6.61875 18.6232 6.174 18.3652C5.724 18.1073 5.574 17.5305 5.832 17.0858L6.5025 15.9277C7.257 15.6982 7.87575 15.876 8.35875 16.4618L7.4535 18.0233ZM13.9642 15.4972H5.4375C4.9215 15.4972 4.5 15.075 4.5 14.5597C4.5 14.0445 4.92225 13.6222 5.4375 13.6222H7.8285L10.8937 8.316L9.933 6.657C9.675 6.207 9.83025 5.63475 10.275 5.3775C10.725 5.1195 11.2972 5.27475 11.5545 5.7195L11.9715 6.441L12.3885 5.7195C12.6465 5.2695 13.2233 5.1195 13.668 5.3775C14.118 5.6355 14.268 6.21225 14.01 6.657L9.9885 13.623H12.8993C13.8457 13.623 14.376 14.7337 13.9635 15.498L13.9642 15.4972ZM18.5625 15.4972H17.2028L18.1215 17.0865C18.3795 17.5365 18.2242 18.1088 17.7795 18.366C17.3295 18.624 16.7572 18.4688 16.5 18.024C14.958 15.357 13.8045 13.3507 13.0312 12.0195C12.2483 10.6597 12.8063 9.30075 13.3643 8.84175C13.9785 9.906 14.8973 11.4997 16.125 13.623H18.5625C19.0785 13.623 19.5 14.0452 19.5 14.5605C19.5 15.081 19.0777 15.498 18.5625 15.498V15.4972Z" fill="black"/>
</svg>
