<svg width="24" height="24" viewBox="0 0 24 24" fill="none" xmlns="http://www.w3.org/2000/svg">
<path d="M18.219 11.6603C19.695 11.7585 21.0157 10.7505 21.3052 9.30151C20.949 8.75026 20.34 8.41876 19.6845 8.41876C17.9805 8.37976 17.0662 10.407 18.2197 11.661L18.219 11.6603ZM11.3362 3.52276L15.3555 1.19476L14.0745 0.472506L8.53124 3.68326L8.97299 3.92926L9.81224 4.40101L11.3362 3.51901V3.52276ZM15.8707 0.980256C15.9375 1.00051 15.9915 1.05526 16.0117 1.12126L17.8747 6.81601C17.91 6.91426 17.871 7.02001 17.781 7.07401C16.305 7.94101 15.594 9.69076 16.0432 11.3438C16.5352 13.137 18.246 14.3085 20.094 14.121C20.1952 14.1128 20.2927 14.1758 20.3242 14.2733L22.2465 20.1255C22.2772 20.2238 22.2382 20.3288 22.1527 20.3835L16.2585 23.9618C16.2307 23.9775 16.1955 23.9888 16.1602 23.9888C16.1092 24.0008 16.0552 23.9888 16.008 23.958L13.9342 22.6103C13.8982 22.587 13.8712 22.5525 13.8525 22.5135L9.80549 12.8415L3.64124 16.4978C3.62924 16.506 3.61349 16.5135 3.60224 16.5218C3.53924 16.5488 3.46499 16.5405 3.40649 16.506L2.01224 15.6863C1.91024 15.6315 1.87124 15.5025 1.92599 15.4005L7.89074 3.58876C7.90949 3.54601 7.94849 3.51076 7.99199 3.49051L13.9612 0.033756C14.0272 -0.00524402 14.109 -0.00899402 14.1802 0.030006L15.8707 0.980256ZM9.62924 4.80526L8.18024 3.98851L2.41049 15.4103L3.45749 16.0275L8.43074 9.26626C8.47799 9.19951 8.55599 9.16426 8.63399 9.17626C8.71199 9.18451 8.77799 9.23401 8.81024 9.30901L14.2312 22.281L15.681 23.2193L9.63374 4.80526H9.62924ZM19.6837 12.723C17.9917 12.723 16.8435 11.004 17.4915 9.44101C18.1365 7.87876 20.1637 7.47676 21.3585 8.67226C21.8047 9.11701 22.0545 9.71926 22.0545 10.3485C22.0582 11.6603 20.9955 12.7238 19.6837 12.7238V12.723Z" fill="black"/>
</svg>
