<svg width="24" height="24" viewBox="0 0 24 24" fill="none" xmlns="http://www.w3.org/2000/svg">
<g clip-path="url(#clip0_201_57482)">
<path d="M11.898 10.0717L10.341 10.8817C9.89925 9.9637 9.15825 9.9472 9.054 9.9472C8.01675 9.9472 7.497 10.6319 7.497 12.0022C7.497 13.1069 7.929 14.0572 9.054 14.0572C9.73275 14.0572 10.2098 13.7249 10.4872 13.0604L11.919 13.7872C11.6295 14.3264 10.7145 15.6142 8.86725 15.6142C7.8075 15.6142 5.4 15.1304 5.4 12.0022C5.4 9.2512 7.41525 8.3902 8.80425 8.3902C10.2443 8.38945 11.2747 8.95045 11.8973 10.0709L11.898 10.0717ZM18.6038 10.0717L17.067 10.8817C16.6215 9.9547 15.861 9.9472 15.759 9.9472C14.721 9.9472 14.202 10.6319 14.202 12.0022C14.202 13.1062 14.6347 14.0572 15.759 14.0572C16.4362 14.0572 16.9147 13.7249 17.1908 13.0604L18.6442 13.7872C18.546 13.9627 17.6415 15.6142 15.5933 15.6142C14.5297 15.6142 12.1268 15.1514 12.1268 12.0022C12.1268 9.25195 14.1412 8.3902 15.531 8.3902C16.9703 8.38945 17.9955 8.95045 18.6038 10.0709V10.0717ZM11.979 0.377197C5.2845 0.377197 0.375 5.77045 0.375 12.0022C0.375 18.4942 5.7 23.6272 11.979 23.6272C18.0697 23.6272 23.625 18.8992 23.625 12.0022C23.625 5.53945 18.627 0.377197 11.979 0.377197ZM12.0203 21.5092C6.74475 21.5092 2.472 17.1479 2.472 12.0022C2.472 7.06045 6.47625 2.4742 12.021 2.4742C17.2957 2.4742 21.528 6.66745 21.528 12.0022C21.528 17.7067 16.8555 21.5092 12.0195 21.5092H12.0203Z" fill="black"/>
</g>
<defs>
<clipPath id="clip0_201_57482">
<rect width="24" height="24" fill="white"/>
</clipPath>
</defs>
</svg>
