<svg width="24" height="24" viewBox="0 0 24 24" fill="none" xmlns="http://www.w3.org/2000/svg">
<g clip-path="url(#clip0_201_57282)">
<path d="M20.9842 22.266C20.652 22.266 20.328 22.176 20.0392 22.008C19.1415 21.4883 18.8325 20.34 19.3522 19.4378C21.2625 16.1408 20.121 11.898 16.812 9.99153C15.762 9.38628 14.5822 9.06978 13.359 9.06978C13.0312 9.06978 12.699 8.97978 12.4177 8.81178C11.52 8.29653 11.2027 7.14453 11.73 6.24603C12.0592 5.67228 12.6757 5.31603 13.3522 5.31228C15.2152 5.31228 17.0625 5.80128 18.6885 6.73803C21.1485 8.16378 22.9065 10.4693 23.6452 13.2188C24.3795 15.969 24.0045 18.84 22.578 21.3195C22.2457 21.8903 21.6172 22.2495 20.9572 22.2495L20.9962 22.2533L20.9842 22.266ZM9.50774 23.574C5.69474 23.574 2.15174 21.5273 0.249737 18.2378C-0.270013 17.3438 0.0427372 16.191 0.940487 15.6758C1.81124 15.1718 3.00749 15.4995 3.50324 16.3628C4.73699 18.4958 7.03049 19.8195 9.49949 19.8195C10.7025 19.8195 11.8972 19.4993 12.9487 18.8948C13.9837 18.2768 14.8545 17.406 15.4725 16.3545C15.6367 16.0695 15.8625 15.8273 16.1595 15.6638C17.0197 15.1515 18.2227 15.4838 18.7185 16.3395C19.0507 16.9095 19.0507 17.6325 18.7027 18.2183C17.7697 19.839 16.4175 21.1793 14.7967 22.1243C13.1715 23.058 11.3235 23.5545 9.46049 23.5545L9.51149 23.5733L9.50774 23.574ZM10.254 6.93828C9.13724 7.97328 8.43824 9.44928 8.43824 11.094C8.43824 12.1208 8.71499 13.086 9.19499 13.9223C9.46874 14.3873 9.61724 14.91 9.61724 15.4845C9.61724 16.7303 8.88299 17.8125 7.82849 18.3098C9.28949 18.759 10.9065 18.6218 12.3405 17.7975C13.2382 17.2703 13.9305 16.5518 14.4105 15.7238C14.6805 15.2588 15.0825 14.853 15.5707 14.5785C16.653 13.9493 17.9617 14.0558 18.9225 14.7158C18.5902 13.2308 17.6602 11.8755 16.2307 11.067C15.3525 10.5563 14.3715 10.3133 13.4107 10.3133C12.8715 10.3133 12.333 10.1655 11.853 9.89628C10.7707 9.26702 10.2 8.09103 10.3057 6.91953L10.263 6.93153L10.254 6.93828ZM6.47999 17.367C5.81624 17.367 5.19524 17.0078 4.85924 16.4258C3.91799 14.805 3.43049 12.9608 3.43049 11.094C3.43049 5.21103 8.21174 0.426025 14.1022 0.426025C15.129 0.426025 15.9735 1.26603 15.9735 2.30478C15.9735 3.33978 15.1297 4.17978 14.0947 4.17978C10.2817 4.17978 7.18499 7.28103 7.18499 11.094C7.18499 12.3008 7.50074 13.4963 8.10974 14.547C8.27399 14.8283 8.35949 15.1523 8.35949 15.4838C8.35949 16.5195 7.52024 17.3625 6.47774 17.3625V17.3663L6.47999 17.367Z" fill="black"/>
</g>
<defs>
<clipPath id="clip0_201_57282">
<rect width="24" height="24" fill="white"/>
</clipPath>
</defs>
</svg>
