<svg width="24" height="24" viewBox="0 0 24 24" fill="none" xmlns="http://www.w3.org/2000/svg">
<g clip-path="url(#clip0_201_58306)">
<path d="M7.88326 11.613C7.88326 9.69525 6.41026 7.71075 3.91051 7.71075C1.98826 7.71075 0.000762939 9.18375 0.000762939 11.6798C0.000762939 13.5975 1.47376 15.5858 3.97351 15.5858C4.77376 15.5858 5.57476 15.3278 6.24676 14.8478L7.40251 15.9998L7.91476 15.4875L6.82501 14.3978C7.49701 13.6635 7.88401 12.7028 7.88401 11.613H7.88326ZM3.90976 8.41425C5.73376 8.41425 7.17976 9.82425 7.17976 11.6483C7.17976 13.215 5.96101 14.8793 3.94051 14.8793C1.92151 14.8793 0.702763 13.2465 0.702763 11.6805C0.702763 9.63375 2.34001 8.41425 3.90976 8.41425ZM9.77326 9.984H10.4453V15.4223H9.77326V9.984ZM10.0943 9.246C9.77326 9.24975 9.51601 8.988 9.51601 8.67225C9.51601 8.352 9.77326 8.094 10.0943 8.094C10.4145 8.094 10.6725 8.352 10.6725 8.67225C10.6725 8.9925 10.4145 9.246 10.0943 9.246ZM12.816 9.246C12.4958 9.24975 12.2378 8.988 12.2378 8.67225C12.2378 8.352 12.4958 8.094 12.816 8.094C13.137 8.094 13.395 8.352 13.395 8.67225C13.395 8.9925 13.137 9.246 12.816 9.246ZM12.4958 9.984H13.1715V15.4223H12.4958V9.984ZM17.2073 15.5198C15.957 15.5198 15.219 14.559 15.219 13.602V8.48025H15.8948V9.984H18.2655V10.656H15.8948V13.6328C15.8948 14.238 16.3748 14.8785 17.2065 14.8785C17.4293 14.8785 17.6558 14.8155 17.8478 14.6873L17.91 14.655L18.2303 15.2288L18.168 15.2648C17.8793 15.4245 17.5268 15.519 17.2073 15.519V15.5198ZM21.66 15.5513C19.836 15.5513 18.7463 14.1135 18.7463 12.7035C18.7463 10.8795 20.1885 9.78975 21.5985 9.78975C22.3365 9.78975 22.9103 10.0478 23.3288 10.5278V9.98475H24.0008V15.423H23.3288V14.817C22.9418 15.2978 22.368 15.552 21.6608 15.552L21.66 15.5513ZM21.5978 10.4648C20.508 10.4648 19.4175 11.2965 19.4175 12.7028C19.4175 13.7925 20.2493 14.8785 21.6593 14.8785C22.3005 14.8785 22.9403 14.5935 23.358 14.0775V11.2613C22.917 10.749 22.272 10.4565 21.597 10.464L21.5978 10.4648Z" fill="black"/>
</g>
<defs>
<clipPath id="clip0_201_58306">
<rect width="24" height="24" fill="white"/>
</clipPath>
</defs>
</svg>
