<svg width="24" height="24" viewBox="0 0 24 24" fill="none" xmlns="http://www.w3.org/2000/svg">
<g clip-path="url(#clip0_201_58488)">
<path d="M17.805 3.85121C17.805 3.85121 18.1447 5.29271 17.0587 5.49221C16.305 5.62496 15.0862 4.87496 14.4727 4.12871C13.7152 3.20696 13.8127 2.48021 14.3985 1.83971C15.2812 0.85946 16.797 1.23821 16.797 1.23821C16.797 1.23821 14.0235 -1.19179 11.1367 0.80096C8.56647 2.57021 9.30447 4.98071 11.625 7.08596C13.7145 8.98796 12.0472 11.0745 9.93747 10.8045C8.49597 10.6207 7.90647 9.46046 8.24997 8.74946C8.55072 8.13971 9.58572 7.76471 9.58572 7.76471C9.58572 7.76471 8.39397 7.28396 6.99597 7.81196C5.73447 8.28446 4.69872 9.32396 4.78122 11.9332V24.0112C4.78122 24.0112 6.08172 22.41 7.61322 20.7765C9.32397 18.9367 10.1055 17.6947 11.8635 17.8387C15.192 18.0457 17.598 16.5652 19.2345 14.1945C22.3755 9.63221 19.914 4.53446 17.805 3.85046V3.85121Z" fill="black"/>
</g>
<defs>
<clipPath id="clip0_201_58488">
<rect width="24" height="24" fill="white"/>
</clipPath>
</defs>
</svg>
