<svg width="24" height="24" viewBox="0 0 24 24" fill="none" xmlns="http://www.w3.org/2000/svg">
<g clip-path="url(#clip0_201_58162)">
<path d="M17.6722 21.633C12.3442 21.633 12.3442 13.6447 17.6722 13.6447C22.9965 13.6447 22.9965 21.633 17.6722 21.633ZM9.699 12.477C6.37125 12.477 6.37125 7.47973 9.699 7.47973C13.0312 7.47973 13.0312 12.477 9.699 12.477ZM17.8478 4.67998H11.1795C7.7805 4.68373 5.0265 7.43773 5.02275 10.836V17.5042C5.02275 20.9025 7.7805 23.6565 11.1795 23.6565H17.8478C19.4768 23.6565 21.0427 23.0085 22.1985 21.8557C23.3512 20.7 23.9993 19.1377 23.9993 17.505V10.8367C23.9993 7.43848 21.2453 4.68073 17.847 4.68073L17.8478 4.67998ZM3.996 2.33998C3.996 5.00398 0 5.00398 0 2.33998C0 -0.32402 3.996 -0.32402 3.996 2.33998Z" fill="black"/>
</g>
<defs>
<clipPath id="clip0_201_58162">
<rect width="24" height="24" fill="white"/>
</clipPath>
</defs>
</svg>
