<svg width="24" height="24" viewBox="0 0 24 24" fill="none" xmlns="http://www.w3.org/2000/svg">
<g clip-path="url(#clip0_201_57842)">
<path d="M3.672 6.14099C3.672 6.14099 1.82025 7.91024 1.719 9.78149V10.1295C1.80075 11.6415 2.9415 12.5317 2.9415 12.5317C4.77 14.3205 9.1995 16.5705 10.2382 17.079C10.2382 17.079 10.3005 17.1105 10.3395 17.0715L10.359 17.0325V16.9897C7.5195 10.8022 3.67125 6.14174 3.67125 6.14174L3.672 6.14099ZM9.64875 18.6015C9.62925 18.5197 9.55125 18.5197 9.55125 18.5197L2.172 18.7815C2.96925 20.211 4.32075 21.309 5.73075 20.9805C6.6915 20.7307 8.89125 19.1992 9.60975 18.6795C9.672 18.6285 9.64875 18.5895 9.64875 18.5895V18.6015ZM9.7305 17.82C6.48825 15.6285 0.21075 12.2812 0.21075 12.2812C0.0585 12.738 0.01125 13.1797 0 13.578V13.6485C0 14.7187 0.39825 15.4687 0.39825 15.4687C1.19925 17.16 2.73825 17.6722 2.73825 17.6722C3.44175 17.9692 4.14075 17.9805 4.14075 17.9805C4.2615 18 8.5395 17.9805 9.6795 17.9805C9.7305 17.9805 9.76125 17.9295 9.76125 17.9295V17.871C9.76125 17.8395 9.72975 17.82 9.72975 17.82H9.7305ZM9.0585 3.19124C7.605 3.56249 6.5625 4.83974 6.48825 6.33974V6.74999C6.51975 7.35149 6.64875 7.80074 6.64875 7.80074C7.30875 10.6995 10.512 15.4492 11.1997 16.449C11.2507 16.5 11.301 16.4805 11.301 16.4805C11.34 16.4647 11.3632 16.422 11.3595 16.3792C12.4222 5.78174 10.2502 2.96099 10.2502 2.96099C9.93 2.98049 9.0585 3.19124 9.0585 3.19124ZM17.3595 5.46074C17.3595 5.46074 16.8713 3.65999 14.922 3.17924C14.922 3.17924 14.352 3.03824 13.7498 2.96024C13.7498 2.96024 11.5702 5.76899 12.6285 16.3897C12.6405 16.4602 12.6908 16.4677 12.6908 16.4677C12.7612 16.4992 12.7882 16.4407 12.7882 16.4407C13.5113 15.4095 16.6905 10.6792 17.3392 7.79999C17.3392 7.79999 17.6985 6.39749 17.3587 5.45999L17.3595 5.46074ZM14.4412 18.531C14.4412 18.531 14.3708 18.531 14.3512 18.5782C14.3512 18.5782 14.3392 18.6487 14.3783 18.6795C15.0772 19.191 17.2297 20.6797 18.261 20.9805C18.261 20.9805 18.4215 21.0315 18.6908 21.039H18.8273C19.5188 21.0195 20.7292 20.6715 21.8273 18.7815L14.4285 18.5317L14.4412 18.531ZM22.2698 10.1212C22.4108 8.05874 20.328 6.14849 20.328 6.14099C20.328 6.14099 16.4805 10.8015 13.6597 16.9417C13.6597 16.9417 13.6283 17.0197 13.6793 17.0707L13.7183 17.0782H13.7805C14.8388 16.551 19.2375 14.3085 21.0578 12.5392C21.0578 12.5392 22.2097 11.6092 22.269 10.1212H22.2698ZM23.7892 12.2617C23.7892 12.2617 17.5117 15.6292 14.2695 17.8087C14.2695 17.8087 14.2185 17.8515 14.238 17.922C14.238 17.922 14.2695 17.9805 14.3085 17.9805C15.4687 17.9805 19.8713 17.9805 19.9808 17.961C19.9808 17.961 20.5507 17.9415 21.2505 17.6722C21.2505 17.6722 22.809 17.172 23.6213 15.399C23.6213 15.399 24.3517 13.95 23.7892 12.2625V12.2617Z" fill="black"/>
</g>
<defs>
<clipPath id="clip0_201_57842">
<rect width="24" height="24" fill="white"/>
</clipPath>
</defs>
</svg>
