<svg width="24" height="24" viewBox="0 0 24 24" fill="none" xmlns="http://www.w3.org/2000/svg">
<g clip-path="url(#clip0_201_57374)">
<path d="M8.58976 23.973C8.46901 23.973 8.35501 23.9535 8.26126 23.9062C8.16376 23.8635 8.07001 23.805 7.98001 23.7345C7.89376 23.664 7.83151 23.5785 7.79626 23.4727C7.76101 23.367 7.73401 23.25 7.71826 23.1292L7.74526 17.2072H23.3895L16.2803 23.973H8.56126H8.58976ZM24 15.4102C23.9843 15.5355 23.9573 15.645 23.922 15.7425C23.8868 15.8362 23.8245 15.9262 23.7345 16.0042C23.6483 16.086 23.5545 16.1452 23.457 16.1917C23.3633 16.2345 23.25 16.2585 23.1285 16.2585H17.2065L17.1795 0.582728L23.9723 7.71973V15.411L24 15.4102ZM15.4103 0.0269775C15.516 0.0269775 15.6248 0.0502275 15.7425 0.0937275C15.8558 0.136478 15.942 0.194978 16.0043 0.265478C16.0665 0.335978 16.125 0.421478 16.176 0.530978C16.2308 0.636728 16.2465 0.749978 16.2308 0.870728L16.254 6.79273H0.555013L7.71901 0.0269775H15.4103ZM0.0270129 8.58973C0.00751294 8.46898 0.0270129 8.35948 0.0780129 8.26123C0.132763 8.16373 0.195013 8.07373 0.265513 7.99573C0.336013 7.91773 0.421513 7.85473 0.527263 7.81198C0.636763 7.76473 0.741763 7.74523 0.847513 7.74523H6.79276L6.76576 23.4172L0.0277629 16.2802L0.000762939 8.58898L0.0270129 8.58973Z" fill="black"/>
</g>
<defs>
<clipPath id="clip0_201_57374">
<rect width="24" height="24" fill="white"/>
</clipPath>
</defs>
</svg>
