<svg width="24" height="24" viewBox="0 0 24 24" fill="none" xmlns="http://www.w3.org/2000/svg">
<g clip-path="url(#clip0_201_57820)">
<path d="M19.734 19.0552C19.734 19.0552 19.8398 18.984 20.004 18.8595C22.461 16.9575 24 14.2035 24 11.1412C24 5.42625 18.6292 0.785248 12.0037 0.785248C5.37825 0.785248 0 5.42625 0 11.1412C0 16.8555 5.37075 21.4965 11.9963 21.4965C12.8445 21.4965 13.6912 21.4222 14.523 21.2662L14.7847 21.2235C16.4685 22.3125 18.9218 23.2117 21.0697 23.2117C21.738 23.2117 22.0508 22.665 21.6248 22.11C20.9767 21.3127 20.082 20.04 19.734 19.056V19.0552ZM18.273 14.5312C17.559 15.5985 15.3398 17.418 12.0203 17.418H11.973C8.64525 17.418 6.42975 15.5902 5.71875 14.5312C5.57775 14.367 5.4795 14.1682 5.445 13.9575C5.42625 13.6882 5.625 13.4535 5.895 13.4302C5.90175 13.4265 5.90625 13.4265 5.91375 13.4265C6.03075 13.4347 6.14475 13.4692 6.2415 13.5397C7.86675 14.8635 9.89775 15.591 11.9955 15.5947C14.1015 15.618 16.1445 14.8875 17.7577 13.536C17.844 13.458 17.9528 13.4152 18.0697 13.4152C18.336 13.4152 18.5467 13.626 18.555 13.8885C18.5227 14.1225 18.4297 14.3452 18.285 14.5327L18.273 14.5312Z" fill="black"/>
</g>
<defs>
<clipPath id="clip0_201_57820">
<rect width="24" height="24" fill="white"/>
</clipPath>
</defs>
</svg>
