<svg width="24" height="24" viewBox="0 0 24 24" fill="none" xmlns="http://www.w3.org/2000/svg">
<g clip-path="url(#clip0_201_58798)">
<path d="M20.7773 18.7462C20.031 19.461 19.2195 19.7625 18.234 19.7625C16.914 19.7625 14.9138 19.1527 13.3913 18.1027C11.7623 16.9845 9.62551 15.8677 7.82851 15.8325C9.15226 14.0355 11.2193 12.2032 13.1483 10.0357C13.863 9.25498 18.1335 4.33648 18.879 3.44998C19.422 2.80573 19.6913 2.02423 19.6913 1.24273C19.6913 0.941982 19.6605 0.656982 19.5945 0.387732C17.5598 0.793482 16.0313 0.988482 13.5908 0.988482C10.9148 1.00423 8.98501 0.676482 7.86001 0.000732422C7.08301 1.02073 6.30226 2.37148 6.30226 3.12148C6.30226 4.06648 7.22026 4.84873 9.48901 4.84873C10.2353 4.84873 11.454 4.81273 13.149 4.68073C9.65701 9.18073 6.20026 12.8407 4.13401 15.1485C3.42301 15.9307 3.01276 16.9807 3.01276 18.0315C3.01276 18.4342 3.09076 18.8407 3.19201 19.2157C3.84076 19.11 4.48501 19.0357 5.15701 19.0357C6.55576 19.0357 7.95001 19.3365 9.23926 19.8757C11.8065 21.0165 14.2043 24.0007 16.923 24.0007C19.1258 24.0007 20.985 22.2585 20.985 19.9657C20.985 19.56 20.9273 19.1415 20.79 18.735L20.7773 18.7462Z" fill="black"/>
</g>
<defs>
<clipPath id="clip0_201_58798">
<rect width="24" height="24" fill="white"/>
</clipPath>
</defs>
</svg>
