<svg width="24" height="24" viewBox="0 0 24 24" fill="none" xmlns="http://www.w3.org/2000/svg">
<g clip-path="url(#clip0_201_58704)">
<path d="M17.7338 7.23825C17.7338 6.9885 17.7338 6.762 17.883 6.6135C18.0818 6.43875 18.2813 6.46125 18.4838 6.46125H19.9095C20.6753 6.46125 21.7845 6.66 22.5345 7.34025C23.2845 8.03925 23.4488 9.039 23.4488 9.94125V12.195C23.4488 12.7928 23.4645 13.2233 23.1675 13.773C22.7925 14.4728 22.0118 14.6723 22.0118 14.7728C22.0118 14.8748 22.8518 15.027 23.2268 15.777C23.5268 16.3792 23.496 16.7542 23.496 17.352V20.457C23.496 21.0742 23.496 21.852 22.5983 22.902C21.7425 23.8477 20.559 23.9842 19.9575 23.9842C19.5083 23.9842 19.1805 24 18.7275 23.9842C18.4305 23.9535 17.9775 24 17.8718 23.8485C17.724 23.6213 17.6805 23.6685 17.6805 22.9928V7.23075L17.7338 7.23825ZM12.273 23.586C12.273 23.988 12.1763 23.988 11.4218 23.988C10.848 23.988 10.6718 23.988 10.6718 23.637V7.23C10.6718 6.98025 10.695 6.70725 10.848 6.555C11.0468 6.37875 11.223 6.453 11.4218 6.453H12.852C13.6523 6.453 14.73 6.65175 15.48 7.32825C16.23 8.02725 16.4063 9.05925 16.4063 9.9345V12.1957C16.4063 12.7935 16.4303 13.224 16.1295 13.7738C15.7545 14.4735 14.9535 14.673 14.9535 14.7735C14.9535 14.8755 15.7778 15.0278 16.1528 15.7778C16.4535 16.3755 16.431 16.7505 16.431 17.3527V23.5785C16.431 23.9692 16.251 23.9692 15.5753 23.9692C14.9933 23.9692 14.8253 23.9842 14.8253 23.6092V17.25C14.8253 16.2232 14.1533 15.5978 13.599 15.5978C12.411 15.5978 12.2633 15.5738 12.2633 15.9728V23.562L12.273 23.586ZM8.44502 23.961C7.77002 23.961 7.69502 23.961 7.69502 23.6092V6.86325C7.69502 6.5355 7.84427 6.48825 8.44502 6.48825C9.11702 6.48825 9.29702 6.51225 9.29702 6.88725V23.562C9.29702 23.9377 9.24977 23.9692 8.45327 23.9692L8.44502 23.961ZM19.6088 22.3358C19.8045 22.3628 19.836 22.3627 20.0618 22.3627C20.3318 22.3627 20.961 22.2885 21.4095 21.8235C21.9053 21.2843 21.9375 20.9258 21.9375 20.5072V17.2965C21.9375 16.1408 21.2618 15.6473 20.5118 15.6473C19.4295 15.6473 19.3545 15.7223 19.3545 16.3193V21.585C19.3545 21.87 19.3703 22.335 19.5938 22.3657L19.6088 22.3358ZM3.60902 18.777C4.03502 14.4727 4.41002 10.8158 4.80902 6.88275C4.85927 6.4605 5.05877 6.48375 5.51177 6.48375C6.21077 6.48375 6.46052 6.53475 6.43802 6.8115C5.68802 12.9765 5.10902 17.5343 4.35902 23.6243C4.31177 23.9835 4.04702 23.9993 3.53477 23.9993C2.89052 23.9993 2.58977 23.9993 2.53052 23.577C1.85477 17.937 1.23752 12.9293 0.507768 6.78C0.487518 6.47925 0.609018 6.47925 1.31552 6.47925C2.05052 6.47925 2.19827 6.55425 2.21477 6.8865C2.62052 11.2657 2.92202 14.6715 3.29702 18.8392C3.29702 18.9135 3.32402 19.077 3.44477 19.077C3.59402 19.077 3.62477 18.9128 3.62477 18.8078L3.60902 18.777ZM12.9263 8.11275C12.699 8.11275 12.4733 8.11275 12.3713 8.289C12.297 8.43825 12.297 8.56575 12.297 8.715V13.398C12.297 13.6718 12.246 13.9493 12.4448 14.0978C12.594 14.2185 12.7695 14.1877 12.8948 14.1877C13.1715 14.1877 13.824 14.1128 14.277 13.6327C14.7728 13.074 14.7728 12.6555 14.7728 12.297V9.945C14.7728 9.36675 14.676 8.94075 14.25 8.49225C13.977 8.2425 13.824 8.11725 12.9263 8.11725V8.11275ZM20.1563 8.11275C19.8053 8.11275 19.5315 8.11275 19.4303 8.289C19.359 8.43825 19.359 8.56575 19.359 8.715V13.398C19.359 13.6718 19.332 13.8982 19.5083 14.0737C19.656 14.223 19.758 14.199 19.9575 14.199C20.3093 14.199 20.8838 14.1248 21.3368 13.6478C21.837 13.0935 21.837 12.7185 21.837 12.312V9.945C21.837 9.36675 21.735 8.94075 21.3098 8.49225C21.036 8.2425 20.8598 8.11725 20.157 8.11725L20.1563 8.11275ZM10.8908 2.01225H9.31202V0.39525C9.31202 0.02325 9.14102 0 8.47727 0C7.89152 0 7.74227 0.051 7.74227 0.36675V2.0115H6.20327C5.83652 2.0115 5.80952 2.18325 5.80952 2.84325C5.80952 3.4335 5.85977 3.5775 6.17627 3.5775H7.73852V5.1285C7.73852 5.47275 7.81652 5.47275 8.47352 5.47275C9.26252 5.47275 9.30977 5.44875 9.30977 5.0775V3.58125H10.9388C11.2815 3.58125 11.2815 3.507 11.2815 2.847C11.2815 2.061 11.2583 2.01075 10.8915 2.01075L10.8908 2.01225Z" fill="black"/>
</g>
<defs>
<clipPath id="clip0_201_58704">
<rect width="24" height="24" fill="white"/>
</clipPath>
</defs>
</svg>
