<svg width="24" height="24" viewBox="0 0 24 24" fill="none" xmlns="http://www.w3.org/2000/svg">
<g clip-path="url(#clip0_201_58120)">
<path d="M1.76992 1.76175C2.82367 0.6555 4.27267 0.0225 5.80117 0H18.3982C19.7699 0 21.0509 0.60225 22.2299 1.76175C23.3399 2.77275 23.9797 4.1985 23.9999 5.6985V18.4688C23.9999 19.809 23.4412 21.051 22.3199 22.1985C21.2579 23.3197 19.7932 23.9685 18.2497 23.9993H5.87092C4.35892 23.9835 2.90167 23.4293 1.76992 22.4295C0.690665 21.4485 0.101916 20.0303 -8.43617e-05 18.1283V5.72925C-0.0158344 4.2105 0.629166 2.7615 1.76992 1.761V1.76175ZM8.01967 10.059L15.9487 20.121H18.0697C18.5587 20.0588 18.9487 19.9222 19.2374 19.6912C19.5382 19.461 19.7377 19.1295 19.8787 18.6915V13.7505C19.9604 12.8018 20.5507 12.2115 21.6479 12.0007C20.5507 11.6025 19.9612 10.9808 19.8787 10.1415V5.4225C19.7617 4.98075 19.5509 4.6215 19.2374 4.35225C18.9374 4.0785 18.5542 3.9105 18.1477 3.879H15.9997V14.0782L8.01967 3.8715H5.78842C5.22967 3.96975 4.81942 4.17225 4.53817 4.46925C4.26142 4.77 4.07692 5.25 3.99892 5.898V10.7498C3.64717 11.4405 3.10117 11.8515 2.35117 12C3.19792 12.1597 3.74917 12.609 3.99892 13.359V18.129C4.01917 18.6803 4.19767 19.1287 4.53817 19.5C4.87042 19.8592 5.23717 20.031 5.63992 20.0002H7.99867L8.01967 10.059Z" fill="black"/>
</g>
<defs>
<clipPath id="clip0_201_58120">
<rect width="24" height="24" fill="white"/>
</clipPath>
</defs>
</svg>
