<svg width="24" height="24" viewBox="0 0 24 24" fill="none" xmlns="http://www.w3.org/2000/svg">
<g clip-path="url(#clip0_201_57778)">
<path d="M5.87323 8.87324C5.82148 9.34199 6.11698 9.76874 6.11698 9.76874C6.14998 9.41699 6.21973 9.16874 6.30448 8.99099C6.32323 9.47399 6.45448 10.0927 6.90448 10.5892C7.22773 10.9455 8.57323 11.6812 9.47773 10.875C9.52498 10.9875 9.57598 11.1232 9.61873 11.2732C9.75448 11.7562 9.49198 12.459 9.49198 12.459C9.49198 12.459 10.2 11.6572 10.1437 10.9357C10.65 10.9125 11.1472 10.542 11.133 10.0215C11.133 10.0215 10.2472 10.509 9.46873 9.60899C9.01423 9.08399 7.55173 7.64024 5.57323 8.11799C5.77498 8.16524 5.99023 8.23049 6.20623 8.30999H6.20173C6.00523 8.40374 5.89723 8.64299 5.87323 8.87249V8.87324ZM7.19998 8.78924C8.11423 9.30524 8.95273 9.99374 9.30448 10.524C9.03748 10.6785 8.28748 11.0115 7.52323 10.4445C7.04023 10.0882 7.06348 9.21674 7.19998 8.78999V8.78924ZM13.8607 10.9357C13.8045 11.6625 14.5125 12.459 14.5125 12.459C14.5125 12.459 14.25 11.7555 14.3857 11.2732C14.4277 11.1232 14.4795 10.992 14.5267 10.875C15.4312 11.6857 16.7767 10.9455 17.0955 10.5892C17.5455 10.0927 17.6722 9.47399 17.6955 8.99099C17.7802 9.16949 17.8545 9.41774 17.883 9.76874C17.883 9.76874 18.183 9.34199 18.1267 8.87324C18.099 8.63849 17.991 8.40449 17.7982 8.31974H17.7937C18.009 8.23499 18.225 8.16974 18.4267 8.12774C16.4437 7.64999 14.9857 9.09374 14.5312 9.61874C13.7482 10.5187 12.867 10.0312 12.867 10.0312C12.858 10.542 13.3545 10.917 13.8607 10.9357ZM16.8 8.78924C16.941 9.21599 16.9597 10.0875 16.4715 10.4482C15.708 11.0152 14.9625 10.683 14.6947 10.5232C15.0465 9.98924 15.885 9.30449 16.7992 8.78849L16.8 8.78924ZM10.5 19.617H9.12223C8.86423 19.617 8.73748 19.692 8.67673 19.7527C8.58748 19.8465 8.57323 19.9732 8.63473 20.1322C8.79898 20.559 9.16948 20.9055 9.27673 21.0045C9.42223 21.1312 9.62848 21.2055 9.83023 21.2055C10.0365 21.2055 10.2195 21.126 10.3462 20.9902C10.698 20.6062 10.9042 20.1885 10.956 20.0617C10.9845 19.9912 11.0167 19.851 10.914 19.743C10.8292 19.6582 10.6935 19.6162 10.5015 19.6162L10.5 19.617ZM19.3687 14.8732C19.2562 15.7125 18.759 16.458 18.216 16.9215C18.0705 15.8572 18.042 14.3197 18.042 13.9965C18.042 13.3072 18.4875 12.8482 18.6142 12.7732C18.7312 12.7027 18.867 12.6322 19.0027 12.5572C19.8465 12.1072 20.8965 11.5447 20.8965 10.509C20.8965 9.74999 20.4607 9.42149 20.1742 9.20549C20.1367 9.17774 20.1037 9.15374 20.0715 9.12599C19.9732 9.04649 19.8982 8.98499 19.8697 8.91973C19.6635 8.45999 19.701 7.31699 19.7902 7.15724C19.8187 7.12949 20.5732 6.17774 20.3437 5.31974C20.25 4.97324 20.0205 4.69649 19.683 4.52249C19.4347 4.39574 19.125 4.32599 18.7687 4.31174C18.7642 4.21799 18.7455 4.12874 18.7267 4.03499C18.6982 3.91274 18.675 3.78674 18.6847 3.65549C18.7035 3.43499 18.7222 3.23324 18.7875 3.12599C19.1812 2.50274 20.1375 2.30099 20.1472 2.30099L20.724 2.18849L20.3445 1.74299C20.34 1.73399 19.5337 0.922485 18.174 0.922485C17.8035 0.922485 17.424 0.983235 17.0445 1.10549C15.9097 1.47074 15.0337 2.53499 14.7285 2.94749C14.583 2.90024 14.433 2.85824 14.2785 2.82074C14.0812 2.07974 14.7007 1.01624 14.7007 1.01624C14.7007 1.01624 14.0632 0.875235 13.1205 1.72874C12.999 1.42424 12.741 0.767985 13.0365 -0.0150146C11.6535 0.472485 11.307 1.21799 11.2035 1.89299C10.8472 1.64024 10.8892 0.809985 10.866 0.599235C10.5142 0.641235 9.49723 1.62599 9.54448 2.86349C9.45073 2.88674 9.36148 2.91524 9.26773 2.94299C8.96323 2.53049 8.09098 1.46624 6.95248 1.10099C6.58198 0.998235 6.20248 0.936735 5.83198 0.936735C4.47223 0.936735 3.67123 1.74749 3.66223 1.75724L3.28273 2.19749L3.85948 2.30999C3.86848 2.30999 4.82473 2.51174 5.21923 3.13499C5.28448 3.23849 5.30398 3.44474 5.32198 3.66449C5.33098 3.79574 5.30323 3.92249 5.27998 4.04399C5.26123 4.13324 5.24248 4.22699 5.23798 4.32074C4.87723 4.33499 4.57273 4.40549 4.32373 4.53149C3.98623 4.70474 3.75673 4.98149 3.66298 5.32874C3.42823 6.18149 4.18798 7.13324 4.21573 7.16624C4.30498 7.32599 4.34248 8.46974 4.13623 8.92874C4.10848 8.99399 4.03348 9.05549 3.93448 9.13499C3.90148 9.15824 3.86923 9.18674 3.83173 9.21524C3.54598 9.43049 3.11023 9.76349 3.11023 10.518C3.11023 11.5537 4.16023 12.1162 5.00398 12.567C5.14498 12.642 5.27623 12.7125 5.39323 12.7822C5.51998 12.8572 5.96473 13.317 5.96473 14.0055C5.96473 14.3287 5.93698 15.8662 5.79148 16.9305C5.24773 16.4662 4.75123 15.7162 4.63798 14.877C4.63798 14.877 3.26923 15.9367 3.67273 18.1957C3.91648 19.5787 4.76023 20.3565 5.87623 20.76C6.28873 21.6555 7.25398 22.9027 9.03073 23.085C9.70573 23.6385 10.6432 23.9992 12.012 23.9992H12.021C13.3852 23.9992 14.3227 23.6385 15.0022 23.085C16.779 22.902 17.7442 21.6555 18.1567 20.76C19.2727 20.352 20.1112 19.5787 20.3602 18.1957C20.7442 15.927 19.371 14.8725 19.371 14.8725L19.3687 14.8732ZM17.3295 1.76699C17.592 1.68224 17.8732 1.64024 18.159 1.64024C18.675 1.64024 19.092 1.78124 19.317 1.87499C19.1715 1.94024 19.017 2.02499 18.8617 2.12324C18.7492 2.10449 18.5992 2.08574 18.4305 2.08574C17.9385 2.08574 17.4697 2.23124 17.085 2.50274C16.5082 2.91074 16.2412 3.29474 16.1145 3.55274C16.0117 3.49199 15.9037 3.43574 15.7815 3.37949C15.7065 3.34199 15.636 3.30899 15.561 3.27599C15.8467 2.84924 16.494 2.03399 17.328 1.76699H17.3295ZM18.3142 2.62049C18.2767 2.66774 18.2392 2.71874 18.2062 2.77049C18.0517 3.01424 18.0232 3.31424 18 3.60449C17.9767 3.90449 17.9482 4.19024 17.7937 4.40174C17.5965 4.43924 17.4142 4.48124 17.2545 4.52849C17.1465 4.38299 16.992 4.19999 16.7625 4.00349C16.8277 3.77849 17.0205 3.24899 17.3955 2.94899C17.658 2.74799 17.967 2.63474 18.3142 2.62049ZM5.13748 2.12324C4.98298 2.02049 4.82773 1.93574 4.68223 1.87499C4.90723 1.78124 5.32498 1.64024 5.84023 1.64024C6.12598 1.64024 6.40273 1.68224 6.66973 1.76699C7.50448 2.03924 8.15098 2.85449 8.43673 3.27149C8.36173 3.30449 8.28673 3.33674 8.21173 3.37424C8.09473 3.43049 7.98223 3.49124 7.87873 3.54749C7.75648 3.29474 7.48948 2.90549 6.90823 2.49749C6.51973 2.22524 6.05548 2.08049 5.55823 2.08049C5.39848 2.08499 5.24848 2.10374 5.13598 2.12249L5.13748 2.12324ZM7.23298 4.00274C7.00348 4.19999 6.84373 4.37774 6.74098 4.52774C6.58123 4.48574 6.39898 4.43849 6.20173 4.40099C6.04723 4.19474 6.02323 3.90899 5.99998 3.60899C5.97673 3.31874 5.94823 3.01799 5.79373 2.77424C5.76073 2.72249 5.72323 2.67149 5.68573 2.62424C6.03223 2.63849 6.34198 2.74649 6.59998 2.95274C6.97498 3.24824 7.16698 3.77774 7.23298 4.00274ZM5.72323 12.183C5.59648 12.108 5.46073 12.0375 5.32948 11.9677C4.63123 11.5927 3.91423 11.2035 3.91423 10.5382C3.91423 10.0177 4.11598 9.85349 4.33123 9.68549L4.35448 9.66674C4.38748 9.63899 4.42048 9.61049 4.45798 9.58199C4.41598 9.91949 4.36873 10.2052 4.33123 10.2802C4.33123 10.2802 4.89823 9.57674 5.06773 8.20349C5.13298 7.66424 5.01598 6.59549 4.82848 6.18749C4.83748 6.41699 4.82848 6.64724 4.81423 6.86249C4.79548 6.82499 4.77673 6.78749 4.75348 6.75974C4.60348 6.57224 4.20073 5.93924 4.31323 5.51324C4.35523 5.34899 4.45873 5.23199 4.62748 5.14724C4.80598 5.05799 5.03998 5.01149 5.33548 5.01149C5.91223 5.01149 6.54973 5.18474 6.87748 5.29274C8.05423 5.66774 9.47473 6.74099 9.88198 7.06049C9.89098 7.06949 9.90073 7.07399 9.90073 7.07399L10.1632 7.25699L9.99898 6.98474C9.98998 6.97049 9.10348 5.51324 7.50523 4.80524C7.59898 4.66949 7.85173 4.42573 8.51773 4.09724C9.52123 3.60524 10.6972 3.35699 12.0007 3.35699C13.3087 3.35699 14.4802 3.60524 15.4837 4.09724C16.149 4.42049 16.4025 4.66949 16.4962 4.80524C14.9025 5.51324 14.0167 6.97049 14.007 6.98474L13.8427 7.25699L14.1052 7.07399C14.1052 7.07399 14.115 7.06949 14.124 7.06049C14.532 6.74174 15.9525 5.66324 17.1285 5.29274C17.457 5.18999 18.0945 5.01149 18.6705 5.01149C18.966 5.01149 19.2 5.05874 19.3785 5.14724C19.5427 5.23199 19.6462 5.35349 19.6927 5.51324C19.8097 5.93999 19.407 6.57224 19.2517 6.75974C19.2285 6.78824 19.2097 6.82049 19.191 6.86249C19.1775 6.64724 19.1677 6.41699 19.1775 6.18749C18.99 6.59999 18.873 7.66424 18.9382 8.20349C19.107 9.57674 19.674 10.2802 19.674 10.2802C19.6365 10.2052 19.5892 9.91949 19.5472 9.58199C19.5802 9.61049 19.6177 9.63824 19.65 9.66674L19.6732 9.68549C19.8892 9.85874 20.0902 10.0185 20.0902 10.5382C20.0902 11.2035 19.368 11.5927 18.6742 11.9677C18.5385 12.0382 18.4072 12.1132 18.2805 12.183C17.8725 12.4177 17.4367 12.966 17.385 13.7865C17.343 14.4705 17.427 16.1257 17.5447 17.3445C16.9635 17.5695 16.293 17.6445 15.684 17.6632C15.5902 17.4712 15.501 17.265 15.426 17.049C15.393 16.9552 14.5072 14.6535 14.1885 14.1337C14.4465 15.9622 15.009 17.5882 15.2902 18.3337C15.126 18.3105 14.9482 18.3007 14.742 18.3007H9.25723C9.05098 18.3007 8.86798 18.315 8.70898 18.3337C8.99023 17.5882 9.55723 15.9615 9.81073 14.1337C9.49198 14.6587 8.60623 16.9605 8.57323 17.049C8.49823 17.265 8.40898 17.4712 8.31523 17.6632C7.70548 17.6445 7.04023 17.5695 6.45448 17.3445C6.57148 16.1257 6.65623 14.4757 6.61423 13.7865C6.57223 12.9705 6.13123 12.4177 5.72323 12.183ZM4.63123 18.966C4.06423 18.0285 4.22323 16.4302 4.45798 16.1955C4.96873 17.808 6.67048 18.2722 7.94548 18.3232C7.81873 18.5205 7.70173 18.6795 7.61698 18.792L7.55173 18.858C7.21423 19.224 7.14823 19.725 7.35973 20.349C6.29548 20.3445 5.18923 19.8892 4.63198 18.966H4.63123ZM6.77323 21.0045C7.05448 21.0562 7.34473 21.0937 7.64548 21.117C7.80973 21.492 7.99198 21.8625 8.22148 22.2C7.54648 21.9232 7.07773 21.45 6.77323 21.0045ZM12 23.3527C9.15898 23.3482 8.32948 21.2055 8.02048 20.3197C7.84648 19.8277 7.86073 19.467 8.06248 19.2367C8.19823 19.0822 8.50798 18.8992 9.21598 18.8992H14.7847C15.4927 18.8992 15.807 19.0822 15.9382 19.2367C16.1347 19.4617 16.149 19.8277 15.9802 20.3197C15.6712 21.201 14.8417 23.3482 12.0007 23.3527H12ZM15.7785 22.2C16.008 21.8625 16.191 21.492 16.3545 21.117C16.6545 21.0937 16.9455 21.0562 17.2267 21.0045C16.9222 21.45 16.4535 21.9232 15.7785 22.2ZM19.3687 18.966C18.8062 19.8892 17.7 20.3392 16.6455 20.358C16.8562 19.7347 16.791 19.2285 16.4535 18.867C16.4347 18.8437 16.4115 18.8197 16.3882 18.7965C16.3035 18.684 16.1865 18.5242 16.0597 18.3277C17.3347 18.2715 19.0365 17.8117 19.5472 16.2C19.782 16.4347 19.941 18.033 19.3687 18.966ZM11.9955 8.79824H12.0052C12.6007 8.79374 13.2802 7.96349 13.2802 7.96349C12.816 8.24474 12.399 8.34299 12.0007 8.35274C11.6025 8.34374 11.1855 8.24474 10.7212 7.96349C10.7212 7.96349 11.4007 8.78849 11.9962 8.79824H11.9955ZM14.8875 19.6125H13.509C13.3125 19.6125 13.1715 19.6545 13.092 19.7392C12.9892 19.8465 13.0215 19.983 13.05 20.0535C13.0972 20.175 13.308 20.583 13.6597 20.958C13.7865 21.0937 13.9695 21.1687 14.1757 21.1687C14.382 21.1687 14.5837 21.0937 14.7292 20.9715C14.8372 20.8777 15.207 20.5402 15.3712 20.1232C15.432 19.9687 15.4185 19.842 15.3292 19.7527C15.2685 19.692 15.1417 19.617 14.889 19.6117L14.8875 19.6125Z" fill="black"/>
</g>
<defs>
<clipPath id="clip0_201_57778">
<rect width="24" height="24" fill="white"/>
</clipPath>
</defs>
</svg>
