<svg width="24" height="24" viewBox="0 0 24 24" fill="none" xmlns="http://www.w3.org/2000/svg">
<path d="M21.7927 15.0037C21.867 14.9452 21.9765 14.9962 21.9877 15.0855C21.9915 15.1402 21.9998 15.1987 21.9998 15.2572C21.9998 16.8435 18.6675 18.9997 12 18.9997C5.3325 18.9997 2.00025 16.8435 2.00025 15.2617C2.00025 15.207 2.00775 15.1485 2.01225 15.0975C2.02425 15.0037 2.133 14.9565 2.20725 15.0157C3.86325 16.203 7.125 17.223 12 17.223C16.8825 17.223 20.1442 16.2037 21.7927 15.0045V15.0037ZM12 14.1682C6.594 14.1682 3.012 12.9375 1.2615 11.52C1.203 11.469 1.10925 11.4885 1.074 11.559C0.98025 11.7345 0.9375 11.9265 0.9375 12.1177C0.9375 13.8675 4.62525 16.2037 12 16.2037C19.3748 16.2037 23.0625 13.8757 23.0625 12.1177C23.0625 11.9227 23.0198 11.7352 22.926 11.559C22.8908 11.4885 22.797 11.469 22.7385 11.52C20.9888 12.9382 17.4067 14.1682 12 14.1682ZM24 8.43749C24 10.4572 20.0002 13.1482 12 13.1482C3.99975 13.1482 0 10.4565 0 8.43749C0 6.42149 3.99975 5.00024 12 5.00024C20.0002 5.00024 24 6.42224 24 8.43749ZM20.4998 8.12099C20.4998 7.10549 17.6677 6.52724 12 6.52724C6.33225 6.52724 3.50025 7.10924 3.50025 8.12099C3.50025 9.13274 6.33225 10.6012 12 10.6012C17.6677 10.6012 20.4998 9.13274 20.4998 8.12099Z" fill="black"/>
</svg>
