<svg width="24" height="24" viewBox="0 0 24 24" fill="none" xmlns="http://www.w3.org/2000/svg">
<g clip-path="url(#clip0_201_57878)">
<path d="M0 0V24H24V0H0ZM3.723 3.10875H8.72325V4.94475H7.332V11.223H8.72325V13.0553H3.723V11.223H5.16825V4.94475H3.723V3.10875ZM14.7772 3.10875H17.0002V9.609C17.0002 10.2233 16.9455 10.7227 16.7775 11.1683C16.6095 11.6093 16.3875 11.9453 16.0553 12.2775C15.777 12.5558 15.3915 12.8362 14.9452 12.9457C14.484 13.1295 13.9965 13.224 13.5 13.224C12.723 13.224 12.0547 13.056 11.5553 12.7778C11.07 12.5048 10.641 12.1455 10.2773 11.724L11.6685 10.1693C11.9452 10.5015 12.2235 10.7242 12.5002 10.8923C12.777 11.0565 13.1093 11.169 13.4452 11.169C13.836 11.169 14.1645 11.0557 14.445 10.7782C14.664 10.5015 14.7772 10.11 14.7772 9.501V3.10875ZM2.223 19.5H11.223V21H2.223V19.5Z" fill="black"/>
</g>
<defs>
<clipPath id="clip0_201_57878">
<rect width="24" height="24" fill="white"/>
</clipPath>
</defs>
</svg>
