<svg width="24" height="24" viewBox="0 0 24 24" fill="none" xmlns="http://www.w3.org/2000/svg">
<g clip-path="url(#clip0_201_58288)">
<path d="M21.9372 5.26999C21.2104 4.18399 20 2.94199 18.785 2.13724C16.2575 0.406991 13.3317 -0.206509 10.7419 0.0627408C8.04645 0.351491 5.7342 1.36774 3.83595 3.06649C2.0742 4.63699 0.910199 6.55849 0.398699 8.39074C-0.117301 10.2267 -0.0505506 11.9217 0.136949 13.199C0.331949 14.4957 0.976949 16.1285 0.976949 16.1285C1.1097 16.4412 1.29345 16.5702 1.3872 16.6205C1.8597 16.8785 2.63295 16.652 3.2307 15.9837C3.2577 15.9447 3.27345 15.8862 3.2577 15.839C3.09345 15.1985 3.0312 14.7177 2.9727 14.3465C2.83995 13.6085 2.7777 12.3777 2.86695 11.237C2.9142 10.6197 3.03495 9.95974 3.24195 9.26824C3.64845 7.90099 4.50795 6.47524 5.8437 5.28799C7.2852 4.01074 9.13245 3.22174 10.8904 3.01849C11.5077 2.94424 12.6792 2.87374 14.0899 3.22174C14.3907 3.29599 15.6837 3.63199 17.0629 4.56949C18.0709 5.25274 18.8794 6.09649 19.4382 6.93274C20.0082 7.72999 20.6217 9.07324 20.8054 10.058C21.0597 11.1792 21.0597 12.3627 20.8797 13.5192C20.6532 14.6795 20.2467 15.8045 19.6182 16.7967C19.181 17.5625 18.2787 18.578 17.216 19.34C16.2552 20.0157 15.1572 20.504 14.0284 20.7732C13.4622 20.9097 12.8877 20.996 12.3019 21.0155C11.7822 21.0312 11.0907 21.0155 10.6069 20.9337C9.88395 20.8167 9.7362 20.633 9.5682 20.3832C9.5682 20.3832 9.45495 20.2032 9.42345 19.7232C9.43545 15.317 9.43095 16.493 9.43095 14.2077C9.43095 13.559 9.41145 12.9732 9.4152 12.4422C9.4467 11.5715 9.52095 10.9692 10.1457 10.3212C10.5949 9.84049 11.2279 9.55174 11.9232 9.55174C12.1339 9.55174 12.8607 9.56374 13.4974 10.0947C14.1852 10.6647 14.2984 11.4462 14.3254 11.657C14.4814 12.8795 13.6729 13.79 13.3647 14.0202C12.9777 14.309 12.6342 14.45 12.4002 14.5317C11.9044 14.696 11.3614 14.7425 10.8687 14.7117C10.7944 14.708 10.7277 14.759 10.7127 14.8325L10.5484 15.6882C10.3879 16.337 10.7479 16.5747 10.9587 16.661C11.6307 16.868 12.2239 16.9542 12.9274 16.8995C14.0097 16.8252 15.0762 16.3992 15.9822 15.5555C16.7517 14.8212 17.1889 13.919 17.3419 12.9072C17.4904 11.786 17.2947 10.5792 16.7832 9.55924C16.2207 8.43049 15.2517 7.48924 13.9744 6.97699C12.6814 6.46924 11.6539 6.44974 10.3302 6.78574L10.3182 6.79324C9.45495 7.09024 8.7207 7.45324 7.95495 8.24224C7.43145 8.78899 6.99795 9.44899 6.7362 10.1952C6.4782 10.949 6.4077 11.5115 6.39645 12.383C6.3807 13.0272 6.4122 13.6287 6.4122 14.1912V17.8902C6.4122 19.0737 6.36945 19.2807 6.4122 19.8905C6.4317 20.2925 6.4902 20.75 6.66645 21.242C6.8502 21.7812 7.22895 22.3355 7.4907 22.5935C7.8582 22.9842 8.32695 23.297 8.7837 23.492C9.8382 23.9607 11.2639 24.035 12.4205 23.9877C13.1862 23.9607 13.9557 23.855 14.7132 23.675C16.2207 23.3157 17.6704 22.6632 18.9477 21.7572C20.3149 20.7927 21.5022 19.4802 22.1584 18.3627C22.9984 17.0382 23.5414 15.5502 23.8264 14.0187C24.0807 12.4872 24.0687 10.9175 23.7252 9.40924C23.4559 8.00674 22.7367 6.47149 21.9049 5.23324L21.9372 5.26999Z" fill="black"/>
</g>
<defs>
<clipPath id="clip0_201_58288">
<rect width="24" height="24" fill="white"/>
</clipPath>
</defs>
</svg>
