<svg width="24" height="24" viewBox="0 0 24 24" fill="none" xmlns="http://www.w3.org/2000/svg">
<g clip-path="url(#clip0_201_57228)">
<path d="M7.07847 23.5508C6.60597 23.2343 6.18372 22.8473 5.83647 22.3988C5.44947 21.9375 5.09847 21.4493 4.76997 20.9453C4.00422 19.824 3.40647 18.6015 2.98872 17.3085C2.48847 15.8085 2.24622 14.3708 2.24622 12.9645C2.24622 11.394 2.58597 10.023 3.25047 8.87102C3.73872 7.97252 4.46922 7.21877 5.34822 6.69152C6.19947 6.16052 7.18797 5.87102 8.18772 5.85152C8.53947 5.85152 8.91822 5.90252 9.32022 6.00002C9.60897 6.08177 9.96072 6.21077 10.3905 6.37127C10.9372 6.58202 11.238 6.71102 11.34 6.74252C11.6602 6.85952 11.9295 6.91052 12.141 6.91052C12.3015 6.91052 12.528 6.85952 12.7852 6.78152C12.93 6.73052 13.203 6.64052 13.5937 6.47327C13.9807 6.33227 14.2852 6.21152 14.5275 6.12152C14.8987 6.01202 15.258 5.91077 15.5782 5.85977C15.969 5.80127 16.3552 5.78177 16.7265 5.81252C17.4375 5.85977 18.0862 6.01202 18.6682 6.23027C19.6875 6.64052 20.5117 7.28102 21.1252 8.19152C20.8635 8.35202 20.625 8.53502 20.3985 8.74202C19.9102 9.17177 19.5 9.67952 19.1677 10.2458C18.738 11.0153 18.519 11.8868 18.5235 12.765C18.5392 13.8473 18.8167 14.8005 19.3635 15.6248C19.7542 16.2263 20.2695 16.7378 20.8987 17.16C21.2115 17.3708 21.4807 17.5155 21.7387 17.613C21.618 17.988 21.489 18.351 21.3367 18.711C20.9887 19.5195 20.5747 20.2928 20.0865 21.0233C19.653 21.6525 19.3132 22.1213 19.0552 22.4333C18.6532 22.9095 18.2662 23.2733 17.8755 23.5268C17.4457 23.8118 16.938 23.964 16.422 23.964C16.0702 23.9798 15.723 23.9325 15.387 23.8388C15.0982 23.7413 14.8125 23.6355 14.5312 23.5148C14.238 23.382 13.9372 23.265 13.629 23.175C13.2465 23.0738 12.8557 23.0265 12.465 23.0265C12.063 23.0265 11.6722 23.0775 11.3047 23.1713C10.992 23.2613 10.6912 23.3663 10.3942 23.4953C9.97647 23.6708 9.69897 23.7885 9.53847 23.8388C9.21822 23.9325 8.88596 23.991 8.54996 24.0105C8.03022 24.0105 7.54572 23.862 7.06572 23.5613L7.07847 23.5508ZM13.9335 5.08952C13.254 5.42927 12.6052 5.57402 11.961 5.52677C11.8597 4.87802 11.961 4.21427 12.2302 3.48752C12.4687 2.86652 12.789 2.30777 13.23 1.80752C13.6867 1.28777 14.238 0.858018 14.859 0.549768C15.519 0.210018 16.1482 0.0262676 16.7497 -0.000732422C16.8277 0.678768 16.7497 1.34702 16.5 2.06927C16.2697 2.70977 15.93 3.30002 15.5002 3.82727C15.063 4.34702 14.5237 4.77677 13.914 5.08877L13.9335 5.08952Z" fill="black"/>
</g>
<defs>
<clipPath id="clip0_201_57228">
<rect width="24" height="24" fill="white"/>
</clipPath>
</defs>
</svg>
