<svg width="24" height="24" viewBox="0 0 24 24" fill="none" xmlns="http://www.w3.org/2000/svg">
<g clip-path="url(#clip0_201_57976)">
<path d="M2.17573 2.81174C2.40973 3.23399 2.65198 3.59399 2.90548 3.90149H2.90173C2.78473 3.88649 2.66773 3.87449 2.54698 3.87824C2.27698 3.87824 2.01223 3.92549 1.75798 4.00724C2.24998 4.42124 2.66773 4.72199 3.03523 4.95599C3.94123 5.24924 4.94923 5.73674 5.80948 6.28424C6.23473 6.55799 6.61723 6.82724 6.92248 7.06499C7.22323 7.29974 7.48873 7.53374 7.53973 7.64024C7.59448 7.74149 7.53973 7.77599 7.46173 7.69799C7.37998 7.61999 7.15648 7.37774 6.85948 7.14374C6.50473 6.86999 6.13348 6.61199 5.75473 6.36974C4.97773 5.88149 3.77098 5.40899 3.03598 4.95599C2.46973 4.77224 1.85623 4.74899 1.13773 5.09324C1.66048 5.42099 2.10298 5.65949 2.48848 5.83949C3.59473 5.99174 4.74673 6.53024 5.71573 7.14449C6.19573 7.45274 6.61798 7.76174 6.93448 8.01524C7.09048 8.14049 7.22323 8.24924 7.32448 8.34299C7.42273 8.43299 7.50073 8.49524 7.52023 8.54999C7.55098 8.62424 7.49998 8.65499 7.43848 8.60774C7.40248 8.58449 7.35223 8.50649 7.25473 8.41649C7.12948 8.30324 7.00048 8.19374 6.86773 8.09249C6.55948 7.84274 6.14173 7.53749 5.66098 7.23224C4.76698 6.67049 3.42673 6.22124 2.48473 5.83799C1.88398 5.72474 1.26298 5.77499 0.578982 6.22499C1.02823 6.42374 1.41898 6.57599 1.76323 6.68924C1.19623 6.70949 0.634482 6.88499 0.0869824 7.40399C0.563232 7.52474 0.974232 7.60274 1.32898 7.65374C0.891732 7.74374 0.461982 7.95449 0.0397324 8.37674C0.363732 8.44649 0.656982 8.49749 0.926982 8.53649C0.594732 8.69624 0.285732 8.94225 0.000732422 9.32174C0.371982 9.35249 0.703482 9.36449 1.00048 9.36449C0.641232 9.52874 0.305232 9.79424 0.00448242 10.2165C0.535482 10.2397 0.984732 10.2397 1.36723 10.2165C0.944982 10.3882 0.554982 10.6815 0.223482 11.1855C0.766482 11.1967 1.31248 11.1735 1.85248 11.1067L1.84423 11.1105C2.83648 11.0362 4.14523 11.2357 4.80898 11.9587C4.85923 12.018 4.78498 12.0757 4.73398 12.033C4.08973 11.451 3.24223 11.205 1.84423 11.1112C1.30123 11.2605 0.797232 11.5575 0.383232 12.186C0.917982 12.1927 1.36348 12.174 1.74598 12.1387C1.27723 12.393 0.878982 12.783 0.608982 13.443C1.09423 13.353 1.49998 13.2517 1.84798 13.1497C1.48423 13.416 1.17973 13.7865 0.977232 14.346C1.30123 14.271 1.58623 14.1967 1.84423 14.1232C1.58623 14.439 1.40998 14.8185 1.33198 15.2212C1.68373 15.0885 1.98823 14.9632 2.25823 14.838H2.26198C2.54323 14.607 2.96923 14.3812 3.55123 14.217C4.05523 14.0722 4.63348 13.932 5.19898 13.9162C5.28073 13.9125 5.36323 13.9125 5.44498 13.9162C5.54698 13.92 5.50798 14.0212 5.44873 14.0182C4.72273 14.01 4.14748 14.1502 3.57748 14.3145C3.12448 14.4592 2.68723 14.6355 2.26123 14.8425C1.97248 15.1822 1.78423 15.5925 1.70998 16.0297C2.20198 15.8347 2.60773 15.6435 2.94373 15.4635C2.63548 15.7957 2.40073 16.2255 2.31073 16.8187C2.80798 16.6035 3.28798 16.3575 3.75298 16.077C3.31873 16.44 2.98723 16.9207 2.87398 17.6632C3.49123 17.4015 4.08073 17.0812 4.64023 16.71C4.45648 17.0812 4.35823 17.5147 4.40548 18.0577C5.16748 17.472 5.65123 17.0025 6.01123 16.5847C5.98348 16.8817 6.01123 17.1825 6.08548 17.472C6.53473 16.698 6.98323 16.3777 7.43773 16.1122C6.87448 16.4835 6.97648 16.7842 6.97648 17.1285C7.65523 16.4055 8.60848 15.6442 8.90173 15.1635C8.51173 15.7492 8.35498 16.3042 8.25373 16.7962C6.25798 17.8515 5.04298 18.1245 3.68398 18.546C4.21123 18.741 4.77673 18.9292 4.54273 19.1977L3.91798 19.8187C4.31623 19.698 4.72273 19.5217 5.07373 19.7647C5.04298 20.0887 4.62898 20.2567 4.27648 20.4435C4.89448 20.2215 5.03023 20.2717 5.19448 20.3265C5.27623 20.7172 4.99123 20.9287 4.80823 21.1867C6.37423 19.995 8.41348 19.0575 9.85423 18.663C11.874 17.9827 14.4832 17.2762 15.1942 15.5497C15.429 14.601 15.6712 13.644 15.9015 12.7057C15.7882 12.6705 15.6555 12.6435 15.5505 12.573C15.4447 12.4987 15.3622 12.3937 15.3157 12.2722C15.066 12.339 14.8785 12.3045 14.7577 12.1875C14.6407 12.0697 14.5897 11.8942 14.5545 11.6947C14.3512 11.7375 14.1907 11.715 14.0857 11.6205C13.9725 11.5192 13.914 11.3587 13.887 11.1795L13.8832 11.1367L13.9185 11.121C14.0317 11.082 14.1337 11.016 14.2192 10.9297C14.277 10.8667 14.3055 10.785 14.289 10.7025L14.2807 10.6635L14.3115 10.6477C14.4765 10.5585 14.6595 10.4797 14.7412 10.371C14.7885 10.3117 14.8042 10.2337 14.7922 10.1602C14.769 10.0312 14.7142 9.90599 14.64 9.80099L14.6077 9.76199L14.6505 9.73424C14.7682 9.64499 14.8965 9.55949 14.9595 9.47699C14.9902 9.43799 15.0067 9.39824 15.0067 9.36674C15.0067 9.33524 14.991 9.297 14.94 9.246L14.8432 9.15225L14.979 9.16049C15.1897 9.16875 15.3742 9.15225 15.519 9.10574C15.6397 9.075 15.7447 8.9925 15.8107 8.88375C15.8077 8.85975 15.8077 8.83275 15.8077 8.80949C15.8077 8.55974 16.011 8.35574 16.2645 8.35574C16.5142 8.35574 16.7175 8.55974 16.7175 8.80949C16.7175 8.85524 16.7092 8.89875 16.6935 8.94149C16.8817 8.95724 17.0535 8.94974 17.2215 8.87924L17.2567 8.86349C17.4907 8.78174 17.589 8.91074 17.976 8.40674C16.2877 6.21599 13.8187 7.77375 12.999 10.032C12.7882 10.6102 11.5927 10.6102 11.2447 10.0282C9.87748 7.07924 5.71798 3.96224 2.17498 2.81324L2.17573 2.81174ZM2.90623 3.90224C3.16048 3.89549 4.03948 4.35524 4.21948 4.42649C4.75423 4.72724 5.27773 5.04749 5.78548 5.39174C6.28948 5.72774 6.74623 6.05549 7.05973 6.29399C7.21573 6.41474 7.33648 6.51299 7.41073 6.57899C7.44598 6.61424 7.47373 6.63824 7.48873 6.66074C7.49698 6.66899 7.49698 6.67649 7.50073 6.68474C7.50448 6.69599 7.50448 6.71549 7.49698 6.72749C7.48498 6.74624 7.46623 6.75824 7.45423 6.75824C7.44598 6.75824 7.43548 6.75824 7.42723 6.75824C7.36798 6.75824 7.22398 6.59399 6.93148 6.34424C6.05623 5.66849 5.13448 5.05949 4.17373 4.51649C3.66973 4.23449 3.21673 3.97724 2.90773 3.90224H2.90623ZM1.76623 6.69074C2.57848 6.69074 3.65623 7.05449 4.69498 7.60875C5.73823 8.16749 6.73798 8.82749 7.22323 9.39074C7.28923 9.46499 7.20298 9.5115 7.14523 9.45675C6.62548 8.961 5.68423 8.25375 4.64848 7.69874C4.01248 7.36274 2.50048 6.69449 1.76623 6.69074ZM1.34023 7.65599C2.45323 7.67174 3.68848 8.10524 4.76998 8.65199C5.31223 8.93024 5.79298 9.22274 6.16423 9.48374C6.53923 9.74999 6.83998 10.008 6.89848 10.1445C6.96148 10.2765 6.88348 10.2727 6.81223 10.1947C6.60223 9.96449 6.36748 9.75374 6.10948 9.56999C5.66848 9.26174 5.20348 8.98799 4.72723 8.74574C3.76198 8.26574 2.44123 7.81949 1.34023 7.65599ZM1.49998 8.47274C1.56598 8.46899 1.63273 8.47274 1.69873 8.47949C2.52298 8.55074 3.42148 8.84324 4.23373 9.22649C5.31973 9.73349 6.26998 10.3822 6.66748 10.8945C6.70273 10.9372 6.65548 11.0265 6.58948 10.9567C6.15973 10.5157 5.26948 9.82349 4.19023 9.31949C3.28048 8.89724 1.90948 8.44874 0.929232 8.53874C1.11598 8.51549 1.30423 8.47949 1.49923 8.47274H1.49998ZM18.039 8.48399C17.676 8.96099 17.5117 8.91 17.34 8.949C17.4337 9.38324 17.691 9.53924 17.9257 9.72299C19.9447 9.35174 22.215 9.44924 24.0075 9.49575L18.0427 8.48774L18.039 8.48399ZM17.238 8.97974C17.0467 9.05849 16.8517 9.05849 16.6522 9.03899C16.5742 9.17999 16.4265 9.26174 16.266 9.26624C16.086 9.26624 15.9217 9.16049 15.852 8.99624C15.7732 9.09449 15.6682 9.16799 15.5512 9.207C15.3915 9.24974 15.2235 9.27 15.0592 9.26174C15.078 9.297 15.1095 9.32774 15.1095 9.363C15.1095 9.426 15.0862 9.48825 15.0397 9.53475C14.97 9.6285 14.853 9.71099 14.7465 9.78449C14.8207 9.89474 14.8717 10.0192 14.8957 10.1475C14.9107 10.2495 14.8837 10.3515 14.8245 10.4332C14.7195 10.569 14.5395 10.644 14.3872 10.7265C14.391 10.8232 14.3595 10.9215 14.2972 10.9912C14.211 11.0775 14.109 11.1442 13.9965 11.19C14.0235 11.3467 14.0707 11.472 14.1525 11.5462C14.2387 11.6205 14.3632 11.6475 14.5785 11.5935L14.6332 11.5777L14.6452 11.6325C14.676 11.8395 14.73 12.0195 14.8282 12.1162C14.9302 12.2145 15.0742 12.2535 15.3322 12.171L15.3832 12.1552L15.3952 12.2062C15.4342 12.3195 15.5085 12.4215 15.6052 12.4875C15.6915 12.5467 15.855 12.6015 15.9652 12.6367C16.7662 11.766 17.4922 10.863 17.8522 9.77249C17.625 9.59774 17.3445 9.44024 17.238 8.97974ZM1.44073 9.34799C2.39773 9.35924 3.34348 9.57825 4.21048 9.98775C5.12848 10.4175 5.86648 10.926 6.18373 11.2965C6.25798 11.3827 6.16348 11.4172 6.11248 11.3662C5.52673 10.8472 4.87048 10.413 4.16323 10.077C3.26098 9.66299 1.96798 9.43274 1.00348 9.35775C1.14748 9.351 1.29673 9.34649 1.44073 9.34649V9.34799ZM1.87123 10.164C2.48023 10.1842 3.11323 10.32 3.68023 10.5157C4.43398 10.7767 5.09848 11.1285 5.42623 11.496C5.46898 11.547 5.42248 11.625 5.35198 11.5657C5.00398 11.262 4.39123 10.8705 3.64498 10.6125C3.06973 10.4175 2.03098 10.2457 1.37473 10.2187C1.56973 10.1947 1.66798 10.1557 1.87048 10.164H1.87123ZM2.76598 11.9452C2.81623 11.9452 2.86723 11.949 2.92198 11.9535C3.34423 11.9887 3.80923 12.0862 4.26223 12.3592C4.30498 12.387 4.31248 12.4965 4.21498 12.4492C3.35473 12.0472 2.88673 11.961 1.75423 12.141C2.09398 12.027 2.40598 11.9407 2.76598 11.9452ZM3.17998 12.7297C3.47998 12.7335 3.79273 12.789 4.17973 12.945C4.22248 12.9652 4.25773 13.0702 4.14448 13.0387C3.28873 12.7965 2.97973 12.711 1.85848 13.1445C2.14048 12.9135 2.47648 12.7762 2.87848 12.7372C2.97973 12.729 3.07723 12.726 3.17923 12.729L3.17998 12.7297ZM4.64098 13.41C4.79698 13.41 4.94923 13.4182 5.10223 13.4377C5.15248 13.4407 5.15623 13.539 5.09398 13.5345C4.47673 13.5037 3.85873 13.5382 3.25423 13.6477C3.01198 13.695 2.83198 13.695 1.85248 14.109C2.13748 13.875 2.64523 13.6597 3.23848 13.551C3.68023 13.4692 4.17223 13.4062 4.64173 13.41H4.64098ZM5.97673 14.316C6.01198 14.3122 6.08173 14.3977 5.99173 14.4142C5.26198 14.5515 4.74973 14.6842 4.19848 14.871C3.97948 14.9452 3.61648 15.078 2.95648 15.4612C3.21448 15.1912 3.60823 14.9655 4.16773 14.7735C4.75798 14.5702 5.36248 14.4142 5.97673 14.3167V14.316ZM6.28498 14.8237C6.35923 14.8117 6.38698 14.91 6.30898 14.9257C5.09023 15.1635 4.54723 15.48 3.76573 16.0695C4.26973 15.5467 5.06173 15.0195 6.28498 14.8237ZM6.88273 15.27C6.89098 15.27 6.90148 15.27 6.90973 15.27C6.97273 15.2812 6.97948 15.3592 6.90148 15.3712C6.03073 15.5002 5.42548 15.9262 4.64473 16.7032C4.94098 16.2112 5.65198 15.4612 6.88273 15.27ZM7.25398 15.66C7.30123 15.6562 7.36723 15.7342 7.27723 15.762C7.08598 15.816 6.84448 15.9097 6.60898 16.062C6.42598 16.1797 6.30523 16.266 6.00823 16.5697C6.12148 16.3237 6.30898 16.137 6.55498 15.9795C6.80098 15.8197 7.06198 15.6877 7.25398 15.6592V15.66Z" fill="black"/>
</g>
<defs>
<clipPath id="clip0_201_57976">
<rect width="24" height="24" fill="white"/>
</clipPath>
</defs>
</svg>
