<svg width="24" height="24" viewBox="0 0 24 24" fill="none" xmlns="http://www.w3.org/2000/svg">
<g clip-path="url(#clip0_201_58176)">
<path d="M14.5043 17.4412C15.7815 17.148 16.9965 16.6455 18.105 15.9495C18.9383 15.3915 19.164 14.2665 18.6053 13.4303C18.0705 12.6292 17.0003 12.387 16.1723 12.879C13.6215 14.4728 10.3793 14.4728 7.82851 12.879C6.98476 12.3443 5.86351 12.5977 5.32876 13.4408C5.32876 13.4445 5.32876 13.4445 5.32876 13.4445C4.79401 14.2928 5.04751 15.4133 5.89576 15.9443L5.89876 15.948C7.00501 16.644 8.22001 17.1473 9.49276 17.4368L6.02776 20.901C5.32051 21.597 5.31001 22.7288 6.00076 23.4368L6.03151 23.4675C6.37576 23.8223 6.84076 23.9985 7.30576 23.9985C7.77076 23.9985 8.23501 23.8223 8.57851 23.4675L12.0008 20.0648L15.4028 23.472C16.1258 24.1628 17.274 24.147 17.97 23.4247C18.6488 22.722 18.6488 21.6075 17.97 20.9047L14.5043 17.4412ZM12 12.387C15.4223 12.3833 18.1913 9.61275 18.195 6.195C18.195 2.781 15.414 0 12 0C8.58601 0 5.80501 2.781 5.80501 6.195C5.80876 9.61725 8.58226 12.387 12 12.3907V12.387ZM12 3.633C13.4138 3.633 14.562 4.78125 14.562 6.195C14.562 7.61325 13.4138 8.75775 12 8.76225C10.5863 8.7585 9.43801 7.61325 9.43426 6.195C9.43801 4.78125 10.5863 3.633 12 3.62925V3.633Z" fill="black"/>
</g>
<defs>
<clipPath id="clip0_201_58176">
<rect width="24" height="24" fill="white"/>
</clipPath>
</defs>
</svg>
