<svg width="24" height="24" viewBox="0 0 24 24" fill="none" xmlns="http://www.w3.org/2000/svg">
<path d="M19.9957 7.99575C19.9957 3.6015 16.395 0 12 0C7.60498 0 4.00423 3.60225 4.00423 7.99575C4.00423 10.5465 5.20348 12.8865 7.19923 14.3978V22.3785H8.81998V23.9993H15.18V22.3785H16.8007V14.3978C18.8115 12.8978 19.9957 10.5308 19.9957 7.99575ZM8.80498 20.7728V19.1985H15.195V20.7728H8.80498ZM8.80498 17.5778V16.0035H15.195V17.5778H8.80498ZM15.555 13.32L15.195 13.5592V14.3985H8.80498V13.5592L8.46073 13.32C6.65998 12.1208 5.60848 10.1407 5.60848 7.99575C5.60848 4.473 8.46073 1.605 11.9992 1.605C15.5377 1.605 18.39 4.45725 18.39 7.99575C18.39 10.1407 17.3392 12.1365 15.5377 13.32H15.555Z" fill="black"/>
</svg>
