<svg width="24" height="24" viewBox="0 0 24 24" fill="none" xmlns="http://www.w3.org/2000/svg">
<path d="M0 6.06226V17.9385H12.129L24 6.06226H0ZM3.26625 8.27326H3.27C4.13325 8.27326 5.184 8.51626 5.94525 8.90626L5.1255 10.3365C4.28925 9.93076 3.8715 9.89551 3.39525 9.86776C2.688 9.82876 2.3325 10.083 2.32425 10.356C2.3205 10.689 2.99625 10.989 3.633 11.196C4.59375 11.5013 5.82 11.9108 6.00825 13.095L7.77 8.43901H9.816L11.8792 14.013L11.871 8.43901H14.2418C16.5 8.43901 17.562 9.20401 17.562 10.9583C17.562 12.5325 16.473 13.4745 14.625 13.4745H13.863L13.8517 15.5678L10.266 15.564L10.0162 14.6543C9.645 14.7795 9.22725 14.8463 8.7855 14.8463C8.32875 14.8463 7.89825 14.775 7.52025 14.6475L7.164 15.5648L5.16375 15.5685L5.25375 15.1073C5.223 15.135 5.1945 15.1583 5.16375 15.1823C4.63275 15.6113 3.957 15.8115 3.129 15.8265H2.91375C2.0115 15.8385 1.1205 15.6045 0.336 15.1545L1.06575 13.7055C1.85475 14.1743 2.352 14.2755 3.0195 14.2643C3.36675 14.256 3.6165 14.193 3.78075 14.025C3.879 13.9238 3.93375 13.7948 3.9375 13.6538C3.94425 13.2788 3.40575 13.104 2.75325 12.9C2.22225 12.7358 1.61625 12.51 1.1475 12.162C0.5895 11.7563 0.3195 11.2403 0.33525 10.5143C0.339 9.99826 0.54225 9.50626 0.9015 9.13951C1.42125 8.60026 2.2575 8.27551 3.2655 8.27551L3.26625 8.27326ZM13.8593 9.94126V11.8485H14.3835C15.0742 11.8485 15.6293 11.6175 15.6293 10.8833C15.6293 10.1723 15.0742 9.94126 14.3835 9.94126H13.8593ZM8.77275 10.7108L8.0265 13.0695C8.24925 13.1558 8.50725 13.2023 8.78025 13.2023C9.05025 13.2023 9.3045 13.155 9.522 13.077L8.78775 10.7063L8.77275 10.7108Z" fill="black"/>
</svg>
