<svg width="24" height="24" viewBox="0 0 24 24" fill="none" xmlns="http://www.w3.org/2000/svg">
<g clip-path="url(#clip0_201_58574)">
<path d="M24 12C24 18.6292 18.6292 24 12 24C5.37075 24 0 18.6292 0 12C0 5.37075 5.37075 0 12 0C18.6292 0 24 5.37075 24 12ZM17.2463 4.43775C16.0275 4.47975 14.9655 5.15175 14.172 6.08175C13.293 7.10175 12.711 8.3115 12.2887 9.543C11.5387 8.93025 10.9605 8.12925 9.75375 7.78125C8.78475 7.48425 7.73775 7.68 6.9375 8.29725C6.5265 8.6175 6.2295 9.0555 6.07725 9.55125C5.718 10.7273 6.4605 11.7772 6.7965 12.1522L7.5345 12.9412C7.68375 13.0942 8.05425 13.5 7.8705 14.0782C7.67925 14.7113 6.92175 15.117 6.14025 14.8793C5.79225 14.7735 5.292 14.5125 5.40525 14.148C5.4525 13.9958 5.55825 13.887 5.616 13.758C5.667 13.6477 5.694 13.5623 5.70975 13.5157C5.85075 13.0507 5.65875 12.4447 5.1585 12.2925C4.6935 12.1477 4.22175 12.2618 4.0335 12.8588C3.8265 13.539 4.1505 14.7698 5.8935 15.309C7.9365 15.9338 9.6585 14.8238 9.9045 13.3748C10.0575 12.4688 9.6465 11.793 8.8965 10.9298L8.28375 10.2495C7.9125 9.88275 7.788 9.24975 8.1705 8.76525C8.4945 8.35425 8.95575 8.18325 9.7095 8.3865C10.8142 8.68725 11.3033 9.4485 12.1238 10.0658C11.784 11.1757 11.5605 12.2888 11.3617 13.2885L11.241 14.0347C10.6552 17.1045 10.2098 18.7928 9.04575 19.7618C8.811 19.926 8.47575 20.1758 7.9755 20.1945C7.70925 20.1982 7.61925 20.0198 7.61925 19.9373C7.611 19.7535 7.7685 19.6672 7.8735 19.5855C8.02575 19.5037 8.26425 19.3582 8.24475 18.9097C8.229 18.3787 7.788 17.9175 7.1505 17.9377C6.67425 17.9527 5.9475 18.402 5.97525 19.2225C6.00225 20.0737 6.795 20.7105 7.986 20.6677C8.62725 20.6475 10.0492 20.3865 11.451 18.7185C13.0837 16.8083 13.5413 14.6168 13.8848 13.0118L14.268 10.8975C14.4818 10.9215 14.709 10.9373 14.9587 10.9447C16.9897 10.9875 18.006 9.93375 18.021 9.168C18.033 8.703 17.7172 8.24625 17.2792 8.25825C16.893 8.27025 16.56 8.535 16.4715 8.9145C16.3778 9.3405 17.1195 9.7275 16.5413 10.1025C16.131 10.3673 15.393 10.5555 14.3573 10.4025L14.5455 9.35925C14.9325 7.383 15.4043 4.953 17.2057 4.89525C17.3385 4.887 17.8185 4.89825 17.8267 5.2155C17.8305 5.3205 17.808 5.35275 17.6828 5.5905C17.565 5.7465 17.5065 5.9385 17.5148 6.12975C17.5298 6.63375 17.913 6.966 18.4718 6.94575C19.2135 6.9225 19.425 6.19575 19.4167 5.8245C19.386 4.94925 18.4635 4.4025 17.2448 4.4385L17.2463 4.43775Z" fill="black"/>
</g>
<defs>
<clipPath id="clip0_201_58574">
<rect width="24" height="24" fill="white"/>
</clipPath>
</defs>
</svg>
