<svg width="24" height="24" viewBox="0 0 24 24" fill="none" xmlns="http://www.w3.org/2000/svg">
<path d="M13.473 23.949C13.1603 23.8943 12.8363 23.7458 12.6525 23.5815C12.5273 23.4525 12.4575 23.277 12.453 23.097C12.453 22.9133 12.5468 22.6553 12.6953 22.398C12.7853 22.2533 12.8558 22.0973 12.906 21.933C12.9375 21.8198 13.0035 21.636 13.0545 21.519L13.1445 21.3045L13.1678 19.8713C13.1798 19.0785 13.203 18.3443 13.2225 18.2303C13.2735 17.9018 13.359 17.5815 13.4723 17.2695L13.5585 17.0625L13.4333 16.9883C13.32 16.9178 13.2263 16.8203 12.855 16.3785C12.3983 15.8393 11.7968 15.5423 10.9448 15.441C10.6673 15.414 10.386 15.3938 10.1048 15.3825C8.85451 15.324 8.13976 15.0623 7.49551 14.4293C7.01476 13.9568 6.76501 13.4055 6.66376 12.5933C6.52726 11.4953 6.37501 10.9328 6.09376 10.476C6.02326 10.3628 5.94526 10.257 5.85526 10.1595L5.74201 10.0463L5.49226 10.2068C5.35576 10.2968 5.16376 10.41 5.07001 10.461C4.75726 10.6328 4.46026 10.824 4.17526 11.031C3.47626 11.5388 2.71426 12.1755 2.29651 12.5933C2.10901 12.7808 2.01151 12.8625 1.96801 12.855C1.68301 12.8123 1.90126 11.5778 2.36626 10.6478C2.96026 9.44851 3.96001 8.34301 5.11651 7.59676C6.06601 6.98326 7.60126 6.13951 8.31151 5.84251C9.57301 5.31526 11.2058 4.74451 12.3233 4.44001C12.558 4.37326 12.702 4.31476 12.7995 4.24876C13.0185 4.09651 13.233 4.02226 13.479 4.01851C13.686 4.01476 13.7055 4.01101 13.905 3.87751C14.1398 3.72526 14.2095 3.71701 14.4443 3.79951L14.5965 3.85426L14.784 3.72526L14.9715 3.60001L15.2408 3.60376C15.4478 3.60751 15.5415 3.60001 15.6315 3.56101C15.7448 3.51001 15.7485 3.50251 15.78 3.31501C15.8505 2.90851 15.858 2.70526 15.8153 2.45926C15.7605 2.13526 15.753 0.877513 15.8078 0.630763C15.8663 0.365263 15.9053 0.310513 16.1048 0.213013C16.4018 0.0682627 16.6245 0.0255127 17.136 0.0255127C17.7608 0.0255127 18.0773 0.111763 18.312 0.338263C18.5228 0.541513 18.558 1.01776 18.4485 2.13526C18.3818 2.77951 18.3743 2.95951 18.3938 3.38101C18.4013 3.65026 18.4208 3.90451 18.429 3.93976C18.4448 4.00651 18.4605 4.01026 18.687 4.01401C18.9098 4.01776 18.9488 4.02976 19.1595 4.13926C19.3628 4.24501 19.515 4.37401 19.5465 4.46776C19.5503 4.48726 19.5855 4.48726 19.6478 4.46776C19.7685 4.43251 19.8743 4.47151 19.9605 4.57726C20.0115 4.64401 20.0423 4.65526 20.16 4.65526C20.3205 4.65526 20.379 4.69426 20.5118 4.89001C20.574 4.98001 20.6603 5.04601 20.7578 5.08951C20.9768 5.19901 21.2738 5.50351 21.387 5.74576C21.5625 6.10501 21.5978 6.52276 21.4883 6.89776C21.4493 7.03876 21.4493 7.04251 21.531 7.17901C21.7028 7.47226 21.7658 7.83151 21.6953 8.13601L21.6563 8.31601L21.7733 8.43301C22.3553 9.01501 22.269 9.96451 21.5588 10.812C21.4845 10.902 21.3945 11.0423 21.3593 11.1285C21.2228 11.4915 21.066 11.7458 20.8635 11.9565L20.6565 12.1673H20.4458C20.235 12.1673 19.938 12.0968 19.758 12.003C19.6838 11.964 19.68 11.964 19.6958 12.0105C19.743 12.1823 19.86 12.8813 19.899 13.2683C19.9613 13.8623 19.9418 14.7255 19.86 15.0968C19.8015 15.3705 19.6995 15.636 19.563 15.882C19.485 16.0073 19.4813 16.0343 19.4963 16.1865C19.5195 16.401 19.4693 16.761 19.383 16.9988C19.2773 17.2763 19.2383 17.4053 19.215 17.5455C19.1955 17.6663 19.1955 17.6663 19.2818 17.6663C19.395 17.6663 19.4573 17.733 19.4573 17.8658C19.4573 17.9243 19.4063 18.2408 19.344 18.5648C19.1723 19.4753 19.1603 19.5765 19.1603 20.4593C19.1565 21.3698 19.1565 21.3615 19.3635 21.498L19.8285 21.7988C20.2268 22.0643 20.6565 22.2833 21.1058 22.455C21.7583 22.713 21.8483 22.779 21.8483 22.998C21.8483 23.0955 21.8288 23.1308 21.747 23.2088C21.4973 23.451 21.0045 23.5058 20.0123 23.4C19.4963 23.3528 18.9773 23.3258 18.4613 23.3258C17.094 23.3063 16.8945 23.259 16.7153 22.9193C16.614 22.7243 16.6335 22.47 16.7738 22.0523C16.836 21.8685 16.8908 21.681 16.938 21.4898C17.0318 21.0368 16.9695 20.4975 16.7505 19.8885L16.563 19.3688C16.3793 18.8415 16.278 17.8763 16.3875 17.658C16.407 17.6153 16.4423 17.607 16.536 17.6108L16.653 17.6228L16.7505 17.4195C16.8248 17.259 16.9065 17.154 17.1293 16.9313L17.4143 16.6463L17.3985 16.4625C17.3865 16.287 17.1563 15.435 17.1248 15.4388C17.1128 15.4388 17.0505 15.525 16.98 15.6338C16.8083 15.8918 16.4295 16.29 16.2143 16.4348C16.1205 16.497 16.0425 16.5713 16.0425 16.5953C16.0388 16.701 15.9488 16.908 15.8393 17.052C15.7335 17.193 15.726 17.2163 15.7418 17.3408C15.7688 17.5245 15.7103 18.114 15.6405 18.423C15.5783 18.6495 15.492 18.8723 15.3825 19.0868C15.1133 19.6455 14.91 20.145 14.859 20.376C14.82 20.5988 14.8005 20.8253 14.7885 21.048C14.7765 21.3135 14.7495 21.5715 14.73 21.6263C14.703 21.7005 14.703 21.759 14.7263 21.8723C14.7458 21.954 14.7578 22.1378 14.7533 22.2825C14.7495 22.482 14.7653 22.611 14.8238 22.845C14.925 23.2433 14.9445 23.4938 14.898 23.6423C14.8665 23.736 14.8358 23.7713 14.73 23.8223C14.4953 23.943 13.8315 24.0098 13.4723 23.9475L13.473 23.949ZM14.4218 23.6288C14.5583 23.5898 14.676 23.4728 14.676 23.367C14.676 23.3198 14.637 23.1833 14.5898 23.0625C14.496 22.8323 14.3355 22.2225 14.3355 22.1213C14.3355 22.0703 14.3393 22.0665 14.4173 22.1093L14.5035 22.1565V22.047C14.4915 21.9458 14.4683 21.8475 14.4368 21.75C14.3625 21.5273 14.355 21.5235 13.8818 21.4958L13.5615 21.48L13.4445 21.5933C13.3823 21.66 13.3238 21.7298 13.2765 21.8123C13.2255 21.9135 13.206 22.0665 13.2375 22.101C13.245 22.113 13.3238 22.101 13.4093 22.0815C13.4603 22.0658 13.5105 22.0583 13.5653 22.0545C13.5653 22.0583 13.479 22.1288 13.3703 22.203C12.9015 22.5548 12.7373 22.7693 12.7373 23.043C12.7373 23.328 13.0065 23.5508 13.4288 23.6175C13.7175 23.6603 14.28 23.6723 14.421 23.6295L14.4218 23.6288ZM20.7773 23.1638C20.8943 23.0228 20.8785 22.8788 20.73 22.7145C20.6438 22.6283 20.5463 22.554 20.4368 22.4955C20.3273 22.437 20.2178 22.3703 20.1083 22.3005C20.022 22.2383 19.749 22.0778 19.4985 21.9413C19.3185 21.8438 19.143 21.7418 18.9713 21.633L18.9008 21.5783V20.5043C18.9008 19.446 18.897 19.4303 18.8423 19.446C18.5685 19.5203 18.1155 19.5555 17.5418 19.5435L16.9208 19.536L17.0108 19.755C17.1788 20.169 17.265 20.724 17.265 21.3608C17.265 21.5993 17.2493 21.6848 17.1908 21.8528C17.1593 21.9345 17.1323 22.017 17.1045 22.0988C17.0925 22.134 17.136 22.161 17.2958 22.2083C17.4128 22.2435 17.5845 22.2788 17.6828 22.29L17.8628 22.3095L17.8433 22.4895C17.8238 22.6928 17.847 22.9073 17.898 22.974C17.9295 23.013 18.0465 23.0288 18.5895 23.052C18.9998 23.0715 19.4453 23.1143 19.7963 23.1653C20.1008 23.2125 20.4293 23.2515 20.5268 23.2515C20.691 23.2553 20.7068 23.2478 20.7765 23.1653L20.7773 23.1638ZM14.5238 21.336C14.5395 21.324 14.5628 21.1133 14.571 20.8635C14.6025 20.1645 14.6295 20.0625 14.9813 19.2735C15.27 18.6293 15.423 18.0278 15.411 17.6018L15.4035 17.3475L15.294 17.4533C15.0675 17.6798 15.2235 17.3243 15.4935 17.0078C15.6968 16.7655 15.7673 16.6328 15.798 16.4183C15.8138 16.332 15.8453 16.2893 15.978 16.188C16.482 15.8055 16.845 15.321 17.0835 14.727C17.1383 14.586 17.2785 14.106 17.3963 13.6605C17.6153 12.8363 17.7323 12.4808 17.838 12.3285C17.877 12.27 17.8928 12.258 17.8853 12.297C17.823 12.5318 17.8035 12.6293 17.7525 12.9338C17.721 13.125 17.6625 13.5 17.6235 13.7618C17.5493 14.2973 17.4713 14.6408 17.3655 14.9063L17.295 15.0863L17.4825 15.5708C17.6775 16.0665 17.7675 16.4265 17.7833 16.7738L17.7953 16.9688L17.643 17.0003C17.4398 17.0355 17.2643 17.1488 17.1428 17.313C17.01 17.5043 16.9358 17.661 16.971 17.6955C16.9868 17.7113 17.178 17.7465 17.397 17.7735C17.7368 17.8125 17.8658 17.8125 18.315 17.7855C18.51 17.778 18.702 17.7585 18.8933 17.7308C18.936 17.715 18.9795 17.6295 19.0493 17.4068C19.2098 16.8953 19.2405 16.7153 19.221 16.356L19.2053 16.0395L19.287 15.9338C19.4783 15.6915 19.6268 15.2543 19.689 14.742C19.7633 14.1173 19.6268 12.8085 19.3725 11.6835C19.2518 11.148 19.2008 10.8278 19.2008 10.5938V10.3868L19.0095 10.4063C18.3218 10.4805 17.49 10.461 16.9823 10.3553C16.7048 10.3005 16.0058 10.0935 15.8535 10.0268L15.7328 9.97201L15.717 10.1085C15.705 10.1828 15.6938 10.257 15.678 10.335C15.6548 10.4168 15.6623 10.4363 15.807 10.5773C15.987 10.761 16.0418 10.8548 16.0418 10.9793C16.0418 11.0573 15.999 11.1203 15.78 11.3468C15.6195 11.5148 15.417 11.6948 15.2603 11.796L15.006 11.9678L14.8965 12.3465C14.5058 13.7333 14.4315 14.9948 14.6895 15.897L14.7518 16.1235L14.6265 16.2795C14.1578 16.869 13.8803 17.3183 13.8375 17.5688C13.83 17.6198 13.7903 17.7833 13.7513 17.9363C13.65 18.3233 13.5713 18.8895 13.5368 19.503C13.5135 20.0145 13.4783 20.5305 13.4355 21.042L13.416 21.1943L13.611 21.2528C13.7205 21.288 13.8848 21.327 13.9785 21.3428C14.154 21.3698 14.4788 21.3623 14.529 21.3353L14.5238 21.336ZM18.3165 19.1873C18.621 19.1678 18.8985 19.1205 18.9533 19.074C18.9765 19.0583 19.0043 18.9765 19.0118 18.894L19.0313 18.7455L18.789 18.8003C18.5978 18.8393 18.4065 18.8625 18.2145 18.8783C17.7533 18.8978 17.289 18.8858 16.8315 18.8393C16.6793 18.816 16.6793 18.816 16.7258 19.0148C16.7648 19.1633 16.773 19.1708 17.1713 19.1985C17.4368 19.2218 17.808 19.218 18.3158 19.1865L18.3165 19.1873ZM18.0623 18.5078C18.4605 18.4725 18.957 18.387 19.0545 18.336C19.086 18.3203 19.113 18.2618 19.125 18.195L19.1603 17.988L19.1798 17.8905L19.0823 17.91C18.6488 18 18.3203 18.027 17.664 18.027C17.0235 18.027 16.9493 18.0233 16.7813 17.9648C16.719 17.9378 16.6485 17.922 16.578 17.9175C16.551 17.9333 16.5465 18.156 16.5705 18.312C16.5863 18.4058 16.602 18.4215 16.6958 18.4485C16.9928 18.5303 17.493 18.5498 18.063 18.5033L18.0623 18.5078ZM10.8128 14.9843C11.8125 14.6955 13.1213 13.8473 14.1915 12.7853C14.5395 12.4373 14.5823 12.3908 14.6288 12.2348L14.691 12.0353C14.6985 12.0195 14.6363 11.9925 14.5545 11.973C14.34 11.922 14.1758 11.7975 14.1758 11.6843C14.1758 11.6175 14.1368 11.5515 14.0235 11.43C13.8398 11.223 13.7933 11.133 13.7738 10.9343L13.758 10.7738L13.539 10.6178C13.4138 10.5278 12.9765 10.2855 12.5115 10.0515C12.1598 9.87976 11.8125 9.69226 11.4728 9.48901C11.082 9.22726 10.8203 8.91451 10.6718 8.54401C10.6448 8.46976 10.6095 8.40751 10.5975 8.40751C10.566 8.40751 9.68701 9.25501 9.31201 9.65326C8.38651 10.6298 7.74976 11.4773 7.34701 12.2625C7.24576 12.4575 7.13626 12.6885 7.10476 12.774L7.04626 12.93L7.11676 13.1918C7.15951 13.3328 7.24951 13.563 7.32001 13.6995C7.56601 14.184 7.85926 14.4765 8.34376 14.715C8.86351 14.973 9.32401 15.063 10.0935 15.051C10.5075 15.0473 10.629 15.0353 10.812 14.9805L10.8128 14.9843ZM2.92201 11.5583C3.57826 10.9763 4.48426 10.3395 5.59426 9.67951C6.32101 9.24601 9.12976 7.83976 10.4228 7.26526C10.6575 7.15951 10.8683 7.06201 10.8915 7.05076C10.9148 7.03501 10.9815 6.86701 11.0438 6.67951C11.3175 5.81251 11.454 5.64076 11.9498 5.52751C12.012 5.51176 12.0278 5.49226 12.0278 5.43001C12.0278 5.31676 12.1058 5.05501 12.1725 4.93801C12.2235 4.84801 12.2235 4.84426 12.18 4.85626C12.153 4.86376 11.9888 4.91101 11.817 4.96201C9.43426 5.64976 7.35226 6.56326 5.55526 7.70401C3.63751 8.92276 2.53201 10.3838 2.21176 12.1335L2.18851 12.2625L2.42326 12.0323C2.54851 11.9033 2.77501 11.6925 2.92351 11.5635L2.92201 11.5583ZM20.598 11.8905C20.7893 11.793 21.0863 11.3438 21.1958 10.9883C21.2273 10.863 21.2895 10.746 21.3795 10.6485C21.6683 10.3283 21.9068 9.74626 21.9105 9.34801C21.9105 8.72701 21.5588 8.48851 21.0473 8.75401C20.9805 8.78551 20.9265 8.80876 20.9183 8.80126C20.8913 8.77426 21.0353 8.63326 21.2115 8.52376C21.4418 8.37151 21.4853 8.28151 21.4853 7.95751C21.4853 7.68376 21.4185 7.46551 21.2625 7.22326C21.192 7.11751 21.165 7.04776 21.1763 7.00426L21.2468 6.74251C21.3443 6.39451 21.309 5.99626 21.1568 5.74276C20.9303 5.36026 20.6528 5.17276 20.2658 5.14126L20.0393 5.12551L20.172 5.27401C20.5665 5.70001 20.7578 6.23476 20.6798 6.69226C20.6408 6.92701 20.6055 6.97351 20.379 7.06351L20.2463 7.11826L20.262 7.29826C20.289 7.59151 20.2388 7.80601 20.0513 8.20051C19.9575 8.40001 19.887 8.57926 19.8953 8.59876C19.9185 8.66551 20.1765 8.79001 20.3798 8.84101L20.5793 8.88826L20.454 8.93101C20.2898 8.98201 20.2545 9.05626 20.2545 9.32551C20.2545 9.57151 20.2898 9.67351 20.469 9.94276C20.5508 10.0598 20.6055 10.1813 20.6138 10.251C20.6295 10.3605 20.6258 10.368 20.5358 10.3995C20.4345 10.4265 20.3288 10.4468 20.223 10.4505C19.8555 10.4738 19.8285 10.4858 19.6643 10.6418C19.5158 10.7828 19.512 10.7903 19.512 10.9463C19.512 11.1608 19.5938 11.595 19.6448 11.6535C19.7115 11.724 20.082 11.9078 20.2268 11.9348C20.352 11.9663 20.4848 11.9505 20.598 11.892V11.8905ZM15.1875 11.598C15.426 11.4105 15.6135 11.223 15.7185 11.0625C15.7853 10.965 15.789 10.9455 15.7575 10.863C15.7028 10.7378 15.3435 10.4138 15.144 10.3163C15.0113 10.2578 14.8703 10.215 14.7263 10.1955L14.4803 10.164L14.328 9.97276C14.0115 9.58201 13.836 9.27751 13.5855 8.68726C13.3665 8.18701 13.1753 7.89451 12.8708 7.60501C12.7455 7.48801 12.6563 7.39051 12.6638 7.39051C12.6795 7.39051 12.828 7.46476 12.9998 7.55476C13.2848 7.70701 13.32 7.71901 13.449 7.69951C13.914 7.64476 14.3243 7.11001 14.4728 6.36001C14.5155 6.14926 14.6018 5.93401 14.6918 5.80501C14.6955 5.80126 14.8755 5.91826 15.0863 6.07051C15.6218 6.44926 15.7388 6.50776 16.0433 6.51976C16.2428 6.52726 16.356 6.51226 16.7153 6.42601C17.481 6.23851 18.309 6.16426 18.813 6.23101C19.098 6.27001 19.5083 6.39526 19.8128 6.53926C20.1135 6.68026 20.172 6.68776 20.2695 6.60151C20.3513 6.53101 20.3513 6.51976 20.3513 6.25801C20.3475 5.87101 20.2065 5.45326 19.992 5.20351C19.8825 5.07451 19.5743 4.86376 19.269 4.70326C19.1595 4.64476 19.05 4.58626 18.945 4.52776C18.8003 4.44151 18.6368 4.45351 18.1913 4.57051C17.6753 4.70326 17.5388 4.70326 16.9493 4.55101C16.449 4.42576 16.4183 4.42201 15.9255 4.50001C15.6638 4.53901 15.0075 4.51576 14.7885 4.45726C14.679 4.42576 14.5695 4.39501 14.4645 4.35601C14.2733 4.28176 13.941 4.26976 13.6403 4.32451C13.0425 4.43026 12.5895 4.75426 12.4253 5.19526C12.339 5.41801 12.351 5.52376 12.4643 5.59351C12.6443 5.70676 12.882 6.01576 12.882 6.13651C12.882 6.14401 12.8235 6.09376 12.7568 6.02326C12.5888 5.84776 12.4365 5.76901 12.2565 5.76901C12.018 5.77651 11.8035 5.91751 11.706 6.13201C11.655 6.26851 11.6085 6.40951 11.5733 6.55426C11.4638 6.95251 11.3663 7.16401 11.1593 7.44526C10.9755 7.69951 10.9485 7.81276 11.0145 8.09776C11.1788 8.81626 11.4638 9.10576 12.6548 9.78151C13.2795 10.137 13.5998 10.3365 13.8345 10.512C14.0145 10.6448 14.0183 10.653 14.0025 10.7543C13.9673 10.989 14.1158 11.2425 14.409 11.4495C14.4833 11.5005 14.5298 11.5553 14.5298 11.5943C14.5298 11.6648 14.7293 11.7623 14.8733 11.7623C14.955 11.7623 15.018 11.727 15.186 11.598H15.1875ZM20.004 10.281C20.457 10.2968 20.4803 10.2615 20.2388 9.98026C19.9845 9.68701 19.9148 9.44926 20.0085 9.18751L20.0475 9.08626L19.887 9.00826C19.8323 8.98126 19.7775 8.95351 19.7228 8.93401C19.6958 9.03976 19.668 9.14101 19.6448 9.24676C19.5863 9.48526 19.5158 10.1025 19.512 10.3643C19.512 10.3875 19.551 10.38 19.6178 10.3373C19.7115 10.2825 19.7588 10.275 20.0048 10.2825L20.004 10.281ZM18.4845 10.2578C18.7583 10.242 19.0395 10.2225 19.1138 10.2105L19.2503 10.191L19.266 9.74176C19.2893 9.10126 19.383 8.72251 19.6605 8.11651C19.8555 7.68676 19.9418 7.31176 19.899 7.03051C19.8833 6.90976 19.8758 6.90151 19.7115 6.83101C19.4108 6.71026 19.098 6.62776 18.7778 6.57676C18.4695 6.53401 17.5628 6.55726 17.223 6.62401C17.082 6.64726 16.8248 6.70201 16.653 6.74476C16.227 6.84226 16.0005 6.83101 15.6765 6.69001C15.3563 6.54901 15.153 6.42076 14.9618 6.24076C14.8095 6.09976 14.7938 6.09226 14.7548 6.13951C14.7233 6.17476 14.7075 6.28051 14.6963 6.50701C14.6843 6.85501 14.6295 7.03801 14.4773 7.28401C14.442 7.33501 14.415 7.38976 14.391 7.44451C14.391 7.45651 14.508 7.59301 14.6528 7.74151C15.153 8.26126 15.399 8.39401 15.7935 8.36626C15.9225 8.35426 16.0125 8.35876 16.0125 8.37376C16.0125 8.40526 15.7583 8.60401 15.6533 8.65876C15.6023 8.68576 15.591 8.71351 15.5985 8.77201L15.6608 9.18226C15.696 9.41701 15.723 9.52576 15.7583 9.55726C15.852 9.63526 16.3365 9.88576 16.641 10.0103C17.0393 10.1708 17.2583 10.2293 17.5628 10.2563C17.9378 10.2878 17.9453 10.2878 18.4845 10.2563V10.2578ZM15.2543 9.82801C15.2618 9.81601 15.2348 9.58951 15.1838 9.32776C15.1215 8.97226 15.0863 8.84326 15.0473 8.80801C15.0203 8.78476 14.8755 8.68276 14.7308 8.57776C14.5395 8.44126 14.3595 8.28901 14.1915 8.12851L13.9223 7.86301L13.7775 7.93726L13.6253 8.01901C13.6373 8.08126 13.6605 8.13976 13.6875 8.19451C13.7303 8.28826 13.8165 8.51851 13.8788 8.70601C14.043 9.19426 14.172 9.42901 14.496 9.85426L14.6168 10.0148L14.847 10.05C14.976 10.0695 15.105 10.0973 15.1403 10.1085C15.195 10.1318 15.2025 10.1205 15.2183 9.99526C15.2258 9.94051 15.2378 9.88201 15.2535 9.82726L15.2543 9.82801ZM20.2035 4.96876C20.403 4.94926 20.4383 4.92151 20.352 4.83226C20.2973 4.77751 20.172 4.77376 20.0708 4.82026C20.004 4.85176 19.989 4.84351 19.8833 4.73026C19.7738 4.60951 19.7663 4.60501 19.629 4.62076C19.5038 4.63651 19.4843 4.63276 19.4685 4.58176C19.4175 4.49551 19.359 4.42126 19.2885 4.35526C19.1985 4.25401 19.089 4.17526 18.9645 4.12501C18.7223 4.03126 18.5858 4.04326 18.3548 4.17226C17.6865 4.53526 17.7143 4.53151 17.0693 4.36726C16.4678 4.21501 16.0185 4.05901 15.8738 3.96076C15.753 3.87901 15.495 3.78901 15.2798 3.76126C15.1193 3.73801 15.018 3.77326 14.8658 3.89776L14.784 3.96451L14.8583 4.09351C14.9595 4.27351 14.9483 4.28476 14.796 4.15201C14.6318 4.01551 14.4368 3.92176 14.3115 3.91726C14.2215 3.91726 13.956 4.03426 13.9245 4.08526C13.9125 4.10101 13.995 4.12051 14.1045 4.12801C14.2178 4.14001 14.3738 4.17901 14.4795 4.22176C14.7533 4.33876 14.8935 4.37776 15.1433 4.40176C15.417 4.42876 15.9128 4.39801 15.9713 4.35076C16.0028 4.32376 16.0883 4.31926 16.2683 4.33501C16.5068 4.35076 16.6043 4.37401 17.1705 4.52626C17.499 4.61626 17.7293 4.60801 18.12 4.50301C18.3 4.45201 18.5265 4.40176 18.6203 4.38976C18.7808 4.37401 18.8115 4.38226 19.062 4.49551C19.4603 4.67551 19.6718 4.78876 19.7888 4.89376C19.9058 4.99501 19.9215 4.99501 20.2028 4.97176L20.2035 4.96876ZM17.9768 4.28551L18.2153 4.16026L18.2078 3.91801C18.204 3.75001 18.1958 3.58576 18.1883 3.42226L18.1688 3.17251L17.9303 3.35626C17.7893 3.46576 17.6528 3.54751 17.5943 3.55951C17.4225 3.59101 16.575 3.55951 16.4963 3.51676C16.3905 3.43876 16.293 3.35251 16.203 3.25876L15.984 3.03601L15.9803 3.16876C15.9803 3.23926 15.9728 3.36001 15.957 3.43426C15.9375 3.57526 15.9375 3.57901 16.0898 3.77026C16.1715 3.87601 16.2383 3.96976 16.2383 3.98101C16.2383 4.05526 17.367 4.40701 17.6213 4.41076C17.703 4.41076 17.805 4.37551 17.9768 4.28551ZM17.5238 3.39826C17.805 3.34351 17.9415 3.14026 18.0473 2.62501C18.1568 2.07001 18.2115 1.19926 18.1605 0.828013C18.1133 0.492013 17.7383 0.343513 17.0235 0.366763C16.578 0.382513 16.3943 0.425263 16.242 0.554263C16.1483 0.632263 16.1483 0.640513 16.1055 1.01101C16.0275 1.72201 16.1445 2.73376 16.3478 3.11251C16.4453 3.29626 16.5315 3.36226 16.7108 3.39376C16.914 3.42901 17.3475 3.42901 17.523 3.39751L17.5238 3.39826Z" fill="black"/>
</svg>
