<svg width="24" height="24" viewBox="0 0 24 24" fill="none" xmlns="http://www.w3.org/2000/svg">
<g clip-path="url(#clip0_201_58780)">
<path d="M20.8522 6.48827C21.3405 6.10202 21.465 5.40227 21.1215 4.86752C20.8207 4.39877 20.2545 4.20752 19.7422 4.35227L19.602 4.42652C18.789 4.87577 13.2967 8.71577 13.914 9.14852C14.5312 9.57827 18.2767 7.89152 20.8357 6.48452L20.8522 6.48827ZM20.8357 18.0428C18.2617 16.6365 14.5155 14.949 13.8975 15.3788C13.2802 15.8115 18.7575 19.656 19.5697 20.1015L19.7107 20.1758C20.223 20.328 20.7765 20.133 21.078 19.6598C21.426 19.1288 21.2887 18.4298 20.805 18.0428H20.8357ZM23.0617 11.004C23.004 10.9883 22.9567 10.9883 22.8975 10.9883C21.9645 10.9883 15.3112 11.7113 15.6442 12.387C15.9765 13.0508 20.0655 13.3793 22.9875 13.3793C23.5897 13.2735 24.0382 12.7193 23.9955 12.0863C23.9482 11.5275 23.5582 11.0783 23.0302 10.9733L23.0617 11.004ZM5.42622 16.7663C4.67622 18.918 3.96897 19.926 2.34447 19.926C2.19147 19.926 1.63347 19.8983 1.60572 19.8788C1.07847 19.8518 0.598472 20.1945 0.461972 20.7225C0.297722 21.3113 0.641972 21.9255 1.24272 22.1085C1.66497 22.1835 2.11797 22.1985 2.50872 22.1985C5.48847 22.1985 6.48072 20.4833 7.45797 17.9723L13.329 3.43352C13.5397 2.76977 13.161 2.07752 12.5167 1.86677C11.868 1.65602 11.1915 2.00402 10.95 2.62052L6.85572 13.4528H6.79797L2.49297 2.54702C2.22372 1.94477 1.50072 1.64477 0.852722 1.88327C0.191972 2.12552 -0.155278 2.86352 0.0667216 3.52352L5.49297 16.7708L5.42622 16.7663Z" fill="black"/>
</g>
<defs>
<clipPath id="clip0_201_58780">
<rect width="24" height="24" fill="white"/>
</clipPath>
</defs>
</svg>
