<svg width="24" height="24" viewBox="0 0 24 24" fill="none" xmlns="http://www.w3.org/2000/svg">
<g clip-path="url(#clip0_201_57642)">
<path d="M13.8593 1.98825C12.8363 0.944998 11.1563 0.944998 10.1333 1.98825L0.770254 11.5275C-0.253496 12.5865 -0.253496 14.2665 0.770254 15.3202L7.4535 22.1295C7.9305 22.5592 8.5515 22.7932 9.19125 22.7932H14.805C15.5123 22.7932 16.1843 22.5082 16.6763 22.0042L23.2305 15.3285C24.2588 14.2702 24.2588 12.5902 23.2305 11.5312L13.8593 1.98825ZM13.602 19.41L12.6638 20.3587C12.594 20.4337 12.4995 20.4765 12.3975 20.4765H11.5973C11.5035 20.4727 11.4173 20.4405 11.3513 20.3782L10.3943 19.4092C10.2495 19.257 10.2495 19.0192 10.3943 18.8662L11.733 17.5072C11.8778 17.3542 12.1163 17.3542 12.2648 17.5072L13.6005 18.8662C13.7483 19.0192 13.7483 19.2615 13.6005 19.4092L13.602 19.41ZM13.602 13.6987L9.86325 17.508C9.7935 17.5777 9.69525 17.6212 9.594 17.6167H8.79675C8.703 17.6205 8.613 17.586 8.547 17.5267L7.59375 16.5547C7.449 16.4055 7.449 16.164 7.59375 16.0117L11.7338 11.7967C11.8785 11.6475 12.1208 11.6475 12.2655 11.7967L13.6013 13.1595C13.749 13.3087 13.749 13.5502 13.6013 13.6987H13.602ZM13.602 7.992L7.059 14.652C6.98775 14.727 6.89475 14.766 6.79275 14.766H5.99175C5.898 14.766 5.81175 14.7337 5.742 14.6722L4.78875 13.6995C4.64475 13.5517 4.64475 13.3095 4.78875 13.1602L11.7338 6.09C11.8785 5.94075 12.117 5.94075 12.2655 6.09L13.6013 7.449C13.749 7.602 13.749 7.84425 13.6013 7.992H13.602Z" fill="black"/>
</g>
<defs>
<clipPath id="clip0_201_57642">
<rect width="24" height="24" fill="white"/>
</clipPath>
</defs>
</svg>
