<svg width="24" height="24" viewBox="0 0 24 24" fill="none" xmlns="http://www.w3.org/2000/svg">
<g clip-path="url(#clip0_201_58074)">
<path d="M0 0.233994L21.9097 20.7697C21.9097 20.7697 22.3237 21.348 21.789 21.9217C21.2542 22.4955 20.5507 22.0035 20.5507 22.0035L0 0.233994ZM6.50775 2.29274L23.52 17.9295C23.52 17.9295 23.9303 18.5077 23.3948 19.0815C22.8585 19.6552 22.1595 19.1632 22.1595 19.1632L6.50775 2.29274ZM1.938 6.69524L18.945 22.3365C18.945 22.3365 19.359 22.9102 18.8243 23.4847C18.2895 24.063 17.5905 23.5665 17.5905 23.5665L1.938 6.69524ZM12.0082 4.06199L23.895 14.988C23.895 14.988 24.1838 15.3907 23.8088 15.7927C23.4338 16.1947 22.9447 15.852 22.9447 15.852L12.0082 4.06199ZM3.441 11.7967L15.3278 22.7227C15.3278 22.7227 15.6127 23.1247 15.2377 23.5267C14.8627 23.9295 14.379 23.586 14.379 23.586L3.441 11.7967ZM17.6287 6.61274L23.055 11.5657C23.055 11.5657 23.1952 11.7577 23.0123 11.9445C22.824 12.1327 22.5825 11.9722 22.5825 11.9722L17.6287 6.61274ZM6.18 17.2297L11.6017 22.188C11.6017 22.188 11.7458 22.3747 11.562 22.5622C11.3752 22.7542 11.133 22.59 11.133 22.59L6.18 17.2297Z" fill="black"/>
</g>
<defs>
<clipPath id="clip0_201_58074">
<rect width="24" height="24" fill="white"/>
</clipPath>
</defs>
</svg>
