<svg width="24" height="24" viewBox="0 0 24 24" fill="none" xmlns="http://www.w3.org/2000/svg">
<g clip-path="url(#clip0_201_58368)">
<path d="M19.8983 8.60175C19.8983 9.801 19.6013 10.899 19.1993 11.8988L19.8983 11.5005L23.3003 9.50025L20.601 8.00025C20.3003 3.50025 16.6013 0 11.9993 0C7.39726 0 3.69826 3.50025 3.39751 8.00025L0.698257 9.6015L3.79951 11.3985L4.69801 11.8988C4.19776 10.899 3.99901 9.801 3.99901 8.60175C3.99901 4.19925 7.60051 0.69975 11.8973 0.69975C16.3973 0.69975 19.8975 4.2 19.8975 8.60175H19.8983ZM0.101257 17.301L11.6993 24V16.6012L0.101257 9.89775V17.301ZM12.3008 16.6012V24L23.8988 17.301V9.8985L12.3008 16.6012Z" fill="black"/>
</g>
<defs>
<clipPath id="clip0_201_58368">
<rect width="24" height="24" fill="white"/>
</clipPath>
</defs>
</svg>
