<svg width="24" height="24" viewBox="0 0 24 24" fill="none" xmlns="http://www.w3.org/2000/svg">
<g clip-path="url(#clip0_201_57324)">
<path d="M17.541 11.3737C18.8408 10.7093 19.668 9.52725 19.476 7.563C19.2248 4.87425 17.0168 3.9735 14.0925 3.72225V0H11.8178V3.61875C11.2268 3.61875 10.6215 3.63375 10.0155 3.648V0H7.74075V3.72225C6.9045 3.74775 5.93025 3.735 3.177 3.72225V6.14475C4.9725 6.11325 5.91525 5.99775 6.13125 7.149V17.3407C5.994 18.2542 5.26275 18.123 3.63525 18.0945L3.17775 20.7975C7.32525 20.7975 7.74225 20.8125 7.74225 20.8125V24H10.017V20.8568C10.6373 20.8717 11.2425 20.8717 11.8193 20.8717V24.0007H14.094V20.8132C17.9048 20.6062 20.4525 19.6462 20.7922 16.0568C21.0578 13.1768 19.6995 11.8913 17.5425 11.3745L17.541 11.3737ZM10.0598 6.3075C11.3445 6.3075 15.3623 5.9085 15.3623 8.58225C15.3623 11.1375 11.3445 10.842 10.0598 10.842V6.3075ZM10.0598 18.1087V13.116C11.5958 13.116 16.2998 12.6877 16.2998 15.612C16.2998 18.4335 11.5958 18.108 10.0598 18.108V18.1087Z" fill="black"/>
</g>
<defs>
<clipPath id="clip0_201_57324">
<rect width="24" height="24" fill="white"/>
</clipPath>
</defs>
</svg>
