<svg width="24" height="24" viewBox="0 0 24 24" fill="none" xmlns="http://www.w3.org/2000/svg">
<g clip-path="url(#clip0_201_57212)">
<path d="M8.30101 23.9767C7.72276 23.934 6.96076 23.7885 6.32401 23.6047C5.25826 23.2845 4.25776 22.773 3.37876 22.0935C3.01201 21.8085 2.22676 21.0225 1.90576 20.6205C0.714764 19.1205 0.108764 17.4877 0.0510137 15.6202C0.0202637 14.7413 0.132764 13.8622 0.378764 13.0192C0.444764 12.7882 0.448514 12.765 0.433514 12.4875C0.417764 12.1125 0.452264 11.7375 0.534764 11.3745C0.597764 11.1285 0.765764 10.7655 0.874514 10.6327L0.940514 10.551L0.933764 10.9838C0.921764 11.6085 0.921764 11.6085 1.12051 11.262C1.56976 10.4528 2.15176 9.72675 2.83951 9.10875C3.03451 8.934 3.21076 8.77275 3.22651 8.7495C3.24526 8.72925 3.31576 8.57325 3.38626 8.4015C3.59326 7.88625 3.77626 7.60425 3.97951 7.50375C4.15576 7.41375 4.31176 7.461 4.35151 7.60875C4.35826 7.68 4.35451 7.7535 4.34326 7.824C4.33126 7.87875 4.32751 7.92975 4.33126 7.98375C4.33501 7.98375 4.48726 7.90575 4.67101 7.809C5.31901 7.46475 5.78401 7.266 6.76501 6.918C7.08526 6.80475 7.38976 6.69075 7.44001 6.672C7.71376 6.555 7.86226 6.16425 7.83901 5.63325C7.83526 5.4615 7.80001 5.289 7.73326 5.12925C7.69801 5.0205 7.65901 4.914 7.61251 4.812C7.56151 4.71525 7.56976 4.695 7.65151 4.719C7.88626 4.785 8.16376 5.01225 8.33926 5.27325C8.44051 5.43 8.61226 5.7975 8.61226 5.86725C8.61226 5.922 8.64751 5.895 8.72626 5.781C9.03001 5.328 9.03451 4.812 8.72926 4.293C8.61601 4.10475 8.30026 3.789 8.08501 3.65625C7.80826 3.48825 7.64026 3.438 7.34326 3.441C7.11601 3.441 7.09351 3.438 7.02601 3.38325C6.94426 3.312 6.89701 3.16425 6.91726 3.039C6.94426 2.898 7.18351 2.44125 7.35151 2.21925C7.54651 1.96125 7.98376 1.53525 8.26576 1.3365C9.18001 0.6885 10.3238 0.29775 11.652 0.17625C11.973 0.1455 11.9843 0.1455 12.051 0.07425C12.1133 0.00825 12.1328 0 12.27 0C12.402 0 12.441 0.012 12.5903 0.09825C12.7463 0.18825 12.762 0.19125 12.828 0.16425C12.879 0.141 12.9608 0.13725 13.1093 0.1455C13.2773 0.15675 13.3283 0.15225 13.371 0.1215C13.449 0.06675 13.5428 0.07425 13.6838 0.1455C13.7498 0.18075 13.9448 0.2385 14.121 0.2775C14.9408 0.4575 15.5978 0.71175 16.2233 1.0905C16.3365 1.1565 16.4303 1.21575 16.434 1.21575C16.4453 1.21575 16.434 1.12575 16.4018 0.96975L16.3905 0.8985L16.5428 0.9885C16.7415 1.10925 16.9215 1.2975 17.0198 1.48425C17.0895 1.617 17.1045 1.63725 17.1405 1.61325C17.1713 1.59825 17.2065 1.5945 17.2538 1.6095C17.3048 1.62975 17.3438 1.6845 17.4525 1.90275C17.5268 2.052 17.5935 2.181 17.6018 2.1885C17.613 2.19975 17.688 2.13375 17.7698 2.03925C17.9445 1.848 18.105 1.74225 18.3195 1.668C18.5198 1.602 18.6405 1.61325 18.7298 1.71525C18.8198 1.8165 18.8198 1.9455 18.7268 2.145C18.5468 2.523 18.465 2.871 18.4958 3.13725L18.5115 3.273L18.6203 3.19875C18.7185 3.129 18.741 3.12075 18.9255 3.12075C19.1168 3.12075 19.3238 3.18 19.3238 3.234C19.3238 3.246 19.2728 3.31575 19.2105 3.39525C19.0268 3.61725 18.9795 3.74625 18.9833 4.02C18.987 4.26975 18.999 4.32825 19.1595 4.887C19.2225 5.094 19.2885 5.35875 19.3118 5.48025C19.3238 5.559 19.344 5.63325 19.3748 5.703C19.4138 5.703 19.6875 5.47725 19.8518 5.30925C19.9485 5.211 20.0385 5.12925 20.0468 5.12925C20.0775 5.12925 20.1368 5.316 20.1638 5.50425C20.1945 5.72325 20.172 5.9385 20.0895 6.195C20.0423 6.35175 20.0423 6.36675 20.0775 6.441C20.1405 6.57 20.1473 6.711 20.1045 6.88725C20.0348 7.188 19.9058 7.398 19.5735 7.746L19.4018 7.926L19.3748 8.16375C19.359 8.2965 19.3238 8.496 19.2968 8.60475C19.2765 8.676 19.266 8.7495 19.2615 8.82C19.2698 8.82825 19.2923 8.82 19.3118 8.80125C19.3628 8.7585 19.527 8.781 19.6905 8.859C20.0228 9.02025 20.6595 9.60225 20.9093 9.97725L21.0465 10.176L21.2618 10.23C22.1445 10.4528 22.836 11.0977 23.2148 12.0548C23.3355 12.3547 23.418 12.738 23.4765 13.2375C23.4953 13.3942 23.5388 13.5308 23.6558 13.8278C23.742 14.043 23.8238 14.277 23.8395 14.3475C23.8823 14.5387 23.8583 14.7885 23.7803 14.9722C23.7413 15.0585 23.694 15.2025 23.667 15.2925C23.577 15.6165 23.4293 15.8272 23.1788 15.9877C23.1008 16.0387 22.9755 16.098 22.9005 16.1168C22.7648 16.152 22.3035 16.3665 22.3035 16.395C22.3035 16.4018 22.3343 16.4137 22.3778 16.4257C22.5968 16.4685 22.8855 16.6755 22.9598 16.8435C22.9718 16.8787 23.0295 16.9688 23.0888 17.0385C23.2995 17.3197 23.3505 17.5778 23.2755 17.9835L23.2328 18.1943L23.2958 18.2723C23.5185 18.5423 23.706 18.894 23.7758 19.1632C23.874 19.542 23.8695 19.9095 23.769 20.4683L23.7263 20.7023L23.808 20.8193C23.9603 21.042 23.991 21.2535 23.913 21.5543C23.718 22.308 23.1473 22.866 22.3508 23.0775L22.194 23.1165V23.3273C22.194 23.487 22.1828 23.5612 22.1438 23.6445C22.077 23.7847 21.9638 23.8972 21.8228 23.9647C21.6008 24.0615 21.2648 23.9565 21.1005 23.7337C21.0188 23.6205 21.0105 23.6205 20.8935 23.6205C20.8148 23.6167 20.7405 23.6047 20.6663 23.5815C20.4203 23.4952 20.3033 23.3235 20.2995 23.0347L20.2958 22.8668L20.1398 22.773C19.929 22.6523 19.7408 22.4963 19.5765 22.3162L19.4243 22.152L19.5023 22.3088C19.8383 22.9725 19.4595 23.6947 18.6585 23.91C18.4943 23.9572 18.3698 23.9648 17.6663 23.9797C16.5803 24.0075 8.64601 24.0037 8.29951 23.9767H8.30101ZM21.8093 23.574C21.9105 23.4877 21.9495 23.262 21.8873 23.1413C21.828 23.0273 21.7463 22.992 21.504 22.9733C21.2273 22.953 21.1478 22.9102 21.1478 22.7933C21.1478 22.641 21.1755 22.6335 21.789 22.6252C22.3868 22.617 22.566 22.59 22.8278 22.4573C23.0588 22.3403 23.352 21.9773 23.379 21.7733L23.391 21.6803L23.2268 21.7275C22.602 21.9023 21.7575 21.9345 21.141 21.8055C20.4773 21.6645 19.863 21.2858 19.6448 20.8792L19.59 20.7772L19.5623 20.8485C19.5353 20.9573 19.527 21.0705 19.5315 21.1845C19.5278 21.4305 19.5353 21.4575 19.6058 21.6022C19.7505 21.906 20.0625 22.203 20.4458 22.395C20.646 22.4963 20.6528 22.5 20.6378 22.5743L20.5988 22.8165C20.5598 23.0273 20.5785 23.1413 20.6768 23.2545C20.778 23.3678 20.9265 23.4345 21.0825 23.4263C21.1763 23.4263 21.2348 23.4412 21.2738 23.4735C21.4808 23.6333 21.696 23.6768 21.81 23.5748L21.8093 23.574ZM16.8053 23.391C17.2703 23.3242 17.418 23.3197 17.6685 23.379C18.1763 23.4878 18.7035 23.3977 18.9345 23.16C19.0868 23.0002 19.1333 22.7498 19.0395 22.5938C18.9225 22.4018 18.6173 22.2728 18.2813 22.2728C18.0473 22.2728 17.9265 22.3088 17.52 22.4797C17.3948 22.5345 17.2703 22.5855 17.1413 22.6245C16.9695 22.6597 16.875 22.5615 16.875 22.3478C16.875 22.113 16.941 22.0387 17.4383 21.6877C17.8635 21.387 18.117 21.039 18.18 20.676C18.207 20.508 18.1763 20.2733 18.117 20.2192C18.0233 20.172 17.9258 20.1375 17.8238 20.1135C16.992 19.8675 16.6125 19.5518 16.2495 18.8055C16.1085 18.5122 15.9915 18.2078 15.9015 17.8958C15.8588 17.7465 15.8085 17.6025 15.7493 17.4615C15.4793 16.8638 14.8193 16.3283 14.0655 16.0823C13.7453 15.9803 13.5428 15.9412 13.0305 15.8985C12.8438 15.8835 12.6555 15.8632 12.4688 15.8445L12.348 15.8243L12.516 15.738C12.723 15.633 12.8708 15.5857 13.0943 15.555C13.4063 15.5077 13.6215 15.4958 13.8525 15.5228C14.7735 15.6285 15.4695 16.1017 15.9578 16.9605C16.1415 17.2808 16.2705 17.6085 16.3988 18.0615C16.548 18.5895 16.6808 18.8542 16.935 19.1205C17.3453 19.5585 17.892 19.7535 18.6998 19.7535C18.8798 19.7535 19.1025 19.7415 19.1918 19.7265C19.5705 19.6755 19.9658 19.5382 20.2545 19.3627C20.5703 19.176 20.8673 18.8235 20.9655 18.5228C20.9925 18.4335 21.0278 18.3585 21.0398 18.3585C21.0555 18.3585 21.1455 18.3787 21.243 18.3975C21.4073 18.4373 21.4313 18.4373 21.63 18.3975C21.9458 18.3398 22.032 18.3472 22.11 18.4335C22.2353 18.5617 22.3883 18.5858 22.563 18.5033C22.6298 18.4643 22.692 18.4132 22.7393 18.351C22.7985 18.2723 22.8105 18.2332 22.806 18.144C22.7978 18.0382 22.794 18.0338 22.6103 17.913C22.5443 17.874 22.4813 17.8313 22.4273 17.7803C22.4273 17.7765 22.47 17.7375 22.524 17.7023C22.6028 17.6513 22.6493 17.64 22.7198 17.6445C22.821 17.6512 22.821 17.6407 22.7235 17.4487C22.6373 17.2725 22.4963 17.133 22.3208 17.0505C21.9848 16.8862 21.603 16.8862 21.177 17.0505C20.919 17.1517 20.88 17.1517 20.7038 17.0737C20.4735 16.9725 20.2388 16.938 19.923 16.9567C19.5278 16.98 19.2713 16.938 19.173 16.8397L19.0988 16.7655L19.4108 16.7332C19.9028 16.6905 20.0438 16.647 20.478 16.4093C20.7473 16.2615 20.907 16.2225 21.3098 16.1985C21.888 16.1632 22.1648 16.0658 22.317 15.8355C22.3718 15.7537 22.4033 15.7297 22.4273 15.7455C22.7783 15.8317 23.13 15.6128 23.2043 15.2572C23.22 15.1755 23.2163 15.171 22.9665 14.9482C22.8765 14.874 22.7903 14.7922 22.7123 14.706C22.7123 14.6978 22.7513 14.655 22.7985 14.616C22.9395 14.4908 23.0408 14.511 23.3295 14.7218C23.3805 14.7607 23.3843 14.7608 23.3843 14.718C23.3843 14.6243 23.325 14.4683 23.157 14.1083C22.9583 13.6875 22.9418 13.6403 22.9028 13.3043C22.782 12.2723 22.2278 11.4135 21.36 10.9095C21.294 10.8667 21.2243 10.8278 21.1493 10.7963C21.1425 10.7963 21.099 10.866 21.0563 10.9522C21.0135 11.0422 20.9543 11.1285 20.8883 11.202C20.8133 11.28 20.7825 11.3003 20.7083 11.3003C20.6033 11.3003 20.5283 11.2455 20.5283 11.1675C20.5283 11.1368 20.5605 11.0423 20.5995 10.9605C20.7203 10.6988 20.7555 10.5195 20.7203 10.3155C20.6385 9.8355 20.1893 9.30075 19.626 9.00375C19.407 8.8905 19.3838 8.895 19.368 9.0345C19.353 9.19875 19.3883 9.5265 19.446 9.7455C19.47 9.8475 19.563 10.0935 19.6463 10.2847C19.8645 10.785 19.9313 11.0077 19.9313 11.2267C19.935 11.3197 19.923 11.4097 19.8923 11.496C19.8293 11.6287 19.731 11.7382 19.6103 11.8162C19.5285 11.859 19.4355 11.8635 19.4543 11.82C19.5795 11.5312 19.6223 11.391 19.6343 11.2148C19.6463 10.965 19.614 10.848 19.3995 10.41C19.1858 9.969 19.1265 9.72975 19.1385 9.36675L19.1498 9.1125L19.092 9.2265C19.014 9.36675 18.9323 9.50325 18.8423 9.63675C18.537 10.1085 18.4403 10.3628 18.4403 10.68C18.4403 10.977 18.5535 11.3872 18.717 11.6798C18.7478 11.7375 18.7718 11.7885 18.7643 11.7968C18.7095 11.766 18.6623 11.727 18.6195 11.6835C18.4868 11.5545 18.2955 11.2298 18.2955 11.1285C18.2955 11.0588 18.2528 11.0737 18.0578 11.1982C17.691 11.433 17.4285 11.6715 17.0805 12.081C16.5728 12.6832 15.8858 13.1318 15.0413 13.4093C14.8425 13.476 14.193 13.647 13.6043 13.7963C11.982 14.1983 11.4165 14.397 10.6665 14.8312C9.18226 15.6832 8.40451 16.8315 8.25226 18.3945C8.19751 18.9562 8.27551 19.8045 8.43601 20.4135C8.46301 20.5035 8.30701 20.3002 8.20876 20.1127C8.03701 19.7805 7.92376 19.3665 7.86901 18.852C7.81801 18.3907 7.87276 17.4727 7.98226 16.98L7.99801 16.9103L7.63876 16.926C6.75601 16.965 6.02176 17.2148 5.42401 17.688C5.33401 17.754 5.24776 17.832 5.16601 17.91L5.10676 17.9842L5.12251 17.9145C5.14951 17.7855 5.29051 17.5087 5.40751 17.3595C5.64676 17.0392 6.13051 16.7385 6.63451 16.5863C6.76726 16.5473 7.17376 16.449 7.53226 16.3673C7.89901 16.2855 8.21251 16.215 8.23501 16.2113C8.25526 16.203 8.32501 16.1025 8.38801 15.984C8.45026 15.8632 8.56726 15.6802 8.64601 15.5737C8.72401 15.465 8.78176 15.3705 8.77426 15.3668C8.64601 15.3787 8.51326 15.3945 8.38426 15.4177C8.17726 15.4485 7.71226 15.516 7.35601 15.5618C6.63826 15.6555 6.23101 15.7298 5.85601 15.84C4.69576 16.176 4.02376 16.824 3.67726 17.949L3.58726 18.2423L3.63451 18.3795C3.70876 18.6023 3.96226 19.0987 4.13476 19.3522C4.79851 20.34 5.83801 21.1455 7.11451 21.648C7.40326 21.7658 7.43926 21.7852 7.58776 21.9338C7.67776 22.02 7.74751 22.0935 7.74376 22.098C7.72501 22.1168 6.99001 21.9263 6.66976 21.8197C5.90401 21.5655 5.18551 21.18 4.55701 20.6715C4.41976 20.5658 4.27201 20.4683 4.11526 20.3903C3.59251 20.124 3.11926 19.7722 2.71351 19.3545C2.51851 19.1558 2.35426 18.9292 2.22526 18.6833L2.12326 18.4913L2.26801 18.6285C2.58826 18.9217 3.05326 19.2225 3.27901 19.2847C3.33376 19.3005 3.33001 19.2885 3.23626 19.125C3.09601 18.8708 2.97526 18.609 2.87326 18.3397C2.81101 18.1597 2.71351 17.9918 2.59201 17.8478C1.84576 16.875 1.29901 15.8977 0.915764 14.8545L0.798764 14.5305L0.778514 14.6407C0.763514 14.8155 0.755264 14.9955 0.755264 15.18L0.751514 15.609L0.892514 15.996C1.03651 16.3912 1.55626 17.793 1.59976 17.91C1.61476 17.9452 1.61851 17.9767 1.61476 17.9767C1.61101 17.9767 1.52476 17.871 1.42801 17.7458C1.19701 17.457 0.942764 17.0737 0.897014 16.953L0.857264 16.8592L0.873014 16.941C0.947264 17.391 1.14676 18.0623 1.33801 18.516C1.92376 19.8907 2.88901 21.0982 4.06126 21.9217C5.20126 22.7265 6.75226 23.289 8.12326 23.4015C8.25601 23.4097 10.2053 23.4217 12.459 23.4255C15.9788 23.4255 16.5878 23.4218 16.8068 23.3903L16.8053 23.391ZM18.4883 16.7228C18.2235 16.668 17.9693 16.578 17.73 16.449C17.2703 16.1797 16.941 15.7072 16.9103 15.2662C16.8983 15.1095 16.8983 15.1095 16.9343 15.1912C17.1413 15.7192 17.5433 16.1453 18.0945 16.4265C18.3488 16.5518 18.4883 16.6057 18.7853 16.6807L19.0515 16.7505L18.8325 16.7467C18.7155 16.7467 18.5595 16.7348 18.4883 16.7235V16.7228ZM21.1208 14.3243C20.8785 14.2665 20.6085 14.0513 20.535 13.8555C20.4878 13.6958 20.496 13.5278 20.5553 13.3755L20.5943 13.3057L20.6093 13.4025C20.6565 13.6418 20.8245 13.8488 21.066 13.9537C21.141 13.989 21.324 14.0355 21.477 14.0625C21.7073 14.1023 21.855 14.1458 21.9413 14.1998C21.9495 14.2035 21.957 14.0947 21.9615 13.962C21.9653 13.7242 21.9653 13.716 21.9263 13.7738C21.8445 13.896 21.7275 13.989 21.6525 13.989C21.5595 13.989 21.1418 13.8368 21.0278 13.7633C20.8838 13.6695 20.841 13.575 20.841 13.38C20.841 13.239 20.829 13.2038 20.7863 13.1528L20.7315 13.0988L20.8455 12.993C21.0368 12.8212 21.1493 12.7778 21.4155 12.7778C21.6735 12.7778 21.7823 12.8167 21.9623 12.9697C22.2203 13.1887 22.3065 13.728 22.1535 14.1727L22.0995 14.337L21.6578 14.3407C21.4785 14.349 21.2985 14.3408 21.123 14.325L21.1208 14.3243ZM21.4103 13.473C21.4965 13.4303 21.5475 13.3357 21.543 13.227C21.5393 13.1557 21.5198 13.1213 21.453 13.059C21.312 12.93 21.1253 12.969 21.0428 13.1407C20.934 13.3665 21.1838 13.5938 21.4095 13.4767L21.4103 13.473ZM19.3748 22.062C19.2578 21.879 19.1715 21.6758 19.1168 21.465C19.0388 21.105 19.1085 20.535 19.2698 20.262L19.332 20.1517L19.1333 20.1675C19.0275 20.1757 18.9225 20.1833 18.816 20.1833H18.699V20.3625C18.699 20.7143 18.5348 21.1478 18.2768 21.4688L18.1448 21.6368L18.3908 21.6555C18.5228 21.6637 18.7028 21.6908 18.7928 21.7185C18.9728 21.7725 19.1985 21.9097 19.3238 22.0425C19.422 22.1475 19.4408 22.1558 19.3748 22.0613V22.062ZM22.668 21.2228C22.848 21.1515 22.9958 21.0195 23.0858 20.8478C23.172 20.6715 23.262 20.211 23.2808 19.8705C23.289 19.6553 23.2845 19.5502 23.2538 19.4017C23.2148 19.215 23.07 18.8828 22.98 18.7725L22.9343 18.7147L22.8165 18.801C22.5593 18.984 22.3523 19.0163 22.0868 18.8978C21.9615 18.8438 21.888 18.828 21.6885 18.8197L21.4455 18.8115L21.3675 18.9487C21.1373 19.359 20.7818 19.6838 20.3528 19.8705L20.169 19.9567L20.1533 20.0858C20.0873 20.6085 20.4353 20.973 21.204 21.168C21.606 21.273 21.7388 21.285 22.161 21.2812C22.4783 21.273 22.5518 21.2663 22.6688 21.2235L22.668 21.2228ZM3.35476 17.5042C3.57376 16.4385 4.38301 15.723 5.75776 15.3832C6.09751 15.297 6.66376 15.1882 7.68751 15C9.03451 14.7577 9.44851 14.6287 9.94426 14.2972L10.245 14.0985L8.97901 14.0903C7.42876 14.082 7.22626 14.1023 6.62026 14.301C6.23701 14.43 5.85826 14.598 4.81951 15.1088C4.32751 15.3518 3.91726 15.5468 3.91351 15.543C3.90526 15.531 4.28851 15.195 4.48351 15.0427C5.12476 14.5387 6.17551 13.953 6.84751 13.7295C7.99576 13.3433 8.87851 13.2697 10.7378 13.4017L11.6288 13.4685L11.9768 13.3822C12.3158 13.296 12.6638 13.2292 13.32 13.1243C13.434 13.1085 13.5428 13.0853 13.656 13.0613C13.6598 13.0583 13.6448 13.0463 13.617 13.038C13.488 12.9953 13.3673 12.933 13.254 12.8542C13.203 12.8235 13.152 12.7882 13.1048 12.7455C13.1048 12.7417 13.4138 12.7417 13.797 12.7455C14.484 12.7537 14.4878 12.7537 14.73 12.6877C16.23 12.2805 17.4653 11.1757 18.1208 9.6405C18.258 9.3195 18.4958 8.64075 18.48 8.6205C18.4733 8.61225 18.3908 8.65125 18.3008 8.70675C18.0698 8.8515 17.5815 9.09375 17.2965 9.207C16.5893 9.48825 15.8475 9.65625 15.0893 9.70275L14.874 9.7185L14.7023 9.87825C14.1045 10.4445 13.2023 10.9792 12.378 11.265C11.9168 11.4248 11.6318 11.487 10.1513 11.769C9.41701 11.9093 8.58526 12.069 8.30026 12.132C6.23326 12.5648 4.90951 13.1077 4.19401 13.8187C3.95176 14.058 3.81901 14.2448 3.67876 14.55C3.60376 14.7022 3.52576 14.823 3.41251 14.9482C3.21376 15.183 3.07276 15.456 2.99026 15.753C2.90026 16.1243 2.93926 16.6672 3.10051 17.1322C3.15451 17.3003 3.30376 17.64 3.31876 17.64C3.33451 17.5928 3.34651 17.55 3.35401 17.5028L3.35476 17.5042ZM2.53501 16.6327L2.51176 16.2698L2.25001 15.879C2.09026 15.6368 1.93426 15.3907 1.78126 15.141C1.59451 14.82 1.15201 13.977 1.03126 13.6882L0.980264 13.5705L0.992264 13.6642C1.02001 13.848 1.14151 14.34 1.23001 14.6093C1.42201 15.207 1.74226 15.867 2.09026 16.3913C2.24626 16.6252 2.54326 17.0205 2.55526 17.0085C2.55526 16.8832 2.54701 16.7587 2.53501 16.6335V16.6327ZM2.52676 15.234C2.44876 14.8403 2.48401 14.301 2.61301 13.9838C2.66401 13.8518 2.77276 13.629 2.78926 13.629C2.79301 13.629 2.83201 13.7227 2.87551 13.8397C2.94976 14.0505 3.05551 14.2537 3.08626 14.2537C3.09451 14.2537 3.14551 14.184 3.19501 14.094C3.24601 14.0077 3.35476 13.848 3.43801 13.734L3.59401 13.5308L3.49576 13.473C3.19051 13.2773 2.91376 12.8362 2.79301 12.3547C2.67601 11.8785 2.64076 11.1555 2.70301 10.5615C2.72326 10.3973 2.73376 10.2615 2.72701 10.2533C2.71126 10.2375 2.37901 10.6515 2.16826 10.944C1.82026 11.4397 1.53151 11.976 1.30501 12.534L1.19926 12.8002L1.30126 13.0935C1.60501 13.9335 2.03101 14.7225 2.55901 15.4447C2.55526 15.375 2.54326 15.3045 2.52676 15.234ZM3.99601 13.359C3.92626 13.0703 3.89476 12.6877 3.89476 12.0082C3.89476 11.355 3.89776 11.2582 3.94876 10.977C4.02001 10.605 4.14076 10.1842 4.25401 9.93825C4.34026 9.75825 4.57801 9.34425 4.59376 9.35925C4.59751 9.363 4.56976 9.5985 4.53076 9.87525C4.42576 10.6845 4.40176 10.98 4.41751 11.445C4.43776 11.9768 4.53076 12.645 4.58926 12.645C4.61251 12.645 4.62001 12.531 4.61626 12.1448C4.60426 11.5508 4.68751 10.9567 4.85851 10.3868C5.05876 9.68775 5.47951 8.76975 5.86651 8.19075C5.89726 8.148 5.92576 8.1015 5.94826 8.055C5.94826 8.04675 5.88601 8.05125 5.80801 8.06175C4.88626 8.20275 4.14001 8.82 3.76501 9.75L3.67126 9.98025L3.68326 9.816C3.71401 9.348 3.80851 8.691 3.87001 8.47275C3.87826 8.44875 3.85426 8.484 3.81901 8.547C3.54601 9.05925 3.27976 10.5232 3.27976 11.5507C3.27976 12.3045 3.41701 12.8475 3.68701 13.2105C3.81526 13.3785 4.02226 13.4798 3.99526 13.3583L3.99601 13.359ZM5.27026 12.441C5.48026 12.336 5.77351 12.2542 7.03951 11.934C7.59826 11.793 8.18026 11.637 8.34076 11.586C8.92651 11.3947 9.46201 11.07 9.90676 10.641C10.368 10.1947 10.524 9.96075 10.6688 9.477C10.7348 9.25425 10.7348 9.25425 10.7775 9.309C10.9658 9.555 10.9613 10.1407 10.7738 10.512C10.7468 10.5592 10.7348 10.602 10.7468 10.602C10.7978 10.602 11.0625 10.4062 11.1728 10.2892C11.466 9.97725 11.5988 9.6915 11.8328 8.898C11.868 8.77275 11.907 8.652 11.9535 8.53125C11.9738 8.508 12.0623 8.7075 12.1133 8.9025C12.141 9.00825 12.1523 9.1455 12.1523 9.34425C12.1485 9.672 12.09 9.9225 11.9385 10.2232L11.8523 10.3912L11.9805 10.3245C12.2895 10.1565 12.8558 9.46575 13.0988 8.95725C13.2428 8.68425 13.3125 8.379 13.3095 8.07C13.3095 7.64475 13.2195 7.36275 12.9653 6.99225C12.6293 6.5085 11.871 5.94525 11.2073 5.68425C11.1053 5.64525 11.0393 5.59425 10.926 5.46525C10.8398 5.3715 10.785 5.29725 10.797 5.29725C10.8278 5.29725 11.2703 5.41425 11.5658 5.50425C12.273 5.715 12.8235 6.02325 13.254 6.4455C13.746 6.9345 13.98 7.44975 13.977 8.03175C13.9733 8.5515 13.7888 9.021 13.3913 9.552C13.3125 9.65325 13.2503 9.74325 13.2503 9.75075C13.2503 9.771 13.6335 9.5985 13.875 9.474C14.1758 9.31275 14.664 8.98125 14.8553 8.81325C15.1133 8.5755 15.465 7.9935 15.6135 7.5405C15.7583 7.10325 15.7815 6.60675 15.6765 6.1965C15.5865 5.83725 15.3488 5.4195 15.0518 5.09925L14.9265 4.962H15.0473C15.1133 4.962 15.1763 4.95 15.18 4.93875C15.2108 4.8915 15.141 4.78575 15.0308 4.71975C14.8478 4.60275 14.7698 4.59075 14.4255 4.6335C14.0423 4.6845 13.4295 4.6845 13.1325 4.6335C12.8745 4.5945 12.5895 4.5045 12.4485 4.42275L12.3548 4.3635L13.23 4.35225C13.8953 4.344 14.148 4.32825 14.3048 4.30125C14.5268 4.2585 14.6835 4.1955 14.7338 4.13325C14.766 4.098 14.7578 4.08225 14.676 3.996C14.406 3.71925 13.9103 3.375 13.4063 3.12075C12.543 2.67975 11.586 2.457 10.617 2.46075C10.23 2.46075 9.75826 2.49975 9.55126 2.55075L9.49201 2.562L9.56176 2.48775C9.65551 2.3865 9.97276 2.2335 10.203 2.17575C10.6133 2.07 11.184 2.03475 11.7338 2.07375C12.5115 2.133 13.0658 2.2725 13.812 2.60475C13.9733 2.676 14.121 2.73375 14.145 2.73C14.2073 2.727 14.2808 2.65575 14.316 2.57025L14.3483 2.496L14.4225 2.66025C14.4653 2.75025 14.4968 2.832 14.4968 2.8485C14.4968 2.90625 14.544 2.84025 14.571 2.73825C14.5793 2.6955 14.5988 2.652 14.622 2.6175C14.646 2.6025 14.712 2.74275 14.79 2.98425L14.8448 3.1605L14.97 3.03525C15.114 2.89125 15.1178 2.895 15.1418 3.2115L15.153 3.4185L15.2633 3.34875C15.3255 3.31275 15.384 3.2895 15.3923 3.29775C15.399 3.30975 15.4275 3.3915 15.4583 3.48075C15.5445 3.7545 15.6615 3.978 15.8025 4.134C15.8685 4.21575 15.9668 4.353 16.0133 4.44225C16.0605 4.5285 16.1063 4.59525 16.1183 4.59525C16.1535 4.5795 16.3215 4.28625 16.3995 4.09125C16.4235 4.0245 16.4543 3.96225 16.4933 3.903C16.5285 3.903 16.548 4.173 16.536 4.47C16.5278 4.57125 16.5278 4.66875 16.536 4.767C16.5788 4.743 16.6223 4.716 16.6613 4.68525C16.7003 4.64925 16.7475 4.62225 16.794 4.599C16.845 4.599 16.731 5.349 16.6493 5.56725C16.614 5.646 16.6853 5.60625 16.8413 5.45025C16.9275 5.364 16.9973 5.31 16.9973 5.325C16.9973 5.388 16.8563 5.91075 16.806 6.03975C16.7588 6.153 16.7078 6.25875 16.6493 6.36375C16.5525 6.54 16.4745 6.72375 16.4115 6.9105L16.3965 6.97725L16.5135 6.8985C16.6425 6.80925 16.7003 6.7815 17.4038 6.5085C18.0248 6.2625 18.3765 6.0945 18.5175 5.96925C18.6653 5.8365 18.7515 5.67225 18.7515 5.508V5.38275L18.6818 5.4765C18.549 5.6595 18.2355 5.9175 17.9468 6.08925L17.85 6.144L17.9243 6.06075C18.2445 5.70975 18.4635 5.226 18.4635 4.85775C18.4635 4.72575 18.4283 4.53375 18.3855 4.4325C18.3548 4.3575 18.3548 4.3575 18.1785 4.7955C17.9715 5.2995 17.7758 5.7015 17.6475 5.8965C17.4518 6.18225 17.1623 6.4395 16.9868 6.48225C16.929 6.498 16.9245 6.49425 16.944 6.45525C16.9868 6.37725 17.0423 6.135 17.0693 5.9205C17.0813 5.80725 17.097 5.2485 17.1053 4.68225C17.1203 3.6705 17.136 3.4005 17.1983 3.13125C17.2305 2.9985 17.2305 2.994 17.1285 2.721C17.0775 2.58825 17.0198 2.451 16.9605 2.31825C16.8945 2.18625 16.7453 1.9785 16.7145 1.9785C16.7063 1.9785 16.6448 2.10075 16.5773 2.2485L16.4565 2.51475L16.4445 2.2875C16.4378 2.1075 16.4258 2.04975 16.3823 1.9905C16.2615 1.83825 16.1123 1.70925 15.9443 1.60725C15.714 1.467 15.4725 1.34625 15.2265 1.24425C15.1673 1.2285 15.1673 1.2285 15.1838 1.3575C15.195 1.42875 15.207 1.51425 15.2145 1.54575C15.2303 1.6005 15.2265 1.6005 15.1365 1.58475C14.9805 1.554 14.8358 1.4715 14.7308 1.35075C14.6678 1.284 14.613 1.23675 14.6055 1.2405C14.6168 1.3185 14.6363 1.3935 14.6678 1.46775C14.703 1.58475 14.7338 1.68675 14.727 1.68975C14.7113 1.7055 14.5433 1.644 14.4728 1.593C14.3985 1.51875 14.3355 1.43325 14.2845 1.34325C14.2268 1.24125 14.1518 1.1445 14.0655 1.05825C13.9095 0.9255 13.8398 0.90525 13.0973 0.831C12.9413 0.819 12.7883 0.78 12.648 0.72225C12.6083 0.7065 12.612 0.72225 12.663 0.8355C12.6938 0.90525 12.7298 1.0035 12.7373 1.05075L12.753 1.137L12.648 1.113C12.4868 1.086 12.2918 1.008 12.1118 0.89775C11.9558 0.80475 11.9438 0.801 11.6625 0.78075C11.3348 0.762 11.0063 0.78075 10.6823 0.8475L10.5023 0.89025L10.6823 0.909C10.9245 0.93675 11.1315 1.00275 11.2605 1.09725C11.3618 1.1715 11.4473 1.257 11.4473 1.2885C11.4473 1.29675 11.2605 1.30875 11.025 1.3155C10.35 1.33125 9.92401 1.44075 9.32176 1.73775C9.02176 1.89075 8.19676 2.42175 7.99351 2.598C7.87276 2.69925 7.65376 2.988 7.65376 3.04275C7.65376 3.0735 7.70101 3.0975 7.83001 3.13275C8.79901 3.4095 9.40801 4.11675 9.52501 5.1015C9.61501 5.81175 9.60001 6.24975 9.48226 6.72225C9.29926 7.44825 8.82601 8.14725 8.29501 8.4765C8.10001 8.59725 7.69726 8.75325 7.57576 8.75325H7.50601L7.63126 8.616C7.92001 8.30025 8.13151 7.89675 8.27251 7.386C8.35426 7.101 8.36176 6.80025 8.29126 6.573C8.24401 6.40875 8.22901 6.405 8.18251 6.55425C8.11951 6.741 8.03326 6.921 7.92826 7.0935C7.87726 7.16775 7.54126 7.5225 7.16251 7.90125C6.29926 8.757 5.94076 9.2025 5.60476 9.819C5.33101 10.3313 5.15101 10.8818 5.06176 11.4562C5.01451 11.8515 5.02576 12.522 5.08501 12.522C5.09326 12.522 5.17876 12.4867 5.27326 12.4403L5.27026 12.441ZM16.695 8.84025C17.316 8.63325 17.8013 8.406 18.207 8.1375C18.5003 7.94175 18.8873 7.56225 19.1048 7.25475C19.32 6.9495 19.6328 6.2895 19.5818 6.243C19.5548 6.216 19.1325 6.37575 18.9915 6.46575C18.8393 6.5625 18.7455 6.6375 18.2925 7.0275C17.8478 7.41075 17.7578 7.47375 17.5305 7.5825C17.2928 7.6995 17.1473 7.7115 16.9958 7.6215C16.9605 7.60575 16.9298 7.5825 16.8975 7.5555C16.8975 7.54725 16.9448 7.5165 16.9958 7.48425C17.1015 7.41825 17.301 7.227 17.2808 7.2075C17.172 7.25025 17.07 7.30125 16.9725 7.3635C16.1595 7.8285 15.7335 8.2155 15.6638 8.55525C15.645 8.652 15.6675 8.6565 15.9255 8.57025C16.5548 8.367 17.2965 7.977 18.2333 7.359C18.507 7.17975 18.6405 7.10475 18.7613 7.07025C18.8153 7.0515 18.8745 7.0395 18.9375 7.035C18.9645 7.06575 18.6638 7.41 18.4215 7.629C17.8155 8.172 17.2613 8.535 16.6245 8.81625C16.4648 8.8875 16.3478 8.94525 16.3583 8.94525C16.374 8.94525 16.5225 8.898 16.6943 8.84025H16.695ZM17.586 5.05125C17.844 4.668 17.922 4.37925 17.9573 3.723C17.988 3.102 18.0555 2.73375 18.2235 2.25375C18.2625 2.13675 18.2895 2.043 18.2813 2.03475C18.258 2.0115 18.0165 2.328 17.934 2.496C17.691 2.98425 17.5043 3.84 17.4143 4.85475C17.3955 5.0775 17.379 5.2695 17.379 5.28075C17.379 5.3235 17.4803 5.211 17.586 5.0505V5.05125Z" fill="black"/>
</g>
<defs>
<clipPath id="clip0_201_57212">
<rect width="24" height="24" fill="white"/>
</clipPath>
</defs>
</svg>
