<svg width="24" height="24" viewBox="0 0 24 24" fill="none" xmlns="http://www.w3.org/2000/svg">
<g clip-path="url(#clip0_201_58328)">
<path d="M20.8868 15.8123V16.9725H22.8675C23.274 16.9725 23.9692 16.6598 23.9925 15.777V15.3278C23.9925 14.5778 23.4142 14.1323 22.8675 14.1323H21.879V13.593H23.8358V12.4208H21.957C21.4725 12.4208 20.8245 12.8468 20.8245 13.6358V14.0423C20.8245 14.8313 21.465 15.2378 21.957 15.2378C23.3205 15.2453 21.6285 15.2378 22.8908 15.2378V15.804L20.8868 15.8123ZM10.266 15.5273C10.266 15.5273 11.3287 15.4298 11.3287 13.98C11.3287 12.5265 10.0433 12.39 10.0433 12.39H7.7265V16.9718H8.8905V15.8663L9.8985 16.9718H11.6175L10.266 15.5273ZM9.81675 14.5898H8.89125V13.5428H9.825C9.825 13.5428 10.0868 13.644 10.0868 14.0625C10.0868 14.481 9.8175 14.5898 9.8175 14.5898H9.81675ZM14.199 12.4223H13.0192C12.1755 12.4223 11.8905 13.2345 11.8905 13.6178V16.9733H13.074V16.1723H14.1832V16.9733H15.3278V13.6178C15.3278 12.6413 14.4915 12.4223 14.199 12.4223ZM14.1832 14.871H13.0658V13.7618C13.0658 13.7618 13.0658 13.5075 13.437 13.5075H13.8435C14.1675 13.5075 14.1757 13.7618 14.1757 13.7618V14.871H14.1832ZM15.867 12.4223H17.0978V16.9733H15.867V12.4223ZM18.8243 15.7973V12.4223H17.6017V16.9733H20.481V15.7973H18.8243ZM0.426 16.9725H5.211C5.211 16.9725 4.29675 12.5468 7.32825 10.7498C7.98825 10.41 10.0898 9.13653 13.5353 11.8358C13.641 11.742 13.746 11.664 13.746 11.664C13.746 11.664 10.5938 8.32803 7.086 8.69928C5.3205 8.86728 3.15225 10.5705 1.87875 12.8205C0.60525 15.0705 0.42525 16.9725 0.42525 16.9725H0.426ZM0.426 16.9725H5.211C5.211 16.9725 4.29675 12.5468 7.32825 10.7498C7.98825 10.41 10.0898 9.13653 13.5353 11.8358C13.641 11.742 13.746 11.664 13.746 11.664C13.746 11.664 10.5938 8.32803 7.086 8.69928C5.3205 8.86728 3.15225 10.5705 1.87875 12.8205C0.60525 15.0705 0.42525 16.9725 0.42525 16.9725H0.426ZM0.426 16.9725H5.211C5.211 16.9725 4.29675 12.5468 7.32825 10.7498C7.98825 10.41 10.0898 9.13653 13.5353 11.8358C13.641 11.742 13.746 11.664 13.746 11.664C13.746 11.664 10.5938 8.32803 7.086 8.69928C5.31675 8.86728 3.14475 10.5705 1.87125 12.8205C0.6015 15.0705 0.426 16.9725 0.426 16.9725ZM10.3988 9.06228L10.4257 8.62878C10.371 8.59728 10.2188 8.51928 9.83625 8.40603L9.813 8.82828C10.0125 8.89878 10.2075 8.97678 10.3988 9.06303V9.06228ZM9.82425 10.422L9.801 10.8285C10.0005 10.836 10.1993 10.86 10.3988 10.9065L10.4257 10.5083C10.2188 10.461 10.0192 10.4378 9.82425 10.422ZM7.58175 8.41803H7.64025L7.5195 8.02728C7.332 8.02728 7.14075 8.03928 6.9375 8.06253L7.0545 8.44503C7.23 8.42553 7.40625 8.41803 7.58175 8.41803ZM7.87125 10.785L8.01225 11.2268C8.18775 11.1368 8.364 11.0588 8.5395 11.004L8.40675 10.578C8.19975 10.6403 8.02425 10.7108 7.87125 10.785ZM5.121 9.09378L4.84725 8.64828C4.695 8.73453 4.539 8.82378 4.37475 8.92578L4.656 9.37503C4.812 9.27378 4.96425 9.17553 5.121 9.09378ZM6.363 11.9843L6.65625 12.4493C6.7575 12.2888 6.879 12.141 7.01175 11.9925L6.738 11.5553C6.6015 11.6918 6.4725 11.8365 6.363 11.985V11.9843ZM5.48475 14.055L5.97675 14.469C6 14.2148 6.0435 13.965 6.102 13.7153L5.6685 13.3478C5.58675 13.5863 5.53575 13.824 5.48475 14.055ZM2.832 11.004L2.3985 10.6058C2.2425 10.7663 2.09025 10.926 1.953 11.0865L2.418 11.5125C2.547 11.337 2.6835 11.1645 2.832 11.0048V11.004ZM0.99975 13.875L0.3045 13.6058C0.1875 13.8833 0.06225 14.2035 0 14.379L0.69525 14.6483C0.777 14.4293 0.90225 14.1128 0.99975 13.875ZM5.39475 15.6878C5.40675 16.0275 5.4375 16.305 5.46525 16.5L6.19575 16.7738C6.141 16.524 6.08625 16.2428 6.04725 15.9375L5.39475 15.6878Z" fill="black"/>
</g>
<defs>
<clipPath id="clip0_201_58328">
<rect width="24" height="24" fill="white"/>
</clipPath>
</defs>
</svg>
