<svg width="24" height="24" viewBox="0 0 24 24" fill="none" xmlns="http://www.w3.org/2000/svg">
<g clip-path="url(#clip0_201_58142)">
<path d="M6.81605 15.129L11.52 17.844V12.4103L6.8123 9.69525V15.129H6.81605ZM4.7888 16.2967L11.52 20.1795V23.9993L1.4798 18.2062V6.6165L4.7888 8.52675V16.2967ZM12 6.14475L7.2968 8.86275L12 11.5778L16.7033 8.86275L12 6.14775V6.14475ZM12 3.81225L17.6603 7.0905L20.9693 5.18025L12 0L1.9733 5.78925L5.28155 7.695L12 3.81225ZM19.2068 16.2967V12.348L17.184 13.5157V15.129L12.48 17.8478V12.414L22.5203 6.621V18.207L12.48 24.0037V20.1877L19.2068 16.2967Z" fill="black"/>
</g>
<defs>
<clipPath id="clip0_201_58142">
<rect width="24" height="24" fill="white"/>
</clipPath>
</defs>
</svg>
