<svg width="24" height="24" viewBox="0 0 24 24" fill="none" xmlns="http://www.w3.org/2000/svg">
<g clip-path="url(#clip0_201_58210)">
<path d="M12.5895 3.10952C13.7767 3.18002 14.9407 3.49202 16.0035 4.02752C17.0347 4.54352 17.9527 5.25377 18.7102 6.12152C19.4602 6.98852 20.0302 7.97702 20.4247 9.08627C20.8155 10.1955 20.9715 11.3633 20.8897 12.5903C20.8545 13.2233 20.7532 13.8405 20.5852 14.4383C20.4172 15.024 20.1907 15.5948 19.9095 16.1415C19.4722 16.989 18.9795 17.79 18.441 18.552C17.9017 19.3095 17.316 20.0168 16.6792 20.6693C16.0387 21.3218 15.363 21.9233 14.6437 22.4738C13.9252 23.0168 13.1752 23.5088 12.39 23.9505L12.3547 23.9775C12.3195 23.9933 12.2842 24.0045 12.2452 24.0008C12.183 23.985 12.1282 23.9498 12.0847 23.9033C12.0457 23.8523 12.0225 23.79 12.0225 23.7315C12.0225 23.7 12.0262 23.673 12.0345 23.6453C12.0465 23.622 12.0577 23.6025 12.0735 23.583C12.351 23.1885 12.5775 22.7783 12.7612 22.3485C12.9412 21.915 13.062 21.462 13.1287 20.9888C13.1287 20.9573 13.113 20.9265 13.0897 20.9025C13.0702 20.8793 13.035 20.8635 13.0035 20.8635C12.7417 20.8988 12.4762 20.9183 12.2107 20.9258C11.9452 20.9378 11.6797 20.9258 11.4135 20.8905C10.2262 20.82 9.06222 20.5035 7.99572 19.9725C6.96447 19.4565 6.04647 18.7463 5.28897 17.8785C4.53522 17.0078 3.95322 16.0035 3.57447 14.9138C3.18372 13.7888 3.02397 12.6015 3.10947 11.4098C3.14472 10.7768 3.24597 10.1595 3.41772 9.56177C3.58947 8.96402 3.81222 8.40977 4.09347 7.88177C4.53072 7.01852 5.02347 6.20627 5.56197 5.44802C6.10047 4.68977 6.68697 3.98327 7.31997 3.32702C7.96047 2.67827 8.63622 2.07677 9.35547 1.53002C10.0747 0.983268 10.824 0.491268 11.6092 0.0495176L11.6445 0.0262676C11.6797 0.00676758 11.715 -0.000732422 11.754 -0.000732422C11.8207 0.0150176 11.8747 0.0502676 11.9145 0.0967676C11.9572 0.147768 11.9767 0.202518 11.9767 0.272268C11.9767 0.299268 11.973 0.327018 11.9647 0.354018C11.9572 0.377268 11.9415 0.396768 11.9257 0.416268C11.652 0.803268 11.4217 1.21727 11.238 1.65452C11.058 2.08802 10.941 2.53727 10.875 3.00977C10.875 3.04502 10.887 3.07202 10.9102 3.09602C10.9335 3.12002 10.965 3.13502 10.9965 3.13502C11.2582 3.09977 11.5237 3.08027 11.7892 3.07277C12.063 3.06527 12.3247 3.07652 12.5902 3.10802L12.5895 3.10952ZM11.781 15.4763C12.7027 15.5543 13.617 15.246 14.3002 14.6205C15.0232 13.9838 15.4095 13.1828 15.4762 12.222C15.5542 11.292 15.246 10.374 14.6205 9.68702C14.019 8.97977 13.1475 8.55452 12.222 8.52302C11.2965 8.44502 10.3785 8.75777 9.68697 9.37877C8.97972 9.98027 8.55447 10.8518 8.52297 11.781C8.44497 12.7065 8.75322 13.6208 9.37047 14.316C9.99522 15.039 10.8 15.429 11.781 15.4763Z" fill="black"/>
</g>
<defs>
<clipPath id="clip0_201_58210">
<rect width="24" height="24" fill="white"/>
</clipPath>
</defs>
</svg>
