<svg width="24" height="24" viewBox="0 0 24 24" fill="none" xmlns="http://www.w3.org/2000/svg">
<g clip-path="url(#clip0_201_58320)">
<path d="M14.3483 18.2032C17.2425 17.0744 18.9225 14.0429 18.348 10.9919C17.7728 7.93795 15.1088 5.7232 12 5.7187C8.89125 5.7187 6.219 7.93345 5.64525 10.9874C5.07 14.0467 6.7545 17.0774 9.6525 18.2024C10.1055 18.3974 10.6058 18.0697 10.6132 17.5814V12.1837C10.6132 11.4179 11.2343 10.7969 12 10.7969C12.7657 10.7969 13.3868 11.4179 13.3868 12.1837V17.5814C13.395 18.0697 13.8945 18.3944 14.3475 18.2024L14.3483 18.2032ZM15.156 23.7622C20.2537 22.3792 24 17.7194 24 12.1844C24 5.5552 18.6292 0.184448 12 0.184448C5.37075 0.184448 0 5.5552 0 12.1844C0 17.7194 3.74625 22.3792 8.844 23.7622C8.859 23.7704 8.87925 23.7734 8.895 23.7772L8.95275 23.7929V23.7892C10.7108 24.1484 11.3197 21.5594 9.5895 21.0944C5.12025 19.8877 2.23725 15.5594 2.84775 10.9694C3.45675 6.3832 7.371 2.95345 11.9955 2.95345C16.6245 2.95345 20.5387 6.37945 21.1478 10.9657C21.762 15.5557 18.879 19.8839 14.4135 21.0944C12.6795 21.5557 13.2923 24.1484 15.0465 23.7892H15.0502L15.108 23.7734L15.156 23.7622Z" fill="black"/>
</g>
<defs>
<clipPath id="clip0_201_58320">
<rect width="24" height="24" fill="white"/>
</clipPath>
</defs>
</svg>
