<svg width="24" height="24" viewBox="0 0 24 24" fill="none" xmlns="http://www.w3.org/2000/svg">
<g clip-path="url(#clip0_201_58576)">
<path d="M17.895 11.9258C17.895 11.391 18.0307 10.8668 18.2887 10.398L18.2805 10.4138C18.5227 9.94502 18.8977 9.56177 19.3545 9.30452L19.3702 9.30077C19.8352 9.04652 20.3625 8.91377 20.8942 8.91752H20.94C21.8347 8.91752 22.569 9.20627 23.1397 9.78827C23.7097 10.3665 23.9947 11.1015 23.9985 11.991C23.9985 12.8858 23.7097 13.6238 23.1315 14.2178C22.5532 14.808 21.8265 15.1005 20.9475 15.1005C20.3812 15.1005 19.8502 14.9633 19.3777 14.7218L19.3965 14.733C18.9247 14.499 18.5332 14.1278 18.2797 13.6628L18.276 13.6508C18.0217 13.179 17.8942 12.6038 17.8942 11.925L17.895 11.9258ZM19.488 12.012C19.488 12.6023 19.6252 13.0553 19.9057 13.359C20.4525 13.9883 21.4297 13.992 21.9727 13.359H21.9765C22.2495 13.0508 22.3867 12.594 22.3867 12.0038C22.3867 11.4098 22.2495 10.9688 21.9765 10.6598C21.4297 10.035 20.4562 10.0305 19.9095 10.6598H19.9057C19.629 10.9688 19.488 11.418 19.488 12.0075V12.012ZM17.8867 14.949H16.3275V11.9378C16.3275 11.301 16.2967 10.8908 16.2292 10.7025C16.167 10.5263 16.0545 10.3748 15.9015 10.2653H15.8977C15.7417 10.1633 15.5617 10.1085 15.3787 10.1085H15.3397C15.0697 10.1085 14.8155 10.1903 14.613 10.3358H14.6167C14.406 10.473 14.25 10.6718 14.172 10.9095V10.9178C14.0857 11.1638 14.0512 11.613 14.0512 12.2768V14.949H12.5002V9.02702H13.938V9.89477C14.457 9.23777 15.105 8.91377 15.891 8.91377H15.9097C16.2457 8.91377 16.566 8.97977 16.8585 9.10202L16.8435 9.09827C17.1015 9.20327 17.3197 9.36302 17.4877 9.57002L17.4915 9.57377C17.6325 9.76202 17.7375 9.97952 17.7967 10.2188V10.23C17.8545 10.5083 17.8867 10.8278 17.8867 11.1518V11.2808V14.949ZM6.41397 9.02702H8.06622L9.47997 13.23L10.8547 9.02702H12.465L10.398 14.7233L10.02 15.7583C9.91422 16.0433 9.78072 16.3125 9.61722 16.566L9.62922 16.551C9.51597 16.7228 9.37497 16.8713 9.20697 16.992L9.20322 16.9958C9.03147 17.109 8.83647 17.199 8.62497 17.2538L8.60922 17.2575C8.37897 17.3198 8.10897 17.3588 7.83597 17.3588H7.81197C7.50372 17.355 7.19922 17.3198 6.90222 17.2538L6.92997 17.2575L6.80097 16.0268C6.99597 16.074 7.22697 16.1018 7.46097 16.1048C7.82022 16.1048 8.09022 15.9998 8.26197 15.789C8.44497 15.5468 8.57772 15.273 8.65572 14.9798L8.65947 14.9648L6.41397 9.02702ZM-3.41798e-05 12.2888L1.59372 12.141C1.69047 12.6758 1.88697 13.0703 2.17947 13.32C2.46822 13.5743 2.86647 13.6988 3.37047 13.695C3.89772 13.695 4.29672 13.5863 4.56522 13.3628C4.83522 13.1408 4.96797 12.8745 4.96797 12.5775V12.5543C4.96797 12.3825 4.90872 12.2145 4.79997 12.081C4.68672 11.9483 4.49097 11.8313 4.20972 11.733C4.01847 11.6588 3.57672 11.5463 2.89647 11.37C2.01447 11.1548 1.40022 10.8863 1.04922 10.5653C0.572216 10.1595 0.299216 9.56102 0.299216 8.93702V8.90477C0.299216 8.47577 0.431966 8.07677 0.653966 7.74452L0.650216 7.75277C0.896216 7.38152 1.24422 7.09277 1.65447 6.92477L1.67022 6.92102C2.11122 6.73727 2.64297 6.63977 3.27147 6.63977C4.29147 6.63977 5.05722 6.86552 5.57622 7.31477C6.09222 7.77152 6.36147 8.37002 6.38547 9.12377L4.73622 9.17852C4.66197 8.76452 4.51797 8.46377 4.28322 8.27927C4.05297 8.09627 3.70497 8.00252 3.25197 8.00252C2.77497 8.00252 2.39997 8.10077 2.13522 8.30327C1.97097 8.41202 1.87347 8.59652 1.87347 8.79152V8.80352C1.87347 9.00677 1.96722 9.18227 2.11572 9.29552V9.29927C2.31897 9.47552 2.82297 9.65852 3.62397 9.84227C4.42122 10.029 5.01072 10.2285 5.39397 10.4325C5.76522 10.6313 6.06897 10.9125 6.28422 11.2605L6.29247 11.2688C6.50772 11.6115 6.61647 12.054 6.61647 12.573C6.61647 13.0613 6.47247 13.5188 6.22272 13.8968L6.22647 13.89C5.96472 14.3003 5.58972 14.6123 5.14422 14.7998L5.12847 14.8035C4.65147 14.9985 4.06122 15.1005 3.35472 15.1005C2.32797 15.1005 1.53447 14.8613 0.983966 14.3813C0.429716 13.896 0.104966 13.2015 -0.00378418 12.2873L-3.41798e-05 12.2888Z" fill="black"/>
</g>
<defs>
<clipPath id="clip0_201_58576">
<rect width="24" height="24" fill="white"/>
</clipPath>
</defs>
</svg>
