<svg width="24" height="24" viewBox="0 0 24 24" fill="none" xmlns="http://www.w3.org/2000/svg">
<g clip-path="url(#clip0_201_58072)">
<path d="M-0.00059859 11.6407C-0.00059859 4.94925 5.2374 0 11.9994 0C18.7614 0 23.9994 4.94925 23.9994 11.6407C23.9994 18.3285 18.7614 23.2815 11.9994 23.2815C10.7882 23.2815 9.6204 23.121 8.53065 22.8202C8.31615 22.7617 8.0889 22.7812 7.89015 22.8713L5.49915 23.922C4.8744 24.1995 4.16715 23.754 4.14765 23.0707L4.07715 20.9303C4.06965 20.6685 3.9519 20.4263 3.76065 20.2507C1.3269 18.0555 -0.0440986 14.919 -0.00134859 11.6415L-0.00059859 11.6407ZM8.3199 9.44925L4.80015 15.051C4.4484 15.5783 5.1204 16.1918 5.62065 15.801L9.40965 12.93C9.6714 12.7305 10.0112 12.7305 10.2804 12.93L13.0772 15.0315C13.9209 15.6607 15.1202 15.4297 15.6789 14.5507L19.1987 8.949C19.5504 8.42175 18.8784 7.82025 18.3782 8.199L14.5892 11.07C14.3394 11.2695 13.9877 11.2695 13.7297 11.07L10.9292 8.9685C10.0854 8.33175 8.8824 8.5545 8.3199 9.44925Z" fill="black"/>
</g>
<defs>
<clipPath id="clip0_201_58072">
<rect width="24" height="24" fill="white"/>
</clipPath>
</defs>
</svg>
