<svg width="24" height="24" viewBox="0 0 24 24" fill="none" xmlns="http://www.w3.org/2000/svg">
<path d="M20.9917 3H2.99998C1.89373 3 0.997485 3.89625 0.997485 5.0025V7.99875H2.99998V5.0025H20.9917V18.9975H13.9987V21H21C21.531 21 22.0402 20.7892 22.416 20.4135C22.7917 20.0378 23.0025 19.5285 23.0025 18.9975V5.0025C23.0025 4.4715 22.7917 3.96225 22.416 3.5865C22.0402 3.21075 21.531 3 21 3H20.9917ZM0.997485 17.9805V20.9767H3.99298C3.99298 20.1817 3.67723 19.4198 3.11548 18.858C2.55373 18.2962 1.79173 17.9805 0.996735 17.9805H0.997485ZM0.997485 13.983V15.9847C2.32348 15.9847 3.59473 16.5112 4.53223 17.4487C5.46973 18.3862 5.99623 19.6583 5.99623 20.9842V21H7.99873C8.00323 17.1383 4.87648 14.004 1.01398 13.9988H0.998235L0.997485 13.983ZM0.997485 9.9855V11.988C5.96623 11.9835 9.99748 16.0072 10.0012 20.976V20.9993H12.0037C11.982 14.931 7.06573 10.0177 0.997485 10.0005V9.9855Z" fill="black"/>
</svg>
