<svg width="24" height="24" viewBox="0 0 24 24" fill="none" xmlns="http://www.w3.org/2000/svg">
<g clip-path="url(#clip0_201_58456)">
<path d="M8.79828 7.2045C7.20453 7.2045 5.90628 8.409 5.90628 9.909C5.90628 11.3955 7.20453 12.6143 8.79828 12.6143C10.392 12.6143 11.6903 11.3955 11.6903 9.909C11.6903 8.409 10.392 7.2045 8.79828 7.2045ZM15.5205 7.2045C13.9268 7.2045 12.6278 8.409 12.6278 9.909C12.6278 11.3955 13.9268 12.6143 15.5205 12.6143C17.1278 12.6143 18.4125 11.3955 18.4125 9.909C18.417 8.409 17.1278 7.2045 15.5205 7.2045ZM22.8608 11.4233L22.5795 11.625V2.3295C22.5795 1.0455 21.6143 0 20.4233 0H3.59028C2.39928 0 1.43403 1.0455 1.43403 2.3295V11.625C1.34028 11.5597 1.23228 11.4893 1.13853 11.4233C0.430531 10.9268 -0.0382193 11.6108 0.388531 12.2528C1.24653 13.3125 2.87778 14.6108 5.37153 15.6278C2.73228 24.6143 11.8118 26.0483 11.6663 21.4447C11.6663 21.4118 11.6805 18.7913 11.6805 16.9163C11.9198 16.968 12.1215 17.0243 12.3225 17.0618C12.3225 18.9225 12.3368 21.4118 12.3368 21.4447C12.1913 26.0527 21.2715 24.618 18.6323 15.6322C21.1215 14.6153 22.7573 13.317 23.6153 12.2572C24.042 11.61 23.5733 10.9305 22.8608 11.4225V11.4233ZM21.4313 12.3232C18.2018 14.0767 15.417 13.7812 13.9035 13.716C12.792 13.674 12.375 14.1427 12.3233 14.883C11.841 14.5223 11.4518 14.1562 11.3723 14.0812C11.133 13.8285 10.7295 13.7063 10.1018 13.7205C8.61603 13.7723 5.89728 14.0678 2.72403 12.408V3.38925C2.72403 1.7535 3.14103 1.24725 4.62678 1.24725H19.5188C20.9393 1.24725 21.4358 1.85175 21.4358 3.38925V12.3232H21.4313Z" fill="black"/>
</g>
<defs>
<clipPath id="clip0_201_58456">
<rect width="24" height="24" fill="white"/>
</clipPath>
</defs>
</svg>
