<svg width="24" height="24" viewBox="0 0 24 24" fill="none" xmlns="http://www.w3.org/2000/svg">
<g clip-path="url(#clip0_201_57774)">
<path d="M11.9963 6.012C11.9963 6.012 10.3162 8.80125 9.516 10.1557C9.35925 10.215 9.34425 10.1947 9.17625 10.3627C8.766 9.891 8.277 10.32 8.148 10.5817C8.09025 10.0155 7.99575 10.0155 7.86675 9.8865C7.941 9.39075 8.184 8.5815 7.629 8.00325C6.55125 7.2765 5.301 9.054 4.605 9.98325L4.23 10.608C2.68425 10.5727 1.46925 10.6162 0 10.5847C1.78875 11.2567 1.863 11.2717 4.02675 12.093C4.02675 12.159 4.188 12.4642 4.3665 12.6442C4.51125 12.7965 4.6755 12.8782 4.7535 12.9292C4.64775 12.9832 4.43325 13.065 4.37025 13.1872C4.077 13.7332 4.5075 13.8585 4.788 14.292C5.10075 14.862 5.17125 15.237 5.913 14.9167C6.16725 14.808 6.47625 14.769 6.67125 14.7097C5.979 15.804 5.8005 16.101 4.58925 17.9827L4.60125 17.9865C9.4485 16.0927 9.573 16.0455 11.9722 15.0967C15.4215 16.4325 15.6203 16.5457 19.4055 17.9865C18.8783 17.1585 18.5152 16.6432 18.1327 15.9907C18.2805 15.9787 18.6127 15.9435 18.9097 15.7605C19.1205 15.6232 19.371 15.4717 19.5975 15.1867C20.0385 14.6197 20.1472 13.9087 19.9875 13.0185C19.9095 12.5962 19.7535 12.1867 19.7723 12.1702C21.8355 11.3895 22.077 11.307 23.9993 10.5802C21.69 10.6155 21.5775 10.5922 19.4093 10.596C19.3703 10.182 19.1632 9.97125 18.5265 9.99C18.2887 10.029 18.1365 10.1107 18.0262 10.4362C17.6715 9.77925 17.175 9.97125 16.968 10.2952C16.6898 10.014 16.05 9.92025 15.726 10.1272C15.4868 10.014 15.2138 10.014 14.9678 10.3035C14.796 10.1587 14.7368 10.1152 14.3535 9.96375C13.4678 8.46375 12.7327 7.269 11.9948 6.0105L11.9963 6.012ZM12.0082 6.81225C12.3593 7.3485 13.5623 9.426 13.8593 9.88725C13.5203 9.9105 13.191 10.0905 12.9412 10.449C12.723 10.227 12.4695 10.0042 12.0233 9.98775C11.4803 9.89475 11.1885 10.137 10.824 10.5547C10.7153 10.191 10.293 10.1047 9.92625 10.2727C10.254 9.7575 11.8012 7.152 12.0082 6.816V6.81225ZM7.449 9.129C7.398 10.5622 6.38325 11.8402 5.652 11.3707C5.10225 10.926 5.80125 9.789 6.24225 9.387C6.2115 9.69525 6.48825 9.88725 6.26625 10.1557C5.82 10.6987 5.99625 11.094 6.18825 11.1517C6.699 11.316 7.191 9.9255 7.191 8.95275C7.191 8.328 6.82425 8.34 6.105 9.09C5.121 10.1092 4.59375 11.1022 4.94475 11.7772C5.1405 12.1605 5.43 12.4305 5.90175 12.3712C6.828 12.2625 7.38675 11.1172 7.4445 10.3875C7.59375 10.3837 7.55475 10.3957 7.59375 10.3635C7.59375 10.4925 7.773 11.1217 7.9095 11.5312C8.09325 12.234 8.87475 13.641 6.54225 14.1885C6.10125 14.3017 5.9295 14.3362 5.4915 14.5087C5.28075 14.067 5.22975 13.9267 4.79625 13.497C5.382 13.29 5.39025 13.3132 5.769 13.1812C7.233 12.669 7.67475 12.231 7.62375 11.61C7.62375 11.61 7.644 11.2897 7.44 11.0212C7.37025 11.2515 7.272 11.466 7.14675 11.6655C6.7095 12.3495 5.85075 12.7672 5.085 12.5017C4.671 12.354 4.491 12.033 4.491 11.4855C4.491 10.7827 6.093 8.75175 6.87825 8.40375C7.43325 8.2395 7.4565 8.697 7.44825 9.1305L7.449 9.129ZM13.953 10.4302C14.211 10.434 14.496 10.5622 14.688 10.77C15.2812 11.406 15.2153 12.1837 14.8522 12.672C14.4142 13.254 13.3163 12.996 13.059 12.1837C12.9383 11.8087 13.152 10.8705 13.5353 10.5615C13.6523 10.4685 13.8015 10.4212 13.953 10.4295V10.4302ZM11.8403 10.4917C11.8792 10.4955 11.9183 10.5 11.9572 10.512C12.4613 10.539 12.5662 10.824 12.6562 11.07C12.8872 11.6947 12.828 12.2812 12.3555 12.762C11.6453 13.4797 10.8165 13.164 10.8202 12.195C10.836 11.5042 11.262 10.4797 11.8403 10.4962V10.4917ZM13.707 10.5307C13.3237 10.8195 13.2728 11.5545 13.629 11.8275C13.7663 11.9565 13.8442 12.0465 14.238 12.0855C14.5117 12.1087 14.9452 11.8312 14.9647 11.5582C14.9767 11.433 14.9527 11.2222 14.652 10.8862C14.4022 10.6042 14.0738 10.5382 13.992 10.5855C13.7273 10.7415 14.0122 10.8667 14.1173 10.9687C14.277 11.133 14.316 11.2027 14.2425 11.2537C14.1337 11.3235 13.9965 11.3437 13.8713 11.3085C13.7663 11.2612 13.4145 11.0617 13.707 10.5307ZM17.4653 10.5352C17.6333 10.797 17.6805 10.8525 17.8673 11.5005C18.1095 12.3405 18.414 12.6645 18.684 12.5122C19.4258 12.0945 18.8318 11.0355 18.57 10.5352C18.738 10.5352 18.7027 10.5435 18.855 10.539C18.9772 11.0122 18.9412 10.9297 19.266 12.3547C19.6477 14.0587 19.707 14.5155 18.7342 15.2805C18.2895 15.6322 17.6332 15.6472 17.07 15.6202L16.434 15.522C16.8713 15.237 16.977 14.9677 16.977 14.409C18.2542 14.9437 18.9338 14.538 19.203 13.8817C19.3358 13.5645 19.2892 13.1467 19.164 12.4087C19.1723 13.011 19.1602 13.1197 19.0823 13.4167C18.9225 14.0145 18.5355 14.1787 18.27 13.7565C18.168 13.5967 17.9258 13.0575 17.8478 12.4755C17.7728 11.8965 17.7188 11.0805 17.3475 10.7407C17.3902 10.659 17.4292 10.569 17.4645 10.5337L17.4653 10.5352ZM16.2188 10.5472C16.4767 10.6132 16.7887 10.7505 16.9605 11.0662C17.1908 11.5005 17.3475 11.7345 17.3355 12.5122C17.3197 13.344 16.9958 13.566 16.7767 13.5982C16.5 13.6372 16.0155 13.6335 15.7297 12C15.633 11.4607 15.4605 10.9447 15.2767 10.7767C15.3667 10.6635 15.375 10.68 15.4447 10.5697C15.5347 10.6717 15.6128 10.8435 15.7418 11.3475C15.945 12.1552 16.1287 12.3232 16.488 12.3667C17.0467 12.441 17.2657 11.5897 16.8053 10.977C16.7032 10.8442 16.4415 10.6717 16.3013 10.7422C16.3095 10.977 16.4145 10.902 16.4145 11.0595C16.3913 11.2462 16.3635 11.2777 16.3057 11.3797C16.161 11.325 16.095 11.3017 15.9697 11.091C15.813 10.7782 15.915 10.4887 16.2195 10.548L16.2188 10.5472ZM11.6213 10.6207C11.3595 10.8045 11.0273 11.4217 11.316 11.973C11.4608 12.1762 11.613 12.3442 11.9572 12.27C12.1995 12.219 12.6292 11.9302 12.6885 11.523C12.7387 11.172 12.2302 10.4917 11.9497 10.6522C11.622 10.836 11.8207 10.965 12.024 11.1645C12.2077 11.3445 12.075 11.4532 11.946 11.5042C11.6888 11.6092 11.544 11.508 11.478 11.301C11.415 11.0977 11.4698 10.9222 11.622 10.6207H11.6213ZM8.754 10.6837C8.81175 10.8547 8.85525 11.0857 8.973 11.3085C9 11.3317 9.105 11.3085 9.24225 11.1517C9.3285 11.0505 9.426 10.914 9.5985 10.6875C9.7035 10.7842 9.71175 10.8547 9.7425 10.9057C9.81225 11.0385 9.96525 11.0265 10.0162 11.016C10.1842 10.848 10.2113 10.7377 10.32 10.7227C10.3282 10.941 10.3403 11.0737 10.062 11.4015C9.93825 11.5425 9.74625 11.6085 9.56175 11.5732C9.441 11.538 9.363 11.4645 9.17175 11.3662C8.91375 11.4052 8.9835 11.6835 9.03075 11.913C9.14775 12.522 9.531 12.7687 9.8625 12.5887C9.9765 12.5257 9.9525 12.5257 10.1753 12.4365C10.1363 12.8227 10.1123 12.8962 10.1835 13.3305C9.64425 13.6312 9.2025 13.5802 9.08175 12.8227C8.99175 12.1935 8.82 11.4247 8.66775 11.2687C8.523 11.1195 8.46075 11.073 8.46075 11.073L8.754 10.6837ZM1.641 10.7662C2.39475 10.7775 3.24225 10.7775 4.14825 10.785C4.01625 11.1022 3.9735 11.3242 3.95325 11.637C3.531 11.4772 2.07825 10.953 1.641 10.7662ZM22.3627 10.7767C21.3667 11.1367 20.6475 11.4135 19.6875 11.781C19.5818 11.3317 19.5615 11.1907 19.4685 10.785C21.0697 10.7812 21.0975 10.785 22.3627 10.7767ZM15.387 12.816C15.492 13.2457 15.6412 13.4572 15.6412 13.4572C15.84 13.8052 16.0943 14.004 16.4805 14.1022C16.5623 14.238 16.5945 14.2665 16.6297 14.34C16.665 14.7967 16.638 14.8522 16.2817 15.1132C16.0747 15.3165 16.0665 15.609 16.2817 15.8835C16.5128 16.1025 16.755 16.1805 17.6565 15.9457C17.8282 16.2465 18.0742 16.599 18.4305 17.1645C17.2275 16.7077 15.5625 16.0597 12.0007 14.6722C12.0007 14.6722 7.833 16.293 5.59875 17.1645C6.53175 15.6915 6.60975 15.5662 7.2735 14.5357C7.50075 14.4457 7.42275 14.481 7.6215 14.3797C8.08275 14.1337 8.4495 13.7707 8.65275 13.2345C9.021 14.0625 9.4305 14.1607 10.2855 13.8915C10.4655 13.8097 10.6687 13.6882 10.7115 13.3717C11.1727 13.7857 12.1455 13.86 12.8527 12.9885C13.4655 13.7077 14.856 13.7737 15.3878 12.8167L15.387 12.816ZM17.5433 13.6837C17.5433 13.6837 17.5823 13.812 17.6055 13.8517C17.5088 13.8547 17.3955 13.8517 17.3955 13.8517C17.4495 13.8007 17.5005 13.7415 17.5433 13.68V13.6837Z" fill="black"/>
</g>
<defs>
<clipPath id="clip0_201_57774">
<rect width="24" height="24" fill="white"/>
</clipPath>
</defs>
</svg>
