<svg width="24" height="24" viewBox="0 0 24 24" fill="none" xmlns="http://www.w3.org/2000/svg">
<g clip-path="url(#clip0_201_58484)">
<path d="M11.9964 0.0119727C10.2077 0.0269727 8.54716 0.405723 7.02766 1.10472L7.03591 1.10172C10.6727 3.12897 13.9892 6.73347 15.9662 9.34347C16.3644 9.87822 16.7199 10.3477 17.0439 10.7767L17.0477 10.758C17.4617 9.02022 16.7349 5.51997 15.5319 3.42597C15.4149 3.22272 15.3287 3.04722 15.3452 3.03522H15.3489L15.3527 3.03147C15.4494 3.05547 16.3839 4.02372 16.7237 4.46547C17.3244 5.23047 17.5554 5.67672 17.8877 6.69147C18.7427 9.34047 19.3097 11.4922 19.7859 13.9417C20.0282 15.1725 20.4617 17.3985 20.5209 17.8245C20.5239 17.8837 20.5089 17.9535 20.5089 17.9692C20.4152 17.8792 20.3169 17.7892 20.2202 17.703C19.5752 17.1367 18.2942 16.2892 17.0364 15.5902C15.4667 14.7232 13.9194 13.977 10.4627 12.4305C7.30666 11.0167 5.85391 10.3447 4.71241 9.77022L3.68566 9.25797C3.80641 9.55872 3.93541 9.88272 4.08766 10.2622C4.08766 10.2622 6.01741 11.3445 6.25966 11.6722C6.25966 11.6722 8.57941 16.0395 9.61066 18.6255C10.3809 20.5747 11.2479 22.8915 11.7677 23.5312L11.8254 23.598C10.8024 23.3482 6.08341 21 6.08341 21C5.56366 16.602 4.11466 11.391 2.22841 6.06222C2.18566 5.97297 2.14216 5.88297 2.10316 5.78922C2.10316 5.77347 2.24341 5.90997 2.41141 6.09447C4.31341 8.12922 8.36866 9.98022 12.6774 10.7737C13.8414 10.9777 15.0287 11.052 16.2084 10.9965C15.9032 10.6057 15.5672 10.1767 15.2004 9.69522C11.7827 5.24247 8.42716 3.37122 5.41966 2.22747C5.34166 2.19972 5.26741 2.16447 5.18941 2.14122C3.08716 3.58197 1.50166 5.66022 0.669163 8.06997C0.219913 9.36297 -0.00658724 10.719 0.000912757 12.0862L0.00466276 12C0.0354128 17.016 3.13366 21.6127 8.05591 23.328C9.39166 23.793 10.7507 24.0082 12.0872 24L11.9972 23.9962C17.0169 23.9655 21.6144 20.8672 23.3289 15.945C23.7939 14.6092 24.0092 13.2457 23.9972 11.91V12C23.9619 6.98022 20.8682 2.38272 15.9422 0.671973C14.6492 0.218973 13.2864 -0.00827733 11.9109 -2.73287e-05L12.0009 0.00372267L11.9964 0.0119727ZM18.1292 6.12072C18.6602 6.63297 19.5084 7.62447 20.4654 8.18397C21.2544 9.17172 21.6842 10.1452 22.2152 10.812C21.9962 10.6252 21.1022 9.83997 21.1022 9.83997C21.1022 9.83997 19.7274 8.53497 18.9609 7.68822C18.6677 7.35897 18.6407 7.30947 18.4839 7.05897C18.4217 6.96072 18.2109 6.23397 18.1292 6.12522L18.1329 6.11697L18.1292 6.12072Z" fill="black"/>
</g>
<defs>
<clipPath id="clip0_201_58484">
<rect width="24" height="24" fill="white"/>
</clipPath>
</defs>
</svg>
