<svg width="24" height="24" viewBox="0 0 24 24" fill="none" xmlns="http://www.w3.org/2000/svg">
<g clip-path="url(#clip0_201_58640)">
<path d="M12 0C8.19078 0.02025 5.73003 2.57775 5.73003 6.44475C5.73003 9.645 7.81578 12.387 9.00828 16.5465C9.69153 18.9293 10.059 21.8475 10.2465 23.9993H13.7543C13.9455 21.8475 14.3093 18.9293 14.9925 16.5465C16.1843 12.3863 18.2708 9.64725 18.2708 6.44475C18.2708 2.57775 15.81 0.0195 12.0008 0L12 0ZM12.0203 9.852C10.4385 9.852 9.15228 8.56575 9.15228 6.984C9.15228 5.40225 10.4385 4.11675 12.0203 4.11675C13.605 4.11675 14.8913 5.39775 14.8913 6.984C14.8913 8.56575 13.605 9.852 12.0203 9.852Z" fill="black"/>
</g>
<defs>
<clipPath id="clip0_201_58640">
<rect width="24" height="24" fill="white"/>
</clipPath>
</defs>
</svg>
