<svg width="24" height="24" viewBox="0 0 24 24" fill="none" xmlns="http://www.w3.org/2000/svg">
<g clip-path="url(#clip0_201_57916)">
<path d="M11.8523 0L0.812256 4.02L2.37151 18.7192L11.8523 24L21.4493 18.7192L23.1915 3.9615L11.8523 0ZM11.9138 4.62075C12.8318 4.6245 13.7378 4.8195 14.5778 5.1945C13.6328 5.72925 12.7658 6.3825 11.988 7.1445C11.9453 7.12425 11.898 7.11225 11.8523 7.09725C11.7383 7.06125 11.6213 7.0425 11.5043 7.0425C11.4345 7.0425 11.3633 7.0545 11.2973 7.06125C10.9883 6.32325 10.7813 5.5425 10.68 4.74525C11.0663 4.671 11.457 4.62825 11.8523 4.6245C11.871 4.6245 11.8913 4.62075 11.9145 4.62075H11.9138ZM9.92175 4.93425C10.0388 5.7975 10.2728 6.6375 10.6125 7.4385C10.4018 7.6605 10.2848 7.9575 10.2848 8.26275C10.2848 8.48475 10.3478 8.70375 10.4648 8.89575C9.52651 10.1888 8.80875 11.6955 8.559 13.2037C8.55076 13.2585 8.54701 13.3125 8.53876 13.368C8.25751 13.4618 8.02276 13.653 7.88251 13.911C6.89776 13.575 5.99926 12.942 5.26951 11.8883C5.25376 11.7165 5.24551 11.544 5.24176 11.3722C5.24551 8.42325 7.14076 5.81325 9.92175 4.935V4.93425ZM15.4298 5.64525C16.5345 6.3405 17.4135 7.3485 17.961 8.54325C17.5823 9.4965 16.9103 10.434 16.0658 11.2703C15.8745 11.1525 15.6518 11.0865 15.4215 11.0865C15.1448 11.0865 14.8748 11.1847 14.6558 11.3558C14.1908 11.0048 13.746 10.6178 13.3358 10.1888C13.0035 9.84075 12.699 9.4575 12.414 9.06675C12.6053 8.853 12.7268 8.571 12.7268 8.26275C12.7268 8.052 12.6638 7.8525 12.5655 7.677C13.6245 6.669 14.6798 6.009 15.4298 5.646V5.64525ZM11.5043 7.62525C11.6295 7.629 11.7503 7.668 11.8523 7.7385C12.0315 7.8525 12.141 8.05125 12.1455 8.26275C12.1418 8.478 12.0315 8.673 11.8523 8.7855C11.7503 8.85975 11.6295 8.89875 11.5043 8.89875C11.1525 8.9025 10.8675 8.6175 10.8675 8.26275C10.8675 7.9065 11.1488 7.626 11.5043 7.626V7.62525ZM11.0618 9.39525C11.277 9.48 11.5118 9.504 11.7375 9.4575C11.7728 9.5085 11.8118 9.55575 11.8515 9.60525C12.1328 10.0005 12.4403 10.371 12.7725 10.7273C13.2188 11.1885 13.7025 11.6175 14.2185 12.0045C14.1878 12.1133 14.1638 12.2273 14.1638 12.3442C14.1638 12.4732 14.1878 12.6023 14.2298 12.723C13.566 13.1558 12.855 13.5037 12.1125 13.7662C12.0225 13.797 11.9378 13.8165 11.8515 13.8442C11.2418 14.031 10.6163 14.1413 9.9795 14.1765C9.89475 13.8285 9.64725 13.5435 9.3195 13.4025C9.32325 13.3793 9.32326 13.3553 9.33151 13.3282C9.55051 11.9963 10.2023 10.602 11.0618 9.39525ZM18.336 9.58575C18.4958 10.1678 18.5783 10.77 18.582 11.3708C18.582 12 18.492 12.6248 18.3203 13.227C17.7503 13.0658 17.1915 12.855 16.656 12.5978C16.7033 12.3585 16.6838 12.1088 16.59 11.8868C17.289 11.211 17.8748 10.4377 18.336 9.58575ZM15.4223 11.688C15.789 11.688 16.0785 11.9767 16.0785 12.3442C16.0785 12.7118 15.7898 13.0043 15.4223 13.0043C15.0555 13.0043 14.766 12.711 14.766 12.3442C14.766 11.9775 15.0548 11.688 15.4223 11.688ZM16.2623 13.2772C16.8405 13.5592 17.4413 13.7895 18.0623 13.965C17.0273 16.4797 14.6025 18.117 11.9145 18.1208C11.8913 18.1208 11.8718 18.1208 11.8523 18.117C11.8365 18.117 11.8245 18.117 11.8095 18.117C11.7233 18.0742 11.6415 18.039 11.5433 17.988C11.2305 17.8357 10.875 17.637 10.695 17.4877C10.059 16.9688 9.60225 16.2577 9.40201 15.4605C9.61275 15.3472 9.78076 15.1755 9.891 14.9647C10.5548 14.9407 11.211 14.8358 11.8523 14.6558C12.0233 14.613 12.195 14.559 12.363 14.5035C13.1843 14.2185 13.9688 13.8398 14.703 13.3748C14.91 13.5157 15.156 13.605 15.4223 13.605C15.7343 13.602 16.0313 13.4842 16.2623 13.2772ZM5.55526 13.395C6.18451 13.9883 6.94126 14.43 7.76625 14.691C7.85925 15.1207 8.1915 15.4613 8.62125 15.5618C8.81625 16.4018 9.24601 17.172 9.86325 17.781C7.80901 17.1128 6.20326 15.477 5.55151 13.395H5.55526ZM8.87926 13.8547C9.2115 13.8547 9.47701 14.121 9.47701 14.4525C9.47701 14.784 9.21075 15.0465 8.87926 15.0465C8.55151 15.0503 8.28151 14.7803 8.28525 14.4525C8.28151 14.1203 8.55151 13.8547 8.87926 13.8547Z" fill="black"/>
</g>
<defs>
<clipPath id="clip0_201_57916">
<rect width="24" height="24" fill="white"/>
</clipPath>
</defs>
</svg>
