<svg width="24" height="24" viewBox="0 0 24 24" fill="none" xmlns="http://www.w3.org/2000/svg">
<path d="M4.21877 0C2.47277 0 1.05827 1.41375 1.05827 3.156V15.7695C1.05827 17.5155 2.47202 18.93 4.21877 18.93H13.5863C13.5668 22.4963 8.75777 24 8.75777 24C8.75777 24 16.8945 23.961 18.0623 18.93H19.7813C21.5235 18.93 22.9373 17.5162 22.9373 15.7695V3.156C22.9373 1.41375 21.5235 0 19.7813 0L4.21877 0ZM8.74202 2.53125C8.81627 2.5155 8.87477 2.5275 8.91752 2.56275C9.25352 2.8635 8.36252 3.15675 8.43302 4.629C8.46452 5.27325 8.27252 5.7735 9.51152 5.7735C10.3358 5.7735 9.99227 5.03925 11.031 5.03925C11.6873 5.03925 11.8943 5.47275 11.9685 5.805C12.039 5.4765 12.2423 5.03925 12.8985 5.03925C13.9373 5.03925 13.5975 5.76975 14.4218 5.76975C15.66 5.76975 15.465 5.2695 15.4958 4.62525C15.57 3.15675 14.679 2.85975 15.015 2.56275C15.054 2.52375 15.1125 2.52 15.1868 2.54325C15.687 2.68425 16.7925 4.10175 16.8233 4.69575C16.8623 5.40675 16.8623 6.52425 15.8078 7.10625C16.9995 8.27025 17.1593 9.825 17.1593 9.825L15.1163 9.78975C15.1163 9.78975 14.6513 7.6725 12.1748 7.782C9.70202 7.88775 9.37802 8.3175 9.37802 10.938C9.37802 13.5555 10.5263 14.454 12.2843 14.52C15.0458 14.6295 14.796 13.0905 14.796 13.0905L13.503 13.161L12.7845 11.2238H17.1945C17.1945 13.341 16.2998 16.638 12.105 16.4227C7.91027 16.2075 6.97577 12.9068 6.94127 10.6845C6.92177 9.45825 7.12877 8.08275 8.14052 7.11C7.08977 6.528 7.10927 5.4105 7.10927 4.69575C7.10927 3.81675 8.23802 2.61 8.74577 2.52375L8.74202 2.53125Z" fill="black"/>
</svg>
