<svg width="24" height="24" viewBox="0 0 24 24" fill="none" xmlns="http://www.w3.org/2000/svg">
<g clip-path="url(#clip0_201_57470)">
<path d="M11.9813 0.375C18.6278 0.375 23.625 5.53575 23.625 12C23.625 18.8955 18.0705 23.625 11.9813 23.625C5.7 23.625 0.375 18.492 0.375 12C0.375 5.7705 5.283 0.375 11.9813 0.375ZM12.0187 2.4705C6.4785 2.4705 2.4705 7.05975 2.4705 12C2.4705 17.1472 6.7455 21.5062 12.0187 21.5062C16.8562 21.5062 21.525 17.7045 21.525 12C21.5295 6.66525 17.2972 2.4705 12.0187 2.4705ZM19.5983 12.2062L19.8278 12.3097V15.591C19.4902 15.7598 16.8563 16.8802 16.6733 16.941C16.3688 16.857 11.3438 14.7473 10.2375 14.307L7.2285 15.5543L4.2615 14.265V11.274L7.041 10.1115C7.008 10.0785 7.02225 10.3462 7.02225 6.8115L10.1768 5.4195L17.2972 8.36775V11.2552L19.5983 12.2062ZM16.2983 16.0267V13.974H16.2795V13.8892L10.9447 11.7098V13.8285L16.2795 16.0267V16.008L16.2983 16.0267ZM16.65 13.3267L18.5205 12.558L16.7955 11.8312L14.967 12.6L16.65 13.3267ZM19.1017 15.1125V13.0965L17.025 13.9688V16.0028L19.1017 15.1125Z" fill="black"/>
</g>
<defs>
<clipPath id="clip0_201_57470">
<rect width="24" height="24" fill="white"/>
</clipPath>
</defs>
</svg>
