<svg width="24" height="24" viewBox="0 0 24 24" fill="none" xmlns="http://www.w3.org/2000/svg">
<g clip-path="url(#clip0_201_58722)">
<path d="M21.2302 4.15572C19.5742 2.82372 17.4802 2.15997 15.3592 2.30097C11.5942 2.54322 9.03523 4.96122 7.99648 8.78097C6.71548 7.55472 6.10273 5.54322 5.90248 3.23772C4.88323 3.45297 4.24273 3.94047 3.66823 4.47672C4.11298 6.79272 5.47348 8.49147 6.93448 9.63672C4.37548 9.95247 0.94123 12.078 0.16048 14.5387C-0.34352 16.137 0.42223 17.9527 1.44523 19.059C2.68423 20.391 5.19523 21.0592 7.80148 20.8117C7.83673 21.1755 7.69573 21.348 7.74223 21.7185C11.8095 21.4132 14.9145 20.0737 17.781 17.8237C18.9022 16.9485 20.4412 15.789 21.5392 14.598C22.641 13.4062 23.8365 12.0202 23.9805 10.0777C24.1912 7.28847 22.7467 5.38647 21.2302 4.15572ZM19.797 15.0937C18.762 16.0935 17.5552 16.8907 16.4452 17.7697C15.195 15.7807 13.863 13.785 12.5595 11.8515C12.5745 14.4795 12.5625 17.2845 12.5985 19.8082C11.8162 20.19 10.8097 20.3662 9.85573 20.5695C7.91848 17.6557 5.88748 14.5815 3.89548 11.6632C4.58623 11.2185 5.52073 10.878 6.37123 10.5892C7.78948 12.6405 9.10198 14.8432 10.5435 16.9215C10.5622 13.8082 10.5315 10.2495 10.4805 7.00347C10.9965 6.88647 11.5087 6.74172 12.0082 6.56922C13.8202 9.28797 15.5625 12.1942 17.4735 14.9295C17.4382 11.6715 17.4307 8.41347 17.4532 5.15922C18.312 4.87797 19.2585 4.62447 20.121 4.35147C20.145 7.85172 19.785 11.4795 19.797 15.0937Z" fill="black"/>
</g>
<defs>
<clipPath id="clip0_201_58722">
<rect width="24" height="24" fill="white"/>
</clipPath>
</defs>
</svg>
