<svg width="24" height="24" viewBox="0 0 24 24" fill="none" xmlns="http://www.w3.org/2000/svg">
<path d="M2.12924 23.9963C7.62149 22.188 15.5865 17.9767 21.1252 14.2147C21.5902 13.8982 21.9532 13.605 21.9532 13.0935C21.9532 12.207 20.2972 11.0153 19.4962 10.539C15.1365 14.9963 6.46124 21.6758 2.12924 23.9963ZM7.22624 20.211C10.6132 17.9062 15.5347 13.5705 17.199 11.2148C17.5935 10.6597 17.8822 10.3395 17.8822 9.7575C17.8822 8.80425 16.7535 8.109 15.9405 7.62075C13.995 12.1327 9.62774 17.7458 7.22549 20.2103L7.22624 20.211ZM9.81674 16.6838C12.1605 13.7153 14.004 10.227 14.004 7.72275C14.004 6.414 13.0507 5.50425 11.8087 4.809C11.832 7.52775 10.875 13.9103 9.81674 16.6838ZM10.3125 13.8202C10.7497 10.9725 10.4925 7.53525 9.93374 5.379C9.62924 4.203 8.55449 2.87925 7.55849 2.46525C8.86349 6.1095 9.98399 11.2972 10.3125 13.821V13.8202ZM9.34799 9.82425C8.32049 7.098 5.76224 1.41 2.00024 0C4.44974 2.66025 8.08199 7.9335 9.34799 9.82425Z" fill="black"/>
</svg>
