<svg width="24" height="24" viewBox="0 0 24 24" fill="none" xmlns="http://www.w3.org/2000/svg">
<g clip-path="url(#clip0_201_57782)">
<path d="M15.8242 15.0705C17.184 15.0705 17.184 17.106 15.8242 17.106C14.469 17.106 14.469 15.0705 15.8242 15.0705ZM21.3285 1.10927C22.6837 1.10927 22.6837 3.14477 21.3285 3.14477C19.9687 3.14477 19.9687 1.10927 21.3285 1.10927ZM3.3202 3.10577H19.4377C19.8052 3.81302 20.5312 4.25777 21.3285 4.25777C22.5044 4.25777 23.4577 3.30452 23.4577 2.12852C23.4577 0.952518 22.5044 -0.000732422 21.3285 -0.000732422C20.4375 -0.000732422 19.6725 0.549768 19.356 1.32752H3.32095C1.7662 1.32752 0.543701 2.51102 0.543701 4.01927V21.1755C0.543701 22.707 1.8172 24 3.32095 24H20.4772C21.9892 24 23.2155 22.734 23.2155 21.1755V10.9958C23.2155 9.46427 21.9892 8.21852 20.4772 8.21852H10.3012C8.74645 8.21852 7.43395 9.49202 7.43395 10.9958V14.1953C7.43395 15.6795 8.71945 16.887 10.3012 16.887H13.8562C14.1802 17.6918 14.9617 18.2153 15.825 18.2153C17.001 18.2153 17.9542 17.262 17.9542 16.086C17.9542 14.91 17.001 13.9568 15.825 13.9568C15.0322 13.9568 14.3017 14.4023 13.938 15.1088H10.3012C9.7777 15.1088 9.21145 14.7608 9.21145 14.1945V10.995C9.21145 10.4715 9.7312 9.99527 10.3012 9.99527H20.4772C21.0165 9.99527 21.438 10.437 21.438 10.995V21.1748C21.438 21.741 20.9962 22.2218 20.4772 22.2218H3.32095C2.78995 22.2218 2.3212 21.7298 2.3212 21.1748V4.01852C2.3212 3.49877 2.7547 3.10802 3.32095 3.10802L3.3202 3.10577Z" fill="black"/>
</g>
<defs>
<clipPath id="clip0_201_57782">
<rect width="24" height="24" fill="white"/>
</clipPath>
</defs>
</svg>
