<svg width="24" height="24" viewBox="0 0 24 24" fill="none" xmlns="http://www.w3.org/2000/svg">
<g clip-path="url(#clip0_201_57828)">
<path d="M12.0037 0H12.0232C13.3357 0.00375 14.6287 0.32025 15.789 0.93C16.9492 0.33225 18.2302 0.024 19.5315 0.024H20.2072V24.0007L19.551 23.997C15.3675 24.0007 11.3557 22.3365 8.39849 19.3717C5.42999 16.4303 3.76949 12.4148 3.78899 8.23125V0.02025H4.46849C5.76899 0.02025 7.05449 0.333 8.21099 0.92625C9.38324 0.3165 10.6837 0.00075 12.0037 0.00075V0ZM12.0037 0.6525C10.6207 0.6525 9.32399 1.0275 8.21099 1.67625C7.07399 1.02 5.78099 0.6765 4.46849 0.6765H4.44524V8.23125C4.42199 16.5788 11.211 23.3212 19.5547 23.3445V0.6765H19.5315C18.219 0.6765 16.9297 1.02 15.789 1.67625C14.6445 1.008 13.3477 0.657 12.0232 0.6525H12.0037ZM15.2542 3.4065C17.043 3.41025 18.4927 4.86 18.4927 6.64875C18.489 8.442 17.0355 9.88725 15.2467 9.88725C14.6332 9.88725 14.028 9.71175 13.5082 9.3795L11.9925 10.887L10.485 9.37125C8.97299 10.3208 6.96899 9.86325 6.02024 8.352C5.06699 6.83625 5.52449 4.836 7.03949 3.8835C8.55899 2.934 10.5592 3.3915 11.508 4.90725C11.7817 5.3445 11.9497 5.841 11.9925 6.3525L12.0082 6.333L12.024 6.34875C12.1762 4.6845 13.5787 3.4035 15.2542 3.40725V3.4065ZM8.76149 8.78925C9.95324 8.79675 10.9215 7.8285 10.9297 6.6405C10.9297 6.4215 10.8982 6.20325 10.8322 5.99625C10.59 6.53925 9.94949 6.7815 9.40649 6.53925C8.85974 6.297 8.61749 5.6565 8.85974 5.1135C8.96924 4.87125 9.16424 4.67625 9.40649 4.56675C8.26949 4.21125 7.06274 4.84425 6.70349 5.9805C6.63674 6.1875 6.60599 6.40275 6.60224 6.621C6.60224 7.81275 7.56299 8.78475 8.75849 8.78925H8.76149ZM15.2385 8.80875C16.4302 8.8125 17.4022 7.848 17.4022 6.6525C17.406 5.46075 16.4415 4.4925 15.2497 4.48875C15.0307 4.48875 14.8162 4.52025 14.6092 4.5825C15.156 4.8285 15.3982 5.46525 15.156 6.012C14.9137 6.555 14.2732 6.79725 13.7302 6.555C13.4842 6.4455 13.2885 6.2505 13.1797 6.0045C12.8242 7.1415 13.461 8.35575 14.598 8.71125C14.8087 8.7735 15.0202 8.80875 15.2385 8.80875Z" fill="black"/>
</g>
<defs>
<clipPath id="clip0_201_57828">
<rect width="24" height="24" fill="white"/>
</clipPath>
</defs>
</svg>
