<svg width="24" height="24" viewBox="0 0 24 24" fill="none" xmlns="http://www.w3.org/2000/svg">
<g clip-path="url(#clip0_201_57740)">
<path d="M16.215 8.691L22.9298 7.01175C23.637 8.5695 24 10.2615 24 11.973C24 18.57 18.57 24 11.9692 24C11.664 24 11.3632 23.988 11.0625 23.9647L15.9653 15.6165C16.32 15.2415 16.6215 14.8155 16.848 14.3475C17.559 12.8437 17.5432 11.0933 16.8053 9.6015C16.641 9.27675 16.4415 8.97225 16.215 8.69025V8.691ZM12.9728 17.2658L10.8517 23.9445C4.73775 23.3438 0 18.1403 0 11.9767C0 9.594 0.711 7.2615 2.03925 5.277L6.8715 13.656C7.0515 14.1953 7.99275 16.2383 9.93825 16.9837C10.938 17.3625 11.9805 17.4645 12.9735 17.2658H12.9728ZM11.973 7.62075C9.969 7.641 8.094 9.1635 7.69125 11.133C7.40625 12.5977 7.87125 14.109 8.93025 15.1642C10.1452 16.3522 12.0705 16.7423 13.6642 16.0905C15.0705 15.5168 16.1332 14.1645 16.3552 12.6608C16.6252 10.806 15.5662 8.829 13.8593 8.03175C13.2705 7.75875 12.6255 7.61775 11.973 7.6215V7.62075ZM7.047 9.96075L2.25825 4.965C4.52325 1.848 8.145 0 11.9963 0C16.5592 0 20.742 2.59425 22.77 6.67575H12.5588C10.746 6.5505 9.27 7.19475 8.29275 8.1285C7.7535 8.6445 7.3275 9.26925 7.047 9.96075Z" fill="black"/>
</g>
<defs>
<clipPath id="clip0_201_57740">
<rect width="24" height="24" fill="white"/>
</clipPath>
</defs>
</svg>
