<svg width="24" height="24" viewBox="0 0 24 24" fill="none" xmlns="http://www.w3.org/2000/svg">
<path d="M20.934 5.46675L13.191 0.995996C12.8498 0.794996 12.4395 0.677246 12 0.677246C11.5605 0.677246 11.1503 0.795746 10.797 1.002L10.8083 0.995996L3.06527 5.46675C2.34902 5.8875 1.87577 6.65325 1.87427 7.52925V16.4707C1.87577 17.3467 2.35052 18.1125 3.05477 18.5272L3.06677 18.5332L10.8083 23.004C11.1495 23.2042 11.5613 23.3227 12.0008 23.3227C12.4388 23.3227 12.849 23.2042 13.2023 22.998L13.1918 23.004L20.9333 18.5332C21.6495 18.1125 22.1228 17.3467 22.1243 16.4707V7.52925C22.1228 6.65325 21.6495 5.8875 20.9445 5.47275L20.934 5.46675ZM20.5373 16.4707C20.5373 16.7625 20.379 17.0182 20.1428 17.1562L20.1398 17.1577L12.3968 21.6285C12.2828 21.6945 12.1463 21.735 11.9993 21.735C11.8523 21.735 11.7165 21.6952 11.598 21.6262L11.6018 21.6277L3.85877 17.157C3.61952 17.0175 3.46202 16.7617 3.46202 16.47V7.5285C3.46202 7.23675 3.62027 6.981 3.85652 6.843L3.85952 6.8415L11.6025 2.37075C11.7165 2.30325 11.853 2.2635 12 2.2635C12.147 2.2635 12.2828 2.30325 12.4013 2.3715L12.3968 2.37L20.1398 6.84075C20.379 6.9795 20.5365 7.236 20.5365 7.52775L20.5373 16.4707Z" fill="black"/>
<path d="M16.5705 14.5883H16.002C15.861 14.5883 15.7298 14.625 15.6158 14.6895L15.6203 14.6865L12.1898 16.5705L8.22828 14.2838V9.72226L12.1898 7.43401L15.6218 9.31201C15.7313 9.37351 15.864 9.41026 16.0028 9.41026H16.5713C16.791 9.41026 16.968 9.23101 16.968 9.01201V8.47501C16.968 8.32501 16.8855 8.19526 16.7648 8.12776L16.7618 8.12626L12.9533 6.04351C12.7335 5.92051 12.4695 5.84851 12.192 5.84851C11.8995 5.84851 11.625 5.92801 11.3895 6.06526L11.397 6.06076L7.43628 8.34751C6.95928 8.62876 6.64428 9.13876 6.64203 9.72301V14.2845C6.64203 14.8688 6.95853 15.3803 7.42878 15.6555L7.43553 15.66L11.3963 17.9468C11.625 18.0803 11.8988 18.1598 12.192 18.1598C12.4718 18.1598 12.7343 18.0863 12.9623 17.961L12.9533 17.9655L16.7633 15.8753C16.8878 15.807 16.9703 15.6765 16.9703 15.5265V14.9895C16.9703 14.7698 16.7918 14.5928 16.5735 14.5928L16.5705 14.5883Z" fill="black"/>
</svg>
