<svg width="24" height="24" viewBox="0 0 24 24" fill="none" xmlns="http://www.w3.org/2000/svg">
<path d="M12.1372 24C14.0122 24 21.4492 15.5618 21.4492 9.90225C21.4492 4.488 17.2192 0 12.1372 0C6.78148 0 2.55148 4.488 2.55148 9.90225C2.55148 15.5595 9.98848 24 12.1372 24ZM10.641 3.84825C11.1247 3.7275 11.6332 3.66 12.1642 3.66C15.1642 3.66 17.742 6.21075 17.742 9.52725C17.742 12.5122 15.1642 15.0623 12.1477 15.0623C8.80498 15.0623 6.22273 12.5122 6.22273 9.52725C6.22273 8.12925 6.67198 6.88725 7.45273 5.895V5.92575C7.45273 7.1715 8.45698 8.16 9.70273 8.16C10.9485 8.16 12 7.14075 12 5.895C12 4.977 11.4412 4.188 10.641 3.84375V3.84825Z" fill="black"/>
</svg>
