<svg width="24" height="24" viewBox="0 0 24 24" fill="none" xmlns="http://www.w3.org/2000/svg">
<path d="M12 9.85947C10.8202 9.85947 9.8595 10.8202 9.8595 12C9.8595 13.1797 10.8202 14.1405 12 14.1405C13.1798 14.1405 14.1405 13.1797 14.1405 12C14.1405 10.8202 13.1798 9.85947 12 9.85947ZM6.0075 16.254L5.535 16.137C2.019 15.246 0 13.7385 0 11.9962C0 10.254 2.01975 8.74647 5.535 7.85547L6.0075 7.73847L6.14025 8.20722C6.49575 9.43347 6.9525 10.629 7.50375 11.7855L7.605 11.9962L7.50375 12.2107C6.95325 13.3627 6.49575 14.5582 6.14025 15.789L6.0075 16.254ZM5.31675 8.94897C2.6445 9.69897 1.00425 10.851 1.00425 11.9962C1.00425 13.1415 2.64525 14.289 5.31675 15.0435C5.64525 14.0002 6.03975 12.9847 6.50025 11.9962C6.039 11.0077 5.6445 9.99222 5.31675 8.94897ZM17.9925 16.254L17.8597 15.7852C17.5042 14.559 17.0475 13.3635 16.4963 12.2107L16.395 11.9962L16.4963 11.7817C17.0468 10.6297 17.5042 9.43422 17.8597 8.20346L17.9925 7.73847L18.465 7.85547C21.981 8.74647 24 10.254 24 11.9962C24 13.7385 21.9803 15.246 18.465 16.137L17.9925 16.254ZM17.4998 11.9962C17.9805 13.035 18.3787 14.055 18.6833 15.0435C21.3592 14.2897 22.9958 13.1415 22.9958 11.9962C22.9958 10.851 21.3547 9.70347 18.6833 8.94897C18.3547 9.98772 17.9603 11.0077 17.4998 11.9962ZM5.3085 8.94522L5.17575 8.47647C4.18725 4.99197 4.488 2.49221 6 1.62071C7.48425 0.764964 9.86325 1.77671 12.3593 4.33946L12.699 4.68746L12.3593 5.03547C11.4727 5.95722 10.6643 6.94947 9.9375 8.00397L9.801 8.19522L9.56625 8.21472C8.289 8.31597 7.023 8.51922 5.781 8.82447L5.3085 8.94522ZM7.20675 2.31671C6.9375 2.31671 6.699 2.37146 6.4995 2.48846C5.50725 3.06296 5.33175 5.05497 6.015 7.74222C7.0815 7.50372 8.15925 7.33572 9.24975 7.23821C9.8745 6.34722 10.5623 5.49597 11.3003 4.69497C9.74175 3.17546 8.265 2.31596 7.20675 2.31596V2.31671ZM16.797 22.6755C16.7932 22.6755 16.7932 22.6755 16.797 22.6755C15.3713 22.6755 13.539 21.6052 11.6407 19.6522L11.301 19.3042L11.6407 18.9562C12.5273 18.0345 13.3357 17.0422 14.0625 15.9877L14.1952 15.7965L14.43 15.7732C15.7072 15.6757 16.9732 15.4725 18.219 15.1635L18.6915 15.0465L18.8243 15.5152C19.8127 18.9997 19.512 21.4957 18 22.3665C17.6325 22.5772 17.2185 22.683 16.797 22.6747V22.6755ZM12.699 19.2967C14.2575 20.8162 15.7342 21.6757 16.7925 21.6757H16.7962C17.0618 21.6757 17.3003 21.6172 17.4998 21.504C18.492 20.9295 18.672 18.9375 17.9842 16.2502C16.9177 16.4887 15.8355 16.6567 14.7495 16.7505C14.1248 17.6452 13.437 18.4927 12.699 19.2975V19.2967ZM18.6915 8.94522L18.219 8.82447C16.9732 8.51997 15.7072 8.31672 14.43 8.21472L14.1952 8.19522L14.0625 8.00397C13.3357 6.94947 12.5273 5.95722 11.6407 5.03547L11.301 4.68746L11.6407 4.33946C14.1368 1.77671 16.5158 0.764964 18 1.62071C19.512 2.49146 19.8127 4.99197 18.8243 8.47647L18.6915 8.94522ZM14.7502 7.23821C15.891 7.34397 16.977 7.51197 17.985 7.74222C18.6728 5.05497 18.4928 3.06221 17.5005 2.48846C16.512 1.91846 14.6528 2.79296 12.6998 4.69572C13.4378 5.50046 14.1217 6.34797 14.7502 7.23897V7.23821ZM7.20675 22.6755C6.7845 22.683 6.36675 22.578 6 22.3672C4.488 21.4965 4.18725 18.9997 5.17575 15.516L5.3085 15.0472L5.781 15.1642C6.9375 15.4575 8.211 15.66 9.56625 15.774L9.801 15.7972L9.93375 15.9885C10.6605 17.043 11.469 18.0352 12.3555 18.957L12.6952 19.305L12.3555 19.653C10.461 21.606 8.62875 22.6762 7.20675 22.6762V22.6755ZM6.01575 16.2502C5.328 18.9375 5.508 20.9302 6.50025 21.504C7.48875 22.0665 9.34425 21.1995 11.301 19.2967C10.563 18.492 9.87525 17.6445 9.2505 16.7497C8.16075 16.656 7.08225 16.488 6.01575 16.2495V16.2502ZM12 16.8787C11.1757 16.8787 10.332 16.8435 9.4845 16.773L9.24975 16.7535L9.11325 16.5585C8.637 15.8707 8.18325 15.1642 7.7655 14.4375C7.34325 13.7107 6.957 12.969 6.59775 12.2107L6.4965 11.9962L6.59775 11.7817C6.957 11.0242 7.344 10.2817 7.7655 9.55497C8.1795 8.84022 8.6325 8.12546 9.11325 7.43397L9.24975 7.23897L9.4845 7.21947C11.16 7.07847 12.8438 7.07847 14.5155 7.21947L14.7502 7.23897L14.8868 7.43397C15.8438 8.80871 16.6875 10.266 17.4022 11.7817L17.5035 11.9962L17.4022 12.2107C16.6875 13.7265 15.8475 15.1837 14.8868 16.5585L14.7502 16.7535L14.5155 16.773C13.6718 16.8435 12.8243 16.8787 12 16.8787ZM9.80475 15.7927C11.2815 15.906 12.7185 15.906 14.199 15.7927C15.0232 14.586 15.7575 13.3162 16.3942 11.9955C15.7612 10.6755 15.027 9.40571 14.1952 8.19822C12.7343 8.08497 11.2657 8.08497 9.80475 8.19822C8.973 9.40497 8.238 10.6747 7.60575 11.9955C8.2425 13.3155 8.97675 14.5852 9.80475 15.7927Z" fill="black"/>
</svg>
