<svg width="24" height="24" viewBox="0 0 24 24" fill="none" xmlns="http://www.w3.org/2000/svg">
<g clip-path="url(#clip0_201_58586)">
<path d="M22.5975 24H1.40625C0.62925 23.9963 0.00375 23.3708 0 22.5938V1.40625C0.00375 0.62925 0.62925 0.00375 1.40625 0H22.5975C23.3707 0.00375 24 0.62925 24.0037 1.40625V22.5938C24 23.3708 23.3707 23.9963 22.5975 24ZM11.91 2.10975C6.50775 2.157 2.148 6.59025 2.109 12.0007C2.07 17.5087 6.48825 21.8835 12 21.8918C17.4142 21.8918 21.7972 17.3918 21.891 12.0007C21.9847 6.42675 17.4847 2.0595 11.9107 2.10975H11.91ZM9.64875 8.6325L8.76225 10.7925H15.3015L14.4105 8.6325L21.0548 11.9955L14.4105 15.363L15.3015 13.203H8.76225L9.645 15.363L2.985 11.9955L9.64875 8.6325Z" fill="black"/>
</g>
<defs>
<clipPath id="clip0_201_58586">
<rect width="24" height="24" fill="white"/>
</clipPath>
</defs>
</svg>
