<svg width="24" height="24" viewBox="0 0 24 24" fill="none" xmlns="http://www.w3.org/2000/svg">
<g clip-path="url(#clip0_201_57888)">
<path d="M0.996 0C0.4455 0 0 0.4455 0 0.996V12C0 18.6292 5.37075 24 12 24C18.6292 24 24 18.6292 24 12C24 5.37075 18.6292 0 12 0H0.996ZM12.1642 3.582C16.7655 3.62475 20.4615 7.3905 20.4217 11.9925C20.3745 16.5938 16.6095 20.2852 12.0112 20.2425C7.413 20.1997 3.714 16.434 3.7575 11.8365C3.80025 7.23525 7.566 3.53925 12.1635 3.58275L12.1642 3.582ZM12.1365 5.8515C8.76525 5.8245 6.01125 8.53125 5.9805 11.8988C5.949 15.27 8.6565 18.0278 12.0315 18.063C13.6485 18.075 15.207 17.4457 16.3597 16.3132C17.5163 15.1807 18.1725 13.6335 18.1838 12.0165C18.2153 8.64525 15.5115 5.8875 12.1448 5.85225L12.1365 5.8515ZM12.1132 8.8635C13.8202 8.883 15.1912 10.2817 15.18 11.9887C15.1642 13.6957 13.7663 15.0667 12.0592 15.0472C7.938 15.0083 7.99275 8.82825 12.114 8.8635H12.1132Z" fill="black"/>
</g>
<defs>
<clipPath id="clip0_201_57888">
<rect width="24" height="24" fill="white"/>
</clipPath>
</defs>
</svg>
