<svg width="24" height="24" viewBox="0 0 24 24" fill="none" xmlns="http://www.w3.org/2000/svg">
<g clip-path="url(#clip0_201_58736)">
<path d="M17.9025 6.26179C17.1757 6.24604 16.5742 6.82429 16.5585 7.55479V7.57054C16.5705 8.30479 17.172 8.88679 17.9025 8.87929C18.6877 8.87929 19.3087 8.29729 19.3087 7.57054C19.3087 6.84004 18.6877 6.26179 17.9025 6.26179ZM22.6132 6.26179C21.867 6.26179 21.2535 6.84004 21.2535 7.57054C21.2535 8.28154 21.867 8.87929 22.6132 8.87929C23.3827 8.87929 24 8.29729 24 7.57054C24 6.84004 23.3827 6.26179 22.6132 6.26179ZM7.77374 6.80479C7.02749 6.80479 6.52349 7.17979 6.26174 8.01979C6.01949 8.87554 4.46474 14.8403 4.46474 14.8403L2.42924 6.89854H-0.000762939C-0.000762939 6.89854 2.33549 15.3593 2.65124 16.3515C2.89349 17.1173 3.49124 17.7383 4.35074 17.7383C5.35874 17.7383 5.83124 17.0078 6.03449 16.3515C6.26099 15.6758 7.77299 10.0935 7.77299 10.0935C7.77299 10.0935 9.28874 15.6795 9.49199 16.3515C9.71849 17.0078 10.1835 17.7383 11.1757 17.7383C12.0547 17.7383 12.633 17.1173 12.8947 16.3515C13.2112 15.363 15.5512 6.89854 15.5512 6.89854H13.1017L11.082 14.8403C11.082 14.8403 9.53099 8.87554 9.26924 8.01979C9.02699 7.17604 8.49974 6.80479 7.77299 6.80479H7.77374ZM16.7812 10.1678V17.6603H19.1055V10.1678H16.7812ZM21.4762 10.1678V17.6603H23.793V10.1678H21.4762Z" fill="black"/>
</g>
<defs>
<clipPath id="clip0_201_58736">
<rect width="24" height="24" fill="white"/>
</clipPath>
</defs>
</svg>
