<svg width="24" height="24" viewBox="0 0 24 24" fill="none" xmlns="http://www.w3.org/2000/svg">
<g clip-path="url(#clip0_201_57812)">
<path d="M6.65621 19.629L3.35171 22.926L0.043457 19.629H6.65621ZM11.4885 12.1095C10.8007 11.2853 10.836 10.8435 11.262 10.4183C11.7817 9.89853 12.309 10.1138 12.8985 10.692L11.4885 12.1095ZM18.57 3.11328C19.0897 2.59728 19.617 2.80878 20.2065 3.39078L18.7965 4.80078C18.105 3.98028 18.1402 3.54303 18.57 3.11328ZM22.8397 4.55478C22.1992 5.51553 21.0975 7.07403 19.9102 5.89878L22.8832 2.93028C22.6177 2.64528 22.4107 2.40303 22.2697 2.25453C20.6565 0.653282 18.852 0.633782 17.4375 2.04003C16.4925 2.98128 16.2457 4.05978 16.5232 5.09103L15.6052 4.02453C14.7187 4.61028 14.4727 5.80203 15.0502 6.69678L13.9837 5.81028L12.5542 7.21653L14.4607 9.12303C12.9877 7.95528 11.4097 8.06853 10.1212 9.34203C8.75771 10.7018 8.85146 12.354 9.87521 13.713L9.66821 13.506C8.32046 12.1583 6.85571 12.6353 6.12896 13.3613C5.56646 13.9238 5.21471 14.6895 5.36696 15.2288L2.44871 12.3068L0.890207 13.8653L6.65621 19.6313H9.74996L7.67171 17.5418C6.57821 16.4325 6.56246 15.8468 7.09346 15.3188C7.62071 14.7878 8.19521 15.1238 9.24221 16.1663L11.2972 18.2168L12.8595 16.674L10.9102 14.7285C12.3127 15.7913 13.9965 15.8498 15.4882 14.3498L15.5152 14.3228C16.0387 13.866 16.4452 13.2878 16.7025 12.6428L15.5347 11.8613C14.8905 12.8183 13.7767 14.385 12.6052 13.2248L15.582 10.248L17.4375 12.0878L19.0545 10.4708L16.734 8.15028C15.6517 7.06803 16.2922 6.05253 16.734 5.66553C16.9642 6.14178 17.2732 6.57153 17.652 6.93903C19.152 8.44278 21.0892 8.74353 22.7962 7.04478L22.8232 7.01778C23.3467 6.56103 23.7532 5.98278 24.0105 5.33778L22.8397 4.55478Z" fill="black"/>
</g>
<defs>
<clipPath id="clip0_201_57812">
<rect width="24" height="24" fill="white"/>
</clipPath>
</defs>
</svg>
