<svg width="24" height="24" viewBox="0 0 24 24" fill="none" xmlns="http://www.w3.org/2000/svg">
<g clip-path="url(#clip0_201_57270)">
<path d="M16.4333 8.07002L16.4295 8.01902L16.3433 8.02652L16.3507 8.07752L16.4333 8.07002ZM16.9958 9.42602V9.45302L17.0543 9.44552C17.0543 9.41852 17.0618 9.39077 17.0737 9.36377L17.07 9.31277C17.043 9.31652 17.019 9.35177 16.9958 9.42602ZM14.805 11.1248C14.8012 11.0775 14.649 10.89 14.3558 10.5623C14.352 10.5038 14.4495 10.41 14.6603 10.293L15.2543 9.77327C15.387 9.60527 15.465 9.33152 15.489 8.94902L15.4815 8.86277C15.4583 8.60102 15.267 8.39027 14.907 8.22602C14.6925 8.08127 14.3092 8.00327 13.755 7.98752C13.2937 8.02652 12.6968 8.19077 11.958 8.47952C11.7353 8.64002 11.505 8.78402 11.2665 8.91677L11.2703 8.96402C11.2935 8.95652 11.3175 8.94827 11.3407 8.93252C11.3678 8.92877 11.388 8.94002 11.388 8.97152L11.4352 8.94827L11.4548 8.94452V8.96777C11.4585 8.98727 11.2987 9.11627 10.974 9.34277L10.9972 9.38552L10.9777 9.38927L10.923 9.36977C10.9268 9.38552 10.9035 9.39677 10.8563 9.39677L10.86 9.42002L10.911 9.48227C10.8878 9.48227 10.86 9.47477 10.8368 9.46652C10.7505 9.47852 10.6725 9.52127 10.6178 9.58352L10.6447 9.45452C10.7542 8.98577 10.8285 8.57177 10.8675 8.21252L10.8637 8.18927C10.782 8.13452 10.7078 8.06852 10.6493 7.98977C10.6493 7.95827 10.6493 7.92302 10.6493 7.89227L10.6455 7.87277L10.6222 7.88027C10.3875 8.23202 9.9345 8.83352 9.267 9.68102C8.7555 10.2863 8.49375 10.6223 8.478 10.6928C8.26725 10.9073 8.16975 11.0363 8.181 11.0835C8.1225 11.115 8.103 11.1503 8.1105 11.193C8.09475 11.193 8.0835 11.1893 8.079 11.1735C7.989 11.3183 7.84875 11.4158 7.6845 11.451L7.497 11.4938C7.47375 11.4975 7.46175 11.517 7.46175 11.5485L7.46925 11.568L7.536 11.5523L7.53975 11.5718L7.38375 11.634L7.10625 11.6963L6.9615 11.7083C6.942 11.7278 7.0785 11.7045 7.02375 11.7158L6.84375 11.7585C6.7305 11.7855 6.672 11.7743 6.66 11.7315L6.6405 11.7353C6.64425 11.7548 6.64425 11.7705 6.6405 11.7825L6.633 11.7398L6.4845 11.7713C6.477 11.7045 6.2775 11.4585 5.895 11.037C5.8875 10.9553 6.024 10.8375 6.297 10.6815L7.0785 9.99377C7.25025 9.77102 7.356 9.41177 7.38675 8.91977L7.37925 8.80277C7.34775 8.45477 7.09425 8.17352 6.62175 7.95902C6.3405 7.76777 5.8365 7.66577 5.106 7.65077C4.50075 7.70177 3.71175 7.91627 2.739 8.29127C2.44575 8.50202 2.14125 8.69327 1.8285 8.86577L1.83225 8.92802C1.86375 8.92052 1.8945 8.90852 1.92225 8.89277C1.96125 8.88902 1.9845 8.90477 1.989 8.94377L2.0475 8.90852L2.079 8.90477V8.93627C2.08275 8.96327 1.86825 9.12752 1.44225 9.43202L1.4775 9.48302L1.446 9.48677L1.37925 9.46352C1.383 9.48302 1.35225 9.49502 1.28925 9.49877L1.293 9.53027L1.3635 9.60827C1.32825 9.60827 1.29675 9.60452 1.266 9.58877C1.1295 9.60452 0.99225 9.70202 0.8595 9.88952L0.89475 9.94427C1.008 9.83852 1.0785 9.78377 1.098 9.78002L1.10175 9.87002C1.07025 9.87377 1.0395 9.88952 1.01175 9.90527L1.086 10.0148C1.2225 9.86627 1.37925 9.73352 1.551 9.62402C1.63275 9.64727 1.68 9.67502 1.68 9.70202L1.74225 9.69827C2.2035 9.35852 2.6565 9.11252 3.10575 8.96027L3.1095 9.02252C3.02775 9.14777 2.973 9.21002 2.9415 9.21377C2.94525 9.25652 2.95725 9.29177 2.98425 9.32327C2.99175 9.40127 2.78475 9.91727 2.37075 10.8705C1.43325 13.089 0.64425 14.7263 0 15.7845C0.00375 15.8078 0.01575 15.8355 0.039 15.8708C0.195 15.8355 0.297 15.7965 0.33975 15.7575L0.37125 15.7538L0.37875 15.816L0.43725 15.8085L0.49575 15.777C0.49575 15.7928 0.519 15.804 0.558 15.8003L0.56175 15.8588C0.56925 15.9173 0.53475 16.0073 0.46425 16.128C0.3975 16.2023 0.3315 16.3545 0.25725 16.5893L0.261 16.6163L0.3195 16.6125C0.57375 16.3238 0.76875 16.0463 0.9015 15.7725C1.64775 15.5498 2.21775 15.3353 2.61225 15.1238C3.00675 15.0923 3.31125 14.9873 3.51825 14.811L3.5145 14.7795L3.36225 14.8268L3.33075 14.8305L3.327 14.7953C3.61575 14.7525 3.819 14.6895 3.9285 14.6003C4.4985 14.163 4.9245 13.854 5.21775 13.6703C5.81175 13.233 6.198 12.807 6.378 12.3893L6.4755 12.366C6.55725 12.366 6.6045 12.3623 6.6165 12.3585C6.61275 12.3428 6.62025 12.3353 6.63975 12.3315C6.7725 12.3158 6.7065 12.339 6.792 12.3195L7.01475 12.2685C7.00275 12.2723 6.99525 12.2805 6.999 12.2918L7.03425 12.2723C7.02675 12.2723 7.02225 12.2685 7.01475 12.2685L7.05375 12.261L7.03425 12.2685C7.06125 12.2723 7.089 12.2723 7.116 12.2648L7.13175 12.3315L6.1125 13.9523L5.88975 14.2335L5.7765 14.6048L5.79975 14.5973L5.90925 14.5545L5.874 14.6955L5.886 14.7383L5.913 14.7773C5.901 14.781 5.8935 14.7893 5.89725 14.8043L5.90475 14.8275L5.9475 14.82C6.018 14.7578 6.045 14.7068 6.03375 14.6558C6.08475 14.6678 6.13125 14.6715 6.18225 14.6678L6.186 14.691C6.14325 14.703 6.11925 14.7383 6.1155 14.8005L6.11925 14.82L6.1425 14.8163C6.51375 14.4143 7.41975 13.0313 8.15025 12.0938C8.127 11.9925 8.50575 11.8515 9.28725 11.6715L9.3105 11.664C9.342 11.7893 9.279 12.0855 9.1305 12.5543C9.033 12.8393 8.98575 12.996 8.994 13.023C8.86875 13.4018 8.81025 13.605 8.8185 13.6365L8.541 14.547C8.361 15.012 8.2245 15.5003 8.13075 16.0155C8.154 16.0155 8.18175 16.0155 8.205 16.023L8.244 15.9878C8.24775 16.0073 8.25975 16.011 8.2755 16.0073L8.25975 15.9405L8.3805 15.9368C8.41575 15.9293 8.44725 15.8858 8.4705 15.804C8.46675 15.6788 8.49 15.6128 8.54475 15.6008C8.619 15.3075 8.6655 15.1635 8.68125 15.1553C8.75175 14.8665 8.802 14.7023 8.83725 14.6595C8.943 14.2845 9.01725 14.0895 9.0675 14.0775L9.075 14.1248L9.00075 14.3198C8.868 14.9138 8.7315 15.3825 8.59425 15.726L8.63325 15.894L8.66025 15.8903C8.98875 15.1793 9.465 13.7693 10.086 11.664C10.1018 11.4885 10.1993 11.328 10.3515 11.2343L10.3162 11.1953L10.3125 11.1758C10.383 11.16 10.4333 11.133 10.461 11.094C10.4572 11.0783 10.3942 11.055 10.2735 11.0235L10.5863 9.69527C10.6178 9.66002 10.6567 9.62852 10.7032 9.60527L10.707 9.67202C10.6838 9.67577 10.6597 9.68777 10.6365 9.69902L10.695 9.78527C10.8045 9.67202 10.9178 9.57077 11.0468 9.48452C11.109 9.50402 11.1405 9.52727 11.1442 9.54677L11.1915 9.54302C11.5042 9.30452 11.8553 9.11702 12.2265 8.98802L12.2302 9.03077C12.1717 9.12827 12.129 9.17552 12.105 9.17552C12.105 9.20702 12.117 9.23402 12.132 9.26177C12.1358 9.32027 11.9835 9.71102 11.6707 10.4378C10.956 12.1178 10.3582 13.3635 9.87 14.1683C9.87375 14.1915 9.88575 14.2155 9.9015 14.235C10.0223 14.208 10.0965 14.1765 10.128 14.1488L10.1475 14.145L10.1512 14.1923L10.2022 14.1885L10.2495 14.1653C10.2495 14.1773 10.2653 14.181 10.2968 14.181L10.3005 14.2283C10.3042 14.271 10.2773 14.3415 10.2225 14.4315C10.1715 14.4863 10.1168 14.6033 10.062 14.7795V14.8028L10.1093 14.799C10.2847 14.6078 10.4332 14.3925 10.551 14.1585C11.121 13.9905 11.5507 13.83 11.8515 13.6703C12.156 13.6433 12.3825 13.5645 12.543 13.4318L12.5392 13.4085L12.4222 13.4438H12.399L12.3953 13.4243C12.618 13.389 12.7703 13.3425 12.8565 13.2758C13.2863 12.9435 13.6103 12.7058 13.833 12.5685C14.5208 12.0683 14.841 11.5883 14.802 11.127L14.805 11.1248ZM14.6835 11.1563L14.6993 11.3363C14.6798 11.379 14.6565 11.403 14.637 11.4068L14.61 11.0985C14.661 11.118 14.6842 11.1375 14.6842 11.157L14.6835 11.1563ZM1.21875 9.71102H1.19175L1.18425 9.65627L1.3095 9.64427V9.67577C1.278 9.67952 1.24725 9.69152 1.2195 9.71102H1.21875ZM0.621 15.7035C0.5625 15.6765 0.49575 15.6608 0.42975 15.6645L0.426 15.5783C0.42225 15.5468 0.44175 15.5235 0.48075 15.5115C0.5235 15.5078 0.543 15.5385 0.5475 15.5933C0.65325 15.468 0.708 15.402 0.71925 15.402L0.786 15.429C0.76275 15.6045 0.708 15.6983 0.62175 15.7028L0.621 15.7035ZM7.02375 9.00377C6.99675 9.00752 6.93375 8.91377 6.84825 8.72627L6.8445 8.67152C6.89925 8.66777 6.95775 8.76152 7.02 8.94902L7.02375 9.00377ZM6.94125 8.34377L6.91425 8.40227L6.04725 8.03927C6.6255 8.05877 6.92625 8.15627 6.942 8.34377H6.94125ZM3.2655 11.496L3.14475 11.5035L3.141 11.4488L3.26175 11.4413L3.2655 11.496ZM3.168 9.60152L3.195 9.59777L3.2025 9.68777C3.1755 9.68777 3.14025 9.73052 3.093 9.81302L3.08925 9.75452C3.144 9.68777 3.171 9.63752 3.16725 9.60227L3.168 9.60152ZM2.91 10.2113L2.922 10.3245L2.8905 10.3283L2.8785 10.2113H2.91ZM2.7735 10.4258L2.83575 10.422C2.82825 10.5158 2.8005 10.5705 2.754 10.5705L2.7225 10.5743C2.7615 10.512 2.77725 10.461 2.7735 10.4258ZM2.676 10.7303L2.7075 10.7265L2.71125 10.7535L2.65275 10.8473L2.59425 10.851V10.824C2.65275 10.8165 2.6805 10.785 2.67225 10.7303H2.676ZM2.574 11.0003L2.5545 11.1488H2.5275L2.51175 11.004L2.574 11.0003ZM1.57425 13.836C1.53525 14.0355 1.4925 14.1368 1.449 14.1405V14.1135C1.437 14.016 1.4805 13.9223 1.57425 13.836ZM1.39425 14.2343V14.2613C1.398 14.3003 1.3785 14.3235 1.3395 14.3235V14.2965C1.33575 14.265 1.35525 14.2418 1.39425 14.2343ZM1.3395 15.0585L1.43325 15.0465L1.437 15.078C1.40175 15.0855 1.37025 15.0975 1.34325 15.117L1.28475 15.1208C1.281 15.0893 1.3005 15.066 1.3395 15.0585ZM3.97275 14.2463C3.453 14.5005 3.14475 14.676 3.05475 14.766C2.49225 14.961 2.21475 15.0825 2.2185 15.129C1.71825 15.3285 1.3905 15.4725 1.23375 15.5625C1.17525 15.5625 1.1205 15.5468 1.0695 15.5235C1.062 15.4223 1.1085 15.3398 1.206 15.2738C1.29225 15.2663 1.37775 15.2775 1.45575 15.3128C1.61175 15.2423 1.77225 15.1875 1.94025 15.1523L1.93275 15.0938L1.749 15.1095C1.77225 15.078 1.9485 14.9925 2.2845 14.8598L2.37825 14.8478V14.8793C2.22225 14.8913 2.136 14.9378 2.11275 15.024C2.1165 15.0593 2.13975 15.075 2.1795 15.0713C2.30025 14.997 2.355 14.9543 2.355 14.9423C2.5815 14.8995 3.2025 14.571 4.22625 13.962L4.23375 14.0168C4.23375 14.0438 4.1475 14.118 3.972 14.247L3.97275 14.2463ZM2.40225 14.7615C2.547 14.7495 2.6835 14.6873 2.78475 14.5815C2.8275 14.5778 2.8515 14.5935 2.85525 14.6325C2.781 14.64 2.64075 14.6993 2.4375 14.8163L2.406 14.82L2.40225 14.7615ZM4.9335 12.8168L4.14825 13.4378C3.56625 13.8203 3.2535 14.0123 3.21075 14.016C2.28075 14.5238 1.70325 14.7893 1.476 14.8088L1.4445 14.8125C1.4715 14.7113 1.88625 13.863 2.68275 12.2738C3.03825 12.2423 3.59325 12.0788 4.347 11.7818L4.53075 11.766C4.91325 11.7308 5.20275 11.805 5.39025 11.985L5.40225 12.102C5.2575 12.5085 5.1015 12.7463 4.9335 12.8168ZM3.39825 11.9535L3.52725 11.9415V11.973L3.402 11.9805L3.39825 11.9535ZM5.17575 11.652L5.26575 11.6445C5.352 11.6835 5.39475 11.7188 5.3985 11.754L5.40225 11.781C5.3205 11.7885 5.24175 11.7458 5.17575 11.652ZM5.4255 10.2225C5.34375 10.32 5.11725 10.488 4.7535 10.7228C4.63275 10.7348 4.1835 10.9103 3.402 11.25C3.363 11.2343 3.32025 11.2268 3.27675 11.2305L3.273 11.1758C3.261 11.0625 3.312 10.9215 3.4215 10.7498C3.48375 10.4295 3.5505 10.2458 3.621 10.203L4.2735 8.74202C4.266 8.65202 4.4025 8.58152 4.6875 8.53502L4.78125 8.52302L4.78875 8.60927C5.06625 8.56652 5.24175 8.54252 5.3085 8.53502C5.8245 8.49227 6.09375 8.59727 6.11325 8.84777L6.17175 8.84402L6.15975 8.69552L6.2265 8.69177C6.375 8.77352 6.45675 8.87552 6.46875 8.99252C6.47625 9.07427 6.42975 9.17627 6.336 9.29702C6.297 9.30077 6.27375 9.27377 6.26925 9.21527L6.207 9.22277L6.19125 9.39827C5.9295 9.78902 5.742 9.99227 5.62125 10.0035C5.5155 10.1483 5.4495 10.2225 5.42625 10.2225H5.4255ZM5.8245 11.2463C5.76975 11.211 5.727 11.1953 5.6955 11.1953L5.688 11.109L5.7465 11.1053L5.8755 11.1795C5.883 11.2223 5.8635 11.2418 5.8245 11.2463ZM6.23475 11.7345C6.29325 11.7578 6.32475 11.7855 6.33225 11.8088L6.30525 11.8125L6.309 11.8163C6.3015 11.8163 6.29325 11.8163 6.2895 11.82L6.24675 11.8515L6.23475 11.7345ZM6.27375 11.9805L6.27 11.9573L6.34425 11.9415L6.348 11.9648L6.27375 11.9805ZM6.453 12.1838C6.531 12.1718 6.56625 12.1643 6.711 12.1328L6.71475 12.156L6.4455 12.2183C6.44925 12.2063 6.453 12.195 6.453 12.183V12.1838ZM6.7185 12.2933C6.6015 12.3053 6.6285 12.2895 6.44475 12.3323L6.441 12.309L6.6675 12.2348L6.777 12.2115L6.7845 12.2543C6.73725 12.2663 6.7725 12.2663 6.71775 12.2933H6.7185ZM6.957 12.2385C6.93 12.246 6.90975 12.231 6.8985 12.2033L6.969 12.1875C6.996 12.18 7.01625 12.1913 7.02375 12.2228L6.957 12.2385ZM7.6095 11.535L7.602 11.5155L7.71525 11.4885L7.72725 11.5313L7.6095 11.535ZM8.30475 15.801C8.3085 15.7778 8.31225 15.7538 8.3085 15.7305L8.33175 15.7268C8.36325 15.7193 8.38275 15.7305 8.39025 15.7583L8.394 15.7815L8.30475 15.801ZM8.78925 11.7188L8.742 11.7113C8.67525 11.7383 8.6055 11.7623 8.53875 11.778L8.4915 11.79C8.4645 11.7975 8.44425 11.7863 8.433 11.7585L8.757 11.6843L8.8665 11.6333L8.90175 11.6723C8.859 11.6798 8.82375 11.6955 8.7885 11.7195L8.78925 11.7188ZM9.039 11.6408L9.03525 11.6175C9.0585 11.61 9.0825 11.5943 9.0975 11.5785L9.32775 11.5238L9.3315 11.547C9.21075 11.5785 9.1125 11.6055 9.04275 11.6408H9.039ZM9.078 11.172C9.05475 11.1795 9.03075 11.1953 9.01125 11.211C9.0075 11.1953 8.976 11.1953 8.9175 11.211C8.9055 11.1638 9.078 11.1015 9.429 11.0198L9.48 11.0123L9.492 11.055C9.24225 11.1255 9.105 11.1683 9.078 11.172ZM9.699 10.5C9.67575 10.7813 9.57375 10.9418 9.39825 10.9845L9.3945 10.9613L9.2385 11.0198L9.168 11.0355C9.1365 11.0475 9.10125 11.043 9.0705 11.0355L9.0585 10.9733C9.05475 10.95 9.2775 10.6373 9.738 10.0358L9.789 10.0478C9.81225 10.1258 9.7815 10.278 9.699 10.5008V10.5ZM10.8007 9.55877H10.7812L10.7738 9.51602L10.8675 9.50402L10.8713 9.52727C10.8442 9.53477 10.8202 9.54302 10.8007 9.55877ZM10.3477 14.1135C10.305 14.0903 10.254 14.0783 10.203 14.0783L10.1993 14.0115C10.1993 13.9883 10.2113 13.9725 10.242 13.9643C10.2735 13.9605 10.2893 13.98 10.293 14.0265C10.332 13.9718 10.3748 13.9253 10.422 13.8818L10.4692 13.9013C10.4535 14.034 10.4108 14.1045 10.3485 14.112L10.3477 14.1135ZM15.2108 9.02702C15.1875 9.02702 15.1403 8.95652 15.0697 8.81252L15.066 8.76977C15.1132 8.76602 15.1597 8.83652 15.2025 8.97677L15.2108 9.02702ZM15.1448 8.51552L15.1252 8.56277L14.4653 8.28902C14.907 8.30102 15.1335 8.37902 15.1448 8.51552ZM12.3555 10.914L12.2618 10.9215L12.258 10.8788L12.3517 10.8713L12.3555 10.914ZM12.2775 9.47252H12.3045L12.3082 9.53927C12.285 9.53927 12.2572 9.57452 12.222 9.63677L12.2183 9.58952C12.2572 9.53852 12.2767 9.49952 12.2767 9.47252H12.2775ZM12.0863 9.93752L12.0938 10.0238H12.0668L12.0592 9.93752H12.0863ZM11.9805 10.1018L12.027 10.098C12.0195 10.1723 12 10.2113 11.9685 10.215L11.9415 10.2188C11.9648 10.1835 11.9768 10.1445 11.9805 10.1018ZM11.9062 10.3283H11.9257L11.9295 10.3515L11.8868 10.422L11.8395 10.4258V10.4025C11.8868 10.3988 11.91 10.3755 11.9062 10.3283ZM11.8282 10.5353L11.8125 10.6485L11.793 10.6523L11.781 10.539L11.8282 10.5353ZM11.07 12.6915C11.0385 12.8438 11.0078 12.918 10.9762 12.9218L10.9725 12.9023C10.9688 12.828 10.9995 12.7575 11.07 12.6915ZM10.9298 12.9923L10.9335 13.0118C10.9373 13.047 10.9215 13.0628 10.8907 13.0628L10.887 13.0395C10.887 13.02 10.899 13.0043 10.9298 12.9923ZM10.8907 13.617L10.9613 13.6133L10.965 13.6365C10.938 13.6403 10.914 13.6523 10.8945 13.6635L10.8472 13.6673C10.8472 13.644 10.8593 13.6283 10.89 13.6163L10.8907 13.617ZM12.8865 13.0043C12.4957 13.1955 12.2655 13.3283 12.1912 13.395C11.7652 13.5473 11.5545 13.6373 11.5545 13.6763C11.1795 13.8248 10.9298 13.9343 10.812 14.0048C10.7692 14.001 10.7257 13.9928 10.6867 13.9695C10.6792 13.8953 10.7183 13.833 10.7925 13.7858C10.8548 13.7783 10.9215 13.7895 10.98 13.8128C11.0543 13.7775 11.175 13.7385 11.3512 13.6958L11.3475 13.6485L11.199 13.6605C11.2185 13.6373 11.355 13.5705 11.6093 13.4693L11.6798 13.4655L11.6835 13.485C11.5627 13.4925 11.4923 13.5278 11.4803 13.5945C11.4803 13.6215 11.4998 13.6373 11.5312 13.6335C11.6175 13.575 11.6602 13.5398 11.6602 13.5278C11.832 13.5008 12.3045 13.2503 13.0823 12.7853L13.086 12.828C13.0898 12.8475 13.0237 12.9023 12.891 13.0035L12.8865 13.0043ZM11.6955 13.3943C11.8088 13.3823 11.9145 13.3358 11.9925 13.2615C12.024 13.2578 12.039 13.269 12.0435 13.3005C11.9888 13.3043 11.883 13.3478 11.727 13.4333L11.7 13.437L11.6955 13.3943ZM13.6207 11.9138L13.0267 12.39C12.585 12.6833 12.3472 12.8273 12.3082 12.8318C11.6047 13.2188 11.1675 13.4213 10.992 13.4333L10.9688 13.437C10.992 13.3553 11.3048 12.714 11.9137 11.5073C12.1792 11.484 12.597 11.3588 13.1752 11.1323L13.32 11.1165C13.6088 11.0933 13.824 11.1518 13.9688 11.2883L13.9762 11.3745C13.8667 11.679 13.7497 11.859 13.6207 11.9138ZM12.4567 11.262L12.5505 11.2545L12.5543 11.274L12.4605 11.286L12.4567 11.262ZM13.8045 11.031L13.875 11.0273C13.9417 11.0588 13.9762 11.0858 13.9762 11.109L13.98 11.1285C13.9177 11.136 13.8593 11.1015 13.8045 11.031ZM13.992 9.94952C13.9298 10.0238 13.7618 10.1528 13.4843 10.3283C13.3905 10.3403 13.0507 10.4693 12.4605 10.7265C12.429 10.7145 12.3983 10.7108 12.3668 10.7145L12.363 10.6673C12.3555 10.5855 12.39 10.476 12.4725 10.347C12.5197 10.101 12.57 9.96452 12.6248 9.93302L13.1205 8.82377C13.1167 8.75702 13.2217 8.70302 13.4332 8.66327L13.5037 8.65577L13.5112 8.72627C13.7182 8.69102 13.851 8.67152 13.9058 8.66402C14.2965 8.63252 14.4998 8.71127 14.5155 8.90252L14.5627 8.89877L14.5553 8.79302L14.6025 8.78927C14.7157 8.85152 14.7742 8.92577 14.7825 9.01577C14.7862 9.07802 14.7555 9.15677 14.6887 9.24602C14.6572 9.25352 14.6415 9.23027 14.6378 9.18377L14.5905 9.18752L14.5748 9.32027C14.3798 9.62102 14.235 9.77702 14.145 9.78152C14.0633 9.89102 14.0122 9.94577 13.989 9.94952H13.992ZM14.199 10.6875L14.1952 10.6208L14.238 10.617L14.3392 10.6755C14.343 10.707 14.3273 10.7228 14.2965 10.7265C14.2537 10.6995 14.2222 10.6875 14.199 10.6875ZM5.922 15.0075L5.87475 15.0195L5.83575 15.0548C5.84325 15.0818 5.859 15.0938 5.8905 15.0863C5.922 15.0788 5.93325 15.0593 5.92575 15.0315L5.922 15.0075ZM5.742 14.6565L5.7495 14.6798C5.7765 14.676 5.79225 14.6565 5.78475 14.6288L5.781 14.6055C5.754 14.613 5.73825 14.6288 5.742 14.6565ZM6.996 11.6798L7.05075 11.6678L7.03875 11.6205L6.984 11.6325L6.996 11.6798ZM23.133 13.035C22.5938 13.1558 22.5278 13.1325 22.41 13.1445L22.4137 13.1873L22.4647 13.1835H22.4918L22.4842 13.176L22.5465 13.1528C23.0775 13.0943 23.1405 13.1175 23.136 13.0553L23.133 13.035ZM20.223 13.422L20.2267 13.4648H20.2342L20.2305 13.422H20.223ZM19.887 12.246L19.8397 12.2303C19.8127 12.2925 19.7925 12.351 19.7812 12.4178L19.785 12.4373C19.824 12.4335 19.8555 12.3705 19.8908 12.246H19.887ZM23.2425 13.0238L23.2463 13.071L23.3243 13.0868L23.3205 13.0395L23.2425 13.0238ZM19.5623 13.4768L19.4452 13.461L19.422 13.5083L19.4257 13.5315L20.1442 13.4693L20.1405 13.4265L19.5623 13.4768ZM19.2382 11.8988L19.2345 11.8755L19.2113 11.8793L19.164 11.9063L19.191 11.949C19.2262 11.9453 19.242 11.9295 19.2382 11.898V11.8988ZM23.586 12.699L23.6213 12.6953C23.6408 12.6915 23.6482 12.6758 23.6445 12.648L23.625 12.6053C23.5275 12.6053 23.4338 12.6285 23.3475 12.6758L23.3438 12.6525L23.199 12.6683C23.1952 12.621 23.1832 12.6015 23.16 12.6015L23.0858 12.609C22.9958 12.6165 22.953 12.6128 22.9103 12.648C22.9065 12.6285 22.9028 12.621 22.8945 12.621L22.8083 12.6285L22.7572 12.66C22.7572 12.6443 22.7498 12.6368 22.7415 12.6368L22.71 12.66V12.6405L22.5892 12.6285L22.5623 12.6323L22.566 12.675L22.6283 12.6908L22.683 12.687C22.7025 12.7028 22.722 12.7028 22.7498 12.7028L22.8007 12.6795V12.699C22.5232 12.7695 22.5232 12.7538 22.332 12.7853C22.3125 12.7733 22.2967 12.7658 22.2847 12.7658L22.281 12.7695C22.2577 12.7695 22.2458 12.7538 22.242 12.7305L22.3433 12.7185C22.3507 12.7185 22.3552 12.726 22.41 12.738C22.4917 12.699 22.4963 12.6833 22.539 12.6795L22.5353 12.6323C22.2615 12.687 22.371 12.6518 22.0275 12.6833H22.0118L22.008 12.6405C22.4497 12.5858 22.3013 12.6173 22.4535 12.5738C22.4535 12.5895 22.461 12.597 22.4692 12.597C22.485 12.5813 22.5045 12.57 22.5278 12.5655H22.5592C22.7153 12.5498 22.7663 12.5813 23.0707 12.495L23.0745 12.5145L23.1217 12.4913L23.169 12.4875C23.1653 12.4448 23.2358 12.4365 23.259 12.4328L23.2552 12.3855C22.716 12.495 22.5758 12.4635 22.4272 12.5063L22.4235 12.4868C22.2825 12.51 22.2788 12.5025 22.2435 12.5025C22.224 12.5063 22.2083 12.5183 22.1962 12.5295C22.1962 12.5138 22.1925 12.51 22.1805 12.51H22.173L21.7162 12.5843C21.7162 12.5723 21.7087 12.5648 21.6968 12.5648C21.462 12.6158 21.525 12.627 21.2085 12.6548C21.189 12.6585 21.1695 12.6668 21.15 12.678C21.15 12.666 21.1425 12.6585 21.1268 12.6585L20.9318 12.678L20.8027 12.7095C20.8027 12.6975 20.7952 12.69 20.7795 12.69C20.7052 12.7133 20.643 12.7253 20.5882 12.7253H20.5845C20.553 12.729 20.6003 12.7178 20.577 12.7058L20.538 12.729C20.4795 12.7365 20.511 12.7253 20.3153 12.729C19.9718 12.7718 20.0107 12.7763 19.9718 12.78L19.8428 12.768C19.8465 12.78 19.839 12.7913 19.8232 12.7913C19.6785 12.7718 19.6042 12.7485 19.6042 12.7208C19.6238 12.5843 19.6552 12.51 19.7017 12.51L19.7288 12.5063L19.7055 12.5535L19.7325 12.5498C19.7797 12.5265 19.7992 12.5025 19.7992 12.4793L19.7917 12.432L19.749 12.4358L19.7453 12.393C19.7415 12.3615 19.7453 12.3308 19.7572 12.303L19.863 12.135L19.8668 12.1778L19.9177 12.174L19.914 12.1313L19.887 12.0923C19.9223 12.057 19.9492 12.0413 19.977 12.0375L19.9733 12.0143L19.9065 12.0218L19.899 11.9513C20.0355 11.6738 20.0985 11.5095 20.094 11.463L20.145 11.4825C20.172 11.4788 20.1877 11.463 20.1877 11.4315H20.1405L20.1368 11.412C20.1368 11.3805 20.1405 11.3498 20.1562 11.3183C20.2305 11.244 20.262 11.166 20.2575 11.088C20.2695 11.0843 20.277 11.0918 20.277 11.1075C20.3392 11.0723 20.3865 10.9785 20.4255 10.8225C20.535 10.623 20.691 10.2248 20.8942 9.62702C21.285 8.57627 21.2692 8.46302 21.324 8.21327L21.2812 8.21702C21.2812 8.24852 21.2775 8.27927 21.2618 8.30702C21.2385 8.29952 21.2108 8.29127 21.1875 8.29127L21.1838 8.27177C21.18 8.18177 21.2153 8.07227 21.3007 7.94327H21.3202L21.363 8.09552L21.4058 8.09177C21.4058 8.07977 21.4177 8.02127 21.441 7.90802C21.441 7.88477 21.4215 7.86902 21.3862 7.86902L21.3435 7.89602C21.3398 7.81427 21.3398 7.73177 21.3472 7.64627L21.324 7.65002C21.285 7.61102 21.2655 7.57952 21.2655 7.55252L21.0075 7.57577C21.0037 7.54877 20.9955 7.52477 20.9805 7.49777C20.9805 7.47452 21.0352 7.45052 21.1522 7.43102L21.2033 7.45052L21.2542 7.41902C21.2542 7.43477 21.2617 7.44227 21.2812 7.44227L21.3285 7.41077C21.3323 7.43027 21.3405 7.43402 21.36 7.43402H21.3832L21.3757 7.37927C21.3442 7.38302 21.2467 7.38302 21.0983 7.37927L21.051 7.41077L21.0472 7.38377C19.8555 7.48127 19.176 7.53602 19.0163 7.55177C18.993 7.55552 18.9105 7.55177 18.762 7.54802C18.7658 7.56752 18.7463 7.57952 18.711 7.58327L18.66 7.56002L18.4845 7.60277C18.4455 7.60652 18.375 7.60652 18.2775 7.59527C18.2505 7.61852 18.2153 7.63052 18.18 7.63427C18.1605 7.63427 18.4342 7.61852 18.6915 7.59902C18.6525 7.62602 18.6097 7.63802 18.5662 7.63802C18.531 7.64552 18.4958 7.63802 18.465 7.62227C18.3442 7.65752 18.2153 7.68902 18.09 7.71227L18.0353 7.68902L17.2035 7.81802C17.1682 7.80227 17.133 7.79852 17.094 7.80227C17.0467 7.80602 16.9733 7.82177 16.8713 7.84952L16.4692 8.01752L16.4963 8.06852C16.5278 8.06102 16.5548 8.05277 16.578 8.03327L16.7228 8.04902L16.7033 8.18177C16.5742 8.24027 16.4963 8.32652 16.4767 8.43602C16.2773 8.52602 16.1798 8.58827 16.1798 8.62352L16.1835 8.64677H16.2105L16.2653 8.61527L16.3275 8.68952L16.335 8.79527C16.3388 8.82677 16.0065 9.52577 15.3428 10.893C14.7645 12.2093 14.4638 12.9285 14.4368 13.0568C14.2373 13.1115 14.124 13.1933 14.0887 13.299C14.0925 13.3343 14.151 13.3575 14.2642 13.3658L14.2717 13.4168L14.217 13.503L14.229 13.6043C14.2327 13.659 14.3775 13.698 14.6588 13.7295C14.6588 13.71 14.6662 13.698 14.6857 13.698C14.6895 13.7603 14.6737 13.8855 14.6348 14.073L14.6617 14.0693C14.7787 13.9088 14.8373 13.8 14.8298 13.7408L14.853 13.737C14.8845 13.7333 14.9115 13.7685 14.9468 13.8383C14.9115 13.8503 14.7863 14.1353 14.5755 14.6858L14.607 14.7368L14.634 14.733C14.8957 14.073 15.06 13.7055 15.1298 13.6395C15.4695 13.608 16.0635 13.5458 16.9072 13.4558L16.962 13.4243C16.9657 13.44 16.974 13.4513 16.9935 13.4475L17.0483 13.4438L17.103 13.4123C17.103 13.428 17.115 13.4393 17.1345 13.4355L17.7712 13.3808C17.943 13.365 18.021 13.314 18.0135 13.2285C18.0135 13.2053 18.111 13.1775 18.3143 13.1505C18.3413 13.1505 18.3728 13.1543 18.4005 13.1663C18.4005 13.1505 18.5017 13.1348 18.7013 13.1153C18.7087 13.0095 18.744 12.951 18.8025 12.9473L18.7987 12.8963C18.732 12.9038 18.666 12.9158 18.6038 12.939C18.5175 12.939 18.432 12.927 18.3495 12.9075C18.3225 12.9233 18.2948 12.9345 18.2677 12.939L17.8223 12.9548L17.7675 12.9818C17.7675 12.966 17.7555 12.9623 17.736 12.9623H17.7127L17.6542 12.9938C17.6542 12.978 17.607 12.9623 17.5133 12.951L17.4548 12.9863L17.3453 12.9938V12.9668C17.9153 12.9045 18.201 12.8258 18.1927 12.732C18.2318 12.7283 18.2475 12.7478 18.2512 12.783L18.4193 12.7403L18.4155 12.6893L17.0445 12.7283C17.0483 12.744 17.037 12.7553 17.0175 12.7598L16.8495 12.744C16.8105 12.744 16.7753 12.7598 16.7438 12.7793L16.6815 12.7598C16.5098 12.7718 16.3808 12.795 16.2945 12.8183C16.1655 12.8108 16.0327 12.8145 15.9037 12.8258L15.5955 12.8528L15.4545 12.837C15.447 12.7433 15.6225 12.2978 15.9855 11.4975C16.0912 11.2283 16.185 11.0603 16.2787 10.9935C16.3102 10.9973 16.3372 11.001 16.365 11.0168L16.5877 10.9425L16.6973 10.9583C16.8848 10.9425 17.1038 10.8878 17.3573 10.7978C17.4045 10.7903 17.451 10.794 17.4982 10.8098L17.6663 10.7708L18.162 10.728C18.3727 10.7123 18.6038 10.6658 18.8535 10.587L18.8498 10.536C18.756 10.5435 18.7087 10.5285 18.705 10.4888C18.6975 10.422 18.6308 10.395 18.5018 10.4025L18.4943 10.3515L18.6353 10.3125L18.9945 10.281L18.987 10.23C18.9128 10.23 18.8385 10.23 18.7642 10.2263L18.7605 10.1715L18.9015 10.1558C18.9368 10.152 18.9525 10.1363 18.9487 10.101C18.765 10.1048 18.6675 10.0973 18.6675 10.074C17.367 10.1363 16.7145 10.1483 16.7108 10.1093C16.6793 10.113 16.6523 10.125 16.629 10.1445L16.5938 10.0898C16.9373 9.35927 17.1405 8.98802 17.199 8.98052C17.1952 9.03152 17.1833 9.07802 17.1562 9.11702V9.14027L17.2147 9.13652C17.3512 8.80802 17.4645 8.64077 17.5627 8.63252C17.973 8.59727 17.5042 8.57027 18.3795 8.43302C18.4148 8.44877 18.4417 8.45627 18.4575 8.45627C18.801 8.38577 19.2817 8.31152 19.8953 8.23727L19.8915 8.18627L19.563 8.21777L19.5592 8.16677C19.5945 8.16302 19.6297 8.15102 19.6567 8.12777V8.15477C19.6838 8.15102 19.7115 8.13902 19.7347 8.11952C19.7895 8.11577 19.8323 8.11952 19.8638 8.13527C19.9538 8.11202 20.0438 8.09252 20.1375 8.08052L20.3407 8.06102C20.3918 8.02952 20.415 8.00252 20.4113 7.97477V7.95152C20.3528 7.95527 20.2905 7.95152 20.2313 7.93952C20.2275 7.91252 20.2432 7.89227 20.2785 7.88477L20.6572 7.84952L20.8328 7.80227C20.8328 7.82177 20.8448 7.82927 20.856 7.82927C20.883 7.82177 20.9107 7.80977 20.9303 7.79402L20.9618 7.79777C20.9385 7.84502 20.9107 7.91477 20.8837 8.00477L20.8328 8.00852C20.8328 7.97702 20.8207 7.94627 20.8057 7.91852H20.7825C20.3175 9.20777 20.1105 9.80552 19.6845 10.7933C19.6065 11.0475 19.5397 11.1878 19.485 11.2193C19.485 11.2463 19.5045 11.262 19.536 11.2583C19.5435 11.3873 19.5127 11.5163 19.446 11.6258C19.251 12.1958 19.1175 12.5048 19.0515 12.5633L19.0942 12.8325C19.098 12.8595 19.0823 12.8753 19.0515 12.8798L19.0042 12.8835C18.9967 12.8093 18.969 12.774 18.9225 12.7778H18.8993C18.837 12.8753 18.7898 12.981 18.7628 13.11L18.81 13.1063C18.8685 13.0635 18.9 13.0163 18.8918 12.9615L18.9855 12.954L19.0402 12.9735C18.9975 13.0403 18.978 13.0943 18.9818 13.134L19.005 13.1768L18.9465 13.3178V13.341C19.0087 13.341 19.0718 13.3568 19.122 13.392C19.173 13.3845 19.2195 13.365 19.263 13.3373C19.314 13.3298 19.5128 13.3298 19.857 13.3298L20.0287 13.2713C20.2395 13.2675 20.2747 13.275 20.4548 13.2593L20.529 13.2518L20.568 13.2248L20.5718 13.248C20.763 13.2323 20.775 13.2443 20.9235 13.26L20.9272 13.2833L20.8215 13.2953L20.8253 13.338C20.8523 13.338 20.8837 13.326 20.907 13.3065C20.934 13.3028 20.9498 13.3185 20.9498 13.3493C20.9025 13.353 20.8523 13.365 20.8088 13.3808L20.7615 13.365C20.6873 13.3845 20.703 13.392 20.652 13.3965L20.5815 13.3808C20.5815 13.3928 20.574 13.4003 20.562 13.4003C20.5658 13.4318 20.5815 13.443 20.6092 13.443L20.6835 13.4355L21.0705 13.4003L21.219 13.3688C21.2227 13.3808 21.2265 13.3883 21.2385 13.3883L21.309 13.3613L21.4455 13.3493C21.5467 13.3418 21.543 13.3335 21.7695 13.2983C21.7657 13.2825 21.7733 13.2788 21.7815 13.275L21.7853 13.2983C22.1483 13.236 22.1723 13.2315 22.2308 13.212L22.2382 13.2195C22.3282 13.2 22.2773 13.2038 22.3005 13.188C22.3042 13.2038 22.308 13.2113 22.3162 13.2113L22.383 13.2038L22.3755 13.1565L22.2465 13.1528H22.215V13.1565C22.125 13.176 22.1213 13.164 22.0665 13.1685L21.7425 13.188L21.7388 13.1648L21.9225 13.1378L21.9893 13.134L22.0245 13.107L22.0282 13.1303C22.2825 13.1108 22.3717 13.173 23.5597 12.9233C23.622 12.9158 23.6182 12.861 23.6572 12.7515C23.6377 12.7553 23.6145 12.7478 23.595 12.7395C23.4975 12.7748 23.4465 12.759 23.259 12.7905C23.2432 12.7905 23.2275 12.7748 23.2238 12.7478V12.7283L23.4037 12.732C23.439 12.7283 23.5013 12.7245 23.6033 12.6698C23.6033 12.6855 23.5643 12.693 23.5875 12.693L23.586 12.699ZM14.8282 12.84L14.7465 12.8475C14.7428 12.8123 14.7855 12.6833 14.8793 12.465L14.934 12.4613C14.9378 12.5123 14.9025 12.6368 14.8282 12.84ZM14.9295 12.4335V12.4103C14.9257 12.3833 14.9453 12.363 14.9843 12.3518V12.375C14.988 12.4103 14.9685 12.4298 14.9295 12.4335ZM16.0433 13.293V13.3163L15.9022 13.3283V13.305L16.0433 13.293ZM15.8752 13.2773C15.8752 13.3043 15.8363 13.3395 15.7425 13.371L15.5707 13.359L15.516 13.3628L15.5123 13.3118L15.8752 13.2773ZM16.9958 8.10527L16.914 8.11277V8.08127C16.9102 8.05427 16.926 8.03402 16.965 8.02652L16.992 8.02277L17.0505 8.04602C17.0505 8.08127 17.0347 8.10077 16.9958 8.10452V8.10527ZM18.2692 7.85552H18.2962L18.3 7.90652L18.222 7.91027C18.222 7.88327 18.2377 7.86302 18.2692 7.85552ZM17.949 7.96877L17.8237 7.95302L17.82 7.92977C17.988 7.91402 18.0427 7.89827 18.144 7.87127C18.144 7.89077 18.1635 7.89452 18.195 7.89452L18.1987 7.94552L18.1478 7.94927C18.1125 7.95302 18.0772 7.94927 18.0465 7.93352C18.0195 7.95302 17.9842 7.96502 17.949 7.96877ZM18.1095 8.43002L18.1058 8.40677L18.3127 8.38727V8.41052L18.1095 8.43002ZM18.3285 8.25002L18.3248 8.22302L18.426 8.21102V8.24252L18.3285 8.25002ZM18.3517 7.90202H18.3248L18.348 7.84727L18.5745 7.82777V7.85477C18.5002 7.86227 18.426 7.87802 18.3517 7.90202ZM18.465 8.39102L18.4613 8.34002L18.5625 8.33252C18.594 8.32877 18.6135 8.34452 18.6135 8.37977L18.465 8.39102ZM19.0665 7.57052L18.9412 7.60577L18.918 7.60952C18.8558 7.61327 18.777 7.61327 18.6877 7.60202C18.852 7.59452 19.0118 7.57877 19.0665 7.57052ZM18.9338 8.14052V8.16377L18.7582 8.17952L18.7545 8.15627L18.9338 8.14052ZM19.2188 8.27702C19.2188 8.25752 19.1835 8.24177 19.113 8.23427L18.9375 8.28527L18.8048 8.28902C18.7733 8.26952 18.7575 8.25377 18.7537 8.24177L18.9097 8.25377L19.2653 8.19527L19.4452 8.20277V8.22977C19.371 8.23727 19.293 8.25302 19.2188 8.27702ZM21.0315 7.80827L21.0705 7.81202C21.1327 7.74977 21.2032 7.70252 21.285 7.66727C21.2183 7.94852 21.1208 8.15552 20.9842 8.29202L20.883 8.23352C20.9415 8.09252 20.9925 7.95227 21.0315 7.80752V7.80827ZM20.7262 8.33627L20.7495 8.33252C20.718 8.39477 20.6873 8.43002 20.6595 8.43377L20.6558 8.36327C20.6715 8.36327 20.6947 8.35577 20.7262 8.33627ZM20.5275 8.80502C20.5785 8.61377 20.6213 8.50427 20.664 8.47652L20.6677 8.49977C20.6445 8.67527 20.6055 8.76902 20.5507 8.77727L20.5627 8.89052C20.52 8.94902 20.5005 8.99627 20.5005 9.03152L20.4772 9.03527L20.4615 8.87927C20.4885 8.87552 20.5125 8.85227 20.5282 8.80502H20.5275ZM20.4533 9.06227C20.4457 9.12452 20.4263 9.18752 20.3985 9.24602H20.3752L20.3715 9.17927C20.403 9.10127 20.4338 9.06227 20.4533 9.06227ZM19.0155 13.2263V13.2068L19.0627 13.203L19.0665 13.2698C19.0395 13.2735 19.0238 13.2578 19.0155 13.227V13.2263ZM21.0667 13.281C21.0667 13.2653 21.0592 13.2578 21.0435 13.2578L20.9265 13.2698V13.2465H20.934L21.2115 13.2233V13.2465C21.1335 13.2503 21.0825 13.2623 21.0667 13.2818V13.281ZM20.9295 13.2225C20.9415 13.2263 20.9333 13.2345 20.9295 13.2383C20.9258 13.2345 20.9175 13.2308 20.9295 13.2225ZM20.9452 12.9023L20.793 12.9143L20.7892 12.891L20.9303 12.879L21.051 12.852C21.051 12.864 21.0585 12.8678 21.0743 12.8678C21.219 12.8445 21.2032 12.8363 21.2738 12.8288C21.297 12.8288 21.3127 12.8445 21.3127 12.8715L20.9452 12.9023ZM21.4808 12.8558C21.3945 12.8483 21.3907 12.84 21.3285 12.8483V12.825L21.465 12.813V12.8363C21.453 12.8363 21.504 12.84 21.4808 12.8558ZM21.4882 12.8318V12.8123L21.5625 12.8048L21.5662 12.8243L21.4882 12.8318ZM21.6562 12.8168L21.6525 12.7973C21.672 12.7935 21.6915 12.7815 21.7073 12.7703C21.7463 12.7665 21.7657 12.7898 21.7695 12.8213L21.6562 12.8168ZM21.867 12.789V12.7658L21.957 12.762V12.7815L21.867 12.789ZM21.9923 12.7815C21.9923 12.7545 22.0043 12.7388 22.0275 12.7343L22.0545 12.7733C22.0545 12.7613 22.0583 12.7538 22.0702 12.75L22.0935 12.7928L21.9923 12.7815ZM20.652 13.3598L20.6483 13.317H20.6325L20.6362 13.3598H20.652ZM23.7772 12.5505C23.7892 12.543 23.7967 12.531 23.7615 12.5273C23.7457 12.5468 23.781 12.5505 23.7458 12.5505V12.5663L23.769 12.5543L23.7458 12.57L23.7105 12.621L23.7847 12.594H23.7922L23.7885 12.5513L23.7772 12.5505ZM23.9062 12.6525H23.8905L23.8942 12.6998L24 12.6878C24 12.6608 23.9295 12.6525 23.9062 12.6525ZM23.742 12.5745L23.7458 12.5708L23.742 12.5745Z" fill="black"/>
</g>
<defs>
<clipPath id="clip0_201_57270">
<rect width="24" height="24" fill="white"/>
</clipPath>
</defs>
</svg>
