<svg width="24" height="24" viewBox="0 0 24 24" fill="none" xmlns="http://www.w3.org/2000/svg">
<path d="M23.9528 6.9653C23.9445 6.9653 23.9408 6.96155 23.9377 6.96155C23.9295 6.96155 23.922 6.9653 23.9137 6.9698C8.78475 8.49305 1.6755 15.0705 0 16.689L0.22275 17.04H2.8665C9.73725 10.1303 19.0222 7.8368 23.9333 7.08305L23.937 7.0868C23.94 7.0868 23.9438 7.07855 23.9482 7.07855C23.976 7.0748 23.9993 7.05155 23.9993 7.0208C23.9993 6.99305 23.979 6.97355 23.952 6.96605L23.9528 6.9653ZM0.37875 10.5083L0.219 10.809L3.465 13.176C4.12125 12.7928 4.79325 12.438 5.47725 12.102L3.3015 10.5083H0.37875ZM7.59375 13.6478C7.0545 14.0468 6.50775 14.469 5.9175 14.9648L8.76975 17.0385H11.727L11.8523 16.7693L7.59375 13.6478Z" fill="black"/>
</svg>
