<svg width="24" height="24" viewBox="0 0 24 24" fill="none" xmlns="http://www.w3.org/2000/svg">
<g clip-path="url(#clip0_201_57336)">
<path d="M17.0235 9.21451C17.0235 9.21451 16.6365 5.92126 13.0665 5.83201C9.49651 5.73826 7.66426 8.30101 7.66426 11.961C7.66426 15.621 9.69151 18.5505 13.164 18.5505C16.6365 18.5505 17.0235 14.8905 17.0235 14.8905L23.6798 15.2535C23.6798 15.2535 24.0705 18.5618 21.285 21.0818C18.4995 23.6055 15.0818 24.015 12.6953 24C10.3043 23.9805 6.99601 24.0353 3.79276 21.0315C0.593263 18.0315 0.0502625 15.1133 0.0502625 12.246C0.0502625 9.38251 0.655513 5.58601 4.46401 2.70676C7.05001 0.753762 9.67126 0.0307617 12.2963 0.0307617C23.2455 0.0307617 23.9798 9.28051 23.9798 9.28051L17.0235 9.21451Z" fill="black"/>
</g>
<defs>
<clipPath id="clip0_201_57336">
<rect width="24" height="24" fill="white"/>
</clipPath>
</defs>
</svg>
