<svg width="24" height="24" viewBox="0 0 24 24" fill="none" xmlns="http://www.w3.org/2000/svg">
<g clip-path="url(#clip0_201_57858)">
<path d="M15.4057 0.132739C14.6475 0.0697392 13.9297 0.222739 13.227 0.601489C12.285 1.10174 11.6167 1.87424 11.3122 2.87849V2.94449L11.277 3.18374L11.145 2.94449L10.809 2.34374C10.2727 1.50749 9.60522 1.00349 8.76597 0.769489C8.03097 0.604489 7.42572 0.671239 6.78897 1.01174C6.08622 1.44449 5.68422 2.11649 5.51622 3.05474C5.34822 4.02674 5.51622 4.96499 6.02022 5.90174L6.25422 6.23774L5.44497 5.97299C4.44072 5.73374 3.50397 5.86724 2.56197 6.37124C1.59372 6.87149 0.987718 7.57424 0.590218 8.55149C0.218968 9.48824 0.254218 10.3957 0.722968 11.2305C0.921718 11.6025 1.22697 11.8987 1.49172 12.1027C1.89447 12.5047 2.39772 12.7387 2.99997 12.8407L3.23397 12.903L2.73372 13.3447C2.26197 13.743 1.99572 14.247 1.82772 14.7465C1.65972 15.3525 1.72647 15.9532 2.06172 16.5232C2.23347 16.7932 2.39772 17.0272 2.66397 17.1952C2.93397 17.43 3.26997 17.598 3.67197 17.6332C4.40997 17.8012 5.18022 17.8012 6.01572 17.5312L5.41347 18.5355L5.24547 18.9735C4.90947 20.0475 5.01147 20.9805 5.51547 21.9532C5.74947 22.3245 6.01572 22.6605 6.28422 22.9612C6.68322 23.328 7.19022 23.562 7.79622 23.73C8.80047 24 9.80397 23.9692 10.7722 23.4652C11.7142 22.9612 12.315 22.152 12.6202 21.1485L12.651 20.9497C13.2877 21.6525 13.89 22.122 14.5612 22.29C15.2332 22.4932 15.9015 22.4617 16.5075 22.056C17.0775 21.7237 17.4795 21.1492 17.6835 20.4457C17.8515 19.7077 17.8515 18.9735 17.6835 18.1335C18.0157 18.3675 18.3517 18.5355 18.7537 18.6375C19.8277 18.9735 20.766 18.9382 21.7027 18.4387C22.6087 17.9347 23.211 17.13 23.5155 16.0905C23.7802 15.0862 23.7142 14.1135 23.2147 13.1722L23.043 12.9022C22.7767 12.5002 22.5082 12.0982 22.1047 11.832C21.7695 11.598 21.3667 11.43 21 11.262C22.0387 10.758 22.7767 10.0552 23.109 9.14774C23.3482 8.40974 23.2807 7.80899 22.941 7.20299V7.13699C22.539 6.46874 22.008 6.03074 21.168 5.79674C20.664 5.69849 20.0977 5.69474 19.5937 5.72999L18.4837 5.96474L18.855 5.12849C19.191 4.05449 19.0897 3.01574 18.5197 2.04224L18.4215 1.87049C17.9175 1.03424 17.1795 0.530239 16.1752 0.265489C15.9135 0.198739 15.6592 0.151489 15.405 0.132739H15.4057ZM14.8357 1.54724C15.1597 1.51649 15.4837 1.55924 15.8047 1.67624C16.5075 1.84424 17.0115 2.21099 17.3115 2.78099V2.78474C17.4795 3.11699 17.5777 3.51974 17.5777 3.95699L17.4795 4.69499C17.3475 5.06174 17.1795 5.39774 16.9762 5.69924L13.9605 9.38699C13.6597 9.15224 13.3237 8.98424 12.9877 8.81624L12.6517 5.02724L12.621 3.68849L12.6517 3.35249C12.8197 2.68424 13.2885 2.18024 13.8907 1.84424C14.1945 1.67624 14.5117 1.57799 14.8357 1.54724ZM7.95297 2.08574C8.08572 2.07749 8.22972 2.11274 8.36322 2.17949C8.96547 2.34749 9.46947 2.78024 9.87147 3.62024C10.0395 3.95624 10.2075 4.28849 10.2735 4.69049L10.9455 8.64749L10.4415 8.81549L7.45722 5.56574L7.28922 5.22974C7.01997 4.62899 6.85497 4.05899 6.92247 3.45299C6.95322 2.85224 7.18872 2.44874 7.59072 2.21474C7.69197 2.13299 7.81647 2.08949 7.94997 2.08574H7.95297ZM20.082 7.11674C20.2342 7.11674 20.379 7.12499 20.5312 7.14074C21.102 7.21049 21.504 7.47674 21.7035 7.88249L21.8407 8.31149L21.774 8.64749C21.54 9.25349 21.036 9.72224 20.196 10.0897C19.8637 10.2577 19.4932 10.3237 19.095 10.3905L14.97 10.8945L14.9032 10.6597L14.8372 10.5585L14.97 10.3905L18.3562 7.57349L18.759 7.40924V7.40549C19.2082 7.20674 19.6462 7.12049 20.0872 7.11674H20.082ZM4.62072 7.30124C4.78047 7.30949 4.94472 7.33199 5.11272 7.37549V7.37924L6.01947 7.74224L8.96847 9.89099C8.69847 10.227 8.53422 10.5622 8.43372 10.8952L3.60447 11.5005L3.27222 11.4345C2.66697 11.3325 2.26497 11.0625 1.99497 10.5622C1.72572 10.059 1.72872 9.55949 1.92897 9.05549C2.16297 8.41874 2.60097 7.91474 3.23322 7.64549C3.68697 7.39574 4.13997 7.27349 4.61997 7.30124H4.62072ZM11.781 9.98774C12.387 9.98774 12.957 10.227 13.3237 10.5937C13.797 11.0617 13.9957 11.5657 13.9957 12.1717C13.9957 12.7725 13.797 13.344 13.3237 13.7415C12.891 14.1795 12.387 14.4135 11.781 14.4135C11.148 14.4135 10.6132 14.1795 10.2112 13.7415C9.77322 13.3432 9.53922 12.7725 9.53922 12.1717C9.53922 11.5657 9.77322 11.0617 10.2112 10.5937C10.6132 10.2225 11.148 9.98774 11.7855 9.98774H11.781ZM20.1952 12.57L20.5312 12.6052C21.0352 12.7732 21.5085 13.074 21.7732 13.5742C22.1092 13.9455 22.2772 14.4495 22.2772 15.0202L22.176 15.6885C22.008 16.3597 21.6052 16.8592 21.0352 17.1292C20.4345 17.4652 19.8285 17.5312 19.1602 17.2972C18.7582 17.199 18.4882 17.031 18.2542 16.7625L14.7345 13.8442L14.9692 13.344L15.0705 12.9382L18.8595 12.6052L20.1997 12.57H20.1952ZM13.5622 15.0202L14.9692 16.4572L15.84 17.5312L16.008 17.8672C16.3087 18.438 16.4767 18.9735 16.4062 19.6095C16.344 20.2117 16.1415 20.6482 15.738 20.8162C15.504 20.9842 15.234 20.9842 14.9692 20.949C14.3325 20.7847 13.8285 20.2807 13.461 19.4767L13.059 18.3705L12.555 15.4522L13.1212 15.2535L13.5592 15.0195L13.5622 15.0202ZM9.94122 15.0862C10.2735 15.2542 10.6095 15.4222 10.98 15.453C11.0467 16.5937 11.145 17.8012 11.3122 19.1047V20.4487L11.2815 20.781C11.0437 21.387 10.6417 21.891 10.0395 22.1557C9.43872 22.4917 8.80122 22.5585 8.19522 22.3905C7.52322 22.2262 7.02297 21.8197 6.75447 21.2842C6.58647 20.9482 6.44922 20.5462 6.44922 20.1442L6.62097 19.374C6.68772 19.038 6.85497 18.7057 7.12497 18.4372L9.94122 15.0862Z" fill="black"/>
</g>
<defs>
<clipPath id="clip0_201_57858">
<rect width="24" height="24" fill="white"/>
</clipPath>
</defs>
</svg>
