<svg width="24" height="24" viewBox="0 0 24 24" fill="none" xmlns="http://www.w3.org/2000/svg">
<g clip-path="url(#clip0_201_58188)">
<path d="M21.5115 8.10525C21.2498 8.09775 20.9918 8.1915 20.8005 8.37075C20.1638 8.97225 20.5658 10.0462 21.441 10.0852C21.9878 10.1047 22.4453 9.67499 22.4648 9.13199C22.4843 8.58525 22.0583 8.12775 21.5115 8.1045V8.10525ZM21.672 9.1875C21.4298 9.1875 21.2348 9.0585 21.2348 8.89875C21.2348 8.7345 21.4298 8.6055 21.672 8.6055C21.9143 8.6055 22.1138 8.7345 22.1138 8.89875C22.1138 9.05925 21.9143 9.1875 21.672 9.1875ZM23.9768 10.3672C23.9843 10.3635 24.0038 10.3477 24 10.3357C23.9453 9.99225 23.4338 8.33175 23.0468 7.92975C22.941 7.82025 22.8555 7.71525 22.6838 7.61325C21.285 6.801 17.973 6.30825 17.8163 6.285C17.8163 6.285 17.8005 6.28125 17.7893 6.2925C17.7818 6.3 17.7773 6.31575 17.7773 6.31575L17.7653 7.0815C17.4255 6.96825 14.9648 6.171 12.6555 6.08925C10.6988 6.0225 7.85102 5.769 4.06952 8.09325L3.96002 8.16375C2.18252 9.26925 0.95627 10.6365 0.31577 12.222C0.11252 12.7222 -0.15673 13.851 0.11252 14.9092C0.22577 15.3742 0.44027 15.843 0.73352 16.257C1.38977 17.202 2.48777 17.8275 3.67502 17.9325C5.35052 18.081 6.61652 17.331 7.06577 15.921C7.37852 14.952 7.06577 13.5262 5.87852 12.8002C4.91402 12.2062 3.87452 12.3435 3.26927 12.7417C2.74577 13.0897 2.45252 13.6282 2.45702 14.2185C2.46902 15.2692 3.37502 15.8242 4.02377 15.828C4.21502 15.828 4.40252 15.7965 4.61777 15.7267C4.69577 15.7035 4.77377 15.6682 4.84427 15.6255L4.86752 15.6097L4.88327 15.6022H4.87952C5.07077 15.4732 5.15702 15.2392 5.09402 15.0165C5.01977 14.751 4.75427 14.5867 4.48427 14.6415L4.44527 14.649L4.39802 14.661L4.32377 14.688C4.17527 14.7232 4.06202 14.727 4.03877 14.727C3.96452 14.7232 3.58952 14.61 3.58952 14.1997V14.196C3.58952 14.0475 3.64802 13.938 3.68327 13.8832C3.80027 13.6995 4.11677 13.5202 4.54652 13.5592C5.11277 13.6065 5.51927 13.899 5.78852 14.442C6.03827 14.9497 5.97602 15.579 5.62052 16.0357C5.26877 16.4887 4.64402 16.6845 3.81227 16.5945C2.98052 16.5045 2.25002 16.0087 1.86677 15.2662C1.47602 14.532 1.45652 13.6567 1.81202 12.9892C2.65952 11.388 4.26527 11.403 5.14427 11.556C6.44477 11.7825 7.92977 12.9817 8.45252 14.3685C8.53877 14.5912 8.58152 14.7667 8.62052 14.9272L8.67527 15.1657L10.1483 15.8842C10.1798 15.9 10.191 15.9037 10.203 15.8962C10.2188 15.8842 10.2105 15.8535 10.2105 15.8535C10.1985 15.8182 10.179 15.7912 10.1438 15.3772C10.1168 15.0142 10.0575 14.0137 10.5615 13.518C10.7565 13.323 11.0535 13.1505 11.292 13.0957C12.2565 12.861 13.386 13.0215 14.4525 14.2597C15.0075 14.9002 15.2768 15.1897 15.4133 15.318C15.4133 15.318 15.4448 15.3495 15.4605 15.3607C15.48 15.3765 15.492 15.3877 15.5153 15.4035C15.5625 15.4267 17.355 16.2547 17.355 16.2547C17.355 16.2547 17.3745 16.2622 17.3903 16.2427C17.406 16.2232 17.3903 16.2075 17.3903 16.2075C17.3783 16.1917 16.2533 14.739 16.4528 13.5397C16.6133 12.5865 17.3708 12.6765 18.4215 12.7935C18.765 12.8325 19.1558 12.8797 19.5585 12.8872C20.6873 12.8947 21.9023 12.684 22.6485 12.3562C23.133 12.1492 23.4413 12.0082 23.637 11.8327C23.7075 11.7742 23.7428 11.6805 23.7818 11.5785L23.8088 11.5117C23.8403 11.43 23.883 11.2575 23.9025 11.1637C23.9145 11.121 23.922 11.082 23.8868 11.0542C23.8553 11.031 23.7855 11.0737 23.7855 11.0737C23.4533 11.2732 22.6335 11.6482 21.8633 11.6632C20.91 11.6827 18.9765 10.6942 18.777 10.593C18.6443 10.2727 18.5115 9.95249 18.375 9.63599C19.758 10.5465 20.9025 11.0497 21.7815 11.1285C22.758 11.2147 23.5238 10.683 23.8515 10.4602C23.8943 10.4332 23.9378 10.398 23.9768 10.3665V10.3672ZM20.055 9.0585C20.0708 8.67975 20.2268 8.328 20.5043 8.07C20.7818 7.812 21.1448 7.6755 21.5235 7.69125C22.305 7.71825 22.9178 8.3745 22.8908 9.156C22.8788 9.53475 22.719 9.8865 22.4415 10.1445C22.164 10.4062 21.8048 10.539 21.4223 10.527C20.6408 10.4955 20.0318 9.83925 20.055 9.0585Z" fill="black"/>
</g>
<defs>
<clipPath id="clip0_201_58188">
<rect width="24" height="24" fill="white"/>
</clipPath>
</defs>
</svg>
