<svg width="24" height="24" viewBox="0 0 24 24" fill="none" xmlns="http://www.w3.org/2000/svg">
<g clip-path="url(#clip0_201_58564)">
<path d="M12.0002 0C10.504 0 9.24998 0.96525 8.75423 2.172C8.57423 2.62125 8.49248 3.102 8.51648 3.58575C8.18873 3.2295 7.78973 2.9445 7.34873 2.754C6.88373 2.562 6.38348 2.47725 5.88398 2.496C4.99298 2.523 4.14923 2.88675 3.51698 3.516C2.45798 4.57425 2.25473 6.141 2.75498 7.34775C2.93123 7.77675 3.22373 8.16375 3.57098 8.49975C3.09473 8.48775 2.61398 8.574 2.17298 8.754C0.966227 9.24975 0.000976562 10.5037 0.000976562 12C0.000976562 13.4963 0.966227 14.7502 2.17298 15.246C2.60573 15.4297 3.09473 15.4958 3.58673 15.4838C3.22748 15.8198 2.93498 16.215 2.75498 16.6515C2.25473 17.8582 2.45798 19.4258 3.51698 20.4832C4.57523 21.5422 6.14198 21.7455 7.34873 21.2453C7.78148 21.0653 8.17673 20.772 8.51648 20.4135C8.50073 20.9055 8.57048 21.3945 8.75423 21.8273C9.24998 23.034 10.504 23.9993 12.0002 23.9993C13.4965 23.9993 14.7505 23.034 15.2462 21.8273C15.4262 21.378 15.508 20.8973 15.484 20.4135C15.8237 20.7698 16.2152 21.0653 16.6517 21.2453C17.8585 21.7455 19.426 21.5422 20.4835 20.4832C21.5425 19.425 21.7457 17.8582 21.2455 16.6515C21.0542 16.2105 20.7692 15.8115 20.4137 15.4838C20.8975 15.5078 21.379 15.426 21.8275 15.246C23.0342 14.7502 23.9995 13.4963 23.9995 12C23.9995 10.5037 23.0342 9.24975 21.8275 8.754C21.3782 8.574 20.8975 8.496 20.4137 8.51625C20.773 8.18025 21.0655 7.785 21.2455 7.3485C21.7457 6.14175 21.5425 4.57425 20.4835 3.51675C19.8512 2.8875 19.0075 2.52375 18.1165 2.49675C17.6162 2.478 17.1167 2.56275 16.6517 2.75475C16.219 2.93475 15.8237 3.228 15.484 3.5865C15.508 3.10275 15.4262 2.62125 15.2462 2.17275C14.7505 0.966 13.4965 0.00075 12.0002 0.00075V0ZM11.9612 1.61325C13.672 1.57425 14.5592 3.645 13.348 4.85925V8.754L16.0982 6C16.0982 4.305 18.148 3.45675 19.3442 4.656C20.5435 5.85225 19.6952 7.902 18.0002 7.902L15.2462 10.6523H19.141C20.3402 9.4575 22.387 10.305 22.387 12C22.387 13.695 20.3402 14.5433 19.141 13.3478H15.2462L18.0002 16.098C19.6952 16.098 20.5435 18.1477 19.3442 19.344C18.148 20.5432 16.0982 19.695 16.0982 18L13.348 15.246V19.1408C14.5427 20.34 13.6952 22.3868 12.0002 22.3868C10.3052 22.3868 9.45698 20.34 10.6525 19.1408V15.246L7.90223 18C7.90223 19.695 5.85248 20.5432 4.65623 19.344C3.45698 18.1477 4.30523 16.098 6.00023 16.098L8.75423 13.3478H4.85948C3.66023 14.5425 1.61348 13.695 1.61348 12C1.61348 10.305 3.66023 9.45675 4.85948 10.6523H8.75423L6.00023 7.902C4.30523 7.902 3.45698 5.85225 4.65623 4.656C5.85248 3.45675 7.90223 4.305 7.90223 6L10.6525 8.754V4.85925C9.46973 3.6765 10.2857 1.6485 11.9612 1.61325Z" fill="black"/>
</g>
<defs>
<clipPath id="clip0_201_58564">
<rect width="24" height="24" fill="white"/>
</clipPath>
</defs>
</svg>
