<svg width="24" height="24" viewBox="0 0 24 24" fill="none" xmlns="http://www.w3.org/2000/svg">
<g clip-path="url(#clip0_201_57290)">
<path d="M12 24C5.37075 24 0 18.6292 0 12C0 5.37075 5.37075 0 12 0C18.6292 0 24 5.37075 24 12C24 18.6292 18.6292 24 12 24ZM10.8555 13.0702C10.8555 11.7773 10.0935 11.0505 8.99625 11.0505C8.6565 11.0505 8.3595 11.121 8.13675 11.2733V9.5505C8.13675 9.23025 7.93725 9.066 7.53525 9.066C7.13325 9.066 6.93375 9.23025 6.93375 9.5505V14.0858C6.93375 14.3903 6.93375 14.6873 7.34775 14.922C7.707 15.1252 8.172 15.2265 8.676 15.2265C10.0747 15.2265 10.8555 14.3827 10.8555 13.0702ZM8.13675 14.121V12.1987C8.301 12.078 8.496 12.015 8.69925 12.0187C9.258 12.0187 9.62475 12.4328 9.62475 13.1475C9.62475 13.8585 9.2655 14.253 8.6835 14.253C8.4765 14.253 8.289 14.2103 8.13675 14.1165V14.121ZM13.1055 9.867C13.1055 9.453 12.8085 9.1755 12.3945 9.1755C11.9805 9.1755 11.6873 9.453 11.6873 9.867C11.6873 10.2773 11.9805 10.566 12.3945 10.566C12.8085 10.566 13.1055 10.2773 13.1055 9.867ZM12.996 11.535C12.996 11.211 12.801 11.0505 12.3945 11.0505C11.9925 11.0505 11.793 11.211 11.793 11.535V14.7225C11.793 15.0427 11.9925 15.207 12.3945 15.207C12.801 15.207 12.996 15.0427 12.996 14.7225V11.535ZM16.6365 14.1293C16.5623 14.1293 16.5 14.1487 16.4295 14.1645C16.3477 14.184 16.2495 14.2118 16.152 14.2118C15.9997 14.2118 15.8828 14.157 15.8197 14.0317C15.738 13.8795 15.738 13.6448 15.738 13.4813V12.1373H16.4918C16.8158 12.1373 16.9762 11.973 16.9762 11.6332C16.9762 11.2935 16.8158 11.1292 16.4918 11.1292H15.738V10.3403C15.738 10.0162 15.543 9.85575 15.1365 9.85575C14.7345 9.85575 14.535 10.0162 14.535 10.3403V11.1292H14.2222C13.8982 11.1292 13.7377 11.2935 13.7377 11.6332C13.7377 11.973 13.8982 12.1373 14.2222 12.1373H14.535V13.4813C14.535 13.8953 14.5545 14.2823 14.7345 14.6063C14.9295 14.9655 15.3165 15.2235 15.9653 15.2235C16.3132 15.2235 16.6567 15.1418 16.8517 15.0285C17.0235 14.9272 17.0662 14.802 17.0662 14.6768C17.0662 14.4818 16.9688 14.13 16.6365 14.13V14.1293Z" fill="black"/>
</g>
<defs>
<clipPath id="clip0_201_57290">
<rect width="24" height="24" fill="white"/>
</clipPath>
</defs>
</svg>
