<svg width="24" height="24" viewBox="0 0 24 24" fill="none" xmlns="http://www.w3.org/2000/svg">
<g clip-path="url(#clip0_201_58410)">
<path d="M8.31674 1.73472C8.59424 1.57047 8.86724 1.40247 9.14474 1.29297C9.25799 1.57047 9.42224 1.84797 9.53549 2.12097C8.92574 2.45322 8.31674 2.73072 7.76174 3.11697C-0.38701 8.06622 0.86324 13.6912 4.38299 14.1952C6.78149 14.6445 9.72674 13.1017 11.805 11.871C13.3792 10.8862 14.7975 9.94497 14.7975 8.82372C14.7975 8.10897 13.9732 7.76922 13.3012 7.88247C11.133 8.42547 8.23124 11.4255 5.82449 11.4255C4.72649 11.4255 3.92999 10.5855 4.05074 9.59697C4.20299 7.75722 5.94149 6.37047 7.53899 5.44497C10.125 3.74997 13.5622 2.24547 16.6207 2.39772C24.2692 2.66322 28.851 12.2145 15.6247 20.5657C14.1247 21.5152 11.7067 22.554 11.1952 22.7257C10.9725 21.7297 10.6402 20.73 10.422 19.7332C12.84 18.5925 13.5667 18.4522 16.2345 16.4092C18.4807 14.616 20.637 12.495 21 9.59697C21.0547 8.93322 21.0547 8.32347 20.8867 7.65972C19.9882 4.56972 15.8167 1.38597 7.98449 6.60897C7.16774 7.08522 5.82449 8.04672 5.82449 8.98797C5.82449 9.21072 5.98874 9.48822 6.21149 9.54297C7.41449 10.059 10.0942 7.35147 12.747 6.44172C14.8252 5.70747 16.923 6.48897 17.2897 8.32422C17.3445 8.82447 17.3445 9.32022 17.1802 9.76572C16.5862 11.3085 15.153 12.426 13.6882 13.3672C12.1567 14.2072 10.602 15.4065 7.20749 16.3005C4.89524 16.9335 1.94174 16.5892 0.72674 14.5267C0.23099 13.7535 0.00823975 12.8122 0.00823975 11.925C0.0629897 10.8705 0.28574 9.81972 0.72674 8.87772C1.50374 7.27197 2.66399 5.83047 4.05074 4.67097C5.37074 3.51072 6.82049 2.50722 8.37074 1.67847L8.31674 1.73472Z" fill="black"/>
</g>
<defs>
<clipPath id="clip0_201_58410">
<rect width="24" height="24" fill="white"/>
</clipPath>
</defs>
</svg>
