<svg width="24" height="24" viewBox="0 0 24 24" fill="none" xmlns="http://www.w3.org/2000/svg">
<path d="M12 2.00024C5.53875 2.00024 0.48 10.2195 0 17.16C2.02725 20.6797 6.91425 21.9997 12 21.9997C17.0858 21.9997 21.9772 20.6797 24 17.16C23.52 10.2187 18.4613 2.00024 12 2.00024ZM12.1478 20.3977C2.6085 20.3977 1.695 16.3665 1.695 16.3665L1.875 15.3907C1.875 15.3907 4.5 9.71849 6.14775 9.71849C7.80075 9.71849 8.48775 12.0585 9.84 12.0585C11.1908 12.0585 14.1128 6.87074 15.1642 6.87074C16.2113 6.87074 17.9843 8.81999 19.434 10.6207C20.883 12.4215 22.3118 15.5077 22.3118 15.5077L22.305 15.5385L22.4528 16.4257C22.4528 16.4257 21.6877 20.3977 12.1478 20.3977Z" fill="black"/>
</svg>
