<svg width="24" height="24" viewBox="0 0 24 24" fill="none" xmlns="http://www.w3.org/2000/svg">
<g clip-path="url(#clip0_201_57516)">
<path d="M10.9493 0.312702C11.586 -0.105048 12.414 -0.105048 13.0507 0.312702L22.383 6.43345C22.926 6.7852 23.25 7.39045 23.25 8.0347V15.9645C23.25 16.6087 22.926 17.2147 22.383 17.5657L13.0507 23.6865C12.414 24.1042 11.586 24.1042 10.9493 23.6865L1.617 17.5657C1.074 17.214 0.75 16.6087 0.75 15.9645V8.0347C0.75 7.39045 1.074 6.78445 1.617 6.43345L10.9493 0.312702ZM12.75 7.49995V8.24995H6.75C6.336 8.24995 6 8.58595 6 8.99995V12H5.49975C5.36325 12 5.25 12.1132 5.25 12.2497V14.7495C5.25 14.886 5.36325 14.9992 5.49975 14.9992H6V16.4992C6 16.9132 6.336 17.2492 6.75 17.2492H17.25C17.664 17.2492 18 16.9132 18 16.4992V14.9992H18.5002C18.6367 14.9992 18.75 14.886 18.75 14.7495V12.2497C18.75 12.1132 18.6367 12 18.5002 12H18V8.99995C18 8.58595 17.664 8.24995 17.25 8.24995H13.5V5.4997C13.5 5.3632 13.3868 5.24995 13.2502 5.24995H11.5005C11.364 5.24995 11.2508 5.3632 11.2508 5.4997V7.24945C11.2508 7.38595 11.364 7.4992 11.5005 7.4992L12.75 7.49995ZM16.035 12.5895L14.4645 14.16C14.3475 14.277 14.1517 14.277 14.0347 14.16L13.0897 13.215C12.9727 13.098 12.9727 12.9022 13.0897 12.7852L13.41 12.465C13.527 12.348 13.7227 12.348 13.8397 12.465L14.25 12.8752L15.285 11.8402C15.402 11.7232 15.5977 11.7232 15.7147 11.8402L16.035 12.1605C16.152 12.2775 16.152 12.4732 16.035 12.5902V12.5895ZM9.465 14.16C9.348 14.277 9.15225 14.277 9.03525 14.16L8.09025 13.215C7.9695 13.098 7.9695 12.9022 8.09025 12.7852L8.4105 12.465C8.5275 12.348 8.71875 12.348 8.84025 12.465L9.2505 12.8752L10.2855 11.8402C10.4025 11.7195 10.5938 11.7195 10.7153 11.8402L11.0355 12.1605C11.1525 12.2775 11.1525 12.4687 11.0355 12.5902L9.465 14.16Z" fill="black"/>
</g>
<defs>
<clipPath id="clip0_201_57516">
<rect width="24" height="24" fill="white"/>
</clipPath>
</defs>
</svg>
