<svg width="24" height="24" viewBox="0 0 24 24" fill="none" xmlns="http://www.w3.org/2000/svg">
<g clip-path="url(#clip0_201_57684)">
<path d="M12.8978 1.23376C12.5348 1.23376 12.1755 1.24576 11.8155 1.25401C11.5973 1.22326 11.4443 1.47676 11.4645 1.66801C11.4293 2.67976 11.4878 3.69076 11.4488 4.70326C11.4098 5.54701 10.8945 6.30151 10.227 6.78526C9.72675 7.12951 9.105 7.21951 8.55525 7.44526C8.676 8.22751 8.988 9.00451 9.609 9.51601C10.8008 10.5698 12.8363 10.3793 13.7813 9.09001C14.727 8.01976 14.2343 6.51976 14.3835 5.23801C14.6723 4.75801 15.3203 5.10526 15.6998 4.74601C15.36 3.49576 14.892 2.21926 13.9778 1.27276C13.6178 1.24576 13.2585 1.23001 12.8955 1.23376H12.8978ZM2.47725 1.24201C0.531001 2.99176 -0.386999 5.79676 0.152251 8.35876C0.539251 10.4138 1.836 12.2535 3.60525 13.359C3.738 13.1288 3.83625 12.8828 3.69525 12.6293C2.742 9.81226 3.555 6.50851 5.6805 4.43851C5.6955 3.45376 5.72325 2.46151 5.67675 1.47751L5.4885 1.26226C4.48425 1.21126 3.48075 1.26226 2.48025 1.24201H2.47725ZM20.355 1.29676L20.1518 1.65151C20.418 2.58976 20.754 3.51526 20.871 4.48351C21.453 8.03026 20.469 11.8005 18.258 14.6243C16.4408 16.9793 13.8158 18.6983 10.926 19.3973C8.26575 20.058 5.40975 19.8473 2.859 18.8543C2.793 18.933 2.652 19.0935 2.586 19.1753C5.25 21.804 9.129 23.1443 12.8438 22.671C15.918 22.3433 18.84 20.808 20.8665 18.4763C22.8008 16.2885 23.9483 13.4055 23.9918 10.4835C24.1125 7.10176 22.785 3.66376 20.355 1.29676Z" fill="black"/>
</g>
<defs>
<clipPath id="clip0_201_57684">
<rect width="24" height="24" fill="white"/>
</clipPath>
</defs>
</svg>
