<svg width="24" height="24" viewBox="0 0 24 24" fill="none" xmlns="http://www.w3.org/2000/svg">
<path d="M5.30097 17.6287H11.649C12.1492 17.6287 12.54 17.2305 12.54 16.7302C12.54 16.23 12.1417 15.8392 11.6415 15.8392H5.30172C4.80147 15.8392 4.41072 16.2375 4.41072 16.7302C4.41072 17.2305 4.80897 17.6287 5.30922 17.6287H5.30097ZM16.578 13.7692C16.578 13.269 16.1797 12.8707 15.6795 12.8707H6.53847C6.03822 12.8707 5.64747 13.269 5.64747 13.7692C5.64747 14.2695 6.04947 14.6715 6.54972 14.6715H15.6982C16.1985 14.6715 16.6005 14.2695 16.6005 13.7692H16.578ZM18.4417 10.8007C18.426 10.3162 18.0352 9.93 17.5507 9.92175H6.53097C6.03072 9.92175 5.63997 10.3088 5.63997 10.8083C5.63997 11.3077 6.03822 11.6993 6.53847 11.6993H17.55C18.0502 11.6993 18.441 11.301 18.441 10.8007H18.4417ZM5.64072 7.82025C5.64072 8.3205 6.03897 8.71125 6.53922 8.71125H16.0395C16.5315 8.71125 16.9222 8.30925 16.9222 7.809C16.9222 7.32075 16.5202 6.93 16.0312 6.93H6.53097C6.03072 6.93 5.63997 7.32075 5.63997 7.821L5.64072 7.82025ZM7.92222 3.96075H5.30097C4.80072 3.96075 4.40997 4.359 4.40997 4.85925C4.40997 5.3595 4.80822 5.75025 5.30847 5.75025H7.94922C8.44947 5.75025 8.85147 5.352 8.85147 4.85175C8.82822 4.3515 8.41797 3.96075 7.92147 3.96075H7.92222ZM22.8712 20.8005C22.875 20.277 22.4535 19.8555 21.93 19.8592H4.69947C3.74997 19.8592 2.96922 19.0583 2.96922 18.1208V3.57C2.96922 2.6205 3.75072 1.83975 4.69947 1.83975H19.2502C20.1997 1.83975 20.9887 2.60175 20.9887 3.57V15.3705C20.9887 15.8707 21.411 16.2885 21.891 16.2885C22.3987 16.2885 22.821 15.8707 22.821 15.3705V3.57C22.821 1.60125 21.2197 0 19.251 0H4.70022C2.72772 0 1.13022 1.5975 1.13022 3.57V18.1208C1.13022 20.0895 2.73147 21.6908 4.70022 21.6908H20.3992L22.872 23.9993L22.8712 20.8005Z" fill="black"/>
</svg>
