<svg width="24" height="24" viewBox="0 0 24 24" fill="none" xmlns="http://www.w3.org/2000/svg">
<path d="M0 13.8749V17.6212C0 19.6882 5.37075 21.3629 12 21.3629V17.6212C5.37075 17.6212 0 15.9412 0 13.8794V13.8749ZM21.3832 16.2067L12 13.8749V17.6212L21.3832 19.9529C23.0205 19.3117 24 18.5039 24 17.6212V13.8749C24 14.7577 23.0198 15.5662 21.3832 16.2067ZM12 10.1332V13.8749C5.37075 13.8749 0 12.1987 0 10.1332V6.37945C0 4.3162 5.37075 2.6377 12 2.6377C18.6248 2.6377 24 4.31695 24 6.38395V10.1339C24 11.0167 23.0198 11.8207 21.3832 12.4657L12 10.1294V10.1332Z" fill="black"/>
</svg>
