<svg width="24" height="24" viewBox="0 0 24 24" fill="none" xmlns="http://www.w3.org/2000/svg">
<path d="M9.31574 9.44925C9.36299 9.5235 9.44099 9.57 9.52649 9.57C9.58949 9.57 9.64424 9.55125 9.68774 9.516L9.70274 9.504C10.0935 9.17625 10.4407 8.844 10.773 8.484C13.98 5.004 12.1087 0.726752 12.0937 0.687752C12.0037 0.477002 12.0615 0.226502 12.2415 0.0937519C12.4372 -0.0434981 12.6795 -0.0269981 12.8587 0.124502C23.7337 10.2375 20.8515 17.9408 20.6445 18.4605C19.7722 21.6015 16.3087 23.8748 12.1987 23.9918C12.0615 24 11.9565 24 11.8357 24C6.98399 24 2.85899 21.012 2.85899 17.1908V17.133C2.85899 11.8358 7.65224 6.609 7.86674 6.39075C8.00399 6.23775 8.21474 6.195 8.39474 6.285C8.57399 6.35925 8.69099 6.53925 8.68349 6.73425C8.64074 7.77 8.85149 8.67225 9.31574 9.43425V9.44925Z" fill="black"/>
</svg>
