<svg width="24" height="24" viewBox="0 0 24 24" fill="none" xmlns="http://www.w3.org/2000/svg">
<g clip-path="url(#clip0_201_58754)">
<path d="M20.1053 12L23.4105 8.29275L18.5595 7.23375L19.0553 2.289L14.5043 4.28475L12 0L9.49576 4.28475L4.94475 2.289L5.44051 7.23375L0.585754 8.289L3.891 11.9963L0.585754 15.711L5.44051 16.7618L4.94025 21.7065L9.49125 19.7145L11.9993 23.9993L14.5035 19.7145L19.0545 21.7065L18.5588 16.7692L23.4135 15.7103L20.1053 12ZM21.711 14.793L18.8483 13.812L16.9493 11.34L19.4775 12.2812L21.711 14.793ZM22.1678 8.69475L19.566 11.613L16.5 10.473L18.3443 7.863L22.1678 8.69475ZM17.883 7.371L16.3478 9.55125L16.4378 6.3915L18.2228 3.97725L17.883 7.371ZM14.5778 4.97325L17.6678 3.621L15.8978 5.99625L12.957 7.047L14.5778 4.97325ZM15.7658 6.74625L15.6675 10.398L12.3278 11.52V7.96875L15.7658 6.74625ZM12 1.30875L13.9688 4.68L12 7.19925L10.0268 4.68L12 1.30875ZM9.42225 4.97325L11.043 7.047L8.094 5.99625L6.33225 3.621L9.42225 4.97325ZM11.6678 7.96875V11.52L8.33176 10.398L8.22975 6.74625L11.6678 7.96875ZM7.56225 6.39075L7.6485 9.5505L6.11775 7.37025L5.778 3.9765L7.56225 6.39075ZM1.82775 8.691L5.652 7.863L7.49176 10.473L4.4295 11.6093L1.82775 8.691ZM4.52325 12.2767L7.05151 11.34L5.14875 13.812L2.28975 14.7892L4.52325 12.2767ZM2.43 15.438L5.35875 14.4382L8.406 15.3323L5.781 16.1685L2.43 15.438ZM5.71125 20.6483L6.102 16.7542L9.21525 15.7703L9.297 19.0785L5.71125 20.6483ZM9.40201 14.9408L5.90175 13.9095L8.12851 11.0197L11.4645 12.1448L9.40201 14.9408ZM11.6678 22.1332L9.95701 19.1955L9.891 16.4265L11.6678 19.0238V22.1332ZM9.93826 15.3323L12 12.531L14.0618 15.3323L12 18.336L9.93826 15.3323ZM14.043 19.1947L12.3278 22.1325V19.0223L14.109 16.425L14.043 19.1947ZM12.5273 12.1448L15.867 11.0197L18.09 13.9095L14.5898 14.9408L12.5273 12.1448ZM14.703 19.0778L14.781 15.7695L17.895 16.7535L18.2813 20.6512L14.703 19.0778ZM18.219 16.1677L15.594 15.3315L18.6413 14.4338L21.57 15.438L18.219 16.1677Z" fill="black"/>
</g>
<defs>
<clipPath id="clip0_201_58754">
<rect width="24" height="24" fill="white"/>
</clipPath>
</defs>
</svg>
