<svg width="24" height="24" viewBox="0 0 24 24" fill="none" xmlns="http://www.w3.org/2000/svg">
<g clip-path="url(#clip0_201_58326)">
<path d="M13.938 4.07404C17.1952 3.78904 20.4487 2.09779 23.7067 3.53479V23.4255C19.215 21.4373 14.7225 25.4138 10.23 23.4255V19.9298C6.91798 20.199 3.60523 21.9135 0.293228 20.469V0.578292C4.84423 2.56654 9.39148 -1.40996 13.938 0.578292V4.07404ZM16.4182 14.871C16.812 14.7848 17.2035 14.6948 17.5942 14.6093C19.3282 14.2305 20.0205 13.2075 20.0205 11.598V9.00004C20.0205 7.41379 19.5742 6.41029 17.4652 6.86329C16.2892 7.12129 15.1132 7.40629 13.938 7.51204V20.4773C14.766 20.406 15.5902 20.2425 16.4182 20.0625V14.871ZM16.4182 12.762V9.10204L16.887 8.99629C17.4652 8.86729 17.52 9.15229 17.52 9.62554V11.7855C17.52 12.1883 17.4652 12.5318 16.887 12.6563L16.4182 12.762ZM6.53098 17.109V11.5658L7.05523 11.4525C7.55923 11.3438 7.70323 11.4683 7.70698 12.0773V15.8625C7.70698 16.4378 7.80073 16.6943 7.92973 16.8083C8.75773 16.6365 9.58573 16.4835 10.41 16.4295V16.3433C10.32 16.194 10.2067 15.96 10.2067 15.3975V10.9875C10.2067 10.0268 9.53473 9.65929 9.14473 9.58954C9.60898 9.31579 10.242 8.78854 10.242 7.71079V5.63704C10.242 4.24579 9.47998 3.51229 7.96873 3.83179C6.65998 4.10479 5.35498 4.43779 4.05073 4.55104V17.52C4.87498 17.4488 5.70298 17.289 6.53098 17.109ZM6.53098 9.42604V6.14779C6.71923 6.10504 6.90223 6.06604 7.08973 6.02254C7.59373 5.91379 7.70698 6.06529 7.70698 6.62479V8.38279C7.70698 8.99179 7.52023 9.20704 7.01623 9.31579L6.53098 9.42604Z" fill="black"/>
</g>
<defs>
<clipPath id="clip0_201_58326">
<rect width="24" height="24" fill="white"/>
</clipPath>
</defs>
</svg>
