<svg width="24" height="24" viewBox="0 0 24 24" fill="none" xmlns="http://www.w3.org/2000/svg">
<g clip-path="url(#clip0_201_58454)">
<path d="M0 0V24H24V0H0ZM14.1757 15.7927C13.5307 16.3785 12.7657 16.6635 11.8665 16.6635C10.9642 16.6635 10.2022 16.5263 9.54225 16.2577C8.89425 15.9878 8.565 15.7335 8.565 15.477L8.487 15.5737C8.487 15.441 8.56875 15.2497 8.733 14.988C8.89725 14.727 9.042 14.598 9.17475 14.598C9.18675 14.598 9.29175 14.6558 9.48675 14.781C9.6825 14.9062 9.96 15.027 10.323 15.1522C10.6868 15.2775 11.1278 15.3405 11.64 15.3405C12.1673 15.3405 12.585 15.1912 12.9172 14.8988C13.245 14.6055 13.4093 14.2118 13.4093 13.7115C13.4093 13.2112 13.2615 12.8205 12.9765 12.5392C12.6908 12.258 12.1042 11.9963 11.2335 11.7502C10.3665 11.5005 9.7335 11.184 9.34725 10.8053C8.9565 10.4183 8.7615 9.83625 8.7615 9.0555C8.7615 8.27325 9.0585 7.6215 9.65925 7.09425C10.2615 6.555 11.0385 6.297 11.9992 6.297C12.675 6.297 13.2615 6.37125 13.7843 6.55125C14.3085 6.71925 14.565 6.9105 14.565 7.1055C14.565 7.2705 14.487 7.49625 14.3392 7.7505C14.187 8.0205 14.0542 8.14125 13.9485 8.14125C13.9335 8.14125 13.8585 8.0985 13.6905 8.0205C13.2577 7.78125 12.7612 7.6605 12.2062 7.6605C11.6512 7.6605 11.229 7.76625 10.917 7.99275C10.6163 8.2155 10.4677 8.517 10.4677 8.8755C10.4677 9.234 10.5885 9.5205 10.8105 9.7305C11.0332 9.94125 11.4247 10.1213 11.9782 10.3012C13.209 10.6762 14.0332 11.0782 14.4713 11.5312C14.904 11.9805 15.1312 12.6562 15.1312 13.5555C15.1312 14.4532 14.8185 15.2032 14.1742 15.7897L14.1757 15.7927Z" fill="black"/>
</g>
<defs>
<clipPath id="clip0_201_58454">
<rect width="24" height="24" fill="white"/>
</clipPath>
</defs>
</svg>
