<svg width="24" height="24" viewBox="0 0 24 24" fill="none" xmlns="http://www.w3.org/2000/svg">
<g clip-path="url(#clip0_201_57164)">
<path d="M19.7497 0.300781H4.24949C1.89749 0.300781 -0.000762939 2.19903 -0.000762939 4.55103V19.449C-0.000762939 21.801 1.89749 23.6993 4.24949 23.6993H19.7497C22.1017 23.6993 24 21.801 24 19.449V4.55103C24 2.19903 22.1017 0.300781 19.7497 0.300781ZM22.9882 19.059C23.0002 21.066 21.375 22.6988 19.371 22.6988H4.62899C2.62874 22.6988 0.999737 21.0698 0.999737 19.059V4.94103C0.999737 2.93028 2.62874 1.30128 4.62899 1.30128H19.359C21.363 1.30128 22.9882 2.92653 22.9882 4.93053V19.059ZM6.64799 16.629C6.53099 16.629 6.50024 16.578 6.50024 16.4798V5.73003C6.50024 5.64828 6.53099 5.60178 6.62099 5.60178H8.19899C8.28074 5.60178 8.30099 5.62878 8.30099 5.71878V14.9798H12.4222C12.5002 14.9798 12.531 15.012 12.5122 15.102L12.2625 16.5203C12.2385 16.602 12.1912 16.641 12.1095 16.641H6.64874L6.64799 16.629ZM14.148 10.1483C14.148 10.0313 14.148 9.73803 14.1022 9.18003C14.1022 9.10203 14.121 9.07803 14.1802 9.05103C14.7892 8.80128 16.2382 8.35878 17.859 8.35878C17.9407 8.35878 17.9797 8.37903 17.9797 8.46078V9.89778C17.9797 9.97953 17.949 9.99978 17.859 9.99978C17.2297 9.96903 16.3012 10.0508 15.9487 10.1985V16.5113C15.9487 16.5893 15.9217 16.6283 15.828 16.6283H14.262C14.1802 16.6283 14.1412 16.6013 14.1412 16.5113V10.1475L14.148 10.1483Z" fill="black"/>
</g>
<defs>
<clipPath id="clip0_201_57164">
<rect width="24" height="24" fill="white"/>
</clipPath>
</defs>
</svg>
