<svg width="24" height="24" viewBox="0 0 24 24" fill="none" xmlns="http://www.w3.org/2000/svg">
<g clip-path="url(#clip0_201_57750)">
<path d="M1.5 9.6795C0.672 9.6795 0 10.3515 0 11.1795V12.8085C0 14.8087 3 14.8087 3 12.8085V11.1795C3 10.3515 2.328 9.6795 1.5 9.6795ZM22.5 9.6795C21.672 9.6795 21 10.3515 21 11.1795V12.8085C21 14.8087 24 14.8087 24 12.8085V11.1795C24 10.3515 23.328 9.6795 22.5 9.6795ZM6.6795 14.5897C5.8515 14.5897 5.1795 15.2617 5.1795 16.0897V17.7188C5.1795 19.719 8.1795 19.719 8.1795 17.7188V16.1017C8.1795 15.27 7.51125 14.6017 6.6795 14.6017V14.5897ZM6.6795 4.76925C5.8515 4.76925 5.1795 5.44125 5.1795 6.26925V11.6287C5.1795 13.629 8.1795 13.629 8.1795 11.6287V6.26175C8.1795 5.43 7.51125 4.76175 6.6795 4.76175V4.76925ZM17.3205 4.76925C16.4888 4.76925 15.8205 5.44125 15.8205 6.26925V7.91025C15.8205 9.9105 18.8205 9.9105 18.8205 7.91025V6.26925C18.8205 5.44125 18.1485 4.76925 17.3205 4.76925ZM12 0C11.172 0 10.5 0.672 10.5 1.5V3.129C10.5 5.12925 13.5 5.12925 13.5 3.129V1.5C13.5 0.672 12.828 0 12 0V0ZM12 19.3597C11.172 19.3597 10.5 20.0317 10.5 20.8597V22.5007C10.4925 24.501 13.4925 24.5123 13.5 22.5128V20.8717C13.5 20.0513 12.828 19.3717 12 19.3717V19.3597ZM17.3205 10.8983C16.4888 10.8983 15.8205 11.5778 15.8205 12.3983V17.73C15.8205 19.7302 18.8205 19.7302 18.8205 17.73V12.3983C18.8205 11.5703 18.1485 10.8983 17.3205 10.8983ZM12 6.129C11.172 6.129 10.5 6.8085 10.5 7.629V16.3597C10.5 18.36 13.5 18.36 13.5 16.3597V7.641C13.5 6.80925 12.828 6.141 12 6.141V6.129Z" fill="black"/>
</g>
<defs>
<clipPath id="clip0_201_57750">
<rect width="24" height="24" fill="white"/>
</clipPath>
</defs>
</svg>
