<svg width="24" height="24" viewBox="0 0 24 24" fill="none" xmlns="http://www.w3.org/2000/svg">
<g clip-path="url(#clip0_201_57562)">
<path d="M12 0C5.37075 0 0 5.37075 0 12C0 18.6292 5.37075 24 12 24C18.6292 24 24 18.6292 24 12C24 5.37075 18.6292 0 12 0ZM12 23.0002C5.92575 23.0002 0.99975 18.0742 0.99975 12C0.99975 5.92575 5.92575 0.99975 12 0.99975C18.0742 0.99975 23.0002 5.92575 23.0002 12C23.0002 18.0742 18.0742 23.0002 12 23.0002ZM22.2188 12C22.2188 16.8045 18.9023 20.832 14.4338 21.9255C14.1645 21.402 13.9028 20.9062 13.6838 20.4877C14.328 20.7337 15.6135 21.2025 15.891 21.1012C16.2698 20.9565 16.176 17.9527 15.7545 17.8552C15.4148 17.781 14.1217 18.6953 13.6102 19.0665L13.6455 19.2225C13.7235 19.617 13.7902 20.2148 13.677 20.4683C13.677 20.472 13.6733 20.4802 13.6733 20.4802C13.6575 20.5155 13.6342 20.547 13.6027 20.5702C13.3215 20.7577 12.5242 20.8552 12.1027 20.7577C12.0795 20.754 12.06 20.7457 12.036 20.7382C11.3445 21.1327 10.0283 21.8475 9.786 21.711C9.4575 21.5198 9.411 19.0312 9.4575 18.4222C9.49275 17.961 11.1097 18.7073 11.8988 19.1017C12.0743 18.9375 12.5003 18.828 12.879 18.789C12.309 17.4023 11.8905 15.8122 12.1448 14.6835C12.1448 14.6872 12.1485 14.6873 12.1485 14.6873C12.504 14.9333 14.8793 15.738 16.059 15.7147C17.2388 15.6915 19.1722 14.9722 18.9615 14.3903C18.7507 13.812 16.8247 14.9017 14.8207 14.7142C13.3327 14.5777 13.071 13.9095 13.3988 13.425C13.8127 12.8115 14.5665 13.5382 15.8092 13.167C17.055 12.7957 18.7973 12.132 19.4422 11.7727C20.9385 10.9365 18.8175 10.593 18.3172 10.8232C17.8447 11.046 16.1962 11.46 15.4305 11.6437C15.8565 10.128 14.8252 7.4955 13.6725 6.34275C13.2975 5.96775 12.7193 5.733 12.0668 5.6085C11.817 5.265 11.4142 4.9365 10.8442 4.632C9.73875 4.05375 8.47725 3.84675 7.2465 4.04625L7.22325 4.05L7.19175 4.05375L7.1955 4.0575C7.047 4.0845 6.957 4.1355 6.83625 4.155C6.98475 4.17075 7.5435 4.4325 7.8945 4.57275C7.719 4.6395 7.4805 4.68225 7.29675 4.7565C7.22625 4.7685 7.16025 4.7835 7.0935 4.81125C6.92175 4.893 6.789 5.18625 6.79275 5.32725C7.63275 5.241 8.87475 5.304 9.78525 5.57325C9.141 5.66325 8.55075 5.83125 8.12475 6.05775C8.109 6.06525 8.09325 6.0735 8.07375 6.08475C8.02275 6.10425 7.968 6.1275 7.92525 6.1515C6.558 6.87 5.95275 8.55375 6.312 10.5735C6.636 12.3975 7.97625 18.663 8.601 21.6398C4.62825 20.2373 1.7805 16.452 1.7805 11.9992C1.7805 6.35475 6.35475 1.7805 11.9992 1.7805C17.6437 1.7805 22.218 6.35475 22.218 11.9992L22.2188 12ZM9.09375 9.582C8.676 9.582 8.33625 9.92175 8.33625 10.3395C8.33625 10.7572 8.676 11.097 9.09375 11.097C10.1055 11.097 10.1055 9.58125 9.09375 9.58125V9.582ZM9.4335 10.281C9.324 10.281 9.2385 10.1947 9.2385 10.086C9.2385 9.98025 9.32475 9.891 9.4335 9.891C9.69525 9.891 9.69525 10.2817 9.4335 10.2817V10.281ZM14.1562 9.2385C13.7887 9.2265 13.4805 9.51975 13.4805 9.891C13.4805 10.2585 13.7887 10.5548 14.1562 10.5398C15.0232 10.5398 15.0232 9.23925 14.1562 9.23925V9.2385ZM14.445 9.84C14.355 9.84 14.277 9.76575 14.277 9.672C14.277 9.582 14.355 9.504 14.445 9.504C14.6715 9.504 14.6715 9.84 14.445 9.84ZM9.31275 8.14425C9.31275 8.14425 8.74275 7.88625 8.18775 8.23425C7.63275 8.586 7.65225 8.9415 7.65225 8.9415C7.65225 8.9415 7.359 8.28525 8.14425 7.96125C8.9295 7.641 9.312 8.145 9.312 8.145L9.31275 8.14425ZM14.5507 8.094C14.5507 8.094 14.1405 7.85925 13.8202 7.86375C13.164 7.87125 12.9885 8.16075 12.9885 8.16075C12.9885 8.16075 13.098 7.473 13.9335 7.61025C14.2072 7.66125 14.4375 7.8405 14.5507 8.09475V8.094Z" fill="black"/>
</g>
<defs>
<clipPath id="clip0_201_57562">
<rect width="24" height="24" fill="white"/>
</clipPath>
</defs>
</svg>
