<svg width="24" height="24" viewBox="0 0 24 24" fill="none" xmlns="http://www.w3.org/2000/svg">
<g clip-path="url(#clip0_201_57250)">
<path d="M20.496 9.02702C18.312 8.09777 15.3788 7.49627 12.246 7.33202C11.7458 7.30127 11.2583 7.28927 10.797 7.28927C13.113 4.46102 15.5978 2.56202 17.2343 2.50052C17.5553 2.48852 17.8283 2.55527 18.0473 2.69552C18.7545 3.15677 18.9495 4.46552 18.5903 6.28577C18.5513 6.53552 18.711 6.78152 18.9495 6.82877C19.1993 6.87977 19.4415 6.72002 19.4925 6.46952C19.9418 4.18877 19.6095 2.62127 18.5513 1.93052C18.1725 1.68077 17.7113 1.56227 17.199 1.58252C15.1523 1.66052 12.2618 3.88352 9.60903 7.30577C8.45703 7.34102 7.37103 7.43477 6.37878 7.59077C5.73378 4.69202 5.98803 2.61377 6.97278 2.11352C7.10853 2.03927 7.25778 2.00477 7.42953 1.98827C8.12853 1.93427 9.08928 2.38352 10.1408 3.25802C10.3358 3.41777 10.6245 3.39827 10.785 3.19877C10.9493 3.00377 10.9223 2.71877 10.7273 2.55452C9.46503 1.51127 8.30553 0.999771 7.35528 1.06952C7.06653 1.09352 6.79728 1.16777 6.55128 1.28852C5.35953 1.89752 4.88328 3.61652 5.18028 6.12827C5.25003 6.64727 5.34003 7.19027 5.47353 7.74527C2.19153 8.40152 0.102778 9.71852 0.012778 11.37C-0.050222 12.5423 0.876028 13.6553 2.69178 14.5928C2.91453 14.7098 3.19203 14.6235 3.30978 14.394C3.42678 14.1713 3.34053 13.8938 3.10953 13.776C1.66053 13.0298 0.879778 12.1898 0.926278 11.421C0.977278 10.3388 2.69928 9.22877 5.68803 8.64002C5.95728 9.63227 6.30903 10.671 6.73803 11.7293C5.71878 13.6163 4.98003 15.4763 4.60203 17.1285C4.03878 19.5938 4.34028 21.3518 5.46078 22.0778C5.82003 22.3118 6.23778 22.4295 6.70653 22.4295C7.64028 22.4295 8.77278 21.9683 10.0545 21.0548C10.2653 20.9055 10.3088 20.6205 10.1633 20.4135C10.0155 20.2103 9.72903 20.1593 9.52203 20.3085C7.97928 21.4133 6.67878 21.7808 5.96028 21.3113C5.20203 20.8155 5.03403 19.3703 5.50353 17.3355C5.81928 15.9488 6.40953 14.4053 7.21053 12.8153C7.40928 13.2533 7.62078 13.6905 7.83978 14.1285C9.26553 16.9253 11.0115 19.3545 12.75 20.9768C14.1368 22.266 15.426 22.938 16.4843 22.938C16.836 22.938 17.1645 22.863 17.4615 22.7153C18.6053 22.1295 19.1025 20.5043 18.8595 18.141C18.6375 15.9263 17.8013 13.23 16.5045 10.539C16.3958 10.3118 16.1213 10.2188 15.8955 10.3238C15.6645 10.434 15.5663 10.7108 15.6765 10.938C18.3638 16.539 18.5558 21.1253 17.0475 21.8948C15.4538 22.7108 11.6213 19.539 8.65653 13.7145C8.31678 13.0613 8.02053 12.4133 7.75428 11.7848C8.09403 11.1795 8.45328 10.566 8.85228 9.95702C9.24603 9.35177 9.65628 8.76977 10.074 8.21102H10.4693C11.0085 8.21102 11.5943 8.22302 12.2033 8.25827C18.7305 8.60252 23.1765 10.8203 23.0865 12.594C23.0475 13.359 22.1603 14.133 20.6603 14.715C20.4263 14.8088 20.3093 15.0743 20.4023 15.309C20.4735 15.4883 20.6415 15.6023 20.8283 15.6023C20.8875 15.6023 20.9415 15.5903 20.9925 15.57C22.8983 14.832 23.9453 13.8158 24.0045 12.6413C24.0743 11.3123 22.8368 10.0313 20.5043 9.03902V9.03077L20.496 9.02702ZM8.07828 9.44927C7.80903 9.86327 7.55928 10.2773 7.31628 10.695C7.02303 9.92627 6.78528 9.18377 6.59403 8.48027C7.30503 8.36702 8.07828 8.28902 8.90178 8.23802C8.62053 8.62877 8.34753 9.03077 8.08203 9.44927V9.43802L8.07828 9.44927ZM12.0038 10.6253C10.1715 10.6253 10.1715 13.3755 12.0038 13.3755C13.8398 13.3755 13.8398 10.6253 12.0038 10.6253Z" fill="black"/>
</g>
<defs>
<clipPath id="clip0_201_57250">
<rect width="24" height="24" fill="white"/>
</clipPath>
</defs>
</svg>
