<svg width="24" height="24" viewBox="0 0 24 24" fill="none" xmlns="http://www.w3.org/2000/svg">
<path d="M19.7227 20.2732L19.746 20.226C19.7692 20.1907 19.785 20.1517 19.8007 20.109V20.1052C19.875 19.9102 19.8907 19.7032 19.8555 19.4955V19.503C19.8165 19.284 19.7385 19.0732 19.6207 18.882L19.6282 18.8895L14.3077 9.53398L13.4955 8.11573L7.37849 18.8895C7.27274 19.077 7.20674 19.2802 7.17149 19.491V19.503C7.12874 19.7452 7.15574 19.9912 7.25324 20.2177L7.24949 20.2102C7.26149 20.2455 7.28099 20.277 7.30049 20.3115L7.29674 20.3077C7.45724 20.5815 7.79699 20.9092 8.54699 20.9092H18.4455C18.6015 20.9092 19.371 20.8777 19.7265 20.2725L19.7227 20.2732ZM13.4962 10.9567L18.3555 19.5037H8.64074L13.4962 10.9567ZM23.7457 18.891L16.7302 6.53173C16.656 6.39898 16.254 5.74273 15.5467 5.74273C15.2302 5.74273 14.7772 5.87923 14.406 6.52798L13.5 8.11798L14.3047 9.53998L15.555 7.32523L22.4962 19.509H19.8555C19.8907 19.7122 19.8712 19.9192 19.8007 20.1142V20.1067C19.785 20.1495 19.7692 20.193 19.746 20.232V20.2282L19.7227 20.2755C19.3672 20.8807 18.6015 20.9122 18.453 20.9122H22.5817C22.734 20.9122 23.496 20.8807 23.8515 20.2755C24.012 19.998 24.1207 19.5375 23.7457 18.8925V18.891ZM7.30499 20.3085C7.28924 20.277 7.27349 20.2462 7.25774 20.2147V20.211C7.16024 19.9845 7.12874 19.7385 7.17149 19.4962V19.5037H1.49924L9.92924 4.67173L12.6945 9.53473L13.4992 8.11648L11.085 3.86623C11.0182 3.74548 10.6125 3.08923 9.90899 3.08923C9.59249 3.08923 9.13574 3.22573 8.76824 3.87823L0.229494 18.8902C0.155244 19.0192 -0.196506 19.6987 0.155244 20.304C0.315744 20.5815 0.655493 20.9055 1.40549 20.9055H8.55374C7.81124 20.9055 7.46399 20.5852 7.30349 20.304L7.30499 20.3085Z" fill="black"/>
</svg>
