<svg width="24" height="24" viewBox="0 0 24 24" fill="none" xmlns="http://www.w3.org/2000/svg">
<g clip-path="url(#clip0_201_57672)">
<path d="M23.9692 12.3158C23.9692 14.8155 23.1135 17.0348 21.3675 18.996C20.7345 19.7273 20.2275 20.0738 19.8832 20.0738C19.7625 20.0738 19.6252 20.0385 19.5353 19.9485C19.4415 19.8518 19.3875 19.7265 19.3875 19.5975C19.3875 19.4093 19.6095 19.1243 20.0595 18.7103C21.8715 16.9725 22.7858 14.8155 22.7858 12.2535C22.7858 9.40577 21.8445 7.10177 19.9695 5.31527C19.5982 4.97627 19.3988 4.69052 19.3988 4.46402C19.3988 4.34702 19.4618 4.20977 19.563 4.11977C19.6687 4.02977 19.7903 3.97202 19.911 3.97202C20.3288 3.97202 20.9618 4.47902 21.7552 5.49902C23.2515 7.40102 24.0015 9.69377 24.0015 12.3428L23.9692 12.3158ZM0 11.6843C0 9.18452 0.855 6.96527 2.598 5.00027C3.234 4.27352 3.74175 3.92627 4.08975 3.92627C4.20675 3.92627 4.344 3.95702 4.434 4.05152C4.52325 4.14527 4.58175 4.23827 4.58175 4.36352C4.58175 4.55177 4.3545 4.84052 3.906 5.28152C2.12925 7.02752 1.19475 9.17627 1.19475 11.7428C1.19475 14.5905 2.148 16.9028 4.02 18.681C4.398 19.0238 4.58625 19.3133 4.58625 19.5323C4.58625 19.6613 4.527 19.7903 4.4265 19.884C4.32825 19.9778 4.20375 20.04 4.07475 20.04C3.642 20.04 3.0435 19.5323 2.247 18.5243C0.735 16.653 0.00075 14.3723 0.00075 11.685L0 11.6843ZM17.6993 18.5513H6.7155C6.36375 18.5513 6.04725 18.2663 6.04725 17.8875C6.04725 17.5043 6.33225 17.2193 6.7155 17.2193H17.6993C18.0473 17.2193 18.3675 17.5043 18.3675 17.8875C18.3592 18.2708 18.0788 18.5513 17.6993 18.5513ZM11.6993 9.63302C11.895 9.60527 12.0435 10.2458 12.0592 10.383C12.105 10.734 11.988 11.0738 11.8282 11.3828C11.2305 12.5505 9.852 13.488 10.2195 14.961C10.3837 15.594 10.7115 16.035 11.7308 16.578C11.388 16.695 10.9065 16.4693 10.638 16.2773C9.43875 15.4613 8.67675 14.121 8.751 12.6563C8.778 12.195 8.868 11.7383 8.98875 11.289C9.36375 10.008 10.1295 8.89127 10.575 7.64477C10.8022 7.04252 10.9657 6.31952 10.7857 5.69102C10.6957 5.38277 10.5315 5.09027 10.3207 4.83977C10.263 4.76552 9.91875 4.37477 9.7815 4.42202C10.3837 4.19477 10.9222 4.40627 11.4457 4.71902C11.8485 4.96127 12.165 5.30477 12.4028 5.69477C12.8528 6.41402 13.032 7.23752 13.122 8.07377C13.1528 8.42177 13.11 9.26177 13.5128 9.42602C13.935 9.60527 14.2627 8.90177 14.3527 8.61677C14.5477 7.97252 14.2935 7.35452 14.04 6.75752C14.0992 6.87827 14.325 7.01177 14.427 7.10477L14.7863 7.44902C15.2242 7.89827 15.4935 8.45327 15.6735 9.05102C15.8378 9.59027 15.9113 10.1453 15.9427 10.6838C16.0177 11.8088 15.7635 12.9645 15.3135 13.9958C15.1185 14.4608 14.8643 14.895 14.5328 15.27C14.217 15.6413 13.7865 15.8828 13.443 16.227C14.2477 15.4178 14.682 14.0978 14.5643 13.0943C14.5065 12.543 14.3265 12.0315 13.9042 11.523C13.9042 11.523 13.9515 11.883 13.9943 12.105C14.0685 12.6023 13.7362 13.125 13.35 13.0658C13.0642 13.035 13.2128 12.4215 13.2443 12.2265C13.35 11.6445 13.2135 11.0738 12.9982 10.5345C12.7912 10.0223 12.4005 9.62027 11.8035 9.71027L11.6993 9.63302Z" fill="black"/>
</g>
<defs>
<clipPath id="clip0_201_57672">
<rect width="24" height="24" fill="white"/>
</clipPath>
</defs>
</svg>
