<svg width="24" height="24" viewBox="0 0 24 24" fill="none" xmlns="http://www.w3.org/2000/svg">
<g clip-path="url(#clip0_201_57568)">
<path d="M11.1097 0.0231934C10.836 0.0269434 10.5045 0.0351934 10.3717 0.0464434C6.72747 0.359193 3.46947 2.51919 1.57872 5.85894C0.676466 7.47219 0.145466 9.26919 0.020216 11.1127C-0.018784 11.6287 0.000715984 12.8549 0.055466 13.3199C0.359966 16.0034 1.40697 18.3787 3.12597 20.2844C5.08722 22.4564 7.71222 23.7532 10.5637 23.9482C10.9815 23.9797 11.607 23.9872 11.583 23.9602C11.4735 23.9249 11.3602 23.9017 11.2432 23.8859C9.57147 23.5537 7.85622 22.7572 6.46947 21.6517C5.52822 20.8979 4.70022 20.0107 4.01622 19.0192C2.70747 17.0894 1.96572 14.8319 1.88322 12.4994C1.82097 11.0542 2.00847 9.60519 2.44197 8.22594C3.22722 5.70219 4.81272 3.49944 6.91872 1.99569C8.18472 1.08144 9.62547 0.440943 11.157 0.120693L11.5987 0.0231934H11.1097ZM12.582 0.535443C10.6447 0.648693 8.80497 1.30119 7.30047 2.39844C5.42547 3.76944 3.99222 5.64444 3.21822 7.74594C3.07347 8.14419 2.93697 8.56644 2.93697 8.62494C2.93697 8.63694 6.76497 8.64819 13.2457 8.64819C21.7102 8.64819 23.562 8.64069 23.562 8.61294C23.562 8.56569 23.4097 8.08944 23.2807 7.73394C23.1285 7.31619 22.7025 6.42519 22.4602 6.01119C22.062 5.32794 21.5497 4.64019 20.9872 4.01919C19.335 2.19894 17.3932 1.08594 15.1672 0.686943C14.382 0.545943 13.3665 0.487443 12.5812 0.534693L12.582 0.535443ZM23.8282 9.96894C23.8087 9.96894 19.0395 9.96894 13.2225 9.97269L2.64822 9.98019L2.63622 10.0387C2.60097 10.1992 2.50347 11.1209 2.50347 11.2844C2.50347 11.3114 4.28472 11.3159 13.2495 11.3159H23.9992V11.2417C23.9992 11.1404 23.9287 10.4489 23.8935 10.1872C23.874 10.0267 23.8545 9.96819 23.8312 9.96819L23.8282 9.96894ZM13.2577 12.6052C3.88647 12.6014 2.52747 12.6052 2.51547 12.6404C2.49222 12.6794 2.53872 13.1992 2.58972 13.6132C2.60922 13.7692 2.62497 13.9102 2.62497 13.9297C2.62497 13.9529 4.76172 13.9649 13.2502 13.9649H23.871L23.898 13.7737C23.9407 13.4497 23.9992 12.8047 23.9917 12.7072L23.9842 12.6134L13.2577 12.6052ZM13.2615 15.3239C4.37847 15.3239 2.93697 15.3277 2.93697 15.3592C2.93697 15.3787 2.99172 15.5662 3.05772 15.7769C3.49947 17.1479 4.20222 18.4177 5.12772 19.5194C5.40897 19.8629 6.07272 20.5544 6.35847 20.8087C7.92522 22.2074 9.60447 23.0234 11.538 23.3362C12.1432 23.4299 12.4245 23.4494 13.2877 23.4457C14.1982 23.4457 14.5845 23.4142 15.3112 23.2702C17.421 22.8562 19.2255 21.8212 20.8425 20.1022C22.1085 18.7544 22.9477 17.3407 23.4675 15.6884L23.5845 15.3254L13.2615 15.3239Z" fill="black"/>
</g>
<defs>
<clipPath id="clip0_201_57568">
<rect width="24" height="24" fill="white"/>
</clipPath>
</defs>
</svg>
