<svg width="24" height="24" viewBox="0 0 24 24" fill="none" xmlns="http://www.w3.org/2000/svg">
<g clip-path="url(#clip0_201_57910)">
<path d="M16.719 14.7577L11.3873 20.0977C10.02 21.4612 8.09026 21.9262 6.34051 21.492C6.01651 22.9177 4.73926 23.9842 3.21151 23.9842C1.43776 23.9842 0.000762939 22.5465 0.000762939 20.7735C0.000762939 19.254 1.05526 17.9842 2.46976 17.6482C2.02426 15.8902 2.48551 13.9447 3.86401 12.57L4.04401 12.39L6.41476 14.757L6.23101 14.9407C5.46151 15.7177 5.46151 16.9642 6.23101 17.73C7.00051 18.507 8.25451 18.507 9.01651 17.73L9.48151 17.265L14.3528 12.3862L16.719 14.7577ZM17.6445 21.4102C15.8205 21.9727 13.758 21.531 12.3165 20.094L12.1365 19.9065L14.4998 17.5395L14.6798 17.7232C15.4493 18.4927 16.6995 18.4927 17.469 17.7232C18.231 16.9575 18.2348 15.7155 17.4653 14.9422L16.9965 14.4772L14.6333 12.1065L12.129 9.60675L14.4998 7.236L19.8278 12.576C21.195 13.9357 21.6758 15.8535 21.2415 17.5957C22.8 17.8222 23.9993 19.158 23.9993 20.7757C23.9993 22.5607 22.5615 23.9865 20.7885 23.9865C19.2458 23.9865 17.9408 22.893 17.6558 21.4237L17.6445 21.4102ZM6.97651 9.46125L9.48451 6.957L11.8515 4.58625L12.3165 4.125C13.7385 2.69925 15.7733 2.25 17.5785 2.78925C17.793 1.23075 19.137 0.0157471 20.7585 0.0157471C22.5323 0.0157471 23.9693 1.4535 23.9693 3.22275C23.9693 4.8555 22.7543 6.20325 21.18 6.41025C21.6998 8.211 21.2468 10.227 19.8285 11.6445L19.6485 11.8282L17.2778 9.46125L17.4653 9.27375C18.231 8.50425 18.231 7.25775 17.4653 6.49275C16.6958 5.727 15.4538 5.72325 14.6843 6.4965L14.2193 6.95775L9.34426 11.829L6.97651 9.46125ZM4.32001 12.1095L3.85876 11.6445C2.42926 10.215 1.98376 8.172 2.52676 6.35925C1.10101 6.027 0.0307629 4.7535 0.0307629 3.22275C0.0307629 1.4535 1.46851 0.0157471 3.23776 0.0157471C4.83526 0.0157471 6.15976 1.17975 6.40951 2.7075C8.13976 2.301 10.0343 2.76975 11.3903 4.12125L11.574 4.305L9.20326 6.67575L9.01951 6.49575C8.25001 5.73 7.00351 5.73 6.23401 6.49575C5.46451 7.27725 5.46451 8.51925 6.23026 9.285L11.5703 14.625L9.20326 16.9957L4.32076 12.1207L4.32001 12.1095Z" fill="black"/>
</g>
<defs>
<clipPath id="clip0_201_57910">
<rect width="24" height="24" fill="white"/>
</clipPath>
</defs>
</svg>
