<svg width="24" height="24" viewBox="0 0 24 24" fill="none" xmlns="http://www.w3.org/2000/svg">
<g clip-path="url(#clip0_201_58104)">
<path d="M11.988 17.262H12L17.9303 11.34V22.3793C17.9453 22.77 18.4103 22.9575 18.6915 22.6913L23.6723 17.7195C23.8793 17.5088 23.9963 17.2193 23.988 16.9223V5.28901L24 5.28076L20.0198 1.30876C19.848 1.13251 19.5615 1.13251 19.3905 1.30876L11.9993 8.69101L4.58928 1.28926C4.41753 1.11301 4.13253 1.11301 3.96003 1.28926L-0.000721256 5.28151V16.9418C-0.00447126 17.235 0.112529 17.5208 0.319529 17.7308L5.28828 22.7115C5.57328 22.9808 6.04203 22.7813 6.05028 22.3913L6.05853 11.328L11.9873 17.2703L11.988 17.262Z" fill="black"/>
</g>
<defs>
<clipPath id="clip0_201_58104">
<rect width="24" height="24" fill="white"/>
</clipPath>
</defs>
</svg>
