<svg width="24" height="24" viewBox="0 0 24 24" fill="none" xmlns="http://www.w3.org/2000/svg">
<g clip-path="url(#clip0_201_57746)">
<path d="M24 9.99976L20.8672 16.9995H19.8982L21.0622 14.55L18.9997 9.99901H20.019L21.5115 13.4873H21.531L22.9762 9.99901L24 9.99976ZM10.9845 12.1643V15H9.99974V8.00026H12.6052C13.2262 7.98451 13.8277 8.19976 14.2927 8.60551C14.754 8.98426 15.0075 9.51976 15 10.086C15.0075 10.6605 14.7457 11.211 14.2927 11.5703C13.8397 11.9685 13.2772 12.1643 12.6052 12.1643H10.9845ZM10.9807 8.86351V11.3048H12.6292C12.9922 11.3168 13.3477 11.184 13.602 10.9455C13.8562 10.719 13.9965 10.41 13.9965 10.0898C13.9965 9.76576 13.8555 9.45676 13.602 9.23401C13.3402 8.98426 12.9885 8.85151 12.6292 8.86276L10.9807 8.86351ZM16.9725 9.99976C17.5972 9.99976 18.0937 10.1753 18.4567 10.5233C18.8197 10.8713 18.9997 11.3475 18.9997 11.9528V14.847H18.1875V14.1945H18.1522C17.8005 14.73 17.3355 14.9993 16.7535 14.9993C16.2532 14.9993 15.8392 14.847 15.5032 14.538C15.1747 14.2493 14.9917 13.827 14.9992 13.3898C14.9992 12.9053 15.1747 12.519 15.5302 12.2295C15.882 11.9445 16.3545 11.7998 16.944 11.7998C17.448 11.7998 17.862 11.8973 18.186 12.0885V11.8853C18.1897 11.5883 18.0607 11.3033 17.838 11.1038C17.6152 10.8968 17.322 10.7798 17.0175 10.7835C16.545 10.7835 16.17 10.9905 15.8925 11.4045L15.1462 10.92C15.5565 10.3065 16.1655 9.99826 16.9702 9.99826L16.9725 9.99976ZM15.8752 13.41C15.8715 13.6365 15.9765 13.8473 16.1565 13.9845C16.344 14.1368 16.5787 14.2193 16.8165 14.2148C17.172 14.2148 17.5155 14.0663 17.7697 13.8045C18.039 13.5548 18.192 13.203 18.192 12.8355C17.9265 12.6165 17.559 12.507 17.0865 12.507C16.7385 12.507 16.4535 12.5933 16.2232 12.765C15.993 12.9405 15.8752 13.152 15.8752 13.4093V13.41ZM4.08224 8.00026C5.09024 7.98826 6.06674 8.35951 6.81299 9.04351L5.64899 10.1843C5.22299 9.78976 4.66049 9.57451 4.08224 9.58651C3.04349 9.59026 2.12549 10.2548 1.78949 11.235C1.61774 11.7308 1.61774 12.27 1.78949 12.7665C2.12549 13.7468 3.04349 14.4113 4.08224 14.415C4.63274 14.415 5.10599 14.2785 5.47274 14.0363C5.89874 13.755 6.19574 13.3178 6.28499 12.8175H4.08149V11.2785H7.92899C7.97624 11.5478 7.99949 11.8178 7.99949 12.0908C7.99949 13.3095 7.55399 14.3408 6.78449 15.036C6.10874 15.6458 5.18324 16.0005 4.08149 16.0005C2.54624 16.008 1.13999 15.1568 0.432741 13.797C-0.145509 12.6683 -0.145509 11.3325 0.432741 10.203C1.13999 8.84326 2.54624 7.99201 4.07699 7.99951L4.08224 8.00026Z" fill="black"/>
</g>
<defs>
<clipPath id="clip0_201_57746">
<rect width="24" height="24" fill="white"/>
</clipPath>
</defs>
</svg>
