<svg width="24" height="24" viewBox="0 0 24 24" fill="none" xmlns="http://www.w3.org/2000/svg">
<g clip-path="url(#clip0_201_57588)">
<path d="M15.648 16.1047V15.8625C15.582 14.9017 15.1253 14.0115 14.3828 13.3942C13.6598 12.729 12.6908 12.429 11.727 12.4875C9.85876 12.6082 8.35201 14.2372 8.35201 16.1047C8.35201 16.8907 8.46901 17.6715 8.77276 18.5737H4.55101V6.94495L11.9693 1.82395L19.4535 6.94495V18.6367H15.2303C15.4103 17.973 15.6525 16.9485 15.6525 16.1047H15.648ZM20.7188 5.85895L12.453 0.137202C12.1523 -0.0465479 11.7893 -0.0465479 11.547 0.137202L3.22276 5.85895C2.97976 5.9797 2.85901 6.2227 2.85901 6.5227V19.4797C2.85901 19.9605 3.22276 20.3235 3.70276 20.3235H9.92176C10.3905 20.3355 10.7768 19.9485 10.7655 19.4797C10.7655 19.422 10.7655 19.3005 10.7025 19.2375L10.6448 19.0582C10.344 18.3352 9.97951 17.4292 9.97951 16.5262V16.347C9.92176 15.804 10.1018 15.261 10.4603 14.8972C10.8113 14.487 11.3115 14.229 11.8515 14.175C12.3945 14.1157 12.8745 14.2957 13.2968 14.6587C13.719 15.0187 13.9605 15.5025 14.0228 16.0455V16.2255C14.082 17.4285 13.2968 19.1782 13.176 19.3575L12.0308 21.5295L11.8515 21.1665C11.7293 20.9865 11.5508 20.8035 11.3663 20.7442C11.187 20.6865 10.944 20.6865 10.7655 20.8035C10.5855 20.9242 10.4018 21.1035 10.3433 21.2872C10.2803 21.4672 10.2803 21.7095 10.401 21.8895L11.3078 23.5762C11.4285 23.8185 11.7285 23.9985 12.03 23.9985C12.3315 23.9985 12.636 23.8185 12.753 23.5762L14.565 20.2012H20.2958C20.7645 20.2132 21.1508 19.83 21.1395 19.3575V6.5212C21.0803 6.2212 20.9595 5.9782 20.7173 5.85745L20.7188 5.85895Z" fill="black"/>
</g>
<defs>
<clipPath id="clip0_201_57588">
<rect width="24" height="24" fill="white"/>
</clipPath>
</defs>
</svg>
