<svg width="24" height="24" viewBox="0 0 24 24" fill="none" xmlns="http://www.w3.org/2000/svg">
<g clip-path="url(#clip0_201_57156)">
<path d="M0 0.300781V23.6985H24V0.300781H0ZM0.99975 1.30128H22.9995V22.6995H0.99975V1.30128ZM3.12525 5.80878C3.12525 5.72703 3.141 5.69103 3.24225 5.67603C3.621 5.66028 4.7115 5.62878 5.84025 5.62878C9.18825 5.62878 10.8555 7.78878 10.8555 10.9568C10.8555 15.363 7.96575 16.695 5.73825 16.695C4.89825 16.695 3.6765 16.68 3.23025 16.6643C3.16425 16.6643 3.1335 16.6133 3.1335 16.5315V5.80953L3.12525 5.80878ZM4.926 15.078C5.20275 15.0983 5.45325 15.1133 5.766 15.1133C7.61325 15.1133 8.98425 13.809 9 11.0085C9.02025 8.26653 7.602 7.21128 5.84025 7.21128C5.49225 7.21128 5.211 7.23003 4.9305 7.25028V15.0863L4.926 15.078ZM17.613 16.6478C17.496 16.6478 17.4653 16.605 17.4487 16.5075C16.953 13.7535 16.539 11.8043 16.359 10.4483H16.344C16.1287 11.6753 15.7298 13.7063 15.0697 16.5263C15.039 16.6283 15.0075 16.6553 14.9257 16.6553H13.3088C13.191 16.6553 13.1595 16.6403 13.1287 16.5383L11.3588 8.65953C11.3438 8.59353 11.379 8.52678 11.4765 8.52678H13.0935C13.1595 8.52678 13.2105 8.55078 13.2262 8.61678C13.851 12.1635 14.1165 13.9995 14.214 14.727H14.28C14.397 13.8668 14.7412 12.0818 15.483 8.64828C15.519 8.55153 15.519 8.52303 15.6157 8.52303H17.3145C17.3962 8.52303 17.4128 8.56578 17.4323 8.64828C18.0105 11.898 18.3892 13.9493 18.486 14.7735H18.537C18.6968 13.7198 18.9158 12.2933 19.6193 8.62953C19.6395 8.56278 19.6545 8.52378 19.7362 8.52378H21.2565C21.3225 8.52378 21.3735 8.55978 21.3428 8.64153L19.3778 16.5353C19.362 16.617 19.347 16.6485 19.233 16.6485L17.613 16.6478Z" fill="black"/>
</g>
<defs>
<clipPath id="clip0_201_57156">
<rect width="24" height="24" fill="white"/>
</clipPath>
</defs>
</svg>
