<svg width="24" height="24" viewBox="0 0 24 24" fill="none" xmlns="http://www.w3.org/2000/svg">
<g clip-path="url(#clip0_201_58626)">
<path d="M5.17577 10.1723C4.10927 10.1723 3.59777 10.3598 3.52352 11.3205C3.50777 11.547 3.50027 11.7735 3.50402 12C3.50402 12.219 3.50777 12.4493 3.52352 12.6795C3.59777 13.6403 4.10927 13.8278 5.17202 13.8278C6.23852 13.8278 6.75377 13.6403 6.82427 12.6795C6.84377 12.4493 6.84752 12.2183 6.84752 12C6.84752 11.7818 6.84377 11.5508 6.82427 11.3205C6.75377 10.3598 6.23852 10.1723 5.17577 10.1723ZM8.96477 10.1723C8.55452 10.1723 8.14427 10.2113 7.98002 10.293C7.65602 10.449 7.43327 10.6718 7.43327 11.3123C7.43327 11.6873 7.53452 11.9685 7.72652 12.1088C8.00777 12.3195 8.28152 12.339 9.03527 12.378C9.34352 12.3938 9.50777 12.456 9.50777 12.7178C9.50777 13.05 9.21452 13.05 8.94152 13.05C8.66402 13.05 8.57852 13.0268 8.48477 12.9525C8.39852 12.8903 8.37902 12.777 8.37902 12.6045H7.42577C7.42577 13.0928 7.43777 13.491 7.89827 13.6905C8.30852 13.8705 9.56627 13.8705 9.94502 13.7025C10.2735 13.5578 10.5075 13.3665 10.5075 12.7103C10.5075 12.2573 10.4175 11.976 10.0658 11.769C9.81977 11.6205 9.12077 11.601 8.76902 11.5778C8.51102 11.562 8.41352 11.4683 8.41352 11.238C8.41352 10.941 8.69852 10.9335 8.94452 10.9335C9.14402 10.9335 9.28427 10.9493 9.38177 11.0348C9.42077 11.0738 9.46802 11.136 9.47177 11.343H10.4168C10.4168 10.9365 10.401 10.4955 9.96377 10.2923C9.78827 10.2143 9.37427 10.1715 8.96402 10.1715L8.96477 10.1723ZM11.172 10.2345V13.7655H12.1643V12.402H13.3208V13.7655H14.3168V10.2345H13.3208V11.5238H12.1643V10.2345H11.172ZM15.1913 10.2345V13.7655H16.1955V10.2345H15.1913ZM17.0858 10.2345V13.7655H18.9728C19.8398 13.7655 20.133 13.3905 20.133 12.8123C20.133 12.414 20.0393 12.0585 19.4888 11.9213C19.9343 11.8043 20.0633 11.5388 20.0633 11.1555C20.0633 10.3823 19.5788 10.2338 18.8835 10.2338L17.0858 10.2345ZM21.4568 10.2345L20.3903 13.7655H21.4253L21.6128 13.1093H22.773L22.9643 13.7655H23.9993L22.929 10.2345H21.4568ZM1.75781e-05 10.2345V11.1173H1.05452V13.7655H2.10902V11.1173H3.16352V10.2383H-0.000732422L1.75781e-05 10.2345ZM5.17577 10.9958C5.59352 10.9958 5.80877 11.0625 5.83577 11.6055C5.83952 11.6918 5.84327 11.805 5.84327 12C5.84327 12.195 5.83952 12.3083 5.83577 12.3945C5.80877 12.9375 5.59352 13.0043 5.17577 13.0043C4.75802 13.0043 4.53902 12.9375 4.51577 12.3945C4.50827 12.2618 4.50377 12.1328 4.50827 12C4.50827 11.805 4.50827 11.6918 4.51577 11.6055C4.53902 11.0625 4.75802 10.9958 5.17577 10.9958ZM18.078 11.043H18.7695C18.9495 11.043 19.0628 11.1293 19.0628 11.3363C19.0628 11.5118 18.9495 11.6175 18.7695 11.6175H18.078V11.043ZM22.1918 11.1053H22.1955L22.551 12.3278H21.84L22.1918 11.1053ZM18.0818 12.3128H18.7695C19.0508 12.3128 19.1055 12.438 19.1055 12.6368C19.1055 12.8355 18.996 12.957 18.7695 12.957H18.078V12.3128H18.0818Z" fill="black"/>
</g>
<defs>
<clipPath id="clip0_201_58626">
<rect width="24" height="24" fill="white"/>
</clipPath>
</defs>
</svg>
