<svg width="24" height="24" viewBox="0 0 24 24" fill="none" xmlns="http://www.w3.org/2000/svg">
<path d="M12 20.3513C12 20.3513 10.902 20.2418 10.047 19.6478C9.18372 19.05 3.46497 14.9603 3.46497 14.9603V23.058C3.46497 23.058 3.51222 23.9993 4.55097 23.9993H19.4497C20.4847 23.9993 20.5357 23.058 20.5357 23.058V14.9565C20.5357 14.9565 14.8132 19.05 13.9537 19.6478C13.0942 20.2418 12.0007 20.3513 12.0007 20.3513H12ZM12 0.00378333C12 0.00378333 4.92597 -0.230966 3.46497 7.62453V12.972C3.46497 12.972 3.52347 13.5465 5.13672 14.7105C6.74247 15.8708 10.9065 19.1438 12.0037 19.1438C13.0897 19.1438 17.2575 15.87 18.867 14.706C20.4727 13.542 20.535 12.9713 20.535 12.9713V7.62003C19.074 -0.227967 12 0.00303333 12 0.00303333V0.00378333ZM16.848 10.539H7.15647V7.62528C8.14122 3.72303 12 3.67203 12 3.67203C12 3.67203 15.8632 3.72303 16.848 7.62528V10.539Z" fill="black"/>
</svg>
