<svg width="24" height="24" viewBox="0 0 24 24" fill="none" xmlns="http://www.w3.org/2000/svg">
<g clip-path="url(#clip0_201_57148)">
<path d="M23.598 15.3676C22.887 14.6101 21.4343 14.1721 19.3755 14.1721C18.2738 14.1721 17.0003 14.2816 15.6135 14.5396C14.832 13.7701 14.0513 12.8716 13.3088 11.8209C12.7778 11.0829 12.3128 10.3014 11.8868 9.53185C12.699 6.9931 13.0935 4.92235 13.0935 3.4306C13.0935 1.75885 12.4883 0.0166016 10.7535 0.0166016C10.218 0.0166016 9.68701 0.340602 9.40201 0.817602C8.62051 2.22385 8.97226 5.3101 10.32 8.3566C9.81601 9.8761 9.28501 11.3296 8.62051 12.9624C8.04226 14.3371 7.37476 15.7554 6.69451 17.0559C2.79226 18.6421 0.264756 20.4894 0.0307564 21.9429C-0.0749936 22.4896 0.105006 22.9899 0.487506 23.3919C0.620256 23.5014 1.12051 23.9349 1.96801 23.9349C4.55776 23.9349 7.28476 19.6576 8.67526 17.0754C9.73801 16.7161 10.8045 16.3876 11.8665 16.0599C13.0343 15.7396 14.2065 15.4779 15.273 15.2979C18.0075 17.8021 20.4173 18.1966 21.6285 18.1966C23.121 18.1966 23.652 17.5794 23.832 17.0754C24.1133 16.4229 23.9025 15.7044 23.5823 15.3331L23.6018 15.3721L23.598 15.3676ZM22.215 16.4221C22.1093 16.9651 21.5745 17.3281 20.8283 17.3281C20.6175 17.3281 20.4375 17.2891 20.223 17.2576C18.8633 16.9291 17.5905 16.2384 16.3208 15.1479C17.571 14.9371 18.633 14.8981 19.3013 14.8981C20.0393 14.8981 20.6805 14.9334 21.1095 15.0429C21.6015 15.1486 22.383 15.4801 22.2075 16.4259H22.227L22.215 16.4221ZM14.6918 14.7151C13.77 14.9064 12.7778 15.1291 11.7465 15.4066C10.9298 15.6331 10.0785 15.8829 9.22726 16.1799C9.68851 15.2776 10.0785 14.4024 10.434 13.5744C10.8638 12.5551 11.2155 11.5044 11.571 10.5271C11.919 11.1406 12.309 11.7579 12.6998 12.3084C13.3403 13.1791 14.0085 14.0079 14.6805 14.7301V14.7106L14.6918 14.7151ZM10.0388 1.23085C10.1835 0.942102 10.4685 0.793602 10.7183 0.793602C11.4645 0.793602 11.6048 1.6606 11.6048 2.35585C11.6048 3.5236 11.2493 5.29735 10.644 7.32085C9.58126 4.50085 9.51151 2.14135 10.0425 1.23085H10.0388ZM6.13651 18.1291C4.32826 21.1719 2.58976 23.0589 1.52326 23.0589C1.31626 23.0589 1.13626 22.9846 0.996006 22.8789C0.781506 22.6599 0.675756 22.4064 0.746256 22.1169C0.960756 21.0271 2.98426 19.5039 6.14101 18.1284L6.13651 18.1291Z" fill="black"/>
</g>
<defs>
<clipPath id="clip0_201_57148">
<rect width="24" height="24" fill="white"/>
</clipPath>
</defs>
</svg>
