<svg width="24" height="24" viewBox="0 0 24 24" fill="none" xmlns="http://www.w3.org/2000/svg">
<g clip-path="url(#clip0_201_58680)">
<path d="M18.5625 13.1565C17.4608 13.1565 16.4257 12.6915 15.4882 11.9303L15.7147 10.8563L15.7222 10.8135C15.9292 9.6728 16.5697 7.75505 18.5618 7.75505C20.0543 7.75505 21.2648 8.9663 21.2648 10.458C21.2648 11.946 20.0535 13.1573 18.5618 13.1573L18.5625 13.1565ZM18.5625 5.0198C16.0238 5.0198 14.0505 6.6683 13.2502 9.3833C12.0315 7.55105 11.1015 5.3483 10.563 3.4928H7.8285V10.6058C7.82475 12.012 6.68775 13.149 5.2815 13.1528C3.87525 13.149 2.73825 12.0083 2.7345 10.6058V3.4928H0V10.6058C0 13.5195 2.37075 15.9068 5.2815 15.9068C8.19525 15.9068 10.563 13.5203 10.563 10.6058V9.41405C11.094 10.5195 11.7465 11.6445 12.5392 12.6368L10.8637 20.508H13.6605L14.8755 14.7968C15.9382 15.4763 17.1607 15.906 18.5632 15.906C21.5632 15.906 24.0007 13.4528 24.0007 10.4565C24.0007 7.45655 21.5632 5.01905 18.5632 5.01905L18.5625 5.0198Z" fill="black"/>
</g>
<defs>
<clipPath id="clip0_201_58680">
<rect width="24" height="24" fill="white"/>
</clipPath>
</defs>
</svg>
