<svg width="24" height="24" viewBox="0 0 24 24" fill="none" xmlns="http://www.w3.org/2000/svg">
<g clip-path="url(#clip0_201_57906)">
<path d="M0 0H24V24H0V0ZM2.10225 21H11.1023V19.5H2.10225V21ZM3.30075 6.89775H3.6015C4.3005 6.801 4.80075 6.19875 4.80075 5.39775V3H3.699V5.49975C3.699 5.898 3.60225 6 3.30075 6C2.99925 6 2.8005 5.898 2.6985 5.69925L1.9995 6.3015C2.30025 6.80175 2.8005 7.0005 3.30075 6.8985V6.89775ZM8.301 6.89775V6H6.19875V5.39775H7.9995V4.5H6.19875V3.89775H8.301V3H5.10225V6.99975H8.301V6.89775ZM9.60225 6.89775H10.6995V3.89775H11.8988V3H8.5005V3.89775H9.69975V6.89775H9.60225ZM5.60175 10.6988C5.60175 10.1985 5.301 9.801 4.80075 9.801C5.199 9.699 5.39775 9.30075 5.39775 8.898C5.39775 8.69925 5.301 8.39775 5.199 8.199C4.89825 7.89825 4.5 7.80075 4.10175 7.80075H2.1015V11.6985H4.10175C4.9995 11.6985 5.60175 11.3003 5.60175 10.6988ZM3.102 8.69925H3.801C4.10175 8.69925 4.30125 8.80125 4.30125 9C4.30125 9.30075 4.1025 9.39825 3.801 9.39825H3.102V8.69925ZM3.102 10.8007V10.1017H3.89775C4.3005 10.1017 4.5 10.1985 4.398 10.398C4.398 10.602 4.19925 10.8007 3.89775 10.8007H3.102ZM10.5 7.80075L9 11.301L8.39775 10.398C8.898 10.1993 9.19875 9.699 9.19875 9.19875C9.19875 8.898 9.102 8.49975 8.898 8.301C8.49975 7.89825 8.00025 7.80075 7.602 7.80075H5.69925V11.6985H6.801V10.4992H7.30125L8.10225 11.6985H9.8985L10.1993 10.9995H11.6993L12 11.6985H13.1993L11.6025 7.69875H10.5008L10.5 7.80075ZM7.5 9.699H6.801V8.80125H7.5C7.80075 8.80125 8.10225 8.898 8.10225 9.3015C8.10225 9.50025 7.89825 9.69975 7.5 9.69975V9.699ZM11.3977 10.1993H10.602L11.0002 9.102L11.3977 10.1993ZM13.3013 11.6993H14.3985V7.8015H13.3013V11.6993ZM17.301 9.89775L15.699 7.80075H14.6993V11.6985H15.801V9.6015L17.4998 11.8005H18.3975V7.80075H17.3002L17.301 9.89775ZM20.3978 9.30075C19.8975 9.19875 19.6987 9.102 19.6987 8.898C19.6987 8.80125 19.8008 8.69925 20.1015 8.69925C20.4998 8.69925 20.8972 8.898 21.1987 9.102L21.801 8.301C21.3008 7.89825 20.8012 7.80075 20.199 7.80075C19.3012 7.80075 18.699 8.39775 18.699 9.102C18.699 9.89775 19.3012 10.1017 20.199 10.3012C20.6992 10.398 20.898 10.5 20.898 10.6995C20.898 10.899 20.6993 11.0002 20.3978 11.0002C19.8975 11.0002 19.5 10.8015 19.1017 10.5L18.4995 11.199C18.9998 11.6018 19.6987 11.8012 20.3002 11.8012C21.3 11.8012 21.897 11.301 21.897 10.5C21.897 9.801 21.3 9.50025 20.397 9.30075H20.3978Z" fill="black"/>
</g>
<defs>
<clipPath id="clip0_201_57906">
<rect width="24" height="24" fill="white"/>
</clipPath>
</defs>
</svg>
