<svg width="24" height="24" viewBox="0 0 24 24" fill="none" xmlns="http://www.w3.org/2000/svg">
<g clip-path="url(#clip0_201_57254)">
<path d="M15.7147 4.63719L13.488 6.12144L11.1952 2.68419L13.422 1.19544L15.7147 4.63719ZM17.5267 14.9692L21.3315 20.6722L16.8007 23.6954L12.3278 16.9964L16.863 13.9732L17.5267 14.9692ZM11.8162 18.7769L12.6562 20.0309L9.20325 22.3357L7.70325 20.0857L11.1525 17.7809L11.8162 18.7769ZM19.4137 12.2699L20.3827 11.6249L21.8827 13.8749L19.656 15.3629L18.816 14.1052L20.0783 13.2659L19.4137 12.2699ZM18.816 14.1052L18.1522 13.1092L19.4145 12.2699L20.0783 13.2659L18.816 14.1052ZM3.79275 12.5939L3.039 13.0979L0.74175 9.65619L4.19475 7.35519L5.805 9.76644L6.48825 10.7932L3.79275 12.5939ZM11.5118 5.95269L12.1987 6.98394L7.6635 10.0079L6.9795 8.97969L3.21075 3.32769L7.7415 0.304443L11.5118 5.95269ZM14.7502 5.28069L13.488 6.12069L12.8048 5.09394L11.1945 2.68419L13.4213 1.19544L15.7185 4.63719L14.7502 5.28069ZM9.12075 20.5777L8.457 19.5817L11.1518 17.7809L11.8155 18.7769L9.12075 20.5777ZM18.816 14.1052L18.1522 13.1092L19.4145 12.2699L20.0783 13.2659L18.816 14.1052ZM3.79275 12.5939L3.105 11.5657L5.805 9.76569L6.48825 10.7924L3.79275 12.5939ZM13.488 6.12069L12.8048 5.09394L14.0618 4.25394L14.7495 5.28069L13.488 6.12069ZM17.5267 14.9692L12.9915 17.9924L12.3278 16.9964L16.863 13.9732L17.5267 14.9692ZM11.5118 5.95269L12.1987 6.98394L7.6635 10.0079L6.9795 8.97969L11.5118 5.95269ZM2.508 5.13294L3.363 6.41394L2.07825 7.26969L1.22325 5.98794L2.508 5.13294ZM7.12875 20.5042L7.98375 21.7889L6.699 22.6447L5.844 21.3584L7.12875 20.5042ZM3.75375 21.7972L0 16.1249L20.0618 2.70669L24 8.28444L3.75375 21.7972Z" fill="black"/>
</g>
<defs>
<clipPath id="clip0_201_57254">
<rect width="24" height="24" fill="white"/>
</clipPath>
</defs>
</svg>
