<svg width="24" height="24" viewBox="0 0 24 24" fill="none" xmlns="http://www.w3.org/2000/svg">
<path d="M3.41775 19.7302L4.398 14.8432H5.988L5.01525 19.7302H3.41775ZM8.22675 18.129H9.2385L8.97675 16.3402L8.22675 18.129ZM5.988 19.7302L8.40225 14.8432H9.97275L10.9613 19.7302H9.48825L9.39825 19.1482H7.82775L7.578 19.7302H5.988ZM12.4298 19.7302L12.9765 16.0545H11.5822L11.8207 14.8237H16.1017L15.8632 16.0545H14.535L13.9995 19.7302H12.4298ZM17.781 18.129H18.7965L18.5347 16.3402L17.781 18.129ZM15.555 19.7302L17.961 14.8432H19.5315L20.52 19.7302H19.032L18.9615 19.1482H17.391L17.1413 19.7302H15.555ZM24 9.32399H16.5037C16.23 10.695 15.2775 11.8395 13.3785 12.6322C13.5975 13.2847 14.3318 13.8862 15.093 13.8862H19.1595C19.7805 13.8862 20.2725 13.3665 20.472 12.945H16.3395C16.0852 12.9022 16.074 12.6952 16.3275 12.6757H20.3903C20.9137 12.6757 21.39 12.2265 21.6675 11.742H16.9373C16.6987 11.703 16.6987 11.5035 16.9373 11.4645H21.7065C22.1873 11.4645 22.6245 10.9057 22.8045 10.5307H17.574C17.3123 10.4955 17.3123 10.2532 17.574 10.2457H22.8983C23.316 10.2457 23.7188 9.79274 24 9.32399ZM0 9.32399H7.49625C7.7655 10.695 8.7225 11.8395 10.6132 12.6322C10.3988 13.2847 9.66375 13.8862 8.89875 13.8862H4.8405C4.2195 13.8862 3.7275 13.3665 3.528 12.945H7.6605C7.91025 12.9022 7.926 12.6952 7.6725 12.6757H3.606C3.0825 12.6757 2.60625 12.2265 2.33625 11.742H7.071C7.3095 11.703 7.3095 11.5035 7.071 11.4645H2.30175C1.821 11.4645 1.38375 10.9057 1.2 10.5307H6.43425C6.69225 10.4955 6.69225 10.2532 6.43425 10.2457H1.10625C0.6885 10.2457 0.282 9.79274 0.00075 9.32399H0ZM9.57 5.21099C9.8475 5.44949 10.1558 5.65649 10.488 5.78924C10.7692 5.23874 11.16 4.76174 11.6168 4.34024C10.8668 4.43399 10.1558 4.73474 9.57 5.21099ZM8.2425 7.93724H9.9105C9.94575 7.27724 10.098 6.63224 10.3673 6.02699C10.0042 5.86649 9.66375 5.65574 9.363 5.39774C8.68725 6.07349 8.2845 6.97949 8.24175 7.93649L8.2425 7.93724ZM11.871 6.37124V7.93799H10.1993C10.215 7.30874 10.3553 6.69224 10.6132 6.12149C11.0115 6.26624 11.445 6.35999 11.871 6.37124ZM14.43 5.21099C14.1607 5.44949 13.848 5.64824 13.512 5.78924C13.2233 5.24624 12.84 4.75799 12.3795 4.34774C13.1333 4.43399 13.8442 4.73474 14.43 5.21099ZM15.7537 7.93724H14.0895C14.0662 7.27724 13.914 6.62849 13.644 6.02699C13.9995 5.85899 14.3355 5.65199 14.6287 5.39774C15.3165 6.06599 15.7185 6.97574 15.7537 7.93649V7.93724ZM12.141 6.37124V7.93799H13.8015C13.8015 7.30499 13.6455 6.70349 13.3875 6.12149C12.9855 6.26999 12.567 6.35624 12.1417 6.37124H12.141ZM9.57 10.9417C9.8475 10.7227 10.164 10.485 10.488 10.3717C10.785 10.9305 11.1562 11.3872 11.6168 11.805C10.8668 11.7112 10.1558 11.4142 9.57 10.9417ZM8.2425 8.20724H9.9105C9.9495 8.89874 10.0942 9.50774 10.3673 10.1332C10.0042 10.2937 9.66825 10.5045 9.363 10.758C8.68725 10.0747 8.2845 9.16799 8.24175 8.20724H8.2425ZM11.871 9.77699V8.20649H10.1993C10.2113 8.83949 10.3553 9.46424 10.6132 10.023C11.0115 9.87824 11.445 9.78824 11.871 9.77699ZM14.43 10.9417C14.1562 10.7032 13.848 10.512 13.512 10.3717C13.2233 10.911 12.84 11.3992 12.3795 11.805C13.1295 11.7112 13.8405 11.4105 14.43 10.9417ZM15.7537 8.20724H14.0895C14.0662 8.87099 13.9177 9.52724 13.644 10.1332C13.9995 10.2975 14.3197 10.4962 14.6287 10.758C15.312 10.0785 15.7147 9.16799 15.7537 8.20724ZM12.141 9.77699V8.20649H13.8015C13.8015 8.83949 13.6455 9.45224 13.3875 10.023C12.9893 9.87449 12.567 9.79274 12.1417 9.77699H12.141ZM11.871 4.50374C11.406 4.88249 11.0235 5.35124 10.746 5.88299C11.1053 6.00824 11.4885 6.10574 11.871 6.10574V4.50374ZM12.141 4.50374C12.5865 4.86674 12.9885 5.34749 13.254 5.88299C12.8985 6.02399 12.5235 6.09749 12.141 6.10574V4.50374ZM11.871 11.6482C11.4023 11.2695 11.0197 10.797 10.746 10.2615C11.1053 10.1325 11.4885 10.0582 11.871 10.0582V11.6482ZM12.141 11.6602C12.5865 11.289 12.9885 10.7895 13.254 10.2577C12.8948 10.137 12.5197 10.0702 12.141 10.0627V11.6602Z" fill="black"/>
</svg>
