<svg width="24" height="24" viewBox="0 0 24 24" fill="none" xmlns="http://www.w3.org/2000/svg">
<g clip-path="url(#clip0_201_58392)">
<path d="M19.8165 10.281L19.8638 12.9727H19.8405L19.059 10.281H17.778V13.6717H18.6255L18.5783 10.8862H18.6015L19.4377 13.6717H20.664V10.281H19.8165ZM3.66825 10.281L3.02775 13.707H3.95325L4.42575 10.59H4.44525L4.9065 13.707H5.8245L5.1915 10.281H3.66825ZM8.84775 10.281L8.4255 12.894H8.40225L7.97625 10.281H6.5775L6.51075 13.707H7.37025L7.3935 10.6252H7.401L7.9755 13.707H8.84625L9.42075 10.6252H9.444L9.46725 13.707H10.3267L10.245 10.281H8.84775ZM1.58175 12.7342C1.617 12.8122 1.605 12.9292 1.59375 12.984C1.5705 13.101 1.488 13.2142 1.2615 13.2142C1.0425 13.2142 0.918 13.089 0.918 12.906V12.5737H0V12.8355C0 13.605 0.60525 13.8315 1.25025 13.8315C1.8675 13.8315 2.38275 13.617 2.46525 13.0545C2.5125 12.7575 2.47725 12.5625 2.46525 12.492C2.30475 11.769 0.99675 11.5665 0.90675 11.1637C0.89475 11.0932 0.89475 11.0272 0.90675 10.98C0.93 10.8667 1.008 10.7497 1.215 10.7497C1.422 10.7497 1.53525 10.875 1.53525 11.058V11.265H2.39475V11.0265C2.39475 10.2802 1.719 10.167 1.23825 10.167C0.6285 10.167 0.12525 10.3702 0.03525 10.9207C0.012 11.0692 0 11.2095 0.04725 11.382C0.18375 12.0892 1.41075 12.2962 1.5825 12.7335L1.58175 12.7342ZM12.7343 12.7342C12.7695 12.8122 12.7575 12.918 12.7463 12.984C12.723 13.101 12.6405 13.2142 12.414 13.2142C12.195 13.2142 12.0705 13.089 12.0705 12.906V12.5737H11.1525V12.8355C11.1525 13.593 11.7465 13.824 12.3907 13.824C13.008 13.824 13.512 13.617 13.5938 13.0425C13.641 12.7455 13.6058 12.5617 13.5938 12.48C13.4572 11.769 12.1605 11.5545 12.0705 11.1637C12.0585 11.0932 12.0585 11.0272 12.0705 10.98C12.09 10.8667 12.1717 10.7497 12.3787 10.7497C12.5737 10.7497 12.699 10.875 12.699 11.058V11.265H13.5465V11.0265C13.5465 10.2802 12.8827 10.167 12.402 10.167C11.7922 10.167 11.3003 10.3582 11.2102 10.9207C11.187 11.0692 11.187 11.2095 11.2177 11.382C11.3587 12.0892 12.5618 12.2842 12.7335 12.7335L12.7343 12.7342ZM15.621 13.1917C15.8632 13.1917 15.9292 13.0312 15.9532 12.942C15.9653 12.9067 15.9653 12.8482 15.9653 12.813V10.2817H16.836V12.7462C16.836 12.813 16.836 12.9412 16.824 12.9727C16.7692 13.617 16.2615 13.824 15.6322 13.824C15.003 13.824 14.4998 13.617 14.4405 12.9727C14.4405 12.9412 14.4285 12.8122 14.4285 12.7462V10.2817H15.2992V12.813C15.2992 12.8602 15.2993 12.9067 15.3113 12.942C15.3113 13.032 15.3818 13.1917 15.6195 13.1917H15.621ZM22.7738 13.1565C23.028 13.1565 23.106 12.996 23.1292 12.9067C23.1413 12.8715 23.1413 12.813 23.1413 12.7815V12.2857H22.7858V11.7817H24.0007V12.6997C24.0007 12.7702 24.0007 12.813 23.9888 12.93C23.9303 13.5592 23.391 13.7775 22.7858 13.7775C22.176 13.7775 21.6413 13.5585 21.5828 12.93C21.5708 12.813 21.5707 12.7695 21.5707 12.6997V11.2545C21.5707 11.1997 21.5828 11.0827 21.5828 11.028C21.6607 10.3837 22.1768 10.1767 22.7858 10.1767C23.391 10.1767 23.9183 10.3837 23.9888 11.028C24.0007 11.1292 24.0007 11.2545 24.0007 11.2545V11.3715H23.1413V11.1765C23.1413 11.1765 23.1413 11.0947 23.1292 11.0475C23.1173 10.9695 23.0475 10.7977 22.7858 10.7977C22.5315 10.7977 22.4655 10.9582 22.4422 11.0475C22.4303 11.0947 22.4303 11.1532 22.4303 11.2117V12.7822C22.4303 12.825 22.4303 12.8722 22.4422 12.9075C22.4422 12.9975 22.5322 13.1572 22.7745 13.1572L22.7738 13.1565Z" fill="black"/>
</g>
<defs>
<clipPath id="clip0_201_58392">
<rect width="24" height="24" fill="white"/>
</clipPath>
</defs>
</svg>
