<svg width="24" height="24" viewBox="0 0 24 24" fill="none" xmlns="http://www.w3.org/2000/svg">
<path d="M12.09 13.1175C11.1525 15.051 9.8715 17.6685 9.2385 18.8483C8.62125 19.9223 8.10975 19.7783 7.70325 18.8753C6.30075 15.555 3.41025 9.73054 2.055 6.46879C1.80525 5.86729 1.61325 5.48029 1.434 5.32804C1.254 5.17954 0.8835 5.08954 0.31275 5.05879C0.102 5.03179 0 4.98079 0 4.89829V4.44154L0.051 4.39879C0.9765 4.39504 5.45325 4.39879 5.45325 4.39879L5.50425 4.44154V4.87879C5.50425 4.99579 5.43 5.05429 5.27775 5.05429L4.71525 5.08579C4.23075 5.11279 3.9885 5.24629 3.9885 5.51929C3.9885 5.65579 4.0395 5.85154 4.15275 6.12079C5.235 8.76529 8.973 16.6403 8.973 16.6403L9.1095 16.6875L11.52 11.8793L11.0355 10.8128L9.3795 7.54729C9.3795 7.54729 9.063 6.89479 8.94975 6.67654C8.223 5.23129 8.23875 5.15704 7.5045 5.05954C7.2975 5.03629 7.19175 5.00854 7.19175 4.91104V4.44229L7.25025 4.39504H11.5433L11.6565 4.43404V4.88329C11.6565 4.98904 11.5785 5.03554 11.43 5.03554L11.1217 5.08279C10.329 5.14129 10.4618 5.46154 10.9853 6.50479L12.567 9.75454L14.325 6.25054C14.6182 5.61004 14.5597 5.44954 14.4382 5.30554C14.3677 5.21929 14.1337 5.08654 13.626 5.06329L13.4227 5.04379C13.3717 5.04379 13.3253 5.02804 13.278 4.99279C13.2353 4.96129 13.2113 4.91479 13.2113 4.86379V4.43779L13.2735 4.39054C14.5192 4.38304 17.3167 4.39054 17.3167 4.39054L17.3752 4.43779V4.87129C17.3752 4.99204 17.3167 5.05129 17.1803 5.05129C16.536 5.07829 16.3988 5.14504 16.1565 5.48854C16.0395 5.67604 15.7815 6.07804 15.5123 6.52729L13.2113 10.8008L13.1445 10.9373L15.9375 16.6485L16.1092 16.6958L20.5035 6.25804C20.6558 5.83579 20.6325 5.53504 20.4412 5.36329C20.2417 5.19154 20.0933 5.08954 19.5817 5.06629L19.164 5.05054C19.1017 5.05054 19.0583 5.03854 19.0118 5.00779C18.969 4.97629 18.9375 4.93354 18.9375 4.88704V4.45354L18.996 4.40629H23.961L24 4.45354V4.89079C24 5.00779 23.9258 5.07079 23.7892 5.07079C23.145 5.09779 22.6643 5.25079 22.3478 5.48854C22.035 5.74654 21.789 6.10579 21.6135 6.55879C21.6135 6.55879 17.5702 15.8168 16.188 18.8948C15.6607 19.9028 15.1335 19.8128 14.6842 18.8633C14.1143 17.6955 12.9105 15.078 12.036 13.1565L12.09 13.1175Z" fill="black"/>
</svg>
