<svg width="24" height="24" viewBox="0 0 24 24" fill="none" xmlns="http://www.w3.org/2000/svg">
<g clip-path="url(#clip0_201_57600)">
<path d="M7.25777 9.13281L11.8155 6.49956C11.9295 6.43356 12.0698 6.43356 12.1838 6.49956L16.7415 9.13281C16.8548 9.19881 16.9253 9.31956 16.9253 9.45306V14.7151C16.9253 14.8478 16.854 14.9693 16.7415 15.0353L12.1838 17.6641C12.0698 17.7301 11.9295 17.7301 11.8155 17.6641L7.25777 15.0353C7.14452 14.9693 7.07402 14.8486 7.07402 14.7151V9.45306C7.07402 9.32031 7.14527 9.19881 7.25777 9.13281ZM23.8523 11.5313L18.4065 2.05506C18.2078 1.71081 17.8448 1.46106 17.4458 1.46106H6.55577C6.16052 1.46106 5.79377 1.71081 5.59502 2.05506L0.149271 11.5081C-0.0457288 11.8553 -0.0457288 12.2813 0.149271 12.6248L5.59952 22.0231C5.79452 22.3673 6.16127 22.5391 6.55652 22.5391H17.4503C17.8455 22.5391 18.2085 22.3711 18.4073 22.0268L23.853 12.6166C24.0518 12.2806 24.0518 11.8628 23.853 11.5306L23.8523 11.5313ZM19.344 16.0861C19.3403 16.2271 19.2623 16.3553 19.1408 16.4258L12.1988 20.4256C12.078 20.4953 11.9295 20.4953 11.8088 20.4256L4.86302 16.4258C4.74227 16.3546 4.66427 16.2271 4.65977 16.0861V8.07831C4.65977 7.94106 4.74152 7.81206 4.86302 7.74231L11.8013 3.73806C11.922 3.67206 12.0705 3.67206 12.1913 3.73806L19.137 7.74231C19.2578 7.81206 19.3358 7.94106 19.3403 8.08206L19.344 16.0861Z" fill="black"/>
</g>
<defs>
<clipPath id="clip0_201_57600">
<rect width="24" height="24" fill="white"/>
</clipPath>
</defs>
</svg>
