<svg width="24" height="24" viewBox="0 0 24 24" fill="none" xmlns="http://www.w3.org/2000/svg">
<path d="M8.57028 23.43C8.57028 23.7465 8.31603 24 8.00028 24H2.28528C1.52328 24 1.52328 22.8555 2.28528 22.8555H8.00028C8.31678 22.8555 8.57028 23.1135 8.57028 23.43ZM8.00028 20.5702H6.85578C6.09378 20.5702 6.09378 21.7147 6.85578 21.7147H8.00028C8.76228 21.7147 8.76228 20.5702 8.00028 20.5702ZM2.28528 21.7147H4.57053C5.33253 21.7147 5.33253 20.5702 4.57053 20.5702H2.28528C1.52328 20.5702 1.52328 21.7147 2.28528 21.7147ZM8.00028 18.285H2.28528C1.52328 18.285 1.52328 19.4295 2.28528 19.4295H8.00028C8.76228 19.4295 8.76228 18.285 8.00028 18.285ZM15.9998 15.9998H5.71428C4.95228 15.9998 4.95228 17.1442 5.71428 17.1442H15.9998C16.7618 17.1442 16.7618 15.9998 15.9998 15.9998ZM2.28528 17.1442H3.42978C4.19178 17.1442 4.19178 15.9998 3.42978 15.9998H2.28528C1.52328 15.9998 1.52328 17.1442 2.28528 17.1442ZM19.4295 13.7145H15.9998C15.2378 13.7145 15.2378 14.8552 15.9998 14.8552H19.4295C20.1915 14.8552 20.1915 13.7145 19.4295 13.7145ZM9.14478 14.8552H13.7153C14.4773 14.8552 14.4773 13.7145 13.7153 13.7145H9.14478C8.38278 13.7145 8.38278 14.8552 9.14478 14.8552ZM2.28528 14.8552H6.85578C7.61778 14.8552 7.61778 13.7145 6.85578 13.7145H2.28528C1.52328 13.7145 1.52328 14.8552 2.28528 14.8552ZM20.5703 11.43H11.4293C10.6673 11.43 10.6673 12.5707 11.4293 12.5707H20.5703C21.3323 12.5707 21.3323 11.43 20.5703 11.43ZM9.71478 12C9.71478 11.6835 9.45678 11.43 9.14478 11.43H5.71503C4.95303 11.43 4.95303 12.5707 5.71503 12.5707H9.14478C9.45753 12.5707 9.71478 12.3165 9.71478 12.0007V12ZM2.28528 12.57H3.42978C4.19178 12.57 4.19178 11.4293 3.42978 11.4293H2.28528C1.52328 11.4293 1.52328 12.57 2.28528 12.57ZM21.7148 9.14475H15.9998C15.2378 9.14475 15.2378 10.2855 15.9998 10.2855H21.7148C22.4768 10.2855 22.4768 9.14475 21.7148 9.14475ZM2.28528 10.2855H8.00028C8.76228 10.2855 8.76228 9.14475 8.00028 9.14475H2.28528C1.52328 9.14475 1.52328 10.2855 2.28528 10.2855ZM15.4298 7.4295C15.4298 7.74225 15.684 7.9995 15.9998 7.9995H21.7148C22.4768 7.9995 22.4768 6.855 21.7148 6.855H15.9998C15.6833 6.855 15.4298 7.113 15.4298 7.4295ZM6.85578 6.85575C6.09378 6.85575 6.09378 8.00025 6.85578 8.00025H8.00028C8.76228 8.00025 8.76228 6.85575 8.00028 6.85575H6.85578ZM2.28528 8.00025H4.57053C5.33253 8.00025 5.33253 6.85575 4.57053 6.85575H2.28528C1.52328 6.85575 1.52328 8.00025 2.28528 8.00025ZM18.8558 5.14425C18.8558 5.457 19.1138 5.71425 19.4303 5.71425H20.571C21.333 5.71425 21.333 4.56975 20.571 4.56975H19.4303C19.1138 4.56975 18.8603 4.82775 18.8603 5.14425H18.8558ZM17.715 5.14425C17.715 4.82775 17.457 4.56975 17.145 4.56975H12.5708C11.8088 4.56975 11.8088 5.71425 12.5708 5.71425H17.1413C17.4578 5.71425 17.7158 5.45625 17.7158 5.14425H17.715ZM2.28528 5.715H10.2855C11.0475 5.715 11.0475 4.5705 10.2855 4.5705H2.28528C1.52328 4.5705 1.52328 5.715 2.28528 5.715ZM7.42953 2.85525C7.42953 3.17175 7.68378 3.42975 7.99953 3.42975H19.4295C20.1915 3.42975 20.1915 2.28525 19.4295 2.28525H7.99953C7.68303 2.28525 7.42953 2.54325 7.42953 2.85525ZM2.28528 3.42975H5.71503C6.47703 3.42975 6.47703 2.28525 5.71503 2.28525H2.28528C1.52328 2.28525 1.52328 3.42975 2.28528 3.42975ZM2.28528 1.1445H15.9998C16.7618 1.1445 16.7618 0 15.9998 0H2.28528C1.52328 0 1.52328 1.1445 2.28528 1.1445Z" fill="black"/>
</svg>
