<svg width="24" height="24" viewBox="0 0 24 24" fill="none" xmlns="http://www.w3.org/2000/svg">
<g clip-path="url(#clip0_201_58444)">
<path d="M7.96061 17.5617C7.77686 17.5265 7.59386 17.6045 7.49936 17.7657C7.02236 18.785 5.92511 19.3587 4.81511 19.16C4.61186 18.0552 5.18711 16.949 6.21386 16.4802C6.41711 16.355 6.48311 16.0902 6.35786 15.8832C6.29186 15.773 6.17486 15.695 6.04586 15.68C4.47161 15.383 2.85386 15.941 1.79561 17.1477C0.545357 18.863 0.0728569 21.0305 0.498857 23.1125C0.529607 23.2962 0.675107 23.4402 0.858107 23.4725C1.35386 23.5542 1.85786 23.5932 2.36636 23.5932C4.19861 23.6945 5.99111 23.0112 7.29611 21.7182C8.18711 20.663 8.55836 19.265 8.30411 17.909C8.28386 17.7222 8.14436 17.573 7.95986 17.534L7.96061 17.5617ZM23.7766 0.202976C23.6049 0.0349761 23.2576 0.112976 23.2576 0.112976C22.6209 0.0387261 21.9796 0.00422611 21.3399 -0.000273886C17.1841 -0.0430239 13.1881 1.57773 10.2339 4.49598C9.87086 4.85898 9.53111 5.23773 9.21461 5.63673C7.81136 4.98798 6.20261 4.92948 4.75736 5.47248C2.47211 6.45648 1.13636 9.25773 0.0263569 12.1445C-0.0598931 12.3665 0.0541069 12.6162 0.276107 12.7025C0.420857 12.7617 0.581357 12.7332 0.702107 12.6402C2.26886 11.4762 4.31936 11.1942 6.14411 11.8902L5.60111 13.8545C5.55011 14.0382 5.62436 14.2332 5.78411 14.3352C7.25336 15.4295 8.55386 16.7292 9.64736 18.1902C9.75311 18.3545 9.94811 18.4295 10.1326 18.3785L12.0939 17.8392C12.8116 19.667 12.5311 21.7332 11.3476 23.2962C11.1984 23.483 11.2299 23.7612 11.4174 23.9052C11.5381 24.0035 11.7024 24.026 11.8434 23.972C14.7264 22.862 17.5306 21.5262 18.5116 19.2492C19.0546 17.804 18.9954 16.1982 18.3474 14.7965C18.7411 14.4725 19.1206 14.1245 19.4791 13.7615C22.8624 10.3197 24.4794 5.51973 23.8741 0.733226C23.8741 0.733226 23.9484 0.382226 23.7759 0.210476L23.7766 0.202976ZM21.3391 0.870476C21.9009 0.870476 22.4641 0.897476 23.0259 0.956726C23.1039 1.72998 23.1279 2.50773 23.0971 3.28098C22.4829 3.21498 21.9129 2.94123 21.4719 2.50773C21.0339 2.06973 20.7609 1.49973 20.6941 0.886976C20.9049 0.874976 21.1164 0.866726 21.3309 0.866726L21.3391 0.870476ZM10.8474 5.11248C13.2616 2.71473 16.4371 1.23723 19.8271 0.940226C19.8969 1.61598 20.1549 2.25723 20.5771 2.79648L17.8779 5.49123C16.3509 4.28823 14.1361 4.55448 12.9331 6.08148C11.9289 7.35873 11.9289 9.15948 12.9331 10.4375L9.78386 13.5852C8.97611 12.8 8.09711 12.0852 7.15886 11.4522C7.81886 9.05823 9.09311 6.87423 10.8466 5.11248H10.8474ZM18.3706 8.26998C18.3706 9.73773 17.1834 10.9302 15.7149 10.9302C14.2419 10.934 13.0546 9.74223 13.0546 8.27298C13.0546 6.80523 14.2419 5.61273 15.7104 5.61273H15.7141C17.1789 5.61273 18.3661 6.80448 18.3699 8.26998H18.3706ZM1.31111 11.27C2.25311 9.01623 3.40136 7.00023 5.09336 6.27273C6.24536 5.84748 7.51961 5.87898 8.65136 6.36273C7.64036 7.78098 6.87011 9.35898 6.38636 11.0307C4.74161 10.367 2.89061 10.4525 1.31111 11.2655V11.27ZM10.2024 17.4605C9.13211 16.0895 7.89461 14.8542 6.52211 13.7802L6.91736 12.347C8.76161 13.6197 10.3584 15.2217 11.6401 17.0652L10.2024 17.4605ZM17.7144 18.8825C16.9831 20.5812 14.9761 21.7295 12.7224 22.6715C13.5346 21.0935 13.6164 19.2417 12.9481 17.5977C14.6244 17.1087 16.2061 16.34 17.6281 15.32C18.1119 16.4532 18.1441 17.7342 17.7099 18.887L17.7144 18.8825ZM12.5266 16.8237C11.8974 15.887 11.1879 15.008 10.4019 14.195L13.5511 11.0472C15.0781 12.2502 17.2929 11.9885 18.4959 10.457C19.5039 9.17973 19.5039 7.37898 18.4959 6.10173L21.1951 3.40173C21.7299 3.81948 22.3711 4.08198 23.0431 4.15173C22.7461 7.53873 21.2731 10.7187 18.8791 13.133C17.1129 14.8872 14.9304 16.1562 12.5349 16.8162L12.5266 16.8237Z" fill="black"/>
</g>
<defs>
<clipPath id="clip0_201_58444">
<rect width="24" height="24" fill="white"/>
</clipPath>
</defs>
</svg>
