<svg width="24" height="24" viewBox="0 0 24 24" fill="none" xmlns="http://www.w3.org/2000/svg">
<path d="M12 18.8198C5.37075 18.8198 0 15.2228 0 10.7805C0 6.34354 5.37075 2.74579 12 2.74579C18.6292 2.74579 24 6.34354 24 10.7805C24 15.2228 18.6292 18.8198 12 18.8198ZM13.836 5.88679C8.80125 5.88679 4.71525 8.34754 4.71525 11.3828C4.71525 14.418 8.80125 16.8788 13.836 16.8788C18.8708 16.8788 22.5938 15.195 22.5938 11.3828C22.5938 7.56979 18.8745 5.88679 13.836 5.88679ZM18.273 15.195C18.6683 15.312 19.0507 15.4568 19.4257 15.6293C19.641 15.7343 19.836 15.8753 20.0077 16.0433C20.1127 16.1565 20.2028 16.2855 20.2725 16.4265L23.1368 21.2543H18.5077L16.344 17.1915C16.1453 16.8368 15.906 16.5083 15.6293 16.2113C15.4883 16.0553 15.2895 15.9615 15.078 15.9615H13.98V21.2505L9.88725 21.2543V7.73854H18.1095C18.1095 7.73854 21.8527 7.80529 21.8527 11.3678C21.8595 13.3875 20.2935 15.0668 18.2738 15.1958L18.273 15.195ZM16.4963 10.668H14.016V12.9653H16.4963C17.1413 12.9735 17.664 12.441 17.6453 11.7975C17.6805 11.1488 17.1413 10.6215 16.4963 10.6688V10.668Z" fill="black"/>
</svg>
