<svg width="24" height="24" viewBox="0 0 24 24" fill="none" xmlns="http://www.w3.org/2000/svg">
<g clip-path="url(#clip0_201_57786)">
<path d="M0 0V24H24V0H0ZM7.02375 3.99975H8.6565C9.879 3.99975 10.2975 4.02675 10.3245 4.113C10.344 4.17975 10.356 5.48025 10.356 7.01175L10.3485 9.79275L10.821 9.3705C11.481 8.7885 12.036 8.58525 13.0868 8.54625C13.7782 8.52675 14.0595 8.55375 14.544 8.72625C15.6068 9.08175 16.3568 9.81225 16.7475 10.89C16.8997 11.3123 16.9193 11.7532 16.947 15.1755L16.9785 18.9998H13.6388V15.879C13.6388 12.8048 13.6313 12.7657 13.4242 12.3907C13.131 11.895 12.8145 11.6677 12.315 11.6137C11.4637 11.52 10.8735 11.8088 10.5375 12.5048C10.377 12.825 10.3575 13.161 10.35 15.8602C10.338 17.5087 10.3185 18.8918 10.3185 18.927C10.311 18.9743 9.5685 19.0012 8.66625 19.0012H7.02975V11.5013L7.02375 3.99975Z" fill="black"/>
</g>
<defs>
<clipPath id="clip0_201_57786">
<rect width="24" height="24" fill="white"/>
</clipPath>
</defs>
</svg>
