<svg width="24" height="24" viewBox="0 0 24 24" fill="none" xmlns="http://www.w3.org/2000/svg">
<path d="M0.97725 2.60927V21.3915H12.387C19.2773 21.3915 23.0272 18.1845 23.0272 11.9775C23.0272 5.60252 18.9615 2.60927 12.387 2.60927H0.97725ZM12.387 1.63727C22.4918 1.63727 24 8.11352 24 11.9775C24 18.6765 19.875 22.3673 12.387 22.3673H0V1.63727H12.387ZM2.508 13.3553H6.15975V19.8593H2.508V13.3553ZM6.60225 10.0823C6.60225 11.3363 5.586 12.3525 4.332 12.3525C3.078 12.3525 2.06175 11.3363 2.06175 10.0823C2.06175 7.05527 6.6015 7.05527 6.6015 10.0823H6.60225ZM7.99575 9.02327V11.145H8.6475C9.0975 11.145 9.51525 11.016 9.51525 10.0658C9.51525 9.14477 9.05025 9.02252 8.6475 9.02252L7.99575 9.02327ZM18.8483 7.97327H19.902V11.145H21.4613C21.0315 5.38727 16.5045 4.14527 12.387 4.14527H8.00025V7.97327H8.64825C9.8325 7.97327 10.5705 8.77727 10.5705 10.0665C10.5705 11.4023 9.85275 12.1958 8.64825 12.1958H8.00025V19.8638H12.387C19.0778 19.8638 21.4057 16.755 21.4882 12.1958H18.852V7.96952L18.8483 7.97327ZM15.918 10.3283H16.68L16.3283 9.13352H16.266L15.918 10.3283ZM14.2733 12.1988L15.5513 7.97252H17.0475L18.3202 12.1988H17.2275L16.9845 11.379H15.6097L15.372 12.1988H14.2733ZM13.77 11.145V12.195H11.1683V7.97327H13.6882V9.02327H12.219V9.51602H13.605V10.566H12.219V11.145H13.77Z" fill="black"/>
</svg>
