<svg width="24" height="24" viewBox="0 0 24 24" fill="none" xmlns="http://www.w3.org/2000/svg">
<g clip-path="url(#clip0_201_57938)">
<path d="M2.30475 19.0657C2.5305 19.074 2.75775 19.1047 2.973 19.1835L3.00375 19.1947L5.81175 16.4527L5.91375 16.59C6.0615 16.7887 6.2145 16.9732 6.37875 17.1517L6.441 17.2185C6.48375 17.2612 6.516 17.3047 6.55875 17.3475L6.8865 17.6752L6.9645 17.7412L7.0305 17.8042C8.33925 18.909 9.96825 19.5382 11.6873 19.581C13.104 19.6117 14.487 19.2532 15.6982 18.5377L15.9135 18.765C16.1632 19.0297 16.4212 19.296 16.6717 19.5652C15.1755 20.5222 13.4408 21.0075 11.652 20.964C9.645 20.9092 7.72725 20.19 6.19125 18.9007L6.1995 18.8857L4.39875 20.6625C4.4655 20.8695 4.48875 21.0922 4.4925 21.3105C4.4925 22.5532 3.48825 23.5605 2.24625 23.5605C1.00425 23.5605 0 22.5495 0 21.3075C0 20.0685 1.00425 19.0605 2.24625 19.0605H2.3055L2.30475 19.0657ZM19.4797 7.47674C20.3625 8.92949 20.805 10.605 20.7615 12.3045C20.7105 14.3865 19.9252 16.3665 18.5505 17.9212L18.5618 17.9332L19.668 19.1085C20.1128 19.0507 20.562 19.2022 20.871 19.5262C21.3952 20.085 21.3787 20.964 20.82 21.495C20.262 22.0192 19.383 22.0027 18.852 21.444C18.543 21.1162 18.414 20.6587 18.5002 20.2222C17.9842 19.6755 17.0745 18.702 16.551 18.1515L16.4408 18.0345L16.566 17.9295C16.902 17.6632 17.211 17.3707 17.496 17.0467C18.672 15.723 19.3358 14.0385 19.3748 12.27C19.41 10.9297 19.0935 9.61724 18.4485 8.45699L19.4797 7.47674ZM3.828 2.22674C4.22325 2.21849 4.59375 2.37449 4.86675 2.65574C5.1795 2.98349 5.3085 3.44099 5.223 3.87899L7.35225 6.10874L7.22325 6.21449C6.88725 6.47924 6.57825 6.77249 6.29325 7.09724C5.11725 8.42099 4.45725 10.104 4.4025 11.874C4.37175 13.2142 4.68825 14.526 5.3325 15.6937L4.3095 16.6897C3.4185 15.2287 2.96925 13.5577 3.02325 11.8387C3.066 9.76874 3.8715 7.77149 5.2275 6.21749L4.05525 4.99049C3.60525 5.05349 3.1605 4.89674 2.85225 4.57274C2.32425 4.01474 2.3445 3.13574 2.9025 2.60399C3.11775 2.40074 3.39825 2.26874 3.69525 2.23274C3.738 2.22899 3.78525 2.22899 3.828 2.22599V2.22674ZM21.7537 0.440994C22.992 0.440994 24 1.44899 24 2.69099C24 3.93374 22.992 4.93799 21.7537 4.93799C21.5115 4.93799 21.2768 4.89524 21.0548 4.82399H21.051L21.0203 4.81199L17.9692 7.71074L17.8673 7.56974C17.703 7.35449 17.523 7.14074 17.3325 6.94499L17.3018 6.90224L17.0317 6.63749L16.8368 6.46124L16.7775 6.41024L16.6995 6.34424C15.4028 5.25449 13.7775 4.63349 12.0787 4.58999C10.6605 4.55924 9.2775 4.91024 8.0745 5.62874L7.09425 4.60874C8.5905 3.64499 10.3245 3.16349 12.1132 3.20699C14.121 3.26174 16.0395 3.98024 17.574 5.27699H17.5942L19.6132 3.35924C19.5435 3.14549 19.512 2.91824 19.512 2.69099C19.512 1.44899 20.5163 0.440994 21.7582 0.440994H21.7537ZM11.961 5.45699C12.2153 5.45699 12.4688 5.47724 12.7192 5.50799C16.344 5.96474 18.9105 9.26999 18.465 12.8947C18.012 16.5195 14.703 19.0897 11.0782 18.6405C7.4535 18.1875 4.887 14.8785 5.3325 11.2537C5.76225 7.89074 8.5905 5.46899 11.9618 5.45699H11.961ZM11.859 8.29724C10.395 8.41424 9.33225 9.52349 9.29325 10.9965C9.32025 12.0517 9.8595 12.9382 10.8015 13.4227L10.2855 15.825H13.7115L13.1993 13.4227C14.1375 12.915 14.691 12.0787 14.703 11.001C14.6842 9.47774 13.5083 8.33324 12 8.29424L11.859 8.29724ZM11.91 8.28074H11.9018H11.91Z" fill="black"/>
</g>
<defs>
<clipPath id="clip0_201_57938">
<rect width="24" height="24" fill="white"/>
</clipPath>
</defs>
</svg>
