<svg width="24" height="24" viewBox="0 0 24 24" fill="none" xmlns="http://www.w3.org/2000/svg">
<g clip-path="url(#clip0_201_57682)">
<path d="M12.6015 12.6368L11.4765 12.582C10.5315 12.5505 10.2773 12.5002 10.2773 12.1485C10.2773 12.012 10.3785 11.8282 10.5817 11.7262C10.746 11.7615 10.9178 11.781 11.0895 11.781C13.5037 11.781 14.7188 10.6088 14.7188 8.8005C14.7188 8.49975 14.6445 8.2305 14.4923 8.06625H15.453V6.05475H12.6015C12.129 5.9415 11.7067 5.85525 11.1368 5.85525C8.5935 5.85525 7.332 7.32825 7.332 9.03525C7.332 10.1055 7.836 10.875 8.58975 11.2778C8.00775 11.5125 7.5705 12.1485 7.5705 12.8168C7.5705 13.4025 7.89075 13.8713 8.379 14.106C7.7385 14.442 7.164 15.258 7.164 16.0433C7.164 17.7038 8.5155 18.5198 10.8045 18.5198C13.6755 18.5198 15.4995 16.914 15.4995 15.1095H15.48C15.48 13.4377 14.4015 12.699 12.6007 12.6368H12.6015ZM11.1368 7.8555C12.0315 7.8555 12.4808 8.33625 12.4808 9.04725C12.4808 9.75825 11.9805 10.188 11.1562 10.188C10.2615 10.188 9.81225 9.7425 9.81225 9.01575C9.81225 8.33625 10.2968 7.8555 11.1368 7.8555ZM13.1445 15.4103C13.1445 16.0395 12.5347 16.5233 11.3243 16.5233C10.383 16.5233 9.82425 16.1167 9.82425 15.519C9.82425 15.1672 10.0507 14.8118 10.4257 14.523C10.5157 14.5388 10.6523 14.523 10.758 14.5387L12.1058 14.5702C12.903 14.6018 13.188 14.9573 13.188 15.4103H13.1445ZM17.637 10.8555C16.6485 10.8555 15.813 11.6917 15.813 12.699C15.813 13.7107 16.6493 14.523 17.637 14.523C18.6488 14.523 19.485 13.7107 19.485 12.699C19.485 11.691 18.645 10.8555 17.637 10.8555ZM12 0C5.37075 0 0 5.37075 0 12C0 18.6292 5.37075 24 12 24C18.6292 24 24 18.6292 24 12C24 5.37075 18.6292 0 12 0ZM12 22.3358C6.29325 22.3358 1.66425 17.7068 1.66425 12C1.66425 6.29325 6.29325 1.66425 12 1.66425C17.7068 1.66425 22.3358 6.29325 22.3358 12C22.3358 17.7068 17.7068 22.3358 12 22.3358Z" fill="black"/>
</g>
<defs>
<clipPath id="clip0_201_57682">
<rect width="24" height="24" fill="white"/>
</clipPath>
</defs>
</svg>
