<svg width="24" height="24" viewBox="0 0 24 24" fill="none" xmlns="http://www.w3.org/2000/svg">
<g clip-path="url(#clip0_201_57648)">
<path d="M24.0038 1.85928V0.801027C23.7885 0.801027 23.5815 0.714777 23.4338 0.566277C23.2845 0.418527 23.199 0.211527 23.199 -0.00372314H22.1408C22.1168 0.441027 21.738 0.785277 21.297 0.762027C20.883 0.741777 20.5508 0.410277 20.5313 -0.00372314H19.4693C19.4415 0.441027 19.062 0.781527 18.6173 0.754527C18.2115 0.727527 17.8875 0.402777 17.8635 -0.00372314H16.8053C16.7813 0.441027 16.4025 0.785277 15.957 0.762027C15.5468 0.741777 15.2153 0.410277 15.1913 -0.00372314H14.133C14.109 0.441027 13.734 0.785277 13.2893 0.762027C12.8753 0.741777 12.5475 0.410277 12.5235 -0.00372314H11.4653C11.4383 0.441027 11.0595 0.781527 10.6133 0.754527C10.2075 0.727527 9.88353 0.402777 9.85503 -0.00372314H8.79678C8.78478 0.441027 8.41353 0.789027 7.97253 0.773277C7.55028 0.758277 7.21053 0.418527 7.19478 -0.00372314H6.13653C6.11253 0.441027 5.73378 0.785277 5.28828 0.762027C4.87803 0.741777 4.54653 0.410277 4.52628 -0.00372314H3.46803C3.44778 0.441027 3.07728 0.789027 2.63628 0.773277C2.21403 0.758277 1.87428 0.418527 1.85853 -0.00372314H0.800279C0.800279 0.211527 0.714029 0.418527 0.565529 0.566277C0.413279 0.715527 0.210779 0.801027 -0.00447083 0.801027V1.85928C0.440279 1.87953 0.784529 2.25003 0.769529 2.69103C0.757529 3.11328 0.417779 3.45303 -0.00447083 3.46878V4.52703C0.440279 4.54278 0.784529 4.91403 0.769529 5.35878C0.757529 5.78103 0.417779 6.12078 -0.00447083 6.13653V7.19478C0.440279 7.19478 0.800279 7.55478 0.800279 7.99953C0.800279 8.44053 0.440279 8.80428 -0.00447083 8.80428V9.86253C0.440279 9.86253 0.800279 10.2225 0.800279 10.6635C0.800279 11.1083 0.440279 11.4683 -0.00447083 11.4683V12.5303C0.440279 12.546 0.784529 12.9173 0.769529 13.362C0.757529 13.7843 0.417779 14.1203 -0.00447083 14.136V15.198C0.440279 15.198 0.800279 15.558 0.800279 15.999C0.800279 16.4438 0.440279 16.8038 -0.00447083 16.8038V17.8658C0.440279 17.8815 0.784529 18.2528 0.769529 18.6938C0.757529 19.116 0.417779 19.4595 -0.00447083 19.4715V20.5298C0.440279 20.5298 0.800279 20.8898 0.800279 21.339C0.800279 21.78 0.440279 22.14 -0.00447083 22.14V23.202C0.437279 23.202 0.800279 23.5613 0.800279 24.003H1.85853C1.88628 23.5613 2.26953 23.2223 2.71428 23.2493C3.12003 23.2763 3.44028 23.5973 3.46803 24.003H4.52628C4.55028 23.5613 4.92903 23.2178 5.37003 23.241C5.78403 23.2613 6.11628 23.5928 6.13578 24.003H7.19403C7.21803 23.5613 7.59678 23.2178 8.03778 23.241C8.45178 23.2613 8.78403 23.5928 8.80353 24.003H9.86178C9.88203 23.5613 10.2525 23.214 10.6935 23.229C11.1158 23.2448 11.4555 23.5853 11.4713 24.003H12.5295C12.5535 23.5613 12.9323 23.2178 13.3778 23.241C13.788 23.2613 14.1195 23.5928 14.1398 24.003H15.198C15.222 23.5613 15.6008 23.2178 16.0463 23.241C16.4565 23.2613 16.788 23.5928 16.8083 24.003H17.8665C17.8905 23.5613 18.2693 23.2178 18.7148 23.241C19.1288 23.2613 19.4565 23.5928 19.4798 24.003H20.5388C20.5545 23.5613 20.9258 23.214 21.3705 23.229C21.7928 23.2448 22.1325 23.5853 22.1445 24.003H23.1983C23.1983 23.7923 23.2845 23.5853 23.433 23.4368C23.5808 23.2875 23.7878 23.202 24.003 23.202V22.14C23.5583 22.1123 23.2223 21.7328 23.2448 21.288C23.2718 20.8823 23.5965 20.5583 24.003 20.5343V19.476C23.5583 19.452 23.214 19.0733 23.2373 18.6323C23.2575 18.2183 23.589 17.886 24.003 17.8665V16.8045C23.5583 16.7768 23.2223 16.3943 23.2448 15.9525C23.2718 15.5468 23.5965 15.2228 24.003 15.1988V14.1368C23.5583 14.1165 23.214 13.7378 23.2373 13.293C23.2575 12.8828 23.589 12.5513 24.003 12.5273V11.4735C23.5583 11.4458 23.2223 11.0625 23.2448 10.6178C23.2718 10.212 23.5965 9.88803 24.003 9.86403V8.80578C23.5583 8.78178 23.214 8.40303 23.2373 7.96203C23.2575 7.54803 23.589 7.21578 24.003 7.19628V6.13803C23.5583 6.11028 23.2223 5.72778 23.2448 5.28228C23.2718 4.88028 23.5965 4.55628 24.003 4.52853V3.47028C23.5583 3.44628 23.214 3.06753 23.2373 2.62653C23.2575 2.21253 23.589 1.88478 24.003 1.86078L24.0038 1.85928ZM19.9343 11.6993L13.5315 17.9265C14.1098 18.0165 14.6723 18.1485 15.2738 18.1485C16.7385 18.1485 18.423 17.7038 19.56 17.2343L18.978 19.98C17.3018 20.7848 16.2743 20.8523 15.2738 20.8523C14.1765 20.8523 13.1295 20.4923 12.06 20.4923C11.454 20.4923 10.5833 20.5395 10.0478 20.895L8.88753 18.84L15.4928 12.3008H7.89153L6.44178 19.1048H3.27078L6.57453 3.52653H17.0663L16.395 6.67128H9.09828L8.47353 9.59703H20.4495L19.9343 11.6993Z" fill="black"/>
</g>
<defs>
<clipPath id="clip0_201_57648">
<rect width="24" height="24" fill="white"/>
</clipPath>
</defs>
</svg>
