<svg width="24" height="24" viewBox="0 0 24 24" fill="none" xmlns="http://www.w3.org/2000/svg">
<g clip-path="url(#clip0_201_58342)">
<path d="M16.6327 16.3245H13.4332C13.2577 16.3245 13.113 16.1798 13.113 16.0042V7.97325C13.113 7.79775 13.2577 7.653 13.4332 7.653H16.398C18.6248 7.653 19.0935 8.9655 19.0935 10.0635C19.0935 10.7003 18.9255 11.2043 18.5895 11.5755C19.4062 11.9115 19.8435 12.669 19.8435 13.767C19.8435 15.3683 18.6443 16.3253 16.6327 16.3253V16.3245ZM11.988 16.3245H5.34375C5.16825 16.3245 5.0235 16.1798 5.0235 16.0042V7.97325C5.0235 7.79775 5.16825 7.653 5.34375 7.653H8.4495C10.3868 7.653 11.5433 8.69625 11.5433 10.446C11.5433 11.61 10.9612 12.5243 10.0162 12.8955L12.2272 15.7897C12.4072 15.9967 12.2625 16.3207 11.9887 16.3253L11.988 16.3245ZM12 0C5.37075 0 0 5.37075 0 12C0 18.6292 5.37075 24 12 24C18.6292 24 24 18.6292 24 12C24 5.37075 18.6292 0 12 0Z" fill="black"/>
</g>
<defs>
<clipPath id="clip0_201_58342">
<rect width="24" height="24" fill="white"/>
</clipPath>
</defs>
</svg>
