<svg width="24" height="24" viewBox="0 0 24 24" fill="none" xmlns="http://www.w3.org/2000/svg">
<path d="M7.6725 9.62696L4.86 8.00246C4.737 7.93046 4.58775 7.88696 4.428 7.88696C4.26825 7.88696 4.119 7.93121 3.9915 8.00546L3.9945 8.00246L1.182 9.62696C0.9225 9.77921 0.7515 10.0575 0.75 10.3755V13.623C0.75 13.9425 0.9225 14.2207 1.179 14.37L1.182 14.373L3.9945 15.996C4.119 16.0695 4.26825 16.113 4.428 16.113C4.58775 16.113 4.737 16.0687 4.8645 15.9945L4.86 15.996L7.6725 14.373C7.9335 14.2207 8.1045 13.9425 8.106 13.623V10.377C8.1045 10.0575 7.9335 9.77921 7.677 9.62846L7.6725 9.62696ZM7.52925 13.623C7.52925 13.7302 7.47225 13.8225 7.386 13.872L7.3845 13.8735L4.572 15.4965C4.53075 15.5212 4.48125 15.5362 4.42875 15.5362C4.37475 15.5362 4.3245 15.5212 4.2825 15.4965H4.284L1.4715 13.8735C1.38525 13.8225 1.32825 13.7302 1.32825 13.623V10.377C1.32825 10.2697 1.38525 10.1775 1.47 10.128L1.4715 10.1265L4.284 8.50346C4.32525 8.47871 4.37475 8.46371 4.42875 8.46371C4.48125 8.46371 4.5315 8.47871 4.5735 8.50346H4.572L7.3845 10.1265C7.47225 10.1775 7.52925 10.2697 7.52925 10.377V13.623Z" fill="black"/>
<path d="M6.08776 12.9405H5.88151C5.83051 12.9405 5.78326 12.954 5.74051 12.9773L5.74201 12.9758L4.49701 13.6598L3.05701 12.8295V11.1728L4.49551 10.3425L5.74351 11.0235C5.78326 11.0453 5.83126 11.0588 5.88151 11.0588H6.08776C6.16651 11.0588 6.23251 10.9943 6.23251 10.9155V10.719C6.23251 10.665 6.20176 10.6178 6.15751 10.593L4.77301 9.83551C4.69276 9.79126 4.59751 9.76501 4.49626 9.76501C4.38901 9.76501 4.29001 9.79276 4.20451 9.84301L4.20751 9.84151L2.76751 10.6733C2.59501 10.7745 2.48026 10.9605 2.47876 11.1713V12.8295C2.47876 13.0418 2.59426 13.2263 2.76601 13.3275L2.76751 13.329L4.20751 14.1593C4.28926 14.2073 4.38901 14.2358 4.49476 14.2358C4.59751 14.2358 4.69276 14.2095 4.77601 14.1638L4.77301 14.1653L6.15601 13.4063C6.20176 13.3815 6.23101 13.3328 6.23101 13.2788V13.0838C6.23101 13.005 6.16651 12.9405 6.08776 12.9405Z" fill="black"/>
<path d="M12.9188 10.2975C12.3225 10.299 11.838 10.782 11.838 11.3782V12.6247C11.838 13.2225 12.3218 13.707 12.9188 13.707C13.518 13.707 14.001 13.2225 14.001 12.6247V11.3782C14.001 10.782 13.5165 10.2975 12.9203 10.2975H12.9188ZM13.4235 12.6255C13.4235 12.9037 13.1978 13.131 12.918 13.131C12.6398 13.131 12.414 12.9037 12.414 12.6255V11.379C12.414 11.1007 12.6398 10.875 12.918 10.875C13.1978 10.875 13.4235 11.1007 13.4235 11.379V12.6255Z" fill="black"/>
<path d="M10.2742 10.8795C10.2945 10.8765 10.3185 10.8735 10.3402 10.8735C10.5982 10.8735 10.809 11.0655 10.8412 11.3145L10.8427 11.3175C10.8472 11.3527 10.8765 11.379 10.9132 11.379H11.3482C11.3895 11.379 11.4217 11.3467 11.4217 11.3055C11.4217 11.304 11.4217 11.301 11.4202 11.2995C11.3775 10.737 10.9102 10.2975 10.341 10.2975C10.3222 10.2975 10.3042 10.2975 10.2855 10.299H10.2885C9.70722 10.3267 9.26172 10.8292 9.26172 11.4105V12.594C9.26172 13.1752 9.70722 13.6762 10.2885 13.7055C10.3042 13.7055 10.3222 13.707 10.341 13.707C10.911 13.707 11.3782 13.2675 11.4202 12.708L11.4217 12.7035C11.4217 12.702 11.4217 12.699 11.4217 12.6975C11.4217 12.6577 11.3895 12.624 11.3497 12.624H10.9147C10.9147 12.624 10.9147 12.624 10.9132 12.624C10.878 12.624 10.8472 12.6517 10.8427 12.687C10.8105 12.9375 10.5982 13.1295 10.3402 13.1295C10.3185 13.1295 10.2945 13.128 10.2727 13.125H10.2757C10.0252 13.0852 9.83622 12.8715 9.83622 12.6135C9.83622 12.612 9.83622 12.609 9.83622 12.606V11.3962C9.83622 11.3932 9.83622 11.3902 9.83622 11.3872C9.83622 11.1307 10.0252 10.917 10.2727 10.8772H10.2757L10.2742 10.8795Z" fill="black"/>
<path d="M16.2495 12.2857C16.557 12.1447 16.7662 11.8402 16.7677 11.4877V11.2215C16.7677 10.737 16.3755 10.3455 15.8917 10.3455H14.6685C14.6287 10.3455 14.5965 10.3777 14.5965 10.4175V13.59C14.5965 13.6297 14.6287 13.662 14.6685 13.662H15.1005C15.1402 13.662 15.1725 13.6297 15.1725 13.59V12.3637H15.6502L16.2217 13.6192C16.2337 13.6455 16.2585 13.662 16.2877 13.662H16.7625C16.8022 13.662 16.8345 13.6297 16.8345 13.59C16.8345 13.5795 16.833 13.5697 16.827 13.5592L16.8285 13.5607L16.2495 12.2857ZM16.191 11.487C16.1895 11.6512 16.056 11.7855 15.891 11.7855H15.1807V10.92H15.891C16.0567 10.92 16.1895 11.055 16.1895 11.2185L16.191 11.487Z" fill="black"/>
<path d="M19.2832 10.3433H17.4082C17.3685 10.3433 17.3362 10.3755 17.3362 10.4153V13.5893C17.3362 13.629 17.3685 13.6613 17.4082 13.6613H19.2832C19.323 13.6613 19.3552 13.629 19.3552 13.5893V13.1558C19.3552 13.116 19.323 13.0838 19.2832 13.0838H17.9137V12.2183H18.8512C18.891 12.2183 18.9232 12.186 18.9232 12.1463V11.7143C18.9232 11.6745 18.891 11.6423 18.8512 11.6423H17.9137V10.92H19.2832C19.323 10.92 19.3552 10.8878 19.3552 10.848V10.416C19.3552 10.3763 19.323 10.344 19.2832 10.344V10.3433Z" fill="black"/>
<path d="M22.0238 10.3433H21.5918C21.552 10.3433 21.5198 10.3755 21.5198 10.4153V12.0488C21.5198 12.0563 21.5198 12.0638 21.5198 12.0705C21.5198 12.3503 21.2925 12.576 21.0143 12.576C20.736 12.576 20.5088 12.3503 20.5088 12.0705C20.5088 12.063 20.5088 12.0555 20.5088 12.0488V10.4153C20.5088 10.3755 20.4765 10.3433 20.4368 10.3433H20.0048C19.965 10.3433 19.9328 10.3755 19.9328 10.4153V12.0488C19.9328 12.0563 19.9313 12.0638 19.9313 12.0705C19.9313 12.6683 20.4158 13.1528 21.0135 13.1528C21.6113 13.1528 22.0958 12.6683 22.0958 12.0705C22.0958 12.063 22.0958 12.0555 22.0943 12.0488V10.4153C22.0943 10.3755 22.062 10.3433 22.0223 10.3433H22.0238Z" fill="black"/>
<path d="M22.7445 10.3433H23.178C23.2177 10.3433 23.25 10.3755 23.25 10.4153V13.0125C23.25 13.0523 23.2177 13.0845 23.178 13.0845H22.7445C22.7047 13.0845 22.6725 13.0523 22.6725 13.0125V10.4153C22.6725 10.3755 22.7047 10.3433 22.7445 10.3433Z" fill="black"/>
</svg>
