<svg width="24" height="24" viewBox="0 0 24 24" fill="none" xmlns="http://www.w3.org/2000/svg">
<g clip-path="url(#clip0_201_58522)">
<path d="M3.12903 17.9414C3.09753 17.7269 3.10953 17.2267 3.10953 17.2267H2.82078C2.15703 17.2267 1.89903 16.9612 1.89903 16.2967V13.6642C1.89903 12.4724 1.62153 12.1837 1.06278 11.9999V11.9377C1.62153 11.7539 1.89903 11.4532 1.89903 10.2622V7.6372C1.89903 6.9772 2.15703 6.7702 2.81703 6.7702H3.10203C3.10203 6.7702 3.11778 6.31345 3.14928 6.04345C3.01278 6.0277 2.48928 6.01645 2.48928 6.01645C1.15353 6.01645 0.778526 6.6607 0.778526 7.9927V10.3837C0.778526 11.3639 0.212276 11.4929 0.00152588 11.4929V12.4424C0.212276 12.4424 0.767276 12.5752 0.767276 13.5359V15.9419C0.767276 17.2777 1.14228 17.9069 2.47428 17.9069C2.47428 17.9069 2.99778 17.9542 3.10728 17.9542L3.12903 17.9414ZM2.31678 12.5894C2.80503 12.5894 3.50403 12.7574 3.50403 13.9882V17.0504C3.50403 18.7499 3.91053 19.6012 5.60928 19.6012H6.37503V18.6907H5.98428C5.14428 18.6907 4.82778 18.3427 4.82778 17.5034V14.1442C4.82778 12.6284 4.35153 12.2572 3.51153 12.0232V11.9564C4.35153 11.7179 4.84728 11.3317 4.84728 9.81595V6.4642C4.84728 5.62795 5.16003 5.37445 5.99928 5.37445H6.39003V4.4017H5.64003C3.94503 4.4017 3.53853 5.22595 3.53853 6.92095V9.9757C3.53853 11.2214 2.85078 11.4014 2.35503 11.4014V12.6007L2.31678 12.5894ZM13.8045 16.4879C14.2695 16.3552 14.6603 16.1677 14.9805 15.9217C15.3008 15.6794 15.5505 15.3749 15.7305 15.0194C15.906 14.6639 15.996 14.2732 15.996 13.8359C15.996 13.4572 15.9293 13.1324 15.801 12.8632C15.6683 12.5894 15.453 12.3554 15.1643 12.1484C14.871 11.9452 14.496 11.7577 14.0468 11.5979C13.5938 11.4374 13.047 11.2777 12.402 11.1217C11.7143 10.9462 11.238 10.7894 10.9688 10.6567C10.6995 10.5157 10.5623 10.2937 10.5623 9.9847C10.5623 9.6292 10.7033 9.36745 10.9883 9.21145C11.2658 9.0472 11.613 8.97295 12.027 8.97295C12.4725 8.97295 12.9218 9.03145 13.3665 9.17995C13.812 9.31645 14.2883 9.55495 14.7923 9.87145L15.7373 8.4457C15.1868 8.1022 14.5928 7.82845 13.9598 7.62145C13.3268 7.4107 12.6863 7.3207 12.0533 7.3207C11.5455 7.3207 11.0648 7.38295 10.6313 7.5157C10.194 7.6522 9.80703 7.8442 9.47478 8.10145C9.14253 8.3557 8.89278 8.67145 8.70903 9.03145C8.52903 9.3907 8.43978 9.80845 8.43978 10.2577C8.43978 10.6012 8.50203 10.8869 8.61978 11.1442C8.74053 11.3984 8.92053 11.6092 9.17478 11.8042C9.43278 11.9954 9.76053 12.1597 10.1828 12.3119C10.6005 12.4604 11.097 12.6127 11.679 12.7454C12.4605 12.9292 12.999 13.0934 13.3275 13.2569C13.6598 13.4054 13.8233 13.6477 13.8233 13.9642C13.8233 14.2769 13.6868 14.5304 13.4168 14.6947C13.1468 14.8589 12.7605 14.9489 12.2798 14.9489C11.2133 14.9489 10.104 14.5739 8.96703 13.8239L7.99053 15.4447C8.25978 15.6247 8.56053 15.7882 8.90478 15.9404C9.25278 16.0889 9.60828 16.2097 9.98328 16.3154C10.3583 16.4212 10.749 16.4954 11.1555 16.5539C11.5575 16.6124 11.9325 16.6282 12.2963 16.6282C12.8625 16.6282 13.3748 16.5539 13.839 16.4212L13.8045 16.4879ZM21.2655 6.76945C21.9255 6.76945 22.1168 6.97645 22.1168 7.63645V10.2614C22.1168 11.4487 22.3275 11.7539 23.1638 11.9414V11.9924C22.3275 12.1762 22.1168 12.4687 22.1168 13.6567V16.2974C22.1168 16.9574 21.9255 17.2274 21.2655 17.2274H20.9768C20.9768 17.2274 20.973 17.7277 20.9453 17.9384C21.0623 17.9384 21.5198 17.9227 21.5198 17.9227C22.8555 17.9227 23.1645 17.2739 23.1645 15.9419V13.5434C23.1645 12.5789 23.7233 12.4499 24.0008 12.4499V11.4892C23.7233 11.4892 23.1645 11.3564 23.1645 10.3837V7.9927C23.1645 6.6607 22.8563 6.01195 21.5198 6.01195C21.5198 6.01195 21.051 6.0277 20.9145 6.04345C20.9415 6.3127 20.973 6.7702 20.973 6.7702L21.2655 6.76945ZM20.445 17.0504V13.9837C20.445 12.7574 21.1403 12.5894 21.6285 12.5894V11.3782C21.1403 11.3782 20.445 11.2102 20.445 9.96445V6.9172C20.445 5.2222 20.1758 4.39795 18.4763 4.39795H17.6558V5.37445H18.105C18.945 5.37445 19.191 5.6242 19.191 6.4642V9.81595C19.191 11.3279 19.6088 11.7142 20.4488 11.9489V12.0194C19.6088 12.2542 19.203 12.6209 19.203 14.1367V17.4997C19.203 18.3434 18.9645 18.6914 18.1245 18.6914H17.6753V19.6019H18.4995C20.2103 19.6019 20.4803 18.7462 20.4803 17.0474H20.445V17.0504Z" fill="black"/>
</g>
<defs>
<clipPath id="clip0_201_58522">
<rect width="24" height="24" fill="white"/>
</clipPath>
</defs>
</svg>
