<svg width="24" height="24" viewBox="0 0 24 24" fill="none" xmlns="http://www.w3.org/2000/svg">
<g clip-path="url(#clip0_201_58418)">
<path d="M24 12L12 0L0 12L12 24L24 12ZM12 3.195L16.4183 7.61325C14.973 7.23075 13.4888 7.0275 12 7.0275C10.5112 7.0275 9.027 7.227 7.58175 7.617L12 3.195ZM8.07 16.8713C9.25725 16.2113 10.6012 15.8632 12 15.8632C13.3988 15.8632 14.742 16.2113 15.93 16.8713L12 20.805L8.07 16.8713ZM17.5785 15.2228C15.8835 14.1443 13.9417 13.602 12 13.602C10.0583 13.602 8.11725 14.145 6.4215 15.2228L3.32025 12.1215C5.82 10.2855 8.83575 9.2895 12 9.2895C15.1642 9.2895 18.18 10.2855 20.6798 12.1215L17.5785 15.2228Z" fill="black"/>
</g>
<defs>
<clipPath id="clip0_201_58418">
<rect width="24" height="24" fill="white"/>
</clipPath>
</defs>
</svg>
