<svg width="24" height="24" viewBox="0 0 24 24" fill="none" xmlns="http://www.w3.org/2000/svg">
<g clip-path="url(#clip0_201_57666)">
<path d="M17.7263 3.465L17.1908 6.2655C17.1285 6.56625 16.7453 6.8865 16.3898 6.8865H11.409C10.8465 6.8865 10.4445 7.27725 10.4445 7.8315V8.445C10.4445 9.015 10.851 9.40575 11.4135 9.40575H15.6443C16.0388 9.40575 16.4295 9.843 16.3395 10.2615L15.804 13.0192C15.753 13.2615 15.4913 13.6522 15.0188 13.6522H11.562C10.9328 13.6522 10.7453 13.7422 10.3238 14.2537C9.9015 14.7772 6.117 19.32 6.117 19.32C6.08175 19.3673 6.04275 19.3515 6.04275 19.3043V3.4215C6.04275 3.06225 6.3555 2.64 6.81975 2.64H17.0933C17.4683 2.64 17.8238 2.9955 17.7263 3.4605V3.465ZM18.18 14.445C18.3248 13.8667 19.926 5.6595 20.4615 3.0585L18.18 14.445ZM18.4845 0H5.6835C3.918 0 3.39825 1.32825 3.39825 2.16375V22.5037C3.39825 23.445 3.90225 23.7967 4.18725 23.91C4.47225 24.027 5.2575 24.1208 5.73 23.5815C5.73 23.5815 11.7728 16.566 11.8748 16.464C12.039 16.308 12.039 16.308 12.1913 16.308H16.1055C17.754 16.308 18.012 15.1357 18.1913 14.445C18.3398 13.8787 19.9455 5.6715 20.4683 3.06225C20.8748 1.07775 20.3625 0 18.4875 0L18.4845 0Z" fill="black"/>
</g>
<defs>
<clipPath id="clip0_201_57666">
<rect width="24" height="24" fill="white"/>
</clipPath>
</defs>
</svg>
