<svg width="24" height="24" viewBox="0 0 24 24" fill="none" xmlns="http://www.w3.org/2000/svg">
<g clip-path="url(#clip0_201_57138)">
<path d="M19.5352 9.14776C18.1642 9.14776 17.4022 10.164 17.2425 11.2658H21.8527C21.7275 10.215 20.985 9.15151 19.536 9.15151L19.5352 9.14776ZM17.277 12.7703C17.5117 13.926 18.4687 14.7383 19.809 14.7383C20.5312 14.7383 21.5782 14.469 22.191 13.824L23.367 15.1763C22.305 16.2855 20.715 16.602 19.629 16.602C16.9882 16.602 14.9302 14.6948 14.9302 11.9918C14.9302 9.46051 16.824 7.37476 19.5 7.37476C22.086 7.37476 24 9.35476 24 11.9768V12.7418H17.277V12.7703ZM10.7887 16.5983V10.9065C10.7887 9.93451 10.3545 9.37126 9.44847 9.37126C8.63622 9.37126 8.09772 9.95701 7.73322 10.3793V16.617H5.38197V10.9178C5.38197 9.94051 4.96797 9.38701 4.06497 9.38701C3.25272 9.38701 2.69022 9.97276 2.34672 10.395V16.6328H-0.00152588V7.50751H2.35047V8.65576C2.74872 8.19451 3.65022 7.39801 5.05722 7.39801C6.30747 7.39801 7.15422 7.92226 7.53297 8.98801C8.06022 8.22676 9.03297 7.39801 10.443 7.39801C12.1462 7.39801 13.1347 8.40601 13.1347 10.359V16.602H10.7827L10.7865 16.5938L10.7887 16.5983Z" fill="black"/>
</g>
<defs>
<clipPath id="clip0_201_57138">
<rect width="24" height="24" fill="white"/>
</clipPath>
</defs>
</svg>
