<svg width="24" height="24" viewBox="0 0 24 24" fill="none" xmlns="http://www.w3.org/2000/svg">
<g clip-path="url(#clip0_201_58682)">
<path d="M24.0563 11.9999C24.0563 12.1162 23.9925 12.2287 23.8875 12.2812L20.5462 14.2874C20.4937 14.3174 20.4412 14.3399 20.3775 14.3399C20.325 14.3399 20.2612 14.3287 20.2087 14.2987C20.1038 14.2349 20.04 14.1299 20.04 14.0062V12.6712H11.0887C12.0375 14.1562 12.6075 16.6799 13.6987 16.6799H14.7V15.6749C14.7 15.4874 14.8463 15.3412 15.0338 15.3412H18.375C18.5625 15.3412 18.7087 15.4874 18.7087 15.6749V19.0162C18.7087 19.2037 18.5625 19.3499 18.375 19.3499H15.0338C14.8463 19.3499 14.7 19.2037 14.7 19.0162V18.0149H13.6987C10.8712 18.0149 10.6575 12.6712 9.0225 12.6712H5.26125C4.9575 13.8187 3.915 14.6774 2.67375 14.6774C1.2 14.6737 0 13.4737 0 11.9999C0 10.5262 1.2 9.32619 2.67375 9.32619C3.915 9.32619 4.96125 10.1812 5.26125 11.3324C6.7275 11.3324 6.9075 11.6887 8.05875 9.06744C9.5625 5.72619 10.2375 5.98869 12.1425 5.98869C12.4237 5.20494 13.155 4.65369 14.0325 4.65369C15.1387 4.65369 16.0387 5.54994 16.0387 6.65994C16.0387 7.76994 15.1425 8.66619 14.0325 8.66619C13.155 8.66619 12.4237 8.11119 12.1425 7.33119H11.025C9.93375 7.33119 9.36375 9.85869 8.415 11.3399H20.0438V10.0049C20.0438 9.88119 20.1075 9.77619 20.2125 9.71244C20.3175 9.64869 20.4525 9.65994 20.5462 9.72369L23.8875 11.7299C23.9925 11.7712 24.0563 11.8837 24.0563 11.9999Z" fill="black"/>
</g>
<defs>
<clipPath id="clip0_201_58682">
<rect width="24" height="24" fill="white"/>
</clipPath>
</defs>
</svg>
