<svg width="24" height="24" viewBox="0 0 24 24" fill="none" xmlns="http://www.w3.org/2000/svg">
<g clip-path="url(#clip0_201_57486)">
<path d="M2.93374 13.4692C2.70649 10.602 3.65599 7.77 5.56549 5.62125C7.47649 3.477 10.1795 2.199 13.0505 2.09025C15.9215 1.9845 18.7107 3.051 20.7762 5.0475C22.847 7.04325 24.0072 9.7935 23.999 12.6683V12C23.999 5.37075 18.6282 0 11.999 0C5.36974 0 -0.00100708 5.37075 -0.00100708 12C-0.00100708 18.6292 5.36974 24 11.999 24H12.8C7.26124 23.6092 2.96374 19.0163 2.93299 13.4692H2.93374ZM19.199 14.0002C14.8872 14.016 13.8117 8.01225 17.867 6.531C16.6797 5.898 15.3477 5.574 14 5.60175C10.6017 5.60175 7.53874 7.64775 6.23824 10.785C4.93849 13.926 5.65624 17.5387 8.05924 19.941C10.4615 22.344 14.0742 23.0618 17.2152 21.762C20.3525 20.4608 22.3985 17.3978 22.3985 14.0002C22.4225 13.4655 22.3797 12.9263 22.2665 12.3983C21.6095 13.449 20.4387 14.0625 19.1997 14.0002H19.199Z" fill="black"/>
</g>
<defs>
<clipPath id="clip0_201_57486">
<rect width="24" height="24" fill="white"/>
</clipPath>
</defs>
</svg>
