<svg width="24" height="24" viewBox="0 0 24 24" fill="none" xmlns="http://www.w3.org/2000/svg">
<g clip-path="url(#clip0_201_57530)">
<path d="M4.07849 22.5847H7.53299V19.1347H4.07849V22.5847ZM1.19024 16.2472V19.1347H4.07774V16.2472H1.19024ZM23.0437 8.29199C21.9652 4.81424 19.1812 2.04374 15.7027 0.951744C7.72949 -1.53751 0.374237 4.39199 0.374237 11.9955H4.86524C4.86524 7.22399 9.59924 3.53474 14.6197 5.35349C16.4805 6.02399 17.9715 7.51424 18.642 9.37049C20.475 14.3865 16.7812 19.1115 12.0142 19.1205V19.1347H12V23.6257C19.6222 23.6257 25.5375 16.2757 23.0437 8.29274V8.29199ZM12.0142 19.1205V14.6535H7.53299V19.1347H12V19.1205H12.0142Z" fill="black"/>
</g>
<defs>
<clipPath id="clip0_201_57530">
<rect width="24" height="24" fill="white"/>
</clipPath>
</defs>
</svg>
