<svg width="24" height="24" viewBox="0 0 24 24" fill="none" xmlns="http://www.w3.org/2000/svg">
<g clip-path="url(#clip0_201_57864)">
<path d="M14.3085 9.58924V9.59299C14.2342 9.54574 14.082 9.52249 13.8907 9.52249V14.339C14.16 14.339 14.328 14.2767 14.391 14.171C14.4532 14.0697 14.4847 13.769 14.4847 13.2882V10.421C14.4847 10.0925 14.481 9.88174 14.4532 9.79174C14.43 9.69424 14.3865 9.62749 14.3123 9.58849L14.3085 9.58924ZM22.4137 -0.00025708H1.62075C0.74175 0.0582429 0.0585 0.742243 0 1.59724V22.3782C0.0585 23.2535 0.711 23.921 1.55475 23.9952C1.5705 23.999 1.58625 23.999 1.602 23.999H22.446C23.325 23.909 23.997 23.1747 24.0007 22.2882V1.70974C24.0007 0.818743 23.3055 0.0687429 22.4145 -0.00100708L22.4137 -0.00025708ZM4.79325 15.6245H2.88675V8.26099H4.79325V15.6245ZM11.3317 15.6245H9.67125V10.652L8.99925 15.6207H7.812L7.113 10.7615L7.1055 15.6207H5.44125V8.26099H7.90575C7.992 8.78074 8.06625 9.30799 8.136 9.83524L8.40525 11.7027L8.85075 8.26099H11.331L11.3317 15.6245ZM16.3088 13.445C16.3088 14.0975 16.266 14.5385 16.203 14.765C16.1445 14.984 16.035 15.1632 15.879 15.2847C15.7305 15.4137 15.5393 15.5037 15.309 15.5502C15.0863 15.593 14.739 15.6245 14.2897 15.6245L14.286 15.6207H11.9813V8.26099H13.407C14.3212 8.26099 14.856 8.30824 15.1763 8.38624C15.5003 8.47624 15.7507 8.61274 15.9225 8.80849C16.0868 8.98849 16.1962 9.21049 16.2352 9.45274C16.2862 9.68749 16.3095 10.1562 16.3095 10.8552L16.3088 13.445ZM21.2542 13.9175C21.2542 14.3667 21.207 14.6832 21.1642 14.9097C21.102 15.1325 20.9692 15.3117 20.7577 15.476C20.5312 15.644 20.277 15.7182 19.9762 15.7182C19.7572 15.7182 19.476 15.656 19.2967 15.5817C19.1092 15.488 18.9412 15.3432 18.7808 15.152L18.6675 15.6245H16.9485V8.26099L16.929 8.25724H18.7297V10.6557C18.8783 10.4802 19.0462 10.3475 19.2375 10.2575C19.437 10.1757 19.7063 10.1285 19.929 10.1285C20.1555 10.1285 20.3783 10.1637 20.589 10.2455C20.7607 10.316 20.9093 10.4292 21.0262 10.574C21.1162 10.6992 21.1747 10.8432 21.2062 10.9962C21.2332 11.1327 21.249 11.426 21.249 11.8632V13.9182L21.2542 13.9175ZM19.0785 11.2032C18.9615 11.2032 18.8873 11.246 18.8558 11.324C18.8243 11.4057 18.7972 11.6127 18.7972 11.9487V13.8942C18.7972 14.2182 18.8243 14.4297 18.8558 14.519C18.8948 14.6052 18.9848 14.6555 19.0823 14.6517C19.1993 14.6517 19.3515 14.6045 19.383 14.5107C19.41 14.4132 19.4257 14.1905 19.4257 13.8387L19.4573 13.835V11.9442C19.4573 11.6435 19.4415 11.4365 19.3988 11.3427C19.3515 11.2415 19.2038 11.2017 19.0823 11.2017L19.0785 11.2032Z" fill="black"/>
</g>
<defs>
<clipPath id="clip0_201_57864">
<rect width="24" height="24" fill="white"/>
</clipPath>
</defs>
</svg>
