<svg width="24" height="24" viewBox="0 0 24 24" fill="none" xmlns="http://www.w3.org/2000/svg">
<g clip-path="url(#clip0_201_57448)">
<path d="M23.9925 11.805C23.9887 11.7113 23.985 11.6213 23.973 11.5275V11.5238C23.8867 10.5158 23.547 9.54751 22.9845 8.71126C22.7347 8.33251 22.4415 7.98451 22.1175 7.67251C21.633 7.20751 21.0825 6.82876 20.4765 6.54001C19.5232 6.09076 18.4807 5.86426 17.4255 5.87176C16.5585 5.86801 15.6952 6.02026 14.8785 6.31726C14.2222 6.54751 13.605 6.88351 13.0582 7.31326C12.945 7.40701 12.8317 7.50076 12.726 7.60201L12.6397 7.68826L12.5227 7.81351L12.441 7.89526L12.3 8.04376C12.1942 8.16076 12.0967 8.27851 12.003 8.39176L11.9992 8.38801C11.808 8.61826 11.6317 8.86426 11.499 9.07951C11.409 9.22051 11.3235 9.36451 11.241 9.50926L10.0927 11.826H10.0965L10.0342 11.9468L9.90899 12.201C9.65924 12.7125 9.38924 13.2203 9.08849 13.6388C8.41649 14.373 7.65899 14.7368 6.68249 14.7368C6.61574 14.7368 6.54599 14.733 6.47549 14.7293C5.88599 14.706 5.38199 14.565 4.93649 14.2995C4.51424 14.0573 4.16699 13.7018 3.94049 13.272C3.71024 12.8498 3.60074 12.3773 3.61649 11.901V11.8658C3.64799 11.1083 3.93674 10.5143 4.52249 10.0065C4.66349 9.88126 4.81124 9.78001 4.96799 9.68626C4.98749 9.67426 5.01074 9.66301 5.03024 9.65101C5.46749 9.41251 5.96024 9.29551 6.52274 9.29551L6.69824 9.29926C7.60049 9.33451 8.29199 9.61576 8.84699 10.1625L10.5772 7.04926C10.14 6.76051 9.67124 6.52201 9.17849 6.34201C9.15899 6.33451 9.13949 6.32251 9.11999 6.31876C9.05774 6.29551 8.99474 6.27151 8.93249 6.25201C8.37749 6.06826 7.79999 5.95126 7.21799 5.90401C7.20224 5.90401 7.18649 5.90026 7.17074 5.90026C7.08074 5.89276 6.98699 5.88451 6.89699 5.88076C6.79949 5.87701 6.69749 5.87326 6.59999 5.87326H6.54524C5.49824 5.86576 4.46324 6.09601 3.51824 6.54151C2.50274 7.02226 1.63574 7.77226 1.01399 8.70976C0.345743 9.70951 -0.00975754 10.8855 -0.00150754 12.0885C-0.00525754 13.6553 0.564742 15.0263 1.69799 16.182C2.88524 17.3933 4.42049 18.045 6.26849 18.1238C6.38549 18.1275 6.50324 18.1313 6.62024 18.1313C7.66349 18.1313 8.63174 17.9438 9.49949 17.5725C9.71399 17.4788 9.92549 17.373 10.14 17.2523C10.257 17.1855 10.3665 17.1113 10.4797 17.0378L10.5577 16.983L10.6942 16.8893C10.8585 16.7723 11.0107 16.6433 11.163 16.5068L11.214 16.4558C11.304 16.374 11.3895 16.2878 11.472 16.2015L11.7847 15.8498L11.9017 15.7013L11.9602 15.6195L12.015 15.5415C12.4762 14.7683 13.98 11.94 13.98 11.94V11.9363L14.07 11.7645L14.1442 11.628C14.3632 11.226 14.523 10.9403 14.7382 10.6395L14.742 10.6275C15.234 9.91276 16.086 9.40126 17.0895 9.31501C18.7695 9.17026 20.2417 10.2758 20.3745 11.7795C20.511 13.287 19.257 14.6273 17.5777 14.772C17.238 14.799 16.8982 14.7795 16.566 14.7053L16.5585 14.709C15.324 14.451 14.5387 13.557 14.1525 13.1505L12.5355 16.1273C12.5355 16.1273 13.0395 16.6313 13.383 16.8848C13.731 17.139 14.1757 17.385 14.5312 17.541C15.426 17.928 16.3905 18.1305 17.367 18.1305C17.4877 18.1305 17.4645 18.1305 17.5897 18.123C19.4332 18.0488 21.078 17.3415 22.2652 16.131C23.3865 14.979 23.9955 13.6665 24.0037 12.1118V12.0645L23.9925 11.805Z" fill="black"/>
</g>
<defs>
<clipPath id="clip0_201_57448">
<rect width="24" height="24" fill="white"/>
</clipPath>
</defs>
</svg>
