<svg width="24" height="24" viewBox="0 0 24 24" fill="none" xmlns="http://www.w3.org/2000/svg">
<path d="M14.9805 8.24625L20.418 2.7345L21.9727 4.3125L16.5352 9.82425L14.9767 8.24625H14.9805ZM12.777 13.8825C12.261 13.8825 11.769 13.6755 11.4097 13.3043C11.0505 12.933 10.851 12.4373 10.851 11.9213C10.851 10.839 11.7105 9.96 12.7732 9.96C13.8397 9.96 14.703 10.839 14.703 11.9213C14.703 12.4373 14.5035 12.933 14.1405 13.3043C13.7812 13.6718 13.2892 13.8825 12.777 13.8825ZM21.996 19.578L20.4412 21.156L15.0037 15.6405L16.5622 14.0662L21.996 19.578ZM12.8362 20.4022C13.899 20.4022 14.9497 20.1952 15.93 19.7887L18.5865 22.4842C16.8322 23.4765 14.8522 24 12.8362 24C6.29699 24 1.00049 18.6292 1.00049 12C1.00049 5.37075 6.30149 0 12.8362 0C14.9025 0 16.848 0.53925 18.5355 1.48425L15.9262 4.13625C14.946 3.72975 13.8952 3.52275 12.8362 3.52275C8.25824 3.52275 4.54724 7.30425 4.54724 11.964C4.54724 16.6237 8.25824 20.4015 12.8362 20.4015V20.4022Z" fill="black"/>
</svg>
