<svg width="24" height="24" viewBox="0 0 24 24" fill="none" xmlns="http://www.w3.org/2000/svg">
<g clip-path="url(#clip0_201_58042)">
<path d="M23.1908 7.87875C23.1908 2.6715 19.7805 1.14749 19.7805 1.14749C18.0615 0.354745 15.1088 0.0224947 12.0383 -0.00075531H11.964C8.89725 0.0224947 5.94375 0.353995 4.22625 1.14749C4.22625 1.14749 0.811503 2.6715 0.811503 7.87875C0.811503 9.06975 0.788253 10.4955 0.827253 12.0075C0.952503 17.1015 1.761 22.1167 6.468 23.3625C8.64 23.9377 10.503 24.0585 12.003 23.9767C14.7263 23.8237 16.2533 23.004 16.2533 23.004L16.1633 21.027C16.1633 21.027 14.2185 21.6412 12.0345 21.5662C9.87075 21.492 7.5855 21.336 7.2375 18.6765C7.20225 18.4305 7.18725 18.1807 7.18725 17.9302C7.18725 17.9302 9.31125 18.4492 12.0075 18.5745C13.6515 18.6487 15.1943 18.4777 16.7655 18.2895C19.7693 17.9347 22.3905 16.0785 22.7183 14.3872C23.2335 11.7232 23.19 7.87949 23.19 7.87949L23.1908 7.87875ZM19.1678 14.5897H16.6718V8.469C16.6718 7.17974 16.1288 6.52274 15.0428 6.52274C13.8435 6.52274 13.242 7.3005 13.242 8.83574V12.1875H10.758V8.83574C10.758 7.3005 10.1558 6.52274 8.95725 6.52274C7.87125 6.52274 7.32825 7.17974 7.32825 8.469V14.586H4.83225V8.28524C4.83225 6.996 5.16 5.97299 5.82 5.21549C6.50025 4.45724 7.38675 4.06649 8.49225 4.06649C9.77025 4.06649 10.7385 4.55924 11.379 5.54324L12 6.58649L12.621 5.54324C13.2623 4.55924 14.2298 4.06649 15.5078 4.06649C16.6125 4.06649 17.5035 4.45724 18.1838 5.21549C18.84 5.97374 19.1678 6.99675 19.1678 8.28524V14.5897Z" fill="black"/>
</g>
<defs>
<clipPath id="clip0_201_58042">
<rect width="24" height="24" fill="white"/>
</clipPath>
</defs>
</svg>
