<svg width="24" height="24" viewBox="0 0 24 24" fill="none" xmlns="http://www.w3.org/2000/svg">
<g clip-path="url(#clip0_201_57548)">
<path d="M3.168 7.56677V16.317H4.19175V9.98852C4.19925 9.59027 4.18425 9.18752 4.14075 8.78927H4.17975C4.254 8.98052 4.34775 9.16427 4.45725 9.33602L8.95725 16.3125H10.2112V7.56677H9.192V13.719C9.18 14.1488 9.204 14.5785 9.25425 15.0045H9.231C9.17625 14.8988 9.0555 14.7038 8.8755 14.4188L4.49625 7.56752L3.168 7.56677ZM12.4807 7.56677V16.317H17.133L17.1367 15.3563H13.527V12.321H16.6875V11.3993H13.527V8.49302H16.9177V7.56752L12.4807 7.56677ZM17.9182 7.56677V8.49227H20.4337V16.3163H21.4575V8.49227H24.0007V7.56677H17.9182ZM0.652496 15.0668C0.480746 15.0705 0.316496 15.1448 0.195746 15.2738C0.070496 15.399 0.000745956 15.5745 0.000745956 15.7545C-0.00300404 15.9345 0.071246 16.1063 0.195746 16.2353C0.320246 16.3643 0.496496 16.4385 0.676496 16.4348C0.860246 16.4348 1.032 16.3643 1.15725 16.2353C1.28625 16.11 1.3605 15.9345 1.3605 15.7545C1.3605 15.5745 1.28625 15.399 1.15725 15.2738C1.032 15.141 0.860246 15.0668 0.676496 15.0668C0.668996 15.0668 0.660746 15.0668 0.653246 15.0668H0.652496Z" fill="black"/>
</g>
<defs>
<clipPath id="clip0_201_57548">
<rect width="24" height="24" fill="white"/>
</clipPath>
</defs>
</svg>
