<svg width="24" height="24" viewBox="0 0 24 24" fill="none" xmlns="http://www.w3.org/2000/svg">
<g clip-path="url(#clip0_201_58466)">
<path d="M12 0C5.37075 0 0 5.37075 0 12C0 18.6292 5.37075 24 12 24C18.6292 24 24 18.6292 24 12C24 5.37075 18.6292 0 12 0ZM19.9298 4.965L19.9688 5.844L19.0545 6C18.3472 6.19125 17.7338 6.465 17.2103 6.81225C16.6875 7.16025 16.245 7.5435 15.882 7.96125C15.5258 8.367 15.2288 8.81625 14.991 9.3015L14.976 9.33675C14.733 9.84075 14.5193 10.3755 14.3273 10.935C14.718 10.599 15.159 10.3253 15.636 10.122L15.6713 10.11C16.1903 9.888 16.8113 9.774 17.5343 9.774C18.3705 9.774 19.077 10.071 19.644 10.6613C20.214 11.247 20.4953 12.0173 20.4953 12.9585C20.4953 14.3685 19.956 15.5873 18.8745 16.6185C17.7885 17.6497 16.4603 18.1658 14.8822 18.1658C13.6283 18.1658 12.624 17.7908 11.8785 17.0408C11.1322 16.2945 10.7572 15.2985 10.7572 14.061C10.7572 11.697 11.5972 9.67425 13.2765 7.98975C14.9602 6.303 17.1758 5.29875 19.9298 4.9665V4.965ZM7.926 9.102C8.35875 9.102 8.76225 9.129 9.13725 9.18375C9.5235 9.23775 9.87525 9.3435 10.1993 9.492L10.176 9.48C10.4648 9.609 10.6987 9.80475 10.8832 10.0387L10.887 10.047C11.055 10.2773 11.1368 10.5592 11.1368 10.8907C11.1368 11.2185 11.0197 11.5035 10.7805 11.742C10.5427 11.9797 10.2292 12.0983 9.8475 12.0983C9.51525 12.0983 9.2415 12.0083 9.0195 11.8245C8.8005 11.6453 8.6205 11.4307 8.48325 11.1847C8.3475 10.9305 8.2335 10.6687 8.1555 10.3988C8.07375 10.134 8.0115 9.90675 7.9605 9.7275C7.5585 9.75075 7.19475 9.90225 6.8625 10.1842C6.53475 10.4655 6.3705 10.812 6.3705 11.2305C6.3705 11.4847 6.4095 11.6842 6.48375 11.8245C6.56175 11.9692 6.672 12.0907 6.7965 12.1845L6.80025 12.1882C6.96 12.3015 7.1475 12.402 7.34325 12.48L7.362 12.4882C7.51125 12.5595 7.79175 12.6645 8.073 12.7665L8.20575 12.8092C8.98275 13.098 9.573 13.4415 9.9675 13.848C10.2878 14.1758 10.4753 14.5898 10.5338 15.0863C10.5255 14.9692 10.6507 16.1955 10.554 15.27C10.5577 15.324 10.5608 15.3832 10.5608 15.441C10.5608 15.8752 10.464 16.2892 10.272 16.6882C10.077 17.0865 9.80775 17.4142 9.45225 17.6805C9.05025 17.9692 8.59725 18.1882 8.1165 18.3248L8.0895 18.333C7.56975 18.4778 6.9135 18.552 6.12075 18.552C5.39775 18.552 4.8045 18.4928 4.332 18.3682C3.85875 18.2475 3.48825 18.087 3.21075 17.8965C2.9295 17.7008 2.7375 17.4975 2.637 17.2785C2.535 17.0602 2.48025 16.8533 2.48025 16.6613C2.48025 16.3132 2.6055 16.005 2.85525 15.7432C3.102 15.4852 3.43425 15.3533 3.84825 15.3533C4.191 15.3533 4.4775 15.4463 4.7115 15.6345C4.9455 15.8258 5.14125 16.0605 5.2815 16.3215L5.28975 16.3372C5.427 16.5795 5.54775 16.8645 5.6415 17.157L5.64825 17.1922C5.68425 17.2822 5.7585 17.5133 5.82 17.7472L5.85525 17.8883C6.504 17.8883 6.99225 17.7435 7.3245 17.4503C7.65675 17.157 7.82475 16.7595 7.82475 16.2555C7.82475 16.0327 7.77375 15.8453 7.6725 15.6968C7.57425 15.549 7.4385 15.4118 7.2735 15.2985C7.10925 15.1898 6.8985 15.0878 6.64125 14.9813C6.38325 14.88 6.12525 14.7863 5.8755 14.6925C5.18025 14.4465 4.6335 14.1068 4.23075 13.6733C3.825 13.2353 3.6255 12.6923 3.6255 12.0443V12.0285C3.6255 11.6385 3.71925 11.2718 3.8835 10.9425L3.87975 10.9583C4.04775 10.6185 4.3125 10.302 4.6725 10.0133C5.02725 9.735 5.47725 9.5175 6.02025 9.35325C6.5625 9.189 7.19925 9.1035 7.926 9.1035V9.102ZM15.9412 10.977C15.6135 10.977 15.3015 11.043 15.0082 11.1757C14.715 11.3085 14.4023 11.574 14.0745 11.9685C14.0355 12.1515 13.9658 12.5033 13.8638 13.0223C13.767 13.542 13.716 14.1833 13.716 14.9445C13.716 15.7222 13.8367 16.3275 14.079 16.7655C14.3212 17.2027 14.646 17.4217 15.048 17.4217C15.6727 17.4217 16.2157 16.9875 16.677 16.125C17.1383 15.2625 17.3678 14.2147 17.3678 12.9802C17.3678 12.363 17.2305 11.8755 16.9657 11.5162C16.6957 11.1525 16.356 10.977 15.942 10.977H15.9412Z" fill="black"/>
</g>
<defs>
<clipPath id="clip0_201_58466">
<rect width="24" height="24" fill="white"/>
</clipPath>
</defs>
</svg>
