<svg width="24" height="24" viewBox="0 0 24 24" fill="none" xmlns="http://www.w3.org/2000/svg">
<g clip-path="url(#clip0_201_58674)">
<path d="M12 0C5.42551 0 0.101257 5.37075 0.101257 12C0.101257 18.6292 5.42551 24 12 24C18.57 24 23.8988 18.6292 23.8988 12C23.8988 5.37075 18.5708 0 11.9963 0H12ZM12 0.52725C15.0353 0.52725 17.8943 1.72275 20.043 3.8865C22.1873 6.04275 23.3828 8.961 23.3753 12C23.3753 15.0623 22.1918 17.9453 20.043 20.1135C17.922 22.266 15.0233 23.4765 12 23.4728C8.97676 23.4765 6.07801 22.266 3.95701 20.1135C1.81276 17.9573 0.613507 15.039 0.621007 12C0.621007 8.93775 1.80826 6.05475 3.95326 3.8865C6.07426 1.73025 8.97676 0.519 12 0.52725ZM11.4023 4.74975C9.46501 5.2695 7.67176 6.2655 5.28151 9.0075C2.89126 11.7495 3.34426 14.0153 3.34426 14.0153C3.34426 14.0153 4.00426 12.4567 5.59051 10.8158C6.34426 10.0387 6.90301 9.777 7.29001 9.777C7.63351 9.7575 7.92301 10.035 7.92301 10.3785V15.945C7.92301 16.4955 7.56751 16.617 7.23976 16.6087C6.96226 16.605 6.70426 16.5075 6.70426 16.5075C8.33326 18.8745 12.2318 19.2067 12.2318 19.2067L13.9425 17.3783L13.9815 17.4135L15.5483 18.7493C18.4155 17.046 19.7985 13.89 19.7985 13.89C18.5175 15.2415 17.7045 15.558 17.22 15.558C16.7903 15.5542 16.6223 15.3038 16.6223 15.3038C16.599 15.1868 16.56 13.491 16.5443 11.796C16.5285 10.0417 16.5443 8.2845 16.6305 8.28C17.1263 7.35 18.705 5.475 18.705 5.475C15.756 6.057 14.1503 7.9905 14.1503 7.9905C13.674 7.6155 12.705 7.67775 12.705 7.67775C13.158 7.9275 13.611 8.65425 13.611 9.25575V15.1777C13.611 15.1777 12.6225 16.0485 11.8613 16.0485C11.4083 16.0485 11.1308 15.8025 10.9785 15.5992C10.92 15.5212 10.869 15.435 10.83 15.3412V8.02875C10.7243 8.10675 10.5953 8.1495 10.467 8.154C10.3028 8.154 10.1348 8.07225 10.0215 7.83375C9.93526 7.65375 9.88051 7.3845 9.88051 6.99C9.88051 5.64225 11.4038 4.7475 11.4038 4.7475L11.4023 4.74975Z" fill="black"/>
</g>
<defs>
<clipPath id="clip0_201_58674">
<rect width="24" height="24" fill="white"/>
</clipPath>
</defs>
</svg>
