<svg width="24" height="24" viewBox="0 0 24 24" fill="none" xmlns="http://www.w3.org/2000/svg">
<g clip-path="url(#clip0_201_58298)">
<path d="M23.922 13.578V17.4922L20.5507 18.7192L20.4728 18.7732L20.523 18.8122L23.973 17.5552L24 17.52V13.5232L23.9452 13.488L23.922 13.578ZM23.6213 5.6167L20.5823 6.7267V10.6365L23.922 9.42145V5.5072L23.6213 5.6167ZM23.922 13.4572V9.54295L20.586 10.758V14.6722L23.922 13.4572ZM20.469 14.7112V10.8015L17.172 12.0007V15.915L20.469 14.7112ZM17.0347 19.9957V16.086L13.7228 17.289V21.2032L17.0347 19.9957ZM17.172 16.059V19.926L20.484 18.7192V14.8522L17.172 16.0552V16.059ZM19.2623 17.9377C18.8955 18.0735 18.6022 17.8627 18.6022 17.4765C18.6022 17.0857 18.8955 16.6597 19.2623 16.5262C19.629 16.3942 19.926 16.6042 19.926 16.9912C19.926 17.382 19.629 17.808 19.2623 17.937V17.9377ZM13.227 9.3157L13.59 9.1837L10.305 7.9837L6.98025 9.19495L7.086 9.23395L10.2697 10.395L13.227 9.3157ZM20.508 10.6642V6.74995L17.172 7.96495V11.8792L20.508 10.6642ZM17.0588 11.9182V8.00395L13.758 9.20695V13.1167L17.0588 11.9182ZM13.6448 9.24595L10.3088 10.461V14.3752L13.6448 13.1602V9.24595ZM6.906 13.164L10.23 14.3752V10.461L6.906 9.2542V13.164ZM10.3403 7.8712L13.6215 9.06595V5.19895L10.3403 4.0042V7.8712ZM20.508 2.71495L17.1908 3.9217V7.83595L20.508 6.6292V2.71495ZM16.9493 3.9022L13.7235 2.72995L10.4535 3.9217L13.6807 5.09395L16.9493 3.9022ZM15.363 4.60495L13.7423 5.19895V9.06595L17.0595 7.8592V3.9922L15.363 4.60495ZM14.973 7.38295C14.6048 7.5202 14.3123 7.3087 14.3123 6.9217C14.3123 6.53095 14.6055 6.10495 14.973 5.97295C15.3398 5.8402 15.6368 6.0472 15.6368 6.43795C15.6368 6.82795 15.3398 7.2502 14.973 7.38295ZM10.23 18.4102V14.496L6.906 13.2847V17.199L10.23 18.4102ZM13.68 17.184V13.2697L10.3088 14.496V18.4102L13.68 17.184ZM13.758 17.1517L17.055 15.9525V12.0382L13.758 13.2375V17.1517ZM13.68 21.219L10.3088 22.4452V18.531H10.23V22.4452L6.906 21.234V17.3197L6.855 17.2657L6.828 17.2027L3.492 15.9915V12.0465L3.52725 12.0585L6.81225 13.2532L6.828 13.1752L3.56625 11.9872L6.828 10.8045V10.6942L3.57 9.50695L6.828 8.31895V9.1942L6.906 9.1402V6.76945L10.164 7.9522L10.2232 7.89445L7.086 6.7492L6.98025 6.71395L10.2232 5.5342V5.44795L6.855 6.67495V6.6937L6.828 6.71395V8.2327L3.441 9.46795V9.4867L3.414 9.50695V13.515L0.02325 14.745V14.7652L0 14.784V18.7762L0.02325 18.8152L3.426 20.0542L3.43425 20.046L3.441 20.058L6.84 21.2962L6.84825 21.288L6.855 21.3L10.254 22.5337L10.2697 22.5255L10.281 22.5337L13.7302 21.2797L13.758 21.2407L13.68 21.219ZM3.492 9.5617L6.75 10.746L3.492 11.934V9.5617ZM3.39825 19.9612L0.078 18.7545V14.8402L3.39825 16.047V19.9612ZM3.414 15.969L0.15225 14.7847L3.414 13.5975V15.9727V15.969ZM6.81225 21.1987L3.492 19.992V16.0777L6.81225 17.289V21.1987ZM23.7892 5.4337L20.5823 4.26595V6.6022L23.7892 5.4337ZM20.3873 2.6452L17.148 1.46545L13.8787 2.6527L17.1248 3.83695L20.3873 2.6452Z" fill="black"/>
</g>
<defs>
<clipPath id="clip0_201_58298">
<rect width="24" height="24" fill="white"/>
</clipPath>
</defs>
</svg>
