<svg width="24" height="24" viewBox="0 0 24 24" fill="none" xmlns="http://www.w3.org/2000/svg">
<g clip-path="url(#clip0_201_57918)">
<path d="M21.078 11.25C21.09 11.109 21.0983 10.9733 21.0983 10.8323C21.0983 6.9495 17.9062 3.801 13.965 3.801C11.2268 3.789 8.72325 5.34825 7.52325 7.809C6.9495 7.36725 6.24225 7.12875 5.51625 7.12875C3.69525 7.12875 2.223 8.57775 2.223 10.3665C2.223 10.7063 2.27325 11.0303 2.37075 11.3355C0.906 12.1793 0.00375 13.7378 0 15.4298C0 18.0308 2.12475 20.145 4.758 20.184H19.008C19.098 20.184 19.188 20.199 19.2772 20.199C21.8872 20.199 24.0045 18.117 24.0045 15.5348C23.9888 13.6515 22.8442 11.9565 21.0945 11.25H21.078ZM6.441 16.602C5.961 16.1678 5.66025 15.645 5.54325 15.0233C5.5005 14.805 5.48025 14.5905 5.48025 14.3715C5.48025 13.4843 5.805 12.7583 6.44925 12.1845C7.09425 11.6055 7.91025 11.3168 8.9025 11.3168C9.9225 11.3168 10.8833 11.7 11.7345 12.4658C11.9452 12.6525 12.1523 12.8678 12.3488 13.1055L13.4385 14.3918C13.6297 14.649 13.8285 14.868 14.0392 15.06C14.6025 15.5633 15.2115 15.8168 15.7275 15.8168C16.1647 15.8168 16.5278 15.681 16.8202 15.4148C17.0662 15.1845 17.223 14.8755 17.2545 14.5395L17.2628 14.3918C17.2628 14.2508 17.2388 14.1098 17.196 13.9778C16.9702 13.356 16.3717 12.954 15.7162 12.9735C15.1733 12.9735 14.634 13.1565 14.04 13.7303L13.0748 12.5903L12.9697 12.4613C13.8247 11.6333 14.6647 11.3205 15.8055 11.3205C16.8097 11.3205 17.6332 11.6055 18.2423 12.1763L18.2625 12.1913C18.9067 12.762 19.2195 13.4963 19.2195 14.3985C19.2195 14.6093 19.2038 14.8365 19.1603 15.0278C19.0395 15.6458 18.738 16.1528 18.273 16.5908C17.7968 17.0235 17.2027 17.3055 16.566 17.3985C16.3403 17.4308 16.1168 17.4413 15.8588 17.4413C14.8275 17.4413 13.8517 17.0663 13.0267 16.32C12.7965 16.1048 12.5775 15.8753 12.3825 15.6293L11.2882 14.355C11.1165 14.109 10.9253 13.8833 10.7025 13.68C10.1475 13.1723 9.53475 12.93 8.9955 12.93C8.8395 12.93 8.6835 12.9533 8.5305 12.9923C8.2965 13.0515 8.0775 13.1723 7.90125 13.3365C7.62 13.5983 7.464 13.9613 7.464 14.3445C7.464 14.7308 7.60125 15.0623 7.88625 15.3285L7.90125 15.3488C8.202 15.618 8.577 15.7508 9.01125 15.7508C9.5655 15.7508 10.104 15.5558 10.6875 14.985L11.6475 16.11L11.7533 16.2308C10.8825 17.0708 10.0462 17.3835 8.94825 17.3835C7.944 17.3835 7.1205 17.0985 6.49125 16.5278L6.441 16.602Z" fill="black"/>
</g>
<defs>
<clipPath id="clip0_201_57918">
<rect width="24" height="24" fill="white"/>
</clipPath>
</defs>
</svg>
