<svg width="24" height="24" viewBox="0 0 24 24" fill="none" xmlns="http://www.w3.org/2000/svg">
<g clip-path="url(#clip0_201_57998)">
<path d="M19.3627 9.86325C19.7145 9.86325 19.9958 10.1482 19.9958 10.4925C19.9958 10.8405 19.7145 11.1255 19.3627 11.1255H17.6085V12.2505H19.3627C19.7145 12.2505 19.9958 12.5317 19.9958 12.8797C19.9958 13.224 19.7145 13.509 19.3627 13.509H16.98C16.6327 13.509 16.3522 13.224 16.3522 12.8797V8.10975C16.3522 7.7625 16.6335 7.4775 16.98 7.4775H19.3673C19.7153 7.4775 19.9965 7.7625 19.9965 8.10975C19.9965 8.45775 19.7153 8.739 19.3635 8.739H17.6092V9.864L19.3627 9.86325ZM15.5123 12.879C15.5123 13.1482 15.336 13.3912 15.078 13.4767C15.0157 13.4955 14.9453 13.5075 14.8793 13.5075C14.6685 13.5075 14.4885 13.4137 14.367 13.2577L11.9257 9.9375V12.8782C11.9257 13.2225 11.6475 13.5075 11.2965 13.5075C10.9485 13.5075 10.6672 13.2225 10.6672 12.8782V8.10825C10.6672 7.839 10.8435 7.5975 11.097 7.51125C11.1592 7.48725 11.2327 7.479 11.292 7.479C11.487 7.479 11.667 7.58475 11.7878 7.73325L14.2485 11.061V8.10825C14.2485 7.761 14.5297 7.476 14.8778 7.476C15.2257 7.476 15.5107 7.761 15.5107 8.10825L15.5123 12.879ZM9.77025 12.879C9.77025 13.2232 9.48825 13.5082 9.13725 13.5082C8.793 13.5082 8.5125 13.2232 8.5125 12.879V8.109C8.5125 7.76175 8.79375 7.47675 9.14175 7.47675C9.489 7.47675 9.771 7.76175 9.771 8.109L9.77025 12.879ZM7.305 13.5082H4.91775C4.56975 13.5082 4.28475 13.2232 4.28475 12.879V8.109C4.28475 7.76175 4.56975 7.47675 4.91775 7.47675C5.26575 7.47675 5.547 7.76175 5.547 8.109V12.2497H7.305C7.65225 12.2497 7.93425 12.531 7.93425 12.879C7.93425 13.2232 7.6485 13.5082 7.305 13.5082ZM24 10.3117C24 4.941 18.6128 0.569996 12 0.569996C5.38725 0.569996 0 4.941 0 10.3117C0 15.1245 4.26975 19.1557 10.035 19.9215C10.4257 20.0032 10.9567 20.1795 11.094 20.5117C11.2148 20.8117 11.172 21.2767 11.133 21.594L10.9688 22.6132C10.9215 22.914 10.7265 23.7975 12.0157 23.2582C13.3088 22.719 18.9338 19.1805 21.453 16.281C23.1758 14.3947 24 12.4567 24 10.3117Z" fill="black"/>
</g>
<defs>
<clipPath id="clip0_201_57998">
<rect width="24" height="24" fill="white"/>
</clipPath>
</defs>
</svg>
