<svg width="24" height="24" viewBox="0 0 24 24" fill="none" xmlns="http://www.w3.org/2000/svg">
<g clip-path="url(#clip0_201_57932)">
<path d="M0 0V24.9998H24.9998V0H0ZM14.4998 8.8005L17.4998 5.8005C17.4998 5.8005 19.6987 7.101 18.3983 8.3985L16.3005 10.5C15.1012 11.6018 13.398 9.8985 14.4998 8.8005ZM13.6995 5.49975V8.49975C13.6995 9.99975 11.1997 9.99975 11.1997 8.49975V4.3005C11.1997 4.3005 13.6995 3.699 13.6995 5.49975ZM8.3985 6.699L10.5 8.8005C11.6018 9.8985 9.8985 11.601 8.8005 10.5L5.8005 7.5C5.8005 7.5 7.101 5.3985 8.3985 6.699ZM5.49975 11.301H8.49975C9.99975 11.301 9.99975 13.8007 8.49975 13.8007H4.3005C4.3005 13.6995 3.699 11.301 5.49975 11.301ZM10.5 16.1993L7.5 19.1993C7.5 19.1993 5.301 17.8988 6.6015 16.6012L8.69925 14.4998C9.8985 13.398 11.6018 15.1013 10.5 16.1993ZM13.6995 20.6993C13.6995 20.6993 11.1997 21.3008 11.1997 19.5V16.5C11.1997 15 13.6995 15 13.6995 16.5V20.6993ZM12.5002 14.301C11.5005 14.301 10.6995 13.5 10.6995 12.5002C10.6995 11.5005 11.5005 10.6995 12.5002 10.6995C13.5 10.6995 14.301 11.5005 14.301 12.5002C14.301 13.5 13.5 14.301 12.5002 14.301ZM16.6012 18.3007L14.4998 16.1993C13.398 15.1013 15.1013 13.3988 16.1993 14.4998L19.1993 17.4998C19.1993 17.4998 17.8988 19.6012 16.6012 18.3007ZM19.5 13.6995H16.5C15 13.6995 15 11.1997 16.5 11.1997H20.6993C20.6993 11.301 21.3008 13.6995 19.5 13.6995Z" fill="black"/>
</g>
<defs>
<clipPath id="clip0_201_57932">
<rect width="24" height="24" fill="white"/>
</clipPath>
</defs>
</svg>
