<svg width="24" height="24" viewBox="0 0 24 24" fill="none" xmlns="http://www.w3.org/2000/svg">
<g clip-path="url(#clip0_201_57944)">
<path d="M9.60523 8.1795L14.004 1.80075C14.8402 0.6015 15.9105 0 17.2305 0C18.3045 0 19.2345 0.3825 20.0197 1.1445C20.805 1.91025 21.1957 2.82 21.1957 3.88275C21.1957 4.66425 20.9887 5.3595 20.571 5.961L16.6065 11.7308L21.4582 17.883C21.9427 18.4965 22.185 19.215 22.185 20.0317C22.185 21.1178 21.8062 22.0515 21.0405 22.8323C20.2785 23.6093 19.3567 24 18.2707 24C17.079 24 16.173 23.613 15.5482 22.8397L9.60673 15.4215V19.5112C9.60673 20.679 9.40348 21.5858 8.99698 22.2337C8.26273 23.4097 7.19623 23.9993 5.78623 23.9993C4.50523 23.9993 3.50923 23.562 2.80573 22.6987C2.14573 21.9015 1.81723 20.8433 1.81723 19.527V4.36275C1.81723 3.12075 2.15323 2.0895 2.82148 1.281C3.52048 0.42975 4.48948 0 5.72773 0C6.90748 0 7.88773 0.42975 8.67298 1.281C9.11023 1.75725 9.38773 2.23425 9.50473 2.7225C9.57523 3.02325 9.61048 3.57825 9.61048 4.4025V8.1795H9.60523Z" fill="black"/>
</g>
<defs>
<clipPath id="clip0_201_57944">
<rect width="24" height="24" fill="white"/>
</clipPath>
</defs>
</svg>
