<svg width="24" height="24" viewBox="0 0 24 24" fill="none" xmlns="http://www.w3.org/2000/svg">
<g clip-path="url(#clip0_201_57322)">
<path d="M21.6172 6.02698L22.242 7.81198C22.2727 7.90573 22.2772 8.00773 22.254 8.10223L22.227 8.19898L22.1557 8.47273L21.8977 9.45298L21.117 12.426C20.5042 14.7622 20.1022 16.3012 20.004 16.6837C19.4767 18.7695 19.059 19.4955 17.7112 20.4487C16.5232 21.285 14.055 22.965 13.5825 23.262C13.5277 23.2972 13.4737 23.3317 13.4182 23.367L13.23 23.496C13.0507 23.625 12.8587 23.7382 12.66 23.8357C12.4342 23.9407 12.219 24 12 24C11.781 24 11.5657 23.9407 11.34 23.8357C11.1412 23.7375 10.9492 23.625 10.77 23.496L10.5817 23.367C10.527 23.3317 10.473 23.2972 10.4175 23.262C9.94423 22.965 7.47673 21.285 6.28873 20.4487C4.94098 19.4955 4.52248 18.7695 3.99598 16.6837C3.89773 16.3005 3.49573 14.7615 2.88673 12.441L2.10148 9.45298L1.84723 8.47273L1.77223 8.19898L1.74898 8.10223C1.72198 8.00848 1.72573 7.90648 1.76098 7.81198L2.38198 6.02698L1.91323 4.87498C1.84348 4.69498 1.88248 4.49173 2.01148 4.35223L2.13223 4.22323C2.22898 4.11748 2.33923 4.00423 2.46448 3.87523C2.80873 3.51223 3.17173 3.13723 3.53848 2.77048C3.89023 2.41873 4.36273 2.22748 4.91323 2.16448C5.37823 2.11348 5.84323 2.13748 6.29998 2.23048L8.11198 0.168732C8.20573 0.0599824 8.33923 0.000732422 8.48323 0.000732422H15.519C15.663 0.000732422 15.7957 0.0599824 15.8902 0.168732L17.7022 2.23048C18.159 2.13748 18.624 2.11348 19.089 2.16448C19.6402 2.22748 20.112 2.41873 20.4637 2.77048C20.9677 3.27748 21.468 3.79723 21.96 4.31623C22.1197 4.49248 22.1587 4.69498 22.0852 4.87498L21.6202 6.02698H21.6172ZM20.625 6.17623C20.586 6.06223 20.5897 5.93848 20.637 5.82823L21.0547 4.79698L20.8275 4.55923C20.4765 4.19098 20.1247 3.82798 19.7655 3.46948C19.5892 3.29773 19.3237 3.18823 18.9727 3.14548C18.6285 3.11323 18.2805 3.12973 17.9407 3.19123C17.859 3.20698 17.7885 3.22348 17.727 3.23398L17.6557 3.25423C17.4727 3.30523 17.277 3.24598 17.1517 3.10198L15.297 0.987732H8.70298L6.84823 3.10198C6.72298 3.24598 6.52723 3.30523 6.34423 3.25423C6.25048 3.23023 6.15598 3.20698 6.05923 3.19123C5.71948 3.12898 5.37148 3.11323 5.02723 3.14548C4.67998 3.18823 4.40998 3.29773 4.23448 3.46948C3.80173 3.90673 3.37123 4.34848 2.94973 4.79773L3.36748 5.82898C3.41023 5.94223 3.41473 6.06298 3.37573 6.17698L2.74273 7.99723L2.80198 8.22448L3.05998 9.20023L3.84073 12.177C4.21573 13.599 4.58698 15.021 4.95373 16.4422C5.42698 18.321 5.72773 18.8452 6.85948 19.6462C8.03173 20.4705 10.4887 22.1385 10.9417 22.4272C11.001 22.4625 11.0595 22.5015 11.1375 22.5525L11.3205 22.6815C11.5125 22.8105 11.6415 22.8885 11.7585 22.9425C11.8635 22.9935 11.9452 23.0137 12.0007 23.0137C12.06 23.0137 12.138 22.9935 12.243 22.9425C12.3637 22.8885 12.489 22.8105 12.681 22.6815L12.8677 22.5525C12.942 22.5015 13.005 22.4625 13.0597 22.4272C13.5165 22.1422 15.9735 20.4705 17.142 19.6462C18.2737 18.8452 18.5752 18.321 19.0522 16.4422C19.149 16.056 19.5525 14.517 20.1615 12.192L20.9467 9.20023L21.2047 8.22448L21.264 7.99723L20.631 6.17698L20.625 6.17623ZM16.9612 4.22323C16.9612 4.22323 19.539 7.35223 19.539 8.02048C19.539 8.68873 19.215 8.86348 18.891 9.21148L16.9567 11.2732C16.773 11.469 16.395 11.7622 16.617 12.2932C16.8397 12.8242 17.172 13.5045 16.8052 14.1885C16.4385 14.8755 15.8055 15.3367 15.402 15.2587C15 15.1845 14.055 14.685 13.7032 14.4615C13.3552 14.2342 12.2542 13.3162 12.2542 12.9697C12.2542 12.618 13.395 11.9925 13.605 11.8485C13.8157 11.7075 14.7772 11.1525 14.7967 10.9387C14.8155 10.7235 14.8087 10.6567 14.523 10.122C14.2417 9.58723 13.7302 8.87173 13.8157 8.39923C13.8975 7.92298 14.7225 7.67698 15.312 7.45423C15.8977 7.23148 17.031 6.80998 17.1757 6.74323C17.316 6.67723 17.277 6.61423 16.8517 6.57523C16.422 6.53248 15.207 6.37198 14.6557 6.52423C14.109 6.68098 13.1715 6.91123 13.098 7.03648C13.023 7.16173 12.9532 7.16548 13.0312 7.59148C13.1092 8.01748 13.512 10.0672 13.551 10.4317C13.59 10.7947 13.6642 11.0325 13.2727 11.1225C12.8827 11.2162 12.2265 11.3685 12 11.3685C11.7735 11.3685 11.1172 11.2125 10.7272 11.1225C10.3365 11.0325 10.41 10.7947 10.449 10.4317C10.488 10.068 10.8907 8.01748 10.9687 7.59148C11.0467 7.16548 10.977 7.16173 10.902 7.03648C10.824 6.91123 9.89098 6.68173 9.34423 6.52423C8.79298 6.37198 7.57798 6.53623 7.14823 6.57523C6.72298 6.61423 6.68398 6.67723 6.82423 6.74323C6.96898 6.80998 8.10223 7.23148 8.68798 7.45423C9.27673 7.67698 10.1017 7.92298 10.1842 8.39923C10.2705 8.87248 9.75823 9.58723 9.47698 10.122C9.19123 10.6567 9.18373 10.7242 9.20323 10.9387C9.22348 11.157 10.1842 11.7075 10.395 11.8485C10.605 11.9925 11.7457 12.6172 11.7457 12.9697C11.7457 13.3207 10.6447 14.2305 10.2967 14.4615C9.94498 14.6887 8.99998 15.1845 8.59798 15.2587C8.19523 15.3367 7.56223 14.8755 7.19473 14.1885C6.82798 13.5045 7.15948 12.8242 7.38298 12.2932C7.60873 11.7622 7.22698 11.469 7.04323 11.2732L5.10898 9.21148C4.78498 8.86348 4.46098 8.68873 4.46098 8.02048C4.46098 7.35223 7.03873 4.22323 7.03873 4.22323C7.03873 4.22323 9.21448 4.64098 9.50773 4.64098C9.80098 4.64098 10.4377 4.39498 11.0227 4.19923C11.6085 4.00423 12 4.00048 12 4.00048C12 4.00048 12.3907 4.00423 12.9772 4.19923C13.566 4.39498 14.199 4.64098 14.4922 4.64098C14.7855 4.64098 16.9612 4.22323 16.9612 4.22323ZM15.027 16.188C15.1882 16.2892 15.09 16.4767 14.9452 16.578C14.8012 16.6837 12.8482 18.1987 12.6562 18.3667C12.4695 18.5347 12.1912 18.8115 12 18.8115C11.8087 18.8115 11.5312 18.5347 11.3437 18.3667C11.1517 18.1987 9.19873 16.6837 9.05473 16.578C8.90998 16.4767 8.81173 16.2892 8.97298 16.188C9.13273 16.0897 9.62923 15.8362 10.32 15.477C11.0077 15.117 11.8672 14.8162 12 14.8162C12.1327 14.8162 12.9922 15.117 13.68 15.477C14.3707 15.8362 14.8672 16.0897 15.027 16.188Z" fill="black"/>
</g>
<defs>
<clipPath id="clip0_201_57322">
<rect width="24" height="24" fill="white"/>
</clipPath>
</defs>
</svg>
