<svg width="24" height="24" viewBox="0 0 24 24" fill="none" xmlns="http://www.w3.org/2000/svg">
<g clip-path="url(#clip0_201_58472)">
<path d="M7.45376 0C7.27376 0.58575 7.08626 1.16775 6.88751 1.74975C2.70401 3.621 0.00475708 7.77675 0.00100708 12.363C0.00475708 13.5195 0.176507 14.664 0.517007 15.765L0.177257 16.3627L0.00175708 16.7302L0.279257 16.8713C0.517757 16.9725 0.767507 17.0513 1.02176 17.094C1.29551 17.715 1.62326 18.3053 2.00201 18.8678C6.03701 19.2113 10.5528 19.3792 14.4475 18.813C17.6388 18.348 20.389 17.391 22.1823 15.696C22.4365 15.4612 22.6585 15.2235 22.858 14.973C22.8775 14.934 22.8933 14.922 22.9165 14.8988C22.9285 14.8988 22.9435 14.8597 22.9555 14.844C22.9713 14.844 22.987 14.8088 22.9945 14.7892C23.0065 14.7892 23.0103 14.7502 23.0178 14.7502C23.35 14.3047 23.6073 13.8593 23.8188 13.4415L24.0025 13.074L23.635 12.711C23.5218 12.5903 23.4003 12.4725 23.2758 12.3593C23.2758 5.93325 18.0648 0.72225 11.6388 0.72225C10.549 0.726 9.47051 0.88275 8.42801 1.1835C7.96301 0.50775 7.60001 0.039 7.45526 0L7.45376 0ZM7.81676 1.6365C9.05876 3.81975 10.129 5.05875 11.4535 7.4565C11.5863 8.97975 12.1255 16.9058 12.1803 17.6362C11.7895 17.601 9.69551 17.3977 7.07876 17.1203C5.64926 16.9755 4.18001 16.8075 2.98526 16.632L1.08701 16.1865C3.23576 12.3975 6.63776 6.45975 7.82126 1.63575L7.81676 1.6365ZM12.3595 7.8165C12.3595 7.8165 17.3515 11.742 19.453 16.5472C16.8948 17.8088 14.5353 17.6453 13.0938 17.637C14.113 15.0045 14.113 11.4263 12.3633 7.8165H12.3595ZM15.817 9.99975C16.7973 10.269 17.7663 10.5743 18.727 10.9058C20.4963 11.535 22.1448 12.3983 23.0943 13.2728C22.438 14.511 21.4225 15.5265 20.1843 16.1828C20.3328 14.6865 19.7935 13.2495 18.727 12.1785C17.938 11.3933 16.903 10.725 15.817 9.99525V9.99975ZM22.5235 16.4805C20.1723 18.1448 17.3988 19.1602 14.5585 19.59C13.3278 19.7618 12.0858 19.875 10.8438 19.9298H10.5198C9.27776 19.9725 8.03501 19.9725 6.79301 19.9298C5.39876 19.887 4.00751 19.8127 2.61701 19.6995H2.61326C5.16776 22.9575 9.60551 24.594 13.7028 23.805C15.3198 23.5163 16.855 22.887 18.2028 21.9495C18.2065 21.9495 18.2065 21.9495 18.2103 21.9495C18.523 21.7388 18.8238 21.5077 19.1125 21.2663C19.1245 21.2542 19.1358 21.243 19.1515 21.231C20.6635 19.9575 21.8275 18.3172 22.5265 16.4692L22.5235 16.4805ZM2.51201 19.5863C2.51951 19.5982 2.52776 19.6095 2.53526 19.6215C2.52776 19.6215 2.51951 19.5863 2.51201 19.5863Z" fill="black"/>
</g>
<defs>
<clipPath id="clip0_201_58472">
<rect width="24" height="24" fill="white"/>
</clipPath>
</defs>
</svg>
