<svg width="24" height="24" viewBox="0 0 24 24" fill="none" xmlns="http://www.w3.org/2000/svg">
<g clip-path="url(#clip0_201_57640)">
<path d="M12 0C5.37525 0 0.00375 5.367 0 11.9925V21.2775C0.00375 22.7812 1.2225 24 2.72625 24H12.0037C18.6285 23.9963 24 18.6248 24 12C24 5.37075 18.6292 0 12 0ZM16.5938 5.5785C16.215 5.5785 16.0777 5.50425 15.5235 5.50425C13.8825 5.50425 12.555 6.8325 12.5505 8.47275V11.055C12.5505 11.2852 12.738 11.4773 12.9683 11.4773H14.9213C15.6518 11.4773 16.2375 12.0555 16.2375 12.786C16.2375 13.5203 15.6435 14.0985 14.9093 14.0985H12.5497V17.0828C12.5497 18.5753 11.9557 20.0085 10.9012 21.0675C9.843 22.122 8.409 22.716 6.9165 22.716C6.49425 22.716 6.0765 22.6612 5.6745 22.548C5.034 22.38 4.51425 21.8565 4.51425 21.2512C4.51425 20.517 5.04975 19.9815 5.84625 19.9815C6.225 19.9815 6.3615 20.0557 6.9165 20.0557C8.5575 20.0557 9.885 18.7275 9.8895 17.0872V14.505C9.8895 14.2703 9.702 14.0873 9.47175 14.0873H7.51875C6.78825 14.0873 6.2025 13.5053 6.2025 12.7748C6.2025 12.0405 6.7965 11.4622 7.53075 11.4622H9.89025V8.478C9.89025 5.3685 12.4095 2.8455 15.5228 2.8455C15.9915 2.8455 16.3275 2.90025 16.7648 3.0135C17.4015 3.1815 17.925 3.705 17.925 4.31025C17.925 5.0445 17.3895 5.58 16.593 5.58L16.5938 5.5785Z" fill="black"/>
</g>
<defs>
<clipPath id="clip0_201_57640">
<rect width="24" height="24" fill="white"/>
</clipPath>
</defs>
</svg>
