<svg width="24" height="24" viewBox="0 0 24 24" fill="none" xmlns="http://www.w3.org/2000/svg">
<g clip-path="url(#clip0_201_58608)">
<path d="M19.4925 21.8985C21.5977 21.8985 23.0235 20.4765 23.0235 18.3675V3.53173C23.0235 1.42648 21.5977 0.000732422 19.4925 0.000732422H4.50823C2.40298 0.000732422 0.977234 1.42648 0.977234 3.53173V24.0007L2.78548 21.8992V3.53173C2.78923 2.58223 3.55873 1.81273 4.50823 1.81273H19.4887C20.4382 1.81273 21.2077 2.58223 21.2077 3.53173V18.3675C21.2077 19.317 20.4382 20.0865 19.4887 20.0865H6.92248L5.10973 21.8992L5.09773 21.8872L19.4925 21.8985ZM8.78548 11.4645H7.09048V17.1637H8.78548C12.5782 17.1637 12.5782 11.4645 8.78548 11.4645ZM8.78548 16.0237H8.23498V12.606H8.78548C11.004 12.606 11.004 16.0237 8.78548 16.0237ZM8.45698 10.3905H9.59398V5.82823H11.0122V4.69948H7.03573V5.82823H8.45773L8.45698 10.3905ZM14.0625 7.19923L12.0937 4.69948H11.7262V10.485H12.8827V7.30498L14.0625 8.83648L15.246 7.30498L15.2385 10.485H16.395V4.69948H16.0357L14.0625 7.19923ZM15.9847 14.3167C16.3402 14.067 16.4925 13.6252 16.5082 13.1917C16.5315 12.1875 15.903 11.4615 14.8912 11.4615H12.6375V17.1682H14.8912C15.8212 17.1607 16.575 16.4025 16.575 15.4732V15.4462C16.575 14.9812 16.3447 14.5672 15.9892 14.3212L15.9847 14.3167ZM13.7775 12.6015H14.793C15.117 12.6015 15.3165 12.8557 15.3165 13.176C15.3397 13.4805 15.102 13.746 14.793 13.746H13.7775V12.6015ZM14.793 16.0275H13.7775V14.8905H14.805C15.1132 14.8905 15.3637 15.1402 15.3637 15.4492V15.4612C15.3637 15.774 15.114 16.0275 14.8012 16.0275H14.793Z" fill="black"/>
</g>
<defs>
<clipPath id="clip0_201_58608">
<rect width="24" height="24" fill="white"/>
</clipPath>
</defs>
</svg>
