<svg width="24" height="24" viewBox="0 0 24 24" fill="none" xmlns="http://www.w3.org/2000/svg">
<g clip-path="url(#clip0_201_58068)">
<path d="M12 0C5.37075 0 0 5.37075 0 12C0 18.6292 5.37075 24 12 24C18.6292 24 24 18.6292 24 12C24 5.37075 18.6292 0 12 0ZM18.2302 16.242C18.2302 16.449 18.0623 16.617 17.8552 16.617H16.2885C16.0853 16.617 15.9172 16.449 15.9172 16.242V11.4135C15.9172 11.3745 15.87 11.355 15.8392 11.382L12.519 14.7023C12.2302 14.9873 11.7653 14.9873 11.4757 14.7023L8.1555 11.382C8.1285 11.355 8.07375 11.3745 8.07375 11.4135V16.242C8.07375 16.449 7.9095 16.617 7.7025 16.617H6.13575C5.92875 16.617 5.76075 16.449 5.7645 16.242V7.75725C5.7645 7.55025 5.92875 7.386 6.13575 7.386H7.20975C7.40925 7.386 7.59675 7.464 7.737 7.605L11.8658 11.7338C11.9362 11.808 12.0533 11.808 12.1275 11.7338L16.2562 7.605C16.3972 7.464 16.5802 7.386 16.7797 7.386H17.8538C18.0608 7.386 18.2288 7.55025 18.2288 7.75725L18.2302 16.242Z" fill="black"/>
</g>
<defs>
<clipPath id="clip0_201_58068">
<rect width="24" height="24" fill="white"/>
</clipPath>
</defs>
</svg>
