<svg width="24" height="24" viewBox="0 0 24 24" fill="none" xmlns="http://www.w3.org/2000/svg">
<g clip-path="url(#clip0_201_57474)">
<path d="M11.9813 0.375C18.6278 0.375 23.625 5.53575 23.625 12C23.625 18.8955 18.0705 23.625 11.9813 23.625C5.7 23.625 0.375 18.492 0.375 12C0.375 5.7705 5.283 0.375 11.9813 0.375ZM12.0187 2.4705C6.4785 2.4705 2.4705 7.05975 2.4705 12C2.4705 17.1472 6.7455 21.5062 12.0187 21.5062C16.8562 21.5062 21.525 17.7045 21.525 12C21.5295 6.66525 17.2972 2.4705 12.0187 2.4705ZM17.034 12.108C16.8135 12.108 16.6117 12.2393 16.5322 12.4455L16.3447 12.891L15.8287 8.541C15.7492 7.88925 14.7975 7.91325 14.7457 8.55975L14.544 10.9688L14.3002 7.74375C14.2485 7.07325 13.2645 7.0785 13.2128 7.74375L13.0485 9.84825L12.7717 5.42775C12.7297 4.74825 11.7263 4.75275 11.6842 5.42775L11.445 9.351L11.2432 6.243C11.2013 5.568 10.203 5.568 10.1558 6.243L9.9075 10.002L9.7155 7.32975C9.66375 6.66 8.68425 6.66 8.628 7.32075L8.2665 11.5305L8.1825 10.959C8.10225 10.4243 7.38075 10.3215 7.15125 10.8045L6.5325 12.1027H4.4745V13.1903H6.879C7.08525 13.1903 7.27275 13.0732 7.3665 12.8903L7.86825 16.317C7.962 16.95 8.895 16.9268 8.95125 16.284L9.12975 14.2402L9.39675 17.9108C9.4485 18.5858 10.4423 18.576 10.4843 17.9062L10.7003 14.6063L10.9253 18.042C10.9672 18.717 11.97 18.717 12.0128 18.0375L12.2423 14.2642L12.453 17.6302C12.495 18.3 13.4888 18.3097 13.5405 17.6392L13.7565 14.892L13.986 17.9108C14.0378 18.5805 15.0172 18.576 15.069 17.9152L15.3878 14.0243L15.5145 15.0697C15.5798 15.6233 16.344 15.7305 16.56 15.2153L17.4037 13.1805H19.7708V12.093L17.034 12.108ZM13.3778 12.3517H12.351V13.3785C12.351 13.5705 12.1965 13.7302 11.9992 13.7302C11.8073 13.7302 11.6475 13.5757 11.6475 13.3785V12.3517H10.6208C10.4288 12.3517 10.269 12.1973 10.269 12C10.269 11.808 10.428 11.6483 10.6208 11.6483H11.6475V10.6215C11.6475 10.4295 11.8065 10.2697 11.9992 10.2697C12.192 10.2697 12.351 10.4242 12.351 10.6215V11.6483H13.3778C13.5697 11.6483 13.7295 11.8027 13.7295 12C13.7295 12.192 13.5705 12.3517 13.3778 12.3517Z" fill="black"/>
</g>
<defs>
<clipPath id="clip0_201_57474">
<rect width="24" height="24" fill="white"/>
</clipPath>
</defs>
</svg>
