<svg width="24" height="24" viewBox="0 0 24 24" fill="none" xmlns="http://www.w3.org/2000/svg">
<g clip-path="url(#clip0_201_57498)">
<path d="M15.6293 10.0388C15.1605 9.64802 14.766 9.01952 14.766 8.39027C14.766 8.15552 14.844 7.76552 14.9265 7.52702C14.9265 7.37102 15.0045 7.37102 15.0825 7.29227C15.786 7.13627 16.1018 7.13627 16.1805 7.05752C16.3365 6.74477 16.4153 6.35027 16.4153 6.35027L10.9268 4.62752C10.9268 4.62752 11.2395 5.48702 11.4735 5.56877L13.9853 6.66677C13.9853 6.66677 12.7275 6.97952 12.024 7.13552L11.8635 7.21352C11.8635 7.21352 12.102 7.68602 12.5708 7.92077C13.0395 7.76477 13.9028 7.60802 13.9028 7.60802C12.7268 9.95927 10.2195 11.526 7.55101 11.526H6.60976C6.29701 11.526 6.21901 11.7645 6.45376 11.9205C6.92251 12.1553 7.31701 12.6278 7.47301 13.0965C7.55101 13.4093 7.39501 13.647 7.16026 13.8038C6.68776 14.1945 5.43376 15.0578 4.25776 15.999C4.09351 15.753 3.96451 15.4913 3.86326 15.2138C2.76526 12.7838 2.21851 9.33077 2.21851 4.78427V4.62827L11.6288 1.56977L21.039 4.62827V4.70627C21.039 6.35102 20.9648 7.92077 20.8043 9.25352V9.40952H22.3748V9.33152C22.5308 7.92152 22.6095 6.42902 22.6095 4.78427V3.53027L11.6288 -0.000732422L0.64801 3.53027V4.70627C0.64801 9.48752 1.19851 13.0973 2.37451 15.765C2.53051 16.1558 2.76526 16.5503 2.92501 16.863C1.98376 17.5703 1.19851 18.117 1.19851 18.117L1.66726 18.9023L7.70626 14.5898C10.9448 12.3863 14.7728 11.211 18.687 11.2148H20.5695C20.3348 12.7073 19.9403 14.0393 19.4715 15.1365C18.921 16.3905 18.2175 17.4878 17.2763 18.5895C16.569 19.449 15.7058 20.1563 14.7645 20.7848C13.1978 21.8828 11.784 22.3515 11.706 22.4295C11.55 22.3515 10.218 21.8828 8.64751 20.7848C7.62826 20.0775 6.76501 19.371 6.06151 18.5115C5.82301 18.273 5.58901 17.961 5.35426 17.6483L5.27626 17.5703L4.02226 18.5078L4.10026 18.5895C4.41301 18.9803 4.64701 19.293 4.88551 19.6088C5.66701 20.55 6.60826 21.3315 7.62751 22.0388C9.35401 23.2148 10.842 23.7653 11.0768 23.8433C11.0768 23.8433 11.3933 23.9213 11.4713 23.9993H11.6273C11.7833 23.9993 12.0218 23.8433 12.0218 23.8433C12.3345 23.7653 13.7445 23.214 15.471 22.0388C16.4753 21.3315 17.3933 20.5193 18.2168 19.6088C19.2165 18.4568 20.0333 17.1593 20.6468 15.765C21.2798 14.316 21.705 12.7845 21.9008 11.214H23.2365C23.3145 10.9013 23.3925 10.3508 23.3925 10.3508H18.5295C16.725 10.2728 16.0995 10.3508 15.627 10.038L15.6293 10.0388Z" fill="black"/>
</g>
<defs>
<clipPath id="clip0_201_57498">
<rect width="24" height="24" fill="white"/>
</clipPath>
</defs>
</svg>
