<svg width="24" height="24" viewBox="0 0 24 24" fill="none" xmlns="http://www.w3.org/2000/svg">
<g clip-path="url(#clip0_201_57560)">
<path d="M22.6012 5.49978C21.7222 3.80853 20.3745 2.40603 18.7185 1.46103C16.9995 0.496529 15.0502 0.00752866 13.0777 0.0390287H0.179237L7.08974 4.03878H13.0777C15.0195 4.03878 16.488 4.65978 17.4997 5.92128C18.4995 7.17153 18.9997 8.99928 18.9997 11.4293V12.699C18.9877 15.039 18.4687 16.8398 17.4487 18.1013C16.4295 19.359 14.949 19.9883 13.0305 19.9883H6.85874L-0.000762939 23.949H13.128C15.2175 23.949 17.1007 23.4608 18.7605 22.5113C20.421 21.558 21.7095 20.2103 22.6275 18.4875C23.5492 16.7685 23.9985 14.7885 23.9985 12.558V11.46C23.9985 9.23703 23.5297 7.26078 22.5997 5.49903L22.6012 5.49978ZM0.128987 3.96078V20.0588L14.0707 12L0.128987 3.96078Z" fill="black"/>
</g>
<defs>
<clipPath id="clip0_201_57560">
<rect width="24" height="24" fill="white"/>
</clipPath>
</defs>
</svg>
