<svg width="24" height="24" viewBox="0 0 24 24" fill="none" xmlns="http://www.w3.org/2000/svg">
<g clip-path="url(#clip0_201_58408)">
<path d="M14.8597 0L6.87897 0.0585C5.35572 0.39075 4.01547 1.28925 3.13272 2.5665C2.48022 3.3285 2.01521 4.2345 1.77746 5.20725L1.65672 5.76225L1.53597 6.618C1.47747 7.419 1.47747 7.9695 1.65672 8.091H6.93372C6.99222 8.091 6.74622 7.845 6.74622 7.419C6.74622 6.681 6.99597 6.4935 7.29672 6.18825C7.85172 5.76225 10.242 6.0675 12.027 5.94225C14.472 5.94225 16.6282 5.88375 16.875 5.8215C19.5742 5.3955 21.9022 3.435 22.3942 1.28625C22.515 0.7395 22.515 0.18075 22.4565 0.12225C22.3942 0.0015 21.4177 0.0015 14.859 0.0015L14.8597 0ZM9.19122 9.0075C5.43372 8.99175 1.72272 9.0075 1.65972 9.066C1.53447 9.19125 1.60122 9.86325 1.72197 10.4175C2.04597 11.4998 2.68647 12.4643 3.56547 13.179C4.51872 13.9718 5.65946 14.5185 6.87821 14.769C7.24121 14.8942 7.92147 14.8942 11.472 14.8942C15.7102 14.8942 16.3897 14.9528 16.695 15.1327C16.836 15.2385 16.9605 15.363 17.0662 15.5077C17.2462 15.7463 17.2462 15.8123 17.2462 16.4842C17.2462 17.1562 17.1795 17.2185 17.0625 17.5275C16.9455 17.676 16.8007 17.8013 16.6365 17.895C16.449 18.0158 16.3282 18.0158 12.2767 18.075C7.60872 18.075 7.12047 18.075 5.96022 18.5085C5.04972 18.7703 4.21047 19.2315 3.49947 19.8563C2.33546 20.895 1.65597 22.0597 1.53447 23.286L1.59671 23.8958C6.72972 24.0368 11.8665 24.0368 16.9987 23.8958L17.4907 23.775C17.745 23.7165 17.991 23.634 18.2287 23.5328L18.5962 23.3527C20.2522 22.3995 21.4987 20.868 22.0965 19.056C22.7332 17.0603 22.6005 14.8958 21.7215 12.9938C21.1665 11.8763 20.37 10.8923 19.3935 10.1145C18.663 9.63825 17.8545 9.306 16.9987 9.12975C16.7527 9.0675 12.948 9.024 9.19047 9.009L9.19122 9.0075Z" fill="black"/>
</g>
<defs>
<clipPath id="clip0_201_58408">
<rect width="24" height="24" fill="white"/>
</clipPath>
</defs>
</svg>
