<svg width="24" height="24" viewBox="0 0 24 24" fill="none" xmlns="http://www.w3.org/2000/svg">
<g clip-path="url(#clip0_201_58066)">
<path d="M23.9767 20.238C23.676 18.309 20.1045 19.7933 19.8825 17.6798C19.5697 14.6798 24.0307 8.2185 23.6797 5.70675C23.367 3.453 21.84 2.97675 20.5155 2.949C19.2292 2.93025 18.8902 3.13275 18.4567 3.387C18.2025 3.531 17.844 3.81975 17.3437 3.34425C17.0115 3.027 16.785 2.8095 16.4377 2.5275C16.2577 2.3835 15.9727 2.2035 15.492 2.13375C15.0202 2.0595 14.3947 2.13375 14.004 2.298C13.605 2.46975 13.3012 2.76675 12.9772 3.048C12.6525 3.32925 11.8282 4.24725 11.0662 3.90675C10.7302 3.76275 9.60521 3.1995 8.79296 2.853C7.22996 2.17725 4.97321 3.27075 4.15571 4.71975C2.94446 6.86775 0.558707 15.321 0.190457 16.4348C-0.617293 18.9345 1.22621 20.9738 3.70271 20.856C4.75346 20.8058 5.45246 20.427 6.11246 19.2203C6.49571 18.5243 10.0935 9.13425 10.3627 8.6775C10.5585 8.3535 11.2065 7.92375 11.754 8.2005C12.3052 8.4855 12.414 9.07125 12.3322 9.6225C12.195 10.5173 9.66446 16.2518 9.56246 16.8968C9.39821 18.0015 9.92246 18.6105 11.0707 18.6735C11.853 18.7125 12.6375 18.4358 13.2547 17.2635C13.6027 16.6103 17.6025 8.59575 17.9535 8.06025C18.3442 7.4745 18.6562 7.278 19.0597 7.302C19.368 7.317 19.8555 7.39575 19.7347 8.31675C19.614 9.2235 16.3957 15.099 16.0597 16.536C15.606 18.4658 16.6605 20.4113 18.4027 21.267C19.5127 21.813 24.372 22.743 23.9775 20.2388L23.9767 20.238Z" fill="black"/>
</g>
<defs>
<clipPath id="clip0_201_58066">
<rect width="24" height="24" fill="white"/>
</clipPath>
</defs>
</svg>
