<svg width="24" height="24" viewBox="0 0 24 24" fill="none" xmlns="http://www.w3.org/2000/svg">
<g clip-path="url(#clip0_201_57376)">
<path d="M12.0308 -6.0738e-05C6.9405 -6.0738e-05 2.5695 3.17169 0.81975 7.64769L2.73 8.42169C4.215 4.57344 7.90575 2.03094 12.0308 2.01969C14.2695 2.01969 16.3515 2.78844 17.988 3.98769L19.191 2.35194C17.1172 0.815939 14.6093 -0.00831074 12.0308 -6.0738e-05ZM12.0308 2.30094C8.00775 2.30919 4.4055 4.78119 2.949 8.53119L4.85925 9.23019C5.9925 6.25794 8.8485 4.30119 12.0315 4.31994L12.0308 2.30094ZM15.5782 2.99994L14.82 4.92219C17.2808 5.83194 19.086 7.96944 19.5697 10.5509H21.648C21.1133 7.13319 18.801 4.26219 15.5782 3.01194V2.99994ZM12.0308 4.60194C9.156 4.60869 6.54675 6.27294 5.31975 8.87469C4.098 11.4727 4.4835 14.5469 6.309 16.7654C8.133 18.9832 11.0737 19.9567 13.863 19.2577C16.6477 18.5587 18.7852 16.3154 19.3522 13.4999H17.2703C16.5825 15.8242 14.4532 17.4262 12.0315 17.4412C9.03525 17.4569 6.5985 15.0269 6.60975 12.0314C6.5985 9.03519 9.036 6.60219 12.0315 6.62169C14.4495 6.61794 16.5705 8.22369 17.2305 10.5517H19.3013C18.6292 7.07094 15.5745 4.56669 12.0315 4.59069L12.0308 4.60194ZM22.2502 5.69094L20.5005 6.78069C21.2385 7.92144 21.7237 9.20694 21.9225 10.5509H24.0007C23.79 8.81994 23.1915 7.15569 22.251 5.69094H22.2502ZM11.9692 6.82794C8.27025 6.90219 5.81625 10.6949 7.2705 14.1022L9.2385 13.2299C9.06675 12.8519 8.9775 12.4447 8.96925 12.0307C8.96925 10.3904 10.3282 9.01944 11.9692 9.01944V6.82794ZM13.8907 7.21869L13.1205 9.23769C13.7805 9.51144 14.2695 9.94044 14.6475 10.5509H16.9485C16.5112 9.02019 15.3787 7.78494 13.8907 7.21869ZM0 12.0202C0 13.6724 0.32775 15.3089 1.03875 16.8914L2.8395 16.0702C2.30025 14.7892 2.02275 13.4182 2.01975 12.0314L0 12.0202ZM2.301 12.0202C2.301 16.1212 4.809 19.6214 8.42175 21.0509L9.18 19.1287C6.25425 17.9879 4.32375 15.1717 4.32 12.0307L2.301 12.0202ZM14.6017 13.4999C14.2695 14.1022 13.7805 14.6017 13.1205 14.8087L13.8907 16.8397C15.3825 16.2727 16.5157 15.0344 16.9485 13.4999H14.6017ZM19.5697 13.4999C18.8587 17.1089 15.7065 19.7189 12.0308 19.7377V21.7619C16.8398 21.7702 20.934 18.2579 21.648 13.4999H19.5697ZM21.9217 13.4999C21.1515 18.3832 16.9605 21.9922 12.0195 22.0312C9.28875 22.0312 6.78075 20.8792 4.97925 19.0784L3.5505 20.5004C5.7375 22.6912 8.7495 24.0007 12.0773 24.0007C18.132 24.0089 23.241 19.5044 23.9993 13.5007L21.9217 13.4999ZM9.89775 14.1599L8.37075 15.6907C9.33975 16.6634 10.656 17.2109 12.0308 17.2184V15.0307C11.2335 15.0307 10.4685 14.7187 9.89775 14.1599Z" fill="black"/>
</g>
<defs>
<clipPath id="clip0_201_57376">
<rect width="24" height="24" fill="white"/>
</clipPath>
</defs>
</svg>
