<svg width="24" height="24" viewBox="0 0 24 24" fill="none" xmlns="http://www.w3.org/2000/svg">
<g clip-path="url(#clip0_201_58762)">
<path d="M4.10149 21.0308C6.21049 22.8825 8.97649 24 11.9997 24C15.0267 24 17.789 22.8833 19.9017 21.0308C21.7767 19.1205 15.5855 12.324 11.9997 9.6165C8.41774 12.3232 2.22274 19.1205 4.10149 21.0308ZM15.2615 6.62925C17.7612 9.59025 22.7457 16.941 21.3395 19.539C23.0037 17.4802 23.9997 14.859 23.9997 12.0037C23.9997 8.664 22.637 5.64075 20.4297 3.46875C20.4297 3.46875 20.402 3.44475 20.348 3.426C20.285 3.402 20.195 3.38325 20.066 3.38325C19.4772 3.38325 18.0822 3.816 15.2622 6.62925H15.2615ZM3.65149 3.426C3.59749 3.44475 3.56974 3.46875 3.56524 3.46875C1.36249 5.64075 -0.00100708 8.664 -0.00100708 12.0037C-0.00100708 14.859 0.994993 17.4765 2.65924 19.5345C1.26124 16.9335 6.23749 9.58575 8.74099 6.6285C5.92099 3.8115 4.52224 3.3825 3.93274 3.3825C3.80374 3.3825 3.70999 3.40125 3.65074 3.42975L3.65149 3.426ZM11.9997 3.55125C11.9997 3.55125 9.05449 1.8285 6.75349 1.746C5.85124 1.71525 5.30074 2.03925 5.23324 2.08575C7.37824 0.645 9.65899 0 11.9832 0H11.999C14.3352 0 16.604 0.645 18.7647 2.08575C18.698 2.0385 18.1505 1.7145 17.2445 1.746C14.9435 1.82775 11.9982 3.54675 11.9982 3.54675L11.9997 3.55125Z" fill="black"/>
</g>
<defs>
<clipPath id="clip0_201_58762">
<rect width="24" height="24" fill="white"/>
</clipPath>
</defs>
</svg>
