<svg width="24" height="24" viewBox="0 0 24 24" fill="none" xmlns="http://www.w3.org/2000/svg">
<g clip-path="url(#clip0_201_57246)">
<path d="M4.63275 21.4297C6.73425 23.0587 9.3165 23.9452 11.9767 23.9452C15.0037 23.9452 17.7622 22.8202 19.8675 20.9767C19.8945 20.9534 19.8832 20.9415 19.8555 20.9534C18.9105 21.5864 16.2187 22.965 11.9767 22.965C8.2935 22.965 5.96475 22.1407 4.6485 21.4064C4.6215 21.3944 4.61325 21.4139 4.63275 21.4297ZM12.789 22.0387C15.738 22.0387 18.9765 21.2377 20.9137 19.6477C21.4447 19.2142 21.9487 18.6359 22.4017 17.8627C22.6597 17.4134 22.9132 16.8862 23.1202 16.3627C23.1322 16.3394 23.1165 16.3274 23.097 16.3552C21.2962 19.0072 16.0777 20.6602 10.695 20.6602C6.8865 20.6602 2.7885 19.4415 1.18725 17.1172C1.1715 17.0977 1.15575 17.1052 1.164 17.1292C2.6565 20.3047 7.191 22.0394 12.789 22.0394V22.0387ZM9.57 16.7737C3.441 16.7737 0.5505 13.9184 0.02325 11.9692C0.0195 11.9422 0 11.9459 0 11.9729C0 12.6292 0.06675 13.4767 0.18 14.0354C0.231 14.3092 0.45375 14.7389 0.7815 15.0824C2.26575 16.6297 5.96925 18.7972 12.375 18.7972C21.1095 18.7972 23.1052 15.8872 23.5117 14.9302C23.805 14.2469 23.9535 13.0124 23.9535 11.9729C23.9535 11.7232 23.9497 11.5199 23.9377 11.3242C23.9377 11.2889 23.922 11.2889 23.9145 11.3204C23.4772 13.6604 16.0162 16.7737 9.57075 16.7737H9.57ZM1.1565 6.8362C0.80475 7.53145 0.414 8.7112 0.297 9.31645C0.246 9.5782 0.27 9.70345 0.35925 9.89845C1.0935 11.4569 4.81275 13.9529 13.4805 13.9529C18.7695 13.9529 22.8787 12.6524 23.5432 10.2809C23.664 9.8437 23.6722 9.38245 23.5162 8.76145C23.3407 8.06995 23.0122 7.26145 22.731 6.69145C22.7235 6.67195 22.7077 6.6757 22.7115 6.69895C22.8127 9.80845 14.1412 11.8124 9.7665 11.8124C5.02425 11.8124 1.071 9.92545 1.071 7.53895C1.071 7.3087 1.11825 7.0822 1.17675 6.8437C1.18425 6.82045 1.16475 6.8167 1.15725 6.8362H1.1565ZM19.887 3.01945C19.938 3.09745 19.965 3.17995 19.965 3.2932C19.965 4.6252 15.891 6.97645 9.41025 6.97645C4.6485 6.97645 3.75825 5.21095 3.75825 4.0897C3.75825 3.6877 3.9105 3.27295 4.25025 2.85895C4.26975 2.83195 4.254 2.8237 4.23075 2.8432C3.6135 3.3667 3.04725 3.95245 2.547 4.59295C2.3085 4.8937 2.16 5.1592 2.16 5.3197C2.16 7.6477 7.99575 9.3352 13.4572 9.3352C19.2735 9.3352 21.8677 7.43695 21.8677 5.76895C21.8677 5.17495 21.6375 4.82395 21.0435 4.1482C20.6565 3.71095 20.2935 3.35545 19.9065 3.0037C19.887 2.98795 19.875 2.99995 19.887 3.01945ZM18.1057 1.68745C16.254 0.578199 14.1367 -0.00755094 11.9767 -5.09402e-05C9.71475 -5.09402e-05 7.56675 0.632949 5.766 1.73845C5.22675 2.0707 4.92225 2.3362 4.92225 2.6797C4.92225 3.69145 7.28175 4.7737 11.469 4.7737C15.6135 4.7737 18.8242 3.58645 18.8242 2.44195C18.8242 2.1682 18.5857 1.97695 18.1057 1.6882V1.68745Z" fill="black"/>
</g>
<defs>
<clipPath id="clip0_201_57246">
<rect width="24" height="24" fill="white"/>
</clipPath>
</defs>
</svg>
