<svg width="24" height="24" viewBox="0 0 24 24" fill="none" xmlns="http://www.w3.org/2000/svg">
<g clip-path="url(#clip0_201_58528)">
<path d="M11.9805 0C5.67975 0 0.511504 4.85925 0.0232544 11.0355L6.453 13.6957C6.99975 13.3245 7.656 13.1063 8.367 13.1063C8.42925 13.1063 8.49225 13.11 8.5545 13.11L11.4143 8.96925V8.91075C11.4143 6.41475 13.4415 4.3875 15.9375 4.3875C18.4335 4.3875 20.4645 6.4185 20.4645 8.9145C20.4645 11.4105 18.4335 13.4377 15.9375 13.4377H15.8363L11.7578 16.3478C11.7578 16.4025 11.7615 16.4535 11.7615 16.5082C11.7615 18.3832 10.2458 19.9028 8.37075 19.9028C6.738 19.9028 5.355 18.7305 5.0385 17.1765L0.437254 15.27C1.863 20.3092 6.4845 24.0007 11.9805 24.0007C18.6053 24.0007 23.9768 18.63 23.9768 12.0007C23.9768 5.3715 18.606 0.00075 11.9805 0.00075V0ZM7.539 18.2108L6.066 17.601C6.32775 18.144 6.78075 18.597 7.38225 18.8512C8.679 19.3905 10.1753 18.7733 10.7145 17.4765C10.9763 16.8435 10.9763 16.1565 10.7183 15.5272C10.4603 14.8942 9.96825 14.406 9.339 14.1442C8.718 13.8825 8.04975 13.8945 7.464 14.1127L8.9835 14.742C9.9405 15.144 10.3935 16.242 9.99525 17.199C9.597 18.156 8.49525 18.609 7.53825 18.2108H7.539ZM18.9533 8.90625C18.9533 7.24575 17.6018 5.8905 15.9413 5.8905C14.2733 5.8905 12.9255 7.24575 12.9255 8.90625C12.9255 10.5705 14.2733 11.922 15.9413 11.922C17.6018 11.922 18.9533 10.5705 18.9533 8.90625ZM13.6838 8.9025C13.6838 7.6485 14.6955 6.63675 15.9458 6.63675C17.196 6.63675 18.2153 7.6485 18.2153 8.9025C18.2153 10.1528 17.196 11.1683 15.9458 11.1683C14.6955 11.1683 13.6838 10.1528 13.6838 8.9025Z" fill="black"/>
</g>
<defs>
<clipPath id="clip0_201_58528">
<rect width="24" height="24" fill="white"/>
</clipPath>
</defs>
</svg>
