<svg width="24" height="24" viewBox="0 0 24 24" fill="none" xmlns="http://www.w3.org/2000/svg">
<g clip-path="url(#clip0_201_58012)">
<path d="M20.988 6.246L21.027 6.24975L21.105 6.2655L21.1448 6.2805L21.1838 6.30075L21.2228 6.324L21.258 6.35475L21.2933 6.3825L21.3285 6.42975L21.3758 6.4725L21.4065 6.51975L21.4493 6.56175L21.5235 6.684L21.5558 6.74175L21.5828 6.816L21.6458 6.96525L21.6728 7.0395L21.6998 7.1295L21.7628 7.3095L21.7898 7.39875L21.8205 7.5045L21.8483 7.60575L21.9105 7.8165L21.9383 7.9185L21.969 8.0235L21.996 8.14575L22.0268 8.26275L22.0545 8.3955L22.0695 8.51625L22.1018 8.64825L22.1288 8.7855L22.1475 8.91825L22.1753 9.066L22.1903 9.21525L22.2023 9.363L22.233 9.516L22.2653 9.81225L22.3433 10.6335L22.3583 10.8127L22.3703 11.1525L22.3905 11.3325L22.4018 11.5125L22.434 11.8717L22.449 12.0667L22.4798 12.45L22.512 12.8407V13.2277L22.527 13.4385L22.539 13.6455V14.0475L22.5548 14.2582V14.8672L22.5698 15.285L22.5855 15.9097V17.1795L22.6013 17.5545L22.632 17.8192L22.6748 17.9992L22.7175 18.12L22.7648 18.222L22.8225 18.3112L22.9598 18.4485L23.022 18.4762L23.1083 18.522L23.1983 18.5497L23.2965 18.5805L23.4375 18.6075L23.6325 18.6195L23.8973 18.6037H23.9993V20.8575L23.7615 20.8852L23.1945 20.9122L22.5855 20.8852L22.1363 20.814L21.792 20.7277L21.5378 20.6385L21.3 20.5177L21.0653 20.3685L20.8583 20.1855L20.7225 20.0527L20.5898 19.8997L20.418 19.635L20.2703 19.3177L20.148 18.978L20.0663 18.576L20.0123 18.1192L19.9965 17.6115V15.6742L19.9845 15.2565V14.3895L19.9695 13.9867V13.7017L19.9538 13.503V13.104L19.9388 12.9127V12.7177L19.9305 12.5257L19.9148 12.3307L19.899 12.1507V11.9715L19.884 11.7952L19.8683 11.6115V11.4322L19.8375 11.0722L19.8255 10.893L19.8105 10.725L19.7948 10.5532L19.779 10.389L19.764 10.221L19.7483 10.0597L19.7363 9.8955L19.7213 9.73125L19.701 9.5835L19.6898 9.43575L19.674 9.279L19.6583 9.13875L19.6433 9.0015L19.6005 8.72475L19.5803 8.592L19.5683 8.45475L19.5375 8.3295L19.5105 8.19225L19.4828 8.07525L19.452 7.95825L19.4213 7.8375L19.3905 7.7355L19.3583 7.6305L19.335 7.5285L19.2878 7.4385L19.2608 7.3335L19.23 7.2435L19.2098 7.1535L19.1475 6.97425L19.1198 6.89925L19.089 6.825L19.062 6.75075L19.0298 6.6915L18.999 6.62925L18.972 6.57L18.9293 6.51225L18.8985 6.465L18.8625 6.42225L18.8318 6.375L18.789 6.348L18.762 6.31575L18.7193 6.285L18.6885 6.273L18.6458 6.258L18.5948 6.24225L18.552 6.2265L18.5213 6.21525H21.0443L20.988 6.246ZM0.00825561 3.08175L1.17601 3.102L2.26576 3.129L3.23401 3.14475L4.81576 3.2025L5.46076 3.2295L6.02701 3.26175L6.53101 3.28875L6.99601 3.336L7.80076 3.426L8.48401 3.516L8.80126 3.56175L9.08251 3.621L9.35251 3.68025L9.60526 3.738L9.84451 3.801L10.0665 3.85875L10.2773 3.92175L10.4693 3.996L10.6643 4.05525L10.8443 4.1295L11.172 4.27725L11.3198 4.35225L11.484 4.4265L11.6333 4.5165L11.766 4.60575L11.9018 4.69575L12.0195 4.78575L12.1403 4.87575L12.2573 4.96575L12.378 5.05575L12.4793 5.14575L12.585 5.247L12.69 5.34075L12.7958 5.442L12.8858 5.54775L12.9758 5.649L13.077 5.75475L13.257 5.9655L13.3313 6.06675L13.4213 6.1725L13.4955 6.2895L13.5698 6.39525L13.6448 6.516L13.719 6.633L13.7933 6.75375L13.8675 6.87075L13.9305 6.9915L13.9883 7.1085L14.0625 7.22925L14.1218 7.347L14.1848 7.46775L14.2425 7.58475L14.3055 7.7055L14.3483 7.8225L14.3955 7.94325L14.4578 8.076L14.5088 8.19675L14.5665 8.3295L14.6258 8.45025L14.673 8.56725L14.7308 8.7045L14.7855 8.83725L14.8283 8.958L14.8793 9.09075L14.9265 9.2115L14.9693 9.34425L15.0165 9.47625L15.0593 9.6135L15.105 9.74625L15.1478 9.8835L15.18 10.0162L15.2228 10.152L15.2618 10.2847L15.2925 10.4175L15.3315 10.5547L15.3585 10.6867L15.4013 10.824L15.429 10.9567L15.4763 11.094L15.5033 11.211L15.5505 11.3482V11.3595L15.5775 11.4802L15.6083 11.6055L15.636 11.7427L15.6668 11.8755L15.6938 11.9962L15.7568 12.2625L15.7995 12.3832L15.8265 12.516L15.8573 12.6367L15.8895 12.7687L15.9165 12.891L15.9473 13.008L15.975 13.1287L16.0058 13.2495L16.0328 13.3665L16.0635 13.4872L16.0958 13.6042L16.1228 13.725L16.1535 13.8427L16.1813 13.9635L16.212 14.0805L16.227 14.2012L16.2548 14.3032L16.302 14.5252L16.3328 14.631L16.3598 14.736L16.392 14.8417L16.4108 14.943L16.4415 15.0487L16.4573 15.15L16.4843 15.2557L16.5165 15.3607L16.5315 15.4627L16.5585 15.5677L16.5908 15.6577L16.6178 15.756L16.6335 15.846L16.6643 15.9352L16.7115 16.2052L16.7235 16.2795L16.7385 16.3695L16.7543 16.4557L16.785 16.6035L16.8008 16.6822L16.824 16.7565L16.8548 16.9042L16.8705 16.971L16.8863 17.0332L16.9095 17.1075L16.9335 17.1667L16.9485 17.2327L16.9643 17.292L16.9793 17.3542L16.9913 17.4135L17.007 17.4727L17.022 17.535L17.0378 17.5777L17.0685 17.6287L17.0843 17.676L17.0963 17.7187L17.1113 17.766L17.142 17.808L17.1578 17.8552L17.193 17.9302L17.2088 17.9692L17.2395 18.027L17.2553 18.0577L17.2703 18.0855L17.2823 18.1162L17.3025 18.1432L17.3138 18.159L17.3768 18.222L17.4038 18.237L17.424 18.2407L17.4353 18.2565H10.4393L10.389 18.2407L10.3343 18.225L10.2173 18.1942L10.1543 18.1792H10.1393L10.0883 18.1552L10.029 18.1402L9.97426 18.108L9.91201 18.081L9.86926 18.0502L9.81001 18.0225L9.76426 17.9917L9.70501 17.9647L9.61501 17.8747L9.55276 17.8275L9.51001 17.7802L9.44701 17.7375L9.38926 17.6797L9.33001 17.625L9.28275 17.562L9.22351 17.508L9.16576 17.4652L9.04501 17.3445L8.99776 17.2852L8.93476 17.277L8.87701 17.2192L8.83426 17.1525L8.77951 17.0865L8.65876 16.9372L8.59951 16.863L8.55676 16.7887L8.49451 16.6987L8.43526 16.6245L8.37751 16.5345L8.31451 16.4602L8.25676 16.3702L8.19376 16.2802L8.13601 16.1902L8.07301 16.1002L7.95601 15.921L7.89301 15.831L7.83526 15.729L7.77601 15.6397L7.72876 15.534L7.67101 15.429L7.60801 15.3232L7.55026 15.222L7.48726 15.1162L7.42951 15.0112L7.37026 14.9092L7.31101 14.8042L7.06876 14.3902L7.01101 14.268L6.94801 14.1472L6.89026 14.0302L6.82726 13.9095L6.76801 13.7925L6.71026 13.6717L6.64726 13.5547L6.58951 13.434L6.45676 13.4062L6.40576 13.281L6.34801 13.1557L6.28501 13.035L6.22576 12.9097L6.16351 12.7845L6.10051 12.6555L6.04276 12.5385L5.97976 12.4215L5.91751 12.3007L5.85451 12.1837L5.79676 12.0615L5.73376 11.9137L5.67601 11.7765L5.61301 11.6595L5.55076 11.5387L5.48776 11.406L5.42551 11.2852L5.36626 11.1525L5.30401 11.0317L5.18626 10.767L5.12401 10.6297L5.06476 10.497L5.00701 10.3597L4.94776 10.2427L4.83076 9.9765L4.76776 9.84075L4.71001 9.708L4.65076 9.57075L4.53001 9.306L4.47226 9.153L4.40926 9.036L4.35001 8.89875L4.29226 8.78175L4.22926 8.661L4.15951 8.544L4.09726 8.40675L4.02226 8.28975L3.96451 8.17275L3.89026 8.052L3.83101 7.93125L3.76801 7.8135L3.71026 7.69275L3.65101 7.57575L3.59326 7.4385L3.47251 7.19625L3.40951 7.07925L3.35026 6.96225L3.27601 6.8415L3.20176 6.7245L3.06451 6.4935L3.01051 6.3765L2.93551 6.26325L2.85751 6.1455L2.79976 6.03225L2.73676 5.92725L2.61151 5.72025L2.54176 5.6145L2.47876 5.51325L2.42101 5.4075L2.35801 5.3175L2.30026 5.2125L2.23726 5.10675L2.17126 5.0175L2.11201 4.9275L2.03776 4.8375L1.96351 4.75125L1.90051 4.66125L1.82626 4.57125L1.74001 4.45425L1.67401 4.38L1.60276 4.302L1.54501 4.227L1.48576 4.12575L1.41151 4.0515L1.34551 3.99225L1.27051 3.9225L1.20826 3.85575L1.13401 3.77775L1.06726 3.7155L1.00501 3.65625L0.933756 3.5985L0.867756 3.5475L0.798006 3.50025L0.726756 3.4575L0.664506 3.3945L0.590256 3.35175L0.527256 3.306L0.457506 3.26325L0.387756 3.231L0.321006 3.204L0.110256 3.11025L0.0525056 3.0915L-0.00674438 3.08325H0.00150562L0.00825561 3.08175Z" fill="black"/>
</g>
<defs>
<clipPath id="clip0_201_58012">
<rect width="24" height="24" fill="white"/>
</clipPath>
</defs>
</svg>
