<svg width="24" height="24" viewBox="0 0 24 24" fill="none" xmlns="http://www.w3.org/2000/svg">
<g clip-path="url(#clip0_201_58096)">
<path d="M12 0C5.36325 0 0 5.37075 0 12.0157C0 13.3515 0.22725 14.6205 0.61725 15.8235H4.1955V5.72925L12.0007 13.5465L19.806 5.72925V15.8235H23.3843C23.7712 14.6205 24.0015 13.3515 24.0015 12.0157C24.0015 5.3745 18.6383 0 12.0015 0H12ZM10.2113 15.309L6.79725 11.8868V18.2377H1.758C3.87075 21.6877 7.68 24 12 24C16.32 24 20.16 21.6877 22.2458 18.234H17.2028V11.8868L13.8195 15.3045L12.0308 17.0978L10.2188 15.3045H10.2105L10.2113 15.309Z" fill="black"/>
</g>
<defs>
<clipPath id="clip0_201_58096">
<rect width="24" height="24" fill="white"/>
</clipPath>
</defs>
</svg>
