<svg width="24" height="24" viewBox="0 0 24 24" fill="none" xmlns="http://www.w3.org/2000/svg">
<path d="M4.18728 5.42176C2.33928 5.41801 -0.12897 6.58951 0.00753007 9.53101C0.21828 14.1248 4.92528 14.5508 6.80853 14.5898C7.01178 15.4493 9.22653 18.4215 10.8668 18.5783H18.0465C22.3515 18.2933 25.5735 5.55451 23.187 5.50801C19.2338 5.69551 16.89 5.78926 14.8823 5.80501V9.77776L14.253 9.50401L14.2493 5.80501C11.9445 5.80501 9.91353 5.69926 6.06153 5.50801C5.57703 5.50426 4.90503 5.42176 4.18653 5.42176H4.18728ZM4.44528 7.04701H4.66803C4.92978 9.40276 5.35578 10.7775 6.21903 12.8828C4.01553 12.621 2.14503 11.9843 1.80078 9.59776C1.62078 8.36326 2.22303 7.07401 4.44528 7.04701ZM13.0043 9.35926C13.1528 9.36301 13.3088 9.39076 13.4498 9.45676L14.1998 9.78076L13.6643 10.7573C13.5825 10.7573 13.5 10.7693 13.422 10.7963C13.074 10.9095 12.891 11.2493 13.0155 11.562C13.0425 11.6243 13.0823 11.6828 13.1288 11.7338L12.2033 13.4213C12.129 13.4213 12.051 13.4333 11.9805 13.4603C11.6325 13.5698 11.4495 13.9133 11.574 14.2223C11.703 14.535 12.0855 14.6948 12.4373 14.5815C12.7853 14.472 12.9645 14.1285 12.8393 13.8158C12.804 13.734 12.753 13.6598 12.6833 13.5968L13.5855 11.9558C13.683 11.9633 13.7805 11.9558 13.8788 11.9243C13.9568 11.901 14.0273 11.862 14.0895 11.811C14.4375 11.9595 14.7225 12.0765 14.9295 12.1785C15.234 12.3308 15.3435 12.4328 15.3788 12.546C15.4103 12.6555 15.375 12.8663 15.1988 13.2375C15.0698 13.515 14.8553 13.9095 14.601 14.37C14.5148 14.37 14.4293 14.382 14.3513 14.409C13.9995 14.5223 13.8203 14.862 13.9448 15.1748C14.07 15.483 14.4563 15.6435 14.8043 15.534C15.156 15.4208 15.3353 15.081 15.2108 14.7683C15.1793 14.694 15.1328 14.6235 15.0743 14.565C15.324 14.1083 15.5393 13.7138 15.6795 13.4205C15.867 13.0185 15.9645 12.717 15.879 12.4283C15.7935 12.1395 15.5273 11.952 15.18 11.7795C14.9498 11.6663 14.6603 11.5448 14.3205 11.4008C14.3243 11.319 14.313 11.2403 14.2815 11.1623C14.25 11.0843 14.1998 11.0138 14.1368 10.9515L14.664 9.99076L17.5898 11.2523C18.117 11.4825 18.336 12.045 18.078 12.5138L16.0665 16.1933C15.8123 16.662 15.18 16.857 14.6528 16.6268L10.5158 14.8418C9.98853 14.6115 9.76953 14.049 10.0238 13.5803L12.0353 9.90076C12.2108 9.57676 12.5663 9.38476 12.9413 9.36976H13.0035L13.0043 9.35926Z" fill="black"/>
</svg>
