<svg width="24" height="24" viewBox="0 0 24 24" fill="none" xmlns="http://www.w3.org/2000/svg">
<g clip-path="url(#clip0_201_58172)">
<path d="M2.18025 18.2107C3.984 17.0505 6.1095 15.051 5.301 12.7027C4.863 11.4217 4.25775 10.3237 4.176 8.94072C4.10475 7.76172 4.281 6.58573 4.69125 5.47948C6.309 1.14073 11.1255 -0.918775 15.48 0.390725C19.512 1.60497 22.2892 6.28048 20.6017 10.3627C19.6365 12.7185 19.203 14.535 21.3547 16.3665C21.9375 16.8622 23.355 17.6085 23.3475 18.4912C23.3475 19.6515 21.0772 18.2452 20.8237 18.0465C21.1087 18.5505 23.9647 21.5302 22.1475 21.7335C20.4795 21.9292 19.0035 19.5937 17.9992 18.5932C16.311 16.9095 16.6042 20.6325 16.5975 21.4012C16.5975 22.6125 15.7297 25.077 14.1877 23.472C12.918 22.1512 13.41 20.0377 12.5115 18.5692C11.5462 16.956 9.93375 20.1795 9.53025 20.769C9.07725 21.429 6.81525 24.612 5.93325 22.9132C5.21025 21.534 6.366 19.3785 6.9405 18.132C6.72975 18.585 5.2575 19.2532 4.82325 19.4722C3.89025 19.983 2.83125 20.229 1.76925 20.175C-0.496502 20.0152 1.24125 18.8077 2.1555 18.2182L2.18025 18.2107Z" fill="black"/>
</g>
<defs>
<clipPath id="clip0_201_58172">
<rect width="24" height="24" fill="white"/>
</clipPath>
</defs>
</svg>
