<svg width="24" height="24" viewBox="0 0 24 24" fill="none" xmlns="http://www.w3.org/2000/svg">
<g clip-path="url(#clip0_201_57956)">
<path d="M12.0307 0.0472565C11.805 0.0472565 11.5777 0.152256 11.3587 0.371256C10.4377 1.29301 9.51972 2.21551 8.59797 3.14101C8.36322 3.37126 8.14497 3.61726 7.89522 3.83626C7.58622 4.10251 7.48797 4.41826 7.49621 4.82026C7.51647 6.22351 7.50447 7.62151 7.50447 9.02026C7.50447 10.473 7.50447 11.9265 7.50447 13.3793C7.50447 13.488 7.50821 13.602 7.53522 13.707C7.62147 14.043 7.83597 14.1023 8.07821 13.8548C9.39147 12.5468 10.6995 11.2335 12.0082 9.92551L16.4572 5.47276C16.887 5.03851 16.887 4.56601 16.4572 4.13701L12.6952 0.371256C12.48 0.152256 12.2542 0.0472565 12.027 0.0472565H12.0307ZM19.254 7.27726C19.0312 7.27726 18.8092 7.38301 18.6052 7.58626L14.82 11.3715C14.391 11.8013 14.3947 12.2663 14.82 12.6915L18.5782 16.4573C19.02 16.8983 19.488 16.8983 19.926 16.461C21.141 15.2423 22.3522 14.0273 23.5702 12.8123C23.754 12.633 23.922 12.4493 24 12.1995V11.8673C23.922 11.6175 23.754 11.4345 23.5702 11.25C22.3485 10.0313 21.129 8.80501 19.9065 7.58176C19.6995 7.37851 19.4775 7.27651 19.2547 7.27651L19.254 7.27726ZM4.17972 7.60876C4.09347 7.62451 4.03497 7.70251 3.97272 7.77001L0.210715 11.5703C-0.0705348 11.8553 -0.0705348 12.2505 0.214465 12.531L2.25747 14.5778C2.84772 15.168 3.43347 15.762 4.02221 16.3515C4.19022 16.5195 4.35147 16.4873 4.43696 16.2653C4.48272 16.1513 4.49922 16.0223 4.50297 15.9015C4.50672 14.6168 4.50671 13.3358 4.50671 12.0503H4.50297V8.18326C4.50297 8.09701 4.49097 8.01526 4.47897 7.93351C4.46397 7.79626 4.40922 7.67551 4.27197 7.62076C4.24497 7.60876 4.20972 7.60501 4.17897 7.60876H4.17972ZM12.09 14.4488C11.8627 14.4488 11.6407 14.5545 11.4337 14.766L7.65972 18.5348C7.22697 18.9728 7.22697 19.4378 7.65972 19.8705C8.87847 21.0855 10.0935 22.3005 11.3047 23.5193C11.484 23.6985 11.664 23.874 11.9137 23.952H12.246C12.4882 23.8823 12.6682 23.7263 12.8437 23.55C14.0655 22.3193 15.2925 21.0968 16.5195 19.8698C16.9485 19.44 16.9447 18.9638 16.5157 18.5295L12.7417 14.7608C12.5347 14.55 12.312 14.448 12.09 14.448V14.4488Z" fill="black"/>
</g>
<defs>
<clipPath id="clip0_201_57956">
<rect width="24" height="24" fill="white"/>
</clipPath>
</defs>
</svg>
