<svg width="24" height="24" viewBox="0 0 24 24" fill="none" xmlns="http://www.w3.org/2000/svg">
<g clip-path="url(#clip0_201_57360)">
<path d="M17.979 11.5125V10.167C19.6957 10.167 19.5832 10.1753 19.5832 10.1753C19.8877 10.2293 20.1375 10.4798 20.1375 10.842C20.1375 11.2088 19.8877 11.4465 19.5832 11.5005C19.533 11.517 19.446 11.5133 17.979 11.5133V11.5125ZM19.7625 12.354C19.6455 12.3248 19.6252 12.333 17.979 12.333V13.791C19.629 13.791 19.6455 13.7993 19.7625 13.77C20.0752 13.7078 20.325 13.437 20.325 13.062C20.325 12.6998 20.0752 12.4163 19.7625 12.354ZM24 4.66651V19.3335C24 20.4375 23.1045 21.3338 21.9997 21.3338H1.99949C0.895487 21.3338 -0.000762939 20.4383 -0.000762939 19.3335V4.66651C-0.000762939 3.56251 0.894737 2.66626 1.99949 2.66626H21.9997C23.1037 2.66626 24 3.56176 24 4.66651ZM7.58324 9.34576H5.20799C5.20799 12.1418 5.65349 13.9163 3.71624 13.9163C2.90399 13.9163 2.09924 13.6785 1.33274 13.2998V14.4668C2.58299 14.8125 4.16624 14.8125 4.16624 14.8125C8.24549 14.8125 7.58324 12.825 7.58324 9.34576ZM15.021 9.53326C12.3795 8.86651 8.14574 8.91226 8.14574 12.0045C8.14574 15.2168 12.654 15.0713 15.021 14.4713V13.2923C13.0372 14.3213 10.542 14.2088 10.542 12.0008C10.542 9.79276 13.0335 9.68401 15.021 10.701V9.53326ZM22.6665 13.2705C22.6665 12.4995 21.9787 12 21.0832 11.937V11.904C21.8955 11.7915 22.3455 11.2583 22.3455 10.6455C22.3455 9.85351 21.6915 9.39526 20.8035 9.35401C20.8035 9.35401 21.066 9.34126 15.7912 9.34126V14.6535H20.904C21.9165 14.658 22.6665 14.1158 22.6665 13.2705Z" fill="black"/>
</g>
<defs>
<clipPath id="clip0_201_57360">
<rect width="24" height="24" fill="white"/>
</clipPath>
</defs>
</svg>
