<svg width="24" height="24" viewBox="0 0 24 24" fill="none" xmlns="http://www.w3.org/2000/svg">
<g clip-path="url(#clip0_201_57884)">
<path d="M21.8243 0H2.17575C0.9765 0 0 0.9765 0 2.17575V21.8243C0 23.0235 0.9765 24 2.17575 24H21.8243C23.0235 24 24 23.0235 24 21.8243V2.17575C24 0.9765 23.0235 0 21.8243 0ZM8.01975 4.668C8.817 4.668 9.48825 5.29725 9.48825 6.10575C9.48825 6.92625 8.81625 7.551 8.01975 7.551V7.578C7.21875 7.578 6.56625 6.92925 6.56625 6.12075C6.56625 5.316 7.215 4.66725 8.01975 4.66725V4.668ZM17.8358 18.4808C16.3515 18.4808 15.6322 17.598 15.6322 16.3913C15.6322 16.0478 15.675 15.6803 15.7808 15.3127L16.4918 12.7657C16.578 12.4882 16.6012 12.2265 16.6012 11.9925C16.6012 11.172 16.101 10.6762 15.3045 10.6762C14.2928 10.6762 13.6245 11.403 13.281 12.8092L11.9018 18.3442H9.4875L9.91725 16.602C9.21 17.7698 8.22225 18.489 7.00725 18.489C5.5425 18.489 4.851 17.6453 4.851 16.3755C4.85475 16.008 4.89825 15.645 4.98 15.2895L6.08175 10.8015H4.37475L4.8945 8.895H8.9925L7.37175 15.3015C7.2705 15.7118 7.22325 16.0515 7.22325 16.2863C7.22325 16.6965 7.4265 16.8172 7.73925 16.8915C7.93425 16.9305 9.46575 16.9035 10.302 15.0518L11.3603 10.8015H9.6375L10.1573 8.9265H13.8802L13.3995 11.0865C14.0437 9.88725 15.3368 8.73075 16.6102 8.73075C17.9618 8.73075 19.0868 9.70725 19.0868 11.5507C19.0868 12.0863 19.005 12.6173 18.8445 13.125L18.153 15.6015C18.0945 15.8558 18.0518 16.0665 18.0518 16.2615C18.0518 16.695 18.2318 16.9058 18.5438 16.9058C18.8603 16.9058 19.278 16.6672 19.743 15.3472L20.688 15.7065C20.133 17.6715 19.11 18.48 17.8365 18.48L17.8358 18.4808Z" fill="black"/>
</g>
<defs>
<clipPath id="clip0_201_57884">
<rect width="24" height="24" fill="white"/>
</clipPath>
</defs>
</svg>
