<svg width="24" height="24" viewBox="0 0 24 24" fill="none" xmlns="http://www.w3.org/2000/svg">
<path d="M17.3827 18.0549C9.9495 18.5004 1.87125 21.1914 1.01925 21.5664L2.00775 18.7771C4.527 17.6094 10.7812 15.3084 18.492 14.7579C18.3435 15.3279 17.5312 17.4301 17.367 18.0429L17.3827 18.0549ZM20.031 10.5474C20.031 10.5474 19.668 11.3131 19.32 12.3601C16.3665 12.5401 11.6873 13.5166 9.40575 14.3409C10.593 13.2624 18.093 5.73161 18.093 5.73161C20.9835 7.71236 23.9993 10.1574 23.9993 10.1574L20.0303 10.5519L20.031 10.5474ZM2.48025 10.8789C4.12875 10.1289 8.74575 8.73011 13.164 7.69511C13.164 7.69511 4.668 15.5386 2.30475 17.9724L4.25775 12.6909C2.73825 12.9136 2.07 13.0074 0 13.4409L2.48025 10.8901V10.8789ZM13.0785 2.44511C13.8127 2.80436 16.5315 4.64861 17.5005 5.33186C14.403 5.40611 8.364 6.74186 5.8485 7.58186C7.911 6.01511 11.751 3.05486 13.0792 2.43311L13.0785 2.44511Z" fill="black"/>
</svg>
