<svg width="24" height="24" viewBox="0 0 24 24" fill="none" xmlns="http://www.w3.org/2000/svg">
<g clip-path="url(#clip0_201_58632)">
<path d="M20.07 9.28875V9.27C20.0782 9.23025 20.211 8.31975 19.9882 7.03125C19.98 6.969 19.938 6.918 19.8795 6.8985L19.5315 6.80175C19.4497 4.0905 18.3285 2.802 18.3015 2.7705C19.3012 4.37175 19.2892 6.28125 19.2705 6.7305L17.1022 6.10275H17.0595C17.0475 6.099 17.0355 6.099 17.0205 6.10275H16.9882L16.98 6.1095L16.9492 6.12975L16.941 6.14175L16.7887 6.282C16.848 4.731 16.5037 3.189 15.789 1.80975C15.8197 1.872 16.59 4.1415 16.32 6.681C16.2382 6.75075 16.1482 6.81675 16.059 6.87975C16.02 6.9105 15.9922 6.95775 15.9877 7.0125C15.9645 7.54725 15.828 8.07825 15.5895 8.55975C13.8082 8.439 12.0195 8.439 10.2375 8.55975L10.2292 8.52075C10.0035 8.052 9.87447 7.53975 9.85122 7.02075C9.85122 6.9615 9.82722 6.9225 9.77997 6.87975C9.68697 6.81675 9.59697 6.75075 9.51072 6.681C9.24897 4.14225 10.0185 1.872 10.038 1.80975C9.33072 3.192 8.98722 4.731 9.05022 6.282L8.89722 6.14175L8.89047 6.12975L8.85822 6.1095L8.82747 6.10275H8.74947L6.56922 6.72C6.51897 5.337 6.85422 3.966 7.53822 2.763C7.51122 2.802 6.38997 4.07925 6.30822 6.78975L5.96022 6.89175C5.90097 6.9105 5.85822 6.9615 5.85147 7.02075C5.62872 8.3205 5.74947 9.21975 5.76147 9.2625V9.28125L5.67972 9.3015C5.34747 9.39825 5.02272 9.5355 4.71897 9.69975C4.87872 9.642 5.03922 9.603 5.21922 9.552C6.05922 9.35625 6.91047 9.228 7.76997 9.17325L8.78922 9.0915C10.1722 9.0135 11.5395 8.9895 12.9225 8.9895C14.6415 8.98575 16.3635 9.04425 18.0787 9.17325C18.939 9.2475 19.7895 9.3765 20.6295 9.552C20.8012 9.591 20.9617 9.642 21.1297 9.69975C20.8207 9.53175 20.4967 9.399 20.1607 9.3015L20.0707 9.28125L20.07 9.28875ZM8.76222 8.69925C7.85547 8.8125 6.96147 8.9805 6.07797 9.1995C6.05922 9.05175 5.97972 8.26275 6.14772 7.1805L8.60847 6.48075C8.56947 7.22775 8.64447 7.97775 8.82747 8.7L8.76222 8.69925ZM9.12897 8.66025V8.5785C8.97297 7.93875 8.90172 7.28175 8.93022 6.62175C9.08997 6.771 9.30897 6.9615 9.53097 7.122C9.55122 7.341 9.60897 7.989 9.89772 8.59125L9.12897 8.66025ZM16.7107 8.57775V8.6595C16.4527 8.6325 16.1947 8.6085 15.9405 8.58975C16.2375 7.9875 16.2885 7.3395 16.3087 7.1085C16.5307 6.96075 16.7497 6.7695 16.9095 6.60825C16.9297 7.05 16.9095 7.839 16.7107 8.577V8.57775ZM19.7617 9.19875C18.8865 8.9565 17.9917 8.793 17.0895 8.6985H16.9995L17.0197 8.6715C17.199 7.95225 17.2657 7.21425 17.2185 6.47925L19.6792 7.179C19.788 7.84725 19.8112 8.526 19.749 9.198L19.7617 9.19875ZM16.8007 15.2378C17.4997 15.219 17.871 15.012 18.219 15.18C18.219 15.1598 18.1087 14.8283 17.6212 14.8913C17.688 14.73 17.7112 14.559 17.691 14.391C17.6212 13.578 17.16 12.9413 16.641 12.9488C16.1287 12.969 15.801 13.6478 15.8197 14.4488C15.852 15.2618 16.2885 15.2498 16.8007 15.2378ZM16.602 13.4693C16.953 13.4693 16.953 14.0003 16.602 14.0003C16.2457 14.0003 16.2457 13.4693 16.602 13.4693ZM8.76222 15.3788H9.07797C9.60222 15.3788 10.02 15.4215 10.02 14.6085C10.0117 13.8083 9.64797 13.1475 9.14097 13.1475C8.62122 13.1475 8.12097 13.8195 8.14797 14.6288C8.15997 14.8395 8.19072 14.988 8.24997 15.102C7.78872 15.219 7.67172 15.5003 7.65972 15.5123C7.94097 15.3593 8.26197 15.3795 8.76147 15.3795L8.76222 15.3788ZM9.21072 13.6598C9.56172 13.6515 9.57372 14.184 9.21897 14.1908C8.86722 14.1945 8.85522 13.668 9.21072 13.6598ZM23.9407 8.46075C23.9295 8.37075 23.9137 8.2845 23.898 8.199L23.8402 7.92975L23.82 7.8705L23.7697 7.82775C23.4997 7.62075 23.2065 7.4445 22.8975 7.3005C22.6477 7.19025 22.3972 7.07775 22.1407 6.98775C21.4567 5.0265 20.2185 3.3045 18.5775 2.031C15.2377 -0.534748 10.5892 -0.534748 7.24947 2.031C5.61222 3.312 4.38222 5.03475 3.69822 6.99975L2.94822 7.30875C2.64747 7.461 2.35122 7.62075 2.06922 7.83975L2.01897 7.87875L1.99872 7.941C1.94772 8.11275 1.91697 8.289 1.89672 8.469C1.82247 8.99175 1.81872 9.51975 1.87797 10.0388C1.95222 10.6515 2.11197 11.25 2.35122 11.82L2.40897 11.949L2.44797 12.012L2.48697 12.078L2.51922 12.129L2.57697 12.1598C2.63172 12.1875 2.68722 12.2145 2.73672 12.2378L2.89647 12.309L2.97822 12.3518C2.27922 12.9998 1.51047 13.8518 0.838474 14.898L-0.00152588 16.2113L1.17822 15.18C1.19697 15.1598 2.17797 14.3093 3.83847 13.3403L3.85722 13.5315C3.76047 13.5788 3.22797 13.8525 3.07647 13.9808C2.81847 14.1915 2.80722 14.5208 2.87772 15.1418C2.90847 15.45 3.02997 16.0598 3.18972 16.6215C3.46797 17.5905 3.67047 17.7623 3.83847 17.8013C3.92022 17.82 4.02972 17.8283 4.13922 17.8283C4.45947 17.8283 4.85697 17.7623 5.12697 17.691C5.42772 18.648 5.87697 19.5203 6.40797 20.289C6.37722 20.289 6.35697 20.289 6.32622 20.3093L4.51047 19.461L3.70947 19.1093L4.17822 19.8405C4.21722 19.8915 5.01822 21.1418 5.67822 21.9885C6.35697 23.0085 7.50597 23.6093 8.72847 23.5905C8.92872 23.5905 9.12747 23.5905 9.32622 23.5598L10.428 23.4308C12.6112 24.2505 15.0532 24.0045 17.0287 22.7625C17.6887 22.6095 18.4275 22.4303 18.7867 22.3283L18.9855 22.281C19.4977 22.1603 20.3497 21.9608 20.7982 21.0593L21.9975 18.7305L22.3567 18.0788L21.678 18.3795C21.639 18.3915 20.7787 18.7703 20.3377 19.0005C20.3175 19.0005 20.307 19.0208 20.2867 19.0313C20.646 18.2895 20.826 17.6993 20.889 17.469C21.1462 17.5313 21.5182 17.52 21.7867 17.52C21.9195 17.52 22.0567 17.4998 22.146 17.4803C22.3177 17.43 22.4587 17.3093 22.7167 16.32C22.869 15.738 22.9777 15.1088 22.998 14.7893C23.0572 14.148 23.037 13.8203 22.7872 13.602C22.6582 13.5 22.287 13.3013 22.0882 13.1993L22.1002 13.1295L22.248 13.1603L22.428 12.5123C22.596 12.4343 22.764 12.363 22.9387 12.3015L23.1 12.2303L23.2597 12.1485L23.3175 12.1215L23.3497 12.0705L23.3955 12.0008L23.4277 11.9415L23.4855 11.8095C23.6062 11.5703 23.7007 11.3205 23.7675 11.0595C24.0052 10.2158 24.0637 9.3285 23.9385 8.4615L23.9407 8.46075ZM3.68022 11.2703C3.96147 11.2073 4.24647 11.1525 4.53147 11.1023C4.27047 11.2703 4.03122 11.4615 3.78147 11.6483L3.68022 11.2703ZM9.57822 10.9883C9.21897 11.238 8.81997 11.559 8.42997 11.949C7.55922 12.039 6.69897 12.1478 5.84022 12.2888C6.94122 11.781 8.21097 11.3085 9.57822 10.9875V10.9883ZM7.96872 12.4493C7.83972 12.6023 7.72947 12.75 7.60872 12.9225L6.92997 13.8915L7.92972 13.2308C7.92972 13.2308 8.56947 12.8018 9.60147 12.3015C11.0152 12.1958 12.4372 12.1523 13.8585 12.1808C13.6597 12.3405 13.4482 12.501 13.2292 12.63L12.4995 13.071C12.0382 13.1303 11.6407 13.239 11.6205 13.251C11.6047 13.251 11.5935 13.2548 11.5777 13.263C11.547 13.2863 11.52 13.3208 11.5117 13.3598L10.7617 15.81L6.78072 16.7003L5.51997 15.8213L5.15997 12.8603C5.87097 12.7313 6.81972 12.579 7.96122 12.462L7.96872 12.4493ZM13.371 13.0508C13.4407 13.0388 14.82 12.8708 16.449 12.309C18.27 12.4493 19.7497 12.672 20.7622 12.852L20.3985 15.3713L19.1415 16.2503L15.1605 15.801L14.4225 13.359C14.4067 13.3088 14.3632 13.266 14.3092 13.2503C14.2815 13.2383 13.7895 13.1025 13.2705 13.0515L13.371 13.0508ZM15.2887 10.7108C15.0585 11.0115 14.7375 11.379 14.352 11.7375C13.152 11.7068 11.9572 11.7188 10.7617 11.7803C12.246 11.1593 13.812 10.7453 15.4095 10.5503L15.2887 10.7108ZM3.96897 17.3588C3.77022 17.16 3.41022 15.8085 3.32772 15.09C3.26997 14.5118 3.30897 14.379 3.37047 14.328C3.44022 14.2703 3.69822 14.1293 3.92172 14.0003L4.21872 16.461C4.21872 16.5 4.24947 16.551 4.28847 16.5698L4.90947 17.0115L4.98747 17.2613C4.72947 17.3273 4.21047 17.409 3.96822 17.358L3.96897 17.3588ZM14.0122 22.02L13.629 22.0703H13.359L13.59 21.5595L14.0197 22.0208L14.0122 22.02ZM13.3012 23.52C12.633 23.559 11.9655 23.484 11.3205 23.301L11.4615 23.2808C11.5207 23.2808 12.6915 23.121 13.2195 22.3395H13.3987L13.6485 22.3275C13.8525 22.3088 14.0392 22.2803 14.2305 22.2375L14.2897 22.3005C14.6917 22.6988 15.192 22.9215 15.72 22.9605C14.9497 23.2695 14.1217 23.4608 13.302 23.5118L13.3012 23.52ZM20.5897 17.1413C20.3587 17.8913 20.0895 18.5393 19.7805 19.1415H19.5585C19.3192 19.1415 19.0777 19.1213 18.8085 19.1025L17.3782 18.9495L15.858 17.7383C15.741 17.6213 15.5767 17.5553 15.4087 17.559C15.21 17.559 14.8965 17.6408 14.1465 17.859C14.5372 17.5703 14.5492 17.199 14.5492 17.199C14.5492 17.199 13.986 17.7113 13.107 17.82C12.2167 17.9408 11.529 17.3978 11.529 17.3978C11.5567 17.4878 11.6002 17.6985 11.799 17.8785C11.451 17.8395 11.1 17.8238 10.7482 17.8395C10.209 17.8703 9.44697 18.6983 8.89647 19.5308L6.85722 20.148C5.95947 18.9218 5.51847 17.6483 5.47797 17.52L5.42772 17.3708L5.65797 17.5305L6.21672 17.9295L6.41997 18.0585C6.43872 18.0773 6.46722 18.0893 6.50997 18.0893H6.54897L11.748 16.9215C11.8177 16.9215 11.8567 16.8705 11.877 16.8195L12.6187 14.3588C12.8415 14.328 13.0717 14.328 13.299 14.3588L14.0572 16.8908C14.076 16.9485 14.139 16.9875 14.2095 16.9995L14.5575 17.0385L19.4475 17.6018C19.4865 17.6018 19.5292 17.6018 19.5682 17.5695L20.0572 17.2298L20.5102 16.9095L20.6782 16.7888L20.5897 17.1413ZM19.4302 17.262L14.352 16.68L13.59 14.172C13.5742 14.109 13.5232 14.0618 13.461 14.0513C13.293 14.0205 13.1287 14.004 12.9607 14.0003C12.8197 14.0003 12.66 14.0205 12.4605 14.0513C12.4012 14.0663 12.3547 14.1135 12.3397 14.172L11.5897 16.6208L6.55047 17.7375L4.55022 16.3395L4.14747 13.1595L4.40922 13.0118L4.82697 12.93L5.19822 15.93C5.19822 15.9803 5.22897 16.0313 5.26947 16.0508L6.64722 17.0115C6.67122 17.0303 6.71022 17.0385 6.73722 17.0385H6.77997L10.929 16.1205L10.968 16.1018C11.007 16.0778 11.0377 16.0425 11.0497 15.9998L11.7997 13.539C11.9985 13.488 12.4987 13.371 12.96 13.371C13.4092 13.371 13.9207 13.488 14.1277 13.539L14.8695 15.9998C14.8897 16.0695 14.9475 16.1085 15.0105 16.1205L19.1587 16.5893C19.1977 16.5893 19.2367 16.5893 19.2795 16.5585L20.6467 15.6015C20.6865 15.5738 20.7097 15.5348 20.718 15.4875L21.0892 12.9098L21.78 13.059L21.3697 15.8978L19.4205 17.262H19.4302ZM22.5 13.9613C22.5592 14.0123 22.602 14.1413 22.551 14.7503C22.488 15.5273 22.2967 16.2893 21.9802 17.0003C21.7702 17.0393 21.3202 17.0003 21.051 16.9305L21.1477 16.4618L21.621 16.1295C21.6562 16.1055 21.684 16.0665 21.6907 16.0208L22.0305 13.6808L22.5 13.9613ZM21.93 12.6293C21.1987 12.4695 19.602 12.1485 17.4097 11.9303C18.129 11.6295 18.8587 11.25 19.512 10.7813C20.8087 10.9613 21.7702 11.16 22.2892 11.2815L21.93 12.6293ZM23.4607 9.969C23.3827 10.527 23.238 11.0738 23.031 11.6018L22.98 11.6985L22.9612 11.7375L22.8915 11.7803L22.7385 11.8395L22.5907 11.9093L22.8525 10.9403C22.3245 10.8083 21.7935 10.6943 21.2625 10.6013L21.3592 10.5773C21.6562 10.503 21.945 10.3973 22.2195 10.2615C22.3095 10.2105 22.3912 10.1475 22.4617 10.0695C21.501 10.3905 19.5007 10.2375 17.7307 10.0695C16.1137 9.89025 14.4885 9.79275 12.8595 9.78075C11.2192 9.78075 9.60222 9.89775 7.98072 10.059C6.21147 10.2503 4.21947 10.3913 3.25047 10.0703C3.32022 10.1483 3.41022 10.2113 3.50022 10.2623L3.77022 10.398C4.02747 10.5 4.29747 10.578 4.57047 10.629C3.69972 10.7888 3.19122 10.9298 3.12972 10.941L3.39897 11.961L3.38022 11.9798L2.95047 11.781L2.88072 11.7383L2.86047 11.6993L2.81022 11.6025C2.58297 11.0828 2.43522 10.5315 2.38047 9.96975C2.30247 9.34875 2.30622 8.7195 2.39247 8.103C2.61072 7.923 2.85372 7.76325 3.10347 7.60275C3.81372 7.21575 4.55247 6.87975 5.31072 6.603L5.78247 6.44175C5.24322 6.5235 4.71672 6.6525 4.20072 6.8205C5.52897 3.12525 8.99772 0.629252 12.924 0.551252C16.7212 0.551252 20.193 3.02025 21.6427 6.8205C21.1267 6.66075 20.604 6.53175 20.0715 6.44175C20.6857 6.657 21.2902 6.903 21.8805 7.173C22.1737 7.302 22.4625 7.44975 22.7317 7.61025C22.9897 7.75125 23.232 7.911 23.451 8.103L23.4817 8.271L23.502 8.51325C23.5372 8.997 23.5252 9.48525 23.463 9.9705L23.4607 9.969ZM11.859 4.422H10.422V2.379H15.5197V4.422H14.07V3.81975H13.7377V6.5775H14.238V8.12025H11.6992V6.5775H12.1995V3.81975H11.8717V4.422H11.859Z" fill="black"/>
</g>
<defs>
<clipPath id="clip0_201_58632">
<rect width="24" height="24" fill="white"/>
</clipPath>
</defs>
</svg>
