<svg width="24" height="24" viewBox="0 0 24 24" fill="none" xmlns="http://www.w3.org/2000/svg">
<g clip-path="url(#clip0_201_58468)">
<path d="M11.9378 0.0157291C10.9336 0.0194791 9.9338 0.144729 8.96105 0.394479C4.28105 1.55848 0.566302 5.79673 0.0900519 10.6042C-0.500198 15.1515 1.8008 19.89 5.7338 22.2375C9.5978 24.6555 14.8276 24.5587 18.6091 22.0155C22.0081 19.8082 24.1208 15.7882 23.9963 11.7292C23.9386 7.71448 21.6841 3.81148 18.2341 1.74898C16.3553 0.588729 14.1451 0.00672907 11.9378 0.0149791V0.0157291ZM11.8711 1.71073C16.8158 1.70248 21.6601 5.52673 22.1558 10.6365C23.1016 16.2967 18.4021 22.0507 12.6676 22.2187C7.2143 22.7617 1.9403 18.1365 1.7843 12.66C1.37855 8.22673 4.3043 3.82423 8.4833 2.35873C9.56105 1.92973 10.7101 1.71073 11.8703 1.71448L11.8711 1.71073ZM16.9651 4.93798C14.2771 7.02298 11.7031 9.24598 9.0743 11.3947C10.2773 11.4097 11.4886 11.4097 12.6953 11.4015C14.1053 9.23773 15.5551 7.10173 16.9651 4.93723V4.93798ZM11.3011 12.5902C9.89105 14.7585 8.4383 16.8982 7.0268 19.0665C9.72305 16.9845 12.2851 14.7465 14.9296 12.6097C13.7183 12.5947 12.5078 12.591 11.3003 12.591L11.3011 12.5902Z" fill="black"/>
</g>
<defs>
<clipPath id="clip0_201_58468">
<rect width="24" height="24" fill="white"/>
</clipPath>
</defs>
</svg>
