<svg width="24" height="24" viewBox="0 0 24 24" fill="none" xmlns="http://www.w3.org/2000/svg">
<g clip-path="url(#clip0_201_57808)">
<path d="M23.7842 -0.000226562C23.7692 -0.000226562 23.7535 -0.000226562 23.7415 0.00352344H17.8862C17.851 0.00352344 17.8195 0.0117734 17.788 0.0267734L11.9987 2.91802L6.20945 0.0267734C6.1787 0.0117734 6.14345 0.00352344 6.1112 0.00352344H0.236451C0.228201 0.00352344 0.217701 0.00352344 0.209451 0.00352344C0.0767013 0.00727344 -0.0215487 0.128773 0.00245127 0.257773V6.11302C0.00245127 6.14827 0.0107013 6.17977 0.0257013 6.21127L2.9207 11.996L0.0257013 17.789C0.0107013 17.8198 0.00245127 17.855 0.00245127 17.891V23.7298C-0.00579873 23.7538 -0.00129873 23.7808 0.00245127 23.8085C0.0182013 23.9293 0.131451 24.0155 0.256701 23.9953H6.11195C6.1442 23.9953 6.1787 23.987 6.2102 23.972L11.9995 21.0733L17.7887 23.972C17.8195 23.987 17.8547 23.9953 17.887 23.9953H23.7662C23.9065 24.0073 24.0205 23.8783 23.9965 23.7373V17.8903C23.9965 17.8543 23.9882 17.819 23.9732 17.7883L21.0782 11.9953L23.9732 6.21052C23.9882 6.17977 23.9965 6.14752 23.9965 6.11227V0.265273C24.0047 0.233023 24.0002 0.198523 23.9927 0.167023C23.9694 0.0687734 23.884 0.00277344 23.7857 -0.000976562L23.7842 -0.000226562ZM2.0222 0.444523H6.05795L10.0967 2.46052L2.0222 0.444523ZM17.9402 0.444523H21.976L13.9007 2.46052L17.9402 0.444523ZM0.526701 0.527023L11.566 3.28927L3.2852 11.5625L3.0512 10.6093L0.526701 0.527023ZM23.4685 0.534523L20.7107 11.5655L12.4337 3.28477L23.4685 0.534523ZM23.5547 2.02252V6.05827L21.535 10.0933L23.5547 2.02252ZM0.444201 2.02252L2.28845 9.39727L2.4647 10.097L0.444951 6.05827L0.444201 2.02252ZM11.9995 3.47977L20.5195 11.9998L12.0032 20.516L3.47945 11.9998L11.9995 3.47977ZM20.7107 12.434L20.8007 12.7813L23.4729 23.4733L12.4337 20.711L20.7107 12.434ZM3.2882 12.434L11.5615 20.7073L0.530451 23.4613L0.796701 22.3955L3.2882 12.434ZM21.5342 13.898L23.554 17.9413V21.9695L21.5342 13.898ZM2.4647 13.898L0.444951 21.977V17.9413L2.4647 13.898ZM10.0892 21.5345L6.05795 23.5543H2.0192L10.0892 21.5345ZM13.9097 21.5345L21.9797 23.5543H17.941L13.9097 21.5345Z" fill="black"/>
</g>
<defs>
<clipPath id="clip0_201_57808">
<rect width="24" height="24" fill="white"/>
</clipPath>
</defs>
</svg>
