<svg width="24" height="24" viewBox="0 0 24 24" fill="none" xmlns="http://www.w3.org/2000/svg">
<g clip-path="url(#clip0_201_58448)">
<path d="M5.043 15.1642C5.03925 16.5555 3.91425 17.6842 2.523 17.688C1.12875 17.6842 0.00375 16.5592 0 15.1642C0.00375 13.773 1.13325 12.648 2.523 12.645H5.043V15.1642ZM6.312 15.1642C6.31575 13.773 7.44525 12.648 8.83575 12.645C10.2225 12.648 11.352 13.773 11.355 15.1642V21.477C11.352 22.8668 10.227 23.9963 8.83575 24C7.44075 23.9963 6.31575 22.8668 6.312 21.477V15.1642ZM8.83575 5.043C7.4445 5.03925 6.31575 3.91425 6.312 2.523C6.31575 1.13325 7.44075 0.00375 8.83575 0C10.227 0.00375 11.352 1.13325 11.355 2.523V5.043H8.83575ZM8.83575 6.312C10.227 6.31575 11.352 7.44075 11.355 8.83575C11.352 10.227 10.227 11.352 8.83575 11.355H2.523C1.13325 11.352 0.00375 10.227 0 8.83575C0.00375 7.44075 1.13325 6.31575 2.523 6.312H8.83575ZM18.957 8.83575C18.9607 7.44075 20.0858 6.31575 21.477 6.312C22.8668 6.31575 23.9963 7.44075 24 8.83575C23.9963 10.227 22.8668 11.352 21.477 11.355H18.957V8.83575ZM17.688 8.83575C17.6842 10.227 16.5548 11.352 15.1642 11.355C13.773 11.352 12.648 10.2233 12.645 8.83575V2.523C12.648 1.13325 13.773 0.00375 15.1642 0C16.5592 0.00375 17.6842 1.12875 17.688 2.523V8.83575ZM15.1642 18.957C16.5592 18.957 17.6842 20.0858 17.688 21.477C17.6842 22.8713 16.5592 23.9963 15.1642 24C13.773 23.9963 12.648 22.8668 12.645 21.477V18.957H15.1642ZM15.1642 17.688C13.773 17.6842 12.648 16.5548 12.645 15.1642C12.648 13.773 13.773 12.648 15.1642 12.645H21.477C22.8668 12.648 23.9963 13.773 24 15.1642C23.9963 16.5592 22.8713 17.6842 21.477 17.688H15.1642Z" fill="black"/>
</g>
<defs>
<clipPath id="clip0_201_58448">
<rect width="24" height="24" fill="white"/>
</clipPath>
</defs>
</svg>
