<svg width="24" height="24" viewBox="0 0 24 24" fill="none" xmlns="http://www.w3.org/2000/svg">
<path d="M12 0C6.23022 0 1.57422 4.488 1.57422 10.473C1.57422 16.4767 6.23022 20.949 12 20.949C12.984 20.949 13.9342 20.8118 14.8357 20.562L15.969 23.484C16.086 23.8013 16.32 24 16.7377 24H18.5385C18.9727 24 19.2885 23.715 19.0897 23.1683L17.6205 19.3485C20.5072 17.5275 22.4257 14.3092 22.4257 10.4572C22.4257 4.488 17.7697 0 12 0V0ZM16.5352 16.5623L15.219 13.1415C15.102 12.8595 14.8672 12.5947 14.367 12.5947H12.6517C12.219 12.5947 11.883 12.876 12.0817 13.4265L13.8157 17.9145C13.2495 18.0623 12.633 18.1297 12 18.1297C7.78122 18.1297 4.77672 14.8095 4.77672 10.4738C4.77672 6.138 7.78047 2.82075 12 2.82075C16.2187 2.82075 19.2232 6.138 19.2232 10.4738C19.2232 13.0087 18.2032 15.177 16.5352 16.563V16.5623Z" fill="black"/>
</svg>
