<svg width="24" height="24" viewBox="0 0 24 24" fill="none" xmlns="http://www.w3.org/2000/svg">
<g clip-path="url(#clip0_201_57736)">
<path d="M11.6646 0.00325615C10.9656 0.0220062 10.2464 0.101506 9.52338 0.245506C4.78938 1.19051 1.07838 4.97276 0.211377 9.72626C-1.14762 17.1325 4.30563 23.983 11.3714 23.983L22.2276 23.9988C23.2079 23.9988 24.0006 23.206 24.0006 22.2258V11.9988C24.0006 5.26076 18.4454 -0.181244 11.6646 0.00250615V0.00325615ZM12.0006 6.13676C15.2384 6.13676 17.8634 8.76176 17.8634 11.9995V17.6088C17.8634 17.8548 17.5701 17.977 17.3954 17.8045L15.9344 16.3435C14.8956 17.2885 13.5164 17.8623 12.0006 17.8623C8.75838 17.8623 6.13338 15.2373 6.13338 11.9995C6.13338 8.76176 8.76213 6.13676 12.0006 6.13676Z" fill="black"/>
</g>
<defs>
<clipPath id="clip0_201_57736">
<rect width="24" height="24" fill="white"/>
</clipPath>
</defs>
</svg>
