<svg width="24" height="24" viewBox="0 0 24 24" fill="none" xmlns="http://www.w3.org/2000/svg">
<g clip-path="url(#clip0_201_58284)">
<path d="M7.82776 3.86699H6.78451C5.17126 3.86324 3.86251 5.17199 3.86251 6.78524V15.3405C4.82326 15.9022 5.89051 16.2585 6.99526 16.3837C6.86251 16.122 6.79201 15.837 6.78451 15.5475V8.66474C6.67951 8.55974 6.67951 6.05549 7.82776 3.86774V3.86699ZM20.238 7.82774V6.78449C20.2418 5.17124 18.9338 3.86249 17.3198 3.86624H8.87101C8.30926 4.82324 7.95301 5.89049 7.82776 6.99524C8.03851 6.78449 8.35201 6.78449 8.66401 6.78449H15.4448C15.5505 6.78449 18.051 6.78449 20.2418 7.82774H20.238ZM16.1723 20.2417H17.2155C18.8288 20.2417 20.1413 18.9337 20.1375 17.3197V8.87099C19.1768 8.30924 18.1095 7.95299 17.0085 7.82774C17.2155 8.03474 17.2155 8.34749 17.2155 8.65949V15.4402C17.2155 15.546 17.2155 18.0502 16.1723 20.2372V20.2417ZM3.76201 16.1722V17.2155C3.75826 18.8287 5.06626 20.1412 6.68026 20.1375H15.129C15.6908 19.1805 16.047 18.1132 16.1723 17.0085C15.9653 17.2155 15.6525 17.2155 15.3405 17.2155H8.55976C8.45776 17.2155 5.95351 17.2155 3.76276 16.1722H3.76201ZM13.254 0.00823975H5.74201C2.61301 0.00823975 0.00825732 2.61299 0.00825732 5.74199C0.00825732 5.74199 0.215257 11.2702 2.40601 13.8787C2.51176 14.0857 2.71876 14.1907 2.92576 14.3977V6.68399C2.92201 4.54724 4.65151 2.81624 6.78451 2.81999H8.45251C8.76976 2.40599 9.08176 2.09399 9.39451 1.78124C10.3313 1.05149 11.7923 0.42599 13.2533 0.00823975H13.254ZM23.9963 13.254V5.74199C23.9963 2.61299 21.3915 0.00823975 18.2625 0.00823975C18.2625 0.00823975 12.7305 0.21524 10.1258 2.40599C9.90301 2.52299 9.72001 2.70299 9.60301 2.92574H17.3213C19.4543 2.92199 21.1853 4.65149 21.1815 6.78449V8.45249C21.5993 8.76974 21.9113 9.08174 22.2248 9.39449C22.9545 10.3312 23.58 11.7922 23.9978 13.2532L23.9963 13.254ZM10.7498 23.9962H18.2618C21.387 23.9962 23.9955 21.387 23.9955 18.258C23.9955 18.258 23.7848 12.7297 21.5978 10.125C21.492 9.91424 21.285 9.81224 21.0735 9.60224V17.3205C21.0818 19.4535 19.3515 21.1882 17.2148 21.1807H15.5468C15.234 21.5985 14.922 21.9105 14.6085 22.224C13.6718 22.9537 12.2108 23.5792 10.7498 23.997V23.9962ZM0.00825732 10.7497V18.258C0.00825732 21.387 2.61301 23.9962 5.74201 23.9962C5.74201 23.9962 11.2703 23.7855 13.8788 21.5985C14.0858 21.4927 14.1908 21.2857 14.3978 21.0742H6.78451C4.65151 21.078 2.92126 19.3485 2.92576 17.2155V15.5475C2.51176 15.2347 2.19451 14.9227 1.88251 14.6092C1.05076 13.6725 0.425257 12.2115 0.00750732 10.7505L0.00825732 10.7497Z" fill="black"/>
</g>
<defs>
<clipPath id="clip0_201_58284">
<rect width="24" height="24" fill="white"/>
</clipPath>
</defs>
</svg>
