<svg width="24" height="24" viewBox="0 0 24 24" fill="none" xmlns="http://www.w3.org/2000/svg">
<g clip-path="url(#clip0_201_58028)">
<path d="M11.586 5.26576C13.4182 5.26576 15.1447 6.07801 16.41 7.34776V7.35151C16.41 6.74176 16.8202 6.28051 17.3872 6.28051H17.5312C18.426 6.28051 18.6052 7.12426 18.6052 7.39051L18.609 16.8668C18.5467 17.4878 19.2502 17.8088 19.641 17.4098C21.1597 15.8475 22.98 9.37051 18.6952 5.62051C14.6992 2.12026 9.33597 2.69851 6.48447 4.66351C3.45372 6.75751 1.51647 11.3828 3.39822 15.7298C5.45322 20.469 11.328 21.8828 14.8245 20.4728C16.5945 19.758 17.4105 22.1475 15.5707 22.9298C12.798 24.1125 5.07072 23.9918 1.46172 17.742C-0.976526 13.5203 -0.847526 6.09376 5.62197 2.24626C10.5667 -0.698991 17.091 0.117009 21.024 4.22326C25.134 8.52001 24.8962 16.5593 20.8837 19.6845C19.0665 21.1058 16.368 19.7235 16.3875 17.6528L16.3672 16.9778C15.102 18.231 13.4182 18.966 11.586 18.966C7.96122 18.966 4.76997 15.774 4.76997 12.153C4.76997 8.49301 7.96122 5.26726 11.586 5.26726V5.26576ZM16.1452 11.8913C16.008 9.23851 14.0392 7.64101 11.6602 7.64101H11.5702C8.82822 7.64101 7.30497 9.80101 7.30497 12.2498C7.30497 14.9955 9.14472 16.7295 11.559 16.7295C14.2537 16.7295 16.023 14.7578 16.152 12.4253L16.1452 11.8913Z" fill="black"/>
</g>
<defs>
<clipPath id="clip0_201_58028">
<rect width="24" height="24" fill="white"/>
</clipPath>
</defs>
</svg>
