<svg width="24" height="24" viewBox="0 0 24 24" fill="none" xmlns="http://www.w3.org/2000/svg">
<g clip-path="url(#clip0_201_57540)">
<path d="M18.8242 6.65619C18.8872 6.74244 18.8872 6.82419 18.8242 6.91044C18.762 6.93069 18.711 6.93069 18.672 6.91044L18.516 6.68844L18.1477 6.59469C18.0855 6.52794 18.0855 6.44169 18.1477 6.33669C18.207 6.25044 18.2887 6.21969 18.3945 6.24294C18.5775 6.34869 18.7222 6.48519 18.8235 6.65694L18.8242 6.65619ZM23.3122 10.9919C23.3362 11.0549 23.3445 11.1052 23.3445 11.1479L23.1915 11.3707V11.0227C23.2305 10.9994 23.2732 10.9919 23.3122 10.9919ZM17.934 6.24219L18.0862 6.49644C18.0045 6.64569 17.922 6.74244 17.8402 6.78144L17.7465 6.91044C17.7075 6.80544 17.6767 6.69969 17.6565 6.59469C17.6332 6.59469 17.6137 6.58269 17.5942 6.55944L17.469 6.68844L16.9177 6.55944C16.836 6.45369 16.8547 6.33669 16.977 6.21144C17.1022 6.08244 17.2462 6.05169 17.406 6.11319L17.934 6.24219ZM16.7932 6.90969L16.641 6.81594L16.7617 6.74994L16.7932 6.90969ZM14.3317 5.28519L14.148 5.50794L13.965 5.28519L13.809 5.25444L14.301 5.15619L14.3317 5.28519ZM23.9302 10.0657C24.012 10.1287 24.0202 10.2884 23.961 10.5427L23.7772 11.0857L23.6212 11.2769L23.5905 10.8952C23.5905 10.8089 23.5822 10.7339 23.5627 10.6724C23.5627 10.6094 23.5515 10.5434 23.5275 10.4804L23.1292 10.6724C23.148 10.7152 23.16 10.7707 23.16 10.8322C23.1802 10.8952 23.2027 10.9379 23.223 10.9612L22.7932 10.9919L22.8202 11.1172L22.914 11.2154L22.7617 11.5627C22.7415 11.7547 22.6875 11.8634 22.605 11.8837L22.4842 11.6917L22.113 11.7854C22.0312 11.7037 21.9922 11.6294 21.9922 11.5627L21.8985 11.4389L22.0552 11.2469C22.0125 11.1607 21.9735 11.1179 21.93 11.1179L21.777 11.1847L21.621 11.5627C21.48 11.5627 21.387 11.5867 21.348 11.6294L21.531 11.8837L22.176 12.2347L22.2067 12.4574C22.2885 12.4777 22.3515 12.5122 22.3905 12.5512C22.4527 12.5939 22.4955 12.6254 22.5157 12.6479C22.4955 12.6907 22.473 12.7417 22.4527 12.8092C22.434 12.8519 22.3905 12.8909 22.3275 12.9344L22.0545 13.1257L22.0852 13.3837C21.921 13.4459 21.7762 13.5517 21.651 13.6994L21.561 14.0512C21.3352 14.0512 21.1897 14.0699 21.132 14.1134L21.159 14.5942L21.069 14.5619C20.9872 14.4337 20.9047 14.4022 20.823 14.4652L20.9437 14.8792C20.8815 14.8792 20.8305 14.8912 20.7915 14.9099L20.7285 14.9767L20.8537 15.1987C20.874 15.2849 20.8815 15.3479 20.8815 15.3907C20.7607 15.4957 20.6355 15.5587 20.5147 15.5774C20.4127 15.6014 20.331 15.6757 20.2687 15.8047L20.2995 16.1879C20.2365 16.3357 20.1862 16.4302 20.1435 16.4729C19.9395 16.4729 19.7872 16.4962 19.6822 16.5352L19.4985 16.8869L19.3462 16.8239C19.2645 16.8007 19.2015 16.8007 19.158 16.8239L19.0372 17.0782C18.8535 17.0782 18.7215 17.1209 18.639 17.2072L18.393 17.4299L18.4507 17.1449C18.5137 16.9732 18.4815 16.8787 18.3607 16.8547L18.2355 16.9484L18.2085 17.1082L17.8995 17.3002L17.8687 17.6512H17.283L17.1622 17.8739C17.1195 18.0029 17.0182 18.0967 16.8532 18.1627C16.689 18.2257 16.4002 18.2564 15.99 18.2564C15.5842 18.2564 15.3262 18.2797 15.225 18.3187C15.1192 18.3187 15.0292 18.3734 14.9467 18.4784C14.8845 18.5887 14.814 18.6622 14.7315 18.7012L14.2395 18.8609L14.0835 19.1497L13.8682 19.3094C13.767 19.3724 13.602 19.4032 13.3762 19.4032L13.0672 19.5629L12.606 19.7549L12.27 19.7242C12.1447 19.6574 12.0052 19.6259 11.841 19.6259H11.286L11.0992 19.4969L10.731 19.5629L10.548 19.8172L10.2697 19.6259L10.056 19.4032L9.56324 19.3724L9.38024 19.2127L9.65324 18.8609L10.0245 18.3532V18.0022L10.4542 17.5214V16.9822C10.4542 16.8104 10.485 16.6619 10.548 16.5329L10.884 16.6312C10.9657 16.5449 11.0092 16.4819 11.0092 16.4392C10.884 16.3342 10.7745 16.1932 10.6695 16.0252L10.3605 15.5804L9.99374 15.1004L9.74774 14.6542L9.47099 14.2094L9.25574 13.6664L8.79449 13.1542L7.10249 10.6702L6.79424 10.1272L6.48524 9.52119L6.23924 9.36144C6.05624 9.13119 5.90324 8.87319 5.77799 8.60019L5.68799 8.21694L5.41124 8.08794L4.45799 8.27919C4.23074 8.27919 3.98474 8.32194 3.71999 8.40819L3.07124 8.66244L2.30249 8.75619L1.87274 8.91594C1.68899 8.95869 1.54499 8.93919 1.44299 8.85294L1.22774 8.60019L0.888742 8.72544L0.610492 8.63169C0.610492 8.41644 0.591742 8.29194 0.552742 8.24844L0.274492 7.86519C0.149242 7.77894 0.0592417 7.72494 -0.0022583 7.70544L0.0284917 7.54569H0.337492C0.313492 7.48269 0.306742 7.40844 0.306742 7.32294V7.16319L0.610492 7.29219C0.716242 7.22919 0.778492 7.17519 0.798742 7.13244L0.919492 6.87819L1.16549 6.90894L1.34924 6.36594L1.32149 6.08094L1.47449 6.17469L1.62674 6.33444C1.73174 6.29169 1.79099 6.24819 1.81349 6.20919L2.09174 5.85744L2.36474 5.88969L2.27474 5.66694L2.09174 5.44419L1.81349 5.34744C1.93574 5.15544 2.20049 5.01969 2.61074 4.93344L3.59549 4.83969L3.93524 4.61694L4.73549 4.45719L5.96624 4.39119L6.39524 4.29744C6.55949 4.23444 6.72449 4.22319 6.88799 4.26669L7.37999 4.23444C7.70774 4.14819 7.94174 4.12944 8.08724 4.16844L8.48549 4.19919L9.04049 4.23444L9.86849 4.39569L10.6065 4.45794L11.1307 4.23519C11.256 4.23519 11.3887 4.31694 11.5327 4.48944L11.8417 4.71219H12.486L12.7012 4.96644L12.6705 5.12619L12.8535 5.63844L12.9787 5.57169L13.257 5.25594L13.5607 5.73219L13.194 5.60694C13.05 5.60694 12.9682 5.71269 12.948 5.92419L13.257 5.98644L13.3777 6.14769L13.5607 6.08469C13.6665 6.04194 13.7685 6.06444 13.8697 6.14769C13.995 6.21369 14.0767 6.28794 14.1157 6.36969L14.2995 6.62769H14.7015C14.7015 6.56169 14.7097 6.51894 14.7285 6.49869C14.7525 6.45594 14.7712 6.42444 14.7915 6.40494L14.8537 6.72219H14.979L15.069 6.62844L15.1627 6.78819L15.2565 6.53019C15.5212 6.53019 15.6742 6.51144 15.7177 6.46794C15.7177 6.40494 15.6937 6.35094 15.6547 6.30819L15.5295 6.14844C15.5295 6.04269 15.6112 5.99919 15.7755 6.02319L16.2097 6.14844L16.515 6.11619L16.698 6.27594L16.761 6.40494C16.5772 6.36219 16.452 6.36969 16.3942 6.43719C16.3515 6.47994 16.3432 6.55419 16.362 6.65919L16.5772 6.85119C16.5772 6.99894 16.647 7.15944 16.7925 7.32744L16.9177 7.20219L16.9447 6.94419L17.07 7.10544H17.5942C17.6955 7.10544 17.7772 7.22244 17.8402 7.45644L17.934 7.77669L18.0547 7.87044L18.2107 7.71069L18.699 7.87044L18.7927 7.71069L18.945 7.64844C19.0267 7.58169 19.0822 7.53069 19.1017 7.48719V7.32744L19.0387 7.16769L19.4685 7.29669C19.5502 7.21044 19.6012 7.14894 19.6207 7.10544C19.5817 6.99969 19.5427 6.94419 19.5 6.94419L19.191 6.88194V6.72219L19.2847 6.49944L19.3785 6.30819C19.4797 6.37044 19.5427 6.42519 19.5615 6.46794L19.7145 6.69069L20.1442 6.62769L20.913 7.29594L21.132 7.26519L21.3472 7.55019L21.5302 7.64844C21.468 7.73319 21.468 7.82769 21.5302 7.93344L21.7455 7.83969H21.9607L22.1445 8.15544L22.3275 8.47644C22.4917 8.47644 22.6162 8.49519 22.6987 8.53869L22.8195 9.11244L23.1592 9.30444L23.4375 9.40119C23.4375 9.50694 23.4172 9.59319 23.3745 9.65544L23.4375 9.97644L23.5305 10.1632L23.4997 10.3904L23.6205 10.3237C23.7022 10.2187 23.7652 10.1557 23.8087 10.1324L23.9302 10.0657ZM16.1797 5.35194C16.242 5.41419 16.242 5.50794 16.1797 5.63694C16.1595 5.67969 16.098 5.71119 15.996 5.72994C15.9337 5.66769 15.9337 5.57394 15.996 5.44494C16.0162 5.40219 16.0777 5.37069 16.1797 5.35194ZM22.4842 11.2769C22.5472 11.3437 22.5472 11.4262 22.4842 11.5312L22.332 11.5979L22.3012 11.3752C22.3012 11.3122 22.3125 11.2702 22.332 11.2462C22.371 11.2274 22.422 11.2379 22.4842 11.2769ZM21.1912 9.71919C21.234 9.75819 21.2542 9.86319 21.2542 10.0349C21.1725 10.0777 21.09 10.0897 21.0082 10.0657C20.9062 10.0034 20.8875 9.90594 20.9452 9.78069C20.988 9.67194 21.0705 9.65169 21.1912 9.71844V9.71919ZM12.4882 5.47719L12.3052 5.82819L12.3952 5.57394L12.4882 5.47719ZM16.734 17.7809L16.6087 17.5897L16.734 17.4914C16.836 17.5154 16.875 17.5897 16.8547 17.7187L16.734 17.7809ZM21.8707 13.0312C21.7455 12.9449 21.6637 12.8632 21.6247 12.7769L21.8085 12.9022L21.8707 13.0312ZM9.56624 18.7027L9.71924 18.5467L9.87149 18.4484L9.56624 18.7027ZM22.7887 10.4489L22.6987 10.6409L22.668 10.7377L22.6372 10.5119L22.7887 10.4489ZM22.9447 12.0119L22.8825 12.2969L22.9447 12.0119ZM20.7622 8.50419L20.8522 8.63319L20.73 8.66394L20.6047 8.57019L20.7622 8.50419ZM15.2542 15.9959L15.1335 16.0942L15.2542 15.9959ZM14.6092 5.25369L14.5785 5.41344L14.6092 5.25369ZM21.1597 8.78919L21.102 8.94894L21.1597 8.78919ZM21.039 13.9882L21.102 14.0819L21.0082 14.1449L21.039 13.9837V13.9882ZM15.1327 5.44494L15.0697 5.53869L15.1327 5.44494ZM16.7932 17.0782L16.734 17.2072L16.7932 17.0782ZM9.87074 10.2577L9.74999 10.3867L9.87074 10.2577ZM9.68774 19.4062L9.65549 19.5659L9.68774 19.4062ZM19.008 6.94119L19.0702 7.03944L18.9142 6.97344L19.008 6.94119ZM13.9957 15.6127L13.965 15.7379L13.992 15.6127H13.9957ZM21.102 9.14094L21.0697 9.26994L21.0975 9.14094H21.102ZM20.883 10.6409L20.8237 10.7339L20.883 10.6409ZM21.285 14.5942L21.1912 14.6564L21.285 14.5942ZM1.69124 6.62469L1.66049 6.78069L1.69124 6.62094V6.62469ZM22.3012 11.9452L22.176 12.0119L22.3012 11.9452ZM21.8977 11.7232L21.7147 11.7584L21.8977 11.7232ZM15.4102 18.5467L15.3795 18.6404L15.4102 18.5467ZM21.621 12.3952V12.2339V12.3952ZM23.1292 10.2577C23.109 10.3004 23.0985 10.3439 23.0985 10.3867C23.0985 10.3199 23.1097 10.2764 23.1292 10.2577ZM1.50824 6.02019L1.47749 6.14544L1.50824 6.02019ZM19.008 8.78919L18.8827 8.82444L19.008 8.78919ZM18.516 6.87894L18.453 6.97269L18.516 6.87894ZM10.9222 5.06169L10.8285 5.09394L10.9222 5.06169ZM13.9957 6.33594L13.965 6.46494L13.9957 6.33594ZM13.566 6.30519L13.5037 6.36744L13.566 6.30519ZM9.59399 19.1842L9.56624 19.3094L9.59399 19.1842ZM20.6992 11.2147L20.637 11.1479L20.6992 11.2147ZM13.1332 6.11319L13.0702 6.05094L13.1332 6.11319ZM23.0077 10.1602C23.0077 9.99219 22.977 9.85494 22.914 9.74619C22.8712 9.64119 22.8007 9.54744 22.6987 9.46119L22.668 9.87519L22.8832 9.97344C22.902 10.0357 22.902 10.0867 22.8832 10.1294L23.0077 10.1602ZM20.6047 9.39819L20.547 9.33219L20.6047 9.39819ZM21.8362 10.8322L21.684 10.8014L21.5002 10.5127L21.5595 10.2584L21.2812 10.4497L21.438 10.6417L21.4687 10.7347L21.0975 10.8959L21.3435 10.9267C21.3862 10.9694 21.4252 11.0009 21.4687 11.0234C21.531 11.0437 21.57 11.0557 21.5895 11.0557L21.8362 10.8322ZM21.2227 10.2577L21.0975 10.1594L20.8822 10.0972L20.7885 9.93744L20.6677 10.0657L20.574 10.2884L20.82 10.3867C20.9452 10.3867 21.0352 10.4174 21.0982 10.4797L21.2227 10.2577ZM15.84 6.78069L15.7192 6.71844L15.531 6.62469C15.4492 6.62469 15.4102 6.64494 15.4102 6.68769L15.441 6.87894L15.6562 7.00794L15.84 6.78069ZM19.5307 13.5742L19.5937 13.1909C19.5937 12.8519 19.4685 12.4882 19.2225 12.1049C19.0192 11.7232 18.7492 11.4142 18.4215 11.1839C18.1552 10.9259 17.7885 10.7032 17.3152 10.5119L16.0852 9.97269L15.624 9.68394L14.9482 9.42969L14.241 9.20694L13.101 8.94894L12.7327 8.88669C12.5497 8.88669 12.405 8.90994 12.3037 8.94894C12.222 8.97294 12.1897 9.04719 12.21 9.17619L12.5767 9.90594C12.765 10.2457 12.9367 10.4797 13.101 10.6087L13.3777 10.8007V10.9919L13.6867 11.3707L13.7175 11.6287C13.7992 11.6909 13.8615 11.7224 13.9005 11.7224C14.0025 11.7884 14.1352 11.9444 14.2995 12.2024L14.6392 12.6164L15.162 13.3822L15.6232 14.2102L15.8385 14.8469L15.7755 15.2609L15.9007 15.4522L15.7755 15.6442C15.7177 15.7064 15.7177 15.7724 15.7755 15.8354L15.9907 15.7724L16.362 15.6127C16.464 15.6127 16.6402 15.5467 16.8862 15.4214L17.5612 15.1012L18.5152 14.7179C18.9052 14.5499 19.1835 14.3782 19.347 14.2102L19.4677 13.8899C19.4677 13.7407 19.4865 13.6357 19.53 13.5689L19.5307 13.5742Z" fill="black"/>
</g>
<defs>
<clipPath id="clip0_201_57540">
<rect width="24" height="24" fill="white"/>
</clipPath>
</defs>
</svg>
