<svg width="24" height="24" viewBox="0 0 24 24" fill="none" xmlns="http://www.w3.org/2000/svg">
<g clip-path="url(#clip0_201_57686)">
<path d="M9.957 0.0982666C9.53475 0.0982666 9.117 0.137267 8.70675 0.211517C4.398 1.00052 1.36275 4.73027 1.10475 7.18877C0.979505 8.39177 1.63275 9.29402 1.9875 9.69152C2.96025 10.7708 4.89075 11.5905 6.13275 12.2738C4.33575 13.8015 3.5115 14.5515 2.703 15.399C1.488 16.677 0.636754 18.075 0.633004 19.0793C0.633004 19.4033 0.578254 20.4353 0.999754 21.2513C1.15575 21.5565 1.60875 22.5795 2.96475 23.3453C3.83175 23.8335 5.0655 24.0135 6.273 23.841C10.0163 23.3063 15.027 20.1338 18.6023 17.1773C20.883 15.294 22.5473 13.47 23.0273 12.5715C23.4143 11.8455 23.4615 10.5443 23.2343 9.72827C22.5945 7.41152 17.3955 2.66102 13.1453 0.751517C12.1373 0.310517 11.0513 0.0877666 9.957 0.0997666V0.0982666ZM9.94876 0.164267C11.0978 0.152267 12.234 0.406517 13.266 0.914267C16.6988 2.60252 22.5 7.34402 22.926 9.72752C23.457 12.6765 13.074 20.6565 6.762 21.9023C4.30875 22.383 2.223 22.5165 1.26975 19.926C0.441004 17.6843 2.043 16.0433 4.40175 13.887C5.38275 12.9923 6.1635 12.3203 7.3395 11.328C7.40175 11.262 1.67925 9.28877 1.4955 7.02302C1.30875 4.69127 4.99575 0.395267 9.71475 0.171767C9.79275 0.168017 9.87076 0.163517 9.94876 0.163517V0.164267ZM9.84 0.680267C9.672 0.684017 9.504 0.691517 9.336 0.711017C7.01625 0.953267 6.57375 1.25402 4.473 2.84402C3.77025 3.37502 2.47275 4.67177 2.14125 6.21077C2.016 6.79652 2.1645 7.30052 2.586 7.65602C3.93375 8.78927 6.195 9.71102 8.05125 10.602C8.59425 10.863 8.23425 11.3363 7.359 12.0938C5.148 14.0078 2.16 16.3358 1.94925 18.1088C1.8525 18.945 2.14125 20.082 3.15225 20.664C4.34025 21.3443 6.801 20.9018 8.445 20.289C10.848 19.395 14.004 17.4218 16.5083 15.48C19.1093 13.461 21.531 10.8983 21.6525 10.4798C21.8018 9.96902 21.7853 9.49202 21.5003 8.94902C21.0555 8.09402 20.4615 7.45727 19.8203 6.74627C18.102 4.93802 16.2855 3.34427 14.1135 2.12552C12.6885 1.32827 11.4225 0.656267 9.84075 0.680267H9.84ZM10.902 4.27277C11.445 4.27277 12.0698 4.44452 12.7418 4.77002C14.418 5.57777 16.137 7.70702 12.7268 8.93027C11.8005 9.26627 8.859 8.11352 8.94901 6.54302C9.03525 4.98377 9.79725 4.27277 10.902 4.27277ZM11.1878 5.62877C10.8705 5.62877 10.617 5.70677 10.4955 5.89052C9.94425 6.74552 10.1985 7.35152 10.7108 7.73777C10.8975 7.28477 12.8475 7.78052 12.84 8.20652C12.8588 8.19452 12.879 8.18777 12.8948 8.17577C14.586 6.90152 12.426 5.63702 11.1878 5.62877Z" fill="black"/>
</g>
<defs>
<clipPath id="clip0_201_57686">
<rect width="24" height="24" fill="white"/>
</clipPath>
</defs>
</svg>
