<svg width="24" height="24" viewBox="0 0 24 24" fill="none" xmlns="http://www.w3.org/2000/svg">
<g clip-path="url(#clip0_201_57926)">
<path d="M18.8243 23.859C18.8055 23.949 18.7073 24 18.543 24H15.4058C15.219 24 15.0548 23.9183 14.9138 23.754L9.73354 17.1637L8.28454 18.5347V23.6475C8.28454 23.8822 8.17129 23.9993 7.93729 23.9993H5.50354C5.26954 23.9993 5.15179 23.8822 5.15179 23.6475V0.35175C5.15179 0.12075 5.26954 0 5.50354 0H7.93729C8.17129 0 8.28454 0.12075 8.28454 0.35175V14.6947L14.4878 8.4255C14.6558 8.2575 14.82 8.1795 14.9835 8.1795H18.2228C18.3668 8.1795 18.4605 8.23725 18.5078 8.35875C18.555 8.508 18.543 8.613 18.4725 8.6715L11.9175 15.0157L18.7538 23.523C18.8475 23.6287 18.8708 23.73 18.8235 23.883L18.8243 23.859Z" fill="black"/>
</g>
<defs>
<clipPath id="clip0_201_57926">
<rect width="24" height="24" fill="white"/>
</clipPath>
</defs>
</svg>
