<svg width="24" height="24" viewBox="0 0 24 24" fill="none" xmlns="http://www.w3.org/2000/svg">
<g clip-path="url(#clip0_201_57834)">
<path d="M12 24H11.6017L14.1015 17.301H17.4998C18.1012 17.301 18.699 16.8008 18.8985 16.3013L21.6015 9.00075C21.9998 7.8015 21.3008 6.80175 20.1015 6.80175H15.3983L9.30075 23.7C3.8985 22.3995 0 17.7 0 12.0007C0 6.501 3.699 1.899 8.8005 0.399L6.4995 6.801L2.601 17.301H5.10075L8.30025 8.3985H10.1985L6.999 17.301H9.49875L12.4988 9C12.897 7.80075 12.2992 6.801 10.9987 6.801H8.9985L11.4983 0H11.9985C18.6 0 23.9985 5.3985 23.9985 12C23.9985 18.6015 18.6 24 11.9985 24H12ZM19.3005 8.301H17.3985L14.6993 15.6015H16.6012L19.3005 8.301Z" fill="black"/>
</g>
<defs>
<clipPath id="clip0_201_57834">
<rect width="24" height="24" fill="white"/>
</clipPath>
</defs>
</svg>
