<svg width="24" height="24" viewBox="0 0 24 24" fill="none" xmlns="http://www.w3.org/2000/svg">
<path d="M3.672 9.17999V8.14124H0V13.863H3.68025V12.816H1.188V11.4382H3.34425V10.422H1.188V9.17999H3.672ZM5.83575 15.816L8.367 9.90599H7.12875L6.2265 12.2662L5.31525 9.90599H4.0815L5.62875 13.512L4.617 15.816H5.83575ZM12.4613 12.2422V11.7975C12.4613 10.5667 11.7113 9.83249 10.5705 9.83249C9.3915 9.83249 8.55975 10.6132 8.55975 11.8912C8.55975 13.1602 9.3915 13.9492 10.6027 13.9492C11.5275 13.9492 12.2857 13.41 12.423 12.6645L11.298 12.6097C11.2118 12.8835 10.962 13.0477 10.5712 13.0477C10.0673 13.0477 9.76725 12.7305 9.74325 12.243L12.4613 12.2422ZM10.5623 10.7032C11.0662 10.7032 11.3123 11.0205 11.3363 11.5005H9.7425C9.77325 10.9965 10.0905 10.7032 10.5623 10.7032ZM17.0392 9.17999V8.14124H13.3673V13.863H17.0475V12.816H14.5553V11.4382H16.7115V10.422H14.5553V9.17999H17.0392ZM22.5 9.82799C21.9023 9.82799 21.5122 10.098 21.285 10.4572C21.0232 10.0515 20.586 9.83249 20.043 9.83249C19.5 9.83249 19.1798 10.0357 19.0042 10.3125V9.90674H17.949V13.8637H19.0658V11.6685C19.0658 11.1915 19.332 10.8712 19.7767 10.8712C20.184 10.8712 20.418 11.1525 20.418 11.6602V13.863H21.5347V11.5312C21.582 11.133 21.828 10.8712 22.227 10.8712C22.6523 10.8712 22.8832 11.1562 22.8832 11.6602V13.863H24V11.4382C24 10.4385 23.4023 9.83249 22.5 9.83249V9.82799Z" fill="black"/>
</svg>
