<svg width="24" height="24" viewBox="0 0 24 24" fill="none" xmlns="http://www.w3.org/2000/svg">
<g clip-path="url(#clip0_201_57898)">
<path d="M8.0745 24C7.7265 24 7.383 23.9378 7.05525 23.8125C5.6805 23.2853 4.95 21.789 5.32875 20.4105L5.313 20.403L5.403 20.1765L12.399 2.01226C12.5047 1.73851 12.4575 1.10176 12.4065 0.742513C12.3907 0.656263 12.3907 0.582013 12.414 0.504013L12.4215 0.480763L12.4252 0.465013V0.457513L12.4372 0.438013C12.543 0.149263 12.8865 0.000762939 13.4452 0.000762939C14.1172 0.000762939 15.0465 0.211513 15.996 0.575263C16.7932 0.879763 17.5192 1.26301 18.027 1.64926C18.6285 2.09851 18.8707 2.50501 18.7342 2.84851L18.7027 2.89576L18.687 2.90776C18.6442 2.97001 18.597 3.02851 18.5385 3.07576C18.222 3.34501 17.7727 3.81001 17.6985 4.02076L10.6357 22.4385L10.6162 22.4348C10.1242 23.3843 9.159 23.9895 8.073 23.9933H8.06925L8.0745 24ZM5.88675 20.2815L5.86725 20.3325C5.418 21.5318 6.02775 22.8908 7.23075 23.352C7.5 23.4533 7.78125 23.5043 8.067 23.5043C9.03975 23.5043 9.89925 22.9185 10.2547 22.0043L10.2817 21.942L17.2425 3.85201C17.3872 3.46501 18.0825 2.83276 18.219 2.71501L18.2347 2.69551C18.2467 2.68351 18.258 2.68351 18.258 2.66851C18.258 2.60626 18.1957 2.39926 17.6992 2.02426C17.2185 1.66126 16.5472 1.30126 15.7972 1.01626C14.9265 0.687763 14.028 0.477013 13.4265 0.477013C13.0357 0.477013 12.903 0.558763 12.8835 0.606013V0.645013C12.8992 0.746263 13.0282 1.68001 12.8482 2.16076L5.8875 20.2778L5.88675 20.2815ZM14.8357 8.77351C14.8357 8.77351 13.8712 9.88276 12.9922 10.2855C12.1132 10.6838 11.4652 10.5788 10.6717 11.0393C9.88275 11.5005 9.4845 12.1448 9.4845 12.1448L6.27 20.5043C5.922 21.4493 6.438 22.5548 7.395 22.926C8.35575 23.2935 9.43425 22.8053 9.80925 21.8678L14.8357 8.77351ZM9.906 18.762C10.0072 18.7193 10.1287 18.762 10.1715 18.8633C10.2142 18.969 10.1715 19.086 10.0657 19.1288C9.96 19.1715 9.83925 19.1288 9.80025 19.023C9.7575 18.9293 9.80025 18.8085 9.906 18.7613V18.762ZM8.8905 16.9568C8.73825 17.0273 8.55825 16.9568 8.49225 16.8045C8.42625 16.6523 8.49225 16.4685 8.64825 16.4063C8.8005 16.3358 8.98425 16.4063 9.0465 16.5585C9.12075 16.7108 9.054 16.8713 8.8905 16.9493V16.9568ZM9.1755 15.8633C9.05475 15.5745 9.1755 15.2385 9.46425 15.1058C9.74925 14.9805 10.0777 15.1058 10.2142 15.3908C10.335 15.6795 10.2142 16.0118 9.92925 16.1445C9.6285 16.2735 9.3 16.1445 9.1635 15.8595L9.1755 15.8633ZM11.6017 13.6058C11.7577 13.5315 11.9377 13.6058 12 13.7543C12.0705 13.9065 12 14.0903 11.8477 14.1525C11.6917 14.223 11.5117 14.1525 11.4495 13.9965C11.3752 13.848 11.4495 13.6643 11.6017 13.602V13.6058ZM10.3087 12.2265C10.4145 12.1838 10.5352 12.2265 10.5742 12.3278C10.617 12.4335 10.5742 12.5543 10.473 12.597C10.3672 12.636 10.2465 12.597 10.2075 12.4913C10.1647 12.3855 10.215 12.2648 10.3087 12.2258V12.2265ZM13.68 1.14076C13.7812 0.879013 14.676 0.976513 15.6757 1.36726C16.6755 1.74976 17.406 2.27326 17.3047 2.53501C17.2035 2.80051 16.3087 2.69926 15.309 2.31601C14.3047 1.92901 13.5742 1.40551 13.68 1.14001V1.14076Z" fill="black"/>
</g>
<defs>
<clipPath id="clip0_201_57898">
<rect width="24" height="24" fill="white"/>
</clipPath>
</defs>
</svg>
