<svg width="24" height="24" viewBox="0 0 24 24" fill="none" xmlns="http://www.w3.org/2000/svg">
<g clip-path="url(#clip0_201_58414)">
<path d="M23.1796 0.81658C15.5311 -0.27317 8.40611 -0.27317 0.800363 0.81658C-0.266137 8.37883 -0.266137 15.4258 0.800363 22.9453C4.51136 23.4921 8.21861 23.9998 12.0039 23.9998C15.7539 23.9998 19.4649 23.4883 23.1759 22.9843C24.2739 15.4221 24.2739 8.37508 23.1759 0.81658H23.1796ZM11.6409 19.1323C9.58586 19.1323 7.41461 18.4408 6.46136 17.9331L7.26611 14.8078C8.33261 15.5113 9.94961 16.2021 11.7151 16.2021C13.1094 16.2021 13.9531 15.7648 13.9531 14.8971C13.9531 14.2798 13.5196 13.9206 12.3789 13.6356L10.0974 13.0063C7.68311 12.3463 6.54236 11.1118 6.54236 9.15058C6.54236 6.78358 8.37086 4.89283 12.1599 4.89283C14.1519 4.89283 16.1326 5.43958 17.2299 5.98633L16.2804 8.96308C15.1749 8.34583 13.4874 7.83808 12.0541 7.83808C10.6869 7.83808 10.1049 8.27158 10.1049 8.92783C10.1049 9.54883 10.5069 9.79858 11.3941 10.0213L13.8826 10.7556C16.4491 11.4898 17.5899 12.7206 17.5899 14.6383C17.5156 17.3413 15.1291 19.1541 11.6326 19.1541L11.6409 19.1323Z" fill="black"/>
</g>
<defs>
<clipPath id="clip0_201_58414">
<rect width="24" height="24" fill="white"/>
</clipPath>
</defs>
</svg>
