<svg width="24" height="24" viewBox="0 0 24 24" fill="none" xmlns="http://www.w3.org/2000/svg">
<g clip-path="url(#clip0_201_57480)">
<path d="M11.9813 0.375C18.6278 0.375 23.625 5.53575 23.625 12C23.625 18.8955 18.0705 23.625 11.9813 23.625C5.7 23.625 0.375 18.492 0.375 12C0.375 5.7705 5.283 0.375 11.9813 0.375ZM12.0187 2.4705C6.4785 2.4705 2.4705 7.05975 2.4705 12C2.4705 17.1472 6.7455 21.5062 12.0187 21.5062C16.8562 21.5062 21.525 17.7045 21.525 12C21.5295 6.66525 17.2972 2.4705 12.0187 2.4705ZM12 5.30625C8.16075 5.30625 7.1955 8.9295 7.1955 12C7.1955 15.0705 8.1615 18.6937 12 18.6937C15.8392 18.6937 16.8045 15.0705 16.8045 12C16.8045 8.9295 15.8385 5.30625 12 5.30625ZM12 7.833C12.1545 7.833 12.3 7.85625 12.4313 7.88925C12.708 8.1285 12.8437 8.45625 12.5767 8.916L10.0223 13.6125C9.94275 13.017 9.933 12.4358 9.933 12C9.933 10.65 10.0267 7.833 12 7.833ZM13.9125 9.99825C14.0482 10.7198 14.067 11.4698 14.067 12C14.067 13.3545 13.9733 16.167 12 16.167C11.367 16.167 10.4715 15.8063 11.058 14.9295L13.9125 9.99825Z" fill="black"/>
</g>
<defs>
<clipPath id="clip0_201_57480">
<rect width="24" height="24" fill="white"/>
</clipPath>
</defs>
</svg>
