<svg width="24" height="24" viewBox="0 0 24 24" fill="none" xmlns="http://www.w3.org/2000/svg">
<g clip-path="url(#clip0_201_57366)">
<path d="M20.5163 10.533C20.1458 10.533 19.737 10.812 19.737 11.4787H21.2663C21.2663 10.812 20.8793 10.533 20.5163 10.533ZM15.6248 10.6417C15.2828 10.6417 15.0705 10.7625 14.9168 10.9335L14.925 13.1332C15.0705 13.2877 15.279 13.4122 15.6248 13.4122C16.1708 13.4122 16.5375 12.8167 16.5375 12.021C16.5375 11.2462 16.1625 10.638 15.6248 10.6417ZM21.9998 2.66699H1.99952C0.895517 2.66699 -0.000732422 3.56249 -0.000732422 4.66724V19.3342C-0.000732422 20.4382 0.894767 21.3345 1.99952 21.3345H21.9998C23.1038 21.3345 24 20.439 24 19.3342V4.66724C24 3.56324 23.1045 2.66699 21.9998 2.66699ZM5.09177 13.0462C5.09177 14.1127 4.24577 14.7172 3.01277 14.7255C2.50427 14.7255 1.94627 14.6257 1.39577 14.388V12.975C1.89602 13.242 2.52527 13.446 3.01652 13.446C3.34577 13.446 3.58352 13.359 3.58352 13.0837C3.58352 12.3757 1.33352 12.642 1.33352 11.0047C1.33352 9.95474 2.13377 9.32924 3.33377 9.32924C3.82577 9.32924 4.31327 9.40424 4.80452 9.59999V10.992C4.35452 10.7505 3.78377 10.6125 3.33377 10.6125C3.02102 10.6125 2.82977 10.704 2.82977 10.9335C2.82977 11.6002 5.09252 11.2837 5.09252 13.0462H5.09177ZM7.95827 10.6875H6.83327V12.792C6.83327 13.6627 7.77077 13.392 7.95827 13.317V14.5207C7.76252 14.6295 7.40402 14.7165 6.92102 14.7165C6.04202 14.7165 5.38352 14.0707 5.38352 13.1955L5.39177 8.44949L6.83777 8.14124V9.42449H7.95827V10.6875ZM11.0415 10.7872C10.854 10.725 10.2623 10.6372 9.91202 11.0955V14.6122H8.43302V9.42449H9.71252L9.80402 9.86174C10.1498 9.22424 10.8413 9.35324 11.037 9.42449H11.0415V10.7872ZM12.879 14.6122H11.391V9.42449H12.879V14.6122ZM12.879 8.65799L11.391 8.97449V7.77074L12.879 7.45424V8.65799ZM15.9668 14.721C15.45 14.721 15.1335 14.5005 14.9213 14.346L14.9168 16.0207L13.4378 16.3335V9.42524H14.742L14.817 9.79199C15.021 9.60449 15.396 9.32924 15.975 9.32924C17.013 9.32924 17.9918 10.2667 17.9918 11.988C17.9918 13.8675 17.025 14.7172 15.9668 14.7217V14.721ZM22.65 12.5752H19.7543C19.821 13.2667 20.3288 13.4707 20.904 13.4707C21.4913 13.4707 21.954 13.3455 22.3583 13.1415V14.3332C21.954 14.5537 21.4245 14.7165 20.7165 14.7165C19.275 14.7165 18.2663 13.812 18.2663 12.0292C18.2663 10.521 19.1205 9.32549 20.529 9.32549C21.933 9.32549 22.6665 10.521 22.6665 12.0375C22.6665 12.183 22.6538 12.492 22.65 12.5752Z" fill="black"/>
</g>
<defs>
<clipPath id="clip0_201_57366">
<rect width="24" height="24" fill="white"/>
</clipPath>
</defs>
</svg>
