<svg width="24" height="24" viewBox="0 0 24 24" fill="none" xmlns="http://www.w3.org/2000/svg">
<g clip-path="url(#clip0_201_57472)">
<path d="M11.9813 0.375C18.6278 0.375 23.625 5.53575 23.625 12C23.625 18.8955 18.0705 23.625 11.9813 23.625C5.7 23.625 0.375 18.492 0.375 12C0.375 5.7705 5.283 0.375 11.9813 0.375ZM12.0187 2.4705C6.4785 2.4705 2.4705 7.05975 2.4705 12C2.4705 17.1472 6.7455 21.5062 12.0187 21.5062C16.8562 21.5062 21.525 17.7045 21.525 12C21.5295 6.66525 17.2972 2.4705 12.0187 2.4705ZM6.8295 10.3597C7.43925 6.42675 10.6027 5.874 11.934 5.874C16.6117 5.874 17.9108 9.741 17.9108 12.1642C17.9108 15.1455 15.9885 18.3937 11.8687 18.3937C10.0455 18.3937 7.22325 17.4562 6.741 13.8465H9.6705C9.741 15.2572 10.5892 15.9653 12.225 15.9653C13.317 15.9653 14.9437 15.1117 14.9437 12.084C14.9437 8.217 12.642 8.3055 12.2858 8.3055C10.734 8.3055 9.86175 8.99025 9.66975 10.359H10.5225L8.21625 12.6652L5.919 10.359L6.8295 10.3597Z" fill="black"/>
</g>
<defs>
<clipPath id="clip0_201_57472">
<rect width="24" height="24" fill="white"/>
</clipPath>
</defs>
</svg>
