<svg width="24" height="24" viewBox="0 0 24 24" fill="none" xmlns="http://www.w3.org/2000/svg">
<g clip-path="url(#clip0_201_57776)">
<path d="M3.31648 20.3365C5.61748 22.735 8.55448 24.0002 12.012 24.0002C16.0005 24.0002 19.7505 22.051 21.9885 18.8365C23.3437 16.8872 24 14.68 24 12.0827C24 11.5982 23.9685 11.0747 23.9377 10.5557H10.5937V15.1652H17.2815C16.1295 17.1767 14.1877 18.2822 12.012 18.2822C8.78173 18.2822 5.88673 15.4622 5.88673 11.7865C5.88673 8.47373 8.58598 5.71973 12.012 5.71973C13.8555 5.71973 15.3675 6.46598 16.8247 7.95773H23.3445C21.4695 3.02048 17.0865 0.000976562 12.0825 0.000976562C8.76223 0.000976562 5.86348 1.17323 3.55498 3.41123C1.25023 5.64923 -2.35089e-05 8.57123 -2.35089e-05 11.755C-0.00752351 15.1727 1.10923 18.0242 3.31648 20.3372V20.3365Z" fill="black"/>
</g>
<defs>
<clipPath id="clip0_201_57776">
<rect width="24" height="24" fill="white"/>
</clipPath>
</defs>
</svg>
