<svg width="24" height="24" viewBox="0 0 24 24" fill="none" xmlns="http://www.w3.org/2000/svg">
<g clip-path="url(#clip0_201_57966)">
<path d="M10.812 23.586C8.32803 24.3983 8.07828 24.273 6.95328 20.7848L4.20302 12.2655C3.55128 10.2458 1.54727 4.81126 1.21127 3.76951C0.590275 1.82776 0.590275 1.72276 4.23828 0.534763C7.10553 -0.401987 7.21953 -0.371237 8.26202 2.85451C9.10203 5.46076 9.63678 7.55476 10.4963 10.2143L12.84 17.46L20.328 14.9993C21.8093 14.511 22.3013 14.5343 22.7153 16.3515L23.0205 17.7263C23.3633 19.323 22.5593 19.7295 21.7035 20.007L10.8128 23.577L10.812 23.586Z" fill="black"/>
</g>
<defs>
<clipPath id="clip0_201_57966">
<rect width="24" height="24" fill="white"/>
</clipPath>
</defs>
</svg>
