<svg width="24" height="24" viewBox="0 0 24 24" fill="none" xmlns="http://www.w3.org/2000/svg">
<g clip-path="url(#clip0_201_57768)">
<path d="M11.9995 -0.000226562C10.6758 -0.000226562 9.60175 1.07377 9.60175 2.39752V10.8005C9.60175 12.1243 10.6758 13.1983 11.9995 13.1983C13.3233 13.1983 14.3973 12.1243 14.3973 10.8005V5.21077C17.194 6.19852 19.198 8.86252 19.198 11.9998C19.198 15.9725 15.9723 19.199 11.9988 19.199C8.02525 19.199 4.7995 15.977 4.7995 11.9998C4.7995 10.0115 5.6035 8.21077 6.9085 6.90952C7.84675 5.97277 7.84675 4.44877 6.9085 3.51127C5.97175 2.57302 4.44775 2.57302 3.51025 3.51127C1.342 5.68702 -0.0019989 8.68702 -0.0019989 11.999C-0.0019989 18.6283 5.36875 23.999 11.998 23.999C18.6273 23.999 23.998 18.6283 23.998 11.999C23.998 5.36977 18.6273 -0.000976562 11.998 -0.000976562L11.9995 -0.000226562Z" fill="black"/>
</g>
<defs>
<clipPath id="clip0_201_57768">
<rect width="24" height="24" fill="white"/>
</clipPath>
</defs>
</svg>
