<svg width="24" height="24" viewBox="0 0 24 24" fill="none" xmlns="http://www.w3.org/2000/svg">
<g clip-path="url(#clip0_201_57162)">
<path d="M0 0.300781V23.6985H24V0.300781H0ZM0.99975 1.30128H22.9995V22.6995H0.99975V1.30128ZM6.648 16.6253C6.531 16.6253 6.50025 16.5743 6.50025 16.4775V5.73453C6.50025 5.64828 6.531 5.60253 6.61725 5.60253H8.199C8.28525 5.60253 8.301 5.63778 8.301 5.72328V14.9805H12.426C12.5078 14.9805 12.531 15.0165 12.516 15.0983L12.2662 16.5165C12.2505 16.5983 12.1995 16.6335 12.117 16.6335H6.648V16.6253ZM14.0513 10.1483C14.0513 10.0275 14.0512 9.73428 14.0002 9.17253C14.0002 9.09078 14.0205 9.07053 14.0865 9.03978C14.6955 8.79378 16.1415 8.34903 17.7585 8.34903C17.8403 8.34903 17.8717 8.36403 17.8717 8.45028V9.89928C17.8717 9.98553 17.841 10.0013 17.7547 10.0013C17.13 9.97053 16.1917 10.0523 15.8445 10.2V16.509C15.8445 16.5908 15.8123 16.6223 15.7305 16.6223H14.1608C14.079 16.6223 14.0475 16.5915 14.0475 16.509V10.149L14.0513 10.1483Z" fill="black"/>
</g>
<defs>
<clipPath id="clip0_201_57162">
<rect width="24" height="24" fill="white"/>
</clipPath>
</defs>
</svg>
