<svg width="24" height="24" viewBox="0 0 24 24" fill="none" xmlns="http://www.w3.org/2000/svg">
<g clip-path="url(#clip0_201_57512)">
<path d="M17.9642 14.6017V9.32475H19.183V13.5278H21.3235V14.598H17.9642V14.6017ZM8.17899 11.3123L11.1595 9.0195C11.4407 9.246 11.7182 9.47625 11.9995 9.70725L9.17124 11.8477L9.78474 12.3832L12.6092 10.1648C12.8905 10.395 13.1717 10.626 13.453 10.8563C12.5155 11.5988 11.5705 12.3368 10.6247 13.071L11.2345 13.6065L14.0665 11.3138L14.0627 9.3255H15.2852V13.5285H17.5037V14.5988H14.1407V12.6143C13.1447 13.3763 12.1525 14.1413 11.1602 14.9032L8.17974 12.6143C8.03499 13.341 7.52724 13.974 6.86724 14.3055C6.58224 14.454 6.26949 14.5478 5.95299 14.583C5.76924 14.6062 5.58549 14.5988 5.40249 14.5988H3.51549V9.3255H5.69124C6.25749 9.333 6.80874 9.52875 7.25349 9.88425C7.70649 10.2435 8.03049 10.755 8.17899 11.3138V11.3123ZM4.66374 10.3942V13.605H5.61699C6.02349 13.5892 6.40224 13.398 6.65199 13.0815C7.08174 12.5422 7.15224 11.8005 6.83574 11.1908C6.63624 10.8082 6.28074 10.527 5.85924 10.425C5.69124 10.386 5.51949 10.3935 5.35149 10.3935L4.66374 10.3942ZM11.8195 0H12.1555C14.0425 0.02325 15.8935 0.49575 17.5615 1.371C19.1905 2.2305 20.6005 3.4455 21.6865 4.92975C23.155 6.93 23.9635 9.33975 23.9987 11.8207V12.18C23.9597 15.168 22.807 18.0352 20.764 20.2155C18.5372 22.5907 15.436 23.958 12.1817 24.0007H11.8187C10.4005 23.9812 8.99874 23.7075 7.67424 23.196C6.06099 22.5667 4.60374 21.5985 3.40074 20.3602C2.11149 19.032 1.14324 17.4307 0.572486 15.6727C0.209486 14.544 0.0174858 13.368 -0.00201416 12.1807V11.8215C0.0369858 9.5445 0.728486 7.3215 1.98999 5.427C3.16974 3.64575 4.79049 2.208 6.70074 1.25475C8.29074 0.4575 10.0405 0.0285 11.818 0.00075L11.8195 0ZM11.6672 1.23075C9.31974 1.2975 7.06149 2.133 5.23749 3.606C3.74124 4.809 2.59674 6.387 1.91724 8.18025C0.928736 10.809 0.999236 13.719 2.10849 16.2975C2.87799 18.063 4.10049 19.5863 5.65524 20.7195C7.06899 21.7507 8.70999 22.419 10.4402 22.665C11.8975 22.8757 13.3975 22.7902 14.8195 22.407C16.765 21.8797 18.523 20.8207 19.894 19.3447C21.265 17.8717 22.195 16.0402 22.5775 14.0632C22.8782 12.5122 22.8355 10.9148 22.4567 9.38325C21.562 5.78925 18.8785 2.907 15.3587 1.75425C14.167 1.36725 12.9175 1.188 11.6672 1.23075Z" fill="black"/>
</g>
<defs>
<clipPath id="clip0_201_57512">
<rect width="24" height="24" fill="white"/>
</clipPath>
</defs>
</svg>
