<svg width="24" height="24" viewBox="0 0 24 24" fill="none" xmlns="http://www.w3.org/2000/svg">
<g clip-path="url(#clip0_201_57606)">
<path d="M5.78475 3.41403C6.2145 3.16428 6.66 2.94078 7.125 2.74578C8.10525 2.32803 9.117 2.08953 10.1603 1.98378L11.2853 3.25803L10.7625 4.57428C9.7425 4.77003 8.78175 5.14503 7.88325 5.68803L7.68825 5.80503L7.512 4.07028L5.78475 3.41028V3.41403ZM5.29725 3.72303L7.086 4.41378L7.27275 6.12453C6.3045 6.83554 5.547 7.74528 5.00775 8.85453C4.95675 8.95278 4.9095 9.05028 4.86675 9.15153L3.609 7.62453L1.55475 8.05878C2.0655 6.95253 2.75775 5.96853 3.6165 5.09778C4.1325 4.57803 4.6875 4.12053 5.2845 3.72303H5.29725ZM17.0783 15.777C17.2733 15.453 17.43 15.1253 17.559 14.7848L19.4963 17.1368L22.7505 16.434C22.5623 16.9493 22.3448 17.4488 22.0905 17.9408C21.4185 19.2338 20.5358 20.352 19.4415 21.3008C18.3285 22.266 17.0708 22.9688 15.6683 23.4098C15.6413 23.418 15.6135 23.4255 15.5865 23.4338L13.1768 21.3945L13.806 18.6203L13.8563 18.6015C15.2355 17.9993 16.3133 17.0693 17.079 15.7658L17.0783 15.777ZM21.1523 4.80528C21.3525 5.07828 21.5355 5.36328 21.7155 5.66028C22.4573 6.90603 22.9695 8.24253 23.2545 9.66453C23.5275 11.0745 23.5703 12.4928 23.3753 13.9148C23.2703 14.5988 23.121 15.267 22.9103 15.9188L19.656 16.6178L17.7068 14.259C17.934 13.392 17.961 12.489 17.766 11.5523C17.5388 10.4393 17.0468 9.48528 16.3118 8.70004L19.8195 8.28228L21.1283 4.80603L21.1523 4.80528ZM1.34025 8.58603L3.438 8.14128L4.67625 9.64804C4.281 10.734 4.1955 11.859 4.39125 13.0268C4.434 13.3628 4.50825 13.6838 4.59825 13.9958L2.379 13.4918L0.789002 15.375C0.597752 14.5388 0.507751 13.6883 0.507751 12.8198C0.507751 11.367 0.777002 9.96904 1.31175 8.62053L1.3275 8.58154L1.34025 8.58603ZM4.78125 14.52C5.0985 15.363 5.5665 16.1333 6.18825 16.836C6.6525 17.3708 7.1805 17.8088 7.75425 18.1523L5.5515 19.4145L5.67225 22.2773C4.9455 21.828 4.27725 21.2895 3.672 20.6723C2.652 19.6215 1.87125 18.426 1.332 17.0745C1.18425 16.6995 1.062 16.3245 0.957002 15.9495L2.59425 14.0273L4.812 14.5395L4.78125 14.52ZM8.22975 18.414C8.703 18.6518 9.21075 18.8318 9.75 18.9533C10.9568 19.2345 12.1373 19.188 13.2773 18.8123L12.6525 21.57L15.0398 23.5898C13.8488 23.9018 12.63 24.0345 11.3835 23.9918C9.92625 23.9445 8.5275 23.637 7.19175 23.0655C6.8325 22.9133 6.489 22.7453 6.153 22.5585L6.03225 19.6755L8.22975 18.414ZM20.8162 4.36278L19.5045 7.85178L15.8873 8.28453C15.7815 8.19453 15.6765 8.10453 15.5625 8.03028C14.3753 7.12803 13.0395 6.60453 11.5598 6.45228C11.2118 6.42528 10.884 6.42528 10.5668 6.42528L11.829 3.19803L9.10275 0.0930347C9.927 0.00303475 10.7385 -0.00896525 11.5598 0.00303475C12.0518 0.0187847 12.5355 0.0540348 13.0208 0.116285C13.6995 0.206285 14.3678 0.354035 15.0315 0.538535C16.4385 0.937535 17.7195 1.56978 18.8753 2.46828C19.605 3.02628 20.25 3.65928 20.8162 4.36203V4.36278Z" fill="black"/>
</g>
<defs>
<clipPath id="clip0_201_57606">
<rect width="24" height="24" fill="white"/>
</clipPath>
</defs>
</svg>
