<svg width="24" height="24" viewBox="0 0 24 24" fill="none" xmlns="http://www.w3.org/2000/svg">
<g clip-path="url(#clip0_201_58664)">
<path d="M8.01149 0.136475L-1.38599e-05 4.67922V15.1365C-0.0157639 19.941 3.91424 23.8477 8.77349 23.8627C10.3792 23.8665 11.8905 23.445 13.1872 22.7107L19.6755 19.023C22.2382 17.718 23.988 15.078 24 12.0307V1.09722L22.41 0.179225L15.906 3.81222V15.183C15.9022 15.6637 15.8827 16.0192 15.7537 16.6162C15.5347 17.5342 15.2302 18.1785 15.1792 18.2842C14.6677 18.2527 13.632 17.9677 12.7927 17.472C12.3705 17.2335 11.8785 16.8705 11.4292 16.4527C11.1285 16.1677 10.8705 15.8392 10.6477 15.5077C10.4092 15.1642 10.2142 14.8042 10.062 14.4292C9.89774 14.0385 9.78074 13.6477 9.68699 13.242C9.59699 12.8242 9.58574 12.3907 9.58574 11.9685L9.60149 1.05072L8.01149 0.144725V0.136475ZM11.6955 21.723C11.262 21.8985 10.809 22.0357 10.3477 22.1332C9.87149 22.227 9.42974 22.2742 8.94524 22.2742C8.45699 22.2742 7.96499 22.2195 7.49174 22.122C7.03049 22.0282 6.57749 21.8872 6.14024 21.7042C5.71799 21.5242 5.30399 21.3022 4.92149 21.048C3.93299 20.3565 3.42149 19.755 2.97974 19.1107C2.72174 18.72 2.50349 18.3135 2.31974 17.8957C2.13974 17.4622 1.99949 17.0092 1.90574 16.56C1.81574 16.095 1.79999 15.5992 1.79999 15.1222V5.57922L7.79999 1.96197V11.97C7.79999 15.7785 10.62 18.9502 14.253 19.7197C14.1165 19.884 14.0107 20.0482 13.8585 20.196C13.53 20.52 13.1865 20.8207 12.7957 21.075C12.4207 21.333 12.1515 21.54 11.7292 21.7192L11.6955 21.723ZM22.1017 13.3125C22.0155 13.719 21.891 14.1172 21.7267 14.4997C21.2895 15.453 20.5785 16.269 19.9882 16.7925C18.7695 17.8942 17.262 18.234 17.0895 18.234C17.4487 17.2845 17.6947 16.269 17.6992 15.195V4.72647L22.203 2.00022L22.2067 12.0082C22.2067 12.4417 22.1872 12.8872 22.101 13.305L22.1017 13.3125Z" fill="black"/>
</g>
<defs>
<clipPath id="clip0_201_58664">
<rect width="24" height="24" fill="white"/>
</clipPath>
</defs>
</svg>
