<svg width="24" height="24" viewBox="0 0 24 24" fill="none" xmlns="http://www.w3.org/2000/svg">
<g clip-path="url(#clip0_201_57210)">
<path d="M12.0308 10.7153C11.3438 10.7153 10.77 11.277 10.77 11.9692C10.77 12.6562 11.3438 13.23 12.0308 13.23C13.7108 13.23 13.7108 10.7153 12.0308 10.7153ZM12.0308 11.5118C12.2888 11.5118 12.4875 11.7105 12.4875 11.9685C12.4875 12.2265 12.2888 12.4252 12.0308 12.4252C11.7727 12.4252 11.574 12.2265 11.574 11.9685C11.574 11.7105 11.7727 11.5118 12.0308 11.5118ZM0.648 0C0.57825 0 0.543 0.012 0.30075 0.039C0.05475 0.06975 -0.027 0.363 0.03075 0.672C0.0855 0.984 0.102 0.879 0.2265 1.059C0.35175 1.23825 4.45275 5.199 6.5775 7.27275L2.81175 11.133C1.5615 12.414 0.9015 14.3872 0.516 16.566C0.129 18.7463 0.03075 21.1597 0 23.352C0.00375 23.6677 0.23775 23.934 0.555 23.9692C0.594 23.973 0.633 23.973 0.672 23.9692C0.816 23.9573 0.95325 23.8913 1.05525 23.7855H1.062L7.27275 17.4142C11.2927 21.1373 11.391 22.4963 16.566 23.484C18.7463 23.8673 21.1597 23.9692 23.352 24C23.664 24 23.9303 23.766 23.9692 23.4533L23.9775 23.445C23.9805 23.4023 23.9775 23.355 23.9692 23.3123C23.9535 23.172 23.8913 23.043 23.793 22.941V22.9342L17.4142 16.7272L21.0472 13.0005C21.0945 12.9577 21.1372 12.9105 21.18 12.8678L21.1882 12.8595C22.4385 11.5785 23.1052 9.6135 23.4923 7.43475C23.8755 5.25075 23.9692 2.841 24 0.64875C24 0.33675 23.766 0.0705 23.4533 0.0315L23.445 0.02025C23.4023 0.02025 23.355 0.02025 23.3123 0.027C23.172 0.04275 23.043 0.105 22.9455 0.207H22.9387L16.728 6.57375L12.8678 2.81175C11.5868 1.5615 9.618 0.89475 7.43475 0.50775C5.181 0.26175 2.919 0.0345 0.64875 0L0.648 0ZM1.12875 0.83625C3.168 0.87525 5.34375 0.957 7.293 1.30125C9.39825 1.6725 11.223 2.3325 12.3053 3.3915H12.312L12.4177 3.50025C12.441 3.5235 12.465 3.555 12.492 3.582C12.492 3.58575 12.4957 3.58575 12.4957 3.59025L12.5077 3.5985L12.5198 3.6135V3.62175C12.5228 3.6255 12.5265 3.6255 12.5265 3.63C12.6555 3.80625 12.8827 4.149 12.9487 4.29375C12.996 4.39575 13.0387 4.50075 13.0815 4.61775C13.2615 5.1375 13.3515 5.7855 13.2885 6.603V6.60975C13.2727 6.7935 13.2495 6.981 13.2225 7.1805C13.2067 7.2735 13.1873 7.37925 13.1715 7.48875C13.1287 7.70775 13.0815 7.9185 13.0305 8.13375C13.0035 8.247 12.9727 8.364 12.9405 8.481V8.48925C12.8115 8.95425 12.6405 9.4665 12.4298 10.0095C12.3787 10.1467 12.3278 10.2787 12.27 10.4235C12.2228 10.5322 12.1717 10.6462 12.1207 10.7633L11.8628 10.8135C10.9875 9.1575 10.0305 8.01375 9.1755 7.35675C8.74125 7.029 8.33925 6.8175 7.9485 6.732H7.94475C7.5585 6.64725 7.1445 6.705 6.8745 6.98175L6.90975 7.05675L7.23 6.8175L1.12875 0.83625ZM23.1637 1.125C23.1285 3.16425 23.0467 5.34375 22.6987 7.293C22.3275 9.39825 21.672 11.223 20.6085 12.309L20.4998 12.4103C20.4727 12.438 20.4375 12.4695 20.406 12.4965L20.391 12.5167H20.3827C20.211 12.642 19.8547 12.876 19.7108 12.942C19.6087 12.9893 19.5 13.044 19.3868 13.083H19.3785C18.8625 13.2593 18.2145 13.3447 17.3978 13.2817C17.2185 13.2667 17.0227 13.251 16.824 13.224L16.5233 13.173H16.5165C16.2975 13.1302 16.0868 13.083 15.8715 13.032H15.8632C15.7462 13.0012 15.633 12.966 15.5205 12.9352C15.0045 12.7942 14.4968 12.6263 13.9965 12.435C13.8593 12.3802 13.7198 12.321 13.5743 12.2633C13.4693 12.2205 13.3635 12.177 13.2585 12.1305C13.1805 12.2288 13.2705 12.0675 13.2585 12.1305C13.2622 12.0322 13.2465 11.9355 13.2075 11.8455C14.8448 10.9747 15.9885 10.0283 16.6418 9.17775C16.974 8.7435 17.1885 8.334 17.274 7.947C17.364 7.56075 17.3018 7.13925 17.0243 6.86925L17.0325 6.8775L17.1427 7.22925L23.1637 1.125ZM13.8983 4.94475L16.434 7.41375L16.4452 7.4295L16.461 7.44075C16.5 7.47975 16.539 7.55475 16.4918 7.773C16.4685 7.87125 16.3477 8.03925 16.2847 8.16375C16.203 8.33175 16.1678 8.4645 16.0118 8.66775C15.465 9.36675 14.3948 10.2338 12.8745 11.0468C12.9218 10.938 12.9645 10.8315 13.0072 10.7265C13.065 10.5817 13.1205 10.4332 13.1752 10.2922C13.3942 9.72225 13.5772 9.1875 13.7145 8.69025C13.8112 8.33925 13.8945 7.983 13.9605 7.62825V7.62C13.9763 7.51125 14.0033 7.40475 14.0198 7.296C14.0468 7.08525 14.07 6.87825 14.0858 6.66675C14.1368 5.991 14.016 5.472 13.8975 4.94775L13.8983 4.94475ZM7.773 7.512C9.36675 8.22975 10.4062 9.93375 11.0512 11.1292C10.941 11.0782 10.836 11.0393 10.7273 10.992C10.578 10.9342 10.434 10.8787 10.2892 10.824C9.77025 10.617 9.234 10.4377 8.6955 10.2847H8.69175C8.5665 10.2495 8.44575 10.2188 8.32875 10.188C8.091 10.1287 7.8525 10.0823 7.62975 10.0387C7.521 10.023 7.407 10.008 7.2975 9.98775V9.9795C7.08675 9.9525 6.87975 9.92925 6.66825 9.9135C5.988 9.8625 5.46525 9.9795 4.941 10.0972L7.41375 7.56525L7.44075 7.5345C7.47975 7.4955 7.55475 7.4565 7.773 7.5075V7.512ZM6.60525 10.7153C6.78525 10.7273 6.97725 10.7505 7.176 10.7812H7.18425C7.27725 10.797 7.37925 10.812 7.48425 10.8322C7.69125 10.8713 7.902 10.9185 8.12925 10.9732L8.3055 11.016C8.36325 11.031 8.41875 11.043 8.47725 11.0588H8.48025C8.9535 11.1908 9.4575 11.3587 10.0042 11.5695C10.1415 11.6205 10.281 11.6753 10.422 11.7292C10.5428 11.7802 10.6643 11.835 10.785 11.886L10.8007 12.1508C9.15975 13.0215 8.0115 13.9718 7.359 14.823C7.02675 15.2572 6.81225 15.6592 6.72675 16.05V16.0583C6.63675 16.4445 6.699 16.8585 6.9765 17.1285H6.96825L6.78 16.7925L0.843 22.8622C0.882 20.8275 0.95625 18.6555 1.29975 16.7062C1.671 14.601 2.331 12.78 3.39 11.694V11.6873C3.41325 11.6595 3.44025 11.64 3.468 11.6122L3.49875 11.5852C3.52575 11.5545 3.558 11.526 3.58875 11.5035H3.597C3.60075 11.4998 3.60375 11.4915 3.60825 11.4878C3.78 11.3625 4.1445 11.121 4.2885 11.0505C4.39725 11.0033 4.5075 10.9567 4.62075 10.9178C5.1405 10.7378 5.7885 10.6477 6.609 10.7108L6.60525 10.7153ZM11.7622 10.914C11.3445 11.0468 11.0625 11.3317 10.926 11.7458L11.367 11.2575L11.7622 10.914ZM12.3053 10.941L12.4845 11.2657L12.6337 11.3588L13.0358 11.676C12.8918 11.3243 12.6645 11.07 12.3097 10.9447L12.3053 10.941ZM12.0203 11.4608C12.3285 11.4608 12.57 11.703 12.57 12.012C12.5738 12.3203 12.324 12.57 12.0203 12.5662C11.7113 12.57 11.4615 12.3203 11.4653 12.012C11.4653 11.703 11.7075 11.4608 12.0203 11.4608ZM10.9688 12.324C11.109 12.6877 11.352 12.9338 11.715 13.0702L11.4773 12.7935L11.2733 12.5595L10.9688 12.324ZM13.0312 12.3593L12.7463 12.477L12.6885 12.6562L12.4028 12.9802C12.6915 12.84 12.8985 12.6562 13.032 12.363L13.0312 12.3593ZM12.957 12.8707C13.062 12.9135 13.1678 12.969 13.2728 13.0118C13.422 13.0695 13.566 13.125 13.7108 13.1798C14.2725 13.398 14.8088 13.5735 15.3045 13.7108C15.4335 13.7498 15.5588 13.7768 15.6713 13.809C15.9135 13.8668 16.1475 13.9223 16.374 13.965C16.479 13.98 16.593 13.9957 16.7062 14.016C16.9215 14.043 17.1322 14.07 17.3355 14.0903C18.0158 14.1413 18.5347 14.0205 19.0613 13.902L16.5892 16.4377L16.5735 16.449L16.5585 16.4647C16.5225 16.5037 16.4445 16.539 16.2337 16.4955H16.227C16.0117 16.4445 15.6953 16.2922 15.3323 16.0072C14.6333 15.4605 13.7662 14.3903 12.957 12.87V12.8707ZM11.1248 12.9608L10.992 13.2765C10.9342 13.4212 10.8787 13.5697 10.8202 13.7108C10.617 14.2335 10.4415 14.766 10.2892 15.3045C10.254 15.4335 10.2232 15.5587 10.1955 15.6757C10.1377 15.9135 10.0822 16.152 10.0395 16.3748C10.0208 16.488 10.0042 16.5975 9.9885 16.7108C9.95775 16.9177 9.9345 17.1248 9.91425 17.3355C9.86325 18.0158 9.984 18.5385 10.098 19.0613L7.566 16.5892L7.551 16.5653L7.53525 16.5585V16.5502C7.49625 16.5112 7.461 16.4482 7.50825 16.233C7.50825 16.2292 7.50825 16.2292 7.50825 16.2262C7.55925 16.011 7.71525 15.6945 7.9965 15.3315C8.5395 14.6325 9.60975 13.7655 11.1255 12.9562L11.1248 12.9608ZM12.1642 13.2188C13.0312 14.844 13.977 15.9915 14.8245 16.6448C15.2588 16.977 15.6608 17.1908 16.0515 17.277H16.0597C16.446 17.3632 16.8555 17.3047 17.13 17.0272L17.0947 16.9575L16.7895 17.2275L22.8795 23.1683C20.8403 23.1293 18.6562 23.0475 16.7078 22.6995C14.6025 22.3283 12.7778 21.6728 11.6955 20.6138H11.6888L11.634 20.5597C11.6257 20.5515 11.622 20.5395 11.6137 20.5275L11.583 20.5005C11.5598 20.4735 11.5282 20.4412 11.505 20.4105V20.4022C11.5013 20.3985 11.4893 20.391 11.4893 20.3873C11.3295 20.172 11.1855 19.9455 11.052 19.707C11.001 19.602 10.9583 19.488 10.9193 19.3748C10.7393 18.855 10.6493 18.2108 10.7122 17.391C10.728 17.211 10.7513 17.0228 10.7782 16.8202V16.812C10.794 16.719 10.8135 16.617 10.8293 16.512C10.8682 16.305 10.9155 16.0942 10.9703 15.867V15.8588L11.0175 15.6908L11.0602 15.5198V15.5115C11.1892 15.0427 11.3565 14.5388 11.571 13.9913C11.622 13.854 11.6813 13.7145 11.739 13.5735C11.7863 13.4565 11.8372 13.3433 11.8883 13.2262L12.165 13.2105L12.1642 13.2188Z" fill="black"/>
</g>
<defs>
<clipPath id="clip0_201_57210">
<rect width="24" height="24" fill="white"/>
</clipPath>
</defs>
</svg>
