<svg width="24" height="24" viewBox="0 0 24 24" fill="none" xmlns="http://www.w3.org/2000/svg">
<g clip-path="url(#clip0_201_57494)">
<path d="M13.3118 12C13.3118 5.71876 8.2185 0.624756 1.938 0.624756H0V5.62501H1.938C5.46075 5.62501 8.31225 8.48026 8.31225 12C8.31225 15.5198 5.4615 18.375 1.938 18.375H0V23.3753H1.938C8.21925 23.3753 13.3118 18.2813 13.3118 12ZM24 7.56226C24 3.73051 20.895 0.625506 17.0618 0.625506H9.0615C11.0302 1.85926 12.6442 3.58276 13.7452 5.62576H17.061C18.132 5.62576 18.999 6.49275 18.999 7.563C18.999 8.634 18.132 9.50101 17.061 9.50101H15.1238C15.4365 11.1533 15.4365 12.849 15.1238 14.5013H17.061C18.1283 14.5013 18.999 15.3683 18.999 16.4393C18.999 17.5133 18.132 18.3803 17.061 18.3803H13.7452C12.6442 20.4233 11.0302 22.146 9.0615 23.3805H17.0618C18.684 23.3805 20.2537 22.8105 21.4995 21.7748C24.4403 19.3215 24.8475 14.9505 22.3942 12.006C23.433 10.7558 23.9993 9.18601 23.9993 7.56376L24 7.56226Z" fill="black"/>
</g>
<defs>
<clipPath id="clip0_201_57494">
<rect width="24" height="24" fill="white"/>
</clipPath>
</defs>
</svg>
