<svg width="24" height="24" viewBox="0 0 24 24" fill="none" xmlns="http://www.w3.org/2000/svg">
<g clip-path="url(#clip0_201_57216)">
<path d="M15.8243 0C15.684 0 15.543 0.039 15.4223 0.11325C15.0473 0.336 14.4225 0.96525 13.6763 1.8795L13.5203 2.07075C13.32 2.31675 13.113 2.583 12.9023 2.8635C12.1883 3.8205 11.5163 4.81275 10.887 5.83275L10.8668 5.868L10.8195 5.94225C10.2068 6.942 9.63676 7.974 9.11251 9.024C8.69851 9.85575 8.33176 10.7078 8.01151 11.5793C7.92151 11.829 7.83976 12.0713 7.76176 12.306C7.69876 12.5048 7.64101 12.7043 7.58551 12.903C7.45276 13.368 7.33576 13.8368 7.24126 14.3018L7.22926 14.364C7.11601 14.9228 7.04251 15.4853 6.99526 16.056L6.99151 16.1138C6.71476 15.6645 5.96476 15.228 5.96476 15.231C6.50401 16.0088 6.90976 16.782 6.96901 17.5402C6.68401 17.5995 6.28876 17.5133 5.83201 17.3453C6.30901 17.7825 6.66376 17.9032 6.80101 17.9355C6.36676 17.9625 5.91376 18.2633 5.45701 18.6068C6.12526 18.3337 6.66376 18.225 7.05076 18.3135C6.39451 20.1922 5.77651 22.0912 5.20651 24.0015C5.38276 23.9505 5.51926 23.8177 5.56951 23.6467C5.68351 23.2785 6.40951 20.8605 7.55026 17.682L7.64701 17.4083L7.67476 17.334C7.79551 17.0017 7.92076 16.662 8.04976 16.314L8.13601 16.0763L8.13976 16.0725C8.25676 15.7568 8.37751 15.4327 8.50276 15.1073L8.55751 14.9715L8.60776 14.8342L8.65051 14.7323L8.60776 14.838L8.55751 14.9708L8.50276 15.1065C8.37751 15.4313 8.25676 15.7553 8.13976 16.0718L8.24476 16.2787L8.33851 16.2675L8.35051 16.2397C8.50276 15.822 8.65051 15.4155 8.80351 15.0217L8.80726 15.006C8.65051 15.4162 8.49826 15.8302 8.35051 16.2397L8.33851 16.2675L8.27176 16.4505C8.15476 16.7745 8.03401 17.1068 7.91701 17.4427L7.91326 17.4585L7.86226 17.6033C7.78051 17.829 7.71001 18.036 7.55401 18.501C7.81501 18.6217 8.02576 18.939 8.22601 19.2938C8.20576 18.915 8.03776 18.5625 7.76101 18.306C9.05776 18.3638 10.1753 18.036 10.7528 17.091C10.8038 17.0047 10.851 16.9147 10.8938 16.821C10.632 17.1532 10.3035 17.2942 9.69001 17.259C10.593 16.8562 11.046 16.47 11.4443 15.825C11.5463 15.6652 11.64 15.4973 11.7263 15.3248C10.9373 16.134 10.026 16.3635 9.06151 16.1887L9.01951 16.1805C9.88276 16.0747 11.0303 15.4305 11.7728 14.6332C12.1125 14.2665 12.426 13.8322 12.711 13.3282C12.9263 12.9495 13.125 12.531 13.3163 12.0705C13.4843 11.6648 13.6455 11.2275 13.797 10.7542C13.5428 10.8833 13.2698 10.9695 12.9878 11.0122C12.9405 11.0205 12.8948 11.0272 12.852 11.0355L12.855 11.0317C12.8978 11.028 12.945 11.0205 12.9878 11.013C13.0305 11.0055 13.0778 10.9973 13.1205 10.9853L12.9878 11.013L12.855 11.0317C13.6598 10.7235 14.1638 10.1257 14.5313 9.396C14.238 9.59925 13.9103 9.73875 13.566 9.82125C13.5083 9.83325 13.4528 9.84525 13.395 9.8535L13.3523 9.8565H13.359L13.395 9.8535C13.4453 9.8415 13.4963 9.83325 13.551 9.82125L13.5623 9.8175L13.5473 9.82125L13.3553 9.8565C13.6335 9.7395 13.8675 9.60675 14.07 9.4545C14.2193 9.3375 14.3588 9.2085 14.4803 9.06375C14.562 8.97075 14.637 8.865 14.7075 8.7555L14.7705 8.64975L14.8485 8.4975C14.9843 8.22075 15.1095 7.93575 15.2153 7.64625L15.246 7.56C15.273 7.47375 15.3008 7.39575 15.3158 7.329C15.3435 7.23075 15.3585 7.15275 15.3705 7.095C15.3398 7.11825 15.3083 7.14225 15.2768 7.15725C15.0308 7.3065 14.6168 7.4355 14.2808 7.497L14.1795 7.509L11.9138 7.75875L11.9018 7.782L11.8238 7.94175L11.5898 8.43075C11.6678 8.26275 11.7458 8.0985 11.8238 7.94175L11.9018 7.782C11.9055 7.77375 11.91 7.767 11.9138 7.75875L11.8275 7.767L11.7615 7.63425C11.6325 7.8885 11.5073 8.142 11.3828 8.39625L11.1795 8.8215C10.8008 9.61875 10.4378 10.4198 10.0898 11.2282C9.71476 12.0915 9.35476 12.9585 9.00751 13.8292L9.09376 13.614C9.41401 12.813 9.74551 12.0173 10.0898 11.2282C10.4378 10.419 10.8008 9.61425 11.1795 8.8215L11.3828 8.39625C11.5035 8.15325 11.6205 7.911 11.742 7.67325L11.7623 7.63425C11.9535 7.2555 12.1455 6.88425 12.3405 6.5175C12.5513 6.1305 12.7628 5.74725 12.9735 5.37675C13.1918 5.00175 13.4145 4.62675 13.6455 4.26L13.6883 4.19325C13.9103 3.84225 14.1375 3.498 14.3633 3.174C14.8245 2.50575 15.3323 1.869 15.8873 1.275L15.828 1.338C15.6683 1.51425 15.1838 2.076 14.4533 3.201C15.156 3.16575 16.2383 3.02175 17.1173 2.86875C17.3835 1.3995 16.863 0.729 16.863 0.729C16.863 0.729 16.4183 0.00975 15.828 0.00225L15.8243 0ZM14.1803 7.50825C14.8403 7.203 15.1335 6.93 15.4223 6.531C15.4965 6.42225 15.5745 6.309 15.648 6.18825C15.8828 5.8245 16.1093 5.42625 16.3118 5.02725C16.512 4.641 16.6838 4.26225 16.8158 3.918C16.8945 3.723 16.9605 3.51975 17.0198 3.31575C17.0588 3.15975 17.094 3.012 17.1165 2.8665C16.2338 3.0195 15.1515 3.1635 14.4488 3.19425C14.2065 3.5655 13.977 3.9405 13.7535 4.31925C13.5503 4.6635 13.3313 5.04225 13.1018 5.45625C12.6878 6.21 12.2888 6.9795 11.91 7.7535L14.1758 7.5075L14.1803 7.50825ZM17.805 2.199V2.26575H17.961V2.703H18.0353V2.26575H18.1913V2.199H17.805ZM18.27 2.199V2.703H18.336V2.30475L18.5078 2.652H18.555L18.7268 2.30475V2.703H18.789V2.199H18.7028L18.531 2.55075L18.3548 2.199H18.27ZM14.262 7.5L14.16 7.51575L14.262 7.4955V7.5ZM14.172 7.512H14.1638H14.172ZM11.43 8.754L11.3243 8.97975L11.1915 9.2655C10.8758 9.95625 10.5668 10.6515 10.2705 11.3512C9.92626 12.1635 9.59476 12.9765 9.27376 13.7963C9.12601 14.175 8.97376 14.5613 8.82451 14.9603L8.81626 14.976C9.53551 13.0417 10.3245 11.136 11.1915 9.26475L11.3243 8.979L11.43 8.754Z" fill="black"/>
</g>
<defs>
<clipPath id="clip0_201_57216">
<rect width="24" height="24" fill="white"/>
</clipPath>
</defs>
</svg>
