<svg width="24" height="24" viewBox="0 0 24 24" fill="none" xmlns="http://www.w3.org/2000/svg">
<g clip-path="url(#clip0_201_58746)">
<path d="M23.9788 11.6453C23.9788 11.6453 24.5301 0 11.7328 0C0.416819 0 0.0605688 11.172 0.0605688 11.172C0.0605688 11.172 -1.60368 24 11.9946 24C25.0378 24 23.9788 11.6453 23.9788 11.6453ZM8.15532 7.57425C10.5546 6.105 13.6243 7.00425 14.7726 9.21525C14.9916 9.633 15.0193 10.2773 14.8828 10.719C14.4021 12.234 13.2808 13.0822 11.7336 13.4452C12.1903 13.0553 12.5548 12.6135 12.6673 12.0045C12.7881 11.4188 12.6553 10.8097 12.3043 10.3245C11.7411 9.55575 10.7376 9.24675 9.83907 9.5745C8.89032 9.93825 8.36982 10.8053 8.46432 11.8717C8.55057 12.8595 9.30057 13.5045 10.7061 13.7467C10.4953 13.8555 10.3348 13.9388 10.1788 14.028C9.53382 14.3798 8.97207 14.868 8.53407 15.4583C8.39007 15.6495 8.29182 15.6652 8.07282 15.5325C5.24907 13.8067 5.06457 9.4665 8.15082 7.57575L8.15532 7.57425ZM6.03807 18.258C5.58507 18.375 5.14407 18.543 4.67907 18.6952C4.90482 17.1645 6.70182 15.7545 8.21832 15.9142C7.78032 16.5203 7.52232 17.238 7.47957 17.9842C6.97632 18.078 6.49932 18.141 6.03882 18.258H6.03807ZM15.7018 3.30075C16.1511 3.31575 16.6011 3.309 17.0496 3.3195C17.1628 3.32775 17.2716 3.3435 17.3818 3.36675C17.2798 3.51975 17.1666 3.6675 17.0421 3.801C16.8823 3.94875 16.7023 4.098 16.4721 3.87075C16.4128 3.816 16.2838 3.828 16.1871 3.8235C15.7408 3.81975 15.2923 3.80475 14.8468 3.8235C14.4598 3.8355 14.0728 3.8745 13.6941 3.9405C13.6198 3.9525 13.5148 4.19025 13.5463 4.2765C13.6243 4.4835 13.7376 4.7145 13.9056 4.84725C14.5266 5.3355 15.1836 5.772 15.8083 6.25725C16.4091 6.729 16.9723 7.2495 17.3151 7.9605C17.7613 8.88675 17.7763 9.85875 17.5851 10.8352C17.2611 12.4642 16.4368 13.815 15.1011 14.796C14.5611 15.1898 13.8943 15.417 13.2801 15.6982C12.7371 15.948 12.1791 16.1632 11.6361 16.413C10.6551 16.8577 10.1038 17.9212 10.2651 19.026C10.4128 20.0422 11.3083 20.8897 12.3231 21.0653C13.5501 21.2722 14.8108 20.4795 15.1078 19.233C15.4438 17.8387 14.6871 16.5893 13.2651 16.2098L13.0108 16.1437C13.3896 15.9757 13.7181 15.8535 14.0218 15.687C14.5498 15.3938 15.0688 15.0848 15.5766 14.7607C15.7288 14.6625 15.8106 14.6625 15.9396 14.7758C16.9168 15.6195 17.4988 16.6747 17.6623 17.964C17.9323 20.097 16.9243 22.0582 15.0186 23.061C12.0688 24.6157 8.45982 22.8472 7.80732 19.5773C7.25232 16.7805 9.22557 14.2373 11.6031 13.749C12.6268 13.5383 13.5643 13.1122 14.2911 12.3232C14.7598 11.8155 14.9863 11.382 15.0643 11.1833C15.2091 10.815 15.2833 10.4213 15.2833 10.026C15.2683 9.68325 15.1866 9.34725 15.0456 9.03375C14.7996 8.4675 13.8463 7.5645 13.6116 7.37775L11.3698 5.6235C11.2918 5.5575 11.2018 5.5605 11.0106 5.57625C10.7796 5.592 10.1938 5.6235 9.94332 5.5575C10.1466 5.40075 10.7016 5.17875 10.9431 4.99875C10.2171 4.50675 9.38907 4.683 8.62707 4.5375C8.80332 4.20975 9.67407 3.70575 10.1698 3.65025C10.1391 3.3735 10.0956 3.1005 10.0326 2.826C10.0056 2.71725 9.88032 2.607 9.77082 2.54475C9.50982 2.38875 9.22782 2.2635 8.92782 2.1105C9.19707 1.93575 9.51357 1.8375 9.83382 1.82925C10.1391 1.81725 10.4428 1.8495 10.7398 1.91925C11.2828 2.04 11.7126 1.95825 12.1431 1.59525C11.8033 1.458 11.4673 1.3335 11.1388 1.185C10.8141 1.04025 10.5021 0.876 10.1968 0.69225C11.0451 0.80925 11.8648 1.13025 12.7356 1.01325L12.7596 0.8955L10.7398 0.4275C11.9428 0.3135 13.0641 0.2985 14.1231 0.81375C14.4238 0.9585 14.7321 1.08 15.0208 1.2435C15.1618 1.32525 15.2556 1.48575 15.3688 1.61025C15.4588 1.7085 15.5331 1.84125 15.6456 1.899C16.0678 2.12625 16.5328 2.13375 17.0098 2.12175L17.0211 1.962C17.5018 2.11425 18.0373 2.66475 18.0373 3.06675C17.2641 3.06675 16.4863 3.063 15.7131 3.0705C15.6313 3.0705 15.5488 3.1335 15.4671 3.16425C15.5451 3.2115 15.6193 3.29325 15.7011 3.297L15.7018 3.30075ZM14.7021 2.15175C14.6323 2.1945 14.6241 2.289 14.6871 2.34375C14.7373 2.43 14.8468 2.457 14.9331 2.406C15.0073 2.37075 15.0808 2.328 15.1708 2.28075C15.0966 2.223 15.0381 2.1675 14.9788 2.121C14.8738 2.031 14.7876 2.09025 14.7021 2.15175Z" fill="black"/>
</g>
<defs>
<clipPath id="clip0_201_58746">
<rect width="24" height="24" fill="white"/>
</clipPath>
</defs>
</svg>
