<svg width="24" height="24" viewBox="0 0 24 24" fill="none" xmlns="http://www.w3.org/2000/svg">
<g clip-path="url(#clip0_201_58656)">
<path d="M11.9685 0.00744855C5.80797 0.00369855 0.647967 4.6717 0.0352173 10.8007H8.37147V8.99995C8.37147 8.67145 8.64072 8.4022 8.96922 8.4022H14.9692C15.3015 8.4022 15.567 8.67145 15.567 9.0037V14.9999C15.567 15.3284 15.3015 15.5977 14.9692 15.5977H8.96922C8.63697 15.5977 8.37147 15.3284 8.37147 14.9999V13.1992H0.0352173C0.698967 19.7932 6.57822 24.5977 13.1677 23.9339C19.7617 23.2739 24.5662 17.3909 23.9025 10.8014C23.289 4.67245 18.129 0.00819855 11.9692 0.00819855L11.9685 0.00744855Z" fill="black"/>
</g>
<defs>
<clipPath id="clip0_201_58656">
<rect width="24" height="24" fill="white"/>
</clipPath>
</defs>
</svg>
