<svg width="24" height="24" viewBox="0 0 24 24" fill="none" xmlns="http://www.w3.org/2000/svg">
<g clip-path="url(#clip0_201_57234)">
<path d="M11.391 0.605242C10.3755 3.08999 9.76575 4.71824 8.637 7.13249C9.3285 7.86674 10.1797 8.72249 11.559 9.68699C10.0747 9.07349 9.063 8.46074 8.30475 7.82399C6.8595 10.8435 4.59375 15.1365 0 23.394C3.6135 21.3082 6.41025 20.0227 9.0195 19.5307C8.91 19.05 8.844 18.531 8.84775 17.9835L8.8515 17.8702C8.91 15.5535 10.113 13.7767 11.5387 13.8975C12.9645 14.0182 14.0737 15.9915 14.019 18.3075C14.007 18.741 13.9567 19.1587 13.8705 19.5495C16.4527 20.0535 19.2218 21.3345 22.7843 23.3932C22.0807 22.1002 21.456 20.9325 20.8545 19.8232C19.9132 19.0927 18.9285 18.1395 16.9245 17.1082C18.3037 17.4675 19.2878 17.8815 20.0573 18.3427C13.9672 7.01099 13.479 5.50274 11.3895 0.604492L11.391 0.605242ZM22.8983 21.3592V20.7382H22.6635V20.652H23.226V20.7382H22.9913V21.3592H22.8975H22.8983ZM23.3243 21.3592V20.652H23.4653L23.6332 21.1522C23.649 21.1995 23.6602 21.234 23.6647 21.258C23.6722 21.2347 23.688 21.1957 23.7038 21.1447L23.8717 20.6527H24.0007V21.36H23.9108V20.766L23.7038 21.36H23.6175L23.4142 20.7585V21.36H23.3243V21.3592Z" fill="black"/>
</g>
<defs>
<clipPath id="clip0_201_57234">
<rect width="24" height="24" fill="white"/>
</clipPath>
</defs>
</svg>
