<svg width="24" height="24" viewBox="0 0 24 24" fill="none" xmlns="http://www.w3.org/2000/svg">
<g clip-path="url(#clip0_201_57264)">
<path d="M5.199 0C4.64775 0 4.19925 0.42975 4.19925 0.957V11.4998H19.8015V0.957C19.8015 0.42975 19.3523 0 18.8018 0L5.199 0ZM8.39775 2.301H10.8007C11.133 2.301 11.3977 2.559 11.3977 2.87475C11.3947 3.19875 11.1248 3.45675 10.8007 3.4485H8.39775C8.07375 3.45675 7.809 3.19875 7.80075 2.87475C7.80075 2.559 8.07 2.301 8.39775 2.301ZM1.062 12C0.477 12 0 12.4493 0 12.9998V22.9995C0 23.5508 0.477 23.9993 1.062 23.9993H8.80125C8.24625 23.9993 7.8015 23.55 7.8015 22.9995V14.9993H4.8015C4.46925 14.9993 4.19925 14.7292 4.19925 14.397C4.19925 14.0647 4.46925 13.8 4.8015 13.8H7.8015V11.9992L1.062 12ZM23.0002 12H8.301V23.0002C8.301 23.5515 8.77725 24 9.363 24H23.0002C23.5515 24 24 23.5508 24 23.0002V13.0005C24 12.4492 23.5508 12.0007 23.0002 12.0007V12ZM13.1993 22.1993H9.60225V21H13.1993V22.1993ZM15.6022 20.3978H9.60225V19.1985H15.6022V20.3978ZM15 15H12.6022C11.8012 15 11.8012 13.8007 12.6022 13.8007H15C15.7463 13.8517 15.7463 14.9445 15 15Z" fill="black"/>
</g>
<defs>
<clipPath id="clip0_201_57264">
<rect width="24" height="24" fill="white"/>
</clipPath>
</defs>
</svg>
