<svg width="24" height="24" viewBox="0 0 24 24" fill="none" xmlns="http://www.w3.org/2000/svg">
<path d="M24 18.9999H0C0.2385 16.8279 0.996 14.7459 2.211 12.9294C3.14475 11.4879 4.39425 10.2811 5.871 9.39837L6.28125 9.17187L4.2615 5.76162C4.113 5.51937 4.191 5.20662 4.4295 5.05812C4.668 4.91712 4.98 4.99587 5.121 5.23812L7.19925 8.73837C8.73825 8.12487 10.383 7.82037 12.039 7.83987C13.668 7.82037 15.2812 8.12487 16.7887 8.73837L18.8587 5.23812C19.0035 4.99587 19.32 4.91787 19.5578 5.07012C19.7962 5.21862 19.866 5.53137 19.7183 5.76912L17.6985 9.19062L18.1987 9.46812C19.6672 10.3861 20.91 11.6206 21.828 13.0891C22.9762 14.8779 23.7188 16.8939 24 18.9991V18.9999ZM16.5 14.5194C16.5 15.0744 16.9492 15.5191 17.4998 15.5191C18.0503 15.5191 18.4995 15.0736 18.4995 14.5194C18.4995 13.9689 18.0503 13.5196 17.4998 13.5196C16.9492 13.5196 16.5 13.9689 16.5 14.5194ZM5.49975 14.5194C5.49975 15.0744 5.949 15.5191 6.4995 15.5191C7.05 15.5191 7.49925 15.0736 7.49925 14.5194C7.49925 13.9689 7.05 13.5196 6.4995 13.5196C5.949 13.5196 5.49975 13.9689 5.49975 14.5194Z" fill="black"/>
</svg>
