<svg width="24" height="24" viewBox="0 0 24 24" fill="none" xmlns="http://www.w3.org/2000/svg">
<g clip-path="url(#clip0_201_58270)">
<path d="M12.9022 1.90654C9.84749 1.88329 6.94874 3.24604 5.02349 5.61379C4.92599 5.73079 4.83224 5.84854 4.73849 5.96929H4.74224C4.97699 5.76979 5.21474 5.62129 5.46074 5.52379L5.51924 5.50054C5.81624 5.38729 6.12074 5.35204 6.41774 5.41054C7.85924 5.69929 8.60924 8.01979 8.09324 10.5938C7.57724 13.1678 5.99174 15.0195 4.55399 14.7345C3.54224 14.5313 2.87399 13.3283 2.74124 11.742V11.7345V11.7893C2.73749 11.922 2.73749 12.0548 2.74124 12.1875V12.3203C2.74499 12.4688 2.75699 12.6173 2.76449 12.762C2.77199 12.8288 2.77649 12.8985 2.78399 12.9653C2.89724 14.1608 3.22124 15.3248 3.74474 16.407C3.80699 16.5323 3.77624 16.6845 3.66674 16.77L3.38924 16.9965C3.10424 17.2313 2.99099 17.6138 3.10049 17.9655C3.10049 17.973 3.10424 17.9775 3.10799 17.9813C3.12374 18.0323 3.14324 18.0788 3.16649 18.126L3.21749 18.087L3.44399 17.9115C3.72149 17.7008 4.03799 18.1185 3.76049 18.3293L3.51824 18.513L3.47924 18.54L4.65524 19.989C4.97549 20.376 5.54174 20.4345 5.93249 20.1218L6.19049 19.911C6.29999 19.821 6.45599 19.821 6.56549 19.911C8.41724 21.384 10.7257 22.1573 13.0927 22.0905C15.093 22.0433 17.0302 21.3953 18.663 20.235C18.78 20.1533 18.9405 20.1645 19.0417 20.262L19.206 20.418C19.53 20.7225 20.0302 20.7503 20.3857 20.4765L20.382 20.4728L20.1712 20.2733C19.9365 20.0348 20.277 19.6755 20.5305 19.8945L20.7532 20.1015L22.0147 18.777C22.3582 18.414 22.3432 17.8395 21.9795 17.496L21.7177 17.2463C21.6202 17.1525 21.597 17.004 21.663 16.887C22.7917 14.856 23.1787 12.5003 22.7685 10.215C23.0692 9.93754 23.6197 9.39079 23.835 8.92204C24.0652 8.42179 24.1282 7.90279 23.5147 8.12929C23.0385 8.30929 22.671 8.42254 22.2255 8.32054C20.8117 4.72654 17.382 2.12929 13.3777 1.92229C13.2172 1.91029 13.0612 1.90654 12.9015 1.90654H12.9022ZM2.26574 6.24604C1.36724 6.26179 0.792741 7.20304 1.18349 8.01154C0.362991 8.04304 -0.199509 8.85529 0.0659908 9.63229C0.327741 10.4093 1.26524 10.7183 1.93724 10.2458C2.11274 10.1205 2.24174 9.95704 2.33174 9.77704C2.51924 10.1168 2.79299 10.4018 3.10874 10.6013C3.10499 10.8008 3.10874 10.9995 3.12824 11.199C3.22949 12.4298 3.74549 13.359 4.52699 13.5158C5.63999 13.7385 6.86699 12.3045 7.26524 10.3163C7.66349 8.32429 7.08524 6.53104 5.97224 6.30829C5.53499 6.22204 5.08574 6.39004 4.67174 6.74179C4.22249 7.12429 3.82049 7.73029 3.53099 8.47204C3.52349 8.46829 3.51149 8.46829 3.50399 8.46454C3.36299 8.42554 3.28949 8.33179 3.19124 8.31229C3.92549 7.51504 3.34724 6.22654 2.26574 6.24604ZM5.12924 7.49254C5.18024 7.49254 5.23499 7.49629 5.28524 7.50829C6.01199 7.64929 6.39074 8.81704 6.13274 10.1138C5.87099 11.4105 5.07449 12.3443 4.34774 12.1995C3.85574 12.102 3.52349 11.5275 3.44174 10.7663C3.62549 10.8368 3.81299 10.8795 4.00424 10.887C4.53149 10.9103 4.87499 10.7348 5.14499 10.3755C5.48849 9.91054 5.22674 8.62129 4.76999 8.45329C4.41449 8.32429 4.20374 8.48029 3.88724 8.50429C4.04774 8.20729 4.23524 7.96129 4.44224 7.78579C4.66124 7.60204 4.89524 7.49254 5.12999 7.48879L5.12924 7.49254Z" fill="black"/>
</g>
<defs>
<clipPath id="clip0_201_58270">
<rect width="24" height="24" fill="white"/>
</clipPath>
</defs>
</svg>
