<svg width="24" height="24" viewBox="0 0 24 24" fill="none" xmlns="http://www.w3.org/2000/svg">
<g clip-path="url(#clip0_201_57608)">
<path d="M10.5 5.8013C13.1992 5.19905 15.801 6.30155 17.301 8.30105L5.60174 11.0003C5.99999 8.50055 7.89749 6.3983 10.5 5.8013ZM17.3977 15.6023C16.5 16.8983 15.102 17.8981 13.5 18.1996C10.8007 18.8018 8.19899 17.6993 6.69899 15.6023L18.3982 13.0006L20.301 12.6023L24 11.8013C24 11.0003 23.898 10.1993 23.6992 9.5003C22.1992 3.00005 15.801 -0.897697 9.30149 0.602303C2.80199 2.1023 -1.19851 8.39855 0.301492 14.6993C1.80149 21.0001 8.19974 25.0006 14.6992 23.5006C18.5002 22.6028 21.5002 20.1023 22.8982 16.8983C23.0002 16.8016 17.3985 15.6023 17.3985 15.6023H17.3977Z" fill="black"/>
</g>
<defs>
<clipPath id="clip0_201_57608">
<rect width="24" height="24" fill="white"/>
</clipPath>
</defs>
</svg>
