<svg width="24" height="24" viewBox="0 0 24 24" fill="none" xmlns="http://www.w3.org/2000/svg">
<g clip-path="url(#clip0_201_57718)">
<path d="M2.96925 11.5822H4.242V7.7625C4.242 5.70375 5.05875 3.7305 6.516 2.27325C7.97325 0.816 9.945 0 12.0038 0C14.0618 0 16.0388 0.816 17.496 2.27325C18.9488 3.7305 19.77 5.703 19.7663 7.7625V11.5478C19.7505 11.556 19.7303 11.5747 19.7115 11.583L19.6913 11.6032H19.6845L19.6643 11.622H19.6373L19.617 11.6423H19.5983L19.578 11.649H19.5698L19.5615 11.661L19.5503 11.6693H19.542L19.53 11.6775L19.5218 11.6895L19.515 11.6962L19.503 11.7045L19.476 11.7248L19.4558 11.736L19.4288 11.7563L19.3898 11.772L19.362 11.7907L19.347 11.8028L19.335 11.811L19.308 11.8298L19.2878 11.838L19.2405 11.865L19.2218 11.877L19.206 11.8853L19.1873 11.8973H19.179L19.1198 11.9242H19.101C19.0853 11.9325 19.065 11.943 19.0343 11.9595H19.026L19.0193 11.9715L18.987 11.9865L18.972 11.9985L18.9398 12.0187L18.9248 12.0255H18.9128L18.8858 12.0458L18.8655 12.054L18.8468 12.0653C18.831 12.0735 18.804 12.081 18.7838 12.093L18.765 12.1012L18.7448 12.1125L18.7095 12.1283L18.6705 12.1485L18.5768 12.1875L18.558 12.1943L18.522 12.2145L18.5033 12.2265C16.956 12.9645 14.4833 13.7415 9.7965 14.0775C6.4335 14.3198 4.3905 15.8003 3.06975 17.5778L2.96925 11.5822ZM7.809 11.5822H16.1798V7.7625C16.1835 5.4495 14.3085 3.5745 11.9955 3.57825C9.68325 3.57825 7.80825 5.4495 7.80825 7.7625L7.809 11.5822ZM21.0308 13.0433V24H5.5695C7.2765 23.055 8.53875 23.148 10.6478 23.2147C13.512 23.3085 16.6755 22.1085 18.2295 20.5155C19.7843 18.9255 18.0938 20.1405 16.3313 20.5897C14.5688 21.039 11.1593 21.09 8.8785 20.4877C16.0508 20.5815 18.8513 18.27 20.4338 16.1798C22.0155 14.1015 19.7498 15.816 18.2768 16.5345C16.809 17.2575 14.2418 17.7653 11.4135 17.3903C15.6833 17.3783 18.9338 15.2452 21.0225 13.0425L21.0308 13.0433Z" fill="black"/>
</g>
<defs>
<clipPath id="clip0_201_57718">
<rect width="24" height="24" fill="white"/>
</clipPath>
</defs>
</svg>
