<svg width="24" height="24" viewBox="0 0 24 24" fill="none" xmlns="http://www.w3.org/2000/svg">
<g clip-path="url(#clip0_201_57368)">
<path d="M19.5878 10.971C19.5878 10.971 19.9043 12.5213 19.9755 12.846H18.5843C18.7215 12.4748 19.251 11.0333 19.251 11.0333C19.2428 11.046 19.3883 10.6538 19.4715 10.4123L19.5878 10.971ZM24 4.66651V19.3335C24 20.4375 23.1045 21.3338 21.9998 21.3338H1.99952C0.895517 21.3338 -0.000732422 20.4383 -0.000732422 19.3335V4.66651C-0.000732422 3.56251 0.894767 2.66626 1.99952 2.66626H21.9998C23.1038 2.66626 24 3.56176 24 4.66651ZM6.35402 15.1335L8.98727 8.66701H7.21652L5.57927 13.0838L5.40002 12.1883L4.81652 9.21301C4.72052 8.80051 4.42502 8.68351 4.05827 8.66701H1.36277L1.33352 8.79601C1.99202 8.96251 2.57927 9.20401 3.09152 9.50851L4.58327 15.1335H6.35402ZM10.2878 15.1418L11.3378 8.66701H9.66302L8.61752 15.1418H10.2878ZM16.1168 13.0253C16.125 12.288 15.675 11.7255 14.7128 11.2628C14.1255 10.9665 13.767 10.767 13.767 10.4625C13.7753 10.1873 14.0715 9.90376 14.7293 9.90376C15.2753 9.89101 15.675 10.0208 15.975 10.1498L16.125 10.2203L16.3545 8.82001C16.0253 8.69101 15.5003 8.54476 14.8545 8.54476C13.2 8.54476 12.0375 9.42826 12.0293 10.686C12.0165 11.6153 12.8625 12.132 13.4963 12.444C14.142 12.7605 14.3633 12.969 14.3633 13.248C14.355 13.6815 13.8383 13.881 13.359 13.881C12.6923 13.881 12.3338 13.7768 11.7878 13.5353L11.5673 13.431L11.334 14.8853C11.7255 15.0645 12.4508 15.2228 13.2008 15.231C14.9588 15.2348 16.1048 14.364 16.1175 13.023L16.1168 13.0253ZM21.9998 15.1418L20.6498 8.66701H19.3538C18.954 8.66701 18.6495 8.78401 18.4785 9.20476L15.9908 15.1425H17.7488C17.7488 15.1425 18.036 14.3423 18.099 14.172H20.2493C20.2995 14.4015 20.4495 15.1425 20.4495 15.1425L21.9998 15.1418Z" fill="black"/>
</g>
<defs>
<clipPath id="clip0_201_57368">
<rect width="24" height="24" fill="white"/>
</clipPath>
</defs>
</svg>
