<svg width="24" height="24" viewBox="0 0 24 24" fill="none" xmlns="http://www.w3.org/2000/svg">
<g clip-path="url(#clip0_201_58292)">
<path d="M12 11.9963C11.2732 11.9963 10.6838 11.406 10.6838 10.68C10.6838 9.95325 11.2725 9.363 12 9.363C12.7275 9.363 13.3162 9.95325 13.3162 10.68C13.3162 11.406 12.7275 11.9963 12 11.9963ZM14.9137 11.9767C14.9137 9.14775 13.809 6.5775 12 4.68C10.191 6.57825 9.08625 9.14775 9.08625 11.9767C9.08625 13.2727 9.3165 14.5117 9.7425 15.66C9.12525 16.5592 8.67225 17.82 8.46975 19.2728C9.1095 18.5077 9.89175 17.9685 10.7625 17.6835C11.1255 18.2377 11.5395 18.7808 12.0007 19.2577C12.462 18.7658 12.876 18.2377 13.239 17.6677C14.1098 17.9377 14.892 18.492 15.528 19.242C15.3293 17.7892 14.8763 16.527 14.2552 15.6293C14.6812 14.4735 14.9152 13.242 14.9152 11.9385L14.9137 11.9767ZM12 21.9998C6.477 21.9998 2.00025 17.523 2.00025 12C2.00025 6.477 6.477 2.00025 12 2.00025C17.523 2.00025 21.9998 6.477 21.9998 12C21.9998 17.523 17.523 21.9998 12 21.9998ZM12 0C5.37075 0 0 5.37075 0 12C0 18.6292 5.37075 24 12 24C18.6292 24 24 18.6292 24 12C24 5.37075 18.6292 0 12 0Z" fill="black"/>
</g>
<defs>
<clipPath id="clip0_201_58292">
<rect width="24" height="24" fill="white"/>
</clipPath>
</defs>
</svg>
