<svg width="24" height="24" viewBox="0 0 24 24" fill="none" xmlns="http://www.w3.org/2000/svg">
<g clip-path="url(#clip0_201_58750)">
<path d="M14.3363 12.4335C13.7813 12.582 13.719 12.6135 13.1723 12.7695C12.5828 12.4335 12.063 12.2423 11.5748 12.3045C11.6333 12 11.727 11.781 11.8208 11.5072C12.8558 11.355 13.6253 11.9055 14.3363 12.4327V12.4335ZM19.6448 19.6327C19.0665 20.211 18.426 20.7188 17.7345 21.1522H17.7308L14.0273 16.539L17.0978 16.875C17.0978 16.875 18.5708 17.0273 18.906 16.875C19.2143 16.758 20.8673 14.4255 20.8673 14.4255C20.8673 14.4255 16.1093 11.418 14.4848 9.76125C14.6723 6.96825 14.2703 3.2535 14.2703 3.2805C13.0785 4.476 12.9225 4.6635 11.727 5.769C11.2073 4.0815 10.9575 3.50325 10.4378 1.812C8.87103 3.10125 7.67628 5.277 6.81678 7.82775C6.62553 8.04225 6.44178 8.26125 6.26628 8.484C6.15678 8.64 6.03603 8.79675 5.92278 8.96025C5.69253 9.28425 5.47353 9.636 5.26278 9.9915C5.11053 10.2495 4.96203 10.5112 4.82103 10.7805C4.75878 10.89 4.69578 11.0107 4.63353 11.1285C3.72303 12.9173 2.95803 14.9175 2.29728 16.734C1.57878 15.2572 1.20378 13.6402 1.20378 11.9992C1.20378 9.13575 2.34453 6.38625 4.36803 4.35825C6.39528 2.33475 9.13728 1.19775 12.0008 1.19775C14.868 1.19775 17.6138 2.33475 19.6418 4.35825C21.6653 6.3855 22.7978 9.13575 22.7978 11.9992C22.7978 14.859 21.6653 17.6047 19.6455 19.632L19.6448 19.6327ZM12 6.6915C12.8318 5.8905 12.9495 5.76975 13.7498 5.004C13.812 6.5355 13.7813 7.33575 13.6875 9.20325C13.2263 8.7465 12.3083 8.16 12.3083 8.16C12.3083 8.16 12.1245 7.08975 12 6.6915ZM15.8363 22.1565C9.21903 24.5475 4.43778 20.1405 3.41853 18.6015C3.42228 18.5895 3.42228 18.5745 3.42228 18.5625C4.34403 14.676 5.48103 10.0275 7.30878 8.652C8.26203 6.996 8.53953 4.539 10.2503 3.2535C10.6838 4.539 11.3558 7.2105 11.8208 8.496C13.8443 10.5233 16.9065 13.0432 18.9653 14.0895C19.1798 14.2065 19.4535 15.0697 19.4535 15.0697L18.6293 16.1047L9.79728 15.2183C9.59403 15.1988 9.40278 15.1912 9.19953 15.1912C8.63328 15.1912 8.05128 15.2655 7.36728 15.3713C7.80078 14.301 8.71878 13.4377 8.71878 13.4377C8.71878 13.4377 7.86303 12.918 7.21503 12.8325C7.39878 12.399 7.89453 11.844 8.01228 11.6917C7.77003 11.7817 5.98878 12.5827 5.80503 13.2585C6.66078 13.4692 7.27353 13.743 7.27353 13.743C7.27353 13.743 6.32403 14.7 6.14478 16.356C6.14478 16.356 8.96478 15.9262 11.082 16.2038C11.1443 16.2307 11.1758 16.2308 11.2073 16.2308L12.309 16.2623L15.8445 22.149C15.8445 22.1528 15.8408 22.1565 15.837 22.1565H15.8363ZM20.4848 3.516C18.2348 1.266 15.1838 0.0045 12 0C8.81628 0 5.76978 1.26975 3.51528 3.516C1.27278 5.766 0.00378418 8.817 0.00378418 12.0007C0.00378418 15.1845 1.27353 18.2355 3.51528 20.4772C5.76153 22.7347 8.81628 24.0007 12 24.0007C15.1838 24.0007 18.2385 22.7347 20.4848 20.4772C22.7385 18.2347 23.9963 15.1845 23.9963 12.0007C23.9963 8.817 22.7385 5.766 20.4848 3.516Z" fill="black"/>
</g>
<defs>
<clipPath id="clip0_201_58750">
<rect width="24" height="24" fill="white"/>
</clipPath>
</defs>
</svg>
