<svg width="24" height="24" viewBox="0 0 24 24" fill="none" xmlns="http://www.w3.org/2000/svg">
<g clip-path="url(#clip0_201_58300)">
<path d="M14.3095 0.180514L15.2117 0.379264L15.9415 0.641014L16.5317 0.941014L16.981 1.26201L17.3207 1.60176L17.5705 1.94076L17.7302 2.27001L17.8285 2.57001L17.8712 2.82801L17.8915 3.03126L17.8795 3.16026V8.50027L17.8285 9.12951L17.6995 9.68077L17.4887 10.142L17.2307 10.5208L16.9307 10.829L16.603 11.0788L16.2512 11.2708L15.8995 11.411L15.5717 11.513L15.2717 11.579L15.0137 11.6218L14.803 11.642H8.82998L8.14298 11.6923L7.55273 11.8295L7.05248 12.0523L6.64223 12.3215L6.30998 12.6425L6.03998 12.9898L5.84123 13.3535L5.69198 13.7203L5.59073 14.0713L5.52098 14.3923L5.48123 14.6615L5.46248 14.8723V17.9315H3.23123L3.02123 17.8993L2.73923 17.8295L2.42348 17.7125L2.07173 17.5325L1.71248 17.2715L1.35323 16.9115L1.00148 16.4503L0.681227 15.86L0.399227 15.1303L0.192227 14.2513L0.0519766 13.2005L0.000976562 11.9705L0.0602266 10.7518L0.219977 9.71301L0.462227 8.84226L0.782477 8.13126L1.14248 7.56126L1.54073 7.12326L1.96298 6.79101L2.38073 6.55327L2.78273 6.39352L3.14273 6.29151L3.46298 6.24051L3.70073 6.23226H3.86048L3.92348 6.24051H12.0797V5.41251H6.23948L6.23123 2.66226L6.21248 2.29101L6.26348 1.95126L6.37223 1.64301L6.54023 1.36101L6.78998 1.10376L7.10273 0.872764L7.48073 0.674014L7.92248 0.490264L8.43023 0.342514L9.01223 0.221764L9.64823 0.123514L10.3592 0.0612642L11.1295 0.0222642L11.9695 0.00201416L13.2385 0.0530142L14.3095 0.180514ZM8.01248 2.16051L7.78148 2.48826L7.69973 2.89851L7.78148 3.30951L8.01248 3.64851L8.34023 3.87126L8.75048 3.96126L9.16073 3.87126L9.48848 3.64851L9.71948 3.30951L9.80123 2.89851L9.71948 2.48826L9.48848 2.16051L9.16073 1.94151L8.75048 1.85226L8.34023 1.94151L8.01248 2.16051ZM21.1022 6.10927L21.379 6.17227L21.6992 6.28927L22.051 6.46926L22.4102 6.73851L22.7702 7.09026L23.1212 7.55901L23.4415 8.14777L23.7197 8.87901L23.9305 9.76177L24.0707 10.8005L24.1217 12.0305L24.0595 13.2613L23.8982 14.3L23.6605 15.1588L23.3402 15.8698L22.9802 16.4398L22.5782 16.8898L22.1605 17.2175L21.7382 17.4598L21.34 17.6195L20.98 17.7095L20.6597 17.7605L20.422 17.7793L20.2622 17.768H12.0392V18.5878H17.8795L17.8915 21.35L17.9102 21.7093L17.8592 22.049L17.7505 22.3573L17.5787 22.646L17.329 22.8958L17.0207 23.1388L16.642 23.3375L16.2002 23.5093L15.6925 23.657L15.1105 23.786L14.4707 23.876L13.7635 23.9458L12.9895 23.9848L12.1495 23.9968L10.8805 23.9578L9.81023 23.8168L8.91098 23.618L8.18123 23.3683L7.59098 23.0675L7.14173 22.7353L6.80198 22.3955L6.55223 22.0565L6.39248 21.7273L6.29048 21.4273L6.25148 21.1775L6.23123 20.9773L6.23948 20.849V15.509L6.29048 14.8678L6.42323 14.3248L6.63023 13.868L6.89198 13.4848L7.19198 13.169L7.52123 12.9268L7.87223 12.7265L8.22023 12.5863L8.55248 12.4843L8.85323 12.4265L9.11048 12.3875L9.45023 12.3553H15.2905L15.9812 12.305L16.5715 12.1678L17.0717 11.957L17.482 11.6758L17.8112 11.3548L18.0805 11.0075L18.2837 10.6438L18.433 10.2845L18.5342 9.93651L18.6055 9.61627L18.6445 9.33502L18.6632 9.12426V6.06502H20.7535L20.8945 6.07327L21.1022 6.10927ZM14.629 20.3593L14.398 20.6915L14.32 21.1025L14.398 21.5128L14.629 21.8405L14.9612 22.0708L15.3715 22.1488L15.7817 22.0708L16.1095 21.8405L16.3405 21.5128L16.4222 21.1025L16.3405 20.6915L16.1095 20.3593L15.7817 20.129L15.3715 20.051L14.9612 20.129L14.629 20.3593Z" fill="black"/>
</g>
<defs>
<clipPath id="clip0_201_58300">
<rect width="24" height="24" fill="white"/>
</clipPath>
</defs>
</svg>
