<svg width="24" height="24" viewBox="0 0 24 24" fill="none" xmlns="http://www.w3.org/2000/svg">
<path d="M15.777 19.0432C18.8242 18.5475 20.5312 18.3127 23.9955 16.6485L23.9993 13.809C20.7728 17.0355 14.7495 18.9577 8.92875 18.9067C8.17875 18.8992 6.9795 18.9262 6.6825 18.8835C9.78375 19.3755 12.8625 19.4422 15.7762 19.044L15.777 19.0432ZM3.83625 15.7657C4.58625 15.7657 5.64075 15.75 6.2385 15.3712C6.774 14.9025 7.1685 14.2657 7.48425 13.5427L9.0315 8.84324L6.87525 8.85899L5.676 12.5227C5.4495 13.683 4.731 14.0895 4.19175 14.0032L2.84025 13.9057L2.32425 15.5857L3.83625 15.7657ZM17.1248 15.66L18.7965 10.5855H21.2377L21.7808 8.92124L15.8745 8.90924L15.3158 10.5735H16.6012L14.871 15.648L17.1285 15.66H17.1248ZM13.2698 15.6367L13.8323 13.9177H10.629L10.926 13.0072H13.5938L14.1368 11.3662H11.4765L11.7382 10.5577H14.8162L15.3862 8.84324L10.1205 8.87024L7.91325 15.6277L13.269 15.6352L13.2698 15.6367ZM14.5118 5.82824C16.3943 5.75399 18.258 5.90999 20.4802 6.10574C18.2887 5.29724 14.781 4.69574 12.1365 4.69574C7.7925 4.69574 3.492 5.75024 0.0195 7.37174L0 11.0707C3.32025 7.68374 9.11325 5.77349 14.5118 5.82824Z" fill="black"/>
</svg>
