<svg width="24" height="24" viewBox="0 0 24 24" fill="none" xmlns="http://www.w3.org/2000/svg">
<path d="M0.525024 14.5987C0.611274 14.4412 0.720024 14.4149 0.888774 14.5049C1.27877 14.7149 1.66127 14.9324 2.05877 15.1312C3.58052 15.8902 5.18327 16.4722 6.83627 16.8674C7.61777 17.0557 8.40902 17.2034 9.20627 17.3099C10.3868 17.4689 11.5778 17.5334 12.7688 17.5049C13.4213 17.4899 14.0738 17.4374 14.7225 17.3624C16.8285 17.1172 18.8903 16.5764 20.8463 15.7574C20.955 15.7124 21.0675 15.6824 21.1875 15.7124C21.4388 15.7799 21.525 16.0499 21.3413 16.2337C21.2295 16.3364 21.1088 16.4294 20.9813 16.5112C19.83 17.3024 18.5738 17.8762 17.2463 18.3074C16.3268 18.6037 15.3855 18.8242 14.43 18.9674C13.7693 19.0687 13.1033 19.1287 12.435 19.1474C12.4035 19.1497 12.372 19.1527 12.3413 19.1587H11.55C11.5193 19.1534 11.4878 19.1497 11.4563 19.1474C11.3213 19.1399 11.1863 19.1362 11.055 19.1324C10.4213 19.1039 9.79052 19.0372 9.16502 18.9337C8.13827 18.7664 7.12877 18.5039 6.15002 18.1499C4.13702 17.4239 2.28302 16.3162 0.690024 14.8874C0.622524 14.8274 0.577524 14.7449 0.525024 14.6737V14.5987ZM6.45002 4.84115L6.28877 4.86365C5.77277 4.9274 5.28227 5.1224 4.86377 5.4299C4.77377 5.49365 4.69127 5.56115 4.59752 5.6324C4.58927 5.6159 4.58477 5.5979 4.58252 5.5799C4.56752 5.47865 4.55252 5.37365 4.53377 5.2724C4.50752 5.0999 4.42127 5.0249 4.24877 5.0249H3.81752C3.55877 5.0249 3.51002 5.07365 3.51002 5.3324V13.1812C3.51002 13.2187 3.51002 13.2562 3.51377 13.2937C3.52127 13.4062 3.58877 13.4774 3.69752 13.4812C3.96002 13.4849 4.22627 13.4849 4.48877 13.4812C4.59752 13.4812 4.66502 13.4062 4.67627 13.2937C4.68002 13.2562 4.68002 13.2187 4.68002 13.1812V10.4662C4.72127 10.4999 4.74377 10.5187 4.76252 10.5374C5.43377 11.0962 6.20627 11.2799 7.05002 11.1149C7.81502 10.9649 8.34752 10.4962 8.69252 9.80615C8.95502 9.2849 9.06377 8.7299 9.07877 8.1524C9.09752 7.51115 9.03377 6.88115 8.77502 6.2849C8.45627 5.5499 7.92752 5.06615 7.12877 4.90115C7.00877 4.8749 6.88503 4.86365 6.76127 4.8449C6.65627 4.84115 6.55502 4.84115 6.45002 4.84115ZM4.67252 6.4124C4.66802 6.36215 4.69277 6.31415 4.73627 6.28865C5.25002 5.9324 5.81627 5.7449 6.44627 5.79365C7.00502 5.8349 7.46252 6.10865 7.70253 6.7649C7.84877 7.16615 7.88627 7.5824 7.88627 8.0024C7.88627 8.3924 7.85627 8.7749 7.73627 9.1499C7.48127 9.94865 6.89628 10.2524 6.13877 10.2187C5.61377 10.1962 5.15627 9.99365 4.73627 9.6974C4.69352 9.67115 4.66877 9.6239 4.67252 9.57365C4.67627 9.0449 4.67252 8.5199 4.67252 7.99115C4.67252 7.4624 4.67627 6.94115 4.67252 6.4124ZM12.3863 4.84115C12.3488 4.8449 12.3113 4.8524 12.2775 4.85615C11.9123 4.8719 11.5493 4.9229 11.1938 5.0099C10.965 5.0699 10.7438 5.1524 10.5225 5.2274C10.3875 5.2724 10.32 5.3699 10.3238 5.51615C10.3275 5.6399 10.32 5.76365 10.3238 5.8874C10.3275 6.0674 10.4025 6.11615 10.5788 6.07115C10.8713 5.99615 11.1638 5.91365 11.46 5.8574C11.9213 5.77115 12.3863 5.73365 12.855 5.8049C13.0988 5.8424 13.3275 5.91365 13.485 6.1199C13.6238 6.2999 13.6763 6.51365 13.6838 6.7349C13.695 7.04615 13.6913 7.3574 13.695 7.66865C13.6943 7.68665 13.6913 7.7039 13.6875 7.72115C13.6688 7.7174 13.6538 7.72115 13.6388 7.7174C13.245 7.6199 12.8438 7.5584 12.4388 7.53365C12.015 7.51115 11.595 7.5374 11.19 7.6799C10.7063 7.84865 10.3163 8.14115 10.0875 8.61365C9.91127 8.98115 9.88503 9.37115 9.94127 9.7649C10.0163 10.2899 10.2788 10.6949 10.7438 10.9537C11.19 11.2012 11.6738 11.2312 12.165 11.1562C12.7313 11.0699 13.2338 10.8299 13.6763 10.4662C13.6943 10.4497 13.7145 10.4362 13.7363 10.4249C13.7588 10.5674 13.7775 10.7024 13.8038 10.8374C13.8263 10.9537 13.8975 11.0287 14.0063 11.0324C14.2088 11.0362 14.415 11.0362 14.6175 11.0324C14.715 11.0317 14.7945 10.9537 14.7975 10.8562C14.8005 10.8217 14.802 10.7864 14.8013 10.7512V6.77615C14.8035 6.61415 14.7923 6.4529 14.7675 6.2924C14.6963 5.80865 14.49 5.41115 14.055 5.1524C13.8038 5.0024 13.5263 4.9274 13.2375 4.88615C13.1025 4.8674 12.9675 4.85615 12.8325 4.8374C12.6863 4.84115 12.5363 4.84115 12.3863 4.84115ZM13.6988 9.6299C13.7018 9.6749 13.68 9.71765 13.6425 9.7424C13.2225 10.0462 12.7613 10.2487 12.24 10.3012C12.0263 10.3237 11.8125 10.3162 11.61 10.2337C11.3843 10.1512 11.2118 9.9659 11.145 9.7349C11.0708 9.4979 11.0693 9.24515 11.1413 9.0074C11.235 8.69615 11.4563 8.5199 11.7563 8.4224C12.0578 8.33165 12.3735 8.30315 12.6863 8.3399C13.0013 8.36615 13.3088 8.42615 13.6238 8.4674C13.6838 8.4749 13.7025 8.5049 13.7025 8.5649C13.6988 8.7449 13.7025 8.92115 13.7025 9.10115C13.7025 9.28115 13.695 9.45365 13.6988 9.6299ZM23.445 14.4824C23.4075 14.2949 23.265 14.2237 23.1038 14.1712C22.848 14.0909 22.5833 14.0414 22.3163 14.0249C21.825 13.9829 21.3308 14.0069 20.8463 14.0962C20.31 14.1974 19.8 14.3699 19.3463 14.6812C19.2923 14.7157 19.245 14.7607 19.2075 14.8124C19.1813 14.8574 19.1745 14.9122 19.1888 14.9624C19.2038 15.0187 19.2675 15.0337 19.3238 15.0299C19.3515 15.0307 19.3785 15.0292 19.4063 15.0262C19.6988 14.9962 19.9875 14.9624 20.28 14.9324C20.7075 14.8912 21.1388 14.8649 21.5663 14.8987C21.7493 14.9137 21.93 14.9474 22.1063 14.9999C22.2975 15.0524 22.3838 15.1949 22.3913 15.3899C22.4063 15.6899 22.3388 15.9787 22.26 16.2637C22.1063 16.8412 21.885 17.3999 21.6675 17.9549C21.6518 17.9909 21.639 18.0292 21.63 18.0674C21.6113 18.1762 21.675 18.2474 21.7838 18.2212C21.8513 18.2062 21.9128 18.1739 21.9638 18.1274C22.1333 17.9699 22.2923 17.8027 22.44 17.6249C22.92 17.0099 23.2013 16.3012 23.3663 15.5399C23.3963 15.4049 23.4188 15.2662 23.445 15.1312V14.4824ZM18.4913 9.8624C18.0075 8.52365 17.5238 7.1834 17.04 5.8424C16.965 5.62865 16.8825 5.41865 16.8038 5.20865C16.7625 5.0999 16.6838 5.02865 16.5638 5.02865C16.2788 5.0249 15.9938 5.02115 15.705 5.0249C15.6113 5.0249 15.5663 5.0999 15.585 5.19365C15.603 5.27165 15.627 5.34815 15.6563 5.4224C16.3913 7.24115 17.13 9.0599 17.8725 10.8787C17.9363 11.0324 17.9513 11.1637 17.88 11.3212C17.7563 11.5949 17.6588 11.8837 17.5313 12.1574C17.4188 12.4012 17.2313 12.5849 16.9613 12.6562C16.773 12.7057 16.5773 12.7192 16.3838 12.6974C16.29 12.6899 16.1963 12.6674 16.1025 12.6599C15.975 12.6524 15.9113 12.7087 15.9075 12.8399C15.9038 12.9652 15.9038 13.0889 15.9075 13.2112C15.9113 13.4174 15.9825 13.5112 16.185 13.5449C16.3943 13.5862 16.6058 13.6117 16.8188 13.6199C17.46 13.6349 17.97 13.3762 18.3 12.8174C18.4328 12.5969 18.5483 12.3659 18.645 12.1274C19.5338 9.8849 20.4165 7.64015 21.2925 5.3924C21.3203 5.3264 21.3398 5.25665 21.3525 5.18615C21.3675 5.08115 21.3188 5.02115 21.2138 5.02115C20.9663 5.0174 20.715 5.02115 20.4675 5.02115C20.3378 5.01215 20.2185 5.0924 20.1788 5.21615C20.16 5.26865 20.1375 5.3174 20.1188 5.3699L18.8138 9.1199C18.72 9.3899 18.6225 9.66365 18.525 9.9524C18.51 9.91115 18.5025 9.88865 18.4913 9.8624Z" fill="black"/>
</svg>
