<svg width="24" height="24" viewBox="0 0 24 24" fill="none" xmlns="http://www.w3.org/2000/svg">
<g clip-path="url(#clip0_201_57500)">
<path d="M14.7728 8.289L15.5468 5.69475L16.3358 8.289H14.7728ZM18.621 10.5592L16.5983 4.43025C16.551 4.2975 16.5 4.2075 16.4415 4.164C16.3838 4.125 16.2892 4.10175 16.1647 4.10175H15.0435C14.9453 4.0935 14.8447 4.11675 14.7585 4.1715C14.6992 4.21425 14.6482 4.3005 14.6093 4.4295L12.5662 10.5585C12.5392 10.5892 12.5272 10.6553 12.5272 10.7498C12.5272 10.8975 12.6172 10.9725 12.7972 10.9725H13.6373C13.7153 10.9725 13.7775 10.9725 13.824 10.9643C13.8667 10.9605 13.9057 10.944 13.941 10.9132C13.9732 10.8825 14.0002 10.8435 14.016 10.8C14.0392 10.749 14.0618 10.6792 14.0903 10.5968L14.406 9.52575H16.7153L17.0392 10.5765C17.0662 10.6665 17.0903 10.7362 17.1173 10.7873C17.1375 10.8345 17.1682 10.8735 17.2035 10.908C17.2342 10.9358 17.2733 10.9552 17.3167 10.9627H17.3205C17.3633 10.9665 17.4225 10.971 17.4923 10.971H18.3915C18.5707 10.971 18.6608 10.896 18.6608 10.7483C18.6608 10.7213 18.6607 10.689 18.657 10.6583C18.6458 10.623 18.6337 10.5885 18.618 10.5533L18.621 10.5592ZM17.6287 13.0267H16.98C16.812 13.0267 16.7033 13.0508 16.6478 13.098C16.5938 13.1483 16.566 13.2458 16.566 13.395V17.031L14.6558 13.383C14.5815 13.23 14.5035 13.1332 14.43 13.0897C14.355 13.047 14.2267 13.0267 14.0392 13.0267H13.4415C13.2735 13.0267 13.1648 13.0508 13.1093 13.098C13.0553 13.1483 13.0275 13.2458 13.0275 13.395V19.5308C13.0275 19.68 13.0553 19.7767 13.1055 19.824C13.1565 19.8713 13.2668 19.8983 13.4347 19.8983H14.091C14.259 19.8983 14.3678 19.8713 14.4233 19.824C14.4788 19.7767 14.505 19.68 14.505 19.5308V15.8827L16.4152 19.539C16.4895 19.695 16.5675 19.7932 16.6425 19.836C16.7168 19.8787 16.8457 19.8983 17.0325 19.8983H17.6302C17.7983 19.8983 17.907 19.8713 17.9625 19.824C18.018 19.7767 18.0443 19.68 18.0443 19.5308V13.395C18.0443 13.2458 18.0173 13.1483 17.9625 13.098C17.9078 13.0508 17.7983 13.0267 17.6302 13.0267H17.6287ZM20.832 12.4447L22.4963 14.109V22.4963H1.5045V14.109L3.16875 12.4447C3.41475 12.1988 3.41475 11.8005 3.16875 11.5545L1.5045 9.89025V1.503H22.4963V9.89025L20.8283 11.5545C20.586 11.8005 20.586 12.1988 20.8283 12.4447H20.832ZM24 0H0V10.6132L1.38675 12L0 13.3868V24H24V13.3868L22.6132 12L24 10.6132V0ZM10.6718 18.4688H7.9605L10.8158 14.4525C10.8517 14.4053 10.8787 14.3542 10.902 14.3002C10.914 14.2575 10.9222 14.2103 10.9222 14.163V13.3942C10.9222 13.245 10.8953 13.1475 10.8405 13.0972C10.7858 13.05 10.6725 13.026 10.5045 13.026H6.38325C6.234 13.026 6.13725 13.0537 6.0945 13.1077C6.04725 13.1625 6.02325 13.2758 6.02325 13.4475V14.0295C6.02325 14.2012 6.04725 14.3145 6.0945 14.3693C6.13725 14.424 6.23475 14.451 6.38325 14.451H8.9265L6.1095 18.4672C6.0435 18.5415 6.00825 18.639 6.0045 18.7365V19.5292C6.0045 19.6785 6.0315 19.7752 6.08625 19.8225C6.141 19.8698 6.25425 19.8967 6.4185 19.8967H10.6688C10.8165 19.8967 10.9148 19.8698 10.962 19.815C11.0048 19.761 11.028 19.644 11.028 19.4722V18.894C11.028 18.7177 11.0048 18.6038 10.962 18.5497C10.9148 18.495 10.8173 18.468 10.6688 18.468L10.6718 18.4688ZM9.40575 8.23425C9.40575 8.496 9.39075 8.7195 9.35475 8.895C9.3195 9.06975 9.26175 9.21525 9.18375 9.324C9.102 9.43425 8.99175 9.51225 8.86275 9.555C8.70675 9.60525 8.5425 9.62475 8.379 9.621H7.58625V5.45325H8.379C8.742 5.45325 9.00825 5.562 9.168 5.77725C9.32775 5.9925 9.40575 6.348 9.40575 6.8445V8.23425ZM10.7887 5.445C10.5615 4.98825 10.254 4.64775 9.867 4.43025C9.477 4.21125 8.988 4.1025 8.39775 4.1025H6.41775C6.24975 4.1025 6.141 4.1295 6.0855 4.17675C6.03 4.224 6.00375 4.32075 6.00375 4.47V10.6058C6.00375 10.755 6.03075 10.8525 6.0855 10.9028C6.14025 10.95 6.24975 10.974 6.41775 10.974H8.637C9.684 10.974 10.4018 10.5278 10.785 9.63375C10.875 9.42675 10.938 9.21975 10.9732 9.01275C11.0122 8.7465 11.031 8.481 11.0273 8.2155V6.9105C11.0273 6.54375 11.0122 6.25425 10.9732 6.0435C10.941 5.83275 10.875 5.62575 10.7812 5.43075L10.785 5.44575L10.7887 5.445Z" fill="black"/>
</g>
<defs>
<clipPath id="clip0_201_57500">
<rect width="24" height="24" fill="white"/>
</clipPath>
</defs>
</svg>
