<svg width="24" height="24" viewBox="0 0 24 24" fill="none" xmlns="http://www.w3.org/2000/svg">
<g clip-path="url(#clip0_201_58130)">
<path d="M17.8118 22.5047C17.7225 22.5519 17.73 22.5669 17.8155 22.5234C17.8433 22.5122 17.8665 22.4964 17.8868 22.4777C17.8868 22.4619 17.8868 22.4619 17.8118 22.5047ZM17.9918 22.4072C17.949 22.4424 17.949 22.4424 18 22.4192C18.027 22.4034 18.051 22.3884 18.051 22.3839C18.051 22.3637 18.039 22.3682 17.9918 22.4072ZM18.1087 22.3367C18.066 22.3719 18.066 22.3719 18.117 22.3487C18.1448 22.3329 18.168 22.3164 18.168 22.3127C18.168 22.2939 18.156 22.2977 18.1087 22.3367ZM18.2272 22.2669C18.1845 22.3022 18.1845 22.3022 18.234 22.2782C18.2617 22.2632 18.285 22.2474 18.285 22.2429C18.285 22.2242 18.273 22.2279 18.2272 22.2669ZM18.387 22.1612C18.3053 22.2159 18.2768 22.2512 18.3517 22.2122C18.402 22.1814 18.4875 22.1139 18.4725 22.1139C18.4402 22.1259 18.4132 22.1462 18.3862 22.1612H18.387ZM11.2148 0.00917463C11.16 0.0129246 10.9957 0.0279246 10.8517 0.0399246C7.44075 0.348925 4.2495 2.18492 2.22675 5.01317C1.1085 6.56342 0.3825 8.36417 0.10875 10.2549C0.012 10.9149 0 11.1099 0 12.0047C0 12.8987 0.012 13.0907 0.10875 13.7507C0.762 18.2589 3.969 22.0434 8.316 23.4459C9.09825 23.6957 9.918 23.8682 10.8517 23.9739C11.2148 24.0129 12.7845 24.0129 13.1475 23.9739C14.7615 23.7939 16.1243 23.3957 17.4728 22.7079C17.6798 22.6029 17.7188 22.5752 17.691 22.5519C17.031 21.6812 16.383 20.8097 15.7343 19.9307L13.8165 17.3409L11.4142 13.7822C10.6132 12.5912 9.80925 11.4032 8.9925 10.2242C8.98425 10.2242 8.97375 11.8059 8.96925 13.7349C8.961 17.1137 8.961 17.2509 8.91825 17.3289C8.8755 17.4227 8.805 17.5007 8.71125 17.5442C8.637 17.5794 8.57025 17.5869 8.2155 17.5869H7.80975L7.704 17.5209C7.638 17.4782 7.58325 17.4189 7.548 17.3492L7.497 17.2434L7.50075 12.5402L7.509 7.83692L7.58325 7.74317C7.6305 7.68542 7.689 7.63817 7.755 7.60292C7.85325 7.55567 7.89225 7.54817 8.298 7.54817C8.77425 7.54817 8.853 7.56692 8.97825 7.70417C9.95025 9.15317 10.9192 10.6059 11.8725 12.0632C13.4318 14.4272 15.5603 17.6529 16.6065 19.2354L18.5093 22.1147L18.603 22.0524C19.5173 21.4427 20.349 20.7167 21.0667 19.8887C22.5788 18.1577 23.5598 16.0284 23.892 13.7559C23.9888 13.0959 24.0007 12.9002 24.0007 12.0062C24.0007 11.1114 23.9888 10.9202 23.892 10.2602C23.2388 5.75192 20.0317 1.96742 15.6847 0.564175C14.8717 0.306925 14.0355 0.131425 13.1887 0.0414246C12.9615 0.0181746 11.4105 -0.00957537 11.2155 0.0106746L11.2148 0.00917463ZM16.125 7.26692C16.2383 7.32092 16.3237 7.42292 16.3627 7.53992C16.383 7.60292 16.3867 8.90718 16.383 11.8449L16.3748 16.0629L15.633 14.9229L14.8868 13.7822V10.7199C14.8868 8.73467 14.895 7.62168 14.9055 7.56693C14.9408 7.44168 15.0262 7.33667 15.1403 7.27067C15.2333 7.22342 15.2692 7.21968 15.6405 7.21968C15.9878 7.21968 16.0463 7.22342 16.1243 7.26692H16.125Z" fill="black"/>
</g>
<defs>
<clipPath id="clip0_201_58130">
<rect width="24" height="24" fill="white"/>
</clipPath>
</defs>
</svg>
