<svg width="24" height="24" viewBox="0 0 24 24" fill="none" xmlns="http://www.w3.org/2000/svg">
<g clip-path="url(#clip0_201_58286)">
<path d="M12 0.0390015C10.0155 0.0390015 9.57449 2.82825 11.4645 3.441L10.8315 6.0195H2.45624C1.09649 6.0195 -0.000762939 7.12125 -0.000762939 8.4765V21.504C-0.000762939 22.8638 1.09724 23.961 2.45624 23.961H21.5422C22.8975 23.961 23.9992 22.8593 23.9992 21.504V8.4765C23.9992 7.12125 22.8975 6.0195 21.5422 6.0195H13.14L12.5227 3.4455C14.4247 2.844 13.9912 0.0390015 11.9992 0.0390015H12ZM3.93374 7.8825H20.0707C21.1725 7.8825 22.0627 8.7735 22.0627 9.8745V19.992C22.0627 21.0938 21.1717 21.984 20.0707 21.984H3.93374C2.83199 21.984 1.93799 21.093 1.93799 19.992V9.8745C1.93799 8.77275 2.83274 7.8825 3.93374 7.8825ZM7.18724 10.1918C1.08599 10.1918 1.08599 19.344 7.18724 19.344C13.2847 19.344 13.2847 10.1918 7.18724 10.1918ZM16.9297 10.1918C10.8285 10.1918 10.8285 19.344 16.9297 19.344C23.031 19.344 23.031 10.1918 16.9297 10.1918ZM7.18724 11.262C9.14399 11.2305 10.7535 12.8093 10.7535 14.7698C10.7535 16.7265 9.14399 18.309 7.18724 18.2738C2.58974 18.1958 2.58974 11.34 7.18724 11.262ZM16.9297 11.262C18.891 11.2305 20.496 12.8093 20.496 14.7698C20.496 16.7265 18.8902 18.309 16.9297 18.2738C12.336 18.1958 12.336 11.34 16.9297 11.262ZM7.18724 12.9255C4.73024 12.9255 4.73024 16.6133 7.18724 16.6133C9.64424 16.6133 9.64424 12.9255 7.18724 12.9255ZM16.9297 12.9255C14.4727 12.9255 14.4727 16.6133 16.9297 16.6133C19.3867 16.6133 19.3867 12.9255 16.9297 12.9255ZM10.0042 19.4258V21.5858H10.7115V19.4258H10.0042ZM11.0782 19.4258V21.5858H11.7855V19.4258H11.0782ZM12.156 19.4258V21.5858H12.8632V19.4258H12.156ZM13.2345 19.4258V21.5858H13.938V19.4258H13.2345ZM14.3085 19.4573V21.555C14.7967 21.4418 15.1365 21.0083 15.1402 20.508C15.1402 19.9965 14.7847 19.5705 14.3085 19.4573ZM9.63299 19.4843C9.19574 19.6328 8.90249 20.043 8.90249 20.5035V20.5073C8.90249 20.9798 9.20699 21.3825 9.63299 21.5265V19.4843Z" fill="black"/>
</g>
<defs>
<clipPath id="clip0_201_58286">
<rect width="24" height="24" fill="white"/>
</clipPath>
</defs>
</svg>
