<svg width="24" height="24" viewBox="0 0 24 24" fill="none" xmlns="http://www.w3.org/2000/svg">
<g clip-path="url(#clip0_201_57614)">
<path d="M0.441729 12.918C0.547479 13.176 0.554979 13.344 0.515979 13.6095C0.484479 13.8128 0.445479 14.016 0.406479 14.2148C0.371229 14.3903 0.289479 14.7653 0.410229 14.91C0.527229 15.051 0.761979 15.039 1.03123 15.0075C1.33573 14.9723 2.84398 14.664 4.42948 14.0115C4.64398 13.9178 4.86298 13.8045 5.05048 13.6635C5.48023 13.3433 5.55073 12.6593 5.55073 12.6593C5.56273 12.5303 5.55823 12.3428 5.38648 12.2453C5.26123 12.1785 5.08573 12.222 4.82398 12.288C4.39048 12.405 3.32398 12.8078 2.95273 12.9173C2.80048 12.9645 2.50348 13.0305 2.39023 12.8903C2.19898 12.6555 2.47198 11.9213 2.63623 11.5155C2.80048 11.1053 3.05398 10.7775 3.83923 10.5548C4.12798 10.473 4.60123 10.3245 4.79623 10.2615C5.00698 10.191 5.28448 10.0545 5.40148 9.58576C5.53423 9.05026 5.12398 8.96851 4.74523 8.86726C4.20598 8.72251 3.86623 8.70301 4.10473 8.18776C4.20223 7.98076 4.29223 7.88701 4.50298 7.83226C4.71748 7.77376 6.53023 7.49251 7.25323 7.36351C7.65973 7.29301 7.79623 7.07851 7.96423 6.73426C8.32723 5.98801 7.87048 5.93701 7.50298 5.97226C6.66673 6.04651 5.32348 6.28501 4.74898 6.36676C4.44448 6.41401 4.64773 5.89801 4.28773 5.87476C3.58423 5.82376 2.98723 6.11701 2.74873 6.30076C2.52223 6.47251 2.41273 7.00426 2.41273 7.00426L1.71748 9.37126C1.65523 9.64501 1.56898 9.91426 1.37398 10.0313C0.893229 10.3125 -0.0832714 10.332 0.00297858 11.3708C0.00297858 11.3708 0.0224786 11.8785 0.440229 12.9218L0.441729 12.918ZM6.76198 8.49601C7.03948 8.44876 7.41448 8.37901 7.51573 9.08176C7.54723 9.29251 7.55098 11.742 7.55098 11.742C7.55098 11.742 7.81648 11.4878 8.64448 10.215C9.26923 9.25051 9.96073 8.00401 10.2187 7.56676C10.371 7.31251 10.6522 7.04701 11.1367 7.40251C11.6797 7.80076 11.6917 8.09026 11.4532 8.49601C11.211 8.91376 10.5547 9.98026 9.62473 11.2695C8.78473 12.4373 8.38273 12.8985 8.02723 13.2855C7.67173 13.668 7.19923 14.1135 6.70723 14.0475C6.05473 13.9538 6.10573 12.8483 6.07798 12.5318C6.05023 12.2153 5.92573 9.69976 6.01123 9.11401C6.04648 8.88376 6.03448 8.61826 6.76123 8.49301L6.76198 8.49601ZM15.6052 8.55826C15.906 8.72251 15.5625 9.41401 14.9805 9.83551C14.6055 10.1093 13.965 10.515 13.3087 10.515C13.5862 10.0388 13.9297 9.60076 14.3242 9.21826C14.7967 8.75701 15.3435 8.41726 15.6052 8.55826ZM23.7772 8.40601C24.066 8.03476 24.1252 7.81201 23.6445 7.34776C23.211 6.93001 22.9215 7.17601 22.7107 7.39051C22.6755 7.43326 21.6915 8.39026 20.6602 9.56251C19.8555 10.473 19.1602 11.3168 19.1602 11.3168C19.1602 11.3168 19.137 10.7468 19.2225 10.0313C19.2735 9.62101 19.41 8.82826 19.449 8.57776C19.6522 7.30426 18.855 7.25326 18.558 7.23376C18.2452 7.21426 18.0967 7.37851 18.003 7.76926C17.9212 8.12476 17.4525 10.0778 17.64 12.0938C17.6715 12.4568 17.7457 12.828 17.7532 12.8558L17.562 13.11C15.816 12.6255 14.6167 11.4458 14.6167 11.4458C14.6167 11.4458 15.1912 11.2815 15.8197 10.9028C16.3237 10.6058 17.2845 9.85951 17.1832 8.55151C17.097 7.43851 15.9135 6.93076 15.4762 7.02451C15.0817 7.10626 14.3865 7.57951 13.7302 8.16151C13.6875 7.86076 13.6792 7.52476 13.3627 7.48576C13.1325 7.46251 12.8625 7.56751 12.6675 7.66951C12.453 7.77076 12.2767 7.93501 12.1635 8.14201L11.4292 9.80626C11.406 9.86476 11.3587 9.88051 11.3197 9.88801C10.9252 9.97801 10.8 10.2593 10.7692 10.3373C10.7692 10.3373 10.605 10.6853 10.8982 10.9973C10.7497 11.3843 10.3627 12.2783 10.3627 12.2783C9.88198 13.38 9.91348 13.7625 10.0852 13.9973C10.1752 14.1143 10.4797 14.286 10.8472 14.349C11.1285 14.3918 11.3392 14.2283 11.5702 13.8645C11.9137 13.329 12.6052 11.9115 12.6052 11.9115C12.6052 11.9115 13.9725 13.3883 16.7265 14.3565C16.7265 14.3565 15.2692 16.329 15.0585 17.4188C15.0585 17.4188 14.9527 18.1335 15.9337 18.1335C16.1797 18.1335 16.551 18.075 16.8165 17.9108C16.926 17.8485 17.0077 17.7503 17.0392 17.6295C17.055 17.5785 17.0467 17.5238 17.0197 17.4773C16.9927 17.4308 16.9492 17.403 16.9185 17.3715C16.8675 17.3243 16.8757 17.2583 16.9027 17.184C17.442 15.6413 19.6372 13.0163 20.1022 12.4455C21.333 10.9418 23.6137 8.59426 23.7742 8.40676L23.7772 8.40601Z" fill="black"/>
</g>
<defs>
<clipPath id="clip0_201_57614">
<rect width="24" height="24" fill="white"/>
</clipPath>
</defs>
</svg>
