<svg width="24" height="24" viewBox="0 0 24 24" fill="none" xmlns="http://www.w3.org/2000/svg">
<g clip-path="url(#clip0_201_58112)">
<path d="M11.7772 23.9961C8.30097 23.9339 5.02722 22.3671 2.79672 19.6994C1.66422 18.3441 0.839969 16.7541 0.390719 15.0471C-0.0855314 13.2111 -0.129031 11.2934 0.273719 9.44162C0.590219 7.98812 1.17222 6.61337 1.99272 5.37512C3.03147 3.81287 4.41822 2.51162 6.05097 1.57787C7.32447 0.84737 8.72697 0.35912 10.1797 0.13637C11.4022 -0.0473797 12.6487 -0.0473797 13.8712 0.14387C15.5782 0.41312 17.1757 1.03487 18.621 1.99187C19.4962 2.57012 20.316 3.28112 21.0075 4.07012C22.3162 5.55437 23.238 7.33937 23.6872 9.26912C24.0892 10.9836 24.105 12.8241 23.7262 14.5581C23.16 17.1561 21.7417 19.4954 19.7025 21.2024C18.3472 22.3349 16.7572 23.1591 15.0465 23.6084C14.304 23.8034 13.5502 23.9249 12.7575 23.9759C12.4882 23.9916 12.2182 23.9991 11.949 24.0029L11.7772 23.9991V23.9961ZM4.85172 17.3121C4.94172 17.2889 5.01972 17.2454 5.08197 17.1794C5.14872 17.1171 5.19522 17.0346 5.22297 16.9491C5.23497 16.9064 5.23497 16.7691 5.23872 14.5859C5.24247 12.4649 5.24622 12.2579 5.25822 12.1484C5.28972 11.8476 5.33622 11.6369 5.40297 11.4254C5.50422 11.1246 5.62947 10.9094 5.80947 10.7219C5.95047 10.5771 6.07122 10.4871 6.24297 10.4054C6.40347 10.3311 6.57522 10.2801 6.74697 10.2569C6.86397 10.2411 7.12947 10.2336 7.24272 10.2449C7.77822 10.3071 8.25447 10.6004 8.55147 11.0534C8.71572 11.3031 8.82072 11.5806 8.87547 11.9204L8.89497 12.0261L8.89872 14.4636C8.90247 16.7879 8.90247 16.9011 8.91447 16.9484C8.94147 17.0346 8.98872 17.1126 9.05097 17.1749C9.10572 17.2334 9.17172 17.2761 9.25047 17.3039C9.30147 17.3196 9.31722 17.3234 9.41847 17.3234C9.55497 17.3309 9.69222 17.2806 9.78597 17.1786C9.87222 17.0969 9.92247 16.9911 9.93822 16.8779C9.94197 16.8351 9.94572 16.1046 9.94572 14.4719C9.94572 12.9291 9.94572 12.0966 9.95322 12.0419C10.0005 11.5611 10.176 11.1554 10.4767 10.8194C10.6567 10.6124 10.938 10.4286 11.2035 10.3349C11.4142 10.2606 11.598 10.2336 11.8327 10.2411C12.1372 10.2531 12.3832 10.3079 12.6337 10.4286C12.915 10.5614 13.1452 10.7684 13.302 11.0226C13.4775 11.3196 13.5795 11.6864 13.599 12.1086C13.6027 12.1596 13.611 12.5969 13.6222 13.0814C13.6455 14.0811 13.6455 14.1441 13.6612 14.3196C13.7355 15.1049 13.9695 15.7454 14.3722 16.2531C14.4622 16.3626 14.685 16.5854 14.79 16.6709C15.2235 17.0144 15.735 17.2259 16.3215 17.3039C16.497 17.3271 16.8292 17.3354 17.001 17.3159C17.7982 17.2341 18.5325 16.8546 19.017 16.2689C19.392 15.8196 19.6222 15.2804 19.7205 14.6324C19.7677 14.3279 19.7632 14.4876 19.7677 12.1244C19.7715 9.70637 19.7752 9.90137 19.713 9.77687C19.6462 9.64787 19.5255 9.55787 19.3807 9.52712C19.2397 9.49562 19.092 9.51512 18.9667 9.58937C18.8655 9.64787 18.7755 9.76937 18.744 9.89012C18.7365 9.92162 18.732 10.3709 18.7282 12.1131C18.7245 14.5274 18.7282 14.3436 18.6735 14.6211C18.4935 15.5391 17.865 16.1444 16.9432 16.2816C16.7752 16.2974 16.6035 16.2974 16.4317 16.2741C15.9705 16.2036 15.5917 16.0199 15.303 15.7191C14.9707 15.3711 14.772 14.9024 14.7015 14.2859C14.6857 14.1336 14.6782 13.8989 14.6587 13.0746C14.643 12.2189 14.6355 12.0239 14.6115 11.8326C14.4825 10.7114 13.932 9.85187 13.0642 9.41462C12.7162 9.23912 12.3337 9.14087 11.943 9.12137C11.3925 9.08612 10.806 9.24212 10.2712 9.56312C9.95847 9.74687 9.68547 9.98912 9.45897 10.2704L9.41997 10.3214L9.39297 10.2824C9.32247 10.1886 9.24447 10.1024 9.15822 10.0206C8.70147 9.58712 8.05647 9.29762 7.37697 9.21962C7.16247 9.20387 6.94347 9.20012 6.72822 9.21962C6.09147 9.29012 5.58747 9.50462 5.16972 9.88787C4.68897 10.3214 4.37247 10.9896 4.25547 11.8139C4.20072 12.2046 4.20072 12.2474 4.20072 14.7276L4.20447 16.9109L4.22772 16.9731C4.28247 17.1411 4.41522 17.2664 4.58697 17.3129C4.66122 17.3324 4.77447 17.3324 4.85247 17.3129L4.85172 17.3121ZM16.8435 8.44937C17.109 8.40212 17.3197 8.20712 17.3902 7.94537C17.4097 7.84787 17.4135 7.74587 17.3977 7.64462C17.3467 7.40237 17.175 7.20737 16.941 7.12862C16.4992 6.98012 16.0425 7.31237 16.0462 7.77737C16.0462 7.83212 16.05 7.88687 16.0582 7.92212C16.1362 8.27762 16.4805 8.51162 16.8435 8.44937ZM14.1757 8.31212C14.3167 8.27312 14.4337 8.17937 14.496 8.04662C14.5432 7.95287 14.5545 7.89062 14.5627 7.70312C14.5747 7.14812 14.7975 6.61712 15.18 6.21512C15.4845 5.89487 15.8872 5.68787 16.3245 5.62937C16.473 5.60612 16.7617 5.60237 16.9065 5.62187C17.2147 5.66462 17.4885 5.76662 17.7307 5.92262C17.973 6.08312 18.2032 6.32462 18.3637 6.58637C18.567 6.91862 18.6877 7.34837 18.6922 7.71512C18.6922 7.81262 18.7042 7.89887 18.7275 7.97312C18.864 8.41037 19.4655 8.45387 19.665 8.03987C19.7197 7.93037 19.7272 7.89137 19.7272 7.69187C19.7272 7.49237 19.7152 7.37162 19.6845 7.17587C19.4655 5.87912 18.5167 4.88312 17.259 4.63262C17.052 4.58537 16.8412 4.57037 16.6342 4.57787C15.4822 4.55837 14.4232 5.19512 13.896 6.21437C13.6657 6.65612 13.5405 7.14812 13.5285 7.64387C13.5165 7.90937 13.5637 8.06162 13.6965 8.18687C13.8255 8.31212 14.0047 8.35862 14.1772 8.31212H14.1757Z" fill="black"/>
</g>
<defs>
<clipPath id="clip0_201_58112">
<rect width="24" height="24" fill="white"/>
</clipPath>
</defs>
</svg>
