<svg width="24" height="24" viewBox="0 0 24 24" fill="none" xmlns="http://www.w3.org/2000/svg">
<g clip-path="url(#clip0_201_57924)">
<path d="M23.715 9.92625H15.3278L10.434 14.844H17.16C16.2727 16.8202 14.2928 17.9062 12 17.9062C8.895 17.9062 6.35925 15.234 6.35925 12.1335C6.35925 9.02025 8.895 6.42225 12 6.42225C13.1333 6.42225 14.1877 6.7155 15.0623 7.28925L19.602 2.73C17.5387 1.03125 14.895 0 12 0C5.37075 0 0 5.367 0 12C0 18.621 5.37075 24 12 24C18.6292 24 24 18.8873 24 12.2618C24 11.367 23.898 10.9095 23.715 9.9255V9.92625Z" fill="black"/>
</g>
<defs>
<clipPath id="clip0_201_57924">
<rect width="24" height="24" fill="white"/>
</clipPath>
</defs>
</svg>
