<svg width="24" height="24" viewBox="0 0 24 24" fill="none" xmlns="http://www.w3.org/2000/svg">
<path d="M6.10125 7.01929V14.3745H6.83925V7.01929H6.10125ZM19.758 7.03129V14.3753H20.4923V7.03129H19.758ZM20.4923 11.664L22.9725 14.3753H23.988L21.414 11.6445L24 9.12079H23.0115L20.4923 11.664ZM16.4842 9.02704C15.9488 9.02704 15.5115 9.15229 15.1755 9.40579C14.8357 9.65554 14.6677 10.0155 14.6677 10.476C14.6677 10.734 14.7187 10.9485 14.8162 11.1165C14.9175 11.2845 15.0428 11.4248 15.195 11.5305C15.351 11.64 15.5235 11.73 15.7185 11.7998C15.9135 11.8695 16.1092 11.9325 16.308 11.9873C16.4835 12.0383 16.6515 12.0885 16.8083 12.1395C16.9688 12.1943 17.1052 12.2565 17.226 12.3345C17.3468 12.4125 17.4405 12.5063 17.511 12.612C17.5815 12.7215 17.6168 12.858 17.6168 13.0185C17.6168 13.2293 17.523 13.4055 17.3317 13.554C17.1405 13.6988 16.8472 13.773 16.449 13.773C15.8437 13.773 15.3472 13.5308 14.9647 13.0388L14.3948 13.5428C14.6798 13.8593 14.9843 14.0858 15.309 14.2223C15.6293 14.3588 16.0005 14.4255 16.4183 14.4255C16.6875 14.4255 16.9455 14.394 17.184 14.3243C17.4067 14.2658 17.6175 14.1683 17.805 14.031C17.9805 13.902 18.1215 13.7423 18.2228 13.5548C18.324 13.3635 18.375 13.1528 18.375 12.9143C18.375 12.6525 18.324 12.4418 18.2228 12.27C18.1215 12.0983 17.9842 11.9498 17.8207 11.8328C17.6528 11.712 17.469 11.6138 17.2778 11.544C17.0783 11.4698 16.8833 11.403 16.6838 11.3408C16.5195 11.2898 16.3635 11.2395 16.215 11.1885C16.0785 11.1413 15.9413 11.079 15.8168 11.0048C15.711 10.938 15.6173 10.8525 15.543 10.7505C15.4725 10.6448 15.4335 10.5203 15.4373 10.395C15.4373 10.1918 15.5153 10.0238 15.6637 9.89104C15.8123 9.75829 16.0777 9.68779 16.449 9.68779C16.7422 9.68779 16.9958 9.74254 17.211 9.85204C17.4217 9.96154 17.6213 10.1295 17.805 10.3635L17.817 10.371L18.3563 9.87904C18.0825 9.56254 17.8013 9.34354 17.505 9.21904C17.181 9.08629 16.833 9.01954 16.4858 9.02779L16.4842 9.02704ZM1.797 9.07054C1.2075 9.07054 0.60975 9.16429 0 9.35179V16.9808H0.72675V14.2583C0.90675 14.3093 1.08975 14.3483 1.26975 14.3753C1.80075 14.457 2.34375 14.4225 2.856 14.2658C3.192 14.16 3.49275 14.004 3.7545 13.785C4.02 13.5705 4.23075 13.293 4.39125 12.957C4.55175 12.621 4.6335 12.219 4.6335 11.7458C4.6335 11.3633 4.56675 11.0078 4.434 10.6755C4.305 10.3553 4.11 10.0658 3.8595 9.82429C3.6015 9.58204 3.297 9.39079 2.961 9.26929C2.613 9.13654 2.223 9.06979 1.797 9.06979V9.07054ZM10.6838 9.07054C10.3597 9.07054 10.0545 9.12529 9.7695 9.23104C9.48075 9.34429 9.2265 9.50854 9.012 9.73129C8.7855 9.97729 8.61 10.2623 8.496 10.5788C8.37075 10.9185 8.3085 11.3168 8.3085 11.778C8.3085 12.1298 8.3595 12.4613 8.4645 12.7778C8.5695 13.0943 8.72625 13.3718 8.937 13.6178C9.14775 13.8638 9.4095 14.0595 9.726 14.1998C10.0388 14.3445 10.4093 14.4143 10.8278 14.4143C11.2845 14.4143 11.6715 14.3475 11.9955 14.211C12.3158 14.0745 12.6007 13.8713 12.843 13.6058L12.4058 13.1445C12.1988 13.3673 11.9722 13.5315 11.7225 13.6328C11.4532 13.7385 11.1675 13.7888 10.8825 13.785C10.3275 13.785 9.89025 13.6095 9.56625 13.2615C9.246 12.9098 9.07425 12.4373 9.05475 11.8433H12.9923C13.008 10.9373 12.8168 10.2495 12.426 9.77704C12.0315 9.30454 11.4532 9.06979 10.6838 9.06979V9.07054ZM10.7145 9.68779C10.9725 9.68779 11.199 9.73054 11.394 9.80854C11.5935 9.89029 11.7495 9.99604 11.8748 10.1288C11.9955 10.2615 12.0893 10.4258 12.156 10.6133C12.2227 10.8045 12.2572 11.0078 12.2572 11.223H9.0735C9.12825 10.8165 9.3 10.434 9.5655 10.1213C9.67875 9.99229 9.831 9.89104 10.0223 9.80854C10.2172 9.73054 10.4445 9.69154 10.71 9.69154L10.7145 9.68779ZM1.85925 9.69904C2.4765 9.69904 2.95275 9.88654 3.2925 10.2615C3.63225 10.6365 3.804 11.1285 3.804 11.7383C3.804 12.3983 3.6165 12.9023 3.2535 13.2578C2.88225 13.6095 2.39025 13.785 1.7655 13.785C1.5975 13.785 1.42575 13.7693 1.24575 13.7303C1.07025 13.6913 0.89775 13.644 0.726 13.5855V9.86704C0.906 9.80479 1.0935 9.76129 1.281 9.73429C1.47225 9.71104 1.6635 9.69904 1.85925 9.69904ZM4.23825 16.2893V16.9808H8.66025V16.2893H4.23825Z" fill="black"/>
</svg>
