<svg width="24" height="24" viewBox="0 0 24 24" fill="none" xmlns="http://www.w3.org/2000/svg">
<g clip-path="url(#clip0_201_57862)">
<path d="M15.3442 12.5077L17.715 15.6368C17.9137 15.8978 17.9257 16.3275 17.7382 16.5975L17.6213 16.7723C17.4412 17.046 17.07 17.421 16.809 17.604L16.5233 17.808C16.2585 18.003 15.8242 18.003 15.5662 17.7878L12.4305 15.4208C12.1762 15.2258 11.7502 15.2258 11.4923 15.4208L8.355 17.7878C8.09775 18.003 7.66425 18.003 7.398 17.8185L7.191 17.6865C6.92175 17.5028 6.55125 17.1277 6.36675 16.8735L6.1875 16.6193C5.99925 16.35 6.0075 15.9285 6.2025 15.6585L8.5815 12.5107C8.7765 12.2527 8.7765 11.835 8.5815 11.565L6.19425 8.42925C6.003 8.1675 5.991 7.737 6.183 7.47225L6.38175 7.18725C6.5685 6.9255 6.9435 6.558 7.20975 6.37425L7.386 6.2535C7.65525 6.0585 8.08875 6.0735 8.34675 6.26925L11.4825 8.64C11.7405 8.835 12.1665 8.835 12.4245 8.64L15.5573 6.25275C15.8145 6.05775 16.2562 6.0255 16.5375 6.18975L16.8652 6.3855C17.1465 6.5535 17.5065 6.90825 17.6625 7.19775L17.7833 7.40475C17.9363 7.68975 17.904 8.12775 17.709 8.397L15.3383 11.5297C15.1433 11.7878 15.1433 12.21 15.3383 12.4755L15.3442 12.5077ZM12 0C5.37075 0 0 5.37075 0 12C0 18.6292 5.37075 24 12 24C18.6292 24 24 18.6292 24 12C24 5.37075 18.6292 0 12 0Z" fill="black"/>
</g>
<defs>
<clipPath id="clip0_201_57862">
<rect width="24" height="24" fill="white"/>
</clipPath>
</defs>
</svg>
