<svg width="24" height="24" viewBox="0 0 24 24" fill="none" xmlns="http://www.w3.org/2000/svg">
<path d="M20.8635 14.4802C19.383 14.898 18.375 15.7657 18.375 17.1952V21.2775C18.375 24.3248 15.4687 23.9888 11.8552 23.9888H11.3002C11.0775 23.9888 10.941 23.907 10.941 23.7113V22.3125C10.941 22.1175 11.0617 22.0312 11.289 22.0312H11.7382C13.8982 22.0312 15.414 22.5075 15.414 20.7735V16.8555C15.414 15.6563 16.254 13.9763 17.9332 13.3635C18.054 13.332 18.0697 13.2772 18.0697 13.2225C18.0697 13.164 18.0382 13.0815 17.9332 13.0275C16.4017 12.3285 15.414 11.184 15.414 9.8085V5.3865C15.414 3.6795 13.914 1.9725 11.754 1.9725H11.3047C11.0782 1.9725 10.9725 1.89075 10.9725 1.695V0.30075C10.9725 0.10575 11.121 0.0195 11.3475 0.0195H11.9025C15.504 0.0195 18.4455 2.5935 18.4455 5.64075V9.35925C18.4455 10.7692 19.4497 11.5777 20.9647 12.105C21.5197 12.2692 21.8317 12.3 21.8317 12.7493V13.9215C21.8632 14.1757 21.5932 14.2965 20.9175 14.4877L20.8635 14.4802ZM8.09399 23.9685H2.50424C2.27774 23.9685 2.16449 23.9137 2.16449 23.7188V0.2775C2.16449 0.11325 2.27024 0 2.49674 0H8.03174C8.25824 0 8.39099 0.08625 8.39099 0.2775V1.73475C8.39099 1.92975 8.27024 1.9845 8.04299 1.9845H5.57024C5.26574 1.9845 5.15249 2.09775 5.15249 2.29275V21.7028C5.15249 21.8978 5.26574 21.972 5.51999 21.972H8.03549C8.26199 21.972 8.39849 22.05 8.39849 22.2262V23.7105C8.42999 23.8785 8.31674 23.9685 8.09024 23.9685H8.09399ZM12.969 10.9373H11.481C11.1217 10.9373 10.8405 10.656 10.8405 10.3477V9.00375C10.8405 8.66775 11.1487 8.418 11.481 8.418H12.969C13.3245 8.418 13.6095 8.6955 13.6095 9.00375V10.3477C13.6095 10.6838 13.3012 10.9335 12.9652 10.9335L12.969 10.9373Z" fill="black"/>
</svg>
