<svg width="24" height="24" viewBox="0 0 24 24" fill="none" xmlns="http://www.w3.org/2000/svg">
<g clip-path="url(#clip0_201_57632)">
<path d="M13.6642 6.95703L8.05125 8.49603L9.19125 12.7193L14.805 11.1803L15.9487 15.3983L10.3358 16.8915L11.43 21.1133L5.81175 22.605L4.422 17.5388C5.26575 16.5465 5.613 15.1515 5.26575 13.812C4.86675 12.4688 3.8745 11.4263 2.6835 10.98L1.2885 5.76228L12.5693 2.78103L13.6642 6.95703ZM20.7698 6.75828L18.9338 0.0510254L0 5.06628L1.83975 11.8245C2.9295 12.0278 3.9255 12.8678 4.2225 14.0625C4.56975 15.2543 4.1205 16.4453 3.27675 17.2425L5.0655 23.9498L23.9993 18.8835L22.2105 12.1763C21.0653 11.973 20.1248 11.133 19.7767 9.93828C19.4767 8.74653 19.875 7.50453 20.7698 6.75828Z" fill="black"/>
</g>
<defs>
<clipPath id="clip0_201_57632">
<rect width="24" height="24" fill="white"/>
</clipPath>
</defs>
</svg>
