<svg width="24" height="24" viewBox="0 0 24 24" fill="none" xmlns="http://www.w3.org/2000/svg">
<g clip-path="url(#clip0_201_57954)">
<path d="M23.883 8.94901C23.109 4.86301 19.023 4.35526 19.023 4.35526H0.72299C0.11699 4.35526 0.0427404 5.1525 0.0427404 5.1525C0.0427404 5.1525 -0.0390096 12.4778 0.0224904 16.9778C0.18749 19.3988 2.60849 19.6485 2.60849 19.6485C2.60849 19.6485 10.8742 19.6253 14.5732 19.5983C17.0115 19.1723 17.2575 17.031 17.229 15.8633C21.585 16.1055 24.651 13.0313 23.8822 8.94901H23.883ZM12.8197 12.4613C11.574 13.9103 8.80874 16.434 8.80874 16.434C8.80874 16.434 8.68799 16.5548 8.49599 16.4573C8.42174 16.4025 8.39099 16.3673 8.39099 16.3673C7.94474 15.9263 5.02274 13.32 4.35524 12.414C3.64799 11.4488 3.31649 9.71476 4.26599 8.70301C5.21474 7.69501 7.26974 7.61701 8.62874 9.10876C8.62874 9.10876 10.191 7.32751 12.0975 8.14801C13.9995 8.96926 13.9297 11.16 12.8197 12.4613ZM18.9922 12.9383C18.0622 13.0553 17.3092 12.9653 17.3092 12.9653V7.28551H19.0785C19.0785 7.28551 21.0517 7.83676 21.0517 9.9225C21.0517 11.8365 20.067 12.5903 18.993 12.9383H18.9922Z" fill="black"/>
</g>
<defs>
<clipPath id="clip0_201_57954">
<rect width="24" height="24" fill="white"/>
</clipPath>
</defs>
</svg>
