<svg width="24" height="24" viewBox="0 0 24 24" fill="none" xmlns="http://www.w3.org/2000/svg">
<path d="M13.7227 1.152H14.301C18.0427 1.152 19.785 3.10875 20.5117 8.328L21.672 8.277L21.516 0H2.48399L2.29724 8.277L3.41024 8.328C3.60524 6.37125 3.83624 5.316 4.34024 4.266C5.22749 2.30925 7.07849 1.152 9.35924 1.152H10.1685V19.164C10.1685 21.0698 10.0552 21.672 9.59024 22.125C9.20324 22.4768 8.43449 22.6253 7.54349 22.6253H6.65624V23.8283H17.2342V22.6253H16.344C15.4612 22.6253 14.6842 22.4775 14.301 22.125C13.8397 21.672 13.7227 21.0698 13.7227 19.164V1.152ZM2.00024 10.875H6.87899V15.7463H2.00024V10.875ZM16.9342 10.875H21.8122V15.7463H16.9342V10.875Z" fill="black"/>
</svg>
