<svg width="24" height="24" viewBox="0 0 24 24" fill="none" xmlns="http://www.w3.org/2000/svg">
<g clip-path="url(#clip0_201_57284)">
<path d="M6.93749 4.50378C7.64099 4.50378 8.27699 4.56228 8.85974 4.69128C9.43424 4.82028 9.92999 5.01978 10.344 5.30103C10.7542 5.58228 11.0745 5.94978 11.3047 6.42228C11.5275 6.89103 11.6445 7.47303 11.6445 8.15253C11.6445 8.89053 11.4727 9.51228 11.1367 10.0118C10.797 10.512 10.3005 10.9103 9.63299 11.2305C10.539 11.4923 11.211 11.949 11.6565 12.6015C12.1057 13.2615 12.3202 14.0505 12.3202 14.961C12.3202 15.711 12.1912 16.3515 11.91 16.8908C11.6325 17.4413 11.2417 17.8905 10.7497 18.2423C10.269 18.5903 9.69899 18.84 9.08174 19.008C8.47199 19.1723 7.82774 19.2623 7.17149 19.2623H-0.000762939V4.51203H6.93674L6.93749 4.50378ZM16.9417 16.6643C17.379 17.094 18.012 17.3085 18.8362 17.3085C19.4257 17.3085 19.9342 17.16 20.3632 16.8593C20.7892 16.5705 21.0427 16.2495 21.1447 15.9218H23.7307C23.3287 17.199 22.6837 18.1208 21.8325 18.672C20.9812 19.2308 19.95 19.5 18.7545 19.5C17.9145 19.5 17.1682 19.371 16.4812 19.1018C15.8092 18.8325 15.2392 18.4493 14.7622 17.961C14.2972 17.4728 13.938 16.8825 13.6837 16.1918C13.4295 15.501 13.3087 14.7428 13.3087 13.9223C13.3087 13.1175 13.4452 12.3833 13.7152 11.6918C13.9845 10.9928 14.3557 10.4108 14.8327 9.90304C15.3285 9.39154 15.8955 9.00828 16.5712 8.70753C17.2432 8.40678 17.97 8.27403 18.7897 8.27403C19.7002 8.27403 20.481 8.43828 21.1687 8.79753C21.8407 9.13728 22.3912 9.61804 22.8292 10.1963C23.271 10.782 23.5792 11.4578 23.7705 12.2198C23.9617 12.9698 24.0202 13.7588 23.9812 14.5988H16.29C16.29 15.4388 16.5712 16.2315 17.001 16.6613L16.9192 16.6928L16.9417 16.6643ZM6.69899 16.7145C7.01549 16.7145 7.31999 16.683 7.60499 16.6208C7.89374 16.5623 8.15174 16.4565 8.36699 16.32C8.57774 16.1873 8.75774 15.9915 8.89049 15.738C9.01949 15.4995 9.07799 15.168 9.07799 14.7773C9.07799 14.0273 8.85899 13.488 8.43749 13.1603C8.00774 12.84 7.44899 12.6795 6.74999 12.6795H3.23849V16.7303H6.69974V16.6988L6.69899 16.7145ZM20.3085 11.0663C19.953 10.6793 19.3672 10.4723 18.648 10.4723C18.183 10.4723 17.7967 10.5465 17.484 10.7108C17.1832 10.8593 16.9335 11.0625 16.7415 11.3003C16.554 11.5388 16.425 11.781 16.3507 12.0503C16.2765 12.312 16.23 12.5505 16.218 12.7613H20.9797C20.9092 12.0113 20.6475 11.4608 20.3002 11.07V11.082L20.3085 11.0663ZM6.51974 10.449C7.09424 10.449 7.57049 10.3163 7.94549 10.0388C8.32049 9.76954 8.50049 9.31578 8.50049 8.69928C8.50049 8.35578 8.42999 8.07453 8.32049 7.85553C8.18774 7.63278 8.01974 7.46478 7.82024 7.34403C7.60949 7.21878 7.36724 7.13328 7.09724 7.08603C6.82799 7.03128 6.53849 7.01178 6.25724 7.01178H3.23024V10.449H6.51974ZM15.6172 5.49228H21.5857V6.94503H15.6172V5.48028V5.49228Z" fill="black"/>
</g>
<defs>
<clipPath id="clip0_201_57284">
<rect width="24" height="24" fill="white"/>
</clipPath>
</defs>
</svg>
