<svg width="24" height="24" viewBox="0 0 24 24" fill="none" xmlns="http://www.w3.org/2000/svg">
<g clip-path="url(#clip0_201_58388)">
<path d="M6.3952 1.75781e-05L1.05145 0.00376758V5.34752H6.3982V-0.000732422L6.3952 1.75781e-05ZM12.336 2.69477C11.3047 2.69477 10.3792 2.79677 9.5467 2.98802V6.77027C10.191 6.39827 11.016 6.20327 12.0465 6.20327C13.0462 6.20327 13.8825 6.37127 14.5582 6.71102C15.5692 7.22327 16.1122 8.08577 16.1872 9.30077H20.241C20.1712 7.15202 19.3702 5.52002 17.8507 4.39052C16.3267 3.26177 14.487 2.69477 12.3345 2.69477H12.336ZM4.4962 8.51177C4.4842 8.67152 4.47295 8.83202 4.47295 8.99552C4.47295 10.9793 5.1517 12.4373 6.5122 13.3665C7.31995 13.9253 8.79295 14.4405 10.941 14.9138L13.1287 15.3975C14.4097 15.6713 15.3435 15.9878 15.9337 16.3433C16.5225 16.71 16.8157 17.226 16.8157 17.8943C16.8157 19.0343 16.215 19.815 15.012 20.2335C14.379 20.4525 13.5547 20.5613 12.5347 20.5613C10.8397 20.5613 9.64045 20.1473 8.9407 19.3155C8.55895 18.8588 8.3047 18.1673 8.1757 17.2455H4.14445C4.14445 19.3478 4.9057 20.9993 6.4297 22.1985C7.95295 23.4015 10.0425 23.9993 12.699 23.9993C15.3052 23.9993 17.3197 23.3903 18.7462 22.1715C20.1727 20.9528 20.8875 19.4213 20.8875 17.5733C20.8875 15.7763 20.2852 14.4015 19.0822 13.4483C18.3052 12.8393 17.1412 12.3473 15.5865 11.9835L12.0435 11.1473C10.6762 10.827 9.78145 10.5503 9.3592 10.311C8.70295 9.95627 8.3752 9.41702 8.3752 8.69402C8.3752 8.63177 8.39545 8.57327 8.39845 8.51102L4.4962 8.51177ZM21.9217 21.8438C20.547 21.9015 20.547 23.9378 21.9217 23.9955C23.2927 23.9378 23.2927 21.9015 21.9217 21.8438ZM21.906 22.02C21.9097 22.02 21.9142 22.02 21.9217 22.02C23.0467 22.086 23.0467 23.7503 21.9217 23.8118C20.7885 23.7578 20.7765 22.0935 21.906 22.02ZM21.4837 22.2773V23.5515H21.7065V23.0625H21.9525L22.2105 23.5515H22.4445V23.5395L22.1595 23.0123C22.2292 22.9845 22.2885 22.938 22.3357 22.8795C22.3747 22.8128 22.398 22.7385 22.395 22.6643C22.395 22.605 22.383 22.551 22.359 22.4963C22.344 22.449 22.3117 22.41 22.2727 22.3793C22.23 22.344 22.1797 22.3163 22.1287 22.305C22.0657 22.2848 21.9997 22.2773 21.9337 22.2773H21.4837ZM21.7072 22.4573H21.9345C21.9697 22.4573 22.0087 22.461 22.0395 22.473C22.0942 22.488 22.1415 22.527 22.1565 22.5818C22.1805 22.641 22.1805 22.6988 22.1565 22.758C22.1482 22.785 22.1332 22.8053 22.1092 22.824C22.0905 22.8443 22.0665 22.8593 22.0395 22.8668C22.0042 22.8788 21.9697 22.887 21.9345 22.887H21.7072V22.4573Z" fill="black"/>
</g>
<defs>
<clipPath id="clip0_201_58388">
<rect width="24" height="24" fill="white"/>
</clipPath>
</defs>
</svg>
