<svg width="24" height="24" viewBox="0 0 24 24" fill="none" xmlns="http://www.w3.org/2000/svg">
<path d="M11.0003 13.3012L5.17651 21.4342C4.87951 21.8482 4.37551 22.0665 3.86776 22.0042C3.28951 21.9345 2.49301 21.7155 1.67251 21.1252C0.852014 20.535 0.391514 19.848 0.141764 19.3245C-0.0809857 18.8632 -0.0344857 18.3165 0.262514 17.8987L6.08626 9.76649C6.36301 9.37949 6.72751 9.05924 7.14826 8.84024L8.29351 8.23424C8.52376 8.11349 8.73076 7.94924 8.90251 7.75799C9.45751 7.12499 10.9493 5.47274 13.5983 2.80124L13.6455 2.58599C13.6523 2.53874 13.6913 2.49974 13.7385 2.48774L13.8878 2.44874C13.95 2.43374 13.9928 2.37449 13.9845 2.30849L13.9733 2.12849C13.965 2.05424 14.0205 1.98749 14.0985 1.98749C14.2733 1.97924 14.6138 2.03024 15.0983 2.37824C15.5783 2.72624 15.738 3.03449 15.789 3.20249C15.8123 3.27674 15.7658 3.35174 15.6953 3.36674L15.5205 3.40949C15.4575 3.42524 15.4148 3.48749 15.4185 3.55424L15.4305 3.70199C15.4343 3.75299 15.4103 3.80024 15.3675 3.82274L15.1808 3.93674C13.5045 7.30799 12.4185 9.25274 11.997 9.98249C11.868 10.2097 11.7818 10.4557 11.7428 10.7137L11.5358 11.9947C11.4615 12.4635 11.2778 12.9127 11.001 13.2997L11.0003 13.3012ZM23.7383 17.898L17.9145 9.76574C17.6378 9.37499 17.2733 9.05849 16.8525 8.83574L15.7073 8.22974C15.477 8.10899 15.27 7.94849 15.0983 7.75349C14.9063 7.53449 14.7113 7.31549 14.5125 7.10174C14.4698 7.05899 14.3985 7.06574 14.3715 7.11674C13.8098 8.20274 13.2278 9.27674 12.6255 10.3395C12.5393 10.4917 12.4808 10.6552 12.4538 10.8232C12.396 11.19 12.396 11.5612 12.4538 11.9295L12.4658 11.9917C12.54 12.465 12.7238 12.9097 13.0005 13.2967L18.8243 21.4297C19.1213 21.8437 19.6133 22.0657 20.1173 22.0035C20.9183 21.9015 21.6765 21.6015 22.3283 21.1245C22.98 20.6595 23.508 20.0422 23.859 19.3192C24.0818 18.858 24.0353 18.3112 23.7383 17.8972V17.898ZM8.30476 3.36674L8.47951 3.40949C8.54251 3.42524 8.58526 3.48374 8.58151 3.55049L8.56951 3.69824C8.56576 3.74924 8.58976 3.79649 8.63251 3.82349L8.81926 3.93749C9.12826 4.55849 9.41701 5.12849 9.68701 5.65574C9.71402 5.70674 9.77626 5.71874 9.81526 5.67599C10.2533 5.20724 10.7805 4.65224 11.4015 4.00799C11.4525 3.95699 11.4563 3.87074 11.4053 3.81599C11.0895 3.49574 10.761 3.15974 10.401 2.79674L10.3538 2.58599C10.347 2.53874 10.308 2.49974 10.2608 2.48774L10.1115 2.44874C10.0493 2.43374 10.0065 2.37449 10.0148 2.30849L10.026 2.12849C10.0343 2.05424 9.97876 1.99124 9.90526 1.98749C9.72901 1.97924 9.38626 2.03024 8.90101 2.37824C8.42101 2.72624 8.26501 3.03449 8.21026 3.20249C8.19001 3.27674 8.23351 3.35174 8.30851 3.36674H8.30476Z" fill="black"/>
</svg>
