<svg width="24" height="24" viewBox="0 0 24 24" fill="none" xmlns="http://www.w3.org/2000/svg">
<path d="M1.68372 0V0.35475L2.91747 1.40175C4.39422 2.60475 4.58547 2.844 4.58547 3.93V24H13.2337C17.7697 24 22.3155 22.371 22.3155 17.1517C22.3155 14.07 20.1405 11.691 17.1285 11.355V11.2852C19.6042 10.5435 21.3007 8.7465 21.3007 6.03525C21.3007 1.6605 17.5695 0.0045 13.9485 0.0045L1.68747 0.00075L1.68372 0ZM8.85897 3.66375H12.387C14.7697 3.66375 15.5077 3.9915 16.23 4.6755C16.7767 5.19825 17.0272 5.91375 17.031 6.7455C17.031 7.5225 16.7617 8.21475 16.1992 8.7495C15.492 9.42525 14.523 9.76125 12.7582 9.76125H8.86347V3.663L8.85897 3.66375ZM8.85897 13.422H12.9607C16.4137 13.422 18.0465 14.3048 18.0465 16.812C18.0465 19.965 14.9872 20.34 12.7882 20.34H8.85822L8.85897 13.422Z" fill="black"/>
</svg>
