<svg width="24" height="24" viewBox="0 0 24 24" fill="none" xmlns="http://www.w3.org/2000/svg">
<g clip-path="url(#clip0_201_58416)">
<path d="M21.8632 5.26572C22.1017 5.21847 22.3395 5.32047 22.473 5.52372C22.473 5.52372 22.9417 6.28122 23.2192 6.88722C23.493 7.49247 23.7622 8.34072 23.7622 8.34072C23.8245 8.57547 23.7427 8.82147 23.5515 8.96997L22.0477 10.044C21.8527 10.2 21.747 10.4385 21.7627 10.6882C21.7627 10.6882 21.849 11.2627 21.8602 11.7547C21.8677 12.2392 21.8212 12.8017 21.8212 12.8017C21.8137 13.0477 21.9345 13.2825 22.1377 13.4265L23.6962 14.4225C23.8875 14.5432 23.997 14.817 23.9385 15.0397C23.9385 15.0397 23.7157 15.8992 23.4697 16.5202C23.2275 17.1375 22.8015 17.919 22.8015 17.919C22.6807 18.126 22.446 18.2392 22.2075 18.204L20.3872 17.868C20.1412 17.8365 19.8952 17.9302 19.7272 18.114C19.7272 18.114 19.3485 18.6022 18.9735 18.9735C18.5595 19.3912 17.9775 19.833 17.9775 19.833C17.79 19.9972 17.6962 20.2432 17.7232 20.4892L18.0277 22.3132C18.0592 22.5517 17.9415 22.7857 17.7307 22.9027C17.7307 22.9027 16.9417 23.3167 16.317 23.547C15.6922 23.7817 14.829 23.9887 14.829 23.9887C14.5942 24.036 14.3527 23.9377 14.2192 23.739L13.2502 22.161C13.1092 21.9577 12.8752 21.8325 12.6292 21.8325C12.6292 21.8325 12.1335 21.8715 11.6797 21.8595C11.211 21.8437 10.6912 21.7695 10.6912 21.7695C10.4452 21.75 10.203 21.8557 10.047 22.0507L8.96846 23.5545C8.81996 23.7457 8.57396 23.8282 8.34371 23.7615C8.34371 23.7615 7.49246 23.496 6.88646 23.2185C6.28046 22.941 5.52296 22.4805 5.52296 22.4805C5.32346 22.3477 5.22221 22.1055 5.26871 21.867L5.65121 20.2695C5.73296 19.9372 5.99096 19.4722 6.22946 19.2345L10.2097 15.2385C13.4557 17.0272 17.022 13.461 15.237 10.215L19.2255 6.22647C19.4677 5.98422 19.929 5.72622 20.2605 5.64822L21.8632 5.26572ZM2.13296 18.7342C1.89821 18.777 1.65671 18.6757 1.52321 18.4762C1.52321 18.4762 1.05821 17.7187 0.780709 17.1127C0.503209 16.5067 0.237709 15.6592 0.237709 15.6592C0.170959 15.4245 0.253459 15.1785 0.444709 15.03L1.94846 13.956C2.14346 13.8 2.24921 13.5615 2.23346 13.3117C2.23346 13.3117 2.15171 12.7372 2.13971 12.2452C2.12771 11.7607 2.17871 11.1982 2.17871 11.1982C2.18246 10.9522 2.06546 10.7137 1.86221 10.569L0.303709 9.57672C0.104209 9.44022 0.00670897 9.19797 0.061459 8.96322C0.061459 8.96322 0.284209 8.09997 0.526459 7.47897C0.772459 6.86172 1.19846 6.07647 1.19846 6.07647C1.31921 5.86947 1.55396 5.75997 1.79246 5.79147L3.60896 6.13122C3.85871 6.16272 4.10471 6.06897 4.27271 5.88522C4.27271 5.88522 4.65146 5.39697 5.02271 5.02197C5.43671 4.60797 6.02246 4.17072 6.02246 4.17072C6.20996 4.00272 6.30371 3.75672 6.27671 3.51072L5.96846 1.68672C5.94146 1.44822 6.05846 1.21422 6.26921 1.09722C6.26921 1.09722 7.05821 0.68322 7.68296 0.44847C8.30396 0.21822 9.17096 0.0112201 9.17096 0.0112201C9.40571 -0.0360299 9.64721 0.0622201 9.78071 0.26097L10.7452 1.83897C10.89 2.04222 11.1202 2.16747 11.37 2.16297C11.37 2.16297 11.8657 2.12772 12.3195 2.13972C12.7845 2.15547 13.308 2.23347 13.308 2.23347C13.554 2.24922 13.7962 2.14347 13.9522 1.94847L15.0262 0.44472C15.1747 0.25347 15.4245 0.17097 15.6555 0.23772C15.6555 0.23772 16.5067 0.50322 17.1127 0.78072C17.718 1.05447 18.4725 1.51872 18.4725 1.51872C18.6757 1.65147 18.777 1.89372 18.7305 2.13222L18.3435 3.72972C18.234 4.11672 18.039 4.46772 17.7652 4.76472L13.785 8.76072C10.539 6.97197 6.97271 10.5382 8.76146 13.7842L4.77296 17.7727C4.53071 18.015 4.06571 18.273 3.73421 18.351L2.13296 18.7342Z" fill="black"/>
</g>
<defs>
<clipPath id="clip0_201_58416">
<rect width="24" height="24" fill="white"/>
</clipPath>
</defs>
</svg>
