<svg width="24" height="24" viewBox="0 0 24 24" fill="none" xmlns="http://www.w3.org/2000/svg">
<g clip-path="url(#clip0_201_58616)">
<path d="M21 -0.000453125H3C1.35225 -0.000453125 0 1.3518 0 2.99955V6.8583C0 6.8583 3.855 9.09705 4.098 9.2373C4.40625 9.4173 4.79325 9.41355 5.10225 9.2373C5.36325 9.08955 13.1212 4.62855 13.2382 4.56105C13.5165 4.4013 13.8165 4.45605 13.9845 4.5543C14.1488 4.6473 14.5943 4.90155 14.8245 5.03055C15.0593 5.1678 15.0473 5.53455 14.8403 5.6553L5.12925 11.245C4.78125 11.4438 4.4385 11.4483 4.0785 11.245C3.47775 10.9053 0.99675 9.4638 0.00075 8.8818V10.9008L4.09875 13.2798C4.407 13.4598 4.794 13.4598 5.103 13.2798C5.364 13.1358 13.122 8.67105 13.239 8.60355C13.5173 8.4438 13.8172 8.49855 13.9852 8.5968C14.1495 8.69355 14.595 8.94405 14.8253 9.0768C15.06 9.20955 15.048 9.57705 14.841 9.6978C14.634 9.81855 5.55225 15.0415 5.13 15.2875C4.782 15.4863 4.43925 15.4908 4.07925 15.2875C3.4785 14.9478 0.9975 13.5063 0.0015 12.9243V14.9433L4.0995 17.3223C4.40775 17.506 4.79475 17.5023 5.10375 17.3223C5.36475 17.1783 13.1228 12.7173 13.2397 12.646C13.518 12.4863 13.818 12.541 13.986 12.6393C14.1503 12.736 14.5957 12.9865 14.826 13.1193C15.0608 13.252 15.0487 13.6195 14.8417 13.7403L5.13075 19.33C4.78275 19.5288 4.44 19.5333 4.08 19.3338C3.47925 18.9895 0.99825 17.5488 0.00225 16.9668V20.998C0.00225 22.6458 1.3545 23.998 3.00225 23.998H21.0023C22.65 23.998 24.0022 22.6458 24.0022 20.998V2.99805C24.0022 1.3503 22.65 -0.00195312 21.0023 -0.00195312L21 -0.000453125Z" fill="black"/>
</g>
<defs>
<clipPath id="clip0_201_58616">
<rect width="24" height="24" fill="white"/>
</clipPath>
</defs>
</svg>
