<svg width="24" height="24" viewBox="0 0 24 24" fill="none" xmlns="http://www.w3.org/2000/svg">
<g clip-path="url(#clip0_201_57580)">
<path d="M12 0C5.37075 0 0 5.37075 0 12C0 18.6292 5.37075 24 12 24C18.6292 24 24 18.6292 24 12C24 5.37075 18.6292 0 12 0ZM12 0.99975C16.926 0.99975 21.2498 4.26975 22.59 9.012C21.465 11.3317 19.8787 13.398 17.9303 15.09C16.9882 15.8978 15.969 16.6208 14.8522 17.1292C13.719 17.6295 12.48 17.9303 11.25 17.8522C10.3162 17.8013 9.41025 17.5395 8.58975 17.0903C10.746 15.9263 12.672 14.3715 14.2695 12.5123C15.3667 11.328 16.1595 9.8955 16.5773 8.34C16.761 7.551 16.7805 6.738 16.62 5.94075C16.4557 5.15175 16.0852 4.422 15.5377 3.828C14.9947 3.258 14.304 2.84775 13.5375 2.64075C12.7755 2.4375 11.9827 2.40975 11.2095 2.559C9.6705 2.90175 8.27175 3.699 7.19775 4.85175C5.19 6.8085 4.116 9.53475 4.26075 12.3397C4.3935 14.0385 5.0805 15.6517 6.21 16.9298C5.05425 17.3318 3.86175 17.6168 2.64675 17.781C0.5535 14.3872 0.45975 10.1287 2.397 6.645C4.33875 3.16425 8.01075 1.00425 11.9992 0.99975H12ZM12.0697 3.219C12.84 3.219 13.6207 3.46125 14.238 3.92175C14.7892 4.3395 15.2107 4.941 15.441 5.60175C15.672 6.24975 15.738 6.969 15.648 7.65975C15.4298 9.04275 14.844 10.3395 13.9493 11.4218C12.2775 13.5817 10.086 15.2887 7.578 16.3785C7.10175 15.9607 6.68025 15.4605 6.37875 14.8973C5.742 13.7145 5.4795 12.366 5.62875 11.0302C5.7495 9.71025 6.21075 8.42925 6.828 7.2375C7.47975 5.8275 8.53125 4.64025 9.852 3.81975C10.5307 3.4485 11.301 3.219 12.0697 3.219ZM22.8983 10.5203C23.559 15.387 20.91 20.1022 16.41 22.0702C11.91 24.039 6.648 22.785 3.51975 19.0005C4.7655 18.7192 5.97975 18.3165 7.1475 17.8013C7.65975 18.1995 8.22975 18.5122 8.81925 18.738C10.581 19.3627 12.507 19.3477 14.2612 18.699C15.9952 18.051 17.5732 17.0467 18.897 15.75C20.511 14.2417 21.8617 12.48 22.8967 10.5308L22.8983 10.5203Z" fill="black"/>
</g>
<defs>
<clipPath id="clip0_201_57580">
<rect width="24" height="24" fill="white"/>
</clipPath>
</defs>
</svg>
