<svg width="24" height="24" viewBox="0 0 24 24" fill="none" xmlns="http://www.w3.org/2000/svg">
<path d="M2.457 1.37474C1.84425 1.37474 1.25775 1.60499 0.804746 2.01599C-0.133504 2.88299 -0.211504 4.34774 0.554996 5.37899L5.469 11.9692L0.522746 18.621C-0.238504 19.6522 -0.180004 21.117 0.776996 21.984C1.848 22.9612 3.52725 22.8007 4.395 21.6412L11.301 12.3592C11.4652 12.1335 11.4652 11.8245 11.301 11.598L4.422 2.35874C3.96075 1.73774 3.23025 1.37099 2.457 1.37474ZM21.5467 1.37474C20.7697 1.37099 20.0385 1.73774 19.578 2.35874L12.7192 11.5815C12.5512 11.8087 12.5512 12.1162 12.7192 12.3435L19.605 21.6405C20.4727 22.8007 22.152 22.9605 23.223 21.9832C24.18 21.1162 24.2377 19.6515 23.4772 18.6202L18.531 11.9685L23.4487 5.37824C24.2107 4.34699 24.1365 2.88224 23.1945 2.01524C22.7415 1.60424 22.1557 1.37849 21.5422 1.37399L21.5467 1.37474Z" fill="black"/>
</svg>
