<svg width="24" height="24" viewBox="0 0 24 24" fill="none" xmlns="http://www.w3.org/2000/svg">
<g clip-path="url(#clip0_201_57676)">
<path d="M15.9105 0C12.7897 0 9.69148 0 6.60223 0.0315C6.60223 0.07875 6.53998 0.07875 6.51223 0.1095C5.12173 0.69525 3.87148 1.5705 2.85223 2.67975C2.01223 3.5505 1.32898 4.578 0.789734 5.67975C0.590234 6.0585 0.410984 6.46875 0.239234 6.879C0.219734 6.96075 0.191984 7.0785 0.110234 7.12875V13.3515C0.161234 13.4295 0.161234 13.551 0.191984 13.6485C0.727484 15.6135 1.93798 17.3205 3.60973 18.4808C3.64123 18.5123 3.66073 18.5707 3.71923 18.5392C3.69223 18.5122 3.69223 18.4807 3.66073 18.4613C3.42223 18.102 3.19948 17.7698 2.98873 17.4225C1.97698 15.7507 1.52773 13.7978 1.71148 11.8523C1.90273 10.2233 2.49298 8.6685 3.42223 7.32075C4.46098 5.7855 5.68423 4.383 7.05898 3.141C8.03173 2.262 9.13348 1.5315 10.3207 0.981C11.7037 0.34425 13.2232 0.075 14.739 0.1995C15.4425 0.26175 16.1295 0.37125 16.809 0.46875L17.0002 0.50025C17.0782 0.53175 17.1292 0.53175 17.211 0.53175C16.8285 0.37125 16.449 0.1995 16.0702 0.09C16.0192 0.0705 15.969 0.0705 15.9097 0.012L15.9105 0ZM14.25 0.66C13.8202 0.6795 13.41 0.711 12.9802 0.789C12.2377 0.93 11.5387 1.14825 10.8277 1.371C10.3275 1.527 9.84748 1.734 9.38998 1.98825C9.37048 1.98825 9.30823 1.98825 9.30823 2.0505H9.35923C10.371 1.8825 11.3865 1.773 12.4102 1.71825C12.9217 1.69125 13.4685 1.71825 13.9807 1.8C14.7382 1.9095 15.4492 2.19075 16.1017 2.5695C18.012 3.65175 19.5472 5.292 20.5005 7.269C21.2932 8.976 21.762 10.8195 21.8797 12.699C21.942 13.3515 21.942 14.0385 21.9112 14.7188L21.8295 15.8595C21.8025 16.1917 21.7515 16.5195 21.693 16.8517C21.642 17.2463 21.5482 17.6407 21.4237 18.0195C21.0292 18.996 20.5095 19.914 19.8727 20.7502C19.3807 21.4102 18.822 22.0117 18.2715 22.6095C18.1935 22.6912 18.1425 22.7385 18.0802 22.8285C18.1425 22.8285 18.1425 22.8015 18.162 22.8015C18.9742 22.329 19.7482 21.7898 20.4705 21.192C21.9 20.0048 23.0017 18.4733 23.6737 16.7385L23.8417 16.3283H23.8732V22.1993C23.8732 22.2188 23.8732 13.0312 23.8927 7.19925C23.8927 7.21875 23.8927 7.25025 23.8732 7.26975L23.8417 7.17975C23.4705 6.1995 22.959 5.2815 22.3222 4.449C21.4822 3.35925 20.4157 2.457 19.2015 1.80825C17.682 0.996 15.975 0.597 14.2522 0.66H14.25ZM23.8792 7.19925L23.8912 7.17975V1.74975V7.19925H23.8792ZM10.8787 3.87075C10.4805 3.828 10.0777 3.96075 9.69148 4.2885C9.41398 4.5345 9.20323 4.8435 9.07048 5.19075C8.73823 5.988 8.69173 6.76875 8.85148 7.58925C8.96098 8.2185 9.24973 8.769 9.76948 9.171C10.2892 9.60825 10.8907 9.67125 11.43 9.3705C11.7622 9.171 12 8.92875 12.192 8.601C12.5205 8.031 12.6487 7.398 12.6487 6.74925C12.6487 6.4485 12.6292 6.171 12.5707 5.87025C12.4965 5.35425 12.282 4.8705 11.9497 4.46775C11.6805 4.13925 11.2935 3.92475 10.8712 3.87L10.8787 3.87075ZM15.9997 5.14875C15.336 5.17575 14.7105 5.47725 14.2807 5.9805C13.98 6.24975 13.8195 6.60975 13.6282 6.96075C13.3702 7.42575 13.2375 7.95675 13.2495 8.48775C13.2495 8.87025 13.3005 9.23025 13.4602 9.5895C13.7377 10.2382 14.2612 10.5893 14.898 10.5893C15.3705 10.5893 15.7492 10.4288 16.101 10.1595C16.9327 9.546 17.4757 8.61675 17.601 7.58925C17.6482 7.128 17.601 6.65925 17.4292 6.1905C17.2687 5.7885 17.031 5.4405 16.6087 5.26875C16.4175 5.19075 16.2142 5.15175 16.011 5.148L15.9997 5.14875ZM6.37873 7.5585C5.94148 7.59 5.53873 7.76175 5.26948 8.16C4.91023 8.66025 4.80073 9.23025 4.76923 9.801C4.74973 10.3988 4.88998 10.9493 5.15998 11.469C5.37898 11.8988 5.67148 12.2895 6.07798 12.5707C6.60148 12.9105 7.25023 12.9105 7.71073 12.5903C7.97998 12.3908 8.17198 12.1215 8.30848 11.8207C8.57773 11.1915 8.62873 10.5202 8.46898 9.82875C8.33248 9.11025 7.96123 8.454 7.41073 7.9695C7.10998 7.731 6.78973 7.57125 6.37948 7.57125L6.37873 7.5585ZM18.2385 10.1993C17.9302 10.1873 17.6175 10.2577 17.34 10.3988C16.5 10.7933 15.8475 11.5005 15.5317 12.3713C15.321 12.8715 15.282 13.4258 15.4222 13.9493C15.5587 14.4495 15.8205 14.8005 16.3207 14.9415C16.512 14.9888 16.719 15.0195 16.9222 15.0195C17.2387 15.0195 17.4615 14.988 17.7195 14.8515C18.2505 14.6093 18.6495 14.25 19.0005 13.8202C19.5787 13.1407 19.809 12.234 19.6297 11.3595C19.5592 10.785 19.1137 10.3282 18.54 10.2382C18.4425 10.2188 18.3405 10.2067 18.2392 10.1993H18.2385ZM11.1292 11.8515C11.0512 11.8515 10.9102 11.8515 10.7812 11.8785C10.2577 11.9018 9.74623 12.039 9.28123 12.2805C8.67973 12.6203 8.17948 13.05 7.71073 13.5382C7.17973 14.0933 6.71098 14.706 6.32023 15.3705C6.10948 15.7492 5.96848 16.1715 5.99998 16.6012C6.03148 16.851 6.03148 17.07 6.14098 17.2808C6.44173 17.6715 6.83998 17.9408 7.32823 18.0502C7.78948 18.1283 8.24998 18.0772 8.71123 18.0187C9.23098 17.9678 9.71098 17.9212 10.2112 17.9408C10.9882 17.988 11.7112 18.2377 12.3285 18.7297C12.5707 18.9292 12.7897 19.14 13.059 19.3275C13.5705 19.6905 14.1217 19.851 14.739 19.71C15.2625 19.6088 15.6097 19.2803 15.7192 18.7605C15.8205 18.3188 15.801 17.9093 15.7387 17.4675C15.657 16.9598 15.5355 16.4595 15.3712 15.9675C15.1327 15.1785 14.7967 14.4165 14.3715 13.71C14.0707 13.2098 13.7115 12.78 13.2195 12.4485C12.6022 12.042 11.8717 11.835 11.13 11.8507L11.1292 11.8515ZM0.109484 14.6407V16.77C0.210734 16.899 0.269984 17.0708 0.328484 17.2313C0.859484 18.7628 1.67998 20.1847 2.73898 21.411C3.78973 22.563 5.10598 23.442 6.57073 23.9692C6.60223 23.9692 6.62173 24.0007 6.64873 24.0007H14.6602C14.6917 23.9692 14.6917 23.9692 14.7112 23.9692C15.4102 23.7547 16.0785 23.4532 16.6995 23.0707C18.5512 21.9105 20.028 20.2463 20.961 18.27C21.3907 17.262 21.6097 16.1917 21.66 15.0705C21.6832 14.9925 21.6832 14.9062 21.66 14.8282C21.6405 14.8515 21.609 14.8792 21.609 14.91L21.39 15.609C21.015 16.8045 20.3745 17.898 19.5187 18.8085C18.7177 19.6447 17.745 20.2927 16.671 20.7188C15.7177 21.1095 14.718 21.2693 13.6785 21.3202C12.921 21.3517 12.1905 21.3202 11.46 21.2692C10.4167 21.1912 9.38173 21.0427 8.35873 20.8275C7.05373 20.5387 5.79598 20.0813 4.60873 19.4678C3.32323 18.7957 2.19823 17.8545 1.30798 16.71C0.800234 16.089 0.397484 15.39 0.108734 14.64L0.109484 14.6407Z" fill="black"/>
</g>
<defs>
<clipPath id="clip0_201_57676">
<rect width="24" height="24" fill="white"/>
</clipPath>
</defs>
</svg>
