<svg width="24" height="24" viewBox="0 0 24 24" fill="none" xmlns="http://www.w3.org/2000/svg">
<g clip-path="url(#clip0_201_58340)">
<path d="M0 0V24H24V0H0ZM11.5192 21.891L10.191 19.3522H8.39775V21.891H5.99925V12.6915H10.128C12.5693 12.6915 13.9598 13.8787 13.9598 15.93C13.9598 17.3205 13.3777 18.3285 12.3187 18.891L14.2365 21.891H11.5192ZM22.8787 21.891H15.4995V12.6915H22.7377V14.6093H17.898V16.3283H22.281V18.2302L17.898 18.2377V19.968H22.89V21.8903L22.8787 21.891ZM11.6798 15.9998C11.6798 16.9298 11.121 17.4293 10.1483 17.4293H8.3985V14.6093H10.1483C11.121 14.6093 11.6798 15.1013 11.6798 16.0118V15.9998Z" fill="black"/>
</g>
<defs>
<clipPath id="clip0_201_58340">
<rect width="24" height="24" fill="white"/>
</clipPath>
</defs>
</svg>
