<svg width="24" height="24" viewBox="0 0 24 24" fill="none" xmlns="http://www.w3.org/2000/svg">
<path d="M11.9918 1.047H12.0157C12.9135 1.047 13.746 1.34775 14.4135 1.85175H14.4172C14.8785 2.199 15.261 2.6445 15.534 3.1515L19.9988 10.9215L20.0257 10.9837L23.4435 16.914C23.8072 17.5267 23.9985 18.2302 23.9985 18.9487C23.9985 19.512 23.8815 20.0505 23.6707 20.5387L23.6745 20.5545C23.5147 20.9175 23.3032 21.2497 23.0415 21.5505C22.7445 21.8947 22.3935 22.1902 21.9945 22.4175C21.4043 22.7617 20.7323 22.9447 20.0497 22.9522H19.983C19.116 22.9522 18.276 22.671 17.5853 22.1475H17.5815C17.1202 21.8002 16.7377 21.3547 16.4647 20.8477L12 13.0777L11.973 13.0155L8.53875 7.05825C8.184 6.4485 7.9995 5.757 7.9995 5.0505C7.9995 4.62825 8.0655 4.21875 8.18775 3.8355L8.1945 3.8115L8.2065 3.78075C8.2575 3.62475 8.3235 3.44475 8.3235 3.44475C8.4795 3.0855 8.69475 2.754 8.94825 2.46075L9.01125 2.3865L9.02625 2.37075V2.367H9.03L9.03825 2.355L9.0465 2.352C9.31575 2.055 9.63675 1.79325 10.0035 1.58175C10.5938 1.2375 11.2657 1.0545 11.9482 1.047H11.9918ZM4.008 22.953H3.94875C3.2655 22.9447 2.5935 22.7617 2.004 22.4182C1.605 22.191 1.254 21.8955 0.957 21.5512C0.69525 21.2505 0.48375 20.9182 0.324 20.5552L0.32775 20.5395C0.10875 20.0392 0 19.4962 0 18.9495C0 18.2032 0.20325 17.5087 0.555 16.9147L3.97275 10.9845L3.99975 10.9222L7.03875 5.637C7.113 6.28125 7.31175 6.91425 7.63275 7.49175L7.6905 7.59L11.0655 13.4452V13.434L11.1322 13.578L11.421 14.0857L7.53375 20.8477C7.26075 21.3547 6.8775 21.801 6.417 22.1475H6.41325C5.7225 22.6717 4.8825 22.9522 4.0155 22.9522L4.008 22.953Z" fill="black"/>
</svg>
