<svg width="24" height="24" viewBox="0 0 24 24" fill="none" xmlns="http://www.w3.org/2000/svg">
<g clip-path="url(#clip0_201_58118)">
<path d="M16.4062 5.67598C16.2892 5.67598 16.2112 5.69173 16.1325 5.71123V5.72323H16.1445C16.1992 5.82448 16.2892 5.90323 16.359 5.99698C16.4137 6.10273 16.4602 6.21148 16.5112 6.31723L16.527 6.30148C16.6207 6.23473 16.668 6.12973 16.668 5.96923C16.629 5.92198 16.6207 5.87173 16.5862 5.82823C16.5472 5.76148 16.461 5.72698 16.4062 5.67598ZM5.76973 18.8707H4.84423C4.81273 17.3085 4.71898 15.8392 4.57498 14.4607H4.56748L3.15748 18.8707H2.45023L1.05148 14.4607H1.03948C0.938232 15.7807 0.871482 17.2537 0.844482 18.8707H0.000732422C0.0554824 16.902 0.191982 15.0585 0.410982 13.3395H1.55923L2.89498 17.4022H2.90248L4.25023 13.3395H5.34373C5.58598 15.3555 5.73073 17.199 5.77348 18.8707H5.76973ZM9.78523 14.7892C9.41023 16.836 8.90998 18.3247 8.29723 19.2502C7.81273 19.965 7.28548 20.3242 6.71098 20.3242C6.55873 20.3242 6.37123 20.277 6.14473 20.1832V19.6912C6.25798 19.707 6.38698 19.7182 6.53173 19.7182C6.80098 19.7182 7.01623 19.6402 7.18048 19.4955C7.37548 19.3155 7.47373 19.113 7.47373 18.8902C7.47373 18.7342 7.39948 18.4215 7.24348 17.9452L6.23173 14.7892H7.14223L7.86898 17.1487C8.03323 17.688 8.10373 18.0592 8.07223 18.2737C8.47423 17.211 8.75173 16.047 8.90848 14.7892H9.78523ZM22.113 18.8707H19.4805V13.3395H20.367V18.1912H22.113V18.8707ZM18.7927 19.0042L17.7772 18.504C17.8672 18.4297 17.9527 18.348 18.0315 18.2542C18.465 17.7502 18.6802 16.9965 18.6802 16.0042C18.6802 14.172 17.9617 13.2585 16.524 13.2585C15.8205 13.2585 15.27 13.4887 14.8755 13.9537C14.4457 14.4615 14.2267 15.2115 14.2267 16.2C14.2267 17.1727 14.418 17.8837 14.8012 18.3405C15.153 18.747 15.6802 18.954 16.3875 18.954C16.6492 18.954 16.8915 18.9225 17.1105 18.8565L18.435 19.6297L18.798 19.005L18.7927 19.0042ZM15.5002 17.7615C15.2737 17.4022 15.1642 16.824 15.1642 16.0267C15.1642 14.6325 15.5865 13.9372 16.434 13.9372C16.8757 13.9372 17.2035 14.1052 17.4105 14.4375C17.6332 14.8005 17.7465 15.3712 17.7465 16.1602C17.7465 17.5627 17.3205 18.27 16.4767 18.27C16.0312 18.27 15.7072 18.102 15.4965 17.7697L15.5002 17.7615ZM13.8435 17.34C13.8435 17.8087 13.6717 18.1957 13.3237 18.492C12.9802 18.7927 12.5227 18.945 11.9407 18.945C11.3977 18.945 10.878 18.7732 10.3665 18.429L10.605 17.9527C11.0422 18.1717 11.4367 18.2812 11.7967 18.2812C12.129 18.2812 12.3907 18.207 12.5782 18.0622C12.7657 17.9137 12.879 17.7067 12.879 17.445C12.879 17.1165 12.6487 16.8352 12.2302 16.6012C11.8432 16.3867 11.0662 15.945 11.0662 15.945C10.644 15.6367 10.437 15.3082 10.437 14.7652C10.437 14.316 10.593 13.9567 10.9057 13.683C11.2222 13.4017 11.6242 13.2652 12.1245 13.2652C12.636 13.2652 13.1047 13.4017 13.527 13.6755L13.3125 14.1517C12.9532 13.9995 12.5977 13.9215 12.2497 13.9215C11.9647 13.9215 11.7457 13.992 11.5935 14.1285C11.4412 14.265 11.3475 14.4367 11.3475 14.652C11.3475 14.9805 11.5822 15.2617 12.0112 15.5032C12.4057 15.7177 13.1985 16.1715 13.1985 16.1715C13.632 16.476 13.8472 16.8045 13.8472 17.3392L13.8435 17.34ZM23.223 11.4847C22.6875 11.4727 22.2735 11.5275 21.9262 11.676C21.8287 11.715 21.6682 11.715 21.6525 11.8402C21.7072 11.895 21.7147 11.9812 21.762 12.0547C21.8437 12.1875 21.981 12.3675 22.11 12.4612C22.251 12.5707 22.3912 12.6802 22.536 12.774C22.7977 12.9345 23.091 13.0282 23.3482 13.188C23.493 13.2817 23.6415 13.4025 23.7855 13.5007C23.8597 13.5517 23.9062 13.6417 24 13.6725V13.653C23.9527 13.5945 23.9415 13.5082 23.8942 13.4385C23.8275 13.3717 23.7615 13.3132 23.6947 13.2472C23.4997 12.9855 23.2612 12.759 22.9995 12.5715C22.785 12.4267 22.3162 12.2235 22.23 11.9775L22.218 11.9617C22.3627 11.9497 22.5345 11.895 22.6747 11.856C22.9012 11.7975 23.112 11.8087 23.3467 11.7502C23.4525 11.7232 23.5575 11.6917 23.667 11.6565V11.598C23.5462 11.4772 23.4562 11.313 23.331 11.1997C22.9912 10.9065 22.6162 10.6177 22.2292 10.3792C22.0185 10.2427 21.753 10.1565 21.5302 10.0432C21.4522 10.0042 21.3157 9.98473 21.2722 9.91798C21.1515 9.76948 21.081 9.57823 20.9947 9.40198C20.8035 9.03448 20.616 8.62873 20.448 8.23798C20.3272 7.97623 20.2567 7.71823 20.1082 7.47598C19.4205 6.33898 18.6705 5.65198 17.5222 4.97623C17.2762 4.83523 16.9792 4.77673 16.6665 4.70248C16.4985 4.69498 16.3342 4.68298 16.1662 4.67548C16.0567 4.62823 15.9517 4.50373 15.858 4.44073C15.4755 4.19848 14.4907 3.67873 14.2132 4.36648C14.0332 4.80373 14.4787 5.22973 14.6355 5.44873C14.7487 5.60473 14.8935 5.77723 14.9752 5.94898C15.0225 6.06598 15.0337 6.18748 15.081 6.30823C15.1867 6.60148 15.288 6.92923 15.429 7.20298C15.5032 7.34398 15.5812 7.49173 15.675 7.61698C15.7297 7.69123 15.8235 7.72273 15.843 7.84348C15.7492 7.97998 15.7417 8.17948 15.6907 8.34373C15.4485 9.10123 15.5422 10.035 15.882 10.5937C15.9915 10.7617 16.245 11.1292 16.5855 10.9882C16.8862 10.8675 16.8202 10.488 16.9057 10.152C16.9252 10.0702 16.9132 10.0192 16.953 9.96448V9.98023C17.0505 10.1677 17.1442 10.3477 17.2305 10.5352C17.4337 10.8637 17.7967 11.2035 18.0975 11.43C18.258 11.5507 18.3825 11.7585 18.582 11.832V11.8125H18.5662C18.5235 11.754 18.4687 11.7262 18.414 11.6797C18.2932 11.559 18.1597 11.4105 18.0622 11.2777C17.7847 10.9027 17.535 10.4887 17.316 10.0627C17.2065 9.85198 17.1127 9.62548 17.0272 9.41848C16.9882 9.34048 16.9882 9.21898 16.9215 9.17998C16.8202 9.32473 16.6717 9.44923 16.6012 9.63298C16.4722 9.91798 16.4602 10.2735 16.41 10.641C16.3867 10.6485 16.398 10.641 16.3867 10.6567C16.1722 10.602 16.098 10.383 16.0192 10.1955C15.816 9.71923 15.7845 8.95723 15.957 8.41048C16.0042 8.26948 16.203 7.82848 16.125 7.69573C16.0822 7.56673 15.9495 7.49248 15.879 7.39123C15.789 7.26598 15.699 7.10623 15.6367 6.96523C15.4762 6.59023 15.3982 6.17623 15.2227 5.80123C15.1447 5.62948 15.0037 5.44948 14.8905 5.28973C14.7615 5.10973 14.6212 4.98148 14.523 4.76998C14.4877 4.69573 14.4412 4.57498 14.496 4.49623C14.508 4.44148 14.535 4.42198 14.5897 4.40623C14.676 4.33198 14.9257 4.42573 15.012 4.46848C15.258 4.56598 15.465 4.65973 15.672 4.80073C15.7657 4.86748 15.867 4.99198 15.9885 5.02723H16.1295C16.344 5.07448 16.5825 5.03923 16.782 5.10148C17.1375 5.21473 17.4577 5.37898 17.7465 5.55823C18.6217 6.11698 19.3402 6.90598 19.8285 7.84723C19.9102 7.99948 19.9455 8.14048 20.0197 8.30023C20.1562 8.63248 20.3325 8.96398 20.4727 9.28048C20.613 9.59698 20.7465 9.91723 20.949 10.179C21.0502 10.32 21.4492 10.3935 21.6322 10.464C21.765 10.5262 21.972 10.581 22.089 10.6515C22.3192 10.7925 22.5457 10.9522 22.761 11.1082C22.8705 11.1825 23.2027 11.3505 23.2222 11.4832L23.223 11.4847Z" fill="black"/>
</g>
<defs>
<clipPath id="clip0_201_58118">
<rect width="24" height="24" fill="white"/>
</clipPath>
</defs>
</svg>
