<svg width="24" height="24" viewBox="0 0 24 24" fill="none" xmlns="http://www.w3.org/2000/svg">
<g clip-path="url(#clip0_201_58474)">
<path d="M6.55052 18.7765C4.69427 18.7765 3.17927 18.4405 1.95227 17.1753L3.87002 15.2695C4.50302 15.8973 5.61227 16.1208 6.58502 16.1208C7.77227 16.1208 8.32277 15.73 8.32277 15.031C8.32277 14.7423 8.26502 14.5038 8.08502 14.3163C7.93727 14.1603 7.68302 14.0433 7.29227 13.9923L5.83502 13.7853C4.77227 13.6375 3.94427 13.2775 3.40502 12.715C2.85077 12.1368 2.56502 11.32 2.56502 10.2813C2.53427 8.06655 4.19777 6.44955 6.96002 6.44955C8.69777 6.44955 10.0073 6.8553 11.046 7.89855L9.17102 9.77055C8.40527 9.0048 7.40102 9.0558 6.87377 9.0558C5.83502 9.0558 5.40902 9.6528 5.40902 10.1808C5.40902 10.333 5.46002 10.5558 5.65127 10.7425C5.80052 10.8955 6.05402 11.0478 6.48302 11.1025L7.94777 11.3058C9.03752 11.458 9.82277 11.7978 10.335 12.31C10.9793 12.9393 11.2328 13.8408 11.2328 14.9658C11.2328 17.4348 9.10802 18.7818 6.55352 18.7818L6.55052 18.7765ZM20.811 2.65155C19.179 1.43355 17.37 0.612297 15.0893 0.237297V11.1123L18.351 6.5733H21.9128L17.8185 12.292C17.8185 12.292 18.7643 13.804 19.3343 14.698C19.92 15.5973 20.4713 15.8388 21.2993 15.8388H21.8693V18.6438H20.994C19.1858 18.6438 18.096 18.3108 17.2748 17.0688C16.7708 16.2565 15.0998 13.6315 15.0998 13.6315V18.6273H12.1185V-0.00195312H11.9978C8.14577 -0.00195312 5.49002 0.928047 3.18602 2.65005C-0.134983 5.1348 -0.00223272 8.4468 -0.00223272 11.9943C-0.00223272 15.5418 -0.134983 18.8613 3.18602 21.346C5.49002 23.0718 8.14577 23.998 11.9978 23.998C15.8498 23.998 18.51 23.0718 20.8095 21.346C24.1305 18.8613 23.9978 15.541 23.9978 11.9943C23.9978 8.44755 24.1305 5.13555 20.8095 2.65005L20.811 2.65155Z" fill="black"/>
</g>
<defs>
<clipPath id="clip0_201_58474">
<rect width="24" height="24" fill="white"/>
</clipPath>
</defs>
</svg>
