<svg width="24" height="24" viewBox="0 0 24 24" fill="none" xmlns="http://www.w3.org/2000/svg">
<g clip-path="url(#clip0_201_57760)">
<path d="M23.0003 10.6252C22.9575 10.2232 22.8945 9.7545 22.7655 9.24225C22.6365 8.73 22.4258 8.17575 22.1483 7.58175C21.8475 7.00725 21.4883 6.38625 20.9963 5.8125C20.805 5.57775 20.5943 5.367 20.379 5.133C20.7188 3.789 19.9725 2.6175 19.9725 2.6175C18.6758 2.53575 17.8673 3.024 17.5665 3.2385C17.5238 3.21525 17.4608 3.19575 17.418 3.17175C17.2073 3.09 16.9725 3.00375 16.7385 2.9175C16.5038 2.85075 16.2698 2.769 16.035 2.72625C15.8003 2.6595 15.5468 2.61675 15.2888 2.574C15.246 2.574 15.2025 2.5545 15.1598 2.5545C14.6093 0.76575 12.9878 0 12.9878 0C11.136 1.19175 10.773 2.78925 10.773 2.78925C10.773 2.78925 10.773 2.832 10.7535 2.8755C10.6478 2.895 10.5623 2.93775 10.4565 2.96175C10.3275 3.0045 10.179 3.048 10.05 3.11025C9.92101 3.1725 9.7725 3.216 9.64351 3.27825C9.366 3.40725 9.1125 3.53625 8.835 3.68475C8.58076 3.8295 8.33101 3.9855 8.09251 4.1535C8.04976 4.134 8.02576 4.11075 8.02576 4.11075C5.53351 3.15375 3.31876 4.302 3.31876 4.302C3.12751 6.966 4.32301 8.6265 4.55701 8.92275C4.49026 9.0945 4.44751 9.243 4.38526 9.41475C4.19401 10.0163 4.06126 10.6372 3.97875 11.2665C3.95926 11.3527 3.95926 11.4578 3.93601 11.544C1.63876 12.6728 0.955505 15.0165 0.955505 15.0165C2.87326 17.2312 5.13151 17.3565 5.13151 17.3565C5.41276 17.868 5.74126 18.3525 6.11176 18.8055C6.26026 18.9967 6.42826 19.1685 6.60001 19.3605C5.89651 21.3608 6.70576 23.0438 6.70576 23.0438C8.85826 23.13 10.2645 22.1063 10.5615 21.8715L11.1983 22.0627C11.8583 22.2345 12.5423 22.3403 13.2023 22.3635H14.073C15.0773 23.8088 16.866 24.0037 16.866 24.0037C18.12 22.6597 18.2055 21.3593 18.2055 21.0623V20.9333C18.4635 20.742 18.717 20.5507 18.975 20.3392C19.4828 19.89 19.9088 19.359 20.295 18.804C20.3378 18.7612 20.3573 18.6982 20.4008 18.6555C21.8265 18.7418 22.8263 17.7607 22.8263 17.7607C22.5915 16.2727 21.7403 15.546 21.5723 15.4208L21.5295 15.378L21.51 15.3547C21.51 15.273 21.5295 15.1868 21.5295 15.0773C21.549 14.9093 21.549 14.7607 21.549 14.589V13.9718C21.549 13.929 21.549 13.8855 21.5295 13.8428L21.4868 13.5885C21.4673 13.4167 21.4245 13.2682 21.4005 13.0965C21.252 12.4672 21.0098 11.862 20.6775 11.3077C20.3415 10.7685 19.935 10.284 19.4625 9.85875C19.0058 9.45675 18.4898 9.1245 17.931 8.88225C17.4 8.6325 16.8293 8.47575 16.2473 8.40975C15.9698 8.367 15.6728 8.367 15.396 8.367H14.97C14.8215 8.39025 14.673 8.40975 14.544 8.43375C13.9695 8.5395 13.4348 8.754 12.966 9.02775C12.4973 9.30525 12.0953 9.66825 11.7548 10.071C11.4225 10.458 11.1608 10.8952 10.9853 11.3715C10.8173 11.817 10.7078 12.309 10.6883 12.7545V13.266C10.6883 13.3282 10.6883 13.3717 10.7078 13.4377C10.7745 14.094 11.016 14.7187 11.4113 15.246C11.6693 15.5857 11.9423 15.8438 12.2625 16.0545C12.5828 16.269 12.903 16.4175 13.2428 16.5233C13.5863 16.6327 13.9028 16.6717 14.1998 16.6522H14.649C14.6918 16.6522 14.7308 16.6327 14.7548 16.6327C14.7975 16.6327 14.817 16.6095 14.8605 16.6095C14.9228 16.59 15.009 16.5667 15.0713 16.5472C15.2003 16.5045 15.3293 16.4415 15.4583 16.3988C15.5835 16.332 15.6885 16.2698 15.7748 16.2038C15.798 16.1842 15.8415 16.161 15.861 16.1415C15.9668 16.0597 15.9863 15.9067 15.9038 15.8018C15.8175 15.72 15.693 15.6922 15.5835 15.735C15.564 15.7582 15.5408 15.7583 15.5018 15.7778C15.4118 15.825 15.318 15.8595 15.2243 15.8873C15.1148 15.9068 15.0098 15.9495 14.904 15.969C14.8418 15.969 14.7983 15.9923 14.7323 15.9923H14.373C14.3535 15.9923 14.373 15.9923 14.373 15.9923H14.2868C14.2635 15.9923 14.2245 15.9922 14.2005 15.969C13.9658 15.9262 13.7123 15.8632 13.4775 15.7582C13.2428 15.6487 13.0088 15.5003 12.8175 15.309C12.603 15.1178 12.435 14.907 12.2865 14.649C12.138 14.3947 12.0518 14.118 12.009 13.8405C11.9858 13.692 11.9663 13.5435 11.9858 13.395V13.266C11.9858 13.266 11.9858 13.2855 11.9858 13.266V13.1603C11.9858 13.074 12.009 13.0117 12.0285 12.9255C12.1418 12.2655 12.462 11.6595 12.9465 11.199C13.0755 11.07 13.2008 10.9643 13.353 10.8825C13.5015 10.773 13.65 10.6875 13.7985 10.6245C13.947 10.5615 14.1188 10.4955 14.2868 10.4528C14.4585 10.41 14.6303 10.371 14.7983 10.371C14.8845 10.371 14.97 10.3477 15.0563 10.3477H15.2243C15.2243 10.3477 15.2475 10.3477 15.2243 10.3477H15.3105C15.8805 10.395 16.4318 10.5623 16.9313 10.8398C17.6108 11.2222 18.1853 11.7968 18.525 12.5002C18.6968 12.84 18.8258 13.2233 18.888 13.629C18.9075 13.7348 18.9075 13.8203 18.9308 13.926V14.481C18.9308 14.5868 18.9113 14.6955 18.9113 14.8013C18.888 14.907 18.888 15.012 18.8685 15.1178L18.8018 15.438C18.7823 15.5437 18.6765 15.8445 18.6105 16.0553C18.5483 16.2698 18.2513 16.8442 17.9933 17.184C17.4773 17.895 16.7865 18.4575 15.9893 18.825C15.5873 18.9967 15.1808 19.1453 14.7548 19.2075C14.544 19.2502 14.3325 19.2743 14.118 19.2743H13.7978C13.7978 19.2743 13.8173 19.2743 13.7978 19.2743H13.7783C13.6725 19.2743 13.5435 19.2743 13.4348 19.251C12.966 19.2083 12.5205 19.122 12.0713 18.9967C11.6258 18.8678 11.2005 18.696 10.794 18.4852C9.98551 18.048 9.267 17.454 8.68876 16.7393C8.41126 16.3762 8.15326 15.993 7.94251 15.591C7.72801 15.1845 7.57951 14.7592 7.45051 14.3333C7.32976 13.9035 7.25551 13.4625 7.23976 13.0133V12.3533C7.23976 12.1425 7.25926 11.9078 7.30201 11.6737C7.32526 11.439 7.36876 11.2245 7.40775 10.9905C7.45051 10.7603 7.51726 10.545 7.5795 10.311C7.64176 10.077 7.85701 9.44025 8.04825 9.03375C8.43076 8.22525 8.92351 7.4985 9.49726 6.924C9.64576 6.7755 9.79426 6.6465 9.96601 6.522C10.0283 6.45525 10.1768 6.327 10.3485 6.22125C10.5165 6.1155 10.6883 6.0105 10.8795 5.92425C10.9658 5.8815 11.0513 5.838 11.157 5.79525C11.1998 5.77575 11.2433 5.7525 11.3055 5.733C11.3483 5.7135 11.3918 5.69025 11.454 5.66625C11.6453 5.5845 11.8365 5.51775 12.0285 5.4555C12.0713 5.436 12.138 5.436 12.1808 5.41275C12.2235 5.3895 12.2865 5.39325 12.3293 5.37C12.372 5.34675 12.5205 5.32725 12.6263 5.28375C12.669 5.26425 12.732 5.26425 12.7748 5.241C12.8175 5.241 12.8805 5.2215 12.9233 5.2215C12.966 5.2215 13.029 5.19825 13.0718 5.19825L13.2435 5.1555C13.2863 5.1555 13.3493 5.136 13.392 5.136C13.4588 5.136 13.4978 5.1165 13.5638 5.1165C13.6065 5.1165 13.689 5.09325 13.7318 5.09325C13.7745 5.09325 13.7985 5.09325 13.8375 5.07375H13.986C14.0528 5.07375 14.0955 5.07375 14.1578 5.05425H14.244C14.244 5.05425 14.2635 5.05425 14.244 5.05425H15.0293C15.4118 5.07375 15.7988 5.1165 16.158 5.1795C16.8728 5.30475 17.5605 5.535 18.2048 5.86275C18.8025 6.1515 19.3613 6.51525 19.8653 6.94875C19.8848 6.96825 19.9275 6.9915 19.9515 7.0305C19.971 7.05375 20.0138 7.07325 20.0333 7.11675C20.1 7.1595 20.1428 7.2225 20.205 7.26525C20.2673 7.308 20.3108 7.371 20.3768 7.41375C20.4195 7.4805 20.4825 7.52325 20.5253 7.5855C21.0915 8.1675 21.5685 8.83575 21.9315 9.56625C21.951 9.58575 21.951 9.609 21.9743 9.6525C21.9938 9.672 21.9938 9.69525 22.017 9.73425C22.0365 9.777 22.0598 9.84375 22.0988 9.8865C22.122 9.92925 22.1415 9.99225 22.1655 10.035C22.185 10.0778 22.2083 10.1407 22.2278 10.1835C22.314 10.3748 22.3763 10.566 22.4423 10.758C22.548 11.055 22.6103 11.313 22.677 11.5238C22.7003 11.6137 22.7783 11.6722 22.8683 11.676C22.974 11.676 23.0363 11.5897 23.0363 11.481C23.0168 11.2267 23.0168 10.95 22.9935 10.6298L23.0003 10.6252Z" fill="black"/>
</g>
<defs>
<clipPath id="clip0_201_57760">
<rect width="24" height="24" fill="white"/>
</clipPath>
</defs>
</svg>
