<svg width="24" height="24" viewBox="0 0 24 24" fill="none" xmlns="http://www.w3.org/2000/svg">
<g clip-path="url(#clip0_201_57652)">
<path d="M13.2968 1.824C13.2968 2.80125 12.4875 3.609 11.5118 3.609C10.539 3.609 9.72675 2.80125 9.72675 1.824C9.72675 0.852001 10.539 0.0390015 11.5118 0.0390015C12.4875 0.0390015 13.2968 0.852001 13.2968 1.824ZM11.5118 5.06625C10.461 5.06625 9.648 5.87925 9.648 6.9345C9.648 7.98825 10.461 8.80125 11.5162 8.80125C12.5662 8.80125 13.3793 7.98825 13.3793 6.9345C13.3793 5.87925 12.555 5.06625 11.5042 5.06625H11.5118ZM11.5118 10.098C10.461 10.098 9.5655 10.9883 9.5655 12.0428C9.5655 13.0973 10.4602 13.9875 11.5155 13.9875C12.5655 13.9875 13.4603 13.0973 13.4603 12.0428C13.4603 10.9883 12.5655 10.098 11.5155 10.098H11.5118ZM11.5118 15.2033C10.461 15.2033 9.648 16.0163 9.648 17.0663C9.648 18.1215 10.461 18.9345 11.5162 18.9345C12.5662 18.9345 13.3793 18.1215 13.3793 17.0663C13.3793 16.098 12.555 15.2033 11.5042 15.2033H11.5118ZM11.5118 20.3948C10.539 20.3948 9.72675 21.2025 9.72675 22.1798C9.72675 23.148 10.539 23.961 11.5118 23.961C12.4875 23.961 13.2968 23.1518 13.2968 22.176C13.2968 21.2033 12.4875 20.3948 11.5118 20.3948ZM16.461 4.824C15.324 4.824 14.352 5.80125 14.352 6.93375C14.352 8.0655 15.324 9.039 16.461 9.039C17.5942 9.039 18.5662 8.06625 18.5662 6.93375C18.5662 5.8005 17.5942 4.824 16.461 4.824ZM16.461 9.852C15.2423 9.852 14.2703 10.824 14.2703 12.0428C14.2703 13.2578 15.246 14.2298 16.461 14.2298C17.676 14.2298 18.648 13.2578 18.648 12.039C18.648 10.824 17.676 9.852 16.461 9.852ZM16.461 14.961C15.324 14.961 14.352 15.9383 14.352 17.0663C14.352 18.2033 15.324 19.176 16.461 19.176C17.5942 19.176 18.5662 18.1988 18.5662 17.0663C18.5662 15.9345 17.5942 14.961 16.461 14.961ZM21.5662 9.609C20.2702 9.609 19.137 10.6643 19.137 12.0428C19.137 13.3395 20.1877 14.4765 21.5662 14.4765C22.9455 14.4765 24 13.4093 24 12.0308C23.9182 10.6478 22.863 9.6015 21.5662 9.6015V9.609ZM6.48375 5.31225C5.5935 5.31225 4.86675 6.0435 4.86675 6.9345C4.86675 7.82475 5.5935 8.55525 6.48375 8.55525C7.3785 8.55525 8.1045 7.824 8.1045 6.9345C8.1045 6.0435 7.3785 5.31675 6.48375 5.31675V5.31225ZM6.48375 10.3403C5.51175 10.3403 4.7805 11.0663 4.7805 12.0435C4.7805 13.0163 5.5035 13.7468 6.47625 13.7468C7.452 13.7468 8.17125 13.017 8.17125 12.0435C8.17125 11.0663 7.437 10.3403 6.46425 10.3403H6.48375ZM6.48375 15.4448C5.5935 15.4448 4.86675 16.176 4.86675 17.0655C4.86675 17.9603 5.5935 18.6878 6.48375 18.6878C7.3785 18.6878 8.1045 17.9528 8.1045 17.055C8.1045 16.152 7.3785 15.4343 6.48375 15.4343V15.4448ZM1.461 10.5818C0.648 10.5818 0 11.2298 0 12.0428C0 12.852 0.648 13.5 1.461 13.5C2.27025 13.5 2.91825 12.852 2.91825 12.0428C2.91825 11.2298 2.27025 10.5818 1.461 10.5818Z" fill="black"/>
</g>
<defs>
<clipPath id="clip0_201_57652">
<rect width="24" height="24" fill="white"/>
</clipPath>
</defs>
</svg>
