<svg width="24" height="24" viewBox="0 0 24 24" fill="none" xmlns="http://www.w3.org/2000/svg">
<path d="M5.7 9.58565V15.0141C5.7 15.7356 5.133 16.3124 4.41075 16.3124C3.69375 16.3124 3 15.7311 3 15.0141V9.58565C3 8.87765 3.69375 8.2964 4.41075 8.2964C5.11875 8.2964 5.7 8.87765 5.7 9.58565ZM6.20625 16.9454C6.20625 17.7141 6.825 18.3329 7.59375 18.3329H8.52675L8.541 21.1971C8.541 22.9266 11.1285 22.9131 11.1285 21.1971V18.3329H12.8722V21.1971C12.8722 22.9176 15.474 22.9221 15.474 21.1971V18.3329H16.4205C17.1795 18.3329 17.7983 17.7141 17.7983 16.9454V8.5364H6.20625V16.9454ZM17.8312 8.08115H6.1545C6.1545 6.0749 7.3545 4.33115 9.13575 3.42215L8.24025 1.76765C8.109 1.53815 8.442 1.39265 8.5545 1.58915L9.4635 3.2579C11.0992 2.53115 12.9795 2.56865 14.5402 3.2579L15.4447 1.59365C15.5618 1.3919 15.8902 1.5419 15.759 1.77215L14.8635 3.42215C16.6305 4.33115 17.8305 6.07565 17.8305 8.08115H17.8312ZM9.8295 5.4794C9.8295 5.2124 9.61425 4.9874 9.3375 4.9874C9.0705 4.9874 8.85975 5.2124 8.85975 5.4794C8.85975 5.7464 9.07575 5.9714 9.3375 5.9714C9.61425 5.9714 9.8295 5.7464 9.8295 5.4794ZM15.1455 5.4794C15.1455 5.2124 14.9295 4.9874 14.667 4.9874C14.3903 4.9874 14.175 5.2124 14.175 5.4794C14.175 5.7464 14.391 5.9714 14.667 5.9714C14.9295 5.9714 15.1455 5.7464 15.1455 5.4794ZM19.5892 8.29715C18.8812 8.29715 18.3 8.86415 18.3 9.5864V15.0149C18.3 15.7364 18.8812 16.3131 19.5892 16.3131C20.3115 16.3131 21 15.7319 21 15.0149V9.5864C21 8.8649 20.3062 8.29715 19.5892 8.29715Z" fill="black"/>
</svg>
