<svg width="24" height="24" viewBox="0 0 24 24" fill="none" xmlns="http://www.w3.org/2000/svg">
<g clip-path="url(#clip0_201_58480)">
<path d="M2.43 11.3595C2.43 10.9883 2.7345 10.656 3.10575 10.656H10.0747C10.344 10.6523 10.5592 10.437 10.5592 10.1678V8.71428C10.5592 8.44053 10.3403 8.22603 10.071 8.22603H2.43C1.0905 8.22603 0 9.31203 0 10.6515V13.347C0 14.691 1.086 15.7808 2.4255 15.7808H7.44525C7.82025 15.7808 8.121 16.1093 8.121 16.4843V17.7698C8.121 18.141 7.82025 18.477 7.44525 18.477H0.4845C0.21525 18.477 0 18.6915 0 18.9615V20.415C0 20.6843 0.219 20.8995 0.4845 20.8995H8.12925C9.46875 20.8995 10.5548 19.8135 10.5548 18.474V15.7785C10.5548 14.439 9.46875 13.3485 8.12925 13.3485H3.10575C2.73075 13.3485 2.43 13.0163 2.43 12.645V11.3595ZM23.5192 8.23053H18.492V5.52378H23.5155C23.781 5.52378 23.9963 5.30928 23.9963 5.03928V3.58578C23.9963 3.31203 23.7818 3.09753 23.5118 3.09753H18.492C17.1525 3.09753 16.0665 4.18728 16.0665 5.52753V8.23053H13.7385C13.4693 8.23053 13.2577 8.44953 13.2577 8.71878V10.176C13.2577 10.4453 13.4723 10.6605 13.7385 10.6605H16.0627V18.6135C16.0627 18.852 16.164 18.8985 16.3673 18.8985C16.8555 18.8985 18.492 17.988 18.492 17.211V10.656H23.5155C23.781 10.656 24 10.4415 24 10.1753V8.71428C24 8.44878 23.781 8.22978 23.5155 8.22978L23.5192 8.23053Z" fill="black"/>
</g>
<defs>
<clipPath id="clip0_201_58480">
<rect width="24" height="24" fill="white"/>
</clipPath>
</defs>
</svg>
