<svg width="24" height="24" viewBox="0 0 24 24" fill="none" xmlns="http://www.w3.org/2000/svg">
<path d="M1.16401 13.953H0.00750732V10.062H2.00326L4.29601 12.9683V10.062H5.45251V13.953H3.49576L1.16401 10.9995V13.953ZM10.9763 12.75C10.9763 13.2893 10.8788 13.4768 10.7183 13.656C10.476 13.9215 10.1205 14.004 9.43276 14.004H7.46026C6.77251 14.004 6.41701 13.9223 6.17101 13.656C6.01051 13.476 5.91301 13.293 5.91301 12.75V11.25C5.91301 10.7108 6.01051 10.5233 6.17101 10.3478C6.41701 10.0785 6.77251 9.99976 7.46026 9.99976H9.43276C10.116 9.99976 10.476 10.0778 10.7183 10.3478C10.8788 10.5233 10.9763 10.7108 10.9763 11.2538V12.75ZM9.38251 13.0193C9.64801 13.0193 9.73801 13.0035 9.80476 12.945C9.86326 12.8903 9.89101 12.8243 9.89101 12.5933V11.406C9.89101 11.1795 9.86401 11.109 9.80476 11.058C9.73801 10.9995 9.64876 10.9838 9.38251 10.9838H7.50751C7.24576 10.9838 7.15201 10.9995 7.08976 11.058C7.02751 11.109 7.00351 11.1788 7.00351 11.406V12.5933C7.00351 12.8235 7.03051 12.8903 7.08976 12.945C7.15201 13.0035 7.24576 13.0193 7.50751 13.0193H9.38251ZM12.6563 10.0628V13.9538H11.4495V10.0628H12.6563ZM14.6955 10.0628H16.2855L14.1368 11.883L16.5623 13.953H14.8553L12.6563 11.9258L14.6955 10.0665V10.0628ZM16.785 10.0665H17.9918V13.953H16.785V10.0665ZM22.5938 13.953L22.2345 13.2773H19.8983L19.5465 13.953H18.2145L20.3513 10.062H21.8513L23.9918 13.953H22.593H22.5938ZM20.3205 12.4335H21.8205L21.0705 11.0235L20.3205 12.4335Z" fill="black"/>
</svg>
