<svg width="24" height="24" viewBox="0 0 24 24" fill="none" xmlns="http://www.w3.org/2000/svg">
<g clip-path="url(#clip0_201_57890)">
<path d="M3.129 1.34025C2.082 1.96125 0.02025 4.32825 0 4.94925V5.9805C0 7.28175 1.21875 8.43075 2.32425 8.43075C3.6525 8.43075 4.7625 7.329 4.7625 6.021C4.7625 7.329 5.82825 8.43075 7.16025 8.43075C8.4885 8.43075 9.5235 7.329 9.5235 6.021C9.5235 7.329 10.6605 8.43075 11.9887 8.43075H12.0128C13.3448 8.43075 14.481 7.329 14.481 6.021C14.481 7.329 15.5167 8.43075 16.845 8.43075C18.1733 8.43075 19.2428 7.329 19.2428 6.021C19.2428 7.329 20.349 8.43075 21.6765 8.43075C22.7857 8.43075 24.0045 7.28175 24.0045 5.9805V4.94925C23.9805 4.32825 21.9225 1.96125 20.8717 1.34025C17.6175 1.22325 15.3638 1.203 12.0045 1.203C8.6415 1.20675 4.05975 1.25775 3.1335 1.34025H3.129ZM9.50775 7.81575C9.3705 8.04675 9.219 8.24175 9.039 8.4135V8.41725C8.535 8.9055 7.848 9.21 7.08975 9.21C6.32775 9.21 5.64075 8.90475 5.1405 8.41275C4.95675 8.2365 4.8195 8.046 4.6905 7.8225C4.56525 8.04525 4.3905 8.2365 4.20675 8.41275C3.70275 8.90475 3.01575 9.21 2.2575 9.21C2.2575 9.21 2.2575 9.21 2.25375 9.21C2.16375 9.21 2.07 9.183 1.992 9.15525C1.887 10.269 1.83975 11.331 1.824 12.108V12.1118C1.82025 12.507 1.82025 12.8265 1.81575 13.2758C1.83975 15.612 1.5855 20.8425 2.84775 22.128C4.80075 22.581 8.39475 22.788 11.9955 22.7918H11.9992C15.6045 22.788 19.194 22.581 21.147 22.128C22.4093 20.8433 22.155 15.612 22.179 13.2758C22.1753 12.8265 22.1753 12.507 22.1707 12.1118V12.108C22.155 11.331 22.1115 10.269 22.0028 9.15525C21.9285 9.183 21.831 9.21 21.741 9.21H21.7372C20.979 9.21 20.292 8.90475 19.788 8.41275H19.7917C19.608 8.2365 19.4325 8.046 19.308 7.8225H19.3043C19.179 8.04525 19.038 8.2365 18.858 8.41275C18.3577 8.90475 17.6707 9.21 16.9088 9.21C16.1505 9.21 15.4635 8.90475 14.9595 8.41275C14.7795 8.241 14.6272 8.0415 14.4982 7.8225L14.49 7.8105C14.361 8.0415 14.205 8.24025 14.0287 8.41275C13.5247 8.90475 12.8378 9.21 12.0795 9.21H12.0758C12.0525 9.21 12.0247 9.21 11.9977 9.20625C11.9707 9.21 11.943 9.21 11.916 9.21C11.916 9.21 11.916 9.21 11.9123 9.21C11.154 9.21 10.467 8.90475 9.9675 8.41275C9.7875 8.241 9.63525 8.0415 9.51075 7.8225L9.5025 7.8105L9.50775 7.81575ZM7.50375 10.4063C8.2965 10.41 9 10.4063 9.8745 11.3595C10.5615 11.2898 11.2807 11.2545 11.9992 11.2545C12.7177 11.2545 13.437 11.2898 14.124 11.3595C14.9993 10.4063 15.702 10.4063 16.4948 10.4063H16.4985C16.8735 10.4063 18.3735 10.4063 19.4167 13.3403L20.538 17.367C21.3698 20.3633 20.2718 20.4383 18.9053 20.4383C16.8743 20.3633 15.7493 18.8873 15.7493 17.4105C14.6243 17.5988 13.311 17.6888 11.9992 17.6888C10.6875 17.6888 9.37425 17.5988 8.253 17.4105C8.253 18.8873 7.128 20.3633 5.097 20.4383C3.726 20.4345 2.628 20.3633 3.45975 17.367L4.581 13.3403C5.628 10.4063 7.128 10.4063 7.503 10.4063H7.50375ZM12 12.7148C11.9963 12.7148 9.86325 14.6798 9.477 15.375L10.875 15.3203V16.539C10.875 16.5983 11.4382 16.5743 12 16.5473C12.5618 16.5743 13.1213 16.5983 13.1213 16.539V15.3203L14.523 15.375C14.1368 14.6798 12 12.7148 12 12.7148Z" fill="black"/>
</g>
<defs>
<clipPath id="clip0_201_57890">
<rect width="24" height="24" fill="white"/>
</clipPath>
</defs>
</svg>
