<svg width="24" height="24" viewBox="0 0 24 24" fill="none" xmlns="http://www.w3.org/2000/svg">
<g clip-path="url(#clip0_201_57912)">
<path d="M1.53527 5.87475C-0.589475 8.92575 -0.323975 12.8903 1.29677 16.1288C1.33577 16.2105 1.37477 16.2848 1.41377 16.359C1.43702 16.41 1.46477 16.4603 1.49177 16.5075C1.50377 16.5345 1.52327 16.566 1.53902 16.5893C1.56602 16.644 1.59377 16.6905 1.62077 16.7415L1.77677 17.007C1.80377 17.058 1.83527 17.1045 1.86677 17.1518C1.92152 17.2455 1.98752 17.3393 2.04227 17.433C2.06927 17.472 2.09327 17.511 2.12027 17.55C2.21777 17.7023 2.32352 17.8508 2.43302 17.9955C2.51102 18.1013 2.58902 18.2063 2.67152 18.312C2.69852 18.3473 2.73002 18.3863 2.75777 18.4253L2.98052 18.6945C3.00752 18.726 3.03152 18.7613 3.06227 18.792C3.15978 18.909 3.26552 19.0268 3.36677 19.14C3.36677 19.1438 3.37052 19.1438 3.37052 19.1475C3.49952 19.308 3.63977 19.4558 3.79652 19.5893C3.87827 19.671 3.95702 19.7535 4.04252 19.8315L4.14377 19.929C4.25327 20.0348 4.36277 20.136 4.47977 20.2373C4.48352 20.2373 4.48352 20.2373 4.48727 20.241L4.54202 20.2883C4.64327 20.3783 4.74902 20.4683 4.85477 20.55L4.98002 20.6558C5.06177 20.7225 5.15177 20.7885 5.23802 20.8553L5.37452 20.961C5.46827 21.0315 5.56577 21.0975 5.65952 21.168C5.69477 21.1913 5.73002 21.219 5.76902 21.2385L5.79602 21.2618L6.07727 21.4493L6.19802 21.5273C6.34277 21.621 6.49127 21.711 6.63527 21.801C6.67802 21.8205 6.71702 21.8438 6.75602 21.8678C6.86552 21.93 6.97877 21.993 7.08827 22.0515C7.14677 22.0868 7.20902 22.1138 7.27202 22.1453C7.34627 22.188 7.42427 22.227 7.50227 22.2705C7.52177 22.2743 7.54127 22.2825 7.56077 22.2938C7.59227 22.3095 7.62302 22.3253 7.65452 22.341C7.77527 22.3995 7.90052 22.458 8.02952 22.5128C8.05277 22.5248 8.08052 22.5323 8.10752 22.548C8.25227 22.6103 8.39252 22.6733 8.54477 22.7318C8.57627 22.7393 8.61152 22.7588 8.64602 22.7708C8.78252 22.8218 8.92352 22.872 9.06002 22.923L9.10727 22.9388C9.26327 22.9935 9.41177 23.04 9.56852 23.091C9.60378 23.0985 9.64277 23.1143 9.67802 23.1225C9.83852 23.1735 9.99077 23.2283 10.1505 23.259C20.412 25.1303 23.3925 17.091 23.3925 17.091C20.8883 20.3528 16.443 21.2123 12.2325 20.2553C12.0765 20.22 11.9243 20.169 11.7638 20.1225C11.5763 20.0678 11.385 20.0055 11.1975 19.9425L11.1353 19.9193C11.0025 19.872 10.8698 19.8218 10.737 19.7708C10.7018 19.755 10.6628 19.7438 10.6275 19.728C10.479 19.6695 10.3388 19.611 10.194 19.548C10.1625 19.536 10.1393 19.521 10.1078 19.509C9.98702 19.4543 9.86552 19.3995 9.74477 19.341C9.70952 19.3253 9.67427 19.3058 9.63902 19.2863C9.54527 19.2435 9.45152 19.1925 9.35777 19.1453C9.29552 19.1138 9.23252 19.083 9.17402 19.0515C9.06077 18.9893 8.94752 18.9263 8.83427 18.864C8.79902 18.8408 8.76002 18.8168 8.72102 18.7973C8.57253 18.7073 8.42777 18.6173 8.28377 18.528C8.24477 18.5048 8.20577 18.477 8.16677 18.45C8.06102 18.3833 7.95602 18.3135 7.85402 18.243C7.81877 18.2198 7.78727 18.1958 7.75277 18.1688C7.65152 18.102 7.55327 18.0323 7.45577 17.958C7.41302 17.9228 7.36952 17.8913 7.32302 17.8568C7.23677 17.79 7.14752 17.724 7.06127 17.6498L6.94052 17.556C6.82727 17.466 6.71777 17.3723 6.60827 17.2748C6.59627 17.2628 6.58502 17.2553 6.56927 17.2433L6.22577 16.9305L6.12452 16.8368C6.04277 16.7505 5.96027 16.6725 5.87477 16.5908L5.77727 16.4895C5.67152 16.3838 5.57027 16.2788 5.46902 16.1655L5.45327 16.1498C5.34752 16.0365 5.24627 15.915 5.14052 15.798C5.11352 15.7665 5.08952 15.7313 5.06252 15.7005L4.83602 15.423C4.71902 15.2745 4.60577 15.126 4.49627 14.9738C2.16002 11.7863 1.31627 7.3875 3.18377 3.7785L1.53527 5.87475ZM8.12102 3.3045C6.58202 5.5155 6.66752 8.46825 7.86677 10.8045C8.06627 11.1953 8.29277 11.574 8.54252 11.937C8.77277 12.2655 9.02702 12.6555 9.33527 12.9218C9.44102 13.0425 9.55802 13.1603 9.67877 13.281L9.76877 13.371C9.88202 13.4805 9.99902 13.59 10.1205 13.695L10.1363 13.7108C10.269 13.8278 10.4055 13.941 10.5503 14.0505C10.5818 14.0738 10.6125 14.1015 10.644 14.1248C10.785 14.2305 10.9253 14.3355 11.07 14.4375L11.0858 14.4495C11.148 14.4923 11.2148 14.5358 11.2853 14.5785C11.3123 14.598 11.3438 14.6213 11.3753 14.637C11.481 14.7075 11.586 14.7698 11.6918 14.8365C11.7113 14.844 11.7233 14.8523 11.739 14.8598C11.829 14.9145 11.9303 14.9655 12.024 15.0158C12.0555 15.0353 12.0863 15.051 12.1215 15.0705C12.1883 15.102 12.2543 15.1373 12.3165 15.1718L12.3518 15.1838C12.4845 15.2505 12.621 15.3128 12.7583 15.375C12.7935 15.387 12.8205 15.3983 12.852 15.414C12.9615 15.4613 13.0748 15.5078 13.1843 15.5505C13.2353 15.5663 13.2818 15.5858 13.329 15.6015C13.4303 15.6405 13.5398 15.6758 13.6418 15.711L13.7783 15.7538C13.9268 15.801 14.0753 15.8595 14.2275 15.8828C22.1498 17.1953 23.9813 11.0978 23.9813 11.0978C22.329 13.473 19.1378 14.6055 15.7313 13.7228C15.579 13.6838 15.4305 13.6365 15.282 13.59C15.2348 13.578 15.192 13.563 15.1455 13.551C15.0443 13.512 14.9348 13.4768 14.8373 13.4415L14.6925 13.3868C14.5793 13.3395 14.466 13.3005 14.3565 13.2503C14.3213 13.2345 14.2898 13.227 14.2665 13.2113C14.1255 13.149 13.9853 13.086 13.8488 13.02L13.6418 12.9105L13.5248 12.852C13.431 12.8048 13.3448 12.7545 13.2593 12.7035C13.236 12.6915 13.2165 12.6803 13.197 12.6683C13.0913 12.6015 12.9825 12.5393 12.8805 12.4688C12.8453 12.4493 12.8138 12.4298 12.783 12.4065L12.576 12.2738C12.4313 12.1725 12.291 12.063 12.1463 11.961C12.1148 11.9295 12.084 11.9063 12.0525 11.883C10.5563 10.7033 9.37652 9.09375 8.81402 7.2735C8.22452 5.379 8.35727 3.25425 9.37277 1.5315L8.12102 3.3045ZM13.6605 1.383C12.7545 2.715 12.6645 4.371 13.2893 5.84025C13.953 7.39875 15.3128 8.62575 16.8945 9.20325C16.9613 9.23025 17.0235 9.2505 17.0895 9.27375L17.1758 9.30075C17.2695 9.32775 17.3633 9.363 17.457 9.387C21.8318 10.2308 23.0153 7.137 23.3363 6.684C22.293 8.18025 20.547 8.5395 18.4028 8.01975C18.231 7.9725 18.0593 7.92225 17.8868 7.85925C17.6798 7.785 17.4728 7.69875 17.2695 7.605C16.8908 7.4175 16.527 7.1985 16.191 6.945C14.2688 5.48775 13.0815 2.71425 14.3355 0.453003L13.6605 1.383Z" fill="black"/>
</g>
<defs>
<clipPath id="clip0_201_57912">
<rect width="24" height="24" fill="white"/>
</clipPath>
</defs>
</svg>
