<svg width="24" height="24" viewBox="0 0 24 24" fill="none" xmlns="http://www.w3.org/2000/svg">
<g clip-path="url(#clip0_201_57592)">
<path d="M19.3988 0.195054C18.6608 -0.176196 16.68 -0.0509455 14.2035 0.816054C9.99676 3.78455 6.53176 7.99205 6.16051 14.9258C6.16051 15.1681 5.66851 14.9258 5.54326 14.8006C4.43026 12.6953 3.93376 10.3433 4.92601 6.8783C5.17201 6.6323 4.55476 6.26105 4.55476 6.3863C4.30501 6.50705 3.44176 7.49555 2.82001 8.4878C-0.0277369 13.4333 1.82776 19.9996 6.78076 22.7183C11.7263 25.4408 18.1635 23.7068 21.0113 18.6323C24.3548 12.8198 21.3825 1.3118 19.398 0.195054H19.3988Z" fill="black"/>
</g>
<defs>
<clipPath id="clip0_201_57592">
<rect width="24" height="24" fill="white"/>
</clipPath>
</defs>
</svg>
