<svg width="24" height="24" viewBox="0 0 24 24" fill="none" xmlns="http://www.w3.org/2000/svg">
<g clip-path="url(#clip0_201_58170)">
<path d="M10.4918 0.00873388C8.0775 -0.0812661 5.83575 0.723484 4.2105 2.49273C2.90925 3.90648 2.18775 5.74698 1.98375 7.76673H1.566C0.70275 7.76673 0 8.46948 0 9.32898V14.0712C0 14.9352 0.70275 15.638 1.56225 15.638H3.6525C4.34025 16.9737 5.20725 18.212 6.2235 19.3212C10.6807 24.1655 16.9102 25.3535 20.7735 22.337H22.8713C23.4495 22.337 23.922 21.86 23.922 21.2862V18.4235C23.922 18.1737 23.8283 17.9397 23.664 17.7552C24.5228 14.321 23.6213 10.1142 21.1478 6.54048C21.1478 6.52473 21.156 6.50973 21.156 6.49323V4.48098C21.156 4.03173 20.793 3.66498 20.3438 3.66123H18.6405C16.1287 1.37223 13.2067 0.109984 10.4918 0.00948388V0.00873388ZM12.2377 2.18823C14.0197 2.17623 15.93 2.80923 17.6595 4.03548C17.5695 4.16448 17.5155 4.32048 17.5118 4.48023V6.49248C17.5118 6.94173 17.8785 7.31223 18.3278 7.31223H20.3438C20.4795 7.30923 20.6168 7.26648 20.7337 7.19523C22.98 10.496 23.469 14.5122 21.9728 17.3675H20.0115C19.4332 17.3675 18.9608 17.8445 18.9608 18.4182V20.2115C15.969 21.5127 11.961 20.4342 9.00375 17.2235C8.4135 16.5785 7.8945 15.8757 7.45275 15.1257C7.71075 14.849 7.86675 14.4777 7.86675 14.0705V9.32823C7.86675 8.46948 7.16775 7.76598 6.3045 7.76598H5.89425C6.132 6.40173 6.675 5.15598 7.581 4.17198C8.80425 2.84373 10.4602 2.19498 12.237 2.18823H12.2377ZM18.3278 4.19523H20.3438C20.5035 4.19523 20.625 4.31598 20.625 4.48023V6.49248C20.625 6.65673 20.5042 6.77748 20.3438 6.77748H18.3278C18.168 6.78123 18.039 6.65223 18.0427 6.49248V4.48023C18.039 4.32048 18.168 4.19148 18.3278 4.19523ZM1.56225 8.29773H6.30525C6.8835 8.29773 7.3365 8.75448 7.3365 9.32898V14.0712C7.3365 14.6465 6.8835 15.1032 6.30525 15.1032H1.566C0.99225 15.1062 0.52725 14.642 0.531 14.0712V9.32898C0.531 8.75523 0.98775 8.30223 1.56225 8.30223V8.29773ZM20.0123 17.9022H22.8713C23.1645 17.9022 23.3955 18.1295 23.3955 18.4182V21.281C23.3955 21.5697 23.1608 21.8052 22.8713 21.8007H20.0123C19.7235 21.8045 19.488 21.5697 19.4925 21.281V18.422C19.4888 18.1332 19.7235 17.8977 20.0123 17.9022Z" fill="black"/>
</g>
<defs>
<clipPath id="clip0_201_58170">
<rect width="24" height="24" fill="white"/>
</clipPath>
</defs>
</svg>
