<svg width="24" height="24" viewBox="0 0 24 24" fill="none" xmlns="http://www.w3.org/2000/svg">
<g clip-path="url(#clip0_201_57952)">
<path d="M24 12C24 18.6015 18.6015 24 12 24C5.3985 24 0 18.6015 0 12C0 5.3985 5.3985 0 12 0C18.6015 0 24 5.3985 24 12ZM12 1.80075C6.30075 1.80075 1.80075 6.30075 1.80075 12C1.80075 17.6992 6.30075 22.1993 12 22.1993C17.6992 22.1993 22.1993 17.6992 22.1993 12C22.1993 6.30075 17.6992 1.80075 12 1.80075ZM17.6017 7.19925L17.3985 7.39875C17.4998 7.30125 17.6992 7.19925 17.8005 7.19925H17.6017ZM17.8005 7.19925H18.3007V5.301H12.801V7.19925H13.6995C13.899 7.19925 14.0002 7.3005 14.0002 7.5C14.0002 7.60125 14.0002 7.6995 13.899 7.6995L10.1017 11.5005H10.0005C9.89925 11.5005 9.801 11.3993 9.801 11.301V7.899C9.801 7.50075 10.1018 7.2 10.5 7.2H11.301V5.30175H5.3985V7.2H6.102C6.50025 7.2 6.801 7.50075 6.801 7.899V16.3013C6.801 16.6995 6.50025 17.0002 6.102 17.0002H5.3985V19.0005H11.301V17.0002H10.5C10.1018 17.0002 9.801 16.6995 9.801 16.3013V14.8988C9.801 14.8012 9.801 14.6993 9.8985 14.6017L11.3985 13.1017C11.3985 13.1017 11.4998 13.0005 11.6017 13.0005C11.6993 13.0005 11.8012 13.0005 11.8012 13.1017L13.899 16.3988V16.602C13.899 16.8015 13.8015 16.899 13.602 16.899H12.6998V18.8993H19.0005V16.899H18.3015C18.102 16.899 17.8995 16.8015 17.8013 16.602V16.5007L14.1022 11.001C14.1022 10.8997 14.001 10.8998 14.001 10.8015C14.001 10.7003 14.001 10.602 14.1022 10.602L17.3018 7.39875C17.5012 7.19925 17.6025 7.19925 17.802 7.19925H17.8005Z" fill="black"/>
</g>
<defs>
<clipPath id="clip0_201_57952">
<rect width="24" height="24" fill="white"/>
</clipPath>
</defs>
</svg>
