<svg width="24" height="24" viewBox="0 0 24 24" fill="none" xmlns="http://www.w3.org/2000/svg">
<path d="M16.5075 16.8435C16.656 16.3395 16.5975 15.8745 16.3515 15.531C16.1287 15.2145 15.75 15.0307 15.2933 15.0075L6.633 14.898C6.57825 14.898 6.52725 14.871 6.50025 14.8237C6.47325 14.781 6.465 14.7262 6.477 14.6677C6.5085 14.586 6.59025 14.523 6.684 14.5155L15.4185 14.4022C16.4535 14.3512 17.5785 13.5157 17.973 12.4882L18.4688 11.1877C18.492 11.1292 18.5002 11.0745 18.4845 11.0197C17.922 8.47271 15.6525 6.57446 12.9338 6.57446C10.4295 6.57446 8.3085 8.19146 7.54725 10.434C7.05525 10.071 6.42975 9.87146 5.754 9.93821C4.551 10.0552 3.58575 11.0205 3.46875 12.2235C3.44175 12.5317 3.46125 12.837 3.531 13.1145C1.566 13.173 0 14.7787 0 16.755C0 16.9267 0.01575 17.103 0.03525 17.2822C0.051 17.364 0.1215 17.427 0.20325 17.427H16.1835C16.2772 17.427 16.359 17.3647 16.3905 17.2747L16.5075 16.8435ZM19.266 11.2815C19.188 11.2815 19.1055 11.2815 19.0275 11.2935C18.969 11.2935 18.9217 11.3362 18.8985 11.391L18.5625 12.567C18.414 13.071 18.4688 13.536 18.7185 13.8832C18.9412 14.1997 19.3237 14.379 19.7812 14.403L21.621 14.5162C21.6795 14.5162 21.7267 14.5395 21.7575 14.5867C21.7845 14.6295 21.789 14.6925 21.777 14.739C21.75 14.8252 21.6637 14.8912 21.5737 14.895L19.6515 15.0082C18.6082 15.0555 17.4915 15.8947 17.097 16.9222L16.9605 17.2815C16.929 17.352 16.98 17.4225 17.058 17.4225H23.6558C23.73 17.4225 23.8005 17.3715 23.8237 17.2972C23.937 16.887 23.9993 16.4572 23.9993 16.0162C23.9993 13.4145 21.8745 11.2897 19.2645 11.2897L19.266 11.2815Z" fill="black"/>
</svg>
