<svg width="24" height="24" viewBox="0 0 24 24" fill="none" xmlns="http://www.w3.org/2000/svg">
<g clip-path="url(#clip0_201_57362)">
<path d="M20.121 18.429C20.121 18.7125 19.9298 18.9165 19.6545 18.9165C19.371 18.9165 19.188 18.6998 19.188 18.429C19.188 18.1583 19.371 17.9415 19.6545 17.9415C19.9298 17.9415 20.121 18.1583 20.121 18.429ZM7.17077 17.9415C6.87452 17.9415 6.70427 18.1583 6.70427 18.429C6.70427 18.6998 6.87527 18.9165 7.17077 18.9165C7.44152 18.9165 7.62452 18.7125 7.62452 18.429C7.62002 18.1583 7.44152 17.9415 7.17077 17.9415ZM12.0668 17.9295C11.8418 17.9295 11.7038 18.075 11.6708 18.2918H12.4665C12.429 18.054 12.2835 17.9295 12.0668 17.9295ZM16.5585 17.9415C16.275 17.9415 16.1048 18.1583 16.1048 18.429C16.1048 18.6998 16.2758 18.9165 16.5585 18.9165C16.842 18.9165 17.025 18.7125 17.025 18.429C17.025 18.1583 16.8413 17.9415 16.5585 17.9415ZM20.9708 19.029C20.9708 19.0418 20.9835 19.05 20.9835 19.0748C20.9835 19.0875 20.9708 19.0958 20.9708 19.1205C20.958 19.1333 20.958 19.1415 20.9498 19.1535C20.937 19.1663 20.9288 19.1745 20.904 19.1745C20.8913 19.1873 20.883 19.1873 20.8583 19.1873C20.8455 19.1873 20.8373 19.1873 20.8125 19.1745C20.7998 19.1745 20.7915 19.1618 20.7795 19.1535C20.7668 19.1408 20.7585 19.1325 20.7585 19.1205C20.7458 19.0995 20.7458 19.0875 20.7458 19.0748C20.7458 19.0538 20.7458 19.0418 20.7585 19.029C20.7585 19.008 20.7713 18.996 20.7795 18.9833C20.7923 18.9705 20.8005 18.9705 20.8125 18.9623C20.8335 18.9495 20.8455 18.9495 20.8583 18.9495C20.8793 18.9495 20.8913 18.9495 20.904 18.9623C20.925 18.9743 20.937 18.9743 20.9498 18.9833C20.9625 18.9923 20.958 19.008 20.9708 19.029ZM20.8793 19.0875C20.9003 19.0875 20.9003 19.0748 20.9123 19.0748C20.925 19.062 20.925 19.0538 20.925 19.0418C20.925 19.0298 20.925 19.0208 20.9123 19.0088C20.9003 19.0088 20.8913 18.996 20.8665 18.996H20.7998V19.1415H20.8328V19.083H20.8455L20.8913 19.1415H20.9243L20.8793 19.0875ZM24 4.7085V19.3755C24 20.4795 23.1045 21.3758 21.9998 21.3758H1.99952C0.895517 21.3758 -0.000732422 20.4803 -0.000732422 19.3755V4.7085C-0.000732422 3.6045 0.894767 2.70825 1.99952 2.70825H21.9998C23.1038 2.70825 24 3.60375 24 4.7085ZM2.66702 10.5248C2.66702 13.7123 5.25452 16.2953 8.43752 16.2953C9.57077 16.2953 10.683 15.9533 11.625 15.333C8.58752 12.8625 8.60852 8.19975 11.625 5.7285C10.683 5.10375 9.57077 4.76625 8.43752 4.76625C5.25452 4.7625 2.66702 7.34925 2.66702 10.5248ZM12 15.0585C14.9378 12.7665 14.925 8.30025 12 5.99625C9.07502 8.30025 9.06227 12.771 12 15.0585ZM6.07052 18.2378C6.07052 17.8755 5.83277 17.6378 5.45777 17.625C5.26577 17.625 5.06177 17.6835 4.92452 17.8958C4.82477 17.7248 4.65377 17.625 4.41602 17.625C4.25777 17.625 4.09952 17.6835 3.97427 17.85V17.667H3.63302V19.1963H3.97427C3.97427 18.4088 3.87002 17.9378 4.34927 17.9378C4.77452 17.9378 4.69127 18.363 4.69127 19.1963H5.02052C5.02052 18.4335 4.91627 17.9378 5.39552 17.9378C5.82077 17.9378 5.73677 18.3548 5.73677 19.1963H6.07877V18.2378H6.07052ZM7.94177 17.667H7.61252V17.85C7.50002 17.7128 7.34177 17.625 7.12502 17.625C6.69602 17.625 6.36677 17.967 6.36677 18.429C6.36677 18.8955 6.69602 19.233 7.12502 19.233C7.34177 19.233 7.50002 19.1535 7.61252 19.008V19.2H7.94177V17.667ZM9.62927 18.7335C9.62927 18.1088 8.67527 18.3915 8.67527 18.0998C8.67527 17.862 9.17102 17.9003 9.44627 18.054L9.58352 17.7833C9.19202 17.529 8.32502 17.5335 8.32502 18.1253C8.32502 18.7208 9.27902 18.471 9.27902 18.75C9.27902 19.0125 8.71652 18.9915 8.41652 18.783L8.27102 19.0455C8.73752 19.362 9.62927 19.2953 9.62927 18.7328V18.7335ZM11.1045 19.1205L11.013 18.837C10.8548 18.924 10.5045 19.02 10.5045 18.666V17.9745H11.0505V17.6663H10.5045V17.1998H10.1625V17.6663H9.84602V17.9708H10.1625V18.6668C10.1625 19.4003 10.8833 19.2668 11.1045 19.1205ZM11.658 18.5625H12.804C12.804 17.8875 12.4958 17.6205 12.0788 17.6205C11.637 17.6205 11.3205 17.9498 11.3205 18.4245C11.3205 19.2788 12.2625 19.4205 12.729 19.0163L12.5708 18.7665C12.246 19.0335 11.754 19.008 11.658 18.5625ZM14.121 17.667C13.9298 17.5838 13.638 17.592 13.488 17.85V17.667H13.146V19.1963H13.488V18.3338C13.488 17.85 13.884 17.913 14.0213 17.9835L14.121 17.667ZM14.5628 18.429C14.5628 17.9535 15.0465 17.7998 15.4253 18.0788L15.5835 17.808C15.0998 17.4293 14.2208 17.637 14.2208 18.4328C14.2208 19.2578 15.1538 19.4243 15.5835 19.0575L15.4253 18.7868C15.042 19.0575 14.5628 18.8955 14.5628 18.4283V18.429ZM17.3415 17.667H16.9995V17.85C16.6538 17.3918 15.7538 17.6505 15.7538 18.429C15.7538 19.2293 16.6868 19.458 16.9995 19.008V19.2H17.3415V17.667ZM18.7455 17.667C18.6458 17.6168 18.2873 17.5463 18.1125 17.85V17.667H17.7833V19.1963H18.1125V18.3338C18.1125 17.8755 18.4875 17.9048 18.6458 17.9835L18.7455 17.667ZM20.4248 17.046H20.0955V17.85C19.7535 17.3963 18.8498 17.6378 18.8498 18.429C18.8498 19.2375 19.7873 19.4535 20.0955 19.008V19.2H20.4248V17.046ZM20.742 13.917V14.109H20.775V13.917H20.8538V13.884H20.6618V13.917H20.742ZM21.0165 19.0748C21.0165 19.0538 21.0165 19.029 21.0045 19.008C20.9918 18.9953 20.9835 18.975 20.9715 18.9623C20.9595 18.9495 20.9385 18.9413 20.9258 18.9293C20.9048 18.9293 20.88 18.9165 20.859 18.9165C20.8463 18.9165 20.826 18.9293 20.8005 18.9293C20.7795 18.942 20.7675 18.9503 20.7548 18.9623C20.7338 18.9743 20.7218 18.9953 20.7218 19.008C20.709 19.029 20.709 19.0538 20.709 19.0748C20.709 19.0875 20.709 19.1078 20.7218 19.1333C20.7218 19.146 20.7345 19.1663 20.7548 19.179C20.7668 19.1918 20.7758 19.2 20.8005 19.212C20.8215 19.224 20.8463 19.224 20.859 19.224C20.88 19.224 20.9048 19.224 20.9258 19.212C20.9385 19.1993 20.9588 19.191 20.9715 19.179C20.9843 19.167 20.9925 19.146 21.0045 19.1333C21.0165 19.1085 21.0165 19.0875 21.0165 19.0748ZM21.15 13.8795H21.0915L21.0248 14.025L20.958 13.8795H20.8995V14.1045H20.9325V13.9335L20.9993 14.079H21.045L21.1035 13.9335V14.1045H21.1493L21.15 13.8795ZM21.333 10.5248C21.333 7.34925 18.7455 4.7625 15.5625 4.7625C14.4293 4.7625 13.317 5.10375 12.375 5.72475C15.3795 8.196 15.4253 12.8708 12.375 15.3293C13.317 15.954 14.4375 16.2915 15.5625 16.2915C18.7455 16.296 21.333 13.7123 21.333 10.5248Z" fill="black"/>
</g>
<defs>
<clipPath id="clip0_201_57362">
<rect width="24" height="24" fill="white"/>
</clipPath>
</defs>
</svg>
