<svg width="24" height="24" viewBox="0 0 24 24" fill="none" xmlns="http://www.w3.org/2000/svg">
<g clip-path="url(#clip0_201_57806)">
<path d="M20.469 0C22.422 0 24 1.578 24 3.531V20.469C24 22.422 22.422 24 20.469 24H3.531C1.578 24 0 22.422 0 20.469V3.531C0 1.578 1.578 0 3.531 0L20.469 0ZM16.7663 14.469C15.984 14.469 15.3555 15.102 15.3555 15.879C15.3555 16.6597 15.9847 17.2927 16.7663 17.2927C17.547 17.2927 18.1763 16.6478 18.1763 15.867C18.1763 15.09 17.547 14.4608 16.7663 14.4608V14.469ZM8.60925 17.2463C9.80925 17.2463 10.6643 17.2035 11.1915 17.1292C11.7157 17.043 12.1643 16.9065 12.5123 16.7153C12.9615 16.4843 13.2892 16.152 13.5315 15.7275C13.7708 15.3015 13.8915 14.8095 13.8915 14.2463C13.8915 13.4655 13.6808 12.8445 13.2623 12.375C12.84 11.895 12.27 11.6407 11.52 11.5822C12.18 11.4023 12.6757 11.133 12.9772 10.77C13.2892 10.4257 13.4415 9.945 13.4415 9.348C13.4415 8.86725 13.3402 8.46075 13.1415 8.08575C12.9307 7.7265 12.6487 7.44075 12.2587 7.21875C11.9145 7.023 11.5238 6.9015 11.0438 6.8115C10.5788 6.73725 9.7545 6.69075 8.571 6.69075H5.65275V17.1795H8.61L8.60925 17.2463ZM9.348 13.062C10.0507 13.062 10.5308 13.1482 10.785 13.3237C11.055 13.5037 11.1757 13.8195 11.1757 14.2537C11.1757 14.6595 11.0385 14.9445 10.758 15.1088C10.4843 15.2888 9.99225 15.363 9.31575 15.363H8.3085V13.0658H9.3585L9.348 13.062ZM18.0037 13.77V6.70725H15.543V13.77H18.0037ZM8.92575 9.078C9.63675 9.078 10.1085 9.15975 10.3545 9.32025C10.6012 9.48 10.7227 9.7545 10.7227 10.1483C10.7227 10.5315 10.5938 10.797 10.3358 10.953C10.0695 11.109 9.58575 11.1877 8.883 11.1877H8.31225V9.078H8.92575Z" fill="black"/>
</g>
<defs>
<clipPath id="clip0_201_57806">
<rect width="24" height="24" fill="white"/>
</clipPath>
</defs>
</svg>
