<svg width="24" height="24" viewBox="0 0 24 24" fill="none" xmlns="http://www.w3.org/2000/svg">
<g clip-path="url(#clip0_201_57624)">
<path d="M23.9303 2.94077C16.7663 0.394519 8.9805 0.183769 1.69125 2.34002C0.469501 2.63327 -0.265499 3.87902 0.0705013 5.09027C0.469501 6.69152 1.0515 8.53127 1.7505 10.1993C1.7625 10.2383 1.78125 10.2195 1.78125 10.1805C1.68 9.39827 2.2815 8.41052 3.46125 8.05127C9.129 6.24602 15.2303 6.32852 20.8523 8.28152C21.711 8.57852 22.6725 8.10977 22.9493 7.21952C23.6483 4.96952 23.9303 3.44177 24 3.05927C24.012 2.98802 23.949 2.96102 23.9303 2.94152V2.94077ZM6.648 7.89077C5.78925 8.07002 4.602 8.35202 3.711 8.64752C1.92975 9.26177 2.01225 11.4293 2.961 12.1208C3.03075 11.7188 3.46125 11.172 3.94125 10.9875C5.7195 10.2885 7.629 9.87077 9.5595 9.69827C8.5785 9.30002 7.6215 8.72927 6.66075 7.89002L6.648 7.89077ZM20.8283 12.2303C15.66 9.80102 9.7275 9.56627 4.37925 11.5785C3.531 11.8988 3 12.9308 3.531 13.9103C4.45725 15.5865 5.51175 17.1915 6.68025 18.711C6.51225 18.129 6.80925 17.0513 7.94925 16.6988C11.1023 15.7298 14.4105 16.1408 16.6095 17.031C17.2305 17.2808 18.1095 17.1293 18.6023 16.3913C19.4415 15.0983 20.2073 13.7543 20.8913 12.3713C20.922 12.309 20.8913 12.2625 20.8283 12.2303ZM15.7193 20.0003C14.7975 19.5353 13.953 18.9263 13.2195 18.1995C12.8798 17.8598 12.3795 17.3715 11.8523 16.7895C10.6485 16.7895 9.48 16.9103 8.2305 17.3093C7.07025 17.6723 6.9615 19.0125 7.46925 19.7115C8.328 20.7818 8.93025 21.3593 9.891 22.3523C10.9493 23.391 12.6413 23.3985 13.7108 22.371C14.4608 21.621 14.922 21.1208 15.7695 20.16C15.8197 20.109 15.8003 20.0198 15.7185 20.0003H15.7193Z" fill="black"/>
</g>
<defs>
<clipPath id="clip0_201_57624">
<rect width="24" height="24" fill="white"/>
</clipPath>
</defs>
</svg>
