<svg width="24" height="24" viewBox="0 0 24 24" fill="none" xmlns="http://www.w3.org/2000/svg">
<g clip-path="url(#clip0_201_57408)">
<path d="M12.0075 0.480713C5.39025 0.484463 0.00375 5.83196 0 12.399V12.4305L2.043 13.6222L2.07 13.6027C3.04275 12.9345 4.19925 12.579 5.37825 12.5835C5.7495 12.5835 6.1125 12.615 6.46425 12.681L6.429 12.6772C7.503 12.8685 8.499 13.365 9.3 14.1067L9.29625 14.103L9.648 14.4315L9.8475 13.998C10.0387 13.5757 10.2615 13.1812 10.5075 12.822C10.605 12.681 10.7145 12.5332 10.8398 12.3765L11.043 12.1185L10.7887 11.9077C9.69075 10.986 8.367 10.365 6.9525 10.1032L6.9015 10.0957C5.54175 9.84971 4.14 9.93521 2.81925 10.3455L2.8815 10.3297C3.85425 6.07196 7.596 3.10721 12.0142 3.10346C14.487 3.09596 16.8622 4.07246 18.6157 5.81471C19.8615 7.04546 20.733 8.60771 21.1238 10.3147C20.3153 10.065 19.4715 9.93596 18.6278 9.93596H18.4718C18.1162 9.94346 17.7728 9.97121 17.4368 10.014C17.3078 10.0335 17.1787 10.053 17.0497 10.0762C16.9912 10.0837 16.9328 10.0957 16.878 10.1077C16.7453 10.1347 16.6162 10.1625 16.4872 10.1977L16.3463 10.233C16.1858 10.2757 16.026 10.323 15.8655 10.3777L15.834 10.3852C15.4785 10.506 15.1267 10.6545 14.7833 10.827L14.7562 10.839C14.604 10.917 14.4517 10.9995 14.2875 11.097L14.2523 11.1165C13.4513 11.5927 12.7403 12.2025 12.1425 12.9172L12.135 12.933L12.057 13.023C11.9243 13.1872 11.799 13.3552 11.682 13.527C11.592 13.656 11.502 13.7962 11.3932 13.98L11.3348 14.0812C11.253 14.226 11.1743 14.37 11.1 14.5147L11.0843 14.5417C10.9125 14.8852 10.764 15.2407 10.6425 15.6082L10.6267 15.6592C10.3335 16.5345 10.1932 17.4562 10.2127 18.378V18.3705L10.2165 18.4837C10.2203 18.6397 10.2285 18.777 10.236 18.9135V18.8745C10.248 19.0155 10.2592 19.152 10.2787 19.2885L10.2825 19.3312L10.2945 19.4325C10.314 19.5615 10.3335 19.6867 10.3568 19.8112C10.599 21.0772 11.2005 22.3425 12.1027 23.4712L12.1417 23.5222L12.1845 23.4712C12.5437 23.049 13.4347 21.702 13.509 20.8927L13.5128 20.8807L13.5052 20.865C13.083 20.064 12.8647 19.1737 12.8647 18.2715C12.8647 15.2557 15.2355 12.7477 18.2633 12.5685L18.4627 12.561C19.6973 12.534 20.9078 12.8932 21.9315 13.5885L21.9585 13.6042L24.0015 12.417V12.39C24.009 9.22196 22.7437 6.18671 20.49 3.96446C18.2362 1.72196 15.1852 0.472463 12.0052 0.483713L12.0075 0.480713Z" fill="black"/>
</g>
<defs>
<clipPath id="clip0_201_57408">
<rect width="24" height="24" fill="white"/>
</clipPath>
</defs>
</svg>
