<svg width="24" height="24" viewBox="0 0 24 24" fill="none" xmlns="http://www.w3.org/2000/svg">
<g clip-path="url(#clip0_201_57770)">
<path d="M12.039 22.5471C10.4415 22.5471 9.37125 20.8986 10.0275 19.4376L7.32825 17.6406C5.46525 19.5861 2.4105 17.1291 3.9105 14.8904C5.4105 12.6561 8.844 14.5544 7.74675 17.0114L10.4497 18.8121C10.5315 18.7259 10.6215 18.6479 10.7153 18.5774L6.387 9.91714C3.80475 10.7181 2.3205 7.06939 4.7265 5.83864C7.137 4.61239 9.219 7.95214 7.05825 9.57289L11.3865 18.2331C11.4645 18.2099 11.5425 18.1904 11.6213 18.1746V14.0459C9.23475 13.5891 9.23475 10.1706 11.6213 9.71389V5.82289C8.973 5.31139 9.38325 1.40089 12.0825 1.45189C14.7818 1.50289 15.0473 5.42464 12.3795 5.83864V9.70189C14.8717 10.0844 14.8717 13.6784 12.3795 14.0616V18.1596C12.4613 18.1716 12.5438 18.1911 12.6217 18.2106L16.9417 9.57364C14.7893 7.95289 16.8713 4.62814 19.2698 5.85514C21.6683 7.08214 20.1877 10.7144 17.6138 9.91789L13.305 18.5354C13.4062 18.6059 13.5 18.6839 13.5863 18.7701L16.1993 16.9926C15.0233 14.5589 18.4065 12.5474 19.9845 14.7426C21.5588 16.9379 18.5707 19.5006 16.641 17.6061L14.028 19.3836C14.7353 20.8484 13.6687 22.5479 12.0397 22.5479L12.039 22.5471ZM12 23.9999C5.37075 23.9999 0 18.6291 0 11.9999C0 8.81614 1.266 5.76514 3.516 3.51514C8.19975 -1.17236 15.801 -1.17236 20.4847 3.51514C25.1722 8.19889 25.1722 15.8001 20.4847 20.4839C18.2385 22.7414 15.1838 24.0074 12 23.9999ZM12 0.753637C5.78925 0.753637 0.75375 5.78914 0.75375 11.9999C0.75375 14.9804 1.941 17.8439 4.05075 19.9491C8.4255 24.3591 15.543 24.3824 19.9493 20.0076C24.3593 15.6329 24.3825 8.51164 20.0077 4.10539C17.898 1.95289 15.012 0.746137 12 0.753637Z" fill="black"/>
</g>
<defs>
<clipPath id="clip0_201_57770">
<rect width="24" height="24" fill="white"/>
</clipPath>
</defs>
</svg>
