<svg width="24" height="24" viewBox="0 0 24 24" fill="none" xmlns="http://www.w3.org/2000/svg">
<g clip-path="url(#clip0_201_57762)">
<path d="M21.1365 7.92976C19.9725 7.27351 18.504 8.12926 18.2692 8.27776L13.2337 11.133C12.4875 10.5435 11.4292 10.5668 10.7145 11.1953C9.99971 11.82 9.83171 12.8633 10.32 13.6838C10.8045 14.5005 11.8042 14.8515 12.6952 14.52C13.5862 14.1885 14.109 13.266 13.9455 12.3323L19.0005 9.46126C19.329 9.25426 20.0985 8.94151 20.454 9.14101C20.712 9.28951 20.8605 9.774 20.8717 10.4925H20.8642V16.7933C20.8642 17.3828 20.5515 17.9258 20.0437 18.219L12.8212 22.3913C12.3097 22.6845 11.6842 22.6845 11.1765 22.3913L3.95396 18.219C3.44246 17.9258 3.12971 17.3828 3.12971 16.7933V8.45326C3.12971 7.86376 3.44246 7.32076 3.95396 7.02751L10.4895 3.25801C11.1105 3.96901 12.1537 4.13701 12.9697 3.65626C13.782 3.17551 14.142 2.17951 13.8172 1.29301C13.4932 0.402006 12.579 -0.128994 11.6452 0.0270058C10.7115 0.183006 10.0245 0.980256 10.0042 1.92901L3.26171 5.82376C2.32046 6.36301 1.73846 7.36651 1.73846 8.45251V16.7888C1.73846 17.8785 2.31671 18.8783 3.25796 19.4213L10.4767 23.5935C11.418 24.1365 12.5745 24.1365 13.5157 23.5935L20.7382 19.4213C21.6757 18.8783 22.254 17.8785 22.2577 16.7925V10.7303H22.2615C22.2967 9.30826 21.9135 8.36701 21.1365 7.92976Z" fill="black"/>
</g>
<defs>
<clipPath id="clip0_201_57762">
<rect width="24" height="24" fill="white"/>
</clipPath>
</defs>
</svg>
