<svg width="24" height="24" viewBox="0 0 24 24" fill="none" xmlns="http://www.w3.org/2000/svg">
<path d="M4.8202 17.2732C4.13695 17.2732 3.51595 16.7152 3.51595 16.035C3.51595 15.3547 4.07395 14.793 4.8202 14.793C5.5702 14.793 6.13345 15.3517 6.13345 16.035C6.13345 16.7152 5.5087 17.2732 4.8247 17.2732H4.8202ZM20.832 10.512C20.6947 9.51972 20.082 8.71122 19.2727 8.09397L18.957 7.84422L18.7027 8.15247C18.2107 8.71122 18.012 9.70347 18.0735 10.4452C18.1327 11.0085 18.3112 11.5665 18.6285 12C18.3705 12.1327 18.0585 12.2497 17.8155 12.3787C17.2455 12.5655 16.6905 12.6285 16.1362 12.6285H0.0974536L0.0344536 12.9952C-0.0825464 14.1795 0.0974536 15.417 0.597704 16.5382L0.843704 16.9725V17.0302C2.3437 19.515 5.01145 20.6325 7.92145 20.6325C13.5157 20.6325 18.1012 18.2145 20.2762 12.9997C21.702 13.062 23.1405 12.6907 23.8155 11.3235L23.9955 11.0152L23.6985 10.827C22.8862 10.3312 21.7762 10.2652 20.8477 10.515L20.8275 10.5187L20.832 10.512ZM12.8242 9.51972H10.395V11.9407H12.8242V9.51972ZM12.8242 6.47697H10.395V8.89797H12.8242V6.47697ZM12.8242 3.37122H10.395V5.79297H12.8242V3.37122ZM15.7927 9.51972H13.3785V11.9407H15.8002V9.51972H15.7927ZM6.7972 9.51972H4.38295V11.9407H6.8047V9.51972H6.7972ZM9.8242 9.51972H7.42645V11.9407H9.8407V9.51972H9.8242ZM3.7972 9.51972H1.39795V11.9407H3.82795V9.51972H3.7972ZM9.8242 6.47697H7.42645V8.89797H9.8407V6.47997L9.8242 6.47697ZM6.7807 6.47697H4.3867V8.89797H6.80095V6.47997L6.7852 6.47697H6.7807Z" fill="black"/>
</svg>
