<svg width="24" height="24" viewBox="0 0 24 24" fill="none" xmlns="http://www.w3.org/2000/svg">
<g clip-path="url(#clip0_201_58090)">
<path d="M21.9487 19.062C21.7965 19.062 21.6405 19.0163 21.504 18.9263C21.1372 18.6765 21.039 18.1763 21.2812 17.8163C22.02 16.7235 22.4062 15.438 22.4062 14.0985C22.4062 12.7628 22.02 11.4735 21.2812 10.3793C21.0315 10.008 21.1372 9.51225 21.4965 9.27C21.8715 9.02325 22.3672 9.12525 22.6057 9.48375C23.5207 10.8518 24.0007 12.453 24.0007 14.1045C24.0007 15.7538 23.5207 17.3588 22.6057 18.7223C22.47 18.9645 22.2157 19.0815 21.9615 19.0815L21.9487 19.062ZM19.6597 17.7698C19.5075 17.7698 19.3515 17.7225 19.215 17.6288C18.8482 17.391 18.7537 16.8945 18.9997 16.5345C19.488 15.8115 19.746 14.9873 19.746 14.1045C19.746 13.2495 19.488 12.4095 18.9997 11.6753C18.7537 11.3115 18.8475 10.8195 19.215 10.5773C19.5862 10.3395 20.07 10.4295 20.3197 10.8045C20.988 11.7923 21.3435 12.9488 21.3435 14.1165C21.3435 15.3195 20.9872 16.4565 20.3197 17.4338C20.1757 17.6715 19.914 17.793 19.6597 17.793V17.7698ZM15.93 10.6133C15.6172 7.41825 12.9142 4.914 9.62923 4.914C6.91048 4.914 4.49998 6.66375 3.63748 9.19875C1.59073 9.4995 0.000732422 11.2695 0.000732422 13.398C0.000732422 15.7418 1.91098 17.652 4.26298 17.652H15.1687C17.1337 17.652 18.735 16.059 18.735 14.0978C18.735 12.3908 17.5357 10.9688 15.9307 10.617L15.93 10.6133ZM15.168 16.062H4.26223C2.79748 16.062 1.59448 14.871 1.59448 13.4018C1.59448 11.9378 2.78548 10.746 4.26223 10.746C4.97323 10.746 5.64523 11.031 6.14848 11.5268C6.44923 11.8395 6.96148 11.8395 7.27348 11.5268C7.57423 11.2268 7.57423 10.7145 7.27348 10.4018C6.71923 9.85875 6.04348 9.46875 5.30923 9.28875C6.05923 7.6245 7.73848 6.516 9.61348 6.516C12.2235 6.516 14.3557 8.64525 14.3557 11.2538C14.3557 11.766 14.2777 12.2618 14.1135 12.738C13.9807 13.1603 14.2035 13.6088 14.6257 13.7618C14.7 13.7888 14.79 13.8045 14.8635 13.8045C15.1957 13.8045 15.5085 13.5938 15.6135 13.2653C15.7192 12.948 15.7935 12.636 15.8407 12.3045C16.575 12.5895 17.0985 13.3088 17.0985 14.1368C17.0985 15.2295 16.2157 16.113 15.1335 16.113L15.168 16.062Z" fill="black"/>
</g>
<defs>
<clipPath id="clip0_201_58090">
<rect width="24" height="24" fill="white"/>
</clipPath>
</defs>
</svg>
