<svg width="24" height="24" viewBox="0 0 24 24" fill="none" xmlns="http://www.w3.org/2000/svg">
<g clip-path="url(#clip0_201_58106)">
<path d="M11.9648 24C9.43729 24 7.16404 22.8945 5.62504 20.8635C4.51579 19.4452 3.96454 17.7855 3.96454 16.0042C3.96454 15.4455 4.02304 14.895 4.14829 14.3985C4.44529 12.6135 5.73829 9.72299 8.07829 5.72249C9.80479 2.76524 11.2148 0.554237 11.289 0.554237C11.4098 0.308237 11.5973 -0.000762939 11.9648 -0.000762939C12.336 -0.000762939 12.5198 0.307487 12.7028 0.554237C12.7028 0.554237 14.1833 2.76899 15.9023 5.72249C18.246 9.72224 19.5353 12.6172 19.8435 14.4022C19.9725 14.8942 20.0348 15.4455 20.0348 15.9997C20.0348 17.7847 19.4798 19.4452 18.3863 20.8627C16.7655 22.8352 14.4255 23.9992 11.964 23.9992L11.9648 24ZM11.9648 21.906C13.8668 21.906 15.594 21.0465 16.7655 19.566C17.5628 18.5227 17.9918 17.2297 17.9918 15.8782C17.9918 15.4447 17.9333 15.0735 17.871 14.6475C17.625 13.2922 16.578 10.956 14.7968 7.81574C13.4415 5.41349 12.273 3.69449 12.273 3.69449L11.9603 3.26099L11.706 3.63224C11.706 3.63224 10.5338 5.41349 9.18679 7.75724C7.34329 10.9057 6.29254 13.23 6.11254 14.5935C6.05404 15.027 5.99179 15.3945 5.99179 15.8242C5.99179 17.1795 6.42154 18.4102 7.22254 19.5157C8.33179 21.0547 10.0508 21.9142 11.961 21.9142L11.9648 21.906Z" fill="black"/>
</g>
<defs>
<clipPath id="clip0_201_58106">
<rect width="24" height="24" fill="white"/>
</clipPath>
</defs>
</svg>
