<svg width="24" height="24" viewBox="0 0 24 24" fill="none" xmlns="http://www.w3.org/2000/svg">
<g clip-path="url(#clip0_201_58694)">
<path d="M11.3985 0.00373641C9.47248 0.0269864 5.33173 0.343486 3.01573 2.46824C1.29298 4.17524 0.691482 6.69899 0.620982 9.81974C0.562482 12.9292 0.491982 18.7687 6.12073 20.3587V22.7805C6.12073 22.7805 6.08548 23.7495 6.72598 23.9482C7.51498 24.198 7.96423 23.4525 8.71423 22.6515L10.113 21.0697C13.9642 21.39 16.914 20.652 17.2537 20.5425C18.0352 20.2927 22.437 19.7302 23.1562 13.89C23.8942 7.85849 22.797 4.05824 20.8162 2.33924H20.8042C20.2065 1.78874 17.8042 0.0382364 12.4372 0.0187364C12.4372 0.0187364 12.039 -0.00826359 11.3985 0.00298641V0.00373641ZM11.4645 1.69949C12.0112 1.69574 12.3435 1.71899 12.3435 1.71899C16.8862 1.73099 19.0545 3.09824 19.566 3.55874C21.234 4.98824 22.0935 8.41424 21.4642 13.4497C20.8665 18.3322 17.2965 18.6412 16.6357 18.852C16.3545 18.942 13.7565 19.5825 10.4835 19.3717C10.4835 19.3717 8.04598 22.3132 7.28398 23.0707C7.16323 23.2035 7.02223 23.2425 6.93223 23.223C6.80323 23.1915 6.76423 23.0317 6.77173 22.8127L6.79498 18.7935C2.02123 17.4735 2.30248 12.4927 2.35348 9.89099C2.41198 7.28924 2.90023 5.16074 4.35373 3.71924C6.31048 1.94999 9.82648 1.71149 11.463 1.69949H11.4645ZM11.8245 4.30049C11.6602 4.29674 11.5237 4.43324 11.5237 4.59749C11.5237 4.76549 11.6602 4.89824 11.8245 4.89824C13.3282 4.87124 14.778 5.44124 15.8557 6.48824C16.9455 7.54649 17.4765 8.96849 17.4967 10.8277C17.4967 10.992 17.6295 11.1285 17.7975 11.1285V11.1165C17.9617 11.1165 18.0982 10.9837 18.0982 10.8195C18.1725 9.05024 17.5162 7.33124 16.2855 6.05774C15.0982 4.89749 13.5937 4.29974 11.8245 4.29974V4.30049ZM7.87123 4.98824C7.66048 4.95674 7.44148 5.00024 7.25773 5.10899H7.24198C6.83548 5.34749 6.45673 5.64824 6.09748 6.05024C5.82373 6.36674 5.67523 6.68699 5.63623 6.99524C5.61298 7.17899 5.62873 7.36274 5.68348 7.53824L5.70298 7.55024C6.01123 8.45624 6.41398 9.32774 6.90598 10.1482C7.53898 11.3002 8.31973 12.3667 9.22648 13.32L9.25348 13.359L9.29623 13.3905L9.32323 13.422L9.35473 13.449C10.3117 14.3595 11.3782 15.1402 12.5347 15.7807C13.8547 16.4992 14.6557 16.839 15.1365 16.98V16.9875C15.2775 17.0302 15.4057 17.0497 15.5347 17.0497C15.945 17.0182 16.332 16.8547 16.6365 16.5772C17.0272 16.2255 17.3355 15.8392 17.5665 15.429V15.4215C17.7967 14.988 17.7187 14.5777 17.3865 14.3002C16.7227 13.7182 15.9997 13.2022 15.2377 12.7575C14.7262 12.48 14.2065 12.648 13.9957 12.9292L13.5465 13.4955C13.3162 13.7767 12.8977 13.7377 12.8977 13.7377L12.8857 13.7452C9.76498 12.948 8.93248 9.78824 8.93248 9.78824C8.93248 9.78824 8.89348 9.35849 9.18223 9.13949L9.74473 8.68649C10.014 8.46749 10.2015 7.94849 9.91273 7.43624C9.47098 6.67049 8.95573 5.95199 8.37373 5.28749C8.24848 5.13149 8.06923 5.02574 7.86973 4.98674L7.87123 4.98824ZM12.3435 5.87924C11.9452 5.87924 11.9452 6.48074 12.3472 6.48074C13.347 6.49649 14.3002 6.91049 14.9955 7.62899C15.6285 8.32799 15.9562 9.25799 15.894 10.1992C15.8977 10.3635 16.0305 10.4962 16.1947 10.4962L16.2067 10.512C16.371 10.512 16.5075 10.3755 16.5075 10.2112C16.5345 9.01949 16.164 8.01974 15.4372 7.21874C14.7067 6.41774 13.6875 5.96849 12.3862 5.87924C12.3705 5.87924 12.3592 5.87924 12.3435 5.87924ZM12.8362 7.49624C12.426 7.48424 12.4102 8.09774 12.8167 8.10974C13.8052 8.16074 14.2852 8.66024 14.3482 9.68774C14.352 9.85199 14.4847 9.98099 14.6452 9.98099H14.6572C14.8252 9.97349 14.958 9.82874 14.946 9.66074C14.8755 8.32124 14.145 7.56674 12.8482 7.49699C12.8445 7.49699 12.8407 7.49699 12.8362 7.49699V7.49624Z" fill="black"/>
</g>
<defs>
<clipPath id="clip0_201_58694">
<rect width="24" height="24" fill="white"/>
</clipPath>
</defs>
</svg>
