<svg width="24" height="24" viewBox="0 0 24 24" fill="none" xmlns="http://www.w3.org/2000/svg">
<g clip-path="url(#clip0_201_58684)">
<path d="M6.83175 6.00003C6.83175 5.84028 6.84 5.67978 6.855 5.52003C6.87525 5.31228 6.92625 5.12103 6.969 4.92228L6.273 3.54753H0L2.184 7.36353H3.711L5.805 11.3445C6.141 10.2975 6.73425 9.35253 7.53075 8.59878C7.0695 7.80978 6.828 6.91503 6.83175 6.00078V6.00003ZM10.3628 19.6643L12 22.6373L13.6373 19.6605C13.1025 19.8015 12.5595 19.8953 12 19.8953C11.4405 19.8953 10.8983 19.8015 10.3628 19.6643ZM17.727 3.54678L17.0123 4.80453C17.0662 5.03853 17.121 5.27628 17.145 5.52678C17.2463 6.59778 17.0077 7.67178 16.4692 8.59803C17.2665 9.35478 17.859 10.3013 18.195 11.3438L20.2927 7.36278H21.8197L24 3.54678H17.727ZM17.8478 12.0083C17.5425 10.7033 16.812 9.53928 15.7725 8.69553C17.9603 5.62953 15.7695 1.36728 11.9992 1.36353C9.43725 1.36353 7.362 3.43878 7.362 6.00078C7.362 6.96978 7.66275 7.91103 8.226 8.69553C6.81525 9.83628 5.99925 11.5515 5.99925 13.3635C5.99925 15.8325 7.515 18.0518 9.8115 18.9533C11.2222 19.5045 12.7808 19.5 14.1877 18.9533C16.9605 17.8635 18.516 14.91 17.8478 12.0083ZM12 4.22703C13.1287 4.22703 14.0468 5.14503 14.0468 6.27303C14.0468 9.00003 9.9525 9.00003 9.9525 6.27303C9.9525 5.14503 10.8705 4.22703 11.9992 4.22703H12ZM12 15.684C9.02025 15.5738 9.02025 11.1518 12 11.0468C13.281 11.0468 14.316 12.0818 14.316 13.3628C14.316 14.6445 13.281 15.684 12 15.684Z" fill="black"/>
</g>
<defs>
<clipPath id="clip0_201_58684">
<rect width="24" height="24" fill="white"/>
</clipPath>
</defs>
</svg>
