<svg width="24" height="24" viewBox="0 0 24 24" fill="none" xmlns="http://www.w3.org/2000/svg">
<g clip-path="url(#clip0_201_57262)">
<path d="M12 24C5.37075 24 0 18.6292 0 12C0 5.37075 5.37075 0 12 0C18.6292 0 24 5.37075 24 12C24 18.6292 18.6292 24 12 24ZM17.3708 15.8632C17.1405 16.0237 16.7265 16.1835 16.2885 16.1835C15.8273 16.1835 15.4838 15.9998 15.4838 15.3323V10.3207C15.4838 7.17225 14.0812 6.00075 11.3468 6.00075C9.82725 6.00075 8.472 6.36825 7.6905 6.82875C7.3665 7.356 7.29975 8.2545 7.46025 8.829C8.5185 8.1765 9.7335 7.82475 10.9762 7.81725C12.7695 7.81725 13.5075 8.622 13.5075 10.5285V11.13C12.8393 10.8525 11.9685 10.7625 11.2102 10.7625C8.6085 10.7625 6.609 11.8642 6.609 14.5553C6.609 17.0595 8.3355 18.0007 10.3125 18.0007C11.8282 18.0007 12.8865 17.52 13.5548 16.6455H13.6448C13.8285 17.4967 14.43 18.0007 15.4613 18.0007H15.4733C16.0282 18.0007 16.5472 17.8485 16.9928 17.5785L16.9808 17.586C17.2778 17.172 17.418 16.461 17.3715 15.8632H17.3708ZM10.8165 16.1835C9.5745 16.1835 8.60925 15.6525 8.60925 14.4608C8.60925 13.2382 9.59775 12.3907 11.508 12.3907C12.1875 12.387 12.8678 12.504 13.5082 12.7343V14.988C12.9105 15.8632 11.805 16.1835 10.8165 16.1835Z" fill="black"/>
</g>
<defs>
<clipPath id="clip0_201_57262">
<rect width="24" height="24" fill="white"/>
</clipPath>
</defs>
</svg>
