<svg width="24" height="24" viewBox="0 0 24 24" fill="none" xmlns="http://www.w3.org/2000/svg">
<g clip-path="url(#clip0_201_57788)">
<path d="M-2.58789e-05 4.12503C-2.58789e-05 3.92178 0.0194741 3.72303 0.0584741 3.52728L2.01522 5.26203L4.15947 2.88303L2.24547 1.17978C2.50347 1.10928 2.77647 1.06653 3.05772 1.06653C4.73772 1.06653 6.10047 2.42178 6.11622 4.10178V4.12503C6.11622 4.27728 6.10422 4.42953 6.08097 4.57428L8.46747 6.68778C7.60047 7.35603 6.90897 8.22678 6.45147 9.22653L3.97872 7.03503C3.68172 7.13253 3.36897 7.18353 3.05697 7.18353C1.36947 7.17978 -0.00152588 5.81253 -0.00152588 4.12503H-2.58789e-05ZM20.9415 16.8165C20.637 16.8165 20.34 16.8638 20.0625 16.9455L17.754 14.9025C17.3752 15.9375 16.7497 16.8675 15.9337 17.6093L17.9295 19.3748C17.898 19.539 17.8867 19.707 17.8822 19.875C17.886 21.9218 19.8585 23.391 21.8197 22.8045L19.8277 21.0353L21.9682 18.672L23.949 20.43C23.9805 20.25 24 20.067 24 19.875V19.8518C23.9842 18.1718 22.6207 16.8165 20.9415 16.8165ZM17.547 9.22653L20.0197 7.03503C20.3085 7.12878 20.6175 7.18353 20.9415 7.18353C22.8675 7.17978 24.3127 5.41803 23.9415 3.53103L21.9847 5.26578L19.8405 2.88303L21.7545 1.17978C21.489 1.10553 21.2152 1.06653 20.9422 1.06653C19.2622 1.07028 17.8995 2.42628 17.8837 4.10553V4.12503C17.8837 4.27728 17.8957 4.42953 17.919 4.57428L15.5325 6.68778C16.3995 7.35603 17.091 8.23053 17.5485 9.22653H17.547ZM6.24597 14.9025L3.93747 16.9455C1.98447 16.3598 0.0157241 17.8125 -2.58789e-05 19.8518V19.875C-2.58789e-05 20.0663 0.0194741 20.25 0.0509741 20.43L2.03547 18.672L4.17597 21.0353L2.18022 22.8045C4.14147 23.3903 6.11397 21.9218 6.11772 19.875C6.11397 19.707 6.10197 19.539 6.07047 19.3748L8.06622 17.6093C7.24947 16.8668 6.62472 15.9375 6.24597 14.9025ZM15.2145 17.5583C15.6322 18.1913 15.285 19.0425 14.5462 19.203C13.8037 19.3635 13.1362 18.7305 13.2532 17.9843H13.062C13.1632 18.6368 12.66 19.2225 11.9992 19.2225C11.3385 19.2225 10.8352 18.6368 10.9365 17.9843H10.7842C10.8705 18.6405 10.362 19.2225 9.69822 19.23C9.09672 19.23 8.60472 18.7298 8.60472 18.1125C8.60472 17.9055 8.66322 17.7105 8.76072 17.5425C7.26822 16.4018 6.28797 14.4915 6.28797 12.3278C6.28797 8.83203 8.84622 5.99553 11.9992 5.99553C15.1552 5.99553 17.7142 8.83128 17.7142 12.3278C17.7142 14.5035 16.722 16.4213 15.2182 17.562L15.2145 17.5583ZM11.0235 11.6445C10.887 11.3865 10.695 11.1638 10.4647 10.9845C10.1872 10.8165 9.87072 10.7265 9.54672 10.7228C9.43722 10.7228 9.33222 10.7348 9.22647 10.758C8.81997 10.809 8.48022 11.0865 8.24172 11.4068C8.03472 11.661 7.87422 11.973 7.87047 12.309C7.83897 12.5903 7.89372 12.8678 7.94472 13.137C8.01147 13.461 8.23797 13.7228 8.49522 13.9103C8.61222 14.0078 8.78397 14.1368 8.93697 14.0273C9.03447 13.8945 8.95272 13.6988 9.04272 13.551C9.07797 13.41 9.17172 13.2893 9.30072 13.2225C9.56247 13.0935 9.82797 12.9608 10.1092 12.867C10.3357 12.8003 10.5232 12.648 10.719 12.519C10.9732 12.324 11.145 11.9603 11.0235 11.6438V11.6445ZM12.0195 13.9725C11.7382 13.965 11.3865 15.207 11.445 15.75C11.6167 16.473 11.6797 15.246 12.0195 15.246C12.3397 15.258 12.2932 16.5 12.5467 15.75C12.6247 15.2498 12.324 13.9808 12.0195 13.9725ZM16.0545 13.137C16.1055 12.8678 16.1602 12.5903 16.1287 12.309C16.125 11.973 15.9645 11.6603 15.7575 11.4068C15.519 11.0865 15.1792 10.809 14.7727 10.758C14.667 10.7348 14.562 10.7228 14.4525 10.7228C14.136 10.7228 13.812 10.8203 13.5345 10.9845C13.2997 11.1563 13.1167 11.391 12.9757 11.6445C12.855 11.961 13.0267 12.324 13.2802 12.5198C13.4752 12.6488 13.6627 12.801 13.89 12.8715C14.1712 12.9615 14.4367 13.0943 14.6985 13.2233C14.8275 13.29 14.9212 13.4108 14.9565 13.5518C15.0465 13.6965 14.964 13.8953 15.0622 14.028C15.2145 14.1375 15.3862 14.0085 15.504 13.911C15.762 13.7235 15.9885 13.4618 16.0545 13.1378V13.137Z" fill="black"/>
</g>
<defs>
<clipPath id="clip0_201_57788">
<rect width="24" height="24" fill="white"/>
</clipPath>
</defs>
</svg>
