<svg width="24" height="24" viewBox="0 0 24 24" fill="none" xmlns="http://www.w3.org/2000/svg">
<g clip-path="url(#clip0_201_58400)">
<path d="M2.93025 15.477L9.324 15.48L5.742 22.2382C2.18025 20.0595 0.00375 16.1805 0 12C0 5.38275 5.38275 0 12 0C13.7618 0 15.438 0.38325 16.941 1.062L5.43 12.5782H15.6803L8.14125 20.1952L11.2545 14.316H3.79725C3.453 13.164 3.477 12 3.477 12C3.48375 7.28475 7.30875 3.47325 12.0203 3.477C12.1133 3.477 12.207 3.48 12.3015 3.48L13.3958 2.38275C12.942 2.316 12.4808 2.2845 12.021 2.2845C6.66525 2.2845 2.28975 6.6405 2.28975 11.9992C2.28975 11.9992 2.2305 13.7183 2.931 15.4762L2.93025 15.477ZM18.2542 1.76625C21.8205 3.94125 23.9963 7.82025 24 12C24 18.6173 18.6173 24 12 24C10.2968 24.0037 8.60925 23.6408 7.059 22.9342L18.4837 11.4225H8.20275L15.8588 3.8055L12.7455 9.68475H20.2065C20.5222 10.7625 20.5223 12.0007 20.5223 12.0007C20.5155 16.716 16.6905 20.5275 11.976 20.5238C11.8703 20.5238 11.769 20.5208 11.6632 20.517L10.5772 21.6143C15.894 22.392 20.835 18.7125 21.612 13.3965C21.6787 12.9352 21.714 12.4665 21.714 12.0015C21.714 10.8105 21.495 9.63075 21.0653 8.5215H14.6752L18.2542 1.76625Z" fill="black"/>
</g>
<defs>
<clipPath id="clip0_201_58400">
<rect width="24" height="24" fill="white"/>
</clipPath>
</defs>
</svg>
