<svg width="24" height="24" viewBox="0 0 24 24" fill="none" xmlns="http://www.w3.org/2000/svg">
<g clip-path="url(#clip0_201_57920)">
<path d="M12.0427 23.9685C12.5235 23.9648 12.996 23.937 13.4685 23.8748C14.5507 23.7338 15.6127 23.4413 16.6132 23.0115C18.0232 22.41 19.3125 21.5385 20.406 20.4683C21.4102 19.4798 22.2495 18.3158 22.8472 17.0385C23.355 15.945 23.718 14.7653 23.8665 13.566C24.015 12.4058 24.003 11.2185 23.8237 10.0658C23.6752 9.105 23.4015 8.17125 23.031 7.2765C22.7887 6.71775 22.5037 6.17475 22.1752 5.6595C21.0075 3.8235 19.3155 2.34675 17.367 1.359C16.6717 1.0035 15.9412 0.714754 15.195 0.492004H15.1875C15.3082 0.554254 15.4297 0.621004 15.5355 0.691504C15.6525 0.765754 15.774 0.840004 15.8872 0.918004C16.4535 1.3005 16.9807 1.74225 17.4457 2.24625C18.5085 3.39075 19.2427 4.797 19.6605 6.2895C19.9455 7.26975 20.0977 8.28525 20.1562 9.30525C20.199 10.0478 20.199 10.7978 20.109 11.5358C19.9605 12.8055 19.554 14.0438 18.8827 15.1298C18.387 15.9345 17.742 16.6493 16.9807 17.2155C15.735 18.141 14.1015 18.696 12.543 18.3285C12.2887 18.2663 12.0315 18.1838 11.7967 18.0705C11.523 17.9453 11.2537 17.793 11.0152 17.6213C10.5502 17.3085 10.1325 16.938 9.77325 16.5158C9.336 15.996 8.976 15.4028 8.7225 14.7698C8.40975 13.9613 8.24175 13.098 8.2305 12.2265C8.199 10.953 8.45325 9.67575 9.08175 8.55825C9.504 7.812 10.0702 7.1595 10.746 6.6405C10.9725 6.4605 11.211 6.30825 11.4495 6.15975L11.4652 6.15225C11.0002 6.051 10.5082 6.00375 10.0237 6.03525C9.606 6.06225 9.20325 6.141 8.7975 6.27375C8.43825 6.3945 8.094 6.543 7.77825 6.723C7.524 6.8715 7.2705 7.0395 7.04775 7.21875C6.837 7.39875 6.6255 7.578 6.4305 7.77375C5.30925 8.92575 4.66125 10.4535 4.407 12.0278C4.2585 13.0043 4.2585 13.989 4.317 14.9813C4.42275 16.3755 4.70775 17.7668 5.262 19.0395C5.6055 19.8368 6.05475 20.5665 6.60975 21.2153C7.4655 22.2 8.54325 22.9695 9.7425 23.4458C10.4182 23.715 11.1367 23.9108 11.856 23.985C11.9302 24.0008 12.0045 24.0008 12.063 24.0008L12.0427 23.9685ZM9.1095 23.5703C8.94525 23.4998 8.79675 23.4218 8.66025 23.3438C8.51175 23.2575 8.3595 23.1758 8.211 23.082C7.62525 22.7228 7.10175 22.2968 6.621 21.8085C5.5275 20.6715 4.7925 19.242 4.37475 17.7263C4.08975 16.6913 3.9375 15.6248 3.879 14.5545C3.83625 13.851 3.852 13.1603 3.92625 12.4725C4.059 11.2148 4.422 9.97275 5.05125 8.89425C5.49675 8.097 6.114 7.39425 6.8325 6.83925C7.3245 6.46425 7.88325 6.14775 8.46525 5.94075C9.2895 5.64 10.1722 5.55 11.028 5.6715C11.3602 5.71425 11.688 5.7885 11.9887 5.89425C12.0157 5.89425 12.0157 5.89425 12.0315 5.92575C12.0472 5.9415 12.0787 5.9415 12.0937 5.95275C12.1365 5.97225 12.195 6 12.258 6.027C12.4965 6.14775 12.7342 6.30075 12.9615 6.44925C13.86 7.0785 14.5942 7.9455 15.0592 8.949C15.477 9.86325 15.6727 10.8863 15.6885 11.8905C15.7042 12.969 15.5085 14.0468 15.0442 15.0353C14.4892 16.2188 13.548 17.223 12.4072 17.8673C12.4972 17.8988 12.5872 17.91 12.6765 17.9415C12.903 17.9843 13.1257 18.0158 13.3642 18.0158C14.8327 18.063 16.2585 17.3558 17.3055 16.3673C17.5005 16.1873 17.6805 15.9923 17.8447 15.7853C18.0712 15.516 18.282 15.246 18.462 14.961C18.7005 14.586 18.8955 14.211 19.0755 13.809C19.302 13.2698 19.4775 12.7155 19.5832 12.1448C19.7782 11.1405 19.794 10.1213 19.7317 9.11775C19.599 7.09425 19.0597 5.07075 17.892 3.39525C17.712 3.141 17.5327 2.8995 17.337 2.67675C17.0047 2.30175 16.6455 1.95375 16.2705 1.64175C15.8527 1.29825 15.3877 0.981754 14.907 0.727504C14.415 0.504754 13.8285 0.278254 13.2157 0.129754L12.915 0.067504C12.708 0.0360041 12.4972 0.0247541 12.282 0.00900405C11.958 -0.00674595 11.6137 -0.00299595 11.2665 0.0247541C10.563 0.067504 9.8565 0.185254 9.15675 0.360754C5.80125 1.22775 2.8635 3.56775 1.30125 6.669C0.800996 7.6575 0.445496 8.71575 0.238496 9.80175C-3.92646e-06 11.0438 -0.0307539 12.3255 0.132746 13.575C0.253496 14.5943 0.507746 15.5985 0.909746 16.5518C1.14 17.1218 1.42125 17.6768 1.73775 18.2003C2.83125 19.9853 4.42125 21.4388 6.24525 22.4423C6.933 22.833 7.65525 23.13 8.4015 23.3873C8.628 23.4615 8.8545 23.5358 9.093 23.5943L9.1095 23.5703Z" fill="black"/>
</g>
<defs>
<clipPath id="clip0_201_57920">
<rect width="24" height="24" fill="white"/>
</clipPath>
</defs>
</svg>
