<svg width="24" height="24" viewBox="0 0 24 24" fill="none" xmlns="http://www.w3.org/2000/svg">
<g clip-path="url(#clip0_201_57476)">
<path d="M11.9813 0.375C18.6278 0.375 23.625 5.53575 23.625 12C23.625 18.8955 18.0705 23.625 11.9813 23.625C5.7 23.625 0.375 18.492 0.375 12C0.375 5.7705 5.283 0.375 11.9813 0.375ZM12.0187 2.4705C6.4785 2.4705 2.4705 7.05975 2.4705 12C2.4705 17.1472 6.7455 21.5062 12.0187 21.5062C16.8562 21.5062 21.525 17.7045 21.525 12C21.5295 6.66525 17.2972 2.4705 12.0187 2.4705ZM12.1875 4.96425C12.3188 4.95 12.7267 5.0115 12.7267 5.5035L13.0365 10.5285L13.266 7.749C13.266 7.46775 13.4865 7.25175 13.7633 7.25175C14.04 7.25175 14.2598 7.47225 14.2598 7.749C14.2598 7.866 14.2365 7.482 14.5267 11.5695L14.799 8.5605C14.8133 8.42475 14.9347 8.12475 15.2767 8.12475C15.4552 8.12475 15.741 8.23275 15.774 8.54175L16.3132 13.065L16.5615 12.465C16.6462 12.2588 16.8053 12.156 17.0392 12.156H19.758V13.1542H17.3722L16.5187 15.2302C16.3357 15.6945 15.6045 15.657 15.5438 15.0848L15.3563 13.5892L15.0045 17.9303C14.9903 18.0712 14.8635 18.366 14.526 18.366C14.385 18.366 14.067 18.2677 14.0295 17.9303C14.0295 17.841 14.0573 18.2025 13.7393 14.2785L13.491 17.6625C13.4393 17.8875 13.266 18.0983 12.9938 18.0983C12.858 18.0983 12.534 18.0045 12.4972 17.6625C12.4972 17.5732 12.5205 17.9767 12.225 13.5518L11.9528 17.9955C11.9528 18.291 11.784 18.5767 11.4555 18.5767C11.2118 18.5767 10.959 18.3847 10.959 18.0142L10.6867 13.9035C10.4145 18.2393 10.4385 17.841 10.4385 17.9303C10.3868 18.1553 10.2135 18.366 9.942 18.366C9.801 18.366 9.48225 18.2677 9.44475 17.9303C9.44475 17.8972 9.426 17.8785 9.426 17.808L9.135 13.6553L8.9055 16.3132C8.8725 16.6178 8.59125 16.749 8.40825 16.749C8.13675 16.749 7.95825 16.557 7.91175 16.332L7.39125 12.7507C7.2975 12.9382 7.227 13.1445 6.87075 13.1445H4.461V12.1462H6.561L7.203 10.8383C7.40925 10.374 8.05575 10.5007 8.136 10.965L8.2815 11.9213L8.67525 7.332C8.67525 7.05075 8.90025 6.8355 9.17175 6.8355C9.195 6.8355 9.669 6.8265 9.669 7.41675L9.8985 10.656L10.2083 6.315C10.2083 5.84175 10.6538 5.8185 10.686 5.8185C10.7145 5.8185 11.1833 5.8515 11.1833 6.315L11.4315 10.0935L11.7225 5.50425C11.727 5.4525 11.694 5.02125 12.1868 4.965L12.1875 4.96425Z" fill="black"/>
</g>
<defs>
<clipPath id="clip0_201_57476">
<rect width="24" height="24" fill="white"/>
</clipPath>
</defs>
</svg>
