<svg width="24" height="24" viewBox="0 0 24 24" fill="none" xmlns="http://www.w3.org/2000/svg">
<g clip-path="url(#clip0_201_58620)">
<path d="M20.5155 16.5157C20.7068 16.4925 20.8905 16.4062 21.0548 16.3087C21.4028 16.1055 21.7035 15.8362 21.9923 15.5587C22.2188 15.3442 22.4377 15.1215 22.6448 14.8867C22.7655 14.742 22.9028 14.5897 23.0198 14.4375C23.1255 14.2927 23.2305 14.1525 23.3363 14.0002C23.4105 13.887 23.4848 13.77 23.547 13.6485C23.8792 13.0507 24.1485 12.3127 23.91 11.6325C23.8785 11.5387 23.832 11.4487 23.7892 11.3632C23.6955 11.211 23.5785 11.0745 23.457 10.9492C23.2463 10.7497 22.9883 10.59 22.734 10.461C22.359 10.2735 21.9525 10.1482 21.531 10.0545C20.9295 9.91797 20.328 9.85497 19.7108 9.82797C18.8708 9.78897 18.027 9.82422 17.199 9.90597C17.3047 10.0155 17.394 10.1325 17.4998 10.242C17.6947 10.4685 17.8943 10.7107 18.0697 10.9687C18.3 11.2657 18.507 11.598 18.7185 11.9295C19.32 12.9217 19.773 14.004 20.1015 15.1012C20.2073 15.4335 20.2852 15.765 20.3558 16.1092C20.3873 16.23 20.4067 16.3672 20.4338 16.5L20.5155 16.5157ZM1.92975 16.3672C1.98075 16.1602 2.0355 15.9532 2.09025 15.75C2.16825 15.4492 2.26575 15.1485 2.35575 14.8552C2.42625 14.6362 2.50425 14.4255 2.58225 14.211C2.67225 13.9845 2.766 13.758 2.85975 13.5315C2.89125 13.4572 2.922 13.3792 2.95725 13.305C3.0585 13.0905 3.168 12.8752 3.2775 12.6645C3.414 12.426 3.5355 12.1837 3.672 11.961C3.852 11.6445 4.047 11.3557 4.25775 11.07L4.2735 11.0542C3.94125 11.0385 3.594 11.0385 3.2655 11.0385C3.02325 11.0385 2.76975 11.0542 2.5275 11.0857C2.36325 11.1015 2.199 11.1172 2.03175 11.1442C1.911 11.16 1.79325 11.1915 1.6725 11.2222C1.08675 11.3707 0.42225 11.64 0.13725 12.2265C0.10575 12.3045 0.07875 12.3787 0.04725 12.4687C0.01575 12.5895 0 12.738 0 12.8752C0 13.086 0.04725 13.2975 0.09 13.5082C0.18 13.8247 0.33225 14.1255 0.48075 14.4105C0.76575 14.9062 1.1295 15.3712 1.5045 15.8092L1.98525 16.3327L1.92975 16.3672ZM20.0783 16.32C19.59 14.019 18.5355 11.7885 16.887 10.0852L16.8053 9.99897L16.7625 9.95997C16.563 9.97197 16.3643 10.0027 16.161 10.0305C14.0048 10.3627 11.8995 10.9485 9.876 11.745C10.044 11.7922 10.212 11.8387 10.3837 11.8972C11.0872 12.1237 11.7938 12.3622 12.489 12.6202C14.9108 13.5225 17.2432 14.6475 19.4888 15.9405L20.0745 16.2885L20.0783 16.32ZM2.37525 16.1835L3.246 15.3397C3.39825 15.195 3.39825 15.195 3.54675 15.0585C5.082 13.7032 6.867 12.6832 8.72625 11.844C8.4525 11.766 8.1795 11.7075 7.902 11.649C6.85125 11.4067 5.7885 11.2117 4.7145 11.1217C4.63275 11.2425 4.55025 11.3482 4.4685 11.4652C4.2885 11.739 4.113 11.9925 3.9525 12.2775C3.80025 12.5197 3.67875 12.762 3.558 13.0042C3.45675 13.1955 3.351 13.395 3.273 13.59C3.246 13.6327 3.23025 13.6912 3.2145 13.7385C3.12075 13.965 3.0195 14.1877 2.9295 14.4142C2.85525 14.598 2.793 14.7735 2.7345 14.9572C2.6445 15.2422 2.5545 15.5122 2.4765 15.801C2.43375 15.9495 2.3865 16.1017 2.3595 16.2502L2.37525 16.1835ZM9.28875 11.5935C9.49575 11.5035 9.70275 11.4217 9.9135 11.3392C10.1483 11.2455 10.3822 11.1555 10.617 11.07C11.6407 10.695 12.6757 10.3785 13.7302 10.125C14.601 9.91422 15.4725 9.74622 16.3627 9.61347L16.4212 9.59772C16.179 9.37122 15.9255 9.17547 15.6713 8.98047C15.1868 8.62122 14.6632 8.31672 14.1045 8.07822C12.8115 7.52322 11.382 7.34397 10.0028 7.59747C9.249 7.73022 8.51025 7.98822 7.8345 8.35122C6.768 8.92122 5.83425 9.73422 5.06475 10.6635L5.03325 10.6792L5.502 10.7265L6.072 10.8007C6.88425 10.9372 7.66575 11.1015 8.463 11.2815C8.76375 11.3557 9.0525 11.4337 9.33825 11.508L9.28875 11.5935Z" fill="black"/>
</g>
<defs>
<clipPath id="clip0_201_58620">
<rect width="24" height="24" fill="white"/>
</clipPath>
</defs>
</svg>
