<svg width="24" height="24" viewBox="0 0 24 24" fill="none" xmlns="http://www.w3.org/2000/svg">
<g clip-path="url(#clip0_201_58596)">
<path d="M21.3952 15.0353C21.1485 14.2733 20.883 13.5165 20.5942 12.7703L19.512 10.074C19.5157 10.0433 19.527 9.516 19.527 9.23775C19.527 4.63275 17.352 0 12 0C6.648 0 4.473 4.63275 4.473 9.24225C4.473 9.516 4.488 10.047 4.488 10.0785L3.40575 12.7733C3.117 13.5203 2.8515 14.2733 2.60475 15.0353C1.5855 18.3203 1.914 19.68 2.1675 19.7115C2.70675 19.7738 4.26975 17.2388 4.26975 17.2388C4.26975 18.708 5.0265 20.6257 6.66375 22.0087C6.05475 22.1955 5.301 22.4887 4.8195 22.845C4.38675 23.1652 4.44075 23.4893 4.5195 23.622C4.86225 24.2003 10.4017 23.9888 11.9992 23.8102C13.6012 23.9895 19.14 24.2003 19.4835 23.622C19.5615 23.4893 19.6162 23.1652 19.1835 22.845C18.6982 22.4887 17.9482 22.1962 17.3355 22.0087C18.9727 20.622 19.7295 18.7035 19.7295 17.235C19.7295 17.235 21.2925 19.7738 21.8317 19.7078C22.086 19.6807 22.4137 18.3165 21.3945 15.036L21.3952 15.0353ZM12.66 4.848C12.699 3.79275 13.32 2.96925 14.0467 3C14.7727 3.03075 15.3277 3.90975 15.2887 4.965C15.2497 6.01575 14.6287 6.84375 13.902 6.80925C13.1797 6.777 12.621 5.898 12.66 4.848ZM9.95325 3C10.68 2.96925 11.301 3.79275 11.34 4.848C11.379 5.898 10.8202 6.777 10.098 6.80925C9.37125 6.8445 8.75025 6.0165 8.71125 4.965C8.67225 3.90975 9.22725 3.03075 9.95325 3ZM7.422 8.29275C7.61325 7.863 9.56625 7.38675 11.988 7.38675H12.012C14.43 7.38675 16.3867 7.863 16.578 8.29275C16.59 8.3115 16.5937 8.33175 16.5937 8.355C16.5937 8.38725 16.5817 8.41425 16.566 8.43825C16.4017 8.676 14.2343 9.855 12.0157 9.855H11.988C9.76575 9.855 7.59825 8.676 7.434 8.43825C7.40175 8.3985 7.398 8.34 7.422 8.2935V8.29275ZM17.844 16.914C17.6212 20.5942 15.441 22.902 12.0697 22.938H11.934C8.562 22.902 6.37875 20.5942 6.15975 16.914C6.078 15.5662 6.15975 14.4218 6.3045 13.4843C6.62475 13.551 6.94425 13.6095 7.26525 13.6605V17.1683C7.26525 17.1683 8.92125 17.5042 10.581 17.2703V14.0475C11.0693 14.0745 11.5417 14.0865 11.9872 14.0782H12.0112C13.6905 14.1023 15.726 13.875 17.694 13.4843C17.8432 14.4225 17.9212 15.5662 17.8432 16.914H17.844ZM10.4797 5.805C10.7925 5.76225 11.0227 5.39475 10.9875 4.98C10.9522 4.56225 10.6755 4.25775 10.3582 4.30125C10.0463 4.34025 9.81525 4.7115 9.85125 5.1255C9.8865 5.5395 10.1632 5.84475 10.479 5.80575L10.4797 5.805ZM14.4802 5.15625C14.559 5.1915 14.6992 5.199 14.7705 5.01225C14.8057 4.914 14.7937 4.84425 14.7585 4.797C14.7345 4.76175 14.6257 4.68 14.3872 4.62075C13.4842 4.398 13.047 5.004 12.984 5.1165C12.9412 5.19075 12.9727 5.2965 13.0387 5.3475C13.1047 5.39775 13.1797 5.38275 13.2188 5.33925C13.797 4.71 14.43 5.13225 14.4795 5.1555L14.4802 5.15625Z" fill="black"/>
</g>
<defs>
<clipPath id="clip0_201_58596">
<rect width="24" height="24" fill="white"/>
</clipPath>
</defs>
</svg>
