<svg width="24" height="24" viewBox="0 0 24 24" fill="none" xmlns="http://www.w3.org/2000/svg">
<path d="M7.25779 0L9.46504 5.172H6.65629L7.58629 7.44525H13.2735L7.25779 0ZM7.08979 7.9725C6.77329 7.9725 6.60154 7.9725 6.46054 8.42925C6.28879 8.97225 6.26929 9.99975 6.26929 11.9992C6.26929 13.9987 6.28879 15.0263 6.46054 15.5693C6.60154 16.026 6.77329 16.026 7.08979 16.026H10.6755L8.89804 11.823H10.488L9.59704 9.7215H10.023L10.914 11.823H12.8085L11.172 7.97175L7.08979 7.9725ZM10.488 11.8245H10.4918H10.488ZM11.574 7.9725L12.3203 9.72675H15.492C15.5625 9.72675 15.7223 9.6405 15.7223 8.84775C15.7223 8.055 15.5618 7.9725 15.492 7.9725H11.574ZM12.4688 10.074L13.2113 11.8238H15.8438C15.9143 11.8238 16.074 11.7375 16.074 10.9485C16.074 10.1557 15.9135 10.0695 15.8438 10.0695H12.4688V10.074ZM9.46879 12.1755L11.328 16.5502H8.01979L14.1368 23.9993L11.9295 18.8273H14.7383L13.797 16.554H12.4965L10.6373 12.1747L9.46879 12.1755ZM11.0625 12.1755L11.8088 13.9252H15.8438C15.9143 13.9252 16.074 13.8435 16.074 13.05C16.074 12.261 15.9135 12.1747 15.8438 12.1747L11.0625 12.1755ZM11.9535 14.277L12.6998 16.0267H15.4965C15.567 16.0267 15.7268 15.9405 15.7268 15.1515C15.7268 14.3587 15.5625 14.2725 15.4965 14.2725H11.9535V14.277ZM17.0003 14.7855C16.9028 14.7855 16.8053 14.805 16.7153 14.844H16.719C16.5473 14.9183 16.4108 15.0548 16.332 15.2265V15.2302C16.293 15.3202 16.2735 15.414 16.2735 15.5115V15.5153C16.2735 15.6165 16.293 15.7147 16.332 15.8002V15.7965C16.4063 15.9683 16.5428 16.1047 16.7145 16.1835H16.7183C16.902 16.2652 17.109 16.2615 17.2883 16.1835H17.2845C17.4563 16.1092 17.5928 15.9728 17.6715 15.801V15.7972C17.7533 15.6135 17.7495 15.4065 17.6715 15.2272V15.231C17.5973 15.0593 17.4608 14.9227 17.289 14.844H17.2853C17.1953 14.805 17.0978 14.7855 17.004 14.7855H17.0003ZM17.004 14.9137C17.0858 14.9137 17.1645 14.9295 17.2388 14.9647L17.235 14.961C17.3798 15.0232 17.493 15.1328 17.5553 15.2775V15.2812C17.622 15.4298 17.6175 15.6015 17.5553 15.75V15.7463C17.4968 15.8873 17.3835 16.0042 17.2388 16.0627L17.235 16.0665C17.0865 16.1287 16.9148 16.1287 16.7663 16.0627L16.77 16.0665C16.629 16.0043 16.5158 15.8947 16.4535 15.75L16.4498 15.7463C16.4183 15.6758 16.4025 15.5977 16.4025 15.516V15.5085C16.4025 15.4267 16.422 15.348 16.4535 15.2782L16.4498 15.282C16.512 15.1372 16.6253 15.024 16.7663 14.9655L16.77 14.9618C16.8443 14.9302 16.9223 14.9145 17.0048 14.9145L17.004 14.9137ZM17.0745 15.0938H16.7228V15.9255H16.875V15.5858H16.9845L17.1915 15.9255H17.352L17.1375 15.5737C17.1923 15.5662 17.2433 15.5468 17.2823 15.507C17.3175 15.468 17.337 15.4133 17.337 15.3585V15.327C17.337 15.2648 17.31 15.2018 17.2665 15.1553C17.2118 15.1163 17.1458 15.093 17.0753 15.0885L17.0745 15.0938ZM16.875 15.2265H17.0588C17.0783 15.2303 17.1015 15.234 17.121 15.2423C17.1405 15.2505 17.1563 15.2618 17.1683 15.2775C17.1915 15.3165 17.1915 15.3675 17.1683 15.4065C17.1563 15.4222 17.1413 15.4335 17.121 15.4418C17.1008 15.45 17.0783 15.4537 17.0588 15.4537H16.875V15.2265Z" fill="black"/>
</svg>
