<svg width="24" height="24" viewBox="0 0 24 24" fill="none" xmlns="http://www.w3.org/2000/svg">
<g clip-path="url(#clip0_201_58184)">
<path d="M-0.10199 12.531C0.0120102 5.95725 4.61326 1.27725 10.2458 0.51975C16.965 -0.3795 22.617 4.191 23.703 10.254C24.7343 16.0042 21.5738 21.387 16.3628 23.52C15.9135 23.703 15.6675 23.6017 15.4958 23.145L12.906 16.4183C12.7583 16.023 12.8588 15.777 13.2458 15.6022C14.418 15.0705 15.1478 14.1802 15.3435 12.9022C15.6518 10.9222 14.2185 9.0945 12.2228 8.922C10.4055 8.74575 8.76601 10.0118 8.47276 11.8118C8.21851 13.41 9.00751 14.898 10.4955 15.5737C10.9605 15.7845 11.0543 15.9915 10.8743 16.4647L8.27251 23.238C8.14726 23.5702 7.87426 23.688 7.52251 23.5507C4.77676 22.4767 2.52226 20.4255 1.19476 17.793C-0.0119897 15.4102 -0.0232397 13.5472 -0.10199 12.5272V12.531ZM0.90976 12.438C0.93001 12.7582 0.94051 13.1287 0.97276 13.5082C1.27651 16.9882 3.37051 20.4532 7.31176 22.371C7.46851 22.4407 7.52701 22.41 7.58551 22.2622C8.30476 20.367 9.03076 18.4732 9.76126 16.578C9.82351 16.422 9.79201 16.3477 9.64726 16.2577C8.11651 15.2925 7.35451 13.9095 7.44001 12.0938C7.48726 11.0505 7.89001 10.1325 8.59276 9.36675C10.0418 7.785 12.3188 7.44075 14.1825 8.5155C15.7215 9.40575 16.5803 11.1285 16.3695 12.8948C16.1933 14.3708 15.4365 15.504 14.1548 16.2698C14.0258 16.3477 13.9868 16.41 14.046 16.5615C14.7803 18.4605 15.5108 20.3587 16.233 22.2577C16.2923 22.41 16.3508 22.4408 16.503 22.3665C18.2258 21.5655 19.659 20.4172 20.769 18.8865C22.452 16.5502 23.1473 13.9523 22.815 11.0933C22.155 5.40525 17.0378 0.6945 10.4483 1.5075C5.31526 2.13675 0.99526 6.46875 0.90901 12.4373L0.90976 12.438Z" fill="black"/>
</g>
<defs>
<clipPath id="clip0_201_58184">
<rect width="24" height="24" fill="white"/>
</clipPath>
</defs>
</svg>
