<svg width="24" height="24" viewBox="0 0 24 24" fill="none" xmlns="http://www.w3.org/2000/svg">
<g clip-path="url(#clip0_201_57870)">
<path d="M15.6293 9.61724C17.0513 11.0467 18.2115 13.3867 17.547 14.7697C15.7695 18.4845 2.50801 24.996 1.37926 23.871C0.254264 22.746 6.77026 9.47624 10.4805 7.69499C11.8673 7.03499 14.2035 8.20649 15.633 9.61724L15.6293 9.63299V9.61724ZM22.656 8.05499C22.4258 7.19924 21.8355 6.33599 20.9565 6.23474C19.347 6.04724 16.8045 8.89499 16.9838 9.57074C17.1675 10.2622 20.7533 11.4457 22.0853 10.4887C22.7768 9.99299 22.8668 8.92649 22.6403 8.07449L22.656 8.05499ZM17.664 0.15599C18.8633 0.47999 20.0745 1.30424 20.2185 2.53874C20.4765 4.80074 16.4843 8.35874 15.5348 8.10524C14.5898 7.85099 12.9173 2.81999 14.2688 0.94124C14.964 -0.0315104 16.4678 -0.16426 17.667 0.15224V0.15599H17.664Z" fill="black"/>
</g>
<defs>
<clipPath id="clip0_201_57870">
<rect width="24" height="24" fill="white"/>
</clipPath>
</defs>
</svg>
