<svg width="24" height="24" viewBox="0 0 24 24" fill="none" xmlns="http://www.w3.org/2000/svg">
<g clip-path="url(#clip0_201_58010)">
<path d="M18.09 14.6947C16.578 15.3585 15.363 16.5818 14.7113 18.0938L18.9802 18.9765L18.0945 14.6947H18.09ZM2.47725 8.316L0 5.85225C1.125 3.2385 3.21525 1.1415 5.82375 0H5.8275L8.2965 2.46525C9.66375 1.87125 11.1757 1.5435 12.7612 1.5435C18.9683 1.5435 23.9993 6.57075 23.9993 12.7703C23.9993 18.9735 18.9683 24 12.7612 24C6.5505 24 1.5195 18.9773 1.5195 12.7703C1.5195 11.1803 1.87425 9.6915 2.47275 8.3205L11.613 17.4345C12.738 14.8208 14.832 12.7238 17.4382 11.5868L8.29725 2.466C5.688 3.606 3.60225 5.70375 2.4735 8.313L2.47725 8.316Z" fill="black"/>
</g>
<defs>
<clipPath id="clip0_201_58010">
<rect width="24" height="24" fill="white"/>
</clipPath>
</defs>
</svg>
