<svg width="24" height="24" viewBox="0 0 24 24" fill="none" xmlns="http://www.w3.org/2000/svg">
<g clip-path="url(#clip0_201_57300)">
<path d="M7.78127 5.47952C7.78127 6.57677 7.01252 7.78127 4.38302 7.78127H1.09727L2.08202 3.61877H5.26052C7.23377 3.61877 7.78277 4.71077 7.78277 5.47952H7.78127ZM13.6965 3.61877H10.518L9.64127 7.78127H12.927C15.4493 7.78127 16.2128 6.57677 16.2128 5.47952C16.2173 4.71077 15.669 3.61877 13.6958 3.61877H13.6965ZM4.16252 9.75452H0.984018L-0.000732422 13.917H3.28502C5.91452 13.917 6.68327 12.8205 6.68327 11.6153C6.68327 10.851 6.13502 9.75452 4.16102 9.75452H4.16252ZM12.6045 9.75452H9.42677L8.55002 13.917H11.8358C14.358 13.917 15.1215 12.8205 15.1215 11.6153C15.1215 10.851 14.5733 9.75452 12.6045 9.75452ZM21.4778 7.23302H18.2993L17.4225 11.3955H20.7083C23.2305 11.3955 23.994 10.2983 23.994 9.09377C23.9985 8.32952 23.4503 7.23302 21.477 7.23302H21.4778ZM20.1653 13.6965H16.9868L16.11 17.859H19.3958C22.0253 17.859 22.6815 16.7625 22.6815 15.5573C22.6815 14.793 22.1378 13.6965 20.1645 13.6965H20.1653ZM11.2875 16.2188H8.10902L7.23227 20.3813H10.518C13.1475 20.3813 13.8038 19.1768 13.8038 18.0795C13.8083 17.3153 13.26 16.2188 11.2868 16.2188H11.2875Z" fill="black"/>
</g>
<defs>
<clipPath id="clip0_201_57300">
<rect width="24" height="24" fill="white"/>
</clipPath>
</defs>
</svg>
