<svg width="24" height="24" viewBox="0 0 24 24" fill="none" xmlns="http://www.w3.org/2000/svg">
<g clip-path="url(#clip0_201_57900)">
<path d="M2.87099 24H1.89824C1.87124 23.934 1.84799 23.8673 1.82849 23.805C1.61324 23.1368 1.23449 22.3118 1.13774 21.648C0.988492 20.664 1.91474 20.6093 2.51249 20.184C3.42674 19.5233 4.14524 19.1603 5.13749 18.5618C5.43449 18.387 6.32024 17.9408 6.41849 17.7338C6.61724 17.328 6.07424 16.7535 5.93024 16.434C5.70299 15.93 5.58224 15.4958 5.55149 15C4.72724 14.8673 4.09874 14.3708 3.70724 13.8158C3.07799 12.891 2.64149 11.1795 3.18449 9.87901C3.22724 9.77701 3.43874 9.57376 3.46949 9.41401C3.52724 9.10501 3.36374 8.69476 3.34874 8.36701C3.28574 6.67576 3.63374 5.21926 4.77374 4.70701C5.23499 2.86726 6.88799 2.25376 8.44574 1.34026C9.02774 0.996009 9.67274 0.777009 10.3365 0.531009C12.7072 -0.344241 16.3635 -0.179991 18.3322 1.31626C19.1685 1.94926 20.508 3.28501 20.988 4.25401C22.2502 6.80926 22.1557 11.082 21.273 14.1908C21.1522 14.6085 20.9842 15.2228 20.742 15.723C20.574 16.0703 20.0512 16.773 20.1172 17.082C20.1802 17.3978 21.3052 18.2543 21.5475 18.477C21.9802 18.8978 22.8097 19.4528 22.8712 19.977C22.941 20.535 22.6252 21.312 22.461 21.852C22.2457 22.5743 22.0267 23.2928 21.8092 23.9843H2.87099V24ZM13.977 20.4608C13.434 20.16 12.6172 19.8398 11.91 19.7025C11.043 19.5383 11.133 20.8905 11.16 21.6945C11.1907 22.3395 11.523 23.0115 11.6722 23.4405C11.7465 23.6363 11.7622 23.8515 11.9302 23.8905C12.2272 23.9565 13.2195 23.5613 13.5045 23.4098C14.1022 23.082 14.5665 22.566 15.0787 22.2225C15.0945 22.0508 15.0945 21.8828 15.1095 21.7148C14.8095 21.5655 14.4652 21.4568 14.0122 21.438C14.3242 21.285 14.7622 21.285 15.0472 21.105L15.0622 20.91C14.5665 20.883 14.3752 20.6558 14.043 20.4773L13.977 20.4608ZM21.4342 23.3948C21.6255 22.7768 21.789 22.176 21.8985 21.645C21.9577 21.3548 22.1137 20.727 22.0747 20.469C22.017 20.0078 21.3915 19.668 21.0705 19.383C20.4885 18.855 20.1217 18.4058 19.5127 17.91C19.263 18.285 18.7305 18.5273 18.528 18.8243C19.9777 18.1373 20.2387 21.4493 19.6687 22.5165C19.7587 22.8443 20.0595 22.9658 20.1847 23.2508L20.0985 23.4188H21.3877C21.399 23.4188 21.4185 23.4188 21.4305 23.4308L21.4342 23.3948ZM14.7967 23.3828C14.7457 23.3085 14.6947 23.2455 14.6475 23.1758L14.3475 23.367H14.7967V23.3828ZM17.5657 23.3828C17.574 23.1758 17.586 22.98 17.598 22.785C17.0662 22.812 16.773 22.305 16.4017 22.2578C16.0777 22.215 15.801 22.617 15.3825 22.4528C15.2842 22.5585 15.1987 22.68 15.0975 22.77C15.2497 22.9493 15.3907 23.145 15.5197 23.352H16.3357C16.3515 23.1878 16.473 23.0663 16.6365 23.0663C16.8 23.0663 16.9215 23.1885 16.9215 23.34H17.5815L17.5657 23.3828ZM19.6837 23.3828C19.371 22.902 18.738 22.4835 18.0037 22.8278L17.973 23.367H19.6837V23.3828ZM11.1757 23.3828L11.07 23.0385C10.8442 22.3155 10.7107 21.7763 10.6642 21.3585C9.74999 20.9213 8.78924 20.4878 8.01224 19.9335C7.85924 19.8278 6.90224 18.5813 6.78149 18.6285C5.03924 19.3043 3.42224 20.4878 1.96574 21.6128C2.22374 22.1678 2.44574 22.7535 2.65649 23.352H11.1607L11.1757 23.3828ZM19.4377 21.27C19.41 20.7578 19.2727 19.7108 18.9607 19.5308C18.3007 19.1408 17.1127 20.3085 16.617 20.4728C16.6642 20.6205 16.7542 20.742 16.77 20.9528C17.055 20.8785 17.4142 20.9258 17.6677 21.0465C17.367 21.0735 17.0385 21.0735 16.8435 21.2108C16.7692 21.402 16.8585 21.6878 16.8112 21.9728C17.5035 22.1715 18.3112 22.2765 19.1985 22.305C19.3627 22.0778 19.4257 21.66 19.4092 21.2228L19.4377 21.27ZM15.3592 20.91C15.312 21.285 15.402 21.4223 15.477 21.852C16.7377 22.242 16.512 20.1128 15.3442 20.895L15.3592 20.91ZM8.76224 19.5C8.31224 19.9568 10.0312 20.5823 10.5742 20.613C10.5742 20.3243 10.7385 20.0513 10.7115 19.8443C10.0627 19.7273 9.20774 19.8053 8.76674 19.4963L8.76224 19.5ZM14.3242 19.7153C14.3242 19.758 14.2665 19.7423 14.2582 19.7775C14.8402 20.2305 15.273 20.3243 16.062 20.2898C16.4137 20.028 16.7302 19.728 17.1052 19.4805C16.2502 19.5555 15.1725 20.0903 14.328 19.7115L14.3242 19.7153ZM17.7457 1.98826C16.1407 1.08226 13.395 0.398259 11.6715 1.25851C10.2885 1.94926 8.39774 3.09826 7.76924 4.55176C8.36999 5.94976 7.60424 7.23451 7.54649 8.65651C7.52624 9.41476 7.90574 10.0785 7.93724 10.9028C7.73324 11.2388 7.10849 11.2815 6.67499 11.259C6.53024 10.5278 6.27224 9.70801 5.51924 9.62626C4.45649 9.51301 3.67499 10.392 3.62849 11.31C3.56924 12.3923 4.46474 14.1773 5.71424 14.0558C6.20249 14.0085 6.32324 13.5165 6.85424 13.5165C7.13999 14.0865 6.40949 14.2665 6.33149 14.6685C6.31574 14.7735 6.39074 15.1808 6.43724 15.3758C6.66749 16.317 7.17899 17.532 7.67924 18.255C8.31524 19.1528 9.56549 19.3058 10.9095 19.3958C11.1472 18.8715 12.0345 18.915 12.6165 19.0515C11.9257 18.7778 11.2807 18.1058 10.7415 17.5208C10.1242 16.845 9.51149 16.11 9.47924 15.2385C10.6365 16.8443 11.577 18.2385 13.6792 18.9458C15.2692 19.47 17.1285 18.6915 18.3435 17.8365C18.8542 17.4773 19.1557 16.9065 19.5157 16.3958C20.8627 14.4615 21.4957 11.6888 21.3585 9.00076C21.3007 7.89151 21.3007 6.78151 20.9257 6.04801C20.535 5.26726 19.23 4.57501 18.4485 5.26726C18.3007 4.50151 19.0777 4.03651 19.9957 4.30651C19.3357 3.45076 18.66 2.44651 17.73 1.92376L17.7457 1.98826ZM13.5817 14.895C14.1945 16.4408 16.3087 16.2578 18.09 16.2188C18.0037 16.4138 17.832 16.6515 17.6212 16.734C17.055 16.965 15.477 17.1413 14.6842 16.7228C14.1802 16.449 13.8592 15.8475 13.5825 15.4958C13.4452 15.324 12.7897 14.8868 13.5705 14.8868L13.5817 14.895ZM13.746 14.0228C14.6407 14.4878 16.266 14.5425 17.4772 14.5035C17.5432 14.7728 17.5432 15.0975 17.547 15.4178C15.996 15.4995 14.16 15.1125 13.7497 14.0228H13.746ZM20.4217 13.4408C19.9485 14.34 19.2765 15.336 17.883 15.3668C17.859 15.0855 17.8402 14.6325 17.883 14.4645C18.945 14.3588 19.6087 13.8158 20.4262 13.4445L20.4217 13.4408ZM19.773 12.7733C18.7537 13.434 17.6167 14.148 15.9487 13.9845C15.5977 13.6725 15.465 12.9803 15.8085 12.5235C15.9877 12.8408 15.8662 13.4108 16.3785 13.4925C17.3235 13.6605 18.4177 12.9143 19.1085 12.6525C19.5262 11.9415 19.0612 11.6805 18.6877 11.2238C17.9055 10.29 16.8585 9.12151 16.887 7.71151C17.199 7.48876 17.2342 8.05951 17.277 8.16076C17.6842 9.12151 18.7027 10.3365 19.4527 11.1608C19.6327 11.3715 19.9335 11.5515 19.9605 11.6888C20.0542 12.075 19.7062 12.54 19.7535 12.798L19.773 12.7733ZM6.33224 12.0983C6.02024 11.9145 5.94149 11.109 5.56649 11.0903C5.03174 11.0595 5.12924 12.1373 5.12924 12.7665C4.75799 12.4388 4.69499 11.4023 4.96499 10.8795C4.65599 10.7273 4.52024 11.0438 4.34774 11.1608C4.56599 9.57076 6.68774 10.431 6.33599 12.1215L6.33224 12.0983ZM4.71524 5.99176C4.02749 6.75001 4.17599 8.16751 4.25399 9.18376C5.49974 8.39776 7.15199 9.24151 7.13699 10.578C7.73399 10.5623 7.35899 9.83176 7.25399 9.36301C6.89774 7.83226 7.84424 6.17626 7.29299 4.77301C6.23024 4.85476 5.35499 5.28901 4.71524 5.98426V5.99176ZM13.836 7.10476C14.1412 7.66801 14.238 8.25376 14.676 8.67601C14.8672 8.86726 15.246 9.10201 15.0622 9.62926C15.0165 9.75001 14.6955 10.02 14.5125 10.0785C13.8367 10.2735 12.2587 10.1093 12.7897 9.27076C13.353 9.28201 14.103 9.63001 14.5207 9.22351C14.208 8.69926 13.638 7.69126 13.8487 7.09426L13.836 7.10476ZM20.031 7.09426H20.1022C20.43 7.76251 20.6992 8.46901 21.105 9.05926C20.8357 9.68851 19.0507 10.2503 19.0822 9.11701C19.473 8.94526 20.133 9.08176 20.4772 8.86726C20.2852 8.30926 19.9965 7.85926 20.043 7.09426H20.031ZM13.1047 5.47726C11.6835 5.14801 10.9725 6.07051 10.5465 7.03126C10.1595 6.93826 10.3117 6.41401 10.4092 6.14851C10.6635 5.44576 11.6902 4.51651 12.5265 4.64176C12.8865 4.69951 13.3785 5.02801 13.1047 5.47801V5.47726ZM9.64499 1.59376C8.08199 2.03101 6.08174 3.16351 5.44124 4.56601C5.93849 4.49626 6.28124 4.24576 6.77324 4.21501C6.96149 4.19926 7.19924 4.28926 7.41449 4.23001C7.84049 4.12501 8.19524 3.16426 8.51624 2.82001C8.82824 2.47726 9.19949 2.32426 9.45749 2.01226C9.62174 1.92226 9.86324 1.93801 9.87974 1.68001C9.80549 1.60501 9.72749 1.54726 9.64574 1.57426L9.64499 1.59376Z" fill="black"/>
</g>
<defs>
<clipPath id="clip0_201_57900">
<rect width="24" height="24" fill="white"/>
</clipPath>
</defs>
</svg>
