<svg width="24" height="24" viewBox="0 0 24 24" fill="none" xmlns="http://www.w3.org/2000/svg">
<g clip-path="url(#clip0_201_57248)">
<path d="M19.3087 23.9573H15.711C15.1447 24.0195 14.6055 23.6955 14.3985 23.1645C13.0665 20.5005 11.6175 17.8793 10.41 15.1178C8.24623 10.4535 8.58148 5.01605 11.2965 0.648798C11.4607 0.367548 11.8162 0.0240479 12.0855 0.0240479C12.3592 0.0240479 12.6795 0.399048 12.828 0.692298C16.4572 7.95005 20.0895 15.2115 23.7262 22.4775C24.2655 23.5208 24.015 23.946 22.8202 23.958L19.3087 23.9573ZM4.73848 23.9573H1.03948C0.000725478 23.9573 -0.230275 23.5395 0.227225 22.6253C2.09473 18.9338 3.94573 15.246 5.77798 11.5703C6.27823 10.527 6.67273 10.527 7.36798 11.3903C10.005 14.4683 10.9462 18.6518 9.87973 22.5623C9.53623 23.8823 9.34873 23.9685 8.01673 23.9685L4.73848 23.9573Z" fill="black"/>
</g>
<defs>
<clipPath id="clip0_201_57248">
<rect width="24" height="24" fill="white"/>
</clipPath>
</defs>
</svg>
