<svg width="24" height="24" viewBox="0 0 24 24" fill="none" xmlns="http://www.w3.org/2000/svg">
<g clip-path="url(#clip0_201_57458)">
<path d="M15.1357 9.1125V13.866H13.8097V19.5142H10.1955V13.8705H8.86875V9.1125C8.86875 8.90625 8.94375 8.7285 9.08475 8.583C9.23025 8.4375 9.408 8.3625 9.61425 8.3625H14.391C14.583 8.3625 14.757 8.4375 14.9115 8.583C15.057 8.733 15.1365 8.90625 15.1365 9.1125H15.1357ZM10.3778 6.12675C10.3778 5.03475 10.917 4.48575 11.9948 4.48575C13.0725 4.48575 13.6117 5.034 13.6117 6.12675C13.6117 7.20525 13.0725 7.74375 11.9948 7.74375C10.917 7.74375 10.3778 7.2045 10.3778 6.12675ZM11.9813 0.375C18.6278 0.375 23.625 5.53575 23.625 12C23.625 18.8955 18.0705 23.625 11.9813 23.625C5.7 23.625 0.375 18.492 0.375 12C0.375 5.7705 5.283 0.375 11.9813 0.375ZM12.0187 2.4705C6.4785 2.4705 2.4705 7.05975 2.4705 12C2.4705 17.1472 6.7455 21.5062 12.0187 21.5062C16.8562 21.5062 21.525 17.7045 21.525 12C21.5295 6.66525 17.2972 2.4705 12.0187 2.4705Z" fill="black"/>
</g>
<defs>
<clipPath id="clip0_201_57458">
<rect width="24" height="24" fill="white"/>
</clipPath>
</defs>
</svg>
