<svg width="24" height="24" viewBox="0 0 24 24" fill="none" xmlns="http://www.w3.org/2000/svg">
<g clip-path="url(#clip0_201_57928)">
<path d="M4.46847 1.08241e-05C2.91747 -0.0157392 1.64397 1.22626 1.62897 2.78101V21.2108C1.63647 22.7693 2.90997 24.0233 4.46847 24C6.02697 24.027 7.30797 22.7775 7.31997 21.219V2.78176C7.29297 1.23076 6.01947 -0.0112392 4.46847 0.000760824V1.08241e-05ZM13.8712 8.53876C12.9765 7.28851 11.2387 6.99151 9.98022 7.87876C8.71872 8.72626 8.40972 10.449 9.30072 11.6798L17.301 22.8285C18.1995 24.0705 19.9222 24.3638 21.18 23.4885C22.4145 22.668 22.7422 21 21.9225 19.77L21.8602 19.68L13.8795 8.53951L13.8712 8.53876ZM17.5192 7.35976C19.566 7.37551 21.2377 5.73451 21.2617 3.69151C21.2385 1.64476 19.5667 0.00376082 17.5192 0.0195108C15.4725 -0.00373918 13.7925 1.64026 13.7692 3.69151C13.7925 5.73826 15.4725 7.38301 17.5192 7.35976Z" fill="black"/>
</g>
<defs>
<clipPath id="clip0_201_57928">
<rect width="24" height="24" fill="white"/>
</clipPath>
</defs>
</svg>
