<svg width="24" height="24" viewBox="0 0 24 24" fill="none" xmlns="http://www.w3.org/2000/svg">
<g clip-path="url(#clip0_201_57616)">
<path d="M4.3515 1.66052C3.39075 1.66052 2.664 1.95752 2.16825 2.55527C1.6725 3.14927 1.42575 4.01627 1.42575 5.15702V8.63327C1.42575 9.43802 1.3395 10.0553 1.164 10.4888C0.99225 10.926 0.672 11.3288 0.207 11.7075C0.066 11.8208 0 11.9145 0 11.985C0 12.0593 0.06675 12.153 0.20325 12.2625C0.6795 12.6495 1.00425 13.0598 1.17225 13.4888C1.344 13.9185 1.4265 14.5358 1.4265 15.3405V18.8018C1.4265 19.95 1.67625 20.8253 2.1765 21.4193C2.67675 22.017 3.399 22.314 4.3485 22.314H5.23125C5.61 22.314 5.8485 22.2945 5.94975 22.2593C6.051 22.224 6.102 22.1303 6.102 21.9855C6.102 21.786 5.96925 21.6533 5.70375 21.591L5.21925 21.4815C4.1565 21.2393 3.6255 20.1885 3.6255 18.333V15.0398C3.6255 13.7895 3.321 12.9105 2.7195 12.3953L2.48925 12.204C2.376 12.1065 2.32125 12.036 2.32125 11.985C2.32125 11.9303 2.376 11.856 2.48925 11.7705L2.7195 11.5755C3.321 11.064 3.6255 10.1813 3.6255 8.93477V5.64152C3.6255 4.53227 3.75825 3.76277 4.0275 3.33302C4.30125 2.90327 4.85925 2.57102 5.715 2.33702C5.973 2.26277 6.102 2.14577 6.102 1.98527C6.102 1.77077 5.81325 1.66127 5.23125 1.66127L4.3515 1.66052ZM18.7695 1.68752C18.1875 1.68752 17.8988 1.79702 17.8988 2.01602C17.8988 2.17652 18.0278 2.29352 18.2858 2.36402C19.1415 2.59877 19.6995 2.93027 19.9733 3.36002C20.2425 3.78977 20.3752 4.55927 20.3752 5.66852V8.96552C20.3752 10.2113 20.6798 11.0903 21.2812 11.6063L21.5115 11.7975C21.6248 11.8875 21.6795 11.958 21.6795 12.0165C21.6795 12.0638 21.6248 12.1373 21.5115 12.231L21.2812 12.426C20.6798 12.9375 20.3752 13.8203 20.3752 15.0668V18.36C20.3752 20.2193 19.8442 21.2663 18.7815 21.5085L18.297 21.618C18.0315 21.6803 17.8988 21.813 17.8988 22.0163C17.8988 22.161 17.9498 22.251 18.051 22.2855C18.1523 22.32 18.3907 22.3403 18.7695 22.3403H19.6522C20.6017 22.3403 21.324 22.0433 21.8243 21.4455C22.3245 20.8515 22.5743 19.9808 22.5743 18.828V15.3668C22.5743 14.562 22.6605 13.9448 22.8285 13.515C22.9965 13.0853 23.3205 12.6788 23.7975 12.2925C23.934 12.1793 24.0007 12.0855 24.0007 12.015C24.0007 11.9408 23.934 11.847 23.7975 11.7375C23.3288 11.3588 23.0085 10.9523 22.8368 10.5188C22.6612 10.0853 22.575 9.46427 22.575 8.65952V5.18702C22.575 4.04627 22.329 3.17552 21.8325 2.58152C21.3368 1.98377 20.61 1.68677 19.653 1.68677L18.7695 1.68752ZM7.68375 9.73427C6.2265 9.73427 5.043 10.8473 5.043 12.2145H6.06225C6.06225 11.3745 6.789 10.6913 7.683 10.6913C8.574 10.6913 9.3 11.3745 9.3 12.2145H10.3193C10.3193 10.8473 9.1395 9.73427 7.68225 9.73427H7.68375ZM16.0897 9.73427C14.6325 9.73427 13.449 10.8473 13.449 12.2145H14.4683C14.4683 11.3745 15.195 10.6913 16.089 10.6913C16.98 10.6913 17.7098 11.3745 17.7098 12.2145H18.729C18.729 10.8473 17.5455 9.73427 16.0882 9.73427H16.0897ZM9.711 14.3595V14.922C9.711 16.1993 10.7738 17.2388 12.0743 17.2388C13.383 17.2388 14.4412 16.2 14.4412 14.922V14.3595H13.5075V14.922C13.5075 15.7973 12.75 16.3478 12.0743 16.3478C11.4023 16.3478 10.5975 16.074 10.5975 14.922V14.3595H9.711Z" fill="black"/>
</g>
<defs>
<clipPath id="clip0_201_57616">
<rect width="24" height="24" fill="white"/>
</clipPath>
</defs>
</svg>
