<svg width="24" height="24" viewBox="0 0 24 24" fill="none" xmlns="http://www.w3.org/2000/svg">
<g clip-path="url(#clip0_201_57466)">
<path d="M11.9813 0.375C5.283 0.375 0.375 5.7705 0.375 12C0.375 18.492 5.7 23.625 11.9813 23.625C18.0705 23.625 23.625 18.8955 23.625 12C23.625 5.53575 18.6278 0.375 11.9813 0.375ZM12.0187 21.5062C6.7455 21.5062 2.4705 17.1465 2.4705 12C2.4705 7.05975 6.4785 2.4705 12.0187 2.4705C17.2972 2.4705 21.5295 6.666 21.525 12C21.525 17.7045 16.8562 21.5062 12.0187 21.5062ZM15.2205 8.71875H12.7267V15.15H15.2205C16.224 15.15 18.5018 14.9108 18.5018 11.9347C18.5018 8.9625 16.224 8.71875 15.2205 8.71875ZM15.258 13.8045H14.325V10.0688L15.234 10.0642C15.4125 10.0642 16.875 9.966 16.875 11.9347C16.875 13.0875 16.383 13.8053 15.258 13.8053V13.8045ZM9.92325 8.71875H6.72675V15.1545H8.349V13.0778H9.615C12.1508 13.0778 12.2917 11.3197 12.2917 10.8983C12.2917 9.44475 11.5042 8.71875 9.92475 8.71875H9.92325ZM9.69375 11.8733H8.325V9.92325H9.65175C11.1 9.92325 11.0017 11.8733 9.69375 11.8733Z" fill="black"/>
</g>
<defs>
<clipPath id="clip0_201_57466">
<rect width="24" height="24" fill="white"/>
</clipPath>
</defs>
</svg>
