<svg width="24" height="24" viewBox="0 0 24 24" fill="none" xmlns="http://www.w3.org/2000/svg">
<g clip-path="url(#clip0_201_58076)">
<path d="M21.3983 17.6995C19.398 20.3013 20.3985 22.5003 21.102 23.6028C21.3983 24.001 21 24.001 20.8013 24.001C19.1483 23.7003 17.6955 22.72 16.8015 21.3018C16.6028 21.1998 16.5007 21.103 16.3013 21.1998C14.898 21.6025 13.5 21.8988 12 21.802C5.39775 21.802 0 17.0013 0 11.0013C0 5.00126 5.39775 0.00100708 12 0.00100708C18.6023 0.00100708 24 4.89926 24 11.0013C24 13.501 23.0002 15.802 21.3983 17.7003V17.6995ZM12 14.0005L15.1987 16.1995C15.4875 16.3713 15.8475 16.1335 15.801 15.8013L14.6017 12.0003L17.6985 9.60251C17.8433 9.38351 17.7458 9.08651 17.4998 9.00026H13.602L12.3007 5.19926C12.141 5.02001 11.859 5.02001 11.6985 5.19926L10.3973 9.00026H6.3975C6.0975 9.10901 6.03825 9.51251 6.30075 9.69926L9.30075 12.1023L8.301 15.8013C8.29275 16.066 8.54325 16.2663 8.80125 16.1995L12 14.0005Z" fill="black"/>
</g>
<defs>
<clipPath id="clip0_201_58076">
<rect width="24" height="24" fill="white"/>
</clipPath>
</defs>
</svg>
