<svg width="24" height="24" viewBox="0 0 24 24" fill="none" xmlns="http://www.w3.org/2000/svg">
<g clip-path="url(#clip0_201_58662)">
<path d="M12 0C18.621 0 24 5.379 24 12C24 18.621 18.621 24 12 24C5.379 24 0 18.621 0 12C0 5.379 5.379 0 12 0ZM15.2775 17.6798C14.5118 18.1215 14.25 19.1017 14.6918 19.8675C15.1335 20.6332 16.1138 20.8988 16.8832 20.4533C17.649 20.0115 17.9108 19.0312 17.4653 18.2655C17.0235 17.4998 16.047 17.2342 15.2775 17.6798ZM12 16.68C11.2965 16.68 10.629 16.524 10.0275 16.2465L8.9145 18.2385C9.84825 18.6998 10.8952 18.9615 12.0007 18.9615C12.645 18.9615 13.2705 18.8715 13.86 18.7035C13.9657 18.063 14.3445 17.4727 14.9535 17.1173C15.5632 16.7655 16.2697 16.7302 16.8757 16.9613C18.063 15.801 18.8325 14.2155 18.9457 12.4455L16.6605 12.414C16.4498 14.805 14.4458 16.68 12 16.68ZM7.32 12C7.32 10.4183 8.10525 9.0195 9.30825 8.172L8.1405 6.21075C6.73425 7.14075 5.6955 8.57775 5.2575 10.242C5.76525 10.6485 6.08925 11.277 6.08925 11.9843C6.08925 12.6877 5.76525 13.3043 5.2575 13.7228C5.69475 15.387 6.73425 16.8285 8.1405 17.7577L9.30825 15.7927C8.10525 14.9685 7.32 13.5743 7.32 12ZM3.84 10.3988C2.9535 10.3988 2.23875 11.1135 2.23875 12C2.23875 12.8865 2.9535 13.6012 3.84 13.6012C4.7265 13.6012 5.44125 12.8865 5.44125 12C5.44125 11.1135 4.7265 10.3988 3.84 10.3988ZM12 7.32C14.445 7.32 16.449 9.195 16.6605 11.586L18.9457 11.5507C18.8325 9.78525 18.0592 8.199 16.8757 7.035C16.266 7.26525 15.5632 7.23 14.9535 6.88275C14.3482 6.52725 13.965 5.93775 13.86 5.289C13.266 5.1285 12.645 5.03925 12.0007 5.03925C10.8915 5.03925 9.8445 5.301 8.9145 5.76225L10.0275 7.75425C10.629 7.47675 11.2972 7.32075 12 7.32075V7.32ZM15.2775 6.32025C16.0433 6.762 17.0235 6.50025 17.469 5.7345C17.9107 4.96875 17.649 3.9885 16.8795 3.543C16.1138 3.10575 15.1335 3.363 14.6918 4.1325C14.25 4.89825 14.5118 5.8785 15.2775 6.32025Z" fill="black"/>
</g>
<defs>
<clipPath id="clip0_201_58662">
<rect width="24" height="24" fill="white"/>
</clipPath>
</defs>
</svg>
