<svg width="24" height="24" viewBox="0 0 24 24" fill="none" xmlns="http://www.w3.org/2000/svg">
<path d="M3.42221 0C3.21521 0 3.05096 0.168 3.05096 0.37125V19.887C3.62921 18.399 4.60946 16.2698 6.18746 13.356C11.8905 2.8755 12.6367 1.821 15.6052 1.821C17.1637 1.821 18.738 2.5245 19.7572 3.774C18.3277 1.46175 15.8197 0.03975 13.101 0.00075L3.42221 0ZM16.1407 2.54325C14.949 2.55525 13.8832 3.012 13.4415 4.04325C12.477 6.297 15.0667 8.80875 16.1992 8.61C17.6407 8.35575 15.945 5.0475 15.945 5.0475C18.1485 9.204 17.64 7.9305 13.6522 11.7465C9.66746 15.5632 5.59721 23.6213 5.00396 23.9573C4.97696 23.9768 4.94921 23.9888 4.92221 24H20.559C20.8327 23.9963 21.012 23.7113 20.8912 23.4645L16.8015 15.3705C16.7115 15.195 16.7745 14.9798 16.9462 14.8822C19.4227 13.464 20.9542 10.824 20.9505 7.968C20.9505 6.546 20.5792 5.21025 19.923 4.05C18.993 3.09675 17.4892 2.53425 16.1415 2.5425L16.1407 2.54325Z" fill="black"/>
</svg>
