<svg width="24" height="24" viewBox="0 0 24 24" fill="none" xmlns="http://www.w3.org/2000/svg">
<g clip-path="url(#clip0_201_58482)">
<path d="M9.33973 0.00380601C9.17923 0.00755601 9.01573 0.030806 8.85523 0.070556C7.49998 0.378806 6.69898 1.73481 7.00723 3.09381L8.40973 8.14056L3.36673 6.48456C2.07373 6.05481 0.655483 6.79281 0.221983 8.09031C-0.207767 9.38331 0.530233 10.8016 1.82323 11.2351L7.67848 13.1528L3.61573 17.7113C3.22123 18.1763 3.00223 18.7658 2.99473 19.3756C3.00223 20.7353 4.10398 21.8363 5.46373 21.8401C6.14323 21.8401 6.81898 21.5318 7.31548 20.9768L10.878 17.0003L12.3112 22.1491C12.6 23.2388 13.5885 23.9971 14.7135 24.0008H14.7172C14.901 24.0008 15.147 23.9386 15.3345 23.8801C16.6545 23.4976 17.424 22.1221 17.0572 20.7938L15.678 15.7778L20.6347 17.4031C20.943 17.4653 21.1897 17.5238 21.4357 17.5238C22.5487 17.5238 23.475 16.8481 23.7795 15.7973C24.213 14.5043 23.4712 13.0861 22.1782 12.6526L16.4475 10.7738L20.514 6.23856C21.4357 5.18781 21.3772 3.64881 20.3265 2.72256C19.2795 1.79706 17.7367 1.85931 16.8105 2.90631L13.2405 6.91431L11.8147 1.73481C11.4907 0.656306 10.4595 -0.046444 9.33823 0.00455601L9.33973 0.00380601Z" fill="black"/>
</g>
<defs>
<clipPath id="clip0_201_58482">
<rect width="24" height="24" fill="white"/>
</clipPath>
</defs>
</svg>
