<svg width="24" height="24" viewBox="0 0 24 24" fill="none" xmlns="http://www.w3.org/2000/svg">
<g clip-path="url(#clip0_201_57140)">
<path d="M12 0C21.6023 0 24 2.39775 24 12C24 21.6023 21.6023 24 12 24C2.39775 24 0 21.6023 0 12C0 2.39775 2.39775 0 12 0ZM10.0312 18.5618C12.555 18.5655 14.637 16.4918 14.6415 13.9688C14.6415 11.4488 12.5662 9.375 10.0478 9.375C7.524 9.375 5.4495 11.4488 5.4495 13.9688C5.4495 16.4835 7.5165 18.5588 10.0312 18.5618ZM18.375 18.375V5.625H5.625V7.87125H16.1213V18.375H18.375ZM10.0312 11.6287C11.3243 11.6287 12.375 12.6757 12.3713 13.9725C12.3713 15.2655 11.3243 16.3118 10.0275 16.3118C6.90675 16.3118 6.90675 11.625 10.0312 11.6287Z" fill="black"/>
</g>
<defs>
<clipPath id="clip0_201_57140">
<rect width="24" height="24" fill="white"/>
</clipPath>
</defs>
</svg>
