<svg width="24" height="24" viewBox="0 0 24 24" fill="none" xmlns="http://www.w3.org/2000/svg">
<g clip-path="url(#clip0_201_58192)">
<path d="M8.05148 5.23749C6.72323 6.80424 5.86373 9.12024 5.80523 11.7182V12.28C5.86748 14.878 6.72323 17.194 8.05148 18.7607C9.77348 20.995 12.3287 22.4125 15.1915 22.4125C16.9457 22.4125 18.5905 21.8777 19.9967 20.9432C17.8795 22.846 15.0745 23.998 12.001 23.998C11.8097 23.998 11.6177 23.9942 11.431 23.9822C5.06273 23.686 0.000976562 18.436 0.000976562 11.998C0.000976562 5.36874 5.37173 -0.00201416 12.001 -0.00201416H12.0482C15.103 0.00998584 17.8885 1.16199 19.9975 3.05274C18.5912 2.12274 16.9465 1.58349 15.1892 1.58349C12.3295 1.58349 9.77123 3.00174 8.04848 5.23524L8.05148 5.23749ZM24.0002 11.9995C24.0002 15.5545 22.453 18.7457 19.996 20.9447C16.9217 22.4447 14.0507 21.3947 13.102 20.7377C16.1252 20.074 18.4097 16.4215 18.4097 11.9995C18.4097 7.57749 16.1245 3.92574 13.102 3.26124C14.0507 2.60424 16.9217 1.55799 19.996 3.05424C22.453 5.24949 24.0002 8.44449 24.0002 11.9995Z" fill="black"/>
</g>
<defs>
<clipPath id="clip0_201_58192">
<rect width="24" height="24" fill="white"/>
</clipPath>
</defs>
</svg>
