<svg width="24" height="24" viewBox="0 0 24 24" fill="none" xmlns="http://www.w3.org/2000/svg">
<g clip-path="url(#clip0_201_57214)">
<path d="M10.8127 0C10.3867 0.012 9.96899 0.2145 9.61724 0.60525C9.42224 0.82425 9.25799 1.0665 9.12149 1.32825C8.76974 1.992 8.69924 2.742 8.56649 3.46875C8.32049 4.83225 8.07824 6.195 7.83974 7.5585C7.81274 7.719 7.74599 7.785 7.59749 7.82775C5.82824 8.3865 4.05824 8.94075 2.30024 9.51525C1.91324 9.6405 1.52699 9.804 1.18724 10.0192C0.143986 10.683 -0.0120142 11.7735 0.769486 12.7305C1.11749 13.1528 1.56224 13.4452 2.05499 13.6642C3.15674 14.1562 4.25849 14.6407 5.35574 15.1372C5.37524 15.1447 5.39099 15.1492 5.40674 15.1567H5.40299L6.71174 15.6922C6.71174 15.7155 6.71174 15.735 6.71174 15.7627C6.51224 17.7937 6.32099 19.8255 6.12974 21.8602C6.09074 22.278 6.11774 22.6882 6.26624 23.091C6.58274 23.958 7.32899 24.2355 8.14499 23.79C8.51624 23.5867 8.81324 23.2942 9.08249 22.9732C10.4535 21.348 11.8282 19.7272 13.1955 18.0982C13.305 17.9655 13.3987 17.9497 13.5585 18.0007C13.9065 18.1177 14.2537 18.231 14.6017 18.3487H14.6055C14.625 18.3607 14.6482 18.3682 14.676 18.3802L14.8207 18.423C16.0665 18.837 17.5005 19.1962 18.7462 19.6102C19.1482 19.743 19.371 19.7745 19.7932 19.7077C20.106 19.6605 20.3872 19.6455 20.6212 19.473C21.2227 19.1407 21.6172 18.516 21.6097 17.7892C21.606 17.3632 21.4537 16.977 21.258 16.6057C20.4375 15.0472 19.6215 13.4925 18.7972 11.9377C18.7192 11.7892 18.723 11.6955 18.8362 11.5627C20.2155 9.9495 21.5902 8.328 22.9687 6.70725C23.238 6.387 23.4802 6.051 23.6212 5.649C23.9295 4.77375 23.5312 4.0785 22.6215 3.9105C22.2112 3.84 21.7897 3.86325 21.387 3.97725C19.4107 4.50075 17.4375 5.0205 15.4687 5.54775C15.2932 5.595 15.207 5.5635 15.1132 5.403C14.316 4.059 13.5075 2.7195 12.6915 1.3875C12.5077 1.07925 12.2895 0.7935 12.039 0.53625C11.6677 0.16875 11.238 -0.0105 10.8127 0.00075V0ZM10.9845 3.7035C11.0625 3.75825 11.1292 3.82875 11.172 3.91425C12.0427 5.3595 12.9142 6.80475 13.7812 8.25375C13.8517 8.37075 13.9177 8.40975 14.0587 8.37075C15.5857 7.96425 17.1097 7.5585 18.6367 7.15575C19.0042 7.05825 19.371 6.9645 19.7422 6.867C19.7265 6.94125 19.6912 7.01175 19.641 7.0665C18.3832 8.547 17.1255 10.0275 15.864 11.5042C15.7545 11.637 15.7432 11.727 15.8212 11.8755C16.7587 13.68 17.5905 15.1837 18.321 16.6372L14.6257 15.618C14.0865 15.438 13.5472 15.2587 13.0087 15.0787C12.8482 15.024 12.759 15.0472 12.6495 15.1762C11.4037 16.6642 10.1452 18.1492 8.89199 19.6335C8.84474 19.692 8.78249 19.7392 8.71199 19.7625C8.74724 19.3875 8.77874 19.0087 8.81324 18.63C8.96549 17.0557 9.11024 15.4852 9.26624 13.911C9.23474 13.5945 9.38324 13.509 8.94224 13.368C7.44974 12.774 5.59874 12.048 4.12949 11.4615C4.19624 11.3992 4.27799 11.352 4.36799 11.3287C6.16499 10.7587 7.96199 10.188 9.76274 9.62175C9.88799 9.58275 9.96224 9.53175 9.97349 9.3915C9.98549 9.243 10.0245 9.0945 10.0477 8.94975C10.29 7.58625 10.5322 6.2235 10.7745 4.86C10.845 4.473 10.9155 4.0905 10.9852 3.7035H10.9845Z" fill="black"/>
</g>
<defs>
<clipPath id="clip0_201_57214">
<rect width="24" height="24" fill="white"/>
</clipPath>
</defs>
</svg>
