<svg width="24" height="24" viewBox="0 0 24 24" fill="none" xmlns="http://www.w3.org/2000/svg">
<g clip-path="url(#clip0_201_58396)">
<path d="M11.319 16.6095C11.2965 16.65 11.3077 16.632 11.319 16.6095V16.6095ZM20.661 13.347C19.9065 13.347 19.1625 13.5195 18.486 13.8532C18.2647 13.407 18.0359 13.017 17.9985 12.7245C17.9535 12.3832 17.9047 12.1807 17.9572 11.7757C18.0097 11.3707 18.246 10.797 18.2422 10.7557C18.2385 10.7145 18.1897 10.5082 17.706 10.5045C17.2222 10.5007 16.806 10.5982 16.7572 10.7257C16.6717 10.959 16.6049 11.1982 16.5585 11.442C16.4722 11.8807 15.5917 13.4482 15.093 14.2657C14.928 13.947 14.7892 13.6657 14.7592 13.4407C14.7142 13.0995 14.6655 12.897 14.718 12.492C14.7705 12.087 15.0067 11.5132 15.003 11.472C14.9992 11.4307 14.9505 11.2245 14.4675 11.2207C13.9845 11.217 13.5675 11.3145 13.5187 11.442C13.47 11.5695 13.4175 11.8695 13.32 12.1582C13.2225 12.447 12.0487 15.057 11.742 15.7357C11.5845 16.0807 11.4495 16.3582 11.352 16.5457C11.337 16.5757 11.3257 16.5945 11.3182 16.6095C11.3295 16.5907 11.337 16.572 11.337 16.5795C11.2545 16.7407 11.2057 16.8307 11.2057 16.8307V16.8345C11.142 16.9545 11.0707 17.0632 11.037 17.0632C11.0145 17.0632 10.9657 16.7482 11.0482 16.317C11.2245 15.4095 11.6407 13.9995 11.637 13.9507C11.6332 13.9245 11.7157 13.6807 11.3632 13.5495C11.022 13.4257 10.8982 13.632 10.8682 13.632C10.8382 13.632 10.8157 13.707 10.8157 13.707C10.8157 13.707 11.1945 12.117 10.0882 12.117C9.3982 12.117 8.4382 12.8745 7.96645 13.5607C7.6702 13.722 7.02895 14.0707 6.35395 14.442C6.0952 14.5845 5.82895 14.7307 5.5777 14.8695C5.55895 14.8507 5.54395 14.832 5.5252 14.8132C4.1827 13.3807 1.7047 12.3682 1.8097 10.4445C1.8472 9.74321 2.09095 7.90196 6.5752 5.66696C10.2502 3.83696 13.188 4.33946 13.6942 5.45696C14.4217 7.05071 12.123 10.017 8.30695 10.4445C6.85195 10.6057 6.0877 10.0432 5.89645 9.83321C5.6977 9.61196 5.6677 9.60071 5.5927 9.64196C5.46895 9.70946 5.5477 9.90446 5.5927 10.0207C5.7052 10.317 6.17395 10.842 6.9727 11.1045C7.67395 11.3332 9.37945 11.4607 11.4412 10.662C13.758 9.76946 15.5617 7.28321 15.0322 5.20196C14.4937 3.08696 10.9867 2.39321 7.67095 3.57071C5.6947 4.27196 3.55795 5.37446 2.0212 6.81071C0.194951 8.52071 -0.0967985 10.0095 0.0232015 10.632C0.450701 12.8407 3.49495 14.2807 4.71295 15.3457C4.65295 15.3795 4.5967 15.4095 4.5442 15.4395C3.93295 15.7432 1.61245 16.9582 1.0312 18.2407C0.374952 19.6957 1.13995 20.7382 1.6417 20.8807C3.2092 21.3157 4.81345 20.532 5.67595 19.2457C6.53845 17.9595 6.43345 16.2795 6.03595 15.5145C6.0322 15.5032 6.0247 15.4957 6.02095 15.4845C6.17845 15.3907 6.3397 15.297 6.50095 15.2032C6.8122 15.0195 7.11595 14.8507 7.3822 14.7045C7.2322 15.1095 7.12345 15.597 7.0672 16.302C6.9997 17.127 7.34095 18.1957 7.78345 18.6157C7.97845 18.7995 8.21395 18.8032 8.36095 18.8032C8.87845 18.8032 9.11095 18.3757 9.3697 17.8657C9.68845 17.2432 9.9697 16.5195 9.9697 16.5195C9.9697 16.5195 9.6172 18.477 10.581 18.477C10.9335 18.477 11.286 18.0232 11.4435 17.7907V17.7945C11.4435 17.7945 11.451 17.7795 11.4697 17.7495C11.5072 17.6932 11.526 17.6595 11.526 17.6595V17.6482C11.6685 17.4045 11.9797 16.8457 12.4485 15.9232C13.056 14.7307 13.6364 13.242 13.6364 13.242C13.6927 13.569 13.7707 13.8922 13.869 14.2095C13.974 14.5657 14.1952 14.9557 14.3715 15.3345C14.229 15.5295 14.1427 15.642 14.1427 15.642C14.1427 15.645 14.1442 15.6472 14.1465 15.6495C14.034 15.7995 13.9065 15.9607 13.7752 16.1182C13.296 16.6882 12.7252 17.3407 12.6502 17.5282C12.5602 17.7495 12.5827 17.9145 12.7552 18.042C12.8827 18.1395 13.1077 18.1545 13.344 18.1357C13.7752 18.1057 14.0789 18.0007 14.2252 17.9332C14.4952 17.8365 14.7495 17.703 14.9827 17.5357C15.4515 17.1907 15.7365 16.6957 15.7102 16.0432C15.6952 15.6832 15.579 15.3232 15.4365 14.9857C15.4777 14.9257 15.5227 14.862 15.564 14.7982C16.3057 13.7145 16.8802 12.525 16.8802 12.525C16.9365 12.852 17.0137 13.1752 17.1127 13.4925C17.2027 13.7962 17.379 14.13 17.5402 14.4562C16.8427 15.0225 16.4115 15.6787 16.2622 16.11C15.9847 16.9087 16.2022 17.2687 16.611 17.3512C16.7947 17.3887 17.0572 17.3025 17.2522 17.22C17.5417 17.1232 17.8147 16.983 18.0615 16.8037C18.5302 16.4587 18.984 15.975 18.9532 15.3187C18.942 15.0225 18.8595 14.7262 18.7507 14.4412C19.3395 14.1937 20.1045 14.0587 21.0795 14.1712C23.1675 14.415 23.5762 15.72 23.4975 16.2637C23.4187 16.8075 22.9799 17.1112 22.8337 17.2012C22.6875 17.2912 22.6425 17.325 22.6537 17.3925C22.6725 17.49 22.74 17.4862 22.8637 17.4637C23.0362 17.4337 23.9587 17.0212 24 16.0125C24.06 14.7375 22.8337 13.335 20.6625 13.3462L20.661 13.347ZM4.5667 18.7732C3.8767 19.527 2.90995 19.812 2.4937 19.572C2.04745 19.3125 2.2237 18.2032 3.0742 17.4C3.5917 16.9125 4.2592 16.4625 4.7017 16.185C4.80295 16.125 4.9492 16.035 5.1292 15.9262C5.1592 15.9075 5.1742 15.9 5.1742 15.9C5.20795 15.8775 5.24545 15.8587 5.28295 15.8362C5.59345 16.9762 5.2942 17.9812 4.5667 18.7725V18.7732ZM9.6052 15.3457C9.3652 15.9345 8.8597 17.4345 8.55145 17.3557C8.28895 17.2882 8.1277 16.1445 8.49895 15.0195C8.68645 14.4532 9.08395 13.7782 9.3202 13.5157C9.69895 13.092 10.1152 12.957 10.2127 13.1257C10.344 13.347 9.7552 14.9782 9.6052 15.3457ZM13.7677 17.3332C13.6665 17.3857 13.5727 17.4195 13.5277 17.3932C13.494 17.3745 13.569 17.3032 13.569 17.3032C13.569 17.3032 14.0902 16.7445 14.2965 16.4895C14.4165 16.3395 14.5552 16.1632 14.7052 15.9682C14.7052 15.987 14.709 16.0057 14.709 16.0282C14.7045 16.6995 14.0595 17.1532 13.767 17.3332H13.7677ZM16.9777 16.602C16.9027 16.5495 16.9139 16.3732 17.1652 15.8257C17.2627 15.612 17.4877 15.252 17.8777 14.907C17.922 15.0375 17.9459 15.174 17.9489 15.312C17.9452 16.1557 17.3414 16.4707 16.9777 16.602Z" fill="black"/>
</g>
<defs>
<clipPath id="clip0_201_58396">
<rect width="24" height="24" fill="white"/>
</clipPath>
</defs>
</svg>
