<svg width="24" height="24" viewBox="0 0 24 24" fill="none" xmlns="http://www.w3.org/2000/svg">
<g clip-path="url(#clip0_201_57986)">
<path d="M18.195 24H5.80427C5.27327 24 4.84352 23.5702 4.84352 23.0392V13.8712C4.84352 13.3402 5.27327 12.9067 5.80427 12.9067H6.96827V11.4262C6.96827 8.65274 9.22577 6.39525 11.9993 6.39525C14.7728 6.39525 17.0303 8.65274 17.0303 11.4262V12.9067H18.1943C18.7253 12.9067 19.155 13.3402 19.155 13.8712V23.0392C19.155 23.5702 18.7253 24 18.1943 24H18.195ZM12.6293 18.93C13.77 18.2857 13.3125 16.5435 12 16.5435C10.6913 16.5472 10.2345 18.282 11.3708 18.93V20.172C11.3708 21.0082 12.6285 21.0082 12.6285 20.172L12.6293 18.93ZM9.85577 12.906H14.1488V11.4255C14.1488 10.242 13.1843 9.28125 12 9.28125C10.8158 9.28125 9.85577 10.242 9.85577 11.4255V12.906ZM4.54727 11.5432H1.55927C1.07102 11.5432 0.680267 11.1487 0.680267 10.6642C0.680267 10.1797 1.07102 9.78524 1.55927 9.78524H4.54727C5.03177 9.78524 5.42627 10.1797 5.42627 10.6642C5.42627 11.1487 5.03177 11.5432 4.54727 11.5432ZM6.65252 6.83999C6.44927 6.83999 6.25427 6.7695 6.09752 6.63674L3.73052 4.69124C3.35552 4.38674 3.30452 3.83174 3.61352 3.45674C3.91802 3.08174 4.47302 3.02699 4.84802 3.33599L7.21502 5.28149C7.85177 5.80499 7.47677 6.83999 6.65252 6.83624V6.83999ZM12 4.76924C11.5155 4.76924 11.121 4.37474 11.121 3.89024V0.878245C11.121 0.393745 11.5155 -0.00075531 12 -0.00075531C12.4845 -0.00075531 12.879 0.393745 12.879 0.878245V3.89024C12.879 4.37474 12.4845 4.76924 12 4.76924ZM17.3475 6.83999C16.5195 6.83999 16.1483 5.80499 16.785 5.28149L19.152 3.33599C20.058 2.59349 21.1718 3.94949 20.2695 4.69574L17.9025 6.64124C17.7465 6.77024 17.5508 6.84074 17.3475 6.84074V6.83999ZM22.4415 11.5432H19.4258C18.9375 11.5432 18.5468 11.1487 18.5468 10.6642C18.5468 10.1797 18.9375 9.78524 19.4258 9.78524H22.4415C22.9298 9.78524 23.3205 10.1797 23.3205 10.6642C23.3205 11.1487 22.9298 11.5432 22.4415 11.5432Z" fill="black"/>
</g>
<defs>
<clipPath id="clip0_201_57986">
<rect width="24" height="24" fill="white"/>
</clipPath>
</defs>
</svg>
