<svg width="24" height="24" viewBox="0 0 24 24" fill="none" xmlns="http://www.w3.org/2000/svg">
<g clip-path="url(#clip0_201_58710)">
<path d="M17.5785 0.0705098C17.1997 0.0667598 16.8285 0.20326 16.5472 0.46126C16.5315 0.47701 16.512 0.49276 16.4962 0.50851L8.53124 9.31726L3.87899 5.50501L3.47249 5.15326C3.18749 4.91851 2.79299 4.85626 2.44874 5.00101C2.44499 5.00101 2.44124 5.00476 2.43674 5.00476L0.620244 5.75476C0.596994 5.76676 0.569244 5.77801 0.545994 5.79001C0.526494 5.80201 0.510744 5.80951 0.494994 5.81701C0.482994 5.82451 0.471744 5.83276 0.459744 5.84026C0.443994 5.85226 0.424494 5.86351 0.408744 5.87551C0.401244 5.88301 0.389244 5.89126 0.381744 5.89876C0.365994 5.91076 0.350244 5.92201 0.338994 5.93401C0.323244 5.94601 0.311994 5.95726 0.299994 5.96926C0.292494 5.97676 0.280494 5.98876 0.268494 6.00451C0.256494 6.01651 0.245244 6.02776 0.236994 6.03976C0.224994 6.05551 0.213744 6.07126 0.201744 6.08701C0.194244 6.09451 0.185994 6.10651 0.178494 6.11851C0.166494 6.13426 0.155244 6.15376 0.143244 6.16951C0.139494 6.18151 0.131244 6.19276 0.123744 6.20476C0.116244 6.22051 0.107994 6.23626 0.100494 6.25576C0.0929944 6.27151 0.0884944 6.28276 0.0809944 6.29851C0.0772444 6.31426 0.0689944 6.33001 0.0652444 6.34576C0.0577444 6.36151 0.0532444 6.37726 0.0494944 6.39301C0.0419944 6.40876 0.0374944 6.42826 0.0337444 6.44776C0.0299944 6.45976 0.0262444 6.47101 0.0217444 6.48676C0.0217444 6.50251 0.0179944 6.52201 0.0142444 6.54151C0.0142444 6.55726 0.0104944 6.57301 0.0104944 6.59251C0.00674439 6.61951 0.00674438 6.64726 0.00674438 6.67426V17.3303C0.00674438 17.7323 0.248994 18.096 0.620244 18.2483L2.43674 19.014C2.78474 19.1588 3.18674 19.092 3.47174 18.8498L3.87824 18.498L8.53049 14.6858L16.4955 23.4945C16.5187 23.5178 16.5465 23.5418 16.5697 23.5613C16.5892 23.577 16.6087 23.5965 16.6282 23.6123C16.644 23.628 16.6635 23.6393 16.683 23.655C16.7062 23.6708 16.7257 23.682 16.7452 23.6978C16.7685 23.7098 16.7925 23.7248 16.812 23.7368C16.8352 23.7488 16.8547 23.76 16.8787 23.772C16.9027 23.784 16.9215 23.7915 16.9455 23.8035C16.9687 23.8155 16.9927 23.823 17.016 23.8305C17.0392 23.8425 17.067 23.85 17.0902 23.8575C17.1097 23.865 17.133 23.8695 17.157 23.877C17.181 23.8845 17.208 23.8928 17.235 23.8965C17.2582 23.9003 17.2822 23.9085 17.3055 23.9123C17.3287 23.916 17.3527 23.9198 17.3797 23.9198C17.403 23.9235 17.4307 23.9273 17.454 23.9273C17.4772 23.9273 17.5012 23.931 17.5282 23.931C17.5515 23.931 17.5792 23.931 17.6025 23.931C17.6295 23.931 17.6572 23.9273 17.6805 23.9273C17.7037 23.9235 17.7277 23.9198 17.7472 23.9198C17.7787 23.916 17.8057 23.9123 17.8372 23.904C17.8567 23.9003 17.8762 23.8965 17.8957 23.892C17.9227 23.8845 17.9505 23.88 17.9775 23.8688C17.997 23.865 18.0202 23.8568 18.0442 23.8493C18.0682 23.8418 18.0915 23.8335 18.1147 23.8223C18.1462 23.8103 18.1732 23.799 18.2047 23.787L23.1465 21.408C23.3265 21.3218 23.49 21.201 23.619 21.0488C23.6542 21.0135 23.6812 20.9745 23.7127 20.9355C23.7127 20.9355 23.7127 20.9318 23.7165 20.928C23.7435 20.889 23.7712 20.8463 23.7945 20.8028C23.8177 20.7638 23.8372 20.7248 23.8567 20.6858C23.8605 20.6783 23.8605 20.6738 23.8642 20.6663C23.88 20.631 23.8957 20.5958 23.907 20.5605C23.9107 20.5485 23.9145 20.5373 23.919 20.5215C23.931 20.4863 23.9422 20.451 23.9505 20.4158C23.9542 20.4038 23.958 20.3925 23.958 20.3805C23.9655 20.3453 23.97 20.31 23.9775 20.2793C23.9775 20.2635 23.9812 20.244 23.985 20.2283C23.985 20.1968 23.9887 20.1698 23.9887 20.1383C23.9925 20.1113 23.9925 20.0835 23.9925 20.0603V3.94726C23.9925 3.93526 23.9925 3.92401 23.9925 3.91201C23.9925 3.86476 23.9887 3.81451 23.985 3.76351C23.9227 3.25576 23.6062 2.81401 23.145 2.59576L18.2032 0.22051C18.0082 0.12676 17.7967 0.0757598 17.5822 0.0720098L17.5785 0.0705098ZM17.9962 6.92176V17.0783L11.8012 12L17.9962 6.92176ZM3.00374 8.57401L6.10124 12L3.00374 15.426V8.57401Z" fill="black"/>
</g>
<defs>
<clipPath id="clip0_201_58710">
<rect width="24" height="24" fill="white"/>
</clipPath>
</defs>
</svg>
