<svg width="24" height="24" viewBox="0 0 24 24" fill="none" xmlns="http://www.w3.org/2000/svg">
<g clip-path="url(#clip0_201_57230)">
<path d="M12 0C18.6023 0 24 5.39775 24 12C24 18.6023 18.6023 24 12 24C5.39775 24 0 18.6023 0 12C0 5.39775 5.39775 0 12 0ZM14.9408 14.34C16.2615 12.66 16.0778 10.2622 14.3978 9C12.7808 7.73775 10.3785 8.03925 9 9.71925C7.68 11.3985 7.85925 13.8015 9.53925 15.0592C11.2192 16.32 13.6215 16.02 14.9415 14.34H14.9408ZM8.52 22.1408C9.23775 22.4408 10.8007 22.7377 11.5778 22.7377L16.8007 15.18C18.48 12.66 18.0585 9.23775 15.7185 7.37925C13.6208 5.69925 10.6793 5.76225 8.57775 7.37925L1.32 12.9615C1.5 14.8792 2.03925 15.8407 2.03925 15.8985L6.18 11.3985C5.87925 13.3792 6.60225 15.4222 8.28075 16.6807C9.7185 17.8207 11.4607 18.1215 13.1407 17.763L8.52 22.1408Z" fill="black"/>
</g>
<defs>
<clipPath id="clip0_201_57230">
<rect width="24" height="24" fill="white"/>
</clipPath>
</defs>
</svg>
