<svg width="24" height="24" viewBox="0 0 24 24" fill="none" xmlns="http://www.w3.org/2000/svg">
<g clip-path="url(#clip0_201_58752)">
<path d="M15.738 10.6995C15.2108 9.1725 15.879 6.69975 15.879 6.69975C15.879 6.69975 13.602 8.01225 11.9295 8.00025C10.2615 7.98825 8.12854 6.69975 8.12854 6.69975C8.12854 6.69975 8.69104 9.1605 8.19904 10.7385C7.71829 12.3202 5.73004 14.0782 5.73004 14.0782C5.73004 14.0782 8.30854 14.3085 9.57754 15.18C10.851 16.0508 11.9993 18.6413 11.9993 18.6413C11.9993 18.6413 12.7808 16.29 14.3198 15.231C15.8588 14.1608 18.2805 14.079 18.2805 14.079C18.2805 14.079 16.2803 12.2392 15.7373 10.7115L15.738 10.6995ZM13.7385 14.391C12.6488 15.1995 11.9888 16.5788 11.9888 16.5788C11.9888 16.5788 11.2313 15.1493 10.1918 14.3602C9.14104 13.5712 7.62154 13.3912 7.62154 13.3912C8.34454 12.762 8.87554 11.9377 9.14854 11.0205C9.60979 9.4815 9.32854 8.28975 9.32854 8.28975C9.32854 8.28975 10.2503 8.98875 11.9498 8.98875C13.6493 8.98875 14.739 8.28975 14.739 8.28975C14.739 8.28975 14.3603 9.8715 14.8095 10.989C15.2513 12.1298 16.38 13.3995 16.38 13.3995C16.38 13.3995 14.8215 13.5712 13.7393 14.3917L13.7385 14.391ZM13.7303 9.6015C13.7303 9.6015 12.7808 9.98025 11.961 9.969C11.1405 9.969 10.2615 9.6015 10.2615 9.6015C10.3088 10.1798 10.2615 10.7498 10.0898 11.301C9.82054 12.1605 9.17929 12.9412 9.17929 12.9412C10.3628 13.176 11.3903 13.9102 11.9993 14.949C11.9993 14.949 12.4485 14.1015 13.179 13.6207C13.6793 13.308 14.2298 13.0703 14.808 12.9218C14.808 12.9218 14.07 12.1403 13.7888 11.3512C13.5113 10.5697 13.7303 9.6015 13.7303 9.6015ZM20.1015 12L23.4098 8.301L18.558 7.23075L19.0583 2.289L14.4998 4.28925L12 0L9.50029 4.28925L4.94929 2.289L5.44129 7.23825L0.589539 8.289L3.89029 12L0.601539 15.699L5.44954 16.7692L4.94929 21.711L9.50029 19.7108L12 24L14.4998 19.7108L19.0583 21.711L18.558 16.7692L23.4098 15.711L20.109 12H20.1015ZM14.8283 15.9495C14.0003 16.5592 12 20.8088 12 20.8088C12 20.8088 10.5 16.9493 9.00004 15.9495C7.51954 14.9498 3.62104 14.7308 3.62104 14.7308C3.62104 14.7308 6.60904 12.36 7.19104 10.2622C7.78054 8.16075 6.81979 4.8915 6.81979 4.8915C6.81979 4.8915 9.71854 6.98925 11.898 6.98925C14.07 6.98925 17.16 4.8915 17.16 4.8915C17.16 4.8915 16.3395 9.3915 16.629 10.3523C16.9298 11.3092 20.3595 14.7315 20.3595 14.7315C20.3595 14.7315 15.66 15.3525 14.8208 15.9503L14.8283 15.9495Z" fill="black"/>
</g>
<defs>
<clipPath id="clip0_201_58752">
<rect width="24" height="24" fill="white"/>
</clipPath>
</defs>
</svg>
