<svg width="24" height="24" viewBox="0 0 24 24" fill="none" xmlns="http://www.w3.org/2000/svg">
<path d="M23.8283 19.7302H18.2303C18.1365 19.7302 18.0623 19.7887 18.0623 19.902V21.4177C18.0623 21.5114 18.1208 21.5857 18.234 21.5857H23.8275C23.925 21.5857 23.9993 21.5429 23.9993 21.4214V19.9057C23.9993 19.8045 23.9408 19.7415 23.8275 19.7415V19.7257L23.8283 19.7302ZM16.4648 2.46445C16.4805 2.4997 16.4918 2.5312 16.512 2.5852V21.3742C16.512 21.4365 16.4888 21.4717 16.473 21.4874C16.4415 21.5264 16.3913 21.5497 16.3403 21.5497H0.153013C0.114013 21.5497 0.0787629 21.5497 0.0555129 21.5264C0.0202629 21.4912 0.000762939 21.4447 0.000762939 21.3937V2.5657C0.000762939 2.4877 0.0397629 2.43295 0.0982629 2.41345H16.3403C16.3793 2.41345 16.434 2.43295 16.4535 2.4487V2.46445H16.4648ZM1.81651 19.5742C1.81651 19.6485 1.85551 19.7107 1.91401 19.7264H14.5583C14.613 19.7107 14.652 19.6522 14.652 19.5742V4.40245C14.652 4.33195 14.613 4.2697 14.5545 4.25395H1.91401C1.85926 4.27345 1.82026 4.3282 1.82026 4.40245L1.81651 19.5742ZM6.99226 11.199C7.64101 11.199 8.00776 11.379 8.38651 11.82C8.44501 11.8942 8.53876 11.9137 8.61676 11.8552L9.65176 10.9335C9.72601 10.8907 9.71026 10.7692 9.67126 10.7107C9.03451 9.94495 8.11651 9.4687 6.93301 9.4687C5.34301 9.4687 4.14001 10.2615 3.67501 11.6722C3.51076 12.168 3.43651 12.801 3.43651 13.653C3.43651 14.5087 3.51076 15.1372 3.69076 15.6337C4.15576 17.0595 5.35501 17.8372 6.94501 17.8372C8.14801 17.8372 9.06226 17.3565 9.69076 16.6222C9.73801 16.548 9.75301 16.458 9.67501 16.3957L8.64001 15.4815C8.56576 15.4342 8.47576 15.4342 8.41351 15.5085C8.02651 15.9577 7.62076 16.1962 6.96001 16.1962C6.25651 16.1962 5.71801 15.8527 5.49151 15.1612C5.35501 14.7742 5.32351 14.2942 5.32351 13.6807C5.32351 13.0635 5.37076 12.6105 5.50726 12.2077C5.74576 11.5515 6.27301 11.1997 6.99151 11.1997L6.99226 11.199Z" fill="black"/>
</svg>
