<svg width="24" height="24" viewBox="0 0 24 24" fill="none" xmlns="http://www.w3.org/2000/svg">
<g clip-path="url(#clip0_201_58030)">
<path d="M17.9805 11.34C18.1448 11.3205 18.3128 11.3205 18.4763 11.34C18.5663 11.1367 18.582 10.7812 18.4995 10.3987C18.3825 9.82874 18.222 9.48074 17.886 9.53549C17.5538 9.59024 17.5425 10.0042 17.6595 10.5742C17.73 10.8945 17.847 11.172 17.9798 11.34H17.9805ZM15.1208 11.793C15.3593 11.8987 15.5033 11.9685 15.5625 11.9062C15.5978 11.8672 15.5895 11.7967 15.531 11.703C15.414 11.5117 15.1718 11.316 14.9138 11.2072C14.3745 10.9807 13.7535 11.055 13.281 11.4022C13.1205 11.5192 12.9728 11.6835 12.9923 11.781C12.9998 11.8125 13.0238 11.8357 13.0785 11.8432C13.2113 11.859 13.668 11.6287 14.1998 11.5935C14.571 11.5702 14.883 11.6872 15.1215 11.793H15.1208ZM14.6408 12.0667C14.328 12.1177 14.16 12.219 14.0513 12.3127C13.9538 12.3945 13.899 12.4882 13.899 12.5512L13.9223 12.6097L13.9733 12.6292C14.0438 12.6292 14.1998 12.5625 14.1998 12.5625C14.52 12.4455 14.8635 12.4065 15.1995 12.4612C15.3555 12.477 15.4298 12.4882 15.465 12.4342C15.4725 12.4185 15.4845 12.387 15.453 12.3367C15.3825 12.216 15.066 12.0165 14.6408 12.0675V12.0667ZM17.016 13.074C17.2268 13.1752 17.4578 13.1362 17.532 12.984C17.61 12.828 17.5005 12.6165 17.2898 12.5152C17.079 12.4095 16.848 12.453 16.77 12.6052C16.6958 12.7612 16.8053 12.9682 17.016 13.074ZM18.3713 11.8867C18.1995 11.883 18.0548 12.0705 18.0548 12.3082C18.051 12.543 18.1838 12.7342 18.3555 12.738C18.5273 12.7417 18.6683 12.5542 18.672 12.3202C18.6758 12.0855 18.5393 11.8905 18.3713 11.8867ZM6.86701 16.1287C6.82426 16.0777 6.75376 16.0935 6.68701 16.1092C6.63226 16.1212 6.57751 16.1287 6.52651 16.1325C6.40951 16.1325 6.30001 16.0777 6.23326 15.984C6.15526 15.8632 6.15901 15.6832 6.24526 15.48L6.28426 15.3862C6.42526 15.078 6.65176 14.562 6.39375 14.07C6.20251 13.6987 5.88601 13.4685 5.50276 13.4212C5.13526 13.374 4.77226 13.503 4.51801 13.773C4.13926 14.1907 4.08076 14.7615 4.15501 14.9647C4.18201 15.039 4.22551 15.0585 4.25626 15.0622C4.31851 15.0697 4.41226 15.0232 4.47526 14.8627L4.49101 14.8117C4.51801 14.7255 4.56901 14.5657 4.64701 14.4405C4.85776 14.1202 5.28376 14.0302 5.60026 14.241C5.86576 14.4127 5.97151 14.7412 5.85826 15.0495C5.79976 15.2137 5.70226 15.5182 5.72551 15.7725C5.76826 16.284 6.08101 16.4872 6.36226 16.5105C6.63601 16.5225 6.82726 16.3657 6.87825 16.2525C6.90526 16.1857 6.88201 16.1467 6.86626 16.1272L6.86701 16.1287ZM22.6913 15.195C22.6793 15.156 22.6133 14.9062 22.5195 14.6092L22.3283 14.0977C22.7033 13.5352 22.7108 13.0312 22.6605 12.7462C22.6058 12.3945 22.461 12.0937 22.1648 11.7855C21.8715 11.4727 21.2663 11.1525 20.415 10.9147L19.9695 10.794C19.9695 10.7745 19.9463 9.73949 19.9268 9.29774C19.9148 8.97749 19.8878 8.47349 19.7318 7.98149C19.548 7.31324 19.224 6.72749 18.8213 6.35249C19.9305 5.20049 20.6258 3.93074 20.622 2.84474C20.6183 0.746988 18.0518 0.113988 14.8875 1.42649L14.2155 1.71149C13.8053 1.30949 13.3988 0.906738 12.9848 0.504738C9.375 -2.64751 -1.90574 9.91124 1.69951 12.966L2.48851 13.6342C2.27776 14.2042 2.20351 14.8177 2.26951 15.4275C2.35576 16.2675 2.78551 17.0722 3.48826 17.6932C4.15201 18.2827 5.02726 18.6577 5.87926 18.6577C7.28176 21.8962 10.4888 23.8845 14.2463 23.9977C18.2813 24.1147 21.6683 22.2202 23.0858 18.8145C23.1795 18.576 23.574 17.4982 23.574 16.5487C23.574 15.5917 23.0348 15.1972 22.6913 15.1972V15.195ZM6.18751 17.742C6.06676 17.7652 5.93776 17.7735 5.81251 17.769C4.59751 17.7375 3.28126 16.6402 3.14851 15.3352C3.00376 13.8937 3.73801 12.7882 5.03926 12.5265C5.21926 12.4875 5.40226 12.4755 5.58601 12.4837C6.31651 12.5265 7.39051 13.0852 7.63276 14.6752C7.85176 16.0852 7.50751 17.5192 6.18751 17.7457V17.742ZM4.82851 11.664C4.02001 11.82 3.30526 12.2812 2.86726 12.9142C2.60551 12.6997 2.12101 12.2775 2.03551 12.1132C1.34026 10.785 2.79751 8.21099 3.81301 6.75374C6.32851 3.15974 10.2698 0.437238 12.0945 0.929238C12.3915 1.01549 13.3718 2.15549 13.3718 2.15549C13.3718 2.15549 11.5478 3.16724 9.85575 4.58099C7.57876 6.33899 5.85976 8.88974 4.82851 11.6632V11.664ZM17.613 17.2072C17.64 17.1952 17.6603 17.1645 17.6558 17.1367C17.652 17.0977 17.6205 17.07 17.5815 17.0745C17.5815 17.0745 15.675 17.3595 13.8705 16.6957C14.0655 16.059 14.589 16.2892 15.378 16.3522C16.6043 16.4265 17.835 16.2937 19.0185 15.9577C19.8353 15.723 20.9055 15.2625 21.741 14.6025C22.0223 15.2197 22.1198 15.8992 22.1198 15.8992C22.1198 15.8992 22.3388 15.8602 22.518 15.9735C22.6898 16.0792 22.815 16.302 22.7288 16.8682C22.557 17.931 22.104 18.7942 21.3458 19.5907C20.8733 20.1022 20.3108 20.5245 19.6815 20.8327C19.3335 21.0165 18.9705 21.1687 18.5993 21.294C15.7395 22.2277 12.8138 21.2002 11.8688 18.993C11.7945 18.825 11.7323 18.6495 11.6813 18.4695C11.2793 17.016 11.619 15.27 12.6893 14.1727C12.7515 14.1022 12.8183 14.0205 12.8183 13.9147C12.8183 13.8285 12.7635 13.7392 12.717 13.6725C12.3458 13.1295 11.0528 12.2077 11.3108 10.4182C11.4983 9.13274 12.6195 8.23049 13.6665 8.28149L13.932 8.29724C14.385 8.32424 14.7795 8.38349 15.1508 8.39849C15.7755 8.42549 16.338 8.33624 17.0025 7.78124C17.2253 7.59374 17.4045 7.42949 17.7098 7.37924C17.7413 7.37549 17.823 7.34399 17.979 7.35224C18.1433 7.35974 18.2993 7.41074 18.4358 7.50074C18.9713 7.85624 19.0455 8.71574 19.0725 9.34424C19.0883 9.70349 19.131 10.5705 19.1468 10.821C19.182 11.391 19.3305 11.4735 19.6313 11.571C19.803 11.6295 19.9635 11.6722 20.1938 11.7352C20.901 11.9347 21.3188 12.1372 21.5805 12.3952C21.741 12.5557 21.8108 12.7275 21.8348 12.891C21.921 13.5007 21.366 14.2507 19.8975 14.934C18.2918 15.6802 16.347 15.8677 15.003 15.7192L14.5305 15.6645C13.4565 15.5197 12.843 16.9102 13.4873 17.868C13.9013 18.4815 15.0383 18.8835 16.1708 18.8835C18.7688 18.8835 20.7683 17.7705 21.5108 16.809L21.5693 16.7227C21.6083 16.668 21.5768 16.641 21.5303 16.6717C20.925 17.0857 18.2258 18.738 15.3428 18.2422C15.3428 18.2422 14.991 18.1837 14.6708 18.0585C14.4165 17.961 13.8855 17.715 13.8195 17.1675C16.1475 17.8905 17.6123 17.2065 17.6123 17.2065L17.613 17.2072ZM13.926 16.7692H13.9298H13.926ZM9.47251 6.73799C10.3673 5.70299 11.4683 4.80449 12.453 4.30049C12.4883 4.28099 12.5235 4.31999 12.5078 4.35149C12.4298 4.49249 12.2775 4.80074 12.2303 5.02724C12.2228 5.06249 12.2618 5.08949 12.2888 5.06999C12.906 4.65224 13.9725 4.20299 14.91 4.14449C14.949 4.14449 14.9685 4.19549 14.937 4.21874C14.781 4.33949 14.6438 4.47674 14.523 4.63274C14.5035 4.65974 14.523 4.69499 14.5545 4.69499C15.2145 4.70249 16.1408 4.93349 16.7423 5.27324C16.785 5.29649 16.758 5.37449 16.7108 5.36324C15.7965 5.15249 14.3003 4.99199 12.7463 5.37524C11.3595 5.71499 10.3013 6.23474 9.52726 6.80099C9.48826 6.82799 9.44101 6.77774 9.47251 6.73874V6.73799Z" fill="black"/>
</g>
<defs>
<clipPath id="clip0_201_58030">
<rect width="24" height="24" fill="white"/>
</clipPath>
</defs>
</svg>
