<svg width="24" height="24" viewBox="0 0 24 24" fill="none" xmlns="http://www.w3.org/2000/svg">
<g clip-path="url(#clip0_201_58208)">
<path d="M12 0C5.37075 0 0 5.37075 0 12C0 18.6292 5.37075 24 12 24C18.6292 24 24 18.6292 24 12C24 5.37075 18.6292 0 12 0ZM7.36725 4.37925C7.89525 4.37925 8.316 4.809 8.316 5.32425C8.316 5.84025 7.89525 6.273 7.36725 6.273C6.84825 6.27 6.42225 5.84775 6.42225 5.32425C6.42225 4.8015 6.8445 4.37925 7.36725 4.37925ZM6.648 7.41375H8.09025V17.457H6.648V7.41375ZM10.2113 7.41375H14.109C17.82 7.41375 19.4528 10.0695 19.4528 12.441C19.4528 15.0202 17.4375 17.4653 14.1285 17.4653H10.2105L10.2113 7.41375ZM11.652 8.71875V16.164H13.9493C17.223 16.164 17.973 13.68 17.973 12.441C17.973 10.4257 16.6882 8.71875 13.875 8.71875H11.652Z" fill="black"/>
</g>
<defs>
<clipPath id="clip0_201_58208">
<rect width="24" height="24" fill="white"/>
</clipPath>
</defs>
</svg>
