<svg width="24" height="24" viewBox="0 0 24 24" fill="none" xmlns="http://www.w3.org/2000/svg">
<g clip-path="url(#clip0_201_58424)">
<path d="M12 0C5.37075 0 0 5.37075 0 12C0 18.6248 5.37075 24 12 24C18.6292 24 24 18.6248 24 12C24 5.37075 18.6292 0 12 0ZM9.87075 16.7347C8.58525 16.7347 7.3005 16.3088 6.312 15.4537C5.097 14.4067 4.3785 12.9773 4.281 11.43C4.191 9.93375 4.70325 8.4885 5.71875 7.3635C6.8595 6.102 8.90625 4.14075 8.9925 4.05525C9.5475 3.52425 10.4303 3.54375 10.9613 4.1025C11.4885 4.6575 11.4727 5.54025 10.914 6.07125C10.8945 6.09075 8.85525 8.0475 7.7775 9.2355C7.26975 9.80175 7.0155 10.521 7.059 11.2628C7.11 12.0518 7.48875 12.7898 8.12925 13.3485C8.973 14.079 10.641 14.2395 11.6842 13.3057C12.3015 12.747 13.0552 11.931 13.0635 11.919C13.5832 11.3527 14.4622 11.3175 15.0285 11.841C15.5948 12.3608 15.63 13.2397 15.1102 13.8097C15.075 13.845 14.259 14.7315 13.5397 15.3802C12.5317 16.2825 11.2035 16.7355 9.8715 16.7355L9.87075 16.7347ZM18.2812 16.6365C17.1405 17.898 15.0938 19.863 15.0075 19.9447C14.7338 20.2028 14.3903 20.3317 14.0468 20.3317C13.6792 20.3317 13.3125 20.187 13.0387 19.902C12.5078 19.3433 12.5273 18.4605 13.086 17.9295C13.1055 17.91 15.1485 15.9532 16.2225 14.7653C16.7302 14.199 16.9845 13.4797 16.941 12.738C16.89 11.949 16.5112 11.2065 15.8707 10.6523C15.027 9.92175 13.359 9.76125 12.3158 10.695C11.6947 11.2537 10.9447 12.0742 10.9365 12.0817C10.4167 12.648 9.53775 12.6833 8.9715 12.1635C8.40525 11.6438 8.36625 10.761 8.88975 10.1947C8.925 10.1558 9.73725 9.26925 10.4602 8.6205C12.441 6.843 15.6833 6.80775 17.6865 8.5425C18.9015 9.59325 19.62 11.0227 19.7137 12.57C19.8075 14.0662 19.296 15.5152 18.2805 16.6365H18.2812Z" fill="black"/>
</g>
<defs>
<clipPath id="clip0_201_58424">
<rect width="24" height="24" fill="white"/>
</clipPath>
</defs>
</svg>
