<svg width="24" height="24" viewBox="0 0 24 24" fill="none" xmlns="http://www.w3.org/2000/svg">
<path d="M20.9482 7.5705C17.4465 1.35975 7.17671 0 7.17671 0C7.17671 0 11.916 5.175 5.85971 9.267C2.03021 11.85 0.51596 15.2063 2.15621 18.8715C3.41246 21.6795 6.07046 22.8232 8.93471 23.2493C7.56596 20.6663 8.62496 17.5117 8.74271 17.1742C11.4195 21.2243 16.4775 17.1742 13.9365 12.7725C17.265 13.494 17.7615 19.2698 15.207 22.8743C18.9802 21.6885 21.4927 18.7073 22.182 16.0492C22.9087 13.2697 22.3552 10.0538 20.949 7.56975L20.9482 7.5705Z" fill="black"/>
</svg>
