<svg width="24" height="24" viewBox="0 0 24 24" fill="none" xmlns="http://www.w3.org/2000/svg">
<g clip-path="url(#clip0_201_58116)">
<path d="M19.8053 12.273C21.9105 12.273 23.6213 10.5697 23.6213 8.46899C23.6213 6.36674 21.9105 4.67624 19.8053 4.67624C17.6955 4.67624 15.984 6.38699 15.984 8.48399C15.984 10.5862 17.6947 12.297 19.8053 12.297V12.273ZM11.199 12.9802C13.098 12.9802 14.637 11.445 14.637 9.55499C14.637 7.66424 13.098 6.12899 11.199 6.12899C9.30075 6.12899 7.76625 7.67624 7.76625 9.56624C7.76625 11.457 9.3015 13.0005 11.199 13.0005V12.9802ZM3.39825 13.6132C5.109 13.6132 6.492 12.234 6.492 10.5315C6.492 8.82899 5.09775 7.44974 3.387 7.44974C1.68 7.44974 0.30075 8.82899 0.30075 10.5397C0.30075 12.2385 1.6875 13.6177 3.3945 13.6177L3.39825 13.6132ZM3.39825 14.3197C1.4415 14.3197 0 16.035 0 17.8117V19.0117C0 19.1797 0.13725 19.32 0.309 19.32H6.48825C6.66 19.32 6.801 19.1797 6.801 19.0117V17.8117C6.801 16.035 5.36325 14.3115 3.402 14.3115L3.39825 14.3197ZM11.199 13.758C9.02025 13.758 7.422 15.6757 7.422 17.6482V18.9802C7.422 19.1685 7.57425 19.3245 7.76625 19.3245H14.637C14.8238 19.3245 14.9767 19.1722 14.9767 18.9802V17.6482C14.9767 15.6765 13.3785 13.758 11.199 13.758ZM19.8053 13.1407C17.3835 13.1407 15.6052 15.27 15.6052 17.4645V18.9405C15.6052 19.1512 15.777 19.3237 15.9885 19.3237H23.6175C23.8282 19.3237 24.0007 19.152 24.0007 18.9405V17.4645C24.0007 15.2692 22.2278 13.1407 19.806 13.1407H19.8053Z" fill="black"/>
</g>
<defs>
<clipPath id="clip0_201_58116">
<rect width="24" height="24" fill="white"/>
</clipPath>
</defs>
</svg>
