<svg width="24" height="24" viewBox="0 0 24 24" fill="none" xmlns="http://www.w3.org/2000/svg">
<g clip-path="url(#clip0_201_58238)">
<path d="M12 0C5.37075 0 0 5.37075 0 12C0 18.6292 5.37075 24 12 24C18.6292 24 24 18.6292 24 12C24 5.37075 18.6292 0 12 0ZM7.07775 4.18425H9.85875C10.0935 4.18425 10.281 4.39125 10.281 4.65225V19.3485C10.281 19.6095 10.0943 19.8165 9.85875 19.8165H7.0815C6.8475 19.8165 6.65925 19.6095 6.65925 19.3485V4.65225C6.65925 4.39125 6.8475 4.18425 7.0815 4.18425H7.07775ZM11.742 4.18425C11.859 4.18425 11.973 4.215 12.0697 4.2735C12.426 4.4805 19.5195 8.69175 20.1285 9.0555C20.5222 9.28575 20.5222 9.8595 20.1285 10.0942C19.6905 10.3552 12.5693 14.586 12.0548 14.883C11.6595 15.1132 11.1675 14.8238 11.1795 14.367V12.5588C11.1795 10.8435 14.1405 10.3545 14.5778 10.0935C14.973 9.85875 14.973 9.28425 14.5778 9.05025C13.9725 8.69025 11.1795 8.304 11.1795 6.6015V4.78875C11.1795 4.4565 11.4292 4.1835 11.7413 4.17975L11.742 4.18425Z" fill="black"/>
</g>
<defs>
<clipPath id="clip0_201_58238">
<rect width="24" height="24" fill="white"/>
</clipPath>
</defs>
</svg>
