<svg width="24" height="24" viewBox="0 0 24 24" fill="none" xmlns="http://www.w3.org/2000/svg">
<g clip-path="url(#clip0_201_58026)">
<path d="M10.8547 14.457C10.8547 14.457 11.0114 15.3788 10.8239 17.4098C10.5862 19.9568 11.7929 24 11.7929 24C11.7929 24 13.4377 19.9493 13.1519 17.328C12.9142 15.18 13.2577 14.4263 13.1842 14.5268C11.9219 16.2728 10.8554 14.457 10.8554 14.457H10.8547ZM13.9379 16.6448C14.1449 18.234 13.9139 19.1048 13.6169 20.8088C13.4692 21.6675 16.6882 18.219 17.9219 16.1595C18.1289 15.8198 16.7422 17.4998 15.3712 16.3005C14.4179 15.4688 14.2582 15.2145 13.5164 14.4915C13.2704 14.2455 13.7932 15.5033 13.9417 16.6403L13.9379 16.6448ZM10.4257 14.6168C9.6877 15.3398 9.5227 15.594 8.57395 16.4258C7.20295 17.625 5.8162 15.945 6.0232 16.2885C7.25845 18.3473 10.4774 21.7965 10.3244 20.9333C10.0274 19.2293 9.8017 18.3585 10.0042 16.7693C10.1519 15.6323 10.6799 14.3745 10.4302 14.616L10.4257 14.6168ZM13.5937 11.7773C15.0974 12.2153 15.6794 14.301 17.1989 14.559C17.5117 14.613 17.8672 14.7068 18.2767 14.688C19.0469 14.652 20.0227 14.2148 21.3239 12.3713C21.7072 11.8245 20.3669 15.8835 17.0122 15.9345C14.5514 15.9698 14.2619 13.5233 12.6209 13.4498C12.0307 13.4265 11.9917 12.2978 11.9917 12.2978C11.9917 12.2978 12.6989 11.5208 13.5937 11.778V11.7773ZM10.4062 11.766C8.90245 12.1988 8.32045 14.289 6.80095 14.547C6.4882 14.6018 6.1327 14.6948 5.7232 14.676C4.95295 14.6408 3.9772 14.2028 2.67595 12.3593C2.2927 11.8125 3.63295 15.8715 6.9877 15.9225C9.44845 15.9578 9.73795 13.5128 11.3789 13.4385C11.9692 13.4108 12.0082 12.2813 12.0082 12.2813C12.0082 12.2813 11.3009 11.508 10.4062 11.766ZM16.0312 11.7458C17.5469 12.8948 17.0939 14.1555 17.9452 13.797C20.8049 12.582 20.3055 6.35926 20.07 7.11301C18.7702 11.355 15.9299 11.5943 13.1947 9.64126C12.6599 9.26251 15.1799 11.1023 16.0304 11.7465L16.0312 11.7458ZM10.7932 9.64126C8.05945 11.5943 5.2192 11.355 3.91795 7.11301C3.6877 6.35926 3.1882 12.582 6.0472 13.797C6.89545 14.1563 6.44095 12.8948 7.95745 11.7458C8.80945 11.1015 11.3287 9.26176 10.7932 9.64051V9.64126ZM16.32 10.227C19.6169 10.0898 20.2267 4.68001 19.9687 5.34001C18.8047 8.30476 14.3947 7.18801 13.9724 9.05926C13.8907 9.42601 14.7225 10.2893 16.3192 10.227H16.32ZM10.0162 9.05926C9.59395 7.18801 5.18395 8.30551 4.01995 5.34001C3.76195 4.68001 4.37095 10.0898 7.6717 10.227C9.26995 10.2893 10.0979 9.42601 10.0154 9.05926H10.0162ZM13.7699 8.23426C13.7699 8.23426 15.5617 7.27051 17.0977 6.85201C18.531 6.45676 19.6087 5.49226 19.7295 4.46926C19.8157 3.71101 18.6164 2.27326 18.6164 2.27326C18.6164 2.27326 17.7764 4.60501 16.6754 5.77351C15.4724 7.04326 15.9292 6.87151 13.7692 8.23426H13.7699ZM7.3162 5.77276C6.21145 4.60501 5.37145 2.27251 5.37145 2.27251C5.37145 2.27251 4.1722 3.71026 4.2622 4.46851C4.3792 5.49151 5.45695 6.45676 6.89095 6.85126C8.4262 7.26901 10.2232 8.23351 10.2232 8.23351C8.05945 6.87076 8.5162 7.04251 7.3162 5.77276ZM13.5509 8.08576C15.4919 6.49201 16.5269 4.41376 18.2069 2.13676C18.5227 1.70701 16.7887 0.672008 16.1017 0.604508C15.4139 0.534758 14.8394 3.05851 14.7727 4.53826C14.7149 5.89426 13.2884 8.30026 13.5509 8.08501V8.08576ZM9.2152 4.53901C9.14845 3.05476 8.57395 0.534758 7.88695 0.602258C7.1992 0.672008 5.4652 1.70701 5.78095 2.13751C7.4647 4.41076 8.49595 6.49276 10.4377 8.08651C10.6987 8.30176 9.27295 5.89126 9.21445 4.53976L9.2152 4.53901ZM13.7459 2.93776C13.8832 1.83976 14.3752 1.03501 15.3592 0.363008C14.4884 0.0742581 13.7662 -0.164242 13.3912 0.144758C13.0124 0.453008 11.9879 1.48801 12.1252 3.16801C12.2624 4.85176 12.1334 11.133 12.4304 11.016C12.5902 6.71476 13.9492 5.47726 13.7467 2.93776H13.7459ZM11.5589 11.016C11.8552 11.1293 11.7269 4.84801 11.8627 3.16801C12.0037 1.48801 10.9769 0.453008 10.5974 0.144758C10.2224 -0.164242 9.49945 0.0697581 8.6287 0.363008C9.6127 1.03501 10.1047 1.83976 10.2419 2.93776C10.0349 5.47651 11.3977 6.71101 11.5589 11.0115V11.016Z" fill="black"/>
</g>
<defs>
<clipPath id="clip0_201_58026">
<rect width="24" height="24" fill="white"/>
</clipPath>
</defs>
</svg>
