<svg width="24" height="24" viewBox="0 0 24 24" fill="none" xmlns="http://www.w3.org/2000/svg">
<path d="M7.848 7.51199C6.8835 7.51199 6.399 8.67974 7.08225 9.36374C7.7655 10.0477 8.934 9.56699 8.934 8.59799C8.934 8.00024 8.4495 7.51199 7.848 7.51199ZM4.94175 10.5547V11.973H6.891V16.7662H7.5945V14.04H8.10225V16.7662H8.81325V10.5555L4.94175 10.5547ZM14.121 11.0895H14.1015C13.8127 10.6717 13.2382 10.386 12.4605 10.386C10.9725 10.386 9.66375 11.6085 9.675 13.7062C9.675 15.6397 10.8548 16.9057 12.3353 16.9057C13.1325 16.9057 13.8937 16.5465 14.2687 15.867L14.3857 16.7617H16.0538V7.65224H14.1202L14.121 11.0895ZM14.121 13.992C14.121 14.1525 14.109 14.3047 14.0895 14.457V14.4412C13.98 14.9722 13.515 15.3667 12.9608 15.3667H12.945C12.1477 15.3667 11.6287 14.7067 11.6287 13.644C11.6287 12.6637 12.0742 11.8747 12.957 11.8747C13.5622 11.8747 13.9808 12.312 14.0978 12.8242C14.1098 12.9142 14.1173 13.0155 14.1173 13.1212V13.176L14.121 13.992ZM4.80075 8.89049L5.277 7.28924C5.15175 7.24649 5.02275 7.21499 4.8945 7.18799H4.875C4.60125 7.12574 4.3245 7.09424 4.047 7.09424C3.6795 7.09424 3.31275 7.14899 2.961 7.25474L2.988 7.24724C2.85525 7.28624 2.73 7.33724 2.60925 7.39949L2.61675 7.39574C2.3745 7.51649 2.15175 7.67699 1.95675 7.86824C1.4565 8.36024 1.203 9.02474 1.203 9.84449V10.5517H0V11.97H1.19925V16.7632H3.117V11.97H4.31625V10.5562H3.117V9.80624C3.10125 9.54824 3.18375 9.29024 3.34725 9.09149V9.09524C3.36675 9.07199 3.39 9.05249 3.4095 9.03299C3.4095 9.03299 3.8235 8.62274 4.8 8.89199L4.80075 8.89049ZM20.3048 10.3867C18.297 10.3867 16.9808 11.676 16.9808 13.695C16.9808 15.714 18.3713 16.9057 20.1915 16.9057C21.8558 16.9057 23.469 15.867 23.469 13.5772C23.4653 11.706 22.1992 10.386 20.3048 10.386V10.3867ZM20.2425 15.516C19.4107 15.516 18.969 14.7187 18.969 13.6447C18.969 12.7267 19.3282 11.7817 20.2425 11.7817C21.1133 11.7817 21.477 12.7192 21.477 13.6335C21.477 14.7705 20.9963 15.516 20.2425 15.516ZM22.4925 9.76199H22.7272V10.3515H22.8638V9.76199H23.0985V9.64499H22.4932L22.4925 9.76199ZM23.8005 9.64424L23.6168 10.1482L23.4368 9.64424H23.2335V10.3515H23.3625V9.78149L23.562 10.3515H23.6752L23.8665 9.78149V10.3515H23.9993V9.64424H23.796H23.8005Z" fill="black"/>
</svg>
