<svg width="24" height="24" viewBox="0 0 24 24" fill="none" xmlns="http://www.w3.org/2000/svg">
<g clip-path="url(#clip0_201_57294)">
<path d="M23.637 14.9018C22.035 21.336 15.5228 25.242 9.09826 23.6408C2.67226 22.0508 -1.24199 15.5228 0.363006 9.10501C1.96126 2.67227 8.47726 -1.24199 14.898 0.359265C21.3278 1.96501 25.242 8.47351 23.637 14.9063V14.9018ZM17.289 10.2893C17.5268 8.69926 16.3118 7.84051 14.6483 7.26226L15.1883 5.10901L13.8713 4.77676L13.3485 6.88651C13.0043 6.79651 12.6458 6.71851 12.2858 6.63676L12.81 4.50751L11.4893 4.17976L10.95 6.34351C10.665 6.27676 10.3883 6.21076 10.11 6.14476L8.29801 5.69101L7.94626 7.10176C7.94626 7.10176 8.92351 7.32376 8.89951 7.33576C9.43576 7.47301 9.53251 7.81951 9.51751 8.10151L8.04076 14.0228C7.96651 14.1878 7.79851 14.43 7.42801 14.3355C7.44001 14.3543 6.46726 14.0978 6.46726 14.0978L5.80726 15.6045L7.51801 16.0305L8.44726 16.2728L7.90426 18.465L9.22501 18.789L9.76801 16.6208C10.1273 16.7228 10.4708 16.812 10.8143 16.8945L10.3073 19.0463L11.6273 19.3785L12.1703 17.1878C14.412 17.613 16.1003 17.445 16.8113 15.414C17.3813 13.7768 16.779 12.8363 15.5963 12.219C16.4475 12.0233 17.0963 11.457 17.2755 10.2893H17.289ZM14.277 14.5118C13.875 16.152 11.121 15.2618 10.227 15.039L10.9493 12.141C11.844 12.3713 14.703 12.8123 14.277 14.5118ZM14.688 10.2698C14.316 11.7615 12.027 11.0078 11.2808 10.8195L11.9378 8.17951C12.6795 8.35876 15.0735 8.70226 14.688 10.2653V10.2698Z" fill="black"/>
</g>
<defs>
<clipPath id="clip0_201_57294">
<rect width="24" height="24" fill="white"/>
</clipPath>
</defs>
</svg>
