<svg width="24" height="24" viewBox="0 0 24 24" fill="none" xmlns="http://www.w3.org/2000/svg">
<path d="M3.35177 6.6705C3.38027 6.39375 3.27227 6.117 3.06602 5.9295L0.951766 3.3795V3H7.52327L12.6045 14.142L17.0715 3H23.3385V3.3795L21.5295 5.11425C21.375 5.23125 21.2948 5.4285 21.3278 5.6205V18.3705C21.2948 18.5625 21.375 18.7598 21.5295 18.8768L23.2965 20.6115V20.991H14.4045V20.6115L16.2375 18.8348C16.416 18.6563 16.416 18.6 16.416 18.3285V8.025L11.3205 20.958H10.6313L4.70627 8.025V16.692C4.65452 17.0573 4.77677 17.4232 5.03477 17.6857L7.41602 20.5732V20.9528H0.666016V20.5778L3.04727 17.6857C3.30002 17.4232 3.41777 17.0528 3.35177 16.692V6.6705Z" fill="black"/>
</svg>
