<svg width="24" height="24" viewBox="0 0 24 24" fill="none" xmlns="http://www.w3.org/2000/svg">
<g clip-path="url(#clip0_201_58032)">
<path d="M23.0555 7.3285C22.4502 5.899 21.587 4.6135 20.4852 3.51625C19.3835 2.4145 18.1025 1.55125 16.673 0.945999C15.1887 0.316749 13.6182 0.000999451 12.0012 0.000999451C10.3805 0.000999451 8.81 0.317499 7.3295 0.945999C5.9 1.55125 4.61825 2.4145 3.51725 3.51625C2.4155 4.61425 1.55225 5.899 0.943249 7.3285C0.318499 8.809 0.0019989 10.3795 0.0019989 12.0002C0.0019989 13.6172 0.318499 15.1877 0.946999 16.672C1.55225 18.1015 2.4155 19.387 3.51725 20.4842C4.619 21.586 5.9 22.4492 7.3295 23.0545C8.81 23.6875 10.3805 23.9995 12.0012 23.9995C13.6182 23.9995 15.1887 23.6868 16.673 23.0545C18.1025 22.453 19.3842 21.586 20.4852 20.4918C21.5862 19.3975 22.4502 18.1052 23.0555 16.6795C23.6847 15.211 24.0005 13.6368 24.0005 12.0153C24.0005 10.3983 23.684 8.83525 23.0555 7.351V7.3285ZM12.0005 22.336C6.29375 22.336 1.66475 17.707 1.66475 12.0002C1.66475 6.2935 6.29375 1.6645 12.0005 1.6645C17.7072 1.6645 22.3362 6.2935 22.3362 12.0002C22.3362 17.707 17.7072 22.336 12.0005 22.336ZM15.2427 4.1215H8.75825C7.8365 4.1215 7.05875 4.4455 6.4265 5.098C5.78975 5.7385 5.47325 6.52 5.47325 7.42975V17.6132C5.47325 18.0625 5.606 18.4217 5.8715 18.7067C6.137 18.976 6.485 19.129 6.92225 19.129C7.36775 19.129 7.727 18.9925 8.00075 18.7225C8.2745 18.4487 8.411 18.0933 8.411 17.6403V7.078H10.5515V17.6095C10.5515 18.055 10.6842 18.4142 10.9422 18.688C11.2002 18.9618 11.5557 19.102 12.0005 19.102C12.446 19.102 12.8015 18.961 13.0587 18.688C13.3205 18.4142 13.4495 18.055 13.4495 17.6095V7.078H15.5937V17.6095C15.5937 18.055 15.7265 18.4142 16.0002 18.688C16.274 18.9618 16.637 19.102 17.0787 19.102C17.516 19.102 17.864 18.961 18.1295 18.676C18.3987 18.3985 18.5315 18.0392 18.5315 17.6095V7.426C18.5315 6.5155 18.215 5.7385 17.5782 5.08975C16.9452 4.441 16.1682 4.11325 15.242 4.11325L15.2427 4.1215Z" fill="black"/>
</g>
<defs>
<clipPath id="clip0_201_58032">
<rect width="24" height="24" fill="white"/>
</clipPath>
</defs>
</svg>
