<svg width="24" height="24" viewBox="0 0 24 24" fill="none" xmlns="http://www.w3.org/2000/svg">
<path d="M0.0862531 13.7618V13.0388C0.496503 13.1678 0.859503 13.2338 1.176 13.2338C1.61325 13.2338 1.82775 13.1168 1.82775 12.8865C1.8315 12.8048 1.797 12.7268 1.734 12.6713C1.67175 12.6083 1.50375 12.522 1.23375 12.4133C0.757503 12.2145 0.441003 12.0465 0.297003 11.9055C0.108753 11.7225 0.00825312 11.4728 0.0120031 11.2103C0.0120031 10.851 0.152253 10.5735 0.426003 10.386C0.695253 10.1978 1.05525 10.104 1.488 10.104C1.73025 10.104 2.07825 10.1468 2.535 10.2368V10.929C2.23425 10.8038 1.914 10.7333 1.59 10.7288C1.17975 10.7288 0.977253 10.839 0.977253 11.0648C0.977253 11.151 1.01625 11.2178 1.1025 11.2718C1.1685 11.3145 1.35525 11.4045 1.66425 11.5455C2.109 11.7405 2.406 11.9123 2.55525 12.0608C2.7345 12.237 2.82825 12.483 2.82 12.7328C2.832 13.1078 2.63325 13.4595 2.30475 13.6395C2.02275 13.8075 1.6635 13.8938 1.21875 13.8938C0.840003 13.8938 0.456753 13.851 0.0855031 13.761L0.0862531 13.7618ZM3.39525 10.1678H4.4145V13.8195H3.39525V10.1678ZM5.34825 13.8203V10.1685H7.965V10.8285H6.33225V11.6565H7.75425V12.2588H6.33225V13.122H8.0085V13.821L5.34825 13.8203ZM8.676 13.8203V10.1685H9.996L10.914 12.5048L11.8553 10.1685H13.113V13.8203H12.1448V11.2343L11.0738 13.8555H10.4408L9.3945 11.2343V13.8203H8.6715H8.676ZM14.0468 13.8203V10.1685H16.6598V10.8285H15.0308V11.6565H16.449V12.2588H15.0308V13.122H16.707V13.821L14.0468 13.8203ZM17.379 13.8203V10.1685H18.5588L19.812 12.6135V10.1723H20.5313V13.8203H19.3793L18.0945 11.3445V13.8203H17.379ZM21.2543 13.7618V13.0388C21.66 13.1678 22.023 13.2338 22.344 13.2338C22.7813 13.2338 22.9958 13.1168 22.9958 12.8865C22.9995 12.8048 22.965 12.7268 22.9058 12.6713C22.8398 12.6083 22.6718 12.522 22.4018 12.4133C21.9255 12.2183 21.609 12.0503 21.465 11.9055C21.2768 11.7225 21.1718 11.4683 21.18 11.2065C21.18 10.8473 21.3158 10.5735 21.594 10.3868C21.8633 10.1985 22.2188 10.1048 22.6523 10.1048C22.902 10.1048 23.2193 10.1445 23.6093 10.2225L23.6993 10.2375V10.9298C23.4023 10.8045 23.0783 10.734 22.7543 10.7295C22.3485 10.7295 22.1415 10.8398 22.1415 11.0655C22.1415 11.1518 22.1843 11.2185 22.2668 11.2725C22.3328 11.3115 22.521 11.4053 22.8368 11.5463C23.2778 11.7413 23.5748 11.913 23.724 12.0615C23.9033 12.2378 23.997 12.4838 23.985 12.7335C23.985 13.1325 23.817 13.4333 23.478 13.6403C23.1923 13.8083 22.833 13.8945 22.3883 13.8945C22.0095 13.8945 21.63 13.8473 21.255 13.7618H21.2543Z" fill="black"/>
</svg>
