<svg width="24" height="24" viewBox="0 0 24 24" fill="none" xmlns="http://www.w3.org/2000/svg">
<g clip-path="url(#clip0_201_57150)">
<path d="M0 0.300781V23.6993H24V0.300781H0ZM0.99975 1.30053H22.9995V22.6988H0.99975V1.30053ZM6.78525 13.551L5.9925 16.5353C5.97675 16.617 5.9415 16.6485 5.844 16.6485H4.3755C4.278 16.6485 4.26225 16.6133 4.278 16.5L7.1175 6.56628C7.16475 6.38628 7.19925 6.24228 7.215 5.74578C7.215 5.67903 7.2465 5.64453 7.29675 5.64453H9.3945C9.46125 5.64453 9.492 5.66403 9.50775 5.74578L12.6915 16.515C12.7073 16.5968 12.6915 16.644 12.6097 16.644H10.9613C10.8795 16.644 10.8285 16.617 10.8127 16.5503L9.9885 13.5465H6.78525V13.551ZM9.5895 11.9258C9.30825 10.8203 8.62875 8.39478 8.38275 7.22628H8.367C8.1525 8.39403 7.61325 10.3748 7.19925 11.9258H9.5895ZM14.949 12.9495C14.9685 14.3048 15.609 15.2115 17.1285 15.2115C17.7225 15.2115 18.2302 15.1335 18.7575 14.8988C18.8242 14.8673 18.8745 14.8868 18.8745 14.9693V16.2233C18.8745 16.3208 18.843 16.3718 18.7733 16.4228C18.246 16.6845 17.5898 16.8015 16.7655 16.8015C14.1248 16.8015 13.1362 14.856 13.1362 12.6765C13.1362 10.317 14.355 8.38728 16.5037 8.38728C18.6795 8.38728 19.437 10.2195 19.437 11.7038C19.437 12.1845 19.4017 12.579 19.3552 12.762C19.3357 12.8438 19.3042 12.8715 19.2225 12.8873C19.023 12.9225 18.4298 12.954 17.5545 12.954H14.949V12.9495ZM16.9808 11.574C17.4923 11.574 17.6723 11.574 17.7233 11.5583C17.7233 11.4915 17.739 11.433 17.739 11.3865C17.739 10.8398 17.4735 9.83928 16.434 9.83928C15.477 9.83928 15.063 10.683 14.9655 11.574H16.9808Z" fill="black"/>
</g>
<defs>
<clipPath id="clip0_201_57150">
<rect width="24" height="24" fill="white"/>
</clipPath>
</defs>
</svg>
