<svg width="24" height="24" viewBox="0 0 24 24" fill="none" xmlns="http://www.w3.org/2000/svg">
<g clip-path="url(#clip0_201_58262)">
<path d="M12.3053 13.1798V10.7926C12.3053 10.3043 12.531 9.9563 13.0162 9.9563H16.008C16.023 9.9563 16.0433 9.94055 16.0433 9.92105V9.44405C16.0433 9.4403 16.0432 9.4373 16.0395 9.4328H12.3795C11.5868 9.53405 11.1997 10.0891 11.1997 10.7918V13.1791C11.1997 13.6591 10.9657 14.0108 10.4887 14.0108H7.3365C7.31625 14.0108 7.30125 14.0221 7.30125 14.0461V14.5223C7.30125 14.5426 7.3095 14.5583 7.32 14.5613H10.9058C11.8395 14.5343 12.3007 13.9403 12.3007 13.1753L12.3053 13.1798ZM0.02325 14.5658H1.074C1.08975 14.559 1.10175 14.5471 1.10175 14.5231V13.0043C1.10175 12.5161 1.37475 12.1801 1.77675 12.1801H6.102C7.074 12.1801 7.54725 11.5823 7.54725 10.7971C7.54725 10.0898 7.16025 9.5393 6.3675 9.43805H0.00825C0.00825 9.44105 0 9.4448 0 9.4493V9.9263C0 9.94955 0.012 9.96155 0.03525 9.96155H5.7345C6.21975 9.96155 6.4455 10.3096 6.4455 10.7933C6.4455 11.2771 6.21975 11.6295 5.7345 11.6295H1.22775C0.528 11.6295 0.00075 12.2236 0.00075 13.0043V14.5231C0.00075 14.5433 0.01275 14.5591 0.02775 14.5621L0.02325 14.5658ZM16.023 14.016H21.7658C21.7808 14.016 21.7965 14.0273 21.7965 14.0393V14.5231C21.7965 14.5471 21.8115 14.5591 21.8273 14.5591H22.8622C22.8825 14.5591 22.9012 14.5471 22.9012 14.5231V14.0468C22.9012 14.0266 22.9215 14.0115 22.9403 14.0115H23.9685C23.9918 14.0115 24.0037 13.9913 24.0037 13.9763V13.4911C24.0037 13.4723 23.9955 13.4521 23.9685 13.4521H22.9403C22.9215 13.4521 22.9012 13.4371 22.9012 13.4213V9.9563C22.9012 9.67505 22.8 9.49505 22.62 9.43355H22.323C22.2292 9.46055 22.128 9.5033 22.0192 9.56555L15.8392 13.3823C15.597 13.5346 15.5153 13.7026 15.573 13.8271C15.6202 13.9328 15.7613 14.0108 16.026 14.0108L16.023 14.016ZM16.9222 13.3793L21.711 10.4146C21.7418 10.3913 21.801 10.3988 21.801 10.4656V13.4266C21.801 13.4453 21.7852 13.4618 21.7703 13.4618H16.9493C16.9103 13.4618 16.8915 13.4498 16.887 13.4385C16.8787 13.4145 16.8907 13.3958 16.9222 13.3793Z" fill="black"/>
</g>
<defs>
<clipPath id="clip0_201_58262">
<rect width="24" height="24" fill="white"/>
</clipPath>
</defs>
</svg>
