<svg width="24" height="24" viewBox="0 0 24 24" fill="none" xmlns="http://www.w3.org/2000/svg">
<g clip-path="url(#clip0_201_58338)">
<path d="M12.0038 0.0585327C8.8238 0.0705327 5.7773 1.32828 3.51905 3.56253V3.56628C1.29605 5.78928 0.00305176 8.88678 0.00305176 12.0308C0.00305176 15.1718 1.28855 18.273 3.51905 20.4953C5.78105 22.7258 8.8238 23.9835 11.9993 24.003H12.0031C15.1516 24.003 18.2573 22.7175 20.4833 20.4915H20.4871C22.7251 18.2415 23.9873 15.2063 24.0023 12.0345V12.0308C24.0023 8.88978 22.7168 5.78853 20.4826 3.56628C18.2251 1.33203 15.1816 0.0705327 12.0023 0.0585327H12.0038ZM12.0038 1.39428C12.4846 1.39428 12.9646 1.44153 13.4371 1.50753C11.4098 2.07378 9.67505 3.12828 7.8863 3.45678C7.1483 3.58578 6.3983 3.60153 5.65955 3.50403C7.48355 2.16453 9.7418 1.39428 12.0031 1.39428H12.0038ZM16.1408 2.46903C16.3126 2.46903 16.4888 2.47653 16.6606 2.48853C17.7271 3.00003 18.7036 3.68403 19.5436 4.51203C19.6373 4.60203 19.7153 4.70703 19.8053 4.80078C18.4343 5.52378 16.9148 5.92578 15.3638 5.98053C12.9338 6.03903 10.4071 5.18328 7.67255 5.15628C6.1883 5.14428 4.71155 5.39853 3.3128 5.89878C3.63305 5.44203 3.9848 5.00778 4.37105 4.60578C5.5973 4.92978 6.8708 4.99653 8.12105 4.77003C10.3868 4.35978 12.2581 3.14478 14.1721 2.69178C14.8163 2.53953 15.4771 2.46528 16.1408 2.46903ZM20.6761 5.87103C21.2858 6.73803 21.7696 7.68753 22.1056 8.69553C21.6721 8.45328 21.2228 8.23428 20.7578 8.05128C18.6481 7.22703 16.3441 7.05903 14.1368 7.55928H14.1331C12.6451 7.90278 11.2936 8.52828 9.98105 9.08253C9.5123 9.28203 9.0473 9.46503 8.57855 9.63753C8.10605 9.51678 7.62155 9.43053 7.13705 9.37953H7.1333C5.7113 9.24678 4.27805 9.43428 2.9378 9.93003C2.5118 9.78528 2.09405 9.60603 1.6958 9.39453C1.8323 8.86353 2.00855 8.34003 2.2268 7.83603C3.8948 6.96078 5.7773 6.47253 7.6568 6.49203C10.1018 6.51903 12.6488 7.38303 15.3953 7.31253H15.3991C17.2471 7.25778 19.0553 6.76578 20.6761 5.87103ZM16.6448 8.61303C17.8756 8.61303 19.1056 8.84328 20.2696 9.29628C21.0818 9.61653 21.8513 10.05 22.5511 10.5735C22.5863 10.8278 22.6133 11.0775 22.6328 11.3355C21.8986 11.148 21.1448 11.0348 20.3903 11.007C19.3081 10.9643 18.2266 11.0888 17.1871 11.3858C16.4918 11.5853 15.8356 11.847 15.1988 12.1433C14.1128 11.772 13.0306 11.2838 11.9213 10.8075C11.4841 10.62 11.0423 10.44 10.5968 10.2683C11.8973 9.71778 13.1513 9.15528 14.4331 8.85828C15.1561 8.69403 15.8978 8.61228 16.6403 8.61228L16.6448 8.61303ZM5.8793 10.6755C6.25055 10.6598 6.6293 10.6718 7.0043 10.707C8.4773 10.8555 9.93755 11.4105 11.3948 12.0353C12.1133 12.348 12.8483 12.66 13.5983 12.9653C12.4966 13.5705 11.4421 14.1915 10.3598 14.6648C9.3128 14.274 8.23055 13.9073 7.05905 13.7468C5.22305 13.497 3.3443 13.809 1.67255 14.5748C1.4813 13.8248 1.3718 13.0515 1.3523 12.2775C1.7543 11.9768 2.1803 11.7075 2.6333 11.4848C3.6488 10.9965 4.75055 10.7228 5.8793 10.6763V10.6755ZM20.3401 12.3435C21.1133 12.3705 21.8873 12.504 22.6291 12.7223C22.5863 13.359 22.4843 13.992 22.3246 14.613C21.6563 15.0548 20.9416 15.4215 20.1878 15.6953C18.3593 16.3515 16.3366 16.4843 14.4376 16.0665C13.6561 15.8985 12.8791 15.6173 12.0976 15.3165C13.9846 14.3438 15.6953 13.1993 17.5546 12.672C18.4606 12.4178 19.3981 12.3045 20.3401 12.3435ZM5.50805 15.0075C5.9648 14.988 6.42605 15.0113 6.87905 15.0698C9.2303 15.3938 11.4923 16.7888 14.1526 17.3708C14.5081 17.4488 14.8673 17.5073 15.2311 17.5508C14.8793 17.652 14.5321 17.7615 14.1878 17.883V17.8868C12.9023 18.348 11.7308 18.9255 10.5511 19.2735C8.39855 19.8983 6.1058 19.8128 4.00805 19.0433C3.1838 18.102 2.5313 17.0273 2.0783 15.8633C3.1523 15.3435 4.3208 15.051 5.50805 15.0075ZM21.6526 16.5075C21.5858 16.6523 21.5198 16.7963 21.4456 16.9373C21.2228 16.9215 21.0038 16.8983 20.7818 16.89C21.0788 16.7768 21.3638 16.6403 21.6526 16.5075ZM19.9531 18.2108C20.1833 18.207 20.4143 18.2145 20.6483 18.2265C20.3161 18.6915 19.9531 19.137 19.5428 19.551H19.5391C17.5741 21.516 14.7848 22.6643 12.0076 22.6643C9.9488 22.6523 7.94105 22.0545 6.21455 20.9378C7.7813 21.129 9.3863 21.0045 10.9216 20.559H10.9253C12.2573 20.1645 13.4528 19.5705 14.6363 19.1453C16.3433 18.5355 18.1403 18.2198 19.9486 18.2115L19.9531 18.2108Z" fill="black"/>
</g>
<defs>
<clipPath id="clip0_201_58338">
<rect width="24" height="24" fill="white"/>
</clipPath>
</defs>
</svg>
