<svg width="24" height="24" viewBox="0 0 24 24" fill="none" xmlns="http://www.w3.org/2000/svg">
<g clip-path="url(#clip0_201_58518)">
<path d="M17.211 6.69525C17.1758 6.42225 17.211 6.102 17.211 6.102V6.09375C17.352 5.379 17.9797 4.83975 18.7342 4.83975C18.738 4.83975 18.7425 4.83975 18.7463 4.83975H18.75C19.6087 4.83975 20.3092 5.53875 20.3092 6.3945C20.3092 7.25325 19.6095 7.95225 18.75 7.95225C18.7463 7.95225 18.7418 7.9485 18.7418 7.9485H18.7335C17.9918 7.9485 17.3542 7.42575 17.2103 6.6945L17.211 6.69525ZM24 1.539V22.461C24 23.3123 23.355 24 22.5592 24H1.44525C0.648 24 0 23.3123 0 22.461V1.539C0 0.69075 0.648 0 1.44525 0H22.5592C23.355 0 24 0.69075 24 1.539ZM21.6952 17.547C21.6952 15.9097 20.3715 14.586 18.7342 14.586C17.418 14.586 16.2585 15.453 15.891 16.719H14.133L11.391 11.9963L11.3947 11.9925L14.1285 7.2855H15.8783C16.335 8.85525 17.979 9.75825 19.5502 9.3015C21.12 8.84475 22.026 7.19925 21.5655 5.6295C21.1087 4.05975 19.4648 3.15675 17.8942 3.6135C16.9215 3.8955 16.1595 4.65675 15.8783 5.6295H13.2142L13.1873 5.61375L9.96 11.1645L9.933 11.2072H8.019C7.56075 9.6375 5.913 8.7345 4.34325 9.19125C2.772 9.648 1.8705 11.2935 2.32725 12.8632C2.784 14.4345 4.4295 15.3405 5.99925 14.883C6.972 14.598 7.73325 13.836 8.019 12.8632H9.97875L13.1865 18.3832L13.2015 18.375H15.8895C16.2563 19.641 17.4165 20.508 18.7327 20.508C20.37 20.508 21.6937 19.1842 21.6937 17.547H21.6952ZM18.7658 15.93C18.0195 15.93 17.3827 16.4528 17.238 17.184C17.2342 17.211 17.2342 17.238 17.2297 17.2658C17.2267 17.2845 17.2148 17.2965 17.211 17.3115C17.172 17.6123 17.211 17.9137 17.211 17.9137C17.3873 18.7575 18.207 19.2967 19.0507 19.125C19.6207 19.008 20.055 18.5738 20.2147 18.0353C20.277 17.8635 20.316 17.6805 20.316 17.484C20.316 16.6252 19.6208 15.93 18.7658 15.93ZM5.199 10.4183C4.344 10.4183 3.645 11.1135 3.645 11.973C3.645 11.9797 3.645 11.9843 3.645 11.9918C3.645 11.9955 3.645 11.9955 3.645 12C3.645 12.855 4.34025 13.5472 5.19075 13.5472C5.73375 13.5472 6.207 13.2705 6.48375 12.852C6.6555 12.6023 6.7575 12.3007 6.7575 11.9767C6.7575 11.1128 6.0585 10.4175 5.19825 10.4175L5.199 10.4183Z" fill="black"/>
</g>
<defs>
<clipPath id="clip0_201_58518">
<rect width="24" height="24" fill="white"/>
</clipPath>
</defs>
</svg>
