<svg width="24" height="24" viewBox="0 0 24 24" fill="none" xmlns="http://www.w3.org/2000/svg">
<path d="M15.0697 13.6327C15.0697 15.3277 13.695 16.7025 12 16.7025C10.305 16.7025 8.93025 15.3277 8.93025 13.6327C8.93025 9.53847 15.0705 9.53847 15.0705 13.6327H15.0697ZM12 1.85472C17.3587 1.89747 23.4533 5.67597 24 12.7965H16.7423C16.7423 12.7965 15.8092 8.86272 12 8.89047C8.19075 8.91372 7.25775 12.7965 7.25775 12.7965H0C0.35175 5.80047 6.34425 1.81122 12 1.85472ZM12.051 22.1452C8.055 22.1565 4.32 19.1415 2.78925 14.469H7.2585C7.2585 14.469 8.21925 18.3592 12.0278 18.3322C15.8408 18.309 16.7467 14.469 16.7467 14.469H21.2115C20.2155 19.41 16.0478 22.1332 12.0518 22.1452H12.051Z" fill="black"/>
</svg>
