<svg width="24" height="24" viewBox="0 0 24 24" fill="none" xmlns="http://www.w3.org/2000/svg">
<g clip-path="url(#clip0_201_57848)">
<path d="M4.14448 23.9962C4.26523 23.5312 4.37474 23.0977 4.48799 22.6567C5.17949 19.9455 5.80799 17.2192 6.30824 14.4615C6.55423 13.11 6.75374 11.7502 6.94124 10.3875C7.08223 9.35997 7.15574 8.32497 7.14073 7.28172C7.12874 6.72672 7.10548 6.16422 6.94573 5.62947C6.87523 5.38722 6.77398 5.15322 6.64498 4.94172C6.48073 4.66797 6.21524 4.56297 5.89499 4.57422C5.01224 4.59747 4.26224 4.93722 3.62548 5.53122C2.89874 6.21447 2.42248 7.05822 2.07073 7.97622C1.90648 8.41347 1.78573 8.86272 1.64848 9.30822C1.62898 9.37497 1.62148 9.42897 1.53523 9.42897C1.03948 9.42522 0.546735 9.42522 0.0509849 9.42522C0.0352349 9.42522 0.0277349 9.41322 0.0157349 9.41322C0.0157349 9.22197 -0.00751506 9.02622 0.0157349 8.84322C0.363735 5.98797 1.58624 3.57372 3.68399 1.61697C4.46923 0.882724 5.39848 0.371224 6.46124 0.140224C8.01598 -0.195776 9.25799 0.398224 9.99674 1.82022C10.3717 2.54322 10.575 3.31647 10.7077 4.11297C10.9147 5.40222 10.9267 6.69897 10.8832 7.99947C10.8675 8.42172 10.8405 8.83947 10.821 9.26097C10.8172 9.31197 10.821 9.36672 10.821 9.43647C10.8757 9.43647 10.9267 9.44397 10.9732 9.44397C11.8792 9.44397 12.7815 9.44022 13.692 9.44772C13.8127 9.44772 13.8525 9.40047 13.872 9.28722C14.4465 6.17397 15.2392 3.11547 16.263 0.119224C16.2862 0.0487241 16.3102 -0.00152588 16.4077 -0.00152588C17.529 0.00222412 18.6502 0.00222412 19.7707 0.00222412C19.7865 0.00222412 19.806 0.00597412 19.8412 0.00972412L19.6462 0.763474C18.8925 3.69672 18.213 6.64647 17.6617 9.62697C17.373 11.1742 17.1307 12.7245 16.9702 14.2912C16.884 15.1665 16.8292 16.041 16.857 16.92C16.8727 17.451 16.9117 17.9827 17.0797 18.4905C17.142 18.6937 17.2402 18.8887 17.3535 19.0687C17.5177 19.3305 17.7795 19.4362 18.0915 19.428C19.2517 19.3927 20.1345 18.8385 20.8372 17.955C21.5445 17.076 21.9697 16.0567 22.2705 14.9745C22.2975 14.877 22.329 14.775 22.3485 14.67C22.3605 14.5882 22.3995 14.5642 22.4775 14.5642C22.9425 14.568 23.4112 14.568 23.8762 14.5642C23.9775 14.5642 23.997 14.607 23.9932 14.697C23.9812 15.5017 23.8372 16.2787 23.6025 17.0445C23.013 18.9705 22.0477 20.6775 20.61 22.1032C19.7977 22.9117 18.8482 23.5095 17.7307 23.8102C17.055 23.9902 16.3755 24.021 15.7072 23.7787C14.9452 23.5095 14.43 22.9665 14.0467 22.275C13.6447 21.552 13.4332 20.763 13.2967 19.9545C13.0545 18.5482 13.0545 17.13 13.125 15.7125C13.164 14.8215 13.2502 13.935 13.3162 13.0485C13.332 12.8572 13.332 12.8572 13.1445 12.8572C12.2887 12.8572 11.4337 12.8572 10.578 12.8535C10.4722 12.8535 10.4257 12.8805 10.4062 12.99C10.137 14.8065 9.76948 16.5997 9.33224 18.381C8.87924 20.2207 8.35948 22.0447 7.74599 23.838C7.70324 23.967 7.64024 23.9985 7.51124 23.9985C6.44849 23.9947 5.38199 23.9947 4.31624 23.9947L4.14448 23.9962Z" fill="black"/>
</g>
<defs>
<clipPath id="clip0_201_57848">
<rect width="24" height="24" fill="white"/>
</clipPath>
</defs>
</svg>
