<svg width="24" height="24" viewBox="0 0 24 24" fill="none" xmlns="http://www.w3.org/2000/svg">
<g clip-path="url(#clip0_201_58540)">
<path d="M17.2973 10.5547C17.2268 10.5547 17.1608 10.5352 17.1023 10.5L15.5753 9.60525C15.4545 9.5385 15.384 9.41025 15.384 9.273V7.5075C15.384 7.371 15.4545 7.242 15.5753 7.1715L17.1105 6.285C17.2275 6.21825 17.376 6.21825 17.493 6.285L19.032 7.16775C19.1528 7.2345 19.227 7.36275 19.227 7.50375V9.28125C19.227 9.42225 19.1528 9.54675 19.0358 9.61725L17.5005 10.5037C17.4383 10.539 17.3678 10.5547 17.2973 10.5547ZM16.1565 9.051L17.301 9.723L18.4493 9.05925V7.72725L17.301 7.06725L16.149 7.731L16.1565 9.051ZM5.25376 13.5472C4.84726 13.5547 4.69876 13.0117 5.05876 12.8167L6.40276 12.0435C6.59026 11.9145 6.84452 11.973 6.95777 12.1687C7.07101 12.3645 6.99302 12.6142 6.78976 12.7117L5.44576 13.4887C5.38726 13.524 5.32051 13.5435 5.25451 13.5472H5.25376ZM4.96126 15.8865C4.55101 15.9022 4.40626 15.3472 4.77001 15.1597L7.34852 13.683C7.53602 13.5577 7.78576 13.6162 7.89901 13.812C8.01226 14.0077 7.93426 14.2537 7.73101 14.3512L5.14876 15.8355C5.09026 15.867 5.02801 15.8827 4.96126 15.8865ZM5.37901 17.8125C4.97251 17.8162 4.83226 17.277 5.18776 17.0857L8.30476 15.3397C8.49226 15.2145 8.74651 15.2775 8.85526 15.4725C8.96476 15.672 8.88676 15.918 8.68351 16.0155L5.57026 17.7577C5.51176 17.793 5.44501 17.8125 5.37901 17.8125ZM12.957 1.98825L11.043 0.827996L1.37476 6.4215L1.39426 8.019L5.05051 10.1287L7.44076 8.76525L7.96052 6.222C7.98377 6.1125 8.05051 6.01875 8.14802 5.964L16.5623 1.1205C16.683 1.05 16.8278 1.05 16.9493 1.1205L23.2268 4.7535C23.3475 4.824 23.4218 4.9485 23.4218 5.0895L23.4098 12.3547C23.4098 12.4957 23.3355 12.624 23.2148 12.6907L14.8905 17.472C14.8005 17.523 14.691 17.5387 14.5935 17.5072L12.066 16.7962L9.69901 18.171V22.3702L11.082 23.1712L20.7503 17.5777V15.3277L21.5198 14.8237V17.7967C21.5198 17.9377 21.4493 18.0622 21.3285 18.1327L11.2778 23.949C11.157 24.0195 11.0085 24.0195 10.8908 23.949L9.11701 22.9297C8.99626 22.863 8.92201 22.7347 8.92201 22.5975V17.9527C8.92201 17.8162 8.99626 17.691 9.11327 17.6205L11.8163 16.05C11.9063 15.9952 12.0158 15.9795 12.117 16.011L14.6483 16.7257L22.644 12.1395L22.656 5.319L16.7618 1.90875L8.69176 6.561L8.16451 9.0885C8.14501 9.198 8.07451 9.29175 7.98076 9.3465L5.25451 10.9132C5.13376 10.9837 4.98526 10.9837 4.86751 10.9132L0.824265 8.589C0.707265 8.52225 0.633015 8.39775 0.633015 8.2605L0.601515 6.2055C0.597765 6.0645 0.672015 5.93625 0.792765 5.86575L10.8555 0.0532461C10.9763 -0.0210039 11.1248 -0.0210039 11.2463 0.0532461L13.719 1.55325L12.957 1.98825Z" fill="black"/>
</g>
<defs>
<clipPath id="clip0_201_58540">
<rect width="24" height="24" fill="white"/>
</clipPath>
</defs>
</svg>
