<svg width="24" height="24" viewBox="0 0 24 24" fill="none" xmlns="http://www.w3.org/2000/svg">
<g clip-path="url(#clip0_201_57142)">
<path d="M7.434 12.2498C7.35525 12.273 7.28475 12.3195 7.23375 12.387C7.1835 12.4568 7.1595 12.543 7.164 12.6293C7.164 12.7815 7.19925 12.8835 7.281 12.9382C7.359 12.9922 7.47675 13.02 7.63725 13.02C7.7235 13.02 7.809 12.9998 7.89825 12.9608C7.98825 12.9218 8.0745 12.8625 8.145 12.7965V12.1365C7.977 12.1477 7.83975 12.1635 7.73775 12.1793C7.63275 12.1905 7.53075 12.2145 7.434 12.249V12.2498ZM12 0L0 12L12 24L24 12L12 0ZM12 19.3552C7.938 19.3552 4.64475 16.062 4.64475 12C4.64475 7.938 7.938 4.64475 12 4.641C16.062 4.64475 19.3552 7.938 19.3552 12C19.3552 16.062 16.062 19.3552 12 19.3552ZM12 5.379C8.34825 5.379 5.379 8.34375 5.379 12C5.379 15.6517 8.34825 18.6173 12 18.6173C15.6517 18.6173 18.621 15.6525 18.621 12C18.621 8.34375 15.6562 5.379 12 5.37525V5.379ZM9.13725 13.6207H8.145V13.2847L7.96125 13.4408C7.82025 13.551 7.656 13.629 7.48425 13.6755C7.4025 13.6942 7.281 13.7108 7.13325 13.7108C6.8715 13.7145 6.61725 13.6125 6.43425 13.4257C6.246 13.2337 6.156 12.996 6.156 12.7065C6.156 12.4688 6.20325 12.2805 6.297 12.1327C6.39825 11.9835 6.53475 11.8628 6.70275 11.7847C6.906 11.6947 7.125 11.6325 7.34775 11.6047C7.5975 11.574 7.863 11.547 8.15175 11.5268V11.5118C8.15175 11.3355 8.08575 11.2148 7.953 11.148C7.824 11.0782 7.63275 11.0468 7.37475 11.0468C7.25775 11.0468 7.1205 11.0655 6.9645 11.109C6.8085 11.1525 6.6555 11.211 6.50775 11.2733H6.4215V10.5045C6.51525 10.4738 6.67575 10.4415 6.89775 10.4025C7.11675 10.3635 7.3395 10.3448 7.5615 10.3448C8.11275 10.3448 8.51175 10.4347 8.7615 10.6178C9.01125 10.8015 9.1365 11.0828 9.1365 11.4578V13.626L9.13725 13.6207ZM12.3593 13.4573C12.2895 13.4843 12.2235 13.512 12.156 13.5435C12.0863 13.5705 12.0082 13.6028 11.9303 13.6215C11.8365 13.6455 11.742 13.6643 11.6565 13.6845C11.5747 13.6958 11.4615 13.7032 11.3205 13.7032C11.0595 13.7032 10.8165 13.6725 10.5982 13.605C10.3912 13.5427 10.191 13.4377 10.0275 13.2968C9.86775 13.1558 9.73875 12.9765 9.65625 12.777C9.56625 12.5662 9.5205 12.3202 9.5205 12.039C9.51225 11.7697 9.5625 11.5042 9.66825 11.2582C9.75825 11.055 9.891 10.875 10.059 10.7303C10.2232 10.5945 10.4137 10.4963 10.617 10.4385C10.8398 10.3717 11.0662 10.3448 11.2928 10.3448C11.664 10.3448 12.027 10.431 12.3547 10.599V11.454H12.2265C12.1792 11.4113 12.1328 11.3677 12.0773 11.3287C12.0195 11.2815 11.9565 11.2387 11.8905 11.2035C11.7262 11.1052 11.5343 11.0595 11.3438 11.0625C11.0895 11.0625 10.8907 11.1488 10.7535 11.3243C10.6125 11.5042 10.5428 11.7382 10.5428 12.039C10.5428 12.3593 10.617 12.5977 10.7655 12.7537C10.9178 12.9097 11.1128 12.9877 11.3588 12.9877C11.469 12.9877 11.5815 12.9765 11.688 12.945C11.844 12.9023 11.9842 12.828 12.105 12.723C12.1522 12.684 12.1912 12.6412 12.2272 12.6127H12.3555V13.4528L12.3593 13.4573ZM16.6912 13.629V12.0308C16.6912 11.8748 16.6912 11.742 16.6845 11.637C16.6845 11.547 16.6642 11.4532 16.6335 11.3708C16.6095 11.3048 16.5623 11.2537 16.5045 11.223C16.3485 11.1562 16.1768 11.16 16.0238 11.223C15.939 11.2657 15.8558 11.3123 15.7815 11.3632V13.629H14.7855V12.0308C14.7855 11.8748 14.7855 11.7457 14.7772 11.637C14.7735 11.547 14.7585 11.457 14.727 11.3708C14.6993 11.3048 14.652 11.2537 14.5897 11.223C14.5305 11.1877 14.445 11.1757 14.34 11.1757C14.2583 11.1757 14.1757 11.1945 14.1022 11.2297C14.0235 11.2695 13.9493 11.316 13.8713 11.367V13.629H12.879V10.4408H13.8713V10.797C14.016 10.6718 14.1683 10.5623 14.3325 10.473C14.4803 10.395 14.6452 10.3523 14.8162 10.3523C14.9962 10.3485 15.1762 10.398 15.3285 10.4925C15.4808 10.5945 15.5985 10.7385 15.6683 10.9065C15.8595 10.7302 16.0395 10.5945 16.2113 10.4963C16.3792 10.4025 16.551 10.3523 16.7235 10.3523C16.8593 10.3523 16.9928 10.3755 17.1217 10.4265C17.235 10.4738 17.3407 10.5435 17.4225 10.6372C17.5125 10.7422 17.5785 10.8675 17.6213 11.0002C17.664 11.145 17.688 11.328 17.688 11.5553V13.629H16.6912Z" fill="black"/>
</g>
<defs>
<clipPath id="clip0_201_57142">
<rect width="24" height="24" fill="white"/>
</clipPath>
</defs>
</svg>
