<svg width="24" height="24" viewBox="0 0 24 24" fill="none" xmlns="http://www.w3.org/2000/svg">
<g clip-path="url(#clip0_201_58094)">
<path d="M6.90975 0C3.09375 0 0 3.09375 0 6.90975V24H17.0903C20.9062 24 24 20.9062 24 17.0903V0H6.90975ZM17.0228 2.59425C17.5898 2.59425 18.0465 5.0985 18.0465 5.664C18.0653 6.24225 17.6018 6.71925 17.0228 6.71925C16.4445 6.71925 15.9795 6.24225 15.9998 5.664C15.9998 5.09775 16.461 2.59425 17.0228 2.59425ZM14.4097 5.496C15.102 5.688 16.4918 9.27 18.0465 7.71525C19.4955 6.26625 20.0978 14.8793 20.0978 14.8793L18.0465 13.8555C18.0465 13.8555 18.0465 11.8095 14.9767 9.76275C11.1675 7.2195 6.7845 8.89575 6.7845 12.8287C6.7845 20.8635 20.0978 17.9498 20.0978 17.9498C20.0978 17.9498 20.094 19.9965 18.0465 19.9965H5.76525C3.7185 19.9965 3.714 17.9498 3.714 17.9498V7.716C3.714 5.66475 5.76525 5.66475 5.76525 5.66475H9.858C11.9047 5.66475 13.9523 7.716 13.9523 7.716C13.9523 6.22425 14.0693 5.61375 14.28 5.50875C14.3228 5.4885 14.3663 5.48475 14.409 5.49675L14.4097 5.496Z" fill="black"/>
</g>
<defs>
<clipPath id="clip0_201_58094">
<rect width="24" height="24" fill="white"/>
</clipPath>
</defs>
</svg>
