<svg width="24" height="24" viewBox="0 0 24 24" fill="none" xmlns="http://www.w3.org/2000/svg">
<g clip-path="url(#clip0_201_57400)">
<path d="M23.2732 5.26581C23.2732 4.41456 23.1442 3.56256 22.914 2.71131C22.5855 1.69581 21.8355 0.875307 20.883 0.516057C18.9105 -0.171693 16.7655 -0.171693 14.793 0.516057C13.7932 0.864057 13.0312 1.68381 12.762 2.71131C12.3052 4.37181 12.3052 6.12531 12.762 7.78581C13.0905 8.80131 13.8442 9.62181 14.793 9.98106C15.7657 10.3403 16.8007 10.5083 17.8402 10.4731C18.8872 10.4731 19.9027 10.2781 20.883 9.98106C21.8872 9.63306 22.6485 8.81331 22.914 7.78581C23.1442 6.96906 23.2732 6.11781 23.2732 5.26656V5.26581ZM19.9687 5.26581C19.9687 5.65656 19.902 6.11706 19.7692 6.47706C19.605 7.00056 19.1482 7.42656 18.5895 7.55931C18.0697 7.65681 17.5387 7.65681 17.019 7.55931C16.449 7.46181 15.984 7.03956 15.8392 6.47706C15.5775 5.66856 15.5775 4.79706 15.8392 3.98856C16.0035 3.46506 16.4602 3.03906 17.019 2.90631C17.5387 2.80881 18.0697 2.80881 18.5895 2.90631C19.164 3.00381 19.6245 3.42606 19.7692 3.98856C19.902 4.44531 19.9687 4.87131 19.9687 5.26581ZM11.223 19.0546C11.6797 17.3941 11.6797 15.6406 11.223 13.9763C10.8945 12.9608 10.1407 12.1441 9.19197 11.7811C7.21947 11.0933 5.07447 11.0933 3.10197 11.7811C2.09772 12.1291 1.33647 12.9533 1.07097 13.9763C0.609722 15.6406 0.609722 17.3941 1.07097 19.0546C1.39947 20.0701 2.14947 20.8906 3.10197 21.2461C5.07447 21.9376 7.21947 21.9376 9.19197 21.2461C10.1722 20.8711 10.9222 20.0626 11.223 19.0546ZM8.27322 16.5316C8.27322 16.9261 8.20647 17.3828 8.07822 17.7428C7.89822 18.2858 7.45347 18.6923 6.89847 18.8251C6.37872 18.9226 5.84397 18.9226 5.32422 18.8251C4.75422 18.7276 4.29297 18.3053 4.14822 17.7428C3.88647 16.9343 3.88647 16.0628 4.14822 15.2543C4.32372 14.7151 4.77297 14.3048 5.32422 14.1758C5.84397 14.0746 6.37872 14.0746 6.89847 14.1758C7.46847 14.2733 7.92972 14.6956 8.07822 15.2543C8.20722 15.6803 8.27322 16.1056 8.27322 16.5316ZM8.27322 5.23056H11.5815C11.5815 4.38306 11.4487 3.52731 11.2222 2.71131C10.8937 1.69581 10.14 0.879057 9.19122 0.516057C7.21872 -0.171693 5.07372 -0.171693 3.10122 0.516057C2.08572 0.910557 1.33197 1.72731 1.06572 2.74281C0.608972 4.40706 0.608972 6.16056 1.06572 7.82106C1.39422 8.83656 2.14797 9.65331 3.09672 10.0163C4.08147 10.3756 5.09697 10.5083 6.14397 10.5083C7.19097 10.5083 8.20647 10.3088 9.19122 10.0163C10.191 9.66831 10.953 8.84406 11.2222 7.82106C11.2537 7.68831 11.2845 7.52406 11.3512 7.39506L8.24172 5.95356C8.20647 6.14856 8.17497 6.31281 8.10897 6.51231C7.94472 7.03581 7.48797 7.46181 6.92922 7.59081C6.40947 7.68831 5.87847 7.68831 5.35872 7.59081C4.78872 7.49331 4.32747 7.07106 4.17897 6.51231C3.91722 5.70006 3.91722 4.82856 4.17897 4.02006C4.34322 3.49656 4.79997 3.07056 5.35872 2.93781C5.87847 2.84031 6.40947 2.84031 6.92922 2.93781C7.50372 3.03531 7.96422 3.46131 8.10897 4.02006C8.20647 4.44606 8.27322 4.84056 8.27322 5.23131V5.23056ZM12.6952 14.0116C12.4567 14.8433 12.336 15.7028 12.336 16.5661V23.9993H15.6442V16.5308C15.6442 16.1401 15.7065 15.6796 15.8392 15.3196C16.0035 14.7961 16.4602 14.3701 17.019 14.2373C17.5387 14.1398 18.0697 14.1398 18.5895 14.2373C19.1595 14.3348 19.6207 14.7571 19.7692 15.3196C20.031 16.1281 20.031 16.9996 19.7692 17.8081C19.605 18.3316 19.1482 18.7576 18.6247 18.8903C18.105 18.9878 17.5702 18.9878 17.0505 18.8903C16.953 18.8588 16.824 18.8236 16.7265 18.7891L17.8395 21.8708C18.8865 21.8708 19.902 21.6713 20.8822 21.3788C21.882 21.0308 22.644 20.2111 22.9132 19.1836C23.37 17.5231 23.37 15.7696 22.9132 14.1091C22.5847 13.0936 21.8347 12.2731 20.8822 11.9138C18.9097 11.2261 16.7647 11.2261 14.7922 11.9138C13.7767 12.1756 13.023 12.9961 12.6945 14.0116H12.6952Z" fill="black"/>
</g>
<defs>
<clipPath id="clip0_201_57400">
<rect width="24" height="24" fill="white"/>
</clipPath>
</defs>
</svg>
