<svg width="24" height="24" viewBox="0 0 24 24" fill="none" xmlns="http://www.w3.org/2000/svg">
<g clip-path="url(#clip0_201_58550)">
<path d="M23.5732 12.4688V15.7358C23.5732 18.6465 21.2153 21.0045 18.3045 21.0045C15.4073 21.0045 13.0358 18.6698 13.0358 15.7875V12.4973L14.6437 13.2473L17.0392 12.5347V15.8445C17.0392 16.5338 17.6017 17.0865 18.291 17.0865C18.9803 17.0865 19.5472 16.533 19.5472 15.8445V12.4695L23.5732 12.4688ZM13.0402 9.741L14.6483 10.491L17.0438 9.7785V8.10975C17.0438 5.274 14.6482 3 11.7892 3C8.93925 3 6.53475 5.259 6.53475 8.0715V15.684C6.53475 16.3823 5.97225 16.9358 5.283 16.9358C4.59375 16.9358 4.03125 16.3823 4.03125 15.684V12.468H0V15.735C0 18.6413 2.358 20.9993 5.26875 20.9993C8.15625 20.9993 10.5375 18.6788 10.5375 15.8055V8.29125C10.5375 7.602 11.1 7.0395 11.7892 7.0395C12.4785 7.0395 13.041 7.602 13.041 8.29125L13.0402 9.741Z" fill="black"/>
</g>
<defs>
<clipPath id="clip0_201_58550">
<rect width="24" height="24" fill="white"/>
</clipPath>
</defs>
</svg>
