<svg width="24" height="24" viewBox="0 0 24 24" fill="none" xmlns="http://www.w3.org/2000/svg">
<path d="M12.966 10.8937C12.966 11.292 12.7665 11.8545 11.9655 11.8545H11.046V9.9105H11.9655C12.7688 9.9105 12.966 10.4895 12.966 10.8937ZM22.5 1.5V22.5H1.5V1.5H22.5ZM8.592 13.4925C8.592 12.4972 8.0235 11.8733 6.402 11.3903C5.43825 11.043 5.18325 10.8787 5.18325 10.5173C5.18325 10.1558 5.51175 9.8325 6.14025 9.8325C6.801 9.8325 7.11525 10.2285 7.11525 10.6927H8.5545L8.5635 10.6657C8.58675 9.7485 7.85775 8.7135 6.16725 8.7135C5.0715 8.7135 3.70425 9.2175 3.70425 10.5082C3.70425 11.4172 4.13775 11.9753 6.0825 12.588C6.89175 12.876 7.10925 13.0755 7.10925 13.5015C7.10925 14.214 6.21225 14.1683 6.1965 14.1683C5.24025 14.1683 4.99425 13.7415 4.99425 13.1415H3.5505L3.54225 13.1677C3.51 14.6355 4.87275 15.2872 6.1965 15.2872C7.602 15.2872 8.59275 14.652 8.59275 13.4925H8.592ZM14.4697 10.8847C14.4697 9.699 13.6058 8.754 11.9655 8.754H9.5385V15.231H11.0468V13.011H11.9662C13.3845 13.011 14.4705 12.2632 14.4705 10.8847H14.4697ZM15.4657 15.2347L17.7653 8.7555H16.308L14.0625 15.2347H15.4657ZM20.4592 8.7555H19.002L16.7565 15.2347H18.1597L20.4592 8.7555Z" fill="black"/>
</svg>
