<svg width="24" height="24" viewBox="0 0 24 24" fill="none" xmlns="http://www.w3.org/2000/svg">
<path d="M24 20.754V14.445C20.715 15.7417 16.6372 17.004 11.7697 18.234C7.23375 19.3792 3.312 20.2027 0 20.7067V20.754H24ZM0 14.0782V19.2112C3.738 18.66 7.11675 18.0045 10.1287 17.2425C13.0935 16.4962 15.375 15.7702 16.977 15.0622C18.5782 14.3595 19.3162 13.7662 19.1947 13.2855C19.0898 12.8632 18.3517 12.6487 16.98 12.6412C16.2773 12.648 15.309 12.699 14.0737 12.789C12.84 12.879 11.301 13.023 9.465 13.215C6.61725 13.5202 4.25025 13.7542 2.367 13.9102C1.46925 13.9845 0.68025 14.0392 0 14.0782H0ZM1.035 17.0272C1.09425 17.0272 1.14825 17.055 1.19475 17.0985C1.242 17.1457 1.266 17.1997 1.266 17.2665C1.266 17.3287 1.242 17.3835 1.19475 17.4345C1.1475 17.4772 1.08975 17.4967 1.0305 17.4967C0.99975 17.4967 0.96825 17.493 0.9375 17.481C0.90975 17.4697 0.8865 17.4502 0.8625 17.4307C0.83925 17.415 0.8235 17.388 0.8115 17.3557C0.8115 17.3407 0.7965 17.313 0.7965 17.2665C0.7965 17.2072 0.82725 17.1457 0.87075 17.1022C0.918 17.055 0.9765 17.0392 1.0545 17.0392L1.035 17.0272ZM1.84425 17.0272C1.9065 17.0272 1.96125 17.055 2.01225 17.0985C2.055 17.1457 2.0745 17.1997 2.0745 17.2665C2.0745 17.3287 2.05575 17.3835 2.0085 17.4345C1.94925 17.4772 1.90275 17.4967 1.8285 17.4967C1.8015 17.4967 1.77075 17.493 1.7385 17.481C1.7115 17.4697 1.68075 17.4502 1.66425 17.4307C1.6335 17.415 1.617 17.388 1.602 17.3557C1.59 17.3407 1.59 17.313 1.59 17.2665C1.59 17.2072 1.602 17.1457 1.64775 17.1022C1.695 17.055 1.7535 17.0392 1.812 17.0392L1.84425 17.0272ZM1.035 15.5197C1.09425 15.5197 1.14825 15.5385 1.19475 15.5895C1.242 15.6322 1.266 15.6877 1.266 15.7537C1.266 15.816 1.242 15.8707 1.19475 15.918C1.1475 15.9652 1.0935 15.9877 1.0305 15.9877C0.9645 15.9877 0.90975 15.9645 0.8625 15.918C0.81975 15.8707 0.79275 15.816 0.79275 15.7537C0.79275 15.6877 0.8085 15.6285 0.855 15.5857C0.89775 15.5385 0.96075 15.516 1.02 15.516L1.035 15.5197ZM1.84425 15.5197C1.9065 15.5197 1.96125 15.5385 2.01225 15.5895C2.055 15.6322 2.0745 15.6877 2.0745 15.7537C2.0745 15.816 2.05575 15.8707 2.0085 15.918C1.94925 15.9652 1.90275 15.9877 1.8285 15.9877C1.75425 15.9877 1.7115 15.9645 1.66425 15.918C1.617 15.8707 1.59 15.816 1.59 15.7537C1.59 15.6877 1.602 15.6285 1.64775 15.5857C1.695 15.5385 1.7535 15.516 1.812 15.516L1.84425 15.5197ZM24 4.59822V9.41022C22.3627 9.51222 20.3197 9.68847 17.8627 9.94497C15.3705 10.215 13.344 10.4257 11.7697 10.5592C10.191 10.7115 9.05475 10.785 8.35875 10.8015C6.996 10.8285 6.27 10.6485 6.1635 10.2465C6.0585 9.79722 6.86625 9.19572 8.6085 8.47722C10.3477 7.73847 12.6593 7.00422 15.5077 6.28497C18.0158 5.65572 20.8477 5.10222 24 4.63722V4.59822ZM23.145 3.24597C19.8908 3.85197 16.5203 4.59822 13.0312 5.47722C7.58625 6.85197 3.24225 8.21922 0 9.57447V3.24672L23.145 3.24597Z" fill="black"/>
</svg>
