<svg width="24" height="24" viewBox="0 0 24 24" fill="none" xmlns="http://www.w3.org/2000/svg">
<g clip-path="url(#clip0_201_58548)">
<path d="M23.781 6.5663L0.21075 8.14805C0.09375 8.15555 0 8.2538 0 8.37455V8.3978L0.72675 15.2843V15.2881C0.72675 15.3233 0.7305 15.3586 0.7305 15.3976C0.7305 15.5183 0.71475 15.6398 0.68325 15.7456L0.3435 16.8391C0.3045 16.9598 0.3705 17.0228 0.48825 16.9718L2.2965 16.2218H2.30025H2.304C2.433 16.1708 2.57325 16.1438 2.72175 16.1438H2.757L22.7962 17.4368C22.9253 17.4368 23.0265 17.3393 23.0385 17.2141L23.9993 6.78455V6.76505C23.9993 6.6518 23.9093 6.56555 23.7997 6.56555L23.781 6.5663ZM4.53525 10.2458H4.59C5.4105 10.2458 5.84025 10.5503 5.8635 11.1368V11.1841H5.3475L5.34 11.1451C5.313 10.8833 5.06625 10.7581 4.59 10.7581H4.54275C4.062 10.7656 3.82425 10.9103 3.82425 11.1916V11.2696C3.83175 11.3243 3.85575 11.3708 3.89475 11.4061C3.9495 11.4533 4.01175 11.4923 4.086 11.5156L5.289 11.9221L5.2815 11.9146L5.2935 11.9183C5.4735 11.9768 5.63325 12.0826 5.75475 12.2266C5.8605 12.3631 5.93025 12.5393 5.93025 12.7268V12.8438C5.93025 13.1326 5.78925 13.3831 5.56725 13.5391C5.3325 13.7191 4.99275 13.8083 4.57125 13.8083C4.14975 13.8083 3.82125 13.7146 3.58275 13.5391V13.5353C3.36375 13.3831 3.2235 13.1288 3.2235 12.8363V12.7658H3.7395V12.8168C3.7395 12.9653 3.80175 13.0711 3.9465 13.1648C4.095 13.2548 4.30575 13.3013 4.57575 13.3013C4.84575 13.3013 5.06775 13.2541 5.2125 13.1648C5.361 13.0748 5.43525 12.9653 5.43525 12.8168V12.7463C5.43525 12.5783 5.33775 12.4688 5.1345 12.4028L3.93525 12.0008C3.74025 11.9386 3.58725 11.8448 3.486 11.7196C3.3885 11.6026 3.3255 11.4458 3.3255 11.2778V11.1916C3.3255 10.5743 3.7275 10.2578 4.53675 10.2503L4.53525 10.2458ZM12.828 10.3246H13.344V11.7736H14.934V10.3283H15.4537V13.7971H14.9303V12.2776H13.3485V13.7971H12.8287L12.828 10.3246ZM6.33225 10.3321H6.8325V11.2771H7.368V11.7886H6.8325V12.6796C6.8325 12.8866 6.88725 13.0471 7.0005 13.1641L6.99675 13.1678C7.08675 13.2578 7.2 13.3201 7.33275 13.3396H7.368V13.8241L7.32075 13.8203H7.317C7.0515 13.8046 6.813 13.6913 6.6375 13.5121C6.43425 13.3013 6.333 13.0201 6.333 12.6803L6.33225 10.3321ZM18.246 10.3321H18.7463V11.4533C18.8985 11.2973 19.1138 11.2148 19.3792 11.2148C20.133 11.2148 20.52 11.6093 20.52 12.3863V12.6713C20.52 13.0111 20.4188 13.2961 20.2155 13.5076C20.0123 13.7191 19.731 13.8203 19.3792 13.8203C19.0275 13.8203 18.75 13.7191 18.5513 13.5076C18.348 13.2968 18.243 13.0118 18.243 12.6713V10.3351L18.246 10.3321ZM10.1602 10.3358H10.6605V11.4533C10.8165 11.2973 11.028 11.2111 11.2972 11.2111C12.0547 11.2111 12.4342 11.6093 12.438 12.3871V12.6721C12.438 13.0118 12.3368 13.2968 12.1335 13.5083C11.9302 13.7198 11.649 13.8211 11.3018 13.8211C10.95 13.8211 10.6725 13.7198 10.47 13.5083C10.2675 13.2968 10.1617 13.0126 10.1617 12.6721L10.1602 10.3358ZM7.7655 11.2816H8.2575V12.6488C8.2575 12.9068 8.2965 13.0906 8.37075 13.1918C8.44125 13.2856 8.574 13.3403 8.75775 13.3403H8.7735C8.961 13.3403 9.08625 13.2893 9.1605 13.1918C9.23475 13.0943 9.27375 12.9068 9.27375 12.6488H9.27V11.2816H9.762V12.6488C9.762 13.0628 9.68025 13.3673 9.53175 13.5511C9.38325 13.7228 9.14475 13.8128 8.82075 13.8203H8.70375C8.37975 13.8128 8.14125 13.7228 7.9965 13.5466C7.8405 13.3666 7.76625 13.0621 7.76625 12.6443L7.7655 11.2816ZM15.8438 11.2816H16.3358V12.6488C16.3358 12.9068 16.3748 13.0906 16.449 13.1918C16.5195 13.2856 16.6485 13.3403 16.836 13.3403H16.8592C17.0392 13.3403 17.1637 13.2893 17.238 13.1918C17.3123 13.0906 17.3512 12.9068 17.3512 12.6488H17.3475V11.2816H17.8395V12.6488C17.8395 13.0628 17.7533 13.3756 17.6092 13.5511C17.4608 13.7228 17.2222 13.8128 16.8983 13.8203H16.7775C16.4535 13.8128 16.215 13.7228 16.0665 13.5466C15.9143 13.3666 15.84 13.0621 15.84 12.6443V11.2808L15.8438 11.2816ZM11.2972 11.7031C11.0903 11.7031 10.926 11.7541 10.821 11.8591C10.7198 11.9648 10.6605 12.1441 10.6605 12.3863V12.6751C10.6605 12.8821 10.7227 13.0426 10.8322 13.1596C10.9417 13.2803 11.094 13.3433 11.2972 13.3433C11.5005 13.3433 11.6528 13.2886 11.766 13.1633C11.8792 13.0381 11.9377 12.8821 11.9377 12.6751V12.3938C11.9377 12.1441 11.8792 11.9678 11.7735 11.8628C11.664 11.7571 11.508 11.7023 11.2972 11.7023V11.7031ZM19.3792 11.7031C19.1723 11.7031 19.008 11.7541 18.9067 11.8591C18.801 11.9648 18.7463 12.1441 18.7463 12.3863V12.6751C18.7463 12.8821 18.8048 13.0426 18.9105 13.1596C19.0163 13.2803 19.1798 13.3433 19.3792 13.3433C19.5788 13.3433 19.7348 13.2848 19.848 13.1633C19.965 13.0426 20.0198 12.8783 20.0198 12.6751V12.3938C20.0198 12.1441 19.9613 11.9678 19.8555 11.8628C19.746 11.7571 19.59 11.7023 19.3792 11.7023V11.7031Z" fill="black"/>
</g>
<defs>
<clipPath id="clip0_201_58548">
<rect width="24" height="24" fill="white"/>
</clipPath>
</defs>
</svg>
