<svg width="24" height="24" viewBox="0 0 24 24" fill="none" xmlns="http://www.w3.org/2000/svg">
<g clip-path="url(#clip0_201_57238)">
<path d="M23.82 12C23.7622 8.81177 21.129 6.27302 17.9407 6.32777C17.6475 6.32777 17.34 6.35177 17.0385 6.37877C14.5192 6.75002 12.8392 8.55902 11.9092 9.94877C10.9605 8.55902 9.26924 6.75002 6.76949 6.37877C6.46874 6.35177 6.17174 6.32777 5.87024 6.32777C2.68349 6.28052 0.0584871 8.81552 -0.000762939 12C0.0584871 15.1838 2.68349 17.7188 5.87024 17.6723C6.17099 17.6723 6.46799 17.6483 6.78824 17.6093C9.30824 17.25 10.9875 15.441 11.9295 14.0513C12.8782 15.441 14.5582 17.25 17.0692 17.6213C17.3782 17.6483 17.6715 17.6723 17.979 17.6723C21.1507 17.703 23.7607 15.1725 23.8192 12H23.82ZM6.47999 15.6023C6.28124 15.6413 6.05099 15.6413 5.85224 15.6413C3.77699 15.684 2.05949 14.0513 2.00024 11.9805C2.06624 9.90677 3.78899 8.27327 5.85899 8.32052C6.05924 8.32052 6.28124 8.34077 6.48824 8.35952C8.85899 8.71127 10.3095 11.0318 10.8015 11.9805C10.3012 12.9308 8.85224 15.2813 6.48824 15.6023H6.47999ZM12.9997 12C13.488 11.07 14.9407 8.73002 17.3085 8.37902C17.5117 8.34002 17.7292 8.34002 17.9295 8.34002C20.0115 8.27702 21.7455 9.91802 21.8002 12C21.7335 14.07 20.0115 15.7028 17.94 15.66C17.7367 15.66 17.5192 15.6413 17.319 15.621C14.9602 15.27 13.4992 12.93 13.011 12H12.9997ZM4.21124 12.5903H7.75049V11.43H4.21949V12.5903H4.21124ZM18.3397 12.5903H19.5307V11.43H18.3277V10.2383H17.199V11.4413H15.9997V12.5903H17.199V13.77H18.3517V12.6023L18.3397 12.5903ZM24 7.05902C24 7.35902 23.781 7.56977 23.469 7.56977C23.184 7.58177 22.9447 7.35452 22.941 7.06952C22.941 6.78827 23.1802 6.55052 23.469 6.55052C23.781 6.55052 24 6.76952 24 7.05827V7.05902ZM23.0902 7.05902C23.0902 7.28102 23.25 7.46102 23.4885 7.46102C23.7112 7.46102 23.8717 7.28102 23.8717 7.05902C23.8717 6.84002 23.712 6.66002 23.4885 6.66002C23.2507 6.64127 23.0902 6.81977 23.0902 7.05902ZM23.391 7.32002H23.289V6.80102L23.4877 6.78902C23.5777 6.78902 23.6287 6.80102 23.6715 6.81977C23.7105 6.84002 23.7292 6.87902 23.7292 6.93002C23.7292 6.98777 23.6902 7.03127 23.6205 7.03877C23.6715 7.05902 23.6902 7.10177 23.7105 7.17152L23.7375 7.30052H23.6205C23.6017 7.28027 23.6017 7.22927 23.5777 7.17152C23.559 7.12052 23.5387 7.10177 23.469 7.10177H23.4217L23.3977 7.32002H23.391ZM23.4097 7.02002H23.469C23.5387 7.02002 23.5702 7.01177 23.5702 6.94877C23.5702 6.89777 23.5395 6.87902 23.469 6.87902H23.3977V7.02002H23.4097Z" fill="black"/>
</g>
<defs>
<clipPath id="clip0_201_57238">
<rect width="24" height="24" fill="white"/>
</clipPath>
</defs>
</svg>
