<svg width="24" height="24" viewBox="0 0 24 24" fill="none" xmlns="http://www.w3.org/2000/svg">
<g clip-path="url(#clip0_201_58770)">
<path d="M18.1875 3.51563e-05C17.6715 3.51563e-05 17.445 0.324035 17.262 0.660035C17.262 0.660035 9.80474 13.8825 9.55874 14.316C9.57449 14.3393 14.4765 23.3393 14.4765 23.3393C14.6482 23.6475 14.9137 23.9993 15.4455 23.9993H18.8985C19.1092 23.9993 19.2735 23.9213 19.3635 23.7803C19.4497 23.628 19.4497 23.4323 19.3515 23.241L14.4727 14.3273C14.469 14.3198 14.469 14.3115 14.4727 14.304L22.1407 0.756785C22.2345 0.565535 22.2345 0.366035 22.1445 0.221285C22.0545 0.0765352 21.8947 -0.00146484 21.6877 -0.00146484L18.1875 3.51563e-05ZM3.64874 4.73853C3.43799 4.73853 3.26174 4.81279 3.17624 4.95754C3.08624 5.10604 3.09824 5.29729 3.19574 5.48853L5.53574 9.53553C5.53949 9.54753 5.53949 9.55503 5.53574 9.55878L1.85999 16.0508C1.76249 16.2383 1.76624 16.4333 1.85999 16.578C1.94624 16.7228 2.09849 16.8128 2.30924 16.8128H5.77049C6.29024 16.8128 6.53624 16.4648 6.7155 16.149L10.4497 9.53928L8.07074 5.38278C7.89899 5.06629 7.63724 4.72278 7.10999 4.72278H3.64874V4.73853Z" fill="black"/>
</g>
<defs>
<clipPath id="clip0_201_58770">
<rect width="24" height="24" fill="white"/>
</clipPath>
</defs>
</svg>
