<svg width="24" height="24" viewBox="0 0 24 24" fill="none" xmlns="http://www.w3.org/2000/svg">
<g clip-path="url(#clip0_201_57604)">
<path d="M8.56271 2.44502C8.56271 2.12102 8.59796 1.92527 9.15221 1.92527H16.617C17.9175 1.92527 18.6405 3.03452 19.1602 5.11652L19.578 6.78452H20.8477C21.078 2.05427 21.2775 -0.000732422 21.2775 -0.000732422C21.2775 -0.000732422 18.0825 0.358518 16.188 0.358518H6.64121L1.52771 0.194268V1.56527L3.25046 1.88927C4.46171 2.13152 4.75046 2.38502 4.85171 3.49502C4.85171 3.49502 4.96121 6.76877 4.96121 12.1358C4.96121 17.5223 4.87121 20.745 4.87121 20.745C4.87121 21.7215 4.48046 22.0808 3.28121 22.3193L1.55846 22.6515V23.9993L6.68771 23.835H15.2385C17.1757 23.835 21.6292 23.9993 21.6292 23.9993C21.735 22.827 22.3792 17.5185 22.485 16.9365H21.2857L20.0002 19.8465C18.996 22.1235 17.5237 22.2878 15.891 22.2878H10.9845C9.35546 22.2878 8.57021 21.651 8.57021 20.241V12.7995C8.57021 12.7995 12.1875 12.7995 13.359 12.8933C14.2695 12.96 14.82 13.2218 15.117 14.4908L15.5077 16.1858H16.9177L16.8277 11.9085L17.019 7.60352H15.6285L15.1792 9.49427C14.898 10.7363 14.6985 10.9628 13.425 11.0955C11.7607 11.2635 8.60846 11.232 8.60846 11.232V2.44652H8.56121L8.56271 2.44502Z" fill="black"/>
</g>
<defs>
<clipPath id="clip0_201_57604">
<rect width="24" height="24" fill="white"/>
</clipPath>
</defs>
</svg>
