<svg width="24" height="24" viewBox="0 0 24 24" fill="none" xmlns="http://www.w3.org/2000/svg">
<g clip-path="url(#clip0_201_57936)">
<path d="M10.4452 21.3713C10.4452 21.8985 10.02 22.3245 9.49199 22.3245C8.96924 22.3245 8.53874 21.8985 8.53874 21.3713C8.53874 20.844 8.96474 20.418 9.49199 20.418C10.0162 20.418 10.4407 20.8478 10.4407 21.3713H10.4452ZM16.3627 21.3713C16.3627 21.8985 15.9375 22.3245 15.4095 22.3245C14.8822 22.3245 14.4562 21.8985 14.4562 21.3713C14.4562 20.844 14.8785 20.418 15.405 20.418C15.933 20.418 16.3582 20.8478 16.3582 21.3713H16.3627ZM20.9017 12.2153L20.7457 12.0083C20.703 11.949 20.652 11.895 20.6047 11.8365C20.559 11.7735 20.5117 11.7233 20.4645 11.6648C20.3587 11.5478 20.2537 11.427 20.1442 11.3055L20.0692 11.2275L19.9762 11.1293L19.8435 10.9965C19.8277 10.9778 19.8112 10.9613 19.7925 10.9418C18.6322 9.80551 17.2882 8.95801 15.8392 8.43901L15.6082 8.36026C15.6202 8.33701 15.6322 8.30626 15.6442 8.27851C16.0545 7.21651 16.011 6.05626 15.522 5.02426C15.03 3.98926 14.1667 3.22426 13.0852 2.86426C12.429 2.64901 11.8545 2.54401 11.3745 2.56051C11.3392 2.45476 11.2725 1.98151 11.8702 0.712511L10.6635 0.00151062L10.3747 0.399761C10.047 0.856511 9.72674 1.29451 9.42974 1.72876C9.10198 1.38451 8.66398 1.17751 8.18773 1.14976L6.77699 1.06351C6.74624 1.06051 6.70723 1.06051 6.67573 1.06051C5.68349 1.06051 4.86299 1.82926 4.80449 2.81326L4.71448 4.21651V4.22026C4.65523 5.24701 5.44049 6.13426 6.47249 6.19651L7.47224 6.25951C7.40549 7.09951 7.54648 7.88026 7.87799 8.56351C6.53023 9.12676 5.29199 9.96676 4.21799 11.0483C0.912735 14.3925 0.912735 18.0525 0.912735 20.9933V22.7715L2.21774 21.3848C2.48248 22.314 2.86948 23.19 3.36149 23.9978H5.05723C4.22549 22.8848 3.63898 21.5715 3.37723 20.1495L5.29123 18.1185L4.30724 21.2123L6.04499 19.9425C9.11924 17.7083 12.7912 17.1923 16.9552 18.4155C18.7605 18.9465 20.5185 18.4545 21.4282 17.1578L21.5332 16.9935C21.6232 17.4893 21.6742 17.9895 21.6742 18.4898C21.6742 20.0528 21.42 22.1775 20.295 24.0015H21.9037C22.6815 22.4393 23.088 20.5673 23.088 18.4898C23.0842 16.2908 22.299 14.0678 20.9002 12.2168L20.9017 12.2153ZM8.89498 6.19126C9.01573 5.18851 9.47324 4.24201 10.125 3.22351C10.1482 3.27076 10.1797 3.31651 10.2067 3.36376C10.473 3.76276 10.9215 3.98851 11.406 3.96976C11.625 3.96151 12.012 3.99676 12.6412 4.20376C13.3552 4.43851 13.926 4.94551 14.2462 5.62951C14.5702 6.30976 14.598 7.07026 14.328 7.77751C14.1517 8.22376 13.8712 8.59876 13.5202 8.88751L13.113 8.38351L13.1092 8.37976C12.8325 8.04001 12.4185 7.84501 11.9775 7.84501C11.6415 7.84501 11.3122 7.96201 11.0512 8.17726C10.719 8.44651 10.539 8.83726 10.5202 9.23551C9.31649 8.69251 8.71948 7.59151 8.89123 6.19276L8.89498 6.19126ZM13.1992 11.301L12.6802 11.727C12.633 11.7623 12.5865 11.7773 12.531 11.7773C12.4687 11.7773 12.3982 11.7503 12.3547 11.6955L12.246 11.5598C12.1597 11.4615 12.18 11.31 12.2767 11.2275L12.789 10.8053L11.7337 9.50851C11.625 9.37126 11.6445 9.17626 11.7765 9.07051C11.8357 9.02326 11.9017 8.99626 11.9722 8.99626C12.0615 8.99626 12.1515 9.03526 12.21 9.10951L15.1747 12.7583C15.2835 12.891 15.2647 13.086 15.132 13.191C15.093 13.2233 15.0502 13.2458 15.0067 13.254C14.9827 13.2623 14.9595 13.266 14.937 13.266C14.847 13.266 14.757 13.2233 14.694 13.152L14.4007 12.7853L13.3537 13.641C13.311 13.6763 13.257 13.695 13.2015 13.695C13.1355 13.695 13.0605 13.6643 13.0147 13.605L12.5377 13.0268C12.456 12.9255 12.4717 12.7725 12.573 12.6908L13.6237 11.832L13.1992 11.301ZM7.75423 4.86676L6.55949 4.78876C6.30149 4.77676 6.10573 4.55476 6.12148 4.30501L6.21148 2.90176C6.22723 2.65576 6.43049 2.46451 6.67274 2.46451H6.69599L8.09923 2.55826C8.22448 2.56126 8.33699 2.61601 8.41499 2.71051C8.49674 2.80426 8.54024 2.91751 8.53199 3.04651L8.52374 3.14476C8.20349 3.71476 7.93873 4.28101 7.75048 4.86676H7.75423ZM20.277 16.3478C19.7107 17.1518 18.5902 17.43 17.352 17.0655C13.4692 15.9255 9.95698 16.1595 6.88723 17.7653L8.51998 12.6443L3.23024 18.2535C3.32849 14.4878 5.68424 11.2845 8.98799 9.94051C9.46124 10.3118 10.023 10.6013 10.6597 10.7805C10.8195 10.8233 10.9837 10.8548 11.1405 10.8825C10.9567 11.3438 11.0227 11.8823 11.3512 12.2888L11.4255 12.3825C11.2537 12.8318 11.3197 13.3545 11.6475 13.7535L12.1207 14.3355C12.387 14.6595 12.7807 14.8515 13.1985 14.8515C13.5225 14.8515 13.8352 14.7375 14.0857 14.5343L14.3707 14.304C14.547 14.3783 14.7375 14.4173 14.9377 14.4173C15.051 14.4173 15.1597 14.4053 15.27 14.382C15.4837 14.331 15.6907 14.229 15.867 14.0888C16.488 13.581 16.5862 12.6548 16.074 12.03L14.406 9.97576C14.5507 9.85801 14.688 9.72901 14.8117 9.59251C14.949 9.63151 15.0855 9.67051 15.2145 9.71326C15.4792 9.81001 15.7455 9.90826 16.0072 10.0253C17.0115 10.4715 17.9602 11.127 18.7762 11.9243C18.8085 11.955 18.8392 11.9783 18.8625 12.006L19.0342 12.1823C19.0695 12.2213 19.1085 12.2603 19.1445 12.303C19.2225 12.3893 19.3042 12.4778 19.3822 12.5678L19.5112 12.7208C19.554 12.771 19.5975 12.822 19.6402 12.8805L19.7535 13.0283C19.7925 13.0793 19.8315 13.1303 19.8705 13.1813C20.7105 14.3333 20.8582 15.513 20.2725 16.341V16.3448L20.277 16.3478ZM7.71898 4.11301L6.88274 4.06201L6.93748 3.23026L7.76924 3.28126L7.71898 4.11301Z" fill="black"/>
</g>
<defs>
<clipPath id="clip0_201_57936">
<rect width="24" height="24" fill="white"/>
</clipPath>
</defs>
</svg>
