<svg width="24" height="24" viewBox="0 0 24 24" fill="none" xmlns="http://www.w3.org/2000/svg">
<g clip-path="url(#clip0_201_58460)">
<path d="M12.207 0.792725C13.1955 0.792725 16.5548 1.07022 18.1365 4.61322C18.6638 5.80872 18.5385 7.83222 18.4335 9.46122V9.51972C18.4215 9.69972 18.4103 9.86772 18.402 10.0312C18.4763 10.074 18.6053 10.1212 18.804 10.1212C19.101 10.1055 19.4603 10.0005 19.8353 9.82047C19.9995 9.73047 20.1788 9.71472 20.3003 9.71472C20.4803 9.71472 20.6595 9.74622 20.808 9.80472C21.2573 9.95322 21.5423 10.2855 21.5423 10.6447C21.558 11.094 21.1515 11.4847 20.3273 11.8125C20.241 11.8395 20.1203 11.8867 19.9838 11.9295C19.5345 12.066 18.8468 12.2887 18.6518 12.7417C18.5618 12.9645 18.5933 13.2652 18.7725 13.6087L18.7883 13.6245C18.8468 13.761 20.3115 17.097 23.577 17.6362C23.835 17.6835 24.0143 17.9055 23.9993 18.1477C23.9993 18.222 23.9835 18.2962 23.952 18.3705C23.7135 18.9405 22.6785 19.359 20.8073 19.644C20.7488 19.734 20.6865 20.019 20.643 20.214C20.6115 20.3895 20.5688 20.5732 20.5103 20.7645C20.4323 21.0337 20.2365 21.171 19.9515 21.171H19.9245C19.788 21.171 19.6118 21.1395 19.3853 21.0967C19.026 21.0225 18.6195 20.9602 18.1118 20.9602C17.811 20.9602 17.514 20.976 17.1975 21.0345C16.5998 21.1402 16.0763 21.4995 15.4748 21.921C14.6235 22.5187 13.6508 23.2065 12.1815 23.2065C12.123 23.2065 12.0645 23.1907 12.0015 23.1907H11.853C10.3845 23.1907 9.42753 22.5187 8.57178 21.9052C7.97403 21.483 7.46628 21.1237 6.86478 21.0187C6.55203 20.976 6.23553 20.9445 5.93928 20.9445C5.40003 20.9445 4.98228 21.0345 4.66578 21.0967C4.45503 21.1395 4.27503 21.171 4.12653 21.171C3.75153 21.171 3.60303 20.9445 3.54453 20.7487C3.48228 20.5575 3.45453 20.358 3.40803 20.1825C3.36078 20.0025 3.30228 19.6867 3.24378 19.6125C1.32603 19.3897 0.294784 18.972 0.0525344 18.3862C0.0210344 18.324 0.00153441 18.2377 -0.00221559 18.1597C-0.0179656 17.9175 0.162034 17.6947 0.420034 17.652C3.68178 17.1127 5.15028 13.773 5.20878 13.6327L5.22453 13.6057C5.40453 13.2577 5.45103 12.9615 5.34528 12.735C5.15028 12.3015 4.46253 12.0787 4.01328 11.9265C3.89253 11.8995 3.77103 11.8522 3.66528 11.8095C2.55978 11.3722 2.40753 10.8795 2.46978 10.536C2.55978 10.0552 3.14178 9.74323 3.63753 9.74323C3.78228 9.74323 3.90678 9.77022 4.02003 9.81747C4.43778 10.0087 4.80903 10.1145 5.12553 10.1145C5.35578 10.1145 5.50803 10.056 5.59053 10.0132L5.54328 9.44322C5.44578 7.81797 5.31678 5.79072 5.84778 4.60722C7.38678 1.07997 10.7348 0.809975 11.7225 0.809975L12.1403 0.794225L12.207 0.792725Z" fill="black"/>
</g>
<defs>
<clipPath id="clip0_201_58460">
<rect width="24" height="24" fill="white"/>
</clipPath>
</defs>
</svg>
