<svg width="24" height="24" viewBox="0 0 24 24" fill="none" xmlns="http://www.w3.org/2000/svg">
<g clip-path="url(#clip0_201_58792)">
<path d="M15 12.0037C15 12.8977 14.8358 13.7498 14.5387 14.5387C13.7535 14.8358 12.8947 15 12.0037 15H11.9955C11.1015 15 10.2495 14.8358 9.4605 14.5387C9.1635 13.7498 8.99925 12.8947 8.99925 12.0037V11.9955C8.99925 11.1015 9.1635 10.2495 9.4605 9.4605C10.2495 9.1635 11.1015 8.99925 11.9955 8.99925H12.0037C12.8977 8.99925 13.7535 9.1635 14.5387 9.4605C14.8358 10.2495 15 11.1015 15 11.9955V12.0037ZM23.8358 9.99975H16.8278L21.777 5.04675C21.387 4.5 20.9573 3.98775 20.484 3.516C20.0123 3.039 19.4963 2.60925 18.9533 2.21925L14.0002 7.1685V0.16425C13.3523 0.06225 12.6885 0 12.0045 0H11.9925C11.3123 0 10.6485 0.06225 10.0005 0.16425V7.17225L5.05125 2.223C4.5 2.60475 3.9885 3.04275 3.516 3.516C3.039 3.98775 2.60475 4.50375 2.21925 5.04675L7.1685 9.99975H0.16425C0.16425 9.99975 0 11.316 0 11.9955V12.0037C0 12.684 0.06225 13.3515 0.16425 13.9995H7.17225L2.223 18.9487C2.99625 20.0467 3.95325 21.0037 5.04675 21.7808L9.99975 16.8315V23.8358C10.6477 23.9408 11.3115 24 11.9918 24H12.0075C12.6877 24 13.3515 23.9408 13.9995 23.8358V16.8315L18.9487 21.7808C19.5 21.4058 20.0115 20.9685 20.4795 20.4915H20.4832C20.9565 20.0265 21.39 19.5158 21.78 18.9608L16.8307 14.0115H23.835C23.94 13.3665 23.9993 12.7065 23.9993 12.0308V12C23.9993 11.3197 23.94 10.656 23.835 10.0118L23.8358 9.99975Z" fill="black"/>
</g>
<defs>
<clipPath id="clip0_201_58792">
<rect width="24" height="24" fill="white"/>
</clipPath>
</defs>
</svg>
