<svg width="24" height="24" viewBox="0 0 24 24" fill="none" xmlns="http://www.w3.org/2000/svg">
<g clip-path="url(#clip0_201_57330)">
<path d="M6.89777 1.75781e-05L5.68352 2.80127H3.87827V5.32052H4.56902L5.27627 9.80177H4.17152L5.63252 18.0315L6.56927 18.0203L7.51127 24H16.4295L16.4918 23.6018L17.3708 18.0195L18.2618 18.0308L19.719 9.80102H18.6638L19.3665 5.31977H20.1248V2.80052H18.207L16.9883 -0.000732422L6.89777 1.75781e-05ZM7.42577 0.804768H16.4685L17.2373 2.58602H6.65102L7.42577 0.804768ZM4.67627 3.60227H19.32V4.52327H4.67627V3.60227ZM5.12927 10.602H18.7665L17.5905 17.2193L11.9385 17.16L6.30526 17.2193L5.12927 10.602Z" fill="black"/>
</g>
<defs>
<clipPath id="clip0_201_57330">
<rect width="24" height="24" fill="white"/>
</clipPath>
</defs>
</svg>
