<svg width="24" height="24" viewBox="0 0 24 24" fill="none" xmlns="http://www.w3.org/2000/svg">
<g clip-path="url(#clip0_201_57964)">
<path d="M10.203 14.352L10.2112 14.3588L9.21148 16.773C8.25448 16.1603 7.52323 15.246 7.13773 14.1758L9.71548 13.7378L9.71923 13.7415C10.062 13.6793 10.3402 14.0265 10.203 14.3513V14.352ZM9.37123 12.2228C9.71098 12.129 9.80923 11.6948 9.54298 11.4645L9.54673 11.4525L7.58548 9.69826C6.98773 10.671 6.72973 11.8193 6.85423 12.9525L9.36598 12.2295L9.37123 12.2228ZM10.5157 10.242C10.8007 10.449 11.199 10.254 11.2147 9.90226L11.2267 9.89851L11.3745 7.27726C10.2375 7.41001 9.17923 7.91851 8.36248 8.72326L10.5112 10.242H10.5157ZM11.277 12.9923L12 13.3403L12.723 12.9923L12.9022 12.2153L12.402 11.5905H11.598L11.0977 12.2153L11.277 12.9923ZM12.777 9.89476C12.789 10.2458 13.191 10.4408 13.4767 10.23L13.4835 10.2338L15.6165 8.72251C14.8042 7.92526 13.7535 7.41751 12.6247 7.28026L12.7725 9.89401L12.777 9.89476ZM23.652 15.867L17.8792 23.0468C17.574 23.4218 17.1172 23.6408 16.6335 23.6408L7.37173 23.6445C6.88798 23.6445 6.42673 23.4255 6.12148 23.0468L0.34873 15.867C0.0479797 15.492 -0.0652703 15 0.0397297 14.5268L2.10298 5.57401C2.20798 5.10226 2.52373 4.71076 2.96623 4.50001L11.3062 0.51226C11.7435 0.30526 12.255 0.30526 12.6922 0.51226L21.036 4.49626C21.474 4.70701 21.7897 5.10226 21.8992 5.57026L23.9625 14.5275C24.0675 14.9963 23.9542 15.4883 23.6535 15.8678L23.652 15.867ZM20.3632 13.809C20.3205 13.8008 20.262 13.7813 20.2192 13.773C20.043 13.7423 19.902 13.7498 19.7385 13.7378C19.3912 13.6988 19.1025 13.6718 18.8445 13.59C18.7387 13.551 18.6645 13.4258 18.6292 13.371L18.426 13.3118C18.5347 12.5348 18.5002 11.7458 18.3202 10.98C18.1455 10.2113 17.8282 9.47701 17.3872 8.82001C17.4382 8.77276 17.535 8.68801 17.562 8.66026C17.5702 8.57026 17.562 8.47726 17.6557 8.37901C17.8545 8.19076 18.102 8.03926 18.3975 7.85476C18.5422 7.77301 18.6712 7.71901 18.8152 7.61251C18.8475 7.58926 18.8902 7.55026 18.9255 7.52251C19.1632 7.33576 19.2187 7.00351 19.0462 6.78826C18.8737 6.57301 18.5422 6.55426 18.3045 6.74101C18.2692 6.76876 18.2227 6.80401 18.1905 6.83101C18.0585 6.94801 17.9767 7.06126 17.8627 7.18276C17.6167 7.43251 17.4097 7.63951 17.1877 7.78801C17.094 7.84726 16.9485 7.82701 16.887 7.82326L16.695 7.96051C15.6022 6.81151 14.1292 6.09751 12.5512 5.95651L12.5392 5.73376C12.4732 5.67151 12.3952 5.61676 12.375 5.48401C12.3517 5.21476 12.3907 4.92601 12.4342 4.57801C12.453 4.41376 12.492 4.28101 12.5002 4.10176C12.5002 4.06201 12.5002 4.00351 12.5002 3.96076C12.5002 3.65551 12.273 3.40576 12 3.40576C11.7232 3.40576 11.4997 3.65551 11.4997 3.96076V3.97651C11.4997 4.01551 11.4997 4.06576 11.4997 4.10176C11.508 4.28101 11.547 4.41376 11.5657 4.57801C11.6085 4.92601 11.6445 5.21476 11.625 5.48401C11.5942 5.58226 11.5387 5.67226 11.4607 5.74201L11.4487 5.95276C9.85873 6.08176 8.37448 6.79276 7.28473 7.95676C7.22248 7.91401 7.16398 7.87051 7.10473 7.82776C7.01548 7.83976 6.92548 7.86676 6.80848 7.80076C6.58573 7.64776 6.37873 7.44076 6.13273 7.19101C6.01948 7.07026 5.93773 6.95701 5.80498 6.84376C5.77273 6.81601 5.72698 6.78076 5.69473 6.75376C5.59348 6.67576 5.47273 6.62851 5.34748 6.62101C5.19073 6.61276 5.04673 6.68026 4.94848 6.79726C4.77673 7.01626 4.83148 7.34401 5.06923 7.53526L5.07748 7.53901L5.18323 7.62076C5.32348 7.72651 5.45248 7.78051 5.59723 7.86301C5.89423 8.05126 6.14023 8.20276 6.33898 8.38726C6.41323 8.46901 6.42898 8.61301 6.43723 8.67601L6.59698 8.81626C5.71423 10.1453 5.35123 11.7465 5.57698 13.3245L5.36998 13.3838C5.31523 13.458 5.23723 13.5668 5.15473 13.6028C4.89673 13.6845 4.60798 13.7115 4.26073 13.7468C4.09648 13.7625 3.95548 13.755 3.77998 13.7858C3.74098 13.794 3.68998 13.8098 3.64723 13.8165L3.64423 13.8203H3.63598C3.34273 13.8915 3.15073 14.1645 3.21373 14.43C3.27148 14.6948 3.56098 14.859 3.85798 14.793H3.86623L3.87448 14.7893L4.00348 14.7623C4.17523 14.715 4.30048 14.6483 4.45273 14.5905C4.78048 14.4735 5.05873 14.3715 5.32348 14.3325C5.43373 14.3243 5.55448 14.4023 5.60848 14.4345L5.82748 14.3985C6.31573 15.9068 7.33948 17.1885 8.70673 17.9925L8.61673 18.2115C8.65198 18.2978 8.68798 18.4103 8.65948 18.4928C8.56573 18.747 8.39773 19.0125 8.21023 19.3058C8.11648 19.4415 8.02198 19.548 7.94023 19.704C7.92148 19.743 7.89748 19.8023 7.87798 19.8413C7.74898 20.1143 7.84273 20.4315 8.08873 20.5523C8.33848 20.6693 8.64673 20.544 8.77948 20.2673C8.79973 20.2283 8.82673 20.1773 8.84248 20.1383C8.91223 19.9785 8.93623 19.8375 8.98648 19.6815C9.11548 19.3493 9.18973 19.0013 9.37348 18.7823C9.42448 18.7245 9.50248 18.7005 9.58873 18.681L9.70198 18.474C11.1832 19.044 12.8227 19.0478 14.3107 18.4853L14.4165 18.6773C14.5027 18.7043 14.5965 18.72 14.6707 18.8333C14.808 19.0635 14.901 19.341 15.015 19.6733C15.0652 19.8293 15.0892 19.9703 15.159 20.13C15.1747 20.1653 15.2017 20.22 15.222 20.259C15.354 20.5358 15.663 20.661 15.909 20.5403C16.1587 20.4233 16.2532 20.106 16.1242 19.8293C16.104 19.7903 16.077 19.7355 16.0582 19.6965C15.9765 19.5405 15.882 19.4355 15.792 19.2983C15.6007 19.005 15.444 18.759 15.3472 18.5055C15.3082 18.3765 15.354 18.2985 15.3862 18.2123C15.366 18.189 15.327 18.0675 15.3045 18.009C16.6755 17.196 17.6985 15.9068 18.1837 14.388C18.246 14.3993 18.3585 14.4188 18.3975 14.427C18.4725 14.376 18.5385 14.313 18.6757 14.3213C18.9405 14.3603 19.2187 14.4623 19.5465 14.5793C19.6987 14.6385 19.8232 14.7045 19.9957 14.751C20.031 14.763 20.082 14.7713 20.1247 14.778L20.133 14.7818H20.1412C20.4382 14.8485 20.727 14.685 20.7855 14.4188C20.8485 14.1525 20.6565 13.8795 20.3632 13.8098V13.809ZM16.398 9.69901L14.4487 11.445V11.4533C14.184 11.6843 14.2845 12.117 14.6205 12.2115L14.6242 12.2198L17.151 12.9458C17.2057 12.3878 17.1712 11.8208 17.0422 11.274C16.917 10.7198 16.698 10.185 16.3972 9.69976L16.398 9.69901ZM12.387 15.027C12.309 14.8793 12.1522 14.7893 11.9842 14.793C11.8282 14.8013 11.6842 14.8868 11.6092 15.027L10.3402 17.3198C11.418 17.688 12.5902 17.688 13.668 17.3198L12.3982 15.027H12.387ZM14.2732 13.734C14.184 13.7153 14.0902 13.7303 14.004 13.77C13.7932 13.8713 13.695 14.1248 13.7887 14.34V14.3438L14.7967 16.7805C15.762 16.1678 16.4955 15.2453 16.8787 14.1675L14.277 13.7265L14.2732 13.734Z" fill="black"/>
</g>
<defs>
<clipPath id="clip0_201_57964">
<rect width="24" height="24" fill="white"/>
</clipPath>
</defs>
</svg>
