<svg width="24" height="24" viewBox="0 0 24 24" fill="none" xmlns="http://www.w3.org/2000/svg">
<g clip-path="url(#clip0_201_58584)">
<path d="M7.67176 1.55918C7.95301 1.42643 8.21101 1.22318 8.47951 1.04693C8.73376 0.882685 9.01951 0.608935 9.37426 0.719185C9.47626 1.01243 9.21001 1.21943 9.04201 1.37918C8.50276 1.89143 7.89001 2.35493 7.32301 2.83643C5.40526 4.45343 3.46426 6.03968 1.49926 7.59818C1.30426 7.75793 1.09726 7.90643 0.88651 8.04293C0.70276 8.15993 0.43351 8.40218 0.17926 8.20718C0.24901 7.87118 0.48301 7.64093 0.69001 7.43018C0.90076 7.21493 1.10401 6.98393 1.31926 6.77018C1.06951 6.34418 0.84751 5.94894 0.65551 5.49593C0.47251 5.04668 0.27676 4.52318 0.27676 3.94118C0.27301 2.83193 0.90976 1.89818 1.61701 1.26218C2.34001 0.608935 3.30526 0.0659346 4.43026 0.00818464C6.01651 -0.0780654 6.93451 0.710935 7.67251 1.55918H7.67176ZM12.684 19.6372V19.8322C12.402 19.8442 12.1478 19.8239 11.8868 19.8164V19.6177C12.1635 19.6094 12.4215 19.6259 12.684 19.6379V19.6372ZM11.094 19.6372V19.8322C10.809 19.8202 10.5698 19.8554 10.3013 19.8524V19.6522C10.5623 19.6372 10.8285 19.6289 11.094 19.6372ZM14.2703 19.6837C14.262 19.7534 14.2815 19.8434 14.2545 19.8824C14.0003 19.8622 13.7348 19.8584 13.4738 19.8517V19.6514C13.7505 19.6552 14.0168 19.6597 14.271 19.6837H14.2703ZM9.50776 19.6837V19.8824C9.22951 19.8862 8.99176 19.9214 8.71051 19.9132V19.7182C8.99176 19.7182 9.22651 19.6829 9.50776 19.6829V19.6837ZM15.0623 19.7189C15.3165 19.7542 15.6053 19.7459 15.855 19.7812C15.867 19.8674 15.84 19.9102 15.84 19.9844C15.5858 19.9492 15.297 19.9537 15.0473 19.9147C15.0593 19.8524 15.066 19.7857 15.0623 19.7197V19.7189ZM7.91776 19.7849V19.9837C7.65976 20.0039 7.40176 20.0309 7.14076 20.0504C7.11676 19.9994 7.12051 19.9214 7.12501 19.8517C7.39126 19.8277 7.64476 19.7969 7.91776 19.7849ZM16.6478 19.8517C16.9178 19.8749 17.1878 19.8974 17.4405 19.9334C17.4218 19.9912 17.4375 20.0812 17.4098 20.1322C17.16 20.0969 16.8908 20.0774 16.6328 20.0504C16.6208 19.9642 16.6478 19.9214 16.6478 19.8517ZM6.32776 19.9342C6.32401 20.0122 6.35851 20.0474 6.34801 20.1329C6.09001 20.1517 5.77726 20.2147 5.55526 20.2147C5.56651 20.1367 5.53501 20.1014 5.53501 20.0309C5.78926 19.9882 6.06601 19.9649 6.32776 19.9342ZM19.0163 20.1329C19.0275 20.2147 18.9885 20.2462 18.996 20.3279C18.7418 20.2852 18.4568 20.2657 18.2033 20.2147C18.2153 20.1554 18.2273 20.1044 18.219 20.0309C18.4493 20.0392 18.7658 20.0939 19.0163 20.1329ZM4.72726 20.1329C4.78501 20.1517 4.75801 20.2657 4.77751 20.3279C4.51651 20.3669 4.25851 20.4059 4.00051 20.4449C3.97726 20.3827 3.96526 20.3159 3.96526 20.2462C4.21951 20.2109 4.48051 20.1764 4.72726 20.1329ZM20.586 20.3632C20.586 20.4382 20.574 20.5079 20.5508 20.5784C20.3048 20.5237 20.031 20.4967 19.773 20.4457C19.7768 20.3797 19.7888 20.3129 19.809 20.2507C20.07 20.2814 20.3123 20.3407 20.586 20.3639V20.3632ZM3.17176 20.3827C3.19051 20.4374 3.20701 20.4959 3.20701 20.5777C2.94076 20.6167 2.70301 20.6834 2.43001 20.7104C2.42626 20.6362 2.39476 20.5897 2.39476 20.5117C2.67151 20.4839 2.91001 20.4217 3.17176 20.3827ZM21.3788 20.5117C21.6368 20.5657 21.8865 20.6204 22.1558 20.6594C22.152 20.7337 22.125 20.7802 22.125 20.8582C21.8438 20.8349 21.6293 20.7449 21.348 20.7262C21.3278 20.6834 21.363 20.5732 21.3788 20.5109V20.5117ZM22.668 16.7272C22.824 16.8164 23.1413 16.8239 23.2658 16.9732C23.3625 17.0864 23.406 17.4569 23.445 17.7149C23.6483 19.0117 23.7338 20.5229 23.7773 21.9337C23.7855 22.1984 23.793 22.5194 23.793 22.8239C23.793 23.1247 23.8553 23.5312 23.793 23.7337C23.754 23.8829 23.5553 23.9294 23.43 23.9999C23.4338 23.0512 23.4098 22.1047 23.367 21.1559C23.2418 21.0547 22.9223 21.1087 22.902 20.9917C22.8593 20.7374 23.1683 20.9017 23.3483 20.9257C23.3055 19.6514 23.172 18.4649 23.0205 17.3047C22.8713 17.2297 22.6845 17.1989 22.5203 17.1404C22.2705 17.3977 21.8873 18.0772 21.297 17.9482C21.078 17.9009 20.934 17.6039 20.8358 17.4014C20.715 17.1674 20.625 16.9177 20.5695 16.6597C15.6878 15.7229 8.97976 15.6449 4.06576 16.6087C3.91351 17.2657 3.63676 18.6637 2.72701 18.1289C2.35501 17.8979 2.07001 17.5469 1.91776 17.1412C1.73401 17.1914 1.55476 17.2342 1.37101 17.2732C1.17976 18.3554 1.08226 19.5389 1.02301 20.7622C1.19101 20.7704 1.44076 20.6414 1.61701 20.6602C1.62076 20.7269 1.64776 20.7734 1.65226 20.8402C1.48426 20.9452 1.21501 20.9452 1.00801 21.0082C0.95326 21.9959 0.93001 22.9919 0.94126 23.9842C0.85951 24.0044 0.66826 23.8589 0.59401 23.7704C0.65626 21.4694 0.77326 19.2194 0.95701 17.0392C1.23826 16.9492 1.52326 16.8674 1.80076 16.7729C1.76176 16.3912 1.68376 15.9449 1.85176 15.6839C1.99201 15.4612 2.38276 15.3322 2.65951 15.2542C3.65176 14.9729 4.64026 15.2032 5.28826 15.6644C5.42926 15.7664 5.53801 15.9022 5.68726 15.9652C5.71051 15.8752 5.59351 15.8122 5.53801 15.7664C4.97176 15.2542 4.03801 14.8094 2.92501 15.0044C2.57701 13.9147 2.13601 12.8632 2.13226 11.4652C2.12851 9.91418 2.69401 8.56643 3.33526 7.51193C3.99526 6.43418 4.87801 5.55893 5.83501 4.86668C8.17876 3.19493 11.0648 2.46443 13.9208 2.81543C16.9328 3.18743 18.9285 4.60418 20.37 6.67118C21.0608 7.65893 21.6203 8.84318 21.9908 10.1939C22.3658 11.5462 22.3695 13.2922 21.9398 14.7217C20.5575 14.4397 19.3035 14.8739 18.8145 15.7484C18.8108 15.7642 18.7995 15.7642 18.7995 15.7792C19.2998 15.1034 20.5335 14.6114 21.7755 14.9204C22.1033 15.0022 22.5218 15.1192 22.6823 15.3502C22.908 15.6704 22.8075 16.3424 22.6665 16.7249L22.668 16.7272ZM16.2188 9.38318C16.2728 9.76643 16.4445 10.1639 16.6635 10.3244C17.0385 10.5982 17.2658 10.3282 17.2965 9.94568C17.3273 9.44168 17.1203 8.84843 16.8623 8.62193C16.7573 8.53193 16.5653 8.47793 16.452 8.50868C16.194 8.57093 16.167 9.03593 16.218 9.38393L16.2188 9.38318ZM7.56976 10.4729C7.53901 11.0309 7.72951 11.7502 8.10151 11.9452C8.53051 12.1724 8.73376 11.8522 8.76151 11.4494C8.80426 10.8247 8.48776 9.73868 7.90126 9.84818C7.65151 9.89543 7.58926 10.1842 7.56901 10.4729H7.56976ZM14.4023 13.0552C14.1375 13.1129 13.77 12.9959 13.4775 12.9382C13.1723 12.8752 12.8715 12.8204 12.5663 12.7732C11.9963 12.6839 11.223 12.5624 10.6643 12.8714C10.4693 12.9802 10.2233 13.2232 10.1993 13.5352C10.1723 13.9919 10.5435 14.3242 10.812 14.5274C11.1368 14.7667 11.4773 14.9264 11.9018 15.0554C12.8198 15.3322 14.1945 15.4064 14.9798 15.0704C15.7148 14.7547 16.6838 14.0084 16.6988 13.0207C16.7108 12.4304 16.4258 11.9024 15.84 11.9804C15.1913 12.0622 14.9573 12.9307 14.3978 13.0552H14.4023Z" fill="black"/>
</g>
<defs>
<clipPath id="clip0_201_58584">
<rect width="24" height="24" fill="white"/>
</clipPath>
</defs>
</svg>
