<svg width="24" height="24" viewBox="0 0 24 24" fill="none" xmlns="http://www.w3.org/2000/svg">
<g clip-path="url(#clip0_201_57222)">
<path d="M23.9963 6.12525C23.9963 5.38725 23.934 4.65225 23.7577 3.93375C23.4412 2.625 22.695 1.62525 21.5782 0.891C21.0037 0.516 20.3715 0.28575 19.6995 0.16425C19.1835 0.0705 18.6607 0.02775 18.1372 0.01575C18.0982 0.012 18.0555 0.00375 18.012 0H5.98875C5.8365 0.012 5.68425 0.0195 5.532 0.027C4.78575 0.06975 4.044 0.14775 3.3405 0.429C2.00475 0.95625 1.0395 1.878 0.476999 3.20625C0.281999 3.6555 0.183749 4.13175 0.113999 4.61625C0.055499 5.007 0.023999 5.4015 0.012749 5.796C0.012749 5.8275 0.00524902 5.85825 0.00524902 5.88975V18.1125C0.012749 18.2535 0.020999 18.3937 0.028499 18.5347C0.079499 19.3515 0.184499 20.16 0.528749 20.91C1.1775 22.3282 2.26725 23.2612 3.7635 23.7105C4.18125 23.8395 4.61925 23.898 5.0565 23.937C5.6115 23.9918 6.16575 23.9993 6.72075 23.9993H17.7517C18.2752 23.9993 18.7987 23.964 19.3223 23.898C20.1465 23.7922 20.9197 23.55 21.6195 23.0895C22.4595 22.5345 23.0925 21.8003 23.4982 20.8822C23.6857 20.46 23.7915 20.0115 23.8695 19.5578C23.9827 18.882 24.006 18.198 24.006 17.5148C24.0022 13.7175 24.006 9.921 24.0022 6.12375L23.9963 6.12525ZM17.574 10.113V15.8243C17.574 16.242 17.5155 16.6523 17.328 17.031C17.0392 17.6205 16.5705 17.9918 15.9412 18.1717C15.5932 18.273 15.234 18.3277 14.871 18.3435C13.9215 18.3908 13.0972 17.7458 12.9292 16.8083C12.7845 16.035 13.1557 15.183 13.968 14.7847C14.2882 14.6287 14.6362 14.535 14.9835 14.4645C15.3622 14.3827 15.741 14.3085 16.116 14.2222C16.3935 14.16 16.5727 13.992 16.6275 13.7062C16.6432 13.644 16.647 13.5773 16.647 13.515C16.647 11.6985 16.647 9.882 16.647 8.07C16.647 8.00775 16.635 7.94475 16.62 7.88625C16.581 7.734 16.4715 7.644 16.3155 7.6515C16.155 7.659 15.999 7.68675 15.843 7.71825C15.081 7.86675 14.3197 8.019 13.5615 8.175L9.8625 8.92125C9.84675 8.925 9.82725 8.93325 9.8115 8.93325C9.534 9.01125 9.4365 9.1365 9.4245 9.42525C9.42075 9.468 9.4245 9.5115 9.4245 9.55425C9.42075 12.156 9.4245 14.7578 9.42075 17.3587C9.42075 17.781 9.3735 18.195 9.20625 18.585C8.92875 19.2255 8.43675 19.6283 7.773 19.8195C7.42125 19.9207 7.062 19.98 6.6945 19.9913C5.7375 20.0265 4.94025 19.3897 4.77675 18.4485C4.63575 17.6362 5.007 16.761 5.92875 16.3703C6.288 16.2218 6.65925 16.14 7.038 16.062C7.323 16.0035 7.6125 15.945 7.8975 15.8865C8.28 15.8047 8.4795 15.5625 8.499 15.1718V15.0233C8.499 12.0623 8.499 9.10125 8.499 6.14025C8.499 6.015 8.51475 5.8905 8.54175 5.769C8.61225 5.484 8.8155 5.31975 9.0885 5.253C9.34275 5.18625 9.6045 5.13975 9.86175 5.085C10.596 4.9365 11.3265 4.788 12.0607 4.64325L14.3302 4.182C15.0022 4.04925 15.6697 3.91275 16.3417 3.78C16.5607 3.73725 16.7835 3.69 17.0055 3.67425C17.3137 3.64725 17.529 3.84225 17.5605 4.155C17.568 4.22925 17.5725 4.3035 17.5725 4.37775C17.5725 6.288 17.5725 8.19825 17.5725 10.1085L17.574 10.113Z" fill="black"/>
</g>
<defs>
<clipPath id="clip0_201_57222">
<rect width="24" height="24" fill="white"/>
</clipPath>
</defs>
</svg>
