<svg width="24" height="24" viewBox="0 0 24 24" fill="none" xmlns="http://www.w3.org/2000/svg">
<g clip-path="url(#clip0_201_58330)">
<path d="M16.1092 17.34C15.2542 18.3278 14.7772 20.1292 15.402 20.7113C15.996 21.156 17.6017 21.102 18.7852 19.4805C19.6485 18.3983 19.3552 16.5863 18.867 16.1055C18.1372 15.5513 17.0902 16.2705 16.1092 17.3527V17.34ZM8.05498 17.637C7.14523 16.5983 5.96473 15.9802 5.20273 16.4377C4.69048 16.8195 4.59748 18.1245 5.32348 19.4055C6.40123 20.9295 7.92148 21.0855 8.54623 20.7142C9.20623 20.226 8.84698 18.573 8.05423 17.6362L8.05498 17.637ZM12.1597 20.781C11.055 20.7577 9.35848 21.2227 9.38248 21.816C9.36223 22.2188 10.7145 23.3873 12.0892 23.328C13.413 23.3587 14.784 22.188 14.769 21.6803C14.7652 21.156 13.272 20.754 12.1627 20.7975L12.1597 20.781ZM12.0862 6.84C10.809 6.80925 9.58198 7.773 9.58198 8.33175C9.57823 9.012 10.59 9.7065 12.0937 9.72675C13.6365 9.7335 14.6085 9.168 14.625 8.4645C14.6407 7.67175 13.23 6.82725 12.105 6.83925L12.0862 6.84ZM9.01198 7.371C6.87898 7.02675 5.10223 8.27025 5.17198 10.5623C5.24173 11.445 9.80098 7.52325 9.01573 7.3875L9.01198 7.371ZM18.762 10.6208C18.8317 8.34375 17.055 7.10175 14.9182 7.4445C14.133 7.58175 18.6915 11.5072 18.762 10.6208ZM19.125 11.445C17.8867 11.1173 18.7072 16.4963 19.7152 16.062C20.8245 15.1912 21.18 12.6128 19.125 11.4608V11.445ZM4.22698 16.1213C5.23423 16.5705 6.05473 11.1915 4.81573 11.52C2.76598 12.6757 3.11698 15.2498 4.22698 16.137V16.1213ZM13.6447 10.1722C12.4957 10.9222 12.2887 12.6023 13.1835 13.9185C14.0737 15.2385 15.7267 15.7305 16.8705 14.9963C18.0195 14.2665 18.2265 12.5865 17.3355 11.25C16.4407 9.918 14.7885 9.438 13.6447 10.188V10.1722ZM10.5472 10.3088C9.40198 9.57375 7.74598 10.0545 6.85948 11.3708C5.96548 12.7065 6.17248 14.3827 7.32073 15.1327C8.46598 15.8827 10.1175 15.402 11.013 14.07C11.8957 12.75 11.685 11.07 10.548 10.3238L10.5472 10.3088ZM14.9137 17.469C14.9055 16.0777 13.6635 14.9527 12.1365 14.9692C10.6087 14.9843 9.37423 16.1055 9.38248 17.5005V17.5275C9.39073 18.9225 10.6365 20.0475 12.1635 20.0317C13.6905 20.0317 14.9212 18.8955 14.9055 17.517V17.4847L14.9137 17.469ZM18.1252 2.33625C15.816 3.5205 14.4735 4.4655 13.734 5.27325C14.1127 6.77325 16.0777 6.8325 16.8007 6.78525C16.6515 6.7275 16.527 6.6375 16.4835 6.5205C16.6635 6.39825 17.3047 6.50475 17.7532 6.2625C17.5815 6.23475 17.499 6.20325 17.421 6.06675C17.8432 5.93475 18.2962 5.829 18.561 5.6025C18.4207 5.6025 18.2842 5.63325 18.0967 5.5125C18.4717 5.3205 18.8737 5.1525 19.1895 4.8555C18.9945 4.8555 18.7837 4.8555 18.7252 4.78125C19.068 4.5705 19.3575 4.344 19.6005 4.074C19.3305 4.12125 19.2135 4.09425 19.1467 4.047C19.4085 3.789 19.7407 3.56625 19.8967 3.234C19.6935 3.312 19.5067 3.324 19.374 3.234C19.4677 3.04275 19.8472 2.922 20.0647 2.457C19.851 2.48775 19.6237 2.50425 19.5765 2.457C19.6785 2.06625 19.8465 1.84425 20.0145 1.602C19.5577 1.602 18.8617 1.602 18.8962 1.57425L19.1782 1.28925C18.732 1.1685 18.2752 1.305 17.943 1.41C17.7952 1.305 17.943 1.152 18.1267 1.00425C17.736 1.0665 17.3955 1.1415 17.0955 1.26225C16.9312 1.10925 17.1967 0.97725 17.3332 0.82425C16.7355 0.945 16.4932 1.09425 16.239 1.242C16.059 1.07775 16.224 0.93 16.3447 0.79725C15.8947 0.9615 15.669 1.1685 15.4305 1.3635C15.3405 1.2585 15.2197 1.18425 15.3675 0.91425C15.0555 1.09425 14.8125 1.305 14.6332 1.5435C14.4412 1.41075 14.5162 1.24275 14.5162 1.09425C14.184 1.3635 13.9762 1.6335 13.7235 1.9065C13.6605 1.87575 13.6177 1.75425 13.5862 1.55925C12.8085 2.30925 11.6955 4.18425 13.3012 4.914C14.6482 3.81975 16.281 3.012 18.0825 2.40975L18.1252 2.33625ZM5.86723 2.33625C7.66423 2.9385 9.28498 3.74625 10.6455 4.8555C12.2385 4.1055 11.1375 2.2305 10.3597 1.50075C10.3207 1.692 10.278 1.8285 10.2277 1.86C9.97348 1.59075 9.76648 1.317 9.43873 1.04775C9.43873 1.2 9.51673 1.38 9.32098 1.497C9.14623 1.25925 8.91073 1.04775 8.59873 0.86775C8.74648 1.12575 8.62198 1.2 8.53948 1.317C8.30173 1.095 8.07448 0.88425 7.64173 0.72C7.76248 0.86775 7.94173 1.02075 7.76248 1.185C7.52323 1.03575 7.26673 0.88425 6.68473 0.76275C6.81673 0.9105 7.08673 1.06275 6.92248 1.21575C6.60523 1.0905 6.26248 1.0005 5.88748 0.954C6.06673 1.10625 6.22723 1.24275 6.07873 1.35975C5.73448 1.239 5.27398 1.1055 4.82473 1.22775L5.10598 1.509C5.13823 1.548 4.44973 1.53975 3.98473 1.54425C4.15273 1.7715 4.32448 1.9935 4.42273 2.39925C4.37548 2.442 4.15273 2.415 3.93898 2.39925C4.16473 2.84925 4.53598 2.97 4.62598 3.165C4.49323 3.25875 4.31323 3.23925 4.10323 3.165C4.26748 3.47775 4.59898 3.70425 4.85323 3.97425C4.77823 4.017 4.67323 4.0485 4.38823 4.01325C4.62598 4.27125 4.91098 4.50525 5.25898 4.716C5.19598 4.78575 4.98523 4.782 4.77823 4.79025C5.09098 5.0955 5.49748 5.25525 5.87248 5.454C5.67748 5.59125 5.54023 5.55975 5.40748 5.55975C5.66173 5.78175 6.12673 5.8875 6.54823 6.021C6.45448 6.15675 6.38398 6.189 6.20023 6.216C6.64948 6.47025 7.27798 6.35325 7.46248 6.48525C7.41523 6.606 7.29823 6.696 7.14673 6.759C7.86448 6.80175 9.84598 6.74325 10.221 5.24325C9.48223 4.4355 8.13523 3.489 5.82598 2.32125L5.86723 2.33625ZM7.60198 0.102C7.83598 0.09825 8.03473 0.23775 8.25373 0.30525C8.78098 0.1335 8.90173 0.3675 9.15973 0.465C9.73798 0.34425 9.91348 0.60525 10.191 0.88275L10.512 0.87075C11.3827 1.3785 11.8162 2.40975 11.9692 2.93775C12.1215 2.40975 12.555 1.3785 13.4265 0.87075L13.7467 0.879C14.0235 0.59775 14.1997 0.33975 14.778 0.46125C15.0397 0.3555 15.1567 0.1335 15.6892 0.297C16.0215 0.19125 16.3102 -0.078 16.7475 0.24975C17.1142 0.102 17.4742 0.05475 17.7907 0.33975C18.2865 0.2805 18.4425 0.402 18.564 0.5505C18.6742 0.5505 19.3732 0.44475 19.6972 0.90975C20.5102 0.81975 20.7645 1.37475 20.4712 1.8975C20.6392 2.15175 20.811 2.39475 20.424 2.87475C20.5717 3.14475 20.4817 3.426 20.1502 3.7845C20.244 4.1595 20.076 4.4175 19.779 4.6245C19.8382 5.13675 19.299 5.4375 19.1497 5.53875C19.0875 5.8395 18.9667 6.1245 18.354 6.273C18.264 6.723 17.889 6.79725 17.529 6.88725C18.717 7.56225 19.7167 8.445 19.7167 10.617L19.8997 10.9178C21.2475 11.727 22.4625 14.3198 20.5717 16.434C20.4547 17.0903 20.244 17.5553 20.061 18.078C19.791 20.1908 17.979 21.18 17.502 21.3007C16.8112 21.8235 16.0642 22.32 15.0607 22.6635C14.115 23.6243 13.0837 23.9993 12.0637 23.9993H11.9745C10.9395 23.9993 9.90748 23.6243 8.96248 22.6635C7.95448 22.3193 7.20448 21.8272 6.51373 21.3007C6.03298 21.1838 4.23148 20.1945 3.95098 18.0817C3.76423 17.559 3.55723 17.0775 3.43573 16.4175C1.54048 14.3047 2.75173 11.7142 4.09948 10.9012L4.27123 10.6042C4.27123 8.433 5.27398 7.5465 6.45823 6.8745C6.09898 6.7845 5.73898 6.71025 5.63848 6.25725C5.02123 6.108 4.89973 5.823 4.84123 5.52225C4.69198 5.421 4.15348 5.12025 4.21198 4.5975C3.91123 4.38675 3.74698 4.1325 3.83698 3.74175C3.52423 3.3975 3.43498 3.0975 3.56698 2.8275C3.17698 2.3475 3.35623 2.09325 3.52123 1.85475C3.23548 1.3275 3.49348 0.762 4.30198 0.852C4.61398 0.387 5.32123 0.492 5.42323 0.492C5.54398 0.33975 5.70823 0.207 6.20398 0.26625C6.51673 -0.0195 6.87973 0.027 7.25098 0.16425C7.40323 0.0435 7.53598 0 7.65673 0L7.60198 0.102Z" fill="black"/>
</g>
<defs>
<clipPath id="clip0_201_58330">
<rect width="24" height="24" fill="white"/>
</clipPath>
</defs>
</svg>
