<svg width="24" height="24" viewBox="0 0 24 24" fill="none" xmlns="http://www.w3.org/2000/svg">
<g clip-path="url(#clip0_201_58278)">
<path d="M2.53503 9.285C2.53503 15.4605 7.55853 24 12 24C16.1798 24 21.465 15.4613 21.465 9.285C21.4688 3.11325 17.2268 0 12 0C6.77328 0 2.53503 3.11325 2.53503 9.285ZM14.4608 13.8517C15.5738 12.7387 17.1758 12.2618 18.7185 12.5903C19.0425 14.133 18.57 15.735 17.4525 16.848C16.3395 17.961 14.7375 18.438 13.1985 18.1095C12.87 16.5667 13.3433 14.9648 14.46 13.8517H14.4608ZM5.28153 12.5895C6.82428 12.261 8.42628 12.738 9.53928 13.851C10.6568 14.964 11.1293 16.566 10.8008 18.1087C9.26178 18.4373 7.65978 17.9602 6.54678 16.8472C5.42928 15.7342 4.95678 14.1322 5.28078 12.5895H5.28153Z" fill="black"/>
</g>
<defs>
<clipPath id="clip0_201_58278">
<rect width="24" height="24" fill="white"/>
</clipPath>
</defs>
</svg>
