<svg width="24" height="24" viewBox="0 0 24 24" fill="none" xmlns="http://www.w3.org/2000/svg">
<g clip-path="url(#clip0_201_58296)">
<path d="M4.92975 1.82405C3.84 2.37905 3.84 2.46455 4.85925 3.6053C10.5112 9.89855 11.8635 11.3865 11.9648 11.3865C12.1058 11.4023 19.9373 2.8433 20.0235 2.58605C20.0588 2.51555 19.8165 2.2733 19.5037 2.05055C19.0898 1.7378 18.6405 1.61705 17.793 1.5818C16.203 1.48055 15.6487 1.82405 13.6755 4.0388C12.777 5.03855 12.015 5.87105 12.015 5.87105C11.9993 5.87105 11.2575 5.0588 10.374 4.07405C9.4905 3.0893 8.472 2.10155 8.12775 1.9103C7.3305 1.46105 5.706 1.4258 4.9245 1.82405H4.92975ZM1.29675 4.3673C0.44925 4.6958 0 5.0078 0 5.2463C0 5.36705 1.332 6.9263 2.9415 8.70755C4.56675 10.4888 5.87925 11.9768 5.87925 12.0083C5.87925 12.0435 4.54725 13.5315 2.93775 15.3128C1.3125 17.1098 0.01575 18.684 0.03525 18.8205C0.1215 19.2893 1.539 19.8788 2.574 19.8788C4.254 19.8593 4.63275 19.566 8.1795 15.6758C9.96075 13.7228 11.4097 12.0623 11.4097 12.0075C11.4097 11.9408 9.9765 10.3163 8.21475 8.3783C5.91375 5.8703 4.78875 4.7453 4.254 4.50305C3.44175 4.1048 2.12925 4.03805 1.29675 4.36655V4.3673ZM19.7655 4.48805C19.2615 4.74605 18 5.9918 15.8205 8.37905C14.0588 10.3163 12.621 11.9415 12.621 12.0083C12.621 12.0788 14.0745 13.7228 15.8558 15.6765C19.3988 19.5675 19.7812 19.8601 21.4575 19.8795C22.4963 19.8795 23.9145 19.29 24.0007 18.8213C24.0165 18.6653 22.7197 17.1105 21.0945 15.3293C19.4888 13.5518 18.1567 12.0443 18.1567 12.009C18.1567 11.9775 19.4888 10.47 21.0945 8.6888C22.7197 6.9113 24.0165 5.3528 24.0007 5.2163C23.9145 4.76705 22.6335 4.2473 21.528 4.17755C20.7308 4.1423 20.3167 4.2128 19.7663 4.4903L19.7655 4.48805ZM7.953 16.9725C5.80875 19.3433 4.047 21.3473 4.01175 21.4335C3.9765 21.504 4.21875 21.7463 4.5315 21.969C4.9455 22.2818 5.39475 22.4025 6.24225 22.4378C7.8165 22.539 8.40225 22.176 10.3905 19.9298C11.2575 18.9608 12 18.1485 12.0157 18.1485C12.0352 18.1485 12.7778 18.9608 13.6605 19.9455C15.684 22.1955 16.2188 22.524 17.793 22.4378C18.6405 22.4025 19.0898 22.2818 19.5037 21.969C19.8165 21.7463 20.0588 21.504 20.0235 21.4335C19.9373 21.1755 12.1012 12.6135 11.9648 12.633C11.8942 12.633 10.0972 14.586 7.953 16.9725Z" fill="black"/>
</g>
<defs>
<clipPath id="clip0_201_58296">
<rect width="24" height="24" fill="white"/>
</clipPath>
</defs>
</svg>
