<svg width="24" height="24" viewBox="0 0 24 24" fill="none" xmlns="http://www.w3.org/2000/svg">
<path d="M12 0C7.50375 3 6.00375 3 1.5 3C1.5 18.0037 1.5 18.0037 12 24C22.5 18.0037 22.5 18.0037 22.5 3C18.0037 3 16.5037 3 12 0ZM5.95725 7.473H7.46925V12.0082C7.46925 13.3282 7.656 13.5165 8.9805 13.5165C10.3057 13.5165 10.4925 13.3245 10.4925 12.0045V7.47375H12.0007V8.23875C12.6525 7.743 13.4497 7.47375 14.271 7.47375C16.353 7.4805 18.0397 9.16875 18.0443 11.2545C18.036 13.3365 16.3493 15.0233 14.2673 15.0278C13.2555 15.024 12.2865 14.6175 11.5793 13.896C11.118 14.6648 10.2675 15.0278 8.98125 15.0278C6.903 15.0278 5.958 14.0828 5.958 12.0045L5.95725 7.473ZM14.2657 8.98425C13.008 8.9775 11.9917 9.996 12 11.2545C11.9963 12.5085 13.0163 13.5232 14.2703 13.5165C15.5235 13.5232 16.539 12.5048 16.5315 11.2463C16.5398 9.99225 15.5205 8.9775 14.2665 8.98425H14.2657Z" fill="black"/>
</svg>
