<svg width="24" height="24" viewBox="0 0 24 24" fill="none" xmlns="http://www.w3.org/2000/svg">
<g clip-path="url(#clip0_201_57326)">
<path d="M21.699 5.30847L12.945 0.25347C12.363 -0.0862803 11.64 -0.0862803 11.0543 0.25347L2.30029 5.30397C1.71454 5.64372 1.35529 6.26847 1.35529 6.94422V17.0535C1.35529 17.7255 1.71454 18.3502 2.30029 18.69L11.0543 23.745C11.64 24.081 12.3593 24.081 12.945 23.745L21.7028 18.69C22.2848 18.3502 22.6478 17.7292 22.6478 17.0535V6.94422C22.6478 6.26847 22.2848 5.64372 21.7028 5.30772L21.699 5.30847ZM14.25 13.0582L10.4453 16.863L9.09379 15.5115L12.8985 11.7067L9.09379 7.90197L10.4453 6.55047L15.6015 11.7067L14.25 13.0582Z" fill="black"/>
</g>
<defs>
<clipPath id="clip0_201_57326">
<rect width="24" height="24" fill="white"/>
</clipPath>
</defs>
</svg>
