<svg width="24" height="24" viewBox="0 0 24 24" fill="none" xmlns="http://www.w3.org/2000/svg">
<path d="M11.3438 18.0307C11.4015 18.078 11.4645 18.129 11.523 18.1755C10.3478 18.9607 8.934 19.4137 7.41825 19.4137C3.32025 19.4137 0 16.098 0 12C0 7.90575 3.32025 4.58625 7.41375 4.58625C8.934 4.58625 10.3477 5.03925 11.52 5.82C11.4607 5.871 11.4023 5.922 11.355 5.973C9.60225 7.488 8.59425 9.68775 8.59425 12C8.59425 14.3123 9.5985 16.512 11.3445 18.0307H11.3438ZM16.5863 4.58625C15.0623 4.58625 13.6522 5.03925 12.48 5.82C12.5392 5.871 12.5978 5.922 12.645 5.973C14.3978 7.488 15.4058 9.68775 15.4058 12C15.4058 14.3092 14.4015 16.5083 12.6555 18.0307C12.5978 18.078 12.5347 18.129 12.4762 18.1755C13.6515 18.9607 15.0615 19.4137 16.581 19.4137C20.679 19.4137 23.9993 16.098 23.9993 12C23.9993 7.90575 20.679 4.58625 16.5855 4.58625H16.5863ZM12 6.17625C11.9017 6.2505 11.8118 6.324 11.7188 6.4065C10.1558 7.76625 9.168 9.7665 9.168 12.0007C9.168 14.235 10.1558 16.2345 11.7188 17.595C11.8088 17.6767 11.9055 17.7547 12 17.829C12.0983 17.7547 12.1882 17.6767 12.2812 17.595C13.8442 16.2352 14.832 14.235 14.832 12.0007C14.832 9.7665 13.8442 7.767 12.2812 6.4065C12.1912 6.32475 12.0983 6.2505 12 6.17625Z" fill="black"/>
</svg>
