<svg width="24" height="24" viewBox="0 0 24 24" fill="none" xmlns="http://www.w3.org/2000/svg">
<g clip-path="url(#clip0_201_57984)">
<path d="M22.9763 10.6125C22.9763 9.84374 23.0963 9.38999 23.0963 8.56499C23.0963 7.28249 22.6238 6.86999 21.5775 6.86999H20.8088V7.77749H21.045C21.5775 7.77749 21.6938 7.95374 21.6938 8.60624C21.6938 9.21749 21.6338 9.82874 21.6338 10.5375C21.6338 11.445 21.93 11.7975 22.5188 11.9362V11.9962C21.9263 12.135 21.6338 12.4875 21.6338 13.395C21.6338 14.1037 21.6938 14.6775 21.6938 15.3262C21.6938 15.9975 21.555 16.1737 21.045 16.1737V16.1925H20.8088V17.1375H21.5775C22.62 17.1375 23.0963 16.725 23.0963 15.4425C23.0963 14.595 22.9763 14.16 22.9763 13.395C22.9763 12.9825 23.2313 12.5475 24 12.51V11.4862C23.2313 11.46 22.9763 11.025 22.9763 10.6125ZM19.0163 11.8125C18.4238 11.5762 17.8725 11.4375 17.8725 11.0437C17.8725 10.7475 18.1088 10.5712 18.5438 10.5712C18.9788 10.5712 19.3725 10.7475 19.8038 11.0625L20.5913 10.02C20.1 9.64499 19.4288 9.25124 18.5213 9.25124C17.1825 9.25124 16.275 10.02 16.275 11.1037C16.275 12.0675 17.1225 12.5625 17.8313 12.8362C18.4425 13.0725 19.035 13.2712 19.035 13.665C19.035 13.9612 18.7988 14.1562 18.2663 14.1562C17.775 14.1562 17.28 13.9575 16.7475 13.545L15.96 14.6887C16.5525 15.18 17.4563 15.5175 18.2063 15.5175C19.7813 15.5175 20.6288 14.6887 20.6288 13.605C20.6288 12.5212 19.785 12.0675 19.0163 11.8125ZM5.55753 14.04C5.41878 14.04 5.24253 13.92 5.24253 13.5487V6.86624H2.44503C1.38003 6.86624 0.907534 7.27874 0.907534 8.56124C0.907534 9.40874 1.02753 9.88124 1.02753 10.6087C1.02753 11.0212 0.772534 11.4562 0.00378418 11.4937V12.5175C0.772534 12.5362 1.02753 12.9712 1.02753 13.3837C1.02753 14.1112 0.907534 14.5462 0.907534 15.3937C0.907534 16.6762 1.38003 17.0887 2.42628 17.0887H3.19503V16.1812H2.95878C2.46753 16.1812 2.31003 15.9825 2.31003 15.3337C2.31003 14.685 2.37003 14.13 2.37003 13.4025C2.37003 12.495 2.07378 12.1425 1.48503 12.0037V11.9437C2.07753 11.805 2.37003 11.4525 2.37003 10.545C2.37003 9.83624 2.31003 9.26249 2.31003 8.61374C2.31003 7.96499 2.44878 7.78499 2.95878 7.78499H3.48753V13.44C3.48753 14.6437 3.90003 15.4312 5.10378 15.4312C5.47878 15.4312 5.77503 15.3712 5.98878 15.2925L5.79003 14.01C5.67378 14.04 5.61753 14.04 5.55753 14.04ZM14.2463 11.8125C13.635 11.5762 13.0838 11.4375 13.0838 11.0437C13.0838 10.7475 13.32 10.5712 13.755 10.5712C14.19 10.5712 14.5838 10.7475 15.015 11.0625L15.8025 10.02C15.3113 9.64499 14.64 9.25124 13.7325 9.25124C12.3938 9.25124 11.4863 10.02 11.4863 11.1037C11.4863 12.0675 12.3338 12.5625 13.0425 12.8362C13.6538 13.0725 14.2463 13.2712 14.2463 13.665C14.2463 13.9612 14.01 14.1562 13.4775 14.1562C12.9863 14.1562 12.4913 13.9575 11.9588 13.545L11.19 14.6887C11.7825 15.18 12.6863 15.5175 13.4363 15.5175C15.0113 15.5175 15.8588 14.6887 15.8588 13.605C15.8625 12.5212 15.015 12.0675 14.2463 11.8125ZM8.43378 9.23249C6.99378 9.23249 5.61753 10.4362 5.65503 12.3262C5.65503 14.2762 6.93753 15.42 8.62878 15.42C9.33753 15.42 10.125 15.165 10.7363 14.7487L10.1438 13.7062C9.70878 13.9612 9.29628 14.0812 8.86128 14.0812C8.07378 14.0812 7.46253 13.7062 7.30503 12.7987H10.875C10.8938 12.66 10.935 12.3862 10.935 12.0712C10.9575 10.4737 10.0875 9.23249 8.43378 9.23249ZM7.30878 11.715C7.42878 10.9275 7.90128 10.5525 8.45253 10.5525C9.16128 10.5525 9.43878 11.0437 9.43878 11.715H7.30878Z" fill="black"/>
</g>
<defs>
<clipPath id="clip0_201_57984">
<rect width="24" height="24" fill="white"/>
</clipPath>
</defs>
</svg>
