<svg width="24" height="24" viewBox="0 0 24 24" fill="none" xmlns="http://www.w3.org/2000/svg">
<path d="M12.2482 8.55975C9.9375 8.55975 8.067 10.4303 8.067 12.741C8.067 15.0518 9.9375 16.9222 12.2482 16.9222C14.559 16.9222 16.4295 15.0518 16.4295 12.741C16.4295 10.4303 14.5545 8.55975 12.2482 8.55975ZM15.1875 11.2125L12.4268 12.6473C12.342 12.6893 12.2482 12.6285 12.2482 12.5392V9.42225C12.2482 9.35175 12.309 9.2955 12.375 9.3C13.6027 9.34725 14.667 10.0357 15.2393 11.0392C15.2723 11.1 15.2483 11.1803 15.1875 11.2125ZM19.7393 1.5H4.26075C2.7375 1.5 1.5 2.7375 1.5 4.26075V19.734C1.5 21.2625 2.7375 22.5 4.26075 22.5H19.734C21.2625 22.5 22.4948 21.2625 22.4948 19.7393V4.26075C22.4993 2.7375 21.2618 1.5 19.7385 1.5H19.7393ZM10.242 5.4705C10.242 4.96425 10.65 4.55625 11.1562 4.55625H13.2795C13.7857 4.55625 14.1937 4.96425 14.1937 5.4705V6.19275C14.1937 6.27675 14.1143 6.33375 14.0392 6.30975C13.4625 6.15 12.8625 6.0705 12.2535 6.0705C11.6205 6.0705 11.0017 6.15525 10.407 6.3285C10.3275 6.35175 10.248 6.291 10.248 6.2115V5.4705H10.242ZM6.28575 7.2045L6.717 6.77325C7.07325 6.417 7.65 6.417 8.00625 6.77325L8.367 7.134C8.41875 7.18575 8.41425 7.275 8.35275 7.3215C8.0625 7.53225 7.78575 7.7625 7.52775 8.01975C7.27425 8.2725 7.04025 8.54925 6.834 8.835C6.78675 8.89575 6.69825 8.9055 6.6465 8.84925L6.28575 8.4885C5.9295 8.13675 5.9295 7.56 6.28575 7.20375V7.2045ZM12.2482 18.6795C8.967 18.6795 6.3135 16.0215 6.3135 12.7448C6.3135 9.468 8.9715 6.81075 12.2482 6.81075C15.5295 6.81075 18.1823 9.4635 18.1823 12.7448C18.1823 16.017 15.5243 18.6795 12.2482 18.6795Z" fill="black"/>
</svg>
