<svg width="24" height="24" viewBox="0 0 24 24" fill="none" xmlns="http://www.w3.org/2000/svg">
<g clip-path="url(#clip0_201_57460)">
<path d="M11.9858 0.375C5.23125 0.375 0.375 5.85 0.375 12C0.375 18.3937 5.616 23.625 11.9858 23.625C18.0885 23.625 23.625 18.9 23.625 12C23.625 5.49375 18.5858 0.375 11.9858 0.375ZM12.0142 21.5018C6.76425 21.5018 2.4705 17.166 2.4705 12C2.4705 11.0107 2.6115 10.0688 2.89275 9.17325L8.84625 11.8215H7.53825V13.6312H10.2615L10.5292 14.1847V15.0615H7.53825V16.8757H10.5292V19.5007H13.4213V16.8757H16.4303V15.2025L20.2275 16.8945C20.157 16.998 17.5508 21.5025 12.015 21.5025L12.0142 21.5018ZM16.1205 15.0653H13.4205V14.1885L13.5563 13.926L16.1205 15.0653ZM16.425 12.6562V11.8215H14.616L17.5695 6.384H14.4847L12.4508 10.884L11.3722 10.4062L9.516 6.38925H6.43125L7.71075 8.78025L3.8715 7.0695C5.17425 5.0025 7.743 2.47125 12.0135 2.47125C17.301 2.47125 21.5295 6.69 21.5295 12.006C21.5295 12.9907 21.4028 13.9087 21.159 14.772L16.425 12.6562Z" fill="black"/>
</g>
<defs>
<clipPath id="clip0_201_57460">
<rect width="24" height="24" fill="white"/>
</clipPath>
</defs>
</svg>
