<svg width="24" height="24" viewBox="0 0 24 24" fill="none" xmlns="http://www.w3.org/2000/svg">
<g clip-path="url(#clip0_201_57184)">
<path d="M6.76202 10.035C6.76202 10.332 6.79727 10.5705 6.85202 10.746C6.91427 10.9215 6.99677 11.1135 7.10627 11.3205C7.14902 11.3872 7.16477 11.4495 7.16477 11.5042C7.16477 11.586 7.11377 11.6647 7.01252 11.7465L6.50852 12.0787C6.44627 12.126 6.37577 12.1492 6.30152 12.153C6.21977 12.153 6.14102 12.114 6.06302 12.0397C5.95352 11.9265 5.85977 11.8012 5.77427 11.6647C5.68427 11.5125 5.60252 11.3565 5.52827 11.196C4.90352 11.9302 4.12202 12.2977 3.18077 12.2977C2.50877 12.2977 1.97402 12.1065 1.58327 11.7232C1.19252 11.3362 0.993766 10.8285 0.993766 10.188C0.993766 9.51221 1.23227 8.95721 1.72052 8.54321C2.20877 8.12921 2.85302 7.92221 3.67727 7.92221C3.94652 7.92221 4.22777 7.94546 4.52102 7.98446C4.81802 8.02346 5.12252 8.09021 5.43902 8.15996V7.57796C5.43902 6.97271 5.31377 6.54671 5.06402 6.30071C4.80977 6.05471 4.38077 5.93321 3.76352 5.93321C3.48602 5.93321 3.19727 5.96471 2.90027 6.03446C2.60702 6.10871 2.31827 6.19496 2.04077 6.30821C1.94702 6.35096 1.85327 6.38246 1.75952 6.41396C1.72052 6.42596 1.67777 6.43346 1.63427 6.43721C1.52102 6.43721 1.46627 6.35546 1.46627 6.18746V5.79671C1.46627 5.67146 1.48202 5.57396 1.52102 5.51921C1.57952 5.44496 1.65752 5.38646 1.74377 5.35121C2.02502 5.20646 2.35727 5.08571 2.74802 4.99196C3.15827 4.88621 3.57602 4.83596 3.99377 4.83971C4.94702 4.83971 5.63852 5.05421 6.08777 5.48846C6.52502 5.91821 6.74777 6.57071 6.74777 7.44971V10.0357L6.76202 10.035ZM3.52352 11.25C3.78527 11.25 4.05902 11.2027 4.34402 11.1052C4.63277 11.0115 4.88702 10.836 5.10152 10.5975C5.23052 10.4452 5.32802 10.2772 5.37527 10.086C5.42252 9.89471 5.45327 9.65996 5.45327 9.39071V9.05471C5.21102 8.99621 4.96877 8.94896 4.71902 8.91821C4.47302 8.88671 4.22327 8.87096 3.96902 8.87096C3.43352 8.87096 3.04352 8.97671 2.78177 9.19121C2.51627 9.40571 2.39102 9.71096 2.39102 10.1092C2.39102 10.4842 2.48477 10.7617 2.68427 10.953C2.87552 11.1525 3.15677 11.25 3.52427 11.25H3.52352ZM9.93377 12.1132C9.78902 12.1132 9.69152 12.09 9.62927 12.0315C9.56702 11.9842 9.50852 11.871 9.46127 11.7232L7.58627 5.55146C7.55102 5.44571 7.52402 5.34071 7.51577 5.23121C7.51577 5.10221 7.57802 5.03171 7.70327 5.03171H8.48852C8.64077 5.03171 8.74277 5.05496 8.79677 5.10971C8.86352 5.15696 8.91002 5.27021 8.95727 5.42246L10.3013 10.7077L11.547 5.42246C11.586 5.26196 11.6333 5.15696 11.6955 5.10971C11.793 5.05121 11.9025 5.02346 12.0158 5.03171H12.6525C12.8048 5.03171 12.9105 5.05496 12.9728 5.10971C13.035 5.15696 13.0935 5.27021 13.125 5.42246L14.3865 10.77L15.7658 5.42246C15.8168 5.26196 15.8715 5.15696 15.9263 5.10971C16.02 5.05121 16.1295 5.02346 16.239 5.03171H16.9815C17.1105 5.03171 17.181 5.09396 17.181 5.23121C17.181 5.27021 17.1735 5.30921 17.1653 5.36021C17.1533 5.42696 17.1338 5.49296 17.1105 5.55971L15.1845 11.7277C15.1373 11.8882 15.0833 11.9932 15.0165 12.0405C14.9265 12.099 14.8215 12.1267 14.7158 12.1185H14.028C13.8758 12.1185 13.7738 12.0952 13.7078 12.0405C13.6455 11.9857 13.5908 11.88 13.5593 11.7202L12.321 6.57146L11.0903 11.712C11.0513 11.8725 11.004 11.9775 10.938 12.0322C10.8758 12.087 10.7625 12.1102 10.6178 12.1102L9.93377 12.1132ZM20.1878 12.3285C19.7738 12.3285 19.3598 12.2775 18.9615 12.1837C18.5633 12.09 18.2505 11.9842 18.0435 11.8635C17.9145 11.793 17.829 11.715 17.7975 11.6407C17.766 11.5702 17.7465 11.496 17.7465 11.418V11.0115C17.7465 10.8435 17.8133 10.7617 17.9303 10.7617C17.9775 10.7617 18.0278 10.7692 18.075 10.785C18.1223 10.8045 18.1958 10.836 18.2745 10.8667C18.5483 10.9875 18.8408 11.0812 19.1535 11.1442C19.4738 11.211 19.7828 11.2417 20.103 11.2417C20.607 11.2417 20.9978 11.1517 21.267 10.9762C21.5325 10.8157 21.693 10.527 21.6848 10.2187C21.6885 10.0117 21.6105 9.81221 21.4703 9.65996C21.3255 9.51146 21.0525 9.37496 20.6618 9.24596L19.5053 8.88671C18.9233 8.70296 18.4898 8.43371 18.228 8.07446C17.97 7.74221 17.8298 7.33646 17.826 6.91421C17.826 6.57821 17.9003 6.28496 18.045 6.02771C18.1898 5.77346 18.381 5.55146 18.6195 5.37521C18.858 5.19146 19.131 5.05496 19.4475 4.96121C19.7678 4.86371 20.1038 4.82471 20.4555 4.82471C20.631 4.82471 20.8148 4.83221 20.991 4.85621C21.1748 4.87946 21.3428 4.91096 21.5108 4.94621C21.6668 4.98521 21.819 5.02421 21.9638 5.07146C22.1085 5.11871 22.2218 5.16896 22.2998 5.21621C22.3935 5.26346 22.4753 5.33321 22.5383 5.41571C22.593 5.49371 22.6163 5.58746 22.6125 5.68121V6.05621C22.6125 6.22421 22.5458 6.31046 22.4288 6.31046C22.3193 6.29846 22.218 6.26771 22.1243 6.21671C21.6435 6.00221 21.12 5.89646 20.5928 5.90396C20.136 5.90396 19.776 5.97446 19.53 6.12671C19.2803 6.27896 19.155 6.50921 19.155 6.83771C19.155 7.06046 19.233 7.25171 19.3935 7.40396C19.554 7.55621 19.8503 7.70846 20.2725 7.84571L21.405 8.20121C21.9795 8.38496 22.3973 8.64296 22.6433 8.97071C22.8893 9.29471 23.0108 9.66971 23.0108 10.0882C23.0108 10.428 22.9365 10.7407 22.8038 11.0137C22.659 11.283 22.4678 11.5215 22.2218 11.7172C21.972 11.9167 21.6788 12.057 21.3353 12.1627C20.976 12.2722 20.601 12.3307 20.1908 12.3307L20.1878 12.3285ZM21.699 16.2067C19.0703 18.1485 15.2573 19.1752 11.976 19.1752C7.37852 19.1752 3.23402 17.4757 0.105016 14.6482C-0.140984 14.4255 0.0817661 14.121 0.378766 14.3002C3.76127 16.2615 7.93727 17.4525 12.2535 17.4525C15.1673 17.4525 18.3668 16.8427 21.3158 15.6007C21.753 15.3975 22.128 15.8857 21.6983 16.206L21.699 16.2067ZM22.7933 14.961C22.4573 14.5312 20.5703 14.754 19.719 14.8597C19.4648 14.8912 19.422 14.6647 19.6568 14.4967C21.1568 13.446 23.6213 13.7467 23.9108 14.0985C24.1958 14.4615 23.829 16.9267 22.4265 18.1065C22.212 18.2902 22.0005 18.1965 22.098 17.9542C22.4183 17.1652 23.1293 15.3877 22.7933 14.9617V14.961Z" fill="black"/>
</g>
<defs>
<clipPath id="clip0_201_57184">
<rect width="24" height="24" fill="white"/>
</clipPath>
</defs>
</svg>
