<svg width="24" height="24" viewBox="0 0 24 24" fill="none" xmlns="http://www.w3.org/2000/svg">
<g clip-path="url(#clip0_201_58708)">
<path d="M23.1487 2.586L18.2115 0.210751C17.637 -0.0667491 16.9537 0.0502509 16.5045 0.499501L7.0477 9.12825L2.92645 6.003C2.54395 5.70975 2.0047 5.73375 1.6492 6.05775L0.329201 7.26075C-0.108049 7.65525 -0.108049 8.343 0.325451 8.7375L3.89995 11.9993L0.325451 15.261C-0.108049 15.6555 -0.108049 16.3433 0.329201 16.7378L1.6492 17.9408C2.00845 18.2648 2.54395 18.2888 2.92645 17.9955L7.0477 14.8665L16.5089 23.499C16.9545 23.9483 17.6377 24.0653 18.2122 23.7878L23.1539 21.4088C23.6737 21.159 24.0015 20.6355 24.0015 20.0573V3.936C24.0015 3.3615 23.6692 2.83425 23.1502 2.5845L23.1487 2.586ZM18.0037 17.4495L10.824 12L18.0037 6.5505V17.4495Z" fill="black"/>
</g>
<defs>
<clipPath id="clip0_201_58708">
<rect width="24" height="24" fill="white"/>
</clipPath>
</defs>
</svg>
