<svg width="24" height="24" viewBox="0 0 24 24" fill="none" xmlns="http://www.w3.org/2000/svg">
<g clip-path="url(#clip0_201_57452)">
<path d="M7.88626 10.6575C7.67626 9.72755 6.87751 9.11255 5.97376 9.11255H4.58626C4.32001 9.11255 4.11751 9.2813 4.05001 9.5213L2.74126 14.4L3.66751 14.3963C3.92251 14.3963 4.12876 14.2275 4.20001 13.995L5.16751 10.4063H5.91001C6.22501 10.4063 6.51751 10.6163 6.59626 10.9613C6.69001 11.37 6.37501 11.8088 5.91001 11.8088H5.52376C5.26126 11.8088 5.05501 11.9813 4.98751 12.2138L4.74751 13.1063H5.94751C7.34251 13.1063 8.13376 11.7488 7.88626 10.6575ZM2.01751 11.7075H2.71501C2.97376 11.7075 3.18001 11.5425 3.25126 11.2988L3.48376 10.4138H1.98376C1.12501 10.4138 0.337509 10.9425 0.0637594 11.955C-0.262491 13.2225 0.693759 14.4 1.95001 14.4H2.41501L2.68126 13.4213C2.72626 13.2563 2.59876 13.11 2.44126 13.11H2.01751C1.09126 13.11 1.08376 11.7075 2.01751 11.7075ZM11.2988 10.4025H8.37751L8.24626 10.905C8.15626 11.265 8.41501 11.5988 8.77876 11.5988H10.935C11.085 11.5988 11.025 11.76 11.0138 11.7975L10.6913 12.99C10.6763 13.0425 10.6575 13.1888 10.485 13.1888H9.17626C8.97751 13.1888 8.97751 12.8925 9.17626 12.8925H9.98626C10.2413 12.8925 10.4475 12.72 10.5188 12.4875L10.65 11.9925H8.83501C7.36501 11.9925 7.20001 14.385 8.80876 14.385L10.965 14.3925C11.385 14.3925 11.7375 14.1225 11.8425 13.725L12.3675 11.7825C12.5475 11.0625 12.0038 10.4025 11.2988 10.4025ZM23.7413 9.11255H23.0325C22.8488 9.11255 22.6875 9.23255 22.6425 9.4088L21.3075 14.4C22.0838 14.4 22.8 13.8825 22.9913 13.1063L23.985 9.4238C24.03 9.26255 23.91 9.11255 23.7413 9.11255ZM14.88 10.4138V10.4175H13.0688L12.0863 14.0925C12.0413 14.2575 12.1688 14.4038 12.3263 14.4038H13.035C13.215 14.4038 13.38 14.2913 13.425 14.1113L14.07 11.7113H14.8125C15.2813 11.7113 15.615 12.1538 15.4913 12.5888L15.0938 14.0888C15.0488 14.25 15.165 14.4 15.3338 14.4H16.05C16.2225 14.4 16.3913 14.2913 16.4363 14.1075L16.7663 12.8663C17.1038 11.625 16.17 10.4138 14.88 10.4138ZM18.5663 13.2113C18.4313 13.2113 18.3413 13.0838 18.375 12.96L18.675 11.835C18.7088 11.6888 18.8138 11.61 18.9675 11.61H20.2013C20.2988 11.61 20.3738 11.7 20.3475 11.8013L20.3213 11.8988C20.2988 11.9738 20.25 12.0113 20.175 12.0113H19.365C19.1025 12.0113 18.8925 12.1838 18.8325 12.4163L18.7013 12.9038H20.7038C21.0975 12.9038 21.465 12.6563 21.5738 12.2438L21.6938 11.7938C21.8775 11.0775 21.345 10.4138 20.6325 10.4138H18.8588C18.1875 10.4138 17.5913 10.8638 17.4113 11.5238L17.0063 13.0238C16.8188 13.6875 17.3175 14.4 18.0675 14.4H20.5688C20.8238 14.4 21.03 14.2313 21.1013 13.9988L21.315 13.2113H18.5663Z" fill="black"/>
</g>
<defs>
<clipPath id="clip0_201_57452">
<rect width="24" height="24" fill="white"/>
</clipPath>
</defs>
</svg>
