<svg width="24" height="24" viewBox="0 0 24 24" fill="none" xmlns="http://www.w3.org/2000/svg">
<g clip-path="url(#clip0_201_58766)">
<path d="M12 0C5.37075 0 0 5.37075 0 12C0 18.6292 5.37075 24 12 24C18.6292 24 24 18.6292 24 12C24 5.37075 18.6292 0 12 0ZM18.5858 14.6565C17.1015 14.6565 15.894 13.4497 15.894 11.9648C15.894 10.4797 17.1007 9.273 18.5858 9.273C20.07 9.273 21.273 10.4797 21.273 11.9648C21.273 13.4497 20.0662 14.6565 18.5858 14.6565ZM7.5315 14.6445C7.43025 14.6445 7.34025 14.6018 7.26225 14.5275L5.21925 12.4882L3.16875 14.535C3.09825 14.6017 3.00825 14.6445 2.91075 14.6445C2.7075 14.6445 2.54325 14.4765 2.54325 14.2733C2.54325 14.1757 2.58225 14.0857 2.65275 14.0115L4.692 11.961L2.6565 9.91425C2.5785 9.8475 2.54325 9.75375 2.54325 9.6525C2.54325 9.44925 2.7075 9.2895 2.91075 9.2895C3.00825 9.2895 3.09825 9.32475 3.16875 9.39525L5.22375 11.442L7.2705 9.39525C7.341 9.32475 7.43475 9.2895 7.53225 9.2895C7.743 9.2895 7.90725 9.45375 7.90725 9.6525C7.90725 9.75375 7.88025 9.84375 7.8015 9.9105L5.7465 11.9692L7.8015 14.0198C7.86825 14.0865 7.90725 14.1803 7.90725 14.2778C7.90725 14.4773 7.73925 14.6453 7.53975 14.6453L7.5315 14.6445ZM15.5468 10.0545C14.7495 10.152 14.664 10.527 14.664 11.457V14.2425C14.664 14.4458 14.4998 14.61 14.301 14.61C14.0978 14.61 13.9335 14.4458 13.9298 14.2425V9.7155C13.9298 9.51225 14.0902 9.348 14.2927 9.348C14.4607 9.348 14.6093 9.47325 14.6407 9.63675C14.91 9.42975 15.2385 9.32025 15.5707 9.32025H15.6765C15.8678 9.32025 16.032 9.4845 16.032 9.68775C16.032 9.891 15.8677 10.0395 15.657 10.047C15.657 10.047 15.567 10.047 15.4928 10.0545H15.5468ZM12.4567 12.258H8.625C8.625 12.2775 8.62875 12.297 8.6325 12.3165C8.652 12.4223 8.67525 12.5273 8.71425 12.6248C8.9055 13.1558 9.48 13.8982 10.5428 13.914C10.8713 13.9102 11.1757 13.8278 11.4412 13.6875C11.652 13.5667 11.8358 13.4137 11.9685 13.2577C12.0113 13.1993 12.0585 13.1445 12.0892 13.0897C12.2692 12.8595 12.4912 12.9023 12.6285 13.008C12.7927 13.1407 12.8085 13.3988 12.6713 13.578L12.6555 13.5938C12.4448 13.863 12.222 14.0895 11.9677 14.2537C11.7135 14.418 11.4405 14.535 11.1555 14.5972C10.827 14.6872 10.5112 14.703 10.1827 14.6558C9.08475 14.523 8.17125 13.7257 7.90125 12.648C7.84275 12.4373 7.81125 12.2257 7.81125 12.0037C7.81125 11.148 8.2335 10.3088 8.93625 9.7965C9.819 9.183 11.022 9.1365 11.9362 9.72225C12.5655 10.1287 12.9712 10.7415 13.1198 11.4915C13.194 11.9137 12.909 12.2888 12.3855 12.3038L12.4567 12.258ZM18.5858 10.035C17.5193 10.035 16.6522 10.8982 16.6522 11.9648C16.6522 13.0312 17.5193 13.8983 18.5858 13.8983C19.6485 13.8983 20.5155 13.0312 20.5155 11.9648C20.5155 10.902 19.6485 10.0312 18.5858 10.0312V10.035ZM18.5858 12.6293C18.2183 12.6293 17.9175 12.3323 17.9175 11.9655C17.9175 11.5988 18.2183 11.3018 18.5858 11.3018C18.9533 11.3018 19.254 11.5988 19.254 11.9655C19.254 12.3323 18.9533 12.6338 18.5858 12.6293ZM10.5472 10.0275C9.63675 10.0275 8.87175 10.6485 8.66025 11.4923V11.5238H12.4335C12.2302 10.668 11.4608 10.0275 10.5428 10.0275H10.5472Z" fill="black"/>
</g>
<defs>
<clipPath id="clip0_201_58766">
<rect width="24" height="24" fill="white"/>
</clipPath>
</defs>
</svg>
