<svg width="24" height="24" viewBox="0 0 24 24" fill="none" xmlns="http://www.w3.org/2000/svg">
<path d="M17.172 3.04724H17.1053C17.0385 3.04724 16.9725 3.05099 16.9058 3.05474C16.8668 3.05474 16.8278 3.05849 16.7888 3.06224C16.7378 3.06599 16.6913 3.07424 16.6365 3.07799L16.5158 3.09374C16.461 3.10124 16.41 3.11324 16.3553 3.12074C16.281 3.13649 16.203 3.15224 16.1325 3.17174C16.1055 3.17924 16.074 3.18374 16.0463 3.19124L15.8745 3.23849C15.8625 3.24224 15.8513 3.24599 15.8393 3.25049C14.7848 3.58274 13.8825 4.30499 13.3275 5.30099C13.3118 5.32424 13.3005 5.34824 13.2848 5.37149C13.2773 5.39474 13.2615 5.41424 13.2495 5.43824L13.2338 5.47349C12.933 6.06749 12.765 6.73949 12.765 7.44974V8.25074C12.558 8.25074 12.39 8.41499 12.39 8.62199C12.39 8.82524 12.558 8.99324 12.765 8.99324V11.8642C11.757 11.9617 10.7888 12.2977 9.94054 12.8445C9.69829 12.9967 9.46429 13.1685 9.24904 13.3522L9.24154 13.3597C9.23779 13.3635 9.22954 13.3717 9.22579 13.3717C9.15154 13.4422 9.08104 13.5082 9.01129 13.5667C8.82004 13.731 8.62054 13.8795 8.40979 14.0122C8.40604 14.0122 8.40229 14.016 8.39779 14.0197C8.13979 14.1802 7.92529 14.2972 7.72204 14.391C7.56154 14.4615 7.39804 14.52 7.22629 14.571L7.15954 14.5942C7.14379 14.598 7.12429 14.6062 7.10479 14.61C6.60079 14.766 6.07729 14.8447 5.53429 14.8447C4.14754 14.8447 2.85079 14.3175 1.87804 13.4032C2.33104 13.5637 2.81179 13.6492 3.30004 13.6492C4.38229 13.6492 5.42104 13.2352 6.20629 12.5167C6.34729 13.2 6.64804 13.845 7.08529 14.3955C7.28029 14.337 7.46029 14.2747 7.63579 14.196C7.69429 14.169 7.75279 14.1412 7.81579 14.1097C7.21429 13.434 6.86629 12.5587 6.85504 11.6452C6.85129 11.4847 6.74554 11.3445 6.59329 11.2972C6.44104 11.2462 6.27304 11.301 6.17929 11.43C5.51104 12.3517 4.43704 12.903 3.30004 12.903C2.30404 12.903 1.34329 12.477 0.67129 11.739C0.55804 11.6137 0.37804 11.5785 0.22579 11.6572C0.0772899 11.7315 -0.00446011 11.8957 0.0307899 12.0592L0.0427899 12.114V12.1177C0.92554 15.9382 3.77704 19.1025 7.48804 20.3797C8.32804 20.6685 9.20704 20.8605 10.101 20.9497H10.1363C10.23 20.9497 10.3163 20.9145 10.386 20.856C10.464 20.7855 10.5113 20.6842 10.5113 20.5785V18.594C10.5113 17.6527 10.6988 16.7422 11.0775 15.891C11.343 15.3015 11.6873 14.7585 12.105 14.2702L11.6985 14.028L12.1868 14.1765L14.691 14.8912C14.8238 14.9497 14.9565 15.0045 15.093 15.0555V14.2545C14.4638 13.977 13.917 13.5712 13.503 13.0627V8.99249H13.6553V10.0042C13.6553 10.7347 14.2493 11.3325 14.9835 11.3325H15.5145C16.2023 11.3325 16.7723 10.8015 16.839 10.1295C16.8428 10.11 16.8428 10.0905 16.8428 10.0672C16.8428 9.88724 16.9875 9.74324 17.1668 9.74324C17.346 9.74324 17.4908 9.88799 17.4908 10.0672C17.4908 10.0905 17.4945 10.11 17.4983 10.1295C17.5605 10.8052 18.1313 11.3325 18.8183 11.3325H19.3538C20.088 11.3325 20.682 10.7385 20.682 10.0042V8.99249H20.8305V13.0665C20.4165 13.5742 19.8698 13.9807 19.2405 14.2582V15.0592C19.377 15.0082 19.5143 14.9497 19.6425 14.8912L22.1468 14.1765L22.1505 14.1802L22.6545 14.0317L22.2368 14.2777C22.5998 14.7075 22.9088 15.1762 23.1548 15.6802C23.217 15.8092 23.3498 15.891 23.4908 15.891H23.514C23.6625 15.879 23.7915 15.7815 23.8425 15.6412C23.9438 15.3442 23.9985 15.0277 23.9985 14.7075C23.9985 13.266 22.9598 12.0825 21.573 11.868V8.99324C21.78 8.99324 21.9443 8.82899 21.9443 8.62199C21.9443 8.41874 21.78 8.25449 21.573 8.25449V7.45349C21.573 7.18799 21.5498 6.92624 21.5025 6.67199C21.5025 6.66449 21.5025 6.65999 21.5025 6.65249L21.4868 6.57824L21.483 6.55499C21.3113 5.71874 20.901 4.95374 20.2913 4.34399C20.0258 4.07474 19.7213 3.83999 19.4003 3.65249C19.365 3.63299 19.3335 3.61724 19.299 3.59774L19.2405 3.56249C19.1858 3.53549 19.1348 3.51149 19.0845 3.48449C19.0688 3.47699 19.0493 3.46874 19.0298 3.46124C18.9435 3.41849 18.8543 3.38324 18.7643 3.34799C18.729 3.33224 18.6938 3.32099 18.6585 3.30899C18.6158 3.28949 18.5768 3.27749 18.5333 3.26624C18.4905 3.25049 18.4433 3.23474 18.4005 3.22349C18.3615 3.21149 18.3263 3.20399 18.291 3.19199C18.213 3.17249 18.135 3.15299 18.0525 3.13724C18.0293 3.13349 18.0053 3.12974 17.9783 3.12524C17.9198 3.11324 17.8575 3.10199 17.7945 3.09374C17.7593 3.08999 17.724 3.08624 17.6888 3.07799L17.5328 3.06224L17.4233 3.05474C17.361 3.05099 17.298 3.05099 17.2395 3.05099L17.1653 3.04724H17.172ZM20.3085 4.85924C20.3085 4.85924 20.2343 4.93724 20.0978 5.06999C20.0273 5.13674 19.9418 5.21474 19.8435 5.30024C19.7423 5.39024 19.629 5.48774 19.5038 5.59349C19.41 5.66024 19.3125 5.73824 19.2105 5.81249C19.5698 6.53549 20.1555 7.00424 20.8118 7.08599C20.8238 7.20674 20.8313 7.32824 20.8313 7.45349V8.25074H18.2183C18.171 8.09849 18.0308 7.98524 17.8628 7.98524H16.4798C16.3118 7.98524 16.1715 8.09849 16.1243 8.25074H13.5113V7.45349C13.5113 7.05524 13.5735 6.67199 13.6913 6.31274C13.8083 6.42599 13.9335 6.52349 14.07 6.61349C14.109 6.63299 14.1908 6.67574 14.3123 6.72674C14.484 6.80474 14.742 6.89099 15.0585 6.93749C15.2145 6.96074 15.387 6.97649 15.57 6.97649C15.6173 6.97649 15.6638 6.97649 15.7065 6.97274L15.8513 6.96524C15.9525 6.96149 16.0463 6.94199 16.1445 6.93374C16.2383 6.92174 16.344 6.89849 16.4415 6.88274C16.5428 6.85949 16.6448 6.83174 16.746 6.81224C16.8435 6.78074 16.9455 6.74999 17.0468 6.71849C17.148 6.68324 17.25 6.64799 17.3475 6.60899C17.547 6.53474 17.7458 6.44849 17.937 6.35924L18.2145 6.21824L18.4883 6.07349C18.6638 5.97224 18.8318 5.87399 18.9885 5.77649C19.0665 5.72924 19.1445 5.67524 19.2188 5.63174C19.293 5.58449 19.3635 5.53799 19.4295 5.49074C19.5585 5.39699 19.6875 5.31524 19.7925 5.23649C19.8975 5.15774 19.9958 5.09549 20.07 5.03324C20.2185 4.91999 20.3085 4.85774 20.3085 4.85774V4.85924ZM16.8518 8.73074H17.4885V8.94149H16.8518V8.73074ZM14.3985 8.99624H16.1018V10.0042C16.1018 10.3282 15.84 10.59 15.516 10.59H14.985C14.661 10.59 14.3993 10.3282 14.3993 10.0042L14.3985 8.99624ZM18.2385 8.99624H19.9418V10.0042C19.9418 10.3282 19.68 10.59 19.356 10.59H18.825C18.501 10.59 18.2393 10.3282 18.2393 10.0042L18.2385 8.99624ZM15.2498 9.15599C15.015 9.15599 14.8238 9.34349 14.8238 9.57824C14.8238 9.81299 15.015 10.0042 15.2498 10.0042C15.4845 10.0042 15.6758 9.81299 15.6758 9.57824C15.6758 9.50774 15.66 9.44549 15.633 9.38699C15.5903 9.43799 15.5318 9.47324 15.465 9.47324C15.348 9.47324 15.2543 9.37574 15.2543 9.25874C15.2543 9.21974 15.2663 9.18449 15.2813 9.15749L15.2543 9.15374L15.2498 9.15599ZM19.0898 9.15599C18.855 9.15599 18.6638 9.34349 18.6638 9.57824C18.6638 9.81299 18.855 10.0042 19.0898 10.0042C19.3245 10.0042 19.5158 9.81299 19.5158 9.57824C19.5158 9.50774 19.4963 9.44549 19.4685 9.38699C19.4295 9.43799 19.3673 9.47324 19.3005 9.47324C19.1835 9.47324 19.0898 9.37574 19.0898 9.25874C19.0898 9.21974 19.0973 9.18449 19.113 9.15749C19.1055 9.15749 19.0935 9.15374 19.086 9.15374L19.0898 9.15599ZM15.6525 13.512C15.5903 13.5157 15.5235 13.539 15.4688 13.5787C15.3675 13.6492 15.3083 13.7625 15.3083 13.8832V15.903C15.3083 16.0237 15.3705 16.1377 15.4688 16.2075C15.531 16.2547 15.6098 16.2742 15.6833 16.2742C15.726 16.2742 15.765 16.2705 15.8085 16.2547L17.172 15.7665L18.5355 16.2547C18.5745 16.2705 18.6173 16.2742 18.6608 16.2742C18.7388 16.2742 18.813 16.2547 18.8798 16.2075C18.9773 16.137 19.0358 16.0237 19.0358 15.903V13.8832C19.0358 13.7625 18.9773 13.6485 18.8798 13.5787C18.7785 13.512 18.6533 13.4925 18.5363 13.5315L17.1765 14.0197L15.813 13.5315C15.7815 13.524 15.7545 13.5157 15.723 13.512C15.7035 13.512 15.6803 13.5082 15.6563 13.512H15.6525ZM16.0545 14.4105L16.797 14.676V15.1095L16.0545 15.375V14.4105ZM18.285 14.4105V15.375L17.5425 15.1095V14.676L18.285 14.4105Z" fill="black"/>
</svg>
