<svg width="24" height="24" viewBox="0 0 24 24" fill="none" xmlns="http://www.w3.org/2000/svg">
<g clip-path="url(#clip0_201_58322)">
<path d="M23.9842 9.20326C23.9527 9.10201 23.859 8.98051 23.652 8.94526C23.445 8.90626 16.3005 7.53901 16.3005 7.53901C16.3005 7.53901 16.1947 7.51576 16.101 7.46851C16.011 7.42126 15.9757 7.30051 15.9757 7.30051C15.9757 7.30051 12.4447 0.957006 12.3465 0.769506C12.249 0.582006 12.1042 0.531006 11.9985 0.531006C11.8927 0.531006 11.7487 0.582006 11.6505 0.769506C11.553 0.957006 8.02122 7.30051 8.02122 7.30051C8.02122 7.30051 7.98597 7.42126 7.89597 7.46851C7.80222 7.51576 7.69647 7.53901 7.69647 7.53901C7.69647 7.53901 0.551973 8.90626 0.344973 8.94151C0.137973 8.98051 0.0442227 9.10201 0.0127227 9.19951C-0.0262773 9.36376 0.0202227 9.53176 0.137973 9.64876L5.50122 15.141C5.50122 15.141 5.57172 15.219 5.61822 15.3128C5.63397 15.414 5.62197 15.5235 5.62197 15.5235C5.62197 15.5235 4.43472 22.7655 4.40322 22.9725C4.37172 23.1795 4.47747 23.34 4.56372 23.4023C4.64547 23.4645 4.79397 23.508 4.98147 23.4143C5.17272 23.3205 11.7937 20.1525 11.7937 20.1525C11.7937 20.1525 11.8912 20.1098 11.997 20.094C12.0982 20.0745 12.1965 20.1525 12.1965 20.1525C12.1965 20.1525 18.8212 23.3205 19.0087 23.4143C19.1962 23.508 19.3485 23.4653 19.431 23.4023C19.5562 23.2965 19.6147 23.133 19.5915 22.9725C19.5682 22.8315 18.6577 17.2965 18.6577 17.2965C19.5367 16.7535 20.0835 16.2578 20.5095 15.5468C17.916 16.5158 14.502 17.2658 11.0955 17.4143C10.1775 17.4533 8.68497 17.5118 7.61922 17.3985C6.94347 17.328 6.45147 17.2538 6.37722 16.9613C6.32622 16.7468 6.43197 16.5 6.92397 16.1295C7.87722 15.411 8.83047 14.6918 9.78372 13.977C11.0692 13.008 13.3425 11.5043 13.3425 11.2425C13.3425 10.9613 11.1982 10.4655 9.30747 10.4655C7.36197 10.4655 7.03047 10.5945 6.49497 10.6335C6.00672 10.665 5.72547 10.6373 5.69022 10.4925C5.63172 10.2465 5.87397 10.1055 6.27972 9.92626C6.98697 9.60976 8.13897 9.33226 8.26422 9.30151C8.45922 9.24676 11.346 8.49301 13.8817 8.76601C15.198 8.90251 17.1277 9.43426 17.1277 10.0395C17.1277 10.383 15.405 11.5358 13.9012 12.6375C12.753 13.4813 11.6827 14.1998 11.6827 14.325C11.6827 14.6685 15.2182 15.567 18.3742 15.3368L18.378 15.3135C18.4252 15.2235 18.495 15.1418 18.495 15.1418L23.8582 9.65326C23.9752 9.53626 24.0225 9.36451 23.9835 9.20401L23.9842 9.20326Z" fill="black"/>
</g>
<defs>
<clipPath id="clip0_201_58322">
<rect width="24" height="24" fill="white"/>
</clipPath>
</defs>
</svg>
