<svg width="24" height="24" viewBox="0 0 24 24" fill="none" xmlns="http://www.w3.org/2000/svg">
<g clip-path="url(#clip0_201_58756)">
<path d="M21.4688 6.82425C22.3088 8.36325 22.785 10.125 22.785 12C22.785 15.9803 20.6325 19.4572 17.4255 21.324L20.7188 11.7968C21.336 10.2577 21.5392 9.027 21.5392 7.9335C21.5392 7.527 21.5123 7.152 21.4688 6.82425ZM13.488 6.93C14.1367 6.8985 14.7188 6.82425 14.7188 6.82425C15.3007 6.75 15.2347 5.89425 14.652 5.92575C14.652 5.92575 12.8977 6.0585 11.7727 6.0585C10.71 6.0585 8.92125 5.91 8.92125 5.91C8.33925 5.8785 8.26125 6.76575 8.847 6.7965C8.847 6.7965 9.38625 6.855 9.972 6.8865L11.652 11.4878L9.28125 18.57L5.35575 6.89775C6.0045 6.87075 6.59025 6.80025 6.59025 6.80025C7.17225 6.726 7.10625 5.87025 6.5235 5.90175C6.5235 5.90175 4.7775 6.042 3.64875 6.042C3.44925 6.042 3.2115 6.0345 2.961 6.02625C4.91025 3.147 8.23425 1.2135 12 1.2135C14.8088 1.2135 17.3633 2.28375 19.2855 4.0455C19.2383 4.0455 19.1955 4.038 19.1445 4.038C18.0862 4.038 17.3317 4.95975 17.3317 5.952C17.3317 6.843 17.8477 7.59675 18.3945 8.48325C18.8047 9.20175 19.281 10.128 19.281 11.46C19.281 12.3742 18.9293 13.452 18.4605 14.9408L17.3865 18.5228L13.488 6.9135V6.93ZM12 22.785C10.9417 22.785 9.918 22.6328 8.95275 22.3478L12.1875 12.9412L15.504 22.0275C15.5273 22.0823 15.555 22.1287 15.582 22.176C14.4607 22.5705 13.2577 22.7858 12 22.7858V22.785ZM1.21125 12C1.21125 10.4377 1.54725 8.949 2.145 7.6095L7.28925 21.711C3.69525 19.9613 1.21125 16.2698 1.21125 12ZM12 0C5.3865 0 0 5.3865 0 12C0 18.6135 5.3865 24 12 24C18.6135 24 24 18.6135 24 12C24 5.3865 18.6135 0 12 0Z" fill="black"/>
</g>
<defs>
<clipPath id="clip0_201_58756">
<rect width="24" height="24" fill="white"/>
</clipPath>
</defs>
</svg>
