<svg width="24" height="24" viewBox="0 0 24 24" fill="none" xmlns="http://www.w3.org/2000/svg">
<g clip-path="url(#clip0_201_58790)">
<path d="M4.78093 24.0002C3.89818 24.0002 3.42118 23.8007 3.16018 23.641C2.80093 23.4302 2.14093 22.891 1.53943 21.3092C0.484929 18.3212 -0.0348214 15.1682 0.000428567 12.001C0.0199286 8.34098 0.589929 5.23898 1.53943 2.70023C2.14093 1.10273 2.80093 0.559727 3.16018 0.352727C3.42193 0.211727 3.89818 0.000976562 4.78093 0.000976562C5.10943 0.000976562 5.49943 0.0324766 5.96068 0.102227C9.03493 0.672227 11.9802 1.78973 14.6599 3.39923H14.6719C17.3944 4.96148 19.8207 6.99698 21.8284 9.41123C22.8912 10.7312 23.0202 11.5795 23.0202 12.001C23.0202 12.4225 22.8912 13.2707 21.8284 14.5907C19.8207 17.0012 17.3952 19.0322 14.6719 20.5907H14.6599C11.9802 22.204 9.03493 23.3215 5.96068 23.8915C5.49943 23.9695 5.10943 24.001 4.78093 24.001V24.0002Z" fill="black"/>
</g>
<defs>
<clipPath id="clip0_201_58790">
<rect width="24" height="24" fill="white"/>
</clipPath>
</defs>
</svg>
