<svg width="24" height="24" viewBox="0 0 24 24" fill="none" xmlns="http://www.w3.org/2000/svg">
<path d="M16.1018 17.9303L13.4055 20.535C12.9375 21.0038 12.2925 21.1988 11.5815 21.1988C10.8705 21.1988 10.2263 21.0038 9.75753 20.535L5.42553 16.176C4.96053 15.7073 4.72278 15.0233 4.72278 14.3123C4.72278 13.5983 4.96053 12.9533 5.42553 12.4883L9.74553 8.10526C10.2105 7.64101 10.8705 7.46101 11.5815 7.46101C12.2925 7.46101 12.9375 7.65601 13.4055 8.12476L16.1018 10.7295C16.617 11.2455 17.469 11.2268 18.0038 10.6905C18.5348 10.1558 18.555 9.30451 18.039 8.78851L15.4343 6.15526C14.7585 5.48701 13.9103 5.0265 12.9885 4.81501L15.4538 2.31526C15.9698 1.80001 15.954 0.948005 15.4185 0.413255C14.883 -0.121495 14.0318 -0.137995 13.5165 0.374255L3.41478 10.476C2.43453 11.46 1.92303 12.8108 1.92303 14.3108C1.92303 15.8078 2.43528 17.2058 3.41478 18.1868L7.76254 22.5458C8.74278 23.526 10.0988 23.9985 11.5988 23.9985C13.095 23.9985 14.4495 23.4863 15.4305 22.5068L18.0398 19.866C18.5558 19.3538 18.5355 18.5033 18.0008 17.9678C17.466 17.4323 16.614 17.4128 16.1025 17.9288L16.1018 17.9303ZM20.8118 13.0118H10.6635C9.96453 13.0118 9.39453 13.6125 9.39453 14.355C9.39453 15.0983 9.96453 15.7028 10.6635 15.7028H20.8118C21.5115 15.7028 22.0815 15.0975 22.0815 14.355C22.0815 13.6133 21.5115 13.0118 20.8118 13.0118Z" fill="black"/>
</svg>
