<svg width="24" height="24" viewBox="0 0 24 24" fill="none" xmlns="http://www.w3.org/2000/svg">
<path d="M11.2702 15.5783H1.6095C1.2465 14.4225 1.0665 13.215 1.07025 12C1.07025 10.7498 1.25025 9.55129 1.6095 8.42179H17.4697C19.4497 8.41354 21.0555 10.02 21.0517 12C21.063 13.9688 19.47 15.5738 17.5005 15.5783H11.2702ZM10.8202 16.7813H2.05125C2.973 18.8985 4.5 20.6993 6.441 21.9615C8.38275 23.2508 10.668 23.9385 12.9997 23.9303C17.148 23.9303 20.781 21.8093 22.9297 18.6293C21.789 17.4495 20.223 16.7775 18.5775 16.77L10.8202 16.7813ZM18.5782 7.23004C20.2815 7.23004 21.828 6.51229 22.9305 5.37904C20.5005 1.75804 16.2892 -0.254211 11.9415 0.129039C7.59825 0.516039 3.8055 3.23404 2.05125 7.23004H18.5782Z" fill="black"/>
</svg>
