<svg width="24" height="24" viewBox="0 0 24 24" fill="none" xmlns="http://www.w3.org/2000/svg">
<g clip-path="url(#clip0_201_58348)">
<path d="M16.008 13.3867C17.586 13.3867 19.8668 13.059 19.8668 11.184C19.875 11.0392 19.8585 10.8952 19.8278 10.7542L18.891 6.672C18.672 5.77275 18.4837 5.367 16.9058 4.578C15.684 3.95325 13.02 2.922 12.2295 2.922C11.4952 2.922 11.2845 3.867 10.4093 3.867C9.5655 3.867 8.94 3.15975 8.151 3.15975C7.39725 3.15975 6.90075 3.67575 6.522 4.73775C6.522 4.73775 5.46375 7.7265 5.32725 8.16C5.304 8.24175 5.2965 8.32425 5.30025 8.406C5.30025 9.57 9.8745 13.383 16.0072 13.383L16.008 13.3867ZM20.109 11.9452C20.328 12.9772 20.328 13.086 20.328 13.2232C20.328 14.988 18.3442 15.969 15.7343 15.969C9.84 15.9727 4.67625 12.516 4.67625 10.2337C4.67625 9.9135 4.7385 9.6015 4.863 9.309C2.74575 9.414 0 9.79275 0 12.219C0 16.188 9.40575 21.078 16.8517 21.078C22.5615 21.078 24 18.4957 24 16.4572C24 14.8522 22.6132 13.0312 20.1127 11.9452H20.109Z" fill="black"/>
</g>
<defs>
<clipPath id="clip0_201_58348">
<rect width="24" height="24" fill="white"/>
</clipPath>
</defs>
</svg>
