<svg width="24" height="24" viewBox="0 0 24 24" fill="none" xmlns="http://www.w3.org/2000/svg">
<g clip-path="url(#clip0_201_57314)">
<path d="M15.816 18.156C15.8752 18.1132 15.93 18.0592 15.9802 18.0082C16.836 17.1255 16.836 15.723 15.9802 14.8402L8.18023 6.83998C8.12548 6.88723 8.06998 6.93823 8.02048 6.98773C7.16473 7.87498 7.16473 9.27673 8.02048 10.1595L15.816 18.156ZM21.5467 6.75823C22.1475 6.87898 22.695 7.18423 23.1165 7.63348C24.2925 8.87173 24.2925 10.8832 23.1165 12.1215L17.5612 17.9692C17.214 18.324 16.7572 18.5512 16.2615 18.6052L19.5652 22.0005L2.45623 18.2422C1.85398 18.117 1.30798 17.8125 0.886479 17.3632C-0.297771 16.1295 -0.297771 14.1172 0.886479 12.8715L6.43723 7.03123C6.77998 6.67198 7.24123 6.44548 7.73698 6.39148L4.43323 3.00073L21.5422 6.75898L21.5467 6.75823Z" fill="black"/>
</g>
<defs>
<clipPath id="clip0_201_57314">
<rect width="24" height="24" fill="white"/>
</clipPath>
</defs>
</svg>
