<svg width="24" height="24" viewBox="0 0 24 24" fill="none" xmlns="http://www.w3.org/2000/svg">
<g clip-path="url(#clip0_201_58252)">
<path d="M16.6018 0C19.199 0 20.8625 0.00824994 22.43 1.57425C23.9878 3.141 23.9998 4.79325 23.9998 7.4025V16.6027C23.9998 19.2 23.9878 20.8635 22.4255 22.431C20.8588 23.9932 19.2065 24.0007 16.5973 24.0007H7.39702C4.79977 24.0007 3.13627 23.9925 1.56877 22.4265C0.0110235 20.8598 -0.000976562 19.2075 -0.000976562 16.5983V7.398C-0.000976562 4.80075 0.0110235 3.13725 1.57327 1.56975C3.14002 0.012 4.79227 0 7.39702 0L16.6018 0ZM20.996 11.1518C20.57 6.5775 16.6843 3.00375 11.9998 3.00375C7.02652 3.00375 2.99977 7.02675 2.99977 12C2.99977 16.8008 6.75352 20.7337 11.4838 21H18.6208C19.934 20.9963 20.996 19.9342 20.9998 18.6173V11.148L20.996 11.1518ZM18.7145 19.7377C18.1475 19.7377 17.6908 19.281 17.6908 18.7147C17.6908 18.1477 18.1475 17.691 18.7145 17.691C19.2763 17.691 19.7375 18.1477 19.7375 18.7147C19.7375 19.281 19.2763 19.7377 18.7145 19.7377ZM11.9998 18.9487C8.16352 18.945 5.05477 15.8355 5.05102 12C5.05477 8.16375 8.16427 5.055 11.9998 5.05125C15.836 5.055 18.9448 8.1645 18.9485 12C18.9448 15.8363 15.8353 18.945 11.9998 18.9487Z" fill="black"/>
</g>
<defs>
<clipPath id="clip0_201_58252">
<rect width="24" height="24" fill="white"/>
</clipPath>
</defs>
</svg>
