<svg width="24" height="24" viewBox="0 0 24 24" fill="none" xmlns="http://www.w3.org/2000/svg">
<g clip-path="url(#clip0_201_57384)">
<path d="M22.4063 15.4763C23.418 16.347 24 17.6168 24 18.9525C24 21.4838 21.945 23.5463 19.422 23.5463H1.11377C-0.370483 23.5463 -0.370483 21.3195 1.11377 21.3195H19.422C20.7225 21.312 21.7733 20.2568 21.7733 18.9525C21.7733 17.652 20.7225 16.5968 19.422 16.5893H1.11377C-0.370483 16.5893 -0.370483 14.3625 1.11377 14.3625H19.422C20.7225 14.3588 21.7733 13.2998 21.7733 11.9993C21.7733 10.6988 20.7225 9.63977 19.422 9.63602H1.11377C-0.370483 9.63602 -0.370483 7.40927 1.11377 7.40927H19.422C20.7188 7.40927 21.7733 6.34652 21.7733 5.04602C21.7733 3.74102 20.7188 2.67902 19.422 2.67902C17.9378 2.67902 17.9378 0.452271 19.422 0.452271C21.9458 0.452271 24 2.51477 24 5.04602C24 6.43277 23.379 7.67852 22.4063 8.52227C23.418 9.39302 24 10.6628 24 11.9985C24 13.389 23.379 14.6355 22.4063 15.4748V15.4763Z" fill="black"/>
</g>
<defs>
<clipPath id="clip0_201_57384">
<rect width="24" height="24" fill="white"/>
</clipPath>
</defs>
</svg>
