<svg width="24" height="24" viewBox="0 0 24 24" fill="none" xmlns="http://www.w3.org/2000/svg">
<g clip-path="url(#clip0_201_58764)">
<path d="M20.0002 4.80079C20.3985 4.60204 20.6025 4.39804 20.898 4.39804C21.3983 4.39804 21.699 4.69879 21.801 4.89829C21.9998 5.19904 22.6987 5.39854 23.0002 5.39854C23.199 5.39854 23.5005 4.69954 23.6993 4.10254C23.898 3.50029 23.898 2.80129 23.8013 2.69929C23.6993 2.60254 22.8983 2.39854 22.6995 2.39854C22.6028 2.50054 22.3988 2.60254 22.0005 2.60254C21.6022 2.60254 21.1995 2.30179 20.8988 2.00029C20.3985 1.50004 19.8015 1.30129 19.2 1.10254C18.603 0.898544 17.8988 0.898544 17.3018 0.898544C16.3988 0.801794 15.399 0.801794 14.5005 1.10254C14.1023 1.19929 13.8015 1.30129 13.3988 1.50079C13.302 1.60279 13.0005 1.69954 12.8985 1.69954C12.8018 1.80154 12.8018 1.89829 12.8985 1.89829C13.0005 1.89829 13.3988 1.80154 13.3988 1.80154C13.3988 1.80154 12.8985 2.00029 12.8985 2.19979C12.8985 2.30179 13.0005 2.30179 13.0005 2.30179C13.0005 2.30179 13.3012 2.19979 13.5007 2.19979C13.899 2.19979 14.5005 2.00104 15.0007 2.00104C15.603 2.00104 16.2 2.19979 16.8015 2.80204C17.6993 3.89929 17.6025 5.30179 17.6025 5.60329C17.3985 7.70029 12.6997 20.5013 12.5002 21.399C12.3015 22.302 12.3015 22.8023 13.398 23.103C14.4998 23.3993 14.898 23.103 15.102 22.7003C15.1987 22.0013 18.1987 6.20029 20.0002 4.80229V4.80079ZM16.1017 3.80104L0 6.30079L2.60175 22.9995L11.199 21.6015C11.1023 20.8973 13.398 14.8973 13.8007 13.8008L9.3975 14.4998L9.99975 12.699L13.1017 12.1988L13.8975 13.1985C13.8975 13.1985 14.1015 12.6983 14.1015 12.4995L9.80025 7.19854C9.6015 6.89779 9.6015 6.49954 9.897 6.30079L10.101 6.10204C10.3973 5.89804 10.8 5.89804 10.9987 6.19879L14.7997 10.602C15.6007 8.19904 16.2997 6.10204 16.2997 5.39779C16.3965 5.19904 16.3965 4.50004 16.101 3.80104H16.1017ZM4.10175 13.6988L6.801 13.1985L6.102 14.9993L4.30125 15.3L4.10175 13.6988ZM9.89775 8.60179L10.1985 8.69854C10.6012 8.80054 10.6988 9.19879 10.6012 9.60154L7.60125 17.6018L5.8005 19.9995L5.99925 16.9995L8.99925 8.99929C9.10125 8.60104 9.4995 8.49904 9.897 8.60104L9.89775 8.60179ZM20.6993 5.80129C20.301 6.19954 19.8015 7.50004 18.801 11.301H18.8978L19.1985 12.8978L18.3975 12.9998C18.3008 13.5 18.1987 13.9995 17.9993 14.6018C19.698 15.4995 18.8002 17.6985 18.6982 17.6985C18.6015 17.6985 18.6015 17.6985 18.6015 17.6018C18.6015 17.4998 18.6982 17.199 18.3975 17.1015C18.1988 16.9995 17.8005 16.8975 17.4998 16.6988C17.199 17.898 16.8975 19.3005 16.602 20.8005L22.8983 19.8008L20.8013 5.69854L20.6993 5.80129Z" fill="black"/>
</g>
<defs>
<clipPath id="clip0_201_58764">
<rect width="24" height="24" fill="white"/>
</clipPath>
</defs>
</svg>
