<svg width="24" height="24" viewBox="0 0 24 24" fill="none" xmlns="http://www.w3.org/2000/svg">
<path d="M8.85225 18.5588C8.85225 18.5588 7.93425 19.0935 9.504 19.2728C11.406 19.4918 12.3787 19.461 14.4727 19.062C14.4727 19.062 15.0225 19.41 15.7927 19.7108C11.094 21.723 5.16 19.59 8.8515 18.5588H8.85225ZM8.277 15.9338C8.277 15.9338 7.24575 16.695 8.81625 16.8547C10.8525 17.0655 12.453 17.0858 15.2302 16.551C15.2302 16.551 15.6135 16.938 16.2195 17.1517C10.5397 18.8115 4.21125 17.2808 8.27775 15.9338H8.277ZM13.1167 11.4773C14.2725 12.8092 12.8115 14.0085 12.8115 14.0085C12.8115 14.0085 15.7492 12.4882 14.4015 10.5907C13.1407 8.817 12.1717 7.93875 17.4052 4.90275C17.4052 4.90275 9.1905 6.954 13.116 11.478L13.1167 11.4773ZM19.3282 20.5042C19.3282 20.5042 20.0085 21.0623 18.582 21.4965C15.8707 22.3162 7.29675 22.5623 4.914 21.5272C4.059 21.156 5.664 20.637 6.168 20.5312C6.69525 20.4142 6.996 20.4382 6.996 20.4382C6.04275 19.7662 0.839996 21.7545 4.35225 22.3245C13.9342 23.8792 21.816 21.6255 19.3282 20.5042ZM9.29325 13.2113C9.29325 13.2113 4.9305 14.2463 7.746 14.6213C8.93775 14.781 11.3092 14.7465 13.5202 14.559C15.324 14.406 17.1375 14.082 17.1375 14.082C17.1375 14.082 16.5007 14.355 16.0395 14.6722C11.6092 15.8363 3.05175 15.2933 5.51625 14.1022C7.59825 13.098 9.29325 13.2113 9.29325 13.2113ZM17.1172 17.586C21.6172 15.2423 19.5352 12.996 18.0862 13.3013C17.73 13.371 17.5702 13.4385 17.5702 13.4385C17.5702 13.4385 17.6992 13.2307 17.9535 13.1415C20.8282 12.1297 23.0392 16.1213 17.0272 17.7038C17.0272 17.7 17.0985 17.6415 17.1172 17.5868V17.586ZM14.4022 0C14.4022 0 16.8952 2.49225 12.0352 6.32775C8.14125 9.40575 11.148 11.16 12.0352 13.164C9.762 11.1128 8.094 9.309 9.21149 7.629C10.8555 5.15625 15.4065 3.96075 14.4022 0ZM9.73425 23.9257C14.055 24.1987 20.691 23.7698 20.8522 21.7267C20.8522 21.7267 20.547 22.5 17.277 23.1165C13.59 23.8118 9.039 23.7292 6.33975 23.2845C6.33975 23.2845 6.89475 23.7412 9.7335 23.9257H9.73425Z" fill="black"/>
</svg>
