<svg width="24" height="24" viewBox="0 0 24 24" fill="none" xmlns="http://www.w3.org/2000/svg">
<path d="M17.1795 9.51976C15.918 3.95701 12.9375 2.13301 12.6172 1.43401C12.2655 0.938263 11.8867 0.000762939 11.8867 0.000762939C11.883 0.0202629 11.883 0.0322629 11.8792 0.0517629V0.0637629C11.8792 0.0795129 11.8755 0.0870129 11.8755 0.102763V0.118513H11.8717C11.8717 0.126013 11.8717 0.134263 11.8717 0.141763V0.168763H11.868C11.868 0.176263 11.868 0.188263 11.8642 0.192013V0.215263C11.8642 0.222763 11.8642 0.231013 11.8605 0.234763V0.254263C11.8605 0.266263 11.8605 0.277513 11.8567 0.285763V0.289513C11.8567 0.305263 11.853 0.324763 11.8492 0.340513V0.348013C11.8455 0.351763 11.8455 0.355513 11.8455 0.360013V0.375763H11.8417V0.399013H11.838V0.414763H11.8305V0.438013H11.8267V0.457513H11.823V0.473263H11.8192V0.489013H11.8155V0.504763H11.8117V0.520513H11.808V0.532513H11.8042V0.548263H11.8005V0.552013V0.564013H11.7967C11.793 0.564013 11.793 0.567763 11.793 0.567763V0.575263L11.7892 0.582763C11.7892 0.590263 11.7855 0.598513 11.7817 0.606013C11.778 0.609763 11.778 0.609763 11.778 0.613513V0.621013H11.7742V0.628513H11.7667V0.648013H11.7592V0.660013H11.7555V0.663763H11.7517V0.671263H11.748V0.683263H11.7442V0.690763H11.7367V0.702763H11.733V0.710263H11.7292V0.717763H11.7255V0.729763H11.7217V0.737263H11.718V0.741013H11.7142V0.748513H11.7067V0.760513H11.703V0.764263H11.6992V0.771763H11.6955V0.783763H11.6917V0.787513H11.688V0.795013H11.6842V0.798763H11.6805V0.810763H11.673V0.814513H11.6692V0.822013H11.6655V0.825763H11.6617V0.833263H11.658C11.658 0.837013 11.658 0.837013 11.658 0.837013V0.840763C11.6542 0.840763 11.6542 0.844513 11.6542 0.844513V0.848263H11.6505C11.6467 0.855763 11.643 0.860263 11.6385 0.867763C11.6385 0.867763 11.631 0.875263 11.631 0.879763C11.6272 0.879763 11.6272 0.883513 11.6272 0.883513V0.887263H11.6235V0.891013H11.6197C11.6197 0.891013 11.6197 0.891013 11.6197 0.894763V0.898513H11.6122V0.902263H11.6085V0.906013H11.6047V0.909763V0.917263H11.601V0.921013H11.5972V0.924763H11.5935V0.932263H11.5897V0.924763H11.5822V0.928513H11.5785V0.936013H11.5747V0.943513H11.571V0.947263H11.5672V0.951013H11.5635V0.954763H11.5597V0.962263H11.5522V0.966013H11.5485V0.973513H11.5447V0.977263H11.541V0.981013H11.5372V0.993013H11.5335V0.996763H11.5297V1.00051H11.526V1.00426H11.5222V1.00801H11.5147V1.01551H11.511V1.01926H11.5072V1.02301H11.5035V1.03051H11.4997V1.03426H11.4922V1.03801H11.4885V1.04176H11.4847V1.04926H11.481V1.05676H11.4772V1.06051H11.4735V1.06426H11.466V1.06801H11.4622V1.07176H11.4585V1.07926H11.4547V1.08301H11.451V1.09051H11.4472V1.09426H11.4435V1.09801H11.4397V1.10176H11.436V1.10551H11.4285V1.10926C11.4247 1.10926 11.4247 1.11301 11.4247 1.11301L11.421 1.11676L11.4172 1.12051V1.12801H11.4135V1.13176H11.4097V1.13551H11.406V1.13926H11.4022L11.3947 1.14676V1.15051C11.3872 1.15426 11.3872 1.15801 11.379 1.16626C11.379 1.16626 11.3715 1.17376 11.367 1.17376C11.355 1.18126 11.34 1.19701 11.328 1.20901C11.3205 1.21276 11.3122 1.22101 11.3047 1.22476C11.289 1.24051 11.2732 1.25176 11.2575 1.26376C11.2342 1.28701 11.2102 1.30276 11.1832 1.32601H11.1795C11.1247 1.37326 11.0625 1.42726 10.9957 1.48651H10.992C10.824 1.63501 10.6245 1.82626 10.398 2.05276L10.3785 2.07226C9.01872 3.47851 6.87447 6.41176 6.65172 11.1503C6.62847 11.541 6.63222 11.9235 6.65547 12.2948V12.3023C6.76497 14.1698 7.35072 15.7635 8.08497 17.0603C8.37372 17.5763 8.69022 18.045 9.01047 18.4665C10.1122 19.92 11.2372 20.7833 11.5222 20.994C11.964 22.0133 11.9242 23.7713 11.9242 23.7713L12.5685 23.9858C12.5685 23.9858 12.4357 22.2863 12.6195 21.462C12.678 21.2078 12.8107 20.9895 12.9675 20.802C13.077 20.7278 13.3897 20.5013 13.7647 20.1578C13.7842 20.1383 13.7962 20.1225 13.812 20.103C15.3315 18.6848 18.1717 15.1928 17.199 9.50551L17.1795 9.51976Z" fill="black"/>
</svg>
