<svg width="24" height="24" viewBox="0 0 24 24" fill="none" xmlns="http://www.w3.org/2000/svg">
<g clip-path="url(#clip0_201_57302)">
<path d="M12.5123 13.215C12.555 12.414 12.9495 11.7067 13.539 11.2072C14.16 10.6912 14.9453 10.4145 15.7538 10.4182C16.602 10.4182 17.3828 10.719 17.9648 11.2072C18.555 11.7075 18.945 12.414 18.9915 13.215C19.0343 14.0347 18.7065 14.8012 18.1245 15.3667C17.4878 15.9765 16.6365 16.3117 15.7538 16.305C14.8665 16.3117 14.016 15.9772 13.3748 15.3667C12.7965 14.8005 12.465 14.0347 12.5115 13.215H12.5123ZM7.35225 14.832C7.35525 15.1447 7.45725 15.7537 7.605 16.23C7.92975 17.2537 8.47275 18.195 9.19875 18.984C9.9765 19.8397 10.926 20.523 11.9835 20.988C13.1408 21.4957 14.3865 21.7537 15.6443 21.7462C16.905 21.75 18.1515 21.4882 19.3043 20.9775C20.3625 20.5087 21.3083 19.8202 22.089 18.9652C22.8113 18.1725 23.3543 17.2275 23.679 16.203C23.991 15.2107 24.0773 14.16 23.9288 13.1287C23.7878 12.141 23.4435 11.1945 22.9125 10.3515C22.4205 9.56174 21.7958 8.87024 21.0608 8.30849L13.5458 2.53424C13.0538 2.15549 12.2258 2.15924 11.6865 2.53424C11.1398 2.91749 11.0768 3.55049 11.5605 3.95249L14.6865 6.49575L5.1435 6.50775C4.35375 6.50775 3.60075 7.02299 3.44775 7.68C3.2955 8.34374 3.8265 8.895 4.647 8.89799L9.47925 8.89124L0.823504 15.531C0.011254 16.152 -0.250496 17.1907 0.261754 17.844C0.780754 18.5122 1.887 18.5122 2.7105 17.8477L7.41375 13.9995C7.41375 13.9995 7.344 14.5192 7.3515 14.8312L7.35225 14.832ZM19.4408 16.5697C18.4688 17.559 17.1128 18.1207 15.645 18.1207C14.1758 18.1245 12.816 17.5695 11.8478 16.5855C11.391 16.1242 11.0348 15.5692 10.812 14.9602C10.395 13.8045 10.5 12.519 11.094 11.4405C11.3873 10.9177 11.7773 10.4482 12.246 10.0695C13.188 9.30449 14.3873 8.89049 15.645 8.88674C16.8983 8.88674 18.0983 9.297 19.0388 10.062C19.5195 10.4527 19.9095 10.914 20.1908 11.43C20.484 11.9527 20.664 12.5347 20.715 13.137C20.7698 13.7497 20.688 14.367 20.4773 14.9452C20.25 15.555 19.8983 16.1092 19.4415 16.5705L19.4408 16.5697Z" fill="black"/>
</g>
<defs>
<clipPath id="clip0_201_57302">
<rect width="24" height="24" fill="white"/>
</clipPath>
</defs>
</svg>
