<svg width="24" height="24" viewBox="0 0 24 24" fill="none" xmlns="http://www.w3.org/2000/svg">
<g clip-path="url(#clip0_201_57756)">
<path d="M2.3978 13.0313C2.65955 12.3915 2.3588 11.6565 1.71905 11.3955C1.08605 11.1338 0.354798 11.4413 0.0937978 12.0825C-0.172452 12.7193 0.132798 13.4453 0.762048 13.7033C1.39505 13.9733 2.13305 13.668 2.3873 13.0313H2.3978ZM3.2423 9.78529C3.5003 9.15229 3.19955 8.41804 2.5553 8.14804C1.9223 7.89079 1.18805 8.19904 0.914298 8.83579C0.645048 9.47254 0.945048 10.203 1.5743 10.4648C2.22305 10.7295 2.94155 10.4258 3.2153 9.78454L3.2423 9.78529ZM4.43405 8.69104C5.0783 8.95729 5.8013 8.65204 6.0698 8.01604C6.32405 7.37929 6.02255 6.64129 5.3948 6.37879C4.7618 6.11704 4.0268 6.42604 3.7538 7.06204C3.4838 7.70329 3.80105 8.43004 4.43405 8.69104ZM7.59005 9.74179C8.2343 9.99979 8.9573 9.69904 9.2303 9.06604C9.48455 8.42179 9.18455 7.68379 8.53955 7.43029C7.9028 7.15654 7.16855 7.47304 6.91055 8.10529C6.6413 8.73454 6.9578 9.47329 7.5908 9.73054L7.59005 9.74179ZM21.6023 13.008C21.8715 13.6373 22.5945 13.938 23.238 13.668C23.871 13.398 24.1718 12.6758 23.898 12.027C23.6288 11.3828 22.8908 11.082 22.2623 11.352C21.6135 11.6093 21.3165 12.3443 21.5865 12.9923L21.6023 13.008ZM22.3358 10.422C22.9688 10.164 23.2695 9.42979 23.0115 8.78104C22.7415 8.14804 22.0035 7.83604 21.3743 8.10529C20.7263 8.37529 20.4255 9.09829 20.6985 9.74254C20.9528 10.3755 21.6908 10.6763 22.3193 10.4228L22.3358 10.422ZM19.5428 8.69104C20.172 8.43379 20.4728 7.69879 20.2148 7.06204C19.9448 6.41404 19.215 6.11329 18.5738 6.37504C17.9408 6.64504 17.637 7.36729 17.9055 8.01604C18.1755 8.64529 18.9098 8.94529 19.5428 8.69104ZM16.1333 9.54679C16.7625 9.27679 17.0625 8.53879 16.809 7.90954C16.5353 7.26154 15.816 6.96079 15.168 7.21879C14.535 7.48804 14.2343 8.22679 14.508 8.85454C14.7773 9.48754 15.5003 9.78829 16.1483 9.51979L16.1333 9.54679ZM9.42605 4.93429L9.5198 7.33654L11.2695 6.41029C11.3048 6.44929 11.3475 6.48829 11.3903 6.52054C11.2103 7.23454 10.7693 8.43454 10.491 9.09454C10.1588 9.90679 10.5458 10.8368 11.3543 11.1728C12.1673 11.505 13.101 11.1098 13.437 10.302C13.6793 9.73129 13.5578 9.11029 13.1978 8.67679C12.8078 7.99654 12.417 7.14604 12.2055 6.48079C12.2685 6.43879 12.3105 6.37579 12.3533 6.33304L14.2523 7.31029L14.3423 4.91929L12.369 5.55229C12.3533 5.52154 12.342 5.48929 12.3263 5.47804L13.092 3.29404L10.764 3.21979L11.4713 5.36779C11.4083 5.39854 11.3655 5.44579 11.3183 5.50504L9.42605 4.93429ZM21.3203 14.043C21.48 14.9258 21.5085 15.3278 21.3053 15.9023C21.0203 15.6173 20.766 15.0983 20.559 14.3093L19.6838 17.0985C20.2028 16.7543 20.6018 16.5353 21.051 16.5278C20.2343 18.243 19.23 18.6765 18.5903 18.552C17.8013 18.3923 17.4383 17.685 17.574 17.0828C17.7503 16.2428 18.6293 16.032 19.023 17.0168C19.8158 15.45 18.504 14.9385 17.6558 15.3915C18.969 14.1135 19.125 12.9653 18.0818 11.5553C16.617 12.66 16.5938 13.7663 17.2298 15.3285C16.3905 14.3445 15.051 14.8635 15.5198 16.4415C16.1445 15.4928 16.9485 16.0943 16.8158 17.0085C16.707 17.8013 15.6518 18.4185 14.355 18.2978C12.492 18.1335 12.402 16.8405 12.3713 15.774C12.8243 15.6998 13.6485 16.134 14.355 17.13L14.6408 14.1653C13.875 14.946 13.1678 15.1103 12.402 15.1305C12.672 14.3498 13.8593 13.0365 13.8593 13.0365L10.1333 12.9938C10.1333 12.9938 11.3205 14.3175 11.574 15.111C10.8053 15.0998 10.113 14.9468 9.34805 14.1503L9.6053 17.1113C10.3095 16.1235 11.1375 15.7013 11.5905 15.7755C11.5433 16.8263 11.4383 18.1193 9.57455 18.2873C8.28155 18.393 7.2278 17.76 7.1258 16.9635C7.00505 16.0613 7.81655 15.4598 8.4308 16.4243C8.9108 14.8463 7.57505 14.3183 6.73055 15.2955C7.3958 13.7325 7.3793 12.6195 5.9228 11.5065C4.86755 12.9045 5.02055 14.0498 6.3248 15.3578C5.4848 14.8898 4.16105 15.3855 4.9418 16.9635C5.34905 15.9713 6.22355 16.1978 6.4028 17.0378C6.52055 17.64 6.16055 18.3465 5.3798 18.495C4.7348 18.6158 3.74255 18.183 2.93105 16.452C3.3803 16.4678 3.77105 16.6943 4.2818 17.0378L3.4268 14.2568C3.21605 15.0375 2.94605 15.5535 2.65655 15.8348C2.47355 15.2648 2.4923 14.8575 2.6723 13.9755L0.867048 14.5883C1.7888 15.8543 2.72705 17.607 3.4613 20.6933C5.73455 20.3145 9.6173 20.088 11.9693 20.088C14.3123 20.1038 18.195 20.373 20.4615 20.7788C21.2303 17.697 22.1768 15.9548 23.1098 14.7045L21.3368 14.0603L21.3203 14.043Z" fill="black"/>
</g>
<defs>
<clipPath id="clip0_201_57756">
<rect width="24" height="24" fill="white"/>
</clipPath>
</defs>
</svg>
