<svg width="24" height="24" viewBox="0 0 24 24" fill="none" xmlns="http://www.w3.org/2000/svg">
<g clip-path="url(#clip0_201_58494)">
<path d="M11.199 13.5983L11.2192 10.4025L8.5515 12.0128L11.199 13.5983ZM12.7972 10.4018L12.7815 13.5938L15.4493 11.9835L12.7972 10.4018ZM12.7808 13.5983V13.5945L12.777 13.5983H12.7808ZM23.9963 4.59C23.9963 3.711 23.2815 3 22.398 3H1.602C0.71925 3 0 3.71475 0 4.59V19.41C0 20.289 0.71475 21 1.602 21H22.398C23.2808 21 24 20.2852 24 19.41V4.59H23.9963ZM17.562 14.1293H17.5507C17.5507 14.715 17.082 15.1845 16.5 15.195L16.5353 15.18H7.4655C6.88725 15.168 6.41475 14.6993 6.41475 14.1173H6.411V9.879H6.423C6.423 9.30075 6.88425 8.82825 7.45425 8.82H16.5135C17.0835 8.83575 17.5635 9.30075 17.5635 9.88725V14.133L17.562 14.1293Z" fill="black"/>
</g>
<defs>
<clipPath id="clip0_201_58494">
<rect width="24" height="24" fill="white"/>
</clipPath>
</defs>
</svg>
