<svg width="24" height="24" viewBox="0 0 24 24" fill="none" xmlns="http://www.w3.org/2000/svg">
<g clip-path="url(#clip0_201_57550)">
<path d="M8.15175 15.0982C8.20275 15.441 8.29275 15.6562 8.43375 15.789C8.574 15.918 8.77275 15.969 9.027 15.9997C9.33225 15.969 9.53925 15.8977 9.68025 15.699C9.762 15.57 9.816 15.3667 9.8445 15.09L9.94125 13.9297V13.9095L9.9225 13.7295L9.89175 13.5585L9.864 13.3822L9.82875 13.218L9.80175 13.0462L9.771 12.8782L9.73875 12.714L9.71175 12.546L9.68475 12.3862L9.6525 12.2332L9.62175 12.0855V11.9482L9.59475 11.811L9.5625 11.679L9.5475 11.5537L9.51675 11.4367L9.489 11.3347L9.45825 11.1667L9.411 10.9987L9.36375 10.8187L9.321 10.6395L9.30975 10.4392L9.255 10.236L9.21225 10.029L9.1575 9.8182L9.1305 9.60745L9.08775 9.3937L9.057 9.18295L9.03675 8.93995L9.02475 8.7292L9.0135 8.50345V8.10145L9.03225 7.8907L9.0675 7.67995L9.11475 7.4692L9.174 7.27045L9.264 7.0747L9.41175 6.8167C9.213 6.77095 8.97075 6.7387 8.721 6.7387C8.61075 6.7387 8.52225 6.7387 8.42025 6.75895C6.09225 6.9577 7.041 9.5947 7.44 11.04C7.72125 12.0397 8.04075 14.3797 8.16225 15.099L8.1435 15.0787L8.15175 15.0982ZM8.43375 6.4342C8.523 6.4612 8.613 6.47695 8.71875 6.47695C9.195 6.47695 9.50775 6.2227 9.67575 5.83195C9.789 5.56195 9.84 5.2297 9.828 4.88695C9.816 4.5862 9.75825 4.3162 9.66375 4.0777C9.4725 3.60895 9.1245 3.29695 8.60175 3.29695C8.52675 3.29695 8.4645 3.29695 8.42175 3.31195C7.746 3.4222 7.4445 4.0897 7.47675 4.9222C7.488 5.6992 7.78875 6.35245 8.406 6.5002L8.43375 6.44095V6.4342ZM9.68025 10.2727C9.762 10.6365 9.84825 10.965 9.91425 11.25C10.1993 12.4057 10.4775 15.0937 10.578 15.918C10.68 16.7422 10.9688 16.9057 11.5508 16.9687C12.1245 16.926 12.4178 16.7415 12.516 15.9337C12.6128 15.1245 12.8948 12.438 13.1723 11.2807C13.2383 10.9995 13.332 10.6717 13.41 10.32C13.6718 9.26995 13.8788 8.03095 13.41 7.2232C13.1168 6.71095 12.5468 6.3832 11.5508 6.3832C10.5465 6.3832 9.969 6.71095 9.6795 7.24195C9.2145 8.0512 9.42525 9.3007 9.6795 10.3522L9.68025 10.2727ZM11.535 5.9962H11.5508C12.4485 5.9962 12.8828 5.17195 12.8828 4.16395C12.8828 3.15595 12.4605 2.3197 11.562 2.3197H11.5508C10.641 2.3197 10.2225 3.1597 10.2225 4.1797C10.2225 5.19895 10.6403 6.01945 11.5583 6.01945V5.9872L11.535 5.9962ZM14.3633 6.7462C14.094 6.7462 13.8525 6.77695 13.656 6.82045L13.7033 6.89845L13.809 7.09045L13.8833 7.2892L13.941 7.49995L13.9883 7.7107L14.0205 7.92145L14.0318 8.1517V8.5897L14.0205 8.81995V8.98795L13.9575 9.4177L13.9148 9.63295L13.8675 9.83995L13.8248 10.0507L13.7775 10.2577L13.7303 10.4565L13.68 10.6515L13.617 10.8472L13.5698 11.0265L13.539 11.2102L13.488 11.3782L13.473 11.4682L13.4408 11.5852L13.41 11.7225L13.3868 11.8582L13.371 11.9872L13.3403 12.108V12.1402L13.3095 12.288L13.2818 12.4402L13.263 12.6015L13.2308 12.7695L13.212 12.9375L13.1813 13.1017L13.161 13.281L13.149 13.4452L13.1033 13.9845V14.0002C13.149 14.496 13.1775 14.9302 13.1925 15.1725C13.2248 15.4575 13.2675 15.6487 13.3605 15.7852C13.4978 15.984 13.7085 16.0552 14.0213 16.086C14.2785 16.0552 14.4705 16.0162 14.6183 15.867C14.7713 15.7462 14.8493 15.5227 14.907 15.1762C15.0278 14.4735 15.3488 12.1252 15.618 11.121C16.0208 9.67195 16.9703 7.0387 14.6378 6.83995C14.532 6.8242 14.442 6.8242 14.3408 6.8242L14.3528 6.7732L14.3633 6.7462ZM14.379 6.47695C14.469 6.47695 14.559 6.46495 14.6483 6.4447C15.2505 6.29695 15.5513 5.65195 15.5783 4.88695C15.609 4.0777 15.309 3.38695 14.6295 3.29695C14.5703 3.2767 14.5088 3.2767 14.4495 3.2767C13.9103 3.2767 13.5593 3.60895 13.3793 4.06945C13.2893 4.3087 13.23 4.5892 13.23 4.8907C13.2113 5.24995 13.2578 5.5777 13.3793 5.8477C13.539 6.2497 13.8593 6.5077 14.34 6.5077L14.367 6.46045L14.379 6.47695ZM17.1683 7.6762C21.4613 7.73845 23.9693 10.3792 21.129 13.98C19.809 15.648 17.598 17.301 14.6408 18.3517L14.2185 18.4995C13.9298 18.5895 13.6598 18.6795 13.3905 18.7575C12.7373 18.9375 12.1283 19.1017 11.5268 19.2225C10.8788 19.3582 10.2495 19.4482 9.648 19.5195C9.21075 19.5697 8.78925 19.6012 8.39775 19.6012C5.652 19.6792 3.582 18.9292 2.91 17.319C2.09775 15.4012 3.72975 12.729 7.02 10.6897C4.59 11.6587 0.180003 13.9785 -0.0157471 17.2605V17.6782C2.92994e-06 18.0292 0.0592529 18.357 0.180003 18.7215C0.887253 20.9392 4.188 21.9907 8.38725 21.6195C8.7975 21.5887 9.21525 21.5452 9.6375 21.4785C10.2428 21.3967 10.8675 21.2685 11.4968 21.1192C12.1028 20.9902 12.7275 20.8102 13.3635 20.607L13.7813 20.478C14.0663 20.3887 14.34 20.2987 14.6093 20.193C18.2543 18.873 20.961 17.1187 22.5353 15.0922C23.4345 13.9395 23.898 12.861 23.988 11.9122V11.178C23.73 8.7682 20.9303 7.35295 17.1128 7.7437L17.1555 7.69645L17.1683 7.6762Z" fill="black"/>
</g>
<defs>
<clipPath id="clip0_201_57550">
<rect width="24" height="24" fill="white"/>
</clipPath>
</defs>
</svg>
