<svg width="24" height="24" viewBox="0 0 24 24" fill="none" xmlns="http://www.w3.org/2000/svg">
<g clip-path="url(#clip0_201_58590)">
<path d="M23.8597 0.953181C23.8912 0.953181 23.9145 0.956931 23.9302 0.965181C23.946 0.973431 23.9535 0.988431 23.9535 1.02368L22.692 7.17593V7.20293H22.6335C22.6215 7.20293 22.5862 7.20293 22.5277 7.18718H22.485C22.4032 7.17518 22.3327 7.16018 22.2705 7.14443C22.2037 7.12868 22.134 7.12868 22.0597 7.12868C21.513 7.03868 20.9737 6.96443 20.4465 6.90593C19.9155 6.84368 19.3837 6.80018 18.8527 6.76943L18.4777 14.6324L18.411 14.5117C18.411 14.4959 18.3952 14.4959 18.3952 14.4802L18.3795 14.4644C18.3637 14.4644 18.348 14.4644 18.3367 14.4487C18.3172 14.4329 18.3172 14.4217 18.3172 14.4059C18.2902 14.3902 18.2587 14.3744 18.243 14.3437C18.2272 14.3279 18.2002 14.3009 18.1687 14.2852C18.0787 14.2109 17.9887 14.1367 17.8875 14.0624C17.7667 13.9844 17.661 13.9102 17.5552 13.8517L17.3797 13.7617L17.2155 13.6717C17.196 13.6717 17.184 13.6717 17.1682 13.6559L17.1525 13.6289L17.496 5.42543H17.613C17.7337 5.42543 17.871 5.42543 18.0037 5.43743C18.1402 5.45318 18.2887 5.45318 18.4215 5.45318L19.2457 5.50043C19.515 5.51618 19.7812 5.54318 20.0505 5.57468L20.4682 5.61743L20.8747 5.66468H20.9647C21 5.66468 21.0547 5.68043 21.1132 5.69168C21.1875 5.70743 21.2775 5.72318 21.3675 5.72318C21.4575 5.73893 21.5317 5.73893 21.5782 5.77043L22.3245 2.07893C22.3087 2.07893 22.2892 2.07893 22.2577 2.06318L22.137 2.01593C21.6172 1.91018 21.0787 1.82468 20.5395 1.73468C20.0002 1.66043 19.461 1.59818 18.9105 1.55468C18.4927 1.50743 18.063 1.48043 17.625 1.46468C17.199 1.44893 16.758 1.43318 16.3245 1.43318H15.5317C15.5317 1.46468 15.5317 1.49543 15.5197 1.52318L15.4725 1.67168L15.4297 1.81268C15.414 1.90268 15.387 2.00768 15.3435 2.09768C15.3045 2.19893 15.2692 2.28893 15.2377 2.37893C15.144 2.55893 15.0465 2.72243 14.9445 2.87093C14.8432 3.03518 14.7375 3.18368 14.628 3.35168C14.3782 3.64868 14.097 3.90218 13.7842 4.12868C13.4797 4.35143 13.1437 4.53068 12.7845 4.66418C12.5385 4.75418 12.2842 4.82843 12.0225 4.87493C11.7682 4.92218 11.511 4.94918 11.2455 4.94918C11.1045 4.94918 10.9642 4.94918 10.812 4.93343C10.6635 4.91768 10.5187 4.90193 10.3785 4.87493C9.97649 4.80068 9.58574 4.66418 9.22199 4.47293C8.85449 4.27793 8.52299 4.03568 8.22974 3.75443C8.06174 3.61793 7.92899 3.46943 7.80749 3.32093C7.69799 3.17243 7.58474 3.00818 7.47524 2.82893L6.76049 3.08318L6.04574 3.35243C5.55749 3.51668 5.08124 3.71168 4.61249 3.91868C4.15124 4.12943 3.68699 4.35218 3.23774 4.59068L2.54999 4.96568C2.32349 5.09843 2.09324 5.21993 1.85849 5.34068V5.35268C1.85849 5.36843 1.85099 5.36843 1.83524 5.36843L1.74524 5.41118L1.70999 5.44268L3.26099 8.85293L3.46049 8.74718C3.51899 8.71568 3.59324 8.67293 3.67124 8.64143C4.15574 8.38718 4.65149 8.16068 5.15174 7.93793C5.64749 7.73093 6.15149 7.52018 6.64424 7.32443H6.69149L8.74199 15.5587C9.07049 15.4139 9.37874 15.2932 9.66374 15.1957C9.96074 15.0944 10.2337 15.0044 10.5037 14.9264C11.0152 14.7854 11.5507 14.6804 12.0937 14.6099C12.6405 14.5432 13.1872 14.5042 13.7347 14.5042C14.016 14.5042 14.301 14.5199 14.586 14.5432C14.8552 14.5747 15.1095 14.6017 15.348 14.6489C15.633 14.7112 15.8985 14.7974 16.1527 14.8874C16.395 14.9932 16.6177 15.0982 16.8127 15.2467C17.0355 15.3952 17.2305 15.5594 17.3947 15.7544C17.5432 15.9494 17.6797 16.1564 17.7697 16.3837C17.856 16.6222 17.9025 16.8599 17.9182 17.1299C17.9182 17.3992 17.8867 17.6534 17.8282 17.8919C17.7967 18.0247 17.754 18.1462 17.7075 18.2512C17.649 18.3682 17.5905 18.4897 17.5162 18.5947C17.5162 18.6104 17.5162 18.6217 17.5005 18.6217C17.4847 18.6217 17.4847 18.6374 17.4847 18.6532L17.4375 18.6959C17.4217 18.7117 17.4217 18.7274 17.4217 18.7432C17.4217 18.7589 17.4217 18.7702 17.4375 18.7859L17.469 18.8482V18.8797L17.4847 18.9067L17.5747 19.1017C17.5905 19.1602 17.6017 19.2344 17.6017 19.2929C17.664 19.5472 17.676 19.8044 17.649 20.0699C17.6175 20.3549 17.559 20.6249 17.469 20.8784C17.3047 21.3119 17.0512 21.6832 16.7032 22.0267C16.3477 22.3702 15.8985 22.6709 15.3592 22.9372C14.9415 23.1637 14.4765 23.3437 13.9845 23.4922C13.4767 23.6407 12.9262 23.7734 12.3127 23.8829C12.1605 23.9099 12.0277 23.9414 11.895 23.9572L11.5042 23.9729L11.2545 23.9999L11.1487 22.5817V22.5659H11.1915L11.223 22.5502H11.3715L11.43 22.5029H11.61C11.6722 22.5029 11.7157 22.4872 11.7622 22.4872C12.0435 22.4444 12.3127 22.3972 12.567 22.3424C12.8362 22.2802 13.0905 22.2217 13.3597 22.1474C13.629 22.0732 13.8832 21.9952 14.1217 21.9052C14.3602 21.8347 14.5867 21.7297 14.8095 21.6239C15.0637 21.4874 15.2745 21.3547 15.4537 21.2062C15.633 21.0577 15.7822 20.9054 15.8992 20.7569C15.9772 20.6669 16.0515 20.5657 16.0942 20.4599C16.1415 20.3542 16.1685 20.2492 16.1842 20.1314V19.9049L16.0635 19.9949C16.0515 20.0107 16.0207 20.0219 15.9892 20.0377L15.888 20.0849C15.6772 20.2214 15.4545 20.3234 15.216 20.4284C14.9775 20.5334 14.7202 20.6392 14.4502 20.7292C14.196 20.8192 13.9425 20.9047 13.677 20.9677C13.4032 21.0382 13.1377 21.1004 12.8842 21.1477C12.5992 21.1904 12.3292 21.2377 12.0637 21.2647C11.79 21.2962 11.5245 21.3269 11.2552 21.3427H11.1067C10.8525 21.3427 10.611 21.3427 10.4032 21.3112C10.1805 21.2954 9.98549 21.2489 9.78974 21.2054C9.50849 21.1312 9.26624 21.0254 9.05924 20.8927C8.84849 20.7562 8.69999 20.5957 8.60999 20.3849C8.50874 20.2049 8.44574 19.9942 8.46149 19.7557C8.46149 19.5292 8.51999 19.3064 8.62574 19.0994C8.73149 18.9044 8.87999 18.7244 9.05924 18.5602C9.23849 18.3959 9.46124 18.2474 9.71549 18.1109C9.92624 18.0097 10.149 17.9039 10.4032 17.8297C10.6417 17.7554 10.911 17.6654 11.196 17.5912C11.4225 17.5289 11.6767 17.4704 11.9422 17.4269C12.2115 17.3797 12.4972 17.3527 12.8092 17.3369C12.915 17.3212 13.032 17.3054 13.1527 17.3054C13.2735 17.2897 13.3912 17.2897 13.5277 17.2897H13.9732L14.4225 17.3369C14.559 17.3527 14.6917 17.3639 14.8245 17.3954C14.961 17.4269 15.0787 17.4427 15.1995 17.4697C15.2737 17.4854 15.348 17.5169 15.4065 17.5319L15.5745 17.5904H15.5865C15.6022 17.5904 15.618 17.6062 15.618 17.6062L15.6337 17.6219L15.6765 17.6489L15.6495 17.6804C15.513 17.9932 15.2745 18.2467 14.9032 18.4267C14.5282 18.6217 14.274 18.7394 14.1105 18.7859H14.0947C14.079 18.7702 14.0677 18.7544 14.0595 18.7544H13.626C13.4895 18.7544 13.3522 18.7544 13.2195 18.7702C13.0867 18.7859 12.9577 18.7859 12.8325 18.8017C12.5512 18.8287 12.2775 18.8759 12.012 18.9187C11.7465 18.9659 11.496 19.0394 11.2657 19.1137C11.121 19.1564 10.9882 19.2037 10.8637 19.2622C10.7385 19.3094 10.6252 19.3522 10.512 19.4107C10.4497 19.4422 10.395 19.4729 10.3402 19.5007C10.2855 19.5322 10.2345 19.5629 10.188 19.5944C10.161 19.6214 10.1137 19.6529 10.071 19.6807C10.0237 19.7122 9.98474 19.7549 9.95024 19.8014C9.96599 19.8014 9.98924 19.8014 10.0125 19.8172L10.1452 19.8487V19.8757C10.2075 19.8914 10.266 19.9027 10.3252 19.9027C10.392 19.9027 10.4617 19.9184 10.536 19.9184C10.5982 19.9342 10.6612 19.9417 10.7235 19.9417H11.3287C11.583 19.9417 11.8402 19.9259 12.114 19.8794C12.3832 19.8404 12.6607 19.8052 12.942 19.7504C13.227 19.6882 13.4887 19.6252 13.7347 19.5434C13.9807 19.4654 14.223 19.3754 14.4577 19.2854C14.5905 19.2427 14.712 19.1842 14.817 19.1369C14.934 19.0784 15.0397 19.0199 15.1605 18.9569L15.4417 18.7927C15.5475 18.7304 15.6682 18.6599 15.774 18.5857C15.9382 18.4447 16.0867 18.2692 16.2352 18.0742C16.3995 17.8829 16.4737 17.6564 16.4737 17.4142C16.4737 17.2852 16.458 17.1757 16.4152 17.0707C16.3837 16.9649 16.3252 16.8757 16.2352 16.8014C16.161 16.7272 16.071 16.6492 15.981 16.5907C15.891 16.5322 15.786 16.4737 15.6525 16.4264C15.3982 16.3364 15.129 16.2622 14.844 16.2314C14.5747 16.1924 14.3362 16.1729 14.1135 16.1729C14.0355 16.1572 13.965 16.1572 13.8712 16.1572H13.6485C13.1797 16.1572 12.711 16.1924 12.2422 16.2629C11.7735 16.3372 11.3167 16.4272 10.863 16.5599C10.6087 16.6222 10.3627 16.6964 10.113 16.7864C9.85874 16.8877 9.59699 16.9777 9.31574 17.0992C9.09674 17.1892 8.87024 17.2792 8.63624 17.3962L7.88999 17.7869L7.84724 17.8184L5.78099 9.25568L5.69099 9.29843L5.59724 9.34568C5.09324 9.56843 4.60499 9.79493 4.12049 10.0492C3.63224 10.3034 3.15599 10.5569 2.69099 10.8224L2.63999 10.8539L0.0464935 4.82693C0.0464935 4.81118 0.0539935 4.80368 0.0697435 4.79993L0.182994 4.71368C0.214494 4.69793 0.245244 4.67843 0.280494 4.65518C0.307494 4.63193 0.335244 4.61243 0.350994 4.59293C0.362994 4.59293 0.377994 4.59293 0.382494 4.58543H0.394494C0.503994 4.52693 0.620994 4.46843 0.734244 4.39418L1.10174 4.16768C1.31624 4.05068 1.53899 3.91343 1.76549 3.79643C2.00399 3.67568 2.21474 3.53843 2.43749 3.42143C2.89874 3.18293 3.36299 2.96018 3.82424 2.74943C4.30499 2.52293 4.78124 2.31593 5.24624 2.13593C5.75399 1.94093 6.24599 1.76468 6.73874 1.60043C7.23449 1.42043 7.74299 1.25693 8.26199 1.11968L8.30924 1.08818V1.13543C8.38349 1.44818 8.48924 1.73318 8.65274 2.01818C8.81699 2.28368 9.01199 2.52218 9.23474 2.74868C9.51974 2.98718 9.83249 3.18218 10.1917 3.33068C10.551 3.46718 10.9222 3.53768 11.2972 3.53768C11.3445 3.53768 11.3872 3.52568 11.43 3.52568C11.469 3.50993 11.5117 3.50993 11.559 3.50993C11.9302 3.47843 12.297 3.37343 12.6487 3.19343C12.9967 3.01343 13.305 2.79518 13.5705 2.50568C13.8675 2.17718 14.094 1.80668 14.2147 1.38818C14.3475 0.970431 14.3947 0.521181 14.316 0.0719307L14.3632 0.0561807L15.3787 0.0134307C15.7222 -0.00231934 16.0507 -0.00231934 16.3942 -0.00231934H17.0385C17.589 0.0134307 18.1282 0.0449307 18.6675 0.0719307C19.203 0.103431 19.7415 0.161931 20.2807 0.220431C20.8005 0.282681 21.3082 0.356931 21.816 0.446931C22.3275 0.536931 22.8202 0.638181 23.328 0.775431L23.3752 0.791181L23.4652 0.818181L23.6452 0.865431C23.7037 0.881181 23.7622 0.892431 23.8095 0.923931H23.8252C23.841 0.923931 23.8522 0.939681 23.868 0.939681L23.8995 0.955431L23.8597 0.953181Z" fill="black"/>
</g>
<defs>
<clipPath id="clip0_201_58590">
<rect width="24" height="24" fill="white"/>
</clipPath>
</defs>
</svg>
