<svg width="24" height="24" viewBox="0 0 24 24" fill="none" xmlns="http://www.w3.org/2000/svg">
<g clip-path="url(#clip0_201_57252)">
<path d="M12.0075 17.3632L24 9.88649V11.9137L12.0075 19.4212L0 11.9092V9.88574L12.0075 17.3632ZM12.0075 7.98449C9.30075 7.98449 6.92175 9.34799 5.55825 11.4532C5.6715 11.3437 5.73375 11.2777 5.847 11.199C9.21825 8.39399 14.0813 9.03074 16.7295 12.5625L18.4875 11.4375C17.0933 9.39449 14.6985 7.98449 12.0068 7.98449H12.0075ZM12.0075 11.4532C10.6012 11.457 9.28125 12.1365 8.46075 13.2735C9.078 12.8205 9.828 12.5745 10.5975 12.5782C11.898 12.5782 13.0545 13.242 13.8278 14.367L15.5077 13.3237C14.781 12.1635 13.4805 11.4525 12.0075 11.4525V11.4532ZM3.8985 8.41049C8.84025 4.51574 15.8243 5.57474 19.551 10.758L19.578 10.7895L21.402 9.66448C19.332 6.48898 15.7965 4.57874 12.0075 4.57874C8.109 4.57874 4.64025 6.57449 2.613 9.66448C2.976 9.25048 3.43725 8.76224 3.8985 8.41049Z" fill="black"/>
</g>
<defs>
<clipPath id="clip0_201_57252">
<rect width="24" height="24" fill="white"/>
</clipPath>
</defs>
</svg>
