<svg width="24" height="24" viewBox="0 0 24 24" fill="none" xmlns="http://www.w3.org/2000/svg">
<g clip-path="url(#clip0_201_58060)">
<path d="M11.1293 7.17226C10.6335 7.59001 14.0745 6.71551 13.7303 8.41051C13.398 10.0433 10.1093 8.06626 6.50851 8.23426C4.91476 8.30926 3.45376 8.76601 2.52376 9.90226C3.49651 8.79301 5.42251 9.05926 4.92301 9.82051C3.74701 11.5988 1.54426 10.3163 0.000762939 13.7978C0.184513 13.3958 0.684763 12.603 2.84476 12.2708C4.43101 12.0278 7.05976 12.255 7.89901 13.5668C8.82076 15.0128 4.13776 14.8485 6.73126 15.1418C10.3253 15.5475 13.0283 18.45 16.5443 18.45C21.0953 18.45 23.9663 16.1303 24.0015 12.306C24.0638 5.38426 14.8995 3.98926 11.1308 7.17301L11.1293 7.17226ZM17.898 14.727C16.7033 14.691 15.492 14.2148 14.535 13.746C12.168 12.5903 11.1953 12.1913 11.1953 12.1373C11.1953 12.0705 12.6173 12.621 15.0083 11.3483C16.3913 10.6133 16.4415 9.97351 17.898 9.84451C19.629 9.69151 20.859 10.9733 20.859 12.3203C20.859 13.6725 19.641 14.7735 17.898 14.727Z" fill="black"/>
</g>
<defs>
<clipPath id="clip0_201_58060">
<rect width="24" height="24" fill="white"/>
</clipPath>
</defs>
</svg>
