<svg width="24" height="24" viewBox="0 0 24 24" fill="none" xmlns="http://www.w3.org/2000/svg">
<g clip-path="url(#clip0_201_57590)">
<path d="M23.9962 4.68379C23.9962 2.60479 22.32 0.90979 20.2702 0.90979H3.71922C1.66422 0.90979 -0.00378418 2.60479 -0.00378418 4.69054V12.2265C-0.00378418 12.5618 0.0389658 12.8948 0.128966 13.2225C0.159716 13.3545 0.198716 13.4873 0.249716 13.6125C0.499466 14.2335 0.901466 14.7803 1.42197 15.2063C1.93422 15.729 2.59422 16.3005 3.38697 16.9133L3.49197 16.9875L3.92997 17.3198L4.44897 17.7188C5.63697 18.6285 7.65222 20.172 10.6132 22.4258C11.0985 22.7925 11.652 23.1015 11.9962 23.1015C12.3405 23.1015 12.8985 22.7925 13.3792 22.4258C16.3402 20.172 18.3525 18.6285 19.5435 17.7188L20.5162 16.977H20.5125L20.6212 16.8908C21.4222 16.281 22.086 15.7028 22.59 15.1838C23.1052 14.766 23.4997 14.223 23.742 13.605C23.9062 13.164 23.9917 12.699 23.9962 12.2303V5.07829V4.68379ZM19.8547 10.926C19.7617 10.9103 19.668 10.8953 19.5735 10.8833C19.4685 10.8833 19.3477 10.8675 19.2412 10.8675C18.9645 10.8593 18.687 10.9185 18.4335 11.0318C18.2182 11.1338 18.0307 11.2778 17.8942 11.4698C17.757 11.6648 17.6632 11.8838 17.604 12.114C17.5462 12.3683 17.5147 12.6383 17.5147 12.9233V15.8063H12.4867L8.75697 10.2203L7.19772 11.7983V15.771H4.47897V3.39904H7.19397V8.53204L12.0262 3.40279H15.4215L10.5937 8.28979L15.7575 15.5828V9.40279H17.4217V10.587H17.4405C17.5267 10.392 17.6362 10.2038 17.7727 10.0358C17.9175 9.86779 18.0735 9.72754 18.258 9.60604C18.438 9.50104 18.633 9.39904 18.8362 9.33679C19.0395 9.27754 19.2585 9.24679 19.4775 9.24679C19.5907 9.24679 19.7152 9.27754 19.8555 9.30979L19.8547 10.926Z" fill="black"/>
</g>
<defs>
<clipPath id="clip0_201_57590">
<rect width="24" height="24" fill="white"/>
</clipPath>
</defs>
</svg>
