<svg width="24" height="24" viewBox="0 0 24 24" fill="none" xmlns="http://www.w3.org/2000/svg">
<g clip-path="url(#clip0_201_58212)">
<path d="M0.375 12.4898C0.483 6.12376 4.94025 1.59376 10.3973 0.86026C16.9035 -0.0119905 22.3785 4.41376 23.4285 10.287C24.4268 15.8558 21.366 21.0683 16.3223 23.1308C15.8865 23.3085 15.6473 23.2103 15.4785 22.77C14.6438 20.5995 13.8098 18.4275 12.9758 16.254C12.8303 15.8745 12.9285 15.6353 13.3043 15.4665C14.4383 14.9505 15.1463 14.088 15.3338 12.8505C15.4763 11.9333 15.2318 10.9973 14.6588 10.2668C14.0858 9.53626 13.2353 9.07651 12.3098 8.99701C10.4813 8.83726 8.94375 10.1078 8.67675 11.7953C8.433 13.3425 9.19725 14.781 10.641 15.4373C11.091 15.6435 11.1803 15.8408 11.007 16.2998C10.1678 18.4845 9.3285 20.67 8.49 22.8578C8.36775 23.181 8.10075 23.2935 7.76325 23.1623C5.29725 22.2105 3.00975 20.3025 1.632 17.5838C0.465 15.2775 0.45075 13.473 0.37575 12.4883L0.375 12.4898ZM1.3545 12.4005C1.37325 12.7103 1.383 13.071 1.41525 13.4363C1.71075 16.8068 3.74025 20.163 7.55625 22.0193C7.70625 22.0898 7.7625 22.0568 7.81875 21.9113C8.517 20.0783 9.2205 18.2453 9.9285 16.413C9.98925 16.2585 9.95625 16.188 9.816 16.0988C8.33475 15.1658 7.599 13.8255 7.6785 12.0675C7.72575 11.055 8.11425 10.1693 8.7945 9.42826C10.2008 7.89526 12.4043 7.56226 14.2088 8.60326C15.7005 9.46351 16.5345 11.1315 16.3275 12.8408C16.1588 14.2748 15.423 15.3675 14.1855 16.1123C14.0588 16.1873 14.0213 16.248 14.0775 16.3935C14.79 18.231 15.4965 20.07 16.1963 21.9105C16.2525 22.056 16.3088 22.0883 16.4588 22.0185C18.123 21.2408 19.515 20.1293 20.5883 18.6435C22.2195 16.3845 22.89 13.8668 22.5713 11.0963C21.9293 5.58826 16.9748 1.02751 10.5945 1.81501C5.62125 2.42476 1.44 6.61951 1.35525 12.3998L1.3545 12.4005Z" fill="black"/>
</g>
<defs>
<clipPath id="clip0_201_58212">
<rect width="24" height="24" fill="white"/>
</clipPath>
</defs>
</svg>
