<svg width="24" height="24" viewBox="0 0 24 24" fill="none" xmlns="http://www.w3.org/2000/svg">
<path d="M0.0780029 9.26998H2.00025C2.44125 9.26998 2.949 9.67198 3.19125 9.89773L6.55125 13.59V9.26998H7.6995V15.1717H5.69925C5.34 15.1477 4.98825 15.0697 4.578 14.6797L1.21875 10.98V15.1597H0.0780029V9.26998ZM23.922 15.1987C22.551 15.3907 21.1718 15.3975 19.7813 15.2887C18.969 15.2415 18.1725 15.0345 17.4413 14.6797C16.5203 14.199 16.2195 13.1407 16.2383 12.18C16.2383 11.301 16.512 10.3522 17.3093 9.82798C17.8283 9.52723 18.402 9.33598 19.0005 9.26998C20.6213 8.98798 22.2503 9.05098 23.8403 9.23023V10.0702C21.969 9.71098 19.9883 9.80098 19.32 10.6485C18.984 11.0745 18.8123 11.6092 18.84 12.1485C18.84 12.9495 19.1213 14.1487 20.7623 14.3917C21.828 14.5395 22.8915 14.4225 23.922 14.2387V15.1987ZM12.1988 14.2807C12.3585 14.2807 14.9408 14.301 15.828 14.2807V15.1597C14.0393 15.2295 12.3278 15.2617 10.5308 15.1905C9 15.1282 8.73 14.3707 8.7105 13.6402V9.26923H15.7373V10.1085H11.1983V11.6085H15.351V12.4297H11.1983L11.2185 13.461C11.2373 14.031 11.5193 14.238 12.2108 14.2807H12.1988Z" fill="black"/>
</svg>
