<svg width="24" height="24" viewBox="0 0 24 24" fill="none" xmlns="http://www.w3.org/2000/svg">
<g clip-path="url(#clip0_201_58478)">
<path d="M1.176 12.2273C1.125 12.2273 1.08225 12.27 1.074 12.324L0.84 14.4803L1.074 16.5863C1.08225 16.641 1.125 16.6845 1.176 16.6845C1.227 16.6845 1.266 16.6418 1.27275 16.5863L1.527 14.4803L1.25775 12.324C1.25775 12.27 1.215 12.2273 1.16775 12.2273H1.176ZM0.27 13.0553C0.21075 13.0553 0.18 13.0905 0.16425 13.1483L0 14.4803L0.16425 15.7853C0.16425 15.8445 0.2115 15.8835 0.25425 15.8835C0.3015 15.8835 0.34425 15.8363 0.35925 15.7778L0.57 14.4578L0.35925 13.1258C0.35925 13.0628 0.3165 13.0358 0.27 13.0358V13.0553ZM2.09775 11.805C2.0385 11.805 1.98 11.8523 1.98 11.91L1.77 14.4728L1.992 16.9298C1.992 16.9875 2.03925 17.0505 2.11275 17.0505C2.17575 17.0505 2.2185 16.9875 2.2335 16.9298L2.48775 14.457L2.2335 11.9063C2.2185 11.8485 2.17125 11.7893 2.11275 11.7893L2.09775 11.805ZM3.05925 11.6993C2.98425 11.6993 2.922 11.7585 2.90625 11.8365L2.715 14.4735L2.92575 17.0205C2.94075 17.0948 3 17.1563 3.0735 17.1563C3.147 17.1563 3.21075 17.094 3.22275 17.0085L3.465 14.4735L3.22275 11.8523C3.22275 11.7773 3.1635 11.715 3.09 11.715L3.05925 11.6993ZM4.215 12.0593C4.20675 11.9693 4.137 11.91 4.05525 11.91C3.96525 11.91 3.8955 11.9693 3.891 12.0593L3.672 14.4885L3.87075 17.0513C3.87075 17.1413 3.94875 17.211 4.0305 17.211C4.10475 17.211 4.17975 17.1413 4.17975 17.0513L4.4055 14.4885L4.17975 12.0435L4.215 12.0593ZM5.02275 10.3523C4.9215 10.3523 4.8435 10.4415 4.8435 10.5315L4.63275 14.4885L4.8195 17.0513C4.8195 17.1413 4.8975 17.2155 4.9995 17.2155C5.09325 17.2155 5.17125 17.1255 5.1795 17.0355L5.3865 14.4735L5.1795 10.5008C5.17125 10.3958 5.0895 10.3208 4.9995 10.3208L5.02275 10.3523ZM5.95725 9.40576C5.85225 9.40576 5.76225 9.49576 5.754 9.60151L5.574 14.4728L5.73825 17.0198C5.73825 17.1405 5.82825 17.2298 5.934 17.2298C6.039 17.2298 6.129 17.1405 6.14475 17.0198L6.33975 14.4728L6.14475 9.61651C6.129 9.49576 6.039 9.40576 5.93775 9.40576H5.95725ZM6.92625 8.95726C6.8055 8.95726 6.7155 9.04726 6.699 9.16426L6.53475 14.4413L6.699 16.9613C6.71475 17.0783 6.80475 17.1885 6.92625 17.1885C7.04325 17.1885 7.14825 17.0828 7.14825 16.9613L7.344 14.4413L7.14825 9.16426C7.14825 9.04726 7.04325 8.94151 6.92625 8.94151V8.95726ZM8.16825 8.98426C8.16825 8.85226 8.0625 8.74651 7.9305 8.74651C7.80975 8.74651 7.68825 8.85226 7.68825 8.98426L7.539 14.4263L7.68825 16.9305C7.70325 17.0663 7.809 17.1728 7.9455 17.1728C8.07825 17.1728 8.18475 17.067 8.18475 16.9305L8.349 14.4263L8.18475 8.97301L8.16825 8.98426ZM8.91825 8.85226C8.781 8.85226 8.664 8.97301 8.664 9.10501L8.51175 14.43L8.664 16.902C8.664 17.0513 8.781 17.1563 8.91825 17.1563C9.0555 17.1563 9.1725 17.0355 9.1725 16.887L9.32475 14.4098L9.15675 9.10501C9.15675 8.95726 9.03975 8.83576 8.8875 8.83576L8.91825 8.85226ZM9.891 9.00001C9.72675 9.00001 9.609 9.13726 9.609 9.28501L9.504 14.43L9.64125 16.902C9.64125 17.0513 9.75825 17.1803 9.92625 17.1803C10.074 17.1803 10.1955 17.0595 10.2075 16.8953L10.3282 14.4533L10.1955 9.34051C10.1842 9.17626 10.0597 9.05551 9.9105 9.05551L9.891 9.00001ZM11.094 8.10901C11.0468 8.08201 10.9882 8.06626 10.9298 8.06626C10.8667 8.06626 10.809 8.08201 10.7618 8.10901C10.6718 8.16376 10.6125 8.26201 10.6125 8.36326V8.42626L10.5113 14.4735L10.6245 16.9223V16.9305C10.6328 16.9928 10.6553 17.0663 10.6988 17.1098C10.758 17.1728 10.8398 17.2155 10.9335 17.2155C11.0115 17.2155 11.0895 17.1728 11.1405 17.1255C11.1982 17.0663 11.2335 16.9883 11.2335 16.8983L11.2455 16.6605L11.3625 14.4578L11.2297 8.37151C11.2297 8.26651 11.1675 8.18026 11.094 8.13376V8.10901ZM12.0983 7.56226C12.0555 7.52026 12.0083 7.50451 11.949 7.50451C11.8748 7.50451 11.8013 7.52026 11.7382 7.56226C11.664 7.62526 11.6213 7.71526 11.6213 7.80526V7.83226L11.484 14.4413L11.559 15.6563L11.6213 16.8405C11.6213 17.0048 11.7705 17.1563 11.949 17.1563C12.129 17.1563 12.2767 17.004 12.2767 16.824L12.4298 14.4098L12.2767 7.77301C12.2767 7.65601 12.2025 7.55476 12.1125 7.49626L12.0983 7.56226ZM21.0472 11.2733C20.6453 11.2733 20.2545 11.3595 19.9103 11.508C19.668 8.85226 17.4495 6.77026 14.7233 6.77026C14.0625 6.77026 13.4145 6.90601 12.8325 7.12951C12.6053 7.21951 12.5625 7.30951 12.5475 7.48876V16.8555C12.5625 17.0355 12.6953 17.1885 12.8798 17.2035H21.063C22.6807 17.2193 24.0007 15.9143 24.0007 14.2815C24.0007 12.6458 22.6807 11.3288 21.063 11.3288L21.0472 11.2733Z" fill="black"/>
</g>
<defs>
<clipPath id="clip0_201_58478">
<rect width="24" height="24" fill="white"/>
</clipPath>
</defs>
</svg>
