<svg width="24" height="24" viewBox="0 0 24 24" fill="none" xmlns="http://www.w3.org/2000/svg">
<g clip-path="url(#clip0_201_58242)">
<path d="M11.961 17.805L19.9177 14.406L12.8707 21.648C12.7455 20.3363 12.438 19.0388 11.961 17.805ZM24 11.1173C18.8977 10.8833 13.7932 11.5313 8.91373 13.0395C9.93748 14.1098 10.7925 15.3285 11.4487 16.6605C15.4875 14.4105 21.0937 11.5358 24 11.1293V11.1135V11.1173ZM11.4262 11.3948L11.6332 11.3318C13.1722 10.875 14.6842 10.3155 16.1565 9.67576C17.6482 9.09376 19.0515 8.29651 20.3167 7.30876C21.6607 6.24151 22.6725 4.81201 23.2305 3.18751C23.3527 2.92126 23.4412 2.64076 23.4967 2.35126C21.474 5.10826 13.458 5.39701 13.458 5.39701L15.3487 3.66301C9.84073 3.68326 4.46998 5.42476 0.000732422 8.64376C3.03148 8.96776 5.87998 10.2405 8.14198 12.276C9.22798 11.94 10.3372 11.7023 11.427 11.397L11.4262 11.3948Z" fill="black"/>
</g>
<defs>
<clipPath id="clip0_201_58242">
<rect width="24" height="24" fill="white"/>
</clipPath>
</defs>
</svg>
