<svg width="24" height="24" viewBox="0 0 24 24" fill="none" xmlns="http://www.w3.org/2000/svg">
<g clip-path="url(#clip0_201_58336)">
<path d="M22.0125 3.27075H16.1872C14.1832 3.27075 12.4417 4.65825 12.0037 6.6165C11.562 4.65825 9.82424 3.27075 7.82024 3.27075H1.99949C0.895487 3.27075 -0.000762939 4.16625 -0.000762939 5.271V15.513C-0.000762939 16.617 0.894737 17.5133 1.99949 17.5133H5.73674C9.99524 17.5133 11.2657 18.5295 11.874 20.6385C11.9032 20.7555 12.0907 20.7555 12.1237 20.6385C12.7365 18.5303 14.007 17.5133 18.261 17.5133H21.9982C23.1022 17.5133 23.9985 16.6178 23.9985 15.513V5.2755C23.9985 4.17525 23.1112 3.27975 22.011 3.2715L22.0125 3.27075ZM10.083 14.3288C10.083 14.4083 10.0207 14.4743 9.93749 14.4743H3.25799C3.17924 14.4743 3.11249 14.412 3.11249 14.3288V13.3748C3.11249 13.296 3.17474 13.2293 3.25799 13.2293H9.94124C10.02 13.2293 10.0867 13.2915 10.0867 13.3748V14.3288H10.083ZM10.083 11.7915C10.083 11.8703 10.0207 11.937 9.93749 11.937H3.25799C3.17924 11.937 3.11249 11.8748 3.11249 11.7915V10.8375C3.11249 10.758 3.17474 10.692 3.25799 10.692H9.94124C10.02 10.692 10.0867 10.7543 10.0867 10.8375V11.7915H10.083ZM10.083 9.25425C10.083 9.333 10.0207 9.39975 9.93749 9.39975H3.25799C3.17924 9.39975 3.11249 9.3375 3.11249 9.25425V8.30025C3.11249 8.2215 3.17474 8.15475 3.25799 8.15475H9.94124C10.02 8.15475 10.0867 8.217 10.0867 8.30025V9.25425H10.083ZM20.8875 14.325C20.8875 14.4038 20.8252 14.4705 20.742 14.4705H14.0625C13.9837 14.4705 13.917 14.4083 13.917 14.325V13.371C13.917 13.2923 13.9792 13.2255 14.0625 13.2255H20.7457C20.8252 13.2255 20.8912 13.2878 20.8912 13.371V14.325H20.8875ZM20.8875 11.7878C20.8875 11.8673 20.8252 11.9333 20.742 11.9333H14.0625C13.9837 11.9333 13.917 11.871 13.917 11.7878V10.8338C13.917 10.755 13.9792 10.6883 14.0625 10.6883H20.7457C20.8252 10.6883 20.8912 10.7505 20.8912 10.8338V11.7878H20.8875ZM20.8875 9.24975C20.8875 9.3285 20.8252 9.39525 20.742 9.39525H14.0625C13.9837 9.39525 13.917 9.333 13.917 9.24975V8.2995C13.917 8.22075 13.9792 8.154 14.0625 8.154H20.7457C20.8252 8.154 20.8912 8.21625 20.8912 8.2995V9.24975H20.8875Z" fill="black"/>
</g>
<defs>
<clipPath id="clip0_201_58336">
<rect width="24" height="24" fill="white"/>
</clipPath>
</defs>
</svg>
