<svg width="24" height="24" viewBox="0 0 24 24" fill="none" xmlns="http://www.w3.org/2000/svg">
<path d="M17.7855 11.4105H16.7618C16.7618 11.313 16.7423 11.2192 16.7108 11.1255C16.629 10.9222 16.461 10.7625 16.2495 10.6995C15.9525 10.6057 15.6323 10.6095 15.3353 10.719C15.0855 10.809 14.8897 11.0077 14.7997 11.262C14.6392 11.7187 14.6242 12.219 14.7607 12.684C14.835 12.9532 15.0345 13.1722 15.2963 13.2697C15.609 13.3867 15.9525 13.3987 16.2728 13.2967C16.464 13.2345 16.6208 13.0935 16.7025 12.9097C16.7572 12.7845 16.7843 12.6517 16.7805 12.5152H17.8118C17.8043 12.6322 17.7885 12.75 17.7645 12.867C17.6745 13.23 17.4165 13.539 17.0767 13.6792C16.3657 13.9837 15.5647 14.019 14.8267 13.785C14.3505 13.6365 13.9358 13.293 13.7723 12.8242C13.686 12.57 13.6395 12.3045 13.6395 12.0352C13.6395 11.6482 13.71 11.2732 13.8937 10.9612C14.0887 10.641 14.382 10.3912 14.7375 10.2577C15.4875 9.97648 16.3193 9.99598 17.0543 10.32C17.4135 10.476 17.6715 10.7925 17.7533 11.1757C17.769 11.25 17.7802 11.3317 17.7847 11.4105H17.7855ZM13.8082 13.848H12.7185L12.3983 13.0552H10.566C10.566 13.0552 10.2495 13.848 10.2458 13.848H9.156L10.8825 10.1527C10.8825 10.1565 12.0817 10.1527 12.0817 10.1527L13.8082 13.848ZM19.2892 13.848H18.3127C18.3127 13.848 18.3202 10.1527 18.3127 10.1527H19.2892V11.6332H21.2655C21.2655 11.637 21.2655 10.1527 21.2655 10.1527H22.2458C22.2458 10.1527 22.2495 13.8405 22.2458 13.848H21.2655V12.2227C21.2655 12.2265 19.2892 12.2227 19.2892 12.2227C19.293 12.2265 19.2892 13.8435 19.2892 13.848ZM0.98025 13.848H0C0 13.848 0.00375 10.1527 0 10.1527H0.98025C0.98025 10.1527 0.9765 11.6407 0.98025 11.6332H2.95275C2.95275 11.637 2.949 10.1527 2.95275 10.1527H3.933C3.933 10.1527 3.93675 13.8405 3.933 13.848H2.95275V12.2227C2.95275 12.2265 0.98025 12.2227 0.98025 12.2227C0.98025 12.2265 0.9765 13.848 0.98025 13.848ZM8.51175 13.848H7.5315V10.7812H6.03525C6.03525 10.7812 6.039 10.1565 6.03525 10.152C6.039 10.1557 10.008 10.152 10.008 10.152V10.7812H8.51175V13.848ZM4.71075 10.152H5.68725V13.8472H4.71075V10.152ZM23.0198 10.152H24V13.8472H23.0198V10.152ZM11.4847 10.7812L10.8053 12.4612H12.165L11.4847 10.7812Z" fill="black"/>
</svg>
