<svg width="24" height="24" viewBox="0 0 24 24" fill="none" xmlns="http://www.w3.org/2000/svg">
<path d="M4.83975 10.1452V10.7152H4.8705C5.89425 10.1025 6.9405 10.0515 7.5735 10.0515C9.26925 10.0515 9.85125 10.5277 10.0612 10.7115C10.452 10.4842 11.292 10.0312 12.7455 10.0312C15.6442 10.0312 15.6442 11.1765 15.6442 11.6212V14.3242H13.3193V11.9385C13.3193 11.4457 13.3193 10.8952 12.0773 10.8952C11.4683 10.8952 10.839 11.082 10.6163 11.355C10.4093 11.5897 10.323 11.8012 10.323 12.3157V14.34H7.99875V12.0352C7.99875 11.3242 8.0145 10.8952 6.79575 10.8952C6.1785 10.8952 5.55375 11.0595 5.3145 11.301C5.12775 11.484 5.00625 11.6797 5.00625 12.297V14.3362H2.67V10.137H4.82625L4.83975 10.1452ZM21.27 11.0737H19.578V12.7537C19.578 13.3477 19.578 13.539 20.2703 13.539C20.598 13.539 20.8913 13.5037 21.1995 13.4452L21.2708 13.434L21.489 14.289C20.673 14.4382 19.7782 14.4532 19.524 14.4532C18.7673 14.4532 17.7817 14.3445 17.4188 14.031C17.1098 13.773 17.0745 13.5232 17.0745 12.891V11.07H15.9307V10.191H17.0707V9.363L19.5945 8.71499V10.1947H21.2895V11.07L21.27 11.0737ZM1.539 16.7107C0.61275 15.312 0 13.6477 0 11.9797C0 10.0035 0.77325 8.39774 1.56225 7.26974H2.496C1.80075 8.80874 1.32825 10.1205 1.32825 12.0225C1.32825 14.2027 2.10225 15.8865 2.45325 16.6477C2.46525 16.6477 2.4885 16.695 2.4885 16.7107H1.539ZM22.461 7.28924C23.3873 8.68799 24 10.3522 24 12.0202C24 13.992 23.223 15.6022 22.4377 16.7302H21.504C22.1947 15.1882 22.6717 13.8795 22.6717 11.9775C22.6717 9.7935 21.8948 8.1135 21.543 7.3485C21.531 7.34025 21.5123 7.30124 21.5123 7.28924H22.461Z" fill="black"/>
</svg>
