<svg width="24" height="24" viewBox="0 0 24 24" fill="none" xmlns="http://www.w3.org/2000/svg">
<g clip-path="url(#clip0_201_58378)">
<path d="M13.4768 16.6328C15.3638 16.3785 16.7348 15.5198 18.012 14.0625C19.512 12.3083 19.9418 9.95327 19.3403 7.72277C18.7388 5.58227 17.028 3.91052 14.8013 3.60977C12.0435 3.18377 9.18003 4.50827 7.16028 6.31277C7.11753 6.35177 6.99603 6.43802 6.94953 6.52352C6.74253 6.13652 6.46878 5.75402 6.18003 5.45327C5.79753 4.89452 4.94178 3.99227 4.89453 3.95327C4.72653 3.73877 4.42578 3.69527 4.25778 3.60977C3.73053 3.49652 3.36678 3.32102 3.14028 3.19202C3.12828 3.17252 3.11328 3.15677 3.09753 3.13727L0.914281 0.82502C0.699781 0.64952 0.441781 0.61052 0.226531 0.82502C0.0585313 1.03952 0.0120313 1.29752 0.226531 1.51277L2.39028 3.84452H2.42178C2.49603 3.97727 2.76978 4.20377 2.87103 4.67252C2.91828 4.88327 3.03903 5.13752 3.24978 5.43827C3.24978 5.43827 4.75728 7.06352 5.35953 8.16452C5.91453 9.27752 6.05103 9.62552 6.12528 9.83627C6.12528 9.86327 5.57028 9.18752 4.92228 8.72327C2.43753 11.5515 0.629281 14.9423 0.102031 18.6143C-0.452969 22.38 1.60953 23.376 3.14478 23.3288C4.37928 23.3288 6.95328 22.0043 8.32428 18.708C9.64878 15.501 9.44178 11.8095 8.10153 8.60252C9.37878 7.30577 11.742 5.77052 14.0468 5.81702C15.7658 5.81702 16.6208 7.30502 16.7423 7.44227C18.0668 9.83702 16.5158 11.9895 16.5158 11.9895C15.66 13.2863 14.1683 13.8878 13.383 14.0993C12.7973 14.2635 11.6835 14.22 11.4105 14.0993C11.2463 14.052 11.1998 13.9628 11.1998 13.8413C11.1998 13.6613 11.3363 13.587 11.4578 13.587C11.622 13.587 11.7158 13.7078 11.7158 13.845V13.9815C12.1493 14.1023 12.993 14.013 13.341 13.9815C13.0673 13.3373 12.4815 12.993 11.6963 12.993H11.661C10.653 13.0005 9.84078 13.8248 9.84828 14.8365C9.84828 15.606 10.2818 16.2548 10.9148 16.5083C11.247 16.6373 12.243 16.7663 13.4775 16.6373L13.4768 16.6328ZM6.65628 16.2068C5.79678 19.98 3.39828 21.3083 2.75403 21.0893C2.11353 20.8785 1.89828 18.9915 3.18378 15.8198C3.39828 15.351 4.68378 12.3938 6.35553 10.5503C6.30828 10.6365 7.29678 13.4213 6.65628 16.2068ZM23.1878 16.9373L24 13.851C24.0315 13.593 23.91 13.2923 23.652 13.2495C23.394 13.2068 23.0933 13.3395 23.0663 13.593L22.2578 16.5698H22.1603C22.1445 16.593 22.1333 16.6125 22.1175 16.6365C21.9968 16.851 21.7695 17.1953 21.438 17.4488C21.1838 17.6633 21.063 17.9213 21.063 17.9213C20.9423 18.0503 20.0865 20.7495 17.391 20.8785C14.211 21.0075 13.5788 17.4488 13.5353 17.1518C12.8558 17.277 11.4848 16.9763 10.9298 16.722C11.094 18.6908 12.0428 21.0465 13.7153 22.1633C15.6413 23.4915 18.6413 23.4915 20.7038 22.1633C21.891 21.3465 22.6763 20.3198 23.1885 18.9915L23.2313 18.882L23.247 18.8468C23.2628 18.8115 23.2628 18.7725 23.2943 18.7335V18.6908C23.2628 18.6908 23.2943 18.4328 23.22 18.1748C23.0558 17.4915 23.1885 17.0618 23.1885 16.9365L23.1878 16.9373Z" fill="black"/>
</g>
<defs>
<clipPath id="clip0_201_58378">
<rect width="24" height="24" fill="white"/>
</clipPath>
</defs>
</svg>
