<svg width="24" height="24" viewBox="0 0 24 24" fill="none" xmlns="http://www.w3.org/2000/svg">
<g clip-path="url(#clip0_201_57418)">
<path d="M12.0548 0C11.082 0 9.65553 0.40575 9.65553 0.762V2.87925C10.4528 2.715 11.2613 2.62125 12.0735 2.6055C12.8865 2.62575 13.6988 2.71125 14.4953 2.86725V0.77325C14.4953 0.4065 13.0223 0 12.054 0L12.0548 0ZM12.0743 3.78525C10.0313 3.78525 7.00803 4.62525 7.00803 4.98V7.57425C8.54703 6.504 10.2383 5.67225 12.027 5.10225C12.039 5.09025 14.8283 5.85225 17.238 7.59825L17.2418 7.602V4.98C17.2418 4.60875 14.1165 3.78525 12.0735 3.78525H12.0743ZM12.102 6.37125C11.3363 6.56625 10.5863 6.92625 9.88728 7.2585C8.36328 7.97325 6.95328 8.90625 5.69553 10.0238C7.04778 11.403 7.85553 13.134 8.35278 14.7428L8.38803 14.856L8.42703 14.8958L8.37603 14.856C8.36403 14.8448 6.75528 13.1962 4.40328 13.1962C3.16128 13.1962 1.72428 13.653 0.21228 15.0285C0.35628 15.5483 0.53253 16.0365 0.73953 16.5285V16.5443L0.76353 16.5915C2.76753 21.1658 7.46628 24.1462 12.4583 23.9977C17.3535 23.85 21.8063 20.6857 23.5875 16.1385C23.6858 15.8925 23.7713 15.6345 23.8605 15.3885C22.1738 14.1345 19.5285 12.5715 18.5093 12.7717V12.768C17.7315 12.9158 16.821 14.0333 15.6533 15.15C16.122 13.4903 16.962 11.6392 18.4853 10.0373C18.0915 9.678 17.673 9.3345 17.2433 9.018V9.006C15.72 7.87275 13.9463 6.9 12.1035 6.369L12.102 6.37125ZM12.09 7.266L12.7028 10.3162L12.555 12.9885L12.1133 16.9455V16.9657L12.0623 16.9575C12.0555 16.9575 12.0473 16.9493 12.039 16.9493V16.9222L11.547 12.9735L11.4263 10.3207L12.09 7.266ZM12.9878 17.094L13.0118 17.0978C12.9645 17.1128 12.9135 17.133 12.867 17.1517C12.906 17.1285 12.9488 17.1165 12.9878 17.094Z" fill="black"/>
</g>
<defs>
<clipPath id="clip0_201_57418">
<rect width="24" height="24" fill="white"/>
</clipPath>
</defs>
</svg>
