<svg width="24" height="24" viewBox="0 0 24 24" fill="none" xmlns="http://www.w3.org/2000/svg">
<g clip-path="url(#clip0_201_58648)">
<path d="M23.9527 4.56973C23.07 4.95673 22.125 5.22298 21.129 5.34373C22.1452 4.73398 22.9222 3.76948 23.2927 2.62048C22.3395 3.17548 21.285 3.57748 20.1637 3.80473C19.2697 2.84773 17.9917 2.24548 16.5735 2.24548C13.8547 2.24548 11.6512 4.44823 11.6512 7.16323C11.6512 7.55398 11.6985 7.92898 11.7802 8.28448C7.69047 8.09323 4.06497 6.12823 1.64022 3.15973C1.21422 3.88273 0.971974 4.72273 0.971974 5.63698C0.971974 7.34773 1.84272 8.84773 3.15897 9.72973C2.35422 9.70648 1.59672 9.48373 0.932974 9.11698V9.17623C0.932974 11.562 2.62797 13.551 4.87797 14.004C4.46772 14.1127 4.02972 14.1757 3.58497 14.1757C3.26922 14.1757 2.96772 14.145 2.66697 14.0895C3.29997 16.0425 5.11197 17.4645 7.27197 17.5072C5.59272 18.8235 3.46422 19.608 1.17072 19.608C0.779974 19.608 0.389974 19.5892 -0.00152588 19.542C2.18622 20.937 4.76847 21.753 7.55772 21.753C16.608 21.753 21.5535 14.2567 21.5535 7.76473C21.5535 7.55773 21.5535 7.34698 21.5377 7.13548C22.503 6.44773 23.3385 5.57623 23.9985 4.58848L23.9527 4.56973Z" fill="black"/>
</g>
<defs>
<clipPath id="clip0_201_58648">
<rect width="24" height="24" fill="white"/>
</clipPath>
</defs>
</svg>
