<svg width="24" height="24" viewBox="0 0 24 24" fill="none" xmlns="http://www.w3.org/2000/svg">
<g clip-path="url(#clip0_201_57892)">
<path d="M9.59772 11.7382C9.59772 11.3865 9.53097 11.004 9.32847 10.7107C8.92197 10.125 8.04747 9.93748 7.43772 10.3087C7.12947 10.4962 6.95697 10.8202 6.85947 11.1562C6.67197 11.8245 6.75822 12.5895 6.89097 13.2577C6.93372 13.4722 6.98097 13.6875 7.03947 13.8982C7.05897 13.9725 7.07097 14.082 7.11747 14.148C7.20747 14.2575 7.41447 14.289 7.54722 14.265C7.93422 14.2027 7.83597 13.5615 7.82472 13.2922C7.79322 12.6592 7.60572 12.042 7.78572 11.4097C7.86372 11.1442 8.01222 10.8435 8.28147 10.7265C8.52372 10.6207 8.76972 10.7497 8.86722 10.9882C9.02322 11.3752 8.98422 11.82 9.08172 12.219C9.11322 12.3555 9.15222 12.4927 9.21447 12.6172C9.23022 12.6562 9.25722 12.7305 9.30822 12.7267C9.43347 12.7147 9.60897 12.5077 9.70272 12.4297C10.0072 12.18 10.32 11.9062 10.6717 11.7225C10.836 11.6362 11.1052 11.4922 11.2732 11.6445C11.316 11.6797 11.3512 11.7262 11.3827 11.7735C11.5777 12.0817 11.3827 12.324 11.2537 12.6172C11.0895 12.996 10.9177 13.3747 10.6755 13.7152C10.4685 14.0085 10.1872 14.2657 10.023 14.586C9.91347 14.7892 9.85497 15.0157 9.89772 15.246C9.93297 15.4372 10.0777 15.5505 10.2727 15.504C10.4137 15.4725 10.5112 15.348 10.593 15.2347C10.7377 15.0352 10.8742 14.8245 11.019 14.6212C11.3002 14.2267 11.6287 13.8592 11.8665 13.4377C12.144 12.93 12.2887 12.3555 12.2842 11.7735C12.2842 11.301 12.1125 10.5742 11.5612 10.4767C11.4517 10.461 11.3422 10.4647 11.2372 10.4842C11.1045 10.5075 10.9792 10.551 10.8622 10.605C10.5495 10.7655 10.2727 10.98 10.0455 11.2417C9.89697 11.4022 9.76797 11.6047 9.59622 11.7375L9.59772 11.7382ZM9.07797 0.015731C8.64447 0.074231 8.19897 0.066731 7.76172 0.136481C6.92547 0.265481 6.12072 0.523481 5.33997 0.839981C5.05122 0.953231 4.76997 1.07848 4.49247 1.21498C4.39122 1.26598 4.23447 1.30498 4.14897 1.38673C4.10622 1.42573 4.10997 1.52323 4.10622 1.57798C4.09422 1.73398 4.07097 1.89448 4.05522 2.05048C3.99672 2.65573 3.95772 3.27673 4.04322 3.88273C4.07022 4.07773 4.13322 4.43323 4.37172 4.47223C4.74297 4.52698 5.02797 4.07398 5.21172 3.82348C5.63397 3.23773 6.11397 2.69098 6.80922 2.42923C7.62972 2.12098 8.56347 2.04673 9.43047 1.98748C11.856 1.81948 14.5087 2.26498 16.2937 4.05373C16.548 4.30798 16.7895 4.57723 16.9927 4.87048C17.7937 6.03073 18.2152 7.35073 18.4222 8.73373C18.516 9.38248 18.5827 10.0387 18.4342 10.6867C18.1762 11.808 17.5005 12.7882 16.7272 13.6162C16.1962 14.1862 15.5985 14.7022 14.9775 15.171C14.634 15.4327 14.2432 15.6517 13.9147 15.9367C13.5397 16.269 13.227 16.6792 12.993 17.1165C12.3525 18.3 12.1807 19.7182 12.3682 21.0382C12.4072 21.3075 12.4425 21.5775 12.5047 21.8467C12.5205 21.9247 12.5242 22.0612 12.5752 22.128C12.6727 22.2487 12.9382 22.3155 13.0867 22.323C13.239 22.3305 13.341 22.2135 13.38 22.0732C13.4422 21.8385 13.4032 21.5775 13.368 21.339C13.29 20.8507 13.2195 20.3625 13.2427 19.866C13.2742 18.96 13.641 18.1005 14.2665 17.4442C14.9107 16.7685 15.7785 16.3815 16.5127 15.819C17.9857 14.682 19.3057 13.1512 19.8135 11.3265C19.9972 10.6702 20.052 9.98698 19.9695 9.31048C19.8637 8.46298 19.5555 7.61098 19.2622 6.81448C18.3712 4.37698 16.8405 2.05648 14.4105 0.943481C13.446 0.501731 12.438 0.299231 11.3947 0.154481C10.9065 0.083981 10.4145 0.044981 9.92172 0.021731C9.64797 0.00973103 9.35172 -0.021019 9.07797 0.014231V0.015731ZM5.27697 15.7972C4.80447 15.864 4.66722 16.2427 4.75347 16.6725C4.86672 17.2192 5.29647 17.637 5.72247 17.9692C6.83547 18.8167 8.20722 19.2547 9.60897 19.2037C10.1445 19.1842 10.7302 19.0942 11.226 18.864C11.4877 18.7432 11.7652 18.3015 11.406 18.114C11.3512 18.0907 11.2965 18.0712 11.238 18.063C11.0775 18.036 10.902 18.1057 10.7535 18.1492C10.4917 18.2235 10.23 18.3015 9.95622 18.3442C9.14772 18.4732 8.27247 18.2895 7.60497 17.8087C7.06197 17.4217 6.62472 16.9102 6.21447 16.395C5.96022 16.0785 5.72997 15.7312 5.27697 15.7972ZM4.66047 18.4725C4.54347 18.4882 4.40247 18.4845 4.30122 18.5625C4.08672 18.7185 4.32072 19.035 4.43397 19.1797C4.76247 19.5975 5.19597 19.9455 5.62947 20.25C6.80922 21.0937 8.20797 21.594 9.65697 21.6915C10.0792 21.723 10.5082 21.6915 10.9267 21.621C11.0752 21.594 11.2665 21.5857 11.4075 21.5197C11.8057 21.3322 11.6925 20.5785 11.337 20.4105C11.181 20.34 10.9305 20.4337 10.767 20.4577C10.3845 20.5125 9.99747 20.52 9.61047 20.5087C8.59497 20.4855 7.51272 20.1727 6.62997 19.677C6.28647 19.482 5.96172 19.251 5.66547 18.9855C5.48172 18.825 5.29797 18.5632 5.06022 18.4815C4.95072 18.4462 4.77897 18.462 4.66197 18.474L4.66047 18.4725ZM4.90197 20.7307C4.73772 20.754 4.59372 20.8365 4.48797 20.9655C4.40997 21.0555 4.33947 21.1335 4.29297 21.243C4.04697 21.8527 4.70322 22.4265 5.15622 22.716C5.66022 23.0362 6.21072 23.2747 6.77322 23.4735C8.03922 23.9227 9.52347 24.2115 10.8397 23.8095C11.2305 23.6887 11.6167 23.4697 11.9025 23.1765C12.063 23.0085 12.1717 22.7542 11.8792 22.6492C11.7037 22.587 11.4922 22.7467 11.3362 22.8097C10.965 22.9657 10.5742 23.0715 10.176 23.1225C9.64872 23.1892 9.17622 23.0715 8.66847 22.9425C8.23497 22.8367 7.79772 22.728 7.37922 22.5712C7.01622 22.446 6.66822 22.2705 6.35172 22.0597C6.25797 21.993 6.14472 21.9345 6.07047 21.849C5.82072 21.564 5.62872 21.2355 5.36322 20.9662C5.24622 20.853 5.08197 20.712 4.90197 20.7315V20.7307Z" fill="black"/>
</g>
<defs>
<clipPath id="clip0_201_57892">
<rect width="24" height="24" fill="white"/>
</clipPath>
</defs>
</svg>
