<svg width="24" height="24" viewBox="0 0 24 24" fill="none" xmlns="http://www.w3.org/2000/svg">
<g clip-path="url(#clip0_201_58720)">
<path d="M22.9567 18.2618C22.9567 20.0355 21.6015 21.3908 19.8278 21.3908H9.39C4.0695 21.3908 1.0425 18.5745 1.0425 13.5668V5.73827C1.0425 3.96452 2.39775 2.60927 4.1715 2.60927H7.30425C7.824 2.60927 8.44875 2.71502 8.8665 3.02702C9.28425 2.71427 9.90975 2.60927 10.4333 2.60927H13.5623C14.0858 2.60927 14.7105 2.71502 15.129 3.02702C15.5468 2.71427 16.1722 2.60927 16.6957 2.60927H19.8248C21.5985 2.60927 22.9538 3.96452 22.9538 5.73827V18.2618H22.9567ZM19.8285 1.56677H16.6957C16.176 1.56677 15.6525 1.67252 15.129 1.87952C14.6333 1.67627 14.1015 1.56677 13.5668 1.56677H10.434C9.91425 1.56677 9.39075 1.67252 8.87175 1.87952C8.3715 1.67627 7.8405 1.56677 7.305 1.56677H4.176C1.87125 1.57052 0.00825 3.43802 0 5.73902V13.5675C0 19.0988 3.54675 22.4385 9.39075 22.4385H19.824C22.1287 22.431 23.9963 20.5635 24 18.2625V5.73902C23.9925 3.43802 22.1287 1.57127 19.824 1.56677H19.8285ZM9.39075 18.2618H19.824V5.73827H16.695V16.176H13.566V5.73827H10.4333V16.176H9.39C8.34675 16.176 7.30425 15.3398 7.30425 13.5668V5.73827H4.1715V13.5668C4.1715 16.6958 5.6325 18.2618 9.39 18.2618H9.39075Z" fill="black"/>
</g>
<defs>
<clipPath id="clip0_201_58720">
<rect width="24" height="24" fill="white"/>
</clipPath>
</defs>
</svg>
