<svg width="24" height="24" viewBox="0 0 24 24" fill="none" xmlns="http://www.w3.org/2000/svg">
<g clip-path="url(#clip0_201_58174)">
<path d="M18.1365 13.9493C17.8162 14.172 17.4608 14.3048 17.0783 14.3633C16.6957 14.4255 16.3162 14.4143 15.9375 14.4143H8.0625C7.68 14.4143 7.3005 14.43 6.918 14.3633C6.5355 14.301 6.18375 14.172 5.85975 13.9493C5.21925 13.4963 4.836 12.777 4.836 11.9963C4.836 11.2035 5.223 10.4843 5.8635 10.047C6.17625 9.82427 6.5355 9.68777 6.9105 9.62927C7.2855 9.56702 7.6605 9.56702 8.055 9.56702H15.93C16.305 9.56702 16.692 9.55502 17.067 9.61427C17.442 9.67352 17.805 9.80927 18.1178 10.0208C18.7665 10.4543 19.1415 11.1885 19.1415 11.97C19.1415 12.747 18.747 13.47 18.1065 13.9193L18.1365 13.9493ZM21.3083 6.39452C20.4645 5.71502 19.4955 5.24627 18.4447 4.99577C17.8433 4.85102 17.2417 4.78502 16.6208 4.76552C16.1715 4.74977 15.7222 4.75802 15.2572 4.75802H8.7615C8.30475 4.75802 7.8435 4.75052 7.38675 4.76552C6.7695 4.78502 6.16425 4.84727 5.56275 4.99577C4.512 5.25002 3.53925 5.71877 2.69925 6.39452C0.9885 7.76177 0 9.82052 0 12C0 14.1833 0.9885 16.242 2.68725 17.6055C3.53475 18.285 4.50375 18.7538 5.5545 19.008C6.156 19.1528 6.76125 19.2188 7.3785 19.2345C7.82775 19.2503 8.277 19.2465 8.742 19.2465H15.2377C15.687 19.2465 16.152 19.2503 16.6012 19.2345C17.2185 19.2188 17.8162 19.1528 18.414 19.008C19.4648 18.75 20.4255 18.2813 21.2812 17.6055C23.0115 16.2383 24 14.1795 24 12C24 9.82052 23.0115 7.75802 21.3083 6.39452Z" fill="black"/>
</g>
<defs>
<clipPath id="clip0_201_58174">
<rect width="24" height="24" fill="white"/>
</clipPath>
</defs>
</svg>
