<svg width="24" height="24" viewBox="0 0 24 24" fill="none" xmlns="http://www.w3.org/2000/svg">
<path d="M11.1442 0H15.0697V18.1642C13.0582 18.5467 11.5777 18.6998 9.97196 18.6998C5.18321 18.6998 2.68646 16.536 2.68646 12.3795C2.68646 8.37975 5.33471 5.78175 9.43646 5.78175C10.0732 5.78175 10.5577 5.83275 11.1435 5.985L11.1442 0ZM11.1442 9.14475C10.7182 9 10.269 8.93025 9.81971 8.93775C7.83146 8.93775 6.68696 10.1602 6.68696 12.3053C6.68696 14.3947 7.78046 15.54 9.79646 15.54C10.23 15.54 10.5855 15.5167 11.1442 15.4387V9.14175V9.14475ZM21.3127 6.0585V15.156C21.3127 18.2887 21.0862 19.797 20.3985 21.0938C19.7617 22.344 18.918 23.133 17.1877 24L13.5435 22.2653C15.2737 21.4485 16.1175 20.7383 16.653 19.6403C17.2117 18.519 17.391 17.2185 17.391 13.8045V6.0585H21.3127ZM17.391 0.0195H21.3127V4.047H17.391V0.0195Z" fill="black"/>
</svg>
