<svg width="24" height="24" viewBox="0 0 24 24" fill="none" xmlns="http://www.w3.org/2000/svg">
<g clip-path="url(#clip0_201_58552)">
<path d="M14.754 7.21875C13.617 7.215 12.699 8.133 12.7035 9.26925C12.7035 9.72225 12.8482 10.1558 13.1175 10.5075L15.7463 14.1713C16.0545 14.7067 15.867 15.4132 15.3323 15.7418C14.793 16.0545 14.0903 15.867 13.758 15.3278C13.4497 14.7968 13.6132 14.1128 14.133 13.7767L14.172 13.7572C14.379 13.6125 14.4412 13.3432 14.2972 13.1362C14.2155 13.011 14.0745 12.933 13.926 12.9293C13.8518 12.9293 13.7775 12.9525 13.719 12.9915L13.6763 13.011C12.7268 13.6125 12.4148 14.874 13.0162 15.8235C13.614 16.7768 14.8755 17.0895 15.8287 16.4872C16.7782 15.8857 17.0903 14.628 16.4888 13.6747C16.4498 13.6125 16.407 13.569 16.3875 13.5068L13.7587 9.8235C13.6575 9.648 13.6065 9.4485 13.614 9.24525C13.614 8.60475 14.13 8.10825 14.751 8.10825C15.372 8.10825 15.8917 8.62425 15.8917 9.24525C15.8917 9.63975 15.6847 9.9915 15.3525 10.218C15.3292 10.218 15.3293 10.2375 15.3097 10.2375C15.1027 10.386 15.0405 10.6515 15.189 10.8585C15.2708 10.9837 15.4155 11.046 15.5602 11.0655C15.6345 11.0655 15.705 11.046 15.7673 11.007L15.8063 10.9838C16.7595 10.386 17.0722 9.12075 16.47 8.17125C16.0987 7.57725 15.4507 7.218 14.7555 7.218L14.754 7.21875ZM14.754 15.3127C15.0743 15.3127 15.3323 15.051 15.3323 14.7308C15.3323 13.9613 14.172 13.9613 14.172 14.7308C14.172 15.063 14.4413 15.3127 14.754 15.3127ZM14.754 8.68725C14.43 8.68725 14.172 8.949 14.172 9.26925C14.172 10.0387 15.3323 10.0387 15.3323 9.26925C15.3128 8.937 15.063 8.68725 14.754 8.68725ZM12 0C5.379 0 0 5.379 0 12C0 18.621 5.379 24 12 24C18.621 24 24 18.621 24 12C24 5.379 18.621 0 12 0ZM9.26925 17.3558C7.824 17.3633 6.64425 16.1993 6.6405 14.754C6.63675 13.6995 7.26525 12.7425 8.23425 12.3323L7.13625 10.8007C6.28875 9.621 6.558 7.9845 7.71825 7.1565C8.87475 6.3285 10.5308 6.57825 11.3588 7.7385C12.1868 8.895 11.937 10.551 10.7768 11.379C10.6163 11.496 10.4445 11.5935 10.2607 11.6678L11.3977 13.2847C12.21 14.4765 11.8935 16.101 10.6943 16.902C10.2765 17.199 9.78 17.355 9.2685 17.355L9.26925 17.3558ZM16.926 13.281C17.7308 14.4803 17.4217 16.0972 16.2225 16.902C15.0195 17.7067 13.4062 17.3977 12.6015 16.1985C11.7893 15.003 12.1058 13.3822 13.305 12.5775C13.4497 12.4718 13.5938 12.4132 13.7385 12.3278L12.621 10.8007C11.7772 9.62475 12.0353 7.992 13.1993 7.137C14.3753 6.29325 16.008 6.55125 16.863 7.719C17.7067 8.89125 17.4487 10.524 16.2847 11.379C16.1243 11.496 15.9488 11.5935 15.765 11.6678L16.926 13.281ZM8.25375 9.828C8.1525 9.6525 8.10525 9.44925 8.109 9.246C8.109 8.6055 8.62875 8.109 9.246 8.109C9.89025 8.109 10.3868 8.62875 10.3868 9.246C10.3868 9.6405 10.1798 10.0155 9.8475 10.2225L9.8085 10.242C9.6015 10.3868 9.53925 10.656 9.68325 10.863C9.765 10.9882 9.90975 11.0505 10.0545 11.07C10.1287 11.07 10.1993 11.0468 10.2615 11.0077L10.3043 10.9882C11.265 10.3942 11.5703 9.14025 10.9838 8.172C10.3942 7.21125 9.13575 6.906 8.17125 7.48875C7.218 8.0865 6.9135 9.33675 7.488 10.305C7.53075 10.3672 7.57425 10.4303 7.61325 10.4692L10.242 14.133C10.3433 14.2972 10.3868 14.5042 10.3868 14.7113C10.3868 15.3517 9.891 15.8483 9.246 15.8715C8.613 15.8715 8.09775 15.3638 8.0895 14.7308C8.0895 14.34 8.2965 13.965 8.62875 13.758L8.6715 13.7385C8.8785 13.5938 8.937 13.3245 8.79225 13.1175C8.7105 12.9922 8.5695 12.9143 8.421 12.9105C8.34675 12.9105 8.27625 12.9338 8.214 12.9728L8.17125 12.9923C7.218 13.5938 6.90975 14.8552 7.51125 15.8085C8.109 16.758 9.3705 17.07 10.3238 16.4685C10.9253 16.0972 11.2965 15.4335 11.2965 14.73C11.2965 14.277 11.1518 13.8435 10.8825 13.488L8.25375 9.828ZM9.26925 15.3127C9.5775 15.3127 9.8475 15.063 9.8475 14.7308C9.816 13.9883 8.71875 13.9883 8.68725 14.7308C8.68725 15.063 8.937 15.3127 9.26925 15.3127ZM9.26925 8.68725C8.9565 8.68725 8.69925 8.93325 8.68725 9.246C8.68725 9.55875 8.937 9.828 9.246 9.828C9.55875 9.828 9.828 9.57825 9.828 9.26925C9.84 8.95275 9.58575 8.691 9.26925 8.68725Z" fill="black"/>
</g>
<defs>
<clipPath id="clip0_201_58552">
<rect width="24" height="24" fill="white"/>
</clipPath>
</defs>
</svg>
