<svg width="24" height="24" viewBox="0 0 24 24" fill="none" xmlns="http://www.w3.org/2000/svg">
<path d="M10.1175 16.8788C10.1798 16.8241 10.2465 16.7693 10.305 16.7108C9.09825 17.8868 7.551 18.4651 6.01575 18.4456H5.9925C4.44525 18.4186 2.91075 17.7893 1.74675 16.5511C1.0125 15.7696 0.512251 14.8441 0.239251 13.8593V13.8518C-0.362249 11.6528 0.177001 9.18005 1.845 7.4453C4.1925 5.01155 7.9155 4.95305 10.3058 7.24205L12.0638 9.08555L16.29 13.5698H16.3095C16.3523 13.6171 16.3995 13.6441 16.4265 13.6906C17.2823 14.4676 18.5903 14.4406 19.4108 13.5848C20.2815 12.6863 20.313 11.2141 19.4618 10.2998C19.368 10.1941 19.2623 10.1048 19.1573 10.0306L18.915 9.86255C18.0945 9.4133 17.04 9.56555 16.3365 10.2848C16.2308 10.3906 16.1415 10.5113 16.0673 10.6328C15.7665 11.0978 15.6608 11.6521 15.7193 12.1913L14.2073 10.6643L12.4493 8.9963C12.7343 8.4338 13.1055 7.9028 13.5623 7.42955C13.668 7.3238 13.773 7.2188 13.8825 7.1213C13.8158 7.17605 13.7535 7.23455 13.6913 7.2893C14.9025 6.1133 16.449 5.53505 17.9843 5.55455H18.0075C19.5503 5.58155 21.0855 6.2108 22.2533 7.44905C22.9838 8.23055 23.484 9.15605 23.757 10.1446V10.1483C24.3623 12.3473 23.8238 14.8238 22.1513 16.5548C19.8075 18.9886 16.0808 19.0508 13.6943 16.7618L12.4793 15.4726L11.9363 14.8943L7.71375 10.3906L7.71 10.3786C7.6905 10.3786 7.6905 10.3628 7.6905 10.3628C7.64775 10.3156 7.6005 10.2728 7.56975 10.2263C6.7185 9.4448 5.40975 9.46055 4.58925 10.3321C3.7185 11.2306 3.687 12.6991 4.542 13.6013C4.632 13.7071 4.737 13.7813 4.84275 13.8706L5.08125 14.0228C5.9055 14.4563 6.96 14.3198 7.6635 13.5856C7.76925 13.4798 7.8585 13.3591 7.93275 13.2421C8.2335 12.7771 8.33925 12.2071 8.27625 11.6641L9.792 13.2263L11.55 14.9956C11.265 15.5618 10.8938 16.0936 10.437 16.5661C10.3313 16.6718 10.2263 16.7768 10.1168 16.8706L10.1175 16.8788Z" fill="black"/>
</svg>
