<svg width="24" height="24" viewBox="0 0 24 24" fill="none" xmlns="http://www.w3.org/2000/svg">
<path d="M20.2537 11.4218C19.7812 11.418 19.4062 11.8163 19.437 12.285C19.4212 12.7575 19.7962 13.1483 20.265 13.152C20.7375 13.1558 21.1087 12.7575 21.0817 12.285C21.0975 11.8163 20.7225 11.4255 20.2537 11.4218ZM13.7423 11.4218C13.2735 11.418 12.8947 11.8163 12.93 12.285C12.9142 12.7575 13.2855 13.1483 13.758 13.152C14.2267 13.1558 14.6018 12.7575 14.5702 12.285C14.586 11.8163 14.2148 11.4255 13.7423 11.4218ZM6.73425 11.367C6.48 11.3595 6.2385 11.4728 6.08175 11.6753C5.9295 11.8898 5.86725 12.1515 5.91 12.4095L7.38675 11.7998C7.27725 11.538 7.01925 11.3663 6.73425 11.3663V11.367ZM0 8.00025V16.0005H24V8.00025H0ZM5.00775 13.8285H2.22675V9.82875H3.08625V13.0515H5.0085L5.00775 13.8285ZM6.82425 13.2068C7.14825 13.2105 7.46475 13.0973 7.707 12.8783L8.2425 13.2885C7.86 13.6673 7.34775 13.878 6.80925 13.878C5.89125 13.968 5.0865 13.2608 5.0595 12.339C5.0325 11.4135 5.79375 10.6635 6.72 10.698C7.17675 10.6748 7.62225 10.8585 7.935 11.1983C8.13825 11.4443 8.26725 11.7413 8.30625 12.0578L6.1425 12.96C6.32625 13.128 6.57225 13.218 6.82575 13.206L6.82425 13.2068ZM11.7067 13.8285H10.8593V12.0743C10.8472 11.6993 10.527 11.406 10.1483 11.4255C9.77325 11.4023 9.453 11.6993 9.44925 12.0743V13.8285H8.6055V10.7468H9.453V11.1885C9.6915 10.8803 10.0627 10.7003 10.4528 10.6965C11.148 10.6575 11.7262 11.2238 11.703 11.919L11.7067 13.8285ZM13.6912 13.8788C12.2887 13.8203 11.6407 12.1095 12.6562 11.1368C13.668 10.1678 15.3517 10.8825 15.3517 12.285C15.348 13.191 14.5942 13.914 13.6912 13.8788ZM16.488 13.824L15.222 10.746H16.1865L16.9523 12.8475L17.718 10.746H18.6825L17.4128 13.824H16.488ZM20.199 13.8788C18.8002 13.8203 18.1523 12.1095 19.164 11.1368C20.1795 10.1678 21.8595 10.8825 21.8595 12.285C21.8557 13.191 21.1057 13.914 20.199 13.8788ZM22.1993 13.461H22.0583V13.8285H21.9765V13.461H21.84V13.383H22.1993V13.461ZM22.7423 13.8285H22.6605V13.512L22.524 13.7265H22.512L22.3755 13.512V13.8285H22.2938V13.383H22.3837L22.5165 13.5938L22.6493 13.383H22.7393L22.7423 13.8285Z" fill="black"/>
</svg>
