<svg width="24" height="24" viewBox="0 0 24 24" fill="none" xmlns="http://www.w3.org/2000/svg">
<g clip-path="url(#clip0_201_57232)">
<path d="M5.39475 10.02L4.914 11.9797H5.90175L5.39475 10.02ZM9.285 10.1017V11.289C9.83625 11.2852 10.242 11.3197 10.5157 11.2582C10.785 11.1952 10.9178 11.0392 10.9178 10.6642C10.9178 10.3282 10.797 10.1955 10.5308 10.1415C10.2698 10.0868 9.85875 10.1138 9.285 10.1025V10.1017ZM14.6093 10.023L14.133 11.9843H15.1207L14.6093 10.023ZM11.9963 0L0 11.9963L12.0037 24L24 12.0037L11.9963 0ZM5.39475 8.895C5.75775 8.895 6 9.012 6.168 9.19125C6.336 9.37125 6.43425 9.6135 6.51975 9.8595L7.59 13.0702C7.59 13.0702 7.72275 13.3485 7.73025 13.641C7.74225 13.9297 7.629 14.238 7.13325 14.3048C6.777 14.25 6.5985 14.148 6.477 13.953C6.35175 13.7618 6.28875 13.473 6.17175 13.047H4.64475C4.4955 13.512 4.449 13.8008 4.3515 13.9838C4.2495 14.172 4.09725 14.25 3.7335 14.3048C3.2265 14.25 3.0975 13.9335 3.0975 13.6327C3.0975 13.332 3.2265 13.047 3.2265 13.047L4.24125 9.89475C4.31925 9.648 4.4175 9.3975 4.58925 9.21075C4.761 9.0225 5.0115 8.895 5.394 8.895H5.39475ZM14.586 8.898C14.949 8.898 15.1912 9.01575 15.3593 9.19125C15.5273 9.37125 15.6255 9.6135 15.711 9.86325L16.7812 13.074C16.7812 13.074 16.914 13.3523 16.926 13.641C16.938 13.9297 16.8202 14.238 16.3237 14.3092C15.969 14.2545 15.789 14.1525 15.6675 13.9575C15.546 13.7625 15.4793 13.4775 15.3585 13.0477H13.8353C13.6875 13.5165 13.644 13.806 13.542 13.989C13.44 14.1728 13.284 14.2508 12.9247 14.3063C12.417 14.2515 12.288 13.9395 12.288 13.638C12.288 13.3365 12.417 13.0477 12.417 13.0477L13.4332 9.8955C13.5075 9.66075 13.6042 9.41025 13.776 9.2235C13.9478 9.0315 14.1983 8.89875 14.5853 8.89875L14.586 8.898ZM17.9303 8.898C18.2385 8.898 18.414 9.01575 18.5123 9.19125C18.6053 9.3675 18.6292 9.609 18.6292 9.86325V13.0702C18.8445 13.074 19.8555 13.0702 19.8555 13.0702C20.1488 13.0702 20.3873 13.0905 20.5515 13.176C20.7157 13.2615 20.8057 13.4137 20.7975 13.68C20.7855 14.0392 20.6137 14.1953 20.3918 14.262C20.1645 14.328 19.8795 14.301 19.6455 14.301H17.8792C17.5042 14.301 17.3445 14.1367 17.2733 13.863C17.2073 13.5937 17.2342 13.2188 17.2342 12.8048V9.8625C17.223 9.60825 17.2545 9.36675 17.3595 9.1875C17.4697 9.01125 17.6483 8.89725 17.9303 8.89725V8.898ZM9.285 9.00375H10.383C10.6372 9.00375 10.8953 9.00375 11.148 9.09C11.4097 9.17625 11.6722 9.348 11.9377 9.699C12.2145 10.0778 12.285 10.6328 12.156 11.1128C12.0308 11.598 11.703 12.0037 11.1877 12.0855C11.3707 12.4335 11.988 13.3665 11.988 13.3665C11.988 13.3665 12.0547 13.4768 12.066 13.6327C12.078 13.7887 12.039 13.9875 11.8162 14.172C11.43 14.3197 11.184 14.277 11.0392 14.2028C10.8915 14.1248 10.8405 14.0115 10.8405 14.0115C10.8405 14.0115 10.2773 13.0462 9.93075 12.3787H9.28575V13.7145C9.28575 13.7145 9.29775 13.8668 9.2235 14.0198C9.1455 14.172 8.98425 14.316 8.64525 14.3048C8.316 14.3048 8.15625 14.148 8.0745 13.9957C7.9965 13.8435 8.00025 13.6905 8.00025 13.6905V9.85875C8.00025 9.5265 8.0085 9.312 8.172 9.18C8.33625 9.051 8.65575 9.00375 9.285 9.00375Z" fill="black"/>
</g>
<defs>
<clipPath id="clip0_201_57232">
<rect width="24" height="24" fill="white"/>
</clipPath>
</defs>
</svg>
