<svg width="24" height="24" viewBox="0 0 24 24" fill="none" xmlns="http://www.w3.org/2000/svg">
<g clip-path="url(#clip0_201_57688)">
<path d="M13.2382 0.00352344V2.32327C14.5312 2.48302 16.1805 2.94427 17.7195 4.12027L16.5315 5.72602L16.5165 5.71402C16.5165 5.71402 15.2858 4.65877 13.2465 4.33102V10.7533H19.5743C19.4535 9.83902 19.1415 8.74102 18.4222 7.63252L20.1173 6.50752C20.1173 6.50752 21.375 8.21827 21.645 10.7533H24V-0.000976562H13.2382V0.00352344ZM17.574 23.207L16.977 23.3053L15.6683 15.2585L16.02 15.2038L22.5743 15.1888L16.9185 19.2508L17.5515 23.204H17.5748L17.574 23.207ZM13.2382 13.238V23.9998H23.9963V13.2418L13.2382 13.238ZM6.453 19.9918L7.641 18.3868H7.656C7.656 18.3868 8.82 19.3745 10.7618 19.73V13.238H4.59C4.69875 14.1718 5.01225 15.3118 5.766 16.4728L4.07775 17.594C4.07775 17.594 2.78475 15.8323 2.55075 13.238H0V23.996H10.7618V21.7663C9.49575 21.5863 7.926 21.1175 6.453 19.9963V19.9918ZM4.977 1.96852C4.809 1.96852 4.668 2.07352 4.668 2.20252C4.668 2.33152 4.809 2.43352 4.977 2.43352C5.148 2.43352 5.28525 2.32777 5.28525 2.20252C5.28525 2.07352 5.145 1.96852 4.977 1.96852ZM5.00775 2.60902C4.50375 2.60902 4.10175 2.20327 4.10175 1.71127C4.10175 1.21552 4.50375 0.812023 5.00775 0.812023C5.508 0.812023 5.91 1.21927 5.91 1.71502C5.91 2.20702 5.508 2.60902 5.01225 2.60902H5.00775ZM3.672 2.67202L2.63325 3.19477C2.5395 3.08152 2.469 2.98777 2.3955 2.88652L1.08225 3.37477L0.80925 2.94052L4.04325 2.26927L3.426 2.49952C3.504 2.56177 3.57 2.60827 3.66825 2.67127L3.672 2.67202ZM1.67625 0.765523C2.055 1.33927 2.5005 1.81177 3.07425 2.24527L2.07 2.42527C1.695 1.89052 1.36275 1.36627 1.062 0.726523L1.67175 0.761773L1.67625 0.765523ZM0 -0.000226562V10.7578H2.406C2.30475 9.77677 2.19525 6.95302 3.88725 4.61302C3.88725 4.61302 3.51225 4.25377 3.00825 3.65977L1.9065 4.60477L1.43025 4.19902L4.2975 2.56627L3.9615 2.85202C4.3635 3.09427 4.77075 3.27277 5.1765 3.40627C5.1765 3.40627 6.57075 2.62927 7.94925 0.754274L8.277 0.770023C8.02275 1.60927 7.227 3.04702 5.98425 4.20277C5.98425 4.20277 9.28125 5.64502 10.0312 8.09002C9.82425 7.96927 8.637 7.71502 8.055 7.84777C7.94925 7.68352 6.84 5.41777 5.15625 5.44852C5.15625 5.44852 4.78125 5.89777 4.4265 7.06927C4.10925 8.10427 4.24275 10.2763 4.28925 10.7885H10.7385V-0.000226562H0Z" fill="black"/>
</g>
<defs>
<clipPath id="clip0_201_57688">
<rect width="24" height="24" fill="white"/>
</clipPath>
</defs>
</svg>
