<svg width="24" height="24" viewBox="0 0 24 24" fill="none" xmlns="http://www.w3.org/2000/svg">
<g clip-path="url(#clip0_201_58380)">
<path d="M23.688 11.7113L22.6913 11.094C22.6845 10.9958 22.6763 10.8983 22.6643 10.8053L23.52 10.008C23.703 9.83179 23.6408 9.52279 23.406 9.43429L22.3118 9.02704C22.2848 8.93029 22.2578 8.83579 22.227 8.74204L22.9058 7.79704C23.0588 7.59004 22.938 7.30129 22.6838 7.25779L21.531 7.06954C21.4883 6.98329 21.441 6.89779 21.3953 6.81154L21.879 5.74954C21.93 5.64079 21.918 5.51554 21.852 5.41729C21.7853 5.31904 21.672 5.26129 21.555 5.26504L20.3828 5.30779C20.3235 5.22904 20.262 5.15479 20.199 5.08054L20.469 3.94354C20.5268 3.69379 20.3048 3.47179 20.055 3.52954L18.918 3.79954C18.8438 3.73654 18.7703 3.67429 18.6908 3.61579L18.7335 2.44354C18.7455 2.18929 18.4793 2.01079 18.2498 2.11954L17.1878 2.60329C17.1015 2.55754 17.016 2.51029 16.926 2.46754L16.7378 1.31479C16.695 1.06504 16.4055 0.943537 16.1985 1.09279L15.2535 1.77154C15.1598 1.74079 15.0653 1.71379 14.9723 1.68679L14.5613 0.597037C14.472 0.357787 14.163 0.296287 13.9913 0.479287L13.194 1.33954C13.0973 1.32754 12.999 1.31554 12.9008 1.30879L12.288 0.315787C12.1553 0.0975371 11.8388 0.0975371 11.706 0.315787L11.0888 1.30879C10.9905 1.31554 10.8938 1.32754 10.8 1.33954L10.0028 0.479287C9.82651 0.296287 9.51901 0.354037 9.42901 0.597037L9.02176 1.68679C8.92501 1.71379 8.83501 1.74454 8.73676 1.77154L7.79176 1.09279C7.58476 0.943537 7.29601 1.06504 7.25251 1.31479L7.06426 2.46754C6.97801 2.51029 6.89326 2.55754 6.80701 2.60329L5.74426 2.11954C5.51026 2.01454 5.24851 2.18929 5.26051 2.44354L5.29951 3.61579C5.22526 3.67504 5.15026 3.73654 5.07676 3.79954L3.93676 3.52954C3.69001 3.47179 3.46801 3.69379 3.52576 3.94354L3.79201 5.08054C3.72901 5.15479 3.67126 5.22829 3.60826 5.30779L2.44051 5.26504C2.18326 5.25679 2.01151 5.51929 2.11651 5.74879L2.60176 6.81079C2.55451 6.89704 2.50801 6.98254 2.46076 7.06879L1.30876 7.25704C1.05901 7.29979 0.940512 7.58929 1.08601 7.79629L1.77001 8.74129C1.73776 8.83954 1.71076 8.92954 1.68376 9.02629L0.589512 9.43354C0.351762 9.52279 0.292512 9.83179 0.476262 10.0073L1.33126 10.8045C1.31926 10.8975 1.31101 10.9958 1.30426 11.0933L0.308262 11.7105C0.0892625 11.8395 0.0892625 12.1598 0.308262 12.2888L1.30426 12.906C1.31101 13.0043 1.31926 13.1018 1.33126 13.1948L0.476262 13.9958C0.288012 14.1675 0.351012 14.4765 0.589512 14.5658L1.68376 14.9768C1.71076 15.0698 1.73776 15.1635 1.77001 15.258L1.08601 16.203C0.938262 16.41 1.05901 16.7033 1.31176 16.7423L2.46451 16.9305C2.50726 17.0168 2.55451 17.1023 2.60176 17.1885L2.11651 18.2505C2.01151 18.4845 2.18776 18.7463 2.44051 18.7343L3.60826 18.6953C3.67126 18.7703 3.72901 18.8445 3.79651 18.918L3.52651 20.0588C3.46876 20.3048 3.69076 20.5268 3.93751 20.469L5.07751 20.2028C5.15176 20.2658 5.22676 20.3235 5.30476 20.3865L5.26201 21.5543C5.25001 21.8115 5.51626 21.987 5.74576 21.8783L6.80851 21.3945C6.89476 21.4403 6.97951 21.4875 7.06576 21.5348L7.25776 22.6875C7.29676 22.9373 7.58551 23.0543 7.79251 22.9095L8.74126 22.2263C8.83501 22.257 8.92951 22.284 9.02251 22.311L9.43351 23.4053C9.51976 23.6475 9.82726 23.706 10.0035 23.5193L10.8008 22.6635C10.8975 22.6755 10.992 22.6875 11.0895 22.6943L11.7068 23.6903C11.8395 23.9055 12.156 23.9055 12.2888 23.6903L12.906 22.6943C13.0043 22.6875 13.098 22.6755 13.1948 22.6635L13.992 23.5193C14.1683 23.7023 14.4728 23.6445 14.562 23.4053L14.973 22.311C15.066 22.284 15.1598 22.257 15.2543 22.2263L16.1993 22.9095C16.4063 23.0618 16.6995 22.9373 16.7385 22.6875L16.9268 21.5348C17.0168 21.4875 17.103 21.441 17.1885 21.3945L18.2505 21.8783C18.4808 21.9833 18.7425 21.8085 18.7343 21.5543L18.6915 20.3865C18.7703 20.3235 18.8445 20.2658 18.9143 20.2028L20.055 20.469C20.301 20.5268 20.523 20.3048 20.469 20.0588L20.199 18.918C20.262 18.8438 20.3243 18.7703 20.3828 18.6953L21.555 18.7343C21.8093 18.7463 21.984 18.4845 21.879 18.2505L21.3953 17.1885C21.441 17.1023 21.4883 17.0168 21.531 16.9305L22.6838 16.7423C22.9335 16.6995 23.055 16.41 22.9058 16.203L22.227 15.258L22.3118 14.9768L23.4015 14.5658C23.6445 14.4765 23.7023 14.1675 23.5193 13.9958L22.6635 13.1948C22.6718 13.1018 22.6838 13.0035 22.6905 12.906L23.6873 12.2888C23.9055 12.1598 23.9055 11.8395 23.6873 11.7105L23.688 11.7113ZM17.0273 19.9613C16.1093 19.7663 16.4025 18.387 17.3243 18.582C17.703 18.6638 17.9453 19.0388 17.8635 19.422C17.7818 19.8008 17.4068 20.043 17.0273 19.9613ZM16.6913 17.676C16.344 17.6018 16.0005 17.8238 15.93 18.1718L15.5738 19.8158C14.484 20.3115 13.2728 20.5898 12 20.5898C10.7378 20.5898 9.49201 20.316 8.35201 19.785L7.99576 18.1373C7.92151 17.7893 7.58176 17.5665 7.23376 17.6453L5.78101 17.9535C5.50801 17.6768 5.25826 17.3798 5.02726 17.0663H12.1095C12.1883 17.0663 12.2423 17.055 12.2423 16.98V14.4773C12.2423 14.4023 12.1883 14.391 12.1095 14.391H10.0358V12.801H12.2775C12.4808 12.801 13.3718 12.8588 13.6523 13.9958C13.7423 14.3438 13.938 15.48 14.07 15.8438C14.2028 16.254 14.7458 17.0655 15.324 17.0655H18.852C18.8948 17.0655 18.9383 17.0618 18.9803 17.0543C18.738 17.3865 18.4695 17.7023 18.18 17.9955L16.6913 17.676ZM6.89776 19.9298C6.51601 20.0078 6.14101 19.7655 6.05851 19.3868C5.97676 19.0035 6.21826 18.6285 6.60151 18.5505C6.97951 18.4688 7.35451 18.7103 7.43776 19.0898C7.51951 19.473 7.27651 19.848 6.89776 19.9298ZM4.21126 9.03529C4.38301 9.39529 4.22701 9.82429 3.86326 9.98854C3.50026 10.1483 3.07426 9.97729 2.92201 9.60979C2.57776 8.76679 3.81601 8.21554 4.21126 9.03604V9.03529ZM3.38701 10.992L4.90201 10.32C5.22676 10.176 5.37076 9.79729 5.22676 9.47329L4.91401 8.76604H6.14476V14.301H3.66751C3.36226 13.227 3.26551 12.102 3.38626 10.992H3.38701ZM10.0388 10.4573V8.82454H12.9608C13.113 8.82454 14.0265 9.00079 14.0265 9.68479C14.0265 10.2548 13.3238 10.458 12.7493 10.458L10.0388 10.4573ZM20.664 11.9258C20.664 12.141 20.6558 12.3548 20.6408 12.5655H19.7498C19.6598 12.5655 19.6245 12.6248 19.6245 12.7148V13.1205C19.6245 14.0813 19.0853 14.2883 18.6083 14.3438C18.1553 14.3948 17.655 14.1555 17.5935 13.8788C17.3273 12.3788 16.8825 12.0585 16.1798 11.5035C17.0505 10.9485 17.9565 10.1363 17.9565 9.04279C17.9565 7.86304 17.1473 7.12054 16.5975 6.75754C15.8235 6.24529 14.9685 6.14479 14.7375 6.14479H5.54626C6.81526 4.72279 8.51926 3.76204 10.3905 3.40579L11.4765 4.54654C11.7188 4.80079 12.1283 4.81129 12.3825 4.56529L13.5938 3.40504C16.098 3.87379 18.2655 5.41729 19.527 7.62829L18.6953 9.50329C18.555 9.82729 18.699 10.206 19.023 10.3515L20.6213 11.0618C20.6483 11.3475 20.6603 11.6325 20.6603 11.9258H20.664ZM11.4773 2.44129C12.156 1.79329 13.1295 2.81254 12.4493 3.46129C11.7735 4.04704 10.863 3.09004 11.4773 2.44129ZM19.7153 9.06979C19.8713 8.71504 20.2853 8.55454 20.6415 8.71054C21.2198 8.96479 21.1995 9.78829 20.6138 10.0155C20.0235 10.2413 19.458 9.64429 19.716 9.06979H19.7153Z" fill="black"/>
</g>
<defs>
<clipPath id="clip0_201_58380">
<rect width="24" height="24" fill="white"/>
</clipPath>
</defs>
</svg>
