<svg width="24" height="24" viewBox="0 0 24 24" fill="none" xmlns="http://www.w3.org/2000/svg">
<g clip-path="url(#clip0_201_58504)">
<path d="M21.8205 1.24552C21.4845 2.05402 21.0548 2.81602 20.5395 3.51877C18.282 1.26502 15.2227 -0.000976562 12.0315 -0.000976562C5.43 -0.000976562 0 5.42902 0 12.0305C0 15.3238 1.3515 18.476 3.738 20.7455L4.17975 21.14C6.35175 22.9685 9.09375 23.9683 11.9295 23.972C18.207 23.972 23.4802 19.058 23.9295 12.8C24.258 9.73327 23.355 5.85877 21.8197 1.24927L21.8205 1.24552ZM5.445 20.816C5.25375 21.0583 4.95675 21.1948 4.64775 21.1948C4.07775 21.1948 3.62025 20.7335 3.6165 20.1673C3.6165 19.601 4.08525 19.136 4.64775 19.136C5.511 19.1398 5.99175 20.144 5.445 20.816ZM21.7733 17.2145C18.8048 21.1678 12.4605 19.8358 8.3985 20.027C8.3985 20.027 7.6755 20.0698 6.9495 20.1875C6.9495 20.1875 7.22325 20.0743 7.57425 19.9378C10.4295 18.9455 11.7773 18.7543 13.512 17.8633C16.7775 16.2028 20.0077 12.5705 20.6798 8.79277C19.434 12.4295 15.6637 15.5503 12.2302 16.82C9.879 17.687 5.62875 18.5308 5.62875 18.5308L5.457 18.4408C2.56275 17.0345 2.4765 10.769 7.734 8.74552C10.035 7.86277 12.2415 8.34727 14.7262 7.75702C17.3827 7.12402 20.457 5.13202 21.7065 2.53402C23.1052 6.69052 24.7882 13.1945 21.7733 17.2138V17.2145Z" fill="black"/>
</g>
<defs>
<clipPath id="clip0_201_58504">
<rect width="24" height="24" fill="white"/>
</clipPath>
</defs>
</svg>
