<svg width="24" height="24" viewBox="0 0 24 24" fill="none" xmlns="http://www.w3.org/2000/svg">
<g clip-path="url(#clip0_201_57584)">
<path d="M12 0C5.379 0 0 5.379 0 12C0 18.621 5.379 24 12 24C18.621 24 24 18.621 24 12C24 5.379 18.621 0 12 0ZM18.9608 13.8007C18.1597 16.9613 15.2812 19.1993 12 19.1993C8.71875 19.1993 5.8395 16.9613 5.03925 13.8007C4.96125 13.4415 5.16 13.0387 5.52 12.9608C5.87925 12.879 6.282 13.0778 6.36 13.4415C7.0395 15.9998 9.36 17.8013 12.0007 17.8013C14.6415 17.8013 16.962 16.0005 17.6415 13.4415C17.7195 13.0785 18.1222 12.84 18.4815 12.9608C18.8407 13.0387 19.0793 13.4415 18.9622 13.8007H18.9608Z" fill="black"/>
</g>
<defs>
<clipPath id="clip0_201_57584">
<rect width="24" height="24" fill="white"/>
</clipPath>
</defs>
</svg>
