<svg width="24" height="24" viewBox="0 0 24 24" fill="none" xmlns="http://www.w3.org/2000/svg">
<g clip-path="url(#clip0_201_57176)">
<path d="M11.9963 18.2655C10.6448 16.5705 9.85203 15.0855 9.58578 13.812C9.32403 12.7845 9.42527 11.964 9.87903 11.3475C10.3553 10.6365 11.0625 10.293 11.9963 10.293C12.93 10.293 13.641 10.6365 14.1173 11.3558C14.5628 11.9655 14.676 12.7853 14.4023 13.8203C14.109 15.117 13.3163 16.6013 11.9918 18.2738L11.9963 18.2655ZM21.594 19.4063C21.4103 20.652 20.5628 21.6833 19.395 22.1873C17.145 23.1675 14.9145 21.6053 13.008 19.4843C16.1603 15.5348 16.746 12.4605 15.3908 10.4723C14.598 9.33152 13.4573 8.77727 11.9963 8.77727C9.05478 8.77727 7.43778 11.2658 8.07452 14.1563C8.44203 15.723 9.42603 17.4998 10.9883 19.488C10.008 20.5703 9.07803 21.3435 8.25753 21.8198C7.62078 22.1633 7.01177 22.3748 6.42902 22.425C3.75302 22.8233 1.65152 20.2298 2.60477 17.55C2.73752 17.202 3.00303 16.5698 3.45228 15.5888L3.47552 15.534C4.94027 12.3585 6.71777 8.74877 8.75702 4.74527L8.81178 4.61252L9.39003 3.49952C9.84303 2.67527 10.0268 2.30777 10.7415 1.85477C11.0895 1.64777 11.511 1.54202 11.9873 1.54202C12.9405 1.54202 13.6823 2.09702 14.0033 2.54627C14.1593 2.78477 14.3468 3.10502 14.5853 3.49952L15.144 4.58927L15.222 4.74527C17.2613 8.74952 19.0425 12.351 20.499 15.534L20.5223 15.561L21.0578 16.7798L21.3743 17.5455C21.6165 18.1553 21.6713 18.7643 21.5888 19.401L21.594 19.4063ZM22.8128 17.0198C22.629 16.434 22.3088 15.7463 21.9143 14.9258V14.8943C20.0273 10.89 18.2738 7.28852 16.6095 4.05452L16.5 3.89402C15.3128 1.46027 14.4645 -0.000732422 11.9963 -0.000732422C9.55877 -0.000732422 8.52378 1.69427 7.46478 3.89777L7.38303 4.05827C5.71502 7.28852 3.96528 10.8945 2.08203 14.898V14.9528L1.52327 16.1715C1.31627 16.6755 1.20677 16.9373 1.17977 17.019C-0.171725 20.73 2.61303 23.988 5.98053 23.988C6.00752 23.988 6.11328 23.988 6.24227 23.9648H6.61727C8.36702 23.7503 10.1678 22.6365 11.9963 20.6483C13.8248 22.6365 15.633 23.7495 17.379 23.9648H17.7503C17.883 23.988 17.9888 23.988 18.0158 23.988C21.3833 23.9918 24.1643 20.73 22.8128 17.019V17.0198Z" fill="black"/>
</g>
<defs>
<clipPath id="clip0_201_57176">
<rect width="24" height="24" fill="white"/>
</clipPath>
</defs>
</svg>
