<svg width="24" height="24" viewBox="0 0 24 24" fill="none" xmlns="http://www.w3.org/2000/svg">
<g clip-path="url(#clip0_201_57564)">
<path d="M9.37124 1.55547e-05C9.06299 0.00751556 8.44125 0.0900156 7.85174 0.652516C6.98099 1.47677 2.62875 5.60927 0.878995 7.26977C0.0899951 8.02352 0.160495 8.86352 0.160495 8.93402V9.31277C0.227245 9.01952 0.347995 8.81252 0.586495 8.48477C1.08225 7.87127 1.887 7.69952 2.2155 7.66427C4.38375 7.37102 6.55949 7.18802 8.74274 7.11377C13.0785 6.97727 15.942 7.34027 15.942 7.34027L22.0237 1.54727C22.0237 1.54727 18.8362 0.945766 15.2032 0.519766C13.332 0.293266 11.4495 0.121516 9.56625 0.00826555C9.54675 0.00826555 9.47624 -0.00373445 9.37124 0.000765555V1.55547e-05ZM22.9335 2.50802L16.8667 8.29727C16.8667 8.29727 17.0895 11.1803 16.7302 15.4965C16.539 17.946 16.1445 20.364 15.855 21.9885C15.804 22.317 15.597 23.106 14.9295 23.586C14.6407 23.781 14.4375 23.8793 14.1832 23.9453C15.726 23.4375 15.273 16.8983 15.273 16.8983C10.9372 17.0348 8.05799 16.6793 8.05799 16.6793L1.97625 22.4685C1.97625 22.4685 5.19525 23.1053 8.8275 23.5155C10.8862 23.754 13.6635 23.9453 14.058 23.9768C14.0775 23.9768 14.1007 23.973 14.1247 23.9648C14.1127 23.9685 14.1015 23.9768 14.0895 23.9768C14.226 23.9768 14.3475 23.9925 14.4682 23.9925C14.5545 23.9925 15.3937 24.0983 16.1827 23.3438C17.9287 21.6833 22.2645 17.535 23.1202 16.7108C23.9092 15.957 23.8432 15.117 23.8432 15.0308C23.8395 13.1438 23.769 11.2575 23.6362 9.37877C23.394 5.72627 22.9327 2.50802 22.9327 2.50802H22.9335ZM3.85574 8.30477C2.12549 8.30852 0.347995 8.51177 0.160495 9.32402C0.176245 10.5428 0.211495 12.465 0.363745 14.6055C0.605995 18.258 1.06725 21.492 1.06725 21.492L7.14899 15.7028C7.13324 15.7185 6.91049 12.8198 7.26974 8.50352C7.26974 8.50352 5.58599 8.30027 3.85574 8.30402V8.30477Z" fill="black"/>
</g>
<defs>
<clipPath id="clip0_201_57564">
<rect width="24" height="24" fill="white"/>
</clipPath>
</defs>
</svg>
