<svg width="24" height="24" viewBox="0 0 24 24" fill="none" xmlns="http://www.w3.org/2000/svg">
<g clip-path="url(#clip0_201_57496)">
<path d="M14.0662 11.3123C12.312 11.3123 10.965 12.738 10.965 14.4225C10.965 16.1768 12.312 17.5087 14.2192 17.5087L14.2035 17.5125C15.7935 17.5125 17.1292 16.1992 17.1292 14.4697C17.1292 12.6727 15.7935 11.313 14.0662 11.313V11.3123ZM0 0V24H24V0H0ZM20.691 20.8088H17.1173V19.398C16.0163 20.4773 14.895 20.8673 13.4025 20.8673C11.8793 20.8673 10.5705 20.3715 9.47325 19.383C8.0235 18.105 7.2735 16.41 7.2735 14.445C7.2735 12.645 7.97325 11.031 9.28575 9.77325C10.4535 8.625 11.88 8.043 13.47 8.043C14.9887 8.043 16.161 8.55525 17.001 9.633V4.15575L20.6917 3.39075L20.6955 3.3945H20.6917L20.691 20.8088Z" fill="black"/>
</g>
<defs>
<clipPath id="clip0_201_57496">
<rect width="24" height="24" fill="white"/>
</clipPath>
</defs>
</svg>
