<svg width="24" height="24" viewBox="0 0 24 24" fill="none" xmlns="http://www.w3.org/2000/svg">
<g clip-path="url(#clip0_201_57866)">
<path d="M14.82 10.3087C12.4223 11.5387 9.73803 9.24599 10.5743 6.68399C11.4143 4.12124 14.934 3.85874 16.1415 6.26999C16.8953 7.74974 16.3058 9.56174 14.8208 10.3117L14.82 10.3087ZM11.6018 0.569994C14.07 -0.327756 16.8945 -0.281256 19.008 1.55474C19.4528 1.92149 19.8053 2.39099 20.031 2.92574C20.2418 3.61274 19.281 2.85449 19.152 2.75774C18.4838 2.30099 17.7623 1.93349 17.0003 1.65974C12.8363 0.386994 8.89803 2.70674 6.46503 6.31574C5.47278 7.90574 4.71528 9.63299 4.21503 11.4405C4.16778 11.6632 4.09803 11.8785 4.00428 12.0855C3.89553 12.2887 3.95328 11.5342 3.95328 11.5117C4.04328 10.758 4.18803 10.008 4.38303 9.27299C5.51178 5.33999 8.01228 2.06624 11.6018 0.566244V0.569994ZM11.637 21.5662V12.801C11.8868 12.828 12.1208 12.84 12.3713 12.84C13.5083 12.8437 14.6213 12.531 15.594 11.9452V21.5625C15.594 22.3875 15.441 22.9927 15.0698 23.3917C14.6985 23.7975 14.172 24.021 13.6208 24.0007C13.0778 24.021 12.555 23.7975 12.1905 23.3917C11.8238 22.989 11.6325 22.38 11.6325 21.567L11.637 21.5662Z" fill="black"/>
</g>
<defs>
<clipPath id="clip0_201_57866">
<rect width="24" height="24" fill="white"/>
</clipPath>
</defs>
</svg>
