<svg width="24" height="24" viewBox="0 0 24 24" fill="none" xmlns="http://www.w3.org/2000/svg">
<g clip-path="url(#clip0_201_57814)">
<path d="M20.6092 0H3.39148C2.18848 0 1.23073 0.96075 1.23073 2.16V21.84C1.23073 23.0393 2.18848 24 3.39148 24H20.6092C21.8092 24 22.77 23.0393 22.77 21.84V2.16C22.77 0.96075 21.8122 0 20.6092 0V0ZM21.57 21.84C21.57 22.3793 21.1477 22.8007 20.6092 22.8007H3.39148C2.85223 22.8007 2.43073 22.3785 2.43073 21.84V2.16C2.43073 1.62075 2.85298 1.19925 3.39148 1.19925H20.6092C21.1485 1.19925 21.57 1.6215 21.57 2.16V21.84ZM6.62923 20.3978L9.32848 18L6.62923 15.6022V20.3978ZM16.3522 10.68C15.8715 10.1993 14.973 9.60225 13.473 9.60225C11.8522 9.60225 10.1722 10.02 8.97298 10.4415V3.60225H6.56998V13.98L8.24998 13.1993C8.24998 13.1993 11.0122 11.9415 13.41 11.9415C14.6092 11.9415 14.91 12.6023 14.91 13.1993V20.3985H17.3122V13.1993C17.3715 13.02 17.3715 11.6993 16.3522 10.68ZM13.1722 7.5H15.57C16.6477 6.23775 17.1907 4.98 17.3707 3.60225H14.973C14.73 4.98 14.1292 6.2385 13.1722 7.5Z" fill="black"/>
</g>
<defs>
<clipPath id="clip0_201_57814">
<rect width="24" height="24" fill="white"/>
</clipPath>
</defs>
</svg>
