<svg width="24" height="24" viewBox="0 0 24 24" fill="none" xmlns="http://www.w3.org/2000/svg">
<g clip-path="url(#clip0_201_57886)">
<path d="M22.9222 7.02674L22.8202 6.79649L22.6485 6.98324C22.2428 7.44824 21.7238 7.80449 21.1455 8.01899L20.9842 8.08124L21.051 8.23724C21.5468 9.42899 21.8048 10.7062 21.801 11.9955C21.801 17.4015 17.406 21.8002 11.9963 21.8002C6.5865 21.8002 2.19525 17.4052 2.19525 11.9992C2.19525 6.59324 6.5985 2.19449 12 2.19449C13.4692 2.19449 14.883 2.51174 16.1993 3.14024L16.3552 3.21449L16.422 3.06149C16.6642 2.49149 17.043 1.99574 17.5267 1.60874L17.7225 1.44899L17.4998 1.33199C15.801 0.452992 13.914 -0.00375761 12 -7.6119e-06C5.38275 -7.6119e-06 0 5.38274 0 12C0 18.621 5.38275 24 12 24C18.621 24 24 18.621 24 12C24 10.2697 23.6407 8.59799 22.9222 7.02674ZM12 6.53099C8.97975 6.53474 6.53475 8.97974 6.531 12C6.53475 15.0202 8.97975 17.4652 12 17.469C15.0203 17.4652 17.4653 15.0202 17.469 12C17.4653 8.97974 15.0203 6.53474 12 6.53099ZM22.344 4.52324C22.344 5.90249 21.2272 7.01624 19.8517 7.01624C18.4725 7.01624 17.355 5.90249 17.355 4.52324C17.355 1.19924 22.344 1.19924 22.344 4.52324Z" fill="black"/>
</g>
<defs>
<clipPath id="clip0_201_57886">
<rect width="24" height="24" fill="white"/>
</clipPath>
</defs>
</svg>
