<svg width="24" height="24" viewBox="0 0 24 24" fill="none" xmlns="http://www.w3.org/2000/svg">
<g clip-path="url(#clip0_201_58530)">
<path d="M3.92553 2.59806C4.19103 2.64081 3.53103 4.37556 3.89853 6.35556C4.21878 8.05506 8.21103 14.6326 8.04678 16.8871C7.91778 18.3053 4.64028 21.6256 4.29303 21.4066C3.91803 21.3008 5.28903 19.0433 4.78128 17.1608C4.19178 14.9693 0.672034 9.30156 0.675784 6.79731C0.675784 4.96506 3.68778 2.47731 3.92553 2.59806ZM11.4413 0.00380808C11.7773 0.0623081 10.9335 2.27706 11.406 4.79706C11.8125 6.96531 16.9058 15.3518 16.6988 18.2266C16.5308 20.0348 12.351 24.2693 11.91 23.9881C11.4293 23.8553 13.1798 20.9806 12.531 18.5821C11.7773 15.7853 7.29303 8.55456 7.29678 5.36331C7.29678 3.02706 11.1368 -0.144692 11.4413 0.00380808ZM19.1955 2.59806C19.4648 2.64081 18.801 4.37556 19.1723 6.35556C19.4888 8.05506 23.4848 14.6326 23.3205 16.8871C23.1953 18.3053 19.9103 21.6256 19.5668 21.4066C19.188 21.3008 20.5628 19.0471 20.055 17.1608C19.461 14.9693 15.942 9.30156 15.9495 6.80106C15.9495 4.96881 18.9615 2.48106 19.1955 2.59806Z" fill="black"/>
</g>
<defs>
<clipPath id="clip0_201_58530">
<rect width="24" height="24" fill="white"/>
</clipPath>
</defs>
</svg>
