<svg width="24" height="24" viewBox="0 0 24 24" fill="none" xmlns="http://www.w3.org/2000/svg">
<g clip-path="url(#clip0_201_58544)">
<path d="M10.2795 7.24722C10.2795 6.20171 11.151 5.79896 12.5482 5.79896C14.583 5.79896 17.1652 6.42221 19.2 7.51946V1.22471C16.983 0.338965 14.7705 0.00146484 12.5527 0.00146484C7.12949 0.00146484 3.51524 2.83272 3.51524 7.56671C3.51524 14.9685 13.6777 13.7685 13.6777 16.9605C13.6777 18.198 12.6045 18.5962 11.1135 18.5962C8.90099 18.5962 6.04124 17.682 3.79649 16.4632V22.4865C6.10574 23.4832 8.59349 23.9992 11.109 24.0052C16.6687 24.0052 20.4982 21.6142 20.4982 16.8052C20.4982 8.82746 10.2795 10.257 10.2795 7.24722Z" fill="black"/>
</g>
<defs>
<clipPath id="clip0_201_58544">
<rect width="24" height="24" fill="white"/>
</clipPath>
</defs>
</svg>
