<svg width="24" height="24" viewBox="0 0 24 24" fill="none" xmlns="http://www.w3.org/2000/svg">
<g clip-path="url(#clip0_201_57930)">
<path d="M10.8127 12.012C10.8127 12.918 10.2577 13.3515 9.5625 13.3515H9.14025V12.801H9.531C9.95325 12.801 10.23 12.5745 10.23 12.0037C10.23 11.4412 9.96825 11.1637 9.519 11.1637C9.08925 11.1637 8.78475 11.4255 8.78475 11.9917V14.277H8.199V10.6912H8.77725V10.9995H8.859C9.04275 10.7535 9.3315 10.6125 9.636 10.6207C10.2765 10.6207 10.812 11.0895 10.812 12.0112L10.8127 12.012ZM7.008 11.7735L6.6255 11.7345C6.321 11.7075 6.1605 11.625 6.1605 11.4457C6.1605 11.2387 6.3675 11.1172 6.66075 11.1172C6.9615 11.1172 7.1565 11.262 7.17225 11.4607H7.72725C7.704 10.941 7.305 10.6207 6.6645 10.6207C6.02025 10.6207 5.58225 10.9642 5.58225 11.4645C5.58225 11.8867 5.84775 12.156 6.44925 12.2145L6.84 12.2535C7.0785 12.2767 7.23825 12.324 7.23825 12.5542C7.23825 12.7575 7.08975 12.906 6.69525 12.906C6.336 12.906 6.156 12.7417 6.0975 12.5235H5.496C5.55075 13.0237 5.97675 13.41 6.69525 13.41C7.3785 13.41 7.8165 13.0545 7.8165 12.5235C7.81275 12.0622 7.50825 11.82 7.008 11.7735ZM13.0507 12.5272C12.9645 12.7342 12.7462 12.8902 12.4335 12.8902C12.0112 12.8902 11.6993 12.6127 11.6993 12.0195C11.6993 11.4532 11.988 11.1405 12.4418 11.1405C12.8483 11.1405 13.0748 11.379 13.098 11.7457H12.0592V12.1635H13.6725V11.8897C13.6725 11.124 13.161 10.6282 12.4418 10.6282C11.7698 10.6282 11.1217 11.085 11.1217 12.0187C11.1217 12.9562 11.7705 13.413 12.438 13.413C13.0515 13.413 13.4962 13.0342 13.6335 12.522L13.0507 12.5272ZM3.9255 10.6207C3.2925 10.6207 2.82 10.953 2.7615 11.4607H3.3825C3.42525 11.277 3.59325 11.1367 3.92175 11.1367C4.3395 11.1367 4.47675 11.3557 4.47675 11.625V12.5355C4.23825 12.8047 3.96525 12.93 3.68775 12.93C3.40275 12.93 3.20325 12.789 3.20325 12.5475C3.20325 12.309 3.35925 12.1605 3.6525 12.1605H4.11375V11.7465H3.6375C2.97375 11.7465 2.6025 12.075 2.6025 12.5865C2.6025 13.059 2.958 13.4145 3.5475 13.4145C3.87975 13.4145 4.1685 13.2817 4.3875 13.1257H4.46925V13.3485H5.0475V11.5747C5.06325 10.9185 4.61775 10.6215 3.92625 10.6215L3.9255 10.6207ZM0 13.3477H0.57825V9.711H0V13.3477ZM2.43 10.6912H1.72275L0.88275 11.8005V12.144L1.746 13.347H2.4645L1.449 11.9722L2.43 10.6912ZM23.3595 10.6912L22.887 11.742C22.77 11.9917 22.6605 12.2422 22.629 12.4102H22.5472C22.512 12.2422 22.3988 12.0037 22.2817 11.7502L21.8092 10.692H21.165L22.2825 13.0785L21.732 14.2815H22.3493L24.0015 10.692L23.3595 10.6912ZM21.039 10.6912H20.3317L19.488 11.7967V12.1402L20.355 13.3432H21.0735L20.058 11.9685L21.039 10.6912ZM17.4105 11.7735L17.028 11.7345C16.7273 11.7075 16.5667 11.625 16.5667 11.4457C16.5667 11.2387 16.7738 11.1172 17.0625 11.1172C17.367 11.1172 17.5582 11.262 17.574 11.4652H18.129C18.1058 10.9417 17.7067 10.6215 17.0662 10.6215C16.422 10.6215 15.9877 10.965 15.9877 11.4652C15.9877 11.8875 16.2533 12.1567 16.851 12.2152L17.2455 12.2542C17.4802 12.2775 17.64 12.3247 17.64 12.555C17.64 12.7582 17.4915 12.9067 17.1007 12.9067C16.7415 12.9067 16.5615 12.7425 16.4993 12.5242H15.8978C15.9563 13.0245 16.3785 13.4107 17.1007 13.4107C17.7803 13.4107 18.2183 13.0552 18.2183 12.5242C18.2183 12.063 17.91 11.8207 17.4097 11.7742L17.4105 11.7735ZM18.6097 13.3477H19.188V9.711H18.6097V13.3477ZM14.7892 11.0002H14.7075V10.692H14.1293V13.3522H14.7075V11.9617C14.7075 11.4855 14.9265 11.2117 15.36 11.2117H15.723V10.6222H15.5123C15.1103 10.6222 14.9423 10.7782 14.7892 11.001V11.0002Z" fill="black"/>
</g>
<defs>
<clipPath id="clip0_201_57930">
<rect width="24" height="24" fill="white"/>
</clipPath>
</defs>
</svg>
