<svg width="24" height="24" viewBox="0 0 24 24" fill="none" xmlns="http://www.w3.org/2000/svg">
<g clip-path="url(#clip0_201_57382)">
<path d="M8.96474 12C8.96474 10.4137 10.2457 9.14475 11.8155 9.14475C13.3905 9.14475 14.6752 10.4295 14.6752 12C14.6752 13.5705 13.3905 14.8552 11.8155 14.8552C10.2457 14.8552 8.96474 13.5705 8.96474 12ZM11.8162 0C6.21524 0 1.52324 3.84 0.191243 9.02325C0.179993 9.06225 0.179993 9.0945 0.179993 9.1455C0.179993 9.4575 0.434243 9.72375 0.753743 9.72375H5.58974C5.81999 9.72375 6.02249 9.591 6.10499 9.38775C7.10474 7.22775 9.28499 5.71575 11.82 5.71575C15.285 5.71575 18.105 8.53575 18.105 12.0045C18.105 15.4733 15.285 18.2933 11.8162 18.2933C9.28499 18.2933 7.10249 16.7933 6.10499 14.6213C6.00824 14.43 5.81624 14.2853 5.58974 14.2853H0.753743C0.440993 14.2853 0.179993 14.535 0.179993 14.859C0.179993 14.898 0.194993 14.934 0.194993 14.9797C1.51574 20.16 6.21524 24 11.8162 24C18.441 24 23.8162 18.6248 23.8162 12C23.8162 5.379 18.441 0 11.8162 0Z" fill="black"/>
</g>
<defs>
<clipPath id="clip0_201_57382">
<rect width="24" height="24" fill="white"/>
</clipPath>
</defs>
</svg>
