<svg width="24" height="24" viewBox="0 0 24 24" fill="none" xmlns="http://www.w3.org/2000/svg">
<g clip-path="url(#clip0_201_57402)">
<path d="M3.88275 9.82425C4.46475 7.695 5.8545 5.8755 7.758 4.75425L7.797 4.734L5.99625 1.62075C3.2775 3.21075 1.2705 5.76975 0.426 8.80875L0.40575 8.895L3.88275 9.82425ZM9.82425 3.89475C10.5315 3.70275 11.2583 3.609 11.988 3.609H11.9918V0.0157471H11.973C10.9058 0.0157471 9.84 0.155997 8.80875 0.437997L8.895 0.417747L9.82425 3.89475ZM14.1803 3.89775C16.3095 4.47675 18.1252 5.8665 19.242 7.773L19.2623 7.812L22.3792 6.012C20.7893 3.297 18.234 1.28475 15.1912 0.444747L15.1095 0.425997L14.1803 3.89775ZM0 12V12.0082C0 13.1055 0.14775 14.172 0.426 15.1845L0.40575 15.0982L3.88275 14.172C3.69075 13.4647 3.594 12.738 3.59775 12.0082V12H0ZM1.605 17.9962C2.15625 18.9382 2.78475 19.7505 3.50775 20.469L6.0585 17.9302C5.55075 17.4225 5.10825 16.8525 4.74525 16.2345L4.722 16.1955L1.605 17.9962ZM5.99625 22.3792C7.80525 23.4382 9.867 23.9925 11.961 23.9842H11.9797V20.391H11.9767C10.4917 20.391 9.0345 19.9957 7.7535 19.242L7.7925 19.266L5.99625 22.3792ZM19.2577 16.203C18.1515 18.105 16.344 19.5 14.2267 20.0902L14.1637 20.1022L15.0975 23.5785C18.2227 22.7197 20.7765 20.7157 22.3433 18.0592L22.374 18.0045L19.2577 16.203ZM23.5778 15.2227C23.844 14.2725 24 13.188 24 12.0615C24 10.9762 23.8552 9.92175 23.586 8.92125L23.6047 9.003L20.1165 9.933C20.2928 10.5727 20.3948 11.3077 20.3948 12.0652C20.3948 12.8542 20.2845 13.62 20.0775 14.3475L20.0933 14.2882L23.5778 15.2227Z" fill="black"/>
</g>
<defs>
<clipPath id="clip0_201_57402">
<rect width="24" height="24" fill="white"/>
</clipPath>
</defs>
</svg>
