<svg width="24" height="24" viewBox="0 0 24 24" fill="none" xmlns="http://www.w3.org/2000/svg">
<path d="M1.28924 7.60275L0.422241 8.76975H4.66424L4.98749 2.643L1.28924 7.60275ZM18.5767 2.142L12.5482 1.5L18.909 8.4L18.5767 2.142ZM5.25899 10.233L4.73399 9.20175H0.463491L11.0055 21.4688L5.25899 10.233ZM5.35274 8.7705H18.6652L12.0135 1.54725L5.35274 8.7705ZM19.2892 9.1965L13.0125 21.4688L23.55 9.20175H19.2892V9.1965ZM19.4715 3.23475L19.0312 2.64375L19.0732 3.4545L19.359 8.7705H23.592L19.4715 3.23475ZM5.32049 4.383L5.10449 8.3955L11.4705 1.5L5.44274 2.142L5.32049 4.383ZM18.8062 9.1965H5.21249L12.0142 22.5L18.8062 9.1965Z" fill="black"/>
</svg>
