<svg width="24" height="24" viewBox="0 0 24 24" fill="none" xmlns="http://www.w3.org/2000/svg">
<g clip-path="url(#clip0_201_57342)">
<path d="M12 0C5.37075 0 0 5.37075 0 12C0 18.6292 5.37075 24 12 24C18.6292 24 24 18.6292 24 12C24 5.37075 18.6292 0 12 0ZM6.96075 7.68C7.7145 7.68 8.301 8.22975 8.367 8.87925C8.43825 9.465 8.19525 9.97725 7.54725 10.2855C7.203 10.4572 7.0665 10.4573 6.996 10.3553C6.96075 10.2855 6.996 10.2195 7.06575 10.1483C7.68375 9.6375 7.68375 9.2235 7.6125 8.6415C7.57725 8.26275 7.30425 8.0235 7.0305 8.0235C5.8275 8.0235 4.11675 10.6958 4.3545 12.6525C4.46025 13.4063 4.90575 14.2972 5.86275 14.2972C6.17175 14.2972 6.516 14.1953 6.8235 14.0595C7.32375 13.7933 7.6245 13.5907 7.9215 13.2585C7.84725 12.3712 8.62425 11.2118 9.7725 11.2118C10.2885 11.2118 10.6987 11.4187 10.7332 11.7975C10.8 12.3097 10.3545 12.3795 10.218 12.3795C10.0807 12.3795 9.83925 12.3443 9.83925 12.2078C9.8085 12.0705 10.1475 12.138 10.116 11.829C10.0807 11.622 9.87375 11.556 9.67125 11.556C8.94825 11.556 8.538 12.552 8.64 13.1647C8.67525 13.4415 8.811 13.716 9.08925 13.716C9.2925 13.716 9.6015 13.407 9.702 12.9623C9.77175 12.6533 10.0463 12.4462 10.2878 12.4462C10.3898 12.4462 10.4557 12.4815 10.491 12.618V12.7552C10.4602 12.8925 10.3538 13.3065 10.3897 13.407C10.3897 13.4782 10.425 13.5787 10.5608 13.5787C10.6508 13.5787 10.995 13.3988 11.3385 13.1175C11.4517 12.5273 11.5883 11.8207 11.5883 11.7622C11.6235 11.52 11.7255 11.2815 12.2055 11.2815C12.3105 11.2815 12.3772 11.3167 12.4125 11.4532V11.5905L12.2753 12.2078C12.7215 11.6258 13.3733 11.2155 13.7835 11.2155C13.9552 11.2155 14.0925 11.3167 14.0925 11.4885C14.0925 11.5905 14.0925 11.7622 14.0212 11.9347C13.8855 12.3097 13.713 12.8955 13.611 13.407C13.611 13.5442 13.6462 13.6807 13.818 13.6807C13.9897 13.6807 14.502 13.4775 14.9122 12.927L14.9205 12.9233C14.9205 12.8565 14.9122 12.7905 14.9122 12.7245C14.9122 12.3105 14.9475 11.9707 15.018 11.7285C15.0878 11.4548 15.4283 11.2162 15.6353 11.2162C15.7365 11.2162 15.8422 11.2822 15.8422 11.3842C15.8422 11.4195 15.8422 11.4893 15.807 11.5215C15.6698 11.9708 15.564 12.3803 15.564 12.7905C15.564 13.0328 15.6 13.3725 15.6698 13.5795C15.6698 13.6148 15.7005 13.6493 15.7358 13.6493C15.807 13.6493 16.287 13.2045 16.6268 12.618C16.3178 12.4147 16.146 12.0712 16.146 11.661C16.146 10.9388 16.596 10.563 17.0062 10.563C17.3505 10.563 17.6235 10.8022 17.6235 11.2823C17.6235 11.5913 17.5215 11.9355 17.3505 12.243H17.4517C17.6707 12.2512 17.886 12.1613 18.0338 12.0052C18.069 11.9505 18.1155 11.9115 18.171 11.8883C18.507 11.4622 18.999 11.1465 19.581 11.1465C20.061 11.1465 20.5028 11.3535 20.538 11.7285C20.6077 12.2437 20.1593 12.3458 20.022 12.3458C19.8862 12.3458 19.644 12.3105 19.644 12.174C19.644 12.0375 19.9523 12.1042 19.9207 11.799C19.8855 11.592 19.6785 11.5223 19.4715 11.5223C18.7875 11.5223 18.3428 12.4125 18.4432 13.1355C18.4785 13.4085 18.615 13.7175 18.8895 13.7175C19.0965 13.7175 19.4048 13.4085 19.5413 12.9637C19.6073 12.6908 19.8855 12.4478 20.1232 12.4478C20.2282 12.4478 20.295 12.483 20.3302 12.6195C20.3302 12.6908 20.3302 12.8265 20.193 13.2728C20.0212 13.581 20.0212 13.7528 20.0573 13.89C20.088 14.163 20.2253 14.37 20.3655 14.472C20.3962 14.5072 20.4323 14.5732 20.4323 14.5732C20.4323 14.6445 20.3962 14.7142 20.295 14.7142C20.2598 14.7142 20.2283 14.7143 20.193 14.679C19.6777 14.472 19.4707 14.1277 19.404 13.7843C19.197 14.0265 18.9592 14.163 18.6818 14.163C18.2355 14.163 17.7945 13.7528 17.7248 13.2367C17.7045 13.0185 17.7278 12.7957 17.799 12.5887C17.5958 12.7177 17.3768 12.792 17.1742 12.792H17.0062C16.557 13.4437 16.0763 13.89 15.7365 14.0933C15.6195 14.1555 15.4905 14.1915 15.3577 14.1982C15.2917 14.1982 15.1867 14.163 15.1545 14.0933C15.0577 13.941 14.9985 13.7025 14.9595 13.4295C14.4787 13.9523 13.8143 14.2335 13.5068 14.2335C13.1625 14.2335 12.96 14.0265 12.9247 13.6838V13.3088C13.026 12.555 13.3035 12.1058 13.3035 11.9685C13.2998 11.9333 13.2712 11.9017 13.2323 11.8988C12.9945 11.8988 12.2055 12.723 12.0682 13.2735L11.9633 13.7183C11.8965 14.0265 11.5883 14.2335 11.3813 14.2335C11.2793 14.2335 11.2095 14.1982 11.178 14.0625V13.9252L11.2208 13.6912C10.7865 13.9995 10.353 14.1982 10.146 14.1982C9.83775 14.1982 9.666 14.0265 9.63525 13.7843C9.42825 14.0625 9.189 14.1982 8.8815 14.1982C8.52525 14.1982 8.1825 13.956 8.01825 13.605C7.7715 13.8817 7.494 14.1593 7.16625 14.37C6.68625 14.679 6.1395 14.9167 5.48625 14.9167C4.90425 14.9167 4.389 14.6078 4.11525 14.3348C3.70125 13.956 3.4635 13.374 3.42825 12.8265C3.225 11.1472 4.2525 8.9865 5.826 8.02575C6.20475 7.81875 6.58425 7.683 6.95925 7.683L6.96075 7.68ZM16.7302 10.9732C16.629 10.9732 16.5592 11.145 16.5592 11.3123C16.5592 11.5905 16.695 11.898 16.8675 12.0705C16.9387 11.8837 16.9695 11.6842 16.9733 11.4847C16.9733 11.1458 16.836 10.974 16.7302 10.974V10.9732Z" fill="black"/>
</g>
<defs>
<clipPath id="clip0_201_57342">
<rect width="24" height="24" fill="white"/>
</clipPath>
</defs>
</svg>
