<svg width="24" height="24" viewBox="0 0 24 24" fill="none" xmlns="http://www.w3.org/2000/svg">
<path d="M15.216 8.0205L13.2052 10.0312L13.191 6L15.216 8.0205ZM13.1903 18.3232L15.2108 16.3027L13.2 14.292L13.1903 18.3232ZM21 12.159C21 21.7965 17.6295 24 12.3232 24C7.017 24 3 21.7965 3 12.159C3 2.5215 6.909 0 12.216 0C17.523 0 21 2.52675 21 12.159ZM13.5705 12.159L17.292 8.00625L11.4278 1.71075V10.0028L7.968 6.54375L6.702 7.8045L11.0475 12.1635L6.702 16.5233L7.96275 17.784L11.4225 14.325L11.5305 22.2938L17.502 16.317L13.5705 12.159Z" fill="black"/>
</svg>
