<svg width="24" height="24" viewBox="0 0 24 24" fill="none" xmlns="http://www.w3.org/2000/svg">
<path d="M13.8787 12.6803C13.4797 12.6803 13.9605 12.879 14.4795 12.9615C14.6205 12.8595 14.7495 12.7388 14.8702 12.6293C14.5462 12.7035 14.2102 12.7192 13.878 12.6803H13.8787ZM16.02 12.1478C16.2502 11.82 16.422 11.4608 16.488 11.0895C16.4302 11.3588 16.2892 11.5898 16.1602 11.8193C15.4102 12.288 16.0905 11.55 16.1602 11.2613C15.3593 12.2692 16.0515 11.8582 16.02 12.147V12.1478ZM16.8007 10.1017C16.8517 9.37875 16.6597 9.6015 16.602 9.879C16.6717 9.92175 16.7302 10.3792 16.8007 10.1017ZM12.3787 0.309C12.5775 0.35175 12.828 0.37875 12.801 0.42975C13.0312 0.37875 13.0777 0.32775 12.3713 0.309H12.3787ZM12.801 0.42975L12.648 0.4605L12.789 0.4485V0.42975H12.801ZM19.422 10.371C19.4407 11.0122 19.2188 11.3197 19.0387 11.871L18.6907 12.051C18.4095 12.5903 18.7185 12.3982 18.5197 12.828C18.078 13.2188 17.1795 14.0513 16.8975 14.1293C16.6987 14.1293 17.0385 13.8795 17.0895 13.7895C16.4992 14.1915 16.6087 14.3917 15.7185 14.6415L15.6907 14.5785C13.4685 15.6217 10.3905 13.5592 10.4407 10.7385C10.41 10.9102 10.371 10.8713 10.32 10.9417C10.1947 9.474 10.992 8.079 12.3202 7.4415C13.5435 6.82425 15.0202 7.01625 16.0515 7.92225C15.4027 7.0785 14.3917 6.5985 13.3282 6.621C12.1485 6.62925 11.0512 7.37925 10.68 8.19075C10.0777 8.5695 10.0117 9.66 9.75 9.852C9.39075 12.4493 10.41 13.5697 12.129 14.8912C12.3982 15.078 12.2107 15.102 12.2497 15.2385C11.664 14.9618 11.145 14.5665 10.719 14.0782C10.9492 14.4105 11.1907 14.7382 11.52 14.988C10.9687 14.8087 10.2502 13.6912 10.0387 13.641C10.9687 15.3007 13.8195 16.5592 15.3007 15.9412C14.5117 15.996 13.7227 15.9022 12.969 15.66C12.6412 15.5002 12.1987 15.1478 12.27 15.09C14.2417 15.918 16.5082 15.5977 18.1717 14.25C18.609 13.8982 19.1017 13.3088 19.2375 13.3013C19.0387 13.6215 19.2802 13.461 19.1205 13.7385C19.5585 13.0208 18.9217 13.4415 19.5772 12.5002L19.8195 12.828C19.7295 12.2303 20.5582 11.5118 20.4795 10.5697C20.6715 10.2698 20.6797 10.8705 20.4795 11.5387C20.7697 10.8007 20.5582 10.6905 20.6287 10.0778C20.7105 10.281 20.8088 10.5 20.859 10.7108C20.6797 10.0118 21.0592 9.5115 21.141 9.10875C21.051 9.0585 20.859 9.4095 20.82 8.57775C20.82 8.211 20.922 8.379 20.961 8.301C20.8792 8.25 20.6992 7.98 20.5777 7.44075C20.6595 7.30875 20.8005 7.77 20.922 7.7805C20.8402 7.35825 20.7188 7.0305 20.7188 6.69825C20.379 6.0195 20.6017 6.80025 20.3197 6.3975C19.98 5.3085 20.6205 6.14775 20.6595 5.6595C21.1987 6.42975 21.4995 7.62075 21.6405 8.12025C21.5385 7.5195 21.3585 6.921 21.1477 6.3585C21.309 6.42975 20.8905 5.12025 21.3585 5.98725C20.7375 4.116 19.4295 2.55 17.6985 1.60125C17.8785 1.76925 18.1207 1.9875 18.0307 2.019C17.2807 1.569 17.4097 1.53825 17.301 1.35075C16.6912 1.101 16.6477 1.3695 16.2382 1.35075C15.078 0.729 14.859 0.7995 13.8015 0.39675L13.8525 0.62775C13.0785 0.378 12.9495 0.729 12.1215 0.62775C12.0705 0.58875 12.3915 0.48675 12.6487 0.44775C11.9107 0.54975 11.9497 0.3075 11.22 0.4785C11.3917 0.35025 11.5792 0.2685 11.7712 0.15825C11.1735 0.19725 10.329 0.51 10.5915 0.228C9.60375 0.678 7.85325 1.299 6.87225 2.217L6.8415 1.998C6.39225 2.53725 4.88025 3.60675 4.76325 4.30725L4.6305 4.338C4.3995 4.73625 4.25175 5.18925 4.0605 5.60025C3.7635 6.11925 3.6105 5.799 3.6615 5.877C3.06075 7.10025 2.76375 8.127 2.50125 8.97825C2.68125 9.24825 2.50125 10.6275 2.571 11.736C2.271 17.1968 6.411 22.5098 10.9312 23.736C11.6032 23.967 12.579 23.967 13.4235 23.9858C12.4312 23.709 12.3022 23.838 11.3415 23.4975C10.6425 23.1772 10.4895 22.7985 10.0012 22.3688L10.2 22.7167C9.231 22.377 9.63 22.299 8.841 22.0485L9.05175 21.7785C8.739 21.7477 8.22 21.2475 8.079 20.9662L7.73925 20.9775C7.329 20.4772 7.11 20.1068 7.13025 19.8172L7.0215 20.0175C6.8925 19.8068 5.50125 18.1185 6.2205 18.5093C6.0915 18.3885 5.9115 18.306 5.72025 17.958L5.8605 17.7863C5.51325 17.349 5.22075 16.767 5.2395 16.587C5.44275 16.8247 5.5605 16.8878 5.6925 16.9193C4.8105 14.7472 4.76325 16.7985 4.09125 14.7165L4.239 14.6962C4.14225 14.5365 4.05975 14.3565 3.981 14.1885L4.04025 13.5878C3.411 12.8498 3.86025 10.4858 3.95025 9.189C4.0215 8.646 4.48125 8.088 4.82925 7.209L4.62225 7.17C5.02125 6.459 6.96225 4.299 7.86 4.40775C8.28975 3.8565 7.77075 4.40775 7.68075 4.2675C8.6415 3.27825 8.9415 3.56775 9.579 3.3885C10.2817 2.98575 8.98125 3.54825 9.30975 3.2355C10.5127 2.9385 10.161 2.5365 11.7307 2.38875C11.892 2.4855 11.3407 2.529 11.2117 2.646C12.2115 2.15775 14.3595 2.27925 15.771 2.91975C17.3992 3.6885 19.2307 5.928 19.302 8.049L19.38 8.06775C19.341 8.91975 19.5127 9.88875 19.212 10.779L19.4107 10.3568L19.422 10.371ZM9.53925 13.23L9.48825 13.512C9.75 13.8593 9.9615 14.238 10.2892 14.52C10.0515 14.0513 9.8715 13.8593 9.53925 13.2188V13.23ZM10.1602 13.1993C10.02 13.0515 9.94125 12.8595 9.852 12.6803C9.93 13.0005 10.1092 13.281 10.281 13.5592L10.1602 13.1993ZM21.102 10.8202L21.0308 10.9695C20.9295 11.7308 20.691 12.4807 20.34 13.1805C20.7382 12.4492 20.988 11.6415 21.09 10.8202H21.102ZM12.4492 0.12075C12.7192 0.0195 13.1092 0.06975 13.398 0C13.0312 0.03075 12.66 0.051 12.3007 0.102L12.4485 0.12075H12.4492ZM3.012 5.14125C3.078 5.71125 2.57775 5.9415 3.12075 5.559C3.4215 4.89825 3.012 5.379 3.0195 5.14125H3.012ZM2.379 7.80075C2.49975 7.41 2.53125 7.17975 2.57775 6.96075C2.22975 7.398 2.40975 7.488 2.379 7.78875V7.80075Z" fill="black"/>
</svg>
