<svg width="24" height="24" viewBox="0 0 24 24" fill="none" xmlns="http://www.w3.org/2000/svg">
<g clip-path="url(#clip0_201_58114)">
<path d="M12 13.3013L15.2767 17.121L14.5267 18.0203L12.3945 15.5003L11.2657 14.16L12 13.3013ZM24 2.40975V21.594C24 22.2458 23.469 22.7768 22.812 22.7768H1.188C0.531 22.7768 0 22.2458 0 21.5895V2.40975C0 1.7535 0.531 1.2225 1.188 1.2225H22.812C23.469 1.2225 24 1.7535 24 2.40975ZM21.7582 19.5L19.6455 16.9568L17.5275 14.418L16.9417 15.1208L13.692 11.3318L18.606 5.60175L17.4307 4.59375L12.6727 10.1445L7.92675 4.61625L5.9805 6.28425L10.9808 12.1125L10.251 12.9645L9.01275 11.4998L2.2425 19.5H21.7582Z" fill="black"/>
</g>
<defs>
<clipPath id="clip0_201_58114">
<rect width="24" height="24" fill="white"/>
</clipPath>
</defs>
</svg>
