<svg width="24" height="24" viewBox="0 0 24 24" fill="none" xmlns="http://www.w3.org/2000/svg">
<g clip-path="url(#clip0_201_58370)">
<path d="M19.1993 24C19.1993 13.4685 10.5315 4.80075 0 4.80075V0C13.164 0 24 10.836 24 24H19.1993ZM3.28875 17.4142C5.10525 17.4142 6.58575 18.8948 6.58575 20.7113C6.58575 22.524 5.09775 24 3.28125 24C1.4685 24 0 22.527 0 20.7113C0 18.8955 1.47675 17.4142 3.28875 17.4142ZM15.9105 24H11.2425C11.2425 17.832 6.168 12.7537 0 12.7537V8.0895C8.72625 8.0895 15.9105 15.273 15.9105 24Z" fill="black"/>
</g>
<defs>
<clipPath id="clip0_201_58370">
<rect width="24" height="24" fill="white"/>
</clipPath>
</defs>
</svg>
