<svg width="24" height="24" viewBox="0 0 24 24" fill="none" xmlns="http://www.w3.org/2000/svg">
<g clip-path="url(#clip0_201_58498)">
<path d="M12 0C5.39775 0 0 5.39775 0 12C0 18.6023 5.39775 24 12 24C18.6023 24 24 18.6023 24 12C24 5.39775 18.66 0 12 0ZM17.52 17.34C17.2808 17.6993 16.8592 17.82 16.5 17.5778C13.68 15.84 10.1407 15.48 5.93775 16.4377C5.52 16.5615 5.16 16.2615 5.0385 15.8978C4.9215 15.48 5.2185 15.1208 5.57775 15C10.1407 13.98 14.1015 14.3977 17.2185 16.32C17.6408 16.5 17.6985 16.98 17.5192 17.34H17.52ZM18.9608 14.0392C18.66 14.4615 18.1208 14.6415 17.6985 14.34C14.4607 12.3593 9.5385 11.7622 5.7615 12.9608C5.28075 13.0778 4.73775 12.84 4.62075 12.3585C4.5 11.8785 4.73775 11.3393 5.2185 11.2185C9.6015 9.89775 14.9993 10.5615 18.7185 12.8392C19.0815 13.0192 19.2615 13.62 18.9608 14.0385V14.0392ZM19.0823 10.68C15.2385 8.39775 8.82 8.16 5.16 9.30075C4.55925 9.48 3.96075 9.12075 3.78075 8.57775C3.6015 7.98 3.96075 7.3785 4.5 7.1985C8.76225 5.93775 15.7808 6.17925 20.223 8.81925C20.7623 9.12 20.9408 9.83925 20.6408 10.3785C20.34 10.8007 19.6208 10.9792 19.0815 10.6793L19.0823 10.68Z" fill="black"/>
</g>
<defs>
<clipPath id="clip0_201_58498">
<rect width="24" height="24" fill="white"/>
</clipPath>
</defs>
</svg>
