<svg width="24" height="24" viewBox="0 0 24 24" fill="none" xmlns="http://www.w3.org/2000/svg">
<g clip-path="url(#clip0_201_58358)">
<path d="M5.90623 0C5.20723 0.0075 4.53149 0.2265 3.96074 0.62925L3.97273 0.62175C2.78924 1.44975 2.25374 2.93025 2.62874 4.32525L2.62123 4.302V20.568C2.62123 22.47 4.15648 24.0015 6.05473 24.0015C7.95298 24.0015 9.48823 22.47 9.48823 20.568V17.1345H11.3557L15.1215 22.5173C16.2 24.0758 18.3405 24.459 19.8907 23.3685C21.4492 22.29 21.828 20.1495 20.7382 18.603L18.3555 15.1965C20.34 13.5675 21.492 11.1383 21.4882 8.56725C21.4882 3.837 17.6212 0.0045 12.906 0.0045H6.00748L5.90623 0ZM8.21848 0.867H12.906C17.1562 0.93375 20.5702 4.43325 20.5035 8.6835C20.4682 10.8945 19.488 12.9803 17.8117 14.418L17.355 13.7692C19.5345 11.9062 20.3197 8.88225 19.3275 6.195C18.3315 3.50325 15.7725 1.71825 12.9052 1.71825H8.91298C8.86198 1.62825 8.80348 1.53825 8.74498 1.45275L8.75248 1.46475C8.59648 1.24575 8.42023 1.047 8.22148 0.87075L8.21848 0.867ZM9.26173 2.5665H12.906C16.2225 2.5665 18.906 5.25 18.906 8.5665C18.9097 10.293 18.1635 11.934 16.8667 13.074L16.3785 12.375C19.8472 9.1995 17.6047 3.4215 12.906 3.41775H9.37048C9.37048 3.12075 9.33148 2.82825 9.25723 2.5425L9.26173 2.5665ZM9.26548 4.2855H12.906C15.273 4.3365 17.1562 6.28575 17.1052 8.6685C17.082 9.77775 16.6327 10.8322 15.8512 11.6175L15.6052 11.2695C15.5235 11.1488 15.4297 11.031 15.3277 10.9215C15.9097 10.3042 16.242 9.49575 16.2577 8.652C16.293 6.75375 14.7892 5.18325 12.8902 5.136H8.92123C9.06598 4.89 9.18298 4.60875 9.26473 4.308L9.26848 4.28475L9.26548 4.2855ZM3.48824 5.82825C3.73424 6.078 4.01174 6.2895 4.31999 6.4575L4.33948 6.465V20.5665C4.33948 21.516 5.10523 22.2855 6.05848 22.2855C6.98848 22.2855 7.75799 21.516 7.77298 20.5507V15.4177H10.152L10.7617 16.2847H8.62123V20.5658C8.51173 23.874 3.60149 23.874 3.48824 20.5658V5.82825ZM8.62123 5.98425H12.9067C14.3362 5.9805 15.4927 7.13625 15.489 8.5665C15.489 9.285 15.2002 9.93375 14.7315 10.3988C14.4772 10.227 14.2005 10.086 13.9072 9.9885C14.3685 9.66825 14.6415 9.14475 14.6415 8.58225C14.6415 7.61775 13.8562 6.852 12.9067 6.852H9.47323V10.3012H11.0205C10.6575 10.524 10.3372 10.809 10.0755 11.1488H8.62198L8.62123 5.98425ZM7.75798 6.348V12.0203H9.59398C9.49273 12.294 9.42598 12.579 9.39448 12.8678H6.90598V6.72675C7.22998 6.62925 7.51123 6.50025 7.76923 6.33975L7.75798 6.348ZM5.19148 6.777C5.42173 6.8355 5.68349 6.86325 5.95349 6.86325H6.05924V13.719H9.41098C9.45373 14.0077 9.52798 14.289 9.64948 14.5665H6.90749V20.5665C6.89998 21.0353 6.52873 21.4177 6.05998 21.4335C5.58373 21.4373 5.19673 21.0585 5.19298 20.586L5.19148 6.777ZM10.3245 7.6995H12.891C13.3717 7.6995 13.758 8.0865 13.758 8.5665C13.758 9.051 13.3905 9.44925 12.9067 9.44925L10.3245 9.4335V7.6995Z" fill="black"/>
</g>
<defs>
<clipPath id="clip0_201_58358">
<rect width="24" height="24" fill="white"/>
</clipPath>
</defs>
</svg>
