<svg width="24" height="24" viewBox="0 0 24 24" fill="none" xmlns="http://www.w3.org/2000/svg">
<g clip-path="url(#clip0_201_58140)">
<path d="M17.652 16.629C17.652 17.0228 17.973 17.3438 18.363 17.3438C18.7583 17.3438 19.0778 17.0228 19.0778 16.629C19.0778 16.2383 18.7575 15.918 18.363 15.918C17.973 15.918 17.652 16.2383 17.652 16.629ZM8.20279 20.8673H15.777C16.0778 20.8673 16.3013 20.6453 16.32 20.3445V15.1688C16.3013 14.8875 16.059 14.646 15.777 14.661H8.20279C7.90954 14.661 7.66804 14.8958 7.65979 15.189V20.3453C7.65979 20.646 7.90204 20.868 8.20279 20.868V20.8673ZM21.2543 17.3438C21.6563 17.3438 21.984 17.016 21.984 16.6125C21.984 15.9645 21.1988 15.6368 20.7383 16.0973C20.277 16.554 20.6025 17.343 21.2543 17.343V17.3438ZM19.812 17.3243C19.4063 17.3093 19.0703 17.6333 19.0703 18.039C19.0703 18.441 19.4063 18.7658 19.812 18.75C20.727 18.7148 20.727 17.3588 19.812 17.3243ZM19.098 15.1883C19.098 15.582 19.4183 15.8985 19.809 15.8985C20.2028 15.8985 20.523 15.5828 20.523 15.1883C20.523 14.793 20.2028 14.4773 19.809 14.4773C19.4183 14.4773 19.098 14.793 19.098 15.1883ZM2.53879 16.6133C2.53879 17.523 3.27679 18.2625 4.19104 18.2625C5.10229 18.2625 5.84029 17.5238 5.84029 16.6133C5.84029 14.4105 2.53954 14.4105 2.53954 16.6133H2.53879ZM21.273 8.63069e-06H2.72704C1.22329 -0.00374137 -0.00371289 1.21501 -0.0119629 2.71876V21.2618C0.00828711 22.7805 1.22704 24 2.72704 24H21.2543C22.7625 24 23.9925 22.7888 24.012 21.2813V2.73826C23.9918 1.21951 22.773 8.63069e-06 21.273 8.63069e-06ZM23.184 21.2813C23.1803 22.3365 22.3283 23.1885 21.273 23.1915H2.72704C1.67179 23.1885 0.819787 22.3365 0.816037 21.2813V12.8243H23.184V21.2813ZM23.184 11.586H0.816037V2.73826C0.819787 1.68451 1.67179 0.828009 2.72704 0.824259H21.273C22.32 0.824259 23.184 1.68826 23.184 2.73826V11.586ZM17.4098 3.11326H6.53479C6.23404 3.11326 5.98804 3.37501 5.98804 3.67651V9.14851C5.98804 9.44926 6.21529 9.71551 6.53479 9.71551H17.4098C17.715 9.71176 17.961 9.45751 17.9528 9.14851V3.65626C17.9528 3.35551 17.7105 3.11326 17.4098 3.11326Z" fill="black"/>
</g>
<defs>
<clipPath id="clip0_201_58140">
<rect width="24" height="24" fill="white"/>
</clipPath>
</defs>
</svg>
