<svg width="24" height="24" viewBox="0 0 24 24" fill="none" xmlns="http://www.w3.org/2000/svg">
<path d="M19.1798 0H14.7458L12.051 13.9882L9.30902 0H4.85477C5.07002 0.219 5.19077 0.63675 5.24552 1.074V22.281C5.24552 22.902 5.14052 23.664 4.81952 24C5.83577 23.7847 7.12877 23.586 8.23352 23.391V9.375L10.7228 21.75C10.7925 22.2113 10.8585 22.836 10.7025 22.9493C11.5508 22.8203 12.3975 22.695 13.2458 22.5825C13.1408 22.4228 13.1835 21.9307 13.242 21.5205L15.6953 9.1485V22.2465C16.7505 22.1213 18.0623 22.0042 19.164 21.8955L19.1798 21.8873C18.855 21.5595 18.7455 20.7892 18.7455 20.1645V1.72725C18.7455 1.098 18.8513 0.3285 19.1798 0V0Z" fill="black"/>
</svg>
