<svg width="24" height="24" viewBox="0 0 24 24" fill="none" xmlns="http://www.w3.org/2000/svg">
<g clip-path="url(#clip0_201_58194)">
<path d="M12.0038 1.84942e-05C13.6013 -0.0194815 15.1448 0.601519 16.2848 1.72652C17.4248 2.85152 18.066 4.38677 18.066 5.98802C18.066 7.58927 17.4255 9.12452 16.2848 10.2495C15.144 11.3745 13.6013 11.9955 12.0038 11.976C8.72627 11.9333 6.09002 9.26477 6.09002 5.98802C6.09002 2.71127 8.72702 0.0427685 12.0038 1.84942e-05ZM21.7268 13.0275H21.6953L17.1683 10.785C16.8518 10.629 16.4693 10.746 16.293 11.0505C15.129 12.9998 13.6755 14.7578 11.9843 16.269C10.3043 14.7615 8.85902 13.0073 7.69877 11.07C7.52327 10.7618 7.14002 10.644 6.82352 10.8008L2.28827 13.0275H2.25677C1.94402 13.2113 1.83452 13.6095 2.01077 13.9298C3.26477 16.0935 4.79177 18.09 6.56177 19.8593L6.55802 19.863C6.58127 19.8863 6.60902 19.9103 6.63227 19.9335C6.96827 20.2695 7.30802 20.5973 7.65977 20.9138C7.74152 20.988 7.82402 21.0585 7.90577 21.1328C8.22227 21.4103 8.53877 21.6878 8.86652 21.9533C9.01127 22.0703 9.16352 22.1798 9.30827 22.293C9.58577 22.5075 9.85877 22.7265 10.1445 22.9335C10.5863 23.25 11.0355 23.5583 11.4923 23.8478C11.7968 24.0428 12.1875 24.051 12.5003 23.8673C12.9848 23.5545 13.461 23.2268 13.926 22.887C13.9965 22.836 14.0588 22.7813 14.1293 22.7348C14.4848 22.4693 14.8403 22.1955 15.1875 21.9143C15.4223 21.723 15.6488 21.5235 15.8753 21.3248C16.047 21.18 16.215 21.036 16.383 20.883C16.6763 20.6138 16.9613 20.34 17.2463 20.0588C17.3048 19.9965 17.3715 19.9418 17.4338 19.8788H17.43C19.2038 18.1013 20.7383 16.1018 21.9923 13.9298C22.164 13.6058 22.047 13.203 21.7268 13.0275Z" fill="black"/>
</g>
<defs>
<clipPath id="clip0_201_58194">
<rect width="24" height="24" fill="white"/>
</clipPath>
</defs>
</svg>
