<svg width="24" height="24" viewBox="0 0 24 24" fill="none" xmlns="http://www.w3.org/2000/svg">
<g clip-path="url(#clip0_201_57780)">
<path d="M15.156 19.434L15.7928 18.348C15.7928 18.348 14.3475 18.9382 11.934 18.9382C9.51601 18.9382 8.09401 18.3712 8.09401 18.3712L8.80501 19.5555L9.05476 23.2815C9.05476 23.6887 10.3665 24.0007 11.9918 24.0007C13.6125 24.0007 14.9295 23.6887 14.9295 23.2815L15.1553 19.4497L15.156 19.434ZM15.7703 12.387C15.0045 12.4342 14.6175 13.2892 14.2305 14.1907C14.0903 14.52 13.6028 15.93 13.2855 15.7537C12.9653 15.582 13.6958 14.4255 13.9028 13.7377C13.665 13.9095 12.798 14.586 12.5745 13.953C12.2153 14.2657 11.4458 14.4337 11.5313 13.6207C11.34 13.9687 10.9103 14.445 10.395 14.238C9.71926 13.98 10.7888 11.8237 11.055 11.9302C11.3198 12.051 11.0003 12.531 10.9178 12.723C10.7295 13.1452 10.5195 13.6837 10.6598 13.785C10.902 13.98 11.5658 13.086 11.5815 13.0657C11.7023 12.9015 12.0585 11.8395 12.3435 11.961C12.6285 12.0937 11.6325 13.5037 12.0038 13.785C12.078 13.848 12.387 13.758 12.5738 13.5472C12.6908 13.4302 12.6518 13.1295 13.0508 12.1725C13.4565 11.2117 13.8158 10.0162 14.0895 10.1055C14.3663 10.1955 14.1405 10.8097 14.0385 11.0475C13.5735 12.1252 12.7725 13.8915 13.1475 13.7587C13.5225 13.6215 13.7183 13.6215 14.0933 13.1887C14.4683 12.7545 14.4375 12.036 14.6903 12.0517C14.9333 12.0667 14.901 12.306 14.8433 12.4695C15.081 12.1995 15.9915 11.6025 16.2023 12.1845C16.4603 12.8715 14.901 13.8795 15.288 13.8165C15.663 13.7737 16.2758 13.3837 16.5503 13.0237L17.2695 6.52346C17.2695 6.52346 16.5345 7.12571 11.9055 7.12571C7.28026 7.12571 6.62026 6.53996 6.62026 6.53996L7.23301 12.4702C7.56526 11.544 8.34301 9.65696 9.55801 9.73121C10.1123 9.76346 10.8578 10.8412 10.2143 10.8682C9.94426 10.884 9.91351 10.329 9.60151 10.2555C9.36226 10.2127 9.04651 10.3927 8.83951 10.6035C8.43376 11.0055 7.53451 12.6067 7.65526 13.4032C7.80451 14.4195 9.06151 13.056 9.27226 12.6532C9.42151 12.3682 9.52651 11.5132 9.83926 11.6032C10.1715 11.6925 9.81151 12.579 9.56926 13.341C9.30001 14.2117 9.16351 15.1222 8.83951 15.0172C8.50726 14.9115 9.04651 13.7902 9.01576 13.5952C8.70301 13.896 8.13301 14.6145 7.38676 14.2552L7.75801 17.9542C7.75801 17.9542 8.77726 18.747 11.832 18.747C14.8868 18.747 15.9488 17.9542 15.9488 17.9542L16.4295 13.6695C16.0388 14.0602 14.8118 14.7315 14.7375 13.9702C14.6798 13.356 16.0695 12.474 15.7103 12.4545L15.7703 12.387ZM17.3483 0.668212L14.688 3.46946L14.199 5.37146C16.0823 5.48846 17.391 5.75846 17.391 6.06221C17.391 6.48446 14.9768 6.82046 12 6.82046C9.02326 6.82046 6.60901 6.47771 6.60901 6.05921C6.60901 5.64146 9.02326 5.29346 12 5.29346C12.4223 5.29346 12.8438 5.29346 13.266 5.30921L13.824 3.03521L16.6478 0.0389619C16.719 -0.0510381 16.9298 0.0232119 17.1248 0.188212C17.316 0.340462 17.4218 0.530962 17.3625 0.620962V0.651712L17.3483 0.668212ZM13.512 6.46496C13.512 6.46496 12.9878 6.46496 12.9023 6.38321C12.879 6.35921 12.867 6.32396 12.867 6.29321C12.867 6.23396 12.906 6.20321 12.957 6.18446L12.9998 6.25871C12.9795 6.26696 12.9728 6.27371 12.969 6.28196C12.969 6.32471 13.281 6.35321 13.5233 6.34871C13.7625 6.34496 14.055 6.32471 14.055 6.28571C14.055 6.27371 14.031 6.26246 13.992 6.25046L14.0393 6.18071C14.1023 6.19946 14.1563 6.23846 14.1563 6.30146C14.1563 6.41021 14.016 6.43046 13.926 6.44171C13.8203 6.45746 13.5158 6.46571 13.5158 6.46571L13.512 6.46496Z" fill="black"/>
</g>
<defs>
<clipPath id="clip0_201_57780">
<rect width="24" height="24" fill="white"/>
</clipPath>
</defs>
</svg>
