<svg width="24" height="24" viewBox="0 0 24 24" fill="none" xmlns="http://www.w3.org/2000/svg">
<g clip-path="url(#clip0_201_58786)">
<path d="M21.1095 18.2265C20.9685 19.1955 18.9923 21.711 18.0825 22.074C17.7698 22.1948 17.4728 22.1678 17.2313 21.984C17.079 21.8633 16.9185 21.6165 14.7863 18.156L14.1533 17.1248C13.9073 16.7535 13.9538 16.2653 14.259 15.894C14.556 15.5348 14.9895 15.402 15.3683 15.546C15.3878 15.558 16.9658 16.0733 16.9658 16.0733C20.5515 17.253 20.6693 17.2995 20.8215 17.4128C21.048 17.6003 21.1538 17.889 21.1065 18.225L21.1095 18.2265ZM13.9223 12.9608C13.6643 12.5738 13.6725 12.117 13.9343 11.8043L14.9303 10.4445C17.118 7.46027 17.2425 7.30352 17.391 7.19852C17.6453 7.02677 17.961 7.01852 18.2618 7.16702C19.1288 7.58927 20.883 10.194 20.988 11.1945V11.2298C21.0195 11.5695 20.8823 11.847 20.6445 12.015C20.4803 12.1208 20.328 12.1793 16.2503 13.1715C15.606 13.3358 15.246 13.4258 15.0353 13.5L15.0623 13.4685C14.6603 13.5893 14.211 13.3943 13.953 12.9923L13.9223 12.9608ZM11.4143 11.4143C11.223 11.4728 10.629 11.6565 9.89852 10.4768C9.89852 10.4768 4.96502 2.71502 4.85177 2.47652C4.78127 2.20727 4.86377 1.90202 5.10602 1.65602C5.84027 0.894019 9.82052 -0.218981 10.8638 0.0352693C11.2035 0.125269 11.4383 0.336019 11.52 0.640519C11.5823 0.976519 12.0668 8.17577 12.1373 9.78902C12.204 11.1683 11.61 11.3558 11.4143 11.4143ZM12.0668 19.305C12.0548 23.0783 12.0473 23.2073 11.985 23.3873C11.8838 23.6648 11.6415 23.856 11.3055 23.9145C10.3448 24.0788 7.34102 22.9695 6.71177 22.227C6.59102 22.0628 6.51677 21.8985 6.50102 21.7313C6.48527 21.6143 6.50102 21.4928 6.54827 21.3878C6.62252 21.1928 6.72827 21.0398 9.42752 17.8763L10.2203 16.935C10.494 16.587 10.9703 16.482 11.4195 16.6613C11.8568 16.8255 12.1268 17.2005 12.0953 17.6063V19.2863L12.0668 19.305ZM3.88277 16.8908C3.58952 16.8833 3.32402 16.7033 3.16802 16.41C3.05852 16.1955 2.98052 15.8438 2.92952 15.4103C2.79302 14.1098 2.96102 12.1448 3.35177 11.5238C3.53177 11.2388 3.80102 11.0865 4.09427 11.0978C4.28927 11.0978 4.46552 11.1563 8.32502 12.7463L9.45377 13.1955C9.86027 13.3478 10.11 13.7655 10.0868 14.2463C10.0553 14.7113 9.78602 15.0705 9.39152 15.1763L7.78577 15.6878C4.19627 16.8443 4.07477 16.8713 3.88727 16.8555L3.88277 16.8908ZM18.8595 23.9963H18.8558L18.852 24L18.8595 23.9963Z" fill="black"/>
</g>
<defs>
<clipPath id="clip0_201_58786">
<rect width="24" height="24" fill="white"/>
</clipPath>
</defs>
</svg>
