<svg width="24" height="24" viewBox="0 0 24 24" fill="none" xmlns="http://www.w3.org/2000/svg">
<g clip-path="url(#clip0_201_57136)">
<path d="M7.43773 9.01196C5.78848 9.01196 4.45273 10.3477 4.44898 12C4.44898 13.6522 5.78923 14.988 7.43773 14.988C9.08998 14.988 10.4257 13.6522 10.4295 12C10.4257 10.3477 9.08923 9.01196 7.43773 9.01196ZM7.43773 14.352C6.14098 14.352 5.08573 13.2967 5.08573 12C5.08573 10.7032 6.14098 9.64796 7.43773 9.64796C8.73373 9.64796 9.79273 10.7032 9.79273 12C9.79273 13.2967 8.73373 14.352 7.43773 14.352ZM13.9102 9.01196C12.2625 9.01196 10.9222 10.3477 10.9222 12C10.9222 13.6522 12.2625 14.988 13.9102 14.988C15.5625 14.988 16.8982 13.6522 16.902 12C16.8982 10.3477 15.5617 9.01196 13.9102 9.01196ZM13.9102 14.352C12.6135 14.352 11.559 13.2967 11.559 12C11.559 10.7032 12.6127 9.64796 13.9102 9.64796C15.207 9.64796 16.266 10.7032 16.266 12C16.266 13.2967 15.207 14.352 13.9102 14.352ZM2.30098 10.8052C1.73023 10.719 1.15573 10.8712 0.702729 11.2275V9.64121H3.39073C3.48373 9.64121 3.55048 9.62546 3.55048 9.34796C3.55048 9.07796 3.44023 9.06971 3.37048 9.06971H0.394479C0.222729 9.06971 0.132729 9.21071 0.132729 9.36296V11.9647C0.132729 12.102 0.218979 12.1477 0.378729 12.18C0.519729 12.207 0.601479 12.1912 0.663729 12.1207L0.667479 12.1125C0.952479 11.7022 1.56973 11.3085 2.15548 11.3782C2.85448 11.4645 3.41773 12.0225 3.49573 12.7065C3.59773 13.6042 2.89798 14.3902 1.99198 14.3902C1.35898 14.3902 0.804729 13.983 0.573729 13.3905C0.538479 13.3042 0.479979 13.2375 0.229479 13.3275C-0.000771441 13.4092 -0.0127714 13.5112 0.0194786 13.5975C0.319479 14.4255 1.10848 14.9797 1.99123 14.9835C4.58548 14.9685 4.85848 11.1907 2.30023 10.8045L2.30098 10.8052ZM18.945 9.03896C18.141 9.10196 17.5117 9.80921 17.5117 10.6477V13.3087C17.5117 13.4647 17.6287 13.4955 17.805 13.4955C17.9797 13.4955 18.0982 13.4647 18.0982 13.3087V10.641C18.0982 10.1167 18.48 9.66821 18.9652 9.61721C19.242 9.59021 19.5165 9.68021 19.7235 9.86321C19.9305 10.0515 20.0475 10.3162 20.0475 10.5945C20.0475 10.6762 20.0085 10.9342 19.8285 11.1765C19.6912 11.3557 19.4385 11.5747 18.9847 11.5747H18.978C18.8602 11.5747 18.7627 11.5785 18.7432 11.856C18.7282 12.0397 18.7312 12.1222 18.8925 12.1462C19.1775 12.1852 19.4662 12.1305 19.7557 11.9782C20.2477 11.724 20.5755 11.2395 20.6145 10.7122C20.6497 10.2592 20.4855 9.81296 20.1652 9.48896C19.8412 9.16871 19.3995 9.00521 18.9465 9.03971L18.945 9.03896ZM22.863 10.5982L23.949 9.51221C23.988 9.47321 24.0817 9.38321 23.895 9.18821C23.8117 9.10496 23.742 9.06221 23.676 9.06221C23.6287 9.06596 23.586 9.08621 23.5552 9.12146L22.4692 10.2112L21.3832 9.11696C21.2932 9.02696 21.1912 9.05096 21.0592 9.18371C20.9265 9.31571 20.9025 9.42146 20.988 9.51146L22.074 10.6012L21.0037 11.6715C20.9797 11.6985 20.9407 11.7337 20.9407 11.7967C20.9377 11.859 20.9797 11.9377 21.066 12.0195C21.1372 12.0937 21.2032 12.1282 21.2662 12.1282C21.336 12.1282 21.3795 12.081 21.4065 12.0585L22.4737 10.9912L23.5627 12.081C23.595 12.1117 23.6377 12.1282 23.6805 12.1282C23.7502 12.1282 23.8207 12.0892 23.8987 12.0112C24.021 11.8822 24.0397 11.772 23.958 11.6902L22.863 10.5982Z" fill="black"/>
</g>
<defs>
<clipPath id="clip0_201_57136">
<rect width="24" height="24" fill="white"/>
</clipPath>
</defs>
</svg>
