<svg width="24" height="24" viewBox="0 0 24 24" fill="none" xmlns="http://www.w3.org/2000/svg">
<g clip-path="url(#clip0_201_57732)">
<path d="M19.5232 15.9765V0.48825H17.4645V3.3945H17.4022C17.1915 2.9415 16.9215 2.5035 16.5585 2.0895C16.1992 1.6755 15.7927 1.3125 15.3277 0.996C14.8627 0.6795 14.367 0.4335 13.8082 0.258C13.2577 0.09 12.6675 0 12.039 0C10.8277 0 9.73799 0.2265 8.79299 0.672C7.84349 1.1175 7.05074 1.7265 6.40649 2.5005C5.76599 3.27375 5.27399 4.176 4.93799 5.21175C4.60199 6.2475 4.43024 7.341 4.43024 8.493C4.43024 9.69225 4.57124 10.821 4.85624 11.8755C5.14124 12.9338 5.59424 13.8518 6.22349 14.637C6.85649 15.4185 7.63724 16.0358 8.59874 16.473C9.55949 16.9065 10.7197 17.133 12.0712 17.133C13.317 17.133 14.3992 16.8165 15.333 16.188C16.2667 15.555 16.9695 14.715 17.4502 13.6605H17.5125V15.9457C17.5125 17.9888 17.0902 19.551 16.2465 20.649C15.4065 21.7312 14.0235 22.29 12.102 22.29C11.532 22.29 10.9732 22.2278 10.434 22.1063C9.89099 21.9893 9.39899 21.7935 8.94599 21.5363C8.50874 21.267 8.11799 20.9385 7.80524 20.5012C7.48874 20.064 7.27799 19.5405 7.17224 18.9075H5.06249C5.13299 19.794 5.37899 20.5597 5.80049 21.2085C6.22649 21.8528 6.76124 22.3808 7.40174 22.8022C8.04224 23.2043 8.76899 23.5058 9.57374 23.7008C10.386 23.8958 11.2147 24.0015 12.0697 24.0015C13.4527 24.0015 14.6085 23.8065 15.5542 23.4465C16.5037 23.0715 17.2687 22.5443 17.8552 21.8407C18.4567 21.1297 18.879 20.2897 19.1482 19.2825C19.4175 18.2752 19.5705 17.1495 19.5705 15.915L19.5232 15.9765ZM12.039 15.4222C11.0857 15.4222 10.2577 15.231 9.56249 14.8478C8.86349 14.469 8.28524 13.9688 7.82774 13.3478C7.36274 12.7268 7.03049 12.0157 6.80849 11.2072C6.58199 10.3988 6.47624 9.5745 6.47624 8.7225C6.47624 7.85175 6.58199 6.996 6.77699 6.15975C6.98774 5.31975 7.31624 4.5735 7.76924 3.92175C8.21849 3.26925 8.80424 2.73825 9.49574 2.3355C10.1872 1.93275 11.031 1.73025 12.0075 1.73025C12.984 1.73025 13.8082 1.941 14.5035 2.35125C15.1792 2.76525 15.7492 3.312 16.1835 3.984C16.6207 4.6635 16.9372 5.4135 17.133 6.2415C17.328 7.06575 17.418 7.8975 17.418 8.72175C17.418 9.573 17.2972 10.4018 17.07 11.2065C16.8472 12.015 16.5 12.726 16.035 13.347C15.57 13.968 15.0112 14.4682 14.3355 14.847C13.6597 15.2295 12.8782 15.4215 11.976 15.4215L12.039 15.4222Z" fill="black"/>
</g>
<defs>
<clipPath id="clip0_201_57732">
<rect width="24" height="24" fill="white"/>
</clipPath>
</defs>
</svg>
