<svg width="24" height="24" viewBox="0 0 24 24" fill="none" xmlns="http://www.w3.org/2000/svg">
<g clip-path="url(#clip0_201_57876)">
<path d="M7.07025 10.8007V14.676H5.83575V9.80473H8.38275C9.465 9.80473 9.83175 10.5705 9.83175 11.262V14.676H8.601V11.2695C8.601 10.9762 8.4525 10.8007 8.0895 10.8007H7.07025ZM15.4612 10.7422C15.0352 10.7422 14.7112 10.9567 14.5747 11.2537C14.4967 11.418 14.4577 11.5972 14.4577 11.781H16.356C16.3327 11.2537 16.0905 10.7422 15.4612 10.7422ZM14.457 12.621C14.457 13.2502 14.8477 13.719 15.5505 13.719C16.0935 13.719 16.3627 13.5667 16.6792 13.2502L17.4412 13.9807C16.9567 14.4615 16.4415 14.754 15.5392 14.754C14.3595 14.754 13.2307 14.1097 13.2307 12.2347C13.2307 10.629 14.2155 9.72298 15.5122 9.72298C16.8285 9.72298 17.5867 10.7857 17.5867 12.1762V12.618H14.4577L14.457 12.621ZM12.1875 14.6677C11.1832 14.6677 10.758 13.9687 10.758 13.2772V8.47648H11.9887V9.80473H12.9142V10.8007H11.9887V13.1992C11.9887 13.4842 12.1215 13.641 12.4147 13.641H12.915V14.6685L12.1875 14.6677ZM4.7385 9.13273H3.4965V7.94923H4.7385V9.13273ZM4.74225 14.7262C3.81225 14.6362 3.4965 14.0737 3.4965 13.4212V9.80398H4.7385V14.73L4.74225 14.7262ZM19.5472 14.6212C18.6172 14.5312 18.3052 13.9687 18.3052 13.3207V7.78573H19.5472V14.6257V14.6212ZM23.8942 8.58598C22.7692 3.08998 12.1012 2.74198 5.2305 6.92548V7.39048C12.0937 3.85948 21.8362 3.88273 22.7227 8.93773C23.016 10.6132 22.074 12.3555 20.391 13.3597V14.6722C22.4182 13.9297 24.4965 11.5237 23.895 8.58598H23.8942ZM11.3985 18.195C6.65625 18.6322 1.71075 17.9407 1.01925 14.238C0.683247 12.4095 1.5195 10.4722 2.61675 9.26923V8.62873C0.632247 10.371 -0.445503 12.5782 0.175497 15.1837C0.968247 18.5272 5.211 20.4217 11.6835 19.7932C14.2462 19.5435 17.6017 18.7192 19.9297 17.4375V15.621C17.8162 16.8825 14.3122 17.9257 11.3985 18.195ZM20.9842 8.14873C20.9842 8.09023 20.9452 8.07073 20.8672 8.07073H20.7892V8.24248H20.8672C20.9452 8.24248 20.9842 8.21923 20.9842 8.16073V8.14873ZM21.1057 8.57398H21.012C21.0045 8.57398 20.9962 8.57023 20.9925 8.56198L20.8672 8.34748C20.8635 8.34373 20.8552 8.33998 20.8477 8.33998H20.793V8.55073C20.793 8.56273 20.781 8.57398 20.7697 8.57398H20.688C20.676 8.57398 20.6647 8.56198 20.6647 8.55073V8.01523C20.6647 7.98823 20.6805 7.97248 20.7037 7.96798C20.7547 7.96423 20.805 7.96423 20.856 7.96423C21.0082 7.96423 21.102 8.00698 21.102 8.15173V8.15923C21.102 8.24923 21.0547 8.29573 20.9887 8.31973L21.1177 8.53873C21.1177 8.54248 21.1215 8.55073 21.1215 8.55448C21.1252 8.56198 21.1177 8.57398 21.1057 8.57398ZM20.8867 7.86298C20.6602 7.86298 20.4765 8.04673 20.4765 8.27323C20.4802 8.49973 20.664 8.68348 20.8905 8.68348C21.1132 8.68348 21.297 8.49973 21.297 8.27698C21.297 8.05048 21.1132 7.86298 20.8867 7.86298ZM20.8867 8.76973C20.613 8.76973 20.391 8.55073 20.391 8.27773C20.391 8.00473 20.6137 7.78198 20.8867 7.78198C21.156 7.78198 21.3825 8.00473 21.3825 8.27773C21.3825 8.55073 21.156 8.76973 20.8867 8.76973Z" fill="black"/>
</g>
<defs>
<clipPath id="clip0_201_57876">
<rect width="24" height="24" fill="white"/>
</clipPath>
</defs>
</svg>
