<svg width="24" height="24" viewBox="0 0 24 24" fill="none" xmlns="http://www.w3.org/2000/svg">
<path d="M21.3127 13.4768L12.102 18.606L2.70372 13.4768C2.35197 13.2818 1.90272 13.4145 1.71147 13.77C1.51647 14.1255 1.64922 14.571 2.00847 14.766L11.7547 20.0978C11.9737 20.2268 12.2505 20.2268 12.4695 20.0978L22.032 14.766C22.3837 14.5665 22.5082 14.1218 22.3095 13.77C22.122 13.4108 21.669 13.2743 21.3135 13.4768H21.3127ZM3.84372 10.074L12.1012 5.40602L21.2962 10.7183C21.6517 10.9178 22.101 10.7925 22.308 10.4408C22.5075 10.0853 22.3822 9.63602 22.0305 9.42902L12.468 3.91352C12.2415 3.78452 11.964 3.78452 11.7337 3.91352L1.98747 9.42902C1.49172 9.70652 1.49172 10.4213 1.98747 10.7183L11.7337 16.2338C12.0892 16.4333 12.5385 16.308 12.7455 15.9563C12.9405 15.6008 12.8197 15.1515 12.468 14.9445L3.84372 10.074ZM0.0584669 13.9373V10.2578C-0.0277831 9.36302 0.429717 8.50352 1.21497 8.07002L10.9612 2.55452C11.6685 2.14427 12.5392 2.15252 13.2427 2.57027L22.8052 8.08952C23.571 8.53127 24.012 9.37502 23.9422 10.2578V13.9373C24.0165 14.832 23.5552 15.6915 22.7662 16.125L13.2037 21.4568C12.5122 21.8438 11.6722 21.8438 10.9807 21.4568L1.23447 16.125C0.425967 15.6833 0.00371687 14.8163 0.0584669 13.9373Z" fill="black"/>
</svg>
