<svg width="24" height="24" viewBox="0 0 24 24" fill="none" xmlns="http://www.w3.org/2000/svg">
<g clip-path="url(#clip0_201_57306)">
<path d="M21.9772 24H2.02725C0.8985 24 0 23.1022 0 21.9772V2.02725C0 0.8985 0.89775 0 2.02275 0H22.0507C23.1015 0 24 0.89775 24 2.02275V21.9765C24 23.1015 23.1022 23.9993 21.9772 23.9993V24ZM12 3.97725H9C6.22725 3.97725 3.97725 6.22725 3.97725 9V15C3.97725 17.7728 6.22725 20.0228 9 20.0228H15C17.7728 20.0228 20.0228 17.7728 20.0228 15V11.0227C20.0228 10.4257 19.5735 9.9765 18.9728 9.9765H18C17.4772 9.9765 17.0228 9.52275 17.0228 8.99925C17.0228 6.222 14.7727 3.972 12 3.972V3.97725ZM15.0743 15.9772H9C8.47725 15.9772 8.02275 15.5235 8.02275 15C8.02275 14.4765 8.4765 14.0228 9 14.0228H15.0743C15.6023 14.0228 16.0515 14.4727 16.0515 15C16.0515 15.5273 15.6023 15.9772 15.0743 15.9772ZM12.5228 8.02275C13.0508 8.02275 13.5 8.4765 13.5 9C13.5 9.5235 13.0508 9.97725 12.5228 9.97725H8.92575C8.39775 9.97725 7.9485 9.5235 7.9485 9C7.9485 8.4765 8.39775 8.02275 8.92575 8.02275H12.5228Z" fill="black"/>
</g>
<defs>
<clipPath id="clip0_201_57306">
<rect width="24" height="24" fill="white"/>
</clipPath>
</defs>
</svg>
