<svg width="24" height="24" viewBox="0 0 24 24" fill="none" xmlns="http://www.w3.org/2000/svg">
<g clip-path="url(#clip0_201_58734)">
<path d="M12 24C5.34375 24 0 18.582 0 12C0 5.34375 5.34375 0 12 0C18.6562 0 24 5.34375 24 12C24 18.582 18.6562 24 12 24ZM12 2.016C6.504 2.016 2.0115 6.504 2.0115 12.0007C2.0115 17.4975 6.504 21.9893 12 21.9893C17.496 21.9893 21.9885 17.4967 21.9885 12.0007C21.9885 6.50475 17.496 2.016 12 2.016ZM17.8868 13.1603H9.2145C8.8275 13.1603 8.51925 12.852 8.5155 12.4725V11.4608C8.5155 11.07 8.82375 10.7618 9.2145 10.7618H17.9603C18.3472 10.7618 18.6555 11.0745 18.6555 11.4608V12.465C18.5813 12.852 18.2685 13.1603 17.886 13.1603H17.8868ZM15.6405 9.28875H6.89025C6.50775 9.2925 6.195 8.98425 6.19125 8.601V7.58925C6.19125 7.2765 6.504 6.96825 6.89025 6.96825H15.636C15.9487 6.96825 16.257 7.281 16.257 7.58925V8.5935C16.257 8.9805 15.9488 9.28875 15.6398 9.28875H15.6405ZM6.891 14.7113H15.6412C16.0282 14.7113 16.3365 15.0195 16.3365 15.4065V16.4108C16.3365 16.7978 16.0282 17.106 15.645 17.1097H6.891C6.504 17.0317 6.19575 16.7227 6.19575 16.3365V15.3285C6.192 15.0202 6.504 14.7113 6.891 14.7113Z" fill="black"/>
</g>
<defs>
<clipPath id="clip0_201_58734">
<rect width="24" height="24" fill="white"/>
</clipPath>
</defs>
</svg>
