<svg width="24" height="24" viewBox="0 0 24 24" fill="none" xmlns="http://www.w3.org/2000/svg">
<path d="M6.68554 15H17.3141M6.51416 13H17.4856M17.8511 8.73669L17.0508 18.0733C16.9623 19.106 16.918 19.6222 16.6885 20.0129C16.4864 20.357 16.1864 20.6327 15.8263 20.8047C15.4174 21 14.8992 21 13.8628 21H10.1377C9.10126 21 8.58269 21 8.17383 20.8047C7.81377 20.6327 7.51357 20.357 7.31147 20.0129C7.08199 19.6222 7.03772 19.106 6.94921 18.0733L6.14892 8.73669C6.09727 8.13403 6.07146 7.83262 6.17291 7.6001C6.26203 7.39581 6.41686 7.22718 6.61279 7.12093C6.8358 7 7.13829 7 7.74316 7H16.2571C16.862 7 17.1646 7 17.3876 7.12093C17.5836 7.22718 17.738 7.39581 17.8271 7.6001C17.9286 7.83262 17.9027 8.13403 17.8511 8.73669ZM17.2473 7H6.75293C5.85132 7 5.40053 6.99997 5.13867 6.81128C4.90778 6.64491 4.75884 6.38807 4.72894 6.10506C4.69503 5.78409 4.91889 5.39271 5.36621 4.60989C5.70039 4.02508 5.86747 3.73268 6.10197 3.51965C6.31161 3.32921 6.55925 3.18544 6.82861 3.09791C7.12991 3 7.46658 3 8.14013 3H15.8604C16.5339 3 16.8707 3 17.172 3.09791C17.4413 3.18544 17.6888 3.32921 17.8984 3.51965C18.1329 3.73268 18.3 4.02508 18.6342 4.60989C19.0815 5.3927 19.3053 5.78409 19.2713 6.10506C19.2415 6.38807 19.0927 6.64491 18.8618 6.81128C18.6 6.99997 18.1489 7 17.2473 7Z" stroke="black" stroke-width="2" stroke-linecap="round" stroke-linejoin="round"/>
</svg>
