<svg width="24" height="24" viewBox="0 0 24 24" fill="none" xmlns="http://www.w3.org/2000/svg">
<path d="M4 19C3.44772 19 3 19.4477 3 20C3 20.5523 3.44772 21 4 21V19ZM18 21C18.5523 21 19 20.5523 19 20C19 19.4477 18.5523 19 18 19V21ZM18 9V8C17.4477 8 17 8.44772 17 9H18ZM18 14H17C17 14.5523 17.4477 15 18 15V14ZM15.8944 3.44721C16.1414 2.95324 15.9412 2.35256 15.4472 2.10557C14.9532 1.85858 14.3526 2.05881 14.1056 2.55279L15.8944 3.44721ZM13.1056 4.55279C12.8586 5.04676 13.0588 5.64744 13.5528 5.89443C14.0468 6.14142 14.6474 5.94119 14.8944 5.44721L13.1056 4.55279ZM12.8944 3.44721C13.1414 2.95324 12.9412 2.35256 12.4472 2.10557C11.9532 1.85858 11.3526 2.05881 11.1056 2.55279L12.8944 3.44721ZM10.1056 4.55279C9.85858 5.04676 10.0588 5.64744 10.5528 5.89443C11.0468 6.14142 11.6474 5.94119 11.8944 5.44721L10.1056 4.55279ZM9.89443 3.44721C10.1414 2.95324 9.94119 2.35256 9.44721 2.10557C8.95324 1.85858 8.35256 2.05881 8.10557 2.55279L9.89443 3.44721ZM7.10557 4.55279C6.85858 5.04676 7.05881 5.64744 7.55279 5.89443C8.04676 6.14142 8.64744 5.94119 8.89443 5.44721L7.10557 4.55279ZM4 21H18V19H4V21ZM18 10H19.5V8H18V10ZM19.5 13H18V15H19.5V13ZM19 14V9H17V14H19ZM21 11.5C21 12.3284 20.3284 13 19.5 13V15C21.433 15 23 13.433 23 11.5H21ZM19.5 10C20.3284 10 21 10.6716 21 11.5H23C23 9.567 21.433 8 19.5 8V10ZM17 8.9231V13H19V8.9231H17ZM5 13V8.9231H3V13H5ZM4.92285 9H17.0767V7H4.92285V9ZM5 8.9231C5 8.96523 4.96568 9 4.92285 9V7C3.86042 7 3 7.86135 3 8.9231H5ZM11 19C7.68629 19 5 16.3137 5 13H3C3 17.4183 6.58173 21 11 21V19ZM17 13C17 16.3137 14.3137 19 11 19V21C15.4183 21 19 17.4183 19 13H17ZM19 8.9231C19 7.86072 18.1385 7 17.0767 7V9C17.0345 9 17 8.96587 17 8.9231H19ZM14.1056 2.55279L13.1056 4.55279L14.8944 5.44721L15.8944 3.44721L14.1056 2.55279ZM11.1056 2.55279L10.1056 4.55279L11.8944 5.44721L12.8944 3.44721L11.1056 2.55279ZM8.10557 2.55279L7.10557 4.55279L8.89443 5.44721L9.89443 3.44721L8.10557 2.55279Z" fill="black"/>
</svg>
