<svg width="24" height="24" viewBox="0 0 24 24" fill="none" xmlns="http://www.w3.org/2000/svg">
<path d="M12.166 3C12.962 3 15.661 3.223 16.935 6.073C17.361 7.032 17.259 8.662 17.175 9.971L17.173 10.018C17.162 10.164 17.155 10.296 17.149 10.428C17.2479 10.4806 17.3592 10.5055 17.471 10.5C17.712 10.487 18.001 10.404 18.302 10.259C18.4179 10.2016 18.5458 10.1728 18.675 10.175C18.821 10.175 18.964 10.198 19.084 10.247C19.445 10.367 19.674 10.632 19.674 10.921C19.687 11.282 19.361 11.596 18.699 11.86C18.628 11.883 18.53 11.921 18.423 11.956C18.06 12.065 17.506 12.245 17.35 12.607C17.278 12.788 17.301 13.028 17.448 13.304L17.46 13.317C17.508 13.426 18.688 16.112 21.314 16.546C21.4104 16.5615 21.4977 16.6116 21.5597 16.6869C21.6218 16.7622 21.6542 16.8575 21.651 16.955C21.651 17.015 21.638 17.074 21.615 17.136C21.422 17.593 20.592 17.931 19.085 18.157C19.038 18.23 18.989 18.459 18.953 18.616C18.931 18.76 18.893 18.905 18.846 19.06C18.785 19.278 18.629 19.385 18.4 19.385H18.376C18.2302 19.3783 18.0853 19.3585 17.943 19.326C17.6066 19.2534 17.2633 19.2172 16.919 19.218C16.679 19.218 16.439 19.23 16.187 19.278C15.704 19.362 15.283 19.651 14.801 19.988C14.114 20.469 13.332 21.024 12.152 21.024C12.104 21.024 12.056 21.012 12.006 21.012H11.887C10.706 21.012 9.93604 20.469 9.25004 19.976C8.76904 19.638 8.36004 19.35 7.87704 19.265C7.63036 19.2282 7.38145 19.2081 7.13204 19.205C6.69704 19.205 6.36104 19.277 6.10904 19.325C5.93904 19.36 5.79504 19.384 5.67404 19.384C5.56859 19.392 5.46369 19.3626 5.37774 19.301C5.29179 19.2394 5.2303 19.1494 5.20404 19.047C5.15604 18.893 5.13304 18.734 5.09704 18.591C5.05904 18.445 5.01204 18.195 4.96404 18.133C3.42104 17.954 2.59104 17.616 2.39904 17.147C2.37253 17.0902 2.35757 17.0287 2.35504 16.966C2.3512 16.8683 2.38342 16.7727 2.44557 16.6973C2.50772 16.6218 2.59545 16.5719 2.69204 16.557C5.31704 16.123 6.49704 13.438 6.54604 13.325L6.55904 13.302C6.70404 13.025 6.73904 12.782 6.65504 12.603C6.49904 12.254 5.94404 12.074 5.58504 11.953C5.48952 11.9289 5.39619 11.8968 5.30604 11.857C4.41604 11.507 4.29504 11.109 4.34404 10.833C4.41604 10.449 4.88504 10.196 5.28304 10.196C5.40004 10.196 5.50004 10.219 5.59104 10.256C5.92804 10.411 6.22604 10.497 6.47904 10.497C6.60867 10.5018 6.73728 10.4724 6.85204 10.412L6.81104 9.954C6.73104 8.647 6.62904 7.019 7.05804 6.065C8.29404 3.229 10.987 3.011 11.782 3.011L12.117 3H12.166Z" fill="black"/>
</svg>
