<svg width="24" height="24" viewBox="0 0 24 24" fill="none" xmlns="http://www.w3.org/2000/svg">
<path d="M20 3H4C3.73478 3 3.48043 3.10536 3.29289 3.29289C3.10536 3.48043 3 3.73478 3 4V20C3 20.2652 3.10536 20.5196 3.29289 20.7071C3.48043 20.8946 3.73478 21 4 21H20C20.2652 21 20.5196 20.8946 20.7071 20.7071C20.8946 20.5196 21 20.2652 21 20V4C21 3.73478 20.8946 3.48043 20.7071 3.29289C20.5196 3.10536 20.2652 3 20 3ZM8.747 14.746C8.20422 14.7456 7.67374 14.5843 7.22261 14.2825C6.77148 13.9807 6.41996 13.5519 6.21247 13.0503C6.00499 12.5488 5.95085 11.9969 6.05692 11.4646C6.16298 10.9323 6.42447 10.4434 6.80835 10.0596C7.19222 9.6759 7.68124 9.41459 8.2136 9.30872C8.74596 9.20285 9.29775 9.25719 9.79923 9.46486C10.3007 9.67252 10.7294 10.0242 11.031 10.4754C11.3327 10.9267 11.4938 11.4572 11.494 12C11.4943 12.3608 11.4234 12.718 11.2854 13.0514C11.1474 13.3847 10.9451 13.6876 10.6899 13.9427C10.4348 14.1977 10.1319 14.3999 9.79847 14.5378C9.46507 14.6756 9.10777 14.7464 8.747 14.746ZM15.253 14.746C14.8923 14.7461 14.5352 14.6751 14.2019 14.5371C13.8687 14.3992 13.5659 14.1969 13.3108 13.9419C13.0557 13.6869 12.8533 13.3842 12.7153 13.051C12.5772 12.7178 12.5061 12.3607 12.506 12C12.5059 11.6393 12.5769 11.2822 12.7149 10.9489C12.8528 10.6157 13.0551 10.3129 13.3101 10.0578C13.5651 9.8027 13.8678 9.60034 14.201 9.46226C14.5342 9.32417 14.8913 9.25307 15.252 9.253C15.9804 9.25287 16.6791 9.5421 17.1942 10.0571C17.7094 10.5721 17.9989 11.2706 17.999 11.999C17.9991 12.7274 17.7099 13.4261 17.1949 13.9412C16.6799 14.4564 15.9814 14.7459 15.253 14.746Z" fill="black"/>
</svg>
