<svg width="24" height="24" viewBox="0 0 24 24" fill="none" xmlns="http://www.w3.org/2000/svg">
<path d="M12.177 9.05902C11.2276 9.06061 10.3178 9.43898 9.64727 10.111C8.97675 10.783 8.60042 11.6937 8.60095 12.643C8.60069 13.5923 8.97707 14.503 9.6475 15.1751C10.3179 15.8472 11.2276 16.2259 12.177 16.228C12.6472 16.2276 13.1127 16.1346 13.5469 15.9541C13.9811 15.7737 14.3755 15.5095 14.7075 15.1765C15.0395 14.8436 15.3027 14.4484 15.4819 14.0137C15.6611 13.579 15.7529 13.1132 15.752 12.643C15.7525 11.6939 15.3763 10.7833 14.706 10.1113C14.0357 9.43936 13.1261 9.06088 12.177 9.05902ZM14.695 11.327L12.329 12.556C12.259 12.595 12.176 12.539 12.176 12.463V9.79102H12.177C12.177 9.73102 12.231 9.68702 12.286 9.68702C12.788 9.70573 13.277 9.85267 13.7062 10.1138C14.1354 10.375 14.4906 10.7417 14.738 11.179C14.766 11.234 14.749 11.3 14.695 11.327Z" fill="black"/>
<path d="M18.578 3H5.361C5.0506 3.00026 4.7433 3.06168 4.45664 3.18073C4.16998 3.29979 3.90959 3.47416 3.69034 3.69387C3.47109 3.91359 3.29727 4.17435 3.17882 4.46126C3.06037 4.74817 2.99961 5.0556 3 5.366V18.643C2.9992 19.2703 3.24738 19.8724 3.69004 20.3169C4.1327 20.7614 4.73366 21.0121 5.361 21.014H18.578C19.2056 21.0124 19.8069 20.7616 20.2496 20.3168C20.6924 19.872 20.9403 19.2696 20.939 18.642V5.372C20.9401 4.74449 20.692 4.14221 20.2493 3.69746C19.8066 3.25271 19.2055 3.00185 18.578 3ZM10.466 6.404C10.4659 6.30157 10.4859 6.20011 10.525 6.10543C10.5641 6.01075 10.6214 5.92469 10.6938 5.85216C10.7661 5.77964 10.852 5.72208 10.9466 5.68276C11.0412 5.64344 11.1426 5.62313 11.245 5.623H13.06C13.49 5.623 13.838 5.973 13.838 6.404V7.022C13.8382 7.03813 13.8346 7.05408 13.8277 7.06864C13.8207 7.0832 13.8105 7.09598 13.7979 7.10601C13.7853 7.11604 13.7705 7.12305 13.7548 7.12652C13.739 7.12998 13.7227 7.12981 13.707 7.126C12.6902 6.84282 11.6146 6.84871 10.601 7.143C10.531 7.159 10.465 7.11 10.465 7.039L10.466 6.404ZM7.08 8.993C6.93388 8.84659 6.8519 8.64814 6.85209 8.44129C6.85228 8.23445 6.93462 8.03614 7.081 7.89L7.452 7.519L7.454 7.517C7.52622 7.44484 7.61197 7.38763 7.70633 7.34867C7.8007 7.3097 7.90182 7.28974 8.00392 7.28993C8.10601 7.29011 8.20706 7.31044 8.30128 7.34975C8.39551 7.38906 8.48105 7.44658 8.553 7.519L8.863 7.83C8.906 7.88 8.901 7.957 8.846 7.989C8.34795 8.35105 7.91051 8.78984 7.55 9.289C7.506 9.338 7.436 9.349 7.387 9.3L7.081 8.994L7.08 8.993ZM12.177 17.73C11.5097 17.7295 10.8491 17.5974 10.2329 17.3415C9.61667 17.0855 9.05694 16.7105 8.58571 16.2381C8.11448 15.7657 7.74099 15.205 7.48657 14.5881C7.23216 13.9712 7.10182 13.3103 7.103 12.643C7.103 9.83 9.375 7.551 12.177 7.551C12.8443 7.551 13.5051 7.68264 14.1215 7.93838C14.7379 8.19412 15.2978 8.56894 15.7691 9.04138C16.2404 9.51382 16.6139 10.0746 16.8682 10.6916C17.1225 11.3086 17.2526 11.9697 17.251 12.637C17.251 15.452 14.979 17.73 12.177 17.73Z" fill="black"/>
</svg>
