<svg width="24" height="24" viewBox="0 0 24 24" fill="none" xmlns="http://www.w3.org/2000/svg">
<path d="M12.427 13.011C12.464 12.344 12.79 11.757 13.283 11.34C13.8006 10.9094 14.4537 10.6757 15.127 10.68C15.837 10.68 16.487 10.93 16.972 11.34C17.464 11.757 17.791 12.345 17.828 13.011C17.866 13.697 17.591 14.334 17.107 14.806C16.5742 15.3143 15.8643 15.5948 15.128 15.588C14.391 15.5952 13.6803 15.3147 13.147 14.806C12.664 14.334 12.388 13.697 12.427 13.011Z" fill="black"/>
<path d="M8.12389 14.361C8.12889 14.621 8.21289 15.128 8.33689 15.525C8.60707 16.3788 9.06028 17.1634 9.66489 17.824C10.313 18.5373 11.1047 19.1054 11.9879 19.491C12.9486 19.9148 13.9879 20.1312 15.0379 20.126C16.0889 20.1273 17.1284 19.9075 18.0889 19.481C18.9709 19.0907 19.7616 18.5201 20.4099 17.806C21.0133 17.1433 21.4657 16.3575 21.7359 15.503C21.8678 15.0856 21.9517 14.6545 21.9859 14.218C22.0802 12.956 21.7691 11.6969 21.0979 10.624C20.6883 9.96898 20.1651 9.39228 19.5529 8.92101L19.5539 8.92001L13.3049 4.12101L13.2889 4.10701C12.8779 3.79301 12.1879 3.79401 11.7379 4.10901C11.2809 4.42801 11.2299 4.95501 11.6339 5.28901L11.6329 5.29001L14.2389 7.41101L6.29589 7.42001H6.28389C5.62789 7.42001 4.99689 7.85201 4.87189 8.39601C4.74389 8.95101 5.18989 9.41101 5.87289 9.41301L5.87189 9.41601L9.89889 9.40801L2.71089 14.924L2.68389 14.945C2.00689 15.464 1.78789 16.327 2.21389 16.874C2.64789 17.43 3.56789 17.43 4.25389 16.876L8.17589 13.667C8.17689 13.667 8.11989 14.1 8.12389 14.361ZM18.2019 15.811C17.3939 16.635 16.2639 17.102 15.0389 17.104C13.8129 17.106 12.6829 16.643 11.8739 15.821C11.4915 15.4382 11.1967 14.9769 11.0099 14.469C10.8335 13.986 10.7655 13.4702 10.8109 12.958C10.8549 12.453 11.0039 11.971 11.2449 11.536C11.4809 11.107 11.8069 10.721 12.2069 10.392C13.0092 9.74685 14.0094 9.39792 15.0389 9.40401C16.0674 9.39573 17.0675 9.74179 17.8709 10.384C18.2699 10.71 18.5959 11.095 18.8319 11.523C19.0719 11.959 19.2219 12.439 19.2659 12.944C19.311 13.4561 19.2434 13.9718 19.0679 14.455C18.8792 14.9636 18.5839 15.4259 18.2019 15.811Z" fill="black"/>
</svg>
