<svg width="24" height="24" viewBox="0 0 24 24" fill="none" xmlns="http://www.w3.org/2000/svg">
<path d="M15.9999 17.24C18.4999 16.94 20.6899 15.4 20.9999 13.99C21.2794 12.1971 21.4132 10.3845 21.3999 8.57002C21.3299 4.23002 18.4799 3.00002 18.4799 3.00002C16.4014 2.26466 14.2034 1.92546 11.9999 2.00002C9.79642 1.92546 7.59846 2.26466 5.51993 3.00002C5.51993 3.00002 2.67993 4.23002 2.67993 8.57002V12.01C2.77993 16.25 3.45993 20.43 7.37993 21.47C8.88215 21.8902 10.4416 22.0691 11.9999 22C13.222 21.9676 14.4254 21.6923 15.5399 21.19L15.4699 19.55C14.3433 19.8775 13.1729 20.0293 11.9999 20C10.1999 19.94 8.28993 19.81 7.99993 17.6C7.98438 17.3903 7.98438 17.1797 7.99993 16.97C9.31457 17.2685 10.6532 17.4493 11.9999 17.51C13.3385 17.5336 14.6767 17.4433 15.9999 17.24ZM9.45993 7.44002C8.55993 7.44002 8.10993 7.98002 8.10993 9.06002V14.16H5.99993V8.90002C5.95036 7.97504 6.24216 7.06405 6.81993 6.34002C7.09422 6.01839 7.43661 5.76181 7.8223 5.58885C8.208 5.4159 8.62733 5.3309 9.04993 5.34002C9.52299 5.31462 9.99432 5.41508 10.4159 5.63114C10.8375 5.84721 11.1943 6.17117 11.4499 6.57002L11.9699 7.44002L12.4899 6.57002C12.7456 6.17117 13.1024 5.84721 13.5239 5.63114C13.9455 5.41508 14.4169 5.31462 14.8899 5.34002C15.3125 5.3309 15.7319 5.4159 16.1176 5.58885C16.5033 5.76181 16.8456 6.01839 17.1199 6.34002C17.7192 7.05545 18.0327 7.96731 17.9999 8.90002V14.16H15.8899V9.06002C15.8899 7.98002 15.4399 7.44002 14.5399 7.44002C13.5399 7.44002 13.0299 8.08002 13.0299 9.36002V12.15H10.9999V9.36002C10.9999 8.08002 10.4599 7.44002 9.45993 7.44002Z" fill="black"/>
</svg>
