<svg width="24" height="24" viewBox="0 0 24 24" fill="none" xmlns="http://www.w3.org/2000/svg">
<path d="M18.0021 2.99701H5.99907C5.20345 2.99938 4.44111 3.31657 3.87861 3.87925C3.31611 4.44194 2.99918 5.20439 2.99707 6.00001V18.002C2.99997 18.7972 3.31721 19.559 3.8796 20.1212C4.44198 20.6834 5.20387 21.0004 5.99907 21.003H18.0021C18.7971 21.0001 19.5587 20.683 20.1209 20.1208C20.6831 19.5587 21.0002 18.797 21.0031 18.002V6.00001C21.0007 5.20464 20.6838 4.44249 20.1216 3.87989C19.5594 3.31729 18.7974 2.99991 18.0021 2.99701ZM16.3621 15.644C16.2101 16.004 15.9731 16.324 15.6691 16.571C15.3096 16.8502 14.9003 17.0586 14.4631 17.185C13.9731 17.336 13.3891 17.414 12.7131 17.414H7.88807V6.90901H12.9911C13.9341 6.90901 14.6911 7.12201 15.2581 7.55501C15.8271 7.99101 16.1121 8.63701 16.1121 9.51301C16.1121 10.041 15.9821 10.496 15.7231 10.87C15.4641 11.243 15.0931 11.534 14.6121 11.738V11.772C15.2541 11.907 15.7491 12.21 16.0761 12.684C16.4031 13.157 16.5691 13.753 16.5691 14.473C16.5691 14.878 16.4911 15.261 16.3441 15.62L16.3641 15.641V15.644H16.3621ZM14.2781 13.055C13.9691 12.773 13.5391 12.636 12.9811 12.636H9.73707V15.912H12.9901C13.5441 15.912 13.9811 15.768 14.2881 15.477C14.5961 15.188 14.7521 14.776 14.7521 14.248C14.7471 13.73 14.5961 13.329 14.2881 13.055H14.2741H14.2781ZM13.8271 10.936C14.1261 10.685 14.2711 10.323 14.2711 9.85201C14.2711 9.32601 14.1401 8.95001 13.8741 8.73601C13.6101 8.52201 13.2281 8.41001 12.7281 8.41001H9.72707V11.308H12.7281C13.1641 11.309 13.5381 11.181 13.8271 10.936Z" fill="black"/>
</svg>
