<svg width="24" height="24" viewBox="0 0 24 24" fill="none" xmlns="http://www.w3.org/2000/svg">
<path d="M2.005 10.238V11.928L12.007 18.182L21.995 11.928V10.238L12.007 16.467L2.005 10.238Z" fill="black"/>
<path d="M15.938 12.469L17.403 11.531C16.242 9.83003 14.25 8.65503 12.007 8.65503C9.74999 8.65503 7.77099 9.79003 6.63599 11.545C6.72899 11.452 6.78199 11.399 6.87399 11.334C9.68499 8.99803 13.734 9.52603 15.938 12.469Z" fill="black"/>
<path d="M9.05101 13.063C9.56696 12.6841 10.1909 12.4808 10.831 12.483C11.914 12.483 12.878 13.037 13.523 13.973L14.922 13.102C14.315 12.139 13.234 11.545 12.006 11.545C10.78 11.545 9.69701 12.165 9.05101 13.063ZM5.25001 9.01199C9.36701 5.76599 15.187 6.64999 18.287 10.965L18.313 10.991L19.83 10.053C18.9812 8.75207 17.8213 7.68346 16.4553 6.94396C15.0893 6.20447 13.5603 5.81746 12.007 5.81799C10.4536 5.8183 8.92466 6.20565 7.55847 6.94506C6.19227 7.68446 5.03184 8.75261 4.18201 10.053C4.48601 9.71099 4.86801 9.30199 5.25001 9.01199Z" fill="black"/>
</svg>
