<svg width="24" height="24" viewBox="0 0 24 24" fill="none" xmlns="http://www.w3.org/2000/svg">
<path d="M14.4899 20.937L19.8709 19.771C19.8709 19.771 17.9299 6.63299 17.9139 6.54599C17.8979 6.45999 17.8279 6.40199 17.7559 6.40199C17.6839 6.40199 16.3169 6.30099 16.3169 6.30099C16.3169 6.30099 15.3679 5.35199 15.2529 5.25099C15.2259 5.22199 15.1959 5.20799 15.1669 5.19299L14.4899 20.937ZM14.9359 5.16499C14.9199 5.16499 14.8929 5.17899 14.8789 5.17899C14.8629 5.17899 14.6619 5.23799 14.3459 5.33699C14.0279 4.41799 13.4669 3.56899 12.4749 3.56899H12.3889C12.0999 3.20799 11.7559 3.04999 11.4529 3.04999C9.13691 3.04999 8.02691 5.94199 7.68291 7.40899C6.79091 7.68399 6.14491 7.88499 6.06991 7.91399C5.56591 8.07199 5.55291 8.08599 5.49591 8.56199C5.43891 8.90599 4.12891 19.051 4.12891 19.051L14.2459 20.95L14.9359 5.16499ZM12.3009 5.86899V5.97099C11.7419 6.14399 11.1229 6.33099 10.5179 6.51799C10.8639 5.19499 11.5099 4.54599 12.0709 4.30099C12.2169 4.67599 12.3009 5.17899 12.3009 5.86899ZM11.3809 3.66899C11.4809 3.66899 11.5819 3.69699 11.6839 3.77099C10.9519 4.11499 10.1449 4.99299 9.81291 6.74899C9.34439 6.89885 8.87402 7.04287 8.40191 7.18099C8.79091 5.84199 9.72691 3.66899 11.3809 3.66899ZM11.7829 11.481C11.7829 11.481 11.1789 11.166 10.4609 11.166C9.38091 11.166 9.33791 11.842 9.33791 12.015C9.33791 12.936 11.7559 13.295 11.7559 15.468C11.7559 17.18 10.6759 18.274 9.20891 18.274C7.45291 18.274 6.56091 17.18 6.56091 17.18L7.03591 15.626C7.03591 15.626 7.95791 16.418 8.73291 16.418C8.82599 16.4218 8.91887 16.4067 9.00601 16.3738C9.09315 16.3408 9.17275 16.2906 9.24005 16.2262C9.30736 16.1618 9.36098 16.0845 9.39773 15.9989C9.43447 15.9133 9.45358 15.8211 9.45391 15.728C9.45391 14.519 7.46791 14.46 7.46791 12.476C7.46791 10.807 8.66291 9.18099 11.0949 9.18099C12.0309 9.18099 12.4899 9.45299 12.4899 9.45299L11.7829 11.481ZM12.7049 4.19999C13.2229 4.25999 13.5549 4.84799 13.7689 5.51099C13.5109 5.59799 13.2219 5.68399 12.9059 5.78399V5.59699C12.9059 5.03599 12.8339 4.57499 12.7049 4.19999Z" fill="black"/>
</svg>
