<svg width="24" height="24" viewBox="0 0 24 24" fill="none" xmlns="http://www.w3.org/2000/svg">
<path d="M11.157 12C11.157 13.213 10.6752 14.3763 9.81746 15.234C8.95976 16.0917 7.79648 16.5735 6.58351 16.5735C5.37054 16.5735 4.20725 16.0917 3.34956 15.234C2.49186 14.3763 2.01001 13.213 2.01001 12C2.01001 10.787 2.49186 9.62376 3.34956 8.76606C4.20725 7.90836 5.37054 7.42651 6.58351 7.42651C7.79648 7.42651 8.95976 7.90836 9.81746 8.76606C10.6752 9.62376 11.157 10.787 11.157 12ZM21.99 12C21.99 13.213 21.5082 14.3763 20.6505 15.234C19.7928 16.0917 18.6295 16.5735 17.4165 16.5735C16.2035 16.5735 15.0403 16.0917 14.1826 15.234C13.3249 14.3763 12.843 13.213 12.843 12C12.843 10.787 13.3249 9.62376 14.1826 8.76606C15.0403 7.90836 16.2035 7.42651 17.4165 7.42651C18.6295 7.42651 19.7928 7.90836 20.6505 8.76606C21.5082 9.62376 21.99 10.787 21.99 12Z" fill="black"/>
</svg>
