<svg width="24" height="24" viewBox="0 0 24 24" fill="none" xmlns="http://www.w3.org/2000/svg">
<path d="M20.1701 9.82003C19.8885 9.81847 19.6074 9.8419 19.3301 9.89003C19.2576 9.45213 19.0926 9.03473 18.846 8.6657C18.5994 8.29667 18.2769 7.98449 17.9001 7.75003L17.6201 7.59003L17.4301 7.86003C17.1914 8.22364 17.0188 8.62647 16.9201 9.05003C16.8214 9.42307 16.7997 9.81232 16.8565 10.194C16.9132 10.5757 17.0471 10.9418 17.2501 11.27C16.7921 11.4742 16.3007 11.5928 15.8001 11.62H2.63006C2.46469 11.62 2.30594 11.685 2.18808 11.801C2.07021 11.917 2.00268 12.0747 2.00006 12.24C1.98775 13.3957 2.18423 14.5442 2.58006 15.63C2.93538 16.6969 3.63998 17.6129 4.58006 18.23C5.94645 18.9236 7.46936 19.2509 9.00006 19.18C9.81053 19.1941 10.6206 19.1338 11.4201 19C12.5407 18.7994 13.6192 18.4106 14.6101 17.85C15.4281 17.354 16.1609 16.7293 16.7801 16C17.7035 14.9137 18.4249 13.6707 18.9101 12.33H19.1001C19.5089 12.3451 19.9167 12.2787 20.2996 12.1344C20.6825 11.9902 21.0328 11.7711 21.3301 11.49C21.5896 11.2481 21.7913 10.9507 21.9201 10.62L22.0001 10.4L21.8001 10.24C21.3156 9.92926 20.7443 9.78205 20.1701 9.82003Z" fill="black"/>
<path d="M5.60994 9.34999H3.84994C3.80918 9.34991 3.76993 9.36539 3.7402 9.39327C3.71046 9.42114 3.69249 9.45931 3.68994 9.49999V11.08C3.69249 11.1207 3.71046 11.1588 3.7402 11.1867C3.76993 11.2146 3.80918 11.2301 3.84994 11.23H5.60994C5.6507 11.2301 5.68995 11.2146 5.71968 11.1867C5.74942 11.1588 5.76739 11.1207 5.76994 11.08V9.49999C5.76739 9.45931 5.74942 9.42114 5.71968 9.39327C5.68995 9.36539 5.6507 9.34991 5.60994 9.34999ZM8.04994 9.34999H6.27994C6.23918 9.34991 6.19993 9.36539 6.1702 9.39327C6.14046 9.42114 6.12249 9.45931 6.11994 9.49999V11.08C6.12249 11.1207 6.14046 11.1588 6.1702 11.1867C6.19993 11.2146 6.23918 11.2301 6.27994 11.23H8.04994C8.08972 11.23 8.12788 11.2142 8.15601 11.1861C8.18414 11.1579 8.19994 11.1198 8.19994 11.08V9.49999C8.19994 9.46021 8.18414 9.42206 8.15601 9.39393C8.12788 9.3658 8.08972 9.34999 8.04994 9.34999ZM10.5199 9.34999H8.74994C8.71016 9.34999 8.67201 9.3658 8.64388 9.39393C8.61575 9.42206 8.59994 9.46021 8.59994 9.49999V11.08C8.59994 11.1198 8.61575 11.1579 8.64388 11.1861C8.67201 11.2142 8.71016 11.23 8.74994 11.23H10.5199C10.5597 11.23 10.5979 11.2142 10.626 11.1861C10.6541 11.1579 10.6699 11.1198 10.6699 11.08V9.49999C10.6699 9.46021 10.6541 9.42206 10.626 9.39393C10.5979 9.3658 10.5597 9.34999 10.5199 9.34999ZM11.1899 9.34999C11.1672 9.34369 11.1433 9.34283 11.1202 9.34749C11.0971 9.35215 11.0754 9.36219 11.0569 9.3768C11.0384 9.39141 11.0236 9.41018 11.0137 9.43159C11.0038 9.45299 10.9991 9.47643 10.9999 9.49999V11.08C10.9999 11.0997 11.0038 11.1192 11.0114 11.1374C11.0189 11.1556 11.0299 11.1721 11.0439 11.1861C11.0578 11.2 11.0743 11.211 11.0925 11.2186C11.1107 11.2261 11.1302 11.23 11.1499 11.23H12.9999C13.0397 11.23 13.0779 11.2142 13.106 11.1861C13.1341 11.1579 13.1499 11.1198 13.1499 11.08V9.49999C13.1499 9.46021 13.1341 9.42206 13.106 9.39393C13.0779 9.3658 13.0397 9.34999 12.9999 9.34999H11.1899ZM6.27994 7.08999H7.99994C8.04238 7.08999 8.08307 7.10685 8.11308 7.13686C8.14308 7.16686 8.15994 7.20756 8.15994 7.24999V8.80999C8.16441 8.83337 8.1636 8.85744 8.15759 8.88046C8.15157 8.90349 8.1405 8.92488 8.12517 8.94308C8.10984 8.96128 8.09065 8.97584 8.06898 8.98568C8.04732 8.99553 8.02373 9.00042 7.99994 8.99999H6.27994C6.24016 8.99999 6.20201 8.98419 6.17388 8.95606C6.14574 8.92793 6.12994 8.88978 6.12994 8.84999V7.23999C6.12994 7.22029 6.13382 7.20079 6.14136 7.18259C6.1489 7.16439 6.15995 7.14786 6.17388 7.13393C6.1878 7.12 6.20434 7.10895 6.22254 7.10141C6.24074 7.09387 6.26024 7.08999 6.27994 7.08999ZM8.74994 7.08999H10.5199C10.5396 7.08999 10.5591 7.09387 10.5773 7.10141C10.5955 7.10895 10.6121 7.12 10.626 7.13393C10.6399 7.14786 10.651 7.16439 10.6585 7.18259C10.6661 7.20079 10.6699 7.22029 10.6699 7.23999V8.80999C10.6699 8.85243 10.6531 8.89312 10.6231 8.92313C10.5931 8.95314 10.5524 8.96999 10.5099 8.96999H8.74994C8.71016 8.96999 8.67201 8.95419 8.64388 8.92606C8.61575 8.89793 8.59994 8.85977 8.59994 8.81999V7.23999C8.59994 7.22029 8.60382 7.20079 8.61136 7.18259C8.6189 7.16439 8.62995 7.14786 8.64388 7.13393C8.6578 7.12 8.67434 7.10895 8.69254 7.10141C8.71074 7.09387 8.73024 7.08999 8.74994 7.08999ZM11.1899 7.08999H12.9999C13.0196 7.08999 13.0391 7.09387 13.0573 7.10141C13.0755 7.10895 13.0921 7.12 13.106 7.13393C13.1199 7.14786 13.131 7.16439 13.1385 7.18259C13.1461 7.20079 13.1499 7.22029 13.1499 7.23999V8.80999C13.1562 8.83272 13.1571 8.8566 13.1524 8.87972C13.1478 8.90284 13.1377 8.92453 13.1231 8.94304C13.1085 8.96155 13.0898 8.97635 13.0683 8.98625C13.0469 8.99614 13.0235 9.00085 12.9999 8.99999H11.1899C11.1638 9.0056 11.1367 9.00457 11.1111 8.99701C11.0855 8.98944 11.0621 8.97558 11.0432 8.95669C11.0244 8.9378 11.0105 8.91447 11.0029 8.88885C10.9954 8.86323 10.9943 8.83612 10.9999 8.80999V7.23999C10.9991 7.21643 11.0038 7.19299 11.0137 7.17159C11.0236 7.15018 11.0384 7.13141 11.0569 7.1168C11.0754 7.10219 11.0971 7.09215 11.1202 7.08749C11.1433 7.08283 11.1672 7.08369 11.1899 7.08999Z" fill="black"/>
<path d="M12.96 4.82001H11.19C11.1072 4.82001 11.04 4.88716 11.04 4.97001V6.55001C11.04 6.63285 11.1072 6.70001 11.19 6.70001H12.96C13.0429 6.70001 13.11 6.63285 13.11 6.55001V4.97001C13.11 4.88716 13.0429 4.82001 12.96 4.82001Z" fill="black"/>
<path d="M13.65 9.34998C13.6102 9.34998 13.5721 9.36578 13.5439 9.39391C13.5158 9.42204 13.5 9.46019 13.5 9.49998V11.08C13.5 11.1198 13.5158 11.1579 13.5439 11.186C13.5721 11.2142 13.6102 11.23 13.65 11.23H15.42C15.4397 11.23 15.4592 11.2261 15.4774 11.2186C15.4956 11.211 15.5121 11.2 15.5261 11.186C15.54 11.1721 15.551 11.1556 15.5586 11.1374C15.5661 11.1192 15.57 11.0997 15.57 11.08V9.49998C15.57 9.48028 15.5661 9.46077 15.5586 9.44257C15.551 9.42437 15.54 9.40784 15.5261 9.39391C15.5121 9.37998 15.4956 9.36893 15.4774 9.36139C15.4592 9.35385 15.4397 9.34998 15.42 9.34998H13.65Z" fill="black"/>
</svg>
