<svg width="24" height="24" viewBox="0 0 24 24" fill="none" xmlns="http://www.w3.org/2000/svg">
<path d="M12.0051 21.992V18.115C16.1091 18.115 19.2931 14.047 17.7191 9.72697C17.4273 8.9362 16.9669 8.21838 16.37 7.62333C15.773 7.02827 15.0538 6.57022 14.2621 6.28097C9.94306 4.71797 5.87306 7.89097 5.87306 11.995H2.00806C2.00806 5.45397 8.33306 0.352974 15.1921 2.49597C18.1831 3.43597 20.5751 5.81697 21.5051 8.80897C23.6461 15.667 18.5451 21.992 12.0051 21.992Z" fill="black"/>
<path d="M12.0169 18.139H8.15194V14.273H12.0169V18.139ZM8.15194 21.098H5.19294V18.139H8.15194V21.098ZM5.19294 18.139H2.71094V15.656H5.19294V18.139Z" fill="black"/>
</svg>
