<svg width="24" height="24" viewBox="0 0 24 24" fill="none" xmlns="http://www.w3.org/2000/svg">
<path d="M20.6601 7C20.5308 6.76445 20.3409 6.56767 20.1101 6.43L12.7701 2.19C12.5323 2.06641 12.2682 2.00189 12.0001 2.00189C11.7321 2.00189 11.468 2.06641 11.2301 2.19L3.89012 6.43C3.66522 6.57445 3.47804 6.77048 3.34412 7.00179C3.2102 7.23311 3.13341 7.49304 3.12012 7.76V16.24C3.12737 16.508 3.20311 16.7696 3.34012 17C3.46946 17.2356 3.65933 17.4323 3.89012 17.57L11.2301 21.81C11.468 21.9336 11.7321 21.9981 12.0001 21.9981C12.2682 21.9981 12.5323 21.9336 12.7701 21.81L20.1101 17.57C20.3409 17.4323 20.5308 17.2356 20.6601 17C20.7971 16.7696 20.8729 16.508 20.8801 16.24V7.76C20.8729 7.49204 20.7971 7.2304 20.6601 7ZM12.0001 17.92C10.964 17.9154 9.94732 17.6389 9.05156 17.1182C8.1558 16.5976 7.41238 15.8509 6.89559 14.9529C6.3788 14.0549 6.10673 13.037 6.10658 12.0009C6.10644 10.9648 6.37821 9.94683 6.89475 9.04868C7.41128 8.15053 8.15449 7.40367 9.0501 6.88274C9.94571 6.36181 10.9624 6.08506 11.9984 6.08013C13.0345 6.0752 14.0537 6.34228 14.9543 6.85466C15.8548 7.36705 16.6051 8.10681 17.1301 9L16.0001 9.71L15.6401 9.91L14.6401 10.52C14.3208 9.92794 13.8118 9.46036 13.1949 9.19235C12.5779 8.92435 11.8888 8.87146 11.2381 9.0422C10.5875 9.21293 10.0131 9.59737 9.60725 10.1338C9.20137 10.6702 8.98755 11.3275 9.00012 12C8.99728 12.5204 9.13551 13.0319 9.40012 13.48C9.66752 13.9208 10.044 14.2853 10.4933 14.5383C10.9426 14.7912 11.4495 14.9241 11.9651 14.9241C12.4807 14.9241 12.9876 14.7912 13.4369 14.5383C13.8862 14.2853 14.2627 13.9208 14.5301 13.48L17.1301 15C16.6037 15.8916 15.8534 16.6301 14.9535 17.1423C14.0536 17.6545 13.0355 17.9226 12.0001 17.92ZM17.9201 12.33H17.2601V13H16.6101V12.34H16.0001V11.68H16.6601V11H17.3101V11.66H17.9701L17.9201 12.33ZM20.3901 12.33H19.7301V13H19.0701V12.34H18.4201V11.68H19.0701V11H19.7301V11.66H20.3901V12.33Z" fill="black"/>
</svg>
