<svg width="24" height="24" viewBox="0 0 24 24" fill="none" xmlns="http://www.w3.org/2000/svg">
<path d="M20.354 6.47901C19.5259 5.23384 18.4296 4.18979 17.1455 3.42342C15.8614 2.65704 14.4221 2.18777 12.933 2.05001C9.82501 1.75601 6.90201 2.82101 4.81001 5.01301C3.53301 6.35001 2.69901 7.83901 2.21001 9.66001C1.99301 10.465 1.96301 10.764 1.96601 12.056C1.96801 13.349 2.00001 13.655 2.22101 14.488C2.68915 16.2671 3.62828 17.887 4.93952 19.1773C6.25077 20.4676 7.88563 21.3806 9.67201 21.82C9.98701 21.898 10.374 21.98 10.531 22.002C11.227 22.099 12.912 22.058 13.662 21.927C16.75 21.389 19.494 19.396 20.902 16.669C22.546 13.488 22.328 9.44701 20.354 6.47901ZM19.944 14.167C19.136 17.157 16.681 19.439 13.583 20.079C8.75201 21.076 4.04501 17.421 3.74401 12.438C3.55001 9.22101 5.49901 5.99201 8.48901 4.57501C9.62201 4.03901 10.534 3.84201 11.914 3.83701C13.241 3.83301 13.978 3.96901 15.137 4.43301C17.461 5.36401 19.283 7.47301 19.953 10.006C20.234 11.066 20.229 13.109 19.944 14.167Z" fill="black"/>
<path d="M8.04191 14.955C7.12691 14.631 6.42591 13.68 6.30191 12.595C6.11891 10.988 6.72391 9.73903 7.95591 9.18003C8.62491 8.87703 9.83791 8.88403 10.5589 9.19603C10.9969 9.38603 11.8199 10.129 11.8199 10.335C11.8199 10.368 11.5359 10.536 11.1889 10.707L10.5569 11.019L10.2199 10.682C10.0329 10.494 9.74491 10.319 9.57091 10.286C9.13791 10.204 8.61891 10.397 8.38391 10.726C7.99491 11.272 7.96891 12.698 8.33591 13.259C8.52691 13.55 8.84791 13.753 9.14891 13.777C9.78391 13.827 9.94491 13.771 10.3209 13.376L10.6999 12.978L11.1879 13.247C11.4569 13.395 11.7149 13.552 11.7629 13.594C11.9269 13.742 11.1709 14.514 10.5639 14.818C10.0469 15.077 9.88491 15.111 9.20591 15.104C8.78091 15.098 8.25691 15.03 8.04191 14.955ZM13.8579 14.955C12.9569 14.635 12.2669 13.714 12.1189 12.63C11.9039 11.061 12.5379 9.74203 13.7729 9.18003C14.4899 8.85603 15.7069 8.88003 16.4339 9.23603C16.8839 9.45703 17.6349 10.147 17.6349 10.34C17.6349 10.374 17.3399 10.543 16.9809 10.717L16.3269 11.034L15.9859 10.664C15.6819 10.332 15.6009 10.295 15.1839 10.295C14.6079 10.295 14.2389 10.52 14.0389 10.993C13.8589 11.416 13.8379 12.454 13.9959 12.927C14.3199 13.888 15.5009 14.115 16.1709 13.346L16.4749 13L17.0549 13.294C17.3749 13.455 17.6369 13.613 17.6369 13.646C17.6369 13.865 16.8869 14.564 16.3809 14.816C15.8639 15.075 15.7019 15.109 15.0229 15.103C14.5979 15.098 14.0739 15.03 13.8579 14.955Z" fill="black"/>
</svg>
