<svg width="24" height="24" viewBox="0 0 24 24" fill="none" xmlns="http://www.w3.org/2000/svg">
<path d="M20.5529 18.15H3.44688C3.06469 18.1497 2.69822 17.9978 2.42788 17.7277C2.15754 17.4575 2.00541 17.0912 2.00488 16.709V7.29098C2.00488 6.49598 2.65188 5.84998 3.44688 5.84998H20.5519C21.3469 5.84998 21.9939 6.49598 21.9939 7.29098V16.709C21.9939 17.0912 21.8421 17.4577 21.5718 17.7279C21.3016 17.9982 20.9351 18.15 20.5529 18.15ZM6.81088 15.268V11.52L8.73288 13.922L10.6549 11.52V15.268H12.5769V8.73198H10.6549L8.73288 11.135L6.81088 8.73198H4.88888V15.267L6.81088 15.268ZM19.6879 12H17.7659V8.73198H15.8429V12H13.9209L16.8049 15.364L19.6879 12Z" fill="black"/>
</svg>
