<svg width="24" height="24" viewBox="0 0 24 24" fill="none" xmlns="http://www.w3.org/2000/svg">
<path d="M17.5489 5.55698L17.1459 7.66998C17.0969 7.89898 16.8089 8.13998 16.5409 8.13998H12.7809C12.3559 8.13998 12.0519 8.43598 12.0519 8.85398V9.31698C12.0519 9.74698 12.3589 10.042 12.7819 10.042H15.9759C16.2739 10.042 16.5669 10.372 16.4999 10.688L16.0959 12.771C16.0589 12.952 15.8589 13.246 15.5039 13.246H12.8949C12.4179 13.246 12.2779 13.315 11.9589 13.7C11.6429 14.095 8.78389 17.527 8.78389 17.527C8.75789 17.56 8.72989 17.549 8.72989 17.516V5.52198C8.72989 5.25098 8.96389 4.93398 9.31589 4.93398H17.0719C17.3549 4.93398 17.6209 5.20298 17.5489 5.55198V5.55698ZM17.8899 13.845C18.0009 13.408 19.2089 7.21498 19.6119 5.25198L17.8899 13.845ZM18.1229 2.94098H8.45689C7.12689 2.94098 6.73389 3.94298 6.73389 4.57598V19.929C6.73389 20.639 7.11489 20.904 7.32989 20.991C7.54389 21.078 8.13689 21.152 8.49289 20.744C8.49289 20.744 13.0559 15.448 13.1329 15.371C13.2579 15.253 13.2579 15.253 13.3709 15.253H16.3249C17.5699 15.253 17.7629 14.368 17.8989 13.848C18.0129 13.419 19.2239 7.22598 19.6199 5.25298C19.9269 3.75698 19.5409 2.94198 18.1249 2.94198L18.1229 2.94098Z" fill="black"/>
</svg>
