<svg width="24" height="24" viewBox="0 0 24 24" fill="none" xmlns="http://www.w3.org/2000/svg">
<path d="M18.75 11.35C18.4847 11.3476 18.2203 11.3209 17.96 11.27C17.7097 11.2174 17.4652 11.1404 17.23 11.04L17.06 11H16.94C16.84 11 16.79 11.07 16.79 11.21V11.54C16.7758 11.6025 16.7758 11.6674 16.79 11.73C16.8402 11.8122 16.9131 11.8782 17 11.92C17.2405 12.0403 17.4961 12.1278 17.76 12.18C18.0876 12.2583 18.4231 12.2986 18.76 12.3C19.0988 12.3102 19.4369 12.2628 19.76 12.16C20.0268 12.09 20.2757 11.9638 20.49 11.79C20.6925 11.6335 20.8595 11.4358 20.98 11.21C21.0946 10.9661 21.1527 10.6995 21.15 10.43C21.1536 10.0956 21.0483 9.7692 20.85 9.49999C20.5833 9.19702 20.2368 8.97523 19.85 8.85999L18.9 8.55999C18.6345 8.4913 18.3861 8.36876 18.17 8.19999C18.1066 8.13921 18.0562 8.06624 18.0219 7.98546C17.9875 7.90468 17.9698 7.81778 17.97 7.72999C17.9628 7.61133 17.9878 7.49295 18.0424 7.38734C18.097 7.28173 18.1791 7.19281 18.28 7.12999C18.5567 6.99576 18.8629 6.93383 19.17 6.94999C19.6075 6.93937 20.0418 7.02827 20.44 7.20999C20.5214 7.25149 20.6093 7.27856 20.7 7.28999C20.8 7.28999 20.85 7.20999 20.85 7.06999V6.70999C20.853 6.63224 20.832 6.55545 20.79 6.48999C20.7366 6.42192 20.6681 6.36716 20.59 6.32999C20.5008 6.28089 20.407 6.2407 20.31 6.20999C20.1855 6.16606 20.0586 6.12934 19.93 6.09999L19.49 5.99999C19.3268 5.98821 19.1631 5.98821 19 5.99999C18.7194 5.99515 18.4396 6.03223 18.17 6.10999C17.9175 6.18368 17.6804 6.30224 17.47 6.45999C17.2748 6.60244 17.1141 6.787 17 6.99999C16.8773 7.22706 16.8153 7.48195 16.82 7.73999C16.814 8.10101 16.9303 8.45344 17.15 8.73999C17.4245 9.07075 17.7949 9.3083 18.21 9.41999L19.21 9.71999C19.4574 9.7778 19.6872 9.89443 19.88 10.06C19.9997 10.1867 20.0644 10.3557 20.06 10.53C20.0621 10.6565 20.0309 10.7813 19.9695 10.8919C19.908 11.0025 19.8185 11.095 19.71 11.16C19.4131 11.3093 19.0813 11.375 18.75 11.35ZM12.94 6.49999C12.9245 6.40197 12.8791 6.31114 12.81 6.23999C12.7352 6.18483 12.6424 6.15984 12.55 6.16999H12C11.908 6.16489 11.8169 6.18942 11.74 6.23999C11.6671 6.30842 11.621 6.40061 11.61 6.49999L10.61 10.9L9.46997 6.49999C9.45178 6.40077 9.4028 6.30979 9.32997 6.23999C9.32997 6.23999 9.19997 6.16999 9.06997 6.16999H8.41997C8.30997 6.16999 8.25997 6.22999 8.25997 6.33999C8.26967 6.43197 8.2898 6.52256 8.31997 6.60999L9.87997 11.75C9.90024 11.8414 9.94131 11.927 9.99997 12C10.0786 12.0458 10.1692 12.0667 10.26 12.06H10.83C10.9239 12.0663 11.0176 12.0455 11.1 12C11.163 11.9221 11.2044 11.829 11.22 11.73L12.22 7.44999L13.22 11.74C13.2283 11.838 13.2707 11.9301 13.34 12C13.4187 12.055 13.5145 12.0798 13.61 12.07H14.18C14.2687 12.0744 14.3564 12.0498 14.43 12C14.5052 11.932 14.5546 11.8402 14.57 11.74L16.18 6.59999C16.1858 6.54682 16.1858 6.49316 16.18 6.43999C16.1839 6.40343 16.1839 6.36655 16.18 6.32999C16.1833 6.30689 16.1812 6.28332 16.1739 6.26116C16.1665 6.23901 16.1541 6.21887 16.1376 6.20237C16.1211 6.18586 16.101 6.17343 16.0788 6.16608C16.0566 6.15872 16.0331 6.15663 16.01 6.15999H15.39C15.2982 6.15624 15.2075 6.18067 15.13 6.22999C15.0684 6.30627 15.0241 6.39497 15 6.48999L14 11L12.94 6.49999ZM5.76997 8.62999C5.53452 8.5991 5.29742 8.5824 5.05997 8.57999C4.47144 8.54907 3.89186 8.73396 3.42997 9.09999C3.23327 9.26845 3.07716 9.47914 2.97326 9.71636C2.86937 9.95358 2.82039 10.2112 2.82997 10.47C2.81834 10.7057 2.8559 10.9412 2.94026 11.1616C3.02462 11.3819 3.15393 11.5823 3.31997 11.75C3.49842 11.9147 3.70803 12.042 3.93645 12.1244C4.16486 12.2069 4.40747 12.2428 4.64997 12.23C5.03166 12.241 5.41074 12.1636 5.75764 12.0041C6.10455 11.8445 6.40993 11.607 6.64997 11.31C6.70842 11.444 6.77522 11.5743 6.84997 11.7C6.92115 11.8099 7.00144 11.9136 7.08997 12.01C7.11415 12.0345 7.14296 12.0539 7.17472 12.0672C7.20647 12.0805 7.24055 12.0873 7.27497 12.0873C7.30939 12.0873 7.34346 12.0805 7.37522 12.0672C7.40698 12.0539 7.43578 12.0345 7.45997 12.01L7.87997 11.73C7.91503 11.7083 7.94486 11.6791 7.96733 11.6445C7.9898 11.61 8.00436 11.5708 8.00997 11.53C8.02613 11.4779 8.02613 11.4221 8.00997 11.37C7.92893 11.2185 7.85876 11.0614 7.79997 10.9C7.74639 10.7047 7.72279 10.5024 7.72997 10.3V8.18999C7.75386 7.89365 7.71744 7.59554 7.62291 7.31367C7.52838 7.03179 7.3777 6.77201 7.17997 6.54999C6.92583 6.3363 6.63044 6.1772 6.31217 6.08258C5.9939 5.98796 5.65957 5.95985 5.32997 5.99999C4.99241 5.99986 4.65627 6.04356 4.32997 6.12999C4.03942 6.19754 3.75757 6.29819 3.48997 6.42999C3.41938 6.46117 3.35757 6.50925 3.30997 6.56999C3.28553 6.64471 3.28553 6.72527 3.30997 6.79999V7.12999C3.30997 7.26999 3.30997 7.32999 3.44997 7.32999C3.48621 7.33784 3.52372 7.33784 3.55997 7.32999L3.78997 7.24999C3.9931 7.15029 4.20374 7.0667 4.41997 6.99999C4.65544 6.94097 4.89721 6.91075 5.13997 6.90999C5.52653 6.86949 5.91373 6.98063 6.21997 7.21999C6.45811 7.5191 6.56941 7.8997 6.52997 8.27999V8.76999L5.76997 8.62999ZM6.54997 9.52999V9.79999C6.55075 9.99548 6.52723 10.1903 6.47997 10.38C6.43776 10.5393 6.35901 10.6865 6.24997 10.81C6.08323 11.006 5.86502 11.1515 5.61997 11.23C5.40138 11.3069 5.17167 11.3474 4.93997 11.35C4.81312 11.3594 4.68568 11.343 4.56536 11.3018C4.44504 11.2605 4.33434 11.1953 4.23997 11.11C4.15238 11.0151 4.08574 10.9029 4.04439 10.7805C4.00304 10.6582 3.98791 10.5286 3.99997 10.4C3.9917 10.2563 4.01726 10.1127 4.07457 9.98074C4.13188 9.84874 4.21936 9.73204 4.32997 9.63999C4.62141 9.43569 4.9753 9.34014 5.32997 9.36999H5.94997C6.15274 9.41232 6.35304 9.46574 6.54997 9.52999ZM19.76 15C17.3694 16.0058 14.8035 16.5292 12.21 16.54C8.73851 16.5406 5.32666 15.6377 2.30997 13.92C2.06997 13.77 1.87997 14.02 2.08997 14.21C4.80527 16.6646 8.33965 18.0163 12 18C14.8865 18.0071 17.7086 17.1466 20.1 15.53C20.44 15.22 20.13 14.81 19.76 15Z" fill="black"/>
<path d="M18.38 14.06C18.19 14.2 18.22 14.39 18.43 14.36C19.14 14.27 20.71 14.09 20.99 14.45C21.27 14.81 20.68 16.28 20.41 16.94C20.33 17.14 20.51 17.22 20.69 17.07C21.1454 16.6508 21.4944 16.1293 21.7083 15.5485C21.9222 14.9677 21.9947 14.3444 21.92 13.73C21.3454 13.5037 20.7256 13.4157 20.1107 13.473C19.4958 13.5303 18.9029 13.7314 18.38 14.06Z" fill="black"/>
</svg>
