<svg width="24" height="24" viewBox="0 0 24 24" fill="none" xmlns="http://www.w3.org/2000/svg">
<path d="M19.58 11.375C19.588 11.258 19.598 11.144 19.598 11.025C19.598 7.78202 16.93 5.15402 13.639 5.15402C12.5185 5.15062 11.4197 5.46286 10.4683 6.05497C9.51704 6.64708 8.75171 7.49514 8.26 8.50202C7.78037 8.1324 7.19153 7.93261 6.586 7.93402C5.065 7.93402 3.834 9.14402 3.834 10.638C3.834 10.921 3.877 11.192 3.959 11.446C3.35848 11.7924 2.8595 12.2904 2.512 12.8903C2.16451 13.4901 1.98071 14.1708 1.979 14.864C1.979 17.037 3.752 18.802 5.954 18.836H17.852C17.926 18.836 18.002 18.848 18.079 18.848C20.257 18.848 22.022 17.109 22.022 14.955C22.0172 14.1845 21.7835 13.4329 21.3504 12.7956C20.9174 12.1583 20.3046 11.6642 19.59 11.376H19.58V11.375ZM7.355 15.842C6.96571 15.4984 6.70243 15.0345 6.607 14.524C6.57204 14.3448 6.55429 14.1626 6.554 13.98C6.554 13.24 6.824 12.633 7.363 12.153C7.9 11.673 8.584 11.431 9.412 11.431C10.266 11.431 11.066 11.751 11.775 12.388C11.951 12.546 12.127 12.726 12.289 12.924L13.201 13.995C13.359 14.212 13.525 14.394 13.701 14.555C14.172 14.977 14.678 15.187 15.109 15.187C15.474 15.187 15.779 15.075 16.021 14.851C16.23 14.661 16.357 14.401 16.384 14.121L16.392 13.998C16.3932 13.8801 16.3746 13.7628 16.337 13.651C16.2451 13.3988 16.076 13.182 15.8537 13.0315C15.6314 12.8811 15.3673 12.8046 15.099 12.813C14.646 12.813 14.197 12.966 13.703 13.444L12.896 12.494L12.808 12.386C13.521 11.695 14.222 11.436 15.175 11.436C16.013 11.436 16.7 11.673 17.212 12.148L17.226 12.162C17.765 12.636 18.027 13.251 18.027 14.004C18.0287 14.1812 18.0123 14.3581 17.978 14.532C17.8777 15.034 17.6182 15.4902 17.238 15.833C16.8407 16.1968 16.3431 16.4327 15.81 16.51C15.615 16.5355 15.4186 16.5482 15.222 16.548C14.359 16.548 13.546 16.235 12.857 15.61C12.6627 15.4328 12.4831 15.2402 12.32 15.034L11.406 13.969C11.2634 13.7649 11.0998 13.5762 10.918 13.406C10.455 12.981 9.941 12.78 9.49 12.78C9.361 12.78 9.23 12.798 9.101 12.831C8.90493 12.8813 8.72492 12.9808 8.578 13.12C8.346 13.336 8.213 13.64 8.213 13.959C8.213 14.283 8.326 14.559 8.565 14.784L8.579 14.797C8.829 15.024 9.142 15.135 9.505 15.135C9.968 15.135 10.419 14.973 10.905 14.496L11.706 15.434L11.794 15.533C11.069 16.236 10.366 16.498 9.452 16.498C8.614 16.498 7.927 16.26 7.401 15.785L7.355 15.842Z" fill="black"/>
</svg>
