<svg width="24" height="24" viewBox="0 0 24 24" fill="none" xmlns="http://www.w3.org/2000/svg">
<path d="M5.07697 9.45702C5.07697 8.67902 5.21297 7.94402 5.48097 7.25802C5.73702 6.59172 6.11745 5.98019 6.60197 5.45602C7.0855 4.93873 7.63884 4.49142 8.24597 4.12702C8.86888 3.75017 9.54327 3.46587 10.248 3.28302C10.9612 3.09574 11.6956 3.00129 12.433 3.00202C13.572 3.00202 14.632 3.24302 15.615 3.72302C16.5851 4.19427 17.4109 4.91746 18.006 5.81702C18.62 6.73202 18.925 7.76702 18.925 8.92102C18.925 9.61302 18.857 10.29 18.718 10.952C18.5815 11.6137 18.3645 12.2561 18.072 12.865C17.7931 13.4545 17.4285 13.9994 16.99 14.482C16.5492 14.957 16.0155 15.3362 15.422 15.596C14.7776 15.8784 14.0805 16.0206 13.377 16.013C12.888 16.013 12.4 15.898 11.918 15.667C11.436 15.437 11.09 15.121 10.882 14.716C10.809 14.997 10.709 15.403 10.576 15.934C10.448 16.464 10.362 16.806 10.324 16.961C10.284 17.115 10.21 17.372 10.102 17.728C10.0287 17.9914 9.93477 18.2485 9.82097 18.497L9.47697 19.171C9.3282 19.4602 9.16189 19.7401 8.97897 20.009C8.79797 20.271 8.57397 20.584 8.30697 20.944L8.15797 20.997L8.05897 20.889C7.95197 19.756 7.89697 19.078 7.89697 18.854C7.89697 18.191 7.97597 17.447 8.13197 16.621C8.28497 15.796 8.52697 14.759 8.85197 13.512C9.17697 12.266 9.36297 11.533 9.41297 11.316C9.18397 10.849 9.06797 10.239 9.06797 9.48902C9.06797 8.89002 9.25497 8.32902 9.62997 7.80102C10.006 7.27502 10.481 7.01202 11.057 7.01202C11.498 7.01202 11.84 7.15802 12.085 7.45102C12.331 7.74302 12.451 8.11102 12.451 8.56002C12.451 9.03602 12.293 9.72502 11.975 10.626C11.657 11.528 11.499 12.201 11.499 12.648C11.499 13.101 11.661 13.48 11.985 13.777C12.3047 14.0742 12.7276 14.2352 13.164 14.226C13.56 14.226 13.927 14.136 14.268 13.955C14.6036 13.7793 14.8942 13.5285 15.117 13.222C15.6022 12.5563 15.9481 11.7995 16.134 10.997C16.23 10.575 16.304 10.174 16.35 9.79702C16.399 9.41802 16.42 9.06002 16.42 8.72002C16.42 7.47302 16.024 6.50102 15.237 5.80502C14.446 5.10902 13.416 4.76302 12.149 4.76302C10.708 4.76302 9.50297 5.22902 8.53797 6.16402C7.57197 7.09602 7.08597 8.28102 7.08597 9.71802C7.08597 10.035 7.13397 10.341 7.22497 10.637C7.31397 10.932 7.41097 11.167 7.51597 11.341C7.61997 11.512 7.71797 11.679 7.80697 11.833C7.89697 11.987 7.94397 12.097 7.94397 12.163C7.94397 12.365 7.89097 12.628 7.78397 12.953C7.67297 13.278 7.54197 13.44 7.38397 13.44C7.36897 13.44 7.30697 13.429 7.19897 13.406C6.82493 13.2944 6.48714 13.0856 6.21997 12.801C5.93641 12.5061 5.71262 12.159 5.56097 11.779C5.40975 11.4004 5.29196 11.0092 5.20897 10.61C5.1193 10.2323 5.07499 9.84523 5.07697 9.45702Z" fill="black"/>
</svg>
