<svg width="24" height="24" viewBox="0 0 24 24" fill="none" xmlns="http://www.w3.org/2000/svg">
<path d="M18.824 16.675C18.719 17.401 17.237 19.284 16.555 19.557C16.323 19.65 16.098 19.627 15.918 19.489C15.802 19.399 15.683 19.217 14.085 16.623L13.61 15.85C13.427 15.573 13.462 15.208 13.688 14.93C13.911 14.66 14.237 14.56 14.52 14.668C14.536 14.676 15.715 15.065 15.715 15.065C18.403 15.948 18.49 15.982 18.606 16.067C18.776 16.206 18.855 16.423 18.82 16.675H18.824ZM13.438 12.729C13.248 12.44 13.251 12.099 13.448 11.864L14.194 10.845C15.836 8.61003 15.926 8.49202 16.037 8.41402C16.1334 8.35151 16.2449 8.31627 16.3597 8.31205C16.4745 8.30782 16.5883 8.33477 16.689 8.39003C17.34 8.70603 18.655 10.659 18.734 11.409V11.434C18.7482 11.5462 18.7315 11.66 18.6859 11.7634C18.6403 11.8668 18.5674 11.9559 18.475 12.021C18.352 12.1 18.24 12.146 15.184 12.887C14.701 13.01 14.432 13.077 14.274 13.134L14.295 13.111C13.993 13.202 13.655 13.056 13.464 12.754L13.438 12.729ZM11.563 11.57C11.417 11.616 10.972 11.755 10.424 10.868C10.424 10.868 6.73002 5.05502 6.64402 4.87602C6.59102 4.67502 6.65502 4.44703 6.83402 4.26303C7.38402 3.69403 10.368 2.85803 11.149 3.04803C11.404 3.11403 11.579 3.27502 11.64 3.50102C11.685 3.75102 12.048 9.14702 12.1 10.355C12.151 11.389 11.708 11.526 11.563 11.57ZM12.05 17.483C12.042 20.31 12.035 20.405 11.989 20.539C11.91 20.75 11.729 20.891 11.479 20.937C10.759 21.059 8.50702 20.227 8.03802 19.67C7.95251 19.5636 7.89817 19.4355 7.88102 19.3C7.86802 19.21 7.88102 19.12 7.91402 19.041C7.97102 18.895 8.04902 18.782 10.072 16.411L10.666 15.705C10.869 15.445 11.229 15.367 11.565 15.501C11.89 15.625 12.093 15.906 12.071 16.209V17.468L12.05 17.483ZM5.92002 15.675C5.69802 15.669 5.50002 15.535 5.38502 15.317C5.30202 15.155 5.24302 14.889 5.20502 14.565C5.10302 13.591 5.22802 12.121 5.51902 11.654C5.65702 11.44 5.85702 11.327 6.07802 11.335C6.22402 11.335 6.35402 11.381 9.24502 12.571L10.093 12.908C10.395 13.019 10.582 13.335 10.565 13.695C10.543 14.043 10.341 14.311 10.044 14.391L8.84202 14.773C6.15302 15.637 6.06402 15.661 5.92302 15.65L5.92002 15.675ZM17.14 20.997H17.136L17.133 21L17.14 20.997Z" fill="black"/>
</svg>
