<svg width="24" height="24" viewBox="0 0 24 24" fill="none" xmlns="http://www.w3.org/2000/svg">
<path d="M20.2881 10.051C21.2308 10.051 21.9951 9.28677 21.9951 8.34402C21.9951 7.40127 21.2308 6.63702 20.2881 6.63702C19.3453 6.63702 18.5811 7.40127 18.5811 8.34402C18.5811 9.28677 19.3453 10.051 20.2881 10.051Z" fill="black"/>
<path d="M18.581 11.513H21.994V15.169C21.994 16.111 21.229 16.875 20.287 16.875H18.581V11.513ZM2.00598 4.20001V19.8L13.219 21.779V2.22101L2.00598 4.20001ZM10.294 9.61101L8.34398 9.66001V15.412H6.88098V9.75701L4.93198 9.85501V8.53901L10.294 8.24701V9.61101ZM14.193 10.05V18.338H16.143C16.951 18.338 17.606 17.683 17.606 16.876V10.05H14.193ZM15.656 5.17501C15.07 5.17501 14.551 5.43901 14.193 5.84801V8.40301C14.55 8.81201 15.07 9.07601 15.656 9.07601C16.1733 9.07601 16.6694 8.87051 17.0352 8.50472C17.401 8.13893 17.6065 7.64281 17.6065 7.12551C17.6065 6.6082 17.401 6.11209 17.0352 5.7463C16.6694 5.38051 16.1733 5.17501 15.656 5.17501Z" fill="black"/>
</svg>
