<svg width="24" height="24" viewBox="0 0 24 24" fill="none" xmlns="http://www.w3.org/2000/svg">
<path d="M12.642 8.08401C12.278 8.27301 11.852 8.50401 11.4 8.50401C10.948 8.50401 10.59 8.29501 10.334 8.09101C10.204 7.99001 10.1 7.88901 10.021 7.81501C9.884 7.70701 9.901 7.55601 9.957 7.56101C10.051 7.57301 10.065 7.69701 10.125 7.75201C10.205 7.82701 10.305 7.92401 10.427 8.02101C10.67 8.21301 10.994 8.40101 11.4 8.40101C11.806 8.40101 12.278 8.16301 12.567 8.00101C12.73 7.90901 12.938 7.74501 13.108 7.62001C13.238 7.52501 13.233 7.41001 13.34 7.42201C13.447 7.43501 13.368 7.54901 13.218 7.68001C13.0405 7.83421 12.8474 7.9696 12.642 8.08401Z" fill="black"/>
<path d="M19.649 17.77C19.507 17.61 19.44 17.314 19.368 16.999C19.296 16.684 19.215 16.345 18.957 16.125L18.955 16.124C18.8615 16.0418 18.7542 15.9768 18.638 15.932C18.997 14.867 18.857 13.806 18.493 12.848C18.049 11.671 17.271 10.646 16.678 9.94502C16.014 9.10702 15.365 8.31202 15.377 7.13702C15.398 5.34402 15.574 2.01902 12.419 2.01502C12.2852 2.01492 12.1514 2.02059 12.018 2.03202C8.49203 2.31502 9.42803 6.04002 9.37503 7.28702C9.31103 8.19902 9.12603 8.91802 8.49803 9.81002C7.76203 10.686 6.72403 12.105 6.23203 13.581C6.00003 14.278 5.89003 14.988 5.99103 15.661C5.95971 15.6897 5.92936 15.7193 5.90003 15.75C5.68403 15.981 5.52403 16.261 5.34503 16.449C5.17903 16.616 4.94203 16.678 4.68103 16.772C4.42003 16.866 4.13403 17.003 3.96003 17.337L3.95903 17.339C3.88296 17.4887 3.84582 17.6552 3.85103 17.823C3.85103 17.977 3.87403 18.134 3.89703 18.284C3.94503 18.597 3.99403 18.893 3.92903 19.094C3.72303 19.658 3.69703 20.048 3.84203 20.331C3.98803 20.615 4.28603 20.74 4.62503 20.81C5.30103 20.951 6.21703 20.916 6.93903 21.299L7.00103 21.182L6.94003 21.3C7.71303 21.704 8.49703 21.847 9.12203 21.705C9.57603 21.601 9.94303 21.331 10.133 20.916C10.622 20.914 11.158 20.707 12.018 20.66C12.601 20.613 13.33 20.867 14.167 20.82C14.1888 20.9118 14.222 21.0005 14.266 21.084C14.59 21.733 15.194 22.03 15.837 21.98C16.48 21.93 17.166 21.55 17.72 20.891L17.618 20.806L17.72 20.89C18.247 20.25 19.123 19.985 19.704 19.635C19.994 19.46 20.229 19.24 20.248 18.922C20.266 18.604 20.079 18.247 19.649 17.77ZM11.859 6.06202C11.856 5.82802 11.895 5.62702 11.985 5.42302C12.075 5.21902 12.186 5.07202 12.343 4.95302C12.5 4.83402 12.655 4.77902 12.837 4.77702H12.846C13.025 4.77702 13.178 4.83002 13.335 4.94402C13.494 5.06002 13.609 5.20502 13.701 5.40702C13.7943 5.60605 13.8424 5.82322 13.842 6.04302C13.844 6.27802 13.804 6.47802 13.715 6.68202C13.6695 6.78973 13.6089 6.89041 13.535 6.98102L13.461 6.94802C13.372 6.91002 13.294 6.87902 13.224 6.85202C13.154 6.82502 13.1 6.80802 13.043 6.78802C13.084 6.73902 13.165 6.68002 13.194 6.60702C13.2397 6.49694 13.2642 6.37919 13.266 6.26002L13.268 6.24402C13.2717 6.12959 13.2548 6.01543 13.218 5.90702C13.18 5.79402 13.132 5.71202 13.063 5.64402C12.994 5.57602 12.924 5.54502 12.84 5.54302H12.829C12.7485 5.54373 12.6712 5.57438 12.612 5.62902C12.5341 5.69653 12.4743 5.78247 12.438 5.87902C12.3922 5.98941 12.3678 6.1075 12.366 6.22702L12.365 6.24202C12.3629 6.30898 12.3676 6.37599 12.379 6.44202C12.2167 6.36677 12.0467 6.30944 11.872 6.27102C11.8638 6.208 11.8591 6.14456 11.858 6.08102V6.06202H11.859ZM9.71503 6.11402C9.70303 5.91202 9.72403 5.73802 9.77903 5.55802C9.83403 5.37802 9.90903 5.24702 10.017 5.14002C10.1071 5.04082 10.2323 4.98057 10.366 4.97202H10.396C10.514 4.97202 10.621 5.01202 10.731 5.09902C10.857 5.20268 10.9546 5.33649 11.015 5.48802C11.091 5.65902 11.131 5.83102 11.142 6.03302V6.03502C11.1479 6.11594 11.1472 6.1972 11.14 6.27802C11.117 6.28402 11.094 6.29202 11.072 6.29902C10.944 6.34302 10.842 6.39202 10.744 6.45702C10.7541 6.3861 10.7551 6.31419 10.747 6.24302V6.23102C10.7381 6.13681 10.7152 6.04445 10.679 5.95702C10.6498 5.87936 10.6025 5.80978 10.541 5.75402C10.489 5.71002 10.441 5.68902 10.388 5.69002L10.371 5.69102C10.31 5.69602 10.261 5.72502 10.214 5.78302C10.1636 5.84856 10.129 5.92489 10.113 6.00602C10.0909 6.10202 10.0845 6.20096 10.094 6.29902L10.095 6.31102C10.105 6.41402 10.126 6.50002 10.162 6.58602C10.1963 6.67421 10.2536 6.75157 10.328 6.81002C10.269 6.85502 10.23 6.88802 10.182 6.92302L10.072 7.00402C9.97269 6.90722 9.89469 6.79073 9.84303 6.66202C9.76704 6.48947 9.72365 6.30435 9.71503 6.11602V6.11402ZM9.87003 7.34202C10.057 7.20202 10.185 7.10802 10.272 7.04402C10.358 6.98102 10.393 6.95802 10.42 6.93202C10.56 6.80002 10.783 6.55802 11.12 6.44202C11.235 6.40202 11.365 6.37702 11.51 6.37602C11.785 6.37502 12.118 6.46502 12.52 6.72402C12.767 6.88402 12.959 6.89802 13.402 7.08702C13.615 7.17402 13.741 7.28902 13.802 7.40802C13.863 7.52802 13.865 7.65802 13.814 7.79502C13.711 8.06802 13.385 8.35702 12.927 8.50002H12.926C12.702 8.57202 12.508 8.73302 12.279 8.86402C12.0272 9.02084 11.7333 9.09658 11.437 9.08102C11.3085 9.07534 11.1819 9.04725 11.063 8.99802C10.966 8.95453 10.8752 8.89838 10.793 8.83102C10.632 8.70002 10.49 8.53602 10.283 8.41502H10.281C9.94803 8.22502 9.76603 8.00702 9.70803 7.81702C9.65103 7.62802 9.70503 7.46602 9.87003 7.34202ZM10.001 20.36C9.95403 20.983 9.60303 21.322 9.06303 21.446C8.52403 21.569 7.79303 21.446 7.06403 21.065C6.25603 20.638 5.29503 20.68 4.67903 20.551C4.37103 20.487 4.17003 20.39 4.07703 20.21C3.98503 20.03 3.98303 19.716 4.17903 19.182L4.18003 19.18L4.18103 19.178C4.27803 18.879 4.20603 18.552 4.16003 18.244C4.11303 17.937 4.09003 17.658 4.19403 17.463L4.19503 17.461C4.33003 17.202 4.52703 17.109 4.77103 17.022C5.01603 16.934 5.30503 16.865 5.53503 16.636L5.53603 16.635L5.53703 16.634C5.74903 16.411 5.90803 16.131 6.09403 15.932C6.25103 15.765 6.40803 15.653 6.64503 15.652H6.65403C6.69503 15.652 6.73903 15.655 6.78603 15.663C7.10003 15.71 7.37403 15.931 7.63903 16.288L8.40103 17.677H8.40203C8.60403 18.1 9.03303 18.567 9.39603 19.042C9.75803 19.517 10.04 19.994 10.003 20.359L10.001 20.36ZM9.93803 19.35C9.83377 19.189 9.72267 19.0325 9.60503 18.881C9.53005 18.7823 9.45371 18.6846 9.37603 18.588C9.52703 18.588 9.65603 18.564 9.76003 18.516C9.82057 18.4907 9.87535 18.4533 9.92107 18.4062C9.96678 18.3591 10.0025 18.3033 10.026 18.242C10.116 18 10.026 17.659 9.73803 17.269C9.44803 16.879 8.96003 16.439 8.24403 16C7.71703 15.672 7.42303 15.271 7.28503 14.835C7.14703 14.399 7.16603 13.928 7.27203 13.462C7.47603 12.568 8.00103 11.7 8.33503 11.154C8.42503 11.088 8.36703 11.277 7.99603 11.965C7.66403 12.594 7.04303 14.046 7.89303 15.179C7.92348 14.3534 8.10586 13.5405 8.43103 12.781C8.90303 11.714 9.88703 9.86202 9.96503 8.38602C10.006 8.41502 10.145 8.50902 10.206 8.54402C10.388 8.65002 10.522 8.80602 10.698 8.94702C10.875 9.08902 11.094 9.21102 11.427 9.23002L11.52 9.23302C11.863 9.23302 12.13 9.12102 12.353 8.99402C12.595 8.85602 12.789 8.70202 12.971 8.64302H12.972C13.359 8.52102 13.666 8.30802 13.841 8.05802C14.143 9.24402 14.842 10.955 15.291 11.791C15.53 12.234 16.006 13.176 16.211 14.311C16.341 14.307 16.484 14.326 16.638 14.365C17.175 12.972 16.183 11.473 15.729 11.055C15.545 10.877 15.537 10.797 15.627 10.801C16.119 11.237 16.766 12.112 17.001 13.101C17.108 13.552 17.131 14.026 17.017 14.494C17.073 14.517 17.13 14.542 17.188 14.57C18.05 14.99 18.369 15.355 18.215 15.853C18.165 15.851 18.115 15.852 18.067 15.853H18.053C18.178 15.458 17.902 15.166 17.164 14.833C16.4 14.497 15.791 14.53 15.688 15.212C15.6808 15.2481 15.6752 15.2845 15.671 15.321C15.614 15.341 15.557 15.366 15.499 15.397C15.141 15.594 14.944 15.95 14.835 16.387C14.727 16.824 14.695 17.351 14.665 17.945C14.646 18.243 14.524 18.647 14.399 19.074C13.15 19.971 11.413 20.357 9.93803 19.35ZM19.566 19.407C19.042 19.724 18.11 20 17.516 20.72C16.999 21.335 16.37 21.672 15.816 21.716C15.261 21.76 14.783 21.53 14.501 20.964V20.963L14.5 20.96C14.325 20.627 14.398 20.102 14.545 19.548C14.692 18.994 14.904 18.425 14.933 17.963C14.963 17.371 14.996 16.852 15.096 16.453C15.196 16.054 15.352 15.784 15.629 15.632L15.668 15.612C15.699 16.125 15.953 16.648 16.402 16.761C16.893 16.89 17.601 16.469 17.9 16.125C17.96 16.123 18.018 16.119 18.075 16.118C18.337 16.112 18.556 16.127 18.782 16.323L18.783 16.324C18.956 16.47 19.038 16.747 19.109 17.057C19.18 17.367 19.237 17.704 19.451 17.945C19.861 18.401 19.994 18.709 19.983 18.905C19.972 19.103 19.83 19.249 19.566 19.407Z" fill="black"/>
<path d="M11.7381 6.762C11.7531 6.81 11.8311 6.802 11.8761 6.825C11.9161 6.845 11.9471 6.89 11.9921 6.891C12.0341 6.892 12.0991 6.876 12.1051 6.834C12.1131 6.778 12.0321 6.743 11.9791 6.723C11.9121 6.697 11.8261 6.684 11.7631 6.719C11.7491 6.727 11.7331 6.746 11.7381 6.762ZM11.2781 6.762C11.2621 6.81 11.1841 6.802 11.1391 6.825C11.1001 6.845 11.0681 6.89 11.0241 6.891C10.9821 6.892 10.9161 6.876 10.9101 6.834C10.9031 6.778 10.9841 6.743 11.0361 6.723C11.1031 6.697 11.1891 6.684 11.2531 6.719C11.2681 6.727 11.2831 6.746 11.2781 6.762Z" fill="black"/>
</svg>
