<svg width="24" height="24" viewBox="0 0 24 24" fill="none" xmlns="http://www.w3.org/2000/svg">
<path d="M19.93 10.61C19.6656 10.3443 19.3489 10.1366 19 10C18.6502 9.86185 18.2758 9.79718 17.9 9.81C17.112 9.79562 16.3453 10.0654 15.74 10.57V10.52C15.7409 9.91454 15.5921 9.31825 15.3067 8.78427C15.0213 8.2503 14.6082 7.79522 14.1043 7.4596C13.6004 7.12398 13.0213 6.91825 12.4186 6.86074C11.8158 6.80323 11.2083 6.89573 10.65 7.13C9.89817 7.43519 9.27112 7.98474 8.86996 8.69C8.55599 8.1359 8.10324 7.67305 7.55621 7.34693C7.00917 7.02082 6.38669 6.84267 5.74996 6.83C5.1158 6.81997 4.4895 6.97138 3.92996 7.27C3.3699 7.57047 2.89774 8.01161 2.55996 8.55C2.22548 9.08996 2.03285 9.70568 1.99996 10.34C1.95595 11.2988 2.28933 12.2367 2.92863 12.9527C3.56794 13.6686 4.46228 14.1056 5.41996 14.17L3.81996 16.93H6.20996L8.85996 12.34C9.15664 12.8663 9.58 13.3102 10.0916 13.6315C10.6033 13.9528 11.187 14.1414 11.79 14.18L10.2 16.94H12.6L14.46 13.71C14.4645 14.3838 14.6619 15.0423 15.0287 15.6076C15.3955 16.1728 15.9164 16.6213 16.53 16.9C17.3614 17.2506 18.2957 17.2685 19.14 16.95C19.4925 16.7752 19.8003 16.5221 20.04 16.21V16.94H22.04V7.06H19.93V10.61ZM7.14996 11.33C7.00005 11.5836 6.78645 11.7936 6.53035 11.9392C6.27425 12.0848 5.98455 12.1609 5.68996 12.16C5.39429 12.1817 5.09804 12.1266 4.82996 12C4.57403 11.8493 4.36066 11.6359 4.20996 11.38C4.067 11.1126 3.99472 10.8131 3.99996 10.51C3.99993 10.0652 4.17523 9.63837 4.48785 9.322C4.80048 9.00563 5.22522 8.82526 5.66996 8.82C5.96564 8.81906 6.256 8.89856 6.50996 9.05C6.76962 9.19132 6.98443 9.40266 7.12996 9.66C7.28011 9.91084 7.35959 10.1976 7.35996 10.49C7.36273 10.7833 7.29044 11.0725 7.14996 11.33ZM13.53 11.33C13.3844 11.5873 13.1696 11.7987 12.91 11.94C12.6571 12.0929 12.3653 12.1693 12.07 12.16C11.7761 12.1571 11.4875 12.0815 11.23 11.94C10.9748 11.7916 10.7642 11.5775 10.62 11.32C10.4696 11.0638 10.3904 10.7721 10.3904 10.475C10.3904 10.1779 10.4696 9.88623 10.62 9.63C10.7713 9.37718 10.9847 9.16721 11.24 9.02C11.4939 8.86856 11.7843 8.78906 12.08 8.79C12.3752 8.79196 12.6649 8.87126 12.92 9.02C13.3024 9.24205 13.5826 9.60515 13.7003 10.0314C13.8181 10.4577 13.7641 10.9131 13.55 11.3L13.53 11.33ZM19.83 14.33C19.6453 14.6802 19.3456 14.956 18.9812 15.1109C18.6168 15.2657 18.2102 15.2901 17.83 15.18C17.4223 15.0768 17.0665 14.8277 16.83 14.48C16.6024 14.1421 16.4998 13.7354 16.54 13.33C16.5819 12.9253 16.762 12.5474 17.05 12.26C17.358 11.9529 17.7693 11.7715 18.2037 11.7512C18.6382 11.7309 19.0646 11.873 19.4 12.15C19.7162 12.405 19.9326 12.7632 20.0112 13.1618C20.0898 13.5604 20.0257 13.974 19.83 14.33Z" fill="black"/>
</svg>
