<svg width="24" height="24" viewBox="0 0 24 24" fill="none" xmlns="http://www.w3.org/2000/svg">
<path d="M13.5509 11.485C13.2448 11.4849 12.9417 11.5451 12.6589 11.6623C12.3762 11.7795 12.1193 11.9513 11.9031 12.168C11.6868 12.3846 11.5154 12.6417 11.3987 12.9247C11.282 13.2077 11.2222 13.5109 11.2229 13.817C11.2229 15.131 12.2359 16.13 13.6639 16.13L13.6519 16.132C14.8439 16.132 15.8449 15.149 15.8449 13.852C15.8459 12.503 14.8439 11.485 13.5509 11.485Z" fill="black"/>
<path d="M3 3V21H21V3H3ZM18.52 18.605H15.838V17.547C15.013 18.357 14.171 18.65 13.052 18.65C11.91 18.65 10.928 18.279 10.105 17.536C9.019 16.58 8.457 15.309 8.457 13.835C8.457 12.484 8.981 11.274 9.964 10.329C10.842 9.47 11.91 9.031 13.103 9.031C14.243 9.031 15.121 9.416 15.75 10.223V6.118L18.52 5.544V5.542L18.522 5.545L18.52 5.544V18.605Z" fill="black"/>
</svg>
