<svg width="24" height="24" viewBox="0 0 24 24" fill="none" xmlns="http://www.w3.org/2000/svg">
<path d="M21.2899 4.10002L17.1699 2.10002C17.0173 2.03788 16.8547 2.004 16.6899 2.00002H16.61C16.3501 1.99855 16.097 2.08291 15.8899 2.24002L15.7499 2.36002L7.86995 9.55002L4.43995 7.00002C4.28543 6.88182 4.09431 6.82165 3.89995 6.83002C3.70954 6.82785 3.52357 6.8875 3.36995 7.00002L2.26995 8.00002C2.1837 8.07628 2.11493 8.17026 2.06833 8.27553C2.02174 8.38081 1.99841 8.4949 1.99995 8.61002C1.99954 8.72643 2.02332 8.84166 2.0698 8.94839C2.11628 9.05512 2.18444 9.15102 2.26995 9.23002L5.26995 11.94L2.26995 14.66C2.18545 14.7386 2.11806 14.8338 2.07198 14.9396C2.0259 15.0454 2.00212 15.1596 2.00212 15.275C2.00212 15.3904 2.0259 15.5046 2.07198 15.6104C2.11806 15.7162 2.18545 15.8114 2.26995 15.89L3.36995 16.89C3.53582 17.0351 3.74961 17.1135 3.96995 17.11C4.13919 17.0973 4.30173 17.0385 4.43995 16.94L7.86995 14.33L15.7499 21.52C15.9516 21.7278 16.2215 21.8556 16.5099 21.88H16.6799C16.8509 21.8826 17.0196 21.8412 17.1699 21.76L21.2899 19.76C21.4984 19.6602 21.6751 19.5046 21.8005 19.3104C21.9258 19.1162 21.9949 18.8911 21.9999 18.66V5.23002C21.9993 4.99408 21.9324 4.76308 21.8068 4.5633C21.6813 4.36353 21.5022 4.20301 21.2899 4.10002ZM16.9999 16.47L10.9999 11.94L16.9999 7.41002V16.47Z" fill="black"/>
</svg>
