<svg width="24" height="24" viewBox="0 0 24 24" fill="none" xmlns="http://www.w3.org/2000/svg">
<path d="M13.337 9.00002H10.499V12H13.337C13.5386 12.0074 13.7396 11.974 13.928 11.902C14.1164 11.8299 14.2884 11.7206 14.4336 11.5806C14.5788 11.4406 14.6944 11.2727 14.7732 11.0871C14.8521 10.9014 14.8928 10.7017 14.8928 10.5C14.8928 10.2983 14.8521 10.0986 14.7732 9.91298C14.6944 9.72733 14.5788 9.55948 14.4336 9.41946C14.2884 9.27945 14.1164 9.17014 13.928 9.09808C13.7396 9.02601 13.5386 8.99266 13.337 9.00002Z" fill="black"/>
<path d="M12 2C6.477 2 2 6.477 2 12C2 17.523 6.477 22 12 22C17.523 22 22 17.523 22 12C22 6.477 17.523 2 12 2ZM13.337 14H10.499V17H8.501V7H13.338C13.7975 6.99987 14.2526 7.09028 14.6772 7.26608C15.1017 7.44187 15.4875 7.6996 15.8125 8.02454C16.1374 8.34948 16.3951 8.73526 16.5709 9.15983C16.7467 9.58441 16.8371 10.0395 16.837 10.499C16.8373 10.9587 16.7469 11.414 16.5711 11.8389C16.3953 12.2637 16.1376 12.6497 15.8125 12.9748C15.4875 13.3 15.1015 13.5578 14.6768 13.7338C14.252 13.9097 13.7967 14.0001 13.337 14Z" fill="black"/>
</svg>
