<svg width="24" height="24" viewBox="0 0 24 24" fill="none" xmlns="http://www.w3.org/2000/svg">
<path d="M15.3321 8.668C16.1984 8.64201 17.0204 8.27961 17.624 7.65767C18.2275 7.03573 18.5651 6.20316 18.5651 5.3365C18.5651 4.46985 18.2275 3.63728 17.624 3.01534C17.0204 2.3934 16.1984 2.031 15.3321 2.005H8.66809C7.80183 2.031 6.97976 2.3934 6.3762 3.01534C5.77265 3.63728 5.43508 4.46985 5.43508 5.3365C5.43508 6.20316 5.77265 7.03573 6.3762 7.65767C6.97976 8.27961 7.80183 8.64201 8.66809 8.668C7.79426 8.68314 6.96133 9.0409 6.34871 9.66422C5.7361 10.2875 5.39282 11.1265 5.39282 12.0005C5.39282 12.8745 5.7361 13.7135 6.34871 14.3368C6.96133 14.9601 7.79426 15.3179 8.66809 15.333C7.79852 15.3543 6.97174 15.7147 6.36426 16.3373C5.75677 16.9598 5.41673 17.7952 5.41673 18.665C5.41673 19.5348 5.75677 20.3702 6.36426 20.9927C6.97174 21.6153 7.79852 21.9757 8.66809 21.997C9.5518 21.9965 10.3992 21.6451 11.0239 21.0201C11.6487 20.3952 11.9998 19.5477 12.0001 18.664V8.668H15.3321Z" fill="black"/>
<path d="M15.332 15.332C17.1722 15.332 18.664 13.8402 18.664 12C18.664 10.1598 17.1722 8.66803 15.332 8.66803C13.4918 8.66803 12 10.1598 12 12C12 13.8402 13.4918 15.332 15.332 15.332Z" fill="black"/>
</svg>
