<svg width="24" height="24" viewBox="0 0 24 24" fill="none" xmlns="http://www.w3.org/2000/svg">
<path d="M15.6611 15.549C15.9995 15.516 16.3119 15.3532 16.5328 15.0947C16.7538 14.8363 16.8661 14.5024 16.8461 14.163C16.8305 13.8144 16.6818 13.4851 16.4306 13.2429C16.1795 13.0006 15.845 12.864 15.4961 12.861H15.4481C15.0902 12.8738 14.7519 13.028 14.5076 13.29C14.2633 13.5519 14.1329 13.9 14.1451 14.258C14.1691 14.637 14.3241 14.945 14.5361 15.169C13.7091 16.778 12.4661 17.963 10.5821 18.957C9.31609 19.62 7.97809 19.869 6.67709 19.691C5.58809 19.538 4.73709 19.051 4.21409 18.27C3.43409 17.085 3.36209 15.808 4.01309 14.53C4.41013 13.7675 4.97746 13.1068 5.67109 12.599C5.52836 12.2025 5.41767 11.7952 5.34009 11.381C1.83409 13.891 2.19209 17.323 3.25609 18.945C4.05009 20.129 5.67109 20.886 7.44609 20.886C7.92009 20.886 8.41809 20.851 8.90309 20.732C11.9801 20.14 14.3121 18.294 15.6501 15.572L15.6611 15.549Z" fill="black"/>
<path d="M19.887 12.589C18.053 10.435 15.354 9.25202 12.276 9.25202H11.873C11.673 8.81402 11.212 8.54102 10.69 8.54102H10.654C9.91001 8.54102 9.32901 9.18101 9.35301 9.92601C9.37601 10.636 9.98001 11.228 10.703 11.228H10.762C11.0179 11.2183 11.2656 11.1351 11.4754 10.9882C11.6853 10.8414 11.8483 10.6371 11.945 10.4H12.384C14.208 10.4 15.935 10.932 17.51 11.974C18.716 12.766 19.582 13.808 20.067 15.051C20.492 16.07 20.469 17.064 20.032 17.894C19.357 19.196 18.22 19.882 16.718 19.882C15.771 19.882 14.847 19.586 14.373 19.373C14.09 19.608 13.615 19.999 13.271 20.236C14.313 20.709 15.367 20.982 16.384 20.982C18.693 20.982 20.407 19.68 21.06 18.425C21.769 17.003 21.711 14.612 19.899 12.566L19.887 12.589Z" fill="black"/>
<path d="M7.64693 15.975C7.66993 16.685 8.27293 17.277 8.99693 17.277H9.04493C9.22283 17.2729 9.39812 17.2333 9.56048 17.1605C9.72284 17.0876 9.86898 16.983 9.99031 16.8529C10.1116 16.7227 10.2057 16.5696 10.2669 16.4025C10.3282 16.2354 10.3554 16.0577 10.3469 15.88C10.3469 15.17 9.73093 14.579 9.00893 14.579H8.96093C8.91293 14.579 8.84293 14.579 8.78293 14.601C7.80093 12.944 7.38593 11.167 7.54093 9.252C7.63493 7.807 8.10793 6.552 8.96093 5.51C9.67093 4.622 11.0089 4.184 11.9209 4.16C14.4769 4.112 15.5429 7.298 15.6249 8.564L16.8089 8.918C16.5359 5.036 14.1219 3 11.8129 3C9.64693 3 7.64693 4.574 6.84193 6.884C5.73993 9.961 6.46293 12.92 7.81293 15.288C7.69493 15.442 7.62393 15.714 7.64693 15.975Z" fill="black"/>
</svg>
