<svg width="24" height="24" viewBox="0 0 24 24" fill="none" xmlns="http://www.w3.org/2000/svg">
<path d="M9.58492 11.692H13.9129C13.9129 11.692 16.3449 11.731 16.3449 9.342V5.391C16.3449 5.391 16.7139 3 11.9359 3C7.36192 3 7.64692 4.983 7.64692 4.983L7.65292 7.038H12.0159V7.655H5.91992C5.91992 7.655 2.99292 7.323 2.99292 11.937C2.99292 16.551 5.54792 16.387 5.54792 16.387H7.07192V14.246C7.07192 14.246 6.98892 11.692 9.58492 11.692ZM9.52892 5.952C9.32073 5.952 9.12106 5.86929 8.97384 5.72208C8.82662 5.57486 8.74392 5.37519 8.74392 5.167C8.74392 4.9588 8.82662 4.75914 8.97384 4.61192C9.12106 4.46471 9.32073 4.382 9.52892 4.382C9.73711 4.382 9.93678 4.46471 10.084 4.61192C10.2312 4.75914 10.3139 4.9588 10.3139 5.167C10.3139 5.37519 10.2312 5.57486 10.084 5.72208C9.93678 5.86929 9.73711 5.952 9.52892 5.952Z" fill="black"/>
<path d="M18.452 7.53202H16.928V9.67302C16.928 9.67302 17.011 12.227 14.415 12.227H10.087C10.087 12.227 7.65504 12.187 7.65504 14.577V18.528C7.65504 18.528 7.28604 20.919 12.064 20.919C16.637 20.919 16.352 18.936 16.352 18.936L16.346 16.882H11.983V16.265H18.08C18.08 16.265 21.007 16.597 21.007 11.983C21.007 7.36902 18.452 7.53202 18.452 7.53202ZM14.471 17.968C14.6792 17.968 14.8789 18.0507 15.0261 18.1979C15.1733 18.3452 15.256 18.5448 15.256 18.753C15.256 18.9612 15.1733 19.1609 15.0261 19.3081C14.8789 19.4553 14.6792 19.538 14.471 19.538C14.2628 19.538 14.0632 19.4553 13.916 19.3081C13.7687 19.1609 13.686 18.9612 13.686 18.753C13.686 18.5448 13.7687 18.3452 13.916 18.1979C14.0632 18.0507 14.2628 17.968 14.471 17.968Z" fill="black"/>
</svg>
