<svg width="24" height="24" viewBox="0 0 24 24" fill="none" xmlns="http://www.w3.org/2000/svg">
<path d="M8.21 17.32L7 16.8C7.18091 17.1707 7.46556 17.4809 7.81937 17.6929C8.17318 17.9049 8.58093 18.0096 8.99312 17.9943C9.4053 17.979 9.80418 17.8444 10.1413 17.6068C10.4785 17.3691 10.7393 17.0387 10.8923 16.6557C11.0453 16.2726 11.0837 15.8534 11.003 15.4489C10.9223 15.0444 10.7258 14.6721 10.4375 14.3771C10.1493 14.0821 9.78153 13.8771 9.379 13.7871C8.97648 13.6971 8.55647 13.7259 8.17 13.87L9.45 14.4C9.83722 14.5618 10.1443 14.8708 10.3037 15.259C10.4631 15.6472 10.4618 16.0828 10.3 16.47C10.1382 16.8572 9.82924 17.1643 9.44104 17.3237C9.05284 17.4831 8.61722 17.4818 8.23 17.32H8.21Z" fill="black"/>
<path d="M12 2.00002C9.45832 1.99448 7.00991 2.95698 5.15241 4.69188C3.29492 6.42678 2.16775 8.80388 2 11.34L7.38 13.55C7.52698 13.4523 7.68468 13.3718 7.85 13.31C8.21263 13.1543 8.60574 13.0825 9 13.1L11.44 9.54002C11.44 8.78846 11.6629 8.05376 12.0804 7.42886C12.498 6.80395 13.0914 6.31689 13.7858 6.02928C14.4802 5.74167 15.2442 5.66642 15.9813 5.81304C16.7185 5.95966 17.3956 6.32158 17.927 6.85302C18.4584 7.38446 18.8204 8.06155 18.967 8.79868C19.1136 9.53581 19.0384 10.2999 18.7507 10.9942C18.4631 11.6886 17.9761 12.2821 17.3512 12.6996C16.7263 13.1172 15.9916 13.34 15.24 13.34H15.16L11.65 15.84C11.666 16.5264 11.4265 17.1943 10.978 17.7141C10.5294 18.2339 9.90381 18.5687 9.22247 18.6534C8.54113 18.7381 7.85261 18.5667 7.29046 18.1725C6.7283 17.7783 6.33256 17.1894 6.18 16.52L2.41 14.92C2.95041 16.6901 3.97142 18.2754 5.35938 19.4996C6.74734 20.7238 8.44779 21.5388 10.2715 21.854C12.0951 22.1691 13.9705 21.9719 15.6888 21.2845C17.4071 20.597 18.9009 19.4462 20.0039 17.9601C21.107 16.4741 21.776 14.7111 21.9365 12.8673C22.097 11.0236 21.7427 9.1715 20.9131 7.51717C20.0835 5.86284 18.811 4.4712 17.2374 3.49713C15.6638 2.52307 13.8507 2.0048 12 2.00002Z" fill="black"/>
<path d="M17.79 9.5C17.796 8.99838 17.6527 8.50632 17.3783 8.08633C17.104 7.66635 16.7109 7.33741 16.2492 7.14131C15.7875 6.94521 15.2778 6.89081 14.7851 6.98501C14.2924 7.07922 13.8388 7.31778 13.4819 7.67039C13.1251 8.02299 12.8812 8.47371 12.7811 8.96529C12.681 9.45686 12.7293 9.96709 12.9199 10.4311C13.1105 10.8952 13.4347 11.2921 13.8514 11.5714C14.2681 11.8508 14.7584 12 15.26 12C15.9251 11.9975 16.5626 11.7342 17.0357 11.2668C17.5087 10.7993 17.7796 10.165 17.79 9.5ZM13.37 9.5C13.372 9.12465 13.4851 8.75829 13.6951 8.44716C13.9051 8.13602 14.2025 7.89405 14.5499 7.75178C14.8972 7.6095 15.2789 7.5733 15.6468 7.64774C16.0147 7.72218 16.3523 7.90392 16.617 8.17003C16.8818 8.43614 17.0617 8.77471 17.1342 9.14299C17.2067 9.51128 17.1685 9.8928 17.0244 10.2394C16.8803 10.586 16.6368 10.8821 16.3246 11.0905C16.0124 11.2988 15.6454 11.41 15.27 11.41C15.0188 11.41 14.7701 11.3602 14.5383 11.2635C14.3065 11.1668 14.0961 11.025 13.9194 10.8465C13.7427 10.6679 13.6032 10.4561 13.5089 10.2232C13.4146 9.99041 13.3674 9.74119 13.37 9.49V9.5Z" fill="black"/>
</svg>
