<svg width="24" height="24" viewBox="0 0 24 24" fill="none" xmlns="http://www.w3.org/2000/svg">
<path d="M3.79001 10.17C3.75424 10.1585 3.71578 10.1585 3.68001 10.17L3.48001 10.44H7.00001C7.01984 10.4372 7.03891 10.4304 7.05608 10.4201C7.07325 10.4098 7.08819 10.3962 7.10001 10.38L7.27001 10.12V10.07L3.79001 10.17ZM2.32001 11.06C2.30262 11.0526 2.28392 11.0487 2.26501 11.0487C2.2461 11.0487 2.2274 11.0526 2.21001 11.06L2.01001 11.32V11.37H6.61001C6.62949 11.3711 6.6488 11.3659 6.66503 11.355C6.68126 11.3442 6.69354 11.3284 6.70001 11.31L6.78001 11.08V11.02L2.32001 11.06ZM4.60001 12C4.57982 12.0015 4.56027 12.0077 4.5429 12.0182C4.52554 12.0286 4.51085 12.0429 4.50001 12.06L4.37001 12.3V12.36H6.52001C6.53784 12.3579 6.55444 12.3498 6.56714 12.3371C6.57983 12.3244 6.58789 12.3078 6.59001 12.29V12.06C6.59001 12.06 6.59001 11.99 6.53001 11.99L4.60001 12ZM20.59 8.93C20.1838 8.6646 19.7284 8.48356 19.2508 8.39767C18.7732 8.31178 18.2832 8.32277 17.81 8.43C17.271 8.50695 16.7527 8.69077 16.2856 8.97067C15.8185 9.25057 15.4121 9.62093 15.09 10.06C14.793 10.4364 14.566 10.8632 14.42 11.32H11.28C11.2284 11.3186 11.1776 11.3332 11.1346 11.3619C11.0916 11.3906 11.0586 11.4318 11.04 11.48C10.9 11.73 10.67 12.24 10.54 12.54C10.41 12.84 10.54 12.83 10.72 12.83H12.6C12.523 12.9567 12.4361 13.0771 12.34 13.19C12.1439 13.4308 11.889 13.6171 11.6001 13.7309C11.3111 13.8448 10.9977 13.8823 10.69 13.84C10.3216 13.789 9.98443 13.6055 9.74149 13.3239C9.49855 13.0423 9.36649 12.6819 9.37001 12.31C9.35623 11.9404 9.44172 11.5739 9.61758 11.2486C9.79344 10.9232 10.0533 10.6509 10.37 10.46C10.623 10.2753 10.9219 10.1636 11.234 10.1371C11.5461 10.1107 11.8595 10.1705 12.14 10.31C12.315 10.3994 12.4685 10.5256 12.59 10.68C12.72 10.83 12.73 10.82 12.88 10.78L14.51 10.35C14.63 10.35 14.67 10.27 14.61 10.19C14.382 9.62608 13.9879 9.1448 13.48 8.81C13.1037 8.56217 12.6812 8.39281 12.2379 8.31205C11.7946 8.2313 11.3396 8.2408 10.9 8.34C9.80732 8.52074 8.82613 9.11517 8.16001 10C7.83975 10.3961 7.60218 10.8524 7.46133 11.3419C7.32049 11.8315 7.27923 12.3443 7.34001 12.85C7.38014 13.2753 7.51063 13.6871 7.72276 14.0579C7.93488 14.4287 8.22374 14.7499 8.57001 15C8.94088 15.2784 9.36392 15.4794 9.814 15.5911C10.2641 15.7027 10.732 15.7228 11.19 15.65C11.747 15.584 12.2842 15.4033 12.7678 15.1193C13.2514 14.8353 13.671 14.4542 14 14C14.1577 13.7832 14.295 13.5522 14.41 13.31C14.5723 13.9189 14.9222 14.4612 15.41 14.86C16.0767 15.419 16.92 15.7237 17.79 15.72C18.04 15.72 18.3 15.72 18.57 15.63C19.4541 15.4555 20.2657 15.0201 20.9 14.38C21.3353 13.9633 21.6629 13.447 21.8545 12.8757C22.0461 12.3043 22.096 11.6949 22 11.1C21.9418 10.656 21.785 10.2306 21.541 9.85515C21.297 9.47966 20.9721 9.16354 20.59 8.93ZM18.81 13.66C18.5671 13.7905 18.2975 13.8637 18.022 13.8741C17.7464 13.8845 17.4721 13.8318 17.22 13.72C16.8798 13.5654 16.6039 13.2973 16.4397 12.9616C16.2755 12.6259 16.2332 12.2435 16.32 11.88C16.3984 11.4624 16.6005 11.078 16.9001 10.7766C17.1997 10.4753 17.5829 10.2709 18 10.19C18.2166 10.1294 18.4436 10.1154 18.6661 10.1491C18.8885 10.1827 19.1012 10.2631 19.2902 10.385C19.4793 10.507 19.6403 10.6676 19.7626 10.8564C19.885 11.0451 19.9659 11.2577 20 11.48C20.0059 11.5866 20.0059 11.6934 20 11.8C19.9928 12.1897 19.8778 12.5698 19.6677 12.8981C19.4577 13.2264 19.1608 13.4901 18.81 13.66Z" fill="black"/>
</svg>
