<svg width="24" height="24" viewBox="0 0 24 24" fill="none" xmlns="http://www.w3.org/2000/svg">
<path d="M10.7419 2.04C9.33794 2.223 7.68194 2.848 6.46094 3.666C5.45094 4.33 4.06394 5.686 4.15194 5.917C4.34494 6.418 7.43194 11.575 7.48194 11.479C7.51994 11.412 7.57694 11.2 7.60494 10.989C7.85494 9.604 9.02994 8.285 10.5019 7.736C11.0699 7.515 11.1849 7.515 15.9969 7.466L20.9139 7.419L20.5189 6.773C19.1339 4.513 16.9969 2.954 14.3219 2.261C13.5909 2.068 11.5119 1.942 10.7419 2.04Z" fill="black"/>
<path d="M3.19995 7.21701C2.74695 8.01601 2.21695 9.63201 2.09295 10.575C1.50495 14.848 3.66095 18.975 7.47195 20.89C8.36595 21.342 9.64595 21.775 10.204 21.823L10.56 21.852L12.234 19.014C13.149 17.455 13.889 16.165 13.87 16.146C13.85 16.127 13.639 16.185 13.389 16.271C11.82 16.801 10.002 16.357 8.81895 15.155C8.39495 14.731 7.81695 13.798 5.97895 10.613C4.70995 8.41001 3.64195 6.60101 3.60295 6.60101C3.57495 6.60101 3.39195 6.88001 3.19995 7.21701Z" fill="black"/>
<path d="M15.15 8.80402C16.372 10.046 16.805 11.807 16.266 13.394C16.18 13.654 15.054 15.665 13.765 17.879C12.475 20.082 11.416 21.91 11.416 21.939C11.416 22.054 12.744 21.996 13.591 21.852C17.911 21.112 21.164 17.85 21.856 13.576C22.116 12.018 22.02 10.651 21.549 9.07302L21.299 8.23602H14.592L15.15 8.80402Z" fill="black"/>
<path d="M10.608 8.56297C9.59797 8.98697 8.90497 9.69997 8.52997 10.71C8.35697 11.163 8.32798 11.423 8.35698 12.134C8.38698 12.884 8.42498 13.097 8.70398 13.645C9.06998 14.395 9.66597 14.974 10.455 15.348C10.917 15.569 11.109 15.598 11.995 15.598C12.89 15.598 13.072 15.569 13.554 15.338C14.266 15.012 15.016 14.261 15.344 13.548C15.574 13.068 15.603 12.885 15.603 11.99C15.603 11.104 15.574 10.912 15.353 10.45C14.978 9.66197 14.401 9.06397 13.65 8.69997C13.082 8.41997 12.908 8.38197 12.09 8.35197C11.302 8.33297 11.1 8.36197 10.61 8.56397L10.608 8.56297Z" fill="black"/>
</svg>
