<svg width="24" height="24" viewBox="0 0 24 24" fill="none" xmlns="http://www.w3.org/2000/svg">
<path d="M21.8379 8.445C21.8369 8.444 21.8379 8.444 21.8379 8.445L21.8349 8.441L21.8339 8.44C21.7719 8.34877 21.692 8.27019 21.5989 8.211L12.4349 2.131C12.3008 2.04533 12.145 1.99982 11.9859 1.99982C11.8268 1.99982 11.671 2.04533 11.5369 2.131L2.37091 8.214C2.25517 8.28592 2.16012 8.38669 2.09507 8.50643C2.03003 8.62617 1.99724 8.76076 1.99991 8.897V15.057C1.99739 15.2161 2.04306 15.3723 2.13091 15.505L2.13291 15.508L2.14291 15.523V15.525H2.14391L2.14491 15.526L2.14591 15.527C2.20891 15.615 2.28591 15.687 2.37191 15.742L11.5369 21.824C11.6686 21.9148 11.8249 21.9633 11.9849 21.963C12.1456 21.9639 12.3027 21.9154 12.4349 21.824L21.5999 15.742C21.7154 15.6693 21.8102 15.5681 21.8752 15.4481C21.9402 15.3281 21.9731 15.1934 21.9709 15.057V8.897C21.9734 8.73634 21.927 8.57871 21.8379 8.445ZM12.7809 4.273L19.7339 8.886L16.5509 10.998L12.7799 8.462V4.273H12.7809ZM11.1889 4.273V8.462L7.41791 10.998L4.23691 8.887L11.1889 4.273ZM3.59391 10.371L5.98891 11.961L3.59391 13.572V10.371ZM11.1889 19.682L4.22891 15.065L7.42391 12.915L11.1889 15.413V19.682ZM11.9839 14.029L8.85591 11.951L11.9839 9.846L15.1149 11.951L11.9839 14.029ZM12.7809 19.682V15.412L16.5469 12.914L19.7399 15.064L12.7809 19.682ZM20.3779 13.572L17.9819 11.961L20.3779 10.371V13.572Z" fill="black"/>
</svg>
