<svg width="24" height="24" viewBox="0 0 24 24" fill="none" xmlns="http://www.w3.org/2000/svg">
<path d="M2.02699 17.023C2.08799 16.925 2.18299 16.918 2.31599 17.003C5.35099 18.763 8.65399 19.648 12.222 19.648C14.603 19.648 16.952 19.201 19.273 18.316L19.535 18.199C19.65 18.148 19.73 18.115 19.779 18.09C19.968 18.016 20.105 18.053 20.217 18.199C20.319 18.342 20.293 18.478 20.117 18.599C19.904 18.757 19.617 18.941 19.277 19.144C18.24 19.763 17.074 20.242 15.785 20.585C14.5554 20.9156 13.2883 21.0864 12.015 21.093C10.126 21.093 8.33499 20.763 6.64599 20.103C4.97972 19.4508 3.4448 18.5033 2.11499 17.306C2.03099 17.245 1.98999 17.183 1.98999 17.122C1.98999 17.083 2.00599 17.048 2.03099 17.013L2.02699 17.023ZM7.50599 11.834C7.50599 10.994 7.71299 10.279 8.12499 9.68198C8.53899 9.08998 9.10199 8.64098 9.82799 8.33598C10.494 8.05498 11.293 7.85598 12.258 7.73398C12.584 7.69698 13.119 7.64798 13.858 7.58898V7.27898C13.858 6.50598 13.774 5.97998 13.61 5.71498C13.358 5.35598 12.96 5.17398 12.407 5.17398H12.257C11.857 5.21298 11.511 5.33598 11.218 5.55698C10.9239 5.78273 10.7232 6.10877 10.654 6.47298C10.605 6.72298 10.482 6.85998 10.293 6.89898L8.18799 6.63498C7.97899 6.58398 7.87699 6.48498 7.87699 6.30898C7.87699 6.27198 7.88299 6.23498 7.89499 6.18598C8.10399 5.10798 8.60999 4.30498 9.41499 3.78198C10.229 3.26798 11.167 2.96798 12.243 2.90698H12.694C14.073 2.90698 15.163 3.26798 15.938 3.98298C16.053 4.10598 16.165 4.23298 16.278 4.38098C16.378 4.51998 16.466 4.64498 16.512 4.75798C16.575 4.86898 16.639 5.03298 16.676 5.23298C16.727 5.44598 16.764 5.58498 16.789 5.65898C16.812 5.74498 16.84 5.90898 16.853 6.17298C16.859 6.43498 16.869 6.58298 16.869 6.63398V11.04C16.869 11.354 16.918 11.642 17.006 11.905C17.094 12.165 17.18 12.356 17.268 12.468L17.696 13.029C17.7601 13.1179 17.7985 13.2227 17.807 13.332C17.807 13.434 17.758 13.52 17.659 13.592C16.657 14.469 16.106 14.944 16.02 15.02C15.883 15.133 15.707 15.145 15.495 15.059C15.3411 14.9293 15.1945 14.7911 15.056 14.645L14.798 14.354C14.747 14.291 14.657 14.18 14.532 14.002L14.282 13.639C13.606 14.379 12.944 14.844 12.28 15.032C11.866 15.157 11.366 15.22 10.751 15.22C9.82499 15.22 9.04999 14.935 8.44799 14.357C7.84999 13.781 7.54799 12.968 7.54799 11.904L7.50499 11.841L7.50599 11.834ZM10.637 11.467C10.637 11.942 10.754 12.319 10.992 12.606C11.228 12.891 11.555 13.034 11.957 13.034C11.992 13.034 12.045 13.026 12.117 13.016C12.195 13.004 12.228 12.996 12.258 12.996C12.77 12.863 13.16 12.535 13.447 12.014C13.5856 11.7785 13.6865 11.5227 13.746 11.256C13.822 10.988 13.846 10.762 13.857 10.59C13.873 10.424 13.873 10.137 13.873 9.74998V9.29898C13.17 9.29898 12.633 9.34798 12.269 9.44698C11.206 9.74998 10.665 10.424 10.665 11.476L10.636 11.46V11.467H10.637ZM18.283 17.332C18.308 17.281 18.346 17.24 18.392 17.189C18.693 16.988 18.988 16.847 19.269 16.773C19.7089 16.6599 20.1593 16.5925 20.613 16.572C20.73 16.562 20.847 16.572 20.959 16.597C21.498 16.648 21.832 16.738 21.936 16.87C21.989 16.948 22.01 17.061 22.01 17.198V17.323C22.01 17.749 21.893 18.249 21.662 18.825C21.431 19.401 21.109 19.866 20.699 20.227C20.638 20.276 20.584 20.301 20.535 20.301C20.51 20.301 20.484 20.301 20.461 20.291C20.385 20.254 20.371 20.191 20.406 20.09C20.857 19.039 21.078 18.303 21.078 17.889C21.078 17.762 21.053 17.662 21.004 17.6C20.885 17.463 20.547 17.383 19.984 17.383C19.7412 17.3866 19.4987 17.3996 19.257 17.422C18.954 17.463 18.675 17.5 18.423 17.537C18.349 17.537 18.3 17.523 18.273 17.5C18.248 17.475 18.242 17.461 18.255 17.436C18.255 17.422 18.261 17.411 18.273 17.383V17.334L18.283 17.332Z" fill="black"/>
</svg>
