<svg width="24" height="24" viewBox="0 0 24 24" fill="none" xmlns="http://www.w3.org/2000/svg">
<path d="M20.1539 8.51401C21.004 6.47501 21.06 4.77601 20.041 3.75701C18.908 2.62501 16.189 2.96501 13.304 4.32201H12.963C10.926 4.32201 8.94295 5.06001 7.47095 6.36101C6.22695 7.49401 5.32095 8.96601 4.92395 10.607C5.20695 10.27 6.79295 8.40001 8.60395 7.38101C8.66195 7.38101 9.11395 7.09801 9.11395 7.09801C9.05695 7.09801 8.20895 7.94801 8.03995 8.11801C4.07495 12.194 1.75495 18.366 3.56695 20.177C4.75495 21.366 6.90695 21.083 9.39795 19.725C10.473 20.235 11.663 20.46 12.963 20.46C14.662 20.46 16.248 20.007 17.606 19.101C19.022 18.195 20.042 16.782 20.665 15.139H16.249C15.683 16.214 14.38 16.951 13.022 16.951C11.096 16.951 9.50995 15.365 9.45395 13.554V13.385H21.0049V13.215C21.0049 12.932 21.062 12.592 21.062 12.367C21.061 11.005 20.7209 9.70301 20.1539 8.51401ZM4.81095 19.838C3.90495 18.932 4.18995 17.176 5.26395 15.082C5.77395 16.498 6.62295 17.744 7.69895 18.649C8.03995 18.931 8.43395 19.214 8.83195 19.441C7.01795 20.404 5.54695 20.574 4.81095 19.838ZM16.417 11.232H9.50995V11.175C9.62295 9.41901 11.264 7.89001 13.191 7.89001C15.003 7.89001 16.4749 9.30601 16.5879 11.175V11.232H16.417ZM19.871 8.06101C19.5175 7.47111 19.0783 6.93695 18.568 6.47601C17.7787 5.74136 16.8561 5.16464 15.85 4.77701C17.663 3.92801 19.191 3.81601 19.9839 4.60801C20.6069 5.34401 20.551 6.58901 19.871 8.06101Z" fill="black"/>
</svg>
