<svg width="24" height="24" viewBox="0 0 24 24" fill="none" xmlns="http://www.w3.org/2000/svg">
<path d="M20.9349 12.646C20.8014 12.2425 20.5144 11.9078 20.136 11.7143C19.7576 11.5208 19.3182 11.484 18.9129 11.612L17.2809 12.144C16.9259 11.045 16.5459 9.87598 16.1889 8.77898L16.1949 8.77698L16.1909 8.76898L17.8039 8.24598C18.2074 8.11201 18.542 7.82483 18.7356 7.44638C18.9293 7.06793 18.9664 6.62854 18.8389 6.22298C18.7048 5.81926 18.4172 5.48451 18.0383 5.29104C17.6594 5.09757 17.2196 5.06091 16.8139 5.18898L15.1929 5.71598L14.6739 4.11198C14.54 3.70833 14.2526 3.3736 13.8739 3.18012C13.4952 2.98663 13.0555 2.94994 12.6499 3.07798C12.2463 3.2119 11.9117 3.49934 11.7183 3.87812C11.525 4.25689 11.4886 4.69655 11.6169 5.10198L12.1389 6.71098L8.77095 7.80298L8.24695 6.19198C8.11321 5.78863 7.82617 5.45409 7.44784 5.26062C7.0695 5.06715 6.63024 5.03028 6.22495 5.15798C5.82122 5.29148 5.48633 5.57865 5.2928 5.95728C5.09927 6.33592 5.06268 6.77555 5.19095 7.18098L5.71495 8.79698L4.05295 9.33798C3.67194 9.47747 3.35805 9.75634 3.17467 10.1183C2.99129 10.4802 2.95207 10.8982 3.06495 11.288C3.31495 12.144 4.21695 12.661 5.04395 12.38C5.04995 12.38 5.70195 12.171 6.70895 11.844L7.80795 15.23H7.80595V15.232L6.13595 15.777C5.7549 15.9161 5.44096 16.1948 5.2577 16.5566C5.07445 16.9185 5.03557 17.3365 5.14895 17.726C5.39895 18.583 6.29895 19.1 7.12795 18.819C7.13495 18.819 7.78695 18.608 8.79295 18.281L8.79595 18.286C8.79871 18.2858 8.80141 18.2851 8.80395 18.284L9.34295 19.941C9.48184 20.3222 9.76041 20.6365 10.1223 20.8201C10.4841 21.0037 10.9022 21.043 11.2919 20.93C12.1489 20.68 12.6649 19.779 12.3859 18.951C12.3859 18.945 12.1769 18.297 11.8529 17.297L11.8499 17.288C12.9539 16.93 14.1259 16.549 15.2259 16.19L15.7689 17.858C15.9082 18.2389 16.1869 18.5529 16.5486 18.7364C16.9103 18.92 17.3282 18.9595 17.7179 18.847C18.5739 18.596 19.0919 17.695 18.8099 16.868C18.8099 16.861 18.6009 16.209 18.2749 15.205L18.2939 15.199L18.2909 15.192L19.8999 14.67C20.3036 14.536 20.6384 14.2487 20.8321 13.87C21.0257 13.4913 21.0627 13.0517 20.9349 12.646ZM10.8599 14.238L9.76295 10.861C9.76465 10.8609 9.76633 10.8605 9.76795 10.86V10.854C10.8659 10.498 12.0359 10.119 13.1309 9.76198L14.2289 13.139L10.8599 14.238Z" fill="black"/>
</svg>
