<svg width="24" height="24" viewBox="0 0 24 24" fill="none" xmlns="http://www.w3.org/2000/svg">
<path d="M12.0019 2.00503L11.9999 2.00403C6.47991 2.00403 2.00391 6.47903 2.00391 11.999C2.00391 17.52 6.48091 21.997 11.9999 21.997C17.5209 21.997 21.9959 17.522 21.9959 12C21.9959 6.48003 17.5209 2.00503 12.0019 2.00503ZM12.1639 15.535C12.1157 15.5772 12.0539 15.6006 11.9899 15.601V15.602H6.45491C6.38418 15.6015 6.31652 15.573 6.26669 15.5228C6.21687 15.4726 6.1889 15.4048 6.18891 15.334V8.64603C6.18891 8.49803 6.30791 8.37803 6.45491 8.37803H9.04391C10.6559 8.37803 11.6199 9.24803 11.6199 10.705C11.6199 11.674 11.1339 12.434 10.3479 12.744L12.1899 15.157C12.2363 15.2107 12.2596 15.2806 12.2547 15.3514C12.2499 15.4222 12.2172 15.4882 12.1639 15.535ZM15.8589 15.603H13.1939C13.123 15.6025 13.0552 15.5739 13.0053 15.5235C12.9555 15.4731 12.9276 15.4049 12.9279 15.334V8.64603C12.9279 8.49803 13.0469 8.37903 13.1939 8.37903H15.6659C17.5189 8.37903 17.9079 9.47003 17.9079 10.386C17.9079 10.915 17.7669 11.335 17.4869 11.644C18.1679 11.924 18.5339 12.557 18.5339 13.471C18.5339 14.806 17.5329 15.603 15.8589 15.603Z" fill="black"/>
</svg>
