<svg width="24" height="24" viewBox="0 0 24 24" fill="none" xmlns="http://www.w3.org/2000/svg">
<path d="M15.539 14.059L13.665 15.934L11.888 17.711L11.541 18.061C11.0539 18.547 10.4494 18.8989 9.78625 19.0825C9.12309 19.2661 8.42373 19.2753 7.756 19.109C7.62089 19.6836 7.27962 20.1886 6.79689 20.5283C6.31417 20.868 5.72357 21.0187 5.1371 20.9519C4.55063 20.885 4.00909 20.6053 3.61517 20.1657C3.22125 19.7261 3.00236 19.1573 3 18.567C3 17.429 3.792 16.475 4.852 16.225C4.68084 15.5535 4.68736 14.8491 4.87093 14.1809C5.0545 13.5127 5.4088 12.9038 5.899 12.414L6.034 12.279L7.811 14.057L7.673 14.192C7.39576 14.4695 7.24004 14.8457 7.24004 15.238C7.24004 15.6303 7.39576 16.0065 7.673 16.284C7.80915 16.4231 7.97171 16.5337 8.15116 16.6092C8.33061 16.6847 8.52332 16.7235 8.718 16.7235C8.91268 16.7235 9.10539 16.6847 9.28484 16.6092C9.46429 16.5337 9.62685 16.4231 9.763 16.284L10.112 15.935L11.887 14.157L13.764 12.278L15.539 14.059ZM16.232 19.047C15.5391 19.2615 14.8008 19.2828 14.0966 19.1087C13.3924 18.9346 12.7491 18.5717 12.236 18.059L12.101 17.92L13.874 16.143L14.009 16.282C14.2864 16.5586 14.6622 16.714 15.054 16.714C15.4458 16.714 15.8216 16.5586 16.099 16.282C16.236 16.145 16.3446 15.9823 16.4186 15.8032C16.4926 15.6242 16.5306 15.4323 16.5305 15.2386C16.5303 15.0448 16.4919 14.853 16.4175 14.6741C16.3431 14.4952 16.2342 14.3328 16.097 14.196L15.747 13.847L13.974 12.07L12.097 10.192L13.874 8.416L15.749 10.295L17.523 12.072L17.872 12.421C18.3592 12.9035 18.7127 13.5042 18.8982 14.1643C19.0836 14.8244 19.0946 15.5214 18.93 16.187C19.5326 16.2727 20.0804 16.5836 20.463 17.057C20.8456 17.5304 21.0346 18.1312 20.9921 18.7384C20.9495 19.3456 20.6784 19.9142 20.2334 20.3295C19.7885 20.7449 19.2027 20.9762 18.594 20.977C18.0398 20.9784 17.5022 20.7874 17.0732 20.4365C16.6442 20.0855 16.3504 19.5965 16.242 19.053L16.232 19.047ZM8.231 10.085L10.112 8.206L11.889 6.429L12.236 6.083C12.7424 5.57496 13.377 5.21354 14.0722 5.03712C14.7675 4.8607 15.4976 4.87587 16.185 5.081C16.2462 4.63633 16.4305 4.21762 16.7171 3.87214C17.0037 3.52665 17.3811 3.26815 17.8068 3.1258C18.2325 2.98344 18.6895 2.96291 19.1263 3.06652C19.563 3.17012 19.9621 3.39374 20.2785 3.71214C20.5949 4.03053 20.816 4.43102 20.9169 4.86842C21.0178 5.30581 20.9944 5.76268 20.8493 6.18748C20.7043 6.61228 20.4435 6.98808 20.0962 7.27248C19.7489 7.55689 19.3291 7.73856 18.884 7.797C19.0824 8.4819 19.0931 9.20751 18.9151 9.89798C18.7371 10.5884 18.3768 11.2184 17.872 11.722L17.735 11.861L15.958 10.084L16.097 9.946C16.2339 9.80903 16.3425 9.64644 16.4166 9.46751C16.4906 9.28857 16.5287 9.0968 16.5287 8.90315C16.5286 8.70949 16.4904 8.51774 16.4163 8.33884C16.3421 8.15994 16.2335 7.9974 16.0965 7.8605C15.9595 7.7236 15.7969 7.61501 15.618 7.54095C15.4391 7.46688 15.2473 7.42878 15.0536 7.42883C14.86 7.42887 14.6682 7.46706 14.4893 7.54122C14.3104 7.61537 14.1479 7.72403 14.011 7.861L13.664 8.207L11.887 9.983L10.008 11.859L8.231 10.085ZM6.241 12.069L5.895 11.722C5.38575 11.213 5.02394 10.5756 4.84803 9.87744C4.67213 9.17927 4.6887 8.44649 4.896 7.757C4.36394 7.63489 3.88898 7.33605 3.54863 6.90925C3.20828 6.48245 3.02264 5.95289 3.022 5.407C3.02279 4.76869 3.27678 4.15677 3.72822 3.70552C4.17967 3.25426 4.79169 3.00053 5.43 3C6.627 3 7.62 3.875 7.808 5.019C8.46924 4.86336 9.15928 4.87913 9.81273 5.0648C10.4662 5.25047 11.0614 5.59991 11.542 6.08L11.68 6.22L9.902 7.996L9.765 7.86C9.48753 7.58423 9.11221 7.42944 8.721 7.42944C8.32979 7.42944 7.95447 7.58423 7.677 7.86C7.39948 8.13711 7.2432 8.51299 7.24245 8.90517C7.2417 9.29736 7.39654 9.67383 7.673 9.952L8.022 10.302L9.799 12.079L11.678 13.958L9.903 15.735L8.02 13.856L6.242 12.079L6.241 12.069Z" fill="black"/>
</svg>
