<svg width="24" height="24" viewBox="0 0 24 24" fill="none" xmlns="http://www.w3.org/2000/svg">
<path d="M18.344 8.71001C17.637 8.71001 17.065 9.28201 17.065 9.98801V14.518C17.065 14.8572 17.1997 15.1825 17.4396 15.4224C17.6794 15.6623 18.0047 15.797 18.344 15.797C18.6832 15.797 19.0085 15.6623 19.2483 15.4224C19.4882 15.1825 19.623 14.8572 19.623 14.518V9.98801C19.623 9.28201 19.051 8.71001 18.344 8.71001ZM5.65595 8.71001C4.94895 8.71001 4.37695 9.28201 4.37695 9.98801V14.518C4.37695 14.8572 4.5117 15.1825 4.75156 15.4224C4.99142 15.6623 5.31674 15.797 5.65595 15.797C5.99517 15.797 6.32048 15.6623 6.56034 15.4224C6.8002 15.1825 6.93495 14.8572 6.93495 14.518V9.98801C6.93508 9.82006 6.90209 9.65373 6.83784 9.49855C6.7736 9.34338 6.67938 9.20239 6.56058 9.08368C6.44177 8.96497 6.30071 8.87086 6.14549 8.80674C5.99026 8.74262 5.8239 8.70975 5.65595 8.71001ZM14.545 4.90101L15.313 3.51301C15.3354 3.47349 15.3498 3.42991 15.3552 3.38479C15.3607 3.33968 15.3571 3.29392 15.3448 3.25019C15.3324 3.20646 15.3114 3.16563 15.2831 3.13006C15.2549 3.09449 15.2198 3.0649 15.18 3.04301C15.1402 3.02062 15.0965 3.00634 15.0512 3.00101C15.0059 2.99569 14.96 2.99941 14.9162 3.01197C14.8724 3.02453 14.8315 3.04568 14.7959 3.07419C14.7603 3.10269 14.7308 3.13798 14.709 3.17801L13.92 4.59801C13.332 4.36301 12.684 4.23001 12 4.23001C11.316 4.23001 10.668 4.36201 10.08 4.59701L9.29095 3.17901C9.26913 3.13898 9.23957 3.10369 9.20399 3.07519C9.16841 3.04668 9.12752 3.02553 9.0837 3.01297C9.03987 3.00041 8.99399 2.99669 8.94871 3.00202C8.90343 3.00734 8.85966 3.02162 8.81995 3.04401C8.78032 3.0661 8.74544 3.09579 8.7173 3.13138C8.68916 3.16697 8.66831 3.20776 8.65596 3.25142C8.6436 3.29508 8.63998 3.34074 8.6453 3.3858C8.65062 3.43086 8.66477 3.47443 8.68695 3.51401L9.45495 4.90201C8.07195 5.69001 7.14795 7.09901 7.14795 8.71001C7.14795 8.72101 7.14795 8.73101 7.14995 8.74401C7.14795 8.75001 7.14795 8.75701 7.14795 8.76301V8.76401H16.851V8.71001C16.852 7.09901 15.928 5.69101 14.545 4.90101ZM9.75995 6.86901C9.71445 6.86868 9.66946 6.8594 9.62754 6.84168C9.58563 6.82396 9.54762 6.79816 9.51567 6.76576C9.45116 6.70031 9.41529 6.61191 9.41595 6.52001C9.41662 6.42811 9.45376 6.34024 9.51921 6.27573C9.58466 6.21122 9.67306 6.17535 9.76495 6.17601C9.85685 6.17667 9.94472 6.21382 10.0092 6.27927C10.0737 6.34472 10.1096 6.43311 10.109 6.52501C10.1083 6.61691 10.0711 6.70478 10.0057 6.76929C9.94025 6.8338 9.85185 6.86967 9.75995 6.86901ZM14.24 6.86901C14.1527 6.86237 14.0712 6.82304 14.0118 6.75889C13.9523 6.69473 13.9193 6.61048 13.9193 6.52301C13.9193 6.43554 13.9523 6.35129 14.0118 6.28714C14.0712 6.22298 14.1527 6.18365 14.24 6.17701C14.3317 6.17701 14.4197 6.21346 14.4846 6.27835C14.5495 6.34324 14.586 6.43125 14.586 6.52301C14.586 6.61478 14.5495 6.70278 14.4846 6.76767C14.4197 6.83256 14.3317 6.86901 14.24 6.86901ZM7.14795 16.12C7.14795 16.766 7.67295 17.291 8.32195 17.291H8.90795V19.692C8.90795 20.0312 9.04271 20.3565 9.28256 20.5964C9.52242 20.8363 9.84774 20.971 10.187 20.971C10.5262 20.971 10.8515 20.8363 11.0913 20.5964C11.3312 20.3565 11.466 20.0312 11.466 19.692V17.291H12.532V19.692C12.532 20.399 13.104 20.97 13.809 20.97C14.518 20.97 15.09 20.399 15.09 19.692V17.291H15.676C16.324 17.291 16.85 16.767 16.85 16.12V9.02801H7.14795V16.12Z" fill="black"/>
</svg>
