<svg width="24" height="24" viewBox="0 0 24 24" fill="none" xmlns="http://www.w3.org/2000/svg">
<path d="M11.474 14.42C10.6354 14.42 9.83113 14.7531 9.23814 15.3461C8.64515 15.9391 8.31201 16.7434 8.31201 17.582C8.31201 18.4206 8.64515 19.2249 9.23814 19.8179C9.83113 20.4108 10.6354 20.744 11.474 20.744C12.3126 20.744 13.1169 20.4108 13.7099 19.8179C14.3029 19.2249 14.636 18.4206 14.636 17.582C14.636 16.7434 14.3029 15.9391 13.7099 15.3461C13.1169 14.7531 12.3126 14.42 11.474 14.42ZM15.41 13.814C16.3826 14.8275 16.9249 16.1783 16.923 17.583C16.9234 18.4612 16.7113 19.3264 16.3047 20.1048C15.8981 20.8832 15.3091 21.5517 14.588 22.053C17.197 21.25 19.359 19.286 20.325 16.911C21.663 13.623 20.415 11.15 18.326 8.90598C18.392 9.19398 18.429 9.49798 18.429 9.80398C18.4286 10.7093 18.134 11.59 17.5894 12.3133C17.0449 13.0366 16.28 13.5633 15.41 13.814ZM11.833 9.81098C11.833 11.151 12.92 12.23 14.253 12.23C15.586 12.23 16.676 11.143 16.676 9.81098C16.6757 9.17004 16.421 8.55542 15.9678 8.1022C15.5146 7.64898 14.9 7.39425 14.259 7.39398C13.6171 7.39371 13.0012 7.64799 12.5465 8.10106C12.0917 8.55414 11.8351 9.16905 11.833 9.81098Z" fill="black"/>
<path d="M7.303 21.093C6.47641 20.1104 6.02437 18.867 6.027 17.583C6.0258 16.2501 6.5139 14.9631 7.39869 13.9663C8.28347 12.9694 9.50339 12.332 10.827 12.175C10.3671 11.5107 10.1106 10.7269 10.0886 9.91929C10.0666 9.11166 10.2802 8.31509 10.7032 7.62677C11.1262 6.93845 11.7405 6.38814 12.471 6.04298C13.2015 5.69782 14.0166 5.57273 14.817 5.68299C13.456 4.50699 12.093 3.31399 11.018 2.01099C11.565 7.72499 5.818 5.64899 3.686 10.915C2.264 14.442 3.548 18.807 7.303 21.093Z" fill="black"/>
</svg>
