<svg width="24" height="24" viewBox="0 0 24 24" fill="none" xmlns="http://www.w3.org/2000/svg">
<path d="M12.077 3C7.149 3 3 6.96 3 11.843V21L12.075 20.99C17.003 20.99 21 16.88 21 11.997C21 7.113 17 3 12.077 3ZM15.997 15.859C15.1973 16.6172 14.1906 17.121 13.1043 17.3067C12.0181 17.4923 10.9012 17.3515 9.895 16.902L6.3 17.707L7.301 14.515C6.84431 13.6816 6.61413 12.743 6.63344 11.7928C6.65274 10.8427 6.92084 9.91419 7.411 9.1C7.9056 8.28214 8.60303 7.60586 9.43574 7.13668C10.2684 6.66751 11.2082 6.42133 12.164 6.422L12.17 6.423C13.2701 6.42102 14.3459 6.74705 15.2599 7.35944C16.1738 7.97182 16.8844 8.84276 17.301 9.861C17.7124 10.8759 17.808 11.9913 17.5753 13.0614C17.3427 14.1315 16.7926 15.1065 15.997 15.859Z" fill="black"/>
</svg>
