<svg width="24" height="24" viewBox="0 0 24 24" fill="none" xmlns="http://www.w3.org/2000/svg">
<path d="M21.1419 10.843C21.1419 10.203 21.2399 9.82498 21.2399 9.13598C21.2399 8.06898 20.8469 7.72498 19.9769 7.72498H19.3359V8.47998H19.5319C19.9759 8.47998 20.0739 8.62698 20.0739 9.16898C20.0739 9.67798 20.0249 10.187 20.0249 10.777C20.0249 11.532 20.2709 11.827 20.7639 11.942V11.991C20.2709 12.107 20.0249 12.402 20.0249 13.157C20.0249 13.748 20.0739 14.224 20.0739 14.765C20.0739 15.323 19.9599 15.47 19.5319 15.47V15.487H19.3359V16.275H19.9769C20.8469 16.275 21.2399 15.931 21.2399 14.864C21.2399 14.158 21.1419 13.797 21.1419 13.157C21.1419 12.812 21.3549 12.451 21.9959 12.418V11.565C21.3539 11.549 21.1419 11.188 21.1419 10.843ZM17.8429 11.844C17.3499 11.648 16.8909 11.532 16.8909 11.204C16.8909 10.958 17.0879 10.809 17.4489 10.809C17.8099 10.809 18.1379 10.957 18.4989 11.22L19.1559 10.35C18.7469 10.037 18.1879 9.70898 17.4319 9.70898C16.3169 9.70898 15.5609 10.35 15.5609 11.253C15.5609 12.057 16.2669 12.467 16.8589 12.696C17.3669 12.892 17.8599 13.057 17.8599 13.385C17.8599 13.631 17.6629 13.795 17.2189 13.795C16.8089 13.795 16.3979 13.631 15.9559 13.286L15.2989 14.238C15.7909 14.648 16.5459 14.927 17.1699 14.927C18.4829 14.927 19.1889 14.238 19.1889 13.335C19.1879 12.435 18.4819 12.058 17.8429 11.844ZM6.63288 13.698C6.51888 13.698 6.37088 13.6 6.37088 13.288V7.72498H4.03888C3.15288 7.72498 2.75988 8.06898 2.75988 9.13598C2.75988 9.84198 2.85888 10.237 2.85888 10.843C2.85888 11.188 2.64588 11.549 2.00488 11.582V12.435C2.64588 12.452 2.85888 12.813 2.85888 13.158C2.85888 13.764 2.75988 14.126 2.75988 14.832C2.75988 15.899 3.15388 16.243 4.02388 16.243H4.66388V15.488H4.46688C4.05588 15.488 3.92488 15.324 3.92488 14.782C3.92488 14.241 3.97388 13.781 3.97388 13.175C3.97388 12.419 3.72888 12.125 3.23588 12.01V11.959C3.72888 11.845 3.97388 11.55 3.97388 10.794C3.97388 10.204 3.92488 9.72798 3.92488 9.18698C3.92488 8.64498 4.03888 8.49798 4.46688 8.49798H4.90888V13.209C4.90888 14.21 5.25388 14.866 6.25488 14.866C6.56788 14.866 6.81388 14.816 6.99388 14.751L6.82888 13.685C6.73088 13.698 6.68288 13.698 6.63288 13.698ZM13.8709 11.844C13.3619 11.648 12.9019 11.532 12.9019 11.204C12.9019 10.958 13.0989 10.809 13.4599 10.809C13.8209 10.809 14.1489 10.957 14.5109 11.22L15.1669 10.35C14.7569 10.037 14.1989 9.70898 13.4439 9.70898C12.3279 9.70898 11.5719 10.35 11.5719 11.253C11.5719 12.057 12.2789 12.467 12.8689 12.696C13.3789 12.892 13.8709 13.057 13.8709 13.385C13.8709 13.631 13.6739 13.795 13.2299 13.795C12.8199 13.795 12.4099 13.631 11.9659 13.286L11.3259 14.238C11.8179 14.648 12.5729 14.927 13.1969 14.927C14.5099 14.927 15.2159 14.238 15.2159 13.335C15.2169 12.435 14.5109 12.058 13.8709 11.844ZM9.02888 9.69398C7.83088 9.69398 6.68188 10.695 6.71488 12.271C6.71488 13.895 7.78088 14.847 9.19388 14.847C9.78488 14.847 10.4409 14.633 10.9499 14.289L10.4579 13.419C10.0979 13.632 9.75188 13.731 9.39188 13.731C8.73488 13.731 8.22688 13.419 8.09488 12.665H11.0659C11.0829 12.55 11.1149 12.32 11.1149 12.058C11.1309 10.728 10.4079 9.69398 9.02888 9.69398ZM8.09388 11.762C8.19288 11.107 8.58588 10.793 9.04488 10.793C9.63688 10.793 9.86588 11.204 9.86588 11.762H8.09388Z" fill="black"/>
</svg>
