<svg width="24" height="24" viewBox="0 0 24 24" fill="none" xmlns="http://www.w3.org/2000/svg">
<path d="M18.75 3H5.25C4.65326 3 4.08097 3.23705 3.65901 3.65901C3.23705 4.08097 3 4.65326 3 5.25V18.75C3 19.3467 3.23705 19.919 3.65901 20.341C4.08097 20.7629 4.65326 21 5.25 21H18.75C19.3467 21 19.919 20.7629 20.341 20.341C20.7629 19.919 21 19.3467 21 18.75V5.25C21 4.65326 20.7629 4.08097 20.341 3.65901C19.919 3.23705 19.3467 3 18.75 3ZM10.83 16.635C10.83 16.9214 10.7162 17.1961 10.5137 17.3987C10.3111 17.6012 10.0364 17.715 9.75 17.715H6.42C6.13357 17.715 5.85886 17.6012 5.65632 17.3987C5.45379 17.1961 5.34 16.9214 5.34 16.635V6.42C5.34 5.823 5.823 5.34 6.42 5.34H9.75C10.346 5.34 10.83 5.823 10.83 6.42V16.635ZM18.66 12.135C18.66 12.4214 18.5462 12.6961 18.3437 12.8987C18.1411 13.1012 17.8664 13.215 17.58 13.215H14.25C13.9636 13.215 13.6889 13.1012 13.4863 12.8987C13.2838 12.6961 13.17 12.4214 13.17 12.135V6.42C13.17 5.823 13.654 5.34 14.25 5.34H17.58C18.177 5.34 18.66 5.823 18.66 6.42V12.135Z" fill="black"/>
</svg>
