<svg width="24" height="24" viewBox="0 0 24 24" fill="none" xmlns="http://www.w3.org/2000/svg">
<path d="M12.1019 21C13.5079 21 19.0869 14.671 19.0869 10.429C19.0869 6.368 15.9149 3 12.1019 3C8.08494 3 4.91394 6.366 4.91394 10.429C4.91294 14.67 10.4919 21 12.1019 21ZM10.9789 5.885C11.3528 5.79196 11.7367 5.74527 12.1219 5.746C14.3719 5.746 16.3079 7.659 16.3079 10.144C16.3079 12.382 14.3719 14.295 12.1119 14.295C9.60294 14.295 7.66794 12.382 7.66794 10.144C7.66794 9.097 8.00594 8.164 8.58994 7.421V7.443C8.58994 8.377 9.34494 9.119 10.2779 9.119C11.2109 9.121 11.9999 8.355 11.9999 7.422C11.999 7.09372 11.9019 6.77292 11.7206 6.49924C11.5393 6.22555 11.2818 6.01096 10.9799 5.882L10.9789 5.885Z" fill="black"/>
</svg>
