<svg width="24" height="24" viewBox="0 0 24 24" fill="none" xmlns="http://www.w3.org/2000/svg">
<path d="M19.5111 9.72202C19.1115 8.25156 18.2917 6.92958 17.1521 5.91802L17.1171 5.95302L17.1221 5.91102C16.1267 5.03286 14.9238 4.42292 13.6271 4.13878C12.3305 3.85464 10.9828 3.90569 9.71133 4.28711C8.43987 4.66852 7.28662 5.36772 6.36046 6.31867C5.4343 7.26962 4.7658 8.44094 4.4181 9.72202C4.4491 9.70902 4.4841 9.70902 4.5171 9.69902C3.77167 10.1968 3.15555 10.8651 2.71978 11.6484C2.28401 12.4317 2.04111 13.3076 2.0112 14.2035C1.98129 15.0994 2.16523 15.9895 2.54779 16.8001C2.93036 17.6107 3.50053 18.3186 4.2111 18.865L4.2171 18.859L4.2111 18.883C5.19192 19.6239 6.38888 20.0224 7.6181 20.017H11.9391L11.9631 20.041H16.3041C17.5161 20.0507 18.6989 19.67 19.6777 18.9553C20.6565 18.2405 21.3792 17.2296 21.7389 16.0722C22.0986 14.9149 22.0762 13.6724 21.675 12.5288C21.2738 11.3851 20.515 10.401 19.5111 9.72202ZM16.3051 16.567H11.9641L11.9581 16.573V16.542H7.6181C7.3101 16.542 7.0071 16.476 6.7261 16.349L6.7281 16.348C6.40802 16.2037 6.12775 15.9838 5.91136 15.7072C5.69497 15.4307 5.54892 15.1058 5.48574 14.7604C5.42255 14.415 5.44413 14.0594 5.54862 13.7242C5.65311 13.389 5.83738 13.0841 6.08563 12.8358C6.33387 12.5874 6.63867 12.4031 6.97386 12.2985C7.30905 12.1939 7.66461 12.1722 8.01004 12.2352C8.35546 12.2983 8.68042 12.4442 8.95702 12.6605C9.23363 12.8768 9.45361 13.157 9.5981 13.477L12.1161 10.959C11.2784 9.86792 10.0705 9.12097 8.7201 8.85902C8.7381 8.85002 8.7551 8.83502 8.7701 8.83802C9.51458 8.02042 10.5434 7.51831 11.646 7.43446C12.7486 7.35062 13.8415 7.6914 14.7011 8.38702H14.7471C15.2451 8.80221 15.6436 9.32384 15.9132 9.91349C16.1829 10.5031 16.3168 11.1458 16.3051 11.794V12.227C16.8806 12.227 17.4326 12.4556 17.8395 12.8626C18.2465 13.2696 18.4751 13.8215 18.4751 14.397C18.4751 14.9725 18.2465 15.5245 17.8395 15.9314C17.4326 16.3384 16.8806 16.567 16.3051 16.567Z" fill="black"/>
</svg>
