<svg width="24" height="24" viewBox="0 0 24 24" fill="none" xmlns="http://www.w3.org/2000/svg">
<path d="M20.3489 13.684H8.87395C8.87395 14.117 8.93695 14.509 9.06895 14.862C9.33728 15.5436 9.82261 16.1178 10.4499 16.496C10.7589 16.692 11.0959 16.855 11.4549 16.98C11.8109 17.11 12.1839 17.206 12.5619 17.268C13.3829 17.398 14.2199 17.391 15.0389 17.247C15.8766 17.0924 16.6904 16.8292 17.4599 16.464C17.8529 16.284 18.2499 16.088 18.6609 15.87V19.675C17.7949 20.0971 16.886 20.425 15.9499 20.653C15.4929 20.765 15.0299 20.849 14.5539 20.899C14.0679 20.953 13.5789 20.978 13.0899 20.978C12.433 20.9792 11.7783 20.9013 11.1399 20.746C10.5274 20.5965 9.93563 20.3722 9.37795 20.078C8.83165 19.7894 8.32425 19.4326 7.86795 19.016C6.94427 18.1829 6.27195 17.1081 5.92695 15.913C5.74599 15.2779 5.65609 14.6204 5.65995 13.96C5.65995 13.223 5.76095 12.521 5.96295 11.85C6.35717 10.5302 7.14753 9.36357 8.22695 8.508C8.78776 8.06512 9.40992 7.70603 10.0739 7.442C9.69601 7.82055 9.40018 8.27297 9.20495 8.771C8.99989 9.26234 8.8649 9.78007 8.80395 10.309H15.1949C15.1949 9.663 15.1319 9.102 14.9989 8.62C14.8679 8.136 14.6569 7.735 14.3619 7.419C14.0528 7.08589 13.6629 6.83823 13.2299 6.7C12.7679 6.54 12.209 6.459 11.5549 6.459C10.7839 6.459 10.0119 6.57 9.24095 6.803C8.4713 7.03009 7.73244 7.35083 7.04095 7.758C6.34595 8.17 5.70595 8.655 5.12195 9.21C4.55489 9.75084 4.05952 10.3622 3.64795 11.029C3.73195 10.287 3.89495 9.555 4.13295 8.849C4.36133 8.17004 4.66736 7.51973 5.04495 6.911C5.41308 6.32427 5.85056 5.78404 6.34795 5.302C6.84194 4.81821 7.39856 4.40284 8.00295 4.067C8.61898 3.72238 9.27576 3.4563 9.95795 3.275C10.6904 3.10704 11.4395 3.02184 12.1909 3.021C12.6509 3.021 13.1079 3.062 13.5659 3.145C14.0229 3.229 14.4689 3.341 14.9049 3.487C15.7395 3.76988 16.5217 4.1885 17.2199 4.726C17.8837 5.24264 18.4612 5.86133 18.9309 6.559C19.3939 7.251 19.7439 8.018 19.9859 8.851C20.2279 9.684 20.3509 10.552 20.3509 11.453V13.683H20.3489V13.684Z" fill="black"/>
</svg>
