<svg width="24" height="24" viewBox="0 0 24 24" fill="none" xmlns="http://www.w3.org/2000/svg">
<path d="M6.21699 12.486C8.18099 12.064 7.90999 9.71403 7.85399 9.19903C7.75799 8.41103 6.82599 7.02703 5.56299 7.13803C3.97499 7.27903 3.74199 9.57803 3.74199 9.57803C3.52599 10.638 4.25699 12.908 6.21699 12.486ZM9.86299 8.54203C10.947 8.54203 11.822 7.29103 11.822 5.75003C11.822 4.21303 10.951 2.96503 9.86699 2.96503C8.78099 2.96503 7.90099 4.20703 7.90099 5.75003C7.90099 7.29303 8.78099 8.54203 9.86599 8.54203M14.537 8.72803C15.991 8.92303 16.917 7.37303 17.105 6.19803C17.293 5.03203 16.351 3.67003 15.329 3.43503C14.298 3.19803 13.026 4.84603 12.898 5.91903C12.762 7.23703 13.086 8.54603 14.532 8.73203M20.283 10.705C20.283 10.143 19.823 8.45203 18.093 8.45203C16.364 8.45203 16.128 10.048 16.128 11.178C16.128 12.255 16.217 13.751 18.375 13.706C20.523 13.654 20.288 11.268 20.288 10.704M18.1 15.626C18.1 15.626 15.853 13.887 14.543 12.013C12.767 9.24503 10.239 10.373 9.39899 11.774C8.55399 13.192 7.24599 14.08 7.05999 14.318C6.87199 14.55 4.35099 15.914 4.91299 18.397C5.47599 20.88 7.44099 20.836 7.44099 20.836C7.44099 20.836 8.88699 20.978 10.574 20.602C12.26 20.227 13.704 20.693 13.704 20.693C13.704 20.693 17.624 22.01 18.709 19.481C19.781 16.944 18.099 15.634 18.099 15.634" fill="black"/>
</svg>
