<svg width="24" height="24" viewBox="0 0 24 24" fill="none" xmlns="http://www.w3.org/2000/svg">
<path d="M9.37 17.51C6.28 18.37 11.24 20.15 15.17 18.51C14.7886 18.3617 14.4206 18.181 14.07 17.97C12.7056 18.2806 11.2962 18.3416 9.91 18.15C8.6 18 9.37 17.51 9.37 17.51ZM14.7 15.83C12.94 16.2127 11.1287 16.3006 9.34 16.09C8.03 15.95 8.89 15.32 8.89 15.32C5.49 16.44 10.78 17.72 15.53 16.32C15.2212 16.2185 14.938 16.0513 14.7 15.83ZM16.52 6.09998C16.52 6.09998 9.65 7.80998 12.93 11.59C13.058 11.7434 13.1533 11.9213 13.2102 12.1128C13.2672 12.3043 13.2845 12.5054 13.2611 12.7038C13.2377 12.9022 13.1741 13.0937 13.0742 13.2667C12.9743 13.4397 12.8401 13.5905 12.68 13.71C12.68 13.71 15.14 12.44 14.01 10.85C12.88 9.25998 12.15 8.62998 16.52 6.09998Z" fill="black"/>
<path d="M18.13 19.14C18.13 19.14 18.69 19.6 17.5 19.96C15.23 20.65 8.06999 20.86 6.07999 19.96C5.35999 19.65 6.69999 19.22 7.07999 19.13C7.30524 19.0719 7.53741 19.0449 7.76999 19.05C6.96999 18.49 2.61999 20.15 5.55999 20.63C13.61 22 20.2 20.07 18.13 19.14ZM15.37 14.26C15.6641 14.074 15.9716 13.9102 16.29 13.77C16.29 13.77 14.78 14.04 13.29 14.17C11.6877 14.3246 10.0751 14.3414 8.46999 14.22C6.08999 13.91 9.73999 13 9.73999 13C8.64159 12.9915 7.55742 13.2488 6.57999 13.75C4.51999 14.78 11.67 15.23 15.37 14.26ZM16.28 16.7C16.2581 16.734 16.2312 16.7643 16.2 16.79C21.2 15.47 19.38 12.14 16.98 12.98C16.8476 13.0287 16.7327 13.1157 16.65 13.23C16.65 13.23 16.79 13.18 17.08 13.11C18.3 12.86 20 14.74 16.28 16.7ZM12 13C11.26 11.33 8.73999 9.86 12 7.29C16.09 4.08 14 2 14 2C14.84 5.31 11 6.31 9.65999 8.37C8.72999 9.78 10.13 11.29 12 13Z" fill="black"/>
<path d="M16.41 21.32C13.3888 21.8372 10.3057 21.8844 7.27002 21.46C7.27002 21.46 7.73002 21.84 10.11 21.99C13.72 22.22 19.26 21.87 19.4 20.16C19.4 20.16 19.14 20.8 16.41 21.32Z" fill="black"/>
</svg>
