<svg width="24" height="24" viewBox="0 0 24 24" fill="none" xmlns="http://www.w3.org/2000/svg">
<path d="M12.9258 20.6312L13.3381 21.5422L12.9258 20.6312ZM11.074 20.6312L10.6616 21.5422L11.074 20.6312ZM4.21799 4.09204L5.10899 4.54603L4.21799 4.09204ZM5.0918 3.21799L5.54579 4.10899L5.0918 3.21799ZM12.3389 20.8262L12.1697 19.8406L12.3389 20.8262ZM11.6619 20.8262L11.8311 19.8406L11.6619 20.8262ZM19.7822 4.09204L18.8912 4.54603V4.54603L19.7822 4.09204ZM18.9078 3.21799L19.3618 2.32698V2.32698L18.9078 3.21799ZM12.0498 15H13.0498C13.0498 14.4477 12.6021 14 12.0498 14V15ZM12.0498 15.1L12.0496 16.1C12.3148 16.1001 12.5692 15.9947 12.7568 15.8072C12.9444 15.6197 13.0498 15.3653 13.0498 15.1H12.0498ZM11.9502 15.1H10.9502C10.9502 15.6522 11.3978 16.0998 11.9499 16.1L11.9502 15.1ZM11.9502 15V14C11.3979 14 10.9502 14.4477 10.9502 15H11.9502ZM13 8C13 7.44772 12.5523 7 12 7C11.4477 7 11 7.44772 11 8H13ZM11 12C11 12.5523 11.4477 13 12 13C12.5523 13 13 12.5523 13 12H11ZM19 6.19995V10.1648H21V6.19995H19ZM19 10.1648C19 16.1204 14.5186 18.8125 12.5134 19.7201L13.3381 21.5422C15.5453 20.5431 21 17.3457 21 10.1648H19ZM11.4863 19.7201C9.48121 18.8125 5 16.1204 5 10.1648H3C3 17.3457 8.45439 20.5431 10.6616 21.5422L11.4863 19.7201ZM5 10.1648V6.19995H3V10.1648H5ZM7.2002 4H16.8002V2H7.2002V4ZM5 6.19995C5 5.6234 5.00078 5.25114 5.02393 4.96783C5.04612 4.6962 5.0838 4.59549 5.10899 4.54603L3.32698 3.63805C3.13419 4.01642 3.06287 4.40961 3.03057 4.80495C2.99922 5.18861 3 5.6564 3 6.19995H5ZM7.2002 2C6.65663 2 6.18874 1.99922 5.80498 2.03057C5.40962 2.06286 5.01624 2.13416 4.63781 2.32698L5.54579 4.10899C5.59517 4.08383 5.69595 4.04613 5.9678 4.02393C6.25126 4.00078 6.62365 4 7.2002 4V2ZM5.10899 4.54603C5.205 4.35761 5.35788 4.20474 5.54579 4.10899L4.63781 2.32698C4.07306 2.61473 3.61447 3.07382 3.32698 3.63805L5.10899 4.54603ZM12.5134 19.7201C12.3914 19.7753 12.3497 19.7936 12.3113 19.8071C12.2867 19.8157 12.2517 19.8266 12.1697 19.8406L12.5081 21.8118C12.8903 21.7462 13.0955 21.652 13.3381 21.5422L12.5134 19.7201ZM10.6616 21.5422C10.9057 21.6527 11.1113 21.7463 11.4927 21.8118L11.8311 19.8406C11.7488 19.8265 11.7132 19.8156 11.6881 19.8068C11.6497 19.7933 11.6074 19.7749 11.4863 19.7201L10.6616 21.5422ZM12.1697 19.8406C12.182 19.8385 12.1712 19.8409 12.1299 19.8433C12.0936 19.8454 12.0485 19.8467 12.0004 19.8467C11.9522 19.8467 11.9072 19.8454 11.8709 19.8433C11.8295 19.8409 11.8187 19.8385 11.8311 19.8406L11.4927 21.8118C11.6579 21.8402 11.8554 21.8467 12.0004 21.8467C12.1453 21.8467 12.3429 21.8402 12.5081 21.8118L12.1697 19.8406ZM21 6.19995C21 5.6565 21.0008 5.1887 20.9695 4.80511C20.9373 4.40983 20.8661 4.01653 20.6732 3.63805L18.8912 4.54603C18.9164 4.59537 18.954 4.69598 18.9762 4.96767C18.9993 5.25105 19 5.6233 19 6.19995H21ZM16.8002 4C17.3768 4 17.7489 4.00078 18.0321 4.02393C18.3036 4.04611 18.4043 4.08377 18.4538 4.10899L19.3618 2.32698C18.9835 2.13421 18.5904 2.06288 18.1951 2.03057C17.8115 1.99922 17.3437 2 16.8002 2V4ZM20.6732 3.63805C20.3854 3.07315 19.9259 2.61439 19.3618 2.32698L18.4538 4.10899C18.6424 4.20508 18.7956 4.35828 18.8912 4.54603L20.6732 3.63805ZM11.0498 15V15.1H13.0498V15H11.0498ZM12.0501 14.1L11.9504 14.1L11.9499 16.1L12.0496 16.1L12.0501 14.1ZM12.9502 15.1V15H10.9502V15.1H12.9502ZM11.9502 16H12.0498V14H11.9502V16ZM11 8V12H13V8H11Z" fill="black"/>
</svg>
