<svg width="24" height="24" viewBox="0 0 24 24" fill="none" xmlns="http://www.w3.org/2000/svg">
<path d="M20 10.1648V6.19995V6.19666C20 5.07875 20 4.51945 19.7822 4.09204C19.5905 3.71572 19.2841 3.40973 18.9078 3.21799C18.48 3 17.9203 3 16.8002 3H7.2002C6.08009 3 5.51962 3 5.0918 3.21799C4.71547 3.40973 4.40973 3.71572 4.21799 4.09204C4 4.51986 4 5.07985 4 6.19995V10.1648C4 16.7331 8.9678 19.6778 11.074 20.6312C11.2972 20.7322 11.4092 20.7828 11.6619 20.8262C11.8213 20.8536 12.1795 20.8536 12.3389 20.8262C12.5901 20.7831 12.7012 20.7328 12.922 20.6329L12.9258 20.6312C15.0319 19.6778 20 16.7331 20 10.1648Z" stroke="black" stroke-width="2" stroke-linecap="round" stroke-linejoin="round"/>
</svg>
