<svg width="24" height="24" viewBox="0 0 24 24" fill="none" xmlns="http://www.w3.org/2000/svg">
<path d="M21 17.8V6.19995V6.19666C21 5.07875 21 4.51945 20.7822 4.09204C20.5905 3.71572 20.2841 3.40973 19.9078 3.21799C19.48 3 18.9203 3 17.8002 3H6.2002C5.08009 3 4.51962 3 4.0918 3.21799C3.71547 3.40973 3.40973 3.71572 3.21799 4.09204C3 4.51986 3 5.07985 3 6.19995V17.8C3 18.9201 3 19.4802 3.21799 19.908C3.40973 20.2844 3.71547 20.5902 4.0918 20.782C4.51962 21 5.08009 21 6.2002 21H17.8002C18.9203 21 19.48 21 19.9078 20.782C20.2841 20.5902 20.5905 20.2844 20.7822 19.908C21 19.4806 21 18.9212 21 17.8032V17.8Z" stroke="black" stroke-width="2" stroke-linecap="round" stroke-linejoin="round"/>
</svg>
