<svg width="24" height="24" viewBox="0 0 24 24" fill="none" xmlns="http://www.w3.org/2000/svg">
<path d="M15 13L11 17L9 15M16.8499 20H7.15039C5.33152 20 4.42222 20 3.89649 19.618C3.43792 19.2849 3.14206 18.7727 3.08281 18.209C3.01489 17.5627 3.46947 16.7752 4.37891 15.2L9.22865 6.80005C10.1381 5.22486 10.5927 4.43717 11.1863 4.17285C11.7041 3.94231 12.2957 3.94231 12.8135 4.17285C13.4071 4.43716 13.8621 5.22487 14.7715 6.80005L19.6212 15.2C20.5307 16.7752 20.9852 17.5627 20.9173 18.209C20.8581 18.7727 20.5622 19.2849 20.1036 19.618C19.5779 20 18.6687 20 16.8499 20Z" stroke="black" stroke-width="2" stroke-linecap="round" stroke-linejoin="round"/>
</svg>
