<svg width="24" height="24" viewBox="0 0 24 24" fill="none" xmlns="http://www.w3.org/2000/svg">
<path d="M14.4671 4.49924L13.2461 3.45874C12.5283 2.84702 11.472 2.84702 10.7542 3.45874L9.53339 4.49927C9.22578 4.76141 8.84281 4.91988 8.43994 4.95203L6.8418 5.07959C5.90167 5.15461 5.15481 5.90118 5.07978 6.84131L4.95176 8.44043C4.91961 8.8433 4.76165 9.22572 4.49951 9.53332L3.45882 10.7543C2.8471 11.4721 2.84729 12.5279 3.45901 13.2457L4.49905 14.4667C4.76119 14.7743 4.92003 15.1567 4.95217 15.5596L5.0801 17.1587C5.15513 18.0988 5.90072 18.8454 6.84085 18.9204L8.44046 19.048C8.84332 19.0801 9.22563 19.2386 9.53323 19.5007L10.7539 20.5413C11.4718 21.153 12.5283 21.153 13.2461 20.5412L14.4668 19.5007C14.7744 19.2385 15.1567 19.0802 15.5596 19.048L17.1592 18.9204C18.0993 18.8454 18.8449 18.0988 18.9199 17.1587L19.0479 15.5596C19.08 15.1567 19.2389 14.7743 19.501 14.4667L20.541 13.2457C21.1528 12.5279 21.1532 11.4721 20.5415 10.7543L19.5006 9.53336C19.2384 9.22576 19.0797 8.84327 19.0476 8.4404L18.9209 6.84128C18.8459 5.90115 18.0988 5.15466 17.1587 5.07963L15.5598 4.95197C15.1569 4.91983 14.7747 4.76138 14.4671 4.49924Z" stroke="black" stroke-width="2" stroke-linecap="round" stroke-linejoin="round"/>
</svg>
