<svg width="24" height="24" viewBox="0 0 24 24" fill="none" xmlns="http://www.w3.org/2000/svg">
<path d="M15 10L11 14L9.00003 12M13.2461 3.45874L14.4671 4.49924C14.7747 4.76138 15.1569 4.91983 15.5598 4.95197L17.1587 5.07963C18.0988 5.15466 18.8459 5.90115 18.9209 6.84128L19.0476 8.4404C19.0797 8.84327 19.2384 9.22576 19.5006 9.53336L20.5415 10.7543C21.1532 11.4721 21.1528 12.5279 20.541 13.2457L19.501 14.4667C19.2389 14.7743 19.08 15.1567 19.0479 15.5596L18.9199 17.1587C18.8449 18.0988 18.0993 18.8454 17.1592 18.9204L15.5596 19.048C15.1567 19.0802 14.7744 19.2385 14.4668 19.5007L13.2461 20.5412C12.5283 21.153 11.4718 21.153 10.7539 20.5413L9.53323 19.5007C9.22563 19.2386 8.84332 19.0801 8.44046 19.048L6.84085 18.9204C5.90072 18.8454 5.15513 18.0988 5.0801 17.1587L4.95217 15.5596C4.92003 15.1567 4.76119 14.7743 4.49905 14.4667L3.45901 13.2457C2.84729 12.5279 2.8471 11.4721 3.45882 10.7543L4.49951 9.53332C4.76165 9.22572 4.91961 8.8433 4.95176 8.44043L5.07978 6.84131C5.15481 5.90118 5.90167 5.15461 6.8418 5.07959L8.43994 4.95203C8.84281 4.91988 9.22578 4.76141 9.53339 4.49927L10.7542 3.45874C11.472 2.84702 12.5283 2.84702 13.2461 3.45874Z" stroke="black" stroke-width="2" stroke-linecap="round" stroke-linejoin="round"/>
</svg>
