<svg width="24" height="24" viewBox="0 0 24 24" fill="none" xmlns="http://www.w3.org/2000/svg">
<path d="M13.2461 3.45874L12.5975 4.21985L13.2461 3.45874ZM14.4671 4.49924L13.8185 5.26035L13.8185 5.26035L14.4671 4.49924ZM15.5598 4.95197L15.6393 3.95515L15.6393 3.95514L15.5598 4.95197ZM17.1587 5.07963L17.0791 6.07646L17.0791 6.07647L17.1587 5.07963ZM18.9209 6.84128L19.9178 6.76233L19.9177 6.76174L18.9209 6.84128ZM19.0476 8.4404L18.0507 8.51936L18.0507 8.51995L19.0476 8.4404ZM19.5006 9.53336L18.7395 10.182L18.7396 10.1821L19.5006 9.53336ZM20.5415 10.7543L21.3026 10.1057L21.3025 10.1055L20.5415 10.7543ZM20.541 13.2457L19.7799 12.5971L19.7798 12.5972L20.541 13.2457ZM19.501 14.4667L20.2621 15.1153L20.2623 15.1151L19.501 14.4667ZM19.0479 15.5596L20.0447 15.6394L20.0447 15.6392L19.0479 15.5596ZM18.9199 17.1587L17.9231 17.0789L17.9231 17.0791L18.9199 17.1587ZM17.1592 18.9204L17.2387 19.9172L17.2388 19.9172L17.1592 18.9204ZM15.5596 19.048L15.4801 18.0512L15.48 18.0512L15.5596 19.048ZM14.4668 19.5007L13.8182 18.7396L13.8181 18.7397L14.4668 19.5007ZM13.2461 20.5412L13.8947 21.3023L13.8948 21.3023L13.2461 20.5412ZM10.7539 20.5413L10.1052 21.3023L10.1053 21.3024L10.7539 20.5413ZM9.53323 19.5007L10.1819 18.7397L10.1818 18.7396L9.53323 19.5007ZM8.44046 19.048L8.52 18.0511L8.51995 18.0511L8.44046 19.048ZM6.84085 18.9204L6.7613 19.9172L6.76135 19.9172L6.84085 18.9204ZM5.0801 17.1587L6.07694 17.0791L6.07692 17.0789L5.0801 17.1587ZM4.95217 15.5596L3.95534 15.6391L3.95536 15.6393L4.95217 15.5596ZM4.49905 14.4667L3.7378 15.1151L3.73794 15.1153L4.49905 14.4667ZM3.45901 13.2457L4.22026 12.5973L4.22013 12.5971L3.45901 13.2457ZM3.45882 10.7543L2.69777 10.1056L2.6977 10.1057L3.45882 10.7543ZM4.49951 9.53332L5.26056 10.182L5.26062 10.1819L4.49951 9.53332ZM4.95176 8.44043L3.95495 8.36062L3.95493 8.36088L4.95176 8.44043ZM5.07978 6.84131L6.07659 6.92111L6.07661 6.92086L5.07978 6.84131ZM6.8418 5.07959L6.92135 6.07642L6.92137 6.07642L6.8418 5.07959ZM8.43994 4.95203L8.36039 3.95519L8.36038 3.9552L8.43994 4.95203ZM9.53339 4.49927L10.182 5.26038L10.1821 5.26033L9.53339 4.49927ZM10.7542 3.45874L10.1056 2.69763L10.1055 2.69768L10.7542 3.45874ZM12.0498 15.45H13.0498C13.0498 14.8977 12.6021 14.45 12.0498 14.45V15.45ZM12.0498 15.55L12.0496 16.55C12.3148 16.55 12.5693 16.4447 12.7569 16.2571C12.9444 16.0696 13.0498 15.8152 13.0498 15.55H12.0498ZM11.9502 15.5499H10.9502C10.9502 16.1021 11.3978 16.5498 11.95 16.5499L11.9502 15.5499ZM11.9502 15.45V14.45C11.3979 14.45 10.9502 14.8977 10.9502 15.45H11.9502ZM13 8.44995C13 7.89767 12.5523 7.44995 12 7.44995C11.4477 7.44995 11 7.89767 11 8.44995H13ZM11 12.45C11 13.0022 11.4477 13.45 12 13.45C12.5523 13.45 13 13.0022 13 12.45H11ZM12.5975 4.21985L13.8185 5.26035L15.1157 3.73812L13.8947 2.69762L12.5975 4.21985ZM13.8185 5.26035C14.2861 5.65884 14.8673 5.8999 15.4802 5.94881L15.6393 3.95514C15.4464 3.93975 15.2633 3.86392 15.1157 3.73812L13.8185 5.26035ZM15.4802 5.9488L17.0791 6.07646L17.2383 4.08281L15.6393 3.95515L15.4802 5.9488ZM17.0791 6.07647C17.5302 6.11246 17.8881 6.4706 17.9241 6.92083L19.9177 6.76174C19.8036 5.33171 18.6675 4.19686 17.2382 4.0828L17.0791 6.07647ZM17.924 6.92024L18.0507 8.51936L20.0444 8.36145L19.9178 6.76233L17.924 6.92024ZM18.0507 8.51995C18.0997 9.13309 18.3412 9.7146 18.7395 10.182L20.2617 8.88474C20.1357 8.73692 20.0598 8.55345 20.0444 8.36086L18.0507 8.51995ZM18.7396 10.1821L19.7805 11.4031L21.3025 10.1055L20.2616 8.88458L18.7396 10.1821ZM19.7804 11.4029C20.0733 11.7466 20.0734 12.2527 19.7799 12.5971L21.3022 13.8943C22.2321 12.8031 22.2331 11.1976 21.3026 10.1057L19.7804 11.4029ZM19.7798 12.5972L18.7397 13.8183L20.2623 15.1151L21.3023 13.8941L19.7798 12.5972ZM18.7399 13.8181C18.3417 14.2853 18.1 14.8667 18.051 15.4801L20.0447 15.6392C20.0601 15.4467 20.136 15.2633 20.2621 15.1153L18.7399 13.8181ZM18.0511 15.4799L17.9231 17.0789L19.9168 17.2384L20.0447 15.6394L18.0511 15.4799ZM17.9231 17.0791C17.8871 17.5304 17.5296 17.8876 17.0797 17.9236L17.2388 19.9172C18.6691 19.8031 19.8027 18.6672 19.9168 17.2382L17.9231 17.0791ZM17.0797 17.9236L15.4801 18.0512L15.6391 20.0448L17.2387 19.9172L17.0797 17.9236ZM15.48 18.0512C14.8674 18.1001 14.2859 18.341 13.8182 18.7396L15.1154 20.2618C15.2629 20.1361 15.4461 20.0603 15.6391 20.0448L15.48 18.0512ZM13.8181 18.7397L12.5974 19.7802L13.8948 21.3023L15.1155 20.2617L13.8181 18.7397ZM12.5975 19.7801C12.2534 20.0733 11.7466 20.0733 11.4025 19.7801L10.1053 21.3024C11.1969 22.2326 12.8032 22.2326 13.8947 21.3023L12.5975 19.7801ZM11.4026 19.7802L10.1819 18.7397L8.88452 20.2618L10.1052 21.3023L11.4026 19.7802ZM10.1818 18.7396C9.71422 18.3411 9.13283 18.1 8.52 18.0511L8.36091 20.0448C8.55382 20.0602 8.73703 20.1361 8.88461 20.2618L10.1818 18.7396ZM8.51995 18.0511L6.92034 17.9236L6.76135 19.9172L8.36096 20.0448L8.51995 18.0511ZM6.92039 17.9236C6.47045 17.8877 6.11295 17.5304 6.07694 17.0791L4.08327 17.2382C4.19731 18.6672 5.33098 19.8031 6.7613 19.9172L6.92039 17.9236ZM6.07692 17.0789L5.94899 15.4798L3.95536 15.6393L4.08329 17.2384L6.07692 17.0789ZM5.94901 15.48C5.90006 14.8667 5.65834 14.2853 5.26016 13.8181L3.73794 15.1153C3.86404 15.2633 3.93999 15.4467 3.95534 15.6391L5.94901 15.48ZM5.2603 13.8182L4.22026 12.5973L2.69776 13.8942L3.7378 15.1151L5.2603 13.8182ZM4.22013 12.5971C3.92679 12.2529 3.92685 11.7468 4.21993 11.4029L2.6977 10.1057C1.76734 11.1974 1.76778 12.8029 2.6979 13.8943L4.22013 12.5971ZM4.21987 11.403L5.26056 10.182L3.73846 8.88463L2.69777 10.1056L4.21987 11.403ZM5.26062 10.1819C5.65972 9.71363 5.89976 9.13189 5.94859 8.51998L3.95493 8.36088C3.93946 8.5547 3.86357 8.73781 3.73839 8.88471L5.26062 10.1819ZM5.94857 8.52023L6.07659 6.92111L4.08297 6.7615L3.95495 8.36062L5.94857 8.52023ZM6.07661 6.92086C6.11256 6.47044 6.47052 6.1124 6.92135 6.07642L6.76225 4.08276C5.33282 4.19683 4.19706 5.33191 4.08295 6.76176L6.07661 6.92086ZM6.92137 6.07642L8.51951 5.94886L8.36038 3.9552L6.76223 4.08276L6.92137 6.07642ZM8.51949 5.94886C9.13187 5.89999 9.71404 5.65918 10.182 5.26038L8.88477 3.73815C8.73753 3.86363 8.55376 3.93976 8.36039 3.95519L8.51949 5.94886ZM10.1821 5.26033L11.4029 4.2198L10.1055 2.69768L8.88471 3.7382L10.1821 5.26033ZM11.4028 4.21985C11.7469 3.92664 12.2534 3.92664 12.5975 4.21985L13.8947 2.69763C12.8032 1.76739 11.1972 1.76739 10.1056 2.69763L11.4028 4.21985ZM11.0498 15.45V15.55H13.0498V15.45H11.0498ZM12.0501 14.55L11.9505 14.5499L11.95 16.5499L12.0496 16.55L12.0501 14.55ZM12.9502 15.5499V15.45H10.9502V15.5499H12.9502ZM11.9502 16.45H12.0498V14.45H11.9502V16.45ZM11 8.44995V12.45H13V8.44995H11Z" fill="black"/>
</svg>
