<svg width="24" height="24" viewBox="0 0 24 24" fill="none" xmlns="http://www.w3.org/2000/svg">
<path fill-rule="evenodd" clip-rule="evenodd" d="M5.30619 6.75819L5.65303 9.87981L5.17693 9.92162C4.07635 10.0183 3.18559 10.857 3.02292 11.9497C2.67253 14.3036 2.67253 16.6964 3.02292 19.0503C3.18559 20.1431 4.07635 20.9818 5.17693 21.0784L6.31138 21.178C7.53158 21.2852 8.75527 21.3391 9.97898 21.3397C10.154 21.3398 10.245 21.1279 10.1326 20.9938C9.11353 19.7779 8.49995 18.2106 8.49995 16.5C8.49995 13.1206 10.8947 10.3005 14.0798 9.64415C14.2559 9.60786 14.3929 9.46555 14.4128 9.28685L14.6937 6.75819C14.7342 6.39421 14.7342 6.02687 14.6937 5.66289L14.671 5.458C14.4295 3.28461 12.7209 1.56495 10.5491 1.30944C10.1843 1.26652 9.81565 1.26652 9.45083 1.30944C7.27904 1.56495 5.57044 3.28461 5.32895 5.45799L5.30619 5.66289C5.26575 6.02687 5.26575 6.39421 5.30619 6.75819ZM10.3738 2.79917C10.1254 2.76995 9.87448 2.76995 9.62609 2.79917C8.14747 2.97312 6.98419 4.14393 6.81978 5.62364L6.79701 5.82854C6.7688 6.08242 6.7688 6.33865 6.79701 6.59254L7.14861 9.75687C9.04733 9.62818 10.9526 9.62818 12.8513 9.75687L13.2029 6.59254C13.2311 6.33865 13.2311 6.08242 13.2029 5.82854L13.1801 5.62364C13.0157 4.14393 11.8524 2.97312 10.3738 2.79917Z" fill="black"/>
<path d="M16.25 15C16.25 14.5858 15.9142 14.25 15.5 14.25C15.0857 14.25 14.75 14.5858 14.75 15V16.7727C14.75 17.0127 14.8648 17.2382 15.0588 17.3793L16.0588 18.1066C16.3938 18.3502 16.8629 18.2761 17.1065 17.9411C17.3501 17.6062 17.2761 17.1371 16.9411 16.8935L16.25 16.3908V15Z" fill="black"/>
<path fill-rule="evenodd" clip-rule="evenodd" d="M15.5 22C18.5375 22 21 19.5376 21 16.5C21 13.4624 18.5375 11 15.5 11C12.4624 11 9.99995 13.4624 9.99995 16.5C9.99995 19.5376 12.4624 22 15.5 22ZM15.5 20.5C17.7091 20.5 19.5 18.7092 19.5 16.5C19.5 14.2909 17.7091 12.5 15.5 12.5C13.2908 12.5 11.5 14.2909 11.5 16.5C11.5 18.7092 13.2908 20.5 15.5 20.5Z" fill="black"/>
</svg>
