<svg width="24" height="24" viewBox="0 0 24 24" fill="none" xmlns="http://www.w3.org/2000/svg">
<path fill-rule="evenodd" clip-rule="evenodd" d="M10.5328 3.81144C10.2853 3.8475 10.0429 3.91246 9.81057 4.00497C8.42735 4.55569 7.60674 5.98768 7.8309 7.45953L7.86195 7.66334C7.90041 7.91587 7.96672 8.16337 8.05968 8.4013L8.97458 10.743C11.1638 10.5942 13.3612 10.6071 15.5489 10.7817L17.0451 10.9011C18.0132 10.9784 18.8037 11.7062 18.9606 12.6646C19.3223 14.8735 19.3223 17.1265 18.9606 19.3354C18.8037 20.2938 18.0132 21.0215 17.0451 21.0988L15.5489 21.2183C13.1868 21.4068 10.8134 21.4068 8.45124 21.2183L6.95511 21.0988C5.98701 21.0215 5.19651 20.2938 5.03958 19.3354C4.67789 17.1265 4.67789 14.8735 5.03958 12.6646C5.19651 11.7062 5.98701 10.9784 6.95511 10.9011L7.4117 10.8647L6.66253 8.94716C6.52926 8.60605 6.43419 8.25123 6.37905 7.88919L6.348 7.68538C6.01875 5.52354 7.22405 3.42026 9.25571 2.61137C9.59699 2.47548 9.95303 2.38008 10.3165 2.32712C12.4804 2.01182 14.5759 3.23066 15.3717 5.26749L15.4467 5.45951C15.58 5.80062 15.675 6.15544 15.7302 6.51749L15.8715 7.4455C15.9131 7.71849 15.7255 7.9735 15.4525 8.01508L14.9582 8.09037C14.6852 8.13194 14.4302 7.94434 14.3886 7.67135L14.2473 6.74334C14.2088 6.4908 14.1425 6.2433 14.0496 6.00537L13.9745 5.81335C13.4327 4.42661 12.0061 3.59678 10.5328 3.81144ZM12.0001 14.5C11.1716 14.5 10.5001 15.1716 10.5001 16C10.5001 16.8284 11.1716 17.5 12.0001 17.5C12.8285 17.5 13.5001 16.8284 13.5001 16C13.5001 15.1716 12.8285 14.5 12.0001 14.5Z" fill="black"/>
</svg>
