<svg width="24" height="24" viewBox="0 0 24 24" fill="none" xmlns="http://www.w3.org/2000/svg">
<path opacity="0.4" fill-rule="evenodd" clip-rule="evenodd" d="M10.1315 9.06262C9.8386 8.7697 9.36372 8.76965 9.0708 9.06251C8.77788 9.35537 8.77783 9.83025 9.07069 10.1232L10.9385 11.9914L9.07325 13.8566C8.78035 14.1495 8.78035 14.6244 9.07325 14.9173C9.36614 15.2102 9.84101 15.2102 10.1339 14.9173L11.9991 13.0521L13.8667 14.9202C14.1596 15.2131 14.6344 15.2131 14.9273 14.9203C15.2203 14.6274 15.2203 14.1525 14.9275 13.8596L13.0597 11.9915L14.9259 10.1253C15.2188 9.83241 15.2188 9.35753 14.9259 9.06464C14.633 8.77175 14.1581 8.77175 13.8652 9.06464L11.9992 10.9307L10.1315 9.06262Z" fill="black"/>
<path fill-rule="evenodd" clip-rule="evenodd" d="M16.3345 2.75024H7.66549C4.64449 2.75024 2.75049 4.88924 2.75049 7.91624V16.0842C2.75049 19.1112 4.63549 21.2502 7.66549 21.2502H16.3335C19.3645 21.2502 21.2505 19.1112 21.2505 16.0842V7.91624C21.2505 4.88924 19.3645 2.75024 16.3345 2.75024Z" stroke="black" stroke-width="1.5" stroke-linecap="round" stroke-linejoin="round"/>
</svg>
