<svg width="24" height="24" viewBox="0 0 24 24" fill="none" xmlns="http://www.w3.org/2000/svg">
<path fill-rule="evenodd" clip-rule="evenodd" d="M14.7362 2.76196H8.08424C6.02524 2.76196 4.25024 4.43096 4.25024 6.49096V17.34C4.25024 19.516 5.90824 21.115 8.08424 21.115H16.0722C18.1322 21.115 19.8022 19.4 19.8022 17.34V8.03796L14.7362 2.76196Z" stroke="black" stroke-width="1.5" stroke-linecap="round" stroke-linejoin="round"/>
<path d="M14.4736 2.75024V5.65924C14.4736 7.07924 15.6226 8.23124 17.0426 8.23424C18.3586 8.23724 19.7056 8.23824 19.7966 8.23224" stroke="black" stroke-width="1.5" stroke-linecap="round" stroke-linejoin="round"/>
<path opacity="0.4" fill-rule="evenodd" clip-rule="evenodd" d="M12.5936 10.4645C12.5936 10.0503 12.2578 9.71448 11.8436 9.71448C11.4294 9.71448 11.0936 10.0503 11.0936 10.4645V12.1642H9.39331C8.9791 12.1642 8.64331 12.5 8.64331 12.9142C8.64331 13.3284 8.9791 13.6642 9.39331 13.6642H11.0936V15.3655C11.0936 15.7797 11.4294 16.1155 11.8436 16.1155C12.2578 16.1155 12.5936 15.7797 12.5936 15.3655V13.6642H14.2943C14.7085 13.6642 15.0443 13.3284 15.0443 12.9142C15.0443 12.5 14.7085 12.1642 14.2943 12.1642H12.5936V10.4645Z" fill="black"/>
</svg>
