<svg width="24" height="24" viewBox="0 0 24 24" fill="none" xmlns="http://www.w3.org/2000/svg">
<path fill-rule="evenodd" clip-rule="evenodd" d="M14.7365 2.76196H8.08449C6.02549 2.76196 4.25049 4.43096 4.25049 6.49096V17.228C4.25049 19.404 5.90849 21.115 8.08449 21.115H16.0725C18.1325 21.115 19.8025 19.288 19.8025 17.228V8.03796L14.7365 2.76196Z" stroke="black" stroke-width="1.5" stroke-linecap="round" stroke-linejoin="round"/>
<path d="M14.4736 2.75024V5.65924C14.4736 7.07924 15.6226 8.23124 17.0426 8.23424C18.3586 8.23724 19.7056 8.23824 19.7966 8.23224" stroke="black" stroke-width="1.5" stroke-linecap="round" stroke-linejoin="round"/>
<path opacity="0.4" fill-rule="evenodd" clip-rule="evenodd" d="M12.3907 9.4408C12.3907 9.02658 12.0549 8.6908 11.6407 8.6908C11.2265 8.6908 10.8907 9.02658 10.8907 9.4408V14.1981L9.33379 12.6341C9.04156 12.3405 8.56669 12.3394 8.27313 12.6317C7.97957 12.9239 7.97848 13.3988 8.27071 13.6923L11.1087 16.5433C11.2494 16.6847 11.4407 16.7642 11.6402 16.7642C11.8296 16.7642 12.0115 16.6926 12.1499 16.5644C12.1588 16.5562 12.1675 16.5477 12.176 16.539L15.0107 13.6924C15.303 13.3989 15.302 12.924 15.0085 12.6318C14.7149 12.3395 14.2401 12.3405 13.9478 12.634L12.3907 14.1977V9.4408Z" fill="black"/>
</svg>
