<svg width="24" height="24" viewBox="0 0 24 24" fill="none" xmlns="http://www.w3.org/2000/svg">
<path fill-rule="evenodd" clip-rule="evenodd" d="M12 2C17.5228 2 22 6.47716 22 12C22 17.5228 17.5228 22 12 22C6.47716 22 2 17.5228 2 12C2 6.47716 6.47716 2 12 2Z" stroke="black" stroke-width="1.5" stroke-linecap="round" stroke-linejoin="round"/>
<path opacity="0.4" fill-rule="evenodd" clip-rule="evenodd" d="M15.0502 12.467C14.3212 13.253 12.3372 14.583 11.3222 15.01C11.1602 15.078 10.7472 15.222 10.6582 15.224C10.4692 15.23 10.2872 15.124 10.1992 14.954C10.1652 14.888 10.0652 14.457 10.0332 14.265C9.93815 13.681 9.88915 12.774 9.89015 11.862C9.88915 10.905 9.94215 9.95495 10.0482 9.37695C10.0762 9.22095 10.1582 8.86195 10.1822 8.80395C10.2272 8.69595 10.3092 8.61095 10.4082 8.55795C10.4842 8.51695 10.5712 8.49495 10.6582 8.49795C10.7472 8.49995 11.1092 8.62695 11.2332 8.67595C12.2112 9.05595 14.2802 10.434 15.0402 11.244C15.1082 11.317 15.2952 11.513 15.3262 11.553C15.3972 11.643 15.4322 11.752 15.4322 11.862C15.4322 11.964 15.4012 12.068 15.3372 12.155C15.3042 12.2 15.1132 12.4 15.0502 12.467Z" stroke="black" stroke-width="1.5" stroke-linecap="round" stroke-linejoin="round"/>
</svg>
