<svg width="24" height="24" viewBox="0 0 24 24" fill="none" xmlns="http://www.w3.org/2000/svg">
<path opacity="0.4" fill-rule="evenodd" clip-rule="evenodd" d="M12.7499 8.32727C12.7499 7.91306 12.4141 7.57727 11.9999 7.57727C11.5857 7.57727 11.2499 7.91306 11.2499 8.32727V11.2405H8.33325C7.91904 11.2405 7.58325 11.5763 7.58325 11.9905C7.58325 12.4047 7.91904 12.7405 8.33325 12.7405H11.2499V15.6536C11.2499 16.0678 11.5857 16.4036 11.9999 16.4036C12.4141 16.4036 12.7499 16.0678 12.7499 15.6536V12.7405H15.6666C16.0808 12.7405 16.4166 12.4047 16.4166 11.9905C16.4166 11.5763 16.0808 11.2405 15.6666 11.2405H12.7499V8.32727Z" fill="black"/>
<path fill-rule="evenodd" clip-rule="evenodd" d="M16.6857 2H7.31429C4.04762 2 2 4.31208 2 7.58516V16.4148C2 19.6879 4.0381 22 7.31429 22H16.6857C19.9619 22 22 19.6879 22 16.4148V7.58516C22 4.31208 19.9619 2 16.6857 2Z" stroke="black" stroke-width="1.5" stroke-linecap="round" stroke-linejoin="round"/>
</svg>
