<svg width="24" height="24" viewBox="0 0 24 24" fill="none" xmlns="http://www.w3.org/2000/svg">
<path d="M6.09491 16.6501C5.85991 16.5771 5.64691 16.4691 5.45991 16.3091C4.69491 15.6561 4.75091 13.9121 4.75091 12.6331C4.75091 11.3551 4.69491 9.61007 5.45991 8.95807C6.16891 8.35107 6.67291 8.51007 7.96991 8.40707C9.26591 8.30407 12.0089 4.34907 14.1259 5.59907C14.6109 5.99307 14.8959 6.58107 15.0639 7.48607" stroke="black" stroke-width="1.5" stroke-linecap="round" stroke-linejoin="round"/>
<path d="M15.2835 14.6676C15.2465 17.5406 15.0215 18.9396 14.1265 19.6676C13.1465 20.2466 12.0365 19.7146 10.9915 18.9586" stroke="black" stroke-width="1.5" stroke-linecap="round" stroke-linejoin="round"/>
<path opacity="0.4" d="M4.75171 20.7496L8.46471 17.0366L15.2837 10.2166L20.7507 4.74963" stroke="black" stroke-width="1.5" stroke-linecap="round" stroke-linejoin="round"/>
</svg>
