<svg width="24" height="24" viewBox="0 0 24 24" fill="none" xmlns="http://www.w3.org/2000/svg">
<path d="M18.7501 7C18.7501 6.58579 18.4143 6.25 18.0001 6.25C17.5859 6.25 17.2501 6.58579 17.2501 7V17C17.2501 17.4142 17.5859 17.75 18.0001 17.75C18.4143 17.75 18.7501 17.4142 18.7501 17V7Z" fill="black"/>
<path d="M14.454 10.9452C15.144 11.4791 15.144 12.5208 14.454 13.0547C12.3159 14.7091 9.92836 16.0131 7.38082 16.9179L6.91477 17.0835C6.04513 17.3923 5.12584 16.8039 5.00801 15.9055C4.67116 13.337 4.67116 10.663 5.00801 8.09448C5.12584 7.19604 6.04513 6.60765 6.91477 6.91652L7.38082 7.08204C9.92835 7.98683 12.3159 9.29083 14.454 10.9452Z" fill="black"/>
</svg>
