<svg width="41" height="47" viewBox="0 0 41 47" fill="none" xmlns="http://www.w3.org/2000/svg">
<path d="M9.79363 31.6561C9.21412 30.3901 9.17845 30.0246 10.4534 29.5966C12.7358 28.8834 11.1666 30.4169 14.3049 33.9831H14.3317V25.6114C14.4387 21.1357 18.2546 17.3912 23.0422 17.3912C27.8478 17.3912 31.7528 21.2694 31.7528 26.0215C31.7528 31.674 26.3321 36.114 20.2962 34.3397C19.3601 33.9653 20.109 31.5135 21.0541 31.7899C25.7793 31.7899 29.0246 30.8894 29.0246 26.0482C29.0246 20.6097 22.1507 18.0598 18.6023 22.0719C16.5071 24.4256 17.0331 25.8253 17.0331 36.1229C21.5533 38.8867 27.5803 38.0843 31.3338 34.3308C33.5449 32.1198 34.7663 29.1598 34.7663 26.0393C34.7663 22.901 33.5359 19.9588 31.307 17.721C29.096 15.51 26.1538 14.2885 22.9888 14.2885C19.8237 14.2885 16.8548 15.5189 14.6526 17.721C14.6259 17.7478 13.2261 19.1921 12.7625 19.8519L12.718 19.9054C12.4237 20.3244 12.1563 20.7167 10.9259 20.4492C10.3107 20.2976 9.65098 19.9321 9.65098 19.3972V2.74278C9.65098 2.297 9.99869 1.80664 10.5871 1.80664H32.1005C32.8405 1.80664 32.8405 2.84085 32.8405 3.1529C32.8405 3.50061 32.8405 4.49916 32.1005 4.49916H12.2009V16.348H12.2276C21.5177 6.55867 37.441 13.1384 37.441 26.0571C37.441 41.9359 15.6155 45.6983 9.79363 31.6561ZM15.4372 8.4042C15.3926 8.77866 15.8473 10.5885 16.7389 10.2408C27.8656 6.0059 34.8198 13.8427 35.4082 13.8427C35.8362 13.8427 37.441 12.4786 36.6832 11.81C28.3738 3.87506 15.776 6.72806 15.4372 8.4042ZM35.6222 37.9327C25.815 47.731 8.96448 43.3534 6.02232 28.6427C6.02232 27.555 3.31197 27.9829 3.44571 28.9369C5.58546 44.3966 25.3781 51.8411 37.4677 39.7515C38.0829 39.0561 36.3444 37.2195 35.6222 37.9327ZM19.6276 28.295C19.6276 28.6516 20.0109 28.9458 20.1179 29.0528C20.3854 29.3203 20.6618 29.4451 20.8758 29.4451C21.2145 29.4451 21.1076 29.4629 22.8639 27.7065C24.6114 29.4272 24.5668 29.4451 24.8521 29.4451C25.3336 29.4451 26.5015 28.5178 25.8061 27.8224L24.2637 26.28L25.8863 24.6574C26.448 24.0511 24.9859 22.7138 24.442 23.2576L22.8461 24.8535C21.1878 23.1774 21.2056 23.115 20.9292 23.115C20.4835 23.115 19.3244 24.1581 19.8237 24.6574L21.4464 26.28C19.8326 27.8759 19.6276 27.9918 19.6276 28.295Z" fill="black"/>
</svg>
