<svg width="41" height="47" viewBox="0 0 41 47" fill="none" xmlns="http://www.w3.org/2000/svg">
<g clip-path="url(#clip0_201_7197)">
<path d="M38.4346 23.7658L37.2845 37.7901C36.9903 41.4188 31.5874 40.9195 31.8816 37.3532L32.7732 26.4316L29.1088 26.6366C30.0093 28.4822 30.5175 30.5506 30.5175 32.7439C30.5175 36.4171 29.0821 39.7604 26.7462 42.239L23.2424 38.7351C28.4045 33.0559 24.4103 23.8282 16.6448 23.8282C14.3357 23.8282 12.2316 24.7109 10.6535 26.1463L7.14966 22.6425C9.1111 20.7969 11.6164 19.5131 14.407 19.0584L21.1204 11.4177L17.3224 9.20661L12.7219 13.3078C10.0472 15.6972 6.4275 11.6584 9.1111 9.2601L15.1737 3.84832C16.0475 3.06374 17.3224 2.93892 18.3388 3.52735C18.3388 3.52735 30.7582 10.7401 30.7761 10.7579C32.2204 11.6584 32.6216 13.9675 31.3199 15.4475L26.1132 21.3764L35.5727 20.8504C37.2221 20.7523 38.5683 22.1343 38.4346 23.7658ZM32.6483 10.0358C35.1536 10.0358 37.1864 8.003 37.1864 5.49771C37.1864 2.99242 35.1536 0.959656 32.6483 0.959656C30.1431 0.959656 28.1103 2.99242 28.1103 5.49771C28.1103 8.003 30.1431 10.0358 32.6483 10.0358ZM16.6537 41.6595C9.46772 41.6595 5.29521 33.5819 9.2805 27.7422L5.74099 24.2027C3.88654 26.5475 2.78101 29.5164 2.78101 32.7349C2.78101 44.3877 16.2169 50.691 25.1949 43.6566L21.6554 40.1171C20.2289 41.0889 18.5082 41.6595 16.6537 41.6595Z" fill="black"/>
</g>
<defs>
<clipPath id="clip0_201_7197">
<rect width="39.942" height="45.648" fill="white" transform="translate(0.641357 0.959595)"/>
</clipPath>
</defs>
</svg>
