<svg width="58" height="47" viewBox="0 0 58 47" fill="none" xmlns="http://www.w3.org/2000/svg">
<g clip-path="url(#clip0_201_7195)">
<path d="M29.2984 23.427V23.3379L24.7336 17.4714C24.7336 17.4714 23.6637 17.614 22.5046 18.8176C21.7022 19.6468 0.919926 40.1349 0.804023 40.2954C0.179929 41.1869 0.946673 40.9016 2.20378 40.4469C2.2751 40.4469 12.4122 37.1838 12.4122 37.1838C12.4567 37.1303 12.4032 37.1749 12.4657 37.1303C12.43 36.6756 12.3943 34.7944 12.3765 34.6607C12.323 34.1971 12.5726 34.0455 13.0006 33.8672L21.2565 30.8537C21.31 30.7824 29.1468 23.5697 29.2984 23.427ZM43.5723 34.1347C44.758 35.5701 45.4178 35.3205 46.3183 34.9638C46.6036 34.8568 56.6069 30.72 56.8209 30.6041C57.5341 30.2207 56.6693 29.1152 56.179 28.5178C55.9917 28.295 37.893 6.62107 37.7058 6.38035C36.841 5.29264 36.4309 5.23023 34.2822 5.23915C33.3728 5.23915 24.7603 5.28373 23.8955 5.29264C22.1837 5.30156 20.9622 5.2659 22.1837 6.79938C22.8702 7.64637 43.0641 33.5195 43.5723 34.1347ZM57.1864 34.2773C56.9814 34.2506 54.9932 33.8583 53.7985 33.6354C53.7985 33.6354 43.5455 38.1289 43.3226 38.2359C41.8961 38.8867 40.9243 37.9506 40.0506 36.9342L34.9598 30.3366C34.4783 30.2564 29.5747 29.4807 29.1379 29.5075C28.8615 29.5253 28.282 29.5788 27.854 29.766C27.4172 29.9533 14.9085 34.4735 14.4628 34.6429C14.0081 34.8212 13.4464 34.9638 13.4731 35.3205C13.491 35.5434 13.6514 35.5523 13.8832 35.6325C14.124 35.7038 40.7104 41.6595 41.3434 41.7932C42.7342 42.0874 44.7759 42.7293 46.1221 41.9448C46.3094 41.8378 57.1597 35.1332 57.338 35.0084C57.8194 34.6518 57.7214 34.4022 57.1864 34.2773Z" fill="black"/>
</g>
<defs>
<clipPath id="clip0_201_7195">
<rect width="57.06" height="45.648" fill="white" transform="translate(0.581543 0.959595)"/>
</clipPath>
</defs>
</svg>
