<svg width="47" height="47" viewBox="0 0 47 47" fill="none" xmlns="http://www.w3.org/2000/svg">
<g clip-path="url(#clip0_201_7189)">
<path d="M43.4583 3.81262H3.03486C0.99318 3.81262 0.476074 4.33864 0.476074 6.38924V41.178C0.476074 43.2553 0.99318 43.7546 3.03486 43.7546H43.4583C45.6337 43.7546 46.1241 43.291 46.1241 41.1067V6.50514C46.1241 4.3119 45.6426 3.81262 43.4583 3.81262ZM16.3815 20.6007C13.9297 18.7998 9.95338 19.8251 8.87459 22.687C8.49122 23.6766 8.04544 23.534 7.31436 23.427C6.44954 23.2933 5.78087 23.1417 5.30834 22.9366C2.74064 21.9203 6.07509 18.0063 7.52833 17.2039C11.1927 15.2959 14.964 15.2246 18.6996 16.7759C22.3461 18.2738 21.7755 22.054 21.7755 28.2325C22.0162 30.5327 21.3921 33.4303 22.6046 36.1496C22.774 36.5419 22.6403 36.8539 22.3639 37.1036C21.615 37.7009 18.8601 37.2997 18.2092 36.4438C18.0399 36.2477 18.0488 36.1228 17.8615 35.891C17.5406 35.5433 17.2107 35.6949 16.8006 35.9802C11.683 39.2255 4.29196 37.8881 3.69461 32.1197C3.41823 29.5074 4.80015 27.0289 7.2252 25.7896C10.631 24.0511 17.2285 24.7376 17.389 23.0347C17.4871 22.1253 17.2196 21.2427 16.3815 20.6007ZM41.9426 40.3934C41.9426 41.7397 40.953 41.2761 40.3557 41.2761H5.14786C4.4881 41.2761 3.52522 41.704 3.56088 40.3221C3.59654 39.0828 4.49702 39.5108 5.08545 39.5108C16.8808 39.4751 28.6673 39.4751 40.4626 39.5108C41.0689 39.5108 41.9426 39.1185 41.9426 40.3934ZM42.2814 10.0357V35.9802C42.2814 36.4884 42.219 37.2195 41.5593 37.2195C40.4537 37.1838 39.1075 37.8525 38.3407 36.7202C37.8236 35.9445 37.6453 36.3636 37.2352 36.6132C32.4742 39.2611 25.8143 37.2462 24.361 29.0171C23.8172 26.0393 24.2986 23.0347 25.7608 20.1015C26.8128 17.9706 30.8338 13.3167 37.8949 17.3822V11.0521C37.8949 8.71621 37.886 8.71621 40.213 8.71621C40.4894 8.71621 40.8014 8.75188 41.0778 8.71621C41.9783 8.64489 42.2903 9.1085 42.2903 9.99115C42.2814 10.009 42.2814 10.0179 42.2814 10.0357ZM37.6899 30.7467C35.9513 34.9906 31.1904 34.6072 29.6658 31.2103C28.3196 28.2414 28.2839 25.1299 29.7015 22.161C31.1547 19.1207 35.0241 18.9781 36.9677 21.733C38.8043 24.3007 38.2961 29.2756 37.6899 30.7467ZM11.4066 33.8939C10.738 33.778 8.46447 33.5997 8.40206 31.4154C8.3664 30.1761 9.09748 29.3648 10.1674 29.1152C12.3428 28.5891 14.5628 28.2325 16.7382 27.8046C17.5317 27.6263 17.3979 28.1969 17.4336 28.6515C17.5584 31.5937 15.1066 33.9296 11.4066 33.8939Z" fill="black"/>
</g>
<defs>
<clipPath id="clip0_201_7189">
<rect width="45.648" height="45.648" fill="white" transform="translate(0.476074 0.959595)"/>
</clipPath>
</defs>
</svg>
