<svg width="47" height="47" viewBox="0 0 47 47" fill="none" xmlns="http://www.w3.org/2000/svg">
<g clip-path="url(#clip0_201_7187)">
<path d="M15.066 22.1253C10.4923 28.4465 4.67035 32.0038 2.07591 30.078C-0.527455 28.1434 1.07736 21.4656 5.65999 15.1444C10.2337 8.8232 16.0556 5.26586 18.65 7.19164C21.2445 9.11741 19.6397 15.8041 15.066 22.1253ZM46.3776 17.0167C39.7979 28.0185 29.2686 33.7513 22.7958 29.8195C20.5669 28.4643 19.1137 26.1463 18.4272 23.2398C15.4315 29.0171 10.1535 33.3857 3.79662 35.1154C8.2366 40.4023 14.8609 43.7546 22.252 43.7546C35.6254 43.7546 46.4668 32.7795 46.4668 19.2456C46.4757 18.4877 46.44 17.7477 46.3776 17.0167Z" fill="black"/>
</g>
<defs>
<clipPath id="clip0_201_7187">
<rect width="45.648" height="45.648" fill="white" transform="translate(0.827881 0.959595)"/>
</clipPath>
</defs>
</svg>
