<svg width="41" height="47" viewBox="0 0 41 47" fill="none" xmlns="http://www.w3.org/2000/svg">
<path d="M20.8564 34.2255C18.6061 31.402 17.283 28.927 16.8444 26.8095C14.8339 18.9638 26.8842 18.9638 24.8738 26.8095C24.3879 28.9716 23.0648 31.4456 20.8617 34.2255H20.8564ZM33.1733 40.7544C29.4234 42.3869 25.7136 39.7844 22.537 36.2547C31.8003 24.6582 26.648 18.4235 20.8564 18.4235C15.9599 18.4235 13.2638 22.5701 14.323 27.3837C14.9409 29.9862 16.5724 32.9461 19.1758 36.2547C16.2755 39.4688 13.7774 40.9524 11.5841 41.1512C7.12633 41.8136 3.63943 37.4904 5.2273 33.0299C6.57356 29.5386 15.1878 12.4188 15.5578 11.4934C16.962 8.81244 17.8367 6.3758 20.8519 6.3758C23.7352 6.3758 24.7213 8.68852 26.2343 11.7136C29.4439 18.0098 34.2004 27.537 36.473 33.0299C37.6472 35.9783 36.3509 39.3859 33.1733 40.7544ZM37.3637 28.6185C25.8732 4.16295 25.2366 3.81256 20.8564 3.81256C16.798 3.81256 15.0728 6.63614 13.3084 10.3022C3.8436 29.231 2.92618 31.9137 2.84683 32.1473C0.598312 38.3285 5.23087 43.7546 10.8379 43.7546C12.7735 43.7546 16.2417 43.2143 20.8564 38.1912C26.0881 43.8776 29.8843 43.7546 30.8749 43.7546C36.4819 43.759 41.1145 38.3285 38.8642 32.1473C38.866 31.8005 37.3646 28.6791 37.3646 28.6185H37.3637Z" fill="black"/>
</svg>
