<svg width="41" height="47" viewBox="0 0 41 47" fill="none" xmlns="http://www.w3.org/2000/svg">
<g clip-path="url(#clip0_201_7183)">
<path d="M21.3874 17.2396C16.992 17.2396 13.4346 20.7969 13.4346 25.1923C13.4346 29.5877 16.992 33.145 21.3874 33.145C25.7828 33.145 29.3401 29.5877 29.3401 25.1923C29.3401 20.7969 25.7739 17.2396 21.3874 17.2396ZM26.9775 22.2858L21.7262 25.014C21.5657 25.0942 21.3874 24.9783 21.3874 24.8089V18.88C21.3874 18.7463 21.5033 18.6393 21.6281 18.6482C23.964 18.7374 25.9878 20.048 27.0755 21.9559C27.1379 22.0718 27.0934 22.2234 26.9775 22.2858ZM35.6345 3.81262H6.19515C3.29757 3.81262 0.943848 6.16635 0.943848 9.06392V38.4944C0.943848 41.4009 3.29757 43.7546 6.19515 43.7546H35.6256C38.5321 43.7546 40.8769 41.4009 40.8769 38.5033V9.06392C40.8858 6.16635 38.5321 3.81262 35.6345 3.81262ZM17.5715 11.3642C17.5715 10.4013 18.3471 9.62561 19.31 9.62561H23.3488C24.3117 9.62561 25.0874 10.4013 25.0874 11.3642V12.7372C25.0874 12.8976 24.9358 13.0046 24.7931 12.9601C23.6965 12.6569 22.5553 12.5054 21.3963 12.5054C20.1927 12.5054 19.0158 12.6658 17.8835 12.9957C17.732 13.0403 17.5804 12.9244 17.5804 12.7728V11.3642H17.5715ZM10.0467 14.6629L10.8669 13.8427C11.5445 13.1651 12.6411 13.1651 13.3187 13.8427L14.0052 14.5292C14.1033 14.6273 14.0944 14.7967 13.9785 14.8858C13.4257 15.287 12.8997 15.7239 12.4093 16.2143C11.9279 16.6957 11.4821 17.2217 11.0898 17.7656C11.0007 17.8815 10.8313 17.8993 10.7332 17.7923L10.0467 17.1058C9.36911 16.4371 9.36911 15.3405 10.0467 14.6629ZM21.3874 36.4884C15.1464 36.4884 10.1002 31.4332 10.1002 25.2012C10.1002 18.9692 15.1554 13.914 21.3874 13.914C27.6283 13.914 32.6746 18.9603 32.6746 25.2012C32.6746 31.4243 27.6194 36.4884 21.3874 36.4884Z" fill="black"/>
</g>
<defs>
<clipPath id="clip0_201_7183">
<rect width="39.942" height="45.648" fill="white" transform="translate(0.943848 0.959595)"/>
</clipPath>
</defs>
</svg>
