<svg width="58" height="47" viewBox="0 0 58 47" fill="none" xmlns="http://www.w3.org/2000/svg">
<path d="M2.18994 29.9621C2.395 29.5877 2.65355 29.5253 3.05476 29.7392C3.98198 30.2385 4.89138 30.7556 5.83643 31.2281C9.45326 33.0317 13.2641 34.4166 17.1949 35.3561C19.0536 35.8045 20.9344 36.1557 22.8296 36.4081C25.6363 36.7854 28.4684 36.9404 31.2995 36.8717C32.8508 36.8361 34.4021 36.7113 35.9445 36.5329C40.9523 35.9492 45.8533 34.6647 50.5037 32.7171C50.7623 32.6101 51.0297 32.5387 51.315 32.6101C51.9124 32.7706 52.1174 33.4125 51.6806 33.8493C51.4149 34.0936 51.1285 34.3143 50.8247 34.5091C48.0876 36.3903 45.1008 37.7544 41.9447 38.7797C39.7592 39.484 37.5199 40.0088 35.2491 40.3488C33.6784 40.5894 32.0943 40.7323 30.506 40.7768C30.4312 40.7813 30.3568 40.7902 30.2831 40.8035H28.4019C28.3282 40.7902 28.2537 40.7813 28.179 40.7768C27.858 40.759 27.5371 40.75 27.225 40.7411C25.7191 40.6729 24.2187 40.5151 22.7315 40.2686C20.2896 39.8706 17.89 39.2468 15.5634 38.4052C10.7774 36.6792 6.36975 34.0455 2.58223 30.6486C2.42175 30.506 2.31476 30.3098 2.18994 30.1404V29.9621ZM16.2766 6.76368L15.8933 6.81717C14.6673 6.96849 13.5008 7.43204 12.5053 8.16343C12.2913 8.315 12.0952 8.47548 11.8723 8.64487C11.8534 8.6056 11.8413 8.56339 11.8366 8.52005C11.801 8.27933 11.7653 8.02969 11.7207 7.78897C11.6583 7.37885 11.4533 7.20054 11.0432 7.20054H10.0179C9.40268 7.20054 9.28678 7.31644 9.28678 7.93162V26.592C9.28678 26.6812 9.28678 26.7703 9.29569 26.8595C9.31352 27.127 9.47401 27.2964 9.73256 27.3053C10.3567 27.3142 10.9897 27.3142 11.6138 27.3053C11.8723 27.3053 12.0328 27.127 12.0595 26.8595C12.0685 26.7703 12.0685 26.6812 12.0685 26.592V20.1371C12.1665 20.2174 12.22 20.2619 12.2646 20.3065C13.8605 21.6349 15.6971 22.0718 17.7031 21.6795C19.5219 21.3229 20.7879 20.2084 21.6082 18.568C22.2323 17.3287 22.4908 16.0092 22.5265 14.6362C22.5711 13.1116 22.4195 11.6138 21.8043 10.1962C21.0465 8.44873 19.7894 7.29861 17.8904 6.90633C17.6051 6.84392 17.3108 6.81717 17.0166 6.77259C16.767 6.76368 16.5263 6.76368 16.2766 6.76368ZM12.0506 10.4993C12.0455 10.441 12.0571 10.3824 12.0839 10.3303C12.1107 10.2783 12.1517 10.2348 12.2022 10.2051C13.4236 9.35812 14.7699 8.91234 16.2677 9.02824C17.5961 9.12632 18.6838 9.77716 19.2544 11.3374C19.6022 12.2914 19.6913 13.281 19.6913 14.2795C19.6913 15.2068 19.62 16.1162 19.3347 17.0077C18.7284 18.9068 17.3376 19.6289 15.5366 19.5487C14.2884 19.4952 13.2007 19.0137 12.2022 18.3094C12.1524 18.279 12.1119 18.2354 12.0852 18.1836C12.0584 18.1317 12.0465 18.0734 12.0506 18.0152C12.0595 16.7581 12.0506 15.5099 12.0506 14.2528C12.0506 12.9957 12.0595 11.7564 12.0506 10.4993ZM30.3901 6.76368C30.3009 6.77259 30.2117 6.79042 30.1315 6.79934C29.2627 6.83599 28.3996 6.95843 27.5549 7.16488C27.011 7.30753 26.485 7.50367 25.959 7.68199C25.638 7.78897 25.4775 8.02078 25.4865 8.36849C25.4954 8.6627 25.4775 8.95692 25.4865 9.25114C25.4954 9.67909 25.6737 9.79499 26.0927 9.688C26.7881 9.50969 27.4836 9.31354 28.1879 9.17981C29.2845 8.97475 30.3901 8.8856 31.5045 9.05499C32.084 9.14415 32.6279 9.31354 33.0023 9.8039C33.3322 10.2319 33.457 10.74 33.4749 11.2661C33.5016 12.0061 33.4927 12.7461 33.5016 13.4861C33.4994 13.5281 33.4935 13.5699 33.4838 13.6109C33.4392 13.602 33.4035 13.6109 33.3679 13.602C32.4319 13.3712 31.477 13.225 30.5149 13.1651C29.5074 13.1116 28.5089 13.174 27.546 13.5128C26.3959 13.914 25.4686 14.6094 24.9248 15.7328C24.5057 16.6065 24.4433 17.5337 24.5771 18.4699C24.7554 19.7181 25.3795 20.681 26.485 21.2961C27.546 21.8846 28.6961 21.9559 29.864 21.7776C31.2103 21.5725 32.405 21.0019 33.457 20.1371C33.5 20.0983 33.548 20.0653 33.5997 20.039C33.6532 20.3778 33.6978 20.6988 33.7602 21.0198C33.8137 21.2961 33.9831 21.4745 34.2416 21.4834C34.723 21.4923 35.2134 21.4923 35.6949 21.4834C35.8065 21.4825 35.9136 21.4383 35.9934 21.3602C36.0732 21.282 36.1196 21.176 36.1228 21.0643C36.1302 20.9813 36.1332 20.898 36.1317 20.8147V11.3641C36.1361 10.9792 36.1092 10.5946 36.0515 10.214C35.8821 9.06391 35.3917 8.11885 34.3575 7.50367C33.7602 7.14705 33.1004 6.96874 32.4139 6.87066C32.0929 6.82609 31.772 6.79934 31.451 6.75476C31.1033 6.76368 30.7467 6.76368 30.3901 6.76368ZM33.5105 18.1489C33.5139 18.2014 33.5033 18.2537 33.4798 18.3007C33.4563 18.3477 33.4208 18.3876 33.3768 18.4164C32.3782 19.1386 31.2816 19.62 30.0423 19.7448C29.5342 19.7983 29.026 19.7805 28.5445 19.5843C28.28 19.4876 28.0419 19.3298 27.8498 19.1238C27.6577 18.9177 27.517 18.6693 27.439 18.3986C27.2622 17.836 27.2591 17.2333 27.4301 16.6689C27.653 15.9289 28.179 15.5099 28.8922 15.2781C29.6081 15.0622 30.3606 14.9955 31.1033 15.082C31.8522 15.1444 32.5833 15.287 33.3322 15.3851C33.4749 15.4029 33.5194 15.4742 33.5194 15.6169C33.5105 16.0448 33.5194 16.4639 33.5194 16.8918C33.5194 17.3198 33.5016 17.7299 33.5105 18.1489ZM56.6822 29.6857C56.5931 29.24 56.2543 29.0706 55.8709 28.9457C55.2632 28.7546 54.6345 28.6379 53.9986 28.598C52.8313 28.4984 51.6559 28.5554 50.5037 28.7674C49.2288 29.0082 48.0162 29.4183 46.9375 30.1583C46.809 30.2408 46.6971 30.3467 46.6076 30.4703C46.5764 30.5236 46.5563 30.5827 46.5486 30.6441C46.541 30.7054 46.5459 30.7676 46.563 30.8269C46.5987 30.9607 46.7502 30.9963 46.884 30.9874C46.9495 30.9889 47.015 30.9859 47.0801 30.9785C47.7755 30.9072 48.462 30.8269 49.1574 30.7556C50.1738 30.6575 51.1991 30.5951 52.2155 30.6754C52.6506 30.7115 53.0808 30.7922 53.4994 30.9161C53.9541 31.0409 54.1591 31.3797 54.1769 31.8433C54.2126 32.5566 54.0521 33.2431 53.8649 33.9207C53.4994 35.2937 52.9733 36.6221 52.4562 37.9416C52.4185 38.0279 52.3887 38.1174 52.3671 38.2091C52.3225 38.4676 52.4741 38.637 52.7326 38.5746C52.8922 38.5388 53.0397 38.4619 53.1606 38.3517C53.5628 37.9778 53.941 37.5788 54.2928 37.157C55.434 35.6949 56.1027 34.0098 56.495 32.2C56.5663 31.879 56.6198 31.5491 56.6822 31.2281V29.6857ZM44.9047 18.7017C43.7546 15.5188 42.6045 12.333 41.4543 9.14415C41.276 8.63596 41.0799 8.13668 40.8927 7.63741C40.7946 7.37885 40.6074 7.20946 40.3221 7.20946C39.6445 7.20054 38.9669 7.19163 38.2804 7.20054C38.0575 7.20054 37.9505 7.37885 37.9951 7.60175C38.038 7.78697 38.0946 7.96875 38.1645 8.1456C39.9119 12.4697 41.6683 16.7938 43.4336 21.1178C43.5852 21.4834 43.6208 21.7954 43.4514 22.1699C43.1572 22.8207 42.9254 23.5072 42.6223 24.1581C42.3548 24.7376 41.909 25.1744 41.2671 25.3438C40.8194 25.4608 40.3539 25.4941 39.8941 25.4419C39.6712 25.4241 39.4483 25.3706 39.2254 25.3528C38.9223 25.3349 38.7707 25.4687 38.7618 25.7807C38.7529 26.0779 38.7529 26.3721 38.7618 26.6633C38.7707 27.1537 38.9401 27.3766 39.4216 27.4568C39.9184 27.5558 40.4222 27.6154 40.9283 27.6352C42.4529 27.6708 43.6654 27.0556 44.45 25.7272C44.7658 25.2026 45.04 24.6541 45.2702 24.0867C47.3832 18.7552 49.4814 13.4177 51.5647 8.07427C51.6297 7.91643 51.6775 7.75202 51.7073 7.58391C51.743 7.33428 51.6271 7.19163 51.3774 7.19163C50.789 7.18271 50.1917 7.19163 49.6032 7.19163C49.4535 7.18115 49.3045 7.2211 49.1801 7.30512C49.0557 7.38915 48.9629 7.5124 48.9167 7.65524C48.8721 7.78006 48.8186 7.89596 48.7741 8.02078L45.6714 16.9364C45.4485 17.5783 45.2167 18.2292 44.9849 18.9157C44.9493 18.8176 44.9314 18.7641 44.9047 18.7017Z" fill="black"/>
</svg>
