<svg width="40" height="47" viewBox="0 0 40 47" fill="none" xmlns="http://www.w3.org/2000/svg">
<g clip-path="url(#clip0_201_7177)">
<path d="M22.9313 15.4653C18.5894 15.6258 7.81928 16.8473 7.81928 25.9412C7.81928 35.7038 20.1496 36.105 24.1794 29.7927C24.759 30.7021 27.3356 33.1361 28.2182 33.9653L33.2823 28.9725C33.2823 28.9725 30.4026 26.7169 30.4026 24.2651V11.1502C30.4026 8.89453 28.2182 3.81262 20.3903 3.81262C12.5446 3.81262 8.38097 8.71622 8.38097 13.1116L14.9339 13.7179C16.3872 9.30465 19.7662 9.30465 19.7662 9.30465C23.3949 9.29573 22.9313 11.9615 22.9313 15.4653ZM22.9313 23.2041C22.9313 30.3366 15.4243 29.2667 15.4243 24.7376C15.4243 20.5294 19.9267 19.6824 22.9313 19.5844V23.2041ZM35.0565 37.7811C34.37 38.6727 28.8156 43.7546 19.4987 43.7546C10.1819 43.7546 3.04942 37.3799 0.865096 34.7498C0.258834 34.0633 0.954253 33.7424 1.35546 34.0098C7.89061 37.9773 18.099 44.5124 34.5662 36.7113C35.2348 36.3814 35.7519 36.8896 35.0565 37.7811ZM38.6049 37.9773C38.0254 39.386 37.1784 40.3667 36.7148 40.7411C36.2245 41.1423 35.8678 40.9819 36.1353 40.4023C36.4028 39.8228 37.856 36.2566 37.2676 35.4987C36.6881 34.7587 33.9688 35.1154 32.9881 35.2134C32.0252 35.3026 31.8291 35.3918 31.7399 35.1867C31.5348 34.6785 33.6746 33.8048 35.0833 33.6265C36.483 33.466 38.7387 33.5551 39.1844 34.1347C39.5143 34.5894 39.1844 36.5508 38.6049 37.9773Z" fill="black"/>
</g>
<defs>
<clipPath id="clip0_201_7177">
<rect width="39.942" height="45.648" fill="white" transform="translate(0 0.959595)"/>
</clipPath>
</defs>
</svg>
