<svg width="40" height="46" viewBox="0 0 40 46" fill="none" xmlns="http://www.w3.org/2000/svg">
<path d="M21.4265 3.16467C15.9077 3.16467 9.70246 4.67141 5.00392 8.10393C4.54923 8.38031 4.1926 8.92417 4.362 9.83356C4.46007 10.2883 4.81669 12.2764 5.27139 13.3641C5.63693 14.2735 6.53741 14.2735 7.08126 13.908C9.97884 11.9198 15.6848 9.65525 20.6598 9.65525C25.8219 9.65525 25.9111 12.1873 25.9111 16.1726V19.6051C18.1188 20.6125 6.99211 22.6899 4.18368 23.8668C1.01864 25.32 1.47333 32.2029 1.47333 33.8344C1.47333 35.466 2.82851 43.1067 12.6089 43.1067C16.8706 43.1067 22.746 41.2611 26.2766 39.3532V41.6178C26.2766 41.8852 26.4638 42.3488 26.8205 42.4291C27.0968 42.5182 31.3407 42.6074 32.1609 42.6074C32.9811 42.6074 37.7332 42.6341 38.0898 42.545C38.4553 42.4558 38.5445 42.0011 38.5445 41.7337V15.2899C38.5356 8.13067 33.3824 3.16467 21.4265 3.16467ZM25.9021 34.191C23.9942 35.3679 21.5602 36.3665 18.8499 36.3665C14.1424 36.3665 13.5986 33.3797 13.5897 32.3812C13.5897 31.2935 13.3222 28.5742 15.2212 27.6648C17.3877 26.4879 21.9169 25.0436 25.9021 24.6781V34.191Z" fill="black"/>
</svg>
