<svg width="53" height="46" viewBox="0 0 53 46" fill="none" xmlns="http://www.w3.org/2000/svg">
<g clip-path="url(#clip0_201_7173)">
<path d="M38.1602 27.2306C37.737 27.2306 37.3233 27.1051 36.9714 26.87C36.6195 26.6348 36.3453 26.3007 36.1833 25.9097C36.0214 25.5187 35.979 25.0884 36.0615 24.6734C36.1441 24.2583 36.3479 23.877 36.6472 23.5778C36.9464 23.2785 37.3277 23.0747 37.7427 22.9922C38.1578 22.9096 38.588 22.952 38.979 23.1139C39.37 23.2759 39.7042 23.5502 39.9393 23.902C40.1744 24.2539 40.2999 24.6676 40.2999 25.0908C40.2999 25.6583 40.0745 26.2026 39.6732 26.6039C39.2719 27.0051 38.7277 27.2306 38.1602 27.2306ZM14.5249 27.2306C14.1017 27.2306 13.688 27.1051 13.3361 26.87C12.9842 26.6348 12.7099 26.3007 12.548 25.9097C12.386 25.5187 12.3437 25.0884 12.4262 24.6734C12.5088 24.2583 12.7126 23.877 13.0118 23.5778C13.3111 23.2785 13.6924 23.0747 14.1074 22.9922C14.5225 22.9096 14.9527 22.952 15.3437 23.1139C15.7347 23.2759 16.0689 23.5502 16.304 23.902C16.5391 24.2539 16.6646 24.6676 16.6646 25.0908C16.6646 25.6583 16.4392 26.2026 16.0379 26.6039C15.6366 27.0051 15.0924 27.2306 14.5249 27.2306ZM38.9269 14.3493L43.2011 6.94931C43.2691 6.84796 43.3156 6.73374 43.3376 6.6137C43.3597 6.49367 43.3569 6.37038 43.3293 6.25148C43.3018 6.13258 43.2502 6.0206 43.1776 5.92246C43.1051 5.82433 43.0131 5.74214 42.9075 5.68099C42.8019 5.61983 42.6848 5.58101 42.5636 5.56693C42.4424 5.55285 42.3195 5.56381 42.2027 5.59913C42.0859 5.63445 41.9776 5.69338 41.8844 5.77226C41.7913 5.85115 41.7154 5.94832 41.6614 6.05775L37.3337 13.5531C33.8769 12.0027 30.1311 11.2012 26.3425 11.2012C22.5539 11.2012 18.8082 12.0027 15.3513 13.5531L11.0237 6.05775C10.9697 5.94832 10.8937 5.85115 10.8006 5.77226C10.7075 5.69338 10.5992 5.63445 10.4823 5.59913C10.3655 5.56381 10.2427 5.55285 10.1214 5.56693C10.0002 5.58101 9.88317 5.61983 9.77755 5.68099C9.67193 5.74214 9.58 5.82433 9.50744 5.92246C9.43488 6.0206 9.38323 6.13258 9.35571 6.25148C9.32819 6.37038 9.32537 6.49367 9.34743 6.6137C9.3695 6.73374 9.41597 6.84796 9.48397 6.94931L13.7581 14.3493C6.41878 18.3408 1.40017 25.7702 0.665527 34.5476H52.0195C51.2849 25.7702 46.2654 18.3408 38.9269 14.3493Z" fill="black"/>
</g>
<defs>
<clipPath id="clip0_201_7173">
<rect width="51.354" height="45.648" fill="white" transform="translate(0.665771 0.311646)"/>
</clipPath>
</defs>
</svg>
