<svg width="41" height="46" viewBox="0 0 41 46" fill="none" xmlns="http://www.w3.org/2000/svg">
<g clip-path="url(#clip0_201_7171)">
<path d="M31.6703 19.5159C32.7134 16.6094 35.718 8.20197 35.718 5.50945C35.718 3.1379 34.3182 1.14971 31.8218 1.14971C27.8455 1.14971 24.2792 12.8916 23.1648 15.6911C22.2999 13.1501 18.2523 0.311646 14.686 0.311646C11.9132 0.311646 10.6116 2.35332 10.6116 4.92102C10.6116 8.06824 13.6607 16.226 14.7662 19.3643C14.2046 19.1593 13.5983 18.981 12.9831 18.981C10.8969 18.981 8.67687 21.5754 8.67687 23.6706C8.67687 24.4641 9.11374 25.5785 9.39012 26.3185C6.10026 27.2101 4.83424 29.4033 4.83424 32.711C4.82532 39.1481 10.9236 45.9596 19.5004 45.9596C30.0209 45.9596 36.5649 38.0604 36.5649 27.8698C36.5649 24.0272 35.9498 20.559 31.6703 19.5159ZM28.5141 9.94052C28.8708 8.8439 30.3953 4.20777 31.8218 4.20777C32.5886 4.20777 32.7936 5.00126 32.7936 5.63427C32.7936 7.33716 29.3522 16.7431 28.5944 18.8294L25.5631 18.2945L28.5141 9.94052ZM13.4111 4.61789C13.4111 3.55693 14.7038 0.543452 17.539 8.81715L20.6238 17.7595C19.233 17.6436 18.1542 17.4921 17.4677 17.8843C16.4959 15.3166 13.4111 7.21234 13.4111 4.61789ZM13.206 22.0658C15.8183 22.0658 19.1884 30.4999 19.1884 31.6411C19.1884 32.0958 18.7515 32.6575 18.2433 32.6575C16.38 32.6575 11.3872 25.8014 11.3872 23.947C11.3961 23.2605 12.5195 22.0658 13.206 22.0658ZM29.6375 38.6756C27.0431 41.5286 23.7264 43.0086 19.8571 43.0086C14.5612 43.0086 10.3798 40.1021 8.36483 35.1361C6.84025 31.2667 8.70362 29.0467 10.2014 29.0467C11.2178 29.0467 15.0426 34.4228 15.0426 35.564C15.0426 36.0009 14.3561 36.304 13.9995 36.304C12.5641 36.304 12.0024 34.9221 9.44362 31.7214C6.79568 34.3693 11.2713 39.4691 14.6414 39.4691C16.9684 39.4691 18.4841 37.3115 18.0294 35.7245C18.3592 35.7245 18.7694 35.7512 19.0725 35.671C19.1706 38.0871 19.8838 40.9669 22.7903 41.1719C22.7903 41.0917 22.9686 40.5389 22.9686 40.5122C22.9686 38.9609 22.0236 37.6057 22.0236 36.0276C22.0236 33.5045 23.9583 31.0616 25.9197 29.6351C26.6329 29.1002 27.4978 28.7703 28.3358 28.4672C29.2006 28.1373 30.1189 27.7539 30.7787 27.0942C30.6806 26.0956 30.2705 25.213 29.272 25.213C26.8023 25.213 18.5197 25.5696 18.5197 21.6735C18.5197 21.0761 18.5286 20.5055 20.071 20.5055C22.9508 20.5055 30.2616 21.2188 32.4013 23.1C34.0151 24.5354 34.5678 33.1925 29.6375 38.6756ZM20.8467 27.4419C21.7115 27.7183 22.6031 27.7985 23.4946 27.9768C22.8349 28.4583 22.2465 29.0467 21.6848 29.6797C21.4351 28.9219 21.132 28.1819 20.8467 27.4419Z" fill="black"/>
</g>
<defs>
<clipPath id="clip0_201_7171">
<rect width="39.942" height="45.648" fill="white" transform="translate(0.723633 0.311646)"/>
</clipPath>
</defs>
</svg>
