<svg width="58" height="46" viewBox="0 0 58 46" fill="none" xmlns="http://www.w3.org/2000/svg">
<g clip-path="url(#clip0_201_7169)">
<path d="M57.7245 21.5487L57.4392 24.0629L54.3633 24.2679L54.185 25.8817L57.2609 25.6766L56.9756 28.1908L53.9086 28.3869L53.7035 30.179L56.7705 29.9828L56.503 32.3098L50.7346 32.6754L51.8669 22.5829L47.6498 32.8715L44.8057 33.0498L42.6838 22.5472L45.3852 22.3689L46.5978 29.4479L49.424 22.1014L57.7245 21.5487ZM38.7164 33.4332L41.2395 33.2727L42.3896 22.565L39.8576 22.7344L38.7164 33.4332ZM15.1078 34.9132L13.3782 31.7036L13.0661 35.038L10.5519 35.1896L10.7926 32.5951C9.81191 34.1999 7.93963 35.6532 5.71964 35.7869C2.79531 35.9652 0.39701 33.9235 0.691226 30.598C0.923032 27.9857 3.0717 24.999 6.70927 24.7672C10.0705 24.5532 10.9531 26.8356 11.283 27.3349L11.5326 24.5889L15.0008 24.366C16.7928 24.2501 18.4511 24.6959 18.7899 26.479L19.0217 24.1074L24.7991 23.733L24.5583 26.2205L21.3131 26.4344L21.1615 28.0303L24.4068 27.8253L24.1661 30.3127L20.9208 30.5178L20.7514 32.292L23.9877 32.0869L23.8005 33.9414L28.7041 23.4923L30.826 23.3496L33.6879 33.2103L34.4814 25.5785L32.4933 25.7033L32.7518 23.2159L39.4385 22.779L39.1711 25.2754L37.0046 25.418L36.1397 33.6115L30.9687 33.9414L30.5853 32.5505L27.0726 32.7734L26.3593 34.2267L15.1078 34.9132ZM11.1582 28.6544L8.80444 28.806C8.2071 27.7004 7.52059 27.326 6.45963 27.3973C4.76567 27.5043 3.49073 28.9575 3.37483 30.3662C3.25001 31.7927 4.02567 33.2638 5.93361 33.1479C7.07481 33.0766 7.83264 32.3811 8.51023 31.4628L10.9174 31.3113L11.1582 28.6544ZM16.1598 27.9679C16.2668 26.8178 15.4822 26.7554 13.8329 26.8624L13.5921 29.4033C14.8582 29.3231 16.0439 29.2161 16.1598 27.9679ZM18.041 34.2802L18.5581 28.9308C18.1124 30.1344 17.2475 30.812 16.0707 31.3024L18.041 34.2802ZM30.1128 30.2681L29.4084 26.898L27.9998 30.4019L30.1128 30.2681ZM14.9473 23.6171L14.5639 22.0569L11.0333 22.2887L10.3112 23.9113L7.4671 24.0985L12.549 13.2304L14.6798 13.0877L17.4169 22.1817L18.2996 12.847L20.7068 12.6865L24.0769 18.3569L24.6564 12.4191L27.1974 12.2497L26.8407 15.9229C27.5005 14.7193 28.8824 11.9376 32.5111 11.688C36.1219 11.4383 37.1829 14.3003 37.272 14.3894L37.5662 11.5364L41.0701 11.2957C42.2024 11.2155 43.5486 11.3224 44.3065 12.1605L43.9142 11.0996L46.785 10.9034L47.9351 14.755L49.9857 10.6805L52.7495 10.4844L48.8623 17.4742L48.4344 21.4238L45.9024 21.5932L46.3303 17.6436L44.9216 13.8099C45.0108 15.7981 44.1014 17.3851 42.0686 18.2321L44.3154 21.6913L41.0701 21.9053L39.3583 18.6243L39.0017 22.039L36.4696 22.2084L36.7638 19.4C36.1665 20.2292 35.0075 22.5561 31.4501 22.7879C29.1142 22.9395 27.3846 21.8696 26.5109 19.293L26.1542 22.886L23.9253 23.0287L20.5731 17.3851L20.0114 23.2872L14.9473 23.6171ZM39.6079 16.2974C40.5173 16.235 41.1682 16.1101 41.5337 15.914C41.9349 15.7 42.1578 15.3434 42.2113 14.8352C42.2648 14.3627 42.1578 14.0506 41.9082 13.908C41.5872 13.7207 40.9631 13.6583 39.8665 13.7297L39.6079 16.2974ZM29.881 19.3911C30.3803 19.9171 31.0133 20.1489 31.78 20.0954C32.199 20.0687 32.5913 19.9349 32.9658 19.7299C33.4561 19.4624 33.9108 19.0166 34.312 18.4549L31.2629 18.66L31.4769 16.5292L37.1026 16.1458L37.2096 15.0759L34.4279 15.2631C34.0624 14.9333 33.7325 14.6747 33.4383 14.541C33.0817 14.3894 32.7161 14.2913 32.3506 14.3181C31.6374 14.3627 30.9865 14.6391 30.3892 15.1383C29.7027 15.7089 29.3193 16.4311 29.2391 17.3137C29.141 18.1696 29.3639 18.8561 29.881 19.3911ZM11.9338 20.1222L14.0557 19.9795L13.3157 16.6272L11.9338 20.1222Z" fill="black"/>
</g>
<defs>
<clipPath id="clip0_201_7169">
<rect width="57.06" height="45.648" fill="white" transform="translate(0.663818 0.311646)"/>
</clipPath>
</defs>
</svg>
