<svg width="46" height="46" viewBox="0 0 46 46" fill="none" xmlns="http://www.w3.org/2000/svg">
<g clip-path="url(#clip0_201_7163)">
<path d="M22.9475 11.0906L23.7589 9.69089C24.2581 8.81716 25.3726 8.52294 26.2463 9.02222C27.12 9.52149 27.4143 10.6359 26.915 11.5097L19.1138 25.0168H24.7574C26.5851 25.0168 27.6104 27.1655 26.8169 28.6544H10.2784C9.27097 28.6544 8.45964 27.8431 8.45964 26.8356C8.45964 25.8282 9.27097 25.0168 10.2784 25.0168H14.9146L20.8524 14.7282L18.9979 11.5097C18.4986 10.6359 18.7929 9.53041 19.6666 9.02222C20.5403 8.52294 21.6459 8.81716 22.154 9.69089L22.9475 11.0906ZM15.9309 30.5267L14.1835 33.558C13.6842 34.4317 12.5697 34.726 11.696 34.2267C10.8223 33.7274 10.5281 32.613 11.0273 31.7392L12.329 29.4925C13.7912 29.0378 14.9859 29.3855 15.9309 30.5267ZM30.9894 25.0258H35.7236C36.7311 25.0258 37.5424 25.8371 37.5424 26.8445C37.5424 27.852 36.7311 28.6633 35.7236 28.6633H33.0935L34.8677 31.7392C35.367 32.613 35.0728 33.7185 34.199 34.2267C33.3253 34.726 32.2198 34.4317 31.7116 33.558C28.7249 28.378 26.4781 24.4997 24.9892 21.9142C23.4646 19.2841 24.5523 16.6451 25.6311 15.7535C26.8258 17.8041 28.609 20.8978 30.9894 25.0258ZM22.9564 1.0249C10.742 1.0249 0.845703 10.9212 0.845703 23.1356C0.845703 35.35 10.742 45.2464 22.9564 45.2464C35.1708 45.2464 45.0672 35.35 45.0672 23.1356C45.0672 10.9212 35.1708 1.0249 22.9564 1.0249ZM42.2142 23.1356C42.2142 33.7185 33.6463 42.3934 22.9564 42.3934C12.3736 42.3934 3.6987 33.8255 3.6987 23.1356C3.6987 12.5528 12.2666 3.8779 22.9564 3.8779C33.5393 3.8779 42.2142 12.4458 42.2142 23.1356Z" fill="black"/>
</g>
<defs>
<clipPath id="clip0_201_7163">
<rect width="45.648" height="45.648" fill="white" transform="translate(0.131836 0.311646)"/>
</clipPath>
</defs>
</svg>
