<svg width="41" height="46" viewBox="0 0 41 46" fill="none" xmlns="http://www.w3.org/2000/svg">
<g clip-path="url(#clip0_201_7165)">
<path d="M36.4423 3.16461H5.05928C2.69664 3.16461 0.779785 5.08147 0.779785 7.44411V38.8271C0.779785 41.1897 2.69664 43.1066 5.05928 43.1066H36.4423C38.8049 43.1066 40.7218 41.1897 40.7218 38.8271V7.44411C40.7218 5.08147 38.8049 3.16461 36.4423 3.16461ZM12.1026 34.5922C11.6123 35.4481 10.5156 35.7334 9.66866 35.243C8.81276 34.7527 8.52746 33.656 9.01782 32.8091L10.2928 30.6069C11.7282 30.17 12.905 30.5088 13.8233 31.6233L12.1026 34.5922ZM24.4864 29.7867H8.26891C7.28819 29.7867 6.48578 28.9843 6.48578 28.0035C6.48578 27.0228 7.28819 26.2204 8.26891 26.2204H12.8159L18.6467 16.1279L16.819 12.9718C16.3286 12.1159 16.6228 11.0282 17.4698 10.5378C18.3257 10.0475 19.4134 10.3417 19.9038 11.1887L20.6973 12.5617L21.4908 11.1887C21.9811 10.3328 23.0778 10.0475 23.9247 10.5378C24.7806 11.0282 25.0659 12.1248 24.5756 12.9718L16.926 26.2204H22.4626C24.2635 26.2204 25.271 28.3334 24.4864 29.7867ZM33.2327 29.7867H30.6471L32.3946 32.8091C32.8849 33.665 32.5907 34.7527 31.7437 35.243C30.8878 35.7334 29.8001 35.4392 29.3098 34.5922C26.3765 29.5192 24.1833 25.7033 22.7122 23.1713C21.2233 20.5857 22.2843 18.0002 23.3452 17.1265C24.5132 19.1503 26.2606 22.1816 28.5965 26.2204H33.2327C34.2134 26.2204 35.0158 27.0228 35.0158 28.0035C35.0158 28.9932 34.2134 29.7867 33.2327 29.7867Z" fill="black"/>
</g>
<defs>
<clipPath id="clip0_201_7165">
<rect width="39.942" height="45.648" fill="white" transform="translate(0.779785 0.311646)"/>
</clipPath>
</defs>
</svg>
