<svg width="58" height="46" viewBox="0 0 58 46" fill="none" xmlns="http://www.w3.org/2000/svg">
<g clip-path="url(#clip0_201_7161)">
<path d="M3.82501 21.6289C5.80428 21.6289 6.41054 21.8785 6.81174 22.9306H6.88307V20.8889C6.88307 19.8814 6.45512 19.5159 5.28717 19.5159C4.27971 19.5159 4.00332 19.7388 3.94091 20.6571H0.499483C0.52623 19.4178 0.633218 18.9542 1.01659 18.4817C1.66743 17.6971 2.70164 17.4296 5.12669 17.4296C8.06885 17.4296 9.32595 17.8754 9.93221 19.1147C10.1105 19.4981 10.2888 20.5055 10.2888 21.2277V28.0303H6.87415L6.99006 26.3274H6.9009C6.42837 27.7183 5.68838 28.1462 3.73585 28.1462C1.03442 28.1462 0.0715332 27.2457 0.0715332 24.8207C0.0715332 22.5739 1.16815 21.6289 3.82501 21.6289ZM5.34958 25.9173C6.51753 25.9173 6.85632 25.6498 6.85632 24.7226C6.85632 23.9113 6.47295 23.6884 5.10886 23.6884C3.94091 23.6884 3.51296 23.9559 3.51296 24.7672C3.50405 25.6944 3.84284 25.9173 5.34958 25.9173ZM12.2859 17.4564H15.7006L15.5669 19.293H15.6382C16.4495 17.7684 17.0558 17.4296 18.9816 17.4296C20.2654 17.4296 21.1837 17.6971 21.79 18.2409C22.6637 19.0077 22.9312 20.0597 22.9312 22.5294C22.9312 25.204 22.6637 26.372 21.8524 27.2457C21.2461 27.8966 20.3902 28.1462 18.8924 28.1462C17.0736 28.1462 16.2891 27.6558 15.8789 26.2561H15.8076V32.5238H12.2859V17.4564ZM19.4987 22.8682C19.4987 20.4164 19.2045 19.9706 17.6531 19.9706C16.1464 19.9706 15.8076 20.4164 15.8076 22.5294C15.8076 25.0257 16.1197 25.5161 17.6977 25.5161C19.1599 25.5161 19.4987 25.0168 19.4987 22.8682ZM24.6608 17.4564H28.0755L27.9418 19.293H28.0131C28.8244 17.7684 29.4307 17.4296 31.3565 17.4296C32.6403 17.4296 33.5586 17.6971 34.1649 18.2409C35.0386 19.0077 35.3061 20.0597 35.3061 22.5294C35.3061 25.204 35.0386 26.372 34.2273 27.2457C33.621 27.8966 32.7651 28.1462 31.2584 28.1462C29.4396 28.1462 28.655 27.6558 28.2449 26.2561H28.1736V32.5238H24.6519V17.4564H24.6608ZM31.8736 22.8682C31.8736 20.4164 31.5793 19.9706 30.028 19.9706C28.5213 19.9706 28.1825 20.4164 28.1825 22.5294C28.1825 25.0257 28.4945 25.5161 30.0726 25.5161C31.5348 25.5161 31.8736 25.0168 31.8736 22.8682ZM36.6702 22.5294C36.6702 20.2648 36.9644 19.1593 37.7668 18.446C38.5514 17.7238 39.7461 17.4385 41.7877 17.4385C45.6036 17.4385 46.7537 18.5797 46.7537 22.4045V23.3942H40.0403C40.0135 23.5725 40.0135 23.7508 40.0135 23.8221C40.0135 25.3289 40.4147 25.7747 41.8056 25.7747C43.0448 25.7747 43.4015 25.5072 43.4015 24.5354H46.7448V24.7404C46.7448 25.6142 46.5219 26.4255 46.1386 26.9426C45.4877 27.8163 44.3911 28.1551 42.1889 28.1551C39.7371 28.1551 38.48 27.8609 37.6776 27.0585C36.9198 26.3007 36.6702 25.1595 36.6702 22.5294ZM43.4817 21.4952C43.455 21.3347 43.455 21.2009 43.455 21.1564C43.455 20.0597 43.1607 19.8547 41.7075 19.8547C40.4236 19.8547 40.1829 20.1221 40.0938 21.2009L40.067 21.4952H43.4817ZM48.4388 17.4564H51.8535L51.693 19.2306H51.7554C52.3617 17.9022 53.0393 17.4296 54.4033 17.4296C55.3662 17.4296 56.1062 17.7238 56.4896 18.2588C56.9621 18.9096 57.0959 19.5426 57.0959 21.2901C57.0959 21.4238 57.0959 21.7359 57.1137 22.1192H53.9932C54.02 21.9588 54.02 21.825 54.02 21.7626C54.02 20.3896 53.8417 20.033 53.1017 20.033C52.54 20.033 52.1388 20.3272 51.9337 20.8621C51.8446 21.1296 51.8446 21.2455 51.8446 21.9588V28.0214H48.4299V17.4564H48.4388Z" fill="black"/>
</g>
<defs>
<clipPath id="clip0_201_7161">
<rect width="57.06" height="45.648" fill="white" transform="translate(0.0717773 0.311646)"/>
</clipPath>
</defs>
</svg>
