<svg width="58" height="46" viewBox="0 0 58 46" fill="none" xmlns="http://www.w3.org/2000/svg">
<g clip-path="url(#clip0_201_7159)">
<path d="M10.4339 14.4429C9.76522 15.2364 8.69535 15.8605 7.62547 15.7714C7.49174 14.7015 8.01776 13.5603 8.63294 12.8649C9.30161 12.0535 10.4696 11.474 11.4235 11.4294C11.5305 12.535 11.0936 13.6316 10.4339 14.4429ZM11.4057 15.9764C9.85438 15.8873 8.52595 16.8591 7.79487 16.8591C7.04596 16.8591 5.92259 16.021 4.69223 16.0477C3.09633 16.0745 1.61634 16.975 0.805019 18.4104C-0.871118 21.2901 0.368153 25.5429 1.9908 27.8877C2.78429 29.0467 3.72934 30.3216 4.97753 30.2771C6.16331 30.2325 6.62692 29.5103 8.05342 29.5103C9.48884 29.5103 9.90787 30.2771 11.1561 30.2592C12.4488 30.2325 13.2601 29.1002 14.0536 27.9412C14.9541 26.6217 15.3286 25.3467 15.3464 25.2754C15.3197 25.2487 12.85 24.3036 12.8233 21.4506C12.7965 19.0612 14.7758 17.9289 14.865 17.8576C13.7505 16.1993 12.012 16.021 11.4057 15.9764ZM20.357 12.749V30.1255H23.0584V24.1877H26.7941C30.2087 24.1877 32.5981 21.8429 32.5981 18.455C32.5981 15.067 30.2444 12.749 26.8832 12.749H20.357ZM23.0584 15.0224H26.17C28.5148 15.0224 29.8521 16.2706 29.8521 18.4639C29.8521 20.6571 28.5148 21.9231 26.1611 21.9231H23.0584V15.0224ZM37.5196 30.2592C39.2135 30.2592 40.7827 29.4033 41.4959 28.0392H41.5494V30.1255H44.0458V21.4774C44.0458 18.9721 42.0398 17.3494 38.955 17.3494C36.0931 17.3494 33.9711 18.9899 33.8909 21.2366H36.3249C36.5299 20.1668 37.5196 19.4624 38.8747 19.4624C40.5241 19.4624 41.4513 20.2292 41.4513 21.6467V22.6096L38.0812 22.8147C34.9519 23.0019 33.2579 24.2858 33.2579 26.5147C33.2668 28.7614 35.0143 30.2592 37.5196 30.2592ZM38.2506 28.1997C36.8152 28.1997 35.8969 27.5043 35.8969 26.4523C35.8969 25.3556 36.7796 24.7226 38.4646 24.6246L41.4603 24.4373V25.4181C41.4603 27.0407 40.0783 28.1997 38.2506 28.1997ZM47.3892 34.8508C50.0193 34.8508 51.2585 33.8433 52.3373 30.8031L57.0715 17.5188H54.3255L51.1515 27.7807H51.098L47.9241 17.5188H45.1068L49.6715 30.1701L49.4219 30.9368C49.0118 32.2385 48.3431 32.7467 47.1484 32.7467C46.9345 32.7467 46.5243 32.72 46.3549 32.7021V34.7884C46.5154 34.824 47.1841 34.8508 47.3892 34.8508Z" fill="black"/>
</g>
<defs>
<clipPath id="clip0_201_7159">
<rect width="57.06" height="45.648" fill="white" transform="translate(0.0119629 0.311646)"/>
</clipPath>
</defs>
</svg>
