<svg width="46" height="46" viewBox="0 0 46 46" fill="none" xmlns="http://www.w3.org/2000/svg">
<g clip-path="url(#clip0_201_7155)">
<path d="M0.306641 33.9592L4.14036 40.5835C4.52145 41.3421 5.10599 41.9799 5.82865 42.4254C6.55132 42.871 7.38365 43.1068 8.23263 43.1066H33.6778L28.3998 33.9592H0.306641ZM44.8669 31.5163L30.0492 5.59858C29.6592 4.86349 29.0763 4.24853 28.3632 3.81971C27.6501 3.39089 26.8336 3.16442 26.0015 3.16461H18.1201L41.06 43.0709L44.6886 36.7854C44.858 36.5001 46.5609 34.1375 44.8669 31.5163ZM24.6463 27.4597L14.3487 9.62844L4.0512 27.4597H24.6463Z" fill="black"/>
</g>
<defs>
<clipPath id="clip0_201_7155">
<rect width="45.648" height="45.648" fill="white" transform="translate(0.12793 0.311646)"/>
</clipPath>
</defs>
</svg>
