<svg width="53" height="46" viewBox="0 0 53 46" fill="none" xmlns="http://www.w3.org/2000/svg">
<g clip-path="url(#clip0_201_7153)">
<path d="M46.9123 27.8787C50.3715 24.3125 52.0923 20.7462 52.1279 17.5277C52.1992 11.688 46.832 6.98942 37.0249 5.49159C25.5504 3.73522 11.3033 6.87352 0.773926 12.8381C5.41005 10.4754 10.6346 8.54074 15.9929 7.64918C22.635 5.82147 29.6338 5.38461 35.7232 6.32966C49.3195 8.45158 53.2691 17.6971 44.5318 26.9872C43.6224 27.9501 42.5704 28.8684 41.4113 29.7153L27.9577 9.53037L11.0001 34.9845C5.1515 32.3633 4.17969 26.9426 9.29726 21.5041C11.1517 19.5248 13.6035 17.7684 16.3852 16.3241C18.1683 15.2364 19.9247 14.3091 21.9129 13.587C16.1088 15.3969 10.9734 18.3033 7.50522 21.8696C5.03559 24.4195 3.81415 26.9604 3.78741 29.2606C3.74283 32.39 5.87366 35.0647 9.88569 36.6606L6.8098 41.27H15.8681L17.8295 38.203C19.8088 38.2922 21.8683 38.203 23.9456 37.9623L21.9129 41.27H33.9935L31.087 36.5358C32.7454 36.0633 34.3769 35.5105 35.9461 34.8686L40.0383 41.27H49.0966L42.5525 31.4271C44.2019 30.3484 45.673 29.1537 46.9123 27.8787ZM30.1866 35.0558L27.9577 31.4361L25.0423 36.1881C22.956 36.5001 20.8787 36.6428 18.8726 36.5804L27.9577 22.3778L34.9743 33.344C33.4408 34.0038 31.827 34.5833 30.1866 35.0558Z" fill="black"/>
</g>
<defs>
<clipPath id="clip0_201_7153">
<rect width="51.354" height="45.648" fill="white" transform="translate(0.773926 0.311646)"/>
</clipPath>
</defs>
</svg>
