<svg width="46" height="46" viewBox="0 0 46 46" fill="none" xmlns="http://www.w3.org/2000/svg">
<g clip-path="url(#clip0_201_7151)">
<path d="M13.6959 21.3881C13.0094 20.6571 11.9396 20.7016 11.4849 21.6378L0.269005 44.016C-0.176777 44.9076 0.48298 45.9507 1.4637 45.9507H17.066C17.5831 45.9596 18.0468 45.6654 18.2607 45.2018C21.6398 38.2654 19.607 27.7004 13.6959 21.3881ZM21.9161 1.03377C11.0123 18.2766 21.1583 32.1136 27.7113 45.2107C27.9342 45.6654 28.3978 45.9596 28.906 45.9596H44.437C45.4356 45.9596 46.0775 44.9076 45.6317 44.0249C45.6317 44.0249 24.7246 2.06798 24.1985 1.02485C23.726 0.079798 22.5224 0.0619668 21.9161 1.03377Z" fill="black"/>
</g>
<defs>
<clipPath id="clip0_201_7151">
<rect width="45.648" height="45.648" fill="white" transform="translate(0.125977 0.311646)"/>
</clipPath>
</defs>
</svg>
