<svg width="58" height="46" viewBox="0 0 58 46" fill="none" xmlns="http://www.w3.org/2000/svg">
<g clip-path="url(#clip0_201_7149)">
<path d="M57.1257 18.1339V22.9484L28.5957 40.7796L0.0656738 22.9573V18.1428L28.5957 35.9741L57.1257 18.1339ZM39.7848 24.5532L43.984 21.932C40.6674 16.9571 35.006 13.6761 28.5868 13.6761C22.1675 13.6761 16.5061 16.9482 13.1984 21.9142H13.2251C13.448 21.7091 13.6798 21.513 13.9116 21.3168C21.9089 14.6836 33.4725 16.1368 39.7848 24.5532ZM20.1615 26.2293C21.6682 25.1684 23.4157 24.5621 25.2791 24.5621C28.346 24.5621 31.092 26.2026 32.9822 28.8059L37.0298 26.2739C35.1665 23.6081 32.0728 21.8607 28.5778 21.8607C25.1097 21.8607 22.0338 23.5903 20.1615 26.2293ZM9.30226 14.6747C21.053 5.37567 37.6718 7.86313 46.525 20.2113L46.5874 20.3004L50.9382 17.5901C46.1684 10.306 37.9392 5.49158 28.5868 5.49158C19.3591 5.49158 11.0586 10.2614 6.25312 17.5812C7.13576 16.645 8.27696 15.486 9.30226 14.6747Z" fill="black"/>
</g>
<defs>
<clipPath id="clip0_201_7149">
<rect width="57.06" height="45.648" fill="white" transform="translate(0.065918 0.311646)"/>
</clipPath>
</defs>
</svg>
