<svg width="46" height="46" viewBox="0 0 46 46" fill="none" xmlns="http://www.w3.org/2000/svg">
<g clip-path="url(#clip0_201_7145)">
<path d="M40.7543 3.16461H12.9376C9.46942 3.16461 6.14389 5.94629 5.51088 9.3788L0.464639 36.8924C-0.16837 40.3249 2.13186 43.1066 5.60895 43.1066H33.4257C36.8939 43.1066 40.2194 40.3249 40.8524 36.8924L45.9076 9.38772C46.5317 5.94629 44.2314 3.16461 40.7543 3.16461ZM35.5654 34.1286L32.7124 35.3322L22.4238 25.525C21.1132 26.4166 19.8205 27.2635 18.706 27.9411L20.6764 33.665L19.0805 34.7972L15.4607 29.3587L10.7889 25.0703L12.1887 23.6973L17.3597 26.4701C18.1889 25.5339 19.2142 24.4551 20.2841 23.3585L18.4564 20.7195L12.3224 11.8217L13.9986 9.24507L14.792 8.81712L23.9841 18.8383L24.4209 19.2395C26.1505 17.5633 27.4344 16.3508 27.4344 16.3508C28.1209 15.7713 29.3513 16.0923 30.1715 17.0552C30.9739 17.9913 31.1166 19.2573 30.4122 19.8457C30.2517 19.9616 29.0303 20.8621 27.265 22.1281L27.6662 22.779L36.1271 33.4242L35.5654 34.1286Z" fill="black"/>
</g>
<defs>
<clipPath id="clip0_201_7145">
<rect width="45.648" height="45.648" fill="white" transform="translate(0.35791 0.311646)"/>
</clipPath>
</defs>
</svg>
