<svg width="58" height="46" viewBox="0 0 58 46" fill="none" xmlns="http://www.w3.org/2000/svg">
<g clip-path="url(#clip0_201_7143)">
<path d="M9.8554 25.5874L8.16143 21.8607H3.51639L1.82242 25.5874H0.297852L5.84337 13.8723L11.3889 25.5874H9.8554ZM5.84337 16.8412L4.09591 20.6303H7.59083L5.84337 16.8412ZM15.8913 25.9708L10.3458 14.2556H11.8703L15.8913 22.8146L19.9122 14.2556H21.4279L15.8913 25.9708ZM23.0773 25.5874V14.2556H24.4592V25.5874H23.0773ZM41.7198 15.2809V25.5874H40.1774V15.2809H36.5042V14.2556H45.3842V15.2809H41.7198ZM57.3578 19.819C57.3578 20.6392 57.2063 21.406 56.9031 22.1192C56.6 22.8325 56.1721 23.4655 55.6371 24.0004C55.1022 24.5353 54.4692 24.9633 53.7559 25.2664C53.0427 25.5696 52.2759 25.7211 51.4557 25.7211C50.6355 25.7211 49.8687 25.5696 49.1555 25.2664C48.4422 24.9633 47.8092 24.5353 47.2743 24.0004C46.7393 23.4655 46.3114 22.8414 46.0083 22.1192C45.7051 21.406 45.5536 20.6392 45.5536 19.819C45.5536 18.9987 45.7051 18.232 46.0083 17.5187C46.3114 16.8055 46.7393 16.1725 47.2743 15.6376C47.8092 15.1026 48.4333 14.8886 49.1555 14.5766C49.8687 14.2735 50.6355 14.1219 51.4557 14.1219C52.2759 14.1219 53.0427 14.2735 53.7559 14.5766C54.4692 14.8797 55.1022 15.0937 55.6371 15.6376C56.1721 16.1725 56.5911 16.8055 56.9031 17.5187C57.2063 18.232 57.3578 18.9987 57.3578 19.819ZM55.9759 19.819C55.9759 19.1681 55.86 18.5708 55.6282 18.0091C55.3964 17.4474 55.0754 16.966 54.6653 16.5559C54.2552 16.1457 53.7738 15.8248 53.221 15.5841C52.6682 15.3433 52.0798 15.2274 51.4557 15.2274C50.8316 15.2274 50.2432 15.3433 49.6904 15.5841C49.1376 15.8248 48.6562 16.1457 48.2461 16.5559C47.8359 16.966 47.515 17.4474 47.2832 18.0091C47.0514 18.5708 46.9355 19.1771 46.9355 19.819C46.9355 20.4698 47.0514 21.0672 47.2832 21.6289C47.515 22.1905 47.8359 22.672 48.2461 23.0821C48.6562 23.4922 49.1376 23.8132 49.6904 24.0539C50.2432 24.2946 50.8316 24.4105 51.4557 24.4105C52.0798 24.4105 52.6682 24.2946 53.221 24.0539C53.7738 23.8132 54.2552 23.4922 54.6653 23.0821C55.0754 22.672 55.3964 22.1905 55.6282 21.6289C55.86 21.0672 55.9759 20.4609 55.9759 19.819ZM47.5239 28.4404V27.8787L55.4499 26.9871L33.7938 28.1818C33.8473 27.9857 33.8919 27.7717 33.9187 27.5399C33.9454 27.3616 33.9632 27.1655 33.9722 26.9604L39.7495 26.2382L33.9632 26.4076C33.9632 26.372 33.9543 26.3452 33.9543 26.3096C33.7047 24.7761 31.6808 24.1965 31.6808 24.1965L31.5828 21.8517H33.7047L35.3987 25.5785H36.9232L31.3777 13.8633L25.8322 25.5785H27.3568L29.0507 21.8517H31.1548L31.0567 24.2055C31.0567 24.2055 29.0329 24.785 28.7833 26.3185C28.7743 26.3452 28.7743 26.3809 28.7743 26.4165L22.9881 26.2471L28.7654 26.9693C28.7743 27.1744 28.7922 27.3616 28.8189 27.5488C28.8457 27.7806 28.8903 27.9946 28.9437 28.1908L7.2877 26.9871L15.2137 27.8787V28.4404C14.6877 28.5206 14.2775 28.9753 14.2775 29.5281C14.2775 30.1344 14.7768 30.6336 15.3831 30.6336C15.9893 30.6336 16.4886 30.1344 16.4886 29.5281C16.4886 28.9753 16.0785 28.5206 15.5525 28.4404V27.9233L22.7117 28.7257V29.2071C22.2035 29.3052 21.8291 29.7599 21.8291 30.2859C21.8291 30.8922 22.3284 31.1953 22.9346 31.1953C23.5409 31.1953 24.0402 30.8922 24.0402 30.2859C24.0402 29.751 23.6568 29.3052 23.1575 29.2071V28.7703L25.6895 29.0556V31.1686H25.1635V32.4078H25.6895V31.8194H26.1353V32.4078H26.6613V31.1775H26.1353V29.1091L29.55 29.4924C30.2722 30.5088 31.244 30.705 31.244 30.705L31.2351 31.3023L30.7804 31.3201L30.7714 32.3989H31.137L31.1459 31.9531H31.6095L31.6184 32.3989H31.984L31.9751 31.3201L31.5204 31.3023L31.5114 30.705C31.5114 30.705 32.4832 30.5177 33.2054 29.4924L36.6201 29.1091V31.1775H36.0941V32.4078H36.6201V31.8194H37.0659V32.4078H37.5919V31.1775H37.0659V29.0645L39.5979 28.7792V29.216C39.0897 29.3141 38.7153 29.7688 38.7153 30.2948C38.7153 30.9011 39.2145 31.2042 39.8208 31.2042C40.4271 31.2042 40.9263 30.9011 40.9263 30.2948C40.9263 29.7599 40.543 29.3141 40.0437 29.216V28.7346L47.2029 27.9322V28.4493C46.6769 28.5295 46.2668 28.9842 46.2668 29.537C46.2668 30.1433 46.7661 30.6425 47.3723 30.6425C47.9786 30.6425 48.4779 30.1433 48.4779 29.537C48.46 28.9753 48.0588 28.5206 47.5239 28.4404ZM29.6213 20.6303L31.3688 16.8412L33.1163 20.6303H31.5204L31.3688 17.0373L31.2172 20.6303H29.6213Z" fill="black"/>
</g>
<defs>
<clipPath id="clip0_201_7143">
<rect width="57.06" height="45.648" fill="white" transform="translate(0.297852 0.311646)"/>
</clipPath>
</defs>
</svg>
