<svg width="58" height="46" viewBox="0 0 58 46" fill="none" xmlns="http://www.w3.org/2000/svg">
<g clip-path="url(#clip0_201_7141)">
<path d="M16.3219 18.4112C16.2577 20.4306 17.267 21.3249 17.2919 21.8928C17.2801 22.0084 17.2407 22.1194 17.1771 22.2167C17.1135 22.314 17.0275 22.3946 16.9264 22.4518L15.7852 23.2506C15.6375 23.3542 15.4634 23.4135 15.2832 23.4218C15.2449 23.42 14.5531 23.585 13.4573 21.1385C12.7888 21.973 11.9382 22.6434 10.9707 23.0985C10.0032 23.5536 8.94434 23.7813 7.87525 23.7642C6.42379 23.8435 2.49022 22.9404 2.6926 18.7527C2.55084 15.3398 5.72926 13.2197 9.01645 13.3989C9.64946 13.4007 10.9422 13.4319 13.2059 13.9579V12.5653C13.4457 10.2062 11.8953 8.37582 9.21082 8.65042C8.99684 8.65131 7.48118 8.60584 5.12389 9.55179C4.4677 9.85314 4.3839 9.80321 4.16546 9.80321C3.50482 9.80321 3.77674 7.88813 3.90334 7.64563C4.36785 7.07503 7.10049 6.00961 9.78231 6.02477C11.5755 5.86618 13.359 6.41959 14.7474 7.56539C15.3118 8.19669 15.7424 8.93583 16.0132 9.73817C16.2839 10.5405 16.3893 11.3894 16.3228 12.2336L16.3219 18.4112ZM8.61703 21.299C11.5084 21.2571 12.7325 19.5186 13.0115 18.5824C13.2309 17.6864 13.1943 17.1194 13.1943 16.1395C12.3322 15.9327 11.0911 15.7071 9.66729 15.7054C8.31658 15.6037 5.84963 16.2073 5.94591 18.5815C5.83536 20.0785 6.93733 21.381 8.61703 21.299ZM23.8556 23.3541C23.1548 23.4183 22.8285 22.9208 22.7251 22.4295L18.2851 7.74994C18.1987 7.50209 18.1416 7.24621 18.114 6.98498C18.0976 6.87728 18.1246 6.76749 18.1892 6.67972C18.2537 6.59195 18.3504 6.53339 18.4581 6.51691C18.4795 6.51334 18.2682 6.51691 20.4418 6.51691C21.2246 6.43845 21.4796 7.05452 21.5607 7.44146L24.7454 19.9973L27.7018 7.44146C27.7491 7.15438 27.9639 6.4545 28.843 6.5285H30.3729C30.5664 6.51245 31.3635 6.48392 31.5034 7.45305L34.483 20.1694L37.7702 7.45305C37.813 7.25869 38.0127 6.43934 38.9007 6.5285H40.6589C40.7347 6.51691 41.2072 6.45628 41.127 7.29346C41.0886 7.4584 41.431 6.34306 36.424 22.4411C36.3214 22.9324 35.9942 23.4298 35.2935 23.3657H33.6271C32.6518 23.4682 32.5118 22.5044 32.4966 22.4072L29.5402 10.1812L26.6177 22.3947C26.6034 22.4919 26.4634 23.4557 25.4872 23.3532H23.8556V23.3541ZM48.2381 23.856C47.7138 23.8569 45.2139 23.8293 43.1241 22.7603C42.9159 22.6721 42.7386 22.5242 42.6146 22.3351C42.4906 22.1461 42.4256 21.9245 42.4277 21.6984V20.74C42.4277 19.9866 42.9805 20.1248 43.215 20.2149C44.1101 20.5768 44.6843 20.8514 45.7836 21.0708C49.0512 21.7421 50.4884 20.8657 50.8405 20.6714C52.0129 19.975 52.1057 18.3818 51.3086 17.5553C50.3742 16.7717 49.9285 16.7422 46.5717 15.6831C46.158 15.5681 42.6756 14.4696 42.6676 11.0148C42.6132 8.49707 44.9009 6.00604 48.8657 6.02655C49.9953 6.02566 53.0052 6.39477 53.8201 7.41917C53.9405 7.60551 54.0002 7.82483 53.9913 8.04683V8.9482C53.9913 9.34405 53.8469 9.54198 53.5571 9.54198C52.8697 9.46531 51.6501 8.5461 49.1742 8.58355C48.5599 8.55145 45.6178 8.66468 45.7497 10.8098C45.7114 12.5002 48.1222 13.1341 48.3976 13.2072C51.6483 14.1852 52.7351 14.3475 54.0252 15.8444C55.5533 17.8282 54.7295 20.1507 54.413 20.7873C52.7119 24.1297 48.313 23.8578 48.2381 23.856ZM51.8221 33.2049C45.5785 37.8161 36.5149 40.2706 28.7761 40.2706C18.3342 40.3394 8.24419 36.4999 0.489553 29.5067C-0.0926372 28.9816 0.420903 28.2621 1.1288 28.6624C9.731 33.5831 19.4705 36.1686 29.3806 36.1622C36.7812 36.1226 44.1011 34.6213 50.9199 31.7446C51.9701 31.2988 52.8608 32.44 51.8221 33.2049ZM54.4246 30.2369C53.6258 29.2098 49.1394 29.7573 47.1307 29.9971C46.5254 30.0657 46.4228 29.5406 46.9711 29.1528C50.5436 26.6413 56.411 27.3607 57.085 28.2051C57.7582 29.0494 56.9023 34.9283 53.558 37.7367C53.0445 38.1709 52.5532 37.9418 52.7815 37.3712C53.5339 35.4766 55.2235 31.2649 54.4246 30.2369Z" fill="black"/>
</g>
<defs>
<clipPath id="clip0_201_7141">
<rect width="57.06" height="45.648" fill="white" transform="translate(0.238037 0.311646)"/>
</clipPath>
</defs>
</svg>
