<svg width="52" height="47" viewBox="0 0 52 47" fill="none" xmlns="http://www.w3.org/2000/svg">
<g clip-path="url(#clip0_201_7133)">
<path d="M20.9245 21.8115C23.7597 20.4564 25.2396 18.4058 25.2396 15.214C25.2396 8.91953 20.55 7.38605 15.1382 7.38605H0.240234V38.983H15.5573C21.2989 38.983 26.6929 36.2281 26.6929 29.8088C26.6929 25.8414 24.8117 22.9081 20.9245 21.8115ZM7.18551 12.78H13.7028C16.2081 12.78 18.4638 13.4843 18.4638 16.3908C18.4638 19.0744 16.7074 20.1532 14.2288 20.1532H7.18551V12.78ZM14.6122 33.6158H7.18551V24.9142H14.7549C17.8129 24.9142 19.7476 26.1891 19.7476 29.4255C19.7476 32.6173 17.4385 33.6158 14.6122 33.6158ZM46.5747 12.1559H33.763V9.04435H46.5747V12.1559ZM51.5942 27.8742C51.5942 21.1072 47.6357 15.4636 40.4586 15.4636C33.4866 15.4636 28.7524 20.706 28.7524 27.571C28.7524 34.6946 33.237 39.5804 40.4586 39.5804C45.9239 39.5804 49.4634 37.1197 51.1663 31.8862H45.6208C45.0234 33.8387 42.5627 34.8729 40.6548 34.8729C36.9726 34.8729 35.0379 32.7153 35.0379 29.051H51.5407C51.5675 28.6766 51.5942 28.2754 51.5942 27.8742ZM35.0468 25.0925C35.2519 22.0879 37.249 20.2067 40.2625 20.2067C43.4186 20.2067 45.0056 22.0612 45.2731 25.0925H35.0468Z" fill="black"/>
</g>
<defs>
<clipPath id="clip0_201_7133">
<rect width="51.354" height="45.648" fill="white" transform="translate(0.239258 0.663696)"/>
</clipPath>
</defs>
</svg>
