<svg width="40" height="46" viewBox="0 0 40 46" fill="none" xmlns="http://www.w3.org/2000/svg">
<g clip-path="url(#clip0_201_7135)">
<path d="M16.6276 26.4345C16.6276 28.1552 15.3795 28.699 13.846 28.699H9.82502V23.9827H13.9262C15.5845 23.9916 16.6276 24.6781 16.6276 26.4345ZM15.9411 19.0969C15.9411 17.5188 14.7197 17.1444 13.3645 17.1444H9.83393V21.1386H13.6409C14.9872 21.1386 15.9411 20.5501 15.9411 19.0969ZM27.7365 21.1653C26.1049 21.1653 25.0172 22.1817 24.9103 23.8133H30.4558C30.3042 22.1639 29.4483 21.1653 27.7365 21.1653ZM39.942 7.44417V38.8272C39.942 41.1898 38.0251 43.1067 35.6625 43.1067H4.2795C1.91686 43.1067 0 41.1898 0 38.8272V7.44417C0 5.08153 1.91686 3.16467 4.2795 3.16467H35.6625C38.0251 3.16467 39.942 5.08153 39.942 7.44417ZM24.2237 16.8056H31.1601V15.1205H24.2237V16.8056ZM20.39 26.6395C20.39 24.4908 19.3736 22.6364 17.2696 22.039C18.803 21.308 19.6055 20.461 19.6055 18.7403C19.6055 15.3345 17.0645 14.5053 14.1313 14.5053H6.06262V31.6233H14.3631C17.4746 31.6055 20.39 30.1166 20.39 26.6395ZM33.8794 25.32C33.8794 21.6557 31.7307 18.5976 27.8524 18.5976C24.0722 18.5976 21.5134 21.4328 21.5134 25.1595C21.5134 29.02 23.9474 31.6679 27.8524 31.6679C30.8124 31.6679 32.7293 30.3395 33.6565 27.4954H30.6519C30.322 28.5564 28.9936 29.1091 27.9594 29.1091C25.9623 29.1091 24.9192 27.9412 24.9192 25.9619H33.8526C33.8615 25.7569 33.8794 25.534 33.8794 25.32Z" fill="black"/>
</g>
<defs>
<clipPath id="clip0_201_7135">
<rect width="39.942" height="45.648" fill="white" transform="translate(0 0.311646)"/>
</clipPath>
</defs>
</svg>
