<svg width="41" height="47" viewBox="0 0 41 47" fill="none" xmlns="http://www.w3.org/2000/svg">
<g clip-path="url(#clip0_201_7131)">
<path d="M37.3864 3.51672H3.15036C1.58121 3.51672 0.297363 4.80057 0.297363 6.36972V40.6057C0.297363 42.1749 1.58121 43.4587 3.15036 43.4587H37.3864C38.9555 43.4587 40.2394 42.1749 40.2394 40.6057V6.36972C40.2394 4.80057 38.9555 3.51672 37.3864 3.51672ZM31.6804 26.4655C31.6804 30.8699 30.664 33.8298 22.4259 33.8298H20.9192C16.9874 33.8298 15.3559 32.5014 14.6426 30.3706H14.5624V33.4732H8.85636V12.789H14.5624V19.4489H14.6604C15.0706 16.7297 18.1999 15.9897 20.8746 15.9897H22.417C30.6551 15.9897 31.6714 18.9408 31.6714 23.3451V26.4655H31.6804ZM25.9744 23.8889V25.9306C25.9744 27.8653 25.6712 28.9441 22.5508 28.9441H18.512C15.9354 28.9441 14.5802 28.3646 14.5802 25.7612V24.0672C14.5802 21.455 15.9354 20.8844 18.512 20.8844H22.5508C25.6712 20.8665 25.9744 21.9542 25.9744 23.8889Z" fill="black"/>
</g>
<defs>
<clipPath id="clip0_201_7131">
<rect width="39.942" height="45.648" fill="white" transform="translate(0.297363 0.663696)"/>
</clipPath>
</defs>
</svg>
