<svg width="47" height="47" viewBox="0 0 47 47" fill="none" xmlns="http://www.w3.org/2000/svg">
<path d="M2.6289 3.51671C2.44157 3.51436 2.2556 3.54893 2.08163 3.61845C1.90766 3.68797 1.74908 3.79107 1.61496 3.92188C1.48084 4.05269 1.3738 4.20864 1.29995 4.38082C1.2261 4.55301 1.1869 4.73805 1.18457 4.92538C1.18607 5.00885 1.19203 5.09218 1.2024 5.17502L7.25611 41.9163C7.33102 42.367 7.56255 42.7769 7.90992 43.0737C8.25729 43.3705 8.69824 43.5353 9.15514 43.5389H38.1933C38.5347 43.5435 38.8664 43.4254 39.1282 43.2062C39.3899 42.987 39.5644 42.6811 39.6198 42.3443L45.6735 5.18394C45.7327 4.81167 45.6422 4.4311 45.4217 4.12539C45.2012 3.81967 44.8686 3.61366 44.4967 3.55238C44.4139 3.54168 44.3305 3.53573 44.247 3.53455L2.6289 3.51671ZM28.1187 30.0674H18.8464L16.3411 16.9615H30.3654L28.1187 30.0674Z" fill="black"/>
</svg>
