<svg width="41" height="47" viewBox="0 0 41 47" fill="none" xmlns="http://www.w3.org/2000/svg">
<g clip-path="url(#clip0_201_7119)">
<path d="M40.066 20.5188C39.9055 19.8056 39.4597 19.1458 38.9515 18.8694C38.791 18.7803 37.7925 18.6733 36.7226 18.6287C34.9306 18.5485 34.7344 18.5128 34.1638 18.1829C33.2633 17.6569 33.0226 17.0863 33.0137 15.5528C33.0048 12.6107 31.7833 9.87357 29.3672 7.41286C27.6465 5.65648 25.7207 4.47071 23.5275 3.80203C23.0014 3.64155 21.8246 3.58806 17.8839 3.54348C11.6964 3.47216 10.3234 3.59697 8.21934 4.43504C4.34105 5.96853 1.55937 9.23165 0.542992 13.4042C0.355764 14.1887 0.311186 15.4458 0.266607 22.6675C0.213114 31.7168 0.275523 33.0453 0.837207 34.8373C2.22804 39.2595 6.17767 42.5315 10.1451 43.2447C11.4646 43.4855 27.7356 43.539 29.4029 43.3161C32.3004 42.9238 34.5739 41.7558 36.7048 39.5804C38.2472 38.0024 39.2101 36.2995 39.8431 34.0438C40.2799 32.4747 40.2443 21.3123 40.066 20.5188ZM11.3487 14.8485C12.0441 14.1442 12.2403 14.1174 16.5911 14.1174C20.5051 14.1174 20.6388 14.1263 21.2094 14.4205C22.0386 14.8396 22.4041 15.428 22.4041 16.3731C22.4041 17.22 22.0653 17.8174 21.3075 18.2988C20.8974 18.5574 20.6566 18.5752 16.8229 18.5931C14.4603 18.6109 12.5702 18.5574 12.2938 18.4861C10.8138 18.067 10.261 15.9451 11.3487 14.8485ZM28.4489 32.6619L27.1205 32.8759L20.2109 32.9561C14.1393 33.0274 12.4275 32.9205 12.1066 32.7778C11.4735 32.5014 10.8762 31.7347 10.7781 31.0482C10.6801 30.3973 11.0099 29.5058 11.5092 29.0511C12.1422 28.4805 12.4186 28.4626 20.1841 28.4537C28.1725 28.4448 28.1279 28.4448 28.8858 29.1491C29.9646 30.1566 29.7327 31.9308 28.4489 32.6619Z" fill="black"/>
</g>
<defs>
<clipPath id="clip0_201_7119">
<rect width="39.942" height="45.648" fill="white" transform="translate(0.248047 0.663696)"/>
</clipPath>
</defs>
</svg>
