<svg width="52" height="47" viewBox="0 0 52 47" fill="none" xmlns="http://www.w3.org/2000/svg">
<g clip-path="url(#clip0_201_7111)">
<path d="M30.2135 18.6198C30.2135 16.6494 28.8227 15.5617 26.3798 15.5617H21.8863V21.9097H25.6755C28.5998 21.9007 30.2135 20.7239 30.2135 18.6198ZM46.5737 17.4786C45.7267 14.7237 45.6019 11.3446 45.7 8.73236C45.798 6.0131 43.6761 3.51672 40.8231 3.51672H11.5085C8.64662 3.51672 6.53362 6.02201 6.63169 8.73236C6.72085 11.3446 6.60494 14.7237 5.75796 17.4786C4.90206 20.2424 3.46664 21.9899 1.104 22.2128V24.7537C3.45773 24.9766 4.90206 26.7241 5.75796 29.4879C6.60494 32.2429 6.72976 35.6219 6.63169 38.2342C6.53362 40.9534 8.65554 43.4498 11.5085 43.4498H40.8142C43.6761 43.4498 45.7891 40.9445 45.691 38.2342C45.6019 35.6219 45.7178 32.2429 46.5648 29.4879C47.4207 26.7241 48.8561 24.9766 51.2098 24.7537V22.2128C48.865 21.9899 47.4207 20.2424 46.5737 17.4786ZM27.2446 34.1062H18.5162V12.8603H27.2C31.0605 12.8603 33.5925 14.9466 33.5925 18.1562C33.5925 20.4118 31.8897 22.4268 29.7142 22.7745V22.8904C32.6742 23.2113 34.6624 25.2619 34.6624 28.0882C34.6624 31.8417 31.8718 34.1062 27.2446 34.1062ZM26.3531 24.4149H21.8863V31.4048H26.5492C29.5983 31.4048 31.2121 30.1834 31.2121 27.8831C31.2121 25.5918 29.5538 24.4149 26.3531 24.4149Z" fill="black"/>
</g>
<defs>
<clipPath id="clip0_201_7111">
<rect width="51.354" height="45.648" fill="white" transform="translate(0.47998 0.663696)"/>
</clipPath>
</defs>
</svg>
