<svg width="52" height="47" viewBox="0 0 52 47" fill="none" xmlns="http://www.w3.org/2000/svg">
<g clip-path="url(#clip0_201_7103)">
<path d="M25.6829 3.51666C11.8878 3.51666 0.700439 12.4608 0.700439 23.4877C0.700439 34.5145 11.8878 43.4587 25.6829 43.4587C39.4781 43.4587 50.6654 34.5145 50.6654 23.4877C50.6654 12.4608 39.4781 3.51666 25.6829 3.51666ZM18.0699 35.3624L5.72083 35.4836L12.6081 9.56235H24.5052C30.1354 9.56235 32.0772 12.1167 31.4593 16.0565C31.4267 16.2625 31.382 16.4664 31.3256 16.6672C30.8222 16.5526 30.3075 16.4949 29.7912 16.4951C26.0155 16.4951 22.9538 19.5157 22.9538 23.2398C22.9538 26.5511 25.3735 29.3024 28.5644 29.8775C26.9382 33.1905 23.5574 35.3089 18.0699 35.3624ZM31.9238 19.1288H34.7768L32.8011 27.1805H29.6441L28.6465 24.0039L27.9484 27.1805H24.5756L26.9498 19.1288H29.744L31.0813 22.4053L31.9238 19.1288ZM44.9282 35.3624H27.3582L28.7704 29.9069C29.109 29.9564 29.4508 29.9812 29.793 29.9809C33.5679 29.9809 36.6304 26.9612 36.6304 23.2362C36.6304 20.3253 34.7581 17.8459 32.1387 16.9008L34.0404 9.55878H42.2874L37.5576 27.8679H46.8183L44.9282 35.3624ZM18.8803 24.6815H16.6781L15.4478 29.7161H17.6499C19.0889 29.7161 20.5127 29.4326 21.0325 27.3401C21.5282 25.351 20.3202 24.6815 18.8803 24.6815ZM20.7793 15.8202H18.8767L17.8372 20.0739H19.7424C21.3472 20.0739 22.8968 18.7686 23.2382 17.3867C23.6528 15.7052 22.3904 15.8202 20.7793 15.8202Z" fill="black"/>
</g>
<defs>
<clipPath id="clip0_201_7103">
<rect width="51.354" height="45.648" fill="white" transform="translate(0.00585938 0.663696)"/>
</clipPath>
</defs>
</svg>
