<svg width="47" height="47" viewBox="0 0 47 47" fill="none" xmlns="http://www.w3.org/2000/svg">
<g clip-path="url(#clip0_201_7099)">
<path d="M34.6344 32.0199C34.8573 31.7971 44.0136 23.7819 44.0136 23.7819L42.4534 23.1132C41.5618 22.6764 41.7936 22.0879 42.0076 21.5619C42.2216 20.8843 43.7996 15.5617 43.7996 15.5617C43.7996 15.5617 39.5469 16.4533 38.6553 16.6762C37.9866 16.8901 37.7637 16.4533 37.5409 16.0075C37.318 15.5617 36.2035 13.1188 36.2035 13.1188C36.2035 13.1188 31.5139 18.4593 31.291 18.6733C30.3994 19.3419 29.499 18.6733 29.7219 17.7817C29.7219 16.8901 32.1826 6.22705 32.1826 6.22705C32.1826 6.22705 29.499 7.77836 28.6074 8.22414C27.9387 8.66993 27.484 8.66993 27.0383 7.77836C26.5836 7.10969 23.2313 0.663696 23.2313 0.663696C23.2313 0.663696 19.8879 7.10969 19.4421 7.77836C18.9964 8.66993 18.5506 8.66993 17.873 8.22414C16.9814 7.77836 14.2978 6.22705 14.2978 6.22705C14.2978 6.22705 16.7585 16.8901 16.7585 17.7817C16.9814 18.6733 16.0899 19.3419 15.1894 18.6733C14.9665 18.4504 10.2769 13.1188 10.2769 13.1188C10.2769 13.1188 9.16243 15.5528 8.93954 15.9986C8.71665 16.4443 8.49376 16.8812 7.82509 16.6672C6.92461 16.4443 2.68077 15.5528 2.68077 15.5528C2.68077 15.5528 4.24992 20.8754 4.47281 21.553C4.68679 22.0879 4.91859 22.6675 4.02703 23.1043L2.4668 23.7819C2.4668 23.7819 11.6142 31.7971 11.846 32.0199C12.3007 32.4657 12.7376 32.6886 12.3007 34.026C11.846 35.3633 11.4003 37.1553 11.4003 37.1553C11.4003 37.1553 19.8879 35.3633 20.7884 35.1404C21.5641 35.0602 22.42 35.3633 22.42 36.2549C22.42 37.1464 21.9029 46.3117 21.9029 46.3117H24.5775C24.5775 46.3117 24.0604 37.1553 24.0604 36.2549C24.0604 35.3544 24.9074 35.0602 25.7009 35.1404C26.5925 35.3633 35.0801 37.1553 35.0801 37.1553C35.0801 37.1553 34.6344 35.3633 34.1886 34.026C33.7428 32.6886 34.1886 32.4657 34.6344 32.0199Z" fill="black"/>
</g>
<defs>
<clipPath id="clip0_201_7099">
<rect width="45.648" height="45.648" fill="white" transform="translate(0.416016 0.663696)"/>
</clipPath>
</defs>
</svg>
