<svg width="52" height="47" viewBox="0 0 52 47" fill="none" xmlns="http://www.w3.org/2000/svg">
<g clip-path="url(#clip0_201_7093)">
<path d="M27.2973 20.1354C27.2973 21.6689 26.3611 22.5516 24.7117 22.5516H22.5452V17.7193H24.7206C26.3611 17.7193 27.2973 18.593 27.2973 20.1354ZM31.5322 25.7166C31.5322 26.4566 32.1741 26.9381 33.1816 26.9381C34.4654 26.9381 35.4283 26.1267 35.4283 24.9855V24.299L33.3331 24.4328C32.1474 24.513 31.5322 24.9499 31.5322 25.7166ZM51.7082 7.70705V39.09C51.7082 41.4527 49.7914 43.3695 47.4287 43.3695H4.63375C2.27111 43.3695 0.354248 41.4527 0.354248 39.09V7.70705C0.354248 5.34441 2.27111 3.42755 4.63375 3.42755H47.4287C49.7914 3.42755 51.7082 5.34441 51.7082 7.70705ZM11.7484 18.2453C12.4973 18.3077 13.2462 17.8709 13.7188 17.3181C14.1824 16.7475 14.4855 15.9807 14.4053 15.2051C13.7455 15.2318 12.9253 15.642 12.4527 16.2126C12.0248 16.7029 11.6593 17.4964 11.7484 18.2453ZM17.1513 24.8875C17.1335 24.8696 15.4038 24.2099 15.386 22.2128C15.3682 20.5455 16.7501 19.7431 16.8125 19.6986C16.0279 18.5395 14.8154 18.4147 14.3964 18.388C13.3087 18.3256 12.3814 19.0031 11.8643 19.0031C11.3383 19.0031 10.5537 18.4147 9.69782 18.4325C8.58337 18.4504 7.54024 19.0834 6.97856 20.0909C5.81061 22.1058 6.67543 25.0836 7.80771 26.7241C8.36048 27.5354 9.02915 28.427 9.90288 28.3913C10.732 28.3556 11.0619 27.8564 12.0605 27.8564C13.0679 27.8564 13.3532 28.3913 14.227 28.3824C15.1364 28.3645 15.698 27.5711 16.2597 26.7597C16.8749 25.8325 17.1335 24.941 17.1513 24.8875ZM29.223 20.1265C29.223 17.755 27.5736 16.1323 25.2199 16.1323H20.6551V28.2932H22.5452V24.1385H25.1575C27.5469 24.1385 29.223 22.4981 29.223 20.1265ZM37.2471 22.2395C37.2471 20.4831 35.8384 19.3509 33.6809 19.3509C31.6748 19.3509 30.1948 20.501 30.1413 22.0701H31.8442C31.9869 21.3212 32.6823 20.8308 33.6274 20.8308C34.7864 20.8308 35.4283 21.3658 35.4283 22.3643V23.033L33.0746 23.1757C30.8813 23.3094 29.6956 24.2099 29.6956 25.7701C29.6956 27.3482 30.917 28.3913 32.6734 28.3913C33.8592 28.3913 34.9558 27.794 35.4551 26.84H35.4907V28.3021H37.2382V22.2395H37.2471ZM46.3589 19.4668H44.442L42.222 26.6528H42.1864L39.9664 19.4668H37.9782L41.1789 28.32L41.0095 28.8549C40.7242 29.7643 40.2517 30.1209 39.4136 30.1209C39.262 30.1209 38.9767 30.1031 38.8608 30.0942V31.5563C38.9678 31.592 39.4403 31.6009 39.583 31.6009C41.4285 31.6009 42.2933 30.8966 43.0512 28.7658L46.3589 19.4668Z" fill="black"/>
</g>
<defs>
<clipPath id="clip0_201_7093">
<rect width="51.354" height="45.648" fill="white" transform="translate(0.354004 0.663696)"/>
</clipPath>
</defs>
</svg>
