<svg width="53" height="47" viewBox="0 0 53 47" fill="none" xmlns="http://www.w3.org/2000/svg">
<g clip-path="url(#clip0_201_7095)">
<path d="M29.693 15.6241C29.693 14.162 28.4359 13.9837 27.2501 13.9837L23.7641 13.9569V20.1354H25.2262V17.8976H26.831C28.4715 17.8976 28.1238 18.8159 28.1505 20.1354H29.6305V18.9318C29.6305 18.1116 29.4968 17.5856 28.6498 17.2914C29.3096 17.0239 29.7019 16.3374 29.693 15.6241ZM27.0718 16.6316H25.2262V15.2675H27.0985C27.5532 15.2675 28.0525 15.3567 28.0525 15.9273C28.0525 16.5157 27.58 16.6316 27.0718 16.6316ZM25.5829 24.6111H20.8843L19.012 26.6439L17.1843 24.6111H11.2554L11.2465 30.7896H17.0773L18.9764 28.739L20.7952 30.7896H23.666L23.6749 28.7123C25.36 28.7123 28.0703 29.1224 28.0703 26.6349C28.0703 25.0925 26.9737 24.6111 25.5829 24.6111ZM16.3284 29.4879H12.7087V28.2576H15.9451V27.0005H12.7087V25.886H16.4265L18.0224 27.687L16.3284 29.4879ZM22.1949 30.219L19.9393 27.7137L22.1949 25.2708V30.219ZM25.565 27.4552H23.6749V25.886H25.5918C26.091 25.886 26.5012 26.0911 26.5012 26.6349C26.5012 27.2055 26.091 27.4552 25.565 27.4552ZM22.7477 15.2675V13.9658H17.7995V20.1444H22.7477V18.8694H19.2795V17.6391H22.6496V16.382H19.2795V15.2675H22.7477ZM34.7124 26.2783C34.7124 24.8161 33.4553 24.6111 32.2963 24.6111H28.7836L28.7746 30.7896H30.2546L30.2636 28.534H31.8327C32.8134 28.534 33.1522 28.7123 33.1522 29.7643L33.1433 30.7896H34.6233L34.6322 29.5593C34.6322 28.7658 34.4717 28.213 33.6515 27.9188C34.338 27.6424 34.7035 26.9559 34.7124 26.2783ZM32.1091 27.2769H30.2636V25.886H32.1358C32.5905 25.886 33.0898 25.9752 33.0898 26.5458C33.0898 27.161 32.6084 27.2769 32.1091 27.2769ZM16.7029 20.1444V13.9658H14.2422L12.4858 18.1562L10.5511 13.9658H8.13497V19.8234L5.62968 13.9658H3.44536L0.797417 20.1444H2.39331L2.96391 18.7803H6.0398L6.6104 20.1444H9.62388V15.3121L11.7636 20.1444H13.0653L15.2051 15.3121V20.1444H16.7029ZM3.48994 17.4964L4.48849 15.0357L5.51378 17.4964H3.48994ZM46.0531 31.6633V31.2621C45.0902 31.7614 45.7054 31.6633 32.0823 31.6633C32.0823 29.4166 32.0913 29.5325 32.0823 29.4166C31.9308 29.4077 31.797 29.4077 31.2443 29.4077C31.2443 31.0036 31.2354 30.014 31.2354 31.6633H27.7048C27.7048 30.5846 27.7137 30.2993 27.7137 29.06C26.8221 29.5949 25.6809 29.6306 24.6556 29.6128C24.6556 30.9234 24.6467 30.3528 24.6467 31.6633H20.287C19.8323 31.1552 20.0462 31.387 18.914 30.112C18.6287 30.4241 17.7728 31.3513 17.4785 31.6633H10.1677V23.4342H17.5766C18.0224 23.9335 17.8263 23.7106 18.9585 24.9677C19.2438 24.6557 20.0462 23.773 20.3583 23.4342H25.5294C26.4031 23.4342 27.1342 23.6036 27.6959 23.9335V23.4342C32.537 23.4342 33.4286 23.3094 34.445 23.8889V23.4342H41.417V23.8978C42.4334 23.2827 43.1645 23.4342 47.2032 23.4342V23.88C48.1215 23.354 48.6832 23.4164 52.0444 23.4342V7.79622C52.0444 5.43358 50.1276 3.51672 47.7649 3.51672H4.96993C2.60729 3.51672 0.69043 5.43358 0.69043 7.79622V17.5856C1.5285 15.6331 2.44681 13.4844 2.74994 12.7801H6.28944C6.67281 13.6805 6.43209 13.1099 7.09185 14.6613V12.7801H11.193C11.4516 13.3328 12.1827 14.9198 12.4323 15.4547C12.9494 14.2422 13.3328 13.3239 13.5557 12.7801H22.7388C22.7388 12.7711 23.7641 12.7801 23.773 12.7801C27.6691 12.7979 28.5518 12.7087 29.5146 13.2526V12.7801H33.072V13.6092C33.7496 13.0654 34.6679 12.7801 35.8091 12.7801H38.2698C38.2698 12.8246 38.4392 12.8068 38.4748 12.8068H41.3635C41.738 13.6805 41.5953 13.3417 42.1481 14.6434V12.8068H46.0085C46.4454 13.5201 45.9194 12.6463 47.0071 14.4473V12.8068H50.5644V21.0092H46.8555C46.3741 20.2068 46.7307 20.813 45.6787 19.0567V21.0092H40.9712C40.4006 19.6897 40.9623 20.9824 40.3828 19.6451H38.6888C38.3144 20.5366 38.4927 20.1087 38.1182 21.0092H35.7288C34.6322 21.0092 33.7406 20.7417 33.0809 20.2157V21.0092H27.152C27.1253 19.7699 27.1431 18.7981 27.1431 18.7981C26.9826 18.7714 26.84 18.7803 26.2694 18.7803V21.0181H14.1887V20.0017C13.9658 20.501 13.948 20.5277 13.734 21.0181H11.1039C10.7473 20.2246 10.8453 20.4475 10.6492 20.0017V21.0181H5.93282C5.55836 20.1176 5.73667 20.5456 5.36222 19.654H3.65042C3.27596 20.5456 3.45427 20.1176 3.07982 21.0181H0.708261V39.1792C0.708261 41.5419 2.62512 43.4587 4.98776 43.4587H47.7917C50.1543 43.4587 52.0712 41.5419 52.0712 39.1792V31.1195C50.9389 31.8595 49.1558 31.6633 46.0531 31.6633ZM49.2895 25.9128H51.9731V24.6111H49.0399C47.8987 24.6111 46.9179 25.1995 46.9179 26.4566C46.9179 29.3988 50.7249 27.5978 50.7249 28.8995C50.7249 29.3542 50.3415 29.4701 49.976 29.4701H47.123L47.1141 30.7896H49.9671C50.716 30.7896 51.5362 30.6291 51.9731 29.9961V27.6959C51.037 26.4655 48.4693 27.58 48.4693 26.4923C48.4693 25.9752 48.8794 25.9128 49.2895 25.9128ZM44.2076 29.4612H41.3368L41.3278 30.7807H44.1987C45.5182 30.7807 46.5346 30.2814 46.5346 28.8193C46.5346 25.8593 42.7098 27.8207 42.7098 26.4745C42.7098 25.9752 43.1466 25.9039 43.53 25.9039H46.2404V24.6022H43.2804C42.1392 24.6022 41.1852 25.1906 41.1852 26.4477C41.1852 29.3899 44.9922 27.5622 44.9922 28.8906C44.9832 29.372 44.5731 29.4612 44.2076 29.4612ZM40.4452 25.886V24.6111H35.5238L35.5149 30.7896H40.4363L40.4452 29.5147L37.0038 29.4879V28.2576H40.3828V27.0005H37.0127V25.886H40.4452ZM35.4257 16.2482C35.399 16.2661 35.3009 16.4444 35.3009 16.9258C35.3009 17.4608 35.3811 17.6123 35.399 17.6302C35.4168 17.6391 35.497 17.6747 35.7021 17.6747L36.3529 16.168C36.2549 16.168 36.1657 16.1591 36.0765 16.1591C35.5773 16.1591 35.4524 16.2215 35.4257 16.2482ZM35.8002 13.9569C33.705 13.9569 32.7688 15.0268 32.7688 17.1041C32.7688 19.0834 33.6782 20.1354 35.711 20.1354H37.4228L37.9934 18.7714H41.0515L41.6399 20.1354H44.6445V15.5082L47.4261 20.1354H49.5302V13.9837H48.0235V18.2721L45.429 13.9837H43.1734V19.8145L40.6859 13.9837H38.4748L36.3797 18.8427H35.7199C34.5341 18.8427 34.2845 18.1205 34.2845 17.0685C34.2845 14.9466 35.6843 15.2853 37.2356 15.3121V13.9569H35.8002ZM39.5536 15.0357L40.5522 17.4964H38.5194L39.5536 15.0357ZM30.5399 13.9658V20.1444H32.0467V13.9658H30.5399Z" fill="black"/>
</g>
<defs>
<clipPath id="clip0_201_7095">
<rect width="51.354" height="45.648" fill="white" transform="translate(0.708008 0.663696)"/>
</clipPath>
</defs>
</svg>
