<svg width="52" height="47" viewBox="0 0 52 47" fill="none" xmlns="http://www.w3.org/2000/svg">
<g clip-path="url(#clip0_201_7091)">
<path d="M21.3708 7.78731C12.7315 7.78731 5.69708 14.795 5.69708 23.461C5.69708 32.1002 12.7315 39.1346 21.3708 39.1346C30.0367 39.1346 37.0444 32.1002 37.0444 23.461C37.0444 14.795 30.0367 7.78731 21.3708 7.78731ZM17.8134 32.7154C14.0956 31.2978 11.4477 27.687 11.4477 23.461C11.4477 19.235 14.0956 15.6241 17.8134 14.1798V32.7154ZM24.9281 32.7421V14.1798C28.6459 15.6241 31.2938 19.235 31.2938 23.461C31.2938 27.687 28.6459 31.2978 24.9281 32.7421ZM47.0745 3.51672H4.2795C1.91686 3.51672 0 5.43358 0 7.79622V39.1792C0 41.5419 1.91686 43.4587 4.2795 43.4587H47.0745C49.4371 43.4587 51.354 41.5419 51.354 39.1792V7.79622C51.354 5.43358 49.4371 3.51672 47.0745 3.51672ZM29.3948 40.6057H21.344C11.8756 40.6057 4.06552 32.9829 4.06552 23.6482C4.06552 13.4309 11.8756 6.36972 21.344 6.36972H29.3948C38.7562 6.36972 47.2885 13.4309 47.2885 23.6482C47.2885 32.9829 38.7562 40.6057 29.3948 40.6057Z" fill="black"/>
</g>
<defs>
<clipPath id="clip0_201_7091">
<rect width="51.354" height="45.648" fill="white" transform="translate(0 0.663696)"/>
</clipPath>
</defs>
</svg>
