<svg width="53" height="46" viewBox="0 0 53 46" fill="none" xmlns="http://www.w3.org/2000/svg">
<g clip-path="url(#clip0_201_7089)">
<path d="M47.2363 17.4993C47.2363 16.7949 46.7459 16.4205 45.8454 16.4205H45.4086V18.6405H45.8276C46.7459 18.6405 47.2363 18.2482 47.2363 17.4993ZM47.9138 2.86871H5.11885C2.75621 2.86871 0.839355 4.78557 0.839355 7.14821V38.5312C0.839355 40.8938 2.75621 42.8107 5.11885 42.8107H47.9138C50.2765 42.8107 52.1934 40.8938 52.1934 38.5312V7.14821C52.1934 4.78557 50.2765 2.86871 47.9138 2.86871ZM43.9821 15.2525C45.997 15.2525 48.6984 14.887 48.6984 17.4279C48.6984 18.5513 48.11 19.2735 47.0312 19.4964L49.3314 22.5633H47.584L45.6047 19.639H45.4086V22.5633H43.9821V15.2525ZM38.9982 15.2614H43.037V16.5096H40.4247V18.1323H42.9478V19.3626H40.4247V21.3419H43.037V22.5722H38.9982V15.2614ZM32.8732 15.2614L34.8257 20.1829L36.805 15.2614H38.3652L35.2002 22.7684H34.4334L31.313 15.2614H32.8732ZM27.8894 14.994C30.0915 14.994 31.8657 16.7771 31.8657 18.9703C31.8657 21.1725 30.0826 22.9467 27.8894 22.9467C25.6872 22.9467 23.913 21.1636 23.913 18.9703C23.913 16.7682 25.6961 14.994 27.8894 14.994ZM23.494 15.5378V17.2318C21.7019 15.4397 19.3214 16.8127 19.3214 18.9258C19.3214 21.1547 21.7732 22.3583 23.494 20.6376V22.3315C20.846 23.6065 17.8504 21.8233 17.8504 18.9258C17.8504 16.1441 20.8014 14.2005 23.494 15.5378ZM14.828 21.4489C15.8443 21.4489 16.8251 20.0848 14.5338 19.2735C13.1964 18.7831 12.7328 18.2571 12.7328 17.2496C12.7328 15.1812 15.461 14.4501 17.1639 15.9747L16.415 16.9376C15.4877 15.9034 14.195 16.3848 14.195 17.1605C14.195 17.5527 14.4357 17.7756 15.2916 18.0788C16.9142 18.6672 17.3957 19.1932 17.3957 20.3612C17.3957 22.9913 13.9364 23.6956 12.3494 21.3686L13.2677 20.486C13.5976 21.119 14.1504 21.4489 14.828 21.4489ZM5.77861 22.5722H3.69236V15.2614H5.77861C8.10559 15.2614 9.7104 16.7771 9.7104 18.9258C9.7104 20.5751 8.53354 22.5722 5.77861 22.5722ZM11.7967 22.5722H10.3702V15.2614H11.7967V22.5722ZM49.3404 38.6204C49.3404 39.3514 48.7341 39.9577 48.003 39.9577H12.2514C29.1554 36.7837 46.3714 27.5472 49.3404 25.6927V38.6204ZM7.44583 17.098C6.98222 16.6612 6.41162 16.5096 5.49331 16.5096H5.11885V21.3419H5.49331C6.41162 21.3419 7.00897 21.1636 7.44583 20.7713C7.95402 20.3077 8.23932 19.6301 8.23932 18.9258C8.23932 18.2214 7.95402 17.5438 7.44583 17.098Z" fill="black"/>
</g>
<defs>
<clipPath id="clip0_201_7089">
<rect width="51.354" height="45.648" fill="white" transform="translate(0.839355 0.0157471)"/>
</clipPath>
</defs>
</svg>
