<svg width="52" height="46" viewBox="0 0 52 46" fill="none" xmlns="http://www.w3.org/2000/svg">
<g clip-path="url(#clip0_201_7087)">
<path d="M38.956 21.7966V18.9169C42.6293 18.9169 42.3885 18.9347 42.3885 18.9347C43.0394 19.0506 43.5743 19.5855 43.5743 20.3612C43.5743 21.1458 43.0394 21.654 42.3885 21.7699C42.2816 21.8055 42.0943 21.7966 38.956 21.7966ZM42.7719 23.5976C42.5223 23.5352 42.4777 23.553 38.956 23.553V26.6735C42.4866 26.6735 42.5223 26.6913 42.7719 26.6289C43.4406 26.4951 43.9755 25.9156 43.9755 25.1132C43.9755 24.3376 43.4406 23.7313 42.7719 23.5976ZM51.8391 7.14824V38.5312C51.8391 40.8939 49.9222 42.8107 47.5596 42.8107H4.76461C2.40197 42.8107 0.485107 40.8939 0.485107 38.5312V7.14824C0.485107 4.7856 2.40197 2.86874 4.76461 2.86874H47.5596C49.9222 2.86874 51.8391 4.7856 51.8391 7.14824ZM16.7115 17.1605H11.6296C11.6296 23.1429 12.5836 26.9409 8.43784 26.9409C6.6993 26.9409 4.97858 26.4327 3.33811 25.6214V28.1178C6.01279 28.8578 9.40073 28.8578 9.40073 28.8578C18.1291 28.8578 16.7115 24.605 16.7115 17.1605ZM32.6259 17.5617C26.9734 16.1352 17.9152 16.2333 17.9152 22.8487C17.9152 29.7226 27.5619 29.4106 32.6259 28.1267V25.6036C28.3821 27.8057 23.0416 27.565 23.0416 22.8397C23.0416 18.1145 28.3732 17.8827 32.6259 20.0581V17.5617ZM48.9861 25.559C48.9861 23.9096 47.515 22.8397 45.5982 22.706V22.6347C47.3367 22.394 48.2996 21.2528 48.2996 19.9422C48.2996 18.2482 46.8998 17.2675 45.0008 17.1783C45.0008 17.1783 45.5625 17.1516 34.2753 17.1516V28.519H45.2148C47.3813 28.5279 48.9861 27.3689 48.9861 25.559Z" fill="black"/>
</g>
<defs>
<clipPath id="clip0_201_7087">
<rect width="51.354" height="45.648" fill="white" transform="translate(0.485352 0.0157471)"/>
</clipPath>
</defs>
</svg>
