<svg width="52" height="46" viewBox="0 0 52 46" fill="none" xmlns="http://www.w3.org/2000/svg">
<g clip-path="url(#clip0_201_7085)">
<path d="M43.1849 36.5966C43.1849 37.2028 42.7748 37.6397 42.1863 37.6397C41.5801 37.6397 41.1878 37.1761 41.1878 36.5966C41.1878 36.017 41.5801 35.5534 42.1863 35.5534C42.7748 35.5534 43.1849 36.017 43.1849 36.5966ZM15.4751 35.5534C14.8421 35.5534 14.4766 36.017 14.4766 36.5966C14.4766 37.1761 14.8421 37.6397 15.4751 37.6397C16.0547 37.6397 16.4469 37.2028 16.4469 36.5966C16.438 36.017 16.0547 35.5534 15.4751 35.5534ZM25.951 35.5267C25.4696 35.5267 25.1753 35.8387 25.104 36.3023H26.8069C26.7267 35.7942 26.4146 35.5267 25.951 35.5267ZM35.562 35.5534C34.9558 35.5534 34.5902 36.017 34.5902 36.5966C34.5902 37.1761 34.9558 37.6397 35.562 37.6397C36.1683 37.6397 36.5606 37.2028 36.5606 36.5966C36.5606 36.017 36.1683 35.5534 35.562 35.5534ZM45.0037 37.8804C45.0037 37.9072 45.0304 37.925 45.0304 37.9785C45.0304 38.0052 45.0037 38.0231 45.0037 38.0766C44.9769 38.1033 44.9769 38.1211 44.9591 38.1479C44.9324 38.1746 44.9145 38.1925 44.861 38.1925C44.8343 38.2192 44.8165 38.2192 44.763 38.2192C44.7362 38.2192 44.7184 38.2192 44.6649 38.1925C44.6381 38.1925 44.6203 38.1657 44.5936 38.1479C44.5668 38.1211 44.549 38.1033 44.549 38.0766C44.5222 38.032 44.5222 38.0052 44.5222 37.9785C44.5222 37.9339 44.5222 37.9072 44.549 37.8804C44.549 37.8358 44.5757 37.8091 44.5936 37.7823C44.6203 37.7556 44.6381 37.7556 44.6649 37.7378C44.7095 37.711 44.7362 37.711 44.763 37.711C44.8075 37.711 44.8343 37.711 44.861 37.7378C44.9056 37.7645 44.9324 37.7645 44.9591 37.7823C44.9859 37.8002 44.9769 37.8358 45.0037 37.8804ZM44.8075 38.0052C44.8521 38.0052 44.8521 37.9785 44.8789 37.9785C44.9056 37.9517 44.9056 37.9339 44.9056 37.9072C44.9056 37.8804 44.9056 37.8626 44.8789 37.8358C44.8521 37.8358 44.8343 37.8091 44.7808 37.8091H44.6381V38.1211H44.7095V37.9963H44.7362L44.8343 38.1211H44.9056L44.8075 38.0052ZM51.4853 7.23742V38.6204C51.4853 40.9831 49.5685 42.8999 47.2058 42.8999H4.41085C2.04821 42.8999 0.131348 40.9831 0.131348 38.6204V7.23742C0.131348 4.87478 2.04821 2.95792 4.41085 2.95792H47.2058C49.5685 2.95792 51.4853 4.87478 51.4853 7.23742ZM5.83735 19.6836C5.83735 26.5041 11.3739 32.0318 18.1855 32.0318C20.6105 32.0318 22.991 31.3007 25.0059 29.9723C18.5064 24.6853 18.551 14.7087 25.0059 9.42174C22.991 8.0844 20.6105 7.36223 18.1855 7.36223C11.3739 7.35332 5.83735 12.8899 5.83735 19.6836ZM25.8083 29.3838C32.0939 24.4802 32.0671 14.9227 25.8083 9.99234C19.5496 14.9227 19.5228 24.4891 25.8083 29.3838ZM13.1214 36.1864C13.1214 35.4108 12.6132 34.9026 11.8108 34.8758C11.4007 34.8758 10.9638 35.0007 10.6696 35.4554C10.4556 35.0898 10.0901 34.8758 9.58191 34.8758C9.24312 34.8758 8.90432 35.0007 8.63685 35.3573V34.965H7.90577V38.237H8.63685C8.63685 36.552 8.41396 35.5445 9.43926 35.5445C10.3487 35.5445 10.1703 36.4539 10.1703 38.237H10.8747C10.8747 36.6055 10.6518 35.5445 11.6771 35.5445C12.5865 35.5445 12.4082 36.4361 12.4082 38.237H13.1392V36.1864H13.1214ZM17.1245 34.965H16.4202V35.3573C16.1795 35.0631 15.8407 34.8758 15.3771 34.8758C14.4588 34.8758 13.7544 35.6069 13.7544 36.5966C13.7544 37.5951 14.4588 38.3173 15.3771 38.3173C15.8407 38.3173 16.1795 38.1479 16.4202 37.8358V38.246H17.1245V34.965ZM20.7354 37.2474C20.7354 35.9101 18.6937 36.5163 18.6937 35.8922C18.6937 35.384 19.7546 35.4643 20.3431 35.7942L20.6373 35.2146C19.7992 34.6708 17.9448 34.6797 17.9448 35.9457C17.9448 37.2207 19.9864 36.6857 19.9864 37.2831C19.9864 37.8447 18.7828 37.8002 18.1409 37.3544L17.8289 37.9161C18.8274 38.5937 20.7354 38.451 20.7354 37.2474ZM23.8915 38.0766L23.6953 37.4703C23.3565 37.6575 22.6076 37.8626 22.6076 37.1048V35.6248H23.7756V34.965H22.6076V33.9665H21.8766V34.965H21.199V35.6158H21.8766V37.1048C21.8766 38.6739 23.419 38.3886 23.8915 38.0766ZM25.0773 36.8819H27.5291C27.5291 35.4375 26.8693 34.8669 25.9777 34.8669C25.0327 34.8669 24.3551 35.5713 24.3551 36.5876C24.3551 38.4154 26.37 38.7185 27.3686 37.8537L27.0298 37.3187C26.3344 37.8893 25.2823 37.8358 25.0773 36.8819ZM30.3464 34.965C29.9363 34.7867 29.3122 34.8045 28.9912 35.3573V34.965H28.2601V38.237H28.9912V36.3915C28.9912 35.3573 29.8382 35.491 30.1324 35.6426L30.3464 34.965ZM31.2915 36.5966C31.2915 35.5802 32.3257 35.2503 33.137 35.8476L33.4758 35.2681C32.4416 34.4568 30.5604 34.9026 30.5604 36.6055C30.5604 38.3708 32.5575 38.7274 33.4758 37.9428L33.137 37.3633C32.3168 37.9428 31.2915 37.5951 31.2915 36.5966ZM37.2382 34.965H36.5071V35.3573C35.7671 34.3766 33.8413 34.9293 33.8413 36.5966C33.8413 38.3084 35.8384 38.7987 36.5071 37.8358V38.246H37.2382V34.965ZM40.2427 34.965C40.0288 34.858 39.262 34.7064 38.8876 35.3573V34.965H38.1832V38.237H38.8876V36.3915C38.8876 35.4108 39.69 35.4732 40.0288 35.6426L40.2427 34.965ZM43.8357 33.6366H43.1314V35.3573C42.4003 34.3855 40.4656 34.9026 40.4656 36.5966C40.4656 38.3262 42.4716 38.7898 43.1314 37.8358V38.246H43.8357V33.6366ZM44.5133 26.9409V27.3511H44.5846V26.9409H44.754V26.8696H44.3439V26.9409H44.5133ZM45.1018 37.9785C45.1018 37.9339 45.1018 37.8804 45.075 37.8358C45.0483 37.8091 45.0304 37.7645 45.0037 37.7378C44.9769 37.711 44.9324 37.6932 44.9056 37.6664C44.861 37.6664 44.8075 37.6397 44.763 37.6397C44.7362 37.6397 44.6916 37.6664 44.6381 37.6664C44.5936 37.6932 44.5668 37.711 44.5401 37.7378C44.4955 37.7645 44.4687 37.8091 44.4687 37.8358C44.442 37.8804 44.442 37.9339 44.442 37.9785C44.442 38.0052 44.442 38.0498 44.4687 38.1033C44.4687 38.1301 44.4955 38.1746 44.5401 38.2014C44.5668 38.2281 44.5847 38.246 44.6381 38.2727C44.6827 38.2994 44.7362 38.2994 44.763 38.2994C44.8075 38.2994 44.861 38.2994 44.9056 38.2727C44.9324 38.246 44.9769 38.2281 45.0037 38.2014C45.0304 38.1746 45.0483 38.1301 45.075 38.1033C45.1018 38.0498 45.1018 38.0052 45.1018 37.9785ZM45.3871 26.8607H45.2622L45.1196 27.1728L44.9769 26.8607H44.8521V27.3421H44.9234V26.9766L45.0661 27.2887H45.1642L45.289 26.9766V27.3421H45.3871V26.8607ZM45.7793 19.6836C45.7793 12.8899 40.2427 7.35332 33.4312 7.35332C31.0062 7.35332 28.6257 8.0844 26.6108 9.41283C33.0389 14.6998 33.137 24.7031 26.6108 29.9633C28.6257 31.3007 31.024 32.0228 33.4312 32.0228C40.2427 32.0318 45.7793 26.5041 45.7793 19.6836Z" fill="black"/>
</g>
<defs>
<clipPath id="clip0_201_7085">
<rect width="51.354" height="45.648" fill="white" transform="translate(0.131348 0.0157471)"/>
</clipPath>
</defs>
</svg>
