<svg width="52" height="46" viewBox="0 0 52 46" fill="none" xmlns="http://www.w3.org/2000/svg">
<g clip-path="url(#clip0_201_7081)">
<path d="M44.3239 19.7014C43.5304 19.7014 42.6567 20.2988 42.6567 21.7253H45.9287C45.9287 20.2988 45.0995 19.7014 44.3239 19.7014ZM33.8569 19.9332C33.1259 19.9332 32.6712 20.1918 32.3413 20.5573L32.3591 25.2648C32.6712 25.5946 33.1169 25.8621 33.8569 25.8621C35.0249 25.8621 35.8095 24.5872 35.8095 22.8843C35.8095 21.226 35.007 19.9243 33.8569 19.9332ZM47.4978 2.86871H4.70284C2.3402 2.86871 0.42334 4.78557 0.42334 7.14821V38.5312C0.42334 40.8938 2.3402 42.8107 4.70284 42.8107H47.4978C49.8605 42.8107 51.7773 40.8938 51.7773 38.5312V7.14821C51.7773 4.78557 49.8605 2.86871 47.4978 2.86871ZM11.3182 25.0775C11.3182 27.3599 9.50836 28.6527 6.86934 28.6705C5.78163 28.6705 4.58694 28.4566 3.41007 27.9484V24.926C4.47995 25.4966 5.82621 25.9334 6.87825 25.9334C7.58259 25.9334 8.09078 25.7462 8.09078 25.1578C8.09078 23.6421 3.27634 24.2127 3.27634 20.7089C3.27634 18.4621 4.98814 17.1248 7.55584 17.1248C8.60788 17.1248 9.65101 17.2853 10.7031 17.7043V20.6821C9.74017 20.165 8.51873 19.8708 7.55584 19.8708C6.88717 19.8708 6.47705 20.0669 6.47705 20.5573C6.47705 21.9838 11.3182 21.3062 11.3182 25.0775ZM17.4522 20.0313H15.045V24.5337C15.045 26.397 17.051 25.8175 17.4522 25.657V28.2337C17.0331 28.4655 16.2664 28.6527 15.2322 28.6527C13.351 28.6527 11.9423 27.2708 11.9423 25.3985L11.9602 15.2436L15.0539 14.5838V17.3299H17.4522V20.0313ZM24.0497 20.2453C23.6485 20.1115 22.3825 19.9243 21.6336 20.905V28.4298H18.4686V17.3299H21.2057L21.4018 18.266C22.1418 16.9019 23.6218 17.1783 24.0408 17.3299H24.0497V20.2453ZM27.9815 28.4298H24.7987V17.3299H27.9815V28.4298ZM27.9815 15.6894L24.7987 16.367V13.7904L27.9815 13.1128V15.6894ZM34.588 28.6616C33.4825 28.6616 32.8049 28.1891 32.3502 27.8592L32.3413 31.4433L29.1762 32.112V17.3299H31.9668L32.1273 18.1144C32.5642 17.7132 33.3666 17.1248 34.6058 17.1248C36.8258 17.1248 38.921 19.1308 38.921 22.813C38.921 26.8339 36.8526 28.6527 34.588 28.6616ZM48.8887 24.0701H42.6923C42.835 25.5501 43.9227 25.9869 45.153 25.9869C46.4101 25.9869 47.3998 25.7195 48.2646 25.2826V27.8325C47.3998 28.305 46.2675 28.6527 44.7518 28.6527C41.667 28.6527 39.5094 26.718 39.5094 22.9021C39.5094 19.6747 41.3371 17.1159 44.3506 17.1159C47.3552 17.1159 48.9243 19.6747 48.9243 22.92C48.9243 23.232 48.8976 23.8918 48.8887 24.0701Z" fill="black"/>
</g>
<defs>
<clipPath id="clip0_201_7081">
<rect width="51.354" height="45.648" fill="white" transform="translate(0.42334 0.0157471)"/>
</clipPath>
</defs>
</svg>
