<svg width="52" height="46" viewBox="0 0 52 46" fill="none" xmlns="http://www.w3.org/2000/svg">
<g clip-path="url(#clip0_201_7079)">
<path d="M41.9814 20.6376C41.9814 20.6376 42.659 23.9542 42.8106 24.6496H39.8328C40.127 23.8561 41.2593 20.7713 41.2593 20.7713C41.2414 20.798 41.5535 19.96 41.7318 19.4429L41.9814 20.6376ZM51.4231 7.14821V38.5312C51.4231 40.8938 49.5062 42.8107 47.1436 42.8107H4.34859C1.98595 42.8107 0.0690918 40.8938 0.0690918 38.5312V7.14821C0.0690918 4.78557 1.98595 2.86871 4.34859 2.86871H47.1436C49.5062 2.86871 51.4231 4.78557 51.4231 7.14821ZM13.6654 29.5443L19.3001 15.7072H15.511L12.0071 25.1578L11.6237 23.2409L10.3756 16.8752C10.1705 15.9925 9.53749 15.7429 8.75291 15.7072H2.9845L2.92209 15.9836C4.33076 16.3402 5.58786 16.8573 6.68448 17.5082L9.87628 29.5443H13.6654ZM22.0818 29.5621L24.3285 15.7072H20.7444L18.5066 29.5621H22.0818ZM34.5547 25.033C34.5726 23.4549 33.6097 22.2513 31.5502 21.2616C30.2931 20.6286 29.5263 20.2007 29.5263 19.5498C29.5441 18.9614 30.1772 18.3552 31.5858 18.3552C32.7538 18.3284 33.6097 18.6048 34.2516 18.8812L34.5726 19.0327L35.0629 16.0371C34.3586 15.7607 33.2352 15.4487 31.8533 15.4487C28.3138 15.4487 25.8263 17.3388 25.8085 20.0313C25.7818 22.0195 27.5916 23.125 28.9468 23.7937C30.3287 24.4713 30.8012 24.917 30.8012 25.5144C30.7834 26.4416 29.6779 26.8696 28.6526 26.8696C27.2261 26.8696 26.4593 26.6467 25.2914 26.1296L24.8189 25.9067L24.3196 29.0182C25.1577 29.4016 26.709 29.7404 28.3138 29.7582C32.0762 29.7671 34.528 27.9038 34.5547 25.033ZM47.1436 29.5621L44.2549 15.7072H41.4822C40.6263 15.7072 39.9754 15.9568 39.6099 16.8573L34.2873 29.5621H38.0496C38.0496 29.5621 38.6648 27.8503 38.7986 27.4847H43.399C43.506 27.9751 43.827 29.5621 43.827 29.5621H47.1436Z" fill="black"/>
</g>
<defs>
<clipPath id="clip0_201_7079">
<rect width="51.354" height="45.648" fill="white" transform="translate(0.0693359 0.0157471)"/>
</clipPath>
</defs>
</svg>
