<svg width="47" height="46" viewBox="0 0 47 46" fill="none" xmlns="http://www.w3.org/2000/svg">
<g clip-path="url(#clip0_201_7077)">
<path d="M29.7718 23.9631C29.433 27.1014 26.6157 29.3659 23.4774 29.0271C20.3391 28.6884 18.0745 25.871 18.4133 22.7327C18.7521 19.5944 21.5694 17.3299 24.7077 17.6686C27.8371 18.0074 30.1106 20.8248 29.7718 23.9631ZM22.1222 44.9237C9.04299 44.2372 -0.309501 32.6023 1.32206 20.0135C2.32061 12.2925 7.18854 6.02484 13.7237 2.89546C28.0778 -3.97849 44.9016 6.2299 45.3474 22.2067C45.7129 35.3127 34.7913 45.5835 22.1222 44.9237ZM38.1614 28.8756C40.6489 18.3552 23.8518 10.5183 17.0136 7.9952C11.8871 13.0147 10.8529 24.8101 14.0001 38.7006C20.134 40.1093 29.0764 36.3469 38.1614 28.8756Z" fill="black"/>
</g>
<defs>
<clipPath id="clip0_201_7077">
<rect width="45.648" height="45.648" fill="white" transform="translate(0.421387 0.0157471)"/>
</clipPath>
</defs>
</svg>
