<svg width="41" height="46" viewBox="0 0 41 46" fill="none" xmlns="http://www.w3.org/2000/svg">
<g clip-path="url(#clip0_201_7075)">
<path d="M26.2989 8.70845L29.1162 11.5347L22.3136 18.3552V8.70845H26.2989ZM11.8199 11.5347L18.6225 18.3552V8.70845H14.6373L11.8199 11.5347ZM15.5199 7.8258H19.5052V19.2289L20.4681 20.1918L21.431 19.2289V7.8258H25.4162L20.4681 2.86871L15.5199 7.8258ZM17.8558 22.813L16.8929 21.8501H5.42742V17.8559L0.479248 22.813L5.42742 27.77V23.7759H16.8929L17.8558 22.813ZM24.9259 20.9674H34.5458V16.9732L31.7285 14.147L24.9259 20.9674ZM40.3767 22.813L35.4285 17.8559V21.8501H24.0432L23.0804 22.813L24.0432 23.7759H35.4285V27.77L40.3767 22.813ZM6.31007 15.725L9.20764 12.8988L17.2584 20.9674H18.6225V19.6033L10.5717 11.5347L13.3891 8.70845H6.31007V15.725ZM34.5458 8.70845H27.5471L30.3644 11.5347L22.3136 19.6033V20.9674H23.6777L31.7285 12.8988L34.5458 15.725V8.70845ZM18.6225 36.9175V27.2797L11.8199 34.1001L14.6373 36.9264H18.6225V36.9175ZM6.31007 20.9674H16.0103L9.20764 14.147L6.31007 16.9732V20.9674ZM34.5458 29.9009L31.7285 32.7271L23.6777 24.6585H22.3136V26.0226L30.3644 34.0912L27.5471 36.9175H34.5458V29.9009ZM34.5458 24.6585H24.9259L31.7285 31.4789L34.5458 28.6527V24.6585ZM29.1162 34.0912L22.3136 27.2708V36.9086H26.2989L29.1162 34.0912ZM9.20764 31.4789L16.0103 24.6585H6.31007V28.6527L9.20764 31.4789ZM25.4162 37.8001H21.431V26.397L20.4681 25.4342L19.5052 26.397V37.8001H15.5199L20.4681 42.7572L25.4162 37.8001ZM10.5717 34.0912L18.6225 26.0226V24.6585H17.2584L9.20764 32.7271L6.31007 29.9009V36.9175H13.3891L10.5717 34.0912Z" fill="black"/>
</g>
<defs>
<clipPath id="clip0_201_7075">
<rect width="39.942" height="45.648" fill="white" transform="translate(0.479248 0.0157471)"/>
</clipPath>
</defs>
</svg>
