<svg width="45" height="46" viewBox="0 0 45 46" fill="none" xmlns="http://www.w3.org/2000/svg">
<g clip-path="url(#clip0_201_7073)">
<path d="M11.9816 19.4072L5.17008 8.94026C9.41391 3.66221 15.7797 0.755713 22.2881 0.728966C26.0594 0.702219 29.9109 1.66511 33.4148 3.68895C37.2842 5.93569 40.2263 9.16315 42.0986 12.872L23.7948 11.9092C18.6148 11.606 13.6845 14.5214 11.9816 19.4072ZM14.9149 22.8397C14.9149 26.9587 18.2493 30.2932 22.3683 30.2932C26.4873 30.2932 29.8218 26.9587 29.8218 22.8397C29.8218 18.7207 26.4873 15.3862 22.3683 15.3862C18.2493 15.3862 14.9149 18.7118 14.9149 22.8397ZM42.9902 14.887L30.535 15.5289C33.914 19.4785 33.9675 25.1756 31.1235 29.5443L21.129 44.9148C25.2748 45.1377 29.5454 44.2283 33.4148 41.9816C42.9902 36.4539 46.8684 24.8636 42.9902 14.887ZM12.1778 27.0835L3.85948 10.7234C1.586 14.2005 0.257568 18.373 0.257568 22.8397C0.257568 33.8951 8.35295 43.0514 18.9358 44.6741L24.6151 33.5474C19.4797 34.5103 14.5226 31.6929 12.1778 27.0835Z" fill="black"/>
</g>
<defs>
<clipPath id="clip0_201_7073">
<rect width="44.2215" height="45.648" fill="white" transform="translate(0.257812 0.0157471)"/>
</clipPath>
</defs>
</svg>
