<svg width="41" height="46" viewBox="0 0 41 46" fill="none" xmlns="http://www.w3.org/2000/svg">
<g clip-path="url(#clip0_201_7067)">
<path d="M28.9688 13.7458L28.1307 14.4234C26.1247 12.7027 23.5391 11.4277 20.704 11.4277C14.3204 11.4277 9.16715 16.8484 9.16715 23.2231C9.16715 23.8115 9.20282 24.3911 9.29197 24.9527C9.11366 19.96 13.0187 16.2689 17.5478 16.2689C19.7054 16.2689 21.6669 17.107 23.129 18.4711L20.8823 20.2899C20.1423 20.2096 19.3845 20.4504 18.8228 21.012C17.8331 21.9928 17.8331 23.5887 18.8228 24.5783C19.8124 25.559 21.3994 25.559 22.389 24.5783C22.9507 24.0166 23.1914 23.2499 23.1112 22.5188L29.8157 14.6017C30.3774 14.0222 29.5215 13.1841 28.9688 13.7458ZM21.4975 23.6867C20.9982 24.1771 20.1958 24.1771 19.6965 23.6867C19.1972 23.1874 19.1972 22.385 19.6965 21.8858C20.1958 21.3865 20.9982 21.3865 21.4975 21.8858C21.9967 22.385 21.9967 23.1964 21.4975 23.6867ZM20.5792 2.86874C9.56836 2.86874 0.608154 11.8289 0.608154 22.8397C0.608154 33.8505 9.56836 42.8107 20.5792 42.8107C31.5899 42.8107 40.5501 33.8505 40.5501 22.8397C40.5501 11.8289 31.5899 2.86874 20.5792 2.86874ZM20.5792 37.1047C12.7156 37.1047 6.31415 30.7033 6.31415 22.8397C6.31415 14.9762 12.7156 8.57474 20.5792 8.57474C28.4427 8.57474 34.8441 14.9762 34.8441 22.8397C34.8441 30.7033 28.4427 37.1047 20.5792 37.1047Z" fill="black"/>
</g>
<defs>
<clipPath id="clip0_201_7067">
<rect width="39.942" height="45.648" fill="white" transform="translate(0.60791 0.0157471)"/>
</clipPath>
</defs>
</svg>
