<svg width="30" height="46" viewBox="0 0 30 46" fill="none" xmlns="http://www.w3.org/2000/svg">
<g clip-path="url(#clip0_201_7065)">
<path d="M29.6526 37.4524C29.6526 41.5893 26.3003 44.9505 22.1635 44.9505C18.0266 44.9505 14.6744 41.5893 14.6744 37.4524C14.6744 33.3156 18.0266 29.9633 22.1635 29.9633C26.3003 29.9633 29.6526 33.3156 29.6526 37.4524ZM22.1635 15.7072C26.3003 15.7072 29.296 12.3549 29.296 8.2181C29.296 4.08125 26.3003 0.728973 22.1635 0.728973C18.0266 0.728973 14.3177 4.08125 14.3177 8.2181C14.3177 12.3549 11.6787 14.994 7.54186 14.994C3.40501 14.994 0.0527344 18.7029 0.0527344 22.8397C0.0527344 26.9766 3.40501 29.9722 7.54186 29.9722C11.6787 29.9722 15.031 26.9766 15.031 22.8397C15.031 18.7029 18.0266 15.7072 22.1635 15.7072Z" fill="black"/>
</g>
<defs>
<clipPath id="clip0_201_7065">
<rect width="29.5999" height="45.648" fill="white" transform="translate(0.0078125 0.0157471)"/>
</clipPath>
</defs>
</svg>
