<svg width="47" height="46" viewBox="0 0 47 46" fill="none" xmlns="http://www.w3.org/2000/svg">
<g clip-path="url(#clip0_201_7057)">
<path d="M0.915708 36.7659C0.514505 37.4435 0.72848 38.3261 1.40607 38.7452L10.8477 44.5582C11.5342 44.9772 12.4258 44.7721 12.8448 44.0856C12.8448 44.0767 12.8537 44.0678 12.8537 44.0678C18.8361 34.0645 20.0308 35.5177 37.8977 44.0054C38.6199 44.3531 39.4847 44.041 39.8324 43.3189C39.8413 43.31 39.8413 43.2921 39.8502 43.2832L44.3437 33.1105C44.6647 32.3883 44.3348 31.5413 43.6215 31.2115C41.6423 30.2842 37.7194 28.4298 34.1799 26.7269C12.0781 15.9747 4.68702 30.8013 0.915708 36.7659ZM46.1536 8.94024C46.5548 8.26265 46.3408 7.38001 45.6632 6.96097L36.2305 1.1569C35.5618 0.711121 34.6613 0.880518 34.2156 1.54919C34.1977 1.57594 34.1799 1.60268 34.1621 1.63835C28.1619 11.6773 26.9315 10.1617 9.14483 1.71859C8.42266 1.37088 7.55785 1.68292 7.21014 2.40509C7.20122 2.414 7.20122 2.43184 7.19231 2.44075L2.68992 12.6135C2.36895 13.3356 2.69883 14.1826 3.41208 14.5125C5.39135 15.4397 9.32314 17.2942 12.8626 19.006C34.9734 29.7047 42.3555 14.9583 46.1536 8.94024Z" fill="black"/>
</g>
<defs>
<clipPath id="clip0_201_7057">
<rect width="45.648" height="45.648" fill="white" transform="translate(0.709961 0.0157471)"/>
</clipPath>
</defs>
</svg>
