<svg width="52" height="46" viewBox="0 0 52 46" fill="none" xmlns="http://www.w3.org/2000/svg">
<path d="M49.4363 21.5024L44.9705 13.7649C45.066 13.5739 45.1377 13.3589 45.1377 13.1201C45.1377 12.4036 44.5407 11.8066 43.8242 11.7827L38.8808 3.2332C38.9286 3.08992 38.9763 2.94665 38.9763 2.80338C38.9763 2.03922 38.3554 1.44214 37.6151 1.44214C37.1852 1.44214 36.827 1.6332 36.5643 1.94364H27.0597C26.8208 1.63329 26.4626 1.44223 26.0328 1.44223C25.6029 1.44223 25.2447 1.63329 25.0059 1.94373H15.549C15.2862 1.63329 14.9281 1.44223 14.4982 1.44223C13.7579 1.44223 13.1369 2.03922 13.1369 2.80347C13.1369 2.94674 13.1847 3.11391 13.2325 3.23329L8.24128 11.9022C7.76376 12.1171 7.42934 12.5709 7.42934 13.1202C7.42934 13.1679 7.45323 13.2157 7.45323 13.2635L2.70085 21.4786C2.05607 21.598 1.57837 22.1472 1.57837 22.8159C1.57837 23.4607 2.03209 24.01 2.65306 24.1533L7.57261 32.655C7.52482 32.7983 7.50093 32.9177 7.50093 33.0848C7.50093 33.7296 7.95465 34.2789 8.57562 34.3983L13.1847 42.3985C13.1369 42.5417 13.0892 42.7089 13.0892 42.8761C13.0892 43.6402 13.7101 44.2373 14.4505 44.2373C14.8803 44.2373 15.2385 44.0462 15.4774 43.7597H25.006C25.2447 44.0462 25.6268 44.2372 26.0328 44.2372C26.4387 44.2372 26.8208 44.0462 27.0597 43.7596H36.6121C36.8509 44.0223 37.2091 44.1894 37.5912 44.1894C38.3554 44.1894 38.9525 43.5686 38.9525 42.8282C38.9525 42.6849 38.9287 42.5655 38.8809 42.4462L43.49 34.3982C44.1109 34.2788 44.5647 33.7295 44.5647 33.0848C44.5647 32.9415 44.5408 32.7982 44.493 32.6549L49.3887 24.1532C50.0096 24.0338 50.4873 23.4845 50.4873 22.8158C50.4871 22.1711 50.0333 21.6218 49.4363 21.5024ZM14.0444 40.2013L10.1518 33.443H14.0444V40.2013ZM14.0444 32.7265H10.1518C10.1279 32.631 10.0801 32.5356 10.0324 32.44L14.0444 28.2131V32.7265ZM14.0444 27.1622L9.55473 31.9146C9.43535 31.8668 9.31588 31.7951 9.1965 31.7713L4.22934 23.1741C4.27704 23.0547 4.27704 22.9352 4.27704 22.8158C4.27704 22.6964 4.27704 22.601 4.25315 22.5054L8.88615 14.4813C9.125 14.4574 9.36376 14.3858 9.57872 14.2425L14.0445 18.8755L14.0444 27.1622ZM14.0444 18.0396L9.96075 13.8127C10.0801 13.6216 10.1518 13.3828 10.1518 13.1202C10.1518 13.0963 10.1279 13.0485 10.1279 13.0246L14.0444 11.6156V18.0396ZM14.0444 10.8513L10.1518 12.2604L14.0444 5.52585V10.8513ZM43.1556 14.3381L43.2273 14.4574L40.0749 29.3593L34.3912 23.3651L43.1317 14.3142L43.1556 14.3381ZM26.3671 31.6757L27.394 32.7265H25.3641L26.3671 31.6757ZM26.3432 30.6727L18.9162 23.0547L26.0089 15.5321L33.4121 23.3412L26.3432 30.6727ZM26.8208 31.1981L33.8897 23.8666L39.9077 30.219L39.3824 32.7265H28.3253L26.8208 31.1981ZM36.9465 3.97364C37.042 4.02143 37.1374 4.06922 37.2569 4.09311L42.4152 13.0724V13.1202C42.4152 13.3828 42.4868 13.6216 42.6063 13.8127L33.9136 22.8397L26.5105 15.0306L36.9465 3.97364ZM36.1345 3.78258L26.0089 14.5052L20.9222 9.13195L35.7523 3.78258H36.1345ZM25.1252 3.78258C25.364 4.02134 25.6744 4.16461 26.0328 4.16461C26.3911 4.16461 26.7014 4.02134 26.9403 3.78258H33.627L20.3968 8.55877L15.8594 3.78258H25.1252ZM14.7609 4.28408L14.8564 4.09311C14.937 4.07252 15.0167 4.0486 15.0953 4.02143L19.6566 8.8216L14.7609 10.5888V4.28408ZM14.7609 11.3529L20.1819 9.3947L25.5074 15.0306L18.4147 22.5293L14.7609 18.78V11.3529ZM14.7609 19.6157L18.0087 22.983L14.7609 26.398V19.6157ZM14.7609 27.4488L18.5102 23.4846L25.8895 31.1504L24.3611 32.7265H14.7609V27.4488ZM15.3818 41.8969C15.2385 41.7536 15.0714 41.6581 14.8564 41.5864L14.7609 41.4432V33.443H23.6685L15.5012 41.8969H15.3818ZM26.9642 41.8969C26.7253 41.682 26.3911 41.5148 26.0328 41.5148C25.6744 41.5148 25.3403 41.682 25.1014 41.8969H16.5041L24.6714 33.443H28.0865L36.2538 41.8969H26.9642ZM37.6629 40.8461L37.2808 41.5147C37.1614 41.5386 37.0659 41.5863 36.9704 41.6341L29.018 33.4429H39.2153L37.6629 40.8461ZM38.8091 38.864L39.9555 33.443H41.9137L38.8091 38.864ZM41.9137 32.7265H40.0988L40.5047 30.84L42.0331 32.4639C41.9854 32.5355 41.9376 32.631 41.9137 32.7265ZM47.8124 23.1502L42.8689 31.7713C42.7496 31.819 42.6301 31.8668 42.5107 31.9384L40.6719 29.9802L43.7526 15.365L47.8362 22.4338C47.8124 22.5532 47.7646 22.6726 47.7646 22.8158C47.7646 22.9352 47.7885 23.0308 47.8124 23.1502Z" fill="black"/>
</svg>
