<svg width="47" height="46" viewBox="0 0 47 46" fill="none" xmlns="http://www.w3.org/2000/svg">
<g clip-path="url(#clip0_201_7053)">
<path d="M4.7557 27.2084C6.03955 33.1907 7.10942 38.7095 10.8362 42.8107H3.73932C2.0721 42.8107 0.708008 41.4555 0.708008 39.7794V5.90003C0.708008 4.2328 2.06318 2.86871 3.73932 2.86871H8.88363C7.65328 3.99208 6.55666 5.29376 5.59377 6.75592C1.54608 12.9969 3.18655 19.8441 4.7557 27.2084ZM43.3247 2.86871H35.2828C37.1907 4.77666 38.7777 7.28195 39.9813 10.3668L27.758 12.979C26.4296 10.3935 24.3879 8.227 20.3937 9.06507C18.2005 9.5376 16.7383 10.7858 16.0875 12.1499C15.3029 13.8171 14.9106 15.6983 16.8185 24.6585C18.6997 33.5919 19.8231 35.1522 21.2318 36.3558C22.3819 37.3454 24.2096 37.8714 26.4296 37.3989C30.397 36.5609 31.3956 33.7703 31.5471 30.8727L43.7972 28.2337C44.0825 34.6083 42.13 39.396 38.6796 42.8196H43.3247C44.9919 42.8196 46.356 41.4644 46.356 39.7883V5.90003C46.356 4.22389 45.0008 2.86871 43.3247 2.86871Z" fill="black"/>
</g>
<defs>
<clipPath id="clip0_201_7053">
<rect width="45.648" height="45.648" fill="white" transform="translate(0.708008 0.0157471)"/>
</clipPath>
</defs>
</svg>
