<svg width="46" height="46" viewBox="0 0 46 46" fill="none" xmlns="http://www.w3.org/2000/svg">
<g clip-path="url(#clip0_201_7051)">
<path d="M42.3482 29.4739C40.2388 37.6629 33.947 42.365 24.3475 42.7002V38.3173C24.3475 34.0378 26.7022 31.6849 30.9799 31.6849C36.5076 31.6849 39.8242 28.3683 39.8242 22.8398C39.8242 17.3682 36.5673 14.0775 31.1421 14.0079C28.2 7.82762 18.0808 8.24398 15.3401 14.0079C9.91404 14.0775 6.65806 17.3682 6.65806 22.8398C6.65806 28.379 9.98091 31.7028 15.5202 31.7028C19.7997 31.7028 22.1668 34.0413 22.1668 38.3351V42.7216C10.1815 42.2758 3.3459 35.1371 3.3459 22.8398C3.3459 10.1956 10.5988 2.94008 23.2456 2.94008C33.478 2.94008 40.171 7.68319 42.3865 16.2074H44.6386C42.3098 6.39132 34.6727 0.729004 23.2251 0.729004C9.4219 0.729004 1.13037 9.03747 1.13037 22.8237C1.13037 36.6714 9.43884 44.9808 23.2251 44.9505C34.6611 44.9505 42.2929 39.2614 44.5931 29.4739H42.3482ZM31.8893 16.2716C35.5777 16.5792 37.6131 18.8571 37.6131 22.8398C37.6131 27.1192 35.2567 29.4739 30.9799 29.4739C28.4291 29.4739 26.5818 28.6189 25.4887 27.0372C32.8941 25.5617 32.2281 18.151 31.8893 16.2716ZM24.607 24.9519C24.3877 24.03 23.1511 17.1953 29.6202 16.3037C29.8226 17.2033 31.0931 24.0701 24.6043 24.9519H24.607ZM23.2411 11.7844C25.7919 11.7844 27.6098 12.6465 28.7189 14.246C26.1904 14.7346 24.3181 16.0817 23.2277 18.1198C22.1374 16.0817 20.2651 14.7319 17.7357 14.246C18.8421 12.6688 20.7019 11.8076 23.2251 11.8076L23.2411 11.7844ZM16.8647 16.3064C23.3882 17.2488 22.1169 24.046 21.9011 24.9545C15.4453 24.0772 16.6409 17.2024 16.8861 16.3064H16.8647ZM15.5024 29.4739C11.2229 29.4739 8.86913 27.1201 8.86913 22.8398C8.86913 18.8848 10.9072 16.5988 14.5947 16.2716C13.9929 19.5882 14.4717 25.7694 20.9828 27.0372C19.9004 28.609 18.0549 29.4712 15.5318 29.4712L15.5024 29.4739ZM20.2464 30.5785C21.5216 29.9038 22.5649 28.8618 23.2411 27.5873C23.9339 28.8792 24.9645 29.8644 26.2564 30.5785C24.9761 31.2576 23.9321 32.3094 23.2625 33.5947C22.5493 32.3019 21.5623 31.2561 20.2704 30.5785H20.2464Z" fill="black"/>
</g>
<defs>
<clipPath id="clip0_201_7051">
<rect width="45.648" height="45.648" fill="white" transform="translate(0.0600586 0.0157471)"/>
</clipPath>
</defs>
</svg>
