<svg width="45" height="47" viewBox="0 0 45 47" fill="none" xmlns="http://www.w3.org/2000/svg">
<g clip-path="url(#clip0_201_7041)">
<path d="M22.6425 1.08099C35.2848 1.08099 44.7889 10.8971 44.7889 23.1917C44.7889 36.3066 34.2239 45.3025 22.6425 45.3025C10.6955 45.3025 0.567383 35.5399 0.567383 23.1917C0.567383 11.3429 9.90204 1.08099 22.6425 1.08099ZM22.7138 5.06628C12.1755 5.06628 4.55267 13.7947 4.55267 23.1917C4.55267 32.9811 12.6837 41.2726 22.7138 41.2726C31.9147 41.2726 40.7947 34.042 40.7947 23.1917C40.8036 13.0458 32.7528 5.06628 22.7138 5.06628ZM31.0945 17.9315V21.7207H15.0196V17.9315H31.0945ZM31.0945 25.0462V28.8353H15.0196V25.0462H31.0945Z" fill="black"/>
</g>
<defs>
<clipPath id="clip0_201_7041">
<rect width="44.2215" height="45.648" fill="white" transform="translate(0.567383 0.367798)"/>
</clipPath>
</defs>
</svg>
