<svg width="45" height="47" viewBox="0 0 45 47" fill="none" xmlns="http://www.w3.org/2000/svg">
<g clip-path="url(#clip0_201_7027)">
<path d="M22.0924 1.08105C34.7348 1.08105 44.2388 10.8972 44.2388 23.1918C44.2388 36.3067 33.6738 45.3025 22.0924 45.3025C10.1455 45.3025 0.017334 35.5399 0.017334 23.1918C0.017334 11.3429 9.35199 1.08105 22.0924 1.08105ZM22.1637 5.06634C11.6255 5.06634 4.00262 13.7947 4.00262 23.1918C4.00262 32.9812 12.1337 41.2727 22.1637 41.2727C31.3647 41.2727 40.2446 34.0421 40.2446 23.1918C40.2535 13.0458 32.2027 5.06634 22.1637 5.06634ZM22.4847 9.80945C22.7343 9.7827 23.51 9.89861 23.51 10.8347L24.0984 20.3923L24.5353 15.1053C24.5353 14.5704 24.9543 14.1603 25.4804 14.1603C26.0064 14.1603 26.4254 14.5793 26.4254 15.1053C26.4254 15.3282 26.3808 14.5971 26.9336 22.3716L27.4507 16.6477C27.4775 16.3892 27.7093 15.8186 28.3601 15.8186C28.6989 15.8186 29.2427 16.0236 29.3052 16.6121L30.3305 25.2156L30.803 24.0744C30.9635 23.6822 31.2666 23.486 31.7124 23.486H36.8834V25.385H32.3454L30.7227 29.3347C30.375 30.2173 28.9842 30.146 28.8683 29.0583L28.5117 26.2142L27.843 34.4701C27.8162 34.7375 27.5755 35.2992 26.9336 35.2992C26.6661 35.2992 26.0599 35.112 25.9885 34.4701C25.9885 34.3007 26.042 34.9872 25.4358 27.5248L24.9632 33.9619C24.8652 34.3898 24.5353 34.791 24.0182 34.791C23.7596 34.791 23.1445 34.6127 23.0731 33.9619C23.0731 33.7925 23.1177 34.5592 22.556 26.1429L22.0389 34.5949C22.0389 35.1566 21.718 35.7004 21.0939 35.7004C20.6303 35.7004 20.1488 35.3349 20.1488 34.6305L19.6317 26.8115C19.1146 35.0585 19.1592 34.3007 19.1592 34.4701C19.0611 34.898 18.7312 35.2992 18.2141 35.2992C17.9467 35.2992 17.3404 35.112 17.2691 34.4701C17.2691 34.4076 17.2334 34.372 17.2334 34.2383L16.6806 26.339L16.2438 31.3942C16.1814 31.9737 15.6464 32.2233 15.2987 32.2233C14.7816 32.2233 14.4428 31.8578 14.3537 31.4298L13.364 24.6183C13.1857 24.9749 13.052 25.3672 12.3744 25.3672H7.79176V23.4682H11.786L13.0074 20.9807C13.3997 20.0981 14.63 20.3388 14.7816 21.2214L15.058 23.0402L15.8069 14.3118C15.8069 13.7769 16.2349 13.3668 16.752 13.3668C16.7965 13.3668 17.697 13.349 17.697 14.4723L18.1339 20.633L18.7223 12.3771C18.7223 11.4767 19.5693 11.4321 19.6317 11.4321C19.6852 11.4321 20.5768 11.4945 20.5768 12.3771L21.0493 19.5631L21.6021 10.8347C21.611 10.7367 21.5486 9.91644 22.4847 9.80945Z" fill="black"/>
</g>
<defs>
<clipPath id="clip0_201_7027">
<rect width="44.2215" height="45.648" fill="white" transform="translate(0.0170898 0.367798)"/>
</clipPath>
</defs>
</svg>
