<svg width="45" height="47" viewBox="0 0 45 47" fill="none" xmlns="http://www.w3.org/2000/svg">
<g clip-path="url(#clip0_201_7023)">
<path d="M22.6493 1.08109C35.2917 1.08109 44.7957 10.8972 44.7957 23.1918C44.7957 36.3067 34.2307 45.3026 22.6493 45.3026C10.7024 45.3026 0.574219 35.54 0.574219 23.1918C0.574219 11.343 9.90888 1.08109 22.6493 1.08109ZM22.7206 5.06637C12.1824 5.06637 4.5595 13.7948 4.5595 23.1918C4.5595 32.9812 12.6905 41.2727 22.7206 41.2727C31.9215 41.2727 40.8015 34.0421 40.8015 23.1918C40.8104 13.0459 32.7596 5.06637 22.7206 5.06637ZM22.685 10.4603C15.3831 10.4603 13.5464 17.3521 13.5464 23.1918C13.5464 29.0316 15.3831 35.9233 22.685 35.9233C29.9869 35.9233 31.8235 29.0316 31.8235 23.1918C31.8235 17.3521 29.9869 10.4603 22.685 10.4603ZM22.685 15.2658C22.9792 15.2658 23.2556 15.3104 23.5052 15.3728C24.0312 15.8275 24.2898 16.4516 23.7816 17.3253L18.9226 26.2588C18.771 25.1265 18.7532 24.021 18.7532 23.1918C18.7532 20.6241 18.9315 15.2658 22.685 15.2658ZM26.3225 19.3849C26.5811 20.7579 26.6168 22.1844 26.6168 23.1918C26.6168 25.7684 26.4384 31.1178 22.685 31.1178C21.4814 31.1178 19.7785 30.4313 20.8929 28.7641L26.3225 19.3849Z" fill="black"/>
</g>
<defs>
<clipPath id="clip0_201_7023">
<rect width="44.2215" height="45.648" fill="white" transform="translate(0.574219 0.367798)"/>
</clipPath>
</defs>
</svg>
