<svg width="45" height="47" viewBox="0 0 45 47" fill="none" xmlns="http://www.w3.org/2000/svg">
<g clip-path="url(#clip0_201_7033)">
<path d="M22.7567 1.08102C35.3991 1.08102 44.9031 10.8971 44.9031 23.1918C44.9031 36.3066 34.3381 45.3025 22.7567 45.3025C10.8098 45.3025 0.681641 35.5399 0.681641 23.1918C0.681641 11.3429 10.0163 1.08102 22.7567 1.08102ZM22.828 5.06631C12.2898 5.06631 4.66692 13.7947 4.66692 23.1918C4.66692 32.9811 12.798 41.2726 22.828 41.2726C32.029 41.2726 40.9089 34.0421 40.9089 23.1918C40.9178 13.0458 32.867 5.06631 22.828 5.06631ZM37.2446 23.5841L37.6815 23.7802V30.0211C37.0396 30.3421 32.029 32.4729 31.6813 32.5888C31.1017 32.4284 21.5442 28.4163 19.4401 27.5783L13.7163 29.9498L8.07269 27.498V21.8098L13.3597 19.5988C13.2972 19.5364 13.324 20.0446 13.324 13.3222L19.3242 10.6742L32.867 16.2822V21.7742L37.2446 23.5841ZM30.968 30.8503V26.9452H30.9323V26.7848L20.7864 22.639V26.6689L30.9323 30.8503V30.8146L30.968 30.8503ZM31.6367 25.7149L35.194 24.2527L31.9131 22.8708L28.436 24.333L31.6367 25.7149ZM36.2996 29.1117V25.278L32.3499 26.9363V30.8057L36.2996 29.1117Z" fill="black"/>
</g>
<defs>
<clipPath id="clip0_201_7033">
<rect width="44.2215" height="45.648" fill="white" transform="translate(0.681641 0.367798)"/>
</clipPath>
</defs>
</svg>
