<svg width="45" height="47" viewBox="0 0 45 47" fill="none" xmlns="http://www.w3.org/2000/svg">
<g clip-path="url(#clip0_201_7029)">
<path d="M22.3139 1.08105C34.9562 1.08105 44.4603 10.8972 44.4603 23.1918C44.4603 36.3067 33.8952 45.3025 22.3139 45.3025C10.3669 45.3025 0.23877 35.5399 0.23877 23.1918C0.23877 11.3429 9.57343 1.08105 22.3139 1.08105ZM22.3852 5.06634C11.8469 5.06634 4.22405 13.7947 4.22405 23.1918C4.22405 32.9812 12.3551 41.2727 22.3852 41.2727C31.5861 41.2727 40.4661 34.0421 40.4661 23.1918C40.475 13.0458 32.4242 5.06634 22.3852 5.06634ZM31.9249 23.3969C31.5059 23.3969 31.1225 23.6465 30.9709 24.0388L30.6143 24.8858L29.6336 16.6121C29.482 15.3728 27.6721 15.4174 27.5741 16.6477L27.1907 21.2304L26.7271 15.0964C26.629 13.8215 24.7567 13.8304 24.6587 15.0964L24.3466 19.0995L23.8206 10.6921C23.7404 9.39933 21.8324 9.40825 21.7522 10.6921L21.2975 18.1545L20.9141 12.2434C20.8339 10.9596 18.9348 10.9596 18.8457 12.2434L18.3731 19.3937L18.0076 14.3118C17.9095 13.0369 16.0462 13.0369 15.9392 14.294L15.2527 22.3002L15.0922 21.2125C14.9406 20.1961 13.5676 20 13.1308 20.9183L11.9539 23.3879H8.03994V25.4564H12.6137C13.0059 25.4564 13.3626 25.2335 13.5409 24.8858L14.4948 31.4031C14.6732 32.6067 16.4474 32.5621 16.5544 31.3407L16.8932 27.4535L17.4013 34.4344C17.4994 35.7183 19.3895 35.7004 19.4698 34.4255L19.8799 28.1489L20.3078 34.684C20.3881 35.9679 22.296 35.9679 22.3763 34.6751L22.8131 27.498L23.2143 33.8995C23.2946 35.1744 25.1847 35.1922 25.2828 33.9173L25.6929 28.6927L26.1297 34.4344C26.2278 35.7093 28.0912 35.7004 28.1892 34.4433L28.7955 27.0433L29.0362 29.0315C29.161 30.0836 30.6143 30.2886 31.0244 29.3079L32.6292 25.4385H37.1316V23.3701L31.9249 23.3969ZM24.9707 23.8605H23.0182V25.813C23.0182 26.1785 22.724 26.4817 22.3495 26.4817C21.984 26.4817 21.6808 26.1874 21.6808 25.813V23.8605H19.7283C19.3628 23.8605 19.0596 23.5663 19.0596 23.1918C19.0596 22.8263 19.3628 22.5231 19.7283 22.5231H21.6808V20.5706C21.6808 20.2051 21.984 19.9019 22.3495 19.9019C22.7151 19.9019 23.0182 20.1961 23.0182 20.5706V22.5231H24.9707C25.3362 22.5231 25.6394 22.8173 25.6394 23.1918C25.6394 23.5573 25.3362 23.8605 24.9707 23.8605Z" fill="black"/>
</g>
<defs>
<clipPath id="clip0_201_7029">
<rect width="44.2215" height="45.648" fill="white" transform="translate(0.23877 0.367798)"/>
</clipPath>
</defs>
</svg>
