<svg width="46" height="47" viewBox="0 0 46 47" fill="none" xmlns="http://www.w3.org/2000/svg">
<g clip-path="url(#clip0_201_7025)">
<path d="M22.8707 1.08105C35.5131 1.08105 45.0171 10.8972 45.0171 23.1918C45.0171 36.3067 34.4521 45.3025 22.8707 45.3025C10.9238 45.3025 0.795654 35.5399 0.795654 23.1918C0.795654 11.3429 10.1303 1.08105 22.8707 1.08105ZM22.9421 5.06634C12.4038 5.06634 4.78094 13.7947 4.78094 23.1918C4.78094 32.9812 12.912 41.2727 22.9421 41.2727C32.143 41.2727 41.0229 34.0421 41.0229 23.1918C41.0319 13.0458 32.9811 5.06634 22.9421 5.06634ZM31.9468 16.8706C32.6423 16.8706 33.1683 17.4145 33.1683 18.0921V34.3631C33.1683 35.0496 32.6244 35.5845 31.9468 35.5845H19.9018C19.2153 35.5845 18.6804 35.0496 18.6804 34.3631V29.5486H13.866C13.1705 29.5486 12.6445 29.0137 12.6445 28.3272V12.0562C12.6445 11.3251 13.2329 10.9239 13.7501 10.8347H25.911C26.5975 10.8347 27.1324 11.3697 27.1324 12.0562V16.8706H31.9468ZM15.0517 27.1414H18.6804V18.101C18.6804 17.4412 19.1975 16.9776 19.7503 16.8795H24.7252V13.2865H15.0517V27.1414ZM30.7611 19.2868H21.0876V33.1416H30.7611V19.2868Z" fill="black"/>
</g>
<defs>
<clipPath id="clip0_201_7025">
<rect width="44.2215" height="45.648" fill="white" transform="translate(0.795654 0.367798)"/>
</clipPath>
</defs>
</svg>
