<svg width="45" height="47" viewBox="0 0 45 47" fill="none" xmlns="http://www.w3.org/2000/svg">
<g clip-path="url(#clip0_201_7037)">
<path d="M22.1996 1.08099C9.45917 1.08099 0.124512 11.3429 0.124512 23.1917C0.124512 35.5399 10.2527 45.3025 22.1996 45.3025C33.781 45.3025 44.346 36.3066 44.346 23.1917C44.346 10.8971 34.8419 1.08099 22.1996 1.08099ZM22.2709 41.2726C12.2408 41.2726 4.1098 32.9811 4.1098 23.1917C4.1098 13.7947 11.7327 5.06628 22.2709 5.06628C32.3099 5.06628 40.3607 13.0458 40.3518 23.1917C40.3518 34.042 31.4718 41.2726 22.2709 41.2726ZM28.3603 16.9508H23.6172V29.183H28.3603C30.2682 29.183 34.6012 28.7283 34.6012 23.0669C34.6012 17.4144 30.2682 16.9508 28.3603 16.9508ZM28.4316 26.6243H26.6574V19.5185L28.387 19.5096C28.7258 19.5096 31.5075 19.3224 31.5075 23.0669C31.5075 25.2602 30.5714 26.6243 28.4316 26.6243ZM18.2856 16.9508H12.2052V29.1919H15.29V25.2423H17.6972C22.5206 25.2423 22.788 21.899 22.788 21.0966C22.788 18.3327 21.2902 16.9508 18.2856 16.9508ZM17.8488 22.951H15.2454V19.2421H17.7685C20.5235 19.2421 20.3362 22.951 17.8488 22.951Z" fill="black"/>
</g>
<defs>
<clipPath id="clip0_201_7037">
<rect width="44.2215" height="45.648" fill="white" transform="translate(0.124512 0.367798)"/>
</clipPath>
</defs>
</svg>
