<svg width="45" height="47" viewBox="0 0 45 47" fill="none" xmlns="http://www.w3.org/2000/svg">
<g clip-path="url(#clip0_201_7021)">
<path d="M22.2701 19.5248L19.3083 21.0654C18.4675 19.3197 17.058 19.2885 16.8601 19.2885C14.887 19.2885 13.8983 20.5911 13.8983 23.1971C13.8983 25.2986 14.7194 27.1058 16.8601 27.1058C18.1501 27.1058 19.0578 26.4736 19.5856 25.2103L22.3093 26.5922C21.7592 27.6184 20.0189 30.0675 16.5052 30.0675C14.4903 30.0675 9.91122 29.1474 9.91122 23.198C9.91122 17.9655 13.7449 16.3277 16.3866 16.3277C19.1255 16.3268 21.0852 17.3931 22.2701 19.5248ZM35.0239 19.5248L32.1013 21.0654C31.2543 19.3028 29.8082 19.2885 29.6139 19.2885C27.6399 19.2885 26.6521 20.5911 26.6521 23.1971C26.6521 25.2968 27.475 27.1058 29.6139 27.1058C30.9022 27.1058 31.8116 26.4736 32.3367 25.2103L35.1005 26.5922C34.9133 26.9266 33.1935 30.0675 29.2974 30.0675C27.2744 30.0675 22.7034 29.1876 22.7034 23.198C22.7034 17.9672 26.5344 16.3277 29.1788 16.3277C31.9168 16.3268 33.8666 17.3931 35.0239 19.5248ZM22.4243 1.08551C9.69101 1.08551 0.352783 11.3438 0.352783 23.1963C0.352783 35.5435 10.4809 45.307 22.4243 45.307C34.0084 45.307 44.5743 36.3138 44.5743 23.1963C44.5743 10.9043 35.0684 1.08551 22.4243 1.08551ZM22.5019 41.278C12.4682 41.278 4.34074 32.9829 4.34074 23.1963C4.34074 13.7974 11.9574 5.07347 22.5036 5.07347C32.5364 5.07347 40.5863 13.0494 40.5863 23.1954C40.5854 34.0448 31.6992 41.278 22.5019 41.278Z" fill="black"/>
</g>
<defs>
<clipPath id="clip0_201_7021">
<rect width="44.2215" height="45.648" fill="white" transform="translate(0.352783 0.367798)"/>
</clipPath>
</defs>
</svg>
