<svg width="45" height="47" viewBox="0 0 45 47" fill="none" xmlns="http://www.w3.org/2000/svg">
<g clip-path="url(#clip0_201_7045)">
<path d="M22.0942 1.08105C9.24684 1.08105 0.0102539 11.4945 0.0102539 23.1918C0.0102539 35.3438 9.969 45.3025 22.0942 45.3025C33.7024 45.3025 44.2317 36.3067 44.2317 23.1918C44.2317 10.7991 34.6385 1.08105 22.0942 1.08105ZM22.1477 41.2638C12.1622 41.2638 3.99554 33.0168 3.99554 23.1918C3.99554 21.1234 4.32542 19.1619 4.96734 17.3075L10.8249 19.9019H10.4059V22.532H12.4832C12.4832 23.0848 12.4475 22.8173 12.4475 24.2706H10.4148V26.9007H12.822C13.8384 32.8742 18.8133 35.9322 23.9309 35.9322C26.3024 35.9322 28.4422 35.2279 29.7082 34.5236L28.8166 30.4135C28.041 30.8236 26.3024 31.3763 24.5995 31.3763C22.0853 31.3763 19.4196 30.4045 18.5993 26.9007H26.6501L38.0889 31.9648C37.9551 32.152 33.0783 41.2638 22.1477 41.2638ZM20.6588 24.2706L20.6143 24.2349L20.6945 24.2706H20.6588ZM27.5417 22.532H27.8716V19.9019H21.6039L19.054 18.7786C19.2769 18.2882 19.5355 17.8424 19.8386 17.5036C20.9887 16.095 22.6114 15.5065 24.3945 15.5065C26.026 15.5065 27.5417 15.988 28.5046 16.3981L29.5388 12.181C28.2015 11.5926 26.24 11.0755 23.9844 11.0755C20.5073 11.0755 17.5473 12.4841 15.4343 14.8468C14.9618 15.3906 14.5606 15.9969 14.195 16.6388L6.91986 13.4203C12.6794 4.78995 20.9798 5.07525 22.1388 5.07525C32.2135 5.07525 40.2375 13.1171 40.2375 23.2096C40.2375 24.8769 40.0503 26.446 39.6759 27.926L27.5417 22.532Z" fill="black"/>
</g>
<defs>
<clipPath id="clip0_201_7045">
<rect width="44.2215" height="45.648" fill="white" transform="translate(0.0102539 0.367798)"/>
</clipPath>
</defs>
</svg>
