<svg width="45" height="47" viewBox="0 0 45 47" fill="none" xmlns="http://www.w3.org/2000/svg">
<g clip-path="url(#clip0_201_7031)">
<path d="M22.5355 1.08105C35.1779 1.08105 44.6819 10.8972 44.6819 23.1918C44.6819 36.3067 34.1169 45.3025 22.5355 45.3025C10.5886 45.3025 0.460449 35.5399 0.460449 23.1918C0.460449 11.3429 9.79511 1.08105 22.5355 1.08105ZM22.6069 5.06634C12.0686 5.06634 4.44573 13.7947 4.44573 23.1918C4.44573 32.9812 12.5768 41.2727 22.6069 41.2727C31.8078 41.2727 40.6877 34.0421 40.6877 23.1918C40.6967 13.0458 32.6458 5.06634 22.6069 5.06634ZM12.7373 20.0713C13.8963 12.5911 19.9143 11.5391 22.4464 11.5391C31.3442 11.5391 33.8138 18.8945 33.8138 23.5038C33.8138 29.1742 30.1584 35.3527 22.3216 35.3527C18.8534 35.3527 13.4862 33.5696 12.5679 26.7046H18.1401C18.2739 29.3882 19.8876 30.7344 22.9991 30.7344C25.0765 30.7344 28.1702 29.1118 28.1702 23.3523C28.1702 15.9969 23.7926 16.1663 23.115 16.1663C20.164 16.1663 18.5057 17.468 18.1401 20.0713H19.7628L15.3763 24.4578L11.0076 20.0713H12.7373Z" fill="black"/>
</g>
<defs>
<clipPath id="clip0_201_7031">
<rect width="44.2215" height="45.648" fill="white" transform="translate(0.460205 0.367798)"/>
</clipPath>
</defs>
</svg>
