<svg width="41" height="47" viewBox="0 0 41 47" fill="none" xmlns="http://www.w3.org/2000/svg">
<g clip-path="url(#clip0_201_7019)">
<path d="M20.5429 0.367798C20.5661 0.381171 39.8515 11.4686 39.9005 11.4874C40.168 11.5926 40.2304 11.7958 40.2304 12.0722C40.2238 19.512 40.2238 26.9524 40.2304 34.3934C40.2385 34.4997 40.2141 34.606 40.1602 34.6981C40.1064 34.7902 40.0257 34.8637 39.929 34.9087C38.0238 35.9786 21.397 45.455 20.4101 46.0158H20.1426C13.0698 41.9449 0.684242 34.832 0.670868 34.8249C0.616863 34.7995 0.571885 34.7583 0.541936 34.7066C0.511987 34.655 0.498493 34.5955 0.503254 34.536C0.503254 34.4585 0.503254 14.3921 0.498797 11.9706C0.491985 11.8794 0.513398 11.7883 0.560129 11.7096C0.60686 11.631 0.676648 11.5687 0.760024 11.531C2.8338 10.3631 19.4177 0.902735 20.3869 0.367798H20.5429ZM19.6139 2.18837L19.5943 2.1741C13.8217 5.4604 8.05092 8.74759 2.28192 12.0357C2.28192 12.0464 2.28905 12.0562 2.29351 12.0669L5.04487 13.1047C4.35748 13.6396 4.30309 13.6396 4.09536 13.562C4.08644 13.562 1.94045 12.7347 1.70597 12.6705V33.2147C1.78443 33.089 7.41821 23.3264 7.42356 23.3184C7.56799 23.067 7.69103 23.1472 8.23667 23.1829C8.36148 23.1909 8.36862 23.2025 8.30621 23.3095C4.63386 29.669 5.06092 28.9263 2.28995 33.7354C2.21773 33.8602 2.23556 33.8362 2.40139 33.8362H19.029C19.1574 33.8362 19.1797 33.8156 19.1806 33.6899V32.8982C19.1806 32.7788 19.391 32.826 17.5428 32.8091C16.8777 32.8028 16.2821 32.522 15.6366 31.6768C14.9787 30.8155 14.3332 29.9445 13.6886 29.0725C13.4853 28.7979 13.381 28.8603 12.1943 28.8603C12.0383 28.8603 12.0356 28.8603 12.0374 29.0226C12.0633 31.3594 12.0508 31.2756 12.1266 31.9345C12.1729 32.3241 12.3191 32.3089 12.9905 32.3633C13.2704 32.3865 13.3364 32.7271 13.0368 32.8019C12.8969 32.8367 10.2195 32.8474 10.0349 32.793C9.98708 32.7799 9.9452 32.7507 9.91637 32.7103C9.88753 32.6699 9.8735 32.6208 9.87665 32.5713C9.87979 32.5218 9.89991 32.4748 9.93361 32.4384C9.96732 32.402 10.0126 32.3783 10.0617 32.3713C10.355 32.3036 10.6109 32.4435 10.6555 31.9755C10.7714 30.7576 10.7598 31.1731 10.7535 24.8947C10.7535 23.93 10.7223 23.7731 10.2757 23.6866C10.1669 23.6652 9.96006 23.6723 9.85753 23.6376C9.60076 23.5484 9.67921 23.2061 10.0153 23.2052C13.0172 23.2052 14.1237 23.1098 15.0134 23.6385C15.7035 24.0495 16.0833 24.662 16.1288 25.4573C16.2072 26.758 15.5484 27.4499 14.7914 28.3629C14.7771 28.3751 14.7656 28.3902 14.7578 28.4073C14.7499 28.4244 14.7458 28.443 14.7458 28.4618C14.7458 28.4806 14.7499 28.4992 14.7578 28.5163C14.7656 28.5334 14.7771 28.5486 14.7914 28.5608C15.0232 28.8505 15.2372 29.1519 15.4788 29.4372C17.936 32.3998 17.6284 32.16 19.1592 32.3847C19.2385 32.3963 19.2484 32.3472 19.2484 32.2822V31.3014C19.2484 31.2123 19.2769 31.174 19.3741 31.1891C20.0716 31.2952 20.7818 31.2862 21.4764 31.1624C21.5727 31.149 21.6101 31.1802 21.6083 31.2809C21.6083 31.2907 21.6868 33.6605 21.6859 33.6703C21.6814 33.8058 21.7456 33.8148 21.8544 33.8148H38.5007C36.0799 29.6214 33.6655 25.4364 31.2577 21.2598C31.4592 21.2009 31.222 21.2598 31.8541 21.1358C32.0325 21.1011 32.0369 21.0993 32.1314 21.2642C32.7832 22.3912 39.0241 33.2112 39.0294 33.2165V12.6714C38.8761 12.7159 29.8196 16.1235 29.6003 16.2091C29.504 16.2465 29.4621 16.2269 29.43 16.1306C29.3738 15.9612 29.3105 15.7954 29.2437 15.6296C29.2151 15.5591 29.2356 15.5288 29.3016 15.5056C29.3105 15.5056 37.8187 12.3094 38.4847 12.049C32.6521 8.69945 26.8445 5.36233 21.0101 2.01006L28.7506 15.4183L28.7257 15.4477C27.8724 15.3674 27.7931 15.305 27.6736 15.0964C27.5845 14.9457 21.1206 3.71026 20.3628 2.42196C19.5515 3.72988 12.9129 15.4575 12.7515 15.4673C12.4903 15.4825 12.2273 15.4744 11.9268 15.4744C14.4975 11.0321 17.0587 6.60398 19.6103 2.19015L19.6139 2.18837ZM24.2438 13.7715C24.4101 13.7586 24.5752 13.7333 24.7377 13.6958C24.8884 13.669 24.9633 13.7136 24.9695 13.8669C24.9695 13.8767 24.9757 15.5663 24.8928 15.6902C24.8099 15.8141 24.7252 15.799 24.661 15.6732C24.2152 14.8093 25.2156 14.812 21.1732 14.6034C21.1108 14.6034 21.0841 14.6239 21.0841 14.6863C21.0841 14.6979 21.4157 25.5633 21.4166 25.5732C21.4166 25.6525 21.463 25.6801 21.5245 25.7078C21.7897 25.8132 22.0487 25.9338 22.3002 26.0689C22.9519 26.4549 23.3148 27.0353 23.4066 27.7905C23.535 28.8425 23.1596 30.9796 20.5349 31.1017C20.2897 31.1133 18.0153 31.198 17.4911 29.0289C17.0756 27.3117 18.2275 26.1134 19.2644 25.7836C19.3185 25.7737 19.3669 25.7439 19.4 25.6999C19.4331 25.6559 19.4483 25.6011 19.4427 25.5464C19.4516 25.0445 19.7102 15.9978 19.7735 14.7273C19.7779 14.631 19.7182 14.6239 19.6531 14.6248C16.7689 14.6711 16.3766 14.5945 16.0673 15.3844C15.8515 15.9354 15.6981 15.5021 15.7151 15.4049C15.8096 14.8699 15.908 14.335 16.0102 13.8001C16.0459 13.612 16.1377 13.5674 16.316 13.6342C16.8144 13.8224 16.9151 13.7858 19.6371 13.8054C19.7913 13.8054 19.7958 13.7983 19.7993 13.6405C19.86 11.1896 19.851 11.6264 19.8885 11.0059C19.8947 10.9542 19.8839 10.9018 19.8576 10.8568C19.8314 10.8117 19.7912 10.7764 19.7432 10.7563C19.2439 10.4968 18.9631 10.0832 18.9497 9.51968C18.9185 8.19928 20.5295 7.58767 21.3908 8.4935C22.0006 9.13453 21.9079 10.1794 21.1723 10.6466C21.1045 10.684 21.0494 10.7408 21.0141 10.8098C20.9788 10.8787 20.965 10.9567 20.9744 11.0336C20.9744 11.0862 20.9646 10.6493 21.0636 13.7127C21.0636 13.7929 21.1019 13.8126 21.1741 13.8117C21.183 13.8117 23.2247 13.8036 24.2473 13.7787L24.2438 13.7715ZM6.49634 13.0012C8.26519 12.5991 9.40996 12.9513 11.1761 13.1519C11.4222 13.1795 11.5096 13.2607 11.4989 13.5085C11.4802 13.9543 11.3955 15.4994 11.3883 15.5725C11.3865 15.6175 11.3719 15.6611 11.3461 15.698C11.3204 15.735 11.2846 15.7638 11.243 15.7811C10.881 15.9327 10.9212 15.3844 10.8864 15.1312C10.6073 13.1314 4.30042 12.2158 4.23266 17.3957C4.20502 19.5284 5.74831 22.1772 9.05423 21.932C11.4828 21.7537 10.7482 20.1319 11.2689 20.107C11.3081 20.1017 11.3481 20.1061 11.3853 20.1199C11.4224 20.1336 11.4557 20.1563 11.4821 20.1858C11.5085 20.2154 11.5272 20.251 11.5367 20.2894C11.5461 20.3279 11.546 20.3681 11.5363 20.4066C11.3732 21.3739 11.2314 22.0961 11.2287 22.1139C11.0914 22.9315 3.4989 24.0834 2.90601 18.364C2.6644 16.0593 3.83681 13.6057 6.49634 13.0012ZM13.6288 20.8176H11.8912C11.8394 20.8218 11.7878 20.8083 11.7447 20.7793C11.7016 20.7503 11.6696 20.7075 11.654 20.658C11.8662 20.3236 12.1792 20.74 12.1765 20.1106C12.1693 17.8148 12.1952 16.7226 12.197 16.5354C12.197 16.2305 12.1497 16.1208 11.901 16.095C11.2769 16.0308 11.6237 15.7945 11.802 15.7936C12.8576 15.7847 13.8187 15.7776 14.4812 15.8578C15.2631 15.9532 15.971 16.9838 15.1882 17.8745C15.0099 18.0751 14.8316 18.2686 14.6408 18.4745C14.7255 18.5771 15.2559 19.2609 16.1814 20.2291C16.4185 20.477 16.7297 20.5421 17.0622 20.5082C17.1134 20.5087 17.1628 20.4892 17.1999 20.454C17.2371 20.4187 17.259 20.3703 17.2611 20.3192C17.2878 20.0143 17.2842 20.7409 17.3012 16.7012C17.3012 16.1975 17.2709 16.1146 17.0132 16.0923C16.661 16.0611 16.6566 15.8908 16.9517 15.7918L18.6537 15.7838C18.6822 15.7838 19.054 15.8311 18.7428 16.0851C18.7428 16.0896 18.7286 16.0851 18.7214 16.0851C18.3996 16.1083 18.3702 16.1743 18.3648 16.4971C18.3407 20.4137 18.3711 20.0838 18.4014 20.3147C18.4112 20.3896 18.4254 20.5135 18.8561 20.5055C19.0781 20.5055 19.2002 20.806 18.8561 20.8086C17.9315 20.8158 17.007 20.8086 16.0824 20.8149C15.1311 20.8149 14.8815 20.2621 13.9239 18.9587C13.7813 18.7643 13.1831 18.7482 13.1929 18.9257C13.2713 20.3941 13.1929 20.5109 13.5495 20.5011C13.973 20.4921 13.9712 20.8193 13.6235 20.8176H13.6288ZM38.1468 19.9126C38.0389 20.5483 38.162 20.8381 37.6743 20.8345C32.1867 20.7971 33.4108 20.8149 33.1523 20.8069C33.0425 20.7961 32.934 20.7743 32.8286 20.7418C32.6031 20.6883 32.9606 20.6321 32.7947 20.2425C32.6673 19.942 32.5469 19.638 32.4283 19.334C32.4181 19.2953 32.3947 19.2613 32.3622 19.2379C32.3296 19.2144 32.29 19.203 32.25 19.2056C31.8169 19.1848 31.383 19.1869 30.9501 19.2119C30.9205 19.2157 30.8921 19.2263 30.8671 19.2426C30.8421 19.259 30.8211 19.2808 30.8057 19.3064C30.6648 19.6291 30.532 19.9563 30.4036 20.2871C30.2903 20.5751 31.1043 20.4048 31.4904 20.4797C31.7579 20.5305 31.8943 20.8113 31.5492 20.8122H29.1982C28.9378 20.8122 28.9227 20.5314 29.1322 20.526C29.2407 20.531 29.3483 20.5044 29.4419 20.4495C29.5356 20.3946 29.6114 20.3137 29.66 20.2166C29.7937 19.9492 29.9097 19.6817 30.0264 19.4062C31.6473 15.6492 31.5475 15.8248 31.6687 15.6964C31.6837 15.6749 31.7038 15.6573 31.727 15.6452C31.7503 15.6331 31.7762 15.6267 31.8024 15.6267C31.8287 15.6267 31.8546 15.6331 31.8778 15.6452C31.9011 15.6573 31.9211 15.6749 31.9362 15.6964C32.1974 15.9942 33.5766 19.6826 34.042 20.3254C34.2204 20.5661 34.5538 20.5037 34.6091 20.5037C34.9309 20.5153 34.9657 20.4048 34.9773 20.1213C34.9853 19.9545 34.9844 20.2256 34.9835 16.4444C34.9835 16.0468 34.7731 16.111 34.4887 16.0638C34.4655 16.0638 34.2605 16.0076 34.4816 15.7909C34.5003 15.7731 34.4022 15.7695 36.4163 15.7776C36.6231 15.7776 36.8906 16.0227 36.3084 16.0851C36.2755 16.0837 36.2428 16.0893 36.2123 16.1017C36.1818 16.1141 36.1544 16.1329 36.1319 16.1568C36.1094 16.1808 36.0923 16.2093 36.0818 16.2405C36.0713 16.2717 36.0677 16.3048 36.0712 16.3375C36.065 16.4828 36.0543 19.8047 36.0971 20.0116C36.1106 20.0765 36.1472 20.1344 36.2002 20.1742C36.2532 20.2141 36.3189 20.2333 36.3851 20.2282C37.5664 20.2666 37.7153 20.2675 37.8116 19.9242C37.9605 19.4089 38.1798 19.6995 38.1441 19.9073L38.1468 19.9126ZM28.8104 25.6516C28.4323 25.6516 28.4163 25.3494 28.756 25.3476C31.9576 25.3333 31.2622 25.3815 32.0717 25.2896C32.2215 25.2727 32.2839 25.311 32.2723 25.4581C32.2491 25.7604 32.2152 26.0626 32.1831 26.364C32.1608 26.5565 31.8978 26.5967 31.88 26.3506C31.8461 25.8772 31.6883 25.9539 30.4865 25.8977C30.3456 25.8914 30.3403 25.8977 30.3403 26.0332V27.4713C30.3403 27.6184 30.3403 27.6139 30.4847 27.6024C30.7629 27.5801 31.4039 27.6327 31.8836 27.4668C31.9255 27.4526 32.1778 27.3072 32.1573 27.6237C32.1573 27.6425 32.0895 28.5465 32.0521 28.6392C32.0048 28.7542 31.8845 28.7739 31.8221 28.6678C31.7177 28.4895 31.8221 28.2149 31.4913 28.1952C30.1165 28.115 30.3403 27.9679 30.3403 28.7302C30.3403 29.8223 30.2725 30.1665 30.6871 30.1781C32.1707 30.2209 31.9709 30.1781 32.1519 29.669C32.2268 29.4577 32.464 29.5112 32.4354 29.7207C32.3962 30.0069 32.3597 30.294 32.3258 30.5802C32.3258 30.6123 32.3115 30.7941 31.9103 30.7933C28.5973 30.7861 28.8309 30.7763 28.7711 30.7656C28.5286 30.7201 28.575 30.4981 28.7907 30.458C28.8888 30.4411 29.1474 30.5062 29.1616 30.2298C29.3792 25.2174 29.1554 25.6525 28.813 25.6534L28.8104 25.6516ZM28.7738 15.8872C28.9931 15.9416 29.0529 16.0441 29.0368 16.3018C29.0074 16.7743 29.0065 17.1042 28.9878 17.1657C28.9289 17.3645 28.7069 17.3547 28.69 17.1416C28.6561 16.7128 28.4181 16.4444 28.0151 16.3259C25.6721 15.6367 25.0899 17.7042 25.5927 19.0202C26.1169 20.3941 27.5541 20.4395 28.1658 20.2487C28.6936 20.0838 28.69 19.6692 28.7818 19.5729C28.8915 19.457 28.9824 19.4089 29.06 19.671C29.06 19.6799 29.1108 20.7311 28.5251 20.8078C28.3824 20.8265 26.7972 21.1367 25.6114 20.5055C23.7392 19.5079 24.119 17.3431 24.998 16.4641C26.2462 15.2105 28.5563 15.8346 28.7711 15.8872H28.7738ZM26.2471 25.344C26.5395 25.344 26.5734 25.6115 26.2614 25.6498C26.0287 25.6784 25.8156 25.6124 25.8156 26.1366C25.8156 26.3149 25.7987 28.7266 25.8513 29.8321C25.8611 30.0363 25.9538 30.146 26.158 30.1576C28.1194 30.2654 27.4908 30.0105 27.8332 29.5923C27.9964 29.3926 28.0793 29.6672 28.0793 29.6886C28.1105 30.9029 27.7227 30.7933 27.6166 30.7941L24.2144 30.7772C24.0423 30.7567 24.0307 30.5097 24.1769 30.4759C24.3552 30.4331 24.6173 30.5115 24.6343 30.2262C24.7234 28.8113 24.6851 26.2454 24.6646 25.9637C24.6405 25.6275 24.415 25.6721 24.1582 25.6329C23.938 25.599 23.9799 25.3458 24.1885 25.3458C24.3178 25.344 25.7906 25.3431 26.2471 25.344ZM23.4271 20.1917C23.4333 20.5554 23.6821 20.5002 23.962 20.5109C24.1947 20.5198 24.1876 20.8149 23.9558 20.8167C23.3781 20.8167 22.7344 20.8167 22.0291 20.8113C21.6868 20.8113 21.7278 20.5126 22.0291 20.5109C22.4294 20.5109 22.318 20.6544 22.3332 16.4507C22.3332 15.9978 22.0416 16.1351 21.9123 16.0736C21.6823 15.9639 21.7911 15.7981 21.9489 15.7927C22.0639 15.7927 23.749 15.7562 23.8363 15.8114C23.9237 15.8667 24.0031 15.9585 23.7989 16.0664C23.7097 16.1128 23.4547 16.0415 23.4289 16.2866C23.4289 16.3054 23.3558 16.432 23.4226 20.1917H23.4271ZM20.1363 44.6446C20.1793 44.6733 20.2299 44.6887 20.2817 44.6887C20.3334 44.6887 20.384 44.6733 20.427 44.6446C21.9427 43.7717 36.6534 35.4107 38.0282 34.6136C38.0157 34.5753 39.0321 34.5975 21.8446 34.5895C21.7358 34.5895 21.7046 34.6225 21.7082 34.7286C21.7082 34.7375 21.8196 38.6969 21.8169 39.2203C21.8085 39.4539 21.7677 39.6853 21.6957 39.9077C21.6467 40.0708 21.7296 39.8631 20.4921 42.7812C20.427 42.9345 20.4029 42.9782 20.3138 42.7741C19.9402 41.8522 19.5756 40.9268 19.1931 40.0102C19.0589 39.708 18.9978 39.3784 19.0148 39.0482C19.029 38.8289 19.0861 37.611 19.1494 34.7687C19.1494 34.5949 19.1494 34.5904 18.9711 34.5904H2.65549C2.88551 34.7357 18.5538 43.7352 20.1301 44.6437L20.1363 44.6446ZM12.032 27.8163C12.032 28.0303 12.0641 28.0651 12.2781 28.0838C13.307 28.1881 14.1504 28.4172 14.5641 27.4312C15.099 26.142 14.8012 24.3633 13.4514 23.9683C13.2731 23.9157 12.0249 23.7223 12.0303 24.103C12.0347 24.8198 12.0312 25.1381 12.032 27.8163ZM21.4603 26.4745C21.4603 26.6644 21.5557 29.9231 21.5575 29.9632C21.5878 30.8494 19.2769 30.4776 19.3081 29.7323C19.3152 29.554 19.4302 26.3961 19.4062 26.2169C18.1491 26.8802 18.1205 29.8018 19.9803 30.5677C20.3332 30.7208 20.7294 30.7414 21.0962 30.6255C21.463 30.5097 21.7756 30.2653 21.9765 29.9374C22.4143 29.2455 22.5864 27.3099 21.4924 26.4603C21.482 26.4646 21.4713 26.4682 21.4603 26.471V26.4745ZM20.3655 8.82159C19.4891 8.82159 19.498 10.1366 20.3592 10.1473C21.2205 10.158 21.2597 8.8207 20.3655 8.81802V8.82159ZM13.2196 18.0787C13.2196 18.2392 13.2562 18.2927 13.4131 18.3087C14.6274 18.4326 14.5284 17.328 14.4972 17.1176C14.3465 16.1172 13.2151 16.2082 13.2178 16.4213C13.2223 16.8225 13.2151 17.6409 13.2196 18.0787ZM32.1493 18.6493L31.6054 17.237C31.4128 17.7256 31.2345 18.1794 31.05 18.6493H32.1493Z" fill="black"/>
</g>
<defs>
<clipPath id="clip0_201_7019">
<rect width="39.942" height="45.648" fill="white" transform="translate(0.410645 0.367798)"/>
</clipPath>
</defs>
</svg>
