<svg width="40" height="47" viewBox="0 0 40 47" fill="none" xmlns="http://www.w3.org/2000/svg">
<g clip-path="url(#clip0_201_7013)">
<path d="M30.9676 27.605C29.4074 30.4224 25.85 32.464 22.4086 32.464C17.3624 32.464 13.1363 28.238 13.1363 23.1918C13.1363 18.1456 17.3624 13.9196 22.4086 13.9196C25.85 13.9196 29.4074 15.9612 30.9676 18.7786C32.189 14.2405 34.6854 10.4603 38.7242 8.27596C34.6854 3.85381 28.8724 1.08105 22.4086 1.08105C10.1942 1.08105 0.297852 10.9774 0.297852 23.1918C0.297852 35.4062 10.1942 45.3025 22.4086 45.3025C28.8724 45.3025 34.6854 42.5298 38.7242 38.1076C34.6854 35.9233 32.189 32.1431 30.9676 27.605Z" fill="black"/>
</g>
<defs>
<clipPath id="clip0_201_7013">
<rect width="39.2287" height="45.648" fill="white" transform="translate(0.297852 0.367798)"/>
</clipPath>
</defs>
</svg>
