<svg width="53" height="47" viewBox="0 0 53 47" fill="none" xmlns="http://www.w3.org/2000/svg">
<g clip-path="url(#clip0_201_7009)">
<path d="M8.23977 9.18535C8.18628 7.65186 8.41809 6.17187 9.37206 4.88802C9.3988 5.54777 9.47904 6.18078 9.74651 6.81379C10.2725 4.362 11.5029 2.41839 13.5178 0.974059C13.3484 1.50008 13.2058 2.0261 13.2504 2.55212C14.026 1.89237 14.9265 0.965143 17.2089 0.528278C18.5195 0.27864 19.8568 0.349965 20.9624 0.617434C24.3949 1.44659 26.4009 3.67549 27.1766 7.06343C27.6491 9.12294 27.239 11.0755 26.4366 12.9834C25.9729 14.0889 25.3667 15.1588 24.591 16.1128C24.4127 15.9434 24.2433 15.774 24.0739 15.6135C20.258 11.9759 21.6845 13.3668 20.7395 12.2791C20.6414 12.1721 20.6503 12.0829 20.7306 11.9581C21.4706 10.7545 21.7826 9.4439 21.6221 8.03523C21.5241 7.1615 21.2388 6.35018 20.6147 5.69934C19.3219 4.33525 17.1197 4.362 15.8448 5.75283C14.8284 6.86729 14.5877 8.19571 14.873 9.64004C14.8908 9.75595 14.9087 9.88077 14.873 9.98775C14.5699 11.2092 14.4629 12.4485 14.6501 13.6967C14.659 13.7412 14.659 13.7947 14.659 13.8393C14.659 13.866 14.6501 13.8839 14.6412 13.9374C12.6976 12.9567 11.4316 11.4143 10.7896 9.28342C10.0496 10.8704 9.80001 12.4485 10.2012 14.1068C8.81037 12.7516 8.30218 11.0487 8.23977 9.18535ZM50.1075 20.1694C49.0733 19.1352 47.8786 18.3506 46.5324 17.7978C45.3912 17.3342 44.2143 17.0935 42.975 17.1648C42.0835 17.2183 41.2276 17.4412 40.3895 17.7354C40.1666 17.8157 39.9348 17.8781 39.703 17.9316C39.2661 18.0386 39.0522 17.6552 39.284 17.3253C39.5693 16.9152 39.5871 16.9509 40.6213 16.2554C40.6748 16.2198 40.7283 16.1841 40.8175 16.1217H40.5946C40.5411 16.1217 40.4876 16.1395 40.4252 16.1484C38.7045 16.4427 37.6881 17.5304 36.0654 18.7875C35.1382 19.5096 34.8351 19.1263 34.9956 18.7429C35.1204 18.4308 35.2898 18.1455 35.4503 17.8513C35.5394 17.6909 35.6553 17.5482 35.7623 17.3966C35.7445 17.3788 35.7177 17.3699 35.6999 17.3521C33.2927 18.9836 31.5363 21.1323 30.5556 23.8872C30.5823 23.914 30.618 23.9407 30.6447 23.9674C30.6715 23.914 30.6893 23.8605 30.725 23.8159C31.6522 22.7371 32.7577 21.8723 33.9881 21.159C35.6107 20.214 37.3315 19.5275 39.2216 19.3581C39.6049 19.3224 39.9972 19.3492 40.3895 19.3492C40.229 19.4116 40.0775 19.4294 39.917 19.4472C38.2676 19.6612 36.7519 20.2496 35.3254 21.0966C32.6329 22.6925 30.4664 24.859 28.6298 27.3732C28.6031 27.4089 28.5941 27.4535 28.5674 27.4891C29.8602 27.9616 30.7071 29.0315 31.7859 29.7715C31.8038 29.7626 31.8127 29.7537 31.8216 29.7359L31.9286 29.4951C33.0163 27.0968 34.3358 24.8323 36.0922 22.853C37.5811 21.1769 39.4801 20.5973 41.6644 21.0699C42.1905 21.1858 42.6808 21.4622 43.1979 21.6761C43.403 21.5513 43.6526 21.3908 43.9112 21.2571C44.6601 20.8737 45.4625 20.633 46.2917 20.4547C47.6022 20.1783 48.9218 20.0178 50.2591 20.3388V20.2942C50.2145 20.2586 50.1521 20.2229 50.1075 20.1694ZM29.1202 35.8163C25.6074 32.8742 27.0874 34.0778 25.3132 32.6423C25.2419 32.7226 25.3132 32.6245 25.1438 32.9098C24.1452 34.6127 22.8703 36.057 21.2209 37.1537C20.3026 37.7599 19.3041 38.2057 18.1807 38.2057C16.2549 38.2057 14.7749 37.3587 13.7764 35.7272C12.7065 33.9886 12.5906 32.0985 13.0453 30.146C13.7407 27.1325 15.7289 25.2246 16.4867 24.4132C14.8195 23.8605 13.5446 24.5648 12.3499 25.6525C12.4212 24.4132 12.7332 23.3166 13.4019 22.327C11.2354 23.272 9.30965 24.5559 7.62459 26.2409C7.59785 25.7238 8.10604 22.3448 8.12387 22.2556C8.15062 22.0149 8.07038 21.7831 7.8564 21.5959C5.69882 23.7981 3.88895 26.2142 2.85474 29.1385C3.51449 28.6125 4.18316 28.1221 4.95882 27.6942C4.21883 29.6824 3.21136 32.4016 4.2634 36.7079C4.67352 38.4018 5.32436 39.9888 6.41207 41.3707C6.67062 41.7006 6.97375 41.9859 7.25905 42.2891C7.27689 42.2712 7.29472 42.2623 7.31255 42.2445C7.18773 41.6204 7.1164 40.9874 7.17881 40.292C7.37496 40.5773 7.52652 40.8269 7.70484 41.0587C8.8282 42.4852 10.2636 43.5016 11.913 44.2327C14.1419 45.2401 16.4689 45.4184 18.8583 44.9994C23.753 44.1346 26.9447 40.6664 29.2004 36.1908C29.2896 36.0303 29.2539 35.9322 29.1202 35.8163ZM44.455 31.6795C43.6081 31.4031 42.4758 31.305 41.8963 31.4209C42.7789 31.7775 43.1534 32.0093 43.5724 32.4908C44.6958 33.7746 44.4996 35.5845 43.0909 36.5563C42.0478 37.2785 40.871 37.4924 39.6228 37.3676C39.5158 37.3587 39.4177 37.332 39.3553 37.3141C39.6049 36.9843 39.8902 36.69 40.0775 36.3512C40.9155 34.8534 40.5589 32.5978 39.3018 31.3496C39.1146 31.1624 38.8917 31.0019 38.6777 30.8236C38.651 30.9395 38.6688 31.0108 38.6866 31.0732C39.0611 32.5532 37.9645 33.9619 36.4756 33.9084C35.798 33.8816 35.2363 33.5696 34.7281 33.1505C32.9895 31.7151 31.2421 30.2886 29.5124 28.8443C28.9864 28.4074 28.398 28.1221 27.7204 28.0686C27.3103 28.033 26.8913 28.0151 26.4811 27.9884C25.9551 27.9527 25.6966 27.7388 25.5539 27.2395C25.4737 26.9363 25.4202 26.6332 25.3578 26.3301C25.224 25.6079 24.805 25.1711 24.0828 25.0641C23.6905 25.0017 23.2893 24.9749 22.8971 24.9303C21.738 24.8055 21.1318 24.2706 20.8821 23.1205C20.4363 24.1012 20.7395 25.1176 21.533 25.7862C21.9342 26.125 22.3621 26.4371 22.7633 26.7848C23.1734 27.1236 23.4231 27.5604 23.4677 28.1043C23.5033 28.5233 23.539 28.9513 23.6281 29.3614C23.8243 30.3065 24.4216 31.0019 25.1438 31.5992C26.6149 32.8207 28.086 34.0332 29.557 35.2635C31.1529 36.6009 30.7963 38.1879 30.7161 40.2563C30.6358 42.298 31.8038 44.0811 33.7028 44.8211C33.7919 44.8568 33.8811 44.8746 34.0238 44.9192C32.624 43.2965 33.1233 40.9874 34.0862 40.2563C34.1129 40.4524 34.1218 40.6397 34.1664 40.8269C35.0045 44.7587 38.2141 46.5507 41.7447 45.8999C43.1712 45.6413 44.4729 45.1064 45.5695 44.1346C45.7478 43.9741 45.8994 43.769 46.0955 43.5551C44.3748 43.9652 42.9037 43.564 41.5575 42.61C41.6199 42.5833 41.6734 42.5833 41.7269 42.5833C43.6259 42.7438 45.3466 42.2801 46.8088 41.032C48.5473 39.552 49.1803 37.2071 48.3601 35.1476C47.6201 33.3556 46.256 32.2679 44.455 31.6795ZM9.74651 16.3535C9.27399 15.5333 8.56965 14.9627 7.77616 14.4545C8.9976 14.4099 10.1477 14.4723 11.3067 14.7844C10.6827 13.6967 10.5489 12.5822 10.861 11.334C11.3335 12.395 12.0824 13.1261 12.9651 13.7234C14.7214 14.9003 16.1479 15.4709 17.1286 16.4159C17.4318 16.7101 17.6903 17.0489 17.9845 17.3877C17.9132 17.2005 17.8597 17.0222 17.7884 16.8528C17.3426 15.9077 16.6294 15.1945 15.7735 14.6239C15.613 14.5169 15.5238 14.401 15.4703 14.2227C15.1761 13.1082 15.2029 11.9849 15.4079 10.8704C15.4971 10.38 15.6576 9.8986 15.8091 9.41715C15.8805 9.20318 16.0142 9.00704 16.1658 8.82872C16.2193 9.4439 16.1658 11.1022 17.9132 12.9299C18.8761 13.9374 19.9103 14.8824 20.9356 15.8453C21.738 16.6031 22.5672 17.3342 23.2091 18.2347C23.3072 18.3774 23.4052 18.5289 23.5479 18.6537C23.1021 17.4947 22.2819 16.5051 21.3903 15.6403C20.5344 14.8111 19.6607 13.9998 18.787 13.1974C18.4927 12.9299 18.3768 12.6 18.3323 12.2256C18.2253 11.2983 18.3323 10.389 18.7156 9.53306C18.7602 9.4439 18.8137 9.35474 18.885 9.23884C18.9296 9.6133 18.9385 9.94318 19.0098 10.2731C19.4378 12.3326 20.8286 13.5094 23.4052 15.9345C24.2968 16.7725 25.126 17.6463 25.6876 18.7518C26.1156 19.581 26.3385 20.4458 26.1958 21.3908C26.1869 21.4443 26.2404 21.5424 26.2939 21.5691C26.8467 21.801 27.1855 22.1843 27.1587 22.8441C27.8452 22.6123 28.2732 22.1308 28.6209 21.5513C28.9953 23.3523 27.8096 26.0359 26.1958 26.7848C26.2315 26.3836 26.6416 24.6985 24.7248 24.3152C24.1185 24.1993 23.5836 24.1993 22.6831 24.1279C23.1021 23.3255 23.6103 22.2913 22.7277 22.1308C20.5077 21.7207 18.0202 22.3002 17.5744 22.5409C18.3055 22.5766 19.0277 22.6301 19.6696 22.8352C19.4913 23.4147 19.313 23.9674 19.1525 24.5202C18.9831 25.0997 19.3397 25.8219 19.9816 25.3761C20.0886 25.2959 20.1867 25.2067 20.2759 25.1354C19.9995 26.7313 20.0173 26.553 20.0262 26.767C20.053 27.6763 20.8732 27.4624 21.426 27.4178C21.2031 28.4698 18.7959 29.8518 17.3783 29.718C18.0024 29.299 18.5106 28.7997 18.7959 28.1221C18.2164 28.1935 17.6458 28.2648 17.0841 28.3361L17.0573 28.2559C17.4764 27.9527 17.7706 27.5604 17.9667 27.0879C18.7424 25.2067 17.6458 23.7 15.7378 23.5306C14.9265 23.4593 14.1508 23.6019 13.4287 24.0209C13.9814 22.6301 14.9622 21.6494 16.3352 20.9451C14.98 20.5617 15.5417 20.7043 14.1419 20.3834C15.4436 19.5542 16.8344 19.2065 18.2877 19.0817C17.8241 18.7964 13.9993 18.7607 12.0289 20.9451C12.7332 21.0699 13.4108 21.1947 14.0973 21.3195C11.9754 21.9436 10.1745 23.0759 8.53399 24.4935C8.63206 24.0655 8.77471 23.6465 8.8282 23.2185C8.8817 22.8173 8.89953 22.3983 8.83712 22.006C8.70338 21.1679 8.04363 20.6598 7.08074 20.5528C6.37641 20.4725 5.6899 20.5617 5.0034 20.6687C4.92316 20.6776 4.85184 20.6954 4.74485 20.6687C6.15352 19.3492 7.95447 18.734 9.47904 17.6819C10.014 17.2807 10.0853 16.9509 9.74651 16.3535ZM21.1942 18.7429C21.4884 20.1694 22.3175 21.0164 23.3161 20.9094C22.906 19.9019 22.2373 19.1708 21.1942 18.7429Z" fill="black"/>
</g>
<defs>
<clipPath id="clip0_201_7009">
<rect width="51.354" height="45.648" fill="white" transform="translate(0.884033 0.367798)"/>
</clipPath>
</defs>
</svg>
