<svg width="41" height="47" viewBox="0 0 41 47" fill="none" xmlns="http://www.w3.org/2000/svg">
<g clip-path="url(#clip0_201_7007)">
<path d="M27.5934 24.1725C26.9308 23.7999 26.1816 23.6089 25.4215 23.6189C24.2429 23.6189 23.2491 24.0132 22.4401 24.802C21.6312 25.5907 21.2267 26.5839 21.2267 27.7816C21.2267 29.0393 21.6214 30.0675 22.4107 30.8664C23.2 31.6652 24.1935 32.0646 25.3912 32.0646C26.6097 32.0646 27.6234 31.6551 28.4323 30.8361C29.2413 30.017 29.6472 28.9986 29.6502 27.7807C29.6545 27.0477 29.467 26.3263 29.1063 25.6882C28.7519 25.0528 28.2281 24.5281 27.5934 24.1725ZM0.941895 3.22083V43.1628H40.8839V3.22083H0.941895ZM34.3496 36.4993H29.6154V34.3693H29.5557C28.6172 35.9266 26.9595 36.7052 24.5826 36.7052C22.9445 36.7052 21.4915 36.3159 20.2237 35.5373C18.9656 34.7701 17.948 33.6651 17.2869 32.3482C16.5974 31.0001 16.253 29.4877 16.2536 27.811C16.2536 26.1729 16.6031 24.6804 17.3021 23.3336C17.9691 22.0207 18.9849 20.917 20.238 20.1436C21.4969 19.3655 22.915 18.9762 24.4925 18.9756C25.3977 18.9626 26.2972 19.1202 27.144 19.4401C27.9334 19.7498 28.6763 20.255 29.3729 20.9558V14.0087L34.347 12.9308L34.3496 36.4993Z" fill="black"/>
</g>
<defs>
<clipPath id="clip0_201_7007">
<rect width="39.942" height="45.648" fill="white" transform="translate(0.941895 0.367798)"/>
</clipPath>
</defs>
</svg>
