<svg width="41" height="47" viewBox="0 0 41 47" fill="none" xmlns="http://www.w3.org/2000/svg">
<g clip-path="url(#clip0_201_7001)">
<path d="M40.2238 6.78247C40.1881 6.64873 40.1435 6.515 40.099 6.38126C40.0187 6.15837 39.9207 5.95331 39.8047 5.74825C39.6799 5.53428 39.5373 5.3203 39.3857 5.13308C39.1985 4.91018 38.9934 4.70513 38.7705 4.52681C38.6725 4.44657 38.5744 4.37525 38.4763 4.30392C38.3604 4.22368 38.2445 4.15236 38.1197 4.08995C37.9592 4.00079 37.7987 3.92947 37.6293 3.86706C37.4778 3.80465 37.3173 3.75115 37.1479 3.71549C36.8091 3.62634 36.4436 3.58176 36.078 3.58176H4.69503C2.33239 3.57284 0.415527 5.4897 0.415527 7.85234V39.2353C0.415527 39.6009 0.460105 39.9664 0.549262 40.3052C0.727574 40.9917 1.06637 41.6069 1.52998 42.1151C1.61914 42.2132 1.71721 42.3112 1.8242 42.4093C2.33239 42.8729 2.94756 43.2117 3.63407 43.39C3.97286 43.4792 4.3384 43.5238 4.70394 43.5238H36.0869C38.4496 43.5238 40.3664 41.6069 40.3664 39.2443V7.85234C40.3575 7.4868 40.3129 7.12126 40.2238 6.78247ZM37.5045 39.2353C37.5045 40.0199 36.8626 40.6618 36.078 40.6618H20.3865V23.5438H3.26853V7.85234C3.26853 7.06777 3.91045 6.42584 4.69503 6.42584H20.3865V23.5438H37.5045V39.2353Z" fill="black"/>
</g>
<defs>
<clipPath id="clip0_201_7001">
<rect width="39.942" height="45.648" fill="white" transform="translate(0.415283 0.719849)"/>
</clipPath>
</defs>
</svg>
