<svg width="47" height="47" viewBox="0 0 47 47" fill="none" xmlns="http://www.w3.org/2000/svg">
<g clip-path="url(#clip0_201_6999)">
<path d="M34.8428 12.8451H39.4522V34.207H34.8428V32.3614C33.0776 34.5725 30.1354 34.5101 28.2631 33.672C25.9272 32.6289 24.3135 30.2752 24.3135 27.2706C24.3135 24.6137 25.633 22.1085 28.174 20.9583C29.9749 20.147 32.8725 20.0133 34.8428 22.1085V12.8451ZM29.0744 27.2706C29.0744 28.8932 30.287 30.2573 32.0344 30.2573C33.7997 30.2573 34.9944 28.7952 34.9944 27.3241C34.9944 25.7995 33.773 24.3641 32.0344 24.3641C30.287 24.3641 29.0744 25.8263 29.0744 27.2706ZM17.5733 12.8451H22.1827V34.207H17.5733V32.3614C15.808 34.5725 12.8658 34.5101 10.9936 33.672C8.65766 32.6289 7.04393 30.2752 7.04393 27.2706C7.04393 24.6137 8.36344 22.1085 10.9044 20.9583C12.7054 20.147 15.6029 20.0133 17.5733 22.1085V12.8451ZM11.8049 27.2706C11.8049 28.8932 13.0174 30.2573 14.7649 30.2573C16.5302 30.2573 17.7248 28.7952 17.7248 27.3241C17.7248 25.7995 16.5034 24.3641 14.7649 24.3641C13.0085 24.3641 11.8049 25.8263 11.8049 27.2706ZM40.7093 9.27887C42.2696 9.27887 43.5623 10.5627 43.5623 12.1319V34.9559C43.5623 36.5161 42.2785 37.8089 40.7093 37.8089H6.47333C4.9131 37.8089 3.62033 36.525 3.62033 34.9559V12.1319C3.62033 10.5716 4.90418 9.27887 6.47333 9.27887H40.7093ZM40.7093 6.42587H6.47333C3.33503 6.42587 0.767334 8.99357 0.767334 12.1319V34.9559C0.767334 38.0942 3.33503 40.6619 6.47333 40.6619H40.7093C43.8476 40.6619 46.4153 38.0942 46.4153 34.9559V12.1319C46.4153 8.99357 43.8476 6.42587 40.7093 6.42587Z" fill="black"/>
</g>
<defs>
<clipPath id="clip0_201_6999">
<rect width="45.648" height="45.648" fill="white" transform="translate(0.767334 0.719849)"/>
</clipPath>
</defs>
</svg>
