<svg width="58" height="47" viewBox="0 0 58 47" fill="none" xmlns="http://www.w3.org/2000/svg">
<g clip-path="url(#clip0_201_6991)">
<path d="M21.6596 27.5737H26.8931L28.8813 24.8812H23.6478L21.6596 27.5737ZM0.44043 25.9422V26.5128H7.73341L8.15244 25.9422H0.44043ZM15.8555 24.8812C15.0799 24.8812 15.3206 24.5603 15.4454 24.3909C15.6951 24.0521 16.123 23.4636 16.3726 23.1338C16.6223 22.8039 16.6223 22.6077 16.123 22.6077H11.576L7.91172 27.5827H16.8363C19.7873 27.5827 21.4278 25.5766 21.936 24.8812H15.8555ZM44.1626 24.266L47.6665 19.5051H42.121L38.6171 24.266H44.1626ZM8.93702 24.8812H0.44043V25.4518H8.51798L8.93702 24.8812ZM18.8334 22.5097C18.5837 22.8485 18.1647 23.4369 17.9151 23.7757C17.7902 23.954 17.5495 24.266 18.3252 24.266H22.3907C22.3907 24.266 23.0415 23.3745 23.5943 22.6256C24.3432 21.6092 23.6567 19.5051 20.9909 19.5051H10.4794L8.66063 21.9836H18.5926C19.0919 21.9836 19.083 22.1798 18.8334 22.5097ZM0.44043 27.5737H6.95775L7.37678 27.0031H0.44043V27.5737ZM29.2379 27.5737H34.4714L36.4595 24.8812H31.2261C31.2172 24.8812 29.2379 27.5737 29.2379 27.5737ZM49.0306 27.5827H57.5004V27.0121H49.4496L49.0306 27.5827ZM51.0188 24.8812L50.5997 25.4518H57.5004V24.8812H51.0188ZM49.8151 26.5128H57.5004V25.9422H50.2342L49.8151 26.5128ZM35.1757 19.5051L33.1697 22.2333H30.8338L32.8398 19.5051H27.6063L24.1025 24.266H36.9053L40.4092 19.5051H35.1757ZM38.1624 24.8812C38.1624 24.8812 37.7791 25.4072 37.5918 25.6569C36.9321 26.5484 37.5116 27.5827 39.6603 27.5827H48.0677L50.0559 24.8812H38.1624Z" fill="black"/>
</g>
<defs>
<clipPath id="clip0_201_6991">
<rect width="57.06" height="45.648" fill="white" transform="translate(0.44043 0.719849)"/>
</clipPath>
</defs>
</svg>
