<svg width="47" height="47" viewBox="0 0 47 47" fill="none" xmlns="http://www.w3.org/2000/svg">
<path d="M23.2278 32.3302C23.103 32.3302 15.3821 43.02 15.3196 43.02C15.2572 43.02 7.59871 37.6305 7.5684 37.5637C7.53809 37.4968 15.2893 26.3567 15.2893 26.2052C15.2893 26.009 3.73468 22.2823 3.02143 22.0059C2.90553 21.9613 5.82094 12.9298 5.84769 12.9031C5.90118 12.8407 18.7218 17.0934 18.8199 17.0934C18.8556 17.0934 18.9002 17.0399 18.9091 16.9775C18.9447 16.7992 18.9982 3.72889 19.0606 3.63973C19.132 3.53275 28.3775 3.57732 28.431 3.61299C28.5647 3.70214 28.743 17.5303 28.9748 17.5303C29.0996 17.5303 41.3408 13.3399 41.3943 13.4023C41.4656 13.4826 44.2384 22.5141 44.2027 22.5498C44.1225 22.63 31.703 26.749 31.6673 26.9006C31.6406 27.0254 39.0495 37.7866 39.0227 37.8579C38.996 37.9292 31.3999 43.5193 31.3285 43.5193C31.2394 43.5015 23.3936 32.3302 23.2242 32.3302H23.2278Z" fill="black"/>
</svg>
