<svg width="46" height="47" viewBox="0 0 46 47" fill="none" xmlns="http://www.w3.org/2000/svg">
<g clip-path="url(#clip0_201_6987)">
<path d="M7.42835 16.0815H0.144287V31.6303H11.9753V9.27887H7.42835V16.0815ZM7.42835 27.9749H4.68234V19.7458H7.42835V27.9749ZM33.9256 16.0815V31.6303H41.2186V34.1713H33.9256V37.8089H45.7923V16.0815H33.9256ZM41.2186 27.9749H38.4725V19.7458H41.2186V27.9749ZM20.2134 31.6303H27.5331V34.1713H20.2134V37.8089H32.0979V16.0815H20.2134V31.6303ZM24.7782 19.7458H27.5242V27.9749H24.7782V19.7458ZM13.8119 9.27887H18.3857V13.8258H13.8119V9.27887ZM13.8119 16.0815H18.3857V31.6303H13.8119V16.0815Z" fill="black"/>
</g>
<defs>
<clipPath id="clip0_201_6987">
<rect width="45.648" height="45.648" fill="white" transform="translate(0.144531 0.719849)"/>
</clipPath>
</defs>
</svg>
