<svg width="47" height="47" viewBox="0 0 47 47" fill="none" xmlns="http://www.w3.org/2000/svg">
<path d="M8.2533 43.6753H14.8241V37.1134H8.2533V43.6753ZM2.76128 31.6214V37.1134H8.2533V31.6214H2.76128ZM44.3259 16.4916C42.2753 9.87621 36.9794 4.60708 30.364 2.52974C15.1986 -2.20446 1.20996 9.0738 1.20996 23.5349H9.75113C9.75113 14.4588 18.7559 7.44224 28.3045 10.9015C31.844 12.1764 34.6792 15.0116 35.9541 18.5422C39.4402 28.0819 32.4146 37.0689 23.3475 37.0867V37.1134H23.3207V45.6546C37.8175 45.6546 49.069 31.6749 44.3259 16.4916ZM23.3475 37.0867V28.5901H14.8241V37.1134H23.3207V37.0867H23.3475Z" fill="black"/>
</svg>
