<svg width="58" height="47" viewBox="0 0 58 47" fill="none" xmlns="http://www.w3.org/2000/svg">
<path d="M47.202 6.94618C47.1874 6.91795 47.1633 6.89583 47.1339 6.88377C43.735 5.32431 40.1481 4.21229 36.4631 3.57554C36.4297 3.56932 36.3951 3.57381 36.3643 3.58837C36.3335 3.60294 36.3081 3.62684 36.2917 3.65667C35.8033 4.54315 35.3599 5.4537 34.9633 6.38486C30.9911 5.78188 26.9506 5.78188 22.9784 6.38486C22.5791 5.45133 22.1286 4.54055 21.629 3.65667C21.6118 3.62749 21.5863 3.60414 21.5557 3.58967C21.5251 3.5752 21.4909 3.57027 21.4574 3.57554C17.7721 4.21095 14.185 5.32306 10.7865 6.88386C10.7574 6.8962 10.7329 6.91725 10.7163 6.94413C3.91996 17.0935 2.0582 26.9933 2.97152 36.7705C2.97409 36.7945 2.98145 36.8177 2.99317 36.8388C3.00489 36.8598 3.02072 36.8783 3.03972 36.8931C6.99714 39.8233 11.4236 42.0599 16.1301 43.5075C16.1632 43.5175 16.1986 43.517 16.2315 43.5063C16.2644 43.4955 16.2932 43.4749 16.314 43.4473C17.3249 42.0718 18.2206 40.6154 18.992 39.0927C19.0026 39.0718 19.0087 39.0489 19.0098 39.0255C19.0109 39.0021 19.007 38.9787 18.9984 38.9569C18.9898 38.9351 18.9767 38.9154 18.96 38.899C18.9432 38.8827 18.9232 38.87 18.9012 38.862C17.4887 38.3215 16.1213 37.6701 14.8117 36.9136C14.7879 36.8997 14.768 36.88 14.7536 36.8565C14.7392 36.833 14.7308 36.8062 14.7291 36.7787C14.7275 36.7511 14.7327 36.7236 14.7442 36.6985C14.7557 36.6735 14.7733 36.6516 14.7952 36.6349C15.07 36.4291 15.345 36.2149 15.6074 35.9986C15.6307 35.9794 15.6589 35.9671 15.6888 35.9631C15.7187 35.9591 15.7492 35.9635 15.7768 35.9758C24.3562 39.8913 33.6446 39.8913 42.1224 35.9758C42.1501 35.9627 42.1808 35.9577 42.2112 35.9613C42.2416 35.965 42.2703 35.9772 42.294 35.9966C42.5564 36.2129 42.8313 36.4291 43.1081 36.6349C43.1302 36.6515 43.1479 36.6732 43.1596 36.6981C43.1713 36.7231 43.1767 36.7506 43.1753 36.7781C43.1739 36.8057 43.1657 36.8325 43.1514 36.8561C43.1372 36.8797 43.1174 36.8995 43.0937 36.9136C41.7871 37.6764 40.4185 38.3275 39.0023 38.8599C38.9803 38.8683 38.9604 38.8812 38.9437 38.8978C38.927 38.9144 38.9141 38.9344 38.9057 38.9564C38.8972 38.9783 38.8936 39.0018 38.8949 39.0253C38.8961 39.0488 38.9024 39.0718 38.9132 39.0927C39.6975 40.6069 40.5919 42.0615 41.5891 43.4449C41.6093 43.4732 41.638 43.4945 41.671 43.5057C41.704 43.5169 41.7397 43.5175 41.773 43.5073C46.488 42.0646 50.9221 39.8277 54.8845 36.8931C54.9038 36.8791 54.9199 36.861 54.9316 36.8402C54.9434 36.8194 54.9506 36.7964 54.9527 36.7726C56.0461 25.4691 53.1222 15.6504 47.202 6.94618ZM20.2733 30.8172C17.6902 30.8172 15.5619 28.4468 15.5619 25.5357C15.5619 22.6246 17.649 20.254 20.2733 20.254C22.9181 20.254 25.0258 22.6452 24.9846 25.5355C24.9846 28.4468 22.8974 30.8172 20.2733 30.8172ZM37.6926 30.8172C35.1097 30.8172 32.9813 28.4468 32.9813 25.5357C32.9813 22.6246 35.0684 20.254 37.6926 20.254C40.3376 20.254 42.4453 22.6452 42.404 25.5355C42.404 28.4468 40.3376 30.8172 37.6926 30.8172Z" fill="black"/>
</svg>
