<svg width="41" height="47" viewBox="0 0 41 47" fill="none" xmlns="http://www.w3.org/2000/svg">
<g clip-path="url(#clip0_201_6981)">
<path d="M20.6348 3.57285C9.70422 3.57285 0.494385 12.3547 0.494385 23.1961C0.494385 23.5438 0.5033 43.5148 0.5033 43.5148L20.6348 43.497C31.5742 43.497 40.4364 34.3763 40.4364 23.5349C40.4364 12.6935 31.5742 3.57285 20.6348 3.57285ZM20.4654 34.9558C18.7358 34.9558 17.0864 34.5725 15.6153 33.877L8.38471 35.6691L10.4264 28.9824C9.55266 27.3686 9.05338 25.5142 9.05338 23.5438C9.05338 17.2405 14.162 12.1318 20.4654 12.1318C26.7687 12.1318 31.8774 17.2405 31.8774 23.5438C31.8774 29.8472 26.7687 34.9558 20.4654 34.9558Z" fill="black"/>
</g>
<defs>
<clipPath id="clip0_201_6981">
<rect width="39.942" height="45.648" fill="white" transform="translate(0.494385 0.719849)"/>
</clipPath>
</defs>
</svg>
