<svg width="41" height="47" viewBox="0 0 41 47" fill="none" xmlns="http://www.w3.org/2000/svg">
<g clip-path="url(#clip0_201_6973)">
<path d="M8.65029 21.0653C9.44378 17.2851 11.9847 14.1379 15.3994 12.533C15.7204 12.9699 17.8958 15.9923 19.9196 19.5764C14.2136 21.092 9.19414 21.0742 8.65029 21.0653ZM28.6569 14.4499C25.6613 11.793 21.5869 10.7856 17.7264 11.7217C18.0652 12.1764 20.2763 15.1899 22.2734 18.8542C26.6064 17.2227 28.4341 14.762 28.6569 14.4499ZM13.0992 33.1727C16.71 35.9901 21.4175 36.4447 25.3403 34.7775C25.162 33.7077 24.4488 29.9809 22.737 25.5409C17.8245 27.2171 14.3741 30.5694 13.0992 33.1727ZM21.9078 23.526C21.6047 22.8306 21.2659 22.1441 20.9182 21.4576C14.8377 23.2764 8.93559 23.205 8.40065 23.1872C8.40065 23.312 8.39174 23.4369 8.39174 23.5617C8.39174 26.6911 9.57752 29.5441 11.5211 31.7106C13.5004 28.3315 17.5035 24.7653 21.9078 23.526ZM25.0194 24.9793C26.6153 29.3568 27.2572 32.9231 27.382 33.6631C30.1191 31.8175 32.0627 28.8843 32.6066 25.4964C32.1965 25.3626 28.8353 24.3641 25.0194 24.9793ZM23.2095 20.6641C23.6375 21.5378 23.9495 22.2511 24.2794 23.0535C28.336 22.5453 32.3659 23.3566 32.7671 23.4458C32.7403 20.566 31.715 17.927 30.0121 15.8586C29.7536 16.2063 27.7119 18.8186 23.2095 20.6641ZM40.5504 7.85234V39.2353C40.5504 41.598 38.6335 43.5148 36.2709 43.5148H4.8879C2.52526 43.5148 0.608398 41.598 0.608398 39.2353V7.85234C0.608398 5.4897 2.52526 3.57285 4.8879 3.57285H36.2709C38.6335 3.57285 40.5504 5.4897 40.5504 7.85234ZM34.8444 23.5438C34.8444 15.6803 28.443 9.27884 20.5794 9.27884C12.7158 9.27884 6.3144 15.6803 6.3144 23.5438C6.3144 31.4074 12.7158 37.8088 20.5794 37.8088C28.443 37.8088 34.8444 31.4074 34.8444 23.5438Z" fill="black"/>
</g>
<defs>
<clipPath id="clip0_201_6973">
<rect width="39.942" height="45.648" fill="white" transform="translate(0.608398 0.719849)"/>
</clipPath>
</defs>
</svg>
