<svg width="47" height="47" viewBox="0 0 47 47" fill="none" xmlns="http://www.w3.org/2000/svg">
<path d="M23.7838 1.43311C11.5919 1.43311 1.6731 11.3519 1.6731 23.5438C1.6731 35.7358 11.5919 45.6546 23.7838 45.6546C35.9758 45.6546 45.8946 35.7358 45.8946 23.5438C45.8946 11.3519 35.9758 1.43311 23.7838 1.43311ZM38.4028 11.6295C41.0332 14.8433 42.626 18.9365 42.6676 23.3942C42.0449 23.2625 35.8009 21.996 29.5169 22.7863C29.004 21.5344 28.52 20.4332 27.857 19.0761C34.8398 16.2252 38.0046 12.1681 38.4028 11.6295ZM36.3032 9.44558C35.9636 9.92943 33.1206 13.7506 26.405 16.2677C23.3102 10.5817 19.8801 5.91062 19.3581 5.21164C25.3473 3.76793 31.6587 5.32486 36.3032 9.44558ZM15.7545 6.48113C16.2525 7.16398 19.6273 11.8408 22.7566 17.4036C13.9224 19.7495 6.14143 19.7157 5.29676 19.7046C6.52141 13.8441 10.4709 8.97332 15.7545 6.48113ZM4.89788 23.5726C4.89788 23.3795 4.90171 23.1873 4.90751 22.9955C5.73381 23.0125 14.8859 23.1304 24.3174 20.3078C24.858 21.3659 25.3745 22.44 25.8485 23.5129C19.0192 25.4365 12.8144 30.9599 9.75306 36.2004C6.73663 32.8522 4.89788 28.4234 4.89788 23.5726ZM12.1915 38.4718C14.1642 34.439 19.5182 29.2333 27.1322 26.6358C29.7837 33.526 30.8802 39.3007 31.1611 40.9577C25.0885 43.5444 17.7863 42.8347 12.1915 38.4718ZM34.3361 39.2287C34.1425 38.0798 33.1373 32.5511 30.6671 25.7631C36.5853 24.8158 41.7849 26.3665 42.431 26.5704C41.5892 31.8254 38.573 36.3637 34.3361 39.2287Z" fill="black"/>
</svg>
