<svg width="41" height="47" viewBox="0 0 41 47" fill="none" xmlns="http://www.w3.org/2000/svg">
<path d="M29.429 10.946C27.4498 9.69784 25.5508 9.20748 23.6606 7.95929C22.5016 7.17472 20.8701 5.2846 19.5149 3.65305C19.2742 6.26532 18.4896 7.32628 17.5534 8.06628C15.6544 9.58193 14.4508 10.0455 12.7836 10.946C11.3749 11.686 3.79663 16.9017 3.79663 26.6197C3.79663 36.3556 11.9812 43.5148 21.0751 43.5148C30.1423 43.5148 38.0326 36.9172 38.0326 26.9317C38.0326 16.9195 30.6327 11.686 29.429 10.946ZM29.6519 39.9753C27.8599 41.7673 21.619 42.5341 19.2474 40.3498C18.8195 39.9218 19.2742 39.2799 19.8269 39.2799C19.8269 39.2799 21.3426 40.4657 24.4185 40.4657C26.8257 40.4657 28.5197 39.7792 29.2775 39.2175C29.8213 38.8073 30.0264 39.6008 29.6519 39.9753ZM24.7929 35.2857C25.5686 34.9647 27.3785 34.9469 28.0739 35.4016C28.4394 35.6512 29.5093 37.0777 28.6266 37.5146C27.8777 37.889 28.5197 36.1148 26.264 36.1148C24.9534 36.1148 24.5255 36.5784 23.8835 37.0956C23.2594 37.6305 23.0098 37.8088 22.7958 37.5146C22.2609 36.7835 24.2134 35.5264 24.7929 35.2857ZM33.0399 36.8281C31.6847 36.7389 28.9833 32.4773 27.2447 32.4148C24.4898 32.3346 17.9636 39.6098 12.8638 36.1594C9.40456 33.7879 11.5621 26.8158 17.4821 26.7802C21.8953 26.7356 24.9534 31.1488 27.1556 31.1042C29.0546 31.0775 32.6654 27.3775 34.4485 27.3775C38.7905 27.3775 36.5259 37.1223 33.0399 36.8281Z" fill="black"/>
</svg>
