<svg width="58" height="47" viewBox="0 0 58 47" fill="none" xmlns="http://www.w3.org/2000/svg">
<g clip-path="url(#clip0_201_6961)">
<path d="M54.0288 17.6149L49.143 27.4132L44.2484 17.6149H40.905L41.8768 19.4515C40.8515 17.7576 38.6761 17.1335 36.2332 17.1335C33.398 17.1335 30.1795 17.9091 29.8585 20.9761H32.8631C32.9879 19.7458 34.2629 19.0325 35.9836 19.0325C38.3016 19.0325 39.639 19.8884 39.639 21.9747V22.2778C38.5067 22.2778 37.1426 22.2867 35.9212 22.3135C32.1409 22.3937 29.7159 23.205 29.0829 25.3804C29.172 24.9168 29.2166 24.4354 29.2166 23.9361C29.2166 19.2911 25.6771 17.1424 22.4942 17.1424C20.5952 17.1424 18.6605 17.6328 17.2608 19.3V12.114H14.3988V27.226C14.3988 28.1443 14.3454 29.2676 14.3008 30.177H17.1092C17.1716 29.6154 17.2073 29.0269 17.2073 28.4385C18.4198 29.9185 20.3634 30.6585 22.4407 30.6585C25.7306 30.6585 28.227 28.706 28.9759 25.8262C28.9313 26.0758 28.9135 26.3433 28.9135 26.6286C28.9135 28.7773 30.7947 30.6406 34.3164 30.6406C36.6879 30.6406 38.3997 30.1325 39.8351 28.3672C39.8351 28.9556 39.8619 29.5529 39.9332 30.1681H42.5901C42.5276 29.437 42.5009 28.6079 42.5009 27.7787V21.9301C42.5009 21.1009 42.3493 20.3966 42.0729 19.8082L47.5561 30.1592L45.0151 34.9826H48.2158L57.0601 17.6149H54.0288ZM21.7275 28.697C19.0885 28.697 17.2519 26.7802 17.2519 23.9004C17.2519 21.0118 19.0885 19.1038 21.7275 19.1038C24.3843 19.1038 26.2031 21.0118 26.2031 23.9004C26.2031 26.7802 24.3843 28.697 21.7275 28.697ZM39.639 24.48C39.639 27.1546 38.0431 28.7951 35.0385 28.7951C32.8007 28.7951 31.9181 27.6004 31.9181 26.4949C31.9181 24.792 33.5318 24.3195 36.1262 24.2392C37.2942 24.1947 38.5869 24.1857 39.639 24.1857V24.48ZM2.91553 24.6226H14.3988V23.8648C14.3988 19.2554 11.4478 17.1424 7.409 17.1424C2.34493 17.1424 0.0090332 19.8884 0.0090332 24.0609C0.0090332 27.8501 2.26469 30.6585 7.36442 30.6585C10.1639 30.6585 13.427 29.6154 13.9976 26.5484H11.0466C9.9767 29.7402 3.22757 29.8204 2.91553 24.6226ZM11.3854 22.7147H2.96902C3.5842 17.6684 11.1803 17.8378 11.3854 22.7147Z" fill="black"/>
</g>
<defs>
<clipPath id="clip0_201_6961">
<rect width="57.06" height="45.648" fill="white" transform="translate(0 0.719849)"/>
</clipPath>
</defs>
</svg>
