<svg width="47" height="46" viewBox="0 0 47 46" fill="none" xmlns="http://www.w3.org/2000/svg">
<g clip-path="url(#clip0_201_6959)">
<path d="M2.78174 20.4137L2.81294 20.371C2.81294 20.3852 2.81294 20.3995 2.8067 20.4137H2.78174ZM43.8453 21.7966C43.8453 17.8737 43.1535 14.2664 41.2767 10.8838C37.6231 4.34066 31.1513 0.785114 23.5712 0.785114C11.0991 0.760151 4.11106 10.1652 2.81294 20.371C6.59495 14.9048 13.2505 9.54917 22.4603 9.22643C22.4603 9.22643 32.2381 9.22643 31.3242 18.5878H15.6461C16.214 15.2543 17.2999 13.3276 18.7077 11.5507C12.0165 14.6623 7.84403 20.1186 7.9421 28.3406C8.0161 34.7108 12.4115 41.254 18.7077 43.6755C26.1389 46.5142 35.8944 44.3174 40.1168 41.7738V32.4632C32.9067 37.4996 15.9671 37.8946 15.8431 26.4389H43.8453V21.7966Z" fill="black"/>
</g>
<defs>
<clipPath id="clip0_201_6959">
<rect width="45.648" height="45.648" fill="white" transform="translate(0.489746 0.0718994)"/>
</clipPath>
</defs>
</svg>
