<svg width="47" height="46" viewBox="0 0 47 46" fill="none" xmlns="http://www.w3.org/2000/svg">
<g clip-path="url(#clip0_201_6957)">
<path d="M43.8075 12.0616C40.1476 4.90236 32.2475 0.785126 23.6573 0.785126C13.0602 0.785126 4.18558 8.24572 2.04227 18.2294C4.36033 14.0846 9.72932 11.1736 15.3676 11.1736C22.435 11.1736 26.1635 15.536 26.2669 15.6475C28.2283 17.7694 29.2091 20.1401 29.2091 23.0564C29.2091 23.9836 28.7356 25.3584 27.8619 26.4951C27.7219 26.6734 27.2922 26.9266 27.2922 27.4758C27.2922 27.927 27.5855 28.3603 28.1071 28.724C30.591 30.451 35.2726 30.2227 35.2851 30.2227C37.1245 30.2177 38.929 29.7195 40.5105 28.7802C42.1067 27.8481 43.4314 26.5148 44.3533 24.9128C45.2753 23.3107 45.7624 21.4954 45.7663 19.647C45.8108 15.775 44.3843 13.201 43.8075 12.0616ZM19.8111 42.4808C18.1576 41.4517 16.7405 40.0844 15.6529 38.4688C12.7161 34.241 12.6001 29.9455 13.8608 26.3435C14.7573 23.515 16.5376 21.0488 18.94 19.3073C24.2003 15.2775 27.3956 18.8036 27.7719 19.2182C27.6479 18.907 27.5023 18.6049 27.3359 18.3141C26.5121 16.8939 25.1961 15.068 22.2932 13.5434C19.2869 11.9662 15.9997 11.886 15.3711 11.886C11.9199 11.886 8.42585 13.045 5.78415 15.068C4.02243 16.4142 1.97986 18.6806 1.60808 21.7368C1.51179 22.8344 1.3629 27.3359 3.65867 32.2813C5.59505 36.4127 8.7621 39.8439 12.7255 42.1043C16.6889 44.3646 21.2545 45.3436 25.7962 44.9068C22.3975 44.3166 19.9252 42.5316 19.8111 42.4808ZM42.1643 33.7141C42.0593 33.6476 41.9384 33.6105 41.8141 33.6069C41.6898 33.6033 41.5669 33.6333 41.4582 33.6936C40.8689 34.0017 40.2612 34.2733 39.6386 34.5067C37.6555 35.2485 35.555 35.6266 33.4377 35.6229C25.2648 35.6229 18.1457 30.0007 18.1457 22.7844C18.1555 21.9556 18.3543 21.1399 18.727 20.3995C17.3043 21.6543 16.1318 23.1668 15.2713 24.8573C13.9411 27.4758 12.3291 32.7147 16.4597 38.3787C17.0401 39.1731 18.5103 41.0534 21.4525 42.6288C23.5539 43.7566 25.8211 44.3772 27.845 44.3772C30.9779 44.3772 38.1363 41.3958 42.3774 34.6707C42.4265 34.594 42.46 34.5083 42.4758 34.4186C42.4917 34.3289 42.4897 34.237 42.4699 34.1481C42.4501 34.0592 42.4129 33.9751 42.3604 33.9006C42.308 33.8261 42.2414 33.7627 42.1643 33.7141Z" fill="black"/>
</g>
<defs>
<clipPath id="clip0_201_6957">
<rect width="45.648" height="45.648" fill="white" transform="translate(0.841797 0.0718994)"/>
</clipPath>
</defs>
</svg>
