<svg width="45" height="46" viewBox="0 0 45 46" fill="none" xmlns="http://www.w3.org/2000/svg">
<g clip-path="url(#clip0_201_6953)">
<path d="M22.7892 0.785126C10.5775 0.785126 0.678467 10.6841 0.678467 22.8959C0.678467 35.1076 10.5775 45.0066 22.7892 45.0066C35.0009 45.0066 44.9 35.1076 44.9 22.8959C44.9 10.6841 35.0009 0.785126 22.7892 0.785126ZM35.6134 26.2125C34.1397 32.0353 28.8331 36.1623 22.7892 36.1623C16.7453 36.1623 11.4387 32.0353 9.96498 26.2125C9.81787 25.5492 10.1861 24.8118 10.8494 24.6647C11.5127 24.5176 12.2501 24.8858 12.3972 25.5492C13.6498 30.2664 17.9248 33.583 22.7892 33.583C27.6536 33.583 31.9286 30.2664 33.1813 25.5492C33.3284 24.8858 34.0657 24.4436 34.729 24.6647C35.3923 24.8118 35.8345 25.5492 35.6134 26.2125Z" fill="black"/>
</g>
<defs>
<clipPath id="clip0_201_6953">
<rect width="44.2215" height="45.648" fill="white" transform="translate(0.678223 0.0718994)"/>
</clipPath>
</defs>
</svg>
