<svg width="58" height="46" viewBox="0 0 58 46" fill="none" xmlns="http://www.w3.org/2000/svg">
<g clip-path="url(#clip0_201_6951)">
<path d="M57.6699 22.7711C57.5718 21.8171 56.7159 22.1648 56.7159 22.1648C56.7159 22.1648 55.3251 23.2436 54.1037 23.1188C52.8822 23.0029 53.2656 20.2658 53.2656 20.2658C53.2656 20.2658 53.5331 17.7605 52.8109 17.5554C52.0887 17.3414 51.2061 18.2063 51.2061 18.2063C51.2061 18.2063 50.1005 19.4277 49.5745 20.9879L49.4319 21.0325C49.4319 21.0325 49.6013 18.3043 49.4051 17.6802C49.2625 17.3682 47.943 17.3949 47.729 17.9477C47.515 18.5005 46.463 22.3342 46.3916 23.939C46.3916 23.939 44.3321 25.6865 42.5312 25.9718C40.7302 26.2571 40.3023 25.1337 40.3023 25.1337C40.3023 25.1337 45.188 23.7696 45.0186 19.8646C44.8492 15.9595 41.0779 17.4039 40.65 17.7248C40.2399 18.0369 38.0288 19.3653 37.3869 23.0474C37.369 23.1723 37.3245 23.7161 37.3245 23.7161C37.3245 23.7161 35.4343 24.9821 34.3823 25.3209C34.3823 25.3209 37.3245 20.3638 33.7315 18.1082C32.7151 17.5019 31.8324 18.0636 31.3064 18.5807C32.5189 17.0383 35.4433 12.8569 34.5963 9.20148C34.0792 7.02607 32.9915 6.78534 31.9929 7.14197C30.4773 7.73932 29.8977 8.63088 29.8977 8.63088C29.8977 8.63088 27.9363 11.4839 27.4816 15.7188C27.0269 19.9537 26.3582 25.0891 26.3582 25.0891C26.3582 25.0891 25.4221 25.9985 24.5573 26.0431C23.6925 26.0877 24.0758 23.4843 24.0758 23.4843C24.0758 23.4843 24.7445 19.5079 24.6999 18.8393C24.6554 18.1706 24.6019 17.8051 23.8173 17.5732C23.0238 17.3325 22.1679 18.34 22.1679 18.34C22.1679 18.34 19.8944 21.7903 19.6983 22.3164L19.5824 22.5303L19.4665 22.3877C19.4665 22.3877 21.0713 17.6892 19.5378 17.6178C18.0043 17.5465 16.9968 19.294 16.9968 19.294C16.9968 19.294 15.2494 22.2183 15.178 22.5482L15.0621 22.4055C15.0621 22.4055 15.7843 18.9997 15.6327 18.1617C15.4901 17.3236 14.6966 17.493 14.6966 17.493C14.6966 17.493 13.6891 17.3771 13.4306 18.019C13.172 18.661 12.2091 22.9494 12.0932 24.3224C12.0932 24.3224 9.57904 26.1233 7.92073 26.1412C6.27134 26.1679 6.43182 25.0891 6.43182 25.0891C6.43182 25.0891 12.4944 23.0118 10.8361 18.9195C10.0961 17.8675 9.23133 17.5376 8.00989 17.5554C6.78845 17.5822 5.30845 18.3222 4.32774 20.5243C3.85521 21.5764 3.72147 22.5749 3.63232 23.3327C3.63232 23.3327 2.5357 23.5467 1.95618 23.0742C1.37666 22.6017 1.06462 23.0742 1.06462 23.0742C1.06462 23.0742 0.0660677 24.3224 1.0557 24.7057C2.04534 25.0891 3.56099 25.2496 3.56099 25.2496C3.70364 25.9183 4.11376 26.9881 5.30845 27.8975C7.10941 29.2616 10.5508 27.7816 10.5508 27.7816L11.9684 26.9971C11.9684 26.9971 12.013 28.2987 13.0472 28.486C14.0814 28.6732 14.5094 28.5751 16.3014 24.2154C17.3535 21.9865 17.4248 22.1113 17.4248 22.1113L17.5407 22.0846C17.5407 22.0846 16.7294 26.2571 17.0414 27.4072C17.3535 28.5484 18.7176 28.4236 18.7176 28.4236C18.7176 28.4236 19.4575 28.6375 20.0549 26.5334C20.6522 24.4294 21.8024 22.0846 21.8024 22.0846H21.945C21.945 22.0846 21.4457 26.373 22.2125 27.7638C22.9792 29.1546 24.9674 28.2363 24.9674 28.2363C24.9674 28.2363 26.3582 27.5409 26.5722 27.3269C26.5722 27.3269 28.2216 28.7356 30.5486 28.4771C35.7464 27.4518 37.6008 26.1679 37.6008 26.1679C37.6008 26.1679 38.4924 28.3433 41.2652 28.5484C44.4302 28.7891 46.1509 26.8901 46.1509 26.8901C46.1509 26.8901 46.1242 28.0937 47.2297 28.5484C48.3353 29.0031 49.0752 26.5156 49.0752 26.5156L50.9208 21.4159H51.0902C51.0902 21.4159 51.1882 24.7414 53.007 25.2674C54.8258 25.7935 57.1974 24.046 57.1974 24.046C57.1974 24.046 57.768 23.7339 57.6699 22.7711ZM6.13761 23.2436C6.20893 20.3906 8.08121 19.1513 8.72314 19.7665C9.37398 20.3906 9.13326 21.7279 7.91182 22.566C6.69038 23.413 6.13761 23.2436 6.13761 23.2436ZM30.4594 12.206C30.4594 12.206 32.1623 7.77498 32.5635 9.93256C32.9647 12.0901 28.9973 18.5094 28.9973 18.5094C29.0418 17.0651 30.4594 12.206 30.4594 12.206ZM32.4922 24.5453C31.3688 27.4874 28.6317 26.2927 28.6317 26.2927C28.6317 26.2927 28.3197 25.2407 29.2023 22.2896C30.085 19.3385 32.1712 20.4887 32.1712 20.4887C32.1712 20.4887 33.6156 21.5942 32.4922 24.5453ZM40.0348 23.2436C40.0348 23.2436 39.7673 22.3074 40.757 20.5154C41.7377 18.7144 42.5044 19.7041 42.5044 19.7041C42.5044 19.7041 43.3425 20.6135 42.3885 21.9776C41.4346 23.3417 40.0348 23.2436 40.0348 23.2436Z" fill="black"/>
</g>
<defs>
<clipPath id="clip0_201_6951">
<rect width="57.06" height="45.648" fill="white" transform="translate(0.618164 0.0718994)"/>
</clipPath>
</defs>
</svg>
