<svg width="45" height="46" viewBox="0 0 45 46" fill="none" xmlns="http://www.w3.org/2000/svg">
<g clip-path="url(#clip0_201_6949)">
<path d="M26.0381 4.90416C25.0752 4.70801 24.0677 4.60994 23.0513 4.5832V2.96055C30.0144 3.1567 36.077 6.88343 39.5096 12.4646L38.1009 13.2759C37.557 12.4111 36.9686 11.5998 36.2999 10.8598L34.6951 12.2417C32.3771 9.60269 29.2209 7.7215 25.6101 7.03499L26.0381 4.90416ZM5.15767 28.8159L7.20826 28.1294C6.63766 26.4978 6.3167 24.7236 6.3167 22.8959C6.3167 21.0682 6.61092 19.294 7.18152 17.6624L5.15767 16.9759C5.47863 16.013 5.89767 15.0769 6.3702 14.2121L4.96153 13.4007C3.42804 16.2092 2.54539 19.4634 2.54539 22.8959C2.54539 26.3284 3.43696 29.5826 4.96153 32.3999L6.3702 31.5886C5.89767 30.6971 5.50538 29.7787 5.15767 28.8159ZM19.3959 38.7657C15.794 38.0524 12.6379 36.1712 10.3109 33.5322L8.70609 34.9409C8.03742 34.1741 7.42224 33.3628 6.90513 32.498L5.47863 33.3361C8.91115 38.8905 15.0005 42.6351 21.9636 42.8401V41.2086C20.9562 41.1818 19.9398 41.057 18.9769 40.8876L19.3959 38.7657ZM8.715 10.8509L10.3198 12.2328C12.6379 9.59378 15.794 7.71258 19.4048 7.02608L18.9858 4.90416C19.9487 4.70801 20.9562 4.60994 21.9725 4.5832V2.96055C15.0094 3.1567 8.94681 6.88343 5.5143 12.4646L6.92296 13.2759C7.4579 12.4111 8.04633 11.5909 8.715 10.8509ZM36.2999 34.9409L34.6951 33.5322C32.3771 36.1712 29.2209 38.0524 25.6101 38.7657L26.0291 40.8876C25.0663 41.057 24.0588 41.1818 23.0424 41.2086V42.8401C30.0055 42.644 36.0949 38.8905 39.5274 33.3361L38.092 32.498C37.5838 33.3628 36.9686 34.1741 36.2999 34.9409ZM44.6182 22.8959C44.6182 35.1103 34.7219 45.0066 22.5075 45.0066C10.2931 45.0066 0.396729 35.1103 0.396729 22.8959C0.396729 10.6815 10.2931 0.785141 22.5075 0.785141C34.7219 0.785141 44.6182 10.6815 44.6182 22.8959ZM43.5305 22.8959C43.5305 11.2967 34.1067 1.87285 22.5075 1.87285C10.9082 1.87285 1.48443 11.2967 1.48443 22.8959C1.48443 34.4951 10.9082 43.9189 22.5075 43.9189C34.1067 43.9189 43.5305 34.4951 43.5305 22.8959ZM40.0534 13.3918L38.6447 14.2032C39.1173 15.068 39.5363 16.0041 39.8573 16.967L37.8334 17.6535C38.404 19.2851 38.6982 21.0593 38.6982 22.887C38.6982 24.7147 38.3773 26.4889 37.8067 28.1204L39.8573 28.8069C39.5096 29.7698 39.1173 30.6792 38.6447 31.5708L40.0534 32.3821C41.5869 29.5826 42.4696 26.3284 42.4696 22.8959C42.4696 19.4634 41.5869 16.2092 40.0534 13.3918ZM23.7378 29.2349C25.1911 28.9407 26.4482 28.2007 27.3665 27.1397L31.9313 31.1339C32.9922 29.9214 33.8303 28.5216 34.3474 26.9614L28.6236 24.9911C28.8465 24.3224 28.9713 23.6359 28.9713 22.8959C28.9713 22.1559 28.8465 21.4605 28.6236 20.8007L34.3742 18.8304C33.8303 17.279 32.9922 15.8704 31.9313 14.6579L27.3665 18.652C26.4571 17.5911 25.1911 16.8243 23.7378 16.5301L24.9236 10.6102C24.1569 10.4408 23.3455 10.3605 22.5075 10.3605C21.6694 10.3605 20.8581 10.4318 20.0913 10.6102L21.2771 16.5301C19.8239 16.8243 18.5668 17.5911 17.6485 18.652L13.0837 14.6579C12.0227 15.8704 11.1846 17.2701 10.6408 18.8304L16.3914 20.8007C16.1685 21.4694 16.0436 22.1559 16.0436 22.8959C16.0436 23.6359 16.1685 24.3313 16.3914 24.9911L10.6675 26.9614C11.1846 28.5127 12.0227 29.9214 13.0837 31.1339L17.6485 27.1397C18.5579 28.2007 19.8239 28.9407 21.2771 29.2349L20.0913 35.1816C20.8581 35.3332 21.6694 35.4313 22.5075 35.4313C23.3455 35.4313 24.1569 35.3332 24.9236 35.1816L23.7378 29.2349Z" fill="black"/>
</g>
<defs>
<clipPath id="clip0_201_6949">
<rect width="44.2215" height="45.648" fill="white" transform="translate(0.396973 0.0718994)"/>
</clipPath>
</defs>
</svg>
