<svg width="41" height="46" viewBox="0 0 41 46" fill="none" xmlns="http://www.w3.org/2000/svg">
<g clip-path="url(#clip0_201_6947)">
<path d="M0.454834 2.9249C43.0359 2.9249 33.1395 31.2142 33.1841 35.5828L40.3968 42.8669H38.0788L31.8022 36.519C28.3251 36.8934 20.7111 39.5949 12.6871 33.2202C4.64518 26.8455 5.09096 19.2137 0.454834 2.9249ZM7.56059 7.02608C3.12952 4.93091 7.09697 7.84632 7.09697 7.84632C11.1268 10.628 12.9813 14.4171 15.1389 18.5362C17.9473 23.9034 22.1822 30.9913 27.9952 33.4877C33.7903 35.984 31.0443 34.6021 28.5301 32.7298C26.0159 30.8397 22.4497 24.9732 20.4169 21.1217C17.5907 15.7723 14.9784 10.5478 7.56059 7.02608Z" fill="black"/>
</g>
<defs>
<clipPath id="clip0_201_6947">
<rect width="39.942" height="45.648" fill="white" transform="translate(0.454834 0.0718994)"/>
</clipPath>
</defs>
</svg>
