<svg width="35" height="46" viewBox="0 0 35 46" fill="none" xmlns="http://www.w3.org/2000/svg">
<g clip-path="url(#clip0_201_6939)">
<path d="M11.1653 11.8593C11.308 13.8483 9.60065 13.7841 9.23868 13.7841C3.09314 13.7841 2.67321 13.695 1.787 14.0819C1.73707 14.1015 1.72102 14.0819 1.75401 14.0489L11.4301 4.21322C11.464 4.18023 11.4836 4.19361 11.464 4.24621C11.0762 5.13688 11.1653 5.59158 11.1653 11.8593ZM18.2087 39.3194C16.8999 36.0135 19.3677 32.4606 22.8912 32.4882C24.4505 32.4882 24.9061 34.5575 23.6 35.2895C23.0481 35.5837 21.3755 35.4446 21.3586 37.0013C21.3541 38.525 23.1123 39.2302 24.1402 39.2204C24.6748 39.2205 25.2041 39.1153 25.6979 38.9108C26.1917 38.7063 26.6405 38.4066 27.0184 38.0286C27.3964 37.6506 27.6962 37.2019 27.9007 36.7081C28.1052 36.2142 28.2103 35.6849 28.2102 35.1504V35.1433C28.2102 34.1064 27.5157 30.9333 23.9717 30.2094C23.2835 30.0721 18.1766 29.6433 17.8779 25.7052C17.5445 27.2146 16.3266 31.3657 14.0344 31.865C13.2552 32.038 7.82198 32.5462 3.96687 28.5867C3.96687 28.5867 2.31124 27.2289 1.44999 23.4201C1.14864 22.0159 0.622618 19.8806 0.456787 17.8925C0.456787 16.2876 1.44999 15.1777 2.69193 15.0216C9.91359 15.0216 10.716 15.2285 11.6967 14.3262C12.5722 13.5024 12.3921 12.9443 12.3921 5.16273C12.4813 4.42274 13.0867 2.41583 17.154 3.0105C17.6889 3.08718 19.9989 3.38318 20.4955 5.74225L26.2247 6.73634C28.0462 7.06711 32.5495 7.36044 33.4107 11.9021C35.431 22.698 34.2051 33.1622 34.1061 33.1622C32.6814 43.3599 24.2036 42.8669 24.2036 42.8669C22.514 42.8464 19.3668 42.0288 18.206 39.3158L18.2087 39.3194ZM25.425 21.0566C25.3358 21.2278 25.2288 21.5916 25.5008 21.6807C26.757 22.1202 29.0447 22.2905 29.5913 22.1737C29.8685 22.1515 29.8632 21.7788 29.8124 21.5809C29.4976 19.6328 26.1721 19.2182 25.4223 21.053L25.425 21.0566Z" fill="black"/>
</g>
<defs>
<clipPath id="clip0_201_6939">
<rect width="34.236" height="45.648" fill="white" transform="translate(0.393066 0.0718994)"/>
</clipPath>
</defs>
</svg>
