<svg width="47" height="46" viewBox="0 0 47 46" fill="none" xmlns="http://www.w3.org/2000/svg">
<g clip-path="url(#clip0_201_6929)">
<path d="M45.3377 22.8959C45.3377 10.6815 35.4414 0.785156 23.227 0.785156C11.0126 0.785156 1.11621 10.6815 1.11621 22.8959C1.11621 33.9317 9.20179 43.0791 19.7722 44.7392V29.2875H14.1553V22.8959H19.7722V18.0244C19.7722 12.4833 23.0709 9.42261 28.1234 9.42261C30.5431 9.42261 33.0734 9.85413 33.0734 9.85413V15.2927H30.2846C27.5385 15.2927 26.6818 16.9973 26.6818 18.7457V22.8959H32.8139L31.8332 29.2875H26.6818V44.7392C37.2521 43.0791 45.3377 33.9317 45.3377 22.8959Z" fill="black"/>
</g>
<defs>
<clipPath id="clip0_201_6929">
<rect width="45.648" height="45.648" fill="white" transform="translate(0.40332 0.0718994)"/>
</clipPath>
</defs>
</svg>
