<svg width="47" height="46" viewBox="0 0 47 46" fill="none" xmlns="http://www.w3.org/2000/svg">
<g clip-path="url(#clip0_201_6927)">
<path d="M23.5791 3.00156L3.6848 22.8959L23.5791 42.7902L43.4734 22.8959L23.5791 3.00156ZM8.63119 22.8807C8.80593 22.7024 9.69393 21.7841 17.2339 14.1898C20.9294 10.4675 24.9182 10.2874 27.9121 12.5234C30.108 14.1639 33.4451 17.7747 33.4532 17.7837C33.5138 17.8496 33.5486 18.0386 33.5049 18.085C32.5001 19.1406 31.4828 20.1837 30.5181 21.1778C27.4681 18.2972 26.9055 17.7685 26.1932 17.2594C24.6089 16.128 22.5021 16.3563 21.1131 17.7141C20.9196 17.904 20.9535 18.0199 21.1238 18.1911C21.3859 18.4541 23.629 20.7169 24.2522 21.3811C23.1868 22.4153 22.1428 23.429 21.0703 24.4713C19.9986 23.3533 18.8877 22.1951 17.8125 21.0735C15.9054 22.9538 14.0956 24.7387 12.2982 26.5112C11.075 25.3018 9.8527 24.0917 8.63119 22.8807ZM29.5669 31.939C26.4027 35.0978 22.6046 35.3394 20.028 33.764C18.0595 32.5604 16.5171 30.9039 13.5259 27.8048C14.6002 26.702 15.6469 25.6276 16.6793 24.5676C19.6233 27.4125 19.9834 27.7781 20.6628 28.3201C22.3104 29.6343 24.4537 29.5389 25.9516 28.1597C26.2797 27.8574 26.2806 27.8351 25.9641 27.5142C25.0199 26.5575 24.0748 25.6027 23.1316 24.6451C23.0139 24.5257 22.8614 24.424 23.0602 24.227C24.0222 23.2721 24.9753 22.3083 25.932 21.3481C25.9551 21.3249 25.9899 21.3142 26.1022 21.2527C27.2051 22.4002 28.324 23.5637 29.4233 24.7075C31.2965 22.8593 33.1001 21.0807 34.8841 19.3207C36.1038 20.5154 37.3029 21.6905 38.5271 22.8896C36.7288 24.7494 31.2448 30.2637 29.5669 31.939ZM23.5791 0.0718842L0.755127 22.8959L23.5791 45.7199L46.4031 22.8959L23.5791 0.0718842ZM2.18163 22.8959L23.5791 1.49838L44.9766 22.8959L23.5791 44.2934L2.18163 22.8959Z" fill="black"/>
</g>
<defs>
<clipPath id="clip0_201_6927">
<rect width="45.648" height="45.648" fill="white" transform="translate(0.755371 0.0718994)"/>
</clipPath>
</defs>
</svg>
