<svg width="58" height="46" viewBox="0 0 58 46" fill="none" xmlns="http://www.w3.org/2000/svg">
<g clip-path="url(#clip0_201_6925)">
<path d="M52.9409 25.4368L57.6929 20.0964H52.1295L50.1949 22.3075L48.1888 20.0964H37.606V18.6699H42.6077V14.3815H29.1272V21.1128H29.0827C28.2268 20.132 27.1658 19.7933 25.9265 19.7933C23.3945 19.7933 21.4865 21.5229 20.8179 23.7964C19.2131 18.5005 12.1341 18.661 9.94973 22.5482V20.3906H5.06397V18.0547H10.4133V14.3904H0.695312V30.8308H5.06397V23.9212H9.42371C9.28997 24.4294 9.21865 24.9732 9.21865 25.5438C9.21865 32.0612 18.3661 33.6927 20.8268 27.6568H17.0822C15.7716 29.5202 12.9989 28.4503 12.9989 26.3552H20.6217C20.9516 29.0744 23.0646 31.4281 25.98 31.4281C27.2371 31.4281 28.3872 30.813 29.0916 29.7698H29.1361V30.8308H48.0551L50.0255 28.6019L52.0136 30.8308H57.7553L52.9409 25.4368ZM13.1148 23.9568C13.6586 21.612 16.8326 21.6744 17.2605 23.9568H13.1148ZM26.7913 28.3166C23.7065 28.3166 23.76 22.7176 26.7913 22.7176C29.6978 22.7176 29.8672 28.3166 26.7913 28.3166ZM41.7518 30.0195H33.3354V15.175H41.8052V17.8675H36.8036V20.8899H41.7518V23.3952H36.7501V27.3804H41.7518V30.0195ZM37.6595 26.4711V24.2956H42.6611V20.3728L47.1814 25.4547L42.6611 30.5366V26.4711H37.6595ZM50.0165 27.3894L47.6896 30.0195H44.2927L48.3582 25.4547L44.2927 20.8899H47.8322L50.2038 23.5022L52.4862 20.8899H55.9187L51.871 25.4368L55.9722 30.0195H52.3613L50.0165 27.3894Z" fill="black"/>
</g>
<defs>
<clipPath id="clip0_201_6925">
<rect width="57.06" height="45.648" fill="white" transform="translate(0.695312 0.0718994)"/>
</clipPath>
</defs>
</svg>
