<svg width="41" height="46" viewBox="0 0 41 46" fill="none" xmlns="http://www.w3.org/2000/svg">
<g clip-path="url(#clip0_201_6923)">
<path d="M20.8136 2.92486C9.78502 2.89812 0.824818 11.8137 0.789155 22.8424L0.753493 38.0257C0.749968 38.6555 0.870973 39.2798 1.10955 39.8626C1.34813 40.4455 1.69957 40.9755 2.14367 41.4221C2.58777 41.8687 3.11577 42.2231 3.69731 42.4649C4.27885 42.7067 4.90245 42.8312 5.53227 42.8312L20.7067 42.8669C31.7353 42.8936 40.7044 33.978 40.7311 22.9494C40.7579 11.9207 31.8423 2.95161 20.8136 2.92486ZM35.9524 16.9402L30.4425 11.359C30.6476 10.94 30.7813 10.5388 30.7813 10.0841V9.94146L35.7027 14.9431C35.8603 15.5974 35.944 16.2673 35.9524 16.9402ZM30.2642 8.4793C31.4847 9.00738 32.58 9.78694 33.4787 10.7671C34.3774 11.7472 35.0593 12.9059 35.4798 14.1675L30.6387 9.29954C30.5677 9.0046 30.4406 8.72611 30.2642 8.4793ZM11.2828 22.1113C11.008 22.4166 10.7769 22.7587 10.5963 23.1277L9.83851 22.3698C10.3106 22.2376 10.7942 22.151 11.2828 22.1113ZM9.40165 22.4857L10.4537 23.5467L10.3734 24.26C10.3755 24.6414 10.4481 25.0193 10.5874 25.3744L8.18021 22.9494C8.57243 22.7581 8.98127 22.6029 9.40165 22.4857ZM7.779 23.1455L11.1848 26.5691C10.7482 26.6492 10.325 26.7903 9.92767 26.9881L6.78045 23.7874C7.09965 23.5529 7.43315 23.3385 7.779 23.1455ZM6.42383 24.0192L9.57104 27.1843C9.23435 27.4048 8.92072 27.6587 8.6349 27.9421L5.52335 24.8573C5.7926 24.5465 6.09449 24.2655 6.42383 24.0192ZM5.23805 25.1159L8.3496 28.2363C8.08046 28.5461 7.84994 28.8874 7.6631 29.2527L4.47131 26.052C4.72094 25.7132 4.9795 25.4101 5.23805 25.1159ZM4.25733 26.3908L7.50262 29.6539C7.3228 30.0852 7.21439 30.5429 7.18166 31.0091L3.65999 27.4607C3.83428 27.0907 4.03387 26.7333 4.25733 26.3908ZM3.47276 27.844L7.15491 31.5708C7.18391 32.3833 7.38765 33.18 7.75226 33.9067L3.05372 29.1368C3.17854 28.6999 3.31228 28.2809 3.47276 27.844ZM2.76842 31.6777L8.28719 37.2233C8.08 37.6165 7.96995 38.0537 7.96623 38.4982V38.5963L3.02698 33.6303C2.85937 32.9928 2.7725 32.3368 2.76842 31.6777ZM3.24095 34.4148L8.08213 39.2828C8.15695 39.5764 8.28377 39.8542 8.45659 40.103C7.23693 39.5737 6.14226 38.7937 5.24369 37.8137C4.34513 36.8338 3.66277 35.6757 3.24095 34.4148ZM2.76842 31.1161C2.77688 30.6056 2.83964 30.0976 2.95565 29.6004L9.39273 36.0642C9.05513 36.2688 8.75632 36.5314 8.51008 36.8399L2.76842 31.1161ZM25.3517 26.4978L21.5536 26.4889L21.5447 31.4816C21.5269 37.6601 15.8031 41.8059 10.3378 40.6558C9.8296 40.6558 8.56358 39.8801 8.56358 38.4982C8.57024 37.9201 8.80224 37.3675 9.2102 36.9578C9.61815 36.5482 10.1699 36.314 10.7479 36.305C11.3096 36.305 11.3096 36.4476 12.1477 36.4476C12.8036 36.4498 13.4536 36.3226 14.0602 36.0731C14.6669 35.8237 15.2184 35.4569 15.683 34.9939C16.1477 34.5309 16.5164 33.9808 16.768 33.375C17.0196 32.7692 17.1492 32.1197 17.1493 31.4638L17.1582 27.2734C17.1582 26.8722 16.757 26.471 16.3647 26.471L13.3691 26.4621C10.4626 26.4532 10.4715 22.0578 13.378 22.0667L17.1761 22.0756L17.185 17.0829C17.1871 15.8496 17.4324 14.6289 17.907 13.4905C18.3815 12.3522 19.0759 11.3187 19.9505 10.4491C20.825 9.57956 21.8625 8.89103 23.0035 8.42298C24.1445 7.95493 25.3666 7.71654 26.5999 7.72147C27.2062 7.71867 27.8107 7.7875 28.4008 7.92653C29.3994 8.08701 30.175 8.98749 30.175 10.0663C30.175 11.4482 28.8466 12.5448 27.4736 12.1971C25.0307 11.6711 21.5982 13.481 21.5893 17.0918L21.5804 21.2821C21.5797 21.387 21.5997 21.4909 21.6392 21.588C21.6787 21.6851 21.737 21.7734 21.8107 21.8479C21.8844 21.9225 21.9721 21.9817 22.0687 22.0223C22.1654 22.0629 22.2691 22.0841 22.3739 22.0845L25.3695 22.0935C28.2671 22.1113 28.2582 26.5067 25.3517 26.4978ZM27.4469 26.471C27.7364 26.1793 27.9666 25.8341 28.1245 25.4546L28.8823 26.2125C28.4115 26.337 27.9315 26.4234 27.4469 26.471ZM29.3191 26.0966L28.2671 25.0356L28.3473 24.3134C28.3453 23.932 28.2727 23.5541 28.1334 23.199L30.5406 25.624C30.1499 25.8212 29.7408 25.9795 29.3191 26.0966ZM30.924 25.4368L27.536 22.0132C27.9729 21.9151 28.3919 21.7992 28.7575 21.5942L31.9849 24.7949C31.6461 25.0178 31.2806 25.2407 30.924 25.4368ZM32.3059 24.5631L29.1587 21.398C29.4978 21.1808 29.8118 20.9267 30.0948 20.6402L33.2064 23.7607C32.921 24.0443 32.6204 24.3121 32.3059 24.5631ZM33.4827 23.4665L30.3712 20.346C30.6363 20.0332 30.8665 19.6924 31.0577 19.3296L34.2495 22.5303C34.0103 22.8555 33.7544 23.1679 33.4827 23.4665ZM34.4635 22.1915L31.2182 18.9284C31.398 18.4971 31.5064 18.0394 31.5391 17.5732L35.0608 21.1217C34.89 21.4934 34.6903 21.8511 34.4635 22.1915ZM35.6671 19.4366C35.5503 19.8688 35.4104 20.2943 35.248 20.7115L31.5659 17.0115C31.542 16.1939 31.3251 15.3935 30.9329 14.6757L35.6671 19.4366ZM35.7562 18.9373L29.3459 12.5092C29.6952 12.3017 29.9961 12.0221 30.2285 11.6889L35.9613 17.4573C35.9386 17.9559 35.87 18.4514 35.7562 18.9373Z" fill="black"/>
</g>
<defs>
<clipPath id="clip0_201_6923">
<rect width="39.942" height="45.648" fill="white" transform="translate(0.753418 0.0718994)"/>
</clipPath>
</defs>
</svg>
