<svg width="35" height="46" viewBox="0 0 35 46" fill="none" xmlns="http://www.w3.org/2000/svg">
<g clip-path="url(#clip0_201_6921)">
<path d="M1.76562 8.61234C1.76562 3.89556 5.58934 0.0718536 10.3062 0.0718536H24.9606C29.6774 0.0718536 33.5011 3.89556 33.5011 8.61234C33.5011 11.599 31.968 14.2277 29.6458 15.7542C31.968 17.2807 33.5011 19.9093 33.5011 22.896C33.5011 27.6128 29.6774 31.4366 24.9606 31.4366H24.7752C22.5639 31.4366 20.5489 30.5962 19.0322 29.2174V37.0866C19.0322 41.8662 15.1085 45.7198 10.3522 45.7198C5.64714 45.7198 1.76562 41.9078 1.76562 37.1793C1.76562 34.1927 3.29862 31.5642 5.62067 30.0377C3.29862 28.5112 1.76562 25.8826 1.76562 22.896C1.76562 19.9093 3.29876 17.2807 5.62096 15.7542C3.29876 14.2277 1.76562 11.599 1.76562 8.61234ZM16.2346 17.153H10.3062C7.13436 17.153 4.56315 19.7243 4.56315 22.896C4.56315 26.0555 7.11453 28.6191 10.2694 28.6389C10.2816 28.6388 10.2939 28.6388 10.3062 28.6388H16.2346V17.153ZM19.0322 22.896C19.0322 26.0678 21.6033 28.639 24.7752 28.639H24.9606C28.1324 28.639 30.7036 26.0678 30.7036 22.896C30.7036 19.7243 28.1324 17.153 24.9606 17.153H24.7752C21.6033 17.153 19.0322 19.7243 19.0322 22.896ZM10.3062 31.4366C10.2939 31.4366 10.2816 31.4365 10.2694 31.4365C7.11453 31.4562 4.56315 34.0198 4.56315 37.1793C4.56315 40.3394 7.16872 42.9223 10.3522 42.9223C13.5869 42.9223 16.2346 40.2979 16.2346 37.0866V31.4366H10.3062ZM10.3062 2.86938C7.13436 2.86938 4.56315 5.4406 4.56315 8.61234C4.56315 11.7841 7.13436 14.3553 10.3062 14.3553H16.2346V2.86938H10.3062ZM19.0322 14.3553H24.9606C28.1324 14.3553 30.7036 11.7841 30.7036 8.61234C30.7036 5.4406 28.1324 2.86938 24.9606 2.86938H19.0322V14.3553Z" fill="black"/>
</g>
<defs>
<clipPath id="clip0_201_6921">
<rect width="34.236" height="45.648" fill="white" transform="translate(0.517578 0.0718994)"/>
</clipPath>
</defs>
</svg>
