<svg width="47" height="46" viewBox="0 0 47 46" fill="none" xmlns="http://www.w3.org/2000/svg">
<g clip-path="url(#clip0_201_6919)">
<path d="M12.5156 11.0817C12.5228 11.0826 12.5299 11.0826 12.5156 11.0817V11.0817ZM43.8469 15.125C42.901 12.8515 40.9868 10.3997 39.4836 9.62137C40.7068 12.0188 41.4156 14.4251 41.6858 16.2189C41.6858 16.2189 41.6858 16.2314 41.6902 16.2555C39.2313 10.126 35.0615 7.65458 31.6557 2.27311C31.4836 2.00118 31.3116 1.72837 31.1439 1.44128C31.0548 1.29418 30.9781 1.1435 30.9041 0.991044C30.7634 0.718531 30.6545 0.430748 30.5796 0.133361C30.5804 0.119169 30.5757 0.105205 30.5666 0.0942847C30.5575 0.0833648 30.5446 0.0763012 30.5305 0.0745181C30.5171 0.0709655 30.503 0.0709655 30.4895 0.0745181L30.4788 0.080759L30.4628 0.0896746L30.4717 0.0771928C25.6368 2.90969 23.6316 7.86766 23.1163 11.0238C21.6225 11.1087 20.1593 11.482 18.8074 12.1231C18.6844 12.1841 18.5883 12.2884 18.5375 12.4159C18.4866 12.5434 18.4846 12.6852 18.5319 12.8141C18.5793 12.9509 18.679 13.0633 18.8092 13.1267C18.9395 13.1901 19.0895 13.1991 19.2264 13.152L19.2728 13.1332C20.4525 12.576 21.7257 12.2435 23.0272 12.1525L23.1538 12.1436C23.3321 12.1329 23.5104 12.1258 23.6887 12.124C24.7456 12.1154 25.7982 12.2601 26.8136 12.5537C26.8734 12.5715 26.9313 12.5912 26.9919 12.6099C27.1604 12.6607 27.3272 12.7169 27.493 12.7766C27.6142 12.8212 27.7346 12.8658 27.8541 12.9175C27.9513 12.9567 28.0484 12.9959 28.1438 13.0378C28.2936 13.105 28.4422 13.1748 28.5896 13.2474C28.6565 13.2803 28.7233 13.3133 28.7902 13.3481C28.9329 13.423 29.0737 13.5011 29.2128 13.5826C29.3026 13.6343 29.3917 13.6878 29.4803 13.7431C31.0556 14.7177 32.3629 16.0701 33.2837 17.6775C32.1247 16.8617 30.0429 16.0558 28.0395 16.4044C35.8621 20.3148 33.7616 33.7809 22.9228 33.2727C21.9576 33.2333 21.0037 33.0493 20.093 32.7271C19.8773 32.646 19.6651 32.5586 19.4547 32.4659C19.3316 32.4097 19.2086 32.3526 19.0873 32.2876C16.4269 30.9199 14.2337 28.3272 13.96 25.1773C13.96 25.1773 14.963 21.4372 21.1477 21.4372C21.8164 21.4372 23.727 19.5721 23.7627 19.03C23.7547 18.8517 19.97 17.3476 18.4945 15.8935C17.7054 15.117 17.331 14.7425 16.9993 14.4617C16.82 14.3093 16.6322 14.1674 16.4367 14.0364C15.9408 12.3017 15.9195 10.4657 16.3752 8.72C14.141 9.73727 12.4033 11.3456 11.1408 12.765H11.1301C10.268 11.6729 10.3277 8.07094 10.3786 7.31935C10.3679 7.2721 9.73485 7.64745 9.65194 7.70362C8.89133 8.24718 8.18008 8.85669 7.52645 9.52508C6.78331 10.2795 6.10427 11.0946 5.49637 11.9617C4.09782 13.9435 3.10601 16.1829 2.57828 18.5504C2.57293 18.5744 2.37055 19.4606 2.22166 20.5546C2.19669 20.7252 2.17351 20.8958 2.15212 21.0664C2.1013 21.3953 2.06296 21.7537 2.02373 22.3145C2.02373 22.3359 2.02373 22.3573 2.01927 22.3787C2.00322 22.6203 1.98896 22.8611 1.97559 23.1027C1.97559 23.1392 1.97559 23.1758 1.97559 23.2132C1.97559 35.2226 11.7123 44.9576 23.7226 44.9576C34.4784 44.9576 43.41 37.1492 45.1584 26.8927C45.195 26.6145 45.2244 26.3346 45.2574 26.0538C45.6898 22.3243 45.2092 18.405 43.8469 15.1277V15.125Z" fill="black"/>
</g>
<defs>
<clipPath id="clip0_201_6919">
<rect width="45.648" height="45.648" fill="white" transform="translate(0.869385 0.0718994)"/>
</clipPath>
</defs>
</svg>
