<svg width="45" height="46" viewBox="0 0 45 46" fill="none" xmlns="http://www.w3.org/2000/svg">
<g clip-path="url(#clip0_201_6915)">
<path d="M22.1107 0.785095C9.89902 0.785095 0 10.6841 0 22.8958C0 35.1076 9.89902 45.0066 22.1107 45.0066C34.3225 45.0066 44.2215 35.1076 44.2215 22.8958C44.2215 10.6841 34.3225 0.785095 22.1107 0.785095ZM22.1107 44.3121C10.2833 44.3121 0.694527 34.7233 0.694527 22.8958C0.694527 11.0684 10.2833 1.47962 22.1107 1.47962C33.9382 1.47962 43.527 11.0684 43.527 22.8958C43.527 34.7233 33.9382 44.3121 22.1107 44.3121ZM22.1107 3.30732C11.2925 3.30732 2.52223 12.0776 2.52223 22.8958C2.52223 33.7141 11.2925 42.4844 22.1107 42.4844C32.929 42.4844 41.6993 33.7141 41.6993 22.8958C41.6993 12.0776 32.929 3.30732 22.1107 3.30732ZM22.1107 41.7533C11.6964 41.7533 3.25331 33.3111 3.25331 22.8958C3.25331 12.4806 11.6964 4.03841 22.1107 4.03841C32.5251 4.03841 40.9682 12.4815 40.9682 22.8958C40.9682 33.3102 32.5251 41.7533 22.1107 41.7533ZM38.7143 27.2226C38.3188 28.7453 37.7149 30.2061 36.9196 31.5636L30.3104 28.3647L35.7918 33.2522C34.8429 34.5064 33.7271 35.625 32.4752 36.5769L27.5894 31.0875L30.7883 37.7091C29.4334 38.5078 27.9743 39.1147 26.4527 39.5128L24.0196 32.5167L24.4466 39.9104C23.679 40.0156 22.8953 40.0709 22.0992 40.0709C21.303 40.0709 20.5193 40.0156 19.7517 39.9104L20.1761 32.5586L17.7555 39.5154C16.2335 39.118 14.7739 38.5119 13.418 37.7145L16.6214 31.0866L11.7294 36.5822C10.4772 35.6305 9.36073 34.5122 8.411 33.2585L13.9021 28.3638L7.28139 31.5672C6.48583 30.2097 5.88159 28.7489 5.48578 27.2262L12.4257 24.8091L5.09439 25.2335C4.99097 24.4694 4.93569 23.6893 4.93569 22.8967C4.93569 22.0943 4.99186 21.3062 5.09795 20.5332L12.4426 20.9585L5.49381 18.537C5.89239 17.0144 6.49933 15.5542 7.29744 14.1978L13.9146 17.4002L8.42972 12.5091C9.38148 11.2569 10.4997 10.1405 11.7535 9.19074L16.6357 14.6765L13.4412 8.06381C14.7975 7.26871 16.2571 6.66477 17.7786 6.26909L20.1743 13.1564L19.7543 5.88037C20.522 5.77517 21.3048 5.71989 22.1009 5.71989C22.8971 5.71989 23.6799 5.77517 24.4475 5.88037L24.0249 13.2054L26.4366 6.27266C27.9763 6.67386 29.4323 7.28458 30.7723 8.07094L27.5787 14.6792L32.4573 9.19877C33.7104 10.1484 34.8275 11.2652 35.7775 12.5181L30.2989 17.4011L36.9071 14.204C37.7043 15.56 38.3104 17.0196 38.7081 18.5414L31.7708 20.9576L39.103 20.5341C39.2091 21.3062 39.2653 22.0943 39.2653 22.8958C39.2653 23.6875 39.2109 24.4677 39.1066 25.2308L31.7851 24.8073L38.7143 27.2226Z" fill="black"/>
</g>
<defs>
<clipPath id="clip0_201_6915">
<rect width="44.2215" height="45.648" fill="white" transform="translate(0 0.0718994)"/>
</clipPath>
</defs>
</svg>
