<svg width="40" height="47" viewBox="0 0 40 47" fill="none" xmlns="http://www.w3.org/2000/svg">
<g clip-path="url(#clip0_201_6913)">
<path d="M1.16382 20.8585C1.17274 20.8496 1.18166 20.8318 1.19057 20.8229C1.19057 20.8318 1.19057 20.8496 1.18166 20.8585H1.16382ZM19.9847 9.03641C19.3517 9.03641 18.683 9.0899 18.0768 9.18798L18.4066 15.1971L16.4452 9.49111C15.1703 9.82099 13.9756 10.3292 12.879 10.9711L15.5001 16.4453L11.4792 11.9072C10.4628 12.7007 9.54451 13.6101 8.75102 14.6622L13.2623 18.7099L7.81488 16.0619C7.18187 17.1585 6.66476 18.3532 6.33489 19.6282L12.0676 21.6431L6.00501 21.2865C5.92477 21.9195 5.88019 22.5882 5.88019 23.2479C5.88019 23.9077 5.93368 24.5496 6.00501 25.1826L12.0409 24.826L6.33489 26.8409C6.66476 28.1158 7.17296 29.3105 7.81488 30.4339L13.2623 27.786L8.72427 31.8069C9.51776 32.85 10.4272 33.7951 11.4792 34.5618L15.4823 30.0238L12.8522 35.498C13.9488 36.1577 15.1435 36.6659 16.4185 37.0047L18.4066 31.2452L18.05 37.3078C18.683 37.4059 19.3517 37.4594 19.9847 37.4594C20.6445 37.4594 21.2864 37.4059 21.9194 37.3078L21.5628 31.1917L23.5777 36.9958C24.8526 36.6392 26.0473 36.1577 27.1439 35.4891L24.5228 30.0238L28.5259 34.5618C29.569 33.7683 30.4873 32.859 31.2541 31.8069L26.7427 27.786L32.1902 30.4072C32.8232 29.3105 33.3403 28.1158 33.6702 26.8142L27.9642 24.826L33.9733 25.1826C34.0714 24.5496 34.0981 23.9077 34.0981 23.2479C34.0981 22.5882 34.0714 21.9195 33.9733 21.2865L27.9374 21.6431L33.6434 19.6549C33.3136 18.38 32.8321 17.1585 32.1634 16.0619L26.7338 18.7099L31.2451 14.6622C30.4516 13.619 29.5423 12.7007 28.517 11.9072L24.496 16.4453L27.1172 10.9978C26.0206 10.3381 24.8259 9.8299 23.551 9.49111L21.5628 15.2239L21.9194 9.18798C21.2864 9.08099 20.6445 9.03641 19.9847 9.03641ZM39.5456 11.8359V34.6599L19.9847 46.0719L0.423828 34.6599V11.8359L19.9847 0.42392L39.5456 11.8359ZM38.021 12.7542L19.9847 2.28728L1.9484 12.7542V33.7149L19.9847 44.2085L38.021 33.7149V12.7542ZM19.9847 3.73162L36.7193 13.4853V33.0016L19.9847 42.7642L3.25008 33.0016V13.4942L19.9847 3.73162ZM19.9847 8.26967C11.7556 8.26967 5.10453 14.9653 5.10453 23.2479C5.10453 31.5038 11.7556 38.1994 19.9847 38.1994C28.1871 38.1994 34.8649 31.5038 34.8649 23.2479C34.8649 14.9653 28.1871 8.26967 19.9847 8.26967Z" fill="black"/>
</g>
<defs>
<clipPath id="clip0_201_6913">
<rect width="39.942" height="45.648" fill="white" transform="translate(0.0146484 0.42395)"/>
</clipPath>
</defs>
</svg>
