<svg width="41" height="47" viewBox="0 0 41 47" fill="none" xmlns="http://www.w3.org/2000/svg">
<g clip-path="url(#clip0_201_6909)">
<path d="M36.4989 3.27692H5.11592C2.75328 3.27692 0.836426 5.19378 0.836426 7.55642V38.9394C0.836426 41.3021 2.75328 43.2189 5.11592 43.2189H36.4989C38.8616 43.2189 40.7784 41.3021 40.7784 38.9394V7.55642C40.7784 5.19378 38.8616 3.27692 36.4989 3.27692ZM13.7195 28.8648C10.5901 28.8648 8.05808 26.3327 8.05808 23.2033C8.05808 20.074 10.5901 17.5419 13.7195 17.5419C16.8489 17.5419 19.3809 20.074 19.3809 23.2033C19.3809 26.3327 16.8489 28.8648 13.7195 28.8648ZM27.8953 28.8648C24.766 28.8648 22.2339 26.3327 22.2339 23.2033C22.2339 20.074 24.766 17.5419 27.8953 17.5419C31.0247 17.5419 33.5568 20.074 33.5568 23.2033C33.5568 26.3327 31.0247 28.8648 27.8953 28.8648Z" fill="black"/>
</g>
<defs>
<clipPath id="clip0_201_6909">
<rect width="39.942" height="45.648" fill="white" transform="translate(0.83667 0.42395)"/>
</clipPath>
</defs>
</svg>
