<svg width="35" height="47" viewBox="0 0 35 47" fill="none" xmlns="http://www.w3.org/2000/svg">
<g clip-path="url(#clip0_201_6905)">
<path d="M18.2945 38.565C19.4446 39.6081 21.2991 41.5339 21.2545 43.0852C21.2545 43.1565 21.2456 43.2278 21.2456 43.3081C21.0851 45.0734 19.5695 46.0808 17.7596 46.0719C15.5307 46.063 14.2023 44.5741 14.3092 42.8801C14.3984 41.4358 16.1369 39.6081 17.1979 38.6363C17.403 38.4491 17.4386 38.3956 17.6972 38.3153C18.0003 38.3153 18.0449 38.3421 18.2945 38.565ZM30.2504 6.42415C28.7971 4.13283 26.8089 2.8044 24.6068 1.77911C22.3333 0.825134 19.7389 0.406099 17.7774 0.423931C13.8456 0.423931 11.4295 1.60079 10.5468 1.96633C5.76807 4.45379 3.02206 8.19836 3.15579 14.5641C3.7888 21.8928 11.8039 30.2556 17.0463 35.4088C17.1979 35.5515 17.4475 35.81 17.5991 35.8635L17.8933 35.8725C18.0805 35.81 18.0538 35.8279 18.2054 35.6852C22.8682 31.2987 30.7496 22.6862 32.1048 16.4542C32.7289 12.9593 32.3812 9.9904 30.2504 6.42415ZM17.3138 31.798C14.8174 27.2421 11.5008 20.1453 11.1353 14.9475C10.8321 10.7126 12.1517 3.25018 17.3138 2.75982V31.798ZM29.9651 16.4721C28.5029 21.5361 23.0733 27.8841 19.3644 31.6554C21.8429 27.0282 25.1774 19.7708 25.3557 14.5463C25.4983 10.454 24.482 5.11355 21.0762 2.83115C28.9933 4.46271 31.3737 11.5774 29.9651 16.4721Z" fill="black"/>
</g>
<defs>
<clipPath id="clip0_201_6905">
<rect width="34.236" height="45.648" fill="white" transform="translate(0.658691 0.42395)"/>
</clipPath>
</defs>
</svg>
