<svg width="41" height="47" viewBox="0 0 41 47" fill="none" xmlns="http://www.w3.org/2000/svg">
<g clip-path="url(#clip0_201_6903)">
<path d="M36.3793 3.27692H4.9963C3.8613 3.27692 2.77279 3.72779 1.97023 4.53035C1.16767 5.33291 0.716797 6.42142 0.716797 7.55642L0.716797 38.9394C0.716797 40.0744 1.16767 41.1629 1.97023 41.9655C2.77279 42.768 3.8613 43.2189 4.9963 43.2189H36.3793C37.5143 43.2189 38.6028 42.768 39.4054 41.9655C40.2079 41.1629 40.6588 40.0744 40.6588 38.9394V7.55642C40.6588 6.42142 40.2079 5.33291 39.4054 4.53035C38.6028 3.72779 37.5143 3.27692 36.3793 3.27692ZM37.8058 38.9394C37.8058 39.3177 37.6555 39.6806 37.388 39.9481C37.1205 40.2156 36.7576 40.3659 36.3793 40.3659H4.9963C4.61796 40.3659 4.25513 40.2156 3.98761 39.9481C3.72009 39.6806 3.5698 39.3177 3.5698 38.9394V7.55642C3.5698 7.17808 3.72009 6.81525 3.98761 6.54773C4.25513 6.28021 4.61796 6.12992 4.9963 6.12992H36.3793C36.7576 6.12992 37.1205 6.28021 37.388 6.54773C37.6555 6.81525 37.8058 7.17808 37.8058 7.55642V38.9394ZM18.6907 13.9757C16.4261 13.9757 15.3563 14.9029 13.5553 15.2595V14.6889C13.5553 14.3106 13.405 13.9477 13.1375 13.6802C12.87 13.4127 12.5071 13.2624 12.1288 13.2624C11.7505 13.2624 11.3876 13.4127 11.1201 13.6802C10.8526 13.9477 10.7023 14.3106 10.7023 14.6889V31.8069C10.7023 32.1852 10.8526 32.5481 11.1201 32.8156C11.3876 33.0831 11.7505 33.2334 12.1288 33.2334C12.5071 33.2334 12.87 33.0831 13.1375 32.8156C13.405 32.5481 13.5553 32.1852 13.5553 31.8069V18.1125C15.3563 17.7559 16.4261 16.8287 18.6907 16.8287C21.4902 16.8287 22.5422 18.2552 25.3417 18.2552C26.2511 18.2552 26.9287 18.1303 27.8203 17.845V26.404C26.9287 26.6893 26.2511 26.8142 25.3417 26.8142C22.5422 26.8142 21.4724 25.3877 18.6907 25.3877C17.9162 25.3905 17.1467 25.5107 16.4083 25.7443V28.5973C17.1447 28.3552 17.9156 28.2347 18.6907 28.2407C21.4902 28.2407 22.5422 29.6672 25.3417 29.6672C27.0001 29.6672 27.856 29.2392 30.6733 28.2407V13.9757C27.856 14.9742 27.0001 15.4022 25.3417 15.4022C22.5422 15.4022 21.4724 13.9757 18.6907 13.9757Z" fill="black"/>
</g>
<defs>
<clipPath id="clip0_201_6903">
<rect width="39.942" height="45.648" fill="white" transform="translate(0.716797 0.42395)"/>
</clipPath>
</defs>
</svg>
