<svg width="41" height="47" viewBox="0 0 41 47" fill="none" xmlns="http://www.w3.org/2000/svg">
<g clip-path="url(#clip0_201_6901)">
<path d="M40.7159 4.70342V34.6599C35.0991 36.7105 33.4051 37.5129 30.1063 37.5129C24.4895 37.5129 22.3497 34.6599 16.7329 34.6599C14.9498 34.6599 13.5233 35.0165 12.1859 35.3732V29.6672C13.5233 29.3105 14.9498 28.9539 16.7329 28.9539C22.3497 28.9539 24.4895 31.8069 30.1063 31.8069C31.8894 31.8069 33.2268 31.5394 35.0099 31.0045V12.46C33.2268 12.9949 31.8894 13.2624 30.1063 13.2624C24.4895 13.2624 22.3497 10.4094 16.7329 10.4094C12.1859 10.4094 10.0462 12.2817 6.47991 12.9949V40.3659C6.4847 40.7419 6.41418 41.115 6.2725 41.4633C6.13082 41.8116 5.92085 42.1281 5.65496 42.394C5.38907 42.6598 5.07265 42.8698 4.72435 43.0115C4.37604 43.1532 4.0029 43.2237 3.62691 43.2189C3.25092 43.2237 2.87778 43.1532 2.52947 43.0115C2.18117 42.8698 1.86475 42.6598 1.59886 42.394C1.33297 42.1281 1.123 41.8116 0.981324 41.4633C0.839643 41.115 0.76912 40.7419 0.77391 40.3659V6.12992C0.76912 5.75393 0.839643 5.38078 0.981324 5.03248C1.123 4.68417 1.33297 4.36775 1.59886 4.10187C1.86475 3.83598 2.18117 3.62601 2.52947 3.48433C2.87778 3.34265 3.25092 3.27213 3.62691 3.27692C4.0029 3.27213 4.37604 3.34265 4.72435 3.48433C5.07265 3.62601 5.38907 3.83598 5.65496 4.10187C5.92085 4.36775 6.13082 4.68417 6.2725 5.03248C6.41418 5.38078 6.4847 5.75393 6.47991 6.12992V7.28895C10.0462 6.5757 12.1859 4.70342 16.7329 4.70342C22.3497 4.70342 24.4895 7.55642 30.1063 7.55642C33.4051 7.55642 35.0991 6.75401 40.7159 4.70342Z" fill="black"/>
</g>
<defs>
<clipPath id="clip0_201_6901">
<rect width="39.942" height="45.648" fill="white" transform="translate(0.774658 0.42395)"/>
</clipPath>
</defs>
</svg>
