<svg width="35" height="47" viewBox="0 0 35 47" fill="none" xmlns="http://www.w3.org/2000/svg">
<g clip-path="url(#clip0_201_6895)">
<path d="M10.8845 20.3949H19.1226L17.7674 24.9597H10.9559V39.0286C10.9559 39.7418 10.7062 39.8488 11.3481 39.9201L16.6619 40.4194V43.4864H0.685059V40.3481L3.28842 40.0984C3.93035 40.0271 4.10866 39.8131 4.10866 39.1356V25.245C4.10866 24.9597 3.75203 24.9597 3.39541 24.9597H0.685059V20.3949H4.10866V17.8272C4.10866 11.7646 7.35394 9.26822 13.5592 9.26822C17.7317 9.26822 21.4763 10.2668 21.4763 15.7231L15.271 16.472C15.3067 14.1896 14.7361 13.6547 13.2739 13.6547C11.0272 13.6547 10.9559 14.8672 10.9559 17.007V19.86C10.9559 20.1453 10.5279 20.3949 10.8845 20.3949ZM34.9211 43.4864H22.3679V40.4194L24.8642 40.0984C25.5062 40.0271 25.7915 39.8845 25.7915 39.2069V26.0118C25.7915 25.5125 25.4348 25.1915 24.9712 25.0489L22.0112 24.2643L22.8315 20.6624H32.6387V39.2069C32.6387 39.9201 32.3177 39.9915 32.9953 40.0984L34.9211 40.4194V43.4864ZM32.2464 12.5313L33.3519 16.5969L32.4603 17.4884L28.6445 15.4557L24.8286 17.4884L23.937 16.5969L25.0425 12.5313L22.3679 9.28605L22.7958 8.39449H26.1837L28.0739 4.97089H29.2151L31.1052 8.39449H34.4931L34.9211 9.57135L32.2464 12.5313Z" fill="black"/>
</g>
<defs>
<clipPath id="clip0_201_6895">
<rect width="34.236" height="45.648" fill="white" transform="translate(0.685059 0.42395)"/>
</clipPath>
</defs>
</svg>
