<svg width="41" height="47" viewBox="0 0 41 47" fill="none" xmlns="http://www.w3.org/2000/svg">
<g clip-path="url(#clip0_201_6897)">
<path d="M36.5834 3.27692H5.2004C4.0654 3.27692 2.9769 3.72779 2.17433 4.53035C1.37177 5.33291 0.920898 6.42142 0.920898 7.55642L0.920898 38.9394C0.920898 40.0744 1.37177 41.1629 2.17433 41.9655C2.9769 42.768 4.0654 43.2189 5.2004 43.2189H36.5834C37.7184 43.2189 38.8069 42.768 39.6095 41.9655C40.412 41.1629 40.8629 40.0744 40.8629 38.9394V7.55642C40.8629 6.42142 40.412 5.33291 39.6095 4.53035C38.8069 3.72779 37.7184 3.27692 36.5834 3.27692ZM30.8774 28.2407C28.0601 29.2392 27.2042 29.6672 25.5459 29.6672C22.7463 29.6672 21.6943 28.2407 18.8948 28.2407C18.1197 28.2347 17.3488 28.3552 16.6124 28.5973V25.7443C17.3508 25.5107 18.1203 25.3905 18.8948 25.3877C21.6765 25.3877 22.7463 26.8142 25.5459 26.8142C26.4552 26.8142 27.1328 26.6893 28.0244 26.404V17.845C27.1328 18.1303 26.4552 18.2552 25.5459 18.2552C22.7463 18.2552 21.6943 16.8287 18.8948 16.8287C16.6302 16.8287 15.5604 17.7559 13.7594 18.1125V31.8069C13.7594 32.1852 13.6091 32.5481 13.3416 32.8156C13.0741 33.0831 12.7112 33.2334 12.3329 33.2334C11.9546 33.2334 11.5917 33.0831 11.3242 32.8156C11.0567 32.5481 10.9064 32.1852 10.9064 31.8069V14.6889C10.9064 14.3106 11.0567 13.9477 11.3242 13.6802C11.5917 13.4127 11.9546 13.2624 12.3329 13.2624C12.7112 13.2624 13.0741 13.4127 13.3416 13.6802C13.6091 13.9477 13.7594 14.3106 13.7594 14.6889V15.2595C15.5604 14.9029 16.6302 13.9757 18.8948 13.9757C21.6765 13.9757 22.7463 15.4022 25.5459 15.4022C27.2042 15.4022 28.0601 14.9742 30.8774 13.9757V28.2407Z" fill="black"/>
</g>
<defs>
<clipPath id="clip0_201_6897">
<rect width="39.942" height="45.648" fill="white" transform="translate(0.920898 0.42395)"/>
</clipPath>
</defs>
</svg>
