<svg width="357" height="47" viewBox="0 0 357 47" fill="none" xmlns="http://www.w3.org/2000/svg">
<g clip-path="url(#clip0_201_6899)">
<path d="M108.716 14.3769C103.562 14.3769 99.6216 18.2908 99.6216 23.2123C99.6216 28.205 103.598 32.0476 108.716 32.0476C113.833 32.0476 117.81 28.205 117.81 23.2123C117.81 18.2908 113.869 14.3769 108.716 14.3769ZM108.716 27.991C105.586 27.991 104.097 25.5482 104.097 23.2479C104.097 20.9477 105.586 18.5048 108.716 18.5048C111.845 18.5048 113.334 20.9834 113.334 23.2479C113.298 25.5482 111.845 27.991 108.716 27.991ZM194.493 15.8569C194.101 14.8851 193.396 14.3858 192.398 14.3858C191.399 14.3858 190.695 14.8851 190.302 15.8569L185.007 28.8558C184.365 30.4339 185.256 31.2987 185.399 31.4414C185.818 31.8418 186.379 32.0598 186.959 32.0476C187.922 32.0476 188.626 31.5127 189.019 30.4339L189.375 29.5334H195.411L195.768 30.4339C196.196 31.5127 196.864 32.0476 197.827 32.0476C198.407 32.0598 198.968 31.8418 199.387 31.4414C200.279 30.5409 199.994 29.4264 199.78 28.8558L194.493 15.8569ZM190.659 25.985L192.362 20.9923L194.065 25.985H190.659ZM139.439 14.3858C138.164 14.3858 137.237 15.3576 137.237 16.6504V23.4708L131.129 15.8212C130.737 15.3219 130.095 14.3858 128.856 14.3858C127.153 14.3858 126.689 15.9639 126.689 16.6504V29.8187C126.689 31.0758 127.617 32.0833 128.892 32.0833C130.167 32.0833 131.094 31.1115 131.094 29.8187V22.9626L137.237 30.6479C137.665 31.1472 138.271 32.0833 139.51 32.0833C141.213 32.0833 141.641 30.5409 141.641 29.8187V16.6414C141.641 15.3487 140.714 14.3769 139.439 14.3769V14.3858ZM90.0373 14.5284H82.575C80.8008 14.5284 80.3372 16.0708 80.3372 16.793V29.6761C80.3372 31.4325 81.8261 31.9407 82.5393 31.9407C83.2526 31.9407 84.7415 31.477 84.7415 29.6761V25.8335H88.7178C89.859 25.8335 90.7417 25.0043 90.7417 23.8185C90.7417 22.2405 89.3598 21.8482 88.7178 21.8482H84.7415V18.5761H90.0373C91.1785 18.5761 92.0612 17.747 92.0612 16.5612C92.0612 14.9564 90.6704 14.5195 90.0373 14.5195V14.5284ZM162.709 14.5284H151.689C151.047 14.5284 149.665 14.9207 149.665 16.5077C149.665 17.6935 150.557 18.5226 151.689 18.5226H154.988V29.6404C154.988 30.8975 155.915 31.905 157.19 31.905C158.465 31.905 159.392 30.9332 159.392 29.6404V18.5048H162.691C163.823 18.5048 164.715 17.6757 164.715 16.4899C164.724 14.9564 163.342 14.5195 162.7 14.5195L162.709 14.5284ZM322.254 14.3858C321.398 14.3858 320.693 14.9207 320.016 15.9995L315.861 22.7843L311.698 15.9906C311.056 14.9148 310.31 14.3769 309.46 14.3769C307.721 14.3769 307.258 15.9906 307.258 16.6771V29.8187C307.258 31.0758 308.185 32.0833 309.46 32.0833C310.735 32.0833 311.662 31.1115 311.662 29.8187V23.8542L313.864 27.4115C314.435 28.312 315.103 28.7756 315.852 28.7756C316.637 28.7756 317.27 28.312 317.84 27.4115L320.043 23.8542V29.8187C320.043 31.0758 320.961 32.0833 322.245 32.0833C323.52 32.0833 324.447 31.1115 324.447 29.8187V16.6771C324.447 15.9549 324.019 14.3769 322.245 14.3769L322.254 14.3858ZM344.418 27.7414H338.56V24.7547H342.073C343.134 24.7547 343.954 23.9612 343.954 22.8913C343.954 21.8125 343.134 21.0279 342.073 21.0279H338.56V18.6831H344.097C345.238 18.6831 346.121 17.854 346.121 16.6682C346.121 15.0901 344.73 14.6889 344.097 14.6889H336.394C334.62 14.6889 334.156 16.2313 334.156 16.9535V29.5334C334.156 30.2556 334.62 31.798 336.394 31.798H344.418C345.559 31.798 346.442 30.9689 346.442 29.7831C346.433 28.1693 345.051 27.7325 344.409 27.7325L344.418 27.7414ZM289.284 14.3769C284.13 14.3769 280.19 18.2908 280.19 23.2123C280.19 28.205 284.166 32.0476 289.284 32.0476C294.401 32.0476 298.378 28.205 298.378 23.2123C298.378 18.2908 294.437 14.3769 289.284 14.3769ZM289.284 27.991C286.154 27.991 284.665 25.5482 284.665 23.2479C284.665 20.9477 286.154 18.5048 289.284 18.5048C292.413 18.5048 293.902 20.9834 293.902 23.2479C293.902 25.5482 292.413 27.991 289.284 27.991ZM228.23 14.3769C227.231 14.3769 226.527 14.8762 226.17 15.848L223.112 24.2911L220.304 16.0708C219.911 14.9564 219.207 14.3858 218.137 14.3858C217.076 14.3858 216.363 14.9564 215.971 16.0708L213.162 24.2911L210.104 15.7766C209.783 14.8435 209.108 14.3769 208.08 14.3769C207.474 14.3769 206.984 14.5909 206.52 15.0277C206.056 15.4913 205.557 16.3205 206.092 17.5776L211.067 30.5766C211.424 31.584 212.101 32.0833 213.126 32.0833C214.119 32.0833 214.794 31.5811 215.15 30.5766L218.137 22.392L221.124 30.5766C221.48 31.5811 222.155 32.0833 223.148 32.0833C224.146 32.0833 224.85 31.584 225.207 30.5766L230.182 17.5776C230.503 16.7484 230.574 15.8569 229.754 15.0277C229.559 14.8191 229.323 14.6534 229.06 14.5414C228.798 14.4293 228.515 14.3733 228.23 14.3769ZM267.833 21.5985L265.88 20.7694C264.819 20.3414 264.427 20.0116 264.427 19.3696C264.427 18.6504 264.923 18.2908 265.916 18.2908C267.048 18.2908 267.654 18.9773 268.082 19.2626C268.724 19.7262 269.714 19.8689 270.57 19.0843C271.533 18.1482 271.176 16.9624 270.677 16.3561C269.58 15.0277 267.975 14.3769 265.88 14.3769C264.177 14.3769 262.751 14.8405 261.654 15.7766C260.558 16.7128 259.987 17.9342 259.987 19.441C259.987 21.5985 261.405 23.3192 264.249 24.5763L265.987 25.3698C267.405 25.9761 267.69 26.2347 267.69 26.9479C267.69 27.7771 267.119 28.205 265.952 28.205C264.249 28.205 262.858 26.8766 262.715 26.7696C261.752 26.1188 260.798 26.5913 260.37 27.0192C259.764 27.5898 259.238 28.8826 260.656 30.2467C261.262 30.8173 262.038 31.2898 263.036 31.6108C263.971 31.9476 264.958 32.1167 265.952 32.1101C267.726 32.1101 269.224 31.6464 270.392 30.6746C271.559 29.7028 272.13 28.4101 272.13 26.7963C272.13 25.5779 271.773 24.5734 271.06 23.7829C270.356 22.9983 269.286 22.2048 267.833 21.5985ZM249.431 27.7414H243.573V24.7547H247.086C248.156 24.7547 248.967 23.9612 248.967 22.8913C248.967 21.8125 248.147 21.0279 247.086 21.0279H243.573V18.6831H249.11C250.251 18.6831 251.134 17.854 251.134 16.6682C251.134 15.0901 249.752 14.6889 249.11 14.6889H241.407C239.633 14.6889 239.169 16.2313 239.169 16.9535V29.5334C239.169 30.2556 239.633 31.798 241.407 31.798H249.431C250.563 31.798 251.455 30.9689 251.455 29.7831C251.464 28.1693 250.073 27.7325 249.431 27.7325V27.7414ZM16.7598 4.8015C12.2574 4.8015 10.1266 6.64703 6.54253 7.36028V6.21908C6.54253 5.46597 6.24336 4.7437 5.71083 4.21116C5.17829 3.67863 4.45602 3.37946 3.70291 3.37946C2.94979 3.37946 2.22752 3.67863 1.69499 4.21116C1.16246 4.7437 0.863281 5.46597 0.863281 6.21908L0.863281 40.2768C0.863281 41.0299 1.16246 41.7522 1.69499 42.2847C2.22752 42.8172 2.94979 43.1164 3.70291 43.1164C4.45602 43.1164 5.17829 42.8172 5.71083 42.2847C6.24336 41.7522 6.54253 41.0299 6.54253 40.2768V13.0306C10.1266 12.3174 12.2574 10.4718 16.7598 10.4718C22.3321 10.4718 24.4273 13.307 29.9906 13.307C31.8005 13.307 33.1468 13.0574 34.921 12.4868V29.5156C33.1468 30.0862 31.8005 30.3358 29.9906 30.3358C24.4184 30.3358 22.2875 27.5007 16.7598 27.5007C14.95 27.5007 13.5324 27.8216 12.2218 28.2139V33.8932C13.6857 33.4104 15.2184 33.1695 16.7598 33.1799C22.3321 33.1799 24.4273 36.0151 29.9906 36.0151C33.2894 36.0151 34.9923 35.1592 40.6002 33.1799V4.8015C34.9923 6.78968 33.2894 7.63667 29.9906 7.63667C24.4184 7.63667 22.2964 4.8015 16.7598 4.8015Z" fill="black"/>
</g>
<defs>
<clipPath id="clip0_201_6899">
<rect width="355.912" height="45.648" fill="white" transform="translate(0.863037 0.42395)"/>
</clipPath>
</defs>
</svg>
