<svg width="46" height="47" viewBox="0 0 46 47" fill="none" xmlns="http://www.w3.org/2000/svg">
<g clip-path="url(#clip0_201_6891)">
<path d="M18.6387 21.5896H16.6595C16.4722 21.5896 16.3296 21.7322 16.3296 21.9195V26.5288C16.3296 26.7161 16.4722 26.8587 16.6595 26.8587H18.6387C18.826 26.8587 18.9686 26.7161 18.9686 26.5288V21.9195C18.9686 21.7322 18.826 21.5896 18.6387 21.5896ZM29.177 21.5896H27.1977C27.0105 21.5896 26.8679 21.7322 26.8679 21.9195V26.5288C26.8679 26.7161 27.0105 26.8587 27.1977 26.8587H29.177C29.3642 26.8587 29.5069 26.7161 29.5069 26.5288V21.9195C29.498 21.7322 29.3553 21.5896 29.177 21.5896ZM40.9456 10.4361C40.7406 10.1508 40.5355 9.86554 40.3126 9.58916C39.4389 8.4747 38.4582 7.44941 37.3883 6.52218C36.9871 6.17447 36.577 5.84459 36.149 5.52363C36.0064 5.41665 35.8637 5.31857 35.7211 5.21159C33.2604 3.46412 30.4341 2.20702 27.376 1.58293C25.9317 1.28871 24.4428 1.13715 22.9182 1.13715C21.3937 1.13715 19.8958 1.28871 18.4604 1.58293C15.4024 2.21594 12.5761 3.47304 10.1421 5.2205C9.99949 5.31857 9.85684 5.42556 9.71419 5.53255C9.28624 5.85351 8.87612 6.18339 8.47492 6.5311C8.20745 6.7629 7.9489 7.00363 7.69034 7.24435C7.43179 7.48507 7.18215 7.73471 6.94143 7.99326C6.45107 8.50145 5.98746 9.0453 5.55059 9.59807C5.33662 9.87446 5.12264 10.1598 4.91758 10.4451C2.34097 14.0648 0.834229 18.478 0.834229 23.2479C0.834229 23.4262 0.843144 23.6045 0.843144 23.7828C0.85206 23.8452 0.85206 23.8987 0.85206 23.9611C0.860975 24.077 0.860975 24.2019 0.869891 24.3178C0.869891 24.3891 0.878807 24.4515 0.878807 24.5228C0.878807 24.6387 0.887722 24.7457 0.896638 24.8527C0.905553 24.924 0.905553 24.9954 0.914469 25.0667C0.923385 25.1647 0.9323 25.2717 0.941216 25.3787C0.941216 25.45 0.950132 25.5214 0.959047 25.5927C0.967963 25.6997 0.985794 25.8067 0.99471 25.9137C1.00363 25.985 1.01254 26.0474 1.02146 26.1187C1.03037 26.2346 1.0482 26.3505 1.06603 26.4664C1.07495 26.5199 1.08387 26.5823 1.09278 26.6358L1.17302 27.144C1.18194 27.1975 1.19085 27.2421 1.19977 27.2956C1.22652 27.4115 1.24435 27.5363 1.27109 27.6522C1.28893 27.7235 1.29784 27.7949 1.31567 27.8662C1.3335 27.9553 1.36025 28.0534 1.37808 28.1515C1.39591 28.2317 1.41374 28.303 1.43158 28.3833C1.44941 28.4724 1.46724 28.5616 1.49398 28.6508C1.51182 28.731 1.53856 28.8112 1.55639 28.8915C1.58314 28.9806 1.60097 29.0609 1.62772 29.15C1.65447 29.2303 1.6723 29.3105 1.69904 29.3908C1.71688 29.471 1.74362 29.5602 1.77037 29.6404C1.79712 29.7206 1.81495 29.8009 1.84169 29.8811C1.86844 29.9703 1.89519 30.0505 1.92193 30.1308C1.97543 30.2734 2.02001 30.425 2.0735 30.5676C2.10916 30.6568 2.13591 30.737 2.16266 30.8173C2.1894 30.9064 2.22507 30.9956 2.26073 31.0847C2.28748 31.156 2.31422 31.2185 2.34097 31.2898L2.44796 31.5573C2.4747 31.6197 2.50145 31.691 2.5282 31.7534C2.56386 31.8426 2.60844 31.9317 2.6441 32.0209L2.72434 32.2081C2.76892 32.2972 2.80458 32.3864 2.84916 32.4756C2.87591 32.538 2.90265 32.5915 2.9294 32.6539C2.97398 32.743 3.01856 32.8411 3.06313 32.9303C3.08097 32.9837 3.10771 33.0283 3.13446 33.0818C3.18795 33.1799 3.23253 33.278 3.28603 33.376C3.29494 33.3939 3.30386 33.4028 3.31277 33.4206C3.50892 33.7862 3.70506 34.1517 3.91903 34.5083C3.93687 34.544 3.96361 34.5796 3.98144 34.6153C4.04385 34.7134 4.09735 34.8115 4.15976 34.9095C4.1865 34.9541 4.21325 34.9898 4.24 35.0343C4.29349 35.1324 4.3559 35.2216 4.41831 35.3196C4.44506 35.3642 4.4718 35.3999 4.49855 35.4445C4.56096 35.5425 4.62337 35.6317 4.68578 35.7298C4.70361 35.7654 4.73036 35.8011 4.7571 35.8368C4.81951 35.9348 4.89084 36.0329 4.96216 36.131C4.97999 36.1488 4.98891 36.1755 5.00674 36.1934C8.3501 40.8028 13.4231 44.0837 19.2717 45.0555C19.352 45.0644 19.4233 45.0822 19.5035 45.0912C19.5927 45.109 19.6908 45.1268 19.7799 45.1357C19.8691 45.1447 19.9493 45.1625 20.0296 45.1714C20.1187 45.1892 20.2079 45.1982 20.297 45.2071C20.3773 45.216 20.4664 45.2249 20.5556 45.2338C20.6447 45.2427 20.725 45.2516 20.8141 45.2606C20.9033 45.2695 21.0014 45.2784 21.0905 45.2873C21.1708 45.2962 21.251 45.2962 21.3312 45.3051C21.4293 45.3141 21.5363 45.3141 21.6344 45.323C21.7057 45.323 21.7859 45.3319 21.8573 45.3319C21.9732 45.3319 22.0891 45.3408 22.205 45.3408C22.2674 45.3497 22.3298 45.3497 22.3922 45.3497C22.5705 45.3586 22.7488 45.3586 22.9271 45.3586C23.1055 45.3586 23.2838 45.3497 23.4621 45.3497C23.5245 45.3497 23.5869 45.3408 23.6493 45.3408C23.7652 45.3408 23.8811 45.3408 23.997 45.3319C24.0683 45.3319 24.1486 45.323 24.2199 45.323C24.318 45.3141 24.425 45.3141 24.523 45.3051C24.6033 45.3051 24.6835 45.2962 24.7638 45.2873C24.8529 45.2784 24.951 45.2695 25.0401 45.2606C25.1293 45.2516 25.2095 45.2427 25.2987 45.2338C25.3789 45.2249 25.4681 45.216 25.5573 45.2071C25.6464 45.1982 25.7356 45.1803 25.8247 45.1714C25.9139 45.1625 25.9941 45.1447 26.0744 45.1357C26.1635 45.1179 26.2616 45.109 26.3507 45.0912C26.431 45.0822 26.5023 45.0644 26.5826 45.0555C32.4312 44.0748 37.5042 40.8028 40.8565 35.9259C40.8743 35.9081 40.8832 35.8813 40.901 35.8635C40.9724 35.7654 41.0348 35.6674 41.1061 35.5693C41.1239 35.5336 41.1507 35.498 41.1774 35.4623C41.2398 35.3642 41.3022 35.2751 41.3647 35.177C41.3914 35.1324 41.4181 35.0968 41.4449 35.0522C41.4984 34.9541 41.5608 34.8649 41.6232 34.7669C41.65 34.7223 41.6767 34.6866 41.7035 34.6421C41.7659 34.544 41.8194 34.4459 41.8818 34.3478C41.8996 34.3122 41.9263 34.2765 41.9442 34.2409C42.1581 33.8842 42.3543 33.5187 42.5504 33.1531C42.5594 33.1353 42.5683 33.1264 42.5772 33.1086C42.6307 33.0105 42.6753 32.9124 42.7287 32.8144C42.7466 32.7609 42.7733 32.7163 42.8001 32.6628C42.8447 32.5736 42.8892 32.4756 42.9338 32.3864C42.9606 32.324 42.9873 32.2705 43.014 32.2081C43.0586 32.1189 43.1032 32.0298 43.1389 31.9406L43.2191 31.7534C43.2637 31.6642 43.2993 31.5751 43.335 31.4859C43.3618 31.4235 43.3885 31.3522 43.4152 31.2898L43.5222 31.0223C43.549 30.951 43.5757 30.8886 43.6025 30.8173C43.6381 30.7281 43.6649 30.6389 43.7006 30.5498C43.7362 30.4606 43.763 30.3804 43.7897 30.3001C43.8432 30.1575 43.8967 30.0059 43.9413 29.8633C43.968 29.7741 43.9948 29.6939 44.0215 29.6136C44.0483 29.5334 44.0661 29.4532 44.0928 29.3729C44.1107 29.2927 44.1374 29.2035 44.1642 29.1233C44.1909 29.043 44.2177 28.9628 44.2355 28.8826C44.2622 28.7934 44.2801 28.7132 44.3068 28.624C44.3246 28.5438 44.3514 28.4635 44.3692 28.3833C44.3871 28.2941 44.4138 28.205 44.4316 28.1158C44.4495 28.0356 44.4673 27.9643 44.4851 27.884C44.503 27.7949 44.5297 27.6968 44.5475 27.5987C44.5654 27.5274 44.5743 27.4561 44.5921 27.3847C44.6189 27.2688 44.6456 27.144 44.6634 27.0281C44.6724 26.9746 44.6813 26.93 44.6902 26.8765L44.7704 26.3684C44.7793 26.3149 44.7883 26.2525 44.7972 26.199C44.8061 26.0831 44.8239 25.9672 44.8418 25.8513C44.8507 25.7799 44.8596 25.7175 44.8685 25.6462C44.8774 25.5392 44.8952 25.4322 44.9042 25.3252C44.9042 25.2539 44.9131 25.1826 44.922 25.1113C44.9309 25.0132 44.9398 24.9062 44.9487 24.7992C44.9577 24.7279 44.9577 24.6566 44.9666 24.5852C44.9755 24.7368 44.9755 24.6298 44.9844 24.5228C44.9844 24.4515 44.9933 24.3891 44.9933 24.3178C45.0022 24.2019 45.0111 24.077 45.0111 23.9611C45.0201 23.8987 45.0201 23.8452 45.0201 23.7828C45.029 23.6045 45.029 23.4262 45.029 23.2479C45.029 18.478 43.5222 14.0648 40.9456 10.4361ZM40.0362 33.5454C39.1982 34.9274 38.1996 36.2112 37.0406 37.3702C35.204 39.2069 33.0731 40.6423 30.6927 41.6497C29.4534 42.1668 28.1784 42.568 26.8679 42.8266V36.0686C26.8679 30.844 18.9686 30.844 18.9686 36.0686V42.8266C17.658 42.568 16.3831 42.1758 15.1438 41.6497C12.7633 40.6423 10.6325 39.2069 8.79588 37.3702C7.63685 36.2112 6.6383 34.9274 5.80023 33.5454V27.1886C5.80023 27.0014 5.94288 26.8587 6.13011 26.8587H8.10046C8.28769 26.8587 8.43034 27.0014 8.43034 27.1886V29.4888H11.0694V16.6503C11.0694 16.4631 11.212 16.3205 11.3992 16.3205H13.3696C13.5568 16.3205 13.6995 16.4631 13.6995 16.6503V18.9595H16.3296V16.6503C16.3296 16.4631 16.4722 16.3205 16.6595 16.3205H18.6387C18.826 16.3205 18.9686 16.4631 18.9686 16.6503V18.9595H21.5987V16.6503C21.5987 16.2224 22.1782 16.3205 22.4457 16.3205V8.27856C22.0534 8.10025 21.7859 7.68121 21.7859 7.25326C21.7859 5.75544 24.0505 5.75544 24.0505 7.25326C24.0505 7.68121 23.783 8.09133 23.3908 8.27856V8.62627C23.9524 8.50145 24.523 8.42121 25.1026 8.42121C25.9406 8.42121 26.743 8.73326 27.4474 8.73326C28.0893 8.73326 28.8025 8.42121 29.177 8.42121C29.3642 8.42121 29.5069 8.56386 29.5069 8.75109V13.0662C29.5069 13.5655 27.8397 13.6458 27.5098 13.6458C26.743 13.6458 26.0298 13.3337 25.2452 13.3337C24.6211 13.3337 23.9881 13.4407 23.3908 13.5834V16.3205C23.6582 16.3205 24.2377 16.2224 24.2377 16.6503V18.9595H26.8679V16.6503C26.8679 16.4631 27.0105 16.3205 27.1977 16.3205H29.177C29.3642 16.3205 29.5069 16.4631 29.5069 16.6503V18.9595H32.137V16.6503C32.137 16.4631 32.2796 16.3205 32.4669 16.3205H34.4372C34.6244 16.3205 34.7671 16.4631 34.7671 16.6503V29.4888H37.3972V27.1886C37.3972 27.0014 37.5399 26.8587 37.7271 26.8587H39.7063C39.8936 26.8587 40.0362 27.0014 40.0362 27.1886V33.5454Z" fill="black"/>
</g>
<defs>
<clipPath id="clip0_201_6891">
<rect width="45.648" height="45.648" fill="white" transform="translate(0.0949707 0.42395)"/>
</clipPath>
</defs>
</svg>
