<svg width="47" height="47" viewBox="0 0 47 47" fill="none" xmlns="http://www.w3.org/2000/svg">
<g clip-path="url(#clip0_201_6889)">
<path d="M44.0626 26.092H41.6198C41.388 26.092 41.2097 26.2703 41.2097 26.5021V29.3551H37.9465V13.4585C37.9465 13.2267 37.7682 13.0484 37.5364 13.0484H35.0935C34.8617 13.0484 34.6834 13.2267 34.6834 13.4585V16.3115H31.4203V13.4585C31.4203 13.2267 31.242 13.0484 31.0102 13.0484H28.5673C28.3355 13.0484 28.1572 13.2267 28.1572 13.4585V16.3115H24.8941V13.4585C24.8941 12.9236 24.1808 13.0484 23.8509 13.0484V9.66049C24.5909 9.48218 25.3755 9.35736 26.1423 9.35736C27.1141 9.35736 28.0056 9.74073 28.9418 9.74073C29.3519 9.74073 31.4114 9.64266 31.4114 9.02748V3.67811C31.4114 3.4463 31.2331 3.26799 31.0013 3.26799C30.5466 3.26799 29.655 3.65136 28.8615 3.65136C27.9967 3.65136 26.9981 3.26799 25.955 3.26799C25.2418 3.26799 24.5285 3.36606 23.842 3.52654V3.08968C24.3235 2.85787 24.6533 2.34968 24.6533 1.81474C24.6533 -0.0307921 21.8538 -0.0397076 21.8538 1.81474C21.8538 2.34968 22.1837 2.85787 22.6652 3.08968V13.0484C22.3353 13.0484 21.622 12.9236 21.622 13.4585V16.3115H18.3589V13.4585C18.3589 13.2267 18.1806 13.0484 17.9488 13.0484H15.5059C15.2741 13.0484 15.0958 13.2267 15.0958 13.4585V16.3115H11.8594V13.4585C11.8594 13.2267 11.6811 13.0484 11.4493 13.0484H9.00642C8.77462 13.0484 8.5963 13.2267 8.5963 13.4585V29.3551H5.33319V26.5021C5.33319 26.2703 5.15487 26.092 4.92307 26.092H2.48019C2.24838 26.092 2.07007 26.2703 2.07007 26.5021V46.0719H18.3767V37.5129C18.3767 31.0402 28.1572 31.0402 28.1572 37.5129V46.0719H44.4639V26.5021C44.4728 26.2703 44.2945 26.092 44.0626 26.092ZM18.3767 25.6908C18.3767 25.9226 18.1984 26.1009 17.9666 26.1009H15.5237C15.2919 26.1009 15.1136 25.9226 15.1136 25.6908V19.9848C15.1136 19.753 15.2919 19.5747 15.5237 19.5747H17.9666C18.1984 19.5747 18.3767 19.753 18.3767 19.9848V25.6908ZM31.4292 25.6908C31.4292 25.9226 31.2509 26.1009 31.0191 26.1009H28.5762C28.3444 26.1009 28.1661 25.9226 28.1661 25.6908V19.9848C28.1661 19.753 28.3444 19.5747 28.5762 19.5747H31.0191C31.2509 19.5747 31.4292 19.753 31.4292 19.9848V25.6908Z" fill="black"/>
</g>
<defs>
<clipPath id="clip0_201_6889">
<rect width="45.648" height="45.648" fill="white" transform="translate(0.447021 0.42395)"/>
</clipPath>
</defs>
</svg>
