<svg width="41" height="47" viewBox="0 0 41 47" fill="none" xmlns="http://www.w3.org/2000/svg">
<g clip-path="url(#clip0_201_6887)">
<path d="M1.02199 28.0356C0.683195 26.52 0.504883 24.9865 0.504883 23.453C0.504883 12.46 9.40267 3.5444 20.3956 3.5444C21.8756 3.5444 23.3645 3.72272 24.791 4.03476C13.7892 8.22511 5.13209 17.007 1.02199 28.0356ZM36.0515 11.1673C34.83 9.60703 33.4035 8.25185 31.7898 7.12848C18.452 11.0781 8.0475 21.5807 4.17812 34.9452C5.29257 36.559 6.67449 38.1192 8.20798 39.3139C12.0506 25.8245 22.58 15.0901 36.0515 11.1673ZM37.4601 33.697C38.8153 31.4592 39.7247 28.9094 40.0903 26.3149C33.0112 30.1397 27.1626 36.1756 23.3645 43.2813C26.0392 42.889 28.6158 41.9172 30.9072 40.4907C34.0276 41.6587 37.2283 42.6572 40.4469 43.4864C39.6177 40.2322 38.6281 36.8443 37.4601 33.697ZM40.1081 20.7248C39.8763 18.9863 39.4037 17.2745 38.6994 15.6607C26.4048 19.7441 16.7313 29.6226 12.7282 41.9707C14.3419 42.6483 16.027 43.0852 17.7744 43.3259C21.9024 33.1532 29.971 24.8884 40.1081 20.7248Z" fill="black"/>
</g>
<defs>
<clipPath id="clip0_201_6887">
<rect width="39.942" height="45.648" fill="white" transform="translate(0.504883 0.42395)"/>
</clipPath>
</defs>
</svg>
