<svg width="41" height="47" viewBox="0 0 41 47" fill="none" xmlns="http://www.w3.org/2000/svg">
<g clip-path="url(#clip0_201_6881)">
<path d="M27.476 9.00073C28.4656 8.0111 37.7735 2.1357 39.8865 4.25762C41.9995 6.37062 36.133 15.6785 35.1434 16.6682C34.1538 17.6578 31.6307 16.7484 29.5177 14.6265C27.3957 12.5135 26.4774 9.99037 27.476 9.00073ZM10.1975 6.49544C6.96113 4.65882 2.36067 2.61715 0.898506 4.08822C-0.581488 5.56822 1.53152 10.2757 3.38596 13.512C5.03536 10.6412 7.38016 8.22507 10.1975 6.49544ZM36.6591 15.9371C36.9533 16.9446 36.8998 17.7826 36.4184 18.2641C34.6085 20.0739 28.6172 15.8568 26.6736 12.0142C25.0688 9.13447 25.6839 7.25327 28.002 7.6723C28.5102 7.35134 29.0986 6.99472 29.7495 6.63809C27.0926 5.25617 24.0791 4.4716 20.8784 4.4716C10.2599 4.4716 1.65633 13.0752 1.65633 23.6937C1.65633 34.3033 10.2599 42.9158 20.8784 42.9158C31.4969 42.9158 40.1005 34.3122 40.1005 23.6937C40.1005 20.2701 39.2 17.0515 37.6309 14.2609C37.2832 14.885 36.9533 15.4467 36.6591 15.9371Z" fill="black"/>
</g>
<defs>
<clipPath id="clip0_201_6881">
<rect width="39.942" height="45.648" fill="white" transform="translate(0.399414 0.42395)"/>
</clipPath>
</defs>
</svg>
