<svg width="45" height="47" viewBox="0 0 45 47" fill="none" xmlns="http://www.w3.org/2000/svg">
<g clip-path="url(#clip0_201_6877)">
<path d="M22.7587 45.3587C10.5666 45.3587 0.647949 35.4401 0.647949 23.248C0.647949 11.0559 10.5666 1.13722 22.7587 1.13722C34.9508 1.13722 44.8694 11.0559 44.8694 23.248C44.8694 35.4401 34.9508 45.3587 22.7587 45.3587ZM22.7587 2.61097C11.3797 2.61097 2.1217 11.869 2.1217 23.248C2.1217 34.627 11.3797 43.885 22.7587 43.885C34.1377 43.885 43.3957 34.627 43.3957 23.248C43.3957 11.869 34.1377 2.61097 22.7587 2.61097ZM25.2212 4.55547V6.7505C27.9204 7.14821 30.4796 8.20597 32.672 9.82995L34.2224 8.2822C31.6592 6.31542 28.5788 4.99323 25.2212 4.55547ZM20.2846 4.56171C16.9288 5.00214 13.8511 6.32701 11.2905 8.2929L12.8311 9.84065H12.8383C14.9843 8.25011 17.5234 7.16062 20.2846 6.74961V4.56171ZM21.3768 9.03468V16.4231C20.4816 16.604 19.6454 16.9526 18.9098 17.4412L13.6835 12.2176L11.7283 14.1728L16.9591 19.4036C16.4714 20.1373 16.1166 20.9718 15.9365 21.866H8.54541V24.6299H15.9365C16.1166 25.5232 16.4723 26.3515 16.9591 27.0853L11.7283 32.3178L13.6835 34.273L18.9098 29.0467C19.6582 29.544 20.496 29.8913 21.3768 30.0693V37.4604H24.1406V30.0693C25.0366 29.8883 25.8676 29.529 26.6031 29.0396L31.8339 34.2721L33.7891 32.3169L28.5583 27.0844C29.0451 26.3506 29.4026 25.5223 29.5836 24.629H36.972V21.8652H29.5836C29.4035 20.9718 29.046 20.1373 28.5583 19.4027L33.7891 14.1719L31.8339 12.2167L26.6031 17.4475C25.8676 16.958 25.0366 16.6032 24.1406 16.4222V9.03468H21.3768ZM37.7138 11.7736L36.166 13.3213C37.7942 15.5158 38.8559 18.0781 39.2571 20.781H41.4521C41.0108 17.4207 39.6841 14.3359 37.7138 11.7736ZM7.79739 11.7852C5.8306 14.3457 4.50663 17.4252 4.0662 20.7819H6.2639C6.67402 18.0216 7.75816 15.4816 9.34781 13.3356L7.79739 11.7852ZM4.0662 25.7149C4.50485 29.0708 5.82703 32.1502 7.79293 34.7108L9.34068 33.1604C7.75281 31.0144 6.67313 28.4734 6.2639 25.714H4.0662V25.7149ZM39.2562 25.7149C38.8451 28.4779 37.7583 31.0197 36.1651 33.1684L37.7129 34.7161C39.6814 32.1538 41.0099 29.0734 41.4512 25.7149H39.2562ZM12.832 36.6553L11.2843 38.203C13.8457 40.1725 16.9279 41.5 20.2855 41.9414V39.7445C17.5225 39.3317 14.978 38.2476 12.832 36.6553ZM32.672 36.6597C30.5242 38.2503 27.9841 39.3416 25.2212 39.7508V41.9414C28.5797 41.5027 31.6592 40.177 34.2224 38.2102L32.6791 36.6597H32.672Z" fill="black"/>
</g>
<defs>
<clipPath id="clip0_201_6877">
<rect width="44.2215" height="45.648" fill="white" transform="translate(0.647949 0.42395)"/>
</clipPath>
</defs>
</svg>
