<svg width="41" height="47" viewBox="0 0 41 47" fill="none" xmlns="http://www.w3.org/2000/svg">
<g clip-path="url(#clip0_201_6873)">
<path d="M36.5212 6.4819H3.8009C1.83054 6.4819 0.181152 8.13129 0.181152 10.1016V22.1556C0.181152 33.2734 9.07003 42.1444 20.17 42.1444C31.2254 42.1444 40.1231 33.2734 40.1231 22.1556V10.1016C40.1231 8.10455 38.5451 6.4819 36.5212 6.4819ZM22.0779 30.4204C20.9724 31.4724 19.2784 31.41 18.2977 30.4204C8.16063 20.7112 8.05365 21.05 8.05365 19.4363C8.05365 17.9296 9.284 16.6992 10.7907 16.6992C12.3064 16.6992 12.2262 17.038 20.17 24.6609C28.2475 16.9132 28.0692 16.6992 29.576 16.6992C31.0827 16.6992 32.3131 17.9296 32.3131 19.4363C32.3131 21.0233 32.0545 20.8361 22.0779 30.4204Z" fill="black"/>
</g>
<defs>
<clipPath id="clip0_201_6873">
<rect width="39.942" height="45.648" fill="white" transform="translate(0.181152 0.775879)"/>
</clipPath>
</defs>
</svg>
