<svg width="47" height="47" viewBox="0 0 47 47" fill="none" xmlns="http://www.w3.org/2000/svg">
<path d="M23.4464 1.48915C11.232 1.48915 1.33569 11.3855 1.33569 23.5999C1.33569 35.8143 11.232 45.7106 23.4464 45.7106C35.6608 45.7106 45.5572 35.8143 45.5572 23.5999C45.5572 11.3855 35.6608 1.48915 23.4464 1.48915ZM19.0332 34.9049L7.82627 23.698L19.0332 12.491L22.1715 15.6472L20.0139 17.8047L19.0243 16.8151L12.1414 23.698L19.0243 30.5808L21.3958 28.2093L16.6616 23.4929L18.8371 21.3175L25.7199 28.2004L19.0332 34.9049ZM27.8597 34.7088L24.7214 31.5705L26.87 29.3951L27.8597 30.3847L34.7425 23.5018L27.8597 16.619L25.497 18.9816L30.2312 23.698L28.0558 25.8734L21.173 18.9905L27.8597 12.3038L39.0666 23.5107L27.8597 34.7088Z" fill="black"/>
</svg>
