<svg width="41" height="47" viewBox="0 0 41 47" fill="none" xmlns="http://www.w3.org/2000/svg">
<g clip-path="url(#clip0_201_6867)">
<path d="M40.132 21.8212L22.6976 4.38227C22.2149 3.90006 21.5606 3.6292 20.8783 3.6292C20.1961 3.6292 19.5417 3.90006 19.0591 4.38227L15.434 8.00469L20.0273 12.598C22.4399 11.7831 24.7241 14.0932 23.8958 16.4924L28.3233 20.9199C31.3751 19.8678 33.7779 23.6837 31.4857 25.9741C29.1239 28.3359 25.226 25.7182 26.4929 22.645L22.3605 18.518V29.3817C24.6162 30.4997 24.3452 33.1129 23.1701 34.2853C22.596 34.8591 21.8175 35.1814 21.0058 35.1814C20.1941 35.1814 19.4157 34.8591 18.8415 34.2853C17.2751 32.7161 17.8546 30.103 19.8446 29.2925V18.3263C17.9901 17.5676 17.6513 15.5856 18.1827 14.3143L13.6544 9.78068L1.6968 21.7401C1.21437 22.2226 0.943359 22.877 0.943359 23.5593C0.943359 24.2417 1.21437 24.896 1.6968 25.3786L19.1367 42.8175C19.6191 43.2997 20.2733 43.5705 20.9554 43.5705C21.6375 43.5705 22.2917 43.2997 22.7742 42.8175L40.132 25.4597C40.6145 24.9772 40.8855 24.3228 40.8855 23.6405C40.8855 22.9581 40.6145 22.3038 40.132 21.8212Z" fill="black"/>
</g>
<defs>
<clipPath id="clip0_201_6867">
<rect width="39.942" height="45.648" fill="white" transform="translate(0.943359 0.775879)"/>
</clipPath>
</defs>
</svg>
