<svg width="40" height="47" viewBox="0 0 40 47" fill="none" xmlns="http://www.w3.org/2000/svg">
<g clip-path="url(#clip0_201_6865)">
<path d="M8.96847 30.5755C13.2988 30.8706 14.2242 30.7636 14.2242 31.64C14.2242 33.4231 8.38004 33.4285 8.38004 31.7755C8.38093 31.3217 8.67336 30.9375 8.96847 30.5755ZM11.4604 20.1763C8.58153 20.1763 8.45136 24.1411 11.3935 24.1411C14.292 24.1411 14.2207 20.1763 11.4604 20.1763ZM39.9422 7.90841V39.2914C39.9422 40.4264 39.4914 41.5149 38.6888 42.3175C37.8862 43.12 36.7977 43.5709 35.6627 43.5709H4.27974C3.14475 43.5709 2.05624 43.12 1.25368 42.3175C0.451119 41.5149 0.000244141 40.4264 0.000244141 39.2914L0.000244141 7.90841C0.000244141 6.77341 0.451119 5.6849 1.25368 4.88234C2.05624 4.07978 3.14475 3.62891 4.27974 3.62891H35.6627C36.7977 3.62891 37.8862 4.07978 38.6888 4.88234C39.4914 5.6849 39.9422 6.77341 39.9422 7.90841ZM19.7038 14.0878C19.7038 15.3797 20.4509 16.1277 21.7419 16.1277C23.056 16.1277 23.8041 15.3797 23.8041 14.0878C23.8041 12.7959 23.0578 12.0987 21.7437 12.0987C20.4527 12.0987 19.7038 12.7977 19.7038 14.0878ZM17.7584 18.1614H13.3407C11.1118 17.5774 6.06911 17.729 6.06911 22.3294C6.06911 24.0056 6.90718 25.1824 8.01717 25.7272C6.61831 27.0083 5.95588 27.6119 5.95588 28.4678C5.95588 29.0803 6.20463 29.6465 6.95265 29.9621C6.15916 30.711 5.70446 31.2531 5.70446 32.273C5.70624 34.0624 7.26915 35.1011 11.3694 35.1011C15.3119 35.1011 17.5988 33.6291 17.5988 31.0239C17.5988 27.7546 15.0819 27.8749 9.14946 27.513L9.89659 26.3156C11.4122 26.7382 16.5111 26.871 16.5111 22.5327C16.5111 21.4905 16.0805 20.7656 15.673 20.2441L17.7575 20.0854L17.7584 18.1614ZM25.2778 27.9543L24.1188 27.7956C23.7782 27.7501 23.7559 27.7064 23.7559 27.3418V17.9403H19.0663L18.8176 19.7742C20.2218 20.269 20.3332 20.2075 20.3332 20.6809V27.3445C20.3332 27.8455 20.3056 27.7528 18.8176 27.957V29.7454H25.2743L25.2778 27.9543ZM34.2362 28.8601L33.6237 26.8657C29.9746 28.236 30.2492 25.7593 30.2492 25.3741V19.9605H33.6237V17.6951H30.4302C30.1743 17.6951 30.2518 17.9198 30.2518 14.251H28.096C27.8473 16.7206 27.0547 17.7174 25.0647 17.9438V19.9605C26.8898 19.9605 26.8318 19.8848 26.8318 20.187V26.1221C26.8318 28.6827 27.8509 29.7695 30.547 29.7695C31.8353 29.7695 33.2618 29.3389 34.2362 28.8601Z" fill="black"/>
</g>
<defs>
<clipPath id="clip0_201_6865">
<rect width="39.942" height="45.648" fill="white" transform="translate(0.0012207 0.775879)"/>
</clipPath>
</defs>
</svg>
