<svg width="46" height="47" viewBox="0 0 46 47" fill="none" xmlns="http://www.w3.org/2000/svg">
<g clip-path="url(#clip0_201_6863)">
<path d="M19.6371 14.8974H12.5679C9.00167 13.9621 0.933923 14.2055 0.933923 21.5654C0.933923 24.2481 2.27127 26.1328 4.05439 27.0039C1.81657 29.0545 0.75561 30.0218 0.75561 31.3913C0.75561 32.372 1.15414 33.276 2.35062 33.7815C1.07836 34.9771 0.353516 35.8455 0.353516 37.4771C0.353516 40.3399 2.85435 42.008 9.41446 42.008C15.7223 42.008 19.3812 39.6525 19.3812 35.4835C19.3812 30.2536 15.3549 30.4462 5.86248 29.8667L7.05985 27.9454C9.49114 28.6212 17.6427 28.8369 17.6427 21.8926C17.6427 20.2253 16.9535 19.0654 16.3053 18.2309L19.6407 17.9777L19.6371 14.8974ZM13.9828 36.4643C13.9828 39.3226 4.63123 39.3262 4.63123 36.6809C4.63123 35.9552 5.10108 35.3436 5.57361 34.7605C12.5019 35.233 13.9828 35.0609 13.9828 36.4643ZM9.4528 24.4656C4.74535 24.4656 4.95398 18.1213 9.55979 18.1213C13.9766 18.1213 14.0907 24.4656 9.4528 24.4656ZM21.3373 33.4267V30.5648C23.7223 30.2385 23.7659 30.3865 23.7659 29.5841V18.929C23.7659 18.1712 23.5832 18.271 21.3373 17.4793L21.7359 14.5443H29.2401V29.5859C29.2401 30.1663 29.2758 30.2385 29.8205 30.3116L31.6687 30.5648V33.4267H21.3373ZM26.0136 11.6449C23.9478 11.6449 22.7513 10.4476 22.7513 8.38093C22.7513 6.31429 23.9478 5.19181 26.0136 5.19181C28.1159 5.19181 29.3123 6.31697 29.3123 8.38093C29.3123 10.4449 28.1159 11.6449 26.0136 11.6449ZM46.0015 32.0216C44.4422 32.7821 42.1589 33.4713 40.0922 33.4713C35.7789 33.4713 34.1482 31.7327 34.1482 27.6351V18.1391C34.1482 17.6559 34.2418 17.7771 31.321 17.7771V14.5505C34.511 14.1877 35.7789 12.5891 36.1774 8.64216H39.6215C39.6215 14.5113 39.502 14.1529 39.9121 14.1529H45.0208V17.7771H39.6215V26.4386C39.6215 27.0556 39.1828 31.0222 45.0217 28.8316L46.0015 32.0216Z" fill="black"/>
</g>
<defs>
<clipPath id="clip0_201_6863">
<rect width="45.648" height="45.648" fill="white" transform="translate(0.353271 0.775879)"/>
</clipPath>
</defs>
</svg>
