<svg width="41" height="47" viewBox="0 0 41 47" fill="none" xmlns="http://www.w3.org/2000/svg">
<g clip-path="url(#clip0_201_6859)">
<path d="M36.2789 3.6289H4.89595C2.53331 3.6289 0.616455 5.54576 0.616455 7.9084V39.2914C0.616455 41.654 2.53331 43.5709 4.89595 43.5709H36.2789C38.6416 43.5709 40.5584 41.654 40.5584 39.2914V7.9084C40.5584 5.54576 38.6416 3.6289 36.2789 3.6289ZM25.3395 37.8381C24.5906 37.9719 24.3142 37.5083 24.3142 37.1249C24.3142 36.6435 24.332 34.1827 24.332 32.1946C24.332 30.8037 23.8684 29.9211 23.3245 29.4575C26.6233 29.0919 30.1004 28.6372 30.1004 22.9401C30.1004 21.3175 29.5209 20.5062 28.5758 19.463C28.7274 19.0797 29.2356 17.5016 28.4243 15.451C27.185 15.0676 24.3498 17.0469 24.3498 17.0469C23.173 16.717 21.898 16.5476 20.6409 16.5476C19.3838 16.5476 18.1089 16.717 16.932 17.0469C16.932 17.0469 14.0969 15.0676 12.8576 15.451C12.0463 17.4927 12.5456 19.0708 12.706 19.463C11.761 20.5062 11.3152 21.3175 11.3152 22.9401C11.3152 28.6105 14.6407 29.0919 17.9395 29.4575C17.5116 29.8408 17.1282 30.5006 16.9945 31.4456C16.1475 31.829 13.981 32.4888 12.6882 30.2064C11.8769 28.7977 10.4147 28.6818 10.4147 28.6818C8.97039 28.664 10.3167 29.5912 10.3167 29.5912C11.2795 30.037 11.9571 31.7488 11.9571 31.7488C12.8219 34.3967 16.9588 33.5052 16.9588 33.5052C16.9588 34.7444 16.9766 36.7594 16.9766 37.1249C16.9766 37.5083 16.7092 37.9719 15.9513 37.8381C10.067 35.8678 5.948 30.2688 5.948 23.7247C5.948 15.5402 12.2068 9.32598 20.3913 9.32598C28.5758 9.32598 35.2091 15.5402 35.2091 23.7247C35.218 30.2688 31.2238 35.8767 25.3395 37.8381ZM16.5933 32.3907C16.4239 32.4264 16.2634 32.355 16.2455 32.2391C16.2277 32.1054 16.3436 31.9895 16.513 31.9538C16.6824 31.936 16.8429 32.0073 16.8607 32.1232C16.8875 32.2391 16.7716 32.355 16.5933 32.3907ZM15.7463 32.3105C15.7463 32.4264 15.6125 32.5244 15.4342 32.5244C15.2381 32.5423 15.1043 32.4442 15.1043 32.3105C15.1043 32.1946 15.2381 32.0965 15.4164 32.0965C15.5858 32.0787 15.7463 32.1767 15.7463 32.3105ZM14.5248 32.2124C14.4892 32.3283 14.3109 32.3818 14.1593 32.3283C13.9899 32.2926 13.874 32.1589 13.9096 32.043C13.9453 31.9271 14.1236 31.8736 14.2752 31.9093C14.4535 31.9628 14.5694 32.0965 14.5248 32.2124ZM13.4282 31.7309C13.348 31.829 13.1786 31.8112 13.0448 31.6775C12.9111 31.5615 12.8754 31.3921 12.9646 31.3119C13.0448 31.2138 13.2142 31.2317 13.348 31.3654C13.4639 31.4813 13.5084 31.6596 13.4282 31.7309ZM12.6169 30.9196C12.5366 30.9731 12.3851 30.9196 12.287 30.7859C12.1889 30.6522 12.1889 30.5006 12.287 30.4382C12.3851 30.3579 12.5366 30.4203 12.6169 30.5541C12.715 30.6878 12.715 30.8483 12.6169 30.9196ZM12.0374 30.0548C11.9571 30.135 11.8234 30.0905 11.7253 30.0013C11.6272 29.8854 11.6094 29.7517 11.6897 29.6893C11.7699 29.609 11.9036 29.6536 12.0017 29.7428C12.0998 29.8587 12.1176 29.9924 12.0374 30.0548ZM11.44 29.3951C11.4044 29.4753 11.2885 29.4931 11.1904 29.4307C11.0745 29.3772 11.021 29.2791 11.0567 29.1989C11.0923 29.1454 11.1904 29.1187 11.3063 29.1632C11.4222 29.2257 11.4757 29.3237 11.44 29.3951Z" fill="black"/>
</g>
<defs>
<clipPath id="clip0_201_6859">
<rect width="39.942" height="45.648" fill="white" transform="translate(0.616211 0.775879)"/>
</clipPath>
</defs>
</svg>
