<svg width="45" height="47" viewBox="0 0 45 47" fill="none" xmlns="http://www.w3.org/2000/svg">
<g clip-path="url(#clip0_201_6857)">
<path d="M15.1858 36.2066C15.1858 36.3849 14.9807 36.5275 14.7222 36.5275C14.428 36.5543 14.2229 36.4116 14.2229 36.2066C14.2229 36.0283 14.428 35.8856 14.6865 35.8856C14.954 35.8589 15.1858 36.0015 15.1858 36.2066ZM12.413 35.8054C12.3506 35.9837 12.5289 36.1887 12.7964 36.2422C13.0282 36.3314 13.2957 36.2422 13.3492 36.0639C13.4027 35.8856 13.2333 35.6806 12.9658 35.6003C12.734 35.5379 12.4754 35.6271 12.413 35.8054ZM16.3537 35.6538C16.0952 35.7162 15.9169 35.8856 15.9436 36.0907C15.9704 36.269 16.2022 36.3849 16.4696 36.3225C16.7282 36.2601 16.9065 36.0907 16.8798 35.9124C16.853 35.743 16.6123 35.6271 16.3537 35.6538ZM22.2202 1.48914C9.85425 1.48914 0.394775 10.8773 0.394775 23.2433C0.394775 33.1307 6.61788 41.5916 15.5068 44.5694C16.648 44.7745 17.0492 44.0702 17.0492 43.4906C17.0492 42.9379 17.0224 39.8887 17.0224 38.0164C17.0224 38.0164 10.7815 39.3538 9.47088 35.3596C9.47088 35.3596 8.4545 32.7651 6.99234 32.0965C6.99234 32.0965 4.95066 30.6967 7.13499 30.7235C7.13499 30.7235 9.35498 30.9018 10.5764 33.0237C12.5289 36.4651 15.801 35.4755 17.0759 34.8871C17.281 33.4606 17.8605 32.4709 18.5024 31.8825C13.5186 31.3297 8.49016 30.6076 8.49016 22.0307C8.49016 19.5789 9.16775 18.3486 10.5942 16.7794C10.3624 16.1999 9.60461 13.8105 10.8261 10.7257C12.6894 10.1462 16.9778 13.1329 16.9778 13.1329C18.761 12.6337 20.6778 12.3751 22.5768 12.3751C24.4759 12.3751 26.3927 12.6337 28.1759 13.1329C28.1759 13.1329 32.4643 10.1373 34.3276 10.7257C35.5491 13.8194 34.7912 16.1999 34.5594 16.7794C35.9859 18.3575 36.8597 19.5879 36.8597 22.0307C36.8597 30.6343 31.6084 31.3208 26.6245 31.8825C27.4448 32.5868 28.1402 33.9242 28.1402 36.0193C28.1402 39.0239 28.1134 42.7417 28.1134 43.4728C28.1134 44.0523 28.5236 44.7567 29.6558 44.5516C38.5715 41.5916 44.6163 33.1307 44.6163 23.2433C44.6163 10.8773 34.5862 1.48914 22.2202 1.48914ZM9.06076 32.2391C8.94486 32.3283 8.9716 32.5333 9.12317 32.7027C9.26582 32.8454 9.47088 32.9078 9.58678 32.7919C9.70269 32.7027 9.67594 32.4977 9.52437 32.3283C9.38172 32.1856 9.17666 32.1232 9.06076 32.2391ZM8.09787 31.517C8.03546 31.6329 8.12462 31.7755 8.30293 31.8647C8.44558 31.9538 8.62389 31.9271 8.6863 31.8023C8.74871 31.6864 8.65956 31.5437 8.48125 31.4545C8.30293 31.4011 8.16028 31.4278 8.09787 31.517ZM10.9865 34.6909C10.8439 34.8068 10.8974 35.0743 11.1024 35.2437C11.3075 35.4487 11.5661 35.4755 11.682 35.3328C11.7979 35.2169 11.7444 34.9495 11.5661 34.7801C11.3699 34.575 11.1024 34.5483 10.9865 34.6909ZM9.97015 33.3803C9.8275 33.4695 9.8275 33.7013 9.97015 33.9063C10.1128 34.1114 10.3535 34.2006 10.4694 34.1114C10.6121 33.9955 10.6121 33.7637 10.4694 33.5586C10.3446 33.3536 10.1128 33.2644 9.97015 33.3803Z" fill="black"/>
</g>
<defs>
<clipPath id="clip0_201_6857">
<rect width="44.2215" height="45.648" fill="white" transform="translate(0.394775 0.775879)"/>
</clipPath>
</defs>
</svg>
