<svg width="54" height="47" viewBox="0 0 54 47" fill="none" xmlns="http://www.w3.org/2000/svg">
<g clip-path="url(#clip0_201_6855)">
<path d="M51.0506 11.3052C50.8455 10.7614 50.2214 10.485 49.6865 10.7168C49.1783 10.9308 48.9286 11.5103 49.1248 12.0185C50.0966 14.604 50.6315 17.4124 50.6315 20.3368C50.6315 32.3372 41.6892 42.2425 30.1078 43.7581V32.7295C30.8121 32.5958 31.4897 32.4085 32.1584 32.1767V41.449C41.6713 39.1398 48.7325 30.563 48.7325 20.3368C48.7325 12.1522 44.2034 5.01973 37.5166 1.31975C37.0085 1.03445 36.3576 1.23951 36.0991 1.76553C35.8583 2.25589 36.0456 2.85324 36.5181 3.11179C42.5718 6.46406 46.673 12.919 46.673 20.3368C46.673 28.6551 41.5108 35.7697 34.2089 38.6495V30.4293C35.475 30.0281 36.4289 28.8512 36.4289 27.4425C36.4289 26.2746 35.8227 25.2671 34.8865 24.7233C35.6265 17.6353 38.854 19.4987 38.854 17.2431V15.9325C38.854 12.5445 31.0172 1.50698 27.3528 1.24842C27.1299 1.23059 26.907 1.23059 26.6752 1.24842C23.002 1.51589 15.1652 12.5445 15.1652 15.9325V17.252C15.1652 19.5076 18.4015 17.6353 19.1326 24.7322C18.1876 25.276 17.5902 26.2835 17.5902 27.4514C17.5902 28.8601 18.5353 30.037 19.8013 30.4382V38.6584C12.4994 35.7875 7.33726 28.6729 7.33726 20.3457C7.33726 12.9368 11.4384 6.4819 17.4922 3.12071C17.9736 2.85324 18.1519 2.26481 17.9112 1.77445C17.6526 1.24842 17.0107 1.04337 16.4936 1.32867C9.80688 5.02865 5.27775 12.1611 5.27775 20.3457C5.27775 30.5719 12.3389 39.1398 21.8519 41.4579V32.1856C22.5295 32.4085 23.1982 32.5958 23.9025 32.7384V43.767C12.33 42.2514 3.37872 32.3461 3.37872 20.3457C3.37872 17.4214 3.91366 14.6129 4.88546 12.0274C5.0816 11.5103 4.83196 10.9397 4.32377 10.7257C3.78884 10.4939 3.16474 10.7614 2.95968 11.3142C1.90764 14.1226 1.32812 17.1628 1.32812 20.3457C1.32812 34.1738 12.2587 45.4521 25.962 46.0049V32.997C26.5683 33.0326 27.2993 33.0415 28.0483 32.997V45.9959C41.7516 45.4521 52.6821 34.1738 52.6821 20.3457C52.6821 17.1628 52.1026 14.1226 51.0506 11.3052ZM33.2371 25.3384C34.3962 25.3384 35.3501 26.2746 35.3501 27.4514C35.3501 28.6194 34.4051 29.5644 33.2371 29.5644C32.0781 29.5644 31.1241 28.6283 31.1241 27.4514C31.1241 26.2835 32.0692 25.3384 33.2371 25.3384ZM20.7731 29.5555C19.5962 29.5555 18.6601 28.6016 18.6601 27.4425C18.6601 26.2835 19.5962 25.3295 20.7731 25.3295C21.941 25.3295 22.8861 26.2746 22.8861 27.4425C22.8861 28.6016 21.95 29.5555 20.7731 29.5555Z" fill="black"/>
</g>
<defs>
<clipPath id="clip0_201_6855">
<rect width="52.7805" height="45.648" fill="white" transform="translate(0.614258 0.775879)"/>
</clipPath>
</defs>
</svg>
