<svg width="41" height="47" viewBox="0 0 41 47" fill="none" xmlns="http://www.w3.org/2000/svg">
<g clip-path="url(#clip0_201_6849)">
<path d="M37.0834 19.6057C36.7713 19.4809 36.0492 19.2669 35.7104 19.2669C32.4027 19.2669 30.1649 20.7647 27.3743 22.3428L27.294 22.2625C27.9181 18.0454 29.3892 14.0691 29.3892 9.745C29.3892 3.37032 25.9834 0.775879 19.7247 0.775879C9.46277 0.775879 4.26496 10.9129 4.26496 18.4645C4.26496 26.3013 8.83868 30.6432 16.622 30.6432C17.6919 30.6432 17.6027 30.5541 17.6027 30.982C16.096 42.4742 9.50735 42.8487 9.50735 39.4162C9.50735 35.9213 13.5194 34.1916 13.564 33.9777C13.5372 32.8899 9.37361 31.5169 8.31266 31.5169C5.29026 31.5259 3.64087 36.0817 3.64087 38.587C3.64087 43.2142 6.56519 46.4239 11.2637 46.4239C18.1644 46.4239 23.2107 39.4875 24.762 33.4606C26.1082 28.0666 25.7605 27.817 26.5184 27.4336C29.3892 25.9893 31.6448 25.0264 34.8812 25.0264C36.4682 25.0264 37.6005 25.3562 40.1325 25.7753C40.3911 25.7753 40.7299 25.5167 40.7299 25.2582C40.7299 24.5449 37.752 19.8642 37.0834 19.6057ZM21.4543 12.0809C20.6251 16.0662 19.796 20.0693 18.9757 24.0546C18.7707 24.964 17.79 24.75 17.0143 24.75C13.5996 24.75 12.6456 21.0233 12.6456 18.2327C12.6456 14.0423 14.2505 8.48789 18.1555 6.33923C18.7796 5.97369 19.475 5.74188 20.1704 5.74188C21.8287 5.74188 21.9536 6.92766 21.9536 8.30066C21.9446 9.5756 21.7128 10.8416 21.4543 12.0809Z" fill="black"/>
</g>
<defs>
<clipPath id="clip0_201_6849">
<rect width="39.942" height="45.648" fill="white" transform="translate(0.78833 0.775879)"/>
</clipPath>
</defs>
</svg>
