<svg width="41" height="47" viewBox="0 0 41 47" fill="none" xmlns="http://www.w3.org/2000/svg">
<g clip-path="url(#clip0_201_6847)">
<path d="M23.3849 14.0245C23.3849 14.8091 23.2422 15.6026 23.0818 16.3782C22.5646 18.8568 22.0475 21.3532 21.5394 23.8317C21.4145 24.3934 20.7994 24.2686 20.3179 24.2686C18.196 24.2686 17.5986 21.9505 17.5986 20.212C17.5986 17.5997 18.5972 14.1404 21.0312 12.8031C21.4145 12.5802 21.8514 12.4286 22.2883 12.4286C23.3046 12.4286 23.3849 13.1686 23.3849 14.0245ZM40.7882 7.90839V39.2914C40.7882 41.654 38.8713 43.5709 36.5087 43.5709H5.12569C2.76305 43.5709 0.846191 41.654 0.846191 39.2914V7.90839C0.846191 5.54575 2.76305 3.62889 5.12569 3.62889H36.5087C38.8713 3.62889 40.7882 5.54575 40.7882 7.90839ZM35.0822 24.5806C35.0822 24.1259 33.2277 21.2194 32.8087 21.0589C32.6126 20.9787 32.1668 20.8539 31.9528 20.8539C29.8933 20.8539 28.5025 21.79 26.7639 22.7707L26.7193 22.7262C27.1027 20.105 28.021 17.6264 28.021 14.9339C28.021 10.9575 25.8991 9.34381 22.003 9.34381C15.6105 9.34381 12.3741 15.6561 12.3741 20.3546C12.3741 25.2314 15.2271 27.9329 20.0683 27.9329C20.7369 27.9329 20.6835 27.8794 20.6835 28.1379C19.7473 35.2972 15.6461 35.529 15.6461 33.3892C15.6461 31.2138 18.1425 30.135 18.1692 30.0013C18.1514 29.3237 15.557 28.4678 14.8972 28.4678C13.016 28.4678 11.9818 31.41 11.9818 32.9791C11.9818 35.8589 13.8006 37.856 16.7338 37.856C21.0312 37.856 24.1695 33.4249 25.1413 29.6803C25.9793 26.3192 25.7654 26.1676 26.2379 25.9269C28.021 25.0264 29.4297 24.429 31.4446 24.429C32.4342 24.429 33.1386 24.6341 34.7166 24.8927C34.8771 24.9016 35.0822 24.7411 35.0822 24.5806Z" fill="black"/>
</g>
<defs>
<clipPath id="clip0_201_6847">
<rect width="39.942" height="45.648" fill="white" transform="translate(0.846191 0.775879)"/>
</clipPath>
</defs>
</svg>
