<svg width="36" height="47" viewBox="0 0 36 47" fill="none" xmlns="http://www.w3.org/2000/svg">
<g clip-path="url(#clip0_201_6845)">
<path d="M29.0705 29.2881H27.8936V32.3818C25.7093 34.4413 22.8741 35.5736 19.8785 35.5736C13.3522 35.5736 8.07417 30.2064 8.07417 23.591C8.07417 16.9845 13.3522 11.6084 19.8785 11.6084C23.0257 11.6084 25.9946 12.8566 28.2235 15.1211L33.7779 9.47754C30.0512 5.70623 25.1208 3.62889 19.8606 3.62889C8.92115 3.62889 0.183838 12.598 0.183838 23.5999C0.183838 34.5215 8.83199 43.5709 19.8606 43.5709C25.4953 43.5709 30.9606 41.235 35.1063 36.2155C34.928 33.7548 33.9116 29.2881 29.0705 29.2881ZM27.9917 19.258H18.5144V27.1929H29.0705C32.0572 27.1929 34.4644 28.5391 35.8463 30.9196V28.1914C35.8463 22.3784 32.2444 19.258 27.9917 19.258Z" fill="black"/>
</g>
<defs>
<clipPath id="clip0_201_6845">
<rect width="35.6625" height="45.648" fill="white" transform="translate(0.183838 0.775879)"/>
</clipPath>
</defs>
</svg>
