<svg width="36" height="47" viewBox="0 0 36 47" fill="none" xmlns="http://www.w3.org/2000/svg">
<g clip-path="url(#clip0_201_6843)">
<path d="M4.74598 36.7326H4.99562C6.1279 36.7326 7.2691 36.7326 8.40138 36.7415C8.54403 36.7415 8.67777 36.7059 8.72235 36.9287C9.35536 40.0403 11.397 41.7967 14.3303 42.6258C16.7286 43.3034 19.1536 43.3212 21.5787 42.7863C24.5922 42.1266 26.5714 40.2632 27.6413 37.4013C28.3545 35.4844 28.5953 33.4962 28.622 31.4724C28.6309 30.9553 28.6488 27.282 28.6042 26.7649L28.5239 26.7382C28.4526 26.8719 28.3724 26.9967 28.3011 27.1305C26.3307 30.9731 22.8358 33.1396 18.904 33.2912C9.7209 33.6478 3.80092 28.2093 3.56912 17.5818C3.52454 15.4688 3.7296 13.4004 4.30911 11.3677C6.14573 5.02865 10.9602 0.829388 18.0303 0.775895C23.4955 0.740232 27.0796 4.22624 28.3902 7.04358C28.4348 7.14165 28.5061 7.24864 28.6042 7.21297V1.72095H32.5538C32.5538 26.7114 32.5627 31.3386 32.5627 31.3386C32.5538 38.3374 30.1823 44.1504 23.3796 45.7998C17.1833 47.3065 9.20379 46.2277 5.90501 40.7001C5.19176 39.4964 4.85297 38.1769 4.74598 36.7326ZM17.7895 4.0301C13.1088 3.98552 8.11609 7.65875 7.53657 15.9592C7.17103 21.2194 8.85608 26.8541 13.9112 29.2078C16.372 30.3579 20.5355 30.5452 23.5669 28.4322C27.8107 25.4722 29.157 19.784 28.4526 14.7021C27.5878 8.36309 24.191 4.00335 17.7895 4.0301Z" fill="black"/>
</g>
<defs>
<clipPath id="clip0_201_6843">
<rect width="34.236" height="45.648" fill="white" transform="translate(0.947754 0.775879)"/>
</clipPath>
</defs>
</svg>
