<svg width="40" height="47" viewBox="0 0 40 47" fill="none" xmlns="http://www.w3.org/2000/svg">
<g clip-path="url(#clip0_201_6841)">
<path d="M26.7441 17.8226C27.1988 21.1481 26.325 24.8659 23.5433 26.8006C21.5552 28.1825 18.8359 28.0577 17.2311 27.3088C13.9234 25.7664 12.8179 22.0842 13.0586 18.6428C13.4419 13.2132 16.7051 10.806 19.772 10.8416C23.9535 10.8238 26.1735 13.6768 26.7441 17.8226ZM39.9481 8.62164V38.5781C39.9481 41.3331 37.7103 43.5709 34.9553 43.5709H4.99885C2.24393 43.5709 0.00610352 41.3331 0.00610352 38.5781V8.62164C0.00610352 5.86671 2.24393 3.62889 4.99885 3.62889H34.9553C37.7103 3.62889 39.9481 5.86671 39.9481 8.62164ZM29.4277 28.6996C29.4277 28.6996 29.4187 25.6683 29.4187 9.32597H26.8332V12.919C26.7619 12.9457 26.7262 12.8744 26.6906 12.812C25.8347 10.9664 23.4899 8.68405 19.9147 8.7108C15.2875 8.74646 12.1403 11.4925 10.9456 15.6472C10.5622 16.9756 10.4285 18.3308 10.4552 19.7127C10.6068 26.6579 14.4762 30.2153 20.4764 29.9835C23.053 29.8854 25.3354 28.4678 26.6282 25.9536C26.6727 25.8645 26.7262 25.7842 26.7797 25.6951C26.7976 25.704 26.8154 25.704 26.8332 25.7129C26.86 26.0517 26.851 28.45 26.8421 28.7888C26.8243 30.1083 26.6638 31.4189 26.2002 32.6671C25.5048 34.5394 24.212 35.7608 22.2328 36.1887C20.6458 36.5365 19.0588 36.5275 17.4896 36.0818C15.5728 35.5379 14.2354 34.3878 13.8253 32.355C13.7986 32.2124 13.7094 32.2391 13.6203 32.2391H11.2309C11.3022 33.1842 11.5162 34.049 11.9887 34.8425C14.1463 38.4533 19.3619 39.1666 23.4185 38.1769C27.8674 37.0803 29.4187 33.2823 29.4277 28.6996Z" fill="black"/>
</g>
<defs>
<clipPath id="clip0_201_6841">
<rect width="39.942" height="45.648" fill="white" transform="translate(0.00585938 0.775879)"/>
</clipPath>
</defs>
</svg>
