<svg width="41" height="46" viewBox="0 0 41 46" fill="none" xmlns="http://www.w3.org/2000/svg">
<g clip-path="url(#clip0_201_6827)">
<path d="M14.1978 11.433C17.5501 16.8358 19.9216 21.5165 21.7137 25.9208C20.9737 28.9343 20.0375 31.8497 18.9231 34.6849C17.7462 30.022 16.5604 25.6534 13.9303 21.4452C14.5098 18.1999 14.1354 14.8833 14.1978 11.433ZM9.96287 17.9592H1.65351C1.07399 17.9592 0.717369 18.6279 1.07399 19.0915C4.83639 23.9327 7.4665 29.5941 9.24962 35.7904H18.4773C17.033 29.5762 15.0269 23.8702 11.1219 18.5387C10.8544 18.1821 10.4087 17.9592 9.96287 17.9592ZM14.2245 10.1134C20.3317 19.7423 25.8148 31.0206 26.5459 42.9229H36.683C35.6131 30.6194 30.5847 19.2965 23.9158 10.1134H14.2245ZM36.6741 4.00624C36.5136 3.39998 35.943 2.98094 35.3189 2.98094H27.4464C26.9739 2.98094 26.644 3.42672 26.751 3.89925C27.9279 8.04502 28.7392 12.4137 29.1136 16.9161C33.411 24.6013 36.2194 32.8126 37.1912 41.0596C38.5998 35.6656 39.4468 29.1572 39.4468 22.9609C39.4468 16.399 38.368 10.0243 36.6741 4.00624Z" fill="black"/>
</g>
<defs>
<clipPath id="clip0_201_6827">
<rect width="39.942" height="45.648" fill="white" transform="translate(0.217529 0.12793)"/>
</clipPath>
</defs>
</svg>
