<svg width="41" height="47" viewBox="0 0 41 47" fill="none" xmlns="http://www.w3.org/2000/svg">
<g clip-path="url(#clip0_201_6831)">
<path d="M36.3104 3.62889H4.92745C2.56481 3.62889 0.647949 5.54575 0.647949 7.90839V39.2914C0.647949 41.654 2.56481 43.5709 4.92745 43.5709H36.3104C38.6731 43.5709 40.5899 41.654 40.5899 39.2914V7.90839C40.5899 5.54575 38.6731 3.62889 36.3104 3.62889ZM15.2696 32.5155C10.3392 32.5155 6.35395 28.5302 6.35395 23.5999C6.35395 18.6695 10.3392 14.6843 15.2696 14.6843C17.6768 14.6843 19.6828 15.558 21.243 17.0202L18.8269 19.3471C18.1671 18.7141 17.017 17.9741 15.2785 17.9741C12.2383 17.9741 9.75972 20.4883 9.75972 23.6088C9.75972 26.7204 12.2383 29.2435 15.2785 29.2435C18.8091 29.2435 20.1286 26.7025 20.3426 25.4008H15.2696V22.3339H23.6859C23.7751 22.7796 23.8286 23.2343 23.8286 23.8139C23.8286 28.9047 20.4139 32.5155 15.2696 32.5155ZM34.8839 25.2225H32.2984V27.8081H29.695V25.2225H27.1095V22.6192H29.695V20.0336H32.2984V22.6192H34.8839V25.2225Z" fill="black"/>
</g>
<defs>
<clipPath id="clip0_201_6831">
<rect width="39.942" height="45.648" fill="white" transform="translate(0.647949 0.775879)"/>
</clipPath>
</defs>
</svg>
