<svg width="58" height="47" viewBox="0 0 58 47" fill="none" xmlns="http://www.w3.org/2000/svg">
<g clip-path="url(#clip0_201_6837)">
<path d="M9.72343 19.9445V23.6222H14.8143C14.7116 24.2085 14.4918 24.768 14.1679 25.2674C13.8441 25.7668 13.4229 26.1958 12.9295 26.5287C12.0789 27.1126 10.993 27.4452 9.71987 27.4452C7.25916 27.4452 5.17914 25.7593 4.4329 23.5027C4.04241 22.3155 4.04241 21.0345 4.4329 19.8473C5.17914 17.5774 7.25916 15.8914 9.71987 15.8914C10.3869 15.879 11.0497 15.9994 11.6697 16.2455C12.2898 16.4916 12.8547 16.8586 13.3316 17.3251L16.0312 14.5951C14.331 12.9797 12.0687 12.0895 9.72343 12.113C7.96904 12.1197 6.25145 12.6168 4.76458 13.548C3.27771 14.4792 2.08076 15.8075 1.30887 17.383C0.643975 18.7145 0.297852 20.1823 0.297852 21.6706C0.297852 23.1588 0.643975 24.6266 1.30887 25.9581V25.9714C2.08097 27.546 3.27824 28.8731 4.76527 29.8027C6.2523 30.7323 7.96976 31.2273 9.72343 31.2317C12.2617 31.2317 14.4086 30.382 15.9644 28.9216C17.7475 27.2624 18.7648 24.8071 18.7648 21.8863C18.7658 21.2359 18.7136 20.5864 18.6087 19.9445H9.72343ZM44.4418 19.5879C43.5386 18.7516 42.3083 18.3272 40.7516 18.3272C38.7491 18.3272 37.2442 19.0708 36.2492 20.5436L38.1081 21.7258C38.7887 20.7154 39.7177 20.2102 40.8951 20.2102C41.6448 20.212 42.3673 20.4911 42.9234 20.9939C43.1945 21.2292 43.4118 21.5199 43.5609 21.8465C43.7099 22.173 43.7871 22.5277 43.7874 22.8866V23.3779C42.976 22.9259 41.9552 22.6869 40.699 22.6869C39.2333 22.6869 38.0555 23.0329 37.1782 23.7363C36.3009 24.4397 35.8569 25.3688 35.8569 26.5501C35.8432 27.078 35.9477 27.6024 36.1627 28.0847C36.3777 28.5671 36.6979 28.9953 37.0997 29.338C37.9244 30.0816 38.972 30.4533 40.2015 30.4533C41.6539 30.4533 42.8057 29.8025 43.6786 28.5017H43.7677V30.0816H45.7836V23.065C45.7898 21.5894 45.3449 20.4206 44.4418 19.5879ZM42.7273 27.5495C42.4181 27.8641 42.0494 28.1141 41.6428 28.2849C41.2361 28.4557 40.7995 28.5439 40.3584 28.5445C39.7654 28.5544 39.1876 28.3573 38.7242 27.9873C38.5079 27.8252 38.3326 27.6148 38.2123 27.3728C38.092 27.1308 38.0301 26.864 38.0314 26.5938C38.0314 25.9697 38.3185 25.4517 38.882 25.0407C39.4454 24.6296 40.1774 24.4166 41.028 24.4166C42.2013 24.4023 43.1196 24.6698 43.774 25.1994C43.774 26.1025 43.4209 26.8853 42.7273 27.5495ZM34.3778 14.8893C33.9047 14.4164 33.3409 14.0438 32.7203 13.7941C32.0996 13.5444 31.4349 13.4226 30.7661 13.4361H25.1787V30.0851H27.2854V23.3413H30.7625C32.189 23.3413 33.3926 22.8635 34.3742 21.9211C34.4527 21.8417 34.5312 21.7615 34.6105 21.6821C35.4696 20.7446 35.9265 19.5073 35.883 18.2364C35.8395 16.9655 35.299 15.7624 34.3778 14.8858V14.8893ZM32.8996 20.4375C32.634 20.721 32.311 20.9446 31.9522 21.0935C31.5934 21.2423 31.207 21.3129 30.8187 21.3006H27.2854V15.4867H30.8187C31.5727 15.4839 32.2971 15.7798 32.8336 16.3096C33.3794 16.8531 33.6917 17.5882 33.704 18.3584C33.7163 19.1286 33.4277 19.8732 32.8996 20.434V20.4375ZM55.0674 18.6963L51.8096 26.8719H51.7695L48.4333 18.6963H46.1429L50.7603 29.3549L48.1435 35.0895H50.3145L57.3578 18.6963H55.0674Z" fill="black"/>
</g>
<defs>
<clipPath id="clip0_201_6837">
<rect width="57.06" height="45.648" fill="white" transform="translate(0.297852 0.775879)"/>
</clipPath>
</defs>
</svg>
