<svg width="46" height="47" viewBox="0 0 46 47" fill="none" xmlns="http://www.w3.org/2000/svg">
<path d="M22.8236 1.48914C10.6181 1.48914 0.712891 11.3944 0.712891 23.5999C0.712891 35.8054 10.6181 45.7106 22.8236 45.7106C35.0291 45.7106 44.9344 35.8054 44.9344 23.5999C44.9344 11.3944 35.0291 1.48914 22.8236 1.48914ZM16.5203 34.6553C13.5882 34.6553 10.7762 33.4905 8.70296 31.4172C6.62968 29.3439 5.46492 26.5319 5.46492 23.5999C5.46492 20.6678 6.62968 17.8558 8.70296 15.7826C10.7762 13.7093 13.5882 12.5445 16.5203 12.5445C19.3109 12.5445 21.8786 13.5252 23.9203 15.4243L20.9246 18.3307C19.7477 17.1806 18.134 16.6279 16.5203 16.6279C12.6955 16.6279 9.63743 19.7929 9.63743 23.591C9.63743 27.389 12.6866 30.5541 16.5203 30.5541C19.4268 30.5541 22.3065 28.8512 22.7701 25.802H16.5203V22.004H26.9427C27.0577 22.6124 27.1144 23.2304 27.112 23.8495C27.112 30.1618 22.8771 34.6553 16.5203 34.6553ZM37.0441 25.1869V28.3519H33.879V25.1869H30.714V22.0218H33.879V18.8568H37.0441V22.0218H40.1824V25.1869H37.0441Z" fill="black"/>
</svg>
