<svg width="58" height="47" viewBox="0 0 58 47" fill="none" xmlns="http://www.w3.org/2000/svg">
<path d="M35.009 21.1477C35.1725 22.0118 35.2892 22.8759 35.2892 23.9968C35.2892 33.782 28.7269 40.7179 18.8485 40.7179C9.39042 40.7179 1.73047 33.058 1.73047 23.5999C1.73047 14.1417 9.39042 6.48189 18.8485 6.48189C23.4725 6.48189 27.3257 8.16329 30.3149 10.9657L25.6676 15.4262C24.4065 14.2118 22.188 12.7873 18.8485 12.7873C13.0102 12.7873 8.24601 17.6214 8.24601 23.5999C8.24601 29.5783 13.0102 34.4125 18.8485 34.4125C25.6209 34.4125 28.1665 29.5316 28.5634 27.0328H18.8485V21.1476H35.009V21.1477ZM51.5391 21.7216V16.7527H46.5463V21.7216H41.5773V26.7145H46.5463V31.6834H51.5391V26.7145H56.5081V21.7216H51.5391Z" fill="black"/>
</svg>
