<svg width="45" height="46" viewBox="0 0 45 46" fill="none" xmlns="http://www.w3.org/2000/svg">
<g clip-path="url(#clip0_201_6823)">
<path d="M22.5995 0.841156C10.394 0.841156 0.48877 10.7464 0.48877 22.9519C0.48877 35.1574 10.394 45.0626 22.5995 45.0626C34.805 45.0626 44.7103 35.1574 44.7103 22.9519C44.7103 10.7464 34.805 0.841156 22.5995 0.841156ZM32.8168 21.0261L22.7422 34.6403L12.6943 21.0261C11.9186 19.9652 10.9914 16.5327 13.9068 14.6069C16.4121 12.9931 18.7747 14.2324 20.014 15.6678C21.4316 17.2637 24.1687 17.1746 25.5149 15.6678C26.7542 14.2324 29.1168 12.9931 31.5865 14.6069C34.5197 16.5327 33.6014 19.9562 32.8168 21.0261Z" fill="black"/>
</g>
<defs>
<clipPath id="clip0_201_6823">
<rect width="44.2215" height="45.648" fill="white" transform="translate(0.487793 0.12793)"/>
</clipPath>
</defs>
</svg>
