<svg width="47" height="46" viewBox="0 0 47 46" fill="none" xmlns="http://www.w3.org/2000/svg">
<g clip-path="url(#clip0_201_6821)">
<path d="M27.6834 19.029C28.0757 19.4213 28.0757 20.09 27.6834 20.4823L26.8186 21.3471C26.4263 21.7661 25.7577 21.7661 25.3386 21.3471L24.4025 20.411C24.0102 19.9919 24.0102 19.35 24.4025 18.931L25.2673 18.0661C25.6596 17.6739 26.3283 17.6739 26.7473 18.0661L27.6834 19.029ZM24.9909 17.2727C25.2584 17.0052 25.2584 16.5772 24.9909 16.3365C24.7413 16.069 24.3223 16.069 24.0548 16.3365C23.8052 16.5861 23.8052 17.0052 24.0548 17.2727C24.3312 17.5223 24.7502 17.5223 24.9909 17.2727ZM22.6729 17.7452C22.4054 17.9948 22.4054 18.4139 22.6729 18.6546C22.9225 18.922 23.3415 18.922 23.609 18.6546C23.8586 18.4049 23.8586 17.9859 23.609 17.7452C23.3415 17.4777 22.9225 17.4777 22.6729 17.7452ZM29.1367 16.5594C27.3625 15.2756 26.1232 12.7079 28.0757 10.4879C30.0015 8.26787 31.7044 8.95438 33.4073 10.5592C34.4682 11.5667 36.0196 12.7792 34.9408 14.8565C33.8263 16.9517 30.9198 17.8165 29.1367 16.5594ZM33.3894 12.592C32.596 11.7004 31.3121 13.2071 32.0075 14.0274C32.6673 14.8298 34.8694 14.2413 33.3894 12.592ZM45.7732 22.9519C45.7732 35.1663 35.8769 45.0626 23.6625 45.0626C11.4481 45.0626 1.55176 35.1663 1.55176 22.9519C1.55176 10.7375 11.4481 0.84116 23.6625 0.84116C35.8769 0.84116 45.7732 10.7375 45.7732 22.9519ZM39.8711 26.75C40.094 25.3145 38.0701 25.27 37.6244 24.4586C36.4118 22.31 35.1547 21.1777 32.7654 21.7483C33.7996 21.035 34.8605 21.2044 34.8605 21.2044C34.8873 20.6338 34.8605 20.0454 34.0225 18.9845C34.3702 17.87 34.0492 16.9874 34.0492 16.9874C35.4311 16.2206 36.4386 14.8119 36.6437 13.1358C36.9646 10.372 34.9675 7.85775 32.2037 7.53679C30.2333 7.3139 28.3075 8.2233 27.3625 9.82811C25.2941 13.4033 27.4873 16.1493 29.3596 17.0854C28.0757 16.9606 26.3015 16.0245 25.7844 14.0274C25.196 11.736 26.0341 9.58739 26.5779 8.55317C26.5779 8.55317 26.1856 8.03607 25.8647 7.75968C25.8647 7.75968 24.6343 7.75968 23.6714 8.23221C24.7324 6.87704 25.9182 6.94836 25.9182 6.94836C25.9182 6.37776 25.8647 5.61993 25.5972 5.02259C25.1157 4.04187 23.4753 3.87247 22.7709 5.27222C22.7799 5.25439 22.7977 5.23656 22.8066 5.22765C22.3608 6.28861 22.7085 10.2115 24.3133 13.0021C24.0905 13.1269 23.502 13.5459 23.1543 13.8936C21.2285 14.7584 18.1437 19.2698 18.1437 19.2698C15.6295 20.2326 11.2609 23.8078 11.8493 26.3755C11.876 26.643 11.9741 26.8659 12.1168 27.0442C11.8671 27.2403 11.6264 27.49 11.3768 27.7842C10.3158 29.0145 10.9042 30.9225 12.9548 29.9596C14.3635 29.3177 15.5939 28.1586 16.1912 27.2492C16.1912 27.2492 15.7009 26.8035 14.738 26.8569C17.2076 26.2685 17.796 26.0189 18.857 26.0456C19.5702 26.3933 19.5702 22.9876 19.5702 22.9876C19.5702 21.677 19.3741 20.2237 18.5806 19.2876C19.695 20.3753 21.175 22.203 21.077 24.6905C21.0056 26.322 19.7218 26.741 19.7218 26.741C18.9105 28.221 15.8702 32.6164 17.0114 36.1916C17.0114 36.1916 16.1466 34.8632 16.1021 34.2212C14.5507 35.9509 11.9563 38.8841 13.9088 39.9718C16.2804 41.2824 23.609 32.0726 25.1603 27.2849C28.2451 25.4304 30.0996 23.0678 30.8574 21.4897C32.8188 25.368 39.354 29.915 39.8711 26.75Z" fill="black"/>
</g>
<defs>
<clipPath id="clip0_201_6821">
<rect width="45.648" height="45.648" fill="white" transform="translate(0.839844 0.12793)"/>
</clipPath>
</defs>
</svg>
