<svg width="35" height="46" viewBox="0 0 35 46" fill="none" xmlns="http://www.w3.org/2000/svg">
<g clip-path="url(#clip0_201_6819)">
<path d="M10.6339 26.9996C10.6339 20.4199 20.0042 16.078 20.0042 8.9009C20.0042 4.70164 16.9729 1.05515 16.5182 0.841175C16.5538 1.13539 16.5717 1.43852 16.5717 1.73274C16.5717 9.94403 3.45679 15.4539 3.45679 25.6801C3.45679 30.1201 6.32762 32.7413 9.38568 35.3357C15.1897 39.4993 16.3488 41.7015 16.3488 43.0567C16.3488 43.9571 15.9208 44.5723 15.9208 45.0448C17.0888 43.5559 17.4721 42.2008 17.4811 40.908C17.4811 38.269 15.5464 35.8885 13.5404 33.196C12.1139 31.2078 10.6339 29.3979 10.6339 26.9996ZM28.9376 23.5225C27.8588 17.5669 21.9835 12.4315 20.4945 11.852L20.8512 12.4939C21.0651 12.9486 21.1543 13.4657 21.1543 14.0185C21.1543 18.0037 16.322 23.9326 16.1081 24.423C15.9119 24.8777 15.8228 25.3591 15.8228 25.8317C15.8228 27.6237 17.1779 29.5851 17.4187 29.5851C17.6326 29.5851 22.4649 24.6459 22.5986 21.7661C23.1692 22.8093 23.41 23.7811 23.41 24.744C23.41 28.4172 19.6832 33.3832 19.6832 33.3832C19.6832 34.4174 22.5273 38.1263 22.8483 38.1263C22.9374 38.1263 23.0444 38.0015 23.1336 37.9123C26.5126 34.4085 29.1338 30.3341 29.1338 25.7158C29.1338 25.0025 29.0714 24.2714 28.9376 23.5225Z" fill="black"/>
</g>
<defs>
<clipPath id="clip0_201_6819">
<rect width="34.236" height="45.648" fill="white" transform="translate(0.604004 0.12793)"/>
</clipPath>
</defs>
</svg>
