<svg width="41" height="46" viewBox="0 0 41 46" fill="none" xmlns="http://www.w3.org/2000/svg">
<g clip-path="url(#clip0_201_6815)">
<path d="M39.9595 5.83392H0.832764C0.832764 15.0402 2.81132 21.8874 4.70375 25.6585C10.4148 37.0506 20.3962 40.0699 20.5082 40.0699C25.4758 38.2458 29.822 35.046 33.0391 30.8443C35.3489 27.8198 37.7733 23.0708 38.9159 17.8488H15.7452C16.1143 21.0967 17.7224 23.9066 19.7662 25.6004H27.6644C26.1477 28.1158 23.3683 30.4505 20.4913 31.7951C17.7067 30.613 14.3315 27.6455 11.8834 23.0256C9.50062 18.226 9.46799 13.5854 9.46799 13.5854H39.4376C39.7914 11.0169 39.9658 8.42674 39.9595 5.83392Z" fill="black"/>
</g>
<defs>
<clipPath id="clip0_201_6815">
<rect width="39.942" height="45.648" fill="white" transform="translate(0.425781 0.12793)"/>
</clipPath>
</defs>
</svg>
