<svg width="24" height="46" viewBox="0 0 24 46" fill="none" xmlns="http://www.w3.org/2000/svg">
<g clip-path="url(#clip0_201_6813)">
<path d="M19.3071 34.9969L18.05 37.1902L17.6399 44.3405C17.6399 45.134 15.1167 45.7759 12.0141 45.7759C8.91147 45.7759 6.38835 45.134 6.38835 44.3405L5.87124 37.2615L4.54281 34.9969C8.21605 36.5393 15.7765 36.4858 19.3071 34.9969ZM1.83246 12.4137L3.04499 23.6028C3.57101 21.8196 4.89944 19.4124 6.61124 18.6813C7.17292 18.4406 7.74352 18.4406 8.27846 18.7616C8.74207 19.0291 9.13436 19.5907 9.17894 19.8136C9.28593 20.3931 9.00063 20.625 8.77773 20.625C8.51027 20.625 8.30521 20.2148 8.17147 19.9741C7.80593 19.3233 7.25316 19.2965 6.66473 19.7245C6.04955 20.1703 5.51462 20.9192 5.14016 21.57C4.68546 22.3546 4.30209 23.2194 4.07029 24.0842C3.93655 24.5835 3.81173 25.3859 4.01679 25.8584C4.10595 26.0546 4.23968 26.1794 4.45366 26.1794C4.89944 26.1794 5.55028 25.591 5.86233 25.2789C6.26353 24.8777 6.78064 24.2536 6.97678 23.8524L7.44039 22.4705C7.6722 21.8642 8.32304 21.9712 8.32304 22.4705C8.32304 23.3799 7.99316 23.683 7.43148 25.5642C6.91437 27.3028 6.75389 27.8644 6.75389 27.8644C6.69148 28.1141 6.45076 28.5331 6.1922 28.5331C6.08522 28.5331 6.00498 28.4974 5.9604 28.4261C5.87124 28.3013 5.88016 27.9536 5.88907 27.8644C5.9069 27.5791 6.45076 25.8852 6.53991 25.6177C6.3616 25.8138 6.17437 26.01 5.96931 26.2061C5.48787 26.6608 4.71221 27.2582 4.05246 27.2582C3.74932 27.2582 3.55318 27.1779 3.36595 27.0442L4.04354 34.141C4.22185 34.5868 7.53846 35.6656 11.9071 35.6656C16.2847 35.6656 19.6013 34.5779 19.7707 34.141L20.7425 25.7069C20.2343 26.1705 19.6459 26.7411 18.995 27.0264C18.5136 27.2314 17.4437 27.3652 17.4437 26.5182C17.4437 26.0546 18.255 25.1987 18.7276 24.6013C18.8524 24.4498 19.1466 24.0753 19.1466 23.8792C19.1466 23.6206 18.6117 23.683 18.1035 24.102C17.8182 24.3428 17.5507 24.6637 17.3278 24.9669C16.9444 25.5018 16.7394 25.9654 16.57 26.3488C16.0172 27.6148 16.2044 27.1155 15.7587 28.3102C15.3129 29.496 15.3842 29.3623 15.2951 29.5584C15.2148 29.7278 15.0989 29.8705 14.9384 29.9596C14.769 30.0488 14.5372 30.0398 14.3946 29.9329C14.3143 29.8794 14.2787 29.7635 14.2787 29.603C14.2787 29.5227 14.2876 29.4425 14.3054 29.3623C14.4392 28.8184 15.0008 27.7485 15.6428 26.3042C15.7854 25.9743 15.7319 26.0724 15.7141 26.0991C15.1613 26.6341 14.7423 26.8926 14.4302 27.0353C13.9131 27.2671 13.2712 27.2671 13.1375 26.6697C13.1286 26.6341 13.1286 26.5984 13.1196 26.5628C12.0676 27.383 10.9531 27.6059 11.3365 25.8406C10.9264 26.5717 10.2132 27.169 9.33942 27.169C8.97388 27.169 8.70641 27.0442 8.57268 26.7143C8.36762 26.224 8.68858 25.3859 8.98279 24.5924C9.13436 24.1912 9.33942 23.7098 9.6158 23.1481C9.75845 22.8449 9.99026 22.6666 10.2934 22.7469C10.3469 22.7647 10.3915 22.7825 10.436 22.8093C10.6678 22.9698 10.5787 23.2105 10.4628 23.4512C10.124 24.1199 9.82978 24.6102 9.63364 25.3057C9.55339 25.5999 9.45532 26.1081 9.76737 26.1081C9.98134 26.1081 10.1864 26.0367 10.3825 25.8941C10.7927 25.591 11.1225 25.1363 11.3722 24.6905C11.5505 24.3695 11.7645 23.9505 11.8715 23.5939C11.916 23.4423 11.9695 23.2996 12.0319 23.1659C12.13 22.943 12.2637 22.7112 12.4955 22.7112C12.6115 22.7112 12.7095 22.7558 12.7809 22.8449C12.9324 23.0411 12.8968 23.2461 12.8165 23.4601C12.6382 23.9594 12.3975 24.4052 12.2013 24.949C12.0854 25.2611 11.9606 25.6623 11.9606 25.9922C11.9606 26.2953 12.2905 26.224 12.5669 26.0991C12.7808 26.0011 12.9948 25.8495 13.1731 25.6979C13.2801 25.2611 13.2534 25.3591 15.5269 19.6175C15.6428 19.3233 15.8567 19.1985 16.0707 19.1985C16.1777 19.1985 16.2669 19.2341 16.356 19.2965C16.5076 19.4124 16.5076 19.6621 16.4452 19.8493C16.3828 20.0187 16.3917 19.9652 16.044 20.7854C15.5804 21.8642 15.2772 22.6399 14.8671 23.6295C14.6977 24.0396 14.1806 25.3146 14.0914 25.6177C14.038 25.8138 13.9755 26.1348 14.1806 26.1348C14.662 26.1348 15.9013 24.9669 16.2401 24.6192C16.2579 24.5924 16.2847 24.5835 16.3204 24.5657C16.3738 24.3963 16.4273 24.2358 16.4719 24.0753C16.5967 23.7365 16.7126 23.3442 16.9444 23.0678C17.0158 22.9787 17.096 22.9252 17.1852 22.9252C17.4348 22.9252 17.5596 23.0322 17.5596 23.2818C17.5596 23.3799 17.4972 23.7365 17.4616 23.8346C17.5864 23.7008 17.7201 23.5671 17.8628 23.4334C19.2001 22.1941 20.1541 22.8271 20.1541 23.4512C20.1541 24.111 19.3606 25.0293 18.9237 25.5375C18.7811 25.7069 18.4868 26.0189 18.4779 26.1081C18.4779 26.224 18.5582 26.2685 18.6741 26.2685C18.8524 26.2685 19.2447 25.9565 19.3873 25.8495C19.8331 25.5018 20.4394 24.9669 20.8673 24.5924L22.1868 12.3958C19.4676 13.9204 4.56956 13.9293 1.83246 12.4137ZM22.3117 11.6558C22.3117 13.5281 1.69873 13.5281 1.69873 11.6558C1.69873 10.8713 6.31702 10.2383 12.0052 10.2383C12.8076 10.2383 13.5922 10.2472 14.35 10.2739L15.4734 5.932L20.9386 0.181427C21.0635 0.0566083 21.4558 0.163596 21.8213 0.493474C22.1868 0.823352 22.4097 1.19781 22.2938 1.32263L22.2849 1.33154L17.1763 6.72549L16.2847 10.3542C19.842 10.586 22.3117 11.0763 22.3117 11.6558ZM16.1242 12.066C16.1242 11.9946 16.044 11.9322 15.9013 11.8787L15.8835 11.95C15.8835 12.066 15.4377 12.164 14.8939 12.164C14.35 12.164 13.9042 12.066 13.9042 11.95C13.9042 11.9411 13.9042 11.9322 13.9131 11.9233L13.931 11.8609C13.7705 11.9144 13.6635 11.9857 13.6635 12.066C13.6635 12.2532 14.2163 12.3958 14.8849 12.3958C15.5714 12.4047 16.1242 12.2532 16.1242 12.066Z" fill="black"/>
</g>
<defs>
<clipPath id="clip0_201_6813">
<rect width="22.824" height="45.648" fill="white" transform="translate(0.602051 0.12793)"/>
</clipPath>
</defs>
</svg>
