<svg width="41" height="46" viewBox="0 0 41 46" fill="none" xmlns="http://www.w3.org/2000/svg">
<g clip-path="url(#clip0_201_6811)">
<path d="M36.3224 2.98094H4.93941C2.57677 2.98094 0.659912 4.8978 0.659912 7.26044V38.6434C0.659912 41.0061 2.57677 42.9229 4.93941 42.9229H36.3224C38.685 42.9229 40.6019 41.0061 40.6019 38.6434V7.26044C40.6019 4.8978 38.685 2.98094 36.3224 2.98094ZM2.55002 20.5626H2.53219C2.54111 20.5536 2.55002 20.5358 2.55894 20.5269C2.55894 20.5358 2.55894 20.5536 2.55002 20.5626ZM21.9861 25.3681V34.3639H19.1866V25.2076L12.0719 11.5399H15.3974C20.0781 20.304 19.7839 20.5626 20.6844 22.738C21.781 20.3307 21.2015 20.5626 26.0873 11.5399H29.1899L21.9861 25.3681Z" fill="black"/>
</g>
<defs>
<clipPath id="clip0_201_6811">
<rect width="39.942" height="45.648" fill="white" transform="translate(0.659912 0.12793)"/>
</clipPath>
</defs>
</svg>
