<svg width="58" height="46" viewBox="0 0 58 46" fill="none" xmlns="http://www.w3.org/2000/svg">
<g clip-path="url(#clip0_201_6805)">
<path d="M22.4417 14.179C22.4417 14.0096 22.3615 13.9293 22.1921 13.9293H18.5456C18.4029 13.9293 18.3049 14.0541 18.3049 14.179V32.1707C18.3049 32.2955 18.4029 32.4203 18.5456 32.4203H22.1921C22.3615 32.4203 22.4417 32.3401 22.4417 32.1707V14.179ZM13.963 15.1062C12.5275 14.0541 10.7266 13.5103 8.58684 13.5014C6.97311 13.4924 5.50203 13.8312 4.14686 14.5177V7.27826C4.14686 7.11778 4.06662 7.03754 3.89722 7.03754H0.250732C0.0902504 7.03754 0.0100098 7.11778 0.0100098 7.27826V32.1707C0.0100098 32.3401 0.0902504 32.4203 0.250732 32.4203H3.90614C4.07553 32.4203 4.15577 32.3401 4.15577 32.1707V20.0365C4.15577 19.9652 3.90614 17.6293 8.23913 17.6293C12.5632 17.6293 12.3225 19.9563 12.3225 20.0365V30.9671C12.3225 31.7695 12.9733 32.4203 13.7846 32.4203H16.2186C16.3791 32.4203 16.4593 32.3401 16.4593 32.1707V20.0365C16.4593 17.9503 15.6302 16.3098 13.963 15.1062ZM56.6153 24.9223C56.009 23.5225 54.9748 22.5151 53.5037 21.882L48.3684 19.6264C47.6016 19.3054 47.5481 18.6278 48.1365 18.191C48.7963 17.7006 52.0862 16.9517 55.6257 18.7972C55.7772 18.8864 55.9823 18.7705 55.9823 18.5833V14.598C55.9823 14.4821 55.9288 14.4108 55.8129 14.3662C54.2348 13.7777 52.5944 13.4835 50.9004 13.4835C48.5377 13.4835 46.8616 14.0006 45.6847 14.8565C45.6402 14.8922 43.1527 16.6397 43.6609 19.6442C43.964 21.3917 45.0696 22.6934 46.9775 23.5314L51.7563 25.6266C52.7905 26.0813 53.1115 26.8124 52.844 27.5167C52.5141 28.328 51.6671 28.7292 49.5898 28.7292C47.4233 28.7292 45.6045 27.9358 44.3831 27.0264C44.1958 26.9015 43.9908 27.0442 43.9908 27.2314V30.2984C43.9908 31.2256 44.4276 31.8408 45.2925 32.1439C46.6833 32.6343 48.1098 32.875 49.5898 32.875C50.7221 32.875 51.89 32.768 52.8262 32.4916C52.8886 32.4649 56.0358 31.6982 56.8917 28.4083C57.2037 27.2047 57.1057 26.0456 56.6153 24.9223ZM33.5506 13.4835C30.7243 13.4835 24.2605 15.2756 24.2605 22.7112V39.0714C24.2605 39.1427 24.314 39.3121 24.5012 39.3121H28.1477C28.3171 39.3121 28.3974 39.2318 28.3974 39.0714V31.1543C29.8684 32.2866 31.5891 32.8572 33.5417 32.8572C38.9356 32.8572 43.233 28.5331 43.233 23.1659C43.2419 17.7898 38.9356 13.4835 33.5506 13.4835ZM33.5506 28.7203C32.0171 28.7203 30.7065 28.1765 29.6277 27.0977C28.54 26.01 28.0051 24.7083 28.0051 23.1748C28.0051 20.0989 30.4658 17.6293 33.5506 17.6293C36.6265 17.6293 39.0961 20.09 39.0961 23.1748C39.105 26.2329 36.6621 28.7203 33.5506 28.7203ZM20.3644 6.59175C18.9468 6.59175 17.7967 7.74187 17.7878 9.16837C17.7878 10.5592 18.92 11.745 20.3644 11.745C21.8087 11.745 22.941 10.577 22.941 9.16837C22.941 7.72404 21.782 6.59175 20.3644 6.59175Z" fill="black"/>
</g>
<defs>
<clipPath id="clip0_201_6805">
<rect width="57.06" height="45.648" fill="white" transform="translate(0.0100098 0.12793)"/>
</clipPath>
</defs>
</svg>
