<svg width="46" height="46" viewBox="0 0 46 46" fill="none" xmlns="http://www.w3.org/2000/svg">
<g clip-path="url(#clip0_201_6803)">
<path d="M39.8669 0.127913H6.77215C6.41552 3.45344 3.69626 6.1727 0.361816 6.52041V39.642C3.69626 40.0788 6.24613 42.5306 6.77215 45.7759H39.9561C40.2236 42.5306 42.8537 39.9094 46.0098 39.5528V6.52041C42.7645 5.99439 40.2146 3.3732 39.8669 0.127913ZM36.5682 36.2273C33.3318 36.2273 34.892 36.049 31.6557 36.049C28.4639 36.049 29.7834 36.2273 26.654 36.2273C26.128 36.2273 26.2171 35.4962 26.654 35.3535C28.6867 34.676 28.6957 34.4441 28.8472 34.2123C29.7745 32.8215 29.3733 26.8124 29.3733 24.1377C29.3733 23.6652 28.8027 22.9965 28.1429 22.9965H18.2287C17.569 22.9965 16.9984 23.6652 16.9984 24.1377C16.9984 26.8124 16.5972 32.8215 17.5244 34.2123C17.676 34.4352 17.6849 34.676 19.7176 35.3535C20.1545 35.4962 20.2526 36.2273 19.7176 36.2273C16.5882 36.2273 17.9078 36.049 14.716 36.049C11.4796 36.049 13.0398 36.2273 9.80346 36.2273C9.09913 36.2273 9.28636 35.2644 9.80346 35.2644C10.7129 34.9612 11.0071 34.9523 11.7382 34.034C12.4247 32.8839 12.4425 30.0755 12.4425 22.6399V13.6172C12.4425 11.638 11.3548 11.0941 9.89262 10.7286C9.10804 10.5324 9.53599 9.67654 9.98177 9.67654C13.236 9.67654 11.8184 9.85486 15.0726 9.85486C17.988 9.85486 16.5437 9.67654 19.4591 9.67654C19.7533 9.67654 20.2169 10.4165 19.5482 10.6394C19.1114 10.7821 17.0875 10.9693 17.0875 14.1433C17.0875 18.2088 17.0697 19.1182 17.1767 20.2772C17.1767 20.3931 17.3817 21.4184 18.3179 21.4184H28.0537C28.9899 21.4184 29.1949 20.3931 29.1949 20.2772C29.3019 19.1182 29.2841 18.2088 29.2841 14.1433C29.2841 10.9693 27.2602 10.7821 26.8234 10.6394C26.1547 10.4165 26.6183 9.67654 26.9125 9.67654C29.8279 9.67654 28.3836 9.85486 31.299 9.85486C34.5532 9.85486 33.1356 9.67654 36.3898 9.67654C36.8267 9.67654 37.2725 10.5324 36.479 10.7286C35.0168 11.0941 33.9291 11.6469 33.9291 13.6172V22.6399C33.9291 30.0755 33.938 32.8839 34.6335 34.034C35.3646 34.9434 35.6499 34.9612 36.5682 35.2644C37.0853 35.2644 37.2636 36.2273 36.5682 36.2273Z" fill="black"/>
</g>
<defs>
<clipPath id="clip0_201_6803">
<rect width="45.648" height="45.648" fill="white" transform="translate(0.361816 0.12793)"/>
</clipPath>
</defs>
</svg>
