<svg width="47" height="46" viewBox="0 0 47 46" fill="none" xmlns="http://www.w3.org/2000/svg">
<g clip-path="url(#clip0_201_6801)">
<path d="M23.9262 22.8519L12.4415 3.07901C12.4242 3.04903 12.3993 3.02415 12.3693 3.00687C12.3392 2.9896 12.3052 2.98055 12.2706 2.98063C12.236 2.98071 12.202 2.98992 12.172 3.00734C12.1421 3.02475 12.1173 3.04975 12.1001 3.07982L0.740821 22.8527C0.723324 22.883 0.714111 22.9174 0.714111 22.9523C0.714111 22.9873 0.723324 23.0217 0.740821 23.052L12.2256 42.8249C12.2429 42.8549 12.2678 42.8798 12.2978 42.8971C12.3278 42.9143 12.3619 42.9234 12.3965 42.9233C12.4312 42.9232 12.4652 42.914 12.4951 42.8966C12.5251 42.8792 12.5499 42.8541 12.567 42.8241L23.9266 23.0512C23.944 23.0208 23.9531 22.9864 23.953 22.9515C23.953 22.9165 23.9437 22.8822 23.9262 22.8519ZM27.4102 20.5594C27.4272 20.5894 27.4518 20.6144 27.4816 20.6318C27.5113 20.6492 27.5451 20.6584 27.5796 20.6585H33.5093C33.544 20.6581 33.5779 20.6486 33.6077 20.631C33.6376 20.6134 33.6623 20.5883 33.6795 20.5581C33.6966 20.528 33.7055 20.4939 33.7054 20.4593C33.7053 20.4246 33.6961 20.3906 33.6787 20.3606L23.8158 3.07999C23.7988 3.04998 23.7742 3.02501 23.7445 3.00761C23.7147 2.99021 23.6809 2.98101 23.6464 2.98094H17.7168C17.6821 2.98135 17.6482 2.99084 17.6183 3.00844C17.5885 3.02604 17.5638 3.05116 17.5466 3.08128C17.5295 3.11141 17.5206 3.14549 17.5207 3.18015C17.5208 3.2148 17.53 3.24882 17.5474 3.27881L27.4102 20.5594ZM46.3353 22.8526L35.0303 3.08008C35.0132 3.05 34.9884 3.02499 34.9585 3.00758C34.9286 2.99016 34.8946 2.98098 34.86 2.98094H28.9222C28.8875 2.98127 28.8535 2.99069 28.8236 3.00825C28.7937 3.02581 28.7689 3.0509 28.7517 3.08103C28.7345 3.11116 28.7255 3.14526 28.7256 3.17995C28.7257 3.21464 28.7349 3.24869 28.7523 3.27872L40.0009 22.9519L28.752 42.6252C28.7346 42.6552 28.7255 42.6892 28.7254 42.7239C28.7253 42.7586 28.7343 42.7927 28.7515 42.8228C28.7687 42.853 28.7934 42.8781 28.8234 42.8956C28.8533 42.9132 28.8873 42.9226 28.9219 42.9229H34.8597C34.8943 42.9228 34.9282 42.9136 34.958 42.8962C34.9879 42.8788 35.0126 42.8538 35.0297 42.8238L46.3353 23.0513C46.3526 23.021 46.3617 22.9868 46.3617 22.9519C46.3617 22.9171 46.3526 22.8829 46.3353 22.8526ZM33.3467 25.5301H27.4171C27.3826 25.5301 27.3488 25.5393 27.319 25.5567C27.2893 25.5741 27.2646 25.5991 27.2477 25.6291L17.5475 42.6251C17.5301 42.6551 17.5209 42.6891 17.5208 42.7237C17.5207 42.7584 17.5296 42.7925 17.5467 42.8226C17.5639 42.8527 17.5886 42.8778 17.6184 42.8954C17.6483 42.913 17.6822 42.9225 17.7169 42.9229H23.6466C23.681 42.9229 23.7149 42.9137 23.7446 42.8963C23.7744 42.8789 23.799 42.8539 23.816 42.8239L33.5162 25.8279C33.5335 25.7979 33.5427 25.7639 33.5429 25.7293C33.543 25.6946 33.534 25.6605 33.5169 25.6304C33.4998 25.6002 33.475 25.5751 33.4452 25.5575C33.4153 25.5399 33.3813 25.5305 33.3467 25.5301Z" fill="black"/>
</g>
<defs>
<clipPath id="clip0_201_6801">
<rect width="45.648" height="45.648" fill="white" transform="translate(0.713867 0.12793)"/>
</clipPath>
</defs>
</svg>
