<svg width="58" height="46" viewBox="0 0 58 46" fill="none" xmlns="http://www.w3.org/2000/svg">
<g clip-path="url(#clip0_201_6799)">
<path d="M13.5371 31.511L16.9517 31.5823C15.7749 31.1722 14.6337 30.6729 13.5371 30.0844V31.511ZM18.6814 31.0384V31.511L16.9517 31.5823C20.2059 32.6967 23.1838 32.8483 25.3948 32.2242C23.6206 32.242 21.3115 31.9924 18.6814 31.0384ZM55.1374 20.7676C56.5549 20.7676 57.714 19.6175 57.714 18.191C57.714 16.7645 56.5639 16.0067 55.1374 16.0067C53.7198 16.0067 52.5607 16.7734 52.5607 18.191C52.5607 19.6086 53.7109 20.7676 55.1374 20.7676ZM52.5518 31.511H57.714V21.6592H52.5518V31.511ZM45.981 31.511H51.1432V14.0987L45.981 16.5327V31.511ZM43.2172 20.8657C41.5945 19.2431 38.7237 19.3411 38.7237 19.3411C38.7237 19.3411 35.8439 19.2431 34.2302 20.8657C32.6076 22.4883 32.7324 23.8881 32.7324 25.5553C32.7324 27.2225 32.6076 28.6134 34.2302 30.236C35.8529 31.8587 38.7237 31.7606 38.7237 31.7606C38.7237 31.7606 41.6034 31.8587 43.2172 30.236C44.8398 28.6134 44.715 27.2225 44.715 25.5553C44.7061 23.8792 44.8309 22.4794 43.2172 20.8657ZM39.6688 27.276C39.6688 27.597 39.5083 28.3905 38.7148 28.3905C37.9213 28.3905 37.7608 27.597 37.7608 27.276V23.6741C37.7608 22.8985 38.4116 22.7023 38.7148 22.7023C39.0179 22.7023 39.6688 22.8895 39.6688 23.6741V27.276ZM30.2004 20.8657C28.5777 19.2431 25.7069 19.3411 25.7069 19.3411C25.7069 19.3411 22.8361 19.2431 21.2134 20.8657C21.044 21.0351 20.8835 21.2134 20.7409 21.4006C17.3351 18.7616 14.2771 17.2549 11.638 15.9532V14.1077L9.63201 15.0527C4.78191 13.0824 1.69711 13.4301 0.957112 15.0616C0.957112 15.0616 -1.26288 17.9859 6.46697 24.9401V31.511H11.6291V28.9611C11.0496 28.5866 10.4701 28.1854 9.89948 27.7486C8.57997 26.75 7.4566 25.8228 6.47588 24.9491V22.1852C7.64383 23.4958 9.19515 24.9847 11.2368 26.6698L11.638 26.9907V24.3339C11.638 23.7187 11.7896 22.7112 12.6009 22.7112C13.4122 22.7112 13.546 23.3264 13.546 24.0486V28.3905C15.1508 29.4782 16.8715 30.3608 18.6903 31.0295V22.6577C18.6903 20.9905 17.4956 19.3233 15.0705 19.3233C13.6619 19.3144 12.3513 20.0544 11.638 21.2758V16.4346C15.3737 18.298 19.1182 20.5804 20.5447 21.6324C19.6353 22.9341 19.7156 24.1377 19.7156 25.5286C19.7156 27.1958 19.5908 28.5866 21.2134 30.2093C22.8361 31.8319 25.7069 31.7338 25.7069 31.7338C25.7069 31.7338 28.5866 31.8319 30.2004 30.2093C31.823 28.5866 31.6893 27.1958 31.6893 25.5286C31.6893 23.8792 31.823 22.4794 30.2004 20.8657ZM6.46697 16.5327V22.1763C2.12506 17.3173 2.99879 15.4004 3.32867 15.124C4.53228 14.1077 6.67203 14.4108 9.07033 15.3113L6.46697 16.5327ZM26.6609 27.276C26.6609 27.597 26.5004 28.3905 25.7069 28.3905C24.9134 28.3905 24.7529 27.597 24.7529 27.276V23.6741C24.7529 22.8985 25.4038 22.7023 25.7069 22.7023C26.01 22.7023 26.6609 22.8895 26.6609 23.6741V27.276Z" fill="black"/>
</g>
<defs>
<clipPath id="clip0_201_6799">
<rect width="57.06" height="45.648" fill="white" transform="translate(0.653809 0.12793)"/>
</clipPath>
</defs>
</svg>
