<svg width="46" height="46" viewBox="0 0 46 46" fill="none" xmlns="http://www.w3.org/2000/svg">
<g clip-path="url(#clip0_201_6797)">
<path d="M6.81494 33.1425C6.90821 33.8425 6.77923 34.5541 6.44623 35.1768C6.11323 35.7995 5.59302 36.3019 4.95907 36.613C4.32512 36.9241 3.60946 37.0282 2.91315 36.9106C2.21684 36.7931 1.57506 36.4597 1.07843 35.9577C0.581812 35.4556 0.255442 34.8103 0.145412 34.1127C0.0353812 33.4152 0.14725 32.7007 0.46522 32.0701C0.783191 31.4396 1.2912 30.9249 1.9175 30.5986C2.54381 30.2724 3.25677 30.1512 3.9557 30.252C-3.02345 20.3245 8.59182 13.2651 8.59182 13.2651C8.06937 17.0988 7.85718 21.3926 7.85718 21.3926C1.85607 25.0917 7.94009 27.1039 11.4065 27.8894C12.2899 30.2922 13.8889 32.3664 15.9878 33.8321C18.0868 35.2978 20.5847 36.0846 23.1448 36.0864C23.316 36.0864 23.4809 36.0677 23.6503 36.0615L23.6601 37.743C14.814 37.8669 9.51102 35.1449 6.81494 33.1425ZM16.4438 3.92599C16.5285 3.28152 16.4237 2.62634 16.1425 2.04034C15.8761 1.48429 15.4629 1.01159 14.9475 0.673283C14.4321 0.33498 13.834 0.143942 13.2179 0.120807C12.6018 0.0976716 11.9911 0.243318 11.4517 0.542012C10.9124 0.840707 10.4649 1.28109 10.1576 1.8156C9.85036 2.35011 9.69497 2.95841 9.70825 3.57481C9.72154 4.1912 9.90299 4.79225 10.233 5.31302C10.563 5.83379 11.0291 6.25449 11.5808 6.52967C12.1325 6.80485 12.7489 6.92405 13.3635 6.87439C11.353 9.54105 8.56418 14.8601 8.68989 23.8141L10.6371 23.8007C10.6371 23.7205 10.6246 23.6429 10.6246 23.5618C10.6263 21.0673 11.3731 18.6302 12.7692 16.5631C14.1654 14.496 16.1472 12.893 18.4605 11.9599C19.1738 8.59778 21.1976 1.7693 25.0403 8.01113C25.0403 8.01113 29.3322 8.22332 33.1695 8.74578C33.1695 8.74578 26.2296 -2.66622 16.4447 3.92599H16.4438ZM43.5642 15.8881C44.1297 15.6189 44.6093 15.198 44.9496 14.6723C45.29 14.1467 45.4777 13.5368 45.4919 12.9108C45.5061 12.2847 45.3463 11.6669 45.0301 11.1264C44.714 10.5858 44.254 10.1436 43.7014 9.84899C43.1487 9.55441 42.5252 9.41902 41.9002 9.45791C41.2751 9.49679 40.6732 9.70842 40.1613 10.0692C39.6495 10.43 39.2478 10.9258 39.0011 11.5014C38.7544 12.077 38.6724 12.7098 38.7641 13.3293C35.9351 11.3732 30.7543 8.9544 22.4084 9.07298L22.4208 11.079C22.6616 11.0656 22.9014 11.0424 23.1466 11.0424C25.6556 11.0433 28.1064 11.7983 30.181 13.2094C32.2556 14.6206 33.8581 16.6227 34.7806 18.9559C38.2666 19.7584 44.1473 21.7715 38.2095 25.4233C38.2095 25.4233 38.0009 29.7144 37.4776 33.5508C37.4776 33.5508 49.3754 26.3149 41.8462 16.2001C42.4376 16.251 43.0319 16.1433 43.5678 15.8881H43.5642ZM33.355 39.0215C35.2656 36.1274 37.4936 31.025 37.3795 23.0036L35.6391 23.0161C35.6463 23.1998 35.6659 23.379 35.6659 23.5644C35.6645 26.1156 34.8833 28.6054 33.427 30.7001C31.9707 32.7947 29.9089 34.3942 27.5179 35.284C26.7289 38.7567 24.7148 44.7934 21.03 38.8048C21.03 38.8048 16.7398 38.5962 12.8999 38.0719C12.8999 38.0719 20.0252 49.7817 30.0089 42.6189C30.0351 43.0521 30.1453 43.476 30.3335 43.8671C30.5949 44.4138 30.9984 44.8802 31.5018 45.2176C32.0052 45.5549 32.59 45.7508 33.195 45.7848C33.8 45.8187 34.4031 45.6894 34.941 45.4105C35.479 45.1315 35.9321 44.7132 36.253 44.1991C36.5739 43.685 36.7508 43.0942 36.7651 42.4884C36.7794 41.8826 36.6307 41.284 36.3345 40.7554C36.0383 40.2267 35.6055 39.7874 35.0813 39.4833C34.5572 39.1792 33.9609 39.0215 33.355 39.0268V39.0215Z" fill="black"/>
</g>
<defs>
<clipPath id="clip0_201_6797">
<rect width="45.648" height="45.648" fill="white" transform="translate(0.00585938 0.12793)"/>
</clipPath>
</defs>
</svg>
