<svg width="46" height="46" viewBox="0 0 46 46" fill="none" xmlns="http://www.w3.org/2000/svg">
<g clip-path="url(#clip0_201_6789)">
<path d="M24.0785 18.9934C21.8407 21.1064 20.4409 24.102 20.4409 27.4276C20.4409 30.0398 21.3057 32.4471 22.759 34.3817L18.3458 38.8217C17.9535 38.6791 17.5344 38.5988 17.0976 38.5988C16.1347 38.5988 15.2342 38.9733 14.5566 39.6509C13.879 40.3285 13.5046 41.2379 13.5046 42.2007C13.5046 43.1636 13.879 44.0641 14.5566 44.7417C15.2342 45.4193 16.1436 45.7759 17.0976 45.7759C18.0605 45.7759 18.9609 45.4282 19.6474 44.7417C20.325 44.0641 20.6995 43.1547 20.6995 42.2007C20.6995 41.8263 20.646 41.4697 20.5301 41.1219L24.9879 36.6463C26.9493 38.153 29.3922 39.0446 32.058 39.0446C38.4683 39.0446 43.6483 33.8468 43.6483 27.4365C43.6483 21.6235 39.3955 16.809 33.8233 15.9621V10.47C35.3835 9.81028 36.3375 8.34812 36.3375 6.64524C36.3375 4.31826 34.4741 2.37466 32.1471 2.37466C29.8202 2.37466 27.9835 4.31826 27.9835 6.64524C27.9835 8.34812 28.9375 9.81028 30.4977 10.47V15.9264C29.1426 16.1136 27.8587 16.5237 26.6908 17.1389C24.2301 15.2756 16.2149 9.49824 11.6323 6.01223C11.7393 5.61994 11.8106 5.20982 11.8106 4.78187C11.8106 2.21417 9.71543 0.127918 7.13882 0.127918C4.57112 0.127918 2.48486 2.21417 2.48486 4.78187C2.48486 7.35849 4.57112 9.44474 7.13882 9.44474C8.01255 9.44474 8.82387 9.18619 9.5282 8.76716L24.0785 18.9934ZM32.058 33.5793C28.6611 33.5793 25.9062 30.8244 25.9062 27.4276C25.9062 24.0307 28.6611 21.2758 32.058 21.2758C35.4548 21.2758 38.2098 24.0307 38.2098 27.4276C38.2098 30.8244 35.4548 33.5793 32.058 33.5793Z" fill="black"/>
</g>
<defs>
<clipPath id="clip0_201_6789">
<rect width="45.648" height="45.648" fill="white" transform="translate(0.238037 0.12793)"/>
</clipPath>
</defs>
</svg>
