<svg width="53" height="46" viewBox="0 0 53 46" fill="none" xmlns="http://www.w3.org/2000/svg">
<path d="M12.0835 14.8815C11.2181 14.8813 10.3722 15.1378 9.65257 15.6184C8.93298 16.0991 8.3721 16.7824 8.04087 17.5818C7.70963 18.3812 7.62292 19.261 7.7917 20.1097C7.96047 20.9584 8.37716 21.738 8.98905 22.3499C9.60095 22.9618 10.3806 23.3785 11.2293 23.5473C12.078 23.7161 12.9577 23.6294 13.7572 23.2981C14.5566 22.9669 15.2399 22.406 15.7205 21.6864C16.2012 20.9668 16.4576 20.1209 16.4575 19.2555C16.457 18.0956 15.996 16.9833 15.1758 16.1632C14.3556 15.343 13.2434 14.882 12.0835 14.8815ZM8.56536 38.0942H15.6034V25.566H8.56536V38.0942ZM22.069 19.2288C22.069 17.4456 21.1774 17.2201 20.3982 17.2201H19.1455V21.3025H20.3982C21.2674 21.3025 22.069 21.052 22.069 19.2288ZM40.0509 23.33V15.1891H42.0792V21.3025H45.0829C44.2591 10.2097 35.5316 7.81232 27.602 7.81232H19.1473V15.1953H20.3955C22.6779 15.1953 24.0955 16.7422 24.0955 19.2306C24.0955 21.7991 22.7118 23.3317 20.3955 23.3317H19.1473V38.0978H27.602C40.4949 38.0978 44.9821 32.1101 45.1408 23.33H40.0509ZM30.266 23.33H25.2509V15.1953H30.1037V17.2219H27.2748V18.1651H29.9495V20.1881H27.2748V21.3025H30.2624L30.266 23.33ZM36.9224 23.33L36.4623 21.7546H33.8108L33.349 23.33H31.2396L33.694 15.1882H36.5782L39.0327 23.3317L36.9224 23.33ZM27.6002 2.98094H3.73755V42.9229H27.6002C42.0302 42.9229 49.9784 35.8145 49.9784 22.9056C49.9758 15.4628 47.0675 2.98094 27.6002 2.98094ZM27.6002 41.0435H5.61607V4.85946H27.6002C40.2693 4.85946 48.0972 10.6198 48.0972 22.9056C48.0972 34.8605 40.8756 41.0435 27.6002 41.0435ZM35.0769 17.4305L34.4073 19.7316H35.8695L35.199 17.4305H35.0769Z" fill="black"/>
</svg>
