<svg width="41" height="46" viewBox="0 0 41 46" fill="none" xmlns="http://www.w3.org/2000/svg">
<g clip-path="url(#clip0_201_6785)">
<path d="M36.6044 2.98093H5.22139C2.85875 2.98093 0.941895 4.89779 0.941895 7.26043V38.6434C0.941895 41.0061 2.85875 42.9229 5.22139 42.9229H36.6044C38.967 42.9229 40.8839 41.0061 40.8839 38.6434V7.26043C40.8839 4.89779 38.967 2.98093 36.6044 2.98093ZM2.84092 20.5625H2.81418C2.82309 20.5536 2.83201 20.5358 2.84092 20.5269V20.5625ZM9.59005 28.6401H6.64789V17.2459H9.59005V28.6401ZM19.6825 28.6401H17.1238V20.937L16.0895 28.6401H14.2529L13.1652 21.1064V28.6401H10.5797V17.2459H14.3956C14.6898 19.0112 14.9305 20.8033 15.1712 22.5864L15.8488 17.2459H19.6825V28.6401ZM20.6989 28.6401V17.2459H22.8922C24.4613 17.2459 26.8774 17.1033 27.2608 19.1093C27.4124 19.7869 27.3856 20.5625 27.3856 21.2847C27.3856 29.175 28.3753 28.649 20.6989 28.6401ZM35.0442 26.0367C35.0442 27.4365 34.8302 28.7917 33.0649 28.7917C32.2625 28.7917 31.7097 28.5242 31.2015 27.9179L31.0321 28.6401H28.3753V17.2459H31.2015V20.9637C31.7365 20.3842 32.2714 20.1435 33.0649 20.1435C34.9728 20.1435 35.0442 21.2847 35.0442 22.8271V26.0367ZM24.5683 20.6249C24.5683 19.7601 24.7109 19.1984 23.65 19.1984V26.6608C24.7377 26.6876 24.5683 25.8852 24.5683 25.0203V20.6249ZM32.1912 22.9519C32.1912 22.4705 32.2892 21.8196 31.6384 21.8196C31.1034 21.8196 31.2015 22.6131 31.2015 22.9519C31.2015 23.0054 31.1034 26.4825 31.2996 26.9372C31.3709 27.0799 31.4957 27.1512 31.6384 27.1512C32.3338 27.1512 32.1912 26.3488 32.1912 25.8673V22.9519Z" fill="black"/>
</g>
<defs>
<clipPath id="clip0_201_6785">
<rect width="39.942" height="45.648" fill="white" transform="translate(0.941895 0.12793)"/>
</clipPath>
</defs>
</svg>
