<svg width="40" height="46" viewBox="0 0 40 46" fill="none" xmlns="http://www.w3.org/2000/svg">
<path d="M37.6731 14.3671C37.6657 13.9427 37.5477 13.5277 37.3309 13.1628C37.1142 12.7979 36.806 12.4959 36.4368 12.2865C36.0799 12.085 35.6766 11.9801 35.2668 11.9822C34.857 11.9842 34.4548 12.0932 34.0999 12.2983L6.59177 28.1807V15.8427C6.5926 15.6552 6.64289 15.4713 6.73754 15.3094C6.8322 15.1475 6.96788 15.0135 7.1309 14.9208L19.4412 7.81394C19.6037 7.72296 19.7868 7.67537 19.973 7.67576C20.1592 7.67615 20.3421 7.7245 20.5042 7.81617L23.4156 9.49703L10.0366 17.2213V22.214L32.0636 9.49703L21.4974 3.39812C20.5174 2.85168 19.5093 2.84045 18.484 3.37405L3.80885 11.8462C2.86076 12.3918 2.31361 13.3075 2.26733 14.4428V31.5162C2.28249 32.4198 2.72025 33.1809 3.46862 33.605C3.83221 33.811 4.24311 33.9189 4.661 33.9182C5.07889 33.9175 5.48942 33.8082 5.85231 33.6009L33.3488 17.7253V30.0539C33.3494 30.2407 33.3009 30.4243 33.2083 30.5865C33.1157 30.7487 32.9821 30.8838 32.821 30.9782L20.5075 38.088C20.3455 38.1802 20.1624 38.2292 19.976 38.2302C19.7896 38.2311 19.6061 38.1841 19.4432 38.0935L16.5257 36.4085L29.9037 28.6851V23.6924L7.87776 36.4085L18.469 42.5231C18.9347 42.79 19.463 42.9279 19.9997 42.9228C20.5364 42.9177 21.0621 42.7696 21.5226 42.4939L36.1912 34.0245C37.1493 33.4333 37.6756 32.4984 37.6733 31.3919L37.6731 14.3671Z" fill="black"/>
</svg>
