<svg width="41" height="47" viewBox="0 0 41 47" fill="none" xmlns="http://www.w3.org/2000/svg">
<g clip-path="url(#clip0_201_6781)">
<path d="M20.7837 18.5483C19.8432 18.5487 18.924 18.8279 18.1422 19.3507C17.3603 19.8734 16.7511 20.6163 16.3914 21.4853C16.0317 22.3543 15.9378 23.3104 16.1215 24.2328C16.3052 25.1552 16.7583 26.0024 17.4234 26.6673C18.0886 27.3322 18.936 27.7849 19.8584 27.9683C20.7809 28.1516 21.737 28.0573 22.6058 27.6973C23.4747 27.3374 24.2173 26.7278 24.7398 25.9458C25.2623 25.1638 25.5411 24.2444 25.5411 23.3039C25.5402 22.0426 25.0386 20.8333 24.1466 19.9416C23.2545 19.0499 22.045 18.5488 20.7837 18.5483ZM31.9024 14.8929C31.6603 14.2794 31.2947 13.7221 30.8283 13.2558C30.362 12.7894 29.8047 12.4238 29.1912 12.1817C27.3189 11.4426 22.8611 11.6084 20.7837 11.6084C18.7064 11.6084 14.253 11.4363 12.3754 12.1817C11.7619 12.4238 11.2046 12.7894 10.7382 13.2558C10.2719 13.7221 9.90627 14.2794 9.66418 14.8929C8.92596 16.7652 9.0909 21.2275 9.0909 23.303C9.0909 25.3786 8.92596 29.8355 9.66774 31.714C9.90984 32.3276 10.2754 32.8848 10.7418 33.3512C11.2082 33.8176 11.7654 34.1832 12.379 34.4253C14.2513 35.1644 18.7091 34.9985 20.7873 34.9985C22.8655 34.9985 27.3171 35.1706 29.1947 34.4253C29.8083 34.1832 30.3655 33.8176 30.8319 33.3512C31.2983 32.8848 31.6639 32.3276 31.906 31.714C32.6504 29.8417 32.4793 25.3795 32.4793 23.3039C32.4793 21.2284 32.6504 16.7723 31.906 14.8938L31.9024 14.8929ZM20.7837 30.6147C19.3378 30.6147 17.9243 30.186 16.7221 29.3826C15.5198 28.5793 14.5828 27.4375 14.0294 26.1016C13.4761 24.7658 13.3313 23.2958 13.6134 21.8777C13.8955 20.4595 14.5918 19.1568 15.6142 18.1344C16.6367 17.112 17.9393 16.4157 19.3575 16.1336C20.7756 15.8515 22.2456 15.9963 23.5815 16.5496C24.9173 17.103 26.0591 18.04 26.8625 19.2423C27.6658 20.4445 28.0946 21.858 28.0946 23.3039C28.0957 24.2643 27.9074 25.2155 27.5404 26.103C27.1735 26.9906 26.635 27.797 25.9559 28.4761C25.2768 29.1552 24.4704 29.6936 23.5829 30.0606C22.6953 30.4276 21.7441 30.6159 20.7837 30.6147ZM28.3959 17.3929C28.0584 17.393 27.7283 17.2931 27.4476 17.1057C27.1669 16.9183 26.948 16.6519 26.8187 16.3401C26.6894 16.0283 26.6555 15.6851 26.7212 15.354C26.787 15.023 26.9494 14.7188 27.188 14.4801C27.4267 14.2413 27.7307 14.0787 28.0618 14.0128C28.3928 13.9469 28.736 13.9806 29.0478 14.1098C29.3597 14.2389 29.6263 14.4576 29.8138 14.7383C30.0014 15.0189 30.1015 15.3489 30.1015 15.6864C30.1024 15.9106 30.0591 16.1327 29.974 16.3401C29.8889 16.5474 29.7637 16.736 29.6055 16.8948C29.4474 17.0537 29.2595 17.1798 29.0525 17.2659C28.8455 17.3519 28.6236 17.3963 28.3995 17.3964L28.3959 17.3929ZM36.4752 3.33292H5.09224C3.95725 3.33292 2.86874 3.7838 2.06618 4.58636C1.26362 5.38892 0.812744 6.47743 0.812744 7.61242L0.812744 38.9954C0.812744 40.1304 1.26362 41.2189 2.06618 42.0215C2.86874 42.824 3.95725 43.2749 5.09224 43.2749H36.4752C37.6102 43.2749 38.6987 42.824 39.5013 42.0215C40.3039 41.2189 40.7547 40.1304 40.7547 38.9954V7.61242C40.7547 6.47743 40.3039 5.38892 39.5013 4.58636C38.6987 3.7838 37.6102 3.33292 36.4752 3.33292ZM34.9489 29.1882C34.8339 31.4733 34.3123 33.498 32.6442 35.1617C30.9761 36.8254 28.9531 37.3576 26.6707 37.4664C24.3161 37.5992 17.2567 37.5992 14.9021 37.4664C12.617 37.3514 10.5994 36.8289 8.92864 35.1617C7.25785 33.4945 6.73272 31.4688 6.62395 29.1882C6.4911 26.8327 6.4911 19.7724 6.62395 17.4196C6.73896 15.1345 7.25428 13.1098 8.92864 11.4461C10.603 9.78249 12.6259 9.25646 14.9021 9.14769C17.2567 9.01485 24.3161 9.01485 26.6707 9.14769C28.9558 9.2627 30.9796 9.78516 32.6442 11.4524C34.3087 13.1196 34.8401 15.1452 34.9489 17.4303C35.0817 19.7769 35.0817 26.8309 34.9489 29.1882Z" fill="black"/>
</g>
<defs>
<clipPath id="clip0_201_6781">
<rect width="39.942" height="45.648" fill="white" transform="translate(0.812744 0.479919)"/>
</clipPath>
</defs>
</svg>
