<svg width="41" height="47" viewBox="0 0 41 47" fill="none" xmlns="http://www.w3.org/2000/svg">
<g clip-path="url(#clip0_201_6779)">
<path d="M20.8501 13.0509C15.1798 13.0509 10.6061 17.6247 10.6061 23.295C10.6061 28.9653 15.1798 33.539 20.8501 33.539C26.5205 33.539 31.0942 28.9653 31.0942 23.295C31.0942 17.6247 26.5205 13.0509 20.8501 13.0509ZM20.8501 29.955C17.1858 29.955 14.1902 26.9682 14.1902 23.295C14.1902 19.6218 17.1769 16.635 20.8501 16.635C24.5234 16.635 27.5101 19.6218 27.5101 23.295C27.5101 26.9682 24.5144 29.955 20.8501 29.955ZM33.9026 12.6319C33.9026 13.9603 32.8327 15.0213 31.5132 15.0213C30.1848 15.0213 29.1238 13.9514 29.1238 12.6319C29.1238 11.3124 30.1937 10.2425 31.5132 10.2425C32.8327 10.2425 33.9026 11.3124 33.9026 12.6319ZM40.6874 15.057C40.5358 11.8563 39.8047 9.02108 37.4599 6.68519C35.124 4.3493 32.2889 3.61822 29.0882 3.45774C25.7894 3.27051 15.902 3.27051 12.6032 3.45774C9.41138 3.6093 6.57621 4.34038 4.2314 6.67628C1.88659 9.01217 1.16443 11.8473 1.00395 15.048C0.816718 18.3468 0.816718 28.2343 1.00395 31.533C1.15551 34.7337 1.88659 37.5689 4.2314 39.9048C6.57621 42.2407 9.40246 42.9718 12.6032 43.1323C15.902 43.3195 25.7894 43.3195 29.0882 43.1323C32.2889 42.9807 35.124 42.2496 37.4599 39.9048C39.7958 37.5689 40.5269 34.7337 40.6874 31.533C40.8746 28.2343 40.8746 18.3557 40.6874 15.057ZM36.4257 35.0725C35.7303 36.82 34.384 38.1663 32.6277 38.8706C29.9976 39.9137 23.7566 39.673 20.8501 39.673C17.9436 39.673 11.6938 39.9048 9.07258 38.8706C7.32512 38.1752 5.97886 36.8289 5.27453 35.0725C4.2314 32.4424 4.47212 26.2015 4.47212 23.295C4.47212 20.3885 4.24032 14.1387 5.27453 11.5175C5.96995 9.77 7.31621 8.42374 9.07258 7.7194C11.7027 6.67627 17.9436 6.917 20.8501 6.917C23.7566 6.917 30.0065 6.68519 32.6277 7.7194C34.3751 8.41482 35.7214 9.76108 36.4257 11.5175C37.4688 14.1476 37.2281 20.3885 37.2281 23.295C37.2281 26.2015 37.4688 32.4513 36.4257 35.0725Z" fill="black"/>
</g>
<defs>
<clipPath id="clip0_201_6779">
<rect width="39.942" height="45.648" fill="white" transform="translate(0.870605 0.479919)"/>
</clipPath>
</defs>
</svg>
