<svg width="47" height="47" viewBox="0 0 47 47" fill="none" xmlns="http://www.w3.org/2000/svg">
<path d="M7.39496 3.57988C5.45848 4.72999 1.6426 9.11381 1.60693 10.263V12.1656C1.60693 14.5782 3.86169 16.6983 5.90872 16.6983C8.36676 16.6983 10.4147 14.6611 10.4147 12.2405C10.4147 14.6584 12.3922 16.6983 14.8511 16.6983C17.31 16.6983 19.2197 14.6611 19.2197 12.2405C19.2197 14.6584 21.3229 16.6983 23.781 16.6983H23.8256C26.2836 16.6983 28.3868 14.6611 28.3868 12.2405C28.3868 14.6584 30.301 16.6983 32.7554 16.6983C35.2099 16.6983 37.1919 14.6611 37.1919 12.2405C37.1919 14.6584 39.2425 16.6983 41.6978 16.6983C43.7484 16.6983 45.9996 14.5782 45.9996 12.1656V10.263C45.9639 9.11292 42.1481 4.7291 40.2116 3.57631C34.1989 3.36858 30.0264 3.33292 23.8068 3.33292C17.5873 3.33292 9.10854 3.43099 7.39496 3.57988ZM19.1921 15.5616C17.2307 18.9852 12.2468 19.0128 10.2899 15.5839C9.11567 17.6469 6.44098 18.4431 5.29711 18.0499C4.95208 21.6296 4.07834 39.1916 6.87785 42.0463C14.0103 43.7109 33.8102 43.6618 40.7358 42.0463C43.5576 39.1693 42.6366 21.3621 42.3183 18.0499C41.1664 18.4458 38.4953 17.6398 37.3256 15.5839C35.3642 19.0182 30.3848 18.9807 28.4233 15.5625C27.7903 16.676 26.3683 18.1427 23.8086 18.1427C22.8778 18.1719 21.9566 17.9472 21.1438 17.4926C20.331 17.0381 19.6572 16.3708 19.1948 15.5625L19.1921 15.5616ZM15.485 20.3555C16.9534 20.3555 18.2569 20.3555 19.8733 22.119C22.4872 21.8539 25.1212 21.8539 27.7351 22.119C29.3541 20.3618 30.6585 20.3618 32.126 20.3618C36.7915 20.3618 37.9408 27.274 39.6035 33.2404C41.1424 38.7814 39.1114 38.917 36.5767 38.9223C32.8187 38.7823 30.7378 36.0533 30.7378 33.3242C27.2385 33.8975 21.6501 34.1079 16.8696 33.3242C16.8696 36.0533 14.7887 38.7823 11.0307 38.9223C8.49693 38.917 6.46595 38.7814 8.00479 33.2404C9.66933 27.2669 10.8186 20.3618 15.4832 20.3618L15.485 20.3555ZM23.8068 24.6225C23.8068 24.6225 19.8501 28.2574 19.1395 29.5448L21.725 29.4405V31.698C21.725 31.8362 23.6276 31.7122 23.8051 31.7122C24.8437 31.7604 25.8833 31.8014 25.8833 31.698V29.4441L28.4688 29.5484C27.7556 28.2574 23.8015 24.6234 23.8015 24.6234L23.8068 24.6225Z" fill="black"/>
</svg>
