<svg width="35" height="47" viewBox="0 0 35 47" fill="none" xmlns="http://www.w3.org/2000/svg">
<g clip-path="url(#clip0_201_6765)">
<path d="M34.7963 35.0904C34.2257 37.5332 32.3713 38.9062 29.8838 39.3699C27.6995 39.7711 25.8807 39.8691 24.1332 38.4605C22.0024 36.6684 21.9757 33.6995 23.8925 31.8272C25.4082 30.3829 27.539 30.0887 30.7397 29.527C31.2747 29.4289 31.7383 29.3041 32.1306 28.8672C32.7012 28.2253 32.5228 28.5017 32.5228 14.317C32.5228 13.3184 32.0325 13.042 31.0072 13.2203C30.2761 13.3451 14.4509 16.3051 14.4509 16.3051C13.5415 16.5013 13.2562 16.7687 13.2562 17.794C13.2562 38.719 13.3543 37.7561 13.0333 39.147C12.6588 40.7696 11.6603 41.991 10.3408 42.6686C8.84295 43.4978 6.1326 43.8633 4.68827 43.5959C0.836723 42.8737 -0.518452 38.4248 2.09383 35.8749C3.60948 34.4306 5.74031 34.1364 8.94102 33.5747C9.47596 33.4766 9.93957 33.3518 10.3319 32.9149C11.2323 31.8896 10.4923 10.0375 10.7955 8.82493C10.8668 8.36131 11.0629 7.96903 11.4285 7.67481C11.8029 7.36276 12.4805 7.18445 12.6232 7.18445C30.811 3.77868 33.031 3.34182 33.3431 3.34182C34.3684 3.27049 34.9568 3.87676 34.9568 4.91097C34.9746 35.6253 35.0549 33.9759 34.7963 35.0904Z" fill="black"/>
</g>
<defs>
<clipPath id="clip0_201_6765">
<rect width="34.236" height="45.648" fill="white" transform="translate(0.74707 0.479919)"/>
</clipPath>
</defs>
</svg>
