<svg width="41" height="47" viewBox="0 0 41 47" fill="none" xmlns="http://www.w3.org/2000/svg">
<g clip-path="url(#clip0_201_6763)">
<path d="M20.7403 7.63916C12.3061 7.63916 5.48563 14.4774 5.48563 22.9027C5.48563 31.328 12.3061 38.1752 20.7403 38.1752C29.1744 38.1752 36.0038 31.3369 36.0038 22.9116C36.0038 14.4774 29.1655 7.63916 20.7403 7.63916ZM27.8193 29.0367C27.534 30.2492 26.6157 30.9268 25.3853 31.1586C24.3065 31.3547 23.406 31.4082 22.5412 30.7128C21.4892 29.8212 21.4713 28.3591 22.4164 27.4318C23.1653 26.7186 24.2263 26.5759 25.8043 26.2906C26.0718 26.2461 26.3036 26.1837 26.4908 25.9608C26.7761 25.6398 26.687 25.7825 26.687 18.7569C26.687 18.2577 26.4463 18.1239 25.9381 18.2131C25.5814 18.2755 17.7446 19.7377 17.7446 19.7377C17.2988 19.8357 17.1473 19.9695 17.1473 20.4777C17.1473 30.8287 17.1918 30.3562 17.0403 31.0427C16.8531 31.8451 16.3627 32.4513 15.7119 32.7901C14.9719 33.2003 13.6256 33.3786 12.9123 33.2537C11.0044 32.8971 10.3357 30.695 11.6285 29.4289C12.3774 28.7157 13.4384 28.573 15.0164 28.2877C15.2839 28.2432 15.5157 28.1808 15.7029 27.9579C16.1487 27.4497 15.7832 16.635 15.9347 16.0377C15.9704 15.8059 16.0685 15.6097 16.2468 15.4671C16.434 15.3155 16.7639 15.2264 16.8441 15.2264C25.8489 13.5324 26.9455 13.3184 27.106 13.3184C27.6142 13.2828 27.9084 13.5859 27.9084 14.0941C27.8995 29.3041 27.9441 28.4839 27.8193 29.0367ZM31.5817 3.33292H9.97019C4.8972 3.33292 0.804932 7.42519 0.804932 12.4982V34.1096C0.804932 39.1826 4.8972 43.2749 9.97019 43.2749H31.5817C36.6636 43.2749 40.7469 39.1826 40.7469 34.1096V12.4982C40.7469 7.42519 36.6547 3.33292 31.5817 3.33292ZM20.7403 40.0653C11.263 40.0653 3.57769 32.38 3.57769 22.9027C3.57769 13.4254 11.263 5.74013 20.7403 5.74013C30.2176 5.74013 37.9028 13.4254 37.9028 22.9027C37.9028 32.38 30.2176 40.0653 20.7403 40.0653Z" fill="black"/>
</g>
<defs>
<clipPath id="clip0_201_6763">
<rect width="39.942" height="45.648" fill="white" transform="translate(0.804932 0.479919)"/>
</clipPath>
</defs>
</svg>
