<svg width="41" height="47" viewBox="0 0 41 47" fill="none" xmlns="http://www.w3.org/2000/svg">
<g clip-path="url(#clip0_201_6759)">
<path d="M36.1553 33.7887C44.7054 22.9027 37.6888 13.0064 37.6888 13.0064C41.7365 20.656 33.9978 28.2075 33.9978 28.2075C43.3592 12.9172 28.6038 4.00158 28.6038 4.00158C37.243 10.4832 27.7033 21.0037 27.7033 21.0037C35.3529 35.126 21.5872 41.5185 21.5872 41.5185C21.5872 41.5185 21.5515 40.0118 21.3911 33.8778C21.7744 34.279 24.467 37.1053 24.467 37.1053L22.3094 32.8793L27.8905 32.068L22.3094 31.2566L24.1103 26.3085L21.3108 30.4007C21.1147 22.5817 20.6154 3.19918 20.6065 3.0387C20.6065 3.12785 20.1072 22.5639 19.9022 30.4007L17.1026 26.3085L18.9036 31.2566L13.3224 32.068L18.9036 32.8793L16.746 37.1053L19.8219 33.8778C19.6614 40.0118 19.6258 41.5185 19.6258 41.5185C19.6258 41.5185 5.86004 35.126 13.5096 21.0037C13.5096 21.0037 3.96993 10.4743 12.6092 4.00158C12.6092 4.00158 -2.14619 12.9083 7.21522 28.2075C7.21522 28.2075 -0.523542 20.6471 3.52415 13.0064C3.52415 13.0064 -3.49244 22.9027 5.05764 33.7887C5.05764 33.7887 2.72175 32.3533 0.65332 26.8612C0.65332 26.8612 2.16006 43.2036 20.446 43.4176H20.8115C39.0886 43.2036 40.6042 26.8612 40.6042 26.8612C38.5001 32.3444 36.1553 33.7887 36.1553 33.7887Z" fill="black"/>
</g>
<defs>
<clipPath id="clip0_201_6759">
<rect width="39.942" height="45.648" fill="white" transform="translate(0.626953 0.479919)"/>
</clipPath>
</defs>
</svg>
