<svg width="45" height="47" viewBox="0 0 45 47" fill="none" xmlns="http://www.w3.org/2000/svg">
<g clip-path="url(#clip0_201_6753)">
<path d="M34.2453 4.49196C30.6345 2.25414 26.6224 1.19318 22.6639 1.19318C15.2461 1.19318 8.0066 4.92882 3.82517 11.7047C-2.58516 22.1003 0.65121 35.7145 11.0468 42.1248C21.4424 48.5351 35.0566 45.2988 41.4669 34.9121C47.8773 24.5164 44.6409 10.8934 34.2453 4.49196ZM38.8636 33.3073C35.2617 39.147 29.0207 42.3566 22.6371 42.3566C22.0309 42.3566 21.4246 42.3209 20.8183 42.2675C20.0159 41.0549 19.0441 39.2985 18.7053 38.4872C18.1972 37.2658 16.2803 34.4217 21.487 32.5048C26.0964 30.802 37.2409 31.0338 40.1028 30.9357C39.7462 31.7381 39.3361 32.5316 38.8636 33.3073ZM20.961 25.6131C16.0128 25.4882 13.6769 23.7586 15.7454 21.3157C17.8138 18.8729 20.3012 17.6871 21.8882 16.7509C23.4841 15.8148 24.3222 13.7464 19.7841 14.103C8.31864 14.8787 4.8683 22.9562 3.88758 26.6027C3.10301 22.1716 3.87866 17.4464 6.42853 13.3095C11.9473 4.34931 23.6803 1.56763 32.6405 7.0864C39.3094 11.1965 42.5546 18.757 41.4937 26.0499C39.2737 26.0054 25.508 25.729 20.961 25.6131ZM37.3479 20.7273C35.3241 20.1924 32.266 21.7348 29.6181 23.1524C26.9701 24.561 26.8453 23.8834 26.8453 23.8834C26.8453 23.8834 30.4294 21.3781 31.3655 20.8075C32.3017 20.2369 34.2096 19.5594 32.5602 18.6143C32.2749 18.4538 31.9629 18.3736 31.633 18.3736C30.046 18.3736 27.933 20.0408 25.615 21.5475C22.8065 23.3752 19.7931 24.3381 19.7931 24.3381L34.905 24.1955L39.0508 22.1092C39.0508 22.1092 39.3718 21.2622 37.3479 20.7273Z" fill="black"/>
</g>
<defs>
<clipPath id="clip0_201_6753">
<rect width="44.2215" height="45.648" fill="white" transform="translate(0.535889 0.479919)"/>
</clipPath>
</defs>
</svg>
