<svg width="41" height="47" viewBox="0 0 41 47" fill="none" xmlns="http://www.w3.org/2000/svg">
<g clip-path="url(#clip0_201_6751)">
<path d="M0.647244 8.69118C0.647244 5.72228 3.03663 3.33289 5.97879 3.33289C8.65347 3.33289 10.8378 5.28541 11.2568 7.80853C14.1633 7.13095 17.2392 7.86203 19.8604 10.4832L15.9108 14.4328C14.0831 12.6051 12.1127 12.9796 10.9715 14.1208C9.6966 15.3957 9.6966 17.4998 10.9715 18.7747L19.8426 27.6458L15.9197 31.5954C8.1007 23.821 11.4886 27.1644 7.02191 22.7065C4.63253 20.3439 3.90145 16.9292 4.81084 13.889C2.41254 13.3719 0.647244 11.241 0.647244 8.69118ZM12.193 19.069L16.1426 23.0186C17.0342 22.127 24.1399 15.0213 25.0315 14.1208C26.3064 12.8459 28.3837 12.8459 29.6587 14.1208C30.7999 15.262 31.1743 17.2413 29.3466 19.0601L33.2695 23.0097C36.0512 20.228 36.702 16.9827 35.8461 13.9871C38.4495 13.6215 40.4733 11.3837 40.4733 8.68226C40.4733 5.72228 38.0839 3.32397 35.1418 3.32397C32.4404 3.32397 30.2025 5.32999 29.837 7.92444C26.8235 7.04179 23.4445 7.7907 21.0729 10.1623C19.4414 11.8651 14.7339 16.5369 12.193 19.069ZM35.9353 32.6385C36.6664 29.7231 35.855 26.5313 33.5905 24.2668C32.5384 23.1791 34.0363 24.6858 24.7194 15.3779L20.7698 19.3275L29.6587 28.2164C30.9336 29.4913 30.9336 31.5687 29.6587 32.8436C28.5175 33.9848 26.5382 34.3593 24.7194 32.5316L20.7966 36.4812C23.2573 39.1737 26.8592 39.9404 29.9529 38.9776C30.4433 41.4204 32.6008 43.266 35.2042 43.266C38.1464 43.266 40.5357 40.8766 40.5357 37.9077C40.5357 35.2152 38.5297 33.0041 35.9353 32.6385ZM28.4194 27.9043L24.4965 23.9547C16.7399 31.6578 20.0031 28.4482 15.6077 32.8525C14.3327 34.1275 12.2554 34.1275 10.9805 32.8525C9.8125 31.6578 9.47371 29.7053 11.2658 27.9133L7.34288 23.9636C4.65036 26.6562 3.95494 29.7766 4.71277 32.7277C2.3323 33.2626 0.59375 35.3935 0.59375 37.9166C0.59375 40.8855 2.98314 43.2749 5.92529 43.2749C8.47516 43.2749 10.606 41.5096 11.1498 39.1113C14.0653 39.8424 17.257 39.0578 19.5484 36.7932C22.4103 33.9402 20.6361 35.6877 28.4194 27.9043Z" fill="black"/>
</g>
<defs>
<clipPath id="clip0_201_6751">
<rect width="39.942" height="45.648" fill="white" transform="translate(0.593994 0.479919)"/>
</clipPath>
</defs>
</svg>
