<svg width="41" height="47" viewBox="0 0 41 47" fill="none" xmlns="http://www.w3.org/2000/svg">
<g clip-path="url(#clip0_201_6747)">
<path d="M0.709229 3.33292V43.2749H40.6512V3.33292H0.709229ZM22.4455 34.4841C22.4455 38.3713 20.1631 40.1455 16.8376 40.1455C13.833 40.1455 12.0945 38.5942 11.2029 36.713L14.261 34.8675C14.8494 35.9106 15.3843 36.7933 16.6771 36.7933C17.9075 36.7933 18.692 36.3118 18.692 34.4306V21.6724H22.4455V34.4841ZM31.3255 40.1455C27.8395 40.1455 25.5838 38.4872 24.4872 36.3118L27.5453 34.5465C28.3477 35.8571 29.3997 36.8289 31.2452 36.8289C32.7966 36.8289 33.7951 36.0533 33.7951 34.9745C33.7951 33.6906 32.7787 33.2359 31.058 32.4781L30.1219 32.0769C27.4115 30.9268 25.6195 29.4735 25.6195 26.4155C25.6195 23.5981 27.7681 21.4584 31.1115 21.4584C33.5009 21.4584 35.2127 22.2875 36.443 24.4629L33.5187 26.3352C32.8768 25.1851 32.1814 24.7304 31.1026 24.7304C30.006 24.7304 29.3105 25.4258 29.3105 26.3352C29.3105 27.4586 30.006 27.9133 31.6197 28.6176L32.5558 29.0188C35.7476 30.3829 37.5397 31.7827 37.5397 34.921C37.5397 38.2911 34.8828 40.1455 31.3255 40.1455Z" fill="black"/>
</g>
<defs>
<clipPath id="clip0_201_6747">
<rect width="39.942" height="45.648" fill="white" transform="translate(0.709961 0.479919)"/>
</clipPath>
</defs>
</svg>
