<svg width="52" height="47" viewBox="0 0 52 47" fill="none" xmlns="http://www.w3.org/2000/svg">
<g clip-path="url(#clip0_201_6745)">
<path d="M45.8825 21.6511C45.4611 21.4174 45.3775 21.1387 45.3136 20.6904C45.1039 19.2204 44.9981 17.693 44.5025 16.3133C41.3023 7.40147 30.7734 3.5295 22.4944 8.14244C20.0542 9.50207 18.1283 11.385 16.6553 13.8398C16.3714 13.7053 16.1687 13.5982 15.9577 13.5112C13.274 12.4038 10.6932 12.6088 8.34995 14.3285C6.0737 15.999 5.1027 18.3002 5.43668 21.1407C5.46833 21.4104 5.26131 21.8202 5.03423 21.9917C1.49366 24.6657 0.0387161 28.9517 1.2984 33.1019C2.53152 37.1647 6.42614 40.2162 10.714 40.3622C13.4146 40.4541 16.1202 40.4108 18.8236 40.4102C26.3164 40.4083 33.8098 40.4576 41.3016 40.3674C45.997 40.3109 49.8703 37.08 50.9494 32.5847C51.9783 28.2986 49.9559 23.9098 45.8825 21.6511ZM47.7643 35.638C46.139 37.6379 43.9892 38.781 41.4093 38.8164C36.3386 38.886 31.2662 38.8369 26.1946 38.8369C26.1946 38.8993 11.6596 38.8511 11.5972 38.8506C7.68672 38.821 4.75544 37.0884 3.11175 33.5017C1.42652 29.8244 2.75477 25.402 6.15965 23.1501C6.97828 22.6087 7.27455 22.1189 7.05977 21.0874C6.5703 18.7371 7.45678 16.8118 9.41528 15.4722C11.4647 14.0704 13.6432 14.0327 15.8376 15.1974C16.7531 15.6833 17.1399 16.2284 17.8166 14.9721C19.0846 12.6184 20.8976 10.8061 23.2258 9.50733C31.915 4.66027 43.5865 10.1821 43.7532 21.3381C43.7641 22.0647 43.9682 22.4461 44.6312 22.7551C49.763 25.1471 51.2694 31.325 47.7643 35.638ZM39.9374 28.461C39.416 31.2388 36.8506 33.3731 33.9937 33.373C32.4822 33.3729 31.1355 32.7895 30.0638 31.7945C27.5944 29.502 23.7211 25.1096 21.5104 23.4685C19.7223 22.1411 17.7667 22.3689 16.1368 23.8057C11.6793 27.7349 17.5507 34.6627 22.1159 30.6875C22.5213 30.3344 22.8148 29.8366 23.2521 29.5423C23.9817 29.0512 25.1035 29.4635 24.4261 30.4894C22.8785 32.8327 20.028 33.8949 17.3949 33.1017C14.8186 32.3257 13.0405 29.895 13.0596 26.8448C13.1688 24.8402 14.162 23.0058 16.217 21.8552C18.2297 20.7284 20.3511 20.6832 22.1897 22.0758C26.718 25.5061 28.9279 29.3639 31.7558 31.1024C33.9453 32.4486 36.5929 31.7589 37.8918 29.5416C40.4622 25.1543 34.8077 20.1788 30.8602 23.8838C30.5046 24.2176 30.2435 24.6801 29.8429 24.9287C28.8644 25.5359 28.2976 24.562 28.7009 24.0057C30.5467 21.4599 33.2001 20.4002 36.1251 21.4902C38.9271 22.5346 40.5033 25.4457 39.9374 28.461Z" fill="black"/>
</g>
<defs>
<clipPath id="clip0_201_6745">
<rect width="51.354" height="45.648" fill="white" transform="translate(0.355957 0.479919)"/>
</clipPath>
</defs>
</svg>
