<svg width="30" height="47" viewBox="0 0 30 47" fill="none" xmlns="http://www.w3.org/2000/svg">
<g clip-path="url(#clip0_201_6743)">
<path d="M27.9481 45.1918L14.9491 29.0366L27.4132 16.9738C27.645 16.7331 27.5647 16.0377 26.9406 16.0377H20.771C20.459 16.0377 20.1469 16.1981 19.8349 16.5102L8.0395 28.4304V1.14858C8.0395 0.702795 7.81661 0.479904 7.37083 0.479904H2.74362C2.29784 0.479904 2.07495 0.702795 2.07495 1.14858V45.4592C2.07495 45.905 2.29784 46.1279 2.74362 46.1279H7.37083C7.81661 46.1279 8.0395 45.905 8.0395 45.4592V35.7412L10.7855 33.1289L20.6373 45.6643C20.9047 45.9763 21.2168 46.1368 21.5734 46.1368H27.538C27.85 46.1368 28.0283 46.0477 28.0729 45.8693L27.9481 45.1918Z" fill="black"/>
</g>
<defs>
<clipPath id="clip0_201_6743">
<rect width="28.53" height="45.648" fill="white" transform="translate(0.825928 0.479919)"/>
</clipPath>
</defs>
</svg>
