<svg width="41" height="47" viewBox="0 0 41 47" fill="none" xmlns="http://www.w3.org/2000/svg">
<path d="M26.3975 37.8364C26.0801 37.8364 25.7698 37.9305 25.5059 38.1068C25.242 38.2832 25.0363 38.5338 24.9148 38.827C24.7934 39.1203 24.7616 39.443 24.8235 39.7543C24.8854 40.0656 25.0383 40.3515 25.2627 40.576C25.4872 40.8004 25.7731 40.9532 26.0844 41.0152C26.3957 41.0771 26.7184 41.0453 27.0116 40.9238C27.3049 40.8024 27.5555 40.5967 27.7318 40.3328C27.9082 40.0689 28.0023 39.7586 28.0023 39.4412C28.0023 39.0156 27.8332 38.6074 27.5323 38.3064C27.2313 38.0054 26.8231 37.8364 26.3975 37.8364ZM36.3759 24.6769C35.5289 23.3734 32.8658 20.0007 28.5961 18.1052C28.0552 17.8639 27.509 17.6478 26.9574 17.457C27.3202 16.5702 27.4968 15.6183 27.4764 14.6603C27.4559 13.7024 27.2388 12.7589 26.8385 11.8883C26.4382 11.0178 25.8633 10.2388 25.1494 9.59973C24.4356 8.96064 23.5979 8.47508 22.6886 8.17319C21.5822 7.80765 20.6086 7.63826 19.799 7.65876C19.7455 7.48045 19.6305 6.67804 20.6371 4.53829L18.5954 3.3329L18.1068 4.00692C17.3321 5.08215 16.5983 6.10655 15.9368 7.11758C15.6939 7.06021 15.4467 7.02294 15.1977 7.00614C11.495 6.7877 11.7206 6.7984 11.5369 6.7984C7.02473 6.7984 7.01225 11.4452 7.01225 10.8889L6.80184 14.1591C6.6583 16.5664 8.56268 18.6357 11.0484 18.7819L11.8445 18.83C10.3306 19.6928 8.94201 20.7589 7.71747 21.9986C2.13184 27.6422 2.13184 33.8243 2.13184 38.7966V41.7958L4.21096 39.1389C4.48966 40.3089 4.92638 41.4355 5.50907 42.4876C6.0244 43.3908 6.83483 43.3302 7.2601 43.1412C7.63545 42.9744 8.15166 42.5242 7.59444 41.3482C6.88204 39.8522 6.40795 38.2539 6.18934 36.6114L10.3636 31.2771L8.16504 37.8845C13.3566 34.1043 22.1964 32.3782 29.2282 34.444C32.2773 35.34 35.2418 34.5055 36.7833 32.3185C36.8475 32.2293 36.8903 32.1259 36.9482 32.0314C37.1088 32.8669 37.1923 33.7154 37.1979 34.5661C37.1979 36.6435 36.8689 39.2852 35.8712 41.8448C35.6466 42.4208 36.0281 43.1376 36.638 43.2481C37.2995 43.3881 38.0047 42.9718 38.2758 42.2541C39.1317 39.9761 39.5775 37.3906 39.5775 34.5661C39.5775 31.1265 38.4184 27.6601 36.3759 24.6769ZM13.5768 11.9436L12.1771 11.8607L12.0531 13.8034L13.2238 13.873C13.1719 14.4539 13.1814 15.0388 13.2523 15.6177L11.257 15.4983C11.1132 15.4923 10.9721 15.4581 10.8416 15.3975C10.7111 15.337 10.5938 15.2513 10.4964 15.1454C10.399 15.0395 10.3235 14.9155 10.2741 14.7803C10.2247 14.6452 10.2024 14.5017 10.2085 14.358L10.4234 11.0895C10.5125 10.0045 11.66 10.0847 11.6056 10.0802L14.2009 10.2345C13.9528 10.7888 13.7443 11.3599 13.5768 11.9436ZM26.8094 27.2945C26.6205 27.4409 26.3829 27.5096 26.1451 27.4865C25.9073 27.4635 25.6873 27.3505 25.53 27.1706L24.667 26.1462L21.5982 28.5534C21.4522 28.6682 21.2676 28.7223 21.0827 28.7043C20.8979 28.6864 20.7271 28.5978 20.6059 28.4571L19.199 26.7953C19.0928 26.6571 19.0457 26.4824 19.0681 26.3096C19.0905 26.1368 19.1805 25.9799 19.3185 25.8734L22.4006 23.4501L21.1399 21.9576L19.6163 23.1568C19.4772 23.2652 19.302 23.3163 19.1265 23.2998C18.9509 23.2832 18.7884 23.2001 18.6721 23.0676C18.6721 23.0676 18.3404 22.6736 18.3333 22.6638C18.2274 22.5253 18.1807 22.3504 18.2036 22.1775C18.2265 22.0047 18.3171 21.848 18.4555 21.7419L19.9631 20.557C19.9631 20.557 18.3128 18.5956 18.3048 18.5831C18.2363 18.4944 18.186 18.393 18.1567 18.2849C18.1275 18.1767 18.1198 18.0638 18.1342 17.9527C18.1486 17.8415 18.1848 17.7343 18.2407 17.6372C18.2966 17.5401 18.3711 17.4549 18.4599 17.3866C18.6472 17.2386 18.8843 17.1687 19.1219 17.1915C19.3595 17.2143 19.5791 17.3279 19.7348 17.5087L26.9645 26.0963C27.033 26.1851 27.0834 26.2866 27.1127 26.3949C27.142 26.5032 27.1496 26.6163 27.1352 26.7275C27.1208 26.8388 27.0846 26.9462 27.0287 27.0435C26.9728 27.1407 26.8983 27.2261 26.8094 27.2945ZM17.5951 37.8364C17.2777 37.8364 16.9674 37.9305 16.7035 38.1068C16.4396 38.2832 16.2339 38.5338 16.1124 38.827C15.991 39.1203 15.9592 39.443 16.0211 39.7543C16.083 40.0656 16.2359 40.3515 16.4603 40.576C16.6848 40.8004 16.9707 40.9532 17.282 41.0152C17.5933 41.0771 17.916 41.0453 18.2092 40.9238C18.5025 40.8024 18.7531 40.5967 18.9294 40.3328C19.1058 40.0689 19.1999 39.7586 19.1999 39.4412C19.1999 39.0156 19.0308 38.6074 18.7299 38.3064C18.4289 38.0054 18.0207 37.8364 17.5951 37.8364Z" fill="black"/>
</svg>
