<svg width="46" height="47" viewBox="0 0 46 47" fill="none" xmlns="http://www.w3.org/2000/svg">
<g clip-path="url(#clip0_201_6739)">
<path d="M5.92401 36.9716L11.318 31.7113C14.1799 35.5272 17.657 37.5957 22.6051 37.7205C25.3244 37.7829 27.9813 37.0964 30.3082 35.7234C30.7629 36.1959 31.9576 37.4619 32.1716 37.6848C29.3008 39.5303 25.9663 40.4576 22.5338 40.3773C18.6733 40.2793 14.9912 38.8884 12.0401 36.4188C12.0669 36.3653 8.63436 39.7621 8.59869 39.7978C9.44568 42.4547 7.43075 45.3612 4.47076 45.3612C2.08137 45.3522 0.23584 43.4265 0.23584 41.0371C0.23584 37.979 3.18691 35.9908 5.92401 36.9716ZM37.5656 14.4685C39.2684 17.2591 40.2046 20.4777 40.1243 23.7408C40.0263 27.735 38.4304 31.5419 35.7913 34.5287C35.8181 34.5554 37.9133 36.7754 37.94 36.8022C38.7959 36.6863 39.6518 36.9805 40.2492 37.6135C41.2566 38.6834 41.221 40.3684 40.1511 41.3937C39.0812 42.4012 37.3962 42.3655 36.3709 41.2956C35.7735 40.6715 35.5328 39.7978 35.6933 38.9508C33.4733 36.5793 31.7347 34.7427 31.7347 34.7427C35.5417 31.7024 37.3783 27.6458 37.4764 23.6694C37.5388 21.0928 36.8345 18.5697 35.5952 16.3408L37.5656 14.4685ZM9.50809 5.21411C10.1054 5.8382 10.3462 6.71193 10.1857 7.55892L14.2779 11.8473C13.8589 12.1861 13.0922 12.7746 12.2452 13.7464C9.98061 16.2873 8.7146 19.5237 8.61652 22.9205C8.55412 25.4972 9.16038 28.0203 10.3996 30.267L8.43821 32.1839C6.7175 29.3665 5.8616 26.148 5.95967 22.8492C6.04883 18.8728 7.59123 15.0391 10.1946 12.0524L7.93894 9.69867C7.08304 9.81457 6.22714 9.52035 5.62979 8.88734C4.62233 7.81747 4.65799 6.13242 5.72786 5.10712C6.78882 4.10857 8.45604 4.13532 9.50809 5.21411ZM41.6846 1.19316C44.0026 1.19316 45.8838 3.19026 45.8838 5.49941C45.8838 7.80855 44.0026 9.75216 41.6846 9.75216C41.1229 9.76108 40.4364 9.65409 40.267 9.59168L34.6591 14.9143C31.7437 11.0271 27.8208 9.03891 23.3451 8.92301C20.6259 8.8606 17.969 9.52927 15.6599 10.9201L13.7787 8.95867C16.6495 7.10422 19.9839 6.18591 23.4165 6.26615C27.2769 6.36422 30.9591 7.75506 33.9101 10.2425L37.5745 6.80109C37.4407 6.38205 37.3783 5.94519 37.3783 5.50832C37.3694 3.12785 39.3665 1.19316 41.6846 1.19316ZM23.1222 10.5902C23.6126 10.5902 24.094 10.6259 24.5844 10.6883C31.5475 11.562 36.4778 17.9189 35.6219 24.8731C34.7482 31.8362 28.3914 36.7665 21.4372 35.9106C14.4741 35.0369 9.54375 28.68 10.3996 21.7169C11.2288 15.262 16.6495 10.6081 23.1222 10.5902ZM17.862 21.2355C17.9155 23.2593 18.9497 24.9622 20.7507 25.8894L19.77 30.4988H26.3408L25.3601 25.8894C27.1521 24.9176 28.222 23.3039 28.2487 21.2355C28.2131 18.3112 25.9485 16.109 23.0509 16.0377C20.189 16.109 17.9423 18.2488 17.862 21.2355Z" fill="black"/>
</g>
<defs>
<clipPath id="clip0_201_6739">
<rect width="45.648" height="45.648" fill="white" transform="translate(0.23584 0.479919)"/>
</clipPath>
</defs>
</svg>
