<svg width="35" height="47" viewBox="0 0 35 47" fill="none" xmlns="http://www.w3.org/2000/svg">
<g clip-path="url(#clip0_201_6737)">
<path d="M13.1327 10.6794C13.1327 5.66881 10.2351 3.33292 6.58864 3.33292C2.33589 3.33292 0 6.56037 0 10.5902V35.8214C0 40.0385 2.25565 43.2571 6.6778 43.2571C10.2262 43.2571 13.1327 40.9747 13.1327 35.8214V29.001L23.1271 41.3313C25.151 43.7564 29.5553 44.0684 32.328 41.3313C34.7353 38.8706 34.762 35.3222 32.9878 33.1111L24.8924 22.876L31.5702 13.3006C33.1215 11.0984 33.1305 7.67482 30.643 5.29435C27.9416 2.70882 23.2965 2.47702 20.5148 6.43555L13.1327 16.9738V10.6794Z" fill="black"/>
</g>
<defs>
<clipPath id="clip0_201_6737">
<rect width="34.236" height="45.648" fill="white" transform="translate(0 0.479919)"/>
</clipPath>
</defs>
</svg>
