<svg width="41" height="47" viewBox="0 0 41 47" fill="none" xmlns="http://www.w3.org/2000/svg">
<g clip-path="url(#clip0_201_6735)">
<path d="M36.3861 43.6269H5.00313C2.64941 43.6269 0.723633 41.7011 0.723633 39.3474V7.96439C0.723633 5.61067 2.64941 3.68489 5.00313 3.68489H36.3861C38.7398 3.68489 40.6656 5.61067 40.6656 7.96439V39.3474C40.6656 41.7011 38.7398 43.6269 36.3861 43.6269ZM18.5192 16.7463C18.5192 14.0092 16.9501 12.7253 14.9797 12.7253C12.6795 12.7253 11.4135 14.4906 11.4135 16.6928V30.4942C11.4135 32.7944 12.6349 34.5597 15.0243 34.5597C16.9412 34.5597 18.5192 33.3115 18.5192 30.4942V26.7674L23.9221 33.5166C25.0187 34.845 27.3992 35.0144 28.897 33.5166C30.1987 32.1703 30.2165 30.2356 29.2536 29.0231L24.8761 23.4241L28.4869 18.1906C29.325 16.987 29.3339 15.1147 27.9876 13.813C26.5254 12.3955 24.0112 12.2706 22.5134 14.4371L18.5192 20.2055V16.7463Z" fill="black"/>
</g>
<defs>
<clipPath id="clip0_201_6735">
<rect width="39.942" height="45.648" fill="white" transform="translate(0.723633 0.831909)"/>
</clipPath>
</defs>
</svg>
