<svg width="47" height="47" viewBox="0 0 47 47" fill="none" xmlns="http://www.w3.org/2000/svg">
<g clip-path="url(#clip0_201_6727)">
<path d="M20.8534 33.5611L19.1773 29.0142C19.1773 29.0142 16.458 32.0455 12.3836 32.0455C8.77273 32.0455 6.21395 28.9072 6.21395 23.8877C6.21395 17.4595 9.45923 15.1593 12.6421 15.1593C18.571 15.1593 19.311 19.9113 21.638 27.1865C23.3141 32.2595 26.4524 36.3339 35.4929 36.3339C41.9745 36.3339 46.3699 34.3457 46.3699 29.1211C46.3699 22.6217 40.7798 21.9352 36.1169 20.9099C33.8167 20.3838 33.1391 19.4477 33.1391 17.8786C33.1391 16.1043 34.5478 15.0523 36.848 15.0523C39.3622 15.0523 40.7174 15.9974 40.9225 18.2441L46.147 17.62C45.728 12.9125 42.4827 10.9779 37.1512 10.9779C32.4437 10.9779 27.8432 12.7521 27.8432 18.4581C27.8432 22.0154 29.5729 24.2621 33.9059 25.3053C37.909 26.2503 41.0205 26.5356 41.0205 29.3797C41.0205 31.3144 39.1393 32.099 35.582 32.099C30.304 32.099 28.1018 29.3262 26.8536 25.5103C24.0006 16.88 22.9664 10.9779 12.4727 10.9779C4.79636 10.9779 0.721924 15.8369 0.721924 24.1017C0.721924 32.0455 4.79636 36.3339 12.125 36.3339C18.0271 36.3339 20.8534 33.5611 20.8534 33.5611Z" fill="black"/>
</g>
<defs>
<clipPath id="clip0_201_6727">
<rect width="45.648" height="45.648" fill="white" transform="translate(0.721924 0.831909)"/>
</clipPath>
</defs>
</svg>
