<svg width="41" height="47" viewBox="0 0 41 47" fill="none" xmlns="http://www.w3.org/2000/svg">
<g clip-path="url(#clip0_201_6729)">
<path d="M36.0324 3.68489H4.64937C2.28673 3.68489 0.369873 5.60175 0.369873 7.96439V39.3474C0.369873 41.71 2.28673 43.6269 4.64937 43.6269H36.0324C38.395 43.6269 40.3119 41.71 40.3119 39.3474V7.96439C40.3119 5.60175 38.395 3.68489 36.0324 3.68489ZM27.8122 31.5819C22.1597 31.5819 20.1982 29.032 19.1551 25.867C17.7018 21.32 17.2382 18.3511 13.5382 18.3511C11.5411 18.3511 9.5173 19.7865 9.5173 23.8075C9.5173 26.9458 11.1221 28.9072 13.3778 28.9072C15.9276 28.9072 17.6216 27.0082 17.6216 27.0082L18.6647 29.8522C18.6647 29.8522 16.8994 31.5819 13.2084 31.5819C8.63466 31.5819 6.08479 28.8983 6.08479 23.9323C6.08479 18.7701 8.63466 15.7299 13.4402 15.7299C19.9932 15.7299 20.644 19.421 22.4271 24.8149C23.2117 27.2043 24.5847 28.9339 27.8835 28.9339C30.1035 28.9339 31.2803 28.4436 31.2803 27.2311C31.2803 25.4568 29.3367 25.2696 26.8314 24.6812C24.1211 24.0303 23.0423 22.6217 23.0423 20.4017C23.0423 16.8354 25.922 15.7299 28.8553 15.7299C32.1897 15.7299 34.2136 16.9424 34.4721 19.8846L31.2001 20.2769C31.0664 18.8682 30.2194 18.2798 28.6502 18.2798C27.2148 18.2798 26.3322 18.9306 26.3322 20.0451C26.3322 21.0258 26.7601 21.6142 28.1955 21.9441C31.1109 22.5771 34.597 23.014 34.597 27.0706C34.6059 30.3426 31.8599 31.5819 27.8122 31.5819Z" fill="black"/>
</g>
<defs>
<clipPath id="clip0_201_6729">
<rect width="39.942" height="45.648" fill="white" transform="translate(0.369873 0.831909)"/>
</clipPath>
</defs>
</svg>
