<svg width="41" height="47" viewBox="0 0 41 47" fill="none" xmlns="http://www.w3.org/2000/svg">
<g clip-path="url(#clip0_201_6721)">
<path d="M24.6254 19.0376V25.3766C24.6254 25.5371 24.5006 25.6619 24.3401 25.6619H23.3237C23.2256 25.6619 23.1365 25.6084 23.0919 25.546L20.1854 21.6231V25.3855C20.1854 25.546 20.0606 25.6708 19.9001 25.6708H18.8837C18.7233 25.6708 18.5984 25.546 18.5984 25.3855V19.0465C18.5984 18.886 18.7233 18.7612 18.8837 18.7612H19.8912C19.9804 18.7612 20.0784 18.8058 20.123 18.886L23.0295 22.8089V19.0465C23.0295 18.886 23.1543 18.7612 23.3148 18.7612H24.3312C24.4917 18.7523 24.6254 18.886 24.6254 19.0376ZM17.3146 18.7523H16.2982C16.1377 18.7523 16.0129 18.8771 16.0129 19.0376V25.3766C16.0129 25.5371 16.1377 25.6619 16.2982 25.6619H17.3146C17.4751 25.6619 17.5999 25.5371 17.5999 25.3766V19.0376C17.5999 18.886 17.4751 18.7523 17.3146 18.7523ZM14.8628 24.066H12.09V19.0376C12.09 18.8771 11.9652 18.7523 11.8047 18.7523H10.7883C10.6279 18.7523 10.503 18.8771 10.503 19.0376V25.3766C10.503 25.4568 10.5298 25.5192 10.5833 25.5727C10.6368 25.6173 10.6992 25.653 10.7794 25.653H14.8539C15.0144 25.653 15.1392 25.5282 15.1392 25.3677V24.3513C15.1392 24.1997 15.0144 24.066 14.8628 24.066ZM29.9748 18.7523H25.9003C25.7488 18.7523 25.615 18.8771 25.615 19.0376V25.3766C25.615 25.5282 25.7398 25.6619 25.9003 25.6619H29.9748C30.1353 25.6619 30.2601 25.5371 30.2601 25.3766V24.3602C30.2601 24.1997 30.1353 24.0749 29.9748 24.0749H27.202V23.005H29.9748C30.1353 23.005 30.2601 22.8802 30.2601 22.7197V21.6944C30.2601 21.534 30.1353 21.4091 29.9748 21.4091H27.202V20.3393H29.9748C30.1353 20.3393 30.2601 20.2144 30.2601 20.054V19.0376C30.2512 18.886 30.1263 18.7523 29.9748 18.7523ZM40.308 10.9689V36.4052C40.2991 40.3994 37.027 43.6358 33.0239 43.6269H7.58764C3.59344 43.618 0.35707 40.337 0.365985 36.3428V10.9065C0.374901 6.91233 3.65585 3.67596 7.65005 3.68488H33.0863C37.0805 3.69379 40.3169 6.96583 40.308 10.9689ZM34.816 21.8995C34.816 15.3911 28.2897 10.0952 20.2746 10.0952C12.2594 10.0952 5.73319 15.3911 5.73319 21.8995C5.73319 27.7303 10.9043 32.6161 17.8941 33.5433C19.597 33.9088 19.4008 34.5329 19.0175 36.8243C18.9551 37.1898 18.7233 38.2597 20.2746 37.6088C21.8259 36.958 28.6463 32.6785 31.7044 29.1657C33.8085 26.8477 34.816 24.5029 34.816 21.8995Z" fill="black"/>
</g>
<defs>
<clipPath id="clip0_201_6721">
<rect width="39.942" height="45.648" fill="white" transform="translate(0.365967 0.831909)"/>
</clipPath>
</defs>
</svg>
