<svg width="41" height="47" viewBox="0 0 41 47" fill="none" xmlns="http://www.w3.org/2000/svg">
<g clip-path="url(#clip0_201_6719)">
<path d="M9.36442 40.7739H1.08358V14.1073H9.36442V40.7739ZM5.21954 10.4697C2.5716 10.4697 0.423828 8.27645 0.423828 5.62851C0.423828 4.35661 0.929089 3.1368 1.82846 2.23743C2.72783 1.33806 3.94764 0.832794 5.21954 0.832794C6.49144 0.832794 7.71125 1.33806 8.61062 2.23743C9.50999 3.1368 10.0153 4.35661 10.0153 5.62851C10.0153 8.27645 7.86659 10.4697 5.21954 10.4697ZM40.3569 40.7739H32.0939V27.7927C32.0939 24.699 32.0315 20.7316 27.7885 20.7316C23.4832 20.7316 22.8234 24.0928 22.8234 27.5699V40.7739H14.5515V14.1073H22.4936V17.7448H22.6095C23.715 15.6497 26.4155 13.4386 30.4445 13.4386C38.8252 13.4386 40.3658 18.9574 40.3658 26.1255V40.7739H40.3569Z" fill="black"/>
</g>
<defs>
<clipPath id="clip0_201_6719">
<rect width="39.942" height="45.648" fill="white" transform="translate(0.423828 0.831909)"/>
</clipPath>
</defs>
</svg>
