<svg width="41" height="47" viewBox="0 0 41 47" fill="none" xmlns="http://www.w3.org/2000/svg">
<g clip-path="url(#clip0_201_6717)">
<path d="M37.5707 3.68489H3.32577C1.75662 3.68489 0.481689 4.97766 0.481689 6.56464V40.7471C0.481689 42.3341 1.75662 43.6269 3.32577 43.6269H37.5707C39.1398 43.6269 40.4237 42.3341 40.4237 40.7471V6.56464C40.4237 4.97766 39.1398 3.68489 37.5707 3.68489ZM12.5534 37.9209H6.63347V18.8593H12.5624V37.9209H12.5534ZM9.59346 16.2559C7.69443 16.2559 6.16094 14.7135 6.16094 12.8234C6.16094 10.9333 7.69443 9.39089 9.59346 9.39089C11.4836 9.39089 13.026 10.9333 13.026 12.8234C13.026 14.7224 11.4925 16.2559 9.59346 16.2559ZM34.7444 37.9209H28.8245V28.6486C28.8245 26.4376 28.7799 23.5935 25.7486 23.5935C22.6638 23.5935 22.1912 26.0007 22.1912 28.4882V37.9209H16.2713V18.8593H21.9505V21.4626H22.0308C22.8242 19.9648 24.7589 18.3868 27.6387 18.3868C33.63 18.3868 34.7444 22.3364 34.7444 27.4718V37.9209Z" fill="black"/>
</g>
<defs>
<clipPath id="clip0_201_6717">
<rect width="39.942" height="45.648" fill="white" transform="translate(0.481934 0.831909)"/>
</clipPath>
</defs>
</svg>
