<svg width="41" height="47" viewBox="0 0 41 47" fill="none" xmlns="http://www.w3.org/2000/svg">
<g clip-path="url(#clip0_201_6715)">
<path d="M39.5365 21.0079C39.5098 20.9277 39.4563 20.8831 39.4117 20.8296L33.1708 17.3882C33.0905 17.3347 32.9924 17.3347 32.8944 17.3882L27.6431 20.5978C27.5628 20.6513 27.5183 20.7494 27.5183 20.8296L27.438 23.6291L25.2983 22.2026C25.218 22.1491 25.0932 22.1491 25.0219 22.2026L21.9371 24.0927L21.8123 20.9634C21.8123 20.8831 21.7588 20.785 21.6874 20.7583L18.4778 18.5918L21.4824 17.0405C21.5805 16.987 21.6339 16.8889 21.6339 16.7819L21.1258 4.98656C21.1258 4.90632 21.0455 4.80825 20.9742 4.75475L12.8966 0.858626C12.8164 0.831879 12.7451 0.831879 12.6916 0.831879L1.66295 4.27331C1.53813 4.3268 1.45789 4.45162 1.48464 4.60319L3.92752 16.4699C4.00776 16.773 6.95883 18.9128 7.36895 19.2248L4.97065 20.3749C4.84583 20.4552 4.79233 20.58 4.81908 20.6781L6.6557 29.6204C6.70919 29.879 8.7687 31.6799 9.07183 31.9652L7.52051 32.9103C7.44027 32.9638 7.36895 33.0886 7.39569 33.1867C7.52051 33.8197 8.7687 40.1141 8.90243 40.2389L14.7065 46.3996C14.76 46.4531 14.8313 46.4531 14.9116 46.4799C14.9651 46.4799 15.0096 46.4531 15.0631 46.4264L22.5255 40.4618C22.6057 40.4083 22.6236 40.337 22.6236 40.2568L22.4453 36.1556L24.9416 38.2686C25.0397 38.3488 25.2002 38.3488 25.2983 38.2686L31.2628 33.5076C31.3431 33.4541 31.3609 33.3828 31.3609 33.3026L31.566 30.3248L33.3758 31.5729C33.4739 31.6532 33.6076 31.6532 33.7057 31.5729L38.5736 27.6768C38.6271 27.6501 38.6717 27.5787 38.6717 27.4985C38.7519 26.919 39.59 21.1862 39.5365 21.0079ZM21.2773 21.4359L21.6339 29.6917L13.5564 35.1481L12.3082 26.5356L21.2773 21.4359ZM20.5908 5.38776L21.0723 16.6214L11.5682 21.5607L9.81183 9.54244L20.5908 5.38776ZM4.46245 16.2648L2.14439 5.11138L9.25014 9.5157L10.9798 21.3646L4.46245 16.2648ZM7.19063 29.4421L5.50558 21.3378L11.7465 26.5356L12.968 34.8628L7.19063 29.4421ZM9.35713 39.9358L8.13569 33.9534L13.6366 39.383L14.5014 45.3922L9.35713 39.9358ZM15.1077 45.6864L14.1627 39.3652L21.8033 33.891L22.0797 40.1319L15.1077 45.6864ZM22.4185 35.4245C22.4185 35.1214 22.4988 33.3828 22.2402 33.1867L20.0737 31.4035L22.0619 30.0751C22.267 29.9236 22.16 29.5669 22.16 29.3619L24.7812 31.3768L24.8347 37.4662L22.4185 35.4245ZM30.826 33.1599L25.3963 37.4929L25.3428 31.3768L31.2004 27.1954L30.826 33.1599ZM33.2956 30.8686L31.5927 29.6739L31.771 26.6426C31.7978 26.5624 31.7443 26.4643 31.6729 26.4108L27.9997 23.9858L28.0532 21.3111L33.8127 24.9308L33.2956 30.8686ZM38.1635 27.3202L33.8573 30.7349L34.3655 24.9308L38.9213 21.6677L38.1635 27.3202Z" fill="black"/>
</g>
<defs>
<clipPath id="clip0_201_6715">
<rect width="39.942" height="45.648" fill="white" transform="translate(0.540039 0.831909)"/>
</clipPath>
</defs>
</svg>
