<svg width="47" height="47" viewBox="0 0 47 47" fill="none" xmlns="http://www.w3.org/2000/svg">
<g clip-path="url(#clip0_201_6711)">
<path d="M0.949951 8.06246H7.88631V26.6694C7.88631 29.6204 9.22365 31.3768 10.3114 32.1079C9.17907 33.0975 5.74656 33.9713 3.16103 31.8583C1.64537 30.6101 0.949951 28.5327 0.949951 26.598V8.06246ZM44.271 23.5311V21.5696H46.3929V14.7224H44.0659C43.1654 10.5945 39.5011 7.52753 35.1235 7.52753C30.0773 7.52753 25.9672 11.6287 25.9672 16.6839V32.6607C27.3937 32.8657 29.1233 32.6339 30.5766 31.4125C32.1011 30.1643 32.7876 28.0959 32.7876 26.1523V25.5549H36.2469V18.7077H32.7876V16.6304C32.7876 13.5456 37.4416 13.5456 37.4416 16.6304V23.5043C37.4416 28.5506 41.5428 32.6607 46.5979 32.6607V25.8402C45.3052 25.8402 44.271 24.7971 44.271 23.5311ZM18.0323 14.7046V24.7793C18.0323 26.1523 15.9104 26.1523 15.9104 24.7793V14.7046H9.06317V26.5356C9.06317 28.6576 9.77642 31.3501 13.0752 32.2327C16.374 33.1064 18.2641 31.2877 18.2641 31.2877C18.0769 32.4824 16.9713 33.365 15.1525 33.5433C13.7706 33.686 12.0142 33.2224 11.1405 32.8479V39.1156C13.3783 39.7842 15.7321 39.9893 18.059 39.5346C22.2583 38.7233 24.9062 35.2194 24.9062 30.5477V14.66H18.0323V14.7046Z" fill="black"/>
</g>
<defs>
<clipPath id="clip0_201_6711">
<rect width="45.648" height="45.648" fill="white" transform="translate(0.949951 0.831909)"/>
</clipPath>
</defs>
</svg>
