<svg width="40" height="47" viewBox="0 0 40 47" fill="none" xmlns="http://www.w3.org/2000/svg">
<path d="M29.542 22.5432C29.8173 22.5075 30.096 22.5075 30.3712 22.5432C30.5192 22.2018 30.5451 21.6133 30.4113 20.9732C30.2125 20.0219 29.9433 19.4451 29.3878 19.5351C28.8324 19.6251 28.811 20.3143 29.0098 21.2665C29.1221 21.8015 29.3209 22.2597 29.5447 22.5432H29.542ZM24.7668 23.2993C25.1654 23.4776 25.4088 23.5899 25.5051 23.4892C25.6736 23.3162 25.1948 22.652 24.4245 22.3221C23.9797 22.1378 23.495 22.0712 23.017 22.1287C22.539 22.1862 22.0838 22.3658 21.6954 22.6502C21.4279 22.8446 21.1774 23.1156 21.2131 23.2797C21.2889 23.6131 22.1046 23.038 23.228 22.9694C23.8521 22.9302 24.3692 23.1254 24.7668 23.3002V23.2993ZM23.9644 23.7566C23.1558 23.8832 22.6271 24.3388 22.7635 24.6571C22.8437 24.6874 22.8678 24.7293 23.228 24.5849C23.7601 24.3841 24.335 24.3242 24.897 24.4111C25.1573 24.4414 25.2813 24.4574 25.3374 24.3674C25.4676 24.1694 24.8284 23.6541 23.9653 23.7566H23.9644ZM28.794 25.2812C29.0954 24.6687 27.8222 24.0393 27.5191 24.6571C27.216 25.275 28.4927 25.8946 28.7958 25.2785L28.794 25.2812ZM30.1902 23.4562C29.5073 23.4446 29.4814 24.8649 30.167 24.8764C30.8526 24.888 30.8785 23.4669 30.192 23.4535L30.1902 23.4562ZM10.6837 30.4906C10.566 30.5183 10.1488 30.6199 9.92857 30.2811C9.46496 29.5679 10.9191 28.4641 10.196 27.092C9.38472 25.5344 7.71571 25.8848 7.07111 26.5981C6.29456 27.454 6.29367 28.6968 6.62533 28.7449C7.00603 28.7958 6.98909 28.1681 7.2833 27.7081C7.36551 27.5812 7.47205 27.4719 7.59676 27.3865C7.72147 27.301 7.86187 27.2412 8.00986 27.2103C8.15784 27.1795 8.31047 27.1783 8.45892 27.2068C8.60737 27.2353 8.7487 27.2929 8.87474 27.3764C9.90806 28.0531 8.99689 28.9598 9.07802 29.928C9.20195 31.4152 10.7203 31.3875 11.002 30.7304C11.0202 30.698 11.0282 30.6609 11.0251 30.6238C11.0219 30.5868 11.0076 30.5516 10.9842 30.5227C10.9869 30.6021 11.0448 30.4068 10.6855 30.4879L10.6837 30.4906ZM37.4056 28.9687C37.107 27.9229 37.1765 28.1467 36.8011 27.1392C37.0196 26.812 38.1643 24.9995 36.5274 23.2832C35.6002 22.3096 33.505 21.8086 32.8631 21.6303C32.7294 20.6148 33.2777 16.3968 30.9445 14.2303C32.798 12.309 33.9544 10.1924 33.9517 8.3772C33.9464 4.88584 29.6588 3.83023 24.3746 6.01723L23.2556 6.49243C23.2503 6.48798 21.2309 4.50692 21.2006 4.48018C15.1781 -0.772908 -3.65795 20.1619 2.36456 25.2473L3.6805 26.3627C3.32536 27.3156 3.20012 28.3389 3.31496 29.3494C3.61453 32.3272 6.52459 34.7362 9.33568 34.7327C14.4827 46.5958 33.2206 46.6154 38.0698 35.0001C38.225 34.6016 38.8821 32.806 38.8821 31.2217C38.8821 29.6374 37.9825 28.9687 37.4083 28.9687H37.4056ZM9.23226 33.2625C7.19771 33.2081 5.00091 31.3768 4.78247 29.205C4.23238 23.7388 11.4032 22.4942 12.2716 28.1057C12.6764 30.7483 11.8552 33.3204 9.22958 33.2598L9.23226 33.2625ZM7.58198 23.0808C6.23037 23.3439 5.03924 24.1097 4.30994 25.1716C3.87486 24.8087 3.06176 24.1017 2.92 23.8342C1.76008 21.6187 4.18958 17.3258 5.8889 14.8999C10.0891 8.90589 16.6661 4.36962 19.7126 5.19254C20.2074 5.33251 21.847 7.23332 21.847 7.23332C21.847 7.23332 18.8023 8.92194 15.9805 11.2766C12.1771 14.2053 9.30359 18.4617 7.58198 23.0808ZM28.8796 32.099C28.8796 32.099 25.6932 32.5715 22.6824 31.4687C23.236 29.6713 25.0896 32.0125 31.277 30.2374C32.6402 29.8469 34.4305 29.0784 35.824 27.9773C36.1239 28.67 36.3371 29.3971 36.4588 30.142C36.7851 30.0832 37.7293 30.0957 37.4787 31.7557C37.1854 33.5273 36.4329 34.9654 35.1669 36.2884C34.3761 37.1453 33.4348 37.8497 32.3897 38.3667C31.8076 38.6717 31.201 38.9276 30.5763 39.1316C25.8055 40.6901 20.9206 38.9765 19.3426 35.2979C19.2146 35.0172 19.1088 34.7268 19.0261 34.4295C18.3547 32.0045 18.9244 29.0953 20.7058 27.2641C20.8154 27.1473 20.9269 27.01 20.9269 26.837C20.9113 26.6881 20.8517 26.5471 20.7557 26.4322C20.1316 25.5291 17.9749 23.9893 18.4082 21.0089C18.7203 18.8691 20.5917 17.3615 22.3373 17.4506L22.7831 17.4765C23.5392 17.5211 24.1998 17.6182 24.823 17.6441C25.8652 17.6887 26.8023 17.538 27.9114 16.6134C28.2858 16.3014 28.5863 16.0304 29.0936 15.9439C29.2987 15.8931 29.5119 15.8846 29.7204 15.919C29.9289 15.9533 30.1282 16.0297 30.3061 16.1436C31.1977 16.7356 31.3225 18.1701 31.3689 19.2186C31.3947 19.8177 31.4669 21.2692 31.4919 21.682C31.5481 22.6333 31.7977 22.767 32.3041 22.9302C32.5885 23.0238 32.8524 23.0933 33.2411 23.203C34.4189 23.5338 35.1134 23.8699 35.5592 24.3005C35.7865 24.5232 35.9349 24.814 35.9818 25.1288C36.1209 26.1425 35.1954 27.3933 32.7445 28.531C28.5801 30.4639 24.3924 29.8193 23.7861 29.7506C21.9896 29.509 20.9661 31.8297 22.0431 33.4194C24.0616 36.3981 32.9558 35.2025 35.5387 31.5159C35.6002 31.4268 35.5494 31.3742 35.4736 31.4268C31.7496 33.9748 26.8201 34.8334 24.0206 33.7448C23.5953 33.5799 22.7073 33.1707 22.5995 32.2586C26.4867 33.4613 28.9295 32.3246 28.9295 32.3246C28.9295 32.3246 29.1105 32.0758 28.8796 32.099ZM15.3395 14.874C16.8319 13.1488 18.6703 11.6483 20.3171 10.8058C20.3295 10.7985 20.344 10.7954 20.3583 10.7973C20.3727 10.7991 20.386 10.8056 20.3962 10.8158C20.4064 10.826 20.413 10.8393 20.4148 10.8537C20.4166 10.868 20.4136 10.8825 20.4062 10.895C20.276 11.1321 20.0237 11.6385 19.9435 12.0228C19.9403 12.036 19.9412 12.0499 19.9461 12.0626C19.951 12.0752 19.9596 12.0861 19.9708 12.0938C19.9821 12.1014 19.9954 12.1055 20.009 12.1054C20.0226 12.1053 20.0358 12.101 20.0469 12.0932C21.0713 11.3951 22.8535 10.6471 24.4156 10.5508C24.4303 10.5498 24.4449 10.5536 24.4574 10.5616C24.4698 10.5695 24.4793 10.5813 24.4845 10.5951C24.4897 10.6089 24.4903 10.624 24.4862 10.6382C24.4822 10.6524 24.4736 10.6649 24.4619 10.6739C24.2036 10.8729 23.9725 11.1049 23.7745 11.3639C23.7674 11.3738 23.7631 11.3854 23.762 11.3976C23.761 11.4098 23.7633 11.422 23.7688 11.4329C23.7742 11.4438 23.7825 11.453 23.7928 11.4596C23.8031 11.4661 23.8149 11.4697 23.8271 11.47C24.9246 11.4781 26.4715 11.8623 27.4825 12.4276C27.5503 12.4659 27.5022 12.5979 27.4255 12.5809C21.2247 11.1598 16.4521 14.233 15.434 14.973C15.4204 14.9817 15.4042 14.9853 15.3882 14.9832C15.3722 14.981 15.3575 14.9732 15.3467 14.9612C15.336 14.9491 15.3299 14.9336 15.3295 14.9175C15.3292 14.9013 15.3346 14.8856 15.3448 14.8731L15.3395 14.874Z" fill="black"/>
</svg>
