<svg width="41" height="47" viewBox="0 0 41 47" fill="none" xmlns="http://www.w3.org/2000/svg">
<path d="M38.7258 16.8007C38.7258 8.13469 33.0456 5.59373 33.0456 5.59373C27.4716 3.03495 12.6681 3.0617 7.14751 5.59373C7.14751 5.59373 1.46648 8.13469 1.46648 16.8007C1.46648 27.116 0.878046 39.9278 10.8841 42.5757C14.4958 43.5297 17.5993 43.7348 20.0966 43.5921C24.6266 43.3425 27.1684 41.9784 27.1684 41.9784L27.0169 38.6885C27.0169 38.6885 23.7796 39.7049 20.1411 39.589C16.5383 39.4642 12.7412 39.1967 12.1501 34.7746C12.0953 34.3638 12.0685 33.9497 12.0698 33.5353C19.7043 35.3987 26.2145 34.3466 28.0065 34.1326C33.01 33.5353 37.3679 30.4505 37.9234 27.6332C38.7971 23.1932 38.7258 16.8007 38.7258 16.8007ZM32.0283 27.963H27.871V17.7814C27.871 13.3503 22.165 13.1809 22.165 18.3966V23.9688H18.0344V18.3957C18.0344 13.18 12.3284 13.3494 12.3284 17.7805V27.9621H8.16211C8.16211 17.0762 7.6985 14.7759 9.80348 12.3598C12.1126 9.78318 16.9199 9.61379 19.0606 12.9037L20.0948 14.6422L21.129 12.9037C23.2786 9.59596 28.0939 9.80102 30.3861 12.3598C32.5 14.7938 32.0266 17.0851 32.0266 27.9621L32.0283 27.963Z" fill="black"/>
</svg>
