<svg width="52" height="47" viewBox="0 0 52 47" fill="none" xmlns="http://www.w3.org/2000/svg">
<g clip-path="url(#clip0_201_6697)">
<path d="M1.66942 15.1334L0.744873 32.2149H4.65972L5.15811 25.0975L7.64824 32.2149H11.6344L13.9115 25.3115L14.3385 32.2149H18.3978L17.2575 15.1334H13.2L9.57134 25.5941L5.79736 15.1334H1.66942ZM26.7223 15.1334H22.4517V32.2149H26.7223C26.7223 32.2149 35.1922 32.2862 35.1208 23.6746C35.0513 15.2752 26.7241 15.1352 26.7241 15.1352L26.7223 15.1334ZM26.6153 28.1913V19.0893C26.6153 19.0893 30.7165 19.47 30.7878 23.5979C30.8592 27.7259 26.6171 28.1931 26.6171 28.1931L26.6153 28.1913ZM47.8604 21.5723C48.5 20.5561 48.7531 19.3439 48.5736 18.1567C48.0975 14.9685 43.6629 15.0969 43.6629 15.0969H39.0357V32.1774H43.0941C43.0941 32.1774 50.8507 32.6045 50.8507 26.4848C50.8507 22.6386 47.8622 21.5741 47.8622 21.5741L47.8604 21.5723ZM43.2332 18.7247C43.2332 18.7247 44.443 18.5829 44.6597 19.5797C44.7872 20.1734 44.303 20.6495 44.303 20.6495H43.2332V18.7264V18.7247ZM43.2243 28.4837L43.2332 26.2619V24.6366H43.2403C43.2403 24.6366 46.9474 24.2149 46.9126 26.6364C46.8832 28.9232 43.226 28.4855 43.226 28.4855L43.2243 28.4837Z" fill="black"/>
</g>
<defs>
<clipPath id="clip0_201_6697">
<rect width="51.354" height="45.648" fill="white" transform="translate(0.120117 0.831909)"/>
</clipPath>
</defs>
</svg>
