<svg width="30" height="47" viewBox="0 0 30 47" fill="none" xmlns="http://www.w3.org/2000/svg">
<g clip-path="url(#clip0_201_6695)">
<path d="M11.138 22.0868C11.45 20.9723 11.7532 19.0911 12.3149 19.0911C13.0549 19.2516 13.1708 21.1774 13.9732 22.3542C14.3833 20.2591 14.4457 14.767 15.2303 14.6244C16.0327 14.562 16.9867 20.5533 17.1917 21.534C18.0744 21.8995 21.5514 22.1224 21.5514 22.1224C21.7208 22.7733 19.4117 22.8 17.9852 22.8178C17.5751 24.1373 17.5038 25.2875 16.9688 25.3142C16.5498 25.332 16.2377 22.7465 15.4086 20.8921L14.5705 26.7318C14.1782 27.8908 13.1886 24.7258 12.618 23.228C12.3238 23.219 7.05465 23.0853 8.37416 22.5325L11.138 22.0868ZM20.9184 40.7739C22.8086 40.7739 22.8086 37.9209 20.9184 37.9209H8.79319C6.90308 37.9209 6.90308 40.7739 8.79319 40.7739H20.9184ZM18.7787 46.4799C20.6688 46.4799 20.6688 43.6269 18.7787 43.6269H10.9329C9.04283 43.6269 9.04283 46.4799 10.9329 46.4799H18.7787ZM21.8278 33.8643C22.1131 32.1792 22.2914 30.619 22.8888 29.5135C23.5931 28.2029 24.3242 27.0082 25.0285 25.8581C27.2218 22.2562 29.1208 19.1535 29.1208 14.669C29.1208 7.03718 22.7194 0.831909 14.8558 0.831909C6.99224 0.831909 0.59082 7.03718 0.59082 14.669C0.59082 19.1446 2.48985 22.2562 4.68309 25.8581C5.38743 27.0082 6.10959 28.2029 6.82284 29.5135C7.42019 30.6279 7.5985 32.1703 7.8838 33.8732C8.19585 35.7455 11.1023 35.273 10.7903 33.4185C10.4693 31.4838 10.291 29.7899 9.4262 28.194C6.51971 22.8089 3.53298 19.6706 3.53298 14.669C3.53298 8.61525 8.61488 3.68491 14.8558 3.68491C21.0968 3.68491 26.1787 8.61525 26.1787 14.669C26.1787 19.6706 23.1919 22.8089 20.2854 28.185C19.4206 29.7899 19.2423 31.5195 18.9213 33.4096C18.6182 35.2462 21.5069 35.7633 21.8278 33.8643Z" fill="black"/>
</g>
<defs>
<clipPath id="clip0_201_6695">
<rect width="28.53" height="45.648" fill="white" transform="translate(0.589844 0.831909)"/>
</clipPath>
</defs>
</svg>
