<svg width="40" height="47" viewBox="0 0 40 47" fill="none" xmlns="http://www.w3.org/2000/svg">
<g clip-path="url(#clip0_201_6691)">
<path d="M0 3.68491V43.6269H39.942V3.68491H0ZM33.184 13.1444L31.0442 15.195C30.857 15.3376 30.7678 15.5694 30.8035 15.7923V30.8865C30.7678 31.1183 30.857 31.3501 31.0442 31.4838L33.1394 33.5344V33.9891H22.6189V33.5522L24.7854 31.4482C24.9994 31.2342 24.9994 31.1718 24.9994 30.8508V18.6453L18.9724 33.9445H18.1611L11.1445 18.6453V28.8983C11.0821 29.3262 11.2337 29.7631 11.5368 30.0752L14.3542 33.4898V33.9445H6.34792V33.4898L9.16526 30.0752C9.46839 29.7631 9.60213 29.3262 9.5308 28.8983V17.0405C9.56646 16.7106 9.44164 16.3897 9.19201 16.1668L6.68672 13.1444V12.6897H14.4701L20.4792 25.8848L25.7662 12.6986H33.184V13.1444Z" fill="black"/>
</g>
<defs>
<clipPath id="clip0_201_6691">
<rect width="39.942" height="45.648" fill="white" transform="translate(0 0.831909)"/>
</clipPath>
</defs>
</svg>
