<svg width="47" height="47" viewBox="0 0 47 47" fill="none" xmlns="http://www.w3.org/2000/svg">
<path d="M7.31617 13.5188C7.36967 12.9928 7.16461 12.4668 6.77232 12.1102L2.75137 7.26007V6.5379H15.2511L24.9156 27.7303L33.4122 6.5379H45.3324V7.26007L41.891 10.5588C41.5967 10.7817 41.4452 11.1562 41.5076 11.5217V35.7722C41.4452 36.1378 41.5967 36.5122 41.891 36.7351L45.2522 40.0339V40.7561H28.3392V40.0339L31.8252 36.6549C32.164 36.3161 32.164 36.2091 32.164 35.692V16.0954L22.4727 40.6937H21.1621L9.89279 16.0954V32.5804C9.79472 33.2759 10.0265 33.9713 10.5169 34.4705L15.046 39.9626V40.6847H2.20752V39.9715L6.73666 34.4705C7.2181 33.9713 7.44099 33.2669 7.31617 32.5804V13.5188Z" fill="black"/>
</svg>
