<svg width="47" height="46" viewBox="0 0 47 46" fill="none" xmlns="http://www.w3.org/2000/svg">
<g clip-path="url(#clip0_201_6687)">
<path d="M9.80036 37.1213C9.89843 37.6295 9.5953 38.1109 9.08711 38.2179C8.60566 38.316 8.1153 38.0128 8.01723 37.5047C7.91916 37.0232 8.22229 36.515 8.70373 36.408C9.18518 36.301 9.69337 36.6131 9.80036 37.1213ZM22.5586 43.487C21.9969 43.8972 21.8454 44.6817 22.2287 45.2702C22.6389 45.8586 23.4234 46.0102 24.0119 45.6C24.5735 45.1899 24.7251 44.4053 24.315 43.8169C23.9405 43.2374 23.147 43.0769 22.5586 43.487ZM14.8912 2.27011C15.4529 2.14529 15.8095 1.58361 15.6847 1.02193C15.5866 0.433495 15.0249 0.0768703 14.4632 0.210605C13.9015 0.335423 13.5449 0.897108 13.6519 1.45879C13.7767 2.04722 14.3295 2.40385 14.8912 2.27011ZM4.04086 20.3599C3.1493 19.7447 1.92786 19.9765 1.31268 20.8949C0.697505 21.7864 0.929311 23.0346 1.82087 23.6498C2.71244 24.2828 3.93388 24.0599 4.54905 23.1416C5.16423 22.2144 4.93243 20.9929 4.04086 20.3599ZM28.2914 5.12311C29.2364 4.56143 29.5128 3.33999 28.9779 2.42168C28.4162 1.47662 27.2215 1.17349 26.3032 1.73518C25.3849 2.29686 25.0817 3.5183 25.6434 4.46336C26.1784 5.38167 27.373 5.6848 28.2914 5.12311ZM11.2536 10.2942C11.9401 9.81273 12.0917 8.86767 11.637 8.18117C11.1823 7.49467 10.2372 7.3431 9.57747 7.7978C8.89096 8.27924 8.7394 9.2243 9.19409 9.9108C9.64879 10.6062 10.5849 10.7578 11.2536 10.2942ZM44.4465 24.2025C43.7867 24.3541 43.3498 25.0139 43.5014 25.7093C43.6262 26.369 44.2949 26.8059 44.9547 26.6543C45.6144 26.5295 46.0513 25.8609 45.8997 25.1743C45.766 24.5146 45.1062 24.0777 44.4465 24.2025ZM47.986 19.1385C47.8879 18.6303 47.3975 18.3272 46.9161 18.4252C46.4079 18.5233 46.1048 19.0404 46.2028 19.5486C46.3009 20.03 46.7913 20.3599 47.2995 20.2618C47.7809 20.1281 48.1108 19.6467 47.986 19.1385ZM40.8267 12.5677C40.06 13.1026 39.8817 14.1457 40.3899 14.9125C40.898 15.6792 41.9412 15.8575 42.7079 15.3493C43.4479 14.8144 43.6262 13.7713 43.118 13.0045C42.6098 12.2289 41.5667 12.0327 40.8267 12.5677ZM40.265 24.996C42.6098 28.8387 41.6113 33.9117 37.9202 36.5061C36.3689 37.6027 34.6125 38.0842 32.8472 38.0307C31.7774 42.2299 26.6598 43.7902 23.4769 40.9372C23.3788 41.0174 23.2451 41.0887 23.147 41.1957C19.661 43.6119 14.9179 42.747 12.5018 39.2075C11.637 37.9326 11.2001 36.4794 11.1555 35.0261C5.32471 34.0543 3.13147 26.6454 7.49121 22.571C4.96809 18.3896 7.5447 12.9956 12.2522 12.3269C14.49 6.42479 21.8454 3.62529 26.8381 7.49467C32.8472 5.50649 38.9901 10.1159 38.5087 16.5084C42.173 17.6317 43.2161 22.4729 40.265 24.996ZM34.0241 31.6203C33.7477 29.7837 30.3776 31.2102 30.1815 29.2042C29.9051 26.3512 34.0776 20.1905 33.7477 17.7922C33.4446 15.6525 32.0181 15.1978 30.7699 15.171C29.5752 15.1443 29.2632 15.3493 28.862 15.5811C28.6034 15.7327 28.2735 16.018 27.8188 15.5544C27.2571 15.0195 26.8292 14.5113 26.0892 14.4043C24.9926 14.226 24.5111 14.5826 23.7176 15.2691C23.4145 15.5276 22.6478 16.4192 21.9345 16.0804C21.6314 15.9288 20.5615 15.3939 19.7948 15.064C18.3415 14.431 16.2285 15.4742 15.4618 16.8472C14.3117 18.8888 12.0738 26.9307 11.744 28.0006C10.9772 30.3722 12.7158 32.3336 15.0338 32.1999C16.0235 32.1464 16.6654 31.7897 17.2984 30.6485C17.655 29.9888 21.0162 21.0464 21.2748 20.6096C21.4531 20.3064 22.0683 19.8963 22.5764 20.1549C23.0846 20.4312 23.1916 20.9929 23.1114 21.5011C23.0133 22.3659 20.615 27.8223 20.5348 28.4286C20.2316 30.4702 22.9331 30.8001 23.9762 28.7852C24.3061 28.1522 28.0506 20.5293 28.3805 20.0211C28.7639 19.4594 29.0403 19.2811 29.4236 19.3079C29.7 19.3079 30.1636 19.3881 30.0567 20.2797C29.9318 21.1177 26.9273 26.7257 26.5885 28.0987C26.1784 29.9353 27.1769 31.7897 28.8085 32.61C29.8248 33.1182 34.3807 34.0097 34.0241 31.6203ZM34.5323 39.8495C33.614 40.5092 33.3822 41.8109 34.0241 42.756C34.6571 43.701 35.932 43.9239 36.8771 43.2909C37.8222 42.6311 38.045 41.3295 37.412 40.3844C36.7523 39.4393 35.4773 39.1808 34.5323 39.8495Z" fill="black"/>
</g>
<defs>
<clipPath id="clip0_201_6687">
<rect width="45.648" height="45.648" fill="white" transform="translate(0.974121 0.183899)"/>
</clipPath>
</defs>
</svg>
