<svg width="45" height="46" viewBox="0 0 45 46" fill="none" xmlns="http://www.w3.org/2000/svg">
<g clip-path="url(#clip0_201_6685)">
<path d="M19.8769 18.871V24.7732L22.8637 27.7599L25.8326 24.791V18.871L22.8548 15.8932L19.8769 18.871ZM22.8637 0.897125C10.6493 0.897125 0.75293 10.7935 0.75293 23.0079C0.75293 35.2223 10.6493 45.1186 22.8637 45.1186C35.0781 45.1186 44.9744 35.2223 44.9744 23.0079C44.9744 10.7935 35.0781 0.897125 22.8637 0.897125ZM35.8002 37.8435L33.4733 39.5553L31.1552 37.8435V32.0037L28.1774 29.0259L25.1996 32.0037V37.8435L22.8637 39.5553L20.5367 37.8435V32.0037L17.5589 29.0259L14.5721 32.0037V37.8435L12.2452 39.5553L9.91819 37.8435V30.0869L15.223 24.7821V16.9452L20.5278 11.6405V4.90024L22.8548 3.18844L25.1817 4.90024V11.6405L30.4865 16.9452V24.7553L35.8092 30.078V37.8435H35.8002Z" fill="black"/>
</g>
<defs>
<clipPath id="clip0_201_6685">
<rect width="44.2215" height="45.648" fill="white" transform="translate(0.75293 0.183899)"/>
</clipPath>
</defs>
</svg>
