<svg width="58" height="46" viewBox="0 0 58 46" fill="none" xmlns="http://www.w3.org/2000/svg">
<g clip-path="url(#clip0_201_6683)">
<path d="M56.3796 29.1775C55.2829 28.0719 53.7316 27.4657 52.0644 27.644C48.2039 27.5548 47.6333 24.5324 48.721 18.8353C50.7538 13.7088 47.3926 7.11129 40.9288 7.1737C34.0281 7.23611 33.6447 14.4845 29.2582 14.4845C24.9698 14.4845 24.4438 7.23611 17.5877 7.1737C11.0882 7.10237 7.77157 13.7088 9.79542 18.8353C10.8831 24.5324 10.3125 27.5548 6.45206 27.644C4.56195 27.4389 3.15328 28.2235 1.72678 29.65C-0.0474293 31.4064 0.00606436 38.102 5.52484 38.7974C9.72409 39.3234 12.8 34.9726 10.9812 30.9695C6.76411 21.724 27.5553 21.51 24.0426 30.2384C24.0337 30.2473 24.0248 30.2562 24.0158 30.2741C21.6265 34.09 24.6221 38.9579 29.2582 38.7618C33.9033 38.949 36.8722 34.0721 34.5006 30.2741C34.4917 30.2562 34.4828 30.2473 34.4739 30.2384C30.9611 21.51 51.7523 21.724 47.5353 30.9695C47.1251 31.8611 46.9379 32.8685 47.0271 33.9117C47.4639 38.6726 53.1521 40.5181 56.3796 37.05C57.9665 35.7304 58.4391 31.2013 56.3796 29.1775ZM29.285 27.4746H29.2315C25.3621 27.4746 23.6325 24.1312 23.6325 21.8756C23.6325 18.7818 26.1467 16.2766 29.2315 16.2766H29.285C32.3787 16.2766 34.884 18.7818 34.884 21.8756C34.884 24.1045 33.1722 27.4746 29.285 27.4746Z" fill="black"/>
</g>
<defs>
<clipPath id="clip0_201_6683">
<rect width="57.06" height="45.648" fill="white" transform="translate(0.692871 0.183899)"/>
</clipPath>
</defs>
</svg>
