<svg width="46" height="46" viewBox="0 0 46 46" fill="none" xmlns="http://www.w3.org/2000/svg">
<g clip-path="url(#clip0_201_6671)">
<path d="M23.0482 0.897156C10.8338 0.897156 0.9375 10.8024 0.9375 23.0079C0.9375 35.2223 10.8338 45.1186 23.0482 45.1186C35.2626 45.1186 45.159 35.2223 45.159 23.0079C45.159 10.8024 35.2626 0.897156 23.0482 0.897156ZM15.9157 32.2712C13.1162 33.2163 10.6734 34.7052 8.78325 36.5686V12.3092C8.78325 10.3388 10.3791 8.7429 12.3495 8.7429C14.3198 8.7429 15.9157 10.3388 15.9157 12.3092V32.2712ZM26.6145 31.3886C25.4644 31.2103 24.2786 31.1122 23.0661 31.1122C21.8357 31.1122 20.641 31.2103 19.482 31.3886V12.3092C19.482 10.3388 21.0779 8.7429 23.0482 8.7429C25.0186 8.7429 26.6145 10.3388 26.6145 12.3092V31.3886ZM37.3132 36.5329C35.4231 34.6785 32.9802 33.1985 30.1807 32.2534V12.3092C30.1807 10.3388 31.7766 8.7429 33.747 8.7429C35.7173 8.7429 37.3132 10.3388 37.3132 12.3092V36.5329Z" fill="black"/>
</g>
<defs>
<clipPath id="clip0_201_6671">
<rect width="44.2215" height="45.648" fill="white" transform="translate(0.9375 0.183899)"/>
</clipPath>
</defs>
</svg>
