<svg width="45" height="46" viewBox="0 0 45 46" fill="none" xmlns="http://www.w3.org/2000/svg">
<g clip-path="url(#clip0_201_6667)">
<path d="M32.1572 34.4199H41.8217C37.9523 40.8302 30.9179 45.1186 22.8849 45.1186C14.8519 45.1186 7.81751 40.8302 3.94813 34.4199H13.6127V23.0257L22.8849 32.3693L32.1572 23.0079V34.4199ZM8.61992 30.1404V11.5959L22.8314 25.8074L37.1499 11.5959V30.1404H43.8188C44.5766 27.9026 44.9957 25.5043 44.9957 23.0079C44.9957 10.7935 35.0993 0.897156 22.8849 0.897156C10.6705 0.897156 0.77417 10.7935 0.77417 23.0079C0.77417 25.5043 1.18429 27.9026 1.95103 30.1404H8.61992Z" fill="black"/>
</g>
<defs>
<clipPath id="clip0_201_6667">
<rect width="44.2215" height="45.648" fill="white" transform="translate(0.773926 0.183899)"/>
</clipPath>
</defs>
</svg>
