<svg width="45" height="46" viewBox="0 0 45 46" fill="none" xmlns="http://www.w3.org/2000/svg">
<g clip-path="url(#clip0_201_6665)">
<path d="M27.1479 33.4927C25.8819 34.7052 24.3573 35.6413 22.6544 36.2119C20.9605 35.6413 19.427 34.7052 18.1699 33.4927H27.1479ZM31.0708 15.6971C32.8539 14.1904 34.958 13.0937 37.276 12.4696V26.8416C37.276 46.4025 8.0328 46.242 8.0328 26.8684V12.4607C10.342 13.0759 12.455 14.2082 14.2292 15.706C19.2932 12.1398 26.0424 12.1487 31.0708 15.6971ZM12.455 10.4815C18.1966 5.13208 27.1033 5.12317 32.8628 10.4636C32.2298 10.7757 31.6235 11.1145 31.0262 11.4889C25.7927 8.76966 19.5072 8.77857 14.2737 11.4978C13.7121 11.1412 13.0345 10.7668 12.455 10.4815ZM4.45764 8.49327V14.6718C-0.749084 17.926 -0.749084 25.4686 4.46656 28.7852C6.82028 50.6374 38.4975 50.2095 40.8066 28.919L40.8334 28.7674C46.0668 25.531 46.0847 17.9171 40.8512 14.6629V8.49327C39.3088 8.53785 37.8199 8.76074 36.3845 9.15303C29.0737 0.995234 16.2798 0.995234 8.96895 9.16194C7.5157 8.76966 6.01787 8.53785 4.45764 8.49327ZM23.6619 31.5669C23.6619 31.5669 26.8715 31.5402 29.1272 31.4332C30.0366 31.3886 31.0084 31.0765 31.4007 30.8537C33.7455 29.5074 33.6652 27.3587 33.7365 26.6277C26.6486 26.5742 24.8298 26.2799 23.6619 31.5669ZM11.5812 26.6366C11.6525 27.3676 11.5723 29.5163 13.9171 30.8626C14.3094 31.0855 15.2723 31.3975 16.1906 31.4421C18.4463 31.5402 21.6559 31.5758 21.6559 31.5758C20.479 26.2799 18.6513 26.5742 11.5812 26.6366ZM26.6575 37.6384C26.3722 37.1659 26.0424 36.9876 26.0424 36.9876C23.8313 37.6384 21.3884 37.6028 19.2754 36.9876C19.2754 36.9876 19.0169 37.1213 18.7048 37.576C18.4552 37.9416 18.3749 38.4319 18.3749 38.4319C20.9694 40.0011 24.3573 40.0011 26.9518 38.4319C26.9428 38.423 26.925 38.0753 26.6575 37.6384Z" fill="black"/>
</g>
<defs>
<clipPath id="clip0_201_6665">
<rect width="44.2215" height="45.648" fill="white" transform="translate(0.55249 0.183899)"/>
</clipPath>
</defs>
</svg>
