<svg width="35" height="46" viewBox="0 0 35 46" fill="none" xmlns="http://www.w3.org/2000/svg">
<g clip-path="url(#clip0_201_6661)">
<path d="M22.6533 26.8675C24.0414 26.8675 25.0739 27.8892 25.0739 29.2747C25.0739 30.6602 24.0379 31.6819 22.6533 31.6819C21.2535 31.6819 20.2327 30.6504 20.2327 29.2747C20.2327 27.899 21.2624 26.8675 22.6533 26.8675ZM10.742 29.2711C10.742 27.8794 11.7833 26.8639 13.1626 26.8639C14.5418 26.8639 15.5832 27.8856 15.5832 29.2711C15.5832 30.6566 14.5606 31.6783 13.1626 31.6783C11.786 31.6783 10.742 30.67 10.742 29.2711ZM17.7639 14.3597C14.6649 14.3597 8.64236 16.1224 5.94985 20.4224L1.91553 0.183899V30.094C1.91553 38.8001 9.01325 45.8319 17.7639 45.8319C26.5146 45.8319 33.6123 38.793 33.6123 30.094C33.6123 21.3951 26.5342 14.3597 17.7639 14.3597ZM17.7639 41.8306C11.2315 41.8306 5.94985 36.5793 5.94985 30.0985C5.94985 23.6177 11.2315 18.3664 17.7639 18.3664C24.2964 18.3664 29.578 23.6142 29.578 30.094C29.578 36.5739 24.2937 41.8261 17.7639 41.8261V41.8306Z" fill="black"/>
</g>
<defs>
<clipPath id="clip0_201_6661">
<rect width="34.236" height="45.648" fill="white" transform="translate(0.668457 0.183899)"/>
</clipPath>
</defs>
</svg>
