<svg width="58" height="46" viewBox="0 0 58 46" fill="none" xmlns="http://www.w3.org/2000/svg">
<g clip-path="url(#clip0_201_6657)">
<path d="M28.8664 40.4825C28.6791 40.4825 28.4919 40.429 28.3225 40.3399L26.6107 39.3235C26.3522 39.1808 26.477 39.1273 26.5661 39.1006C26.9049 38.9847 26.9763 38.958 27.3418 38.744C27.3775 38.7261 27.431 38.7351 27.4666 38.7529L28.7861 39.5375C28.8307 39.5642 28.902 39.5642 28.9466 39.5375L34.0998 36.5597C34.1444 36.5329 34.1801 36.4794 34.1801 36.417V30.4703C34.1801 30.4079 34.1533 30.3544 34.0998 30.3276L28.9466 27.3587C28.902 27.332 28.8396 27.332 28.7861 27.3587L23.6329 30.3276C23.5794 30.3544 23.5527 30.4168 23.5527 30.4703V36.417C23.5527 36.4705 23.5883 36.524 23.6329 36.5507L25.0416 37.3621C25.8083 37.7454 26.2808 37.2907 26.2808 36.845V30.9696C26.2808 30.8893 26.3433 30.818 26.4324 30.818H27.0832C27.1635 30.818 27.2348 30.8804 27.2348 30.9696V36.845C27.2348 37.8702 26.682 38.4498 25.7102 38.4498C25.416 38.4498 25.1753 38.4498 24.5245 38.1288L23.1693 37.3531C22.8394 37.157 22.6254 36.8004 22.6254 36.417V30.4703C22.6254 30.0869 22.8305 29.7214 23.1693 29.5341L28.3225 26.5563C28.6524 26.3691 29.0803 26.3691 29.4013 26.5563L34.5545 29.5341C34.8844 29.7303 35.0984 30.0869 35.0984 30.4703V36.417C35.0984 36.8004 34.8933 37.1659 34.5545 37.3531L29.4013 40.331C29.2497 40.429 29.0625 40.4825 28.8664 40.4825ZM33.03 34.616C33.03 33.5016 32.2811 33.2074 30.6941 32.9934C29.0893 32.7794 28.9288 32.6724 28.9288 32.298C28.9288 31.9859 29.0625 31.5758 30.2483 31.5758C31.3093 31.5758 31.7015 31.8076 31.862 32.5209C31.8799 32.5922 31.9333 32.6368 32.0047 32.6368H32.6733C32.7179 32.6368 32.7536 32.6189 32.7803 32.5922C32.8071 32.5565 32.8249 32.5209 32.816 32.4763C32.709 31.2459 31.8977 30.6753 30.2483 30.6753C28.7772 30.6753 27.9035 31.2994 27.9035 32.3336C27.9035 33.4659 28.7772 33.7691 30.1859 33.9117C31.8709 34.0811 32.0047 34.3218 32.0047 34.6517C32.0047 35.2312 31.5411 35.4719 30.4534 35.4719C29.0893 35.4719 28.7861 35.1332 28.6881 34.4556C28.6791 34.3842 28.6167 34.3307 28.5365 34.3307H27.8678C27.7876 34.3307 27.7163 34.3932 27.7163 34.4823C27.7163 35.3471 28.1888 36.3813 30.4444 36.3813C32.0938 36.3813 33.03 35.7394 33.03 34.616ZM37.889 30.1493C37.889 30.6932 37.4432 31.139 36.8993 31.139C36.3555 31.139 35.9097 30.6932 35.9097 30.1493C35.9097 29.5876 36.3733 29.1597 36.8993 29.1597C37.4343 29.1508 37.889 29.5876 37.889 30.1493ZM37.7285 30.1493C37.7285 29.6857 37.354 29.3202 36.8904 29.3202C36.4357 29.3202 36.0613 29.6857 36.0613 30.1493C36.0613 30.6129 36.4357 30.9874 36.8904 30.9874C37.354 30.9785 37.7285 30.604 37.7285 30.1493ZM37.3273 30.7021H37.0955C37.0866 30.6486 37.0509 30.3633 37.0509 30.3544C37.0331 30.292 37.0153 30.2563 36.935 30.2563H36.7389V30.7021H36.5249V29.5876H36.9083C37.042 29.5876 37.3006 29.5876 37.3006 29.8818C37.3006 30.0869 37.1668 30.1315 37.0866 30.1582C37.2381 30.1671 37.2471 30.2652 37.2738 30.4079C37.2827 30.497 37.3006 30.6486 37.3273 30.7021ZM37.0777 29.9175C37.0777 29.7659 36.9707 29.7659 36.9172 29.7659H36.7389V30.078H36.9083C37.0509 30.078 37.0777 29.9799 37.0777 29.9175ZM12.9074 17.2127C12.9074 16.972 12.7826 16.7581 12.5775 16.6421L7.11226 13.4949C7.0231 13.4414 6.91611 13.4147 6.80912 13.4058H6.75563C6.64864 13.4058 6.55057 13.4414 6.4525 13.4949L0.996138 16.6421C0.791078 16.7581 0.66626 16.9809 0.66626 17.2127L0.675175 25.6826C0.675175 25.7985 0.737585 25.9055 0.835657 25.9679C0.933728 26.0303 1.05855 26.0303 1.16553 25.9679L4.41082 24.1045C4.61588 23.9797 4.7407 23.7657 4.7407 23.5339V19.5754C4.7407 19.3436 4.86552 19.1207 5.07058 19.0048L6.4525 18.2113C6.55949 18.1489 6.66647 18.1221 6.78238 18.1221C6.89828 18.1221 7.01418 18.1489 7.11226 18.2113L8.49418 19.0048C8.69924 19.1207 8.82405 19.3436 8.82405 19.5754V23.5339C8.82405 23.7657 8.94887 23.9886 9.15393 24.1045L12.3992 25.9679C12.4973 26.0303 12.631 26.0303 12.7291 25.9679C12.8272 25.9144 12.8896 25.7985 12.8896 25.6826L12.9074 17.2127ZM42.7926 7.96725V23.6944C42.7926 23.9262 42.6678 24.1491 42.4627 24.265L36.9974 27.4211C36.7924 27.537 36.5427 27.537 36.3377 27.4211L30.8724 24.265C30.6673 24.1491 30.5425 23.9262 30.5425 23.6944V17.3821C30.5425 17.1503 30.6673 16.9274 30.8724 16.8115L36.3377 13.6554C36.5427 13.5395 36.7924 13.5395 36.9974 13.6554L38.3615 14.44C38.5131 14.5291 38.7092 14.4132 38.7092 14.2438V5.86316C38.7092 5.61352 38.9767 5.45304 39.1996 5.57786L42.4538 7.39665C42.6588 7.50363 42.7926 7.72653 42.7926 7.96725ZM38.6914 19.4595C38.6914 19.3971 38.6557 19.3436 38.6111 19.3168L36.7389 18.2291C36.6854 18.2024 36.623 18.2024 36.5695 18.2291L34.6972 19.3168C34.6437 19.3436 34.617 19.3971 34.617 19.4595V21.626C34.617 21.6884 34.6526 21.7419 34.6972 21.7686L36.5695 22.8474C36.623 22.8742 36.6854 22.8742 36.73 22.8474L38.6022 21.7686C38.6557 21.7419 38.6825 21.6884 38.6825 21.626V19.4595H38.6914ZM57.3964 19.3971C57.6014 19.2812 57.7262 19.0583 57.7262 18.8265V17.3019C57.7262 17.0701 57.6014 16.8472 57.3964 16.7313L51.9668 13.5752C51.7617 13.4593 51.5121 13.4593 51.307 13.5752L45.8417 16.7313C45.6367 16.8472 45.5118 17.0701 45.5118 17.3019V23.6142C45.5118 23.8549 45.6367 24.0689 45.8417 24.1848L51.2713 27.2785C51.4675 27.3944 51.7171 27.3944 51.9222 27.2785L55.2031 25.4508C55.426 25.326 55.426 25.005 55.2031 24.8802L49.7022 21.7241C49.5952 21.6616 49.5328 21.5547 49.5328 21.4388V19.4595C49.5328 19.3436 49.5952 19.2366 49.7022 19.1742L51.414 18.1846C51.5121 18.1221 51.6458 18.1221 51.7439 18.1846L53.4557 19.1742C53.5537 19.2366 53.6251 19.3436 53.6251 19.4595V21.0108C53.6251 21.2604 53.9014 21.4209 54.1243 21.2961L57.3964 19.3971ZM50.5046 19.7091C50.4689 19.7359 50.4422 19.7715 50.4422 19.8161V21.0286C50.4422 21.0732 50.4689 21.1178 50.5046 21.1356L51.5566 21.7419C51.5923 21.7686 51.6458 21.7686 51.6815 21.7419L52.7335 21.1356C52.7692 21.1089 52.7959 21.0732 52.7959 21.0286V19.8161C52.7959 19.7715 52.7692 19.727 52.7335 19.7091L51.6815 19.1029C51.6458 19.0761 51.5923 19.0761 51.5566 19.1029L50.5046 19.7091ZM27.8411 23.5874V17.3108C27.8411 17.079 27.6984 16.8561 27.4934 16.7402L22.0459 13.6019C21.8587 13.4949 21.6001 13.4771 21.3862 13.6019L15.9387 16.7402C15.7337 16.8561 15.591 17.0701 15.591 17.3108V23.5874C15.591 23.8371 15.7604 24.051 15.9476 24.158L21.404 27.2963C21.618 27.4211 21.8676 27.4122 22.0638 27.2963L27.5023 24.158C27.6628 24.0689 27.7787 23.9173 27.8232 23.739C27.8322 23.6944 27.8411 23.6409 27.8411 23.5874ZM21.2168 12.4518L21.1454 12.4964H21.2435L21.2168 12.4518ZM28.0105 24.0599L27.9748 23.9975V24.0778L28.0105 24.0599Z" fill="black"/>
</g>
<defs>
<clipPath id="clip0_201_6657">
<rect width="57.06" height="45.648" fill="white" transform="translate(0.666504 0.183899)"/>
</clipPath>
</defs>
</svg>
