<svg width="37" height="46" viewBox="0 0 37 46" fill="none" xmlns="http://www.w3.org/2000/svg">
<g clip-path="url(#clip0_201_6651)">
<path d="M8.43559 0.906073C8.43559 0.906073 20.329 0.174992 19.2235 10.214C19.2235 10.214 20.9264 3.53618 28.4066 6.59424C28.4066 6.59424 26.8285 13.1918 20.5608 11.587C20.5608 11.587 21.8625 6.71906 26.4541 6.54075C26.4541 6.54075 22.8967 5.62244 19.1343 10.8916C19.1343 10.8916 17.369 2.46631 10.7893 2.00269C10.7893 2.00269 17.4939 3.73233 17.7078 11.587C17.7078 11.5959 8.22162 12.2111 8.43559 0.906073ZM36.2523 29.0438C36.2523 33.3679 35.3875 37.5404 33.3993 40.8391C29.6369 43.5941 24.0379 45.1186 18.4211 45.1186C12.8132 45.1186 7.20524 43.5941 3.44284 40.8391C1.45466 37.5404 0.589844 33.3679 0.589844 29.0438C0.589844 24.7286 2.16791 20.6007 4.15609 17.3019C7.91849 14.547 12.8132 12.9689 18.4211 12.9689C24.0379 12.9689 28.9237 14.5381 32.6861 17.3019C34.6743 20.6007 36.2523 24.7286 36.2523 29.0438ZM11.2886 38.3428C11.2886 36.9609 10.1741 35.8464 8.79222 35.8464C7.4103 35.8464 6.29584 36.9609 6.29584 38.3428C6.29584 39.7247 7.4103 40.8391 8.79222 40.8391C10.1741 40.8391 11.2886 39.7247 11.2886 38.3428ZM11.2886 32.4406C11.2886 31.0587 10.1741 29.9443 8.79222 29.9443C7.4103 29.9443 6.29584 31.0587 6.29584 32.4406C6.29584 33.8226 7.4103 34.937 8.79222 34.937C10.1741 34.937 11.2886 33.8226 11.2886 32.4406ZM11.2886 26.5385C11.2886 25.1566 10.1741 24.0421 8.79222 24.0421C7.4103 24.0421 6.29584 25.1566 6.29584 26.5385C6.29584 27.9204 7.4103 29.0349 8.79222 29.0349C10.1741 29.0349 11.2886 27.9204 11.2886 26.5385ZM17.7078 38.3428C17.7078 36.9609 16.5934 35.8464 15.2115 35.8464C13.8295 35.8464 12.7151 36.9609 12.7151 38.3428C12.7151 39.7247 13.8295 40.8391 15.2115 40.8391C16.5934 40.8391 17.7078 39.7247 17.7078 38.3428ZM17.7078 32.4406C17.7078 31.0587 16.5934 29.9443 15.2115 29.9443C13.8295 29.9443 12.7151 31.0587 12.7151 32.4406C12.7151 33.8226 13.8295 34.937 15.2115 34.937C16.5934 34.937 17.7078 33.8226 17.7078 32.4406ZM17.7078 26.5385C17.7078 25.1566 16.5934 24.0421 15.2115 24.0421C13.8295 24.0421 12.7151 25.1566 12.7151 26.5385C12.7151 27.9204 13.8295 29.0349 15.2115 29.0349C16.5934 29.0349 17.7078 27.9204 17.7078 26.5385ZM24.1271 38.3428C24.1271 36.9609 23.0126 35.8464 21.6307 35.8464C20.2488 35.8464 19.1343 36.9609 19.1343 38.3428C19.1343 39.7247 20.2488 40.8391 21.6307 40.8391C23.0126 40.8391 24.1271 39.7247 24.1271 38.3428ZM24.1271 32.4406C24.1271 31.0587 23.0126 29.9443 21.6307 29.9443C20.2488 29.9443 19.1343 31.0587 19.1343 32.4406C19.1343 33.8226 20.2488 34.937 21.6307 34.937C23.0126 34.937 24.1271 33.8226 24.1271 32.4406ZM24.1271 26.5385C24.1271 25.1566 23.0126 24.0421 21.6307 24.0421C20.2488 24.0421 19.1343 25.1566 19.1343 26.5385C19.1343 27.9204 20.2488 29.0349 21.6307 29.0349C23.0126 29.0349 24.1271 27.9204 24.1271 26.5385ZM30.5463 38.3428C30.5463 36.9609 29.4319 35.8464 28.05 35.8464C26.668 35.8464 25.5536 36.9609 25.5536 38.3428C25.5536 39.7247 26.668 40.8391 28.05 40.8391C29.4319 40.8391 30.5463 39.7247 30.5463 38.3428ZM30.5463 32.4406C30.5463 31.0587 29.4319 29.9443 28.05 29.9443C26.668 29.9443 25.5536 31.0587 25.5536 32.4406C25.5536 33.8226 26.668 34.937 28.05 34.937C29.4319 34.937 30.5463 33.8226 30.5463 32.4406ZM30.5463 26.5385C30.5463 25.1566 29.4319 24.0421 28.05 24.0421C26.668 24.0421 25.5536 25.1566 25.5536 26.5385C25.5536 27.9204 26.668 29.0349 28.05 29.0349C29.4319 29.0349 30.5463 27.9204 30.5463 26.5385ZM32.6861 23.0079C32.2581 21.0197 32.0263 19.718 31.2596 18.0152C27.8003 16.2409 23.191 15.1622 18.4211 15.1622C13.6512 15.1622 9.04185 16.2409 5.58259 18.0152C4.79802 19.7537 4.58404 21.0375 4.15609 23.0079C7.91849 22.3036 12.9558 21.6884 18.4211 21.6884C23.8864 21.6884 28.9237 22.3036 32.6861 23.0079Z" fill="black"/>
</g>
<defs>
<clipPath id="clip0_201_6651">
<rect width="35.6625" height="45.648" fill="white" transform="translate(0.589844 0.183899)"/>
</clipPath>
</defs>
</svg>
