<svg width="47" height="46" viewBox="0 0 47 46" fill="none" xmlns="http://www.w3.org/2000/svg">
<g clip-path="url(#clip0_201_6649)">
<path d="M41.5617 31.3172C37.4702 27.8321 38.2923 24.374 40.1267 19.8954C43.3056 12.1344 38.0282 3.22768 30.3574 0.923885C22.0757 -1.56357 12.9115 2.35404 9.82895 10.6283C9.05177 12.7225 8.71817 14.9553 8.8493 17.1852C9.00381 19.8191 10.1614 21.9078 10.9971 24.3444C12.5306 28.8166 8.49178 32.613 5.05374 34.8276C0.880695 37.5201 1.81568 38.3811 4.30233 38.5595C6.38663 38.7093 8.26782 38.154 10.1211 37.2181C10.9414 36.8038 13.7486 35.5303 14.1447 34.6693C13.0585 37.04 10.8493 41.1512 12.2312 43.7724C13.9341 47.0024 18.2146 40.9399 19.0703 39.6879C19.8362 38.5671 22.9007 32.4414 24.743 35.5042C26.4249 38.3002 25.5097 42.3149 27.9293 44.8319C30.8584 47.881 32.4901 43.1993 32.513 40.8893C32.5275 39.4262 31.9691 32.3435 35.1787 35.5449C37.0886 37.4512 39.8955 41.8912 43.0745 41.5205C46.5281 41.1178 41.1021 35.4608 40.5548 34.5043C41.0356 34.8858 45.3393 37.547 45.353 35.3531C45.3628 33.6779 42.6707 32.2623 41.5617 31.3172Z" fill="black"/>
</g>
<defs>
<clipPath id="clip0_201_6649">
<rect width="45.648" height="45.648" fill="white" transform="translate(0.941895 0.183899)"/>
</clipPath>
</defs>
</svg>
