<svg width="29" height="47" viewBox="0 0 29 47" fill="none" xmlns="http://www.w3.org/2000/svg">
<g clip-path="url(#clip0_201_6645)">
<path d="M24.6654 30.3141C22.2225 31.8654 18.8613 32.4806 16.6413 32.7124L18.5047 34.549L25.3073 41.3516C27.7948 43.9015 23.7471 47.8868 21.2329 45.4261C19.53 43.6964 17.0336 41.2 14.4302 38.5967L7.62762 45.4171C5.11342 47.8689 1.06572 43.848 3.57993 41.3427C5.30956 39.6131 7.77919 37.1167 10.3825 34.5401L12.2192 32.7035C10.0259 32.4717 6.61124 31.8921 4.14161 30.3052C1.23512 28.4329 -0.039813 27.3363 1.08356 25.0449C1.74331 23.7433 3.55318 22.6466 5.95149 24.5367C5.95149 24.5367 9.18786 27.1134 14.4124 27.1134C19.637 27.1134 22.8733 24.5367 22.8733 24.5367C25.2716 22.6556 27.0726 23.7433 27.7413 25.0449C28.8468 27.3363 27.5719 28.4329 24.6654 30.3141ZM2.83993 12.0995C2.83993 5.70695 8.03774 0.535889 14.4035 0.535889C20.7693 0.535889 25.9671 5.70695 25.9671 12.0995C25.9671 18.4652 20.7693 23.6363 14.4035 23.6363C8.03774 23.6363 2.83993 18.4652 2.83993 12.0995ZM8.72424 12.0995C8.72424 15.2288 11.2741 17.7787 14.4035 17.7787C17.5329 17.7787 20.0827 15.2288 20.0827 12.0995C20.0827 8.94332 17.5329 6.39345 14.4035 6.39345C11.2741 6.39345 8.72424 8.94332 8.72424 12.0995Z" fill="black"/>
</g>
<defs>
<clipPath id="clip0_201_6645">
<rect width="28.53" height="45.648" fill="white" transform="translate(0.137695 0.535889)"/>
</clipPath>
</defs>
</svg>
