<svg width="46" height="47" viewBox="0 0 46 47" fill="none" xmlns="http://www.w3.org/2000/svg">
<g clip-path="url(#clip0_201_6643)">
<path d="M21.9361 1.44797C22.6048 1.42034 23.2734 1.42301 23.9421 1.43995C24.264 1.45243 24.584 1.47561 24.9041 1.50503C25.3427 1.52911 25.7769 1.59687 26.212 1.64947C26.4732 1.6878 26.7318 1.73684 26.9921 1.77964C27.6965 1.89821 28.3892 2.07207 29.0775 2.26108C30.1688 2.57045 31.2342 2.9672 32.2657 3.43883C34.6337 4.53011 36.8073 6.04309 38.652 7.88595C40.4378 9.67709 41.9258 11.7687 43.0108 14.0547C43.1116 14.2856 43.2284 14.5094 43.3202 14.7447C43.5707 15.318 43.8008 15.9011 43.996 16.4949C44.3651 17.5942 44.6504 18.7229 44.8359 19.8677C44.8867 20.1476 44.9286 20.4293 44.9607 20.712C45.0097 21.0534 45.0445 21.3976 45.0659 21.7426C45.1399 22.4862 45.1408 23.2342 45.1345 23.9804C45.1283 24.4235 45.1114 24.8666 45.0677 25.308C45.0463 25.6093 45.0222 25.9107 44.9803 26.2102C44.9455 26.4527 44.9241 26.697 44.8813 26.9386C44.8011 27.3978 44.7298 27.8578 44.6255 28.3125C44.2599 29.9619 43.7071 31.5712 42.9752 33.094C41.5692 36.021 39.5132 38.6368 36.991 40.683C35.4484 41.9442 33.7415 42.9897 31.9171 43.7909C31.3635 44.0299 30.8062 44.259 30.2347 44.4516C29.9218 44.555 29.6098 44.6638 29.2924 44.7538C28.7021 44.9214 28.1075 45.0784 27.5057 45.1996C27.0902 45.2807 26.673 45.3538 26.2548 45.4207C25.7867 45.4796 25.3187 45.5491 24.847 45.5758C24.2506 45.6347 23.6514 45.6507 23.0532 45.6481C22.4452 45.6507 21.8362 45.6374 21.23 45.5776C20.9366 45.5571 20.6442 45.5331 20.3536 45.4929C20.1111 45.4582 19.8668 45.4368 19.6252 45.394C19.2578 45.3298 18.8896 45.2718 18.5241 45.196C18.1452 45.1122 17.7671 45.0275 17.3927 44.9268C16.6233 44.7333 15.8699 44.4801 15.1272 44.202C14.192 43.8346 13.2737 43.4218 12.3955 42.9315C12.2047 42.8289 12.0139 42.7273 11.8293 42.6132C10.829 42.0265 9.88037 41.3561 8.98346 40.6214C5.89152 38.0885 3.50838 34.6988 2.17638 30.9302C1.90089 30.1509 1.6673 29.3565 1.48096 28.5515C1.34901 28.0023 1.25629 27.4441 1.16179 26.8878C1.12612 26.6783 1.1074 26.4661 1.07709 26.2557C1.02359 25.9026 1.01022 25.546 0.972774 25.1912C0.901449 24.3469 0.909473 23.4981 0.927305 22.6511C0.939787 22.3382 0.957618 22.0261 0.989714 21.7141C1.01735 21.4314 1.03073 21.1462 1.07174 20.8653C1.10829 20.6148 1.12969 20.3616 1.17516 20.1128C1.23757 19.7616 1.29106 19.4085 1.36417 19.059C1.66998 17.5861 2.11932 16.1409 2.72469 14.7635C2.82722 14.5031 2.95561 14.2535 3.06884 13.9976C3.78655 12.5078 4.66473 11.0947 5.69806 9.80191C7.48118 7.53913 9.719 5.6401 12.2305 4.23232C12.8992 3.86232 13.5821 3.51462 14.2874 3.21862C15.6978 2.60522 17.1769 2.1532 18.6837 1.84739C18.9966 1.78766 19.3113 1.73684 19.6252 1.68246C19.8587 1.64055 20.0959 1.62005 20.3304 1.58617C20.6451 1.53891 20.9634 1.52554 21.2799 1.49344C21.4992 1.47205 21.7176 1.46135 21.9361 1.44797ZM22.7064 3.62428C21.8835 3.63319 21.0632 3.71254 20.2484 3.8231C19.5975 3.91938 18.9529 4.0549 18.3128 4.20647C17.0726 4.51851 15.8628 4.95003 14.7055 5.4921C13.7729 5.93699 12.8698 6.44607 12.0148 7.02737C11.6421 7.28771 11.2659 7.54448 10.9146 7.83245C10.4617 8.1864 10.0248 8.56086 9.60577 8.95493C9.38199 9.15464 9.17693 9.37396 8.96206 9.58437C6.44608 12.1512 4.64334 15.4143 3.83558 18.9181C3.6537 19.6706 3.51997 20.4356 3.43973 21.205C3.34166 21.9976 3.31134 22.7964 3.31402 23.5944C3.32382 24.231 3.3479 24.8675 3.42279 25.4996C3.47806 26.1344 3.58951 26.7621 3.70809 27.388C3.80348 27.8026 3.88907 28.2189 4.00498 28.6281C4.56577 30.7126 5.47606 32.7026 6.68591 34.4902C7.45622 35.6474 8.36026 36.7128 9.35881 37.6793C10.8103 39.0897 12.4837 40.2684 14.2927 41.176C14.9418 41.4898 15.5997 41.7885 16.2782 42.0346C16.7276 42.1915 17.1751 42.3529 17.6352 42.4786C18.6391 42.7665 19.6653 42.9778 20.7013 43.108C20.9607 43.1339 21.2193 43.1624 21.4787 43.1882C22.7108 43.2845 23.9519 43.2774 25.1823 43.1499C25.579 43.0964 25.9775 43.0616 26.3725 42.9912C26.6961 42.9315 27.0216 42.8798 27.3416 42.804C27.7098 42.7166 28.0798 42.6337 28.4436 42.5303C30.8062 41.8759 33.0423 40.773 35.0037 39.3028C36.4106 38.249 37.6748 37.0062 38.759 35.6224C39.0496 35.264 39.3091 34.8816 39.573 34.5035C39.8752 34.0524 40.1596 33.5897 40.4289 33.118C40.6428 32.7222 40.8515 32.3237 41.0485 31.9189C41.5558 30.8446 41.965 29.7239 42.2744 28.5764C42.5053 27.684 42.6979 26.779 42.8004 25.8616C42.9582 24.6607 42.9734 23.4455 42.9154 22.2374C42.8896 21.8906 42.8557 21.5447 42.8263 21.1979C42.6275 19.4968 42.2209 17.8179 41.5941 16.2229C41.0637 14.874 40.3879 13.5812 39.5783 12.3776C38.4469 10.7015 37.0605 9.19654 35.4798 7.93498C33.2464 6.15186 30.6235 4.85463 27.8436 4.18329C27.1499 4.01122 26.4447 3.88551 25.7368 3.78654C25.3882 3.73394 25.0369 3.71343 24.6874 3.67599C24.0286 3.62517 23.367 3.6118 22.7064 3.62428ZM13.3325 7.98313C14.5183 7.19053 15.836 6.6119 17.193 6.18395C16.9103 6.34176 16.6188 6.4853 16.3433 6.65559C15.3439 7.25115 14.4247 7.98402 13.6347 8.83903C13.0285 9.50146 12.4971 10.2415 12.1182 11.0581C11.8249 11.6697 11.6154 12.3232 11.5066 12.9937C11.4237 13.4261 11.3907 13.8683 11.4023 14.3088C11.4139 15.5266 11.7981 16.7231 12.4088 17.7698C12.9367 18.681 13.624 19.4932 14.4024 20.2002C14.8348 20.5889 15.3153 20.9215 15.7353 21.3236C15.9368 21.5188 16.1356 21.7176 16.3085 21.9396C16.5421 22.2347 16.7445 22.5628 16.8426 22.9293C16.9228 23.1985 16.9014 23.482 16.9041 23.7593C16.9059 24.1249 16.9005 24.4904 16.9068 24.8559C16.9193 25.1716 16.905 25.4881 16.9166 25.8037C16.9237 26.0159 16.9184 26.2281 16.921 26.4402C16.9353 26.9547 16.9264 27.4682 16.9344 27.9827C16.9442 28.2421 16.9362 28.5015 16.946 28.7619C16.9487 28.9072 16.9576 29.0543 16.9433 29.1996C16.8622 29.2103 16.7811 29.2157 16.6999 29.2139C15.7201 29.2139 14.7492 28.9794 13.8514 28.596C13.3165 28.3553 12.7985 28.0709 12.3277 27.7196C11.8151 27.3461 11.339 26.9208 10.9199 26.4438C10.3377 25.7983 9.85184 25.0717 9.43816 24.3085C9.34276 24.1275 9.23845 23.9501 9.15464 23.7629C9.05122 23.5275 8.92105 23.3046 8.82744 23.0657C8.46636 22.2027 8.24168 21.2879 8.10706 20.3634C8.06337 19.9675 8.00988 19.5717 8.00007 19.1731C7.93766 17.7707 8.07496 16.3602 8.41643 14.9988C8.60544 14.2722 8.8417 13.5563 9.15732 12.8742C9.72078 11.6082 10.525 10.451 11.5021 9.46936C12.062 8.91659 12.6727 8.41375 13.3325 7.98313ZM28.9678 6.1893C29.2121 6.25528 29.4502 6.34443 29.6891 6.42824C30.2561 6.63597 30.8196 6.85976 31.3572 7.13793C32.5261 7.71209 33.6138 8.45833 34.5508 9.36416C35.4602 10.2513 36.2216 11.2899 36.7922 12.4258C36.9063 12.671 37.0276 12.9126 37.1319 13.1622C37.6944 14.5085 38.0234 15.9492 38.1331 17.4034C38.1696 17.8081 38.1723 18.2138 38.1732 18.6195C38.1795 19.6572 38.0404 20.6923 37.7898 21.698C37.6142 22.3462 37.402 22.9899 37.0891 23.5864C36.8056 24.1784 36.4935 24.7597 36.1226 25.3017C35.5039 26.2352 34.7318 27.0733 33.8206 27.7286C32.8863 28.4097 31.8021 28.8894 30.6645 29.0998C30.3515 29.1613 30.0333 29.1961 29.7141 29.2077C29.5491 29.213 29.3824 29.2219 29.2184 29.1987C29.1934 29.0071 29.2184 28.8145 29.2175 28.6228C29.2148 28.2902 29.23 27.9586 29.2264 27.6269C29.2433 27.001 29.2282 26.3743 29.2451 25.7484C29.2478 25.5362 29.2424 25.324 29.2478 25.1118C29.2629 24.6598 29.2442 24.2078 29.2603 23.7558C29.2692 23.4892 29.2389 23.2172 29.3057 22.9569C29.3646 22.734 29.4644 22.5236 29.5812 22.3257C29.9789 21.674 30.5673 21.1702 31.1575 20.6977C31.6372 20.325 32.091 19.9158 32.4966 19.4638C33.1814 18.7175 33.76 17.8697 34.171 16.9433C34.3939 16.4146 34.574 15.8645 34.6658 15.2975C34.7425 14.9079 34.7603 14.5103 34.7559 14.1144C34.7541 13.4145 34.631 12.7191 34.4313 12.0486C34.2753 11.5378 34.0506 11.0519 33.7992 10.582C33.4542 9.96418 33.028 9.39536 32.5546 8.87023C31.6684 7.90289 30.6154 7.09245 29.4698 6.4541C29.3048 6.36316 29.1274 6.29183 28.9678 6.1893ZM19.9809 11.4005C20.0683 11.2953 20.1583 11.1927 20.2591 11.0991C20.2047 11.1821 20.1458 11.2605 20.0852 11.3381C19.8088 11.684 19.5913 12.079 19.4584 12.5025C19.3809 12.794 19.3086 13.0909 19.3042 13.394C19.2979 13.6187 19.2971 13.846 19.3327 14.0689C19.4335 14.7492 19.7188 15.3929 20.1146 15.9519C20.2929 16.1926 20.4935 16.4218 20.7316 16.6054C20.876 16.7187 21.0463 16.7918 21.2077 16.8773C21.485 17.0271 21.7711 17.1653 22.0163 17.3659C22.2544 17.5523 22.422 17.8411 22.4086 18.1496C22.4077 24.7177 22.4086 31.2859 22.4077 37.8549C22.4077 37.9753 22.4006 38.0956 22.4113 38.2151C22.4229 38.3471 22.4844 38.4674 22.5423 38.5851C22.619 38.7331 22.701 38.8829 22.8259 38.997C22.9016 39.0657 23.0015 39.1218 23.1067 39.1076C23.2404 39.0897 23.3439 38.9872 23.4143 38.8784C23.4999 38.7438 23.5641 38.5967 23.6176 38.446C23.6853 38.2561 23.6568 38.052 23.6657 37.8549C23.6782 37.4956 23.6639 37.1363 23.6782 36.777C23.6809 36.2519 23.6809 35.7276 23.6835 35.2025C23.696 34.8798 23.6862 34.557 23.6934 34.2343C23.7067 33.875 23.6916 33.5157 23.7058 33.1564C23.7085 32.6223 23.7085 32.0883 23.7121 31.5542C23.7246 31.2315 23.7139 30.9088 23.7219 30.586C23.7344 30.2356 23.7201 29.8852 23.7344 29.5357C23.737 29.0017 23.737 28.4677 23.7397 27.9336C23.754 27.5823 23.7388 27.2311 23.7567 26.8798C23.7825 27.0082 23.7682 27.1401 23.7763 27.2703C23.7932 27.5921 23.8137 27.9149 23.844 28.2367C23.8726 28.5434 23.8833 28.851 23.9207 29.1568C23.9537 29.4332 23.9662 29.7114 24.0054 29.9869C24.0562 30.3515 24.083 30.7189 24.1427 31.0826C24.2729 31.8886 24.395 32.6972 24.5965 33.4889C24.6973 33.9187 24.8105 34.3457 24.9531 34.7639C25.1796 35.4682 25.4631 36.1609 25.8723 36.7806C26.0266 37.016 26.2174 37.2246 26.4162 37.4234C26.4403 37.4457 26.4652 37.4689 26.4946 37.4867C26.5481 37.509 26.6114 37.4805 26.6462 37.4359C26.7095 37.3574 26.7505 37.2629 26.7978 37.1747C27.1589 36.4792 27.5271 35.7874 27.898 35.0964C27.9604 34.9796 28.0263 34.8628 28.1262 34.7746C28.2822 34.6346 28.4686 34.5347 28.6594 34.4509C28.9161 34.3422 29.1854 34.2557 29.4644 34.2352C30.0511 34.1799 30.6333 34.302 31.2083 34.4001C31.5373 34.4518 31.8681 34.5044 32.2006 34.5258C32.5341 34.5347 32.8675 34.5303 33.2001 34.5009C33.9624 34.4188 34.7148 34.237 35.4236 33.9436C35.8962 33.7439 36.3562 33.513 36.7886 33.2366C37.8104 32.5938 38.7019 31.7593 39.4669 30.8285C39.5712 30.7019 39.6675 30.57 39.7754 30.4469C39.6684 30.7358 39.5373 31.0149 39.4045 31.2921C39.293 31.5507 39.1513 31.7923 39.0238 32.0428C38.5637 32.9014 38.0413 33.7288 37.4412 34.4964C37.0819 34.9609 36.6807 35.3924 36.2528 35.7954C35.6608 36.3348 34.9984 36.8091 34.253 37.1114C33.521 37.4118 32.7097 37.5241 31.9269 37.4047C31.6095 37.353 31.3019 37.254 30.9988 37.1479C30.7501 37.0614 30.5183 36.9357 30.2829 36.8189C29.9771 36.6665 29.6909 36.4792 29.4172 36.2769C29.6588 36.5497 29.9245 36.7993 30.1928 37.0445C30.5735 37.3797 30.9721 37.6962 31.408 37.9566C31.7629 38.175 32.1471 38.3488 32.5528 38.4478C32.683 38.4808 32.8167 38.4888 32.9496 38.5013C32.8381 38.5994 32.7151 38.6832 32.5938 38.767C31.737 39.3501 30.8098 39.8244 29.8576 40.2318C27.9978 41.0075 26.0087 41.4773 23.9965 41.5995C23.581 41.6209 23.1655 41.6316 22.7501 41.6316C22.3061 41.6218 21.8612 41.62 21.4199 41.5736C20.4213 41.5059 19.4326 41.3302 18.4626 41.0895C17.5398 40.8479 16.6304 40.5439 15.7611 40.1489C14.9846 39.8048 14.2348 39.3982 13.5331 38.9194C13.3699 38.8026 13.1997 38.6939 13.0543 38.5557C13.6428 38.4496 14.216 38.2534 14.7474 37.978C15.2592 37.723 15.7272 37.3842 16.1409 36.991C16.3406 36.7957 16.5234 36.5818 16.6928 36.3589C16.387 36.5488 16.075 36.7289 15.746 36.8742C15.3528 37.0668 14.9373 37.2103 14.5147 37.3218C14.0039 37.4573 13.468 37.476 12.9447 37.4234C12.2198 37.3387 11.5307 37.0427 10.9378 36.6228C10.5526 36.3607 10.2049 36.0495 9.87146 35.7259C8.98614 34.82 8.24881 33.7814 7.58371 32.707C7.23243 32.148 6.91236 31.5703 6.59229 30.9935C6.49868 30.8116 6.40061 30.6324 6.30878 30.4496C6.56287 30.7099 6.80538 30.9819 7.06036 31.2413C7.86188 32.041 8.7151 32.7962 9.66016 33.4239C10.3333 33.8607 11.0572 34.2468 11.8498 34.4072C12.1271 34.4723 12.4133 34.4492 12.6941 34.4795C12.9411 34.5044 13.1899 34.4973 13.4377 34.5062C13.8879 34.5116 14.3391 34.5098 14.7893 34.4919C15.1147 34.4777 15.4375 34.4331 15.7602 34.3948C15.9448 34.3725 16.1267 34.3315 16.3076 34.2878C16.6536 34.2031 17.0307 34.2022 17.3624 34.3422C17.7868 34.5071 18.1148 34.845 18.377 35.2079C18.5695 35.4771 18.7389 35.7624 18.8816 36.062C18.985 36.2786 19.1009 36.489 19.1981 36.7093C19.2873 36.909 19.3898 37.1033 19.503 37.2906C19.5627 37.3815 19.6278 37.4822 19.7366 37.5179C19.8311 37.451 19.8891 37.3476 19.9399 37.2478C20.1271 36.8769 20.2448 36.4766 20.3758 36.0843C20.5559 35.4967 20.7129 34.9012 20.8386 34.2994C21.0356 33.4747 21.1283 32.6304 21.2433 31.7914C21.2933 31.4366 21.3173 31.079 21.3601 30.7242C21.4377 29.7756 21.5295 28.8279 21.5598 27.8766C21.567 27.7107 21.5812 27.5458 21.5821 27.38C21.583 26.9921 21.6044 26.6052 21.6017 26.2182C21.6009 26.0061 21.6009 25.7939 21.6017 25.5826C21.6062 25.1305 21.5839 24.6785 21.5821 24.2265C21.5643 23.6372 21.5188 23.0496 21.4671 22.463C21.402 21.9387 21.3289 21.4127 21.189 20.9019C21.0062 20.2109 20.6906 19.5618 20.3152 18.9565C20.0335 18.5045 19.7099 18.0756 19.3265 17.7056C18.9806 17.3615 18.5615 17.0744 18.0836 16.9522C17.9499 16.9157 17.8108 16.9121 17.6744 16.8952C17.6807 16.6286 17.7368 16.3665 17.7868 16.1061C17.9285 15.4188 18.1255 14.7421 18.3894 14.0912C18.525 13.7319 18.6935 13.3869 18.87 13.0463C19.1776 12.4614 19.5494 11.906 19.9809 11.4005ZM22.7688 11.552C22.8 11.5467 22.8321 11.5414 22.8642 11.5351C22.8811 11.6947 22.8722 11.8543 22.8731 12.0139V15.4134C22.8722 15.5685 22.8847 15.7246 22.8597 15.8788C22.8276 15.8761 22.7964 15.8743 22.7652 15.8743C22.6805 15.54 22.6119 15.2012 22.5316 14.866C22.4978 14.7296 22.4799 14.5905 22.4362 14.4568C22.2847 14.4354 22.1304 14.4416 21.9771 14.4389C21.526 14.438 21.0739 14.4389 20.6228 14.438C20.4748 14.4371 20.3268 14.4461 20.1788 14.4354C20.1761 14.4006 20.1556 14.3542 20.1931 14.3302C20.3072 14.2722 20.4356 14.2517 20.5551 14.2098C20.8609 14.1082 21.1684 14.0172 21.4743 13.9147C21.5982 13.8719 21.7328 13.8505 21.8451 13.7774C21.8487 13.7275 21.8469 13.6766 21.8407 13.6276C21.731 13.5786 21.6151 13.55 21.501 13.5135C21.2219 13.4217 20.9402 13.3387 20.662 13.2442C20.5024 13.189 20.3348 13.1551 20.1797 13.0846C20.177 13.0517 20.1735 13.0196 20.1699 12.9875C20.6237 12.9705 21.0793 12.9928 21.534 12.9768C21.8336 12.9652 22.134 12.9839 22.4336 12.9705C22.4443 12.9358 22.4568 12.9019 22.4666 12.8671C22.5629 12.4267 22.6743 11.9907 22.7688 11.552ZM23.3011 11.5342C23.3332 11.5387 23.3653 11.5449 23.3974 11.552C23.4847 11.8953 23.5516 12.2439 23.639 12.5872C23.6711 12.7138 23.6889 12.8439 23.7308 12.9678C23.9564 12.9839 24.1828 12.967 24.4093 12.9723C24.8693 12.983 25.3303 12.983 25.7903 12.9785C25.8581 12.9777 25.9258 12.9812 25.9936 12.9857C25.99 13.0178 25.9873 13.0499 25.9847 13.082C25.8224 13.156 25.6477 13.1934 25.4792 13.2505C25.1466 13.3601 24.8123 13.4636 24.4788 13.5688C24.428 13.5839 24.379 13.6062 24.3299 13.6258C24.3166 13.6749 24.3139 13.7257 24.3192 13.7765C24.3968 13.8193 24.4815 13.8487 24.5662 13.8737C25.0013 14.0092 25.4337 14.1536 25.8705 14.2838C25.9044 14.2954 25.9401 14.3079 25.9713 14.3275C26.007 14.3516 25.9918 14.3979 25.9847 14.4327C25.8367 14.4443 25.6896 14.4354 25.5416 14.4363C25.0806 14.4371 24.6206 14.4354 24.1596 14.4371C24.0161 14.4398 23.8726 14.4354 23.7299 14.4559C23.6835 14.6048 23.6657 14.7608 23.6256 14.9115C23.5418 15.2297 23.4901 15.5569 23.3991 15.8726C23.367 15.8735 23.3358 15.8743 23.3046 15.8779C23.2788 15.7237 23.2913 15.5676 23.2913 15.4125V12.013C23.293 11.8543 23.2841 11.6938 23.3011 11.5342ZM6.71622 15.5436C6.81607 15.3519 6.90166 15.1513 7.01668 14.9676C6.85441 15.6416 6.75723 16.329 6.69393 17.0182C6.62261 17.7056 6.61815 18.3992 6.64579 19.0893C6.7394 20.8671 7.13971 22.6404 7.91448 24.2497C8.18106 24.7837 8.48062 25.3044 8.85062 25.7751C9.39626 26.4411 9.96775 27.0911 10.6195 27.6554C11.0474 28.021 11.5101 28.3491 12.005 28.6183C12.2965 28.7654 12.5854 28.9206 12.8912 29.0356C13.3379 29.2166 13.7997 29.3574 14.266 29.476C14.6074 29.5616 14.9596 29.6017 15.293 29.7176C15.7388 29.8576 16.1374 30.1286 16.4548 30.4692C16.8943 30.9355 17.176 31.5275 17.3641 32.1338C17.4524 32.3923 17.5059 32.6607 17.5576 32.929C17.571 32.9959 17.5772 33.0646 17.5719 33.1332C16.9924 33.3811 16.3897 33.5843 15.7656 33.6842C15.3991 33.7537 15.0265 33.7725 14.6547 33.7805C13.7408 33.8019 12.8297 33.6236 11.9693 33.324C11.6359 33.1974 11.3015 33.0699 10.9859 32.9032C10.2673 32.5608 9.59151 32.1275 8.98346 31.614C8.72313 31.3866 8.46368 31.1566 8.23455 30.8981C7.41788 30.0217 6.7813 28.9892 6.29184 27.898C6.07875 27.4031 5.88083 26.9012 5.72391 26.3859C5.6196 26.0346 5.5135 25.6824 5.43326 25.324C5.36639 25.0619 5.32449 24.7935 5.26654 24.5287C5.22553 24.3379 5.20502 24.1436 5.17471 23.951C5.09893 23.4669 5.06059 22.9765 5.05613 22.4862C5.06594 21.9352 5.07842 21.3833 5.15153 20.8368C5.18719 20.5818 5.21126 20.325 5.25406 20.07C5.34143 19.5618 5.44485 19.0563 5.58483 18.5606C5.86032 17.5219 6.25172 16.5145 6.71622 15.5436ZM39.145 14.9694C39.2431 15.1174 39.3153 15.2797 39.3929 15.4384C39.5801 15.8351 39.7709 16.2319 39.9296 16.6411C40.6081 18.3137 41.0262 20.0995 41.0922 21.9058C41.094 22.0627 41.0984 22.2196 41.102 22.3774C41.1136 23.2306 40.9888 24.0794 40.8185 24.9139C40.7534 25.234 40.6812 25.5531 40.5885 25.867C40.2283 27.1794 39.6969 28.4525 38.9471 29.5919C38.2151 30.7126 37.2522 31.6915 36.1084 32.3923C35.5975 32.7124 35.0572 32.9843 34.4991 33.2117C33.9838 33.4069 33.4551 33.571 32.9121 33.6672C32.3415 33.7609 31.7611 33.8028 31.1825 33.7769C30.4764 33.7341 29.7756 33.5924 29.1132 33.3445C28.9402 33.2732 28.7619 33.2143 28.5925 33.1368C28.5738 33.0021 28.6148 32.8702 28.6397 32.7391C28.7432 32.2274 28.9099 31.7263 29.1479 31.2609C29.3592 30.8588 29.6401 30.4897 29.9913 30.2C30.208 30.0172 30.4585 29.8781 30.7189 29.7693C31.038 29.6356 31.3849 29.5937 31.721 29.517C32.3656 29.3646 33.0022 29.1666 33.6066 28.8929C34.5294 28.4784 35.3639 27.8783 36.0718 27.158C36.2136 27.0144 36.3598 26.8744 36.4944 26.7238C36.7949 26.3885 37.0926 26.0489 37.3726 25.6958C38.0395 24.798 38.5156 23.7709 38.8624 22.7108C39.0033 22.2383 39.1486 21.7658 39.2377 21.2799C39.2939 21.024 39.3305 20.7646 39.3733 20.506C39.4508 19.963 39.515 19.4165 39.523 18.8673C39.5337 18.2744 39.5355 17.6798 39.4758 17.0895C39.4107 16.3772 39.3091 15.6666 39.145 14.9694Z" fill="black"/>
</g>
<defs>
<clipPath id="clip0_201_6643">
<rect width="44.2215" height="45.648" fill="white" transform="translate(0.916016 0.535889)"/>
</clipPath>
</defs>
</svg>
