<svg width="58" height="47" viewBox="0 0 58 47" fill="none" xmlns="http://www.w3.org/2000/svg">
<g clip-path="url(#clip0_201_6641)">
<path d="M38.596 39.827C38.596 42.0827 36.7862 43.8926 34.5305 43.8926C32.2749 43.8926 30.4472 42.0827 30.4472 39.827C30.4472 37.5714 32.2838 35.7437 34.5305 35.7437C36.7951 35.7437 38.596 37.5714 38.596 39.827ZM15.9593 35.7437C13.7036 35.7437 11.8937 37.5803 11.8937 39.827C11.8937 42.0738 13.7036 43.8926 15.9593 43.8926C18.2149 43.8926 20.0426 42.0827 20.0426 39.827C20.0426 37.5714 18.2149 35.7437 15.9593 35.7437ZM41.9661 11.6715C15.0231 11.6715 8.1581 10.5303 0.856201 2.82721C3.92318 7.43659 5.60823 16.1026 34.1204 15.6835C63.8362 15.2378 45.7107 23.3599 40.4327 32.5251C57.0781 17.6628 68.9092 11.6715 41.9661 11.6715Z" fill="black"/>
</g>
<defs>
<clipPath id="clip0_201_6641">
<rect width="57.06" height="45.648" fill="white" transform="translate(0.856201 0.535889)"/>
</clipPath>
</defs>
</svg>
