<svg width="41" height="47" viewBox="0 0 41 47" fill="none" xmlns="http://www.w3.org/2000/svg">
<g clip-path="url(#clip0_201_6639)">
<path d="M25.12 39.0514L19.0574 41.9044C8.80439 40.9861 0.914062 35.5297 0.914062 28.9054C0.914062 22.5307 8.26945 17.2259 18.0053 16.0401V19.8739C11.6306 20.9883 6.94994 24.5991 6.94994 28.9054C6.94994 33.4524 12.1656 37.2237 19.0484 38.0885V7.77536L25.1111 4.81537V39.0514H25.12ZM40.8561 26.4803L29.1498 23.9394L32.4308 22.0938C30.6922 21.0686 28.5525 20.3107 26.1899 19.8828V16.0491C30.3089 16.5394 34.0089 17.7876 36.9153 19.5529L40.0358 17.7876L40.8561 26.4803Z" fill="black"/>
</g>
<defs>
<clipPath id="clip0_201_6639">
<rect width="39.942" height="45.648" fill="white" transform="translate(0.914062 0.535889)"/>
</clipPath>
</defs>
</svg>
