<svg width="52" height="47" viewBox="0 0 52 47" fill="none" xmlns="http://www.w3.org/2000/svg">
<g clip-path="url(#clip0_201_6635)">
<path d="M51.39 38.1063C51.8892 37.2593 51.809 36.7512 50.9085 37.0721C50.6411 36.6353 50.2844 36.2251 49.9189 35.8418C50.1774 34.9769 49.8565 34.5757 48.956 35.0215C48.5459 34.7362 48.0377 34.442 47.5384 34.2013C47.5384 32.855 46.5042 33.1671 45.9693 33.6931C45.042 33.5594 44.302 33.6663 43.5799 34.2013C43.6066 33.6218 43.6066 33.0423 43.6066 32.4449C44.73 32.4449 47.1907 31.4642 47.6989 29.2175C47.8237 28.6112 47.8416 27.9871 47.6722 27.2649C47.4047 26.0613 46.3972 25.3659 45.4343 24.9736C45.363 24.4476 44.7567 23.6987 44.1059 23.556C43.4551 23.4134 43.0004 23.9929 42.8488 24.4743C42.091 24.4743 41.137 24.724 40.9676 25.2233C40.4862 25.1787 39.978 25.0984 39.4698 25.0539C39.7105 24.8845 39.9512 24.7418 40.2187 24.6437C40.7001 23.8235 41.5204 23.6274 42.51 23.6095V23.3599C44.2486 23.3153 46.3437 22.8339 47.3066 21.7462C48.4389 20.5158 48.6083 18.4206 48.4122 16.8337C48.1982 15.2912 47.5473 13.4814 46.2189 12.5452C45.47 12.0192 44.2931 12.4739 44.1951 13.3922C43.9989 15.1397 44.302 16.0669 40.7536 15.63C39.8353 13.5081 38.5604 11.6537 36.9467 10.2807C30.7414 4.95804 21.9952 5.48406 15.1747 6.92839C16.9311 7.33851 18.839 7.69514 20.4973 8.39947C18.1614 8.61345 15.7988 9.40694 13.7036 10.4679C10.7793 11.9836 9.78075 13.1337 8.64847 14.2481C9.97689 14.052 11.2251 13.7934 12.5535 13.9093C11.6887 14.3908 10.913 14.997 10.1909 15.6925C7.89064 15.7727 8.06895 15.2199 7.85497 13.3833C7.7569 12.4472 6.58004 12.0103 5.83113 12.5185C3.32584 14.2927 2.84439 19.6421 4.74342 21.7462C5.70631 22.8339 7.87281 23.2886 9.6381 23.3331C9.61135 23.4312 9.61135 23.5025 9.61135 23.5739C10.5742 23.6184 11.3499 23.8146 11.8046 24.6081C12.0721 24.7061 12.3128 24.8488 12.5268 25.0182C12.0453 25.0628 11.5371 25.143 11.0557 25.1876C10.7615 24.5992 9.83424 24.4654 9.17449 24.4654C9.03184 23.9572 8.59497 23.3777 7.91738 23.5471C7.31112 23.7165 6.66028 24.4387 6.58896 24.9647C4.58294 25.8117 3.90535 27.3541 4.35113 29.2085C4.82366 31.4196 7.29329 32.436 8.44341 32.436V34.1924C7.85497 33.7466 7.16847 33.5237 6.05402 33.6842C5.56366 33.1938 4.51162 32.7837 4.51162 34.1924C3.98559 34.4331 3.49523 34.7184 3.09403 35.0126C2.2203 34.5757 1.88151 34.861 2.1044 35.8328C1.73886 36.2162 1.40898 36.5996 1.11476 37.0632C0.205369 36.7333 0.134044 37.2593 0.633319 38.0974C0.535247 38.4095 0.490669 38.7215 0.463922 39.0603C0.419344 41.8776 4.44029 44.7663 7.01691 44.8644C8.55931 44.9089 10.1017 44.1155 10.8506 42.7692C20.9431 43.2061 31.0623 43.1347 41.1816 42.7692C41.9037 44.1155 43.4461 44.9357 44.9885 44.8644C47.5919 44.7663 51.6129 41.8776 51.5415 39.0603C51.5594 38.7304 51.4791 38.4184 51.39 38.1063ZM44.8102 15.4606C44.9083 15.1932 45.0242 14.7117 45.0242 14.159C45.0242 13.6329 45.6305 13.4368 46.2813 14.0876C47.2709 15.1219 47.6097 17.6985 47.5117 18.6435C47.1461 17.431 46.3526 16.058 44.8102 15.4606ZM44.4001 16.058C46.1387 16.6108 46.95 18.5187 47.0481 20.4177C46.95 20.6585 46.7806 20.8992 46.6112 21.0953C46.103 21.6213 45.2382 21.9869 44.2753 22.183C44.6587 20.284 44.302 17.9659 43.143 16.5662C43.5799 16.4949 44.1148 16.3522 44.4001 16.058ZM42.2515 16.6643C43.4818 17.7252 44.0346 20.1592 43.5086 22.3257C43.143 22.3703 42.7864 22.397 42.4743 22.397C42.3049 20.4445 41.8681 18.4741 41.1994 16.6375C41.5293 16.6643 41.9216 16.6643 42.2515 16.6643ZM4.57403 18.6346C4.47595 17.6985 4.788 15.1129 5.80438 14.0787C6.42847 13.4279 7.06148 13.624 7.06148 14.15C7.06148 14.7028 7.1863 15.1843 7.27546 15.4517C5.73306 16.058 4.93957 17.431 4.57403 18.6346ZM5.43884 21.0953C5.26944 20.8992 5.12679 20.6585 5.00198 20.4177C5.12679 18.5187 5.92028 16.6108 7.64992 16.058C7.93521 16.3433 8.47015 16.4949 8.90702 16.5662C7.74799 17.9659 7.39136 20.2751 7.77473 22.183C6.81185 21.9869 5.94703 21.6481 5.43884 21.0953ZM9.70942 22.397C9.34388 22.397 8.98726 22.3703 8.57714 22.3257C8.16702 20.6674 8.40774 18.8575 9.05858 17.6004V17.6271L10.1463 17.1724C10.5832 17.003 11.0111 16.8337 11.4747 16.7356C10.5207 18.492 9.9234 20.4177 9.70942 22.397ZM26.1142 7.89128C29.8498 7.89128 32.9079 10.9226 32.9079 14.6582C32.9079 18.4206 29.8498 21.4519 26.1142 21.4519C22.3785 21.4519 19.3205 18.4206 19.3205 14.6582C19.3205 10.9315 22.3785 7.89128 26.1142 7.89128ZM36.4206 23.4312C36.3939 25.0182 35.7965 27.791 34.37 28.5131C33.1932 29.1015 33.7905 27.8444 32.899 23.3331C34.0847 23.3599 35.2705 23.3599 36.4206 23.4312ZM31.6062 23.2886C31.6775 23.7254 31.945 26.8816 31.4635 27.0242C30.4293 27.3363 27.8973 27.4076 26.9077 26.9261C26.5421 26.6587 26.4975 23.7254 26.5243 23.2618V23.2886C28.2093 23.2618 29.9211 23.2618 31.6062 23.2886ZM25.1513 28.0852C23.9923 28.3972 21.4424 28.4507 20.2834 27.9425C19.7038 27.7018 19.9446 24.1623 20.114 23.3421C21.8258 23.2975 23.5376 23.2975 25.2672 23.2707V23.2975C25.3653 24.0375 25.5614 27.8623 25.1513 28.0852ZM15.6561 23.5293C16.7439 23.458 17.8494 23.4045 18.9371 23.3866C18.7231 24.7596 18.6696 27.2649 18.5002 28.0406C18.4022 28.6469 18.1169 28.6469 17.6354 28.424C15.6829 27.5502 15.1747 25.2857 15.6561 23.5293ZM12.5 26.3199C13.1954 26.2218 13.8998 26.1505 14.5952 26.0792C14.7378 26.6319 14.934 27.1401 15.2193 27.6483C16.1108 29.164 19.1422 30.8312 19.2402 28.2724C19.793 29.6008 22.8778 29.3601 24.1349 29.2353C25.5347 29.1105 26.2568 29.1105 26.5243 27.9604C27.6298 28.3437 29.2703 28.3259 30.4472 28.2278C31.4546 28.1565 32.3016 28.1832 32.6404 27.4343C32.7385 27.889 32.8098 28.4685 33.0505 28.9322C34.0134 30.8312 36.3761 29.057 37.223 26.1148C37.9898 26.1861 38.7922 26.2842 39.5857 26.3555C39.55 26.4714 39.2469 27.0064 40.2365 27.3897C35.9927 31.5801 31.7043 35.2177 25.6862 36.9295C20.0515 35.075 15.6918 31.6247 11.7868 27.4343C12.6427 27.1312 12.714 26.6498 12.5 26.3199ZM10.5742 41.6993C10.2354 43.2863 8.62172 44.3473 7.03474 44.2759C5.32294 44.2046 2.88897 42.7603 1.75669 41.0217C1.51597 38.249 5.66173 35.5565 7.65883 36.1538C8.98726 36.5372 10.1374 38.8998 10.6456 40.9682C10.6456 41.2357 10.6188 41.4764 10.5742 41.6993ZM9.79858 35.815C9.754 34.6114 9.754 33.4078 9.77183 32.2042H9.79858C10.0393 32.0615 10.3068 31.8654 10.494 31.6247C11.0735 31.482 11.653 31.17 11.8403 30.8044C12.1345 30.1714 11.2162 30.1358 11.3588 29.6989C11.5995 29.6008 11.867 29.5028 12.0542 29.3868C14.6576 31.9902 17.2788 34.4242 20.7291 36.2519C17.4482 37.2593 14.2742 38.7126 11.2875 40.4422C11.1805 38.7839 10.601 37.2415 9.79858 35.815ZM39.8977 41.5745C30.7146 41.8866 21.5137 41.94 12.3128 41.5745C12.3128 41.6012 12.3128 41.6013 12.286 41.6013V41.5745H12.3128C15.4422 39.6487 18.7499 38.0796 22.3339 37.0454C23.3682 37.5001 24.3845 37.8924 25.4455 38.2222C25.6416 38.2936 25.6416 38.2936 25.8289 38.2222C27.1038 37.8567 28.3609 37.402 29.5913 36.8492C33.2913 37.8923 36.6168 39.6755 39.8977 41.5745ZM40.8339 40.469C37.6332 38.7304 34.3255 37.2683 30.8573 36.2251C34.2541 34.442 37.2676 32.008 40.085 29.3868C40.2811 29.5117 40.4951 29.6008 40.7625 29.6721C40.7625 29.7435 40.7893 29.8415 40.8071 29.8861C40.397 30.1268 40.1117 30.4389 40.2811 30.8044C40.4772 31.1432 41.0478 31.482 41.6274 31.5979C41.8413 31.8386 42.0821 32.0526 42.3495 32.2042C42.3495 33.4345 42.3228 34.6649 42.2782 35.8863L42.3049 35.8596C41.4758 37.2772 40.923 39.1584 40.8339 40.469ZM50.2755 41.0217C49.1432 42.7603 46.7093 44.2046 44.9975 44.2759C43.2767 44.3562 41.3866 43.0991 41.3866 40.9772C41.8948 38.9087 43.0717 36.5461 44.3734 36.1627C46.3972 35.5475 50.543 38.249 50.2755 41.0217ZM33.5855 7.24044C33.2467 0.812277 24.5985 0.13469 22.3518 5.14527C26.3281 2.97877 30.4026 3.74552 33.5855 7.24044ZM7.00799 36.8314C5.60824 36.974 2.59476 39.096 2.59476 40.6829C2.59476 41.7172 3.99451 42.4215 5.46559 42.0114C6.55329 41.7261 8.23835 40.4422 8.6663 39.5774C9.20123 38.5432 8.33642 36.662 7.00799 36.8314ZM26.2568 21.1221C28.8067 21.1221 30.884 19.1963 30.884 16.8069C30.884 13.5884 27.2732 11.6269 24.447 12.8573C25.2939 13.1248 25.918 13.8915 25.918 14.7831C25.918 16.8604 22.9491 17.6361 21.7723 15.7905C21.1214 18.8307 23.5019 21.1221 26.2568 21.1221ZM6.40173 42.8049C6.44631 43.3844 7.48943 43.9371 8.3275 43.6518C8.93377 43.4111 9.62918 42.7157 9.86991 42.2075C10.1374 41.5834 9.77183 40.4244 9.00509 40.567C8.2116 40.7097 6.35715 42.056 6.40173 42.8049ZM45.0242 36.8314C43.6958 36.662 42.831 38.5432 43.3392 39.5774C43.776 40.4422 45.4878 41.7261 46.5666 42.0114C48.0377 42.4215 49.4374 41.7261 49.4374 40.6829C49.4374 39.096 46.424 36.974 45.0242 36.8314ZM43.0271 40.567C42.2782 40.4244 41.9216 41.5745 42.1801 42.2075C42.3941 42.7157 43.0984 43.4111 43.7225 43.6518C44.5428 43.9371 45.6037 43.3844 45.6216 42.8049C45.7018 42.056 43.8206 40.7097 43.0271 40.567Z" fill="black"/>
</g>
<defs>
<clipPath id="clip0_201_6635">
<rect width="51.354" height="45.648" fill="white" transform="translate(0.338867 0.535889)"/>
</clipPath>
</defs>
</svg>
