<svg width="46" height="47" viewBox="0 0 46 47" fill="none" xmlns="http://www.w3.org/2000/svg">
<g clip-path="url(#clip0_201_6631)">
<path d="M0.755859 24.2907C0.960919 12.1833 9.43968 3.56722 19.8175 2.17103C32.1923 0.512725 42.6058 8.92907 44.6029 20.1004C46.5019 30.6921 40.68 40.6063 31.0868 44.5292C30.2577 44.868 29.803 44.6807 29.482 43.8427C27.895 39.7147 26.308 35.5838 24.7211 31.4499C24.4447 30.7278 24.6319 30.2731 25.3451 29.9521C27.5027 28.9714 28.849 27.3309 29.2056 24.9772C29.34 24.114 29.2954 23.2323 29.0747 22.3871C28.8539 21.5418 28.4617 20.7509 27.9224 20.0636C27.3831 19.3763 26.7082 18.8073 25.9397 18.3918C25.1712 17.9764 24.3255 17.7234 23.455 17.6486C19.9779 17.3454 17.0536 19.7616 16.5454 22.9712C16.0818 25.9133 17.5351 28.6504 20.2811 29.8986C21.137 30.2909 21.3064 30.6654 20.9765 31.5391C19.3806 35.6938 17.7847 39.8514 16.1888 44.0121C15.957 44.6272 15.4488 44.8412 14.8069 44.5916C10.1173 42.7817 5.76644 39.153 3.14525 33.982C0.925256 29.5955 0.898509 26.163 0.755859 24.2907ZM2.61922 24.1213C2.65489 24.7097 2.67272 25.3962 2.73513 26.0917C3.29681 32.502 7.15728 38.8856 14.4146 42.4162C14.6999 42.5499 14.8069 42.4875 14.9139 42.2111C16.2423 38.7251 17.5796 35.2391 18.9259 31.7531C19.0418 31.4589 18.9794 31.3251 18.7119 31.1557C15.8946 29.3815 14.4948 26.8316 14.6464 23.4883C14.7356 21.5625 15.4756 19.8775 16.7683 18.4688C19.443 15.5534 23.6333 14.9204 27.0659 16.8996C28.4538 17.7 29.5759 18.8907 30.2924 20.3237C31.0089 21.7567 31.2882 23.3688 31.0957 24.9594C30.7748 27.6875 29.375 29.7649 27.0213 31.1825C26.7806 31.3251 26.7092 31.441 26.8162 31.7174C28.1714 35.2123 29.5147 38.7102 30.8461 42.2111C30.9531 42.4875 31.0601 42.5499 31.3454 42.4162C34.5104 40.9362 37.1584 38.8232 39.2 35.9969C42.3027 31.6996 43.5776 26.9119 42.9713 21.6428C41.7499 11.1669 32.3261 2.49199 20.1919 3.98982C10.7324 5.14885 2.77971 13.1283 2.61922 24.1213Z" fill="black"/>
</g>
<defs>
<clipPath id="clip0_201_6631">
<rect width="45.648" height="45.648" fill="white" transform="translate(0.0429688 0.535889)"/>
</clipPath>
</defs>
</svg>
