<svg width="35" height="47" viewBox="0 0 35 47" fill="none" xmlns="http://www.w3.org/2000/svg">
<g clip-path="url(#clip0_201_6627)">
<path d="M34.8218 28.415C29.9093 40.6027 18.1407 33.2295 18.1407 33.2295C14.5299 40.5224 8.56531 45.2121 1.68245 45.2388C0.247038 45.2388 0.20246 43.0634 1.68245 43.0634C7.42411 43.0367 12.4258 39.2564 15.6978 33.2473C12.0335 34.6649 5.12388 35.7348 1.29017 25.9187C11.0082 21.9155 15.4749 26.9172 17.1867 29.9753C18.0694 27.7999 18.7024 25.4372 19.1125 22.8695C19.1125 22.8695 6.65737 24.822 5.78364 14.1233C16.4021 9.8527 19.3889 20.9616 19.3889 20.9616C19.5315 19.4727 19.6831 16.272 19.6831 16.2006C19.6831 16.2006 10.2058 9.62981 16.2862 1.47202C27.3951 5.30573 21.7604 15.951 21.7604 15.951C21.805 16.0936 21.805 18.0729 21.7604 18.9288C21.7604 18.9288 25.7903 10.9939 33.9213 13.8023C33.5469 25.7493 21.2701 23.2885 21.2701 23.2885C20.8778 25.7314 20.2715 28.0495 19.487 30.1982C19.487 30.1982 26.8869 22.0136 34.8218 28.415Z" fill="black"/>
</g>
<defs>
<clipPath id="clip0_201_6627">
<rect width="34.236" height="45.648" fill="white" transform="translate(0.585449 0.535889)"/>
</clipPath>
</defs>
</svg>
