<svg width="46" height="47" viewBox="0 0 46 47" fill="none" xmlns="http://www.w3.org/2000/svg">
<g clip-path="url(#clip0_201_6629)">
<path d="M22.932 45.4706C10.7176 45.4706 0.821289 35.5743 0.821289 23.3599C0.821289 11.1455 10.7176 1.24915 22.932 1.24915C24.7954 1.24915 26.6142 1.48095 28.3438 1.91782L4.5926 35.4851H22.932V45.4706ZM22.932 32.6678V13.624L9.61209 32.6678H22.932ZM31.491 35.4851V43.7499C35.5655 42.0381 39.0247 39.1405 41.423 35.4851H31.491ZM36.6086 23.1637L34.7185 23.9127L36.6086 24.6527V23.1637ZM34.7987 28.0228C34.2014 28.0228 34.0855 28.5844 34.0855 29.1729V29.8594H35.5298V28.9678C35.5298 28.4418 35.3247 28.0228 34.7987 28.0228ZM45.0428 23.3599C45.0428 26.6854 44.3117 29.8415 42.9922 32.6678H31.491V2.96986C39.4527 6.31322 45.0428 14.1857 45.0428 23.3599ZM32.9532 13.3387H39.0336V9.09489H37.7944V12.0014H36.5551V9.36236H35.3158V12.0014H34.1835V9.09489H32.9443V13.3387H32.9532ZM39.0247 29.8594H36.6621V28.8787C36.6621 27.5057 36.1628 26.6319 34.7987 26.6319C33.4257 26.6319 32.9532 27.577 32.9532 28.9411V31.1967H39.0336V29.8594H39.0247ZM39.0247 20.6763L32.9443 23.3242V24.4298L39.0247 27.0599V25.5799L37.7409 25.0717V22.709L39.0247 22.183V20.6763ZM38.5968 14.5691H35.4228V16.9406H36.6621V15.8529H37.6428C38.4096 17.2616 37.7587 19.0002 35.9845 19.0002C33.9785 19.0002 33.4614 16.7445 34.6026 15.639L33.5684 14.6939C32.124 16.2541 32.4807 20.391 35.9845 20.391C39.0158 20.391 39.9698 17.1903 38.5968 14.5691Z" fill="black"/>
</g>
<defs>
<clipPath id="clip0_201_6629">
<rect width="44.2215" height="45.648" fill="white" transform="translate(0.821289 0.535889)"/>
</clipPath>
</defs>
</svg>
