<svg width="52" height="47" viewBox="0 0 52 47" fill="none" xmlns="http://www.w3.org/2000/svg">
<g clip-path="url(#clip0_201_6625)">
<path d="M34.5485 17.8233C34.5485 13.5973 29.6271 13.8826 26.043 15.1664C25.9271 18.6792 25.8201 22.3613 25.7756 25.8473C25.838 26.097 26.0074 26.4001 27.1218 26.4001C30.4028 26.4001 34.5575 22.5842 34.5485 17.8233ZM17.2077 24.2604C17.2255 24.2604 17.7872 24.0196 18.2062 24.0196C20.5778 24.0196 20.0517 27.9514 16.9224 27.9514C15.0055 27.9514 13.6147 26.3377 13.6147 24.1177C13.6147 20.3732 17.4395 15.5944 22.5927 12.8395C22.6818 11.7339 22.8602 10.878 23.5288 10.3252C24.5274 9.52284 25.9004 10.0132 26.1589 11.3149C32.596 9.33561 38.2129 11.404 38.2129 17.7341C38.2129 24.6794 31.1428 31.3394 25.7221 30.0555C25.7132 33.5683 25.8023 36.6887 25.9628 38.9711V38.989C25.9806 39.2921 26.0163 40.1034 25.4903 40.6919C24.6344 41.6369 22.5124 41.5834 22.245 38.7037C21.8794 34.7451 22.2628 20.3286 22.3698 17.0833C20.4529 18.4206 17.1542 21.5678 17.1542 23.8502C17.172 24.0731 17.1898 24.2069 17.2077 24.2604ZM0.945557 16.6821C0.945557 16.6821 0.936641 20.0165 4.36916 20.0165H7.04384L9.04094 39.3813C9.04094 39.3813 9.04094 43.3309 13.0262 43.3309H38.7835C38.7835 43.3309 42.7687 43.2952 42.7687 39.3813L44.7658 20.0165H47.4405C47.4405 20.0165 50.8641 20.1235 50.8641 16.6821C50.8641 16.6821 50.873 13.3476 47.4405 13.3476H44.7569C44.1061 11.0652 42.0644 6.72333 34.1117 6.72333H31.6153V5.02045C31.6153 5.02045 31.3746 3.37997 29.7341 3.37997H22.0845C22.0845 3.37997 20.2033 3.37997 20.2033 5.02045V6.72333H17.698C17.698 6.72333 8.33661 7.09779 6.95469 13.3476H4.36916C4.36916 13.3476 0.945557 13.2407 0.945557 16.6821Z" fill="black"/>
</g>
<defs>
<clipPath id="clip0_201_6625">
<rect width="51.354" height="45.648" fill="white" transform="translate(0.231445 0.535889)"/>
</clipPath>
</defs>
</svg>
