<svg width="58" height="47" viewBox="0 0 58 47" fill="none" xmlns="http://www.w3.org/2000/svg">
<g clip-path="url(#clip0_201_6619)">
<path d="M37.9033 15.1816C37.5029 16.9157 37.7784 15.7219 36.557 21.0026L40.0992 20.0567C38.1074 15.6336 38.5577 16.6322 37.9033 15.1816ZM19.5291 19.7384C17.729 20.2198 18.5207 20.0085 15.9958 20.6816L16.3934 24.7998C18.905 24.1231 18.2318 24.3032 19.4978 23.967C23.2692 23.0942 22.4266 18.9369 19.5291 19.7384ZM48.6082 17.4034L44.5543 8.55907C44.047 7.45621 42.8193 6.87937 41.646 7.19231C35.381 8.86398 38.1939 8.1124 29.5573 10.4224C29.1719 10.5254 28.8172 10.7204 28.5238 10.9908C28.2304 11.2612 28.0071 11.5988 27.8732 11.9746C13.149 10.6346 0.287354 14.2437 0.287354 20.7449C0.287354 23.7317 3.02178 26.7282 7.50009 29.2478L7.65522 30.8419C7.14827 31.0365 6.71897 31.3917 6.43288 31.8533C6.1468 32.3149 6.01967 32.8574 6.07092 33.398L6.45429 37.3637C6.57822 38.6395 7.65166 39.6113 8.93283 39.6104C9.39466 39.6095 8.66447 39.7691 19.8571 36.7788C20.9778 36.4783 21.7401 35.4397 21.692 34.2806C41.0023 38.3372 57.5319 33.7475 57.3447 26.7175C57.3456 24.2078 55.3663 20.7833 48.6082 17.4034ZM23.0347 27.1312L21.0813 27.6554L16.7625 28.8064L16.9819 30.9061L18.8122 30.4148L19.2143 34.3832L8.93373 37.1274L8.55035 33.1582L10.3353 32.6812L9.34474 22.4603L7.55091 22.9409L7.16308 18.9734C23.0463 14.7349 22.3357 14.8348 23.7658 14.8143C28.8173 14.7135 29.4851 21.2193 27.5594 24.1249C26.4645 25.6414 24.857 26.7095 23.0347 27.1312ZM40.7928 28.613L40.446 25.0922L41.7744 24.7374L41.1851 23.4285L36.0354 24.8033L35.6699 26.3671L37.3817 25.9107L37.7428 29.4359L27.6815 32.1168L27.2839 28.1556L29.1553 27.6572L32.1045 16.3816L30.5755 16.7882L30.2011 12.8225C38.5247 10.5945 35.9971 11.2703 42.2897 9.5915L48.2338 22.5611L50.0874 22.0653L50.4707 26.031L40.7928 28.613Z" fill="black"/>
</g>
<defs>
<clipPath id="clip0_201_6619">
<rect width="57.06" height="45.648" fill="white" transform="translate(0.287354 0.535889)"/>
</clipPath>
</defs>
</svg>
