<svg width="41" height="47" viewBox="0 0 41 47" fill="none" xmlns="http://www.w3.org/2000/svg">
<g clip-path="url(#clip0_201_6617)">
<path d="M27.5661 25.9078H22.3314V34.7095H27.5658C29.0175 34.7095 30.1525 34.3002 30.971 33.4818C31.7894 32.6633 32.1987 31.5902 32.1987 30.2624C32.1987 28.9651 31.7817 27.915 30.9476 27.112C30.1136 26.3091 28.9864 25.9077 27.5661 25.9078ZM13.6685 12.0103H8.43407V20.8121H13.6685C15.12 20.8121 16.2549 20.4027 17.0734 19.5841C17.8919 18.7655 18.3011 17.6924 18.3011 16.365C18.3011 15.0677 17.8842 14.0175 17.0503 13.2143C16.2165 12.4112 15.0892 12.0099 13.6685 12.0103ZM33.0343 3.38889H7.59859C5.67562 3.39106 3.83203 4.15591 2.47228 5.51564C1.11253 6.87538 0.347654 8.71896 0.345459 10.6419L0.345459 36.0778C0.34763 38.0007 1.11249 39.8443 2.47225 41.2041C3.832 42.5638 5.6756 43.3287 7.59859 43.3309H33.0343C34.9573 43.3287 36.8009 42.5638 38.1607 41.2041C39.5204 39.8443 40.2853 38.0007 40.2875 36.0778V10.6419C40.2853 8.71896 39.5204 6.87538 38.1606 5.51564C36.8009 4.15591 34.9573 3.39106 33.0343 3.38889ZM38.7078 36.0778C38.7061 37.5819 38.1078 39.024 37.0442 40.0876C35.9806 41.1513 34.5385 41.7495 33.0343 41.7512H7.59859C6.09441 41.7495 4.65231 41.1513 3.5887 40.0876C2.52508 39.024 1.9268 37.5819 1.92513 36.0778V10.6419C1.92683 9.13776 2.52511 7.69569 3.58873 6.63209C4.65234 5.56849 6.09442 4.97023 7.59859 4.96856H33.0343C34.5385 4.97023 35.9806 5.56849 37.0442 6.63209C38.1078 7.69569 38.7061 9.13776 38.7078 10.6419V36.0778ZM27.5661 12.0103H22.3314V20.8121H27.5658C29.0175 20.8121 30.1525 20.4027 30.971 19.5841C31.7894 18.7655 32.1987 17.6924 32.1987 16.365C32.1987 15.0677 31.7817 14.0175 30.9476 13.2143C30.1136 12.4112 28.9864 12.0099 27.5661 12.0103Z" fill="black"/>
</g>
<defs>
<clipPath id="clip0_201_6617">
<rect width="39.942" height="45.648" fill="white" transform="translate(0.345459 0.535889)"/>
</clipPath>
</defs>
</svg>
