<svg width="41" height="47" viewBox="0 0 41 47" fill="none" xmlns="http://www.w3.org/2000/svg">
<g clip-path="url(#clip0_201_6615)">
<path d="M33.3911 6.20622C29.9497 2.55082 25.4117 0.535889 20.6061 0.535889C10.3799 0.535889 2.05273 9.11272 2.05273 19.651C2.05273 26.3466 7.20596 33.8981 9.42595 36.8314C12.6891 41.1465 17.5748 46.1839 20.6061 46.1839C24.315 46.1839 30.6719 37.7854 31.3851 36.8225C33.5784 33.8714 38.6959 26.2753 38.6959 19.651C38.6959 14.6137 36.8148 9.83488 33.3911 6.20622ZM20.6061 44.5701C16.817 44.5701 3.66646 29.6543 3.66646 19.6599C3.66646 10.0845 11.1467 2.15853 20.6061 2.15853C29.5931 2.15853 37.0733 10.0934 37.0733 19.6599C37.0822 29.6543 23.9317 44.5701 20.6061 44.5701ZM30.5382 18.9734C30.5382 24.2425 25.9823 28.7538 20.6596 28.7538C11.6905 28.7538 7.2238 19.1071 12.377 12.5452V12.5809C12.377 14.7652 14.1691 16.5394 16.3712 16.5394C18.5734 16.5394 20.3654 14.7652 20.3654 12.5809C20.3654 10.9583 19.3758 9.56741 17.9671 8.95224C24.7965 7.24044 30.5382 12.4561 30.5382 18.9734Z" fill="black"/>
</g>
<defs>
<clipPath id="clip0_201_6615">
<rect width="39.942" height="45.648" fill="white" transform="translate(0.40332 0.535889)"/>
</clipPath>
</defs>
</svg>
