<svg width="45" height="47" viewBox="0 0 45 47" fill="none" xmlns="http://www.w3.org/2000/svg">
<g clip-path="url(#clip0_201_6613)">
<path d="M28.9786 23.9037L28.9697 22.7447C28.9697 22.7447 30.9044 20.9794 30.8509 20.8546L30.0039 19.0715C29.9504 18.9466 27.3738 19.0269 27.3738 19.0269L26.5358 18.1977C26.5358 18.1977 26.5536 15.6568 26.4288 15.6033L24.6367 14.783C24.5119 14.7295 22.7912 16.6553 22.7912 16.6553L21.6233 16.6375C21.6233 16.6375 19.7956 14.7295 19.6707 14.783L17.8876 15.523C17.7628 15.5676 17.9054 18.0997 17.9054 18.0997L17.0941 18.911C17.0941 18.911 14.4908 18.8307 14.4462 18.9466L13.724 20.7119C13.6705 20.8367 15.5963 22.5842 15.5963 22.5842L15.6052 23.7343C15.6052 23.7343 13.6705 25.4996 13.724 25.6244L14.571 27.4076C14.6245 27.5324 17.2011 27.4521 17.2011 27.4521L18.0392 28.2813C18.0392 28.2813 18.0213 31.1165 18.1462 31.161L19.9382 31.901C20.063 31.9545 21.7837 29.8059 21.7837 29.8059L22.9517 29.8237C22.9517 29.8237 24.7794 31.9456 24.8953 31.901L26.6784 31.2324C26.8032 31.1789 26.6606 28.3705 26.6606 28.3705L27.4719 27.5591C27.4719 27.5591 30.0753 27.6394 30.1198 27.5146L30.842 25.7493C30.9044 25.6512 28.9786 23.9037 28.9786 23.9037ZM24.9755 23.1281C25.0379 24.6526 23.8343 25.9454 22.2919 26.0167C20.7495 26.088 19.43 24.9023 19.3676 23.3777C19.3052 21.8531 20.5088 20.5604 22.0512 20.498C23.5936 20.4266 24.9131 21.6124 24.9755 23.1281ZM42.9138 19.749L34.2656 11.1009L34.2567 11.1098C27.5611 4.57465 16.8356 4.61923 10.2023 11.2525C5.66429 15.7994 7.7238 13.7399 1.67009 19.749C-0.318091 21.7372 -0.318091 24.9825 1.67009 26.9707C7.90211 33.1581 5.80694 31.0719 10.3539 35.6189L10.3628 35.6099C17.0585 42.1451 27.784 42.1094 34.4172 35.4673C38.9641 30.9292 36.9046 32.9798 42.9138 26.9707C44.9019 24.9825 44.9019 21.7372 42.9138 19.749ZM12.6987 32.9709C7.38501 27.6661 7.38501 19.0625 12.6987 13.7577C18.0035 8.44403 26.6071 8.45295 31.9208 13.7577C37.2256 19.0625 37.2345 27.6661 31.9208 32.9798C26.6071 38.2846 18.0124 38.2757 12.6987 32.9709Z" fill="black"/>
</g>
<defs>
<clipPath id="clip0_201_6613">
<rect width="44.2215" height="45.648" fill="white" transform="translate(0.181885 0.535889)"/>
</clipPath>
</defs>
</svg>
