<svg width="58" height="47" viewBox="0 0 58 47" fill="none" xmlns="http://www.w3.org/2000/svg">
<g clip-path="url(#clip0_201_6611)">
<path d="M19.1034 31.2324C19.4422 31.2235 21.1362 31.1076 21.3858 31.0362C21.1719 30.8044 17.4986 30.9471 15.3232 26.6141C14.9398 25.8473 14.6545 25.0449 14.7526 24.1534C15.0112 21.8799 17.6858 21.4787 19.3887 22.504C22.5984 24.4298 25.0323 30.6439 29.5258 31.1967C32.8246 31.5979 37.0684 29.6811 39.1725 27.149C39.119 27.1401 39.1012 27.1312 39.0833 27.1401C39.0477 27.149 39.012 27.1579 38.9853 27.1669C36.0164 28.2456 30.5778 28.0317 26.9759 25.8473C23.6237 23.8146 22.2417 20.6139 22.3576 19.1963C22.5181 17.2973 24.3993 17.1279 25.5583 17.4488C26.8422 17.7965 27.7338 19.018 29.0265 19.8917C30.4174 20.8189 31.9598 21.1131 33.6002 20.81C34.9287 20.5693 36.6672 19.7134 36.8544 19.5172C36.7564 19.5083 36.694 19.5083 36.6315 19.4994C36.0788 19.4459 35.526 19.4281 34.9822 19.3479C25.068 17.8768 23.4899 4.76189 12.4702 3.91491C8.52059 3.61178 3.60808 4.63708 0.318214 7.03538C0.246889 7.08887 0.18448 7.14237 0.12207 7.19586C0.130986 7.21369 0.130986 7.22261 0.139902 7.24044C0.211227 7.24044 0.282552 7.23152 0.353876 7.22261C0.915561 7.13345 1.46833 7.15128 2.0211 7.24935C4.14302 7.63273 6.27385 9.30886 7.00493 14.0698C7.47746 17.1279 6.94252 18.5989 7.71818 21.7462C9.41215 28.6201 15.8314 31.3394 19.1034 31.2324ZM6.83553 6.32213C6.75529 6.23297 6.75529 6.21514 6.71963 6.14382C7.79842 5.91201 8.87721 5.77828 9.98275 5.71587C9.88468 7.02646 8.00348 7.61489 6.83553 6.32213ZM24.3904 37.5714C20.5745 37.6784 16.188 35.1909 13.3796 32.0972C12.9695 31.6514 11.8818 30.2962 11.7213 30.0109L11.757 29.9753C12.3454 30.3408 14.0483 31.6336 16.6427 32.3825C18.8003 33.0066 20.9311 32.9442 23.0263 32.0883C25.0501 31.2591 26.6817 32.0437 26.8689 32.3468C25.2195 32.6856 25.0769 32.7391 24.7292 33.0512C24.2745 33.4435 24.3191 34.0943 25.3533 34.5847C27.6892 35.6902 30.9701 34.335 34.0193 36.8492C34.2332 37.0275 34.7414 37.5446 34.9197 37.8032C34.9108 37.821 34.893 37.8299 34.8841 37.8478C34.4561 37.714 33.4219 37.1791 31.3 37.0186C29.0978 36.8403 27.1721 37.4911 24.3904 37.5714ZM39.9749 15.104C41.4371 14.6404 43.6571 13.9093 45.9038 14.8098C47.3392 15.3893 48.2397 16.477 48.7657 17.8946C49.0778 18.7327 49.2204 19.651 49.2204 20.4534C49.2026 20.4534 49.1847 20.4534 49.1669 20.4623C49.1491 20.4266 49.1312 20.3821 49.1223 20.3464C48.6765 18.385 46.4566 16.4414 43.0954 17.6806C38.6197 19.3389 31.4694 18.5454 27.3236 13.4011C27.2612 13.3209 27.1097 13.2496 27.2077 13.1158C27.2166 13.098 27.395 13.1693 27.4752 13.2317C29.0889 14.4264 30.8899 15.1843 32.8513 15.5676C35.5706 16.1115 37.7192 15.8262 39.9749 15.104ZM49.1312 25.5799C46.2426 25.5977 46.1178 30.0466 39.8947 31.3215C38.272 31.6514 36.4443 31.7317 35.8915 31.696V31.6603C36.1412 31.5266 37.2021 31.4285 38.5395 30.1803C39.2438 29.5295 39.9036 28.8341 40.5723 28.1387C42.3108 26.3377 44.2633 24.3763 47.8741 24.6616C49.9337 24.822 50.4864 25.3926 51.0927 25.7938C51.1194 25.8117 51.1283 25.8384 51.1551 25.8741C51.1105 25.8741 51.0927 25.883 51.0749 25.8741C50.4508 25.6334 49.7999 25.5799 49.1312 25.5799ZM48.0346 23.4312C48.0257 23.449 48.0257 23.4669 48.0168 23.4847C45.4402 23.0924 43.7373 22.7804 41.9096 23.8413C40.3939 24.724 39.1101 25.669 36.3819 26.0167C33.9658 26.3199 32.361 26.2307 30.4887 25.3035C30.4619 25.2857 30.4352 25.2678 30.3995 25.25C30.3995 25.2322 30.4084 25.2232 30.4084 25.2054C32.6284 25.5442 33.6537 25.6601 35.3566 24.6883C37.3448 23.5382 38.9318 22.3168 41.7134 21.9245C44.3525 21.5589 46.2872 22.1474 48.0346 23.4312ZM24.0694 9.21079C24.0159 9.1573 23.9714 9.1038 23.8822 9.00573C24.5598 9.00573 26.5301 8.89874 28.6431 9.75464C30.3995 10.4679 31.514 11.6269 33.1188 12.6879C34.1084 13.3387 35.205 13.517 36.3641 13.41C36.7474 13.3744 37.1219 13.3031 37.5053 13.2585C37.5409 13.2496 37.5855 13.2585 37.639 13.2852C37.5855 13.3209 37.532 13.3655 37.4785 13.3922C36.7564 13.7488 35.9896 13.9539 35.1961 14.0252C32.8692 14.257 30.7116 13.6953 28.6521 12.6522C26.9313 11.7696 25.4068 10.6105 24.0694 9.21079ZM57.1821 30.4656C56.87 30.742 55.1582 31.4998 53.3751 30.9382C52.2785 30.5905 51.6365 29.6097 50.5577 28.7895C49.6662 28.1119 48.6944 28.0852 48.0525 28.0406C48.1059 27.9693 48.1327 27.9336 48.1594 27.9158C49.479 27.0955 50.8787 26.8281 52.3765 27.3363C53.491 27.7107 54.0883 28.5399 55.0869 29.4938C56.0498 30.4211 56.9592 30.3765 57.1464 30.43C57.1553 30.4211 57.1642 30.43 57.1821 30.4656ZM38.2364 42.68C38.4325 42.787 38.379 42.8138 38.3701 42.8584C36.7207 42.7335 35.3477 42.1808 34.1976 40.8791C32.254 38.6769 30.4798 38.3916 29.8646 38.2311C29.9092 38.2133 29.9359 38.1955 29.9627 38.1955C31.1306 38.2044 32.2896 38.2579 33.4308 38.5432C35.6865 39.1138 36.5513 40.8078 37.1397 41.6904C37.425 42.1184 37.7906 42.4304 38.2364 42.68Z" fill="black"/>
</g>
<defs>
<clipPath id="clip0_201_6611">
<rect width="57.06" height="45.648" fill="white" transform="translate(0.12207 0.535889)"/>
</clipPath>
</defs>
</svg>
