<svg width="47" height="47" viewBox="0 0 47 47" fill="none" xmlns="http://www.w3.org/2000/svg">
<g clip-path="url(#clip0_201_6609)">
<path d="M9.03263 6.18659C13.1775 2.96538 18.4431 1.1876 23.6997 1.32134C26.337 1.28746 28.9698 1.80011 31.4483 2.6881C29.297 2.27531 27.0796 2.12285 24.906 2.46967C21.0839 2.94309 17.5025 4.89026 14.9357 7.74594C15.4412 7.65678 15.8968 7.41873 16.3622 7.22348C17.9795 6.52182 19.7046 6.04127 21.4646 5.90129C23.2245 5.71139 24.9987 5.86296 26.7498 6.07247C25.4641 6.32122 24.1535 6.47992 22.916 6.92748C19.8464 7.91444 17.0968 9.8839 15.2219 12.5113C13.9915 14.2686 13.1151 16.3326 13.0224 18.4964C12.9912 19.9666 13.4878 21.5999 14.7903 22.4193C15.7931 23.0253 16.9845 23.2394 18.1355 23.0202C19.5129 22.8009 20.8164 22.2499 22.0227 21.5643C23.0498 20.9562 24.0439 20.267 24.8757 19.4022C25.2136 19.1151 25.1013 18.6489 25.1093 18.2619C24.9203 18.2316 24.7188 18.163 24.5476 18.2887C23.5295 18.8468 22.46 19.3057 21.354 19.659C19.5709 20.2091 17.5952 20.4133 15.8174 19.7285C16.9577 19.8828 18.1408 19.7562 19.1822 19.2435C20.9858 18.3769 22.464 16.9968 24.0358 15.7869C26.5075 13.884 29.1626 12.2321 31.9618 10.8557C34.254 9.78583 36.6818 8.82473 39.2343 8.70526C37.8408 9.92848 36.3679 11.0697 35.0636 12.3945C33.7699 13.6427 32.6153 15.0247 31.4875 16.4226C31.1737 16.8327 30.6896 17.0414 30.2768 17.3284C28.2834 18.6689 26.6859 20.5192 25.6505 22.6867C24.8186 24.4413 24.3577 26.4179 24.6011 28.3615C24.7741 29.5821 25.3776 30.8214 26.4645 31.474C27.6146 32.1872 29.0544 32.1935 30.341 31.9287C33.2653 31.2645 35.8178 29.3529 37.5626 26.9502C39.385 24.4966 40.2837 21.4047 40.1624 18.36C40.1161 17.6913 40.0224 17.0226 40.0144 16.3549C40.7277 18.0916 41.3357 19.8953 41.4989 21.7782C41.6772 23.0514 41.5657 24.3424 41.3544 25.603C41.1842 26.5838 40.8489 27.5208 40.6608 28.4944C42.4779 26.4572 43.6924 23.9545 44.1682 21.2665C44.6684 18.0997 44.2279 14.8558 42.9013 11.9372C44.754 14.7902 45.7846 18.1407 46.0851 21.5197C46.1288 22.6546 46.1288 23.7941 46.0851 24.9281C45.8324 27.9871 44.9332 30.9576 43.4469 33.6431C41.1182 37.8638 37.3843 41.2776 32.9987 43.272C26.0187 46.5021 17.4249 46.0644 10.888 41.9632C7.41269 39.8371 4.59139 36.7934 2.73464 33.1671C1.42502 30.5882 0.655646 27.7692 0.473633 24.8827L0.473633 22.0885C0.824017 15.8707 4.11745 9.97038 9.03263 6.18659ZM28.8253 13.3485C29.3135 13.2658 29.7917 13.1319 30.2518 12.9491C30.6976 12.7913 31.0756 12.4195 31.1719 11.9488C30.3731 12.3937 29.5689 12.8332 28.8253 13.3485Z" fill="black"/>
</g>
<defs>
<clipPath id="clip0_201_6609">
<rect width="45.648" height="45.648" fill="white" transform="translate(0.473877 0.535889)"/>
</clipPath>
</defs>
</svg>
