<svg width="41" height="47" viewBox="0 0 41 47" fill="none" xmlns="http://www.w3.org/2000/svg">
<g clip-path="url(#clip0_201_6601)">
<path d="M18.7022 16.4546C18.7022 18.3358 17.4362 19.8515 15.876 19.8515C15.243 19.8515 14.7348 19.7445 14.3425 19.5216V13.459C14.7348 13.2182 15.243 13.0845 15.876 13.0845C17.4362 13.0845 18.7022 14.5913 18.7022 16.4546ZM23.3918 22.4281C22.7588 22.4281 22.2506 22.5618 21.8583 22.8025V28.8652C22.2506 29.0881 22.7588 29.195 23.3918 29.195C24.9431 29.195 26.2181 27.6883 26.2181 25.8249C26.2181 23.9437 24.9431 22.4281 23.3918 22.4281ZM40.3404 8.02044V39.4034C40.3404 41.7661 38.4236 43.6829 36.0609 43.6829H4.67794C2.3153 43.6829 0.398438 41.7661 0.398438 39.4034V8.02044C0.398438 5.6578 2.3153 3.74094 4.67794 3.74094H36.0609C38.4236 3.74094 40.3404 5.6578 40.3404 8.02044ZM16.8923 23.6317C20.5477 23.6317 23.5077 20.4577 23.5077 16.5349C23.5077 12.612 20.5477 9.43802 16.8923 9.43802C15.8225 9.43802 14.7437 9.72332 13.8075 10.2226H9.7331V28.6155L14.3514 27.715V23.2037C15.1181 23.4801 15.9651 23.6317 16.8923 23.6317ZM31.0147 25.8873C31.0147 21.9645 28.0547 18.7905 24.426 18.7905C24.1407 18.7905 23.8554 18.8083 23.5701 18.8529C23.2403 19.9674 22.6697 20.9748 21.8583 21.8307C20.628 23.1681 18.9875 23.9527 17.24 24.0418V37.9769L21.8583 37.0765V32.5651C22.6251 32.8504 23.481 32.9842 24.4171 32.9842C28.0547 32.9842 31.0147 29.8102 31.0147 25.8873Z" fill="black"/>
</g>
<defs>
<clipPath id="clip0_201_6601">
<rect width="39.942" height="45.648" fill="white" transform="translate(0.398438 0.887939)"/>
</clipPath>
</defs>
</svg>
