<svg width="44" height="47" viewBox="0 0 44 47" fill="none" xmlns="http://www.w3.org/2000/svg">
<path d="M41.3097 2.95636C38.9292 3.56262 35.2346 5.49642 31.0942 8.97084C28.3374 7.41283 25.2247 6.59403 22.0582 6.59393C11.8168 6.59393 3.51367 14.8962 3.51367 25.1384C3.51367 35.3807 11.8168 43.6829 22.0582 43.6829C32.2995 43.6829 40.6027 35.3798 40.6027 25.1384C40.6083 20.3162 38.7285 15.6829 35.3647 12.2277C34.7761 12.9872 34.2682 13.8059 33.8491 14.6706C36.4237 17.5495 37.8473 21.2762 37.8477 25.1384C37.8477 33.8454 30.7652 40.9289 22.0591 40.9289C19.3172 40.9288 16.6233 40.2094 14.2463 38.8426C21.6409 29.2735 27.6902 35.4752 30.6787 18.6354C31.1949 15.7271 33.1751 10.2315 41.9329 4.35433C42.6533 3.87021 42.1495 2.74238 41.3097 2.95636ZM11.8052 37.121C10.0704 35.6432 8.67696 33.8065 7.72107 31.7377C6.76519 29.6689 6.26963 27.4174 6.2686 25.1384C6.2686 16.4314 13.3521 9.34886 22.0582 9.34886C24.4265 9.34795 26.7635 9.88929 28.8902 10.9314C23.0068 16.4689 17.5799 24.5607 11.8052 37.121Z" fill="black"/>
</svg>
