<svg width="52" height="47" viewBox="0 0 52 47" fill="none" xmlns="http://www.w3.org/2000/svg">
<g clip-path="url(#clip0_201_6605)">
<path d="M21.8131 22.4683C21.5278 22.29 21.2514 22.2098 20.9127 22.2098C20.3242 22.2098 19.7893 22.4951 19.1919 22.5396L19.3435 22.9765L21.8131 22.4683ZM33.9295 40.1123C32.2355 40.1123 28.2146 40.9593 26.8059 41.8776L27.4211 45.8986C30.6039 46.4424 33.6709 46.2195 36.8716 45.0248C36.4437 44.1333 34.7764 40.1123 33.9295 40.1123ZM30.4435 16.3165C31.0319 16.5662 31.4688 17.1368 32.4673 18.2869C32.6456 18.1621 33.136 17.8233 33.136 17.5202C33.136 17.0833 32.0839 16.3433 31.9591 15.4696C32.9577 14.9614 34.2058 14.9346 35.3114 14.6761C41.3829 13.2139 45.6803 9.9597 48.3995 4.27153C48.9434 3.14817 49.4516 1.9713 49.5051 0.714201L49.3267 0.946007C46.7947 5.40382 46.3846 6.58068 42.0783 9.86163C39.2343 12.037 35.9087 13.4457 32.5743 14.7296L32.0126 14.7028V12.7592C30.2651 12.9019 30.2562 11.4575 29.1953 10.7086C27.528 12.5452 26.3779 14.3462 23.944 15.2645C22.8117 15.6924 22.1965 16.1561 21.6348 17.2081C24.7464 15.7459 29.7659 16.0045 30.4435 16.3165ZM49.5853 0.535889L49.5318 0.633961L49.5051 0.714201L49.5586 0.660707L49.5853 0.535889ZM44.3073 34.6025C41.2849 29.5295 37.5938 24.0464 30.9338 24.3049L30.9071 23.77C30.809 22.5664 33.8314 24.0553 34.0365 21.0062L32.7526 21.6481C30.9873 17.5736 31.9859 16.8069 26.9129 16.8069C25.6023 16.8069 24.5324 16.9585 23.2218 17.217C23.4804 18.8753 23.4179 20.4891 22.25 21.7016L23.9885 22.1919C23.837 22.4772 23.73 22.7536 23.73 23.0657C23.73 24.938 27.5459 23.3242 27.5459 26.0613C27.5459 27.7018 24.2649 31.4196 22.6512 31.4196C21.938 31.4196 17.8635 26.9618 17.8903 26.0613L17.917 25.6512L22.5799 24.6259C23.7389 24.3941 23.6765 22.6021 22.3213 22.6021C21.9914 22.6021 18.4787 23.4223 17.917 23.5471C17.7387 23.0835 17.2483 22.29 16.6866 22.29C16.4013 22.29 16.125 22.5753 15.8397 22.6466C15.0194 22.8784 13.0758 22.9052 13.9228 24.4387L1.4766 27.149C0.986237 27.2471 0.683105 27.7107 0.683105 28.2011C0.683105 28.736 1.17346 29.1729 1.7084 29.1729C2.42165 29.1729 13.4146 26.6408 14.85 26.302C15.0818 26.5873 15.2601 26.8637 15.5454 27.0688C17.3375 28.3526 20.877 34.7273 22.357 34.7273C24.5057 34.7273 27.528 32.7302 28.7138 30.9917C28.9991 30.6083 29.329 30.323 29.8194 30.3765C29.8729 31.6068 27.002 33.4256 26.8772 34.2726C26.7524 35.182 26.788 37.4109 26.8505 37.9369C29.2309 38.6591 31.4866 37.616 33.7957 37.6784C34.1791 35.8061 34.7408 33.9427 34.6695 32.017L34.6427 31.17C34.5179 28.1208 33.6709 27.7375 31.5401 25.9454C31.442 25.8473 31.3083 25.7136 31.2102 25.5888C31.4063 25.464 31.3083 25.4996 31.6203 25.4372C39.5106 25.4372 36.6398 41.8063 41.5612 45.9342C44.5123 44.5969 48.0251 43.4468 50.7889 41.7261C48.2034 39.4437 46.0993 37.6516 44.3073 34.6025ZM26.8148 38.7126V41.1376L27.8668 40.8345L27.6083 38.7126H26.8148ZM20.6898 25.3035L22.8384 30.7599L24.7107 29.5295L21.9201 24.9914L20.6898 25.3035ZM28.2145 39.1138L28.3929 40.2193C29.1953 40.0856 33.5996 39.6309 33.5996 38.9622C33.5996 38.8374 33.5461 38.6769 33.5193 38.5521C31.13 38.5521 30.2295 38.8909 28.2145 39.1138Z" fill="black"/>
</g>
<defs>
<clipPath id="clip0_201_6605">
<rect width="51.354" height="45.648" fill="white" transform="translate(0.0600586 0.535889)"/>
</clipPath>
</defs>
</svg>
