<svg width="35" height="47" viewBox="0 0 35 47" fill="none" xmlns="http://www.w3.org/2000/svg">
<g clip-path="url(#clip0_201_6595)">
<path d="M18.6132 1.46747C9.46574 1.46747 0.425293 7.56576 0.425293 17.4354C0.425293 23.7119 3.95588 27.2782 6.09563 27.2782C6.97828 27.2782 7.48647 24.8175 7.48647 24.1221C7.48647 23.2929 5.37346 21.5276 5.37346 18.0773C5.37346 10.9091 10.8298 5.82721 17.891 5.82721C23.9625 5.82721 28.456 9.27755 28.456 15.6166C28.456 20.3508 26.557 29.2307 20.4052 29.2307C18.1852 29.2307 16.2862 27.6259 16.2862 25.3257C16.2862 21.9556 18.6399 18.6925 18.6399 15.2154C18.6399 9.31322 10.2681 10.3831 10.2681 17.5156C10.2681 19.0134 10.4554 20.6717 11.124 22.0358C9.89369 27.3317 7.37948 35.222 7.37948 40.6784C7.37948 42.3634 7.6202 44.0217 7.78068 45.7068C8.08381 46.0456 7.93225 46.0099 8.39586 45.8405C12.8893 39.6887 12.7289 38.4851 14.7616 30.4343C15.8582 32.5206 18.6934 33.644 20.9401 33.644C30.4085 33.644 34.6613 24.4163 34.6613 16.098C34.6613 7.24479 27.0117 1.46747 18.6132 1.46747Z" fill="black"/>
</g>
<defs>
<clipPath id="clip0_201_6595">
<rect width="34.236" height="45.648" fill="white" transform="translate(0.425293 0.887939)"/>
</clipPath>
</defs>
</svg>
