<svg width="45" height="47" viewBox="0 0 45 47" fill="none" xmlns="http://www.w3.org/2000/svg">
<g clip-path="url(#clip0_201_6591)">
<path d="M44.4835 23.7119C44.4835 35.9263 34.5871 45.8227 22.3727 45.8227C20.0903 45.8227 17.8971 45.475 15.8286 44.833C16.7291 43.362 18.0754 40.9548 18.5747 39.0379C18.8421 38.0037 19.9477 33.7777 19.9477 33.7777C20.6698 35.1507 22.7739 36.3186 25.0117 36.3186C31.6806 36.3186 36.4861 30.1847 36.4861 22.5618C36.4861 15.2599 30.5216 9.79465 22.8542 9.79465C13.3144 9.79465 8.24145 16.1961 8.24145 23.177C8.24145 26.4223 9.97108 30.4611 12.726 31.7449C13.145 31.9411 13.3679 31.8519 13.466 31.4507C13.5373 31.1476 13.9118 29.6408 14.0812 28.9454C14.1347 28.7225 14.1079 28.5264 13.9296 28.3124C13.0291 27.1979 12.2981 25.1652 12.2981 23.2662C12.2981 18.3893 15.9891 13.6729 22.2836 13.6729C27.7132 13.6729 31.5201 17.3729 31.5201 22.6688C31.5201 28.6512 28.4977 32.797 24.566 32.797C22.3995 32.797 20.7679 31.0049 21.2939 28.8028C21.918 26.1727 23.1216 23.3375 23.1216 21.4385C23.1216 19.7445 22.2122 18.3269 20.3221 18.3269C18.1021 18.3269 16.319 20.6182 16.319 23.6941C16.319 25.6555 16.9788 26.9751 16.9788 26.9751C16.9788 26.9751 14.7944 36.2295 14.3932 37.9591C13.9474 39.867 14.1258 42.5596 14.313 44.307C6.09278 41.0885 0.261963 33.0823 0.261963 23.7119C0.261963 11.4975 10.1583 1.6012 22.3727 1.6012C34.5871 1.6012 44.4835 11.4975 44.4835 23.7119Z" fill="black"/>
</g>
<defs>
<clipPath id="clip0_201_6591">
<rect width="44.2215" height="45.648" fill="white" transform="translate(0.261719 0.887939)"/>
</clipPath>
</defs>
</svg>
