<svg width="46" height="47" viewBox="0 0 46 47" fill="none" xmlns="http://www.w3.org/2000/svg">
<g clip-path="url(#clip0_201_6587)">
<path d="M29.3521 20.3953C29.3521 22.223 27.8632 23.7119 26.0354 23.7119H19.7678V17.0787H26.0354C27.8632 17.0787 29.3521 18.5676 29.3521 20.3953ZM45.1951 23.7119C45.1951 35.9263 35.2988 45.8227 23.0844 45.8227C10.87 45.8227 0.973633 35.9263 0.973633 23.7119C0.973633 11.4975 10.87 1.6012 23.0844 1.6012C35.2988 1.6012 45.1951 11.4975 45.1951 23.7119ZM33.7742 20.3953C33.7742 16.1247 30.306 12.6566 26.0354 12.6566H15.3456V34.7673H19.7678V28.1341H26.0354C30.306 28.1341 33.7742 24.6659 33.7742 20.3953Z" fill="black"/>
</g>
<defs>
<clipPath id="clip0_201_6587">
<rect width="45.648" height="45.648" fill="white" transform="translate(0.259766 0.887939)"/>
</clipPath>
</defs>
</svg>
