<svg width="40" height="47" viewBox="0 0 40 47" fill="none" xmlns="http://www.w3.org/2000/svg">
<g clip-path="url(#clip0_201_6585)">
<path d="M37.0317 10.8645L28.2498 10.0621L29.498 7.08428C30.4252 4.98911 28.5351 3.48237 26.9392 3.7855L2.75111 7.74404C1.40485 7.98476 0.433049 9.3756 0.843167 11.0072L10.2135 42.0603C10.793 43.9593 13.4855 44.2179 14.4662 42.6844L17.6135 35.4805L38.583 14.8587C40.0452 13.3609 38.9664 11.0339 37.0317 10.8645ZM27.278 5.6667C27.7327 5.60429 27.9467 5.88959 27.7416 6.32645L26.2438 9.88379L10.4275 8.43054L27.278 5.6667ZM2.76894 10.5079C2.49256 10.0532 2.8581 9.61632 3.31279 9.69656L25.486 11.7204L16.8467 32.2888L2.76894 10.5079ZM12.8703 41.5788C12.6385 41.9355 12.166 41.8552 12.0323 41.4718L4.62339 16.9093L16.0086 34.5266C15.3845 35.8639 12.8703 41.5788 12.8703 41.5788ZM37.1922 13.5392L19.4768 30.9603L27.4741 11.9076L36.9604 12.7724C37.317 12.8705 37.4685 13.245 37.1922 13.5392Z" fill="black"/>
</g>
<defs>
<clipPath id="clip0_201_6585">
<rect width="38.5155" height="45.648" fill="white" transform="translate(0.744385 0.887939)"/>
</clipPath>
</defs>
</svg>
