<svg width="41" height="47" viewBox="0 0 41 47" fill="none" xmlns="http://www.w3.org/2000/svg">
<g clip-path="url(#clip0_201_6583)">
<path d="M40.0132 18.7638C39.3267 16.0088 38.025 13.9315 35.2523 13.9315H31.6771V18.1575C31.6771 21.4384 28.8954 24.2023 25.7215 24.2023H16.1996C13.5962 24.2023 11.4387 26.4312 11.4387 29.0435V38.1196C11.4387 40.7051 13.6854 42.2208 16.1996 42.9608C19.2131 43.8434 22.1107 44.0039 25.7215 42.9608C28.1198 42.2653 30.4824 40.8656 30.4824 38.1196V34.4909H20.9694V33.2784H35.2523C38.025 33.2784 39.0503 31.3437 40.0132 28.4461C41.0118 25.4594 40.9672 22.5886 40.0132 18.7638ZM26.3188 36.907C27.3085 36.907 28.1109 37.7184 28.1109 38.7169C28.1109 39.7244 27.3085 40.5357 26.3188 40.5357C25.3381 40.5357 24.5268 39.7155 24.5268 38.7169C24.5357 37.7094 25.3381 36.907 26.3188 36.907ZM15.7627 23.0076H25.2846C27.9326 23.0076 30.0456 20.8233 30.0456 18.1664V9.08139C30.0456 6.49586 27.8701 4.56117 25.2846 4.1243C22.0928 3.59828 18.6246 3.62503 15.7627 4.13322C11.7329 4.84647 11.0018 6.33538 11.0018 9.0903V12.719H20.5326V13.9315H7.42662C4.65386 13.9315 2.22881 15.5987 1.47098 18.7638C0.597254 22.3924 0.561591 24.657 1.47098 28.4461C2.14857 31.2635 3.7623 33.2784 6.53506 33.2784H9.80709V28.9276C9.80709 25.7803 12.5264 23.0076 15.7627 23.0076ZM15.1654 10.2939C14.1757 10.2939 13.3733 9.48259 13.3733 8.48404C13.3823 7.47658 14.1757 6.66525 15.1654 6.66525C16.1461 6.66525 16.9574 7.48549 16.9574 8.48404C16.9574 9.48259 16.155 10.2939 15.1654 10.2939Z" fill="black"/>
</g>
<defs>
<clipPath id="clip0_201_6583">
<rect width="39.942" height="45.648" fill="white" transform="translate(0.802246 0.887939)"/>
</clipPath>
</defs>
</svg>
