<svg width="41" height="47" viewBox="0 0 41 47" fill="none" xmlns="http://www.w3.org/2000/svg">
<g clip-path="url(#clip0_201_6581)">
<path d="M39.5318 38.3732C38.5041 38.4974 35.5322 33.671 35.5322 33.671C35.5322 36.4656 34.0936 40.1123 30.9807 42.7459C32.4823 43.2088 35.8703 44.4548 35.0643 45.8147C34.412 46.9152 23.8743 46.5174 20.8321 46.1747C17.7899 46.5174 7.2522 46.9152 6.59994 45.8147C5.79352 44.4551 9.17816 43.2101 10.6818 42.7464C7.56844 40.1128 6.12955 36.4658 6.12955 33.671C6.12955 33.671 3.15762 38.4974 2.13009 38.3732C1.65132 38.3153 1.02241 35.7303 2.96343 29.484C3.87827 26.5397 4.92442 24.092 6.54252 20.0531C6.27015 9.63087 10.5763 0.888474 20.8309 0.887939C30.9712 0.888474 35.3773 9.45879 35.1194 20.0532C36.7347 24.0851 37.7863 26.5483 38.6985 29.484C40.6393 35.7303 40.0105 38.3152 39.5318 38.3732Z" fill="black"/>
</g>
<defs>
<clipPath id="clip0_201_6581">
<rect width="39.942" height="45.648" fill="white" transform="translate(0.860352 0.887939)"/>
</clipPath>
</defs>
</svg>
