<svg width="46" height="47" viewBox="0 0 46 47" fill="none" xmlns="http://www.w3.org/2000/svg">
<path d="M28.172 43.2015H28.0828C24.3444 43.2015 20.7592 41.7164 18.1157 39.073C15.4723 36.4296 13.9872 32.8443 13.9872 29.1059C13.9872 25.3675 15.4723 21.7822 18.1157 19.1388C20.7592 16.4954 24.3444 15.0103 28.0828 15.0103C36.5438 15.0103 43.0789 22.4192 42.0804 30.7553C42.437 31.21 42.8114 31.6112 43.0789 32.1194C44.2736 29.4179 44.8888 26.556 44.8888 23.4088C44.8888 11.3638 35.1262 1.6012 23.0812 1.6012C11.0362 1.6012 1.28247 11.3638 1.28247 23.4088C1.28247 35.4538 11.0451 45.2164 23.0812 45.2164C25.2067 45.2332 27.3227 44.9296 29.3578 44.3159C28.8942 44.0039 28.5643 43.5938 28.172 43.2015ZM35.1529 28.1341C33.4037 28.1341 31.6937 28.6528 30.2393 29.6246C28.7849 30.5964 27.6513 31.9777 26.9819 33.5938C26.3125 35.2099 26.1373 36.9882 26.4786 38.7038C26.8198 40.4195 27.6622 41.9954 28.8991 43.2323C30.136 44.4692 31.7119 45.3115 33.4275 45.6527C35.1431 45.994 36.9214 45.8189 38.5375 45.1495C40.1536 44.4801 41.5349 43.3465 42.5067 41.892C43.4785 40.4376 43.9972 38.7276 43.9972 36.9784C43.9975 35.8169 43.7688 34.6667 43.3245 33.5935C42.8801 32.5204 42.2286 31.5453 41.4073 30.724C40.586 29.9027 39.6109 29.2512 38.5378 28.8068C37.4646 28.3625 36.3144 28.1339 35.1529 28.1341Z" fill="black"/>
</svg>
