<svg width="41" height="47" viewBox="0 0 41 47" fill="none" xmlns="http://www.w3.org/2000/svg">
<g clip-path="url(#clip0_201_6577)">
<path d="M39.5434 35.3647H36.9311C36.7974 36.5683 35.995 38.1107 33.9889 38.1107C32.1612 38.1107 30.8417 36.8446 29.5757 34.9189C33.5164 31.8697 36.2357 27.1177 36.2357 21.278C36.2446 10.8021 27.6232 3.74094 18.5471 3.74094C9.65821 3.74094 0.920898 10.8467 0.920898 21.278C0.920898 33.2338 12.6271 41.035 23.1208 38.1285C24.8772 41.1241 27.1952 43.6829 31.6085 43.6829C38.9015 43.6829 39.7039 36.9695 39.5434 35.3647ZM26.7495 30.2382C25.0109 27.6348 22.8533 25.5842 18.5917 25.5842C15.8724 25.5842 13.7505 26.4758 12.4399 27.617L13.5276 29.7835C14.0804 29.516 14.6866 29.4268 15.2929 29.4268C18.4579 29.4268 20.0806 32.1729 21.4625 34.8921C20.5709 35.1596 19.617 35.2666 18.5471 35.2666C11.8604 35.2666 8.96279 30.5413 8.96279 21.2958C8.96279 11.9879 11.8604 7.21803 18.5471 7.21803C25.3408 7.21803 28.2384 11.9879 28.2384 21.278C28.2473 25.0047 27.7569 28.0182 26.7495 30.2382Z" fill="black"/>
</g>
<defs>
<clipPath id="clip0_201_6577">
<rect width="39.942" height="45.648" fill="white" transform="translate(0.270508 0.887939)"/>
</clipPath>
</defs>
</svg>
