<svg width="53" height="47" viewBox="0 0 53 47" fill="none" xmlns="http://www.w3.org/2000/svg">
<g clip-path="url(#clip0_201_6575)">
<path d="M52.2707 21.0907C52.2707 11.5064 40.6715 3.74094 26.3708 3.74094C12.0702 3.74094 0.470947 11.5064 0.470947 21.0907C0.470947 29.6319 9.68079 36.7287 21.8149 38.1642V43.6829H30.6503V38.1998C32.8168 37.9591 34.8942 37.5401 36.8378 36.9605L40.4129 43.6829H50.3984L44.3893 33.5459C49.2483 30.3897 52.2707 25.9765 52.2707 21.0907ZM10.6526 22.3835C10.6526 15.8305 19.4701 10.5257 30.3383 10.5257C41.2064 10.5257 49.2305 14.1544 49.2305 22.3835C49.2305 26.8502 46.8679 29.9618 42.9628 31.8697C42.7488 31.7271 42.5438 31.6112 42.3922 31.5398C41.4828 31.0762 39.9137 30.6037 39.9137 30.6037C39.9137 30.6037 47.6346 30.0331 47.6346 22.3389C47.6346 14.6447 39.557 14.5021 39.557 14.5021H21.8149V33.0733C15.2085 31.1565 10.6526 27.091 10.6526 22.3835ZM30.7217 25.7982V20.8411C35.8749 20.8411 38.5496 20.2348 38.5496 23.2751C38.5496 26.5293 35.1438 25.7982 30.7217 25.7982ZM30.6414 32.262H33.013C33.9759 32.262 34.698 33.3051 35.1527 33.9738C33.7173 34.1432 32.2106 34.2235 30.6414 34.2324V32.262Z" fill="black"/>
</g>
<defs>
<clipPath id="clip0_201_6575">
<rect width="51.7998" height="45.648" fill="white" transform="translate(0.470703 0.887939)"/>
</clipPath>
</defs>
</svg>
