<svg width="47" height="47" viewBox="0 0 47 47" fill="none" xmlns="http://www.w3.org/2000/svg">
<path d="M44.9582 21.7704C44.8505 20.8485 44.8067 19.9136 44.6243 19.0065C44.405 17.9024 44.1185 16.8126 43.7664 15.7434C43.1616 13.8843 42.2294 12.1481 41.0138 10.6169C40.4919 9.94088 39.9317 9.29526 39.3361 8.68321C38.0762 7.43834 36.665 6.35656 35.1356 5.46324C33.5515 4.51578 31.8517 3.77658 30.0784 3.26394C29.0961 2.98755 28.0927 2.77973 27.0904 2.58501C26.4859 2.46786 25.8645 2.43639 25.2513 2.36373C25.2232 2.36052 25.1978 2.33181 25.1711 2.31442C24.2116 2.31496 23.252 2.31514 22.2924 2.31496C22.0775 2.34964 21.8638 2.39743 21.6473 2.41749C20.611 2.52845 19.5881 2.74046 18.5931 3.0505C17.3668 3.42041 16.1793 3.90876 15.0476 4.50865C13.8601 5.1346 12.7248 5.85486 11.6525 6.66248C11.1027 7.07349 10.5587 7.49699 10.05 7.95685C9.14303 8.77771 8.23373 9.60027 7.38184 10.4771C6.2364 11.6652 5.22994 12.9798 4.38191 14.3955C3.61692 15.6436 3.00354 16.9785 2.55474 18.3719C2.23368 19.3822 2.00419 20.4194 1.86904 21.4709C1.72952 22.5204 1.68321 23.5802 1.73067 24.6378C1.78117 25.8412 1.91297 27.0398 2.12519 28.2255C2.42471 29.8649 2.9257 31.461 3.61677 32.9775C4.19846 34.2272 4.91603 35.4091 5.75652 36.5016C6.46145 37.4156 7.24801 38.2636 8.1065 39.0351C9.25114 40.07 10.4996 40.9838 11.8321 41.762C13.4083 42.6886 15.0791 43.4441 16.8159 44.0156C17.9992 44.4013 19.2106 44.6945 20.4393 44.8925C20.9806 44.9825 21.5337 45.0042 22.0808 45.0595C22.1186 45.0704 22.1545 45.0872 22.1869 45.1094H25.0657C25.2892 45.0747 25.5115 45.0259 25.7368 45.0075C27.1932 44.8888 28.5993 44.5319 29.9707 44.052C31.5078 43.5276 32.9738 42.8143 34.3351 41.9285C35.2043 41.3537 36.0643 40.7626 36.8972 40.1365C37.413 39.7488 37.8768 39.2895 38.3504 38.8475C38.7038 38.5177 39.0426 38.1719 39.3766 37.8222C40.4471 36.694 41.387 35.4487 42.1785 34.1099C43.0293 32.6793 43.7258 31.1762 44.1667 29.5695C44.4216 28.6411 44.6078 27.6932 44.7923 26.7475C44.8843 26.2769 44.9039 25.7915 44.959 25.3133C44.9623 25.285 44.991 25.2598 45.0083 25.233V21.9292C44.9865 21.878 44.9698 21.8248 44.9582 21.7704ZM30.5937 21.6678C30.5937 21.6678 29.1162 21.4021 28.0554 21.4021C25.6303 21.4021 25.0624 22.7306 25.0624 24.7045V33.0555H18.5083V16.05H25.0629V18.8969C25.8585 16.5055 27.4497 15.6704 30.5941 15.6704L30.5937 21.6678Z" fill="black"/>
</svg>
