<svg width="47" height="47" viewBox="0 0 47 47" fill="none" xmlns="http://www.w3.org/2000/svg">
<g clip-path="url(#clip0_201_6569)">
<path d="M38.1731 16.6864C37.6916 16.5259 37.2102 16.3744 36.7287 16.2317C36.809 15.9018 36.8803 15.572 36.9516 15.2421C38.0483 9.92836 37.3261 5.65778 34.8921 4.24911C32.5473 2.90285 28.7225 4.3026 24.8531 7.67271C24.4698 8.00259 24.0953 8.3503 23.7387 8.69801C23.498 8.4662 23.2483 8.23439 22.9987 8.0115C18.9421 4.40959 14.8766 2.89394 12.4426 4.31152C10.1067 5.66669 9.41127 9.68764 10.392 14.7161C10.4901 15.2153 10.5971 15.7057 10.7219 16.205C10.1513 16.3654 9.58959 16.5438 9.06357 16.731C4.30262 18.3804 0.887939 20.9837 0.887939 23.6763C0.887939 26.4579 4.52551 29.2485 9.47368 30.9425C9.87489 31.0762 10.2761 31.21 10.6862 31.3259C10.5525 31.8608 10.4366 32.3868 10.3296 32.9307C9.39344 37.8788 10.1245 41.8017 12.4604 43.148C14.8676 44.5388 18.9153 43.1123 22.856 39.662C23.1681 39.3856 23.4801 39.1003 23.7922 38.7971C24.1845 39.1805 24.5946 39.5461 25.0047 39.9027C28.8206 43.1836 32.5919 44.5121 34.9189 43.1658C37.3261 41.775 38.1107 37.5579 37.0943 32.4225C37.014 32.0302 36.9249 31.629 36.8268 31.2189C37.1121 31.1386 37.3885 31.0495 37.6649 30.9603C42.8092 29.2574 46.5359 26.5025 46.5359 23.6763C46.5359 20.9748 43.0232 18.3536 38.1731 16.6864ZM26.1102 9.11704C29.4268 6.22838 32.5206 5.09609 33.9292 5.90742C35.436 6.77223 36.0155 10.2672 35.0704 14.8587C35.008 15.1618 34.9456 15.456 34.8654 15.7503C32.8861 15.3045 30.8801 14.9835 28.8652 14.8052C27.7061 13.1469 26.4401 11.5599 25.0671 10.071C25.4148 9.74113 25.7536 9.42909 26.1102 9.11704ZM15.7949 28.3035C16.2496 29.0791 16.7132 29.8548 17.2035 30.6126C15.8127 30.461 14.4308 30.2381 13.0667 29.9439C13.459 28.6601 13.9493 27.3317 14.5199 25.9765C14.93 26.7611 15.3491 27.5367 15.7949 28.3035ZM13.0934 17.578C14.3773 17.2927 15.7414 17.0609 17.159 16.8825C16.6864 17.6225 16.2228 18.3804 15.7859 19.1471C15.3491 19.9049 14.9211 20.6806 14.5199 21.4652C13.9582 20.1367 13.4857 18.8351 13.0934 17.578ZM15.5363 23.7208C16.1247 22.4905 16.7667 21.2869 17.4443 20.1011C18.1218 18.9153 18.8529 17.7652 19.6197 16.6329C20.957 16.5348 22.3211 16.4813 23.7119 16.4813C25.1028 16.4813 26.4758 16.5348 27.8042 16.6329C28.562 17.7563 29.2842 18.9064 29.9707 20.0833C30.6572 21.2601 31.2991 22.4637 31.9054 23.6852C31.308 24.9155 30.6661 26.128 29.9796 27.3227C29.302 28.5085 28.5799 29.6586 27.822 30.7998C26.4936 30.8979 25.1117 30.9425 23.7119 30.9425C22.3122 30.9425 20.957 30.8979 19.6464 30.8177C18.8708 29.6854 18.1397 28.5264 17.4532 27.3406C16.7667 26.1548 16.1337 24.9512 15.5363 23.7208ZM31.6379 28.2856C32.0926 27.5011 32.5206 26.7076 32.9396 25.9052C33.5102 27.1979 34.0095 28.5085 34.4463 29.8548C33.0644 30.1668 31.6647 30.4075 30.256 30.568C30.7374 29.8191 31.1921 29.0524 31.6379 28.2856ZM32.9218 21.4652C32.5027 20.6806 32.0748 19.896 31.629 19.1293C31.1921 18.3715 30.7374 17.6225 30.2649 16.8825C31.7003 17.0609 33.0733 17.3016 34.3572 17.5958C33.9471 18.9153 33.4656 20.1992 32.9218 21.4652ZM23.7298 11.4351C24.6659 12.4515 25.5485 13.5214 26.3688 14.6269C24.6035 14.5467 22.8293 14.5467 21.064 14.6269C21.9377 13.4768 22.8382 12.4069 23.7298 11.4351ZM13.3876 5.96983C14.8855 5.09609 18.211 6.34428 21.7148 9.44692C21.9377 9.64306 22.1606 9.85704 22.3924 10.071C21.0105 11.5599 19.7356 13.1469 18.5676 14.8052C16.5527 14.9835 14.5556 15.2956 12.5763 15.7324C12.4604 15.2777 12.3623 14.8141 12.2643 14.3505C11.4262 10.0353 11.979 6.78115 13.3876 5.96983ZM11.2033 29.4714C10.8289 29.3644 10.4633 29.2485 10.0978 29.1237C8.19875 28.5264 6.04117 27.5813 4.48094 26.342C3.58046 25.7179 2.9742 24.755 2.8048 23.6763C2.8048 22.0447 5.62213 19.9584 9.68766 18.5409C10.1958 18.3625 10.713 18.2021 11.2301 18.0505C11.8363 19.9852 12.5674 21.8842 13.4144 23.7208C12.5585 25.5842 11.8185 27.51 11.2033 29.4714ZM21.5989 38.2087C20.1279 39.555 18.425 40.6248 16.5705 41.3559C15.5809 41.8285 14.4397 41.873 13.4233 41.4718C12.0057 40.6516 11.4173 37.5044 12.2197 33.2695C12.3178 32.7702 12.4248 32.2709 12.5496 31.7806C14.5467 32.2085 16.5616 32.5027 18.6033 32.6543C19.7801 34.3215 21.0729 35.9174 22.4548 37.4152C22.1695 37.6916 21.8842 37.9591 21.5989 38.2087ZM23.7833 36.0422C22.8739 35.0615 21.9645 33.9738 21.0818 32.8058C21.9377 32.8415 22.8204 32.8593 23.7119 32.8593C24.6302 32.8593 25.5307 32.8415 26.4223 32.7969C25.602 33.9292 24.7194 35.008 23.7833 36.0422ZM35.436 38.7169C35.3557 39.8046 34.8208 40.821 33.9649 41.5075C32.5473 42.3277 29.5249 41.2579 26.2618 38.4584C25.8873 38.1374 25.5129 37.7897 25.1295 37.4331C26.4936 35.9263 27.7507 34.3304 28.8919 32.6543C30.9336 32.4849 32.9663 32.1728 34.9724 31.7181C35.0615 32.0837 35.1418 32.4492 35.2131 32.8058C35.65 34.7316 35.7213 36.7376 35.436 38.7169ZM37.0586 29.1326C36.809 29.2129 36.5593 29.2931 36.3008 29.3644C35.6767 27.4208 34.91 25.5218 34.0273 23.6763C34.8832 21.8575 35.6054 19.9852 36.2116 18.0683C36.6753 18.2021 37.121 18.3447 37.549 18.4874C41.7037 19.9139 44.6191 22.0358 44.6191 23.6584C44.6191 25.4059 41.5075 27.6615 37.0586 29.1326ZM23.7119 27.7953C25.9676 27.7953 27.7953 25.9676 27.7953 23.7119C27.7953 21.4563 25.9676 19.6286 23.7119 19.6286C21.4563 19.6286 19.6286 21.4563 19.6286 23.7119C19.6286 25.9676 21.4563 27.7953 23.7119 27.7953Z" fill="black"/>
</g>
<defs>
<clipPath id="clip0_201_6569">
<rect width="45.648" height="45.648" fill="white" transform="translate(0.887939 0.887939)"/>
</clipPath>
</defs>
</svg>
