<svg width="52" height="47" viewBox="0 0 52 47" fill="none" xmlns="http://www.w3.org/2000/svg">
<g clip-path="url(#clip0_201_6565)">
<path d="M47.2814 5.03372H34.8174C30.529 5.03372 26.8022 8.00262 25.8661 12.193C24.921 8.00262 21.2032 5.03372 16.9148 5.03372H4.45968C2.09703 5.03372 0.180176 6.95058 0.180176 9.31322V31.2278C0.180176 33.5905 2.09703 35.5073 4.45968 35.5073H12.457C21.5688 35.5073 24.288 37.6827 25.5897 42.194C25.6521 42.4437 26.0533 42.4437 26.1246 42.194C27.4352 37.6827 30.1545 35.5073 39.2574 35.5073H47.2547C49.6173 35.5073 51.5342 33.5905 51.5342 31.2278V9.32214C51.5342 6.96841 49.6351 5.05155 47.2814 5.03372ZM21.756 28.6958C21.756 28.8652 21.6223 29.0078 21.4439 29.0078H7.15219C6.9828 29.0078 6.84015 28.8741 6.84015 28.6958V26.6541C6.84015 26.4847 6.97388 26.3421 7.15219 26.3421H21.4529C21.6223 26.3421 21.7649 26.4758 21.7649 26.6541V28.6958H21.756ZM21.756 23.2662C21.756 23.4356 21.6223 23.5782 21.4439 23.5782H7.15219C6.9828 23.5782 6.84015 23.4445 6.84015 23.2662V21.2245C6.84015 21.0551 6.97388 20.9124 7.15219 20.9124H21.4529C21.6223 20.9124 21.7649 21.0462 21.7649 21.2245V23.2662H21.756ZM21.756 17.8366C21.756 18.006 21.6223 18.1486 21.4439 18.1486H7.15219C6.9828 18.1486 6.84015 18.0149 6.84015 17.8366V15.7949C6.84015 15.6255 6.97388 15.4828 7.15219 15.4828H21.4529C21.6223 15.4828 21.7649 15.6166 21.7649 15.7949V17.8366H21.756ZM44.8742 28.6869C44.8742 28.8563 44.7405 28.9989 44.5622 28.9989H30.2704C30.101 28.9989 29.9584 28.8652 29.9584 28.6869V26.6452C29.9584 26.4758 30.0921 26.3331 30.2704 26.3331H44.5711C44.7405 26.3331 44.8831 26.4669 44.8831 26.6452V28.6869H44.8742ZM44.8742 23.2573C44.8742 23.4267 44.7405 23.5693 44.5622 23.5693H30.2704C30.101 23.5693 29.9584 23.4356 29.9584 23.2573V21.2156C29.9584 21.0462 30.0921 20.9035 30.2704 20.9035H44.5711C44.7405 20.9035 44.8831 21.0373 44.8831 21.2156V23.2573H44.8742ZM44.8742 17.8276C44.8742 17.997 44.7405 18.1397 44.5622 18.1397H30.2704C30.101 18.1397 29.9584 18.006 29.9584 17.8276V15.7949C29.9584 15.6255 30.0921 15.4828 30.2704 15.4828H44.5711C44.7405 15.4828 44.8831 15.6166 44.8831 15.7949V17.8276H44.8742Z" fill="black"/>
</g>
<defs>
<clipPath id="clip0_201_6565">
<rect width="51.354" height="45.648" fill="white" transform="translate(0.179932 0.887939)"/>
</clipPath>
</defs>
</svg>
