<svg width="47" height="47" viewBox="0 0 47 47" fill="none" xmlns="http://www.w3.org/2000/svg">
<path d="M23.4015 45.8227C10.982 45.8227 1.3353 35.4627 1.70976 23.1681C1.9594 16.1069 5.56131 9.59851 12.0965 5.30118C12.1232 5.30118 12.2659 5.24769 12.1945 5.3725C11.6774 5.86286 2.27145 16.945 10.9374 25.5575C15.3774 29.9707 18.9615 25.7804 18.9615 25.7804C22.394 21.3136 18.908 14.5556 18.908 14.5556C18.0164 12.3356 14.8336 10.9804 14.8336 10.9804L17.4013 8.14526C19.5767 9.0814 21.2528 11.5956 21.2528 11.5956C21.3241 8.95658 19.3003 6.12142 19.3003 6.12142L23.2767 1.6012L27.2263 6.06792C25.3986 8.63562 25.2738 11.6491 25.2738 11.6491C26.5041 9.59851 29.1521 8.14526 29.1521 8.14526L31.693 10.9804C29.2501 11.7739 27.6453 14.5378 27.6453 14.5378C26.2366 17.0787 25.2292 22.5083 27.6988 25.8874C30.5875 29.8637 35.5178 25.6377 35.5178 25.6377C44.6741 17.4443 34.5817 5.57756 34.5817 5.57756C34.0378 5.0872 34.653 5.32793 34.653 5.32793C39.1197 8.58213 44.8703 12.8527 45.0129 23.5871C45.1913 36.5683 36.1062 45.8227 23.4015 45.8227Z" fill="black"/>
</svg>
