<svg width="41" height="47" viewBox="0 0 41 47" fill="none" xmlns="http://www.w3.org/2000/svg">
<g clip-path="url(#clip0_201_6561)">
<path d="M32.0801 3.74094H9.0421C4.37031 3.74094 0.590088 7.52116 0.590088 12.1929V35.2309C0.590088 39.9027 4.37031 43.6829 9.0421 43.6829H32.0801C36.7519 43.6829 40.5321 39.9027 40.5321 35.2309V12.1929C40.5321 7.52116 36.7519 3.74094 32.0801 3.74094ZM13.5088 18.7994V23.8189C13.5088 26.2261 11.5563 28.1787 9.14909 28.1787V14.4308C9.14909 13.2539 10.1031 12.2999 11.2799 12.2999H25.0278C25.0278 14.7072 23.0753 16.6597 20.6681 16.6597H15.6486C14.552 16.6062 13.4553 17.6939 13.5088 18.7994ZM29.2271 25.2187H24.2076C23.111 25.1652 22.0143 26.2529 22.0678 27.3584V32.3779C22.0678 34.7851 20.1153 36.7377 17.7081 36.7377V22.9898C17.7081 21.8129 18.6621 20.8589 19.8389 20.8589H33.5868C33.5868 23.2662 31.6343 25.2187 29.2271 25.2187Z" fill="black"/>
</g>
<defs>
<clipPath id="clip0_201_6561">
<rect width="39.942" height="45.648" fill="white" transform="translate(0.590088 0.887939)"/>
</clipPath>
</defs>
</svg>
