<svg width="47" height="47" viewBox="0 0 47 47" fill="none" xmlns="http://www.w3.org/2000/svg">
<path d="M40.1973 19.0312C38.86 19.0312 37.6831 19.584 36.8183 20.4488C33.6354 18.2466 29.347 16.829 24.595 16.6775L27.0646 5.55078L34.9282 7.31607C34.9282 9.24185 36.4973 10.811 38.4231 10.811C40.3846 10.811 41.9626 9.19727 41.9626 7.2715C41.9626 5.34572 40.3935 3.73199 38.4231 3.73199C37.0501 3.73199 35.8643 4.56115 35.2759 5.69343L26.5921 3.76766C26.1552 3.65175 25.7273 3.9638 25.6114 4.40067L22.901 16.6686C18.1847 16.8647 13.9408 18.2823 10.749 20.4845C9.88421 19.584 8.66277 19.0312 7.32542 19.0312C2.36834 19.0312 0.745694 25.6823 5.28375 27.9557C5.12327 28.6601 5.05194 29.409 5.05194 30.1579C5.05194 37.6292 13.4683 43.6829 23.8015 43.6829C34.1793 43.6829 42.5956 37.6292 42.5956 30.1579C42.5956 29.409 42.5154 28.6244 42.3192 27.9201C46.7681 25.6377 45.1277 19.0312 40.1973 19.0312ZM12.4787 28.4283C12.4787 26.4668 14.0478 24.8888 16.0182 24.8888C17.9439 24.8888 19.5131 26.4579 19.5131 28.4283C19.5131 30.354 17.9439 31.9232 16.0182 31.9232C14.0567 31.9321 12.4787 30.354 12.4787 28.4283ZM31.5848 36.7644C28.3395 40.0097 19.1832 40.0097 15.9379 36.7644C15.5813 36.4523 15.5813 35.8996 15.9379 35.5429C16.25 35.2309 16.8027 35.2309 17.1148 35.5429C19.5933 38.0839 27.8135 38.1285 30.3991 35.5429C30.7111 35.2309 31.2639 35.2309 31.5759 35.5429C31.9415 35.8996 31.9415 36.4523 31.5848 36.7644ZM31.5135 31.9321C29.5877 31.9321 28.0186 30.363 28.0186 28.4372C28.0186 26.4757 29.5877 24.8977 31.5135 24.8977C33.4749 24.8977 35.053 26.4668 35.053 28.4372C35.0441 30.354 33.4749 31.9321 31.5135 31.9321Z" fill="black"/>
</svg>
