<svg width="46" height="46" viewBox="0 0 46 46" fill="none" xmlns="http://www.w3.org/2000/svg">
<g clip-path="url(#clip0_201_6555)">
<path d="M18.2451 27.4772C17.0148 27.4772 16.0251 26.4875 16.0251 25.2839C16.0251 24.0536 17.0148 23.0639 18.2451 23.0639C19.4577 23.0639 20.4384 24.0536 20.4384 25.2839C20.4384 26.4964 19.4487 27.4772 18.2451 27.4772ZM45.2149 23.0639C45.2149 35.2783 35.3186 45.1747 23.1042 45.1747C10.8897 45.1747 0.993408 35.2783 0.993408 23.0639C0.993408 10.8495 10.8897 0.953186 23.1042 0.953186C35.3186 0.953186 45.2149 10.8495 45.2149 23.0639ZM33.4195 19.3907C32.5815 19.3907 31.8415 19.7384 31.2976 20.2823C29.3005 18.9003 26.608 18.0088 23.6213 17.9107L25.1726 10.9298L30.1118 12.0442C30.1118 13.2567 31.1015 14.2375 32.3051 14.2375C33.5354 14.2375 34.5251 13.23 34.5251 12.0175C34.5251 10.8049 33.5354 9.79748 32.3051 9.79748C31.4403 9.79748 30.7003 10.3146 30.3347 11.0278L24.8784 9.81532C24.6109 9.74399 24.3345 9.94013 24.2632 10.2076L22.5603 17.9107C19.6003 18.0355 16.9345 18.9182 14.9374 20.3001C14.3936 19.7295 13.6268 19.3907 12.7888 19.3907C9.67723 19.3907 8.66084 23.5721 11.5049 24.9897C11.4069 25.4355 11.3534 25.8991 11.3534 26.3716C11.3534 31.0612 16.6314 34.8593 23.122 34.8593C29.6393 34.8593 34.9174 31.0612 34.9174 26.3716C34.9174 25.8991 34.8639 25.4087 34.748 24.963C37.5385 23.5365 36.5132 19.3907 33.4195 19.3907ZM27.2767 29.7506C25.654 31.3733 20.4919 31.3465 18.9316 29.7506C18.7355 29.5545 18.3878 29.5545 18.1916 29.7506C17.9688 29.9735 17.9688 30.3212 18.1916 30.5174C20.2244 32.5502 25.975 32.5502 28.0167 30.5174C28.2396 30.3212 28.2396 29.9735 28.0167 29.7506C27.8205 29.5545 27.4728 29.5545 27.2767 29.7506ZM27.9632 23.0639C26.7506 23.0639 25.7699 24.0536 25.7699 25.2839C25.7699 26.4964 26.7596 27.4772 27.9632 27.4772C29.1935 27.4772 30.1832 26.4875 30.1832 25.2839C30.1832 24.0536 29.2024 23.0639 27.9632 23.0639Z" fill="black"/>
</g>
<defs>
<clipPath id="clip0_201_6555">
<rect width="45.648" height="45.648" fill="white" transform="translate(0.280273 0.239929)"/>
</clipPath>
</defs>
</svg>
