<svg width="41" height="46" viewBox="0 0 41 46" fill="none" xmlns="http://www.w3.org/2000/svg">
<g clip-path="url(#clip0_201_6547)">
<path d="M0.100098 3.0929V43.0349H40.0421V3.0929H0.100098ZM23.4769 32.9067C22.8884 33.1742 20.5169 33.4417 19.0191 31.6407C18.1988 30.6957 16.7634 28.6718 15.2567 25.9704C14.4632 25.9704 13.9461 25.9704 13.3487 25.9169V30.0537C13.3487 32.1489 13.8837 31.9439 15.6489 32.1846V32.9067C15.0338 32.88 13.5894 32.8354 12.475 32.8354C11.307 32.8354 10.148 32.8889 9.47933 32.9067V32.1846C10.8613 31.926 11.4408 32.0687 11.4408 30.0537V20.3C11.4408 18.2851 10.8702 18.4278 9.47933 18.1692V17.447C11.7796 17.5362 14.2135 17.3936 15.8005 17.3936C18.6268 17.3936 20.7843 18.6774 20.7843 21.4591C20.7843 23.3403 19.2954 25.2215 17.2894 25.694C18.5019 27.8516 19.9641 29.7595 21.0518 30.9453C21.6937 31.6407 22.5853 32.2559 23.4769 32.2559V32.9067ZM25.5185 20.8706C23.4412 20.8706 22.6477 19.4709 22.6477 17.9998V15.129C22.6477 14.0413 23.4323 12.4186 25.679 12.4186C27.9258 12.4186 28.3894 14.0145 28.3894 14.0145L27.4354 14.6565C27.4354 14.6565 26.945 13.542 25.679 13.542C24.9747 13.542 23.9226 14.1928 23.9226 15.2984V17.6878C23.9226 18.8825 24.5111 19.7651 25.5185 19.7651C26.7756 19.7651 27.4354 18.7933 27.4354 17.3757H25.8395V16.4218H28.5499C28.5499 18.2495 28.9689 20.8706 25.5185 20.8706ZM15.1318 24.8559C14.2938 24.8559 13.9193 24.8292 13.3487 24.7846V18.5704C13.9193 18.5169 14.6861 18.5169 15.3547 18.5169C17.4321 18.5169 18.6713 19.6046 18.6713 21.5928C18.6713 23.5453 17.334 24.8559 15.1318 24.8559Z" fill="black"/>
</g>
<defs>
<clipPath id="clip0_201_6547">
<rect width="39.942" height="45.648" fill="white" transform="translate(0.100098 0.239929)"/>
</clipPath>
</defs>
</svg>
