<svg width="46" height="46" viewBox="0 0 46 46" fill="none" xmlns="http://www.w3.org/2000/svg">
<g clip-path="url(#clip0_201_6545)">
<path d="M25.9496 25.0431C30.0508 23.8574 30.3718 22.948 29.8725 21.1738L28.874 17.6699C28.3301 15.8066 27.2335 15.1646 22.535 16.5287L5.75575 21.3521L8.30562 30.1429L25.9496 25.0431ZM23.0342 0.953125C12.594 0.953125 3.83889 8.14803 1.52083 17.8482L21.3046 12.1511C24.4072 11.2418 26.1369 11.108 28.3747 11.4201C31.6111 11.9639 33.0732 13.649 33.8489 16.3415L34.8029 19.7116C35.5339 22.2169 34.892 24.2229 32.7077 26.2735C30.9781 27.8248 29.926 28.4578 27.2335 29.2335L18.9776 31.605L38.6277 34.0212L39.4925 37.0703L35.2041 38.2561L9.63405 34.9306L11.6846 42.0809C14.9656 44.0423 18.8439 45.1746 22.9451 45.1746C35.1595 45.1746 45.1004 35.2426 45.1004 23.0371C45.1896 10.8851 35.2486 0.953125 23.0342 0.953125ZM4.29359 34.886L0.878906 23.1352C0.878906 27.4593 2.15384 31.4624 4.29359 34.886Z" fill="black"/>
</g>
<defs>
<clipPath id="clip0_201_6545">
<rect width="44.2215" height="45.648" fill="white" transform="translate(0.878906 0.239929)"/>
</clipPath>
</defs>
</svg>
