<svg width="41" height="46" viewBox="0 0 41 46" fill="none" xmlns="http://www.w3.org/2000/svg">
<path d="M26.763 24.7481C26.7632 25.9044 26.4205 27.0347 25.7782 27.9962C25.1359 28.9577 24.2229 29.7072 23.1546 30.1497C22.0864 30.5923 20.9109 30.7082 19.7768 30.4826C18.6427 30.2571 17.6009 29.7003 16.7833 28.8827C15.9657 28.065 15.4089 27.0233 15.1834 25.8892C14.9578 24.7551 15.0737 23.5796 15.5162 22.5114C15.9588 21.4431 16.7083 20.5301 17.6698 19.8878C18.6313 19.2455 19.7616 18.9028 20.9179 18.903C22.4676 18.9049 23.9532 19.5213 25.049 20.617C26.1447 21.7128 26.7611 23.1984 26.763 24.7481ZM39.2048 24.2978H39.1932C39.1312 21.682 38.5074 19.1101 37.3642 16.7565C36.2209 14.4029 34.5849 12.3227 32.5671 10.6569L28.5212 12.9928C30.4847 14.2619 32.0993 16.0024 33.2176 18.0556C34.3359 20.1087 34.9224 22.4092 34.9235 24.7472C34.9235 32.4699 28.6407 38.7554 20.9179 38.7554C13.1952 38.7554 6.9106 32.4699 6.9106 24.7472C6.9106 17.4471 12.5274 11.4388 19.6599 10.8005V14.2882L29.3575 8.69012L19.6599 3.0929V6.50936C10.147 7.15575 2.6311 15.0684 2.6311 24.7481C2.6311 34.697 10.5767 42.7835 20.4677 43.0251V43.0349H39.2048V24.2978Z" fill="black"/>
</svg>
