<svg width="45" height="46" viewBox="0 0 45 46" fill="none" xmlns="http://www.w3.org/2000/svg">
<g clip-path="url(#clip0_201_6539)">
<path d="M22.4721 0.953125C10.2577 0.953125 0.361328 10.8495 0.361328 23.0639C0.361328 35.2783 10.2577 45.1746 22.4721 45.1746C34.6865 45.1746 44.5828 35.2783 44.5828 23.0639C44.5828 10.8495 34.6865 0.953125 22.4721 0.953125ZM36.5053 38.3542H28.4812L18.4957 26.648C16.8998 24.8292 18.148 21.6463 20.8673 21.6463H27.5807L20.0381 12.7931L12.5222 21.6106H4.49818L17.6131 6.23117C18.8969 4.5907 21.2952 4.68877 22.4721 6.23117L36.532 22.734C38.226 24.7668 36.7103 27.8337 34.0713 27.7357C34.0178 27.7357 27.4559 27.7535 27.4559 27.7535L36.5053 38.3542Z" fill="black"/>
</g>
<defs>
<clipPath id="clip0_201_6539">
<rect width="44.2215" height="45.648" fill="white" transform="translate(0.361328 0.239929)"/>
</clipPath>
</defs>
</svg>
