<svg width="47" height="46" viewBox="0 0 47 46" fill="none" xmlns="http://www.w3.org/2000/svg">
<g clip-path="url(#clip0_201_6537)">
<path d="M46.0503 22.5066L44.1049 21.3021C44.0898 21.1238 44.0746 20.9518 44.0559 20.7779L45.7249 19.2177C45.8063 19.1415 45.867 19.0458 45.9011 18.9397C45.9352 18.8335 45.9417 18.7204 45.9199 18.6111C45.8982 18.5017 45.8488 18.3997 45.7766 18.3148C45.7044 18.2298 45.6118 18.1647 45.5074 18.1255L43.3676 17.3231C43.3195 17.1555 43.2713 16.9861 43.2187 16.8203L44.5561 14.9631C44.6211 14.8725 44.6619 14.7668 44.6747 14.6559C44.6874 14.5451 44.6717 14.4329 44.6289 14.3298C44.5861 14.2268 44.5178 14.1364 44.4303 14.0672C44.3428 13.9979 44.2391 13.9522 44.129 13.9343L41.8627 13.5643C41.7824 13.41 41.7031 13.2567 41.6193 13.1051L42.5714 11.0171C42.6177 10.9155 42.6372 10.8037 42.6282 10.6925C42.6191 10.5812 42.5818 10.4741 42.5197 10.3813C42.4576 10.2885 42.3729 10.2131 42.2735 10.1623C42.1741 10.1114 42.0634 10.0868 41.9518 10.0908L39.6498 10.1719C39.5434 10.0399 39.4361 9.90917 39.3279 9.7796L39.8522 7.53642C39.8775 7.42778 39.8748 7.31446 39.8441 7.20718C39.8135 7.0999 39.756 7.0022 39.6772 6.92331C39.5983 6.84442 39.5006 6.78695 39.3933 6.75632C39.286 6.7257 39.1727 6.72293 39.064 6.74828L36.8209 7.27698C36.6919 7.16821 36.5611 7.06093 36.4286 6.95513L36.5097 4.65311C36.5145 4.54118 36.4904 4.42989 36.4399 4.32989C36.3894 4.22989 36.3141 4.14451 36.2211 4.08191C36.1282 4.01931 36.0208 3.98158 35.9092 3.97232C35.7975 3.96306 35.6853 3.98258 35.5834 4.02902L33.4953 4.98567C33.3438 4.90186 33.1895 4.82162 33.0362 4.74227L32.6662 2.47592C32.6483 2.36581 32.6025 2.2621 32.5333 2.17462C32.4641 2.08714 32.3737 2.01877 32.2706 1.97601C32.1676 1.93324 32.0553 1.91748 31.9445 1.93023C31.8337 1.94298 31.728 1.98381 31.6373 2.04886L29.7775 3.38353C29.6117 3.33093 29.4432 3.28278 29.2747 3.23464L28.4723 1.09489C28.4331 0.990487 28.368 0.897802 28.283 0.825603C28.1981 0.753405 28.0961 0.704082 27.9867 0.682301C27.8774 0.660519 27.7643 0.667001 27.6581 0.701132C27.552 0.735263 27.4563 0.795914 27.3801 0.877347L25.8199 2.54635C25.646 2.52763 25.4713 2.51247 25.2956 2.49732L24.0938 0.550143C24.0351 0.455216 23.9531 0.376871 23.8555 0.322537C23.758 0.268204 23.6482 0.239685 23.5366 0.239685C23.425 0.239685 23.3152 0.268204 23.2177 0.322537C23.1201 0.376871 23.0381 0.455216 22.9794 0.550143L21.7749 2.49553C21.5966 2.51069 21.4245 2.52585 21.2506 2.54457L19.6904 0.875564C19.6142 0.794131 19.5185 0.73348 19.4124 0.699349C19.3062 0.665218 19.1931 0.658736 19.0838 0.680517C18.9744 0.702299 18.8725 0.751622 18.7875 0.82382C18.7025 0.896019 18.6374 0.988704 18.5982 1.0931L17.7958 3.23285C17.6273 3.28189 17.4579 3.32914 17.2912 3.38264L15.435 2.04529C15.3443 1.98025 15.2386 1.93942 15.1278 1.92667C15.0169 1.91392 14.9047 1.92967 14.8017 1.97244C14.6986 2.01521 14.6082 2.08357 14.539 2.17105C14.4698 2.25854 14.424 2.36224 14.4061 2.47235L14.0361 4.73781C13.8819 4.81805 13.7285 4.8974 13.5761 4.98121L11.4898 4.03348C11.3878 3.98704 11.2757 3.96751 11.164 3.97677C11.0524 3.98603 10.945 4.02377 10.852 4.08637C10.7591 4.14897 10.6838 4.23435 10.6333 4.33435C10.5828 4.43435 10.5587 4.54563 10.5635 4.65757L10.6455 6.95869C10.5126 7.06479 10.378 7.17178 10.2514 7.28055L8.00914 6.74828C7.90049 6.72293 7.78718 6.7257 7.6799 6.75632C7.57262 6.78695 7.47492 6.84442 7.39603 6.92331C7.31714 7.0022 7.25966 7.0999 7.22904 7.20718C7.19841 7.31446 7.19565 7.42778 7.221 7.53642L7.7497 9.7796C7.64004 9.90887 7.53305 10.0408 7.42695 10.1728L5.12583 10.0916C5.01434 10.0883 4.90381 10.1132 4.80452 10.164C4.70522 10.2148 4.62039 10.2899 4.55791 10.3823C4.496 10.4752 4.45885 10.5823 4.44995 10.6935C4.44106 10.8048 4.46073 10.9165 4.50709 11.018L5.45749 13.1051C5.37368 13.2567 5.29434 13.4109 5.2141 13.5652L2.94864 13.9343C2.83853 13.9522 2.73482 13.9979 2.64734 14.0672C2.55985 14.1364 2.49149 14.2268 2.44872 14.3298C2.40596 14.4329 2.3902 14.5451 2.40295 14.6559C2.4157 14.7668 2.45653 14.8725 2.52158 14.9631L3.85892 16.8194C3.80632 16.9861 3.75817 17.1555 3.70914 17.324L1.56939 18.1264C1.46499 18.1656 1.3723 18.2307 1.3001 18.3157C1.22791 18.4006 1.17858 18.5026 1.1568 18.612C1.13502 18.7213 1.1415 18.8344 1.17563 18.9406C1.20976 19.0467 1.27041 19.1424 1.35185 19.2186L3.02085 20.7788C3.00213 20.9527 2.98697 21.1274 2.97182 21.303L1.02286 22.5066C0.927934 22.5654 0.849588 22.6474 0.795255 22.7449C0.740921 22.8425 0.712402 22.9522 0.712402 23.0639C0.712402 23.1755 0.740921 23.2853 0.795255 23.3828C0.849588 23.4803 0.927934 23.5624 1.02286 23.6211L2.96825 24.8256C2.98341 25.0039 2.99856 25.1751 3.01729 25.3489L1.34828 26.9092C1.26685 26.9853 1.2062 27.081 1.17207 27.1872C1.13794 27.2933 1.13145 27.4064 1.15323 27.5158C1.17502 27.6251 1.22434 27.7271 1.29654 27.8121C1.36874 27.8971 1.46142 27.9622 1.56582 28.0013L3.70557 28.8038C3.75461 28.9723 3.80186 29.1408 3.85535 29.3075L2.51801 31.1646C2.45297 31.2552 2.41213 31.361 2.39939 31.4718C2.38664 31.5826 2.40239 31.6949 2.44516 31.7979C2.48793 31.9009 2.55629 31.9914 2.64377 32.0606C2.73126 32.1298 2.83496 32.1755 2.94507 32.1935L5.21142 32.5635C5.29166 32.7168 5.37101 32.8711 5.45482 33.0217L4.50709 35.1107C4.46073 35.2122 4.44106 35.3239 4.44995 35.4351C4.45885 35.5464 4.496 35.6535 4.55791 35.7463C4.61856 35.8405 4.70303 35.917 4.80277 35.9681C4.9025 36.0191 5.01395 36.0429 5.12583 36.037L7.42874 35.9559C7.53394 36.0878 7.64093 36.2186 7.7497 36.3482L7.221 38.5913C7.19565 38.7 7.19841 38.8133 7.22904 38.9206C7.25966 39.0278 7.31714 39.1255 7.39603 39.2044C7.47492 39.2833 7.57262 39.3408 7.6799 39.3714C7.78718 39.4021 7.90049 39.4048 8.00914 39.3795L10.2523 38.8508C10.3819 38.9595 10.5129 39.0668 10.6455 39.1726L10.5635 41.4746C10.5595 41.5862 10.5841 41.6969 10.635 41.7963C10.6858 41.8957 10.7612 41.9804 10.854 42.0425C10.9468 42.1046 11.0539 42.1419 11.1652 42.151C11.2765 42.16 11.3882 42.1405 11.4898 42.0943L13.5787 41.1421C13.7294 41.2259 13.8836 41.3052 14.037 41.3855L14.407 43.6518C14.4248 43.762 14.4705 43.8658 14.5398 43.9533C14.609 44.0408 14.6995 44.1092 14.8026 44.1519C14.9057 44.1946 15.018 44.2102 15.1288 44.1973C15.2397 44.1843 15.3454 44.1433 15.4359 44.078L17.293 42.7407C17.4588 42.7941 17.6282 42.8414 17.7967 42.8904L18.5991 45.0302C18.6385 45.1344 18.7037 45.2269 18.7887 45.299C18.8737 45.371 18.9756 45.4202 19.0848 45.442C19.1941 45.4638 19.3071 45.4573 19.4132 45.4234C19.5193 45.3894 19.615 45.3289 19.6913 45.2477L21.2515 43.5787C21.4254 43.5974 21.601 43.6126 21.7758 43.6278L22.9803 45.5731C23.039 45.6681 23.121 45.7464 23.2185 45.8008C23.3161 45.8551 23.4258 45.8836 23.5375 45.8836C23.6491 45.8836 23.7589 45.8551 23.8564 45.8008C23.9539 45.7464 24.036 45.6681 24.0947 45.5731L25.2992 43.6278C25.4775 43.6126 25.6496 43.5974 25.8234 43.5778L27.3837 45.2477C27.46 45.3289 27.5557 45.3894 27.6618 45.4234C27.7679 45.4573 27.8809 45.4638 27.9901 45.442C28.0994 45.4202 28.2013 45.371 28.2863 45.299C28.3713 45.2269 28.4365 45.1344 28.4758 45.0302L29.2783 42.8904C29.4468 42.8414 29.6153 42.7941 29.782 42.7407L31.6382 44.078C31.7287 44.1433 31.8344 44.1843 31.9453 44.1973C32.0561 44.2102 32.1684 44.1946 32.2715 44.1519C32.3746 44.1092 32.4651 44.0408 32.5343 43.9533C32.6035 43.8658 32.6493 43.762 32.6671 43.6518L33.0371 41.3855C33.1904 41.3052 33.3447 41.2259 33.4962 41.1421L35.5843 42.0943C35.6859 42.1405 35.7976 42.16 35.9089 42.151C36.0202 42.1419 36.1273 42.1046 36.2201 42.0425C36.3129 41.9804 36.3882 41.8957 36.4391 41.7963C36.4899 41.6969 36.5146 41.5862 36.5106 41.4746L36.4295 39.1726C36.5614 39.0662 36.6922 38.9589 36.8218 38.8508L39.064 39.3795C39.1727 39.4048 39.286 39.4021 39.3933 39.3714C39.5006 39.3408 39.5983 39.2833 39.6772 39.2044C39.756 39.1255 39.8135 39.0278 39.8441 38.9206C39.8748 38.8133 39.8775 38.7 39.8522 38.5913L39.3235 36.3482C39.4323 36.2192 39.5395 36.0884 39.6453 35.9559L41.9474 36.037C42.0591 36.042 42.1702 36.0178 42.2698 35.9669C42.3694 35.9159 42.454 35.8399 42.5153 35.7463C42.5773 35.6536 42.6146 35.5465 42.6237 35.4352C42.6327 35.324 42.6132 35.2123 42.567 35.1107L41.6148 33.0226C41.6986 32.8711 41.778 32.7168 41.8582 32.5635L44.1245 32.1935C44.2347 32.1755 44.3384 32.1298 44.4258 32.0606C44.5133 31.9914 44.5817 31.9009 44.6245 31.7979C44.6672 31.6949 44.683 31.5826 44.6702 31.4718C44.6575 31.361 44.6166 31.2552 44.5516 31.1646L43.2143 29.3075C43.2669 29.1408 43.315 28.9723 43.3632 28.8038L45.5029 28.0013C45.6073 27.9622 45.7 27.8971 45.7722 27.8121C45.8444 27.7271 45.8937 27.6251 45.9155 27.5158C45.9373 27.4064 45.9308 27.2933 45.8967 27.1872C45.8625 27.081 45.8019 26.9853 45.7204 26.9092L44.0514 25.3489C44.0702 25.1751 44.0853 25.0003 44.1005 24.8256L46.0459 23.6211C46.1408 23.5624 46.2191 23.4803 46.2735 23.3828C46.3278 23.2853 46.3563 23.1755 46.3563 23.0639C46.3563 22.9522 46.3278 22.8425 46.2735 22.7449C46.2191 22.6474 46.1408 22.5654 46.0459 22.5066H46.0503ZM32.5877 34.0149C32.2661 33.9459 31.9303 34.0074 31.6541 34.186C31.3779 34.3646 31.1839 34.6455 31.1149 34.9671L30.4337 38.1473C28.2422 39.1401 25.8622 39.6481 23.4563 39.6368C21.0504 39.6254 18.6753 39.0948 16.4932 38.0813L15.8121 34.902C15.7783 34.7431 15.7135 34.5924 15.6215 34.4586C15.5294 34.3247 15.4119 34.2103 15.2756 34.1219C15.1393 34.0335 14.987 33.9727 14.8272 33.9432C14.6675 33.9137 14.5035 33.916 14.3446 33.9499L11.5353 34.5525C11.0142 34.0148 10.5299 33.4426 10.0856 32.8399H23.7416C23.895 32.8399 23.9993 32.814 23.9993 32.6696V27.8382C23.9993 27.6982 23.895 27.6679 23.7416 27.6679H19.7448L19.7492 24.6054H24.0715C24.4647 24.6054 26.181 24.7195 26.7275 26.9119C26.8978 27.585 27.2776 29.7773 27.5352 30.4781C27.7929 31.2645 28.8369 32.8372 29.9514 32.8372H36.9992C36.5269 33.47 36.0102 34.0686 35.4532 34.6283L32.5877 34.0149ZM34.8853 37.0899C34.8853 37.3585 34.8057 37.621 34.6566 37.8443C34.5075 38.0677 34.2956 38.2418 34.0475 38.3448C33.7995 38.4478 33.5266 38.4749 33.2631 38.4229C32.9997 38.3708 32.7575 38.2418 32.5673 38.0523C32.3771 37.8627 32.2474 37.621 32.1945 37.3577C32.1415 37.0945 32.1678 36.8214 32.27 36.573C32.3721 36.3247 32.5456 36.1122 32.7684 35.9623C32.9913 35.8125 33.2535 35.7321 33.5221 35.7312H33.5613C33.9149 35.7412 34.2506 35.8888 34.4971 36.1425C34.7435 36.3963 34.8812 36.7362 34.8808 37.0899H34.8853ZM14.7699 37.0293C14.7697 37.298 14.6899 37.5605 14.5405 37.7838C14.3911 38.0072 14.1789 38.1812 13.9307 38.2839C13.6824 38.3866 13.4093 38.4135 13.1458 38.361C12.8823 38.3085 12.6403 38.1792 12.4503 37.9892C12.2604 37.7992 12.131 37.5572 12.0785 37.2937C12.0261 37.0302 12.0529 36.7571 12.1556 36.5089C12.2584 36.2606 12.4324 36.0484 12.6557 35.899C12.879 35.7497 13.1416 35.6698 13.4102 35.6697H13.4503C13.8032 35.6812 14.1376 35.8296 14.3831 36.0833C14.6285 36.3371 14.7656 36.6763 14.7654 37.0293H14.7699ZM6.9152 21.1158L9.84219 19.8141C9.9909 19.7482 10.1252 19.6537 10.2373 19.5359C10.3494 19.418 10.4372 19.2793 10.4957 19.1275C10.5542 18.9757 10.5821 18.8139 10.578 18.6513C10.5739 18.4887 10.5377 18.3285 10.4716 18.1799L9.86805 16.8229H12.236V27.4976H7.45727C6.86727 25.4251 6.68321 23.2581 6.9152 21.1158ZM5.9113 17.9008C5.91118 17.7224 5.94621 17.5457 6.01438 17.3808C6.08256 17.2159 6.18254 17.0661 6.30863 16.9398C6.43472 16.8135 6.58444 16.7134 6.74925 16.645C6.91405 16.5766 7.09071 16.5413 7.26915 16.5412H7.31016C7.57713 16.5487 7.83596 16.6348 8.0543 16.7886C8.27265 16.9424 8.44082 17.1571 8.53781 17.406C8.63479 17.6548 8.65629 17.9267 8.59961 18.1877C8.54294 18.4487 8.4106 18.6872 8.21914 18.8735C8.02768 19.0597 7.78558 19.1853 7.52311 19.2347C7.26064 19.2841 6.98944 19.255 6.74338 19.1512C6.49733 19.0473 6.28735 18.8732 6.13967 18.6507C5.992 18.4281 5.91319 18.167 5.91308 17.8999L5.9113 17.9008ZM19.7448 20.0843L19.7492 16.9353H25.3893C25.6817 16.9353 27.4461 17.2714 27.4461 18.5954C27.4461 19.6911 26.0918 20.0843 24.9782 20.0843H19.7448ZM36.2859 27.585C35.4122 27.6857 34.4466 27.2177 34.3245 26.6854C33.8092 23.7887 32.9524 23.1726 31.599 22.1028C33.2805 21.0374 35.0279 19.4602 35.0279 17.3543C35.0279 15.079 33.4686 13.6463 32.4067 12.9429C30.9125 11.9621 29.2613 11.7633 28.8164 11.7633H11.0832C13.5353 9.02369 16.8221 7.1689 20.4348 6.48616L22.5273 8.67941C22.6392 8.79717 22.7733 8.89165 22.9219 8.9574C23.0704 9.02315 23.2305 9.05888 23.3929 9.06252C23.5553 9.06617 23.7168 9.03766 23.8682 8.97864C24.0195 8.91963 24.1577 8.83126 24.2748 8.71864L26.616 6.48973C29.001 6.93648 31.2601 7.89704 33.2365 9.3047C35.2129 10.7124 36.8592 12.5334 38.061 14.6413L36.4562 18.2584C36.3258 18.5592 36.319 18.8992 36.4373 19.205C36.5556 19.5108 36.7895 19.7578 37.0883 19.8926L40.1723 21.2594C40.2684 22.2235 40.2803 23.1942 40.2079 24.1605H38.489C38.3187 24.1605 38.2492 24.2737 38.2492 24.4396V25.2259C38.2474 27.0759 37.2051 27.4842 36.2859 27.585ZM22.1101 5.60798C22.1108 5.24854 22.2539 4.90403 22.5081 4.64987C22.7622 4.39571 23.1067 4.25262 23.4662 4.25191H23.5063C23.7734 4.25927 24.0324 4.34525 24.251 4.49907C24.4695 4.6529 24.6378 4.86774 24.7348 5.11673C24.8319 5.36572 24.8533 5.63779 24.7965 5.89892C24.7397 6.16005 24.6072 6.39862 24.4155 6.58481C24.2238 6.771 23.9815 6.89652 23.7188 6.94569C23.4561 6.99485 23.1848 6.96546 22.9387 6.8612C22.6927 6.75695 22.4828 6.58245 22.3354 6.35954C22.1881 6.13663 22.1097 5.87521 22.1101 5.60798ZM39.6596 19.3193C39.4812 19.3193 39.3045 19.2842 39.1396 19.2159C38.9748 19.1476 38.825 19.0475 38.6988 18.9213C38.5727 18.7952 38.4726 18.6454 38.4043 18.4805C38.336 18.3157 38.3009 18.139 38.3009 17.9606C38.3009 17.7821 38.336 17.6055 38.4043 17.4406C38.4726 17.2758 38.5727 17.126 38.6988 16.9998C38.825 16.8736 38.9748 16.7735 39.1396 16.7053C39.3045 16.637 39.4812 16.6018 39.6596 16.6018H39.6988C40.0592 16.607 40.4027 16.7552 40.6539 17.0137C40.905 17.2722 41.0432 17.6198 41.038 17.9802C41.0328 18.3405 40.8846 18.6841 40.6261 18.9352C40.3676 19.1863 40.02 19.3245 39.6596 19.3193Z" fill="black"/>
</g>
<defs>
<clipPath id="clip0_201_6537">
<rect width="45.648" height="45.648" fill="white" transform="translate(0.713379 0.239929)"/>
</clipPath>
</defs>
</svg>
