<svg width="58" height="46" viewBox="0 0 58 46" fill="none" xmlns="http://www.w3.org/2000/svg">
<g clip-path="url(#clip0_201_6533)">
<path d="M22.1952 22.1402H19.8459C19.9074 21.6802 20.1419 20.8813 21.062 20.8813C21.6638 20.8813 22.1292 21.2219 22.1952 22.1402ZM34.3793 20.9027C34.3374 20.9027 33.1213 20.7449 33.1213 22.6859C33.1213 24.6268 34.3365 24.469 34.3793 24.469C35.5383 24.469 35.6373 23.2618 35.6373 22.6859C35.6373 20.7458 34.4194 20.9027 34.3793 20.9027ZM12.6947 23.0211C12.597 23.0977 12.5193 23.1969 12.4682 23.31C12.4171 23.4232 12.3942 23.5471 12.4014 23.671C12.4014 24.0972 12.5868 24.2104 12.6947 24.2996C13.1137 24.6295 14.0383 24.4886 14.5607 24.3843V22.874C14.0864 22.7786 13.0691 22.6992 12.6947 23.0211ZM57.0651 20.9241C57.0651 28.7324 49.9326 34.689 42.3222 33.0877C40.6844 36.0299 36.0162 39.3955 30.5357 36.7993C26.8661 45.3628 14.6757 45.0177 11.4732 36.3384C0.799456 38.4683 -4.46968 24.0018 4.76245 18.5713C1.66427 11.4896 6.78095 3.0929 14.9539 3.0929C16.6535 3.09395 18.3301 3.48612 19.8539 4.23903C21.3777 4.99195 22.7077 6.08542 23.7411 7.4348C25.5867 5.52686 28.1455 4.33128 30.9762 4.33128C34.751 4.33128 38.0195 6.42823 39.7848 9.55316C48.0603 5.92628 57.0651 12.07 57.0651 20.9241ZM10.7439 23.7593C10.7439 22.7108 9.7017 22.4068 9.15072 22.2285C8.68087 22.0404 7.95513 21.9156 7.95513 21.4314C7.95513 20.588 9.47079 20.8377 10.1992 21.2424C10.1992 21.2424 10.3035 21.3057 10.3454 21.2005C10.3668 21.1381 10.5558 20.6139 10.5763 20.5506C10.5843 20.5256 10.5823 20.4985 10.5706 20.4751C10.559 20.4516 10.5386 20.4336 10.5139 20.4249C9.41462 19.7446 6.88526 19.6661 6.88526 21.5572C6.88526 22.668 7.90967 22.9337 8.47937 23.088C8.90019 23.2288 9.65356 23.3554 9.65356 23.8636C9.65356 24.2202 9.33884 24.4931 8.836 24.4931C8.22505 24.492 7.63082 24.2934 7.14203 23.9269C7.10013 23.9064 7.01543 23.8636 6.99492 23.9902L6.78095 24.6562C6.73904 24.74 6.80145 24.7614 6.80145 24.7819C6.95748 24.9068 7.71976 25.3695 8.836 25.3695C10.0102 25.3695 10.7439 24.74 10.7439 23.7549V23.7593ZM13.5969 19.963C12.6938 19.963 11.9333 20.2457 11.689 20.4249C11.6792 20.4316 11.6709 20.4403 11.6645 20.4503C11.6581 20.4603 11.6538 20.4715 11.6518 20.4832C11.6498 20.4949 11.6502 20.5069 11.6529 20.5185C11.6556 20.5301 11.6606 20.541 11.6676 20.5506L11.8985 21.18C11.9048 21.2019 11.9192 21.2205 11.9387 21.2321C11.9583 21.2437 11.9815 21.2474 12.0037 21.2424C12.0617 21.2424 12.61 20.8858 13.5131 20.8858C13.8698 20.8858 14.1426 20.9491 14.3316 21.0962C14.6526 21.3459 14.6044 21.8353 14.6044 22.0395C14.1773 22.0127 12.9006 21.7328 11.9823 22.3747C11.773 22.5183 11.6033 22.7124 11.4889 22.939C11.3745 23.1656 11.3191 23.4174 11.3279 23.671C11.3279 24.1971 11.4625 24.5983 11.9155 24.9504C13.0067 25.678 15.15 25.1288 15.3123 25.0762C15.4532 25.0476 15.627 25.0173 15.627 24.9085V21.8879C15.6306 21.4769 15.6556 19.9586 13.596 19.9586L13.5969 19.963ZM17.7472 18.0925C17.7481 18.0785 17.746 18.0644 17.741 18.0512C17.7361 18.038 17.7283 18.0261 17.7184 18.0161C17.7084 18.0062 17.6965 17.9984 17.6833 17.9935C17.6701 17.9885 17.656 17.9864 17.642 17.9873H16.7664C16.7525 17.9866 16.7385 17.9887 16.7254 17.9938C16.7123 17.9988 16.7005 18.0065 16.6906 18.0165C16.6808 18.0264 16.6731 18.0383 16.6682 18.0514C16.6633 18.0646 16.6612 18.0786 16.6621 18.0925V25.1359C16.6612 25.1499 16.6633 25.1639 16.6682 25.177C16.6731 25.1901 16.6808 25.202 16.6906 25.212C16.7005 25.2219 16.7123 25.2296 16.7254 25.2347C16.7385 25.2397 16.7525 25.2419 16.7664 25.2411H17.6473C17.6614 25.242 17.6754 25.2399 17.6886 25.235C17.7018 25.23 17.7138 25.2223 17.7237 25.2123C17.7337 25.2024 17.7414 25.1904 17.7464 25.1772C17.7513 25.164 17.7534 25.1499 17.7525 25.1359L17.7472 18.0925ZM22.7176 20.6718C22.5304 20.4659 22.1123 20.0005 21.144 20.0005C20.8311 20.0005 19.8816 20.021 19.2985 20.7975C18.7323 21.4778 18.7118 22.4122 18.7118 22.7064C18.7118 22.9845 18.7252 23.9777 19.3413 24.5938C19.5767 24.8533 20.149 25.3276 21.3749 25.3276C22.3396 25.3276 22.8433 25.1181 23.0315 24.9923C23.0734 24.9709 23.0948 24.929 23.0529 24.8247L22.8433 24.2158C22.8326 24.1927 22.8143 24.1739 22.7914 24.1625C22.7686 24.1512 22.7425 24.148 22.7176 24.1534C22.4867 24.2372 22.1515 24.4048 21.3544 24.4048C19.8013 24.4048 19.8521 23.0906 19.8441 22.9159H23.1581C23.1823 22.9154 23.2056 22.9069 23.2245 22.8917C23.2433 22.8766 23.2567 22.8556 23.2624 22.8321C23.2365 22.8321 23.4469 21.5215 22.7194 20.6718H22.7176ZM25.9888 25.3695C27.163 25.3695 27.8976 24.74 27.8976 23.7549C27.8976 22.7064 26.8545 22.4024 26.3035 22.224C25.9344 22.076 25.1079 21.9227 25.1079 21.427C25.1079 21.0918 25.4012 20.8608 25.8631 20.8608C26.3816 20.8713 26.891 21.0003 27.352 21.238C27.352 21.238 27.4572 21.3013 27.4991 21.1961C27.5196 21.1337 27.7086 20.6094 27.7291 20.5461C27.7371 20.5212 27.735 20.4941 27.7234 20.4706C27.7117 20.4471 27.6914 20.4291 27.6667 20.4204C26.9615 19.9835 26.1742 19.98 25.8631 19.98C24.7932 19.98 24.0389 20.6299 24.0389 21.5527C24.0389 22.6636 25.0624 22.9293 25.6321 23.0835C26.1769 23.2618 26.8063 23.3742 26.8063 23.8592C26.8063 24.2158 26.4925 24.4886 25.9888 24.4886C25.3779 24.4873 24.7837 24.2888 24.2948 23.9225C24.2821 23.9116 24.2667 23.9045 24.2502 23.902C24.2337 23.8995 24.2168 23.9016 24.2015 23.9082C24.1862 23.9148 24.173 23.9256 24.1635 23.9393C24.154 23.953 24.1485 23.9691 24.1477 23.9858L23.9382 24.6562C23.8963 24.74 23.9587 24.7614 23.9587 24.7819C24.112 24.9068 24.8797 25.3695 25.9905 25.3695H25.9888ZM31.8419 20.2109C31.8419 20.1476 31.8205 20.1057 31.7367 20.1057H30.6882C30.6882 20.0932 30.772 19.3086 31.0867 18.9939C31.4576 18.6239 32.1352 18.8477 32.1566 18.8477C32.2609 18.8896 32.2823 18.8477 32.3028 18.8058L32.5551 18.113C32.6175 18.0292 32.5551 18.0087 32.5337 17.9873C32.0799 17.809 30.9869 17.7315 30.353 18.3654C29.8644 18.8539 29.7289 19.6064 29.6397 20.1057H28.8846C28.8575 20.1079 28.8321 20.1198 28.813 20.1391C28.7939 20.1583 28.7823 20.1838 28.7802 20.2109L28.6536 20.9027C28.6536 20.9652 28.675 21.0071 28.7589 21.0071H29.4926C28.7339 25.2776 28.7125 25.4836 28.5698 25.957C28.4736 26.2798 28.2765 26.5722 28.0456 26.6489C28.0376 26.6489 27.6997 26.7986 27.1861 26.6275C27.1861 26.6275 27.1023 26.5856 27.0604 26.6908C27.039 26.7541 26.8295 27.2988 26.8081 27.3621C26.7867 27.4254 26.8081 27.4878 26.85 27.4878C27.3056 27.6661 28.009 27.6456 28.4441 27.4878C29.004 27.2845 29.3107 26.7844 29.4721 26.3341C29.7173 25.6467 29.7226 25.4613 30.5206 21.0079H31.611C31.6381 21.0057 31.6636 20.9939 31.6829 20.9746C31.7021 20.9554 31.7139 20.9299 31.7162 20.9027L31.8419 20.2109ZM36.6019 21.6374C36.552 21.4876 36.1472 20.0228 34.3579 20.0228C32.9982 20.0228 32.3073 20.9143 32.1147 21.6374C32.0255 21.9049 31.8312 22.8856 32.1147 23.7343C32.1227 23.7611 32.5079 25.3499 34.3579 25.3499C35.6907 25.3499 36.3995 24.4931 36.6019 23.7343C36.8881 22.8776 36.692 21.9049 36.6019 21.6374ZM40.6496 20.1485C40.2038 20.0014 39.1678 19.9791 38.6784 20.6308V20.2323C38.6792 20.2183 38.677 20.2043 38.6719 20.1912C38.6669 20.1782 38.6592 20.1663 38.6492 20.1565C38.6393 20.1466 38.6274 20.139 38.6143 20.1341C38.6012 20.1291 38.5871 20.1271 38.5732 20.128H37.7351C37.7211 20.1271 37.7071 20.1291 37.694 20.1341C37.6809 20.139 37.669 20.1466 37.659 20.1565C37.6491 20.1663 37.6413 20.1782 37.6363 20.1912C37.6313 20.2043 37.6291 20.2183 37.6299 20.2323V25.1608C37.6291 25.1749 37.6313 25.1889 37.6363 25.202C37.6413 25.2151 37.6491 25.227 37.659 25.237C37.6689 25.2469 37.6808 25.2546 37.6939 25.2596C37.7071 25.2646 37.7211 25.2668 37.7351 25.2661H38.5946C38.6086 25.2668 38.6226 25.2646 38.6357 25.2596C38.6488 25.2546 38.6607 25.2469 38.6707 25.237C38.6806 25.227 38.6883 25.2151 38.6933 25.202C38.6984 25.1889 38.7005 25.1749 38.6998 25.1608V22.685C38.6998 22.4255 38.7042 21.6713 39.0974 21.3432C39.5343 20.9063 40.1673 21.0436 40.293 21.0704C40.3198 21.0699 40.3458 21.0617 40.3681 21.0469C40.3904 21.032 40.408 21.0111 40.4187 20.9866C40.5233 20.7543 40.6144 20.5161 40.6915 20.2733C40.7004 20.2508 40.701 20.2258 40.6933 20.2029C40.6857 20.1799 40.6702 20.1603 40.6496 20.1476V20.1485ZM44.823 24.9718L44.634 24.3219C44.5921 24.2167 44.5083 24.2586 44.5083 24.2586C44.1312 24.4209 43.6034 24.4271 43.5017 24.4271C43.088 24.4271 41.9709 24.3263 41.9709 22.6654C41.9709 22.1099 42.1359 20.9036 43.4393 20.9036C43.7875 20.8948 44.1347 20.9445 44.4664 21.0507C44.4664 21.0507 44.5502 21.0926 44.5716 20.9874C44.6554 20.7565 44.7178 20.5889 44.8025 20.3161C44.823 20.2323 44.7606 20.2118 44.7392 20.2118C43.7059 19.8668 42.7475 19.9862 42.2642 20.2118C42.1225 20.2778 40.8172 20.7904 40.8172 22.6654C40.8172 22.9239 40.7655 25.3499 43.3974 25.3499C43.87 25.3489 44.3386 25.2635 44.7811 25.0975C44.8003 25.0833 44.8146 25.0635 44.8221 25.0409C44.8296 25.0182 44.8299 24.9938 44.823 24.9709V24.9718ZM49.6259 21.4484C49.5545 21.1809 49.1471 20.0014 47.6332 20.0014C46.2067 20.0014 45.5363 20.9027 45.3473 21.6588C45.2444 21.9986 45.1948 22.3523 45.2002 22.7073C45.2002 25.0137 46.8799 25.3285 47.8641 25.3285C48.8288 25.3285 49.3316 25.1189 49.5207 24.9932C49.5626 24.9718 49.584 24.9299 49.5421 24.8256L49.3316 24.2167C49.3209 24.1936 49.3026 24.1748 49.2797 24.1634C49.2569 24.1521 49.2309 24.1489 49.2059 24.1543C48.975 24.2381 48.6398 24.4057 47.8427 24.4057C46.2896 24.4057 46.3405 23.0915 46.3333 22.9168H49.6464C49.6706 22.9162 49.694 22.9077 49.713 22.8925C49.732 22.8774 49.7456 22.8565 49.7516 22.833C49.7302 22.8321 49.8354 22.2026 49.6259 21.4475V21.4484ZM47.5494 20.8822C46.6284 20.8822 46.3904 21.6846 46.3333 22.1411H48.6844C48.6059 21.0784 48.005 20.8813 47.5494 20.8813V20.8822Z" fill="black"/>
</g>
<defs>
<clipPath id="clip0_201_6533">
<rect width="57.06" height="45.648" fill="white" transform="translate(0.00537109 0.239929)"/>
</clipPath>
</defs>
</svg>
