<svg width="58" height="46" viewBox="0 0 58 46" fill="none" xmlns="http://www.w3.org/2000/svg">
<g clip-path="url(#clip0_201_6531)">
<path d="M27.8559 34.0229C27.8024 34.1192 27.8292 34.0764 27.8559 34.0229V34.0229ZM50.0674 26.2664C48.2742 26.2658 46.5049 26.6776 44.8963 27.47C44.3703 26.409 43.8265 25.4818 43.7373 24.7864C43.6303 23.975 43.5144 23.4936 43.6392 22.5307C43.7641 21.5678 44.3257 20.2037 44.3168 20.1057C44.3079 20.0076 44.192 19.5172 43.0419 19.5083C41.8918 19.4994 40.9021 19.7312 40.7871 20.0343C40.584 20.5883 40.426 21.1578 40.3146 21.7372C40.1095 22.7803 38.0153 26.5071 36.8295 28.4507C36.4372 27.6929 36.1073 27.0242 36.036 26.4893C35.929 25.6779 35.8131 25.1965 35.9379 24.2336C36.0627 23.2707 36.6244 21.9066 36.6155 21.8085C36.6066 21.7105 36.4907 21.2201 35.3415 21.2112C34.1922 21.2023 33.2017 21.4341 33.0858 21.7372C32.9699 22.0404 32.8451 22.7536 32.6133 23.4401C32.3815 24.1266 29.5918 30.3319 28.8616 31.9456C28.4871 32.7658 28.1662 33.4256 27.9344 33.8714C27.8987 33.9427 27.872 33.9873 27.8541 34.0229C27.8809 33.9784 27.8987 33.9338 27.8987 33.9516C27.7026 34.335 27.5867 34.549 27.5867 34.549V34.5579C27.4351 34.8432 27.2657 35.1017 27.1855 35.1017C27.132 35.1017 27.0161 34.3528 27.2122 33.3275C27.6312 31.17 28.6209 27.8177 28.612 27.7018C28.603 27.6394 28.7992 27.0598 27.9611 26.7478C27.1498 26.4536 26.8556 26.9439 26.7843 26.9439C26.7129 26.9439 26.6594 27.1223 26.6594 27.1223C26.6594 27.1223 27.5599 23.342 24.9307 23.342C23.2902 23.342 21.0078 25.143 19.8862 26.7745C19.1819 27.1579 17.6573 27.9871 16.0525 28.8697C15.4373 29.2085 14.8043 29.5562 14.207 29.8861C14.1624 29.8415 14.1267 29.7969 14.0822 29.7524C10.8913 26.3466 4.99982 23.9394 5.24946 19.3657C5.33861 17.6984 5.91813 13.3209 16.5785 8.00716C25.3159 3.65634 32.3012 4.85103 33.504 7.50789C35.2336 11.297 29.7692 18.3493 20.6958 19.3657C17.2374 19.749 15.4195 18.4117 14.9648 17.9124C14.4923 17.3864 14.421 17.3596 14.2426 17.4577C13.9484 17.6182 14.1357 18.0818 14.2426 18.3582C14.5101 19.0625 15.6246 20.3107 17.5227 20.9348C19.1899 21.4787 23.2447 21.7818 28.1475 19.8828C33.6555 17.7609 37.943 11.8498 36.6859 6.90162C35.4057 1.87321 27.0678 0.223822 19.1837 3.02333C14.486 4.69055 9.40592 7.31174 5.75141 10.7264C1.41039 14.792 0.715863 18.3315 1.00116 19.8114C2.01665 25.0627 9.25436 28.4863 12.151 31.0184C12.0084 31.0986 11.8747 31.17 11.7498 31.2413C10.2975 31.9634 4.7796 34.8521 3.39857 37.9012C1.83834 41.3605 3.65713 43.8391 4.85093 44.1778C8.57677 45.2121 12.3918 43.3487 14.4415 40.2906C16.4912 37.2326 16.2424 33.2384 15.2974 31.4196C15.2884 31.3928 15.2706 31.375 15.2617 31.3483C15.6362 31.1254 16.0195 30.9025 16.4029 30.6796C17.142 30.2427 17.8642 29.8415 18.4972 29.4938C18.1406 30.4567 17.882 31.6157 17.7483 33.2919C17.5878 35.2533 18.3991 37.7943 19.4512 38.7928C19.9148 39.2297 20.4756 39.2386 20.8233 39.2386C22.0536 39.2386 22.6064 38.2222 23.2207 37.0097C23.9785 35.5297 24.6472 33.809 24.6472 33.809C24.6472 33.809 23.8091 38.4629 26.1004 38.4629C26.9376 38.4629 27.7757 37.3841 28.151 36.8314V36.8403C28.151 36.8403 28.1688 36.8046 28.2134 36.7333C28.3026 36.5996 28.3472 36.5193 28.3472 36.5193V36.4926C28.686 35.9131 29.426 34.5846 30.5395 32.3914C31.9838 29.5562 33.3649 26.0167 33.3649 26.0167C33.4983 26.7948 33.683 27.5632 33.9176 28.317C34.1673 29.1639 34.6933 30.0912 35.1123 30.9916C34.7735 31.4553 34.5685 31.7227 34.5685 31.7227C34.5691 31.7296 34.5723 31.7359 34.5774 31.7406C34.3099 32.0972 34.0068 32.4805 33.6948 32.855C32.5544 34.2102 31.1984 35.7615 31.0201 36.2073C30.8061 36.7333 30.8596 37.1256 31.2697 37.4287C31.5728 37.6605 32.1078 37.6962 32.6686 37.6516C33.6939 37.5803 34.416 37.3306 34.7637 37.1702C35.4048 36.9403 36.0106 36.6222 36.5638 36.2251C37.6783 35.4049 38.3558 34.228 38.2934 32.6767C38.2578 31.8208 37.9814 30.9649 37.6426 30.1625C37.7407 30.0198 37.8477 29.8683 37.9457 29.7167C39.7101 27.1401 41.0742 24.3121 41.0742 24.3121C41.2077 25.0901 41.3923 25.8585 41.627 26.6123C41.841 27.3344 42.2591 28.1279 42.6425 28.9036C40.9851 30.2499 39.9598 31.8101 39.6031 32.8354C38.9434 34.7344 39.4605 35.5903 40.4323 35.7865C40.8692 35.8756 41.4932 35.6706 41.9569 35.4744C42.6454 35.2451 43.2946 34.9113 43.8817 34.4848C44.9962 33.6645 46.0741 32.5144 46.0028 30.9542C45.976 30.2499 45.7799 29.5455 45.5213 28.8679C46.9211 28.2795 48.739 27.9585 51.057 28.226C56.0213 28.8055 56.9931 31.9082 56.8058 33.2009C56.6186 34.4937 55.5755 35.2159 55.2278 35.4298C54.8801 35.6438 54.7731 35.724 54.7998 35.8845C54.8444 36.1163 55.0049 36.1074 55.2991 36.0539C55.7092 35.9826 57.9016 35.0019 57.9996 32.6036C58.1423 29.5723 55.2278 26.2378 50.0647 26.2646L50.0674 26.2664ZM11.8033 39.1673C10.1637 40.9593 7.86352 41.6369 6.87478 41.0663C5.81382 40.4493 6.23285 37.8121 8.25581 35.9024C9.48616 34.7433 11.0723 33.6735 12.1243 33.0137C12.365 32.8711 12.7127 32.6571 13.1407 32.3985C13.212 32.3539 13.2477 32.3361 13.2477 32.3361C13.3279 32.2826 13.4171 32.238 13.5062 32.1845C14.2453 34.8949 13.533 37.2843 11.8033 39.1655V39.1673ZM23.7824 31.0184C23.2118 32.4181 22.009 35.9844 21.278 35.7972C20.6539 35.6367 20.2705 32.9174 21.1531 30.2427C21.5989 28.8965 22.544 27.2917 23.1057 26.6676C24.0053 25.6601 24.9949 25.3391 25.2267 25.7403C25.5387 26.2664 24.139 30.1447 23.7824 31.0184ZM33.6787 35.7437C33.438 35.8685 33.2151 35.9487 33.1081 35.8863C33.0279 35.8417 33.2062 35.6723 33.2062 35.6723C33.2062 35.6723 34.4454 34.3439 34.9358 33.7377C35.2211 33.381 35.551 32.962 35.9067 32.4984C35.9067 32.543 35.9156 32.5875 35.9156 32.641C35.904 34.2369 34.3714 35.3157 33.676 35.7437H33.6787ZM41.3087 34.0051C41.1304 33.8803 41.1571 33.4613 41.7545 32.1596C41.9863 31.6514 42.5203 30.7955 43.4484 29.9753C43.5535 30.2857 43.6106 30.6104 43.6178 30.9381C43.6089 32.9442 42.1735 33.6931 41.3096 34.0051H41.3087Z" fill="black"/>
</g>
<defs>
<clipPath id="clip0_201_6531">
<rect width="57.06" height="45.648" fill="white" transform="translate(0.945312 0.239929)"/>
</clipPath>
</defs>
</svg>
