<svg width="40" height="46" viewBox="0 0 40 46" fill="none" xmlns="http://www.w3.org/2000/svg">
<g clip-path="url(#clip0_201_6529)">
<path d="M31.2527 14.2998L26.4204 10.1897L32.9645 6.71265L39.9454 10.6534L31.2527 14.2998ZM17.1214 11.1259L21.1959 8.61167L24.2896 11.6965L19.3503 14.282L17.1214 11.1259ZM11.3173 11.7143L14.1614 9.74396L15.6949 12.276L12.4229 14.282L11.3173 11.7143ZM9.24 19.5779L8.45543 16.4753L11.0945 14.8437L12.2624 17.9909L9.24 19.5779ZM7.34989 12.1155L9.48073 10.5018L10.2742 12.6415L7.89374 14.2731L7.34989 12.1155ZM5.26364 18.6507L4.94267 16.1186L6.93086 14.7367L7.47471 17.2955L5.26364 18.6507ZM2.53545 20.1307L4.3899 18.9895L4.68412 21.9673L2.64244 23.0372L2.53545 20.1307ZM0.128237 24.1338L1.84004 23.2244L1.8757 26.6301L0.00341797 27.4147L0.128237 24.1338ZM5.39737 29.4207L2.87425 30.1607L2.7316 25.9882L4.96942 25.0343L5.39737 29.4207ZM8.82989 23.7058L6.05713 24.8649L5.59351 21.2273L8.03639 19.9434L8.82989 23.7058ZM10.9875 33.8518L7.27857 34.3778L6.5564 28.7164L9.6947 27.7535L10.9875 33.8518ZM13.5284 21.3788L15.4185 26.4697L11.2995 27.6822L10.0781 22.8588L13.5284 21.3788ZM21.1691 41.9294L14.8479 41.6351L12.6814 33.094L17.6029 32.3272L21.1691 41.9294ZM13.5997 16.9924L17.3621 14.9953L19.8585 19.0875L15.3294 20.9866L13.5997 16.9924ZM17.2551 25.4533L22.7204 23.7861L27.4279 31.507L20.3132 32.5145L17.2551 25.4533ZM21.8378 17.8215L27.838 15.2538L33.6777 21.0846L25.7785 23.4205L21.8378 17.8215Z" fill="black"/>
</g>
<defs>
<clipPath id="clip0_201_6529">
<rect width="39.942" height="45.648" fill="white" transform="translate(0.00341797 0.239929)"/>
</clipPath>
</defs>
</svg>
