<svg width="35" height="46" viewBox="0 0 35 46" fill="none" xmlns="http://www.w3.org/2000/svg">
<g clip-path="url(#clip0_201_6527)">
<path d="M4.53864 22.7697C3.10323 21.0757 2.33648 18.6774 2.32757 15.6461C2.32757 6.69482 9.03212 1.99629 17.2345 1.99629C26.0253 1.85364 31.2142 6.36494 33.666 8.29072L29.1636 14.7189L25.8381 12.5256L28.2364 9.08421C24.9822 6.94446 21.1574 5.83 17.2702 5.89241C12.7499 5.82109 7.3114 8.31746 7.3114 12.6861C7.3114 14.3533 8.30995 14.5317 9.86127 14.077C11.9386 13.6044 13.5969 14.1305 14.8362 15.3251C17.1899 17.4916 16.9046 21.3521 14.7738 23.5186C12.1704 26.1487 7.17767 25.9526 4.53864 22.7697ZM32.8636 23.2957C31.4817 21.6196 29.3954 20.6745 27.2289 20.7458C23.832 20.5675 20.8899 23.2422 20.9434 26.7371C20.881 28.235 21.4783 29.6793 22.5839 30.6868C23.841 31.926 25.526 32.4431 27.6034 31.9706C29.1547 31.5159 30.1532 31.6942 30.1532 33.3614C30.1532 33.7448 30.1086 34.1193 30.0284 34.4937C28.5395 38.1402 24.7236 40.2354 19.2048 40.2354C14.5776 40.2532 10.0752 38.7732 6.35743 36.0183L9.36199 32.5055L6.18803 30.0627L0.767334 36.4641L2.14034 37.6944C6.82104 41.867 12.8747 44.1583 19.1424 44.1315C23.7251 44.1315 27.5588 43.1954 31.0537 40.1997C36.1445 35.6171 35.886 26.8976 32.8636 23.2957Z" fill="black"/>
</g>
<defs>
<clipPath id="clip0_201_6527">
<rect width="34.236" height="45.648" fill="white" transform="translate(0.767334 0.239929)"/>
</clipPath>
</defs>
</svg>
