<svg width="41" height="46" viewBox="0 0 41 46" fill="none" xmlns="http://www.w3.org/2000/svg">
<g clip-path="url(#clip0_201_6523)">
<path d="M32.3213 3.0929H9.25657C4.61153 3.0929 0.813477 6.89095 0.813477 11.5271V34.5918C0.813477 39.2368 4.61153 43.0349 9.25657 43.0349H32.3213C36.9663 43.0349 40.7644 39.2368 40.7644 34.6007V11.5271C40.7644 6.89095 36.9663 3.0929 32.3213 3.0929ZM27.8635 31.3019C25.376 35.5993 19.8483 37.0882 15.5421 34.6185C13.5004 38.167 10.6474 35.3853 11.7708 33.4417L13.1705 31.0166C13.6966 30.0983 14.8823 29.7774 15.8006 30.3123C17.4589 31.2752 15.7917 30.3034 17.45 31.2663C19.9107 32.6838 23.1025 31.8279 24.529 29.3672C25.9466 26.9065 25.0907 23.7147 22.63 22.2882C21.043 21.3788 22.5765 22.2526 20.9717 21.3432C18.7785 20.0772 20.6686 16.716 22.8975 17.9998C24.5558 18.9627 22.8886 17.9909 24.5469 18.9538C28.862 21.4502 30.3509 27.0046 27.8635 31.3019ZM29.8071 12.6861C28.2914 15.3162 28.3538 15.2538 28.1131 15.4945C27.5336 16.074 26.6599 16.2702 25.7505 15.8155C24.0922 14.8526 25.7594 15.8244 24.1011 14.8615C21.6404 13.4439 18.4486 14.2998 17.0221 16.7605C15.5956 19.2213 16.4604 22.4131 18.9211 23.8396C18.9211 23.8396 20.5705 24.7846 20.5794 24.7846C22.7727 26.0506 20.8825 29.4118 18.6536 28.128C16.9953 27.1651 18.6626 28.1369 17.0042 27.174C12.7069 24.6955 11.218 19.141 13.6966 14.8348C16.184 10.5374 21.7117 9.04853 26.0179 11.5182L26.4459 10.7692C27.7208 8.54926 31.082 10.475 29.8071 12.6861Z" fill="black"/>
</g>
<defs>
<clipPath id="clip0_201_6523">
<rect width="39.942" height="45.648" fill="white" transform="translate(0.813477 0.239929)"/>
</clipPath>
</defs>
</svg>
