<svg width="58" height="46" viewBox="0 0 58 46" fill="none" xmlns="http://www.w3.org/2000/svg">
<g clip-path="url(#clip0_201_6521)">
<path d="M48.8723 21.3974C49.1455 20.3046 49.2548 19.1844 49.2548 18.0644C49.2548 9.81367 42.534 3.0929 34.2833 3.0929C27.3987 3.0929 21.3883 7.81925 19.7491 14.4854C18.383 13.3106 16.6345 12.655 14.8315 12.655C10.7062 12.655 7.34577 16.0153 7.34577 20.1406C7.34577 20.7963 7.42779 21.4793 7.61903 22.135C3.79423 23.9382 1.30811 27.8176 1.30811 32.0522C1.30802 38.1173 6.25298 43.0349 12.2907 43.0349H46.2769C52.3146 43.0349 57.2595 38.1173 57.2595 32.0523C57.2596 27.0253 53.7899 22.5995 48.8723 21.3974ZM18.5744 36.0409C18.5744 36.7786 17.946 37.4069 17.2084 37.4069H14.4491C13.7114 37.4069 13.0831 36.7785 13.0831 36.0409V26.151C13.0831 25.4134 13.7115 24.7851 14.4491 24.7851H17.2084C17.9461 24.7851 18.5744 25.4134 18.5744 26.151V36.0409ZM26.5518 36.0409C26.5518 36.7786 25.9234 37.4069 25.1857 37.4069H22.4265C21.6888 37.4069 21.0605 36.7785 21.0605 36.0409V24.3206C21.0605 23.583 21.6889 22.9547 22.4265 22.9547H25.1857C25.9234 22.9547 26.5518 23.583 26.5518 24.3206V36.0409ZM34.5292 36.0409C34.5292 36.7786 33.9009 37.4069 33.1633 37.4069H30.404C29.6663 37.4069 29.0379 36.7785 29.0379 36.0409V21.534C29.0379 20.7963 29.6663 20.168 30.404 20.168H33.1633C33.9009 20.168 34.5292 20.7964 34.5292 21.534V36.0409ZM42.2882 36.0409C42.2882 36.7786 41.6599 37.4069 40.9222 37.4069H38.3815C37.6438 37.4069 37.0155 36.7785 37.0155 36.0409V16.0153C37.0155 15.2504 37.6438 14.622 38.3815 14.622H40.9222C41.6599 14.622 42.2882 15.2503 42.2882 16.0153V36.0409Z" fill="black"/>
</g>
<defs>
<clipPath id="clip0_201_6521">
<rect width="57.06" height="45.648" fill="white" transform="translate(0.753418 0.239929)"/>
</clipPath>
</defs>
</svg>
