<svg width="46" height="46" viewBox="0 0 46 46" fill="none" xmlns="http://www.w3.org/2000/svg">
<g clip-path="url(#clip0_201_6513)">
<path d="M35.9752 40.8425C32.1739 43.6676 27.5607 45.1873 22.8246 45.1746C10.5933 45.1746 0.713867 35.2783 0.713867 23.0639C0.713867 10.8325 10.6102 0.953133 22.8246 0.953133C28.2797 0.948461 33.5429 2.96547 37.5978 6.61455C37.6478 6.66014 37.6821 6.72049 37.6955 6.78685C37.7089 6.8532 37.7008 6.9221 37.6723 6.98354C37.6439 7.04497 37.5966 7.09574 37.5374 7.12847C37.4781 7.1612 37.41 7.17419 37.3428 7.16554C35.6668 6.94177 33.9776 6.83215 32.2868 6.83744C20.7535 6.83744 12.4584 11.6046 12.4584 20.6879C12.4584 30.4059 20.6724 33.694 28.2239 36.6228C31.2231 37.7818 34.0547 38.8838 35.9805 40.3308C36.02 40.3605 36.0521 40.399 36.0741 40.4433C36.0962 40.4875 36.1077 40.5363 36.1077 40.5858C36.1077 40.6352 36.0962 40.684 36.0741 40.7282C36.0521 40.7725 36.02 40.811 35.9805 40.8407L35.9752 40.8425ZM44.8462 21.0213C44.8384 20.9368 44.7977 20.8587 44.733 20.8038C40.1182 16.97 36.3862 15.4116 31.8517 15.4116C24.351 15.4116 24.6969 20.0629 24.6969 20.193C24.6969 23.9911 29.3384 25.7207 34.7127 27.7259C37.4828 28.7592 40.3465 29.8273 42.9757 31.2859C43.0152 31.307 43.0587 31.3196 43.1033 31.3228C43.148 31.326 43.1928 31.3197 43.2349 31.3044C43.2769 31.2891 43.3153 31.2651 43.3475 31.2339C43.3796 31.2028 43.4048 31.1652 43.4215 31.1236C44.6742 27.9124 45.162 24.4537 44.8462 21.0213Z" fill="black"/>
</g>
<defs>
<clipPath id="clip0_201_6513">
<rect width="45.648" height="45.648" fill="white" transform="translate(0 0.239929)"/>
</clipPath>
</defs>
</svg>
