<svg width="41" height="46" viewBox="0 0 41 46" fill="none" xmlns="http://www.w3.org/2000/svg">
<g clip-path="url(#clip0_201_6515)">
<path d="M35.2691 9.52106C35.2554 9.42522 35.2088 9.33715 35.1372 9.27204C35.0656 9.20693 34.9735 9.16887 34.8768 9.16443C34.6985 9.16443 31.5575 9.09311 31.5575 9.09311C31.5575 9.09311 29.6308 7.23687 28.9167 6.52273V45.1033L40.1227 42.3216C40.1227 42.3216 35.3047 9.73503 35.2691 9.52106ZM26.3829 6.52273C26.2117 5.98275 25.9967 5.45766 25.74 4.95269C24.8092 3.16867 23.4202 2.20133 21.7779 2.20133C21.658 2.19716 21.538 2.20916 21.4213 2.23699C21.3856 2.16567 21.3143 2.13 21.2787 2.05868C20.5654 1.27678 19.6382 0.920154 18.5309 0.953142C16.3911 1.02447 14.2514 2.55795 12.5351 5.30664C11.3217 7.2342 10.3954 9.66103 10.1439 11.5529C7.68144 12.3018 5.96875 12.8377 5.93309 12.8733C4.6849 13.2656 4.64835 13.3013 4.50659 14.4781C4.3996 15.3697 1.11865 40.4957 1.11865 40.4957L28.0955 45.1746V6.09478C27.9642 6.09972 27.8333 6.11163 27.7033 6.13044C27.7033 6.13044 27.204 6.27309 26.3829 6.52273ZM21.4579 8.058C20.0314 8.48595 18.4595 8.98523 16.9252 9.44973C17.3531 7.77181 18.2099 6.09478 19.2093 4.99192C19.6016 4.59963 20.1375 4.13513 20.7437 3.84983C21.3509 5.131 21.4935 6.88025 21.4579 8.058ZM18.5309 2.41887C18.9804 2.4047 19.4252 2.51451 19.8165 2.73627C19.2459 3.02157 18.6744 3.48607 18.1395 4.02101C16.7834 5.48495 15.7483 7.76557 15.3203 9.94544C14.0347 10.3386 12.75 10.7309 11.5758 11.0875C12.3568 7.66482 15.2472 2.4902 18.5309 2.41887ZM14.3913 22.0484C14.534 24.3317 20.5654 24.8319 20.922 30.2205C21.1717 34.4679 18.6735 37.3583 15.0689 37.5732C10.7154 37.8585 8.32426 35.289 8.32426 35.289L9.25148 31.3661C9.25148 31.3661 11.6427 33.1867 13.5702 33.044C14.8184 32.9727 15.2838 31.9376 15.2472 31.2235C15.0689 28.226 10.1439 28.4043 9.82298 23.4794C9.53767 19.3389 12.2498 15.1638 18.2456 14.7706C20.5636 14.6279 21.7432 15.1994 21.7432 15.1994L20.3871 20.3348C20.3871 20.3348 18.8527 19.6216 17.0321 19.7642C14.3913 19.9434 14.3557 21.6196 14.3913 22.0484ZM22.8853 7.62916C22.8853 6.55929 22.7426 5.02402 22.2424 3.73927C23.8847 4.06024 24.6693 5.87902 25.0268 6.98724C24.3843 7.16555 23.6704 7.37952 22.8853 7.62916Z" fill="black"/>
</g>
<defs>
<clipPath id="clip0_201_6515">
<rect width="39.942" height="45.648" fill="white" transform="translate(0.647949 0.239929)"/>
</clipPath>
</defs>
</svg>
