<svg width="41" height="47" viewBox="0 0 41 47" fill="none" xmlns="http://www.w3.org/2000/svg">
<g clip-path="url(#clip0_201_6509)">
<path d="M40.6295 40.623L27.5414 27.3566C29.3245 24.8691 30.3854 21.8111 30.3854 18.5123C30.3854 10.2118 23.7255 3.45381 15.5409 3.45381C7.34747 3.44489 0.6875 10.2029 0.6875 18.5034C0.6875 26.8038 7.34747 33.5619 15.532 33.5619C19.0804 33.5619 22.3346 32.2958 24.8934 30.1828L37.9102 43.3869L40.6295 40.623ZM15.532 30.0848C9.23758 30.0848 4.1111 24.887 4.1111 18.5034C4.1111 12.1198 9.23758 6.92198 15.532 6.92198C21.8264 6.92198 26.9529 12.1198 26.9529 18.5034C26.9529 24.887 21.8354 30.0848 15.532 30.0848Z" fill="black"/>
</g>
<defs>
<clipPath id="clip0_201_6509">
<rect width="39.942" height="45.648" fill="white" transform="translate(0.6875 0.591919)"/>
</clipPath>
</defs>
</svg>
