<svg width="41" height="47" viewBox="0 0 41 47" fill="none" xmlns="http://www.w3.org/2000/svg">
<g clip-path="url(#clip0_201_6507)">
<path d="M0.745605 3.44489L6.96069 14.0322L1.71295 13.0051L7.93962 21.121C7.66948 22.6381 7.66948 24.191 7.93962 25.7081L1.71295 33.824L6.96069 32.7969L0.745605 43.3869L11.3329 37.1718L10.3058 42.4195L18.4217 36.1929C19.9392 36.4639 21.4949 36.4639 23.0115 36.1929L31.1274 42.4195L30.1003 37.1718L40.6876 43.3869L34.4725 32.7969L39.7203 33.824L33.4936 25.7081C33.7637 24.1915 33.7646 22.6375 33.4936 21.121L39.7203 13.0051L34.4725 14.0322L40.6876 3.44489L30.1003 9.65997L31.1274 4.40866L23.0088 10.638C22.251 10.5025 21.4842 10.4338 20.7166 10.4338C19.949 10.4338 19.1822 10.5034 18.4244 10.638L10.3058 4.40866L11.3329 9.65997L0.745605 3.44489ZM20.7166 12.3409C23.5518 12.3409 26.3869 13.4215 28.549 15.5835C32.8731 19.9076 32.8722 26.9251 28.549 31.2483C24.2258 35.5714 17.2083 35.5688 12.8842 31.2456C8.56015 26.9215 8.56104 19.904 12.8842 15.5808C15.0454 13.4188 17.8814 12.3409 20.7166 12.3409ZM20.7166 15.6094C18.7177 15.6094 16.7197 16.369 15.196 17.8927C12.1487 20.94 12.1478 25.8882 15.196 28.9364C18.2443 31.9847 23.1889 31.9838 26.2372 28.9364C29.2845 25.8891 29.2854 20.9409 26.2372 17.8927C24.7135 16.369 22.7155 15.6094 20.7166 15.6094Z" fill="black"/>
</g>
<defs>
<clipPath id="clip0_201_6507">
<rect width="39.942" height="45.648" fill="white" transform="translate(0.745605 0.591919)"/>
</clipPath>
</defs>
</svg>
