<svg width="46" height="47" viewBox="0 0 46 47" fill="none" xmlns="http://www.w3.org/2000/svg">
<g clip-path="url(#clip0_201_6505)">
<path d="M2.5488 15.053L0.899414 17.273H8.96805L9.58323 5.6203L2.5488 15.053ZM35.4296 4.66633L23.9641 3.44489L36.0626 16.5687L35.4296 4.66633ZM10.1003 20.0547L9.10179 18.0933H0.979655L21.0309 41.4254L10.1003 20.0547ZM10.2786 17.273H35.599L28.3328 9.38269L22.9478 3.53404L10.2786 17.273ZM36.7848 18.0843L24.8468 41.4254L44.8891 18.0933H36.7848V18.0843ZM37.1325 6.74367L36.2944 5.6203L36.3747 7.1627L36.9185 17.273H44.9693L37.1325 6.74367ZM10.2162 8.92799L9.80612 16.5598L21.9135 3.44489L10.448 4.66633L10.2162 8.92799ZM35.8665 18.0843H10.0112L13.7914 25.4754L22.9478 43.3869L35.8665 18.0843Z" fill="black"/>
</g>
<defs>
<clipPath id="clip0_201_6505">
<rect width="45.648" height="45.648" fill="white" transform="translate(0.0976562 0.591919)"/>
</clipPath>
</defs>
</svg>
