<svg width="58" height="47" viewBox="0 0 58 47" fill="none" xmlns="http://www.w3.org/2000/svg">
<g clip-path="url(#clip0_201_6503)">
<path d="M57.0976 29.951C57.0976 35.8264 52.4169 40.1505 46.6217 40.1505C31.8307 40.1505 29.0936 17.8882 14.5522 17.8882C1.45518 17.8882 1.43735 36.8072 15.0515 36.8072C18.8406 36.8072 23.1558 35.2202 26.2228 33.018C26.7221 32.6525 27.7295 31.5648 28.2555 31.5648C28.7816 31.5648 29.2273 32.0106 29.2273 32.5366C29.2273 33.232 28.0594 34.2395 27.5601 34.6852C23.9136 37.8592 18.6178 40.1416 13.7677 40.1416C6.33203 40.1505 0.0375977 34.8814 0.0375977 27.2229C0.0375977 19.5643 6.05564 13.9297 13.6607 13.9297C30.1813 13.9297 33.4979 35.8532 45.9263 35.8532C54.833 35.8532 54.3783 23.3981 46.2294 23.3981C44.6692 23.3981 43.109 24.4323 42.048 24.4323C41.2991 24.4323 40.6304 23.7903 40.6304 23.0414C40.6304 22.0072 41.103 20.9284 41.103 19.8051C41.103 13.8673 36.5649 9.57885 30.6806 9.57885C25.9464 9.57885 23.5481 12.8687 22.7635 12.8687C22.2108 12.8687 21.765 12.4229 21.765 11.8702C21.765 11.3709 22.1305 10.9519 22.4604 10.5863C24.716 8.01861 28.2288 6.69019 31.6256 6.69019C38.7047 6.69019 44.0273 11.8969 44.0273 18.9759C44.0273 19.5911 44.0005 20.1974 43.9203 20.8125C44.9813 20.5361 46.069 20.3935 47.121 20.3935C52.5328 20.3935 57.0976 24.4323 57.0976 29.951Z" fill="black"/>
</g>
<defs>
<clipPath id="clip0_201_6503">
<rect width="57.06" height="45.648" fill="white" transform="translate(0.0375977 0.591919)"/>
</clipPath>
</defs>
</svg>
