<svg width="41" height="47" viewBox="0 0 41 47" fill="none" xmlns="http://www.w3.org/2000/svg">
<g clip-path="url(#clip0_201_6501)">
<path d="M37.9604 27.3209C38.2189 26.0727 38.3794 24.7442 38.3794 23.4158C38.3794 13.2966 30.1859 5.11205 20.0756 5.11205C18.7472 5.11205 17.4277 5.26361 16.1706 5.53108C14.4766 4.22048 12.3725 3.44482 10.0812 3.44482C4.57135 3.44482 0.0957031 7.92047 0.0957031 13.4303C0.0957031 15.7216 0.871362 17.8257 2.17304 19.5108C1.91449 20.759 1.75401 22.0874 1.75401 23.4158C1.75401 33.5351 9.94747 41.7196 20.0578 41.7196C21.3862 41.7196 22.7057 41.568 23.9628 41.3006C25.6568 42.6022 27.7609 43.3779 30.0433 43.3779C35.5531 43.3779 40.0288 38.9023 40.0288 33.3924C40.0377 31.11 39.262 29.0059 37.9604 27.3209ZM20.6106 35.4787C14.7619 35.4787 9.86723 32.8753 9.86723 29.6835C9.86723 28.257 10.6696 26.9553 12.4973 26.9553C15.279 26.9553 15.5376 30.9584 20.352 30.9584C22.6433 30.9584 24.1233 29.9421 24.1233 28.6136C24.1233 26.9464 22.6968 26.6879 20.3787 26.1173C14.8065 24.7442 9.87614 24.1558 9.87614 18.3428C9.87614 13.0648 15.1007 11.1123 19.6031 11.1123C24.5156 11.1123 29.4816 13.0648 29.4816 16.0515C29.4816 17.5583 28.4652 18.8867 26.7802 18.8867C24.257 18.8867 24.1768 15.9 20.0934 15.9C17.8021 15.9 16.3489 16.524 16.3489 17.906C16.3489 19.6713 18.2033 19.8496 22.5096 20.8481C26.2006 21.6773 30.5961 23.2375 30.5961 27.7666C30.5961 33.0358 25.5052 35.4787 20.6106 35.4787Z" fill="black"/>
</g>
<defs>
<clipPath id="clip0_201_6501">
<rect width="39.942" height="45.648" fill="white" transform="translate(0.0957031 0.591919)"/>
</clipPath>
</defs>
</svg>
