<svg width="41" height="47" viewBox="0 0 41 47" fill="none" xmlns="http://www.w3.org/2000/svg">
<g clip-path="url(#clip0_201_6497)">
<path d="M8.60281 28.685C8.60281 30.9942 6.71626 32.8807 4.40712 32.8807C2.09797 32.8807 0.211426 30.9942 0.211426 28.685C0.211426 26.3759 2.09797 24.4893 4.40712 24.4893H8.60281V28.685ZM10.7176 28.685C10.7176 26.3759 12.6041 24.4893 14.9133 24.4893C17.2224 24.4893 19.109 26.3759 19.109 28.685V39.1912C19.109 41.5003 17.2224 43.3869 14.9133 43.3869C12.6041 43.3869 10.7176 41.5003 10.7176 39.1912V28.685ZM14.9133 11.8363C12.6041 11.8363 10.7176 9.94972 10.7176 7.64058C10.7176 5.33143 12.6041 3.44489 14.9133 3.44489C17.2224 3.44489 19.109 5.33143 19.109 7.64058V11.8363H14.9133ZM14.9133 13.9511C17.2224 13.9511 19.109 15.8376 19.109 18.1467C19.109 20.4559 17.2224 22.3424 14.9133 22.3424H4.40712C2.09797 22.3424 0.211426 20.4559 0.211426 18.1467C0.211426 15.8376 2.09797 13.9511 4.40712 13.9511H14.9133ZM31.762 18.1467C31.762 15.8376 33.6486 13.9511 35.9577 13.9511C38.2669 13.9511 40.1534 15.8376 40.1534 18.1467C40.1534 20.4559 38.2669 22.3424 35.9577 22.3424H31.762V18.1467ZM29.6472 18.1467C29.6472 20.4559 27.7607 22.3424 25.4516 22.3424C23.1424 22.3424 21.2559 20.4559 21.2559 18.1467V7.64058C21.2559 5.33143 23.1424 3.44489 25.4516 3.44489C27.7607 3.44489 29.6472 5.33143 29.6472 7.64058V18.1467ZM25.4516 34.9955C27.7607 34.9955 29.6472 36.882 29.6472 39.1912C29.6472 41.5003 27.7607 43.3869 25.4516 43.3869C23.1424 43.3869 21.2559 41.5003 21.2559 39.1912V34.9955H25.4516ZM25.4516 32.8807C23.1424 32.8807 21.2559 30.9942 21.2559 28.685C21.2559 26.3759 23.1424 24.4893 25.4516 24.4893H35.9577C38.2669 24.4893 40.1534 26.3759 40.1534 28.685C40.1534 30.9942 38.2669 32.8807 35.9577 32.8807H25.4516Z" fill="black"/>
</g>
<defs>
<clipPath id="clip0_201_6497">
<rect width="39.942" height="45.648" fill="white" transform="translate(0.21167 0.591919)"/>
</clipPath>
</defs>
</svg>
