<svg width="47" height="47" viewBox="0 0 47 47" fill="none" xmlns="http://www.w3.org/2000/svg">
<g clip-path="url(#clip0_201_6495)">
<path d="M17.2975 14.2952C14.2662 14.2952 11.7966 16.5865 11.7966 19.4395C11.7966 22.2658 14.2662 24.5839 17.2975 24.5839C20.3288 24.5839 22.7985 22.2658 22.7985 19.4395C22.7985 16.5865 20.3288 14.2952 17.2975 14.2952ZM30.0825 14.2952C27.0512 14.2952 24.5816 16.5865 24.5816 19.4395C24.5816 22.2658 27.0512 24.5839 30.0825 24.5839C33.1406 24.5839 35.5835 22.2658 35.5835 19.4395C35.5924 16.5865 33.1406 14.2952 30.0825 14.2952ZM44.0444 22.3193L43.5095 22.7027V5.02298C43.5095 2.5801 41.6728 0.591919 39.4083 0.591919H7.39226C5.12769 0.591919 3.29107 2.5801 3.29107 5.02298V22.7027C3.11276 22.5778 2.9077 22.4441 2.72939 22.3193C1.38313 21.3742 0.491567 22.6759 1.30289 23.8974C2.93445 25.9123 6.03708 28.3819 10.7802 30.3166C5.7607 47.4079 23.0303 50.136 22.7539 41.3809C22.7539 41.3185 22.7806 36.3347 22.7806 32.7684C23.2353 32.8665 23.6187 32.9735 24.0021 33.0448C24.0021 36.5843 24.0288 41.3185 24.0288 41.3809C23.7524 50.145 41.022 47.4168 36.0025 30.3255C40.7367 28.3908 43.8482 25.9212 45.4798 23.9063C46.2911 22.6759 45.3996 21.3832 44.0444 22.3193ZM41.3251 24.0311C35.1823 27.3655 29.8864 26.8039 27.0066 26.679C24.8936 26.5988 24.1001 27.4904 24.0021 28.899C23.0838 28.2125 22.3438 27.5171 22.1922 27.3745C21.7375 26.893 20.9708 26.6612 19.7761 26.688C16.9498 26.786 11.7787 27.3477 5.74287 24.1916V7.03791C5.74287 3.92636 6.53636 2.96347 9.36261 2.96347H37.6875C40.389 2.96347 41.334 4.11359 41.334 7.03791V24.0311H41.3251Z" fill="black"/>
</g>
<defs>
<clipPath id="clip0_201_6495">
<rect width="45.648" height="45.648" fill="white" transform="translate(0.563721 0.591919)"/>
</clipPath>
</defs>
</svg>
