<svg width="45" height="47" viewBox="0 0 45 47" fill="none" xmlns="http://www.w3.org/2000/svg">
<g clip-path="url(#clip0_201_6489)">
<path d="M22.8629 1.30511C10.6485 1.30511 0.752197 11.2015 0.752197 23.4159C0.752197 35.6303 10.6485 45.5266 22.8629 45.5266C35.0773 45.5266 44.9737 35.6303 44.9737 23.4159C44.9737 11.2015 35.0773 1.30511 22.8629 1.30511ZM37.9749 31.5202C37.6629 32.2423 36.3612 32.7683 33.9807 33.1428C33.8559 33.3122 33.7578 34.0165 33.5974 34.5604C33.4993 34.8903 33.2675 35.0864 32.8752 35.0864H32.8574C32.3046 35.0864 31.7162 34.8279 30.5571 34.8279C28.988 34.8279 28.4441 35.1845 27.2227 36.0493C25.9299 36.9676 24.6906 37.7522 22.8362 37.6719C20.9639 37.8146 19.3948 36.6734 18.5121 36.0493C17.2818 35.1845 16.7468 34.8279 15.1777 34.8279C14.0632 34.8279 13.3589 35.1042 12.8774 35.1042C12.396 35.1042 12.2088 34.81 12.1374 34.5693C11.977 34.0255 11.8789 33.3122 11.7541 33.1428C10.5237 32.9556 7.75988 32.4741 7.69747 31.2349C7.67964 30.9139 7.90253 30.6286 8.22349 30.5751C12.3514 29.8975 14.2059 25.6626 14.2861 25.4843C14.2861 25.4754 14.295 25.4665 14.3039 25.4575C14.5268 25.0118 14.5714 24.6373 14.4466 24.3431C14.1435 23.6387 12.8507 23.3891 12.3068 23.1662C10.8982 22.6135 10.702 21.9715 10.7912 21.5347C10.9338 20.7768 12.075 20.3043 12.7437 20.6164C13.2697 20.866 13.7423 20.9908 14.1435 20.9908C14.4377 20.9908 14.6338 20.9195 14.7319 20.866C14.6071 18.7352 14.3129 15.6949 15.0707 13.992C17.0767 9.50749 21.3205 9.15086 22.5687 9.15086C22.6222 9.15086 23.1126 9.14195 23.1661 9.14195C26.2598 9.14195 29.2287 10.7289 30.6819 13.9831C31.4398 15.686 31.1456 18.7173 31.0207 20.8571C31.1188 20.9106 31.2793 20.973 31.5289 20.9819C31.9123 20.9641 32.3492 20.8392 32.8395 20.6074C33.1961 20.438 33.6954 20.4648 34.052 20.6074C34.6137 20.8125 34.9704 21.2137 34.9793 21.6684C34.9882 22.2479 34.4711 22.7472 33.4458 23.1484C33.321 23.2019 33.1694 23.2465 33.0089 23.3C32.4294 23.4872 31.5468 23.7636 31.315 24.3253C31.1901 24.6195 31.2436 24.9939 31.4576 25.4397C31.4665 25.4486 31.4665 25.4575 31.4754 25.4665C31.5557 25.6448 33.4101 29.8797 37.5381 30.5573C37.8947 30.6464 38.1711 31.0476 37.9749 31.5202Z" fill="black"/>
</g>
<defs>
<clipPath id="clip0_201_6489">
<rect width="44.2215" height="45.648" fill="white" transform="translate(0.752197 0.591919)"/>
</clipPath>
</defs>
</svg>
