<svg width="47" height="47" viewBox="0 0 47 47" fill="none" xmlns="http://www.w3.org/2000/svg">
<g clip-path="url(#clip0_201_6493)">
<path d="M46.4611 35.6011C45.9965 36.685 44.0325 37.4813 40.4555 38.0367C40.2715 38.2851 40.1189 39.346 39.8754 40.1725C39.7305 40.6688 39.374 40.9633 38.7941 40.9633L38.7676 40.9628C37.93 40.9628 37.0555 40.5774 35.3037 40.5774C32.9392 40.5774 32.1242 41.1162 30.2883 42.4129C28.3418 43.7893 26.475 44.9774 23.6883 44.8557C20.8669 45.0638 18.515 43.3483 17.1914 42.4125C15.3446 41.107 14.5321 40.5775 12.1772 40.5775C10.4953 40.5775 9.43689 40.9983 8.71329 40.9983C7.99354 40.9983 7.71359 40.5595 7.6058 40.1923C7.36481 39.3731 7.21315 38.2966 7.02423 38.041C5.18057 37.7549 1.02312 37.0296 0.917206 35.1746C0.904368 34.9415 0.978043 34.7119 1.1241 34.5297C1.27016 34.3476 1.47832 34.2258 1.70865 34.1877C7.9124 33.1665 10.7066 26.7966 10.8228 26.5262C10.8294 26.5105 10.8366 26.4955 10.844 26.4803C11.175 25.8083 11.2491 25.2455 11.0635 24.8083C10.6133 23.7477 8.66774 23.3672 7.84919 23.0434C5.73485 22.2083 5.44064 21.2488 5.56572 20.5912C5.783 19.4468 7.50264 18.7426 8.50806 19.2135C9.30324 19.5863 10.0097 19.7749 10.6074 19.7749C11.0552 19.7749 11.3396 19.6676 11.4954 19.5814C11.3133 16.3774 10.8623 11.7989 12.0024 9.242C15.0135 2.49127 21.3956 1.96668 23.2787 1.96668C23.3628 1.96668 24.0936 1.95874 24.18 1.95874C28.8293 1.95874 33.2966 4.34634 35.4782 9.23772C36.6173 11.792 36.169 16.3517 35.9859 19.5806C36.127 19.6584 36.3744 19.7538 36.7526 19.7714C37.3229 19.7459 37.9843 19.5584 38.7202 19.2135C39.2627 18.9598 40.0046 18.9941 40.5461 19.2187L40.5487 19.2196C41.3935 19.5214 41.9252 20.1303 41.9385 20.8128C41.9549 21.6818 41.1787 22.4323 39.6313 23.0433C39.4425 23.1177 39.2128 23.1908 38.9686 23.2684C38.0951 23.5453 36.7753 23.9643 36.4173 24.8082C36.2319 25.2455 36.3053 25.8078 36.6366 26.4797C36.6443 26.4947 36.6514 26.5102 36.6579 26.5257C36.7739 26.7958 39.5657 33.1642 45.7723 34.1872C46.3453 34.2815 46.7676 34.8895 46.4611 35.6011Z" fill="black"/>
</g>
<defs>
<clipPath id="clip0_201_6493">
<rect width="45.648" height="45.648" fill="white" transform="translate(0.915771 0.591919)"/>
</clipPath>
</defs>
</svg>
