<svg width="41" height="47" viewBox="0 0 41 47" fill="none" xmlns="http://www.w3.org/2000/svg">
<g clip-path="url(#clip0_201_6491)">
<path d="M36.6364 3.44489H5.25338C2.89074 3.44489 0.973877 5.36174 0.973877 7.72438V39.1074C0.973877 41.47 2.89074 43.3869 5.25338 43.3869H36.6364C38.999 43.3869 40.9159 41.47 40.9159 39.1074V7.72438C40.9159 5.36174 38.999 3.44489 36.6364 3.44489ZM36.0569 31.5202C35.7448 32.2423 34.4431 32.7684 32.0627 33.1428C31.9378 33.3122 31.8398 34.0166 31.6793 34.5604C31.5812 34.8903 31.3494 35.0864 30.9571 35.0864H30.9393C30.3865 35.0864 29.7981 34.8279 28.6391 34.8279C27.0699 34.8279 26.5261 35.1845 25.3046 36.0493C24.0118 36.9676 22.7726 37.7522 20.9181 37.672C19.0458 37.8146 17.4767 36.6734 16.594 36.0493C15.3637 35.1845 14.8288 34.8279 13.2596 34.8279C12.1452 34.8279 11.4408 35.1043 10.9594 35.1043C10.4779 35.1043 10.2907 34.81 10.2194 34.5693C10.0589 34.0255 9.96082 33.3122 9.83601 33.1428C8.60565 32.9556 5.84181 32.4742 5.7794 31.2349C5.76157 30.9139 5.98446 30.6286 6.30542 30.5751C10.4334 29.8975 12.2878 25.6626 12.368 25.4843C12.368 25.4754 12.377 25.4665 12.3859 25.4576C12.6088 25.0118 12.6533 24.6373 12.5285 24.3431C12.2254 23.6388 10.9326 23.3891 10.3888 23.1662C8.98011 22.6135 8.78396 21.9715 8.87312 21.5347C9.01577 20.7769 10.157 20.3043 10.8256 20.6164C11.3517 20.866 11.8242 20.9908 12.2254 20.9908C12.5196 20.9908 12.7158 20.9195 12.8138 20.866C12.689 18.7352 12.3948 15.695 13.1526 13.9921C15.1586 9.50751 19.4025 9.15088 20.6507 9.15088C20.7042 9.15088 21.1945 9.14197 21.248 9.14197C24.3417 9.14197 27.3106 10.7289 28.7639 13.9832C29.5217 15.686 29.2275 18.7173 29.1027 20.8571C29.2007 20.9106 29.3612 20.973 29.6109 20.9819C29.9942 20.9641 30.4311 20.8393 30.9215 20.6075C31.2781 20.4381 31.7774 20.4648 32.134 20.6075C32.6957 20.8125 33.0523 21.2137 33.0612 21.6684C33.0701 22.2479 32.553 22.7472 31.5277 23.1484C31.4029 23.2019 31.2513 23.2465 31.0909 23.3C30.5113 23.4872 29.6287 23.7636 29.3969 24.3253C29.2721 24.6195 29.3256 24.9939 29.5395 25.4397C29.5484 25.4486 29.5485 25.4576 29.5574 25.4665C29.6376 25.6448 31.4921 29.8797 35.62 30.5573C35.9766 30.6465 36.253 31.0477 36.0569 31.5202Z" fill="black"/>
</g>
<defs>
<clipPath id="clip0_201_6491">
<rect width="39.942" height="45.648" fill="white" transform="translate(0.973633 0.591919)"/>
</clipPath>
</defs>
</svg>
