<svg width="46" height="47" viewBox="0 0 46 47" fill="none" xmlns="http://www.w3.org/2000/svg">
<g clip-path="url(#clip0_201_6479)">
<path d="M23.0495 1.30511C10.844 1.30511 0.938721 11.2104 0.938721 23.4159C0.938721 35.6213 10.844 45.5266 23.0495 45.5266C35.255 45.5266 45.1602 35.6213 45.1602 23.4159C45.1602 11.2104 35.255 1.30511 23.0495 1.30511ZM32.0275 33.8382C31.653 33.8382 31.4212 33.7223 31.0735 33.5173C25.5102 30.165 19.0374 30.0223 12.6449 31.3329C12.2972 31.4221 11.8425 31.5647 11.584 31.5647C10.7192 31.5647 10.1753 30.8782 10.1753 30.1561C10.1753 29.2378 10.7192 28.8009 11.3878 28.6582C18.6897 27.0445 26.1521 27.1872 32.5179 30.9941C33.0617 31.3418 33.3827 31.6539 33.3827 32.4652C33.3827 33.2765 32.7497 33.8382 32.0275 33.8382ZM34.4258 27.9896C33.9622 27.9896 33.6501 27.7845 33.3292 27.6151C27.7569 24.3163 19.4476 22.9879 12.0565 24.9939C11.6286 25.1098 11.3967 25.2257 10.9955 25.2257C10.0416 25.2257 9.26591 24.4501 9.26591 23.4961C9.26591 22.5421 9.72952 21.9091 10.6478 21.6506C13.1264 20.9551 15.6584 20.438 19.3673 20.438C25.1536 20.438 30.7436 21.8735 35.148 24.4946C35.8701 24.9226 36.1554 25.4754 36.1554 26.251C36.1465 27.2139 35.3976 27.9896 34.4258 27.9896ZM37.1896 21.1959C36.726 21.1959 36.4407 21.08 36.0395 20.8482C29.6916 17.059 18.342 16.1496 10.9955 18.2002C10.6746 18.2894 10.2734 18.432 9.84543 18.432C8.66857 18.432 7.76809 17.5137 7.76809 16.3279C7.76809 15.1154 8.517 14.4289 9.31941 14.1971C12.4577 13.2788 15.9705 12.8419 19.7953 12.8419C26.3037 12.8419 33.1241 14.1971 38.108 17.1036C38.8034 17.5048 39.2581 18.0576 39.2581 19.1185C39.2581 20.3311 38.2773 21.1959 37.1896 21.1959Z" fill="black"/>
</g>
<defs>
<clipPath id="clip0_201_6479">
<rect width="44.2215" height="45.648" fill="white" transform="translate(0.938721 0.591919)"/>
</clipPath>
</defs>
</svg>
