<svg width="46" height="47" viewBox="0 0 46 47" fill="none" xmlns="http://www.w3.org/2000/svg">
<g clip-path="url(#clip0_201_6477)">
<path d="M16.885 31.2028C16.0246 32.0631 16.0246 33.4576 16.885 34.3179C17.7453 35.1783 19.1397 35.1783 20.0001 34.3179L34.0137 20.3043C35.7335 18.5845 38.5223 18.5845 40.2421 20.3043C41.962 22.0242 41.962 24.813 40.2421 26.5328L26.4987 40.2753C28.2167 41.9952 31.0038 41.9969 32.7236 40.2789L32.7271 40.2753L43.359 29.6443C46.7996 26.2038 46.7996 20.6271 43.359 17.1874C39.9185 13.7469 34.3409 13.7469 30.9021 17.1874L16.885 31.2028ZM38.6864 21.8592C37.826 20.9989 36.4316 20.9989 35.5721 21.8592L21.5568 35.8728C19.8387 37.5926 17.0517 37.5944 15.3319 35.8772L15.3274 35.8728C14.468 35.0133 13.0744 35.0124 12.2141 35.8719L12.2132 35.8728C11.3528 36.7323 11.3519 38.1267 12.2114 38.987L12.2132 38.9888C15.6528 42.4276 21.2305 42.4276 24.6701 38.9888L38.6855 24.9734C39.5458 24.1131 39.5458 22.7187 38.6864 21.8592ZM15.3283 29.6452L29.3419 15.6317C30.2014 14.7713 30.2014 13.3769 29.3419 12.5165C28.4824 11.6571 27.0889 11.6571 26.2294 12.5165L12.2132 26.5301C10.4943 28.2499 7.70545 28.2508 5.98563 26.531L5.98474 26.5301C4.26491 24.8112 4.26313 22.0242 5.98206 20.3034L5.98474 20.3008L19.73 6.55555C18.011 4.83572 15.2231 4.83483 13.5024 6.55377L13.5006 6.55555L2.87051 17.1874C-0.56914 20.628 -0.56914 26.2047 2.87051 29.6443C6.31194 33.0849 11.8869 33.0849 15.3283 29.6452ZM7.54229 24.9734C8.40176 25.8329 9.79527 25.8329 10.6547 24.9734L24.671 10.959C26.3899 9.23915 29.1778 9.23826 30.8977 10.9572L30.8994 10.959C31.7598 11.8193 33.1542 11.8193 34.0137 10.959C34.874 10.0986 34.874 8.70421 34.0137 7.84475C30.5731 4.40421 24.9973 4.40421 21.5568 7.84475L7.54229 21.8592C6.68194 22.7187 6.68194 24.1131 7.5414 24.9734H7.54229Z" fill="black"/>
</g>
<defs>
<clipPath id="clip0_201_6477">
<rect width="45.648" height="45.648" fill="white" transform="translate(0.290771 0.591919)"/>
</clipPath>
</defs>
</svg>
