<svg width="35" height="47" viewBox="0 0 35 47" fill="none" xmlns="http://www.w3.org/2000/svg">
<g clip-path="url(#clip0_201_6473)">
<path d="M26.031 28.3194L8.58312 24.6373L7.85204 28.1411L25.2999 31.7965L26.031 28.3194ZM30.578 20.5628L16.8925 9.12408L14.619 11.8701L28.3045 23.3088L30.578 20.5628ZM27.7963 24.1023L11.6323 16.5508L10.1434 19.805L26.2985 27.3387L27.7963 24.1023ZM23.4722 3.44482L20.6192 5.58457L31.2555 19.8763L34.1085 17.7366L23.4722 3.44482ZM25.2999 32.6881H7.46867V36.2276H25.2999V32.6881ZM28.8394 39.8206H3.92025V29.1218H0.354004V43.3868H32.4057V29.1218H28.8394V39.8206Z" fill="black"/>
</g>
<defs>
<clipPath id="clip0_201_6473">
<rect width="34.236" height="45.648" fill="white" transform="translate(0.112793 0.591919)"/>
</clipPath>
</defs>
</svg>
