<svg width="41" height="47" viewBox="0 0 41 47" fill="none" xmlns="http://www.w3.org/2000/svg">
<g clip-path="url(#clip0_201_6471)">
<path d="M21.9785 21.3117C21.9785 22.0696 21.5987 23.1385 20.0759 23.1385H18.3276V19.4412H20.0759C21.6032 19.4412 21.9785 20.5432 21.9785 21.3117ZM40.1129 3.44482V43.3868H0.170898V3.44482H40.1129ZM13.6602 26.2546C13.6602 24.3609 12.5797 23.1751 9.49486 22.2559C7.66091 21.5953 7.1768 21.2832 7.1768 20.5949C7.1768 19.9066 7.80089 19.2923 8.99647 19.2923C10.2527 19.2923 10.85 20.0457 10.85 20.9284H13.5871L13.6041 20.8775C13.6486 19.1328 12.2614 17.1642 9.0464 17.1642C6.96282 17.1642 4.36124 18.1226 4.36124 20.578C4.36124 22.3076 5.18594 23.3677 8.88503 24.5338C10.4239 25.0822 10.8384 25.4611 10.8384 26.2706C10.8384 27.6258 9.13288 27.5393 9.10257 27.5393C7.28378 27.5393 6.81571 26.728 6.81571 25.5868H4.0697L4.05365 25.6367C3.99303 28.4291 6.58391 29.6683 9.10257 29.6683C11.7755 29.6683 13.6602 28.4603 13.6602 26.2546ZM24.8386 21.2948C24.8386 19.0391 23.1955 17.2418 20.0759 17.2418H15.4594V29.5614H18.3276V25.3389H20.0759C22.7729 25.3389 24.8386 23.9169 24.8386 21.2948ZM26.7341 29.5676L31.1081 17.2444H28.3362L24.0648 29.5676H26.7341ZM36.231 17.2444H33.4592L29.1877 29.5676H31.857L36.231 17.2444Z" fill="black"/>
</g>
<defs>
<clipPath id="clip0_201_6471">
<rect width="39.942" height="45.648" fill="white" transform="translate(0.170898 0.591919)"/>
</clipPath>
</defs>
</svg>
