<svg width="41" height="47" viewBox="0 0 41 47" fill="none" xmlns="http://www.w3.org/2000/svg">
<g clip-path="url(#clip0_201_6469)">
<path d="M35.062 26.6701L35.3028 26.9108L20.1462 11.995C19.8342 11.6829 19.2814 11.6651 18.9159 11.9504L13.8072 15.8376C13.4327 16.1229 13.3971 16.6133 13.7091 16.9253L19.7807 22.6581C20.1016 22.9701 20.6633 22.9879 21.0289 22.7026L21.0378 22.6937C21.4033 22.4084 21.965 22.4263 22.286 22.7383L29.7751 29.9867C30.096 30.2988 30.0604 30.7891 29.6948 31.0744L21.3855 37.672C21.011 37.9662 20.4493 37.9484 20.1195 37.6363L6.57663 24.4858C6.26459 24.1737 5.71182 24.1559 5.33736 24.4412L1.25401 27.5527C0.87955 27.838 0.834972 28.3284 1.14702 28.6404L19.7539 46.124C19.7539 46.124 20.4137 46.7303 21.2963 46.0527L38.9493 31.44C39.3059 31.1547 39.3415 30.6643 39.0117 30.3522L35.062 26.6701ZM39.9211 19.2345L21.1537 0.814787C21.0199 0.7078 20.4404 0.324428 19.7004 0.912859L1.26292 15.3651C0.888466 15.6504 0.834972 16.1407 1.15593 16.4528L4.92724 20.1706L20.2354 34.8903C20.5652 35.2024 21.1358 35.2202 21.5103 34.926L25.9859 31.4667L25.9592 31.44L26.6457 30.905C27.0202 30.6197 27.0558 30.1294 26.7259 29.8173L21.6351 24.9672C21.3142 24.6552 20.7436 24.6373 20.3691 24.9226L20.3602 24.9315C19.9857 25.2169 19.424 25.2079 19.0942 24.8959L10.66 16.7113C10.339 16.3993 10.3836 15.9179 10.7581 15.6236L18.9783 9.24897C19.3438 8.96367 19.8966 8.9815 20.2175 9.29355L34.5182 23.4694C34.8481 23.7814 35.4098 23.7993 35.7753 23.514L39.8587 20.3222C40.2242 20.0369 40.2509 19.5465 39.9211 19.2345Z" fill="black"/>
</g>
<defs>
<clipPath id="clip0_201_6469">
<rect width="39.2287" height="45.648" fill="white" transform="translate(0.941895 0.591919)"/>
</clipPath>
</defs>
</svg>
