<svg width="41" height="47" viewBox="0 0 41 47" fill="none" xmlns="http://www.w3.org/2000/svg">
<g clip-path="url(#clip0_201_6465)">
<path d="M36.1773 16.7691C36.1773 19.7826 33.7255 22.2077 30.7388 22.2077C27.7253 22.2077 25.3002 19.7737 25.3002 16.7691C25.3002 13.7646 27.7342 11.3306 30.7388 11.3306C33.7255 11.3306 36.1773 13.7557 36.1773 16.7691ZM40.858 16.787C40.858 22.4038 36.311 26.9329 30.7209 26.9329L20.9762 34.0476C20.6195 37.8813 17.3653 40.8948 13.4425 40.8948C9.83164 40.8948 6.7825 38.3271 6.0425 34.9213L0.916016 32.8618V23.2954L9.582 26.7992C10.9283 25.979 12.4528 25.6134 14.2181 25.7739L20.5482 16.7067C20.5928 11.1523 25.1398 6.6499 30.712 6.6499C36.311 6.6499 40.858 11.1969 40.858 16.787ZM19.0147 33.3076C19.0147 30.2139 16.5362 27.7354 13.4425 27.7354C13.0413 27.7354 12.6401 27.7799 12.2389 27.8691L14.5569 28.8052C16.8304 29.7146 17.9449 32.2823 17.0265 34.5558C16.1172 36.8293 13.5316 37.9437 11.2581 37.0076C10.3487 36.651 9.43044 36.2676 8.52104 35.9199C9.45718 37.6763 11.3027 38.8799 13.4425 38.8799C16.5362 38.8799 19.0147 36.4013 19.0147 33.3076ZM37.5146 16.787C37.5146 13.0424 34.4566 9.99326 30.7209 9.99326C26.9496 9.99326 23.9005 13.0424 23.9005 16.787C23.9005 20.5494 26.9585 23.5807 30.7209 23.5807C34.4566 23.5896 37.5146 20.5583 37.5146 16.787Z" fill="black"/>
</g>
<defs>
<clipPath id="clip0_201_6465">
<rect width="39.942" height="45.648" fill="white" transform="translate(0.916016 0.94397)"/>
</clipPath>
</defs>
</svg>
