<svg width="40" height="47" viewBox="0 0 40 47" fill="none" xmlns="http://www.w3.org/2000/svg">
<g clip-path="url(#clip0_201_6467)">
<path d="M16.5117 32.3761C17.1982 30.7267 16.4226 28.8366 14.7643 28.1501L12.1342 27.0624C13.1505 26.679 14.3007 26.6612 15.3794 27.1069C16.4672 27.5616 17.3052 28.4086 17.7599 29.4874C18.2057 30.5751 18.2057 31.7698 17.751 32.8486C16.8149 35.0864 14.2383 36.1474 11.9915 35.2113C10.9573 34.7833 10.1727 33.9987 9.72694 33.0537L12.2679 34.1057C13.9262 34.8011 15.8252 34.0255 16.5117 32.3761ZM35.6625 3.44489H4.2795C1.91686 3.44489 0 5.36174 0 7.72438V22.0518L10.3956 26.3402C11.4655 25.6091 12.7315 25.2614 14.0243 25.3327L18.9635 18.1824V18.0843C18.9635 13.787 22.4674 10.2832 26.7736 10.2832C31.0799 10.2832 34.5837 13.787 34.5837 18.0843C34.5837 22.4708 30.9372 25.9925 26.5953 25.8855L19.552 30.905C19.6946 34.3375 16.9575 37.039 13.6944 37.039C10.8592 37.039 8.47876 35.0151 7.94382 32.3404L0 29.0506V39.1074C0 41.47 1.91686 43.3869 4.2795 43.3869H35.6625C38.0251 43.3869 39.942 41.47 39.942 39.1074V7.72438C39.942 5.36174 38.0251 3.44489 35.6625 3.44489ZM26.7736 23.2821C23.9028 23.2821 21.5669 20.9552 21.5669 18.0843C21.5669 15.2135 23.9028 12.8865 26.7736 12.8865C29.6444 12.8865 31.9803 15.2224 31.9803 18.0843C31.9803 20.9463 29.6444 23.2821 26.7736 23.2821ZM26.7825 21.9805C28.9401 21.9805 30.6965 20.233 30.6965 18.0754C30.6965 15.9178 28.949 14.1704 26.7825 14.1704C24.625 14.1704 22.8686 15.9178 22.8686 18.0754C22.8686 20.233 24.625 21.9805 26.7825 21.9805Z" fill="black"/>
</g>
<defs>
<clipPath id="clip0_201_6467">
<rect width="39.942" height="45.648" fill="white" transform="translate(0 0.591919)"/>
</clipPath>
</defs>
</svg>
