<svg width="45" height="47" viewBox="0 0 45 47" fill="none" xmlns="http://www.w3.org/2000/svg">
<g clip-path="url(#clip0_201_6463)">
<path d="M44.9161 23.7679C44.9161 35.9823 35.0019 45.8787 22.7697 45.8787C12.6237 45.8787 4.08252 39.076 1.46132 29.7949L9.949 33.2987C10.5196 36.1606 13.0605 38.3271 16.0919 38.3271C19.5868 38.3271 22.5022 35.4385 22.3506 31.7741L29.8843 26.4069C34.5294 26.5228 38.4255 22.7604 38.4255 18.0708C38.4255 13.4704 34.6809 9.73472 30.0716 9.73472C25.4622 9.73472 21.7176 13.4793 21.7176 18.0708V18.1778L16.4396 25.8185C15.0576 25.7383 13.7025 26.1216 12.5613 26.8973L0.69458 21.9937C1.60397 10.6085 11.1348 1.65717 22.7697 1.65717C35.0019 1.65717 44.9161 11.5535 44.9161 23.7679ZM14.5762 35.2067L11.8569 34.0833C12.3566 35.1209 13.2194 35.9393 14.282 36.3835C16.6803 37.3821 19.4352 36.2409 20.4338 33.8515C20.9152 32.6924 20.9241 31.4175 20.4427 30.2585C19.9612 29.0995 19.0608 28.1901 17.9017 27.7086C16.7516 27.2272 15.5213 27.245 14.4336 27.6551L17.242 28.8142C19.0073 29.5452 19.8453 31.5691 19.1053 33.3344C18.3653 35.1086 16.3415 35.9377 14.5762 35.2067ZM30.0716 23.6253C27.0046 23.6253 24.5082 21.1289 24.5082 18.0708C24.5082 15.0128 27.0046 12.5164 30.0716 12.5164C33.1385 12.5164 35.6349 15.0128 35.6349 18.0708C35.6349 21.1289 33.1474 23.6253 30.0716 23.6253ZM30.0805 22.2344C32.3896 22.2344 34.2619 20.3621 34.2619 18.0619C34.2619 15.7528 32.3896 13.8894 30.0805 13.8894C27.7713 13.8894 25.899 15.7617 25.899 18.0619C25.908 20.3621 27.7802 22.2344 30.0805 22.2344Z" fill="black"/>
</g>
<defs>
<clipPath id="clip0_201_6463">
<rect width="44.2215" height="45.648" fill="white" transform="translate(0.69458 0.94397)"/>
</clipPath>
</defs>
</svg>
