<svg width="58" height="47" viewBox="0 0 58 47" fill="none" xmlns="http://www.w3.org/2000/svg">
<g clip-path="url(#clip0_201_6455)">
<path d="M15.5202 13.8448L11.6598 14.665L11.6419 27.3609C11.6419 29.7057 13.4072 31.2213 15.752 31.2213C17.0537 31.2213 18.0077 30.9806 18.5337 30.6953V27.6818C18.0255 27.8869 15.5291 28.618 15.5291 26.2821V20.6474H18.5337V17.2773H15.5291L15.5202 13.8448ZM23.464 18.4453L23.2233 17.2773H19.7997V30.936H23.7493V21.744C24.6855 20.5137 26.2636 20.7544 26.7717 20.9149V17.2773C26.2368 17.0901 24.3913 16.7424 23.464 18.4453ZM31.6932 11.9993L27.7168 12.8463V16.0737L31.6932 15.2267V11.9993ZM4.81256 21.2983C4.81256 20.6831 5.32967 20.4424 6.15882 20.4334C7.36243 20.4334 8.89592 20.799 10.0995 21.4498V17.7231C8.78893 17.206 7.47833 17.0009 6.16773 17.0009C2.95811 17.0009 0.818359 18.6771 0.818359 21.4766C0.818359 25.8631 6.83641 25.1498 6.83641 27.0399C6.83641 27.771 6.2034 28.0117 5.32075 28.0117C4.01015 28.0117 2.31618 27.4679 0.987756 26.7457V30.312C2.45883 30.945 3.94774 31.2124 5.31183 31.2124C8.6017 31.2124 10.8663 29.8038 10.8663 26.9508C10.8663 22.2344 4.81256 23.0814 4.81256 21.2983ZM57.8694 24.2672C57.8694 20.2106 55.908 17.0098 52.1456 17.0098C48.3832 17.0098 46.0919 20.2106 46.0919 24.2404C46.0919 29.0103 48.7933 31.2124 52.6449 31.2124C54.535 31.2124 55.9526 30.7845 57.0314 30.1871V27.2093C55.9526 27.7532 54.7133 28.083 53.1442 28.083C51.6018 28.083 50.2466 27.5392 50.0683 25.6847H57.8159C57.8338 25.4797 57.8694 24.6505 57.8694 24.2672ZM50.0326 22.7693C50.0326 20.9862 51.1292 20.2373 52.1189 20.2373C53.0907 20.2373 54.1249 20.9862 54.1249 22.7693H50.0326ZM39.9669 17.0098C38.4155 17.0098 37.417 17.7409 36.8642 18.2491L36.6592 17.2684H33.1732V35.5276L37.1317 34.6895L37.1406 30.2139C37.7112 30.6329 38.5582 31.2124 39.9401 31.2124C42.7753 31.2124 45.3608 29.144 45.3608 24.1156C45.3697 19.5151 42.7485 17.0098 39.9669 17.0098ZM39.0218 27.9315C38.0946 27.9315 37.5418 27.5927 37.1584 27.1826L37.1317 21.2983C37.5418 20.8436 38.1124 20.5137 39.0218 20.5137C40.4661 20.5137 41.4647 22.1363 41.4647 24.2048C41.4736 26.3356 40.4929 27.9315 39.0218 27.9315ZM27.7257 30.936H31.7021V17.2773H27.7257V30.936Z" fill="black"/>
</g>
<defs>
<clipPath id="clip0_201_6455">
<rect width="57.06" height="45.648" fill="white" transform="translate(0.808838 0.94397)"/>
</clipPath>
</defs>
</svg>
