<svg width="46" height="47" viewBox="0 0 46 47" fill="none" xmlns="http://www.w3.org/2000/svg">
<g clip-path="url(#clip0_201_6453)">
<path d="M42.9835 17.6786L43.358 20.175V22.6713L41.1201 26.6031L37.5717 33.593L32.5701 39.611L25.5178 42.9811L23.9397 45.1655L23.2532 46.2353L22.3973 46.592C22.3973 46.592 23.9397 40.9216 24.127 40.9216C24.3142 40.9216 25.9368 40.984 25.9368 40.984L31.8835 37.5426L23.6366 39.8696L18.6528 43.1505L16.62 45.6469L16.0316 45.7717L17.886 39.2098L18.5012 38.7195L20.3467 39.8696L28.2192 35.8397L33.2833 31.2482L34.6028 25.1499L23.4226 27.2272L24.7778 25.6046L9.31811 20.8526L16.62 19.9164L1.82007 8.95911L12.0641 10.5728L3.03259 0.94397L25.5802 12.2311L22.7718 8.84321L33.8628 15.4764L21.0867 6.64997L22.754 10.0736L18.3318 8.45984L14.2752 0.94397L31.625 11.821L27.8002 6.84611L37.4291 15.4408L38.4989 14.6473L36.6267 13.1851L37.0011 9.81501L40.3712 8.88779L42.9746 11.0899L43.9999 11.4644L43.3758 12.0172L44.1336 13.087L42.9657 13.7468L42.0474 15.5478L42.9835 17.6786Z" fill="black"/>
</g>
<defs>
<clipPath id="clip0_201_6453">
<rect width="45.648" height="45.648" fill="white" transform="translate(0.160889 0.94397)"/>
</clipPath>
</defs>
</svg>
