<svg width="46" height="47" viewBox="0 0 46 47" fill="none" xmlns="http://www.w3.org/2000/svg">
<g clip-path="url(#clip0_201_6451)">
<path d="M23.7631 1.65717C11.5487 1.65717 1.65234 11.5535 1.65234 23.7679C1.65234 35.9823 11.5487 45.8787 23.7631 45.8787C35.9775 45.8787 45.8738 35.9823 45.8738 23.7679C45.8738 11.5535 35.9775 1.65717 23.7631 1.65717ZM23.7631 17.4824C22.8894 17.4824 22.1761 18.1956 22.1761 19.0694V28.6002C22.1761 32.2467 19.1537 35.1888 15.4983 35.1888C11.8072 35.1888 8.8205 32.2021 8.8205 28.511V24.3653H13.9292V28.4486C13.9292 29.3402 14.6424 30.0356 15.5161 30.0356C16.3899 30.0356 17.1031 29.3313 17.1031 28.4486V18.7841C17.1031 15.2178 20.1523 12.3559 23.7631 12.3559C27.3917 12.3559 30.4231 15.2357 30.4231 18.8287V20.9417L27.3828 21.8421L25.3412 20.8882V19.0515C25.3501 18.1956 24.6368 17.4824 23.7631 17.4824ZM38.7057 28.5021C38.7057 32.1932 35.7189 35.1799 32.0279 35.1799C28.3546 35.1799 25.3501 32.2199 25.3501 28.5645V24.392L27.3917 25.346L30.432 24.4455V28.6448C30.432 29.5185 31.1452 30.2139 32.019 30.2139C32.8927 30.2139 33.6059 29.5096 33.6059 28.6448V24.3653H38.7146C38.7057 28.4575 38.7057 28.5021 38.7057 28.5021Z" fill="black"/>
</g>
<defs>
<clipPath id="clip0_201_6451">
<rect width="44.2215" height="45.648" fill="white" transform="translate(0.939453 0.94397)"/>
</clipPath>
</defs>
</svg>
