<svg width="47" height="47" viewBox="0 0 47 47" fill="none" xmlns="http://www.w3.org/2000/svg">
<path d="M23.464 1.65729C11.2496 1.65729 1.35327 11.5536 1.35327 23.768C1.35327 35.9824 11.2496 45.8788 23.464 45.8788C35.6784 45.8788 45.5748 35.9824 45.5748 23.768C45.5748 11.5536 35.6784 1.65729 23.464 1.65729ZM35.3878 14.4548C34.3651 14.4913 33.6581 13.8797 33.6251 12.9507C33.6011 12.1323 34.2207 11.7524 34.2073 11.2701C34.1868 10.6861 33.3015 10.6621 33.0599 10.6754C29.5133 10.7905 28.7278 15.7573 27.8095 20.8259C29.7201 21.1067 31.0771 20.7617 31.834 20.2713C32.9039 19.5804 31.5362 18.8698 31.7074 18.0816C32.064 16.4626 34.6094 16.3877 34.5604 18.5542C34.5283 20.1465 32.2495 22.2818 27.6419 21.7371C26.6826 27.0436 26.0059 31.99 22.453 36.1554C19.8675 39.2277 17.2463 39.7056 16.0712 39.7448C13.8735 39.8206 12.4158 38.6473 12.3641 37.0844C12.3141 35.5687 13.6524 34.7432 14.5315 34.7137C16.4831 34.6469 17.2168 37.0024 15.8581 37.7451C14.7802 38.6108 15.8679 38.8693 16.0409 38.864C16.9699 38.8319 17.5868 38.3727 18.0184 38.0616C20.1581 36.2784 20.9819 33.1704 22.0616 27.5099C22.7918 23.0824 23.5772 20.5557 23.6869 20.1991C22.1775 19.0624 21.2726 17.6537 19.2425 17.1036C17.8507 16.7265 17.0029 17.0474 16.4064 17.8017C15.7003 18.6933 15.9348 19.8523 16.6177 20.5388L17.7438 21.787C19.1266 23.3856 19.8835 24.6284 19.5982 26.3001C19.1471 28.9685 15.9678 31.0164 12.2089 29.861C8.99931 28.8704 8.40196 26.6014 8.78712 25.3479C9.45668 23.1948 12.5638 24.303 11.8737 26.5604C11.625 27.3271 11.4351 27.3343 11.3138 27.7257C10.9073 29.0425 15.045 30.2577 15.8608 27.6017C16.2593 26.3072 15.3882 25.6662 13.877 24.0489C11.3388 21.2182 12.4505 18.21 14.1401 16.9458C18.8484 13.4375 23.102 18.5078 23.999 19.2469C27.3129 9.52889 32.9618 9.8445 33.1312 9.83826C35.3744 9.76605 37.071 10.7824 37.1281 12.3926C37.1504 13.0782 36.7563 14.4066 35.3878 14.4548Z" fill="black"/>
</svg>
