<svg width="46" height="47" viewBox="0 0 46 47" fill="none" xmlns="http://www.w3.org/2000/svg">
<g clip-path="url(#clip0_201_6437)">
<path d="M21.7634 31.8625C21.9774 30.7659 20.6935 29.1878 18.8747 27.5206C17.0114 25.8088 14.5774 24.0346 13.2222 23.3659C11.2875 22.296 9.50443 23.2054 9.09431 25.3897C8.64853 27.7256 9.09431 29.9724 10.3871 31.9784C11.2965 33.3603 12.6516 34.0022 14.2565 34.1181C15.2907 34.1716 18.9372 34.3143 19.7574 34.029C20.8183 33.6456 21.5494 32.9769 21.7634 31.8625ZM40.0404 33.7169C39.982 33.6684 39.9125 33.6348 39.8382 33.6193C39.7638 33.6038 39.6867 33.6067 39.6137 33.6278C39.5407 33.6489 39.474 33.6876 39.4194 33.7404C39.3648 33.7932 39.3239 33.8586 39.3004 33.9309C38.5872 36.1955 35.3152 43.961 23.9566 44.7634C10.61 45.6995 31.1159 48.6506 36.92 44.1928C38.9438 42.6415 41.1638 41.0723 41.0746 36.5788C41.039 35.6784 40.6378 34.1993 40.0404 33.7169ZM45.5681 22.8042C45.5414 21.1191 44.8014 19.8264 43.2501 19.0418C42.9915 18.9259 42.8043 18.8011 42.724 18.4712C42.1849 15.4487 40.9519 12.5925 39.1221 10.1271C39.0241 9.99334 38.8101 9.84178 38.926 9.6813C39.6838 8.656 38.8992 8.07648 38.3019 7.50588C31.8648 1.28218 24.3668 -0.516098 15.8078 2.11104C12.2326 3.20766 9.21913 5.285 6.71384 8.12017C6.35721 8.50354 6.11649 8.93149 6.44637 9.41294C6.71384 9.76956 6.56227 9.9657 6.35721 10.2421C4.59192 12.7126 3.39722 15.4399 2.85337 18.4186C2.79096 18.802 2.59482 18.9535 2.28277 19.114C1.01675 19.7381 0.276755 20.7634 0.0627801 22.1453L-0.00854492 24.5071V26.3705C-0.00854492 29.1165 1.86374 30.8639 4.60975 30.7391C5.29625 30.7124 5.65288 30.3557 5.67962 29.7138C5.85793 22.8042 5.46565 21.2083 6.0095 18.498C8.20274 7.398 20.8808 1.38977 30.7771 6.77391C36.6703 10.0379 39.7284 15.1198 39.8978 21.877C39.9691 24.3912 39.8978 26.9143 39.8978 29.4196C39.8978 30.0437 40.0939 30.534 40.7359 30.6856C42.8845 31.1314 45.1223 29.6157 45.479 27.4136C45.7375 25.889 45.5681 24.3377 45.5681 22.8042ZM31.3388 34.5282C34.593 34.7779 36.6258 31.9873 36.5455 29.1343C36.3583 25.1044 30.6434 27.6632 28.7176 28.421C22.1914 30.9263 24.7056 33.3157 26.7383 33.8417L31.3388 34.5282Z" fill="black"/>
</g>
<defs>
<clipPath id="clip0_201_6437">
<rect width="45.648" height="45.648" fill="white" transform="translate(-0.00854492 0.94397)"/>
</clipPath>
</defs>
</svg>
