<svg width="46" height="47" viewBox="0 0 46 47" fill="none" xmlns="http://www.w3.org/2000/svg">
<g clip-path="url(#clip0_201_6433)">
<path d="M22.9386 1.65729C10.7242 1.65729 0.827881 11.5536 0.827881 23.768C0.827881 35.9824 10.7242 45.8788 22.9386 45.8788C35.153 45.8788 45.0494 35.9824 45.0494 23.768C45.0494 11.5536 35.153 1.65729 22.9386 1.65729ZM33.7979 16.8049L30.1692 33.9051C29.9017 35.1176 29.1796 35.4118 28.1721 34.8412L22.6444 30.7668L19.9786 33.3345C19.6844 33.6287 19.4348 33.8783 18.8642 33.8783L19.2565 28.2526L29.5005 18.9982C29.9463 18.6059 29.4025 18.383 28.814 18.7753L16.1538 26.7458L10.6975 25.043C9.5117 24.6685 9.48495 23.8572 10.9471 23.2866L32.2644 15.0664C33.254 14.7098 34.1188 15.3071 33.7979 16.8049Z" fill="black"/>
</g>
<defs>
<clipPath id="clip0_201_6433">
<rect width="44.2215" height="45.648" fill="white" transform="translate(0.827881 0.94397)"/>
</clipPath>
</defs>
</svg>
