<svg width="35" height="47" viewBox="0 0 35 47" fill="none" xmlns="http://www.w3.org/2000/svg">
<g clip-path="url(#clip0_201_6431)">
<path d="M7.03823 45.1477C7.16304 46.9219 4.57751 47.127 4.39028 45.4062C3.35607 33.8248 7.16304 24.0533 13.4307 17.4825C12.0399 14.4512 14.251 10.6086 17.942 10.6086C20.6435 10.6086 22.8545 12.8018 22.8545 15.5211C22.8545 19.4439 18.4413 21.8333 15.1069 19.542C9.2493 25.8989 6.06642 34.6807 7.03823 45.1477ZM17.7102 0.952942C6.48546 0.952942 -0.504392 12.9177 4.48836 22.5555C5.26402 24.1068 7.63557 22.9567 6.83317 21.3608C2.70523 13.1049 8.70545 3.60088 17.7102 3.60088C24.4326 3.60088 29.9157 9.07507 29.9157 15.8064C29.9157 23.9018 22.168 29.5275 14.9642 27.6731C13.2613 27.3075 12.6818 29.8485 14.3758 30.2675C24.2454 32.3359 32.5637 24.9181 32.5637 15.7975C32.5637 7.604 25.9126 0.952942 17.7102 0.952942Z" fill="black"/>
</g>
<defs>
<clipPath id="clip0_201_6431">
<rect width="34.236" height="45.648" fill="white" transform="translate(0.592041 0.94397)"/>
</clipPath>
</defs>
</svg>
