<svg width="47" height="47" viewBox="0 0 47 47" fill="none" xmlns="http://www.w3.org/2000/svg">
<g clip-path="url(#clip0_201_6429)">
<path d="M44.4721 22.4931L46.3176 23.1261C45.4617 20.9953 44.1868 19.8273 43.4914 19.1319L44.1244 17.5093C44.1422 17.5093 45.221 15.0307 43.9015 14.7722C43.848 13.7647 43.3131 12.3649 42.261 12.3649C41.5834 11.4199 40.683 11.2683 39.5239 11.8389C38.7141 12.2341 37.9564 12.7282 37.2683 13.31C36.7958 12.7394 37.0008 13.3457 37.0008 10.6531C33.6931 8.48665 32.9531 9.61002 30.3319 10.9206L30.3765 10.9652C28.4125 10.2746 26.3579 9.87509 24.2782 9.77941C23.7879 9.00375 22.6199 8.07653 22.0404 7.54159L24.2515 8.1746C23.7611 7.68424 21.8621 7.02449 21.2023 6.81943C22.825 6.45389 23.8592 4.96498 24.9915 3.87727C21.8799 2.97679 18.9378 3.35125 16.2631 4.92931L17.333 0.988609L17.1698 0.944031C14.3525 3.10161 14.2276 4.67968 14.1652 5.00064C14.085 4.78666 13.6035 3.25318 12.8101 2.59342C12.5154 3.31364 12.4995 4.11777 12.7655 4.84907C13.0329 5.59799 13.2915 6.16859 13.5144 6.53413C12.0879 6.23991 10.9913 6.09726 9.1279 6.53413H8.79803L11.7402 7.80906C9.94056 9.49304 8.52108 11.5417 7.57659 13.8182L7.42502 14.5671L7.57659 14.7187L8.25417 14.2996C7.95996 15.3338 7.78164 16.0293 7.66574 16.5999C6.69566 17.6916 5.86326 18.8983 5.1872 20.1929C3.84985 20.282 2.35203 21.1557 1.5942 21.4678L1.86167 21.7709L4.42937 21.8601C4.38479 21.9492 4.36696 22.0562 4.32238 22.1454C3.67154 22.716 0.773964 25.5066 1.38023 29.3403L3.18118 27.3432C3.22576 27.4948 3.24359 27.6463 3.28817 27.8068C3.28817 30.0803 3.32383 35.7952 9.07441 41.2248C12.9616 44.7911 17.6334 46.592 23.1165 46.592C33.9668 46.592 42.9984 38.8087 42.9984 27.7355C43.6046 26.8707 42.8914 28.0029 44.4873 25.4977L45.6463 26.7726L45.8692 26.728C45.7043 25.6883 45.4386 24.6671 45.0757 23.6789C44.9415 23.2524 44.7365 22.8516 44.4694 22.4931H44.4721ZM36.4275 10.8582L36.383 12.8107C36.8733 14.4245 37.8897 14.3442 38.3801 14.3442L38.0769 13.9252L40.074 13.4437C39.2722 13.4884 38.4686 13.4884 37.6668 13.4437C38.808 13.2565 40.6357 10.8582 41.5005 12.4363C41.8037 13.1139 42.0711 13.9698 42.3297 14.9148L42.4813 14.3888C42.3694 13.946 42.3184 13.4901 42.3297 13.0336C42.8111 13.0782 43.1143 13.3367 43.1588 13.9341C43.2034 14.5047 43.3104 15.2536 43.462 16.1897L43.881 15.1823C44.2911 15.1823 44.2822 14.8613 43.6581 17.0278C41.7947 16.2522 40.5287 16.2789 39.5123 16.2789L41.135 14.8524C38.8793 15.5835 38.1928 15.8153 36.2492 16.7158C36.1512 16.2343 35.8034 15.5122 34.8227 14.9416C34.5374 15.2804 34.5731 15.0218 34.7603 16.2611H34.5374C34.427 15.5317 34.1724 14.8315 33.7885 14.2016L34.163 13.8984C34.9119 13.2654 35.215 12.6235 35.108 11.9459C35.0635 11.3753 34.6266 10.7423 33.9044 10.1004C34.4037 9.79724 35.2596 10.0647 36.4275 10.8582ZM32.897 9.95772C33.1377 10.1271 33.9133 10.4392 34.582 11.4912C34.9565 12.2401 34.9386 12.3649 34.8851 12.4808C34.8406 12.6948 34.8406 12.8642 34.6177 13.1139C34.4661 13.3367 34.1362 13.5329 33.5656 13.7914C32.888 12.6324 32.0945 11.6874 31.0871 11.0098L32.897 9.95772ZM9.05658 13.7023L9.16357 13.5507C9.27055 13.2922 9.53802 12.8731 9.99272 12.1955L10.2156 11.8924L9.05658 12.989L9.53802 12.57L8.63754 13.3992L8.26309 13.5061C9.35971 11.3575 10.3226 9.82399 11.1607 9.0305C11.9898 8.20135 12.5872 7.604 12.9616 7.30087L12.391 7.40786C11.3836 7.0334 10.6614 6.77485 10.1799 6.65894C10.4028 6.61437 10.5098 6.61437 10.4652 6.61437C11.3836 6.61437 12.0255 6.65895 12.3286 6.72135C12.7897 6.86919 13.2709 6.94439 13.7551 6.94424L13.7997 6.79268L13.0508 3.60089L14.2544 6.18642C14.5056 5.79683 14.6838 5.36483 14.7804 4.91148C14.932 4.34088 15.2619 3.75245 15.6809 3.18185C16.0999 2.61125 16.3585 2.2368 16.51 2.17439C16.2781 2.91511 16.0877 3.66815 15.9394 4.43004L15.7879 5.06305L15.7433 5.48208L15.9662 5.70497C17.9187 4.50136 20.0228 3.97534 22.323 4.01992L24.2042 4.0645C23.1522 5.26811 21.7257 6.01702 19.8801 6.27557C19.1904 6.40245 18.4938 6.48879 17.7939 6.53413L17.7761 6.48955L17.5532 6.38256C17.1291 6.29401 16.6873 6.35711 16.305 6.56087C16.0821 6.54304 15.8681 6.51629 15.672 6.49846L15.4491 6.65003L15.4937 6.75702C15.672 6.77485 15.8414 6.80159 16.0464 6.81943L15.8681 7.12256L16.1712 7.07798L15.2262 8.08544C14.8517 8.35291 14.7447 8.65604 14.8517 8.9146L15.3332 8.61147H15.4402C15.9881 7.88454 16.7967 7.39869 17.6958 7.25629V6.98882C18.2664 7.0334 18.8548 7.07798 19.4254 7.09581C19.996 7.09581 20.1744 7.14039 19.9069 7.2028C20.5476 7.56344 21.1641 7.9655 21.7524 8.40641C22.956 9.30688 23.8565 10.3589 24.4271 11.5625C25.2117 13.1852 25.6307 14.8702 25.6307 16.6088C25.6268 17.4567 25.5372 18.302 25.3633 19.1319C25.0485 20.5497 24.5698 21.926 23.9368 23.2331L24.1596 23.2777C25.7823 21.5213 27.8953 21.8512 28.5461 21.8512L27.9755 22.3772L29.9726 23.9553L29.8211 26.6923C29.3396 25.5957 28.35 24.8112 26.8789 24.2138C28.35 25.5333 28.983 26.095 28.8314 26.0148C28.4035 25.7651 28.5194 25.8454 27.8685 25.6849C28.2341 26.0504 29.4288 27.361 29.4912 27.5304L29.509 27.5482L29.4912 27.5661C29.4912 27.7266 29.6338 27.4591 28.243 29.6078C21.5385 28.2437 18.7684 25.8008 15.6541 23.9731L16.7062 24.0801C15.6541 22.4307 15.3153 22.502 13.2826 21.7531L14.2276 21.0042C13.4431 20.7367 12.605 20.7367 11.7045 21.0488L12.3821 20.1037L12.2751 19.9521C10.9467 20.3355 10.5098 20.7724 10.2602 20.9596C10.1621 20.4692 10.0105 19.8541 9.16357 18.3919L9.05658 20.7991L7.87972 20.3533C8.01345 18.1066 8.36116 15.851 9.05658 13.7023ZM33.7083 43.1238C29.2594 45.3527 28.7066 45.1209 28.4481 45.2547C25.7912 44.2026 23.91 42.4284 22.7866 40.0123L25.4613 41.4834C24.5876 40.6542 23.8298 40.0123 22.0377 37.5337L23.0898 39.5933L21.5117 38.9157C22.7777 40.7969 23.6069 43.525 27.4495 45.4687C16.6794 47.6262 9.70742 39.0405 9.53802 38.8443C10.5275 39.6669 11.5831 40.4064 12.6942 41.0554C12.9973 41.207 13.3272 41.2783 13.5946 41.1624L12.1681 39.3169C12.9884 39.6913 13.0151 39.7181 18.3288 41.9024C14.5397 40.0569 11.7491 38.2648 10.0195 36.5352C9.97489 37.1058 9.91248 37.4357 9.91248 37.4357C10.6886 38.0866 11.3177 38.895 11.758 39.8072C8.28092 38.1222 6.62261 35.5634 5.40117 32.4429C9.85007 37.3554 16.0018 35.7863 16.1445 35.7506C19.2471 37.2128 22.3765 37.8547 26.2994 36.6957C26.5936 36.6957 28.1093 38.2113 28.555 40.1817L28.9295 39.9142L28.7066 37.8101C29.509 38.6125 30.9266 39.8251 31.7736 38.9692C30.3827 38.4966 29.6784 38.1222 29.1435 36.1429C29.5536 36.5174 29.8211 36.9453 31.622 37.4803L31.729 37.3733L30.7929 36.1072C31.836 35.6793 30.4808 36.1964 33.6459 35.1444C34.0292 38.2024 34.4483 39.5308 33.7083 43.1238ZM43.988 24.0087L43.7651 24.0533L44.0326 24.8825C43.7205 25.4085 41.9196 28.8321 37.649 31.9882C34.1273 34.6451 30.8196 35.4742 30.4362 35.5812L29.7587 34.9482L29.6517 35.2157L30.9266 36.6422L30.2936 36.2231L30.5967 36.5976H30.4897L28.5372 35.394L29.3664 37.7656L27.6724 35.2781L27.5654 35.501L28.243 38.0865C27.6991 37.3554 26.3707 35.18 23.1789 34.5559L26.0765 36.446C23.2984 36.8677 20.4615 36.6729 17.7671 35.8754C17.3927 35.7685 16.9737 35.6525 16.5635 35.501L16.6705 35.2335L12.6763 33.2364L15.0033 35.2335C9.85898 36.0448 4.92864 32.9689 3.73395 27.7979L3.51106 26.3357L1.52555 28.3239C3.2641 23.1974 3.80795 23.1618 6.10818 22.0741C5.29686 21.6015 5.96553 21.7798 2.68458 21.2449C4.09325 20.7278 5.62674 19.8719 9.19299 21.7085C9.29703 21.646 9.40766 21.5952 9.52287 21.5569C9.57636 21.2717 9.55853 21.4856 9.61202 20.5049C9.95973 21.3965 9.93298 21.2806 9.87949 21.3341L10.0311 21.3786C11.1633 20.7991 10.8245 20.9774 11.5467 20.5851L11.0653 21.7888L13.0535 21.2717L12.3045 22.0206L12.5274 22.2435C12.9286 22.083 15.2289 22.5466 16.165 23.67L14.0609 23.4471C17.5737 25.4977 18.6525 28.2615 19.0358 29.6523L19.1874 29.5453C18.9378 27.5572 18.0819 26.523 17.7609 25.9702C18.1354 26.416 21.2558 29.055 27.6038 30.0714C26.5963 30.0268 25.5442 30.5528 24.4922 31.7564L28.6558 29.9555L27.8266 31.908C28.5042 31.0075 29.1462 29.8039 29.7168 28.3774V28.3328L29.8237 28.0654L29.7168 29.4919C30.9204 25.7651 31.9724 22.4931 32.8729 19.7114L34.0765 17.2329V17.0546L33.5951 16.6801H34.4955L35.0215 17.0546L35.2444 16.9476L34.9413 15.5211L36.0379 17.2061L39.7647 15.4052L38.4451 16.5642L38.4897 16.8228L40.0678 16.7782C41.0578 16.8139 42.0425 16.9392 43.0099 17.1526L40.9059 17.3755L40.7989 17.643L43.1704 19.7025C44.0499 20.5857 44.8551 21.5399 45.5776 22.5555C44.5791 22.2613 44.6593 22.2524 43.6875 22.2524L44.7842 25.1499L43.988 24.0087ZM43.4441 17.6519L43.0964 18.8109L41.8215 17.7589L43.4441 17.6519ZM20.7271 18.2849C20.8787 19.23 21.1462 19.863 21.5117 20.2374C20.6826 20.8259 19.0599 21.4767 17.3659 21.6639L17.4105 21.7709C18.1546 21.8836 18.915 21.807 19.6216 21.548L18.9886 22.7071C19.363 22.5555 19.8891 22.0741 20.5666 21.3876C21.6276 20.8972 21.6989 20.9329 22.3676 19.9611C21.2353 19.3905 20.9678 18.7396 20.7271 18.2849ZM21.057 9.16423C20.4864 8.8611 20.112 9.4317 19.9604 10.8493C19.8088 12.2669 20.1833 13.4794 21.0124 14.3799C21.8416 15.2804 22.6351 15.3249 23.3394 14.6473C24.0437 13.9698 23.6425 12.5433 22.3319 10.3946C22.0193 9.88303 21.5814 9.45959 21.0597 9.16423H21.057ZM20.638 13.2922C21.1194 13.4883 21.5741 13.4616 21.7346 12.3471V11.9281L21.6276 11.9727C21.2442 11.6963 21.4047 11.5715 21.476 11.4199L21.5206 11.3753C21.4404 11.2683 21.0748 10.6531 20.4062 11.7943C20.3616 10.5907 20.4507 9.84182 20.6736 9.58327C20.7806 9.36038 21.0927 9.47628 21.6811 9.95772C22.2517 10.4392 22.6886 11.3842 23.0363 12.8553C23.6158 15.3517 21.271 15.1912 20.638 13.2922ZM16.6259 12.8018C16.7686 12.8286 17.4551 12.7037 17.4551 11.4823H17.4105C16.9291 11.3842 17.2144 10.9919 17.3481 10.9563C17.1965 10.6888 17.045 10.5818 16.8667 10.5372C16.1445 10.5372 15.8325 11.6695 16.1445 12.4274C16.1896 12.5238 16.2571 12.608 16.3413 12.6731C16.4255 12.7383 16.524 12.7824 16.6286 12.8018H16.6259ZM20.2011 8.33508L19.9782 8.37966L20.0228 8.64713C20.8323 8.6029 21.638 8.78505 22.3498 9.17315C22.1269 8.68279 21.4582 7.89822 19.8267 7.89822L19.8712 8.12111L20.2011 8.33508ZM13.7997 12.7394C15.7344 14.2372 15.2708 14.6473 17.9455 14.8435L17.6869 14.4245C18.4368 13.7859 18.9098 12.8815 19.0064 11.9013C19.158 10.4748 18.8994 9.27122 18.2218 8.21918L19.3809 7.54159C19.384 7.51463 19.3817 7.4873 19.3741 7.46126C19.3664 7.43521 19.3535 7.41098 19.3363 7.39003C19.139 7.3126 18.9254 7.2859 18.7152 7.31238C18.5049 7.33886 18.3046 7.41767 18.1327 7.54159C17.0004 8.13894 15.6363 9.40496 15.5472 9.53869C15.3956 9.69026 15.244 10.0647 15.0657 10.7423C14.8958 11.4308 14.809 12.1372 14.8072 12.8464C14.3881 12.1331 13.871 12.2758 13.0329 12.3204L13.666 12.998C12.1949 12.998 11.5886 14.371 11.5619 14.4245C12.1681 14.4245 11.972 13.7469 14.2366 13.3278C13.8532 12.7661 13.9423 12.882 13.7997 12.7394ZM15.4669 11.0722C15.5739 10.3946 15.77 9.91315 16.0375 9.53869C16.519 8.96809 16.9826 8.63821 17.464 8.48665C17.8385 8.33508 18.097 8.59364 18.3645 9.3158C18.5868 10.0459 18.6773 10.8097 18.632 11.5715C18.5874 12.4006 18.3288 13.1049 17.883 13.631C17.6245 13.9341 17.4016 14.157 17.3124 14.3085C16.9762 14.3425 16.6369 14.3274 16.305 14.264L15.672 13.9608L15.1905 13.3902C15.2619 12.4987 15.3064 11.7141 15.4669 11.0722ZM19.2115 16.0738C16.1088 17.3577 16.1178 17.322 15.9929 17.3488C14.1385 17.7678 14.299 15.1734 14.3079 15.1377L14.8339 15.0307L14.7893 14.8078C12.9884 14.576 12.0255 15.1823 11.8917 15.2447C11.9363 15.2893 12.1592 15.5478 12.4178 16.0738C12.7922 15.5032 13.2023 15.1734 13.7729 15.1288C13.6184 16.1302 13.67 17.1526 13.9245 18.1334C13.9334 18.1779 14.1563 19.6847 16.3763 20.282C17.3838 20.5495 18.7835 20.389 20.736 19.8006L19.9158 19.8451C19.5414 18.5256 19.3452 17.6341 19.3898 17.215C20.3973 16.4305 21.3423 16.2076 22.1269 16.5375H22.3498L21.2977 15.8599L20.6647 15.9044C20.1387 16.0114 19.5681 16.2789 18.9351 16.6534L19.2115 16.0738Z" fill="black"/>
</g>
<defs>
<clipPath id="clip0_201_6429">
<rect width="45.648" height="45.648" fill="white" transform="translate(0.943848 0.94397)"/>
</clipPath>
</defs>
</svg>
