<svg width="46" height="47" viewBox="0 0 46 47" fill="none" xmlns="http://www.w3.org/2000/svg">
<g clip-path="url(#clip0_201_6425)">
<path d="M18.8985 8.81528C18.8985 7.92372 19.4589 6.87934 20.4779 6.87934C21.4713 6.87934 22.0572 7.92372 22.0572 8.81528C22.0572 9.73225 21.4713 10.7512 20.4779 10.7512C19.4589 10.7512 18.8985 9.73225 18.8985 8.81528ZM46.002 23.0803C46.002 26.29 44.983 32.1997 42.7669 34.6451C40.7289 36.8613 34.9721 40.0964 31.9917 40.937L31.8898 40.9625V43.8664C31.8898 45.3184 30.7689 46.592 29.2915 46.592C28.4 46.592 27.5593 46.0826 27.1008 45.3183C26.6169 46.0826 25.7763 46.592 24.8847 46.592C23.9932 46.592 23.1525 46.0826 22.6685 45.3183C22.21 46.0826 21.3694 46.592 20.4779 46.592C19.5608 46.592 18.7457 46.0826 18.2617 45.3183C17.8031 46.0826 16.9626 46.592 16.071 46.592C14.3898 46.592 13.4472 45.191 13.4472 43.6626C11.9952 44.7579 10.263 45.3947 8.40356 45.3947C6.44213 45.3947 4.5316 44.6561 3.02869 43.3569C3.94566 43.3314 4.86272 43.1531 5.72879 42.8475C3.86926 42.338 2.21354 41.1662 1.09266 39.6123C2.99793 40.0265 5.21248 39.7615 7.07888 38.6189C5.11744 36.6574 2.03522 33.3714 0.965259 30.8241C0.455909 29.6268 0.354004 28.022 0.354004 26.7484C0.354004 22.3161 2.16263 12.4834 8.04694 12.4834C8.98941 12.4834 9.72816 12.9166 10.1103 13.808C10.4383 13.328 10.7956 12.8686 11.1802 12.4325C11.3585 12.2032 11.6896 11.9485 11.817 11.6938C12.5302 10.573 12.8614 9.80883 13.7529 8.66246C16.6313 4.99422 21.0382 2.47244 25.7763 2.47244C26.3112 2.47244 26.8462 2.49785 27.3556 2.57434C28.3236 1.52988 29.6737 0.944031 31.0747 0.944031C32.3738 0.944031 33.7239 1.47897 34.641 2.39603C34.7174 2.47253 34.7683 2.59984 34.7683 2.70166C34.7683 3.03278 33.8513 3.89894 33.622 4.15365C34.0042 4.28106 35.023 4.76509 35.023 5.22353C35.023 5.47825 34.7683 5.68206 34.6155 5.86037C37.4176 8.33125 39.0224 11.8466 39.6337 15.4892C40.0159 15.0307 40.5507 14.725 41.1621 14.725C42.1046 14.725 43.0217 15.3619 43.7094 15.9733C45.569 17.629 46.002 20.7112 46.002 23.0803ZM17.1154 8.91709C17.1154 10.5474 18.2362 12.2286 19.9939 12.2286C21.7515 12.2286 22.8723 10.5474 22.8723 8.91709C22.8723 7.31228 21.7515 5.63106 19.9939 5.63106C18.2362 5.63106 17.1154 7.31237 17.1154 8.91709ZM21.5477 18.2403C21.5477 16.4827 21.8788 14.7505 22.3118 13.0438C17.6722 20.1347 21.1055 29.4994 28.451 29.4994C30.3614 29.4994 32.2464 28.8117 33.8003 27.7163C33.9786 27.054 34.1315 26.3917 34.1315 25.7039C34.1315 24.4302 33.571 23.7934 32.2973 23.7934C31.8898 23.7934 31.4822 23.8698 31.1001 23.9462C25.4526 25.0757 21.5477 24.2734 21.5477 18.2403ZM17.8796 40.9625C17.8796 39.969 17.0899 39.103 16.071 39.103C15.052 39.103 14.2879 39.9691 14.2879 40.9625V43.8664C14.2879 44.8599 15.052 45.7514 16.071 45.7514C17.0899 45.7514 17.8796 44.8852 17.8796 43.8664V40.9625ZM22.261 40.9625C22.261 39.969 21.4968 39.103 20.4779 39.103C19.4589 39.103 18.6693 39.9691 18.6693 40.9625V43.8664C18.6693 44.8599 19.4589 45.7514 20.4779 45.7514C21.4968 45.7514 22.261 44.8598 22.261 43.8664V40.9625ZM26.6933 40.9625C26.6933 39.969 25.9036 39.103 24.8847 39.103C23.8657 39.103 23.0761 39.9691 23.0761 40.9625V43.8664C23.0761 44.8599 23.8657 45.7514 24.8847 45.7514C25.9036 45.7514 26.6933 44.8852 26.6933 43.8664V40.9625ZM31.1257 40.9625C31.1257 39.969 30.336 39.103 29.317 39.103C28.2981 39.103 27.5084 39.9691 27.5084 40.9625V43.8664C27.5084 44.8599 28.2981 45.7514 29.317 45.7514C30.336 45.7514 31.1257 44.8598 31.1257 43.8664V40.9625ZM37.9524 26.4427C35.2013 31.7156 29.903 35.5876 23.8148 35.5876C15.2049 35.5876 9.49894 28.0475 9.49894 19.8451C9.49894 18.3422 9.67725 16.8647 10.0339 15.4128C8.25075 18.4187 7.38469 21.8831 7.38469 25.3474C7.38469 30.7223 9.60084 36.1991 13.753 39.6888C14.2116 38.8228 15.0776 38.2368 16.0711 38.2368C16.9627 38.2368 17.8032 38.7463 18.2617 39.5105C18.7458 38.7464 19.5608 38.2368 20.478 38.2368C21.3696 38.2368 22.2101 38.7463 22.6686 39.5105C23.1527 38.7464 23.9932 38.2368 24.8849 38.2368C25.7765 38.2368 26.617 38.7463 27.1011 39.5105C27.5596 38.7464 28.4001 38.2368 29.2918 38.2368C30.2598 38.2368 31.1513 38.8228 31.5844 39.6633C35.4561 36.4282 37.6977 31.461 37.9524 26.4427ZM38.895 17.5526C38.895 12.7636 35.8128 8.12753 30.6416 8.12753C27.9415 8.12753 25.4197 9.47762 23.611 11.4136C21.8284 17.332 21.164 23.5897 27.3047 23.5897C29.8728 23.5897 35.9847 21.0454 34.8193 26.8757C37.3921 24.5577 38.895 21.0169 38.895 17.5526Z" fill="black"/>
</g>
<defs>
<clipPath id="clip0_201_6425">
<rect width="45.648" height="45.648" fill="white" transform="translate(0.354004 0.94397)"/>
</clipPath>
</defs>
</svg>
