<svg width="41" height="46" viewBox="0 0 41 46" fill="none" xmlns="http://www.w3.org/2000/svg">
<g clip-path="url(#clip0_201_6421)">
<path d="M40.1057 19.0108C36.1806 19.0202 32.3517 17.7961 29.16 15.5114V31.4454C29.1589 34.3966 28.2569 37.2771 26.5745 39.7017C24.8922 42.1264 22.5097 43.9796 19.7456 45.0137C16.9816 46.0477 13.9677 46.2133 11.107 45.4882C8.2463 44.7631 5.67515 43.182 3.73733 40.9562C1.79952 38.7304 0.587412 35.9661 0.263087 33.0328C-0.0612377 30.0995 0.517679 27.1371 1.92243 24.5417C3.32718 21.9464 5.4908 19.8417 8.12399 18.5092C10.7572 17.1767 13.7344 16.6798 16.6576 17.085V25.0993C15.32 24.6785 13.8835 24.6912 12.5535 25.1355C11.2235 25.5798 10.0679 26.433 9.25166 27.5732C8.43546 28.7135 8.00043 30.0825 8.00869 31.4848C8.01695 32.887 8.46808 34.2508 9.29765 35.3814C10.1272 36.5119 11.2928 37.3514 12.628 37.78C13.9632 38.2086 15.3996 38.2044 16.7322 37.7679C18.0648 37.3314 19.2255 36.485 20.0483 35.3496C20.8712 34.2141 21.3143 32.8477 21.3142 31.4454V0.296021H29.16C29.1545 0.958576 29.2101 1.62023 29.3258 2.27261C29.5985 3.72896 30.1653 5.11439 30.9918 6.34414C31.8182 7.5739 32.8868 8.62213 34.1322 9.42473C35.9041 10.5963 37.9815 11.2208 40.1057 11.2203V19.0108Z" fill="black"/>
</g>
<defs>
<clipPath id="clip0_201_6421">
<rect width="39.942" height="45.648" fill="white" transform="translate(0.164551 0.295959)"/>
</clipPath>
</defs>
</svg>
