<svg width="30" height="46" viewBox="0 0 30 46" fill="none" xmlns="http://www.w3.org/2000/svg">
<g clip-path="url(#clip0_201_6413)">
<path d="M28.1504 43.1178C26.9379 44.4105 23.6926 45.944 19.4666 45.944C8.69651 45.944 6.36061 38.0269 6.36061 33.4086V20.5701H2.12569C1.63533 20.5701 1.23413 20.1689 1.23413 19.6786V13.616C1.23413 12.974 1.63533 12.4034 2.2416 12.1895C7.76928 10.2459 9.50783 5.41359 9.75747 1.74927C9.82879 0.768548 10.337 0.296021 11.1929 0.296021H17.5141C18.0044 0.296021 18.4056 0.697224 18.4056 1.18758V11.4584H25.8056C26.2959 11.4584 26.6972 11.8507 26.6972 12.341V19.6251C26.6972 20.1154 26.2959 20.5167 25.8056 20.5167H18.37V32.3923C18.37 35.4414 20.483 37.171 24.4326 35.5841C24.8605 35.4147 25.235 35.2988 25.5649 35.3879C25.8769 35.4682 26.082 35.691 26.2246 36.0922L28.1861 41.825C28.3465 42.2708 28.4803 42.77 28.1504 43.1178Z" fill="black"/>
</g>
<defs>
<clipPath id="clip0_201_6413">
<rect width="28.53" height="45.648" fill="white" transform="translate(0.529053 0.295959)"/>
</clipPath>
</defs>
</svg>
