<svg width="40" height="46" viewBox="0 0 40 46" fill="none" xmlns="http://www.w3.org/2000/svg">
<g clip-path="url(#clip0_201_6415)">
<path d="M35.7218 3.14899H4.33883C1.97619 3.14899 0.0593262 5.06585 0.0593262 7.42849V38.8115C0.0593262 41.1741 1.97619 43.091 4.33883 43.091H35.7218C38.0845 43.091 40.0013 41.1741 40.0013 38.8115V7.42849C40.0013 5.06585 38.0845 3.14899 35.7218 3.14899ZM28.3843 35.6197C27.6264 36.431 25.6026 37.385 22.9546 37.385C16.2234 37.385 14.7612 32.4368 14.7612 29.5481V21.5241H12.1132C11.8101 21.5241 11.5605 21.2744 11.5605 20.9713V17.1822C11.5605 16.781 11.8101 16.4243 12.1935 16.2906C15.6528 15.0692 16.7315 12.0557 16.892 9.76438C16.9366 9.1492 17.2576 8.85499 17.7836 8.85499H21.7332C22.0363 8.85499 22.286 9.10462 22.286 9.40775V15.827H26.9132C27.2163 15.827 27.466 16.0766 27.466 16.3798V20.9357C27.466 21.2388 27.2163 21.4884 26.9132 21.4884H22.2681V28.9151C22.2681 30.8231 23.5877 31.9019 26.0573 30.9122C26.3248 30.8053 26.5566 30.7339 26.7705 30.7874C26.9667 30.832 27.0915 30.9746 27.1807 31.2243L28.411 34.8084C28.5002 35.0937 28.5893 35.4057 28.3843 35.6197Z" fill="black"/>
</g>
<defs>
<clipPath id="clip0_201_6415">
<rect width="39.942" height="45.648" fill="white" transform="translate(0.059082 0.295959)"/>
</clipPath>
</defs>
</svg>
