<svg width="46" height="46" viewBox="0 0 46 46" fill="none" xmlns="http://www.w3.org/2000/svg">
<g clip-path="url(#clip0_201_6407)">
<path d="M41.2465 13.8224C41.2754 14.2279 41.2754 14.6335 41.2754 15.039C41.2754 27.4067 31.8621 41.6573 14.6571 41.6573C9.35662 41.6573 4.4327 40.1221 0.290771 37.4575C1.04387 37.5443 1.76791 37.5733 2.54999 37.5733C6.92355 37.5733 10.9497 36.0962 14.1647 33.5763C10.0518 33.4893 6.60499 30.7956 5.41743 27.0882C5.99677 27.175 6.57602 27.233 7.18433 27.233C8.02427 27.233 8.8643 27.1171 9.64629 26.9144C5.35957 26.0454 2.14442 22.2801 2.14442 17.7327V17.6168C3.38984 18.312 4.83819 18.7464 6.37319 18.8043C3.85328 17.1243 2.20237 14.2569 2.20237 11.0129C2.20237 9.27503 2.66572 7.68198 3.47677 6.29168C8.08213 11.9687 15.0047 15.6761 22.7671 16.0817C22.6223 15.3865 22.5353 14.6625 22.5353 13.9383C22.5353 8.78262 26.7062 4.58282 31.8909 4.58282C34.5845 4.58282 37.0175 5.71243 38.7265 7.53719C40.8408 7.13171 42.8683 6.34963 44.6642 5.27798C43.9689 7.45036 42.4918 9.27512 40.5512 10.4336C42.4339 10.231 44.2587 9.70949 45.9386 8.98545C44.6644 10.8391 43.0712 12.49 41.2465 13.8224Z" fill="black"/>
</g>
<defs>
<clipPath id="clip0_201_6407">
<rect width="45.648" height="45.648" fill="white" transform="translate(0.291016 0.295959)"/>
</clipPath>
</defs>
</svg>
