<svg width="41" height="46" viewBox="0 0 41 46" fill="none" xmlns="http://www.w3.org/2000/svg">
<g clip-path="url(#clip0_201_6409)">
<path d="M36.6015 3.14899H5.21846C2.85582 3.14899 0.938965 5.06585 0.938965 7.42849V38.8115C0.938965 41.1741 2.85582 43.091 5.21846 43.091H36.6015C38.9641 43.091 40.881 41.1741 40.881 38.8115V7.42849C40.881 5.06585 38.9641 3.14899 36.6015 3.14899ZM32.2417 17.307C32.2596 17.5566 32.2595 17.8152 32.2595 18.0648C32.2595 25.7947 26.3752 34.7014 15.623 34.7014C12.3064 34.7014 9.23049 33.7385 6.64496 32.0802C7.11749 32.1337 7.57219 32.1515 8.05363 32.1515C10.7907 32.1515 13.3049 31.2243 15.3109 29.6551C12.7432 29.6016 10.5857 27.9166 9.84567 25.5985C10.7462 25.7323 11.5575 25.7323 12.4847 25.4915C9.81001 24.9477 7.80399 22.594 7.80399 19.7499V19.6786C8.57965 20.1154 9.48905 20.3829 10.443 20.4185C9.641 19.8851 8.98352 19.1613 8.52925 18.3119C8.07499 17.4625 7.83808 16.5139 7.83966 15.5506C7.83966 14.4629 8.12496 13.4644 8.63315 12.5995C11.5129 16.148 15.837 18.466 20.6871 18.7157C19.8579 14.7482 22.8268 11.5297 26.3931 11.5297C28.0781 11.5297 29.5938 12.234 30.6637 13.3752C31.9832 13.1256 33.2492 12.6352 34.3726 11.9665C33.9357 13.3217 33.0174 14.4629 31.8049 15.1851C32.9817 15.0603 34.1229 14.7304 35.175 14.2757C34.3815 15.4436 33.3829 16.4778 32.2417 17.307Z" fill="black"/>
</g>
<defs>
<clipPath id="clip0_201_6409">
<rect width="39.942" height="45.648" fill="white" transform="translate(0.938965 0.295959)"/>
</clipPath>
</defs>
</svg>
