<svg width="41" height="46" viewBox="0 0 41 46" fill="none" xmlns="http://www.w3.org/2000/svg">
<g clip-path="url(#clip0_201_6405)">
<path d="M16.2813 7.28584C16.2813 5.08368 16.7627 4.39717 17.5205 3.77308C11.3242 4.53091 4.20952 6.80439 1.8023 9.69305C1.32085 10.3796 0.973145 11.5475 0.973145 13.0008C0.973145 22.2284 10.495 43.091 17.3868 43.091C20.6232 43.091 26.0617 37.7862 30.466 30.6983C29.8419 30.9033 29.4318 30.9033 28.8166 30.9033C23.7169 30.9033 16.2813 13.2058 16.2813 7.28584ZM27.2297 3.14899C24.5461 3.14899 23.5118 3.63043 23.5118 6.38536C23.5118 12.3053 28.3084 24.0829 32.579 24.0829C34.9238 24.0829 39.6045 15.194 39.6045 7.82969C39.6045 4.1832 33.6311 3.14899 27.2297 3.14899Z" fill="black"/>
</g>
<defs>
<clipPath id="clip0_201_6405">
<rect width="39.942" height="45.648" fill="white" transform="translate(0.349121 0.295959)"/>
</clipPath>
</defs>
</svg>
