<svg width="47" height="46" viewBox="0 0 47 46" fill="none" xmlns="http://www.w3.org/2000/svg">
<g clip-path="url(#clip0_201_6397)">
<path d="M23.5399 1.00929C11.3264 0.994138 1.41043 10.8807 1.39795 23.0915C1.39171 35.3059 11.2943 45.2201 23.5087 45.2263C35.7097 45.2263 45.6034 35.3567 45.6194 23.145C45.6355 10.9333 35.7534 1.02445 23.5399 1.00929ZM36.4676 24.7248C36.3998 27.1428 35.9837 29.0745 35.2194 30.52C34.455 31.9655 33.1619 33.0057 31.3402 33.6405C29.5208 34.2765 26.9813 34.5876 23.7218 34.5739H23.3117C20.0557 34.587 17.5165 34.2759 15.6942 33.6405C13.8718 33.0051 12.5784 31.9649 11.8141 30.52C11.0503 29.0721 10.6342 27.1404 10.5659 24.7248C10.5035 23.8133 10.5035 22.8985 10.5659 21.9869C10.6041 20.6781 10.7113 19.3722 10.8868 18.0747C11.0545 16.8809 11.2051 16.0615 11.3683 15.2217C11.4574 14.7866 11.4824 14.6493 11.5306 14.4683C11.5544 14.3701 11.6103 14.2827 11.6894 14.2199C11.7685 14.157 11.8664 14.1224 11.9674 14.1215H12.0289L14.8819 14.5673C14.9862 14.5863 15.0805 14.6414 15.1483 14.7229C15.2161 14.8043 15.2531 14.9071 15.2528 15.0131C15.2546 15.0359 15.2546 15.0589 15.2528 15.0817L15.1013 15.8645C14.958 16.6521 14.8142 17.653 14.6697 18.8673C14.5218 20.1146 14.4432 21.3692 14.4344 22.6252C14.4177 25.0283 14.6593 26.8064 15.1592 27.9594C15.4121 28.5289 15.7973 29.0298 16.2828 29.4203C16.7684 29.8108 17.3402 30.0796 17.9507 30.2044C19.6306 30.5592 21.3467 30.713 23.0629 30.6627H23.9768C25.691 30.7122 27.405 30.5578 29.0827 30.2026C29.6911 30.0754 30.2604 29.8049 30.7434 29.4137C31.2263 29.0225 31.6091 28.5219 31.86 27.9532C32.367 26.7989 32.6086 25.0223 32.5848 22.6234C32.5758 21.3675 32.4984 20.113 32.353 18.8655C32.2056 17.6542 32.0603 16.6532 31.917 15.8627L31.7663 15.0799C31.7646 15.0571 31.7646 15.0341 31.7663 15.0113C31.765 14.9044 31.802 14.8006 31.8708 14.7188C31.9395 14.637 32.0353 14.5826 32.1408 14.5655L34.9938 14.1197H35.0669C35.1683 14.1192 35.2669 14.1533 35.3463 14.2164C35.4257 14.2794 35.4813 14.3677 35.5038 14.4665C35.5528 14.6493 35.576 14.7848 35.6669 15.2199C35.8292 16.0776 35.9808 16.8943 36.1475 18.0729C36.3238 19.3704 36.4312 20.6763 36.4693 21.9851C36.5298 22.8974 36.5286 23.8127 36.4658 24.7248H36.4676Z" fill="black"/>
</g>
<defs>
<clipPath id="clip0_201_6397">
<rect width="45.4697" height="45.648" fill="white" transform="translate(0.773926 0.295959)"/>
</clipPath>
</defs>
</svg>
