<svg width="41" height="46" viewBox="0 0 41 46" fill="none" xmlns="http://www.w3.org/2000/svg">
<path d="M16.1418 21.0527C16.2366 21.0528 16.3293 21.0247 16.4081 20.9722C16.487 20.9196 16.5485 20.8448 16.5849 20.7573C16.7825 19.8868 17.2469 19.0996 17.9134 18.5056C18.0242 18.4318 18.0611 18.2842 18.0611 18.1364C18.0564 18.076 18.0372 18.0175 18.005 17.9661C17.9729 17.9147 17.9288 17.8718 17.8765 17.8411L7.46685 11.7502L14.1116 7.87427C14.2421 7.79899 14.3512 7.69169 14.4287 7.56251C14.5062 7.43333 14.5495 7.28653 14.5545 7.13597C14.5573 6.98376 14.5173 6.83382 14.4389 6.70328C14.3606 6.57273 14.2472 6.46683 14.1116 6.39766L12.1182 5.25307C11.9885 5.18047 11.8424 5.14234 11.6937 5.14234C11.5451 5.14234 11.3989 5.18047 11.2692 5.25307L2.33573 10.4211C2.20524 10.4964 2.09608 10.6037 2.01857 10.7329C1.94105 10.862 1.89774 11.0088 1.89271 11.1594V21.4219C1.88993 21.5741 1.92999 21.7241 2.00833 21.8546C2.08666 21.9852 2.20011 22.091 2.33573 22.1602L4.32909 23.3045C4.46255 23.3844 4.61667 23.4229 4.77201 23.4153C4.99023 23.4212 5.20214 23.3417 5.36267 23.1938C5.52218 23.0229 5.61407 22.7999 5.62123 22.5662V14.9622L15.9573 21.0159C16.015 21.0426 16.0783 21.0553 16.1418 21.0527ZM29.6528 33.973C29.499 33.9789 29.3482 34.0166 29.2097 34.0837L22.5651 37.9229V25.9625C22.5651 25.7039 22.3065 25.4454 22.0114 25.5564C21.1701 25.8084 20.2753 25.8212 19.4272 25.5933C19.3635 25.5748 19.2964 25.5713 19.2311 25.5828C19.1658 25.5944 19.104 25.6209 19.0505 25.6601C18.997 25.6993 18.9532 25.7503 18.9226 25.8091C18.8919 25.868 18.8751 25.9331 18.8736 25.9994V37.8859L12.2289 34.0468C12.0954 33.9669 11.9412 33.9284 11.7858 33.9361C11.5614 33.9386 11.3469 34.0288 11.1883 34.1875C11.0296 34.3462 10.9393 34.5607 10.9368 34.7851V37.1107C10.934 37.263 10.9741 37.4129 11.0524 37.5434C11.1307 37.674 11.2442 37.7799 11.3798 37.849L20.3133 42.9802C20.4467 43.0601 20.6009 43.0986 20.7562 43.091C20.9105 43.0894 21.0623 43.0514 21.1992 42.9802L30.1327 37.849C30.2632 37.7738 30.3723 37.6665 30.4498 37.5373C30.5273 37.4081 30.5706 37.2613 30.5756 37.1107V34.7851C30.5022 34.3791 30.0957 33.973 29.6528 33.973ZM26.3303 7.25017C26.7359 7.25017 27.1324 7.12991 27.4696 6.90459C27.8068 6.67927 28.0696 6.35901 28.2248 5.98431C28.3801 5.60961 28.4207 5.19731 28.3415 4.79953C28.2624 4.40175 28.0671 4.03637 27.7803 3.74959C27.4936 3.46281 27.1282 3.26751 26.7304 3.18839C26.3326 3.10927 25.9203 3.14988 25.5456 3.30508C25.1709 3.46028 24.8507 3.72311 24.6253 4.06033C24.4 4.39755 24.2798 4.79401 24.2798 5.19958C24.2798 5.74343 24.4958 6.26501 24.8804 6.64957C25.2649 7.03413 25.7865 7.25017 26.3303 7.25017ZM32.0031 6.35094C31.5975 6.35094 31.2011 6.47121 30.8638 6.69653C30.5266 6.92185 30.2638 7.24211 30.1086 7.61681C29.9534 7.99151 29.9128 8.40381 29.9919 8.80159C30.071 9.19936 30.2663 9.56475 30.5531 9.85153C30.8399 10.1383 31.2053 10.3336 31.603 10.4127C32.0008 10.4919 32.4131 10.4512 32.7878 10.296C33.1625 10.1408 33.4828 9.87801 33.7081 9.54079C33.9334 9.20357 34.0537 8.80711 34.0537 8.40154C34.0537 7.85769 33.8376 7.33611 33.4531 6.95155C33.0685 6.56699 32.5469 6.35094 32.0031 6.35094ZM37.6362 13.8121C38.0417 13.8121 38.4382 13.6918 38.7754 13.4665C39.1126 13.2412 39.3755 12.9209 39.5307 12.5462C39.6859 12.1715 39.7265 11.7592 39.6474 11.3614C39.5682 10.9637 39.3729 10.5983 39.0861 10.3115C38.7994 10.0247 38.434 9.82941 38.0362 9.75029C37.6384 9.67117 37.2261 9.71177 36.8514 9.86698C36.4767 10.0222 36.1565 10.285 35.9312 10.6222C35.7058 10.9594 35.5856 11.3559 35.5856 11.7615C35.5856 12.3053 35.8016 12.8269 36.1862 13.2115C36.5707 13.596 37.0923 13.8121 37.6362 13.8121ZM32.0031 12.9918C31.5975 12.9918 31.2011 13.1121 30.8638 13.3374C30.5266 13.5627 30.2638 13.883 30.1086 14.2577C29.9534 14.6324 29.9128 15.0447 29.9919 15.4425C30.071 15.8403 30.2663 16.2056 30.5531 16.4924C30.8399 16.7792 31.2053 16.9745 31.603 17.0536C32.0008 17.1327 32.4131 17.0921 32.7878 16.9369C33.1625 16.7817 33.4828 16.5189 33.7081 16.1817C33.9334 15.8445 34.0537 15.448 34.0537 15.0424C34.0537 14.4986 33.8376 13.977 33.4531 13.5924C33.0685 13.2079 32.5469 12.9918 32.0031 12.9918ZM26.3303 20.4136C26.7359 20.4136 27.1324 20.2933 27.4696 20.068C27.8068 19.8426 28.0696 19.5224 28.2248 19.1477C28.3801 18.773 28.4207 18.3607 28.3415 17.9629C28.2624 17.5651 28.0671 17.1998 27.7803 16.913C27.4936 16.6262 27.1282 16.4309 26.7304 16.3518C26.3326 16.2726 25.9203 16.3133 25.5456 16.4685C25.1709 16.6237 24.8507 16.8865 24.6253 17.2237C24.4 17.5609 24.2798 17.9574 24.2798 18.363C24.2797 18.6323 24.3327 18.899 24.4357 19.1478C24.5388 19.3966 24.6898 19.6227 24.8802 19.8132C25.0707 20.0036 25.2967 20.1547 25.5455 20.2578C25.7943 20.3609 26.061 20.4139 26.3303 20.4139V20.4136ZM20.7961 23.6551C21.2016 23.6551 21.5981 23.5348 21.9353 23.3095C22.2725 23.0842 22.5354 22.7639 22.6906 22.3892C22.8458 22.0145 22.8864 21.6022 22.8073 21.2045C22.7281 20.8067 22.5328 20.4413 22.2461 20.1545C21.9593 19.8677 21.5939 19.6724 21.1961 19.5933C20.7983 19.5142 20.386 19.5548 20.0113 19.71C19.6366 19.8652 19.3164 20.128 19.0911 20.4653C18.8657 20.8025 18.7455 21.1989 18.7455 21.6045C18.7454 21.8738 18.7984 22.1405 18.9015 22.3893C19.0045 22.6382 19.1555 22.8643 19.3459 23.0547C19.5364 23.2452 19.7624 23.3963 20.0113 23.4993C20.2601 23.6024 20.5267 23.6555 20.7961 23.6555V23.6551ZM37.6362 16.3124C37.2306 16.3124 36.8341 16.4326 36.4969 16.658C36.1597 16.8833 35.8969 17.2035 35.7417 17.5782C35.5865 17.9529 35.5458 18.3652 35.625 18.763C35.7041 19.1608 35.8994 19.5262 36.1862 19.813C36.473 20.0997 36.8383 20.295 37.2361 20.3742C37.6339 20.4533 38.0462 20.4127 38.4209 20.2575C38.7956 20.1023 39.1158 19.8394 39.3412 19.5022C39.5665 19.165 39.6868 18.7685 39.6868 18.363C39.6867 17.8192 39.4706 17.2977 39.086 16.9132C38.7015 16.5287 38.18 16.3127 37.6362 16.3127V16.3124ZM37.6362 22.7559C37.2306 22.7559 36.8341 22.8761 36.4969 23.1015C36.1597 23.3268 35.8969 23.647 35.7417 24.0217C35.5865 24.3964 35.5458 24.8087 35.625 25.2065C35.7041 25.6043 35.8994 25.9697 36.1862 26.2564C36.473 26.5432 36.8383 26.7385 37.2361 26.8177C37.6339 26.8968 38.0462 26.8562 38.4209 26.701C38.7956 26.5458 39.1158 26.2829 39.3412 25.9457C39.5665 25.6085 39.6868 25.212 39.6868 24.8065C39.6867 24.2627 39.4706 23.7412 39.086 23.3567C38.7015 22.9722 38.18 22.7562 37.6362 22.7562V22.7559Z" fill="black"/>
</svg>
