<svg width="58" height="46" viewBox="0 0 58 46" fill="none" xmlns="http://www.w3.org/2000/svg">
<g clip-path="url(#clip0_201_6387)">
<path d="M36.0182 4.74492C28.9035 19.0188 28.4756 18.3412 28.1814 20.1868L27.7178 23.1111C27.5484 24.181 27.1293 25.2063 26.4963 26.0889L13.2209 44.6156C12.5434 45.5606 11.4022 46.0599 10.2431 45.9173C6.65013 45.4715 3.30677 43.0464 1.74654 39.8101C1.23835 38.758 1.34533 37.5098 2.02292 36.5648L15.2983 18.0292C15.9313 17.1466 16.7604 16.4244 17.7233 15.9162L20.3356 14.5343C21.985 13.6605 21.2004 13.4733 32.4252 2.15047C32.5144 1.72252 32.5144 1.49963 32.7462 1.43722C33.0136 1.37481 33.3346 1.34807 33.3078 1.0271L33.2722 0.616985C33.2544 0.447588 33.3881 0.296023 33.5575 0.296023C33.9587 0.287107 34.7343 0.40301 35.8399 1.18758C36.9365 1.98108 37.302 2.68541 37.4179 3.06878C37.4714 3.22926 37.3645 3.39866 37.204 3.44324L36.8028 3.54131C36.4996 3.62155 36.5799 3.9336 36.5977 4.20107C36.6066 4.4507 36.3927 4.52203 36.0182 4.74492ZM20.7546 3.54131C21.0578 3.62155 20.9775 3.9336 20.9597 4.20107C20.9419 4.44179 21.1469 4.51311 21.5303 4.736C22.2346 6.15359 22.8944 7.45527 23.5096 8.65888C23.572 8.77478 23.7146 8.79261 23.8038 8.70345C24.8023 7.63358 25.997 6.36756 27.4146 4.9054C27.5305 4.78058 27.5394 4.59335 27.4235 4.46853C26.7103 3.73745 25.9525 2.96179 25.1411 2.14156C25.052 1.72252 25.052 1.49072 24.8202 1.42831C24.5527 1.35698 24.2317 1.33915 24.2585 1.01819C24.2852 0.723972 24.3833 0.296023 24.0089 0.287107C23.6076 0.278191 22.832 0.385179 21.7264 1.17867C20.6298 1.97216 20.2643 2.67649 20.1484 3.05987C20.0236 3.43432 20.4693 3.46998 20.7546 3.54131ZM55.5167 36.5559L42.2502 18.0203C41.0734 16.3709 39.8787 15.934 37.2218 14.5343C36.2233 14.0083 35.9558 13.5625 34.5025 11.9577C34.4134 11.8596 34.244 11.8774 34.1816 12.0022C30.0536 19.9193 29.9823 19.3844 29.8129 20.4542C29.6614 21.4082 29.697 22.2374 29.8397 23.1111C30.0091 24.181 30.4281 25.2063 31.0611 26.0889L44.3365 44.6245C45.0141 45.5696 46.1374 46.0688 47.2875 45.9351C50.8805 45.4982 54.2417 43.0821 55.8198 39.819C56.3012 38.758 56.2032 37.5098 55.5167 36.5559Z" fill="black"/>
</g>
<defs>
<clipPath id="clip0_201_6387">
<rect width="57.06" height="45.648" fill="white" transform="translate(0.23999 0.295959)"/>
</clipPath>
</defs>
</svg>
