<svg width="35" height="46" viewBox="0 0 35 46" fill="none" xmlns="http://www.w3.org/2000/svg">
<g clip-path="url(#clip0_201_6385)">
<path d="M9.20563 27.3103C8.74201 27.6313 6.29913 28.4783 6.29913 25.6164V16.3441H3.38372V25.4916C3.38372 32.1694 10.5341 30.0474 12.1121 28.9686V16.3441H9.20563V27.3103ZM0.361328 6.96667V26.6613C0.361328 35.9068 7.03913 38.7152 17.096 43.0749C27.1171 38.7152 33.8306 35.9246 33.8306 26.6613V6.96667C23.4617 1.47465 8.70635 2.54453 0.361328 6.96667ZM32.2882 26.6613C32.2882 34.3822 27.5451 36.7894 17.096 41.3988C6.6201 36.7805 1.89482 34.3822 1.89482 26.6613V15.3919C11.0155 7.02908 22.5434 6.47631 32.2882 7.38571V26.6613ZM13.601 17.0859V36.0583H16.5164V29.9333C18.6918 30.5842 22.9089 29.7015 22.9089 22.9346C22.9089 14.2507 15.714 15.72 13.601 17.0859ZM16.5164 27.5439V18.6016C17.2654 18.2271 19.94 17.4693 19.94 22.997C19.94 29.0507 16.6947 27.6153 16.5164 27.5439ZM23.5687 19.8408C23.5776 24.0579 28.1692 23.63 28.2227 26.1174C28.2761 28.2126 25.5123 28.168 23.6935 26.5543V29.2379C26.921 31.1548 30.9954 29.9601 31.1113 26.2512C31.2629 21.6596 26.288 22.0965 26.3504 19.7249C26.4039 17.9151 29.0786 17.8972 30.6744 19.5288V16.9967C28.1335 15.0353 23.5509 16.1765 23.5687 19.8408Z" fill="black"/>
</g>
<defs>
<clipPath id="clip0_201_6385">
<rect width="34.236" height="45.648" fill="white" transform="translate(0.00390625 0.295959)"/>
</clipPath>
</defs>
</svg>
