<svg width="58" height="46" viewBox="0 0 58 46" fill="none" xmlns="http://www.w3.org/2000/svg">
<g clip-path="url(#clip0_201_6383)">
<path d="M58.1376 23.12C58.1376 23.3964 57.986 23.6639 57.7364 23.7887L49.7925 28.5585C49.6677 28.6299 49.5429 28.6834 49.3913 28.6834C49.2665 28.6834 49.115 28.6566 48.9901 28.5853C48.7405 28.4337 48.5889 28.1841 48.5889 27.8899V24.7159H27.3073C29.563 28.2465 30.9182 34.2467 33.5126 34.2467H35.8931V31.8573C35.8931 31.4115 36.2408 31.0638 36.6866 31.0638H44.6304C45.0762 31.0638 45.4239 31.4115 45.4239 31.8573V39.8011C45.4239 40.2469 45.0762 40.5946 44.6304 40.5946H36.6866C36.2408 40.5946 35.8931 40.2469 35.8931 39.8011V37.4207H33.5126C26.7902 37.4207 26.282 24.7159 22.3948 24.7159H13.4525C12.7303 27.4441 10.2518 29.4858 7.30069 29.4858C3.79685 29.4768 0.943848 26.6238 0.943848 23.12C0.943848 19.6162 3.79685 16.7632 7.30069 16.7632C10.2518 16.7632 12.7392 18.7959 13.4525 21.533C16.9385 21.533 17.3664 22.38 20.1035 16.148C23.6787 8.20417 25.2835 8.82826 29.8126 8.82826C30.4813 6.96489 32.2199 5.6543 34.3061 5.6543C36.9362 5.6543 39.076 7.78513 39.076 10.4242C39.076 13.0632 36.9451 15.194 34.3061 15.194C32.2199 15.194 30.4813 13.8745 29.8126 12.0201H27.1558C24.5613 12.0201 23.2062 18.0292 20.9505 21.5509H48.5979V18.3769C48.5979 18.0827 48.7494 17.833 48.9991 17.6815C49.2487 17.5299 49.5697 17.5567 49.7925 17.7082L57.7364 22.4781C57.986 22.5762 58.1376 22.8436 58.1376 23.12Z" fill="black"/>
</g>
<defs>
<clipPath id="clip0_201_6383">
<rect width="57.06" height="45.648" fill="white" transform="translate(0.943848 0.295959)"/>
</clipPath>
</defs>
</svg>
