<svg width="52" height="46" viewBox="0 0 52 46" fill="none" xmlns="http://www.w3.org/2000/svg">
<path d="M41.6275 21.845C43.9277 18.1629 42.9827 17.4942 40.5844 17.4942H38.1771C38.1682 17.4942 38.0434 17.3694 37.2053 18.2075C36.2068 18.7067 33.8263 18.7692 33.8263 18.9831C33.8263 19.3843 40.094 18.7067 41.681 18.9831C42.528 19.1169 41.5472 20.8019 41.2887 21.8361C41.2441 22.2373 41.5027 22.0412 41.6275 21.845ZM31.6331 23.86C37.3391 21.9609 40.308 21.7291 40.727 21.5241C41.1193 21.2655 40.3347 20.9356 38.3911 21.007C33.7817 21.2031 26.1232 24.3147 23.0028 25.8125L20.2657 17.4942H37.7938C37.553 14.98 24.1618 15.4793 7.66788 15.4793L2.99609 37.3671C20.5064 28.6922 26.0786 25.7501 31.6331 23.86ZM9.03197 8.85498C31.6152 13.6427 38.4535 14.7125 38.6408 16.4511C41.886 16.4511 42.733 16.4511 43.3125 17.0395C45.1937 18.7959 42.0109 23.0754 42.0109 23.0754C41.6186 23.334 5.77777 37.3582 5.77777 37.3582H43.4998L49.5356 8.85498H9.03197Z" fill="black"/>
</svg>
