<svg width="47" height="46" viewBox="0 0 47 46" fill="none" xmlns="http://www.w3.org/2000/svg">
<g clip-path="url(#clip0_201_6379)">
<path d="M14.9213 25.7144L15.4295 26.9982H14.6985C14.5826 26.7129 14.4221 26.3117 14.3597 26.1513C14.1368 25.5896 14.2616 25.4024 14.3597 25.2597C14.5291 25.019 14.645 24.8674 14.6806 24.7961C14.6806 24.9922 14.752 25.3043 14.9213 25.7144ZM41.4275 27.3905C41.2403 28.6209 40.9193 29.8067 40.4914 30.93L44.3251 33.0163L40.3309 31.3402C39.8583 32.517 39.261 33.6226 38.5567 34.6568L41.6058 37.3493L38.3249 34.9956C37.5759 36.0476 36.72 37.0105 35.7661 37.8753L37.9861 40.969L35.4808 38.1339C34.5001 38.9898 33.4213 39.7387 32.2622 40.3717L33.662 43.6883L31.9413 40.5411C30.7733 41.1473 29.5341 41.6199 28.2324 41.9587L28.8297 45.3823L27.8936 42.0478C26.6186 42.3509 25.2902 42.5203 23.9261 42.5293L23.7656 45.9439L23.5962 42.5203C22.2322 42.5114 20.9037 42.342 19.6288 42.0478L18.6837 45.3733L19.2811 41.9676C17.9794 41.6377 16.7312 41.1563 15.5633 40.5589L13.8515 43.6883L15.2423 40.3895C14.0833 39.7654 12.9956 39.0165 12.0149 38.1517L9.5274 40.969L11.7296 37.9021C10.7756 37.0372 9.91077 36.0744 9.16185 35.0223L5.90765 37.3582L8.93005 34.6924C8.22571 33.6582 7.62837 32.5438 7.14692 31.3669L3.18839 33.0341L6.98644 30.9657C6.55849 29.8334 6.23753 28.6387 6.0503 27.4084L1.50333 28.2108L5.98789 26.9448C5.88982 26.1869 5.83633 25.4202 5.83633 24.6356C5.83633 24.2166 5.85416 23.7975 5.88091 23.3785L0.94165 23.12L5.9344 22.8703C6.0503 21.7024 6.27319 20.5701 6.60307 19.4735L1.51225 18.038L6.76355 18.9653C7.12018 17.8954 7.57487 16.8701 8.11873 15.8983L3.20622 13.2236L8.40403 15.4169C8.96571 14.4718 9.60764 13.5981 10.3298 12.7778L5.91657 8.89062L10.7221 12.341C11.4443 11.5742 12.2377 10.8699 13.0936 10.2369L9.5274 5.27979L13.5929 9.88025C14.4399 9.29182 15.3493 8.78363 16.2944 8.34677L13.8604 2.56053L16.8739 8.09713C17.81 7.70484 18.7818 7.3928 19.7893 7.1699L18.6837 0.866559L20.4223 7.03617C21.403 6.84894 22.4105 6.75087 23.4358 6.73304L23.7656 0.295959L24.0866 6.73304C25.1119 6.75087 26.1194 6.85786 27.1001 7.04509L28.8475 0.866559L27.742 7.1699C28.7495 7.40171 29.7213 7.71376 30.6485 8.10604L33.6709 2.56053L31.228 8.3646C32.1731 8.80146 33.0736 9.31857 33.9205 9.89808L38.0039 5.27979L34.4287 10.2636C35.2757 10.8966 36.0692 11.601 36.7914 12.3677L41.6236 8.89954L37.1926 12.8135C37.9058 13.6248 38.5477 14.4985 39.1094 15.4347L44.3429 13.2325L39.3947 15.925C39.9386 16.8968 40.3844 17.9132 40.741 18.9831L46.028 18.0559L40.9015 19.5002C41.2313 20.5879 41.4542 21.7202 41.5701 22.8792L46.5896 23.12L41.5969 23.3696C41.6236 23.7797 41.6415 24.1987 41.6415 24.6267C41.6415 25.4024 41.588 26.1691 41.4988 26.9269L46.019 28.2019L41.4275 27.3905ZM39.4839 24.6267C39.4839 15.934 32.4405 8.89062 23.7478 8.89062C15.0551 8.89062 8.01174 15.934 8.01174 24.6267C8.01174 33.3194 15.0551 40.3628 23.7478 40.3628C32.4405 40.3628 39.4839 33.3194 39.4839 24.6267ZM37.3441 24.6267C37.3441 32.1426 31.2548 38.2319 23.7389 38.2319C16.223 38.2319 10.1337 32.1426 10.1337 24.6267C10.1337 17.1108 16.223 11.0215 23.7389 11.0215C31.2548 11.0215 37.3441 17.1108 37.3441 24.6267ZM18.3271 21.7826C18.3271 21.9698 18.443 22.1214 18.6481 22.2373C18.9423 22.4067 19.2008 22.6474 19.3792 22.9684C19.6288 22.4602 19.7625 22.1214 19.7625 21.9698C19.7625 21.7737 19.6645 21.5776 19.4772 21.3457C19.29 21.1229 19.1919 20.8821 19.183 20.6592C18.6035 21.2655 18.3271 21.631 18.3271 21.7826ZM14.6985 20.0886C14.6985 20.2759 14.8144 20.4274 15.0194 20.5433C15.3315 20.7127 15.5722 20.9535 15.7505 21.2744C16.0001 20.7662 16.1339 20.4274 16.1339 20.2759C16.1339 20.0797 16.0358 19.8836 15.8486 19.6518C15.6613 19.4289 15.5633 19.1882 15.5544 18.9653C14.9748 19.5715 14.6985 19.9371 14.6985 20.0886ZM13.0045 20.0886C13.0045 20.2759 13.1204 20.4274 13.3254 20.5433C13.6197 20.7127 13.8782 20.9535 14.0565 21.2744C14.3062 20.7662 14.4399 20.4274 14.4399 20.2759C14.4399 20.0797 14.3418 19.8836 14.1546 19.6518C13.9674 19.4289 13.8693 19.1882 13.8604 18.9653C13.2898 19.5715 13.0045 19.9371 13.0045 20.0886ZM31.2726 27.9255C30.5237 27.658 30.4969 27.3192 30.4969 26.5346V16.5224C29.7659 17.6368 29.2309 18.1807 28.8921 18.1807C29.4538 19.4645 29.7391 20.3115 29.7391 20.7038V26.4366C29.7391 26.6327 29.543 27.0161 29.3201 27.0161H27.7153C27.4656 26.3474 26.8059 24.6178 26.3512 23.4231C26.1729 23.646 25.7092 24.2433 25.3972 24.6445C25.6112 24.7872 25.7627 24.9655 25.8608 25.2062C26.0926 25.8036 26.4314 26.6773 26.5651 27.0072H25.7449C25.3972 26.0799 24.889 24.7426 24.6929 24.2344C24.5146 24.4573 24.0509 25.0546 23.7389 25.4558C23.9529 25.5985 24.1044 25.7768 24.2025 26.0175C24.2738 26.1958 24.4521 26.6684 24.5859 26.9893H23.7656C23.6319 26.6238 23.2664 25.6877 23.0167 25.0279C22.8384 25.2508 22.3748 25.8481 22.0628 26.2493C22.2857 26.392 22.4461 26.5703 22.5264 26.811C22.5442 26.8645 22.5709 26.9358 22.5799 26.9626H21.0018C20.5917 25.7233 19.9854 24.493 19.9854 23.9224C19.9854 23.7262 20.0122 23.4677 20.0835 23.1913C19.2989 24.1542 18.8353 24.6089 18.8353 25.4202C18.8353 26.0889 19.7625 27.9433 19.7625 28.3891C19.7625 28.5407 19.718 28.6833 19.6377 28.826C18.7818 27.6937 18.2558 26.9804 17.9616 26.9804H16.8917L15.8931 24.484C15.5544 23.6281 15.385 23.0575 15.385 22.8079C15.385 22.4691 15.4295 22.1214 15.5365 21.7202C15.4474 21.8361 15.2066 22.1392 15.0462 22.3532C14.9748 22.166 14.7698 21.6667 14.636 21.3279C14.4488 21.5508 13.9674 22.1392 13.6375 22.5404C13.7177 22.7455 13.9317 23.2626 14.0744 23.6281C13.8515 23.9224 13.263 24.6802 12.8618 25.2062C12.5052 25.6787 12.3447 26.392 12.6211 27.1498C12.844 27.7472 12.7994 27.8541 12.4696 28.4069H17.9705C18.4608 28.4069 19.2454 29.6551 19.3524 30.3684C20.5293 28.9419 20.7254 28.6209 20.8502 28.4426H30.3899C30.7377 28.4426 31.0319 28.2732 31.2726 27.9255ZM33.0646 25.5539V16.4956C32.2622 17.6101 31.6471 18.154 31.2191 18.154C31.8521 19.4378 32.1731 20.2848 32.1731 20.6771V26.5881C32.1731 28.1484 32.9398 28.4069 34.3128 28.4069C35.035 28.4069 35.4273 28.3356 35.5343 28.1662C35.1509 28.0235 34.8567 27.9433 34.6516 27.872C33.9295 27.5867 33.0646 27.2122 33.0646 25.5539Z" fill="black"/>
</g>
<defs>
<clipPath id="clip0_201_6379">
<rect width="45.648" height="45.648" fill="white" transform="translate(0.941895 0.295959)"/>
</clipPath>
</defs>
</svg>
