<svg width="40" height="46" viewBox="0 0 40 46" fill="none" xmlns="http://www.w3.org/2000/svg">
<g clip-path="url(#clip0_201_6377)">
<path d="M20.0156 12.8403C20.1493 11.2711 20.4524 8.14174 24.4556 8.14174H33.2464C35.0919 8.14174 36.1083 7.44632 36.1083 6.21596V5.11934C36.1083 4.03163 36.9374 3.14899 38.0251 3.14899C39.1128 3.14899 39.942 4.03163 39.942 5.11934V8.37354C39.942 12.1983 38.0251 13.9012 33.9864 13.9012H25.0262C22.3426 13.9012 22.084 15.2118 22.084 16.3174C22.084 16.4333 22.0751 16.5403 22.0662 16.6472C22.0038 17.7439 21.0944 18.6265 19.9799 18.6265C18.8655 18.6265 17.9561 17.7528 17.8937 16.6472C17.8847 16.5403 17.8758 16.4333 17.8758 16.3174C17.8758 15.2207 17.6084 13.9012 14.9337 13.9012H5.95564C1.91686 13.9012 0 12.1983 0 8.37354V5.11934C0 4.03163 0.838069 3.14899 1.92577 3.14899C3.01348 3.14899 3.84263 4.03163 3.84263 5.11934V6.21596C3.84263 7.44632 4.85901 8.14174 6.70455 8.14174H15.4954C19.4896 8.14174 19.8016 11.2711 19.9353 12.8403H20.0156ZM19.971 40.9512C20.9963 40.9512 21.8789 40.3271 22.2623 39.498C22.3604 39.3375 30.9194 24.3771 31.0175 24.2166C32.0784 22.4691 30.7322 20.267 28.5924 20.267C27.3531 20.267 26.5151 20.8376 25.9355 22.0769L19.971 32.5705L14.0064 22.0769C13.4358 20.8376 12.5889 20.267 11.3496 20.267C9.20984 20.267 7.86358 22.4602 8.92454 24.2166C9.02261 24.386 17.5816 39.3375 17.6797 39.498C18.0631 40.3271 18.9457 40.9512 19.971 40.9512Z" fill="black"/>
</g>
<defs>
<clipPath id="clip0_201_6377">
<rect width="39.942" height="45.648" fill="white" transform="translate(0 0.295959)"/>
</clipPath>
</defs>
</svg>
