<svg width="41" height="47" viewBox="0 0 41 47" fill="none" xmlns="http://www.w3.org/2000/svg">
<g clip-path="url(#clip0_201_6371)">
<path d="M25.5231 14.066V14.1284C23.9272 9.43875 21.7251 4.90962 19.2108 0.647949C23.0713 3.25131 25.1843 9.56357 25.5231 14.066ZM28.4385 24.9163C29.1161 26.5389 29.4192 28.2596 29.4192 29.9982C29.4192 36.9256 24.266 42.5692 17.1335 42.4266L17.4723 42.3998C24.0877 38.2362 27.2171 31.8259 27.2171 24.1139C27.2171 20.717 26.6376 17.3469 25.532 14.1284C25.6212 15.1715 25.6212 16.2414 25.6212 17.2845C25.6212 25.469 24.0075 38.8246 15.2256 42.2482C9.368 41.2319 5.30247 36.1321 5.30247 29.9982C5.30247 23.258 10.42 17.3112 17.3742 17.3112C18.8721 17.3112 20.3788 17.5876 21.7518 18.1671C21.9034 16.8209 22.3313 15.5014 22.9465 14.3067C21.1723 13.6648 19.2733 13.3527 17.3742 13.3527C2.9755 13.3527 -3.90736 30.8184 5.79283 41.321C11.8465 47.9721 22.9108 47.9097 28.9556 41.321C34.0019 35.8557 34.3852 28.6252 32.2009 23.4006C31.0686 24.1139 29.7848 24.6399 28.4385 24.9163ZM38.1744 1.69108C35.4105 7.61997 30.926 5.89925 27.8501 8.83249C26.7445 9.90237 26.0135 11.8638 26.0135 13.3349C26.0135 14.592 26.4147 15.751 27.0833 16.7941C31.3093 15.8134 35.8474 12.693 37.6216 8.70767C37.5592 9.19803 37.1937 9.99152 36.9797 10.4195C35.1698 13.6024 31.2202 16.2681 28.0908 17.9888C29.4103 19.2727 31.0954 20.2891 32.9944 20.2891C40.0377 20.2891 42.8105 8.28864 38.1744 1.69108Z" fill="black"/>
</g>
<defs>
<clipPath id="clip0_201_6371">
<rect width="39.942" height="45.648" fill="white" transform="translate(0.899902 0.647949)"/>
</clipPath>
</defs>
</svg>
