<svg width="46" height="47" viewBox="0 0 46 47" fill="none" xmlns="http://www.w3.org/2000/svg">
<g clip-path="url(#clip0_201_6369)">
<path d="M39.8372 5.09684C38.7049 4.05371 34.1222 0.728185 23.9049 0.683607C23.9049 0.683607 11.8599 -0.0385588 5.99346 5.34648C2.73034 8.6096 1.58023 13.3973 1.45541 19.3262C1.33059 25.2551 1.17902 36.3639 11.8867 39.3774H11.8956L11.8867 43.9779C11.8867 43.9779 11.8154 45.8412 13.0457 46.2157C14.5257 46.6793 15.3994 45.2617 16.817 43.7371C17.5927 42.8991 18.6626 41.6687 19.4739 40.7326C26.8025 41.3478 32.4283 39.9391 33.0702 39.734C34.5502 39.2526 42.922 38.1827 44.2771 27.0738C45.6858 15.6084 43.5996 8.36887 39.8372 5.09684ZM41.0764 26.2358C39.9263 35.508 33.1415 36.0965 31.8933 36.4977C31.3584 36.6671 26.4102 37.8974 20.196 37.4962C20.196 37.4962 15.5599 43.0863 14.1156 44.5396C13.6431 45.0121 13.126 44.9675 13.1349 44.0314C13.1349 43.4162 13.1705 36.3907 13.1705 36.3907C13.1616 36.3907 13.1616 36.3907 13.1705 36.3907C4.09443 33.8765 4.62937 24.417 4.72744 19.4688C4.82551 14.5207 5.76165 10.464 8.5255 7.73586C13.4915 3.23347 23.7177 3.90215 23.7177 3.90215C32.357 3.93781 36.4938 6.54117 37.4567 7.4149C40.6396 10.1431 42.2622 16.6693 41.0764 26.2358ZM28.6837 19.032C28.7194 19.7987 27.5693 19.8522 27.5336 19.0855C27.4355 17.124 26.5172 16.17 24.6271 16.0631C23.8604 16.0185 23.9317 14.8684 24.6895 14.9129C27.177 15.0467 28.5589 16.4732 28.6837 19.032ZM30.4936 20.0394C30.5828 16.2592 28.2201 13.2992 23.7355 12.9693C22.9777 12.9158 23.058 11.7657 23.8158 11.8192C28.9869 12.1937 31.7418 15.751 31.6437 20.0662C31.6348 20.8329 30.4758 20.7973 30.4936 20.0394ZM34.6839 21.2341C34.6929 22.0009 33.5338 22.0098 33.5338 21.243C33.4803 13.9768 28.6391 10.0183 22.7637 9.97369C22.0059 9.96477 22.0059 8.82357 22.7637 8.82357C29.3346 8.86815 34.6215 13.4062 34.6839 21.2341ZM33.6765 29.9803V29.9982C32.7136 31.6921 30.9126 33.5644 29.0582 32.9671L29.0403 32.9403C27.1591 32.4143 22.7281 30.1319 19.9286 27.903C18.4842 26.7618 17.1647 25.4155 16.1484 24.1228C15.23 22.9727 14.3028 21.6086 13.4023 19.9681C11.5033 16.5356 11.0843 15.0021 11.0843 15.0021C10.4869 13.1476 12.3503 11.3467 14.0532 10.3838H14.071C14.8913 9.95585 15.6758 10.0985 16.2018 10.7315C16.2018 10.7315 17.3074 12.051 17.7799 12.7019C18.2257 13.3081 18.823 14.2799 19.1351 14.8238C19.6789 15.7956 19.3401 16.7852 18.8052 17.1953L17.7353 18.0512C17.1915 18.4881 17.2628 19.2994 17.2628 19.2994C17.2628 19.2994 18.8498 25.2996 24.7787 26.8153C24.7787 26.8153 25.59 26.8866 26.0269 26.3428L26.8828 25.2729C27.2929 24.738 28.2825 24.3992 29.2543 24.943C30.5649 25.683 32.2321 26.8331 33.3377 27.8763C33.9618 28.3844 34.1044 29.1601 33.6765 29.9803Z" fill="black"/>
</g>
<defs>
<clipPath id="clip0_201_6369">
<rect width="45.648" height="45.648" fill="white" transform="translate(0.251953 0.647949)"/>
</clipPath>
</defs>
</svg>
