<svg width="41" height="47" viewBox="0 0 41 47" fill="none" xmlns="http://www.w3.org/2000/svg">
<g clip-path="url(#clip0_201_6363)">
<path d="M36.3738 3.50098H4.42022C2.21807 3.50098 0.426025 5.29302 0.426025 7.49518V39.4488C0.426025 41.6509 2.21807 43.443 4.42022 43.443H36.3738C38.576 43.443 40.368 41.6509 40.368 39.4488V7.49518C40.368 5.29302 38.576 3.50098 36.3738 3.50098ZM34.0379 16.7674C33.9131 19.5758 31.9517 23.4274 28.1536 28.3042C24.2307 33.404 20.9052 35.9538 18.1949 35.9538C16.5098 35.9538 15.0922 34.4025 13.9243 31.291C11.6508 22.9727 10.679 18.0959 8.80671 18.0959C8.59274 18.0959 7.83491 18.5505 6.54214 19.451L5.18697 17.7036C8.5125 14.7792 11.6865 11.534 13.6746 11.3556C15.9214 11.1417 17.3033 12.6752 17.8204 15.965C19.6659 27.6623 20.4862 29.4276 23.8474 24.1317C25.051 22.2238 25.7018 20.7705 25.791 19.772C26.103 16.812 23.4818 17.0171 21.7076 17.7749C23.1252 13.1299 25.8356 10.8742 29.8387 10.999C32.8076 11.0793 34.2073 13.005 34.0379 16.7674Z" fill="black"/>
</g>
<defs>
<clipPath id="clip0_201_6363">
<rect width="39.942" height="45.648" fill="white" transform="translate(0.425781 0.647949)"/>
</clipPath>
</defs>
</svg>
