<svg width="58" height="47" viewBox="0 0 58 47" fill="none" xmlns="http://www.w3.org/2000/svg">
<g clip-path="url(#clip0_201_6357)">
<path d="M10.1284 32.0309C7.08814 32.0309 5.99152 29.3206 5.99152 29.3206L1.00769 19.3797C1.00769 19.3797 0.0804604 17.7659 1.93491 17.7659H4.85923C5.78646 17.7659 6.0361 18.5416 6.53537 19.3797L9.8074 26.0218C9.8074 26.0218 10.271 27.1897 11.6886 27.1897C13.1062 27.1897 13.5698 26.0218 13.5698 26.0218L16.8418 19.3797C17.3411 18.5327 17.5907 17.7659 18.518 17.7659H21.4423C23.2967 17.7659 22.3695 19.3797 22.3695 19.3797L17.3946 29.3206C17.3946 29.3206 16.3069 32.0309 13.2578 32.0309H10.1284ZM45.3451 32.0309C42.3048 32.0309 41.2082 29.3206 41.2082 29.3206L36.2244 19.3797C36.2244 19.3797 35.2972 17.7659 37.1516 17.7659H40.0759C41.0032 17.7659 41.2528 18.5416 41.7521 19.3797L45.0241 26.0218C45.0241 26.0218 45.4877 27.1897 46.9053 27.1897C48.3229 27.1897 48.7865 26.0218 48.7865 26.0218L52.0675 19.3797C52.5667 18.5327 52.8164 17.7659 53.7436 17.7659H56.6768C58.5313 17.7659 57.6041 19.3797 57.6041 19.3797L52.6202 29.3206C52.6202 29.3206 51.5325 32.0309 48.4834 32.0309H45.3451ZM30.875 17.7659C33.9152 17.7659 35.0119 20.4763 35.0119 20.4763L39.9957 30.4172C39.9957 30.4172 40.9229 32.0309 39.0685 32.0309H36.1442C35.2169 32.0309 34.9673 31.2553 34.468 30.4172L31.196 23.7751C31.196 23.7751 30.7324 22.6071 29.3148 22.6071C27.8972 22.6071 27.4336 23.7751 27.4336 23.7751L24.1616 30.4172C23.6623 31.2553 23.4126 32.0309 22.4854 32.0309H19.5522C17.6977 32.0309 18.625 30.4172 18.625 30.4172L23.6088 20.4763C23.6088 20.4763 24.6965 17.7659 27.7456 17.7659H30.875Z" fill="black"/>
</g>
<defs>
<clipPath id="clip0_201_6357">
<rect width="57.06" height="45.648" fill="white" transform="translate(0.775879 0.647949)"/>
</clipPath>
</defs>
</svg>
