<svg width="46" height="47" viewBox="0 0 46 47" fill="none" xmlns="http://www.w3.org/2000/svg">
<path d="M23.0093 2.07446C11.1918 2.07446 1.61182 11.6545 1.61182 23.472C1.61182 35.2894 11.1918 44.8695 23.0093 44.8695C34.8268 44.8695 44.4068 35.2894 44.4068 23.472C44.4068 11.6545 34.8268 2.07446 23.0093 2.07446ZM11.0347 38.9069C6.43125 35.3272 3.46101 29.7416 3.46101 23.472C3.46006 21.5344 3.74815 19.6076 4.31575 17.7551L13.4899 16.1596L13.4791 17.1374L12.236 17.3169C12.236 17.3169 12.2232 18.4313 12.2232 19.0598C12.2191 19.2369 12.2563 19.4125 12.332 19.5726C12.4076 19.7328 12.5195 19.8731 12.6589 19.9825L13.503 20.6422L11.0347 38.9069ZM20.4578 13.6516L21.2139 12.9724C21.2139 12.9724 21.8321 12.4927 21.2011 12.1393C20.5603 11.7805 17.6768 9.06342 17.6768 9.06342C17.2 8.57511 16.9406 8.40839 16.2984 9.06342C16.2984 9.06342 13.4149 11.7804 12.7742 12.1393C12.1431 12.4927 12.7613 12.9724 12.7613 12.9724L13.5175 13.6516L13.5132 14.0411L6.95959 12.3314C10.4941 7.25506 16.3684 3.92401 23.0093 3.92401C25.796 3.9237 28.5503 4.52056 31.0869 5.67439C33.6234 6.82821 35.8833 8.51221 37.7142 10.613L20.4614 13.9741L20.4578 13.6516ZM23.4948 43.008L20.4724 20.6425L21.3164 19.9827C21.4558 19.8734 21.5677 19.7331 21.6434 19.5729C21.719 19.4128 21.7563 19.2372 21.7522 19.0601C21.7522 18.432 21.7394 17.3171 21.7394 17.3171L20.4963 17.1377L20.4859 16.2039L42.036 19.0026C42.3816 20.4673 42.5567 21.967 42.5576 23.472C42.5576 34.0881 34.0496 42.7486 23.4948 43.008Z" fill="black"/>
</svg>
