<svg width="47" height="47" viewBox="0 0 47 47" fill="none" xmlns="http://www.w3.org/2000/svg">
<path d="M45.3087 18.6281C46.6032 26.2831 42.5502 33.5992 35.2189 37.1842C36.3779 40.2244 34.1133 43.443 30.9108 43.443C29.7308 43.442 28.5961 42.9884 27.7407 42.1756C26.8852 41.3628 26.3742 40.2527 26.313 39.0743C25.7389 39.0913 20.5892 39.0743 19.5078 39.0173C19.4833 39.6223 19.3399 40.2166 19.0856 40.7662C18.8314 41.3158 18.4713 41.8099 18.026 42.2202C17.5807 42.6306 17.0589 42.9491 16.4905 43.1577C15.922 43.3663 15.318 43.4608 14.7129 43.4358C11.6941 43.3146 9.54633 40.3296 10.5226 37.3803C7.20509 36.2115 4.0552 34.2715 1.64085 31.0681C0.481815 29.5275 1.59805 27.3414 3.49886 27.3414C7.62769 27.3414 6.37148 22.5118 7.34595 17.511C8.9891 9.13565 17.7549 3.50098 26.2221 3.50098C35.3588 3.50098 43.7993 9.80165 45.3087 18.6281ZM33.8378 35.2656C37.5824 33.5555 41.0889 30.2095 42.4227 26.1591C46.0317 15.1849 36.7033 5.83152 26.2221 5.83152C18.782 5.83152 11.037 10.7726 9.63281 17.9568C8.78315 22.3174 10.0786 29.6674 3.50332 29.6674C5.72688 32.6194 8.7038 34.3588 11.8599 35.3779C14.0585 33.4343 17.5543 33.9986 18.9773 36.6564C20.2451 36.7456 26.0376 36.7616 26.8141 36.7295C27.1277 36.117 27.5744 35.5825 28.1216 35.1652C28.6687 34.748 29.3023 34.4585 29.9759 34.3181C30.6495 34.1777 31.3461 34.1899 32.0143 34.3539C32.6826 34.5178 33.3057 34.8293 33.8378 35.2656ZM18.8248 17.3318C18.8248 14.2345 23.3575 14.2336 23.3575 17.3318C23.3575 20.43 18.8248 20.4291 18.8248 17.3318ZM29.2178 17.3318C29.2178 14.2345 33.7522 14.2336 33.7522 17.3318C33.7522 20.43 29.2178 20.43 29.2178 17.3318ZM18.2863 23.6342C17.9796 22.1239 20.2638 21.6568 20.5705 23.1697L20.5758 23.1947C20.945 25.1044 23.2372 27.1176 26.2925 27.0347C29.4736 26.9508 31.575 25.0545 32.0083 23.2214C32.406 21.7905 34.5582 22.2978 34.2792 23.7564C33.8129 25.7339 31.4966 29.2841 26.1249 29.3643C22.3313 29.3643 18.914 26.8822 18.2881 23.636L18.2863 23.6342Z" fill="black"/>
</svg>
