<svg width="47" height="47" viewBox="0 0 47 47" fill="none" xmlns="http://www.w3.org/2000/svg">
<g clip-path="url(#clip0_201_6349)">
<path d="M38.7893 6.51715C35.2338 6.51715 32.2559 8.81114 31.3305 12.2526C29.7114 7.07616 25.4908 6.51715 23.7567 6.51715C21.9932 6.51715 17.801 7.07705 16.1534 12.2526C15.228 8.81114 12.2796 6.51715 8.69463 6.51715C4.33043 6.51715 0.889893 9.53866 0.889893 13.4C0.889893 15.982 1.26257 16.3662 7.77008 34.2162C9.7645 39.6164 13.8122 40.3992 16.0384 40.3992C19.536 40.3992 22.2829 38.6642 23.6996 35.5865C25.1163 38.6919 27.8623 40.4268 31.3608 40.4268C33.587 40.4268 37.6339 39.6155 39.6292 34.2153C46.4541 15.6129 46.5388 15.8866 46.5388 13.959C46.5949 9.65099 43.3283 6.51715 38.7893 6.51715ZM41.1377 16.7532L35.2917 32.4839C34.5856 34.3999 33.3998 35.8023 31.1691 35.8023C29.0793 35.8023 27.8365 34.6959 27.2436 32.7799L23.7415 22.3112H23.6568L20.1548 32.7799C19.5342 34.6968 18.2914 35.7756 16.2301 35.7756C13.9994 35.7756 12.8128 34.3722 12.1075 32.4572L6.31772 16.8343C5.83806 15.5121 5.61161 14.7026 5.61161 13.7584C5.61161 12.3016 7.02384 11.1408 9.02896 11.1408C10.6953 11.1408 11.8811 12.1928 12.2484 13.7308L16.1739 26.1966H16.2586L20.2404 14.0009C20.7771 12.2472 21.7088 11.1408 23.7139 11.1408C25.719 11.1408 26.6507 12.2205 27.1874 14.0009L31.1691 26.1966H31.2538L35.1794 13.7308C35.5467 12.1928 36.7325 11.1408 38.3988 11.1408C40.3754 11.1408 41.8162 12.3284 41.8162 14.3246C41.7876 15.0262 41.4488 15.7546 41.1377 16.7532Z" fill="black"/>
</g>
<defs>
<clipPath id="clip0_201_6349">
<rect width="45.648" height="45.648" fill="white" transform="translate(0.889893 0.647949)"/>
</clipPath>
</defs>
</svg>
