<svg width="53" height="47" viewBox="0 0 53 47" fill="none" xmlns="http://www.w3.org/2000/svg">
<path d="M35.2311 15.5906C35.8017 15.5906 36.3544 15.6173 36.9072 15.6886C35.4272 8.69878 27.9292 3.50098 19.4058 3.50098C9.84829 3.50098 2.04712 9.99155 2.04712 18.2474C2.04712 23.0084 4.6594 26.9402 8.99239 29.9804L7.27167 35.2049L13.3343 32.1647C15.5097 32.5927 17.2393 33.0295 19.4148 33.0295C19.9675 33.0295 20.4935 33.0028 21.0463 32.9582C20.6897 31.8081 20.4935 30.5866 20.4935 29.3206C20.4846 21.7513 26.993 15.5906 35.2311 15.5906ZM25.9142 10.8742C27.207 10.8742 28.0718 11.739 28.0718 13.0496C28.0718 14.3424 27.207 15.2072 25.9142 15.2072C24.5947 15.2072 23.302 14.3424 23.302 13.0496C23.3109 11.739 24.6036 10.8742 25.9142 10.8742ZM13.7533 15.2072C12.4606 15.2072 11.1411 14.3424 11.1411 13.0496C11.1411 11.7301 12.4606 10.8742 13.7533 10.8742C15.0728 10.8742 15.9287 11.739 15.9287 13.0496C15.9287 14.3513 15.0728 15.2072 13.7533 15.2072ZM51.083 29.1245C51.083 22.1792 44.1378 16.5267 36.3366 16.5267C28.0718 16.5267 21.5902 22.1792 21.5902 29.1245C21.5902 36.0697 28.0807 41.7223 36.3366 41.7223C38.0573 41.7223 39.8048 41.2676 41.5612 40.8396L46.3221 43.4519L45.0026 39.1189C48.4975 36.4977 51.083 33.0295 51.083 29.1245ZM31.5489 26.9401C30.6841 26.9401 29.8282 26.0753 29.8282 25.1927C29.8282 24.3279 30.693 23.472 31.5489 23.472C32.8684 23.472 33.7243 24.3368 33.7243 25.1927C33.7243 26.0842 32.8595 26.9401 31.5489 26.9401ZM41.0975 26.9401C40.2327 26.9401 39.3768 26.0753 39.3768 25.1927C39.3768 24.3279 40.2416 23.472 41.0975 23.472C42.3903 23.472 43.273 24.3368 43.273 25.1927C43.2819 26.0842 42.3903 26.9401 41.0975 26.9401Z" fill="black"/>
</svg>
