<svg width="41" height="47" viewBox="0 0 41 47" fill="none" xmlns="http://www.w3.org/2000/svg">
<g clip-path="url(#clip0_201_6343)">
<path d="M20.9168 11.5964C14.4351 11.5964 9.16601 16.8655 9.15709 23.3472C9.15709 25.5671 9.78118 27.7336 10.958 29.597L11.2344 30.0428L10.0487 34.3758L14.4975 33.2078L14.9255 33.4664C16.7265 34.5363 18.7949 35.1069 20.9079 35.1069H20.9168C27.3895 35.1069 32.8013 29.8377 32.8013 23.3561C32.8013 20.2178 31.4461 17.2667 29.2262 15.0467C26.9973 12.8178 24.0551 11.5964 20.9168 11.5964ZM27.8264 28.3934C27.5322 29.2226 26.1235 29.9715 25.4459 30.0695C24.3226 30.2389 23.4488 30.1498 21.211 29.1869C17.6715 27.6534 15.3534 24.0871 15.1751 23.8553C14.9968 23.6235 13.7308 21.9385 13.7308 20.1999C13.7308 18.4614 14.6402 17.6055 14.9701 17.2489C15.291 16.8922 15.6744 16.8031 15.9151 16.8031C16.1469 16.8031 16.3877 16.8031 16.5927 16.812C16.8067 16.8209 17.1009 16.7318 17.3862 17.4183C17.6804 18.1226 18.3848 19.8611 18.4739 20.0395C18.5631 20.2178 18.6255 20.4228 18.5007 20.6546C17.8231 22.0098 17.1009 21.9563 17.4665 22.5804C18.8305 24.9252 20.1946 25.7365 22.272 26.7797C22.6286 26.958 22.8337 26.9312 23.0387 26.6905C23.2438 26.4587 23.9214 25.6563 24.1532 25.3086C24.385 24.952 24.6257 25.0144 24.9467 25.1303C25.2676 25.2462 27.0062 26.1021 27.3628 26.2804C27.7194 26.4587 27.9512 26.5479 28.0404 26.6905C28.1206 26.8599 28.1206 27.5732 27.8264 28.3934ZM36.6083 3.50098H5.2253C2.86266 3.50098 0.945801 5.41784 0.945801 7.78048V39.1635C0.945801 41.5261 2.86266 43.443 5.2253 43.443H36.6083C38.9709 43.443 40.8878 41.5261 40.8878 39.1635V7.78048C40.8878 5.41784 38.9709 3.50098 36.6083 3.50098ZM20.9079 37.4873C18.5363 37.4873 16.2093 36.89 14.1498 35.7666L6.6518 37.737L8.65781 30.4083C7.41854 28.2686 6.7677 25.8346 6.7677 23.3382C6.77662 15.546 13.1156 9.20698 20.9079 9.20698C24.6881 9.20698 28.2365 10.6781 30.9112 13.3527C33.577 16.0274 35.1818 19.5758 35.1818 23.3561C35.1818 31.1483 28.7001 37.4873 20.9079 37.4873Z" fill="black"/>
</g>
<defs>
<clipPath id="clip0_201_6343">
<rect width="39.942" height="45.648" fill="white" transform="translate(0.945801 0.647949)"/>
</clipPath>
</defs>
</svg>
