<svg width="40" height="47" viewBox="0 0 40 47" fill="none" xmlns="http://www.w3.org/2000/svg">
<g clip-path="url(#clip0_201_6341)">
<path d="M33.9635 9.30505C30.2279 5.56049 25.253 3.50098 19.966 3.50098C9.05326 3.50098 0.173303 12.3809 0.173303 23.2937C0.173303 26.7797 1.0827 30.1854 2.81233 33.19L0.00390625 43.443L10.4976 40.688C13.3863 42.2661 16.6405 43.0953 19.9571 43.0953H19.966C30.8698 43.0953 39.9459 34.2153 39.9459 23.3026C39.9459 18.0156 37.6992 13.0496 33.9635 9.30505ZM19.966 39.7608C17.006 39.7608 14.1084 38.9673 11.5853 37.4695L10.988 37.1129L4.76485 38.7444L6.42315 32.6729L6.03087 32.0488C4.38148 29.4276 3.51666 26.4052 3.51666 23.2937C3.51666 14.2265 10.8988 6.84434 19.9749 6.84434C24.3703 6.84434 28.4982 8.55613 31.6009 11.6677C34.7035 14.7792 36.6115 18.9072 36.6025 23.3026C36.6025 32.3787 29.0332 39.7608 19.966 39.7608ZM28.9886 27.4394C28.4982 27.1898 26.0643 25.9951 25.6096 25.8346C25.1549 25.6652 24.825 25.585 24.4951 26.0842C24.1652 26.5835 23.2202 27.6891 22.926 28.0279C22.6407 28.3577 22.3465 28.4023 21.8561 28.1527C18.9496 26.6994 17.0417 25.5582 15.1248 22.2684C14.6166 21.3946 15.633 21.457 16.578 19.5669C16.7385 19.2371 16.6583 18.9518 16.5335 18.7021C16.4087 18.4525 15.419 16.0185 15.0089 15.0289C14.6077 14.066 14.1976 14.1997 13.8944 14.1819C13.6091 14.1641 13.2793 14.1641 12.9494 14.1641C12.6195 14.1641 12.0846 14.2889 11.6299 14.7792C11.1752 15.2785 9.90025 16.4732 9.90025 18.9072C9.90025 21.3411 11.6745 23.6949 11.9152 24.0247C12.1648 24.3546 15.4012 29.3474 20.3672 31.496C23.5055 32.8512 24.7358 32.9671 26.305 32.7353C27.259 32.5927 29.2293 31.5406 29.6394 30.3816C30.0496 29.2225 30.0496 28.2329 29.9247 28.0279C29.8088 27.805 29.479 27.6801 28.9886 27.4394Z" fill="black"/>
</g>
<defs>
<clipPath id="clip0_201_6341">
<rect width="39.942" height="45.648" fill="white" transform="translate(0.00390625 0.647949)"/>
</clipPath>
</defs>
</svg>
