<svg width="40" height="47" viewBox="0 0 40 47" fill="none" xmlns="http://www.w3.org/2000/svg">
<g clip-path="url(#clip0_201_6339)">
<path d="M40.004 15.0021V13.1031L37.4631 12.3185L37.2669 11.3913L39.0589 9.54577L38.1317 7.81614L35.5462 8.48481L34.9043 7.81614L35.5729 5.30193L33.8701 4.26772L31.971 6.14L31.0171 5.8547L30.393 3.50098H28.378L27.8253 5.8547L26.7465 6.14L24.9901 4.26772L23.2605 5.24844L23.9826 7.71807L23.2605 8.46698L20.7195 7.79831L19.7388 9.50119L21.5843 11.3735L21.3258 12.3007L18.7848 12.9961L18.7581 14.9308L21.3258 15.5995L21.5397 16.6783L19.7477 18.4525L20.6749 20.1019L23.314 19.4332L23.9559 20.1999L23.2337 22.5982L25.0079 23.6325L26.7376 21.8137L27.7718 22.0722L28.3691 24.6132L30.384 24.6399L30.9814 22.0722L32.0156 21.7602L33.8611 23.6859L35.6799 22.6072L34.8954 20.1108L35.5908 19.3886L38.1585 20.1732L39.0768 18.3812L37.2134 16.705L37.4096 15.6262L40.004 15.0021ZM29.3766 19.032C26.586 19.032 24.3125 16.7674 24.3125 13.9679C24.3125 11.1684 26.5771 8.90384 29.3766 8.90384C32.1761 8.90384 34.4407 11.1684 34.4407 13.9679C34.4407 16.7763 32.1761 19.032 29.3766 19.032ZM35.8226 20.4942L40.004 21.7869V25.3443L35.0915 26.5389L34.726 28.5628L38.1941 31.71L36.4823 35.089L31.6679 33.6001L30.3662 34.9553L31.8551 39.636L28.4404 41.6598L24.9723 38.049L23.0376 38.6374L21.9142 43.4519L18.134 43.4073L17.0106 38.6285L15.0759 38.1293L11.8306 41.5529L8.49619 39.6182L9.85137 35.1158L8.62993 33.6804L3.68175 34.9375L1.92538 31.8348L5.3044 28.5004L4.87645 26.4676L0.0620117 25.2105L0.10659 21.564L4.87645 20.2534L5.38464 18.4971L1.91646 14.9843L3.762 11.7925L8.54077 13.0496L9.89594 11.6499L8.54077 7.01373L11.7861 5.1682L15.067 8.68095L17.0909 8.1371L18.1251 3.50098H21.9053L22.9395 7.59325L20.9246 7.06723L20.3629 6.91566L20.0687 7.42385L19.088 9.12673L18.7937 9.62601L19.2039 10.0361L20.7373 11.5874L20.7106 11.6766L18.5887 12.2561L18.0359 12.4077L18.027 12.9783L18.0092 14.1284C13.7742 15.0556 10.5824 18.8358 10.5824 23.3561C10.5824 28.5539 14.7995 32.7799 20.0063 32.7799C24.5086 32.7799 28.271 29.6238 29.2072 25.3977L30.384 25.4156L30.9992 25.4245L31.1419 24.8271L31.6411 22.6874L31.8105 22.6339L33.3351 24.2209L33.7542 24.6577L34.2713 24.3546L36.09 23.2758L36.6072 22.9638L36.4288 22.3843L35.8226 20.4942Z" fill="black"/>
</g>
<defs>
<clipPath id="clip0_201_6339">
<rect width="39.942" height="45.648" fill="white" transform="translate(0.0620117 0.647949)"/>
</clipPath>
</defs>
</svg>
