<svg width="58" height="47" viewBox="0 0 58 47" fill="none" xmlns="http://www.w3.org/2000/svg">
<g clip-path="url(#clip0_201_6337)">
<path d="M57.0621 5.21272L57.0353 6.30043C54.53 6.37175 53.0233 7.7091 52.0604 9.89342C49.8315 15.0467 42.8506 31.2909 38.2144 41.8648H37.0019L29.7 24.6488C26.8024 30.3191 23.6107 36.2391 20.8557 41.8648C20.829 41.8916 19.5184 41.8648 19.5184 41.8381C15.337 32.0577 10.9505 22.3486 6.76012 12.5414C5.74374 10.1609 2.3558 6.30043 0.0199109 6.32718C0.0199109 6.05079 -0.00683594 5.43561 -0.00683594 5.06116H14.4276V6.30043C12.7158 6.3985 9.72011 7.48621 10.5671 9.34957C12.5196 13.7806 19.8037 30.7738 21.7651 35.0801C23.1025 32.4321 26.9183 25.3442 28.4786 22.3486C27.2393 19.8254 23.254 10.4105 21.988 8.08355C21.1232 6.49657 18.7695 6.35392 17.0131 6.32718V5.0879L29.7179 5.11465V6.2826C27.9882 6.33609 26.321 6.97802 27.0967 8.60958C28.7817 12.1758 29.8248 14.6811 31.3851 17.9442C31.8843 16.9813 34.4788 11.7568 35.6735 8.95728C36.467 7.12067 35.3258 6.40742 32.2321 6.33609C32.2588 6.01513 32.2321 5.41778 32.2588 5.12357C36.2173 5.09682 42.1641 5.09682 43.2339 5.07007V6.2826C41.2279 6.35392 39.1506 7.4238 38.054 9.10885L32.7759 20.0572C33.3465 21.4927 38.4195 32.7887 38.9455 34.028L49.8582 8.83247C49.0915 6.77296 46.613 6.32718 45.6501 6.30934V5.07007L57.0442 5.16814L57.0621 5.21272Z" fill="black"/>
</g>
<defs>
<clipPath id="clip0_201_6337">
<rect width="57.06" height="45.648" fill="white" transform="translate(0.00195312 0.647949)"/>
</clipPath>
</defs>
</svg>
