<svg width="58" height="47" viewBox="0 0 58 47" fill="none" xmlns="http://www.w3.org/2000/svg">
<g clip-path="url(#clip0_201_6333)">
<path d="M35.0723 12.3889C35.0723 13.5506 35.2577 15.3034 32.5153 16.2966C31.6665 16.6042 31.0932 17.1579 31.0932 17.1579C31.0932 14.394 31.514 13.3937 32.6446 12.8017C33.5138 12.3461 35.0723 12.3889 35.0723 12.3889ZM24.748 15.5575L21.6953 27.385L19.1561 17.7053C18.4705 14.8532 17.3008 13.3785 14.8383 13.3785C12.3981 13.3785 11.2132 14.8211 10.5204 17.7053L7.98127 27.385L4.92856 15.5575C4.43374 13.1753 2.12727 12.1455 0 12.413L5.84597 34.5175C5.84597 34.5175 7.77442 34.6566 8.73998 34.1644C10.0078 33.518 10.6105 33.0197 11.3781 30.0124C12.0619 27.3315 13.9735 19.4554 14.1527 18.8946C14.577 17.5626 15.1414 17.6634 15.5257 18.8946C15.7013 19.4563 17.6164 27.3315 18.3002 30.0124C19.0669 33.0197 19.6705 33.518 20.9383 34.1644C21.903 34.6566 23.8323 34.5175 23.8323 34.5175L29.6783 12.413C27.5011 12.1393 25.2366 13.2091 24.748 15.5575ZM35.0705 16.022C35.0705 16.022 34.705 16.5873 33.8704 17.0536C33.3346 17.3531 32.8202 17.5564 32.2683 17.8212C30.9185 18.4685 31.0932 19.0649 31.0932 20.9595V34.5175C31.0932 34.5175 32.5688 34.7038 33.5334 34.2117C34.7754 33.5787 35.0607 32.968 35.0723 30.2193V16.8218L35.0705 16.8226V16.022ZM49.6422 23.5183L57.06 12.4861C57.06 12.4861 53.9297 11.9529 52.3793 13.3643C51.1935 14.4431 50.203 15.9988 47.5488 19.8254C47.5069 19.8905 46.9916 20.7651 46.3835 19.8254C43.7721 16.0604 42.746 14.4502 41.553 13.3643C40.0026 11.9529 36.8723 12.4861 36.8723 12.4861L44.2901 23.5183L36.8928 34.5166C36.8928 34.5166 40.1533 34.9285 41.7028 33.5172C42.7272 32.5846 43.2702 31.701 46.3844 27.212C46.9916 26.2741 47.5051 27.1434 47.5497 27.212C50.1709 30.9905 51.0473 32.3884 52.2874 33.5172C53.8379 34.9285 57.0413 34.5166 57.0413 34.5166L49.6422 23.5183Z" fill="black"/>
</g>
<defs>
<clipPath id="clip0_201_6333">
<rect width="57.06" height="45.648" fill="white" transform="translate(0 0.647949)"/>
</clipPath>
</defs>
</svg>
