<svg width="58" height="46" viewBox="0 0 58 46" fill="none" xmlns="http://www.w3.org/2000/svg">
<g clip-path="url(#clip0_201_6331)">
<path d="M20.1781 30.8203C20.0087 30.9434 19.1911 31.5728 20.1549 32.9217C20.5686 33.4941 21.4129 34.062 22.0923 33.5057C22.6718 33.0706 22.7476 32.3538 22.1154 31.4515C21.6278 30.7597 20.8423 30.3032 20.1781 30.8203ZM50.2014 37.5908C50.1711 37.7424 50.1524 37.7397 50.2719 37.5908C50.4582 37.2173 50.6454 36.6806 50.7159 35.8166C50.9958 32.385 47.1202 29.4429 41.6808 28.8598C36.8013 28.3231 30.5915 29.6773 24.8481 34.2528L24.8249 34.3928C25.0585 34.8368 25.2689 35.3504 25.128 36.2838L25.1985 36.307C30.8947 31.1003 36.8949 29.4197 41.6344 29.7228C46.8411 30.05 50.5527 32.7577 50.5527 35.7926C50.5518 36.6806 50.3182 37.1941 50.2014 37.5908ZM35.6101 21.4348C35.6806 22.0652 35.9837 22.3451 36.4277 22.3683C36.918 22.3915 37.2684 22.1347 37.3612 21.7843C37.4316 21.4812 37.5475 19.123 37.5475 19.123C37.5475 19.123 36.5436 19.707 36.2164 20.0565C35.8901 20.3846 35.5629 20.8045 35.6101 21.4348ZM31.1505 7.96334C12.9172 7.96334 1.80387 20.2205 0.706353 21.5044C0.612739 21.5508 0.589559 21.5748 0.776787 21.6212C6.16985 23.0923 14.6682 28.8589 18.263 39.645L18.3566 39.6682C23.2825 33.4344 30.9169 28.2517 39.4857 28.2517C46.7003 28.2517 51.0894 32.0106 51.0894 35.419C51.0894 37.0532 50.5055 38.4075 49.1048 39.5514C49.1048 39.637 49.087 39.6218 49.1753 39.6218C50.4823 38.6643 51.627 37.0541 51.627 35.3263C51.627 33.2953 50.5527 31.9178 50.5527 31.9178C51.183 32.5482 51.5103 33.3657 51.5103 33.3657C52.0238 29.7237 53.9148 27.8095 53.9148 27.8095C53.7044 26.9456 53.3076 26.2216 53.3076 26.2216C53.9843 26.9456 54.5915 28.6734 54.5915 29.91C54.5915 30.8435 54.2884 31.941 53.4708 32.7586L53.494 32.8049C54.2179 32.3609 54.9651 31.3107 54.9651 29.4197C54.9651 28.019 54.5451 27.1087 54.5451 27.1087C55.0587 26.6416 55.549 26.2912 55.969 26.0585C56.0394 26.3616 56.1553 26.9224 56.1794 27.3896C56.1794 27.4832 56.2498 27.5527 56.273 27.3896C56.3434 26.8761 56.2498 25.9417 56.2498 25.9185C56.7865 25.6386 57.1137 25.5218 57.1137 25.5218C55.7113 15.6914 44.2717 7.96334 31.1505 7.96334ZM22.3027 33.7848C21.3166 34.5863 20.1451 34.1485 19.5709 33.4112C18.9067 32.5571 18.9682 31.2634 19.9445 30.5163C21.2685 29.5044 22.3588 30.4726 22.7226 31.0067C22.7476 31.0414 23.8041 32.484 22.3027 33.7848ZM22.489 21.6212L23.3297 20.0333L24.38 26.3598L23.2593 26.8966L21.0643 24.3289L22.325 21.9475L22.6522 22.3442L22.489 21.6212ZM24.1464 32.1042L24.1232 32.081C24.306 31.7155 23.9003 31.4917 22.5594 29.2556C22.4426 29.0452 22.2795 28.9989 22.1627 29.022L22.1395 28.9757C22.8403 28.4621 23.517 28.0654 24.4041 27.575L24.4504 27.5982C24.5672 27.7614 24.6368 27.855 24.7536 28.0181L24.7304 28.0645C24.6368 28.0413 24.52 27.9941 24.2632 28.0877C24.0769 28.1581 23.5624 28.4149 23.1657 28.7644V28.8812C23.3057 29.0916 23.5161 29.4651 23.6792 29.7451H23.7024C24.5984 29.1852 24.3764 29.3394 24.7295 29.0443H24.7527C24.799 29.2075 24.799 29.2075 24.9158 29.5347L24.8927 29.5579C24.6198 29.6123 24.4781 29.5882 23.8656 30.0482V30.0714C24.709 31.5889 24.8472 31.5648 24.9863 31.4952L25.0095 31.5184C24.8008 31.6602 24.4504 31.8938 24.1464 32.1042ZM29.0732 29.2093C28.7932 29.3492 28.5365 29.466 28.1861 29.6533L28.1629 29.6301C28.2779 29.3992 28.2663 29.3885 27.1126 26.7352L27.0895 26.712C27.0761 26.712 26.296 27.0374 26.2024 27.3655H26.156L26.0624 26.852L26.0856 26.8056C26.7355 26.3991 28.3617 25.7678 28.5605 25.6849L28.6069 25.7081L28.8869 26.1521L28.8637 26.1985C28.549 26.0415 28.2084 26.2662 27.7662 26.4321V26.4552C28.8637 29.3091 28.8958 29.187 29.0732 29.187V29.2093ZM33.0647 27.7382C32.6912 27.8318 32.5975 27.855 32.2008 27.995L32.1776 27.9718L32.224 27.575C32.1304 27.2719 31.944 26.548 31.8968 26.3607L31.8736 26.3375C31.5705 26.408 31.0801 26.5711 30.7297 26.6879L30.7065 26.7111C30.777 26.9447 30.9865 27.5982 31.0801 27.9486C31.1505 28.159 31.2433 28.2054 31.3369 28.2286V28.2749C31.0097 28.3685 30.7065 28.5085 30.4266 28.6253L30.4034 28.6021C30.497 28.4853 30.497 28.3453 30.4266 28.1581C30.333 27.8782 29.7026 26.0335 29.609 25.7304C29.5627 25.5672 29.469 25.4504 29.3754 25.4504V25.4041C29.6554 25.3105 29.9122 25.2177 30.333 25.101L30.3561 25.1241L30.333 25.5441C30.4498 25.8944 30.5434 26.2208 30.6129 26.408H30.6361C30.9865 26.2912 31.4768 26.1512 31.78 26.0576L31.8032 26.0344L31.5696 25.1937C31.5232 25.0305 31.476 24.8905 31.336 24.8433V24.8201C31.7327 24.7265 31.9895 24.657 32.2935 24.6097L32.3167 24.6329C32.2231 24.7497 32.2231 24.8897 32.2703 25.0296C32.4103 25.5895 32.6903 26.8511 32.8302 27.3878C32.8784 27.6214 32.9952 27.6918 33.0647 27.7382ZM35.9364 27.131L35.9133 27.1542C35.4933 27.2006 34.6526 27.3646 33.9055 27.5278L33.8823 27.5046L33.9527 27.131C33.8127 26.4303 33.6496 25.4736 33.5087 24.796C33.4855 24.6329 33.4383 24.5393 33.2751 24.4688L33.3456 24.4225C34.1631 24.2825 35.1429 24.2121 35.5638 24.1889L35.5869 24.2121C35.6333 24.4225 35.6574 24.492 35.7269 24.7024L35.7037 24.7256C35.6021 24.624 35.406 24.4403 34.2558 24.6552L34.2327 24.6783C34.2558 24.8183 34.3263 25.2623 34.3726 25.5655L34.3958 25.5886C35.2446 25.4389 34.8202 25.5833 35.3534 25.3782H35.3765C35.3765 25.5182 35.3534 25.5414 35.3534 25.8454H35.3302C34.9013 25.7536 35.1385 25.7652 34.4199 25.8454L34.3967 25.8686C34.4199 26.0549 34.5367 26.7093 34.583 26.9893L34.6062 27.0125C34.7088 27.0463 35.8731 26.9545 36.0541 26.5925H36.0773C36.0301 26.8047 35.9837 26.9679 35.9364 27.131ZM36.894 23.1627C36.4972 23.3731 36.17 23.4195 35.9133 23.4195C35.891 23.4212 34.896 23.5166 34.3495 22.5324C33.7485 21.5704 34.2621 20.2856 34.8398 19.707C35.6244 18.9831 36.9216 18.8065 37.3843 18.1896C38.1003 17.2686 36.2217 16.2005 34.7462 17.676L34.5126 17.4193L34.9798 15.9714C37.2613 15.8314 39.0097 15.7003 39.4394 17.4193C39.5098 17.6992 39.4394 18.26 39.4162 18.4936C39.4162 18.7272 39.2531 20.1742 39.2299 20.5477C39.1835 20.9213 39.1594 22.182 39.1594 22.3924C39.1826 22.6028 39.2058 22.7659 39.2994 22.8827C39.4394 23.0459 39.813 23.0459 39.813 23.0459L39.7425 23.4658C38.6887 23.3704 38.826 23.4132 37.9211 23.3722C37.634 22.9131 37.7222 23.0798 37.5475 22.6714C37.5475 22.6723 37.1739 23.0227 36.894 23.1627ZM40.2088 25.0537C39.6427 24.1104 38.4417 24.4153 38.2714 25.5441C38.037 27.0668 39.5464 27.3085 40.1161 26.4543L40.1393 26.4775C40.0929 26.6407 39.9761 27.0142 39.9761 27.0374L39.9297 27.0838C39.0114 27.6963 37.3888 26.8609 37.642 25.4264C37.815 24.4572 38.9294 23.7386 40.2097 24.5393L40.2329 24.5856C40.2329 24.6801 40.2088 24.8897 40.2088 25.0537ZM40.7232 17.232V16.648C40.7848 16.648 42.4752 16.9405 43.1982 17.3016L43.0582 18.8654C43.0582 18.8654 43.9685 18.0246 44.4357 17.9078C44.9029 17.7679 45.7668 18.5613 45.7668 18.5613L44.7629 19.5652C43.6868 18.9991 43.0163 19.5581 42.9183 19.6357C42.4466 23.0878 42.1515 23.3954 43.315 23.7449L43.2686 24.1648C41.704 23.7823 41.6166 23.7636 39.977 23.5113L40.0474 23.0914C40.6938 23.0914 40.7143 22.6171 40.7241 22.4842C40.7241 22.4842 41.1681 17.7447 41.1681 17.5583C41.1663 17.3025 40.7232 17.232 40.7232 17.232ZM41.7031 27.4351C40.9791 27.2487 40.4424 26.4543 40.7455 25.5904C41.0255 24.7497 41.843 24.4929 42.4261 24.6801C43.2437 24.9137 43.57 25.7304 43.3837 26.408C43.151 27.2015 42.5438 27.6446 41.7031 27.4351ZM45.4619 28.299C45.2515 28.2526 44.8316 28.0886 44.6916 28.0422V28.019L44.8316 27.8559C44.8842 27.1212 44.8842 27.2077 44.8547 27.1792C44.425 27.0178 44.261 26.9688 44.2244 26.9688C44.1076 27.1319 43.9676 27.3655 43.8972 27.4591L43.8268 27.7623V27.7854C43.71 27.7623 43.4764 27.6686 43.29 27.6455V27.6223L43.5236 27.4591C43.8268 27.0392 44.4107 26.1985 44.7611 25.6617V25.4754L44.8075 25.4522C44.9938 25.5227 45.2978 25.6386 45.4842 25.709C45.527 25.7518 45.5002 25.5423 45.3906 27.9504C45.3692 28.1118 45.3923 28.1822 45.4619 28.299ZM45.042 20.291C46.045 18.6621 47.7844 18.8475 48.0768 19.9878L48.7535 17.6528C48.9622 17.0956 48.5021 16.7702 48.3568 16.6489L48.52 16.3217C49.6094 17.2463 49.9803 17.5672 50.5277 18.1432C48.2177 24.6578 47.7853 25.3479 48.3327 25.6609L48.1696 26.0576C47.6016 25.7589 47.3761 25.6635 46.5817 25.2873L46.768 24.6801C46.7449 24.657 46.4176 25.0305 45.9041 25.0073C44.2048 24.8914 43.8633 22.1766 45.042 20.291ZM47.6569 27.3646C47.6569 26.8555 47.0917 26.6612 46.9562 26.8974C46.8394 27.0838 47.0498 27.3414 47.2129 27.6446C47.3529 27.8782 47.4465 28.2045 47.3065 28.4853C47.0712 29.0506 46.201 28.9587 45.9291 28.4149C45.9291 28.3525 45.905 28.4229 46.0922 27.995L46.1627 27.9718C46.1118 28.4764 46.7029 28.8286 46.9098 28.4158C47.0034 28.2294 46.8634 27.9254 46.7235 27.6686C46.5835 27.4351 46.3962 27.1087 46.5603 26.8047C46.8028 26.3536 47.5633 26.4062 47.8673 27.0151V27.0615L47.6569 27.3646ZM49.5479 28.5558C49.3732 28.2642 49.4668 28.365 49.1512 28.1358H49.128C48.9176 28.5094 48.6145 29.0693 48.3577 29.5837C48.2409 29.7941 48.2641 29.8869 48.2873 29.9341L48.2641 29.9573L47.7505 29.5605L47.7737 29.5374L47.96 29.4206C48.24 28.907 48.544 28.3462 48.7776 27.9031V27.8799C48.5422 27.7034 48.6688 27.7453 48.2409 27.7168V27.6936L48.5208 27.3905H48.544C48.8712 27.6009 49.4311 27.9976 49.6415 28.184L49.6647 28.2072L49.5479 28.5558ZM51.9757 24.6097L51.7189 24.3529C51.7893 24.1425 51.882 23.9089 51.9052 23.6762C51.9721 22.8079 50.8781 22.6206 50.8781 23.2322C50.8781 23.6762 51.5789 24.9601 51.5789 25.7072C51.5789 26.6175 51.0654 27.1079 50.3414 27.1783C49.5943 27.2487 48.544 26.2448 48.544 26.2448L48.988 24.961L49.2448 25.1473C48.98 26.7343 50.8211 26.9634 50.435 25.6145C50.3405 25.2561 48.7634 22.5653 50.6214 22.206C51.8357 21.9956 52.6755 23.6771 52.6755 23.6771L51.9757 24.6097ZM55.1514 23.6994C54.1707 20.9908 49.7583 12.3293 38.0379 12.143C33.2751 12.0494 29.6331 13.5204 26.2015 15.5282L33.8359 14.7107L25.6879 16.5553L27.9293 18.3064L27.5789 16.8353C28.2476 16.6828 31.0694 16.0819 33.5319 16.0418L31.5473 23.2091C32.7607 23.1466 33.2386 22.4084 33.2983 21.1781L33.7423 21.0845L33.7655 23.4658C31.763 23.752 30.44 24.0623 29.3531 24.3529L30.5202 20.5005L25.0335 17.232L25.2439 17.956L26.1542 18.4C26.7141 20.0574 27.8821 23.4426 27.9757 23.6299C28.1495 24.0115 28.2574 24.1452 29.05 24.0266L29.1436 24.4706C27.71 24.9039 27.0342 25.1491 25.6647 25.7545L25.4543 25.3345C25.8466 25.0724 26.2327 24.9833 25.9447 24.1907C23.8317 18.6184 24.0296 19.0071 23.9137 18.8912L24.1241 18.4945L27.1126 24.4947C26.7703 23.4364 27.2624 24.6454 24.1714 17.4674L20.4357 25.3586L20.8557 24.1211L17.6567 20.3623L20.1317 28.6966L19.0815 29.4438C9.10576 20.3792 9.64516 20.6726 8.94796 20.6414C8.4576 20.6182 7.73365 21.1317 7.73365 21.1317L7.28965 20.595C10.0143 18.4971 10.1088 18.4258 12.4964 16.7898L12.8699 17.4201C12.8699 17.4201 12.3564 17.7937 12.1692 18.0505C11.6431 18.8778 12.3181 19.2345 17.679 24.7978L15.9984 19.5447L19.5468 18.6344L21.8346 21.3662L22.2313 20.2687L21.7873 18.0737L22.9544 17.7705L23.0008 18.0505L23.328 17.117L14.9232 19.732L15.9271 19.288L14.7128 15.506L16.2534 14.6884L18.9379 17.9105L21.4824 16.7434C21.3567 16.0774 21.2622 15.4507 21.0625 14.9924L22.6031 16.2299L23.0231 16.0436L17.7468 12.2384L19.8045 13.2637C21.4967 12.7225 22.0539 12.5977 22.6762 12.3998L22.9098 13.3805C21.7909 14.4994 23.0373 14.8801 23.4938 15.1083L22.2795 9.6689L23.3538 12.1902C23.7274 12.0734 24.0073 12.0039 24.0073 12.0039L24.2409 12.7742C24.2409 12.7742 23.961 12.8678 23.681 12.9605L24.4745 14.8284L27.4862 8.96813L25.6416 14.4076C29.4236 12.2598 32.9025 11.1391 37.4084 11.2086C43.3854 11.3022 52.3269 14.8507 55.2218 23.6753C55.2914 23.8626 55.2209 23.9098 55.1514 23.6994ZM18.7774 13.59C18.7774 13.59 18.9406 13.5436 19.151 13.4732L19.9917 14.1499C19.9561 14.1499 19.685 14.1276 18.9878 14.3603L18.7774 13.59ZM31.5945 17.0225C31.4546 16.969 29.2355 16.5937 28.6292 18.8671L30.5666 20.3846L31.5945 17.0225ZM29.0259 5.97961C23.8192 5.97961 19.5709 7.05395 18.7765 7.26346V7.3339C19.5237 7.52023 20.0604 7.70746 20.6675 8.38416L20.8075 8.40734C21.3915 8.24418 25.1735 7.16985 30.6361 7.16985C46.6985 7.16985 57.5319 17.5824 57.5319 27.0847V27.9718C57.5319 28.0886 57.6023 28.2054 57.6255 28.0181C57.6718 27.8318 57.6959 27.2478 57.6959 26.2671C57.7191 18.7967 49.0807 5.97961 29.0259 5.97961ZM47.8433 21.1076C47.96 20.5941 47.8433 20.0101 47.1897 19.9406C46.3321 19.8398 45.7508 22.0616 45.6723 22.9291C45.6019 23.4195 45.5555 24.2602 46.209 24.2602C46.6263 24.2593 47.0756 24.1791 47.8433 21.1076ZM42.3575 24.9369C42.1239 24.8665 41.5167 24.8665 41.2368 25.8704C41.0736 26.4775 41.2831 27.0606 41.7735 27.1774C42.1007 27.271 42.567 27.2238 42.8238 26.2199C43.0573 25.3336 42.6606 25.0064 42.3575 24.9369ZM44.4116 26.8047C44.5748 26.8511 44.6916 26.8983 44.9252 26.9679C44.9252 26.8047 44.9715 26.2208 44.9956 25.8935C44.902 26.0103 44.5052 26.6175 44.4116 26.7807V26.8047Z" fill="black"/>
</g>
<defs>
<clipPath id="clip0_201_6331">
<rect width="57.06" height="45.648" fill="white" transform="translate(0.636475)"/>
</clipPath>
</defs>
</svg>
