<svg width="58" height="46" viewBox="0 0 58 46" fill="none" xmlns="http://www.w3.org/2000/svg">
<g clip-path="url(#clip0_201_6329)">
<path d="M16.4834 30.2869H13.1566L10.577 19.9242H10.5343L7.99695 30.2869H4.60652L0.57666 15.0626H3.9243L6.33383 25.4253H6.37645L9.02038 15.0626H12.1548L14.7562 25.5533H14.799L17.2935 15.0626H20.5772L16.4834 30.2869ZM24.7737 18.9647C28.2493 18.9647 30.4886 21.2674 30.4886 24.7858C30.4886 28.2826 28.2498 30.5854 24.7737 30.5854C21.3195 30.5854 19.0806 28.2826 19.0806 24.7858C19.0808 21.2674 21.3197 18.9647 24.7737 18.9647ZM24.7737 28.304C26.8421 28.304 27.4602 26.5341 27.4602 24.7858C27.4602 23.0158 26.842 21.2463 24.7737 21.2463C22.304 21.2463 22.1084 23.016 22.1084 24.7858C22.1086 26.5341 22.7269 28.304 24.7737 28.304ZM39.3671 28.8796H39.3245C38.6208 30.0736 37.384 30.5854 35.9769 30.5854C32.6504 30.5854 31.03 27.7284 31.03 24.6791C31.03 21.7153 32.6718 18.9647 35.9128 18.9647C37.2135 18.9647 38.4928 19.519 39.1966 20.6066H39.2179V15.0626H42.2457V30.2869H39.3671V28.8796ZM36.7231 21.2459C34.7403 21.2459 34.0579 22.9518 34.0579 24.7643C34.0579 26.4913 34.8467 28.3038 36.7231 28.3038C38.7275 28.3038 39.3245 26.5552 39.3245 24.7429C39.3245 22.952 38.6849 21.2459 36.7231 21.2459ZM53.4427 30.2869H50.5641V28.7517H50.5001C49.7326 29.9883 48.4107 30.5854 47.1313 30.5854C43.9116 30.5854 43.1014 28.773 43.1014 26.0437V19.2632H46.1291V25.4897C46.1291 27.3022 46.6621 28.1976 48.0696 28.1976C49.7114 28.1976 50.4149 27.2808 50.4149 25.0421V19.2632H53.4427V30.2869ZM54.2891 27.0033H57.6366V30.2869H54.2891V27.0033Z" fill="black"/>
</g>
<defs>
<clipPath id="clip0_201_6329">
<rect width="57.06" height="45.648" fill="white" transform="translate(0.57666)"/>
</clipPath>
</defs>
</svg>
