<svg width="46" height="46" viewBox="0 0 46 46" fill="none" xmlns="http://www.w3.org/2000/svg">
<g clip-path="url(#clip0_201_6325)">
<path d="M23.1044 0.713257C10.9167 0.713257 0.993652 10.6274 0.993652 22.824C0.993652 35.0117 10.9167 44.9347 23.1044 44.9347C35.2921 44.9347 45.2151 35.0117 45.2151 22.824C45.2151 10.6274 35.2921 0.713257 23.1044 0.713257ZM3.22256 22.824C3.22256 19.9443 3.83774 17.2072 4.94327 14.7375L14.4295 40.7177C7.79627 37.4902 3.22256 30.6876 3.22256 22.824ZM23.1044 42.7058C21.1519 42.7058 19.2707 42.4205 17.4876 41.8945L23.4521 24.5625L29.5593 41.3061C29.6039 41.4042 29.6485 41.4933 29.702 41.5825C27.6424 42.3046 25.4225 42.7058 23.1044 42.7058ZM25.8415 13.5072C27.0362 13.4448 28.115 13.3199 28.115 13.3199C29.1849 13.1951 29.06 11.6171 27.9902 11.6795C27.9902 11.6795 24.7716 11.9291 22.6943 11.9291C20.7418 11.9291 17.4608 11.6795 17.4608 11.6795C16.3909 11.6171 16.2661 13.2575 17.336 13.3199C17.336 13.3199 18.3524 13.4448 19.4222 13.5072L22.516 21.9948L18.1651 35.0384L10.9257 13.5072C12.1203 13.4448 13.1991 13.3199 13.1991 13.3199C14.269 13.1951 14.1442 11.6171 13.0743 11.6795C13.0743 11.6795 9.85578 11.9291 7.77844 11.9291C7.40399 11.9291 6.96712 11.9202 6.49459 11.9024C10.0519 6.50841 16.1591 2.94216 23.1044 2.94216C28.2755 2.94216 32.9918 4.92143 36.5313 8.1578C36.4422 8.14889 36.3619 8.13997 36.2728 8.13997C34.3203 8.13997 32.9383 9.84285 32.9383 11.6706C32.9383 13.311 33.8834 14.693 34.8909 16.3334C35.6487 17.6529 36.5313 19.3558 36.5313 21.8165C36.5313 23.5194 35.8805 25.4898 35.0157 28.2447L33.0364 34.869L25.8415 13.5072ZM33.0988 40.0044L39.1703 22.4495C40.3026 19.6144 40.686 17.3498 40.686 15.326C40.686 14.5949 40.6414 13.9173 40.5523 13.2843C42.1036 16.1195 42.9862 19.3647 42.9862 22.824C42.9862 30.1616 39.0099 36.563 33.0988 40.0044Z" fill="black"/>
</g>
<defs>
<clipPath id="clip0_201_6325">
<rect width="45.648" height="45.648" fill="white" transform="translate(0.280762)"/>
</clipPath>
</defs>
</svg>
