<svg width="47" height="46" viewBox="0 0 47 46" fill="none" xmlns="http://www.w3.org/2000/svg">
<path d="M42.2455 28.7417C47.257 34.4751 42.6165 42.795 34.056 42.795C30.5252 42.795 27.0284 41.2181 25.1277 38.3336C24.5137 38.3654 23.1037 38.3654 22.4896 38.3336C20.5849 41.2242 17.0846 42.795 13.5612 42.795C5.04769 42.795 0.335071 34.5038 5.37177 28.7417C-1.68396 16.9863 8.15924 2.85303 23.8086 2.85303C39.4673 2.85303 49.2957 16.9955 42.2455 28.7417ZM11.9638 21.3442H15.6664V16.1665H11.9638V21.3442ZM31.3268 29.0181V26.8927C25.9323 28.7574 19.5265 27.7127 14.602 23.8639L14.624 26.0837C19.1799 30.2176 26.3699 31.2436 31.3268 29.0181ZM17.8862 21.3442H32.6913V16.1665H17.8862V21.3442Z" fill="black"/>
</svg>
