<svg width="46" height="46" viewBox="0 0 46 46" fill="none" xmlns="http://www.w3.org/2000/svg">
<g clip-path="url(#clip0_201_6319)">
<path d="M45.9849 22.824C45.9849 35.4129 35.7587 45.648 23.1609 45.648C10.572 45.648 0.336914 35.4218 0.336914 22.824C0.336914 10.2262 10.5631 0 23.1609 0C35.7587 0 45.9849 10.2262 45.9849 22.824ZM43.1319 22.824C43.1319 11.8399 34.1895 2.853 23.1609 2.853C12.1501 2.853 3.18991 11.8132 3.18991 22.824C3.18991 33.8348 12.1501 42.795 23.1609 42.795C34.1717 42.795 43.1319 33.8348 43.1319 22.824ZM14.6821 11.1089L22.4298 14.4166L19.1221 22.1642L11.3745 18.8565L14.6821 11.1089ZM24.4893 26.1852L28.644 34.5659H27.3423L22.8845 25.6502L18.5248 34.5659H17.2766L21.8325 25.0351L19.8443 24.197L20.3792 22.9488L26.4953 25.5433L25.9604 26.8182L24.4893 26.1852ZM23.4373 15.8163L29.5534 18.4375L26.9322 24.5269L20.8428 21.9324L23.4373 15.8163ZM30.5965 19.6411L35.4645 21.7006L33.3782 26.5418L28.537 24.4823L30.5965 19.6411Z" fill="black"/>
</g>
<defs>
<clipPath id="clip0_201_6319">
<rect width="45.648" height="45.648" fill="white" transform="translate(0.336914)"/>
</clipPath>
</defs>
</svg>
