<svg width="41" height="46" viewBox="0 0 41 46" fill="none" xmlns="http://www.w3.org/2000/svg">
<g clip-path="url(#clip0_201_6317)">
<path d="M40.337 6.70458V38.9524C40.337 41.1189 38.643 42.8039 36.4855 42.8039H4.24657C2.11573 42.795 0.39502 41.1367 0.39502 38.9435V6.70458C0.39502 4.55591 2.07116 2.85303 4.24657 2.85303H36.4944C38.6341 2.85303 40.337 4.52916 40.337 6.70458ZM37.0115 38.9435V6.70458C37.0115 6.43711 36.7797 6.18747 36.4944 6.18747H35.6652L25.8313 12.8385L20.366 8.38963L14.9097 12.8385L5.07572 6.17856H4.24657C3.96127 6.17856 3.72946 6.42819 3.72946 6.69566V38.9435C3.72946 39.2109 3.96127 39.4606 4.24657 39.4606H36.4944C36.7797 39.4695 37.0115 39.2199 37.0115 38.9435ZM13.7863 16.5831V19.8819H7.2333V16.5831H13.7863ZM13.7863 23.2163V26.5418H7.2333V23.2163H13.7863ZM14.7759 10.0836L19.5904 6.18747H9.02534L14.7759 10.0836ZM33.4987 16.5831V19.8819H16.0241V16.5831H33.4987ZM33.4987 23.2163V26.5418H16.0241V23.2163H33.4987ZM25.9561 10.0836L31.7067 6.18747H21.1506L25.9561 10.0836ZM33.4987 29.8674V33.1929H24.6366V29.8674H33.4987Z" fill="black"/>
</g>
<defs>
<clipPath id="clip0_201_6317">
<rect width="39.942" height="45.648" fill="white" transform="translate(0.394775)"/>
</clipPath>
</defs>
</svg>
