<svg width="47" height="46" viewBox="0 0 47 46" fill="none" xmlns="http://www.w3.org/2000/svg">
<path d="M33.5042 28.3695C37.4538 33.2107 39.2726 37.1781 38.3543 38.9523C37.65 40.2986 33.2991 42.9287 30.0984 43.9361C27.4594 44.7653 24.0001 45.1219 21.1471 44.8455C17.7414 44.5157 14.291 43.2942 11.331 41.3685C8.84359 39.7458 8.2819 39.0771 8.2819 37.7487C8.2819 35.0829 11.2151 30.4111 16.2346 25.0796C19.0876 22.0572 23.0551 18.5088 23.492 18.6069C24.33 18.7941 31.0078 25.3025 33.5042 28.3695ZM17.3402 12.8206C14.6922 10.4223 12.1602 8.0151 9.63708 7.16812C8.2819 6.71342 8.18383 6.74017 7.07829 7.89028C4.47493 10.6006 2.30843 14.996 1.70217 18.803C1.22073 21.8521 1.15832 22.708 1.32772 24.197C1.82699 28.6993 2.87012 31.8109 4.93854 34.9759C5.78553 36.2776 6.01733 36.5184 5.7677 35.8586C5.39324 34.8779 5.74095 32.5152 6.61468 30.1526C7.88961 26.6755 11.4202 20.0869 17.3402 12.8206ZM45.1213 18.482C43.6145 11.3495 39.1032 6.86499 38.4702 6.86499C37.8194 6.86499 36.3126 7.4445 35.2606 8.10426C33.1832 9.39702 31.6052 10.9038 29.5278 12.8117C33.3081 17.5637 38.6396 25.2401 40.4851 30.848C41.0914 32.6935 41.3499 34.5123 41.1449 35.5109C40.9933 36.2687 40.9933 36.2687 41.2697 35.921C41.8136 35.2345 43.0439 33.1304 43.5343 32.0427C44.194 30.5984 44.8716 28.4586 45.1926 26.8092C45.576 24.8032 45.5403 20.497 45.1213 18.482ZM13.1231 3.83367C17.3758 3.61078 22.9035 6.90956 23.3136 6.98981C23.3761 6.99872 24.2409 6.61535 25.2394 6.12499C30.9365 3.35223 33.6201 3.82476 34.8148 3.87825C29.1177 0.374413 21.2006 -0.579559 13.9612 2.83512C11.8749 3.82476 11.8214 3.89608 13.1231 3.83367Z" fill="black"/>
</svg>
