<svg width="41" height="46" viewBox="0 0 41 46" fill="none" xmlns="http://www.w3.org/2000/svg">
<g clip-path="url(#clip0_201_6311)">
<path d="M36.246 2.85303H4.863C2.50036 2.85303 0.583496 4.76989 0.583496 7.13253V38.5155C0.583496 40.8782 2.50036 42.795 4.863 42.795H36.246C38.6086 42.795 40.5255 40.8782 40.5255 38.5155V7.13253C40.5255 4.76989 38.6086 2.85303 36.246 2.85303ZM13.101 28.5479H8.94635C8.45599 28.5479 8.17069 28.0753 8.41141 27.6295L12.8068 19.8997C12.8157 19.8997 12.8157 19.8908 12.8068 19.8819L10.0073 15.0674C9.73984 14.5682 10.0251 14.167 10.5422 14.167H14.6969C15.1605 14.167 15.5439 14.4255 15.847 14.9426L18.6911 19.873C18.5752 20.078 17.0863 22.6992 14.2244 27.7365C13.9124 28.2893 13.5379 28.5479 13.101 28.5479ZM32.6887 9.4595L23.5234 25.57V25.5879L29.3631 36.1975C29.6128 36.6522 29.372 37.0979 28.8282 37.0979H24.6735C24.1832 37.0979 23.8087 36.8394 23.5234 36.3223L17.6391 25.5968C17.8441 25.2312 20.92 19.8105 26.8578 9.3436C27.1521 8.8265 27.5176 8.56794 27.9723 8.56794H32.1537C32.6619 8.55903 32.9383 8.98698 32.6887 9.4595Z" fill="black"/>
</g>
<defs>
<clipPath id="clip0_201_6311">
<rect width="39.942" height="45.648" fill="white" transform="translate(0.583496)"/>
</clipPath>
</defs>
</svg>
