<svg width="47" height="46" viewBox="0 0 47 46" fill="none" xmlns="http://www.w3.org/2000/svg">
<path d="M20.7009 12.5764L15.6466 25.3409L10.6539 12.5764H2.08862L11.524 34.7879L8.08527 42.795H16.4811L29.0441 12.5764H20.7009ZM30.0979 24.6829C29.0713 24.6829 28.0678 24.9874 27.2142 25.5577C26.3606 26.1281 25.6953 26.9387 25.3024 27.8872C24.9095 28.8357 24.8067 29.8794 25.007 30.8863C25.2073 31.8932 25.7017 32.818 26.4276 33.544C27.1535 34.2699 28.0784 34.7643 29.0853 34.9645C30.0922 35.1648 31.1359 35.062 32.0843 34.6692C33.0328 34.2763 33.8435 33.611 34.4138 32.7574C34.9842 31.9038 35.2886 30.9002 35.2886 29.8736C35.2886 29.192 35.1544 28.517 34.8935 27.8872C34.6326 27.2575 34.2503 26.6852 33.7683 26.2032C33.2863 25.7212 32.7141 25.3389 32.0843 25.078C31.4546 24.8172 30.7796 24.6829 30.0979 24.6829ZM35.943 2.85303L27.6515 22.7768H36.9942L45.2527 2.85303H35.943Z" fill="black"/>
</svg>
