<svg width="46" height="46" viewBox="0 0 46 46" fill="none" xmlns="http://www.w3.org/2000/svg">
<path d="M37.7142 13.5669C38.0878 13.27 38.3465 12.8525 38.446 12.3858C38.5455 11.9191 38.4796 11.4323 38.2595 11.0089C38.0394 10.5855 37.6789 10.2518 37.2398 10.0651C36.8006 9.87838 36.3102 9.85022 35.8526 9.98547C35.7786 10.0238 35.7001 10.0657 35.6181 10.1103C34.2585 10.8592 25.0682 17.2981 26.106 18.0247C27.1438 18.7513 33.4204 15.9197 37.7142 13.5669ZM37.7142 32.9289C33.4204 30.577 27.1367 27.749 26.106 28.4711C25.0754 29.1933 34.2567 35.6348 35.6181 36.3828C35.7001 36.4283 35.7786 36.472 35.8526 36.5086C36.3095 36.6416 36.7985 36.6121 37.2361 36.425C37.6737 36.238 38.0329 35.905 38.2525 35.4827C38.472 35.0605 38.5384 34.5752 38.4403 34.1095C38.3421 33.6438 38.0855 33.2266 37.7142 32.9289ZM41.4971 21.13C41.4124 21.13 41.3232 21.1246 41.2296 21.1246C39.6783 21.1246 28.5231 22.3514 29.083 23.4882C29.6429 24.6249 36.5097 25.159 41.4052 25.1607C41.8776 25.0835 42.3081 24.8434 42.622 24.482C42.936 24.1207 43.1136 23.661 43.1242 23.1824C43.1348 22.7039 42.9777 22.2367 42.68 21.8618C42.3823 21.487 41.9629 21.2281 41.4944 21.13H41.4971ZM2.8737 8.61692C2.69549 8.08005 2.72912 7.49537 2.96772 6.98248C3.20631 6.46958 3.63185 6.06722 4.15729 5.85768C4.68272 5.64815 5.26836 5.64727 5.79443 5.85522C6.32049 6.06318 6.74723 6.46427 6.98737 6.97644L14.209 25.2588H14.3169L21.1819 7.11285C21.3788 6.60879 21.7628 6.20033 22.2538 5.97288C22.7448 5.74543 23.3048 5.71659 23.8165 5.8924C24.3283 6.06821 24.7523 6.43506 24.9999 6.91623C25.2474 7.39741 25.2994 7.95566 25.1449 8.47427L15.3734 32.8487C13.7196 37.0586 12.0639 39.942 7.05602 39.942C6.34475 39.9447 5.63455 39.8866 4.93321 39.7681C4.48527 39.6397 4.10015 39.3511 3.85108 38.9573C3.602 38.5635 3.50635 38.0919 3.58229 37.6321C3.65824 37.1724 3.90049 36.7566 4.26299 36.4638C4.62549 36.171 5.08295 36.0216 5.54838 36.044C5.60723 36.0494 6.52108 36.1029 6.78409 36.1029C9.50068 36.1029 10.6838 34.4143 11.9614 30.8061L2.8737 8.61692Z" fill="black"/>
</svg>
