<svg width="45" height="46" viewBox="0 0 45 46" fill="none" xmlns="http://www.w3.org/2000/svg">
<g clip-path="url(#clip0_201_6297)">
<path d="M35.6528 30.7767C32.1757 31.6059 31.3377 33.6387 26.3806 35.0027C26.3806 35.0027 26.1398 35.3594 25.4533 35.5198C24.2587 35.8141 19.7563 36.0548 19.3461 36.0637C18.2406 36.0726 17.5719 35.7784 17.3847 35.3326C16.8141 33.9685 18.2049 33.3712 18.2049 33.3712C17.4828 32.9254 17.4025 32.4885 17.3312 32.649C17.1172 33.1661 17.0103 34.4411 16.4307 35.0117C15.6462 35.8051 14.1573 35.5377 13.2835 35.083C12.3206 34.5748 13.3548 33.3712 13.3548 33.3712C13.3548 33.3712 12.8377 33.6743 12.4187 33.0502C11.8838 32.2211 10.8941 29.7247 13.444 27.5225C13.3281 26.6221 13.0339 22.7348 17.0637 19.8908C17.0637 19.8908 15.2271 17.858 15.9136 16.0303C16.3594 14.8356 16.5377 14.8445 16.6804 14.791C17.1886 14.5949 17.6878 14.3809 18.0534 13.9797C19.89 12.0004 22.2259 12.3749 22.2259 12.3749C22.2259 12.3749 23.3314 9.00479 24.3567 9.66454C24.6688 9.8696 25.81 12.3927 25.81 12.3927C25.81 12.3927 27.0225 11.6884 27.1562 11.9469C27.8873 13.3734 27.9765 16.0927 27.6555 17.751C27.1117 20.4792 25.7476 21.9503 25.1948 22.8775C25.07 23.0915 26.6659 23.7691 27.6733 26.5596C28.6006 29.1095 27.7714 31.2582 27.923 31.49C27.9943 31.6148 29.1444 31.5613 31.1683 30.3131C32.3095 29.6088 33.6735 28.8064 35.216 28.7975C36.7049 28.7529 36.7851 30.5093 35.6528 30.7767ZM44.7557 22.824C44.7557 35.0295 34.8504 44.9347 22.6449 44.9347C10.4394 44.9347 0.53418 35.0295 0.53418 22.824C0.53418 10.6185 10.4394 0.713257 22.6449 0.713257C34.8504 0.713257 44.7557 10.6185 44.7557 22.824ZM37.6856 29.5285C37.534 28.316 36.5087 27.478 35.1892 27.4958C33.2278 27.5225 31.5784 28.5389 30.4818 29.2076C30.0538 29.4751 29.6883 29.6712 29.3762 29.8138C29.6526 25.8464 27.3702 23.2965 26.8174 22.7348C27.5129 21.7274 28.4579 20.2563 28.9037 17.9917C29.2871 16.057 29.1712 13.0436 28.2885 11.3496C28.1459 11.0732 27.6288 10.351 26.4162 10.6898C25.5514 8.90671 25.2572 8.71949 25.0254 8.56792C24.9273 8.50551 22.9213 7.10576 21.3343 11.0643C20.2466 11.1445 18.5437 11.5368 17.0994 13.0971C16.9211 13.2932 16.5734 13.4359 16.1989 13.5785H16.2078C15.4589 13.846 15.1112 14.4611 14.7011 15.5667C14.1216 17.118 14.7189 18.6515 15.3074 19.6411C13.7204 21.0587 12.0086 23.1895 12.1245 26.9965C9.09318 30.2061 11.0724 33.5049 11.6252 34.0933C11.4826 35.083 11.9551 35.823 12.6951 36.2153C13.8185 36.8126 15.3965 37.0712 16.609 36.4649C17.0459 36.9285 17.8394 37.3654 19.2837 37.3654C19.89 37.3654 24.4548 37.1068 25.7565 36.7859C26.3627 36.6432 26.7818 36.3847 27.0582 36.1529C27.9319 35.8765 30.3391 35.0562 32.6037 33.5941C34.2085 32.5509 34.7613 32.3281 35.9559 32.0428C37.1061 31.7575 37.8282 30.6965 37.6856 29.5285Z" fill="black"/>
</g>
<defs>
<clipPath id="clip0_201_6297">
<rect width="44.2215" height="45.648" fill="white" transform="translate(0.533936)"/>
</clipPath>
</defs>
</svg>
