<svg width="35" height="46" viewBox="0 0 35 46" fill="none" xmlns="http://www.w3.org/2000/svg">
<g clip-path="url(#clip0_201_6295)">
<path d="M4.12289 21.426L13.0046 25.7599C14.7164 26.598 14.449 29.1042 12.6034 29.5678L3.01735 31.9581C2.73595 32.0288 2.44266 32.0385 2.15721 31.9864C1.87176 31.9344 1.60078 31.8218 1.36249 31.6562C1.1242 31.4906 0.924131 31.2759 0.775749 31.0266C0.627367 30.7773 0.534112 30.499 0.502257 30.2106C0.208117 27.6468 0.482071 25.0498 1.30466 22.6038C1.39695 22.3299 1.54659 22.0787 1.74362 21.8672C1.94065 21.6557 2.18053 21.4886 2.44725 21.3772C2.71397 21.2657 3.0014 21.2124 3.29035 21.2208C3.5793 21.2293 3.86313 21.2992 4.12289 21.426ZM8.04577 42.7567C10.1708 44.2125 12.5868 45.1893 15.1266 45.6195C15.4124 45.6685 15.7054 45.6558 15.9858 45.5822C16.2663 45.5085 16.5278 45.3757 16.7526 45.1925C16.9775 45.0094 17.1605 44.7803 17.2894 44.5205C17.4183 44.2607 17.4901 43.9764 17.4999 43.6866L17.8476 33.8063C17.91 31.9072 15.5741 30.9613 14.2983 32.3709L7.68201 39.7173C7.48826 39.9329 7.34281 40.1874 7.2554 40.4637C7.16799 40.7401 7.14063 41.0319 7.17516 41.3197C7.20968 41.6075 7.3053 41.8845 7.4556 42.1324C7.6059 42.3802 7.80742 42.593 8.04666 42.7567H8.04577ZM21.0037 32.9566L26.247 41.3373C26.4016 41.5834 26.6068 41.7937 26.849 41.9542C27.0912 42.1147 27.3649 42.2217 27.6518 42.2681C27.9386 42.3145 28.2321 42.2992 28.5125 42.2233C28.793 42.1473 29.0541 42.0125 29.2783 41.8277C31.2655 40.185 32.8694 38.1276 33.9777 35.7998C34.0999 35.5377 34.1652 35.2528 34.1694 34.9636C34.1737 34.6745 34.1167 34.3878 34.0023 34.1222C33.8879 33.8567 33.7186 33.6183 33.5055 33.4228C33.2925 33.2273 33.0405 33.0791 32.7661 32.9878L23.3673 29.9333C21.5565 29.3538 19.9963 31.342 21.0037 32.9566ZM34.2283 21.1675C33.2007 18.8035 31.6664 16.694 29.7339 14.9881C29.5165 14.7975 29.261 14.6554 28.9844 14.5712C28.7078 14.487 28.4164 14.4627 28.1297 14.4998C27.8429 14.5369 27.5674 14.6346 27.3213 14.7864C27.0753 14.9383 26.8644 15.1407 26.7026 15.3804L21.1749 23.5756C20.114 25.1537 21.5939 27.1962 23.4216 26.6702L32.9293 23.9501C33.2079 23.868 33.466 23.7278 33.6864 23.5385C33.9067 23.3493 34.0844 23.1153 34.2075 22.8523C34.3307 22.5892 34.3965 22.3029 34.4007 22.0125C34.4049 21.722 34.3473 21.434 34.2318 21.1675H34.2283ZM5.83558 2.69075C5.58303 2.8123 5.35827 2.98463 5.17534 3.19698C4.9924 3.40932 4.85523 3.65711 4.77239 3.92487C4.68956 4.19262 4.66284 4.47458 4.6939 4.75313C4.72497 5.03168 4.81315 5.30083 4.95294 5.54375L14.2359 21.6311C15.279 23.4321 18.0348 22.6921 18.0348 20.6147V2.03991C18.0374 1.75921 17.9814 1.48106 17.8705 1.22319C17.7596 0.965309 17.5962 0.733363 17.3907 0.542126C17.1852 0.350889 16.9421 0.204555 16.6769 0.112448C16.4118 0.0203409 16.1303 -0.0155194 15.8505 0.00715215C12.3764 0.283227 8.98222 1.19274 5.83558 2.69075Z" fill="black"/>
</g>
<defs>
<clipPath id="clip0_201_6295">
<rect width="34.236" height="45.648" fill="white" transform="translate(0.297852)"/>
</clipPath>
</defs>
</svg>
