<svg width="41" height="46" viewBox="0 0 41 46" fill="none" xmlns="http://www.w3.org/2000/svg">
<g clip-path="url(#clip0_201_6293)">
<path d="M8.49592 6.77589H25.079L24.4549 8.46094H8.49592C4.95642 8.46094 2.08559 11.2783 2.08559 14.7286V33.0413C2.08559 36.1974 4.30558 39.309 9.57471 39.309V41.0119H8.49592C4.02919 41.0119 0.355957 37.4278 0.355957 33.0324V14.7286C0.355957 10.3332 3.98462 6.77589 8.49592 6.77589ZM28.9216 1.78314H34.8505C22.0298 35.4931 21.8604 37.3476 18.3833 40.9495C16.5289 42.8752 13.9879 43.7757 11.4024 43.8649V39.309C15.7889 38.6225 17.1619 34.8601 17.1619 32.5955C17.1619 30.8035 17.2154 31.4722 9.84218 12.6959H15.3164L19.8098 26.6577L28.9216 1.78314ZM40.298 14.3987V41.0119H21.2185C21.8069 40.156 22.1725 39.5586 22.2973 39.2823H38.5683V14.3987C38.5683 11.5012 37.0437 9.77154 34.271 8.79082L34.8683 7.22167C38.5862 8.4342 40.298 11.0643 40.298 14.3987Z" fill="black"/>
</g>
<defs>
<clipPath id="clip0_201_6293">
<rect width="39.942" height="45.648" fill="white" transform="translate(0.355957)"/>
</clipPath>
</defs>
</svg>
