<svg width="41" height="46" viewBox="0 0 41 46" fill="none" xmlns="http://www.w3.org/2000/svg">
<g clip-path="url(#clip0_201_6291)">
<path d="M17.0684 18.0185L25.5561 22.8419L17.0684 27.6652V18.0185ZM40.3561 7.13253V38.5155C40.3561 40.8782 38.4392 42.795 36.0766 42.795H4.69356C2.33092 42.795 0.414062 40.8782 0.414062 38.5155V7.13253C0.414062 4.76989 2.33092 2.85303 4.69356 2.85303H36.0766C38.4392 2.85303 40.3561 4.76989 40.3561 7.13253ZM36.6115 22.8508C36.6115 22.8508 36.6115 17.5371 35.9339 14.9872C35.5594 13.5785 34.4628 12.473 33.0631 12.0985C30.54 11.412 20.3851 11.412 20.3851 11.412C20.3851 11.412 10.2302 11.412 7.70704 12.0985C6.30729 12.473 5.21067 13.5785 4.83621 14.9872C4.15862 17.5281 4.15862 22.8508 4.15862 22.8508C4.15862 22.8508 4.15862 28.1645 4.83621 30.7143C5.21067 32.123 6.30729 33.184 7.70704 33.5584C10.2302 34.236 20.3851 34.236 20.3851 34.236C20.3851 34.236 30.54 34.236 33.0631 33.5495C34.4628 33.1751 35.5594 32.1141 35.9339 30.7054C36.6115 28.1645 36.6115 22.8508 36.6115 22.8508Z" fill="black"/>
</g>
<defs>
<clipPath id="clip0_201_6291">
<rect width="39.942" height="45.648" fill="white" transform="translate(0.414062)"/>
</clipPath>
</defs>
</svg>
