<svg width="52" height="46" viewBox="0 0 52 46" fill="none" xmlns="http://www.w3.org/2000/svg">
<path d="M49.0647 11.0628C48.5047 8.95422 46.8548 7.2936 44.7598 6.73004C40.9627 5.70599 25.7365 5.70599 25.7365 5.70599C25.7365 5.70599 10.5104 5.70599 6.71314 6.73004C4.61824 7.29369 2.96831 8.95422 2.40832 11.0628C1.39087 14.8846 1.39087 22.8586 1.39087 22.8586C1.39087 22.8586 1.39087 30.8325 2.40832 34.6544C2.96831 36.7629 4.61824 38.3544 6.71314 38.9179C10.5104 39.942 25.7365 39.942 25.7365 39.942C25.7365 39.942 40.9626 39.942 44.7598 38.9179C46.8548 38.3544 48.5047 36.7629 49.0647 34.6544C50.0821 30.8325 50.0821 22.8586 50.0821 22.8586C50.0821 22.8586 50.0821 14.8846 49.0647 11.0628ZM20.7567 30.0983V15.6188L33.4827 22.8588L20.7567 30.0983Z" fill="black"/>
</svg>
