<svg width="58" height="46" viewBox="0 0 58 46" fill="none" xmlns="http://www.w3.org/2000/svg">
<g clip-path="url(#clip0_201_6287)">
<path d="M15.2047 13.2067V32.6018L17.2936 32.6027L17.981 34.9537L21.7265 32.6027H26.1424V13.2067H15.2047ZM23.9197 30.4968H21.4287L18.9412 32.0579L18.4883 30.5004L17.4274 30.4968V15.3126H23.9197V30.4968ZM13.3583 22.0813H8.69273C8.84786 19.6652 8.88888 17.4818 8.88888 15.5319H13.4501C13.4501 15.5319 13.6257 13.5206 12.6851 13.5429H4.79482C5.10598 12.3731 5.49648 11.1659 5.96455 9.91687C5.96455 9.91687 3.81856 9.91687 3.08748 11.84C2.78524 12.6335 1.90973 15.6862 0.350384 18.8049C0.875514 18.7478 2.61228 18.6997 3.6349 16.8247C3.82302 16.2996 3.85868 16.2309 4.09316 15.5293H6.6671C6.6671 16.4654 6.56011 21.492 6.51732 22.0769H1.85712C0.81043 22.0769 0.469853 24.1828 0.469853 24.1828H6.31672C5.92443 28.6281 3.81856 32.3744 0 35.3362C1.82681 35.8578 3.64738 35.2533 4.54697 34.4536C4.54697 34.4536 6.59578 32.5902 7.72004 28.2795L12.5309 34.0693C12.5309 34.0693 13.2361 31.6719 12.4204 30.5039C11.7445 29.7087 9.91863 27.5564 9.1403 26.7763L7.83683 27.8123C8.22555 26.5659 8.46003 25.3561 8.53849 24.1863H14.035C14.035 24.1863 14.0269 22.0805 13.3583 22.0805V22.0813ZM50.0924 21.9387C51.9495 19.6527 54.1027 16.7168 54.1027 16.7168C54.1027 16.7168 52.4399 15.3973 51.6616 16.3548C51.1266 17.0815 48.3779 20.6522 48.3779 20.6522L50.0924 21.9387ZM36.711 16.6705C35.9077 15.9349 34.4009 16.8604 34.4009 16.8604C34.4009 16.8604 37.9244 21.7675 38.067 21.9824L39.802 20.7583C39.802 20.7583 37.5134 17.4051 36.7119 16.6696H36.711V16.6705ZM57.06 23.0335C55.2965 23.0335 45.3885 23.1164 45.3752 23.1164V14.1117C45.804 14.1117 46.4825 14.076 47.4124 14.0047C51.0571 13.7898 53.6649 13.6481 55.2376 13.5758C55.2376 13.5758 56.3271 11.1517 55.185 10.5945C54.9113 10.4893 53.1193 11.0028 53.1193 11.0028C53.1193 11.0028 38.3889 12.473 32.4029 12.6121C32.5456 13.3984 33.0823 14.1349 33.8098 14.3551C34.9965 14.6653 35.8328 14.5066 38.1919 14.4344C40.4056 14.2918 42.0862 14.2178 43.2301 14.2178V23.1164H31.3304C31.3304 23.1164 31.5818 25.1055 33.6048 25.1537H43.2283V31.4766C43.2283 32.7221 42.2306 33.4372 41.0457 33.3596C39.7904 33.3694 38.7206 33.2571 37.3288 33.1982C37.5062 33.5522 37.8932 34.4812 39.0504 35.1454C39.9313 35.5743 40.4921 35.7312 41.3703 35.7312C44.0057 35.7312 45.442 34.1905 45.3725 31.6915V25.1546H56.2817C57.1447 25.1546 57.0573 23.0344 57.0573 23.0344L57.06 23.0335Z" fill="black"/>
</g>
<defs>
<clipPath id="clip0_201_6287">
<rect width="57.06" height="45.648" fill="white"/>
</clipPath>
</defs>
</svg>
