<svg width="24" height="23" viewBox="0 0 24 23" fill="none" xmlns="http://www.w3.org/2000/svg">
<g clip-path="url(#clip0_201_6280)">
<path d="M21.8595 2.13385H1.98246C0.885077 2.13385 -0.00524902 3.02418 -0.00524902 4.12156V18.6981C-0.00524902 19.7954 0.885077 20.6858 1.98246 20.6858H21.8595C22.9569 20.6858 23.8472 19.7954 23.8472 18.6981V4.12156C23.8472 3.02418 22.9569 2.13385 21.8595 2.13385ZM21.8595 18.6981H1.98246V4.12156H21.8595V18.6981ZM8.60814 11.4098C10.0699 11.4098 11.2584 10.2213 11.2584 8.75954C11.2584 7.29774 10.0699 6.10926 8.60814 6.10926C7.14635 6.10926 5.95787 7.29774 5.95787 8.75954C5.95787 10.2213 7.14635 11.4098 8.60814 11.4098ZM4.89776 16.7104H12.3185C12.832 16.7104 13.2461 16.3542 13.2461 15.9153V15.1202C13.2461 13.8033 11.9997 12.7349 10.4633 12.7349C10.0161 12.7349 9.68896 13.0662 8.60814 13.0662C7.4942 13.0662 7.22503 12.7349 6.75295 12.7349C5.21662 12.7349 3.97016 13.8033 3.97016 15.1202V15.9153C3.97016 16.3542 4.38427 16.7104 4.89776 16.7104ZM14.9025 14.0601H19.5405C19.7227 14.0601 19.8718 13.911 19.8718 13.7288V13.0662C19.8718 12.884 19.7227 12.7349 19.5405 12.7349H14.9025C14.7203 12.7349 14.5713 12.884 14.5713 13.0662V13.7288C14.5713 13.911 14.7203 14.0601 14.9025 14.0601ZM14.9025 11.4098H19.5405C19.7227 11.4098 19.8718 11.2607 19.8718 11.0785V10.416C19.8718 10.2338 19.7227 10.0847 19.5405 10.0847H14.9025C14.7203 10.0847 14.5713 10.2338 14.5713 10.416V11.0785C14.5713 11.2607 14.7203 11.4098 14.9025 11.4098ZM14.9025 8.75954H19.5405C19.7227 8.75954 19.8718 8.61046 19.8718 8.42825V7.76568C19.8718 7.58348 19.7227 7.4344 19.5405 7.4344H14.9025C14.7203 7.4344 14.5713 7.58348 14.5713 7.76568V8.42825C14.5713 8.61046 14.7203 8.75954 14.9025 8.75954Z" fill="black"/>
</g>
<defs>
<clipPath id="clip0_201_6280">
<rect width="23.8525" height="21.2022" fill="white" transform="translate(-0.00524902 0.808716)"/>
</clipPath>
</defs>
</svg>
