<svg width="22" height="23" viewBox="0 0 22 23" fill="none" xmlns="http://www.w3.org/2000/svg">
<g clip-path="url(#clip0_201_6282)">
<path d="M11.117 1.14001C5.44374 1.14001 0.847168 5.73658 0.847168 11.4098C0.847168 17.0831 5.44374 21.6796 11.117 21.6796C16.7902 21.6796 21.3868 17.0831 21.3868 11.4098C21.3868 5.73658 16.7902 1.14001 11.117 1.14001ZM11.117 19.6919C6.5494 19.6919 2.83487 15.9774 2.83487 11.4098C2.83487 6.84225 6.5494 3.12772 11.117 3.12772C15.6846 3.12772 19.3991 6.84225 19.3991 11.4098C19.3991 15.9774 15.6846 19.6919 11.117 19.6919ZM11.117 13.7288C9.72559 13.7288 8.41701 14.3417 7.52255 15.4101C7.17056 15.8325 7.22853 16.4578 7.65092 16.8098C8.07331 17.1618 8.69861 17.1079 9.0506 16.6855C10.0776 15.4556 12.1564 15.4556 13.1834 16.6855C13.5188 17.0872 14.1441 17.1783 14.583 16.8098C15.0054 16.4578 15.0593 15.8325 14.7114 15.4101C13.8169 14.3417 12.5084 13.7288 11.117 13.7288ZM9.12928 10.7473C9.5558 10.7473 9.95335 10.4698 10.0817 10.0391C10.2391 9.51323 9.94092 8.95832 9.41501 8.80096L6.10217 7.80711C5.57211 7.64561 5.02135 7.94791 4.86399 8.47382C4.70663 8.99974 5.00479 9.55464 5.5307 9.712L6.69848 10.064C6.5701 10.2669 6.479 10.4947 6.479 10.7514C6.479 11.4844 7.07117 12.0765 7.80414 12.0765C8.53711 12.0765 9.12928 11.4802 9.12928 10.7473ZM17.37 8.47382C17.2126 7.94791 16.6619 7.64975 16.1318 7.80711L12.819 8.80096C12.293 8.95832 11.9949 9.51323 12.1522 10.0391C12.2806 10.4698 12.6782 10.7473 13.1047 10.7473C13.1047 11.4802 13.6969 12.0724 14.4298 12.0724C15.1628 12.0724 15.755 11.4802 15.755 10.7473C15.755 10.4905 15.6639 10.2628 15.5355 10.0598L16.7033 9.70786C17.2292 9.55464 17.5273 8.99974 17.37 8.47382Z" fill="black"/>
</g>
<defs>
<clipPath id="clip0_201_6282">
<rect width="20.5396" height="21.2022" fill="white" transform="translate(0.847168 0.808716)"/>
</clipPath>
</defs>
</svg>
