<svg width="22" height="23" viewBox="0 0 22 23" fill="none" xmlns="http://www.w3.org/2000/svg">
<g clip-path="url(#clip0_201_6272)">
<path d="M10.7871 21.6796C16.4604 21.6796 21.057 17.0831 21.057 11.4098C21.057 5.73658 16.4604 1.14001 10.7871 1.14001C5.1139 1.14001 0.517334 5.73658 0.517334 11.4098C0.517334 17.0831 5.1139 21.6796 10.7871 21.6796ZM10.7871 3.12772C15.363 3.12772 19.0693 6.83396 19.0693 11.4098C19.0693 15.9857 15.363 19.6919 10.7871 19.6919C6.21128 19.6919 2.50504 15.9857 2.50504 11.4098C2.50504 6.83396 6.21128 3.12772 10.7871 3.12772ZM11.6154 16.7104H9.95894C9.68563 16.7104 9.46201 16.4868 9.46201 16.2135V11.4098H6.6875C6.24441 11.4098 6.02494 10.8756 6.33551 10.5609L10.4352 6.46127C10.6298 6.26664 10.9445 6.26664 11.1391 6.46127L15.2388 10.5609C15.5535 10.8756 15.3299 11.4098 14.8868 11.4098H12.1123V16.2135C12.1123 16.4868 11.8887 16.7104 11.6154 16.7104Z" fill="black"/>
</g>
<defs>
<clipPath id="clip0_201_6272">
<rect width="21.2022" height="21.2022" fill="white" transform="translate(0.186035 0.808716)"/>
</clipPath>
</defs>
</svg>
