<svg width="22" height="23" viewBox="0 0 22 23" fill="none" xmlns="http://www.w3.org/2000/svg">
<g clip-path="url(#clip0_201_6278)">
<path d="M11.3935 1.14001C5.72023 1.14001 1.12366 5.73658 1.12366 11.4098C1.12366 17.0831 5.72023 21.6796 11.3935 21.6796C17.0667 21.6796 21.6633 17.0831 21.6633 11.4098C21.6633 5.73658 17.0667 1.14001 11.3935 1.14001ZM11.3935 19.6919C6.81761 19.6919 3.11136 15.9857 3.11136 11.4098C3.11136 6.83396 6.81761 3.12772 11.3935 3.12772C15.9693 3.12772 19.6756 6.83396 19.6756 11.4098C19.6756 15.9857 15.9693 19.6919 11.3935 19.6919ZM10.0683 6.60621V11.4098H7.29383C6.85073 11.4098 6.63126 11.944 6.94184 12.2587L11.0415 16.3584C11.2361 16.553 11.5508 16.553 11.7455 16.3584L15.8451 12.2587C16.1598 11.944 15.9362 11.4098 15.4931 11.4098H12.7186V6.60621C12.7186 6.3329 12.495 6.10928 12.2217 6.10928H10.5653C10.292 6.10928 10.0683 6.3329 10.0683 6.60621Z" fill="black"/>
</g>
<defs>
<clipPath id="clip0_201_6278">
<rect width="21.2022" height="21.2022" fill="white" transform="translate(0.792603 0.808716)"/>
</clipPath>
</defs>
</svg>
