<svg width="22" height="23" viewBox="0 0 22 23" fill="none" xmlns="http://www.w3.org/2000/svg">
<g clip-path="url(#clip0_201_6274)">
<path d="M21.2589 11.4098C21.2589 5.73658 16.6623 1.14001 10.9891 1.14001C5.31581 1.14001 0.719238 5.73658 0.719238 11.4098C0.719238 17.0831 5.31581 21.6796 10.9891 21.6796C16.6623 21.6796 21.2589 17.0831 21.2589 11.4098ZM2.70694 11.4098C2.70694 6.83396 6.41319 3.12772 10.9891 3.12772C15.5649 3.12772 19.2712 6.83396 19.2712 11.4098C19.2712 15.9857 15.5649 19.6919 10.9891 19.6919C6.41319 19.6919 2.70694 15.9857 2.70694 11.4098ZM5.6885 12.238V10.5816C5.6885 10.3083 5.91212 10.0847 6.18543 10.0847H10.9891V7.31018C10.9891 6.86709 11.5232 6.64762 11.838 6.9582L15.9376 11.0578C16.1322 11.2525 16.1322 11.5672 15.9376 11.7618L11.838 15.8615C11.5232 16.1762 10.9891 15.9526 10.9891 15.5095V12.735H6.18543C5.91212 12.735 5.6885 12.5113 5.6885 12.238Z" fill="black"/>
</g>
<defs>
<clipPath id="clip0_201_6274">
<rect width="21.2022" height="21.2022" fill="white" transform="translate(0.388184 0.808716)"/>
</clipPath>
</defs>
</svg>
