<svg width="22" height="23" viewBox="0 0 22 23" fill="none" xmlns="http://www.w3.org/2000/svg">
<g clip-path="url(#clip0_201_6276)">
<path d="M0.921387 11.4098C0.921387 17.0831 5.51796 21.6796 11.1912 21.6796C16.8644 21.6796 21.461 17.0831 21.461 11.4098C21.461 5.73658 16.8644 1.14001 11.1912 1.14001C5.51796 1.14001 0.921387 5.73658 0.921387 11.4098ZM19.4733 11.4098C19.4733 15.9857 15.7671 19.6919 11.1912 19.6919C6.61534 19.6919 2.90909 15.9857 2.90909 11.4098C2.90909 6.83396 6.61534 3.12772 11.1912 3.12772C15.7671 3.12772 19.4733 6.83396 19.4733 11.4098ZM16.4917 10.5816V12.238C16.4917 12.5113 16.2681 12.735 15.9948 12.735H11.1912V15.5095C11.1912 15.9526 10.657 16.172 10.3423 15.8615L6.24264 11.7618C6.04801 11.5672 6.04801 11.2525 6.24264 11.0578L10.3423 6.9582C10.657 6.64348 11.1912 6.86709 11.1912 7.31018V10.0847H15.9948C16.2681 10.0847 16.4917 10.3083 16.4917 10.5816Z" fill="black"/>
</g>
<defs>
<clipPath id="clip0_201_6276">
<rect width="21.2022" height="21.2022" fill="white" transform="translate(0.590454 0.808716)"/>
</clipPath>
</defs>
</svg>
