<svg width="28" height="23" viewBox="0 0 28 23" fill="none" xmlns="http://www.w3.org/2000/svg">
<g clip-path="url(#clip0_201_6270)">
<path d="M26.9364 20.3139L2.17333 0.954067C1.88759 0.725481 1.47059 0.771447 1.242 1.05718L0.827898 1.5744C0.598898 1.86013 0.645278 2.27713 0.931011 2.50572L25.6945 21.8656C25.9802 22.0941 26.3968 22.0478 26.6258 21.7624L27.0399 21.2452C27.2685 20.9595 27.2226 20.5425 26.9364 20.3139ZM7.45441 16.0478C8.14638 15.1355 8.88225 13.7371 9.16881 11.4686L7.28587 9.99647C7.15046 13.7537 5.77563 14.9939 5.01492 15.8113C4.76645 16.0784 4.6563 16.3977 4.65837 16.7104C4.66293 17.3895 5.19588 18.0355 5.98765 18.0355H17.5685L15.0259 16.0478H7.45441ZM13.9339 4.78413C16.4956 4.78413 18.5719 6.86045 18.5719 9.42211C18.5719 9.43039 18.5694 9.43784 18.5694 9.44613C18.5702 10.1435 18.6175 10.7617 18.6849 11.3398L21.1501 13.2671C20.806 12.3507 20.5563 11.1348 20.5563 9.42211C20.5563 6.20451 18.3002 3.62877 15.2582 2.99685V2.13385C15.2582 1.40213 14.6652 0.808716 13.9339 0.808716C13.2026 0.808716 12.6096 1.40213 12.6096 2.13385V2.99685C11.5321 3.22088 10.5619 3.69834 9.7469 4.3518L11.3275 5.58749C12.0704 5.08146 12.967 4.78413 13.9339 4.78413ZM13.9339 22.0109C15.3965 22.0109 16.583 20.8245 16.583 19.3606H11.2849C11.2849 20.8245 12.4713 22.0109 13.9339 22.0109Z" fill="black"/>
</g>
<defs>
<clipPath id="clip0_201_6270">
<rect width="26.5027" height="21.2022" fill="white" transform="translate(0.68335 0.808716)"/>
</clipPath>
</defs>
</svg>
