<svg width="20" height="23" viewBox="0 0 20 23" fill="none" xmlns="http://www.w3.org/2000/svg">
<g clip-path="url(#clip0_201_6264)">
<path d="M5.97822 6.93748V5.28105C5.97822 5.00774 6.20184 4.78413 6.47515 4.78413H8.13157C8.40488 4.78413 8.6285 5.00774 8.6285 5.28105V6.93748C8.6285 7.21079 8.40488 7.4344 8.13157 7.4344H6.47515C6.20184 7.4344 5.97822 7.21079 5.97822 6.93748ZM11.7757 7.4344H13.4321C13.7054 7.4344 13.929 7.21079 13.929 6.93748V5.28105C13.929 5.00774 13.7054 4.78413 13.4321 4.78413H11.7757C11.5024 4.78413 11.2788 5.00774 11.2788 5.28105V6.93748C11.2788 7.21079 11.5024 7.4344 11.7757 7.4344ZM6.47515 11.4098H8.13157C8.40488 11.4098 8.6285 11.1862 8.6285 10.9129V9.25647C8.6285 8.98316 8.40488 8.75954 8.13157 8.75954H6.47515C6.20184 8.75954 5.97822 8.98316 5.97822 9.25647V10.9129C5.97822 11.1862 6.20184 11.4098 6.47515 11.4098ZM11.7757 11.4098H13.4321C13.7054 11.4098 13.929 11.1862 13.929 10.9129V9.25647C13.929 8.98316 13.7054 8.75954 13.4321 8.75954H11.7757C11.5024 8.75954 11.2788 8.98316 11.2788 9.25647V10.9129C11.2788 11.1862 11.5024 11.4098 11.7757 11.4098ZM8.6285 14.8883V13.2319C8.6285 12.9586 8.40488 12.735 8.13157 12.735H6.47515C6.20184 12.735 5.97822 12.9586 5.97822 13.2319V14.8883C5.97822 15.1616 6.20184 15.3852 6.47515 15.3852H8.13157C8.40488 15.3852 8.6285 15.1616 8.6285 14.8883ZM11.7757 15.3852H13.4321C13.7054 15.3852 13.929 15.1616 13.929 14.8883V13.2319C13.929 12.9586 13.7054 12.735 13.4321 12.735H11.7757C11.5024 12.735 11.2788 12.9586 11.2788 13.2319V14.8883C11.2788 15.1616 11.5024 15.3852 11.7757 15.3852ZM19.2296 20.5201V22.0109H0.677673V20.5201C0.677673 20.2468 0.90129 20.0232 1.1746 20.0232H1.98211V1.80257C1.98211 1.25181 2.4252 0.808716 2.97596 0.808716H16.9313C17.4821 0.808716 17.9252 1.25181 17.9252 1.80257V20.0232H18.7327C19.006 20.0232 19.2296 20.2468 19.2296 20.5201ZM3.96981 19.9818H8.6285V17.2073C8.6285 16.934 8.85211 16.7104 9.12542 16.7104H10.7818C11.0552 16.7104 11.2788 16.934 11.2788 17.2073V19.9818H15.9375V2.83783L3.99052 2.79642L3.96981 19.9818Z" fill="black"/>
</g>
<defs>
<clipPath id="clip0_201_6264">
<rect width="18.5519" height="21.2022" fill="white" transform="translate(0.677734 0.808716)"/>
</clipPath>
</defs>
</svg>
