<svg width="20" height="23" viewBox="0 0 20 23" fill="none" xmlns="http://www.w3.org/2000/svg">
<g clip-path="url(#clip0_201_6260)">
<path d="M17.1381 3.45899H15.1504V1.30564C15.1504 1.03121 14.9279 0.808716 14.6534 0.808716H12.997C12.7226 0.808716 12.5001 1.03121 12.5001 1.30564V3.45899H7.19954V1.30564C7.19954 1.03121 6.97704 0.808716 6.70261 0.808716H5.04619C4.77176 0.808716 4.54926 1.03121 4.54926 1.30564V3.45899H2.56156C1.46376 3.45899 0.573853 4.3489 0.573853 5.4467V20.0232C0.573853 21.121 1.46376 22.0109 2.56156 22.0109H17.1381C18.2359 22.0109 19.1258 21.121 19.1258 20.0232V5.4467C19.1258 4.3489 18.2359 3.45899 17.1381 3.45899ZM16.8896 20.0232H2.81002C2.74412 20.0232 2.68093 19.997 2.63433 19.9504C2.58774 19.9038 2.56156 19.8406 2.56156 19.7747V7.4344H17.1381V19.7747C17.1381 19.8406 17.1119 19.9038 17.0653 19.9504C17.0187 19.997 16.9555 20.0232 16.8896 20.0232ZM14.7011 11.7142L8.80801 17.5601C8.61317 17.7533 8.29853 17.7521 8.10523 17.5572L4.99567 14.4225C4.80241 14.2277 4.80365 13.913 4.99849 13.7197L5.93929 12.7865C6.13413 12.5932 6.44877 12.5945 6.64203 12.7894L8.4684 14.6305L13.068 10.0679C13.2628 9.8746 13.5774 9.87584 13.7707 10.0707L14.704 11.0114C14.8972 11.2063 14.8959 11.5209 14.7011 11.7142Z" fill="black"/>
</g>
<defs>
<clipPath id="clip0_201_6260">
<rect width="18.5519" height="21.2022" fill="white" transform="translate(0.573853 0.808716)"/>
</clipPath>
</defs>
</svg>
