<svg width="19" height="23" viewBox="0 0 19 23" fill="none" xmlns="http://www.w3.org/2000/svg">
<g clip-path="url(#clip0_201_6262)">
<path d="M6.25455 12.735H4.59813C4.32482 12.735 4.1012 12.5113 4.1012 12.238V10.5816C4.1012 10.3083 4.32482 10.0847 4.59813 10.0847H6.25455C6.52786 10.0847 6.75148 10.3083 6.75148 10.5816V12.238C6.75148 12.5113 6.52786 12.735 6.25455 12.735ZM10.7269 12.238V10.5816C10.7269 10.3083 10.5033 10.0847 10.23 10.0847H8.57354C8.30023 10.0847 8.07662 10.3083 8.07662 10.5816V12.238C8.07662 12.5113 8.30023 12.735 8.57354 12.735H10.23C10.5033 12.735 10.7269 12.5113 10.7269 12.238ZM14.7023 12.238V10.5816C14.7023 10.3083 14.4787 10.0847 14.2054 10.0847H12.549C12.2756 10.0847 12.052 10.3083 12.052 10.5816V12.238C12.052 12.5113 12.2756 12.735 12.549 12.735H14.2054C14.4787 12.735 14.7023 12.5113 14.7023 12.238ZM10.7269 16.2134V14.557C10.7269 14.2837 10.5033 14.0601 10.23 14.0601H8.57354C8.30023 14.0601 8.07662 14.2837 8.07662 14.557V16.2134C8.07662 16.4867 8.30023 16.7104 8.57354 16.7104H10.23C10.5033 16.7104 10.7269 16.4867 10.7269 16.2134ZM6.75148 16.2134V14.557C6.75148 14.2837 6.52786 14.0601 6.25455 14.0601H4.59813C4.32482 14.0601 4.1012 14.2837 4.1012 14.557V16.2134C4.1012 16.4867 4.32482 16.7104 4.59813 16.7104H6.25455C6.52786 16.7104 6.75148 16.4867 6.75148 16.2134ZM14.7023 16.2134V14.557C14.7023 14.2837 14.4787 14.0601 14.2054 14.0601H12.549C12.2756 14.0601 12.052 14.2837 12.052 14.557V16.2134C12.052 16.4867 12.2756 16.7104 12.549 16.7104H14.2054C14.4787 16.7104 14.7023 16.4867 14.7023 16.2134ZM18.6777 5.4467V20.0232C18.6777 21.1206 17.7874 22.0109 16.69 22.0109H2.1135C1.01612 22.0109 0.125793 21.1206 0.125793 20.0232V5.4467C0.125793 4.34932 1.01612 3.45899 2.1135 3.45899H4.1012V1.30564C4.1012 1.03233 4.32482 0.808716 4.59813 0.808716H6.25455C6.52786 0.808716 6.75148 1.03233 6.75148 1.30564V3.45899H12.052V1.30564C12.052 1.03233 12.2756 0.808716 12.549 0.808716H14.2054C14.4787 0.808716 14.7023 1.03233 14.7023 1.30564V3.45899H16.69C17.7874 3.45899 18.6777 4.34932 18.6777 5.4467ZM16.69 19.7747V7.4344H2.1135V19.7747C2.1135 19.9114 2.22531 20.0232 2.36196 20.0232H16.4415C16.5782 20.0232 16.69 19.9114 16.69 19.7747Z" fill="black"/>
</g>
<defs>
<clipPath id="clip0_201_6262">
<rect width="18.5519" height="21.2022" fill="white" transform="translate(0.125793 0.808716)"/>
</clipPath>
</defs>
</svg>
