<svg width="20" height="23" viewBox="0 0 20 23" fill="none" xmlns="http://www.w3.org/2000/svg">
<g clip-path="url(#clip0_201_6254)">
<path d="M13.8258 16.3252L13.1218 17.0292C12.9271 17.2239 12.6124 17.2239 12.4178 17.0292L10.1941 14.8013L7.9703 17.0251C7.77568 17.2197 7.46096 17.2197 7.26633 17.0251L6.56235 16.3211C6.36772 16.1265 6.36772 15.8118 6.56235 15.6171L8.78609 13.3934L6.56235 11.1696C6.36772 10.975 6.36772 10.6603 6.56235 10.4657L7.26633 9.76167C7.46096 9.56705 7.77568 9.56705 7.9703 9.76167L10.1941 11.9854L12.4178 9.76167C12.6124 9.56705 12.9271 9.56705 13.1218 9.76167L13.8258 10.4657C14.0204 10.6603 14.0204 10.975 13.8258 11.1696L11.5979 13.3975L13.8216 15.6213C14.0204 15.8159 14.0204 16.1306 13.8258 16.3252ZM19.47 5.4467V20.0232C19.47 21.1206 18.5797 22.0109 17.4823 22.0109H2.9058C1.80842 22.0109 0.918091 21.1206 0.918091 20.0232V5.4467C0.918091 4.34932 1.80842 3.45899 2.9058 3.45899H4.8935V1.30564C4.8935 1.03233 5.11712 0.808716 5.39043 0.808716H7.04685C7.32016 0.808716 7.54378 1.03233 7.54378 1.30564V3.45899H12.8443V1.30564C12.8443 1.03233 13.0679 0.808716 13.3413 0.808716H14.9977C15.271 0.808716 15.4946 1.03233 15.4946 1.30564V3.45899H17.4823C18.5797 3.45899 19.47 4.34932 19.47 5.4467ZM17.4823 19.7747V7.4344H2.9058V19.7747C2.9058 19.9114 3.01761 20.0232 3.15426 20.0232H17.2338C17.3705 20.0232 17.4823 19.9114 17.4823 19.7747Z" fill="black"/>
</g>
<defs>
<clipPath id="clip0_201_6254">
<rect width="18.5519" height="21.2022" fill="white" transform="translate(0.918091 0.808716)"/>
</clipPath>
</defs>
</svg>
