<svg width="19" height="23" viewBox="0 0 19 23" fill="none" xmlns="http://www.w3.org/2000/svg">
<g clip-path="url(#clip0_201_6252)">
<path d="M16.9304 3.45899H14.9427V1.30564C14.9427 1.03233 14.719 0.808716 14.4457 0.808716H12.7893C12.516 0.808716 12.2924 1.03233 12.2924 1.30564V3.45899H6.99184V1.30564C6.99184 1.03233 6.76822 0.808716 6.49491 0.808716H4.83849C4.56518 0.808716 4.34156 1.03233 4.34156 1.30564V3.45899H2.35386C1.25648 3.45899 0.36615 4.34932 0.36615 5.4467V20.0232C0.36615 21.1206 1.25648 22.0109 2.35386 22.0109H16.9304C18.0277 22.0109 18.9181 21.1206 18.9181 20.0232V5.4467C18.9181 4.34932 18.0277 3.45899 16.9304 3.45899ZM16.6819 20.0232H2.60232C2.46566 20.0232 2.35386 19.9114 2.35386 19.7747V7.4344H16.9304V19.7747C16.9304 19.9114 16.8186 20.0232 16.6819 20.0232Z" fill="black"/>
</g>
<defs>
<clipPath id="clip0_201_6252">
<rect width="18.5519" height="21.2022" fill="white" transform="translate(0.36615 0.808716)"/>
</clipPath>
</defs>
</svg>
