<svg width="19" height="23" viewBox="0 0 19 23" fill="none" xmlns="http://www.w3.org/2000/svg">
<g clip-path="url(#clip0_201_6258)">
<path d="M5.157 14.3914C4.88369 14.3914 4.66007 14.1678 4.66007 13.8944V12.9006C4.66007 12.6273 4.88369 12.4037 5.157 12.4037H13.4391C13.7124 12.4037 13.936 12.6273 13.936 12.9006V13.8944C13.936 14.1678 13.7124 14.3914 13.4391 14.3914H5.157ZM18.574 5.4467V20.0232C18.574 21.1206 17.6837 22.0109 16.5863 22.0109H2.0098C0.912421 22.0109 0.0220947 21.1206 0.0220947 20.0232V5.4467C0.0220947 4.34932 0.912421 3.45899 2.0098 3.45899H3.99751V1.30564C3.99751 1.03233 4.22112 0.808716 4.49443 0.808716H6.15085C6.42416 0.808716 6.64778 1.03233 6.64778 1.30564V3.45899H11.9483V1.30564C11.9483 1.03233 12.1719 0.808716 12.4453 0.808716H14.1017C14.375 0.808716 14.5986 1.03233 14.5986 1.30564V3.45899H16.5863C17.6837 3.45899 18.574 4.34932 18.574 5.4467ZM16.5863 19.7747V7.4344H2.0098V19.7747C2.0098 19.9114 2.12161 20.0232 2.25826 20.0232H16.3378C16.4745 20.0232 16.5863 19.9114 16.5863 19.7747Z" fill="black"/>
</g>
<defs>
<clipPath id="clip0_201_6258">
<rect width="18.5519" height="21.2022" fill="white" transform="translate(0.0219116 0.808716)"/>
</clipPath>
</defs>
</svg>
