<svg width="20" height="23" viewBox="0 0 20 23" fill="none" xmlns="http://www.w3.org/2000/svg">
<g clip-path="url(#clip0_201_6246)">
<path d="M7.99867 15.5053V7.31431C7.99867 6.87122 8.53701 6.6476 8.84759 6.96232L12.9182 11.0578C13.1129 11.2524 13.1129 11.563 12.9182 11.7577L8.84759 15.8532C8.53701 16.172 7.99867 15.9484 7.99867 15.5053ZM19.2623 4.12156V18.6981C19.2623 19.7954 18.372 20.6858 17.2746 20.6858H2.69812C1.60075 20.6858 0.710419 19.7954 0.710419 18.6981V4.12156C0.710419 3.02418 1.60075 2.13385 2.69812 2.13385H17.2746C18.372 2.13385 19.2623 3.02418 19.2623 4.12156ZM17.2746 18.4496V4.37002C17.2746 4.23336 17.1628 4.12156 17.0262 4.12156H2.94659C2.80993 4.12156 2.69812 4.23336 2.69812 4.37002V18.4496C2.69812 18.5863 2.80993 18.6981 2.94659 18.6981H17.0262C17.1628 18.6981 17.2746 18.5863 17.2746 18.4496Z" fill="black"/>
</g>
<defs>
<clipPath id="clip0_201_6246">
<rect width="18.5519" height="21.2022" fill="white" transform="translate(0.710419 0.808716)"/>
</clipPath>
</defs>
</svg>
