<svg width="20" height="23" viewBox="0 0 20 23" fill="none" xmlns="http://www.w3.org/2000/svg">
<g clip-path="url(#clip0_201_6250)">
<path d="M5.99482 9.4221H14.1858C14.6289 9.4221 14.8525 9.96044 14.5378 10.271L10.4423 14.3417C10.2477 14.5363 9.9371 14.5363 9.74247 14.3417L5.64697 10.271C5.32811 9.96044 5.55173 9.4221 5.99482 9.4221ZM19.3663 4.12156V18.6981C19.3663 19.7954 18.476 20.6858 17.3786 20.6858H2.80207C1.70469 20.6858 0.814362 19.7954 0.814362 18.6981V4.12156C0.814362 3.02418 1.70469 2.13385 2.80207 2.13385H17.3786C18.476 2.13385 19.3663 3.02418 19.3663 4.12156ZM17.3786 18.4496V4.37002C17.3786 4.23336 17.2668 4.12156 17.1301 4.12156H3.05053C2.91388 4.12156 2.80207 4.23336 2.80207 4.37002V18.4496C2.80207 18.5863 2.91388 18.6981 3.05053 18.6981H17.1301C17.2668 18.6981 17.3786 18.5863 17.3786 18.4496Z" fill="black"/>
</g>
<defs>
<clipPath id="clip0_201_6250">
<rect width="18.5519" height="21.2022" fill="white" transform="translate(0.814209 0.808716)"/>
</clipPath>
</defs>
</svg>
