<svg width="19" height="23" viewBox="0 0 19 23" fill="none" xmlns="http://www.w3.org/2000/svg">
<g clip-path="url(#clip0_201_6244)">
<path d="M13.53 13.3975H5.33897C4.89587 13.3975 4.67226 12.8592 4.98698 12.5486L9.08248 8.47794C9.27711 8.28331 9.58769 8.28331 9.78232 8.47794L13.8778 12.5486C14.1967 12.8592 13.9731 13.3975 13.53 13.3975ZM18.7104 4.12156V18.6981C18.7104 19.7954 17.8201 20.6858 16.7227 20.6858H2.14621C1.04883 20.6858 0.158508 19.7954 0.158508 18.6981V4.12156C0.158508 3.02418 1.04883 2.13385 2.14621 2.13385H16.7227C17.8201 2.13385 18.7104 3.02418 18.7104 4.12156ZM16.7227 18.4496V4.37002C16.7227 4.23336 16.6109 4.12156 16.4743 4.12156H2.39468C2.25802 4.12156 2.14621 4.23336 2.14621 4.37002V18.4496C2.14621 18.5863 2.25802 18.6981 2.39468 18.6981H16.4743C16.6109 18.6981 16.7227 18.5863 16.7227 18.4496Z" fill="black"/>
</g>
<defs>
<clipPath id="clip0_201_6244">
<rect width="18.5519" height="21.2022" fill="white" transform="translate(0.158508 0.808716)"/>
</clipPath>
</defs>
</svg>
