<svg width="19" height="23" viewBox="0 0 19 23" fill="none" xmlns="http://www.w3.org/2000/svg">
<g clip-path="url(#clip0_201_6248)">
<path d="M11.5258 7.31431V15.5053C11.5258 15.9484 10.9875 16.172 10.6769 15.8573L6.60627 11.7618C6.41164 11.5672 6.41164 11.2566 6.60627 11.062L10.6769 6.96646C10.9875 6.6476 11.5258 6.87122 11.5258 7.31431ZM18.8141 4.12156V18.6981C18.8141 19.7954 17.9238 20.6858 16.8264 20.6858H2.24988C1.1525 20.6858 0.262177 19.7954 0.262177 18.6981V4.12156C0.262177 3.02418 1.1525 2.13385 2.24988 2.13385H16.8264C17.9238 2.13385 18.8141 3.02418 18.8141 4.12156ZM16.8264 18.4496V4.37002C16.8264 4.23336 16.7146 4.12156 16.5779 4.12156H2.49835C2.36169 4.12156 2.24988 4.23336 2.24988 4.37002V18.4496C2.24988 18.5863 2.36169 18.6981 2.49835 18.6981H16.5779C16.7146 18.6981 16.8264 18.5863 16.8264 18.4496Z" fill="black"/>
</g>
<defs>
<clipPath id="clip0_201_6248">
<rect width="18.5519" height="21.2022" fill="white" transform="translate(0.262329 0.808716)"/>
</clipPath>
</defs>
</svg>
