<svg width="23" height="23" viewBox="0 0 23 23" fill="none" xmlns="http://www.w3.org/2000/svg">
<g clip-path="url(#clip0_201_6242)">
<path d="M17.3882 15.3852H18.3158C18.5808 15.3852 18.8458 15.1202 18.8458 14.8552V5.31418C18.8458 5.04915 18.5808 4.78412 18.3158 4.78412H17.3882C17.1231 4.78412 16.8581 5.04915 16.8581 5.31418V14.8552C16.8581 15.1202 17.1231 15.3852 17.3882 15.3852ZM9.43735 15.3852H10.3649C10.63 15.3852 10.895 15.1202 10.895 14.8552V6.63931C10.895 6.37429 10.63 6.10926 10.3649 6.10926H9.43735C9.17232 6.10926 8.90729 6.37429 8.90729 6.63931V14.8552C8.90729 15.1202 9.17232 15.3852 9.43735 15.3852ZM13.4128 15.3852H14.3404C14.6054 15.3852 14.8704 15.1202 14.8704 14.8552V9.28959C14.8704 9.02456 14.6054 8.75953 14.3404 8.75953H13.4128C13.1477 8.75953 12.8827 9.02456 12.8827 9.28959V14.8552C12.8827 15.1202 13.1477 15.3852 13.4128 15.3852ZM21.4961 17.3729H2.94417V4.12155C2.94417 3.75548 2.64767 3.45898 2.2816 3.45898H1.61904C1.25297 3.45898 0.956467 3.75548 0.956467 4.12155V18.0355C0.956467 18.7672 1.54988 19.3606 2.2816 19.3606H21.4961C21.8622 19.3606 22.1587 19.0641 22.1587 18.6981V18.0355C22.1587 17.6694 21.8622 17.3729 21.4961 17.3729ZM5.46193 15.3852H6.38953C6.65456 15.3852 6.91958 15.1202 6.91958 14.8552V11.9399C6.91958 11.6748 6.65456 11.4098 6.38953 11.4098H5.46193C5.19691 11.4098 4.93188 11.6748 4.93188 11.9399V14.8552C4.93188 15.1202 5.19691 15.3852 5.46193 15.3852Z" fill="black"/>
</g>
<defs>
<clipPath id="clip0_201_6242">
<rect width="21.2022" height="21.2022" fill="white" transform="translate(0.956299 0.808716)"/>
</clipPath>
</defs>
</svg>
