<svg width="16" height="22" viewBox="0 0 16 22" fill="none" xmlns="http://www.w3.org/2000/svg">
<g clip-path="url(#clip0_201_6234)">
<path d="M13.9919 3.25684H10.6791C10.6791 1.79505 9.49062 0.606567 8.02883 0.606567C6.56703 0.606567 5.37855 1.79505 5.37855 3.25684H2.06571C0.968329 3.25684 0.0780029 4.14717 0.0780029 5.24455V19.8211C0.0780029 20.9184 0.968329 21.8088 2.06571 21.8088H13.9919C15.0893 21.8088 15.9796 20.9184 15.9796 19.8211V5.24455C15.9796 4.14717 15.0893 3.25684 13.9919 3.25684ZM8.02883 2.26299C8.57959 2.26299 9.02268 2.70608 9.02268 3.25684C9.02268 3.8076 8.57959 4.25069 8.02883 4.25069C7.47807 4.25069 7.03497 3.8076 7.03497 3.25684C7.03497 2.70608 7.47807 2.26299 8.02883 2.26299ZM13.9919 19.5726C13.9919 19.7092 13.8801 19.8211 13.7435 19.8211H2.31417C2.17752 19.8211 2.06571 19.7092 2.06571 19.5726V5.49301C2.06571 5.35636 2.17752 5.24455 2.31417 5.24455H4.05341V6.73533C4.05341 7.00864 4.27703 7.23225 4.55034 7.23225H11.5073C11.7806 7.23225 12.0042 7.00864 12.0042 6.73533V5.24455H13.7435C13.8801 5.24455 13.9919 5.35636 13.9919 5.49301V19.5726Z" fill="black"/>
</g>
<defs>
<clipPath id="clip0_201_6234">
<rect width="15.9016" height="21.2022" fill="white" transform="translate(0.0778809 0.606567)"/>
</clipPath>
</defs>
</svg>
