<svg width="23" height="22" viewBox="0 0 23 22" fill="none" xmlns="http://www.w3.org/2000/svg">
<g clip-path="url(#clip0_201_6232)">
<path d="M11.4768 0.937866C5.8036 0.937866 1.20703 5.53444 1.20703 11.2077C1.20703 16.8809 5.8036 21.4775 11.4768 21.4775C17.1501 21.4775 21.7467 16.8809 21.7467 11.2077C21.7467 5.53444 17.1501 0.937866 11.4768 0.937866ZM11.4768 19.4898C6.90098 19.4898 3.19474 15.7835 3.19474 11.2077C3.19474 6.63182 6.90098 2.92557 11.4768 2.92557C16.0527 2.92557 19.759 6.63182 19.759 11.2077C19.759 15.7835 16.0527 19.4898 11.4768 19.4898ZM14.036 15.1665L10.5203 12.6115C10.3919 12.5163 10.3173 12.3672 10.3173 12.2098V5.4102C10.3173 5.13689 10.541 4.91328 10.8143 4.91328H12.1394C12.4127 4.91328 12.6363 5.13689 12.6363 5.4102V11.2781L15.4026 13.2906C15.6262 13.4521 15.6717 13.7627 15.5102 13.9863L14.7317 15.0589C14.5702 15.2783 14.2596 15.328 14.036 15.1665Z" fill="black"/>
</g>
<defs>
<clipPath id="clip0_201_6232">
<rect width="21.2022" height="21.2022" fill="white" transform="translate(0.875732 0.606567)"/>
</clipPath>
</defs>
</svg>
