<svg width="22" height="22" viewBox="0 0 22 22" fill="none" xmlns="http://www.w3.org/2000/svg">
<g clip-path="url(#clip0_201_6228)">
<path d="M19.6859 3.25684H2.45914C1.36176 3.25684 0.471436 4.14716 0.471436 5.24454V17.1708C0.471436 18.2682 1.36176 19.1585 2.45914 19.1585H19.6859C20.7833 19.1585 21.6736 18.2682 21.6736 17.1708V5.24454C21.6736 4.14716 20.7833 3.25684 19.6859 3.25684ZM19.4375 17.1708H2.7076C2.57095 17.1708 2.45914 17.059 2.45914 16.9223V5.493C2.45914 5.35635 2.57095 5.24454 2.7076 5.24454H19.4375C19.5741 5.24454 19.6859 5.35635 19.6859 5.493V16.9223C19.6859 17.059 19.5741 17.1708 19.4375 17.1708ZM10.6957 13.6219C10.7661 13.7213 10.7578 13.8538 10.675 13.9408C8.45539 16.2929 3.51925 15.27 3.51925 11.129C3.51925 7.09973 8.55891 6.18042 10.6626 8.2261C10.7495 8.30892 10.7661 8.35861 10.704 8.46214L9.9793 9.72516C9.90062 9.85353 9.72255 9.8908 9.60246 9.79556C7.91291 8.47042 5.68502 9.17854 5.68502 11.0876C5.68502 13.0753 7.79696 14.007 9.50307 12.4376C9.61902 12.334 9.79709 12.3506 9.88405 12.4748L10.6957 13.6219ZM18.5803 13.6219C18.6507 13.7213 18.6424 13.8538 18.5596 13.9408C16.34 16.297 11.4038 15.27 11.4038 11.129C11.4038 7.09973 16.4435 6.18042 18.5471 8.2261C18.6341 8.30892 18.6507 8.35861 18.5885 8.46214L17.8639 9.72516C17.7852 9.85353 17.6071 9.8908 17.487 9.79556C15.7975 8.47042 13.5696 9.17854 13.5696 11.0876C13.5696 13.0753 15.6815 14.007 17.3876 12.4376C17.5036 12.334 17.6817 12.3506 17.7686 12.4748L18.5803 13.6219Z" fill="black"/>
</g>
<defs>
<clipPath id="clip0_201_6228">
<rect width="21.2022" height="21.2022" fill="white" transform="translate(0.471436 0.606567)"/>
</clipPath>
</defs>
</svg>
