<svg width="25" height="22" viewBox="0 0 25 22" fill="none" xmlns="http://www.w3.org/2000/svg">
<g clip-path="url(#clip0_201_6222)">
<path d="M22.2453 16.5993C23.3841 15.4771 24.0673 14.0691 24.0673 12.5328C24.0673 9.21996 20.8994 6.48272 16.7708 5.99408C15.4664 3.60883 12.402 1.9317 8.82827 1.9317C4.0702 1.9317 0.214879 4.8967 0.214879 8.55739C0.214879 10.0896 0.898152 11.4975 2.03694 12.6239C1.40336 13.8952 0.492329 14.8808 0.475765 14.8973C0.214879 15.1748 0.14034 15.5806 0.293559 15.9326C0.442636 16.2846 0.790485 16.5124 1.17146 16.5124C3.38693 16.5124 5.17586 15.6759 6.35606 14.9056C6.73704 14.9926 7.13044 15.0588 7.53212 15.1085C8.83241 17.4855 11.8844 19.1585 15.454 19.1585C16.3153 19.1585 17.1435 19.0591 17.9303 18.8769C19.1105 19.643 20.8953 20.4836 23.1149 20.4836C23.4959 20.4836 23.8396 20.2559 23.9928 19.9039C24.1419 19.5519 24.0715 19.1461 23.8106 18.8686C23.794 18.8562 22.8789 17.8706 22.2453 16.5993ZM5.97922 12.7771L5.2711 13.2368C4.68722 13.6136 4.0909 13.9118 3.48631 14.123C3.59812 13.9283 3.70993 13.7213 3.8176 13.5101L4.45946 12.2222L3.43248 11.2077C2.87343 10.6528 2.20258 9.74587 2.20258 8.55739C2.20258 6.04377 5.23798 3.91941 8.82827 3.91941C12.4186 3.91941 15.454 6.04377 15.454 8.55739C15.454 11.071 12.4186 13.1954 8.82827 13.1954C8.145 13.1954 7.46172 13.1167 6.79915 12.9635L5.97922 12.7771ZM20.8497 15.1831L19.8269 16.1935L20.4688 17.4814C20.5764 17.6926 20.6882 17.8996 20.8001 18.0942C20.1955 17.883 19.5991 17.5849 19.0153 17.208L18.3071 16.7484L17.4831 16.9389C16.8205 17.0921 16.1372 17.1708 15.454 17.1708C13.2178 17.1708 11.2218 16.3384 10.0168 15.1127C14.2116 14.6654 17.4417 11.9075 17.4417 8.55739C17.4417 8.41659 17.4251 8.27994 17.4127 8.14328C20.0795 8.74373 22.0796 10.4954 22.0796 12.5328C22.0796 13.7213 21.4088 14.6282 20.8497 15.1831Z" fill="black"/>
</g>
<defs>
<clipPath id="clip0_201_6222">
<rect width="23.8525" height="21.2022" fill="white" transform="translate(0.214722 0.606567)"/>
</clipPath>
</defs>
</svg>
