<svg width="22" height="22" viewBox="0 0 22 22" fill="none" xmlns="http://www.w3.org/2000/svg">
<g clip-path="url(#clip0_201_6220)">
<path d="M10.6135 1.9317C4.75804 1.9317 0.0123919 5.78702 0.0123919 10.5451C0.0123919 12.5162 0.836462 14.3217 2.20301 15.7752C1.58599 17.4068 0.302266 18.7899 0.28156 18.8065C0.00825084 19.0964 -0.0662881 19.5188 0.0910719 19.8832C0.248432 20.2476 0.608704 20.4836 1.00624 20.4836C3.55299 20.4836 5.5614 19.4194 6.76645 18.5663C7.96322 18.9431 9.25522 19.1585 10.6135 19.1585C16.4689 19.1585 21.2146 15.3032 21.2146 10.5451C21.2146 5.78702 16.4689 1.9317 10.6135 1.9317ZM10.6135 17.1708C9.50783 17.1708 8.41459 17.001 7.3669 16.6697L6.42688 16.3716L5.61938 16.943C5.02721 17.3613 4.21556 17.8292 3.23827 18.1439C3.54057 17.6429 3.83458 17.0797 4.06234 16.4792L4.50129 15.3156L3.64824 14.4128C2.89871 13.6136 2.0001 12.2926 2.0001 10.5451C2.0001 6.89268 5.8637 3.91941 10.6135 3.91941C15.3633 3.91941 19.2269 6.89268 19.2269 10.5451C19.2269 14.1975 15.3633 17.1708 10.6135 17.1708Z" fill="black"/>
</g>
<defs>
<clipPath id="clip0_201_6220">
<rect width="21.2022" height="21.2022" fill="white" transform="translate(0.0125732 0.606567)"/>
</clipPath>
</defs>
</svg>
