<svg width="22" height="22" viewBox="0 0 22 22" fill="none" xmlns="http://www.w3.org/2000/svg">
<g clip-path="url(#clip0_201_6218)">
<path d="M14.8813 5.98415L8.90409 8.71601C8.61501 8.84815 8.38318 9.07997 8.25104 9.36905L5.51919 15.3462C5.20405 16.0357 5.91425 16.7463 6.60414 16.4312L12.5813 13.6994C12.8704 13.5672 13.1023 13.3354 13.2344 13.0463L15.9662 7.06911C16.2814 6.37921 15.5712 5.66902 14.8813 5.98415ZM11.6778 12.1427C11.1614 12.6591 10.3241 12.6591 9.80766 12.1427C9.29128 11.6263 9.29128 10.789 9.80766 10.2726C10.3241 9.75624 11.1614 9.75624 11.6778 10.2726C12.1942 10.789 12.1942 11.6263 11.6778 12.1427ZM10.7427 0.937866C5.07071 0.937866 0.4729 5.53568 0.4729 11.2077C0.4729 16.8797 5.07071 21.4775 10.7427 21.4775C16.4147 21.4775 21.0125 16.8797 21.0125 11.2077C21.0125 5.53568 16.4147 0.937866 10.7427 0.937866ZM10.7427 19.4898C6.17596 19.4898 2.46061 15.7744 2.46061 11.2077C2.46061 6.64093 6.17596 2.92557 10.7427 2.92557C15.3095 2.92557 19.0248 6.64093 19.0248 11.2077C19.0248 15.7744 15.3095 19.4898 10.7427 19.4898Z" fill="black"/>
</g>
<defs>
<clipPath id="clip0_201_6218">
<rect width="20.5396" height="21.2022" fill="white" transform="translate(0.4729 0.606567)"/>
</clipPath>
</defs>
</svg>
