<svg width="20" height="22" viewBox="0 0 20 22" fill="none" xmlns="http://www.w3.org/2000/svg">
<g clip-path="url(#clip0_201_6216)">
<path d="M18.8906 3.33722L16.7422 1.18876C16.3694 0.81599 15.8638 0.60657 15.3367 0.606567L8.20915 0.606567C7.11136 0.606567 6.22145 1.49648 6.22145 2.59427V4.58198H2.9086C1.81081 4.58198 0.920898 5.47189 0.920898 6.56968V19.8211C0.920898 20.9189 1.81081 21.8088 2.9086 21.8088H12.1846C13.2824 21.8088 14.1723 20.9189 14.1723 19.8211V17.8334H17.4851C18.5829 17.8334 19.4728 16.9434 19.4728 15.8456V4.74273C19.4728 4.21556 19.2634 3.70998 18.8906 3.33722ZM11.9361 19.8211H3.15707C3.09117 19.8211 3.02797 19.7949 2.98138 19.7483C2.93478 19.7017 2.9086 19.6385 2.9086 19.5726V6.81815C2.9086 6.75225 2.93478 6.68905 2.98138 6.64246C3.02797 6.59586 3.09117 6.56968 3.15707 6.56968H6.22145V15.8456C6.22145 16.9434 7.11136 17.8334 8.20915 17.8334H12.1846V19.5726C12.1846 19.6385 12.1584 19.7017 12.1118 19.7483C12.0652 19.7949 12.002 19.8211 11.9361 19.8211ZM17.2366 15.8456H8.45762C8.39172 15.8456 8.32852 15.8195 8.28193 15.7729C8.23533 15.7263 8.20915 15.6631 8.20915 15.5972V2.84274C8.20915 2.77684 8.23533 2.71364 8.28193 2.66705C8.32852 2.62045 8.39172 2.59427 8.45762 2.59427H12.8471V6.2384C12.8471 6.7873 13.2921 7.23225 13.841 7.23225H17.4851V15.5972C17.4851 15.6631 17.4589 15.7263 17.4123 15.7729C17.3657 15.8195 17.3025 15.8456 17.2366 15.8456ZM17.4851 5.24455H14.8348V2.59427H15.2337C15.2996 2.59427 15.3628 2.62044 15.4094 2.66703L17.4124 4.66998C17.4354 4.69305 17.4537 4.72044 17.4662 4.75059C17.4787 4.78074 17.4851 4.81305 17.4851 4.84568V5.24455Z" fill="black"/>
</g>
<defs>
<clipPath id="clip0_201_6216">
<rect width="18.5519" height="21.2022" fill="white" transform="translate(0.921021 0.606567)"/>
</clipPath>
</defs>
</svg>
