<svg width="22" height="22" viewBox="0 0 22 22" fill="none" xmlns="http://www.w3.org/2000/svg">
<g clip-path="url(#clip0_201_6214)">
<path d="M11.3196 0.937866C5.64774 0.937866 1.0498 5.5358 1.0498 11.2077C1.0498 16.8796 5.64774 21.4775 11.3196 21.4775C16.9915 21.4775 21.5894 16.8796 21.5894 11.2077C21.5894 5.5358 16.9915 0.937866 11.3196 0.937866ZM11.3196 19.4898C6.74243 19.4898 3.03751 15.7856 3.03751 11.2077C3.03751 6.63053 6.74172 2.92557 11.3196 2.92557C15.8968 2.92557 19.6017 6.62979 19.6017 11.2077C19.6017 15.7849 15.8975 19.4898 11.3196 19.4898ZM15.7651 15.3047C15.367 15.7069 13.8797 17.0189 11.4557 17.0189C8.04222 17.0189 5.63818 14.4753 5.63818 11.1565C5.63818 7.87881 8.1342 5.38387 11.4258 5.38387C13.7254 5.38387 15.1005 6.48622 15.4672 6.82408C15.5533 6.90333 15.6087 7.01052 15.6233 7.12666C15.638 7.24281 15.6111 7.36039 15.5473 7.45858L14.7955 8.62275C14.6365 8.86914 14.3 8.9243 14.0709 8.74371C13.715 8.46311 12.7535 7.8104 11.5155 7.8104C9.51528 7.8104 8.28899 9.27343 8.28899 11.1266C8.28899 12.8489 9.40244 14.5924 11.5305 14.5924C12.8828 14.5924 13.8844 13.804 14.2522 13.465C14.4705 13.2638 14.8152 13.2977 14.9902 13.5369L15.8128 14.6621C15.8829 14.7572 15.9166 14.8743 15.9079 14.9922C15.8991 15.1101 15.8485 15.2209 15.7651 15.3047Z" fill="black"/>
</g>
<defs>
<clipPath id="clip0_201_6214">
<rect width="21.2022" height="21.2022" fill="white" transform="translate(0.718872 0.606567)"/>
</clipPath>
</defs>
</svg>
