<svg width="25" height="22" viewBox="0 0 25 22" fill="none" xmlns="http://www.w3.org/2000/svg">
<g clip-path="url(#clip0_201_6212)">
<path d="M22.7271 1.9317H2.8583C1.75678 1.9317 0.866455 2.82203 0.866455 3.91941V18.4959C0.866455 19.5933 1.75678 20.4836 2.8583 20.4836H22.7271C23.8286 20.4836 24.7189 19.5933 24.7189 18.4959V3.91941C24.7189 2.82203 23.8286 1.9317 22.7271 1.9317ZM3.10677 3.91941H22.4786C22.6153 3.91941 22.7271 4.03122 22.7271 4.16787V5.90711H2.8583V4.16787C2.8583 4.03122 2.97011 3.91941 3.10677 3.91941ZM22.4786 18.4959H3.10677C2.97011 18.4959 2.8583 18.3841 2.8583 18.2475V11.2077H22.7271V18.2475C22.7271 18.3841 22.6153 18.4959 22.4786 18.4959ZM8.81728 14.3549V16.0113C8.81728 16.2846 8.59366 16.5082 8.32035 16.5082H5.33879C5.06548 16.5082 4.84187 16.2846 4.84187 16.0113V14.3549C4.84187 14.0816 5.06548 13.8579 5.33879 13.8579H8.32035C8.59366 13.8579 8.81728 14.0816 8.81728 14.3549ZM16.7681 14.3549V16.0113C16.7681 16.2846 16.5445 16.5082 16.2712 16.5082H10.6393C10.366 16.5082 10.1424 16.2846 10.1424 16.0113V14.3549C10.1424 14.0816 10.366 13.8579 10.6393 13.8579H16.2712C16.5445 13.8579 16.7681 14.0816 16.7681 14.3549Z" fill="black"/>
</g>
<defs>
<clipPath id="clip0_201_6212">
<rect width="23.8525" height="21.2022" fill="white" transform="translate(0.866455 0.606567)"/>
</clipPath>
</defs>
</svg>
