<svg width="21" height="22" viewBox="0 0 21 22" fill="none" xmlns="http://www.w3.org/2000/svg">
<g clip-path="url(#clip0_201_6210)">
<path d="M10.5964 0.937866C4.92311 0.937866 0.326538 5.53444 0.326538 11.2077C0.326538 16.8809 4.92311 21.4775 10.5964 21.4775C16.2696 21.4775 20.8662 16.8809 20.8662 11.2077C20.8662 5.53444 16.2696 0.937866 10.5964 0.937866ZM10.5964 19.4898C6.02877 19.4898 2.31424 15.7753 2.31424 11.2077C2.31424 6.6401 6.02877 2.92557 10.5964 2.92557C15.1639 2.92557 18.8785 6.6401 18.8785 11.2077C18.8785 15.7753 15.1639 19.4898 10.5964 19.4898ZM9.19668 10.4664C9.51968 10.1434 9.51968 9.61752 9.19668 9.29451L8.45543 8.55741L9.19668 7.81616C9.51968 7.49316 9.51968 6.96724 9.19668 6.64424C8.87367 6.32124 8.34776 6.32124 8.02476 6.64424L7.28351 7.38549L6.5464 6.64838C6.2234 6.32538 5.69748 6.32538 5.37448 6.64838C5.05148 6.97138 5.05148 7.4973 5.37448 7.8203L6.11573 8.56155L5.37448 9.3028C5.05148 9.6258 5.05148 10.1517 5.37448 10.4747C5.69748 10.7977 6.2234 10.7977 6.5464 10.4747L7.28351 9.73761L8.02062 10.4747C8.34776 10.7936 8.86953 10.7936 9.19668 10.4664ZM15.8224 6.64838C15.4994 6.32538 14.9734 6.32538 14.6504 6.64838L13.9092 7.38549L13.1721 6.64838C12.8491 6.32538 12.3232 6.32538 12.0002 6.64838C11.6772 6.97138 11.6772 7.4973 12.0002 7.8203L12.7414 8.56155L12.0002 9.3028C11.6772 9.6258 11.6772 10.1517 12.0002 10.4747C12.3232 10.7977 12.8491 10.7977 13.1721 10.4747L13.9092 9.73761L14.6463 10.4747C14.9693 10.7977 15.4952 10.7977 15.8182 10.4747C16.1412 10.1517 16.1412 9.6258 15.8182 9.3028L15.0811 8.55741L15.8224 7.81616C16.1412 7.49316 16.1412 6.97138 15.8224 6.64838ZM10.5964 11.8702C9.13456 11.8702 7.94608 13.0587 7.94608 14.5205C7.94608 15.9823 9.13456 17.1708 10.5964 17.1708C12.0581 17.1708 13.2466 15.9823 13.2466 14.5205C13.2466 13.0587 12.0581 11.8702 10.5964 11.8702Z" fill="black"/>
</g>
<defs>
<clipPath id="clip0_201_6210">
<rect width="20.5396" height="21.2022" fill="white" transform="translate(0.326782 0.606567)"/>
</clipPath>
</defs>
</svg>
