<svg width="22" height="22" viewBox="0 0 22 22" fill="none" xmlns="http://www.w3.org/2000/svg">
<g clip-path="url(#clip0_201_6208)">
<path d="M10.7255 2.92557C15.3027 2.92557 19.0076 6.62979 19.0076 11.2077C19.0076 15.7849 15.3034 19.4898 10.7255 19.4898C6.14831 19.4898 2.44339 15.7856 2.44339 11.2077C2.44339 6.63049 6.14761 2.92557 10.7255 2.92557ZM10.7255 0.937866C5.05363 0.937866 0.455688 5.5358 0.455688 11.2077C0.455688 16.8796 5.05363 21.4775 10.7255 21.4775C16.3974 21.4775 20.9953 16.8796 20.9953 11.2077C20.9953 5.5358 16.3974 0.937866 10.7255 0.937866ZM10.7255 7.89484C8.89586 7.89484 7.41266 9.37804 7.41266 11.2077C7.41266 13.0373 8.89586 14.5205 10.7255 14.5205C12.5551 14.5205 14.0383 13.0373 14.0383 11.2077C14.0383 9.37804 12.5551 7.89484 10.7255 7.89484Z" fill="black"/>
</g>
<defs>
<clipPath id="clip0_201_6208">
<rect width="21.2022" height="21.2022" fill="white" transform="translate(0.124634 0.606567)"/>
</clipPath>
</defs>
</svg>
