<svg width="24" height="22" viewBox="0 0 24 22" fill="none" xmlns="http://www.w3.org/2000/svg">
<g clip-path="url(#clip0_201_6204)">
<path d="M16.7294 14.8891L18.0545 13.5639C18.2616 13.3569 18.6219 13.5018 18.6219 13.8V19.821C18.6219 20.9184 17.7315 21.8088 16.6342 21.8088H2.05765C0.960273 21.8088 0.0699463 20.9184 0.0699463 19.821V5.24454C0.0699463 4.14716 0.960273 3.25683 2.05765 3.25683H13.3834C13.6774 3.25683 13.8265 3.61297 13.6195 3.82416L12.2943 5.1493C12.2322 5.21141 12.1494 5.24454 12.0583 5.24454H2.05765V19.821H16.6342V15.121C16.6342 15.034 16.6673 14.9512 16.7294 14.8891ZM23.2143 6.53241L12.3399 17.4068L8.59638 17.8209C7.51142 17.941 6.58796 17.0258 6.70806 15.9326L7.12216 12.1891L17.9966 1.31468C18.9449 0.366379 20.4771 0.366379 21.4212 1.31468L23.2102 3.10362C24.1585 4.05192 24.1585 5.58825 23.2143 6.53241ZM19.1229 7.81199L16.717 5.40604L9.0229 13.1043L8.72061 15.8084L11.4247 15.5061L19.1229 7.81199ZM21.8063 4.51157L20.0174 2.72264C19.8476 2.55286 19.5702 2.55286 19.4045 2.72264L18.1249 4.00222L20.5309 6.40818L21.8105 5.12859C21.9761 4.95467 21.9761 4.68136 21.8063 4.51157Z" fill="black"/>
</g>
<defs>
<clipPath id="clip0_201_6204">
<rect width="23.8525" height="21.2022" fill="white" transform="translate(0.0699463 0.606567)"/>
</clipPath>
</defs>
</svg>
