<svg width="23" height="22" viewBox="0 0 23 22" fill="none" xmlns="http://www.w3.org/2000/svg">
<g clip-path="url(#clip0_201_6202)">
<path d="M20.0823 3.25684H2.8555C1.75771 3.25684 0.867798 4.14675 0.867798 5.24454V17.1708C0.867798 18.2686 1.75771 19.1585 2.8555 19.1585H20.0823C21.1801 19.1585 22.07 18.2686 22.07 17.1708V5.24454C22.07 4.14675 21.1801 3.25684 20.0823 3.25684ZM20.0823 5.24454V6.9343C19.1538 7.69041 17.6735 8.86614 14.509 11.3441C13.8116 11.8927 12.4301 13.2106 11.4689 13.1952C10.5078 13.2107 9.12593 11.8925 8.42882 11.3441C5.26477 8.86651 3.78414 7.69054 2.8555 6.9343V5.24454H20.0823ZM2.8555 17.1708V9.4849C3.80438 10.2407 5.15002 11.3012 7.20104 12.9073C8.10615 13.6198 9.69122 15.1926 11.4689 15.183C13.2378 15.1926 14.8028 13.6426 15.7364 12.9076C17.7874 11.3016 19.1334 10.2408 20.0823 9.48494V17.1708H2.8555Z" fill="black"/>
</g>
<defs>
<clipPath id="clip0_201_6202">
<rect width="21.2022" height="21.2022" fill="white" transform="translate(0.867737 0.606567)"/>
</clipPath>
</defs>
</svg>
