<svg width="23" height="22" viewBox="0 0 23 22" fill="none" xmlns="http://www.w3.org/2000/svg">
<g clip-path="url(#clip0_201_6206)">
<path d="M21.4034 7.41926C21.2089 7.25847 16.7769 3.69439 15.8026 2.91972C14.8873 2.18808 13.3222 0.606567 11.5235 0.606567C9.73432 0.606567 8.18428 2.16845 7.2443 2.91972C6.23128 3.72515 1.81662 7.2759 1.64767 7.41479C1.42089 7.60127 1.23823 7.83567 1.11282 8.10114C0.987417 8.36661 0.922372 8.65657 0.922363 8.95017L0.922363 19.8211C0.922363 20.9189 1.81228 21.8088 2.91007 21.8088H20.1369C21.2346 21.8088 22.1246 20.9189 22.1246 19.8211V8.95116C22.1246 8.65848 22.0599 8.3694 21.9353 8.10459C21.8106 7.83978 21.629 7.60577 21.4034 7.41926ZM20.1369 19.5726C20.1369 19.6385 20.1107 19.7017 20.0641 19.7483C20.0175 19.7949 19.9543 19.8211 19.8884 19.8211H3.15853C3.09264 19.8211 3.02944 19.7949 2.98284 19.7483C2.93625 19.7017 2.91007 19.6385 2.91007 19.5726V9.06869C2.91007 8.99361 2.94386 8.92267 3.00225 8.87551C3.65943 8.34487 7.50743 5.24985 8.48351 4.47386C9.23574 3.87303 10.5461 2.59427 11.5235 2.59427C12.5046 2.59427 13.8365 3.89328 14.5634 4.47386C15.5396 5.24993 19.3879 8.34545 20.0448 8.87646C20.0735 8.89973 20.0968 8.92916 20.1127 8.96257C20.1286 8.99598 20.1369 9.03254 20.1369 9.06956V19.5726ZM18.8121 11.7997C18.988 12.0133 18.9556 12.3295 18.7398 12.5029C17.54 13.467 16.2853 14.4739 15.8026 14.8576C14.8626 15.6089 13.3126 17.1708 11.5235 17.1708C9.72409 17.1708 8.15732 15.5874 7.2443 14.8576C6.77723 14.4863 5.51566 13.4739 4.30718 12.5028C4.09143 12.3294 4.059 12.0132 4.23492 11.7996L4.86676 11.0323C5.03977 10.8223 5.34948 10.7904 5.56159 10.9609C6.74667 11.9133 7.98684 12.9086 8.48351 13.3035C9.21039 13.8841 10.5423 15.1831 11.5235 15.1831C12.5008 15.1831 13.8112 13.9043 14.5634 13.3035C15.0601 12.9086 16.3003 11.9133 17.4855 10.961C17.6976 10.7905 18.0073 10.8224 18.1802 11.0325L18.8121 11.7997Z" fill="black"/>
</g>
<defs>
<clipPath id="clip0_201_6206">
<rect width="21.2022" height="21.2022" fill="white" transform="translate(0.922363 0.606567)"/>
</clipPath>
</defs>
</svg>
