<svg width="27" height="22" viewBox="0 0 27 22" fill="none" xmlns="http://www.w3.org/2000/svg">
<g clip-path="url(#clip0_201_6200)">
<path d="M26.6195 20.1109L1.85599 0.751919C1.78807 0.697537 1.7101 0.657067 1.62654 0.632818C1.54298 0.608569 1.45546 0.601016 1.36897 0.610591C1.28249 0.620166 1.19874 0.646681 1.12251 0.688622C1.04628 0.730563 0.979049 0.787109 0.924668 0.855031L0.510563 1.37225C0.456054 1.44019 0.415478 1.51822 0.391157 1.60186C0.366836 1.68551 0.359247 1.77313 0.368824 1.85971C0.378401 1.94629 0.404957 2.03013 0.446971 2.10643C0.488986 2.18274 0.545634 2.25001 0.613675 2.3044L25.3772 21.6634C25.4451 21.7178 25.5231 21.7583 25.6066 21.7825C25.6902 21.8068 25.7777 21.8143 25.8642 21.8047C25.9507 21.7952 26.0344 21.7687 26.1107 21.7267C26.1869 21.6848 26.2541 21.6282 26.3085 21.5603L26.7226 21.0431C26.7771 20.9751 26.8177 20.8971 26.842 20.8135C26.8663 20.7298 26.8739 20.6422 26.8643 20.5556C26.8548 20.469 26.8282 20.3852 26.7862 20.3089C26.7442 20.2326 26.6875 20.1653 26.6195 20.1109ZM12.6554 6.67197L18.2372 11.0358C18.1452 8.55366 16.1211 6.56968 13.6166 6.56968C13.2935 6.57029 12.9714 6.60457 12.6554 6.67197ZM14.5777 15.7438L8.996 11.3799C9.08834 13.8617 11.1125 15.8456 13.6166 15.8456C13.9396 15.845 14.2617 15.8108 14.5777 15.7438ZM13.6166 5.24455C17.7017 5.24455 21.4469 7.52213 23.4694 11.2077C22.9736 12.1147 22.361 12.9528 21.6473 13.7006L23.2102 14.9222C24.0803 13.9914 24.8175 12.9447 25.4008 11.8118C25.4955 11.6245 25.5449 11.4174 25.5449 11.2075C25.5449 10.9975 25.4955 10.7905 25.4008 10.6031C23.153 6.22142 18.7072 3.25684 13.6166 3.25684C12.0968 3.25684 10.647 3.54672 9.2838 4.03577L11.2057 5.53856C11.99 5.3605 12.7933 5.24455 13.6166 5.24455ZM13.6166 17.1708C9.53143 17.1708 5.78668 14.8932 3.76377 11.2077C4.2602 10.3006 4.87347 9.46265 5.58791 8.71517L4.02507 7.49355C3.1551 8.42425 2.41805 9.47081 1.83487 10.6035C1.74014 10.7909 1.69079 10.9979 1.69079 11.2079C1.69079 11.4178 1.74014 11.6249 1.83487 11.8123C4.08057 16.1939 8.5264 19.1585 13.6166 19.1585C15.1363 19.1585 16.5861 18.8665 17.9494 18.3796L16.0275 16.8772C15.2432 17.0548 14.4402 17.1708 13.6166 17.1708Z" fill="black"/>
</g>
<defs>
<clipPath id="clip0_201_6200">
<rect width="26.5027" height="21.2022" fill="white" transform="translate(0.36499 0.606567)"/>
</clipPath>
</defs>
</svg>
