<svg width="25" height="22" viewBox="0 0 25 22" fill="none" xmlns="http://www.w3.org/2000/svg">
<g clip-path="url(#clip0_201_6198)">
<path d="M12.4387 6.56968C11.9998 6.57654 11.5641 6.64627 11.145 6.77673C11.3389 7.11767 11.4421 7.50262 11.4448 7.89482C11.4448 8.19935 11.3848 8.5009 11.2683 8.78225C11.1517 9.06361 10.9809 9.31925 10.7656 9.53459C10.5503 9.74993 10.2946 9.92074 10.0133 10.0373C9.73191 10.1538 9.43036 10.2138 9.12582 10.2138C8.73363 10.2111 8.34868 10.1079 8.00774 9.91399C7.73875 10.8469 7.7701 11.8408 8.09735 12.7549C8.4246 13.6689 9.03116 14.4569 9.83111 15.0071C10.6311 15.5573 11.5839 15.8419 12.5545 15.8205C13.5252 15.7991 14.4645 15.4728 15.2395 14.8879C16.0144 14.303 16.5857 13.4891 16.8723 12.5615C17.159 11.6339 17.1466 10.6396 16.8368 9.71948C16.5269 8.79933 15.9355 7.99999 15.1461 7.43468C14.3568 6.86937 13.4096 6.56675 12.4387 6.56968ZM24.2208 10.6031C21.9751 6.22142 17.5293 3.25684 12.4387 3.25684C7.34807 3.25684 2.90099 6.22349 0.656537 10.6035C0.561807 10.7909 0.512451 10.9979 0.512451 11.2079C0.512451 11.4178 0.561807 11.6249 0.656537 11.8123C2.90223 16.1939 7.34807 19.1585 12.4387 19.1585C17.5293 19.1585 21.9763 16.1918 24.2208 11.8118C24.3155 11.6245 24.3649 11.4174 24.3649 11.2075C24.3649 10.9975 24.3155 10.7905 24.2208 10.6031ZM12.4387 17.1708C8.35351 17.1708 4.60835 14.8932 2.58585 11.2077C4.60835 7.52212 8.3531 5.24454 12.4387 5.24454C16.5242 5.24454 20.269 7.52212 22.2915 11.2077C20.2694 14.8932 16.5242 17.1708 12.4387 17.1708Z" fill="black"/>
</g>
<defs>
<clipPath id="clip0_201_6198">
<rect width="23.8525" height="21.2022" fill="white" transform="translate(0.512512 0.606567)"/>
</clipPath>
</defs>
</svg>
