<svg width="17" height="22" viewBox="0 0 17 22" fill="none" xmlns="http://www.w3.org/2000/svg">
<g clip-path="url(#clip0_201_6192)">
<path d="M16.127 4.66236L12.6534 1.18876C12.2806 0.81599 11.775 0.60657 11.2478 0.606567H2.7952C1.69741 0.606567 0.807495 1.49648 0.807495 2.59427V19.8211C0.807495 20.9189 1.69741 21.8088 2.7952 21.8088H14.7214C15.8192 21.8088 16.7091 20.9189 16.7091 19.8211V6.06787C16.7091 5.5407 16.4997 5.03512 16.127 4.66236ZM14.5607 5.90712H11.4086V2.75503L14.5607 5.90712ZM2.7952 19.8211V2.59427H9.42089V6.90097C9.42089 7.44987 9.86584 7.89482 10.4147 7.89482H14.7214V19.8211H2.7952ZM8.75832 16.6729C8.75832 17.1156 8.22305 17.3373 7.91002 17.0242L6.43933 15.5345H5.27983C5.00541 15.5345 4.78291 15.312 4.78291 15.0376V12.7186C4.78291 12.4441 5.00541 12.2216 5.27983 12.2216H6.43933L7.91002 10.6916C8.22309 10.3786 8.75832 10.6003 8.75832 11.043V16.6729ZM10.4645 14.7212C10.8393 14.3362 10.8397 13.7218 10.4645 13.3365C9.54731 12.3943 10.9712 11.0073 11.8888 11.95C13.0151 13.107 13.0157 14.9499 11.8889 16.1076C10.9864 17.0347 9.53067 15.6805 10.4645 14.7212Z" fill="black"/>
</g>
<defs>
<clipPath id="clip0_201_6192">
<rect width="15.9016" height="21.2022" fill="white" transform="translate(0.807495 0.606567)"/>
</clipPath>
</defs>
</svg>
