<svg width="16" height="22" viewBox="0 0 16 22" fill="none" xmlns="http://www.w3.org/2000/svg">
<g clip-path="url(#clip0_201_6188)">
<path d="M15.3219 4.66041L11.8476 1.18606C11.4749 0.813367 10.9697 0.602173 10.4437 0.602173H1.99186C0.894477 0.606314 0.00415039 1.49664 0.00415039 2.59402V19.8208C0.00415039 20.9182 0.894477 21.8085 1.99186 21.8085H13.9181C15.0155 21.8085 15.9058 20.9182 15.9058 19.8208V6.06836C15.9058 5.54245 15.6946 5.0331 15.3219 4.66041ZM13.7566 5.90686H10.6052V2.75552L13.7566 5.90686ZM1.99186 19.8208V2.59402H8.61754V6.90072C8.61754 7.45148 9.06063 7.89457 9.61139 7.89457H13.9181V19.8208H1.99186ZM10.7709 9.88227H9.57827C9.39606 9.88227 9.23042 9.98166 9.14346 10.1432C8.39807 11.5138 8.22414 11.899 7.95911 12.5325C7.38351 11.3275 7.67338 11.8161 6.77477 10.1432C6.68781 9.98166 6.51803 9.88227 6.33582 9.88227H5.13906C4.75394 9.88227 4.5179 10.2964 4.70839 10.6277L6.62569 13.8577L4.70839 17.0877C4.51376 17.419 4.75394 17.8331 5.13906 17.8331H6.33582C6.51803 17.8331 6.68367 17.7337 6.77063 17.5722C7.66924 15.9158 7.72307 15.7087 7.95497 15.1828C8.57199 16.4334 8.1993 15.8413 9.13931 17.5722C9.22628 17.7337 9.39606 17.8331 9.57827 17.8331H10.7709C11.156 17.8331 11.392 17.419 11.2016 17.0877L9.28011 13.8577C9.3091 13.8121 10.5348 11.7665 11.1974 10.6277C11.392 10.2964 11.1519 9.88227 10.7709 9.88227Z" fill="black"/>
</g>
<defs>
<clipPath id="clip0_201_6188">
<rect width="15.9016" height="21.2022" fill="white" transform="translate(0.00415039 0.606567)"/>
</clipPath>
</defs>
</svg>
