<svg width="17" height="22" viewBox="0 0 17 22" fill="none" xmlns="http://www.w3.org/2000/svg">
<g clip-path="url(#clip0_201_6182)">
<path d="M15.617 4.66059L12.1426 1.18624C11.7699 0.81355 11.2647 0.602356 10.7388 0.602356H2.28693C1.18955 0.606497 0.299225 1.49682 0.299225 2.5942V19.821C0.299225 20.9184 1.18955 21.8087 2.28693 21.8087H14.2132C15.3105 21.8087 16.2009 20.9184 16.2009 19.821V6.06855C16.2009 5.54263 15.9897 5.03328 15.617 4.66059ZM14.0517 5.90705H10.9003V2.7557L14.0517 5.90705ZM2.28693 19.821V2.5942H8.91262V6.9009C8.91262 7.45166 9.35571 7.89475 9.90647 7.89475H14.2132V19.821H2.28693ZM5.26849 17.3364V10.3794C5.26849 10.1061 5.49211 9.88246 5.76542 9.88246H8.63102C10.1508 9.88246 11.2316 11.0005 11.2316 12.628C11.2316 15.7048 8.3867 15.3818 7.2769 15.3818V17.3364C7.2769 17.6097 7.05328 17.8333 6.77997 17.8333H5.76542C5.49211 17.8333 5.26849 17.6097 5.26849 17.3364ZM7.2769 13.7171H8.22934C8.55649 13.7171 8.80495 13.6177 8.97887 13.4189C9.33086 13.0131 9.32672 12.2387 8.98301 11.8536C8.81323 11.6631 8.57305 11.5637 8.26247 11.5637H7.27276V13.7171H7.2769Z" fill="black"/>
</g>
<defs>
<clipPath id="clip0_201_6182">
<rect width="15.9016" height="21.2022" fill="white" transform="translate(0.299225 0.606567)"/>
</clipPath>
</defs>
</svg>
