<svg width="17" height="22" viewBox="0 0 17 22" fill="none" xmlns="http://www.w3.org/2000/svg">
<g clip-path="url(#clip0_201_6180)">
<path d="M15.717 4.66236L12.2434 1.18876C11.8707 0.81599 11.3651 0.60657 10.8379 0.606567H2.38529C1.2875 0.606567 0.397583 1.49648 0.397583 2.59427V19.8211C0.397583 20.9189 1.2875 21.8088 2.38529 21.8088H14.3115C15.4093 21.8088 16.2992 20.9189 16.2992 19.8211V6.06787C16.2992 5.5407 16.0898 5.03512 15.717 4.66236ZM14.1508 5.90712H10.9987V2.75503L14.1508 5.90712ZM2.38529 19.8211V2.59427H9.01097V6.90097C9.01097 7.44987 9.45593 7.89482 10.0048 7.89482H14.3115V19.8211H2.38529ZM11.8553 11.0709L9.67354 13.2523V11.7046C9.67354 11.2472 9.30275 10.8764 8.84533 10.8764H4.53864C4.08122 10.8764 3.71043 11.2472 3.71043 11.7046V16.0113C3.71043 16.4687 4.08122 16.8395 4.53864 16.8395H8.84533C9.30275 16.8395 9.67354 16.4687 9.67354 16.0113V14.4636L11.8553 16.6449C12.2701 17.0597 12.9864 16.7683 12.9864 16.1763V11.5394C12.9864 10.9468 12.2696 10.6566 11.8553 11.0709Z" fill="black"/>
</g>
<defs>
<clipPath id="clip0_201_6180">
<rect width="15.9016" height="21.2022" fill="white" transform="translate(0.397583 0.606567)"/>
</clipPath>
</defs>
</svg>
