<svg width="17" height="22" viewBox="0 0 17 22" fill="none" xmlns="http://www.w3.org/2000/svg">
<g clip-path="url(#clip0_201_6178)">
<path d="M15.8136 4.66059L12.3393 1.18624C11.9666 0.81355 11.4614 0.602356 10.9354 0.602356H2.48356C1.38618 0.606497 0.49585 1.49682 0.49585 2.5942V19.821C0.49585 20.9184 1.38618 21.8087 2.48356 21.8087H14.4098C15.5072 21.8087 16.3975 20.9184 16.3975 19.821V6.06855C16.3975 5.54263 16.1863 5.03328 15.8136 4.66059ZM14.2483 5.90705H11.0969V2.7557L14.2483 5.90705ZM2.48356 19.821V2.5942H9.10924V6.9009C9.10924 7.45166 9.55233 7.89475 10.1031 7.89475H14.4098V19.821H2.48356ZM11.598 11.2076C11.362 11.2076 11.1591 11.3732 11.1135 11.601C10.2605 15.6468 10.2687 15.5516 10.2439 15.887C10.2356 15.8373 10.2273 15.7793 10.2149 15.7089C10.1818 15.4977 10.2273 15.7172 9.23761 11.5886C9.18378 11.365 8.98501 11.2076 8.75311 11.2076H8.20235C7.97459 11.2076 7.77582 11.365 7.71785 11.5844C6.70743 15.6841 6.72399 15.5681 6.69087 15.8787C6.68673 15.8332 6.68258 15.7752 6.67016 15.7048C6.64117 15.4894 6.08627 12.6694 5.87922 11.6051C5.83367 11.3732 5.63076 11.2035 5.39057 11.2035H4.69488C4.37188 11.2035 4.13584 11.5058 4.21037 11.8163C4.54166 13.1663 5.31604 16.3508 5.5852 17.4482C5.63904 17.6718 5.83781 17.825 6.06971 17.825H7.11325C7.34101 17.825 7.53978 17.6718 7.59362 17.4482L8.33486 14.4914C8.39698 14.2347 8.43839 13.9945 8.4591 13.775L8.57919 14.4914C8.58333 14.508 9.10096 16.5827 9.32043 17.4482C9.37427 17.6676 9.57304 17.825 9.8008 17.825H10.8236C11.0514 17.825 11.2502 17.6718 11.304 17.4482C12.1653 14.0566 12.5546 12.5203 12.7327 11.8163C12.8113 11.5016 12.5753 11.1993 12.2523 11.1993H11.598V11.2076Z" fill="black"/>
</g>
<defs>
<clipPath id="clip0_201_6178">
<rect width="15.9016" height="21.2022" fill="white" transform="translate(0.495941 0.606567)"/>
</clipPath>
</defs>
</svg>
