<svg width="17" height="22" viewBox="0 0 17 22" fill="none" xmlns="http://www.w3.org/2000/svg">
<g clip-path="url(#clip0_201_6194)">
<path d="M6.02214 7.23206V8.5572H7.34728V7.23206H6.02214ZM8.67241 3.25665H7.34728V4.58179H8.67241V3.25665ZM6.02214 4.58179V5.90692H7.34728V4.58179H6.02214ZM8.67241 5.90692H7.34728V7.23206H8.67241V5.90692ZM16.0269 4.66047L12.5526 1.18612C12.1799 0.813428 11.6747 0.602234 11.1488 0.602234H2.69687C1.59949 0.606375 0.709167 1.4967 0.709167 2.59408V19.8209C0.709167 20.9182 1.59949 21.8086 2.69687 21.8086H14.6231C15.7205 21.8086 16.6108 20.9182 16.6108 19.8209V6.06842C16.6108 5.54251 16.3996 5.03316 16.0269 4.66047ZM11.3103 2.75558L14.4616 5.90692H11.3103V2.75558ZM14.6231 19.8209H2.69687V2.59408H5.99729V3.25665H7.32243V2.59408H9.32256V6.90078C9.32256 7.45154 9.76565 7.89463 10.3164 7.89463H14.6231V19.8209ZM8.75109 11.6092C8.70554 11.3773 8.50263 11.2075 8.26245 11.2075H7.34728V9.88233H6.02214V11.2075L5.20635 15.2284C4.93304 16.5743 5.96002 17.8332 7.33485 17.8332C8.70554 17.8332 9.73252 16.5826 9.4675 15.2409L8.75109 11.6092ZM7.34728 16.7606C6.60603 16.7606 6.00558 16.2596 6.00558 15.6425C6.00558 15.0255 6.60603 14.5245 7.34728 14.5245C8.08852 14.5245 8.68898 15.0255 8.68898 15.6425C8.68898 16.2596 8.08852 16.7606 7.34728 16.7606ZM8.67241 8.5572H7.34728V9.88233H8.67241V8.5572Z" fill="black"/>
</g>
<defs>
<clipPath id="clip0_201_6194">
<rect width="15.9016" height="21.2022" fill="white" transform="translate(0.709167 0.606567)"/>
</clipPath>
</defs>
</svg>
