<svg width="17" height="22" viewBox="0 0 17 22" fill="none" xmlns="http://www.w3.org/2000/svg">
<g clip-path="url(#clip0_201_6190)">
<path d="M7.11326 15.0629L7.10498 15.0546L5.74671 13.8579L7.10498 12.6611C7.25406 12.5286 7.27062 12.2967 7.13811 12.1476L7.12983 12.1393L6.40928 11.3691C6.26849 11.22 6.03659 11.2159 5.89579 11.3525L3.5064 13.5928C3.35319 13.7378 3.35319 13.9821 3.5064 14.1229L5.89579 16.3632C5.96205 16.4253 6.05315 16.4626 6.14426 16.4626C6.24364 16.4626 6.34303 16.4212 6.40928 16.3466L7.12983 15.5764C7.26648 15.4315 7.2582 15.1996 7.11326 15.0629ZM16.2236 4.66059L12.7492 1.18624C12.3765 0.81355 11.8713 0.602356 11.3454 0.602356H2.89353C1.79615 0.606497 0.905823 1.49682 0.905823 2.5942V19.821C0.905823 20.9184 1.79615 21.8087 2.89353 21.8087H14.8198C15.9171 21.8087 16.8075 20.9184 16.8075 19.821V6.06855C16.8075 5.54263 16.5963 5.03328 16.2236 4.66059ZM11.5069 2.7557L14.6583 5.90705H11.5069V2.7557ZM14.8198 19.821H2.89353V2.5942H9.51921V6.9009C9.51921 7.45166 9.96231 7.89475 10.5131 7.89475H14.8198V19.821ZM9.58547 9.46835C9.39084 9.41038 9.19207 9.52219 9.1341 9.71681L6.86894 17.5061C6.81097 17.7008 6.92277 17.9037 7.1174 17.9575L8.12782 18.2515C8.32245 18.3095 8.52536 18.1936 8.5792 18.0031L10.8444 10.2096C10.9023 10.015 10.7905 9.81206 10.5959 9.75823L9.58547 9.46835ZM10.6 12.6528L10.6083 12.6611L11.9666 13.8579L10.6083 15.0546C10.4592 15.1871 10.4427 15.419 10.5752 15.5681L10.5835 15.5764L11.304 16.3466C11.4407 16.4916 11.6726 16.4999 11.8175 16.3632L14.2069 14.1229C14.3601 13.978 14.3601 13.7336 14.2069 13.5928L11.8175 11.3525C11.6726 11.2159 11.4407 11.22 11.304 11.3691L10.5835 12.1393C10.4468 12.2843 10.4551 12.5162 10.6 12.6528Z" fill="black"/>
</g>
<defs>
<clipPath id="clip0_201_6190">
<rect width="15.9016" height="21.2022" fill="white" transform="translate(0.905823 0.606567)"/>
</clipPath>
</defs>
</svg>
