<svg width="21" height="22" viewBox="0 0 21 22" fill="none" xmlns="http://www.w3.org/2000/svg">
<g clip-path="url(#clip0_201_6174)">
<path d="M10.3245 0.937866C4.65123 0.937866 0.054657 5.53444 0.054657 11.2077C0.054657 16.8809 4.65123 21.4775 10.3245 21.4775C15.9977 21.4775 20.5943 16.8809 20.5943 11.2077C20.5943 5.53444 15.9977 0.937866 10.3245 0.937866ZM10.3245 19.4898C5.75689 19.4898 2.04236 15.7753 2.04236 11.2077C2.04236 6.6401 5.75689 2.92557 10.3245 2.92557C14.8921 2.92557 18.6066 6.6401 18.6066 11.2077C18.6066 15.7753 14.8921 19.4898 10.3245 19.4898ZM14.2999 6.5697C12.4695 6.5697 10.987 8.0522 10.987 9.88254C10.987 11.7129 12.4695 13.1954 14.2999 13.1954C16.1302 13.1954 17.6127 11.7129 17.6127 9.88254C17.6127 8.0522 16.1302 6.5697 14.2999 6.5697ZM14.2999 11.8702C13.2025 11.8702 12.3122 10.9799 12.3122 9.88254C12.3122 8.78516 13.2025 7.89484 14.2999 7.89484C15.3973 7.89484 16.2876 8.78516 16.2876 9.88254C16.2876 10.9799 15.3973 11.8702 14.2999 11.8702ZM14.2999 8.88869C13.7491 8.88869 13.306 9.33178 13.306 9.88254C13.306 10.4333 13.7491 10.8764 14.2999 10.8764C14.8506 10.8764 15.2937 10.4333 15.2937 9.88254C15.2937 9.33178 14.8506 8.88869 14.2999 8.88869ZM9.6619 9.88254C9.6619 8.0522 8.17941 6.5697 6.34906 6.5697C4.51871 6.5697 3.03622 8.0522 3.03622 9.88254C3.03622 11.7129 4.51871 13.1954 6.34906 13.1954C8.17941 13.1954 9.6619 11.7129 9.6619 9.88254ZM6.34906 11.8702C5.25168 11.8702 4.36135 10.9799 4.36135 9.88254C4.36135 8.78516 5.25168 7.89484 6.34906 7.89484C7.44644 7.89484 8.33677 8.78516 8.33677 9.88254C8.33677 10.9799 7.44644 11.8702 6.34906 11.8702ZM6.34906 8.88869C5.7983 8.88869 5.35521 9.33178 5.35521 9.88254C5.35521 10.4333 5.7983 10.8764 6.34906 10.8764C6.89982 10.8764 7.34291 10.4333 7.34291 9.88254C7.34291 9.33178 6.89982 8.88869 6.34906 8.88869ZM12.9747 14.8518H7.6742C7.12758 14.8518 6.68034 15.299 6.68034 15.8457C6.68034 16.3923 7.12758 16.8395 7.6742 16.8395H12.9747C13.5214 16.8395 13.9686 16.3923 13.9686 15.8457C13.9686 15.299 13.5214 14.8518 12.9747 14.8518Z" fill="black"/>
</g>
<defs>
<clipPath id="clip0_201_6174">
<rect width="20.5396" height="21.2022" fill="white" transform="translate(0.054657 0.606567)"/>
</clipPath>
</defs>
</svg>
