<svg width="24" height="22" viewBox="0 0 24 22" fill="none" xmlns="http://www.w3.org/2000/svg">
<g clip-path="url(#clip0_201_6170)">
<path d="M21.8606 9.88252H19.8771V7.89482C19.8771 6.79744 18.9867 5.90711 17.8894 5.90711H11.2637L8.61339 3.25684H1.98771C0.890326 3.25684 0 4.14716 0 5.24454V17.1708C0 18.2682 0.890326 19.1585 1.98771 19.1585H18.5519C19.2352 19.1585 19.8729 18.8065 20.2373 18.2226L23.546 12.9221C24.3742 11.6011 23.4218 9.88252 21.8606 9.88252ZM1.98771 5.493C1.98771 5.35635 2.09951 5.24454 2.23617 5.24454H7.78932L10.4396 7.89482H17.6409C17.7775 7.89482 17.8894 8.00662 17.8894 8.14328V9.88252H6.2944C5.5987 9.88252 4.9527 10.2469 4.59243 10.8432L1.98771 15.1582V5.493ZM18.5519 17.1708H2.98156L6.17845 11.8702H21.8648L18.5519 17.1708Z" fill="black"/>
</g>
<defs>
<clipPath id="clip0_201_6170">
<rect width="23.8525" height="21.2022" fill="white" transform="translate(0 0.606567)"/>
</clipPath>
</defs>
</svg>
