<svg width="22" height="22" viewBox="0 0 22 22" fill="none" xmlns="http://www.w3.org/2000/svg">
<g clip-path="url(#clip0_201_6168)">
<path d="M19.5978 5.70496H11.647L9.38471 3.4427C9.13625 3.19424 8.79916 3.05469 8.44759 3.05469H2.37101C1.27321 3.05469 0.383301 3.9446 0.383301 5.04239V16.9686C0.383301 18.0664 1.27321 18.9563 2.37101 18.9563H19.5978C20.6956 18.9563 21.5855 18.0664 21.5855 16.9686V7.69267C21.5855 6.59487 20.6956 5.70496 19.5978 5.70496ZM19.5978 16.9686H2.37101V5.04239H8.17345L10.4357 7.30465C10.6842 7.55311 11.0213 7.69267 11.3728 7.69267H19.5978V16.9686Z" fill="black"/>
</g>
<defs>
<clipPath id="clip0_201_6168">
<rect width="21.2022" height="21.2022" fill="white" transform="translate(0.383545 0.404419)"/>
</clipPath>
</defs>
</svg>
