<svg width="21" height="22" viewBox="0 0 21 22" fill="none" xmlns="http://www.w3.org/2000/svg">
<g clip-path="url(#clip0_201_6162)">
<path d="M10.2632 0.735657C4.58998 0.735657 -0.0065918 5.33223 -0.0065918 11.0055C-0.0065918 16.6787 4.58998 21.2753 10.2632 21.2753C15.9365 21.2753 20.533 16.6787 20.533 11.0055C20.533 5.33223 15.9365 0.735657 10.2632 0.735657ZM10.2632 19.2876C5.69564 19.2876 1.98111 15.5731 1.98111 11.0055C1.98111 6.43789 5.69564 2.72336 10.2632 2.72336C14.8308 2.72336 18.5453 6.43789 18.5453 11.0055C18.5453 15.5731 14.8308 19.2876 10.2632 19.2876ZM6.95038 10.3429C7.68335 10.3429 8.27552 9.75073 8.27552 9.01777C8.27552 8.2848 7.68335 7.69263 6.95038 7.69263C6.21741 7.69263 5.62524 8.2848 5.62524 9.01777C5.62524 9.75073 6.21741 10.3429 6.95038 10.3429ZM13.5761 7.69263C12.8431 7.69263 12.2509 8.2848 12.2509 9.01777C12.2509 9.75073 12.8431 10.3429 13.5761 10.3429C14.309 10.3429 14.9012 9.75073 14.9012 9.01777C14.9012 8.2848 14.309 7.69263 13.5761 7.69263ZM10.2632 12.9932C8.59852 12.9932 7.0332 13.7261 5.96481 15.0057C5.61282 15.4281 5.67079 16.0534 6.09318 16.4054C6.51557 16.7533 7.14087 16.6994 7.49286 16.277C8.18027 15.453 9.19069 14.9767 10.2632 14.9767C11.3358 14.9767 12.3462 15.4488 13.0336 16.277C13.369 16.6787 13.9902 16.7698 14.4333 16.4054C14.8557 16.0534 14.9095 15.4281 14.5616 15.0057C13.4932 13.7261 11.9279 12.9932 10.2632 12.9932Z" fill="black"/>
</g>
<defs>
<clipPath id="clip0_201_6162">
<rect width="20.5396" height="21.2022" fill="white" transform="translate(-0.0065918 0.404419)"/>
</clipPath>
</defs>
</svg>
