<svg width="22" height="22" viewBox="0 0 22 22" fill="none" xmlns="http://www.w3.org/2000/svg">
<g clip-path="url(#clip0_201_6164)">
<path d="M10.8028 0.735657C5.12953 0.735657 0.532959 5.33223 0.532959 11.0055C0.532959 16.6787 5.12953 21.2753 10.8028 21.2753C16.476 21.2753 21.0726 16.6787 21.0726 11.0055C21.0726 5.33223 16.476 0.735657 10.8028 0.735657ZM10.8028 19.2876C6.23519 19.2876 2.52066 15.5731 2.52066 11.0055C2.52066 6.43789 6.23519 2.72336 10.8028 2.72336C15.3704 2.72336 19.0849 6.43789 19.0849 11.0055C19.0849 15.5731 15.3704 19.2876 10.8028 19.2876ZM8.81507 9.01777C8.81507 8.2848 8.2229 7.69263 7.48993 7.69263C6.75696 7.69263 6.16479 8.2848 6.16479 9.01777C6.16479 9.75073 6.75696 10.3429 7.48993 10.3429C8.2229 10.3429 8.81507 9.75073 8.81507 9.01777ZM14.1156 7.69263C13.3826 7.69263 12.7905 8.2848 12.7905 9.01777C12.7905 9.75073 13.3826 10.3429 14.1156 10.3429C14.8486 10.3429 15.4408 9.75073 15.4408 9.01777C15.4408 8.2848 14.8486 7.69263 14.1156 7.69263ZM10.8028 12.3306C9.32856 12.3306 7.12552 13.2127 6.83564 14.8649C6.75282 15.3536 7.20834 15.7553 7.68456 15.6145C8.97657 15.2169 10.1443 14.9809 10.8028 14.9809C11.4612 14.9809 12.629 15.2169 13.921 15.6145C14.3931 15.7594 14.8527 15.3536 14.7699 14.8649C14.48 13.2127 12.277 12.3306 10.8028 12.3306Z" fill="black"/>
</g>
<defs>
<clipPath id="clip0_201_6164">
<rect width="20.5396" height="21.2022" fill="white" transform="translate(0.533081 0.404419)"/>
</clipPath>
</defs>
</svg>
