<svg width="21" height="22" viewBox="0 0 21 22" fill="none" xmlns="http://www.w3.org/2000/svg">
<g clip-path="url(#clip0_201_6160)">
<path d="M20.4887 7.83342C19.0807 3.4936 15.0556 0.735657 10.7282 0.735657C9.67639 0.735657 8.608 0.897158 7.55203 1.24087C2.16038 2.99253 -0.79219 8.78587 0.959476 14.1775C2.36743 18.5173 6.39254 21.2753 10.7199 21.2753C11.7718 21.2753 12.8402 21.1138 13.8961 20.7701C19.2878 19.0184 22.2404 13.2251 20.4887 7.83342ZM17.4036 15.8546L15.242 16.1197L13.4323 13.5978L14.4427 10.4837L17.387 9.56853L18.9979 11.0759C18.9896 12.3472 18.6915 13.6061 18.0993 14.7697C17.9047 15.1548 17.6562 15.5068 17.4036 15.8546ZM17.4036 6.1066L16.9729 8.3055L14.0452 9.21654L11.3866 7.29095V4.23485L13.3495 3.14989C14.9728 3.68823 16.389 4.72349 17.4036 6.1066ZM8.11108 3.15403L10.0615 4.23485V7.29095L7.40296 9.21654L4.47937 8.3055L4.06113 6.13145C5.0674 4.74834 6.4588 3.70479 8.11108 3.15403ZM6.21033 16.1197L4.01143 15.8505C3.41512 15.0182 2.46682 13.3824 2.44611 11.0759L4.06113 9.56853L7.00541 10.4878L8.01169 13.5646L6.21033 16.1197ZM8.20632 18.8942L7.27872 16.9023L9.08422 14.3473H12.3391L14.1736 16.9023L13.246 18.8942C12.9892 18.9687 10.8607 19.739 8.20632 18.8942Z" fill="black"/>
</g>
<defs>
<clipPath id="clip0_201_6160">
<rect width="20.5396" height="21.2022" fill="white" transform="translate(0.453613 0.404419)"/>
</clipPath>
</defs>
</svg>
