<svg width="25" height="22" viewBox="0 0 25 22" fill="none" xmlns="http://www.w3.org/2000/svg">
<g clip-path="url(#clip0_201_6158)">
<path d="M19.8164 0.404419H5.23987C5.07422 0.404419 4.91686 0.48724 4.82576 0.628036L0.684706 6.72367C0.564616 6.90587 0.577039 7.14605 0.713694 7.3117L12.143 21.4244C12.3418 21.6687 12.7145 21.6687 12.9132 21.4244L24.3425 7.3117C24.4792 7.14191 24.4916 6.90587 24.3715 6.72367L20.2346 0.628036C20.1394 0.48724 19.9862 0.404419 19.8164 0.404419ZM19.0172 2.39212L21.6384 6.36754H18.806L16.665 2.39212H19.0172ZM10.6481 2.39212H14.404L16.5449 6.36754H8.5113L10.6481 2.39212ZM6.03909 2.39212H8.39121L6.25028 6.36754H3.4178L6.03909 2.39212ZM4.25844 8.35524H6.38694L9.21528 14.9809L4.25844 8.35524ZM8.51958 8.35524H16.5367L12.5281 18.4304L8.51958 8.35524ZM15.841 14.9809L18.6652 8.35524H20.7937L15.841 14.9809Z" fill="black"/>
</g>
<defs>
<clipPath id="clip0_201_6158">
<rect width="23.8525" height="21.2022" fill="white" transform="translate(0.601318 0.404419)"/>
</clipPath>
</defs>
</svg>
