<svg width="21" height="22" viewBox="0 0 21 22" fill="none" xmlns="http://www.w3.org/2000/svg">
<g clip-path="url(#clip0_201_6156)">
<path d="M10.3313 0.735657C4.65809 0.735657 0.0615234 5.33223 0.0615234 11.0055C0.0615234 16.6787 4.65809 21.2753 10.3313 21.2753C16.0046 21.2753 20.6012 16.6787 20.6012 11.0055C20.6012 5.33223 16.0046 0.735657 10.3313 0.735657ZM10.3313 19.2876C5.76375 19.2876 2.04923 15.5731 2.04923 11.0055C2.04923 6.43789 5.76375 2.72336 10.3313 2.72336C14.8989 2.72336 18.6134 6.43789 18.6134 11.0055C18.6134 15.5731 14.8989 19.2876 10.3313 19.2876ZM7.01849 10.3429C7.75146 10.3429 8.34363 9.75073 8.34363 9.01777C8.34363 8.2848 7.75146 7.69263 7.01849 7.69263C6.28553 7.69263 5.69336 8.2848 5.69336 9.01777C5.69336 9.75073 6.28553 10.3429 7.01849 10.3429ZM13.6442 10.3429C14.3771 10.3429 14.9693 9.75073 14.9693 9.01777C14.9693 8.2848 14.3771 7.69263 13.6442 7.69263C12.9112 7.69263 12.319 8.2848 12.319 9.01777C12.319 9.75073 12.9112 10.3429 13.6442 10.3429ZM14.3067 11.0055H6.35593C5.25855 11.0055 4.36822 11.8958 4.36822 12.9932V14.3183C4.36822 15.4157 5.25855 16.306 6.35593 16.306H14.3067C15.4041 16.306 16.2945 15.4157 16.2945 14.3183V12.9932C16.2945 11.8958 15.4041 11.0055 14.3067 11.0055ZM7.34978 14.9809H6.35593C5.99151 14.9809 5.69336 14.6827 5.69336 14.3183V13.987H7.34978V14.9809ZM7.34978 13.3245H5.69336V12.9932C5.69336 12.6288 5.99151 12.3306 6.35593 12.3306H7.34978V13.3245ZM10.0001 14.9809H8.01235V13.987H10.0001V14.9809ZM10.0001 13.3245H8.01235V12.3306H10.0001V13.3245ZM12.6503 14.9809H10.6626V13.987H12.6503V14.9809ZM12.6503 13.3245H10.6626V12.3306H12.6503V13.3245ZM14.9693 14.3183C14.9693 14.6827 14.6712 14.9809 14.3067 14.9809H13.3129V13.987H14.9693V14.3183ZM14.9693 13.3245H13.3129V12.3306H14.3067C14.6712 12.3306 14.9693 12.6288 14.9693 12.9932V13.3245Z" fill="black"/>
</g>
<defs>
<clipPath id="clip0_201_6156">
<rect width="20.5396" height="21.2022" fill="white" transform="translate(0.0615234 0.404419)"/>
</clipPath>
</defs>
</svg>
