<svg width="27" height="22" viewBox="0 0 27 22" fill="none" xmlns="http://www.w3.org/2000/svg">
<g clip-path="url(#clip0_201_6140)">
<path d="M4.96764 11.0096C3.89925 11.1628 1.48916 11.5769 0.789319 12.2767C-0.117572 13.1836 -0.101008 14.6744 0.826588 15.602C1.75418 16.5296 3.24082 16.5461 4.15185 15.6392C4.85169 14.9394 5.2658 12.5293 5.41902 11.4609C5.45215 11.1959 5.22853 10.9723 4.96764 11.0096ZM25.9504 12.2767C25.2505 11.5769 22.8404 11.1628 21.772 11.0096C21.5112 10.9723 21.2875 11.1959 21.3248 11.4568C21.478 12.5252 21.8921 14.9353 22.592 15.6351C23.4989 16.542 24.9896 16.5254 25.9172 15.5978C26.8407 14.6744 26.8573 13.1836 25.9504 12.2767ZM20.7078 14.8317C19.3247 17.4779 16.5543 19.2875 13.3698 19.2875C10.1854 19.2875 7.415 17.4779 6.03189 14.8317C5.51426 16.3805 4.98835 16.6497 4.85997 16.7573C6.70688 19.4821 9.82924 21.2752 13.3698 21.2752C16.9104 21.2752 20.0328 19.4821 21.8797 16.7573C21.7472 16.6455 21.2213 16.3764 20.7078 14.8317ZM5.19954 9.70098C5.82898 5.75455 9.24949 2.7233 13.3698 2.7233C17.4902 2.7233 20.9107 5.75455 21.5401 9.70098C21.6271 9.6927 21.7555 9.60159 23.59 9.99085C23.0765 4.79383 18.6994 0.735596 13.3698 0.735596C8.0403 0.735596 3.66321 4.79383 3.14972 9.98671C4.99249 9.59745 5.10016 9.68855 5.19954 9.70098ZM13.3698 16.9685C15.519 16.9685 18.1445 15.6061 18.4758 13.6557C18.5462 13.2457 18.1569 12.8896 17.7428 13.0221C16.6703 13.3658 15.076 13.5646 13.3698 13.5646C11.6637 13.5646 10.0736 13.3658 8.99689 13.0221C8.59106 12.8937 8.19352 13.2416 8.26392 13.6557C8.59521 15.6061 11.2206 16.9685 13.3698 16.9685ZM18.7656 9.99913C18.9147 9.95358 19.0141 9.81279 19.0017 9.65543C18.865 7.91204 17.6683 6.69871 16.6827 6.69871C15.6971 6.69871 14.5003 7.91204 14.3637 9.65543C14.3513 9.80864 14.4507 9.95358 14.5997 9.99913C14.7447 10.0447 14.9062 9.97843 14.9848 9.84591L15.3783 9.14194C15.6971 8.57461 16.1733 8.24747 16.6827 8.24747C17.192 8.24747 17.6683 8.57461 17.9871 9.14194L18.3805 9.84591C18.4675 9.99499 18.6373 10.0364 18.7656 9.99913ZM10.057 8.24747C10.5663 8.24747 11.0426 8.57461 11.3614 9.14194L11.7548 9.84591C11.8418 9.99913 12.0116 10.0405 12.1399 9.99913C12.289 9.95358 12.3884 9.81279 12.376 9.65543C12.2393 7.91204 11.0426 6.69871 10.057 6.69871C9.07143 6.69871 7.87466 7.91204 7.73801 9.65543C7.72558 9.80864 7.82497 9.95358 7.97405 9.99913C8.11898 10.0447 8.28049 9.97843 8.35917 9.84591L8.75257 9.14194C9.07143 8.57047 9.54765 8.24747 10.057 8.24747Z" fill="black"/>
</g>
<defs>
<clipPath id="clip0_201_6140">
<rect width="26.5027" height="21.2022" fill="white" transform="translate(0.118835 0.404358)"/>
</clipPath>
</defs>
</svg>
