<svg width="22" height="22" viewBox="0 0 22 22" fill="none" xmlns="http://www.w3.org/2000/svg">
<g clip-path="url(#clip0_201_6134)">
<path d="M10.7698 0.735596C5.09657 0.735596 0.5 5.33217 0.5 11.0054C0.5 16.6787 5.09657 21.2752 10.7698 21.2752C16.4431 21.2752 21.0396 16.6787 21.0396 11.0054C21.0396 5.33217 16.4431 0.735596 10.7698 0.735596ZM13.4201 17.2998C13.4201 18.774 12.215 19.9708 10.7325 19.9501C9.27903 19.9294 8.11954 18.7161 8.11954 17.2584V15.486L8.85251 15.1216C9.47366 14.811 10.1569 15.192 10.2977 15.8049L10.4137 16.306C10.5006 16.6869 11.0431 16.6869 11.1301 16.306L11.246 15.8049C11.3868 15.192 12.066 14.8069 12.6913 15.1216L13.4242 15.486V17.2998H13.4201ZM14.5879 18.3475C14.679 18.0121 14.7452 17.6642 14.7452 17.2998V15.4985C15.3333 14.985 15.7556 14.3597 15.8757 13.6557C15.9461 13.2457 15.5569 12.8896 15.1428 13.0221C14.0702 13.3658 12.4759 13.5646 10.7698 13.5646C9.0637 13.5646 7.47353 13.3658 6.39686 13.0221C5.9869 12.8937 5.5935 13.2416 5.66389 13.6557C5.78398 14.3597 6.20637 14.985 6.7944 15.4985V17.2998C6.7944 17.6642 6.86066 18.0121 6.95176 18.3475C4.30149 16.9644 2.48771 14.194 2.48771 11.0054C2.48771 6.43783 6.20223 2.7233 10.7698 2.7233C15.3374 2.7233 19.0519 6.43783 19.0519 11.0054C19.0519 14.194 17.2381 16.9644 14.5879 18.3475ZM7.45697 7.69257C6.724 7.69257 6.13183 8.28474 6.13183 9.0177C6.13183 9.75067 6.724 10.3428 7.45697 10.3428C8.18994 10.3428 8.78211 9.75067 8.78211 9.0177C8.78211 8.28474 8.18994 7.69257 7.45697 7.69257ZM14.0827 7.69257C13.3497 7.69257 12.7575 8.28474 12.7575 9.0177C12.7575 9.75067 13.3497 10.3428 14.0827 10.3428C14.8156 10.3428 15.4078 9.75067 15.4078 9.0177C15.4078 8.28474 14.8156 7.69257 14.0827 7.69257Z" fill="black"/>
</g>
<defs>
<clipPath id="clip0_201_6134">
<rect width="20.5396" height="21.2022" fill="white" transform="translate(0.5 0.404358)"/>
</clipPath>
</defs>
</svg>
