<svg width="22" height="22" viewBox="0 0 22 22" fill="none" xmlns="http://www.w3.org/2000/svg">
<g clip-path="url(#clip0_201_6142)">
<path d="M10.8912 0.735596C5.21791 0.735596 0.621338 5.33217 0.621338 11.0054C0.621338 16.6787 5.21791 21.2752 10.8912 21.2752C16.5644 21.2752 21.161 16.6787 21.161 11.0054C21.161 5.33217 16.5644 0.735596 10.8912 0.735596ZM10.8912 19.2875C6.32357 19.2875 2.60904 15.573 2.60904 11.0054C2.60904 6.43783 6.32357 2.7233 10.8912 2.7233C15.4587 2.7233 19.1733 6.43783 19.1733 11.0054C19.1733 15.573 15.4587 19.2875 10.8912 19.2875ZM15.2641 13.018C14.1916 13.3617 12.5973 13.5604 10.8912 13.5604C9.18504 13.5604 7.59487 13.3617 6.5182 13.018C6.11238 12.8896 5.71483 13.2374 5.78523 13.6515C6.11238 15.6061 8.7378 16.9644 10.8912 16.9644C13.0445 16.9644 15.6658 15.602 15.9971 13.6515C16.0633 13.2457 15.6782 12.8896 15.2641 13.018ZM5.82664 10.6369C5.78523 10.8936 6.05026 11.0924 6.28216 10.964L7.57831 10.289L8.87446 10.964C9.10636 11.0924 9.37138 10.8936 9.32997 10.6369L9.08151 9.19163L10.1333 8.17293C10.3197 7.98658 10.212 7.66772 9.95527 7.62631L8.51005 7.41926L7.86818 6.11068C7.74809 5.8705 7.41267 5.8705 7.29258 6.11068L6.65071 7.41926L5.20548 7.62631C4.94874 7.66358 4.83693 7.98244 5.02742 8.17293L6.07925 9.19163L5.82664 10.6369ZM16.581 7.62631L15.1357 7.41926L14.4939 6.11068C14.3738 5.8705 14.0384 5.8705 13.9183 6.11068L13.2764 7.41926L11.8312 7.62631C11.5744 7.66358 11.4626 7.98244 11.6531 8.17293L12.7049 9.19163L12.4565 10.6369C12.4151 10.8936 12.6801 11.0924 12.912 10.964L14.2081 10.289L15.5043 10.964C15.7362 11.0924 16.0012 10.8936 15.9598 10.6369L15.7113 9.19163L16.7632 8.17293C16.9495 7.98244 16.8377 7.66772 16.581 7.62631Z" fill="black"/>
</g>
<defs>
<clipPath id="clip0_201_6142">
<rect width="20.5396" height="21.2022" fill="white" transform="translate(0.621582 0.404358)"/>
</clipPath>
</defs>
</svg>
