<svg width="22" height="22" viewBox="0 0 22 22" fill="none" xmlns="http://www.w3.org/2000/svg">
<g clip-path="url(#clip0_201_6138)">
<path d="M10.849 0.735596C5.17579 0.735596 0.579224 5.33217 0.579224 11.0054C0.579224 16.6787 5.17579 21.2752 10.849 21.2752C16.5223 21.2752 21.1189 16.6787 21.1189 11.0054C21.1189 5.33217 16.5223 0.735596 10.849 0.735596ZM13.4993 17.2998C13.4993 18.774 12.2943 19.9708 10.8118 19.9501C9.35826 19.9294 8.19876 18.7161 8.19876 17.2584V15.486L8.93173 15.1216C9.55289 14.811 10.2362 15.192 10.377 15.8049L10.4929 16.306C10.5799 16.6869 11.1223 16.6869 11.2093 16.306L11.3253 15.8049C11.4661 15.192 12.1452 14.8069 12.7705 15.1216L13.5035 15.486V17.2998H13.4993ZM14.6671 18.3475C14.7582 18.0121 14.8244 17.6642 14.8244 17.2998V15.4985C15.4125 14.985 15.8349 14.3597 15.955 13.6557C16.0254 13.2457 15.6361 12.8896 15.222 13.0221C14.1495 13.3658 12.5552 13.5646 10.849 13.5646C9.14292 13.5646 7.55276 13.3658 6.47608 13.0221C6.06612 12.8937 5.67272 13.2416 5.74312 13.6557C5.86321 14.3597 6.2856 14.985 6.87363 15.4985V17.2998C6.87363 17.6642 6.93988 18.0121 7.03099 18.3475C4.38071 16.9644 2.56693 14.194 2.56693 11.0054C2.56693 6.43783 6.28145 2.7233 10.849 2.7233C15.4166 2.7233 19.1311 6.43783 19.1311 11.0054C19.1311 14.194 17.3174 16.9644 14.6671 18.3475ZM16.1951 6.707C16.0378 6.52479 15.7686 6.47924 15.5616 6.60347L12.2487 8.59118C12.0996 8.68228 12.0085 8.84378 12.0085 9.0177C12.0085 9.19163 12.0996 9.35313 12.2487 9.44423L15.5616 11.4319C15.7852 11.5645 16.0461 11.5023 16.1951 11.3284C16.3525 11.1421 16.3525 10.8729 16.1993 10.6865L14.8079 9.0177L16.1993 7.34886C16.3566 7.16251 16.3525 6.8892 16.1951 6.707ZM9.44936 8.59118L6.13652 6.60347C5.92947 6.47924 5.66444 6.52065 5.50294 6.707C5.34558 6.89334 5.34558 7.16251 5.4988 7.34886L6.89019 9.0177L5.4988 10.6865C5.34144 10.8729 5.34558 11.1421 5.50294 11.3284C5.65201 11.5023 5.9129 11.5645 6.13652 11.4319L9.44936 9.44423C9.59844 9.35313 9.68954 9.19163 9.68954 9.0177C9.68954 8.84378 9.59844 8.68228 9.44936 8.59118Z" fill="black"/>
</g>
<defs>
<clipPath id="clip0_201_6138">
<rect width="20.5396" height="21.2022" fill="white" transform="translate(0.579224 0.404358)"/>
</clipPath>
</defs>
</svg>
