<svg width="22" height="22" viewBox="0 0 22 22" fill="none" xmlns="http://www.w3.org/2000/svg">
<g clip-path="url(#clip0_201_6132)">
<path d="M14.543 7.85827C13.4791 7.85827 12.229 8.55894 12.0641 9.60248C11.9917 10.0671 12.5404 10.3578 12.8853 10.0514L13.2808 9.70021C13.8941 9.15401 15.1923 9.15401 15.8056 9.70021L16.2011 10.0514C16.5522 10.3591 17.0939 10.0617 17.0222 9.60248C16.857 8.55894 15.6068 7.85827 14.543 7.85827ZM7.9173 10.3429C8.64902 10.3429 9.24244 9.74949 9.24244 9.01777C9.24244 8.28604 8.64902 7.69263 7.9173 7.69263C7.18557 7.69263 6.59216 8.28604 6.59216 9.01777C6.59216 9.74949 7.18557 10.3429 7.9173 10.3429ZM15.601 13.0197C14.5272 13.3634 12.9342 13.5605 11.2301 13.5605C9.5261 13.5605 7.93303 13.3638 6.85926 13.0197C6.44764 12.8901 6.05589 13.2421 6.12588 13.6549C6.45426 15.6074 9.07928 16.9686 11.2301 16.9686C13.381 16.9686 16.006 15.6074 16.3344 13.6549C16.404 13.2454 16.0168 12.8897 15.601 13.0197ZM11.2301 0.735657C5.55814 0.735657 0.960327 5.33347 0.960327 11.0055C0.960327 16.6775 5.55814 21.2753 11.2301 21.2753C16.9021 21.2753 21.5 16.6775 21.5 11.0055C21.5 5.33347 16.9021 0.735657 11.2301 0.735657ZM11.2301 19.2876C6.66339 19.2876 2.94803 15.5722 2.94803 11.0055C2.94803 6.43872 6.66339 2.72336 11.2301 2.72336C15.7969 2.72336 19.5122 6.43872 19.5122 11.0055C19.5122 15.5722 15.7969 19.2876 11.2301 19.2876Z" fill="black"/>
</g>
<defs>
<clipPath id="clip0_201_6132">
<rect width="20.5396" height="21.2022" fill="white" transform="translate(0.960388 0.404419)"/>
</clipPath>
</defs>
</svg>
