<svg width="21" height="22" viewBox="0 0 21 22" fill="none" xmlns="http://www.w3.org/2000/svg">
<g clip-path="url(#clip0_201_6144)">
<path d="M10.4309 0.735596C4.7577 0.735596 0.161133 5.33217 0.161133 11.0054C0.161133 16.6787 4.7577 21.2752 10.4309 21.2752C16.1042 21.2752 20.7008 16.6787 20.7008 11.0054C20.7008 5.33217 16.1042 0.735596 10.4309 0.735596ZM10.4309 19.2875C5.86336 19.2875 2.14884 15.573 2.14884 11.0054C2.14884 6.43783 5.86336 2.7233 10.4309 2.7233C14.9985 2.7233 18.7131 6.43783 18.7131 11.0054C18.7131 15.573 14.9985 19.2875 10.4309 19.2875ZM14.8039 13.018C13.7314 13.3617 12.1371 13.5604 10.4309 13.5604C8.72483 13.5604 7.13467 13.3617 6.05799 13.018C5.64803 12.8896 5.25463 13.2416 5.32503 13.6515C5.65217 15.602 8.2776 16.9644 10.4309 16.9644C12.5843 16.9644 15.2056 15.602 15.5369 13.6515C15.6031 13.2457 15.218 12.8896 14.8039 13.018ZM5.08485 11.3284C5.23392 11.5023 5.49481 11.5645 5.71843 11.4319L9.03127 9.44423C9.18035 9.35313 9.27145 9.19163 9.27145 9.0177C9.27145 8.84378 9.18035 8.68228 9.03127 8.59118L5.71843 6.60347C5.50723 6.47924 5.24635 6.52479 5.08485 6.707C4.92749 6.89334 4.92749 7.16251 5.08071 7.34886L6.4721 9.0177L5.08071 10.6865C4.92335 10.8729 4.92749 11.1462 5.08485 11.3284ZM15.1435 11.4319C15.3671 11.5645 15.628 11.5023 15.777 11.3284C15.9344 11.1421 15.9344 10.8729 15.7812 10.6865L14.3898 9.0177L15.7812 7.34886C15.9385 7.16251 15.9344 6.89334 15.777 6.707C15.6197 6.52479 15.3547 6.48338 15.1435 6.60347L11.8306 8.59118C11.6815 8.68228 11.5904 8.84378 11.5904 9.0177C11.5904 9.19163 11.6815 9.35313 11.8306 9.44423L15.1435 11.4319Z" fill="black"/>
</g>
<defs>
<clipPath id="clip0_201_6144">
<rect width="20.5396" height="21.2022" fill="white" transform="translate(0.161133 0.404358)"/>
</clipPath>
</defs>
</svg>
