<svg width="22" height="22" viewBox="0 0 22 22" fill="none" xmlns="http://www.w3.org/2000/svg">
<g clip-path="url(#clip0_201_6152)">
<path d="M19.2022 7.03011C20.4238 7.03011 21.4094 5.94101 21.4094 4.59931C21.4094 3.56405 20.0967 1.47281 19.4962 0.570063C19.3471 0.350588 19.0531 0.350588 18.9082 0.570063C18.3077 1.47281 16.995 3.56405 16.995 4.59931C16.995 5.94101 17.9806 7.03011 19.2022 7.03011ZM11.2514 16.9686C13.4006 16.9686 16.026 15.6062 16.3573 13.6558C16.4277 13.2458 16.0384 12.8897 15.6243 13.0222C14.5518 13.3659 12.9575 13.5647 11.2514 13.5647C9.54527 13.5647 7.9551 13.3659 6.87843 13.0222C6.4726 12.8938 6.07506 13.2417 6.14546 13.6558C6.47675 15.6062 9.10217 16.9686 11.2514 16.9686ZM16.6472 9.99924C16.7963 9.95369 16.8956 9.8129 16.8832 9.65554C16.7466 7.91215 15.5498 6.69882 14.5642 6.69882C13.5787 6.69882 12.3819 7.91215 12.2452 9.65554C12.2328 9.80875 12.3322 9.95369 12.4813 9.99924C12.6262 10.0448 12.7877 9.97854 12.8664 9.84602L13.2598 9.14205C13.5787 8.57472 14.0549 8.24758 14.5642 8.24758C15.0736 8.24758 15.5498 8.57472 15.8687 9.14205L16.2621 9.84602C16.349 9.9951 16.5188 10.0365 16.6472 9.99924ZM21.0077 7.80863C19.989 8.45877 19.1028 8.34282 19.0863 8.34282C19.372 9.17931 19.5335 10.0738 19.5335 11.0055C19.5335 15.5731 15.819 19.2876 11.2514 19.2876C6.6838 19.2876 2.96927 15.5731 2.96927 11.0055C2.96927 6.43794 6.6838 2.72341 11.2514 2.72341C12.8995 2.72341 14.4317 3.21206 15.7237 4.04441C15.7941 3.65101 15.9846 3.04641 16.436 2.15195C14.9121 1.25748 13.1438 0.735706 11.2514 0.735706C5.57814 0.735706 0.981567 5.33228 0.981567 11.0055C0.981567 16.6788 5.57814 21.2753 11.2514 21.2753C16.9246 21.2753 21.5212 16.6788 21.5212 11.0055C21.5212 9.88743 21.339 8.8149 21.0077 7.80863ZM7.93854 8.24758C8.44789 8.24758 8.92411 8.57472 9.24297 9.14205L9.63637 9.84602C9.72333 9.99924 9.89312 10.0407 10.0215 9.99924C10.1706 9.95369 10.27 9.8129 10.2575 9.65554C10.1209 7.91215 8.92411 6.69882 7.93854 6.69882C6.95297 6.69882 5.7562 7.91215 5.61955 9.65554C5.60712 9.80875 5.70651 9.95369 5.85559 9.99924C6.00052 10.0448 6.16203 9.97854 6.24071 9.84602L6.63411 9.14205C6.95297 8.57058 7.42919 8.24758 7.93854 8.24758Z" fill="black"/>
</g>
<defs>
<clipPath id="clip0_201_6152">
<rect width="20.5396" height="21.2022" fill="white" transform="translate(0.9823 0.404419)"/>
</clipPath>
</defs>
</svg>
