<svg width="21" height="22" viewBox="0 0 21 22" fill="none" xmlns="http://www.w3.org/2000/svg">
<g clip-path="url(#clip0_201_6136)">
<path d="M6.33395 7.85821C5.2697 7.85821 4.0191 8.55805 3.8576 9.60159C3.82447 9.80865 3.928 10.0157 4.11021 10.1151C4.29241 10.2145 4.52017 10.1896 4.67753 10.0488L5.07093 9.69684C5.68381 9.15022 6.9841 9.15022 7.59697 9.69684L7.99037 10.0488C8.0939 10.1399 8.32166 10.2435 8.5577 10.1151C8.73991 10.0157 8.84343 9.80865 8.8103 9.60159C8.6488 8.55805 7.3982 7.85821 6.33395 7.85821ZM13.6222 5.70486C11.7919 5.70486 10.3094 7.18736 10.3094 9.0177C10.3094 10.848 11.7919 12.3305 13.6222 12.3305C15.4526 12.3305 16.9351 10.848 16.9351 9.0177C16.9351 7.18736 15.4526 5.70486 13.6222 5.70486ZM13.6222 11.0054C12.5248 11.0054 11.6345 10.1151 11.6345 9.0177C11.6345 7.92032 12.5248 7.03 13.6222 7.03C14.7196 7.03 15.6099 7.92032 15.6099 9.0177C15.6099 10.1151 14.7196 11.0054 13.6222 11.0054ZM13.6222 8.02385C13.0714 8.02385 12.6284 8.46694 12.6284 9.0177C12.6284 9.56846 13.0714 10.0116 13.6222 10.0116C14.173 10.0116 14.6161 9.56846 14.6161 9.0177C14.6161 8.46694 14.173 8.02385 13.6222 8.02385ZM10.3094 0.735596C4.63612 0.735596 0.0395508 5.33217 0.0395508 11.0054C0.0395508 16.6787 4.63612 21.2752 10.3094 21.2752C15.9826 21.2752 20.5792 16.6787 20.5792 11.0054C20.5792 5.33217 15.9826 0.735596 10.3094 0.735596ZM12.9596 17.2998C12.9596 18.774 11.7546 19.9708 10.2721 19.9501C8.81859 19.9294 7.65909 18.7161 7.65909 17.2584V15.486L8.39206 15.1216C9.01321 14.811 9.69649 15.192 9.83729 15.8049L9.95323 16.306C10.0402 16.6869 10.5827 16.6869 10.6696 16.306L10.7856 15.8049C10.9264 15.192 11.6055 14.8069 12.2308 15.1216L12.9638 15.486V17.2998H12.9596ZM14.1274 18.3475C14.2185 18.0121 14.2848 17.6642 14.2848 17.2998V15.4985C14.8728 14.985 15.2952 14.3597 15.4153 13.6557C15.4857 13.2457 15.0964 12.8896 14.6823 13.0221C13.6098 13.3658 12.0155 13.5646 10.3094 13.5646C8.60325 13.5646 7.01309 13.3658 5.93641 13.0221C5.52645 12.8937 5.13305 13.2416 5.20344 13.6557C5.32354 14.3597 5.74592 14.985 6.33395 15.4985V17.2998C6.33395 17.6642 6.40021 18.0121 6.49131 18.3475C3.84104 16.9644 2.02726 14.194 2.02726 11.0054C2.02726 6.43783 5.74178 2.7233 10.3094 2.7233C14.8769 2.7233 18.5915 6.43783 18.5915 11.0054C18.5915 14.194 16.7777 16.9644 14.1274 18.3475Z" fill="black"/>
</g>
<defs>
<clipPath id="clip0_201_6136">
<rect width="20.5396" height="21.2022" fill="white" transform="translate(0.0396118 0.404358)"/>
</clipPath>
</defs>
</svg>
