<svg width="22" height="22" viewBox="0 0 22 22" fill="none" xmlns="http://www.w3.org/2000/svg">
<g clip-path="url(#clip0_201_6146)">
<path d="M5.55041 16.3101C4.48201 16.4634 2.07192 16.8775 1.37208 17.5773C0.465192 18.4842 0.481756 19.975 1.40935 20.9026C2.33695 21.8302 3.82359 21.8467 4.73462 20.9398C5.43446 20.24 5.84856 17.8299 6.00178 16.7615C6.03491 16.4965 5.81129 16.2729 5.55041 16.3101ZM3.84429 14.5833C2.37008 11.5024 2.89599 7.69674 5.44688 5.14999C7.0122 3.58468 9.09101 2.72334 11.3023 2.72334C12.8014 2.72334 14.2342 3.12916 15.4931 3.87041C15.6504 3.02978 15.8244 2.37549 15.99 1.87028C14.5241 1.11661 12.9132 0.735632 11.3023 0.735632C8.67276 0.735632 6.04733 1.73777 4.03892 3.74204C0.9704 6.81056 0.258139 11.3367 1.88557 15.0885C2.39078 14.9187 3.03264 14.7448 3.84429 14.5833ZM18.4332 6.8147C20.2967 9.98674 19.8785 14.1402 17.1578 16.8609C15.5925 18.4262 13.5137 19.2876 11.3023 19.2876C10.0393 19.2876 8.82598 18.9977 7.72446 18.4676C7.56296 19.2751 7.39317 19.917 7.21925 20.4222C8.51954 20.9854 9.91093 21.2753 11.3065 21.2753C13.936 21.2753 16.5615 20.2731 18.5699 18.2689C21.804 15.0347 22.4252 10.1772 20.4416 6.31777C19.9323 6.48341 19.2739 6.6532 18.4332 6.8147ZM17.0543 5.70076C18.1226 5.54754 20.5327 5.13343 21.2326 4.43359C22.1395 3.5267 22.1229 2.03592 21.1953 1.10833C20.2677 0.180731 18.7811 0.164167 17.87 1.07106C17.1702 1.7709 16.7561 4.18099 16.6029 5.24938C16.5697 5.51441 16.7934 5.73802 17.0543 5.70076ZM9.31048 10.1855C9.18625 10.0613 9.01233 10.0116 8.8384 10.053L5.09075 10.993C4.85471 11.051 4.69735 11.2705 4.71391 11.5148C4.73462 11.755 4.92511 11.9496 5.16529 11.9703L7.33106 12.1691L7.52983 14.3349C7.55053 14.575 7.74516 14.7655 7.98534 14.7862H8.02261C8.25037 14.7862 8.44914 14.633 8.50712 14.4094L9.443 10.6617C9.48441 10.4878 9.43471 10.3097 9.31048 10.1855ZM10.9545 9.14611L14.7021 8.21023C14.9382 8.15226 15.0955 7.93278 15.079 7.68846C15.0583 7.44828 14.8678 7.25365 14.6276 7.23294L12.4618 7.03417L12.2631 4.8684C12.2423 4.62822 12.0477 4.43773 11.8075 4.41703C11.5756 4.41289 11.3437 4.55782 11.2858 4.79386L10.3499 8.54152C10.3085 8.7113 10.3582 8.88937 10.4824 9.0136C10.6895 9.22065 10.9503 9.14611 10.9545 9.14611ZM13.1078 12.8109C11.9028 14.016 10.6356 15.0016 9.63348 15.5192C9.25251 15.718 9.21938 16.2439 9.56309 16.4882C11.174 17.6353 13.994 16.7449 15.5138 15.221C17.0335 13.6971 17.928 10.8812 16.7809 9.27034C16.5408 8.93078 16.0148 8.95562 15.8119 9.34074C15.3026 10.3429 14.3129 11.6059 13.1078 12.8109Z" fill="black"/>
</g>
<defs>
<clipPath id="clip0_201_6146">
<rect width="21.2022" height="21.2022" fill="white" transform="translate(0.700806 0.404358)"/>
</clipPath>
</defs>
</svg>
