<svg width="22" height="22" viewBox="0 0 22 22" fill="none" xmlns="http://www.w3.org/2000/svg">
<g clip-path="url(#clip0_201_6154)">
<path d="M8.8165 10.6742C9.32999 9.89981 9.4418 9.12957 9.46665 8.3552C9.44594 7.58082 9.32999 6.81058 8.8165 6.03621C8.48522 5.53928 7.7771 5.56413 7.46238 6.03621C6.94889 6.81058 6.83708 7.58082 6.81223 8.3552C6.83294 9.12957 6.94889 9.89981 7.46238 10.6742C7.7978 11.1711 8.50592 11.1463 8.8165 10.6742ZM14.1171 10.6742C14.6305 9.89981 14.7424 9.12957 14.7672 8.3552C14.7465 7.58082 14.6305 6.81058 14.1171 6.03621C13.7858 5.53928 13.0776 5.56413 12.7629 6.03621C12.2494 6.81058 12.1376 7.58082 12.1128 8.3552C12.1335 9.12957 12.2494 9.89981 12.7629 10.6742C13.0984 11.1711 13.8065 11.1463 14.1171 10.6742ZM10.7918 0.735657C5.11854 0.735657 0.521973 5.33223 0.521973 11.0055C0.521973 16.6787 5.11854 21.2753 10.7918 21.2753C16.465 21.2753 21.0616 16.6787 21.0616 11.0055C21.0616 5.33223 16.465 0.735657 10.7918 0.735657ZM10.7918 19.2876C6.2242 19.2876 2.50968 15.5731 2.50968 11.0055C2.50968 6.43789 6.2242 2.72336 10.7918 2.72336C15.3594 2.72336 19.0739 6.43789 19.0739 11.0055C19.0739 15.5731 15.3594 19.2876 10.7918 19.2876ZM15.1647 13.018C14.0922 13.3617 12.4979 13.5605 10.7918 13.5605C9.08567 13.5605 7.49551 13.3617 6.41883 13.018C6.00887 12.8897 5.61547 13.2375 5.68587 13.6516C6.01301 15.6062 8.63844 16.9644 10.7918 16.9644C12.9451 16.9644 15.5664 15.602 15.8977 13.6516C15.964 13.2458 15.5788 12.8897 15.1647 13.018Z" fill="black"/>
</g>
<defs>
<clipPath id="clip0_201_6154">
<rect width="20.5396" height="21.2022" fill="white" transform="translate(0.521973 0.404419)"/>
</clipPath>
</defs>
</svg>
