<svg width="22" height="22" viewBox="0 0 22 22" fill="none" xmlns="http://www.w3.org/2000/svg">
<g clip-path="url(#clip0_201_6148)">
<path d="M15.5457 13.018C14.4732 13.3617 12.8789 13.5605 11.1728 13.5605C9.46665 13.5605 7.87649 13.3617 6.79981 13.018C6.39399 12.8897 5.99645 13.2375 6.06685 13.6516C6.39399 15.6062 9.01942 16.9644 11.1728 16.9644C13.3261 16.9644 15.9474 15.602 16.2787 13.6516C16.3449 13.2458 15.9598 12.8897 15.5457 13.018ZM9.21819 10.993C9.40454 11.0427 9.59917 10.9309 9.653 10.7446L10.4564 7.84999C10.6883 7.00935 10.1499 6.14801 9.26374 6.00722C8.49351 5.88299 7.7564 6.41304 7.5452 7.16257L7.46238 7.45659L7.16837 7.37791C6.4147 7.18328 5.58649 7.55597 5.30904 8.28894C4.99017 9.12543 5.4664 10.024 6.31117 10.2435L9.21819 10.993ZM17.0365 8.28894C16.759 7.56011 15.9308 7.18328 15.1772 7.37791L14.8832 7.45659L14.8003 7.16257C14.5933 6.41304 13.8562 5.88299 13.0818 6.00722C12.1956 6.14801 11.6573 7.00935 11.8892 7.84999L12.6925 10.7446C12.7422 10.9309 12.9369 11.0427 13.1273 10.993L16.0344 10.2394C16.8791 10.0199 17.3554 9.12543 17.0365 8.28894ZM11.1728 0.735657C5.49952 0.735657 0.902954 5.33223 0.902954 11.0055C0.902954 16.6787 5.49952 21.2753 11.1728 21.2753C16.846 21.2753 21.4426 16.6787 21.4426 11.0055C21.4426 5.33223 16.846 0.735657 11.1728 0.735657ZM11.1728 19.2876C6.60519 19.2876 2.89066 15.5731 2.89066 11.0055C2.89066 6.43789 6.60519 2.72336 11.1728 2.72336C15.7404 2.72336 19.4549 6.43789 19.4549 11.0055C19.4549 15.5731 15.7404 19.2876 11.1728 19.2876Z" fill="black"/>
</g>
<defs>
<clipPath id="clip0_201_6148">
<rect width="20.5396" height="21.2022" fill="white" transform="translate(0.902954 0.404419)"/>
</clipPath>
</defs>
</svg>
