<svg width="22" height="22" viewBox="0 0 22 22" fill="none" xmlns="http://www.w3.org/2000/svg">
<g clip-path="url(#clip0_201_6108)">
<path d="M21.3468 5.01312C20.5438 3.70837 19.2248 3.53358 18.6009 3.56302C18.0164 1.45893 16.0333 1.32354 15.6716 1.32354C14.9688 1.32576 14.2882 1.56933 13.7436 2.01347C13.1991 2.45761 12.8236 3.07536 12.6801 3.76329L12.4877 4.70165L11.9211 2.49832C11.5444 1.03359 9.99913 -0.154052 8.20821 0.300574C7.49982 0.482771 6.88012 0.91268 6.46138 1.51241C6.04265 2.11215 5.85258 2.84203 5.92562 3.56982C5.47236 3.60553 5.03282 3.74208 4.63911 3.96949C4.24541 4.1969 3.90751 4.50942 3.65011 4.8842C3.3927 5.25899 3.22231 5.68655 3.15138 6.13565C3.08046 6.58474 3.11079 7.04401 3.24017 7.47988L4.2489 10.8837C2.66535 10.5713 1.64845 11.5539 1.42822 11.7884C1.15345 12.0804 0.938908 12.4236 0.796852 12.7984C0.654796 13.1733 0.588011 13.5725 0.600314 13.9732C0.612618 14.3739 0.703768 14.7683 0.868556 15.1338C1.03334 15.4992 1.26854 15.8286 1.5607 16.1031L5.34417 19.6635C6.53138 20.7838 8.10263 21.4068 9.73498 21.4044H14.1847C15.3754 21.4076 16.532 21.0077 17.4663 20.2698C18.4007 19.5319 19.0577 18.4994 19.3305 17.3404L21.7167 7.32062C21.8108 6.93066 21.8265 6.5259 21.763 6.1298C21.6996 5.7337 21.5581 5.35414 21.3468 5.01312ZM19.7832 6.86026L17.397 16.8802C17.2267 17.6037 16.8165 18.2482 16.2333 18.7088C15.65 19.1694 14.928 19.4191 14.1847 19.417H9.73498C8.60904 19.4187 7.52525 18.9889 6.70635 18.2162L2.92271 14.6557C1.89683 13.6907 3.35728 12.1339 4.38365 13.1032L6.50068 15.0954C6.72536 15.3069 7.05899 15.125 7.05899 14.8541C7.05902 13.8705 6.91707 12.8921 6.63753 11.9491L5.14618 6.91606C4.74316 5.55437 6.79015 4.95853 7.19131 6.31043L8.48927 10.6908C8.72091 11.4736 9.88817 11.1344 9.68872 10.3592L7.9312 3.52485C7.57905 2.15402 9.6469 1.6346 9.99614 2.99331L11.9559 10.6143C12.1393 11.3283 13.1636 11.2977 13.3105 10.581L14.627 4.16356C14.909 2.79256 17.0088 3.16526 16.7025 4.65895L15.5202 10.4219C15.3661 11.1718 16.5003 11.4419 16.6821 10.6793L17.7091 6.36656C18.0389 4.98562 20.109 5.49436 19.7832 6.86026Z" fill="black"/>
</g>
<defs>
<clipPath id="clip0_201_6108">
<rect width="21.2022" height="21.2022" fill="white" transform="translate(0.598877 0.202209)"/>
</clipPath>
</defs>
</svg>
