<svg width="19" height="22" viewBox="0 0 19 22" fill="none" xmlns="http://www.w3.org/2000/svg">
<g clip-path="url(#clip0_201_6126)">
<path d="M15.4447 5.06896V4.62069C15.4447 2.81469 13.7668 1.44487 12.006 1.9064C10.9447 -0.143427 8.10972 -0.0585351 7.12034 1.93733C5.41091 1.49999 3.7079 2.80397 3.7079 4.62831V9.85142C2.88164 9.54387 1.9145 9.64155 1.13701 10.2188C-0.0785932 11.1214 -0.345236 12.8414 0.53449 14.0763L5.50247 21.0504C5.62502 21.2225 5.78691 21.3627 5.97464 21.4594C6.16237 21.5562 6.37051 21.6067 6.58171 21.6067H15.812C16.4292 21.6067 16.9647 21.1806 17.1033 20.5792L18.3532 15.1561C18.496 14.5359 18.5682 13.9015 18.5683 13.2651V7.81692C18.5683 6.13483 17.0973 4.83569 15.4447 5.06896ZM16.5805 13.265C16.5805 13.7508 16.5253 14.2369 16.4163 14.7097L15.2848 19.6189H6.92314L2.15281 12.923C1.55489 12.0836 2.77492 11.1516 3.37004 11.9869L4.49342 13.5638C4.86591 14.0866 5.69561 13.8241 5.69561 13.1793V4.62831C5.69561 3.56634 7.21003 3.60091 7.21003 4.65692V11.0055C7.21003 11.3715 7.50666 11.6681 7.8726 11.6681H8.15651C8.52246 11.6681 8.81908 11.3715 8.81908 11.0055V3.17894C8.81908 2.11622 10.3335 2.15155 10.3335 3.20756V11.0055C10.3335 11.3715 10.6301 11.6681 10.9961 11.6681H11.28C11.6459 11.6681 11.9426 11.3715 11.9426 11.0055V4.59208C11.9426 3.52898 13.4569 3.56468 13.4569 4.62069V11.0055C13.4569 11.3715 13.7536 11.6681 14.1195 11.6681H14.4035C14.7694 11.6681 15.066 11.3715 15.066 11.0055V7.84554C15.066 6.75884 16.5804 6.78377 16.5804 7.81692V13.265H16.5805Z" fill="black"/>
</g>
<defs>
<clipPath id="clip0_201_6126">
<rect width="18.5519" height="21.2022" fill="white" transform="translate(0.0164185 0.404419)"/>
</clipPath>
</defs>
</svg>
