<svg width="20" height="22" viewBox="0 0 20 22" fill="none" xmlns="http://www.w3.org/2000/svg">
<g clip-path="url(#clip0_201_6122)">
<path d="M8.73106 21.6066C10.62 21.6066 12.1764 20.0427 12.1764 18.1613V16.6851C12.4936 16.6146 12.8006 16.5042 13.0901 16.3568C14.0014 16.4606 14.9527 16.2117 15.6903 15.6948C17.8638 15.6476 19.4647 14.1461 19.4647 11.5562V10.6742C19.4647 8.18699 17.8082 6.5948 17.8082 5.40681V5.29587C18.0133 5.05789 18.1395 4.73534 18.1395 4.37987V1.72956C18.1395 0.997708 17.6056 0.404419 16.9469 0.404419H7.40592C6.74725 0.404419 6.2133 0.997708 6.2133 1.72956V4.37983C6.2133 4.7353 6.33952 5.05785 6.54458 5.29583V5.40677C6.54458 5.69515 6.28813 6.02221 5.56448 6.65666L5.55835 6.66201L5.5523 6.66743C5.14081 7.03416 4.68927 7.41762 4.17528 7.73794C2.92269 8.51252 0.91275 8.99653 0.91275 10.873C0.91275 13.2304 2.37396 14.6828 4.35811 14.6828C4.69047 14.6828 4.99951 14.6491 5.2857 14.5927V18.1613C5.2857 20.0288 6.86349 21.6066 8.73106 21.6066ZM8.73106 19.6189C7.95668 19.6189 7.27341 18.9242 7.27341 18.1613V11.6018C6.55597 11.6018 5.81576 12.6951 4.35811 12.6951C3.26487 12.6951 2.90046 11.841 2.90046 10.873C2.90046 10.5088 4.25508 10.0264 5.22359 9.4267C5.82715 9.05094 6.35099 8.6182 6.87483 8.1513C7.63571 7.48421 8.39182 6.75013 8.51452 5.70497H15.8339C15.9898 7.47692 17.477 8.79043 17.477 10.6742V11.5562C17.477 13.2344 16.5578 13.9218 14.9375 13.6517C14.6061 14.2567 13.5304 14.6518 12.7168 14.1869C11.9621 14.9888 10.7962 14.9235 10.1887 14.3919V18.1613C10.1887 18.947 9.51682 19.6189 8.73106 19.6189ZM14.4954 3.05469C14.4954 2.5058 14.9404 2.06084 15.4893 2.06084C16.0382 2.06084 16.4831 2.5058 16.4831 3.05469C16.4831 3.60359 16.0382 4.04855 15.4893 4.04855C14.9404 4.04855 14.4954 3.60359 14.4954 3.05469Z" fill="black"/>
</g>
<defs>
<clipPath id="clip0_201_6122">
<rect width="18.5519" height="21.2022" fill="white" transform="translate(0.912598 0.404419)"/>
</clipPath>
</defs>
</svg>
