<svg width="25" height="22" viewBox="0 0 25 22" fill="none" xmlns="http://www.w3.org/2000/svg">
<g clip-path="url(#clip0_201_6128)">
<path d="M23.621 12.4359L17.5603 3.08902C17.0084 2.23774 16.0732 1.72955 15.0586 1.72955H2.88735C1.60863 1.72955 0.568359 2.76987 0.568359 4.04854V4.37983C0.568359 6.20653 2.0545 7.69267 3.8812 7.69267H11.9994L11.2402 9.68038H6.53148C4.52211 9.68038 2.88735 11.3151 2.88735 13.3245C2.88735 14.6032 3.92762 15.6435 5.20634 15.6435H10.654C10.7777 15.6435 10.8989 15.6662 11.0141 15.711L15.1449 17.3172V20.2815H24.4208V15.1395C24.4208 14.1777 24.1442 13.2428 23.621 12.4359ZM22.4331 18.2938H17.1326V17.3172C17.1326 16.4912 16.6351 15.764 15.8652 15.4647L11.7345 13.8585C11.3901 13.7243 11.0236 13.6555 10.654 13.6558H5.20634C5.02368 13.6558 4.87506 13.5072 4.87506 13.3245C4.87506 12.4112 5.61813 11.6681 6.53148 11.6681H11.2402C12.0588 11.6681 12.805 11.1543 13.0971 10.3896L14.1138 7.7277C14.4863 6.75236 13.7648 5.70496 12.7212 5.70496H3.8812C3.15051 5.70496 2.55607 5.11052 2.55607 4.37983V4.04854C2.55607 3.86588 2.70469 3.71726 2.88735 3.71726H15.0586C15.3968 3.71726 15.7085 3.88663 15.8925 4.17037L21.9533 13.5174C22.2668 14.0002 22.4335 14.5637 22.4331 15.1395V18.2938Z" fill="black"/>
</g>
<defs>
<clipPath id="clip0_201_6128">
<rect width="23.8525" height="21.2022" fill="white" transform="translate(0.568359 0.404419)"/>
</clipPath>
</defs>
</svg>
