<svg width="22" height="22" viewBox="0 0 22 22" fill="none" xmlns="http://www.w3.org/2000/svg">
<g clip-path="url(#clip0_201_6110)">
<path d="M10.6011 20.2814L13.4998 20.2809C13.7116 20.2809 13.9235 20.2567 14.1294 20.2093L19.0572 19.0735C20.3144 18.7838 21.2022 17.6734 21.2022 16.4003V7.88208C21.2022 6.89464 20.6626 5.97922 19.794 5.4931L15.7358 3.22161C14.3109 2.424 12.9504 2.98044 11.917 4.24582L5.9155 1.93689C4.34657 1.33317 2.57731 2.09123 1.95491 3.64305C1.32969 5.20182 2.10544 6.97121 3.69175 7.58169L6.95697 8.35519L3.06438 7.97666C1.37466 7.97666 0 9.33538 0 11.0054C0 12.6755 1.37466 14.0342 3.06438 14.0342H6.69339C6.54121 15.1211 7.05333 16.1585 7.94983 16.7262C7.39828 18.4899 8.73945 20.2814 10.6011 20.2814ZM10.6011 18.2932C9.55921 18.2932 9.56087 16.7789 10.6011 16.7789C10.967 16.7789 11.2637 16.4823 11.2637 16.1164V15.8324C11.2637 15.4665 10.967 15.1699 10.6011 15.1699H9.4416C8.39976 15.1699 8.40129 13.6556 9.4416 13.6556H10.6011C10.967 13.6556 11.2637 13.359 11.2637 12.993V12.7091C11.2637 12.3432 10.967 12.0466 10.6011 12.0466H3.06438C1.63862 12.0466 1.64089 9.96441 3.06438 9.96441H10.6011C10.967 9.96441 11.2637 9.66778 11.2637 9.30184V8.82015C11.2637 8.68624 11.2231 8.55547 11.1473 8.44508C11.0715 8.33469 10.964 8.24986 10.839 8.20177L4.40563 5.72604C3.09904 5.22331 3.8494 3.2711 5.20162 3.79146L12.0985 6.4455C12.2287 6.49562 12.3715 6.50333 12.5064 6.46755C12.6412 6.43177 12.7614 6.35432 12.8496 6.24624L13.7509 5.14277C13.9919 4.84764 14.4279 4.76743 14.765 4.95609L18.8232 7.22762C19.0645 7.36275 19.2145 7.61349 19.2145 7.88212V16.4003C19.2145 16.7519 18.9663 17.0548 18.6109 17.1367L13.683 18.2724C13.6229 18.2862 13.5615 18.2932 13.4998 18.2932H10.6011V18.2932Z" fill="black"/>
</g>
<defs>
<clipPath id="clip0_201_6110">
<rect width="21.2022" height="21.2022" fill="white" transform="translate(0 0.404358)"/>
</clipPath>
</defs>
</svg>
