<svg width="20" height="22" viewBox="0 0 20 22" fill="none" xmlns="http://www.w3.org/2000/svg">
<g clip-path="url(#clip0_201_6116)">
<path d="M5.32925 3.84971V7.41835C5.02372 7.35819 4.71305 7.32802 4.40166 7.32824C2.41751 7.32824 0.956299 8.78059 0.956299 11.138C0.956299 13.0145 2.96624 13.4985 4.21879 14.2731C4.73282 14.5934 5.18436 14.9768 5.59581 15.3436L5.60186 15.349L5.60799 15.3543C6.33168 15.9887 6.58813 16.3158 6.58813 16.6042V16.7151C6.38307 16.9531 6.25685 17.2756 6.25685 17.6311V20.2814C6.25685 21.0132 6.79079 21.6065 7.44947 21.6065H16.9905C17.6491 21.6065 18.1831 21.0132 18.1831 20.2814V17.6311C18.1831 17.2756 18.0569 16.9531 17.8518 16.7151V16.6042C17.8518 15.4162 19.5082 13.824 19.5082 11.3367V10.4547C19.5082 7.86484 17.9074 6.36338 15.7339 6.31617C14.9962 5.79928 14.0449 5.55045 13.1336 5.65422C12.8441 5.50673 12.5371 5.3964 12.22 5.32588V3.84971C12.22 1.96823 10.6636 0.404358 8.77461 0.404358C6.90703 0.404358 5.32925 1.98214 5.32925 3.84971ZM10.2323 3.84971V7.61915C10.8397 7.08756 12.0057 7.02222 12.7604 7.82413C13.5739 7.35922 14.6497 7.75427 14.981 8.35936C16.6013 8.0892 17.5205 8.77662 17.5205 10.4547V11.3367C17.5205 13.2205 16.0333 14.534 15.8775 16.306H8.55807C8.43533 15.2608 7.67926 14.5268 6.91838 13.8597C6.39454 13.3928 5.87069 12.96 5.26714 12.5843C4.29863 11.9846 2.944 11.5021 2.944 11.138C2.944 10.17 3.30842 9.3159 4.40166 9.3159C5.85931 9.3159 6.59952 10.4091 7.31696 10.4091V3.84971C7.31696 3.08673 8.00023 2.39206 8.77461 2.39206C9.56037 2.39206 10.2323 3.06395 10.2323 3.84971ZM15.5328 17.9624C16.0817 17.9624 16.5267 18.4074 16.5267 18.9563C16.5267 19.5052 16.0817 19.9501 15.5328 19.9501C14.9839 19.9501 14.539 19.5052 14.539 18.9563C14.539 18.4074 14.9839 17.9624 15.5328 17.9624Z" fill="black"/>
</g>
<defs>
<clipPath id="clip0_201_6116">
<rect width="18.5519" height="21.2022" fill="white" transform="translate(0.956299 0.404358)"/>
</clipPath>
</defs>
</svg>
