<svg width="22" height="22" viewBox="0 0 22 22" fill="none" xmlns="http://www.w3.org/2000/svg">
<g clip-path="url(#clip0_201_6120)">
<path d="M0.710175 9.54786C0.710175 11.4368 2.27404 12.9932 4.15553 12.9932H5.63169C5.70222 13.3104 5.81254 13.6174 5.96004 13.9069C5.85622 14.8182 6.1051 15.7695 6.62198 16.5071C6.66915 18.6806 8.17066 20.2815 10.7606 20.2815H11.6426C14.1298 20.2815 15.722 18.6251 16.91 18.6251H17.0209C17.2589 18.8301 17.5814 18.9563 17.9369 18.9563H20.5872C21.319 18.9563 21.9123 18.4224 21.9123 17.7637V8.22273C21.9123 7.56405 21.319 7.0301 20.5872 7.0301H17.9369C17.5814 7.0301 17.2589 7.15632 17.0209 7.36139H16.91C16.6216 7.36139 16.2945 7.10493 15.6601 6.38128L15.6547 6.37515L15.6493 6.36911C15.2826 5.95761 14.8991 5.50607 14.5788 4.99208C13.8043 3.7395 13.3203 1.72955 11.4438 1.72955C9.08637 1.72955 7.63402 3.19077 7.63402 5.17491C7.63402 5.50727 7.66772 5.81632 7.72413 6.10251H4.15553C2.28796 6.10251 0.710175 7.68029 0.710175 9.54786ZM2.69788 9.54786C2.69788 8.77349 3.39254 8.09021 4.15553 8.09021H10.715C10.715 7.37277 9.62172 6.63256 9.62172 5.17491C9.62172 4.08167 10.4758 3.71726 11.4438 3.71726C11.808 3.71726 12.2904 5.07188 12.8901 6.04039C13.2658 6.64395 13.6986 7.16779 14.1655 7.69164C14.8326 8.45251 15.5667 9.20863 16.6118 9.33133V16.6507C14.8399 16.8066 13.5264 18.2938 11.6426 18.2938H10.7606C9.08243 18.2938 8.39502 17.3746 8.66514 15.7543C8.06005 15.4229 7.66503 14.3472 8.12991 13.5336C7.32799 12.7789 7.39334 11.613 7.92493 11.0055H4.15553C3.36977 11.0055 2.69788 10.3336 2.69788 9.54786ZM19.2621 15.3122C19.811 15.3122 20.2559 15.7572 20.2559 16.3061C20.2559 16.855 19.811 17.2999 19.2621 17.2999C18.7132 17.2999 18.2682 16.855 18.2682 16.3061C18.2682 15.7572 18.7132 15.3122 19.2621 15.3122Z" fill="black"/>
</g>
<defs>
<clipPath id="clip0_201_6120">
<rect width="21.2022" height="21.2022" fill="white" transform="translate(0.710388 0.404419)"/>
</clipPath>
</defs>
</svg>
