<svg width="27" height="22" viewBox="0 0 27 22" fill="none" xmlns="http://www.w3.org/2000/svg">
<g clip-path="url(#clip0_201_6106)">
<path d="M21.5965 5.49861L19.6254 3.52747C19.1892 3.09507 18.5998 2.85247 17.9855 2.85248H8.59363C7.98076 2.85248 7.38859 3.0968 6.95378 3.52747L4.98263 5.49861H0.0961914V16.0873H2.74647C3.47529 16.0873 4.06332 15.4993 4.06746 14.7746H4.4443L7.94763 17.9383C9.22721 18.9777 11.0037 19.0026 12.3206 18.0957C12.8382 18.5429 13.3973 18.7541 14.0226 18.7541C14.7762 18.7541 15.4843 18.4477 16.0434 17.7603C16.9586 18.1205 18.0394 17.8679 18.6937 17.0646L19.7786 15.727C20.0105 15.4413 20.1555 15.1141 20.23 14.7746H22.6277C22.6318 15.4993 23.224 16.0873 23.9487 16.0873H26.5989V5.49861H21.5965ZM2.0839 14.7621C1.71948 14.7621 1.42133 14.464 1.42133 14.0996C1.42133 13.7352 1.71948 13.437 2.0839 13.437C2.44831 13.437 2.74647 13.7352 2.74647 14.0996C2.74647 14.4681 2.44831 14.7621 2.0839 14.7621ZM18.234 14.4764L17.1532 15.8098C17.0372 15.9506 16.8302 15.9755 16.6853 15.8595L15.6955 15.0562L14.4532 16.5676C14.2048 16.8699 13.8321 16.7664 13.7078 16.667L12.1839 15.3626L11.5379 16.1577C10.9623 16.8658 9.91463 16.9735 9.24792 16.431L5.21867 12.7869H4.0716V7.48218H5.8067L8.36173 4.93129C8.44456 4.89816 8.51495 4.86917 8.59777 4.83604H10.9458L9.34316 6.30612C8.12569 7.42006 8.0553 9.3001 9.16096 10.501C9.77383 11.1719 11.6953 12.2071 13.3641 10.6832L13.7037 10.3726L18.1843 14.0085C18.3251 14.1244 18.3458 14.3356 18.234 14.4764ZM22.6235 12.7869H19.7579C19.6627 12.6709 19.555 12.5632 19.4391 12.468L15.1862 9.01437L15.7038 8.54229C15.973 8.29382 15.9937 7.87558 15.7452 7.60641L15.2939 7.1219C15.0454 6.85274 14.6271 6.83617 14.358 7.08049L12.0721 9.17587C11.6787 9.53614 11.0079 9.56513 10.6393 9.17587C10.2542 8.7659 10.2873 8.13646 10.689 7.77205L13.4055 5.28328C13.712 5.00168 14.1095 4.84847 14.5236 4.84847L17.9897 4.84018C18.0766 4.84018 18.1595 4.87331 18.2174 4.93543L20.7725 7.48632H22.6235V12.7869ZM24.6112 14.7621C24.2468 14.7621 23.9487 14.464 23.9487 14.0996C23.9487 13.7352 24.2468 13.437 24.6112 13.437C24.9756 13.437 25.2738 13.7352 25.2738 14.0996C25.2738 14.4681 24.9756 14.7621 24.6112 14.7621Z" fill="black"/>
</g>
<defs>
<clipPath id="clip0_201_6106">
<rect width="26.5027" height="21.2022" fill="white" transform="translate(0.0961914 0.202209)"/>
</clipPath>
</defs>
</svg>
