<svg width="22" height="22" viewBox="0 0 22 22" fill="none" xmlns="http://www.w3.org/2000/svg">
<g clip-path="url(#clip0_201_6112)">
<path d="M17.1335 3.67793C16.2059 2.27419 14.396 1.92738 13.0416 2.70114C11.8211 1.39799 9.76419 1.41356 8.55546 2.70023C6.60254 1.58131 4.05372 2.90956 3.97251 5.21823C2.05934 4.7693 0.202248 6.20186 0.202248 8.16588V10.5243C0.202248 11.8802 0.79359 13.1727 1.82471 14.0705L5.87094 17.5937C6.04701 17.747 5.99972 17.8245 5.99972 18.9563C5.99972 19.6881 6.59301 20.2814 7.32486 20.2814H17.7603C18.4922 20.2814 19.0855 19.6881 19.0855 18.9563C19.0855 17.9826 19.0434 17.6831 19.2504 17.2017L21.0242 13.0749C21.2765 12.4878 21.4044 11.8669 21.4044 11.2293V6.49016C21.4044 4.30207 19.1553 2.81862 17.1335 3.67793ZM19.4167 11.2293C19.417 11.5941 19.3426 11.955 19.198 12.29L17.4242 16.4167C17.2076 16.9207 17.0977 17.4536 17.0977 18.0007V18.2937H7.98743V17.8677C7.98743 17.1899 7.69176 16.5436 7.1762 16.0947L3.12997 12.5715C2.53258 12.0513 2.18995 11.3051 2.18995 10.5243V8.16584C2.18995 6.79067 4.3433 6.77705 4.3433 8.19387V9.90114C4.3433 9.99585 4.3636 10.0895 4.40284 10.1757C4.44208 10.2619 4.49934 10.3386 4.57077 10.4008L4.86064 10.6532C4.95654 10.7367 5.07443 10.7909 5.20025 10.8092C5.32608 10.8275 5.45452 10.8093 5.57024 10.7566C5.68597 10.7039 5.78409 10.619 5.85291 10.5121C5.92172 10.4052 5.95831 10.2807 5.95831 10.1536V5.32627C5.95831 3.95571 8.11166 3.9297 8.11166 5.35431V6.46208C8.11166 6.82799 8.40833 7.12465 8.77423 7.12465H9.0641C9.43001 7.12465 9.72667 6.82799 9.72667 6.46208V4.75833C9.72667 3.38623 11.88 3.36383 11.88 4.78636V6.46208C11.88 6.82799 12.1766 7.12465 12.5426 7.12465H12.8325C13.1984 7.12465 13.495 6.82799 13.495 6.46208V5.32623C13.495 3.95844 15.6484 3.92738 15.6484 5.35427V6.46204C15.6484 6.82794 15.945 7.12461 16.3109 7.12461H16.6008C16.9668 7.12461 17.2634 6.82794 17.2634 6.46204C17.2634 5.08945 19.4167 5.07011 19.4167 6.49008V11.2293Z" fill="black"/>
</g>
<defs>
<clipPath id="clip0_201_6112">
<rect width="21.2022" height="21.2022" fill="white" transform="translate(0.202194 0.404358)"/>
</clipPath>
</defs>
</svg>
