<svg width="20" height="22" viewBox="0 0 20 22" fill="none" xmlns="http://www.w3.org/2000/svg">
<g clip-path="url(#clip0_201_6124)">
<path d="M15.4612 8.35425C14.8934 7.45775 13.856 6.94563 12.7692 7.09781V3.4688C12.7692 1.77908 11.4105 0.404419 9.74041 0.404419C8.07032 0.404419 6.71164 1.77908 6.71164 3.4688L7.09018 7.36139L6.31667 4.09617C5.70615 2.50986 3.93677 1.73411 2.37803 2.35933C0.826213 2.98173 0.0681518 4.75099 0.671876 6.31991L2.9808 12.3214C1.71542 13.3549 1.15899 14.7153 1.9566 16.1402L4.22809 20.1984C4.71425 21.067 5.62963 21.6066 6.61706 21.6066H15.1353C16.4084 21.6066 17.5188 20.7188 17.8085 19.4617L18.9443 14.5339C18.9919 14.3274 19.0159 14.1162 19.0159 13.9043L19.0164 11.0055C19.0164 9.14386 17.2249 7.8027 15.4612 8.35425ZM17.0282 13.9043C17.0282 13.9659 17.0212 14.0275 17.0074 14.0874L15.8716 19.0153C15.7897 19.3707 15.4869 19.6189 15.1353 19.6189H6.61706C6.34847 19.6189 6.09769 19.469 5.96257 19.2276L3.69104 15.1694C3.50233 14.8323 3.58258 14.3963 3.87771 14.1553L4.98118 13.2541C5.08927 13.1658 5.16672 13.0457 5.2025 12.9108C5.23829 12.7759 5.23057 12.6332 5.18045 12.5029L2.52645 5.60604C2.00604 4.25378 3.9583 3.50346 4.46102 4.81004L6.93671 11.2435C6.9848 11.3684 7.06963 11.4759 7.18002 11.5517C7.29041 11.6275 7.42118 11.6681 7.55509 11.6681H8.03678C8.40273 11.6681 8.69935 11.3715 8.69935 11.0055V3.4688C8.69935 2.04531 10.7815 2.04303 10.7815 3.4688V11.0055C10.7815 11.3715 11.0781 11.6681 11.4441 11.6681H11.728C12.0939 11.6681 12.3906 11.3715 12.3906 11.0055V9.84602C12.3906 8.80571 13.9048 8.80417 13.9048 9.84602V11.0055C13.9048 11.3715 14.2014 11.6681 14.5674 11.6681H14.8513C15.2172 11.6681 15.5139 11.3715 15.5139 11.0055C15.5139 9.96528 17.0281 9.96363 17.0281 11.0055V13.9043H17.0282Z" fill="black"/>
</g>
<defs>
<clipPath id="clip0_201_6124">
<rect width="18.5519" height="21.2022" fill="white" transform="translate(0.464478 0.404419)"/>
</clipPath>
</defs>
</svg>
