<svg width="25" height="22" viewBox="0 0 25 22" fill="none" xmlns="http://www.w3.org/2000/svg">
<g clip-path="url(#clip0_201_6104)">
<path d="M23.7402 9.96027L19.3888 3.70508C19.2057 3.44191 18.9617 3.22693 18.6776 3.07847C18.3935 2.93001 18.0777 2.85247 17.7571 2.85248H6.58294C6.26236 2.85247 5.94654 2.93001 5.66241 3.07847C5.37828 3.22693 5.13427 3.44191 4.9512 3.70508L0.599781 9.96027C0.368009 10.2934 0.243775 10.6896 0.243774 11.0954L0.243774 16.7664C0.243774 17.8642 1.13369 18.7541 2.23148 18.7541H22.1085C23.2063 18.7541 24.0962 17.8642 24.0962 16.7664V11.0954C24.0962 10.6895 23.972 10.2935 23.7402 9.96027ZM6.58294 4.84018H17.7571L20.9835 9.47816H3.35652L6.58294 4.84018ZM22.1085 16.7664H2.23148V11.4659H22.1085V16.7664ZM20.7834 14.1161C20.7834 14.848 20.1901 15.4413 19.4583 15.4413C18.7264 15.4413 18.1331 14.848 18.1331 14.1161C18.1331 13.3843 18.7264 12.791 19.4583 12.791C20.1901 12.791 20.7834 13.3843 20.7834 14.1161ZM16.808 14.1161C16.808 14.848 16.2147 15.4413 15.4829 15.4413C14.751 15.4413 14.1577 14.848 14.1577 14.1161C14.1577 13.3843 14.751 12.791 15.4829 12.791C16.2147 12.791 16.808 13.3843 16.808 14.1161Z" fill="black"/>
</g>
<defs>
<clipPath id="clip0_201_6104">
<rect width="23.8525" height="21.2022" fill="white" transform="translate(0.243774 0.202209)"/>
</clipPath>
</defs>
</svg>
