<svg width="22" height="22" viewBox="0 0 22 22" fill="none" xmlns="http://www.w3.org/2000/svg">
<g clip-path="url(#clip0_201_6102)">
<path d="M19.0241 2.8649C16.6306 0.852344 12.9326 1.15464 10.6426 3.48605C8.3526 1.15464 4.65464 0.848203 2.26111 2.8649C-0.852959 5.48618 -0.397443 9.75975 1.82216 12.0249L9.08557 19.425C9.49967 19.8474 10.0546 20.0834 10.6426 20.0834C11.2348 20.0834 11.7855 19.8515 12.1996 19.4291L19.4631 12.029C21.6785 9.76389 22.1423 5.49032 19.0241 2.8649ZM18.0468 10.6294L10.7834 18.0294C10.684 18.1288 10.6012 18.1288 10.5018 18.0294L3.2384 10.6294C1.72692 9.0889 1.42048 6.1736 3.5407 4.3888C5.15157 3.03468 7.6362 3.23759 9.19324 4.82361L10.6426 6.30197L12.092 4.82361C13.6573 3.22931 16.1419 3.03468 17.7445 4.38466C19.8606 6.16946 19.5459 9.10132 18.0468 10.6294Z" fill="black"/>
</g>
<defs>
<clipPath id="clip0_201_6102">
<rect width="21.2022" height="21.2022" fill="white" transform="translate(0.0415039 0.202209)"/>
</clipPath>
</defs>
</svg>
