<svg width="20" height="22" viewBox="0 0 20 22" fill="none" xmlns="http://www.w3.org/2000/svg">
<g clip-path="url(#clip0_201_6100)">
<path d="M5.79029 10.3064V8.64996C5.79029 8.37553 6.01279 8.15303 6.28722 8.15303H7.94364C8.21807 8.15303 8.44057 8.37553 8.44057 8.64996V10.3064C8.44057 10.5808 8.21807 10.8033 7.94364 10.8033H6.28722C6.01279 10.8033 5.79029 10.5808 5.79029 10.3064ZM11.5878 10.8033H13.2442C13.5186 10.8033 13.7411 10.5808 13.7411 10.3064V8.64996C13.7411 8.37553 13.5186 8.15303 13.2442 8.15303H11.5878C11.3133 8.15303 11.0908 8.37553 11.0908 8.64996V10.3064C11.0908 10.5808 11.3133 10.8033 11.5878 10.8033ZM8.44057 14.2818V12.6254C8.44057 12.3509 8.21807 12.1284 7.94364 12.1284H6.28722C6.01279 12.1284 5.79029 12.3509 5.79029 12.6254V14.2818C5.79029 14.5562 6.01279 14.7787 6.28722 14.7787H7.94364C8.21807 14.7787 8.44057 14.5562 8.44057 14.2818ZM11.5878 14.7787H13.2442C13.5186 14.7787 13.7411 14.5562 13.7411 14.2818V12.6254C13.7411 12.3509 13.5186 12.1284 13.2442 12.1284H11.5878C11.3133 12.1284 11.0908 12.3509 11.0908 12.6254V14.2818C11.0908 14.5562 11.3133 14.7787 11.5878 14.7787ZM19.0417 19.9136V21.4044H0.489746V19.9136C0.489746 19.6392 0.712245 19.4167 0.986673 19.4167H1.79418V3.72355C1.79418 3.24249 2.23913 2.85248 2.78803 2.85248H6.45286V1.19606C6.45286 0.647166 6.89782 0.202209 7.44672 0.202209H12.0847C12.6336 0.202209 13.0785 0.647166 13.0785 1.19606V2.85248H16.7434C17.2923 2.85248 17.7372 3.24249 17.7372 3.72355V19.4167H18.5447C18.8192 19.4167 19.0417 19.6392 19.0417 19.9136ZM3.78188 19.3753H8.44057V16.6008C8.44057 16.3264 8.66307 16.1039 8.9375 16.1039H10.5939C10.8683 16.1039 11.0908 16.3264 11.0908 16.6008V19.3753H15.7495V4.84019H13.0785V5.83404C13.0785 6.38294 12.6336 6.8279 12.0847 6.8279H7.44672C6.89782 6.8279 6.45286 6.38294 6.45286 5.83404V4.84019H3.78188V19.3753ZM11.5049 2.85248H10.4283V1.77581C10.4283 1.70991 10.4021 1.64672 10.3555 1.60012C10.3089 1.55352 10.2457 1.52735 10.1798 1.52735H9.3516C9.2857 1.52735 9.22251 1.55352 9.17591 1.60012C9.12931 1.64672 9.10314 1.70991 9.10314 1.77581V2.85248H8.02646C7.96057 2.85248 7.89737 2.87866 7.85077 2.92526C7.80418 2.97185 7.778 3.03505 7.778 3.10095V3.92916C7.778 3.99505 7.80418 4.05825 7.85077 4.10485C7.89737 4.15144 7.96057 4.17762 8.02646 4.17762H9.10314V5.2543C9.10314 5.32019 9.12931 5.38339 9.17591 5.42999C9.22251 5.47658 9.2857 5.50276 9.3516 5.50276H10.1798C10.2457 5.50276 10.3089 5.47658 10.3555 5.42999C10.4021 5.38339 10.4283 5.32019 10.4283 5.2543V4.17762H11.5049C11.5708 4.17762 11.634 4.15144 11.6806 4.10485C11.7272 4.05825 11.7534 3.99505 11.7534 3.92916V3.10095C11.7534 3.03505 11.7272 2.97185 11.6806 2.92526C11.634 2.87866 11.5708 2.85248 11.5049 2.85248Z" fill="black"/>
</g>
<defs>
<clipPath id="clip0_201_6100">
<rect width="18.5519" height="21.2022" fill="white" transform="translate(0.489746 0.202209)"/>
</clipPath>
</defs>
</svg>
