<svg width="17" height="22" viewBox="0 0 17 22" fill="none" xmlns="http://www.w3.org/2000/svg">
<g clip-path="url(#clip0_201_6098)">
<path d="M15.8272 2.18992H15.9929C16.2673 2.18992 16.4898 1.96742 16.4898 1.69299V0.699136C16.4898 0.424708 16.2673 0.202209 15.9929 0.202209H1.08506C0.810634 0.202209 0.588135 0.424708 0.588135 0.699136V1.69299C0.588135 1.96742 0.810634 2.18992 1.08506 2.18992H1.2507C1.2507 5.52611 2.58363 9.05607 5.27498 10.8033C2.57166 12.5583 1.2507 16.0997 1.2507 19.4167H1.08506C0.810634 19.4167 0.588135 19.6392 0.588135 19.9136V20.9075C0.588135 21.1819 0.810634 21.4044 1.08506 21.4044H15.9929C16.2673 21.4044 16.4898 21.1819 16.4898 20.9075V19.9136C16.4898 19.6392 16.2673 19.4167 15.9929 19.4167H15.8272C15.8272 16.0805 14.4943 12.5505 11.8029 10.8033C14.5063 9.04829 15.8272 5.5069 15.8272 2.18992ZM3.23841 2.18992H13.8395C13.8395 6.39805 11.4664 9.80945 8.53896 9.80945C5.61152 9.80945 3.23841 6.3981 3.23841 2.18992ZM13.8395 19.4167H3.23841C3.23841 15.2086 5.61156 11.7972 8.53896 11.7972C11.4664 11.7972 13.8395 15.2086 13.8395 19.4167Z" fill="black"/>
</g>
<defs>
<clipPath id="clip0_201_6098">
<rect width="15.9016" height="21.2022" fill="white" transform="translate(0.588135 0.202209)"/>
</clipPath>
</defs>
</svg>
