<svg width="25" height="22" viewBox="0 0 25 22" fill="none" xmlns="http://www.w3.org/2000/svg">
<g clip-path="url(#clip0_201_6094)">
<path d="M22.6989 1.52734H2.82181C1.72443 1.52734 0.834106 2.41767 0.834106 3.51505V18.0916C0.834106 19.1889 1.72443 20.0793 2.82181 20.0793H22.6989C23.7962 20.0793 24.6866 19.1889 24.6866 18.0916V3.51505C24.6866 2.41767 23.7962 1.52734 22.6989 1.52734ZM22.6989 18.0916H13.3898C13.4271 17.9052 13.4229 18.2406 13.4229 17.164C13.4229 15.8471 12.1765 14.7787 10.6401 14.7787C10.1929 14.7787 9.86574 15.11 8.78493 15.11C7.67099 15.11 7.40182 14.7787 6.92974 14.7787C5.39341 14.7787 4.14695 15.8471 4.14695 17.164C4.14695 18.2406 4.13867 17.9052 4.18008 18.0916H2.82181V6.16532H22.6989V18.0916ZM15.7419 14.7787H20.3799C20.5621 14.7787 20.7112 14.6296 20.7112 14.4474V13.7849C20.7112 13.6027 20.5621 13.4536 20.3799 13.4536H15.7419C15.5597 13.4536 15.4106 13.6027 15.4106 13.7849V14.4474C15.4106 14.6296 15.5597 14.7787 15.7419 14.7787ZM15.7419 12.1284H20.3799C20.5621 12.1284 20.7112 11.9794 20.7112 11.7972V11.1346C20.7112 10.9524 20.5621 10.8033 20.3799 10.8033H15.7419C15.5597 10.8033 15.4106 10.9524 15.4106 11.1346V11.7972C15.4106 11.9794 15.5597 12.1284 15.7419 12.1284ZM15.7419 9.47817H20.3799C20.5621 9.47817 20.7112 9.32909 20.7112 9.14688V8.48431C20.7112 8.30211 20.5621 8.15303 20.3799 8.15303H15.7419C15.5597 8.15303 15.4106 8.30211 15.4106 8.48431V9.14688C15.4106 9.32909 15.5597 9.47817 15.7419 9.47817ZM8.78493 13.4536C10.2467 13.4536 11.4352 12.2651 11.4352 10.8033C11.4352 9.34151 10.2467 8.15303 8.78493 8.15303C7.32314 8.15303 6.13465 9.34151 6.13465 10.8033C6.13465 12.2651 7.32314 13.4536 8.78493 13.4536Z" fill="black"/>
</g>
<defs>
<clipPath id="clip0_201_6094">
<rect width="23.8525" height="21.2022" fill="white" transform="translate(0.834106 0.202209)"/>
</clipPath>
</defs>
</svg>
