<svg width="22" height="22" viewBox="0 0 22 22" fill="none" xmlns="http://www.w3.org/2000/svg">
<g clip-path="url(#clip0_201_6092)">
<path d="M19.8464 2.85248H2.61966C1.52187 2.85248 0.631958 3.74239 0.631958 4.84018V16.7664C0.631958 17.8642 1.52187 18.7541 2.61966 18.7541H19.8464C20.9442 18.7541 21.8342 17.8642 21.8342 16.7664V4.84018C21.8342 3.74239 20.9442 2.85248 19.8464 2.85248ZM19.598 16.7664H2.86813C2.80223 16.7664 2.73903 16.7402 2.69244 16.6936C2.64584 16.647 2.61966 16.5839 2.61966 16.518V5.08865C2.61966 5.02275 2.64584 4.95955 2.69244 4.91296C2.73903 4.86636 2.80223 4.84018 2.86813 4.84018H19.598C19.6639 4.84018 19.7271 4.86636 19.7737 4.91296C19.8203 4.95955 19.8464 5.02275 19.8464 5.08865V16.518C19.8464 16.5839 19.8203 16.647 19.7737 16.6936C19.7271 16.7402 19.6639 16.7664 19.598 16.7664ZM5.93251 6.49661C5.01771 6.49661 4.27609 7.23823 4.27609 8.15303C4.27609 9.06783 5.01771 9.80945 5.93251 9.80945C6.84731 9.80945 7.58893 9.06783 7.58893 8.15303C7.58893 7.23823 6.84731 6.49661 5.93251 6.49661ZM4.60737 14.7787H17.8587V11.4659L14.2347 7.84183C14.0406 7.64778 13.726 7.64778 13.5319 7.84183L8.58278 12.791L6.94644 11.1547C6.75239 10.9606 6.43776 10.9606 6.24367 11.1547L4.60737 12.791V14.7787Z" fill="black"/>
</g>
<defs>
<clipPath id="clip0_201_6092">
<rect width="21.2022" height="21.2022" fill="white" transform="translate(0.631958 0.202209)"/>
</clipPath>
</defs>
</svg>
