<svg width="25" height="22" viewBox="0 0 25 22" fill="none" xmlns="http://www.w3.org/2000/svg">
<g clip-path="url(#clip0_201_6090)">
<path d="M20.6564 17.429V18.0916C20.6564 19.1894 19.7664 20.0793 18.6686 20.0793H2.767C1.66921 20.0793 0.779297 19.1894 0.779297 18.0916V7.49046C0.779297 6.39267 1.66921 5.50276 2.767 5.50276H3.42957V7.49046H3.01547C2.94957 7.49046 2.88637 7.51664 2.83978 7.56323C2.79318 7.60983 2.767 7.67303 2.767 7.73892V17.8431C2.767 17.909 2.79318 17.9722 2.83978 18.0188C2.88637 18.0654 2.94957 18.0916 3.01547 18.0916H18.4202C18.4861 18.0916 18.5493 18.0654 18.5959 18.0188C18.6425 17.9722 18.6686 17.909 18.6686 17.8431V17.429H20.6564ZM22.3956 3.51505H6.99088C6.92498 3.51505 6.86178 3.54123 6.81519 3.58782C6.76859 3.63442 6.74241 3.69762 6.74241 3.76351V13.8677C6.74241 13.9336 6.76859 13.9968 6.81519 14.0434C6.86178 14.09 6.92498 14.1161 6.99088 14.1161H22.3956C22.4615 14.1161 22.5247 14.09 22.5713 14.0434C22.6179 13.9968 22.6441 13.9336 22.6441 13.8677V3.76351C22.6441 3.69762 22.6179 3.63442 22.5713 3.58782C22.5247 3.54123 22.4615 3.51505 22.3956 3.51505ZM22.6441 1.52734C23.7419 1.52734 24.6318 2.41726 24.6318 3.51505V14.1161C24.6318 15.2139 23.7419 16.1039 22.6441 16.1039H6.74241C5.64462 16.1039 4.75471 15.2139 4.75471 14.1161V3.51505C4.75471 2.41726 5.64462 1.52734 6.74241 1.52734H22.6441ZM11.7117 6.16532C11.7117 7.08012 10.9701 7.82174 10.0553 7.82174C9.14046 7.82174 8.39884 7.08012 8.39884 6.16532C8.39884 5.25052 9.14046 4.5089 10.0553 4.5089C10.9701 4.5089 11.7117 5.25052 11.7117 6.16532ZM8.73012 10.1407L10.3665 8.5044C10.5605 8.31035 10.8751 8.31035 11.0692 8.5044L12.7055 10.1407L16.9921 5.85412C17.1862 5.66007 17.5008 5.66007 17.6949 5.85412L20.6564 8.8156V12.1284H8.73012V10.1407Z" fill="black"/>
</g>
<defs>
<clipPath id="clip0_201_6090">
<rect width="23.8525" height="21.2022" fill="white" transform="translate(0.779541 0.202209)"/>
</clipPath>
</defs>
</svg>
