<svg width="25" height="22" viewBox="0 0 25 22" fill="none" xmlns="http://www.w3.org/2000/svg">
<g clip-path="url(#clip0_201_6088)">
<path d="M22.7921 2.85248H2.91507C1.81728 2.85248 0.927368 3.74239 0.927368 4.84018V16.7664C0.927368 17.8642 1.81728 18.7541 2.91507 18.7541H22.7921C23.8899 18.7541 24.7798 17.8642 24.7798 16.7664V4.84018C24.7798 3.74239 23.8899 2.85248 22.7921 2.85248ZM23.1234 16.7664C23.1234 16.9491 22.9748 17.0977 22.7921 17.0977H2.91507C2.73241 17.0977 2.58379 16.9491 2.58379 16.7664V4.84018C2.58379 4.65752 2.73241 4.5089 2.91507 4.5089H22.7921C22.9748 4.5089 23.1234 4.65752 23.1234 4.84018V16.7664ZM7.96716 11.383V10.2236C7.96716 9.94913 7.74466 9.72663 7.47023 9.72663H6.31074C6.03631 9.72663 5.81381 9.94913 5.81381 10.2236V11.383C5.81381 11.6575 6.03631 11.88 6.31074 11.88H7.47023C7.74466 11.88 7.96716 11.6575 7.96716 11.383ZM11.9426 11.383V10.2236C11.9426 9.94913 11.7201 9.72663 11.4456 9.72663H10.2861C10.0117 9.72663 9.78922 9.94913 9.78922 10.2236V11.383C9.78922 11.6575 10.0117 11.88 10.2861 11.88H11.4456C11.7201 11.88 11.9426 11.6575 11.9426 11.383ZM15.918 11.383V10.2236C15.918 9.94913 15.6955 9.72663 15.4211 9.72663H14.2616C13.9871 9.72663 13.7646 9.94913 13.7646 10.2236V11.383C13.7646 11.6575 13.9871 11.88 14.2616 11.88H15.4211C15.6955 11.88 15.918 11.6575 15.918 11.383ZM19.8934 11.383V10.2236C19.8934 9.94913 19.6709 9.72663 19.3965 9.72663H18.237C17.9625 9.72663 17.74 9.94913 17.74 10.2236V11.383C17.74 11.6575 17.9625 11.88 18.237 11.88H19.3965C19.6709 11.88 19.8934 11.6575 19.8934 11.383ZM5.97945 14.7787V13.6192C5.97945 13.3448 5.75695 13.1223 5.48253 13.1223H4.32303C4.0486 13.1223 3.82611 13.3448 3.82611 13.6192V14.7787C3.82611 15.0531 4.0486 15.2756 4.32303 15.2756H5.48253C5.75695 15.2756 5.97945 15.0531 5.97945 14.7787ZM21.8811 14.7787V13.6192C21.8811 13.3448 21.6586 13.1223 21.3842 13.1223H20.2247C19.9503 13.1223 19.7278 13.3448 19.7278 13.6192V14.7787C19.7278 15.0531 19.9503 15.2756 20.2247 15.2756H21.3842C21.6586 15.2756 21.8811 15.0531 21.8811 14.7787ZM5.97945 7.98738V6.82789C5.97945 6.55346 5.75695 6.33096 5.48253 6.33096H4.32303C4.0486 6.33096 3.82611 6.55346 3.82611 6.82789V7.98738C3.82611 8.26181 4.0486 8.48431 4.32303 8.48431H5.48253C5.75695 8.48431 5.97945 8.26181 5.97945 7.98738ZM9.95486 7.98738V6.82789C9.95486 6.55346 9.73237 6.33096 9.45794 6.33096H8.29844C8.02402 6.33096 7.80152 6.55346 7.80152 6.82789V7.98738C7.80152 8.26181 8.02402 8.48431 8.29844 8.48431H9.45794C9.73237 8.48431 9.95486 8.26181 9.95486 7.98738ZM13.9303 7.98738V6.82789C13.9303 6.55346 13.7078 6.33096 13.4333 6.33096H12.2739C11.9994 6.33096 11.7769 6.55346 11.7769 6.82789V7.98738C11.7769 8.26181 11.9994 8.48431 12.2739 8.48431H13.4333C13.7078 8.48431 13.9303 8.26181 13.9303 7.98738ZM17.9057 7.98738V6.82789C17.9057 6.55346 17.6832 6.33096 17.4088 6.33096H16.2493C15.9748 6.33096 15.7523 6.55346 15.7523 6.82789V7.98738C15.7523 8.26181 15.9748 8.48431 16.2493 8.48431H17.4088C17.6832 8.48431 17.9057 8.26181 17.9057 7.98738ZM21.8811 7.98738V6.82789C21.8811 6.55346 21.6586 6.33096 21.3842 6.33096H20.2247C19.9503 6.33096 19.7278 6.55346 19.7278 6.82789V7.98738C19.7278 8.26181 19.9503 8.48431 20.2247 8.48431H21.3842C21.6586 8.48431 21.8811 8.26181 21.8811 7.98738ZM17.8229 14.5302V13.8677C17.8229 13.5933 17.6004 13.3708 17.3259 13.3708H8.38126C8.10684 13.3708 7.88434 13.5933 7.88434 13.8677V14.5302C7.88434 14.8047 8.10684 15.0272 8.38126 15.0272H17.3259C17.6004 15.0272 17.8229 14.8047 17.8229 14.5302Z" fill="black"/>
</g>
<defs>
<clipPath id="clip0_201_6088">
<rect width="23.8525" height="21.2022" fill="white" transform="translate(0.927124 0.202209)"/>
</clipPath>
</defs>
</svg>
