<svg width="21" height="22" viewBox="0 0 21 22" fill="none" xmlns="http://www.w3.org/2000/svg">
<g clip-path="url(#clip0_201_6086)">
<path d="M7.34442 6.49663C6.35885 6.49663 5.16209 7.70995 5.02543 9.45334C5.01301 9.60656 5.10825 9.75149 5.25733 9.79705C5.40227 9.83846 5.56791 9.77634 5.64245 9.64383L6.03585 8.93985C6.35471 8.37252 6.83093 8.04538 7.34028 8.04538C7.84963 8.04538 8.32585 8.37252 8.64471 8.93985L9.03811 9.64383C9.12507 9.79705 9.29486 9.83846 9.42323 9.79705C9.57231 9.75149 9.66755 9.6107 9.65513 9.45334C9.52676 7.70995 8.32999 6.49663 7.34442 6.49663ZM10.6573 0.533508C4.98402 0.533508 0.387451 5.13008 0.387451 10.8033C0.387451 16.4766 4.98402 21.0731 10.6573 21.0731C16.3305 21.0731 20.9271 16.4766 20.9271 10.8033C20.9271 5.13008 16.3305 0.533508 10.6573 0.533508ZM10.6573 19.0854C6.08968 19.0854 2.37516 15.3709 2.37516 10.8033C2.37516 6.23574 6.08968 2.52121 10.6573 2.52121C15.2248 2.52121 18.9394 6.23574 18.9394 10.8033C18.9394 15.3709 15.2248 19.0854 10.6573 19.0854ZM12.9763 12.9567C12.9763 12.1616 11.7836 11.2381 10.0154 11.1346C9.85804 11.118 9.70896 11.234 9.67584 11.3914C9.63857 11.5487 9.72139 11.7102 9.87046 11.7723L10.5703 12.0705C11.1086 12.2982 11.4316 12.6295 11.4316 12.9608C11.4316 13.2921 11.1086 13.6234 10.5744 13.8511L9.87046 14.1493C9.63442 14.2487 9.622 14.6545 9.87046 14.7622L10.5703 15.0603C11.1086 15.2881 11.4316 15.6194 11.4316 15.9507C11.4316 16.2819 11.1086 16.6132 10.5744 16.841L9.87046 17.1391C9.72139 17.2013 9.63857 17.3628 9.67584 17.5201C9.70896 17.6692 9.84562 17.7769 9.99884 17.7769H10.0195C11.7919 17.6733 12.9804 16.7499 12.9804 15.9548C12.9804 15.4165 12.4255 14.8243 11.5227 14.464C12.4214 14.0872 12.9763 13.495 12.9763 12.9567ZM13.9701 6.49663C12.9845 6.49663 11.7878 7.70995 11.6511 9.45334C11.6387 9.60656 11.7339 9.75149 11.883 9.79705C12.028 9.83846 12.1936 9.77634 12.2681 9.64383L12.6615 8.93985C12.9804 8.37252 13.4566 8.04538 13.966 8.04538C14.4753 8.04538 14.9515 8.37252 15.2704 8.93985L15.6638 9.64383C15.7508 9.79705 15.9205 9.83846 16.0489 9.79705C16.198 9.75149 16.2932 9.6107 16.2808 9.45334C16.1524 7.70995 14.9557 6.49663 13.9701 6.49663Z" fill="black"/>
</g>
<defs>
<clipPath id="clip0_201_6086">
<rect width="20.5396" height="21.2022" fill="white" transform="translate(0.387451 0.202209)"/>
</clipPath>
</defs>
</svg>
