<svg width="22" height="22" viewBox="0 0 22 22" fill="none" xmlns="http://www.w3.org/2000/svg">
<g clip-path="url(#clip0_201_6082)">
<path d="M7.93402 7.49048C7.20105 7.49048 6.60888 8.08265 6.60888 8.81562C6.60888 9.54858 7.20105 10.1408 7.93402 10.1408C8.66699 10.1408 9.25916 9.54858 9.25916 8.81562C9.25916 8.08265 8.66699 7.49048 7.93402 7.49048ZM13.5659 12.9567C13.5659 12.1616 12.3732 11.2381 10.605 11.1346C10.4476 11.118 10.2986 11.234 10.2654 11.3914C10.2282 11.5487 10.311 11.7102 10.4601 11.7723L11.1599 12.0705C11.6982 12.2982 12.0212 12.6295 12.0212 12.9608C12.0212 13.2921 11.6982 13.6234 11.164 13.8511L10.4601 14.1493C10.224 14.2487 10.2116 14.6545 10.4601 14.7622L11.1599 15.0603C11.6982 15.2881 12.0212 15.6194 12.0212 15.9507C12.0212 16.2819 11.6982 16.6132 11.164 16.841L10.4601 17.1391C10.311 17.2013 10.2282 17.3628 10.2654 17.5201C10.2986 17.6692 10.4352 17.7769 10.5884 17.7769H10.6091C12.3815 17.6733 13.57 16.7499 13.57 15.9548C13.57 15.4165 13.0151 14.8243 12.1123 14.464C13.011 14.0872 13.5659 13.495 13.5659 12.9567ZM11.2469 0.533508C5.57362 0.533508 0.977051 5.13008 0.977051 10.8033C0.977051 16.4766 5.57362 21.0731 11.2469 21.0731C16.9201 21.0731 21.5167 16.4766 21.5167 10.8033C21.5167 5.13008 16.9201 0.533508 11.2469 0.533508ZM11.2469 19.0854C6.67928 19.0854 2.96476 15.3709 2.96476 10.8033C2.96476 6.23574 6.67928 2.52121 11.2469 2.52121C15.8144 2.52121 19.529 6.23574 19.529 10.8033C19.529 15.3709 15.8144 19.0854 11.2469 19.0854ZM14.5597 7.49048C13.8267 7.49048 13.2346 8.08265 13.2346 8.81562C13.2346 9.54858 13.8267 10.1408 14.5597 10.1408C15.2927 10.1408 15.8848 9.54858 15.8848 8.81562C15.8848 8.08265 15.2927 7.49048 14.5597 7.49048Z" fill="black"/>
</g>
<defs>
<clipPath id="clip0_201_6082">
<rect width="20.5396" height="21.2022" fill="white" transform="translate(0.976929 0.202209)"/>
</clipPath>
</defs>
</svg>
