<svg width="22" height="22" viewBox="0 0 22 22" fill="none" xmlns="http://www.w3.org/2000/svg">
<g clip-path="url(#clip0_201_6084)">
<path d="M13.1054 12.9774C13.1054 12.1823 11.9128 11.2588 10.1446 11.1553C9.98719 11.1387 9.83811 11.2547 9.80499 11.4121C9.76772 11.5694 9.85054 11.7309 9.99961 11.793L10.6995 12.0912C11.2378 12.3189 11.5608 12.6502 11.5608 12.9815C11.5608 13.3128 11.2378 13.6441 10.7036 13.8718L9.99961 14.17C9.76357 14.2694 9.75115 14.6752 9.99961 14.7829L10.6995 15.081C11.2378 15.3088 11.5608 15.6401 11.5608 15.9714C11.5608 16.3026 11.2378 16.6339 10.7036 16.8617L9.99961 17.1598C9.85054 17.222 9.76772 17.3835 9.80499 17.5408C9.83811 17.6899 9.97477 17.7976 10.128 17.7976H10.1487C11.9211 17.694 13.1095 16.7706 13.1095 15.9755C13.1095 15.4372 12.5546 14.845 11.6519 14.4847C12.5505 14.1079 13.1054 13.5157 13.1054 12.9774ZM16.0248 9.5196L16.4182 9.87158C16.5756 10.0082 16.8034 10.0372 16.9856 9.93784C17.1678 9.83846 17.2713 9.6314 17.2382 9.42435C17.0725 8.38081 15.8219 7.68097 14.7618 7.68097C13.7017 7.68097 12.447 8.38081 12.2855 9.42435C12.2523 9.6314 12.3559 9.83846 12.5381 9.93784C12.7783 10.0662 13.0019 9.96683 13.1054 9.87158L13.4988 9.5196C14.1117 8.97298 15.412 8.97298 16.0248 9.5196ZM6.14844 8.83632C6.14844 9.56929 6.74061 10.1615 7.47357 10.1615C8.20654 10.1615 8.79871 9.56929 8.79871 8.83632C8.79871 8.10335 8.20654 7.51118 7.47357 7.51118C6.74061 7.51118 6.14844 8.10335 6.14844 8.83632ZM21.2674 16.87C20.9361 16.0086 19.963 15.5655 19.0685 15.7974L18.7207 15.8885L18.6254 15.5407C18.3811 14.6545 17.5073 14.0292 16.5963 14.1741C15.5528 14.3398 14.915 15.3585 15.1884 16.3523L16.1367 19.7728C16.1988 19.9923 16.4265 20.1248 16.6501 20.0669L20.0872 19.1765C21.0852 18.9156 21.6484 17.8597 21.2674 16.87ZM14.3477 18.2696C13.2669 18.7873 12.0619 19.0854 10.7864 19.0854C6.21883 19.0854 2.50431 15.3709 2.50431 10.8033C2.50431 6.23574 6.21883 2.52121 10.7864 2.52121C15.354 2.52121 19.0685 6.23574 19.0685 10.8033C19.0685 11.7185 18.9153 12.5964 18.6379 13.4205C19.0105 13.6855 19.3418 14.0085 19.5737 14.4102C19.8388 14.4143 20.0955 14.4682 20.344 14.5303C20.7953 13.3749 21.0521 12.1202 21.0521 10.8033C21.0562 5.13008 16.4597 0.533508 10.7864 0.533508C5.11317 0.533508 0.516602 5.13008 0.516602 10.8033C0.516602 16.4766 5.11317 21.0731 10.7864 21.0731C12.2523 21.0731 13.6396 20.7626 14.9026 20.2077C14.7991 19.9054 15.0807 20.9199 14.3477 18.2696Z" fill="black"/>
</g>
<defs>
<clipPath id="clip0_201_6084">
<rect width="20.8709" height="21.2022" fill="white" transform="translate(0.516602 0.202209)"/>
</clipPath>
</defs>
</svg>
