<svg width="22" height="22" viewBox="0 0 22 22" fill="none" xmlns="http://www.w3.org/2000/svg">
<g clip-path="url(#clip0_201_6074)">
<path d="M11.0882 0.533508C5.41499 0.533508 0.81842 5.13008 0.81842 10.8033C0.81842 16.4766 5.41499 21.0731 11.0882 21.0731C16.7615 21.0731 21.358 16.4766 21.358 10.8033C21.358 5.13008 16.7615 0.533508 11.0882 0.533508ZM16.9437 16.6588C15.3784 18.2241 13.2996 19.0854 11.0882 19.0854C8.87691 19.0854 6.7981 18.2241 5.23278 16.6588C3.66747 15.0935 2.80613 13.0146 2.80613 10.8033C2.80613 8.592 3.66747 6.51319 5.23278 4.94787C6.7981 3.38255 8.87691 2.52121 11.0882 2.52121C13.2996 2.52121 15.3784 3.38255 16.9437 4.94787C18.509 6.51319 19.3703 8.592 19.3703 10.8033C19.3703 13.0146 18.509 15.0935 16.9437 16.6588ZM14.4011 9.47818C15.134 9.47818 15.7262 8.88601 15.7262 8.15305C15.7262 7.42008 15.134 6.82791 14.4011 6.82791C13.6681 6.82791 13.0759 7.42008 13.0759 8.15305C13.0759 8.88601 13.6681 9.47818 14.4011 9.47818ZM7.77539 9.47818C8.50836 9.47818 9.10053 8.88601 9.10053 8.15305C9.10053 7.42008 8.50836 6.82791 7.77539 6.82791C7.04242 6.82791 6.45025 7.42008 6.45025 8.15305C6.45025 8.88601 7.04242 9.47818 7.77539 9.47818ZM15.8256 12.1285H6.35087C6.0113 12.1285 5.75042 12.4183 5.79183 12.7496C6.10241 15.2011 8.23091 17.0977 10.8066 17.0977H11.3698C13.9456 17.0977 16.0741 15.2011 16.3846 12.7496C16.4261 12.4183 16.1652 12.1285 15.8256 12.1285Z" fill="black"/>
</g>
<defs>
<clipPath id="clip0_201_6074">
<rect width="20.5396" height="21.2022" fill="white" transform="translate(0.818481 0.202209)"/>
</clipPath>
</defs>
</svg>
