<svg width="21" height="22" viewBox="0 0 21 22" fill="none" xmlns="http://www.w3.org/2000/svg">
<g clip-path="url(#clip0_201_6076)">
<path d="M10.6278 0.533508C4.95454 0.533508 0.357971 5.13008 0.357971 10.8033C0.357971 16.4766 4.95454 21.0731 10.6278 21.0731C16.301 21.0731 20.8976 16.4766 20.8976 10.8033C20.8976 5.13008 16.301 0.533508 10.6278 0.533508ZM16.4832 16.6588C14.9179 18.2241 12.8391 19.0854 10.6278 19.0854C8.41646 19.0854 6.33765 18.2241 4.77233 16.6588C3.20702 15.0935 2.34568 13.0146 2.34568 10.8033C2.34568 8.592 3.20702 6.51319 4.77233 4.94787C6.33765 3.38255 8.41646 2.52121 10.6278 2.52121C12.8391 2.52121 14.9179 3.38255 16.4832 4.94787C18.0486 6.51319 18.9099 8.592 18.9099 10.8033C18.9099 13.0146 18.0486 15.0935 16.4832 16.6588ZM13.9406 6.99355C12.8764 6.99355 11.6258 7.69339 11.4601 8.73694C11.3897 9.20073 11.9364 9.49061 12.2801 9.18417L12.6735 8.83218C13.2863 8.28556 14.5866 8.28556 15.1995 8.83218L15.5929 9.18417C15.9449 9.49061 16.4874 9.19659 16.4128 8.73694C16.2555 7.69339 15.0049 6.99355 13.9406 6.99355ZM7.31494 9.47818C8.04791 9.47818 8.64008 8.88601 8.64008 8.15305C8.64008 7.42008 8.04791 6.82791 7.31494 6.82791C6.58197 6.82791 5.9898 7.42008 5.9898 8.15305C5.9898 8.88601 6.58197 9.47818 7.31494 9.47818ZM15.3652 12.1285H5.89042C5.55085 12.1285 5.28997 12.4183 5.33138 12.7496C5.64196 15.2011 7.77046 17.0977 10.3462 17.0977H10.9094C13.4851 17.0977 15.6136 15.2011 15.9242 12.7496C15.9656 12.4183 15.7047 12.1285 15.3652 12.1285Z" fill="black"/>
</g>
<defs>
<clipPath id="clip0_201_6076">
<rect width="20.5396" height="21.2022" fill="white" transform="translate(0.358093 0.202209)"/>
</clipPath>
</defs>
</svg>
