<svg width="21" height="22" viewBox="0 0 21 22" fill="none" xmlns="http://www.w3.org/2000/svg">
<g clip-path="url(#clip0_201_6080)">
<path d="M10.707 0.533508C5.03376 0.533508 0.437195 5.13008 0.437195 10.8033C0.437195 16.4766 5.03376 21.0731 10.707 21.0731C16.3803 21.0731 20.9768 16.4766 20.9768 10.8033C20.9768 5.13008 16.3803 0.533508 10.707 0.533508ZM16.5625 16.6588C14.9971 18.2241 12.9183 19.0854 10.707 19.0854C8.49569 19.0854 6.41688 18.2241 4.85156 16.6588C3.28624 15.0935 2.4249 13.0146 2.4249 10.8033C2.4249 8.592 3.28624 6.51319 4.85156 4.94787C6.41688 3.38255 8.49569 2.52121 10.707 2.52121C12.9183 2.52121 14.9971 3.38255 16.5625 4.94787C18.1278 6.51319 18.9891 8.592 18.9891 10.8033C18.9891 13.0146 18.1278 15.0935 16.5625 16.6588ZM14.0199 6.49663C13.0343 6.49663 11.8375 7.70995 11.7009 9.45334C11.6719 9.80947 12.1481 9.94612 12.3179 9.63969L12.7113 8.93571C13.0301 8.36838 13.5064 8.04124 14.0157 8.04124C14.5251 8.04124 15.0013 8.36838 15.3201 8.93571L15.7135 9.63969C15.8833 9.94612 16.3595 9.80533 16.3306 9.45334C16.2022 7.70995 15.0054 6.49663 14.0199 6.49663ZM5.69633 9.63969L6.08973 8.93571C6.40859 8.36838 6.88482 8.04124 7.39417 8.04124C7.90351 8.04124 8.37974 8.36838 8.6986 8.93571L9.092 9.63969C9.26178 9.94612 9.738 9.80533 9.70901 9.45334C9.57236 7.70995 8.3756 6.49663 7.39002 6.49663C6.40445 6.49663 5.20769 7.70995 5.07103 9.45334C5.04619 9.80533 5.52241 9.94612 5.69633 9.63969ZM15.4444 12.1285H5.96964C5.63008 12.1285 5.36919 12.4183 5.4106 12.7496C5.72118 15.2011 7.84968 17.0977 10.4254 17.0977H10.9886C13.5643 17.0977 15.6928 15.2011 16.0034 12.7496C16.0448 12.4183 15.7839 12.1285 15.4444 12.1285Z" fill="black"/>
</g>
<defs>
<clipPath id="clip0_201_6080">
<rect width="20.5396" height="21.2022" fill="white" transform="translate(0.437256 0.202209)"/>
</clipPath>
</defs>
</svg>
