<svg width="22" height="22" viewBox="0 0 22 22" fill="none" xmlns="http://www.w3.org/2000/svg">
<g clip-path="url(#clip0_201_6070)">
<path d="M11.0151 21.0731C16.6869 21.0731 21.2849 16.4752 21.2849 10.8033C21.2849 5.13144 16.6869 0.533508 11.0151 0.533508C5.34318 0.533508 0.745239 5.13144 0.745239 10.8033C0.745239 16.4752 5.34318 21.0731 11.0151 21.0731ZM6.73329 17.8961L8.94506 15.6843C10.2622 16.2436 11.7663 16.2443 13.085 15.6843L15.2968 17.8961C12.679 19.4829 9.35114 19.4829 6.73329 17.8961ZM14.3279 10.8033C14.3279 12.63 12.8418 14.1162 11.0151 14.1162C9.18835 14.1162 7.70221 12.63 7.70221 10.8033C7.70221 8.97662 9.18835 7.49048 11.0151 7.49048C12.8418 7.49048 14.3279 8.97662 14.3279 10.8033ZM18.1079 15.0851L15.8961 12.8733C16.4553 11.5562 16.456 10.0521 15.8961 8.73333L18.1079 6.52156C19.6947 9.13941 19.6947 12.4672 18.1079 15.0851ZM15.2968 3.71053L13.085 5.9223C11.7679 5.36305 10.2638 5.36235 8.94506 5.9223L6.73329 3.71053C9.35114 2.12371 12.679 2.12371 15.2968 3.71053ZM3.92226 6.52156L6.13403 8.73333C5.57474 10.0504 5.57408 11.5546 6.13403 12.8733L3.92226 15.0851C2.33545 12.4672 2.33545 9.13941 3.92226 6.52156Z" fill="black"/>
</g>
<defs>
<clipPath id="clip0_201_6070">
<rect width="21.2022" height="21.2022" fill="white" transform="translate(0.414062 0.202209)"/>
</clipPath>
</defs>
</svg>
