<svg width="16" height="22" viewBox="0 0 16 22" fill="none" xmlns="http://www.w3.org/2000/svg">
<g clip-path="url(#clip0_201_6068)">
<path d="M8.1259 3.51505C5.93363 3.51505 4.15049 5.29819 4.15049 7.49046C4.15049 7.85653 4.44699 8.15303 4.81306 8.15303C5.17913 8.15303 5.47563 7.85653 5.47563 7.49046C5.47563 6.02867 6.66494 4.84019 8.1259 4.84019C8.49197 4.84019 8.78847 4.54369 8.78847 4.17762C8.78847 3.81155 8.49197 3.51505 8.1259 3.51505ZM4.81554 19.2167C4.81554 19.3471 4.85405 19.4743 4.92652 19.5828L5.9415 21.1083C6.06448 21.293 6.27154 21.404 6.49308 21.404H9.7583C9.98027 21.404 10.1873 21.293 10.3099 21.1083L11.3249 19.5828C11.3969 19.4743 11.4354 19.3467 11.4358 19.2167L11.4379 17.4286H4.81389L4.81554 19.2167ZM8.1259 0.202209C3.89043 0.202209 0.837646 3.63804 0.837646 7.49046C0.837646 9.32785 1.51885 11.0041 2.64149 12.285C3.33056 13.0714 4.41138 14.7199 4.81223 16.1014V16.1039H6.79994V16.0989C6.79952 15.9014 6.77012 15.7051 6.7109 15.5162C6.47942 14.7787 5.76591 12.8341 4.13641 10.9747C3.28584 10.0045 2.83115 8.77378 2.82742 7.49046C2.81914 4.44099 5.29839 2.18992 8.1259 2.18992C11.0487 2.18992 13.4265 4.56771 13.4265 7.49046C13.4265 8.77295 12.961 10.0103 12.1158 10.9747C10.4962 12.8221 9.77942 14.7626 9.54421 15.5075C9.48351 15.6991 9.4525 15.8988 9.45228 16.0997V16.1039H11.44V16.1018C11.8408 14.7199 12.9217 13.0714 13.6107 12.2854C14.733 11.0041 15.4142 9.32785 15.4142 7.49046C15.4142 3.46536 12.151 0.202209 8.1259 0.202209Z" fill="black"/>
</g>
<defs>
<clipPath id="clip0_201_6068">
<rect width="14.5765" height="21.2022" fill="white" transform="translate(0.837524 0.202209)"/>
</clipPath>
</defs>
</svg>
