<svg width="25" height="22" viewBox="0 0 25 22" fill="none" xmlns="http://www.w3.org/2000/svg">
<g clip-path="url(#clip0_201_6064)">
<path d="M23.9738 1.52734C23.8926 1.52734 23.809 1.54267 23.727 1.57538L16.6851 4.17762H16.6847L9.56211 1.66317C9.2918 1.57332 9.00882 1.52746 8.72397 1.52734C8.44693 1.52734 8.17031 1.57082 7.90362 1.65737L1.61626 3.84426C1.37036 3.94262 1.15956 4.11239 1.01105 4.33168C0.862543 4.55097 0.78314 4.80973 0.783081 5.07457L0.783081 19.4159C0.783081 19.7964 1.0949 20.0793 1.44524 20.0793C1.5264 20.0793 1.60964 20.0639 1.69204 20.0312L8.7339 17.429L15.8565 19.943C16.3944 20.1225 16.9758 20.1247 17.515 19.9492L23.8024 17.7623C24.0483 17.664 24.2591 17.4943 24.4077 17.275C24.5562 17.0557 24.6355 16.7969 24.6355 16.532V2.19074C24.6355 1.81018 24.3237 1.52734 23.9738 1.52734ZM10.059 3.94655L15.3596 5.81789V17.6601L10.059 15.7887V3.94655ZM2.77079 17.5139V5.54706L8.07134 3.70305V15.5547L8.04483 15.5643L2.77079 17.5139ZM22.6478 16.0591L17.3473 17.9031V6.05186L17.3738 6.04192L22.6478 4.09273V16.0591Z" fill="black"/>
</g>
<defs>
<clipPath id="clip0_201_6064">
<rect width="23.8525" height="21.2022" fill="white" transform="translate(0.782837 0.202209)"/>
</clipPath>
</defs>
</svg>
