<svg width="22" height="22" viewBox="0 0 22 22" fill="none" xmlns="http://www.w3.org/2000/svg">
<g clip-path="url(#clip0_201_6060)">
<path d="M10.9736 0.533508C5.30037 0.533508 0.703796 5.13008 0.703796 10.8033C0.703796 16.4766 5.30037 21.0731 10.9736 21.0731C16.6469 21.0731 21.2434 16.4766 21.2434 10.8033C21.2434 5.13008 16.6469 0.533508 10.9736 0.533508ZM10.9736 19.0854C6.40603 19.0854 2.6915 15.3709 2.6915 10.8033C2.6915 6.23574 6.40603 2.52121 10.9736 2.52121C15.5412 2.52121 19.2557 6.23574 19.2557 10.8033C19.2557 15.3709 15.5412 19.0854 10.9736 19.0854ZM14.6177 6.49663C12.9696 6.49663 11.6362 7.83005 11.6362 9.47818C11.6362 11.1263 12.9696 12.4597 14.6177 12.4597C16.2659 12.4597 17.5993 11.1263 17.5993 9.47818C17.5993 7.83005 16.2659 6.49663 14.6177 6.49663ZM14.6177 11.1346C13.7026 11.1346 12.9613 10.3934 12.9613 9.47818C12.9613 8.915 13.2636 8.43878 13.6943 8.14062C13.6529 8.24829 13.6239 8.3601 13.6239 8.48433C13.6239 9.03509 14.067 9.47818 14.6177 9.47818C15.1685 9.47818 15.6116 9.03509 15.6116 8.48433C15.6116 8.36424 15.5826 8.24829 15.5412 8.14062C15.9719 8.43878 16.2742 8.915 16.2742 9.47818C16.2742 10.3934 15.5329 11.1346 14.6177 11.1346ZM10.311 9.47818C10.311 7.83005 8.97762 6.49663 7.32948 6.49663C5.68134 6.49663 4.34792 7.83005 4.34792 9.47818C4.34792 11.1263 5.68134 12.4597 7.32948 12.4597C8.97762 12.4597 10.311 11.1263 10.311 9.47818ZM5.67306 9.47818C5.67306 8.915 5.97536 8.43878 6.40603 8.14062C6.36462 8.24829 6.33563 8.3601 6.33563 8.48433C6.33563 9.03509 6.77872 9.47818 7.32948 9.47818C7.88024 9.47818 8.32334 9.03509 8.32334 8.48433C8.32334 8.36424 8.29435 8.24829 8.25294 8.14062C8.68361 8.43878 8.9859 8.915 8.9859 9.47818C8.9859 10.3934 8.24466 11.1346 7.32948 11.1346C6.41431 11.1346 5.67306 10.3934 5.67306 9.47818ZM13.6239 14.7787H8.32334C7.77672 14.7787 7.32948 15.226 7.32948 15.7726C7.32948 16.3192 7.77672 16.7664 8.32334 16.7664H13.6239C14.1705 16.7664 14.6177 16.3192 14.6177 15.7726C14.6177 15.226 14.1705 14.7787 13.6239 14.7787Z" fill="black"/>
</g>
<defs>
<clipPath id="clip0_201_6060">
<rect width="20.5396" height="21.2022" fill="white" transform="translate(0.703613 0.202209)"/>
</clipPath>
</defs>
</svg>
