<svg width="21" height="22" viewBox="0 0 21 22" fill="none" xmlns="http://www.w3.org/2000/svg">
<g clip-path="url(#clip0_201_6058)">
<path d="M10.4338 0.533508C4.76054 0.533508 0.163971 5.13008 0.163971 10.8033C0.163971 16.4766 4.76054 21.0731 10.4338 21.0731C16.107 21.0731 20.7036 16.4766 20.7036 10.8033C20.7036 5.13008 16.107 0.533508 10.4338 0.533508ZM10.4338 19.0854C5.8662 19.0854 2.15168 15.3709 2.15168 10.8033C2.15168 6.23574 5.8662 2.52121 10.4338 2.52121C15.0014 2.52121 18.7159 6.23574 18.7159 10.8033C18.7159 15.3709 15.0014 19.0854 10.4338 19.0854ZM7.12094 10.1408C7.85391 10.1408 8.44608 9.54858 8.44608 8.81562C8.44608 8.08265 7.85391 7.49048 7.12094 7.49048C6.38797 7.49048 5.7958 8.08265 5.7958 8.81562C5.7958 9.54858 6.38797 10.1408 7.12094 10.1408ZM13.7466 7.49048C13.0137 7.49048 12.4215 8.08265 12.4215 8.81562C12.4215 9.54858 13.0137 10.1408 13.7466 10.1408C14.4796 10.1408 15.0718 9.54858 15.0718 8.81562C15.0718 8.08265 14.4796 7.49048 13.7466 7.49048ZM14.0779 13.4536H6.78966C6.24304 13.4536 5.7958 13.9008 5.7958 14.4474C5.7958 14.9941 6.24304 15.4413 6.78966 15.4413H14.0779C14.6245 15.4413 15.0718 14.9941 15.0718 14.4474C15.0718 13.9008 14.6245 13.4536 14.0779 13.4536Z" fill="black"/>
</g>
<defs>
<clipPath id="clip0_201_6058">
<rect width="20.5396" height="21.2022" fill="white" transform="translate(0.163971 0.202209)"/>
</clipPath>
</defs>
</svg>
