<svg width="20" height="22" viewBox="0 0 20 22" fill="none" xmlns="http://www.w3.org/2000/svg">
<g clip-path="url(#clip0_201_6056)">
<path d="M5.0844 11.9628C4.81109 11.9628 4.58747 11.7392 4.58747 11.4659V10.1407C4.58747 9.86743 4.81109 9.64381 5.0844 9.64381H14.6916C14.965 9.64381 15.1886 9.86743 15.1886 10.1407V11.4659C15.1886 11.7392 14.965 11.9628 14.6916 11.9628H5.0844ZM19.164 3.51505V18.0916C19.164 19.1889 18.2737 20.0793 17.1763 20.0793H2.59977C1.50239 20.0793 0.612061 19.1889 0.612061 18.0916V3.51505C0.612061 2.41767 1.50239 1.52734 2.59977 1.52734H17.1763C18.2737 1.52734 19.164 2.41767 19.164 3.51505ZM17.1763 17.8431V3.76351C17.1763 3.62686 17.0645 3.51505 16.9278 3.51505H2.84823C2.71157 3.51505 2.59977 3.62686 2.59977 3.76351V17.8431C2.59977 17.9797 2.71157 18.0916 2.84823 18.0916H16.9278C17.0645 18.0916 17.1763 17.9797 17.1763 17.8431Z" fill="black"/>
</g>
<defs>
<clipPath id="clip0_201_6056">
<rect width="18.5519" height="21.2022" fill="white" transform="translate(0.612061 0.202209)"/>
</clipPath>
</defs>
</svg>
