<svg width="27" height="22" viewBox="0 0 27 22" fill="none" xmlns="http://www.w3.org/2000/svg">
<g clip-path="url(#clip0_201_6054)">
<path d="M13.3607 6.16532C11.1652 6.16532 9.38533 8.24165 9.38533 10.8033C9.38533 13.3645 11.1652 15.4413 13.3607 15.4413C15.5555 15.4413 17.3362 13.3654 17.3362 10.8033C17.3362 8.24165 15.5563 6.16532 13.3607 6.16532ZM15.0172 13.1223C15.0172 13.3053 14.8689 13.4536 14.6859 13.4536H12.0356C11.8526 13.4536 11.7043 13.3053 11.7043 13.1223V12.4597C11.7043 12.2767 11.8526 12.1284 12.0356 12.1284H12.6982V9.83264L12.6787 9.84548C12.6425 9.86962 12.6019 9.8864 12.5593 9.89485C12.5166 9.9033 12.4727 9.90325 12.43 9.89471C12.3874 9.88617 12.3468 9.86931 12.3107 9.84509C12.2746 9.82087 12.2436 9.78976 12.2195 9.75354L11.8517 9.20237C11.8276 9.16619 11.8108 9.1256 11.8024 9.08293C11.7939 9.04026 11.794 8.99634 11.8025 8.95369C11.811 8.91104 11.8279 8.87049 11.8521 8.83436C11.8764 8.79823 11.9075 8.76722 11.9437 8.74313L12.5785 8.31991C12.7417 8.21108 12.9335 8.15302 13.1297 8.15303H13.692C13.8751 8.15303 14.0233 8.30128 14.0233 8.48431V12.1284H14.6859C14.8689 12.1284 15.0172 12.2767 15.0172 12.4597V13.1223ZM25.287 2.85248H1.43451C0.702788 2.85248 0.109375 3.44589 0.109375 4.17762V17.429C0.109375 18.1607 0.702788 18.7541 1.43451 18.7541H25.287C26.0187 18.7541 26.6121 18.1607 26.6121 17.429V4.17762C26.6121 3.44589 26.0187 2.85248 25.287 2.85248ZM24.6244 14.1161C23.1605 14.1161 21.9741 15.3026 21.9741 16.7664H4.74735C4.74735 15.3026 3.56094 14.1161 2.09708 14.1161V7.49046C3.56094 7.49046 4.74735 6.30405 4.74735 4.84018H21.9741C21.9741 6.30405 23.1605 7.49046 24.6244 7.49046V14.1161Z" fill="black"/>
</g>
<defs>
<clipPath id="clip0_201_6054">
<rect width="26.5027" height="21.2022" fill="white" transform="translate(0.109314 0.202209)"/>
</clipPath>
</defs>
</svg>
