<svg width="23" height="22" viewBox="0 0 23 22" fill="none" xmlns="http://www.w3.org/2000/svg">
<g clip-path="url(#clip0_201_6052)">
<path d="M12.4662 21.4044C15.7276 21.4044 18.7185 19.9217 20.7005 17.4797C21.8712 16.0374 20.5945 13.9299 18.7853 14.2745C15.3752 14.9239 12.2312 12.3171 12.2312 8.85834C12.2312 6.85307 13.3103 5.03648 15.0236 4.06151C16.6281 3.1484 16.2245 0.716031 14.4016 0.379322C13.7632 0.261598 13.1154 0.202315 12.4662 0.202209C6.61245 0.202209 1.86514 4.94682 1.86514 10.8033C1.86514 16.6571 6.6098 21.4044 12.4662 21.4044ZM12.4662 2.18992C13.004 2.18992 13.53 2.23965 14.0405 2.33394C11.7729 3.62442 10.2434 6.06263 10.2434 8.85834C10.2434 13.5728 14.5353 17.1073 19.1571 16.2271C17.5779 18.1729 15.1675 19.4167 12.4662 19.4167C7.7092 19.4167 3.85285 15.5603 3.85285 10.8033C3.85285 6.04627 7.7092 2.18992 12.4662 2.18992Z" fill="black"/>
</g>
<defs>
<clipPath id="clip0_201_6052">
<rect width="21.2022" height="21.2022" fill="white" transform="translate(0.907135 0.202209)"/>
</clipPath>
</defs>
</svg>
