<svg width="24" height="22" viewBox="0 0 24 22" fill="none" xmlns="http://www.w3.org/2000/svg">
<g clip-path="url(#clip0_201_6046)">
<path d="M23.3554 9.47817C23.6299 9.47817 23.8524 9.25567 23.8524 8.98124V5.99968C23.8524 5.72525 23.6299 5.50276 23.3554 5.50276H20.3739C20.0995 5.50276 19.877 5.72525 19.877 5.99968V6.49661H16.2328V5.50276H16.7298C17.0042 5.50276 17.2267 5.28026 17.2267 5.00583V2.02427C17.2267 1.74984 17.0042 1.52734 16.7298 1.52734H13.7482C13.4738 1.52734 13.2513 1.74984 13.2513 2.02427V2.5212H3.97531V2.02427C3.97531 1.74984 3.75281 1.52734 3.47839 1.52734H0.496827C0.2224 1.52734 -9.91821e-05 1.74984 -9.91821e-05 2.02427V5.00583C-9.91821e-05 5.28026 0.2224 5.50276 0.496827 5.50276H0.993754V12.1284H0.496827C0.2224 12.1284 -9.91821e-05 12.3509 -9.91821e-05 12.6254V15.6069C-9.91821e-05 15.8814 0.2224 16.1039 0.496827 16.1039H3.47839C3.75281 16.1039 3.97531 15.8814 3.97531 15.6069V15.11H7.61944V16.1039H7.12251C6.84809 16.1039 6.62559 16.3264 6.62559 16.6008V19.5823C6.62559 19.8568 6.84809 20.0793 7.12251 20.0793H10.1041C10.3785 20.0793 10.601 19.8568 10.601 19.5823V19.0854H19.877V19.5823C19.877 19.8568 20.0995 20.0793 20.3739 20.0793H23.3554C23.6299 20.0793 23.8524 19.8568 23.8524 19.5823V16.6008C23.8524 16.3264 23.6299 16.1039 23.3554 16.1039H22.8585V9.47817H23.3554ZM14.5764 2.85248H15.9015V4.17762H14.5764V2.85248ZM14.5764 13.4536H15.9015V14.7787H14.5764V13.4536ZM2.65018 14.7787H1.32504V13.4536H2.65018V14.7787ZM2.65018 4.17762H1.32504V2.85248H2.65018V4.17762ZM3.97531 13.1223V12.6254C3.97531 12.3509 3.75281 12.1284 3.47839 12.1284H2.98146V5.50276H3.47839C3.75281 5.50276 3.97531 5.28026 3.97531 5.00583V4.5089H13.2513V5.00583C13.2513 5.28026 13.4738 5.50276 13.7482 5.50276H14.2451V12.1284H13.7482C13.4738 12.1284 13.2513 12.3509 13.2513 12.6254V13.1223H3.97531ZM9.27586 18.7541H7.95072V17.429H9.27586V18.7541ZM20.8708 16.1039H20.3739C20.0995 16.1039 19.877 16.3264 19.877 16.6008V17.0977H10.601V16.6008C10.601 16.3264 10.3785 16.1039 10.1041 16.1039H9.60715V15.11H13.2513V15.6069C13.2513 15.8814 13.4738 16.1039 13.7482 16.1039H16.7298C17.0042 16.1039 17.2267 15.8814 17.2267 15.6069V12.6254C17.2267 12.3509 17.0042 12.1284 16.7298 12.1284H16.2328V8.48431H19.877V8.98124C19.877 9.25567 20.0995 9.47817 20.3739 9.47817H20.8708V16.1039ZM22.5272 18.7541H21.2021V17.429H22.5272V18.7541ZM22.5272 8.15303H21.2021V6.82789H22.5272V8.15303Z" fill="black"/>
</g>
<defs>
<clipPath id="clip0_201_6046">
<rect width="23.8525" height="21.2022" fill="white" transform="translate(0 0.202209)"/>
</clipPath>
</defs>
</svg>
