<svg width="22" height="22" viewBox="0 0 22 22" fill="none" xmlns="http://www.w3.org/2000/svg">
<g clip-path="url(#clip0_201_6044)">
<path d="M18.5872 0.269181L1.36046 10.2036C-0.0640619 11.0276 0.072593 13.1354 1.5965 13.7607L6.32973 15.7195V19.2145C6.32973 21.136 8.78123 21.9269 9.91588 20.3988L11.7297 17.9515L16.3635 19.8646C16.6078 19.964 16.8646 20.0137 17.1213 20.0137C17.4609 20.0137 17.7963 19.9268 18.0986 19.757C18.6287 19.4588 18.9931 18.9288 19.0883 18.3283L21.5481 2.29416C21.8007 0.633594 20.02 -0.554889 18.5872 0.269181ZM8.31743 19.2145V16.5394L9.83306 17.1647L8.31743 19.2145ZM17.1213 18.026L10.7524 15.3964L16.5581 7.0191C17.0012 6.37724 16.1647 5.63185 15.5767 6.1412L6.81837 13.7732L2.35431 11.9262L19.5811 1.98772L17.1213 18.026Z" fill="black"/>
</g>
<defs>
<clipPath id="clip0_201_6044">
<rect width="21.2022" height="21.2022" fill="white" transform="translate(0.366333)"/>
</clipPath>
</defs>
</svg>
