<svg width="22" height="22" viewBox="0 0 22 22" fill="none" xmlns="http://www.w3.org/2000/svg">
<g clip-path="url(#clip0_201_6042)">
<path d="M10.7651 0.331299C5.09181 0.331299 0.495239 4.92787 0.495239 10.6011C0.495239 16.2744 5.09181 20.8709 10.7651 20.8709C16.4383 20.8709 21.0349 16.2744 21.0349 10.6011C21.0349 4.92787 16.4383 0.331299 10.7651 0.331299ZM10.7651 18.8832C6.18919 18.8832 2.48295 15.177 2.48295 10.6011C2.48295 6.02525 6.18919 2.319 10.7651 2.319C15.3409 2.319 19.0472 6.02525 19.0472 10.6011C19.0472 15.177 15.3409 18.8832 10.7651 18.8832ZM14.7405 7.28827V13.914C14.7405 14.2784 14.4423 14.5765 14.0779 14.5765H12.0902C11.7258 14.5765 11.4276 14.2784 11.4276 13.914V7.28827C11.4276 6.92386 11.7258 6.6257 12.0902 6.6257H14.0779C14.4423 6.6257 14.7405 6.92386 14.7405 7.28827ZM10.1025 7.28827V13.914C10.1025 14.2784 9.80433 14.5765 9.43992 14.5765H7.45221C7.0878 14.5765 6.78964 14.2784 6.78964 13.914V7.28827C6.78964 6.92386 7.0878 6.6257 7.45221 6.6257H9.43992C9.80433 6.6257 10.1025 6.92386 10.1025 7.28827Z" fill="black"/>
</g>
<defs>
<clipPath id="clip0_201_6042">
<rect width="21.2022" height="21.2022" fill="white" transform="translate(0.164185)"/>
</clipPath>
</defs>
</svg>
