<svg width="23" height="22" viewBox="0 0 23 22" fill="none" xmlns="http://www.w3.org/2000/svg">
<path d="M16.355 9.85572L9.0667 5.4248C8.41242 5.06038 7.58835 5.52832 7.58835 6.29442V14.9078C7.58835 15.6698 8.40828 16.1418 9.0667 15.7774L16.355 11.595C17.0341 11.2181 17.0341 10.2367 16.355 9.85572ZM21.8336 10.6011C21.8336 4.92787 17.237 0.331299 11.5638 0.331299C5.89052 0.331299 1.29395 4.92787 1.29395 10.6011C1.29395 16.2744 5.89052 20.8709 11.5638 20.8709C17.237 20.8709 21.8336 16.2744 21.8336 10.6011ZM3.28165 10.6011C3.28165 6.02525 6.98789 2.319 11.5638 2.319C16.1396 2.319 19.8459 6.02525 19.8459 10.6011C19.8459 15.177 16.1396 18.8832 11.5638 18.8832C6.98789 18.8832 3.28165 15.177 3.28165 10.6011Z" fill="black"/>
</svg>
