<svg width="19" height="22" viewBox="0 0 19 22" fill="none" xmlns="http://www.w3.org/2000/svg">
<g clip-path="url(#clip0_201_6038)">
<path d="M14.9867 9.93853V11.2637C14.9867 11.537 14.763 11.7606 14.4897 11.7606H10.8456V15.4047C10.8456 15.678 10.622 15.9016 10.3487 15.9016H9.02355C8.75024 15.9016 8.52662 15.678 8.52662 15.4047V11.7606H4.88249C4.60918 11.7606 4.38557 11.537 4.38557 11.2637V9.93853C4.38557 9.66522 4.60918 9.4416 4.88249 9.4416H8.52662V5.79747C8.52662 5.52416 8.75024 5.30055 9.02355 5.30055H10.3487C10.622 5.30055 10.8456 5.52416 10.8456 5.79747V9.4416H14.4897C14.763 9.4416 14.9867 9.66522 14.9867 9.93853ZM18.9621 3.31284V17.8893C18.9621 18.9867 18.0717 19.8771 16.9744 19.8771H2.39786C1.30048 19.8771 0.410156 18.9867 0.410156 17.8893V3.31284C0.410156 2.21546 1.30048 1.32513 2.39786 1.32513H16.9744C18.0717 1.32513 18.9621 2.21546 18.9621 3.31284ZM16.9744 17.6409V3.5613C16.9744 3.42465 16.8626 3.31284 16.7259 3.31284H2.64633C2.50967 3.31284 2.39786 3.42465 2.39786 3.5613V17.6409C2.39786 17.7775 2.50967 17.8893 2.64633 17.8893H16.7259C16.8626 17.8893 16.9744 17.7775 16.9744 17.6409Z" fill="black"/>
</g>
<defs>
<clipPath id="clip0_201_6038">
<rect width="18.5519" height="21.2022" fill="white" transform="translate(0.410156)"/>
</clipPath>
</defs>
</svg>
