<svg width="22" height="22" viewBox="0 0 22 22" fill="none" xmlns="http://www.w3.org/2000/svg">
<g clip-path="url(#clip0_201_6036)">
<path d="M10.809 0.331299C5.13754 0.331299 0.539185 4.93131 0.539185 10.6011C0.539185 16.2742 5.13754 20.8709 10.809 20.8709C16.4805 20.8709 21.0788 16.2742 21.0788 10.6011C21.0788 4.93131 16.4805 0.331299 10.809 0.331299ZM10.809 18.8832C6.23181 18.8832 2.52689 15.1798 2.52689 10.6011C2.52689 6.02545 6.23197 2.319 10.809 2.319C15.3845 2.319 19.0911 6.02405 19.0911 10.6011C19.0911 15.1782 15.3877 18.8832 10.809 18.8832ZM15.25 8.31525C15.25 11.0919 12.251 11.1346 12.251 12.1608V12.4232C12.251 12.6976 12.0285 12.9201 11.7541 12.9201H9.86384C9.58942 12.9201 9.36692 12.6976 9.36692 12.4232V12.0646C9.36692 10.5844 10.4891 9.99267 11.3372 9.51719C12.0644 9.1095 12.5101 8.83222 12.5101 8.29231C12.5101 7.57814 11.5991 7.10412 10.8626 7.10412C9.90236 7.10412 9.45906 7.55868 8.83591 8.34515C8.66791 8.55717 8.36135 8.59655 8.14576 8.43311L6.99356 7.55943C6.78207 7.39908 6.7347 7.10118 6.88407 6.88182C7.86247 5.44513 9.10868 4.63799 11.0489 4.63799C13.081 4.63799 15.25 6.22418 15.25 8.31525ZM12.5482 15.2391C12.5482 16.1981 11.768 16.9783 10.809 16.9783C9.84997 16.9783 9.06976 16.1981 9.06976 15.2391C9.06976 14.2801 9.84997 13.4999 10.809 13.4999C11.768 13.4999 12.5482 14.2801 12.5482 15.2391Z" fill="black"/>
</g>
<defs>
<clipPath id="clip0_201_6036">
<rect width="21.2022" height="21.2022" fill="white" transform="translate(0.208008)"/>
</clipPath>
</defs>
</svg>
