<svg width="22" height="22" viewBox="0 0 22 22" fill="none" xmlns="http://www.w3.org/2000/svg">
<g clip-path="url(#clip0_201_6034)">
<path d="M10.6077 0.331299C4.93583 0.331299 0.337891 4.92924 0.337891 10.6011C0.337891 16.273 4.93583 20.8709 10.6077 20.8709C16.2796 20.8709 20.8775 16.273 20.8775 10.6011C20.8775 4.92924 16.2796 0.331299 10.6077 0.331299ZM10.6077 18.8832C6.03051 18.8832 2.3256 15.179 2.3256 10.6011C2.3256 6.02396 6.02981 2.319 10.6077 2.319C15.1849 2.319 18.8898 6.02322 18.8898 10.6011C18.8898 15.1783 15.1856 18.8832 10.6077 18.8832ZM15.1812 15.4962C12.9845 11.509 13.1003 11.7085 12.9752 11.5173C13.9801 10.9425 14.6102 9.79613 14.6102 8.48702C14.6102 6.31284 13.3576 4.95669 10.4071 4.95669H7.14943C6.87541 4.95669 6.6525 5.1796 6.6525 5.45362V15.736C6.6525 16.01 6.87541 16.2329 7.14943 16.2329H8.74655C9.02056 16.2329 9.24348 16.01 9.24348 15.736V12.2715H10.5669L12.5345 15.9696C12.5768 16.0492 12.64 16.1158 12.7173 16.1622C12.7945 16.2086 12.883 16.233 12.9732 16.2329H14.7459C15.1244 16.2329 15.3635 15.8272 15.1812 15.4962ZM10.6463 9.93465H9.24356V7.27858H10.3773C11.7197 7.27858 11.9893 7.78101 11.9893 8.59167C11.9893 9.45769 11.5124 9.93465 10.6463 9.93465Z" fill="black"/>
</g>
<defs>
<clipPath id="clip0_201_6034">
<rect width="21.2022" height="21.2022" fill="white" transform="translate(0.00585938)"/>
</clipPath>
</defs>
</svg>
