<svg width="22" height="22" viewBox="0 0 22 22" fill="none" xmlns="http://www.w3.org/2000/svg">
<g clip-path="url(#clip0_201_6030)">
<path d="M11.1963 0.331299C5.52308 0.331299 0.926514 4.92787 0.926514 10.6011C0.926514 16.2744 5.52308 20.8709 11.1963 20.8709C16.8696 20.8709 21.4661 16.2744 21.4661 10.6011C21.4661 4.92787 16.8696 0.331299 11.1963 0.331299ZM11.1963 18.8832C6.62874 18.8832 2.91422 15.1687 2.91422 10.6011C2.91422 6.03353 6.62874 2.319 11.1963 2.319C15.7639 2.319 19.4784 6.03353 19.4784 10.6011C19.4784 15.1687 15.7639 18.8832 11.1963 18.8832ZM11.5276 12.5888C10.981 12.5888 10.5338 13.0361 10.5338 13.5827C10.5338 14.1293 10.981 14.5765 11.5276 14.5765C12.5132 14.5765 13.4449 15.0113 14.0785 15.7691C14.4139 16.175 15.0392 16.2619 15.4782 15.8975C15.9006 15.5455 15.9585 14.9202 15.6066 14.4978C14.592 13.2845 13.1054 12.5888 11.5276 12.5888ZM7.88348 9.93854C8.61645 9.93854 9.20862 9.34637 9.20862 8.61341C9.20862 7.88044 8.61645 7.28827 7.88348 7.28827C7.15052 7.28827 6.55835 7.88044 6.55835 8.61341C6.55835 9.34637 7.15052 9.93854 7.88348 9.93854ZM14.5092 7.28827C13.7762 7.28827 13.184 7.88044 13.184 8.61341C13.184 9.34637 13.7762 9.93854 14.5092 9.93854C15.2421 9.93854 15.8343 9.34637 15.8343 8.61341C15.8343 7.88044 15.2421 7.28827 14.5092 7.28827ZM7.65159 11.3796C7.1795 12.0132 6.14424 13.475 6.14424 14.1997C6.14424 15.1397 6.92276 15.9017 7.88348 15.9017C8.84421 15.9017 9.62273 15.1397 9.62273 14.1997C9.62273 13.475 8.58746 12.0132 8.11538 11.3796C7.99943 11.2264 7.76753 11.2264 7.65159 11.3796Z" fill="black"/>
</g>
<defs>
<clipPath id="clip0_201_6030">
<rect width="20.5396" height="21.2022" fill="white" transform="translate(0.926514)"/>
</clipPath>
</defs>
</svg>
