<svg width="19" height="22" viewBox="0 0 19 22" fill="none" xmlns="http://www.w3.org/2000/svg">
<g clip-path="url(#clip0_201_6028)">
<path d="M18.3444 5.38092L14.8708 1.90732C14.498 1.53456 13.9924 1.32514 13.4653 1.32513H2.36234C1.26455 1.32513 0.374634 2.21505 0.374634 3.31284V17.8893C0.374634 18.9871 1.26455 19.8771 2.36234 19.8771H16.9388C18.0366 19.8771 18.9266 18.9871 18.9266 17.8893V6.78644C18.9266 6.25927 18.7171 5.75369 18.3444 5.38092ZM11.6383 3.31284V6.62568H6.33775V3.31284H11.6383ZM16.6904 17.8893H2.6108C2.54491 17.8893 2.48171 17.8632 2.43511 17.8166C2.38852 17.77 2.36234 17.7068 2.36234 17.6409V3.5613C2.36234 3.49541 2.38852 3.43221 2.43511 3.38561C2.48171 3.33902 2.54491 3.31284 2.6108 3.31284H4.35005V7.61954C4.35005 8.16843 4.795 8.61339 5.3439 8.61339H12.6322C13.181 8.61339 13.626 8.16843 13.626 7.61954V3.4736L16.8661 6.71368C16.8892 6.73676 16.9075 6.76415 16.9199 6.7943C16.9324 6.82444 16.9389 6.85675 16.9388 6.88938V17.6409C16.9388 17.7068 16.9127 17.77 16.8661 17.8166C16.8195 17.8632 16.7563 17.8893 16.6904 17.8893ZM9.65059 9.60724C7.64123 9.60724 6.00647 11.242 6.00647 13.2514C6.00647 15.2607 7.64123 16.8955 9.65059 16.8955C11.66 16.8955 13.2947 15.2607 13.2947 13.2514C13.2947 11.242 11.66 9.60724 9.65059 9.60724ZM9.65059 14.9078C8.73724 14.9078 7.99417 14.1647 7.99417 13.2514C7.99417 12.338 8.73724 11.5949 9.65059 11.5949C10.5639 11.5949 11.307 12.338 11.307 13.2514C11.307 14.1647 10.5639 14.9078 9.65059 14.9078Z" fill="black"/>
</g>
<defs>
<clipPath id="clip0_201_6028">
<rect width="18.5519" height="21.2022" fill="white" transform="translate(0.374634)"/>
</clipPath>
</defs>
</svg>
