<svg width="25" height="22" viewBox="0 0 25 22" fill="none" xmlns="http://www.w3.org/2000/svg">
<g clip-path="url(#clip0_201_6026)">
<path d="M23.7925 6.54536L17.8295 0.583566C16.5866 -0.659329 14.4363 0.211079 14.4363 1.98904V4.35764C12.6784 4.43549 10.9566 4.62888 9.43554 5.10262C7.97913 5.55606 6.82378 6.24472 6.00219 7.14912C5.00379 8.24899 4.49775 9.6321 4.49775 11.2612C4.49775 13.8161 5.87167 15.918 8.01226 17.2558C9.56706 18.2293 11.5424 16.7319 10.9532 14.9476C10.3108 12.9963 10.2428 12.0106 14.4363 11.6861V13.9139C14.4363 15.6943 16.5883 16.5606 17.8295 15.3194L23.7925 9.35631C24.5689 8.58027 24.5689 7.32139 23.7925 6.54536ZM16.424 13.9139V9.61388C11.0948 9.69347 7.41686 10.5742 9.06575 15.5704C7.84331 14.8063 6.48546 13.4203 6.48546 11.2612C6.48546 6.73361 11.8332 6.33553 16.424 6.29814V1.98771L22.3871 7.95083L16.424 13.9139ZM17.4485 17.4128C17.7545 17.3254 18.0468 17.1958 18.317 17.0276C18.6473 16.8225 19.0743 17.0618 19.0743 17.4506V19.2145C19.0743 20.3123 18.1843 21.2022 17.0866 21.2022H2.51004C1.41225 21.2022 0.522339 20.3123 0.522339 19.2145V4.63799C0.522339 3.5402 1.41225 2.65028 2.51004 2.65028H7.97624C8.25066 2.65028 8.47316 2.87278 8.47316 3.14721V3.33298C8.47316 3.53659 8.34947 3.72095 8.15973 3.79479C7.59232 4.01555 7.06665 4.27254 6.58405 4.5644C6.50571 4.61221 6.41577 4.63766 6.324 4.63799H2.75851C2.69261 4.63799 2.62941 4.66417 2.58282 4.71076C2.53622 4.75736 2.51004 4.82056 2.51004 4.88645V18.966C2.51004 19.0319 2.53622 19.0951 2.58282 19.1417C2.62941 19.1883 2.69261 19.2145 2.75851 19.2145H16.8381C16.904 19.2145 16.9672 19.1883 17.0138 19.1417C17.0604 19.0951 17.0866 19.0319 17.0866 18.966V17.8908C17.0866 17.6684 17.2348 17.4742 17.4485 17.4128Z" fill="black"/>
</g>
<defs>
<clipPath id="clip0_201_6026">
<rect width="23.8525" height="21.2022" fill="white" transform="translate(0.522217)"/>
</clipPath>
</defs>
</svg>
