<svg width="21" height="22" viewBox="0 0 21 22" fill="none" xmlns="http://www.w3.org/2000/svg">
<g clip-path="url(#clip0_201_6022)">
<path d="M10.7127 0.331299C5.03944 0.331299 0.442871 4.92787 0.442871 10.6011C0.442871 16.2744 5.03944 20.8709 10.7127 20.8709C16.3859 20.8709 20.9825 16.2744 20.9825 10.6011C20.9825 4.92787 16.3859 0.331299 10.7127 0.331299ZM10.7127 18.8832C6.1451 18.8832 2.43058 15.1687 2.43058 10.6011C2.43058 6.03353 6.1451 2.319 10.7127 2.319C15.2803 2.319 18.9948 6.03353 18.9948 10.6011C18.9948 15.1687 15.2803 18.8832 10.7127 18.8832ZM15.5908 12.8207C15.1685 12.4687 14.5432 12.5267 14.1912 12.9491C13.3298 13.9844 12.0585 14.5807 10.7127 14.5807C9.36684 14.5807 8.09554 13.9885 7.2342 12.9491C6.88221 12.5267 6.25277 12.4729 5.83452 12.8207C5.41214 13.1727 5.3583 13.798 5.70615 14.2204C6.94847 15.7112 8.77467 16.5642 10.7127 16.5642C12.6507 16.5642 14.4769 15.7112 15.7192 14.2204C16.0712 13.798 16.0132 13.1727 15.5908 12.8207ZM7.39984 9.93854C8.13281 9.93854 8.72498 9.34637 8.72498 8.61341C8.72498 7.88044 8.13281 7.28827 7.39984 7.28827C6.66687 7.28827 6.0747 7.88044 6.0747 8.61341C6.0747 9.34637 6.66687 9.93854 7.39984 9.93854ZM14.0255 7.45391C12.9613 7.45391 11.7107 8.15375 11.545 9.1973C11.4746 9.66109 12.0213 9.95097 12.365 9.64453L12.7584 9.29254C13.3712 8.74592 14.6715 8.74592 15.2844 9.29254L15.6778 9.64453C16.0298 9.95097 16.5723 9.65695 16.4977 9.1973C16.3404 8.15375 15.0898 7.45391 14.0255 7.45391Z" fill="black"/>
</g>
<defs>
<clipPath id="clip0_201_6022">
<rect width="20.5396" height="21.2022" fill="white" transform="translate(0.442871)"/>
</clipPath>
</defs>
</svg>
