<svg width="21" height="22" viewBox="0 0 21 22" fill="none" xmlns="http://www.w3.org/2000/svg">
<g clip-path="url(#clip0_201_6018)">
<path d="M10.621 0.331299C4.94777 0.331299 0.351196 4.92787 0.351196 10.6011C0.351196 16.2744 4.94777 20.8709 10.621 20.8709C16.2943 20.8709 20.8908 16.2744 20.8908 10.6011C20.8908 4.92787 16.2943 0.331299 10.621 0.331299ZM10.621 18.8832C6.05343 18.8832 2.3389 15.1687 2.3389 10.6011C2.3389 6.03353 6.05343 2.319 10.621 2.319C15.1886 2.319 18.9031 6.03353 18.9031 10.6011C18.9031 15.1687 15.1886 18.8832 10.621 18.8832ZM7.30817 9.93854C8.04113 9.93854 8.6333 9.34637 8.6333 8.61341C8.6333 7.88044 8.04113 7.28827 7.30817 7.28827C6.5752 7.28827 5.98303 7.88044 5.98303 8.61341C5.98303 9.34637 6.5752 9.93854 7.30817 9.93854ZM13.9339 9.93854C14.6668 9.93854 15.259 9.34637 15.259 8.61341C15.259 7.88044 14.6668 7.28827 13.9339 7.28827C13.2009 7.28827 12.6087 7.88044 12.6087 8.61341C12.6087 9.34637 13.2009 9.93854 13.9339 9.93854ZM14.0995 12.9449C13.2382 13.9802 11.9669 14.5765 10.621 14.5765C9.27517 14.5765 8.00386 13.9844 7.14252 12.9449C6.79053 12.5226 6.16109 12.4687 5.74285 12.8166C5.32046 13.1686 5.26663 13.7939 5.61448 14.2163C6.85679 15.707 8.683 16.5601 10.621 16.5601C12.559 16.5601 14.3852 15.707 15.6275 14.2163C15.9795 13.7939 15.9216 13.1686 15.4992 12.8166C15.0809 12.4687 14.4515 12.5226 14.0995 12.9449Z" fill="black"/>
</g>
<defs>
<clipPath id="clip0_201_6018">
<rect width="20.5396" height="21.2022" fill="white" transform="translate(0.351318)"/>
</clipPath>
</defs>
</svg>
