<svg width="22" height="22" viewBox="0 0 22 22" fill="none" xmlns="http://www.w3.org/2000/svg">
<g clip-path="url(#clip0_201_6024)">
<path d="M11.2522 0.331299C5.57899 0.331299 0.982422 4.92787 0.982422 10.6011C0.982422 16.2744 5.57899 20.8709 11.2522 20.8709C16.9255 20.8709 21.522 16.2744 21.522 10.6011C21.522 4.92787 16.9255 0.331299 11.2522 0.331299ZM11.2522 18.8832C6.68465 18.8832 2.97013 15.1687 2.97013 10.6011C2.97013 6.03353 6.68465 2.319 11.2522 2.319C15.8198 2.319 19.5343 6.03353 19.5343 10.6011C19.5343 15.1687 15.8198 18.8832 11.2522 18.8832ZM14.7307 12.9449C13.8694 13.9802 12.5981 14.5765 11.2522 14.5765C9.90639 14.5765 8.63509 13.9844 7.77375 12.9449C7.42176 12.5226 6.79646 12.4687 6.37407 12.8166C5.95169 13.1686 5.89785 13.7939 6.2457 14.2163C7.48802 15.707 9.31422 16.5601 11.2522 16.5601C13.1902 16.5601 15.0165 15.707 16.2588 14.2163C16.6108 13.7939 16.5528 13.1686 16.1304 12.8166C15.708 12.4687 15.0827 12.5226 14.7307 12.9449ZM6.63496 8.73764C6.95382 8.17031 7.43004 7.84317 7.93939 7.84317C8.44874 7.84317 8.92496 8.17031 9.24382 8.73764L9.63722 9.44162C9.72419 9.59484 9.89397 9.63625 10.0223 9.59484C10.1714 9.54928 10.2708 9.40849 10.2584 9.25113C10.1217 7.50775 8.92496 6.29442 7.93939 6.29442C6.95382 6.29442 5.75706 7.50775 5.6204 9.25113C5.60798 9.40435 5.70736 9.54928 5.85644 9.59484C5.99724 9.64039 6.16288 9.57413 6.24156 9.44162L6.63496 8.73764ZM14.5651 6.29442C13.5795 6.29442 12.3827 7.50775 12.2461 9.25113C12.2337 9.40435 12.3331 9.54928 12.4821 9.59484C12.6271 9.64039 12.7886 9.57413 12.8672 9.44162L13.2606 8.73764C13.5795 8.17031 14.0557 7.84317 14.5651 7.84317C15.0744 7.84317 15.5506 8.17031 15.8695 8.73764L16.2629 9.44162C16.3499 9.59484 16.5197 9.63625 16.648 9.59484C16.7971 9.54928 16.8965 9.40849 16.8841 9.25113C16.7474 7.50775 15.5506 6.29442 14.5651 6.29442Z" fill="black"/>
</g>
<defs>
<clipPath id="clip0_201_6024">
<rect width="20.5396" height="21.2022" fill="white" transform="translate(0.982544)"/>
</clipPath>
</defs>
</svg>
