<svg width="20" height="22" viewBox="0 0 20 22" fill="none" xmlns="http://www.w3.org/2000/svg">
<g clip-path="url(#clip0_201_6016)">
<path d="M17.3637 1.32513H2.78721C1.68983 1.32513 0.7995 2.21546 0.7995 3.31284V17.8893C0.7995 18.9867 1.68983 19.8771 2.78721 19.8771H17.3637C18.4611 19.8771 19.3514 18.9867 19.3514 17.8893V3.31284C19.3514 2.21546 18.4611 1.32513 17.3637 1.32513ZM17.1152 17.8893H3.03567C2.89901 17.8893 2.78721 17.7775 2.78721 17.6409V3.5613C2.78721 3.42465 2.89901 3.31284 3.03567 3.31284H17.1152C17.2519 3.31284 17.3637 3.42465 17.3637 3.5613V17.6409C17.3637 17.7775 17.2519 17.8893 17.1152 17.8893Z" fill="black"/>
</g>
<defs>
<clipPath id="clip0_201_6016">
<rect width="18.5519" height="21.2022" fill="white" transform="translate(0.799438)"/>
</clipPath>
</defs>
</svg>
