<svg width="19" height="22" viewBox="0 0 19 22" fill="none" xmlns="http://www.w3.org/2000/svg">
<g clip-path="url(#clip0_201_6012)">
<path d="M18.947 14.4153V3.31284C18.947 2.21505 18.0571 1.32513 16.9593 1.32513H2.38279C1.28499 1.32513 0.395081 2.21505 0.395081 3.31284V17.8889C0.395081 18.9866 1.28499 19.8766 2.38279 19.8766H13.4857C14.0129 19.8766 14.5184 19.6671 14.8912 19.2944L18.3648 15.8208C18.7376 15.448 18.947 14.9424 18.947 14.4153ZM13.6465 17.7281V14.576H16.7985L13.6465 17.7281ZM16.9593 3.31284V12.5883H12.6526C12.1037 12.5883 11.6587 13.0333 11.6587 13.5822V17.8889H2.38279V3.31284H16.9593Z" fill="black"/>
</g>
<defs>
<clipPath id="clip0_201_6012">
<rect width="18.5519" height="21.2022" fill="white" transform="translate(0.39502)"/>
</clipPath>
</defs>
</svg>
