<svg width="22" height="22" viewBox="0 0 22 22" fill="none" xmlns="http://www.w3.org/2000/svg">
<g clip-path="url(#clip0_201_6006)">
<path d="M20.6032 9.189L18.1269 7.51187L18.6942 4.57172C18.8019 4.0251 18.6279 3.46192 18.2345 3.06438C17.837 2.67098 17.2738 2.49705 16.7355 2.60472L13.7995 3.17204L12.1265 0.691554C11.5012 -0.231901 9.97727 -0.231901 9.35197 0.691554L7.67898 3.17204L4.74712 2.60472C4.19636 2.50119 3.63731 2.67098 3.24391 3.06852C2.85051 3.46606 2.67659 4.0251 2.78426 4.57172L3.35158 7.51187L0.87523 9.189C0.411432 9.50372 0.138123 10.0213 0.138123 10.5804C0.138123 11.1394 0.415573 11.6571 0.87523 11.9676L3.35158 13.6448L2.78426 16.5849C2.67659 17.1315 2.85051 17.6947 3.24391 18.0881C3.63731 18.4815 4.19221 18.6554 4.74712 18.5478L7.67898 17.9805L9.35197 20.4609C9.66255 20.9247 10.1843 21.2022 10.7392 21.2022C11.2941 21.2022 11.8159 20.9247 12.1265 20.4651L13.7995 17.9846L16.7355 18.5519C17.2904 18.6637 17.8453 18.4857 18.2387 18.0923C18.6321 17.6989 18.8019 17.1357 18.6983 16.5891L18.131 13.6489L20.6073 11.9718C21.067 11.6612 21.3445 11.1394 21.3445 10.5845C21.3403 10.0213 21.067 9.50372 20.6032 9.189ZM15.928 12.7337L16.6568 16.5104L12.8884 15.7816L10.7392 18.966L8.59001 15.7774L4.8258 16.5062L5.55462 12.7296L2.37429 10.5762L5.55462 8.4229L4.8258 4.64626L8.59415 5.37509L10.7392 2.19476L12.8884 5.37923L16.6568 4.6504L15.928 8.4229L19.1083 10.5762L15.928 12.7337ZM10.7392 6.2944C8.3664 6.2944 6.43252 8.22827 6.43252 10.6011C6.43252 12.9739 8.3664 14.9078 10.7392 14.9078C13.112 14.9078 15.0459 12.9739 15.0459 10.6011C15.0459 8.22827 13.112 6.2944 10.7392 6.2944ZM10.7392 12.9201C9.45963 12.9201 8.42023 11.8807 8.42023 10.6011C8.42023 9.32151 9.45963 8.28211 10.7392 8.28211C12.0188 8.28211 13.0582 9.32151 13.0582 10.6011C13.0582 11.8807 12.0188 12.9201 10.7392 12.9201Z" fill="black"/>
</g>
<defs>
<clipPath id="clip0_201_6006">
<rect width="21.2022" height="21.2022" fill="white" transform="translate(0.138123)"/>
</clipPath>
</defs>
</svg>
