<svg width="22" height="22" viewBox="0 0 22 22" fill="none" xmlns="http://www.w3.org/2000/svg">
<g clip-path="url(#clip0_201_6004)">
<path d="M10.8685 0.331299C5.19526 0.331299 0.598694 4.92787 0.598694 10.6011C0.598694 16.2744 5.19526 20.8709 10.8685 20.8709C16.5418 20.8709 21.1383 16.2744 21.1383 10.6011C21.1383 4.92787 16.5418 0.331299 10.8685 0.331299ZM10.8685 18.8832C6.30092 18.8832 2.5864 15.1687 2.5864 10.6011C2.5864 6.03353 6.30092 2.319 10.8685 2.319C15.4361 2.319 19.1506 6.03353 19.1506 10.6011C19.1506 15.1687 15.4361 18.8832 10.8685 18.8832ZM10.8685 11.595C9.40672 11.595 8.21823 12.7834 8.21823 14.2452C8.21823 15.707 9.40672 16.8955 10.8685 16.8955C12.3303 16.8955 13.5188 15.707 13.5188 14.2452C13.5188 12.7834 12.3303 11.595 10.8685 11.595ZM8.8808 8.61341C8.8808 7.88044 8.28863 7.28827 7.55566 7.28827C6.8227 7.28827 6.23053 7.88044 6.23053 8.61341C6.23053 9.34637 6.8227 9.93854 7.55566 9.93854C8.28863 9.93854 8.8808 9.34637 8.8808 8.61341ZM14.1814 7.28827C13.4484 7.28827 12.8562 7.88044 12.8562 8.61341C12.8562 9.34637 13.4484 9.93854 14.1814 9.93854C14.9143 9.93854 15.5065 9.34637 15.5065 8.61341C15.5065 7.88044 14.9143 7.28827 14.1814 7.28827Z" fill="black"/>
</g>
<defs>
<clipPath id="clip0_201_6004">
<rect width="20.5396" height="21.2022" fill="white" transform="translate(0.598511)"/>
</clipPath>
</defs>
</svg>
