<svg width="22" height="22" viewBox="0 0 22 22" fill="none" xmlns="http://www.w3.org/2000/svg">
<g clip-path="url(#clip0_201_6002)">
<path d="M19.705 9.33021C19.8985 8.39238 19.7408 7.48587 19.3327 6.72176C19.4552 5.73337 19.1662 4.71066 18.6146 3.94767C18.5751 1.63253 17.1312 0 13.9377 0C13.6479 0 13.3166 0.000414105 13.0176 0.000414105C8.72808 0.000414105 7.39474 1.65642 5.69703 1.65642H5.24794C5.01438 1.4504 4.70786 1.32514 4.3719 1.32514H1.72162C0.989773 1.32514 0.396484 1.91843 0.396484 2.65027V12.5888C0.396484 13.3207 0.989773 13.9139 1.72162 13.9139H4.3719C4.86228 13.9139 5.29017 13.6473 5.5193 13.2514H5.81133C6.60417 13.9534 7.71675 15.763 8.65871 16.705C9.22467 17.271 9.07915 21.2022 11.6303 21.2022C14.0148 21.2022 15.5755 19.8797 15.5755 16.8653C15.5755 16.1029 15.4128 15.4685 15.209 14.938H16.7197C18.7323 14.938 20.2735 13.2168 20.2735 11.3941C20.2735 10.6011 20.0681 9.94516 19.705 9.33021ZM3.04676 12.2575C2.49786 12.2575 2.05291 11.8126 2.05291 11.2637C2.05291 10.7148 2.49786 10.2698 3.04676 10.2698C3.59565 10.2698 4.04061 10.7148 4.04061 11.2637C4.04061 11.8126 3.59565 12.2575 3.04676 12.2575ZM16.7197 12.9503H12.4134C12.4134 14.5165 13.5878 15.2432 13.5878 16.8653C13.5878 17.8488 13.5878 19.2145 11.6303 19.2145C10.8473 18.4314 11.2386 16.4739 10.0642 15.2995C8.96432 14.1993 7.32364 11.2637 6.14924 11.2637H5.69703V3.55427C7.91709 3.55427 9.83813 1.98812 12.8047 1.98812H14.3709C15.8415 1.98812 16.8895 2.69707 16.5706 4.71707C17.2001 5.05498 17.668 6.22607 17.1479 7.10108C18.0416 7.94519 17.9222 9.21571 17.3636 9.81844C17.755 9.81844 18.2896 10.6015 18.2858 11.3842C18.2821 12.1672 17.5939 12.9503 16.7197 12.9503Z" fill="black"/>
</g>
<defs>
<clipPath id="clip0_201_6002">
<rect width="21.2022" height="21.2022" fill="white" transform="translate(0.396301)"/>
</clipPath>
</defs>
</svg>
