<svg width="22" height="22" viewBox="0 0 22 22" fill="none" xmlns="http://www.w3.org/2000/svg">
<g clip-path="url(#clip0_201_6000)">
<path d="M19.5026 11.872C19.8658 11.257 20.0711 10.6011 20.0711 9.80809C20.0711 7.9854 18.5299 6.26417 16.5173 6.26417H15.0066C15.2104 5.7337 15.3731 5.09929 15.3731 4.33693C15.3731 1.32249 13.8124 0 11.4279 0C8.87676 0 9.02228 3.93123 8.45632 4.49718C7.51436 5.43915 6.40174 7.24879 5.60893 7.95082H1.51923C0.78738 7.95082 0.194092 8.54411 0.194092 9.27596V19.2145C0.194092 19.9463 0.78738 20.5396 1.51923 20.5396H4.1695C4.78623 20.5396 5.30448 20.1183 5.45232 19.5478C7.29546 19.5893 8.56059 21.2018 12.8152 21.2018C13.1142 21.2018 13.4455 21.2022 13.7353 21.2022C16.9288 21.2022 18.3727 19.5697 18.4122 17.2545C18.9638 16.4915 19.2528 15.4688 19.1303 14.4804C19.5384 13.7163 19.6961 12.8098 19.5026 11.872ZM16.9455 14.1011C17.4656 14.9761 16.9977 16.1472 16.3682 16.4851C16.6871 18.5051 15.6391 19.2141 14.1685 19.2141H12.6023C9.63574 19.2141 7.7147 17.6479 5.49464 17.6479V9.93853H5.94684C7.12125 9.93853 8.76193 7.00294 9.86179 5.90266C11.0362 4.72826 10.6449 2.77078 11.4279 1.98771C13.3854 1.98771 13.3854 3.35343 13.3854 4.33693C13.3854 5.95898 12.211 6.68573 12.211 8.25188H16.5173C17.3915 8.25188 18.0797 9.03495 18.0834 9.81802C18.0872 10.6007 17.5526 11.3838 17.1612 11.3838C17.7198 11.9865 17.8392 13.257 16.9455 14.1011ZM3.83822 17.8894C3.83822 18.4382 3.39326 18.8832 2.84437 18.8832C2.29547 18.8832 1.85051 18.4382 1.85051 17.8894C1.85051 17.3405 2.29547 16.8955 2.84437 16.8955C3.39326 16.8955 3.83822 17.3405 3.83822 17.8894Z" fill="black"/>
</g>
<defs>
<clipPath id="clip0_201_6000">
<rect width="21.2022" height="21.2022" fill="white" transform="translate(0.194092)"/>
</clipPath>
</defs>
</svg>
