<svg width="21" height="22" viewBox="0 0 21 22" fill="none" xmlns="http://www.w3.org/2000/svg">
<g clip-path="url(#clip0_201_5996)">
<path d="M10.7222 0.331299C5.04896 0.331299 0.452393 4.92787 0.452393 10.6011C0.452393 16.2744 5.04896 20.8709 10.7222 20.8709C16.3955 20.8709 20.992 16.2744 20.992 10.6011C20.992 4.92787 16.3955 0.331299 10.7222 0.331299ZM10.7222 18.8832C6.15462 18.8832 2.4401 15.1687 2.4401 10.6011C2.4401 6.03353 6.15462 2.319 10.7222 2.319C15.2898 2.319 19.0043 6.03353 19.0043 10.6011C19.0043 15.1687 15.2898 18.8832 10.7222 18.8832ZM16.0683 6.3027C15.9109 6.12049 15.6418 6.07908 15.4347 6.19917L12.1219 8.18688C11.9728 8.27798 11.8817 8.43948 11.8817 8.61341C11.8817 8.78733 11.9728 8.94883 12.1219 9.03994L15.4347 11.0276C15.6583 11.1602 15.9234 11.0939 16.0683 10.9241C16.2257 10.7378 16.2298 10.4686 16.0724 10.2823L14.6811 8.61341L16.0724 6.94456C16.2298 6.75821 16.2257 6.4849 16.0683 6.3027ZM9.56271 8.61341C9.56271 8.43948 9.47161 8.27798 9.32253 8.18688L6.00969 6.19917C5.80263 6.07494 5.53347 6.12049 5.37611 6.3027C5.21875 6.48905 5.2146 6.75821 5.37196 6.94456L6.76336 8.61341L5.37196 10.2823C5.2146 10.4686 5.21875 10.7378 5.37611 10.9241C5.52104 11.0939 5.78607 11.1602 6.00969 11.0276L9.32253 9.03994C9.47161 8.94883 9.56271 8.78733 9.56271 8.61341ZM10.7222 11.2637C8.84217 11.2637 6.54388 12.8497 6.25815 15.1273C6.19603 15.6159 6.54388 16.0218 6.90001 15.8685C7.84003 15.4669 9.23143 15.2391 10.7222 15.2391C12.213 15.2391 13.6044 15.4669 14.5444 15.8685C14.8964 16.0218 15.2484 15.6201 15.1863 15.1273C14.9005 12.8497 12.6022 11.2637 10.7222 11.2637Z" fill="black"/>
</g>
<defs>
<clipPath id="clip0_201_5996">
<rect width="20.5396" height="21.2022" fill="white" transform="translate(0.452271)"/>
</clipPath>
</defs>
</svg>
