<svg width="20" height="22" viewBox="0 0 20 22" fill="none" xmlns="http://www.w3.org/2000/svg">
<g clip-path="url(#clip0_201_5994)">
<path d="M11.9983 17.2268H12.9921C13.1239 17.2268 13.2503 17.1744 13.3435 17.0812C13.4367 16.988 13.4891 16.8617 13.4891 16.7299V7.78518C13.4891 7.65339 13.4367 7.52699 13.3435 7.4338C13.2503 7.34061 13.1239 7.28825 12.9921 7.28825H11.9983C11.8665 7.28825 11.7401 7.34061 11.6469 7.4338C11.5537 7.52699 11.5014 7.65339 11.5014 7.78518V16.7299C11.5014 16.8617 11.5537 16.988 11.6469 17.0812C11.7401 17.1744 11.8665 17.2268 11.9983 17.2268ZM18.7896 3.31284H15.377L13.969 0.964866C13.7923 0.670443 13.5424 0.426815 13.2435 0.257721C12.9447 0.0886278 12.6071 -0.000163298 12.2637 2.25458e-07H8.08872C7.74549 -2.02402e-05 7.4081 0.0888389 7.1094 0.257925C6.81071 0.427012 6.56089 0.670564 6.38427 0.964866L4.97548 3.31284H1.56284C1.38711 3.31284 1.21859 3.38265 1.09433 3.50691C0.970075 3.63116 0.900269 3.79969 0.900269 3.97541L0.900269 4.63798C0.900269 4.8137 0.970075 4.98223 1.09433 5.10649C1.21859 5.23074 1.38711 5.30055 1.56284 5.30055H2.22541V19.2145C2.22541 19.7417 2.43482 20.2472 2.80759 20.62C3.18036 20.9928 3.68594 21.2022 4.21311 21.2022H16.1393C16.6665 21.2022 17.1721 20.9928 17.5449 20.62C17.9176 20.2472 18.1271 19.7417 18.1271 19.2145V5.30055H18.7896C18.9653 5.30055 19.1339 5.23074 19.2581 5.10649C19.3824 4.98223 19.4522 4.8137 19.4522 4.63798V3.97541C19.4522 3.79969 19.3824 3.63116 19.2581 3.50691C19.1339 3.38265 18.9653 3.31284 18.7896 3.31284ZM8.01625 2.10821C8.0384 2.07135 8.06973 2.04087 8.10718 2.01975C8.14464 1.99863 8.18693 1.98759 8.22993 1.98771H12.1225C12.1655 1.98766 12.2077 1.99873 12.245 2.01985C12.2824 2.04097 12.3137 2.07141 12.3358 2.10821L13.0588 3.31284H7.29364L8.01625 2.10821ZM16.1393 19.2145H4.21311V5.30055H16.1393V19.2145ZM7.36031 17.2268H8.35417C8.48596 17.2268 8.61235 17.1744 8.70554 17.0812C8.79874 16.988 8.85109 16.8617 8.85109 16.7299V7.78518C8.85109 7.65339 8.79874 7.52699 8.70554 7.4338C8.61235 7.34061 8.48596 7.28825 8.35417 7.28825H7.36031C7.22852 7.28825 7.10212 7.34061 7.00893 7.4338C6.91574 7.52699 6.86339 7.65339 6.86339 7.78518V16.7299C6.86339 16.8617 6.91574 16.988 7.00893 17.0812C7.10212 17.1744 7.22852 17.2268 7.36031 17.2268Z" fill="black"/>
</g>
<defs>
<clipPath id="clip0_201_5994">
<rect width="18.5519" height="21.2022" fill="white" transform="translate(0.90033)"/>
</clipPath>
</defs>
</svg>
