<svg width="20" height="22" viewBox="0 0 20 22" fill="none" xmlns="http://www.w3.org/2000/svg">
<g clip-path="url(#clip0_201_5990)">
<path d="M13.7949 12.5888C12.6064 12.5888 12.035 13.2514 10.0845 13.2514C8.13409 13.2514 7.56676 12.5888 6.37414 12.5888C3.30148 12.5888 0.808563 15.0817 0.808563 18.1544V19.2145C0.808563 20.3119 1.69889 21.2022 2.79627 21.2022H17.3728C18.4702 21.2022 19.3605 20.3119 19.3605 19.2145V18.1544C19.3605 15.0817 16.8676 12.5888 13.7949 12.5888ZM17.3728 19.2145H2.79627V18.1544C2.79627 16.1832 4.403 14.5765 6.37414 14.5765C6.97873 14.5765 7.96016 15.2391 10.0845 15.2391C12.2254 15.2391 13.1862 14.5765 13.7949 14.5765C15.766 14.5765 17.3728 16.1832 17.3728 18.1544V19.2145ZM10.0845 11.9262C13.3767 11.9262 16.0476 9.25526 16.0476 5.96312C16.0476 2.67098 13.3767 0 10.0845 0C6.79239 0 4.12141 2.67098 4.12141 5.96312C4.12141 9.25526 6.79239 11.9262 10.0845 11.9262ZM10.0845 1.98771C12.2751 1.98771 14.0599 3.7725 14.0599 5.96312C14.0599 8.15374 12.2751 9.93853 10.0845 9.93853C7.89391 9.93853 6.10911 8.15374 6.10911 5.96312C6.10911 3.7725 7.89391 1.98771 10.0845 1.98771Z" fill="black"/>
</g>
<defs>
<clipPath id="clip0_201_5990">
<rect width="18.5519" height="21.2022" fill="white" transform="translate(0.808777)"/>
</clipPath>
</defs>
</svg>
