<svg width="22" height="22" viewBox="0 0 22 22" fill="none" xmlns="http://www.w3.org/2000/svg">
<g clip-path="url(#clip0_201_5988)">
<path d="M19.8211 1.32513H2.59427C1.49689 1.32513 0.606567 2.21546 0.606567 3.31284V17.8893C0.606567 18.9867 1.49689 19.8771 2.59427 19.8771H19.8211C20.9184 19.8771 21.8088 18.9867 21.8088 17.8893V3.31284C21.8088 2.21546 20.9184 1.32513 19.8211 1.32513ZM19.8211 17.6409C19.8211 17.7775 19.7092 17.8893 19.5726 17.8893H2.84274C2.70608 17.8893 2.59427 17.7775 2.59427 17.6409V3.5613C2.59427 3.42465 2.70608 3.31284 2.84274 3.31284H19.5726C19.7092 3.31284 19.8211 3.42465 19.8211 3.5613V17.6409ZM15.3694 8.05849L12.8268 10.6011L15.3694 13.1437C15.5599 13.3342 15.5599 13.6448 15.3694 13.8394L14.446 14.7629C14.2555 14.9533 13.9449 14.9533 13.7503 14.7629L11.2077 12.2202L8.66506 14.7629C8.47457 14.9533 8.16399 14.9533 7.96936 14.7629L7.04591 13.8394C6.85542 13.6489 6.85542 13.3383 7.04591 13.1437L9.58851 10.6011L7.04591 8.05849C6.85542 7.868 6.85542 7.55742 7.04591 7.36279L7.96936 6.43934C8.15985 6.24885 8.47043 6.24885 8.66506 6.43934L11.2077 8.98194L13.7503 6.43934C13.9408 6.24885 14.2513 6.24885 14.446 6.43934L15.3694 7.36279C15.5641 7.55328 15.5641 7.86386 15.3694 8.05849Z" fill="black"/>
</g>
<defs>
<clipPath id="clip0_201_5988">
<rect width="21.2022" height="21.2022" fill="white" transform="translate(0.606567)"/>
</clipPath>
</defs>
</svg>
