<svg width="24" height="24" viewBox="0 0 24 24" fill="none" xmlns="http://www.w3.org/2000/svg">
<path d="M19.807 5.68671C20.1051 5.93233 20.3533 6.23694 20.5337 6.58374C20.5908 6.69347 20.548 6.82633 20.4428 6.89144L14.1769 10.7704C12.833 11.6023 11.1385 11.6197 9.77778 10.8157L3.46995 7.08833C3.36804 7.02811 3.32126 6.90415 3.36719 6.79505C3.5498 6.36127 3.83438 5.98301 4.1904 5.68897L4.19006 5.68598L4.20233 5.67917C4.46577 5.46394 4.76781 5.29458 5.09621 5.18257L9.20609 2.89931C10.9427 1.93451 13.0544 1.93451 14.791 2.8993L18.896 5.17989C19.2302 5.29278 19.5372 5.46498 19.8043 5.68447L19.807 5.68671Z" fill="black"/>
<path d="M2.98891 8.95414C3.00709 8.7739 3.20609 8.67472 3.36206 8.76688L9.01468 12.1071C10.8557 13.1949 13.1482 13.1713 14.9664 12.0458L20.611 8.55151C20.7662 8.45541 20.9686 8.55276 20.9882 8.73428C21.2683 11.3217 21.2145 13.9363 20.827 16.5133C20.6285 17.8334 19.5511 18.8455 18.2211 18.9611L16.7109 19.0924C13.5763 19.3649 10.4239 19.3649 7.28924 19.0924L5.77901 18.9611C4.44907 18.8455 3.37166 17.8334 3.17314 16.5133C2.79659 14.0092 2.73518 11.4698 2.98891 8.95414Z" fill="black"/>
</svg>
