<svg width="24" height="24" viewBox="0 0 24 24" fill="none" xmlns="http://www.w3.org/2000/svg">
<path d="M11.5 15C10.6716 15 10 14.3284 10 13.5C10 12.6716 10.6716 12 11.5 12M21 8.19995V15.8C21 16.9201 21.0002 17.4802 20.7822 17.908C20.5905 18.2844 20.2841 18.5902 19.9078 18.782C19.48 19 18.9203 19 17.8002 19H6.2002C5.08009 19 4.51962 19 4.0918 18.782C3.71547 18.5902 3.40973 18.2844 3.21799 17.908C3 17.4802 3 16.9201 3 15.8V8.19995C3 7.07985 3 6.51986 3.21799 6.09204C3.40973 5.71572 3.71547 5.40973 4.0918 5.21799C4.51962 5 5.08009 5 6.2002 5H17.8002C18.9203 5 19.48 5 19.9078 5.21799C20.2841 5.40973 20.5905 5.71572 20.7822 6.09204C21.0002 6.51986 21 7.07985 21 8.19995ZM17 13.5C17 14.3284 16.3284 15 15.5 15C14.6716 15 14 14.3284 14 13.5C14 12.6716 14.6716 12 15.5 12C16.3284 12 17 12.6716 17 13.5Z" stroke="black" stroke-width="2" stroke-linecap="round" stroke-linejoin="round"/>
</svg>
