<svg width="24" height="24" viewBox="0 0 24 24" fill="none" xmlns="http://www.w3.org/2000/svg">
<path d="M16 12.8V11.2V11.1967C16 10.0788 16 9.51945 15.7822 9.09204C15.5905 8.71572 15.2841 8.40973 14.9078 8.21799C14.48 8 13.9203 8 12.8002 8H11.2002C10.0801 8 9.51962 8 9.0918 8.21799C8.71547 8.40973 8.40973 8.71572 8.21799 9.09204C8 9.51986 8 10.0798 8 11.2V12.8C8 13.9201 8 14.4802 8.21799 14.908C8.40973 15.2844 8.71547 15.5902 9.0918 15.782C9.51962 16 10.0801 16 11.2002 16H12.8002C13.9203 16 14.48 16 14.9078 15.782C15.2841 15.5902 15.5905 15.2844 15.7822 14.908C16 14.4806 16 13.9212 16 12.8032V12.8Z" stroke="black" stroke-width="2" stroke-linecap="round" stroke-linejoin="round"/>
</svg>
