<svg width="24" height="24" viewBox="0 0 24 24" fill="none" xmlns="http://www.w3.org/2000/svg">
<path d="M18 14.8V9.19995V9.19666C18 8.07875 18 7.51945 17.7822 7.09204C17.5905 6.71572 17.2841 6.40973 16.9078 6.21799C16.48 6 15.9203 6 14.8002 6H9.2002C8.08009 6 7.51962 6 7.0918 6.21799C6.71547 6.40973 6.40973 6.71572 6.21799 7.09204C6 7.51986 6 8.07985 6 9.19995V14.8C6 15.9201 6 16.4802 6.21799 16.908C6.40973 17.2844 6.71547 17.5902 7.0918 17.782C7.51962 18 8.08009 18 9.2002 18H14.8002C15.9203 18 16.48 18 16.9078 17.782C17.2841 17.5902 17.5905 17.2844 17.7822 16.908C18 16.4806 18 15.9212 18 14.8032V14.8Z" stroke="black" stroke-width="2" stroke-linecap="round" stroke-linejoin="round"/>
</svg>
