<svg width="24" height="24" viewBox="0 0 24 24" fill="none" xmlns="http://www.w3.org/2000/svg">
<path d="M13 3C12.4477 3 12 3.44772 12 4C12 4.55228 12.4477 5 13 5V3ZM19.5314 7.46863L18.8243 6.76152L19.5314 7.46863ZM17.2929 8.29289C16.9024 8.68342 16.9024 9.31658 17.2929 9.70711C17.6834 10.0976 18.3166 10.0976 18.7071 9.70711L17.2929 8.29289ZM19.9727 6.81925L20.945 7.0527L19.9727 6.81925ZM19.8525 7.10828L20.7052 7.63077L19.8525 7.10828ZM19.4544 4.10899L19.9084 3.21799L19.4544 4.10899ZM19.8906 4.54602L18.9996 5.00001L19.8906 4.54602ZM7.49961 5C8.05189 5 8.49961 4.55228 8.49961 4C8.49961 3.44772 8.05189 3 7.49961 3V5ZM4.46875 7.46863L5.17586 6.76152L4.46875 7.46863ZM9.53149 12.5314L8.82439 13.2385L9.53149 12.5314ZM12.3154 19.8423L11.8682 18.9478L11.8682 18.9478L12.3154 19.8423ZM13.1154 19.4423L13.5626 20.3367V20.3367L13.1154 19.4423ZM16.2072 12.2071C16.5978 11.8166 16.5978 11.1834 16.2072 10.7929C15.8167 10.4024 15.1835 10.4024 14.793 10.7929L16.2072 12.2071ZM14.0276 13.1808L13.0553 12.9473V12.9473L14.0276 13.1808ZM14.1475 12.8917L15.0001 13.4142L14.1475 12.8917ZM13.7141 19.0817L14.4285 19.7814L13.7141 19.0817ZM13.9453 18.708L13 18.3819L13.9453 18.708ZM10.1805 19.9551L11 19.382L10.1805 19.9551ZM10.8535 20.3713L10.9997 19.382L10.8535 20.3713ZM9.85252 12.8917L10.7052 12.3692L9.85252 12.8917ZM9.97266 13.1808L10.945 12.9473L9.97266 13.1808ZM4.02763 6.81925L3.05526 7.0527L4.02763 6.81925ZM4.14746 7.10828L3.29482 7.63077L4.14746 7.10828ZM4.5459 4.10899L4.99989 5L4.5459 4.10899ZM4.10899 4.54602L5 5.00001L4.10899 4.54602ZM5.70711 0.292893C5.31658 -0.0976311 4.68342 -0.0976311 4.29289 0.292893C3.90237 0.683417 3.90237 1.31658 4.29289 1.70711L5.70711 0.292893ZM18.2929 15.7071C18.6834 16.0976 19.3166 16.0976 19.7071 15.7071C20.0976 15.3166 20.0976 14.6834 19.7071 14.2929L18.2929 15.7071ZM13 5H18.4V3H13V5ZM19 5.59998V6.33723H21V5.59998H19ZM18.8243 6.76152L17.2929 8.29289L18.7071 9.70711L20.2385 8.17573L18.8243 6.76152ZM19 6.33723C19 6.46886 18.9998 6.53419 18.9977 6.58208C18.996 6.62068 18.9941 6.61163 19.0003 6.58581L20.945 7.0527C21.0068 6.79528 21 6.53216 21 6.33723H19ZM20.2385 8.17573C20.3782 8.03597 20.5672 7.85594 20.7052 7.63077L18.9999 6.58578C19.0132 6.56399 19.0205 6.55936 18.9947 6.5876C18.9628 6.62262 18.9168 6.66903 18.8243 6.76152L20.2385 8.17573ZM19.0003 6.58581L18.9999 6.58578L20.7052 7.63077C20.8135 7.45397 20.8955 7.25919 20.945 7.0527L19.0003 6.58581ZM18.4 5C18.6965 5 18.8589 5.00078 18.9756 5.01031C19.0808 5.01889 19.058 5.02936 19.0004 5L19.9084 3.21799C19.6368 3.07963 19.3669 3.0356 19.1384 3.01694C18.9214 2.99922 18.6635 3 18.4 3V5ZM21 5.59998C21 5.33609 21.0007 5.07834 20.9828 4.86119C20.964 4.6324 20.9197 4.36304 20.7816 4.09203L18.9996 5.00001C18.9705 4.94291 18.9809 4.9205 18.9896 5.0252C18.9991 5.14154 19 5.30381 19 5.59998H21ZM19.0004 5L18.9996 5.00001L20.7816 4.09203C20.5907 3.71737 20.2864 3.41058 19.9084 3.21799L19.0004 5ZM7.49961 3H5.59961V5H7.49961V3ZM3 5.59998V6.33723H5V5.59998H3ZM3.76164 8.17573L8.82439 13.2385L10.2386 11.8243L5.17586 6.76152L3.76164 8.17573ZM9 13.6627V18.4111H11V13.6627H9ZM12.7626 20.7367L13.5626 20.3367L12.6682 18.5478L11.8682 18.9478L12.7626 20.7367ZM15 18.0111V13.6627H13V18.0111H15ZM15.1759 13.2385L16.2072 12.2071L14.793 10.7929L13.7616 11.8243L15.1759 13.2385ZM15 13.6627C15 13.5317 15.0002 13.4663 15.0024 13.4189C15.0042 13.3806 15.006 13.3892 15 13.4142L13.0553 12.9473C12.9936 13.2043 13 13.4657 13 13.6627H15ZM13.7616 11.8243C13.6224 11.9635 13.4329 12.1439 13.2948 12.3692L15.0001 13.4142C14.9866 13.4363 14.9792 13.441 15.0051 13.4127C15.0371 13.3775 15.0832 13.3311 15.1759 13.2385L13.7616 11.8243ZM15 13.4142L15.0001 13.4142L13.2948 12.3692C13.1855 12.5477 13.1044 12.7427 13.0553 12.9473L15 13.4142ZM13.5626 20.3367C13.8195 20.2083 14.1661 20.0493 14.4285 19.7814L12.9997 18.3819C13.0268 18.3543 13.0403 18.3521 12.9889 18.382C12.9273 18.4178 12.8394 18.4622 12.6682 18.5478L13.5626 20.3367ZM13 18.0111C13 18.2027 12.9995 18.3012 12.9951 18.3724C12.9914 18.4319 12.9873 18.4187 13 18.3819L14.8907 19.0341C15.013 18.6794 15 18.2978 15 18.0111H13ZM14.4285 19.7814C14.6352 19.5703 14.7937 19.3153 14.8907 19.0341L13 18.3819L12.9997 18.3819L14.4285 19.7814ZM9 18.4111C9 18.8202 8.999 19.196 9.02673 19.4989C9.05433 19.8004 9.11994 20.1834 9.36109 20.5282L11 19.382C11.0606 19.4686 11.0359 19.5083 11.0184 19.3166C11.001 19.1264 11 18.8592 11 18.4111H9ZM11.8682 18.9478C11.4675 19.1482 11.228 19.2668 11.05 19.3363C10.8707 19.4064 10.8951 19.3666 10.9997 19.382L10.7074 21.3605C11.1236 21.422 11.4956 21.3094 11.7776 21.1993C12.061 21.0886 12.3967 20.9197 12.7626 20.7367L11.8682 18.9478ZM9.36109 20.5282C9.67603 20.9785 10.1625 21.28 10.7074 21.3605L10.9997 19.382L11 19.382L9.36109 20.5282ZM8.82439 13.2385C8.91676 13.3309 8.96277 13.3773 8.9946 13.4122C9.02026 13.4403 9.0131 13.4358 8.99988 13.4142L10.7052 12.3692C10.5673 12.1442 10.3788 11.9645 10.2386 11.8243L8.82439 13.2385ZM11 13.6627C11 13.4678 11.0068 13.2048 10.945 12.9473L9.00029 13.4142C8.99409 13.3884 8.99596 13.3794 8.99769 13.4179C8.99983 13.4658 9 13.5311 9 13.6627H11ZM8.99988 13.4142L9.00029 13.4142L10.945 12.9473C10.8955 12.741 10.8136 12.5461 10.7052 12.3692L8.99988 13.4142ZM3 6.33723C3 6.53421 2.99357 6.79575 3.05526 7.0527L5 6.58581C5.00603 6.61092 5.00416 6.61948 5.00241 6.58114C5.00024 6.53363 5 6.46823 5 6.33723H3ZM5.17586 6.76152C5.08321 6.66888 5.03714 6.62247 5.00509 6.58735C4.97922 6.559 4.9866 6.56375 5.0001 6.58578L3.29482 7.63077C3.4329 7.8561 3.6224 8.03649 3.76164 8.17573L5.17586 6.76152ZM3.05526 7.0527C3.10441 7.25743 3.18552 7.45241 3.29482 7.63077L5.0001 6.58578L5 6.58581L3.05526 7.0527ZM5.59961 3C5.3361 3 5.07836 2.99922 4.86149 3.01695C4.63285 3.03564 4.36325 3.07973 4.09191 3.21799L4.99989 5C4.94246 5.02926 4.91968 5.01886 5.02442 5.0103C5.14091 5.00078 5.30307 5 5.59961 5V3ZM5 5.59998C5 5.30345 5.00078 5.1412 5.0103 5.02463C5.01887 4.91974 5.0293 4.94251 5 5.00001L3.21799 4.09203C3.07969 4.36344 3.03562 4.63316 3.01695 4.86176C2.99922 5.07867 3 5.33645 3 5.59998H5ZM4.09191 3.21799C3.71533 3.40987 3.4096 3.71596 3.21799 4.09203L5 5.00001L4.99989 5L4.09191 3.21799ZM4.29289 1.70711L18.2929 15.7071L19.7071 14.2929L5.70711 0.292893L4.29289 1.70711Z" fill="black"/>
</svg>
