<svg width="24" height="24" viewBox="0 0 24 24" fill="none" xmlns="http://www.w3.org/2000/svg">
<path d="M16 8C16 5.79086 14.2091 4 12 4C9.79086 4 8 5.79086 8 8M19.4453 10.674L20.3786 16.274C20.5923 17.5559 20.6994 18.1968 20.5138 18.6964C20.351 19.1347 20.04 19.5022 19.6343 19.7349C19.1721 20 18.522 20 17.2224 20H6.77734C5.47772 20 4.82845 20 4.36621 19.7349C3.96058 19.5022 3.64882 19.1347 3.486 18.6964C3.30045 18.1968 3.40744 17.5559 3.62109 16.274L4.55443 10.674C4.71276 9.72398 4.79218 9.24902 5.02921 8.89258C5.23815 8.57838 5.5317 8.32965 5.87598 8.17521C6.26653 8 6.74787 8 7.71094 8H16.2893C17.2524 8 17.7337 8 18.1242 8.17521C18.4685 8.32965 18.7618 8.57838 18.9707 8.89258C19.2077 9.24902 19.287 9.72399 19.4453 10.674Z" stroke="black" stroke-width="2" stroke-linecap="round" stroke-linejoin="round"/>
</svg>
