<svg width="24" height="24" viewBox="0 0 24 24" fill="none" xmlns="http://www.w3.org/2000/svg">
<path d="M14.2627 20.3438L20.3438 14.2627C21.1358 13.4707 21.5318 13.0747 21.6802 12.618C21.8107 12.2164 21.8107 11.7836 21.6802 11.3819C21.5318 10.9252 21.1358 10.5293 20.3438 9.73727L20.3438 9.73725L14.2627 3.65613L14.2614 3.65479C13.4702 2.86365 13.0746 2.468 12.6182 2.3197C12.2165 2.18919 11.7837 2.18919 11.382 2.3197C10.9255 2.46805 10.5296 2.86393 9.73787 3.65563L9.73737 3.65613L3.65625 9.73725L3.65201 9.74149C2.86281 10.5307 2.46745 10.9261 2.31934 11.3819C2.18882 11.7836 2.18882 12.2164 2.31934 12.618C2.46745 13.0739 2.86284 13.4693 3.6521 14.2585L3.65625 14.2627L9.73737 20.3438L9.73834 20.3448C10.5297 21.1362 10.9255 21.532 11.382 21.6803C11.7837 21.8108 12.2165 21.8108 12.6182 21.6803C13.0745 21.532 13.4701 21.1364 14.2609 20.3456L14.2627 20.3438Z" stroke="black" stroke-width="2" stroke-linecap="round" stroke-linejoin="round"/>
</svg>
