<svg width="24" height="24" viewBox="0 0 24 24" fill="none" xmlns="http://www.w3.org/2000/svg">
<path d="M19.2933 9.95137L16.96 7.15137C16.6073 6.72814 16.43 6.51651 16.2139 6.36438C16.0223 6.22958 15.8088 6.12953 15.5826 6.06868C15.3274 6 15.0523 6 14.5014 6H7.2002C6.08009 6 5.51962 6 5.0918 6.21799C4.71547 6.40973 4.40973 6.71572 4.21799 7.09204C4 7.51986 4 8.07985 4 9.19995V14.8C4 15.9201 4 16.4802 4.21799 16.908C4.40973 17.2844 4.71547 17.5902 5.0918 17.782C5.51962 18 6.08009 18 7.2002 18H14.5014C15.0523 18 15.3274 18 15.5826 17.9313C15.8088 17.8704 16.0223 17.7704 16.2139 17.6356C16.43 17.4835 16.6073 17.2718 16.96 16.8486L19.2933 14.0486C19.9006 13.3198 20.2039 12.9555 20.32 12.5487C20.4223 12.1901 20.4223 11.81 20.32 11.4513C20.2039 11.0446 19.9006 10.6801 19.2933 9.95137Z" stroke="black" stroke-width="2" stroke-linecap="round" stroke-linejoin="round"/>
</svg>
