<svg width="24" height="24" viewBox="0 0 24 24" fill="none" xmlns="http://www.w3.org/2000/svg">
<path d="M8 11C7.44772 11 7 11.4477 7 12C7 12.5523 7.44772 13 8 13V11ZM12 13C12.5523 13 13 12.5523 13 12C13 11.4477 12.5523 11 12 11V13ZM15 7C14.4477 7 14 7.44772 14 8C14 8.55228 14.4477 9 15 9V7ZM18.9838 14.2503C18.5697 14.6157 18.5303 15.2477 18.8958 15.6617C19.2612 16.0758 19.8932 16.1152 20.3072 15.7497L18.9838 14.2503ZM9 17C9.55228 17 10 16.5523 10 16C10 15.4477 9.55228 15 9 15V17ZM8 9C8.55228 9 9 8.55228 9 8C9 7.44772 8.55228 7 8 7V9ZM4.70711 3.29289C4.31658 2.90237 3.68342 2.90237 3.29289 3.29289C2.90237 3.68342 2.90237 4.31658 3.29289 4.70711L4.70711 3.29289ZM19.2929 20.7071C19.6834 21.0976 20.3166 21.0976 20.7071 20.7071C21.0976 20.3166 21.0976 19.6834 20.7071 19.2929L19.2929 20.7071ZM8 13H12V11H8V13ZM15 9H17V7H15V9ZM17 9C18.6569 9 20 10.3431 20 12H22C22 9.23858 19.7614 7 17 7V9ZM20 12C20 12.8957 19.6084 13.699 18.9838 14.2503L20.3072 15.7497C21.3435 14.8351 22 13.4937 22 12H20ZM9 15H7V17H9V15ZM7 15C5.34315 15 4 13.6569 4 12H2C2 14.7614 4.23858 17 7 17V15ZM4 12C4 10.3431 5.34315 9 7 9V7C4.23858 7 2 9.23858 2 12H4ZM7 9H8V7H7V9ZM3.29289 4.70711L19.2929 20.7071L20.7071 19.2929L4.70711 3.29289L3.29289 4.70711Z" fill="black"/>
</svg>
