<svg width="24" height="24" viewBox="0 0 24 24" fill="none" xmlns="http://www.w3.org/2000/svg">
<path d="M9.8789 3.51455L9.87889 3.51456L9.87889 3.51456C9.21995 4.1735 8.89051 4.50294 8.73827 4.87048C8.53528 5.36054 8.53528 5.91119 8.73827 6.40125C8.89051 6.76879 9.21998 7.09826 9.87892 7.7572L9.87921 7.75749C10.538 8.41624 10.8674 8.74564 11.2348 8.89786C11.7249 9.10085 12.2756 9.10085 12.7656 8.89786C13.1332 8.74562 13.4626 8.41615 14.1216 7.75721C14.7805 7.09827 15.11 6.76879 15.2622 6.40125C15.4652 5.91119 15.4652 5.36054 15.2622 4.87048C15.11 4.50299 14.7806 4.17359 14.1218 3.51484L14.1216 3.51456C13.4626 2.85562 13.1332 2.52615 12.7656 2.37391C12.2756 2.17092 11.7249 2.17092 11.2348 2.37391C10.8673 2.52615 10.5378 2.85561 9.8789 3.51455Z" stroke="black" stroke-width="2" stroke-linecap="round" stroke-linejoin="round"/>
<path d="M3.51464 9.87857L3.51464 9.87857C2.8557 10.5375 2.52625 10.867 2.37401 11.2345C2.17102 11.7246 2.17102 12.2752 2.37401 12.7653C2.52625 13.1328 2.85572 13.4623 3.51466 14.1212L3.51494 14.1215C4.1737 14.7802 4.5031 15.1097 4.87059 15.2619C5.36065 15.4649 5.9113 15.4649 6.40136 15.2619C6.7689 15.1096 7.09837 14.7802 7.75731 14.1212L7.75732 14.1212C8.41625 13.4623 8.74572 13.1328 8.89796 12.7653C9.10095 12.2752 9.10095 11.7246 8.89796 11.2345C8.74575 10.867 8.41634 10.5376 7.75759 9.87886L7.75731 9.87857C7.09837 9.21963 6.7689 8.89016 6.40136 8.73792C5.9113 8.53493 5.36065 8.53493 4.87059 8.73792C4.50305 8.89016 4.17358 9.21963 3.51464 9.87857Z" stroke="black" stroke-width="2" stroke-linecap="round" stroke-linejoin="round"/>
<path d="M16.2432 9.87856L16.2432 9.87857C15.5842 10.5375 15.2548 10.867 15.1025 11.2345C14.8995 11.7246 14.8995 12.2752 15.1025 12.7653C15.2548 13.1328 15.5842 13.4623 16.2432 14.1212L16.2435 14.1215C16.9022 14.7803 17.2316 15.1097 17.5991 15.2619C18.0892 15.4649 18.6398 15.4649 19.1299 15.2619C19.4974 15.1096 19.8269 14.7802 20.4858 14.1212L20.4858 14.1212C21.1448 13.4623 21.4742 13.1328 21.6265 12.7653C21.8295 12.2752 21.8295 11.7246 21.6265 11.2345C21.4743 10.867 21.1449 10.5376 20.4861 9.87885L20.4858 9.87857L20.4858 9.87856C19.8269 9.21963 19.4974 8.89016 19.1299 8.73792C18.6398 8.53493 18.0892 8.53493 17.5991 8.73792C17.2316 8.89016 16.9021 9.21963 16.2432 9.87856Z" stroke="black" stroke-width="2" stroke-linecap="round" stroke-linejoin="round"/>
<path d="M9.8789 16.2426L9.87889 16.2426L9.87888 16.2426C9.21995 16.9015 8.89051 17.231 8.73827 17.5985C8.53528 18.0886 8.53528 18.6392 8.73827 19.1293C8.89051 19.4968 9.21998 19.8263 9.87891 20.4852L9.87892 20.4852L9.8792 20.4855C10.538 21.1443 10.8674 21.4737 11.2348 21.6259C11.7249 21.8289 12.2756 21.8289 12.7656 21.6259C13.1332 21.4736 13.4626 21.1442 14.1216 20.4852C14.7805 19.8263 15.11 19.4968 15.2622 19.1293C15.4652 18.6392 15.4652 18.0886 15.2622 17.5985C15.11 17.231 14.7806 16.9016 14.1219 16.2429L14.1216 16.2426C13.4626 15.5836 13.1332 15.2542 12.7656 15.1019C12.2756 14.8989 11.7249 14.8989 11.2348 15.1019C10.8673 15.2542 10.5378 15.5836 9.8789 16.2426Z" stroke="black" stroke-width="2" stroke-linecap="round" stroke-linejoin="round"/>
</svg>
