<svg width="24" height="24" viewBox="0 0 24 24" fill="none" xmlns="http://www.w3.org/2000/svg">
<path d="M3 6C2.44772 6 2 6.44772 2 7C2 7.55228 2.44772 8 3 8V6ZM9.46582 7.77686L8.60833 8.29135L9.46582 7.77686ZM14.5337 16.2232L13.6762 16.7377L13.6762 16.7377L14.5337 16.2232ZM21.0003 18C21.5526 18 22.0003 17.5523 22.0003 17C22.0003 16.4477 21.5526 16 21.0003 16V18ZM14.9061 16.7509L14.2458 17.5019L14.9061 16.7509ZM15.2617 16.9526L15.5659 16L15.2617 16.9526ZM8.73768 7.0474L9.04189 6.09479L8.73768 7.0474ZM9.09375 7.24902L8.43342 8L9.09375 7.24902ZM15 6C14.4477 6 14 6.44772 14 7C14 7.55228 14.4477 8 15 8V6ZM21 8C21.5523 8 22 7.55229 22 7C22 6.44772 21.5523 6 21 6V8ZM3 8H8.0941V6H3V8ZM8.60833 8.29135L13.6762 16.7377L15.3911 15.7087L10.3233 7.26236L8.60833 8.29135ZM15.9062 18H21.0003V16H15.9062V18ZM13.6762 16.7377C13.8135 16.9666 13.9845 17.2722 14.2458 17.5019L15.5665 16C15.5925 16.0229 15.5954 16.0344 15.565 15.99C15.5284 15.9364 15.4815 15.8594 15.3911 15.7087L13.6762 16.7377ZM15.9062 16C15.7297 16 15.6395 15.9996 15.5741 15.9958C15.5197 15.9926 15.5318 15.9891 15.5659 16L14.9575 17.9052C15.2896 18.0113 15.6424 18 15.9062 18V16ZM14.2458 17.5019C14.4516 17.6829 14.6933 17.8209 14.9575 17.9052L15.5659 16L15.5665 16L14.2458 17.5019ZM8.0941 8C8.2706 8 8.36049 8.00039 8.42558 8.00421C8.47927 8.00736 8.46727 8.01079 8.43346 8L9.04189 6.09479C8.70991 5.98877 8.35847 6 8.0941 6V8ZM10.3233 7.26236C10.1871 7.0354 10.0157 6.72813 9.75408 6.49805L8.43342 8C8.40677 7.97656 8.40363 7.9646 8.43409 8.00921C8.4709 8.06312 8.5176 8.14014 8.60833 8.29135L10.3233 7.26236ZM8.43346 8L8.43342 8L9.75408 6.49805C9.54708 6.31603 9.30466 6.17871 9.04189 6.09479L8.43346 8ZM15 8L21 8V6L15 6V8Z" fill="black"/>
</svg>
