<svg width="24" height="24" viewBox="0 0 24 24" fill="none" xmlns="http://www.w3.org/2000/svg">
<path d="M20.3501 8.92306L19.9839 8.71933C19.927 8.6877 19.8986 8.67182 19.8711 8.65537C19.598 8.49178 19.368 8.26535 19.2 7.99495C19.1831 7.96774 19.1665 7.93962 19.134 7.88323L19.1338 7.88301C19.1013 7.82669 19.0849 7.79837 19.0698 7.77011C18.9191 7.48879 18.8381 7.17554 18.8332 6.85644C18.8327 6.82765 18.8332 6.79819 18.8341 6.74535L18.8345 6.7263L18.8415 6.3093C18.853 5.62327 18.8587 5.2803 18.7627 4.97275C18.6777 4.70067 18.5358 4.44983 18.346 4.23715C18.1319 3.99717 17.8349 3.82607 17.2425 3.48467L17.2394 3.48289L16.7456 3.19834C16.1527 2.85671 15.8562 2.68596 15.5415 2.62082C15.2631 2.56319 14.9755 2.5655 14.6981 2.62778C14.3853 2.698 14.0927 2.87316 13.5087 3.22288L13.5042 3.22556L13.1504 3.43742C13.0944 3.47092 13.0661 3.48763 13.0381 3.50322C12.7598 3.65794 12.4487 3.74403 12.1304 3.75424C12.0983 3.75527 12.0657 3.75527 12.0005 3.75527H11.9997C11.9348 3.75527 11.9026 3.75527 11.8706 3.75424C11.5517 3.74399 11.2395 3.65751 10.9608 3.50215C10.9337 3.48706 10.9068 3.47091 10.8548 3.43964L10.8487 3.43603L10.4927 3.22226L10.49 3.22065C9.90242 2.86791 9.60836 2.69137 9.29394 2.62082C9.01537 2.55832 8.72642 2.55622 8.44695 2.6146C8.13104 2.68058 7.83365 2.85316 7.23912 3.19821L6.75146 3.48125C6.16002 3.82451 5.86473 3.99607 5.65136 4.23622C5.4626 4.44868 5.32121 4.69894 5.23677 4.97031C5.14131 5.27704 5.14669 5.61897 5.1582 6.30271L5.16534 6.72737C5.16642 6.79167 5.16714 6.82385 5.16668 6.85548C5.16194 7.17522 5.08052 7.48915 4.92941 7.77097C4.91446 7.79884 4.89836 7.82671 4.8662 7.88238C4.83402 7.93809 4.81795 7.96588 4.80126 7.99277C4.63254 8.26462 4.40106 8.49211 4.12626 8.65598C4.09907 8.67219 4.07117 8.68777 4.01488 8.71897L3.65331 8.91933L3.65319 8.9194C3.05171 9.25272 2.75102 9.41936 2.53222 9.65675C2.33865 9.86678 2.19207 10.1159 2.10281 10.3872C2.00204 10.6935 2.00282 11.0369 2.00438 11.7229L2.00439 11.7256L2.00566 12.2877L2.00568 12.2938C2.00722 12.9729 2.00799 13.3134 2.10882 13.6171C2.19829 13.8866 2.34413 14.1339 2.53661 14.3426C2.75395 14.5783 3.05224 14.7443 3.64794 15.0757L3.6499 15.0768L4.00824 15.2761L4.01321 15.2789C4.07091 15.311 4.10066 15.3275 4.12926 15.3447C4.40157 15.5087 4.63056 15.7353 4.79785 16.0056C4.81591 16.0348 4.83326 16.0651 4.86793 16.1257L4.86796 16.1257C4.90222 16.1856 4.91956 16.2155 4.9354 16.2455C5.08207 16.5232 5.16134 16.8315 5.16669 17.1455C5.16727 17.1794 5.16673 17.214 5.16556 17.2829L5.15868 17.6905L5.15866 17.692C5.14709 18.377 5.14131 18.7198 5.23726 19.0271C5.3222 19.2992 5.46451 19.55 5.65429 19.7627C5.86882 20.0031 6.16573 20.1745 6.76025 20.5171L7.25395 20.8016C7.8468 21.1432 8.14366 21.3139 8.45841 21.3791C8.73685 21.4367 9.02431 21.4343 9.30175 21.372C9.61469 21.3018 9.90731 21.1266 10.4919 20.7766L10.4956 20.7743L10.8494 20.5625C10.9054 20.529 10.9336 20.5123 10.9616 20.4967C11.2399 20.342 11.5509 20.2558 11.8691 20.2456C11.9012 20.2446 11.9338 20.2446 11.9991 20.2446C12.0645 20.2446 12.0976 20.2446 12.1297 20.2456C12.4486 20.2559 12.7603 20.3423 13.0391 20.4977C13.0671 20.5133 13.0953 20.5302 13.1514 20.5638L13.5074 20.7776L13.5081 20.778C14.097 21.1315 14.3915 21.3083 14.7063 21.3789C14.9848 21.4414 15.2733 21.4437 15.5527 21.3853C15.8686 21.3193 16.1662 21.1467 16.7607 20.8017L17.2484 20.5186C17.8398 20.1754 18.1352 20.0038 18.3486 19.7636C18.5373 19.5512 18.6787 19.3009 18.7632 19.0296C18.8586 18.7228 18.8531 18.381 18.8416 17.6972L18.8345 17.2726L18.8341 17.251C18.8332 17.2007 18.8328 17.1724 18.8332 17.1445C18.8379 16.8248 18.9192 16.5108 19.0703 16.2289C19.0852 16.2011 19.1013 16.1732 19.1334 16.1177L19.1335 16.1175C19.1657 16.0618 19.1821 16.0339 19.1988 16.0071C19.3675 15.7352 19.5987 15.5078 19.8735 15.344C19.8998 15.3283 19.9272 15.3131 19.9798 15.284L19.9853 15.2809L20.3469 15.0805C20.9485 14.7472 21.249 14.5805 21.4678 14.3431C21.6614 14.1331 21.8077 13.8841 21.897 13.6127C21.9979 13.306 21.9975 12.9621 21.9959 12.2744L21.9946 11.7123C21.9931 11.0291 21.9922 10.6874 21.8911 10.3828C21.8016 10.1133 21.6557 9.86598 21.4632 9.65722C21.2456 9.42125 20.9471 9.25518 20.3501 8.92306Z" stroke="black" stroke-width="2" stroke-linecap="round" stroke-linejoin="round"/>
</svg>
