<svg width="24" height="24" viewBox="0 0 24 24" fill="none" xmlns="http://www.w3.org/2000/svg">
<path d="M20.6602 15.1525V8.84754V8.8428C20.6602 8.1729 20.6602 7.8373 20.5625 7.53675C20.4759 7.27019 20.3344 7.02479 20.1468 6.8165C19.9356 6.58193 19.6448 6.41404 19.0661 6.07991L19.0599 6.07631L13.5996 2.92383L13.5941 2.92063C13.0149 2.58623 12.7249 2.4188 12.416 2.35315C12.1419 2.29488 11.8587 2.29488 11.5846 2.35315C11.2747 2.41901 10.9826 2.5873 10.3997 2.92383L4.93945 6.07631C4.35657 6.41284 4.06548 6.58109 3.85352 6.8165C3.66597 7.02479 3.52434 7.27019 3.43773 7.53675C3.33984 7.83801 3.33984 8.17448 3.33984 8.84754V15.1525C3.33984 15.8256 3.33984 16.1621 3.43773 16.4633C3.52434 16.7299 3.66597 16.9753 3.85352 17.1836C4.06548 17.419 4.35657 17.5873 4.93945 17.9238L10.3997 21.0763C10.9826 21.4128 11.2747 21.5811 11.5846 21.647C11.8587 21.7052 12.1419 21.7052 12.416 21.647C12.7259 21.5811 13.0177 21.4128 13.6006 21.0763L19.0608 17.9238C19.6437 17.5873 19.9349 17.419 20.1468 17.1836C20.3344 16.9753 20.4759 16.7299 20.5625 16.4633C20.6602 16.1628 20.6602 15.8271 20.6602 15.1572V15.1525Z" stroke="black" stroke-width="2" stroke-linecap="round" stroke-linejoin="round"/>
</svg>
