<svg width="24" height="24" viewBox="0 0 24 24" fill="none" xmlns="http://www.w3.org/2000/svg">
<path d="M4.74795 7.64527L4.41797 11.2751L4.41698 11.2859C4.36776 11.8274 4.34299 12.0998 4.38798 12.3585C4.4281 12.5892 4.5081 12.8112 4.625 13.0142C4.75618 13.2419 4.94998 13.4357 5.33507 13.8208L5.3418 13.8275L10.5045 18.9903L10.5092 18.9949C11.2981 19.7838 11.6929 20.1786 12.1486 20.3267C12.5503 20.4572 12.9831 20.4572 13.3848 20.3267C13.8414 20.1783 14.2382 19.7822 15.0303 18.9902L18.9901 15.0304C19.7821 14.2384 20.1773 13.8424 20.3257 13.3858C20.4562 12.9841 20.4562 12.5514 20.3257 12.1497C20.1773 11.6931 19.7819 11.2971 18.9899 10.505L13.8271 5.3423C13.4376 4.95273 13.2427 4.75792 13.0137 4.62599C12.8107 4.50909 12.5886 4.42872 12.3578 4.3886C12.0974 4.34332 11.823 4.36822 11.2743 4.4181L7.64453 4.74808L7.64364 4.74817C6.69947 4.834 6.22698 4.87695 5.85742 5.08246C5.5315 5.2637 5.26271 5.53248 5.08147 5.85841C4.87695 6.22619 4.83427 6.69568 4.74927 7.63081L4.74795 7.64527Z" stroke="black" stroke-width="2" stroke-linecap="round" stroke-linejoin="round"/>
</svg>
