<svg width="24" height="24" viewBox="0 0 24 24" fill="none" xmlns="http://www.w3.org/2000/svg">
<path d="M4 9C4 8.44772 3.55228 8 3 8C2.44772 8 2 8.44772 2 9H4ZM15.0001 22C15.5524 22 16.0001 21.5523 16.0001 21C16.0001 20.4477 15.5524 20 15.0001 20V22ZM3.10899 20.454L2.21799 20.908H2.21799L3.10899 20.454ZM3.5459 20.891L3.99989 20H3.99989L3.5459 20.891ZM17.8002 17V16V17ZM10.2002 17V18V17ZM21.0002 13.8H22.0002H21.0002ZM20.7822 15.908L21.6732 16.362L20.7822 15.908ZM19.9078 16.782L20.3618 17.673L19.9078 16.782ZM19.9078 3.21799L20.3618 2.32698V2.32698L19.9078 3.21799ZM21.0002 6.20002H20.0002H21.0002ZM20.7822 4.09204L21.6732 3.63805V3.63805L20.7822 4.09204ZM7.21799 4.09204L6.32698 3.63805L6.32698 3.63805L7.21799 4.09204ZM8.0918 3.21799L8.54579 4.10899H8.54579L8.0918 3.21799ZM7.21799 15.908L8.10899 15.454L7.21799 15.908ZM8.0918 16.782L8.54579 15.891L8.0918 16.782ZM13 13C13 13.5523 13.4477 14 14 14C14.5523 14 15 13.5523 15 13H13ZM15 7C15 6.44772 14.5523 6 14 6C13.4477 6 13 6.44772 13 7H15ZM11 9C10.4477 9 10 9.44772 10 10C10 10.5523 10.4477 11 11 11V9ZM17 11C17.5523 11 18 10.5523 18 10C18 9.44772 17.5523 9 17 9V11ZM2 9V19.4H4V9H2ZM4.6001 22H15.0001V20H4.6001V22ZM2 19.4C2 19.6635 1.99922 19.9213 2.01695 20.1382C2.03562 20.3668 2.07969 20.6366 2.21799 20.908L4 20C4.02931 20.0575 4.01888 20.0803 4.0103 19.9754C4.00078 19.8588 4 19.6965 4 19.4H2ZM4.6001 20C4.30359 20 4.14127 19.9992 4.02462 19.9897C3.91959 19.9811 3.94233 19.9707 3.99989 20L3.09191 21.782C3.36337 21.9203 3.63319 21.9644 3.86177 21.983C4.07873 22.0008 4.33655 22 4.6001 22V20ZM2.21799 20.908C2.40966 21.2842 2.71543 21.5902 3.09191 21.782L3.99989 20L4 20L2.21799 20.908ZM8 13.8V6.20001H6V13.8H8ZM10.2002 4H17.8002V2H10.2002V4ZM17.8002 16H10.2002V18H17.8002V16ZM20.0002 13.8C20.0002 14.3765 19.9994 14.7488 19.9763 15.0322C19.9541 15.3038 19.9164 15.4045 19.8912 15.454L21.6732 16.362C21.866 15.9836 21.9373 15.5904 21.9696 15.195C22.001 14.8113 22.0002 14.3435 22.0002 13.8H20.0002ZM17.8002 18C18.3438 18 18.8115 18.0008 19.1951 17.9694C19.5904 17.9371 19.9835 17.8657 20.3618 17.673L19.4538 15.891C19.4043 15.9162 19.3036 15.9539 19.0321 15.9761C18.7489 15.9992 18.3767 16 17.8002 16V18ZM19.8912 15.454C19.7956 15.6417 19.6424 15.7949 19.4538 15.891L20.3618 17.673C20.9258 17.3856 21.3854 16.9269 21.6732 16.362L19.8912 15.454ZM17.8002 4C18.3768 4 18.7489 4.00078 19.0321 4.02393C19.3036 4.04611 19.4043 4.08377 19.4538 4.10899L20.3618 2.32698C19.9835 2.13421 19.5904 2.06288 19.1951 2.03057C18.8115 1.99922 18.3437 2 17.8002 2V4ZM22.0002 6.20002C22.0002 5.65647 22.001 5.18867 21.9696 4.80499C21.9373 4.40965 21.866 4.01643 21.6732 3.63805L19.8912 4.54603C19.9164 4.59548 19.9541 4.69619 19.9763 4.96786C19.9994 5.2512 20.0002 5.62347 20.0002 6.20002H22.0002ZM19.4538 4.10899C19.6424 4.20507 19.7956 4.35828 19.8912 4.54603L21.6732 3.63805C21.3854 3.07316 20.9259 2.61439 20.3618 2.32698L19.4538 4.10899ZM8 6.20001C8 5.62346 8.00078 5.25119 8.02393 4.96785C8.04612 4.69619 8.0838 4.59548 8.10899 4.54603L6.32698 3.63805C6.13419 4.01643 6.06287 4.40964 6.03057 4.80499C5.99922 5.18866 6 5.65646 6 6.20001H8ZM10.2002 2C9.65663 2 9.18874 1.99922 8.80498 2.03057C8.40962 2.06286 8.01624 2.13416 7.63781 2.32698L8.54579 4.10899C8.59517 4.08383 8.69595 4.04613 8.9678 4.02393C9.25126 4.00078 9.62365 4 10.2002 4V2ZM8.10899 4.54603C8.205 4.35761 8.35788 4.20474 8.54579 4.10899L7.63781 2.32698C7.07306 2.61473 6.61447 3.07382 6.32698 3.63805L8.10899 4.54603ZM6 13.8C6 14.3436 5.99922 14.8114 6.03057 15.195C6.06287 15.5904 6.13419 15.9836 6.32698 16.362L8.10899 15.454C8.0838 15.4045 8.04612 15.3038 8.02393 15.0322C8.00078 14.7488 8 14.3766 8 13.8H6ZM10.2002 16C9.62367 16 9.25127 15.9992 8.96782 15.9761C8.69598 15.9538 8.59519 15.9161 8.54579 15.891L7.63781 17.673C8.01623 17.8658 8.40959 17.9371 8.80496 17.9694C9.18873 18.0008 9.65662 18 10.2002 18V16ZM6.32698 16.362C6.61449 16.9262 7.0731 17.3853 7.63781 17.673L8.54579 15.891C8.35784 15.7952 8.20498 15.6424 8.10899 15.454L6.32698 16.362ZM20.0002 6.20002V13.8H22.0002V6.20002H20.0002ZM15 13V7H13V13H15ZM11 11H17V9L11 9V11Z" fill="black"/>
</svg>
