<svg width="24" height="24" viewBox="0 0 24 24" fill="none" xmlns="http://www.w3.org/2000/svg">
<path d="M4 14C4 13.4477 3.55228 13 3 13C2.44772 13 2 13.4477 2 14H4ZM21 15H22V15L21 15ZM21 13H20V13L21 13ZM13 10C12.4477 10 12 10.4477 12 11C12 11.5523 12.4477 12 13 12V10ZM19 17V18V17ZM5 17V16V17ZM10 9C10.5523 9 11 8.55229 11 8C11 7.44772 10.5523 7 10 7V9ZM4 7C3.44772 7 3 7.44772 3 8C3 8.55228 3.44772 9 4 9L4 7ZM8 5C8 4.44772 7.55228 4 7 4C6.44772 4 6 4.44772 6 5H8ZM6 11C6 11.5523 6.44772 12 7 12C7.55228 12 8 11.5523 8 11H6ZM2 14V15H4V14H2ZM22 15L22 13L20 13L20 15L22 15ZM19 10H13V12H19V10ZM22 13C22 11.3431 20.6569 10 19 10V12C19.5523 12 20 12.4477 20 13L22 13ZM19 18C20.6569 18 22 16.6569 22 15H20C20 15.5523 19.5523 16 19 16V18ZM2 15C2 16.6569 3.34315 18 5 18V16C4.44772 16 4 15.5523 4 15H2ZM5 18L19 18V16L5 16V18ZM10 7L4 7L4 9L10 9V7ZM6 5V11H8V5H6Z" fill="black"/>
</svg>
