<svg width="24" height="24" viewBox="0 0 24 24" fill="none" xmlns="http://www.w3.org/2000/svg">
<path d="M13 6H14H13ZM12 11C12 11.5523 12.4477 12 13 12C13.5523 12 14 11.5523 14 11H12ZM11.7654 3.15224L11.3827 4.07612L11.3827 4.07612L11.7654 3.15224ZM12.8477 4.23462L13.7715 3.85194L12.8477 4.23462ZM7.15224 4.23462L6.22836 3.85194L6.22836 3.85194L7.15224 4.23462ZM8.23486 3.15224L7.85218 2.22836L7.85218 2.22836L8.23486 3.15224ZM10.0002 22C10.5525 22 11.0002 21.5523 11.0002 21C11.0002 20.4477 10.5525 20 10.0002 20V22ZM8.23486 20.8478L7.85218 21.7717L8.23486 20.8478ZM7.15224 19.7654L8.07612 19.3827H8.07612L7.15224 19.7654ZM19 17C19.5523 17 20 16.5523 20 16C20 15.4477 19.5523 15 19 15V17ZM13 15C12.4477 15 12 15.4477 12 16C12 16.5523 12.4477 17 13 17V15ZM12 6V11H14V6H12ZM10 4C10.4796 4 10.7893 4.00054 11.0262 4.01671C11.2542 4.03227 11.3411 4.05888 11.3827 4.07612L12.1481 2.22836C11.8221 2.09336 11.4922 2.04385 11.1624 2.02135C10.8415 1.99946 10.4523 2 10 2V4ZM14 6C14 5.54768 14.0005 5.15841 13.9786 4.83752C13.9561 4.50766 13.9065 4.1778 13.7715 3.85194L11.9238 4.6173C11.941 4.65898 11.9677 4.74587 11.9832 4.97384C11.9994 5.21079 12 5.52044 12 6H14ZM11.3827 4.07612C11.6276 4.17758 11.8222 4.3722 11.9238 4.6173L13.7715 3.85194C13.4671 3.11693 12.8832 2.53288 12.148 2.22836L11.3827 4.07612ZM8 5.99999C8 5.52036 8.00054 5.21073 8.01671 4.97375C8.03227 4.74575 8.05888 4.65892 8.07612 4.6173L6.22836 3.85194C6.09336 4.17786 6.04385 4.50777 6.02135 4.8376C5.99946 5.15845 6 5.54773 6 5.99999H8ZM10 2C9.54775 2 9.15852 1.99946 8.83772 2.02135C8.5079 2.04386 8.17808 2.09337 7.85218 2.22836L8.61755 4.07612C8.65919 4.05887 8.74599 4.03226 8.97389 4.01671C9.2108 4.00054 9.52037 4 10 4V2ZM8.07612 4.6173C8.17752 4.37249 8.3723 4.17771 8.61755 4.07612L7.85218 2.22836C7.11732 2.53275 6.53293 3.11663 6.22836 3.85194L8.07612 4.6173ZM10.0002 20C9.52061 20 9.21097 19.9995 8.97399 19.9833C8.74599 19.9678 8.65916 19.9411 8.61755 19.9239L7.85218 21.7717C8.17811 21.9067 8.50802 21.9562 8.83785 21.9787C9.15869 22.0006 9.54797 22 10.0002 22V20ZM6 18C6 18.4523 5.99946 18.8415 6.02135 19.1624C6.04385 19.4922 6.09336 19.8221 6.22836 20.148L8.07612 19.3827C8.05888 19.3411 8.03227 19.2542 8.01671 19.0262C8.00054 18.7893 8 18.4796 8 18H6ZM8.61755 19.9239C8.37233 19.8223 8.17754 19.6275 8.07612 19.3827L6.22836 20.148C6.53292 20.8833 7.11729 21.4673 7.85218 21.7717L8.61755 19.9239ZM8 18V5.99999H6V18H8ZM19 15L13 15V17L19 17V15Z" fill="black"/>
</svg>
