<svg width="24" height="24" viewBox="0 0 24 24" fill="none" xmlns="http://www.w3.org/2000/svg">
<path d="M14 12V15.4C14 15.9601 14 16.2401 14.109 16.454C14.2049 16.6422 14.3577 16.7951 14.5459 16.891C14.7598 17 15.04 17 15.6001 17H17.4001C17.9602 17 18.24 17 18.4539 16.891C18.6421 16.7951 18.7952 16.6422 18.8911 16.454C19.0001 16.2401 19 15.96 19 15.4V13.6C19 13.0399 19.0001 12.7599 18.8911 12.546C18.7952 12.3579 18.6421 12.2049 18.4539 12.109C18.24 12 17.9601 12 17.4 12H14ZM14 12V10C14 8.34315 15.3431 7 17 7M5 12V15.4C5 15.9601 5 16.2401 5.10899 16.454C5.20487 16.6422 5.35774 16.7951 5.5459 16.891C5.75981 17 6.04005 17 6.6001 17H8.4001C8.96015 17 9.23998 17 9.45389 16.891C9.64205 16.7951 9.79524 16.6422 9.89111 16.454C10.0001 16.2401 10 15.96 10 15.4V13.6C10 13.0399 10.0001 12.7599 9.89111 12.546C9.79524 12.3579 9.64205 12.2049 9.45389 12.109C9.23998 12 8.96005 12 8.4 12H5ZM5 12V10C5 8.34315 6.34315 7 8 7" stroke="black" stroke-width="2" stroke-linecap="round" stroke-linejoin="round"/>
</svg>
