<svg width="24" height="24" viewBox="0 0 24 24" fill="none" xmlns="http://www.w3.org/2000/svg">
<path d="M19 12V8.59998C19 8.03992 19.0001 7.75993 18.8911 7.54602C18.7952 7.35786 18.6421 7.20487 18.4539 7.10899C18.24 7 17.9602 7 17.4001 7H15.6001C15.04 7 14.7598 7 14.5459 7.10899C14.3577 7.20487 14.2049 7.35786 14.109 7.54602C14 7.75993 14 8.03992 14 8.59998V10.4C14 10.96 14 11.2401 14.109 11.454C14.2049 11.6422 14.3577 11.7951 14.5459 11.891C14.7598 12 15.04 12 15.6001 12L19 12ZM19 12V14C19 15.6569 17.6569 17 16 17M10 12V8.59998C10 8.03992 10.0001 7.75993 9.89111 7.54602C9.79524 7.35786 9.64205 7.20487 9.45389 7.10899C9.23998 7 8.96015 7 8.4001 7H6.6001C6.04005 7 5.75981 7 5.5459 7.10899C5.35774 7.20487 5.20487 7.35786 5.10899 7.54602C5 7.75993 5 8.03992 5 8.59998V10.4C5 10.96 5 11.2401 5.10899 11.454C5.20487 11.6422 5.35774 11.7951 5.5459 11.891C5.75981 12 6.04005 12 6.6001 12L10 12ZM10 12L10 14C10 15.6569 8.65685 17 7 17" stroke="black" stroke-width="2" stroke-linecap="round" stroke-linejoin="round"/>
</svg>
