<svg width="24" height="24" viewBox="0 0 24 24" fill="none" xmlns="http://www.w3.org/2000/svg">
<path d="M18.9545 9.29827C19.1192 8.77113 18.8254 8.21025 18.2983 8.04552C17.7711 7.88079 17.2103 8.17458 17.0455 8.70173L18.9545 9.29827ZM15.5 17L14.5455 16.7017C14.4506 17.0054 14.5059 17.336 14.6943 17.5923C14.8827 17.8486 15.1819 18 15.5 18V17ZM21 18C21.5523 18 22 17.5523 22 17C22 16.4477 21.5523 16 21 16V18ZM21 14C21 13.4477 20.5523 13 20 13C19.4477 13 19 13.4477 19 14H21ZM19 19C19 19.5523 19.4477 20 20 20C20.5523 20 21 19.5523 21 19H19ZM4 5C4 4.44772 3.55228 4 3 4C2.44772 4 2 4.44772 2 5H4ZM2 19C2 19.5523 2.44772 20 3 20C3.55228 20 4 19.5523 4 19H2ZM12 5C12 4.44772 11.5523 4 11 4C10.4477 4 10 4.44772 10 5H12ZM10 19C10 19.5523 10.4477 20 11 20C11.5523 20 12 19.5523 12 19H10ZM17.0455 8.70173L14.5455 16.7017L16.4545 17.2983L18.9545 9.29827L17.0455 8.70173ZM15.5 18H21V16H15.5V18ZM19 14V19H21V14H19ZM2 5V12H4V5H2ZM4 19V12H2V19H4ZM10 5V12H12V5H10ZM12 19V12H10V19H12ZM3 13H11V11H3V13Z" fill="black"/>
</svg>
