<svg width="24" height="24" viewBox="0 0 24 24" fill="none" xmlns="http://www.w3.org/2000/svg">
<path d="M19.5004 13.4332L19.0026 14.3004L19.5004 13.4332ZM19.8756 8.48282C20.1423 7.99917 19.9664 7.39093 19.4827 7.12428C18.9991 6.85763 18.3909 7.03353 18.1242 7.51718L19.8756 8.48282ZM4 5C4 4.44772 3.55228 4 3 4C2.44772 4 2 4.44772 2 5H4ZM2 19C2 19.5523 2.44772 20 3 20C3.55228 20 4 19.5523 4 19H2ZM12 5C12 4.44772 11.5523 4 11 4C10.4477 4 10 4.44772 10 5H12ZM10 19C10 19.5523 10.4477 20 11 20C11.5523 20 12 19.5523 12 19H10ZM19.7338 17.0059C19.183 17.9544 17.9582 18.2836 16.9984 17.7326L16.0026 19.4671C17.9125 20.5635 20.3572 19.9151 21.4634 18.0101L19.7338 17.0059ZM16.9984 17.7326C16.0418 17.1834 15.7184 15.9723 16.2672 15.0272L14.5376 14.0229C13.4296 15.9312 14.0894 18.3688 16.0026 19.4671L16.9984 17.7326ZM16.2672 15.0272C16.818 14.0786 18.0427 13.7494 19.0026 14.3004L19.9983 12.5659C18.0884 11.4695 15.6437 12.1179 14.5376 14.0229L16.2672 15.0272ZM19.0026 14.3004C19.9592 14.8496 20.2825 16.0608 19.7338 17.0059L21.4634 18.0101C22.5714 16.1017 21.9114 13.6642 19.9983 12.5659L19.0026 14.3004ZM16.2781 15.0078L19.8756 8.48282L18.1242 7.51718L14.5267 14.0422L16.2781 15.0078ZM2 5V12H4V5H2ZM4 19V12H2V19H4ZM10 5V12H12V5H10ZM12 19V12H10V19H12ZM3 13H11V11H3V13Z" fill="black"/>
</svg>
