<svg width="24" height="24" viewBox="0 0 24 24" fill="none" xmlns="http://www.w3.org/2000/svg">
<path d="M15 8C14.4477 8 14 8.44772 14 9C14 9.55228 14.4477 10 15 10V8ZM21 9L21.7071 9.70711C21.9931 9.42111 22.0787 8.99099 21.9239 8.61732C21.7691 8.24364 21.4045 8 21 8V9ZM17 13L16.2929 12.2929C16.0069 12.5789 15.9213 13.009 16.0761 13.3827C16.2309 13.7564 16.5955 14 17 14V13ZM16.1139 16.6657C15.9301 16.1449 15.3589 15.8717 14.8381 16.0555C14.3173 16.2394 14.0441 16.8106 14.2279 17.3314L16.1139 16.6657ZM4 5C4 4.44772 3.55228 4 3 4C2.44772 4 2 4.44772 2 5H4ZM2 19C2 19.5523 2.44772 20 3 20C3.55228 20 4 19.5523 4 19H2ZM12 5C12 4.44772 11.5523 4 11 4C10.4477 4 10 4.44772 10 5H12ZM10 19C10 19.5523 10.4477 20 11 20C11.5523 20 12 19.5523 12 19H10ZM15 10H21V8H15V10ZM20.2929 8.29289L16.2929 12.2929L17.7071 13.7071L21.7071 9.70711L20.2929 8.29289ZM17 14H18V12H17V14ZM18 14C19.1046 14 20 14.8954 20 16H22C22 13.7909 20.2091 12 18 12V14ZM20 16C20 17.1046 19.1046 18 18 18V20C20.2091 20 22 18.2091 22 16H20ZM18 18C17.5861 18 17.1823 17.8717 16.8447 17.6328L15.6895 19.2654C16.3652 19.7435 17.1726 20 18 20V18ZM16.8447 17.6328C16.5069 17.3938 16.2516 17.056 16.1139 16.6657L14.2279 17.3314C14.5033 18.1117 15.0139 18.7874 15.6895 19.2654L16.8447 17.6328ZM2 5V12H4V5H2ZM4 19V12H2V19H4ZM10 5V12H12V5H10ZM12 19V12H10V19H12ZM3 13H11V11H3V13Z" fill="black"/>
</svg>
