<svg width="24" height="24" viewBox="0 0 24 24" fill="none" xmlns="http://www.w3.org/2000/svg">
<path d="M15.6838 9.05132C15.1598 9.22596 14.8767 9.79228 15.0513 10.3162C15.226 10.8402 15.7923 11.1233 16.3162 10.9487L15.6838 9.05132ZM19 9L20 9C20 8.67856 19.8455 8.37671 19.5847 8.18876C19.324 8.00081 18.9887 7.94967 18.6838 8.05132L19 9ZM18 19C18 19.5523 18.4477 20 19 20C19.5523 20 20 19.5523 20 19L18 19ZM4 5C4 4.44772 3.55228 4 3 4C2.44772 4 2 4.44772 2 5H4ZM2 19C2 19.5523 2.44772 20 3 20C3.55228 20 4 19.5523 4 19H2ZM12 5C12 4.44772 11.5523 4 11 4C10.4477 4 10 4.44772 10 5H12ZM10 19C10 19.5523 10.4477 20 11 20C11.5523 20 12 19.5523 12 19H10ZM16.3162 10.9487L19.3162 9.94868L18.6838 8.05132L15.6838 9.05132L16.3162 10.9487ZM18 9L18 19L20 19L20 9L18 9ZM2 5V12H4V5H2ZM4 19V12H2V19H4ZM10 5V12H12V5H10ZM12 19V12H10V19H12ZM3 13H11V11H3V13Z" fill="black"/>
</svg>
