<svg width="24" height="24" viewBox="0 0 24 24" fill="none" xmlns="http://www.w3.org/2000/svg">
<path d="M21 10C21.5523 10 22 9.55228 22 9C22 8.44772 21.5523 8 21 8V10ZM17 9V8C16.5409 8 16.1407 8.31267 16.0297 8.75818L17 9ZM15.75 14.0158L14.7797 13.774C14.6682 14.2213 14.877 14.6869 15.2852 14.9012C15.6933 15.1155 16.1951 15.023 16.5 14.6772L15.75 14.0158ZM16 13.764L16.6667 14.5093L16 13.764ZM17.2346 13.0993L16.9795 12.1324L17.2346 13.0993ZM19.3051 13.2986L19.74 12.3981L19.3051 13.2986ZM16.5 17.3228C16.1348 16.9086 15.5028 16.8689 15.0886 17.2342C14.6744 17.5994 14.6347 18.2314 15 18.6456L16.5 17.3228ZM4 5C4 4.44772 3.55228 4 3 4C2.44772 4 2 4.44772 2 5H4ZM2 19C2 19.5523 2.44772 20 3 20C3.55228 20 4 19.5523 4 19H2ZM12 5C12 4.44772 11.5523 4 11 4C10.4477 4 10 4.44772 10 5H12ZM10 19C10 19.5523 10.4477 20 11 20C11.5523 20 12 19.5523 12 19H10ZM21 8H17V10H21V8ZM16.0297 8.75818L14.7797 13.774L16.7203 14.2576L17.9703 9.24182L16.0297 8.75818ZM16.5 14.6772C16.5524 14.6178 16.6081 14.5618 16.6667 14.5093L15.3334 13.0186C15.216 13.1236 15.1046 13.2357 15 13.3544L16.5 14.6772ZM16.6667 14.5093C16.9006 14.3001 17.1821 14.1474 17.4898 14.0662L16.9795 12.1324C16.3641 12.2948 15.8011 12.6003 15.3334 13.0186L16.6667 14.5093ZM17.4898 14.0662C17.951 13.9445 18.4407 13.9916 18.8701 14.1991L19.74 12.3981C18.881 11.9832 17.9018 11.889 16.9795 12.1324L17.4898 14.0662ZM18.8701 14.1991C19.2994 14.4064 19.6404 14.7603 19.8318 15.1975L21.6638 14.3949C21.2811 13.5214 20.5992 12.8131 19.74 12.3981L18.8701 14.1991ZM19.8318 15.1975C20.0233 15.6346 20.0524 16.1255 19.9137 16.5816L21.8273 17.1632C22.1048 16.2503 22.0465 15.2685 21.6638 14.3949L19.8318 15.1975ZM19.9137 16.5816C19.7751 17.0378 19.4778 17.4296 19.0755 17.6862L20.151 19.3724C20.9552 18.8595 21.5499 18.076 21.8273 17.1632L19.9137 16.5816ZM19.0755 17.6862C18.6733 17.9427 18.193 18.047 17.7208 17.9804L17.4413 19.9608C18.386 20.0941 19.3469 19.8853 20.151 19.3724L19.0755 17.6862ZM17.7208 17.9804C17.2485 17.9138 16.8155 17.6805 16.5 17.3228L15 18.6456C15.6309 19.3611 16.4968 19.8275 17.4413 19.9608L17.7208 17.9804ZM2 5V12H4V5H2ZM4 19V12H2V19H4ZM10 5V12H12V5H10ZM12 19V12H10V19H12ZM3 13H11V11H3V13Z" fill="black"/>
</svg>
