<svg width="24" height="24" viewBox="0 0 24 24" fill="none" xmlns="http://www.w3.org/2000/svg">
<path d="M4 16C3.44772 16 3 16.4477 3 17C3 17.5523 3.44772 18 4 18V16ZM11 18C11.5523 18 12 17.5523 12 17C12 16.4477 11.5523 16 11 16V18ZM20.7071 14.7071C21.0976 14.3166 21.0976 13.6834 20.7071 13.2929C20.3166 12.9024 19.6834 12.9024 19.2929 13.2929L20.7071 14.7071ZM16 18L15.2929 18.7071C15.6834 19.0976 16.3166 19.0976 16.7071 18.7071L16 18ZM14.7071 15.2929C14.3166 14.9024 13.6834 14.9024 13.2929 15.2929C12.9024 15.6834 12.9024 16.3166 13.2929 16.7071L14.7071 15.2929ZM4 11C3.44772 11 3 11.4477 3 12C3 12.5523 3.44772 13 4 13V11ZM15 13C15.5523 13 16 12.5523 16 12C16 11.4477 15.5523 11 15 11V13ZM4 6C3.44772 6 3 6.44772 3 7C3 7.55228 3.44772 8 4 8V6ZM15 8C15.5523 8 16 7.55228 16 7C16 6.44772 15.5523 6 15 6V8ZM4 18H11V16H4V18ZM19.2929 13.2929L15.2929 17.2929L16.7071 18.7071L20.7071 14.7071L19.2929 13.2929ZM16.7071 17.2929L14.7071 15.2929L13.2929 16.7071L15.2929 18.7071L16.7071 17.2929ZM4 13H15V11H4V13ZM4 8H15V6H4V8Z" fill="black"/>
</svg>
