<svg width="24" height="24" viewBox="0 0 24 24" fill="none" xmlns="http://www.w3.org/2000/svg">
<path d="M15 8.99999V13C15 14.1046 15.8954 15 17 15C18.1046 15 19 14.1046 19 13V12C19 10.5021 18.5197 9.04381 17.6294 7.83928C16.7391 6.63475 15.4856 5.74756 14.0537 5.30809C12.6218 4.86862 11.0866 4.90002 9.67383 5.39772C8.26109 5.89543 7.04534 6.83319 6.20508 8.07315C5.36482 9.31311 4.94457 10.7899 5.00587 12.2864C5.06717 13.783 5.60689 15.2205 6.54574 16.3876C7.48459 17.5547 8.7732 18.3899 10.2219 18.7704C11.6706 19.1509 13.2029 19.0566 14.5941 18.5015M15 12C15 13.6568 13.6569 15 12 15C10.3431 15 9 13.6568 9 12C9 10.3431 10.3431 8.99999 12 8.99999C13.6569 8.99999 15 10.3431 15 12Z" stroke="black" stroke-width="2" stroke-linecap="round" stroke-linejoin="round"/>
</svg>
