<svg width="24" height="24" viewBox="0 0 24 24" fill="none" xmlns="http://www.w3.org/2000/svg">
<path d="M16.5899 8.82429C16.9804 8.43377 16.9804 7.8006 16.5899 7.41008C16.1994 7.01956 15.5662 7.01956 15.1757 7.41008L16.5899 8.82429ZM7.41399 15.1718C7.02346 15.5623 7.02346 16.1955 7.41399 16.586C7.80451 16.9765 8.43768 16.9765 8.8282 16.586L7.41399 15.1718ZM6 20C4.89543 20 4 19.1046 4 18H2C2 20.2091 3.79086 22 6 22V20ZM4 18C4 16.8954 4.89543 16 6 16V14C3.79086 14 2 15.7909 2 18H4ZM6 16C7.10457 16 8 16.8954 8 18H10C10 15.7909 8.20914 14 6 14V16ZM8 18C8 19.1046 7.10457 20 6 20V22C8.20914 22 10 20.2091 10 18H8ZM18 8C16.8954 8 16 7.10457 16 6H14C14 8.20914 15.7909 10 18 10V8ZM16 6C16 4.89543 16.8954 4 18 4V2C15.7909 2 14 3.79086 14 6H16ZM18 4C19.1046 4 20 4.89543 20 6H22C22 3.79086 20.2091 2 18 2V4ZM20 6C20 7.10457 19.1046 8 18 8V10C20.2091 10 22 8.20914 22 6H20ZM15.1757 7.41008L7.41399 15.1718L8.8282 16.586L16.5899 8.82429L15.1757 7.41008Z" fill="black"/>
</svg>
