<svg width="24" height="24" viewBox="0 0 24 24" fill="none" xmlns="http://www.w3.org/2000/svg">
<path d="M6.20167 18.9296L5.49456 19.6367H5.49456L6.20167 18.9296ZM5.0703 17.7982L5.77741 17.0911L5.0703 17.7982ZM5.0703 13.2727L5.77741 13.9798L5.0703 13.2727ZM13.2727 5.0703L12.5656 4.36319V4.36319L13.2727 5.0703ZM17.7983 5.0703L18.5054 4.36319V4.36319L17.7983 5.0703ZM18.9297 6.20167L18.2226 6.90878V6.90878L18.9297 6.20167ZM18.93 10.7272L18.2229 10.0201V10.0201L18.93 10.7272ZM10.7275 18.9296L11.4346 19.6367L10.7275 18.9296ZM20.2661 7.84635L21.2172 7.53734L20.2661 7.84635ZM20.2661 9.08238L19.315 8.77337L20.2661 9.08238ZM14.9176 3.73387L14.6086 2.78282L14.9176 3.73387ZM16.1538 3.73387L16.4628 2.78282L16.1538 3.73387ZM3.73387 16.1534L2.78282 16.4624L3.73387 16.1534ZM3.73387 14.9174L2.78282 14.6084L3.73387 14.9174ZM7.84684 20.266L8.15586 19.3149H8.15586L7.84684 20.266ZM9.08251 20.266L8.77349 19.3149L9.08251 20.266ZM7.05084 11.2929C6.66032 10.9024 6.02715 10.9024 5.63663 11.2929C5.24611 11.6834 5.24611 12.3166 5.63663 12.7071L7.05084 11.2929ZM7.75795 14.8284C8.14847 15.2189 8.78164 15.2189 9.17216 14.8284C9.56269 14.4379 9.56269 13.8047 9.17216 13.4142L7.75795 14.8284ZM9.87897 8.46427C9.48844 8.07374 8.85528 8.07374 8.46476 8.46427C8.07423 8.85479 8.07423 9.48796 8.46476 9.87848L9.87897 8.46427ZM10.5861 11.9998C10.9766 12.3903 11.6098 12.3903 12.0003 11.9998C12.3908 11.6093 12.3908 10.9761 12.0003 10.5856L10.5861 11.9998ZM12.7071 5.63614C12.3166 5.24562 11.6834 5.24562 11.2929 5.63614C10.9024 6.02667 10.9024 6.65983 11.2929 7.05035L12.7071 5.63614ZM13.4142 9.17168C13.8047 9.5622 14.4379 9.5622 14.8284 9.17168C15.2189 8.78115 15.2189 8.14799 14.8284 7.75746L13.4142 9.17168ZM6.90878 18.2225L5.77741 17.0911L4.36319 18.5053L5.49456 19.6367L6.90878 18.2225ZM5.77741 13.9798L13.9798 5.77741L12.5656 4.36319L4.36319 12.5656L5.77741 13.9798ZM17.0912 5.77741L18.2226 6.90878L19.6368 5.49456L18.5054 4.36319L17.0912 5.77741ZM18.2229 10.0201L10.0204 18.2225L11.4346 19.6367L19.6371 11.4343L18.2229 10.0201ZM18.2226 6.90878C18.6303 7.31646 18.893 7.58024 19.0769 7.79695C19.2533 8.00473 19.2979 8.10259 19.315 8.15537L21.2172 7.53734C21.0859 7.13346 20.8583 6.80499 20.6016 6.5026C20.3525 6.20914 20.0211 5.87891 19.6368 5.49456L18.2226 6.90878ZM19.6371 11.4343C20.0215 11.0498 20.3528 10.7196 20.6019 10.426C20.8586 10.1235 21.086 9.79511 21.2172 9.3914L19.315 8.77337C19.2978 8.82631 19.2532 8.92426 19.0769 9.13198C18.8931 9.34864 18.6305 9.61245 18.2229 10.0201L19.6371 11.4343ZM19.315 8.15537C19.3803 8.35621 19.3803 8.57252 19.315 8.77337L21.2172 9.3914C21.4129 8.78887 21.4129 8.13987 21.2172 7.53734L19.315 8.15537ZM13.9798 5.77741C14.3875 5.36977 14.6513 5.10708 14.8681 4.92312C15.0759 4.74672 15.1738 4.7021 15.2267 4.68493L14.6086 2.78282C14.2048 2.91403 13.8763 3.1416 13.5739 3.39831C13.2803 3.64746 12.95 3.97879 12.5656 4.36319L13.9798 5.77741ZM18.5054 4.36319C18.1211 3.97889 17.7909 3.64754 17.4975 3.39843C17.1952 3.14172 16.8667 2.91406 16.4628 2.78282L15.8448 4.68493C15.8975 4.70206 15.9953 4.7466 16.2031 4.923C16.4198 5.107 16.6835 5.36968 17.0912 5.77741L18.5054 4.36319ZM15.2267 4.68493C15.4275 4.61967 15.6439 4.61967 15.8448 4.68493L16.4628 2.78282C15.8603 2.58704 15.2112 2.58704 14.6086 2.78282L15.2267 4.68493ZM5.77741 17.0911C5.36974 16.6834 5.10705 16.4196 4.92308 16.2029C4.74668 15.9951 4.70208 15.8972 4.68493 15.8444L2.78282 16.4624C2.91404 16.8663 3.14164 17.1948 3.39835 17.4972C3.64749 17.7907 3.97883 18.1209 4.36319 18.5053L5.77741 17.0911ZM4.36319 12.5656C3.97885 12.95 3.64751 13.2802 3.39839 13.5736C3.14168 13.876 2.91405 14.2045 2.78282 14.6084L4.68493 15.2264C4.70207 15.1737 4.74664 15.0758 4.92304 14.868C5.10703 14.6513 5.36971 14.3875 5.77741 13.9798L4.36319 12.5656ZM4.68493 15.8444C4.61967 15.6436 4.61967 15.4273 4.68493 15.2264L2.78282 14.6084C2.58704 15.2109 2.58704 15.8599 2.78282 16.4624L4.68493 15.8444ZM5.49456 19.6367C5.87903 20.0212 6.20937 20.3525 6.50303 20.6016C6.80556 20.8584 7.13409 21.0859 7.53783 21.217L8.15586 19.3149C8.10294 19.2977 8.00489 19.253 7.79702 19.0767C7.58026 18.8927 7.31634 18.63 6.90878 18.2225L5.49456 19.6367ZM10.0204 18.2225C9.61282 18.6301 9.34895 18.8928 9.13221 19.0767C8.92437 19.2531 8.82638 19.2977 8.77349 19.3149L9.39152 21.217C9.79529 21.0858 10.1238 20.8583 10.4263 20.6016C10.7199 20.3525 11.0502 20.0211 11.4346 19.6367L10.0204 18.2225ZM7.53783 21.217C8.14036 21.4128 8.78899 21.4128 9.39152 21.217L8.77349 19.3149C8.57265 19.3802 8.3567 19.3802 8.15586 19.3149L7.53783 21.217ZM5.63663 12.7071L7.75795 14.8284L9.17216 13.4142L7.05084 11.2929L5.63663 12.7071ZM8.46476 9.87848L10.5861 11.9998L12.0003 10.5856L9.87897 8.46427L8.46476 9.87848ZM11.2929 7.05035L13.4142 9.17168L14.8284 7.75746L12.7071 5.63614L11.2929 7.05035Z" fill="black"/>
</svg>
