<svg width="24" height="24" viewBox="0 0 24 24" fill="none" xmlns="http://www.w3.org/2000/svg">
<path d="M10 12V15.4C10 15.9601 10 16.2401 10.109 16.454C10.2049 16.6422 10.3577 16.7951 10.5459 16.891C10.7598 17 11.04 17 11.6001 17H13.4001C13.9602 17 14.24 17 14.4539 16.891C14.6421 16.7951 14.7952 16.6422 14.8911 16.454C15.0001 16.2401 15 15.96 15 15.4V13.6C15 13.0399 15.0001 12.7599 14.8911 12.546C14.7952 12.3579 14.6421 12.2049 14.4539 12.109C14.24 12 13.9601 12 13.4 12H10ZM10 12V10C10 8.34315 11.3431 7 13 7" stroke="black" stroke-width="2" stroke-linecap="round" stroke-linejoin="round"/>
</svg>
