<svg width="24" height="24" viewBox="0 0 24 24" fill="none" xmlns="http://www.w3.org/2000/svg">
<path d="M12.0005 12C12.8959 12 13.7749 12.1924 14.5457 12.5571C14.8939 12.7218 15.2144 12.9189 15.5007 13.1435C15.8482 13.416 16.146 13.7288 16.3825 14.073C16.8139 14.7007 17.0265 15.4097 16.9983 16.1257C16.9702 16.8417 16.702 17.5385 16.2222 18.1434C15.7424 18.7482 15.0684 19.2388 14.2705 19.564C13.4727 19.8893 12.5802 20.0371 11.6865 19.9921C10.7928 19.9471 9.93104 19.711 9.19043 19.3084C8.44982 18.9057 7.85782 18.3513 7.47656 17.7031M4 12H20M16.5243 6.29688C16.143 5.6487 15.5512 5.09432 14.8105 4.69167C14.0699 4.28902 13.2076 4.05287 12.314 4.00789C11.4203 3.96291 10.5278 4.11078 9.72998 4.43599C8.93213 4.76121 8.25812 5.25187 7.77832 5.85671C7.29852 6.46155 7.03057 7.15837 7.00244 7.87437C6.9942 8.08415 7.00666 8.29329 7.03921 8.49999" stroke="black" stroke-width="2" stroke-linecap="round" stroke-linejoin="round"/>
</svg>
