<svg width="24" height="24" viewBox="0 0 24 24" fill="none" xmlns="http://www.w3.org/2000/svg">
<path d="M6.49998 21H20.4706C20.763 21 21.0001 20.763 21.0001 20.4706L21 14.5294M7.98045 20.6713L20.6421 14.7671C20.9071 14.6435 21.0217 14.3285 20.8981 14.0635L18.3872 8.67895C18.2636 8.41396 17.9486 8.29933 17.6836 8.42289L12.0303 11.059M9.88181 18.4049C9.38151 20.272 7.46233 21.3801 5.5952 20.8798C3.72807 20.3795 2.61982 18.4603 3.12011 16.5931L6.73596 3.09863C6.81163 2.81621 7.1018 2.64855 7.38422 2.72422L13.123 4.26193C13.4054 4.3376 13.5731 4.62793 13.4974 4.91035L9.88181 18.4049ZM6.49998 17.6H6.50198L6.50194 17.602L6.49998 17.6019V17.6Z" stroke="black" stroke-width="2" stroke-linecap="round" stroke-linejoin="round"/>
</svg>
