<svg width="24" height="24" viewBox="0 0 24 24" fill="none" xmlns="http://www.w3.org/2000/svg">
<path d="M19 9.00001L19 10C19.2652 10 19.5196 9.89466 19.7071 9.70712C19.8946 9.51958 20 9.26523 20 9.00001H19ZM11.0002 20V21C11.2654 21 11.5198 20.8946 11.7073 20.7071C11.8948 20.5196 12.0002 20.2652 12.0002 20L11.0002 20ZM3.21799 18.908L2.32698 19.362H2.32698L3.21799 18.908ZM4.0918 19.782L4.54579 18.891H4.54579L4.0918 19.782ZM4.0918 4.21799L4.54579 5.10899L4.0918 4.21799ZM3.21799 5.09204L4.10899 5.54603L3.21799 5.09204ZM18.7822 5.09204L17.8912 5.54603V5.54603L18.7822 5.09204ZM17.9078 4.21799L18.3618 3.32698V3.32698L17.9078 4.21799ZM15 15C14.4477 15 14 15.4477 14 16C14 16.5523 14.4477 17 15 17V15ZM21 17C21.5523 17 22 16.5523 22 16C22 15.4477 21.5523 15 21 15V17ZM11 16C11.5523 16 12 15.5523 12 15C12 14.4477 11.5523 14 11 14V16ZM3 14C2.44772 14 2 14.4477 2 15C2 15.5523 2.44772 16 3 16V14ZM12 3.99999C12 3.4477 11.5523 2.99999 11 3C10.4477 3.00001 9.99999 3.44773 10 4.00001L12 3.99999ZM3 8C2.44772 8 2 8.44771 2 9C2 9.55228 2.44771 10 3 10L3 8ZM20 9.00001V7.20001H18V9.00001H20ZM15.8002 3H6.2002V5H15.8002V3ZM2 7.20001V16.8H4V7.20001H2ZM6.2002 21H11.0002V19H6.2002V21ZM2 16.8C2 17.3436 1.99922 17.8114 2.03057 18.195C2.06287 18.5904 2.13419 18.9836 2.32698 19.362L4.10899 18.454C4.0838 18.4045 4.04612 18.3038 4.02393 18.0322C4.00078 17.7488 4 17.3766 4 16.8H2ZM6.2002 19C5.62367 19 5.25127 18.9992 4.96782 18.9761C4.69598 18.9538 4.59519 18.9161 4.54579 18.891L3.63781 20.673C4.01623 20.8658 4.40959 20.9371 4.80496 20.9694C5.18873 21.0008 5.65662 21 6.2002 21V19ZM2.32698 19.362C2.61449 19.9262 3.0731 20.3853 3.63781 20.673L4.54579 18.891C4.35784 18.7952 4.20498 18.6424 4.10899 18.454L2.32698 19.362ZM6.2002 3C5.65663 3 5.18874 2.99922 4.80498 3.03057C4.40962 3.06286 4.01624 3.13416 3.63781 3.32698L4.54579 5.10899C4.59517 5.08383 4.69595 5.04613 4.9678 5.02393C5.25126 5.00078 5.62365 5 6.2002 5V3ZM4 7.20001C4 6.62346 4.00078 6.25119 4.02393 5.96785C4.04612 5.69619 4.0838 5.59548 4.10899 5.54603L2.32698 4.63805C2.13419 5.01643 2.06287 5.40964 2.03057 5.80499C1.99922 6.18866 2 6.65646 2 7.20001H4ZM3.63781 3.32698C3.07306 3.61473 2.61447 4.07382 2.32698 4.63805L4.10899 5.54603C4.205 5.35761 4.35788 5.20474 4.54579 5.10899L3.63781 3.32698ZM20 7.20001C20 6.65656 20.0008 6.18875 19.9696 5.80515C19.9373 5.40986 19.8661 5.01654 19.6732 4.63805L17.8912 5.54603C17.9164 5.59536 17.954 5.69598 17.9762 5.96769C17.9993 6.2511 18 6.62336 18 7.20001H20ZM15.8002 5C16.3768 5 16.7489 5.00078 17.0321 5.02393C17.3036 5.04611 17.4043 5.08377 17.4538 5.10899L18.3618 3.32698C17.9835 3.13421 17.5904 3.06288 17.1951 3.03057C16.8115 2.99922 16.3437 3 15.8002 3V5ZM19.6732 4.63805C19.3854 4.07315 18.9259 3.61439 18.3618 3.32698L17.4538 5.10899C17.6424 5.20508 17.7956 5.35828 17.8912 5.54603L19.6732 4.63805ZM15 17H21V15H15V17ZM11 14H3V16H11V14ZM10 4.00001L10.0002 20L12.0002 20L12 3.99999L10 4.00001ZM19 8.00001L3 8L3 10L19 10L19 8.00001Z" fill="black"/>
</svg>
