<svg width="24" height="24" viewBox="0 0 24 24" fill="none" xmlns="http://www.w3.org/2000/svg">
<path d="M6.87393 5.23303C5.7112 6.48279 5 8.15833 5 9.99998V13.7224C5 13.9002 4.92939 14.0706 4.80371 14.1963L4.29297 14.7071C4.10544 14.8947 4 15.1489 4 15.4141V16L4.00673 16.1166C4.06449 16.614 4.48728 17 5.00011 17L19 17M5 3L21 19M18.9995 12.999L19.0004 10C19.0004 6.13402 15.8665 3 12.0005 3L11.7598 3.00406C10.9548 3.03125 10.1845 3.19432 9.4707 3.47109M9 17V18C9 19.6569 10.3431 21 12 21C13.6569 21 15 19.6569 15 18V17H9Z" stroke="black" stroke-width="2" stroke-linecap="round" stroke-linejoin="round"/>
</svg>
