<svg width="24" height="24" viewBox="0 0 24 24" fill="none" xmlns="http://www.w3.org/2000/svg">
<path d="M15 9L11 13L9 11M21 7.19995V14.8C21 15.9201 21.0002 16.4802 20.7822 16.908C20.5905 17.2844 20.2841 17.5902 19.9078 17.782C19.48 18 18.9202 18 17.8001 18H9.12256C8.70652 18 8.49829 18 8.29932 18.0408C8.12279 18.0771 7.95219 18.137 7.79172 18.219C7.61084 18.3114 7.44844 18.4413 7.12357 18.7012L5.59961 19.9203C4.76744 20.5861 4.35115 20.919 4.00098 20.9194C3.69644 20.9197 3.40845 20.7813 3.21846 20.5432C3 20.2696 3 19.7367 3 18.671V7.19995C3 6.07985 3 5.51986 3.21799 5.09204C3.40973 4.71572 3.71547 4.40973 4.0918 4.21799C4.51962 4 5.08009 4 6.2002 4H17.8002C18.9203 4 19.48 4 19.9078 4.21799C20.2841 4.40973 20.5905 4.71572 20.7822 5.09204C21.0002 5.51986 21 6.07985 21 7.19995Z" stroke="black" stroke-width="2" stroke-linecap="round" stroke-linejoin="round"/>
</svg>
