<svg width="24" height="24" viewBox="0 0 24 24" fill="none" xmlns="http://www.w3.org/2000/svg">
<path d="M4 10L12.2286 16L19.9999 10M6.2002 21H17.8002C18.9203 21 19.48 21 19.9078 20.782C20.2841 20.5902 20.5905 20.2842 20.7822 19.9079C21.0002 19.4801 21 18.9201 21 17.8V11.5372C21 10.9727 21 10.6904 20.9282 10.4298C20.8646 10.1989 20.7599 9.98128 20.6194 9.78734C20.4608 9.56843 20.2409 9.39197 19.8002 9.03914L14.2012 4.55628C13.506 3.99966 13.1581 3.72144 12.7715 3.61096C12.4304 3.51348 12.0697 3.50844 11.726 3.59644C11.3365 3.69617 10.9814 3.9648 10.271 4.50195L4.27002 9.03974C3.80429 9.39191 3.57123 9.56793 3.40332 9.79049C3.2546 9.98761 3.14377 10.2106 3.07624 10.4481C3 10.7163 3 11.0081 3 11.592V17.7999C3 18.92 3 19.4801 3.21799 19.9079C3.40973 20.2842 3.71547 20.5902 4.0918 20.782C4.51962 21 5.08009 21 6.2002 21Z" stroke="black" stroke-width="2" stroke-linecap="round" stroke-linejoin="round"/>
</svg>
