<svg width="24" height="24" viewBox="0 0 24 24" fill="none" xmlns="http://www.w3.org/2000/svg">
<g clip-path="url(#clip0_201_7504)">
<path d="M12 0C9.93 0 7.98 0.57 6.27 1.5L15.93 8.52L18.18 1.77C16.38 0.69 14.25 0 12 0V0ZM3.75 3.39C1.47 5.58 0 8.61 0 12.03C0 12.78 0.06 13.47 0.18 14.19L9.45 7.53L3.72 3.39H3.75ZM20.64 3.78L16.98 15.03H23.55C23.79 14.07 24.03 13.08 24.03 12.03C24.03 8.82 22.71 5.94 20.64 3.78ZM6.48 13.44L1.23 17.19C2.88 20.58 6.03 23.16 9.87 23.85L6.48 13.44ZM11.16 18.03L13.05 23.94C17.04 23.58 20.43 21.3 22.32 18.03H11.16Z" fill="black"/>
</g>
<defs>
<clipPath id="clip0_201_7504">
<rect width="24" height="24" fill="white"/>
</clipPath>
</defs>
</svg>
