<svg width="24" height="24" viewBox="0 0 24 24" fill="none" xmlns="http://www.w3.org/2000/svg">
<g clip-path="url(#clip0_201_7554)">
<path d="M3.48 2.99997C1.32 5.15997 0 8.12997 0 11.43C0 14.73 1.29 17.79 3.48 19.95L5.64 17.79C4.02 16.17 3 13.92 3 11.4C3 8.90997 3.99 6.74997 5.64 5.12997L3.48 2.96997V2.99997ZM20.55 2.99997L18.39 5.15997C20.01 6.77997 21.03 8.93997 21.03 11.43C21.03 13.92 20.04 16.17 18.39 17.82L20.55 19.98C22.71 17.82 24.03 14.76 24.03 11.46C24.03 8.15997 22.74 5.18997 20.55 3.02997V2.99997ZM7.8 7.22997C6.72 8.30997 6.03 9.80997 6.03 11.46C6.03 13.11 6.72 14.7 7.8 15.78L9.87 13.62C9.33 13.08 9.03 12.3 9.03 11.46C9.03 10.62 9.33 9.95997 9.87 9.38997L7.8 7.22997ZM16.23 7.22997L14.16 9.38997C14.7 9.92997 15 10.62 15 11.46C15 12.3 14.7 13.08 14.16 13.62L16.23 15.78C17.31 14.7 18 13.11 18 11.46C18 9.80997 17.31 8.30997 16.23 7.22997Z" fill="black"/>
</g>
<defs>
<clipPath id="clip0_201_7554">
<rect width="24" height="24" fill="white"/>
</clipPath>
</defs>
</svg>
