<svg width="24" height="24" viewBox="0 0 24 24" fill="none" xmlns="http://www.w3.org/2000/svg">
<g clip-path="url(#clip0_201_7638)">
<path d="M4.02 0.000166941C3.62218 0.0638189 3.26593 0.282899 3.02963 0.609212C2.79334 0.935526 2.69635 1.34234 2.76 1.74017C2.82365 2.13799 3.04273 2.49424 3.36905 2.73053C3.69536 2.96683 4.10218 3.06382 4.5 3.00017H6V7.23017C5.73 7.74017 2.4 14.1602 1.02 16.5002C0.54 17.2802 0 18.3302 0 19.6802C0 20.8502 0.45 21.9902 1.23 22.7702C2.01 23.5502 3.15 24.0002 4.32 24.0002H19.71C20.85 24.0002 21.93 23.5202 22.71 22.7702H22.8C23.58 21.9902 24.03 20.8502 24.03 19.6802C24.03 18.3302 23.46 17.2802 23.01 16.5002C21.63 14.1602 18.3 7.74017 18.03 7.23017V3.00017H19.53C19.9278 3.00017 20.3094 2.84213 20.5907 2.56083C20.872 2.27952 21.03 1.89799 21.03 1.50017C21.03 1.10234 20.872 0.720811 20.5907 0.439507C20.3094 0.158202 19.9278 0.000166942 19.53 0.000166942H4.53C4.44018 -0.00794953 4.34982 -0.00794953 4.26 0.000166941C4.20005 -0.0034363 4.13995 -0.0034363 4.08 0.000166941H4.02ZM9 3.00017H15V7.89017L15.18 8.16017C15.18 8.16017 17.07 11.8502 18.75 15.0002H5.25C6.93 11.8502 8.82 8.16017 8.82 8.16017L9 7.89017V3.00017Z" fill="black"/>
</g>
<defs>
<clipPath id="clip0_201_7638">
<rect width="24" height="24" fill="white"/>
</clipPath>
</defs>
</svg>
