<svg width="24" height="24" viewBox="0 0 24 24" fill="none" xmlns="http://www.w3.org/2000/svg">
<g clip-path="url(#clip0_201_7596)">
<path d="M8.99999 0C7.34999 0 5.99999 1.35 5.99999 3V6H0.269986C0.089986 6 -1.40388e-05 6.12 -1.40388e-05 6.27V13.5C-1.40388e-05 14.34 0.659986 15 1.49999 15H22.5C23.34 15 24 14.34 24 13.5V6.27C24 6.09 23.88 6 23.73 6H18V3C18 1.35 16.65 0 15 0H8.99999V0ZM8.99999 3H15V6H8.99999V3ZM-1.40388e-05 17.73V23.73C-1.40388e-05 23.88 0.119986 24 0.269986 24H23.7C23.85 24 23.97 23.88 23.97 23.73V17.73C23.49 17.91 23.01 18 22.47 18H1.46999C0.929986 18 0.449986 17.88 -0.030014 17.73H-1.40388e-05Z" fill="black"/>
</g>
<defs>
<clipPath id="clip0_201_7596">
<rect width="24" height="24" fill="white"/>
</clipPath>
</defs>
</svg>
