<svg width="24" height="24" viewBox="0 0 24 24" fill="none" xmlns="http://www.w3.org/2000/svg">
<g clip-path="url(#clip0_201_7646)">
<path d="M12 0C10.14 0 8.52 0.78 7.5 2.07C6.48 3.36 6 5.04 6 6.75C6 8.82 6.48 10.5 6.75 12H3V15H6.66C6.33 16.35 5.55 17.88 3.48 19.98L3 20.37V24.03H21V21.03H6.27C8.19 18.84 9.21 16.83 9.66 15.03H15V12.03H9.84C9.6 9.99 9 8.31 9 6.78C9 5.61 9.33 4.59 9.84 3.96C10.35 3.33 10.95 3.03 12 3.03C13.17 3.03 13.83 3.36 14.25 3.78C14.67 4.2 15 4.86 15 6.03H18C18 4.29 17.49 2.73 16.41 1.62C15.3 0.51 13.74 0.03 12 0.03V0Z" fill="black"/>
</g>
<defs>
<clipPath id="clip0_201_7646">
<rect width="24" height="24" fill="white"/>
</clipPath>
</defs>
</svg>
