<svg width="24" height="24" viewBox="0 0 24 24" fill="none" xmlns="http://www.w3.org/2000/svg">
<g clip-path="url(#clip0_201_7584)">
<path d="M1.0199 0.000166942C0.709432 0.104536 0.441656 0.30766 0.257475 0.578515C0.0732933 0.849371 -0.0171694 1.17307 -9.62941e-05 1.50017V22.5002C-9.62941e-05 22.898 0.157939 23.2795 0.439244 23.5608C0.720548 23.8421 1.10208 24.0002 1.4999 24.0002H22.4999C22.8977 24.0002 23.2793 23.8421 23.5606 23.5608C23.8419 23.2795 23.9999 22.898 23.9999 22.5002V1.50017C23.9999 1.10234 23.8419 0.720811 23.5606 0.439507C23.2793 0.158202 22.8977 0.000166941 22.4999 0.000166941L1.4999 0.000166942C1.41009 -0.00794953 1.31972 -0.00794953 1.2299 0.000166941C1.16996 -0.0034363 1.10985 -0.0034363 1.0499 0.000166941L1.0199 0.000166942ZM4.4999 3.00017C5.3399 3.00017 5.9999 3.66017 5.9999 4.50017C5.9999 5.34017 5.3399 6.00017 4.4999 6.00017C3.6599 6.00017 2.9999 5.34017 2.9999 4.50017C2.9999 3.66017 3.6599 3.00017 4.4999 3.00017ZM10.4999 3.00017H19.4999C20.3399 3.00017 20.9999 3.66017 20.9999 4.50017C20.9999 5.34017 20.3399 6.00017 19.4999 6.00017H10.4999C9.6599 6.00017 8.9999 5.34017 8.9999 4.50017C8.9999 3.66017 9.6599 3.00017 10.4999 3.00017ZM2.9999 9.00017H20.9999V21.0002H2.9999V9.00017Z" fill="black"/>
</g>
<defs>
<clipPath id="clip0_201_7584">
<rect width="24" height="24" fill="white"/>
</clipPath>
</defs>
</svg>
