<svg width="24" height="24" viewBox="0 0 24 24" fill="none" xmlns="http://www.w3.org/2000/svg">
<g clip-path="url(#clip0_201_7602)">
<path d="M22.32 0.0900281C22.23 0.0900281 22.2 0.150028 22.14 0.180028L10.89 8.16003C10.77 8.25003 10.59 8.49003 10.5 8.64003L10.11 9.39003C12.27 10.08 13.92 11.73 14.61 13.89L15.36 13.5C15.51 13.41 15.72 13.26 15.84 13.11L23.82 1.86003C23.91 1.71003 23.94 1.59003 23.82 1.47003L22.5 0.150028C22.44 0.0900281 22.38 0.0600281 22.32 0.0600281V0.0900281ZM7.98002 12C5.76002 12 4.05002 13.83 4.05002 16.02C4.05002 18.99 2.40002 21.57 0.0300198 22.95C1.20002 23.61 2.61002 23.97 4.05002 23.97C8.46002 23.97 12.03 20.43 12.03 15.99C12.03 13.77 10.2 11.97 8.01002 11.97L7.98002 12Z" fill="black"/>
</g>
<defs>
<clipPath id="clip0_201_7602">
<rect width="24" height="24" fill="white"/>
</clipPath>
</defs>
</svg>
