<svg width="24" height="24" viewBox="0 0 24 24" fill="none" xmlns="http://www.w3.org/2000/svg">
<g clip-path="url(#clip0_201_7572)">
<path d="M10.5001 -2.92957e-05C6.9301 -2.92957e-05 4.5601 5.06997 6.9301 7.49997C6.6601 7.70997 6.3301 7.91997 6.0901 8.15997L2.1601 6.17997C1.85226 6.00076 1.49069 5.93696 1.1401 5.99997C0.837672 6.07394 0.565756 6.24019 0.362062 6.47565C0.158367 6.71112 0.0329896 7.00413 0.00331584 7.31406C-0.0263579 7.62398 0.041143 7.93546 0.196458 8.2053C0.351772 8.47514 0.587203 8.68996 0.8701 8.81997L4.3501 10.5C4.0801 10.98 3.7801 11.49 3.6001 12H1.5301C1.44028 11.9919 1.34992 11.9919 1.2601 12C1.06312 12.0177 0.871555 12.0741 0.696351 12.1658C0.521147 12.2576 0.365732 12.3829 0.238981 12.5348C0.112229 12.6866 0.0166216 12.8619 -0.0423815 13.0507C-0.101385 13.2394 -0.122628 13.438 -0.1049 13.635C-0.0871715 13.832 -0.030818 14.0235 0.0609431 14.1987C0.152704 14.3739 0.278076 14.5293 0.429899 14.6561C0.581723 14.7828 0.757026 14.8785 0.945799 14.9375C1.13457 14.9965 1.33312 15.0177 1.5301 15H3.0301C3.0301 15.69 3.0901 16.35 3.2101 16.98L0.8701 18.21C0.65918 18.2715 0.464349 18.3786 0.299382 18.5237C0.134415 18.6688 0.00333951 18.8484 -0.0845763 19.0498C-0.172492 19.2511 -0.215102 19.4693 -0.209393 19.6889C-0.203685 19.9086 -0.149797 20.1243 -0.0515406 20.3208C0.0467161 20.5173 0.186943 20.6898 0.359225 20.8262C0.531508 20.9625 0.73164 21.0594 0.945471 21.1098C1.1593 21.1603 1.38161 21.1632 1.59668 21.1183C1.81175 21.0734 2.01433 20.9818 2.1901 20.85L4.1701 19.83C4.9201 21.21 6.0301 22.38 7.2601 23.1C8.3101 22.53 9.0301 21.78 9.0301 20.94V16.62C9.03822 16.5302 9.03822 16.4398 9.0301 16.35V13.92C9.0791 13.7027 9.0791 13.4772 9.0301 13.26C9.1801 12.57 9.8101 12.03 10.5301 12.03C11.3701 12.03 12.0301 12.69 12.0301 13.53V16.17C12.022 16.2598 12.022 16.3502 12.0301 16.44V16.62C12.022 16.7098 12.022 16.8002 12.0301 16.89V20.91C12.0301 21.72 12.7501 22.5 13.8001 23.07C15.0301 22.32 16.1701 21.18 16.8901 19.8L18.8701 20.82C19.0459 20.9518 19.2484 21.0434 19.4635 21.0883C19.6786 21.1332 19.9009 21.1303 20.1147 21.0798C20.3286 21.0294 20.5287 20.9325 20.701 20.7962C20.8733 20.6598 21.0135 20.4873 21.1117 20.2908C21.21 20.0943 21.2639 19.8786 21.2696 19.6589C21.2753 19.4393 21.2327 19.2211 21.1448 19.0198C21.0569 18.8184 20.9258 18.6388 20.7608 18.4937C20.5959 18.3486 20.401 18.2415 20.1901 18.18L17.8501 16.95C17.9701 16.32 18.0301 15.66 18.0301 14.97H19.5301C19.9279 14.97 20.3095 14.8119 20.5908 14.5306C20.8721 14.2493 21.0301 13.8678 21.0301 13.47C21.0301 13.0721 20.8721 12.6906 20.5908 12.4093C20.3095 12.128 19.9279 11.97 19.5301 11.97H17.4601C17.2801 11.46 16.9801 10.95 16.7101 10.47L20.1901 8.78997C20.5131 8.6293 20.7675 8.35758 20.9064 8.02462C21.0454 7.69165 21.0597 7.31976 20.9467 6.97711C20.8337 6.63447 20.601 6.34403 20.2912 6.15905C19.9814 5.97407 19.6154 5.90694 19.2601 5.96997C19.1221 6.01095 18.9908 6.07157 18.8701 6.14997L14.9401 8.12997C14.6701 7.88997 14.3701 7.67997 14.1001 7.46997C16.4401 4.97997 14.1001 -0.0300293 10.5301 -0.0300293L10.5001 -2.92957e-05Z" fill="black"/>
</g>
<defs>
<clipPath id="clip0_201_7572">
<rect width="24" height="24" fill="white"/>
</clipPath>
</defs>
</svg>
