<svg width="24" height="24" viewBox="0 0 24 24" fill="none" xmlns="http://www.w3.org/2000/svg">
<g clip-path="url(#clip0_201_7590)">
<path d="M18 0V18C18.09 18.03 18.21 18 18.27 18H20.7C20.85 18 20.97 17.88 20.97 17.73V0.3C20.97 0.12 20.85 0.03 20.7 0.03H17.97L18 0ZM15 1.5L6.27 5.91C6.12 5.97 5.88 6 5.7 6H0.27C0.09 6 0 6.12 0 6.27V11.7C0 11.88 0.12 11.97 0.27 11.97H3L6.09 20.13C6.42 20.88 7.41 21.21 8.16 20.88C8.91 20.55 9.24 19.56 8.91 18.81L6.66 13.47C6.75 13.05 7.05 12.81 7.5 12.81V12.72L15 16.47V1.47V1.5Z" fill="black"/>
</g>
<defs>
<clipPath id="clip0_201_7590">
<rect width="24" height="24" fill="white"/>
</clipPath>
</defs>
</svg>
