<svg width="24" height="24" viewBox="0 0 24 24" fill="none" xmlns="http://www.w3.org/2000/svg">
<g clip-path="url(#clip0_201_7578)">
<path d="M-1.97608e-05 0V6H21V0H-1.97608e-05ZM-1.97608e-05 9V23.73C-1.97608e-05 23.88 0.11998 24 0.26998 24H20.7C20.85 24 20.97 23.88 20.97 23.73V9H-0.0300198H-1.97608e-05ZM2.99998 12H5.99998V15H2.99998V12ZM8.99998 12H12V15H8.99998V12ZM15 12H18V15H15V12ZM2.99998 18H5.99998V21H2.99998V18ZM8.99998 18H12V21H8.99998V18Z" fill="black"/>
</g>
<defs>
<clipPath id="clip0_201_7578">
<rect width="24" height="24" fill="white"/>
</clipPath>
</defs>
</svg>
