<svg width="24" height="24" viewBox="0 0 24 24" fill="none" xmlns="http://www.w3.org/2000/svg">
<g clip-path="url(#clip0_201_7546)">
<path d="M12.27 0C12.12 0 11.97 0.12 11.88 0.27L9.05997 5.7C8.99997 5.85 8.84997 5.97 8.66997 5.97H4.43997C1.94997 5.97 -0.0600281 7.98 -0.0600281 10.47V23.7C-0.0600281 23.85 0.0599719 23.97 0.209972 23.97H23.64C23.79 23.97 23.91 23.85 23.91 23.7V6.27C23.91 6.09 23.79 6 23.64 6H21.21C21.06 6 20.91 5.88 20.82 5.73L18 0.3C17.91 0.15 17.79 0.03 17.61 0.03H12.18L12.27 0ZM4.49997 9C5.33997 9 5.99997 9.66 5.99997 10.5C5.99997 11.34 5.33997 12 4.49997 12C3.65997 12 2.99997 11.34 2.99997 10.5C2.99997 9.66 3.65997 9 4.49997 9ZM15 9C18.3 9 21 11.7 21 15C21 18.3 18.3 21 15 21C11.7 21 8.99997 18.3 8.99997 15C8.99997 11.7 11.7 9 15 9ZM15 12C13.35 12 12 13.35 12 15C12 16.65 13.35 18 15 18C16.65 18 18 16.65 18 15C18 13.35 16.65 12 15 12Z" fill="black"/>
</g>
<defs>
<clipPath id="clip0_201_7546">
<rect width="24" height="24" fill="white"/>
</clipPath>
</defs>
</svg>
