<svg width="24" height="24" viewBox="0 0 24 24" fill="none" xmlns="http://www.w3.org/2000/svg">
<g clip-path="url(#clip0_201_7482)">
<path d="M13.5 0C9.87 0 6.69 2.58 6 6C2.7 6 0 8.7 0 12C0 13.11 0.33 14.13 0.84 15H9V13.5C9 11.01 11.01 9 13.5 9C15.99 9 18 11.01 18 13.5V15H23.73C23.91 14.52 24 14.04 24 13.5C24 11.55 22.74 9.63 21 9V7.5C21 3.36 17.64 0 13.5 0ZM13.02 12C12.7095 12.1044 12.4418 12.3075 12.2576 12.5783C12.0734 12.8492 11.9829 13.1729 12 13.5V18H7.5L13.5 24L19.5 18H15V13.5C15.0036 13.2781 14.958 13.0581 14.8663 12.856C14.7747 12.6539 14.6393 12.4746 14.47 12.3311C14.3007 12.1876 14.1016 12.0835 13.8872 12.0262C13.6728 11.969 13.4483 11.96 13.23 12C13.1701 11.9964 13.1099 11.9964 13.05 12H13.02Z" fill="black"/>
</g>
<defs>
<clipPath id="clip0_201_7482">
<rect width="24" height="24" fill="white"/>
</clipPath>
</defs>
</svg>
