<svg width="24" height="24" viewBox="0 0 24 24" fill="none" xmlns="http://www.w3.org/2000/svg">
<g clip-path="url(#clip0_201_7478)">
<path d="M13.5 0C9.87 0 6.69 2.58 6 6C2.7 6 0 8.7 0 12C0 13.11 0.33 14.13 0.84 15H7.5L13.5 9L19.5 15H23.73C23.91 14.52 24 14.04 24 13.5C24 11.55 22.74 9.63 21 9V7.5C21 3.36 17.64 0 13.5 0ZM13.5 13.5L6 21H12V22.5C12 22.8978 12.158 23.2794 12.4393 23.5607C12.7206 23.842 13.1022 24 13.5 24C13.8978 24 14.2794 23.842 14.5607 23.5607C14.842 23.2794 15 22.8978 15 22.5V21H21L13.5 13.5Z" fill="black"/>
</g>
<defs>
<clipPath id="clip0_201_7478">
<rect width="24" height="24" fill="white"/>
</clipPath>
</defs>
</svg>
