<svg width="24" height="24" viewBox="0 0 24 24" fill="none" xmlns="http://www.w3.org/2000/svg">
<g clip-path="url(#clip0_201_7450)">
<path d="M12 0C5.4 0 0 5.4 0 12C0 18.6 5.4 24 12 24C18.6 24 24 18.6 24 12C24 5.4 18.6 0 12 0ZM12 3C16.98 3 21 7.02 21 12C21 16.98 16.98 21 12 21C7.02 21 3 16.98 3 12C3 7.02 7.02 3 12 3ZM18 6L9 9L6 18L15 15L18 6ZM12 10.5C12.84 10.5 13.5 11.16 13.5 12C13.5 12.84 12.84 13.5 12 13.5C11.16 13.5 10.5 12.84 10.5 12C10.5 11.16 11.16 10.5 12 10.5Z" fill="black"/>
</g>
<defs>
<clipPath id="clip0_201_7450">
<rect width="24" height="24" fill="white"/>
</clipPath>
</defs>
</svg>
