<svg width="24" height="24" viewBox="0 0 24 24" fill="none" xmlns="http://www.w3.org/2000/svg">
<g clip-path="url(#clip0_201_7428)">
<path d="M8.99999 0V3H6.74999C4.70999 3 2.99999 4.71 2.99999 6.75V8.25C2.99999 10.29 4.31999 11.97 6.26999 12.48L13.95 14.46C14.37 14.58 14.97 15.33 14.97 15.78V17.28C14.97 17.7 14.64 18.03 14.22 18.03H6.71999C6.35999 18.03 6.08999 17.91 5.96999 17.85V15.03H2.96999V18.03C2.96999 19.05 3.56999 19.92 4.28999 20.37C4.97999 20.85 5.84999 21.03 6.71999 21.03H8.96999V24.03H11.97V21.03H14.22C16.29 21.03 17.97 19.35 17.97 17.28V15.78C17.97 13.74 16.65 12.06 14.7 11.55L7.01999 9.57C6.59999 9.45 5.99999 8.7 5.99999 8.25V6.75C5.99999 6.33 6.32999 6 6.74999 6H14.25C14.58 6 14.88 6.12 15 6.18V9H18V6C18 4.98 17.4 4.11 16.68 3.66C15.99 3.18 15.12 3 14.25 3H12V0H8.99999V0Z" fill="black"/>
</g>
<defs>
<clipPath id="clip0_201_7428">
<rect width="24" height="24" fill="white"/>
</clipPath>
</defs>
</svg>
