<svg width="24" height="24" viewBox="0 0 24 24" fill="none" xmlns="http://www.w3.org/2000/svg">
<g clip-path="url(#clip0_201_7470)">
<path d="M15 0C9.42 0 4.8 3.84 3.48 9H-2.25L-3 12H3.03C3.03 13.05 3.24 14.04 3.51 15H-2.4L-2.97 18H4.71C6.81 21.57 10.62 24 15.03 24C17.22 24 19.26 23.37 21.03 22.32V18.66C19.44 20.1 17.37 21 15.03 21C12.36 21 10.02 19.83 8.37 18H15.03L15.51 15H6.6C6.27 14.04 6.03 13.08 6.03 12H16.05L16.53 9H6.6C7.83 5.52 11.13 3 15.03 3C17.01 3 18.81 3.63 20.28 4.68L20.76 1.5C19.05 0.57 17.13 0 15.03 0H15Z" fill="black"/>
</g>
<defs>
<clipPath id="clip0_201_7470">
<rect width="24" height="24" fill="white"/>
</clipPath>
</defs>
</svg>
