<svg width="24" height="24" viewBox="0 0 24 24" fill="none" xmlns="http://www.w3.org/2000/svg">
<g clip-path="url(#clip0_201_7402)">
<path d="M9.93 0.000179417C9.68161 0.0799333 9.45831 0.223091 9.28216 0.415518C9.106 0.607945 8.98308 0.842988 8.92552 1.09744C8.86797 1.35189 8.87777 1.61696 8.95397 1.86646C9.03016 2.11597 9.17011 2.34129 9.36 2.52018L11.25 4.41018L0.48 15.3902L0 15.8702V24.0302H8.07L8.55 23.5502L19.53 12.5702L21.42 14.5502C21.5513 14.7093 21.7141 14.8397 21.8981 14.9331C22.0821 15.0265 22.2834 15.0809 22.4894 15.0929C22.6954 15.105 22.9017 15.0744 23.0954 15.0031C23.289 14.9318 23.4658 14.8213 23.6148 14.6785C23.7638 14.5357 23.8817 14.3637 23.9612 14.1733C24.0407 13.9828 24.08 13.7781 24.0768 13.5717C24.0735 13.3654 24.0277 13.162 23.9422 12.9741C23.8567 12.7863 23.7334 12.6182 23.58 12.4802L20.76 9.66018L22.74 7.68018C24.51 5.94018 24.51 3.06018 22.74 1.29018C21.03 -0.419821 18.06 -0.419821 16.35 1.29018L14.37 3.27018L11.55 0.450179C11.3771 0.254314 11.1561 0.106995 10.9088 0.0228049C10.6615 -0.0613848 10.3965 -0.0795252 10.14 -0.0298206C10.0801 -0.0334238 10.0199 -0.0334238 9.96 -0.0298206L9.93 0.000179417ZM13.41 6.57018L17.34 10.5002L7.86 19.9802L4.02 16.0502L13.41 6.57018Z" fill="black"/>
</g>
<defs>
<clipPath id="clip0_201_7402">
<rect width="24" height="24" fill="white"/>
</clipPath>
</defs>
</svg>
