<svg width="24" height="24" viewBox="0 0 24 24" fill="none" xmlns="http://www.w3.org/2000/svg">
<g clip-path="url(#clip0_201_7390)">
<path d="M4.5 0C2.01 0 0 2.01 0 4.5C0 6.48 1.23 8.1 3 8.73V15.3C1.23 15.9 0 17.55 0 19.53C0 22.02 2.01 24.03 4.5 24.03C6.99 24.03 9 22.02 9 19.53C9 17.73 7.98 16.23 6.48 15.51C6.75 15.24 7.11 15.03 7.5 15.03H13.5C15.96 15.03 18 12.99 18 10.53V8.76C19.77 8.16 21 6.51 21 4.53C21 2.04 18.99 0.03 16.5 0.03C14.01 0.03 12 2.04 12 4.53C12 6.51 13.23 8.13 15 8.76V10.53C15 11.37 14.34 12.03 13.5 12.03H7.5C6.99 12.03 6.45 12.15 6 12.3V8.73C7.77 8.13 9 6.48 9 4.5C9 2.01 6.99 0 4.5 0V0Z" fill="black"/>
</g>
<defs>
<clipPath id="clip0_201_7390">
<rect width="24" height="24" fill="white"/>
</clipPath>
</defs>
</svg>
