<svg width="24" height="24" viewBox="0 0 24 24" fill="none" xmlns="http://www.w3.org/2000/svg">
<g clip-path="url(#clip0_201_7604)">
<path d="M16.5 0C12.36 0 9 3.36 9 7.5C9 7.98 9 8.46 9.09 8.91L0 18V24H9V18H15V15L15.09 14.91C15.54 15 16.02 15 16.5 15C20.64 15 24 11.64 24 7.5C24 3.36 20.64 0 16.5 0ZM18 3C19.65 3 21 4.35 21 6C21 7.65 19.65 9 18 9C16.35 9 15 7.65 15 6C15 4.35 16.35 3 18 3Z" fill="black"/>
</g>
<defs>
<clipPath id="clip0_201_7604">
<rect width="24" height="24" fill="white"/>
</clipPath>
</defs>
</svg>
