<svg width="24" height="24" viewBox="0 0 24 24" fill="none" xmlns="http://www.w3.org/2000/svg">
<g clip-path="url(#clip0_201_7574)">
<path d="M4.02 3.00017C3.70953 3.10454 3.44175 3.30766 3.25757 3.57852C3.07339 3.84937 2.98293 4.17307 3 4.50017V15.0002H0V19.5002C0 20.3402 0.66 21.0002 1.5 21.0002H22.53C23.37 21.0002 24.03 20.3402 24.03 19.5002V15.0002H21.03V4.50017C21.03 4.10234 20.872 3.72081 20.5907 3.43951C20.3094 3.1582 19.9278 3.00017 19.53 3.00017H4.53C4.44018 2.99205 4.34982 2.99205 4.26 3.00017C4.20005 2.99656 4.13995 2.99656 4.08 3.00017L4.02 3.00017ZM6 6.00017H18V15.0002H15V18.0002H9V15.0002H6V6.00017Z" fill="black"/>
</g>
<defs>
<clipPath id="clip0_201_7574">
<rect width="24" height="24" fill="white"/>
</clipPath>
</defs>
</svg>
