<svg width="24" height="24" viewBox="0 0 24 24" fill="none" xmlns="http://www.w3.org/2000/svg">
<g clip-path="url(#clip0_201_7562)">
<path d="M13.2301 0.000241129C13.0921 0.0412209 12.9608 0.101842 12.8401 0.180241L3.8401 4.68024C3.62918 4.74176 3.43435 4.84886 3.26938 4.99397C3.10442 5.13909 2.97334 5.31867 2.88542 5.52002C2.79751 5.72137 2.7549 5.93958 2.76061 6.15921C2.76632 6.37885 2.8202 6.59455 2.91846 6.79106C3.01672 6.98758 3.15694 7.1601 3.32923 7.29645C3.50151 7.4328 3.70164 7.52964 3.91547 7.58011C4.1293 7.63059 4.35161 7.63348 4.56668 7.58858C4.78175 7.54367 4.98433 7.45207 5.1601 7.32024L14.1601 2.82024C14.4832 2.65957 14.7375 2.38785 14.8764 2.05489C15.0154 1.72192 15.0297 1.35003 14.9167 1.00738C14.8037 0.664738 14.571 0.374303 14.2612 0.189323C13.9514 0.00434301 13.5854 -0.0627866 13.2301 0.000241129ZM16.2301 4.50024C16.0921 4.54122 15.9608 4.60184 15.8401 4.68024L3.8401 10.6802C3.62918 10.7418 3.43435 10.8489 3.26938 10.994C3.10442 11.1391 2.97334 11.3187 2.88542 11.52C2.79751 11.7214 2.7549 11.9396 2.76061 12.1592C2.76632 12.3788 2.8202 12.5945 2.91846 12.7911C3.01672 12.9876 3.15694 13.1601 3.32923 13.2965C3.50151 13.4328 3.70164 13.5296 3.91547 13.5801C4.1293 13.6306 4.35161 13.6335 4.56668 13.5886C4.78175 13.5437 4.98433 13.4521 5.1601 13.3202L17.1601 7.32024C17.4831 7.15957 17.7375 6.88785 17.8764 6.55489C18.0154 6.22192 18.0297 5.85003 17.9167 5.50738C17.8037 5.16474 17.571 4.8743 17.2612 4.68932C16.9514 4.50434 16.5854 4.43721 16.2301 4.50024ZM16.2301 10.5002C16.0921 10.5412 15.9608 10.6018 15.8401 10.6802L6.8401 15.1802C6.54979 15.3365 6.31904 15.584 6.18353 15.8846C6.04802 16.1851 6.0153 16.5219 6.09043 16.8429C6.16556 17.1639 6.34435 17.4513 6.59916 17.6604C6.85397 17.8696 7.17061 17.9891 7.5001 18.0002H13.5001C13.8979 18.0639 14.3047 17.9669 14.6311 17.7306C14.9574 17.4943 15.1764 17.1381 15.2401 16.7402C15.3038 16.3424 15.2068 15.9356 14.9705 15.6093C14.7342 15.283 14.3779 15.0639 13.9801 15.0002L17.1601 13.3202C17.4831 13.1596 17.7375 12.8879 17.8764 12.5549C18.0154 12.2219 18.0297 11.85 17.9167 11.5074C17.8037 11.1647 17.571 10.8743 17.2612 10.6893C16.9514 10.5043 16.5854 10.4372 16.2301 10.5002ZM8.5501 21.0002C8.15228 21.0639 7.79603 21.283 7.55974 21.6093C7.32344 21.9356 7.22645 22.3424 7.2901 22.7402C7.35375 23.1381 7.57283 23.4943 7.89915 23.7306C8.22546 23.9669 8.63228 24.0639 9.0301 24.0002H12.0301C12.4279 24.0002 12.8095 23.8422 13.0908 23.5609C13.3721 23.2796 13.5301 22.8981 13.5301 22.5002C13.5301 22.1024 13.3721 21.7209 13.0908 21.4396C12.8095 21.1583 12.4279 21.0002 12.0301 21.0002H9.0301C8.94028 20.9921 8.84992 20.9921 8.7601 21.0002C8.70016 20.9966 8.64005 20.9966 8.5801 21.0002H8.5501Z" fill="black"/>
</g>
<defs>
<clipPath id="clip0_201_7562">
<rect width="24" height="24" fill="white"/>
</clipPath>
</defs>
</svg>
