<svg width="24" height="24" viewBox="0 0 24 24" fill="none" xmlns="http://www.w3.org/2000/svg">
<g clip-path="url(#clip0_201_7552)">
<path d="M17.64 0.0900574C17.1 0.120057 16.56 0.180057 16.05 0.360057C15.24 0.660057 14.46 1.11006 13.8 1.77006C13.6101 1.89044 13.4497 2.05197 13.3307 2.24271C13.2116 2.43344 13.137 2.6485 13.1122 2.87198C13.0875 3.09545 13.1133 3.32163 13.1878 3.53378C13.2623 3.74593 13.3835 3.93863 13.5425 4.09761C13.7015 4.2566 13.8942 4.37781 14.1063 4.45228C14.3185 4.52675 14.5446 4.55258 14.7681 4.52785C14.9916 4.50312 15.2066 4.42847 15.3974 4.30942C15.5881 4.19037 15.7496 4.02996 15.87 3.84006C16.2 3.51006 16.59 3.33006 17.01 3.18006C18.06 2.82006 19.35 2.97006 20.19 3.84006C21.36 5.01006 21.36 6.96006 20.19 8.16006L15.69 12.6601C14.37 13.9801 13.29 14.1001 12.51 14.0701C11.73 14.0401 11.28 13.6801 11.28 13.6801C11.1067 13.5816 10.9156 13.5182 10.7178 13.4935C10.52 13.4689 10.3192 13.4834 10.127 13.5363C9.93476 13.5893 9.75485 13.6795 9.59752 13.802C9.44019 13.9245 9.30852 14.0767 9.21003 14.2501C9.11154 14.4234 9.04815 14.6144 9.02349 14.8123C8.99884 15.0101 9.01339 15.2109 9.06632 15.4031C9.11925 15.5953 9.20952 15.7752 9.33198 15.9326C9.45444 16.0899 9.60668 16.2216 9.78003 16.3201C9.78003 16.3201 10.8 16.9801 12.3 17.0701C13.8 17.1601 15.9 16.5901 17.73 14.7301L22.23 10.2301C24.57 7.89006 24.57 4.11006 22.23 1.80006C21.39 0.960057 20.4 0.450057 19.32 0.210057C18.78 0.0900574 18.18 0.0900574 17.64 0.120057V0.0900574ZM11.64 7.02006C10.14 6.96006 8.07003 7.47006 6.30003 9.27006L1.80003 13.7701C-0.539971 16.1101 -0.539971 19.8901 1.80003 22.2001C3.48003 23.8801 5.88003 24.3601 7.98003 23.6101C8.79003 23.3101 9.57003 22.8601 10.23 22.2001C10.4199 22.0797 10.5803 21.9181 10.6994 21.7274C10.8184 21.5367 10.8931 21.3216 10.9178 21.0981C10.9426 20.8747 10.9167 20.6485 10.8423 20.4363C10.7678 20.2242 10.6466 20.0315 10.4876 19.8725C10.3286 19.7135 10.1359 19.5923 9.92375 19.5178C9.7116 19.4434 9.48542 19.4175 9.26195 19.4423C9.03847 19.467 8.82341 19.5416 8.63268 19.6607C8.44194 19.7797 8.28041 19.9402 8.16003 20.1301C7.83003 20.4601 7.44003 20.6401 7.02003 20.7901C5.97003 21.1501 4.68003 21.0001 3.84003 20.1301C2.67003 18.9601 2.67003 17.0101 3.84003 15.8101L8.34003 11.3101C9.54003 10.1101 10.59 9.96006 11.43 9.99006C12.27 10.0201 12.84 10.2601 12.84 10.2601C13.0158 10.3919 13.2184 10.4835 13.4334 10.5284C13.6485 10.5733 13.8708 10.5704 14.0847 10.5199C14.2985 10.4695 14.4986 10.3726 14.6709 10.2363C14.8432 10.0999 14.9834 9.92739 15.0817 9.73088C15.1799 9.53436 15.2338 9.31867 15.2395 9.09903C15.2452 8.8794 15.2026 8.66119 15.1147 8.45984C15.0268 8.25848 14.8957 8.0789 14.7307 7.93379C14.5658 7.78868 14.3709 7.68158 14.16 7.62006C14.16 7.62006 13.14 7.02006 11.64 6.96006V7.02006Z" fill="black"/>
</g>
<defs>
<clipPath id="clip0_201_7552">
<rect width="24" height="24" fill="white"/>
</clipPath>
</defs>
</svg>
