<svg width="24" height="24" viewBox="0 0 24 24" fill="none" xmlns="http://www.w3.org/2000/svg">
<path d="M1.5 0C0.66 0 0 0.66 0 1.5C0 2.34 0.66 3 1.5 3C2.34 3 3 2.34 3 1.5C3 0.66 2.34 0 1.5 0ZM6 0V3H24V0H6ZM1.5 6C0.66 6 0 6.66 0 7.5C0 8.34 0.66 9 1.5 9C2.34 9 3 8.34 3 7.5C3 6.66 2.34 6 1.5 6ZM6 6V9H24V6H6ZM1.5 12C0.66 12 0 12.66 0 13.5C0 14.34 0.66 15 1.5 15C2.34 15 3 14.34 3 13.5C3 12.66 2.34 12 1.5 12ZM6 12V15H24V12H6ZM1.5 18C0.66 18 0 18.66 0 19.5C0 20.34 0.66 21 1.5 21C2.34 21 3 20.34 3 19.5C3 18.66 2.34 18 1.5 18ZM6 18V21H24V18H6Z" fill="black"/>
</svg>
