<svg width="24" height="24" viewBox="0 0 24 24" fill="none" xmlns="http://www.w3.org/2000/svg">
<g clip-path="url(#clip0_201_7528)">
<path d="M10.5 -2.92975e-05C4.71 -2.92975e-05 0 4.70997 0 10.5C0 16.29 4.71 21 10.5 21C12.27 21 14.01 20.58 15.48 19.77C15.5977 19.9117 15.7283 20.0422 15.87 20.16L18.87 23.16C19.147 23.4717 19.4848 23.7235 19.8627 23.8999C20.2405 24.0763 20.6504 24.1737 21.0672 24.1859C21.4841 24.1982 21.899 24.1251 22.2866 23.9712C22.6741 23.8174 23.0262 23.5859 23.321 23.291C23.6159 22.9961 23.8474 22.6441 24.0013 22.2565C24.1552 21.869 24.2282 21.454 24.216 21.0372C24.2037 20.6204 24.1063 20.2105 23.9299 19.8326C23.7535 19.4548 23.5017 19.117 23.19 18.84L20.19 15.84C20.0439 15.6938 19.883 15.5631 19.71 15.45C20.52 13.98 21.03 12.27 21.03 10.47C21.03 4.67997 16.32 -0.0300293 10.53 -0.0300293L10.5 -2.92975e-05ZM10.5 2.99997C14.67 2.99997 18 6.32997 18 10.5C18 12.48 17.28 14.31 16.02 15.66C15.99 15.69 15.96 15.72 15.93 15.75C15.7883 15.8677 15.6577 15.9983 15.54 16.14C14.22 17.34 12.42 18.03 10.47 18.03C6.3 18.03 2.97 14.7 2.97 10.53C2.97 6.35997 6.3 3.02997 10.47 3.02997L10.5 2.99997Z" fill="black"/>
</g>
<defs>
<clipPath id="clip0_201_7528">
<rect width="24" height="24" fill="white"/>
</clipPath>
</defs>
</svg>
