<svg width="24" height="24" viewBox="0 0 24 24" fill="none" xmlns="http://www.w3.org/2000/svg">
<g clip-path="url(#clip0_201_7360)">
<path d="M0 -2.92975e-05V24H24V16.86C24.049 16.6427 24.049 16.4172 24 16.2V-0.0300293H0V-2.92975e-05ZM3 2.99997H21V15H16.5C16.4102 14.9919 16.3198 14.9919 16.23 15C15.8322 15.0358 15.4649 15.2281 15.2089 15.5348C14.9529 15.8414 14.8292 16.2371 14.865 16.635C14.9008 17.0328 15.0932 17.4001 15.3998 17.6561C15.7064 17.9121 16.1022 18.0358 16.5 18H21V21H3V2.99997ZM10.5 5.99997C8.01 5.99997 6 8.00997 6 10.5C6 13.5 10.5 18 10.5 18C10.5 18 15 13.5 15 10.5C15 8.00997 12.99 5.99997 10.5 5.99997ZM10.5 8.99997C11.34 8.99997 12 9.65997 12 10.5C12 11.34 11.34 12 10.5 12C9.66 12 9 11.34 9 10.5C9 9.65997 9.66 8.99997 10.5 8.99997Z" fill="black"/>
</g>
<defs>
<clipPath id="clip0_201_7360">
<rect width="24" height="24" fill="white"/>
</clipPath>
</defs>
</svg>
