<svg width="24" height="24" viewBox="0 0 24 24" fill="none" xmlns="http://www.w3.org/2000/svg">
<g clip-path="url(#clip0_201_7338)">
<path d="M11.7299 -0.0901447C11.5981 -0.0688599 11.4678 -0.038793 11.3399 -0.00014472C10.6632 0.152261 10.0602 0.534483 9.63351 1.08146C9.20687 1.62844 8.98296 2.30637 8.99991 2.99986V8.99986C8.99991 9.7955 9.31598 10.5586 9.87859 11.1212C10.4412 11.6838 11.2043 11.9999 11.9999 11.9999C12.7956 11.9999 13.5586 11.6838 14.1212 11.1212C14.6838 10.5586 14.9999 9.7955 14.9999 8.99986V2.99986C15.0144 2.5746 14.9383 2.15113 14.7766 1.75755C14.6149 1.36396 14.3714 1.00928 14.0621 0.717038C13.7529 0.424797 13.385 0.201686 12.9829 0.0625194C12.5808 -0.0766476 12.1537 -0.128687 11.7299 -0.0901447ZM4.04991 5.99986C3.73944 6.10422 3.47167 6.30735 3.28749 6.5782C3.1033 6.84906 3.01284 7.17276 3.02991 7.49986V8.99986C3.02991 13.4399 6.29991 17.0699 10.5299 17.8199V20.9999H9.02991C7.37991 20.9999 6.02991 22.3499 6.02991 23.9999H18.0599C18.0599 22.3499 16.7099 20.9999 15.0599 20.9999H13.5599V17.8199C17.7899 17.0999 21.0599 13.4399 21.0599 8.99986V7.49986C21.0599 7.10203 20.9019 6.7205 20.6206 6.4392C20.3393 6.15789 19.9577 5.99986 19.5599 5.99986C19.1621 5.99986 18.7806 6.15789 18.4993 6.4392C18.2179 6.7205 18.0599 7.10203 18.0599 7.49986V8.99986C18.0599 12.3299 15.3899 14.9999 12.0599 14.9999C8.72991 14.9999 6.05991 12.3299 6.05991 8.99986V7.49986C6.06354 7.27795 6.01789 7.058 5.92623 6.85587C5.83458 6.65374 5.69921 6.47446 5.5299 6.33097C5.36058 6.18749 5.16153 6.08336 4.94711 6.0261C4.73268 5.96884 4.50822 5.95988 4.28991 5.99986C4.22997 5.99625 4.16986 5.99625 4.10991 5.99986H4.04991Z" fill="black"/>
</g>
<defs>
<clipPath id="clip0_201_7338">
<rect width="24" height="24" fill="white"/>
</clipPath>
</defs>
</svg>
