<svg width="24" height="24" viewBox="0 0 24 24" fill="none" xmlns="http://www.w3.org/2000/svg">
<g clip-path="url(#clip0_201_7334)">
<path d="M1.01989 0.000166942C0.709417 0.104536 0.441641 0.30766 0.25746 0.578515C0.073278 0.849371 -0.0171846 1.17307 -0.000111553 1.50017V16.5002C-0.000111553 16.898 0.157924 17.2795 0.439228 17.5608C0.720533 17.8421 1.10206 18.0002 1.49989 18.0002H8.99989V21.0002H5.99989C4.34989 21.0002 2.99989 22.3502 2.99989 24.0002H20.9999C20.9999 22.3502 19.6499 21.0002 17.9999 21.0002H14.9999V18.0002H22.4999C22.8977 18.0002 23.2792 17.8421 23.5605 17.5608C23.8419 17.2795 23.9999 16.898 23.9999 16.5002V1.50017C23.9999 1.10234 23.8419 0.720811 23.5605 0.439507C23.2792 0.158202 22.8977 0.000166941 22.4999 0.000166941L1.49989 0.000166942C1.41007 -0.00794953 1.31971 -0.00794953 1.22989 0.000166941C1.16994 -0.0034363 1.10983 -0.0034363 1.04989 0.000166941L1.01989 0.000166942ZM2.99989 3.00017H20.9999V15.0002H2.99989V3.00017Z" fill="black"/>
</g>
<defs>
<clipPath id="clip0_201_7334">
<rect width="24" height="24" fill="white"/>
</clipPath>
</defs>
</svg>
