<svg width="24" height="24" viewBox="0 0 24 24" fill="none" xmlns="http://www.w3.org/2000/svg">
<g clip-path="url(#clip0_201_7322)">
<path d="M16.5 0C14.97 0 13.65 1.05 12.84 2.64C14.19 4.26 15 6.48 15 9.03C15 9.9 14.91 10.68 14.73 11.46C15.3 11.79 15.87 12.03 16.5 12.03C18.99 12.03 21 9.33 21 6.03C21 2.73 18.99 0.03 16.5 0.03V0ZM7.5 3C5.01 3 3 5.7 3 9C3 12.3 5.01 15 7.5 15C9.99 15 12 12.3 12 9C12 5.7 9.99 3 7.5 3ZM21.75 12.48C20.46 14.01 18.69 14.94 16.68 15C17.49 16.14 18 17.52 18 19.02V21H24V16.02C24 14.46 23.07 13.11 21.75 12.45V12.48ZM2.25 15.48C0.93 16.14 0 17.49 0 19.05V24.03H15V19.05C15 17.49 14.07 16.14 12.75 15.48C11.4 17.07 9.57 18 7.5 18C5.43 18 3.6 17.04 2.25 15.48Z" fill="black"/>
</g>
<defs>
<clipPath id="clip0_201_7322">
<rect width="24" height="24" fill="white"/>
</clipPath>
</defs>
</svg>
