<svg width="24" height="24" viewBox="0 0 24 24" fill="none" xmlns="http://www.w3.org/2000/svg">
<g clip-path="url(#clip0_201_7316)">
<path d="M10.5 0C7.59 0 4.98 1.2 3.09 3.09L12 12V0.09C11.52 0.03 11.01 0 10.5 0V0ZM15 3.18V13.41L6.84 21.57C8.67 23.07 10.95 24 13.5 24C19.29 24 24 19.29 24 13.5C24 8.22 20.07 3.93 15 3.18ZM2.73 7.11C1.05 8.73 0 10.98 0 13.5C0 16.38 1.38 18.87 3.48 20.52L9.87 14.13L2.73 7.11Z" fill="black"/>
</g>
<defs>
<clipPath id="clip0_201_7316">
<rect width="24" height="24" fill="white"/>
</clipPath>
</defs>
</svg>
