<svg width="24" height="24" viewBox="0 0 24 24" fill="none" xmlns="http://www.w3.org/2000/svg">
<g clip-path="url(#clip0_201_7314)">
<path d="M4.02 0.000166942C3.62218 0.0638189 3.26593 0.282899 3.02963 0.609212C2.79334 0.935526 2.69635 1.34234 2.76 1.74017C2.82365 2.13799 3.04273 2.49424 3.36905 2.73053C3.69536 2.96683 4.10218 3.06382 4.5 3.00017H6V9.00017H3C1.35 9.00017 0 10.3502 0 12.0002H9V21.0002L10.32 24.0002L12 21.0002V12.0002H21C21 10.3502 19.65 9.00017 18 9.00017H15V3.00017H16.5C16.8978 3.00017 17.2794 2.84213 17.5607 2.56083C17.842 2.27952 18 1.89799 18 1.50017C18 1.10234 17.842 0.720811 17.5607 0.439507C17.2794 0.158202 16.8978 0.000166942 16.5 0.000166942H4.5C4.41018 -0.00794953 4.31982 -0.00794953 4.23 0.000166941C4.17005 -0.0034363 4.10995 -0.0034363 4.05 0.000166941L4.02 0.000166942Z" fill="black"/>
</g>
<defs>
<clipPath id="clip0_201_7314">
<rect width="24" height="24" fill="white"/>
</clipPath>
</defs>
</svg>
