<svg width="24" height="24" viewBox="0 0 24 24" fill="none" xmlns="http://www.w3.org/2000/svg">
<g clip-path="url(#clip0_201_7300)">
<path d="M9 0C8.16 0 7.38 0.3 6.84 0.84C6.3 1.38 6 2.16 6 3C6 3.84 6.54 4.44 6.84 5.16C6.93 5.34 6.93 5.64 6.93 6H0V24H6.93C6.93 23.64 6.9 23.34 6.84 23.16C6.54 22.44 6 21.84 6 21C6 20.16 6.3 19.38 6.84 18.84C7.38 18.3 8.16 18 9 18C9.84 18 10.62 18.3 11.16 18.84C11.7 19.38 12 20.16 12 21C12 21.84 11.46 22.44 11.16 23.16C11.07 23.34 11.07 23.64 11.07 24H18V17.07C18.36 17.07 18.66 17.1 18.84 17.16C19.56 17.46 20.16 18 21 18C21.84 18 22.62 17.7 23.16 17.16C23.7 16.62 24 15.84 24 15C24 14.16 23.7 13.38 23.16 12.84C22.62 12.3 21.84 12 21 12C20.16 12 19.56 12.54 18.84 12.84C18.66 12.93 18.36 12.93 18 12.93V6H11.07C11.07 5.64 11.1 5.34 11.16 5.16C11.46 4.44 12 3.84 12 3C12 2.16 11.7 1.38 11.16 0.84C10.62 0.3 9.84 0 9 0V0Z" fill="black"/>
</g>
<defs>
<clipPath id="clip0_201_7300">
<rect width="24" height="24" fill="white"/>
</clipPath>
</defs>
</svg>
