<svg width="24" height="24" viewBox="0 0 24 24" fill="none" xmlns="http://www.w3.org/2000/svg">
<path d="M13.41 0C10.86 0 8.97 0.78 7.77 1.98C6.57 3.18 6.15 4.68 6 5.82L9 6.21C9.12 5.46 9.36 4.71 9.93 4.14C10.5 3.57 11.4 3 13.41 3C15.39 3 16.47 3.48 17.07 4.02C17.67 4.56 17.91 5.22 17.91 6C17.91 8.49 16.89 9.18 15.39 10.5C13.89 11.82 11.91 13.74 11.91 17.25V18H14.91V17.25C14.91 14.76 15.84 14.07 17.34 12.75C18.84 11.43 20.91 9.51 20.91 6C20.91 4.56 20.4 2.94 19.14 1.77C17.85 0.6 15.93 0 13.41 0V0ZM11.91 21V24H14.91V21H11.91Z" fill="black"/>
</svg>
