<svg width="24" height="24" viewBox="0 0 24 24" fill="none" xmlns="http://www.w3.org/2000/svg">
<g clip-path="url(#clip0_201_7292)">
<path d="M12 0C5.4 0 0 5.4 0 12C0 18.6 5.4 24 12 24C15.3 24 18.36 22.71 20.52 20.52L18.36 18.36C16.74 19.98 14.49 21 11.97 21C6.99 21 2.97 16.98 2.97 12C2.97 7.02 6.99 3 11.97 3C14.46 3 16.62 4.08 18.24 5.73L14.97 9H23.97V0L20.4 3.57C18.24 1.41 15.27 0 11.97 0H12Z" fill="black"/>
</g>
<defs>
<clipPath id="clip0_201_7292">
<rect width="24" height="24" fill="white"/>
</clipPath>
</defs>
</svg>
