<svg width="24" height="24" viewBox="0 0 24 24" fill="none" xmlns="http://www.w3.org/2000/svg">
<g clip-path="url(#clip0_201_7274)">
<path d="M12 0L11.43 0.27L0.93 4.68L0 5.07V6C0 10.98 2.01 15.36 4.41 18.57C5.61 20.16 6.9 21.48 8.16 22.41C9.42 23.34 10.65 24 12 24C13.38 24 14.58 23.34 15.84 22.41C17.1 21.48 18.39 20.16 19.59 18.57C21.99 15.36 24 10.98 24 6V5.07L23.07 4.68L12.57 0.27L12 0V0ZM12 3.27V21C11.88 21 11.01 20.79 10.02 20.07C9.03 19.35 7.89 18.18 6.84 16.8C4.92 14.25 3.42 10.71 3.18 6.96L12 3.3V3.27Z" fill="black"/>
</g>
<defs>
<clipPath id="clip0_201_7274">
<rect width="24" height="24" fill="white"/>
</clipPath>
</defs>
</svg>
