<svg width="24" height="24" viewBox="0 0 24 24" fill="none" xmlns="http://www.w3.org/2000/svg">
<g clip-path="url(#clip0_201_7258)">
<path d="M1.02 0C0.48 0 0 0.48 0 1.02V22.95C0 23.49 0.48 23.97 1.02 23.97H19.95C20.49 23.97 20.97 23.49 20.97 22.95V1.02C20.97 0.48 20.49 0 19.95 0H1.02V0ZM3 3H18V18H3V3ZM10.5 19.5C11.64 19.5 12.39 20.76 11.82 21.75C11.25 22.74 9.78 22.74 9.18 21.75C8.61 20.76 9.33 19.5 10.5 19.5Z" fill="black"/>
</g>
<defs>
<clipPath id="clip0_201_7258">
<rect width="24" height="24" fill="white"/>
</clipPath>
</defs>
</svg>
