<svg width="24" height="24" viewBox="0 0 24 24" fill="none" xmlns="http://www.w3.org/2000/svg">
<g clip-path="url(#clip0_201_7242)">
<path d="M13.41 -7.70511e-05C12.84 0.059923 12.3 0.449923 12 1.01992C11.61 1.79992 8.73 7.58992 8.16 8.15992C7.59 8.72992 6.84 8.99992 6 8.99992V20.9999H16.5C17.13 20.9999 17.67 20.6099 17.91 20.0699C17.91 20.0699 21 11.3399 21 10.4999C21 9.65992 20.34 8.99992 19.5 8.99992H15C14.16 8.99992 13.5 8.24992 13.5 7.49992C13.5 6.74992 14.67 2.75992 14.91 1.97992C15.15 1.19992 14.76 0.359923 13.98 0.089923C13.77 0.029923 13.62 -0.0300771 13.41 -7.70511e-05ZM0 8.99992V20.9999H3V8.99992H0Z" fill="black"/>
</g>
<defs>
<clipPath id="clip0_201_7242">
<rect width="24" height="24" fill="white"/>
</clipPath>
</defs>
</svg>
