<svg width="24" height="24" viewBox="0 0 24 24" fill="none" xmlns="http://www.w3.org/2000/svg">
<path d="M6 0V3H9V3.09C3.9 3.81 0 8.22 0 13.5C0 19.29 4.71 24 10.5 24C16.29 24 21 19.29 21 13.5C21 12.15 20.7 10.89 20.25 9.75L17.52 10.89C17.85 11.76 18 12.6 18 13.53C18 17.7 14.67 21.03 10.5 21.03C6.33 21.03 3 17.7 3 13.53C3 9.36 6.33 6.03 10.5 6.03C11.4 6.03 12.27 6.18 13.14 6.51L14.16 3.69C13.47 3.45 12.75 3.33 12 3.21V3.03H15V0.03H6V0ZM21 3.48C21 3.48 10.05 11.91 9.48 12.48C8.91 13.08 8.91 13.95 9.48 14.55C10.05 15.15 10.95 15.15 11.55 14.55C12.15 13.95 21.03 3.48 21.03 3.48H21Z" fill="black"/>
</svg>
