<svg width="24" height="24" viewBox="0 0 24 24" fill="none" xmlns="http://www.w3.org/2000/svg">
<path d="M0 0V3H24V0H0ZM0.27 6C0.09 6 0 6.12 0 6.27V20.7C0 20.85 0.12 20.97 0.27 20.97H5.7C5.85 20.97 5.97 20.85 5.97 20.7V6.27C5.97 6.09 5.85 6 5.7 6H0.27ZM9.27 6C9.09 6 9 6.12 9 6.27V14.7C9 14.85 9.12 14.97 9.27 14.97H14.7C14.85 14.97 14.97 14.85 14.97 14.7V6.27C14.97 6.09 14.85 6 14.7 6H9.27ZM18.27 6C18.12 6 18 6.12 18 6.27V20.7C18 20.85 18.12 20.97 18.27 20.97H23.7C23.85 20.97 23.97 20.85 23.97 20.7V6.27C23.97 6.09 23.85 6 23.7 6H18.27Z" fill="black"/>
</svg>
