<svg width="24" height="24" viewBox="0 0 24 24" fill="none" xmlns="http://www.w3.org/2000/svg">
<g clip-path="url(#clip0_201_7230)">
<path d="M0.269971 0C0.0899707 0 -2.92975e-05 0.12 -2.92975e-05 0.27V6H5.99997V0.27C5.99997 0.09 5.87997 0 5.72997 0H0.299971L0.269971 0ZM18.27 0C18.12 0 18 0.12 18 0.27V6H24V0.27C24 0.09 23.88 0 23.73 0H18.3L18.27 0ZM9.26997 3C9.08997 3 8.99997 3.12 8.99997 3.27V6H15V3.27C15 3.12 14.88 3 14.73 3H9.29997H9.26997ZM-2.92975e-05 9V12H24V9H-2.92975e-05ZM-2.92975e-05 15V20.73C-2.92975e-05 20.88 0.119971 21 0.269971 21H5.69997C5.84997 21 5.96997 20.88 5.96997 20.73V15H-0.0300293H-2.92975e-05ZM8.99997 15V17.73C8.99997 17.88 9.11997 18 9.26997 18H14.7C14.85 18 14.97 17.88 14.97 17.73V15H8.96997H8.99997ZM18 15V20.73C18 20.88 18.12 21 18.27 21H23.7C23.85 21 23.97 20.88 23.97 20.73V15H17.97H18Z" fill="black"/>
</g>
<defs>
<clipPath id="clip0_201_7230">
<rect width="24" height="24" fill="white"/>
</clipPath>
</defs>
</svg>
