<svg width="24" height="24" viewBox="0 0 24 24" fill="none" xmlns="http://www.w3.org/2000/svg">
<g clip-path="url(#clip0_201_7224)">
<path d="M10.02 0L6 6H0V18H6L10.02 24H12V0H10.02ZM15 3V6C15.51 6 16.02 6.06 16.5 6.18C19.08 6.84 21 9.18 21 12C21 14.82 19.11 17.16 16.5 17.82C16.02 17.94 15.51 18 15 18V21C15.75 21 16.44 20.88 17.16 20.73H17.25C21.15 19.74 24 16.2 24 12C24 7.8 21.15 4.26 17.25 3.27C16.56 3.09 15.78 3 15 3ZM15 9V15C15.27 15 15.54 14.97 15.75 14.91C17.04 14.58 18 13.38 18 12C18 10.62 17.07 9.42 15.75 9.09C15.51 9.03 15.24 9 15 9Z" fill="black"/>
</g>
<defs>
<clipPath id="clip0_201_7224">
<rect width="24" height="24" fill="white"/>
</clipPath>
</defs>
</svg>
