<svg width="24" height="24" viewBox="0 0 24 24" fill="none" xmlns="http://www.w3.org/2000/svg">
<g clip-path="url(#clip0_201_7208)">
<path d="M10.5 0C4.71 0 0 4.71 0 10.5C0 16.29 4.71 21 10.5 21C12.33 21 14.07 20.52 15.57 19.68C15.6496 19.8169 15.7398 19.9473 15.84 20.07L18.84 23.16C19.117 23.4717 19.4548 23.7235 19.8327 23.8999C20.2105 24.0763 20.6204 24.1737 21.0372 24.186C21.4541 24.1982 21.869 24.1252 22.2566 23.9713C22.6441 23.8174 22.9962 23.5859 23.291 23.291C23.5859 22.9962 23.8174 22.6441 23.9713 22.2566C24.1252 21.869 24.1982 21.4541 24.186 21.0372C24.1737 20.6204 24.0763 20.2105 23.8999 19.8327C23.7235 19.4548 23.4717 19.117 23.16 18.84L20.07 15.84C19.9473 15.7398 19.8169 15.6496 19.68 15.57C20.49 14.07 21 12.33 21 10.5C21 4.71 16.29 0 10.5 0V0ZM10.5 3C14.67 3 18 6.33 18 10.5C18 12.27 17.4 13.92 16.41 15.18C16.38 15.21 16.35 15.24 16.32 15.27C16.259 15.298 16.199 15.328 16.14 15.36C15.8392 15.5901 15.5847 15.8752 15.39 16.2C14.07 17.31 12.36 17.97 10.5 17.97C6.33 17.97 3 14.64 3 10.47C3 6.3 6.33 2.97 10.5 2.97V3ZM9 6V9H6V12H9V15H12V12H15V9H12V6H9Z" fill="black"/>
</g>
<defs>
<clipPath id="clip0_201_7208">
<rect width="24" height="24" fill="white"/>
</clipPath>
</defs>
</svg>
