<svg width="24" height="24" viewBox="0 0 24 24" fill="none" xmlns="http://www.w3.org/2000/svg">
<path d="M20.995 6.90001C20.9784 6.73196 20.9194 6.57087 20.8235 6.43183C20.7277 6.29279 20.5981 6.18034 20.447 6.10501L12.447 2.10501C12.3081 2.03549 12.1549 1.9993 11.9995 1.9993C11.8442 1.9993 11.6909 2.03549 11.552 2.10501L3.552 6.10501C3.40128 6.18077 3.27212 6.29335 3.17649 6.43233C3.08087 6.5713 3.02189 6.73217 3.005 6.90001C2.994 7.00701 2.044 17.667 11.594 21.914C11.7216 21.9716 11.86 22.0014 12 22.0014C12.14 22.0014 12.2784 21.9716 12.406 21.914C21.956 17.667 21.006 7.00801 20.995 6.90001ZM12 19.897C5.231 16.625 4.911 9.64201 4.966 7.63501L12 4.11801L19.029 7.63301C19.066 9.62201 18.701 16.651 12 19.897Z" fill="black"/>
<path d="M11 12.586L8.70703 10.293L7.29303 11.707L11 15.414L16.707 9.707L15.293 8.293L11 12.586Z" fill="black"/>
</svg>
