<svg width="24" height="24" viewBox="0 0 24 24" fill="none" xmlns="http://www.w3.org/2000/svg">
<path d="M2.06001 14.68C2.12892 14.9325 2.29407 15.1479 2.52001 15.28L4.43001 16.39V18.59C4.43001 18.8552 4.53537 19.1096 4.7229 19.2971C4.91044 19.4846 5.16479 19.59 5.43001 19.59H7.63001L8.74001 21.5C8.82726 21.6511 8.95255 21.7768 9.10342 21.8645C9.2543 21.9522 9.4255 21.9989 9.60001 22C9.77949 21.9999 9.95565 21.9516 10.11 21.86L12.01 20.76L13.92 21.86C14.0335 21.9265 14.1591 21.97 14.2895 21.9879C14.4198 22.0058 14.5525 21.9978 14.6797 21.9644C14.807 21.9309 14.9264 21.8727 15.0312 21.793C15.1359 21.7133 15.2238 21.6137 15.29 21.5L16.39 19.59H18.59C18.8552 19.59 19.1096 19.4846 19.2971 19.2971C19.4847 19.1096 19.59 18.8552 19.59 18.59V16.39L21.5 15.28C21.7287 15.1481 21.896 14.931 21.9653 14.6762C22.0346 14.4215 22.0004 14.1496 21.87 13.92L20.76 12L21.87 10.09C22.0004 9.86037 22.0346 9.58851 21.9653 9.33372C21.896 9.07894 21.7287 8.8619 21.5 8.72998L19.59 7.62999V5.42999C19.59 5.16477 19.4847 4.91042 19.2971 4.72288C19.1096 4.53534 18.8552 4.42999 18.59 4.42999H16.39L15.29 2.51999C15.1556 2.29196 14.9362 2.12654 14.68 2.05999C14.553 2.02585 14.4205 2.01711 14.29 2.03427C14.1596 2.05143 14.0339 2.09415 13.92 2.15999L12 3.25999L10.1 2.15999C9.8716 2.02877 9.60064 1.99298 9.346 2.06039C9.09135 2.1278 8.87359 2.29295 8.74001 2.51999L7.63001 4.42999H5.43001C5.16479 4.42999 4.91044 4.53534 4.7229 4.72288C4.53537 4.91042 4.43001 5.16477 4.43001 5.42999V7.62999L2.53001 8.72998C2.41542 8.79531 2.31489 8.88267 2.23421 8.98702C2.15352 9.09136 2.09428 9.21064 2.05989 9.33798C2.0255 9.46532 2.01664 9.59821 2.03382 9.72899C2.051 9.85976 2.09389 9.98585 2.16001 10.1L3.26001 12L2.16001 13.91C2.09284 14.0252 2.0494 14.1526 2.03222 14.2849C2.01505 14.4171 2.0245 14.5515 2.06001 14.68ZM5.28001 11.51L4.39001 9.99999L5.94001 9.09999C6.08929 9.01148 6.21296 8.88565 6.29887 8.73486C6.38479 8.58408 6.42998 8.41353 6.43001 8.23998V6.42999H8.21001C8.38622 6.43068 8.55948 6.38481 8.71226 6.29701C8.86504 6.2092 8.9919 6.08259 9.08001 5.92999L10 4.38999L11.54 5.27999C11.692 5.36775 11.8645 5.41396 12.04 5.41396C12.2155 5.41396 12.388 5.36775 12.54 5.27999L14.09 4.38999L15 5.92999C15.0881 6.08259 15.215 6.2092 15.3678 6.29701C15.5205 6.38481 15.6938 6.43068 15.87 6.42999H17.64V8.20999C17.6411 8.3845 17.6878 8.5557 17.7755 8.70657C17.8632 8.85744 17.9889 8.98273 18.14 9.06998L19.68 9.96999L18.79 11.51C18.7022 11.662 18.656 11.8344 18.656 12.01C18.656 12.1855 18.7022 12.358 18.79 12.51L19.68 14.05L18.14 14.95C17.9889 15.0372 17.8632 15.1625 17.7755 15.3134C17.6878 15.4643 17.6411 15.6355 17.64 15.81V17.59H15.81C15.6355 17.591 15.4643 17.6377 15.3134 17.7255C15.1626 17.8132 15.0373 17.9388 14.95 18.09L14.06 19.63L12.51 18.74C12.358 18.6522 12.1855 18.606 12.01 18.606C11.8345 18.606 11.662 18.6522 11.51 18.74L10 19.63L9.11001 18.09C9.0219 17.9374 8.89504 17.8108 8.74226 17.723C8.58949 17.6352 8.41622 17.5893 8.24001 17.59H6.43001V15.81C6.42159 15.645 6.37244 15.4847 6.28693 15.3433C6.20142 15.202 6.08223 15.084 5.94001 15L4.39001 14.1L5.28001 12.56C5.37735 12.4022 5.42891 12.2204 5.42891 12.035C5.42891 11.8496 5.37735 11.6678 5.28001 11.51Z" fill="black"/>
</svg>
