<svg width="24" height="24" viewBox="0 0 24 24" fill="none" xmlns="http://www.w3.org/2000/svg">
<path d="M20.916 9.56399C20.9688 9.44391 20.9975 9.31459 21.0003 9.18343C21.0031 9.05228 20.98 8.92186 20.9323 8.79963C20.8847 8.6774 20.8134 8.56576 20.7226 8.47111C20.6318 8.37645 20.5232 8.30063 20.403 8.24799L7.328 2.49199C6.333 2.05399 5.108 2.54299 4.683 3.53399L2.473 8.68799C2.26509 9.17551 2.25909 9.72561 2.45632 10.2176C2.65354 10.7095 3.03789 11.1031 3.525 11.312L9.563 13.9L8.323 17H4V14H2V22H4V19H8.323C9.146 19 9.875 18.506 10.179 17.742L11.401 14.688L16.606 16.918C16.8484 17.022 17.1221 17.026 17.3674 16.9292C17.6128 16.8324 17.81 16.6425 17.916 16.401L18.228 15.691L19.929 16.371L21.929 11.371L20.393 10.758L20.916 9.56399ZM16.482 14.69L4.313 9.47499L6.521 4.32299L18.683 9.67699L16.482 14.69Z" fill="black"/>
</svg>
