<svg width="24" height="24" viewBox="0 0 24 24" fill="none" xmlns="http://www.w3.org/2000/svg">
<path d="M4 21H13.62C14.1971 21.0003 14.7674 20.8756 15.2916 20.6344C15.8159 20.3933 16.2817 20.0414 16.657 19.603L21.759 13.651C21.8658 13.5266 21.9404 13.3778 21.9762 13.2178C22.012 13.0577 22.0079 12.8913 21.9642 12.7333C21.9206 12.5752 21.8387 12.4303 21.7258 12.3113C21.6129 12.1923 21.4726 12.1029 21.317 12.051L19.349 11.395C18.8734 11.2404 18.3669 11.2054 17.8745 11.2931C17.3821 11.3809 16.919 11.5886 16.526 11.898L13.341 14.445L12.724 13.21C12.3935 12.5443 11.8831 11.9844 11.2507 11.5938C10.6184 11.2032 9.88926 10.9975 9.146 11H4C2.897 11 2 11.897 2 13V19C2 20.103 2.897 21 4 21ZM4 13H9.146C9.909 13 10.594 13.423 10.935 14.105L11.382 15H7V17H13.014C13.1679 16.998 13.3191 16.9603 13.456 16.89L13.459 16.889L13.463 16.887H13.466L13.468 16.886H13.472L13.473 16.885C13.482 16.888 13.476 16.884 13.476 16.884C13.486 16.884 13.478 16.883 13.478 16.883H13.479L13.481 16.882L13.484 16.881L13.486 16.88L13.488 16.879L13.491 16.878L13.493 16.877C13.496 16.877 13.494 16.876 13.495 16.876L13.498 16.874L13.5 16.873L13.502 16.872L13.505 16.871L13.507 16.87H13.508L13.51 16.869L13.513 16.868L13.515 16.867C13.524 16.866 13.518 16.866 13.518 16.866L13.52 16.865C13.5585 16.8417 13.5953 16.8157 13.63 16.787L17.776 13.47C18.038 13.262 18.399 13.197 18.716 13.303L19.273 13.489L15.14 18.312C14.9499 18.5279 14.716 18.7008 14.454 18.8195C14.1919 18.9381 13.9077 18.9996 13.62 19H4V13ZM16 1.99999H15.983C15.82 2.00199 14.977 2.03899 14 2.70499C13.049 2.05699 12.226 2.00499 12.032 2.00099L12.002 1.99999H11.998C11.197 1.99999 10.443 2.31299 9.879 2.87799C9.313 3.44499 9 4.19799 9 4.99999C9 5.80199 9.313 6.55499 9.861 7.10399L13.275 10.69C13.3689 10.7875 13.4816 10.865 13.6062 10.918C13.7308 10.9709 13.8648 10.9982 14.0002 10.9981C14.1356 10.998 14.2696 10.9705 14.3941 10.9174C14.5187 10.8643 14.6312 10.7866 14.725 10.689L18.121 7.12099C18.688 6.55499 19 5.80199 19 4.99999C19 4.19799 18.687 3.44499 18.122 2.87899C17.8443 2.59954 17.514 2.37795 17.1501 2.22707C16.7862 2.07619 16.3959 1.999 16.002 1.99999H16ZM17 4.99999C17 5.26699 16.896 5.51799 16.689 5.72499L14 8.54999L11.293 5.70699C11.104 5.51799 11 5.26699 11 4.99999C11 4.73299 11.104 4.48199 11.294 4.29199C11.4748 4.10805 11.7211 4.00308 11.979 3.99999C12.004 4.00099 12.481 4.03199 13.046 4.48499C13.127 4.54999 13.209 4.62399 13.293 4.70699L14 5.41399L14.707 4.70699C14.791 4.62399 14.873 4.54999 14.954 4.48499C15.483 4.05999 15.93 4.00699 16.006 4.00099C16.1363 4.00097 16.2654 4.02676 16.3857 4.07688C16.506 4.127 16.6152 4.20045 16.707 4.29299C16.896 4.48199 17 4.73299 17 4.99999Z" fill="black"/>
</svg>
