<svg width="24" height="24" viewBox="0 0 24 24" fill="none" xmlns="http://www.w3.org/2000/svg">
<path d="M2.58602 15.408L6.88502 19.707C6.97773 19.8 7.08792 19.8738 7.20926 19.9241C7.33059 19.9744 7.46068 20.0002 7.59202 20H19.593V18H12.635L19.857 10.778C20.637 9.999 20.637 8.729 19.857 7.95L14.906 3C14.5306 2.62579 14.0221 2.41566 13.492 2.41566C12.9619 2.41566 12.4535 2.62579 12.078 3L7.32802 7.749L2.57402 12.592C2.20601 12.969 2.00101 13.4756 2.00325 14.0025C2.0055 14.5293 2.21481 15.0341 2.58602 15.408ZM13.492 4.414L18.442 9.364L15.856 11.95L10.906 7L13.492 4.414ZM8.74902 9.156L9.49202 8.414L14.442 13.364L9.88502 17.921C9.86069 17.9461 9.83766 17.9725 9.81602 18H8.00602L4.00102 13.993L8.74902 9.156Z" fill="black"/>
</svg>
