<svg width="24" height="24" viewBox="0 0 24 24" fill="none" xmlns="http://www.w3.org/2000/svg">
<path d="M9.49999 22C11.503 22 13.387 21.22 14.813 19.793L21.717 12.697C21.854 12.5561 21.9464 12.3779 21.9827 12.1847C22.019 11.9915 21.9976 11.7919 21.9211 11.6108C21.8446 11.4297 21.7164 11.2752 21.5526 11.1666C21.3888 11.058 21.1966 11 21 11H17.699L21.874 3.48601C21.9785 3.29608 22.0186 3.07735 21.9882 2.86269C21.9577 2.64804 21.8584 2.44907 21.7052 2.29572C21.5519 2.14236 21.353 2.0429 21.1384 2.01229C20.9238 1.98169 20.705 2.02159 20.515 2.12601L13.405 6.07601L13.981 3.19701C14.0216 2.99328 13.9978 2.78194 13.9128 2.59237C13.8279 2.40279 13.686 2.24439 13.5068 2.13915C13.3277 2.03392 13.1203 1.98709 12.9133 2.00517C12.7064 2.02324 12.5102 2.10532 12.352 2.24001L4.19599 9.19701C1.27199 12.121 1.27199 16.879 4.19599 19.803C4.8909 20.5017 5.7175 21.0557 6.62793 21.4328C7.53836 21.8099 8.51455 22.0027 9.49999 22ZM5.55199 10.665L11.454 5.63401L11.206 6.87401L11.02 7.80401L10.596 9.92401L18.426 5.57401L15.126 11.514L15.125 11.515L14.301 13H18.632L13.389 18.389C12.35 19.428 10.969 20 9.49999 20C8.03099 20 6.64899 19.428 5.60999 18.389C3.46699 16.245 3.46699 12.755 5.55199 10.665Z" fill="black"/>
<path d="M9.5 18C10.2964 18.003 11.0698 17.7336 11.6921 17.2366C12.3144 16.7397 12.7481 16.0449 12.9213 15.2676C13.0946 14.4903 12.9969 13.6771 12.6445 12.963C12.2922 12.2488 11.7063 11.6765 10.984 11.341C10.989 11.394 11 11.446 11 11.5C11 11.8978 10.842 12.2794 10.5607 12.5607C10.2794 12.842 9.89782 13 9.5 13C9.10217 13 8.72064 12.842 8.43934 12.5607C8.15803 12.2794 8 11.8978 8 11.5C8 11.446 8.011 11.394 8.016 11.341C7.29374 11.6765 6.70784 12.2488 6.35548 12.963C6.00311 13.6771 5.90545 14.4903 6.07867 15.2676C6.2519 16.0449 6.68562 16.7397 7.30789 17.2366C7.93017 17.7336 8.70363 18.003 9.5 18Z" fill="black"/>
</svg>
