<svg width="24" height="24" viewBox="0 0 24 24" fill="none" xmlns="http://www.w3.org/2000/svg">
<path d="M2.00201 9.62999C1.97901 10.041 2.20901 10.424 2.58301 10.596L10.087 14.038L13.529 21.541C13.693 21.897 14.049 22.124 14.438 22.124L14.495 22.122C14.6957 22.1107 14.8884 22.0393 15.0478 21.9169C15.2073 21.7945 15.3262 21.6269 15.389 21.436L20.984 4.40399C21.101 4.04599 21.007 3.65099 20.741 3.38399C20.475 3.11699 20.081 3.02599 19.721 3.14099L2.68801 8.73599C2.49705 8.79879 2.32946 8.91768 2.20709 9.07716C2.08472 9.23663 2.01325 9.42929 2.00201 9.62999ZM18.466 5.65899L14.284 18.389L11.75 12.867C11.6503 12.6493 11.4757 12.4747 11.258 12.375L5.73401 9.84099L18.466 5.65899Z" fill="black"/>
</svg>
