<svg width="24" height="24" viewBox="0 0 24 24" fill="none" xmlns="http://www.w3.org/2000/svg">
<path d="M12.006 2.00703C10.6927 2.00212 9.39143 2.25787 8.17766 2.75944C6.96389 3.26102 5.86171 3.99845 4.93497 4.92903C1.03697 8.82803 1.03697 15.172 4.93497 19.071C6.81997 20.956 9.33097 21.994 12.006 21.994C14.681 21.994 17.193 20.956 19.077 19.071C22.975 15.173 22.975 8.82903 19.077 4.92903C18.1502 3.9985 17.048 3.26109 15.8343 2.75952C14.6205 2.25795 13.3193 2.00218 12.006 2.00703ZM17.663 17.656C16.156 19.163 14.146 19.993 12.006 19.993C9.86597 19.993 7.85597 19.163 6.34897 17.656C3.23097 14.537 3.23097 9.46203 6.34897 6.34303C7.85597 4.83603 9.86497 4.00703 12.006 4.00703C14.147 4.00703 16.156 4.83603 17.663 6.34303C20.781 9.46203 20.781 14.537 17.663 17.656Z" fill="black"/>
<path d="M11.467 11.125L8.25299 14.339L9.66699 15.753L12.881 12.539L15.006 14.663V9H9.34299L11.467 11.125Z" fill="black"/>
</svg>
