<svg width="24" height="24" viewBox="0 0 24 24" fill="none" xmlns="http://www.w3.org/2000/svg">
<path d="M11.999 1.99298C6.48499 1.99398 1.99899 6.47998 1.99899 11.994C1.99899 17.508 6.48499 21.994 12 21.994C17.513 21.994 21.999 17.508 22 11.994C22 6.47998 17.514 1.99398 11.999 1.99298ZM12 19.994C7.58799 19.994 3.99899 16.405 3.99899 11.994C3.99899 7.58298 7.58799 3.99398 11.999 3.99298C16.411 3.99398 20 7.58298 20 11.994C19.999 16.405 16.41 19.994 12 19.994Z" fill="black"/>
<path d="M12 10.994H8V12.994H12V16L16.005 11.995L12 7.99103V10.994Z" fill="black"/>
</svg>
