<svg width="24" height="24" viewBox="0 0 24 24" fill="none" xmlns="http://www.w3.org/2000/svg">
<path d="M11.63 21.91C11.7455 21.9661 11.8717 21.9968 12 22C12.1415 21.9994 12.2813 21.9687 12.41 21.91C22 17.67 21 7.00002 21 6.90002C20.9822 6.7327 20.9225 6.57258 20.8263 6.43449C20.7302 6.2964 20.6008 6.1848 20.45 6.11002L12.45 2.11002C12.3104 2.03969 12.1563 2.00305 12 2.00305C11.8437 2.00305 11.6896 2.03969 11.55 2.11002L3.55002 6.11002C3.39929 6.1848 3.26985 6.2964 3.17371 6.43449C3.07757 6.57258 3.01783 6.7327 3.00002 6.90002C3.00002 7.00002 2.08002 17.67 11.63 21.91ZM5.00002 7.63002L12 4.12002L19 7.63002C19.05 9.63002 18.73 16.63 12 19.9C5.26002 16.63 4.94002 9.64002 5.00002 7.63002Z" fill="black"/>
<path d="M11.06 16H13.06V13H16.07V11H13.06V8H11.06V11H8.06V13H11.06V16Z" fill="black"/>
</svg>
