<svg width="24" height="24" viewBox="0 0 24 24" fill="none" xmlns="http://www.w3.org/2000/svg">
<path d="M20.48 6.10498L12.48 2.10498C12.3411 2.03546 12.1879 1.99927 12.0325 1.99927C11.8772 1.99927 11.724 2.03546 11.585 2.10498L3.58502 6.10498C3.4343 6.18074 3.30514 6.29332 3.20951 6.4323C3.11389 6.57127 3.05491 6.73214 3.03802 6.89998C3.02702 7.00698 2.07702 17.667 11.627 21.914C11.7547 21.9714 11.8931 22.0011 12.033 22.0011C12.173 22.0011 12.3114 21.9714 12.439 21.914C21.989 17.667 21.039 7.00798 21.028 6.89998C21.0111 6.73201 20.952 6.57104 20.8562 6.43204C20.7604 6.29304 20.631 6.18054 20.48 6.10498ZM12.033 19.897C5.26502 16.625 4.94402 9.64198 4.99902 7.63498L12.033 4.11798L19.062 7.63298C19.1 9.62198 18.734 16.651 12.033 19.897Z" fill="black"/>
<path d="M14.293 8.29303L12 10.586L9.70703 8.29303L8.29303 9.70703L10.586 12L8.29303 14.293L9.70703 15.707L12 13.414L14.293 15.707L15.707 14.293L13.414 12L15.707 9.70703L14.293 8.29303Z" fill="black"/>
</svg>
